<?xml version='1.0' encoding='UTF-8'?>
<svg xmlns:xlink="http://www.w3.org/1999/xlink" xmlns="http://www.w3.org/2000/svg" version="1.1" width="60px" height="60px" viewBox="0.0 0.0 60.0 60.0"><defs><g id="c1"><path fill="#000000" fill-opacity="0.00392156862745" d="M0.0 0.0 L60.0 0.0 60.0 60.0 0.0 60.0 0.0 0.0"/></g><g id="c2"><path fill="none" stroke="#000000" stroke-width="1.0" stroke-opacity="0.301960784314" d="M0.7 12.25 Q-0.45 9.75 0.75 8.25 1.2 7.6 2.15 7.15 2.8 6.7 3.8 6.35 L17.5 1.95 30.2 7.0 41.35 31.7 Q42.95 35.15 40.2 36.7 39.5 37.3 38.3 37.65 L19.8 43.65 Q17.15 44.45 15.5 43.3 14.35 42.55 13.65 40.9 L0.7 12.25"/><path fill="#9d147b" stroke="none" d="M35.55 22.3 L31.5 13.2 29.75 9.2 16.95 4.25 5.5 7.85 Q1.65 9.1 3.35 12.8 L8.25 23.65 15.0 38.6 15.2 39.0 Q16.8 42.25 20.45 41.1 L37.2 35.7 Q41.1 34.5 39.35 30.75 L35.55 22.3 M2.15 7.15 Q2.8 6.7 3.8 6.35 L17.5 1.95 30.2 7.0 41.35 31.7 Q42.95 35.15 40.2 36.7 L38.9 37.25 23.2 42.3 20.4 43.2 19.1 43.5 17.3 43.4 Q15.3 42.9 14.2 40.5 L5.45 20.95 1.35 11.8 Q0.4 9.65 1.1 8.3 1.45 7.65 2.15 7.15"/><path fill="#c47fad" stroke="none" d="M31.5 13.2 L35.55 22.3 39.35 30.75 Q41.1 34.5 37.2 35.7 L20.45 41.1 Q16.8 42.25 15.2 39.0 L15.0 38.6 8.25 23.65 3.35 12.8 Q1.65 9.1 5.5 7.85 L16.95 4.25 29.75 9.2 31.5 13.2 M18.5 7.45 L9.1 10.55 9.55 11.6 Q9.8 12.8 9.15 13.6 8.4 14.45 7.1 14.4 L6.8 14.4 6.95 14.6 16.3 35.2 Q16.8 36.4 17.65 37.0 18.8 37.8 20.65 37.2 L34.0 32.9 33.7 32.1 Q33.45 30.9 34.1 30.1 34.75 29.3 35.95 29.35 L35.8 29.0 27.75 10.95 18.5 7.45"/><path fill="#630a4c" stroke="none" d="M0.75 8.25 Q1.2 7.6 2.15 7.15 1.45 7.65 1.1 8.3 L0.75 8.25 M23.3 42.5 L20.1 43.55 19.1 43.5 20.4 43.2 23.2 42.3 23.3 42.5 M15.5 43.3 Q14.35 42.55 13.65 40.9 L4.6 20.9 5.45 20.95 14.2 40.5 Q15.3 42.9 17.3 43.4 L15.5 43.3"/><path fill="#300525" stroke="none" d="M4.6 20.9 L0.7 12.25 Q-0.45 9.75 0.75 8.25 L1.1 8.3 Q0.4 9.65 1.35 11.8 L5.45 20.95 4.6 20.9 M40.2 36.7 Q39.5 37.3 38.3 37.65 L23.3 42.5 23.2 42.3 38.9 37.25 40.2 36.7 M20.1 43.55 L19.8 43.65 Q17.15 44.45 15.5 43.3 L17.3 43.4 19.1 43.5 20.1 43.55"/><path fill="#fcf2cf" stroke="none" d="M27.75 10.95 L35.8 29.0 35.95 29.35 Q34.75 29.3 34.1 30.1 33.45 30.9 33.7 32.1 L34.0 32.9 20.65 37.2 Q18.8 37.8 17.65 37.0 16.8 36.4 16.3 35.2 L6.95 14.6 6.8 14.4 7.1 14.4 Q8.4 14.45 9.15 13.6 9.8 12.8 9.55 11.6 L9.1 10.55 18.5 7.45 27.75 10.95"/><path fill="none" stroke="#bf9900" stroke-width="1.0" stroke-opacity="0.749019607843" d="M31.5 13.2 L35.55 22.3 M15.0 38.6 L8.25 23.65"/><path fill="none" stroke="#ffcc00" stroke-width="1.0" stroke-opacity="0.749019607843" d="M35.55 22.3 L39.35 30.75 Q41.1 34.5 37.2 35.7 L20.45 41.1 Q16.8 42.25 15.2 39.0 L15.0 38.6 M8.25 23.65 L3.35 12.8 Q1.65 9.1 5.5 7.85 L16.95 4.25 29.75 9.2 31.5 13.2"/><path fill="none" stroke="#000000" stroke-width="0.5" stroke-opacity="0.301960784314" d="M4.6 20.9 L0.7 12.25 Q-0.45 9.75 0.75 8.25 1.2 7.6 2.15 7.15 2.8 6.7 3.8 6.35 L17.5 1.95 M30.2 7.0 L41.35 31.7 Q42.95 35.15 40.2 36.7 39.5 37.3 38.3 37.65 L23.3 42.5 20.1 43.55 19.8 43.65 Q17.15 44.45 15.5 43.3 14.35 42.55 13.65 40.9 L4.6 20.9 M5.45 20.95 L1.35 11.8 Q0.4 9.65 1.1 8.3 1.45 7.65 2.15 7.15 M19.1 43.5 L17.3 43.4 Q15.3 42.9 14.2 40.5 L5.45 20.95 M23.2 42.3 L20.4 43.2 19.1 43.5 M40.2 36.7 L38.9 37.25 23.2 42.3"/><path fill="none" stroke="#f0b92b" stroke-width="0.5" d="M27.75 10.95 L35.8 29.0 35.95 29.35 Q34.75 29.3 34.1 30.1 33.45 30.9 33.7 32.1 L34.0 32.9 20.65 37.2 Q18.8 37.8 17.65 37.0 16.8 36.4 16.3 35.2 L6.95 14.6 6.8 14.4 7.1 14.4 Q8.4 14.45 9.15 13.6 9.8 12.8 9.55 11.6 L9.1 10.55 18.5 7.45"/><path fill="none" stroke="#ffcc00" stroke-width="0.5" stroke-opacity="0.749019607843" d="M18.5 7.45 L27.75 10.95"/></g><g id="c3"><path fill="#7fdbfe" stroke="none" d="M10.75 4.9 Q10.75 4.6 10.9 4.35 11.25 3.45 11.95 2.75 13.3 1.5 14.35 2.1 15.4 2.7 14.95 4.45 14.7 5.4 14.1 6.15 L13.75 6.5 Q13.1 7.15 12.35 7.35 L11.4 7.2 Q10.95 6.9 10.75 6.4 10.5 5.75 10.75 4.9 M7.5 5.9 Q7.0 5.85 6.6 5.5 6.05 5.0 5.8 4.15 L5.7 3.6 Q5.55 2.65 5.8 1.7 6.25 0.0 7.5 0.0 L7.6 0.0 Q8.85 0.0 9.3 1.7 9.55 2.65 9.4 3.6 L9.3 4.15 8.5 5.5 7.6 5.9 7.5 5.9 M4.35 4.9 Q4.6 5.75 4.35 6.4 L3.7 7.2 2.75 7.35 Q2.0 7.15 1.35 6.5 L1.0 6.15 Q0.4 5.4 0.15 4.45 -0.3 2.7 0.75 2.1 1.8 1.5 3.15 2.75 3.85 3.45 4.2 4.35 L4.35 4.9 M5.5 13.7 Q4.45 13.9 3.65 12.95 2.75 12.0 3.2 10.25 3.7 8.5 5.25 7.6 6.4 6.9 7.55 7.0 8.75 6.9 9.9 7.6 11.45 8.5 11.95 10.25 12.35 12.0 11.5 12.95 10.7 13.9 9.65 13.7 8.55 13.5 7.55 12.6 6.55 13.5 5.5 13.7"/></g><g id="c4"><g><use transform="matrix(1.0,0.0,0.0,1.0,0.0,0.0)" xlink:href="#c3"/></g></g><radialGradient gradientUnits="userSpaceOnUse" r="819.2" cx="0" cy="0" spreadMethod="pad" gradientTransform="matrix(0.0914459228516,0.0,0.0,0.0914459228516,0.6,3.4)" id="gradient1"><stop offset="0.0" stop-color="#ffffff"/><stop offset="1.0" stop-color="#ffffff" stop-opacity="0.0"/></radialGradient><g id="c5"><path stroke="none" fill="url(#gradient1)" d="M36.65 -54.65 Q60.05 -42.0 69.75 -17.95 80.55 8.9 68.0 34.1 55.45 59.35 26.8 68.2 -1.8 77.05 -29.7 64.3 -57.6 51.6 -68.45 24.75 -79.3 -2.05 -66.75 -27.25 L-66.7 -27.3 Q-54.1 -52.5 -25.5 -61.4 3.1 -70.2 31.0 -57.5 L36.65 -54.65"/></g><g id="c6"><g><use transform="matrix(1.0,0.0,0.0,1.0,0.0,0.0)" xlink:href="#c5"/></g></g><radialGradient gradientUnits="userSpaceOnUse" r="819.2" cx="0" cy="0" spreadMethod="pad" gradientTransform="matrix(0.209197998047,0.0,0.0,0.177108764648,67.15,107.2)" id="gradient2"><stop offset="0.356862745098" stop-color="#ffffff"/><stop offset="0.670588235294" stop-opacity="0.0"/></radialGradient><g id="c7"><path fill="none" stroke-linejoin="round" stroke-linecap="round" stroke="url(#gradient2)" stroke-width="0.5" d="M136.55 165.8 L68.6 106.0 68.4 106.0 118.25 201.5 M68.3 105.8 L68.35 105.8 68.3 105.8 68.3 105.85 68.4 106.0 68.3 106.0 86.55 211.5 M68.3 105.8 L68.3 105.85 68.3 106.0 68.15 105.95 18.25 151.55 M68.3 105.85 L68.25 105.85 68.3 106.0 50.0 193.2 M68.25 105.85 L68.15 105.95 0.05 97.7 M68.3 105.85 L68.25 105.8 68.25 105.85 M68.25 105.8 L68.2 105.7 0.0 45.7 M68.3 105.8 L68.25 105.75 68.25 105.8 M68.25 105.75 L68.2 105.7 18.25 10.05 M68.6 106.0 L68.35 105.8 118.25 60.15 M86.6 18.35 L68.3 105.8 M136.6 114.25 L68.6 106.0 M68.25 105.75 L49.95 0.05"/></g><g id="c8"><g><use transform="matrix(1.0,0.0,0.0,1.0,0.0,0.0)" xlink:href="#c7"/></g></g><g id="c9"><g><use transform="matrix(1.0,0.0,0.0,1.0,0.0,0.0)" xlink:href="#c2"/></g><g><use transform="matrix(0.238861083984,-0.0867004394531,0.10026550293,0.233917236328,34.25,31.15)" xlink:href="#c4"/></g><g><use transform="matrix(0.238861083984,-0.0867004394531,0.10026550293,0.233917236328,4.25,10.3)" xlink:href="#c4"/></g><g><use transform="matrix(0.141098022461,-0.0378112792969,0.111373901367,0.225646972656,20.25,20.65)" filter="url(#filter7)" xlink:href="#c6"/></g><g><use transform="matrix(-0.155029296875,0.0513153076172,0.0841827392578,0.147033691406,22.6,3.15)" filter="url(#filter8)" xlink:href="#c8"/></g></g><filter id="filter7"><feColorMatrix in="SourceGraphic" type="matrix" values="0.0 0.0 0.0 0.0 0.796875 0.0 0.0 0.0 0.0 0.59765625 0.0 0.0 0.0 0.0 0.19921875 0.0 0.0 0.0 1.0 0.0" result="cxform"/><feComposite operator="in" in2="SourceGraphic" result="color-xform"/></filter><filter id="filter8"><feColorMatrix in="SourceGraphic" type="matrix" values="0.0 0.0 0.0 0.0 0.99609375 0.0 0.0 0.0 0.0 0.99609375 0.0 0.0 0.0 0.0 0.99609375 0.0 0.0 0.0 1.0 0.0" result="cxform"/><feComposite operator="in" in2="SourceGraphic" result="color-xform"/></filter><linearGradient gradientUnits="userSpaceOnUse" x1="-819.2" x2="819.2" spreadMethod="pad" gradientTransform="matrix(0.0106201171875,0.0028076171875,-0.00257873535156,0.00979614257812,49.9,8.95)" id="gradient3"><stop offset="0.596078431373" stop-color="#276d97"/><stop offset="1.0" stop-color="#6597b9"/></linearGradient><linearGradient gradientUnits="userSpaceOnUse" x1="-819.2" x2="819.2" spreadMethod="pad" gradientTransform="matrix(-0.0184326171875,0.0184326171875,-0.00894165039062,-0.00894165039062,28.3,22.35)" id="gradient4"><stop offset="0.474509803922" stop-color="#97cbdc"/><stop offset="1.0" stop-color="#d4eef7"/></linearGradient><linearGradient gradientUnits="userSpaceOnUse" x1="-819.2" x2="819.2" spreadMethod="pad" gradientTransform="matrix(0.0160522460938,0.0,0.0,0.0232543945312,43.5,33.2)" id="gradient5"><stop offset="0.0" stop-color="#205f79"/><stop offset="0.541176470588" stop-color="#276d97"/><stop offset="1.0" stop-color="#5baaba"/></linearGradient><linearGradient gradientUnits="userSpaceOnUse" x1="-819.2" x2="819.2" spreadMethod="pad" gradientTransform="matrix(0.00900268554688,0.0,0.0,0.0122222900391,20.1,45.0)" id="gradient6"><stop offset="0.0078431372549" stop-color="#6597b9"/><stop offset="1.0" stop-color="#276d97"/></linearGradient><linearGradient gradientUnits="userSpaceOnUse" x1="-819.2" x2="819.2" spreadMethod="pad" gradientTransform="matrix(0.0200653076172,0.0104217529297,-0.00119018554688,0.000885009765625,39.1,19.65)" id="gradient7"><stop offset="0.117647058824" stop-color="#fdffe6" stop-opacity="0.733333333333"/><stop offset="1.0" stop-color="#feb4b4" stop-opacity="0.0"/></linearGradient><linearGradient gradientUnits="userSpaceOnUse" x1="-819.2" x2="819.2" spreadMethod="pad" gradientTransform="matrix(0.0200653076172,0.0104217529297,-0.00349426269531,0.00259399414062,33.7,23.55)" id="gradient8"><stop offset="0.117647058824" stop-color="#fdffe6" stop-opacity="0.733333333333"/><stop offset="1.0" stop-color="#feb4b4" stop-opacity="0.0"/></linearGradient><g id="c10"><path fill="none" stroke="#382510" stroke-width="1.0" stroke-opacity="0.501960784314" d="M48.5 0.0 L48.1 0.4 25.3 4.55 25.3 4.7 Q13.0 14.5 0.8 27.9 L0.25 28.4 0.25 55.0 38.75 52.25 56.65 19.5 56.5 19.25 48.5 0.0"/><path stroke="none" fill="url(#gradient3)" d="M48.1 0.4 L48.5 0.0 56.5 19.25 42.45 14.15 41.5 5.45 48.1 0.4"/><path fill="#7ac0d1" stroke="none" d="M25.3 4.7 L25.3 4.55 48.1 0.4 41.5 5.45 28.7 8.5 25.3 4.7"/><path stroke="none" fill="url(#gradient4)" d="M42.45 14.15 L30.35 35.0 26.1 35.35 Q12.9 35.6 12.1 30.35 L12.05 29.0 12.0 24.0 28.7 8.5 41.5 5.45 42.45 14.15"/><path stroke="none" fill="url(#gradient5)" d="M56.5 19.25 L56.65 19.5 38.75 52.25 30.35 35.0 42.45 14.15 56.5 19.25"/><path fill="#eef7f7" stroke="none" d="M0.8 27.9 Q13.0 14.5 25.3 4.7 L28.7 8.5 12.0 24.0 0.8 27.9 M12.1 30.35 Q12.9 35.6 26.1 35.35 L21.85 35.65 21.35 35.7 Q14.5 36.7 9.6 40.3 11.95 37.2 12.1 32.7 L12.1 30.35"/><path fill="#97cbdc" stroke="none" d="M0.25 54.45 L0.25 28.4 0.8 27.9 12.0 24.0 12.05 29.0 12.1 30.35 12.1 32.7 Q11.95 37.2 9.6 40.3 L0.25 54.45"/><path stroke="none" fill="url(#gradient6)" d="M38.75 52.25 L0.25 55.0 0.25 54.45 9.6 40.3 Q14.5 36.7 21.35 35.7 L21.85 35.65 26.1 35.35 30.35 35.0 38.75 52.25"/><path stroke="none" fill="url(#gradient7)" d="M39.65 19.1 L38.65 20.8 Q32.05 16.95 23.75 13.05 L25.45 11.5 Q32.45 15.5 39.65 19.1"/><path stroke="none" fill="url(#gradient8)" d="M22.4 14.35 Q29.05 19.3 37.2 23.2 L35.85 25.65 Q27.05 21.0 17.85 18.6 20.05 16.2 22.4 14.35"/></g><g id="c11"><g><use transform="matrix(1.0,0.0,0.0,1.0,0.0,0.0)" xlink:href="#c10"/></g></g><g id="c12"><path fill="#fcf3d8" fill-opacity="0.301960784314" d="M2.55 11.85 Q2.55 12.5 3.05 13.05 3.55 13.55 4.25 13.55 4.95 13.55 5.45 13.05 6.0 12.55 6.0 11.9 6.0 11.15 5.5 10.65 5.0 10.1 4.25 10.1 3.55 10.1 3.05 10.6 2.55 11.1 2.55 11.85 M1.6 14.1 Q0.65 13.1 0.6 11.65 0.6 10.2 1.6 9.2 2.25 8.55 3.1 8.35 4.2 7.2 4.35 5.1 4.25 7.6 5.2 8.4 5.95 8.65 6.5 9.25 7.55 10.25 7.6 11.7 7.55 13.0 6.65 14.05 L6.55 14.15 6.95 15.45 5.8 14.75 Q5.05 15.15 4.1 15.15 3.2 15.1 2.4 14.7 L0.1 16.3 1.6 14.1"/><path fill="#fcf3d8" stroke="none" d="M2.55 11.85 Q2.55 11.1 3.05 10.6 3.55 10.1 4.25 10.1 5.0 10.1 5.5 10.65 6.0 11.15 6.0 11.9 6.0 12.55 5.45 13.05 4.95 13.55 4.25 13.55 3.55 13.55 3.05 13.05 2.55 12.5 2.55 11.85"/><path fill="#fcf3d8" stroke="none" d="M4.25 10.8 L7.65 7.55 Q6.1 9.2 5.4 11.55 L11.25 17.55 4.65 12.6 2.4 15.05 3.6 11.4 0.0 7.65 4.25 10.8"/></g><g id="c13"><g><use transform="matrix(1.0,0.0,0.0,1.0,0.0,0.0)" xlink:href="#c12"/></g></g><g id="c14"><path fill="none" stroke="#cdf2f5" stroke-width="0.6" stroke-opacity="0.152941176471" d="M21.85 77.65 L30.65 81.05 32.85 83.9"/><path fill="none" stroke="#cdf2f5" stroke-width="0.6" stroke-opacity="0.2" d="M20.2 70.95 L24.85 69.8 26.05 66.8 M21.85 77.65 L20.2 70.95"/><path fill="none" stroke="#cdf2f5" stroke-width="0.6" stroke-opacity="0.301960784314" d="M20.2 70.95 L17.45 67.95 M21.85 77.65 L21.1 80.1"/></g><g id="c15"><g><use transform="matrix(1.0,0.0,0.0,1.0,6.3,53.35)" xlink:href="#c9"/></g><g><use transform="matrix(0.0690155029297,0.326950073242,-0.326950073242,0.0690155029297,35.4,64.0)" filter="url(#filter12)" xlink:href="#c11"/></g><g><use transform="matrix(0.365371704102,0.40690612793,0.40690612793,-0.365371704102,25.1,72.75)" xlink:href="#c13"/></g><g><use transform="matrix(1.0,0.0,0.0,1.0,0.0,0.0)" xlink:href="#c14"/></g><g><use transform="matrix(0.141098022461,-0.0378112792969,0.111373901367,0.225646972656,27.2,74.05)" filter="url(#filter15)" xlink:href="#c6"/></g></g><filter id="filter12"><feColorMatrix in="SourceGraphic" type="matrix" values="0.48046875 0.0 0.0 0.0 0.51953125 0.0 0.48046875 0.0 0.0 0.51953125 0.0 0.0 0.48046875 0.0 0.51953125 0.0 0.0 0.0 1.0 0.0" result="cxform"/><feComposite operator="in" in2="SourceGraphic" result="color-xform"/></filter><filter id="filter15"><feColorMatrix in="SourceGraphic" type="matrix" values="1.0 0.0 0.0 0.0 0.0 0.0 1.0 0.0 0.0 0.0 0.0 0.0 1.0 0.0 0.0 0.0 0.0 0.0 0.23046875 0.0" result="cxform"/><feComposite operator="in" in2="SourceGraphic" result="color-xform"/></filter></defs><g><g><use transform="matrix(1.0,0.0,0.0,1.0,0.0,0.0)" xlink:href="#c1"/></g><g><use transform="matrix(1.15496826172,0.0,0.0,1.15496826172,-1.55,-56.9)" xlink:href="#c15"/></g></g></svg>