<?xml version='1.0' encoding='UTF-8'?>
<svg xmlns:xlink="http://www.w3.org/1999/xlink" xmlns="http://www.w3.org/2000/svg" version="1.1" width="60px" height="60px" viewBox="0.0 0.0 60.0 60.0"><defs><g id="c1"><path fill="#000000" fill-opacity="0.00392156862745" d="M0.0 0.0 L60.0 0.0 60.0 60.0 0.0 60.0 0.0 0.0"/></g><g id="c2"><path fill="none" stroke="#000000" stroke-width="1.0" stroke-opacity="0.301960784314" d="M0.7 12.25 Q-0.45 9.75 0.75 8.25 1.2 7.6 2.15 7.15 2.8 6.7 3.8 6.35 L17.5 1.95 30.2 7.0 41.35 31.7 Q42.95 35.15 40.2 36.7 39.5 37.3 38.3 37.65 L19.8 43.65 Q17.15 44.45 15.5 43.3 14.35 42.55 13.65 40.9 L0.7 12.25"/><path fill="#9d147b" stroke="none" d="M35.55 22.3 L31.5 13.2 29.75 9.2 16.95 4.25 5.5 7.85 Q1.65 9.1 3.35 12.8 L8.25 23.65 15.0 38.6 15.2 39.0 Q16.8 42.25 20.45 41.1 L37.2 35.7 Q41.1 34.5 39.35 30.75 L35.55 22.3 M2.15 7.15 Q2.8 6.7 3.8 6.35 L17.5 1.95 30.2 7.0 41.35 31.7 Q42.95 35.15 40.2 36.7 L38.9 37.25 23.2 42.3 20.4 43.2 19.1 43.5 17.3 43.4 Q15.3 42.9 14.2 40.5 L5.45 20.95 1.35 11.8 Q0.4 9.65 1.1 8.3 1.45 7.65 2.15 7.15"/><path fill="#c47fad" stroke="none" d="M31.5 13.2 L35.55 22.3 39.35 30.75 Q41.1 34.5 37.2 35.7 L20.45 41.1 Q16.8 42.25 15.2 39.0 L15.0 38.6 8.25 23.65 3.35 12.8 Q1.65 9.1 5.5 7.85 L16.95 4.25 29.75 9.2 31.5 13.2 M18.5 7.45 L9.1 10.55 9.55 11.6 Q9.8 12.8 9.15 13.6 8.4 14.45 7.1 14.4 L6.8 14.4 6.95 14.6 16.3 35.2 Q16.8 36.4 17.65 37.0 18.8 37.8 20.65 37.2 L34.0 32.9 33.7 32.1 Q33.45 30.9 34.1 30.1 34.75 29.3 35.95 29.35 L35.8 29.0 27.75 10.95 18.5 7.45"/><path fill="#630a4c" stroke="none" d="M0.75 8.25 Q1.2 7.6 2.15 7.15 1.45 7.65 1.1 8.3 L0.75 8.25 M23.3 42.5 L20.1 43.55 19.1 43.5 20.4 43.2 23.2 42.3 23.3 42.5 M15.5 43.3 Q14.35 42.55 13.65 40.9 L4.6 20.9 5.45 20.95 14.2 40.5 Q15.3 42.9 17.3 43.4 L15.5 43.3"/><path fill="#300525" stroke="none" d="M4.6 20.9 L0.7 12.25 Q-0.45 9.75 0.75 8.25 L1.1 8.3 Q0.4 9.65 1.35 11.8 L5.45 20.95 4.6 20.9 M40.2 36.7 Q39.5 37.3 38.3 37.65 L23.3 42.5 23.2 42.3 38.9 37.25 40.2 36.7 M20.1 43.55 L19.8 43.65 Q17.15 44.45 15.5 43.3 L17.3 43.4 19.1 43.5 20.1 43.55"/><path fill="#fcf2cf" stroke="none" d="M27.75 10.95 L35.8 29.0 35.95 29.35 Q34.75 29.3 34.1 30.1 33.45 30.9 33.7 32.1 L34.0 32.9 20.65 37.2 Q18.8 37.8 17.65 37.0 16.8 36.4 16.3 35.2 L6.95 14.6 6.8 14.4 7.1 14.4 Q8.4 14.45 9.15 13.6 9.8 12.8 9.55 11.6 L9.1 10.55 18.5 7.45 27.75 10.95"/><path fill="none" stroke="#bf9900" stroke-width="1.0" stroke-opacity="0.749019607843" d="M31.5 13.2 L35.55 22.3 M15.0 38.6 L8.25 23.65"/><path fill="none" stroke="#ffcc00" stroke-width="1.0" stroke-opacity="0.749019607843" d="M35.55 22.3 L39.35 30.75 Q41.1 34.5 37.2 35.7 L20.45 41.1 Q16.8 42.25 15.2 39.0 L15.0 38.6 M8.25 23.65 L3.35 12.8 Q1.65 9.1 5.5 7.85 L16.95 4.25 29.75 9.2 31.5 13.2"/><path fill="none" stroke="#000000" stroke-width="0.5" stroke-opacity="0.301960784314" d="M4.6 20.9 L0.7 12.25 Q-0.45 9.75 0.75 8.25 1.2 7.6 2.15 7.15 2.8 6.7 3.8 6.35 L17.5 1.95 M30.2 7.0 L41.35 31.7 Q42.95 35.15 40.2 36.7 39.5 37.3 38.3 37.65 L23.3 42.5 20.1 43.55 19.8 43.65 Q17.15 44.45 15.5 43.3 14.35 42.55 13.65 40.9 L4.6 20.9 M5.45 20.95 L1.35 11.8 Q0.4 9.65 1.1 8.3 1.45 7.65 2.15 7.15 M19.1 43.5 L17.3 43.4 Q15.3 42.9 14.2 40.5 L5.45 20.95 M23.2 42.3 L20.4 43.2 19.1 43.5 M40.2 36.7 L38.9 37.25 23.2 42.3"/><path fill="none" stroke="#f0b92b" stroke-width="0.5" d="M27.75 10.95 L35.8 29.0 35.95 29.35 Q34.75 29.3 34.1 30.1 33.45 30.9 33.7 32.1 L34.0 32.9 20.65 37.2 Q18.8 37.8 17.65 37.0 16.8 36.4 16.3 35.2 L6.95 14.6 6.8 14.4 7.1 14.4 Q8.4 14.45 9.15 13.6 9.8 12.8 9.55 11.6 L9.1 10.55 18.5 7.45"/><path fill="none" stroke="#ffcc00" stroke-width="0.5" stroke-opacity="0.749019607843" d="M18.5 7.45 L27.75 10.95"/></g><g id="c3"><path fill="#7fdbfe" stroke="none" d="M10.75 4.9 Q10.75 4.6 10.9 4.35 11.25 3.45 11.95 2.75 13.3 1.5 14.35 2.1 15.4 2.7 14.95 4.45 14.7 5.4 14.1 6.15 L13.75 6.5 Q13.1 7.15 12.35 7.35 L11.4 7.2 Q10.95 6.9 10.75 6.4 10.5 5.75 10.75 4.9 M7.5 5.9 Q7.0 5.85 6.6 5.5 6.05 5.0 5.8 4.15 L5.7 3.6 Q5.55 2.65 5.8 1.7 6.25 0.0 7.5 0.0 L7.6 0.0 Q8.85 0.0 9.3 1.7 9.55 2.65 9.4 3.6 L9.3 4.15 8.5 5.5 7.6 5.9 7.5 5.9 M4.35 4.9 Q4.6 5.75 4.35 6.4 L3.7 7.2 2.75 7.35 Q2.0 7.15 1.35 6.5 L1.0 6.15 Q0.4 5.4 0.15 4.45 -0.3 2.7 0.75 2.1 1.8 1.5 3.15 2.75 3.85 3.45 4.2 4.35 L4.35 4.9 M5.5 13.7 Q4.45 13.9 3.65 12.95 2.75 12.0 3.2 10.25 3.7 8.5 5.25 7.6 6.4 6.9 7.55 7.0 8.75 6.9 9.9 7.6 11.45 8.5 11.95 10.25 12.35 12.0 11.5 12.95 10.7 13.9 9.65 13.7 8.55 13.5 7.55 12.6 6.55 13.5 5.5 13.7"/></g><g id="c4"><g><use transform="matrix(1.0,0.0,0.0,1.0,0.0,0.0)" xlink:href="#c3"/></g></g><radialGradient gradientUnits="userSpaceOnUse" r="819.2" cx="0" cy="0" spreadMethod="pad" gradientTransform="matrix(0.0914459228516,0.0,0.0,0.0914459228516,0.6,3.4)" id="gradient1"><stop offset="0.0" stop-color="#ffffff"/><stop offset="1.0" stop-color="#ffffff" stop-opacity="0.0"/></radialGradient><g id="c5"><path stroke="none" fill="url(#gradient1)" d="M36.65 -54.65 Q60.05 -42.0 69.75 -17.95 80.55 8.9 68.0 34.1 55.45 59.35 26.8 68.2 -1.8 77.05 -29.7 64.3 -57.6 51.6 -68.45 24.75 -79.3 -2.05 -66.75 -27.25 L-66.7 -27.3 Q-54.1 -52.5 -25.5 -61.4 3.1 -70.2 31.0 -57.5 L36.65 -54.65"/></g><g id="c6"><g><use transform="matrix(1.0,0.0,0.0,1.0,0.0,0.0)" xlink:href="#c5"/></g></g><radialGradient gradientUnits="userSpaceOnUse" r="819.2" cx="0" cy="0" spreadMethod="pad" gradientTransform="matrix(0.209197998047,0.0,0.0,0.177108764648,67.15,107.2)" id="gradient2"><stop offset="0.356862745098" stop-color="#ffffff"/><stop offset="0.670588235294" stop-opacity="0.0"/></radialGradient><g id="c7"><path fill="none" stroke-linejoin="round" stroke-linecap="round" stroke="url(#gradient2)" stroke-width="0.5" d="M136.55 165.8 L68.6 106.0 68.4 106.0 118.25 201.5 M68.3 105.8 L68.35 105.8 68.3 105.8 68.3 105.85 68.4 106.0 68.3 106.0 86.55 211.5 M68.3 105.8 L68.3 105.85 68.3 106.0 68.15 105.95 18.25 151.55 M68.3 105.85 L68.25 105.85 68.3 106.0 50.0 193.2 M68.25 105.85 L68.15 105.95 0.05 97.7 M68.3 105.85 L68.25 105.8 68.25 105.85 M68.25 105.8 L68.2 105.7 0.0 45.7 M68.3 105.8 L68.25 105.75 68.25 105.8 M68.25 105.75 L68.2 105.7 18.25 10.05 M68.6 106.0 L68.35 105.8 118.25 60.15 M86.6 18.35 L68.3 105.8 M136.6 114.25 L68.6 106.0 M68.25 105.75 L49.95 0.05"/></g><g id="c8"><g><use transform="matrix(1.0,0.0,0.0,1.0,0.0,0.0)" xlink:href="#c7"/></g></g><g id="c9"><g><use transform="matrix(1.0,0.0,0.0,1.0,0.0,0.0)" xlink:href="#c2"/></g><g><use transform="matrix(0.238861083984,-0.0867004394531,0.10026550293,0.233917236328,34.25,31.15)" xlink:href="#c4"/></g><g><use transform="matrix(0.238861083984,-0.0867004394531,0.10026550293,0.233917236328,4.25,10.3)" xlink:href="#c4"/></g><g><use transform="matrix(0.141098022461,-0.0378112792969,0.111373901367,0.225646972656,20.25,20.65)" filter="url(#filter7)" xlink:href="#c6"/></g><g><use transform="matrix(-0.155029296875,0.0513153076172,0.0841827392578,0.147033691406,22.6,3.15)" filter="url(#filter8)" xlink:href="#c8"/></g></g><filter id="filter7"><feColorMatrix in="SourceGraphic" type="matrix" values="0.0 0.0 0.0 0.0 0.796875 0.0 0.0 0.0 0.0 0.59765625 0.0 0.0 0.0 0.0 0.19921875 0.0 0.0 0.0 1.0 0.0" result="cxform"/><feComposite operator="in" in2="SourceGraphic" result="color-xform"/></filter><filter id="filter8"><feColorMatrix in="SourceGraphic" type="matrix" values="0.0 0.0 0.0 0.0 0.99609375 0.0 0.0 0.0 0.0 0.99609375 0.0 0.0 0.0 0.0 0.99609375 0.0 0.0 0.0 1.0 0.0" result="cxform"/><feComposite operator="in" in2="SourceGraphic" result="color-xform"/></filter><g id="c10"><path fill="#7e7659" stroke="none" d="M19.65 75.65 L19.8 75.45 20.4 75.0 22.2 74.0 25.15 71.95 26.7 70.2 27.05 68.45 27.0 68.5 Q26.2 70.3 24.8 71.55 23.65 72.55 21.95 73.55 20.15 74.45 19.45 75.05 18.25 76.1 18.45 77.0 L19.35 75.85 19.65 75.65 M33.65 66.65 L33.85 67.25 Q34.15 68.45 33.05 69.9 L32.3 70.8 32.4 70.8 32.9 70.9 33.45 70.2 Q35.4 67.65 33.6 65.65 L33.1 65.25 33.55 66.25 33.65 66.65 M21.5 77.95 L20.8 78.25 20.1 78.45 22.8 78.25 22.85 78.05 22.9 77.75 22.9 77.7 22.5 77.75 21.5 77.95 M25.75 77.4 L26.5 77.3 26.7 77.25 26.8 77.05 26.75 76.9 26.6 76.8 25.75 76.85 25.75 77.1 25.75 77.4"/><path fill="#413a2e" stroke="none" d="M19.65 75.65 L19.35 75.85 18.45 77.0 18.8 77.7 Q19.25 78.25 20.1 78.45 L20.8 78.25 21.5 77.95 Q19.9 78.1 19.2 77.35 18.6 76.65 19.65 75.65 M27.05 68.45 L26.7 70.2 27.5 68.7 Q28.25 66.95 29.05 66.25 30.2 65.25 31.4 65.25 32.45 65.2 33.2 66.0 L33.65 66.65 33.55 66.25 33.1 65.25 Q32.35 64.7 31.4 64.7 30.0 64.7 28.7 65.85 28.1 66.35 27.5 67.55 L27.05 68.45 M32.3 70.8 L31.95 71.2 31.75 71.45 31.55 71.65 31.35 71.9 31.3 71.95 31.25 71.95 31.0 72.3 30.7 72.75 30.35 73.25 29.85 74.15 29.85 74.35 30.05 74.45 30.2 74.5 30.35 74.35 30.7 73.65 31.05 73.1 31.35 72.7 31.7 72.3 31.9 72.05 32.15 71.85 32.3 71.6 32.9 70.9 32.4 70.8 32.3 70.8 M22.8 78.25 L23.0 78.2 23.05 78.15 25.75 77.4 25.75 77.1 25.75 76.85 Q24.75 77.05 22.9 77.75 L22.85 78.05 22.8 78.25"/><path fill="none" stroke="#000000" stroke-width="0.5" stroke-opacity="0.301960784314" d="M26.7 70.2 L25.15 71.95 22.2 74.0 20.4 75.0 19.8 75.45 19.65 75.65 M18.45 77.0 Q18.25 76.1 19.45 75.05 20.15 74.45 21.95 73.55 23.65 72.55 24.8 71.55 26.2 70.3 27.0 68.5 L27.05 68.45 M33.65 66.65 L33.85 67.25 Q34.15 68.45 33.05 69.9 L32.3 70.8 M32.9 70.9 L33.45 70.2 Q35.4 67.65 33.6 65.65 L33.1 65.25 Q32.35 64.7 31.4 64.7 30.0 64.7 28.7 65.85 28.1 66.35 27.5 67.55 L27.05 68.45 M20.1 78.45 Q19.25 78.25 18.8 77.7 L18.45 77.0 M20.1 78.45 L22.8 78.25 M25.75 77.4 L26.5 77.3 26.7 77.25 26.8 77.05 26.75 76.9 26.6 76.8 25.75 76.85 Q24.75 77.05 22.9 77.75 L22.9 77.7 22.5 77.75 21.5 77.95 Q19.9 78.1 19.2 77.35 18.6 76.65 19.65 75.65"/><path fill="#fbf2d0" stroke="none" d="M31.0 69.65 L30.5 69.7 30.35 69.75 31.2 69.95 31.8 70.1 31.8 70.05 32.85 70.4 32.9 70.4 31.8 69.9 31.0 69.7 31.0 69.65"/><path fill="#faf0c0" stroke="none" d="M31.35 70.4 L30.65 70.3 30.4 70.4 32.35 71.1 32.35 71.2 30.5 70.65 30.6 71.0 30.8 71.2 30.9 71.3 31.75 71.35 31.85 71.35 31.85 71.4 31.95 71.4 32.6 71.7 32.65 71.7 32.9 71.7 32.7 71.3 32.65 71.25 32.6 70.85 32.85 70.75 Q33.35 70.2 33.55 70.3 33.35 70.2 32.85 70.75 L32.6 70.85 32.65 71.25 32.7 71.3 32.9 71.7 33.1 71.8 33.1 71.75 33.25 71.8 33.5 71.85 33.65 71.7 33.5 71.45 33.0 70.95 33.45 71.05 33.85 70.9 34.0 70.8 33.65 70.45 33.6 70.35 33.55 70.35 33.55 70.3 Q33.1 69.9 32.05 69.8 L31.95 69.8 31.9 69.8 31.0 69.7 31.8 69.9 32.9 70.4 32.85 70.4 31.8 70.05 31.8 70.1 31.2 69.95 31.65 70.4 31.35 70.4 M33.55 70.3 L33.6 70.35 33.55 70.3"/><path fill="#b10101" stroke="none" d="M35.15 72.65 Q34.75 71.65 34.0 70.8 L33.85 70.9 33.45 71.05 33.0 70.95 33.5 71.45 33.65 71.7 33.5 71.85 Q34.4 72.1 35.15 72.65"/><path fill="#c2b585" stroke="none" d="M30.35 69.75 L30.5 69.85 31.35 70.4 31.65 70.4 31.2 69.95 30.35 69.75 M30.8 71.2 L30.6 71.1 30.25 70.85 Q30.1 70.8 30.25 71.05 L30.85 71.8 32.6 72.7 Q32.65 72.25 32.95 71.95 L33.1 71.8 32.9 71.7 32.65 71.7 32.6 71.7 31.95 71.4 32.75 72.0 32.6 72.1 32.55 72.15 31.6 71.7 31.4 71.6 31.4 71.65 30.9 71.3 30.8 71.2 M31.6 71.9 L31.25 71.7 31.55 71.75 31.8 72.1 31.7 72.0 31.6 71.9"/><path fill="#9e9266" stroke="none" d="M32.6 72.7 L32.75 72.65 33.5 72.55 33.5 72.35 33.1 72.0 33.45 71.85 33.5 71.85 33.25 71.8 33.1 71.75 33.1 71.8 32.95 71.95 Q32.65 72.25 32.6 72.7 L32.75 72.65 32.6 72.7 M31.25 71.7 L31.6 71.9 31.7 72.0 31.8 72.1 31.55 71.75 31.25 71.7"/><path fill="#650101" stroke="none" d="M33.5 72.55 L35.1 72.65 35.15 72.65 Q34.4 72.1 33.5 71.85 L33.45 71.85 33.1 72.0 33.5 72.35 33.5 72.55"/><path fill="#fcf5e0" stroke="none" d="M30.65 70.3 L30.1 70.15 Q29.9 70.1 30.0 70.3 L30.0 70.35 30.4 70.85 30.6 71.0 30.5 70.65 32.35 71.2 32.35 71.1 30.4 70.4 30.65 70.3"/><path fill="#e0d6ac" stroke="none" d="M31.95 71.4 L31.85 71.4 31.85 71.35 31.75 71.35 30.9 71.3 31.4 71.65 31.4 71.6 31.6 71.7 32.55 72.15 32.6 72.1 32.75 72.0 31.95 71.4"/><path fill="none" stroke="#000000" stroke-width="0.5" stroke-opacity="0.301960784314" d="M31.0 69.65 L30.5 69.7 30.35 69.75 30.5 69.85 31.35 70.4 30.65 70.3 30.1 70.15 Q29.9 70.1 30.0 70.3 L30.0 70.35 30.4 70.85 30.6 71.0 30.8 71.2 30.6 71.1 30.25 70.85 Q30.1 70.8 30.25 71.05 L30.85 71.8 32.6 72.7 32.75 72.65 33.5 72.55 35.1 72.65 35.15 72.65 Q34.75 71.65 34.0 70.8 L33.65 70.45 33.6 70.35 33.55 70.3 Q33.1 69.9 32.05 69.8 L31.95 69.8 31.9 69.8 31.0 69.7 M33.55 70.35 L33.55 70.3 M32.9 71.7 L32.65 71.7 32.6 71.7 M30.9 71.3 L30.8 71.2 M33.5 71.85 L33.25 71.8 33.1 71.75 33.1 71.8 32.9 71.7 M35.15 72.65 Q34.4 72.1 33.5 71.85 M31.65 70.4 L31.35 70.4 M31.25 71.7 L31.6 71.9 M31.4 71.6 L31.4 71.65 30.9 71.3 M32.75 72.65 L32.6 72.7 Q32.65 72.25 32.95 71.95"/><path fill="none" stroke="#000000" stroke-width="0.5" stroke-opacity="0.2" d="M33.55 70.3 Q33.35 70.2 32.85 70.75 L32.6 70.85 32.65 71.25 32.7 71.3 32.9 71.7"/><path fill="#2f291e" stroke="none" d="M31.75 72.1 L32.05 72.05 32.1 71.85 31.85 71.6 31.55 71.45 31.3 71.5 31.2 71.7 31.4 71.95 31.75 72.1"/><path fill="none" stroke="#000000" stroke-width="0.5" stroke-opacity="0.301960784314" d="M31.75 72.1 L32.05 72.05 32.1 71.85 31.85 71.6 31.55 71.45 31.3 71.5 31.2 71.7 31.4 71.95 31.75 72.1"/><path fill="#beaac4" stroke="none" d="M34.95 80.25 L34.9 80.2 34.3 80.25 33.8 80.4 Q33.65 80.5 34.25 80.85 L34.6 80.9 36.35 81.05 36.4 81.05 36.75 81.0 36.95 81.0 Q35.95 80.5 34.95 80.25 M34.05 81.15 L35.0 81.9 35.05 81.95 35.4 82.9 35.75 85.0 35.8 84.95 35.65 82.9 35.45 82.15 34.85 81.15 34.05 81.15 M35.75 85.0 Q35.3 83.3 34.35 82.4 L33.2 81.25 33.05 82.3 Q33.0 81.0 32.4 81.55 L31.75 82.65 Q31.4 83.45 31.55 84.4 L31.95 84.8 32.0 84.85 32.05 84.85 32.7 83.55 32.85 83.2 32.9 83.05 35.75 85.45 35.8 85.35 35.75 85.0 M33.05 82.3 L32.9 83.05 33.05 82.3"/><path fill="#493553" stroke="none" d="M34.9 80.2 L34.95 80.25 35.2 80.1 36.3 79.95 Q36.1 79.65 35.2 79.65 L33.05 79.8 32.95 79.9 34.9 80.2 32.95 79.9 32.95 79.95 33.0 80.15 33.2 81.05 33.9 81.1 34.05 81.15 34.85 81.15 36.4 81.1 36.35 81.05 34.6 80.9 34.25 80.85 Q33.65 80.5 33.8 80.4 L34.3 80.25 34.9 80.2 M35.45 82.15 L35.65 82.9 37.5 82.65 Q36.45 82.65 35.45 82.15 M32.7 83.55 Q33.3 84.8 34.55 85.35 L34.0 84.2 35.75 85.45 32.9 83.05 32.85 83.2 32.7 83.55"/><path fill="#c8c6ae" stroke="none" d="M36.75 81.0 L36.4 81.05 36.35 81.05 36.4 81.1 36.45 81.15 36.75 81.0 M31.85 80.7 L31.95 80.75 32.0 80.75 32.25 80.65 32.05 80.7 32.0 80.7 31.85 80.7"/><path fill="#aa92b1" stroke="none" d="M36.45 81.15 L36.4 81.1 34.85 81.15 35.45 82.15 Q36.45 82.65 37.5 82.65 L37.25 82.2 37.95 82.25 36.45 81.15"/><path fill="#734f7d" stroke="none" d="M35.75 85.0 L35.4 82.9 35.05 81.95 35.0 81.9 34.05 81.15 33.9 81.1 33.2 81.05 33.2 81.25 33.2 81.05 33.0 80.15 32.95 79.95 32.4 80.5 32.25 80.65 32.0 80.75 32.0 80.8 31.95 80.75 31.85 80.7 31.75 80.7 30.75 82.05 Q30.65 82.55 30.7 83.0 L30.95 83.3 31.35 82.9 31.2 83.3 Q31.2 84.0 31.55 84.4 31.4 83.45 31.75 82.65 L32.4 81.55 Q33.0 81.0 33.05 82.3 L33.2 81.25 34.35 82.4 Q35.3 83.3 35.75 85.0 M31.35 82.9 Q31.6 81.85 32.0 80.8 31.6 81.85 31.35 82.9"/><path fill="#a9a683" stroke="none" d="M35.8 84.95 L35.75 85.0 35.8 85.35 35.8 84.95 M32.4 80.5 L32.3 80.5 31.8 80.65 31.75 80.7 31.85 80.7 32.0 80.7 32.05 80.7 32.25 80.65 32.4 80.5"/><path fill="#ffffff" stroke="none" d="M32.0 84.85 L32.05 84.85 32.0 84.85 M31.95 80.75 L32.0 80.8 32.0 80.75 31.95 80.75"/><path fill="none" stroke="#000000" stroke-width="0.5" stroke-opacity="0.301960784314" d="M34.9 80.2 L34.95 80.25 Q35.95 80.5 36.95 81.0 L36.75 81.0 36.45 81.15 36.4 81.1 34.85 81.15 35.45 82.15 35.65 82.9 35.8 84.95 M34.9 80.2 L32.95 79.9 M33.05 79.8 L35.2 79.65 Q36.1 79.65 36.3 79.95 L35.2 80.1 34.95 80.25 M34.05 81.15 L34.85 81.15 M33.2 81.25 L33.2 81.05 33.9 81.1 34.05 81.15 M35.65 82.9 L37.5 82.65 37.25 82.2 37.95 82.25 36.45 81.15 M31.75 80.7 L30.75 82.05 Q30.65 82.55 30.7 83.0 L30.95 83.3 31.35 82.9 31.2 83.3 Q31.2 84.0 31.55 84.4 L31.95 84.8 32.0 84.85 32.05 84.85 32.7 83.55 Q33.3 84.8 34.55 85.35 L34.0 84.2 35.75 85.45 35.8 85.35 35.8 84.95 M31.85 80.7 L31.95 80.75 32.0 80.8 Q31.6 81.85 31.35 82.9 M32.0 80.75 L31.95 80.75 M32.95 79.95 L33.0 80.15 33.2 81.05 M32.7 83.55 L32.85 83.2 32.9 83.05 33.05 82.3 33.2 81.25 M35.75 85.0 L35.8 85.35"/><path fill="#beaac4" stroke="none" d="M33.1 78.4 L33.2 78.6 Q32.2 78.1 31.35 77.45 L31.0 77.0 30.8 76.45 31.45 76.5 31.7 76.75 32.85 78.1 32.9 78.15 33.1 78.4 M31.6 76.2 L32.75 76.55 32.8 76.55 Q33.3 76.3 33.75 76.2 34.95 75.7 35.65 75.2 L35.65 75.25 33.9 76.35 33.2 76.7 32.05 76.85 31.6 76.2 M35.65 75.2 Q34.0 75.9 32.75 75.7 L31.1 75.5 31.9 74.7 Q30.8 75.5 30.9 74.6 31.05 73.95 31.35 73.45 31.8 72.7 32.65 72.2 L33.2 72.3 33.25 72.3 33.25 72.35 32.65 73.65 32.45 74.0 32.35 74.15 36.0 75.0 35.95 75.05 35.65 75.2 M31.9 74.7 L32.35 74.15 31.9 74.7"/><path fill="#493553" stroke="none" d="M32.85 78.1 L31.7 76.75 31.45 76.5 30.8 76.45 31.0 77.0 31.35 77.45 29.9 76.1 31.35 77.45 31.5 77.75 32.0 78.7 Q31.65 78.75 31.05 78.0 L29.85 76.25 29.9 76.1 29.95 76.0 30.1 75.95 30.95 75.6 31.5 76.1 31.6 76.2 32.05 76.85 32.95 78.1 32.85 78.1 M33.2 76.7 L33.9 76.35 Q34.65 77.2 34.8 78.05 34.2 77.2 33.2 76.7 M32.65 73.65 Q34.05 73.4 35.2 74.05 L33.95 74.3 36.0 75.0 32.35 74.15 32.45 74.0 32.65 73.65"/><path fill="#c8c6ae" stroke="none" d="M33.1 78.4 L32.9 78.15 32.85 78.1 32.95 78.1 33.0 78.1 33.1 78.4 M29.85 74.7 L30.0 74.75 30.05 74.75 30.05 75.05 30.0 74.9 29.95 74.8 29.85 74.7"/><path fill="#aa92b1" stroke="none" d="M33.0 78.1 L32.95 78.1 32.05 76.85 33.2 76.7 Q34.2 77.2 34.8 78.05 L34.3 78.1 34.8 78.65 33.0 78.1"/><path fill="#734f7d" stroke="none" d="M35.65 75.2 Q34.95 75.7 33.75 76.2 33.3 76.3 32.8 76.55 L32.75 76.55 31.6 76.2 31.5 76.1 30.95 75.6 Q31.05 75.5 31.1 75.5 31.05 75.5 30.95 75.6 L30.1 75.95 29.95 76.0 30.05 75.25 30.05 75.05 30.05 74.75 30.0 74.75 29.85 74.7 29.8 74.65 30.3 73.05 31.0 72.45 Q31.2 72.3 31.4 72.45 L31.3 73.0 31.55 72.65 Q32.15 72.2 32.65 72.2 31.8 72.7 31.35 73.45 31.05 73.95 30.9 74.6 30.8 75.5 31.9 74.7 L31.1 75.5 32.75 75.7 Q34.0 75.9 35.65 75.2 M31.3 73.0 L30.05 74.75 31.3 73.0"/><path fill="#a9a683" stroke="none" d="M35.65 75.25 L35.65 75.2 35.95 75.05 35.65 75.25 M30.05 75.25 L30.0 75.2 29.8 74.7 29.8 74.65 29.85 74.7 29.95 74.8 30.0 74.9 30.05 75.05 30.05 75.25"/><path fill="#ffffff" stroke="none" d="M33.25 72.3 L33.3 72.3 33.25 72.35 33.25 72.3 M30.0 74.75 L30.05 74.75 30.0 74.75"/><path fill="none" stroke="#000000" stroke-width="0.5" stroke-opacity="0.301960784314" d="M31.35 77.45 Q32.2 78.1 33.2 78.6 L33.1 78.4 33.0 78.1 32.95 78.1 32.05 76.85 33.2 76.7 33.9 76.35 35.65 75.25 M31.35 77.45 L29.9 76.1 M29.85 76.25 L31.05 78.0 Q31.65 78.75 32.0 78.7 L31.5 77.75 31.35 77.45 M31.6 76.2 L32.05 76.85 M31.1 75.5 Q31.05 75.5 30.95 75.6 L31.5 76.1 31.6 76.2 M33.9 76.35 Q34.65 77.2 34.8 78.05 L34.3 78.1 34.8 78.65 33.0 78.1 M29.8 74.65 L30.3 73.05 31.0 72.45 Q31.2 72.3 31.4 72.45 L31.3 73.0 31.55 72.65 Q32.15 72.2 32.65 72.2 L33.2 72.3 33.25 72.3 33.3 72.3 33.25 72.35 32.65 73.65 Q34.05 73.4 35.2 74.05 L33.95 74.3 36.0 75.0 35.95 75.05 35.65 75.25 M29.85 74.7 L30.0 74.75 30.05 74.75 31.3 73.0 M30.05 74.75 L30.0 74.75 M29.95 76.0 L30.1 75.95 30.95 75.6 M32.65 73.65 L32.45 74.0 32.35 74.15 31.9 74.7 31.1 75.5 M35.65 75.2 L35.95 75.05"/><path fill="#beaac4" stroke="none" d="M24.75 70.9 L24.7 70.9 25.15 72.9 25.45 73.65 26.1 74.55 26.85 74.45 25.85 73.85 25.8 73.8 25.35 72.9 24.75 70.9"/><path fill="#a9a683" stroke="none" d="M24.7 70.9 L24.75 70.9 24.65 70.5 24.7 70.9 M28.7 74.85 L28.75 74.85 Q28.9 74.6 29.2 74.6 L29.2 74.55 29.05 74.6 29.0 74.65 28.8 74.7 28.7 74.85"/><path fill="#e9e6e4" stroke="none" d="M24.65 70.5 L24.75 70.9 Q25.4 72.5 26.45 73.25 L27.75 74.25 Q27.65 73.8 27.7 73.15 27.7 72.75 27.85 72.45 27.7 72.75 27.7 73.15 27.95 74.5 28.5 73.8 L29.05 72.65 Q29.2 71.85 28.95 70.85 L28.55 70.55 28.5 70.5 28.45 70.55 27.95 71.9 27.85 72.3 27.85 72.45 24.65 70.4 24.65 70.5 M24.3 74.9 L24.05 75.0 26.15 75.5 26.2 75.5 26.75 75.4 27.25 75.15 Q27.35 75.0 26.75 74.75 L26.45 74.75 24.65 74.85 24.6 74.85 24.3 74.9"/><path fill="#aa9c97" stroke="none" d="M24.75 70.9 L25.35 72.9 25.8 73.8 25.85 73.85 26.85 74.45 26.1 74.55 24.6 74.8 24.65 74.85 26.45 74.75 26.75 74.75 Q27.35 75.0 27.25 75.15 L26.75 75.4 26.2 75.5 26.15 75.5 25.85 75.6 24.9 75.9 26.05 76.05 28.05 75.7 28.15 75.5 28.2 75.5 28.15 75.3 27.75 74.45 27.75 74.25 26.45 73.25 Q25.4 72.5 24.75 70.9 M25.45 73.65 L25.15 72.9 Q24.05 72.95 23.35 73.45 L25.45 73.65 M26.85 74.45 L27.0 74.45 27.75 74.45 27.0 74.45 26.85 74.45 M24.65 70.4 L27.85 72.45 27.85 72.3 27.95 71.9 Q27.2 70.75 25.9 70.35 L26.6 71.4 24.65 70.4 M26.2 75.5 L28.15 75.5 26.2 75.5"/><path fill="#d6d0cd" stroke="none" d="M26.1 74.55 L25.45 73.65 23.35 73.45 23.65 73.8 22.95 73.85 24.55 74.75 24.6 74.8 26.1 74.55"/><path fill="#c8c6ae" stroke="none" d="M24.55 74.75 L24.3 74.9 24.6 74.85 24.65 74.85 24.6 74.8 24.55 74.75 M28.8 74.7 L29.0 74.65 29.05 74.6 29.2 74.55 29.0 74.55 Q28.85 74.55 28.8 74.7"/><path fill="#c6bdb9" stroke="none" d="M27.75 74.25 L27.75 74.45 28.15 75.3 28.2 75.5 Q28.3 75.05 28.7 74.85 L28.8 74.7 Q28.85 74.55 29.0 74.55 L29.4 72.35 29.0 74.55 29.2 74.55 29.2 74.6 29.25 74.6 30.05 73.1 30.0 72.2 29.7 71.95 29.4 72.35 29.45 71.95 28.95 70.85 Q29.2 71.85 29.05 72.65 L28.5 73.8 Q27.95 74.5 27.7 73.15 27.65 73.8 27.75 74.25"/><path fill="#ffffff" stroke="none" d="M28.5 70.5 L28.5 70.45 28.45 70.55 28.5 70.5"/><path fill="#15140e" stroke="none" d="M29.2 74.6 L29.25 74.6 29.2 74.6"/><path fill="none" stroke="#000000" stroke-width="0.5" stroke-opacity="0.301960784314" d="M26.85 74.45 L26.1 74.55 25.45 73.65 25.15 72.9 24.7 70.9 24.65 70.5 24.75 70.9 M27.75 74.25 L27.75 74.45 27.0 74.45 26.85 74.45 M24.65 70.5 L24.65 70.4 M27.85 72.45 Q27.7 72.75 27.7 73.15 27.65 73.8 27.75 74.25 M27.95 71.9 L27.85 72.3 27.85 72.45 M23.35 73.45 L23.65 73.8 22.95 73.85 24.55 74.75 24.3 74.9 24.05 75.0 26.15 75.5 25.85 75.6 24.9 75.9 26.05 76.05 28.05 75.7 M29.25 74.6 L30.05 73.1 30.0 72.2 29.7 71.95 29.4 72.35 29.45 71.95 28.95 70.85 28.55 70.55 28.5 70.5 28.5 70.45 28.45 70.55 27.95 71.9 Q27.2 70.75 25.9 70.35 L26.6 71.4 24.65 70.4 M24.55 74.75 L24.6 74.8 26.1 74.55 M25.15 72.9 Q24.05 72.95 23.35 73.45 M26.2 75.5 L26.15 75.5 M29.0 74.55 L29.2 74.55 M28.2 75.5 L28.15 75.3 27.75 74.45 M28.15 75.5 L26.2 75.5 M29.4 72.35 L29.0 74.55"/><path fill="#fbf2d0" stroke="none" d="M22.35 76.15 L22.55 75.7 22.6 75.55 Q22.55 76.15 22.65 76.45 L22.55 77.0 22.55 77.05 Q22.5 77.8 22.6 78.2 L22.55 78.2 22.35 77.0 22.35 76.2 22.35 76.15"/><path fill="#faf0c0" stroke="none" d="M23.0 76.7 L23.1 76.0 23.25 75.8 23.4 77.9 23.5 77.9 23.45 75.95 23.75 76.1 23.85 76.4 23.95 76.6 Q24.15 77.55 23.8 77.35 L23.8 77.45 23.8 77.5 23.85 78.3 23.9 78.3 23.85 78.6 23.45 78.2 23.4 78.15 23.05 78.05 22.9 78.25 22.3 78.8 22.9 78.25 23.05 78.05 23.4 78.15 23.45 78.2 23.85 78.6 23.85 78.7 23.85 78.75 23.8 78.9 23.75 79.15 23.6 79.3 23.45 79.05 23.05 78.45 23.0 78.95 22.8 79.3 Q22.75 79.3 22.65 79.4 L22.4 78.95 22.35 78.85 22.3 78.85 22.3 78.8 Q22.05 78.3 22.2 77.2 L22.2 77.1 22.25 77.1 22.35 76.2 22.35 77.0 22.55 78.2 22.6 78.2 Q22.5 77.8 22.55 77.05 L22.55 77.0 22.65 76.45 Q22.7 76.9 22.9 77.0 L23.0 76.7 M22.3 78.8 L22.35 78.85 22.3 78.8"/><path fill="#b10101" stroke="none" d="M24.1 80.95 L22.65 79.4 Q22.75 79.3 22.8 79.3 L23.0 78.95 23.05 78.45 23.45 79.05 23.6 79.3 23.75 79.15 Q23.75 80.1 24.1 80.95"/><path fill="#c2b585" stroke="none" d="M22.6 75.55 L22.65 75.75 Q22.75 76.3 23.0 76.7 L22.9 77.0 Q22.7 76.9 22.65 76.45 22.55 76.15 22.6 75.55 M23.85 76.4 L23.85 76.2 23.7 75.75 23.9 75.85 24.4 76.6 24.85 78.5 24.0 78.65 23.85 78.7 23.85 78.6 23.9 78.3 23.85 78.3 23.8 77.5 24.2 78.5 24.25 78.4 24.3 78.35 24.15 77.3 24.15 77.1 24.15 77.05 23.95 76.6 23.85 76.4 M24.35 77.3 L24.3 77.0 24.2 77.25 24.45 77.6 24.45 77.5 24.35 77.3"/><path fill="#9e9266" stroke="none" d="M24.85 78.5 L24.8 78.65 24.45 79.35 24.25 79.25 24.05 78.8 23.8 79.15 23.75 79.15 23.8 78.9 23.85 78.75 23.85 78.7 24.0 78.65 24.85 78.5 24.8 78.65 24.85 78.5 M24.3 77.0 L24.35 77.3 24.45 77.5 24.45 77.6 24.2 77.25 24.3 77.0"/><path fill="#650101" stroke="none" d="M24.45 79.35 Q24.15 80.25 24.15 80.95 L24.1 80.95 Q23.75 80.1 23.75 79.15 L23.8 79.15 24.05 78.8 24.25 79.25 24.45 79.35"/><path fill="#fcf5e0" stroke="none" d="M23.1 76.0 L23.05 75.45 Q23.05 75.2 23.25 75.4 L23.25 75.45 23.65 75.95 23.75 76.1 23.45 75.95 23.5 77.9 23.4 77.9 23.25 75.8 23.1 76.0"/><path fill="#e0d6ac" stroke="none" d="M23.8 77.5 L23.8 77.45 23.8 77.35 Q24.15 77.55 23.95 76.6 L24.15 77.05 24.15 77.1 24.15 77.3 24.3 78.35 24.25 78.4 24.2 78.5 23.8 77.5"/><path fill="none" stroke="#000000" stroke-width="0.5" stroke-opacity="0.301960784314" d="M22.35 76.15 L22.55 75.7 22.6 75.55 22.65 75.75 Q22.75 76.3 23.0 76.7 L23.1 76.0 23.05 75.45 Q23.05 75.2 23.25 75.4 L23.25 75.45 23.65 75.95 23.75 76.1 23.85 76.4 23.85 76.2 23.7 75.75 23.9 75.85 24.4 76.6 24.85 78.5 24.8 78.65 24.45 79.35 Q24.15 80.25 24.15 80.95 L24.1 80.95 22.65 79.4 22.4 78.95 22.35 78.85 22.3 78.8 Q22.05 78.3 22.2 77.2 L22.2 77.1 22.25 77.1 22.35 76.2 M22.3 78.85 L22.3 78.8 M23.85 78.6 L23.9 78.3 23.85 78.3 M23.95 76.6 L23.85 76.4 M23.75 79.15 L23.8 78.9 23.85 78.75 23.85 78.7 23.85 78.6 M24.1 80.95 Q23.75 80.1 23.75 79.15 M22.9 77.0 L23.0 76.7 M24.3 77.0 L24.35 77.3 M24.15 77.1 L24.15 77.05 23.95 76.6 M24.0 78.65 L24.85 78.5 M24.8 78.65 L24.85 78.5"/><path fill="none" stroke="#000000" stroke-width="0.5" stroke-opacity="0.2" d="M22.3 78.8 L22.9 78.25 23.05 78.05 23.4 78.15 23.45 78.2 23.85 78.6"/><path fill="#2f291e" stroke="none" d="M24.6 77.55 L24.45 77.75 24.25 77.8 24.1 77.55 24.0 77.15 24.1 76.9 24.35 76.9 24.55 77.2 24.6 77.55"/><path fill="none" stroke="#000000" stroke-width="0.5" stroke-opacity="0.301960784314" d="M24.6 77.55 L24.45 77.75 24.25 77.8 24.1 77.55 24.0 77.15 24.1 76.9 24.35 76.9 24.55 77.2 24.6 77.55"/><path fill="#beaac4" stroke="none" d="M29.5 78.7 L29.2 78.25 28.75 77.9 Q28.55 77.9 28.65 78.55 L28.8 78.9 29.75 80.35 29.8 80.4 30.0 80.65 30.15 80.85 29.55 78.7 29.5 78.7 M28.8 79.25 L28.3 78.6 28.3 79.85 28.25 79.9 27.7 80.75 26.25 82.3 26.3 82.3 27.8 80.95 28.3 80.25 28.8 79.25 M26.25 82.3 Q27.35 80.85 27.5 79.6 L27.75 77.95 26.75 78.55 Q27.8 77.65 26.95 77.5 L25.65 77.65 Q24.9 77.9 24.15 78.6 L24.05 79.1 24.05 79.2 24.1 79.15 25.55 78.95 25.9 78.85 26.1 78.85 25.9 82.55 25.95 82.55 26.25 82.3 M26.75 78.55 L26.1 78.85 26.75 78.55"/><path fill="#493553" stroke="none" d="M29.75 80.35 L28.8 78.9 28.65 78.55 Q28.55 77.9 28.75 77.9 L29.2 78.25 29.5 78.7 29.55 78.7 29.8 78.9 30.6 79.65 Q30.75 79.35 30.2 78.55 L28.8 76.95 28.65 77.0 28.55 77.0 28.4 77.1 27.85 77.85 28.25 78.45 28.3 78.6 28.8 79.25 29.75 80.45 29.75 80.35 M29.5 78.7 L28.65 77.0 29.5 78.7 M29.25 82.25 Q28.55 81.4 28.3 80.25 L27.8 80.95 Q28.45 81.85 29.25 82.25 M25.55 78.95 Q24.95 80.25 25.25 81.5 L25.8 80.45 25.9 82.55 26.1 78.85 25.9 78.85 25.55 78.95"/><path fill="#c8c6ae" stroke="none" d="M30.0 80.65 L29.8 80.4 29.75 80.35 29.75 80.45 29.75 80.5 30.0 80.65 M27.6 76.85 L27.45 76.75 27.4 76.65 27.3 76.6 27.35 76.7 27.3 76.75 27.6 76.85"/><path fill="#aa92b1" stroke="none" d="M29.75 80.45 L28.8 79.25 28.3 80.25 Q28.55 81.4 29.25 82.25 L29.35 81.75 29.8 82.35 29.75 80.5 29.75 80.45"/><path fill="#734f7d" stroke="none" d="M28.3 78.6 L28.25 78.45 27.85 77.85 28.4 77.1 28.55 77.0 27.75 76.9 27.6 76.85 27.3 76.75 25.3 77.5 24.85 77.65 Q24.3 78.1 24.15 78.6 24.9 77.9 25.65 77.65 L26.95 77.5 Q27.8 77.65 26.75 78.55 L27.75 77.95 27.5 79.6 Q27.35 80.85 26.25 82.3 L27.7 80.75 28.25 79.9 28.3 79.85 28.3 78.6 M27.85 77.85 L27.75 77.95 27.85 77.85 M27.3 76.5 L25.6 76.55 24.85 77.05 Q24.65 77.2 24.75 77.45 L25.3 77.5 27.3 76.75 27.35 76.7 27.3 76.6 27.3 76.55 27.3 76.5"/><path fill="#a9a683" stroke="none" d="M26.3 82.3 L26.25 82.3 25.95 82.55 26.3 82.3 M27.75 76.9 L27.75 76.8 Q27.5 76.75 27.35 76.55 L27.3 76.55 27.3 76.6 27.4 76.65 27.45 76.75 27.6 76.85 27.75 76.9"/><path fill="#15140e" stroke="none" d="M27.3 76.55 L27.3 76.5 27.3 76.55"/><path fill="#ffffff" stroke="none" d="M24.05 79.2 L24.1 79.15 24.05 79.2 M27.3 76.75 L27.35 76.7 27.3 76.75"/><path fill="none" stroke="#000000" stroke-width="0.5" stroke-opacity="0.301960784314" d="M29.5 78.7 L29.55 78.7 30.15 80.85 30.0 80.65 29.75 80.5 29.8 82.35 29.35 81.75 29.25 82.25 M29.75 80.45 L28.8 79.25 28.3 78.6 28.25 78.45 27.85 77.85 28.4 77.1 28.55 77.0 M28.65 77.0 L29.5 78.7 M29.75 80.5 L29.75 80.45 M28.3 80.25 L28.8 79.25 M29.55 78.7 L29.8 78.9 30.6 79.65 Q30.75 79.35 30.2 78.55 L28.8 76.95 M27.8 80.95 Q28.45 81.85 29.25 82.25 M28.3 80.25 L27.8 80.95 26.3 82.3 M27.75 77.95 L27.85 77.85 M27.3 76.5 L25.6 76.55 24.85 77.05 Q24.65 77.2 24.75 77.45 L25.3 77.5 24.85 77.65 Q24.3 78.1 24.15 78.6 L24.05 79.1 24.05 79.2 24.1 79.15 25.55 78.95 Q24.95 80.25 25.25 81.5 L25.8 80.45 25.9 82.55 25.95 82.55 26.3 82.3 M27.3 76.75 L27.35 76.7 27.3 76.6 M25.55 78.95 L25.9 78.85 26.1 78.85 26.75 78.55 27.75 77.95 M27.3 76.75 L25.3 77.5 M27.35 76.7 L27.3 76.75 M26.25 82.3 L25.95 82.55"/><path fill="#4d1704" stroke="none" d="M32.0 79.15 L31.05 79.6 30.8 79.55 30.75 80.0 Q30.75 80.4 31.05 80.8 L31.05 80.0 31.35 80.05 31.5 79.95 32.2 79.5 32.55 78.7 32.3 78.6 31.4 78.5 31.45 78.55 32.0 79.15 32.2 79.05 32.3 78.6 32.2 79.05 32.0 79.15 M31.7 81.15 L32.05 81.45 32.2 81.55 Q31.95 81.25 32.05 81.1 L32.2 80.9 31.95 81.15 31.7 81.15 M33.55 80.1 L33.55 79.95 Q33.6 79.5 33.25 79.35 L33.1 79.3 33.1 79.4 33.1 79.9 33.2 79.95 33.55 80.1"/><path fill="#8c4506" stroke="none" d="M31.05 80.8 Q31.25 81.0 31.55 81.05 L31.7 81.15 31.95 81.15 32.2 80.9 32.05 81.1 Q31.95 81.25 32.2 81.55 L33.1 81.25 33.3 81.05 33.15 81.05 32.95 80.9 Q32.75 80.65 32.9 80.3 L32.5 80.65 32.25 80.55 32.15 80.3 Q32.05 79.85 32.45 79.55 L32.5 79.6 Q32.95 79.7 32.95 80.2 L33.1 79.9 33.1 79.4 33.1 79.3 32.7 78.8 32.55 78.7 32.2 79.5 31.5 79.95 31.35 80.05 31.05 80.0 31.05 80.8 M32.2 80.9 L32.5 80.65 32.2 80.9"/><path fill="#d17702" stroke="none" d="M32.95 80.2 Q32.95 79.7 32.5 79.6 L32.45 79.55 Q32.05 79.85 32.15 80.3 L32.25 80.55 32.5 80.65 32.9 80.3 32.95 80.2"/><path fill="#fd9a09" stroke="none" d="M33.3 81.05 L33.55 80.25 33.55 80.1 33.2 79.95 33.1 79.9 32.95 80.2 32.9 80.3 Q32.75 80.65 32.95 80.9 L33.15 81.05 33.3 81.05"/><path fill="none" stroke="#000000" stroke-width="0.5" stroke-opacity="0.301960784314" d="M32.0 79.15 L31.05 79.6 30.8 79.55 30.75 80.0 Q30.75 80.4 31.05 80.8 31.25 81.0 31.55 81.05 L31.7 81.15 32.05 81.45 32.2 81.55 33.1 81.25 33.3 81.05 33.55 80.25 33.55 80.1 33.55 79.95 Q33.6 79.5 33.25 79.35 L33.1 79.3 32.7 78.8 32.55 78.7 32.3 78.6 31.4 78.5 M32.0 79.15 L32.2 79.05 32.3 78.6 M32.95 80.2 L32.9 80.3 32.5 80.65 32.2 80.9 31.95 81.15 31.7 81.15 M33.1 79.9 L32.95 80.2 M33.1 79.3 L33.1 79.4 33.1 79.9"/><path fill="none" stroke="#000000" stroke-width="0.5" stroke-opacity="0.101960784314" d="M33.15 81.2 L33.35 81.2 M31.55 79.4 L31.55 79.75 M31.55 80.15 L31.65 80.5 M31.85 80.85 L32.15 81.0 M31.7 78.5 L31.7 78.3 M33.1 80.1 L33.1 79.8 33.1 79.7 M32.85 79.35 L32.65 79.15 32.55 79.05 M32.0 79.2 L31.8 78.85 M32.7 80.55 L32.85 80.95 M33.25 79.85 L33.6 80.0"/></g><g id="c11"><path fill="#6a5272" stroke="none" d="M18.6 3.15 L18.6 2.25 20.15 2.1 20.35 2.2 Q23.0 2.85 25.4 4.85 L25.65 5.05 28.25 5.65 28.55 5.1 29.3 5.95 Q31.4 8.65 32.3 12.25 L29.45 19.2 29.2 19.9 24.15 17.7 20.35 16.0 21.0 8.2 22.8 7.7 21.0 8.2 20.35 16.0 19.1 30.25 Q16.35 31.05 12.1 31.05 L11.85 31.05 11.85 31.0 Q7.65 28.0 5.35 23.55 4.4 21.75 3.75 19.75 3.45 16.5 4.1 13.4 3.45 16.5 3.75 19.75 4.4 21.75 5.35 23.55 7.65 28.0 11.85 31.0 L11.85 31.05 11.9 32.2 11.6 32.1 Q7.95 30.7 5.2 26.85 4.0 25.1 3.0 22.95 L2.6 22.2 2.5 22.0 2.25 21.4 1.65 22.2 Q2.25 16.8 4.1 13.4 L4.25 13.1 Q4.5 11.7 5.0 10.4 5.8 8.15 7.1 5.95 L7.7 4.95 7.85 4.7 8.05 4.65 10.65 3.4 12.85 3.65 18.6 3.15 19.8 2.85 18.6 3.15 M24.65 16.35 L24.15 17.7 24.65 16.35 M29.45 19.2 L29.85 15.4 29.45 19.2 M18.65 6.65 L16.05 9.65 18.65 8.9 18.65 6.65 20.65 4.3 18.65 6.65 M21.0 8.2 L18.65 8.9 21.0 8.2"/><path fill="#98789e" stroke="none" d="M28.55 5.1 L28.25 5.65 25.65 5.05 25.4 4.85 Q23.0 2.85 20.35 2.2 L20.15 2.1 18.6 2.25 18.6 3.15 12.85 3.65 10.65 3.4 8.05 4.65 8.0 4.1 Q10.05 2.3 14.1 0.3 18.85 -0.65 23.65 1.3 L24.0 1.5 Q26.7 3.0 28.55 5.1 M10.65 3.4 Q11.35 3.2 10.65 3.2 9.85 3.3 10.65 3.4 M29.2 19.9 L29.3 20.85 28.15 31.7 23.85 34.9 23.3 35.1 Q20.35 36.1 15.4 35.85 L15.1 35.9 15.1 35.85 Q10.85 35.75 5.85 30.95 L5.65 30.75 5.2 30.25 Q3.3 27.9 1.9 25.25 -0.6 20.4 0.2 15.6 0.9 11.45 1.45 10.9 L1.6 10.9 1.6 10.85 2.95 8.9 Q4.15 7.3 4.85 6.8 5.5 6.25 5.9 5.95 L6.05 5.85 6.85 5.25 7.3 5.0 7.6 4.85 7.7 4.95 7.1 5.95 Q5.8 8.15 5.0 10.4 4.5 11.7 4.25 13.1 L4.1 13.4 Q2.25 16.8 1.65 22.2 L2.25 21.4 2.5 22.0 2.6 22.2 3.0 22.95 4.65 26.75 4.9 27.1 5.2 27.5 Q7.95 31.1 11.0 32.75 L19.4 33.75 19.85 33.45 15.95 33.25 11.9 32.2 11.85 31.05 12.1 31.05 Q16.35 31.05 19.1 30.25 L24.15 17.7 29.2 19.9 M23.3 27.75 Q21.95 29.4 19.1 30.25 21.95 29.4 23.3 27.75"/><path fill="#9e7350" stroke="none" d="M20.35 16.0 L24.15 17.7 19.1 30.25 20.35 16.0 M29.3 20.85 L29.2 19.9 29.4 20.0 29.2 19.9 29.45 19.2 29.4 20.0 29.3 20.85 M18.65 8.9 L16.05 9.65 18.65 6.65 18.65 8.9 M15.1 35.9 L15.4 35.85 15.7 36.1 15.1 35.9"/><path fill="#313126" stroke="none" d="M8.0 4.1 L8.05 4.65 7.85 4.7 7.6 4.85 7.3 5.0 6.85 5.25 8.0 4.1"/><path fill="#7c5b3f" stroke="none" d="M1.6 10.85 L1.6 10.9 1.45 10.9 Q1.5 10.8 1.6 10.85 M7.85 4.7 L7.7 4.95 7.6 4.85 7.85 4.7"/><path fill="#161218" stroke="none" d="M5.85 30.95 Q10.85 35.75 15.1 35.85 L15.1 35.9 15.7 36.1 15.4 35.85 Q20.35 36.1 23.3 35.1 L23.85 34.9 28.15 31.7 27.85 34.55 Q26.05 36.35 23.3 37.05 L18.65 37.4 Q12.65 37.1 8.5 33.55 L5.85 30.95 M26.45 33.85 Q25.85 34.3 27.85 34.55 25.85 34.3 26.45 33.85"/><path fill="#17170f" stroke="none" d="M3.0 22.95 Q4.0 25.1 5.2 26.85 7.95 30.7 11.6 32.1 L11.9 32.2 15.95 33.25 19.85 33.45 19.4 33.75 11.0 32.75 Q7.95 31.1 5.2 27.5 L4.9 27.1 4.65 26.75 3.0 22.95"/><path fill="none" stroke="#000000" stroke-width="0.5" stroke-opacity="0.301960784314" d="M18.6 3.15 L19.8 2.85 M29.45 19.2 L32.3 12.25 Q31.4 8.65 29.3 5.95 L28.55 5.1 Q26.7 3.0 24.0 1.5 L23.65 1.3 Q18.85 -0.65 14.1 0.3 10.05 2.3 8.0 4.1 L8.05 4.65 10.65 3.4 Q9.85 3.3 10.65 3.2 11.35 3.2 10.65 3.4 L12.85 3.65 18.6 3.15 M22.8 7.7 L21.0 8.2 20.35 16.0 24.15 17.7 24.65 16.35 M29.2 19.9 L24.15 17.7 19.1 30.25 Q21.95 29.4 23.3 27.75 M29.4 20.0 L29.45 19.2 29.2 19.9 M29.4 20.0 L29.3 20.85 28.15 31.7 31.4 29.3 M29.85 15.4 L29.45 19.2 M18.65 8.9 L16.05 9.65 18.65 6.65 20.65 4.3 M18.65 8.9 L21.0 8.2 M4.85 6.8 Q4.15 7.3 2.95 8.9 L1.6 10.85 Q1.5 10.8 1.45 10.9 0.9 11.45 0.2 15.6 -0.6 20.4 1.9 25.25 3.3 27.9 5.2 30.25 L5.65 30.75 5.85 30.95 Q10.85 35.75 15.1 35.85 M15.1 35.9 L15.4 35.85 15.7 36.1 M23.85 34.9 L28.15 31.7 27.85 34.55 Q26.05 36.35 23.3 37.05 L18.65 37.4 Q12.65 37.1 8.5 33.55 L5.85 30.95 M7.7 4.95 L7.85 4.7 7.6 4.85 7.3 5.0 M7.7 4.95 L7.1 5.95 Q5.8 8.15 5.0 10.4 M4.1 13.4 Q3.45 16.5 3.75 19.75 4.4 21.75 5.35 23.55 7.65 28.0 11.85 31.0 L11.85 31.05 12.1 31.05 M19.1 30.25 L20.35 16.0 M8.05 4.65 L7.85 4.7 M27.85 34.55 Q25.85 34.3 26.45 33.85"/><path fill="none" stroke="#fc1b1b" stroke-width="0.5" d="M29.3 20.85 L29.2 19.9 29.4 20.0 30.25 20.35"/></g><radialGradient gradientUnits="userSpaceOnUse" r="819.2" cx="0" cy="0" spreadMethod="pad" gradientTransform="matrix(-0.0081787109375,0.000778198242188,0.0,0.0081787109375,4.2,1.45)" id="gradient3"><stop offset="0.0" stop-color="#fdfd13"/><stop offset="1.0" stop-color="#da5e0c"/></radialGradient><g id="c12"><path stroke="none" fill="url(#gradient3)" d="M0.0 4.4 Q0.05 2.9 0.95 1.55 1.85 0.15 3.15 0.0 4.5 -0.15 5.5 0.85 6.55 1.8 6.55 3.75 6.65 5.7 5.45 6.85 4.25 7.95 3.0 8.05 1.75 8.1 0.85 7.05 -0.1 5.95 0.0 4.4"/><path fill="none" stroke="#ffff2e" stroke-width="1.0" stroke-opacity="0.250980392157" d="M0.0 4.4 Q-0.1 5.95 0.85 7.05 1.75 8.1 3.0 8.05 4.25 7.95 5.45 6.85 6.65 5.7 6.55 3.75 6.55 1.8 5.5 0.85 4.5 -0.15 3.15 0.0 1.85 0.15 0.95 1.55 0.05 2.9 0.0 4.4"/></g><g id="c13"><g><use transform="matrix(1.0,0.0,0.0,1.0,0.0,0.0)" xlink:href="#c12"/></g></g><radialGradient gradientUnits="userSpaceOnUse" r="819.2" cx="0" cy="0" spreadMethod="pad" gradientTransform="matrix(-0.00199890136719,0.00018310546875,0.000350952148438,0.00262451171875,1.55,5.2)" id="gradient4"><stop offset="0.525490196078" stop-color="#a15103"/><stop offset="1.0" stop-color="#e34802" stop-opacity="0.0"/></radialGradient><radialGradient gradientUnits="userSpaceOnUse" r="819.2" cx="0" cy="0" spreadMethod="pad" gradientTransform="matrix(-0.00140380859375,0.000137329101562,0.0,0.00141906738281,2.2,1.85)" id="gradient5"><stop offset="0.525490196078" stop-color="#a15103"/><stop offset="1.0" stop-color="#e34802" stop-opacity="0.0"/></radialGradient><radialGradient gradientUnits="userSpaceOnUse" r="819.2" cx="0" cy="0" spreadMethod="pad" gradientTransform="matrix(-0.00054931640625,0.000595092773438,0.00135803222656,0.00123596191406,4.45,1.05)" id="gradient6"><stop offset="0.525490196078" stop-color="#a15103"/><stop offset="1.0" stop-color="#e34802" stop-opacity="0.0"/></radialGradient><radialGradient gradientUnits="userSpaceOnUse" r="819.2" cx="0" cy="0" spreadMethod="pad" gradientTransform="matrix(-0.000579833984375,6.103515625e-05,0.0,0.00141906738281,5.75,3.4)" id="gradient7"><stop offset="0.525490196078" stop-color="#a15103"/><stop offset="1.0" stop-color="#e34802" stop-opacity="0.0"/></radialGradient><g id="c14"><path stroke="none" fill="url(#gradient4)" d="M0.3 3.85 Q-0.1 4.5 0.05 5.35 0.15 6.15 0.65 6.75 1.2 7.3 1.85 7.2 2.5 7.15 2.85 6.5 3.25 5.85 3.1 5.05 3.0 4.2 2.5 3.65 1.95 3.1 1.3 3.15 0.65 3.25 0.3 3.85"/><path stroke="none" fill="url(#gradient5)" d="M2.2 2.95 L2.95 2.55 3.3 1.75 Q3.3 1.3 2.95 0.95 L2.2 0.75 Q1.75 0.75 1.45 1.1 1.15 1.5 1.15 1.95 1.15 2.4 1.45 2.7 L2.2 2.95"/><path stroke="none" fill="url(#gradient6)" d="M4.05 1.5 L4.9 2.05 5.5 2.0 Q5.7 1.8 5.5 1.4 L4.85 0.65 Q4.45 0.2 4.05 0.05 L3.4 0.1 Q3.25 0.35 3.4 0.7 L4.05 1.5"/><path stroke="none" fill="url(#gradient7)" d="M5.4 2.65 L5.3 3.45 5.4 4.2 5.75 4.5 6.05 4.15 6.2 3.35 6.05 2.6 5.75 2.3 Q5.55 2.3 5.4 2.65"/></g><g id="c15"><g><use transform="matrix(1.0,0.0,0.0,1.0,0.0,0.0)" xlink:href="#c14"/></g></g><radialGradient gradientUnits="userSpaceOnUse" r="819.2" cx="0" cy="0" spreadMethod="pad" gradientTransform="matrix(-0.00588989257812,0.000198364257812,0.0,0.00588989257812,0.0,0.0)" id="gradient8"><stop offset="0.490196078431" stop-color="#fee378"/><stop offset="1.0" stop-color="#ff4012" stop-opacity="0.0"/></radialGradient><g id="c16"><path stroke="none" fill="url(#gradient8)" d="M3.4 -3.5 Q4.8 -2.15 4.8 -0.15 4.8 1.85 3.4 3.25 2.0 4.75 0.0 4.8 -2.0 4.85 -3.35 3.45 -4.8 2.15 -4.8 0.15 -4.8 -1.85 -3.35 -3.3 -2.0 -4.75 0.0 -4.8 2.0 -4.85 3.4 -3.5"/></g><g id="c17"><g><use transform="matrix(1.0,0.0,0.0,1.0,0.0,0.0)" xlink:href="#c16"/></g></g><radialGradient gradientUnits="userSpaceOnUse" r="819.2" cx="0" cy="0" spreadMethod="pad" gradientTransform="matrix(0.00975036621094,0.0,0.0,0.00975036621094,0.0,-0.05)" id="gradient9"><stop offset="0.0" stop-color="#ffffff"/><stop offset="0.196078431373" stop-color="#ffffff"/><stop offset="0.211764705882" stop-color="#ffd70a" stop-opacity="0.462745098039"/><stop offset="1.0" stop-color="#ffeb2b" stop-opacity="0.0"/></radialGradient><g id="c18"><path stroke="none" fill="url(#gradient9)" d="M0.0 -7.8 Q3.25 -7.8 5.5 -5.55 7.8 -3.25 7.8 -0.05 7.8 3.15 5.5 5.45 3.25 7.75 0.0 7.75 -3.2 7.75 -5.45 5.45 -7.75 3.15 -7.75 -0.05 -7.75 -3.25 -5.45 -5.55 -3.2 -7.8 0.0 -7.8"/></g><g id="c19"><g><use transform="matrix(1.0,0.0,0.0,1.0,0.0,0.0)" xlink:href="#c18"/></g></g><g id="c20"><path fill="#4d3a2a" stroke="none" d="M12.65 5.7 L12.65 6.15 12.6 5.9 12.65 5.7"/><path fill="#624a68" stroke="none" d="M12.65 6.15 L12.65 5.7 12.85 4.2 13.9 3.9 13.85 7.3 13.95 8.2 14.0 9.35 14.0 9.6 14.15 10.15 14.3 11.0 Q15.2 13.35 16.2 15.15 L15.75 15.7 14.55 13.4 14.15 12.3 Q13.1 9.45 12.6 6.3 L12.65 6.15"/><path fill="#2f2332" stroke="none" d="M16.2 15.15 Q15.2 13.35 14.3 11.0 L14.15 10.15 14.0 9.6 14.0 9.35 13.95 8.2 13.85 7.3 13.9 3.9 16.65 3.2 Q15.6 4.3 15.0 6.0 L14.95 6.0 14.9 6.15 14.7 6.9 14.6 7.15 15.65 11.4 Q16.15 12.9 16.8 14.4 L16.2 15.15"/><path fill="#2b2b1b" stroke="none" d="M12.85 4.2 L12.65 5.7 12.75 4.2 12.85 4.2"/><path fill="#17170f" stroke="none" d="M15.65 11.4 L17.4 13.7 16.8 14.4 Q16.15 12.9 15.65 11.4"/><path fill="none" stroke="#000000" stroke-width="0.5" stroke-opacity="0.333333333333" d="M12.65 5.7 L12.65 6.15 12.6 6.3 Q13.1 9.45 14.15 12.3 L14.55 13.4 15.75 15.7 M12.85 4.2 L12.65 5.7 12.75 4.2 M12.65 6.15 L12.6 5.9 12.65 5.7 M16.65 3.2 Q15.6 4.3 15.0 6.0 L14.95 6.0 14.9 6.15 14.7 6.9 14.6 7.15 15.65 11.4 Q16.15 12.9 16.8 14.4"/><path fill="none" stroke="#000000" stroke-width="0.5" stroke-opacity="0.2" d="M14.15 10.15 L14.0 9.6 M13.85 7.3 L13.9 3.9"/><path fill="#2f2332" stroke="none" d="M14.2 17.8 L14.55 18.4 12.0 18.75 10.85 18.75 4.65 18.25 4.6 18.15 4.55 18.15 4.1 18.0 2.75 17.3 2.85 16.25 6.05 17.45 6.95 17.65 7.95 17.9 8.25 18.0 8.85 18.05 9.7 18.2 14.2 17.8"/><path fill="#624a68" stroke="none" d="M3.1 13.4 Q3.75 14.75 5.2 15.9 L5.2 15.95 5.3 16.0 5.9 16.45 6.15 16.65 10.45 17.0 13.65 16.95 14.2 17.8 9.7 18.2 8.85 18.05 8.25 18.0 7.95 17.9 6.95 17.65 6.05 17.45 2.85 16.25 3.1 13.4"/><path fill="#2b2b1b" stroke="none" d="M4.1 18.05 L2.7 17.45 2.75 17.3 4.1 18.0 4.1 18.05"/><path fill="#4d3a2a" stroke="none" d="M4.55 18.15 L4.3 18.15 4.1 18.05 4.1 18.0 4.55 18.15"/><path fill="#17170f" stroke="none" d="M10.45 17.0 L13.2 16.2 13.65 16.95 10.45 17.0"/><path fill="none" stroke="#000000" stroke-width="0.5" stroke-opacity="0.333333333333" d="M3.1 13.4 Q3.75 14.75 5.2 15.9 L5.2 15.95 5.3 16.0 5.9 16.45 6.15 16.65 10.45 17.0 13.65 16.95 M14.55 18.4 L12.0 18.75 10.85 18.75 4.65 18.25 4.6 18.15 4.55 18.15 4.3 18.15 4.1 18.05 2.7 17.45 M4.1 18.0 L4.55 18.15 M4.1 18.0 L2.75 17.3"/><path fill="none" stroke="#000000" stroke-width="0.5" stroke-opacity="0.2" d="M6.05 17.45 L2.85 16.25 M8.85 18.05 L8.25 18.0"/></g><g id="c21"><path fill="#4d3a2a" stroke="none" d="M30.55 10.95 L32.5 12.1 33.95 13.4 34.15 13.7 32.4 12.05 30.55 10.95 M28.35 10.0 L28.45 10.05 28.7 10.15 28.85 10.2 28.85 10.3 28.45 10.1 28.35 10.0 M35.25 23.9 L36.0 22.7 Q37.1 20.6 36.2 17.6 37.25 20.55 36.15 22.7 L35.25 23.9"/><path fill="#2f2332" stroke="none" d="M30.55 10.95 L32.4 12.05 34.15 13.7 36.15 17.5 36.15 17.55 36.2 17.6 Q37.1 20.6 36.0 22.7 L35.25 23.9 35.2 23.9 35.15 24.05 34.65 24.75 Q33.6 26.25 33.1 27.75 32.2 30.5 27.7 35.05 28.3 34.1 28.3 32.8 28.15 31.55 28.35 30.35 29.85 27.85 32.3 24.75 L33.9 22.7 34.0 22.5 34.1 22.45 34.05 22.35 34.05 22.3 33.95 22.15 33.95 22.05 33.95 22.0 34.2 21.15 Q34.75 19.75 34.75 18.4 L34.7 18.0 34.65 17.85 Q34.55 16.2 33.65 14.7 L32.95 13.55 Q31.3 11.4 28.85 10.3 L28.9 10.25 30.55 10.95"/><path fill="#413245" stroke="none" d="M23.95 10.8 L24.55 10.8 24.8 10.85 25.85 11.1 26.7 11.35 32.95 13.55 33.65 14.7 Q34.55 16.2 34.65 17.85 L34.6 17.85 34.3 17.45 33.9 17.15 33.45 16.95 33.4 16.95 33.35 16.9 33.15 16.95 31.6 18.45 30.25 19.75 30.2 19.75 29.5 20.45 29.0 19.85 29.1 19.0 29.1 18.35 29.05 17.15 Q28.75 15.05 27.2 13.25 L27.2 13.2 27.15 13.1 26.6 12.6 26.4 12.35 22.0 12.45 18.15 13.05 15.05 13.75 Q13.25 15.9 14.05 18.05 L14.7 19.25 14.75 19.3 Q15.95 21.2 17.6 20.0 L17.15 18.75 18.7 18.2 18.8 18.3 19.05 18.4 19.85 20.05 Q17.8 22.45 14.75 22.2 L13.9 22.1 13.35 21.95 13.35 21.9 Q12.65 17.9 13.45 13.95 17.15 11.7 23.15 10.75 L23.95 10.8"/><path fill="#98789e" stroke="none" d="M24.55 10.8 L23.95 10.8 23.15 10.75 Q17.15 11.7 13.45 13.95 L13.6 13.25 17.15 11.45 20.7 10.35 22.1 10.1 Q25.2 9.65 28.35 10.0 L28.45 10.1 28.85 10.3 Q31.3 11.4 32.95 13.55 L26.7 11.35 25.85 11.1 24.8 10.85 24.55 10.8 M30.7 23.05 Q33.1 22.25 33.8 22.2 L33.85 22.25 33.8 22.6 33.9 22.7 32.3 24.75 Q29.85 27.85 28.35 30.35 26.45 33.3 24.4 34.7 24.2 34.95 22.85 33.95 L21.05 32.15 Q26.55 29.1 29.55 24.75 L30.6 23.0 30.65 23.05 30.7 23.05"/><path fill="#2b2b1b" stroke="none" d="M28.85 10.2 L28.9 10.25 28.85 10.3 28.85 10.2"/><path fill="#17170f" stroke="none" d="M13.35 21.95 L13.9 22.1 14.75 22.2 Q17.8 22.45 19.85 20.05 L19.05 18.4 19.8 18.15 21.25 20.2 21.25 20.25 Q20.85 22.8 16.25 23.55 L15.9 23.6 13.3 22.05 13.35 21.95"/><path fill="#6a5272" stroke="none" d="M13.45 13.95 Q12.65 17.9 13.35 21.9 L13.15 21.9 13.0 21.85 12.6 21.75 Q10.8 19.0 10.35 15.75 11.85 14.3 13.6 13.25 L13.45 13.95 M29.0 19.85 L29.5 20.45 30.2 19.75 30.25 19.75 31.6 18.45 33.15 16.95 33.35 16.9 33.4 16.95 33.45 16.95 33.9 17.15 34.3 17.45 34.6 17.85 34.65 17.95 34.7 18.0 34.75 18.4 Q34.75 19.75 34.2 21.15 L33.95 22.0 33.95 21.95 33.9 22.05 33.8 22.2 Q33.1 22.25 30.7 23.05 L30.65 22.9 30.6 23.0 29.55 24.75 Q26.55 29.1 21.05 32.15 20.25 31.15 19.75 29.95 22.6 28.4 24.8 25.8 L25.7 24.75 Q27.5 22.5 28.9 19.9 L29.0 19.85 M30.65 22.9 Q30.5 22.0 30.0 21.2 L29.5 20.45 30.0 21.2 Q30.5 22.0 30.65 22.9"/><path fill="#ad7c58" stroke="none" d="M29.0 19.0 L28.95 19.25 28.95 19.75 28.95 19.25 29.0 19.0 29.1 19.0 29.05 19.35 28.95 19.75 28.9 19.9 28.9 19.15 Q28.7 18.85 28.95 19.0 L29.0 19.0 M33.8 22.2 L33.9 22.05 33.85 22.25 33.9 22.05 33.95 22.15 34.05 22.3 34.05 22.35 34.0 22.35 33.85 22.25 34.0 22.35 34.05 22.35 34.1 22.45 34.0 22.5 33.9 22.7 33.8 22.6 33.85 22.25 33.8 22.2 M30.65 22.9 L30.65 23.05 30.6 23.0 30.65 22.9 M34.0 22.5 L33.8 22.6 34.0 22.5"/><path fill="#7c5b3f" stroke="none" d="M19.05 18.4 L18.8 18.3 18.95 18.3 19.05 18.4 M29.1 19.0 L29.0 19.85 28.95 19.75 29.05 19.35 29.1 19.0 M34.6 17.85 L34.65 17.85 34.7 18.0 34.65 17.95 34.6 17.85"/><path fill="#9e7350" stroke="none" d="M13.35 21.9 L13.35 21.95 13.15 21.9 13.35 21.9 M28.9 19.9 L28.95 19.75 29.0 19.85 28.9 19.9 M30.65 22.9 L30.7 23.05 30.65 23.05 30.65 22.9 M33.9 22.05 L33.95 21.95 33.95 22.0 33.95 22.05 33.9 22.05 33.95 22.05 33.95 22.15 33.9 22.05 M27.35 35.4 L27.7 35.05 27.5 35.3 27.45 35.35 27.35 35.4"/><path fill="#251d27" stroke="none" d="M14.7 19.25 L14.05 18.05 Q13.25 15.9 15.05 13.75 L18.15 13.05 22.0 12.45 Q16.1 14.6 14.7 19.25"/><path fill="#3f3e33" stroke="none" d="M13.15 21.9 L13.35 21.9 13.15 21.9"/><path fill="#161218" stroke="none" d="M28.35 30.35 Q28.15 31.55 28.3 32.8 28.3 34.1 27.7 35.05 L27.35 35.4 26.15 35.5 25.1 35.05 24.4 34.7 Q26.45 33.3 28.35 30.35"/><path fill="none" stroke="#000000" stroke-width="0.5" stroke-opacity="0.333333333333" d="M33.95 13.4 L32.5 12.1 30.55 10.95 32.4 12.05 34.15 13.7 M13.45 13.95 Q12.65 17.9 13.35 21.9 L13.35 21.95 13.9 22.1 14.75 22.2 Q17.8 22.45 19.85 20.05 L19.05 18.4 18.95 18.3 18.8 18.3 18.7 18.2 17.15 18.75 17.6 20.0 Q15.95 21.2 14.75 19.3 L14.7 19.25 14.05 18.05 Q13.25 15.9 15.05 13.75 L18.15 13.05 22.0 12.45 26.4 12.35 26.6 12.6 27.15 13.1 27.2 13.2 27.2 13.25 Q28.75 15.05 29.05 17.15 M34.65 17.85 Q34.55 16.2 33.65 14.7 L32.95 13.55 M13.6 13.25 L17.15 11.45 20.7 10.35 22.1 10.1 Q25.2 9.65 28.35 10.0 L28.45 10.05 28.7 10.15 28.85 10.2 28.9 10.25 30.55 10.95 M28.85 10.3 Q31.3 11.4 32.95 13.55 M28.85 10.3 L28.45 10.1 28.35 10.0 M28.95 19.75 L29.05 19.35 29.1 19.0 M33.9 22.05 L33.95 21.95 33.95 22.0 34.2 21.15 Q34.75 19.75 34.75 18.4 L34.7 18.0 34.65 17.85 M36.2 17.6 L36.15 17.5 M33.8 22.2 L33.85 22.25 33.9 22.05 33.95 22.05 33.95 22.0 M33.85 22.25 L34.0 22.35 34.05 22.35 34.05 22.3 33.95 22.15 33.95 22.05 M33.8 22.6 L33.85 22.25 M33.8 22.6 L34.0 22.5 M35.15 24.05 L35.2 23.9 35.25 23.9 36.0 22.7 Q37.1 20.6 36.2 17.6 37.25 20.55 36.15 22.7 L35.25 23.9 M13.0 21.85 L12.6 21.75 Q10.8 19.0 10.35 15.75 11.85 14.3 13.6 13.25 L13.45 13.95 M13.15 21.9 L13.35 21.95"/><path fill="none" stroke="#000000" stroke-width="0.5" stroke-opacity="0.2" d="M21.65 9.65 L21.95 9.6 M23.1 9.05 L24.15 8.15 25.1 7.05 M24.55 10.8 L23.95 10.8 M19.05 18.4 L18.8 18.3 M29.05 17.15 L29.1 18.35 29.1 19.0 29.0 19.85 29.5 20.45 30.0 21.2 Q30.5 22.0 30.65 22.9 L30.65 23.05 M32.95 13.55 L26.7 11.35 M29.0 19.0 L29.0 18.95 29.0 18.45 29.1 18.35 M15.9 23.6 L16.25 23.55 Q20.85 22.8 21.25 20.25 L21.25 20.2 19.8 18.15 19.05 18.4 M28.95 19.75 L28.95 19.25 29.0 19.0 M28.35 30.35 Q28.15 31.55 28.3 32.8 28.3 34.1 27.7 35.05 L27.5 35.3 27.45 35.35 M13.15 21.9 L13.0 21.85 M13.3 22.05 L13.15 21.9"/><path fill="none" stroke="#594400" stroke-width="0.5" stroke-opacity="0.301960784314" d="M29.0 19.0 L28.95 19.0 M29.1 19.0 L29.0 19.0 M34.0 22.5 L34.1 22.45 M34.0 22.5 L33.9 22.7 32.3 24.75 Q29.85 27.85 28.35 30.35 26.45 33.3 24.4 34.7 L25.1 35.05 M27.7 35.05 Q32.2 30.5 33.1 27.75 33.6 26.25 34.65 24.75 L35.15 24.05 M27.35 35.4 L27.7 35.05"/><path fill="#2f2332" stroke="none" d="M19.8 16.2 Q20.7 17.5 21.25 19.2 L22.2 22.4 22.45 23.65 Q22.85 26.6 22.7 29.85 L22.6 29.95 22.5 30.4 22.05 31.85 21.0 31.9 21.7 28.55 21.8 27.65 21.95 26.55 22.0 26.3 21.95 25.7 22.0 24.9 Q21.1 19.25 19.3 16.2 L19.8 16.2 M20.7 24.2 Q18.95 19.05 15.5 18.9 L16.4 17.9 Q17.9 16.55 19.5 17.7 L20.15 20.65 20.7 24.2"/><path fill="#624a68" stroke="none" d="M21.0 31.9 L18.15 32.05 Q19.3 31.2 20.3 29.6 L20.35 29.6 20.4 29.55 20.75 28.8 20.95 28.55 20.7 24.2 20.15 20.65 19.5 17.7 Q17.9 16.55 16.4 17.9 L15.5 18.9 14.75 19.35 13.4 20.5 13.35 19.8 13.4 18.9 13.55 18.35 13.65 18.3 13.55 18.15 13.6 18.0 13.6 17.55 Q15.55 15.0 17.9 13.65 19.05 14.75 19.8 16.2 L19.3 16.2 Q21.1 19.25 22.0 24.9 L21.95 25.7 22.0 26.3 21.95 26.55 21.8 27.65 21.7 28.55 21.0 31.9 M19.3 16.2 Q16.45 16.5 13.65 18.3 16.45 16.5 19.3 16.2"/><path fill="#3f3e33" stroke="none" d="M13.55 18.35 L13.55 18.15 13.65 18.3 13.55 18.35"/><path fill="#4d3a2a" stroke="none" d="M22.7 29.85 L22.65 29.95 22.6 30.2 22.55 30.4 22.5 30.4 22.6 29.95 22.7 29.85"/><path fill="#2b2b1b" stroke="none" d="M22.55 30.4 L22.2 31.85 22.05 31.85 22.5 30.4 22.55 30.4"/><path fill="none" stroke="#000000" stroke-width="0.5" stroke-opacity="0.333333333333" d="M19.8 16.2 Q20.7 17.5 21.25 19.2 L22.2 22.4 22.45 23.65 Q22.85 26.6 22.7 29.85 L22.65 29.95 22.6 30.2 22.55 30.4 22.2 31.85 M18.15 32.05 Q19.3 31.2 20.3 29.6 L20.35 29.6 20.4 29.55 20.75 28.8 20.95 28.55 20.7 24.2 20.15 20.65 19.5 17.7 Q17.9 16.55 16.4 17.9 L15.5 18.9 14.75 19.35 13.4 20.5 13.35 19.8 13.4 18.9 13.55 18.35 13.55 18.15 M19.8 16.2 L19.3 16.2 M13.55 18.35 L13.65 18.3 Q16.45 16.5 19.3 16.2 M22.5 30.4 L22.05 31.85 M22.5 30.4 L22.6 29.95 22.7 29.85"/><path fill="none" stroke="#000000" stroke-width="0.5" stroke-opacity="0.2" d="M21.95 25.7 L22.0 26.3 M21.7 28.55 L21.0 31.9"/><path fill="#17170f" stroke="none" d="M11.75 23.4 L12.5 20.6 13.4 20.6 11.75 23.4"/><path fill="#6a5272" stroke="none" d="M11.75 23.4 L13.4 20.6 14.4 20.6 12.35 24.7 11.8 25.35 11.45 25.8 11.25 26.0 10.45 26.75 9.8 27.4 7.1 29.5 4.85 27.85 8.05 27.3 8.1 27.35 8.2 27.3 8.9 27.0 9.2 26.9 11.75 23.4"/><path fill="#2f2332" stroke="none" d="M14.4 20.6 L15.1 20.6 14.05 22.95 13.45 24.0 Q11.9 26.6 9.8 29.0 L9.65 29.05 9.3 29.35 8.0 30.15 7.1 29.5 9.8 27.4 10.45 26.75 11.25 26.0 11.45 25.8 11.8 25.35 12.35 24.7 14.4 20.6"/><path fill="#4d3a2a" stroke="none" d="M9.65 29.05 L9.5 29.25 9.35 29.35 9.3 29.35 9.65 29.05"/><path fill="#2b2b1b" stroke="none" d="M9.35 29.35 L8.1 30.25 8.0 30.15 9.3 29.35 9.35 29.35"/><path fill="none" stroke="#000000" stroke-width="0.5" stroke-opacity="0.333333333333" d="M11.75 23.4 L13.4 20.6 M15.1 20.6 L14.05 22.95 13.45 24.0 Q11.9 26.6 9.8 29.0 L9.65 29.05 9.5 29.25 9.35 29.35 8.1 30.25 M4.85 27.85 L8.05 27.3 8.1 27.35 8.2 27.3 8.9 27.0 9.2 26.9 11.75 23.4 M9.3 29.35 L8.0 30.15 M9.3 29.35 L9.65 29.05"/><path fill="none" stroke="#000000" stroke-width="0.5" stroke-opacity="0.2" d="M11.8 25.35 L11.45 25.8 M9.8 27.4 L7.1 29.5"/></g><g id="c22"><g><use transform="matrix(1.0,0.0,0.0,1.0,0.0,0.0)" xlink:href="#c11"/></g><g><use transform="matrix(3.18571472168,-2.0583190918,1.89323425293,2.44261169434,-1.4,14.8)" filter="url(#filter14)" xlink:href="#c13"/></g><g><use transform="matrix(3.18571472168,-2.0583190918,1.89323425293,2.44261169434,-0.1,14.9)" filter="url(#filter15)" xlink:href="#c15"/></g><g><use transform="matrix(-3.12475585938,2.13327026367,1.89323425293,2.44261169434,15.6,19.2)" filter="url(#filter16)" xlink:href="#c17"/></g><g><use transform="matrix(1.57461547852,0.0,0.0,1.57461547852,12.1,12.6)" xlink:href="#c19"/></g><g><use transform="matrix(1.0,0.0,0.0,1.0,0.0,0.0)" xlink:href="#c20"/></g><g><use transform="matrix(1.57461547852,0.0,0.0,1.57461547852,17.55,18.5)" xlink:href="#c19"/></g><g><use transform="matrix(1.0,0.0,0.0,1.0,0.0,0.0)" xlink:href="#c21"/></g></g><filter id="filter14"><feColorMatrix in="SourceGraphic" type="matrix" values="0.41015625 0.0 0.0 0.0 0.1171875 0.0 0.41015625 0.0 0.0 0.5859375 0.0 0.0 0.41015625 0.0 0.5859375 0.0 0.0 0.0 1.0 0.0" result="cxform"/><feComposite operator="in" in2="SourceGraphic" result="color-xform"/></filter><filter id="filter15"><feColorMatrix in="SourceGraphic" type="matrix" values="0.41015625 0.0 0.0 0.0 0.1171875 0.0 0.41015625 0.0 0.0 0.5859375 0.0 0.0 0.41015625 0.0 0.5859375 0.0 0.0 0.0 1.0 0.0" result="cxform"/><feComposite operator="in" in2="SourceGraphic" result="color-xform"/></filter><filter id="filter16"><feColorMatrix in="SourceGraphic" type="matrix" values="0.41015625 0.0 0.0 0.0 0.1171875 0.0 0.41015625 0.0 0.0 0.5859375 0.0 0.0 0.41015625 0.0 0.5859375 0.0 0.0 0.0 0.30078125 0.0" result="cxform"/><feComposite operator="in" in2="SourceGraphic" result="color-xform"/></filter><g id="c23"><path fill="#413a2e" stroke="none" d="M31.3 71.95 L31.2 72.05 31.05 72.25 31.0 72.3 30.95 72.35 30.7 72.75 31.1 73.1 31.4 72.6 31.45 72.6 31.55 72.4 31.75 72.1 31.8 72.1 31.5 71.95 31.3 71.95"/><path fill="#413a2e" stroke="none" d="M24.15 77.05 L24.3 77.0 24.55 77.0 24.6 77.0 24.65 77.0 25.1 76.95 25.2 77.45 24.65 77.5 24.4 77.55 24.0 77.6 24.0 77.3 24.15 77.05"/></g><g id="c24"><g><use transform="matrix(1.0,0.0,0.0,1.0,6.3,53.35)" xlink:href="#c9"/></g><g><use transform="matrix(1.0,0.0,0.0,1.0,0.0,0.0)" xlink:href="#c10"/></g><g><use transform="matrix(-0.178512573242,0.135955810547,0.135955810547,0.178512573242,30.3,70.95)" xlink:href="#c22"/></g><g><use transform="matrix(1.0,0.0,0.0,1.0,0.0,0.0)" xlink:href="#c23"/></g><g><use transform="matrix(0.141098022461,-0.0378112792969,0.111373901367,0.225646972656,27.2,74.05)" filter="url(#filter25)" xlink:href="#c6"/></g></g><filter id="filter25"><feColorMatrix in="SourceGraphic" type="matrix" values="1.0 0.0 0.0 0.0 0.0 0.0 1.0 0.0 0.0 0.0 0.0 0.0 1.0 0.0 0.0 0.0 0.0 0.0 0.23046875 0.0" result="cxform"/><feComposite operator="in" in2="SourceGraphic" result="color-xform"/></filter></defs><g><g><use transform="matrix(1.0,0.0,0.0,1.0,0.0,0.0)" xlink:href="#c1"/></g><g><use transform="matrix(1.15496826172,0.0,0.0,1.15496826172,-1.55,-56.9)" xlink:href="#c24"/></g></g></svg>