<?xml version='1.0' encoding='UTF-8'?>
<svg xmlns:xlink="http://www.w3.org/1999/xlink" xmlns="http://www.w3.org/2000/svg" version="1.1" width="60px" height="60px" viewBox="0.0 0.0 60.0 60.0"><defs><g id="c1"><path fill="#000000" fill-opacity="0.00392156862745" d="M0.0 0.0 L60.0 0.0 60.0 60.0 0.0 60.0 0.0 0.0"/></g><g id="c2"><path fill="none" stroke="#000000" stroke-width="1.0" stroke-opacity="0.301960784314" d="M0.7 12.25 Q-0.45 9.75 0.75 8.25 1.2 7.6 2.15 7.15 2.8 6.7 3.8 6.35 L17.5 1.95 30.2 7.0 41.35 31.7 Q42.95 35.15 40.2 36.7 39.5 37.3 38.3 37.65 L19.8 43.65 Q17.15 44.45 15.5 43.3 14.35 42.55 13.65 40.9 L0.7 12.25"/><path fill="#9d147b" stroke="none" d="M35.55 22.3 L31.5 13.2 29.75 9.2 16.95 4.25 5.5 7.85 Q1.65 9.1 3.35 12.8 L8.25 23.65 15.0 38.6 15.2 39.0 Q16.8 42.25 20.45 41.1 L37.2 35.7 Q41.1 34.5 39.35 30.75 L35.55 22.3 M2.15 7.15 Q2.8 6.7 3.8 6.35 L17.5 1.95 30.2 7.0 41.35 31.7 Q42.95 35.15 40.2 36.7 L38.9 37.25 23.2 42.3 20.4 43.2 19.1 43.5 17.3 43.4 Q15.3 42.9 14.2 40.5 L5.45 20.95 1.35 11.8 Q0.4 9.65 1.1 8.3 1.45 7.65 2.15 7.15"/><path fill="#c47fad" stroke="none" d="M31.5 13.2 L35.55 22.3 39.35 30.75 Q41.1 34.5 37.2 35.7 L20.45 41.1 Q16.8 42.25 15.2 39.0 L15.0 38.6 8.25 23.65 3.35 12.8 Q1.65 9.1 5.5 7.85 L16.95 4.25 29.75 9.2 31.5 13.2 M18.5 7.45 L9.1 10.55 9.55 11.6 Q9.8 12.8 9.15 13.6 8.4 14.45 7.1 14.4 L6.8 14.4 6.95 14.6 16.3 35.2 Q16.8 36.4 17.65 37.0 18.8 37.8 20.65 37.2 L34.0 32.9 33.7 32.1 Q33.45 30.9 34.1 30.1 34.75 29.3 35.95 29.35 L35.8 29.0 27.75 10.95 18.5 7.45"/><path fill="#630a4c" stroke="none" d="M0.75 8.25 Q1.2 7.6 2.15 7.15 1.45 7.65 1.1 8.3 L0.75 8.25 M23.3 42.5 L20.1 43.55 19.1 43.5 20.4 43.2 23.2 42.3 23.3 42.5 M15.5 43.3 Q14.35 42.55 13.65 40.9 L4.6 20.9 5.45 20.95 14.2 40.5 Q15.3 42.9 17.3 43.4 L15.5 43.3"/><path fill="#300525" stroke="none" d="M4.6 20.9 L0.7 12.25 Q-0.45 9.75 0.75 8.25 L1.1 8.3 Q0.4 9.65 1.35 11.8 L5.45 20.95 4.6 20.9 M40.2 36.7 Q39.5 37.3 38.3 37.65 L23.3 42.5 23.2 42.3 38.9 37.25 40.2 36.7 M20.1 43.55 L19.8 43.65 Q17.15 44.45 15.5 43.3 L17.3 43.4 19.1 43.5 20.1 43.55"/><path fill="#fcf2cf" stroke="none" d="M27.75 10.95 L35.8 29.0 35.95 29.35 Q34.75 29.3 34.1 30.1 33.45 30.9 33.7 32.1 L34.0 32.9 20.65 37.2 Q18.8 37.8 17.65 37.0 16.8 36.4 16.3 35.2 L6.95 14.6 6.8 14.4 7.1 14.4 Q8.4 14.45 9.15 13.6 9.8 12.8 9.55 11.6 L9.1 10.55 18.5 7.45 27.75 10.95"/><path fill="none" stroke="#bf9900" stroke-width="1.0" stroke-opacity="0.749019607843" d="M31.5 13.2 L35.55 22.3 M15.0 38.6 L8.25 23.65"/><path fill="none" stroke="#ffcc00" stroke-width="1.0" stroke-opacity="0.749019607843" d="M35.55 22.3 L39.35 30.75 Q41.1 34.5 37.2 35.7 L20.45 41.1 Q16.8 42.25 15.2 39.0 L15.0 38.6 M8.25 23.65 L3.35 12.8 Q1.65 9.1 5.5 7.85 L16.95 4.25 29.75 9.2 31.5 13.2"/><path fill="none" stroke="#000000" stroke-width="0.5" stroke-opacity="0.301960784314" d="M4.6 20.9 L0.7 12.25 Q-0.45 9.75 0.75 8.25 1.2 7.6 2.15 7.15 2.8 6.7 3.8 6.35 L17.5 1.95 M30.2 7.0 L41.35 31.7 Q42.95 35.15 40.2 36.7 39.5 37.3 38.3 37.65 L23.3 42.5 20.1 43.55 19.8 43.65 Q17.15 44.45 15.5 43.3 14.35 42.55 13.65 40.9 L4.6 20.9 M5.45 20.95 L1.35 11.8 Q0.4 9.65 1.1 8.3 1.45 7.65 2.15 7.15 M19.1 43.5 L17.3 43.4 Q15.3 42.9 14.2 40.5 L5.45 20.95 M23.2 42.3 L20.4 43.2 19.1 43.5 M40.2 36.7 L38.9 37.25 23.2 42.3"/><path fill="none" stroke="#f0b92b" stroke-width="0.5" d="M27.75 10.95 L35.8 29.0 35.95 29.35 Q34.75 29.3 34.1 30.1 33.45 30.9 33.7 32.1 L34.0 32.9 20.65 37.2 Q18.8 37.8 17.65 37.0 16.8 36.4 16.3 35.2 L6.95 14.6 6.8 14.4 7.1 14.4 Q8.4 14.45 9.15 13.6 9.8 12.8 9.55 11.6 L9.1 10.55 18.5 7.45"/><path fill="none" stroke="#ffcc00" stroke-width="0.5" stroke-opacity="0.749019607843" d="M18.5 7.45 L27.75 10.95"/></g><g id="c3"><path fill="#7fdbfe" stroke="none" d="M10.75 4.9 Q10.75 4.6 10.9 4.35 11.25 3.45 11.95 2.75 13.3 1.5 14.35 2.1 15.4 2.7 14.95 4.45 14.7 5.4 14.1 6.15 L13.75 6.5 Q13.1 7.15 12.35 7.35 L11.4 7.2 Q10.95 6.9 10.75 6.4 10.5 5.75 10.75 4.9 M7.5 5.9 Q7.0 5.85 6.6 5.5 6.05 5.0 5.8 4.15 L5.7 3.6 Q5.55 2.65 5.8 1.7 6.25 0.0 7.5 0.0 L7.6 0.0 Q8.85 0.0 9.3 1.7 9.55 2.65 9.4 3.6 L9.3 4.15 8.5 5.5 7.6 5.9 7.5 5.9 M4.35 4.9 Q4.6 5.75 4.35 6.4 L3.7 7.2 2.75 7.35 Q2.0 7.15 1.35 6.5 L1.0 6.15 Q0.4 5.4 0.15 4.45 -0.3 2.7 0.75 2.1 1.8 1.5 3.15 2.75 3.85 3.45 4.2 4.35 L4.35 4.9 M5.5 13.7 Q4.45 13.9 3.65 12.95 2.75 12.0 3.2 10.25 3.7 8.5 5.25 7.6 6.4 6.9 7.55 7.0 8.75 6.9 9.9 7.6 11.45 8.5 11.95 10.25 12.35 12.0 11.5 12.95 10.7 13.9 9.65 13.7 8.55 13.5 7.55 12.6 6.55 13.5 5.5 13.7"/></g><g id="c4"><g><use transform="matrix(1.0,0.0,0.0,1.0,0.0,0.0)" xlink:href="#c3"/></g></g><radialGradient gradientUnits="userSpaceOnUse" r="819.2" cx="0" cy="0" spreadMethod="pad" gradientTransform="matrix(0.0914459228516,0.0,0.0,0.0914459228516,0.6,3.4)" id="gradient1"><stop offset="0.0" stop-color="#ffffff"/><stop offset="1.0" stop-color="#ffffff" stop-opacity="0.0"/></radialGradient><g id="c5"><path stroke="none" fill="url(#gradient1)" d="M36.65 -54.65 Q60.05 -42.0 69.75 -17.95 80.55 8.9 68.0 34.1 55.45 59.35 26.8 68.2 -1.8 77.05 -29.7 64.3 -57.6 51.6 -68.45 24.75 -79.3 -2.05 -66.75 -27.25 L-66.7 -27.3 Q-54.1 -52.5 -25.5 -61.4 3.1 -70.2 31.0 -57.5 L36.65 -54.65"/></g><g id="c6"><g><use transform="matrix(1.0,0.0,0.0,1.0,0.0,0.0)" xlink:href="#c5"/></g></g><radialGradient gradientUnits="userSpaceOnUse" r="819.2" cx="0" cy="0" spreadMethod="pad" gradientTransform="matrix(0.209197998047,0.0,0.0,0.177108764648,67.15,107.2)" id="gradient2"><stop offset="0.356862745098" stop-color="#ffffff"/><stop offset="0.670588235294" stop-opacity="0.0"/></radialGradient><g id="c7"><path fill="none" stroke-linejoin="round" stroke-linecap="round" stroke="url(#gradient2)" stroke-width="0.5" d="M136.55 165.8 L68.6 106.0 68.4 106.0 118.25 201.5 M68.3 105.8 L68.35 105.8 68.3 105.8 68.3 105.85 68.4 106.0 68.3 106.0 86.55 211.5 M68.3 105.8 L68.3 105.85 68.3 106.0 68.15 105.95 18.25 151.55 M68.3 105.85 L68.25 105.85 68.3 106.0 50.0 193.2 M68.25 105.85 L68.15 105.95 0.05 97.7 M68.3 105.85 L68.25 105.8 68.25 105.85 M68.25 105.8 L68.2 105.7 0.0 45.7 M68.3 105.8 L68.25 105.75 68.25 105.8 M68.25 105.75 L68.2 105.7 18.25 10.05 M68.6 106.0 L68.35 105.8 118.25 60.15 M86.6 18.35 L68.3 105.8 M136.6 114.25 L68.6 106.0 M68.25 105.75 L49.95 0.05"/></g><g id="c8"><g><use transform="matrix(1.0,0.0,0.0,1.0,0.0,0.0)" xlink:href="#c7"/></g></g><g id="c9"><g><use transform="matrix(1.0,0.0,0.0,1.0,0.0,0.0)" xlink:href="#c2"/></g><g><use transform="matrix(0.238861083984,-0.0867004394531,0.10026550293,0.233917236328,34.25,31.15)" xlink:href="#c4"/></g><g><use transform="matrix(0.238861083984,-0.0867004394531,0.10026550293,0.233917236328,4.25,10.3)" xlink:href="#c4"/></g><g><use transform="matrix(0.141098022461,-0.0378112792969,0.111373901367,0.225646972656,20.25,20.65)" filter="url(#filter7)" xlink:href="#c6"/></g><g><use transform="matrix(-0.155029296875,0.0513153076172,0.0841827392578,0.147033691406,22.6,3.15)" filter="url(#filter8)" xlink:href="#c8"/></g></g><filter id="filter7"><feColorMatrix in="SourceGraphic" type="matrix" values="0.0 0.0 0.0 0.0 0.796875 0.0 0.0 0.0 0.0 0.59765625 0.0 0.0 0.0 0.0 0.19921875 0.0 0.0 0.0 1.0 0.0" result="cxform"/><feComposite operator="in" in2="SourceGraphic" result="color-xform"/></filter><filter id="filter8"><feColorMatrix in="SourceGraphic" type="matrix" values="0.0 0.0 0.0 0.0 0.99609375 0.0 0.0 0.0 0.0 0.99609375 0.0 0.0 0.0 0.0 0.99609375 0.0 0.0 0.0 1.0 0.0" result="cxform"/><feComposite operator="in" in2="SourceGraphic" result="color-xform"/></filter><linearGradient gradientUnits="userSpaceOnUse" x1="-819.2" x2="819.2" spreadMethod="pad" gradientTransform="matrix(-0.00375366210938,0.00273132324219,-0.00515747070312,-0.00706481933594,25.05,72.2)" id="gradient3"><stop offset="0.0" stop-color="#b5b5b5"/><stop offset="1.0" stop-color="#696969"/></linearGradient><linearGradient gradientUnits="userSpaceOnUse" x1="-819.2" x2="819.2" spreadMethod="pad" gradientTransform="matrix(-0.00375366210938,0.00273132324219,-0.00515747070312,-0.00706481933594,25.05,72.2)" id="gradient4"><stop offset="0.0" stop-color="#9c9c9c"/><stop offset="1.0" stop-color="#4f4f4f"/></linearGradient><linearGradient gradientUnits="userSpaceOnUse" x1="-819.2" x2="819.2" spreadMethod="pad" gradientTransform="matrix(-0.00375366210938,0.00273132324219,-0.00515747070312,-0.00706481933594,25.05,72.2)" id="gradient5"><stop offset="0.0" stop-color="#bababa"/><stop offset="1.0" stop-color="#6e6e6e"/></linearGradient><linearGradient gradientUnits="userSpaceOnUse" x1="-819.2" x2="819.2" spreadMethod="pad" gradientTransform="matrix(-0.00375366210938,0.00273132324219,-0.00515747070312,-0.00706481933594,25.05,72.2)" id="gradient6"><stop offset="0.0" stop-color="#b0b0b0"/><stop offset="1.0" stop-color="#5e5e5e"/></linearGradient><linearGradient gradientUnits="userSpaceOnUse" x1="-819.2" x2="819.2" spreadMethod="pad" gradientTransform="matrix(-0.00221252441406,0.00143432617188,0.00105285644531,0.00155639648438,27.75,78.7)" id="gradient7"><stop offset="0.0" stop-opacity="0.501960784314"/><stop offset="1.0" stop-opacity="0.0"/></linearGradient><g id="c10"><path fill="#e1e1e1" stroke="none" d="M24.7 64.85 L24.65 64.65 23.65 65.0 Q23.7 63.95 22.85 63.3 L25.25 62.45 25.3 62.45 24.7 64.85"/><path fill="#d7d8d1" stroke="none" d="M24.7 64.85 L25.3 62.45 30.0 70.55 28.75 70.9 24.7 64.9 24.7 64.85 M31.7 75.2 L29.95 72.65 30.65 71.65 33.1 75.9 Q32.35 75.25 31.7 75.2"/><path fill="#ececec" stroke="none" d="M23.65 65.0 L24.65 64.65 24.7 64.85 24.7 64.9 28.75 70.9 29.95 72.65 31.7 75.2 31.45 75.35 24.35 65.05 23.55 65.4 23.65 65.0 M23.0 69.5 L21.45 65.95 23.25 65.25 23.25 65.55 22.75 65.75 22.55 65.9 22.0 66.15 23.1 69.7 23.0 69.5 M19.8 67.8 L19.55 68.0 18.25 69.3 25.25 79.65 25.1 79.85 21.9 75.2 21.75 74.95 21.6 74.8 17.8 69.25 17.85 69.25 18.75 68.4 19.1 68.0 19.15 68.0 19.15 67.95 20.1 67.05 20.15 67.0 20.45 67.25 19.8 67.8 M25.2 72.65 L29.05 76.9 29.2 76.8 30.0 78.05 31.0 79.2 31.15 79.35 31.2 79.5 31.25 79.85 31.2 80.0 31.15 80.05 31.15 80.15 31.1 80.2 31.05 80.3 31.0 80.25 31.0 80.3 30.85 80.45 30.8 80.55 30.7 80.65 30.5 80.75 30.4 80.75 30.3 80.85 30.2 80.85 30.1 80.9 30.0 80.9 29.95 80.95 29.9 80.9 29.8 80.85 29.75 80.85 29.55 80.8 29.5 80.8 29.45 80.75 29.4 80.6 29.4 80.5 29.55 80.6 30.1 80.5 30.35 80.3 30.35 80.35 30.4 80.3 30.5 80.25 30.5 80.2 30.65 80.0 30.85 79.65 30.55 79.15 27.85 76.05 25.7 73.65 25.2 72.65 M31.15 80.15 L31.1 80.15 31.0 80.25 31.1 80.15 31.15 80.15"/><path fill="#c8cabf" stroke="none" d="M20.6 65.85 L20.6 64.55 Q21.35 64.1 22.1 63.75 L22.45 63.55 Q23.15 64.3 23.25 65.25 L21.45 65.95 23.0 69.5 20.6 65.85 M23.15 69.75 L23.15 69.8 23.1 69.75 23.15 69.75"/><path fill="#969396" stroke="none" d="M23.65 67.45 L23.4 67.2 23.15 67.0 23.15 67.15 23.1 67.35 22.8 67.45 22.6 67.45 22.3 66.95 Q22.1 66.5 22.2 66.45 L22.1 66.25 22.35 66.1 22.55 65.9 22.75 65.75 23.55 65.45 24.35 65.15 24.35 65.7 Q24.25 66.2 24.45 66.35 L24.6 67.0 24.3 66.95 24.1 66.8 24.0 66.55 23.5 66.2 23.9 66.8 24.2 67.55 23.65 67.45"/><path stroke="none" fill="url(#gradient3)" d="M22.55 65.9 L22.35 66.1 22.1 66.25 22.2 66.45 Q22.1 66.5 22.3 66.95 L22.6 67.45 22.8 67.45 23.1 67.35 23.15 67.15 23.15 67.0 23.4 67.2 23.65 67.45 27.2 72.35 27.15 72.45 Q26.95 72.7 27.4 73.65 L28.15 74.6 28.6 74.9 29.05 74.95 29.95 76.15 29.65 76.35 29.2 76.8 29.05 76.9 25.2 72.65 25.3 73.3 Q25.05 72.7 25.2 72.5 L25.6 72.35 Q25.9 71.95 25.6 71.55 L25.1 71.2 24.4 70.85 23.5 70.35 22.8 70.2 22.65 70.1 21.7 70.05 Q21.35 70.55 21.95 71.4 L22.9 72.4 23.4 72.7 23.5 73.1 23.5 73.35 23.6 74.25 24.45 75.1 24.75 75.25 25.35 74.9 25.6 74.4 26.2 78.45 20.7 69.85 20.4 69.3 20.7 69.55 21.1 69.5 Q21.25 69.3 20.65 68.65 L20.0 67.95 19.65 68.0 19.65 68.15 19.55 68.0 19.8 67.8 23.1 69.75 23.15 69.8 23.15 69.75 23.1 69.7 22.0 66.15 22.55 65.9 M20.45 67.25 L20.45 67.2 20.6 67.35 20.45 67.25"/><path fill="#9a9c94" stroke="none" d="M20.6 65.85 L23.0 69.5 23.1 69.7 20.6 67.35 20.45 67.2 20.45 67.25 20.15 67.0 20.1 67.05 18.75 65.95 19.55 65.3 20.6 65.85"/><path stroke="none" fill="url(#gradient4)" d="M23.1 69.7 L23.15 69.75 23.1 69.75 19.8 67.8 20.45 67.25 20.6 67.35 23.1 69.7"/><path stroke="none" fill="url(#gradient5)" d="M23.55 65.4 L24.35 65.05 31.45 75.35 29.95 76.15 29.05 74.95 29.25 74.8 Q29.65 74.2 28.95 73.35 L28.2 72.45 27.65 72.4 27.45 72.3 27.2 72.35 23.65 67.45 24.2 67.55 23.9 66.8 23.5 66.2 24.0 66.55 24.1 66.8 24.3 66.95 24.6 67.0 24.45 66.35 Q24.25 66.2 24.35 65.7 L24.35 65.15 23.55 65.45 22.75 65.75 23.25 65.55 23.55 65.4"/><path fill="#ffffff" stroke="none" d="M22.85 63.3 Q23.7 63.95 23.65 65.0 L23.55 65.4 23.25 65.55 23.25 65.25 Q23.15 64.3 22.45 63.55 L22.85 63.3"/><path fill="#7a777a" stroke="none" d="M25.6 74.4 L25.35 74.9 24.75 75.25 24.45 75.1 23.6 74.25 23.5 73.35 23.5 73.1 23.4 72.7 22.9 72.4 21.95 71.4 Q21.35 70.55 21.7 70.05 L22.65 70.1 22.8 70.2 23.5 70.35 24.4 70.85 25.1 71.2 25.6 71.55 Q25.9 71.95 25.6 72.35 L25.2 72.5 Q25.05 72.7 25.3 73.3 L25.45 73.45 25.6 74.4 M24.3 74.45 L24.65 74.7 Q25.0 74.85 25.3 74.45 25.8 73.8 25.1 73.25 L24.7 73.05 Q24.4 72.95 24.1 73.3 23.75 73.8 23.95 74.1 L24.3 74.45"/><path fill="#716f71" stroke="none" d="M19.65 68.15 L19.65 68.0 20.0 67.95 20.65 68.65 Q21.25 69.3 21.1 69.5 L20.7 69.55 20.4 69.3 20.7 69.85 20.65 69.95 20.35 70.0 19.7 69.4 19.35 68.75 Q19.45 68.6 19.65 68.75 L19.65 68.35 19.65 68.15 M30.1 80.5 L29.55 80.6 29.4 80.5 29.3 80.4 29.05 79.9 27.5 77.7 26.85 75.85 Q27.85 77.6 29.25 79.25 L29.4 79.4 30.1 80.5"/><path stroke="none" fill="url(#gradient6)" d="M19.55 68.0 L19.65 68.15 19.65 68.35 19.65 68.75 Q19.45 68.6 19.35 68.75 L19.7 69.4 20.35 70.0 20.65 69.95 20.7 69.85 26.2 78.45 26.25 78.5 25.4 79.45 25.25 79.65 18.25 69.3 19.55 68.0"/><path fill="#706e70" stroke="none" d="M26.2 78.45 L25.6 74.4 25.45 73.45 25.3 73.3 25.2 72.65 25.7 73.65 26.85 75.85 27.5 77.7 27.0 78.0 26.25 78.5 26.2 78.45"/><path fill="#878587" stroke="none" d="M24.3 74.45 L23.95 74.1 Q23.75 73.8 24.1 73.3 24.4 72.95 24.7 73.05 L25.1 73.25 Q25.8 73.8 25.3 74.45 25.0 74.85 24.65 74.7 L24.3 74.45"/><path fill="#e8e7df" stroke="none" d="M29.95 72.65 L28.75 70.9 30.0 70.55 30.65 71.65 29.95 72.65"/><path fill="#a19da1" stroke="none" d="M29.05 74.95 L28.6 74.9 28.15 74.6 27.4 73.65 Q26.95 72.7 27.15 72.45 L27.2 72.35 27.45 72.3 27.65 72.4 28.2 72.45 28.95 73.35 Q29.65 74.2 29.25 74.8 L29.05 74.95"/><path fill="#b6b8ae" stroke="none" d="M19.15 67.95 L19.3 67.75 19.55 67.3 19.5 67.1 19.1 67.15 18.95 67.4 18.65 67.35 18.5 67.15 18.05 67.15 Q17.65 67.3 17.5 67.5 L17.45 67.85 17.65 68.0 17.9 68.25 18.0 68.5 18.75 68.4 17.85 69.25 17.8 69.25 15.75 68.9 Q16.7 67.75 17.75 66.75 L18.75 65.95 20.1 67.05 19.15 67.95"/><path fill="#ada9ad" stroke="none" d="M18.75 68.4 L18.0 68.5 17.9 68.25 17.65 68.0 17.45 67.85 17.5 67.5 Q17.65 67.3 18.05 67.15 L18.5 67.15 18.65 67.35 18.95 67.4 19.1 67.15 19.5 67.1 19.55 67.3 19.3 67.75 19.15 67.95 19.15 68.0 19.1 68.0 18.75 68.4"/><path fill="#888a82" stroke="none" d="M15.75 68.9 L17.8 69.25 21.6 74.8 21.15 74.35 20.15 73.05 19.3 71.65 18.3 70.25 18.05 70.2 17.85 69.9 Q17.7 69.75 17.55 69.9 L17.5 70.1 17.65 70.3 17.85 70.75 18.3 71.45 19.35 72.7 20.3 74.15 21.45 75.3 21.85 75.4 21.9 75.2 25.1 79.85 25.05 79.9 25.05 81.0 15.75 68.9"/><path fill="#767870" stroke="none" d="M21.9 75.2 L21.85 75.4 21.45 75.3 20.3 74.15 19.35 72.7 18.3 71.45 17.85 70.75 17.65 70.3 17.5 70.1 17.55 69.9 Q17.7 69.75 17.85 69.9 L18.05 70.2 18.3 70.25 19.3 71.65 20.15 73.05 21.15 74.35 21.6 74.8 21.75 74.95 21.9 75.2"/><path fill="#b6b4b6" stroke="none" d="M27.85 76.05 L30.55 79.15 30.85 79.65 30.65 80.0 30.5 80.2 30.45 80.2 30.65 80.0 29.8 78.9 28.8 77.5 27.85 76.05"/><path fill="#9c9a9c" stroke="none" d="M25.7 73.65 L27.85 76.05 28.8 77.5 29.8 78.9 30.65 80.0 30.45 80.2 30.5 80.2 30.5 80.25 30.4 80.3 30.35 80.35 30.35 80.3 29.55 79.25 29.4 79.4 29.25 79.25 Q27.85 77.6 26.85 75.85 L25.7 73.65"/><path fill="#b39669" stroke="none" d="M31.0 80.3 L31.0 80.25 31.05 80.3 31.1 80.2 31.15 80.15 31.15 80.05 31.2 80.0 31.25 79.85 31.2 79.5 31.6 80.25 31.3 80.7 31.1 81.0 30.9 80.5 30.95 80.5 30.95 80.45 30.9 80.45 31.0 80.3"/><path fill="#c4a773" stroke="none" d="M31.1 81.0 L31.3 80.7 35.4 86.4 35.2 86.65 35.1 86.65 31.1 81.0"/><path fill="#a6814a" stroke="none" d="M30.4 80.75 L30.5 80.75 30.7 80.65 30.8 80.55 30.85 80.45 31.0 80.3 30.9 80.45 30.95 80.45 30.95 80.5 30.9 80.5 31.1 81.0 30.75 81.25 30.5 80.85 30.55 81.35 30.5 81.35 30.5 81.2 30.45 80.9 30.4 80.8 30.4 80.75"/><path fill="#87693c" stroke="none" d="M29.9 80.9 L29.95 80.95 30.0 80.9 30.1 80.9 30.2 80.85 30.3 80.85 30.4 80.75 30.4 80.8 30.45 80.9 30.5 81.2 30.5 81.35 30.45 81.3 30.15 81.35 30.05 81.25 30.0 81.25 29.9 81.05 29.9 80.9"/><path fill="#806338" stroke="none" d="M29.5 80.8 L29.55 80.8 29.75 80.85 29.8 80.85 29.9 80.9 29.9 81.05 30.0 81.25 30.05 81.25 30.15 81.35 30.45 81.3 30.5 81.35 30.55 81.35 30.5 81.4 30.45 81.5 30.55 81.6 30.6 81.65 31.4 82.75 32.0 83.6 31.7 83.3 32.0 83.65 32.4 84.2 32.55 84.4 32.8 84.75 33.35 85.4 34.1 86.25 34.55 87.0 34.2 86.8 34.15 86.9 34.05 86.85 29.5 80.8"/><path fill="#b48d50" stroke="none" d="M31.1 81.0 L35.1 86.65 35.2 86.65 34.85 86.9 30.75 81.25 31.1 81.0 M30.55 81.35 L30.55 81.55 30.5 81.4 30.55 81.35"/><path fill="#9e7b47" stroke="none" d="M30.55 81.35 L30.5 80.85 30.75 81.25 34.85 86.9 34.8 86.95 34.6 87.0 34.55 87.0 34.1 86.25 33.35 85.4 32.8 84.75 32.55 84.4 32.4 84.2 32.0 83.65 31.7 83.3 32.0 83.6 31.4 82.75 30.6 81.65 30.55 81.6 30.45 81.5 30.5 81.4 30.55 81.55 30.55 81.35 M34.15 86.9 L34.2 86.8 34.55 87.0 34.15 86.9"/><path fill="#d1b07a" stroke="none" d="M35.4 86.4 L31.3 80.7 31.6 80.25 35.4 85.95 35.4 86.4"/><path fill="#999999" stroke="none" d="M30.35 80.3 L30.1 80.5 29.4 79.4 29.55 79.25 30.35 80.3"/><path fill="none" stroke="#000000" stroke-width="0.5" stroke-opacity="0.2" d="M25.3 62.45 L25.25 62.45 22.85 63.3 M24.35 65.05 L31.45 75.35 31.7 75.2 M22.45 63.55 L22.1 63.75 Q21.35 64.1 20.6 64.55 L20.6 65.85 19.55 65.3 18.75 65.95 17.75 66.75 Q16.7 67.75 15.75 68.9 L25.05 81.0 25.05 79.9 25.1 79.85 25.25 79.65 25.4 79.45 26.25 78.5 27.0 78.0 27.5 77.7 26.85 75.85 25.7 73.65 M22.45 63.55 L22.85 63.3 M25.2 72.65 L29.05 76.9 29.2 76.8 29.65 76.35 29.95 76.15 M30.0 70.55 L25.3 62.45 M25.2 72.65 L25.7 73.65 M29.4 80.5 L29.4 80.6 29.45 80.75 29.5 80.8 29.55 80.8 29.75 80.85 29.8 80.85 29.9 80.9 29.95 80.95 30.0 80.9 30.1 80.9 30.2 80.85 30.3 80.85 M30.4 80.75 L30.5 80.75 30.7 80.65 30.8 80.55 30.85 80.45 31.0 80.3 31.0 80.25 31.1 80.15 31.15 80.15 31.15 80.05 31.2 80.0 31.25 79.85 31.2 79.5 31.15 79.35 31.0 79.2 30.0 78.05 29.2 76.8 M30.65 71.65 L30.0 70.55 M30.65 71.65 L33.1 75.9 Q32.35 75.25 31.7 75.2 M31.6 80.25 L31.2 79.5 M35.2 86.65 L35.4 86.4 M31.6 80.25 L35.4 85.95 35.4 86.4 M34.55 87.0 L34.6 87.0 34.8 86.95 34.85 86.9 35.2 86.65 M27.5 77.7 L29.05 79.9 29.3 80.4 29.4 80.5 M34.55 87.0 L34.15 86.9 34.05 86.85 29.5 80.8 M31.45 75.35 L29.95 76.15"/><path fill="none" stroke="#000000" stroke-width="0.5" stroke-opacity="0.333333333333" d="M22.0 66.15 L23.1 69.7 23.15 69.75 M23.15 69.8 L23.1 69.75 M20.45 67.25 L20.6 67.35 20.45 67.2 M23.1 69.7 L23.0 69.5 M20.6 67.35 L23.1 69.7"/><path fill="none" stroke="#69513b" stroke-width="0.5" d="M23.15 69.75 L23.15 69.8"/><path stroke="none" fill="url(#gradient7)" d="M25.95 79.05 L24.8 80.65 15.75 68.9 Q17.65 66.75 19.65 65.35 L20.6 65.85 23.2 69.8 20.45 67.3 18.3 69.3 25.3 79.6 25.95 79.05 M27.2 77.95 L27.45 77.75 25.0 72.4 Q27.75 76.45 30.85 80.5 30.05 81.25 29.45 80.7 L27.55 77.75 27.2 77.95"/></g><g id="c11"><g><use transform="matrix(1.0,0.0,0.0,1.0,6.3,53.35)" xlink:href="#c9"/></g><g><use transform="matrix(1.0,0.0,0.0,1.0,0.0,0.0)" xlink:href="#c10"/></g><g><use transform="matrix(0.141098022461,-0.0378112792969,0.111373901367,0.225646972656,27.2,74.05)" filter="url(#filter11)" xlink:href="#c6"/></g></g><filter id="filter11"><feColorMatrix in="SourceGraphic" type="matrix" values="1.0 0.0 0.0 0.0 0.0 0.0 1.0 0.0 0.0 0.0 0.0 0.0 1.0 0.0 0.0 0.0 0.0 0.0 0.23046875 0.0" result="cxform"/><feComposite operator="in" in2="SourceGraphic" result="color-xform"/></filter></defs><g><g><use transform="matrix(1.0,0.0,0.0,1.0,0.0,0.0)" xlink:href="#c1"/></g><g><use transform="matrix(1.15496826172,0.0,0.0,1.15496826172,-1.55,-56.9)" xlink:href="#c11"/></g></g></svg>