<?xml version="1.0" encoding="UTF-8" standalone="no"?>
<svg xmlns:xlink="http://www.w3.org/1999/xlink" height="60.0px" width="60.0px" xmlns="http://www.w3.org/2000/svg">
  <g transform="matrix(1.0, 0.0, 0.0, 1.0, 0.0, 0.0)">
    <use height="60.0" transform="matrix(1.0, 0.0, 0.0, 1.0, 0.0, 0.0)" width="60.0" xlink:href="#shape0"/>
    <use height="48.85" transform="matrix(1.1549, 0.0, 0.0, 1.1549, 3.0119, 1.201)" width="46.8" xlink:href="#sprite0"/>
  </g>
  <defs>
    <g id="shape0" transform="matrix(1.0, 0.0, 0.0, 1.0, 0.0, 0.0)">
      <path d="M0.0 0.0 L60.0 0.0 60.0 60.0 0.0 60.0 0.0 0.0" fill="#000000" fill-opacity="0.003921569" fill-rule="evenodd" stroke="none"/>
    </g>
    <g id="sprite0" transform="matrix(1.0, 0.0, 0.0, 1.0, -3.95, -51.0)">
      <use height="47.05" transform="matrix(1.0, 0.0, 0.0, 1.0, 3.95, 52.8)" width="46.8" xlink:href="#sprite1"/>
      <clipPath id="clipPath0" transform="matrix(1.0, 0.0, 0.0, 1.0, 0.0, 0.0)">
        <path d="M46.35 90.05 L45.05 90.6 26.55 96.55 25.95 96.75 25.25 96.85 23.45 96.75 Q21.45 96.25 20.35 93.85 L7.5 65.15 Q6.55 63.0 7.25 61.65 7.6 61.0 8.3 60.5 8.95 60.05 9.95 59.7 L23.65 55.3 36.35 60.35 47.5 85.05 Q49.1 88.5 46.35 90.05" fill="#003333" fill-rule="evenodd" stroke="none"/>
      </clipPath>
      <g clip-path="url(#clipPath0)">
        <use height="0.0" transform="matrix(1.0, 0.0, 0.0, 1.0, 6.45, 53.4)" width="0.0" xlink:href="#sprite5"/>
      </g>
      <use height="14.15" transform="matrix(1.0, 0.0, 0.0, 1.0, 17.75, 67.35)" width="19.3" xlink:href="#shape5"/>
      <use height="18.5" transform="matrix(0.7473, 0.0, 0.0, 0.7473, 17.6223, 67.2755)" width="25.45" xlink:href="#sprite6"/>
      <use height="11.95" transform="matrix(1.0, 0.0, 0.0, 1.0, 20.15, 69.2)" width="12.85" xlink:href="#shape7"/>
      <use height="6.15" transform="matrix(0.7473, 0.0, 0.0, 0.7473, 18.4135, 74.5041)" width="10.0" xlink:href="#sprite7"/>
      <use height="12.2" transform="matrix(0.1252, 0.0, -0.0102, 0.1252, 34.6769, 78.6224)" width="32.7" xlink:href="#sprite8"/>
      <use height="5.05" transform="matrix(1.0, 0.0, 0.0, 1.0, 34.1, 75.0)" width="5.1" xlink:href="#shape10"/>
      <use height="12.2" transform="matrix(0.2004, 0.0201, -0.0366, 0.1988, 30.5688, 80.9457)" width="32.7" xlink:href="#sprite8"/>
      <use height="8.0" transform="matrix(1.0, 0.0, 0.0, 1.0, 29.3, 76.1)" width="7.9" xlink:href="#shape11"/>
      <use height="12.2" transform="matrix(0.0528, 0.0, -0.0042, 0.0528, 23.8388, 80.5561)" width="32.7" xlink:href="#sprite8"/>
      <use height="42.75" transform="matrix(1.0, 0.0, 0.0, 1.0, 6.1, 54.95)" width="42.5" xlink:href="#shape12"/>
      <clipPath id="clipPath1" transform="matrix(1.0, 0.0, 0.0, 1.0, 0.0, 0.0)">
        <path d="M46.35 90.05 L45.05 90.6 26.55 96.55 25.95 96.75 25.25 96.85 23.45 96.75 Q21.45 96.25 20.35 93.85 L7.5 65.15 Q6.55 63.0 7.25 61.65 7.6 61.0 8.3 60.5 8.95 60.05 9.95 59.7 L23.65 55.3 36.35 60.35 47.5 85.05 Q49.1 88.5 46.35 90.05" fill="#003333" fill-rule="evenodd" stroke="none"/>
        <path d="M46.35 90.05 L45.05 90.6 26.55 96.55 25.95 96.75 25.25 96.85 23.45 96.75 Q21.45 96.25 20.35 93.85 L7.5 65.15 Q6.55 63.0 7.25 61.65 7.6 61.0 8.3 60.5 8.95 60.05 9.95 59.7 L23.65 55.3 36.35 60.35 47.5 85.05 Q49.1 88.5 46.35 90.05 Z" fill="none" stroke="#000000" stroke-linecap="round" stroke-linejoin="round" stroke-opacity="0.29803923" stroke-width="0.05"/>
      </clipPath>
      <g clip-path="url(#clipPath1)">
        <use height="0.0" transform="matrix(1.0, 0.0, 0.0, 1.0, 9.65, 51.0)" width="0.0" xlink:href="#sprite9"/>
        <use height="0.0" transform="matrix(1.0, 0.0, 0.0, 1.0, 9.65, 51.0)" width="0.0" xlink:href="#sprite9"/>
        <use height="30.6" transform="matrix(1.0, 0.0, 0.0, 1.0, 14.7, 59.4)" width="27.15" xlink:href="#shape14"/>
      </g>
      <use height="0.0" transform="matrix(0.1411, -0.0378, 0.1114, 0.2256, 27.2, 74.05)" width="0.0" xlink:href="#sprite3"/>
    </g>
    <g id="sprite1" transform="matrix(1.0, 0.0, 0.0, 1.0, 2.35, 0.55)">
      <use height="49.05" transform="matrix(1.0, 0.0, 0.0, 1.0, -3.35, -1.55)" width="48.8" xlink:href="#shape1"/>
      <use height="13.75" transform="matrix(0.2389, -0.0867, 0.1003, 0.2339, 34.25, 31.15)" width="15.1" xlink:href="#sprite2"/>
      <use height="13.75" transform="matrix(0.2389, -0.0867, 0.1003, 0.2339, 4.25, 10.3)" width="15.1" xlink:href="#sprite2"/>
      <use height="0.0" transform="matrix(0.1411, -0.0378, 0.1114, 0.2256, 20.25, 20.65)" width="0.0" xlink:href="#sprite3"/>
      <use height="211.65" transform="matrix(-0.155, 0.0513, 0.0842, 0.147, 22.6113, 3.1375)" width="136.8" xlink:href="#sprite4"/>
    </g>
    <g id="shape1" transform="matrix(1.0, 0.0, 0.0, 1.0, 3.35, 1.55)">
      <path d="M3.8 6.35 L17.5 1.95 30.2 7.0 41.35 31.7 Q42.95 35.15 40.2 36.7 39.5 37.3 38.3 37.65 L19.8 43.65 Q17.15 44.45 15.5 43.3 14.35 42.55 13.65 40.9 L0.7 12.25 Q-0.45 9.75 0.75 8.25 1.2 7.6 2.15 7.15 2.8 6.7 3.8 6.35 Z" fill="none" stroke="#000000" stroke-linecap="round" stroke-linejoin="round" stroke-opacity="0.3019608" stroke-width="1.0"/>
      <path d="M35.55 22.3 L31.45 13.25 29.75 9.2 29.65 9.15 29.75 9.2 31.45 13.25 29.65 9.15 26.25 7.85 16.95 4.2 5.5 7.85 Q1.65 9.1 3.35 12.8 L8.25 23.65 15.0 38.6 15.2 39.0 Q16.8 42.25 20.45 41.1 L37.2 35.7 Q41.1 34.5 39.35 30.75 L35.55 22.3 M1.1 8.3 Q1.45 7.65 2.15 7.15 2.8 6.7 3.8 6.35 L17.5 1.95 30.2 7.0 41.35 31.7 Q42.95 35.15 40.2 36.7 L38.9 37.25 23.2 42.3 20.4 43.2 19.1 43.5 17.3 43.4 Q15.3 42.9 14.2 40.5 L5.45 20.95 1.35 11.8 Q0.4 9.65 1.1 8.3" fill="#ffcc00" fill-rule="evenodd" stroke="none"/>
      <path d="M31.45 13.25 L35.55 22.3 39.35 30.75 Q41.1 34.5 37.2 35.7 L20.45 41.1 Q16.8 42.25 15.2 39.0 L15.0 38.6 8.25 23.65 3.35 12.8 Q1.65 9.1 5.5 7.85 L16.95 4.2 26.25 7.85 29.65 9.15 31.45 13.25 M26.5 8.3 L26.25 7.85 26.5 8.3 M18.6 7.5 L9.1 10.55 9.55 11.6 Q9.8 12.8 9.15 13.6 8.4 14.45 7.1 14.4 L6.8 14.4 6.95 14.6 16.3 35.2 Q16.8 36.4 17.65 37.0 18.8 37.8 20.65 37.2 L34.0 32.9 33.7 32.1 Q33.45 30.9 34.1 30.1 34.75 29.3 35.95 29.35 L35.8 29.0 27.7 10.95 18.6 7.5" fill="#996600" fill-rule="evenodd" stroke="none"/>
      <path d="M0.75 8.25 L1.1 8.3 Q0.4 9.65 1.35 11.8 L5.45 20.95 4.6 20.9 0.7 12.25 Q-0.45 9.75 0.75 8.25 M17.3 43.4 L19.1 43.5 20.1 43.55 19.8 43.65 Q17.15 44.45 15.5 43.3 L17.3 43.4" fill="#5b3c00" fill-rule="evenodd" stroke="none"/>
      <path d="M2.15 7.15 Q1.45 7.65 1.1 8.3 L0.75 8.25 Q1.2 7.6 2.15 7.15 M5.45 20.95 L14.2 40.5 Q15.3 42.9 17.3 43.4 L15.5 43.3 Q14.35 42.55 13.65 40.9 L4.6 20.9 5.45 20.95 M19.1 43.5 L20.4 43.2 23.2 42.3 23.3 42.5 20.1 43.55 19.1 43.5" fill="#724b00" fill-rule="evenodd" stroke="none"/>
      <path d="M27.7 10.95 L35.8 29.0 35.95 29.35 Q34.75 29.3 34.1 30.1 33.45 30.9 33.7 32.1 L34.0 32.9 20.65 37.2 Q18.8 37.8 17.65 37.0 16.8 36.4 16.3 35.2 L6.95 14.6 6.8 14.4 7.1 14.4 Q8.4 14.45 9.15 13.6 9.8 12.8 9.55 11.6 L9.1 10.55 18.6 7.5 27.7 10.95" fill="#fcf2cf" fill-rule="evenodd" stroke="none"/>
      <path d="M23.2 42.3 L38.9 37.25 40.2 36.7 Q39.5 37.3 38.3 37.65 L23.3 42.5 23.2 42.3" fill="#1c1200" fill-rule="evenodd" stroke="none"/>
      <path d="M31.45 13.25 L35.55 22.3 M15.0 38.6 L8.25 23.65 M31.45 13.25 L29.65 9.15" fill="none" stroke="#ffaa00" stroke-linecap="round" stroke-linejoin="round" stroke-width="1.0"/>
      <path d="M35.55 22.3 L39.35 30.75 Q41.1 34.5 37.2 35.7 L20.45 41.1 Q16.8 42.25 15.2 39.0 L15.0 38.6 M8.25 23.65 L3.35 12.8 Q1.65 9.1 5.5 7.85 L16.95 4.2 26.25 7.85 29.65 9.15 29.75 9.2 31.45 13.25" fill="none" stroke="#fcf2cf" stroke-linecap="round" stroke-linejoin="round" stroke-width="1.0"/>
      <path d="M26.25 7.85 L26.5 8.3 M27.7 10.95 L35.8 29.0 35.95 29.35 Q34.75 29.3 34.1 30.1 33.45 30.9 33.7 32.1 L34.0 32.9 20.65 37.2 Q18.8 37.8 17.65 37.0 16.8 36.4 16.3 35.2 L6.95 14.6 6.8 14.4 7.1 14.4 Q8.4 14.45 9.15 13.6 9.8 12.8 9.55 11.6 L9.1 10.55 18.6 7.5" fill="none" stroke="#f0b92b" stroke-linecap="round" stroke-linejoin="round" stroke-width="0.05"/>
      <path d="M1.1 8.3 Q1.45 7.65 2.15 7.15 1.2 7.6 0.75 8.25 -0.45 9.75 0.7 12.25 L4.6 20.9 13.65 40.9 Q14.35 42.55 15.5 43.3 17.15 44.45 19.8 43.65 L20.1 43.55 23.3 42.5 38.3 37.65 Q39.5 37.3 40.2 36.7 42.95 35.15 41.35 31.7 L30.2 7.0 M1.1 8.3 Q0.4 9.65 1.35 11.8 L5.45 20.95 14.2 40.5 Q15.3 42.9 17.3 43.4 L19.1 43.5 20.4 43.2 23.2 42.3 38.9 37.25 40.2 36.7 M17.5 1.95 L3.8 6.35 Q2.8 6.7 2.15 7.15" fill="none" stroke="#000000" stroke-linecap="round" stroke-linejoin="round" stroke-opacity="0.3019608" stroke-width="0.05"/>
      <path d="M18.6 7.5 L27.7 10.95" fill="none" stroke="#ffcc00" stroke-linecap="round" stroke-linejoin="round" stroke-opacity="0.7490196" stroke-width="0.05"/>
    </g>
    <g id="sprite2" transform="matrix(1.0, 0.0, 0.0, 1.0, 0.0, 0.0)">
      <use height="13.75" transform="matrix(1.0, 0.0, 0.0, 1.0, 0.0, 0.0)" width="15.1" xlink:href="#shape2"/>
    </g>
    <g id="shape2" transform="matrix(1.0, 0.0, 0.0, 1.0, 0.0, 0.0)">
      <path d="M10.75 4.9 Q10.75 4.6 10.9 4.35 11.25 3.45 11.95 2.75 13.3 1.5 14.35 2.1 15.4 2.7 14.95 4.45 14.7 5.4 14.1 6.15 L13.75 6.5 Q13.1 7.15 12.35 7.35 L11.4 7.2 Q10.95 6.9 10.75 6.4 10.5 5.75 10.75 4.9 M7.5 5.9 Q7.0 5.85 6.6 5.5 6.05 5.0 5.8 4.15 L5.7 3.6 Q5.55 2.65 5.8 1.7 6.25 0.0 7.5 0.0 L7.6 0.0 Q8.85 0.0 9.3 1.7 9.55 2.65 9.4 3.6 L9.3 4.15 8.5 5.5 7.6 5.9 7.5 5.9 M4.35 4.9 Q4.6 5.75 4.35 6.4 L3.7 7.2 2.75 7.35 Q2.0 7.15 1.35 6.5 L1.0 6.15 Q0.4 5.4 0.15 4.45 -0.3 2.7 0.75 2.1 1.8 1.5 3.15 2.75 3.85 3.45 4.2 4.35 L4.35 4.9 M5.5 13.7 Q4.45 13.9 3.65 12.95 2.75 12.0 3.2 10.25 3.7 8.5 5.25 7.6 6.4 6.9 7.55 7.0 8.75 6.9 9.9 7.6 11.45 8.5 11.95 10.25 12.35 12.0 11.5 12.95 10.7 13.9 9.65 13.7 8.55 13.5 7.55 12.6 6.55 13.5 5.5 13.7" fill="#7fdbfe" fill-rule="evenodd" stroke="none"/>
    </g>
    <g id="sprite4" transform="matrix(1.0, 0.0, 0.0, 1.0, 0.1, 0.05)">
      <use height="211.75" transform="matrix(1.0, 0.0, 0.0, 1.0, -0.15, -0.1)" width="136.9" xlink:href="#shape3"/>
    </g>
    <g id="shape3" transform="matrix(1.0, 0.0, 0.0, 1.0, 0.15, 0.1)">
      <path d="M136.55 165.8 L68.6 106.0 68.4 106.0 118.25 201.5 M68.2 105.7 L68.25 105.8 68.25 105.75 68.2 105.7 0.0 45.7 M68.25 105.8 L68.3 105.85 68.3 105.8 68.25 105.75 49.95 0.05 M0.05 97.7 L68.15 105.95 68.25 105.85 68.25 105.8 M68.3 105.85 L68.25 105.85 68.3 106.0 68.3 105.85 68.3 105.8 68.35 105.8 68.3 105.8 86.6 18.35 M50.0 193.2 L68.3 106.0 68.15 105.95 18.25 151.55 M68.4 106.0 L68.3 106.0 86.55 211.5 M68.4 106.0 L68.3 105.85 M68.6 106.0 L68.35 105.8 118.25 60.15 M136.6 114.25 L68.6 106.0 M68.2 105.7 L18.25 10.05" fill="none" stroke="url(#gradient0)" stroke-linecap="round" stroke-linejoin="round" stroke-width="0.05"/>
    </g>
    <radialGradient cx="0" cy="0" gradientTransform="matrix(0.2092, 0.0, 0.0, 0.1771, 67.15, 107.2)" gradientUnits="userSpaceOnUse" id="gradient0" r="819.2" spreadMethod="pad">
      <stop offset="0.3568627450980392" stop-color="#ffffff"/>
      <stop offset="0.6705882352941176" stop-color="#000000" stop-opacity="0.0"/>
    </radialGradient>
    <g id="shape5" transform="matrix(1.0, 0.0, 0.0, 1.0, -17.75, -67.35)">
      <path d="M23.55 69.1 L24.0 68.9 26.1 67.8 28.7 67.85 34.05 70.55 31.6 71.05 34.05 70.55 35.05 71.05 36.25 71.65 36.9 72.15 36.85 72.45 36.25 72.9 35.5 73.3 32.5 74.8 32.4 74.85 31.1 75.5 28.7 76.7 Q27.4 77.35 26.1 76.7 L19.1 73.25 18.55 72.95 17.9 72.4 17.9 72.15 18.55 71.6 20.75 70.5 20.95 70.4 22.5 69.65 23.55 69.1 M23.6 70.8 L20.75 70.5 23.6 70.8 21.55 71.8 21.15 72.2 21.15 72.35 21.55 72.7 21.6 72.75 26.5 75.2 Q27.4 75.65 28.25 75.2 L29.35 74.65 31.1 75.5 29.35 74.65 30.8 73.9 33.1 72.75 33.2 72.7 33.6 72.4 33.6 72.2 33.2 71.85 31.6 71.05 28.25 69.4 27.95 69.3 26.5 69.35 23.8 70.7 23.6 70.8 M32.4 74.85 L30.8 73.9 32.4 74.85" fill="#feec4e" fill-rule="evenodd" stroke="none"/>
      <path d="M23.6 70.8 L23.8 70.7 26.5 69.35 27.95 69.3 27.95 70.2 26.5 70.3 23.9 71.6 23.85 71.65 21.6 72.75 21.55 72.7 21.15 72.35 21.15 72.2 21.55 71.8 23.6 70.8 23.8 70.8 23.8 70.7 23.8 70.8 23.6 70.8 M28.7 76.7 L31.1 75.5 31.75 77.1 32.5 74.8 35.5 73.3 35.55 77.6 34.75 78.0 33.9 78.45 32.6 79.05 31.4 79.7 28.7 81.0 28.7 76.7 M23.8 70.8 L23.85 71.65 23.8 70.8 M32.4 74.85 L32.5 74.8 31.75 77.1 31.1 75.5 32.4 74.85 M31.75 77.1 L32.6 79.05 31.75 77.1" fill="#d17200" fill-rule="evenodd" stroke="none"/>
      <path d="M17.9 72.4 L18.55 72.95 19.1 73.25 19.1 77.55 18.6 77.3 18.55 77.25 18.3 77.15 18.15 77.0 17.9 76.7 17.9 76.5 17.9 72.4 M26.1 76.7 Q27.4 77.35 28.7 76.7 L28.7 81.0 26.1 81.05 26.1 76.7 M29.35 74.65 L28.25 75.2 Q27.4 75.65 26.5 75.2 L21.6 72.75 23.85 71.65 23.9 71.6 26.5 70.3 27.95 70.2 28.25 70.35 31.55 72.0 31.55 72.1 23.9 71.6 31.55 72.1 31.55 72.0 31.8 72.1 31.55 72.1 31.8 72.1 32.1 72.25 33.1 72.75 30.8 73.9 29.35 74.65" fill="#ffcc00" fill-rule="evenodd" stroke="none"/>
      <path d="M27.95 69.3 L28.25 69.4 31.6 71.05 31.55 72.0 31.6 71.05 33.2 71.85 33.6 72.2 33.6 72.4 33.2 72.7 33.1 72.75 32.1 72.25 31.8 72.1 31.55 72.0 28.25 70.35 27.95 70.2 27.95 69.3 M19.1 73.25 L26.1 76.7 26.1 81.05 24.55 80.25 24.25 80.1 23.05 79.5 22.15 79.05 19.1 77.55 19.1 73.25" fill="#f7b100" fill-rule="evenodd" stroke="none"/>
      <path d="M35.5 73.3 L36.25 72.9 36.85 72.45 36.9 76.8 36.85 76.8 36.25 77.25 35.55 77.6 35.5 73.3" fill="#c96900" fill-rule="evenodd" stroke="none"/>
      <path d="M23.55 69.1 L22.5 69.65 M20.95 70.4 L20.75 70.5 18.55 71.6 17.9 72.15 17.9 72.4 17.9 76.5 17.9 76.7 18.15 77.0 18.3 77.15 M34.05 70.55 L28.7 67.85 26.1 67.8 24.0 68.9 M18.6 77.3 L19.1 77.55 22.15 79.05 M36.85 72.45 L36.9 72.15 36.25 71.65 35.05 71.05 M23.05 79.5 L24.25 80.1 M24.55 80.25 L26.1 81.05 28.7 81.0 31.4 79.7 M34.75 78.0 L35.55 77.6 36.25 77.25 36.85 76.8 36.9 76.8 36.85 72.45 M32.6 79.05 L33.9 78.45" fill="none" stroke="#000000" stroke-linecap="round" stroke-linejoin="round" stroke-opacity="0.3019608" stroke-width="0.05"/>
      <path d="M24.0 68.9 L23.55 69.1 M22.5 69.65 L20.95 70.4 M18.3 77.15 L18.55 77.25 18.6 77.3 M35.05 71.05 L34.05 70.55 M22.15 79.05 L23.05 79.5 M24.25 80.1 L24.55 80.25 M33.9 78.45 L34.75 78.0 M31.4 79.7 L32.6 79.05" fill="none" stroke="#000000" stroke-linecap="round" stroke-linejoin="round" stroke-opacity="0.101960786" stroke-width="0.05"/>
      <path d="M20.75 70.5 L23.6 70.8 23.8 70.8 23.8 70.7 M31.6 71.05 L34.05 70.55 M19.1 73.25 L26.1 76.7 M28.7 76.7 L31.1 75.5 29.35 74.65 M23.85 71.65 L23.8 70.8 M23.9 71.6 L31.55 72.1 31.55 72.0 31.6 71.05 M30.8 73.9 L32.4 74.85 32.5 74.8 35.5 73.3 M31.55 72.1 L31.8 72.1 32.1 72.25 M31.1 75.5 L31.75 77.1 32.5 74.8 M32.4 74.85 L31.1 75.5 M32.6 79.05 L31.75 77.1" fill="none" stroke="#000000" stroke-linecap="round" stroke-linejoin="round" stroke-opacity="0.050980393" stroke-width="0.05"/>
    </g>
    <g id="sprite6" transform="matrix(1.0, 0.0, 0.0, 1.0, 12.75, 18.5)">
      <use height="18.5" transform="matrix(1.0, 0.0, 0.0, 1.0, -12.75, -18.5)" width="25.45" xlink:href="#shape6"/>
    </g>
    <g id="shape6" transform="matrix(1.0, 0.0, 0.0, 1.0, 12.75, 18.5)">
      <path d="M8.85 -14.45 L8.9 -14.45 11.85 -13.0 12.7 -12.3 12.65 -11.9 12.7 -6.1 12.65 -6.1 11.85 -5.5 1.75 -0.45 Q0.0 0.45 -1.75 -0.4 L-11.8 -5.4 -11.85 -5.45 -12.2 -5.65 -12.4 -5.8 -12.7 -6.2 -12.7 -6.5 -12.7 -12.0 -12.7 -12.3 -11.85 -13.05 -1.75 -18.1 Q0.0 -18.95 1.75 -18.05 L8.85 -14.45" fill="url(#gradient1)" fill-rule="evenodd" stroke="none"/>
    </g>
    <linearGradient gradientTransform="matrix(0.0103, 0.0109, -0.0082, 0.0077, -5.5, -14.0)" gradientUnits="userSpaceOnUse" id="gradient1" spreadMethod="pad" x1="-819.2" x2="819.2">
      <stop offset="0.0" stop-color="#ffe4a6"/>
      <stop offset="1.0" stop-color="#ffcf61" stop-opacity="0.0"/>
    </linearGradient>
    <g id="shape7" transform="matrix(1.0, 0.0, 0.0, 1.0, -20.15, -69.2)">
      <path d="M24.55 72.85 L23.15 73.05 Q22.2 73.5 21.85 74.45 21.45 75.5 21.95 76.4 L20.15 77.55 22.4 77.0 Q22.75 77.5 23.5 77.8 L24.85 77.9 25.5 78.7 25.65 77.65 25.75 77.6 Q26.65 77.15 27.0 76.25 27.4 75.25 26.9 74.3 L26.1 73.4 Q25.65 72.65 26.35 70.95 25.65 72.35 24.55 72.85 M23.9 74.35 Q24.4 74.2 24.9 74.35 L25.75 74.95 25.8 75.95 25.1 76.65 24.05 76.75 Q23.5 76.5 23.3 76.1 23.0 75.55 23.2 75.1 23.35 74.6 23.9 74.35" fill="#fcf3d8" fill-opacity="0.3019608" fill-rule="evenodd" stroke="none"/>
      <path d="M23.9 74.35 Q23.35 74.6 23.2 75.1 23.0 75.55 23.3 76.1 23.5 76.5 24.05 76.75 L25.1 76.65 25.8 75.95 25.75 74.95 24.9 74.35 Q24.4 74.2 23.9 74.35" fill="#fcf3d8" fill-rule="evenodd" stroke="none"/>
      <path d="M24.75 74.8 L22.35 71.6 24.1 75.05 22.25 77.25 24.6 76.1 28.25 81.15 25.4 75.6 33.0 69.2 24.75 74.8" fill="#fcf3d8" fill-rule="evenodd" stroke="none"/>
    </g>
    <g id="sprite7" transform="matrix(1.0, 0.0, 0.0, 1.0, 5.0, 6.15)">
      <use height="6.15" transform="matrix(1.0, 0.0, 0.0, 1.0, -5.0, -6.15)" width="10.0" xlink:href="#shape8"/>
    </g>
    <g id="shape8" transform="matrix(1.0, 0.0, 0.0, 1.0, 5.0, 6.15)">
      <path d="M-1.55 -0.95 L-4.45 -2.4 -4.8 -2.6 -5.0 -2.75 -0.4 -6.15 3.1 -4.4 -1.55 -0.95 M5.0 -3.45 L0.35 0.0 -0.7 -0.55 3.95 -4.0 5.0 -3.45" fill="#ffffff" fill-opacity="0.54901963" fill-rule="evenodd" stroke="none"/>
    </g>
    <g id="sprite8" transform="matrix(1.0, 0.0, 0.0, 1.0, 16.35, 12.2)">
      <use height="12.2" transform="matrix(1.0, 0.0, 0.0, 1.0, -16.35, -12.2)" width="32.7" xlink:href="#shape9"/>
    </g>
    <g id="shape9" transform="matrix(1.0, 0.0, 0.0, 1.0, 16.35, 12.2)">
      <path d="M0.0 -12.2 Q6.8 -12.2 11.6 -10.4 16.35 -8.6 16.35 -6.1 16.35 -3.55 11.6 -1.75 6.8 0.0 0.0 0.0 -6.75 0.0 -11.55 -1.75 -16.35 -3.55 -16.35 -6.1 -16.35 -8.6 -11.55 -10.4 -6.75 -12.2 0.0 -12.2" fill="url(#gradient2)" fill-rule="evenodd" stroke="none"/>
    </g>
    <radialGradient cx="0" cy="0" gradientTransform="matrix(0.0202, 0.0, 0.0, 0.0076, 0.0, -6.1)" gradientUnits="userSpaceOnUse" id="gradient2" r="819.2" spreadMethod="pad">
      <stop offset="0.5058823529411764" stop-color="#382510" stop-opacity="0.21176471"/>
      <stop offset="1.0" stop-color="#382510" stop-opacity="0.0"/>
    </radialGradient>
    <g id="shape10" transform="matrix(1.0, 0.0, 0.0, 1.0, -34.1, -75.0)">
      <path d="M35.1 76.8 L34.5 77.2 34.5 77.6 34.25 77.0 35.1 76.8 M34.55 77.8 L35.25 79.15 35.85 79.6 35.25 79.4 34.95 79.05 34.55 77.8 M35.8 75.25 L34.85 76.15 35.45 75.3 35.8 75.25" fill="#fece61" fill-rule="evenodd" stroke="none"/>
      <path d="M34.5 77.6 L34.5 77.2 35.1 76.8 35.15 76.75 35.6 77.2 36.1 78.55 36.3 79.05 36.6 79.9 35.85 79.6 35.25 79.15 34.55 77.8 34.5 77.6" fill="#f8ba04" fill-rule="evenodd" stroke="none"/>
      <path d="M36.1 78.55 L35.6 77.2 35.5 76.5 36.45 75.15 37.35 75.3 37.8 75.45 38.0 75.5 38.5 76.05 39.05 77.3 39.05 77.35 36.1 78.55" fill="#d97200" fill-rule="evenodd" stroke="none"/>
      <path d="M35.1 76.8 L34.25 77.0 34.85 76.15 35.8 75.25 36.45 75.15 35.5 76.5 35.15 76.75 35.1 76.8 M36.6 79.9 L36.3 79.05 36.8 79.45 38.25 79.75 36.6 79.9" fill="#fee7b4" fill-rule="evenodd" stroke="none"/>
      <path d="M35.6 77.2 L35.15 76.75 35.5 76.5 35.6 77.2" fill="#fffaee" fill-rule="evenodd" stroke="none"/>
      <path d="M36.3 79.05 L36.1 78.55 39.05 77.35 38.8 78.9 38.3 79.65 38.25 79.75 36.8 79.45 36.3 79.05" fill="#d17200" fill-rule="evenodd" stroke="none"/>
      <path d="M34.25 77.0 L34.5 77.6 34.55 77.8 34.95 79.05 35.25 79.4 35.85 79.6 36.6 79.9 36.3 79.05 M39.05 77.35 L39.05 77.3 38.5 76.05 38.0 75.5 37.8 75.45 37.35 75.3 36.45 75.15 35.8 75.25 35.45 75.3 34.85 76.15 34.25 77.0 M39.05 77.35 L38.8 78.9 38.3 79.65 M38.25 79.75 L36.6 79.9" fill="none" stroke="#000000" stroke-linecap="round" stroke-linejoin="round" stroke-opacity="0.101960786" stroke-width="0.05"/>
      <path d="M35.1 76.8 L34.25 77.0 M35.15 76.75 L35.1 76.8" fill="none" stroke="#ffefcc" stroke-linecap="round" stroke-linejoin="round" stroke-width="0.05"/>
    </g>
    <g id="shape11" transform="matrix(1.0, 0.0, 0.0, 1.0, -29.3, -76.1)">
      <path d="M29.45 80.4 L29.65 79.0 29.9 78.25 30.0 77.95 30.9 77.15 32.85 76.25 35.8 80.55 35.7 80.65 35.8 80.65 32.7 81.75 31.65 81.95 29.45 80.4" fill="#f6ce00" fill-rule="evenodd" stroke="none"/>
      <path d="M29.6 81.5 L29.45 80.4 31.65 81.95 32.05 82.5 32.1 82.6 32.45 83.95 31.05 82.95 29.6 81.5 M36.75 77.45 L37.05 80.1 35.7 80.65 35.8 80.55 36.4 79.8 36.75 77.45" fill="#fee7b4" fill-rule="evenodd" stroke="none"/>
      <path d="M32.05 82.5 L31.65 81.95 32.7 81.75 32.05 82.5" fill="#fffaee" fill-rule="evenodd" stroke="none"/>
      <path d="M37.05 80.1 L36.65 81.35 35.95 82.3 33.75 83.4 33.4 83.55 32.75 83.55 32.1 82.6 32.05 82.5 32.7 81.75 35.8 80.65 35.7 80.65 37.05 80.1" fill="#d97200" fill-rule="evenodd" stroke="none"/>
      <path d="M36.65 81.35 L36.3 82.25 35.75 82.75 33.75 83.4 35.95 82.3 36.65 81.35 M33.4 83.55 L32.45 83.95 32.1 82.6 32.75 83.55 33.4 83.55 M31.05 82.95 L29.7 82.05 29.6 81.5 31.05 82.95" fill="#fece61" fill-rule="evenodd" stroke="none"/>
      <path d="M32.85 76.25 L35.4 76.6 36.65 77.35 36.75 77.45 36.4 79.8 35.8 80.55 32.85 76.25" fill="#e6c000" fill-rule="evenodd" stroke="none"/>
      <path d="M29.6 81.5 L29.45 80.4 29.65 79.0 29.9 78.25 30.0 77.95 30.9 77.15 32.85 76.25 35.4 76.6 36.65 77.35 M36.75 77.45 L37.05 80.1 36.65 81.35 36.3 82.25 35.75 82.75 33.75 83.4 33.4 83.55 32.45 83.95 31.05 82.95 29.7 82.05 29.6 81.5 M35.7 80.65 L37.05 80.1" fill="none" stroke="#000000" stroke-linecap="round" stroke-linejoin="round" stroke-opacity="0.101960786" stroke-width="0.05"/>
      <path d="M32.1 82.6 L32.45 83.95 M32.1 82.6 L32.05 82.5" fill="none" stroke="#ffefcc" stroke-linecap="round" stroke-linejoin="round" stroke-width="0.05"/>
    </g>
    <g id="shape12" transform="matrix(1.0, 0.0, 0.0, 1.0, -6.1, -54.95)">
      <path d="M24.15 79.9 L23.9 80.1 23.9 80.25 23.8 80.0 24.15 79.9 M23.95 80.35 L24.25 80.95 24.5 81.1 24.25 81.0 24.1 80.9 23.95 80.35 M24.45 79.25 L24.05 79.65 24.35 79.3 24.45 79.25" fill="#fece61" fill-rule="evenodd" stroke="none"/>
      <path d="M23.9 80.25 L23.9 80.1 24.15 79.9 24.2 79.9 24.4 80.1 24.6 80.65 24.65 80.9 24.8 81.25 24.5 81.1 24.25 80.95 23.95 80.35 23.9 80.25" fill="#f8ba04" fill-rule="evenodd" stroke="none"/>
      <path d="M24.6 80.65 L24.4 80.1 24.35 79.8 24.75 79.25 25.15 79.3 25.3 79.35 25.4 79.4 25.6 79.6 25.85 80.15 24.6 80.65" fill="#d97200" fill-rule="evenodd" stroke="none"/>
      <path d="M24.15 79.9 L23.8 80.0 24.05 79.65 24.45 79.25 24.75 79.25 24.35 79.8 24.2 79.9 24.15 79.9 M24.8 81.25 L24.65 80.9 24.9 81.05 25.5 81.15 24.8 81.25" fill="#fee7b4" fill-rule="evenodd" stroke="none"/>
      <path d="M24.4 80.1 L24.2 79.9 24.35 79.8 24.4 80.1" fill="#fffaee" fill-rule="evenodd" stroke="none"/>
      <path d="M24.65 80.9 L24.6 80.65 25.85 80.15 25.75 80.8 25.5 81.15 24.9 81.05 24.65 80.9" fill="#d17200" fill-rule="evenodd" stroke="none"/>
      <path d="M23.8 80.0 L23.9 80.25 23.95 80.35 24.1 80.9 24.25 81.0 24.5 81.1 24.8 81.25 24.65 80.9 M25.85 80.15 L25.6 79.6 25.4 79.4 25.3 79.35 25.15 79.3 24.75 79.25 24.45 79.25 24.35 79.3 24.05 79.65 23.8 80.0 M25.85 80.15 L25.75 80.8 25.5 81.15 24.8 81.25" fill="none" stroke="#000000" stroke-linecap="round" stroke-linejoin="round" stroke-opacity="0.101960786" stroke-width="0.05"/>
      <path d="M24.15 79.9 L23.8 80.0 M24.2 79.9 L24.15 79.9" fill="none" stroke="#ffefcc" stroke-linecap="round" stroke-linejoin="round" stroke-width="0.05"/>
      <path d="M36.35 60.35 L47.65 85.05 Q49.25 88.5 46.5 90.05 45.8 90.65 44.6 91.0 L26.1 97.0 Q23.45 97.8 21.8 96.65 20.65 95.9 19.95 94.25 L7.0 65.6 Q5.85 63.1 7.05 61.6 7.5 60.95 8.45 60.5 9.1 60.05 10.1 59.7 L23.8 55.3" fill="none" stroke="#ffcc00" stroke-linecap="round" stroke-linejoin="round" stroke-width="0.1"/>
      <path d="M36.35 60.35 L23.8 55.3" fill="none" stroke="#ffcc00" stroke-linecap="round" stroke-linejoin="round" stroke-width="0.05"/>
    </g>
    <g id="shape14" transform="matrix(1.0, 0.0, 0.0, 1.0, -14.7, -59.4)">
      <path d="M33.85 83.75 L33.85 83.8 33.85 83.95 33.85 84.0 33.85 84.1 33.9 84.1 33.9 84.15 34.35 84.4 34.85 84.75 34.35 84.45 34.1 84.3 34.05 84.25 33.95 84.2 33.9 84.2 33.9 84.7 33.9 85.25 33.85 84.75 33.75 84.2 33.7 84.1 33.5 84.25 33.0 84.55 32.7 84.7 32.95 84.5 33.4 84.3 33.45 84.25 33.5 84.2 33.7 84.1 33.65 84.05 33.7 84.05 33.7 84.0 33.3 83.6 32.95 83.25 33.3 83.55 33.55 83.8 33.7 83.95 33.8 83.4 33.9 82.95 33.85 83.35 33.85 83.75 M34.4 83.9 L34.35 83.9 34.25 84.0 34.15 84.0 33.9 84.05 34.15 83.95 34.7 83.75 35.2 83.65 34.85 83.75 34.95 83.85 34.85 83.75 34.7 83.8 34.4 83.9 M36.75 85.45 L36.9 85.55 36.9 85.5 37.1 83.9 37.35 82.3 37.45 81.75 37.4 82.25 37.4 83.85 37.2 85.6 37.35 86.0 37.4 86.1 38.7 86.9 40.15 87.75 40.55 88.05 40.1 87.8 38.75 87.05 37.75 86.45 37.4 86.25 37.35 86.2 37.4 86.3 37.5 87.75 37.55 89.45 37.6 90.0 37.5 89.5 37.25 87.9 37.05 86.25 37.0 86.3 36.9 85.9 36.7 85.75 36.9 85.85 36.9 85.65 35.7 84.55 34.95 83.85 35.65 84.4 36.45 85.15 36.5 85.2 36.75 85.45 M35.7 86.65 L36.1 86.45 36.2 86.4 36.85 86.1 36.3 86.45 34.8 87.25 33.35 88.0 32.8 88.25 33.3 88.0 34.65 87.2 35.7 86.65 M41.85 84.45 L41.35 84.6 39.85 85.15 38.15 85.7 37.5 85.9 Q37.45 85.85 38.1 85.65 L39.7 85.1 41.3 84.6 41.85 84.45" fill="#fefd8d" fill-opacity="0.972549" fill-rule="evenodd" stroke="none"/>
      <path d="M33.85 83.75 L34.05 83.4 34.25 83.2 34.15 83.4 34.0 83.8 33.9 83.9 33.85 83.8 33.85 83.75 M34.1 84.3 L34.35 84.5 34.45 84.65 34.25 84.5 34.0 84.3 33.95 84.2 34.05 84.25 34.1 84.3 M33.4 84.3 L33.3 84.3 32.95 84.45 32.7 84.55 32.95 84.4 33.35 84.25 33.45 84.25 33.4 84.3 M33.55 83.8 L33.4 83.6 33.6 83.8 33.65 83.9 33.55 83.8 M34.4 83.9 L34.65 83.85 34.95 83.85 35.05 83.8 34.95 83.85 34.7 83.9 34.3 84.0 34.2 84.0 34.25 84.0 34.35 83.9 34.4 83.9 M33.6 84.3 L33.7 84.2 33.75 84.35 33.65 84.7 33.55 85.05 33.55 84.75 33.6 84.3 M37.65 85.15 L37.35 85.5 37.35 85.0 37.9 84.05 38.5 83.1 38.7 82.75 38.55 83.1 38.15 84.05 37.65 85.15 M36.75 85.45 L36.5 85.2 36.45 85.15 35.85 84.4 35.45 83.85 35.95 84.3 36.65 85.15 36.9 85.5 36.75 85.45 M37.4 86.3 L37.35 86.2 37.4 86.25 37.75 86.45 Q38.15 86.7 38.6 87.1 L39.3 87.75 38.5 87.15 37.6 86.5 37.4 86.3 M35.7 86.65 L34.7 87.0 33.8 87.3 34.7 86.95 35.75 86.5 36.1 86.45 35.7 86.65 M38.7 85.65 L38.25 85.7 38.7 85.55 39.75 85.35 40.7 85.2 41.05 85.15 40.75 85.25 39.8 85.45 38.7 85.65 M36.7 86.7 L36.95 86.25 37.0 86.75 36.65 87.8 36.3 88.85 36.15 89.25 36.25 88.85 36.4 87.85 Q36.5 87.1 36.7 86.7" fill="#fffd8f" fill-opacity="0.4" fill-rule="evenodd" stroke="none"/>
      <path d="M38.0 86.75 Q37.9 86.0 37.45 85.8 L36.9 85.85 Q36.75 86.1 36.9 86.5 37.1 87.0 37.65 87.3 L38.35 87.95 38.6 88.25 38.45 87.85 38.0 86.75" fill="#fffd8f" fill-opacity="0.39215687" fill-rule="evenodd" stroke="none"/>
      <path d="M38.0 86.25 L37.05 85.85 Q36.8 85.8 36.95 85.95 L37.55 86.35 38.35 86.6 Q38.8 86.65 39.05 86.85 L39.35 86.95 39.0 86.75 38.0 86.25" fill="#fffd8f" fill-opacity="0.39215687" fill-rule="evenodd" stroke="none"/>
      <path d="M36.4 84.8 Q36.35 85.55 36.75 85.85 L37.3 85.9 37.45 85.25 Q37.35 84.75 36.9 84.35 36.35 83.9 36.3 83.55 L36.1 83.25 36.2 83.65 36.4 84.8" fill="#fffd8f" fill-opacity="0.39215687" fill-rule="evenodd" stroke="none"/>
      <path d="M36.25 85.35 L37.1 85.95 37.2 85.8 36.75 85.3 35.95 84.9 Q35.55 84.75 35.3 84.6 L35.05 84.45 35.35 84.65 36.25 85.35" fill="#fffd8f" fill-opacity="0.39215687" fill-rule="evenodd" stroke="none"/>
      <path d="M38.75 85.2 Q38.0 85.45 37.85 85.65 37.7 85.85 37.85 85.8 L38.5 85.65 39.25 85.2 39.9 84.75 40.15 84.6 39.75 84.75 38.75 85.2" fill="#fffd8f" fill-opacity="0.39215687" fill-rule="evenodd" stroke="none"/>
      <path d="M35.75 87.0 L36.6 86.4 36.5 86.25 Q36.25 86.25 35.9 86.5 L35.25 87.1 34.7 87.65 Q34.4 87.8 34.45 87.85 L34.8 87.6 35.75 87.0" fill="#fffd8f" fill-opacity="0.39215687" fill-rule="evenodd" stroke="none"/>
      <path d="M34.1 84.35 L33.95 84.05 33.75 84.05 Q33.65 84.1 33.7 84.25 L34.0 84.55 34.2 84.75 34.3 84.85 34.2 84.75 34.1 84.35" fill="#fffd8f" fill-opacity="0.39215687" fill-rule="evenodd" stroke="none"/>
      <path d="M34.1 84.2 Q33.9 84.05 33.75 84.05 L33.75 84.1 33.95 84.2 34.2 84.3 34.5 84.4 34.55 84.4 34.45 84.4 34.1 84.2" fill="#fffd8f" fill-opacity="0.39215687" fill-rule="evenodd" stroke="none"/>
      <path d="M33.5 83.65 L33.65 84.05 33.85 84.05 33.9 83.85 33.65 83.55 33.5 83.25 33.45 83.15 33.5 83.25 33.5 83.65" fill="#fffd8f" fill-opacity="0.39215687" fill-rule="evenodd" stroke="none"/>
      <path d="M33.5 83.9 L33.75 84.05 33.8 84.0 33.65 83.85 33.35 83.7 33.2 83.6 33.05 83.55 33.15 83.6 33.5 83.9" fill="#fffd8f" fill-opacity="0.39215687" fill-rule="evenodd" stroke="none"/>
      <path d="M34.3 83.8 L34.05 83.95 34.05 84.0 34.25 83.95 34.55 83.8 Q34.6 83.7 34.7 83.7 L34.8 83.6 34.7 83.65 34.3 83.8" fill="#fffd8f" fill-opacity="0.39215687" fill-rule="evenodd" stroke="none"/>
      <path d="M33.3 84.45 L33.6 84.2 33.6 84.15 Q33.5 84.15 33.4 84.3 L33.15 84.45 32.95 84.65 32.85 84.75 33.0 84.6 33.3 84.45" fill="#fffd8f" fill-opacity="0.39215687" fill-rule="evenodd" stroke="none"/>
      <path d="M36.3 85.35 Q36.05 85.7 36.05 86.15 L36.5 86.9 37.3 87.15 38.05 86.75 38.25 85.9 37.85 85.2 37.05 84.95 36.3 85.35" fill="#ffffff" fill-rule="evenodd" stroke="none"/>
      <path d="M18.75 62.3 L18.65 62.35 18.2 62.45 18.6 62.25 19.85 61.9 21.0 61.5 21.4 61.35 21.05 61.5 19.9 61.9 18.75 62.3 M17.45 61.95 L17.7 62.2 17.75 62.2 17.7 62.15 17.85 61.05 18.05 59.85 18.15 59.4 18.1 59.8 18.05 61.0 18.0 62.25 18.1 62.6 19.15 63.2 20.0 63.75 19.15 63.3 18.5 62.95 18.4 62.85 18.15 62.7 18.1 62.7 18.15 62.75 18.2 63.85 18.2 64.9 18.0 64.0 17.85 62.8 17.8 62.8 17.75 62.45 17.6 62.3 17.7 62.35 17.7 62.3 16.85 61.5 15.9 60.65 15.65 60.35 15.95 60.65 16.8 61.4 17.45 61.95 M14.7 64.25 L15.05 64.05 16.1 63.45 17.25 62.85 17.7 62.65 17.3 62.95 16.2 63.45 15.1 64.05 14.7 64.25" fill="#fefd8d" fill-opacity="0.972549" fill-rule="evenodd" stroke="none"/>
      <path d="M18.75 62.3 L19.1 62.2 19.85 62.05 20.6 61.95 19.85 62.15 19.05 62.3 18.75 62.3 M17.45 61.95 L16.95 61.35 16.5 60.75 17.0 61.3 17.55 61.95 17.7 62.15 17.75 62.2 17.7 62.2 17.45 61.95 M18.5 62.95 L19.0 63.35 19.6 63.8 19.8 64.0 19.6 63.85 18.95 63.4 18.3 62.9 18.15 62.75 18.1 62.7 18.15 62.7 18.4 62.85 18.5 62.95 M18.3 61.9 L18.05 62.2 18.1 61.85 18.45 61.15 18.9 60.4 19.1 60.2 18.95 60.4 18.65 61.15 18.3 61.9 M16.9 62.9 L17.2 62.85 Q17.15 62.9 16.85 63.05 L16.15 63.3 15.45 63.55 15.2 63.6 15.45 63.5 16.1 63.25 Q16.6 63.0 16.9 62.9 M17.55 63.1 L17.75 62.75 17.8 63.1 17.6 63.95 17.25 64.7 17.15 64.95 17.2 64.7 17.4 63.9 Q17.4 63.4 17.55 63.1" fill="#fffd8f" fill-opacity="0.4" fill-rule="evenodd" stroke="none"/>
      <path d="M18.6 63.1 L18.15 62.4 17.7 62.45 17.75 62.95 18.3 63.55 Q18.75 63.8 18.8 64.0 L19.0 64.25 18.85 63.95 18.6 63.1" fill="#fffd8f" fill-opacity="0.39215687" fill-rule="evenodd" stroke="none"/>
      <path d="M18.55 62.7 Q18.05 62.4 17.9 62.4 17.7 62.4 17.8 62.5 L18.25 62.8 18.85 63.0 19.35 63.15 19.6 63.2 19.35 63.1 18.55 62.7" fill="#fffd8f" fill-opacity="0.39215687" fill-rule="evenodd" stroke="none"/>
      <path d="M17.3 61.7 Q17.35 62.3 17.55 62.45 L18.0 62.5 18.1 62.0 17.65 61.35 17.25 60.75 17.15 60.5 17.2 60.8 17.3 61.7" fill="#fffd8f" fill-opacity="0.39215687" fill-rule="evenodd" stroke="none"/>
      <path d="M17.25 62.1 L17.9 62.5 17.95 62.45 17.6 62.05 17.05 61.75 16.55 61.5 16.35 61.4 16.55 61.6 Q16.8 61.7 17.25 62.1" fill="#fffd8f" fill-opacity="0.39215687" fill-rule="evenodd" stroke="none"/>
      <path d="M19.05 61.9 L18.4 62.3 18.45 62.4 18.9 62.3 19.5 61.95 19.95 61.6 20.15 61.5 19.85 61.6 19.05 61.9" fill="#fffd8f" fill-opacity="0.39215687" fill-rule="evenodd" stroke="none"/>
      <path d="M16.9 63.3 L17.5 62.85 17.45 62.7 17.05 62.9 16.5 63.35 16.15 63.75 15.95 63.95 16.2 63.75 16.9 63.3" fill="#fffd8f" fill-opacity="0.39215687" fill-rule="evenodd" stroke="none"/>
      <path d="M17.4 62.1 Q17.15 62.35 17.2 62.65 L17.55 63.25 18.1 63.4 18.7 63.1 18.85 62.5 18.55 61.95 17.9 61.75 17.4 62.1" fill="#ffffff" fill-rule="evenodd" stroke="none"/>
      <path d="M33.55 83.9 L33.45 84.15 33.6 84.45 33.85 84.5 34.15 84.4 34.2 84.05 34.1 83.85 33.75 83.75 33.55 83.9" fill="#ffffff" fill-rule="evenodd" stroke="none"/>
    </g>
  </defs>
</svg>
