<?xml version='1.0' encoding='UTF-8'?>
<svg xmlns:xlink="http://www.w3.org/1999/xlink" xmlns="http://www.w3.org/2000/svg" version="1.1" width="60px" height="60px" viewBox="0.0 0.0 60.0 60.0"><defs><g id="c1"><path fill="#000000" fill-opacity="0.00392156862745" d="M0.0 0.0 L60.0 0.0 60.0 60.0 0.0 60.0 0.0 0.0"/></g><g id="c2"><path fill="none" stroke="#000000" stroke-width="1.0" stroke-opacity="0.301960784314" d="M0.7 12.25 Q-0.45 9.75 0.75 8.25 1.2 7.6 2.15 7.15 2.8 6.7 3.8 6.35 L17.5 1.95 30.2 7.0 41.35 31.7 Q42.95 35.15 40.2 36.7 39.5 37.3 38.3 37.65 L19.8 43.65 Q17.15 44.45 15.5 43.3 14.35 42.55 13.65 40.9 L0.7 12.25"/><path fill="#9d147b" stroke="none" d="M35.55 22.3 L31.5 13.2 29.75 9.2 16.95 4.25 5.5 7.85 Q1.65 9.1 3.35 12.8 L8.25 23.65 15.0 38.6 15.2 39.0 Q16.8 42.25 20.45 41.1 L37.2 35.7 Q41.1 34.5 39.35 30.75 L35.55 22.3 M2.15 7.15 Q2.8 6.7 3.8 6.35 L17.5 1.95 30.2 7.0 41.35 31.7 Q42.95 35.15 40.2 36.7 L38.9 37.25 23.2 42.3 20.4 43.2 19.1 43.5 17.3 43.4 Q15.3 42.9 14.2 40.5 L5.45 20.95 1.35 11.8 Q0.4 9.65 1.1 8.3 1.45 7.65 2.15 7.15"/><path fill="#c47fad" stroke="none" d="M31.5 13.2 L35.55 22.3 39.35 30.75 Q41.1 34.5 37.2 35.7 L20.45 41.1 Q16.8 42.25 15.2 39.0 L15.0 38.6 8.25 23.65 3.35 12.8 Q1.65 9.1 5.5 7.85 L16.95 4.25 29.75 9.2 31.5 13.2 M18.5 7.45 L9.1 10.55 9.55 11.6 Q9.8 12.8 9.15 13.6 8.4 14.45 7.1 14.4 L6.8 14.4 6.95 14.6 16.3 35.2 Q16.8 36.4 17.65 37.0 18.8 37.8 20.65 37.2 L34.0 32.9 33.7 32.1 Q33.45 30.9 34.1 30.1 34.75 29.3 35.95 29.35 L35.8 29.0 27.75 10.95 18.5 7.45"/><path fill="#630a4c" stroke="none" d="M0.75 8.25 Q1.2 7.6 2.15 7.15 1.45 7.65 1.1 8.3 L0.75 8.25 M23.3 42.5 L20.1 43.55 19.1 43.5 20.4 43.2 23.2 42.3 23.3 42.5 M15.5 43.3 Q14.35 42.55 13.65 40.9 L4.6 20.9 5.45 20.95 14.2 40.5 Q15.3 42.9 17.3 43.4 L15.5 43.3"/><path fill="#300525" stroke="none" d="M4.6 20.9 L0.7 12.25 Q-0.45 9.75 0.75 8.25 L1.1 8.3 Q0.4 9.65 1.35 11.8 L5.45 20.95 4.6 20.9 M40.2 36.7 Q39.5 37.3 38.3 37.65 L23.3 42.5 23.2 42.3 38.9 37.25 40.2 36.7 M20.1 43.55 L19.8 43.65 Q17.15 44.45 15.5 43.3 L17.3 43.4 19.1 43.5 20.1 43.55"/><path fill="#fcf2cf" stroke="none" d="M27.75 10.95 L35.8 29.0 35.95 29.35 Q34.75 29.3 34.1 30.1 33.45 30.9 33.7 32.1 L34.0 32.9 20.65 37.2 Q18.8 37.8 17.65 37.0 16.8 36.4 16.3 35.2 L6.95 14.6 6.8 14.4 7.1 14.4 Q8.4 14.45 9.15 13.6 9.8 12.8 9.55 11.6 L9.1 10.55 18.5 7.45 27.75 10.95"/><path fill="none" stroke="#bf9900" stroke-width="1.0" stroke-opacity="0.749019607843" d="M31.5 13.2 L35.55 22.3 M15.0 38.6 L8.25 23.65"/><path fill="none" stroke="#ffcc00" stroke-width="1.0" stroke-opacity="0.749019607843" d="M35.55 22.3 L39.35 30.75 Q41.1 34.5 37.2 35.7 L20.45 41.1 Q16.8 42.25 15.2 39.0 L15.0 38.6 M8.25 23.65 L3.35 12.8 Q1.65 9.1 5.5 7.85 L16.95 4.25 29.75 9.2 31.5 13.2"/><path fill="none" stroke="#000000" stroke-width="0.5" stroke-opacity="0.301960784314" d="M4.6 20.9 L0.7 12.25 Q-0.45 9.75 0.75 8.25 1.2 7.6 2.15 7.15 2.8 6.7 3.8 6.35 L17.5 1.95 M30.2 7.0 L41.35 31.7 Q42.95 35.15 40.2 36.7 39.5 37.3 38.3 37.65 L23.3 42.5 20.1 43.55 19.8 43.65 Q17.15 44.45 15.5 43.3 14.35 42.55 13.65 40.9 L4.6 20.9 M5.45 20.95 L1.35 11.8 Q0.4 9.65 1.1 8.3 1.45 7.65 2.15 7.15 M19.1 43.5 L17.3 43.4 Q15.3 42.9 14.2 40.5 L5.45 20.95 M23.2 42.3 L20.4 43.2 19.1 43.5 M40.2 36.7 L38.9 37.25 23.2 42.3"/><path fill="none" stroke="#f0b92b" stroke-width="0.5" d="M27.75 10.95 L35.8 29.0 35.95 29.35 Q34.75 29.3 34.1 30.1 33.45 30.9 33.7 32.1 L34.0 32.9 20.65 37.2 Q18.8 37.8 17.65 37.0 16.8 36.4 16.3 35.2 L6.95 14.6 6.8 14.4 7.1 14.4 Q8.4 14.45 9.15 13.6 9.8 12.8 9.55 11.6 L9.1 10.55 18.5 7.45"/><path fill="none" stroke="#ffcc00" stroke-width="0.5" stroke-opacity="0.749019607843" d="M18.5 7.45 L27.75 10.95"/></g><g id="c3"><path fill="#7fdbfe" stroke="none" d="M10.75 4.9 Q10.75 4.6 10.9 4.35 11.25 3.45 11.95 2.75 13.3 1.5 14.35 2.1 15.4 2.7 14.95 4.45 14.7 5.4 14.1 6.15 L13.75 6.5 Q13.1 7.15 12.35 7.35 L11.4 7.2 Q10.95 6.9 10.75 6.4 10.5 5.75 10.75 4.9 M7.5 5.9 Q7.0 5.85 6.6 5.5 6.05 5.0 5.8 4.15 L5.7 3.6 Q5.55 2.65 5.8 1.7 6.25 0.0 7.5 0.0 L7.6 0.0 Q8.85 0.0 9.3 1.7 9.55 2.65 9.4 3.6 L9.3 4.15 8.5 5.5 7.6 5.9 7.5 5.9 M4.35 4.9 Q4.6 5.75 4.35 6.4 L3.7 7.2 2.75 7.35 Q2.0 7.15 1.35 6.5 L1.0 6.15 Q0.4 5.4 0.15 4.45 -0.3 2.7 0.75 2.1 1.8 1.5 3.15 2.75 3.85 3.45 4.2 4.35 L4.35 4.9 M5.5 13.7 Q4.45 13.9 3.65 12.95 2.75 12.0 3.2 10.25 3.7 8.5 5.25 7.6 6.4 6.9 7.55 7.0 8.75 6.9 9.9 7.6 11.45 8.5 11.95 10.25 12.35 12.0 11.5 12.95 10.7 13.9 9.65 13.7 8.55 13.5 7.55 12.6 6.55 13.5 5.5 13.7"/></g><g id="c4"><g><use transform="matrix(1.0,0.0,0.0,1.0,0.0,0.0)" xlink:href="#c3"/></g></g><radialGradient gradientUnits="userSpaceOnUse" r="819.2" cx="0" cy="0" spreadMethod="pad" gradientTransform="matrix(0.0914459228516,0.0,0.0,0.0914459228516,0.6,3.4)" id="gradient1"><stop offset="0.0" stop-color="#ffffff"/><stop offset="1.0" stop-color="#ffffff" stop-opacity="0.0"/></radialGradient><g id="c5"><path stroke="none" fill="url(#gradient1)" d="M36.65 -54.65 Q60.05 -42.0 69.75 -17.95 80.55 8.9 68.0 34.1 55.45 59.35 26.8 68.2 -1.8 77.05 -29.7 64.3 -57.6 51.6 -68.45 24.75 -79.3 -2.05 -66.75 -27.25 L-66.7 -27.3 Q-54.1 -52.5 -25.5 -61.4 3.1 -70.2 31.0 -57.5 L36.65 -54.65"/></g><g id="c6"><g><use transform="matrix(1.0,0.0,0.0,1.0,0.0,0.0)" xlink:href="#c5"/></g></g><radialGradient gradientUnits="userSpaceOnUse" r="819.2" cx="0" cy="0" spreadMethod="pad" gradientTransform="matrix(0.209197998047,0.0,0.0,0.177108764648,67.15,107.2)" id="gradient2"><stop offset="0.356862745098" stop-color="#ffffff"/><stop offset="0.670588235294" stop-opacity="0.0"/></radialGradient><g id="c7"><path fill="none" stroke-linejoin="round" stroke-linecap="round" stroke="url(#gradient2)" stroke-width="0.5" d="M136.55 165.8 L68.6 106.0 68.4 106.0 118.25 201.5 M68.3 105.8 L68.35 105.8 68.3 105.8 68.3 105.85 68.4 106.0 68.3 106.0 86.55 211.5 M68.3 105.8 L68.3 105.85 68.3 106.0 68.15 105.95 18.25 151.55 M68.3 105.85 L68.25 105.85 68.3 106.0 50.0 193.2 M68.25 105.85 L68.15 105.95 0.05 97.7 M68.3 105.85 L68.25 105.8 68.25 105.85 M68.25 105.8 L68.2 105.7 0.0 45.7 M68.3 105.8 L68.25 105.75 68.25 105.8 M68.25 105.75 L68.2 105.7 18.25 10.05 M68.6 106.0 L68.35 105.8 118.25 60.15 M86.6 18.35 L68.3 105.8 M136.6 114.25 L68.6 106.0 M68.25 105.75 L49.95 0.05"/></g><g id="c8"><g><use transform="matrix(1.0,0.0,0.0,1.0,0.0,0.0)" xlink:href="#c7"/></g></g><g id="c9"><g><use transform="matrix(1.0,0.0,0.0,1.0,0.0,0.0)" xlink:href="#c2"/></g><g><use transform="matrix(0.238861083984,-0.0867004394531,0.10026550293,0.233917236328,34.25,31.15)" xlink:href="#c4"/></g><g><use transform="matrix(0.238861083984,-0.0867004394531,0.10026550293,0.233917236328,4.25,10.3)" xlink:href="#c4"/></g><g><use transform="matrix(0.141098022461,-0.0378112792969,0.111373901367,0.225646972656,20.25,20.65)" filter="url(#filter7)" xlink:href="#c6"/></g><g><use transform="matrix(-0.155029296875,0.0513153076172,0.0841827392578,0.147033691406,22.6,3.15)" filter="url(#filter8)" xlink:href="#c8"/></g></g><filter id="filter7"><feColorMatrix in="SourceGraphic" type="matrix" values="0.0 0.0 0.0 0.0 0.796875 0.0 0.0 0.0 0.0 0.59765625 0.0 0.0 0.0 0.0 0.19921875 0.0 0.0 0.0 1.0 0.0" result="cxform"/><feComposite operator="in" in2="SourceGraphic" result="color-xform"/></filter><filter id="filter8"><feColorMatrix in="SourceGraphic" type="matrix" values="0.0 0.0 0.0 0.0 0.99609375 0.0 0.0 0.0 0.0 0.99609375 0.0 0.0 0.0 0.0 0.99609375 0.0 0.0 0.0 1.0 0.0" result="cxform"/><feComposite operator="in" in2="SourceGraphic" result="color-xform"/></filter><linearGradient gradientUnits="userSpaceOnUse" x1="-819.2" x2="819.2" spreadMethod="pad" gradientTransform="matrix(0.00520324707031,-0.00245666503906,0.00102233886719,0.00216674804688,23.15,72.8)" id="gradient3"><stop offset="0.0" stop-color="#3c5353"/><stop offset="0.988235294118" stop-color="#243c3c"/></linearGradient><linearGradient gradientUnits="userSpaceOnUse" x1="-819.2" x2="819.2" spreadMethod="pad" gradientTransform="matrix(0.00703430175781,0.00563049316406,-0.00633239746094,0.00790405273438,28.35,77.45)" id="gradient4"><stop offset="0.0" stop-color="#db0202"/><stop offset="1.0" stop-color="#7d0000"/></linearGradient><g id="c10"><path fill="#444444" stroke="none" d="M31.8 70.0 L31.9 69.9 32.1 70.05 31.8 70.0"/><path stroke="none" fill="url(#gradient3)" d="M31.8 70.0 L31.85 69.9 31.9 69.9 31.8 70.0"/><path stroke="none" fill="url(#gradient4)" d="M25.65 73.65 L27.45 73.05 29.0 72.0 30.25 70.4 Q31.0 69.95 31.8 70.0 L32.1 70.05 Q33.3 70.6 34.2 71.45 33.3 70.6 32.1 70.05 33.85 70.7 34.2 71.45 34.65 72.3 33.9 73.45 33.1 74.6 31.6 75.05 L31.1 74.5 Q30.9 74.35 30.65 74.3 L30.6 74.3 Q28.8 73.85 27.0 74.75 L26.3 75.1 25.65 73.65 M34.9 81.1 Q33.65 83.1 31.35 84.15 L29.9 84.7 Q31.0 82.35 29.15 80.45 L29.6 80.25 30.5 79.65 31.75 78.15 Q34.4 78.3 34.9 81.1 M23.05 83.75 Q21.3 82.65 20.4 80.7 19.7 79.25 19.65 77.8 L20.3 78.05 20.35 79.1 Q20.8 80.65 22.2 81.45 21.3 79.9 21.0 78.6 L21.0 78.35 Q22.05 78.7 24.2 77.95 L24.45 78.95 Q24.85 79.8 25.7 80.3 26.05 83.5 23.05 83.75"/><path fill="#fd2424" stroke="none" d="M31.85 69.9 L31.8 70.0 Q31.0 69.95 30.25 70.4 L29.0 72.0 27.45 73.05 25.65 73.65 Q24.9 71.35 22.75 71.15 23.55 70.45 24.6 70.0 L24.75 69.95 Q25.75 69.45 26.75 69.3 L30.5 69.4 30.95 69.55 31.85 69.9 M21.0 78.35 L21.0 78.6 Q21.3 79.9 22.2 81.45 20.8 80.65 20.35 79.1 L20.3 78.05 21.0 78.35"/><path fill="#b7b7b7" stroke="none" d="M31.6 75.05 Q33.1 74.6 33.9 73.45 34.65 72.3 34.2 71.45 L35.55 73.45 35.6 73.55 Q35.3 76.55 31.95 75.8 L31.8 75.45 31.6 75.05 M36.05 74.7 Q36.65 77.05 35.75 79.55 L34.9 81.1 Q34.4 78.3 31.75 78.15 L32.1 76.5 Q35.5 77.5 36.05 74.7"/><path fill="#3d91b3" stroke="none" d="M35.6 73.55 L36.05 74.7 Q35.5 77.5 32.1 76.5 L31.95 75.8 Q35.3 76.55 35.6 73.55"/><path fill="#e6e6e6" stroke="none" d="M22.75 71.15 Q24.9 71.35 25.65 73.65 L22.7 74.35 22.65 74.3 Q21.55 73.35 21.4 72.55 L22.75 71.15 M19.75 76.5 Q19.85 75.6 20.25 74.6 L20.85 73.35 Q20.9 73.8 21.6 74.7 20.85 75.05 19.75 76.5 M21.0 78.35 L20.3 78.05 Q20.4 77.05 21.3 76.15 20.85 77.2 21.0 78.35"/><path fill="#7dd4f0" stroke="none" d="M20.85 73.35 L21.4 72.55 Q21.55 73.35 22.65 74.3 L21.6 74.7 Q20.9 73.8 20.85 73.35"/><path fill="#78c1d3" stroke="none" d="M21.6 74.7 L22.65 74.3 22.7 74.35 Q23.5 75.05 25.55 75.7 L24.9 76.4 Q22.55 75.55 21.6 74.7"/><path fill="#c4c4c4" stroke="none" d="M19.65 77.8 L19.75 76.5 Q20.85 75.05 21.6 74.7 22.55 75.55 24.9 76.4 L24.45 77.2 Q24.25 77.55 24.2 77.95 22.05 78.7 21.0 78.35 20.85 77.2 21.3 76.15 20.4 77.05 20.3 78.05 L19.65 77.8 M22.7 74.35 L25.65 73.65 26.3 75.1 Q25.9 75.35 25.55 75.7 23.5 75.05 22.7 74.35"/><path fill="#999999" stroke="none" d="M29.9 84.7 L27.4 85.05 Q28.6 82.95 27.9 80.75 L29.15 80.45 Q31.0 82.35 29.9 84.7 M26.5 84.95 L25.0 84.65 Q23.95 84.3 23.05 83.75 26.05 83.5 25.7 80.3 L26.5 80.65 27.25 80.75 Q27.85 82.75 26.5 84.95"/><path fill="#3682a1" stroke="none" d="M27.4 85.05 L26.5 84.95 Q27.85 82.75 27.25 80.75 L27.9 80.75 Q28.6 82.95 27.4 85.05"/><path fill="none" stroke="#000000" stroke-width="0.5" stroke-opacity="0.301960784314" d="M31.9 69.9 L31.85 69.9 30.95 69.55 30.5 69.4 26.75 69.3 Q25.75 69.45 24.75 69.95 L24.6 70.0 Q23.55 70.45 22.75 71.15 M32.1 70.05 L31.9 69.9 M34.2 71.45 Q33.3 70.6 32.1 70.05 M34.2 71.45 L35.55 73.45 35.6 73.55 36.05 74.7 Q36.65 77.05 35.75 79.55 L34.9 81.1 Q33.65 83.1 31.35 84.15 L29.9 84.7 27.4 85.05 26.5 84.95 25.0 84.65 Q23.95 84.3 23.05 83.75 21.3 82.65 20.4 80.7 19.7 79.25 19.65 77.8 L19.75 76.5 Q19.85 75.6 20.25 74.6 L20.85 73.35 21.4 72.55 22.75 71.15"/><path fill="#eae3d9" stroke="none" d="M31.1 74.4 Q32.5 74.95 33.1 76.25 33.7 77.45 33.3 78.8 L32.15 78.7 32.9 79.75 31.9 81.0 Q32.05 79.85 30.55 79.65 31.4 79.0 31.8 78.05 32.45 76.7 31.85 75.35 L31.1 74.4"/><path fill="#71684a" stroke="none" d="M27.15 82.4 L26.9 82.35 Q25.15 81.9 24.45 80.4 23.85 79.2 24.2 77.9 L24.45 78.9 24.5 79.0 25.2 79.85 Q25.2 80.7 27.15 82.4"/><path fill="#8e8566" stroke="none" d="M33.3 78.8 L33.9 79.9 32.9 79.75 32.15 78.7 33.3 78.8 M29.85 82.2 L27.15 82.4 Q25.2 80.7 25.2 79.85 25.75 80.35 26.55 80.55 L27.45 80.65 Q28.05 81.9 29.85 82.2"/><path fill="#aaa080" stroke="none" d="M31.9 81.0 L30.5 81.95 29.85 82.2 Q28.05 81.9 27.45 80.65 L29.65 80.25 30.55 79.65 Q32.05 79.85 31.9 81.0"/><path fill="none" stroke="#000000" stroke-width="0.5" stroke-opacity="0.2" d="M24.2 77.9 L24.45 77.2 Q25.25 75.55 27.05 74.6 28.85 73.8 30.6 74.25 L31.1 74.4 M24.2 77.9 L24.45 78.9 24.5 79.0 25.2 79.85 Q25.75 80.35 26.55 80.55 L27.45 80.65 29.65 80.25 30.55 79.65 Q31.4 79.0 31.8 78.05 32.45 76.7 31.85 75.35 L31.1 74.4"/><path fill="#fbf3d9" fill-opacity="0.23137254902" d="M22.8 73.1 L22.45 73.7 21.85 74.1 21.35 73.95 Q21.1 73.75 21.15 73.45 L21.55 72.8 22.15 72.45 22.7 72.55 22.8 73.1"/><path fill="#fbf3d9" fill-opacity="0.823529411765" d="M22.75 74.4 L23.05 74.3 23.3 74.35 23.45 74.65 23.3 74.9 23.0 75.1 22.7 74.9 22.65 74.7 22.75 74.4"/><path fill="#fbf3d9" fill-opacity="0.501960784314" d="M20.15 76.4 Q20.2 75.9 20.55 75.45 21.0 75.1 21.45 75.05 22.0 75.0 22.3 75.3 22.65 75.65 22.65 76.2 22.65 76.75 22.2 77.15 21.85 77.55 21.35 77.6 20.8 77.7 20.45 77.3 20.1 76.95 20.15 76.4"/><path fill="#e2dccb" stroke="none" d="M32.75 68.55 L35.15 70.15 35.25 70.5 35.05 71.6 33.8 70.85 32.45 72.75 31.9 73.0 32.1 71.1 30.95 73.3 30.25 73.55 Q29.4 74.0 28.6 73.55 L27.25 70.7 Q27.55 72.0 26.75 74.0 26.0 74.6 25.2 74.45 L24.45 73.65 23.65 71.6 21.7 72.6 20.85 72.6 20.55 72.2 20.65 71.75 21.3 71.75 24.05 70.3 Q24.85 70.15 25.9 69.6 27.9 68.8 28.15 68.0 28.25 67.55 27.85 67.1 L29.6 66.75 Q29.15 67.3 29.95 67.75 L30.7 68.0 32.35 68.5 32.75 68.55 M29.15 70.7 L29.5 70.95 29.85 70.45 30.8 70.7 Q30.9 69.8 30.2 68.95 L29.8 68.45 29.05 68.45 Q29.25 69.5 28.75 70.55 L29.15 70.7"/><path fill="#ffffff" stroke="none" d="M32.75 68.55 L33.15 68.45 Q34.25 68.35 33.6 67.75 L34.8 68.8 35.15 70.15 32.75 68.55 M25.8 66.55 L26.9 66.15 Q28.85 65.85 30.55 66.2 L29.6 66.75 27.85 67.1 26.7 66.75 26.35 66.7 25.8 66.55 M24.05 70.3 L21.3 71.75 20.65 71.75 21.05 69.6 Q21.9 68.6 23.1 67.9 21.4 69.6 22.65 70.15 L23.45 70.3 24.05 70.3"/><path fill="#7c6c38" stroke="none" d="M33.6 67.75 Q34.25 68.35 33.15 68.45 L32.75 68.55 32.35 68.5 30.7 68.0 Q30.35 67.3 31.35 67.1 L33.3 68.0 33.6 67.75 M26.35 66.7 L26.7 66.75 28.15 68.0 Q27.9 68.8 25.9 69.6 24.85 70.15 24.05 70.3 L23.45 70.3 Q22.4 69.0 25.75 67.3 L26.35 66.7 M29.15 70.7 L30.2 68.95 Q30.9 69.8 30.8 70.7 L29.85 70.45 29.5 70.95 29.15 70.7"/><path fill="#c2ac78" stroke="none" d="M26.7 66.75 L27.85 67.1 Q28.25 67.55 28.15 68.0 L26.7 66.75"/><path fill="#534226" stroke="none" d="M31.35 67.1 Q30.35 67.3 30.7 68.0 L29.95 67.75 Q29.15 67.3 29.6 66.75 L30.55 66.2 30.55 66.7 31.35 67.1 M25.8 66.55 L26.35 66.7 25.75 67.3 Q22.4 69.0 23.45 70.3 L22.65 70.15 Q21.4 69.6 23.1 67.9 L23.55 68.15 25.55 67.0 25.8 66.55 M30.2 68.95 L29.15 70.7 28.75 70.55 Q29.25 69.5 29.05 68.45 L29.8 68.45 30.2 68.95"/><path fill="#a09176" stroke="none" d="M20.85 72.6 L21.7 72.6 23.65 71.6 24.45 73.65 23.65 72.8 21.45 73.55 20.85 72.6 M26.75 74.0 Q27.55 72.0 27.25 70.7 L28.6 73.55 27.7 73.0 26.75 74.0 M30.95 73.3 L32.1 71.1 31.9 73.0 32.45 72.75 33.8 70.85 35.05 71.6 35.25 70.5 35.7 72.2 35.25 72.85 35.15 73.0 34.8 72.75 33.75 71.65 32.8 73.75 31.75 73.9 30.95 73.3"/><path fill="#000000" fill-opacity="0.2" d="M35.7 72.2 L35.85 75.3 35.25 72.85 35.7 72.2 M34.8 72.75 L33.9 73.15 33.35 73.7 32.8 73.75 33.75 71.65 34.8 72.75 M21.45 73.55 L23.65 72.8 24.45 73.65 21.45 73.55"/><path fill="none" stroke="#000000" stroke-width="0.5" stroke-opacity="0.301960784314" d="M35.15 70.15 L34.8 68.8 33.6 67.75 33.3 68.0 31.35 67.1 M35.25 70.5 L35.15 70.15 M30.55 66.2 Q28.85 65.85 26.9 66.15 L25.8 66.55 25.55 67.0 23.55 68.15 23.1 67.9 Q21.9 68.6 21.05 69.6 L20.65 71.75 20.55 72.2 20.85 72.6 M30.55 66.2 L30.55 66.7 31.35 67.1 M24.45 73.65 L25.2 74.45 Q26.0 74.6 26.75 74.0 L27.7 73.0 28.6 73.55 Q29.4 74.0 30.25 73.55 L30.95 73.3 M35.25 70.5 L35.7 72.2 M35.25 72.85 L35.15 73.0 34.8 72.75 M33.35 73.7 L32.8 73.75 31.75 73.9 30.95 73.3 M35.25 72.85 L35.7 72.2 M32.8 73.75 L33.75 71.65 34.8 72.75 M21.45 73.55 L23.65 72.8 24.45 73.65 M21.45 73.55 L20.85 72.6"/><path fill="#fcf3d8" fill-opacity="0.301960784314" d="M23.05 70.6 L22.4 71.3 21.6 71.15 21.2 70.65 20.2 70.5 21.05 69.8 21.25 69.2 Q21.45 68.65 21.9 68.5 L22.6 68.6 22.65 68.65 23.05 68.3 22.9 68.85 23.15 69.5 23.15 70.2 23.8 70.95 23.05 70.6 M22.3 70.5 L22.65 70.15 22.65 69.6 22.45 69.15 22.05 69.15 Q21.8 69.2 21.7 69.4 L21.7 69.95 21.9 70.4 22.3 70.5"/><path fill="#fcf3d8" stroke="none" d="M22.3 70.5 L21.9 70.4 21.7 69.95 21.7 69.4 Q21.8 69.2 22.05 69.15 L22.45 69.15 22.65 69.6 22.65 70.15 22.3 70.5"/><path fill="#fcf3d8" stroke="none" d="M21.9 69.9 L21.25 71.95 22.1 70.1 23.3 70.2 22.35 69.6 23.35 66.4 22.0 69.4 18.1 68.15 21.9 69.9"/></g><g id="c11"><g><use transform="matrix(1.0,0.0,0.0,1.0,6.3,53.35)" xlink:href="#c9"/></g><g><use transform="matrix(1.0,0.0,0.0,1.0,0.0,0.0)" xlink:href="#c10"/></g><g><use transform="matrix(0.141098022461,-0.0378112792969,0.111373901367,0.225646972656,27.2,74.05)" filter="url(#filter11)" xlink:href="#c6"/></g></g><filter id="filter11"><feColorMatrix in="SourceGraphic" type="matrix" values="1.0 0.0 0.0 0.0 0.0 0.0 1.0 0.0 0.0 0.0 0.0 0.0 1.0 0.0 0.0 0.0 0.0 0.0 0.23046875 0.0" result="cxform"/><feComposite operator="in" in2="SourceGraphic" result="color-xform"/></filter></defs><g><g><use transform="matrix(1.0,0.0,0.0,1.0,0.0,0.0)" xlink:href="#c1"/></g><g><use transform="matrix(1.15496826172,0.0,0.0,1.15496826172,-1.55,-56.9)" xlink:href="#c11"/></g></g></svg>