<?xml version='1.0' encoding='UTF-8'?>
<svg xmlns:xlink="http://www.w3.org/1999/xlink" xmlns="http://www.w3.org/2000/svg" version="1.1" width="60px" height="60px" viewBox="0.0 0.0 60.0 60.0"><defs><g id="c1"><path fill="#000000" fill-opacity="0.00392156862745" d="M0.0 0.0 L60.0 0.0 60.0 60.0 0.0 60.0 0.0 0.0"/></g><g id="c2"><path fill="none" stroke="#000000" stroke-width="1.0" stroke-opacity="0.301960784314" d="M0.7 12.25 Q-0.45 9.75 0.75 8.25 1.2 7.6 2.15 7.15 2.8 6.7 3.8 6.35 L17.5 1.95 30.2 7.0 41.35 31.7 Q42.95 35.15 40.2 36.7 39.5 37.3 38.3 37.65 L19.8 43.65 Q17.15 44.45 15.5 43.3 14.35 42.55 13.65 40.9 L0.7 12.25"/><path fill="#9d147b" stroke="none" d="M35.55 22.3 L31.5 13.2 29.75 9.2 16.95 4.25 5.5 7.85 Q1.65 9.1 3.35 12.8 L8.25 23.65 15.0 38.6 15.2 39.0 Q16.8 42.25 20.45 41.1 L37.2 35.7 Q41.1 34.5 39.35 30.75 L35.55 22.3 M2.15 7.15 Q2.8 6.7 3.8 6.35 L17.5 1.95 30.2 7.0 41.35 31.7 Q42.95 35.15 40.2 36.7 L38.9 37.25 23.2 42.3 20.4 43.2 19.1 43.5 17.3 43.4 Q15.3 42.9 14.2 40.5 L5.45 20.95 1.35 11.8 Q0.4 9.65 1.1 8.3 1.45 7.65 2.15 7.15"/><path fill="#c47fad" stroke="none" d="M31.5 13.2 L35.55 22.3 39.35 30.75 Q41.1 34.5 37.2 35.7 L20.45 41.1 Q16.8 42.25 15.2 39.0 L15.0 38.6 8.25 23.65 3.35 12.8 Q1.65 9.1 5.5 7.85 L16.95 4.25 29.75 9.2 31.5 13.2 M18.5 7.45 L9.1 10.55 9.55 11.6 Q9.8 12.8 9.15 13.6 8.4 14.45 7.1 14.4 L6.8 14.4 6.95 14.6 16.3 35.2 Q16.8 36.4 17.65 37.0 18.8 37.8 20.65 37.2 L34.0 32.9 33.7 32.1 Q33.45 30.9 34.1 30.1 34.75 29.3 35.95 29.35 L35.8 29.0 27.75 10.95 18.5 7.45"/><path fill="#630a4c" stroke="none" d="M0.75 8.25 Q1.2 7.6 2.15 7.15 1.45 7.65 1.1 8.3 L0.75 8.25 M23.3 42.5 L20.1 43.55 19.1 43.5 20.4 43.2 23.2 42.3 23.3 42.5 M15.5 43.3 Q14.35 42.55 13.65 40.9 L4.6 20.9 5.45 20.95 14.2 40.5 Q15.3 42.9 17.3 43.4 L15.5 43.3"/><path fill="#300525" stroke="none" d="M4.6 20.9 L0.7 12.25 Q-0.45 9.75 0.75 8.25 L1.1 8.3 Q0.4 9.65 1.35 11.8 L5.45 20.95 4.6 20.9 M40.2 36.7 Q39.5 37.3 38.3 37.65 L23.3 42.5 23.2 42.3 38.9 37.25 40.2 36.7 M20.1 43.55 L19.8 43.65 Q17.15 44.45 15.5 43.3 L17.3 43.4 19.1 43.5 20.1 43.55"/><path fill="#fcf2cf" stroke="none" d="M27.75 10.95 L35.8 29.0 35.95 29.35 Q34.75 29.3 34.1 30.1 33.45 30.9 33.7 32.1 L34.0 32.9 20.65 37.2 Q18.8 37.8 17.65 37.0 16.8 36.4 16.3 35.2 L6.95 14.6 6.8 14.4 7.1 14.4 Q8.4 14.45 9.15 13.6 9.8 12.8 9.55 11.6 L9.1 10.55 18.5 7.45 27.75 10.95"/><path fill="none" stroke="#bf9900" stroke-width="1.0" stroke-opacity="0.749019607843" d="M31.5 13.2 L35.55 22.3 M15.0 38.6 L8.25 23.65"/><path fill="none" stroke="#ffcc00" stroke-width="1.0" stroke-opacity="0.749019607843" d="M35.55 22.3 L39.35 30.75 Q41.1 34.5 37.2 35.7 L20.45 41.1 Q16.8 42.25 15.2 39.0 L15.0 38.6 M8.25 23.65 L3.35 12.8 Q1.65 9.1 5.5 7.85 L16.95 4.25 29.75 9.2 31.5 13.2"/><path fill="none" stroke="#000000" stroke-width="0.5" stroke-opacity="0.301960784314" d="M4.6 20.9 L0.7 12.25 Q-0.45 9.75 0.75 8.25 1.2 7.6 2.15 7.15 2.8 6.7 3.8 6.35 L17.5 1.95 M30.2 7.0 L41.35 31.7 Q42.95 35.15 40.2 36.7 39.5 37.3 38.3 37.65 L23.3 42.5 20.1 43.55 19.8 43.65 Q17.15 44.45 15.5 43.3 14.35 42.55 13.65 40.9 L4.6 20.9 M5.45 20.95 L1.35 11.8 Q0.4 9.65 1.1 8.3 1.45 7.65 2.15 7.15 M19.1 43.5 L17.3 43.4 Q15.3 42.9 14.2 40.5 L5.45 20.95 M23.2 42.3 L20.4 43.2 19.1 43.5 M40.2 36.7 L38.9 37.25 23.2 42.3"/><path fill="none" stroke="#f0b92b" stroke-width="0.5" d="M27.75 10.95 L35.8 29.0 35.95 29.35 Q34.75 29.3 34.1 30.1 33.45 30.9 33.7 32.1 L34.0 32.9 20.65 37.2 Q18.8 37.8 17.65 37.0 16.8 36.4 16.3 35.2 L6.95 14.6 6.8 14.4 7.1 14.4 Q8.4 14.45 9.15 13.6 9.8 12.8 9.55 11.6 L9.1 10.55 18.5 7.45"/><path fill="none" stroke="#ffcc00" stroke-width="0.5" stroke-opacity="0.749019607843" d="M18.5 7.45 L27.75 10.95"/></g><g id="c3"><path fill="#7fdbfe" stroke="none" d="M10.75 4.9 Q10.75 4.6 10.9 4.35 11.25 3.45 11.95 2.75 13.3 1.5 14.35 2.1 15.4 2.7 14.95 4.45 14.7 5.4 14.1 6.15 L13.75 6.5 Q13.1 7.15 12.35 7.35 L11.4 7.2 Q10.95 6.9 10.75 6.4 10.5 5.75 10.75 4.9 M7.5 5.9 Q7.0 5.85 6.6 5.5 6.05 5.0 5.8 4.15 L5.7 3.6 Q5.55 2.65 5.8 1.7 6.25 0.0 7.5 0.0 L7.6 0.0 Q8.85 0.0 9.3 1.7 9.55 2.65 9.4 3.6 L9.3 4.15 8.5 5.5 7.6 5.9 7.5 5.9 M4.35 4.9 Q4.6 5.75 4.35 6.4 L3.7 7.2 2.75 7.35 Q2.0 7.15 1.35 6.5 L1.0 6.15 Q0.4 5.4 0.15 4.45 -0.3 2.7 0.75 2.1 1.8 1.5 3.15 2.75 3.85 3.45 4.2 4.35 L4.35 4.9 M5.5 13.7 Q4.45 13.9 3.65 12.95 2.75 12.0 3.2 10.25 3.7 8.5 5.25 7.6 6.4 6.9 7.55 7.0 8.75 6.9 9.9 7.6 11.45 8.5 11.95 10.25 12.35 12.0 11.5 12.95 10.7 13.9 9.65 13.7 8.55 13.5 7.55 12.6 6.55 13.5 5.5 13.7"/></g><g id="c4"><g><use transform="matrix(1.0,0.0,0.0,1.0,0.0,0.0)" xlink:href="#c3"/></g></g><radialGradient gradientUnits="userSpaceOnUse" r="819.2" cx="0" cy="0" spreadMethod="pad" gradientTransform="matrix(0.0914459228516,0.0,0.0,0.0914459228516,0.6,3.4)" id="gradient1"><stop offset="0.0" stop-color="#ffffff"/><stop offset="1.0" stop-color="#ffffff" stop-opacity="0.0"/></radialGradient><g id="c5"><path stroke="none" fill="url(#gradient1)" d="M36.65 -54.65 Q60.05 -42.0 69.75 -17.95 80.55 8.9 68.0 34.1 55.45 59.35 26.8 68.2 -1.8 77.05 -29.7 64.3 -57.6 51.6 -68.45 24.75 -79.3 -2.05 -66.75 -27.25 L-66.7 -27.3 Q-54.1 -52.5 -25.5 -61.4 3.1 -70.2 31.0 -57.5 L36.65 -54.65"/></g><g id="c6"><g><use transform="matrix(1.0,0.0,0.0,1.0,0.0,0.0)" xlink:href="#c5"/></g></g><radialGradient gradientUnits="userSpaceOnUse" r="819.2" cx="0" cy="0" spreadMethod="pad" gradientTransform="matrix(0.209197998047,0.0,0.0,0.177108764648,67.15,107.2)" id="gradient2"><stop offset="0.356862745098" stop-color="#ffffff"/><stop offset="0.670588235294" stop-opacity="0.0"/></radialGradient><g id="c7"><path fill="none" stroke-linejoin="round" stroke-linecap="round" stroke="url(#gradient2)" stroke-width="0.5" d="M136.55 165.8 L68.6 106.0 68.4 106.0 118.25 201.5 M68.3 105.8 L68.35 105.8 68.3 105.8 68.3 105.85 68.4 106.0 68.3 106.0 86.55 211.5 M68.3 105.8 L68.3 105.85 68.3 106.0 68.15 105.95 18.25 151.55 M68.3 105.85 L68.25 105.85 68.3 106.0 50.0 193.2 M68.25 105.85 L68.15 105.95 0.05 97.7 M68.3 105.85 L68.25 105.8 68.25 105.85 M68.25 105.8 L68.2 105.7 0.0 45.7 M68.3 105.8 L68.25 105.75 68.25 105.8 M68.25 105.75 L68.2 105.7 18.25 10.05 M68.6 106.0 L68.35 105.8 118.25 60.15 M86.6 18.35 L68.3 105.8 M136.6 114.25 L68.6 106.0 M68.25 105.75 L49.95 0.05"/></g><g id="c8"><g><use transform="matrix(1.0,0.0,0.0,1.0,0.0,0.0)" xlink:href="#c7"/></g></g><g id="c9"><g><use transform="matrix(1.0,0.0,0.0,1.0,0.0,0.0)" xlink:href="#c2"/></g><g><use transform="matrix(0.238861083984,-0.0867004394531,0.10026550293,0.233917236328,34.25,31.15)" xlink:href="#c4"/></g><g><use transform="matrix(0.238861083984,-0.0867004394531,0.10026550293,0.233917236328,4.25,10.3)" xlink:href="#c4"/></g><g><use transform="matrix(0.141098022461,-0.0378112792969,0.111373901367,0.225646972656,20.25,20.65)" filter="url(#filter7)" xlink:href="#c6"/></g><g><use transform="matrix(-0.155029296875,0.0513153076172,0.0841827392578,0.147033691406,22.6,3.15)" filter="url(#filter8)" xlink:href="#c8"/></g></g><filter id="filter7"><feColorMatrix in="SourceGraphic" type="matrix" values="0.0 0.0 0.0 0.0 0.796875 0.0 0.0 0.0 0.0 0.59765625 0.0 0.0 0.0 0.0 0.19921875 0.0 0.0 0.0 1.0 0.0" result="cxform"/><feComposite operator="in" in2="SourceGraphic" result="color-xform"/></filter><filter id="filter8"><feColorMatrix in="SourceGraphic" type="matrix" values="0.0 0.0 0.0 0.0 0.99609375 0.0 0.0 0.0 0.0 0.99609375 0.0 0.0 0.0 0.0 0.99609375 0.0 0.0 0.0 1.0 0.0" result="cxform"/><feComposite operator="in" in2="SourceGraphic" result="color-xform"/></filter><radialGradient gradientUnits="userSpaceOnUse" r="819.2" cx="0" cy="0" spreadMethod="pad" gradientTransform="matrix(0.0,-0.0156860351562,0.0346832275391,0.0,30.05,15.25)" id="gradient3"><stop offset="0.0" stop-color="#372a0e"/><stop offset="0.662745098039" stop-color="#372a0e"/><stop offset="1.0" stop-color="#382a0e" stop-opacity="0.0"/></radialGradient><g id="c10"><path stroke="none" fill="url(#gradient3)" d="M60.1 15.25 Q60.1 21.5 51.3 25.95 42.5 30.4 30.05 30.45 17.6 30.4 8.8 25.95 0.0 21.5 0.0 15.25 0.0 8.95 8.8 4.45 17.6 0.0 30.05 0.05 42.5 0.0 51.3 4.45 60.1 8.95 60.1 15.25"/></g><g id="c11"><g><use transform="matrix(1.0,0.0,0.0,1.0,0.0,0.0)" xlink:href="#c10"/></g></g><g id="c12"><path fill="#a1dde8" fill-opacity="0.6" d="M7.6 0.75 Q6.75 1.2 6.75 2.1 6.75 2.6 7.35 3.3 8.0 4.15 8.8 4.4 L11.4 4.9 Q13.55 5.3 15.05 6.1 16.5 6.85 17.25 8.3 18.0 9.75 18.0 12.6 18.0 15.45 16.4 18.2 15.2 20.25 13.75 21.05 11.6 22.4 8.75 22.3 6.25 22.25 4.65 21.05 L4.25 20.75 3.45 20.0 Q0.0 16.6 0.0 11.75 0.0 6.85 3.45 3.4 5.3 1.55 7.6 0.75"/><path fill="#476066" fill-opacity="0.6" d="M8.75 22.3 Q11.6 22.4 13.75 21.05 15.2 20.25 16.4 18.2 18.0 15.45 18.0 12.6 18.0 9.75 17.25 8.3 16.5 6.85 15.05 6.1 13.55 5.3 11.4 4.9 L8.8 4.4 Q8.0 4.15 7.35 3.3 6.75 2.6 6.75 2.1 6.75 1.2 7.6 0.75 L9.45 0.2 11.75 0.0 Q16.6 0.0 20.05 3.4 23.5 6.85 23.5 11.75 23.5 16.6 20.05 20.0 16.6 23.5 11.75 23.5 7.7 23.5 4.65 21.05 6.25 22.25 8.75 22.3"/><path fill="none" stroke="#000000" stroke-width="0.5" stroke-opacity="0.301960784314" d="M8.75 22.3 Q6.25 22.25 4.65 21.05 7.7 23.5 11.75 23.5 16.6 23.5 20.05 20.0 23.5 16.6 23.5 11.75 23.5 6.85 20.05 3.4 16.6 0.0 11.75 0.0 L9.45 0.2 7.6 0.75 Q5.3 1.55 3.45 3.4 0.0 6.85 0.0 11.75 0.0 16.6 3.45 20.0 L4.25 20.75 4.65 21.05"/><path fill="#476066" fill-opacity="0.6" d="M20.2 11.85 Q20.2 15.25 17.8 17.6 15.45 20.0 12.05 20.0 8.65 20.0 6.25 17.6 3.9 15.25 3.9 11.85 3.9 8.45 6.25 6.05 8.65 3.7 12.05 3.7 15.45 3.7 17.8 6.05 20.2 8.45 20.2 11.85"/><path fill="#878c51" fill-opacity="0.8" d="M3.4 9.6 L3.3 9.1 Q3.3 8.3 4.2 7.7 4.75 7.25 5.75 6.85 8.05 6.0 11.25 5.95 L11.65 5.95 Q15.1 5.95 17.55 6.85 19.2 7.5 19.75 8.3 L20.0 8.85 20.0 9.1 Q20.0 10.4 17.55 11.3 15.1 12.25 11.65 12.25 L11.25 12.25 8.0 11.95 5.75 11.3 Q3.75 10.55 3.4 9.6 M8.1 11.1 L9.6 10.8 10.25 10.2 9.6 9.55 8.1 9.3 6.55 9.55 Q5.95 9.85 5.95 10.2 5.95 10.55 6.55 10.8 L8.1 11.1 M13.75 9.6 L12.95 9.7 Q12.65 9.8 12.65 9.9 L12.95 10.1 13.75 10.2 14.5 10.1 14.85 9.9 14.5 9.7 13.75 9.6"/><path fill="#5e563c" fill-opacity="0.8" d="M12.3 20.6 L11.8 20.6 11.45 20.6 Q9.45 20.55 7.75 19.65 6.65 19.05 5.65 18.1 3.1 15.55 3.1 11.9 3.1 10.7 3.4 9.6 3.75 10.55 5.75 11.3 L8.0 11.95 Q7.6 16.1 11.25 19.65 L12.3 20.6"/><path fill="#423f2d" fill-opacity="0.8" d="M20.0 8.85 Q20.5 10.25 20.5 11.9 20.5 15.55 17.95 18.1 15.55 20.45 12.3 20.6 L11.25 19.65 Q7.6 16.1 8.0 11.95 L11.25 12.25 11.65 12.25 Q15.1 12.25 17.55 11.3 20.0 10.4 20.0 9.1 L20.0 8.85"/><path fill="#616038" fill-opacity="0.6" d="M13.75 9.6 L14.5 9.7 14.85 9.9 14.5 10.1 13.75 10.2 12.95 10.1 12.65 9.9 Q12.65 9.8 12.95 9.7 L13.75 9.6 M8.1 11.1 L6.55 10.8 Q5.95 10.55 5.95 10.2 5.95 9.85 6.55 9.55 L8.1 9.3 9.6 9.55 10.25 10.2 9.6 10.8 8.1 11.1"/><path fill="none" stroke="#000000" stroke-width="0.5" stroke-opacity="0.152941176471" d="M3.4 9.6 L3.3 9.1 Q3.3 8.3 4.2 7.7 4.75 7.25 5.75 6.85 8.05 6.0 11.25 5.95 L11.65 5.95 Q15.1 5.95 17.55 6.85 19.2 7.5 19.75 8.3 L20.0 8.85 M3.4 9.6 Q3.75 10.55 5.75 11.3 L8.0 11.95 11.25 12.25 11.65 12.25 Q15.1 12.25 17.55 11.3 20.0 10.4 20.0 9.1 L20.0 8.85"/><path fill="#e6f4f5" fill-opacity="0.8" d="M3.5 17.5 Q1.7 15.3 1.1 13.15 0.5 10.95 0.95 9.2 1.45 7.45 2.65 6.5 3.8 5.5 5.0 5.85 6.2 6.15 6.8 7.6 7.35 9.05 6.85 10.8 6.4 12.55 5.2 13.5 4.0 14.45 3.5 17.5"/></g><g id="c13"><path fill="#3d3424" fill-opacity="0.4" d="M10.05 11.3 L3.3 9.9 Q1.55 9.35 1.95 8.55 2.3 7.75 4.3 6.85 6.3 5.95 9.15 5.55 11.95 5.15 14.0 5.65 16.05 6.15 16.25 8.55 16.4 10.9 15.9 11.5 L10.05 11.3"/><path fill="#706243" stroke="none" d="M8.05 0.05 L9.25 0.15 10.65 0.55 10.95 0.65 Q11.8 1.0 12.55 1.5 14.5 2.85 14.7 4.75 13.75 2.85 11.8 2.5 L11.5 1.75 Q11.15 1.35 10.45 1.05 L8.05 0.55 8.05 0.05"/><path fill="#d1bb7d" stroke="none" d="M7.9 4.0 L9.6 3.55 10.0 3.4 10.4 3.1 10.6 2.5 10.4 1.95 Q10.15 1.65 9.6 1.45 L7.85 1.05 7.5 1.0 7.25 1.0 6.05 1.1 4.85 1.45 Q3.9 1.85 3.9 2.5 3.9 3.15 4.85 3.55 L6.05 3.9 7.25 4.0 7.5 4.0 7.9 4.0 M8.05 0.55 L10.45 1.05 Q11.15 1.35 11.5 1.75 L11.8 2.5 11.5 3.3 10.95 3.7 10.45 3.9 8.15 4.5 7.55 4.5 7.25 4.5 Q5.35 4.5 4.0 3.9 2.7 3.35 2.7 2.5 2.7 1.65 4.0 1.05 5.35 0.5 7.25 0.5 L7.55 0.5 8.05 0.55"/><path fill="#736745" stroke="none" d="M6.05 1.1 L7.25 1.0 7.5 1.0 7.85 1.05 9.6 1.45 Q10.15 1.65 10.4 1.95 L10.6 2.5 10.4 3.1 10.0 3.4 9.6 3.55 7.9 4.0 7.5 4.0 7.25 4.0 6.05 3.9 6.05 1.1"/><path fill="#877751" stroke="none" d="M13.1 8.4 L12.55 8.8 Q10.7 10.1 8.15 10.3 L7.35 10.3 Q4.4 10.3 2.3 8.9 10.35 8.0 8.15 4.5 L10.45 3.9 10.95 3.7 Q13.7 5.5 13.1 8.4 M10.45 3.9 Q10.3 4.05 10.5 4.0 L10.45 3.9"/><path fill="#786948" stroke="none" d="M14.7 4.75 L14.7 5.15 Q14.7 7.0 13.1 8.4 13.7 5.5 10.95 3.7 L11.5 3.3 11.8 2.5 Q13.75 2.85 14.7 4.75"/><path fill="#b3a06b" stroke="none" d="M8.15 4.5 Q10.35 8.0 2.3 8.9 L2.15 8.8 Q0.0 7.3 0.0 5.15 0.0 3.0 2.15 1.5 2.9 0.95 3.8 0.65 L3.85 0.6 3.9 0.6 7.2 0.0 7.35 0.0 7.6 0.0 8.05 0.05 8.05 0.55 7.55 0.5 7.25 0.5 Q5.35 0.5 4.0 1.05 2.7 1.65 2.7 2.5 2.7 3.35 4.0 3.9 5.35 4.5 7.25 4.5 L7.55 4.5 8.15 4.5"/><path fill="#63583b" stroke="none" d="M6.05 3.9 L4.85 3.55 Q3.9 3.15 3.9 2.5 3.9 1.85 4.85 1.45 L6.05 1.1 6.05 3.9"/><path fill="none" stroke="#000000" stroke-width="0.5" stroke-opacity="0.301960784314" d="M6.05 1.1 L7.25 1.0 7.5 1.0 7.85 1.05 9.6 1.45 Q10.15 1.65 10.4 1.95 L10.6 2.5 10.4 3.1 10.0 3.4 9.6 3.55 7.9 4.0 M7.5 4.0 L7.25 4.0 6.05 3.9 4.85 3.55 Q3.9 3.15 3.9 2.5 3.9 1.85 4.85 1.45 L6.05 1.1 6.05 3.9 M8.05 0.05 L9.25 0.15 10.65 0.55 10.95 0.65 Q11.8 1.0 12.55 1.5 14.5 2.85 14.7 4.75 L14.7 5.15 Q14.7 7.0 13.1 8.4 L12.55 8.8 Q10.7 10.1 8.15 10.3 L8.15 10.55 M8.05 0.55 L10.45 1.05 Q11.15 1.35 11.5 1.75 L11.8 2.5 Q13.75 2.85 14.7 4.75 M11.8 2.5 L11.5 3.3 10.95 3.7 Q13.7 5.5 13.1 8.4 M10.45 3.9 L8.15 4.5 M2.3 8.9 Q4.4 10.3 7.35 10.3 L8.15 10.3 M10.95 3.7 L10.45 3.9 M8.05 0.55 L8.05 0.05 7.6 0.0 7.35 0.0 7.2 0.0 3.9 0.6 M3.8 0.65 Q2.9 0.95 2.15 1.5 0.0 3.0 0.0 5.15 0.0 7.3 2.15 8.8 L2.3 8.9 M7.55 4.5 L7.25 4.5 Q5.35 4.5 4.0 3.9 2.7 3.35 2.7 2.5 2.7 1.65 4.0 1.05 5.35 0.5 7.25 0.5 L7.55 0.5 8.05 0.55"/><path fill="none" stroke="#000000" stroke-width="0.5" stroke-opacity="0.152941176471" d="M2.7 2.2 Q0.95 2.7 0.05 4.05 M3.25 3.4 Q0.95 4.9 1.2 8.2 M5.95 4.3 Q4.85 7.2 5.95 10.25"/></g><linearGradient gradientUnits="userSpaceOnUse" x1="-819.2" x2="819.2" spreadMethod="pad" gradientTransform="matrix(0.00909423828125,0.0,0.0,0.00379943847656,-3.4,-56.65)" id="gradient4"><stop offset="0.0" stop-color="#ccb87a"/><stop offset="0.337254901961" stop-color="#a39361"/><stop offset="0.580392156863" stop-color="#756746"/><stop offset="0.878431372549" stop-color="#756946"/><stop offset="1.0" stop-color="#a39361"/></linearGradient><linearGradient gradientUnits="userSpaceOnUse" x1="-819.2" x2="819.2" spreadMethod="pad" gradientTransform="matrix(-0.00141906738281,0.0,0.0,-0.00100708007812,-7.75,-59.65)" id="gradient5"><stop offset="0.0" stop-color="#a48c3f"/><stop offset="1.0" stop-color="#806d30"/></linearGradient><g id="c14"><path fill="#d9bf4f" stroke="none" d="M-8.25 -57.8 L-8.75 -58.0 -8.8 -58.05 -8.8 -58.1 -8.7 -58.05 -8.25 -57.8"/><path fill="#9b8c5c" stroke="none" d="M4.45 -59.9 L4.1 -59.0 3.9 -59.1 4.45 -59.9"/><path fill="#dbcb7a" stroke="none" d="M-11.15 -60.75 L-11.15 -60.9 Q-11.15 -62.55 -8.8 -63.7 -6.5 -64.9 -3.2 -64.9 0.05 -64.9 2.4 -63.7 4.7 -62.55 4.7 -60.9 L4.7 -60.8 4.65 -60.45 4.5 -60.0 4.45 -59.9 3.9 -59.1 2.55 -58.1 2.4 -58.05 1.85 -57.8 -2.35 -56.9 -2.6 -56.9 -2.7 -56.9 -2.9 -56.9 -3.0 -56.9 -3.2 -56.9 -3.3 -56.9 -3.4 -56.9 -3.5 -56.9 -8.25 -57.8 -8.7 -58.05 -8.8 -58.1 -10.35 -59.1 -10.75 -59.6 -10.8 -59.75 -11.05 -60.3 -11.05 -60.35 -11.15 -60.65 -11.15 -60.75"/><path stroke="none" fill="url(#gradient4)" d="M4.1 -59.0 L3.3 -57.4 2.5 -55.95 2.1 -55.75 1.35 -55.4 -0.25 -55.0 -3.25 -54.75 Q-5.75 -54.8 -7.65 -55.5 L-8.3 -55.8 -8.3 -55.85 Q-8.95 -56.1 -9.25 -56.35 -9.7 -56.75 -9.65 -57.1 L-9.6 -57.15 -10.75 -59.6 -10.35 -59.1 -8.8 -58.1 -8.8 -58.05 -8.75 -58.0 -8.25 -57.8 -3.5 -56.9 -3.4 -56.9 -3.3 -56.9 -3.2 -56.9 -3.0 -56.9 -2.9 -56.9 -2.7 -56.9 -2.6 -56.9 -2.35 -56.9 1.85 -57.8 2.4 -58.05 2.55 -58.1 3.9 -59.1 4.1 -59.0 M-9.6 -57.15 L-9.25 -56.35 -9.6 -57.15"/><path fill="none" stroke="#000000" stroke-width="0.5" stroke-opacity="0.152941176471" d="M-8.35 -53.65 L-8.85 -54.6 -8.8 -55.25"/><path fill="none" stroke="#000000" stroke-width="0.5" stroke-opacity="0.301960784314" d="M-11.15 -60.75 L-11.15 -60.9 Q-11.15 -62.55 -8.8 -63.7 -6.5 -64.9 -3.2 -64.9 0.05 -64.9 2.4 -63.7 4.7 -62.55 4.7 -60.9 L4.7 -60.8 4.65 -60.45 4.5 -60.0 4.45 -59.9 4.1 -59.0 3.3 -57.4 2.5 -55.95 M-9.6 -57.15 L-10.75 -59.6 -10.8 -59.75 -11.05 -60.3 -11.05 -60.35 -11.15 -60.65 M4.45 -59.9 L3.9 -59.1 2.55 -58.1 2.4 -58.05 1.85 -57.8 -2.35 -56.9 -2.6 -56.9 -2.7 -56.9 -2.9 -56.9 -3.0 -56.9 -3.2 -56.9 -3.3 -56.9 -3.4 -56.9 -3.5 -56.9 -8.25 -57.8 -8.7 -58.05 -8.8 -58.1 -10.35 -59.1 -10.75 -59.6 M-8.8 -58.05 L-8.8 -58.1 M-9.25 -56.35 L-9.6 -57.15"/><path stroke="none" fill="url(#gradient5)" d="M-7.4 -58.8 L-8.55 -59.05 -9.0 -59.65 -8.55 -60.2 -7.4 -60.45 -6.3 -60.2 -5.85 -59.6 Q-5.85 -59.25 -6.3 -59.05 L-7.4 -58.8"/><path fill="none" stroke="#000000" stroke-width="0.5" stroke-opacity="0.152941176471" d="M-7.4 -58.8 L-8.55 -59.05 -9.0 -59.65 -8.55 -60.2 -7.4 -60.45 -6.3 -60.2 -5.85 -59.6 Q-5.85 -59.25 -6.3 -59.05 L-7.4 -58.8"/><path fill="none" stroke="#000000" stroke-width="0.5" stroke-opacity="0.101960784314" d="M3.4 -62.25 L3.7 -62.35 M2.8 -59.85 L2.7 -59.75 2.55 -59.7 2.4 -59.75 2.3 -59.85 2.4 -59.9 2.55 -59.9 2.7 -59.9 2.8 -59.85 M4.25 -60.7 L3.95 -59.9 Q3.55 -59.1 1.5 -58.15 M3.7 -61.85 L3.95 -61.85 M1.65 -59.9 L0.95 -60.1 Q0.65 -60.2 0.65 -60.45 L0.95 -60.85 1.65 -61.0 2.4 -60.85 2.7 -60.45 2.4 -60.1 1.65 -59.9 M1.45 -57.65 L1.1 -55.9 M0.3 -58.1 L-0.7 -57.9 -1.7 -58.1 Q-2.1 -58.3 -2.1 -58.6 L-1.7 -59.05 -0.7 -59.25 0.3 -59.05 0.7 -58.6 Q0.7 -58.3 0.3 -58.1 M3.15 -58.5 L2.45 -55.9 M1.85 -57.15 L1.55 -55.45 M-5.4 -63.35 L-4.55 -63.5 -3.65 -63.35 -3.3 -62.95 Q-3.3 -62.7 -3.65 -62.55 L-4.55 -62.35 -5.4 -62.55 -5.8 -62.95 -5.4 -63.35 M-8.2 -62.15 L-7.75 -62.05 -7.55 -61.9 -7.55 -61.85 -7.75 -61.6 -8.2 -61.5 -8.65 -61.6 -8.85 -61.85 -8.8 -61.9 -8.65 -62.05 -8.2 -62.15 M-3.15 -61.95 L-3.3 -62.15 -3.15 -62.35 -2.85 -62.45 -2.75 -62.45 -2.35 -62.35 -2.2 -62.15 -2.35 -61.95 -2.85 -61.9 -3.15 -61.95 M-1.3 -63.55 L-1.4 -63.45 -1.65 -63.4 -1.9 -63.45 -2.05 -63.55 -1.9 -63.65 -1.65 -63.7 -1.4 -63.65 -1.3 -63.55 M-10.45 -61.05 L-10.4 -61.1 -10.25 -61.15 -10.1 -61.1 -10.05 -61.05 -10.1 -61.0 -10.25 -61.0 -10.4 -61.0 -10.45 -61.05 M-4.1 -59.3 L-4.2 -59.35 -4.1 -59.45 -3.95 -59.45 -3.75 -59.45 -3.65 -59.35 -3.75 -59.3 -3.95 -59.25 -4.1 -59.3 M-4.9 -56.95 L-4.85 -55.75 M-1.9 -56.95 L-1.9 -56.6 M-6.1 -57.55 L-3.45 -57.3 -1.9 -57.4 M-7.3 -60.4 L-7.2 -58.9 M-6.35 -60.15 L-6.4 -58.9 M-8.55 -60.4 L-8.6 -60.35 -8.8 -60.3 -9.0 -60.35 -9.05 -60.4 -9.0 -60.45 -8.8 -60.5 -8.6 -60.45 -8.55 -60.4 M-9.45 -58.4 L-8.85 -56.2 M-6.55 -56.95 L-6.55 -57.2 M-2.0 -56.15 L-2.15 -54.75 M-10.15 -62.3 Q-9.0 -63.8 -5.9 -64.35 M-10.25 -58.85 L-9.9 -58.0"/></g><g id="c15"><path fill="#998d6a" stroke="none" d="M5.6 3.65 L4.0 1.9 5.3 0.0 11.2 1.75 5.6 3.65"/><path fill="#736950" stroke="none" d="M5.3 0.0 L4.0 1.9 5.6 3.65 0.0 2.1 5.3 0.0"/></g><g id="c16"><g><use transform="matrix(1.0,0.0,0.0,1.0,0.0,0.0)" xlink:href="#c15"/></g></g><g id="c17"><path fill="#cac5bd" stroke="none" d="M4.15 -7.2 Q2.55 -5.5 2.55 -4.05 2.55 -3.15 4.3 -2.55 6.05 -1.9 6.05 0.75 L6.05 3.2 Q5.75 4.5 3.65 4.5 L2.25 4.1 0.05 3.15 -3.0 3.7 -6.35 4.2 Q-7.1 4.2 -8.1 3.15 -9.2 2.0 -9.2 0.9 -9.2 -0.3 -7.35 -3.2 L-5.55 -6.5 -5.6 -7.15 -5.15 -7.2 4.15 -7.2"/><path fill="#c9c4bd" fill-opacity="0.780392156863" d="M-5.6 -7.15 L-5.55 -6.5 -7.35 -3.2 Q-9.2 -0.3 -9.2 0.9 -9.2 2.0 -8.1 3.15 -7.1 4.2 -6.35 4.2 L-3.0 3.7 0.05 3.15 2.25 4.1 3.65 4.5 Q5.75 4.5 6.05 3.2 L6.05 0.75 Q6.05 -1.9 4.3 -2.55 2.55 -3.15 2.55 -4.05 2.55 -5.5 4.15 -7.2 L5.1 -7.2 Q7.15 -7.2 8.6 -5.75 10.1 -4.25 10.1 -2.2 L10.1 2.2 Q10.1 4.25 8.6 5.7 7.15 7.2 5.1 7.2 L-5.15 7.2 Q-7.2 7.2 -8.7 5.7 -10.15 4.25 -10.15 2.2 L-10.15 -2.2 Q-10.15 -4.25 -8.7 -5.75 -7.4 -7.05 -5.6 -7.15"/></g><g id="c18"><g><use transform="matrix(1.0,0.0,0.0,1.0,0.0,0.0)" xlink:href="#c17"/></g></g><g id="c19"><path fill="#2d2117" fill-opacity="0.811764705882" d="M22.1 -0.3 Q0.0 1.85 -22.15 -0.3 0.95 -1.35 22.1 -0.3"/></g><g id="c20"><g><use transform="matrix(1.0,0.0,0.0,1.0,0.0,0.0)" xlink:href="#c19"/></g></g><g id="c21"><g><use transform="matrix(1.0,0.0,0.0,1.0,0.0,0.0)" xlink:href="#c20"/></g><g><use transform="matrix(0.855529785156,0.0,0.0,0.647857666016,-14.85,-9.55)" xlink:href="#c20"/></g><g><use transform="matrix(0.855529785156,0.0,0.0,0.647857666016,-4.65,4.4)" xlink:href="#c20"/></g><g><use transform="matrix(0.855529785156,0.0,0.0,0.647857666016,8.6,8.0)" xlink:href="#c20"/></g><g><use transform="matrix(0.855529785156,0.0,0.0,0.647857666016,-8.8,-5.5)" xlink:href="#c20"/></g></g><g id="c22"><g><use transform="matrix(0.0112457275391,0.35710144043,0.579666137695,0.144348144531,6.25,29.05)" xlink:href="#c21"/></g><g><use transform="matrix(0.0112457275391,0.35710144043,0.579666137695,0.144348144531,6.9,18.5)" xlink:href="#c21"/></g><g><use transform="matrix(0.00900268554688,0.285675048828,0.463745117188,0.115463256836,13.9,18.65)" xlink:href="#c21"/></g></g><g id="c23"><path fill="#3d3424" fill-opacity="0.4" d="M0.15 -56.4 L0.35 -57.15 4.1 -59.0 2.8 -56.1 2.1 -55.75 1.35 -55.4 -0.25 -55.0 0.15 -56.4"/></g><g id="c24"><g><use transform="matrix(1.0,0.0,0.0,1.0,0.0,0.0)" xlink:href="#c14"/></g><g><use transform="matrix(0.251953125,0.0,0.0,0.251953125,-4.4,-57.5)" filter="url(#filter22)" xlink:href="#c16"/></g><g><use transform="matrix(0.171966552734,-0.0307464599609,0.0,0.130096435547,-0.15,-56.05)" filter="url(#filter23)" xlink:href="#c18"/></g><g><use transform="matrix(0.209030151367,0.0,0.0,0.0539855957031,-5.55,-56.85)" filter="url(#filter24)" xlink:href="#c22"/></g><g><use transform="matrix(0.188934326172,0.0908203125,-0.177093505859,0.306732177734,-9.35,-59.2)" filter="url(#filter25)" xlink:href="#c16"/></g><g><use transform="matrix(1.0,0.0,0.0,1.0,0.0,0.0)" xlink:href="#c23"/></g></g><filter id="filter22"><feColorMatrix in="SourceGraphic" type="matrix" values="0.3984375 0.0 0.0 0.0 0.51171875 0.0 0.3984375 0.0 0.0 0.4765625 0.0 0.0 0.3984375 0.0 0.28515625 0.0 0.0 0.0 1.0 0.0" result="cxform"/><feComposite operator="in" in2="SourceGraphic" result="color-xform"/></filter><filter id="filter23"><feColorMatrix in="SourceGraphic" type="matrix" values="0.05859375 0.0 0.0 0.0 0.4296875 0.0 0.05859375 0.0 0.0 0.3828125 0.0 0.0 0.05859375 0.0 0.2578125 0.0 0.0 0.0 1.0 0.0" result="cxform"/><feComposite operator="in" in2="SourceGraphic" result="color-xform"/></filter><filter id="filter24"><feColorMatrix in="SourceGraphic" type="matrix" values="0.05859375 0.0 0.0 0.0 0.51953125 0.0 0.05859375 0.0 0.0 0.4609375 0.0 0.0 0.05859375 0.0 0.30859375 0.0 0.0 0.0 1.0 0.0" result="cxform"/><feComposite operator="in" in2="SourceGraphic" result="color-xform"/></filter><filter id="filter25"><feColorMatrix in="SourceGraphic" type="matrix" values="0.2578125 0.0 0.0 0.0 0.65234375 0.0 0.2578125 0.0 0.0 0.60546875 0.0 0.0 0.2578125 0.0 0.36328125 0.0 0.0 0.0 1.0 0.0" result="cxform"/><feComposite operator="in" in2="SourceGraphic" result="color-xform"/></filter><g id="c25"><g><use transform="matrix(1.0,0.0,0.0,1.0,0.0,0.0)" xlink:href="#c13"/></g><g><use transform="matrix(0.728057861328,0.0,0.0,0.728057861328,9.6,44.25)" xlink:href="#c24"/></g></g><radialGradient gradientUnits="userSpaceOnUse" r="819.2" cx="0" cy="0" spreadMethod="pad" gradientTransform="matrix(0.0348510742188,0.0,0.0,0.0348510742188,0.0,0.0)" id="gradient6"><stop offset="0.0" stop-color="#ffffff" stop-opacity="0.8"/><stop offset="1.0" stop-color="#fef18a" stop-opacity="0.0"/></radialGradient><g id="c26"><path stroke="none" fill="url(#gradient6)" d="M19.8 -19.8 Q28.0 -11.6 28.0 0.0 28.0 11.6 19.8 19.8 11.6 28.0 0.0 28.0 -11.6 28.0 -19.8 19.8 -28.0 11.6 -28.0 0.0 -28.0 -11.6 -19.8 -19.8 -11.6 -28.0 0.0 -28.0 11.6 -28.0 19.8 -19.8"/></g><g id="c27"><g><use transform="matrix(1.0,0.0,0.0,1.0,0.0,0.0)" xlink:href="#c26"/></g></g><g id="c28"><g><use transform="matrix(0.43537902832,0.0,0.0,0.43537902832,0.5,14.7)" filter="url(#filter30)" xlink:href="#c11"/></g><g><use transform="matrix(1.0,0.0,0.0,1.0,0.0,0.0)" xlink:href="#c12"/></g><g><use transform="matrix(1.0,0.0,0.0,1.0,4.55,-3.15)" xlink:href="#c25"/></g><g><use transform="matrix(0.294540405273,0.0,0.0,0.362503051758,8.75,12.8)" filter="url(#filter33)" xlink:href="#c27"/></g></g><filter id="filter30"><feColorMatrix in="SourceGraphic" type="matrix" values="1.0 0.0 0.0 0.0 0.0 0.0 1.0 0.0 0.0 0.0 0.0 0.0 1.0 0.0 0.0 0.0 0.0 0.0 0.328125 0.0" result="cxform"/><feComposite operator="in" in2="SourceGraphic" result="color-xform"/></filter><filter id="filter33"><feColorMatrix in="SourceGraphic" type="matrix" values="1.0 0.0 0.0 0.0 0.0 0.0 1.0 0.0 0.0 0.0 0.0 0.0 1.0 0.0 0.0 0.0 0.0 0.0 0.30078125 0.0" result="cxform"/><feComposite operator="in" in2="SourceGraphic" result="color-xform"/></filter><g id="c29"><path fill="#7c7c58" stroke="none" d="M30.7 83.8 L30.8 83.65 30.9 83.55 31.45 83.35 32.3 82.85 Q33.15 82.2 33.4 81.3 L33.5 80.6 33.45 80.1 33.45 79.7 33.0 78.85 32.95 78.8 32.8 78.55 32.75 78.45 Q32.0 76.95 33.9 77.65 L34.4 77.85 34.8 78.05 34.95 78.05 36.15 78.65 36.45 78.75 36.75 78.7 36.75 78.55 36.9 78.65 37.45 78.9 37.5 78.95 38.1 79.05 38.85 79.2 Q39.25 79.35 39.45 79.55 L39.35 80.05 38.9 80.4 38.3 80.8 37.95 81.3 37.5 81.75 36.25 82.25 34.95 82.75 33.6 83.5 32.15 84.15 31.1 84.35 30.65 84.35 30.45 84.35 30.5 84.05 30.7 83.8"/><path fill="#a7a783" stroke="none" d="M36.75 78.55 L36.75 78.7 36.45 78.75 36.15 78.65 34.95 78.05 34.8 78.05 34.4 77.85 33.9 77.65 Q32.0 76.95 32.75 78.45 L32.8 78.55 32.95 78.8 33.0 78.85 33.45 79.7 33.45 80.1 33.5 80.6 33.4 81.3 Q33.15 82.2 32.3 82.85 L31.45 83.35 30.9 83.55 30.8 83.65 30.7 83.8 30.65 83.7 30.4 83.85 30.0 84.1 29.2 84.55 28.6 84.7 Q28.4 84.65 28.5 84.3 L28.9 83.55 28.95 83.25 28.2 83.25 28.15 83.1 28.5 82.6 29.15 81.5 29.35 81.25 29.9 79.85 30.0 79.75 30.2 78.85 30.45 78.0 30.65 77.1 30.8 76.85 31.0 76.6 31.55 76.6 32.4 76.75 32.5 76.8 34.15 77.3 34.25 77.35 34.95 77.6 35.35 77.8 35.45 77.85 36.05 78.15 36.75 78.55"/><path fill="#6a6a6a" fill-opacity="0.250980392157" d="M39.65 78.95 Q40.05 79.2 39.8 79.7 40.0 79.85 39.8 80.1 39.65 80.4 39.4 80.25 L39.25 80.05 39.0 79.9 Q38.6 79.5 38.95 79.05 L39.65 78.95 M36.5 78.15 L36.6 78.5 36.65 78.45 Q36.9 78.05 37.3 78.3 37.7 78.55 37.45 79.0 37.15 79.4 36.75 79.15 36.45 78.95 36.55 78.6 36.4 78.9 36.2 78.7 35.95 78.45 36.15 78.2 L36.5 78.15 M38.15 78.85 L38.3 78.9 38.35 78.8 Q38.55 78.45 38.8 78.65 39.05 78.85 38.85 79.15 38.65 79.55 38.4 79.35 L38.35 79.3 38.35 79.4 Q38.2 79.75 37.9 79.5 37.6 79.25 37.75 78.95 37.9 78.65 38.15 78.85 M39.2 80.25 Q39.5 80.35 39.35 80.75 39.2 81.15 38.9 80.9 38.6 80.6 38.8 80.3 L39.2 80.25 M38.45 80.2 Q38.7 80.35 38.5 80.75 L38.2 80.95 38.1 81.5 37.75 81.75 37.65 82.1 Q37.45 82.4 37.15 82.3 L37.1 82.35 Q37.0 82.6 36.8 82.45 36.55 82.25 36.7 82.0 L36.85 81.9 36.95 81.6 Q37.1 81.35 37.35 81.45 37.2 81.15 37.4 80.9 37.6 80.6 37.9 80.7 L38.0 80.35 Q38.2 80.05 38.45 80.2 M34.5 77.1 L34.6 77.25 Q34.75 76.95 35.1 77.15 35.4 77.3 35.25 77.7 L35.3 77.65 Q35.55 77.15 35.95 77.45 36.3 77.7 36.0 78.2 35.75 78.7 35.4 78.45 35.1 78.2 35.2 77.85 35.0 78.2 34.7 77.95 L34.55 77.65 34.05 77.75 Q33.8 77.6 33.95 77.25 34.15 76.95 34.5 77.1 M29.8 84.0 Q30.05 84.25 29.95 84.65 29.75 85.1 29.45 84.8 L29.25 84.45 29.2 84.55 Q28.95 85.0 28.7 84.75 L28.55 84.4 28.3 84.4 Q28.1 84.25 28.25 84.05 L28.55 84.0 Q28.45 83.9 28.5 83.65 L28.4 83.3 Q28.15 83.6 27.95 83.5 27.7 83.3 27.9 82.95 28.0 82.8 28.15 82.8 27.95 82.45 28.2 82.15 28.4 81.8 28.7 81.95 L28.75 81.8 Q28.9 81.55 29.05 81.7 29.3 81.85 29.15 82.05 L29.0 82.2 28.95 82.8 28.9 82.9 29.0 82.95 Q29.3 83.15 29.15 83.55 L29.15 84.0 29.3 84.2 29.3 84.15 Q29.5 83.85 29.8 84.0 M32.1 76.3 L32.15 76.7 31.85 76.75 Q31.65 76.6 31.75 76.4 L32.1 76.3 M30.9 77.8 L30.35 77.95 Q30.1 77.8 30.35 77.4 L30.45 77.2 Q30.3 77.05 30.45 76.85 L30.5 76.8 30.65 76.5 Q30.85 76.1 31.2 76.35 31.6 76.65 31.35 77.0 L31.0 77.25 30.9 77.35 30.9 77.8 M33.05 76.55 L33.15 76.9 33.2 76.85 Q33.45 76.55 33.75 76.75 34.1 77.0 33.85 77.4 33.6 77.85 33.3 77.5 33.05 77.25 33.1 77.05 32.9 77.45 32.65 77.25 32.4 77.05 32.6 76.7 32.8 76.35 33.05 76.55 M29.55 81.45 Q29.3 81.9 28.95 81.6 28.65 81.25 28.85 80.95 29.0 80.55 29.3 80.75 L29.35 80.35 29.65 80.1 Q29.4 79.8 29.6 79.55 29.7 79.4 29.85 79.4 L29.9 79.0 Q30.05 78.7 30.4 78.85 30.65 79.1 30.5 79.4 L30.2 79.6 30.15 80.0 29.9 80.2 Q30.15 80.4 29.95 80.8 L29.6 81.05 29.55 81.45 M30.5 78.35 L30.6 78.65 30.3 78.7 Q30.15 78.55 30.25 78.4 30.35 78.2 30.5 78.35 M31.45 82.2 L31.15 82.3 Q30.95 82.2 31.1 81.95 L31.15 81.9 Q30.95 81.6 31.15 81.35 L31.25 81.3 31.3 81.3 31.35 81.1 31.6 81.0 31.7 81.05 Q31.95 81.2 31.8 81.45 L31.75 81.8 31.7 81.9 31.5 82.1 31.45 82.2 M32.15 80.5 L32.25 81.0 31.9 81.2 31.8 81.15 31.7 81.0 Q31.55 80.85 31.7 80.6 31.8 80.3 32.15 80.5 M31.1 83.8 L30.9 84.05 30.9 84.1 31.2 84.1 31.25 84.15 31.3 84.05 Q31.5 83.7 31.85 83.9 L32.1 84.15 Q32.25 83.85 32.55 84.0 32.85 84.25 32.65 84.55 L32.15 84.65 32.1 84.55 32.0 84.65 Q31.8 85.15 31.45 84.8 L31.3 84.6 31.25 84.65 Q31.05 85.0 30.8 84.8 L30.65 84.65 30.25 84.55 30.05 84.25 30.0 84.2 Q29.8 84.1 29.95 83.9 30.05 83.7 30.2 83.8 L30.25 83.8 30.25 83.85 30.4 83.75 30.45 83.3 30.5 83.25 Q30.65 83.05 30.8 83.1 30.7 82.9 30.75 82.7 30.95 82.35 31.25 82.55 31.55 82.7 31.4 83.1 L31.2 83.35 31.1 83.8 M28.65 84.15 L28.65 84.1 28.65 84.15 M33.1 83.6 Q33.3 83.75 33.15 84.0 L32.75 84.05 Q32.55 83.85 32.7 83.65 L33.1 83.6 M35.1 82.5 Q35.35 82.7 35.2 82.95 L34.75 83.0 Q34.5 82.9 34.7 82.6 L35.1 82.5 M34.3 83.0 L34.4 83.4 34.05 83.5 33.95 83.4 33.95 83.6 Q33.75 84.0 33.5 83.8 33.25 83.6 33.45 83.3 33.65 82.95 33.85 83.15 L33.95 83.25 33.95 83.05 34.3 83.0 M36.15 82.15 Q36.4 82.35 36.25 82.75 L35.8 82.9 35.7 82.8 35.45 82.75 Q35.25 82.5 35.4 82.35 L35.75 82.3 Q35.95 82.05 36.15 82.15"/></g><g id="c30"><path fill="#6e4a26" stroke="none" d="M12.95 19.95 L14.2 19.8 14.4 20.4 14.55 20.05 15.35 18.45 16.55 18.95 15.65 18.95 16.45 19.5 14.55 20.05 16.0 20.0 15.45 20.75 15.25 21.05 12.75 20.75 12.85 20.4 12.95 19.95 M14.55 20.05 L15.45 20.75 14.55 20.05"/><path fill="#51391c" stroke="none" d="M13.05 19.65 L13.25 19.65 14.35 19.3 14.65 18.55 18.15 17.0 18.85 16.75 18.15 17.0 13.85 13.65 17.4 15.6 14.75 13.35 19.65 16.6 18.85 16.75 19.1 16.95 19.1 17.0 18.9 16.85 18.95 17.05 19.0 17.1 16.55 18.95 15.35 18.45 14.55 20.05 14.4 20.4 14.2 19.8 12.95 19.95 13.0 19.85 13.05 19.65"/><path fill="#795524" stroke="none" d="M16.55 18.95 L19.0 17.1 19.25 17.25 19.65 17.5 19.1 16.95 18.85 16.75 19.65 16.6 14.75 13.35 14.65 11.55 14.8 10.85 14.85 9.4 15.8 9.65 15.55 13.05 15.0 13.0 21.0 16.95 17.65 19.2 18.55 18.9 17.2 19.9 18.55 18.9 20.05 18.1 18.65 19.2 17.3 19.9 17.2 19.9 16.8 20.2 15.75 21.0 15.45 20.75 16.0 20.0 14.55 20.05 16.45 19.5 15.65 18.95 16.55 18.95"/><path fill="#704d27" stroke="none" d="M14.85 9.4 L14.8 10.85 14.65 11.55 14.25 12.55 14.65 13.25 14.05 12.8 14.85 9.4"/><path fill="#a87e46" stroke="none" d="M14.65 11.55 L14.75 13.35 14.65 13.25 14.25 12.55 14.65 11.55"/><path fill="#614221" stroke="none" d="M14.65 13.25 L14.75 13.35 17.4 15.6 13.85 13.65 14.05 12.8 14.65 13.25"/><path fill="#af7d32" stroke="none" d="M18.55 18.9 L17.65 19.2 21.0 16.95 15.0 13.0 15.55 13.05 21.25 16.45 21.7 17.5 18.65 19.2 20.05 18.1 18.55 18.9 M17.3 19.9 L16.8 20.2 17.2 19.9 17.3 19.9"/><path fill="#936f3e" stroke="none" d="M19.0 17.1 L18.95 17.05 18.9 16.85 19.1 17.0 18.95 17.05 19.1 17.0 19.25 17.25 19.0 17.1"/><path fill="#6b502c" stroke="none" d="M19.1 17.0 L19.1 16.95 19.65 17.5 19.25 17.25 19.1 17.0"/><path fill="none" stroke="#000000" stroke-width="0.5" stroke-opacity="0.152941176471" d="M13.05 19.65 L13.0 19.85 M12.95 19.95 L14.2 19.8 14.4 20.4 14.55 20.05 15.35 18.45 16.55 18.95 19.0 17.1 M18.9 16.85 L19.1 17.0 19.1 16.95 18.85 16.75 18.15 17.0 14.65 18.55 14.35 19.3 13.25 19.65 M12.75 20.75 L15.25 21.05 15.45 20.75 14.55 20.05 16.45 19.5 15.65 18.95 16.55 18.95 M15.55 13.05 L15.8 9.65 14.85 9.4 14.8 10.85 14.65 11.55 14.25 12.55 14.65 13.25 14.75 13.35 17.4 15.6 13.85 13.65 18.15 17.0 M19.65 16.6 L18.85 16.75 M14.05 12.8 L14.65 13.25 M13.85 13.65 L14.05 12.8 14.85 9.4 M18.55 18.9 L17.65 19.2 21.0 16.95 15.0 13.0 15.55 13.05 21.25 16.45 21.7 17.5 18.65 19.2 17.3 19.9 16.8 20.2 15.75 21.0 15.45 20.75 16.0 20.0 14.55 20.05 M19.1 17.0 L18.95 17.05 M19.1 16.95 L19.65 17.5 19.25 17.25 19.0 17.1 M19.25 17.25 L19.1 17.0 M17.2 19.9 L17.3 19.9 M17.2 19.9 L18.55 18.9 20.05 18.1 18.65 19.2 M16.8 20.2 L17.2 19.9"/><path fill="#5d7d0d" stroke="none" d="M18.1 1.0 L16.65 4.55 16.65 4.85 16.8 4.9 16.75 4.95 15.65 5.45 15.65 4.55 15.65 5.5 15.75 7.6 15.65 7.6 Q14.9 4.75 15.15 4.35 L16.1 3.15 17.3 1.95 18.1 1.0"/><path fill="#7a9c11" stroke="none" d="M18.1 1.0 L18.7 0.05 Q18.9 1.15 19.4 2.25 L20.0 4.2 19.95 5.05 Q19.35 5.6 18.45 5.5 L18.25 5.05 17.85 5.45 16.8 4.9 16.65 4.85 16.65 4.55 18.1 1.0"/><path fill="#5f800e" stroke="none" d="M16.8 4.9 L17.85 5.45 16.65 6.5 16.75 4.95 16.8 4.9 M18.45 5.5 Q19.35 5.6 19.95 5.05 L19.55 6.45 Q19.3 6.8 16.15 8.15 L18.45 5.5"/><path fill="#4c660b" stroke="none" d="M17.85 5.45 L18.25 5.05 18.45 5.5 16.15 8.15 15.75 7.7 15.75 7.6 15.65 5.5 15.65 5.45 16.75 4.95 16.65 6.5 17.85 5.45"/><path fill="#708f0f" stroke="none" d="M15.75 7.6 L15.75 7.7 15.65 7.6 15.75 7.6"/><path fill="#d2cfbd" stroke="none" d="M15.75 7.7 L15.75 7.85 15.65 7.6 15.75 7.7"/><path fill="none" stroke="#3d3928" stroke-width="0.5" stroke-opacity="0.501960784314" d="M19.95 5.05 L20.0 4.2 19.4 2.25 Q18.9 1.15 18.7 0.05 L18.1 1.0 M19.95 5.05 L19.55 6.45 Q19.3 6.8 16.15 8.15 L15.75 7.7 M15.75 7.85 L15.65 7.6 Q14.9 4.75 15.15 4.35 L16.1 3.15 17.3 1.95 18.1 1.0 M15.65 7.6 L15.75 7.7"/><path fill="#708f0f" stroke="none" d="M14.8 9.45 L14.7 9.45 Q12.6 7.75 12.65 7.25 L12.9 5.75 13.4 4.1 13.65 2.95 14.05 6.5 14.25 6.7 15.65 6.5 15.1 8.0 14.4 6.75 13.6 7.8 13.45 7.5 13.65 7.85 14.8 9.45 M17.4 4.9 L17.7 6.2 15.4 9.55 16.25 6.1 Q17.15 5.65 17.4 4.9"/><path fill="#98b814" stroke="none" d="M15.65 6.5 L14.25 6.7 14.05 6.5 13.65 2.95 13.8 1.85 15.45 3.05 17.0 4.25 17.4 4.9 Q17.15 5.65 16.25 6.1 L15.85 5.95 15.65 6.5"/><path fill="#607a0d" stroke="none" d="M14.8 9.45 L13.65 7.85 13.6 7.8 14.4 6.75 15.1 8.0 15.65 6.5 15.85 5.95 16.25 6.1 15.4 9.55 14.8 9.45"/><path fill="none" stroke="#3d3928" stroke-width="0.5" stroke-opacity="0.501960784314" d="M13.65 2.95 L13.4 4.1 12.9 5.75 12.65 7.25 Q12.6 7.75 14.7 9.45 L14.8 9.45 M13.65 2.95 L13.8 1.85 15.45 3.05 17.0 4.25 17.4 4.9 17.7 6.2 15.4 9.55 14.8 9.45"/><path fill="#96b616" stroke="none" d="M15.5 9.35 Q16.45 6.35 16.85 6.15 17.4 5.8 18.15 5.55 L19.6 5.1 20.6 4.75 17.8 7.1 17.65 7.35 17.7 7.55 17.6 7.5 16.65 7.35 16.95 6.8 16.6 7.4 15.55 9.4 15.5 9.35"/><path fill="#789210" stroke="none" d="M15.55 9.4 L16.6 7.4 16.65 7.35 17.6 7.5 16.8 8.9 18.15 8.6 18.6 8.45 18.5 8.95 15.55 10.1 15.5 9.45 15.55 9.4"/><path fill="#b0d717" stroke="none" d="M17.7 7.55 L17.65 7.35 17.8 7.1 20.6 4.75 21.5 4.2 Q21.05 5.3 20.85 6.5 L20.3 8.6 19.8 9.4 Q19.1 9.55 18.5 8.95 L18.6 8.45 18.15 8.6 17.7 7.55"/><path fill="#708f0f" stroke="none" d="M15.5 9.35 L15.55 9.4 15.5 9.45 15.5 9.35"/><path fill="#85a012" stroke="none" d="M17.6 7.5 L17.7 7.55 18.15 8.6 16.8 8.9 17.6 7.5 M19.8 9.4 L18.8 10.45 15.55 10.1 18.5 8.95 Q19.1 9.55 19.8 9.4"/><path fill="none" stroke="#3d3928" stroke-width="0.5" stroke-opacity="0.501960784314" d="M20.6 4.75 L19.6 5.1 18.15 5.55 Q17.4 5.8 16.85 6.15 16.45 6.35 15.5 9.35 M20.6 4.75 L21.5 4.2 Q21.05 5.3 20.85 6.5 L20.3 8.6 19.8 9.4 18.8 10.45 15.55 10.1 15.5 9.45"/><path fill="#51391c" stroke="none" d="M10.45 13.75 L10.55 13.85 Q9.8 16.0 9.5 17.95 L9.35 18.75 10.1 18.9 9.95 19.5 9.95 19.8 9.95 19.9 9.15 21.6 8.1 23.75 Q8.5 20.5 9.05 18.15 9.65 15.4 10.45 13.75 M12.8 17.75 L12.6 19.6 Q13.35 20.2 14.35 20.05 L13.1 20.65 15.85 21.15 16.6 19.4 16.55 20.75 16.0 23.0 Q15.45 24.45 14.55 25.35 L14.85 23.1 14.4 23.1 14.55 23.0 14.45 23.0 14.4 23.0 14.25 23.05 14.15 23.0 14.1 23.05 13.4 23.1 11.4 24.3 8.7 25.9 5.6 23.6 6.1 23.5 6.25 23.4 6.45 23.2 6.45 22.95 8.45 24.6 10.1 23.85 12.05 18.6 12.1 18.45 12.5 18.15 12.8 17.75 M6.2 9.4 Q5.25 13.05 5.1 15.85 L6.0 17.6 6.85 18.05 4.9 21.75 5.75 22.5 5.65 22.85 4.0 21.2 4.0 21.05 4.85 21.65 4.75 19.3 4.5 19.4 4.5 18.65 4.7 16.05 4.7 15.55 Q5.1 11.85 6.2 9.4 M9.35 18.75 Q9.1 20.25 9.15 21.6 9.1 20.25 9.35 18.75 M12.35 21.65 L12.6 19.6 12.35 21.65 M2.9 11.25 L2.9 11.3 2.95 13.4 2.9 13.5 Q3.05 14.7 3.5 15.35 L3.0 18.35 Q1.95 17.0 2.9 11.25 M5.25 19.3 L5.15 18.9 Q5.0 17.55 5.1 15.85 5.0 17.55 5.15 18.9 L5.25 19.3 M14.85 23.1 L15.35 23.0 14.85 23.1"/><path fill="#68700a" stroke="none" d="M10.4 18.95 L10.5 18.95 10.8 18.05 10.9 17.7 10.95 17.55 11.0 17.25 11.2 17.35 11.3 17.35 11.55 17.4 11.9 17.45 12.25 17.5 12.25 17.65 12.15 18.3 12.1 18.45 12.05 18.45 11.75 18.75 11.65 18.9 Q11.55 18.85 11.5 18.95 L11.3 19.0 10.8 19.35 11.1 19.55 11.2 19.75 11.25 20.1 11.2 20.3 11.1 20.65 10.9 21.15 10.6 21.65 10.55 21.65 10.3 21.5 10.05 21.4 9.9 21.6 9.7 22.0 9.65 22.0 9.35 22.4 9.3 22.4 9.2 22.45 8.95 22.55 9.1 22.15 9.25 21.85 9.45 21.5 9.65 21.1 9.95 20.4 10.05 20.15 10.0 19.95 9.95 19.9 9.95 19.8 10.4 18.95 M2.3 19.65 L2.15 19.4 2.65 19.2 2.75 19.15 2.8 19.15 3.15 18.95 3.35 18.85 3.45 19.0 3.6 19.55 3.75 20.15 3.8 20.4 4.0 21.05 2.3 19.65 M5.8 22.0 L5.9 21.6 6.05 21.25 6.2 20.9 6.3 21.55 6.35 21.9 6.35 22.1 6.35 22.15 6.4 22.55 6.45 22.9 6.45 23.0 5.75 22.5 5.8 22.0"/><path fill="#595809" stroke="none" d="M10.1 18.9 L10.4 18.95 9.95 19.8 9.95 19.5 10.1 18.9 M12.25 17.5 L12.3 17.55 12.8 17.55 12.8 17.75 12.5 18.15 12.1 18.45 12.15 18.3 12.25 17.65 12.25 17.5 M5.6 23.6 L5.5 23.45 5.2 23.2 4.9 22.95 4.7 22.85 4.65 22.75 4.45 22.5 4.4 22.45 4.1 22.15 3.85 21.9 3.75 21.8 3.5 21.5 3.25 21.2 3.0 20.9 2.75 20.45 2.55 20.15 2.3 19.65 4.0 21.05 4.0 21.2 5.65 22.85 5.75 22.5 6.45 23.0 6.45 22.95 6.45 23.2 6.25 23.4 6.1 23.5 5.6 23.6"/><path fill="#795524" stroke="none" d="M2.15 19.4 Q1.8 18.75 1.75 18.1 1.5 15.55 2.15 12.45 L2.5 11.15 2.8 11.3 2.9 11.25 Q1.95 17.0 3.0 18.35 L3.5 15.35 Q3.05 14.7 2.9 13.5 L2.95 13.4 4.15 8.05 Q3.95 10.05 4.5 11.35 L4.05 13.15 4.7 15.55 4.7 16.05 4.5 18.65 4.5 19.4 4.75 19.3 4.85 21.65 4.0 21.05 3.8 20.4 3.75 20.15 3.6 19.55 3.45 19.0 3.35 18.85 3.15 18.95 2.8 19.15 2.75 19.15 2.65 19.2 2.15 19.4 M6.85 18.05 L7.1 18.2 7.2 17.85 7.65 18.7 9.05 18.15 Q8.5 20.5 8.1 23.75 L9.15 21.6 9.95 19.9 10.0 19.95 10.05 20.15 9.95 20.4 9.65 21.1 9.45 21.5 9.25 21.85 9.1 22.15 8.95 22.55 9.2 22.45 9.3 22.4 9.35 22.4 9.65 22.0 9.7 22.0 9.9 21.6 10.05 21.4 10.3 21.5 10.55 21.65 10.6 21.65 10.9 21.15 11.1 20.65 11.2 20.3 11.25 20.1 11.2 19.75 11.1 19.55 10.8 19.35 11.3 19.0 11.5 18.95 Q11.55 18.85 11.65 18.9 L11.75 18.75 12.05 18.45 12.1 18.45 12.05 18.6 10.1 23.85 8.45 24.6 6.45 22.95 6.45 22.9 6.4 22.55 6.35 22.15 6.35 22.1 6.35 21.9 6.3 21.55 6.2 20.9 6.05 21.25 5.9 21.6 5.8 22.0 5.75 22.5 4.9 21.75 6.85 18.05 M3.5 15.35 L4.05 13.15 3.5 15.35 M6.8 22.6 Q6.75 20.45 7.1 18.2 6.75 20.45 6.8 22.6"/><path fill="#af7d32" stroke="none" d="M14.35 20.05 L15.2 19.85 16.4 18.7 16.6 19.4 15.85 21.15 13.1 20.65 14.35 20.05 M14.45 23.0 L13.0 25.5 12.65 24.3 11.4 24.3 13.4 23.1 14.1 23.05 14.15 23.0 14.25 23.05 14.4 23.0 14.45 23.0 M2.8 11.2 Q3.15 9.0 3.9 7.15 L4.35 7.0 4.15 8.05 2.95 13.4 2.9 11.3 2.9 11.25 2.8 11.2 M4.5 11.35 L5.4 7.8 6.2 9.3 6.2 9.4 Q5.1 11.85 4.7 15.55 L4.05 13.15 4.5 11.35 M7.2 17.85 L7.25 17.4 7.35 17.2 7.35 17.1 Q7.8 14.65 8.8 12.25 L10.45 13.75 Q9.65 15.4 9.05 18.15 L7.65 18.7 7.2 17.85"/><path fill="#d9d1bb" stroke="none" d="M2.8 11.3 L2.8 11.2 2.9 11.25 2.8 11.3"/><path fill="#848c15" stroke="none" d="M6.45 22.9 L6.45 22.95 6.45 23.0 6.45 22.9"/><path fill="none" stroke="#000000" stroke-width="0.5" stroke-opacity="0.450980392157" d="M10.45 13.75 L10.55 13.85 Q9.8 16.0 9.5 17.95 L9.35 18.75 10.1 18.9 M10.4 18.95 L10.5 18.95 M12.8 17.75 L12.6 19.6 Q13.35 20.2 14.35 20.05 L15.2 19.85 16.4 18.7 M14.85 23.1 L14.4 23.1 14.55 23.0 14.45 23.0 14.4 23.0 14.25 23.05 14.15 23.0 M11.4 24.3 L8.7 25.9 5.6 23.6 M7.35 17.1 Q7.8 14.65 8.8 12.25 L10.45 13.75 M9.15 21.6 Q9.1 20.25 9.35 18.75 M12.6 19.6 L12.35 21.65 M14.1 23.05 L13.4 23.1 11.4 24.3 M15.35 23.0 L14.85 23.1"/><path fill="none" stroke="#000000" stroke-width="0.5" stroke-opacity="0.450980392157" d="M10.1 18.9 L10.4 18.95 M10.5 18.95 L10.8 18.05 M10.9 17.7 L10.95 17.55 M11.2 17.35 L11.3 17.35 M11.55 17.4 L11.9 17.45 M12.3 17.55 L12.8 17.55 12.8 17.75 12.5 18.15 M5.6 23.6 L5.5 23.45 M5.2 23.2 L4.9 22.95 M4.65 22.75 L4.45 22.5 4.4 22.45 M3.85 21.9 L3.75 21.8 M3.5 21.5 L3.25 21.2 M3.0 20.9 L2.75 20.45 M2.55 20.15 L2.3 19.65 M6.1 23.5 L5.6 23.6 M12.05 18.45 L11.75 18.75 M11.65 18.9 Q11.55 18.85 11.5 18.95 L11.3 19.0 M11.1 19.55 L11.2 19.75 M11.25 20.1 L11.2 20.3 11.1 20.65 M10.9 21.15 L10.6 21.65 10.55 21.65 M10.3 21.5 L10.05 21.4 9.9 21.6 M9.7 22.0 L9.65 22.0 M9.2 22.45 L8.95 22.55 9.1 22.15 M9.25 21.85 L9.45 21.5 M9.65 21.1 L9.95 20.4 M10.0 19.95 L9.95 19.9 M3.6 19.55 L3.75 20.15 M3.8 20.4 L4.0 21.05 4.0 21.2 5.65 22.85 5.75 22.5 5.8 22.0 M2.75 19.15 L2.8 19.15 M3.15 18.95 L3.35 18.85 3.45 19.0 M2.15 19.4 L2.65 19.2 M5.9 21.6 L6.05 21.25 M6.3 21.55 L6.35 21.9 M6.4 22.55 L6.45 22.9 M9.95 19.5 L10.1 18.9"/><path fill="none" stroke="#000000" stroke-width="0.5" stroke-opacity="0.352941176471" d="M2.3 19.65 L2.15 19.4 Q1.8 18.75 1.75 18.1 1.5 15.55 2.15 12.45 L2.5 11.15 2.8 11.3 2.8 11.2 Q3.15 9.0 3.9 7.15 L4.35 7.0 4.15 8.05 Q3.95 10.05 4.5 11.35 L5.4 7.8 6.2 9.3 6.2 9.4 Q5.25 13.05 5.1 15.85 L6.0 17.6 6.85 18.05 7.1 18.2 7.2 17.85 7.25 17.4 7.35 17.2 M4.05 13.15 L4.5 11.35 M2.95 13.4 L2.9 11.3 2.9 11.25 M3.0 18.35 L3.5 15.35 Q3.05 14.7 2.9 13.5 L2.95 13.4 M4.05 13.15 L3.5 15.35 M5.1 15.85 Q5.0 17.55 5.15 18.9 L5.25 19.3 M7.1 18.2 Q6.75 20.45 6.8 22.6"/><path fill="none" stroke="#332720" stroke-width="0.5" stroke-opacity="0.450980392157" d="M14.45 23.0 L13.0 25.5 12.65 24.3 11.4 24.3 M14.15 23.0 L14.1 23.05"/><path fill="#795524" stroke="none" d="M8.3 17.2 L8.3 17.1 8.65 17.3 Q9.4 17.7 9.5 17.95 11.1 20.6 11.1 23.95 10.45 23.9 9.9 23.0 L9.15 20.6 9.25 23.55 8.4 23.05 8.05 22.55 Q8.4 19.8 6.5 17.55 L6.95 17.35 8.35 19.0 8.7 18.95 8.3 17.2 8.65 17.3 8.3 17.2"/><path fill="#af7d32" stroke="none" d="M1.85 17.85 Q2.7 17.0 4.4 16.2 6.45 16.25 8.25 17.1 L8.3 17.2 8.7 18.95 8.35 19.0 6.95 17.35 6.5 17.55 5.1 17.25 Q3.65 17.0 1.85 17.85"/><path fill="#473118" stroke="none" d="M10.55 25.0 L10.6 25.0 10.5 25.15 10.45 25.15 10.35 25.3 10.3 25.35 Q7.85 27.65 4.0 27.65 1.95 26.15 1.25 24.55 0.1 23.5 0.0 21.95 1.1 21.7 1.65 20.85 L2.2 19.65 4.05 19.3 Q4.6 20.2 4.8 21.2 L4.9 22.35 4.8 23.35 3.55 23.25 2.85 22.85 2.7 22.45 Q2.65 21.65 3.15 21.15 L3.5 22.75 4.45 22.8 Q5.0 21.25 3.9 19.7 L2.5 19.85 Q1.3 21.8 1.55 24.1 2.25 25.0 3.45 25.3 5.4 25.1 7.3 23.9 8.6 25.15 10.55 25.0 L10.45 25.15 10.3 25.35 10.45 25.15 10.55 25.0 M0.85 22.6 L1.15 24.2 1.25 24.55 1.15 24.2 0.85 22.6"/><path fill="#7d562b" stroke="none" d="M0.0 21.95 L0.5 20.0 0.8 19.95 2.7 18.75 Q4.3 18.75 5.55 19.7 L5.85 20.25 4.8 21.2 Q4.6 20.2 4.05 19.3 L2.2 19.65 1.65 20.85 Q1.1 21.7 0.0 21.95 M3.45 25.3 Q2.25 25.0 1.55 24.1 1.3 21.8 2.5 19.85 L3.9 19.7 Q5.0 21.25 4.45 22.8 L3.5 22.75 3.15 21.15 Q2.65 21.65 2.7 22.45 2.7 23.05 3.15 24.0 3.1 24.6 3.45 25.3 M4.8 23.35 L4.9 22.35 6.05 21.35 6.3 21.5 6.4 21.8 6.45 22.15 6.2 23.6 6.0 22.8 5.4 22.55 4.8 23.35"/><path fill="#593d1f" stroke="none" d="M11.1 23.95 L10.55 25.0 Q8.6 25.15 7.3 23.9 5.4 25.1 3.45 25.3 3.1 24.6 3.15 24.0 2.7 23.05 2.7 22.45 L2.85 22.85 3.55 23.25 4.8 23.35 5.4 22.55 6.0 22.8 6.2 23.6 6.45 22.15 6.4 21.8 6.3 21.5 6.05 20.6 5.85 20.25 5.55 19.7 Q4.3 18.75 2.7 18.75 L0.8 19.95 0.5 20.0 1.85 17.85 Q3.65 17.0 5.1 17.25 L6.5 17.55 Q8.4 19.8 8.05 22.55 L8.4 23.05 9.25 23.55 9.15 20.6 9.9 23.0 Q10.45 23.9 11.1 23.95"/><path fill="#664623" stroke="none" d="M4.9 22.35 L4.8 21.2 5.85 20.25 6.05 20.6 6.3 21.5 6.05 21.35 4.9 22.35"/><path fill="none" stroke="#332720" stroke-width="0.5" stroke-opacity="0.450980392157" d="M1.85 17.85 Q2.7 17.0 4.4 16.2 6.45 16.25 8.25 17.1 L8.3 17.2 8.65 17.3 Q9.4 17.7 9.5 17.95 11.1 20.6 11.1 23.95 L10.55 25.0 10.45 25.15 10.3 25.35 Q7.85 27.65 4.0 27.65 1.95 26.15 1.25 24.55 0.1 23.5 0.0 21.95 L0.5 20.0 1.85 17.85 Q3.65 17.0 5.1 17.25 L6.5 17.55 6.95 17.35 8.35 19.0 8.7 18.95 8.3 17.2 M10.6 25.0 L10.5 25.15 10.45 25.15 10.35 25.3 10.3 25.35 M4.8 21.2 Q4.6 20.2 4.05 19.3 L2.2 19.65 1.65 20.85 Q1.1 21.7 0.0 21.95 M2.7 22.45 L2.85 22.85 3.55 23.25 4.8 23.35 4.9 22.35 4.8 21.2 5.85 20.25 5.55 19.7 M5.85 20.25 L6.05 20.6 6.3 21.5 6.4 21.8 6.45 22.15 M1.25 24.55 L1.15 24.2 0.85 22.6"/><path fill="#7c6c38" stroke="none" d="M12.85 18.7 L12.8 18.25 13.05 17.9 13.45 17.9 Q13.7 17.95 13.85 18.15 L13.85 18.55 13.6 18.9 13.2 18.95 12.85 18.7 M11.45 20.5 Q11.85 20.6 12.05 20.95 L12.1 21.55 11.75 22.1 11.05 22.15 10.55 21.75 10.5 21.15 Q10.55 20.8 10.85 20.6 L11.45 20.5 M14.75 24.2 L14.65 24.3 14.45 24.35 14.3 24.25 14.3 24.05 14.4 23.9 14.6 23.9 14.75 24.0 14.75 24.2"/><path fill="#422d17" stroke="none" d="M12.25 22.95 L12.8 23.75 13.05 24.2 13.1 24.65 11.95 27.1 11.6 27.05 10.8 26.7 Q10.6 25.55 11.35 24.55 L12.05 23.5 12.25 22.95"/><path fill="#51391c" stroke="none" d="M12.25 22.95 L12.05 23.5 11.35 24.55 Q10.6 25.55 10.8 26.7 L11.6 27.05 8.0 26.75 6.9 25.55 6.9 25.5 9.35 22.05 12.25 22.95"/><path fill="#6b502c" stroke="none" d="M6.9 25.5 L6.9 25.55 6.8 25.6 6.9 25.5"/><path fill="none" stroke="#000000" stroke-width="0.5" stroke-opacity="0.152941176471" d="M11.95 27.1 L13.1 24.65 13.05 24.2 12.8 23.75 12.25 22.95 12.05 23.5 11.35 24.55 Q10.6 25.55 10.8 26.7 L11.6 27.05 M12.25 22.95 L9.35 22.05 6.9 25.5 6.9 25.55 8.0 26.75 M6.9 25.5 L6.75 25.35 M6.9 25.5 L6.8 25.6"/><path fill="#422d17" stroke="none" d="M18.0 26.6 L18.75 26.25 Q18.95 25.25 18.25 24.35 L17.6 23.35 17.45 22.9 16.95 23.6 16.75 24.0 16.65 24.4 17.7 26.65 18.0 26.6"/><path fill="#51391c" stroke="none" d="M17.45 22.9 L17.6 23.35 18.25 24.35 Q18.95 25.25 18.75 26.25 L18.0 26.6 21.3 26.3 22.3 25.2 20.05 22.05 17.45 22.9"/><path fill="#6b502c" stroke="none" d="M22.3 25.2 L22.35 25.25 22.3 25.2"/><path fill="none" stroke="#000000" stroke-width="0.5" stroke-opacity="0.152941176471" d="M17.45 22.9 L17.6 23.35 18.25 24.35 Q18.95 25.25 18.75 26.25 L18.0 26.6 M17.7 26.65 L16.65 24.4 16.75 24.0 16.95 23.6 17.45 22.9 20.05 22.05 22.3 25.2 21.3 26.3 M22.3 25.2 L22.35 25.25 M22.3 25.2 L22.45 25.05"/></g><g id="c31"><g><use transform="matrix(1.0,0.0,0.0,1.0,0.0,0.0)" xlink:href="#c30"/></g></g><radialGradient gradientUnits="userSpaceOnUse" r="819.2" cx="0" cy="0" spreadMethod="pad" gradientTransform="matrix(0.0292816162109,0.0,0.0,0.0292816162109,0.6,3.4)" id="gradient7"><stop offset="0.0" stop-color="#ffffff"/><stop offset="1.0" stop-color="#ffffff" stop-opacity="0.0"/></radialGradient><g id="c32"><path stroke="none" fill="url(#gradient7)" d="M22.75 -3.45 Q26.2 5.15 22.15 13.2 18.15 21.3 9.0 24.15 -0.2 26.95 -9.1 22.9 -18.05 18.8 -21.5 10.2 -25.0 1.65 -20.95 -6.4 L-20.95 -6.45 Q-16.9 -14.5 -7.75 -17.35 1.4 -20.2 10.35 -16.1 L12.15 -15.2 Q19.65 -11.15 22.75 -3.45"/></g><g id="c33"><g><use transform="matrix(1.0,0.0,0.0,1.0,0.0,0.0)" xlink:href="#c32"/></g></g><g id="c34"><g><use transform="matrix(1.0,0.0,0.0,1.0,6.3,53.35)" xlink:href="#c9"/></g><g><use transform="matrix(0.534454345703,-0.226715087891,0.226715087891,0.534454345703,16.95,73.7)" xlink:href="#c28"/></g><g><use transform="matrix(1.0,0.0,0.0,1.0,0.0,0.0)" xlink:href="#c29"/></g><g><use transform="matrix(0.425994873047,-0.180709838867,0.180709838867,0.425994873047,25.45,72.35)" filter="url(#filter39)" xlink:href="#c31"/></g><g><use transform="matrix(0.150741577148,-0.0639190673828,0.0391693115234,0.0923614501953,24.05,71.85)" filter="url(#filter40)" xlink:href="#c33"/></g><g><use transform="matrix(0.123992919922,-0.0525970458984,0.0238800048828,0.0563049316406,22.15,69.1)" filter="url(#filter41)" xlink:href="#c33"/></g><g><use transform="matrix(0.0724182128906,-0.0307159423828,0.0329132080078,0.0775909423828,33.7,71.7)" filter="url(#filter42)" xlink:href="#c33"/></g><g><use transform="matrix(0.110046386719,-0.0466766357422,0.0780334472656,0.184020996094,22.75,78.4)" filter="url(#filter43)" xlink:href="#c33"/></g><g><use transform="matrix(0.141098022461,-0.0378112792969,0.111373901367,0.225646972656,27.2,74.05)" filter="url(#filter44)" xlink:href="#c6"/></g></g><filter id="filter39"><feColorMatrix in="SourceGraphic" type="matrix" values="0.70703125 0.0 0.0 0.0 0.05859375 0.0 0.70703125 0.0 0.0 0.1171875 0.0 0.0 0.70703125 0.0 0.1171875 0.0 0.0 0.0 1.0 0.0" result="cxform"/><feComposite operator="in" in2="SourceGraphic" result="color-xform"/></filter><filter id="filter40"><feColorMatrix in="SourceGraphic" type="matrix" values="1.0 0.0 0.0 0.0 0.0 0.0 1.0 0.0 0.0 0.0 0.0 0.0 1.0 0.0 0.0 0.0 0.0 0.0 0.19921875 0.0" result="cxform"/><feComposite operator="in" in2="SourceGraphic" result="color-xform"/></filter><filter id="filter41"><feColorMatrix in="SourceGraphic" type="matrix" values="1.0 0.0 0.0 0.0 0.0 0.0 1.0 0.0 0.0 0.0 0.0 0.0 1.0 0.0 0.0 0.0 0.0 0.0 0.19921875 0.0" result="cxform"/><feComposite operator="in" in2="SourceGraphic" result="color-xform"/></filter><filter id="filter42"><feColorMatrix in="SourceGraphic" type="matrix" values="1.0 0.0 0.0 0.0 0.0 0.0 1.0 0.0 0.0 0.0 0.0 0.0 1.0 0.0 0.0 0.0 0.0 0.0 0.19921875 0.0" result="cxform"/><feComposite operator="in" in2="SourceGraphic" result="color-xform"/></filter><filter id="filter43"><feColorMatrix in="SourceGraphic" type="matrix" values="1.0 0.0 0.0 0.0 0.0 0.0 1.0 0.0 0.0 0.0 0.0 0.0 1.0 0.0 0.0 0.0 0.0 0.0 0.19921875 0.0" result="cxform"/><feComposite operator="in" in2="SourceGraphic" result="color-xform"/></filter><filter id="filter44"><feColorMatrix in="SourceGraphic" type="matrix" values="1.0 0.0 0.0 0.0 0.0 0.0 1.0 0.0 0.0 0.0 0.0 0.0 1.0 0.0 0.0 0.0 0.0 0.0 0.23046875 0.0" result="cxform"/><feComposite operator="in" in2="SourceGraphic" result="color-xform"/></filter></defs><g><g><use transform="matrix(1.0,0.0,0.0,1.0,0.0,0.0)" xlink:href="#c1"/></g><g><use transform="matrix(1.15496826172,0.0,0.0,1.15496826172,-1.55,-56.9)" xlink:href="#c34"/></g></g></svg>