<?xml version='1.0' encoding='UTF-8'?>
<svg xmlns:xlink="http://www.w3.org/1999/xlink" xmlns="http://www.w3.org/2000/svg" version="1.1" width="60px" height="60px" viewBox="0.0 0.0 60.0 60.0"><defs><g id="c1"><path fill="#000000" fill-opacity="0.00392156862745" d="M0.0 0.0 L60.0 0.0 60.0 60.0 0.0 60.0 0.0 0.0"/></g><g id="c2"><path fill="none" stroke="#000000" stroke-width="1.0" stroke-opacity="0.301960784314" d="M0.7 12.25 Q-0.45 9.75 0.75 8.25 1.2 7.6 2.15 7.15 2.8 6.7 3.8 6.35 L17.5 1.95 30.2 7.0 41.35 31.7 Q42.95 35.15 40.2 36.7 39.5 37.3 38.3 37.65 L19.8 43.65 Q17.15 44.45 15.5 43.3 14.35 42.55 13.65 40.9 L0.7 12.25"/><path fill="#9d147b" stroke="none" d="M35.55 22.3 L31.5 13.2 29.75 9.2 16.95 4.25 5.5 7.85 Q1.65 9.1 3.35 12.8 L8.25 23.65 15.0 38.6 15.2 39.0 Q16.8 42.25 20.45 41.1 L37.2 35.7 Q41.1 34.5 39.35 30.75 L35.55 22.3 M2.15 7.15 Q2.8 6.7 3.8 6.35 L17.5 1.95 30.2 7.0 41.35 31.7 Q42.95 35.15 40.2 36.7 L38.9 37.25 23.2 42.3 20.4 43.2 19.1 43.5 17.3 43.4 Q15.3 42.9 14.2 40.5 L5.45 20.95 1.35 11.8 Q0.4 9.65 1.1 8.3 1.45 7.65 2.15 7.15"/><path fill="#c47fad" stroke="none" d="M31.5 13.2 L35.55 22.3 39.35 30.75 Q41.1 34.5 37.2 35.7 L20.45 41.1 Q16.8 42.25 15.2 39.0 L15.0 38.6 8.25 23.65 3.35 12.8 Q1.65 9.1 5.5 7.85 L16.95 4.25 29.75 9.2 31.5 13.2 M18.5 7.45 L9.1 10.55 9.55 11.6 Q9.8 12.8 9.15 13.6 8.4 14.45 7.1 14.4 L6.8 14.4 6.95 14.6 16.3 35.2 Q16.8 36.4 17.65 37.0 18.8 37.8 20.65 37.2 L34.0 32.9 33.7 32.1 Q33.45 30.9 34.1 30.1 34.75 29.3 35.95 29.35 L35.8 29.0 27.75 10.95 18.5 7.45"/><path fill="#630a4c" stroke="none" d="M0.75 8.25 Q1.2 7.6 2.15 7.15 1.45 7.65 1.1 8.3 L0.75 8.25 M23.3 42.5 L20.1 43.55 19.1 43.5 20.4 43.2 23.2 42.3 23.3 42.5 M15.5 43.3 Q14.35 42.55 13.65 40.9 L4.6 20.9 5.45 20.95 14.2 40.5 Q15.3 42.9 17.3 43.4 L15.5 43.3"/><path fill="#300525" stroke="none" d="M4.6 20.9 L0.7 12.25 Q-0.45 9.75 0.75 8.25 L1.1 8.3 Q0.4 9.65 1.35 11.8 L5.45 20.95 4.6 20.9 M40.2 36.7 Q39.5 37.3 38.3 37.65 L23.3 42.5 23.2 42.3 38.9 37.25 40.2 36.7 M20.1 43.55 L19.8 43.65 Q17.15 44.45 15.5 43.3 L17.3 43.4 19.1 43.5 20.1 43.55"/><path fill="#fcf2cf" stroke="none" d="M27.75 10.95 L35.8 29.0 35.95 29.35 Q34.75 29.3 34.1 30.1 33.45 30.9 33.7 32.1 L34.0 32.9 20.65 37.2 Q18.8 37.8 17.65 37.0 16.8 36.4 16.3 35.2 L6.95 14.6 6.8 14.4 7.1 14.4 Q8.4 14.45 9.15 13.6 9.8 12.8 9.55 11.6 L9.1 10.55 18.5 7.45 27.75 10.95"/><path fill="none" stroke="#bf9900" stroke-width="1.0" stroke-opacity="0.749019607843" d="M31.5 13.2 L35.55 22.3 M15.0 38.6 L8.25 23.65"/><path fill="none" stroke="#ffcc00" stroke-width="1.0" stroke-opacity="0.749019607843" d="M35.55 22.3 L39.35 30.75 Q41.1 34.5 37.2 35.7 L20.45 41.1 Q16.8 42.25 15.2 39.0 L15.0 38.6 M8.25 23.65 L3.35 12.8 Q1.65 9.1 5.5 7.85 L16.95 4.25 29.75 9.2 31.5 13.2"/><path fill="none" stroke="#000000" stroke-width="0.5" stroke-opacity="0.301960784314" d="M4.6 20.9 L0.7 12.25 Q-0.45 9.75 0.75 8.25 1.2 7.6 2.15 7.15 2.8 6.7 3.8 6.35 L17.5 1.95 M30.2 7.0 L41.35 31.7 Q42.95 35.15 40.2 36.7 39.5 37.3 38.3 37.65 L23.3 42.5 20.1 43.55 19.8 43.65 Q17.15 44.45 15.5 43.3 14.35 42.55 13.65 40.9 L4.6 20.9 M5.45 20.95 L1.35 11.8 Q0.4 9.65 1.1 8.3 1.45 7.65 2.15 7.15 M19.1 43.5 L17.3 43.4 Q15.3 42.9 14.2 40.5 L5.45 20.95 M23.2 42.3 L20.4 43.2 19.1 43.5 M40.2 36.7 L38.9 37.25 23.2 42.3"/><path fill="none" stroke="#f0b92b" stroke-width="0.5" d="M27.75 10.95 L35.8 29.0 35.95 29.35 Q34.75 29.3 34.1 30.1 33.45 30.9 33.7 32.1 L34.0 32.9 20.65 37.2 Q18.8 37.8 17.65 37.0 16.8 36.4 16.3 35.2 L6.95 14.6 6.8 14.4 7.1 14.4 Q8.4 14.45 9.15 13.6 9.8 12.8 9.55 11.6 L9.1 10.55 18.5 7.45"/><path fill="none" stroke="#ffcc00" stroke-width="0.5" stroke-opacity="0.749019607843" d="M18.5 7.45 L27.75 10.95"/></g><g id="c3"><path fill="#7fdbfe" stroke="none" d="M10.75 4.9 Q10.75 4.6 10.9 4.35 11.25 3.45 11.95 2.75 13.3 1.5 14.35 2.1 15.4 2.7 14.95 4.45 14.7 5.4 14.1 6.15 L13.75 6.5 Q13.1 7.15 12.35 7.35 L11.4 7.2 Q10.95 6.9 10.75 6.4 10.5 5.75 10.75 4.9 M7.5 5.9 Q7.0 5.85 6.6 5.5 6.05 5.0 5.8 4.15 L5.7 3.6 Q5.55 2.65 5.8 1.7 6.25 0.0 7.5 0.0 L7.6 0.0 Q8.85 0.0 9.3 1.7 9.55 2.65 9.4 3.6 L9.3 4.15 8.5 5.5 7.6 5.9 7.5 5.9 M4.35 4.9 Q4.6 5.75 4.35 6.4 L3.7 7.2 2.75 7.35 Q2.0 7.15 1.35 6.5 L1.0 6.15 Q0.4 5.4 0.15 4.45 -0.3 2.7 0.75 2.1 1.8 1.5 3.15 2.75 3.85 3.45 4.2 4.35 L4.35 4.9 M5.5 13.7 Q4.45 13.9 3.65 12.95 2.75 12.0 3.2 10.25 3.7 8.5 5.25 7.6 6.4 6.9 7.55 7.0 8.75 6.9 9.9 7.6 11.45 8.5 11.95 10.25 12.35 12.0 11.5 12.95 10.7 13.9 9.65 13.7 8.55 13.5 7.55 12.6 6.55 13.5 5.5 13.7"/></g><g id="c4"><g><use transform="matrix(1.0,0.0,0.0,1.0,0.0,0.0)" xlink:href="#c3"/></g></g><radialGradient gradientUnits="userSpaceOnUse" r="819.2" cx="0" cy="0" spreadMethod="pad" gradientTransform="matrix(0.0914459228516,0.0,0.0,0.0914459228516,0.6,3.4)" id="gradient1"><stop offset="0.0" stop-color="#ffffff"/><stop offset="1.0" stop-color="#ffffff" stop-opacity="0.0"/></radialGradient><g id="c5"><path stroke="none" fill="url(#gradient1)" d="M36.65 -54.65 Q60.05 -42.0 69.75 -17.95 80.55 8.9 68.0 34.1 55.45 59.35 26.8 68.2 -1.8 77.05 -29.7 64.3 -57.6 51.6 -68.45 24.75 -79.3 -2.05 -66.75 -27.25 L-66.7 -27.3 Q-54.1 -52.5 -25.5 -61.4 3.1 -70.2 31.0 -57.5 L36.65 -54.65"/></g><g id="c6"><g><use transform="matrix(1.0,0.0,0.0,1.0,0.0,0.0)" xlink:href="#c5"/></g></g><radialGradient gradientUnits="userSpaceOnUse" r="819.2" cx="0" cy="0" spreadMethod="pad" gradientTransform="matrix(0.209197998047,0.0,0.0,0.177108764648,67.15,107.2)" id="gradient2"><stop offset="0.356862745098" stop-color="#ffffff"/><stop offset="0.670588235294" stop-opacity="0.0"/></radialGradient><g id="c7"><path fill="none" stroke-linejoin="round" stroke-linecap="round" stroke="url(#gradient2)" stroke-width="0.5" d="M136.55 165.8 L68.6 106.0 68.4 106.0 118.25 201.5 M68.3 105.8 L68.35 105.8 68.3 105.8 68.3 105.85 68.4 106.0 68.3 106.0 86.55 211.5 M68.3 105.8 L68.3 105.85 68.3 106.0 68.15 105.95 18.25 151.55 M68.3 105.85 L68.25 105.85 68.3 106.0 50.0 193.2 M68.25 105.85 L68.15 105.95 0.05 97.7 M68.3 105.85 L68.25 105.8 68.25 105.85 M68.25 105.8 L68.2 105.7 0.0 45.7 M68.3 105.8 L68.25 105.75 68.25 105.8 M68.25 105.75 L68.2 105.7 18.25 10.05 M68.6 106.0 L68.35 105.8 118.25 60.15 M86.6 18.35 L68.3 105.8 M136.6 114.25 L68.6 106.0 M68.25 105.75 L49.95 0.05"/></g><g id="c8"><g><use transform="matrix(1.0,0.0,0.0,1.0,0.0,0.0)" xlink:href="#c7"/></g></g><g id="c9"><g><use transform="matrix(1.0,0.0,0.0,1.0,0.0,0.0)" xlink:href="#c2"/></g><g><use transform="matrix(0.238861083984,-0.0867004394531,0.10026550293,0.233917236328,34.25,31.15)" xlink:href="#c4"/></g><g><use transform="matrix(0.238861083984,-0.0867004394531,0.10026550293,0.233917236328,4.25,10.3)" xlink:href="#c4"/></g><g><use transform="matrix(0.141098022461,-0.0378112792969,0.111373901367,0.225646972656,20.25,20.65)" filter="url(#filter7)" xlink:href="#c6"/></g><g><use transform="matrix(-0.155029296875,0.0513153076172,0.0841827392578,0.147033691406,22.6,3.15)" filter="url(#filter8)" xlink:href="#c8"/></g></g><filter id="filter7"><feColorMatrix in="SourceGraphic" type="matrix" values="0.0 0.0 0.0 0.0 0.796875 0.0 0.0 0.0 0.0 0.59765625 0.0 0.0 0.0 0.0 0.19921875 0.0 0.0 0.0 1.0 0.0" result="cxform"/><feComposite operator="in" in2="SourceGraphic" result="color-xform"/></filter><filter id="filter8"><feColorMatrix in="SourceGraphic" type="matrix" values="0.0 0.0 0.0 0.0 0.99609375 0.0 0.0 0.0 0.0 0.99609375 0.0 0.0 0.0 0.0 0.99609375 0.0 0.0 0.0 1.0 0.0" result="cxform"/><feComposite operator="in" in2="SourceGraphic" result="color-xform"/></filter><g id="c10"><path fill="#706870" stroke="none" d="M1.45 0.0 Q1.7 1.05 2.45 1.85 L3.95 3.4 6.2 4.75 4.2 4.25 Q5.45 5.8 5.95 7.65 2.9 6.2 2.1 4.85 L3.0 6.35 4.4 8.2 2.75 7.3 Q3.25 9.1 6.05 11.45 L4.4 10.9 Q5.65 12.55 8.75 13.3 L8.9 13.9 Q7.65 13.7 7.1 13.1 L7.3 13.7 Q3.7 12.35 2.3 9.8 L3.9 10.45 Q1.15 8.1 0.65 5.9 0.15 3.6 0.45 2.4 L1.45 0.0"/><path fill="#9e929e" stroke="none" d="M6.2 4.75 L7.8 5.4 9.8 5.9 Q9.1 6.5 7.85 6.1 L9.35 6.75 10.2 7.4 Q10.95 8.3 11.1 8.95 L10.15 8.15 10.2 9.4 8.85 8.75 10.65 11.4 8.85 10.4 Q9.55 11.5 9.5 11.9 9.35 12.3 6.35 10.55 9.35 12.5 9.55 13.1 L8.75 13.3 Q5.65 12.55 4.4 10.9 L6.05 11.45 Q3.25 9.1 2.75 7.3 L4.4 8.2 3.0 6.35 2.1 4.85 Q2.9 6.2 5.95 7.65 5.45 5.8 4.2 4.25 L6.2 4.75"/><path fill="#c9d9d5" stroke="none" d="M10.2 7.4 L11.35 8.6 11.65 9.85 10.95 9.35 11.4 12.1 Q11.6 13.8 13.65 14.5 10.55 14.5 8.75 13.3 L9.55 13.1 Q9.35 12.5 6.35 10.55 9.35 12.3 9.5 11.9 9.55 11.5 8.85 10.4 L10.65 11.4 8.85 8.75 10.2 9.4 10.15 8.15 11.1 8.95 Q10.95 8.3 10.2 7.4"/><path fill="#acbab7" stroke="none" d="M13.65 14.5 L9.1 14.4 9.4 15.0 9.15 14.85 7.3 13.7 7.1 13.1 Q7.65 13.7 8.9 13.9 L8.75 13.3 Q10.55 14.5 13.65 14.5"/><path fill="#403a40" stroke="none" d="M5.5 13.7 Q2.8 12.2 1.35 10.25 -0.15 6.7 0.0 4.4 L0.15 3.15 0.45 2.4 Q0.15 3.6 0.65 5.9 1.15 8.1 3.9 10.45 L2.3 9.8 Q3.7 12.35 7.3 13.7 L5.5 13.7"/><path fill="#7e928b" stroke="none" d="M9.15 14.85 Q6.85 14.65 5.5 13.7 L7.3 13.7 9.15 14.85"/><path fill="none" stroke="#000000" stroke-width="0.5" stroke-opacity="0.301960784314" d="M1.45 0.0 Q1.7 1.05 2.45 1.85 L3.95 3.4 6.2 4.75 7.8 5.4 9.8 5.9 Q9.1 6.5 7.85 6.1 L9.35 6.75 10.2 7.4 11.35 8.6 M11.65 9.85 L10.95 9.35 11.4 12.1 Q11.6 13.8 13.65 14.5 L9.1 14.4 9.4 15.0 9.15 14.85 Q6.85 14.65 5.5 13.7 2.8 12.2 1.35 10.25 -0.15 6.7 0.0 4.4 L0.15 3.15"/><path fill="none" stroke="#666666" stroke-width="0.5" d="M11.35 8.6 L11.65 9.85"/></g><g id="c11"><g><use transform="matrix(1.0,0.0,0.0,1.0,0.0,0.0)" xlink:href="#c10"/></g></g><g id="c12"><path fill="#deb04b" stroke="none" d="M2.55 2.3 L3.85 2.45 4.45 2.4 4.65 2.35 4.7 2.2 Q4.95 1.5 4.7 1.1 L4.5 0.7 3.95 0.5 3.2 0.45 3.25 0.5 2.7 0.05 4.25 0.35 4.75 0.55 5.05 1.65 4.9 2.75 2.2 2.5 0.7 2.25 0.0 2.1 0.05 1.9 0.65 1.95 2.55 2.3"/><path fill="#a67812" stroke="none" d="M3.95 0.5 L4.5 0.7 4.7 1.1 Q4.95 1.5 4.7 2.2 L4.65 2.35 4.45 2.4 3.85 2.45 2.55 2.3 4.3 2.15 Q4.65 1.75 3.95 0.5"/><path fill="#edc257" stroke="none" d="M0.65 1.95 L0.05 1.9 Q0.2 1.0 1.1 0.15 L1.15 0.05 2.7 0.05 3.25 0.5 Q4.05 1.45 3.35 2.0 L0.65 1.95 M0.5 1.2 L1.3 0.55 1.45 1.2 1.65 0.6 2.9 0.25 1.3 0.25 0.5 1.2"/><path fill="#f9e8c1" stroke="none" d="M0.5 1.2 L1.3 0.25 2.9 0.25 1.65 0.6 1.45 1.2 1.3 0.55 0.5 1.2"/><path fill="#c79421" stroke="none" d="M2.55 2.3 L0.65 1.95 3.35 2.0 Q4.05 1.45 3.25 0.5 L3.2 0.45 3.95 0.5 Q4.65 1.75 4.3 2.15 L2.55 2.3"/><path fill="none" stroke="#000000" stroke-width="0.5" stroke-opacity="0.301960784314" d="M0.05 1.9 L0.0 2.1 0.7 2.25 2.2 2.5 4.9 2.75 5.05 1.65 4.75 0.55 4.25 0.35 2.7 0.05 1.15 0.05 1.1 0.15 Q0.2 1.0 0.05 1.9"/></g><g id="c13"><g><use transform="matrix(1.0,0.0,0.0,1.0,0.0,0.0)" xlink:href="#c12"/></g></g><g id="c14"><path fill="#706870" stroke="none" d="M27.3 74.6 Q27.45 75.5 27.95 76.2 L29.05 77.5 30.6 78.6 29.2 78.15 Q30.05 79.5 30.3 81.0 28.15 79.8 27.6 78.65 L28.2 79.95 Q28.7 81.0 29.15 81.45 L27.95 80.7 Q28.25 82.2 30.2 84.15 L28.95 83.7 Q29.85 85.1 32.1 85.7 L32.2 86.2 Q31.25 86.05 30.9 85.5 L31.0 86.0 Q28.45 84.9 27.45 82.75 L28.6 83.3 Q26.7 81.4 26.4 79.5 26.15 77.6 26.5 76.65 L27.3 74.6"/><path fill="#9e929e" stroke="none" d="M30.6 78.6 L31.8 79.15 33.25 79.6 31.8 79.75 32.85 80.3 33.45 80.85 34.05 82.1 33.4 81.45 33.4 82.45 32.4 81.95 33.6 84.2 32.35 83.25 32.7 84.55 Q32.6 84.9 30.45 83.45 32.6 85.05 32.7 85.55 L32.1 85.7 Q29.85 85.1 28.95 83.7 L30.2 84.15 Q28.25 82.2 27.95 80.7 L29.15 81.45 Q28.7 81.0 28.2 79.95 L27.6 78.65 Q28.15 79.8 30.3 81.0 30.05 79.5 29.2 78.15 L30.6 78.6"/><path fill="#c9d9d5" stroke="none" d="M33.45 80.85 L34.25 81.85 34.4 82.9 33.9 82.45 34.15 84.75 Q34.15 86.15 35.7 86.75 33.4 86.7 32.1 85.7 L32.7 85.55 Q32.6 85.05 30.45 83.45 32.6 84.9 32.7 84.55 L32.35 83.25 33.6 84.2 32.4 81.95 33.4 82.45 33.4 81.45 34.05 82.1 33.45 80.85"/><path fill="#acbab7" stroke="none" d="M35.7 86.75 L32.3 86.65 32.5 87.15 32.35 87.0 31.0 86.0 30.9 85.5 Q31.25 86.05 32.2 86.2 L32.1 85.7 Q33.4 86.7 35.7 86.75"/><path fill="#7e928b" stroke="none" d="M32.35 87.0 Q30.6 86.8 29.7 86.05 L31.0 86.0 32.35 87.0"/><path fill="#403a40" stroke="none" d="M29.7 86.05 Q27.75 84.8 26.75 83.15 25.8 80.2 26.05 78.25 L26.2 77.25 26.5 76.65 Q26.15 77.6 26.4 79.5 26.7 81.4 28.6 83.3 L27.45 82.75 Q28.45 84.9 31.0 86.0 L29.7 86.05"/><path fill="none" stroke="#000000" stroke-width="0.5" stroke-opacity="0.301960784314" d="M27.3 74.6 Q27.45 75.5 27.95 76.2 L29.05 77.5 30.6 78.6 31.8 79.15 33.25 79.6 31.8 79.75 32.85 80.3 33.45 80.85 34.25 81.85 M34.4 82.9 L33.9 82.45 34.15 84.75 Q34.15 86.15 35.7 86.75 L32.3 86.65 32.5 87.15 32.35 87.0 Q30.6 86.8 29.7 86.05 27.75 84.8 26.75 83.15 25.8 80.2 26.05 78.25 L26.2 77.25"/><path fill="none" stroke="#666666" stroke-width="0.5" d="M34.25 81.85 L34.4 82.9"/></g><g id="c15"><path fill="#706870" stroke="none" d="M24.95 75.0 Q24.8 75.8 25.0 76.55 L25.4 77.9 26.3 79.35 25.35 78.55 Q25.6 79.95 25.35 81.25 24.1 79.55 24.0 78.4 L24.1 79.7 24.35 81.3 23.75 80.25 Q23.5 81.6 24.4 83.85 L23.65 83.1 Q23.85 84.5 25.45 85.8 L25.35 86.2 Q24.7 85.75 24.6 85.2 L24.55 85.7 Q22.9 83.95 22.8 81.85 L23.5 82.7 Q22.6 80.45 22.95 78.8 23.2 77.15 23.75 76.4 L24.95 75.0"/><path fill="#403a40" stroke="none" d="M23.55 85.25 Q22.45 83.65 22.15 81.95 22.25 79.2 23.0 77.65 L23.4 76.8 23.75 76.4 Q23.2 77.15 22.95 78.8 22.6 80.45 23.5 82.7 L22.8 81.85 Q22.9 83.95 24.55 85.7 L23.55 85.25"/><path fill="#9e929e" stroke="none" d="M26.3 79.35 L27.05 80.2 28.0 81.0 Q27.5 81.25 26.8 80.65 L27.5 81.4 27.85 82.15 27.85 83.3 27.55 82.6 27.25 83.4 26.7 82.75 26.95 84.9 26.3 83.85 26.15 84.95 Q26.05 85.2 24.85 83.3 26.0 85.35 25.9 85.8 L25.45 85.8 Q23.85 84.5 23.65 83.1 L24.4 83.85 Q23.5 81.6 23.75 80.25 L24.35 81.3 24.1 79.7 24.0 78.4 Q24.1 79.55 25.35 81.25 25.6 79.95 25.35 78.55 L26.3 79.35"/><path fill="#c9d9d5" stroke="none" d="M27.85 82.15 L28.05 83.15 27.95 84.05 27.75 83.6 27.2 85.6 Q26.85 86.8 27.85 87.75 26.1 87.0 25.45 85.8 L25.9 85.8 Q26.0 85.35 24.85 83.3 26.05 85.2 26.15 84.95 L26.3 83.85 26.95 84.9 26.7 82.75 27.25 83.4 27.55 82.6 27.85 83.3 27.85 82.15"/><path fill="#7e928b" stroke="none" d="M25.25 86.9 Q24.0 86.25 23.55 85.25 L24.55 85.7 25.25 86.9"/><path fill="#acbab7" stroke="none" d="M27.85 87.75 Q26.05 87.3 25.35 86.6 L25.35 87.1 25.25 86.9 24.55 85.7 24.6 85.2 Q24.7 85.75 25.35 86.2 L25.45 85.8 Q26.1 87.0 27.85 87.75"/><path fill="none" stroke="#000000" stroke-width="0.5" stroke-opacity="0.301960784314" d="M24.95 75.0 Q24.8 75.8 25.0 76.55 L25.4 77.9 26.3 79.35 27.05 80.2 28.0 81.0 Q27.5 81.25 26.8 80.65 L27.5 81.4 27.85 82.15 28.05 83.15 M27.95 84.05 L27.75 83.6 27.2 85.6 Q26.85 86.8 27.85 87.75 26.05 87.3 25.35 86.6 L25.35 87.1 25.25 86.9 Q24.0 86.25 23.55 85.25 22.45 83.65 22.15 81.95 22.25 79.2 23.0 77.65 L23.4 76.8"/><path fill="none" stroke="#666666" stroke-width="0.5" d="M28.05 83.15 L27.95 84.05"/></g><g id="c16"><path fill="#c9d9d5" stroke="none" d="M20.15 68.95 Q20.0 68.25 19.3 67.85 22.85 67.4 22.9 65.6 L27.2 65.45 29.85 67.45 Q30.65 68.15 31.3 69.5 30.85 69.2 30.35 69.0 L30.8 69.9 Q31.2 70.9 30.95 72.55 30.7 70.9 30.05 69.65 29.9 68.95 29.3 68.4 L29.45 69.4 28.6 68.05 27.75 67.1 Q26.25 66.1 25.4 66.35 26.85 66.8 27.65 69.55 27.15 68.15 23.75 67.3 23.3 69.25 23.7 70.7 23.9 71.2 23.25 70.35 22.2 69.1 22.1 68.35 L21.8 70.9 Q20.6 68.75 20.4 68.7 L20.15 68.95"/><path fill="#acbab7" stroke="none" d="M20.4 68.7 Q20.6 68.75 21.8 70.9 L22.1 68.35 Q22.2 69.1 23.25 70.35 23.9 71.2 23.7 70.7 23.3 69.25 23.75 67.3 27.15 68.15 27.65 69.55 26.85 66.8 25.4 66.35 26.25 66.1 27.75 67.1 L28.6 68.05 29.45 69.4 29.3 68.4 Q29.9 68.95 30.05 69.65 30.7 70.9 30.95 72.55 L30.85 72.85 30.75 73.65 29.9 73.0 29.2 71.65 28.95 72.95 27.65 72.25 27.45 75.5 Q23.1 72.85 22.35 71.4 L21.75 73.5 20.75 71.5 Q20.15 70.5 20.4 68.7"/><path fill="#909c9a" stroke="none" d="M20.15 68.95 L20.4 68.7 Q20.15 70.5 20.75 71.5 L21.75 73.5 22.35 71.4 Q23.1 72.85 27.45 75.5 L27.65 72.25 28.95 72.95 29.2 71.65 29.9 73.0 Q30.35 73.9 30.5 76.65 29.55 74.15 27.95 73.85 L28.8 75.1 28.75 76.4 Q28.75 77.35 29.4 78.0 26.1 76.5 24.1 74.2 L24.0 76.55 22.45 73.55 21.95 75.3 20.75 74.05 Q20.3 73.2 20.25 71.75 L20.15 68.95"/><path fill="#7f918e" stroke="none" d="M30.5 76.65 L28.8 75.1 27.95 73.85 Q29.55 74.15 30.5 76.65 M29.4 78.0 Q27.75 77.6 27.5 77.4 L27.25 79.0 Q27.15 78.0 26.45 77.0 26.35 78.2 25.75 78.95 L25.75 77.6 Q25.7 78.8 25.0 79.85 L24.7 77.55 23.9 78.5 Q24.1 77.75 24.45 77.15 L23.3 78.6 Q22.85 78.1 22.95 76.0 22.6 76.45 22.45 77.15 L21.3 75.45 20.75 74.05 21.95 75.3 22.45 73.55 24.0 76.55 24.1 74.2 Q26.1 76.5 29.4 78.0"/><path fill="none" stroke="#000000" stroke-width="0.5" stroke-opacity="0.301960784314" d="M30.95 72.55 Q31.2 70.9 30.8 69.9 L30.35 69.0 Q30.85 69.2 31.3 69.5 30.65 68.15 29.85 67.45 L27.2 65.45 22.9 65.6 Q22.85 67.4 19.3 67.85 20.0 68.25 20.15 68.95 M30.95 72.55 L30.85 72.85 30.75 73.65 29.9 73.0 Q30.35 73.9 30.5 76.65 L28.8 75.1 28.75 76.4 Q28.75 77.35 29.4 78.0 27.75 77.6 27.5 77.4 L27.25 79.0 Q27.15 78.0 26.45 77.0 26.35 78.2 25.75 78.95 L25.75 77.6 Q25.7 78.8 25.0 79.85 L24.7 77.55 23.9 78.5 Q24.1 77.75 24.45 77.15 L23.3 78.6 Q22.85 78.1 22.95 76.0 22.6 76.45 22.45 77.15 L21.3 75.45 20.75 74.05 Q20.3 73.2 20.25 71.75 L20.15 68.95"/><path fill="#ab9550" stroke="none" d="M20.2 68.5 L20.4 68.95 20.4 69.5 21.15 69.4 Q21.65 69.05 21.5 68.35 L21.3 68.6 20.8 68.6 20.2 68.5 20.8 68.6 21.3 68.6 21.5 68.35 21.4 68.0 20.45 66.45 20.65 66.9 20.5 67.25 Q20.2 67.4 19.9 67.05 L19.45 66.8 Q19.2 66.55 18.95 66.45 18.65 66.3 18.25 66.45 L18.1 66.5 17.55 66.65 17.25 66.3 17.35 66.85 17.95 67.35 Q17.95 67.15 18.3 67.0 L18.55 66.95 Q18.85 67.0 19.45 67.55 L19.5 67.6 Q20.05 68.1 20.2 68.5 M18.55 66.95 L18.1 66.5 18.55 66.95 M19.45 67.55 L19.45 66.9 19.45 66.8 19.45 66.9 19.45 67.55"/><path fill="#d9bc75" stroke="none" d="M18.0 65.55 Q17.5 65.65 17.35 65.95 L17.25 66.3 17.55 66.65 18.1 66.5 18.05 66.45 17.8 65.95 18.0 65.55 M19.45 66.8 L19.9 67.05 Q20.2 67.4 20.5 67.25 L20.65 66.9 20.45 66.45 20.45 66.4 20.05 66.25 19.85 66.35 19.45 66.8"/><path fill="#ecd182" stroke="none" d="M20.35 66.35 L20.3 66.3 Q19.6 65.35 18.6 65.4 L18.0 65.55 17.8 65.95 18.05 66.45 18.1 66.5 18.25 66.45 Q18.65 66.3 18.95 66.45 19.2 66.55 19.45 66.8 L19.85 66.35 20.05 66.25 20.45 66.4 20.35 66.35"/><path fill="#998648" stroke="none" d="M20.45 66.45 L20.35 66.35 20.45 66.4 20.45 66.45"/><path fill="none" stroke="#000000" stroke-width="0.5" stroke-opacity="0.301960784314" d="M21.5 68.35 Q21.65 69.05 21.15 69.4 L20.4 69.5 20.4 68.95 20.2 68.5 M21.5 68.35 L21.4 68.0 20.45 66.45 20.35 66.35 20.3 66.3 Q19.6 65.35 18.6 65.4 L18.0 65.55 Q17.5 65.65 17.35 65.95 L17.25 66.3 17.35 66.85 17.95 67.35 Q17.95 67.15 18.3 67.0 L18.55 66.95 Q18.85 67.0 19.45 67.55 L19.5 67.6 Q20.05 68.1 20.2 68.5"/><path fill="none" stroke="#000000" stroke-width="0.5" stroke-opacity="0.2" d="M20.2 68.5 L20.8 68.6 21.3 68.6 21.5 68.35 M18.1 66.5 L18.55 66.95 M19.45 66.8 L19.45 66.9 19.45 67.55 M18.0 65.55 L17.8 65.95 18.05 66.45 18.1 66.5 M19.45 66.8 L19.85 66.35 20.05 66.25 20.45 66.4"/><path fill="#ab9550" stroke="none" d="M19.9 69.0 L20.1 69.4 20.0 69.85 Q20.25 70.05 20.8 69.6 21.35 69.2 21.2 68.65 L21.05 68.85 20.5 68.95 19.9 69.0 20.5 68.95 21.05 68.85 21.2 68.65 21.15 68.4 Q21.0 67.95 20.25 67.15 L20.5 67.55 20.3 67.85 19.65 67.8 19.3 67.65 18.75 67.45 17.95 67.6 17.85 67.6 17.2 67.9 16.95 67.65 Q16.85 67.85 17.05 68.05 L17.6 68.4 18.0 68.0 18.2 68.0 19.15 68.3 19.2 68.35 19.9 69.0 M18.2 68.0 L17.85 67.6 18.2 68.0 M19.15 68.3 L19.25 67.7 19.3 67.65 19.25 67.7 19.15 68.3"/><path fill="#d9bc75" stroke="none" d="M17.8 66.8 L17.1 67.3 16.95 67.65 17.2 67.9 17.85 67.6 17.8 67.6 17.55 67.25 17.8 66.8 M19.3 67.65 L19.65 67.8 20.3 67.85 20.5 67.55 20.25 67.15 19.9 67.1 19.65 67.2 Q19.35 67.35 19.3 67.65"/><path fill="#ecd182" stroke="none" d="M20.2 67.1 L20.15 67.05 Q19.45 66.4 18.45 66.6 L17.8 66.8 17.55 67.25 17.8 67.6 17.85 67.6 17.95 67.6 18.75 67.45 19.3 67.65 Q19.35 67.35 19.65 67.2 L19.9 67.1 20.25 67.15 20.2 67.1"/><path fill="#998648" stroke="none" d="M20.25 67.15 L20.25 67.1 20.2 67.1 20.25 67.15"/><path fill="none" stroke="#000000" stroke-width="0.5" stroke-opacity="0.301960784314" d="M21.2 68.65 Q21.35 69.2 20.8 69.6 20.25 70.05 20.0 69.85 L20.1 69.4 19.9 69.0 M21.2 68.65 L21.15 68.4 Q21.0 67.95 20.25 67.15 L20.25 67.1 20.2 67.1 20.15 67.05 Q19.45 66.4 18.45 66.6 L17.8 66.8 17.1 67.3 16.95 67.65 Q16.85 67.85 17.05 68.05 L17.6 68.4 18.0 68.0 18.2 68.0 19.15 68.3 19.2 68.35 19.9 69.0"/><path fill="none" stroke="#000000" stroke-width="0.5" stroke-opacity="0.2" d="M19.9 69.0 L20.5 68.95 21.05 68.85 21.2 68.65 M17.85 67.6 L18.2 68.0 M19.3 67.65 L19.25 67.7 19.15 68.3 M17.8 66.8 L17.55 67.25 17.8 67.6 17.85 67.6 M19.3 67.65 Q19.35 67.35 19.65 67.2 L19.9 67.1 20.25 67.15"/><path fill="#ab9550" stroke="none" d="M23.8 65.4 L23.85 65.85 23.75 66.25 24.4 66.35 Q24.85 66.1 24.9 65.55 L24.7 65.7 24.25 65.6 23.8 65.4 24.25 65.6 24.7 65.7 24.9 65.55 24.9 65.25 24.45 63.8 24.5 64.2 24.3 64.45 23.85 64.15 23.6 63.9 23.2 63.5 22.6 63.35 22.55 63.35 22.0 63.35 21.8 63.0 Q21.75 63.25 21.85 63.5 L22.2 64.05 22.6 63.8 22.75 63.85 23.35 64.5 23.4 64.55 23.8 65.4 M22.75 63.85 L22.55 63.35 22.75 63.85 M23.35 64.5 L23.5 63.95 23.6 63.9 23.5 63.95 23.35 64.5"/><path fill="#d9bc75" stroke="none" d="M22.6 62.55 Q22.15 62.55 22.0 62.75 L21.8 63.0 22.0 63.35 22.55 63.35 22.5 63.3 22.35 62.85 22.6 62.55 M23.6 63.9 L23.85 64.15 24.3 64.45 24.5 64.2 24.45 63.8 24.4 63.75 24.15 63.55 23.95 63.6 23.6 63.9"/><path fill="#ecd182" stroke="none" d="M24.35 63.7 L24.35 63.65 Q23.9 62.7 23.15 62.55 L22.6 62.55 22.35 62.85 22.5 63.3 22.55 63.35 22.6 63.35 23.2 63.5 23.6 63.9 23.95 63.6 24.15 63.55 24.4 63.75 24.35 63.7"/><path fill="#998648" stroke="none" d="M24.45 63.8 L24.4 63.7 24.35 63.7 24.4 63.75 24.45 63.8"/><path fill="none" stroke="#000000" stroke-width="0.5" stroke-opacity="0.301960784314" d="M24.9 65.55 Q24.85 66.1 24.4 66.35 L23.75 66.25 23.85 65.85 23.8 65.4 M24.9 65.55 L24.9 65.25 24.45 63.8 24.4 63.7 24.35 63.7 24.35 63.65 Q23.9 62.7 23.15 62.55 L22.6 62.55 Q22.15 62.55 22.0 62.75 L21.8 63.0 Q21.75 63.25 21.85 63.5 L22.2 64.05 22.6 63.8 22.75 63.85 23.35 64.5 23.4 64.55 23.8 65.4"/><path fill="none" stroke="#000000" stroke-width="0.5" stroke-opacity="0.2" d="M23.8 65.4 L24.25 65.6 24.7 65.7 24.9 65.55 M22.55 63.35 L22.75 63.85 M23.6 63.9 L23.5 63.95 23.35 64.5 M22.6 62.55 L22.35 62.85 22.5 63.3 22.55 63.35 M23.6 63.9 L23.95 63.6 24.15 63.55 24.4 63.75"/><path fill="#ab9550" stroke="none" d="M23.5 65.65 L23.55 66.0 23.4 66.45 24.1 66.35 Q24.65 66.15 24.65 65.65 L24.45 65.8 24.0 65.75 23.5 65.65 24.0 65.75 24.45 65.8 24.65 65.65 24.65 65.45 24.15 64.3 24.25 64.6 24.05 64.85 23.5 64.65 23.25 64.45 22.85 64.2 22.2 64.1 22.1 64.15 21.5 64.25 21.35 64.0 21.35 64.35 21.75 64.75 Q21.75 64.6 22.15 64.5 L22.35 64.55 23.0 64.95 23.05 65.0 23.5 65.65 M22.35 64.55 L22.1 64.15 22.35 64.55 M23.0 64.95 L23.2 64.55 23.25 64.45 23.2 64.55 23.0 64.95"/><path fill="#d9bc75" stroke="none" d="M22.25 63.5 Q21.75 63.55 21.55 63.75 L21.35 64.0 21.5 64.25 22.1 64.15 22.05 64.1 21.9 63.75 22.25 63.5 M23.25 64.45 L23.5 64.65 24.05 64.85 24.25 64.6 24.15 64.3 23.85 64.15 23.65 64.2 23.25 64.45"/><path fill="#ecd182" stroke="none" d="M24.1 64.2 Q23.65 63.45 22.8 63.5 L22.25 63.5 21.9 63.75 22.05 64.1 22.1 64.15 22.2 64.1 22.85 64.2 23.25 64.45 23.65 64.2 23.85 64.15 24.15 64.3 24.1 64.2"/><path fill="#998648" stroke="none" d="M24.15 64.3 L24.1 64.25 24.1 64.2 24.15 64.3"/><path fill="none" stroke="#000000" stroke-width="0.5" stroke-opacity="0.301960784314" d="M24.65 65.65 Q24.65 66.15 24.1 66.35 L23.4 66.45 23.55 66.0 23.5 65.65 M24.65 65.65 L24.65 65.45 24.15 64.3 24.1 64.25 24.1 64.2 Q23.65 63.45 22.8 63.5 L22.25 63.5 Q21.75 63.55 21.55 63.75 L21.35 64.0 21.35 64.35 21.75 64.75 Q21.75 64.6 22.15 64.5 L22.35 64.55 23.0 64.95 23.05 65.0 23.5 65.65"/><path fill="none" stroke="#000000" stroke-width="0.5" stroke-opacity="0.2" d="M23.5 65.65 L24.0 65.75 24.45 65.8 24.65 65.65 M22.1 64.15 L22.35 64.55 M23.25 64.45 L23.2 64.55 23.0 64.95 M22.25 63.5 L21.9 63.75 22.05 64.1 22.1 64.15 M23.25 64.45 L23.65 64.2 23.85 64.15 24.15 64.3"/></g><g id="c17"><g><use transform="matrix(1.0,0.0,0.0,1.0,6.3,53.35)" xlink:href="#c9"/></g><g><use transform="matrix(0.741638183594,-0.128005981445,0.128005981445,0.741638183594,27.15,72.6)" filter="url(#filter12)" xlink:href="#c11"/></g><g><use transform="matrix(0.392837524414,-0.639785766602,0.639785766602,0.392837524414,27.4,76.7)" filter="url(#filter13)" xlink:href="#c13"/></g><g><use transform="matrix(1.0,0.0,0.0,1.0,0.0,0.0)" xlink:href="#c14"/></g><g><use transform="matrix(0.622192382812,-0.421768188477,0.421768188477,0.622192382812,24.85,78.05)" filter="url(#filter15)" xlink:href="#c13"/></g><g><use transform="matrix(1.0,0.0,0.0,1.0,0.0,0.0)" xlink:href="#c15"/></g><g><use transform="matrix(0.741638183594,-0.128005981445,0.128005981445,0.741638183594,22.1,77.55)" xlink:href="#c13"/></g><g><use transform="matrix(1.0,0.0,0.0,1.0,0.0,0.0)" xlink:href="#c16"/></g><g><use transform="matrix(0.141098022461,-0.0378112792969,0.111373901367,0.225646972656,27.2,74.05)" filter="url(#filter19)" xlink:href="#c6"/></g></g><filter id="filter12"><feColorMatrix in="SourceGraphic" type="matrix" values="0.640625 0.0 0.0 0.0 0.0 0.0 0.640625 0.0 0.0 0.0 0.0 0.0 0.640625 0.0 0.0 0.0 0.0 0.0 1.0 0.0" result="cxform"/><feComposite operator="in" in2="SourceGraphic" result="color-xform"/></filter><filter id="filter13"><feColorMatrix in="SourceGraphic" type="matrix" values="0.6796875 0.0 0.0 0.0 0.0 0.0 0.6796875 0.0 0.0 0.0 0.0 0.0 0.6796875 0.0 0.0 0.0 0.0 0.0 1.0 0.0" result="cxform"/><feComposite operator="in" in2="SourceGraphic" result="color-xform"/></filter><filter id="filter15"><feColorMatrix in="SourceGraphic" type="matrix" values="0.83984375 0.0 0.0 0.0 0.0 0.0 0.83984375 0.0 0.0 0.0 0.0 0.0 0.83984375 0.0 0.0 0.0 0.0 0.0 1.0 0.0" result="cxform"/><feComposite operator="in" in2="SourceGraphic" result="color-xform"/></filter><filter id="filter19"><feColorMatrix in="SourceGraphic" type="matrix" values="1.0 0.0 0.0 0.0 0.0 0.0 1.0 0.0 0.0 0.0 0.0 0.0 1.0 0.0 0.0 0.0 0.0 0.0 0.23046875 0.0" result="cxform"/><feComposite operator="in" in2="SourceGraphic" result="color-xform"/></filter></defs><g><g><use transform="matrix(1.0,0.0,0.0,1.0,0.0,0.0)" xlink:href="#c1"/></g><g><use transform="matrix(1.15496826172,0.0,0.0,1.15496826172,-1.55,-56.9)" xlink:href="#c17"/></g></g></svg>