<?xml version='1.0' encoding='UTF-8'?>
<svg xmlns:xlink="http://www.w3.org/1999/xlink" xmlns="http://www.w3.org/2000/svg" version="1.1" width="60px" height="60px" viewBox="0.0 0.0 60.0 60.0"><defs><g id="c1"><path fill="#000000" fill-opacity="0.00392156862745" d="M0.0 0.0 L60.0 0.0 60.0 60.0 0.0 60.0 0.0 0.0"/></g><g id="c2"><path fill="none" stroke="#000000" stroke-width="1.0" stroke-opacity="0.301960784314" d="M0.7 12.25 Q-0.45 9.75 0.75 8.25 1.2 7.6 2.15 7.15 2.8 6.7 3.8 6.35 L17.5 1.95 30.2 7.0 41.35 31.7 Q42.95 35.15 40.2 36.7 39.5 37.3 38.3 37.65 L19.8 43.65 Q17.15 44.45 15.5 43.3 14.35 42.55 13.65 40.9 L0.7 12.25"/><path fill="#9d147b" stroke="none" d="M35.55 22.3 L31.5 13.2 29.75 9.2 16.95 4.25 5.5 7.85 Q1.65 9.1 3.35 12.8 L8.25 23.65 15.0 38.6 15.2 39.0 Q16.8 42.25 20.45 41.1 L37.2 35.7 Q41.1 34.5 39.35 30.75 L35.55 22.3 M2.15 7.15 Q2.8 6.7 3.8 6.35 L17.5 1.95 30.2 7.0 41.35 31.7 Q42.95 35.15 40.2 36.7 L38.9 37.25 23.2 42.3 20.4 43.2 19.1 43.5 17.3 43.4 Q15.3 42.9 14.2 40.5 L5.45 20.95 1.35 11.8 Q0.4 9.65 1.1 8.3 1.45 7.65 2.15 7.15"/><path fill="#c47fad" stroke="none" d="M31.5 13.2 L35.55 22.3 39.35 30.75 Q41.1 34.5 37.2 35.7 L20.45 41.1 Q16.8 42.25 15.2 39.0 L15.0 38.6 8.25 23.65 3.35 12.8 Q1.65 9.1 5.5 7.85 L16.95 4.25 29.75 9.2 31.5 13.2 M18.5 7.45 L9.1 10.55 9.55 11.6 Q9.8 12.8 9.15 13.6 8.4 14.45 7.1 14.4 L6.8 14.4 6.95 14.6 16.3 35.2 Q16.8 36.4 17.65 37.0 18.8 37.8 20.65 37.2 L34.0 32.9 33.7 32.1 Q33.45 30.9 34.1 30.1 34.75 29.3 35.95 29.35 L35.8 29.0 27.75 10.95 18.5 7.45"/><path fill="#630a4c" stroke="none" d="M0.75 8.25 Q1.2 7.6 2.15 7.15 1.45 7.65 1.1 8.3 L0.75 8.25 M23.3 42.5 L20.1 43.55 19.1 43.5 20.4 43.2 23.2 42.3 23.3 42.5 M15.5 43.3 Q14.35 42.55 13.65 40.9 L4.6 20.9 5.45 20.95 14.2 40.5 Q15.3 42.9 17.3 43.4 L15.5 43.3"/><path fill="#300525" stroke="none" d="M4.6 20.9 L0.7 12.25 Q-0.45 9.75 0.75 8.25 L1.1 8.3 Q0.4 9.65 1.35 11.8 L5.45 20.95 4.6 20.9 M40.2 36.7 Q39.5 37.3 38.3 37.65 L23.3 42.5 23.2 42.3 38.9 37.25 40.2 36.7 M20.1 43.55 L19.8 43.65 Q17.15 44.45 15.5 43.3 L17.3 43.4 19.1 43.5 20.1 43.55"/><path fill="#fcf2cf" stroke="none" d="M27.75 10.95 L35.8 29.0 35.95 29.35 Q34.75 29.3 34.1 30.1 33.45 30.9 33.7 32.1 L34.0 32.9 20.65 37.2 Q18.8 37.8 17.65 37.0 16.8 36.4 16.3 35.2 L6.95 14.6 6.8 14.4 7.1 14.4 Q8.4 14.45 9.15 13.6 9.8 12.8 9.55 11.6 L9.1 10.55 18.5 7.45 27.75 10.95"/><path fill="none" stroke="#bf9900" stroke-width="1.0" stroke-opacity="0.749019607843" d="M31.5 13.2 L35.55 22.3 M15.0 38.6 L8.25 23.65"/><path fill="none" stroke="#ffcc00" stroke-width="1.0" stroke-opacity="0.749019607843" d="M35.55 22.3 L39.35 30.75 Q41.1 34.5 37.2 35.7 L20.45 41.1 Q16.8 42.25 15.2 39.0 L15.0 38.6 M8.25 23.65 L3.35 12.8 Q1.65 9.1 5.5 7.85 L16.95 4.25 29.75 9.2 31.5 13.2"/><path fill="none" stroke="#000000" stroke-width="0.5" stroke-opacity="0.301960784314" d="M4.6 20.9 L0.7 12.25 Q-0.45 9.75 0.75 8.25 1.2 7.6 2.15 7.15 2.8 6.7 3.8 6.35 L17.5 1.95 M30.2 7.0 L41.35 31.7 Q42.95 35.15 40.2 36.7 39.5 37.3 38.3 37.65 L23.3 42.5 20.1 43.55 19.8 43.65 Q17.15 44.45 15.5 43.3 14.35 42.55 13.65 40.9 L4.6 20.9 M5.45 20.95 L1.35 11.8 Q0.4 9.65 1.1 8.3 1.45 7.65 2.15 7.15 M19.1 43.5 L17.3 43.4 Q15.3 42.9 14.2 40.5 L5.45 20.95 M23.2 42.3 L20.4 43.2 19.1 43.5 M40.2 36.7 L38.9 37.25 23.2 42.3"/><path fill="none" stroke="#f0b92b" stroke-width="0.5" d="M27.75 10.95 L35.8 29.0 35.95 29.35 Q34.75 29.3 34.1 30.1 33.45 30.9 33.7 32.1 L34.0 32.9 20.65 37.2 Q18.8 37.8 17.65 37.0 16.8 36.4 16.3 35.2 L6.95 14.6 6.8 14.4 7.1 14.4 Q8.4 14.45 9.15 13.6 9.8 12.8 9.55 11.6 L9.1 10.55 18.5 7.45"/><path fill="none" stroke="#ffcc00" stroke-width="0.5" stroke-opacity="0.749019607843" d="M18.5 7.45 L27.75 10.95"/></g><g id="c3"><path fill="#7fdbfe" stroke="none" d="M10.75 4.9 Q10.75 4.6 10.9 4.35 11.25 3.45 11.95 2.75 13.3 1.5 14.35 2.1 15.4 2.7 14.95 4.45 14.7 5.4 14.1 6.15 L13.75 6.5 Q13.1 7.15 12.35 7.35 L11.4 7.2 Q10.95 6.9 10.75 6.4 10.5 5.75 10.75 4.9 M7.5 5.9 Q7.0 5.85 6.6 5.5 6.05 5.0 5.8 4.15 L5.7 3.6 Q5.55 2.65 5.8 1.7 6.25 0.0 7.5 0.0 L7.6 0.0 Q8.85 0.0 9.3 1.7 9.55 2.65 9.4 3.6 L9.3 4.15 8.5 5.5 7.6 5.9 7.5 5.9 M4.35 4.9 Q4.6 5.75 4.35 6.4 L3.7 7.2 2.75 7.35 Q2.0 7.15 1.35 6.5 L1.0 6.15 Q0.4 5.4 0.15 4.45 -0.3 2.7 0.75 2.1 1.8 1.5 3.15 2.75 3.85 3.45 4.2 4.35 L4.35 4.9 M5.5 13.7 Q4.45 13.9 3.65 12.95 2.75 12.0 3.2 10.25 3.7 8.5 5.25 7.6 6.4 6.9 7.55 7.0 8.75 6.9 9.9 7.6 11.45 8.5 11.95 10.25 12.35 12.0 11.5 12.95 10.7 13.9 9.65 13.7 8.55 13.5 7.55 12.6 6.55 13.5 5.5 13.7"/></g><g id="c4"><g><use transform="matrix(1.0,0.0,0.0,1.0,0.0,0.0)" xlink:href="#c3"/></g></g><radialGradient gradientUnits="userSpaceOnUse" r="819.2" cx="0" cy="0" spreadMethod="pad" gradientTransform="matrix(0.0914459228516,0.0,0.0,0.0914459228516,0.6,3.4)" id="gradient1"><stop offset="0.0" stop-color="#ffffff"/><stop offset="1.0" stop-color="#ffffff" stop-opacity="0.0"/></radialGradient><g id="c5"><path stroke="none" fill="url(#gradient1)" d="M36.65 -54.65 Q60.05 -42.0 69.75 -17.95 80.55 8.9 68.0 34.1 55.45 59.35 26.8 68.2 -1.8 77.05 -29.7 64.3 -57.6 51.6 -68.45 24.75 -79.3 -2.05 -66.75 -27.25 L-66.7 -27.3 Q-54.1 -52.5 -25.5 -61.4 3.1 -70.2 31.0 -57.5 L36.65 -54.65"/></g><g id="c6"><g><use transform="matrix(1.0,0.0,0.0,1.0,0.0,0.0)" xlink:href="#c5"/></g></g><radialGradient gradientUnits="userSpaceOnUse" r="819.2" cx="0" cy="0" spreadMethod="pad" gradientTransform="matrix(0.209197998047,0.0,0.0,0.177108764648,67.15,107.2)" id="gradient2"><stop offset="0.356862745098" stop-color="#ffffff"/><stop offset="0.670588235294" stop-opacity="0.0"/></radialGradient><g id="c7"><path fill="none" stroke-linejoin="round" stroke-linecap="round" stroke="url(#gradient2)" stroke-width="0.5" d="M136.55 165.8 L68.6 106.0 68.4 106.0 118.25 201.5 M68.3 105.8 L68.35 105.8 68.3 105.8 68.3 105.85 68.4 106.0 68.3 106.0 86.55 211.5 M68.3 105.8 L68.3 105.85 68.3 106.0 68.15 105.95 18.25 151.55 M68.3 105.85 L68.25 105.85 68.3 106.0 50.0 193.2 M68.25 105.85 L68.15 105.95 0.05 97.7 M68.3 105.85 L68.25 105.8 68.25 105.85 M68.25 105.8 L68.2 105.7 0.0 45.7 M68.3 105.8 L68.25 105.75 68.25 105.8 M68.25 105.75 L68.2 105.7 18.25 10.05 M68.6 106.0 L68.35 105.8 118.25 60.15 M86.6 18.35 L68.3 105.8 M136.6 114.25 L68.6 106.0 M68.25 105.75 L49.95 0.05"/></g><g id="c8"><g><use transform="matrix(1.0,0.0,0.0,1.0,0.0,0.0)" xlink:href="#c7"/></g></g><g id="c9"><g><use transform="matrix(1.0,0.0,0.0,1.0,0.0,0.0)" xlink:href="#c2"/></g><g><use transform="matrix(0.238861083984,-0.0867004394531,0.10026550293,0.233917236328,34.25,31.15)" xlink:href="#c4"/></g><g><use transform="matrix(0.238861083984,-0.0867004394531,0.10026550293,0.233917236328,4.25,10.3)" xlink:href="#c4"/></g><g><use transform="matrix(0.141098022461,-0.0378112792969,0.111373901367,0.225646972656,20.25,20.65)" filter="url(#filter7)" xlink:href="#c6"/></g><g><use transform="matrix(-0.155029296875,0.0513153076172,0.0841827392578,0.147033691406,22.6,3.15)" filter="url(#filter8)" xlink:href="#c8"/></g></g><filter id="filter7"><feColorMatrix in="SourceGraphic" type="matrix" values="0.0 0.0 0.0 0.0 0.796875 0.0 0.0 0.0 0.0 0.59765625 0.0 0.0 0.0 0.0 0.19921875 0.0 0.0 0.0 1.0 0.0" result="cxform"/><feComposite operator="in" in2="SourceGraphic" result="color-xform"/></filter><filter id="filter8"><feColorMatrix in="SourceGraphic" type="matrix" values="0.0 0.0 0.0 0.0 0.99609375 0.0 0.0 0.0 0.0 0.99609375 0.0 0.0 0.0 0.0 0.99609375 0.0 0.0 0.0 1.0 0.0" result="cxform"/><feComposite operator="in" in2="SourceGraphic" result="color-xform"/></filter><linearGradient gradientUnits="userSpaceOnUse" x1="-819.2" x2="819.2" spreadMethod="pad" gradientTransform="matrix(-0.00471496582031,0.0145568847656,0.00437927246094,-0.000473022460938,3.45,8.55)" id="gradient3"><stop offset="0.0" stop-color="#fffffa" stop-opacity="0.8"/><stop offset="1.0" stop-color="#c8d8ce" stop-opacity="0.0"/></linearGradient><linearGradient gradientUnits="userSpaceOnUse" x1="-819.2" x2="819.2" spreadMethod="pad" gradientTransform="matrix(-0.000686645507812,0.00564575195312,0.00650024414062,-0.00205993652344,6.0,5.15)" id="gradient4"><stop offset="0.0" stop-opacity="0.101960784314"/><stop offset="1.0" stop-opacity="0.0"/></linearGradient><linearGradient gradientUnits="userSpaceOnUse" x1="-819.2" x2="819.2" spreadMethod="pad" gradientTransform="matrix(-0.000686645507812,0.00564575195312,0.00650024414062,-0.00205993652344,7.0,-0.9)" id="gradient5"><stop offset="0.0" stop-opacity="0.0705882352941"/><stop offset="1.0" stop-opacity="0.0"/></linearGradient><linearGradient gradientUnits="userSpaceOnUse" x1="-819.2" x2="819.2" spreadMethod="pad" gradientTransform="matrix(0.00210571289062,0.0139312744141,-0.00738525390625,0.00111389160156,1.65,4.95)" id="gradient6"><stop offset="0.0" stop-color="#fffffa"/><stop offset="1.0" stop-color="#c8d8ce" stop-opacity="0.0"/></linearGradient><linearGradient gradientUnits="userSpaceOnUse" x1="-819.2" x2="819.2" spreadMethod="pad" gradientTransform="matrix(0.0,0.00666809082031,0.00752258300781,-0.00361633300781,1.55,7.45)" id="gradient7"><stop offset="0.0" stop-opacity="0.101960784314"/><stop offset="1.0" stop-opacity="0.0"/></linearGradient><linearGradient gradientUnits="userSpaceOnUse" x1="-819.2" x2="819.2" spreadMethod="pad" gradientTransform="matrix(0.0,0.00666809082031,0.00752258300781,-0.00361633300781,1.55,7.45)" id="gradient8"><stop offset="0.0" stop-opacity="0.0705882352941"/><stop offset="1.0" stop-opacity="0.0"/></linearGradient><linearGradient gradientUnits="userSpaceOnUse" x1="-819.2" x2="819.2" spreadMethod="pad" gradientTransform="matrix(0.0,0.0130920410156,-0.00776672363281,-0.0001220703125,19.55,4.2)" id="gradient9"><stop offset="0.0" stop-color="#fffffa"/><stop offset="1.0" stop-color="#c8d8ce" stop-opacity="0.0"/></linearGradient><linearGradient gradientUnits="userSpaceOnUse" x1="-819.2" x2="819.2" spreadMethod="pad" gradientTransform="matrix(0.0,0.0103607177734,-0.0120544433594,-0.000167846679688,17.3,6.5)" id="gradient10"><stop offset="0.0" stop-opacity="0.101960784314"/><stop offset="1.0" stop-opacity="0.0"/></linearGradient><linearGradient gradientUnits="userSpaceOnUse" x1="-819.2" x2="819.2" spreadMethod="pad" gradientTransform="matrix(0.0,0.0103607177734,-0.0120544433594,-0.000167846679688,17.3,6.5)" id="gradient11"><stop offset="0.0" stop-opacity="0.0705882352941"/><stop offset="1.0" stop-opacity="0.0"/></linearGradient><g id="c10"><path fill="#70541b" stroke="none" d="M24.55 9.6 Q27.5 7.95 29.55 7.6 27.5 7.95 24.55 9.6 M13.2 13.0 Q15.7 11.6 15.85 10.5 14.9 7.65 15.6 7.05 L16.05 6.9 17.4 6.7 18.8 7.0 20.0 7.5 21.65 7.25 24.1 6.95 26.95 6.9 Q28.4 7.1 29.55 7.6 L30.45 8.2 Q30.0 9.45 22.8 12.0 21.3 12.6 20.75 13.6 L19.25 12.85 19.05 12.8 13.2 13.0 M22.9 17.95 Q25.3 19.3 24.65 20.9 21.7 25.2 15.65 28.9 L13.25 28.1 14.55 27.05 15.2 26.5 17.95 24.25 18.0 24.15 18.7 23.45 19.25 22.95 20.55 21.6 20.55 21.55 21.05 21.0 22.3 19.2 22.7 17.8 22.9 17.95 M-4.7 22.05 L-6.25 21.65 Q-0.95 13.9 5.35 12.55 7.55 12.35 9.45 13.5 L7.25 13.55 Q5.75 13.65 4.4 14.15 L2.8 14.85 2.7 14.9 2.3 15.1 Q1.3 15.65 0.35 16.5 L-0.3 17.05 -0.25 17.05 -0.65 17.45 -1.35 18.15 -1.7 18.55 -2.1 19.0 -2.2 19.0 -3.45 20.55 -3.55 20.7 -3.65 20.8 -4.1 21.35 -4.7 22.05 M7.25 13.55 L6.8 13.25 7.25 13.55 M21.1 8.85 Q22.85 7.45 24.1 6.95 22.85 7.45 21.1 8.85 M20.05 8.85 Q20.8 7.9 21.65 7.25 20.8 7.9 20.05 8.85 M18.35 8.55 L18.8 7.0 18.35 8.55 M17.4 8.4 Q17.25 7.45 17.4 6.7 17.25 7.45 17.4 8.4 M16.35 9.4 Q16.0 7.95 16.05 6.9 16.0 7.95 16.35 9.4 M22.85 20.85 L21.05 21.0 22.85 20.85 M22.95 21.75 L20.55 21.6 22.95 21.75 M20.7 23.0 L19.25 22.95 20.7 23.0 M23.55 19.0 L22.3 19.2 23.55 19.0 M-0.45 16.35 L0.35 16.5 -0.45 16.35 M2.8 14.85 L1.7 14.75 2.8 14.85 M-4.85 20.4 L-3.45 20.55 -4.85 20.4 M-4.1 21.35 L-4.9 21.2 -4.1 21.35 M-0.65 17.45 L-2.05 17.35 -0.65 17.45 M21.45 9.8 Q24.6 7.75 26.95 6.9 24.6 7.75 21.45 9.8 M4.4 14.15 L3.7 14.0 4.4 14.15 M20.75 24.05 L18.7 23.45 20.75 24.05 M18.9 24.85 L17.95 24.25 18.9 24.85 M15.4 27.65 L14.55 27.05 15.4 27.65 M17.05 27.3 L15.2 26.5 17.05 27.3"/><path fill="#c2673a" stroke="none" d="M11.05 27.35 L9.15 26.7 Q23.15 17.2 18.65 12.75 L17.8 12.6 Q19.95 15.9 13.95 21.2 6.75 27.55 7.65 24.95 8.5 20.9 6.75 19.7 1.4 18.35 -2.05 19.0 L-1.7 18.55 -2.05 19.0 -2.1 19.0 -1.7 18.55 -1.35 18.15 -0.65 17.45 -0.25 17.05 Q4.0 15.65 7.25 16.4 8.95 16.55 8.95 18.35 8.65 24.55 11.75 20.55 16.3 15.5 15.55 12.6 L14.25 12.8 Q15.1 14.8 11.35 18.75 9.45 21.75 10.15 18.05 10.85 14.35 8.4 14.25 5.15 14.3 2.35 15.1 L2.7 14.9 2.35 15.1 2.3 15.1 2.7 14.9 2.8 14.85 4.4 14.15 Q5.75 13.65 7.25 13.55 L9.45 13.5 10.9 13.65 11.0 13.65 11.2 13.6 13.2 13.0 19.05 12.8 19.25 12.85 20.45 14.4 Q22.05 17.3 19.15 20.15 15.2 24.15 11.05 27.35 M6.2 25.7 L3.5 24.75 2.3 23.85 Q-0.1 22.55 -2.55 22.75 L-4.05 22.25 -4.65 22.05 -4.7 22.05 -4.1 21.35 -3.65 20.8 -4.45 21.8 -3.3 21.4 Q-1.25 21.2 3.65 21.45 7.8 21.65 6.2 25.7 M-4.65 22.05 L-3.65 20.8 -4.65 22.05"/><path fill="#d3a950" stroke="none" d="M9.15 26.7 L6.2 25.7 Q7.8 21.65 3.65 21.45 -1.25 21.2 -3.3 21.4 L-4.45 21.8 -3.65 20.8 -3.55 20.7 -3.45 20.55 -2.2 19.0 -2.1 19.0 -2.05 19.0 Q1.4 18.35 6.75 19.7 8.5 20.9 7.65 24.95 6.75 27.55 13.95 21.2 19.95 15.9 17.8 12.6 L18.65 12.75 Q23.15 17.2 9.15 26.7 M3.5 24.75 L-2.55 22.75 Q-0.1 22.55 2.3 23.85 L3.5 24.75 M2.35 15.1 Q5.15 14.3 8.4 14.25 10.85 14.35 10.15 18.05 9.45 21.75 11.35 18.75 15.1 14.8 14.25 12.8 L15.55 12.6 Q16.3 15.5 11.75 20.55 8.65 24.55 8.95 18.35 8.95 16.55 7.25 16.4 4.0 15.65 -0.25 17.05 L-0.3 17.05 0.35 16.5 Q1.3 15.65 2.3 15.1 L2.35 15.1 Q0.95 15.9 -0.25 17.05 0.95 15.9 2.35 15.1 M-3.45 20.55 L-2.05 19.0 -3.45 20.55"/><path fill="#c1c79a" stroke="none" d="M20.75 13.6 L22.2 15.0 Q22.9 16.45 22.9 17.95 L22.7 17.8 22.3 19.2 21.05 21.0 20.55 21.55 20.55 21.6 19.25 22.95 18.7 23.45 18.0 24.15 17.95 24.25 15.2 26.5 14.55 27.05 13.25 28.1 11.05 27.35 Q15.2 24.15 19.15 20.15 22.05 17.3 20.45 14.4 L19.25 12.85 20.75 13.6"/><path fill="none" stroke="#000000" stroke-width="1.5" stroke-opacity="0.2" d="M29.55 7.6 Q27.5 7.95 24.55 9.6 M13.2 13.0 Q15.7 11.6 15.85 10.5 14.9 7.65 15.6 7.05 L16.05 6.9 17.4 6.7 18.8 7.0 20.0 7.5 21.65 7.25 24.1 6.95 26.95 6.9 Q28.4 7.1 29.55 7.6 L30.45 8.2 Q30.0 9.45 22.8 12.0 21.3 12.6 20.75 13.6 L22.2 15.0 Q22.9 16.45 22.9 17.95 25.3 19.3 24.65 20.9 21.7 25.2 15.65 28.9 M-6.25 21.65 Q-0.95 13.9 5.35 12.55 7.55 12.35 9.45 13.5 L10.9 13.65 11.0 13.65 11.2 13.6 13.2 13.0 19.05 12.8 19.25 12.85 20.75 13.6 M16.05 6.9 Q16.0 7.95 16.35 9.4 M17.4 6.7 Q17.25 7.45 17.4 8.4 M18.8 7.0 L18.35 8.55 M21.65 7.25 Q20.8 7.9 20.05 8.85 M24.1 6.95 Q22.85 7.45 21.1 8.85 M6.8 13.25 L7.25 13.55 9.45 13.5 M7.25 13.55 Q5.75 13.65 4.4 14.15 L2.8 14.85 2.7 14.9 2.35 15.1 Q0.95 15.9 -0.25 17.05 L-0.65 17.45 -1.35 18.15 -1.7 18.55 -2.05 19.0 -3.45 20.55 -4.85 20.4 M13.25 28.1 L14.55 27.05 15.2 26.5 17.95 24.25 18.0 24.15 18.7 23.45 19.25 22.95 20.55 21.6 20.55 21.55 21.05 21.0 22.3 19.2 22.7 17.8 22.9 17.95 M22.3 19.2 L23.55 19.0 M19.25 22.95 L20.7 23.0 M20.55 21.6 L22.95 21.75 M21.05 21.0 L22.85 20.85 M0.35 16.5 L-0.45 16.35 M1.7 14.75 L2.8 14.85 M-3.65 20.8 L-4.65 22.05 M-4.9 21.2 L-4.1 21.35 M-2.05 17.35 L-0.65 17.45 M15.2 26.5 L17.05 27.3 M14.55 27.05 L15.4 27.65 M17.95 24.25 L18.9 24.85 M18.7 23.45 L20.75 24.05 M3.7 14.0 L4.4 14.15 M26.95 6.9 Q24.6 7.75 21.45 9.8"/><path fill="#ffffff" fill-opacity="0.501960784314" d="M9.8 15.7 L9.9 16.25 Q10.05 16.55 10.2 16.4 L10.35 16.1 10.3 15.95 10.15 15.85 10.1 15.85 9.8 15.7 M6.5 24.2 L6.1 24.1 8.15 22.0 6.5 24.2 M1.6 22.7 L1.55 22.7 1.7 22.55 1.6 22.7 M9.2 16.0 Q9.7 16.45 9.85 16.3 9.25 15.3 9.25 14.45 10.3 16.85 11.8 15.35 L9.95 17.3 9.85 17.5 9.9 17.5 Q10.9 17.3 12.9 15.9 12.55 17.0 13.8 16.4 12.8 18.9 13.5 18.95 14.25 19.0 14.4 19.55 14.65 20.15 17.0 16.25 13.7 25.55 20.2 16.55 11.45 29.35 15.3 19.6 12.9 22.15 10.75 24.95 L10.05 24.8 10.9 23.8 Q12.9 21.5 12.65 19.8 12.0 18.7 9.3 18.65 L7.45 19.1 8.85 17.2 Q8.55 17.65 9.5 17.55 9.8 16.9 10.3 16.55 9.25 16.4 9.2 16.0"/><path fill="#fffbeb" stroke="none" d="M12.25 28.5 L-4.7 23.05 -4.9 21.85 -4.65 21.9 Q3.1 10.9 10.7 21.05 13.7 24.0 13.45 28.05 L13.6 28.15 12.25 28.5"/><path fill="none" stroke="#000000" stroke-width="1.5" stroke-opacity="0.2" d="M12.25 28.5 L-4.7 23.05 -4.9 21.85 -4.65 21.9 Q3.1 10.9 10.7 21.05 13.7 24.0 13.45 28.05 L13.6 28.15 12.25 28.5"/><path stroke="none" fill="url(#gradient3)" d="M14.7 6.95 L14.75 7.0 Q18.1 10.5 16.55 17.0 15.05 23.55 7.7 21.05 0.3 18.45 -0.65 15.75 -1.55 13.0 -1.25 11.85 -0.95 10.65 2.8 8.25 6.5 5.75 6.6 3.65 6.7 1.5 5.35 -0.9 4.05 -3.4 4.25 -4.8 4.35 -6.1 5.4 -7.0 6.55 -7.85 7.8 -7.9 9.2 -8.0 10.0 -7.25 10.9 -6.35 10.7 -4.7 L10.2 -3.6 Q9.55 -2.6 8.65 -2.3 7.6 -2.0 7.0 -2.65 6.55 -3.3 6.6 -3.85 L6.7 -4.2 7.1 -4.95 7.0 -4.95 Q6.35 -4.25 6.3 -3.55 6.15 -2.35 7.35 0.05 8.55 2.5 12.35 4.7 L13.45 5.95 Q12.05 4.25 14.7 6.95 L13.45 5.95 14.7 6.95"/><path fill="none" stroke-linejoin="round" stroke-linecap="round" stroke="url(#gradient4)" stroke-width="0.5" d="M7.1 -4.95 L6.7 -4.2 6.6 -3.85 Q6.55 -3.3 7.0 -2.65 7.6 -2.0 8.65 -2.3 9.55 -2.6 10.2 -3.6 L10.7 -4.7 Q10.9 -6.35 10.0 -7.25 9.2 -8.0 7.8 -7.9 6.55 -7.85 5.4 -7.0 4.35 -6.1 4.25 -4.8 4.05 -3.4 5.35 -0.9 6.7 1.5 6.6 3.65 6.5 5.75 2.8 8.25 -0.95 10.65 -1.25 11.85 -1.55 13.0 -0.65 15.75 0.3 18.45 7.7 21.05 15.05 23.55 16.55 17.0 18.1 10.5 14.75 7.0 L14.7 6.95 13.45 5.95 12.35 4.7 Q8.55 2.5 7.35 0.05 6.15 -2.35 6.3 -3.55 6.35 -4.25 7.0 -4.95 M14.7 6.95 Q12.05 4.25 13.45 5.95"/><path fill="none" stroke-linejoin="round" stroke-linecap="round" stroke="url(#gradient5)" stroke-width="0.5" d="M7.0 -4.95 L7.1 -4.95"/><path fill="none" stroke="#000000" stroke-width="0.5" stroke-opacity="0.0705882352941" d="M7.15 -5.0 Q8.5 -6.4 8.85 -4.7"/><path stroke="none" fill="url(#gradient6)" d="M1.0 2.75 Q0.3 3.65 0.3 4.5 0.3 5.9 1.15 6.55 L2.9 7.3 Q5.55 8.2 7.4 10.75 9.25 13.3 9.35 14.7 9.45 16.05 7.25 17.7 5.05 19.35 3.7 19.55 L1.05 19.4 Q-0.25 19.05 -1.65 17.35 -3.05 15.7 -2.85 14.95 -2.7 14.15 -0.55 12.25 1.55 10.3 -0.45 7.75 -2.4 5.15 -2.4 3.5 -2.4 1.95 -1.2 0.7 -0.05 -0.45 1.55 -0.8 3.15 -1.2 4.25 -0.5 5.5 0.35 5.5 2.3 L5.05 3.65 Q4.35 5.0 3.3 5.5 2.1 6.1 1.3 5.35 0.65 4.7 0.65 4.05 L0.7 3.65 1.15 2.7 1.0 2.75"/><path fill="none" stroke-linejoin="round" stroke-linecap="round" stroke="url(#gradient7)" stroke-width="0.5" d="M1.15 2.7 L0.7 3.65 0.65 4.05 Q0.65 4.7 1.3 5.35 2.1 6.1 3.3 5.5 4.35 5.0 5.05 3.65 L5.5 2.3 Q5.5 0.35 4.25 -0.5 3.15 -1.2 1.55 -0.8 -0.05 -0.45 -1.2 0.7 -2.4 1.95 -2.4 3.5 -2.4 5.15 -0.45 7.75 1.55 10.3 -0.55 12.25 -2.7 14.15 -2.85 14.95 -3.05 15.7 -1.65 17.35 -0.25 19.05 1.05 19.4 L3.7 19.55 Q5.05 19.35 7.25 17.7 9.45 16.05 9.35 14.7 9.25 13.3 7.4 10.75 5.55 8.2 2.9 7.3 L1.15 6.55 Q0.3 5.9 0.3 4.5 0.3 3.65 1.0 2.75"/><path fill="none" stroke-linejoin="round" stroke-linecap="round" stroke="url(#gradient8)" stroke-width="0.5" d="M1.0 2.75 L1.15 2.7"/><path fill="none" stroke="#000000" stroke-width="0.5" stroke-opacity="0.0705882352941" d="M1.1 2.7 Q2.5 0.85 3.2 2.8"/><path stroke="none" fill="url(#gradient9)" d="M17.9 -1.15 L18.7 -0.05 18.75 0.55 Q18.75 1.55 17.7 3.05 16.4 4.8 14.5 4.75 12.8 4.7 11.75 3.05 11.0 1.95 11.0 1.3 11.0 -1.7 12.95 -3.95 14.7 -5.8 17.35 -6.35 19.85 -6.95 21.7 -6.0 23.65 -4.9 23.65 -2.5 23.65 0.05 20.55 5.5 17.35 10.9 18.0 13.05 18.6 15.2 20.6 16.25 22.6 17.3 23.1 21.25 23.6 25.2 20.75 24.2 17.85 23.15 15.2 23.5 12.55 23.8 10.05 21.35 L7.1 18.7 Q6.6 18.5 6.2 16.0 5.8 13.45 11.6 9.5 L18.0 4.8 Q19.3 3.15 19.3 1.0 19.3 -0.35 18.2 -1.25 L17.9 -1.15"/><path fill="none" stroke-linejoin="round" stroke-linecap="round" stroke="url(#gradient10)" stroke-width="0.5" d="M17.9 -1.15 L18.7 -0.05 18.75 0.55 Q18.75 1.55 17.7 3.05 16.4 4.8 14.5 4.75 12.8 4.7 11.75 3.05 11.0 1.95 11.0 1.3 11.0 -1.7 12.95 -3.95 14.7 -5.8 17.35 -6.35 19.85 -6.95 21.7 -6.0 23.65 -4.9 23.65 -2.5 23.65 0.05 20.55 5.5 17.35 10.9 18.0 13.05 18.6 15.2 20.6 16.25 22.6 17.3 23.1 21.25 23.6 25.2 20.75 24.2 17.85 23.15 15.2 23.5 12.55 23.8 10.05 21.35 L7.1 18.7 Q6.6 18.5 6.2 16.0 5.8 13.45 11.6 9.5 L18.0 4.8 Q19.3 3.15 19.3 1.0 19.3 -0.35 18.2 -1.25"/><path fill="none" stroke-linejoin="round" stroke-linecap="round" stroke="url(#gradient11)" stroke-width="0.5" d="M18.2 -1.25 L17.9 -1.15"/><path fill="none" stroke="#000000" stroke-width="0.5" stroke-opacity="0.0705882352941" d="M18.05 -1.25 Q15.75 -3.1 14.65 0.45"/><path fill="#dedac7" stroke="none" d="M3.2 18.4 L1.6 19.55 1.65 19.55 1.5 19.6 1.25 19.6 1.05 19.65 0.8 19.7 2.6 18.4 2.75 18.45 2.9 18.4 2.95 18.4 3.2 18.4 M3.4 20.15 L4.95 19.15 5.4 19.45 5.5 19.5 5.7 19.65 4.25 20.7 4.15 20.65 Q3.85 20.35 3.4 20.15"/><path fill="#a8a281" stroke="none" d="M5.7 19.65 L5.9 19.85 6.15 20.05 6.6 20.6 6.75 20.8 6.7 20.8 Q7.4 21.85 7.55 22.8 L7.55 22.9 7.6 23.3 7.6 23.45 7.5 24.25 7.45 24.35 7.2 24.85 7.0 25.1 6.4 25.7 5.95 26.05 6.15 25.55 6.2 25.45 6.35 24.6 6.25 24.0 6.25 23.9 Q6.1 22.8 5.35 21.75 L4.85 21.25 4.65 21.05 4.25 20.7 5.7 19.65"/><path fill="#ede9d4" stroke="none" d="M3.2 18.4 L3.95 18.6 4.05 18.65 4.25 18.75 4.65 18.95 4.95 19.15 3.4 20.15 3.35 20.1 2.8 19.85 2.7 19.85 1.7 19.55 1.65 19.55 1.6 19.55 3.2 18.4"/><path fill="#f5f5e3" stroke="none" d="M1.65 19.55 L1.7 19.55 2.7 19.85 2.8 19.85 3.35 20.1 3.4 20.15 Q3.85 20.35 4.15 20.65 L4.25 20.7 4.65 21.05 4.85 21.25 5.35 21.75 Q6.1 22.8 6.25 23.9 L6.25 24.0 6.35 24.6 6.2 25.45 6.15 25.55 5.95 26.05 5.75 26.3 5.05 26.85 4.6 27.05 2.65 26.9 Q1.2 26.4 0.2 24.9 -0.85 23.55 -0.85 22.05 L-0.85 21.9 Q-0.8 21.25 -0.4 20.65 L-0.15 20.35 0.8 19.7 1.05 19.65 1.25 19.6 1.5 19.6 1.65 19.55 M2.05 21.75 L2.0 21.75 1.95 21.75 1.35 21.85 Q0.85 22.25 0.75 22.85 L0.75 22.9 Q0.75 23.6 1.25 24.25 1.75 24.95 2.4 25.15 3.05 25.4 3.5 25.15 L3.85 24.9 4.1 24.5 4.15 24.1 4.15 24.0 4.15 23.8 4.1 23.75 3.7 22.8 3.45 22.55 3.3 22.45 3.1 22.25 Q2.8 22.0 2.5 21.85 L2.05 21.75"/><path fill="#9e9879" stroke="none" d="M4.15 24.0 L4.15 24.1 4.1 24.5 3.85 24.9 3.5 25.15 Q3.05 25.4 2.4 25.15 1.75 24.95 1.25 24.25 0.75 23.6 0.75 22.9 L0.75 22.85 Q0.85 22.25 1.35 21.85 L1.95 21.75 2.0 21.75 2.05 21.75 Q2.05 22.35 2.55 22.95 3.0 23.7 3.7 23.9 L4.15 24.0"/><path fill="#22201a" stroke="none" d="M2.05 21.75 L2.5 21.85 Q2.8 22.0 3.1 22.25 L3.3 22.45 3.45 22.55 3.7 22.8 4.1 23.75 4.15 23.8 4.15 24.0 3.7 23.9 Q3.0 23.7 2.55 22.95 2.05 22.35 2.05 21.75"/><path fill="none" stroke="#000000" stroke-width="0.5" stroke-opacity="0.101960784314" d="M1.65 19.55 L1.7 19.55 2.7 19.85 2.8 19.85 3.35 20.1 3.4 20.15 Q3.85 20.35 4.15 20.65 L4.25 20.7 4.65 21.05 4.85 21.25 5.35 21.75 Q6.1 22.8 6.25 23.9 L6.25 24.0 6.35 24.6 6.2 25.45 6.15 25.55 5.95 26.05 5.75 26.3 5.05 26.85 M7.0 25.1 L6.4 25.7 5.95 26.05 M0.8 19.7 L1.05 19.65 1.25 19.6 1.5 19.6 1.65 19.55 M4.15 24.0 L4.15 24.1 4.1 24.5 3.85 24.9 3.5 25.15 Q3.05 25.4 2.4 25.15 1.75 24.95 1.25 24.25 0.75 23.6 0.75 22.9 L0.75 22.85 Q0.85 22.25 1.35 21.85 L1.95 21.75 2.0 21.75 2.05 21.75 2.5 21.85 Q2.8 22.0 3.1 22.25 L3.3 22.45 3.45 22.55 3.7 22.8 4.1 23.75 4.15 23.8 4.15 24.0 3.7 23.9 Q3.0 23.7 2.55 22.95 2.05 22.35 2.05 21.75"/><path fill="none" stroke="#9e9879" stroke-width="0.5" stroke-opacity="0.690196078431" d="M5.05 26.85 L4.6 27.05 2.65 26.9 Q1.2 26.4 0.2 24.9 -0.85 23.55 -0.85 22.05 L-0.85 21.9 Q-0.8 21.25 -0.4 20.65 L-0.15 20.35 0.8 19.7 2.6 18.4"/></g><g id="c11"><g><use transform="matrix(1.0,0.0,0.0,1.0,0.0,0.0)" xlink:href="#c10"/></g></g><g id="c12"><g><use transform="matrix(1.0,0.0,0.0,1.0,6.3,53.35)" xlink:href="#c9"/></g><g><use transform="matrix(-0.575286865234,0.0,0.0,0.575286865234,34.6,68.35)" xlink:href="#c11"/></g><g><use transform="matrix(0.141098022461,-0.0378112792969,0.111373901367,0.225646972656,27.2,74.05)" filter="url(#filter12)" xlink:href="#c6"/></g></g><filter id="filter12"><feColorMatrix in="SourceGraphic" type="matrix" values="1.0 0.0 0.0 0.0 0.0 0.0 1.0 0.0 0.0 0.0 0.0 0.0 1.0 0.0 0.0 0.0 0.0 0.0 0.23046875 0.0" result="cxform"/><feComposite operator="in" in2="SourceGraphic" result="color-xform"/></filter></defs><g><g><use transform="matrix(1.0,0.0,0.0,1.0,0.0,0.0)" xlink:href="#c1"/></g><g><use transform="matrix(1.15496826172,0.0,0.0,1.15496826172,-1.55,-56.9)" xlink:href="#c12"/></g></g></svg>