<?xml version='1.0' encoding='UTF-8'?>
<svg xmlns:xlink="http://www.w3.org/1999/xlink" xmlns="http://www.w3.org/2000/svg" version="1.1" width="60px" height="60px" viewBox="0.0 0.0 60.0 60.0"><defs><g id="c1"><path fill="#000000" fill-opacity="0.00392156862745" d="M0.0 0.0 L60.0 0.0 60.0 60.0 0.0 60.0 0.0 0.0"/></g><g id="c2"><path fill="none" stroke="#000000" stroke-width="1.0" stroke-opacity="0.301960784314" d="M0.7 12.25 Q-0.45 9.75 0.75 8.25 1.2 7.6 2.15 7.15 2.8 6.7 3.8 6.35 L17.5 1.95 30.2 7.0 41.35 31.7 Q42.95 35.15 40.2 36.7 39.5 37.3 38.3 37.65 L19.8 43.65 Q17.15 44.45 15.5 43.3 14.35 42.55 13.65 40.9 L0.7 12.25"/><path fill="#9d147b" stroke="none" d="M35.55 22.3 L31.5 13.2 29.75 9.2 16.95 4.25 5.5 7.85 Q1.65 9.1 3.35 12.8 L8.25 23.65 15.0 38.6 15.2 39.0 Q16.8 42.25 20.45 41.1 L37.2 35.7 Q41.1 34.5 39.35 30.75 L35.55 22.3 M2.15 7.15 Q2.8 6.7 3.8 6.35 L17.5 1.95 30.2 7.0 41.35 31.7 Q42.95 35.15 40.2 36.7 L38.9 37.25 23.2 42.3 20.4 43.2 19.1 43.5 17.3 43.4 Q15.3 42.9 14.2 40.5 L5.45 20.95 1.35 11.8 Q0.4 9.65 1.1 8.3 1.45 7.65 2.15 7.15"/><path fill="#c47fad" stroke="none" d="M31.5 13.2 L35.55 22.3 39.35 30.75 Q41.1 34.5 37.2 35.7 L20.45 41.1 Q16.8 42.25 15.2 39.0 L15.0 38.6 8.25 23.65 3.35 12.8 Q1.65 9.1 5.5 7.85 L16.95 4.25 29.75 9.2 31.5 13.2 M18.5 7.45 L9.1 10.55 9.55 11.6 Q9.8 12.8 9.15 13.6 8.4 14.45 7.1 14.4 L6.8 14.4 6.95 14.6 16.3 35.2 Q16.8 36.4 17.65 37.0 18.8 37.8 20.65 37.2 L34.0 32.9 33.7 32.1 Q33.45 30.9 34.1 30.1 34.75 29.3 35.95 29.35 L35.8 29.0 27.75 10.95 18.5 7.45"/><path fill="#630a4c" stroke="none" d="M0.75 8.25 Q1.2 7.6 2.15 7.15 1.45 7.65 1.1 8.3 L0.75 8.25 M23.3 42.5 L20.1 43.55 19.1 43.5 20.4 43.2 23.2 42.3 23.3 42.5 M15.5 43.3 Q14.35 42.55 13.65 40.9 L4.6 20.9 5.45 20.95 14.2 40.5 Q15.3 42.9 17.3 43.4 L15.5 43.3"/><path fill="#300525" stroke="none" d="M4.6 20.9 L0.7 12.25 Q-0.45 9.75 0.75 8.25 L1.1 8.3 Q0.4 9.65 1.35 11.8 L5.45 20.95 4.6 20.9 M40.2 36.7 Q39.5 37.3 38.3 37.65 L23.3 42.5 23.2 42.3 38.9 37.25 40.2 36.7 M20.1 43.55 L19.8 43.65 Q17.15 44.45 15.5 43.3 L17.3 43.4 19.1 43.5 20.1 43.55"/><path fill="#fcf2cf" stroke="none" d="M27.75 10.95 L35.8 29.0 35.95 29.35 Q34.75 29.3 34.1 30.1 33.45 30.9 33.7 32.1 L34.0 32.9 20.65 37.2 Q18.8 37.8 17.65 37.0 16.8 36.4 16.3 35.2 L6.95 14.6 6.8 14.4 7.1 14.4 Q8.4 14.45 9.15 13.6 9.8 12.8 9.55 11.6 L9.1 10.55 18.5 7.45 27.75 10.95"/><path fill="none" stroke="#bf9900" stroke-width="1.0" stroke-opacity="0.749019607843" d="M31.5 13.2 L35.55 22.3 M15.0 38.6 L8.25 23.65"/><path fill="none" stroke="#ffcc00" stroke-width="1.0" stroke-opacity="0.749019607843" d="M35.55 22.3 L39.35 30.75 Q41.1 34.5 37.2 35.7 L20.45 41.1 Q16.8 42.25 15.2 39.0 L15.0 38.6 M8.25 23.65 L3.35 12.8 Q1.65 9.1 5.5 7.85 L16.95 4.25 29.75 9.2 31.5 13.2"/><path fill="none" stroke="#000000" stroke-width="0.5" stroke-opacity="0.301960784314" d="M4.6 20.9 L0.7 12.25 Q-0.45 9.75 0.75 8.25 1.2 7.6 2.15 7.15 2.8 6.7 3.8 6.35 L17.5 1.95 M30.2 7.0 L41.35 31.7 Q42.95 35.15 40.2 36.7 39.5 37.3 38.3 37.65 L23.3 42.5 20.1 43.55 19.8 43.65 Q17.15 44.45 15.5 43.3 14.35 42.55 13.65 40.9 L4.6 20.9 M5.45 20.95 L1.35 11.8 Q0.4 9.65 1.1 8.3 1.45 7.65 2.15 7.15 M19.1 43.5 L17.3 43.4 Q15.3 42.9 14.2 40.5 L5.45 20.95 M23.2 42.3 L20.4 43.2 19.1 43.5 M40.2 36.7 L38.9 37.25 23.2 42.3"/><path fill="none" stroke="#f0b92b" stroke-width="0.5" d="M27.75 10.95 L35.8 29.0 35.95 29.35 Q34.75 29.3 34.1 30.1 33.45 30.9 33.7 32.1 L34.0 32.9 20.65 37.2 Q18.8 37.8 17.65 37.0 16.8 36.4 16.3 35.2 L6.95 14.6 6.8 14.4 7.1 14.4 Q8.4 14.45 9.15 13.6 9.8 12.8 9.55 11.6 L9.1 10.55 18.5 7.45"/><path fill="none" stroke="#ffcc00" stroke-width="0.5" stroke-opacity="0.749019607843" d="M18.5 7.45 L27.75 10.95"/></g><g id="c3"><path fill="#7fdbfe" stroke="none" d="M10.75 4.9 Q10.75 4.6 10.9 4.35 11.25 3.45 11.95 2.75 13.3 1.5 14.35 2.1 15.4 2.7 14.95 4.45 14.7 5.4 14.1 6.15 L13.75 6.5 Q13.1 7.15 12.35 7.35 L11.4 7.2 Q10.95 6.9 10.75 6.4 10.5 5.75 10.75 4.9 M7.5 5.9 Q7.0 5.85 6.6 5.5 6.05 5.0 5.8 4.15 L5.7 3.6 Q5.55 2.65 5.8 1.7 6.25 0.0 7.5 0.0 L7.6 0.0 Q8.85 0.0 9.3 1.7 9.55 2.65 9.4 3.6 L9.3 4.15 8.5 5.5 7.6 5.9 7.5 5.9 M4.35 4.9 Q4.6 5.75 4.35 6.4 L3.7 7.2 2.75 7.35 Q2.0 7.15 1.35 6.5 L1.0 6.15 Q0.4 5.4 0.15 4.45 -0.3 2.7 0.75 2.1 1.8 1.5 3.15 2.75 3.85 3.45 4.2 4.35 L4.35 4.9 M5.5 13.7 Q4.45 13.9 3.65 12.95 2.75 12.0 3.2 10.25 3.7 8.5 5.25 7.6 6.4 6.9 7.55 7.0 8.75 6.9 9.9 7.6 11.45 8.5 11.95 10.25 12.35 12.0 11.5 12.95 10.7 13.9 9.65 13.7 8.55 13.5 7.55 12.6 6.55 13.5 5.5 13.7"/></g><g id="c4"><g><use transform="matrix(1.0,0.0,0.0,1.0,0.0,0.0)" xlink:href="#c3"/></g></g><radialGradient gradientUnits="userSpaceOnUse" r="819.2" cx="0" cy="0" spreadMethod="pad" gradientTransform="matrix(0.0914459228516,0.0,0.0,0.0914459228516,0.6,3.4)" id="gradient1"><stop offset="0.0" stop-color="#ffffff"/><stop offset="1.0" stop-color="#ffffff" stop-opacity="0.0"/></radialGradient><g id="c5"><path stroke="none" fill="url(#gradient1)" d="M36.65 -54.65 Q60.05 -42.0 69.75 -17.95 80.55 8.9 68.0 34.1 55.45 59.35 26.8 68.2 -1.8 77.05 -29.7 64.3 -57.6 51.6 -68.45 24.75 -79.3 -2.05 -66.75 -27.25 L-66.7 -27.3 Q-54.1 -52.5 -25.5 -61.4 3.1 -70.2 31.0 -57.5 L36.65 -54.65"/></g><g id="c6"><g><use transform="matrix(1.0,0.0,0.0,1.0,0.0,0.0)" xlink:href="#c5"/></g></g><radialGradient gradientUnits="userSpaceOnUse" r="819.2" cx="0" cy="0" spreadMethod="pad" gradientTransform="matrix(0.209197998047,0.0,0.0,0.177108764648,67.15,107.2)" id="gradient2"><stop offset="0.356862745098" stop-color="#ffffff"/><stop offset="0.670588235294" stop-opacity="0.0"/></radialGradient><g id="c7"><path fill="none" stroke-linejoin="round" stroke-linecap="round" stroke="url(#gradient2)" stroke-width="0.5" d="M136.55 165.8 L68.6 106.0 68.4 106.0 118.25 201.5 M68.3 105.8 L68.35 105.8 68.3 105.8 68.3 105.85 68.4 106.0 68.3 106.0 86.55 211.5 M68.3 105.8 L68.3 105.85 68.3 106.0 68.15 105.95 18.25 151.55 M68.3 105.85 L68.25 105.85 68.3 106.0 50.0 193.2 M68.25 105.85 L68.15 105.95 0.05 97.7 M68.3 105.85 L68.25 105.8 68.25 105.85 M68.25 105.8 L68.2 105.7 0.0 45.7 M68.3 105.8 L68.25 105.75 68.25 105.8 M68.25 105.75 L68.2 105.7 18.25 10.05 M68.6 106.0 L68.35 105.8 118.25 60.15 M86.6 18.35 L68.3 105.8 M136.6 114.25 L68.6 106.0 M68.25 105.75 L49.95 0.05"/></g><g id="c8"><g><use transform="matrix(1.0,0.0,0.0,1.0,0.0,0.0)" xlink:href="#c7"/></g></g><g id="c9"><g><use transform="matrix(1.0,0.0,0.0,1.0,0.0,0.0)" xlink:href="#c2"/></g><g><use transform="matrix(0.238861083984,-0.0867004394531,0.10026550293,0.233917236328,34.25,31.15)" xlink:href="#c4"/></g><g><use transform="matrix(0.238861083984,-0.0867004394531,0.10026550293,0.233917236328,4.25,10.3)" xlink:href="#c4"/></g><g><use transform="matrix(0.141098022461,-0.0378112792969,0.111373901367,0.225646972656,20.25,20.65)" filter="url(#filter7)" xlink:href="#c6"/></g><g><use transform="matrix(-0.155029296875,0.0513153076172,0.0841827392578,0.147033691406,22.6,3.15)" filter="url(#filter8)" xlink:href="#c8"/></g></g><filter id="filter7"><feColorMatrix in="SourceGraphic" type="matrix" values="0.0 0.0 0.0 0.0 0.796875 0.0 0.0 0.0 0.0 0.59765625 0.0 0.0 0.0 0.0 0.19921875 0.0 0.0 0.0 1.0 0.0" result="cxform"/><feComposite operator="in" in2="SourceGraphic" result="color-xform"/></filter><filter id="filter8"><feColorMatrix in="SourceGraphic" type="matrix" values="0.0 0.0 0.0 0.0 0.99609375 0.0 0.0 0.0 0.0 0.99609375 0.0 0.0 0.0 0.0 0.99609375 0.0 0.0 0.0 1.0 0.0" result="cxform"/><feComposite operator="in" in2="SourceGraphic" result="color-xform"/></filter><g id="c10"><path fill="#938638" stroke="none" d="M25.5 69.15 L23.05 66.6 20.8 68.05 20.4 67.7 18.95 68.6 19.4 68.95 19.4 69.0 19.55 69.05 Q23.5 70.2 29.3 75.25 31.35 77.25 33.35 78.65 L34.95 79.7 37.05 80.75 Q37.6 80.4 37.6 79.75 L32.9 75.95 Q31.95 75.85 31.15 75.45 L29.2 74.0 25.5 69.15 M18.7 74.35 L18.7 75.05 19.05 73.25 25.45 79.9 Q27.5 80.75 29.55 82.75 L31.6 85.2 32.6 84.7 Q32.7 84.2 30.3 81.45 L29.7 80.6 Q29.45 80.0 31.15 81.9 L31.65 82.4 33.55 83.95 Q34.3 83.65 35.15 83.3 L35.55 82.95 33.35 81.0 33.05 80.75 24.6 73.7 Q21.4 71.6 18.5 71.35 L26.2 78.75 18.75 72.95 18.75 73.0 18.7 72.9 18.7 74.35 M26.15 76.8 L27.2 77.95 26.15 76.8"/><path fill="#c1b98f" stroke="none" d="M19.4 69.0 L19.4 68.95 19.35 69.0 19.4 69.0"/><path fill="#beaa5a" stroke="none" d="M25.5 69.15 L29.2 74.0 31.15 75.45 Q31.95 75.85 32.9 75.95 28.65 72.5 25.5 69.15 M37.05 80.75 L34.95 79.7 33.35 78.65 Q31.35 77.25 29.3 75.25 23.5 70.2 19.55 69.05 L19.4 69.0 19.35 69.0 18.95 69.25 17.4 70.2 18.5 71.35 Q21.4 71.6 24.6 73.7 L33.05 80.75 33.35 81.0 35.55 82.95 36.4 82.3 36.05 81.95 35.9 81.8 33.05 79.3 35.9 81.8 37.05 80.75 M31.6 85.2 L29.55 82.75 Q27.5 80.75 25.45 79.9 L28.55 83.35 29.15 84.15 30.6 85.3 30.8 85.35 31.6 85.2"/><path fill="#6c6c38" stroke="none" d="M19.4 68.95 L19.35 69.0 19.4 68.95 M18.75 72.95 L18.7 72.9 18.75 73.0 18.75 72.95"/><path fill="#5a541d" stroke="none" d="M19.4 68.95 L18.95 68.6 18.95 69.25 19.35 69.0 19.4 68.95 M17.4 70.2 L17.4 71.6 17.7 73.4 18.7 74.35 18.7 72.9 18.75 72.95 26.2 78.75 18.5 71.35 17.4 70.2 M18.7 75.05 L23.7 79.8 27.65 83.95 30.8 87.75 30.75 87.05 Q30.25 85.75 29.15 84.15 L28.55 83.35 25.45 79.9 19.05 73.25 18.7 75.05 M29.7 80.6 L30.3 81.45 Q32.7 84.2 32.6 84.7 L33.0 85.15 33.35 85.65 33.3 85.15 33.2 84.2 29.7 80.6"/><path fill="#edcc6f" stroke="none" d="M37.6 79.75 Q37.6 80.4 37.05 80.75 L37.2 80.8 37.35 80.9 37.2 80.8 37.05 80.75 35.9 81.8 36.05 81.9 37.35 80.9 37.75 80.65 37.65 81.45 37.7 81.45 38.15 80.4 37.6 79.75 M35.15 83.3 Q34.3 83.65 33.55 83.95 L31.65 82.4 31.15 81.9 Q29.45 80.0 29.7 80.6 L33.2 84.2 33.3 85.15 33.55 84.55 35.15 83.3 M32.6 84.7 L31.6 85.2 31.75 85.35 31.6 85.2 30.8 85.35 30.6 85.3 29.15 84.15 Q30.25 85.75 30.75 87.05 31.05 85.8 31.65 85.45 L31.75 85.35 32.6 84.7"/><path fill="#7a6c38" stroke="none" d="M30.8 87.75 L30.95 87.6 31.1 87.5 31.55 87.2 32.3 85.6 33.0 85.15 32.6 84.7 31.75 85.35 31.65 85.45 Q31.05 85.8 30.75 87.05 L30.8 87.75 M36.4 83.7 L36.45 83.65 37.05 83.2 37.55 81.9 37.65 81.7 37.65 81.45 37.75 80.65 37.35 80.9 36.05 81.9 36.05 81.95 36.4 82.3 35.55 82.95 35.15 83.3 33.55 84.55 33.3 85.15 35.25 83.7 36.4 83.7"/><path fill="#d6a0a0" stroke="none" d="M37.65 81.7 L37.7 81.45 37.65 81.45 37.65 81.7"/><path fill="#7d8061" stroke="none" d="M31.55 87.2 L32.0 86.85 31.85 87.0 31.55 87.2 31.85 87.0 31.55 87.2"/><path fill="#955582" stroke="none" d="M32.0 86.85 L32.35 86.6 31.85 87.0 32.0 86.85"/><path fill="#939672" stroke="none" d="M31.1 87.5 L31.55 87.2 31.1 87.5 31.55 87.2 31.1 87.5"/><path fill="#685c31" stroke="none" d="M32.35 86.6 L34.95 84.7 36.4 83.7 35.25 83.7 33.3 85.15 33.35 85.65 33.0 85.15 32.3 85.6 31.55 87.2 31.85 87.0 32.35 86.6"/><path fill="none" stroke="#000000" stroke-width="0.5" stroke-opacity="0.301960784314" d="M18.95 68.6 L20.4 67.7 20.8 68.05 23.05 66.6 25.5 69.15 Q28.65 72.5 32.9 75.95 L37.6 79.75 M18.95 68.6 L18.95 69.25 17.4 70.2 17.4 71.6 17.7 73.4 18.7 74.35 18.7 75.05 23.7 79.8 27.65 83.95 30.8 87.75 30.95 87.6 M32.35 86.6 L34.95 84.7 M36.45 83.65 L37.05 83.2 37.55 81.9 M37.7 81.45 L38.15 80.4 37.6 79.75 M18.7 72.9 L18.7 74.35 M33.3 85.15 L33.2 84.2 M31.1 87.5 L31.55 87.2 31.85 87.0 32.35 86.6 M33.3 85.15 L33.35 85.65"/><path fill="none" stroke="#382510" stroke-width="0.5" stroke-opacity="0.152941176471" d="M25.5 69.15 L29.2 74.0 31.15 75.45 Q31.95 75.85 32.9 75.95 M37.05 80.75 L34.95 79.7 33.35 78.65 Q31.35 77.25 29.3 75.25 23.5 70.2 19.55 69.05 M19.35 69.0 L19.4 69.0 M18.5 71.35 Q21.4 71.6 24.6 73.7 L33.05 80.75 33.35 81.0 35.55 82.95 M31.6 85.2 L29.55 82.75 Q27.5 80.75 25.45 79.9 M37.35 80.9 L37.2 80.8 37.05 80.75 M31.75 85.35 L31.6 85.2"/><path fill="none" stroke="#382510" stroke-width="0.7" stroke-opacity="0.301960784314" d="M18.95 69.25 L19.35 69.0 19.4 68.95 M35.9 81.8 L33.05 79.3 M35.9 81.8 L36.05 81.95 36.4 82.3 M36.05 81.9 L36.05 81.95 M33.2 84.2 L29.7 80.6 M35.9 81.8 L36.05 81.9 M27.2 77.95 L26.15 76.8"/></g><g id="c11"><g><use transform="matrix(1.0,0.0,0.0,1.0,6.3,53.35)" xlink:href="#c9"/></g><g><use transform="matrix(1.0,0.0,0.0,1.0,0.0,0.0)" xlink:href="#c10"/></g><g><use transform="matrix(0.141098022461,-0.0378112792969,0.111373901367,0.225646972656,27.2,74.05)" filter="url(#filter11)" xlink:href="#c6"/></g></g><filter id="filter11"><feColorMatrix in="SourceGraphic" type="matrix" values="1.0 0.0 0.0 0.0 0.0 0.0 1.0 0.0 0.0 0.0 0.0 0.0 1.0 0.0 0.0 0.0 0.0 0.0 0.23046875 0.0" result="cxform"/><feComposite operator="in" in2="SourceGraphic" result="color-xform"/></filter></defs><g><g><use transform="matrix(1.0,0.0,0.0,1.0,0.0,0.0)" xlink:href="#c1"/></g><g><use transform="matrix(1.15496826172,0.0,0.0,1.15496826172,-1.55,-56.9)" xlink:href="#c11"/></g></g></svg>