<?xml version='1.0' encoding='UTF-8'?>
<svg xmlns:xlink="http://www.w3.org/1999/xlink" xmlns="http://www.w3.org/2000/svg" version="1.1" width="60px" height="60px" viewBox="0.0 0.0 60.0 60.0"><defs><g id="c1"><path fill="#000000" fill-opacity="0.00392156862745" d="M0.0 0.0 L60.0 0.0 60.0 60.0 0.0 60.0 0.0 0.0"/></g><g id="c2"><path fill="none" stroke="#000000" stroke-width="1.0" stroke-opacity="0.301960784314" d="M0.7 12.25 Q-0.45 9.75 0.75 8.25 1.2 7.6 2.15 7.15 2.8 6.7 3.8 6.35 L17.5 1.95 30.2 7.0 41.35 31.7 Q42.95 35.15 40.2 36.7 39.5 37.3 38.3 37.65 L19.8 43.65 Q17.15 44.45 15.5 43.3 14.35 42.55 13.65 40.9 L0.7 12.25"/><path fill="#9d147b" stroke="none" d="M35.55 22.3 L31.5 13.2 29.75 9.2 16.95 4.25 5.5 7.85 Q1.65 9.1 3.35 12.8 L8.25 23.65 15.0 38.6 15.2 39.0 Q16.8 42.25 20.45 41.1 L37.2 35.7 Q41.1 34.5 39.35 30.75 L35.55 22.3 M2.15 7.15 Q2.8 6.7 3.8 6.35 L17.5 1.95 30.2 7.0 41.35 31.7 Q42.95 35.15 40.2 36.7 L38.9 37.25 23.2 42.3 20.4 43.2 19.1 43.5 17.3 43.4 Q15.3 42.9 14.2 40.5 L5.45 20.95 1.35 11.8 Q0.4 9.65 1.1 8.3 1.45 7.65 2.15 7.15"/><path fill="#c47fad" stroke="none" d="M31.5 13.2 L35.55 22.3 39.35 30.75 Q41.1 34.5 37.2 35.7 L20.45 41.1 Q16.8 42.25 15.2 39.0 L15.0 38.6 8.25 23.65 3.35 12.8 Q1.65 9.1 5.5 7.85 L16.95 4.25 29.75 9.2 31.5 13.2 M18.5 7.45 L9.1 10.55 9.55 11.6 Q9.8 12.8 9.15 13.6 8.4 14.45 7.1 14.4 L6.8 14.4 6.95 14.6 16.3 35.2 Q16.8 36.4 17.65 37.0 18.8 37.8 20.65 37.2 L34.0 32.9 33.7 32.1 Q33.45 30.9 34.1 30.1 34.75 29.3 35.95 29.35 L35.8 29.0 27.75 10.95 18.5 7.45"/><path fill="#630a4c" stroke="none" d="M0.75 8.25 Q1.2 7.6 2.15 7.15 1.45 7.65 1.1 8.3 L0.75 8.25 M23.3 42.5 L20.1 43.55 19.1 43.5 20.4 43.2 23.2 42.3 23.3 42.5 M15.5 43.3 Q14.35 42.55 13.65 40.9 L4.6 20.9 5.45 20.95 14.2 40.5 Q15.3 42.9 17.3 43.4 L15.5 43.3"/><path fill="#300525" stroke="none" d="M4.6 20.9 L0.7 12.25 Q-0.45 9.75 0.75 8.25 L1.1 8.3 Q0.4 9.65 1.35 11.8 L5.45 20.95 4.6 20.9 M40.2 36.7 Q39.5 37.3 38.3 37.65 L23.3 42.5 23.2 42.3 38.9 37.25 40.2 36.7 M20.1 43.55 L19.8 43.65 Q17.15 44.45 15.5 43.3 L17.3 43.4 19.1 43.5 20.1 43.55"/><path fill="#fcf2cf" stroke="none" d="M27.75 10.95 L35.8 29.0 35.95 29.35 Q34.75 29.3 34.1 30.1 33.45 30.9 33.7 32.1 L34.0 32.9 20.65 37.2 Q18.8 37.8 17.65 37.0 16.8 36.4 16.3 35.2 L6.95 14.6 6.8 14.4 7.1 14.4 Q8.4 14.45 9.15 13.6 9.8 12.8 9.55 11.6 L9.1 10.55 18.5 7.45 27.75 10.95"/><path fill="none" stroke="#bf9900" stroke-width="1.0" stroke-opacity="0.749019607843" d="M31.5 13.2 L35.55 22.3 M15.0 38.6 L8.25 23.65"/><path fill="none" stroke="#ffcc00" stroke-width="1.0" stroke-opacity="0.749019607843" d="M35.55 22.3 L39.35 30.75 Q41.1 34.5 37.2 35.7 L20.45 41.1 Q16.8 42.25 15.2 39.0 L15.0 38.6 M8.25 23.65 L3.35 12.8 Q1.65 9.1 5.5 7.85 L16.95 4.25 29.75 9.2 31.5 13.2"/><path fill="none" stroke="#000000" stroke-width="0.5" stroke-opacity="0.301960784314" d="M4.6 20.9 L0.7 12.25 Q-0.45 9.75 0.75 8.25 1.2 7.6 2.15 7.15 2.8 6.7 3.8 6.35 L17.5 1.95 M30.2 7.0 L41.35 31.7 Q42.95 35.15 40.2 36.7 39.5 37.3 38.3 37.65 L23.3 42.5 20.1 43.55 19.8 43.65 Q17.15 44.45 15.5 43.3 14.35 42.55 13.65 40.9 L4.6 20.9 M5.45 20.95 L1.35 11.8 Q0.4 9.65 1.1 8.3 1.45 7.65 2.15 7.15 M19.1 43.5 L17.3 43.4 Q15.3 42.9 14.2 40.5 L5.45 20.95 M23.2 42.3 L20.4 43.2 19.1 43.5 M40.2 36.7 L38.9 37.25 23.2 42.3"/><path fill="none" stroke="#f0b92b" stroke-width="0.5" d="M27.75 10.95 L35.8 29.0 35.95 29.35 Q34.75 29.3 34.1 30.1 33.45 30.9 33.7 32.1 L34.0 32.9 20.65 37.2 Q18.8 37.8 17.65 37.0 16.8 36.4 16.3 35.2 L6.95 14.6 6.8 14.4 7.1 14.4 Q8.4 14.45 9.15 13.6 9.8 12.8 9.55 11.6 L9.1 10.55 18.5 7.45"/><path fill="none" stroke="#ffcc00" stroke-width="0.5" stroke-opacity="0.749019607843" d="M18.5 7.45 L27.75 10.95"/></g><g id="c3"><path fill="#7fdbfe" stroke="none" d="M10.75 4.9 Q10.75 4.6 10.9 4.35 11.25 3.45 11.95 2.75 13.3 1.5 14.35 2.1 15.4 2.7 14.95 4.45 14.7 5.4 14.1 6.15 L13.75 6.5 Q13.1 7.15 12.35 7.35 L11.4 7.2 Q10.95 6.9 10.75 6.4 10.5 5.75 10.75 4.9 M7.5 5.9 Q7.0 5.85 6.6 5.5 6.05 5.0 5.8 4.15 L5.7 3.6 Q5.55 2.65 5.8 1.7 6.25 0.0 7.5 0.0 L7.6 0.0 Q8.85 0.0 9.3 1.7 9.55 2.65 9.4 3.6 L9.3 4.15 8.5 5.5 7.6 5.9 7.5 5.9 M4.35 4.9 Q4.6 5.75 4.35 6.4 L3.7 7.2 2.75 7.35 Q2.0 7.15 1.35 6.5 L1.0 6.15 Q0.4 5.4 0.15 4.45 -0.3 2.7 0.75 2.1 1.8 1.5 3.15 2.75 3.85 3.45 4.2 4.35 L4.35 4.9 M5.5 13.7 Q4.45 13.9 3.65 12.95 2.75 12.0 3.2 10.25 3.7 8.5 5.25 7.6 6.4 6.9 7.55 7.0 8.75 6.9 9.9 7.6 11.45 8.5 11.95 10.25 12.35 12.0 11.5 12.95 10.7 13.9 9.65 13.7 8.55 13.5 7.55 12.6 6.55 13.5 5.5 13.7"/></g><g id="c4"><g><use transform="matrix(1.0,0.0,0.0,1.0,0.0,0.0)" xlink:href="#c3"/></g></g><radialGradient gradientUnits="userSpaceOnUse" r="819.2" cx="0" cy="0" spreadMethod="pad" gradientTransform="matrix(0.0914459228516,0.0,0.0,0.0914459228516,0.6,3.4)" id="gradient1"><stop offset="0.0" stop-color="#ffffff"/><stop offset="1.0" stop-color="#ffffff" stop-opacity="0.0"/></radialGradient><g id="c5"><path stroke="none" fill="url(#gradient1)" d="M36.65 -54.65 Q60.05 -42.0 69.75 -17.95 80.55 8.9 68.0 34.1 55.45 59.35 26.8 68.2 -1.8 77.05 -29.7 64.3 -57.6 51.6 -68.45 24.75 -79.3 -2.05 -66.75 -27.25 L-66.7 -27.3 Q-54.1 -52.5 -25.5 -61.4 3.1 -70.2 31.0 -57.5 L36.65 -54.65"/></g><g id="c6"><g><use transform="matrix(1.0,0.0,0.0,1.0,0.0,0.0)" xlink:href="#c5"/></g></g><radialGradient gradientUnits="userSpaceOnUse" r="819.2" cx="0" cy="0" spreadMethod="pad" gradientTransform="matrix(0.209197998047,0.0,0.0,0.177108764648,67.15,107.2)" id="gradient2"><stop offset="0.356862745098" stop-color="#ffffff"/><stop offset="0.670588235294" stop-opacity="0.0"/></radialGradient><g id="c7"><path fill="none" stroke-linejoin="round" stroke-linecap="round" stroke="url(#gradient2)" stroke-width="0.5" d="M136.55 165.8 L68.6 106.0 68.4 106.0 118.25 201.5 M68.3 105.8 L68.35 105.8 68.3 105.8 68.3 105.85 68.4 106.0 68.3 106.0 86.55 211.5 M68.3 105.8 L68.3 105.85 68.3 106.0 68.15 105.95 18.25 151.55 M68.3 105.85 L68.25 105.85 68.3 106.0 50.0 193.2 M68.25 105.85 L68.15 105.95 0.05 97.7 M68.3 105.85 L68.25 105.8 68.25 105.85 M68.25 105.8 L68.2 105.7 0.0 45.7 M68.3 105.8 L68.25 105.75 68.25 105.8 M68.25 105.75 L68.2 105.7 18.25 10.05 M68.6 106.0 L68.35 105.8 118.25 60.15 M86.6 18.35 L68.3 105.8 M136.6 114.25 L68.6 106.0 M68.25 105.75 L49.95 0.05"/></g><g id="c8"><g><use transform="matrix(1.0,0.0,0.0,1.0,0.0,0.0)" xlink:href="#c7"/></g></g><g id="c9"><g><use transform="matrix(1.0,0.0,0.0,1.0,0.0,0.0)" xlink:href="#c2"/></g><g><use transform="matrix(0.238861083984,-0.0867004394531,0.10026550293,0.233917236328,34.25,31.15)" xlink:href="#c4"/></g><g><use transform="matrix(0.238861083984,-0.0867004394531,0.10026550293,0.233917236328,4.25,10.3)" xlink:href="#c4"/></g><g><use transform="matrix(0.141098022461,-0.0378112792969,0.111373901367,0.225646972656,20.25,20.65)" filter="url(#filter7)" xlink:href="#c6"/></g><g><use transform="matrix(-0.155029296875,0.0513153076172,0.0841827392578,0.147033691406,22.6,3.15)" filter="url(#filter8)" xlink:href="#c8"/></g></g><filter id="filter7"><feColorMatrix in="SourceGraphic" type="matrix" values="0.0 0.0 0.0 0.0 0.796875 0.0 0.0 0.0 0.0 0.59765625 0.0 0.0 0.0 0.0 0.19921875 0.0 0.0 0.0 1.0 0.0" result="cxform"/><feComposite operator="in" in2="SourceGraphic" result="color-xform"/></filter><filter id="filter8"><feColorMatrix in="SourceGraphic" type="matrix" values="0.0 0.0 0.0 0.0 0.99609375 0.0 0.0 0.0 0.0 0.99609375 0.0 0.0 0.0 0.0 0.99609375 0.0 0.0 0.0 1.0 0.0" result="cxform"/><feComposite operator="in" in2="SourceGraphic" result="color-xform"/></filter><linearGradient gradientUnits="userSpaceOnUse" x1="-819.2" x2="819.2" spreadMethod="pad" gradientTransform="matrix(0.00286865234375,-0.00157165527344,0.00361633300781,0.00657653808594,28.1,72.1)" id="gradient3"><stop offset="0.0" stop-opacity="0.521568627451"/><stop offset="1.0" stop-opacity="0.0"/></linearGradient><linearGradient gradientUnits="userSpaceOnUse" x1="-819.2" x2="819.2" spreadMethod="pad" gradientTransform="matrix(0.00332641601562,-0.00689697265625,0.00679016113281,0.00326538085938,30.1,69.0)" id="gradient4"><stop offset="0.0" stop-opacity="0.690196078431"/><stop offset="1.0" stop-opacity="0.0"/></linearGradient><linearGradient gradientUnits="userSpaceOnUse" x1="-819.2" x2="819.2" spreadMethod="pad" gradientTransform="matrix(0.00267028808594,0.004150390625,0.00444030761719,-0.00286865234375,26.25,73.3)" id="gradient5"><stop offset="0.0" stop-opacity="0.690196078431"/><stop offset="1.0" stop-opacity="0.0"/></linearGradient><linearGradient gradientUnits="userSpaceOnUse" x1="-819.2" x2="819.2" spreadMethod="pad" gradientTransform="matrix(-0.000778198242188,0.000335693359375,0.000411987304688,0.00102233886719,31.35,81.15)" id="gradient6"><stop offset="0.0" stop-color="#cccccc"/><stop offset="0.501960784314" stop-color="#666666"/><stop offset="1.0" stop-color="#333333"/></linearGradient><linearGradient gradientUnits="userSpaceOnUse" x1="-819.2" x2="819.2" spreadMethod="pad" gradientTransform="matrix(-0.00106811523438,0.000442504882812,0.000579833984375,0.00138854980469,34.5,86.0)" id="gradient7"><stop offset="0.0" stop-color="#cccccc"/><stop offset="0.501960784314" stop-color="#666666"/><stop offset="1.0" stop-color="#333333"/></linearGradient><linearGradient gradientUnits="userSpaceOnUse" x1="-819.2" x2="819.2" spreadMethod="pad" gradientTransform="matrix(-0.00263977050781,0.00192260742188,0.00442504882812,0.00607299804688,24.4,74.25)" id="gradient8"><stop offset="0.0" stop-opacity="0.521568627451"/><stop offset="1.0" stop-opacity="0.0"/></linearGradient><g id="c10"><path fill="#b58d51" stroke="none" d="M24.35 71.4 L24.25 71.45 31.0 81.65 31.8 81.1 31.7 81.0 31.45 81.3 31.35 81.4 31.1 81.55 30.15 79.95 26.9 75.4 25.35 72.85 24.35 71.4 M31.65 80.9 L29.0 76.8 25.05 70.9 25.0 70.95 27.75 75.35 29.9 78.35 30.95 80.15 31.65 80.9 M24.85 71.05 L24.45 71.35 24.5 71.3 24.65 71.2 24.75 71.1 24.85 71.05"/><path fill="#544125" stroke="none" d="M24.45 71.35 L24.3 71.35 24.35 71.4 25.35 72.85 29.0 78.1 30.15 79.95 31.1 81.55 31.35 81.4 29.75 78.9 29.6 78.7 29.5 78.5 24.65 71.2 24.5 71.3 24.45 71.35 M31.7 81.0 L31.65 80.9 31.7 81.0 M24.9 71.0 L24.85 70.95 24.85 71.05 24.9 71.0"/><path fill="#735932" stroke="none" d="M24.65 71.2 L29.5 78.5 28.9 77.3 26.9 74.15 25.75 72.5 24.9 71.0 24.85 71.05 24.75 71.1 24.65 71.2"/><path fill="#997745" stroke="none" d="M25.0 70.95 L24.9 71.0 25.75 72.5 26.9 74.15 28.9 77.3 29.5 78.5 29.6 78.7 29.75 78.9 29.35 77.85 30.95 80.15 29.9 78.35 27.75 75.35 25.0 70.95"/><path fill="#967543" stroke="none" d="M30.15 79.95 L29.0 78.1 25.35 72.85 26.9 75.4 30.15 79.95"/><path fill="#7a5e35" stroke="none" d="M29.75 78.9 L31.35 81.4 31.45 81.3 31.7 81.0 31.65 80.9 30.95 80.15 29.35 77.85 29.75 78.9"/><path fill="none" stroke="#000000" stroke-width="0.5" stroke-opacity="0.2" d="M24.35 71.4 L24.25 71.45 31.0 81.65 31.8 81.1 31.7 81.0 M31.65 80.9 L29.0 76.8 25.05 70.9 25.0 70.95 24.9 71.0"/><path fill="#ededed" stroke="none" d="M29.45 65.65 L29.9 64.85 29.0 63.15 28.75 63.65 29.55 65.0 29.45 65.65 M33.65 74.25 L34.55 73.85 33.4 72.2 33.0 72.0 33.15 71.8 32.15 70.25 31.85 70.35 31.7 69.6 30.9 68.55 30.15 68.7 30.5 68.85 31.2 69.9 31.05 70.05 31.35 70.1 32.95 72.6 32.5 73.1 33.05 72.7 33.8 73.45 33.9 73.8 33.65 74.25 M30.05 68.35 L30.4 67.65 29.95 65.55 29.5 65.85 29.75 66.05 30.05 67.9 30.05 68.35"/><path fill="#8a8a8a" stroke="none" d="M27.0 67.75 L25.4 70.7 28.8 76.35 30.4 75.55 33.0 74.1 31.5 73.7 31.7 73.65 31.7 73.3 31.25 73.2 31.5 72.05 30.85 71.85 29.8 72.55 31.3 71.25 30.45 71.45 Q30.8 71.25 31.25 71.0 L31.1 70.75 30.45 70.75 Q30.6 69.65 29.75 69.9 L29.9 69.6 29.65 69.7 29.45 67.2 29.45 67.35 29.25 66.2 28.4 67.0 29.05 65.75 28.6 64.4 27.5 67.1 27.8 67.75 27.4 67.35 27.0 67.75 M29.4 67.4 L29.4 67.45 29.4 67.4 M28.0 70.9 L27.95 71.0 27.75 70.85 27.85 70.7 28.0 70.9"/><path fill="#adadad" stroke="none" d="M28.75 63.65 L27.0 67.75 27.4 67.35 27.8 67.75 27.5 67.1 28.6 64.4 29.05 65.75 28.4 67.0 29.25 66.2 29.45 67.35 29.45 67.2 29.65 69.7 29.9 69.6 29.75 69.9 Q30.6 69.65 30.45 70.75 L31.1 70.75 31.25 71.0 Q30.8 71.25 30.45 71.45 L31.3 71.25 29.8 72.55 30.85 71.85 31.5 72.05 31.25 73.2 31.7 73.3 31.7 73.65 31.5 73.7 33.0 74.1 30.4 75.55 33.65 74.25 33.9 73.8 33.8 73.45 33.05 72.7 32.5 73.1 32.95 72.6 31.35 70.1 31.05 70.05 31.2 69.9 30.5 68.85 30.15 68.7 29.8 68.8 30.05 68.35 30.05 67.9 29.75 66.05 29.5 65.85 29.3 65.95 29.45 65.65 29.55 65.0 28.75 63.65"/><path fill="#969696" stroke="none" d="M29.4 67.4 L29.4 67.45 29.4 67.4"/><path fill="#4d4d4d" stroke="none" d="M28.0 70.9 L27.85 70.7 27.75 70.85 27.95 71.0 28.0 70.9"/><path fill="none" stroke="#000000" stroke-width="0.5" stroke-opacity="0.301960784314" d="M29.45 65.65 L29.9 64.85 29.0 63.15 28.75 63.65 27.0 67.75 25.4 70.7 28.8 76.35 30.4 75.55 33.65 74.25 34.55 73.85 33.4 72.2 33.0 72.0 33.15 71.8 32.15 70.25 31.85 70.35 31.7 69.6 30.9 68.55 30.15 68.7 29.8 68.8 30.05 68.35 30.4 67.65 29.95 65.55 29.5 65.85 29.3 65.95 29.45 65.65"/><path stroke="none" fill="url(#gradient3)" d="M29.8 72.65 L30.9 72.45 31.7 73.85 31.95 74.35 Q31.7 74.3 31.65 74.5 L31.15 74.65 31.05 74.6 Q30.75 74.45 30.6 74.8 30.2 74.75 30.1 75.0 L28.8 75.8 25.9 70.95 27.75 67.45 28.0 65.0 28.4 64.65 29.2 67.0 29.15 67.05 29.15 67.2 28.7 68.4 29.3 68.8 30.4 71.4 29.8 72.65"/><path stroke="none" fill="url(#gradient4)" d="M26.25 67.9 L26.25 67.85 26.3 67.9 26.25 67.9"/><path fill="#717578" stroke="none" d="M28.7 76.85 L29.25 76.5 25.95 71.45 25.6 71.0 25.65 71.0 25.05 70.1 24.85 70.25 28.4 75.75 28.7 76.85 M28.4 77.0 L27.4 76.15 24.1 70.95 24.05 70.8 23.9 69.7 23.7 70.95 27.95 77.45 28.4 77.0"/><path fill="#4e606d" stroke="none" d="M28.7 76.85 L28.4 75.75 24.85 70.25 24.8 70.25 24.05 70.8 24.1 70.95 27.4 76.15 28.4 77.0 28.7 76.85"/><path fill="#ffffff" stroke="none" d="M24.05 70.8 L24.8 70.25 23.9 69.7 24.05 70.8"/><path fill="#adbac6" stroke="none" d="M24.85 70.25 L25.05 70.1 24.95 70.0 23.9 69.65 23.9 69.7 24.8 70.25 24.85 70.25"/><path fill="none" stroke="#000000" stroke-width="0.5" stroke-opacity="0.250980392157" d="M25.95 71.45 L29.25 76.5 28.7 76.85 28.4 77.0 27.95 77.45 M25.05 70.1 L25.65 71.0 M24.05 70.8 L24.8 70.25 24.85 70.25 M23.7 70.95 L23.9 69.7 23.9 69.65 24.95 70.0 25.05 70.1 M24.8 70.25 L23.9 69.7"/><path stroke="none" fill="url(#gradient5)" d="M23.7 71.0 L27.35 76.45 28.45 77.0 28.75 76.85 28.7 75.55 25.1 70.1 24.9 70.3 24.85 70.25 24.1 70.8 23.95 69.7 23.7 71.0"/><path fill="#332c20" stroke="none" d="M32.75 81.25 L32.25 80.85 31.95 81.1 31.85 81.15 32.45 81.55 32.75 81.25 32.45 81.55 32.75 82.5 33.0 82.6 33.25 83.2 33.55 82.85 33.3 82.15 33.15 82.2 32.75 81.25 M34.8 85.55 L35.25 85.2 34.95 84.7 34.2 83.95 34.05 83.45 33.55 82.85 33.25 83.2 33.8 83.7 34.0 84.3 34.2 83.95 34.0 84.3 34.6 85.0 34.8 85.55 M33.3 82.15 L33.0 82.6 33.3 82.15 M34.05 83.45 L33.8 83.7 34.05 83.45 M32.75 82.5 L33.15 82.2 32.75 82.5 M34.95 84.7 L34.6 85.0 34.95 84.7"/><path fill="#9e8965" stroke="none" d="M31.25 81.6 L31.05 81.8 31.3 82.55 31.7 82.2 31.3 82.55 31.85 83.05 32.1 83.75 32.4 83.4 32.1 83.75 32.5 84.1 32.7 83.85 32.5 84.1 32.85 84.95 33.15 84.6 32.85 84.95 33.35 85.4 33.5 85.1 33.35 85.4 33.6 86.15 33.9 85.8 33.6 86.15 33.95 86.4 34.15 86.15 33.9 85.8 33.5 85.1 33.15 84.6 32.7 83.85 32.4 83.4 32.1 82.9 31.85 83.05 32.1 82.9 31.7 82.2 31.25 81.6"/><path fill="#5a4e39" stroke="none" d="M32.45 81.55 L31.85 81.15 31.25 81.6 31.7 82.2 32.45 81.55 31.7 82.2 32.1 82.9 32.4 83.4 33.0 82.6 32.4 83.4 32.7 83.85 33.25 83.2 32.7 83.85 33.15 84.6 33.5 85.1 34.0 84.3 33.5 85.1 33.9 85.8 34.15 86.15 34.8 85.55 34.6 85.0 34.0 84.3 33.8 83.7 33.15 84.6 33.8 83.7 33.25 83.2 33.0 82.6 32.75 82.5 32.1 82.9 32.75 82.5 32.45 81.55 M31.05 81.8 L30.85 81.9 31.2 82.65 31.65 83.15 32.0 83.95 32.35 84.25 32.65 85.25 33.2 85.65 33.4 86.3 33.8 86.55 33.95 86.4 33.6 86.15 33.35 85.4 32.85 84.95 32.5 84.1 32.1 83.75 31.85 83.05 31.3 82.55 31.05 81.8 M32.0 83.95 L32.1 83.75 32.0 83.95 M31.65 83.15 L31.85 83.05 31.65 83.15 M31.2 82.65 L31.3 82.55 31.2 82.65 M32.35 84.25 L32.5 84.1 32.35 84.25 M32.65 85.25 L32.85 84.95 32.65 85.25 M33.2 85.65 L33.35 85.4 33.2 85.65 M33.4 86.3 L33.6 86.15 33.4 86.3 M33.9 85.8 L34.6 85.0 33.9 85.8"/><path fill="none" stroke="#000000" stroke-width="0.5" stroke-opacity="0.301960784314" d="M31.85 81.15 L31.95 81.1 32.25 80.85 32.75 81.25 32.45 81.55 31.7 82.2 31.3 82.55 31.2 82.65 31.65 83.15 32.0 83.95 32.35 84.25 32.65 85.25 33.2 85.65 33.4 86.3 33.8 86.55 M31.85 81.15 L31.25 81.6 31.05 81.8 30.85 81.9 31.2 82.65 M33.95 86.4 L34.15 86.15 M35.25 85.2 L34.95 84.7 34.2 83.95 34.05 83.45 33.55 82.85 33.3 82.15 33.15 82.2 32.75 81.25 M32.4 83.4 L32.1 83.75 32.0 83.95 M31.85 83.05 L32.1 82.9 32.75 82.5 M33.0 82.6 L32.4 83.4 M32.7 83.85 L32.5 84.1 32.35 84.25 M31.85 83.05 L31.65 83.15 M33.0 82.6 L33.3 82.15 M33.55 82.85 L33.25 83.2 32.7 83.85 M33.15 84.6 L32.85 84.95 32.65 85.25 M33.5 85.1 L33.35 85.4 33.2 85.65 M33.8 83.7 L34.05 83.45 M34.2 83.95 L34.0 84.3 33.5 85.1 M33.9 85.8 L33.6 86.15 33.4 86.3 M33.15 84.6 L33.8 83.7 M33.15 82.2 L32.75 82.5 M34.6 85.0 L34.95 84.7 M34.6 85.0 L33.9 85.8"/><path fill="#ededed" stroke="none" d="M31.7 80.65 Q32.25 80.6 32.0 81.15 L32.2 80.95 Q32.55 80.4 32.0 80.45 L31.7 80.65"/><path stroke="none" fill="url(#gradient6)" d="M32.0 81.15 Q32.25 80.6 31.7 80.65 L30.7 81.3 Q30.4 81.65 30.95 81.85 L32.0 81.15"/><path fill="#cccccc" stroke="none" d="M30.95 81.85 Q30.4 81.65 30.7 81.3 L30.5 81.4 Q30.2 81.85 30.75 82.0 L30.95 81.85"/><path fill="none" stroke="#000000" stroke-width="0.5" stroke-opacity="0.250980392157" d="M31.7 80.65 L32.0 80.45 Q32.55 80.4 32.2 80.95 L32.0 81.15 30.95 81.85 30.75 82.0 Q30.2 81.85 30.5 81.4 L30.7 81.3 31.7 80.65"/><path fill="#ededed" stroke="none" d="M35.3 85.9 L35.65 85.7 Q36.1 85.0 35.4 85.0 L35.0 85.25 Q35.7 85.2 35.3 85.9"/><path stroke="none" fill="url(#gradient7)" d="M35.3 85.9 Q35.7 85.2 35.0 85.25 L33.55 86.15 Q33.2 86.65 33.9 86.95 L35.3 85.9"/><path fill="#cccccc" stroke="none" d="M33.55 86.15 L33.35 86.3 Q32.9 86.85 33.7 87.1 L33.9 86.95 Q33.2 86.65 33.55 86.15"/><path fill="none" stroke="#000000" stroke-width="0.5" stroke-opacity="0.250980392157" d="M35.0 85.25 L35.4 85.0 Q36.1 85.0 35.65 85.7 L35.3 85.9 M35.0 85.25 L33.55 86.15 33.35 86.3 Q32.9 86.85 33.7 87.1 L33.9 86.95 35.3 85.9"/><path fill="#adadad" stroke="none" d="M16.3 71.45 L17.15 72.7 17.75 72.9 18.1 72.85 17.9 73.0 18.05 73.3 19.55 74.4 20.0 74.55 20.5 74.5 20.25 74.8 20.2 75.2 20.85 76.25 21.1 76.15 20.95 76.45 22.55 79.05 23.2 78.75 22.65 79.2 23.0 80.15 23.25 80.35 23.8 80.3 26.3 77.95 23.95 79.65 24.25 78.15 24.1 78.3 23.8 78.1 23.85 77.65 22.65 77.5 22.8 76.8 23.9 76.15 22.05 76.95 22.6 76.25 21.85 76.75 21.65 76.55 21.95 75.95 Q20.9 75.65 21.5 74.95 L21.15 75.0 21.35 74.8 Q19.8 74.1 19.2 73.55 L19.35 73.55 18.35 72.9 19.45 72.5 18.05 72.6 17.45 71.7 19.85 71.75 20.35 72.25 20.15 71.75 20.65 71.55 16.4 71.45 16.3 71.45"/><path fill="#ededed" stroke="none" d="M16.3 71.45 L15.75 71.5 16.85 72.95 17.75 72.9 17.15 72.7 16.3 71.45 M17.9 73.0 L17.5 73.3 19.2 74.6 20.0 74.55 19.55 74.4 18.05 73.3 17.9 73.0 M20.25 74.8 L19.8 75.4 20.4 76.55 21.0 77.05 20.75 77.3 21.8 78.9 22.05 78.85 22.0 79.25 23.05 81.0 23.8 80.3 23.25 80.35 23.0 80.15 22.65 79.2 23.2 78.75 22.55 79.05 20.95 76.45 21.1 76.15 20.85 76.25 20.2 75.2 20.25 74.8"/><path fill="#8a8a8a" stroke="none" d="M26.3 77.95 L27.75 76.9 24.05 71.3 20.65 71.55 20.15 71.75 20.35 72.25 19.85 71.75 17.45 71.7 18.05 72.6 19.45 72.5 18.35 72.9 19.35 73.55 19.2 73.55 Q19.8 74.1 21.35 74.8 L21.15 75.0 21.5 74.95 Q20.9 75.65 21.95 75.95 L21.65 76.55 21.85 76.75 22.6 76.25 22.05 76.95 23.9 76.15 22.8 76.8 22.65 77.5 23.85 77.65 23.8 78.1 24.1 78.3 24.25 78.15 23.95 79.65 26.3 77.95 M19.4 73.6 L19.4 73.55 19.4 73.6 M23.25 73.75 L23.2 73.5 23.25 73.75"/><path fill="#969696" stroke="none" d="M19.4 73.6 L19.4 73.55 19.4 73.6"/><path fill="#4d4d4d" stroke="none" d="M23.25 73.75 L23.2 73.5 23.25 73.75"/><path fill="none" stroke="#000000" stroke-width="0.5" stroke-opacity="0.301960784314" d="M17.75 72.9 L16.85 72.95 15.75 71.5 16.3 71.45 M17.75 72.9 L18.1 72.85 17.9 73.0 17.5 73.3 19.2 74.6 20.0 74.55 20.5 74.5 20.25 74.8 19.8 75.4 20.4 76.55 21.0 77.05 20.75 77.3 21.8 78.9 22.05 78.85 22.0 79.25 23.05 81.0 23.8 80.3 26.3 77.95 27.75 76.9 24.05 71.3 20.65 71.55 16.4 71.45 16.3 71.45"/><path stroke="none" fill="url(#gradient8)" d="M18.0 71.2 L17.5 71.4 19.25 73.05 19.35 73.05 19.5 73.1 20.85 73.25 20.95 73.95 22.75 76.1 24.15 76.05 23.55 76.9 24.45 78.25 24.85 78.7 25.05 78.45 25.4 78.1 25.4 78.05 Q25.4 77.65 25.8 77.7 25.85 77.3 26.15 77.3 L27.45 76.5 24.3 71.75 20.35 71.95 18.0 71.2"/><path fill="#cccccc" stroke="none" d="M24.1 70.65 L23.8 70.85 24.35 71.85 24.6 71.9 24.55 72.2 25.25 73.35 25.5 73.35 25.45 73.7 26.15 74.85 26.4 74.85 26.3 75.1 26.9 76.1 27.3 76.3 27.25 76.2 27.2 76.1 27.25 76.1 27.3 75.95 27.25 76.1 27.6 76.05 27.3 75.95 27.0 75.8 26.5 74.85 26.85 74.85 26.25 74.4 25.65 73.4 26.05 73.45 25.35 73.0 24.75 71.9 25.0 71.9 25.05 71.85 25.0 71.9 25.1 71.9 25.05 71.85 24.5 71.5 24.1 70.65 M24.6 71.9 L24.75 71.9 24.6 71.9 M25.5 73.35 L25.65 73.4 25.5 73.35 M26.4 74.85 L26.5 74.85 26.4 74.85 M26.95 74.85 L26.85 74.85 26.95 74.85 M26.9 76.1 L27.2 76.1 26.9 76.1"/><path fill="#636363" stroke="none" d="M27.7 76.05 L28.3 75.55 28.05 75.2 27.4 74.9 27.9 74.85 27.25 73.85 26.55 73.45 27.0 73.55 26.2 72.35 25.35 71.9 26.0 71.95 25.15 70.7 24.65 70.3 24.1 70.65 24.5 71.5 25.05 71.85 25.1 71.9 25.0 71.9 24.75 71.9 25.35 73.0 26.05 73.45 25.65 73.4 26.25 74.4 26.85 74.85 26.5 74.85 27.0 75.8 27.3 75.95 27.6 76.05 27.7 76.05 M25.1 71.9 L25.35 71.9 25.1 71.9 M26.05 73.45 L26.55 73.45 26.05 73.45 M26.95 74.85 L27.4 74.9 26.95 74.85 26.85 74.85 26.95 74.85"/><path fill="#999999" stroke="none" d="M28.3 75.55 L28.6 75.35 Q28.7 75.1 28.25 74.85 L28.05 74.9 28.05 74.6 27.4 73.6 27.4 73.55 27.15 73.55 27.25 73.35 26.65 72.4 26.35 71.95 26.1 71.95 26.15 71.75 25.5 70.45 25.1 69.95 24.65 70.3 25.15 70.7 26.0 71.95 25.35 71.9 26.2 72.35 27.0 73.55 26.55 73.45 27.25 73.85 27.9 74.85 28.05 74.9 27.9 74.85 27.4 74.9 28.05 75.2 28.3 75.55 M26.0 71.95 L26.1 71.95 26.0 71.95 M27.0 73.55 L27.15 73.55 27.0 73.55"/><path fill="#7d4f21" stroke="none" d="M27.65 76.1 L27.7 76.05 27.6 76.05 27.65 76.1"/><path fill="#333333" stroke="none" d="M27.3 76.3 L27.65 76.1 27.6 76.05 27.25 76.1 27.2 76.1 27.25 76.2 27.3 76.3 M27.25 76.2 L27.25 76.1 27.25 76.2"/><path fill="none" stroke="#000000" stroke-width="0.5" stroke-opacity="0.250980392157" d="M28.35 74.15 L29.75 73.5 31.3 73.6 M25.05 71.85 L25.0 71.9 M26.55 71.2 L27.65 70.35 27.95 68.95 M26.9 72.2 L28.3 71.3 29.5 69.8 M27.75 73.35 L29.05 72.4 31.05 72.1 M27.3 75.95 L27.25 76.1 27.25 76.2 M25.4 74.5 L23.95 75.2 22.7 76.8 M24.8 73.15 L23.35 74.0 21.55 74.3 M24.05 72.4 Q23.45 72.65 22.8 72.95 L21.45 72.5 M25.85 75.4 L24.55 76.3 23.85 77.65"/><path fill="none" stroke="#000000" stroke-width="0.5" stroke-opacity="0.2" d="M24.1 70.65 L23.8 70.85 24.35 71.85 M24.55 72.2 L25.25 73.35 M25.45 73.7 L26.15 74.85 M26.3 75.1 L26.9 76.1 27.3 76.3 27.65 76.1 27.7 76.05 28.3 75.55 28.6 75.35 Q28.7 75.1 28.25 74.85 M28.05 74.6 L27.4 73.6 M27.25 73.35 L26.65 72.4 26.35 71.95 M26.15 71.75 L25.5 70.45 25.1 69.95 24.65 70.3 24.1 70.65"/><path fill="none" stroke="#000000" stroke-width="0.5" stroke-opacity="0.301960784314" d="M24.35 71.85 L24.6 71.9 M25.25 73.35 L25.5 73.35 M26.15 74.85 L26.4 74.85 M28.25 74.85 L28.05 74.9 27.9 74.85 M27.4 73.6 L27.4 73.55 27.15 73.55 27.0 73.55 M26.35 71.95 L26.1 71.95 26.0 71.95 M24.75 71.9 L24.6 71.9 M25.65 73.4 L25.5 73.35 M26.5 74.85 L26.4 74.85 M27.7 76.05 L27.6 76.05 27.65 76.1 M27.2 76.1 L27.25 76.2 27.3 76.3"/><path fill="none" stroke="#000000" stroke-width="0.5" stroke-opacity="0.552941176471" d="M24.6 71.9 L24.55 72.2 M25.5 73.35 L25.45 73.7 M26.4 74.85 L26.3 75.1 M28.05 74.9 L28.05 74.6 M27.15 73.55 L27.25 73.35 M26.1 71.95 L26.15 71.75 M25.0 71.9 L24.75 71.9 M26.0 71.95 L25.35 71.9 25.1 71.9 25.0 71.9 M26.05 73.45 L25.65 73.4 M27.0 73.55 L26.55 73.45 26.05 73.45 M26.85 74.85 L26.5 74.85 M27.9 74.85 L27.4 74.9 26.95 74.85 26.85 74.85 M27.25 76.1 L27.2 76.1 26.9 76.1 M27.25 76.1 L27.6 76.05"/></g><g id="c11"><g><use transform="matrix(1.0,0.0,0.0,1.0,6.3,53.35)" xlink:href="#c9"/></g><g><use transform="matrix(1.0,0.0,0.0,1.0,0.0,0.0)" xlink:href="#c10"/></g><g><use transform="matrix(0.141098022461,-0.0378112792969,0.111373901367,0.225646972656,27.2,74.05)" filter="url(#filter11)" xlink:href="#c6"/></g></g><filter id="filter11"><feColorMatrix in="SourceGraphic" type="matrix" values="1.0 0.0 0.0 0.0 0.0 0.0 1.0 0.0 0.0 0.0 0.0 0.0 1.0 0.0 0.0 0.0 0.0 0.0 0.23046875 0.0" result="cxform"/><feComposite operator="in" in2="SourceGraphic" result="color-xform"/></filter></defs><g><g><use transform="matrix(1.0,0.0,0.0,1.0,0.0,0.0)" xlink:href="#c1"/></g><g><use transform="matrix(1.15496826172,0.0,0.0,1.15496826172,-1.55,-56.9)" xlink:href="#c11"/></g></g></svg>