<?xml version='1.0' encoding='UTF-8'?>
<svg xmlns:xlink="http://www.w3.org/1999/xlink" xmlns="http://www.w3.org/2000/svg" version="1.1" width="60px" height="60px" viewBox="0.0 0.0 60.0 60.0"><defs><g id="c1"><path fill="#000000" fill-opacity="0.00392156862745" d="M0.0 0.0 L60.0 0.0 60.0 60.0 0.0 60.0 0.0 0.0"/></g><g id="c2"><path fill="none" stroke="#000000" stroke-width="1.0" stroke-opacity="0.301960784314" d="M0.7 12.25 Q-0.45 9.75 0.75 8.25 1.2 7.6 2.15 7.15 2.8 6.7 3.8 6.35 L17.5 1.95 30.2 7.0 41.35 31.7 Q42.95 35.15 40.2 36.7 39.5 37.3 38.3 37.65 L19.8 43.65 Q17.15 44.45 15.5 43.3 14.35 42.55 13.65 40.9 L0.7 12.25"/><path fill="#9d147b" stroke="none" d="M35.55 22.3 L31.5 13.2 29.75 9.2 16.95 4.25 5.5 7.85 Q1.65 9.1 3.35 12.8 L8.25 23.65 15.0 38.6 15.2 39.0 Q16.8 42.25 20.45 41.1 L37.2 35.7 Q41.1 34.5 39.35 30.75 L35.55 22.3 M2.15 7.15 Q2.8 6.7 3.8 6.35 L17.5 1.95 30.2 7.0 41.35 31.7 Q42.95 35.15 40.2 36.7 L38.9 37.25 23.2 42.3 20.4 43.2 19.1 43.5 17.3 43.4 Q15.3 42.9 14.2 40.5 L5.45 20.95 1.35 11.8 Q0.4 9.65 1.1 8.3 1.45 7.65 2.15 7.15"/><path fill="#c47fad" stroke="none" d="M31.5 13.2 L35.55 22.3 39.35 30.75 Q41.1 34.5 37.2 35.7 L20.45 41.1 Q16.8 42.25 15.2 39.0 L15.0 38.6 8.25 23.65 3.35 12.8 Q1.65 9.1 5.5 7.85 L16.95 4.25 29.75 9.2 31.5 13.2 M18.5 7.45 L9.1 10.55 9.55 11.6 Q9.8 12.8 9.15 13.6 8.4 14.45 7.1 14.4 L6.8 14.4 6.95 14.6 16.3 35.2 Q16.8 36.4 17.65 37.0 18.8 37.8 20.65 37.2 L34.0 32.9 33.7 32.1 Q33.45 30.9 34.1 30.1 34.75 29.3 35.95 29.35 L35.8 29.0 27.75 10.95 18.5 7.45"/><path fill="#630a4c" stroke="none" d="M0.75 8.25 Q1.2 7.6 2.15 7.15 1.45 7.65 1.1 8.3 L0.75 8.25 M23.3 42.5 L20.1 43.55 19.1 43.5 20.4 43.2 23.2 42.3 23.3 42.5 M15.5 43.3 Q14.35 42.55 13.65 40.9 L4.6 20.9 5.45 20.95 14.2 40.5 Q15.3 42.9 17.3 43.4 L15.5 43.3"/><path fill="#300525" stroke="none" d="M4.6 20.9 L0.7 12.25 Q-0.45 9.75 0.75 8.25 L1.1 8.3 Q0.4 9.65 1.35 11.8 L5.45 20.95 4.6 20.9 M40.2 36.7 Q39.5 37.3 38.3 37.65 L23.3 42.5 23.2 42.3 38.9 37.25 40.2 36.7 M20.1 43.55 L19.8 43.65 Q17.15 44.45 15.5 43.3 L17.3 43.4 19.1 43.5 20.1 43.55"/><path fill="#fcf2cf" stroke="none" d="M27.75 10.95 L35.8 29.0 35.95 29.35 Q34.75 29.3 34.1 30.1 33.45 30.9 33.7 32.1 L34.0 32.9 20.65 37.2 Q18.8 37.8 17.65 37.0 16.8 36.4 16.3 35.2 L6.95 14.6 6.8 14.4 7.1 14.4 Q8.4 14.45 9.15 13.6 9.8 12.8 9.55 11.6 L9.1 10.55 18.5 7.45 27.75 10.95"/><path fill="none" stroke="#bf9900" stroke-width="1.0" stroke-opacity="0.749019607843" d="M31.5 13.2 L35.55 22.3 M15.0 38.6 L8.25 23.65"/><path fill="none" stroke="#ffcc00" stroke-width="1.0" stroke-opacity="0.749019607843" d="M35.55 22.3 L39.35 30.75 Q41.1 34.5 37.2 35.7 L20.45 41.1 Q16.8 42.25 15.2 39.0 L15.0 38.6 M8.25 23.65 L3.35 12.8 Q1.65 9.1 5.5 7.85 L16.95 4.25 29.75 9.2 31.5 13.2"/><path fill="none" stroke="#000000" stroke-width="0.5" stroke-opacity="0.301960784314" d="M4.6 20.9 L0.7 12.25 Q-0.45 9.75 0.75 8.25 1.2 7.6 2.15 7.15 2.8 6.7 3.8 6.35 L17.5 1.95 M30.2 7.0 L41.35 31.7 Q42.95 35.15 40.2 36.7 39.5 37.3 38.3 37.65 L23.3 42.5 20.1 43.55 19.8 43.65 Q17.15 44.45 15.5 43.3 14.35 42.55 13.65 40.9 L4.6 20.9 M5.45 20.95 L1.35 11.8 Q0.4 9.65 1.1 8.3 1.45 7.65 2.15 7.15 M19.1 43.5 L17.3 43.4 Q15.3 42.9 14.2 40.5 L5.45 20.95 M23.2 42.3 L20.4 43.2 19.1 43.5 M40.2 36.7 L38.9 37.25 23.2 42.3"/><path fill="none" stroke="#f0b92b" stroke-width="0.5" d="M27.75 10.95 L35.8 29.0 35.95 29.35 Q34.75 29.3 34.1 30.1 33.45 30.9 33.7 32.1 L34.0 32.9 20.65 37.2 Q18.8 37.8 17.65 37.0 16.8 36.4 16.3 35.2 L6.95 14.6 6.8 14.4 7.1 14.4 Q8.4 14.45 9.15 13.6 9.8 12.8 9.55 11.6 L9.1 10.55 18.5 7.45"/><path fill="none" stroke="#ffcc00" stroke-width="0.5" stroke-opacity="0.749019607843" d="M18.5 7.45 L27.75 10.95"/></g><g id="c3"><path fill="#7fdbfe" stroke="none" d="M10.75 4.9 Q10.75 4.6 10.9 4.35 11.25 3.45 11.95 2.75 13.3 1.5 14.35 2.1 15.4 2.7 14.95 4.45 14.7 5.4 14.1 6.15 L13.75 6.5 Q13.1 7.15 12.35 7.35 L11.4 7.2 Q10.95 6.9 10.75 6.4 10.5 5.75 10.75 4.9 M7.5 5.9 Q7.0 5.85 6.6 5.5 6.05 5.0 5.8 4.15 L5.7 3.6 Q5.55 2.65 5.8 1.7 6.25 0.0 7.5 0.0 L7.6 0.0 Q8.85 0.0 9.3 1.7 9.55 2.65 9.4 3.6 L9.3 4.15 8.5 5.5 7.6 5.9 7.5 5.9 M4.35 4.9 Q4.6 5.75 4.35 6.4 L3.7 7.2 2.75 7.35 Q2.0 7.15 1.35 6.5 L1.0 6.15 Q0.4 5.4 0.15 4.45 -0.3 2.7 0.75 2.1 1.8 1.5 3.15 2.75 3.85 3.45 4.2 4.35 L4.35 4.9 M5.5 13.7 Q4.45 13.9 3.65 12.95 2.75 12.0 3.2 10.25 3.7 8.5 5.25 7.6 6.4 6.9 7.55 7.0 8.75 6.9 9.9 7.6 11.45 8.5 11.95 10.25 12.35 12.0 11.5 12.95 10.7 13.9 9.65 13.7 8.55 13.5 7.55 12.6 6.55 13.5 5.5 13.7"/></g><g id="c4"><g><use transform="matrix(1.0,0.0,0.0,1.0,0.0,0.0)" xlink:href="#c3"/></g></g><radialGradient gradientUnits="userSpaceOnUse" r="819.2" cx="0" cy="0" spreadMethod="pad" gradientTransform="matrix(0.0914459228516,0.0,0.0,0.0914459228516,0.6,3.4)" id="gradient1"><stop offset="0.0" stop-color="#ffffff"/><stop offset="1.0" stop-color="#ffffff" stop-opacity="0.0"/></radialGradient><g id="c5"><path stroke="none" fill="url(#gradient1)" d="M36.65 -54.65 Q60.05 -42.0 69.75 -17.95 80.55 8.9 68.0 34.1 55.45 59.35 26.8 68.2 -1.8 77.05 -29.7 64.3 -57.6 51.6 -68.45 24.75 -79.3 -2.05 -66.75 -27.25 L-66.7 -27.3 Q-54.1 -52.5 -25.5 -61.4 3.1 -70.2 31.0 -57.5 L36.65 -54.65"/></g><g id="c6"><g><use transform="matrix(1.0,0.0,0.0,1.0,0.0,0.0)" xlink:href="#c5"/></g></g><radialGradient gradientUnits="userSpaceOnUse" r="819.2" cx="0" cy="0" spreadMethod="pad" gradientTransform="matrix(0.209197998047,0.0,0.0,0.177108764648,67.15,107.2)" id="gradient2"><stop offset="0.356862745098" stop-color="#ffffff"/><stop offset="0.670588235294" stop-opacity="0.0"/></radialGradient><g id="c7"><path fill="none" stroke-linejoin="round" stroke-linecap="round" stroke="url(#gradient2)" stroke-width="0.5" d="M136.55 165.8 L68.6 106.0 68.4 106.0 118.25 201.5 M68.3 105.8 L68.35 105.8 68.3 105.8 68.3 105.85 68.4 106.0 68.3 106.0 86.55 211.5 M68.3 105.8 L68.3 105.85 68.3 106.0 68.15 105.95 18.25 151.55 M68.3 105.85 L68.25 105.85 68.3 106.0 50.0 193.2 M68.25 105.85 L68.15 105.95 0.05 97.7 M68.3 105.85 L68.25 105.8 68.25 105.85 M68.25 105.8 L68.2 105.7 0.0 45.7 M68.3 105.8 L68.25 105.75 68.25 105.8 M68.25 105.75 L68.2 105.7 18.25 10.05 M68.6 106.0 L68.35 105.8 118.25 60.15 M86.6 18.35 L68.3 105.8 M136.6 114.25 L68.6 106.0 M68.25 105.75 L49.95 0.05"/></g><g id="c8"><g><use transform="matrix(1.0,0.0,0.0,1.0,0.0,0.0)" xlink:href="#c7"/></g></g><g id="c9"><g><use transform="matrix(1.0,0.0,0.0,1.0,0.0,0.0)" xlink:href="#c2"/></g><g><use transform="matrix(0.238861083984,-0.0867004394531,0.10026550293,0.233917236328,34.25,31.15)" xlink:href="#c4"/></g><g><use transform="matrix(0.238861083984,-0.0867004394531,0.10026550293,0.233917236328,4.25,10.3)" xlink:href="#c4"/></g><g><use transform="matrix(0.141098022461,-0.0378112792969,0.111373901367,0.225646972656,20.25,20.65)" filter="url(#filter7)" xlink:href="#c6"/></g><g><use transform="matrix(-0.155029296875,0.0513153076172,0.0841827392578,0.147033691406,22.6,3.15)" filter="url(#filter8)" xlink:href="#c8"/></g></g><filter id="filter7"><feColorMatrix in="SourceGraphic" type="matrix" values="0.0 0.0 0.0 0.0 0.796875 0.0 0.0 0.0 0.0 0.59765625 0.0 0.0 0.0 0.0 0.19921875 0.0 0.0 0.0 1.0 0.0" result="cxform"/><feComposite operator="in" in2="SourceGraphic" result="color-xform"/></filter><filter id="filter8"><feColorMatrix in="SourceGraphic" type="matrix" values="0.0 0.0 0.0 0.0 0.99609375 0.0 0.0 0.0 0.0 0.99609375 0.0 0.0 0.0 0.0 0.99609375 0.0 0.0 0.0 1.0 0.0" result="cxform"/><feComposite operator="in" in2="SourceGraphic" result="color-xform"/></filter><g id="c10"><path fill="#8a8a57" stroke="none" d="M34.75 72.75 L35.85 72.25 36.35 72.45 36.35 72.5 35.35 76.7 35.05 76.9 35.3 77.25 34.5 80.45 34.1 80.75 34.4 81.05 33.75 83.8 33.0 87.25 32.95 87.3 32.3 87.15 32.3 87.1 32.25 87.1 32.05 87.05 31.95 86.95 31.9 86.8 32.0 86.55 Q31.8 86.55 31.75 86.4 L31.7 86.3 Q31.7 86.0 32.0 86.0 L32.25 86.1 32.4 85.95 32.4 85.75 32.4 85.6 32.45 85.4 32.4 85.25 32.45 85.15 32.4 85.1 32.4 84.9 Q32.4 84.6 32.6 84.6 32.6 84.3 33.0 84.3 L32.85 84.15 32.8 84.0 Q32.8 83.65 33.1 83.65 L33.2 83.65 33.2 83.15 33.75 83.8 33.2 83.15 33.45 83.3 33.5 82.85 33.35 82.7 33.3 82.55 33.3 82.4 33.3 82.35 Q33.3 82.1 33.6 82.1 L33.6 81.7 33.45 81.55 33.4 81.4 33.6 81.15 33.55 81.05 33.5 80.9 33.65 80.65 33.55 80.35 33.8 80.55 34.0 79.75 33.95 79.7 33.9 79.55 34.1 79.3 34.1 79.15 33.95 79.05 33.9 78.9 Q33.9 78.6 34.25 78.6 L34.5 77.15 34.25 76.7 34.55 76.75 34.65 76.5 34.5 76.35 34.45 76.2 Q34.45 76.0 34.7 75.95 L34.65 75.8 Q34.65 75.65 34.8 75.6 L34.85 75.25 34.7 75.1 34.65 74.95 34.95 74.7 35.0 74.7 35.05 74.5 34.9 74.4 34.8 74.3 34.75 74.15 34.8 74.0 34.7 73.95 34.6 73.95 34.4 74.05 34.1 73.9 34.05 73.75 Q34.05 73.5 34.4 73.45 L34.6 73.4 34.7 73.4 34.65 73.4 34.6 73.25 Q34.6 72.95 34.9 72.95 L34.95 72.95 34.75 72.75 M17.25 66.05 L16.9 65.3 17.85 65.4 17.85 65.45 17.9 65.6 Q17.95 65.75 18.15 65.75 L18.4 65.6 18.5 65.5 18.55 65.5 22.4 66.05 22.5 66.4 22.95 66.15 26.7 66.75 27.1 67.1 27.85 67.0 32.8 67.95 32.85 68.4 31.55 69.15 30.95 69.5 30.55 69.7 30.95 69.5 31.65 70.7 Q31.25 70.75 31.4 71.05 32.45 71.55 32.65 72.55 32.8 72.7 33.05 72.35 L33.8 73.2 33.4 73.4 32.15 72.6 30.75 70.85 30.55 69.7 30.3 69.8 30.45 69.7 31.2 68.9 31.15 68.85 31.0 68.9 30.75 68.75 30.7 68.6 30.7 68.55 30.55 68.55 30.3 68.45 30.2 68.5 29.9 68.35 29.9 68.3 29.75 68.35 Q29.55 68.35 29.5 68.2 L29.5 68.15 28.85 68.05 28.5 68.2 28.25 68.05 28.2 67.9 27.75 67.8 Q27.7 68.05 27.4 68.05 L27.05 67.8 27.1 67.7 26.95 67.65 27.1 67.1 26.95 67.65 26.8 68.45 26.45 67.7 26.4 67.7 26.1 67.55 26.05 67.4 25.95 67.4 25.6 67.5 25.35 67.3 22.6 66.9 22.5 66.55 22.5 66.4 22.5 66.55 22.85 68.05 22.4 67.5 22.3 67.6 22.1 67.7 Q21.75 67.7 21.5 67.4 L21.25 67.0 21.25 66.95 20.9 66.8 20.85 66.6 20.85 66.55 20.8 66.55 20.85 66.7 Q20.85 67.0 20.3 67.0 L19.85 66.85 19.8 66.65 19.65 66.65 19.55 66.75 18.9 66.8 18.25 66.7 18.2 66.6 18.15 66.55 17.9 66.65 17.6 66.55 17.55 66.35 17.75 66.15 17.25 66.05 M35.05 76.9 L34.25 76.7 35.05 76.9 M34.1 80.75 L33.8 80.55 34.1 80.75 M32.25 86.5 L32.45 86.55 32.25 86.45 32.2 86.5 32.25 86.5"/><path fill="#63633e" stroke="none" d="M32.3 87.15 L32.25 87.1 32.3 87.1 32.3 87.15 M32.05 87.05 L31.35 86.85 31.3 86.8 31.1 84.6 32.85 82.7 33.2 80.15 33.5 79.95 33.6 79.95 34.05 77.1 33.05 76.35 33.65 76.5 33.45 74.35 32.9 73.6 33.4 73.4 33.8 73.2 34.4 72.95 34.75 72.75 34.95 72.95 34.9 72.95 Q34.6 72.95 34.6 73.25 L34.65 73.4 34.7 73.4 34.6 73.4 34.4 73.45 Q34.05 73.5 34.05 73.75 L34.1 73.9 34.4 74.05 34.6 73.95 34.7 73.95 34.8 74.0 34.75 74.15 34.8 74.3 34.9 74.4 35.05 74.5 35.0 74.7 34.95 74.7 34.65 74.95 34.7 75.1 34.85 75.25 34.8 75.6 Q34.65 75.65 34.65 75.8 L34.7 75.95 Q34.45 76.0 34.45 76.2 L34.5 76.35 34.65 76.5 34.55 76.75 34.25 76.7 34.5 77.15 34.25 78.6 Q33.9 78.6 33.9 78.9 L33.95 79.05 34.1 79.15 34.1 79.3 33.9 79.55 33.95 79.7 34.0 79.75 33.8 80.55 33.55 80.35 33.2 80.15 33.55 80.35 33.65 80.65 33.5 80.9 33.55 81.05 33.6 81.15 33.4 81.4 33.45 81.55 33.6 81.7 33.6 82.1 Q33.3 82.1 33.3 82.35 L33.3 82.4 33.3 82.55 33.35 82.7 33.5 82.85 33.45 83.3 33.2 83.15 33.2 83.65 33.1 83.65 Q32.8 83.65 32.8 84.0 L32.85 84.15 33.0 84.3 Q32.6 84.3 32.6 84.6 32.4 84.6 32.4 84.9 L32.4 85.1 32.45 85.15 32.4 85.25 32.45 85.4 32.4 85.6 32.4 85.75 32.4 85.95 32.25 86.1 32.0 86.0 Q31.7 86.0 31.7 86.3 L31.75 86.4 Q31.8 86.55 32.0 86.55 L31.9 86.8 31.95 86.95 32.05 87.05 M18.25 67.6 L17.8 67.2 17.25 66.05 17.75 66.15 17.55 66.35 17.6 66.55 17.9 66.65 18.15 66.55 18.2 66.6 18.25 66.7 18.9 66.8 19.55 66.75 19.65 66.65 19.8 66.65 19.85 66.85 20.3 67.0 Q20.85 67.0 20.85 66.7 L20.8 66.55 20.85 66.55 20.85 66.6 20.9 66.8 21.25 66.95 21.25 67.0 21.5 67.4 Q21.75 67.7 22.1 67.7 L22.3 67.6 22.4 67.5 22.85 68.05 22.9 68.2 22.85 68.05 22.5 66.55 22.6 66.9 25.35 67.3 25.6 67.5 25.95 67.4 26.05 67.4 26.1 67.55 26.4 67.7 26.45 67.7 26.8 68.45 26.95 67.65 27.1 67.7 27.05 67.8 27.4 68.05 Q27.7 68.05 27.75 67.8 L28.2 67.9 28.25 68.05 28.5 68.2 28.85 68.05 29.5 68.15 29.5 68.2 Q29.55 68.35 29.75 68.35 L29.9 68.3 29.9 68.35 30.2 68.5 30.3 68.45 30.55 68.55 30.7 68.55 30.7 68.6 30.75 68.75 31.0 68.9 31.15 68.85 31.2 68.9 30.45 69.7 26.7 68.8 26.6 69.05 26.05 67.9 23.1 67.3 22.9 68.2 22.9 68.25 20.15 68.6 18.25 67.6 M33.65 76.5 L34.25 76.7 33.65 76.5 M32.85 82.7 L33.2 83.15 32.85 82.7 M26.7 68.8 L26.8 68.45 26.7 68.8 M32.25 86.5 L32.2 86.5 32.25 86.45 32.45 86.55 32.25 86.5"/><path fill="#dede51" stroke="none" d="M31.3 86.8 L30.6 84.25 30.85 84.05 31.0 83.9 31.9 82.95 32.05 82.75 32.55 82.3 32.7 81.95 32.8 80.1 32.85 79.95 33.2 80.15 32.85 79.95 33.5 79.95 33.2 80.15 32.85 82.7 31.1 84.6 31.3 86.8 M20.4 69.15 L20.15 69.2 18.25 67.6 20.15 68.6 22.9 68.25 22.95 68.5 22.3 68.65 21.9 68.75 20.65 69.1 20.6 69.1 20.4 69.15 M30.45 69.7 L30.3 69.8 30.55 69.7 30.75 70.85 30.05 69.95 29.7 70.2 29.45 69.9 28.25 69.7 28.3 69.65 28.4 69.5 Q28.4 69.2 28.05 69.2 27.75 69.2 27.75 69.5 L27.8 69.6 27.6 69.6 27.35 69.35 Q27.1 69.35 27.0 69.5 L26.8 69.45 26.6 69.05 26.7 68.8 30.45 69.7 M30.3 69.8 Q30.2 69.9 30.05 69.95 30.2 69.9 30.3 69.8 M33.05 76.35 L32.95 75.85 33.0 74.5 32.5 73.8 32.9 73.6 33.45 74.35 33.65 76.5 33.05 76.35 M32.9 73.6 L32.15 72.6 33.4 73.4 32.9 73.6 M32.85 82.7 L32.55 82.3 32.85 82.7"/><path fill="#666666" stroke="none" d="M30.85 84.05 L30.6 83.85 30.4 83.4 30.35 83.3 30.35 83.25 30.45 82.9 30.6 82.65 30.75 82.55 31.15 82.45 31.15 82.65 30.95 82.75 30.75 82.55 30.95 82.75 30.8 82.85 30.75 82.95 30.65 83.2 30.6 83.3 30.8 83.75 31.0 83.9 30.85 84.05 M21.1 70.0 L20.65 69.75 Q20.35 69.5 20.4 69.15 L20.6 69.1 20.65 69.3 20.85 69.6 Q21.05 69.8 21.35 69.8 L21.55 69.8 21.75 69.7 21.85 69.6 22.05 69.8 21.9 69.85 21.9 69.9 21.65 70.0 21.35 70.05 21.1 70.0 M31.55 69.15 L32.05 70.8 31.4 71.05 Q31.25 70.75 31.65 70.7 L30.95 69.5 31.55 69.15 M33.05 72.1 L34.4 72.95 33.8 73.2 33.05 72.35 Q32.8 72.7 32.65 72.55 L33.05 72.1 M30.75 82.95 L30.45 82.9 30.75 82.95 M21.55 69.8 L21.65 70.0 21.55 69.8"/><path fill="#9c9c9c" stroke="none" d="M32.05 70.8 L33.05 72.1 32.65 72.55 Q32.45 71.55 31.4 71.05 L32.05 70.8"/><path fill="#61cfcf" stroke="none" d="M30.35 83.3 Q29.15 82.1 29.75 80.65 L29.8 80.65 Q29.6 81.75 30.75 82.55 L30.6 82.65 30.45 82.9 30.35 83.25 30.35 83.3 M23.35 71.3 Q21.3 71.3 21.1 70.0 L21.35 70.05 21.65 70.0 21.9 69.9 Q22.0 70.95 23.35 71.3"/><path fill="#c2c2c2" stroke="none" d="M31.15 82.65 L31.15 82.45 31.3 82.4 31.95 82.65 32.05 82.75 31.9 82.95 31.8 82.85 31.35 82.65 31.15 82.65 M21.9 68.75 L22.3 68.65 22.35 69.05 22.35 69.15 22.05 69.75 22.05 69.8 21.85 69.6 22.05 69.25 22.05 69.15 22.0 68.85 21.9 68.75"/><path fill="none" stroke="#000000" stroke-width="0.5" stroke-opacity="0.313725490196" d="M34.75 72.75 L35.85 72.25 36.35 72.45 36.35 72.5 35.35 76.7 35.05 76.9 35.3 77.25 34.5 80.45 34.1 80.75 34.4 81.05 33.75 83.8 33.0 87.25 32.95 87.3 32.3 87.15 32.25 87.1 32.05 87.05 31.35 86.85 31.3 86.8 30.6 84.25 30.85 84.05 30.6 83.85 30.4 83.4 30.35 83.3 Q29.15 82.1 29.75 80.65 L23.45 71.35 23.4 71.3 23.35 71.3 Q21.3 71.3 21.1 70.0 L20.65 69.75 Q20.35 69.5 20.4 69.15 L20.15 69.2 18.25 67.6 17.8 67.2 17.25 66.05 16.9 65.3 17.85 65.4 17.85 65.45 17.9 65.6 Q17.95 65.75 18.15 65.75 L18.4 65.6 18.5 65.5 18.55 65.5 22.4 66.05 22.5 66.4 22.95 66.15 26.7 66.75 27.1 67.1 27.85 67.0 32.8 67.95 32.85 68.4 31.55 69.15 32.05 70.8 33.05 72.1 34.4 72.95 34.75 72.75 M34.25 76.7 L35.05 76.9 M27.1 67.1 L26.95 67.65 M30.3 69.8 L30.55 69.7 30.95 69.5 31.55 69.15 M26.6 69.05 L26.8 69.45 27.0 69.5 Q27.1 69.35 27.35 69.35 L27.6 69.6 27.8 69.6 27.75 69.5 Q27.75 69.2 28.05 69.2 28.4 69.2 28.4 69.5 L28.3 69.65 28.25 69.7 29.45 69.9 29.7 70.2 30.05 69.95 Q30.2 69.9 30.3 69.8 M33.05 72.1 L32.65 72.55 M33.8 73.2 L34.4 72.95 M32.9 73.6 L32.5 73.8 33.0 74.5 32.95 75.85 33.05 76.35 33.65 76.5 33.45 74.35 32.9 73.6 32.15 72.6 30.75 70.85 30.05 69.95 M32.9 73.6 L33.4 73.4 32.15 72.6 M33.4 73.4 L33.8 73.2 M32.05 70.8 L31.4 71.05 M30.55 69.7 L30.75 70.85 M34.25 76.7 L33.65 76.5 M33.05 76.35 L34.05 77.1 33.6 79.95 33.5 79.95 33.2 80.15 33.55 80.35 33.8 80.55 34.1 80.75 M32.85 79.95 L32.8 80.1 32.7 81.95 32.55 82.3 32.85 82.7 33.2 80.15 32.85 79.95 33.5 79.95 M30.75 82.55 Q29.6 81.75 29.8 80.65 L29.75 80.65 M31.15 82.45 L30.75 82.55 30.95 82.75 31.15 82.65 31.15 82.45 31.3 82.4 31.95 82.65 32.05 82.75 32.55 82.3 M31.15 82.65 L31.35 82.65 31.8 82.85 31.9 82.95 32.05 82.75 M30.75 82.55 L30.6 82.65 30.45 82.9 30.75 82.95 30.8 82.85 30.95 82.75 M30.35 83.3 L30.35 83.25 30.45 82.9 M30.75 82.95 L30.65 83.2 30.6 83.3 30.8 83.75 31.0 83.9 31.9 82.95 M31.0 83.9 L30.85 84.05 M33.2 83.15 L32.85 82.7 31.1 84.6 31.3 86.8 M33.75 83.8 L33.2 83.15 M26.8 68.45 L26.95 67.65 M22.5 66.55 L22.5 66.4 M22.3 68.65 L22.95 68.5 22.9 68.25 22.9 68.2 22.85 68.05 22.4 67.5 M20.85 66.55 L20.8 66.55 M17.75 66.15 L17.25 66.05 M26.7 68.8 L26.6 69.05 26.05 67.9 23.1 67.3 22.9 68.2 M26.8 68.45 L26.7 68.8 M22.85 68.05 L22.5 66.55 M21.9 68.75 L22.3 68.65 22.35 69.05 22.35 69.15 22.05 69.75 22.05 69.8 21.9 69.85 21.9 69.9 Q22.0 70.95 23.35 71.3 M21.85 69.6 L22.05 69.25 22.05 69.15 22.0 68.85 21.9 68.75 20.65 69.1 20.6 69.1 20.65 69.3 20.85 69.6 Q21.05 69.8 21.35 69.8 L21.55 69.8 21.75 69.7 21.85 69.6 22.05 69.8 M20.6 69.1 L20.4 69.15 M21.65 70.0 L21.55 69.8 M21.1 70.0 L21.35 70.05 21.65 70.0 21.9 69.9"/></g><g id="c11"><g><use transform="matrix(1.0,0.0,0.0,1.0,6.3,53.35)" xlink:href="#c9"/></g><g><use transform="matrix(1.0,0.0,0.0,1.0,0.0,0.0)" xlink:href="#c10"/></g><g><use transform="matrix(0.141098022461,-0.0378112792969,0.111373901367,0.225646972656,27.2,74.05)" filter="url(#filter11)" xlink:href="#c6"/></g></g><filter id="filter11"><feColorMatrix in="SourceGraphic" type="matrix" values="1.0 0.0 0.0 0.0 0.0 0.0 1.0 0.0 0.0 0.0 0.0 0.0 1.0 0.0 0.0 0.0 0.0 0.0 0.23046875 0.0" result="cxform"/><feComposite operator="in" in2="SourceGraphic" result="color-xform"/></filter></defs><g><g><use transform="matrix(1.0,0.0,0.0,1.0,0.0,0.0)" xlink:href="#c1"/></g><g><use transform="matrix(1.15496826172,0.0,0.0,1.15496826172,-1.55,-56.9)" xlink:href="#c11"/></g></g></svg>