<?xml version='1.0' encoding='UTF-8'?>
<svg xmlns:xlink="http://www.w3.org/1999/xlink" xmlns="http://www.w3.org/2000/svg" version="1.1" width="60px" height="60px" viewBox="0.0 0.0 60.0 60.0"><defs><g id="c1"><path fill="#000000" fill-opacity="0.00392156862745" d="M0.0 0.0 L60.0 0.0 60.0 60.0 0.0 60.0 0.0 0.0"/></g><g id="c2"><path fill="none" stroke="#000000" stroke-width="1.0" stroke-opacity="0.301960784314" d="M0.7 12.25 Q-0.45 9.75 0.75 8.25 1.2 7.6 2.15 7.15 2.8 6.7 3.8 6.35 L17.5 1.95 30.2 7.0 41.35 31.7 Q42.95 35.15 40.2 36.7 39.5 37.3 38.3 37.65 L25.5 41.8 25.45 41.75 24.55 42.0 11.85 37.0 0.7 12.25"/><path fill="#9d147b" stroke="none" d="M35.55 22.3 L31.5 13.2 29.75 9.2 16.95 4.25 5.5 7.85 Q1.65 9.1 3.35 12.8 L8.25 23.65 13.1 34.35 25.8 39.4 37.2 35.7 Q41.1 34.5 39.35 30.75 L35.55 22.3 M5.45 20.95 L1.35 11.8 Q0.4 9.65 1.1 8.3 1.45 7.65 2.15 7.15 2.8 6.7 3.8 6.35 L17.5 1.95 30.2 7.0 41.35 31.7 Q42.95 35.15 40.2 36.7 L38.9 37.25 25.2 41.65 12.5 36.65 5.45 20.95"/><path fill="#c47fad" stroke="none" d="M31.5 13.2 L35.55 22.3 39.35 30.75 Q41.1 34.5 37.2 35.7 L25.8 39.4 13.1 34.35 8.25 23.65 3.35 12.8 Q1.65 9.1 5.5 7.85 L16.95 4.25 29.75 9.2 31.5 13.2 M18.5 7.45 L9.1 10.55 9.55 11.6 Q9.8 12.8 9.15 13.6 8.4 14.45 7.1 14.4 L6.8 14.4 6.95 14.6 15.2 32.75 23.85 36.2 34.0 32.9 33.7 32.1 Q33.45 30.9 34.1 30.1 34.75 29.3 35.95 29.35 L35.8 29.0 27.75 10.95 18.5 7.45"/><path fill="#fcf2cf" stroke="none" d="M27.75 10.95 L35.8 29.0 35.95 29.35 Q34.75 29.3 34.1 30.1 33.45 30.9 33.7 32.1 L34.0 32.9 23.85 36.2 15.2 32.75 6.95 14.6 6.8 14.4 7.1 14.4 Q8.4 14.45 9.15 13.6 9.8 12.8 9.55 11.6 L9.1 10.55 18.5 7.45 27.75 10.95"/><path fill="#630a4c" stroke="none" d="M1.1 8.3 L0.75 8.25 Q1.2 7.6 2.15 7.15 1.45 7.65 1.1 8.3 M4.6 20.9 L5.45 20.95 12.5 36.65 11.55 36.25 11.25 35.55 4.6 20.9"/><path fill="#300525" stroke="none" d="M1.1 8.3 Q0.4 9.65 1.35 11.8 L5.45 20.95 4.6 20.9 0.7 12.25 Q-0.45 9.75 0.75 8.25 L1.1 8.3 M12.5 36.65 L25.2 41.65 38.9 37.25 40.2 36.7 Q39.5 37.3 38.3 37.65 L25.5 41.8 25.45 41.75 24.55 42.0 11.85 37.0 11.55 36.25 12.5 36.65"/><path fill="none" stroke="#bf9900" stroke-width="1.0" stroke-opacity="0.749019607843" d="M31.5 13.2 L35.55 22.3 M13.1 34.35 L8.25 23.65"/><path fill="none" stroke="#ffcc00" stroke-width="1.0" stroke-opacity="0.749019607843" d="M35.55 22.3 L39.35 30.75 Q41.1 34.5 37.2 35.7 L25.8 39.4 M8.25 23.65 L3.35 12.8 Q1.65 9.1 5.5 7.85 L16.95 4.25 29.75 9.2 31.5 13.2"/><path fill="none" stroke="#f0b92b" stroke-width="0.5" d="M27.75 10.95 L35.8 29.0 35.95 29.35 Q34.75 29.3 34.1 30.1 33.45 30.9 33.7 32.1 L34.0 32.9 23.85 36.2 15.2 32.75 6.95 14.6 6.8 14.4 7.1 14.4 Q8.4 14.45 9.15 13.6 9.8 12.8 9.55 11.6 L9.1 10.55 18.5 7.45"/><path fill="none" stroke="#000000" stroke-width="0.5" stroke-opacity="0.301960784314" d="M5.45 20.95 L1.35 11.8 Q0.4 9.65 1.1 8.3 M0.75 8.25 Q-0.45 9.75 0.7 12.25 L4.6 20.9 M5.45 20.95 L12.5 36.65 M25.2 41.65 L38.9 37.25 40.2 36.7 Q42.95 35.15 41.35 31.7 L30.2 7.0 M17.5 1.95 L3.8 6.35 Q2.8 6.7 2.15 7.15 1.45 7.65 1.1 8.3 M0.75 8.25 Q1.2 7.6 2.15 7.15 M11.25 35.55 L4.6 20.9 M25.5 41.8 L38.3 37.65 Q39.5 37.3 40.2 36.7"/><path fill="none" stroke="#ffcc00" stroke-width="0.5" stroke-opacity="0.749019607843" d="M18.5 7.45 L27.75 10.95"/><path fill="none" stroke="#f0b92b" stroke-width="1.0" stroke-opacity="0.749019607843" d="M25.8 39.4 L13.1 34.35"/><path fill="none" stroke="#432f2f" stroke-width="0.5" d="M12.5 36.65 L25.2 41.65"/></g><g id="c3"><path fill="#7fdbfe" stroke="none" d="M10.75 4.9 Q10.75 4.6 10.9 4.35 11.25 3.45 11.95 2.75 13.3 1.5 14.35 2.1 15.4 2.7 14.95 4.45 14.7 5.4 14.1 6.15 L13.75 6.5 Q13.1 7.15 12.35 7.35 L11.4 7.2 Q10.95 6.9 10.75 6.4 10.5 5.75 10.75 4.9 M7.5 5.9 Q7.0 5.85 6.6 5.5 6.05 5.0 5.8 4.15 L5.7 3.6 Q5.55 2.65 5.8 1.7 6.25 0.0 7.5 0.0 L7.6 0.0 Q8.85 0.0 9.3 1.7 9.55 2.65 9.4 3.6 L9.3 4.15 8.5 5.5 7.6 5.9 7.5 5.9 M4.35 4.9 Q4.6 5.75 4.35 6.4 L3.7 7.2 2.75 7.35 Q2.0 7.15 1.35 6.5 L1.0 6.15 Q0.4 5.4 0.15 4.45 -0.3 2.7 0.75 2.1 1.8 1.5 3.15 2.75 3.85 3.45 4.2 4.35 L4.35 4.9 M5.5 13.7 Q4.45 13.9 3.65 12.95 2.75 12.0 3.2 10.25 3.7 8.5 5.25 7.6 6.4 6.9 7.55 7.0 8.75 6.9 9.9 7.6 11.45 8.5 11.95 10.25 12.35 12.0 11.5 12.95 10.7 13.9 9.65 13.7 8.55 13.5 7.55 12.6 6.55 13.5 5.5 13.7"/></g><g id="c4"><g><use transform="matrix(1.0,0.0,0.0,1.0,0.0,0.0)" xlink:href="#c3"/></g></g><radialGradient gradientUnits="userSpaceOnUse" r="819.2" cx="0" cy="0" spreadMethod="pad" gradientTransform="matrix(0.0914459228516,0.0,0.0,0.0914459228516,0.6,3.4)" id="gradient1"><stop offset="0.0" stop-color="#ffffff"/><stop offset="1.0" stop-color="#ffffff" stop-opacity="0.0"/></radialGradient><g id="c5"><path stroke="none" fill="url(#gradient1)" d="M36.65 -54.65 Q60.05 -42.0 69.75 -17.95 80.55 8.9 68.0 34.1 55.45 59.35 26.8 68.2 -1.8 77.05 -29.7 64.3 -57.6 51.6 -68.45 24.75 -79.3 -2.05 -66.75 -27.25 L-66.7 -27.3 Q-54.1 -52.5 -25.5 -61.4 3.1 -70.2 31.0 -57.5 L36.65 -54.65"/></g><g id="c6"><g><use transform="matrix(1.0,0.0,0.0,1.0,0.0,0.0)" xlink:href="#c5"/></g></g><radialGradient gradientUnits="userSpaceOnUse" r="819.2" cx="0" cy="0" spreadMethod="pad" gradientTransform="matrix(0.209197998047,0.0,0.0,0.177108764648,67.15,107.2)" id="gradient2"><stop offset="0.356862745098" stop-color="#ffffff"/><stop offset="0.670588235294" stop-opacity="0.0"/></radialGradient><g id="c7"><path fill="none" stroke-linejoin="round" stroke-linecap="round" stroke="url(#gradient2)" stroke-width="0.5" d="M136.55 165.8 L68.6 106.0 68.4 106.0 118.25 201.5 M68.3 105.8 L68.35 105.8 68.3 105.8 68.3 105.85 68.4 106.0 68.3 106.0 86.55 211.5 M68.3 105.8 L68.3 105.85 68.3 106.0 68.15 105.95 18.25 151.55 M68.3 105.85 L68.25 105.85 68.3 106.0 50.0 193.2 M68.25 105.85 L68.15 105.95 0.05 97.7 M68.3 105.85 L68.25 105.8 68.25 105.85 M68.25 105.8 L68.2 105.7 0.0 45.7 M68.3 105.8 L68.25 105.75 68.25 105.8 M68.25 105.75 L68.2 105.7 18.25 10.05 M68.6 106.0 L68.35 105.8 118.25 60.15 M86.6 18.35 L68.3 105.8 M136.6 114.25 L68.6 106.0 M68.25 105.75 L49.95 0.05"/></g><g id="c8"><g><use transform="matrix(1.0,0.0,0.0,1.0,0.0,0.0)" xlink:href="#c7"/></g></g><g id="c9"><g><use transform="matrix(1.0,0.0,0.0,1.0,0.0,0.0)" xlink:href="#c2"/></g><g><use transform="matrix(0.238861083984,-0.0867004394531,0.10026550293,0.233917236328,34.25,31.15)" xlink:href="#c4"/></g><g><use transform="matrix(0.238861083984,-0.0867004394531,0.10026550293,0.233917236328,4.25,10.3)" xlink:href="#c4"/></g><g><use transform="matrix(0.141098022461,-0.0378112792969,0.111373901367,0.225646972656,20.25,20.65)" filter="url(#filter7)" xlink:href="#c6"/></g><g><use transform="matrix(-0.155029296875,0.0513153076172,0.0841827392578,0.147033691406,22.6,3.15)" filter="url(#filter8)" xlink:href="#c8"/></g></g><filter id="filter7"><feColorMatrix in="SourceGraphic" type="matrix" values="0.0 0.0 0.0 0.0 0.796875 0.0 0.0 0.0 0.0 0.59765625 0.0 0.0 0.0 0.0 0.19921875 0.0 0.0 0.0 1.0 0.0" result="cxform"/><feComposite operator="in" in2="SourceGraphic" result="color-xform"/></filter><filter id="filter8"><feColorMatrix in="SourceGraphic" type="matrix" values="0.0 0.0 0.0 0.0 0.99609375 0.0 0.0 0.0 0.0 0.99609375 0.0 0.0 0.0 0.0 0.99609375 0.0 0.0 0.0 1.0 0.0" result="cxform"/><feComposite operator="in" in2="SourceGraphic" result="color-xform"/></filter><g id="c10"><path fill="#a9ba32" stroke="none" d="M52.55 30.8 Q52.0 15.85 37.45 -0.15 50.7 22.15 52.55 30.8"/><path fill="none" stroke="#22240f" stroke-width="1.0" stroke-opacity="0.333333333333" d="M52.55 30.8 Q50.7 22.15 37.45 -0.15 52.0 15.85 52.55 30.8"/><path fill="#a9ba32" stroke="none" d="M55.0 22.2 Q22.8 11.15 2.45 24.0 37.85 18.5 55.0 22.2"/><path fill="none" stroke="#22240f" stroke-width="1.0" stroke-opacity="0.333333333333" d="M55.0 22.2 Q37.85 18.5 2.45 24.0 22.8 11.15 55.0 22.2"/><path fill="#a9ba32" stroke="none" d="M41.25 16.2 L41.25 16.25 Q50.8 23.15 52.75 26.55 53.25 28.4 54.55 30.15 L51.65 27.1 51.35 26.85 Q46.85 22.85 38.95 18.35 L38.5 17.3 39.8 16.6 41.25 16.25 41.25 16.2 45.35 15.9 47.4 15.85 Q51.25 18.0 54.0 20.35 52.95 22.05 52.7 23.8 46.3 18.65 41.25 16.2 M26.6 8.05 Q26.35 8.45 26.05 10.7 25.1 11.05 23.75 10.45 L17.25 5.9 26.6 8.05"/><path fill="#ae9b51" stroke="none" d="M41.25 16.2 L41.25 16.25 39.8 16.6 38.5 17.3 38.95 18.35 Q32.45 14.6 23.65 10.55 L23.75 10.45 Q25.1 11.05 26.05 10.7 26.35 8.45 26.6 8.05 39.35 11.4 47.4 15.85 L45.35 15.9 41.25 16.2"/><path fill="#8e992b" stroke="none" d="M52.75 26.55 Q50.8 23.15 41.25 16.25 L41.25 16.2 Q46.3 18.65 52.7 23.8 52.5 25.15 52.75 26.55"/><path fill="#6b7326" stroke="none" d="M51.65 27.1 L54.55 30.15 Q55.75 34.4 50.85 45.95 53.9 29.7 51.65 27.1"/><path fill="#a98d4e" stroke="none" d="M23.75 10.45 L23.65 10.55 Q17.2 7.6 9.45 4.4 L17.2 5.85 17.25 5.9 23.75 10.45"/><path fill="none" stroke="#22240f" stroke-width="1.0" stroke-opacity="0.333333333333" d="M38.95 18.35 Q46.85 22.85 51.35 26.85 L51.65 27.1 54.55 30.15 Q53.25 28.4 52.75 26.55 52.5 25.15 52.7 23.8 52.95 22.05 54.0 20.35 51.25 18.0 47.4 15.85 39.35 11.4 26.6 8.05 L17.25 5.9 17.2 5.85 9.45 4.4 Q17.2 7.6 23.65 10.55 32.45 14.6 38.95 18.35 M54.55 30.15 Q55.75 34.4 50.85 45.95 53.9 29.7 51.65 27.1"/><path fill="#838c26" stroke="none" d="M54.35 26.95 L55.4 28.55 Q54.2 27.2 52.6 26.3 51.8 25.85 50.55 25.95 50.55 25.6 50.0 25.4 49.5 25.15 51.65 25.15 L52.05 25.35 52.05 25.3 Q53.35 26.0 54.35 26.95 M36.7 28.3 L44.0 27.2 46.5 26.8 42.2 28.1 38.7 29.05 37.95 29.25 37.05 28.55 36.7 28.3"/><path fill="#8e992b" stroke="none" d="M51.65 25.15 Q49.5 25.15 50.0 25.4 50.55 25.6 50.55 25.95 51.8 25.85 52.6 26.3 54.2 27.2 55.4 28.55 L54.35 26.95 Q55.75 28.2 56.55 29.8 53.6 26.4 46.3 28.8 L44.0 29.55 40.3 30.7 37.95 29.25 38.7 29.05 42.2 28.1 46.5 26.8 44.0 27.2 36.7 28.3 36.25 27.95 Q33.35 25.4 33.6 23.55 L33.8 22.95 34.7 22.8 38.0 22.65 42.3 22.8 Q48.05 23.25 51.65 25.15 M33.35 29.15 L33.55 29.55 34.0 30.25 33.2 30.25 27.8 31.1 8.15 34.7 31.1 29.5 31.5 29.4 32.05 29.3 33.35 29.15"/><path fill="#e1e173" stroke="none" d="M33.8 22.95 L33.6 23.55 Q33.35 25.4 36.25 27.95 L36.7 28.3 36.15 28.45 36.5 28.5 Q36.95 28.55 36.1 28.7 L33.35 29.15 32.9 28.7 Q30.95 26.45 27.05 24.8 L27.3 24.75 Q28.25 24.35 29.15 24.05 31.5 23.3 33.8 22.95 M37.95 29.25 L40.3 30.7 38.2 31.3 34.8 32.25 34.0 30.25 36.5 29.6 36.9 29.45 37.95 29.25"/><path fill="#a9ba32" stroke="none" d="M37.95 29.25 L36.9 29.45 36.5 29.6 34.0 30.25 33.55 29.55 33.35 29.15 36.1 28.7 Q36.95 28.55 36.5 28.5 L36.15 28.45 36.7 28.3 37.05 28.55 37.95 29.25 M34.0 30.25 L34.8 32.25 Q23.25 35.45 -0.2 36.15 L6.2 33.4 6.7 33.2 7.05 33.05 10.95 31.5 27.05 24.8 Q30.95 26.45 32.9 28.7 L33.35 29.15 32.05 29.3 31.5 29.4 31.1 29.5 8.15 34.7 27.8 31.1 33.2 30.25 34.0 30.25"/><path fill="none" stroke="#22240f" stroke-width="1.0" stroke-opacity="0.333333333333" d="M51.65 25.15 Q48.05 23.25 42.3 22.8 L38.0 22.65 34.7 22.8 33.8 22.95 M40.3 30.7 L44.0 29.55 46.3 28.8 Q53.6 26.4 56.55 29.8 55.75 28.2 54.35 26.95 53.35 26.0 52.05 25.3 L52.05 25.35 51.65 25.15 M34.8 32.25 L38.2 31.3 40.3 30.7 M34.8 32.25 Q23.25 35.45 -0.2 36.15 L6.2 33.4 6.7 33.2 7.05 33.05 10.95 31.5 27.05 24.8 27.3 24.75 Q28.25 24.35 29.15 24.05 31.5 23.3 33.8 22.95"/></g><g id="c11"><g><use transform="matrix(1.0,0.0,0.0,1.0,0.0,0.0)" xlink:href="#c10"/></g></g><g id="c12"><path fill="#c4b322" stroke="none" d="M20.0 43.15 Q17.15 33.85 14.35 28.1 12.75 25.8 10.25 27.1 5.8 29.45 5.35 33.15 4.9 36.9 8.75 40.9 12.6 41.7 13.45 38.4 13.4 34.05 11.25 33.95 9.2 34.95 10.5 37.9 L9.7 37.35 Q9.15 36.9 8.95 36.3 8.6 35.2 8.85 34.0 L9.8 33.15 Q13.05 31.15 14.2 34.75 16.55 42.05 10.35 42.45 8.0 42.65 6.7 40.75 0.1 31.15 10.45 25.65 13.85 23.85 15.65 27.75 18.55 34.0 20.5 40.55 L20.0 43.15 M77.15 10.7 Q80.15 15.85 80.25 22.55 L80.15 25.15 Q79.25 28.4 76.5 30.7 55.9 44.7 30.6 51.65 28.4 51.8 27.65 49.1 25.8 36.7 20.6 24.4 L17.3 17.3 Q19.15 18.1 21.4 23.0 23.75 30.55 27.45 32.25 31.9 32.6 33.95 29.55 36.0 26.55 38.3 28.95 L42.6 33.1 Q44.6 34.85 46.85 34.9 52.3 35.6 53.55 30.2 54.75 25.2 59.45 26.2 L62.3 26.8 Q66.3 27.6 67.3 23.5 68.1 20.4 69.4 17.75 L69.9 17.4 Q77.4 18.05 77.15 10.7 M23.25 52.1 L21.8 52.45 Q17.55 53.15 10.85 50.2 L10.05 49.8 Q6.15 47.9 3.75 45.0 8.8 49.15 12.6 49.5 15.75 51.6 21.6 51.35 L22.95 50.95 23.25 52.1 M37.9 33.25 L34.55 33.4 Q32.5 33.8 32.25 38.3 32.0 42.75 37.45 44.3 38.85 44.5 39.45 43.45 43.1 37.2 37.9 33.25 M75.0 21.4 Q74.25 18.25 71.5 19.2 69.1 22.4 73.6 24.6 75.75 24.5 75.0 21.4"/><path fill="#dfd04a" stroke="none" d="M10.5 37.9 Q9.2 34.95 11.25 33.95 13.4 34.05 13.45 38.4 12.6 41.7 8.75 40.9 4.9 36.9 5.35 33.15 5.8 29.45 10.25 27.1 12.75 25.8 14.35 28.1 17.15 33.85 20.0 43.15 18.85 47.7 15.35 49.2 L12.6 49.5 Q8.8 49.15 3.75 45.0 -0.3 40.0 0.0 31.9 0.25 24.3 4.5 20.15 8.0 16.6 14.3 15.5 L16.25 15.2 17.3 17.3 20.6 24.4 Q25.8 36.7 27.65 49.1 L28.1 52.3 Q27.6 55.65 24.3 54.35 23.65 53.4 23.25 52.1 L22.95 50.95 22.95 50.8 Q21.95 45.6 20.5 40.55 18.55 34.0 15.65 27.75 13.85 23.85 10.45 25.65 0.1 31.15 6.7 40.75 8.0 42.65 10.35 42.45 16.55 42.05 14.2 34.75 13.05 31.15 9.8 33.15 L8.85 34.0 Q8.6 35.2 8.95 36.3 9.15 36.9 9.7 37.35 L10.5 37.9"/><path fill="#9f921c" stroke="none" d="M20.0 43.15 L20.5 40.55 Q21.95 45.6 22.95 50.8 L22.95 50.95 21.6 51.35 Q15.75 51.6 12.6 49.5 L15.35 49.2 Q18.85 47.7 20.0 43.15 M16.25 15.2 L21.65 14.15 Q32.25 12.15 42.05 7.55 L50.8 3.35 54.6 1.55 Q57.5 0.15 60.35 0.0 65.15 -0.25 69.85 3.0 72.95 5.15 75.1 7.75 L76.8 10.1 77.15 10.7 Q77.4 18.05 69.9 17.4 L69.4 17.75 Q68.1 20.4 67.3 23.5 66.3 27.6 62.3 26.8 L59.45 26.2 Q54.75 25.2 53.55 30.2 52.3 35.6 46.85 34.9 44.6 34.85 42.6 33.1 L38.3 28.95 Q36.0 26.55 33.95 29.55 31.9 32.6 27.45 32.25 23.75 30.55 21.4 23.0 19.15 18.1 17.3 17.3 L16.25 15.2 M80.15 25.15 Q79.25 33.85 71.2 38.8 62.8 44.0 54.0 48.5 42.95 54.15 31.0 56.45 L29.25 56.55 Q25.95 56.6 24.3 54.35 27.6 55.65 28.1 52.3 L27.65 49.1 Q28.4 51.8 30.6 51.65 55.9 44.7 76.5 30.7 79.25 28.4 80.15 25.15 M37.9 33.25 Q43.1 37.2 39.45 43.45 38.85 44.5 37.45 44.3 32.0 42.75 32.25 38.3 32.5 33.8 34.55 33.4 L37.9 33.25 M75.0 21.4 Q75.75 24.5 73.6 24.6 69.1 22.4 71.5 19.2 74.25 18.25 75.0 21.4"/><path fill="none" stroke="#000000" stroke-width="0.5" stroke-opacity="0.301960784314" d="M20.5 40.55 Q18.55 34.0 15.65 27.75 13.85 23.85 10.45 25.65 0.1 31.15 6.7 40.75 8.0 42.65 10.35 42.45 16.55 42.05 14.2 34.75 13.05 31.15 9.8 33.15 L8.85 34.0 Q8.6 35.2 8.95 36.3 9.15 36.9 9.7 37.35 L10.5 37.9 M3.75 45.0 Q-0.3 40.0 0.0 31.9 0.25 24.3 4.5 20.15 8.0 16.6 14.3 15.5 L16.25 15.2 21.65 14.15 Q32.25 12.15 42.05 7.55 L50.8 3.35 54.6 1.55 Q57.5 0.15 60.35 0.0 65.15 -0.25 69.85 3.0 72.95 5.15 75.1 7.75 L76.8 10.1 77.15 10.7 Q80.15 15.85 80.25 22.55 L80.15 25.15 Q79.25 33.85 71.2 38.8 62.8 44.0 54.0 48.5 42.95 54.15 31.0 56.45 L29.25 56.55 Q25.95 56.6 24.3 54.35 23.65 53.4 23.25 52.1 L21.8 52.45 Q17.55 53.15 10.85 50.2 L10.05 49.8 Q6.15 47.9 3.75 45.0 M22.95 50.95 L22.95 50.8 Q21.95 45.6 20.5 40.55 M23.25 52.1 L22.95 50.95"/></g><g id="c13"><g><use transform="matrix(1.0,0.0,0.0,1.0,0.0,0.0)" xlink:href="#c12"/></g></g><g id="c14"><path fill="#838c26" stroke="none" d="M22.05 0.2 L22.4 0.15 22.35 0.1 24.95 0.0 26.65 0.3 Q25.05 0.15 23.4 0.3 22.6 0.45 21.95 0.9 L21.2 0.85 Q20.75 0.9 22.05 0.2 M17.05 6.6 L16.05 6.6 15.6 6.65 19.05 3.7 20.25 2.65 18.75 4.65 17.35 6.25 17.05 6.6"/><path fill="#8e992b" stroke="none" d="M22.05 0.2 Q20.75 0.9 21.2 0.85 L21.95 0.9 Q22.6 0.45 23.4 0.3 25.05 0.15 26.65 0.3 L24.95 0.0 28.25 0.45 Q24.0 0.05 21.55 3.55 L20.8 4.65 19.45 6.35 17.05 6.6 17.35 6.25 18.75 4.65 20.25 2.65 19.05 3.7 15.6 6.65 15.1 6.7 Q11.55 6.6 10.35 5.75 L10.0 5.45 10.4 5.0 12.2 3.85 Q13.55 3.05 14.85 2.5 18.45 0.7 22.05 0.2 M14.3 8.15 L14.65 8.2 15.5 8.4 15.0 8.6 12.5 10.8 3.7 19.1 13.2 9.05 13.35 8.85 13.7 8.7 14.3 8.15"/><path fill="#a9ba32" stroke="none" d="M17.5 8.95 Q13.05 14.2 0.0 22.55 L1.75 19.25 1.85 18.95 2.0 18.75 3.0 16.85 Q5.65 11.6 7.5 8.55 L13.8 8.1 14.3 8.15 15.6 7.0 Q16.0 6.65 15.65 6.75 L15.4 6.85 15.6 6.65 16.05 6.6 17.05 6.6 16.65 7.1 16.5 7.2 15.5 8.4 14.65 8.2 14.3 8.15 13.7 8.7 13.35 8.85 13.2 9.05 3.7 19.1 12.5 10.8 15.0 8.6 15.5 8.4 17.5 8.95"/><path fill="#e1e173" stroke="none" d="M19.45 6.35 L18.7 7.35 17.5 8.95 15.5 8.4 16.5 7.2 16.65 7.1 17.05 6.6 19.45 6.35 M7.5 8.55 L7.55 8.4 8.15 7.5 Q8.8 6.4 10.0 5.45 L10.35 5.75 Q11.55 6.6 15.1 6.7 L15.6 6.65 15.4 6.85 15.65 6.75 Q16.0 6.65 15.6 7.0 L14.3 8.15 13.8 8.1 7.5 8.55"/><path fill="none" stroke="#22240f" stroke-width="1.0" stroke-opacity="0.333333333333" d="M24.95 0.0 L22.35 0.1 22.4 0.15 22.05 0.2 M24.95 0.0 L28.25 0.45 Q24.0 0.05 21.55 3.55 L20.8 4.65 19.45 6.35 18.7 7.35 17.5 8.95 Q13.05 14.2 0.0 22.55 L1.75 19.25 1.85 18.95 2.0 18.75 3.0 16.85 Q5.65 11.6 7.5 8.55 L7.55 8.4 8.15 7.5 Q8.8 6.4 10.0 5.45 L10.4 5.0 12.2 3.85 Q13.55 3.05 14.85 2.5 18.45 0.7 22.05 0.2"/></g><g id="c15"><g><use transform="matrix(1.0,0.0,0.0,1.0,0.0,0.0)" xlink:href="#c14"/></g></g><g id="c16"><path fill="#aa512b" stroke="none" d="M23.85 29.75 L24.1 29.45 Q24.6 28.9 25.3 28.75 L25.75 28.75 27.65 29.25 27.75 29.35 27.9 29.35 Q29.55 30.55 30.25 29.2 L30.75 28.85 31.25 28.75 31.6 28.85 32.35 29.2 33.55 29.3 34.0 28.85 34.2 27.6 Q34.45 26.7 35.1 26.75 36.2 27.05 36.75 26.3 L36.8 26.0 36.85 25.15 36.8 24.85 Q36.85 24.45 37.45 24.4 L37.6 24.4 38.05 24.35 38.75 23.85 38.9 23.0 Q39.2 23.4 39.1 23.9 38.8 24.75 38.05 24.85 L37.95 24.9 37.35 24.9 Q37.15 25.05 37.25 25.6 37.65 26.55 37.3 27.2 36.8 28.0 35.8 27.45 35.15 27.15 34.85 27.45 34.5 27.9 34.65 28.9 35.0 29.65 34.6 30.2 L32.4 30.1 32.35 30.0 Q31.75 29.45 31.15 29.35 30.8 29.25 30.6 29.9 30.35 30.55 29.75 30.85 29.15 31.1 27.8 30.25 L27.55 30.1 Q26.85 29.55 26.05 29.35 24.85 29.1 23.85 29.9 L23.85 29.75 M31.0 32.6 L31.2 32.75 31.55 32.9 31.8 32.9 32.05 32.9 32.15 32.9 32.45 32.75 32.45 32.6 32.45 31.9 32.5 31.85 32.6 32.5 32.45 33.1 32.4 33.2 31.4 33.25 Q31.0 33.0 31.0 32.6 M38.8 26.45 L39.0 26.55 39.15 26.5 39.2 26.45 39.3 26.4 39.4 26.25 39.25 26.05 39.4 26.15 39.55 26.45 39.25 26.7 38.8 26.45"/><path fill="#f0ad4a" stroke="none" d="M23.85 29.75 L24.0 29.2 Q24.65 27.95 26.05 27.45 L26.85 27.05 27.9 26.55 29.95 25.4 30.25 25.15 32.45 23.3 Q33.45 22.4 34.7 21.85 L34.75 21.85 37.15 21.6 37.9 21.9 Q38.55 22.15 38.9 22.7 L38.9 23.0 38.75 23.85 Q38.9 22.75 38.25 22.35 36.4 21.4 35.3 21.85 35.65 22.0 35.55 22.4 35.4 23.7 32.7 25.45 L31.1 26.5 30.3 27.0 Q28.4 28.05 26.65 28.4 L25.6 28.25 25.7 27.85 Q25.05 28.1 24.45 28.9 25.2 28.5 26.15 28.65 L26.65 28.75 27.65 29.25 25.75 28.75 25.3 28.75 Q24.6 28.9 24.1 29.45 L23.85 29.75 M30.8 32.15 L30.75 32.05 Q30.7 31.5 30.95 31.25 L31.3 31.0 31.45 31.0 31.65 30.95 32.15 31.2 32.3 31.4 32.35 31.4 32.35 31.5 32.4 31.55 32.45 31.8 32.4 31.85 32.4 31.75 Q32.0 31.1 31.55 31.15 L31.45 31.2 Q30.95 31.35 30.95 31.95 31.0 32.45 31.55 32.7 L32.05 32.9 31.8 32.9 31.55 32.9 31.2 32.75 31.0 32.6 30.8 32.25 30.8 32.2 30.8 32.15 M38.65 26.3 L38.8 25.9 39.0 25.85 39.1 25.85 39.25 26.05 39.4 26.25 Q39.15 25.9 39.0 26.0 L38.8 26.35 38.8 26.4 39.0 26.55 38.8 26.45 38.65 26.35 38.65 26.3"/><path fill="#cc6633" stroke="none" d="M27.65 29.25 L26.65 28.75 26.15 28.65 Q25.2 28.5 24.45 28.9 25.05 28.1 25.7 27.85 L25.6 28.25 26.65 28.4 Q28.4 28.05 30.3 27.0 L31.1 26.5 32.7 25.45 Q35.4 23.7 35.55 22.4 35.65 22.0 35.3 21.85 36.4 21.4 38.25 22.35 38.9 22.75 38.75 23.85 L38.05 24.35 37.6 24.4 37.45 24.4 Q36.85 24.45 36.8 24.85 L36.85 25.15 36.8 26.0 36.75 26.3 Q36.2 27.05 35.1 26.75 34.45 26.7 34.2 27.6 L34.0 28.85 33.55 29.3 32.35 29.2 31.6 28.85 31.25 28.75 30.75 28.85 30.25 29.2 Q29.55 30.55 27.9 29.35 L27.75 29.35 27.65 29.25 M38.9 23.0 L38.9 22.7 39.1 23.0 39.25 23.8 Q39.25 24.35 38.85 24.7 L38.45 25.0 38.25 25.05 37.65 25.05 37.45 25.15 37.45 25.7 37.65 26.15 Q37.75 26.75 37.45 27.4 L36.85 27.85 35.7 27.7 Q35.55 27.55 35.4 27.55 35.0 27.5 34.9 27.85 34.75 28.4 34.95 29.1 35.2 29.9 34.65 30.45 L33.6 30.8 Q32.95 30.85 32.35 30.3 L31.4 29.6 31.3 29.55 30.95 29.65 30.8 29.9 30.35 30.8 29.9 31.1 29.2 31.15 Q28.4 30.9 27.75 30.3 L27.8 30.25 Q29.15 31.1 29.75 30.85 30.35 30.55 30.6 29.9 30.8 29.25 31.15 29.35 31.75 29.45 32.35 30.0 L32.4 30.1 34.6 30.2 Q35.0 29.65 34.65 28.9 34.5 27.9 34.85 27.45 35.15 27.15 35.8 27.45 36.8 28.0 37.3 27.2 37.65 26.55 37.25 25.6 37.15 25.05 37.35 24.9 L37.95 24.9 38.05 24.85 Q38.8 24.75 39.1 23.9 39.2 23.4 38.9 23.0 M30.8 32.25 L31.0 32.6 Q31.0 33.0 31.4 33.25 L32.4 33.2 32.45 33.1 32.6 32.5 32.5 31.85 32.45 31.8 32.4 31.55 32.45 31.5 Q32.9 32.15 32.6 33.2 L32.45 33.4 32.2 33.5 31.95 33.55 31.65 33.5 Q31.05 33.45 30.9 32.85 L30.85 32.7 30.75 32.3 30.8 32.25 M32.05 32.9 L31.55 32.7 Q31.0 32.45 30.95 31.95 30.95 31.35 31.45 31.2 L31.55 31.15 Q32.0 31.1 32.4 31.75 L32.4 31.85 32.45 31.9 32.45 32.6 32.45 32.75 32.15 32.9 32.05 32.9 M39.1 25.85 L39.6 26.2 39.65 26.35 39.65 26.55 39.5 26.75 39.4 26.8 Q38.6 26.8 38.65 26.3 L38.65 26.35 38.8 26.45 39.25 26.7 39.55 26.45 39.4 26.15 39.25 26.05 39.1 25.85 M39.0 26.55 L38.8 26.4 38.8 26.35 39.0 26.0 Q39.15 25.9 39.4 26.25 L39.3 26.4 39.2 26.45 39.15 26.5 39.0 26.55"/><path fill="#f4a33c" stroke="none" d="M27.75 30.3 L27.55 30.1 27.8 30.25 27.75 30.3 M30.8 32.2 L30.8 32.25 30.8 32.2 M32.4 31.55 L32.35 31.5 32.35 31.4 32.35 31.45 32.45 31.5 32.4 31.55 M30.75 32.3 L30.8 32.25 30.75 32.3"/><path fill="#ffde4f" stroke="none" d="M32.4 31.85 L32.45 31.8 32.45 31.9 32.4 31.85"/><path fill="#cc6b22" stroke="none" d="M32.5 31.85 L32.45 31.9 32.45 31.8 32.5 31.85"/><path fill="none" stroke="#000000" stroke-width="0.5" stroke-opacity="0.301960784314" d="M38.9 22.7 Q38.55 22.15 37.9 21.9 L37.15 21.6 34.75 21.85 34.7 21.85 Q33.45 22.4 32.45 23.3 L30.25 25.15 29.95 25.4 27.9 26.55 26.85 27.05 26.05 27.45 Q24.65 27.95 24.0 29.2 L23.85 29.75 M38.9 22.7 L39.1 23.0 39.25 23.8 Q39.25 24.35 38.85 24.7 L38.45 25.0 38.25 25.05 37.65 25.05 37.45 25.15 37.45 25.7 37.65 26.15 Q37.75 26.75 37.45 27.4 L36.85 27.85 35.7 27.7 Q35.55 27.55 35.4 27.55 35.0 27.5 34.9 27.85 34.75 28.4 34.95 29.1 35.2 29.9 34.65 30.45 L33.6 30.8 Q32.95 30.85 32.35 30.3 L31.4 29.6 31.3 29.55 30.95 29.65 30.8 29.9 30.35 30.8 29.9 31.1 29.2 31.15 Q28.4 30.9 27.75 30.3 L27.55 30.1 Q26.85 29.55 26.05 29.35 24.85 29.1 23.85 29.9 L23.85 29.75 M32.35 31.4 L32.3 31.4 32.15 31.2 31.65 30.95 31.45 31.0 31.3 31.0 30.95 31.25 Q30.7 31.5 30.75 32.05 L30.8 32.15 M32.35 31.4 L32.35 31.45 32.45 31.5 Q32.9 32.15 32.6 33.2 L32.45 33.4 32.2 33.5 31.95 33.55 31.65 33.5 Q31.05 33.45 30.9 32.85 L30.85 32.7 30.75 32.3 30.8 32.25 30.8 32.15 M38.65 26.3 L38.8 25.9 39.0 25.85 39.1 25.85 39.6 26.2 39.65 26.35 39.65 26.55 39.5 26.75 39.4 26.8 Q38.6 26.8 38.65 26.3"/></g><g id="c17"><g><use transform="matrix(1.0,0.0,0.0,1.0,0.0,0.0)" xlink:href="#c5"/></g></g><g id="c18"><path fill="#ffff1a" stroke="none" d="M27.75 26.3 L27.85 26.0 28.15 25.8 28.35 25.8 Q28.65 26.25 27.95 26.45 L27.75 26.3"/><path fill="#eeee00" stroke="none" d="M28.35 25.8 L28.5 25.85 28.7 26.05 28.6 26.3 28.25 26.45 27.95 26.45 Q28.65 26.25 28.35 25.8"/><path fill="none" stroke="#000000" stroke-width="0.5" stroke-opacity="0.301960784314" d="M27.75 26.3 L27.85 26.0 28.15 25.8 28.35 25.8 28.5 25.85 28.7 26.05 28.6 26.3 28.25 26.45 27.95 26.45 27.75 26.3"/><path fill="#69f00f" stroke="none" d="M27.8 28.25 L27.7 28.45 27.35 28.6 27.05 28.6 Q27.8 28.4 27.45 27.95 L27.6 28.0 27.8 28.25"/><path fill="#8cf347" stroke="none" d="M27.05 28.6 L26.85 28.5 26.95 28.15 27.25 28.0 27.45 27.95 Q27.8 28.4 27.05 28.6"/><path fill="none" stroke="#000000" stroke-width="0.5" stroke-opacity="0.301960784314" d="M27.8 28.25 L27.7 28.45 27.35 28.6 27.05 28.6 26.85 28.5 26.95 28.15 27.25 28.0 27.45 27.95 27.6 28.0 27.8 28.25"/><path fill="#16cde0" stroke="none" d="M28.9 26.5 L28.85 26.5 28.6 26.3 28.7 25.8 29.2 25.45 29.45 25.45 Q30.0 26.15 28.9 26.5"/><path fill="#12a2b1" stroke="none" d="M29.45 25.45 L29.75 25.5 30.05 25.9 29.9 26.2 29.4 26.45 28.9 26.5 Q30.0 26.15 29.45 25.45"/><path fill="none" stroke="#000000" stroke-width="0.5" stroke-opacity="0.301960784314" d="M29.45 25.45 L29.75 25.5 30.05 25.9 29.9 26.2 29.4 26.45 28.9 26.5 28.85 26.5 28.6 26.3 28.7 25.8 29.2 25.45 29.45 25.45"/><path fill="#ffff1a" stroke="none" d="M30.6 24.6 L30.75 24.2 31.15 23.9 31.4 23.9 Q31.8 24.5 30.85 24.8 L30.6 24.6"/><path fill="#eeee00" stroke="none" d="M31.4 23.9 L31.65 23.95 31.85 24.25 31.75 24.55 31.3 24.75 30.85 24.8 Q31.8 24.5 31.4 23.9"/><path fill="none" stroke="#000000" stroke-width="0.5" stroke-opacity="0.301960784314" d="M30.6 24.6 L30.75 24.2 31.15 23.9 31.4 23.9 31.65 23.95 31.85 24.25 31.75 24.55 31.3 24.75 30.85 24.8 30.6 24.6"/><path fill="#b61636" stroke="none" d="M32.9 25.3 L33.1 25.4 33.3 25.65 33.2 25.85 32.85 25.95 32.55 26.0 Q33.25 25.75 32.9 25.3"/><path fill="#d51a40" stroke="none" d="M32.55 26.0 L32.35 25.9 32.45 25.55 Q32.5 25.4 32.7 25.35 L32.9 25.3 Q33.25 25.75 32.55 26.0"/><path fill="none" stroke="#000000" stroke-width="0.5" stroke-opacity="0.301960784314" d="M32.9 25.3 L33.1 25.4 33.3 25.65 33.2 25.85 32.85 25.95 32.55 26.0 32.35 25.9 32.45 25.55 Q32.5 25.4 32.7 25.35 L32.9 25.3"/><path fill="#04f233" stroke="none" d="M34.35 24.9 L34.3 24.85 34.1 24.7 34.2 24.3 Q34.3 24.1 34.55 24.05 L34.8 24.05 Q35.2 24.6 34.35 24.9"/><path fill="#03b827" stroke="none" d="M34.8 24.05 L35.05 24.1 35.25 24.4 35.15 24.65 34.7 24.85 34.35 24.9 Q35.2 24.6 34.8 24.05"/><path fill="none" stroke="#000000" stroke-width="0.5" stroke-opacity="0.301960784314" d="M34.8 24.05 L35.05 24.1 35.25 24.4 35.15 24.65 34.7 24.85 34.35 24.9 34.3 24.85 34.1 24.7 34.2 24.3 Q34.3 24.1 34.55 24.05 L34.8 24.05"/><path fill="#03b827" stroke="none" d="M29.2 27.05 L29.4 27.05 29.55 27.25 29.45 27.45 29.15 27.6 28.85 27.6 Q29.5 27.4 29.2 27.05"/><path fill="#04f233" stroke="none" d="M28.7 27.5 L28.8 27.2 29.05 27.05 29.2 27.05 Q29.5 27.4 28.85 27.6 L28.7 27.5"/><path fill="none" stroke="#000000" stroke-width="0.5" stroke-opacity="0.301960784314" d="M28.7 27.5 L28.8 27.2 29.05 27.05 29.2 27.05 29.4 27.05 29.55 27.25 29.45 27.45 29.15 27.6 28.85 27.6 28.7 27.5"/><path fill="#12a2b1" stroke="none" d="M32.4 25.8 L32.6 25.85 32.85 26.15 32.75 26.4 32.3 26.6 31.95 26.65 Q32.8 26.35 32.4 25.8"/><path fill="#16cde0" stroke="none" d="M31.7 26.45 L31.75 26.05 32.15 25.8 32.4 25.8 Q32.8 26.35 31.95 26.65 L31.9 26.6 31.7 26.45"/><path fill="none" stroke="#000000" stroke-width="0.5" stroke-opacity="0.301960784314" d="M31.7 26.45 L31.75 26.05 32.15 25.8 32.4 25.8 32.6 25.85 32.85 26.15 32.75 26.4 32.3 26.6 31.95 26.65 31.9 26.6 31.7 26.45"/><path fill="#ffff1a" stroke="none" d="M34.5 23.2 L34.6 22.9 Q34.7 22.75 34.9 22.7 L35.1 22.7 Q35.4 23.15 34.7 23.35 L34.5 23.2"/><path fill="#eeee00" stroke="none" d="M35.1 22.7 L35.25 22.75 35.45 22.95 35.35 23.2 35.0 23.35 34.7 23.35 Q35.4 23.15 35.1 22.7"/><path fill="none" stroke="#000000" stroke-width="0.5" stroke-opacity="0.301960784314" d="M34.5 23.2 L34.6 22.9 Q34.7 22.75 34.9 22.7 L35.1 22.7 35.25 22.75 35.45 22.95 35.35 23.2 35.0 23.35 34.7 23.35 34.5 23.2"/><path fill="#d51a40" stroke="none" d="M28.45 28.4 Q28.4 28.25 28.5 28.1 L28.75 27.95 29.0 27.9 Q29.25 28.3 28.65 28.5 L28.6 28.5 28.45 28.4"/><path fill="#b61636" stroke="none" d="M29.0 27.9 L29.15 27.95 29.3 28.2 29.25 28.35 28.9 28.5 28.65 28.5 Q29.25 28.3 29.0 27.9"/><path fill="none" stroke="#000000" stroke-width="0.5" stroke-opacity="0.301960784314" d="M28.45 28.4 Q28.4 28.25 28.5 28.1 L28.75 27.95 29.0 27.9 29.15 27.95 29.3 28.2 29.25 28.35 28.9 28.5 28.65 28.5 28.6 28.5 28.45 28.4"/><path fill="#d51a40" stroke="none" d="M33.9 23.25 L33.95 23.05 34.15 22.9 34.25 22.95 Q34.45 23.2 34.0 23.3 L33.9 23.25"/><path fill="#b61636" stroke="none" d="M34.25 22.95 L34.35 22.95 34.5 23.1 34.4 23.2 34.2 23.3 34.0 23.3 Q34.45 23.2 34.25 22.95"/><path fill="none" stroke="#000000" stroke-width="0.5" stroke-opacity="0.301960784314" d="M33.9 23.25 L33.95 23.05 34.15 22.9 34.25 22.95 34.35 22.95 34.5 23.1 34.4 23.2 34.2 23.3 34.0 23.3 33.9 23.25"/><path fill="#d51a40" stroke="none" d="M35.6 24.0 L35.65 23.8 35.85 23.65 35.95 23.7 35.7 24.05 35.6 24.0"/><path fill="#b61636" stroke="none" d="M35.95 23.7 L36.05 23.7 36.2 23.85 36.1 23.95 35.9 24.05 35.7 24.05 35.95 23.7"/><path fill="none" stroke="#000000" stroke-width="0.5" stroke-opacity="0.301960784314" d="M35.6 24.0 L35.65 23.8 35.85 23.65 35.95 23.7 36.05 23.7 36.2 23.85 36.1 23.95 35.9 24.05 35.7 24.05 35.6 24.0"/><path fill="#ffff1a" stroke="none" d="M33.95 25.8 L34.0 25.6 Q34.05 25.5 34.2 25.5 L34.35 25.45 Q34.5 25.75 34.05 25.9 L33.95 25.8"/><path fill="#eeee00" stroke="none" d="M34.35 25.45 L34.4 25.45 34.55 25.65 34.45 25.75 34.25 25.9 34.05 25.9 Q34.5 25.75 34.35 25.45"/><path fill="none" stroke="#000000" stroke-width="0.5" stroke-opacity="0.301960784314" d="M33.95 25.8 L34.0 25.6 Q34.05 25.5 34.2 25.5 L34.35 25.45 34.4 25.45 34.55 25.65 34.45 25.75 34.25 25.9 34.05 25.9 33.95 25.8"/><path fill="#69f00f" stroke="none" d="M36.4 22.15 L36.35 22.3 36.2 22.4 36.0 22.4 Q36.4 22.3 36.2 22.0 L36.3 22.05 36.4 22.15"/><path fill="#8cf347" stroke="none" d="M36.0 22.4 L35.9 22.3 35.95 22.15 36.1 22.05 36.2 22.0 Q36.4 22.3 36.0 22.4"/><path fill="none" stroke="#000000" stroke-width="0.5" stroke-opacity="0.301960784314" d="M36.4 22.15 L36.35 22.3 36.2 22.4 36.0 22.4 35.9 22.3 35.95 22.15 36.1 22.05 36.2 22.0 36.3 22.05 36.4 22.15"/><path fill="#69f00f" stroke="none" d="M31.55 25.15 L31.5 25.3 31.35 25.4 31.15 25.4 Q31.55 25.3 31.35 25.0 L31.45 25.05 31.55 25.15"/><path fill="#8cf347" stroke="none" d="M31.15 25.4 L31.05 25.3 31.1 25.15 Q31.15 25.05 31.25 25.05 L31.35 25.0 Q31.55 25.3 31.15 25.4"/><path fill="none" stroke="#000000" stroke-width="0.5" stroke-opacity="0.301960784314" d="M31.55 25.15 L31.5 25.3 31.35 25.4 31.15 25.4 31.05 25.3 31.1 25.15 Q31.15 25.05 31.25 25.05 L31.35 25.0 31.45 25.05 31.55 25.15"/><path fill="#16cde0" stroke="none" d="M27.75 28.5 L27.7 28.5 27.65 28.45 27.65 28.35 Q27.7 28.25 27.8 28.25 L27.85 28.25 Q28.0 28.4 27.75 28.5"/><path fill="#12a2b1" stroke="none" d="M27.85 28.25 L27.9 28.25 28.05 28.35 27.95 28.4 27.85 28.5 27.75 28.5 Q28.0 28.4 27.85 28.25"/><path fill="none" stroke="#000000" stroke-width="0.5" stroke-opacity="0.301960784314" d="M27.85 28.25 L27.9 28.25 28.05 28.35 27.95 28.4 27.85 28.5 27.75 28.5 27.7 28.5 27.65 28.45 27.65 28.35 Q27.7 28.25 27.8 28.25 L27.85 28.25"/></g><filter id="filter15"><feColorMatrix in="SourceGraphic" type="matrix" values="0.66015625 0.0 0.0 0.0 0.0 0.0 0.66015625 0.0 0.0 0.0 0.0 0.0 0.66015625 0.0 0.0 0.0 0.0 0.0 1.0 0.0" result="cxform"/><feComposite operator="in" in2="SourceGraphic" result="color-xform"/></filter><filter id="filter16"><feColorMatrix in="SourceGraphic" type="matrix" values="0.640625 0.0 0.0 0.0 0.0 0.0 0.640625 0.0 0.0 0.0 0.0 0.0 0.640625 0.0 0.0 0.0 0.0 0.0 1.0 0.0" result="cxform"/><feComposite operator="in" in2="SourceGraphic" result="color-xform"/></filter><filter id="filter17"><feColorMatrix in="SourceGraphic" type="matrix" values="0.6796875 0.0 0.0 0.0 0.0 0.0 0.6796875 0.0 0.0 0.0 0.0 0.0 0.6796875 0.0 0.0 0.0 0.0 0.0 1.0 0.0" result="cxform"/><feComposite operator="in" in2="SourceGraphic" result="color-xform"/></filter><filter id="filter19"><feColorMatrix in="SourceGraphic" type="matrix" values="0.0 0.0 0.0 0.0 0.99609375 0.0 0.0 0.0 0.0 0.796875 0.0 0.0 0.0 0.0 0.0 0.0 0.0 0.0 0.140625 0.0" result="cxform"/><feComposite operator="in" in2="SourceGraphic" result="color-xform"/></filter><filter id="filter21"><feColorMatrix in="SourceGraphic" type="matrix" values="1.0 0.0 0.0 0.0 0.0 0.0 1.0 0.0 0.0 0.0 0.0 0.0 1.0 0.0 0.0 0.0 0.0 0.0 0.23046875 0.0" result="cxform"/><feComposite operator="in" in2="SourceGraphic" result="color-xform"/></filter></defs><g><g><use transform="matrix(1.0,0.0,0.0,1.0,0.0,0.0)" xlink:href="#c1"/></g><g><use transform="matrix(1.15496826172,0.0,0.0,1.15496826172,5.85,4.8)" xlink:href="#c9"/></g><g><use transform="matrix(0.238372802734,0.0,0.0,0.238067626953,18.85,22.2)" filter="url(#filter15)" xlink:href="#c11"/></g><g><use transform="matrix(0.230224609375,-0.0616607666016,0.0615997314453,0.229934692383,20.65,25.65)" filter="url(#filter16)" xlink:href="#c13"/></g><g><use transform="matrix(0.230224609375,-0.0616607666016,0.0615997314453,0.229934692383,21.1,29.5)" filter="url(#filter17)" xlink:href="#c15"/></g><g><use transform="matrix(1.0,0.0,0.0,1.0,0.0,0.0)" xlink:href="#c16"/></g><g><use transform="matrix(0.0925750732422,-0.0615997314453,0.0389709472656,0.0530853271484,31.1,29.05)" filter="url(#filter19)" xlink:href="#c17"/></g><g><use transform="matrix(1.0,0.0,0.0,1.0,0.0,0.0)" xlink:href="#c18"/></g><g><use transform="matrix(0.162948608398,-0.0436706542969,0.128631591797,0.260604858398,30.0,28.7)" filter="url(#filter21)" xlink:href="#c6"/></g></g></svg>