<?xml version='1.0' encoding='UTF-8'?>
<svg xmlns:xlink="http://www.w3.org/1999/xlink" xmlns="http://www.w3.org/2000/svg" version="1.1" width="60px" height="60px" viewBox="0.0 0.0 60.0 60.0"><defs><g id="c1"><path fill="#000000" fill-opacity="0.00392156862745" d="M0.0 0.0 L60.0 0.0 60.0 60.0 0.0 60.0 0.0 0.0"/></g><g id="c2"><path fill="none" stroke="#000000" stroke-width="1.0" stroke-opacity="0.301960784314" d="M0.7 12.25 Q-0.45 9.75 0.75 8.25 1.2 7.6 2.15 7.15 2.8 6.7 3.8 6.35 L17.5 1.95 30.2 7.0 41.35 31.7 Q42.95 35.15 40.2 36.7 39.5 37.3 38.3 37.65 L25.5 41.8 25.45 41.75 24.55 42.0 11.85 37.0 0.7 12.25"/><path fill="#9d147b" stroke="none" d="M35.55 22.3 L31.5 13.2 29.75 9.2 16.95 4.25 5.5 7.85 Q1.65 9.1 3.35 12.8 L8.25 23.65 13.1 34.35 25.8 39.4 37.2 35.7 Q41.1 34.5 39.35 30.75 L35.55 22.3 M2.15 7.15 Q2.8 6.7 3.8 6.35 L17.5 1.95 30.2 7.0 41.35 31.7 Q42.95 35.15 40.2 36.7 L38.9 37.25 25.2 41.65 12.5 36.65 5.45 20.95 1.35 11.8 Q0.4 9.65 1.1 8.3 1.45 7.65 2.15 7.15"/><path fill="#c47fad" stroke="none" d="M31.5 13.2 L35.55 22.3 39.35 30.75 Q41.1 34.5 37.2 35.7 L25.8 39.4 13.1 34.35 8.25 23.65 3.35 12.8 Q1.65 9.1 5.5 7.85 L16.95 4.25 29.75 9.2 31.5 13.2 M18.5 7.45 L9.1 10.55 9.55 11.6 Q9.8 12.8 9.15 13.6 8.4 14.45 7.1 14.4 L6.8 14.4 6.95 14.6 15.2 32.75 23.85 36.2 34.0 32.9 33.7 32.1 Q33.45 30.9 34.1 30.1 34.75 29.3 35.95 29.35 L35.8 29.0 27.75 10.95 18.5 7.45"/><path fill="#fcf2cf" stroke="none" d="M27.75 10.95 L35.8 29.0 35.95 29.35 Q34.75 29.3 34.1 30.1 33.45 30.9 33.7 32.1 L34.0 32.9 23.85 36.2 15.2 32.75 6.95 14.6 6.8 14.4 7.1 14.4 Q8.4 14.45 9.15 13.6 9.8 12.8 9.55 11.6 L9.1 10.55 18.5 7.45 27.75 10.95"/><path fill="#630a4c" stroke="none" d="M0.75 8.25 Q1.2 7.6 2.15 7.15 1.45 7.65 1.1 8.3 L0.75 8.25 M11.55 36.25 L11.25 35.55 4.6 20.9 5.45 20.95 12.5 36.65 11.55 36.25"/><path fill="#300525" stroke="none" d="M4.6 20.9 L0.7 12.25 Q-0.45 9.75 0.75 8.25 L1.1 8.3 Q0.4 9.65 1.35 11.8 L5.45 20.95 4.6 20.9 M40.2 36.7 Q39.5 37.3 38.3 37.65 L25.5 41.8 25.45 41.75 24.55 42.0 11.85 37.0 11.55 36.25 12.5 36.65 25.2 41.65 38.9 37.25 40.2 36.7"/><path fill="none" stroke="#bf9900" stroke-width="1.0" stroke-opacity="0.749019607843" d="M31.5 13.2 L35.55 22.3 M13.1 34.35 L8.25 23.65"/><path fill="none" stroke="#ffcc00" stroke-width="1.0" stroke-opacity="0.749019607843" d="M35.55 22.3 L39.35 30.75 Q41.1 34.5 37.2 35.7 L25.8 39.4 M8.25 23.65 L3.35 12.8 Q1.65 9.1 5.5 7.85 L16.95 4.25 29.75 9.2 31.5 13.2"/><path fill="none" stroke="#f0b92b" stroke-width="0.5" d="M27.75 10.95 L35.8 29.0 35.95 29.35 Q34.75 29.3 34.1 30.1 33.45 30.9 33.7 32.1 L34.0 32.9 23.85 36.2 15.2 32.75 6.95 14.6 6.8 14.4 7.1 14.4 Q8.4 14.45 9.15 13.6 9.8 12.8 9.55 11.6 L9.1 10.55 18.5 7.45"/><path fill="none" stroke="#000000" stroke-width="0.5" stroke-opacity="0.301960784314" d="M4.6 20.9 L0.7 12.25 Q-0.45 9.75 0.75 8.25 1.2 7.6 2.15 7.15 2.8 6.7 3.8 6.35 L17.5 1.95 M30.2 7.0 L41.35 31.7 Q42.95 35.15 40.2 36.7 39.5 37.3 38.3 37.65 L25.5 41.8 M11.25 35.55 L4.6 20.9 M5.45 20.95 L1.35 11.8 Q0.4 9.65 1.1 8.3 1.45 7.65 2.15 7.15 M12.5 36.65 L5.45 20.95 M40.2 36.7 L38.9 37.25 25.2 41.65"/><path fill="none" stroke="#ffcc00" stroke-width="0.5" stroke-opacity="0.749019607843" d="M18.5 7.45 L27.75 10.95"/><path fill="none" stroke="#f0b92b" stroke-width="1.0" stroke-opacity="0.749019607843" d="M25.8 39.4 L13.1 34.35"/><path fill="none" stroke="#432f2f" stroke-width="0.5" d="M25.2 41.65 L12.5 36.65"/></g><g id="c3"><path fill="#7fdbfe" stroke="none" d="M10.75 4.9 Q10.75 4.6 10.9 4.35 11.25 3.45 11.95 2.75 13.3 1.5 14.35 2.1 15.4 2.7 14.95 4.45 14.7 5.4 14.1 6.15 L13.75 6.5 Q13.1 7.15 12.35 7.35 L11.4 7.2 Q10.95 6.9 10.75 6.4 10.5 5.75 10.75 4.9 M7.5 5.9 Q7.0 5.85 6.6 5.5 6.05 5.0 5.8 4.15 L5.7 3.6 Q5.55 2.65 5.8 1.7 6.25 0.0 7.5 0.0 L7.6 0.0 Q8.85 0.0 9.3 1.7 9.55 2.65 9.4 3.6 L9.3 4.15 8.5 5.5 7.6 5.9 7.5 5.9 M4.35 4.9 Q4.6 5.75 4.35 6.4 L3.7 7.2 2.75 7.35 Q2.0 7.15 1.35 6.5 L1.0 6.15 Q0.4 5.4 0.15 4.45 -0.3 2.7 0.75 2.1 1.8 1.5 3.15 2.75 3.85 3.45 4.2 4.35 L4.35 4.9 M5.5 13.7 Q4.45 13.9 3.65 12.95 2.75 12.0 3.2 10.25 3.7 8.5 5.25 7.6 6.4 6.9 7.55 7.0 8.75 6.9 9.9 7.6 11.45 8.5 11.95 10.25 12.35 12.0 11.5 12.95 10.7 13.9 9.65 13.7 8.55 13.5 7.55 12.6 6.55 13.5 5.5 13.7"/></g><g id="c4"><g><use transform="matrix(1.0,0.0,0.0,1.0,0.0,0.0)" xlink:href="#c3"/></g></g><radialGradient gradientUnits="userSpaceOnUse" r="819.2" cx="0" cy="0" spreadMethod="pad" gradientTransform="matrix(0.0914459228516,0.0,0.0,0.0914459228516,0.6,3.4)" id="gradient1"><stop offset="0.0" stop-color="#ffffff"/><stop offset="1.0" stop-color="#ffffff" stop-opacity="0.0"/></radialGradient><g id="c5"><path stroke="none" fill="url(#gradient1)" d="M36.65 -54.65 Q60.05 -42.0 69.75 -17.95 80.55 8.9 68.0 34.1 55.45 59.35 26.8 68.2 -1.8 77.05 -29.7 64.3 -57.6 51.6 -68.45 24.75 -79.3 -2.05 -66.75 -27.25 L-66.7 -27.3 Q-54.1 -52.5 -25.5 -61.4 3.1 -70.2 31.0 -57.5 L36.65 -54.65"/></g><g id="c6"><g><use transform="matrix(1.0,0.0,0.0,1.0,0.0,0.0)" xlink:href="#c5"/></g></g><radialGradient gradientUnits="userSpaceOnUse" r="819.2" cx="0" cy="0" spreadMethod="pad" gradientTransform="matrix(0.209197998047,0.0,0.0,0.177108764648,67.15,107.2)" id="gradient2"><stop offset="0.356862745098" stop-color="#ffffff"/><stop offset="0.670588235294" stop-opacity="0.0"/></radialGradient><g id="c7"><path fill="none" stroke-linejoin="round" stroke-linecap="round" stroke="url(#gradient2)" stroke-width="0.5" d="M136.55 165.8 L68.6 106.0 68.4 106.0 118.25 201.5 M68.2 105.7 L68.25 105.8 68.25 105.75 68.2 105.7 0.0 45.7 M68.25 105.8 L68.3 105.85 68.3 105.8 68.25 105.75 49.95 0.05 M0.05 97.7 L68.15 105.95 68.25 105.85 68.25 105.8 M68.3 105.85 L68.25 105.85 68.3 106.0 68.3 105.85 68.3 105.8 68.35 105.8 68.3 105.8 86.6 18.35 M50.0 193.2 L68.3 106.0 68.15 105.95 18.25 151.55 M68.4 106.0 L68.3 106.0 86.55 211.5 M68.4 106.0 L68.3 105.85 M68.6 106.0 L68.35 105.8 118.25 60.15 M136.6 114.25 L68.6 106.0 M68.2 105.7 L18.25 10.05"/></g><g id="c8"><g><use transform="matrix(1.0,0.0,0.0,1.0,0.0,0.0)" xlink:href="#c7"/></g></g><g id="c9"><g><use transform="matrix(1.0,0.0,0.0,1.0,0.0,0.0)" xlink:href="#c2"/></g><g><use transform="matrix(0.238861083984,-0.0867004394531,0.10026550293,0.233917236328,34.25,31.15)" xlink:href="#c4"/></g><g><use transform="matrix(0.238861083984,-0.0867004394531,0.10026550293,0.233917236328,4.25,10.3)" xlink:href="#c4"/></g><g><use transform="matrix(0.141098022461,-0.0378112792969,0.111373901367,0.225646972656,20.25,20.65)" filter="url(#filter7)" xlink:href="#c6"/></g><g><use transform="matrix(-0.155029296875,0.0513153076172,0.0841827392578,0.147033691406,22.6,3.15)" filter="url(#filter8)" xlink:href="#c8"/></g></g><filter id="filter7"><feColorMatrix in="SourceGraphic" type="matrix" values="0.0 0.0 0.0 0.0 0.796875 0.0 0.0 0.0 0.0 0.59765625 0.0 0.0 0.0 0.0 0.19921875 0.0 0.0 0.0 1.0 0.0" result="cxform"/><feComposite operator="in" in2="SourceGraphic" result="color-xform"/></filter><filter id="filter8"><feColorMatrix in="SourceGraphic" type="matrix" values="0.0 0.0 0.0 0.0 0.99609375 0.0 0.0 0.0 0.0 0.99609375 0.0 0.0 0.0 0.0 0.99609375 0.0 0.0 0.0 1.0 0.0" result="cxform"/><feComposite operator="in" in2="SourceGraphic" result="color-xform"/></filter><linearGradient gradientUnits="userSpaceOnUse" x1="-819.2" x2="819.2" spreadMethod="pad" gradientTransform="matrix(-0.00205993652344,0.00331115722656,0.00212097167969,0.00132751464844,27.45,23.25)" id="gradient3"><stop offset="0.0" stop-color="#fcf7e7"/><stop offset="0.509803921569" stop-color="#e7dda9"/></linearGradient><g id="c10"><path fill="#eee5bd" stroke="none" d="M29.15 23.9 L30.7 23.75 Q32.95 23.75 33.75 24.5 L33.85 24.55 33.9 24.6 Q38.65 26.95 40.4 31.5 L40.45 31.6 Q41.05 32.3 40.7 33.65 L40.55 34.05 40.35 34.5 Q39.7 35.95 38.2 37.35 L38.05 37.5 36.6 38.65 Q38.15 37.15 39.55 34.75 33.65 38.2 29.2 32.25 28.8 31.5 30.4 30.1 L31.7 28.65 29.65 29.5 26.8 29.35 Q30.15 27.8 30.85 25.9 31.5 23.95 29.15 23.9"/><path fill="#bcb069" stroke="none" d="M29.15 23.9 Q31.5 23.95 30.85 25.9 30.15 27.8 26.8 29.35 L29.65 29.5 31.7 28.65 30.4 30.1 Q28.8 31.5 29.2 32.25 33.65 38.2 39.55 34.75 38.15 37.15 36.6 38.65 L36.5 38.75 34.75 39.55 34.3 39.65 Q28.5 37.05 26.15 31.85 L25.65 29.5 Q25.4 27.85 25.65 26.75 L26.2 25.9 26.25 25.85 26.7 25.4 27.1 25.0 27.3 24.85 27.35 24.8 Q28.2 24.2 29.15 23.9"/><path fill="#9e9153" stroke="none" d="M24.95 29.25 L24.95 29.0 24.95 28.8 Q25.0 27.75 25.65 26.75 25.4 27.85 25.65 29.5 L24.95 29.25"/><path fill="#e7dda9" stroke="none" d="M34.3 39.65 Q32.9 39.95 32.2 39.25 L29.35 37.35 29.05 37.05 Q27.05 35.2 25.7 32.35 L25.7 32.3 25.55 32.15 25.05 31.1 24.95 29.25 25.65 29.5 26.15 31.85 Q28.5 37.05 34.3 39.65"/><path fill="none" stroke="#000000" stroke-width="0.5" stroke-opacity="0.301960784314" d="M36.6 38.65 L38.05 37.5 38.2 37.35 Q39.7 35.95 40.35 34.5 L40.55 34.05 40.7 33.65 Q41.05 32.3 40.45 31.6 L40.4 31.5 Q38.65 26.95 33.9 24.6 L33.85 24.55 33.75 24.5 Q32.95 23.75 30.7 23.75 L29.15 23.9 M36.6 38.65 L36.5 38.75 34.75 39.55 34.3 39.65 Q32.9 39.95 32.2 39.25 L29.35 37.35 29.05 37.05 Q27.05 35.2 25.7 32.35 L25.7 32.3 25.55 32.15 25.05 31.1 24.95 29.25 M24.95 29.0 L24.95 28.8 Q25.0 27.75 25.65 26.75 L26.2 25.9 26.25 25.85 26.7 25.4 27.1 25.0 27.3 24.85 27.35 24.8 Q28.2 24.2 29.15 23.9"/><path fill="#b7aa64" stroke="none" d="M41.7 33.8 L41.55 33.5 41.45 33.3 41.1 32.8 40.75 32.4 Q40.45 32.1 40.15 32.05 L40.45 32.95 40.2 34.2 40.2 34.3 40.0 34.75 38.55 36.75 38.45 36.95 38.25 37.1 38.2 37.15 38.1 37.3 38.05 37.3 Q36.95 38.35 35.8 38.9 L35.65 38.95 34.9 39.2 33.95 39.4 33.6 39.4 33.5 39.4 Q32.95 39.35 32.6 39.0 L33.3 39.9 34.0 40.45 Q34.35 40.8 34.85 40.9 L35.45 40.9 36.35 40.7 36.5 40.65 36.7 40.6 37.25 40.4 37.25 40.35 37.65 40.15 36.9 39.85 Q41.15 37.5 41.7 33.8"/><path fill="#e6c65e" stroke="none" d="M41.6 35.75 L41.6 35.7 41.6 35.75"/><path fill="#fbf1bf" stroke="none" d="M37.65 40.15 L38.15 39.85 38.7 39.45 39.5 38.8 Q41.0 37.3 41.6 35.75 L41.6 35.7 41.65 35.6 Q42.05 34.5 41.7 33.8 41.15 37.5 36.9 39.85 L37.65 40.15"/><path fill="#405425" stroke="none" d="M38.2 37.15 L38.05 37.3 38.1 37.3 38.2 37.15"/><path fill="none" stroke="#000000" stroke-width="0.5" stroke-opacity="0.301960784314" d="M41.7 33.8 L41.55 33.5 41.45 33.3 41.1 32.8 40.75 32.4 Q40.45 32.1 40.15 32.05 L40.45 32.95 40.2 34.2 40.2 34.3 40.0 34.75 38.55 36.75 38.45 36.95 38.25 37.1 38.2 37.15 38.05 37.3 Q36.95 38.35 35.8 38.9 L35.65 38.95 34.9 39.2 33.95 39.4 33.6 39.4 33.5 39.4 Q32.95 39.35 32.6 39.0 L33.3 39.9 34.0 40.45 Q34.35 40.8 34.85 40.9 L35.45 40.9 36.35 40.7 36.5 40.65 M36.7 40.6 L37.25 40.4 37.25 40.35 37.65 40.15 38.15 39.85 38.7 39.45 39.5 38.8 Q41.0 37.3 41.6 35.75 L41.6 35.7 41.65 35.6 Q42.05 34.5 41.7 33.8"/><path fill="#b19741" stroke="none" d="M23.05 31.5 L23.95 32.4 Q24.65 27.55 26.0 27.3 24.2 25.2 23.05 31.5"/><path fill="none" stroke="#000000" stroke-width="0.5" stroke-opacity="0.301960784314" d="M23.05 31.5 Q24.2 25.2 26.0 27.3 24.65 27.55 23.95 32.4 L23.05 31.5"/><path fill="#7a7c40" stroke="none" d="M22.5 32.25 L23.15 32.75 23.95 32.65 24.45 32.0 Q24.6 31.55 24.35 31.2 L23.7 30.65 22.9 30.8 Q22.5 31.0 22.35 31.45 22.25 31.85 22.5 32.25 M23.85 30.85 Q24.15 30.9 24.25 31.15 L24.35 31.7 24.0 32.1 23.45 32.2 23.05 31.85 23.0 31.3 23.3 30.9 23.85 30.85"/><path fill="#9ca64e" stroke="none" d="M24.15 31.55 L23.9 31.6 23.75 31.45 23.75 31.25 23.85 31.1 24.05 31.05 24.25 31.2 24.25 31.4 24.15 31.55 M23.85 30.85 L23.3 30.9 23.0 31.3 23.05 31.85 23.45 32.2 24.0 32.1 24.35 31.7 24.25 31.15 Q24.15 30.9 23.85 30.85"/><path fill="#ffff6d" stroke="none" d="M24.15 31.55 L24.25 31.4 24.25 31.2 24.05 31.05 23.85 31.1 23.75 31.25 23.75 31.45 23.9 31.6 24.15 31.55"/><path fill="none" stroke="#000000" stroke-width="0.5" stroke-opacity="0.301960784314" d="M22.5 32.25 L23.15 32.75 23.95 32.65 24.45 32.0 Q24.6 31.55 24.35 31.2 L23.7 30.65 22.9 30.8 Q22.5 31.0 22.35 31.45 22.25 31.85 22.5 32.25"/><path fill="#cff3d6" stroke="none" d="M20.55 33.7 L20.45 34.9 21.95 34.55 Q22.35 35.8 23.5 37.0 L23.7 35.95 Q22.75 35.25 22.3 32.75 21.4 32.9 20.55 33.7 M24.25 34.8 L24.65 34.25 26.0 34.35 26.0 34.2 24.45 33.25 24.25 34.8"/><path fill="#ffffff" stroke="none" d="M20.55 33.7 Q21.4 32.9 22.3 32.75 22.75 35.25 23.7 35.95 23.9 35.35 24.25 34.8 L24.45 33.25 26.0 34.2 Q25.9 32.7 23.55 31.8 L21.7 32.4 Q20.8 32.8 20.55 33.7"/><path fill="none" stroke="#000000" stroke-width="0.5" stroke-opacity="0.301960784314" d="M23.7 35.95 L23.5 37.0 Q22.35 35.8 21.95 34.55 L20.45 34.9 20.55 33.7 M23.7 35.95 Q23.9 35.35 24.25 34.8 L24.65 34.25 26.0 34.35 26.0 34.2 Q25.9 32.7 23.55 31.8 L21.7 32.4 Q20.8 32.8 20.55 33.7"/><path fill="#e3f9e8" stroke="none" d="M40.4 30.55 Q40.05 30.2 39.7 30.15 L40.05 31.15 39.75 32.7 39.75 32.8 39.5 33.35 37.85 35.7 37.65 35.9 37.45 36.1 37.35 36.2 37.35 36.25 37.25 36.35 Q36.05 38.4 36.8 39.65 L37.35 39.3 37.35 39.15 Q37.05 37.4 39.45 35.1 L39.85 34.7 40.0 34.2 40.2 33.25 Q40.65 31.25 40.4 30.55 M32.4 38.8 L32.0 38.8 31.85 38.8 33.45 40.55 34.15 40.55 Q34.1 40.05 32.4 38.8"/><path fill="#ffffff" stroke="none" d="M41.4 34.45 L41.45 34.35 Q42.05 32.7 41.3 31.85 L41.2 31.65 40.8 31.05 40.4 30.55 Q40.65 31.25 40.2 33.25 L40.0 34.2 39.85 34.7 39.45 35.1 Q37.05 37.4 37.35 39.15 L37.35 39.3 37.95 38.85 38.9 38.05 Q40.7 36.35 41.4 34.55 L41.35 34.5 41.4 34.45 M31.85 38.8 Q31.2 38.7 30.8 38.3 L31.65 39.4 32.45 40.0 32.55 40.15 33.35 40.5 33.45 40.55 31.85 38.8"/><path fill="#cff3d6" stroke="none" d="M37.25 36.3 L37.2 36.3 Q35.9 37.55 34.6 38.2 L34.45 38.3 33.55 38.6 32.4 38.8 Q34.1 40.05 34.15 40.55 L35.2 40.35 35.4 40.3 35.65 40.2 36.25 39.95 36.8 39.65 Q36.05 38.4 37.25 36.35 L37.25 36.3"/><path fill="#e6c65e" stroke="none" d="M41.4 34.55 L41.4 34.45 41.35 34.5 41.4 34.55"/><path fill="#405425" stroke="none" d="M37.35 36.25 L37.25 36.3 37.25 36.35 37.35 36.25"/><path fill="none" stroke="#382510" stroke-width="0.8" stroke-opacity="0.301960784314" d="M41.4 34.45 L41.45 34.35 Q42.05 32.7 41.3 31.85 L41.2 31.65 40.8 31.05 40.4 30.55 Q40.05 30.2 39.7 30.15 L40.05 31.15 39.75 32.7 39.75 32.8 39.5 33.35 37.85 35.7 37.65 35.9 37.45 36.1 37.35 36.2 37.35 36.25 37.25 36.3 37.2 36.3 Q35.9 37.55 34.6 38.2 L34.45 38.3 33.55 38.6 32.4 38.8 32.0 38.8 31.85 38.8 Q31.2 38.7 30.8 38.3 L31.65 39.4 32.45 40.0 32.55 40.15 33.35 40.5 33.45 40.55 34.15 40.55 35.2 40.35 35.4 40.3 M35.65 40.2 L36.25 39.95 36.8 39.65 37.35 39.3 37.95 38.85 38.9 38.05 Q40.7 36.35 41.4 34.55 L41.4 34.45"/><path fill="none" stroke="#382510" stroke-width="0.5" stroke-opacity="0.152941176471" d="M41.6 34.05 Q40.7 33.65 39.55 34.8 37.15 37.05 37.45 38.85 L37.5 39.05 M41.3 31.25 Q41.55 33.5 40.2 32.85 L39.6 33.05 M34.6 37.95 Q33.95 38.45 34.1 38.6 L35.05 39.95 M35.1 39.95 L35.8 39.95"/><path fill="#e3f9e8" stroke="none" d="M24.9 27.55 L24.65 27.5 24.6 27.5 25.55 28.55 25.9 28.55 24.9 27.55 M27.7 26.15 Q27.05 27.3 27.5 28.0 L27.8 27.8 27.8 27.7 Q27.6 26.7 29.0 25.4 L29.25 25.15 29.3 24.85 29.45 24.3 Q29.7 23.1 29.55 22.75 L29.15 22.5 29.35 23.1 29.15 24.0 29.15 24.05 29.0 24.35 28.1 25.75 27.95 25.8 27.85 25.95 27.85 26.0 27.75 26.1 27.7 26.15"/><path fill="#ffffff" stroke="none" d="M25.55 28.55 L24.6 27.5 Q24.25 27.5 24.0 27.2 L24.5 27.85 24.95 28.25 25.0 28.3 25.5 28.55 25.55 28.55 M29.55 22.75 Q29.7 23.1 29.45 24.3 L29.3 24.85 29.25 25.15 29.0 25.4 Q27.6 26.7 27.8 27.7 L27.8 27.8 28.15 27.55 28.7 27.1 30.15 25.05 30.15 25.0 30.15 24.95 Q30.5 24.0 30.1 23.5 L30.05 23.35 29.8 23.0 29.55 22.75"/><path fill="#cff3d6" stroke="none" d="M24.9 27.55 L25.9 28.55 26.55 28.4 26.7 28.4 26.8 28.35 27.15 28.2 27.5 28.0 Q27.05 27.3 27.7 26.15 L26.2 27.15 26.1 27.2 25.55 27.4 24.9 27.55"/><path fill="#b3c855" stroke="none" d="M27.75 26.1 L27.7 26.1 27.7 26.15 27.75 26.1"/><path fill="#405425" stroke="none" d="M27.75 26.1 L27.85 26.0 27.75 26.1"/><path fill="none" stroke="#382510" stroke-width="0.8" stroke-opacity="0.301960784314" d="M24.6 27.5 L24.65 27.5 24.9 27.55 25.55 27.4 26.1 27.2 26.2 27.15 27.7 26.15 27.75 26.1 M25.9 28.55 L25.55 28.55 M24.6 27.5 Q24.25 27.5 24.0 27.2 L24.5 27.85 24.95 28.25 25.0 28.3 25.5 28.55 25.55 28.55 M26.7 28.4 L26.55 28.4 25.9 28.55 M27.5 28.0 L27.15 28.2 26.8 28.35 M27.85 26.0 L27.85 25.95 27.95 25.8 28.1 25.75 29.0 24.35 29.15 24.05 29.15 24.0 29.35 23.1 29.15 22.5 29.55 22.75 29.8 23.0 30.05 23.35 30.1 23.5 Q30.5 24.0 30.15 24.95 L30.15 25.0 30.15 25.05 28.7 27.1 28.15 27.55 27.8 27.8 27.5 28.0 M27.85 26.0 L27.75 26.1"/><path fill="none" stroke="#382510" stroke-width="0.5" stroke-opacity="0.152941176471" d="M30.25 24.65 Q29.7 24.4 29.05 25.1 27.65 26.4 27.85 27.4 L27.9 27.55 M30.1 23.05 Q30.2 24.3 29.45 24.0 L29.1 24.1 M26.15 26.9 L25.95 27.3 26.45 28.05 M26.5 28.1 L26.9 28.1"/><path fill="#c3b770" stroke="none" d="M21.3 25.4 Q21.65 26.2 22.85 27.05 24.2 28.0 25.0 27.8 22.9 27.05 22.2 25.8 L22.0 25.75 21.3 25.4 M28.9 24.85 L29.5 23.7 29.6 23.55 29.65 23.45 29.75 22.95 Q29.2 24.5 27.6 25.4 26.2 26.1 25.65 25.9 L25.55 25.9 25.5 25.9 Q25.0 25.65 24.9 25.45 L24.85 24.85 24.05 25.35 24.55 26.05 25.3 26.6 25.8 26.65 26.65 26.4 28.9 24.85"/><path fill="#d4ca81" stroke="none" d="M27.1 19.35 L27.05 19.3 27.0 19.3 Q26.4 18.75 25.15 19.1 23.9 19.5 22.65 20.65 21.45 21.8 20.95 23.1 L20.75 24.05 21.0 24.85 21.1 24.95 21.15 24.95 21.15 25.0 21.3 25.15 22.95 25.2 23.9 24.8 24.95 24.1 25.25 23.85 25.45 23.65 25.5 23.6 26.1 23.0 27.15 21.2 27.25 20.95 Q27.6 19.9 27.1 19.35 M22.65 21.35 L23.1 20.95 23.15 20.85 23.6 20.45 Q24.25 19.95 25.0 19.75 L26.35 19.9 26.45 19.9 26.5 19.9 Q26.8 20.35 26.6 21.2 L26.55 21.35 25.7 22.7 25.3 23.15 25.25 23.25 24.95 23.5 24.05 24.1 Q23.65 24.35 23.3 24.4 22.45 24.7 22.05 24.4 L21.9 24.25 21.85 24.25 21.8 24.15 Q21.55 23.9 21.6 23.55 L21.75 22.8 Q22.0 22.05 22.65 21.35"/><path fill="#9e9153" stroke="none" d="M22.65 21.35 Q22.0 22.05 21.75 22.8 L21.6 23.55 Q21.55 23.9 21.8 24.15 L21.85 24.25 21.9 24.25 22.05 24.4 Q22.45 24.7 23.3 24.4 23.65 24.35 24.05 24.1 L24.95 23.5 25.25 23.25 25.3 23.15 25.7 22.7 26.55 21.35 26.6 21.2 Q26.8 20.35 26.5 19.9 L26.45 19.9 26.35 19.9 25.0 19.75 Q24.25 19.95 23.6 20.45 L23.15 20.85 23.1 20.95 22.65 21.35"/><path fill="#fbf6e3" stroke="none" d="M21.3 25.4 L22.0 25.75 22.2 25.8 Q23.45 25.8 24.05 25.3 L24.05 25.35 24.85 24.85 Q26.3 23.75 26.95 22.4 L27.0 22.3 27.05 22.3 27.1 22.25 27.65 20.15 27.4 19.5 27.1 19.35 Q27.6 19.9 27.25 20.95 L27.15 21.2 26.1 23.0 25.5 23.6 25.45 23.65 25.25 23.85 24.95 24.1 23.9 24.8 22.95 25.2 21.3 25.15 21.15 25.0 21.3 25.4"/><path stroke="none" fill="url(#gradient3)" d="M29.75 22.95 L29.7 22.95 Q29.8 22.35 29.5 21.95 L29.45 21.85 Q29.0 20.25 27.4 19.5 L27.65 20.15 27.1 22.25 27.05 22.3 27.0 22.3 26.95 22.4 Q26.3 23.75 24.85 24.85 L24.9 25.45 Q25.0 25.65 25.5 25.9 L25.55 25.9 25.65 25.9 Q26.2 26.1 27.6 25.4 29.2 24.5 29.75 22.95"/><path fill="#b4a761" stroke="none" d="M22.2 25.8 Q22.9 27.05 25.0 27.8 L25.3 27.7 26.3 27.3 27.4 26.5 27.85 26.15 28.9 24.85 26.65 26.4 25.8 26.65 25.3 26.6 24.55 26.05 24.05 25.35 24.05 25.3 Q23.45 25.8 22.2 25.8"/><path fill="none" stroke="#000000" stroke-width="0.5" stroke-opacity="0.301960784314" d="M25.0 27.8 Q24.2 28.0 22.85 27.05 21.65 26.2 21.3 25.4 M25.0 27.8 L25.3 27.7 26.3 27.3 27.4 26.5 27.85 26.15 28.9 24.85 29.5 23.7 29.6 23.55 29.65 23.45 29.75 22.95 M29.7 22.95 Q29.8 22.35 29.5 21.95 L29.45 21.85 Q29.0 20.25 27.4 19.5 L27.1 19.35 27.05 19.3 27.0 19.3 Q26.4 18.75 25.15 19.1 23.9 19.5 22.65 20.65 21.45 21.8 20.95 23.1 L20.75 24.05 21.0 24.85 21.1 24.95 21.15 24.95 21.15 25.0 21.3 25.4"/><path fill="none" stroke="#000000" stroke-width="0.5" stroke-opacity="0.301960784314" d="M22.65 21.35 Q22.0 22.05 21.75 22.8 L21.6 23.55 Q21.55 23.9 21.8 24.15 L21.85 24.25 21.9 24.25 22.05 24.4 Q22.45 24.7 23.3 24.4 23.65 24.35 24.05 24.1 L24.95 23.5 25.25 23.25 25.3 23.15 25.7 22.7 26.55 21.35 26.6 21.2 Q26.8 20.35 26.5 19.9 L26.45 19.9 26.35 19.9 25.0 19.75 Q24.25 19.95 23.6 20.45 L23.15 20.85 23.1 20.95 22.65 21.35"/><path fill="#382510" fill-opacity="0.301960784314" d="M22.1 25.25 Q23.05 25.2 24.0 24.5 25.0 23.8 25.35 22.95 25.75 22.1 25.4 21.55 25.0 21.0 24.05 21.1 L22.15 21.55 Q21.2 21.9 20.8 23.05 20.4 24.2 20.75 24.8 21.15 25.35 22.1 25.25"/><path fill="#fcf3d8" fill-opacity="0.301960784314" d="M32.85 26.15 L32.8 25.75 Q32.9 25.55 33.15 25.5 L33.7 25.6 34.05 25.9 34.1 26.25 33.75 26.55 33.25 26.5 32.85 26.15 M32.1 25.5 Q32.0 25.9 32.2 26.35 L33.05 27.0 33.7 27.15 Q34.3 27.4 34.7 28.0 34.25 27.3 34.45 27.0 L34.75 26.6 Q34.95 26.25 34.65 25.85 L33.9 25.2 33.85 25.15 33.75 24.7 33.45 25.0 32.8 25.0 Q32.45 25.1 32.3 25.3 L31.2 24.95 32.1 25.5"/><path fill="#fcf3d8" stroke="none" d="M32.85 26.15 L33.25 26.5 33.75 26.55 34.1 26.25 34.05 25.9 33.7 25.6 33.15 25.5 Q32.9 25.55 32.8 25.75 L32.85 26.15"/><path fill="#fcf3d8" fill-opacity="0.301960784314" d="M27.15 20.75 L27.5 20.95 27.7 21.3 27.5 21.75 27.15 21.9 Q26.9 21.9 26.75 21.75 26.55 21.6 26.6 21.35 26.6 21.1 26.75 20.95 L27.15 20.75 M28.0 20.15 L27.65 20.4 27.1 20.25 Q26.75 20.25 26.55 20.4 L25.8 19.9 26.3 20.6 Q25.95 20.95 25.95 21.4 25.95 21.85 26.25 22.15 L26.75 22.45 Q27.1 22.8 27.15 23.5 27.15 22.7 27.45 22.45 L27.85 22.15 28.2 21.4 27.9 20.6 27.85 20.6 28.0 20.15"/><path fill="#fcf3d8" stroke="none" d="M27.15 20.75 L26.75 20.95 Q26.6 21.1 26.6 21.35 26.55 21.6 26.75 21.75 26.9 21.9 27.15 21.9 L27.5 21.75 27.7 21.3 27.5 20.95 27.15 20.75"/><path fill="#ffffff" stroke="none" d="M20.8 19.4 Q20.2 20.0 20.0 20.7 L19.9 21.0 19.85 21.05 19.85 21.1 19.85 21.15 19.85 21.3 20.0 21.8 20.05 21.85 20.1 21.9 20.2 22.0 21.25 22.05 21.9 21.75 22.85 21.05 23.75 19.9 23.9 19.5 24.05 18.8 22.85 19.0 23.9 18.4 23.85 18.35 23.85 18.3 23.8 18.25 22.85 18.1 22.75 18.15 22.65 18.15 21.35 18.9 Q21.8 19.55 21.05 19.6 L20.8 19.4 M25.9 22.4 L26.05 22.15 26.25 21.7 26.4 20.85 24.2 18.4 Q24.5 18.8 24.2 19.6 L24.0 20.0 23.75 20.45 23.75 20.5 23.95 20.25 25.9 22.4 M25.55 20.5 L25.7 20.5 25.7 20.65 25.5 20.65 25.5 20.5 25.55 20.5 M25.6 21.4 L25.45 21.35 25.4 21.1 25.55 21.05 25.6 20.95 25.75 21.0 25.75 21.35 25.6 21.4 M24.75 20.45 L24.95 20.3 Q25.15 20.25 25.3 20.5 L25.3 20.65 25.2 20.85 25.0 20.95 24.75 20.85 Q24.55 20.65 24.75 20.45 M22.15 20.45 L22.45 20.25 22.7 20.2 22.95 20.2 22.65 20.65 22.2 21.0 21.85 21.1 21.9 20.85 22.15 20.45 M20.8 20.2 L20.85 20.15 20.95 20.15 21.0 20.15 20.95 20.25 20.75 20.35 20.7 20.25 20.8 20.2 M20.8 20.85 L20.7 21.0 20.45 21.15 20.35 21.15 20.3 20.95 20.4 20.75 20.6 20.65 20.75 20.65 20.8 20.85 M21.35 20.7 L21.05 20.8 21.2 20.55 21.25 20.5 21.45 20.5 21.5 20.55 21.35 20.7 M21.35 21.2 L21.15 21.6 20.75 21.85 20.55 21.8 Q20.45 21.7 20.7 21.45 L21.1 21.25 21.3 21.15 21.35 21.2"/><path fill="#e6c497" stroke="none" d="M19.85 21.3 L19.85 21.15 19.8 21.3 19.85 21.3"/><path fill="#cff3d6" stroke="none" d="M22.85 18.1 L23.8 18.25 23.85 18.3 23.85 18.35 23.9 18.4 22.85 19.0 24.05 18.8 23.9 19.5 23.75 19.9 22.85 21.05 21.9 21.75 21.25 22.05 20.2 22.0 20.1 21.9 20.05 21.85 20.0 21.8 19.85 21.3 19.8 21.3 19.8 21.5 Q19.8 21.85 19.95 22.05 L20.0 22.15 20.05 22.2 20.15 22.3 20.2 22.3 21.55 23.55 22.3 24.3 22.25 24.1 22.3 24.05 22.4 23.95 22.85 23.8 23.1 23.9 Q23.3 24.1 23.1 24.3 L22.7 24.45 22.4 24.4 22.5 24.55 23.3 24.45 24.0 24.15 24.2 24.05 22.0 22.0 23.0 21.25 23.75 20.45 24.0 20.0 24.2 19.6 Q24.5 18.8 24.2 18.4 L24.15 18.35 24.15 18.3 24.1 18.25 24.1 18.2 22.85 18.1 M21.45 22.9 L21.75 23.05 Q21.85 23.05 21.95 23.2 L21.95 23.25 22.05 23.35 22.1 23.5 22.05 23.55 21.6 23.4 21.35 23.1 21.25 22.9 21.45 22.9 M21.75 22.65 L21.8 22.6 21.9 22.65 21.95 22.85 21.7 22.85 21.75 22.65 M22.35 23.15 L22.2 23.1 22.2 22.9 22.3 22.75 22.45 22.7 22.5 22.7 22.6 22.7 22.7 22.7 22.75 22.8 22.6 23.05 22.35 23.15 M22.75 23.55 L22.6 23.6 22.45 23.6 22.45 23.5 22.5 23.45 22.5 23.4 22.55 23.4 22.7 23.4 22.8 23.5 22.75 23.55"/><path fill="#e3f9e8" stroke="none" d="M20.8 19.4 L21.05 19.6 Q21.8 19.55 21.35 18.9 L21.2 19.25 20.8 19.4 M24.2 24.05 L25.05 23.35 25.8 22.55 25.9 22.4 23.95 20.25 23.75 20.5 23.7 20.55 23.75 20.45 23.0 21.25 22.0 22.0 24.2 24.05 M25.6 21.4 L25.75 21.35 25.75 21.0 25.6 20.95 25.55 21.05 25.4 21.1 25.45 21.35 25.6 21.4 M25.55 20.5 L25.5 20.5 25.5 20.65 25.7 20.65 25.7 20.5 25.55 20.5 M24.75 20.45 Q24.55 20.65 24.75 20.85 L25.0 20.95 25.2 20.85 25.3 20.65 25.3 20.5 Q25.15 20.25 24.95 20.3 L24.75 20.45 M21.35 21.2 L21.3 21.15 21.1 21.25 20.7 21.45 Q20.45 21.7 20.55 21.8 L20.75 21.85 21.15 21.6 21.35 21.2 M21.35 20.7 L21.5 20.55 21.45 20.5 21.25 20.5 21.2 20.55 21.05 20.8 21.35 20.7 M20.8 20.85 L20.75 20.65 20.6 20.65 20.4 20.75 20.3 20.95 20.35 21.15 20.45 21.15 20.7 21.0 20.8 20.85 M20.8 20.2 L20.7 20.25 20.75 20.35 20.95 20.25 21.0 20.15 20.95 20.15 20.85 20.15 20.8 20.2 M22.15 20.45 L21.9 20.85 21.85 21.1 22.2 21.0 22.65 20.65 22.95 20.2 22.7 20.2 22.45 20.25 22.15 20.45"/><path fill="#d9e43b" stroke="none" d="M23.75 20.5 L23.75 20.45 23.7 20.55 23.75 20.5"/><path fill="#806c53" stroke="none" d="M20.15 22.3 L20.2 22.3 20.15 22.3"/><path fill="#acecb9" stroke="none" d="M22.3 24.3 L22.3 24.35 22.4 24.4 22.7 24.45 23.1 24.3 Q23.3 24.1 23.1 23.9 L22.85 23.8 22.4 23.95 22.3 24.05 22.25 24.1 22.3 24.3 M22.75 23.55 L22.8 23.5 22.7 23.4 22.55 23.4 22.5 23.4 22.5 23.45 22.45 23.5 22.45 23.6 22.6 23.6 22.75 23.55 M22.35 23.15 L22.6 23.05 22.75 22.8 22.7 22.7 22.6 22.7 22.5 22.7 22.45 22.7 22.3 22.75 22.2 22.9 22.2 23.1 22.35 23.15 M21.75 22.65 L21.7 22.85 21.95 22.85 21.9 22.65 21.8 22.6 21.75 22.65 M21.45 22.9 L21.25 22.9 21.35 23.1 21.6 23.4 22.05 23.55 22.1 23.5 22.05 23.35 21.95 23.25 21.95 23.2 Q21.85 23.05 21.75 23.05 L21.45 22.9"/><path fill="none" stroke="#000000" stroke-width="0.5" stroke-opacity="0.301960784314" d="M19.85 21.15 L19.85 21.1 19.85 21.05 19.9 21.0 20.0 20.7 Q20.2 20.0 20.8 19.4 L21.2 19.25 21.35 18.9 22.65 18.15 22.75 18.15 22.85 18.1 M19.85 21.15 L19.8 21.3 19.8 21.5 Q19.8 21.85 19.95 22.05 L20.0 22.15 20.05 22.2 20.15 22.3 20.2 22.3 21.55 23.55 22.3 24.3 M22.4 24.4 L22.5 24.55 M26.4 20.85 L24.2 18.4 24.15 18.35 24.15 18.3 24.1 18.25 24.1 18.2 22.85 18.1"/></g><g id="c11"><g><use transform="matrix(1.0,0.0,0.0,1.0,0.0,0.0)" xlink:href="#c5"/></g></g><g id="c12"><path fill="#000000" fill-opacity="0.2" d="M30.6 27.0 Q29.15 28.0 28.75 29.7 28.35 31.65 29.5 33.4 30.7 35.1 32.8 35.65 L36.2 35.45 36.65 35.2 Q38.15 34.35 38.7 32.85 L38.85 32.25 Q39.1 30.95 38.65 30.05 L37.85 29.7 38.55 29.7 38.05 28.6 Q36.9 26.85 34.8 26.3 32.75 25.8 30.95 26.8 L30.6 27.0"/><path fill="#f9f7f4" stroke="none" d="M38.85 32.5 L39.05 31.9 Q39.25 30.85 39.0 29.9 L38.0 29.75 38.8 29.2 38.25 28.25 Q37.3 26.85 35.8 26.2 L35.2 26.35 33.9 25.8 33.9 26.3 33.2 25.8 Q32.1 25.9 31.15 26.4 L30.8 26.65 Q31.35 28.75 33.0 30.55 35.6 33.55 38.85 32.5"/><path fill="#ece7df" stroke="none" d="M30.8 26.65 Q29.35 27.6 28.95 29.35 28.55 31.3 29.7 33.0 30.9 34.75 33.0 35.3 L36.4 35.05 36.85 34.8 Q38.3 34.0 38.85 32.5 35.6 33.55 33.0 30.55 31.35 28.75 30.8 26.65"/><path fill="none" stroke="#000000" stroke-width="0.5" stroke-opacity="0.101960784314" d="M38.85 32.5 L39.05 31.9 Q39.25 30.85 39.0 29.9 L38.0 29.75 38.8 29.2 38.25 28.25 Q37.3 26.85 35.8 26.2 L35.2 26.35 33.9 25.8 33.9 26.3 33.2 25.8 Q32.1 25.9 31.15 26.4 L30.8 26.65 Q29.35 27.6 28.95 29.35 28.55 31.3 29.7 33.0 30.9 34.75 33.0 35.3 L36.4 35.05 36.85 34.8 Q38.3 34.0 38.85 32.5"/><path fill="#8a980a" stroke="none" d="M34.7 30.65 Q34.05 29.75 33.8 28.75 L33.65 28.75 Q34.05 30.1 34.7 30.9 L35.15 31.15 35.05 31.35 35.1 31.4 35.15 31.4 35.25 31.25 35.9 31.5 36.1 31.7 36.0 31.35 35.05 31.0 34.7 30.75 34.7 30.65"/><path fill="#cce00e" stroke="none" d="M36.0 31.35 L35.95 31.3 34.8 30.75 34.7 30.65 34.7 30.75 35.05 31.0 36.0 31.35"/><path fill="#cce00e" stroke="none" d="M35.85 30.9 L36.6 32.85 36.8 32.9 35.9 30.75 35.85 30.9"/><path fill="#8a980a" stroke="none" d="M36.6 32.85 L35.85 30.9 35.85 31.0 36.5 32.8 36.6 32.85"/><path fill="#c7d914" stroke="none" d="M34.7 31.45 L35.65 32.1 37.25 33.2 37.25 33.1 35.65 31.95 34.5 31.0 34.7 31.45 M35.65 32.2 L34.55 31.5 34.45 31.45 34.2 31.6 35.65 32.2 M34.0 31.2 L32.9 30.9 32.6 31.2 32.85 31.25 33.45 31.35 34.0 31.2 M34.1 31.15 L34.3 31.25 34.0 30.7 33.8 30.55 34.1 31.15"/><path fill="#8a980a" stroke="none" d="M37.25 33.2 L35.65 32.1 34.7 31.45 34.3 31.25 34.1 31.15 34.0 31.1 33.7 31.0 32.85 30.85 32.35 30.9 32.9 30.9 34.0 31.2 34.45 31.45 34.55 31.5 35.65 32.2 35.75 32.25 37.3 33.45 37.25 33.2"/><path fill="#e3f06c" stroke="none" d="M34.7 31.45 L34.5 31.0 34.0 30.7 34.3 31.25 34.7 31.45 M32.9 30.9 L32.35 30.9 32.85 30.85 32.6 30.6 31.7 31.1 32.6 31.2 32.9 30.9 M33.7 31.0 L34.0 31.1 34.1 31.15 33.8 30.55 33.75 30.55 33.55 30.5 33.7 31.0"/><path fill="#d8ea2f" stroke="none" d="M34.45 31.45 L34.0 31.2 33.45 31.35 34.2 31.6 34.45 31.45 M32.85 30.85 L33.7 31.0 33.55 30.5 32.95 30.5 32.6 30.6 32.85 30.85"/><path fill="#ffffff" stroke="none" d="M33.5 30.3 L33.3 30.25 32.6 29.7 32.6 29.5 32.8 29.3 33.0 29.15 32.5 28.6 32.45 28.5 32.5 28.4 32.6 28.3 32.3 28.35 Q31.95 28.45 31.85 28.85 31.7 29.2 32.1 29.6 32.1 30.1 32.5 30.3 L33.25 30.45 33.5 30.3"/><path fill="#e3f9e8" stroke="none" d="M32.6 28.3 L32.5 28.4 32.45 28.5 32.5 28.6 33.0 29.15 32.8 29.3 32.6 29.5 32.6 29.7 33.3 30.25 33.5 30.3 33.7 29.95 Q33.85 29.55 33.65 29.15 L33.05 28.45 32.6 28.3"/><path fill="none" stroke="#000000" stroke-width="0.5" stroke-opacity="0.301960784314" d="M33.5 30.3 L33.25 30.45 32.5 30.3 Q32.1 30.1 32.1 29.6 31.7 29.2 31.85 28.85 31.95 28.45 32.3 28.35 L32.6 28.3 33.05 28.45 33.65 29.15 Q33.85 29.55 33.7 29.95 L33.5 30.3"/><path fill="#62a001" stroke="none" d="M33.35 28.75 L33.2 28.85 33.1 28.9 32.85 29.1 33.3 29.1 33.4 29.1 33.7 29.05 33.75 29.0 33.8 28.9 33.55 28.75 33.35 28.75"/><path fill="#8eec02" stroke="none" d="M33.7 29.05 L33.4 29.1 33.3 29.1 32.85 29.1 33.1 28.9 33.2 28.85 33.35 28.75 33.25 28.7 32.8 28.95 Q32.6 29.05 32.5 29.2 L32.15 29.6 32.55 29.4 33.1 29.35 33.6 29.2 33.7 29.1 33.7 29.05"/><path fill="none" stroke="#000000" stroke-width="0.5" stroke-opacity="0.301960784314" d="M33.35 28.75 L33.55 28.75 33.8 28.9 33.75 29.0 33.7 29.05 33.7 29.1 33.6 29.2 33.1 29.35 32.55 29.4 32.15 29.6 32.5 29.2 Q32.6 29.05 32.8 28.95 L33.25 28.7 33.35 28.75"/><path fill="#e3f9e8" stroke="none" d="M33.25 27.3 L33.2 27.6 33.1 27.6 32.95 27.6 32.85 27.6 33.2 27.95 33.6 28.35 33.35 27.95 33.35 27.7 33.25 27.3 M32.7 27.6 L32.7 27.7 32.6 27.8 32.35 27.8 31.9 27.55 32.05 27.75 32.6 28.15 32.9 28.2 33.3 28.55 33.35 28.55 33.0 28.05 32.95 28.05 32.7 27.6"/><path fill="#ffffff" stroke="none" d="M33.25 27.3 L33.15 27.15 32.65 26.85 32.15 26.95 31.85 27.25 31.9 27.55 32.35 27.8 32.6 27.8 32.7 27.7 32.7 27.6 32.3 27.15 32.85 27.6 32.95 27.6 33.1 27.6 33.2 27.6 33.25 27.3"/><path fill="#62a001" stroke="none" d="M33.5 28.65 L33.65 28.85 33.8 29.0 33.7 28.6 33.65 28.45 33.45 28.3 33.4 28.2 33.1 27.9 33.1 27.95 33.3 28.3 33.35 28.4 33.5 28.65"/><path fill="#8eec02" stroke="none" d="M32.85 27.6 L32.3 27.15 32.7 27.6 32.95 28.05 33.0 28.05 33.35 28.55 33.5 28.65 33.35 28.4 33.3 28.3 33.1 27.95 33.1 27.9 33.4 28.2 33.45 28.3 33.65 28.45 33.6 28.35 33.2 27.95 32.85 27.6"/><path fill="none" stroke="#000000" stroke-width="0.5" stroke-opacity="0.301960784314" d="M31.9 27.55 L31.85 27.25 32.15 26.95 32.65 26.85 33.15 27.15 33.25 27.3 M31.9 27.55 L32.05 27.75 32.6 28.15 32.9 28.2 33.3 28.55 33.35 28.55 33.5 28.65 33.65 28.85 33.8 29.0 33.7 28.6 33.65 28.45 33.6 28.35 33.35 27.95 33.35 27.7 33.25 27.3"/><path fill="#ffffff" stroke="none" d="M34.0 27.6 L34.15 27.6 34.25 27.6 34.3 27.65 34.45 28.2 34.7 28.15 35.0 28.05 35.2 28.15 Q35.4 28.35 35.25 28.8 L35.2 29.0 35.45 28.85 35.8 28.25 Q35.8 27.9 35.4 27.7 35.3 27.3 34.9 27.25 L34.2 27.4 34.0 27.6"/><path fill="#e3f9e8" stroke="none" d="M35.2 29.0 L35.25 28.8 Q35.4 28.35 35.2 28.15 L35.0 28.05 34.7 28.15 34.45 28.2 34.3 27.65 34.25 27.6 34.15 27.6 34.0 27.6 33.85 28.0 34.1 28.7 Q34.35 29.0 34.75 29.05 L35.2 29.0"/><path fill="none" stroke="#000000" stroke-width="0.5" stroke-opacity="0.301960784314" d="M35.2 29.0 L34.75 29.05 Q34.35 29.0 34.1 28.7 L33.85 28.0 34.0 27.6 34.2 27.4 34.9 27.25 Q35.3 27.3 35.4 27.7 35.8 27.9 35.8 28.25 L35.45 28.85 35.2 29.0"/><path fill="#8eec02" stroke="none" d="M34.0 28.9 L34.15 28.9 34.55 28.5 34.85 28.05 35.25 27.8 34.7 27.9 34.35 28.05 33.95 28.3 33.9 28.4 34.1 28.35 34.15 28.3 34.45 28.15 34.45 28.2 34.25 28.55 34.15 28.65 34.0 28.9"/><path fill="#62a001" stroke="none" d="M33.9 28.4 L33.85 28.6 33.85 28.85 Q33.85 28.95 33.95 28.9 L34.0 28.9 34.15 28.65 34.25 28.55 34.45 28.2 34.45 28.15 34.15 28.3 34.1 28.35 33.9 28.4"/><path fill="none" stroke="#000000" stroke-width="0.5" stroke-opacity="0.301960784314" d="M34.0 28.9 L34.15 28.9 34.55 28.5 34.85 28.05 35.25 27.8 34.7 27.9 34.35 28.05 33.95 28.3 33.9 28.4 33.85 28.6 33.85 28.85 Q33.85 28.95 33.95 28.9 L34.0 28.9"/><path fill="#e3f9e8" stroke="none" d="M35.0 28.95 L34.6 28.9 Q34.3 28.95 34.05 29.25 33.8 29.5 33.8 29.9 L33.9 30.25 34.1 30.3 34.7 30.05 34.7 29.9 34.6 29.65 34.55 29.45 35.0 29.2 35.1 29.15 35.05 29.05 35.0 28.95"/><path fill="#ffffff" stroke="none" d="M35.0 28.95 L35.05 29.05 35.1 29.15 35.0 29.2 34.55 29.45 34.6 29.65 34.7 29.9 34.7 30.05 34.1 30.3 33.9 30.25 34.05 30.45 34.65 30.65 35.1 30.2 35.45 29.65 35.2 29.05 35.0 28.95"/><path fill="none" stroke="#000000" stroke-width="0.5" stroke-opacity="0.301960784314" d="M33.9 30.25 L33.8 29.9 Q33.8 29.5 34.05 29.25 34.3 28.95 34.6 28.9 L35.0 28.95 M33.9 30.25 L34.05 30.45 34.65 30.65 35.1 30.2 35.45 29.65 35.2 29.05 35.0 28.95"/><path fill="#62a001" stroke="none" d="M34.35 28.9 L34.1 28.85 33.85 28.85 33.85 28.95 33.85 29.05 34.15 29.2 34.25 29.3 34.7 29.5 34.75 29.5 34.5 29.2 34.45 29.1 34.35 28.9"/><path fill="#8eec02" stroke="none" d="M33.85 29.05 L33.9 29.2 34.35 29.65 34.4 29.65 34.9 29.95 35.25 30.35 35.05 29.75 34.8 29.4 34.45 28.95 34.35 28.9 34.45 29.1 34.5 29.2 34.75 29.5 34.7 29.5 34.25 29.3 34.15 29.2 33.85 29.05"/><path fill="none" stroke="#000000" stroke-width="0.5" stroke-opacity="0.301960784314" d="M34.35 28.9 L34.1 28.85 33.85 28.85 33.85 28.95 33.85 29.05 33.9 29.2 34.35 29.65 34.4 29.65 34.9 29.95 35.25 30.35 35.05 29.75 34.8 29.4 34.45 28.95 34.35 28.9"/><path fill="#8eec02" stroke="none" d="M33.9 28.55 L33.95 28.5 33.9 28.1 33.75 27.75 33.8 27.45 33.6 27.75 33.5 28.0 33.45 28.35 33.5 28.4 33.55 28.25 33.55 28.2 33.6 28.0 33.65 28.0 33.75 28.3 33.8 28.35 33.85 28.55 33.9 28.55"/><path fill="#62a001" stroke="none" d="M33.5 28.4 L33.6 28.5 33.75 28.65 33.85 28.6 33.85 28.55 33.8 28.35 33.75 28.3 33.65 28.0 33.6 28.0 33.55 28.2 33.55 28.25 33.5 28.4"/><path fill="#a30153" stroke="none" d="M33.85 28.55 L33.9 28.55 33.85 28.55"/><path fill="none" stroke="#000000" stroke-width="0.5" stroke-opacity="0.301960784314" d="M33.9 28.55 L33.95 28.5 33.9 28.1 33.75 27.75 33.8 27.45 33.6 27.75 33.5 28.0 33.45 28.35 33.5 28.4 33.6 28.5 33.75 28.65 33.85 28.6 33.85 28.55 33.9 28.55"/><path fill="#2e5a48" stroke="none" d="M33.5 28.8 L33.3 29.0 33.8 28.95 34.15 29.15 33.9 28.8 34.0 28.45 33.7 28.6 33.35 28.25 33.5 28.8"/><path fill="#62a001" stroke="none" d="M34.8 31.0 L34.75 31.05 34.7 31.1 34.6 31.25 34.75 31.15 34.8 31.1 34.9 31.0 34.85 30.95 34.8 31.0"/><path fill="#8eec02" stroke="none" d="M34.9 31.0 L34.8 31.1 34.75 31.15 34.6 31.25 34.7 31.1 34.75 31.05 34.8 31.0 34.6 31.2 34.45 31.4 34.2 31.65 34.4 31.45 34.6 31.3 34.85 31.1 34.9 31.05 34.9 31.0"/><path fill="#e3f9e8" stroke="none" d="M34.85 31.1 L34.6 31.3 34.4 31.45 34.45 31.45 34.45 31.5 34.5 31.5 34.45 31.6 34.3 31.85 34.4 31.75 34.6 31.45 34.65 31.35 34.85 31.1 M34.45 31.4 L34.6 31.2 34.8 31.0 34.6 31.15 34.55 31.15 34.35 31.25 34.45 31.25 34.45 31.35 34.45 31.4"/><path fill="#e3b5d6" stroke="none" d="M34.8 31.0 L34.85 30.95 34.8 31.0"/><path fill="#ffffff" stroke="none" d="M34.4 31.45 L34.2 31.65 34.45 31.4 34.45 31.35 34.45 31.25 34.35 31.25 34.3 31.3 34.15 31.55 34.1 31.75 34.2 31.85 34.3 31.85 34.45 31.6 34.5 31.5 34.45 31.5 34.45 31.45 34.4 31.45"/><path fill="none" stroke="#000000" stroke-width="0.5" stroke-opacity="0.301960784314" d="M34.9 31.0 L34.9 31.05 34.85 31.1 34.65 31.35 34.6 31.45 34.4 31.75 34.3 31.85 M34.35 31.25 L34.55 31.15 34.6 31.15 34.8 31.0 34.85 30.95 M34.35 31.25 L34.3 31.3 34.15 31.55 34.1 31.75 34.2 31.85 34.3 31.85"/><path fill="#62a001" stroke="none" d="M35.15 31.35 L35.05 31.35 35.0 31.45 34.95 31.5 34.8 31.65 34.85 31.65 35.0 31.55 35.0 31.5 35.15 31.35"/><path fill="#8eec02" stroke="none" d="M35.15 31.4 L35.15 31.35 35.0 31.5 35.0 31.55 34.85 31.65 34.8 31.65 34.95 31.5 35.0 31.45 35.05 31.35 34.85 31.6 34.7 31.8 34.5 32.15 34.65 31.9 34.85 31.75 34.85 31.7 35.05 31.5 35.1 31.5 35.15 31.4"/><path fill="#ebf3f3" stroke="none" d="M35.05 31.5 L35.1 31.5 35.05 31.5"/><path fill="#e3f9e8" stroke="none" d="M35.05 31.35 L34.85 31.5 34.75 31.55 34.6 31.65 34.7 31.65 34.7 31.7 34.7 31.75 34.7 31.8 34.85 31.6 35.05 31.35 M34.6 32.3 L34.65 32.25 34.85 31.9 34.9 31.75 35.1 31.5 35.05 31.5 34.85 31.7 34.85 31.75 34.65 31.9 34.7 31.9 34.75 31.95 34.7 32.05 34.6 32.3"/><path fill="#ffffff" stroke="none" d="M34.6 31.65 L34.55 31.7 Q34.4 31.85 34.4 31.95 L34.4 32.25 34.5 32.35 34.6 32.3 34.7 32.05 34.75 31.95 34.7 31.9 34.65 31.9 34.5 32.15 34.7 31.8 34.7 31.75 34.7 31.7 34.7 31.65 34.6 31.65"/><path fill="none" stroke="#000000" stroke-width="0.5" stroke-opacity="0.301960784314" d="M35.05 31.35 L34.85 31.5 34.75 31.55 34.6 31.65 34.55 31.7 Q34.4 31.85 34.4 31.95 L34.4 32.25 34.5 32.35 34.6 32.3 34.65 32.25 34.85 31.9 34.9 31.75 35.1 31.5 35.15 31.4"/><path fill="#8eec02" stroke="none" d="M35.65 31.35 L35.65 31.3 35.55 31.45 35.4 31.55 35.5 31.45 35.5 31.4 35.55 31.3 35.4 31.55 35.3 31.7 35.2 32.0 35.3 31.8 35.45 31.65 35.6 31.45 35.6 31.4 35.65 31.35"/><path fill="#62a001" stroke="none" d="M35.65 31.3 L35.55 31.3 35.5 31.4 35.5 31.45 35.4 31.55 35.55 31.45 35.65 31.3"/><path fill="#e3f9e8" stroke="none" d="M35.55 31.3 L35.4 31.45 35.3 31.45 35.2 31.55 35.3 31.55 35.3 31.6 35.3 31.65 35.3 31.7 35.4 31.55 35.55 31.3 M35.35 32.15 L35.4 32.1 35.5 31.8 35.5 31.65 35.6 31.45 35.45 31.65 35.3 31.8 35.35 31.75 35.4 31.8 35.4 31.85 35.4 31.95 35.35 32.15"/><path fill="#ffffff" stroke="none" d="M35.2 31.55 L35.15 31.6 35.1 31.85 35.15 32.05 35.25 32.2 35.35 32.15 35.4 31.95 35.4 31.85 35.4 31.8 35.35 31.75 35.3 31.8 35.2 32.0 35.3 31.7 35.3 31.65 35.3 31.6 35.3 31.55 35.2 31.55"/><path fill="none" stroke="#000000" stroke-width="0.5" stroke-opacity="0.301960784314" d="M35.55 31.3 L35.4 31.45 35.3 31.45 35.2 31.55 35.15 31.6 35.1 31.85 35.15 32.05 35.25 32.2 35.35 32.15 35.4 32.1 35.5 31.8 35.5 31.65 35.6 31.45 35.6 31.4 35.65 31.35"/></g><filter id="filter15"><feColorMatrix in="SourceGraphic" type="matrix" values="1.0 0.0 0.0 0.0 0.0 0.0 1.0 0.0 0.0 0.0 0.0 0.0 1.0 0.0 0.0 0.0 0.0 0.0 0.23046875 0.0" result="cxform"/><feComposite operator="in" in2="SourceGraphic" result="color-xform"/></filter></defs><g><g><use transform="matrix(1.0,0.0,0.0,1.0,0.0,0.0)" xlink:href="#c1"/></g><g><use transform="matrix(1.15496826172,0.0,0.0,1.15496826172,5.85,4.8)" xlink:href="#c9"/></g><g><use transform="matrix(1.0,0.0,0.0,1.0,0.0,0.0)" xlink:href="#c10"/></g><g><use transform="matrix(-0.0691223144531,-0.040283203125,0.0,0.0691223144531,34.15,28.9)" xlink:href="#c11"/></g><g><use transform="matrix(1.0,0.0,0.0,1.0,0.0,0.0)" xlink:href="#c12"/></g><g><use transform="matrix(0.162948608398,-0.0436706542969,0.128631591797,0.260604858398,30.0,28.7)" filter="url(#filter15)" xlink:href="#c6"/></g></g></svg>