<?xml version='1.0' encoding='UTF-8'?>
<svg xmlns:xlink="http://www.w3.org/1999/xlink" xmlns="http://www.w3.org/2000/svg" version="1.1" width="60px" height="60px" viewBox="0.0 0.0 60.0 60.0"><defs><g id="c1"><path fill="#000000" fill-opacity="0.00392156862745" d="M0.0 0.0 L60.0 0.0 60.0 60.0 0.0 60.0 0.0 0.0"/></g><g id="c2"><path fill="none" stroke="#000000" stroke-width="1.0" stroke-opacity="0.301960784314" d="M0.7 12.25 Q-0.45 9.75 0.75 8.25 1.2 7.6 2.15 7.15 2.8 6.7 3.8 6.35 L17.5 1.95 30.2 7.0 41.35 31.7 Q42.95 35.15 40.2 36.7 39.5 37.3 38.3 37.65 L25.5 41.8 25.45 41.75 24.55 42.0 11.85 37.0 0.7 12.25"/><path fill="#9d147b" stroke="none" d="M35.55 22.3 L31.5 13.2 29.75 9.2 16.95 4.25 5.5 7.85 Q1.65 9.1 3.35 12.8 L8.25 23.65 13.1 34.35 25.8 39.4 37.2 35.7 Q41.1 34.5 39.35 30.75 L35.55 22.3 M5.45 20.95 L1.35 11.8 Q0.4 9.65 1.1 8.3 1.45 7.65 2.15 7.15 2.8 6.7 3.8 6.35 L17.5 1.95 30.2 7.0 41.35 31.7 Q42.95 35.15 40.2 36.7 L38.9 37.25 25.2 41.65 12.5 36.65 5.45 20.95"/><path fill="#c47fad" stroke="none" d="M31.5 13.2 L35.55 22.3 39.35 30.75 Q41.1 34.5 37.2 35.7 L25.8 39.4 13.1 34.35 8.25 23.65 3.35 12.8 Q1.65 9.1 5.5 7.85 L16.95 4.25 29.75 9.2 31.5 13.2 M18.5 7.45 L9.1 10.55 9.55 11.6 Q9.8 12.8 9.15 13.6 8.4 14.45 7.1 14.4 L6.8 14.4 6.95 14.6 15.2 32.75 23.85 36.2 34.0 32.9 33.7 32.1 Q33.45 30.9 34.1 30.1 34.75 29.3 35.95 29.35 L35.8 29.0 27.75 10.95 18.5 7.45"/><path fill="#fcf2cf" stroke="none" d="M27.75 10.95 L35.8 29.0 35.95 29.35 Q34.75 29.3 34.1 30.1 33.45 30.9 33.7 32.1 L34.0 32.9 23.85 36.2 15.2 32.75 6.95 14.6 6.8 14.4 7.1 14.4 Q8.4 14.45 9.15 13.6 9.8 12.8 9.55 11.6 L9.1 10.55 18.5 7.45 27.75 10.95"/><path fill="#630a4c" stroke="none" d="M1.1 8.3 L0.75 8.25 Q1.2 7.6 2.15 7.15 1.45 7.65 1.1 8.3 M4.6 20.9 L5.45 20.95 12.5 36.65 11.55 36.25 11.25 35.55 4.6 20.9"/><path fill="#300525" stroke="none" d="M1.1 8.3 Q0.4 9.65 1.35 11.8 L5.45 20.95 4.6 20.9 0.7 12.25 Q-0.45 9.75 0.75 8.25 L1.1 8.3 M12.5 36.65 L25.2 41.65 38.9 37.25 40.2 36.7 Q39.5 37.3 38.3 37.65 L25.5 41.8 25.45 41.75 24.55 42.0 11.85 37.0 11.55 36.25 12.5 36.65"/><path fill="none" stroke="#bf9900" stroke-width="1.0" stroke-opacity="0.749019607843" d="M31.5 13.2 L35.55 22.3 M13.1 34.35 L8.25 23.65"/><path fill="none" stroke="#ffcc00" stroke-width="1.0" stroke-opacity="0.749019607843" d="M35.55 22.3 L39.35 30.75 Q41.1 34.5 37.2 35.7 L25.8 39.4 M8.25 23.65 L3.35 12.8 Q1.65 9.1 5.5 7.85 L16.95 4.25 29.75 9.2 31.5 13.2"/><path fill="none" stroke="#f0b92b" stroke-width="0.5" d="M27.75 10.95 L35.8 29.0 35.95 29.35 Q34.75 29.3 34.1 30.1 33.45 30.9 33.7 32.1 L34.0 32.9 23.85 36.2 15.2 32.75 6.95 14.6 6.8 14.4 7.1 14.4 Q8.4 14.45 9.15 13.6 9.8 12.8 9.55 11.6 L9.1 10.55 18.5 7.45"/><path fill="none" stroke="#000000" stroke-width="0.5" stroke-opacity="0.301960784314" d="M5.45 20.95 L1.35 11.8 Q0.4 9.65 1.1 8.3 M0.75 8.25 Q-0.45 9.75 0.7 12.25 L4.6 20.9 M5.45 20.95 L12.5 36.65 M25.2 41.65 L38.9 37.25 40.2 36.7 Q42.95 35.15 41.35 31.7 L30.2 7.0 M17.5 1.95 L3.8 6.35 Q2.8 6.7 2.15 7.15 1.45 7.65 1.1 8.3 M0.75 8.25 Q1.2 7.6 2.15 7.15 M11.25 35.55 L4.6 20.9 M25.5 41.8 L38.3 37.65 Q39.5 37.3 40.2 36.7"/><path fill="none" stroke="#ffcc00" stroke-width="0.5" stroke-opacity="0.749019607843" d="M18.5 7.45 L27.75 10.95"/><path fill="none" stroke="#f0b92b" stroke-width="1.0" stroke-opacity="0.749019607843" d="M25.8 39.4 L13.1 34.35"/><path fill="none" stroke="#432f2f" stroke-width="0.5" d="M12.5 36.65 L25.2 41.65"/></g><g id="c3"><path fill="#7fdbfe" stroke="none" d="M10.75 4.9 Q10.75 4.6 10.9 4.35 11.25 3.45 11.95 2.75 13.3 1.5 14.35 2.1 15.4 2.7 14.95 4.45 14.7 5.4 14.1 6.15 L13.75 6.5 Q13.1 7.15 12.35 7.35 L11.4 7.2 Q10.95 6.9 10.75 6.4 10.5 5.75 10.75 4.9 M7.5 5.9 Q7.0 5.85 6.6 5.5 6.05 5.0 5.8 4.15 L5.7 3.6 Q5.55 2.65 5.8 1.7 6.25 0.0 7.5 0.0 L7.6 0.0 Q8.85 0.0 9.3 1.7 9.55 2.65 9.4 3.6 L9.3 4.15 8.5 5.5 7.6 5.9 7.5 5.9 M4.35 4.9 Q4.6 5.75 4.35 6.4 L3.7 7.2 2.75 7.35 Q2.0 7.15 1.35 6.5 L1.0 6.15 Q0.4 5.4 0.15 4.45 -0.3 2.7 0.75 2.1 1.8 1.5 3.15 2.75 3.85 3.45 4.2 4.35 L4.35 4.9 M5.5 13.7 Q4.45 13.9 3.65 12.95 2.75 12.0 3.2 10.25 3.7 8.5 5.25 7.6 6.4 6.9 7.55 7.0 8.75 6.9 9.9 7.6 11.45 8.5 11.95 10.25 12.35 12.0 11.5 12.95 10.7 13.9 9.65 13.7 8.55 13.5 7.55 12.6 6.55 13.5 5.5 13.7"/></g><g id="c4"><g><use transform="matrix(1.0,0.0,0.0,1.0,0.0,0.0)" xlink:href="#c3"/></g></g><radialGradient gradientUnits="userSpaceOnUse" r="819.2" cx="0" cy="0" spreadMethod="pad" gradientTransform="matrix(0.0914459228516,0.0,0.0,0.0914459228516,0.6,3.4)" id="gradient1"><stop offset="0.0" stop-color="#ffffff"/><stop offset="1.0" stop-color="#ffffff" stop-opacity="0.0"/></radialGradient><g id="c5"><path stroke="none" fill="url(#gradient1)" d="M36.65 -54.65 Q60.05 -42.0 69.75 -17.95 80.55 8.9 68.0 34.1 55.45 59.35 26.8 68.2 -1.8 77.05 -29.7 64.3 -57.6 51.6 -68.45 24.75 -79.3 -2.05 -66.75 -27.25 L-66.7 -27.3 Q-54.1 -52.5 -25.5 -61.4 3.1 -70.2 31.0 -57.5 L36.65 -54.65"/></g><g id="c6"><g><use transform="matrix(1.0,0.0,0.0,1.0,0.0,0.0)" xlink:href="#c5"/></g></g><radialGradient gradientUnits="userSpaceOnUse" r="819.2" cx="0" cy="0" spreadMethod="pad" gradientTransform="matrix(0.209197998047,0.0,0.0,0.177108764648,67.15,107.2)" id="gradient2"><stop offset="0.356862745098" stop-color="#ffffff"/><stop offset="0.670588235294" stop-opacity="0.0"/></radialGradient><g id="c7"><path fill="none" stroke-linejoin="round" stroke-linecap="round" stroke="url(#gradient2)" stroke-width="0.5" d="M136.55 165.8 L68.6 106.0 68.4 106.0 118.25 201.5 M68.3 105.8 L68.35 105.8 68.3 105.8 68.3 105.85 68.4 106.0 68.3 106.0 86.55 211.5 M68.3 105.8 L68.3 105.85 68.3 106.0 68.15 105.95 18.25 151.55 M68.3 105.85 L68.25 105.85 68.3 106.0 50.0 193.2 M68.25 105.85 L68.15 105.95 0.05 97.7 M68.3 105.85 L68.25 105.8 68.25 105.85 M68.25 105.8 L68.2 105.7 0.0 45.7 M68.3 105.8 L68.25 105.75 68.25 105.8 M68.25 105.75 L68.2 105.7 18.25 10.05 M68.6 106.0 L68.35 105.8 118.25 60.15 M86.6 18.35 L68.3 105.8 M136.6 114.25 L68.6 106.0 M68.25 105.75 L49.95 0.05"/></g><g id="c8"><g><use transform="matrix(1.0,0.0,0.0,1.0,0.0,0.0)" xlink:href="#c7"/></g></g><g id="c9"><g><use transform="matrix(1.0,0.0,0.0,1.0,0.0,0.0)" xlink:href="#c2"/></g><g><use transform="matrix(0.238861083984,-0.0867004394531,0.10026550293,0.233917236328,34.25,31.15)" xlink:href="#c4"/></g><g><use transform="matrix(0.238861083984,-0.0867004394531,0.10026550293,0.233917236328,4.25,10.3)" xlink:href="#c4"/></g><g><use transform="matrix(0.141098022461,-0.0378112792969,0.111373901367,0.225646972656,20.25,20.65)" filter="url(#filter7)" xlink:href="#c6"/></g><g><use transform="matrix(-0.155029296875,0.0513153076172,0.0841827392578,0.147033691406,22.6,3.15)" filter="url(#filter8)" xlink:href="#c8"/></g></g><filter id="filter7"><feColorMatrix in="SourceGraphic" type="matrix" values="0.0 0.0 0.0 0.0 0.796875 0.0 0.0 0.0 0.0 0.59765625 0.0 0.0 0.0 0.0 0.19921875 0.0 0.0 0.0 1.0 0.0" result="cxform"/><feComposite operator="in" in2="SourceGraphic" result="color-xform"/></filter><filter id="filter8"><feColorMatrix in="SourceGraphic" type="matrix" values="0.0 0.0 0.0 0.0 0.99609375 0.0 0.0 0.0 0.0 0.99609375 0.0 0.0 0.0 0.0 0.99609375 0.0 0.0 0.0 1.0 0.0" result="cxform"/><feComposite operator="in" in2="SourceGraphic" result="color-xform"/></filter><g id="c10"><path fill="#f4cc53" stroke="none" d="M25.7 25.65 L25.1 25.45 Q24.6 25.25 24.8 24.7 L26.65 24.4 Q27.2 22.95 29.25 22.95 L29.3 22.85 Q27.45 22.5 26.35 24.3 24.4 24.05 23.85 25.4 25.3 26.45 26.95 26.35 L27.95 25.6 27.85 25.5 27.75 25.25 Q27.2 26.15 26.7 25.95 L25.7 25.65 M29.85 20.55 L29.8 22.3 29.9 23.55 30.15 24.15 30.85 22.95 30.2 23.65 Q29.75 21.75 30.15 20.55 L30.85 19.35 31.75 19.85 Q33.2 20.85 34.1 22.7 34.5 21.8 35.55 21.7 35.8 22.25 34.9 23.35 L35.5 22.8 Q36.0 22.25 36.0 21.35 35.0 21.35 34.2 22.2 33.5 20.6 32.2 19.65 L30.95 18.95 Q30.25 19.55 29.85 20.5 L29.85 20.55 M34.9 24.65 L34.6 25.2 Q33.35 23.85 31.35 23.2 31.35 25.05 31.95 26.7 31.6 25.1 31.55 23.55 33.1 24.2 34.6 25.55 34.9 24.75 35.5 24.15 35.9 24.7 35.95 25.55 36.05 24.65 35.6 24.05 35.25 24.05 34.9 24.65 M31.1 27.05 L31.1 27.15 30.95 27.2 Q30.5 27.4 30.2 27.8 29.9 28.05 29.7 28.55 30.55 29.2 31.35 29.0 L32.05 28.7 Q30.65 29.1 30.0 28.45 30.05 27.75 31.5 27.15 L31.1 27.05 M27.35 24.5 Q28.1 25.35 28.8 25.65 L29.35 25.85 Q28.35 25.4 28.05 24.65 L29.25 24.4 27.35 24.5 M40.95 27.95 L40.55 27.55 Q40.9 27.25 40.5 26.45 L40.1 26.15 Q38.9 25.35 35.95 25.8 33.25 26.5 32.6 28.5 33.45 29.6 35.2 29.45 L36.15 28.15 36.8 27.35 Q37.9 26.35 39.85 26.15 40.5 26.5 40.6 27.3 L40.2 27.75 40.05 27.8 40.05 27.85 Q40.4 28.2 38.4 29.55 36.45 30.9 36.0 30.15 L35.45 30.5 Q35.75 31.6 36.85 31.25 L36.95 31.25 Q35.7 31.3 35.7 30.5 L36.15 30.45 37.05 30.45 39.15 29.3 Q40.5 28.35 40.2 27.9 40.45 27.7 40.7 27.9 L40.45 28.75 40.95 27.95 M29.7 30.6 L29.05 30.15 29.65 31.2 Q28.8 30.85 28.1 30.05 27.7 29.5 27.7 28.8 L28.25 29.3 27.95 28.95 27.65 28.35 27.7 29.55 Q27.85 30.25 28.35 30.75 29.35 31.5 29.95 31.4 L29.7 30.6 M32.95 28.55 Q33.05 27.25 35.0 26.35 L39.75 26.05 Q38.35 26.15 37.4 26.6 36.45 27.1 35.45 28.85 L35.15 29.1 Q33.6 29.45 32.95 28.55 M40.2 27.75 L40.55 27.55 40.2 27.75"/><path fill="#e9ae2c" stroke="none" d="M29.3 23.35 L29.25 22.95 Q27.2 22.95 26.65 24.4 L24.8 24.7 Q24.6 25.25 25.1 25.45 L25.7 25.65 Q25.25 24.7 26.75 24.7 27.6 23.2 29.3 23.35 M30.85 22.95 L31.05 22.55 Q32.8 22.85 34.3 23.9 L34.9 23.35 Q35.8 22.25 35.55 21.7 34.5 21.8 34.1 22.7 33.2 20.85 31.75 19.85 L30.85 19.35 30.15 20.55 Q29.75 21.75 30.2 23.65 L30.85 22.95 M28.15 25.85 L27.95 25.6 26.95 26.35 Q25.3 26.45 23.85 25.4 24.75 26.7 26.8 26.75 27.25 26.75 27.8 26.2 L28.15 25.85 M29.35 25.85 L29.6 25.8 29.3 24.7 29.25 24.4 28.05 24.65 Q28.35 25.4 29.35 25.85 M31.5 27.15 Q30.05 27.75 30.0 28.45 30.65 29.1 32.05 28.7 L32.1 28.65 32.45 27.6 Q33.45 26.15 35.95 25.55 35.9 24.7 35.5 24.15 34.9 24.75 34.6 25.55 33.1 24.2 31.55 23.55 31.6 25.1 31.95 26.7 L31.5 27.15 M29.05 30.15 L28.25 29.3 27.7 28.8 Q27.7 29.5 28.1 30.05 28.8 30.85 29.65 31.2 L29.05 30.15 M32.95 28.55 Q33.6 29.45 35.15 29.1 L35.45 28.85 Q36.45 27.1 37.4 26.6 38.35 26.15 39.75 26.05 L35.0 26.35 Q33.05 27.25 32.95 28.55 M40.45 28.75 L40.7 27.9 Q40.45 27.7 40.2 27.9 40.5 28.35 39.15 29.3 L37.05 30.45 36.15 30.45 35.7 30.5 Q35.7 31.3 36.95 31.25 39.35 30.3 40.45 28.75"/><path fill="#d19920" stroke="none" d="M29.25 22.95 L29.3 23.35 29.25 24.4 29.3 24.7 29.6 25.8 29.35 25.85 28.8 25.65 Q28.1 25.35 27.35 24.5 L27.75 25.25 27.85 25.5 27.95 25.6 28.15 25.85 28.45 26.3 30.2 27.8 Q30.5 27.4 30.95 27.2 L31.1 27.15 31.1 27.05 Q30.7 24.6 31.35 23.2 30.7 24.6 31.1 27.05 L31.5 27.15 31.95 26.7 Q31.35 25.05 31.35 23.2 33.35 23.85 34.6 25.2 L34.9 24.65 Q34.95 23.95 35.5 22.8 L34.9 23.35 34.3 23.9 Q32.8 22.85 31.05 22.55 L30.85 22.95 30.15 24.15 29.9 23.55 29.8 22.3 29.85 20.55 Q29.45 21.5 29.3 22.85 L29.25 22.95 M23.85 25.4 Q24.75 27.8 26.7 29.15 L27.2 30.25 Q27.4 31.4 28.6 32.6 29.15 32.9 31.65 31.75 30.9 30.95 30.55 29.85 L29.85 29.45 Q29.6 30.05 29.7 30.6 L29.95 31.4 Q29.35 31.5 28.35 30.75 27.85 30.25 27.7 29.55 L27.65 28.35 Q27.1 29.25 27.2 30.25 27.1 29.25 27.65 28.35 L27.95 28.95 29.3 29.6 Q28.9 29.0 29.35 28.0 L27.8 26.2 Q27.25 26.75 26.8 26.75 24.75 26.7 23.85 25.4 M31.8 31.7 L31.95 31.8 Q32.95 31.8 33.0 31.3 L32.55 30.5 Q32.3 29.8 32.6 29.05 L32.9 29.3 33.55 29.55 34.85 30.1 35.25 30.25 35.95 29.7 36.25 29.15 Q37.25 27.45 38.45 27.0 L39.55 26.75 Q40.05 27.1 40.05 27.55 L40.05 27.8 40.2 27.75 40.6 27.3 Q40.5 26.5 39.85 26.15 37.9 26.35 36.8 27.35 L36.15 28.15 35.2 29.45 Q33.45 29.6 32.6 28.5 32.45 28.8 32.6 29.05 32.45 28.8 32.6 28.5 33.25 26.5 35.95 25.8 L35.95 25.55 Q33.45 26.15 32.45 27.6 L32.1 28.65 32.05 28.7 31.35 29.0 Q30.55 29.2 29.7 28.55 L29.55 28.9 29.95 29.25 30.95 29.6 Q31.05 30.7 31.8 31.7 M33.55 31.65 Q34.9 32.75 38.7 30.75 40.1 30.1 41.1 28.85 41.3 28.35 40.95 27.95 L40.45 28.75 Q39.35 30.3 36.95 31.25 L36.85 31.25 Q35.75 31.6 35.45 30.5 L34.4 30.45 32.9 29.3 32.75 29.8 Q32.6 30.7 33.35 31.4 L33.55 31.65"/><path fill="#7f5211" stroke="none" d="M29.3 23.35 Q27.6 23.2 26.75 24.7 25.25 24.7 25.7 25.65 L26.7 25.95 Q27.2 26.15 27.75 25.25 L27.35 24.5 29.25 24.4 29.3 23.35 M40.05 27.8 L40.05 27.55 Q40.05 27.1 39.55 26.75 L38.45 27.0 Q39.75 26.9 40.05 27.55 37.55 27.85 36.25 29.15 L35.95 29.7 36.0 30.15 Q36.45 30.9 38.4 29.55 40.4 28.2 40.05 27.85 L40.05 27.8"/><path fill="#b8791d" stroke="none" d="M30.2 27.8 L28.45 26.3 28.15 25.85 27.8 26.2 29.35 28.0 Q28.9 29.0 29.3 29.6 L27.95 28.95 28.25 29.3 29.05 30.15 29.7 30.6 Q29.6 30.05 29.85 29.45 L29.95 29.25 29.85 29.45 30.55 29.85 Q30.9 30.95 31.65 31.75 L31.8 31.7 Q31.05 30.7 30.95 29.6 L29.95 29.25 29.55 28.9 29.7 28.55 Q29.9 28.05 30.2 27.8 M31.95 31.8 L32.05 31.85 33.55 31.65 33.35 31.4 Q32.6 30.7 32.75 29.8 L32.9 29.3 32.6 29.05 Q32.3 29.8 32.55 30.5 L33.0 31.3 Q32.95 31.8 31.95 31.8 M35.95 29.7 L35.25 30.25 34.85 30.1 33.55 29.55 32.9 29.3 34.4 30.45 35.45 30.5 36.0 30.15 35.95 29.7"/><path fill="#3d2707" stroke="none" d="M38.45 27.0 Q37.25 27.45 36.25 29.15 37.55 27.85 40.05 27.55 39.75 26.9 38.45 27.0"/><path fill="none" stroke="#000000" stroke-width="0.5" stroke-opacity="0.301960784314" d="M29.25 22.95 L29.3 23.35 M25.7 25.65 L25.1 25.45 M29.25 22.95 L29.3 22.85 Q29.45 21.5 29.85 20.55 L29.85 20.5 Q30.25 19.55 30.95 18.95 L32.2 19.65 Q33.5 20.6 34.2 22.2 35.0 21.35 36.0 21.35 36.0 22.25 35.5 22.8 34.95 23.95 34.9 24.65 L34.6 25.2 Q33.35 23.85 31.35 23.2 30.7 24.6 31.1 27.05 L31.1 27.15 30.95 27.2 Q30.5 27.4 30.2 27.8 L28.45 26.3 28.15 25.85 27.95 25.6 27.85 25.5 27.75 25.25 27.35 24.5 29.25 24.4 29.3 23.35 M29.3 24.7 L29.25 24.4 M23.85 25.4 Q24.4 24.05 26.35 24.3 27.45 22.5 29.3 22.85 M23.85 25.4 Q24.75 27.8 26.7 29.15 L27.2 30.25 Q27.4 31.4 28.6 32.6 29.15 32.9 31.65 31.75 L31.8 31.7 31.95 31.8 32.05 31.85 33.55 31.65 Q34.9 32.75 38.7 30.75 40.1 30.1 41.1 28.85 41.3 28.35 40.95 27.95 L40.55 27.55 Q40.9 27.25 40.5 26.45 L40.1 26.15 Q38.9 25.35 35.95 25.8 L35.95 25.55 Q36.05 24.65 35.6 24.05 35.25 24.05 34.9 24.65 M29.7 28.55 Q29.9 28.05 30.2 27.8 M29.7 28.55 L29.55 28.9 29.95 29.25 29.85 29.45 Q29.6 30.05 29.7 30.6 L29.05 30.15 28.25 29.3 27.95 28.95 M27.65 28.35 Q27.1 29.25 27.2 30.25 M25.7 25.65 L26.7 25.95 Q27.2 26.15 27.75 25.25 M27.65 28.35 L27.95 28.95 M40.2 27.75 L40.05 27.8 M39.55 26.75 L38.45 27.0 Q37.25 27.45 36.25 29.15 L35.95 29.7 35.25 30.25 34.85 30.1 33.55 29.55 32.9 29.3 32.6 29.05 Q32.45 28.8 32.6 28.5 33.25 26.5 35.95 25.8 M35.95 29.7 L36.0 30.15 M32.9 29.3 L32.75 29.8 Q32.6 30.7 33.35 31.4 L33.55 31.65 M40.55 27.55 L40.2 27.75 M29.95 29.25 L30.95 29.6 Q31.05 30.7 31.8 31.7"/><path fill="#fce772" stroke="none" d="M25.6 28.35 L25.45 28.05 24.9 27.45 24.4 26.9 24.15 26.7 24.25 27.1 24.75 27.7 25.3 28.25 25.6 28.35 M31.4 20.65 L31.05 20.45 30.7 20.4 Q30.5 20.45 30.45 20.6 L30.5 20.95 30.85 21.2 31.25 21.2 31.45 21.0 31.4 20.65 M35.45 22.0 L35.2 22.0 34.8 22.25 34.35 22.65 34.2 22.85 34.45 22.8 34.9 22.5 35.3 22.2 35.45 22.0 M31.9 24.35 L32.05 24.6 32.7 25.05 33.3 25.6 33.65 25.7 33.5 25.35 32.95 24.85 32.3 24.4 31.9 24.35 M32.65 22.95 L33.05 23.75 33.45 24.25 33.6 23.7 33.3 22.75 32.8 22.15 32.35 21.95 Q32.1 21.95 32.25 22.25 L32.65 22.95 M37.35 26.65 L38.1 26.65 38.4 26.55 38.15 26.4 37.4 26.3 36.65 26.4 36.25 26.6 36.6 26.7 37.35 26.65"/></g><g id="c11"><g><use transform="matrix(1.0,0.0,0.0,1.0,0.0,0.0)" xlink:href="#c5"/></g></g><g id="c12"><path fill="#d19920" stroke="none" d="M23.85 31.15 L22.65 31.65 Q20.45 31.4 19.55 29.95 20.4 32.6 22.35 34.25 L22.9 35.5 Q22.8 34.4 23.5 33.45 22.8 34.4 22.9 35.5 22.95 36.75 24.15 38.2 24.8 38.5 27.6 37.55 26.9 36.55 26.55 35.35 L25.75 34.85 Q25.5 35.5 25.6 36.05 L25.75 37.0 Q25.1 37.05 24.05 36.15 23.55 35.55 23.4 34.75 L23.5 33.45 23.8 34.15 25.2 35.0 Q24.8 34.25 25.35 33.25 L23.85 31.15 M25.75 27.55 L25.75 27.75 25.65 28.1 25.6 29.25 25.6 29.65 25.85 30.9 25.6 30.85 24.95 30.6 Q24.25 30.2 23.5 29.2 L23.85 30.1 23.95 30.35 24.0 30.45 24.25 30.85 24.55 31.25 Q25.3 32.25 26.35 33.0 L27.15 32.5 27.4 32.45 27.4 32.3 27.9 32.5 Q28.25 32.45 28.3 31.95 27.8 30.15 28.0 28.15 30.1 29.0 31.45 30.55 L31.75 30.05 Q31.8 29.25 32.6 28.05 L31.9 28.6 31.15 29.15 Q29.65 27.85 27.7 27.45 L27.45 27.85 26.55 29.1 26.35 28.4 Q26.25 27.85 26.3 27.0 L26.5 25.1 Q26.0 26.1 25.75 27.55 M27.75 37.5 L28.0 37.65 Q29.05 37.65 29.1 37.15 L28.7 36.2 Q28.4 35.45 28.9 34.65 L29.15 34.95 28.95 35.5 Q28.75 36.45 29.5 37.3 L29.75 37.6 Q31.1 38.9 35.45 37.05 37.0 36.45 38.25 35.15 38.45 34.55 38.15 34.1 L37.55 34.95 Q36.2 36.6 33.5 37.4 L33.35 37.4 Q32.1 37.7 31.85 36.45 L30.75 36.3 Q29.3 35.45 29.15 34.95 L29.8 35.25 31.3 36.0 31.75 36.1 Q32.15 36.1 32.45 35.6 L32.85 35.05 Q34.1 33.25 35.45 32.85 L36.7 32.75 Q37.25 33.2 37.2 33.85 L37.35 33.9 37.75 33.35 Q37.75 32.5 37.1 32.1 34.9 32.15 33.6 33.1 L32.8 34.0 31.65 35.25 Q29.8 35.3 28.95 34.05 L28.9 34.65 28.95 34.05 Q29.75 31.9 32.8 31.35 L32.85 31.15 Q30.05 31.6 28.8 33.05 L28.35 34.1 28.3 34.15 28.25 34.2 27.55 34.45 Q26.55 34.65 25.75 33.8 L25.55 34.2 25.9 34.6 27.05 35.1 Q27.1 36.3 27.75 37.5 M27.4 32.3 Q27.2 29.6 28.0 28.15 27.2 29.6 27.4 32.3"/><path fill="#e9ae2c" stroke="none" d="M19.55 29.95 Q20.45 31.4 22.65 31.65 L23.85 31.15 24.25 30.85 24.0 30.45 22.85 31.15 Q21.05 31.15 19.55 29.95 M25.75 27.75 Q23.4 27.6 22.7 29.05 L20.65 29.25 Q20.45 29.8 20.95 30.1 L21.55 30.35 Q21.15 29.25 22.8 29.4 23.9 27.8 25.65 28.1 L25.75 27.75 M24.05 34.6 L23.55 33.95 Q23.45 34.75 23.85 35.35 L25.45 36.7 24.9 35.5 24.05 34.6 M31.9 28.6 Q32.95 27.5 32.7 26.85 31.55 26.9 31.0 27.8 29.9 25.05 27.75 23.85 26.15 25.3 26.65 28.5 L27.45 27.85 27.7 27.45 Q29.65 27.85 31.15 29.15 L31.9 28.6 M25.6 30.85 L25.85 30.9 25.6 29.65 25.6 29.25 24.2 29.45 Q24.45 30.3 25.6 30.85 M29.3 34.15 Q29.95 35.2 31.75 34.9 L32.05 34.65 Q33.3 32.85 34.4 32.4 L37.0 32.0 31.7 31.85 Q29.5 32.75 29.3 34.15 M37.55 34.95 L37.85 34.1 37.35 34.0 Q37.6 34.55 36.05 35.45 34.85 36.2 33.7 36.6 L32.7 36.4 32.2 36.5 Q32.1 37.35 33.5 37.4 36.2 36.6 37.55 34.95 M27.9 32.5 Q26.15 33.0 26.05 33.75 26.75 34.55 28.25 34.2 L28.3 34.15 28.35 34.1 28.8 33.05 Q30.05 31.6 32.85 31.15 32.85 30.15 32.5 29.55 31.75 30.15 31.4 30.95 29.85 29.4 28.15 28.55 L28.3 31.95 Q28.25 32.45 27.9 32.5"/><path fill="#f4cc53" stroke="none" d="M23.8 34.15 L23.5 33.45 23.4 34.75 Q23.55 35.55 24.05 36.15 25.1 37.05 25.75 37.0 L25.6 36.05 24.9 35.5 25.45 36.7 23.85 35.35 Q23.45 34.75 23.55 33.95 L24.05 34.6 23.8 34.15 M25.75 27.55 Q23.7 27.05 22.35 28.95 20.25 28.45 19.55 29.95 21.05 31.15 22.85 31.15 L24.0 30.45 23.95 30.35 23.85 30.1 Q23.1 31.0 22.6 30.75 L21.55 30.35 20.95 30.1 Q20.45 29.8 20.65 29.25 L22.7 29.05 Q23.4 27.6 25.75 27.75 L25.75 27.55 M38.15 34.1 L37.75 33.75 Q38.15 33.35 37.75 32.45 L37.35 32.1 Q36.1 31.15 32.8 31.35 29.75 31.9 28.95 34.05 29.8 35.3 31.65 35.25 L32.8 34.0 33.6 33.1 Q34.9 32.15 37.1 32.1 37.75 32.5 37.75 33.35 L37.35 33.9 37.2 33.85 37.15 34.0 Q37.5 34.35 35.2 35.7 33.0 37.0 32.55 36.1 L31.85 36.45 Q32.1 37.7 33.35 37.4 L33.5 37.4 Q32.1 37.35 32.2 36.5 L32.7 36.4 33.7 36.6 Q34.85 36.2 36.05 35.45 37.6 34.55 37.35 34.0 L37.85 34.1 37.55 34.95 38.15 34.1 M32.85 31.15 Q33.0 30.05 32.6 29.4 32.15 29.35 31.75 30.05 L31.45 30.55 Q30.1 29.0 28.0 28.15 27.8 30.15 28.3 31.95 L28.15 28.55 Q29.85 29.4 31.4 30.95 31.75 30.15 32.5 29.55 32.85 30.15 32.85 31.15 M32.6 28.05 Q33.2 27.45 33.25 26.5 32.1 26.45 31.15 27.25 30.25 24.6 27.85 23.45 27.05 24.05 26.5 25.1 L26.3 27.0 Q26.25 27.85 26.35 28.4 L26.55 29.1 27.45 27.85 26.65 28.5 Q26.15 25.3 27.75 23.85 29.9 25.05 31.0 27.8 31.55 26.9 32.7 26.85 32.95 27.5 31.9 28.6 L32.6 28.05 M25.6 30.85 Q24.45 30.3 24.2 29.45 L25.6 29.25 23.5 29.2 Q24.25 30.2 24.95 30.6 L25.6 30.85 M26.35 33.0 L25.75 33.8 Q26.55 34.65 27.55 34.45 L28.25 34.2 Q26.75 34.55 26.05 33.75 26.15 33.0 27.9 32.5 L27.4 32.3 27.4 32.45 27.15 32.5 26.35 33.0 M29.3 34.15 Q29.5 32.75 31.7 31.85 L37.0 32.0 34.4 32.4 Q33.3 32.85 32.05 34.65 L31.75 34.9 Q29.95 35.2 29.3 34.15 M37.75 33.75 L37.35 33.9 37.75 33.75"/><path fill="#7f5211" stroke="none" d="M21.55 30.35 L22.6 30.75 Q23.1 31.0 23.85 30.1 L23.5 29.2 25.6 29.25 25.65 28.1 Q23.9 27.8 22.8 29.4 21.15 29.25 21.55 30.35 M32.55 36.1 Q33.0 37.0 35.2 35.7 37.5 34.35 37.15 34.0 L37.2 33.85 Q37.25 33.2 36.7 32.75 L35.45 32.85 Q36.85 32.9 37.15 33.65 34.45 33.7 32.85 35.05 L32.45 35.6 32.55 36.1"/><path fill="#b8791d" stroke="none" d="M23.85 31.15 L25.35 33.25 Q24.8 34.25 25.2 35.0 L23.8 34.15 24.05 34.6 24.9 35.5 25.6 36.05 Q25.5 35.5 25.75 34.85 L25.9 34.6 25.75 34.85 26.55 35.35 Q26.9 36.55 27.6 37.55 L27.75 37.5 Q27.1 36.3 27.05 35.1 L25.9 34.6 25.55 34.2 25.75 33.8 26.35 33.0 Q25.3 32.25 24.55 31.25 L24.25 30.85 23.85 31.15 M28.0 37.65 L28.05 37.6 Q28.65 37.9 29.75 37.6 L29.5 37.3 Q28.75 36.45 28.95 35.5 L29.15 34.95 28.9 34.65 Q28.4 35.45 28.7 36.2 L29.1 37.15 Q29.05 37.65 28.0 37.65 M31.85 36.45 L32.55 36.1 32.45 35.6 Q32.15 36.1 31.75 36.1 L31.3 36.0 29.8 35.25 29.15 34.95 Q29.3 35.45 30.75 36.3 L31.85 36.45"/><path fill="#3d2707" stroke="none" d="M32.85 35.05 Q34.45 33.7 37.15 33.65 36.85 32.9 35.45 32.85 34.1 33.25 32.85 35.05"/><path fill="none" stroke="#000000" stroke-width="0.5" stroke-opacity="0.301960784314" d="M23.8 34.15 L23.5 33.45 Q22.8 34.4 22.9 35.5 L22.35 34.25 Q20.4 32.6 19.55 29.95 20.25 28.45 22.35 28.95 23.7 27.05 25.75 27.55 L25.75 27.75 M20.95 30.1 L21.55 30.35 22.6 30.75 Q23.1 31.0 23.85 30.1 L23.95 30.35 24.0 30.45 24.25 30.85 24.55 31.25 Q25.3 32.25 26.35 33.0 L25.75 33.8 25.55 34.2 25.9 34.6 25.75 34.85 Q25.5 35.5 25.6 36.05 M24.05 34.6 L24.9 35.5 25.6 36.05 M24.05 34.6 L23.8 34.15 M22.9 35.5 Q22.95 36.75 24.15 38.2 24.8 38.5 27.6 37.55 L27.75 37.5 28.0 37.65 28.05 37.6 Q28.65 37.9 29.75 37.6 31.1 38.9 35.45 37.05 37.0 36.45 38.25 35.15 38.45 34.55 38.15 34.1 L37.75 33.75 Q38.15 33.35 37.75 32.45 L37.35 32.1 Q36.1 31.15 32.8 31.35 L32.85 31.15 Q33.0 30.05 32.6 29.4 32.15 29.35 31.75 30.05 31.8 29.25 32.6 28.05 33.2 27.45 33.25 26.5 32.1 26.45 31.15 27.25 30.25 24.6 27.85 23.45 27.05 24.05 26.5 25.1 26.0 26.1 25.75 27.55 M23.5 29.2 L23.85 30.1 M25.6 29.25 L25.6 29.65 M23.5 29.2 L25.6 29.25 25.65 28.1 25.75 27.75 M37.2 33.85 L37.35 33.9 37.75 33.75 M35.45 32.85 L36.7 32.75 M32.55 36.1 L32.45 35.6 32.85 35.05 Q34.1 33.25 35.45 32.85 M27.4 32.3 L27.4 32.45 27.15 32.5 26.35 33.0 M28.9 34.65 L29.15 34.95 28.95 35.5 Q28.75 36.45 29.5 37.3 L29.75 37.6 M28.9 34.65 L28.95 34.05 Q29.75 31.9 32.8 31.35 M25.9 34.6 L27.05 35.1 Q27.1 36.3 27.75 37.5 M31.75 30.05 L31.45 30.55 Q30.1 29.0 28.0 28.15 27.2 29.6 27.4 32.3 M32.45 35.6 Q32.15 36.1 31.75 36.1 L31.3 36.0 29.8 35.25 29.15 34.95"/><path fill="#fce772" stroke="none" d="M21.45 33.3 L21.3 32.9 20.8 32.25 20.3 31.55 Q20.15 31.25 20.0 31.35 L20.1 31.8 20.55 32.5 21.1 33.15 21.45 33.3 M28.45 25.4 L28.1 25.05 27.7 25.0 27.4 25.25 27.4 25.65 27.75 25.9 28.2 26.0 28.5 25.75 28.45 25.4 M32.8 27.2 L32.55 27.15 Q32.3 27.2 32.0 27.4 L31.55 27.7 31.4 28.0 31.6 27.95 32.15 27.7 Q32.4 27.5 32.65 27.4 L32.8 27.2 M28.7 29.45 Q28.6 29.5 28.85 29.75 L29.55 30.3 30.15 30.9 30.5 31.05 30.4 30.7 29.85 30.05 29.15 29.55 28.7 29.45 M29.6 27.95 L30.0 28.9 30.4 29.5 Q30.65 29.5 30.6 28.85 L30.3 27.8 29.9 27.1 29.35 26.8 Q29.1 26.85 29.3 27.2 L29.6 27.95 M34.5 32.45 L35.3 32.45 35.65 32.4 35.4 32.15 34.6 32.05 33.75 32.1 Q33.35 32.15 33.35 32.3 L33.7 32.4 34.5 32.45"/></g><filter id="filter13"><feColorMatrix in="SourceGraphic" type="matrix" values="0.0 0.0 0.0 0.0 0.99609375 0.0 0.0 0.0 0.0 0.99609375 0.0 0.0 0.0 0.0 0.59375 0.0 0.0 0.0 0.19921875 0.0" result="cxform"/><feComposite operator="in" in2="SourceGraphic" result="color-xform"/></filter><filter id="filter15"><feColorMatrix in="SourceGraphic" type="matrix" values="0.0 0.0 0.0 0.0 0.99609375 0.0 0.0 0.0 0.0 0.99609375 0.0 0.0 0.0 0.0 0.59375 0.0 0.0 0.0 0.19921875 0.0" result="cxform"/><feComposite operator="in" in2="SourceGraphic" result="color-xform"/></filter><filter id="filter16"><feColorMatrix in="SourceGraphic" type="matrix" values="1.0 0.0 0.0 0.0 0.0 0.0 1.0 0.0 0.0 0.0 0.0 0.0 1.0 0.0 0.0 0.0 0.0 0.0 0.23046875 0.0" result="cxform"/><feComposite operator="in" in2="SourceGraphic" result="color-xform"/></filter></defs><g><g><use transform="matrix(1.0,0.0,0.0,1.0,0.0,0.0)" xlink:href="#c1"/></g><g><use transform="matrix(1.15496826172,0.0,0.0,1.15496826172,5.85,4.8)" xlink:href="#c9"/></g><g><use transform="matrix(1.0,0.0,0.0,1.0,0.0,0.0)" xlink:href="#c10"/></g><g><use transform="matrix(-0.0262756347656,-0.0467834472656,-0.0633544921875,0.0243072509766,31.65,26.7)" filter="url(#filter13)" xlink:href="#c11"/></g><g><use transform="matrix(1.0,0.0,0.0,1.0,0.0,0.0)" xlink:href="#c12"/></g><g><use transform="matrix(-0.0251312255859,-0.0534362792969,-0.0715637207031,0.0212707519531,28.15,31.8)" filter="url(#filter15)" xlink:href="#c11"/></g><g><use transform="matrix(0.162948608398,-0.0436706542969,0.128631591797,0.260604858398,30.0,28.7)" filter="url(#filter16)" xlink:href="#c6"/></g></g></svg>