<?xml version='1.0' encoding='UTF-8'?>
<svg xmlns:xlink="http://www.w3.org/1999/xlink" xmlns="http://www.w3.org/2000/svg" version="1.1" width="60px" height="60px" viewBox="0.0 0.0 60.0 60.0"><defs><g id="c1"><path fill="#000000" fill-opacity="0.00392156862745" d="M0.0 0.0 L60.0 0.0 60.0 60.0 0.0 60.0 0.0 0.0"/></g><g id="c2"><path fill="none" stroke="#000000" stroke-width="1.0" stroke-opacity="0.301960784314" d="M0.7 12.25 Q-0.45 9.75 0.75 8.25 1.2 7.6 2.15 7.15 2.8 6.7 3.8 6.35 L17.5 1.95 30.2 7.0 41.35 31.7 Q42.95 35.15 40.2 36.7 39.5 37.3 38.3 37.65 L25.5 41.8 25.45 41.75 24.55 42.0 11.85 37.0 0.7 12.25"/><path fill="#9d147b" stroke="none" d="M35.55 22.3 L31.5 13.2 29.75 9.2 16.95 4.25 5.5 7.85 Q1.65 9.1 3.35 12.8 L8.25 23.65 13.1 34.35 25.8 39.4 37.2 35.7 Q41.1 34.5 39.35 30.75 L35.55 22.3 M5.45 20.95 L1.35 11.8 Q0.4 9.65 1.1 8.3 1.45 7.65 2.15 7.15 2.8 6.7 3.8 6.35 L17.5 1.95 30.2 7.0 41.35 31.7 Q42.95 35.15 40.2 36.7 L38.9 37.25 25.2 41.65 12.5 36.65 5.45 20.95"/><path fill="#c47fad" stroke="none" d="M31.5 13.2 L35.55 22.3 39.35 30.75 Q41.1 34.5 37.2 35.7 L25.8 39.4 13.1 34.35 8.25 23.65 3.35 12.8 Q1.65 9.1 5.5 7.85 L16.95 4.25 29.75 9.2 31.5 13.2 M18.5 7.45 L9.1 10.55 9.55 11.6 Q9.8 12.8 9.15 13.6 8.4 14.45 7.1 14.4 L6.8 14.4 6.95 14.6 15.2 32.75 23.85 36.2 34.0 32.9 33.7 32.1 Q33.45 30.9 34.1 30.1 34.75 29.3 35.95 29.35 L35.8 29.0 27.75 10.95 18.5 7.45"/><path fill="#fcf2cf" stroke="none" d="M27.75 10.95 L35.8 29.0 35.95 29.35 Q34.75 29.3 34.1 30.1 33.45 30.9 33.7 32.1 L34.0 32.9 23.85 36.2 15.2 32.75 6.95 14.6 6.8 14.4 7.1 14.4 Q8.4 14.45 9.15 13.6 9.8 12.8 9.55 11.6 L9.1 10.55 18.5 7.45 27.75 10.95"/><path fill="#630a4c" stroke="none" d="M1.1 8.3 L0.75 8.25 Q1.2 7.6 2.15 7.15 1.45 7.65 1.1 8.3 M4.6 20.9 L5.45 20.95 12.5 36.65 11.55 36.25 11.25 35.55 4.6 20.9"/><path fill="#300525" stroke="none" d="M1.1 8.3 Q0.4 9.65 1.35 11.8 L5.45 20.95 4.6 20.9 0.7 12.25 Q-0.45 9.75 0.75 8.25 L1.1 8.3 M12.5 36.65 L25.2 41.65 38.9 37.25 40.2 36.7 Q39.5 37.3 38.3 37.65 L25.5 41.8 25.45 41.75 24.55 42.0 11.85 37.0 11.55 36.25 12.5 36.65"/><path fill="none" stroke="#bf9900" stroke-width="1.0" stroke-opacity="0.749019607843" d="M31.5 13.2 L35.55 22.3 M13.1 34.35 L8.25 23.65"/><path fill="none" stroke="#ffcc00" stroke-width="1.0" stroke-opacity="0.749019607843" d="M35.55 22.3 L39.35 30.75 Q41.1 34.5 37.2 35.7 L25.8 39.4 M8.25 23.65 L3.35 12.8 Q1.65 9.1 5.5 7.85 L16.95 4.25 29.75 9.2 31.5 13.2"/><path fill="none" stroke="#f0b92b" stroke-width="0.5" d="M27.75 10.95 L35.8 29.0 35.95 29.35 Q34.75 29.3 34.1 30.1 33.45 30.9 33.7 32.1 L34.0 32.9 23.85 36.2 15.2 32.75 6.95 14.6 6.8 14.4 7.1 14.4 Q8.4 14.45 9.15 13.6 9.8 12.8 9.55 11.6 L9.1 10.55 18.5 7.45"/><path fill="none" stroke="#000000" stroke-width="0.5" stroke-opacity="0.301960784314" d="M5.45 20.95 L1.35 11.8 Q0.4 9.65 1.1 8.3 M0.75 8.25 Q-0.45 9.75 0.7 12.25 L4.6 20.9 M5.45 20.95 L12.5 36.65 M25.2 41.65 L38.9 37.25 40.2 36.7 Q42.95 35.15 41.35 31.7 L30.2 7.0 M17.5 1.95 L3.8 6.35 Q2.8 6.7 2.15 7.15 1.45 7.65 1.1 8.3 M0.75 8.25 Q1.2 7.6 2.15 7.15 M11.25 35.55 L4.6 20.9 M25.5 41.8 L38.3 37.65 Q39.5 37.3 40.2 36.7"/><path fill="none" stroke="#ffcc00" stroke-width="0.5" stroke-opacity="0.749019607843" d="M18.5 7.45 L27.75 10.95"/><path fill="none" stroke="#f0b92b" stroke-width="1.0" stroke-opacity="0.749019607843" d="M25.8 39.4 L13.1 34.35"/><path fill="none" stroke="#432f2f" stroke-width="0.5" d="M12.5 36.65 L25.2 41.65"/></g><g id="c3"><path fill="#7fdbfe" stroke="none" d="M10.75 4.9 Q10.75 4.6 10.9 4.35 11.25 3.45 11.95 2.75 13.3 1.5 14.35 2.1 15.4 2.7 14.95 4.45 14.7 5.4 14.1 6.15 L13.75 6.5 Q13.1 7.15 12.35 7.35 L11.4 7.2 Q10.95 6.9 10.75 6.4 10.5 5.75 10.75 4.9 M7.5 5.9 Q7.0 5.85 6.6 5.5 6.05 5.0 5.8 4.15 L5.7 3.6 Q5.55 2.65 5.8 1.7 6.25 0.0 7.5 0.0 L7.6 0.0 Q8.85 0.0 9.3 1.7 9.55 2.65 9.4 3.6 L9.3 4.15 8.5 5.5 7.6 5.9 7.5 5.9 M4.35 4.9 Q4.6 5.75 4.35 6.4 L3.7 7.2 2.75 7.35 Q2.0 7.15 1.35 6.5 L1.0 6.15 Q0.4 5.4 0.15 4.45 -0.3 2.7 0.75 2.1 1.8 1.5 3.15 2.75 3.85 3.45 4.2 4.35 L4.35 4.9 M5.5 13.7 Q4.45 13.9 3.65 12.95 2.75 12.0 3.2 10.25 3.7 8.5 5.25 7.6 6.4 6.9 7.55 7.0 8.75 6.9 9.9 7.6 11.45 8.5 11.95 10.25 12.35 12.0 11.5 12.95 10.7 13.9 9.65 13.7 8.55 13.5 7.55 12.6 6.55 13.5 5.5 13.7"/></g><g id="c4"><g><use transform="matrix(1.0,0.0,0.0,1.0,0.0,0.0)" xlink:href="#c3"/></g></g><radialGradient gradientUnits="userSpaceOnUse" r="819.2" cx="0" cy="0" spreadMethod="pad" gradientTransform="matrix(0.0914459228516,0.0,0.0,0.0914459228516,0.6,3.4)" id="gradient1"><stop offset="0.0" stop-color="#ffffff"/><stop offset="1.0" stop-color="#ffffff" stop-opacity="0.0"/></radialGradient><g id="c5"><path stroke="none" fill="url(#gradient1)" d="M36.65 -54.65 Q60.05 -42.0 69.75 -17.95 80.55 8.9 68.0 34.1 55.45 59.35 26.8 68.2 -1.8 77.05 -29.7 64.3 -57.6 51.6 -68.45 24.75 -79.3 -2.05 -66.75 -27.25 L-66.7 -27.3 Q-54.1 -52.5 -25.5 -61.4 3.1 -70.2 31.0 -57.5 L36.65 -54.65"/></g><g id="c6"><g><use transform="matrix(1.0,0.0,0.0,1.0,0.0,0.0)" xlink:href="#c5"/></g></g><radialGradient gradientUnits="userSpaceOnUse" r="819.2" cx="0" cy="0" spreadMethod="pad" gradientTransform="matrix(0.209197998047,0.0,0.0,0.177108764648,67.15,107.2)" id="gradient2"><stop offset="0.356862745098" stop-color="#ffffff"/><stop offset="0.670588235294" stop-opacity="0.0"/></radialGradient><g id="c7"><path fill="none" stroke-linejoin="round" stroke-linecap="round" stroke="url(#gradient2)" stroke-width="0.5" d="M136.55 165.8 L68.6 106.0 68.4 106.0 118.25 201.5 M68.3 105.8 L68.35 105.8 68.3 105.8 68.3 105.85 68.4 106.0 68.3 106.0 86.55 211.5 M68.3 105.8 L68.3 105.85 68.3 106.0 68.15 105.95 18.25 151.55 M68.3 105.85 L68.25 105.85 68.3 106.0 50.0 193.2 M68.25 105.85 L68.15 105.95 0.05 97.7 M68.3 105.85 L68.25 105.8 68.25 105.85 M68.25 105.8 L68.2 105.7 0.0 45.7 M68.3 105.8 L68.25 105.75 68.25 105.8 M68.25 105.75 L68.2 105.7 18.25 10.05 M68.6 106.0 L68.35 105.8 118.25 60.15 M86.6 18.35 L68.3 105.8 M136.6 114.25 L68.6 106.0 M68.25 105.75 L49.95 0.05"/></g><g id="c8"><g><use transform="matrix(1.0,0.0,0.0,1.0,0.0,0.0)" xlink:href="#c7"/></g></g><g id="c9"><g><use transform="matrix(1.0,0.0,0.0,1.0,0.0,0.0)" xlink:href="#c2"/></g><g><use transform="matrix(0.238861083984,-0.0867004394531,0.10026550293,0.233917236328,34.25,31.15)" xlink:href="#c4"/></g><g><use transform="matrix(0.238861083984,-0.0867004394531,0.10026550293,0.233917236328,4.25,10.3)" xlink:href="#c4"/></g><g><use transform="matrix(0.141098022461,-0.0378112792969,0.111373901367,0.225646972656,20.25,20.65)" filter="url(#filter7)" xlink:href="#c6"/></g><g><use transform="matrix(-0.155029296875,0.0513153076172,0.0841827392578,0.147033691406,22.6,3.15)" filter="url(#filter8)" xlink:href="#c8"/></g></g><filter id="filter7"><feColorMatrix in="SourceGraphic" type="matrix" values="0.0 0.0 0.0 0.0 0.796875 0.0 0.0 0.0 0.0 0.59765625 0.0 0.0 0.0 0.0 0.19921875 0.0 0.0 0.0 1.0 0.0" result="cxform"/><feComposite operator="in" in2="SourceGraphic" result="color-xform"/></filter><filter id="filter8"><feColorMatrix in="SourceGraphic" type="matrix" values="0.0 0.0 0.0 0.0 0.99609375 0.0 0.0 0.0 0.0 0.99609375 0.0 0.0 0.0 0.0 0.99609375 0.0 0.0 0.0 1.0 0.0" result="cxform"/><feComposite operator="in" in2="SourceGraphic" result="color-xform"/></filter><linearGradient gradientUnits="userSpaceOnUse" x1="-819.2" x2="819.2" spreadMethod="pad" gradientTransform="matrix(0.0112762451172,-0.00436401367188,0.00259399414062,0.00875854492188,30.55,31.55)" id="gradient3"><stop offset="0.235294117647" stop-color="#b19b52"/><stop offset="1.0" stop-color="#9a7a30"/></linearGradient><radialGradient gradientUnits="userSpaceOnUse" r="819.2" cx="0" cy="0" spreadMethod="pad" gradientTransform="matrix(0.00492858886719,-0.00621032714844,0.0040283203125,0.00357055664062,27.1,28.65)" id="gradient4"><stop offset="0.227450980392" stop-color="#ffdf88" stop-opacity="0.8"/><stop offset="1.0" stop-color="#ffdf88" stop-opacity="0.0"/></radialGradient><g id="c10"><path fill="#fdcb56" stroke="none" d="M38.25 36.85 L39.55 35.75 Q40.7 34.25 40.8 31.05 42.6 34.05 40.35 35.8 39.4 36.5 38.25 36.85 M33.3 22.65 Q37.95 24.7 38.55 28.35 40.25 33.15 35.4 33.95 35.85 36.3 29.25 36.65 27.3 37.55 25.65 36.35 22.75 37.05 21.6 35.1 21.6 34.3 21.9 33.2 21.9 28.35 23.9 25.8 26.0 23.0 30.6 22.65 L33.3 22.65"/><path stroke="none" fill="url(#gradient3)" d="M40.8 31.05 Q40.7 34.25 39.55 35.75 L38.25 36.85 37.15 37.0 35.1 36.75 Q33.75 37.6 30.4 38.35 28.0 38.65 26.4 37.85 21.45 39.2 21.6 35.1 22.75 37.05 25.65 36.35 27.3 37.55 29.25 36.65 35.85 36.3 35.4 33.95 40.25 33.15 38.55 28.35 37.95 24.7 33.3 22.65 35.05 22.75 36.1 23.2 37.65 24.0 38.5 25.65 39.9 28.65 40.5 30.55 L40.8 31.05"/><path fill="none" stroke="#382510" stroke-width="0.5" stroke-opacity="0.2" d="M35.4 33.95 L35.6 32.65 Q35.65 32.2 36.8 31.15 M24.95 35.1 L23.95 34.05 22.7 33.45"/><path fill="none" stroke="#382510" stroke-width="0.7" stroke-opacity="0.301960784314" d="M37.05 35.55 Q36.2 35.65 35.9 35.95 34.8 36.5 35.1 36.75 L37.0 36.55 39.1 36.15 40.75 35.05 Q41.45 34.25 41.45 33.4 41.5 32.5 41.15 31.55 L40.35 29.45 39.55 27.8 38.8 26.45 Q38.55 25.65 37.7 24.45 M37.1 23.85 Q36.25 23.2 35.2 23.05 L33.3 22.85 31.35 22.65 29.5 22.75 27.9 23.35 26.4 23.85 Q25.55 24.05 24.5 24.85 23.45 25.75 23.25 26.65 M35.9 35.95 Q36.2 35.65 35.45 35.15 M24.05 36.95 L25.15 36.85 26.35 37.85 26.4 37.85 28.4 38.2 30.55 38.05 32.3 37.65 33.45 37.45 Q34.1 37.4 35.1 36.75 M22.85 27.6 L22.45 29.7 22.1 31.85 Q21.8 32.75 21.8 33.55 L21.85 35.35 Q21.85 36.2 22.4 36.9 22.95 37.7 23.75 37.85 L25.85 37.95 26.35 37.85 M25.15 36.85 Q25.55 36.4 24.95 35.1"/><path fill="#6c2206" fill-opacity="0.2" d="M37.7 24.7 L38.0 25.25 40.25 30.15 40.6 30.7 40.9 31.1 40.15 31.8 37.55 32.3 Q36.2 32.45 35.7 31.95 35.2 31.55 34.9 29.85 L34.25 25.5 Q33.9 22.75 36.05 23.8 L37.7 24.7 M24.6 24.15 Q26.5 22.65 29.65 22.35 L29.7 22.6 Q29.75 23.15 28.85 23.65 28.0 24.15 26.65 24.25 L24.6 24.15 M23.65 27.4 Q24.2 25.95 25.45 25.55 L27.4 25.75 Q28.15 26.3 27.35 28.2 L26.05 30.75 Q25.6 31.3 24.95 31.35 24.25 31.4 23.75 30.95 23.2 30.45 23.1 29.6 23.05 28.8 23.65 27.4 M29.4 36.0 Q28.95 36.45 28.15 36.5 27.4 36.55 26.85 36.2 26.3 35.9 26.25 35.35 26.2 34.8 26.7 34.4 27.15 33.95 27.9 33.9 L29.25 34.2 Q29.85 34.5 29.9 35.05 29.95 35.6 29.4 36.0"/><path stroke="none" fill="url(#gradient4)" d="M30.45 31.6 Q28.75 33.75 26.65 34.35 24.5 35.0 23.15 33.75 21.75 32.6 21.95 30.2 22.2 27.9 23.9 25.8 25.55 23.7 27.65 23.05 29.8 22.4 31.15 23.65 32.55 24.85 32.35 27.2 32.15 29.55 30.45 31.6"/><path fill="#a2863d" stroke="none" d="M34.15 27.45 L33.8 27.5 34.0 26.95 Q33.4 25.0 31.0 24.8 L31.2 24.05 Q33.0 24.25 34.45 26.6 L34.15 27.45"/><path fill="#69531e" stroke="none" d="M34.15 27.45 L34.1 27.75 35.35 28.05 36.9 31.05 Q36.2 29.6 35.1 28.5 34.5 28.0 33.6 28.05 L33.8 27.5 34.15 27.45 M30.7 24.8 L30.45 24.8 30.15 23.2 Q31.25 22.4 32.8 22.45 31.7 22.7 31.05 23.3 L30.7 24.8 M29.8 24.65 Q27.85 24.35 26.8 30.15 27.0 25.2 29.4 23.6 L29.8 24.65"/><path fill="#c2a45f" stroke="none" d="M31.0 24.8 L30.7 24.8 31.05 23.3 32.0 23.45 31.2 24.05 31.0 24.8 M30.45 24.8 L30.2 24.8 29.8 24.65 29.4 23.6 27.8 23.15 30.15 23.2 30.45 24.8"/><path fill="#fbf1bf" fill-opacity="0.713725490196" d="M28.15 23.75 L28.0 24.0 27.7 24.15 27.4 24.05 27.3 23.85 27.4 23.6 27.65 23.5 28.0 23.55 28.15 23.75 M25.55 25.9 L25.35 25.55 25.5 25.15 26.0 25.0 26.55 25.05 26.8 25.45 26.6 25.8 26.05 26.0 25.55 25.9 M29.5 26.35 L29.25 26.5 28.95 26.4 28.75 26.2 28.9 26.0 Q29.0 25.9 29.2 25.9 L29.45 25.95 29.6 26.15 29.5 26.35"/><path fill="#fbf1bf" fill-opacity="0.713725490196" d="M32.8 25.9 L33.2 25.85 33.5 26.05 33.65 26.3 33.45 26.55 33.05 26.55 Q32.85 26.55 32.75 26.4 L32.65 26.1 Q32.65 25.95 32.8 25.9 M36.05 24.55 L36.25 25.0 35.95 25.4 35.35 25.45 34.8 25.2 Q34.55 24.95 34.6 24.7 L34.9 24.35 35.55 24.3 36.05 24.55 M31.85 22.85 L32.2 22.8 32.5 22.95 32.65 23.25 32.45 23.45 32.1 23.5 31.8 23.35 31.7 23.05 31.85 22.85"/></g><g id="c11"><path fill="#382510" fill-opacity="0.372549019608" d="M1.45 4.75 L3.6 5.1 7.35 4.65 Q8.25 4.2 8.1 3.55 11.15 4.35 8.3 5.3 5.55 6.15 1.45 4.75"/><path fill="#564c0b" stroke="none" d="M8.1 3.55 Q8.25 4.2 7.35 4.65 L3.6 5.1 1.45 4.75 1.1 4.6 0.55 4.25 Q-0.25 3.6 0.1 2.5 0.5 1.35 1.65 0.6 2.75 -0.2 3.65 0.05 4.6 0.3 5.5 0.95 L7.6 2.8 Q8.05 3.2 8.1 3.55"/><path fill="none" stroke="#382510" stroke-width="0.7" stroke-opacity="0.2" d="M8.1 3.55 Q8.05 3.2 7.6 2.8 L5.5 0.95 Q4.6 0.3 3.65 0.05 2.75 -0.2 1.65 0.6 0.5 1.35 0.1 2.5 -0.25 3.6 0.55 4.25 L1.1 4.6 1.45 4.75"/><path fill="#b68733" stroke="none" d="M3.05 0.35 Q3.75 0.45 4.0 0.9 4.3 1.4 4.0 2.0 L3.1 3.0 1.75 3.35 Q1.05 3.25 0.75 2.75 0.5 2.3 0.8 1.7 1.05 1.05 1.75 0.65 L3.05 0.35"/></g><g id="c12"><g><use transform="matrix(1.0,0.0,0.0,1.0,0.0,0.0)" xlink:href="#c11"/></g></g><g id="c13"><path fill="#564c0b" stroke="none" d="M38.95 31.0 L38.95 30.85 38.9 30.65 Q38.95 30.35 39.4 30.15 L40.45 30.05 Q41.0 30.1 41.1 30.35 L41.25 31.0 41.15 31.9 41.0 32.15 40.45 32.25 Q39.9 32.05 39.35 31.55 L38.95 31.0"/><path fill="#382510" fill-opacity="0.372549019608" d="M38.95 31.0 L39.35 31.55 Q39.9 32.05 40.45 32.25 L41.0 32.15 Q41.5 33.0 40.45 32.6 39.5 32.2 38.95 31.0"/><path fill="none" stroke="#382510" stroke-width="0.7" stroke-opacity="0.2" d="M41.0 32.15 L41.15 31.9 41.25 31.0 41.1 30.35 Q41.0 30.1 40.45 30.05 L39.4 30.15 Q38.95 30.35 38.9 30.65 L38.95 30.85 38.95 31.0"/><path fill="#b68733" stroke="none" d="M41.05 30.35 L41.1 30.65 40.7 30.95 40.15 30.95 39.7 30.75 39.7 30.4 Q39.8 30.2 40.05 30.15 L40.6 30.1 Q40.9 30.15 41.05 30.35"/></g><filter id="filter20"><feColorMatrix in="SourceGraphic" type="matrix" values="1.0 0.0 0.0 0.0 0.0 0.0 1.0 0.0 0.0 0.0 0.0 0.0 1.0 0.0 0.0 0.0 0.0 0.0 0.23046875 0.0" result="cxform"/><feComposite operator="in" in2="SourceGraphic" result="color-xform"/></filter></defs><g><g><use transform="matrix(1.0,0.0,0.0,1.0,0.0,0.0)" xlink:href="#c1"/></g><g><use transform="matrix(1.15496826172,0.0,0.0,1.15496826172,5.85,4.8)" xlink:href="#c9"/></g><g><use transform="matrix(1.0,0.0,0.0,1.0,0.0,0.0)" xlink:href="#c10"/></g><g><use transform="matrix(0.312728881836,-0.230224609375,0.148574829102,0.489624023438,22.0,25.2)" xlink:href="#c12"/></g><g><use transform="matrix(0.221038818359,0.332382202148,-0.462356567383,0.152191162109,38.4,22.75)" xlink:href="#c12"/></g><g><use transform="matrix(0.259307861328,-0.0225524902344,0.0767364501953,0.405319213867,30.8,26.95)" xlink:href="#c12"/></g><g><use transform="matrix(0.0736541748047,-0.168075561523,0.190093994141,0.142929077148,21.15,32.1)" xlink:href="#c12"/></g><g><use transform="matrix(0.143768310547,-0.105819702148,0.0978088378906,0.223480224609,24.95,23.25)" xlink:href="#c12"/></g><g><use transform="matrix(-0.101623535156,-0.152786254883,-0.162490844727,0.173645019531,38.5,29.4)" xlink:href="#c12"/></g><g><use transform="matrix(1.0,0.0,0.0,1.0,0.0,0.0)" xlink:href="#c13"/></g><g><use transform="matrix(0.162948608398,-0.0436706542969,0.128631591797,0.260604858398,30.0,28.7)" filter="url(#filter20)" xlink:href="#c6"/></g></g></svg>