<?xml version='1.0' encoding='UTF-8'?>
<svg xmlns:xlink="http://www.w3.org/1999/xlink" xmlns="http://www.w3.org/2000/svg" version="1.1" width="60px" height="60px" viewBox="0.0 0.0 60.0 60.0"><defs><g id="c1"><path fill="#000000" fill-opacity="0.00392156862745" d="M0.0 0.0 L60.0 0.0 60.0 60.0 0.0 60.0 0.0 0.0"/></g><g id="c2"><path fill="none" stroke="#000000" stroke-width="1.0" stroke-opacity="0.301960784314" d="M0.7 12.25 Q-0.45 9.75 0.75 8.25 1.2 7.6 2.15 7.15 2.8 6.7 3.8 6.35 L17.5 1.95 30.2 7.0 41.35 31.7 Q42.95 35.15 40.2 36.7 39.5 37.3 38.3 37.65 L25.5 41.8 25.45 41.75 24.55 42.0 11.85 37.0 0.7 12.25"/><path fill="#9d147b" stroke="none" d="M35.55 22.3 L31.5 13.2 29.75 9.2 16.95 4.25 5.5 7.85 Q1.65 9.1 3.35 12.8 L8.25 23.65 13.1 34.35 25.8 39.4 37.2 35.7 Q41.1 34.5 39.35 30.75 L35.55 22.3 M5.45 20.95 L1.35 11.8 Q0.4 9.65 1.1 8.3 1.45 7.65 2.15 7.15 2.8 6.7 3.8 6.35 L17.5 1.95 30.2 7.0 41.35 31.7 Q42.95 35.15 40.2 36.7 L38.9 37.25 25.2 41.65 12.5 36.65 5.45 20.95"/><path fill="#c47fad" stroke="none" d="M31.5 13.2 L35.55 22.3 39.35 30.75 Q41.1 34.5 37.2 35.7 L25.8 39.4 13.1 34.35 8.25 23.65 3.35 12.8 Q1.65 9.1 5.5 7.85 L16.95 4.25 29.75 9.2 31.5 13.2 M18.5 7.45 L9.1 10.55 9.55 11.6 Q9.8 12.8 9.15 13.6 8.4 14.45 7.1 14.4 L6.8 14.4 6.95 14.6 15.2 32.75 23.85 36.2 34.0 32.9 33.7 32.1 Q33.45 30.9 34.1 30.1 34.75 29.3 35.95 29.35 L35.8 29.0 27.75 10.95 18.5 7.45"/><path fill="#fcf2cf" stroke="none" d="M27.75 10.95 L35.8 29.0 35.95 29.35 Q34.75 29.3 34.1 30.1 33.45 30.9 33.7 32.1 L34.0 32.9 23.85 36.2 15.2 32.75 6.95 14.6 6.8 14.4 7.1 14.4 Q8.4 14.45 9.15 13.6 9.8 12.8 9.55 11.6 L9.1 10.55 18.5 7.45 27.75 10.95"/><path fill="#630a4c" stroke="none" d="M1.1 8.3 L0.75 8.25 Q1.2 7.6 2.15 7.15 1.45 7.65 1.1 8.3 M4.6 20.9 L5.45 20.95 12.5 36.65 11.55 36.25 11.25 35.55 4.6 20.9"/><path fill="#300525" stroke="none" d="M1.1 8.3 Q0.4 9.65 1.35 11.8 L5.45 20.95 4.6 20.9 0.7 12.25 Q-0.45 9.75 0.75 8.25 L1.1 8.3 M12.5 36.65 L25.2 41.65 38.9 37.25 40.2 36.7 Q39.5 37.3 38.3 37.65 L25.5 41.8 25.45 41.75 24.55 42.0 11.85 37.0 11.55 36.25 12.5 36.65"/><path fill="none" stroke="#bf9900" stroke-width="1.0" stroke-opacity="0.749019607843" d="M31.5 13.2 L35.55 22.3 M13.1 34.35 L8.25 23.65"/><path fill="none" stroke="#ffcc00" stroke-width="1.0" stroke-opacity="0.749019607843" d="M35.55 22.3 L39.35 30.75 Q41.1 34.5 37.2 35.7 L25.8 39.4 M8.25 23.65 L3.35 12.8 Q1.65 9.1 5.5 7.85 L16.95 4.25 29.75 9.2 31.5 13.2"/><path fill="none" stroke="#f0b92b" stroke-width="0.5" d="M27.75 10.95 L35.8 29.0 35.95 29.35 Q34.75 29.3 34.1 30.1 33.45 30.9 33.7 32.1 L34.0 32.9 23.85 36.2 15.2 32.75 6.95 14.6 6.8 14.4 7.1 14.4 Q8.4 14.45 9.15 13.6 9.8 12.8 9.55 11.6 L9.1 10.55 18.5 7.45"/><path fill="none" stroke="#000000" stroke-width="0.5" stroke-opacity="0.301960784314" d="M5.45 20.95 L1.35 11.8 Q0.4 9.65 1.1 8.3 M0.75 8.25 Q-0.45 9.75 0.7 12.25 L4.6 20.9 M5.45 20.95 L12.5 36.65 M25.2 41.65 L38.9 37.25 40.2 36.7 Q42.95 35.15 41.35 31.7 L30.2 7.0 M17.5 1.95 L3.8 6.35 Q2.8 6.7 2.15 7.15 1.45 7.65 1.1 8.3 M0.75 8.25 Q1.2 7.6 2.15 7.15 M11.25 35.55 L4.6 20.9 M25.5 41.8 L38.3 37.65 Q39.5 37.3 40.2 36.7"/><path fill="none" stroke="#ffcc00" stroke-width="0.5" stroke-opacity="0.749019607843" d="M18.5 7.45 L27.75 10.95"/><path fill="none" stroke="#f0b92b" stroke-width="1.0" stroke-opacity="0.749019607843" d="M25.8 39.4 L13.1 34.35"/><path fill="none" stroke="#432f2f" stroke-width="0.5" d="M12.5 36.65 L25.2 41.65"/></g><g id="c3"><path fill="#7fdbfe" stroke="none" d="M10.75 4.9 Q10.75 4.6 10.9 4.35 11.25 3.45 11.95 2.75 13.3 1.5 14.35 2.1 15.4 2.7 14.95 4.45 14.7 5.4 14.1 6.15 L13.75 6.5 Q13.1 7.15 12.35 7.35 L11.4 7.2 Q10.95 6.9 10.75 6.4 10.5 5.75 10.75 4.9 M7.5 5.9 Q7.0 5.85 6.6 5.5 6.05 5.0 5.8 4.15 L5.7 3.6 Q5.55 2.65 5.8 1.7 6.25 0.0 7.5 0.0 L7.6 0.0 Q8.85 0.0 9.3 1.7 9.55 2.65 9.4 3.6 L9.3 4.15 8.5 5.5 7.6 5.9 7.5 5.9 M4.35 4.9 Q4.6 5.75 4.35 6.4 L3.7 7.2 2.75 7.35 Q2.0 7.15 1.35 6.5 L1.0 6.15 Q0.4 5.4 0.15 4.45 -0.3 2.7 0.75 2.1 1.8 1.5 3.15 2.75 3.85 3.45 4.2 4.35 L4.35 4.9 M5.5 13.7 Q4.45 13.9 3.65 12.95 2.75 12.0 3.2 10.25 3.7 8.5 5.25 7.6 6.4 6.9 7.55 7.0 8.75 6.9 9.9 7.6 11.45 8.5 11.95 10.25 12.35 12.0 11.5 12.95 10.7 13.9 9.65 13.7 8.55 13.5 7.55 12.6 6.55 13.5 5.5 13.7"/></g><g id="c4"><g><use transform="matrix(1.0,0.0,0.0,1.0,0.0,0.0)" xlink:href="#c3"/></g></g><radialGradient gradientUnits="userSpaceOnUse" r="819.2" cx="0" cy="0" spreadMethod="pad" gradientTransform="matrix(0.0914459228516,0.0,0.0,0.0914459228516,0.6,3.4)" id="gradient1"><stop offset="0.0" stop-color="#ffffff"/><stop offset="1.0" stop-color="#ffffff" stop-opacity="0.0"/></radialGradient><g id="c5"><path stroke="none" fill="url(#gradient1)" d="M36.65 -54.65 Q60.05 -42.0 69.75 -17.95 80.55 8.9 68.0 34.1 55.45 59.35 26.8 68.2 -1.8 77.05 -29.7 64.3 -57.6 51.6 -68.45 24.75 -79.3 -2.05 -66.75 -27.25 L-66.7 -27.3 Q-54.1 -52.5 -25.5 -61.4 3.1 -70.2 31.0 -57.5 L36.65 -54.65"/></g><g id="c6"><g><use transform="matrix(1.0,0.0,0.0,1.0,0.0,0.0)" xlink:href="#c5"/></g></g><radialGradient gradientUnits="userSpaceOnUse" r="819.2" cx="0" cy="0" spreadMethod="pad" gradientTransform="matrix(0.209197998047,0.0,0.0,0.177108764648,67.15,107.2)" id="gradient2"><stop offset="0.356862745098" stop-color="#ffffff"/><stop offset="0.670588235294" stop-opacity="0.0"/></radialGradient><g id="c7"><path fill="none" stroke-linejoin="round" stroke-linecap="round" stroke="url(#gradient2)" stroke-width="0.5" d="M136.55 165.8 L68.6 106.0 68.4 106.0 118.25 201.5 M68.3 105.8 L68.35 105.8 68.3 105.8 68.3 105.85 68.4 106.0 68.3 106.0 86.55 211.5 M68.3 105.8 L68.3 105.85 68.3 106.0 68.15 105.95 18.25 151.55 M68.3 105.85 L68.25 105.85 68.3 106.0 50.0 193.2 M68.25 105.85 L68.15 105.95 0.05 97.7 M68.3 105.85 L68.25 105.8 68.25 105.85 M68.25 105.8 L68.2 105.7 0.0 45.7 M68.3 105.8 L68.25 105.75 68.25 105.8 M68.25 105.75 L68.2 105.7 18.25 10.05 M68.6 106.0 L68.35 105.8 118.25 60.15 M86.6 18.35 L68.3 105.8 M136.6 114.25 L68.6 106.0 M68.25 105.75 L49.95 0.05"/></g><g id="c8"><g><use transform="matrix(1.0,0.0,0.0,1.0,0.0,0.0)" xlink:href="#c7"/></g></g><g id="c9"><g><use transform="matrix(1.0,0.0,0.0,1.0,0.0,0.0)" xlink:href="#c2"/></g><g><use transform="matrix(0.238861083984,-0.0867004394531,0.10026550293,0.233917236328,34.25,31.15)" xlink:href="#c4"/></g><g><use transform="matrix(0.238861083984,-0.0867004394531,0.10026550293,0.233917236328,4.25,10.3)" xlink:href="#c4"/></g><g><use transform="matrix(0.141098022461,-0.0378112792969,0.111373901367,0.225646972656,20.25,20.65)" filter="url(#filter7)" xlink:href="#c6"/></g><g><use transform="matrix(-0.155029296875,0.0513153076172,0.0841827392578,0.147033691406,22.6,3.15)" filter="url(#filter8)" xlink:href="#c8"/></g></g><filter id="filter7"><feColorMatrix in="SourceGraphic" type="matrix" values="0.0 0.0 0.0 0.0 0.796875 0.0 0.0 0.0 0.0 0.59765625 0.0 0.0 0.0 0.0 0.19921875 0.0 0.0 0.0 1.0 0.0" result="cxform"/><feComposite operator="in" in2="SourceGraphic" result="color-xform"/></filter><filter id="filter8"><feColorMatrix in="SourceGraphic" type="matrix" values="0.0 0.0 0.0 0.0 0.99609375 0.0 0.0 0.0 0.0 0.99609375 0.0 0.0 0.0 0.0 0.99609375 0.0 0.0 0.0 1.0 0.0" result="cxform"/><feComposite operator="in" in2="SourceGraphic" result="color-xform"/></filter><g id="c10"><path fill="#ffba2e" fill-opacity="0.0" d="M52.0 0.0 L52.0 52.0 0.0 52.0 0.0 0.0 52.0 0.0"/></g><g id="c11"><g><use transform="matrix(1.0,0.0,0.0,1.0,0.0,0.0)" xlink:href="#c10"/></g></g><radialGradient gradientUnits="userSpaceOnUse" r="819.2" cx="0" cy="0" spreadMethod="pad" gradientTransform="matrix(0.0276184082031,0.00213623046875,-0.00178527832031,0.0127258300781,19.75,13.6)" id="gradient3"><stop offset="0.0" stop-color="#0f130d"/><stop offset="1.0" stop-color="#444f39"/></radialGradient><g id="c12"><path fill="#272e21" stroke="none" d="M36.65 22.6 L35.7 22.45 35.5 22.45 Q35.05 22.4 34.15 23.05 L32.85 23.7 31.95 24.6 31.35 25.2 30.95 24.55 30.9 24.1 30.95 24.1 Q33.8 21.15 35.75 21.15 L36.65 22.6"/><path fill="#bb6906" stroke="none" d="M36.7 22.6 L36.05 22.55 35.15 22.75 35.1 22.8 36.1 23.2 Q35.75 23.2 35.3 23.45 L34.5 23.25 33.45 23.85 33.1 24.1 33.1 25.35 33.15 25.4 33.6 25.35 33.7 25.5 34.05 25.65 34.8 25.9 Q33.85 26.85 34.05 27.9 34.15 28.3 36.05 26.9 L35.3 28.1 Q37.1 28.1 38.3 26.55 L38.3 26.5 39.0 23.2 Q39.7 24.05 40.15 25.65 L40.45 25.05 40.4 25.25 40.2 25.8 40.25 25.85 39.9 26.65 38.6 29.3 38.2 29.45 37.15 29.9 36.55 30.1 34.95 30.3 32.4 27.55 Q32.15 25.85 32.85 23.95 L34.15 23.05 Q35.05 22.4 35.5 22.45 L35.7 22.45 36.65 22.6 36.7 22.6"/><path fill="#e6b100" stroke="none" d="M35.3 23.45 Q35.75 23.2 36.1 23.2 L35.1 22.8 35.15 22.75 36.05 22.55 36.7 22.6 37.05 22.65 Q36.85 23.25 36.0 23.45 L35.3 23.45 M40.45 25.05 L40.15 25.65 Q39.7 24.05 39.0 23.2 L38.3 26.5 38.3 26.55 Q37.1 28.1 35.3 28.1 L36.05 26.9 Q34.15 28.3 34.05 27.9 33.85 26.85 34.8 25.9 L34.05 25.65 33.7 25.5 33.6 25.35 34.45 25.2 36.7 24.45 37.8 22.05 38.4 20.5 Q40.3 23.65 40.45 24.9 L40.45 25.05"/><path fill="#f6de5c" stroke="none" d="M33.6 25.35 L33.15 25.4 33.1 25.35 33.1 24.1 33.45 23.85 34.5 23.25 35.3 23.45 34.7 23.7 34.6 23.8 Q33.4 24.5 33.5 25.15 L33.6 25.35"/><path fill="#ffff2f" stroke="none" d="M35.3 23.45 L36.0 23.45 Q36.85 23.25 37.05 22.65 L37.0 22.6 38.25 20.35 38.4 20.5 37.8 22.05 36.7 24.45 34.45 25.2 33.6 25.35 33.5 25.15 Q33.4 24.5 34.6 23.8 L34.7 23.7 35.3 23.45"/><path fill="#0f130d" stroke="none" d="M34.15 23.05 L32.85 23.95 Q32.15 25.85 32.4 27.55 L34.95 30.3 34.25 30.65 Q32.05 29.0 31.4 27.85 L31.25 27.65 30.95 24.55 31.35 25.2 31.95 24.6 32.85 23.7 34.15 23.05"/><path fill="none" stroke="#000000" stroke-width="0.5" stroke-opacity="0.301960784314" d="M37.05 22.65 L36.7 22.6 M36.65 22.6 L35.7 22.45 35.5 22.45 Q35.05 22.4 34.15 23.05 L32.85 23.95 Q32.15 25.85 32.4 27.55 L34.95 30.3 36.55 30.1 37.15 29.9 38.2 29.45 38.6 29.3 39.9 26.65 40.25 25.85 40.2 25.8 40.4 25.25 40.45 25.05 40.45 24.9 Q40.3 23.65 38.4 20.5 L38.25 20.35 37.0 22.6 37.05 22.65 M36.65 22.6 L35.75 21.15 Q33.8 21.15 30.95 24.1 L30.9 24.1 30.95 24.55 31.25 27.65 31.4 27.85 Q32.05 29.0 34.25 30.65 L34.95 30.3"/><path stroke="none" fill="url(#gradient3)" d="M19.1 6.4 L20.15 4.1 Q21.0 2.45 21.75 1.75 22.65 0.9 24.05 0.15 L24.7 0.65 Q26.0 2.8 26.95 5.9 27.7 8.45 27.85 10.3 28.3 9.85 29.3 9.25 L29.85 9.0 Q30.5 8.65 31.05 8.5 L31.05 9.0 Q30.85 10.05 29.75 11.6 L28.65 12.95 27.65 12.05 Q26.95 11.6 26.35 11.55 L26.2 11.6 26.1 11.7 25.65 12.3 Q20.25 11.45 18.35 9.1 17.15 11.0 16.2 11.45 15.25 11.8 14.35 11.05 L14.35 9.5 14.25 8.85 14.25 8.8 14.25 8.75 Q14.4 7.7 15.0 6.55 15.55 5.3 16.25 4.8 L16.3 4.75 Q18.2 6.05 18.75 7.2 L19.1 6.4"/><path fill="#556248" stroke="none" d="M24.7 0.65 Q25.85 1.85 27.3 4.45 28.85 7.35 29.3 9.25 28.3 9.85 27.85 10.3 27.7 8.45 26.95 5.9 26.0 2.8 24.7 0.65 M31.05 8.5 L31.2 9.8 31.1 11.65 Q30.95 12.85 30.4 13.75 L29.95 14.65 30.95 15.0 Q31.95 15.55 33.1 16.6 L33.55 17.2 35.35 19.45 34.95 19.85 32.6 19.75 Q30.35 19.6 27.5 18.4 24.65 17.15 24.8 16.0 25.0 14.9 26.25 14.45 L26.4 14.4 27.45 14.25 29.75 14.6 29.85 14.65 29.95 14.65 29.1 13.65 28.65 14.1 27.8 14.1 27.45 14.1 26.5 13.8 25.45 13.35 25.4 13.65 25.2 14.35 24.65 14.35 24.1 14.2 23.95 14.15 23.5 14.0 23.3 14.75 22.3 14.2 Q21.4 13.6 21.45 12.75 L21.6 12.4 22.45 12.65 23.5 13.45 Q23.5 13.05 23.75 12.7 L24.15 12.4 24.7 12.6 25.2 12.95 25.65 12.3 26.1 11.7 26.2 11.6 26.35 11.55 Q26.95 11.6 27.65 12.05 L28.65 12.95 29.75 11.6 Q30.85 10.05 31.05 9.0 L31.05 8.5 M35.15 22.45 L36.25 23.0 Q37.8 23.85 39.65 25.25 L41.15 26.55 41.25 26.65 Q40.2 27.6 35.25 28.6 L28.3 29.45 Q25.55 29.3 22.7 26.2 24.65 24.7 27.0 23.7 30.55 22.2 33.9 22.3 L35.1 22.55 35.15 22.45 M0.95 8.15 L3.65 8.8 4.3 9.0 3.8 10.3 Q2.0 9.7 1.05 9.0 0.0 8.25 0.95 8.15 M12.55 2.4 L13.25 4.25 Q14.0 6.55 14.25 8.8 L14.25 8.85 14.35 9.5 14.35 11.05 14.2 14.2 13.95 15.9 13.0 16.1 Q11.9 15.95 9.7 13.4 7.4 10.75 7.25 8.75 7.55 7.6 8.1 6.65 L8.75 5.65 Q10.05 4.1 12.55 2.4 M16.3 4.75 L17.3 5.05 Q18.25 5.45 19.1 6.4 L18.75 7.2 Q18.2 6.05 16.3 4.75 M17.85 11.4 L19.0 12.6 19.75 14.15 19.65 14.45 19.35 15.1 18.9 14.85 Q17.3 13.8 17.55 12.3 17.65 11.7 17.85 11.4"/><path fill="#444f39" stroke="none" d="M35.35 19.45 L35.75 20.0 35.8 21.0 35.7 21.25 35.6 21.15 35.6 21.1 Q32.95 20.05 31.1 20.15 L28.2 20.95 Q24.95 22.0 22.6 23.3 21.2 23.1 20.35 22.15 19.4 21.0 19.65 19.25 19.8 18.1 20.2 17.5 L20.35 17.35 20.4 17.35 20.45 17.3 20.65 17.15 22.15 16.15 23.0 15.75 Q25.05 14.8 26.25 14.45 25.0 14.9 24.8 16.0 24.65 17.15 27.5 18.4 30.35 19.6 32.6 19.75 L34.95 19.85 35.35 19.45 M41.25 26.65 L41.4 26.8 41.6 27.15 41.6 27.6 40.5 27.8 40.15 27.85 38.55 28.05 36.45 28.5 34.65 29.1 31.8 29.8 Q30.3 30.35 28.9 31.15 L25.5 33.0 Q23.85 33.7 22.35 33.6 20.6 33.45 19.15 32.65 L18.95 32.25 Q18.55 31.35 18.65 30.6 L18.8 29.75 19.1 29.05 19.8 28.85 Q21.1 27.35 22.7 26.2 L22.25 25.75 23.6 24.55 24.85 23.9 Q29.1 21.8 32.85 22.1 L33.9 22.3 Q30.55 22.2 27.0 23.7 24.65 24.7 22.7 26.2 25.55 29.3 28.3 29.45 L35.25 28.6 Q40.2 27.6 41.25 26.65 M0.0 8.7 L0.05 8.1 0.35 8.05 0.95 8.15 Q0.0 8.25 1.05 9.0 2.0 9.7 3.8 10.3 L4.3 9.0 5.15 7.6 Q7.0 4.8 10.8 3.05 11.6 2.7 12.5 2.4 L12.55 2.4 Q10.05 4.1 8.75 5.65 L8.1 6.65 Q7.55 7.6 7.25 8.75 7.4 10.75 9.7 13.4 11.9 15.95 13.0 16.1 L13.95 15.9 14.3 15.15 Q15.45 13.5 17.85 11.4 17.65 11.7 17.55 12.3 17.3 13.8 18.9 14.85 L19.35 15.1 19.65 14.45 19.75 14.15 20.45 13.35 Q21.15 12.6 21.6 12.4 L21.45 12.75 Q21.4 13.6 22.3 14.2 L23.3 14.75 22.85 15.3 21.55 16.05 20.55 15.7 20.1 15.5 20.25 16.8 19.7 16.25 18.95 15.8 18.95 15.85 17.95 17.55 Q18.0 16.35 17.7 15.35 L17.4 14.5 Q15.5 15.8 14.7 17.15 14.3 17.65 14.0 18.75 L12.95 16.6 11.7 17.5 10.2 15.35 8.35 12.85 7.15 11.55 6.1 10.5 5.45 11.55 Q5.15 12.3 5.35 13.6 L5.35 13.65 Q4.4 12.0 4.4 11.35 3.55 11.95 3.3 12.8 L2.65 12.35 2.55 12.2 1.9 11.4 0.0 8.7"/><path fill="#0f130d" stroke="none" d="M36.7 34.85 L36.3 35.1 35.05 35.6 33.75 36.1 33.55 36.2 34.85 34.8 35.9 33.7 37.6 31.7 Q38.35 30.65 38.85 30.45 L38.8 31.35 37.2 34.1 36.7 34.85 M31.1 36.9 L25.95 37.7 24.7 37.85 24.6 37.85 24.5 37.85 24.5 37.8 24.55 37.8 25.3 37.6 Q27.15 37.05 28.5 36.05 L28.65 35.9 31.85 33.05 33.7 31.55 Q33.9 31.75 33.7 32.6 33.6 33.7 32.35 35.3 L31.15 36.8 31.1 36.85 31.1 36.9 M19.75 14.15 L19.0 12.6 17.85 11.4 Q15.45 13.5 14.3 15.15 L13.95 15.9 14.2 14.2 14.35 11.05 Q15.25 11.8 16.2 11.45 17.15 11.0 18.35 9.1 20.25 11.45 25.65 12.3 L25.2 12.95 24.7 12.6 24.15 12.4 23.75 12.7 Q23.5 13.05 23.5 13.45 L22.45 12.65 21.6 12.4 Q21.15 12.6 20.45 13.35 L19.75 14.15 M8.25 19.7 L8.3 19.75 8.4 19.75 8.45 19.75 10.5 20.95 Q11.1 21.2 12.9 22.5 13.65 23.3 14.3 24.7 L15.25 26.9 15.4 27.2 15.6 28.15 Q15.5 28.1 16.15 30.45 L16.35 31.4 16.55 32.15 Q15.55 29.25 14.05 28.45 L11.75 27.25 Q11.25 26.95 10.05 25.1 8.95 23.2 8.55 21.55 8.1 19.8 8.25 19.7"/><path fill="#272e21" stroke="none" d="M35.7 21.25 L35.2 22.35 35.15 22.45 35.1 22.55 33.9 22.3 32.85 22.1 Q29.1 21.8 24.85 23.9 L23.6 24.55 22.05 25.5 20.9 26.4 19.95 27.2 19.1 27.45 17.45 24.3 16.75 21.9 16.75 21.95 16.75 21.65 16.75 21.55 16.7 21.5 15.95 21.95 15.5 22.2 13.95 19.6 13.45 20.45 Q13.1 21.0 12.8 21.0 L11.1 20.45 9.55 19.75 Q7.8 18.55 7.1 17.55 L6.9 19.1 6.75 19.0 6.6 18.9 5.8 18.55 4.1 17.05 3.9 16.85 3.75 16.7 Q0.05 12.6 0.0 8.7 L1.9 11.4 2.55 12.2 2.65 12.35 3.3 12.8 Q3.55 11.95 4.4 11.35 4.4 12.0 5.35 13.65 L5.35 13.6 Q5.15 12.3 5.45 11.55 L6.1 10.5 7.15 11.55 8.35 12.85 10.2 15.35 11.7 17.5 12.95 16.6 14.0 18.75 Q14.3 17.65 14.7 17.15 15.5 15.8 17.4 14.5 L17.7 15.35 Q18.0 16.35 17.95 17.55 L18.95 15.85 18.95 15.8 19.7 16.25 20.25 16.8 20.1 15.5 20.55 15.7 21.55 16.05 22.85 15.3 23.3 14.75 23.5 14.0 23.95 14.15 24.1 14.2 24.65 14.35 25.2 14.35 25.4 13.65 25.45 13.35 26.5 13.8 27.45 14.1 27.8 14.1 28.65 14.1 29.1 13.65 29.95 14.65 29.85 14.65 29.75 14.6 27.45 14.25 26.4 14.4 26.25 14.45 Q25.05 14.8 23.0 15.75 L22.15 16.15 20.65 17.15 20.45 17.3 20.4 17.35 20.35 17.35 20.2 17.5 Q19.8 18.1 19.65 19.25 19.4 21.0 20.35 22.15 21.2 23.1 22.6 23.3 24.95 22.0 28.2 20.95 L31.1 20.15 Q32.95 20.05 35.6 21.1 L35.6 21.15 35.7 21.25 M41.6 27.6 L41.7 28.1 41.6 28.3 Q41.5 28.05 40.45 27.9 L40.15 27.85 40.5 27.8 41.6 27.6 M4.6 24.0 L4.55 23.95 Q3.75 20.25 3.75 19.15 L3.95 19.05 4.65 18.7 Q4.95 24.45 8.6 27.1 L9.6 27.8 10.0 28.05 Q11.9 28.9 14.3 29.15 L11.55 30.2 10.2 29.25 8.4 28.35 8.05 28.2 8.05 28.1 Q5.7 26.75 4.9 25.15 L4.7 24.6 4.6 24.0 M22.25 25.75 L22.7 26.2 Q21.1 27.35 19.8 28.85 L20.05 28.55 21.0 27.05 22.25 25.75 M19.1 29.05 L18.8 29.75 18.65 30.6 Q18.55 31.35 18.95 32.25 L19.15 32.65 Q20.6 33.45 22.35 33.6 23.85 33.7 25.5 33.0 L28.9 31.15 Q30.3 30.35 31.8 29.8 L34.65 29.1 Q32.95 29.6 32.25 30.05 30.9 30.65 29.85 32.0 28.75 33.35 26.0 35.0 24.55 35.9 23.3 36.3 L21.9 36.2 20.2 36.0 20.2 36.05 20.05 36.0 19.3 35.55 Q17.2 34.4 16.9 33.35 L16.55 32.15 16.35 31.4 16.15 30.45 15.9 29.3 15.8 29.05 15.75 28.5 15.6 28.15 15.4 27.2 15.25 26.9 14.3 24.7 Q13.65 23.3 12.9 22.5 L14.0 22.35 14.5 23.1 14.8 23.4 16.65 22.7 Q16.4 24.25 16.9 25.7 L17.5 27.45 18.25 28.8 18.4 29.1 18.5 29.1 19.05 29.0 19.1 29.05 M20.4 17.35 Q17.55 19.2 16.65 20.75 L16.65 21.35 16.7 21.5 16.65 21.35 16.65 20.75 Q17.55 19.2 20.4 17.35 M16.75 21.65 L16.75 21.9 16.75 21.65"/><path fill="#e6b385" stroke="none" d="M41.6 28.3 L41.6 28.9 41.35 28.55 41.3 28.6 39.25 28.4 35.75 29.35 Q33.4 30.1 32.25 30.7 31.1 31.35 29.85 32.65 L26.3 35.4 24.7 36.2 23.3 36.3 Q24.55 35.9 26.0 35.0 28.75 33.35 29.85 32.0 30.9 30.65 32.25 30.05 32.95 29.6 34.65 29.1 L36.45 28.5 38.55 28.05 40.15 27.85 40.45 27.9 Q41.5 28.05 41.6 28.3"/><path fill="#c98950" stroke="none" d="M41.6 28.9 Q39.65 32.2 38.2 33.85 L37.95 33.95 38.5 33.0 39.25 31.45 Q39.55 30.45 39.05 30.45 L38.85 30.45 Q38.35 30.65 37.6 31.7 L35.9 33.7 34.85 34.8 33.05 35.25 Q34.05 33.8 34.15 32.7 34.4 31.5 34.0 31.45 L33.7 31.55 31.85 33.05 28.65 35.9 28.15 35.95 24.7 36.2 Q23.2 36.8 21.8 36.7 L21.7 36.7 18.1 36.0 16.2 35.15 15.9 35.0 15.15 34.05 Q12.05 30.65 9.65 29.85 L8.35 29.3 Q6.6 28.6 5.5 27.9 4.0 26.9 3.55 26.2 L3.1 25.05 3.1 25.0 3.25 24.75 Q3.5 24.4 4.6 24.0 L4.7 24.6 4.9 25.15 Q5.7 26.75 8.05 28.1 L8.05 28.2 8.4 28.35 10.2 29.25 11.55 30.2 11.75 30.4 Q13.35 31.65 15.55 33.85 L16.15 34.45 16.25 34.5 17.3 35.25 17.8 35.6 Q18.95 36.3 21.1 36.45 L21.15 36.45 21.5 36.45 23.3 36.3 24.7 36.2 26.3 35.4 29.85 32.65 Q31.1 31.35 32.25 30.7 33.4 30.1 35.75 29.35 L39.25 28.4 41.3 28.6 41.35 28.55 41.6 28.9"/><path fill="#8c5a2d" stroke="none" d="M37.4 34.6 L36.7 34.85 37.2 34.1 38.8 31.35 38.85 30.45 39.05 30.45 Q39.55 30.45 39.25 31.45 L38.5 33.0 37.95 33.95 37.4 34.6 M31.85 36.65 L31.2 36.85 31.1 36.9 31.1 36.85 31.15 36.8 32.35 35.3 Q33.6 33.7 33.7 32.6 33.9 31.75 33.7 31.55 L34.0 31.45 Q34.4 31.5 34.15 32.7 34.05 33.8 33.05 35.25 L31.85 36.65 M16.8 37.0 L15.1 36.2 Q12.2 34.05 8.6 33.05 L8.2 32.95 9.0 33.0 9.45 32.5 Q9.65 31.85 9.15 31.05 L8.35 29.3 9.65 29.85 Q12.05 30.65 15.15 34.05 L15.9 35.0 16.25 36.0 16.4 36.45 16.8 37.0"/><path fill="#a66b35" stroke="none" d="M38.2 33.85 L37.4 34.6 37.95 33.95 38.2 33.85 M33.55 36.2 L33.2 36.3 32.8 36.4 31.85 36.65 33.05 35.25 34.85 34.8 33.55 36.2 M24.5 37.85 L20.95 37.8 18.05 37.4 18.0 37.35 16.8 37.0 16.4 36.45 16.25 36.0 15.9 35.0 16.2 35.15 18.1 36.0 21.7 36.7 21.8 36.7 Q23.2 36.8 24.7 36.2 L28.15 35.95 28.65 35.9 28.5 36.05 Q27.15 37.05 25.3 37.6 L24.55 37.8 24.5 37.8 24.5 37.85 M8.2 32.95 Q4.9 32.0 3.95 30.65 L3.8 30.4 3.75 30.05 3.3 28.1 3.0 25.35 3.1 25.0 3.1 25.05 3.55 26.2 Q4.0 26.9 5.5 27.9 6.6 28.6 8.35 29.3 L9.15 31.05 Q9.65 31.85 9.45 32.5 L9.0 33.0 8.2 32.95"/><path fill="#181f14" stroke="none" d="M3.75 19.15 L3.75 18.95 4.1 17.05 5.8 18.55 6.6 18.9 6.75 19.0 6.9 19.1 7.1 17.55 Q7.8 18.55 9.55 19.75 L11.1 20.45 12.8 21.0 Q13.1 21.0 13.45 20.45 L13.95 19.6 15.5 22.2 15.95 21.95 16.7 21.5 16.75 21.55 16.75 21.65 16.75 21.95 16.75 21.9 17.45 24.3 19.1 27.45 19.95 27.2 20.9 26.4 22.05 25.5 23.6 24.55 22.25 25.75 21.0 27.05 20.05 28.55 19.8 28.85 19.1 29.05 19.05 29.0 18.5 29.1 18.4 29.1 18.25 28.8 17.5 27.45 16.9 25.7 Q16.4 24.25 16.65 22.7 L14.8 23.4 14.5 23.1 14.0 22.35 12.9 22.5 Q11.1 21.2 10.5 20.95 L8.45 19.75 8.4 19.75 8.3 19.75 8.25 19.7 7.55 19.4 6.9 19.1 7.55 19.4 8.25 19.7 Q8.1 19.8 8.55 21.55 8.95 23.2 10.05 25.1 11.25 26.95 11.75 27.25 L14.05 28.45 Q15.55 29.25 16.55 32.15 L16.9 33.35 Q17.2 34.4 19.3 35.55 L20.05 36.0 20.2 36.05 20.2 36.0 21.9 36.2 23.3 36.3 21.5 36.45 21.15 36.45 21.1 36.45 Q18.95 36.3 17.8 35.6 L17.3 35.25 16.25 34.5 16.15 34.45 15.55 33.85 Q13.35 31.65 11.75 30.4 L11.55 30.2 14.3 29.15 Q11.9 28.9 10.0 28.05 L9.6 27.8 8.6 27.1 Q4.95 24.45 4.65 18.7 L3.95 19.05 3.75 19.15 M15.6 28.15 L15.75 28.5 15.8 29.05 15.9 29.3 16.15 30.45 Q15.5 28.1 15.6 28.15"/><path fill="none" stroke="#000000" stroke-width="0.5" stroke-opacity="0.301960784314" d="M19.1 6.4 L20.15 4.1 Q21.0 2.45 21.75 1.75 22.65 0.9 24.05 0.15 L24.7 0.65 Q25.85 1.85 27.3 4.45 28.85 7.35 29.3 9.25 L29.85 9.0 Q30.5 8.65 31.05 8.5 L31.2 9.8 31.1 11.65 Q30.95 12.85 30.4 13.75 L29.95 14.65 30.95 15.0 Q31.95 15.55 33.1 16.6 L33.55 17.2 35.35 19.45 35.75 20.0 35.8 21.0 35.7 21.25 35.2 22.35 35.15 22.45 36.25 23.0 Q37.8 23.85 39.65 25.25 L41.15 26.55 41.25 26.65 41.4 26.8 41.6 27.15 41.6 27.6 41.7 28.1 41.6 28.3 41.6 28.9 Q39.65 32.2 38.2 33.85 L37.4 34.6 36.7 34.85 36.3 35.1 35.05 35.6 33.75 36.1 33.55 36.2 33.2 36.3 32.8 36.4 31.85 36.65 31.2 36.85 31.1 36.9 25.95 37.7 24.7 37.85 24.6 37.85 24.5 37.85 20.95 37.8 18.05 37.4 18.0 37.35 16.8 37.0 15.1 36.2 Q12.2 34.05 8.6 33.05 L8.2 32.95 Q4.9 32.0 3.95 30.65 L3.8 30.4 3.75 30.05 3.3 28.1 3.0 25.35 3.1 25.0 3.25 24.75 Q3.5 24.4 4.6 24.0 L4.55 23.95 Q3.75 20.25 3.75 19.15 L3.75 18.95 4.1 17.05 3.9 16.85 3.75 16.7 Q0.05 12.6 0.0 8.7 L0.05 8.1 0.35 8.05 0.95 8.15 3.65 8.8 4.3 9.0 5.15 7.6 Q7.0 4.8 10.8 3.05 11.6 2.7 12.5 2.4 L12.55 2.4 13.25 4.25 Q14.0 6.55 14.25 8.8 L14.25 8.75 Q14.4 7.7 15.0 6.55 15.55 5.3 16.25 4.8 L16.3 4.75 17.3 5.05 Q18.25 5.45 19.1 6.4 M29.95 14.65 L29.85 14.65 29.75 14.6 27.45 14.25 26.4 14.4 26.25 14.45 M14.35 11.05 L14.2 14.2 13.95 15.9 M20.45 17.3 L20.65 17.15 22.15 16.15 23.0 15.75 Q25.05 14.8 26.25 14.45 M35.15 22.45 L35.1 22.55 33.9 22.3 32.85 22.1 Q29.1 21.8 24.85 23.9 L23.6 24.55 22.05 25.5 20.9 26.4 19.95 27.2 19.1 27.45 17.45 24.3 16.75 21.9 16.75 21.65 16.75 21.55 16.7 21.5 16.65 21.35 16.65 20.75 Q17.55 19.2 20.4 17.35 M40.15 27.85 L40.45 27.9 Q41.5 28.05 41.6 28.3 M34.65 29.1 L36.45 28.5 38.55 28.05 40.15 27.85 M34.65 29.1 Q32.95 29.6 32.25 30.05 30.9 30.65 29.85 32.0 28.75 33.35 26.0 35.0 24.55 35.9 23.3 36.3 L21.5 36.45 21.15 36.45 21.1 36.45 Q18.95 36.3 17.8 35.6 L17.3 35.25 16.25 34.5 M16.15 34.45 L15.55 33.85 Q13.35 31.65 11.75 30.4 L11.55 30.2 10.2 29.25 8.4 28.35 8.05 28.2 8.05 28.1 Q5.7 26.75 4.9 25.15 L4.7 24.6 4.6 24.0 M6.9 19.1 L7.55 19.4 8.25 19.7 8.3 19.75 8.4 19.75 8.45 19.75 10.5 20.95 Q11.1 21.2 12.9 22.5 13.65 23.3 14.3 24.7 L15.25 26.9 15.4 27.2 M31.1 36.85 L31.1 36.9 M14.25 8.8 L14.25 8.85 14.35 9.5 14.35 11.05 M9.6 27.8 L10.0 28.05 M4.1 17.05 L5.8 18.55 6.6 18.9 6.75 19.0 6.9 19.1"/><path fill="#ebede7" stroke="none" d="M29.85 16.25 Q29.3 15.3 27.85 14.3 L28.85 16.45 Q26.45 16.95 25.05 17.95 27.05 17.3 29.15 17.0 30.2 18.65 30.45 19.8 30.75 18.5 30.15 16.8 L32.4 16.55 29.85 16.25"/><path fill="none" stroke="#000000" stroke-width="0.5" stroke-opacity="0.301960784314" d="M29.85 16.25 Q29.3 15.3 27.85 14.3 L28.85 16.45 Q26.45 16.95 25.05 17.95 27.05 17.3 29.15 17.0 30.2 18.65 30.45 19.8 30.75 18.5 30.15 16.8 L32.4 16.55 29.85 16.25"/><path fill="#272e21" stroke="none" d="M24.2 26.55 L23.3 26.2 23.1 26.1 21.6 26.3 20.15 26.5 Q19.55 26.65 18.95 27.15 L18.1 27.5 17.95 26.8 18.1 26.3 18.15 26.35 Q21.9 24.4 23.8 25.0 L24.2 26.55"/><path fill="#bb6906" stroke="none" d="M24.3 26.6 L23.6 26.35 22.65 26.3 23.45 26.95 Q23.1 26.8 22.6 26.95 L21.85 26.5 20.7 26.85 20.2 27.0 Q19.8 27.65 19.85 28.15 L19.85 28.2 20.3 28.25 20.4 28.45 20.65 28.6 21.35 29.05 Q20.05 29.7 19.95 30.7 L22.25 30.4 21.05 31.25 Q22.85 31.75 24.55 30.65 L24.6 30.65 26.35 27.85 Q26.75 28.75 26.65 30.35 L27.15 29.9 27.0 30.05 26.7 30.55 26.65 30.6 26.15 31.2 23.9 33.25 23.5 33.3 22.3 33.45 21.65 33.45 20.1 33.2 18.4 29.95 Q18.75 28.3 20.0 26.75 L21.6 26.3 23.1 26.1 23.3 26.2 24.2 26.55 24.3 26.6"/><path fill="#e6b100" stroke="none" d="M22.6 26.95 Q23.1 26.8 23.45 26.95 L22.65 26.3 23.6 26.35 24.3 26.6 24.6 26.7 Q24.15 27.25 23.25 27.2 L22.6 26.95 M27.15 29.9 L26.65 30.35 Q26.75 28.75 26.35 27.85 L24.6 30.65 24.55 30.65 Q22.85 31.75 21.05 31.25 L22.25 30.4 19.95 30.7 Q20.05 29.7 21.35 29.05 L20.65 28.6 20.4 28.45 20.3 28.25 21.2 28.35 23.65 28.3 25.5 26.4 26.6 25.05 Q27.45 28.6 27.25 29.7 L27.15 29.9"/><path fill="#f6de5c" stroke="none" d="M20.3 28.25 L19.85 28.2 19.85 28.15 Q19.8 27.65 20.2 27.0 L20.7 26.85 21.85 26.5 22.6 26.95 21.9 27.1 21.75 27.1 Q20.35 27.4 20.25 28.05 L20.3 28.25"/><path fill="#ffff2f" stroke="none" d="M22.6 26.95 L23.25 27.2 Q24.15 27.25 24.6 26.7 L26.5 24.9 26.6 25.05 25.5 26.4 23.65 28.3 21.2 28.35 20.3 28.25 20.25 28.05 Q20.35 27.4 21.75 27.1 L21.9 27.1 22.6 26.95"/><path fill="#0f130d" stroke="none" d="M21.6 26.3 L20.0 26.75 Q18.75 28.3 18.4 29.95 L20.1 33.2 19.25 33.35 Q17.55 31.2 17.3 29.95 L17.3 29.75 17.95 26.8 18.1 27.5 18.95 27.15 Q19.55 26.65 20.15 26.5 L21.6 26.3"/><path fill="none" stroke="#000000" stroke-width="0.5" stroke-opacity="0.301960784314" d="M24.6 26.7 L24.3 26.6 M24.2 26.55 L23.3 26.2 23.1 26.1 21.6 26.3 20.0 26.75 Q18.75 28.3 18.4 29.95 L20.1 33.2 21.65 33.45 22.3 33.45 23.5 33.3 23.9 33.25 26.15 31.2 26.65 30.6 26.7 30.55 27.0 30.05 27.15 29.9 27.25 29.7 Q27.45 28.6 26.6 25.05 L26.5 24.9 24.6 26.7 M24.2 26.55 L23.8 25.0 Q21.9 24.4 18.15 26.35 L18.1 26.3 17.95 26.8 17.3 29.75 17.3 29.95 Q17.55 31.2 19.25 33.35 L20.1 33.2"/></g><g id="c13"><g><use transform="matrix(1.0,0.0,0.0,1.0,0.0,0.0)" xlink:href="#c12"/></g></g><g id="c14"><g><use transform="matrix(1.0,0.0,0.0,1.0,0.0,0.0)" xlink:href="#c11"/></g><g><use transform="matrix(1.0,0.0,0.0,1.0,9.2,1.05)" filter="url(#filter12)" xlink:href="#c13"/></g><g><use transform="matrix(1.0,0.0,0.0,1.0,0.8,13.05)" xlink:href="#c13"/></g></g><filter id="filter12"><feColorMatrix in="SourceGraphic" type="matrix" values="0.578125 0.0 0.0 0.0 0.0 0.0 0.578125 0.0 0.0 0.0 0.0 0.0 0.578125 0.0 0.0 0.0 0.0 0.0 1.0 0.0" result="cxform"/><feComposite operator="in" in2="SourceGraphic" result="color-xform"/></filter><filter id="filter17"><feColorMatrix in="SourceGraphic" type="matrix" values="1.0 0.0 0.0 0.0 0.0 0.0 1.0 0.0 0.0 0.0 0.0 0.0 1.0 0.0 0.0 0.0 0.0 0.0 0.23046875 0.0" result="cxform"/><feComposite operator="in" in2="SourceGraphic" result="color-xform"/></filter></defs><g><g><use transform="matrix(1.0,0.0,0.0,1.0,0.0,0.0)" xlink:href="#c1"/></g><g><use transform="matrix(1.15496826172,0.0,0.0,1.15496826172,5.85,4.8)" xlink:href="#c9"/></g><g><use transform="matrix(0.431213378906,-0.104553222656,0.104553222656,0.431213378906,16.55,20.65)" xlink:href="#c14"/></g><g><use transform="matrix(0.162948608398,-0.0436706542969,0.128631591797,0.260604858398,30.0,28.7)" filter="url(#filter17)" xlink:href="#c6"/></g></g></svg>