<?xml version='1.0' encoding='UTF-8'?>
<svg xmlns:xlink="http://www.w3.org/1999/xlink" xmlns="http://www.w3.org/2000/svg" version="1.1" width="60px" height="60px" viewBox="0.0 0.0 60.0 60.0"><defs><g id="c1"><path fill="#000000" fill-opacity="0.00392156862745" d="M0.0 0.0 L60.0 0.0 60.0 60.0 0.0 60.0 0.0 0.0"/></g><g id="c2"><path fill="none" stroke="#000000" stroke-width="1.0" stroke-opacity="0.301960784314" d="M0.7 12.25 Q-0.45 9.75 0.75 8.25 1.2 7.6 2.15 7.15 2.8 6.7 3.8 6.35 L17.5 1.95 30.2 7.0 41.35 31.7 Q42.95 35.15 40.2 36.7 39.5 37.3 38.3 37.65 L25.5 41.8 25.45 41.75 24.55 42.0 11.85 37.0 0.7 12.25"/><path fill="#9d147b" stroke="none" d="M35.55 22.3 L31.5 13.2 29.75 9.2 16.95 4.25 5.5 7.85 Q1.65 9.1 3.35 12.8 L8.25 23.65 13.1 34.35 25.8 39.4 37.2 35.7 Q41.1 34.5 39.35 30.75 L35.55 22.3 M5.45 20.95 L1.35 11.8 Q0.4 9.65 1.1 8.3 1.45 7.65 2.15 7.15 2.8 6.7 3.8 6.35 L17.5 1.95 30.2 7.0 41.35 31.7 Q42.95 35.15 40.2 36.7 L38.9 37.25 25.2 41.65 12.5 36.65 5.45 20.95"/><path fill="#c47fad" stroke="none" d="M31.5 13.2 L35.55 22.3 39.35 30.75 Q41.1 34.5 37.2 35.7 L25.8 39.4 13.1 34.35 8.25 23.65 3.35 12.8 Q1.65 9.1 5.5 7.85 L16.95 4.25 29.75 9.2 31.5 13.2 M18.5 7.45 L9.1 10.55 9.55 11.6 Q9.8 12.8 9.15 13.6 8.4 14.45 7.1 14.4 L6.8 14.4 6.95 14.6 15.2 32.75 23.85 36.2 34.0 32.9 33.7 32.1 Q33.45 30.9 34.1 30.1 34.75 29.3 35.95 29.35 L35.8 29.0 27.75 10.95 18.5 7.45"/><path fill="#fcf2cf" stroke="none" d="M27.75 10.95 L35.8 29.0 35.95 29.35 Q34.75 29.3 34.1 30.1 33.45 30.9 33.7 32.1 L34.0 32.9 23.85 36.2 15.2 32.75 6.95 14.6 6.8 14.4 7.1 14.4 Q8.4 14.45 9.15 13.6 9.8 12.8 9.55 11.6 L9.1 10.55 18.5 7.45 27.75 10.95"/><path fill="#630a4c" stroke="none" d="M1.1 8.3 L0.75 8.25 Q1.2 7.6 2.15 7.15 1.45 7.65 1.1 8.3 M4.6 20.9 L5.45 20.95 12.5 36.65 11.55 36.25 11.25 35.55 4.6 20.9"/><path fill="#300525" stroke="none" d="M1.1 8.3 Q0.4 9.65 1.35 11.8 L5.45 20.95 4.6 20.9 0.7 12.25 Q-0.45 9.75 0.75 8.25 L1.1 8.3 M12.5 36.65 L25.2 41.65 38.9 37.25 40.2 36.7 Q39.5 37.3 38.3 37.65 L25.5 41.8 25.45 41.75 24.55 42.0 11.85 37.0 11.55 36.25 12.5 36.65"/><path fill="none" stroke="#bf9900" stroke-width="1.0" stroke-opacity="0.749019607843" d="M31.5 13.2 L35.55 22.3 M13.1 34.35 L8.25 23.65"/><path fill="none" stroke="#ffcc00" stroke-width="1.0" stroke-opacity="0.749019607843" d="M35.55 22.3 L39.35 30.75 Q41.1 34.5 37.2 35.7 L25.8 39.4 M8.25 23.65 L3.35 12.8 Q1.65 9.1 5.5 7.85 L16.95 4.25 29.75 9.2 31.5 13.2"/><path fill="none" stroke="#f0b92b" stroke-width="0.5" d="M27.75 10.95 L35.8 29.0 35.95 29.35 Q34.75 29.3 34.1 30.1 33.45 30.9 33.7 32.1 L34.0 32.9 23.85 36.2 15.2 32.75 6.95 14.6 6.8 14.4 7.1 14.4 Q8.4 14.45 9.15 13.6 9.8 12.8 9.55 11.6 L9.1 10.55 18.5 7.45"/><path fill="none" stroke="#000000" stroke-width="0.5" stroke-opacity="0.301960784314" d="M5.45 20.95 L1.35 11.8 Q0.4 9.65 1.1 8.3 M0.75 8.25 Q-0.45 9.75 0.7 12.25 L4.6 20.9 M5.45 20.95 L12.5 36.65 M25.2 41.65 L38.9 37.25 40.2 36.7 Q42.95 35.15 41.35 31.7 L30.2 7.0 M17.5 1.95 L3.8 6.35 Q2.8 6.7 2.15 7.15 1.45 7.65 1.1 8.3 M0.75 8.25 Q1.2 7.6 2.15 7.15 M11.25 35.55 L4.6 20.9 M25.5 41.8 L38.3 37.65 Q39.5 37.3 40.2 36.7"/><path fill="none" stroke="#ffcc00" stroke-width="0.5" stroke-opacity="0.749019607843" d="M18.5 7.45 L27.75 10.95"/><path fill="none" stroke="#f0b92b" stroke-width="1.0" stroke-opacity="0.749019607843" d="M25.8 39.4 L13.1 34.35"/><path fill="none" stroke="#432f2f" stroke-width="0.5" d="M12.5 36.65 L25.2 41.65"/></g><g id="c3"><path fill="#7fdbfe" stroke="none" d="M10.75 4.9 Q10.75 4.6 10.9 4.35 11.25 3.45 11.95 2.75 13.3 1.5 14.35 2.1 15.4 2.7 14.95 4.45 14.7 5.4 14.1 6.15 L13.75 6.5 Q13.1 7.15 12.35 7.35 L11.4 7.2 Q10.95 6.9 10.75 6.4 10.5 5.75 10.75 4.9 M7.5 5.9 Q7.0 5.85 6.6 5.5 6.05 5.0 5.8 4.15 L5.7 3.6 Q5.55 2.65 5.8 1.7 6.25 0.0 7.5 0.0 L7.6 0.0 Q8.85 0.0 9.3 1.7 9.55 2.65 9.4 3.6 L9.3 4.15 8.5 5.5 7.6 5.9 7.5 5.9 M4.35 4.9 Q4.6 5.75 4.35 6.4 L3.7 7.2 2.75 7.35 Q2.0 7.15 1.35 6.5 L1.0 6.15 Q0.4 5.4 0.15 4.45 -0.3 2.7 0.75 2.1 1.8 1.5 3.15 2.75 3.85 3.45 4.2 4.35 L4.35 4.9 M5.5 13.7 Q4.45 13.9 3.65 12.95 2.75 12.0 3.2 10.25 3.7 8.5 5.25 7.6 6.4 6.9 7.55 7.0 8.75 6.9 9.9 7.6 11.45 8.5 11.95 10.25 12.35 12.0 11.5 12.95 10.7 13.9 9.65 13.7 8.55 13.5 7.55 12.6 6.55 13.5 5.5 13.7"/></g><g id="c4"><g><use transform="matrix(1.0,0.0,0.0,1.0,0.0,0.0)" xlink:href="#c3"/></g></g><radialGradient gradientUnits="userSpaceOnUse" r="819.2" cx="0" cy="0" spreadMethod="pad" gradientTransform="matrix(0.0914459228516,0.0,0.0,0.0914459228516,0.6,3.4)" id="gradient1"><stop offset="0.0" stop-color="#ffffff"/><stop offset="1.0" stop-color="#ffffff" stop-opacity="0.0"/></radialGradient><g id="c5"><path stroke="none" fill="url(#gradient1)" d="M36.65 -54.65 Q60.05 -42.0 69.75 -17.95 80.55 8.9 68.0 34.1 55.45 59.35 26.8 68.2 -1.8 77.05 -29.7 64.3 -57.6 51.6 -68.45 24.75 -79.3 -2.05 -66.75 -27.25 L-66.7 -27.3 Q-54.1 -52.5 -25.5 -61.4 3.1 -70.2 31.0 -57.5 L36.65 -54.65"/></g><g id="c6"><g><use transform="matrix(1.0,0.0,0.0,1.0,0.0,0.0)" xlink:href="#c5"/></g></g><radialGradient gradientUnits="userSpaceOnUse" r="819.2" cx="0" cy="0" spreadMethod="pad" gradientTransform="matrix(0.209197998047,0.0,0.0,0.177108764648,67.15,107.2)" id="gradient2"><stop offset="0.356862745098" stop-color="#ffffff"/><stop offset="0.670588235294" stop-opacity="0.0"/></radialGradient><g id="c7"><path fill="none" stroke-linejoin="round" stroke-linecap="round" stroke="url(#gradient2)" stroke-width="0.5" d="M136.55 165.8 L68.6 106.0 68.4 106.0 118.25 201.5 M68.3 105.8 L68.35 105.8 68.3 105.8 68.3 105.85 68.4 106.0 68.3 106.0 86.55 211.5 M68.3 105.8 L68.3 105.85 68.3 106.0 68.15 105.95 18.25 151.55 M68.3 105.85 L68.25 105.85 68.3 106.0 50.0 193.2 M68.25 105.85 L68.15 105.95 0.05 97.7 M68.3 105.85 L68.25 105.8 68.25 105.85 M68.25 105.8 L68.2 105.7 0.0 45.7 M68.3 105.8 L68.25 105.75 68.25 105.8 M68.25 105.75 L68.2 105.7 18.25 10.05 M68.6 106.0 L68.35 105.8 118.25 60.15 M86.6 18.35 L68.3 105.8 M136.6 114.25 L68.6 106.0 M68.25 105.75 L49.95 0.05"/></g><g id="c8"><g><use transform="matrix(1.0,0.0,0.0,1.0,0.0,0.0)" xlink:href="#c7"/></g></g><g id="c9"><g><use transform="matrix(1.0,0.0,0.0,1.0,0.0,0.0)" xlink:href="#c2"/></g><g><use transform="matrix(0.238861083984,-0.0867004394531,0.10026550293,0.233917236328,34.25,31.15)" xlink:href="#c4"/></g><g><use transform="matrix(0.238861083984,-0.0867004394531,0.10026550293,0.233917236328,4.25,10.3)" xlink:href="#c4"/></g><g><use transform="matrix(0.141098022461,-0.0378112792969,0.111373901367,0.225646972656,20.25,20.65)" filter="url(#filter7)" xlink:href="#c6"/></g><g><use transform="matrix(-0.155029296875,0.0513153076172,0.0841827392578,0.147033691406,22.6,3.15)" filter="url(#filter8)" xlink:href="#c8"/></g></g><filter id="filter7"><feColorMatrix in="SourceGraphic" type="matrix" values="0.0 0.0 0.0 0.0 0.796875 0.0 0.0 0.0 0.0 0.59765625 0.0 0.0 0.0 0.0 0.19921875 0.0 0.0 0.0 1.0 0.0" result="cxform"/><feComposite operator="in" in2="SourceGraphic" result="color-xform"/></filter><filter id="filter8"><feColorMatrix in="SourceGraphic" type="matrix" values="0.0 0.0 0.0 0.0 0.99609375 0.0 0.0 0.0 0.0 0.99609375 0.0 0.0 0.0 0.0 0.99609375 0.0 0.0 0.0 1.0 0.0" result="cxform"/><feComposite operator="in" in2="SourceGraphic" result="color-xform"/></filter><g id="c10"><path fill="#e9e7e4" stroke="none" d="M293.65 39.95 L304.0 36.65 291.9 56.05 Q285.55 83.8 289.8 86.85 L281.5 101.0 264.95 110.55 277.35 125.25 300.4 141.75 288.0 139.35 264.35 125.8 270.85 125.8 261.8 115.85 264.95 110.55 261.8 115.85 254.85 128.3 254.0 121.9 Q254.45 108.45 262.6 101.55 L273.25 101.25 Q284.25 86.65 283.75 67.4 L274.25 78.3 274.25 64.4 293.65 39.95 M269.1 151.25 L258.75 154.35 258.05 149.15 Q265.15 144.5 265.8 135.1 L275.85 137.0 Q268.0 146.35 269.1 151.25 M123.8 191.9 L119.95 190.15 119.9 190.05 108.55 166.75 101.6 161.05 105.4 151.55 105.5 151.6 130.35 157.95 128.05 162.45 131.25 162.6 131.3 162.6 123.4 165.0 115.5 167.4 123.75 191.8 123.8 191.9 M82.6 189.4 L77.7 190.25 72.05 192.15 Q84.65 181.1 81.7 170.1 L93.5 166.85 Q83.3 176.95 82.6 189.4 M241.35 64.45 L244.85 64.45 272.65 59.05 271.95 62.7 251.35 70.3 238.3 69.3 241.35 64.45 M281.5 101.0 L273.25 101.25 281.5 101.0 M252.15 177.0 L260.35 175.2 260.4 175.2 260.5 175.2 260.55 175.2 234.05 219.2 228.2 221.65 228.1 221.7 228.0 221.75 228.05 221.65 252.1 177.0 252.15 177.0 M145.3 69.65 L161.3 60.05 150.35 72.25 145.3 69.65 M172.3 49.55 L175.15 54.6 175.15 54.7 Q174.0 58.3 172.5 61.6 L168.5 68.85 Q165.2 73.8 160.95 77.55 L155.45 74.8 Q163.15 71.35 167.4 64.5 L169.1 61.35 Q171.45 56.25 172.3 49.65 L172.3 49.55 M93.2 80.85 Q105.55 68.5 106.8 45.05 L106.8 44.95 118.6 64.1 117.05 68.6 106.75 75.25 102.4 85.85 93.2 80.85 M101.25 88.55 L100.15 91.2 94.35 88.75 94.15 88.65 93.5 88.4 93.4 88.35 86.5 85.5 86.45 85.45 86.05 85.3 68.4 83.85 68.35 83.85 82.95 89.85 68.35 89.85 68.35 101.85 81.2 119.55 88.3 124.25 94.6 128.4 94.6 128.45 96.2 137.05 79.4 121.95 66.4 103.05 63.45 75.85 70.55 75.85 101.25 88.55 M103.3 107.95 L103.4 107.9 121.6 96.85 121.5 97.0 Q107.75 122.2 108.9 149.9 L108.9 150.05 108.9 150.15 98.65 147.7 98.65 147.5 92.5 114.5 92.6 114.45 95.45 112.75 102.6 144.4 102.7 144.2 102.75 144.05 Q108.7 127.0 103.35 108.05 L103.3 107.95 M96.25 137.1 L97.7 145.1 93.85 153.15 Q87.05 165.55 77.95 171.1 L69.7 173.35 77.1 153.0 90.8 132.2 96.25 137.1 M147.15 144.5 L147.2 144.45 151.4 140.45 169.3 107.5 169.35 107.4 169.35 107.3 169.45 107.4 173.9 111.2 173.85 111.3 173.8 111.4 172.5 113.7 157.8 149.35 157.75 149.6 157.7 149.7 157.7 149.75 157.6 149.7 154.3 148.15 149.35 145.7 147.15 144.5 M188.3 103.55 L188.35 103.5 Q198.4 100.2 205.3 93.25 L205.95 92.6 210.55 86.8 211.9 84.65 211.9 84.6 212.0 84.65 233.1 95.75 233.65 96.0 233.55 96.05 Q229.35 97.4 225.45 98.95 215.5 102.8 207.35 107.45 L206.5 107.9 198.0 113.4 195.75 115.15 195.05 115.7 195.0 115.75 194.95 115.75 194.9 115.75 182.05 118.1 181.95 118.1 182.0 118.05 187.55 103.8 187.7 103.75 188.3 103.55 M28.65 187.3 L42.25 180.75 25.7 180.75 72.65 153.3 64.1 174.85 50.55 187.3 28.65 187.3 M215.85 226.85 L215.8 226.85 215.7 226.9 231.45 204.5 223.5 223.6 223.45 223.65 215.9 226.85 215.85 226.85"/><path fill="#ffffff" stroke="none" d="M272.65 59.05 L289.2 41.35 293.65 39.95 274.25 64.4 274.25 78.3 267.3 86.25 271.95 62.7 272.65 59.05 M6.8 187.3 L75.35 146.5 88.1 129.8 90.8 132.2 77.1 153.0 69.7 173.35 64.1 174.85 72.65 153.3 25.7 180.75 42.25 180.75 28.65 187.3 6.8 187.3 M141.5 2.35 L151.5 15.35 151.35 15.5 151.45 15.6 148.95 17.5 144.15 21.65 Q139.6 25.9 135.6 31.15 L134.4 32.8 Q126.3 43.8 120.55 58.8 L118.6 64.1 106.8 44.95 Q124.2 33.0 139.4 6.3 L141.45 2.65 141.45 2.6 141.4 2.55 141.5 2.35 M174.8 39.85 L179.95 35.35 175.15 54.6 172.3 49.55 172.4 41.9 174.6 40.0 174.65 39.95 174.8 39.85 M187.15 29.1 L190.3 26.35 209.8 19.6 209.9 19.75 210.05 19.7 226.25 50.8 226.1 50.85 226.2 51.05 226.1 51.1 226.05 51.1 226.05 51.0 226.0 50.8 226.0 50.7 225.95 50.7 212.35 52.6 216.05 45.75 215.85 45.35 215.7 45.1 215.35 44.65 Q213.45 41.45 211.05 38.9 L210.65 38.35 Q202.15 29.55 187.75 29.15 L187.6 29.15 187.5 29.15 187.15 29.1 M121.5 65.75 L128.25 61.35 128.55 61.9 128.8 61.7 136.35 76.3 136.1 76.55 Q134.7 77.65 133.45 78.9 126.45 85.7 122.0 95.9 L121.6 96.85 103.4 107.9 103.3 107.95 96.35 102.2 96.3 102.15 98.55 96.8 96.3 102.15 96.3 102.25 95.75 101.8 98.0 96.45 98.7 96.0 98.9 95.9 98.55 96.8 98.65 96.75 98.8 96.65 100.95 95.3 102.35 94.4 Q110.0 89.1 114.8 82.6 L115.3 81.9 119.0 75.5 Q121.05 71.1 122.0 66.25 L122.05 66.1 121.35 66.55 121.4 66.15 121.5 65.75 M128.6 61.5 L128.8 61.35 129.0 61.7 128.9 61.7 128.9 61.65 128.9 61.7 128.6 61.5 M141.45 2.6 L151.35 15.5 141.45 2.6 M128.55 61.9 L122.05 66.1 128.55 61.9 M91.95 114.15 L91.55 111.95 93.65 106.9 93.9 107.95 94.2 107.25 95.45 112.75 92.6 114.45 92.5 114.5 92.4 113.9 91.95 114.15 M92.4 113.9 L92.1 112.3 93.9 107.95 92.1 112.3 92.4 113.9 M192.85 78.85 L193.05 78.65 190.95 79.8 192.5 78.3 196.1 76.35 196.25 76.4 196.35 76.35 196.65 76.5 196.9 76.35 198.05 76.95 198.0 77.15 198.0 77.2 197.5 76.95 197.5 77.0 197.95 77.25 198.05 77.3 198.05 77.35 197.95 77.3 187.75 103.25 187.75 103.3 187.7 103.35 187.6 103.75 187.55 103.8 Q185.35 106.25 182.95 107.95 L174.2 111.2 174.0 111.2 173.9 111.2 169.45 107.4 169.35 107.3 169.4 107.25 172.75 98.35 193.2 78.65 192.85 78.85 M209.9 19.75 L226.0 50.7 209.9 19.75"/><path fill="#b6a498" stroke="none" d="M304.0 36.65 L304.0 57.85 298.05 72.65 289.8 86.85 Q285.55 83.8 291.9 56.05 L304.0 36.65 M300.4 141.75 L269.1 151.25 Q268.0 146.35 275.85 137.0 L265.8 135.1 255.8 133.15 255.0 129.3 254.85 128.3 261.8 115.85 270.85 125.8 264.35 125.8 288.0 139.35 300.4 141.75 M105.8 185.3 L82.6 189.4 Q83.3 176.95 93.5 166.85 L81.7 170.1 Q84.65 181.1 72.05 192.15 L47.6 200.3 50.55 187.3 64.1 174.85 69.7 173.35 77.95 171.1 Q87.05 165.55 93.85 153.15 L97.2 155.35 94.25 161.25 99.4 165.25 105.8 171.9 105.8 185.3 M267.3 86.25 L274.25 78.3 283.75 67.4 Q284.25 86.65 273.25 101.25 L262.6 101.55 245.95 102.05 240.0 98.9 267.3 86.25 M179.6 191.45 L181.85 192.1 181.9 192.15 198.8 229.9 198.85 229.95 188.55 224.4 Q169.45 208.45 150.75 186.35 L150.8 186.35 179.6 191.45"/><path fill="#ded6d1" stroke="none" d="M271.95 62.7 L267.3 86.25 240.0 98.9 235.15 96.35 234.0 95.75 232.45 78.55 238.3 69.3 251.35 70.3 271.95 62.7 M161.3 60.05 L169.4 44.5 169.45 44.6 169.55 44.75 172.3 49.55 172.3 49.65 Q171.45 56.25 169.1 61.35 L167.4 64.5 Q163.15 71.35 155.45 74.8 L150.35 72.25 161.3 60.05 M99.4 32.9 L106.8 44.95 106.8 45.05 Q105.55 68.5 93.2 80.85 L79.2 73.35 74.7 62.85 84.75 54.0 99.35 32.95 99.4 32.9 M143.5 142.35 L143.55 142.3 151.65 111.5 160.65 100.15 160.75 100.0 160.8 100.05 169.35 107.3 169.35 107.4 169.3 107.5 151.4 140.45 147.2 144.45 147.15 144.5 147.05 144.45 146.45 144.1 143.5 142.35 M175.15 54.6 L176.85 57.55 176.85 57.65 170.3 82.3 160.95 77.55 Q165.2 73.8 168.5 68.85 L172.5 61.6 Q174.0 58.3 175.15 54.7 L175.15 54.6 M173.9 111.2 L174.0 111.25 181.95 118.1 181.95 157.5 181.9 157.5 181.8 157.5 Q168.95 154.6 157.7 149.75 L157.7 149.7 157.75 149.6 157.8 149.35 172.5 113.7 173.8 111.4 173.85 111.3 173.9 111.2 M177.75 161.4 Q177.3 168.0 172.1 172.6 164.6 179.2 147.3 181.7 L147.1 181.75 147.05 181.75 146.95 181.75 146.9 181.75 137.2 178.85 137.05 178.8 137.05 178.75 137.1 178.65 137.75 171.4 142.5 154.75 142.5 154.7 177.75 161.4"/><path fill="#c5bed3" stroke="none" d="M251.15 105.2 L251.6 105.4 251.7 105.45 251.7 105.55 253.3 117.1 254.0 121.9 254.85 128.3 255.0 129.3 256.4 139.5 256.4 139.55 256.45 139.85 256.35 139.9 256.35 139.85 256.35 139.8 256.35 139.6 256.35 139.55 254.6 127.0 254.0 122.7 251.6 105.55 251.6 105.5 251.6 105.45 251.15 105.2 M198.05 77.35 L198.05 77.3 197.95 77.25 197.5 77.0 197.5 76.95 198.0 77.2 198.0 77.15 198.05 76.95 212.0 84.25 211.9 84.45 211.9 84.5 211.45 84.25 211.45 84.3 212.0 84.6 212.0 84.65 211.9 84.6 198.05 77.35"/><path fill="#cbbeb6" stroke="none" d="M179.95 35.35 L187.15 29.1 187.5 29.15 187.6 29.15 187.75 29.15 Q202.15 29.55 210.65 38.35 L211.05 38.9 Q213.45 41.45 215.35 44.65 L215.7 45.1 215.85 45.35 216.05 45.75 212.35 52.6 225.95 50.7 226.0 50.7 226.0 50.8 226.05 51.0 226.05 51.1 230.0 93.7 226.65 91.95 226.6 91.9 224.15 63.75 212.35 52.6 176.85 57.55 175.15 54.6 179.95 35.35 M251.15 105.2 L251.6 105.45 251.6 105.5 251.6 105.55 254.0 122.7 254.6 127.0 256.35 139.55 256.35 139.6 256.35 139.8 256.35 139.85 249.95 141.2 249.95 141.15 246.15 109.0 226.4 110.1 226.3 110.1 194.95 115.75 195.0 115.75 195.05 115.7 195.75 115.15 198.0 113.4 206.5 107.9 207.35 107.45 Q215.5 102.8 225.45 98.95 229.35 97.4 233.55 96.05 L233.65 96.0 233.7 96.05 251.15 105.2 M250.05 145.4 L250.5 145.7 250.65 145.75 257.7 149.4 261.1 174.2 261.1 174.25 260.55 175.2 260.5 175.2 260.4 175.2 260.35 175.2 252.15 177.0 252.15 152.15 189.5 158.35 189.35 158.35 189.4 158.3 190.05 157.9 Q192.35 156.25 195.3 155.15 L225.4 149.8 249.9 145.45 250.0 145.4 250.05 145.4 M128.85 61.7 L129.0 61.8 129.05 61.85 177.75 86.4 178.4 86.7 163.6 94.8 140.85 85.1 136.35 76.35 136.35 76.3 128.8 61.7 128.85 61.7 M187.75 103.3 L187.75 103.25 197.95 77.3 198.05 77.35 211.9 84.6 211.9 84.65 210.55 86.8 205.95 92.6 205.3 93.25 Q198.4 100.2 188.35 103.5 L188.3 103.55 188.25 103.5 187.85 103.35 187.75 103.3"/><path fill="#705c50" stroke="none" d="M200.65 233.25 L200.6 233.3 200.55 233.25 200.25 233.15 200.25 233.1 200.2 232.95 198.85 229.95 198.8 229.9 181.9 192.15 181.85 192.1 179.6 191.45 146.95 181.75 147.05 181.75 147.1 181.75 147.3 181.7 Q164.6 179.2 172.1 172.6 177.3 168.0 177.75 161.4 L177.75 161.3 177.8 160.8 177.8 159.95 177.8 159.75 148.5 150.25 144.5 149.4 144.45 149.4 144.4 149.4 144.35 149.4 144.3 149.4 139.2 154.1 137.6 171.4 136.9 178.8 142.3 193.2 154.9 206.1 154.5 205.95 129.25 194.4 129.3 194.35 134.5 189.55 126.9 175.6 123.45 165.05 123.4 165.0 131.3 162.6 131.25 162.6 128.05 162.45 130.35 157.95 105.5 151.6 105.4 151.55 104.85 151.25 98.65 147.7 104.85 151.25 101.05 160.7 108.0 166.4 116.3 183.45 105.8 185.3 105.8 171.9 99.4 165.25 94.25 161.25 97.2 155.35 93.85 153.15 97.7 145.1 98.1 147.35 98.65 147.7 108.9 150.15 124.05 153.75 124.05 153.7 129.45 147.75 129.45 142.05 130.7 136.35 142.1 98.4 134.55 89.1 134.45 89.0 140.85 85.1 163.6 94.8 158.05 97.8 148.55 111.2 140.7 140.7 140.85 140.8 140.85 140.7 142.85 141.95 143.4 142.3 143.5 142.35 146.45 144.1 147.05 144.45 147.15 144.5 149.35 145.7 154.3 148.15 157.6 149.7 157.7 149.75 Q168.95 154.6 181.8 157.5 L181.9 157.5 181.95 157.5 182.05 157.5 182.25 157.45 186.9 156.65 187.0 156.6 195.3 155.15 Q192.35 156.25 190.05 157.9 L189.4 158.3 189.35 158.35 Q187.35 159.85 185.85 161.7 L184.75 163.3 Q182.6 166.6 181.9 170.9 L181.8 171.5 181.55 175.95 Q181.5 178.65 181.9 181.75 L181.9 192.15 182.0 192.15 252.1 177.0 252.15 177.0 252.1 177.0 228.05 221.65 228.0 221.75 223.7 223.55 223.6 223.6 223.45 223.65 223.5 223.6 231.45 204.5 215.7 226.9 200.75 233.2 200.65 233.25 M47.6 200.3 L6.8 187.3 28.65 187.3 50.55 187.3 47.6 200.3 M227.55 64.45 L241.35 64.45 238.3 69.3 232.45 78.55 234.0 95.75 230.25 93.8 227.55 64.45 M254.0 121.9 L253.3 117.1 251.95 105.3 251.95 105.2 245.95 102.05 262.6 101.55 Q254.45 108.45 254.0 121.9 M256.7 139.6 L255.8 133.15 265.8 135.1 Q265.15 144.5 258.05 149.15 L250.5 145.25 256.65 139.85 256.7 139.6 M137.4 65.7 L165.5 29.25 165.6 29.2 169.5 44.45 169.45 44.5 169.4 44.5 161.3 60.05 145.3 69.65 137.4 65.7 M79.2 73.35 L93.2 80.85 102.4 85.85 101.25 88.55 70.55 75.85 65.2 65.8 79.2 73.35 M100.15 91.2 L98.0 96.45 95.75 101.8 93.65 106.9 91.55 111.95 91.95 114.15 94.6 128.4 88.3 124.25 85.3 114.25 93.5 88.4 94.15 88.65 94.35 88.75 100.15 91.2 M192.5 78.3 L178.1 86.2 170.3 82.3 176.85 57.65 176.85 57.55 212.35 52.6 224.15 63.75 226.6 91.9 212.0 84.25 198.05 76.95 196.9 76.35 196.65 76.5 196.35 76.35 196.1 76.35 192.5 78.3"/><path fill="#a6b7a6" stroke="none" d="M251.6 105.4 L251.15 105.2 233.7 96.05 233.7 96.0 251.6 105.4 M128.25 61.35 L128.6 61.5 128.9 61.7 129.0 61.7 177.85 86.35 177.75 86.4 129.05 61.85 129.0 61.8 128.85 61.7 128.8 61.7 128.55 61.9 128.25 61.35 M128.9 61.7 L128.9 61.65 128.9 61.7 M230.0 93.7 L226.05 51.1 226.1 51.1 226.2 51.05 230.15 93.75 230.15 93.8 230.05 93.75 230.0 93.7"/><path fill="#9f8879" stroke="none" d="M129.25 194.4 L123.8 191.9 123.75 191.8 115.5 167.4 123.4 165.0 123.45 165.05 126.9 175.6 134.5 189.55 129.3 194.35 129.25 194.4 M194.95 115.75 L226.3 110.1 226.4 110.1 246.15 109.0 249.95 141.15 249.95 141.2 189.35 153.75 189.35 153.7 189.25 153.3 193.7 118.2 194.95 115.8 194.95 115.75 M189.35 158.35 L189.5 158.35 252.15 152.15 252.15 177.0 252.1 177.0 182.0 192.15 181.9 192.15 181.9 181.75 Q181.5 178.65 181.55 175.95 L181.8 171.5 181.9 170.9 Q182.6 166.6 184.75 163.3 L185.85 161.7 Q187.35 159.85 189.35 158.35 M165.6 29.2 L165.5 29.25 137.4 65.7 128.8 61.35 128.6 61.5 128.25 61.35 121.5 65.75 120.15 66.6 118.6 64.1 120.55 58.8 Q126.3 43.8 134.4 32.8 L135.6 31.15 Q139.6 25.9 144.15 21.65 L148.95 17.5 165.6 29.2 M106.8 44.95 L99.4 32.9 139.4 6.3 Q124.2 33.0 106.8 44.95 M134.45 89.0 L134.55 89.1 142.1 98.4 130.7 136.35 129.45 142.05 129.45 147.75 124.05 153.7 124.05 153.75 108.9 150.15 108.9 150.05 108.9 149.9 Q107.75 122.2 121.5 97.0 L121.6 96.85 121.7 96.75 134.45 89.0 M93.5 88.4 L85.3 114.25 88.3 124.25 81.2 119.55 68.35 101.85 68.35 89.85 82.95 89.85 68.35 83.85 68.4 83.85 86.05 85.3 86.45 85.45 86.5 85.5 93.4 88.35 93.5 88.4 M103.3 107.95 L103.35 108.05 Q108.7 127.0 102.75 144.05 L102.7 144.2 102.6 144.4 95.45 112.75 95.55 112.7 103.3 107.95"/><path fill="#756796" stroke="none" d="M228.3 221.75 L223.75 223.65 223.8 223.55 228.1 221.75 223.8 223.55 223.55 223.65 223.6 223.6 223.7 223.55 228.0 221.75 228.1 221.7 228.1 221.75 228.35 221.65 228.3 221.75 M216.0 226.9 L200.9 233.3 200.8 233.25 200.7 233.3 200.65 233.25 200.75 233.2 215.7 226.9 215.8 226.85 215.85 226.85 215.8 226.9 216.05 226.8 216.0 226.9 M65.3 65.6 L65.25 65.55 65.3 65.6 M256.35 139.9 L256.45 139.85 256.4 139.9 256.65 139.85 250.5 145.25 250.45 145.25 250.35 145.2 250.1 145.4 250.05 145.4 250.0 145.4 250.05 145.35 256.35 139.9 M256.4 139.55 L256.4 139.5 256.45 139.5 256.4 139.55 M256.55 139.8 L256.55 139.75 256.55 139.65 256.7 139.6 256.55 139.8 M256.7 139.6 L256.55 139.75 256.7 139.6 M256.4 139.9 L250.35 145.2 256.4 139.9 M200.8 233.25 L215.8 226.9 200.8 233.25"/><path fill="#566b56" stroke="none" d="M200.55 233.25 L200.45 233.3 200.1 233.15 200.1 233.05 200.25 233.15 200.55 233.25 M70.35 75.6 L65.1 65.75 65.2 65.8 70.55 75.85 70.45 75.8 70.35 75.6 M256.4 139.9 L256.45 139.85 256.5 139.85 256.55 139.8 256.7 139.6 256.65 139.85 256.4 139.9 M118.6 64.1 L120.15 66.6 120.1 66.65 117.05 68.6 118.6 64.1 M98.1 147.35 L98.65 147.5 98.65 147.7 98.1 147.35 M196.35 76.35 L196.25 76.4 196.1 76.35 196.35 76.35"/><path fill="#b7ada7" stroke="none" d="M256.35 139.85 L256.35 139.9 250.05 145.35 250.0 145.4 249.9 145.45 225.4 149.8 195.3 155.15 187.0 156.6 186.9 156.65 186.9 156.6 186.85 156.45 186.85 155.7 Q187.05 154.2 189.35 153.75 L249.95 141.2 256.35 139.85"/><path fill="#cfcadb" stroke="none" d="M258.75 154.35 L261.45 174.0 261.4 174.1 261.4 174.25 260.85 175.2 260.6 175.25 260.65 175.2 260.65 175.15 261.1 174.25 260.65 175.15 260.65 175.2 260.55 175.2 261.1 174.25 261.1 174.2 257.7 149.4 250.65 145.75 250.5 145.7 250.05 145.4 250.1 145.4 250.35 145.2 250.45 145.25 257.8 149.05 257.8 149.3 257.8 149.4 260.75 170.85 261.2 173.9 261.15 173.95 260.75 170.85 261.15 173.95 261.2 173.9 260.75 170.85 257.8 149.4 257.8 149.3 257.8 149.05 250.45 145.25 250.5 145.25 258.05 149.15 258.75 154.35 M233.7 96.0 L233.7 96.05 233.65 96.0 233.1 95.75 212.0 84.65 212.0 84.6 211.45 84.3 211.45 84.25 211.9 84.5 211.9 84.45 212.0 84.25 226.6 91.9 226.65 91.95 230.0 93.7 230.05 93.75 230.15 93.8 233.95 95.75 230.15 93.8 230.15 93.75 230.25 93.8 234.0 95.75 233.95 95.75 233.65 95.85 233.35 95.85 233.1 95.75 233.35 95.85 233.65 95.85 233.85 95.95 233.75 96.0 233.7 96.0 M137.4 65.7 L145.3 69.65 150.35 72.25 155.45 74.8 160.95 77.55 170.3 82.3 178.1 86.2 177.85 86.35 129.0 61.7 128.8 61.35 137.4 65.7 M169.4 44.5 L169.45 44.5 169.5 44.45 172.4 41.9 172.3 49.55 169.55 44.75 169.45 44.6 169.4 44.5 M233.35 95.85 L233.75 96.0 233.35 95.85"/><path fill="#dfdce7" stroke="none" d="M260.85 175.2 L234.35 219.2 228.3 221.75 228.35 221.65 228.1 221.75 228.1 221.7 228.2 221.65 234.05 219.2 260.55 175.2 260.65 175.2 260.6 175.25 260.85 175.2 M223.75 223.65 L216.0 226.9 216.05 226.8 215.8 226.9 215.85 226.85 215.9 226.85 223.45 223.65 223.6 223.6 223.55 223.65 223.8 223.55 223.75 223.65 M96.3 102.15 L96.35 102.2 103.3 107.95 95.55 112.7 95.45 112.75 94.2 107.25 93.9 107.95 93.65 106.9 95.75 101.8 96.3 102.25 94.2 107.25 96.3 102.25 96.3 102.15 M216.05 226.8 L223.55 223.65 216.05 226.8 M228.35 221.65 L234.15 219.2 260.6 175.25 234.15 219.2 228.35 221.65"/><path fill="#efedf3" stroke="none" d="M63.55 75.8 L63.5 75.6 70.35 75.6 70.45 75.8 63.55 75.8 M65.25 65.55 L79.45 52.55 79.3 52.75 65.3 65.6 65.25 65.55 M97.0 29.15 L97.15 28.95 139.7 0.0 141.5 2.35 141.4 2.55 139.65 0.25 139.6 0.3 139.55 0.2 97.0 29.15 M151.5 15.35 L167.55 26.45 174.8 39.85 174.65 39.95 167.5 26.7 151.45 15.6 151.35 15.5 151.5 15.35"/><path fill="#f1efed" stroke="none" d="M169.5 44.45 L165.6 29.2 148.95 17.5 151.45 15.6 167.5 26.7 174.65 39.95 174.6 40.0 172.4 41.9 169.5 44.45 M99.4 32.9 L99.35 32.95 84.75 54.0 74.7 62.85 79.2 73.35 65.2 65.8 79.4 52.8 97.1 29.2 139.6 0.3 139.65 0.25 141.4 2.55 141.45 2.6 141.45 2.65 139.4 6.3 99.4 32.9 M136.35 76.3 L136.35 76.35 140.85 85.1 134.45 89.0 121.7 96.75 121.6 96.85 122.0 95.9 Q126.45 85.7 133.45 78.9 134.7 77.65 136.1 76.55 L136.35 76.3 M98.9 95.9 L107.3 75.6 121.35 66.55 122.05 66.1 122.0 66.25 Q121.05 71.1 119.0 75.5 L115.3 81.9 114.8 82.6 Q110.0 89.1 102.35 94.4 L100.95 95.3 98.8 96.65 98.65 96.75 98.55 96.8 98.9 95.9 M140.85 140.7 L140.85 140.65 148.7 111.2 158.2 97.8 192.85 78.85 193.2 78.65 172.75 98.35 169.4 107.25 169.35 107.3 160.8 100.05 160.75 100.0 160.65 100.15 151.65 111.5 143.55 142.3 143.5 142.35 143.4 142.3 142.85 141.95 140.85 140.7 M173.9 111.2 L174.0 111.2 174.2 111.2 182.95 107.95 Q185.35 106.25 187.55 103.8 L182.0 118.05 181.95 118.1 174.0 111.25 173.9 111.2 M144.4 149.4 L144.45 149.4 144.5 149.4 148.5 150.25 177.8 159.75 177.8 159.95 177.8 160.8 177.75 161.3 177.75 161.4 142.5 154.7 142.5 154.75 137.75 171.4 137.75 171.35 137.85 170.7 137.85 170.65 139.35 154.1 144.4 149.4 M146.95 181.75 L179.6 191.45 150.8 186.35 150.75 186.35 Q169.45 208.45 188.55 224.4 L198.85 229.95 200.2 232.95 200.25 233.1 200.25 233.15 200.1 233.05 168.0 219.4 142.45 193.2 137.1 178.85 137.05 178.8 137.2 178.85 146.9 181.75 146.95 181.75"/><path fill="#e2e9e2" stroke="none" d="M200.1 233.15 L167.85 219.4 167.65 219.2 167.3 219.05 154.5 205.95 154.9 206.1 142.3 193.2 136.9 178.8 137.1 178.85 142.45 193.2 168.0 219.4 200.1 233.05 200.1 233.15 M119.9 190.05 L119.4 189.8 116.3 183.45 108.0 166.4 101.05 160.7 104.85 151.25 105.4 151.55 101.6 161.05 108.55 166.75 119.9 190.05 M88.1 129.8 L79.3 121.9 66.3 103.0 63.35 75.8 63.55 75.8 70.45 75.8 70.55 75.85 63.45 75.85 66.4 103.05 79.4 121.95 96.2 137.05 94.6 128.45 94.6 128.4 91.95 114.15 92.4 113.9 92.5 114.5 98.65 147.5 98.1 147.35 97.7 145.1 96.25 137.1 90.8 132.2 88.1 129.8 M65.1 65.75 L65.3 65.6 79.3 52.75 79.45 52.55 97.0 29.15 139.55 0.2 139.6 0.3 97.1 29.2 79.4 52.8 65.2 65.8 65.1 65.75 M120.15 66.6 L121.5 65.75 121.4 66.15 121.35 66.55 107.3 75.6 98.9 95.9 98.7 96.0 98.0 96.45 100.15 91.2 101.25 88.55 102.4 85.85 106.75 75.25 117.05 68.6 120.1 66.65 120.15 66.6 M177.75 86.4 L177.85 86.35 178.1 86.2 192.5 78.3 190.95 79.8 193.05 78.65 192.85 78.85 158.2 97.8 148.7 111.2 140.85 140.65 140.85 140.7 140.85 140.8 140.7 140.7 148.55 111.2 158.05 97.8 163.6 94.8 178.4 86.7 177.75 86.4 M96.25 137.1 L96.2 137.05 96.25 137.1 M137.6 171.4 L139.2 154.1 144.3 149.4 144.35 149.4 144.4 149.4 139.35 154.1 137.85 170.65 137.85 170.7 137.6 171.4 M167.65 219.2 L154.9 206.1 167.65 219.2"/><path fill="#a49aba" stroke="none" d="M226.25 50.8 L227.55 64.45 230.25 93.8 230.15 93.75 226.2 51.05 226.1 50.85 226.25 50.8"/><path fill="#e4deda" stroke="none" d="M187.55 103.8 L187.6 103.75 187.7 103.35 187.75 103.3 187.85 103.35 188.25 103.5 188.3 103.55 187.7 103.75 187.55 103.8"/><path fill="#cec3bb" stroke="none" d="M181.95 118.1 L182.05 118.1 194.9 115.75 194.95 115.75 194.95 115.8 193.7 118.2 189.25 153.3 189.35 153.7 189.35 153.75 Q187.05 154.2 186.85 155.7 L186.85 156.45 186.9 156.6 186.9 156.65 182.25 157.45 182.05 157.5 181.95 157.5 181.95 118.1"/><path fill="#d3dcd3" stroke="none" d="M137.85 170.7 L137.75 171.35 137.75 171.4 137.1 178.65 137.05 178.75 137.05 178.8 137.1 178.85 136.9 178.8 137.6 171.4 137.85 170.7"/><path fill="none" stroke="#000000" stroke-width="0.5" stroke-opacity="0.4" d="M272.65 59.05 L289.2 41.35 293.65 39.95 304.0 36.65 304.0 57.85 298.05 72.65 289.8 86.85 281.5 101.0 264.95 110.55 277.35 125.25 300.4 141.75 269.1 151.25 258.75 154.35 M154.5 205.95 L129.25 194.4 123.8 191.9 119.95 190.15 119.9 190.05 119.4 189.8 116.3 183.45 105.8 185.3 82.6 189.4 77.7 190.25 72.05 192.15 47.6 200.3 6.8 187.3 75.35 146.5 88.1 129.8 79.3 121.9 66.3 103.0 63.35 75.8 63.55 75.8 63.5 75.6 70.35 75.6 65.1 65.75 65.3 65.6 65.25 65.55 79.45 52.55 97.0 29.15 97.15 28.95 139.7 0.0 141.5 2.35 151.5 15.35 167.55 26.45 174.8 39.85 179.95 35.35 187.15 29.1 190.3 26.35 209.8 19.6 209.9 19.75 210.05 19.7 226.25 50.8 227.55 64.45 241.35 64.45 244.85 64.45 272.65 59.05 M264.95 110.55 L261.8 115.85 254.85 128.3 M273.25 101.25 L281.5 101.0 M137.4 65.7 L145.3 69.65 161.3 60.05 169.4 44.5 169.45 44.5 169.5 44.45 172.4 41.9 174.6 40.0 174.65 39.95 167.5 26.7 151.45 15.6 151.35 15.5 141.45 2.6 141.4 2.55 139.65 0.25 139.6 0.3 97.1 29.2 79.4 52.8 65.2 65.8 70.55 75.85 63.45 75.85 66.4 103.05 79.4 121.95 96.2 137.05 96.25 137.1 97.7 145.1 98.1 147.35 98.65 147.7 104.85 151.25 105.4 151.55 101.6 161.05 108.55 166.75 119.9 190.05 M120.15 66.6 L121.5 65.75 128.25 61.35 128.6 61.5 128.8 61.35 137.4 65.7 M174.65 39.95 L174.8 39.85 M97.0 29.15 L139.55 0.2 139.6 0.3 M128.9 61.7 L128.6 61.5 M128.85 61.7 L129.0 61.8 129.05 61.85 177.75 86.4 M177.85 86.35 L129.0 61.7 128.9 61.7 M178.4 86.7 L177.75 86.4 M120.15 66.6 L120.1 66.65 117.05 68.6 106.75 75.25 102.4 85.85 101.25 88.55 100.15 91.2 98.0 96.45 M98.9 95.9 L107.3 75.6 121.35 66.55 122.05 66.1 128.55 61.9 M98.55 96.8 L96.3 102.15 M65.3 65.6 L79.3 52.75 79.45 52.55 M94.6 128.4 L91.95 114.15 91.55 111.95 93.65 106.9 95.75 101.8 98.0 96.45 M94.2 107.25 L93.9 107.95 92.1 112.3 92.4 113.9 92.5 114.5 M98.55 96.8 L98.9 95.9 M96.3 102.25 L96.3 102.15 M94.2 107.25 L96.3 102.25 M94.6 128.4 L94.6 128.45 96.2 137.05 M98.65 147.5 L92.5 114.5 M96.25 137.1 L90.8 132.2 88.1 129.8 M226.05 51.1 L226.05 51.0 226.0 50.8 226.0 50.7 209.9 19.75 M230.0 93.7 L226.05 51.1 M63.55 75.8 L70.45 75.8 70.35 75.6 M116.3 183.45 L108.0 166.4 101.05 160.7 104.85 151.25 M98.65 147.7 L98.65 147.5 M154.9 206.1 L154.5 205.95"/><path fill="none" stroke="#000000" stroke-width="1.0" stroke-opacity="0.4" d="M258.75 154.35 L261.45 174.0 261.4 174.1 M200.8 233.25 L200.7 233.3 200.65 233.25 200.6 233.3 200.55 233.25 200.45 233.3 200.1 233.15 167.85 219.4 167.65 219.2 167.3 219.05 154.5 205.95 M234.0 95.75 L235.15 96.35 240.0 98.9 245.95 102.05 251.95 105.2 251.95 105.3 253.3 117.1 251.7 105.55 251.7 105.45 251.6 105.4 251.15 105.2 251.6 105.45 M251.6 105.5 L251.6 105.55 M256.35 139.55 L256.35 139.6 256.35 139.8 256.35 139.85 256.35 139.9 250.05 145.35 250.0 145.4 249.9 145.45 225.4 149.8 M256.45 139.85 L256.4 139.55 M256.4 139.5 L255.0 129.3 254.85 128.3 254.0 121.9 253.3 117.1 M256.45 139.5 L256.4 139.55 M256.7 139.6 L255.8 133.15 M256.4 139.9 L256.45 139.85 M256.55 139.75 L256.7 139.6 M258.05 149.15 L258.75 154.35 M250.45 145.25 L257.8 149.05 257.8 149.3 257.8 149.4 260.75 170.85 261.2 173.9 261.15 173.95 260.75 170.85 M258.05 149.15 L250.5 145.25 M250.45 145.25 L250.35 145.2 250.1 145.4 M250.05 145.4 L250.5 145.7 250.65 145.75 M261.1 174.25 L260.65 175.15 260.65 175.2 260.6 175.25 234.15 219.2 228.35 221.65 228.1 221.75 223.8 223.55 223.55 223.65 216.05 226.8 215.8 226.9 200.8 233.25 M260.55 175.2 L261.1 174.25 M228.0 221.75 L228.1 221.7 228.2 221.65 234.05 219.2 260.55 175.2 M250.35 145.2 L256.4 139.9 M197.95 77.25 L197.5 77.0 M226.6 91.9 L226.65 91.95 230.0 93.7 M211.45 84.3 L212.0 84.6 M233.1 95.75 L233.35 95.85 233.65 95.85 M233.95 95.75 L230.15 93.8 230.05 93.75 230.0 93.7 M230.15 93.75 L230.25 93.8 M234.0 95.75 L230.25 93.8 M233.65 96.0 L233.7 96.05 M233.85 95.95 L233.65 95.85 M233.75 96.0 L233.35 95.85 M233.95 95.75 L235.15 96.35 M200.25 233.15 L200.55 233.25 M200.1 233.05 L200.25 233.15 M168.0 219.4 L200.1 233.05 M215.7 226.9 L215.8 226.85 215.85 226.85 215.9 226.85 223.45 223.65 223.6 223.6 223.7 223.55 228.0 221.75 M215.7 226.9 L200.75 233.2 200.65 233.25 M154.9 206.1 L167.65 219.2"/></g><g id="c11"><path fill="#ffffff" fill-opacity="0.498039215686" d="M2.8 -3.25 Q1.35 -4.65 -0.65 -4.65 -2.7 -4.65 -4.15 -3.25 -5.55 -1.8 -5.55 0.25 -5.55 2.25 -4.15 3.7 -2.7 5.1 -0.65 5.1 1.35 5.1 2.8 3.7 4.2 2.25 4.2 0.25 4.2 -1.8 2.8 -3.25 M5.95 -7.5 Q8.7 -4.75 8.7 -0.8 8.7 3.15 5.95 5.9 3.15 8.7 -0.75 8.7 -4.7 8.7 -7.5 5.9 -10.25 3.15 -10.25 -0.8 -10.25 -4.75 -7.5 -7.5 -4.7 -10.3 -0.75 -10.3 3.15 -10.3 5.95 -7.5"/><path fill="#ffffff" fill-opacity="0.8" d="M2.8 -3.25 Q4.2 -1.8 4.2 0.25 4.2 2.25 2.8 3.7 1.35 5.1 -0.65 5.1 -2.7 5.1 -4.15 3.7 -5.55 2.25 -5.55 0.25 -5.55 -1.8 -4.15 -3.25 -2.7 -4.65 -0.65 -4.65 1.35 -4.65 2.8 -3.25 M1.1 -0.4 Q1.1 -1.3 0.5 -1.9 -0.15 -2.5 -1.05 -2.5 -1.95 -2.5 -2.55 -1.9 -3.15 -1.3 -3.15 -0.4 -3.15 0.5 -2.55 1.1 -1.95 1.7 -1.05 1.75 -0.15 1.7 0.5 1.1 1.1 0.5 1.1 -0.4"/><path fill="#ffffff" stroke="none" d="M1.1 -0.4 Q1.1 0.5 0.5 1.1 -0.15 1.7 -1.05 1.75 -1.95 1.7 -2.55 1.1 -3.15 0.5 -3.15 -0.4 -3.15 -1.3 -2.55 -1.9 -1.95 -2.5 -1.05 -2.5 -0.15 -2.5 0.5 -1.9 1.1 -1.3 1.1 -0.4"/><path fill="#ffffff" fill-opacity="0.301960784314" d="M5.95 -7.5 Q3.15 -10.3 -0.75 -10.3 -4.7 -10.3 -7.5 -7.5 -10.25 -4.75 -10.25 -0.8 -10.25 3.15 -7.5 5.9 -4.7 8.7 -0.75 8.7 3.15 8.7 5.95 5.9 8.7 3.15 8.7 -0.8 8.7 -4.75 5.95 -7.5 M15.9 0.25 Q15.9 6.7 11.3 11.3 6.75 15.85 0.3 15.85 -6.2 15.85 -10.8 11.3 -15.35 6.7 -15.3 0.25 -15.35 -6.2 -10.8 -10.8 -6.2 -15.35 0.3 -15.35 6.75 -15.35 11.3 -10.8 15.9 -6.2 15.9 0.25"/><path fill="#ffffff" fill-opacity="0.109803921569" d="M15.9 0.25 Q15.9 -6.2 11.3 -10.8 6.75 -15.35 0.3 -15.35 -6.2 -15.35 -10.8 -10.8 -15.35 -6.2 -15.3 0.25 -15.35 6.7 -10.8 11.3 -6.2 15.85 0.3 15.85 6.75 15.85 11.3 11.3 15.9 6.7 15.9 0.25 M16.25 -16.3 Q23.0 -9.55 23.0 0.0 23.0 9.55 16.25 16.25 9.5 23.0 0.0 23.0 -9.55 23.0 -16.3 16.25 -23.0 9.55 -23.0 0.0 -23.0 -9.55 -16.3 -16.3 -9.55 -23.0 0.0 -23.0 9.5 -23.0 16.25 -16.3"/></g><g id="c12"><g><use transform="matrix(1.0,0.0,0.0,1.0,0.0,0.0)" xlink:href="#c11"/></g></g><g id="c13"><g><use transform="matrix(1.0,0.0,0.0,1.0,0.0,0.0)" xlink:href="#c10"/></g><g><use transform="matrix(1.0,0.0,0.0,1.0,197.25,80.65)" xlink:href="#c12"/></g><g><use transform="matrix(1.0,0.0,0.0,1.0,98.35,108.95)" xlink:href="#c12"/></g><g><use transform="matrix(1.0,0.0,0.0,1.0,190.55,26.45)" xlink:href="#c12"/></g><g><use transform="matrix(0.74348449707,0.0,0.0,0.74348449707,17.1,183.2)" xlink:href="#c12"/></g></g><filter id="filter18"><feColorMatrix in="SourceGraphic" type="matrix" values="1.0 0.0 0.0 0.0 0.0 0.0 1.0 0.0 0.0 0.0 0.0 0.0 1.0 0.0 0.0 0.0 0.0 0.0 0.23046875 0.0" result="cxform"/><feComposite operator="in" in2="SourceGraphic" result="color-xform"/></filter></defs><g><g><use transform="matrix(1.0,0.0,0.0,1.0,0.0,0.0)" xlink:href="#c1"/></g><g><use transform="matrix(1.15496826172,0.0,0.0,1.15496826172,5.85,4.8)" xlink:href="#c9"/></g><g><use transform="matrix(0.0659790039062,-0.0380859375,0.0379943847656,0.0658264160156,15.2,27.9)" xlink:href="#c13"/></g><g><use transform="matrix(0.162948608398,-0.0436706542969,0.128631591797,0.260604858398,30.0,28.7)" filter="url(#filter18)" xlink:href="#c6"/></g></g></svg>