<?xml version='1.0' encoding='UTF-8'?>
<svg xmlns:xlink="http://www.w3.org/1999/xlink" xmlns="http://www.w3.org/2000/svg" version="1.1" width="60px" height="60px" viewBox="0.0 0.0 60.0 60.0"><defs><g id="c1"><path fill="#000000" fill-opacity="0.00392156862745" d="M0.0 0.0 L60.0 0.0 60.0 60.0 0.0 60.0 0.0 0.0"/></g><g id="c2"><path fill="#7fdbfe" stroke="none" d="M10.75 4.9 Q10.75 4.6 10.9 4.35 11.25 3.45 11.95 2.75 13.3 1.5 14.35 2.1 15.4 2.7 14.95 4.45 14.7 5.4 14.1 6.15 L13.75 6.5 Q13.1 7.15 12.35 7.35 L11.4 7.2 Q10.95 6.9 10.75 6.4 10.5 5.75 10.75 4.9 M7.5 5.9 Q7.0 5.85 6.6 5.5 6.05 5.0 5.8 4.15 L5.7 3.6 Q5.55 2.65 5.8 1.7 6.25 0.0 7.5 0.0 L7.6 0.0 Q8.85 0.0 9.3 1.7 9.55 2.65 9.4 3.6 L9.3 4.15 8.5 5.5 7.6 5.9 7.5 5.9 M4.35 4.9 Q4.6 5.75 4.35 6.4 L3.7 7.2 2.75 7.35 Q2.0 7.15 1.35 6.5 L1.0 6.15 Q0.4 5.4 0.15 4.45 -0.3 2.7 0.75 2.1 1.8 1.5 3.15 2.75 3.85 3.45 4.2 4.35 L4.35 4.9 M5.5 13.7 Q4.45 13.9 3.65 12.95 2.75 12.0 3.2 10.25 3.7 8.5 5.25 7.6 6.4 6.9 7.55 7.0 8.75 6.9 9.9 7.6 11.45 8.5 11.95 10.25 12.35 12.0 11.5 12.95 10.7 13.9 9.65 13.7 8.55 13.5 7.55 12.6 6.55 13.5 5.5 13.7"/></g><g id="c3"><g><use transform="matrix(1.0,0.0,0.0,1.0,0.0,0.0)" xlink:href="#c2"/></g></g><g id="c4"><path fill="none" stroke="#000000" stroke-width="1.0" stroke-opacity="0.298039215686" d="M11.85 37.0 L0.7 12.25 Q-0.45 9.75 0.75 8.25 1.2 7.6 2.15 7.15 2.8 6.7 3.8 6.35 L17.5 1.95 30.2 7.0 41.35 31.7 Q42.95 35.15 40.2 36.7 39.5 37.3 38.3 37.65 L25.5 41.8 25.45 41.75 24.55 42.0 11.85 37.0"/><path fill="#ffcc00" stroke="none" d="M35.55 22.3 L31.5 13.2 29.75 9.2 16.95 4.25 5.5 7.85 Q1.65 9.1 3.35 12.8 L8.25 23.65 13.1 34.35 25.8 39.4 37.2 35.7 Q41.1 34.5 39.35 30.75 L35.55 22.3 M5.45 20.95 L1.35 11.8 Q0.4 9.65 1.1 8.3 1.45 7.65 2.15 7.15 2.8 6.7 3.8 6.35 L17.5 1.95 30.2 7.0 41.35 31.7 Q42.95 35.15 40.2 36.7 L38.9 37.25 25.2 41.65 12.5 36.65 5.45 20.95"/><path fill="#996600" stroke="none" d="M31.5 13.2 L35.55 22.3 39.35 30.75 Q41.1 34.5 37.2 35.7 L25.8 39.4 13.1 34.35 8.25 23.65 3.35 12.8 Q1.65 9.1 5.5 7.85 L16.95 4.25 29.75 9.2 31.5 13.2 M18.5 7.45 L9.1 10.55 9.55 11.6 Q9.8 12.8 9.15 13.6 8.4 14.45 7.1 14.4 L6.8 14.4 6.95 14.6 15.2 32.75 23.85 36.2 34.0 32.9 33.7 32.1 Q33.45 30.9 34.1 30.1 34.75 29.3 35.95 29.35 L35.8 29.0 27.75 10.95 18.5 7.45"/><path fill="#fcf2cf" stroke="none" d="M27.75 10.95 L35.8 29.0 35.95 29.35 Q34.75 29.3 34.1 30.1 33.45 30.9 33.7 32.1 L34.0 32.9 23.85 36.2 15.2 32.75 6.95 14.6 6.8 14.4 7.1 14.4 Q8.4 14.45 9.15 13.6 9.8 12.8 9.55 11.6 L9.1 10.55 18.5 7.45 27.75 10.95"/><path fill="#630a4c" stroke="none" d="M1.1 8.3 L0.75 8.25 Q1.2 7.6 2.15 7.15 1.45 7.65 1.1 8.3"/><path fill="#5b3c00" stroke="none" d="M1.1 8.3 Q0.4 9.65 1.35 11.8 L5.45 20.95 4.6 20.9 0.7 12.25 Q-0.45 9.75 0.75 8.25 L1.1 8.3 M12.5 36.65 L25.2 41.65 38.9 37.25 40.2 36.7 Q39.5 37.3 38.3 37.65 L25.5 41.8 25.45 41.75 24.55 42.0 11.85 37.0 11.55 36.25 12.5 36.65"/><path fill="#724b00" stroke="none" d="M4.6 20.9 L5.45 20.95 12.5 36.65 11.55 36.25 11.25 35.55 4.6 20.9"/><path fill="none" stroke="#ffaa00" stroke-width="1.0" stroke-opacity="0.749019607843" d="M31.5 13.2 L35.55 22.3 M13.1 34.35 L8.25 23.65"/><path fill="none" stroke="#fcf2cf" stroke-width="1.0" stroke-opacity="0.749019607843" d="M35.55 22.3 L39.35 30.75 Q41.1 34.5 37.2 35.7 L25.8 39.4 13.1 34.35 M8.25 23.65 L3.35 12.8 Q1.65 9.1 5.5 7.85 L16.95 4.25 29.75 9.2 31.5 13.2"/><path fill="none" stroke="#f0b92b" stroke-width="0.5" d="M27.75 10.95 L35.8 29.0 35.95 29.35 Q34.75 29.3 34.1 30.1 33.45 30.9 33.7 32.1 L34.0 32.9 23.85 36.2 15.2 32.75 6.95 14.6 6.8 14.4 7.1 14.4 Q8.4 14.45 9.15 13.6 9.8 12.8 9.55 11.6 L9.1 10.55 18.5 7.45"/><path fill="none" stroke="#000000" stroke-width="0.5" stroke-opacity="0.301960784314" d="M5.45 20.95 L1.35 11.8 Q0.4 9.65 1.1 8.3 M0.75 8.25 Q-0.45 9.75 0.7 12.25 L4.6 20.9 M5.45 20.95 L12.5 36.65 M25.2 41.65 L38.9 37.25 40.2 36.7 Q42.95 35.15 41.35 31.7 L30.2 7.0 M17.5 1.95 L3.8 6.35 Q2.8 6.7 2.15 7.15 1.45 7.65 1.1 8.3 M0.75 8.25 Q1.2 7.6 2.15 7.15 M11.25 35.55 L4.6 20.9 M25.5 41.8 L38.3 37.65 Q39.5 37.3 40.2 36.7"/><path fill="none" stroke="#ffcc00" stroke-width="0.5" stroke-opacity="0.749019607843" d="M18.5 7.45 L27.75 10.95"/><path fill="none" stroke="#432f2f" stroke-width="0.5" d="M12.5 36.65 L25.2 41.65"/></g><radialGradient gradientUnits="userSpaceOnUse" r="819.2" cx="0" cy="0" spreadMethod="pad" gradientTransform="matrix(0.0914459228516,0.0,0.0,0.0914459228516,0.6,3.4)" id="gradient1"><stop offset="0.0" stop-color="#ffffff"/><stop offset="1.0" stop-color="#ffffff" stop-opacity="0.0"/></radialGradient><g id="c5"><path stroke="none" fill="url(#gradient1)" d="M36.65 -54.65 Q60.05 -42.0 69.75 -17.95 80.55 8.9 68.0 34.1 55.45 59.35 26.8 68.2 -1.8 77.05 -29.7 64.3 -57.6 51.6 -68.45 24.75 -79.3 -2.05 -66.75 -27.25 L-66.7 -27.3 Q-54.1 -52.5 -25.5 -61.4 3.1 -70.2 31.0 -57.5 L36.65 -54.65"/></g><g id="c6"><g><use transform="matrix(1.0,0.0,0.0,1.0,0.0,0.0)" xlink:href="#c5"/></g></g><radialGradient gradientUnits="userSpaceOnUse" r="819.2" cx="0" cy="0" spreadMethod="pad" gradientTransform="matrix(0.209197998047,0.0,0.0,0.177108764648,67.15,107.2)" id="gradient2"><stop offset="0.356862745098" stop-color="#ffffff"/><stop offset="0.670588235294" stop-opacity="0.0"/></radialGradient><g id="c7"><path fill="none" stroke-linejoin="round" stroke-linecap="round" stroke="url(#gradient2)" stroke-width="0.5" d="M136.55 165.8 L68.6 106.0 68.4 106.0 118.25 201.5 M68.3 105.8 L68.35 105.8 68.3 105.8 68.3 105.85 68.4 106.0 68.3 106.0 86.55 211.5 M68.3 105.8 L68.3 105.85 68.3 106.0 68.15 105.95 18.25 151.55 M68.3 105.85 L68.25 105.85 68.3 106.0 50.0 193.2 M68.25 105.85 L68.15 105.95 0.05 97.7 M68.3 105.85 L68.25 105.8 68.25 105.85 M68.25 105.8 L68.2 105.7 0.0 45.7 M68.3 105.8 L68.25 105.75 68.25 105.8 M68.25 105.75 L68.2 105.7 18.25 10.05 M68.6 106.0 L68.35 105.8 118.25 60.15 M86.6 18.35 L68.3 105.8 M136.6 114.25 L68.6 106.0 M68.25 105.75 L49.95 0.05"/></g><g id="c8"><g><use transform="matrix(1.0,0.0,0.0,1.0,0.0,0.0)" xlink:href="#c7"/></g></g><g id="c9"><g><use transform="matrix(0.238861083984,-0.0867004394531,0.10026550293,0.233917236328,34.25,31.15)" xlink:href="#c3"/></g><g><use transform="matrix(0.238861083984,-0.0867004394531,0.10026550293,0.233917236328,4.25,10.3)" xlink:href="#c3"/></g><g><use transform="matrix(1.0,0.0,0.0,1.0,0.0,0.0)" xlink:href="#c4"/></g><g><use transform="matrix(0.238861083984,-0.0867004394531,0.10026550293,0.233917236328,34.25,31.15)" xlink:href="#c3"/></g><g><use transform="matrix(0.238861083984,-0.0867004394531,0.10026550293,0.233917236328,4.25,10.3)" xlink:href="#c3"/></g><g><use transform="matrix(0.141098022461,-0.0378112792969,0.111373901367,0.225646972656,20.25,20.65)" filter="url(#filter9)" xlink:href="#c6"/></g><g><use transform="matrix(-0.155029296875,0.0513153076172,0.0841827392578,0.147033691406,22.6,3.15)" filter="url(#filter10)" xlink:href="#c8"/></g></g><filter id="filter9"><feColorMatrix in="SourceGraphic" type="matrix" values="0.0 0.0 0.0 0.0 0.796875 0.0 0.0 0.0 0.0 0.59765625 0.0 0.0 0.0 0.0 0.19921875 0.0 0.0 0.0 1.0 0.0" result="cxform"/><feComposite operator="in" in2="SourceGraphic" result="color-xform"/></filter><filter id="filter10"><feColorMatrix in="SourceGraphic" type="matrix" values="0.0 0.0 0.0 0.0 0.99609375 0.0 0.0 0.0 0.0 0.99609375 0.0 0.0 0.0 0.0 0.99609375 0.0 0.0 0.0 1.0 0.0" result="cxform"/><feComposite operator="in" in2="SourceGraphic" result="color-xform"/></filter><g id="c10"><path fill="#ffffff" stroke="none" d="M46.35 90.05 L45.05 90.6 31.05 95.1 18.7 90.15 7.5 65.15 Q6.55 63.0 7.25 61.65 7.6 61.0 8.3 60.5 8.95 60.05 9.95 59.7 L23.65 55.3 36.35 60.35 47.5 85.05 Q49.1 88.5 46.35 90.05"/></g><linearGradient gradientUnits="userSpaceOnUse" x1="-819.2" x2="819.2" spreadMethod="pad" gradientTransform="matrix(0.0255126953125,0.0,0.0,0.0268249511719,20.9,21.95)" id="gradient3"><stop offset="0.0" stop-color="#f90013"/><stop offset="0.160784313725" stop-color="#ff99ff"/><stop offset="0.462745098039" stop-color="#66ffff"/><stop offset="0.721568627451" stop-color="#ff9900"/><stop offset="1.0" stop-color="#33ff00"/></linearGradient><g id="c11"><path stroke="none" fill="url(#gradient3)" d="M0.6 8.2 Q1.05 7.55 2.0 7.1 2.65 6.65 3.65 6.3 L22.15 0.35 Q26.4 -1.05 28.3 3.05 L41.2 31.65 Q42.8 35.1 40.05 36.65 39.35 37.25 38.15 37.6 L19.65 43.6 Q17.0 44.4 15.35 43.25 14.2 42.5 13.5 40.85 L0.55 12.2 Q-0.6 9.7 0.6 8.2"/></g><g id="c12"><g><use transform="matrix(1.0,0.0,0.0,1.0,0.0,0.0)" xlink:href="#c11"/></g></g><linearGradient gradientUnits="userSpaceOnUse" x1="-819.2" x2="819.2" spreadMethod="pad" gradientTransform="matrix(-0.00405883789062,0.00466918945312,0.00407409667969,0.00254821777344,22.3,30.0)" id="gradient4"><stop offset="0.0" stop-color="#16cc71" stop-opacity="0.133333333333"/><stop offset="1.0" stop-color="#b1c991" stop-opacity="0.690196078431"/></linearGradient><g id="c13"><path fill="#1d769e" stroke="none" d="M12.85 25.75 Q14.45 25.65 14.4 23.75 14.3 21.9 17.15 22.5 20.1 23.05 20.65 22.1 21.25 21.2 22.15 21.35 25.1 21.7 29.15 26.75 23.45 27.45 19.15 31.4 L12.2 28.6 Q9.45 27.55 10.4 26.7 11.35 25.8 12.85 25.75"/><path fill="none" stroke="#000000" stroke-width="1.5" stroke-opacity="0.152941176471" d="M12.85 25.75 Q14.45 25.65 14.4 23.75 14.3 21.9 17.15 22.5 20.1 23.05 20.65 22.1 21.25 21.2 22.15 21.35 25.1 21.7 29.15 26.75 23.45 27.45 19.15 31.4 L12.2 28.6 Q9.45 27.55 10.4 26.7 11.35 25.8 12.85 25.75"/><path fill="none" stroke="#000000" stroke-width="1.5" stroke-opacity="0.152941176471" d="M20.75 30.15 Q18.95 29.4 17.3 28.4 M21.5 29.6 L16.65 26.6 M26.05 27.45 Q25.3 26.5 23.95 25.3 M24.65 27.95 L20.9 24.65"/><path fill="#0c3141" stroke="none" d="M23.1 7.6 L27.35 7.8 27.95 8.7 28.7 9.75 Q29.8 11.2 30.85 11.55 30.25 12.25 29.8 13.25 30.25 12.25 30.85 11.55 33.3 12.1 35.4 13.75 36.55 16.0 38.55 17.35 L36.3 17.05 Q34.65 15.7 34.3 14.55 L29.8 13.25 28.55 11.95 Q27.5 10.7 26.75 9.25 24.15 9.35 24.15 9.7 L23.1 7.6 24.15 9.7 22.45 9.15 17.5 7.3 Q16.85 8.25 16.9 9.7 14.35 8.5 13.2 8.05 13.95 6.0 16.35 4.5 L19.0 5.95 23.1 7.6"/><path fill="#14506b" stroke="none" d="M28.55 11.95 L29.8 13.25 Q29.1 14.9 28.85 17.45 L28.6 20.6 28.85 17.45 Q29.1 14.9 29.8 13.25 L34.3 14.55 Q34.65 15.7 36.3 17.05 33.95 17.05 31.9 18.3 30.75 19.1 29.7 20.25 L29.05 21.1 28.6 20.6 28.15 20.25 27.3 19.55 26.55 16.8 26.0 14.75 Q28.5 18.55 28.55 11.95 M32.4 30.6 Q32.1 34.6 30.2 37.8 25.8 44.9 17.25 43.7 L11.65 43.95 Q15.3 37.15 5.35 38.65 3.6 35.6 3.45 33.4 3.65 30.3 11.1 28.0 16.0 32.05 23.8 34.9 23.75 37.1 26.35 34.6 27.0 34.8 27.85 34.6 31.7 33.65 32.4 30.6 M25.4 18.55 L24.4 16.75 Q27.95 19.5 22.45 9.15 L24.15 9.7 26.0 14.75 26.55 16.8 27.3 19.55 Q26.3 18.85 25.4 18.55"/><path fill="#1e799d" stroke="none" d="M24.15 9.7 Q24.15 9.35 26.75 9.25 27.5 10.7 28.55 11.95 28.5 18.55 26.0 14.75 L24.15 9.7 M29.7 20.25 Q30.1 19.85 30.5 19.85 L31.05 22.3 Q32.55 26.95 32.4 30.6 31.7 33.65 27.85 34.6 27.0 34.8 26.35 34.6 23.75 37.1 23.8 34.9 16.0 32.05 11.1 28.0 3.65 30.3 3.45 33.4 3.35 31.65 4.05 30.8 4.85 29.85 7.15 28.4 9.4 26.95 16.85 25.35 L17.7 25.2 Q23.5 23.25 24.75 18.4 L25.2 18.5 25.4 18.55 Q26.3 18.85 27.3 19.55 L28.15 20.25 28.6 20.6 29.05 21.1 29.7 20.25 M24.4 16.75 L23.9 16.05 Q20.65 11.55 16.9 9.7 16.85 8.25 17.5 7.3 L22.45 9.15 Q27.95 19.5 24.4 16.75 M24.45 23.05 Q23.15 23.75 23.45 23.95 L24.65 24.2 Q25.45 24.2 25.2 24.35 L23.55 24.65 Q22.2 24.85 22.9 25.05 24.05 25.65 21.1 25.6 18.05 25.6 19.25 25.8 L21.0 26.1 21.95 26.15 23.05 25.8 24.2 25.35 Q24.6 25.25 24.3 25.15 L24.1 25.05 Q25.85 24.25 25.35 24.0 L24.85 23.95 24.25 23.65 Q25.75 22.55 26.4 20.6 L26.55 20.0 Q25.7 22.3 24.45 23.05 M21.4 24.95 L19.15 25.0 17.7 25.2 19.15 25.0 21.4 24.95 M26.85 27.8 Q26.55 28.55 27.6 29.05 28.05 28.2 27.75 27.65 L27.65 27.55 Q27.3 27.45 26.85 27.8 M26.45 31.45 Q26.9 30.95 26.55 30.25 L26.1 29.8 25.75 29.5 26.1 29.8 26.55 30.25 Q26.9 30.95 26.45 31.45 M28.1 28.65 Q28.3 28.3 28.1 27.95 L27.65 27.55 28.1 27.95 Q28.3 28.3 28.1 28.65 M24.25 29.85 Q24.05 30.65 25.6 31.7 26.85 30.75 25.9 29.7 L25.75 29.5 Q25.05 29.15 24.25 29.85 M24.6 26.7 L24.55 26.7 24.4 26.65 23.95 26.65 23.8 26.7 23.3 26.85 Q22.8 27.9 23.9 28.55 L24.65 28.05 Q25.4 27.4 24.7 26.85 L24.65 26.75 24.6 26.7 Q25.1 26.85 25.3 27.45 25.45 28.05 24.9 28.35 25.45 28.05 25.3 27.45 25.1 26.85 24.6 26.7 M22.65 28.9 Q22.0 28.75 21.1 29.2 21.35 30.25 22.7 31.0 23.95 30.05 23.0 29.2 L22.65 28.9 23.3 29.3 23.65 29.9 Q23.85 30.65 23.25 31.1 23.85 30.65 23.65 29.9 L23.3 29.3 22.65 28.9 M24.75 31.9 Q23.45 32.75 25.2 33.9 27.85 33.4 26.85 32.25 L26.6 32.05 25.8 31.85 24.75 31.9 M26.85 32.25 Q27.2 32.55 27.2 33.05 27.15 33.7 26.45 33.95 27.15 33.7 27.2 33.05 27.2 32.55 26.85 32.25"/><path fill="#ffffff" fill-opacity="0.670588235294" d="M24.45 23.05 Q25.7 22.3 26.55 20.0 L26.4 20.6 Q25.75 22.55 24.25 23.65 L24.85 23.95 25.35 24.0 Q25.85 24.25 24.1 25.05 L24.3 25.15 Q24.6 25.25 24.2 25.35 L23.05 25.8 21.95 26.15 21.0 26.1 19.25 25.8 Q18.05 25.6 21.1 25.6 24.05 25.65 22.9 25.05 22.2 24.85 23.55 24.65 L25.2 24.35 Q25.45 24.2 24.65 24.2 L23.45 23.95 Q23.15 23.75 24.45 23.05"/><path fill="#60d0ec" stroke="none" d="M27.65 27.55 L27.75 27.65 Q28.05 28.2 27.6 29.05 26.55 28.55 26.85 27.8 27.3 27.45 27.65 27.55 M25.75 29.5 L25.9 29.7 Q26.85 30.75 25.6 31.7 24.05 30.65 24.25 29.85 25.05 29.15 25.75 29.5 M23.3 26.85 L23.8 26.7 23.95 26.65 24.4 26.65 24.55 26.7 24.6 26.7 24.65 26.75 24.7 26.85 Q25.4 27.4 24.65 28.05 L23.9 28.55 Q22.8 27.9 23.3 26.85 M21.1 29.2 Q22.0 28.75 22.65 28.9 L23.0 29.2 Q23.95 30.05 22.7 31.0 21.35 30.25 21.1 29.2 M26.85 32.25 Q27.85 33.4 25.2 33.9 23.45 32.75 24.75 31.9 L25.8 31.85 26.6 32.05 26.85 32.25"/><path fill="none" stroke="#000000" stroke-width="1.5" stroke-opacity="0.2" d="M30.85 11.55 Q29.8 11.2 28.7 9.75 L27.95 8.7 27.35 7.8 23.1 7.6 24.15 9.7 Q24.15 9.35 26.75 9.25 27.5 10.7 28.55 11.95 L29.8 13.25 Q30.25 12.25 30.85 11.55 33.3 12.1 35.4 13.75 36.55 16.0 38.55 17.35 L36.3 17.05 Q33.95 17.05 31.9 18.3 30.75 19.1 29.7 20.25 30.1 19.85 30.5 19.85 L31.05 22.3 Q32.55 26.95 32.4 30.6 32.1 34.6 30.2 37.8 25.8 44.9 17.25 43.7 L11.65 43.95 Q15.3 37.15 5.35 38.65 3.6 35.6 3.45 33.4 3.35 31.65 4.05 30.8 4.85 29.85 7.15 28.4 9.4 26.95 16.85 25.35 L17.7 25.2 Q23.5 23.25 24.75 18.4 L25.2 18.5 25.4 18.55 24.4 16.75 23.9 16.05 Q20.65 11.55 16.9 9.7 14.35 8.5 13.2 8.05 13.95 6.0 16.35 4.5 L19.0 5.95 23.1 7.6 M22.45 9.15 L24.15 9.7 26.0 14.75 M28.6 20.6 L28.85 17.45 Q29.1 14.9 29.8 13.25 L34.3 14.55 Q34.65 15.7 36.3 17.05 M27.3 19.55 L26.55 16.8 26.0 14.75 M27.3 19.55 L28.15 20.25 28.6 20.6 29.05 21.1 29.7 20.25 M25.4 18.55 Q26.3 18.85 27.3 19.55 M16.9 9.7 Q16.85 8.25 17.5 7.3 L22.45 9.15 M17.7 25.2 L19.15 25.0 21.4 24.95"/><path fill="none" stroke="#010101" stroke-width="1.5" stroke-opacity="0.301960784314" d="M26.85 27.8 Q27.3 27.45 27.65 27.55 L28.1 27.95 Q28.3 28.3 28.1 28.65 M25.75 29.5 L26.1 29.8 26.55 30.25 Q26.9 30.95 26.45 31.45 M24.25 29.85 Q25.05 29.15 25.75 29.5 M23.3 26.85 L23.8 26.7 23.95 26.65 24.4 26.65 24.55 26.7 24.6 26.7 Q25.1 26.85 25.3 27.45 25.45 28.05 24.9 28.35 M22.65 28.9 Q22.0 28.75 21.1 29.2 M22.65 28.9 L23.3 29.3 23.65 29.9 Q23.85 30.65 23.25 31.1 M26.85 32.25 L26.6 32.05 25.8 31.85 24.75 31.9 M26.45 33.95 Q27.15 33.7 27.2 33.05 27.2 32.55 26.85 32.25"/><path fill="#1d769e" stroke="none" d="M38.5 30.5 Q37.7 31.35 39.1 33.35 40.55 35.3 38.4 36.1 36.2 36.9 36.6 38.2 36.95 39.55 36.3 39.75 34.3 40.9 28.1 37.5 30.95 33.9 30.6 27.55 L36.75 27.1 Q39.2 26.8 39.25 28.25 39.4 29.65 38.5 30.5"/><path fill="none" stroke="#000000" stroke-width="1.5" stroke-opacity="0.152941176471" d="M38.5 30.5 Q37.7 31.35 39.1 33.35 40.55 35.3 38.4 36.1 36.2 36.9 36.6 38.2 36.95 39.55 36.3 39.75 34.3 40.9 28.1 37.5 30.95 33.9 30.6 27.55 L36.75 27.1 Q39.2 26.8 39.25 28.25 39.4 29.65 38.5 30.5"/><path fill="none" stroke="#000000" stroke-width="1.5" stroke-opacity="0.152941176471" d="M30.6 30.6 L35.6 31.4 M30.6 29.7 L33.9 29.8 M29.45 35.25 L32.3 36.5 M29.9 33.95 L34.5 35.6"/><path stroke="none" fill="url(#gradient4)" d="M20.2 37.5 Q19.45 36.1 21.55 35.9 23.65 35.7 23.55 33.25 23.45 30.9 24.55 30.6 26.3 28.95 28.4 28.2 30.5 27.45 26.7 25.85 22.9 24.25 23.45 26.4 25.25 28.5 22.95 29.85 20.6 31.2 17.2 30.9 13.8 30.7 20.2 37.5"/><path fill="none" stroke="#759e3f" stroke-width="1.5" stroke-opacity="0.533333333333" d="M20.2 37.5 Q19.45 36.1 21.55 35.9 23.65 35.7 23.55 33.25 23.45 30.9 24.55 30.6"/><path fill="#ccffff" fill-opacity="0.501960784314" d="M20.35 30.5 L19.7 30.95 19.35 31.05 18.85 31.15 Q18.5 31.2 18.6 31.35 L18.85 31.5 19.15 31.55 19.75 31.35 20.65 30.35 20.8 29.75 20.35 30.5"/><path fill="#ccffff" fill-opacity="0.501960784314" d="M16.8 35.1 L17.25 34.1 17.4 32.75 16.65 34.65 Q16.25 35.35 16.4 35.35 L16.8 35.1"/><path fill="#1e799d" stroke="none" d="M2.35 39.0 L2.7 38.9 2.8 38.1 Q2.6 34.0 4.85 30.85 5.55 29.75 6.4 29.0 L6.15 28.75 5.8 28.15 Q5.5 26.6 6.45 27.0 L7.9 27.5 7.0 25.9 Q6.85 25.2 7.0 24.6 7.4 23.6 8.95 22.6 11.3 20.9 11.25 22.0 10.8 25.05 11.45 27.1 L11.6 27.05 12.85 26.9 Q19.9 28.15 21.85 33.3 22.15 36.15 20.55 37.45 L18.4 38.2 11.1 39.75 10.3 39.85 2.35 39.0 M9.35 27.9 L9.3 28.35 8.95 28.9 8.2 29.25 8.1 29.3 9.05 29.35 9.55 29.35 Q11.6 28.75 12.1 27.6 L11.6 27.45 11.2 27.45 9.65 27.7 9.2 27.8 9.35 27.9 M29.1 36.45 Q26.4 37.1 24.7 39.35 L20.95 39.55 24.3 37.8 25.35 36.95 28.55 36.5 29.1 36.45"/><path fill="#14506b" stroke="none" d="M2.35 39.0 L10.3 39.85 11.1 39.75 18.4 38.2 20.55 37.45 Q22.15 36.15 21.85 33.3 19.9 28.15 12.85 26.9 L13.65 26.8 18.3 27.1 Q20.0 27.6 21.5 28.7 24.85 31.2 25.15 35.3 L25.15 36.95 25.35 36.95 24.3 37.8 20.95 39.55 24.7 39.35 Q26.4 37.1 29.1 36.45 29.5 36.65 28.9 38.0 L28.2 39.05 Q25.4 42.4 21.5 42.1 L19.9 42.3 Q19.05 43.15 15.95 43.75 L11.05 44.15 6.4 43.8 3.65 43.05 1.9 41.5 1.0 40.6 Q-0.05 38.9 1.1 39.0 L2.35 39.0 M9.2 27.8 L9.65 27.7 11.2 27.45 11.6 27.45 12.1 27.6 Q11.6 28.75 9.55 29.35 L9.05 29.35 8.1 29.3 8.2 29.25 8.95 28.9 9.3 28.35 9.35 27.9 9.2 27.8"/><path fill="none" stroke="#000000" stroke-width="1.5" stroke-opacity="0.2" d="M11.45 27.1 Q10.8 25.05 11.25 22.0 11.3 20.9 8.95 22.6 7.4 23.6 7.0 24.6 6.85 25.2 7.0 25.9 L7.9 27.5 6.45 27.0 Q5.5 26.6 5.8 28.15 L6.15 28.75 6.4 29.0 Q5.55 29.75 4.85 30.85 2.6 34.0 2.8 38.1 L2.7 38.9 2.35 39.0 1.1 39.0 Q-0.05 38.9 1.0 40.6 L1.9 41.5 3.65 43.05 6.4 43.8 11.05 44.15 15.95 43.75 Q19.05 43.15 19.9 42.3 L21.5 42.1 Q25.4 42.4 28.2 39.05 L28.9 38.0 Q29.5 36.65 29.1 36.45 M9.35 27.9 L9.2 27.8 M25.35 36.95 L28.55 36.5 29.1 36.45"/><path fill="none" stroke="#000000" stroke-width="1.5" stroke-opacity="0.101960784314" d="M12.85 26.9 L11.6 27.05 11.45 27.1 M25.35 36.95 L25.15 36.95 25.15 35.3 Q24.85 31.2 21.5 28.7 20.0 27.6 18.3 27.1 L13.65 26.8 12.85 26.9"/></g><g id="c14"><path fill="#968a72" stroke="none" d="M-4.35 0.5 L-4.35 -2.25 Q-3.95 -3.55 0.15 -4.1 4.25 -4.7 4.4 -3.4 4.25 -1.1 3.05 0.5 2.0 1.9 0.1 2.75 L-1.35 3.2 Q2.55 1.3 0.95 -0.15 L-0.5 -0.2 Q-3.6 -0.2 -4.35 0.5"/><path fill="#ded3ad" stroke="none" d="M-4.35 0.5 Q-3.6 -0.2 -0.5 -0.2 L0.95 -0.15 Q2.55 1.3 -1.35 3.2 -4.05 3.85 -4.35 2.3 L-4.35 0.5"/><path fill="none" stroke="#4f442f" stroke-width="1.0" stroke-opacity="0.501960784314" d="M-1.35 3.2 L0.1 2.75 Q2.0 1.9 3.05 0.5 4.25 -1.1 4.4 -3.4 4.25 -4.7 0.15 -4.1 -3.95 -3.55 -4.35 -2.25 L-4.35 0.5 M-1.35 3.2 Q-4.05 3.85 -4.35 2.3 L-4.35 0.5"/></g><g id="c15"><g><use transform="matrix(1.0,0.0,0.0,1.0,0.0,0.0)" xlink:href="#c14"/></g></g><linearGradient gradientUnits="userSpaceOnUse" x1="-819.2" x2="819.2" spreadMethod="pad" gradientTransform="matrix(-0.00471496582031,0.0145568847656,0.00437927246094,-0.000473022460938,6.35,26.3)" id="gradient5"><stop offset="0.0" stop-color="#fffffa" stop-opacity="0.8"/><stop offset="1.0" stop-color="#c8d8ce" stop-opacity="0.0"/></linearGradient><linearGradient gradientUnits="userSpaceOnUse" x1="-819.2" x2="819.2" spreadMethod="pad" gradientTransform="matrix(-0.000686645507812,0.00564575195312,0.00650024414062,-0.00205993652344,8.9,22.9)" id="gradient6"><stop offset="0.0" stop-opacity="0.101960784314"/><stop offset="1.0" stop-opacity="0.0"/></linearGradient><linearGradient gradientUnits="userSpaceOnUse" x1="-819.2" x2="819.2" spreadMethod="pad" gradientTransform="matrix(-0.000686645507812,0.00564575195312,0.00650024414062,-0.00205993652344,9.9,16.85)" id="gradient7"><stop offset="0.0" stop-opacity="0.0705882352941"/><stop offset="1.0" stop-opacity="0.0"/></linearGradient><linearGradient gradientUnits="userSpaceOnUse" x1="-819.2" x2="819.2" spreadMethod="pad" gradientTransform="matrix(0.00210571289062,0.0139312744141,-0.00738525390625,0.00111389160156,4.55,22.7)" id="gradient8"><stop offset="0.0" stop-color="#fffffa"/><stop offset="1.0" stop-color="#c8d8ce" stop-opacity="0.0"/></linearGradient><linearGradient gradientUnits="userSpaceOnUse" x1="-819.2" x2="819.2" spreadMethod="pad" gradientTransform="matrix(0.0,0.00666809082031,0.00752258300781,-0.00361633300781,4.45,25.2)" id="gradient9"><stop offset="0.0" stop-opacity="0.101960784314"/><stop offset="1.0" stop-opacity="0.0"/></linearGradient><linearGradient gradientUnits="userSpaceOnUse" x1="-819.2" x2="819.2" spreadMethod="pad" gradientTransform="matrix(0.0,0.00666809082031,0.00752258300781,-0.00361633300781,4.45,25.2)" id="gradient10"><stop offset="0.0" stop-opacity="0.0705882352941"/><stop offset="1.0" stop-opacity="0.0"/></linearGradient><linearGradient gradientUnits="userSpaceOnUse" x1="-819.2" x2="819.2" spreadMethod="pad" gradientTransform="matrix(0.0,0.0130920410156,-0.00776672363281,-0.0001220703125,22.45,21.95)" id="gradient11"><stop offset="0.0" stop-color="#fffffa"/><stop offset="1.0" stop-color="#c8d8ce" stop-opacity="0.0"/></linearGradient><linearGradient gradientUnits="userSpaceOnUse" x1="-819.2" x2="819.2" spreadMethod="pad" gradientTransform="matrix(0.0,0.0103607177734,-0.0120544433594,-0.000167846679688,20.2,24.25)" id="gradient12"><stop offset="0.0" stop-opacity="0.101960784314"/><stop offset="1.0" stop-opacity="0.0"/></linearGradient><linearGradient gradientUnits="userSpaceOnUse" x1="-819.2" x2="819.2" spreadMethod="pad" gradientTransform="matrix(0.0,0.0103607177734,-0.0120544433594,-0.000167846679688,20.2,24.25)" id="gradient13"><stop offset="0.0" stop-opacity="0.0705882352941"/><stop offset="1.0" stop-opacity="0.0"/></linearGradient><g id="c16"><path fill="#0c3141" stroke="none" d="M22.95 20.55 Q22.95 20.25 23.45 19.85 24.05 19.3 24.95 19.3 L28.45 19.8 Q30.2 20.3 30.2 21.0 L29.5 21.5 28.35 21.7 27.95 21.45 Q27.9 21.15 27.15 21.1 L26.65 20.8 Q26.25 20.55 26.05 20.55 25.65 20.55 25.4 20.9 25.2 21.2 24.55 21.2 22.95 21.2 22.95 20.55 M20.95 23.25 Q20.95 22.65 22.65 22.15 L23.1 22.1 25.2 22.0 Q27.3 22.2 27.45 23.0 L28.05 23.1 28.6 22.95 28.75 23.05 29.4 23.2 30.0 23.8 Q30.95 24.6 31.15 25.6 L31.2 25.75 31.2 25.9 31.2 26.1 31.2 26.35 31.1 26.1 30.75 26.15 29.9 25.9 Q29.7 25.65 29.8 25.3 27.4 24.8 27.6 24.0 25.0 23.7 25.0 23.35 L25.15 23.1 25.0 23.0 24.3 23.2 24.15 23.1 24.15 23.05 23.8 23.05 23.5 23.05 Q23.15 23.1 22.75 23.3 L21.9 23.65 Q20.95 23.65 20.95 23.25 M22.3 24.1 L23.5 24.3 23.35 24.6 23.45 24.6 24.2 24.4 Q24.65 24.4 24.65 24.85 L24.65 25.05 25.45 25.25 Q27.1 25.8 27.15 26.4 L27.65 26.3 28.35 26.85 28.9 27.0 Q30.6 27.6 30.6 28.15 L30.4 28.45 30.7 28.9 31.1 29.65 31.25 29.9 31.0 30.35 31.45 30.75 31.6 31.0 31.5 31.25 31.2 31.45 29.85 31.1 Q29.65 31.05 29.95 30.95 L30.35 30.8 Q29.2 30.05 29.2 29.65 L29.45 29.35 Q27.25 28.35 27.25 28.0 27.25 27.65 27.55 27.6 L27.15 27.4 26.3 27.15 Q24.25 26.6 24.25 26.2 L24.45 25.95 Q23.4 25.45 23.15 25.45 L22.75 25.5 22.65 25.25 22.25 25.05 19.15 25.6 19.85 25.8 19.9 25.85 20.0 25.85 Q21.05 26.15 21.65 26.7 L22.0 27.1 22.05 27.1 22.5 27.35 22.4 27.65 Q23.2 27.55 23.6 28.0 L23.15 28.4 25.15 29.15 Q26.55 29.75 26.25 30.35 L27.95 31.25 Q28.85 31.85 28.85 32.2 L28.2 32.75 29.1 33.6 29.8 34.55 28.95 34.95 29.35 35.65 Q29.35 36.05 28.85 36.05 L28.0 35.8 27.45 35.35 28.25 35.25 Q26.15 33.75 26.15 33.25 26.15 32.95 26.6 32.95 L26.9 33.0 26.2 32.25 24.75 31.05 24.85 31.0 23.85 30.2 Q22.8 29.75 22.8 29.45 L22.8 29.4 21.7 28.9 Q17.2 25.15 15.6 26.15 L13.85 25.85 15.45 25.45 18.0 25.35 18.45 25.45 18.4 25.15 Q18.4 24.95 19.25 24.5 20.3 23.95 21.5 23.95 L22.2 24.1 22.3 24.1"/><path stroke="none" fill="url(#gradient5)" d="M17.6 24.7 L17.65 24.75 Q21.0 28.25 19.45 34.75 17.95 41.3 10.6 38.8 3.2 36.2 2.25 33.5 1.35 30.75 1.65 29.6 1.95 28.4 5.7 26.0 9.4 23.5 9.5 21.4 9.6 19.25 8.25 16.85 6.95 14.35 7.15 12.95 7.25 11.65 8.3 10.75 9.45 9.9 10.7 9.85 12.1 9.75 12.9 10.5 13.8 11.4 13.6 13.05 L13.1 14.15 Q12.45 15.15 11.55 15.45 10.5 15.75 9.9 15.1 9.45 14.45 9.5 13.9 L9.6 13.55 10.0 12.8 9.9 12.8 Q9.25 13.5 9.2 14.2 9.05 15.4 10.25 17.8 11.45 20.25 15.25 22.45 L16.35 23.7 Q14.95 22.0 17.6 24.7 L16.35 23.7 17.6 24.7"/><path fill="none" stroke-linejoin="round" stroke-linecap="round" stroke="url(#gradient6)" stroke-width="0.5" d="M10.0 12.8 L9.6 13.55 9.5 13.9 Q9.45 14.45 9.9 15.1 10.5 15.75 11.55 15.45 12.45 15.15 13.1 14.15 L13.6 13.05 Q13.8 11.4 12.9 10.5 12.1 9.75 10.7 9.85 9.45 9.9 8.3 10.75 7.25 11.65 7.15 12.95 6.95 14.35 8.25 16.85 9.6 19.25 9.5 21.4 9.4 23.5 5.7 26.0 1.95 28.4 1.65 29.6 1.35 30.75 2.25 33.5 3.2 36.2 10.6 38.8 17.95 41.3 19.45 34.75 21.0 28.25 17.65 24.75 L17.6 24.7 16.35 23.7 15.25 22.45 Q11.45 20.25 10.25 17.8 9.05 15.4 9.2 14.2 9.25 13.5 9.9 12.8 M17.6 24.7 Q14.95 22.0 16.35 23.7"/><path fill="none" stroke-linejoin="round" stroke-linecap="round" stroke="url(#gradient7)" stroke-width="0.5" d="M9.9 12.8 L10.0 12.8"/><path fill="none" stroke="#000000" stroke-width="0.5" stroke-opacity="0.0705882352941" d="M10.05 12.75 Q11.4 11.35 11.75 13.05"/><path stroke="none" fill="url(#gradient8)" d="M3.9 20.5 Q3.2 21.4 3.2 22.25 3.2 23.65 4.05 24.3 L5.8 25.05 Q8.45 25.95 10.3 28.5 12.15 31.05 12.25 32.45 12.35 33.8 10.15 35.45 7.95 37.1 6.6 37.3 L3.95 37.15 Q2.65 36.8 1.25 35.1 -0.15 33.45 0.05 32.7 0.2 31.9 2.35 30.0 4.45 28.05 2.45 25.5 0.5 22.9 0.5 21.25 0.5 19.7 1.7 18.45 2.85 17.3 4.45 16.95 6.05 16.55 7.15 17.25 8.4 18.1 8.4 20.05 L7.95 21.4 Q7.25 22.75 6.2 23.25 L4.2 23.1 Q3.55 22.45 3.55 21.8 L3.6 21.4 4.05 20.45 3.9 20.5"/><path fill="none" stroke-linejoin="round" stroke-linecap="round" stroke="url(#gradient9)" stroke-width="0.5" d="M4.05 20.45 L3.6 21.4 3.55 21.8 Q3.55 22.45 4.2 23.1 L6.2 23.25 Q7.25 22.75 7.95 21.4 L8.4 20.05 Q8.4 18.1 7.15 17.25 6.05 16.55 4.45 16.95 2.85 17.3 1.7 18.45 0.5 19.7 0.5 21.25 0.5 22.9 2.45 25.5 4.45 28.05 2.35 30.0 0.2 31.9 0.05 32.7 -0.15 33.45 1.25 35.1 2.65 36.8 3.95 37.15 L6.6 37.3 Q7.95 37.1 10.15 35.45 12.35 33.8 12.25 32.45 12.15 31.05 10.3 28.5 8.45 25.95 5.8 25.05 L4.05 24.3 Q3.2 23.65 3.2 22.25 3.2 21.4 3.9 20.5"/><path fill="none" stroke-linejoin="round" stroke-linecap="round" stroke="url(#gradient10)" stroke-width="0.5" d="M3.9 20.5 L4.05 20.45"/><path fill="none" stroke="#000000" stroke-width="0.5" stroke-opacity="0.0705882352941" d="M4.0 20.45 Q5.4 18.6 6.1 20.55"/><path stroke="none" fill="url(#gradient11)" d="M20.8 16.6 L21.6 17.7 21.65 18.3 Q21.65 19.3 20.6 20.8 19.3 22.55 17.4 22.5 15.7 22.45 14.65 20.8 13.9 19.7 13.9 19.05 13.9 16.05 15.85 13.8 17.6 11.95 20.25 11.4 22.75 10.8 24.6 11.75 26.55 12.85 26.55 15.25 26.55 17.8 23.45 23.25 20.25 28.65 20.9 30.8 21.5 32.95 23.5 34.0 25.5 35.05 26.0 39.0 26.5 42.95 23.65 41.95 20.75 40.9 18.1 41.25 15.45 41.55 12.95 39.1 L10.0 36.45 Q9.5 36.25 9.1 33.75 8.7 31.2 14.5 27.25 L20.9 22.55 Q22.2 20.9 22.2 18.75 22.2 17.4 21.1 16.5 L20.8 16.6"/><path fill="none" stroke-linejoin="round" stroke-linecap="round" stroke="url(#gradient12)" stroke-width="0.5" d="M20.8 16.6 L21.6 17.7 21.65 18.3 Q21.65 19.3 20.6 20.8 19.3 22.55 17.4 22.5 15.7 22.45 14.65 20.8 13.9 19.7 13.9 19.05 13.9 16.05 15.85 13.8 17.6 11.95 20.25 11.4 22.75 10.8 24.6 11.75 26.55 12.85 26.55 15.25 26.55 17.8 23.45 23.25 20.25 28.65 20.9 30.8 21.5 32.95 23.5 34.0 25.5 35.05 26.0 39.0 26.5 42.95 23.65 41.95 20.75 40.9 18.1 41.25 15.45 41.55 12.95 39.1 L10.0 36.45 Q9.5 36.25 9.1 33.75 8.7 31.2 14.5 27.25 L20.9 22.55 Q22.2 20.9 22.2 18.75 22.2 17.4 21.1 16.5"/><path fill="none" stroke-linejoin="round" stroke-linecap="round" stroke="url(#gradient13)" stroke-width="0.5" d="M21.1 16.5 L20.8 16.6"/><path fill="none" stroke="#000000" stroke-width="0.5" stroke-opacity="0.0705882352941" d="M20.95 16.5 Q18.65 14.65 17.55 18.2"/><path fill="#000000" stroke="none" d="M12.85 36.9 L13.0 37.0 13.25 36.65 16.05 33.15 Q16.4 33.25 16.4 33.7 16.4 34.3 13.5 37.45 L15.45 39.2 15.35 39.5 14.85 39.65 Q14.15 39.65 13.0 38.7 L12.75 39.35 Q12.4 40.45 11.85 41.0 11.45 40.85 11.45 40.4 11.45 39.4 12.3 38.05 L12.0 37.75 10.35 35.85 Q10.35 34.9 12.85 36.9 M5.0 33.5 Q5.3 33.65 5.3 34.2 L5.0 36.6 Q5.7 36.3 6.65 36.15 L6.9 36.35 5.15 37.9 Q5.5 39.4 6.75 40.4 L6.35 40.85 Q5.1 39.55 4.7 38.65 L4.55 38.3 3.9 38.7 3.45 38.15 Q3.45 37.5 4.3 36.95 L4.35 36.95 4.35 36.7 4.4 35.2 5.0 33.5"/></g><g id="c17"><g><use transform="matrix(1.0,0.0,0.0,1.0,0.0,0.0)" xlink:href="#c13"/></g><g><use transform="matrix(-0.413970947266,-0.0428466796875,-0.0859680175781,0.360687255859,5.0,44.35)" xlink:href="#c15"/></g><g><use transform="matrix(0.496383666992,-0.0610961914062,0.0283203125,0.422729492188,16.65,44.8)" xlink:href="#c15"/></g><g><use transform="matrix(1.0,0.0,0.0,1.0,0.0,0.0)" xlink:href="#c16"/></g></g><g id="c18"><path fill="#999999" stroke="none" d="M46.5 90.1 Q45.8 90.7 44.6 91.05 L31.8 95.2 31.75 95.15 31.55 95.2 45.2 90.65 46.2 90.25 46.5 90.1"/><path fill="none" stroke="#ffaa00" stroke-width="0.5" stroke-opacity="0.749019607843" d="M31.55 95.2 L30.85 95.4 18.15 90.4 17.5 89.0 10.9 74.45 9.9 72.25 6.85 65.65 Q5.7 63.15 6.9 61.65 7.45 60.95 8.5 60.45 9.15 60.0 10.1 59.7 L23.8 55.3 23.85 55.3 36.55 60.4 36.6 60.4 47.7 85.1 Q49.3 88.6 46.5 90.1 45.8 90.7 44.6 91.05 L31.8 95.2"/><path fill="none" stroke="#000000" stroke-width="0.5" stroke-opacity="0.301960784314" d="M31.55 95.2 L45.2 90.65 46.2 90.25 46.5 90.1 Q49.25 88.55 47.65 85.1 L36.55 60.4 M9.9 72.25 L7.0 65.65 Q5.85 63.15 7.05 61.65 7.5 61.0 8.45 60.55 9.1 60.1 10.1 59.75 L23.85 55.3"/></g><linearGradient gradientUnits="userSpaceOnUse" x1="-819.2" x2="819.2" spreadMethod="pad" gradientTransform="matrix(-0.00735473632812,0.0306396484375,-0.0266723632812,-0.0176086425781,34.25,44.6)" id="gradient14"><stop offset="0.0" stop-opacity="0.337254901961"/><stop offset="1.0" stop-opacity="0.0"/></linearGradient><linearGradient gradientUnits="userSpaceOnUse" x1="-819.2" x2="819.2" spreadMethod="pad" gradientTransform="matrix(-0.0125732421875,0.0358276367188,-0.0249176025391,-0.0237579345703,24.2,32.05)" id="gradient15"><stop offset="0.0" stop-opacity="0.337254901961"/><stop offset="1.0" stop-opacity="0.0"/></linearGradient><linearGradient gradientUnits="userSpaceOnUse" x1="-819.2" x2="819.2" spreadMethod="pad" gradientTransform="matrix(-0.00982666015625,0.0313873291016,-0.0181274414062,-0.0154724121094,4.1,17.85)" id="gradient16"><stop offset="0.0" stop-opacity="0.337254901961"/><stop offset="1.0" stop-opacity="0.0"/></linearGradient><linearGradient gradientUnits="userSpaceOnUse" x1="-819.2" x2="819.2" spreadMethod="pad" gradientTransform="matrix(0.0,0.0410766601562,-0.0333709716797,-0.0151062011719,15.9,32.85)" id="gradient17"><stop offset="0.0" stop-opacity="0.337254901961"/><stop offset="1.0" stop-opacity="0.0"/></linearGradient><g id="c19"><path stroke="none" fill="url(#gradient14)" d="M31.7 5.7 L36.8 5.55 36.8 42.05 31.7 42.05 31.7 5.7"/><path stroke="none" fill="url(#gradient15)" d="M21.35 42.05 L21.35 5.6 26.45 5.6 26.45 42.05 21.35 42.05"/><path stroke="none" fill="url(#gradient16)" d="M0.0 6.65 L5.1 6.45 5.1 42.05 0.0 42.05 0.0 6.65"/><path stroke="none" fill="url(#gradient17)" d="M9.4 42.05 L9.65 5.6 15.7 5.6 15.05 42.05 9.4 42.05"/></g><g id="c20"><g><use transform="matrix(1.0,0.0,0.0,1.0,0.0,0.0)" xlink:href="#c19"/></g></g><g id="c21"><path fill="#fefd8d" fill-opacity="0.972549019608" d="M33.85 83.75 L33.85 83.8 33.85 83.95 33.85 84.0 33.85 84.1 33.9 84.1 33.9 84.15 34.35 84.4 34.85 84.75 34.35 84.45 34.1 84.3 34.05 84.25 33.95 84.2 33.9 84.2 33.9 84.7 33.9 85.25 33.85 84.75 33.75 84.2 33.7 84.1 33.5 84.25 33.0 84.55 32.7 84.7 32.95 84.5 33.4 84.3 33.45 84.25 33.5 84.2 33.7 84.1 33.65 84.05 33.7 84.05 33.7 84.0 33.3 83.6 32.95 83.25 33.3 83.55 33.55 83.8 33.7 83.95 33.8 83.4 33.9 82.95 33.85 83.35 33.85 83.75 M34.25 84.0 L34.15 84.0 33.9 84.05 34.15 83.95 34.7 83.75 35.2 83.65 34.85 83.75 34.95 83.85 34.85 83.75 34.7 83.8 34.4 83.9 34.35 83.9 34.25 84.0 M34.95 83.85 L35.65 84.4 36.45 85.15 36.5 85.2 36.75 85.45 36.9 85.55 36.9 85.5 37.1 83.9 37.35 82.3 37.45 81.75 37.4 82.25 37.4 83.85 37.2 85.6 37.35 86.0 37.4 86.1 38.7 86.9 40.15 87.75 40.55 88.05 40.1 87.8 38.75 87.05 37.75 86.45 37.4 86.25 37.35 86.2 37.4 86.3 37.5 87.75 37.55 89.45 37.6 90.0 37.5 89.5 37.25 87.9 37.05 86.25 37.0 86.3 36.9 85.9 36.7 85.75 36.9 85.85 36.9 85.65 35.7 84.55 34.95 83.85 M35.7 86.65 L36.1 86.45 36.2 86.4 36.85 86.1 36.3 86.45 34.8 87.25 33.35 88.0 32.8 88.25 33.3 88.0 34.65 87.2 35.7 86.65 M41.85 84.45 L41.35 84.6 39.85 85.15 38.15 85.7 37.5 85.9 Q37.45 85.85 38.1 85.65 L39.7 85.1 41.3 84.6 41.85 84.45"/><path fill="#fffd8f" fill-opacity="0.4" d="M33.85 83.75 L34.05 83.4 34.25 83.2 34.15 83.4 34.0 83.8 33.9 83.9 33.85 83.8 33.85 83.75 M34.1 84.3 L34.35 84.5 34.45 84.65 34.25 84.5 34.0 84.3 33.95 84.2 34.05 84.25 34.1 84.3 M33.4 84.3 L33.3 84.3 32.95 84.45 32.7 84.55 32.95 84.4 33.35 84.25 33.45 84.25 33.4 84.3 M33.55 83.8 L33.4 83.6 33.6 83.8 33.65 83.9 33.55 83.8 M34.25 84.0 L34.35 83.9 34.4 83.9 34.65 83.85 34.95 83.85 35.05 83.8 34.95 83.85 34.7 83.9 34.3 84.0 34.2 84.0 34.25 84.0 M36.45 85.15 L35.85 84.4 35.45 83.85 35.95 84.3 36.65 85.15 36.9 85.5 36.75 85.45 36.5 85.2 36.45 85.15 M37.75 86.45 Q38.15 86.7 38.6 87.1 L39.3 87.75 38.5 87.15 37.6 86.5 37.4 86.3 37.35 86.2 37.4 86.25 37.75 86.45 M33.6 84.3 L33.7 84.2 33.75 84.35 33.65 84.7 33.55 85.05 33.55 84.75 33.6 84.3 M37.65 85.15 L37.35 85.5 37.35 85.0 37.9 84.05 38.5 83.1 38.7 82.75 38.55 83.1 38.15 84.05 37.65 85.15 M35.7 86.65 L34.7 87.0 33.8 87.3 34.7 86.95 35.75 86.5 36.1 86.45 35.7 86.65 M38.7 85.65 L38.25 85.7 38.7 85.55 39.75 85.35 40.7 85.2 41.05 85.15 40.75 85.25 39.8 85.45 38.7 85.65 M36.7 86.7 L36.95 86.25 37.0 86.75 36.65 87.8 36.3 88.85 36.15 89.25 36.25 88.85 36.4 87.85 Q36.5 87.1 36.7 86.7"/><path fill="#fffd8f" fill-opacity="0.392156862745" d="M38.0 86.75 Q37.9 86.0 37.45 85.8 L36.9 85.85 Q36.75 86.1 36.9 86.5 37.1 87.0 37.65 87.3 L38.35 87.95 38.6 88.25 38.45 87.85 38.0 86.75"/><path fill="#fffd8f" fill-opacity="0.392156862745" d="M38.0 86.25 L37.05 85.85 Q36.8 85.8 36.95 85.95 L37.55 86.35 38.35 86.6 Q38.8 86.65 39.05 86.85 L39.35 86.95 39.0 86.75 38.0 86.25"/><path fill="#fffd8f" fill-opacity="0.392156862745" d="M36.4 84.8 Q36.35 85.55 36.75 85.85 L37.3 85.9 37.45 85.25 Q37.35 84.75 36.9 84.35 36.35 83.9 36.3 83.55 L36.1 83.25 36.2 83.65 36.4 84.8"/><path fill="#fffd8f" fill-opacity="0.392156862745" d="M36.25 85.35 L37.1 85.95 37.2 85.8 36.75 85.3 35.95 84.9 Q35.55 84.75 35.3 84.6 L35.05 84.45 35.35 84.65 36.25 85.35"/><path fill="#fffd8f" fill-opacity="0.392156862745" d="M38.75 85.2 Q38.0 85.45 37.85 85.65 37.7 85.85 37.85 85.8 L38.5 85.65 39.25 85.2 39.9 84.75 40.15 84.6 39.75 84.75 38.75 85.2"/><path fill="#fffd8f" fill-opacity="0.392156862745" d="M35.75 87.0 L36.6 86.4 36.5 86.25 Q36.25 86.25 35.9 86.5 L35.25 87.1 34.7 87.65 Q34.4 87.8 34.45 87.85 L34.8 87.6 35.75 87.0"/><path fill="#fffd8f" fill-opacity="0.392156862745" d="M34.1 84.35 L33.95 84.05 33.75 84.05 Q33.65 84.1 33.7 84.25 L34.0 84.55 34.2 84.75 34.3 84.85 34.2 84.75 34.1 84.35"/><path fill="#fffd8f" fill-opacity="0.392156862745" d="M34.1 84.2 Q33.9 84.05 33.75 84.05 L33.75 84.1 33.95 84.2 34.2 84.3 34.5 84.4 34.55 84.4 34.45 84.4 34.1 84.2"/><path fill="#fffd8f" fill-opacity="0.392156862745" d="M33.5 83.65 L33.65 84.05 33.85 84.05 33.9 83.85 33.65 83.55 33.5 83.25 33.45 83.15 33.5 83.25 33.5 83.65"/><path fill="#fffd8f" fill-opacity="0.392156862745" d="M33.5 83.9 L33.75 84.05 33.8 84.0 33.65 83.85 33.35 83.7 33.2 83.6 33.05 83.55 33.15 83.6 33.5 83.9"/><path fill="#fffd8f" fill-opacity="0.392156862745" d="M34.3 83.8 L34.05 83.95 34.05 84.0 34.25 83.95 34.55 83.8 Q34.6 83.7 34.7 83.7 L34.8 83.6 34.7 83.65 34.3 83.8"/><path fill="#fffd8f" fill-opacity="0.392156862745" d="M33.3 84.45 L33.6 84.2 33.6 84.15 Q33.5 84.15 33.4 84.3 L33.15 84.45 32.95 84.65 32.85 84.75 33.0 84.6 33.3 84.45"/><path fill="#ffffff" stroke="none" d="M36.3 85.35 Q36.05 85.7 36.05 86.15 L36.5 86.9 37.3 87.15 38.05 86.75 38.25 85.9 37.85 85.2 37.05 84.95 36.3 85.35"/><path fill="#fefd8d" fill-opacity="0.972549019608" d="M18.75 62.3 L18.65 62.35 18.2 62.45 18.6 62.25 19.85 61.9 21.0 61.5 21.4 61.35 21.05 61.5 19.9 61.9 18.75 62.3 M17.45 61.95 L17.7 62.2 17.75 62.2 17.7 62.15 17.85 61.05 18.05 59.85 18.15 59.4 18.1 59.8 18.05 61.0 18.0 62.25 18.1 62.6 19.15 63.2 20.0 63.75 19.15 63.3 18.5 62.95 18.4 62.85 18.15 62.7 18.1 62.7 18.15 62.75 18.2 63.85 18.2 64.9 18.0 64.0 17.85 62.8 17.8 62.8 17.75 62.45 17.6 62.3 17.7 62.35 17.7 62.3 16.85 61.5 15.9 60.65 15.65 60.35 15.95 60.65 16.8 61.4 17.45 61.95 M14.7 64.25 L15.05 64.05 16.1 63.45 17.25 62.85 17.7 62.65 17.3 62.95 16.2 63.45 15.1 64.05 14.7 64.25"/><path fill="#fffd8f" fill-opacity="0.4" d="M18.75 62.3 L19.1 62.2 19.85 62.05 20.6 61.95 19.85 62.15 19.05 62.3 18.75 62.3 M17.45 61.95 L16.95 61.35 16.5 60.75 17.0 61.3 17.55 61.95 17.7 62.15 17.75 62.2 17.7 62.2 17.45 61.95 M18.5 62.95 L19.0 63.35 19.6 63.8 19.8 64.0 19.6 63.85 18.95 63.4 18.3 62.9 18.15 62.75 18.1 62.7 18.15 62.7 18.4 62.85 18.5 62.95 M18.3 61.9 L18.05 62.2 18.1 61.85 18.45 61.15 18.9 60.4 19.1 60.2 18.95 60.4 18.65 61.15 18.3 61.9 M17.55 63.1 L17.75 62.75 17.8 63.1 17.6 63.95 17.25 64.7 17.15 64.95 17.2 64.7 17.4 63.9 Q17.4 63.4 17.55 63.1 M16.9 62.9 L17.2 62.85 Q17.15 62.9 16.85 63.05 L16.15 63.3 15.45 63.55 15.2 63.6 15.45 63.5 16.1 63.25 Q16.6 63.0 16.9 62.9"/><path fill="#fffd8f" fill-opacity="0.392156862745" d="M18.6 63.1 L18.15 62.4 17.7 62.45 17.75 62.95 18.3 63.55 Q18.75 63.8 18.8 64.0 L19.0 64.25 18.85 63.95 18.6 63.1"/><path fill="#fffd8f" fill-opacity="0.392156862745" d="M18.55 62.7 Q18.05 62.4 17.9 62.4 17.7 62.4 17.8 62.5 L18.25 62.8 18.85 63.0 19.35 63.15 19.6 63.2 19.35 63.1 18.55 62.7"/><path fill="#fffd8f" fill-opacity="0.392156862745" d="M17.3 61.7 Q17.35 62.3 17.55 62.45 L18.0 62.5 18.1 62.0 17.65 61.35 17.25 60.75 17.15 60.5 17.2 60.8 17.3 61.7"/><path fill="#fffd8f" fill-opacity="0.392156862745" d="M17.25 62.1 L17.9 62.5 17.95 62.45 17.6 62.05 17.05 61.75 16.55 61.5 16.35 61.4 16.55 61.6 Q16.8 61.7 17.25 62.1"/><path fill="#fffd8f" fill-opacity="0.392156862745" d="M19.05 61.9 L18.4 62.3 18.45 62.4 18.9 62.3 19.5 61.95 19.95 61.6 20.15 61.5 19.85 61.6 19.05 61.9"/><path fill="#fffd8f" fill-opacity="0.392156862745" d="M16.9 63.3 L17.5 62.85 17.45 62.7 17.05 62.9 16.5 63.35 16.15 63.75 15.95 63.95 16.2 63.75 16.9 63.3"/><path fill="#ffffff" stroke="none" d="M17.4 62.1 Q17.15 62.35 17.2 62.65 L17.55 63.25 18.1 63.4 18.7 63.1 18.85 62.5 18.55 61.95 17.9 61.75 17.4 62.1"/><path fill="#ffffff" stroke="none" d="M33.55 83.9 L33.45 84.15 33.6 84.45 33.85 84.5 34.15 84.4 34.2 84.05 34.1 83.85 33.75 83.75 33.55 83.9"/></g><g id="c22"><g><use transform="matrix(1.0,0.0,0.0,1.0,6.3,53.35)" xlink:href="#c9"/></g><mask id="mask10"><use transform="matrix(1.0,0.0,0.0,1.0,0.0,0.0)" xlink:href="#c10"/></mask><g mask="url(#mask10)"><use transform="matrix(1.0,0.0,0.0,1.0,6.45,53.4)" xlink:href="#c12"/></g><g><use transform="matrix(0.444900512695,-0.0388031005859,0.0388031005859,0.444900512695,18.65,64.1)" xlink:href="#c17"/></g><g><use transform="matrix(1.0,0.0,0.0,1.0,0.0,0.0)" xlink:href="#c18"/></g><mask id="mask10"><use transform="matrix(1.0,0.0,0.0,1.0,0.0,0.0)" xlink:href="#c10"/></mask><g mask="url(#mask10)"><use transform="matrix(1.0,0.0,0.0,1.0,9.65,51.0)" filter="url(#filter24)" xlink:href="#c20"/></g><g mask="url(#mask10)"><use transform="matrix(1.0,0.0,0.0,1.0,9.65,51.0)" filter="url(#filter25)" xlink:href="#c20"/></g><g mask="url(#mask10)"><use transform="matrix(1.0,0.0,0.0,1.0,0.0,0.0)" xlink:href="#c21"/></g><g><use transform="matrix(0.141098022461,-0.0378112792969,0.111373901367,0.225646972656,27.2,74.05)" filter="url(#filter27)" xlink:href="#c6"/></g></g><filter id="filter24"><feColorMatrix in="SourceGraphic" type="matrix" values="0.0 0.0 0.0 0.0 0.99609375 0.0 0.0 0.0 0.0 0.99609375 0.0 0.0 0.0 0.0 0.99609375 0.0 0.0 0.0 1.0 0.0" result="cxform"/><feComposite operator="in" in2="SourceGraphic" result="color-xform"/></filter><filter id="filter25"><feColorMatrix in="SourceGraphic" type="matrix" values="0.0 0.0 0.0 0.0 0.99609375 0.0 0.0 0.0 0.0 0.99609375 0.0 0.0 0.0 0.0 0.99609375 0.0 0.0 0.0 1.0 0.0" result="cxform"/><feComposite operator="in" in2="SourceGraphic" result="color-xform"/></filter><filter id="filter27"><feColorMatrix in="SourceGraphic" type="matrix" values="1.0 0.0 0.0 0.0 0.0 0.0 1.0 0.0 0.0 0.0 0.0 0.0 1.0 0.0 0.0 0.0 0.0 0.0 0.23046875 0.0" result="cxform"/><feComposite operator="in" in2="SourceGraphic" result="color-xform"/></filter></defs><g><g><use transform="matrix(1.0,0.0,0.0,1.0,0.0,0.0)" xlink:href="#c1"/></g><g><use transform="matrix(1.15496826172,0.0,0.0,1.15496826172,-1.75,-56.9)" xlink:href="#c22"/></g></g></svg>