<?xml version='1.0' encoding='UTF-8'?>
<svg xmlns:xlink="http://www.w3.org/1999/xlink" xmlns="http://www.w3.org/2000/svg" version="1.1" width="60px" height="60px" viewBox="0.0 0.0 60.0 60.0"><defs><g id="c1"><path fill="#000000" fill-opacity="0.00392156862745" d="M0.0 0.0 L60.0 0.0 60.0 60.0 0.0 60.0 0.0 0.0"/></g><g id="c2"><path fill="none" stroke="#000000" stroke-width="1.0" stroke-opacity="0.301960784314" d="M0.7 12.25 Q-0.45 9.75 0.75 8.25 1.2 7.6 2.15 7.15 2.8 6.7 3.8 6.35 L17.5 1.95 30.2 7.0 41.35 31.7 Q42.95 35.15 40.2 36.7 39.5 37.3 38.3 37.65 L25.5 41.8 25.45 41.75 24.55 42.0 11.85 37.0 0.7 12.25"/><path fill="#9d147b" stroke="none" d="M35.55 22.3 L31.5 13.2 29.75 9.2 16.95 4.25 5.5 7.85 Q1.65 9.1 3.35 12.8 L8.25 23.65 13.1 34.35 25.8 39.4 37.2 35.7 Q41.1 34.5 39.35 30.75 L35.55 22.3 M5.45 20.95 L1.35 11.8 Q0.4 9.65 1.1 8.3 1.45 7.65 2.15 7.15 2.8 6.7 3.8 6.35 L17.5 1.95 30.2 7.0 41.35 31.7 Q42.95 35.15 40.2 36.7 L38.9 37.25 25.2 41.65 12.5 36.65 5.45 20.95"/><path fill="#c47fad" stroke="none" d="M31.5 13.2 L35.55 22.3 39.35 30.75 Q41.1 34.5 37.2 35.7 L25.8 39.4 13.1 34.35 8.25 23.65 3.35 12.8 Q1.65 9.1 5.5 7.85 L16.95 4.25 29.75 9.2 31.5 13.2 M18.5 7.45 L9.1 10.55 9.55 11.6 Q9.8 12.8 9.15 13.6 8.4 14.45 7.1 14.4 L6.8 14.4 6.95 14.6 15.2 32.75 23.85 36.2 34.0 32.9 33.7 32.1 Q33.45 30.9 34.1 30.1 34.75 29.3 35.95 29.35 L35.8 29.0 27.75 10.95 18.5 7.45"/><path fill="#fcf2cf" stroke="none" d="M27.75 10.95 L35.8 29.0 35.95 29.35 Q34.75 29.3 34.1 30.1 33.45 30.9 33.7 32.1 L34.0 32.9 23.85 36.2 15.2 32.75 6.95 14.6 6.8 14.4 7.1 14.4 Q8.4 14.45 9.15 13.6 9.8 12.8 9.55 11.6 L9.1 10.55 18.5 7.45 27.75 10.95"/><path fill="#630a4c" stroke="none" d="M1.1 8.3 L0.75 8.25 Q1.2 7.6 2.15 7.15 1.45 7.65 1.1 8.3 M4.6 20.9 L5.45 20.95 12.5 36.65 11.55 36.25 11.25 35.55 4.6 20.9"/><path fill="#300525" stroke="none" d="M1.1 8.3 Q0.4 9.65 1.35 11.8 L5.45 20.95 4.6 20.9 0.7 12.25 Q-0.45 9.75 0.75 8.25 L1.1 8.3 M12.5 36.65 L25.2 41.65 38.9 37.25 40.2 36.7 Q39.5 37.3 38.3 37.65 L25.5 41.8 25.45 41.75 24.55 42.0 11.85 37.0 11.55 36.25 12.5 36.65"/><path fill="none" stroke="#bf9900" stroke-width="1.0" stroke-opacity="0.749019607843" d="M31.5 13.2 L35.55 22.3 M13.1 34.35 L8.25 23.65"/><path fill="none" stroke="#ffcc00" stroke-width="1.0" stroke-opacity="0.749019607843" d="M35.55 22.3 L39.35 30.75 Q41.1 34.5 37.2 35.7 L25.8 39.4 M8.25 23.65 L3.35 12.8 Q1.65 9.1 5.5 7.85 L16.95 4.25 29.75 9.2 31.5 13.2"/><path fill="none" stroke="#f0b92b" stroke-width="0.5" d="M27.75 10.95 L35.8 29.0 35.95 29.35 Q34.75 29.3 34.1 30.1 33.45 30.9 33.7 32.1 L34.0 32.9 23.85 36.2 15.2 32.75 6.95 14.6 6.8 14.4 7.1 14.4 Q8.4 14.45 9.15 13.6 9.8 12.8 9.55 11.6 L9.1 10.55 18.5 7.45"/><path fill="none" stroke="#000000" stroke-width="0.5" stroke-opacity="0.301960784314" d="M5.45 20.95 L1.35 11.8 Q0.4 9.65 1.1 8.3 M0.75 8.25 Q-0.45 9.75 0.7 12.25 L4.6 20.9 M5.45 20.95 L12.5 36.65 M25.2 41.65 L38.9 37.25 40.2 36.7 Q42.95 35.15 41.35 31.7 L30.2 7.0 M17.5 1.95 L3.8 6.35 Q2.8 6.7 2.15 7.15 1.45 7.65 1.1 8.3 M0.75 8.25 Q1.2 7.6 2.15 7.15 M11.25 35.55 L4.6 20.9 M25.5 41.8 L38.3 37.65 Q39.5 37.3 40.2 36.7"/><path fill="none" stroke="#ffcc00" stroke-width="0.5" stroke-opacity="0.749019607843" d="M18.5 7.45 L27.75 10.95"/><path fill="none" stroke="#f0b92b" stroke-width="1.0" stroke-opacity="0.749019607843" d="M25.8 39.4 L13.1 34.35"/><path fill="none" stroke="#432f2f" stroke-width="0.5" d="M12.5 36.65 L25.2 41.65"/></g><g id="c3"><path fill="#7fdbfe" stroke="none" d="M10.75 4.9 Q10.75 4.6 10.9 4.35 11.25 3.45 11.95 2.75 13.3 1.5 14.35 2.1 15.4 2.7 14.95 4.45 14.7 5.4 14.1 6.15 L13.75 6.5 Q13.1 7.15 12.35 7.35 L11.4 7.2 Q10.95 6.9 10.75 6.4 10.5 5.75 10.75 4.9 M7.5 5.9 Q7.0 5.85 6.6 5.5 6.05 5.0 5.8 4.15 L5.7 3.6 Q5.55 2.65 5.8 1.7 6.25 0.0 7.5 0.0 L7.6 0.0 Q8.85 0.0 9.3 1.7 9.55 2.65 9.4 3.6 L9.3 4.15 8.5 5.5 7.6 5.9 7.5 5.9 M4.35 4.9 Q4.6 5.75 4.35 6.4 L3.7 7.2 2.75 7.35 Q2.0 7.15 1.35 6.5 L1.0 6.15 Q0.4 5.4 0.15 4.45 -0.3 2.7 0.75 2.1 1.8 1.5 3.15 2.75 3.85 3.45 4.2 4.35 L4.35 4.9 M5.5 13.7 Q4.45 13.9 3.65 12.95 2.75 12.0 3.2 10.25 3.7 8.5 5.25 7.6 6.4 6.9 7.55 7.0 8.75 6.9 9.9 7.6 11.45 8.5 11.95 10.25 12.35 12.0 11.5 12.95 10.7 13.9 9.65 13.7 8.55 13.5 7.55 12.6 6.55 13.5 5.5 13.7"/></g><g id="c4"><g><use transform="matrix(1.0,0.0,0.0,1.0,0.0,0.0)" xlink:href="#c3"/></g></g><radialGradient gradientUnits="userSpaceOnUse" r="819.2" cx="0" cy="0" spreadMethod="pad" gradientTransform="matrix(0.0914459228516,0.0,0.0,0.0914459228516,0.6,3.4)" id="gradient1"><stop offset="0.0" stop-color="#ffffff"/><stop offset="1.0" stop-color="#ffffff" stop-opacity="0.0"/></radialGradient><g id="c5"><path stroke="none" fill="url(#gradient1)" d="M36.65 -54.65 Q60.05 -42.0 69.75 -17.95 80.55 8.9 68.0 34.1 55.45 59.35 26.8 68.2 -1.8 77.05 -29.7 64.3 -57.6 51.6 -68.45 24.75 -79.3 -2.05 -66.75 -27.25 L-66.7 -27.3 Q-54.1 -52.5 -25.5 -61.4 3.1 -70.2 31.0 -57.5 L36.65 -54.65"/></g><g id="c6"><g><use transform="matrix(1.0,0.0,0.0,1.0,0.0,0.0)" xlink:href="#c5"/></g></g><radialGradient gradientUnits="userSpaceOnUse" r="819.2" cx="0" cy="0" spreadMethod="pad" gradientTransform="matrix(0.209197998047,0.0,0.0,0.177108764648,67.15,107.2)" id="gradient2"><stop offset="0.356862745098" stop-color="#ffffff"/><stop offset="0.670588235294" stop-opacity="0.0"/></radialGradient><g id="c7"><path fill="none" stroke-linejoin="round" stroke-linecap="round" stroke="url(#gradient2)" stroke-width="0.5" d="M136.55 165.8 L68.6 106.0 68.4 106.0 118.25 201.5 M68.3 105.8 L68.35 105.8 68.3 105.8 68.3 105.85 68.4 106.0 68.3 106.0 86.55 211.5 M68.3 105.8 L68.3 105.85 68.3 106.0 68.15 105.95 18.25 151.55 M68.3 105.85 L68.25 105.85 68.3 106.0 50.0 193.2 M68.25 105.85 L68.15 105.95 0.05 97.7 M68.3 105.85 L68.25 105.8 68.25 105.85 M68.25 105.8 L68.2 105.7 0.0 45.7 M68.3 105.8 L68.25 105.75 68.25 105.8 M68.25 105.75 L68.2 105.7 18.25 10.05 M68.6 106.0 L68.35 105.8 118.25 60.15 M86.6 18.35 L68.3 105.8 M136.6 114.25 L68.6 106.0 M68.25 105.75 L49.95 0.05"/></g><g id="c8"><g><use transform="matrix(1.0,0.0,0.0,1.0,0.0,0.0)" xlink:href="#c7"/></g></g><g id="c9"><g><use transform="matrix(1.0,0.0,0.0,1.0,0.0,0.0)" xlink:href="#c2"/></g><g><use transform="matrix(0.238861083984,-0.0867004394531,0.10026550293,0.233917236328,34.25,31.15)" xlink:href="#c4"/></g><g><use transform="matrix(0.238861083984,-0.0867004394531,0.10026550293,0.233917236328,4.25,10.3)" xlink:href="#c4"/></g><g><use transform="matrix(0.141098022461,-0.0378112792969,0.111373901367,0.225646972656,20.25,20.65)" filter="url(#filter7)" xlink:href="#c6"/></g><g><use transform="matrix(-0.155029296875,0.0513153076172,0.0841827392578,0.147033691406,22.6,3.15)" filter="url(#filter8)" xlink:href="#c8"/></g></g><filter id="filter7"><feColorMatrix in="SourceGraphic" type="matrix" values="0.0 0.0 0.0 0.0 0.796875 0.0 0.0 0.0 0.0 0.59765625 0.0 0.0 0.0 0.0 0.19921875 0.0 0.0 0.0 1.0 0.0" result="cxform"/><feComposite operator="in" in2="SourceGraphic" result="color-xform"/></filter><filter id="filter8"><feColorMatrix in="SourceGraphic" type="matrix" values="0.0 0.0 0.0 0.0 0.99609375 0.0 0.0 0.0 0.0 0.99609375 0.0 0.0 0.0 0.0 0.99609375 0.0 0.0 0.0 1.0 0.0" result="cxform"/><feComposite operator="in" in2="SourceGraphic" result="color-xform"/></filter><g id="c10"><path fill="#d8a53f" stroke="none" d="M37.4 38.25 L37.4 38.35 37.25 38.6 Q36.95 39.25 36.45 39.5 L36.55 39.8 36.85 40.55 37.35 39.85 Q37.85 38.85 37.6 37.75 L37.75 36.4 Q37.55 35.4 36.95 35.6 35.9 36.05 35.25 37.2 34.8 38.6 35.95 38.95 L37.4 38.05 37.4 38.25 M35.3 41.2 Q32.35 41.1 30.15 35.6 30.15 36.3 30.45 36.8 L31.15 38.2 Q33.6 41.7 35.35 41.3 L35.3 41.2"/><path fill="#aa772b" stroke="none" d="M35.95 39.25 L35.5 39.4 35.55 39.9 35.9 39.85 36.05 39.75 35.9 39.85 36.15 40.85 36.35 40.85 36.05 39.75 36.45 39.5 Q36.95 39.25 37.25 38.6 L37.4 38.35 37.4 38.25 35.95 39.25 M35.3 41.2 L33.95 38.25 33.75 37.95 Q33.05 36.6 33.6 35.85 L35.35 32.8 Q33.95 32.1 32.6 32.45 31.05 32.85 30.45 34.15 30.1 34.85 30.15 35.6 32.35 41.1 35.3 41.2"/><path fill="#cc9933" stroke="none" d="M35.5 41.25 L35.35 39.2 35.95 38.95 Q34.8 38.6 35.25 37.2 35.9 36.05 36.95 35.6 37.55 35.4 37.75 36.4 L37.55 35.4 Q37.15 34.15 35.9 33.1 L35.55 32.9 35.35 32.8 33.6 35.85 Q33.05 36.6 33.75 37.95 L33.95 38.25 35.3 41.2 35.35 41.3 35.5 41.25"/><path fill="#e0c585" stroke="none" d="M35.55 39.9 L35.5 39.4 35.95 39.25 37.4 38.25 37.4 38.05 35.95 38.95 35.35 39.2 35.5 41.25 35.65 41.2 35.55 39.9 M35.9 33.1 Q37.15 34.15 37.55 35.4 L37.75 36.4 37.6 37.75 Q37.85 38.85 37.35 39.85 L36.85 40.55 36.55 39.8 36.75 40.8 37.05 40.55 Q37.85 39.9 37.9 37.6 L38.0 36.8 Q38.0 36.05 37.65 35.25 37.15 33.9 35.9 33.1"/><path fill="#825a20" stroke="none" d="M36.45 39.5 L36.05 39.75 36.35 40.85 36.75 40.8 36.55 39.8 36.45 39.5"/><path fill="none" stroke="#000000" stroke-width="0.5" stroke-opacity="0.301960784314" d="M35.55 39.9 L35.5 39.4 35.95 39.25 M37.4 38.35 L37.25 38.6 Q36.95 39.25 36.45 39.5 L36.05 39.75 35.9 39.85 35.55 39.9 35.65 41.2 35.5 41.25 35.35 41.3 Q33.6 41.7 31.15 38.2 L30.45 36.8 Q30.15 36.3 30.15 35.6 30.1 34.85 30.45 34.15 31.05 32.85 32.6 32.45 33.95 32.1 35.35 32.8 L35.55 32.9 35.9 33.1 Q37.15 33.9 37.65 35.25 38.0 36.05 38.0 36.8 L37.9 37.6 Q37.85 39.9 37.05 40.55 L36.75 40.8 M36.35 40.85 L36.75 40.8 M36.35 40.85 L36.15 40.85 35.9 39.85"/><path fill="#825a20" stroke="none" d="M30.7 35.05 L30.55 34.8 29.45 34.25 28.95 34.15 27.65 34.35 27.35 35.0 27.45 35.7 27.65 36.05 27.75 36.2 28.2 35.25 30.7 35.05 M29.1 37.15 L30.85 36.65 30.9 35.9 30.35 36.3 29.1 37.15"/><path fill="#aa772b" stroke="none" d="M30.7 35.05 L28.2 35.25 27.75 36.2 27.65 36.05 27.45 35.7 27.35 35.0 Q27.25 35.4 27.3 35.85 L27.35 36.25 27.55 36.45 Q28.1 37.1 28.75 37.2 L29.1 37.15 30.35 36.3 28.5 36.65 Q27.95 36.25 28.3 35.55 L30.8 35.3 30.7 35.05"/><path fill="#d8a53f" stroke="none" d="M30.9 35.9 L30.9 35.55 30.8 35.3 28.3 35.55 Q27.95 36.25 28.5 36.65 L30.35 36.3 30.9 35.9"/><path fill="none" stroke="#000000" stroke-width="0.5" stroke-opacity="0.301960784314" d="M27.35 35.0 L27.65 34.35 28.95 34.15 29.45 34.25 30.55 34.8 30.7 35.05 M27.35 35.0 Q27.25 35.4 27.3 35.85 L27.35 36.25 27.55 36.45 Q28.1 37.1 28.75 37.2 L29.1 37.15 30.85 36.65 30.9 35.9 30.9 35.55 30.8 35.3 30.7 35.05"/><path fill="#d8a53f" stroke="none" d="M37.5 31.8 L36.35 33.15 36.7 33.9 38.4 33.0 Q38.35 32.4 38.0 32.1 L37.5 31.8"/><path fill="#825a20" stroke="none" d="M37.5 31.8 L37.05 31.55 35.45 33.15 35.75 33.6 36.35 33.15 37.5 31.8"/><path fill="#aa772b" stroke="none" d="M36.35 33.15 L35.75 33.6 36.45 34.55 38.0 33.85 38.45 33.15 38.4 33.0 36.7 33.9 36.35 33.15"/><path fill="none" stroke="#000000" stroke-width="0.5" stroke-opacity="0.301960784314" d="M35.75 33.6 L35.45 33.15 37.05 31.55 37.5 31.8 M35.75 33.6 L36.45 34.55 38.0 33.85 38.45 33.15 38.4 33.0 Q38.35 32.4 38.0 32.1 L37.5 31.8"/><path fill="#e0c585" stroke="none" d="M27.15 20.2 L28.5 20.2 29.65 18.95 Q28.9 18.4 27.9 18.3 L26.85 19.05 28.05 18.5 29.3 19.0 28.35 19.9 27.15 20.2"/><path fill="#d8a53f" stroke="none" d="M26.85 19.05 Q26.7 19.1 26.5 19.25 L27.15 20.2 28.35 19.9 29.3 19.0 28.05 18.5 26.85 19.05"/><path fill="#aa772b" stroke="none" d="M27.15 20.2 L27.7 21.15 29.8 20.95 29.65 18.95 28.5 20.2 27.15 20.2"/><path fill="none" stroke="#000000" stroke-width="0.5" stroke-opacity="0.301960784314" d="M29.65 18.95 L29.8 20.95 27.7 21.15 27.15 20.2 M29.65 18.95 Q28.9 18.4 27.9 18.3 L26.85 19.05 Q26.7 19.1 26.5 19.25 L27.15 20.2"/><path fill="#bfb072" stroke="none" d="M27.9 20.75 Q27.8 19.9 27.15 19.35 26.5 18.8 25.65 18.85 24.8 18.95 24.25 19.6 L24.25 19.65 Q23.7 20.3 23.8 21.1 23.85 21.95 24.5 22.5 25.15 23.05 26.0 22.95 26.85 22.9 27.4 22.25 27.95 21.6 27.9 20.8 L27.85 20.75 27.9 20.75 M24.35 20.2 L24.55 19.85 24.6 19.85 Q25.0 19.35 25.6 19.25 L25.7 19.25 Q26.4 19.2 26.9 19.65 27.45 20.1 27.5 20.75 L27.45 21.1 27.1 21.95 Q26.7 22.5 26.0 22.55 25.3 22.6 24.8 22.15 24.25 21.75 24.2 21.05 24.15 20.55 24.35 20.2"/><path fill="#a89e64" stroke="none" d="M27.9 20.8 L27.9 20.75 27.85 20.75 27.9 20.8 M27.45 21.1 L27.5 20.75 Q27.45 20.1 26.9 19.65 26.4 19.2 25.7 19.25 L25.6 19.25 Q24.0 19.9 25.1 21.1 25.7 21.5 26.45 21.45 L27.45 21.1"/><path fill="#d0c586" stroke="none" d="M25.6 19.25 Q25.0 19.35 24.6 19.85 L24.55 19.85 24.35 20.2 25.0 21.0 25.1 21.1 Q24.0 19.9 25.6 19.25"/><path fill="#696141" stroke="none" d="M24.35 20.2 Q24.15 20.55 24.2 21.05 24.25 21.75 24.8 22.15 25.3 22.6 26.0 22.55 26.7 22.5 27.1 21.95 L27.45 21.1 26.45 21.45 Q25.7 21.5 25.1 21.1 L25.0 21.0 24.35 20.2"/><path fill="none" stroke="#000000" stroke-width="0.5" stroke-opacity="0.301960784314" d="M27.9 20.75 Q27.8 19.9 27.15 19.35 26.5 18.8 25.65 18.85 24.8 18.95 24.25 19.6 L24.25 19.65 Q23.7 20.3 23.8 21.1 23.85 21.95 24.5 22.5 25.15 23.05 26.0 22.95 26.85 22.9 27.4 22.25 27.95 21.6 27.9 20.8 L27.9 20.75"/><path fill="#aa772b" stroke="none" d="M24.6 21.7 L22.6 22.6 22.7 23.95 23.15 25.15 24.95 22.5 24.6 21.7 M20.95 21.15 L20.85 20.5 20.85 20.45 20.75 20.45 Q20.25 21.15 20.3 22.15 L20.3 22.4 20.55 23.2 20.7 23.4 20.6 22.35 20.6 22.25 Q20.65 21.4 20.95 21.15"/><path fill="#e0c585" stroke="none" d="M22.7 23.95 L22.6 22.6 24.6 21.7 22.25 22.4 21.25 21.25 21.1 20.75 22.8 20.4 20.85 20.45 20.85 20.5 20.95 21.15 21.35 21.8 22.25 22.7 22.7 23.95"/><path fill="#d8a53f" stroke="none" d="M22.8 20.4 L21.1 20.75 21.25 21.25 22.25 22.4 24.6 21.7 23.9 20.4 22.8 20.4"/><path fill="#825a20" stroke="none" d="M23.15 25.15 L22.7 23.95 22.25 22.7 21.35 21.8 20.95 21.15 Q20.65 21.4 20.6 22.25 L20.6 22.35 20.7 23.4 Q21.95 24.7 23.15 25.15"/><path fill="none" stroke="#000000" stroke-width="0.5" stroke-opacity="0.301960784314" d="M24.6 21.7 L24.95 22.5 23.15 25.15 23.25 25.25 M20.85 20.45 L22.8 20.4 M24.6 21.7 L23.9 20.4 22.8 20.4 M20.85 20.45 L20.75 20.45 Q20.25 21.15 20.3 22.15 L20.3 22.4 20.55 23.2 20.7 23.4 Q21.95 24.7 23.15 25.15"/><path fill="#e0c585" stroke="none" d="M34.6 22.05 L34.2 21.35 35.05 20.85 36.5 21.25 Q37.3 22.3 37.25 22.8 L37.3 23.8 37.55 23.05 Q37.35 21.7 36.65 21.05 35.4 20.45 34.4 20.75 L33.9 21.3 34.6 22.05"/><path fill="#d8a53f" stroke="none" d="M37.3 23.8 L37.25 22.8 Q37.3 22.3 36.5 21.25 L35.05 20.85 34.2 21.35 34.6 22.05 34.75 22.25 35.25 21.9 36.05 22.05 36.15 22.9 35.8 24.0 37.0 24.75 37.3 23.8"/><path fill="#825a20" stroke="none" d="M35.8 24.0 L36.15 22.9 35.8 22.25 35.4 22.2 35.05 22.35 35.6 22.45 35.85 22.85 35.85 23.5 35.8 24.0"/><path fill="#aa772b" stroke="none" d="M35.05 22.35 L34.7 23.0 35.85 23.5 35.85 22.85 35.6 22.45 35.05 22.35"/><path fill="#cc9933" stroke="none" d="M34.6 22.05 L33.9 21.3 33.0 22.35 34.55 23.15 34.7 23.0 35.05 22.35 35.4 22.2 35.8 22.25 36.15 22.9 36.05 22.05 35.25 21.9 34.75 22.25 34.6 22.05"/><path fill="none" stroke="#000000" stroke-width="0.5" stroke-opacity="0.301960784314" d="M33.9 21.3 L34.4 20.75 Q35.4 20.45 36.65 21.05 37.35 21.7 37.55 23.05 L37.3 23.8 37.0 24.75 35.8 24.0 36.15 22.9 M35.05 22.35 L35.4 22.2 35.8 22.25 36.15 22.9 M35.05 22.35 L34.7 23.0 34.55 23.15 33.0 22.35 33.9 21.3 M35.85 23.5 L35.85 22.85 35.6 22.45 35.05 22.35 M34.7 23.0 L35.85 23.5 35.8 24.0"/></g><g id="c11"><g><use transform="matrix(1.0,0.0,0.0,1.0,0.0,0.0)" xlink:href="#c5"/></g></g><g id="c12"><path fill="#bfb072" stroke="none" d="M36.4 33.25 L36.0 32.95 34.4 33.6 Q34.8 35.55 34.5 36.95 L34.45 37.15 36.2 37.3 36.45 37.1 36.2 35.35 36.2 34.55 36.4 33.25"/><path fill="#a89e64" stroke="none" d="M36.4 33.25 L36.2 34.55 36.3 35.3 Q36.55 36.95 36.95 36.75 L37.55 36.05 37.7 35.4 Q37.75 34.9 37.4 34.25 L37.1 33.75 36.4 33.25 M34.4 33.6 L32.3 34.4 Q32.85 36.1 33.55 36.75 34.8 36.9 34.4 33.6 M33.95 37.7 L34.25 37.75 35.25 37.7 36.15 37.5 34.6 37.45 33.95 37.7"/><path fill="#5f5a3a" stroke="none" d="M32.1 34.45 L31.65 34.5 32.55 36.65 32.7 36.85 33.05 36.6 Q32.6 35.95 32.1 34.45"/><path fill="#d0c586" stroke="none" d="M36.2 34.55 L36.2 35.35 36.45 37.1 36.2 37.3 34.45 37.15 34.35 37.1 33.55 36.75 Q32.85 36.1 32.3 34.4 L32.1 34.45 Q32.6 35.95 33.05 36.6 L33.3 36.9 34.05 37.3 34.6 37.45 36.15 37.5 36.35 37.4 36.4 37.4 36.55 37.4 Q37.25 36.8 37.55 36.05 L36.95 36.75 Q36.55 36.95 36.3 35.3 L36.2 34.55"/><path fill="#696141" stroke="none" d="M34.45 37.15 L34.5 36.95 Q34.8 35.55 34.4 33.6 34.8 36.9 33.55 36.75 L34.35 37.1 34.45 37.15 M32.7 36.85 L33.75 37.65 33.95 37.7 34.6 37.45 34.05 37.3 33.3 36.9 33.05 36.6 32.7 36.85"/><path fill="none" stroke="#000000" stroke-width="0.5" stroke-opacity="0.301960784314" d="M34.4 33.6 L36.0 32.95 36.4 33.25 M34.4 33.6 L32.3 34.4 32.1 34.45 31.65 34.5 32.55 36.65 32.7 36.85 33.75 37.65 33.95 37.7 34.25 37.75 35.25 37.7 36.15 37.5 36.35 37.4 36.4 37.4 36.55 37.4 Q37.25 36.8 37.55 36.05 L37.7 35.4 Q37.75 34.9 37.4 34.25 L37.1 33.75 36.4 33.25"/><path fill="#e0c585" stroke="none" d="M37.9 25.5 L37.4 24.4 37.2 24.05 35.25 22.1 Q32.6 20.15 29.3 20.45 26.45 20.7 24.5 22.45 L24.2 23.4 Q23.9 24.5 24.05 25.75 L24.45 27.3 Q24.8 28.15 25.4 28.85 23.3 25.25 24.95 22.65 26.4 21.3 28.5 20.9 L29.35 20.85 31.15 20.85 Q32.3 20.85 33.5 21.4 L34.8 22.25 35.05 22.35 36.85 24.2 37.05 24.55 37.05 24.6 37.5 25.55 37.6 25.75 Q37.65 27.45 36.3 29.3 L36.4 29.15 Q37.45 27.95 37.8 26.5 L37.9 25.5 M37.2 24.05 L37.05 24.55 37.2 24.05"/><path fill="#d8a53f" stroke="none" d="M36.3 29.3 Q37.65 27.45 37.6 25.75 L37.5 25.55 37.05 24.6 37.05 24.55 36.85 24.2 35.05 22.35 34.8 22.25 33.5 21.4 Q32.3 20.85 31.15 20.85 L29.35 20.85 28.5 20.9 Q25.9 22.85 27.9 27.85 29.4 30.95 33.35 31.05 34.5 30.75 35.45 30.1 L35.5 30.05 35.35 28.9 36.3 27.1 36.45 26.5 37.35 25.5 36.45 26.5 36.3 27.1 35.35 28.9 35.5 30.05 36.3 29.3 M32.1 23.4 L35.0 26.65 35.35 28.9 35.0 26.65 32.1 23.4 M29.85 24.6 L27.9 27.85 29.85 24.6 M36.45 26.5 L37.05 24.55 36.45 26.5"/><path fill="#aa772b" stroke="none" d="M37.8 26.5 Q37.45 27.95 36.4 29.15 L36.3 29.3 35.5 30.05 35.45 30.1 Q34.5 30.75 33.35 31.05 L31.8 31.4 Q29.25 31.65 27.15 30.3 L26.65 30.0 26.0 29.5 25.75 29.65 26.0 29.5 25.45 28.9 25.4 28.85 Q24.8 28.15 24.45 27.3 L24.05 25.75 Q23.9 24.5 24.2 23.4 22.3 25.6 22.7 28.35 L23.15 30.15 24.1 31.65 24.3 31.25 25.45 29.85 25.75 29.65 24.7 31.05 24.35 31.9 24.6 32.2 25.6 33.05 25.8 33.2 25.9 32.45 26.2 31.2 26.45 30.4 26.6 30.2 26.65 30.0 26.6 30.2 26.1 32.3 26.0 33.3 26.2 33.45 Q28.5 34.8 31.25 34.6 33.55 34.4 35.2 33.15 L35.3 33.05 35.5 32.1 35.6 30.75 35.5 30.05 35.6 30.75 35.7 31.4 35.75 32.75 36.35 32.1 Q38.3 29.9 37.9 27.05 L37.8 26.5"/><path fill="#cc9933" stroke="none" d="M24.5 22.45 L23.95 23.1 Q21.9 25.4 22.3 28.4 L22.8 30.3 Q23.25 31.25 24.0 32.05 L25.35 33.35 25.9 33.7 Q28.35 35.25 31.3 35.0 33.75 34.75 35.5 33.4 L36.65 32.35 Q38.7 30.0 38.3 27.0 L37.9 25.5 37.8 26.5 37.9 27.05 Q38.3 29.9 36.35 32.1 L35.75 32.75 35.7 31.4 35.6 30.75 35.5 32.1 35.3 33.05 35.2 33.15 Q33.55 34.4 31.25 34.6 28.5 34.8 26.2 33.45 L26.0 33.3 26.1 32.3 26.6 30.2 26.45 30.4 26.2 31.2 25.9 32.45 25.8 33.2 25.6 33.05 24.6 32.2 24.35 31.9 24.7 31.05 25.75 29.65 25.45 29.85 24.3 31.25 24.1 31.65 23.15 30.15 22.7 28.35 Q22.3 25.6 24.2 23.4 L24.5 22.45 M28.5 20.9 Q26.4 21.3 24.95 22.65 23.3 25.25 25.4 28.85 L25.45 28.9 26.0 29.5 26.65 30.0 27.6 28.45 26.0 29.5 27.6 28.45 26.65 30.0 27.15 30.3 Q29.25 31.65 31.8 31.4 L33.35 31.05 Q29.4 30.95 27.9 27.85 L27.6 28.45 27.9 27.85 Q25.9 22.85 28.5 20.9 M24.0 32.05 L24.1 31.65 24.0 32.05 M25.9 33.7 L25.8 33.2 25.9 33.7 M35.5 33.4 L35.75 32.75 35.5 33.4"/><path fill="none" stroke="#000000" stroke-width="0.5" stroke-opacity="0.301960784314" d="M37.9 25.5 L37.4 24.4 37.2 24.05 35.25 22.1 Q32.6 20.15 29.3 20.45 26.45 20.7 24.5 22.45 L23.95 23.1 Q21.9 25.4 22.3 28.4 L22.8 30.3 Q23.25 31.25 24.0 32.05 L25.35 33.35 25.9 33.7 Q28.35 35.25 31.3 35.0 33.75 34.75 35.5 33.4 L36.65 32.35 Q38.7 30.0 38.3 27.0 L37.9 25.5 M37.05 24.55 L37.2 24.05 M24.1 31.65 L24.0 32.05 M26.65 30.0 L26.6 30.2 26.45 30.4 26.2 31.2 25.9 32.45 25.8 33.2 25.9 33.7 M25.75 29.65 L26.0 29.5 27.6 28.45 26.65 30.0 M35.5 30.05 L35.6 30.75 35.7 31.4 35.75 32.75 35.5 33.4 M25.75 29.65 L25.45 29.85 24.3 31.25 24.1 31.65 M27.9 27.85 L27.6 28.45 M27.9 27.85 L29.85 24.6 M35.5 30.05 L35.35 28.9 36.3 27.1 36.45 26.5 37.35 25.5 M35.35 28.9 L35.0 26.65 32.1 23.4 M37.05 24.55 L36.45 26.5"/><path fill="#bfb072" stroke="none" d="M25.7 23.75 L24.9 23.75 24.15 23.9 23.85 24.0 Q23.6 23.7 23.65 23.4 L23.75 23.0 Q24.15 22.25 25.7 21.4 26.8 20.8 27.8 20.55 L32.15 20.35 32.25 20.4 33.05 20.65 34.2 21.1 Q35.1 21.8 35.1 23.6 L35.1 24.0 35.1 24.25 35.1 24.3 35.0 25.4 35.05 25.4 35.3 24.2 Q35.5 22.65 35.25 21.2 32.3 19.65 29.35 19.9 25.65 20.2 23.45 22.8 L22.95 23.35 22.1 24.8 21.95 25.55 22.2 25.1 22.4 24.9 22.6 24.8 23.95 24.3 24.3 24.15 25.7 24.0 27.85 24.3 28.1 24.4 28.45 25.55 28.35 24.5 28.45 24.05 30.05 23.0 28.05 24.0 26.7 23.75 25.85 23.7 25.7 23.75 M29.8 24.55 L29.1 24.3 28.95 24.2 28.9 24.2 28.75 24.65 Q29.55 24.65 30.8 25.25 L31.0 25.4 33.4 26.9 33.5 26.6 32.05 25.7 31.5 25.4 31.45 25.35 29.8 24.55"/><path fill="#696141" stroke="none" d="M24.9 23.75 L24.55 23.45 24.35 23.05 Q24.3 22.5 25.2 21.85 26.05 21.25 27.8 20.55 26.8 20.8 25.7 21.4 24.15 22.25 23.75 23.0 L23.65 23.4 Q23.6 23.7 23.85 24.0 L24.15 23.9 24.9 23.75 M35.0 25.4 L35.1 24.3 35.1 24.25 35.1 24.0 35.1 23.6 Q34.9 25.0 33.3 25.3 L31.45 25.35 31.5 25.4 32.05 25.7 33.5 26.6 34.75 26.2 34.95 25.6 35.0 25.4 M23.95 24.3 L22.6 24.8 23.15 25.7 23.15 26.05 24.65 25.7 24.2 25.4 23.9 24.7 23.95 24.3 M30.65 26.95 L33.05 28.1 33.4 26.9 31.0 25.4 30.8 25.25 Q31.2 26.3 31.0 26.7 L30.65 26.95"/><path fill="#d0c586" stroke="none" d="M25.7 23.75 Q24.75 23.45 24.55 23.1 24.35 22.6 25.2 21.85 24.3 22.5 24.35 23.05 L24.55 23.45 24.9 23.75 25.7 23.75 M34.2 21.1 Q35.45 23.3 33.7 24.65 L33.15 24.9 Q31.9 25.3 29.8 24.55 L31.45 25.35 33.3 25.3 Q34.9 25.0 35.1 23.6 35.1 21.8 34.2 21.1 M35.05 25.4 L35.0 25.4 34.95 25.6 35.05 25.4"/><path fill="#a89e64" stroke="none" d="M25.2 21.85 Q24.35 22.6 24.55 23.1 24.75 23.45 25.7 23.75 L25.85 23.7 26.7 23.75 28.05 24.0 30.05 23.0 28.9 24.2 28.95 24.2 29.1 24.3 29.8 24.55 Q31.9 25.3 33.15 24.9 L33.7 24.65 Q35.45 23.3 34.2 21.1 L33.05 20.65 32.25 20.4 32.15 20.35 27.8 20.55 Q26.05 21.25 25.2 21.85 M22.2 25.1 L21.95 25.55 21.9 26.0 Q21.95 26.9 22.45 27.8 22.1 26.7 22.1 25.95 L22.2 25.1"/><path fill="#ffcc00" stroke="none" d="M28.95 24.2 L28.9 24.2 28.95 24.2"/><path fill="#5f5a3a" stroke="none" d="M28.9 24.2 L30.05 23.0 28.45 24.05 28.35 24.5 28.45 25.55 28.1 24.4 27.85 24.3 25.7 24.0 24.3 24.15 23.95 24.3 23.9 24.7 24.2 25.4 24.65 25.7 24.8 25.7 Q27.15 25.55 30.65 26.95 L31.0 26.7 Q31.2 26.3 30.8 25.25 29.55 24.65 28.75 24.65 L28.9 24.2 M22.6 24.8 L22.4 24.9 22.2 25.1 22.1 25.95 Q22.1 26.7 22.45 27.8 L22.5 27.9 22.7 26.25 23.15 26.05 23.15 25.7 22.6 24.8"/><path fill="none" stroke="#000000" stroke-width="0.5" stroke-opacity="0.301960784314" d="M21.95 25.55 L22.1 24.8 22.95 23.35 23.45 22.8 Q25.65 20.2 29.35 19.9 32.3 19.65 35.25 21.2 35.5 22.65 35.3 24.2 L35.05 25.4 M21.95 25.55 L21.9 26.0 Q21.95 26.9 22.45 27.8 L22.5 27.9 22.7 26.25 23.15 26.05 24.65 25.7 24.8 25.7 Q27.15 25.55 30.65 26.95 L33.05 28.1 33.4 26.9 33.5 26.6 34.75 26.2 34.95 25.6 35.05 25.4"/><path fill="#d8a53f" stroke="none" d="M22.7 26.4 L20.95 26.55 Q20.05 27.15 19.8 28.45 L19.8 28.6 Q20.25 29.2 21.05 29.6 L22.05 29.5 21.65 29.2 21.35 28.75 21.45 27.85 22.65 27.2 22.7 26.4"/><path fill="#aa772b" stroke="none" d="M19.8 28.45 Q19.8 29.8 20.25 30.45 L20.75 30.8 20.85 30.85 20.9 30.5 20.0 29.3 19.8 28.6 19.8 28.45 M21.85 31.1 L23.2 31.2 23.3 30.9 22.1 30.8 21.85 31.1 M22.8 29.6 L22.45 28.15 21.7 28.55 21.65 29.2 22.05 29.5 22.8 29.6"/><path fill="#825a20" stroke="none" d="M20.85 30.85 L20.95 30.9 21.85 31.1 22.1 30.8 21.05 30.55 20.9 30.5 20.85 30.85 M22.45 28.15 L22.65 27.6 21.55 28.05 21.35 28.75 21.65 29.2 21.7 28.55 22.45 28.15"/><path fill="#e0c585" stroke="none" d="M23.3 30.9 L23.3 30.6 21.2 30.35 20.0 29.3 20.9 30.5 21.05 30.55 22.1 30.8 23.3 30.9 M22.65 27.6 L22.65 27.2 21.45 27.85 21.35 28.75 21.55 28.05 22.65 27.6"/><path fill="#cc9933" stroke="none" d="M23.3 30.6 L23.05 29.65 22.8 29.6 22.05 29.5 21.05 29.6 Q20.25 29.2 19.8 28.6 L20.0 29.3 21.2 30.35 23.3 30.6"/><path fill="none" stroke="#000000" stroke-width="0.5" stroke-opacity="0.301960784314" d="M22.7 26.4 L20.95 26.55 Q20.05 27.15 19.8 28.45 19.8 29.8 20.25 30.45 L20.75 30.8 20.85 30.85 20.95 30.9 21.85 31.1 23.2 31.2 23.3 30.9 M23.05 29.65 L22.8 29.6 22.45 28.15 22.65 27.6 M19.8 28.45 L19.8 28.6 M21.35 28.75 L21.65 29.2 22.05 29.5 22.8 29.6 M22.45 28.15 L21.7 28.55 21.65 29.2"/><path fill="#e0c585" stroke="none" d="M35.7 25.95 L34.85 27.15 34.25 27.65 32.95 27.15 32.25 26.4 32.6 25.6 32.45 25.6 31.85 26.25 32.65 27.25 32.85 27.4 Q33.35 27.75 34.05 27.9 L34.4 27.95 34.75 28.5 34.9 27.6 35.7 25.95"/><path fill="#cc9933" stroke="none" d="M33.75 25.5 L32.6 25.6 32.25 26.4 32.95 27.15 34.25 27.65 34.85 27.15 35.7 25.95 Q35.45 25.15 34.85 24.95 L34.45 26.9 33.75 25.5"/><path fill="#d8a53f" stroke="none" d="M33.75 25.5 L34.45 26.9 34.85 24.95 33.75 25.5"/><path fill="#aa772b" stroke="none" d="M31.85 26.25 L31.75 27.35 32.25 28.15 32.9 28.5 33.05 28.5 32.85 27.4 32.65 27.25 31.85 26.25 M34.75 28.5 L35.5 27.1 35.7 25.95 34.9 27.6 34.75 28.5"/><path fill="#825a20" stroke="none" d="M33.05 28.5 L34.75 28.5 34.4 27.95 34.05 27.9 Q33.35 27.75 32.85 27.4 L33.05 28.5"/><path fill="none" stroke="#000000" stroke-width="0.5" stroke-opacity="0.301960784314" d="M32.6 25.6 L33.75 25.5 34.85 24.95 Q35.45 25.15 35.7 25.95 M32.6 25.6 L32.45 25.6 31.85 26.25 31.75 27.35 32.25 28.15 32.9 28.5 33.05 28.5 34.75 28.5 35.5 27.1 35.7 25.95"/></g><g id="c13"><path fill="#bfb072" stroke="none" d="M25.85 27.75 Q26.75 27.0 27.8 27.6 L28.0 27.7 Q28.7 28.35 28.65 29.25 L28.55 29.55 28.4 30.0 Q27.65 30.7 26.8 30.75 L25.9 30.3 25.65 30.1 25.25 29.4 Q25.2 28.35 25.85 27.75 M28.75 29.8 L28.9 29.1 28.95 28.85 Q28.85 28.05 28.2 27.5 27.6 27.0 26.75 27.05 L25.95 27.3 25.45 27.75 Q24.9 28.4 25.0 29.2 25.05 29.95 25.6 30.45 L25.7 30.55 Q26.3 31.05 27.1 30.95 27.95 30.9 28.45 30.3 L28.75 29.8 M38.65 25.15 L38.65 25.1 37.95 24.2 37.3 23.8 37.05 23.8 36.85 24.7 37.05 25.75 37.15 26.15 38.05 27.55 Q38.7 28.25 38.85 27.95 L39.05 27.45 Q38.8 27.95 38.45 27.6 37.75 26.95 37.2 25.7 L37.15 25.5 Q36.85 24.1 37.3 24.1 37.8 24.1 38.6 25.15 L38.65 25.15"/><path fill="#d0c586" stroke="none" d="M28.4 30.0 L28.55 29.55 28.65 29.25 Q28.7 28.35 28.0 27.7 L27.8 27.6 Q26.75 27.0 25.85 27.75 25.75 28.0 25.8 28.3 L26.05 29.15 Q25.65 27.85 26.4 27.6 27.25 27.45 27.95 27.9 28.45 28.6 28.35 29.1 L28.1 29.65 27.15 29.8 Q26.8 29.75 26.35 29.5 L26.5 29.65 26.55 29.65 26.55 29.7 26.65 29.75 26.9 29.95 27.95 30.1 28.4 30.0 M39.05 27.45 L39.05 26.95 38.9 25.8 Q39.1 27.0 38.8 27.0 38.4 26.8 37.65 25.45 L37.4 24.85 37.6 25.5 37.6 25.6 38.5 27.05 39.05 27.45"/><path fill="#696141" stroke="none" d="M25.85 27.75 Q25.2 28.35 25.25 29.4 L25.65 30.1 25.9 30.3 26.8 30.75 Q27.65 30.7 28.4 30.0 L27.95 30.1 26.9 29.95 26.65 29.75 26.55 29.7 26.55 29.65 26.5 29.65 26.35 29.5 26.05 29.15 25.8 28.3 Q25.75 28.0 25.85 27.75 M37.3 24.1 Q36.85 24.1 37.15 25.5 L37.2 25.7 Q37.75 26.95 38.45 27.6 38.8 27.95 39.05 27.45 L38.5 27.05 37.6 25.6 37.6 25.5 37.4 24.85 37.3 24.15 37.3 24.1"/><path fill="#a89e64" stroke="none" d="M26.35 29.5 Q26.8 29.75 27.15 29.8 L28.1 29.65 28.35 29.1 Q28.45 28.6 27.95 27.9 27.25 27.45 26.4 27.6 25.65 27.85 26.05 29.15 L26.35 29.5 M38.9 25.8 L38.85 25.5 38.65 25.15 38.6 25.15 Q37.8 24.1 37.3 24.1 L37.3 24.15 37.4 24.85 37.65 25.45 Q38.4 26.8 38.8 27.0 39.1 27.0 38.9 25.8"/><path fill="none" stroke="#000000" stroke-width="0.5" stroke-opacity="0.301960784314" d="M28.75 29.8 L28.9 29.1 28.95 28.85 Q28.85 28.05 28.2 27.5 27.6 27.0 26.75 27.05 L25.95 27.3 25.45 27.75 Q24.9 28.4 25.0 29.2 25.05 29.95 25.6 30.45 L25.7 30.55 Q26.3 31.05 27.1 30.95 27.95 30.9 28.45 30.3 L28.75 29.8 M38.65 25.15 L38.65 25.1 37.95 24.2 37.3 23.8 37.05 23.8 36.85 24.7 37.05 25.75 37.15 26.15 38.05 27.55 Q38.7 28.25 38.85 27.95 L39.05 27.45 39.05 26.95 38.9 25.8 38.85 25.5 38.65 25.15"/><path fill="#d0c586" stroke="none" d="M36.45 29.9 Q35.55 30.2 34.8 30.65 L36.2 30.35 36.4 31.9 36.45 29.9"/><path fill="#a89e64" stroke="none" d="M34.8 30.65 L34.4 30.85 Q34.5 31.7 34.95 31.8 L35.3 31.8 35.35 30.75 36.0 32.35 36.4 31.9 36.2 30.35 34.8 30.65 M33.8 31.3 L33.7 31.35 34.55 33.0 35.15 32.7 34.6 32.05 33.8 31.3"/><path fill="#bfb072" stroke="none" d="M36.0 32.45 L36.75 32.05 36.55 29.9 36.45 29.9 36.4 31.9 36.0 32.35 36.0 32.45 M34.65 33.25 L35.55 32.8 35.35 30.75 35.3 31.8 35.2 32.65 35.15 32.7 34.55 33.0 34.65 33.25"/><path fill="#696141" stroke="none" d="M34.4 30.85 L33.8 31.3 34.6 32.05 35.15 32.7 35.2 32.65 35.3 31.8 34.95 31.8 Q34.5 31.7 34.4 30.85 M35.55 32.8 Q35.55 32.45 36.0 32.45 L36.0 32.35 35.35 30.75 35.55 32.8"/><path fill="#5f5a3a" stroke="none" d="M33.7 31.35 L34.3 33.15 34.65 33.25 34.55 33.0 33.7 31.35"/><path fill="none" stroke="#000000" stroke-width="0.5" stroke-opacity="0.301960784314" d="M36.0 32.45 L36.75 32.05 36.55 29.9 36.45 29.9 Q35.55 30.2 34.8 30.65 L34.4 30.85 33.8 31.3 33.7 31.35 34.3 33.15 34.65 33.25 35.55 32.8 Q35.55 32.45 36.0 32.45 M35.35 30.75 L35.55 32.8"/></g><g id="c14"><path fill="#000000" fill-opacity="0.2" d="M67.1 47.3 Q60.05 84.7 45.15 118.0 L67.1 47.3"/><path fill="none" stroke="#000000" stroke-width="0.5" stroke-opacity="0.301960784314" d="M72.8 0.4 Q71.4 24.6 67.1 47.3 60.05 84.7 45.15 118.0 L45.0 118.3 Q39.4 130.85 24.25 156.55 M47.2 54.0 Q48.65 56.75 43.75 69.05 26.65 113.65 20.4 117.6 17.55 109.85 28.1 81.45 38.25 56.05 47.2 54.0 M48.0 24.8 Q34.25 59.6 13.6 90.6 7.15 100.3 0.0 109.6 M66.8 0.0 Q53.65 80.05 13.6 143.35 L12.4 145.2 M67.1 47.3 L45.15 118.0"/></g><g id="c15"><g><use transform="matrix(1.0,0.0,0.0,1.0,0.0,0.0)" xlink:href="#c14"/></g></g><filter id="filter14"><feColorMatrix in="SourceGraphic" type="matrix" values="0.0 0.0 0.0 0.0 0.3984375 0.0 0.0 0.0 0.0 0.59765625 0.0 0.0 0.0 0.0 0.3984375 0.0 0.0 0.0 0.3984375 0.0" result="cxform"/><feComposite operator="in" in2="SourceGraphic" result="color-xform"/></filter><filter id="filter16"><feColorMatrix in="SourceGraphic" type="matrix" values="0.0 0.0 0.0 0.0 0.3984375 0.0 0.0 0.0 0.0 0.59765625 0.0 0.0 0.0 0.0 0.3984375 0.0 0.0 0.0 0.3984375 0.0" result="cxform"/><feComposite operator="in" in2="SourceGraphic" result="color-xform"/></filter><filter id="filter18"><feColorMatrix in="SourceGraphic" type="matrix" values="1.0 0.0 0.0 0.0 0.0 0.0 1.0 0.0 0.0 0.0 0.0 0.0 1.0 0.0 0.0 0.0 0.0 0.0 0.1796875 0.0" result="cxform"/><feComposite operator="in" in2="SourceGraphic" result="color-xform"/></filter><filter id="filter19"><feColorMatrix in="SourceGraphic" type="matrix" values="1.0 0.0 0.0 0.0 0.0 0.0 1.0 0.0 0.0 0.0 0.0 0.0 1.0 0.0 0.0 0.0 0.0 0.0 0.1796875 0.0" result="cxform"/><feComposite operator="in" in2="SourceGraphic" result="color-xform"/></filter><filter id="filter20"><feColorMatrix in="SourceGraphic" type="matrix" values="1.0 0.0 0.0 0.0 0.0 0.0 1.0 0.0 0.0 0.0 0.0 0.0 1.0 0.0 0.0 0.0 0.0 0.0 0.1796875 0.0" result="cxform"/><feComposite operator="in" in2="SourceGraphic" result="color-xform"/></filter><filter id="filter21"><feColorMatrix in="SourceGraphic" type="matrix" values="1.0 0.0 0.0 0.0 0.0 0.0 1.0 0.0 0.0 0.0 0.0 0.0 1.0 0.0 0.0 0.0 0.0 0.0 0.2890625 0.0" result="cxform"/><feComposite operator="in" in2="SourceGraphic" result="color-xform"/></filter><filter id="filter22"><feColorMatrix in="SourceGraphic" type="matrix" values="1.0 0.0 0.0 0.0 0.0 0.0 1.0 0.0 0.0 0.0 0.0 0.0 1.0 0.0 0.0 0.0 0.0 0.0 0.2890625 0.0" result="cxform"/><feComposite operator="in" in2="SourceGraphic" result="color-xform"/></filter><filter id="filter23"><feColorMatrix in="SourceGraphic" type="matrix" values="1.0 0.0 0.0 0.0 0.0 0.0 1.0 0.0 0.0 0.0 0.0 0.0 1.0 0.0 0.0 0.0 0.0 0.0 0.23046875 0.0" result="cxform"/><feComposite operator="in" in2="SourceGraphic" result="color-xform"/></filter></defs><g><g><use transform="matrix(1.0,0.0,0.0,1.0,0.0,0.0)" xlink:href="#c1"/></g><g><use transform="matrix(1.15496826172,0.0,0.0,1.15496826172,5.85,4.8)" xlink:href="#c9"/></g><g><use transform="matrix(1.0,0.0,0.0,1.0,0.0,0.0)" xlink:href="#c10"/></g><g><use transform="matrix(-0.0355529785156,0.00308227539062,0.0200500488281,0.0448913574219,33.25,37.05)" filter="url(#filter14)" xlink:href="#c11"/></g><g><use transform="matrix(1.0,0.0,0.0,1.0,0.0,0.0)" xlink:href="#c12"/></g><g><use transform="matrix(-0.0707702636719,0.00614929199219,0.0312347412109,0.0684051513672,27.65,28.95)" filter="url(#filter16)" xlink:href="#c11"/></g><g><use transform="matrix(1.0,0.0,0.0,1.0,0.0,0.0)" xlink:href="#c13"/></g><g><use transform="matrix(-0.0691833496094,0.00601196289062,0.0201110839844,0.0458374023438,29.7,22.85)" filter="url(#filter18)" xlink:href="#c11"/></g><g><use transform="matrix(-0.0213775634766,0.00184631347656,0.00764465332031,0.0174407958984,25.5,19.75)" filter="url(#filter19)" xlink:href="#c11"/></g><g><use transform="matrix(-0.0307922363281,0.00267028808594,0.0101470947266,0.0231628417969,35.05,35.05)" filter="url(#filter20)" xlink:href="#c11"/></g><g><use transform="matrix(-0.0241394042969,-0.168075561523,0.0944366455078,-0.0154418945312,23.2,37.0)" filter="url(#filter21)" xlink:href="#c15"/></g><g><use transform="matrix(-0.0298614501953,-0.121887207031,0.07080078125,-0.02880859375,26.4,30.35)" filter="url(#filter22)" xlink:href="#c15"/></g><g><use transform="matrix(0.162948608398,-0.0436706542969,0.128631591797,0.260604858398,30.0,28.7)" filter="url(#filter23)" xlink:href="#c6"/></g></g></svg>