<?xml version='1.0' encoding='UTF-8'?>
<svg xmlns:xlink="http://www.w3.org/1999/xlink" xmlns="http://www.w3.org/2000/svg" version="1.1" width="60px" height="60px" viewBox="0.0 0.0 60.0 60.0"><defs><g id="c1"><path fill="#000000" fill-opacity="0.00392156862745" d="M0.0 0.0 L60.0 0.0 60.0 60.0 0.0 60.0 0.0 0.0"/></g><g id="c2"><path fill="none" stroke="#000000" stroke-width="1.0" stroke-opacity="0.301960784314" d="M0.7 12.25 Q-0.45 9.75 0.75 8.25 1.2 7.6 2.15 7.15 2.8 6.7 3.8 6.35 L17.5 1.95 30.2 7.0 41.35 31.7 Q42.95 35.15 40.2 36.7 39.5 37.3 38.3 37.65 L25.5 41.8 25.45 41.75 24.55 42.0 11.85 37.0 0.7 12.25"/><path fill="#9d147b" stroke="none" d="M35.55 22.3 L31.5 13.2 29.75 9.2 16.95 4.25 5.5 7.85 Q1.65 9.1 3.35 12.8 L8.25 23.65 13.1 34.35 25.8 39.4 37.2 35.7 Q41.1 34.5 39.35 30.75 L35.55 22.3 M5.45 20.95 L1.35 11.8 Q0.4 9.65 1.1 8.3 1.45 7.65 2.15 7.15 2.8 6.7 3.8 6.35 L17.5 1.95 30.2 7.0 41.35 31.7 Q42.95 35.15 40.2 36.7 L38.9 37.25 25.2 41.65 12.5 36.65 5.45 20.95"/><path fill="#c47fad" stroke="none" d="M31.5 13.2 L35.55 22.3 39.35 30.75 Q41.1 34.5 37.2 35.7 L25.8 39.4 13.1 34.35 8.25 23.65 3.35 12.8 Q1.65 9.1 5.5 7.85 L16.95 4.25 29.75 9.2 31.5 13.2 M18.5 7.45 L9.1 10.55 9.55 11.6 Q9.8 12.8 9.15 13.6 8.4 14.45 7.1 14.4 L6.8 14.4 6.95 14.6 15.2 32.75 23.85 36.2 34.0 32.9 33.7 32.1 Q33.45 30.9 34.1 30.1 34.75 29.3 35.95 29.35 L35.8 29.0 27.75 10.95 18.5 7.45"/><path fill="#fcf2cf" stroke="none" d="M27.75 10.95 L35.8 29.0 35.95 29.35 Q34.75 29.3 34.1 30.1 33.45 30.9 33.7 32.1 L34.0 32.9 23.85 36.2 15.2 32.75 6.95 14.6 6.8 14.4 7.1 14.4 Q8.4 14.45 9.15 13.6 9.8 12.8 9.55 11.6 L9.1 10.55 18.5 7.45 27.75 10.95"/><path fill="#630a4c" stroke="none" d="M1.1 8.3 L0.75 8.25 Q1.2 7.6 2.15 7.15 1.45 7.65 1.1 8.3 M4.6 20.9 L5.45 20.95 12.5 36.65 11.55 36.25 11.25 35.55 4.6 20.9"/><path fill="#300525" stroke="none" d="M1.1 8.3 Q0.4 9.65 1.35 11.8 L5.45 20.95 4.6 20.9 0.7 12.25 Q-0.45 9.75 0.75 8.25 L1.1 8.3 M12.5 36.65 L25.2 41.65 38.9 37.25 40.2 36.7 Q39.5 37.3 38.3 37.65 L25.5 41.8 25.45 41.75 24.55 42.0 11.85 37.0 11.55 36.25 12.5 36.65"/><path fill="none" stroke="#bf9900" stroke-width="1.0" stroke-opacity="0.749019607843" d="M31.5 13.2 L35.55 22.3 M13.1 34.35 L8.25 23.65"/><path fill="none" stroke="#ffcc00" stroke-width="1.0" stroke-opacity="0.749019607843" d="M35.55 22.3 L39.35 30.75 Q41.1 34.5 37.2 35.7 L25.8 39.4 M8.25 23.65 L3.35 12.8 Q1.65 9.1 5.5 7.85 L16.95 4.25 29.75 9.2 31.5 13.2"/><path fill="none" stroke="#f0b92b" stroke-width="0.5" d="M27.75 10.95 L35.8 29.0 35.95 29.35 Q34.75 29.3 34.1 30.1 33.45 30.9 33.7 32.1 L34.0 32.9 23.85 36.2 15.2 32.75 6.95 14.6 6.8 14.4 7.1 14.4 Q8.4 14.45 9.15 13.6 9.8 12.8 9.55 11.6 L9.1 10.55 18.5 7.45"/><path fill="none" stroke="#000000" stroke-width="0.5" stroke-opacity="0.301960784314" d="M5.45 20.95 L1.35 11.8 Q0.4 9.65 1.1 8.3 M0.75 8.25 Q-0.45 9.75 0.7 12.25 L4.6 20.9 M5.45 20.95 L12.5 36.65 M25.2 41.65 L38.9 37.25 40.2 36.7 Q42.95 35.15 41.35 31.7 L30.2 7.0 M17.5 1.95 L3.8 6.35 Q2.8 6.7 2.15 7.15 1.45 7.65 1.1 8.3 M0.75 8.25 Q1.2 7.6 2.15 7.15 M11.25 35.55 L4.6 20.9 M25.5 41.8 L38.3 37.65 Q39.5 37.3 40.2 36.7"/><path fill="none" stroke="#ffcc00" stroke-width="0.5" stroke-opacity="0.749019607843" d="M18.5 7.45 L27.75 10.95"/><path fill="none" stroke="#f0b92b" stroke-width="1.0" stroke-opacity="0.749019607843" d="M25.8 39.4 L13.1 34.35"/><path fill="none" stroke="#432f2f" stroke-width="0.5" d="M12.5 36.65 L25.2 41.65"/></g><g id="c3"><path fill="#7fdbfe" stroke="none" d="M10.75 4.9 Q10.75 4.6 10.9 4.35 11.25 3.45 11.95 2.75 13.3 1.5 14.35 2.1 15.4 2.7 14.95 4.45 14.7 5.4 14.1 6.15 L13.75 6.5 Q13.1 7.15 12.35 7.35 L11.4 7.2 Q10.95 6.9 10.75 6.4 10.5 5.75 10.75 4.9 M7.5 5.9 Q7.0 5.85 6.6 5.5 6.05 5.0 5.8 4.15 L5.7 3.6 Q5.55 2.65 5.8 1.7 6.25 0.0 7.5 0.0 L7.6 0.0 Q8.85 0.0 9.3 1.7 9.55 2.65 9.4 3.6 L9.3 4.15 8.5 5.5 7.6 5.9 7.5 5.9 M4.35 4.9 Q4.6 5.75 4.35 6.4 L3.7 7.2 2.75 7.35 Q2.0 7.15 1.35 6.5 L1.0 6.15 Q0.4 5.4 0.15 4.45 -0.3 2.7 0.75 2.1 1.8 1.5 3.15 2.75 3.85 3.45 4.2 4.35 L4.35 4.9 M5.5 13.7 Q4.45 13.9 3.65 12.95 2.75 12.0 3.2 10.25 3.7 8.5 5.25 7.6 6.4 6.9 7.55 7.0 8.75 6.9 9.9 7.6 11.45 8.5 11.95 10.25 12.35 12.0 11.5 12.95 10.7 13.9 9.65 13.7 8.55 13.5 7.55 12.6 6.55 13.5 5.5 13.7"/></g><g id="c4"><g><use transform="matrix(1.0,0.0,0.0,1.0,0.0,0.0)" xlink:href="#c3"/></g></g><radialGradient gradientUnits="userSpaceOnUse" r="819.2" cx="0" cy="0" spreadMethod="pad" gradientTransform="matrix(0.0914459228516,0.0,0.0,0.0914459228516,0.6,3.4)" id="gradient1"><stop offset="0.0" stop-color="#ffffff"/><stop offset="1.0" stop-color="#ffffff" stop-opacity="0.0"/></radialGradient><g id="c5"><path stroke="none" fill="url(#gradient1)" d="M36.65 -54.65 Q60.05 -42.0 69.75 -17.95 80.55 8.9 68.0 34.1 55.45 59.35 26.8 68.2 -1.8 77.05 -29.7 64.3 -57.6 51.6 -68.45 24.75 -79.3 -2.05 -66.75 -27.25 L-66.7 -27.3 Q-54.1 -52.5 -25.5 -61.4 3.1 -70.2 31.0 -57.5 L36.65 -54.65"/></g><g id="c6"><g><use transform="matrix(1.0,0.0,0.0,1.0,0.0,0.0)" xlink:href="#c5"/></g></g><radialGradient gradientUnits="userSpaceOnUse" r="819.2" cx="0" cy="0" spreadMethod="pad" gradientTransform="matrix(0.209197998047,0.0,0.0,0.177108764648,67.15,107.2)" id="gradient2"><stop offset="0.356862745098" stop-color="#ffffff"/><stop offset="0.670588235294" stop-opacity="0.0"/></radialGradient><g id="c7"><path fill="none" stroke-linejoin="round" stroke-linecap="round" stroke="url(#gradient2)" stroke-width="0.5" d="M136.55 165.8 L68.6 106.0 68.4 106.0 118.25 201.5 M68.3 105.8 L68.35 105.8 68.3 105.8 68.3 105.85 68.4 106.0 68.3 106.0 86.55 211.5 M68.3 105.8 L68.3 105.85 68.3 106.0 68.15 105.95 18.25 151.55 M68.3 105.85 L68.25 105.85 68.3 106.0 50.0 193.2 M68.25 105.85 L68.15 105.95 0.05 97.7 M68.3 105.85 L68.25 105.8 68.25 105.85 M68.25 105.8 L68.2 105.7 0.0 45.7 M68.3 105.8 L68.25 105.75 68.25 105.8 M68.25 105.75 L68.2 105.7 18.25 10.05 M68.6 106.0 L68.35 105.8 118.25 60.15 M86.6 18.35 L68.3 105.8 M136.6 114.25 L68.6 106.0 M68.25 105.75 L49.95 0.05"/></g><g id="c8"><g><use transform="matrix(1.0,0.0,0.0,1.0,0.0,0.0)" xlink:href="#c7"/></g></g><g id="c9"><g><use transform="matrix(1.0,0.0,0.0,1.0,0.0,0.0)" xlink:href="#c2"/></g><g><use transform="matrix(0.238861083984,-0.0867004394531,0.10026550293,0.233917236328,34.25,31.15)" xlink:href="#c4"/></g><g><use transform="matrix(0.238861083984,-0.0867004394531,0.10026550293,0.233917236328,4.25,10.3)" xlink:href="#c4"/></g><g><use transform="matrix(0.141098022461,-0.0378112792969,0.111373901367,0.225646972656,20.25,20.65)" filter="url(#filter7)" xlink:href="#c6"/></g><g><use transform="matrix(-0.155029296875,0.0513153076172,0.0841827392578,0.147033691406,22.6,3.15)" filter="url(#filter8)" xlink:href="#c8"/></g></g><filter id="filter7"><feColorMatrix in="SourceGraphic" type="matrix" values="0.0 0.0 0.0 0.0 0.796875 0.0 0.0 0.0 0.0 0.59765625 0.0 0.0 0.0 0.0 0.19921875 0.0 0.0 0.0 1.0 0.0" result="cxform"/><feComposite operator="in" in2="SourceGraphic" result="color-xform"/></filter><filter id="filter8"><feColorMatrix in="SourceGraphic" type="matrix" values="0.0 0.0 0.0 0.0 0.99609375 0.0 0.0 0.0 0.0 0.99609375 0.0 0.0 0.0 0.0 0.99609375 0.0 0.0 0.0 1.0 0.0" result="cxform"/><feComposite operator="in" in2="SourceGraphic" result="color-xform"/></filter><g id="c10"><path fill="#b89649" stroke="none" d="M30.35 23.65 L29.35 23.75 29.0 23.95 28.4 25.15 28.35 25.25 28.35 25.4 29.4 25.65 29.45 25.1 29.45 25.0 30.1 23.85 30.35 23.65 M28.25 29.55 L27.35 30.15 27.4 30.2 Q26.0 31.05 25.6 31.75 L25.5 31.85 25.25 32.65 25.2 33.15 25.2 33.2 25.2 33.3 26.45 33.6 26.3 33.1 26.3 33.05 Q26.25 32.8 26.35 32.55 L26.55 31.7 26.65 31.65 Q27.1 30.9 28.45 30.05 L28.45 30.0 29.3 29.45 28.25 29.55 M28.6 35.7 L28.65 36.4 28.7 36.45 29.25 39.3 29.25 39.35 29.3 39.35 29.35 39.4 29.4 39.4 29.4 39.45 29.45 39.65 30.7 39.85 30.5 39.35 Q30.05 38.35 29.7 36.3 L29.65 35.6 28.6 35.7"/><path fill="#d9d9a0" stroke="none" d="M30.35 23.65 L30.1 23.85 29.45 25.0 29.45 25.1 29.4 25.65 Q30.15 25.6 30.95 25.0 L31.0 24.95 31.05 24.85 31.15 24.45 31.65 23.65 31.95 23.45 30.35 23.65 M36.15 37.1 L36.4 37.05 36.75 37.05 38.8 36.8 37.55 36.8 37.5 36.75 37.25 36.65 36.6 36.5 36.55 36.5 36.6 36.5 36.5 36.45 36.45 36.55 36.35 36.6 36.35 36.65 36.15 37.1 M37.55 25.3 L36.35 25.4 36.0 25.4 35.75 25.45 35.05 25.5 35.2 25.75 35.6 26.25 36.15 25.9 36.75 25.55 Q37.2 25.35 37.55 25.3 M30.85 29.25 L29.3 29.45 28.45 30.0 28.45 30.05 Q27.1 30.9 26.65 31.65 L26.55 31.7 26.35 32.55 Q26.25 32.8 26.3 33.05 L26.3 33.1 26.45 33.6 27.95 33.15 27.85 32.9 27.85 32.85 Q27.8 32.6 27.9 32.35 L28.15 31.5 28.2 31.45 30.0 29.85 30.0 29.8 30.85 29.25 M31.25 35.4 L29.65 35.6 29.7 36.3 Q30.05 38.35 30.5 39.35 L30.7 39.85 Q31.45 39.75 32.1 39.35 L32.05 39.15 Q31.6 38.15 31.35 36.15 L31.3 36.1 31.25 35.4"/><path fill="#f0f0c0" stroke="none" d="M33.3 40.4 Q33.8 40.4 34.4 39.85 L35.85 37.65 35.9 37.6 36.0 37.5 36.15 37.1 36.35 36.65 36.35 36.6 36.45 36.5 36.45 36.45 36.5 36.45 36.6 36.5 36.55 36.5 36.6 36.5 37.25 36.65 37.5 36.75 37.55 36.8 38.8 36.8 39.05 36.75 39.75 36.6 Q40.6 36.4 40.8 35.7 41.05 35.15 40.8 34.25 L40.75 34.1 40.75 34.05 40.4 33.2 39.6 31.6 39.05 30.65 39.35 29.85 39.35 29.8 39.4 29.7 Q40.05 28.0 40.1 27.0 L40.1 26.8 39.95 26.1 39.85 25.75 39.75 25.6 Q39.45 25.15 38.95 25.1 L38.35 25.15 37.55 25.3 Q37.2 25.35 36.75 25.55 L36.15 25.9 35.6 26.25 35.2 25.75 35.05 25.5 Q34.05 24.15 33.25 23.75 L33.25 23.7 32.0 23.45 31.95 23.45 31.65 23.65 31.15 24.45 31.05 24.85 31.0 24.95 30.95 25.0 Q30.8 26.05 30.95 28.1 L30.85 29.25 30.0 29.8 30.0 29.85 28.2 31.45 28.15 31.5 27.9 32.35 Q27.8 32.6 27.85 32.85 L27.85 32.9 27.95 33.15 28.5 34.05 Q29.1 34.6 30.45 35.2 L30.55 35.25 31.25 35.4 31.3 36.1 31.35 36.15 Q31.6 38.15 32.05 39.15 L32.1 39.35 32.25 39.6 33.0 40.25 33.05 40.25 33.3 40.4"/><path fill="#856a35" stroke="none" d="M29.4 25.65 L28.35 25.4 28.25 27.4 28.25 27.75 28.3 28.4 28.25 28.95 28.25 29.55 29.3 29.45 29.3 28.85 29.4 28.25 29.3 27.6 29.3 27.25 29.4 25.65 M25.2 33.3 L25.85 34.35 25.9 34.35 27.8 35.5 27.9 35.55 28.6 35.7 29.65 35.6 29.0 35.4 28.9 35.4 26.95 34.25 26.45 33.6 25.2 33.3 M29.45 39.65 Q29.85 40.4 30.35 40.6 L30.4 40.6 30.65 40.7 31.1 40.65 31.75 40.55 31.45 40.45 30.7 39.85 29.45 39.65"/><path fill="#a3a370" stroke="none" d="M31.75 40.55 L33.3 40.4 33.05 40.25 33.0 40.25 32.25 39.6 32.1 39.35 Q31.45 39.75 30.7 39.85 L31.45 40.45 31.75 40.55 M30.95 25.0 Q30.15 25.6 29.4 25.65 L29.3 27.25 29.3 27.6 29.4 28.25 29.3 28.85 29.3 29.45 30.85 29.25 30.95 28.1 Q30.8 26.05 30.95 25.0 M27.95 33.15 L26.45 33.6 26.95 34.25 28.9 35.4 29.0 35.4 29.65 35.6 31.25 35.4 30.55 35.25 30.45 35.2 Q29.1 34.6 28.5 34.05 L27.95 33.15"/><path fill="#522e26" stroke="none" d="M36.45 36.5 L36.35 36.6 36.45 36.55 36.5 36.45 36.45 36.5"/><path fill="none" stroke="#000000" stroke-width="0.5" stroke-opacity="0.301960784314" d="M28.35 25.4 L28.35 25.25 28.4 25.15 29.0 23.95 29.35 23.75 30.35 23.65 M28.35 25.4 L28.25 27.4 28.25 27.75 28.3 28.4 28.25 28.95 28.25 29.55 27.35 30.15 27.4 30.2 Q26.0 31.05 25.6 31.75 L25.5 31.85 25.25 32.65 25.2 33.15 25.2 33.2 25.2 33.3 25.85 34.35 25.9 34.35 27.8 35.5 27.9 35.55 28.6 35.7 28.65 36.4 28.7 36.45 29.25 39.3 29.25 39.35 29.3 39.35 29.35 39.4 29.4 39.4 29.4 39.45 29.45 39.65 Q29.85 40.4 30.35 40.6 L30.4 40.6 30.65 40.7 31.1 40.65 31.75 40.55 33.3 40.4 Q33.8 40.4 34.4 39.85 L35.85 37.65 35.9 37.6 36.0 37.5 36.15 37.1 36.4 37.05 36.75 37.05 38.8 36.8 39.05 36.75 39.75 36.6 Q40.6 36.4 40.8 35.7 41.05 35.15 40.8 34.25 L40.75 34.1 40.75 34.05 40.4 33.2 39.6 31.6 39.05 30.65 39.35 29.85 39.35 29.8 39.4 29.7 Q40.05 28.0 40.1 27.0 L40.1 26.8 39.95 26.1 39.85 25.75 39.75 25.6 Q39.45 25.15 38.95 25.1 L38.35 25.15 37.55 25.3 36.35 25.4 36.0 25.4 35.75 25.45 35.05 25.5 Q34.05 24.15 33.25 23.75 L33.25 23.7 32.0 23.45 31.95 23.45 30.35 23.65 M30.95 25.0 L31.0 24.95 31.05 24.85 31.15 24.45 31.65 23.65 31.95 23.45 M29.3 29.45 L28.25 29.55 M30.85 29.25 L30.95 28.1 Q30.8 26.05 30.95 25.0 M30.85 29.25 L29.3 29.45 M27.95 33.15 L27.85 32.9 27.85 32.85 Q27.8 32.6 27.9 32.35 L28.15 31.5 28.2 31.45 30.0 29.85 30.0 29.8 30.85 29.25 M35.05 25.5 L35.2 25.75 35.6 26.25 36.15 25.9 36.75 25.55 Q37.2 25.35 37.55 25.3 M38.8 36.8 L37.55 36.8 37.5 36.75 37.25 36.65 36.6 36.5 36.55 36.5 36.6 36.5 36.5 36.45 M36.35 36.65 L36.15 37.1 M29.65 35.6 L28.6 35.7 M31.25 35.4 L30.55 35.25 30.45 35.2 Q29.1 34.6 28.5 34.05 L27.95 33.15 M29.65 35.6 L31.25 35.4 31.3 36.1 31.35 36.15 Q31.6 38.15 32.05 39.15 L32.1 39.35 M33.3 40.4 L33.05 40.25 33.0 40.25 32.25 39.6 32.1 39.35"/></g><g id="c11"><path fill="#f0f0c0" stroke="none" d="M4.55 -11.1 L4.6 -10.95 Q5.1 -9.25 5.3 -5.85 L5.5 -4.9 -2.25 9.0 -2.4 9.05 -2.3 9.05 -2.4 9.1 -3.45 9.5 -3.8 9.65 -3.85 9.7 -6.0 10.0 -6.4 10.0 -7.55 9.85 Q-8.55 9.7 -9.1 9.1 L3.3 -13.05 4.2 -11.85 4.5 -11.2 4.55 -11.1 M7.15 -3.2 L7.2 -3.15 9.15 -2.0 0.75 13.1 -0.95 10.85 -1.05 10.7 -1.2 10.55 -1.35 10.3 6.45 -3.6 Q6.85 -3.35 7.15 -3.2"/></g><g id="c12"><g><use transform="matrix(1.0,0.0,0.0,1.0,0.0,0.0)" xlink:href="#c11"/></g></g><g id="c13"><path fill="#f0f0c0" stroke="none" d="M38.45 27.0 L37.85 26.85 Q37.25 26.8 36.3 27.4 L36.0 27.6 Q37.25 28.4 37.8 30.1 L37.95 30.5 38.1 30.0 38.65 27.95 38.6 27.3 38.45 27.0 M31.95 29.0 Q32.45 28.1 33.25 27.6 33.95 27.15 34.75 27.15 L34.55 27.05 Q33.7 25.85 33.2 25.6 L32.45 25.4 32.1 26.2 Q31.8 27.0 31.9 28.7 L31.95 29.0 M31.9 34.45 L31.55 33.9 Q31.05 32.2 31.45 30.65 L30.9 30.8 Q30.0 31.45 29.6 32.05 L29.45 32.55 29.35 32.85 Q29.4 33.2 29.8 33.45 30.25 33.95 31.25 34.35 L31.75 34.45 31.9 34.45 M37.15 35.55 L38.8 35.5 39.35 34.95 39.3 34.2 39.3 34.0 39.0 33.35 38.4 32.1 38.1 31.85 Q38.25 32.8 38.0 33.7 L37.1 35.5 37.15 35.55 M32.85 38.1 L33.4 38.7 Q33.65 38.75 34.0 38.45 L35.15 36.7 Q34.4 36.8 33.55 36.35 32.9 36.0 32.4 35.3 L32.4 36.45 32.85 38.1"/><path fill="#522e26" stroke="none" d="M38.45 26.0 Q37.7 26.0 36.45 26.7 L35.9 27.05 35.45 27.4 34.8 26.4 32.95 24.55 32.1 24.35 31.6 25.3 31.5 28.4 31.55 29.85 Q30.7 30.4 30.35 30.65 29.15 31.4 28.7 32.05 L28.5 32.8 Q28.4 32.95 28.45 33.1 L28.95 33.9 30.75 34.95 31.85 35.2 Q31.8 35.95 31.9 36.3 32.2 38.25 32.6 39.25 32.85 39.85 33.25 39.95 33.55 40.15 34.0 39.75 L35.35 37.7 35.35 37.6 35.45 37.5 35.85 36.65 35.95 36.45 36.1 36.4 36.15 36.35 Q36.4 36.2 36.55 36.2 L37.55 36.4 39.55 36.3 40.25 35.75 40.2 34.65 40.2 34.5 39.85 33.7 39.05 32.2 38.45 31.05 38.4 30.85 38.75 29.95 38.8 29.9 Q39.45 28.25 39.5 27.2 L39.3 26.55 39.3 26.25 Q39.05 25.9 38.45 26.0 M38.45 27.0 L38.6 27.3 38.65 27.95 38.1 30.0 37.95 30.5 37.8 30.1 Q37.25 28.4 36.0 27.6 L36.3 27.4 Q37.25 26.8 37.85 26.85 L38.45 27.0 M31.95 29.0 L31.9 28.7 Q31.8 27.0 32.1 26.2 L32.45 25.4 33.2 25.6 Q33.7 25.85 34.55 27.05 L34.75 27.15 Q33.95 27.15 33.25 27.6 32.45 28.1 31.95 29.0 L31.85 29.2 31.7 29.6 31.65 29.55 31.85 29.2 31.95 29.0 M31.75 34.45 L31.25 34.35 Q30.25 33.95 29.8 33.45 29.4 33.2 29.35 32.85 L29.45 32.55 29.6 32.05 Q30.0 31.45 30.9 30.8 L31.45 30.65 Q31.05 32.2 31.55 33.9 L31.9 34.45 31.9 34.5 31.85 34.5 31.75 34.45 M31.8 35.15 L31.85 35.2 31.8 35.2 31.8 35.15 M37.1 35.5 L38.0 33.7 Q38.25 32.8 38.1 31.85 L38.4 32.1 39.0 33.35 39.3 34.0 39.3 34.2 39.35 34.95 38.8 35.5 37.15 35.55 37.1 35.55 37.1 35.5 M32.85 38.1 L32.4 36.45 32.4 35.3 Q32.9 36.0 33.55 36.35 34.4 36.8 35.15 36.7 L34.0 38.45 Q33.65 38.75 33.4 38.7 L32.85 38.1"/><path fill="#261511" stroke="none" d="M31.95 29.0 L31.85 29.2 31.65 29.55 31.7 29.6 31.85 29.2 31.95 29.0"/><path fill="#3d221c" stroke="none" d="M31.9 34.45 L31.75 34.45 31.85 34.5 31.9 34.5 31.9 34.45"/><path fill="#3e3822" stroke="none" d="M37.5 31.75 L37.45 31.55 37.25 30.35 Q36.7 28.9 35.7 28.25 L35.3 28.05 35.15 28.05 33.6 28.2 33.5 28.3 Q32.45 28.85 32.15 30.25 L32.05 30.4 Q31.6 31.95 32.15 33.45 L32.5 34.2 32.7 34.6 33.05 34.95 32.95 34.55 Q32.6 33.55 32.8 32.6 32.75 32.2 32.95 31.65 33.3 30.95 33.7 30.6 34.05 30.25 34.5 30.25 L35.35 30.35 35.75 30.8 36.0 31.35 35.95 31.8 35.9 31.9 35.8 31.75 35.8 31.6 35.6 31.5 35.25 31.6 35.1 31.9 35.0 32.45 35.1 32.95 35.55 33.4 36.0 33.35 36.5 33.15 36.9 32.75 37.3 32.4 37.5 31.75"/><path fill="#e3faee" stroke="none" d="M37.5 31.75 L37.3 32.4 36.9 32.75 36.5 33.15 36.0 33.35 35.55 33.4 35.1 32.95 35.0 32.45 35.1 31.9 35.25 31.6 35.6 31.5 35.8 31.6 35.8 31.75 35.9 31.9 35.95 31.8 36.0 31.35 35.75 30.8 35.35 30.35 34.5 30.25 Q34.05 30.25 33.7 30.6 33.3 30.95 32.95 31.65 32.75 32.2 32.8 32.6 32.6 33.55 32.95 34.55 L33.05 34.95 33.7 35.45 35.15 35.75 35.65 35.65 35.8 35.45 35.9 35.45 36.2 35.15 Q36.8 34.75 37.1 33.85 L37.3 33.25 37.5 31.75"/><path fill="none" stroke="#ffffff" stroke-width="0.5" stroke-opacity="0.501960784314" d="M33.05 34.95 L32.7 34.6 32.5 34.2 32.15 33.45 Q31.6 31.95 32.05 30.4 L32.15 30.25 Q32.45 28.85 33.5 28.3 L33.6 28.2 35.15 28.05 35.3 28.05 35.7 28.25 Q36.7 28.9 37.25 30.35 L37.45 31.55 37.5 31.75 M33.05 34.95 L33.7 35.45 35.15 35.75 35.65 35.65 35.8 35.45 35.9 35.45 36.2 35.15 Q36.8 34.75 37.1 33.85 L37.3 33.25 37.5 31.75"/><path fill="#2e1d0e" stroke="none" d="M30.15 26.15 Q29.95 25.9 29.65 25.95 L29.35 26.1 29.25 26.25 29.0 26.95 29.1 27.2 29.4 27.05 29.1 27.2 29.3 27.55 29.8 27.75 29.9 27.75 30.3 27.45 30.4 26.75 30.2 26.15 30.15 26.15 30.0 26.3 30.15 26.15 M29.9 27.35 L29.9 27.75 29.9 27.35"/><path fill="none" stroke="#000000" stroke-width="0.5" stroke-opacity="0.301960784314" d="M29.35 26.1 L29.05 25.8 M29.1 27.2 L29.0 26.95 29.25 26.25 29.35 26.1 29.65 25.95 Q29.95 25.9 30.15 26.15 L30.0 26.3 M29.4 27.05 L29.1 27.2 28.5 27.55 M29.9 27.75 L29.9 27.35 M29.9 27.75 L30.1 28.25 M29.1 27.2 L29.3 27.55 29.8 27.75 29.9 27.75 30.3 27.45 30.4 26.75 30.2 26.15 30.15 26.15 30.35 25.7"/><path fill="#b89649" stroke="none" d="M18.6 24.65 Q18.55 22.8 20.45 20.8 L20.7 20.5 21.45 19.8 23.15 18.3 Q24.85 17.25 27.7 16.6 L26.3 16.7 Q22.8 17.15 20.05 19.9 18.45 21.5 17.9 23.1 L18.6 24.65 M33.2 20.85 L33.25 21.25 33.2 21.85 32.8 22.45 33.25 22.65 33.6 22.85 34.0 22.2 Q34.25 21.65 34.1 20.15 34.05 18.5 31.85 17.35 L31.4 17.15 32.15 17.65 Q33.2 18.55 33.35 20.05 L33.3 20.65 33.2 20.85 M25.25 27.1 L25.6 26.85 Q26.45 26.25 27.25 26.15 28.2 26.0 30.05 26.95 L30.0 26.8 29.8 26.55 28.75 25.9 Q28.05 25.5 27.25 25.6 25.8 25.75 24.55 26.45 L24.4 26.55 23.95 26.9 23.8 26.95 22.95 27.55 22.3 28.0 Q21.35 28.65 20.2 28.9 L21.55 29.0 Q22.8 28.85 24.35 27.7 24.75 27.35 25.25 27.1"/><path fill="#856c35" stroke="none" d="M18.6 24.65 L17.9 23.1 Q17.65 24.1 17.75 25.05 18.0 27.05 18.85 28.05 L20.2 28.9 Q21.35 28.65 22.3 28.0 L22.95 27.55 Q22.15 28.0 21.45 28.1 20.3 28.2 19.55 27.45 18.85 26.55 18.65 24.9 L18.6 24.65 M27.7 16.6 Q24.85 17.25 23.15 18.3 L21.45 19.8 Q23.65 17.95 26.4 17.6 29.6 17.25 31.45 18.2 33.1 19.0 33.2 20.2 L33.2 20.85 33.3 20.65 33.35 20.05 Q33.2 18.55 32.15 17.65 L31.4 17.15 Q29.95 16.55 27.7 16.6 M32.8 22.45 L32.2 23.4 Q32.8 23.4 33.1 23.75 L33.6 22.85 33.25 22.65 32.8 22.45 M25.25 27.1 L27.35 26.5 28.3 26.7 29.35 27.35 29.75 27.4 30.0 27.15 30.05 26.95 Q28.2 26.0 27.25 26.15 26.45 26.25 25.6 26.85 L25.25 27.1"/><path fill="none" stroke="#000000" stroke-width="0.5" stroke-opacity="0.301960784314" d="M21.45 19.8 L20.7 20.5 20.45 20.8 Q18.55 22.8 18.6 24.65 M17.9 23.1 Q18.45 21.5 20.05 19.9 22.8 17.15 26.3 16.7 L27.7 16.6 M21.45 19.8 Q23.65 17.95 26.4 17.6 29.6 17.25 31.45 18.2 33.1 19.0 33.2 20.2 L33.2 20.85 M33.25 21.25 L33.2 21.85 32.8 22.45 32.2 23.4 Q32.8 23.4 33.1 23.75 L33.6 22.85 34.0 22.2 Q34.25 21.65 34.1 20.15 34.05 18.5 31.85 17.35 L31.4 17.15 Q29.95 16.55 27.7 16.6 M30.05 26.95 L30.0 27.15 29.75 27.4 29.35 27.35 28.3 26.7 27.35 26.5 25.25 27.1 Q24.75 27.35 24.35 27.7 22.8 28.85 21.55 29.0 L20.2 28.9 18.85 28.05 Q18.0 27.05 17.75 25.05 17.65 24.1 17.9 23.1 M30.05 26.95 L30.0 26.8 29.8 26.55 28.75 25.9 Q28.05 25.5 27.25 25.6 25.8 25.75 24.55 26.45 L24.4 26.55 23.95 26.9 23.8 26.95 22.95 27.55 Q22.15 28.0 21.45 28.1 20.3 28.2 19.55 27.45 18.85 26.55 18.65 24.9 L18.6 24.65"/><path fill="#ffffff" fill-opacity="0.301960784314" d="M31.45 25.25 L30.9 25.25 30.55 25.65 Q30.45 25.9 30.65 26.2 L31.1 26.5 31.65 26.55 31.95 26.15 31.85 25.65 31.45 25.25 M32.45 25.4 L33.0 25.45 32.6 25.8 32.65 26.45 32.3 27.0 32.7 28.1 31.9 27.2 30.85 27.25 29.9 26.5 29.7 25.8 Q29.4 25.2 28.5 24.85 L29.95 25.05 30.45 24.65 Q30.95 24.45 31.55 24.65 32.1 24.85 32.45 25.4"/><path fill="#ffffff" stroke="none" d="M31.45 25.25 L31.85 25.65 31.95 26.15 31.65 26.55 31.1 26.5 30.65 26.2 Q30.45 25.9 30.55 25.65 L30.9 25.25 31.45 25.25"/><path fill="#ffffff" stroke="none" d="M31.6 25.9 L32.4 27.1 31.0 26.1 29.15 26.85 30.85 25.75 27.15 21.5 31.3 25.45 34.3 24.2 31.6 25.9"/></g><filter id="filter13"><feColorMatrix in="SourceGraphic" type="matrix" values="1.0 0.0 0.0 0.0 0.0 0.0 1.0 0.0 0.0 0.0 0.0 0.0 1.0 0.0 0.0 0.0 0.0 0.0 0.671875 0.0" result="cxform"/><feComposite operator="in" in2="SourceGraphic" result="color-xform"/></filter><filter id="filter15"><feColorMatrix in="SourceGraphic" type="matrix" values="1.0 0.0 0.0 0.0 0.0 0.0 1.0 0.0 0.0 0.0 0.0 0.0 1.0 0.0 0.0 0.0 0.0 0.0 0.23046875 0.0" result="cxform"/><feComposite operator="in" in2="SourceGraphic" result="color-xform"/></filter></defs><g><g><use transform="matrix(1.0,0.0,0.0,1.0,0.0,0.0)" xlink:href="#c1"/></g><g><use transform="matrix(1.15496826172,0.0,0.0,1.15496826172,5.85,4.8)" xlink:href="#c9"/></g><g><use transform="matrix(1.0,0.0,0.0,1.0,0.0,0.0)" xlink:href="#c10"/></g><g><use transform="matrix(-0.598526000977,0.07080078125,0.07080078125,0.598526000977,34.45,31.05)" filter="url(#filter13)" xlink:href="#c12"/></g><g><use transform="matrix(1.0,0.0,0.0,1.0,0.0,0.0)" xlink:href="#c13"/></g><g><use transform="matrix(0.162948608398,-0.0436706542969,0.128631591797,0.260604858398,30.0,28.7)" filter="url(#filter15)" xlink:href="#c6"/></g></g></svg>