<?xml version="1.0" encoding="UTF-8" standalone="no"?>
<svg xmlns:xlink="http://www.w3.org/1999/xlink" height="60.0px" width="60.0px" xmlns="http://www.w3.org/2000/svg">
  <g transform="matrix(1.0, 0.0, 0.0, 1.0, 0.0, 0.0)">
    <use height="60.0" transform="matrix(1.0, 0.0, 0.0, 1.0, 0.0, 0.0)" width="60.0" xlink:href="#shape0"/>
    <use height="46.85" transform="matrix(1.1549, 0.0, 0.0, 1.1549, 5.3218, 1.201)" width="42.8" xlink:href="#sprite0"/>
  </g>
  <defs>
    <g id="shape0" transform="matrix(1.0, 0.0, 0.0, 1.0, 0.0, 0.0)">
      <path d="M0.0 0.0 L60.0 0.0 60.0 60.0 0.0 60.0 0.0 0.0" fill="#000000" fill-opacity="0.003921569" fill-rule="evenodd" stroke="none"/>
    </g>
    <g id="sprite0" transform="matrix(1.0, 0.0, 0.0, 1.0, -5.95, -51.0)">
      <use height="43.05" transform="matrix(1.0, 0.0, 0.0, 1.0, 5.95, 54.8)" width="42.8" xlink:href="#sprite1"/>
      <clipPath id="clipPath0" transform="matrix(1.0, 0.0, 0.0, 1.0, 0.0, 0.0)">
        <path d="M46.35 90.05 L45.05 90.6 26.55 96.55 25.95 96.75 25.25 96.85 23.45 96.75 Q21.45 96.25 20.35 93.85 L7.5 65.15 Q6.55 63.0 7.25 61.65 7.6 61.0 8.3 60.5 8.95 60.05 9.95 59.7 L23.65 55.3 36.35 60.35 47.5 85.05 Q49.1 88.5 46.35 90.05" fill="#003333" fill-rule="evenodd" stroke="none"/>
      </clipPath>
      <g clip-path="url(#clipPath0)">
        <use height="0.0" transform="matrix(1.0, 0.0, 0.0, 1.0, 6.45, 53.4)" width="0.0" xlink:href="#sprite5"/>
      </g>
      <use height="84.5" transform="matrix(0.1972, 0.0, 0.0, 0.1972, 16.3582, 66.8874)" width="110.35" xlink:href="#sprite6"/>
      <use height="42.35" transform="matrix(1.0, 0.0, 0.0, 1.0, 6.3, 55.15)" width="42.1" xlink:href="#shape23"/>
      <clipPath id="clipPath1" transform="matrix(1.0, 0.0, 0.0, 1.0, 0.0, 0.0)">
        <path d="M46.35 90.05 L45.05 90.6 26.55 96.55 25.95 96.75 25.25 96.85 23.45 96.75 Q21.45 96.25 20.35 93.85 L7.5 65.15 Q6.55 63.0 7.25 61.65 7.6 61.0 8.3 60.5 8.95 60.05 9.95 59.7 L23.65 55.3 36.35 60.35 47.5 85.05 Q49.1 88.5 46.35 90.05" fill="#003333" fill-rule="evenodd" stroke="none"/>
        <path d="M46.35 90.05 L45.05 90.6 26.55 96.55 25.95 96.75 25.25 96.85 23.45 96.75 Q21.45 96.25 20.35 93.85 L7.5 65.15 Q6.55 63.0 7.25 61.65 7.6 61.0 8.3 60.5 8.95 60.05 9.95 59.7 L23.65 55.3 36.35 60.35 47.5 85.05 Q49.1 88.5 46.35 90.05 Z" fill="none" stroke="#000000" stroke-linecap="round" stroke-linejoin="round" stroke-opacity="0.29803923" stroke-width="0.05"/>
      </clipPath>
      <g clip-path="url(#clipPath1)">
        <use height="0.0" transform="matrix(1.0, 0.0, 0.0, 1.0, 9.65, 51.0)" width="0.0" xlink:href="#sprite27"/>
        <use height="0.0" transform="matrix(1.0, 0.0, 0.0, 1.0, 9.65, 51.0)" width="0.0" xlink:href="#sprite27"/>
        <use height="30.6" transform="matrix(1.0, 0.0, 0.0, 1.0, 14.7, 59.4)" width="27.15" xlink:href="#shape25"/>
      </g>
      <use height="0.0" transform="matrix(0.1411, -0.0378, 0.1114, 0.2256, 27.2, 74.05)" width="0.0" xlink:href="#sprite3"/>
    </g>
    <g id="sprite1" transform="matrix(1.0, 0.0, 0.0, 1.0, 0.35, -1.45)">
      <use height="45.05" transform="matrix(1.0, 0.0, 0.0, 1.0, -1.35, 0.45)" width="44.8" xlink:href="#shape1"/>
      <use height="13.75" transform="matrix(0.2389, -0.0867, 0.1003, 0.2339, 34.25, 31.15)" width="15.1" xlink:href="#sprite2"/>
      <use height="13.75" transform="matrix(0.2389, -0.0867, 0.1003, 0.2339, 4.25, 10.3)" width="15.1" xlink:href="#sprite2"/>
      <use height="0.0" transform="matrix(0.1411, -0.0378, 0.1114, 0.2256, 20.25, 20.65)" width="0.0" xlink:href="#sprite3"/>
      <use height="211.45" transform="matrix(-0.155, 0.0513, 0.0842, 0.147, 22.6042, 3.1574)" width="136.6" xlink:href="#sprite4"/>
    </g>
    <g id="shape1" transform="matrix(1.0, 0.0, 0.0, 1.0, 1.35, -0.45)">
      <path d="M3.8 6.35 L17.5 1.95 30.2 7.0 41.35 31.7 Q42.95 35.15 40.2 36.7 39.5 37.3 38.3 37.65 L19.8 43.65 Q17.15 44.45 15.5 43.3 14.35 42.55 13.65 40.9 L0.7 12.25 Q-0.45 9.75 0.75 8.25 1.2 7.6 2.15 7.15 2.8 6.7 3.8 6.35 Z" fill="none" stroke="#000000" stroke-linecap="round" stroke-linejoin="round" stroke-opacity="0.3019608" stroke-width="1.0"/>
      <path d="M35.55 22.3 L31.45 13.25 29.75 9.2 29.65 9.15 29.75 9.2 31.45 13.25 29.65 9.15 26.25 7.85 16.95 4.2 5.5 7.85 Q1.65 9.1 3.35 12.8 L8.25 23.65 15.0 38.6 15.2 39.0 Q16.8 42.25 20.45 41.1 L37.2 35.7 Q41.1 34.5 39.35 30.75 L35.55 22.3 M1.1 8.3 Q1.45 7.65 2.15 7.15 2.8 6.7 3.8 6.35 L17.5 1.95 30.2 7.0 41.35 31.7 Q42.95 35.15 40.2 36.7 L38.9 37.25 23.2 42.3 20.4 43.2 19.1 43.5 17.3 43.4 Q15.3 42.9 14.2 40.5 L5.45 20.95 1.35 11.8 Q0.4 9.65 1.1 8.3" fill="#ffcc00" fill-rule="evenodd" stroke="none"/>
      <path d="M31.45 13.25 L35.55 22.3 39.35 30.75 Q41.1 34.5 37.2 35.7 L20.45 41.1 Q16.8 42.25 15.2 39.0 L15.0 38.6 8.25 23.65 3.35 12.8 Q1.65 9.1 5.5 7.85 L16.95 4.2 26.25 7.85 29.65 9.15 31.45 13.25 M26.5 8.3 L26.25 7.85 26.5 8.3 M18.6 7.5 L9.1 10.55 9.55 11.6 Q9.8 12.8 9.15 13.6 8.4 14.45 7.1 14.4 L6.8 14.4 6.95 14.6 16.3 35.2 Q16.8 36.4 17.65 37.0 18.8 37.8 20.65 37.2 L34.0 32.9 33.7 32.1 Q33.45 30.9 34.1 30.1 34.75 29.3 35.95 29.35 L35.8 29.0 27.7 10.95 18.6 7.5" fill="#996600" fill-rule="evenodd" stroke="none"/>
      <path d="M0.75 8.25 L1.1 8.3 Q0.4 9.65 1.35 11.8 L5.45 20.95 4.6 20.9 0.7 12.25 Q-0.45 9.75 0.75 8.25 M17.3 43.4 L19.1 43.5 20.1 43.55 19.8 43.65 Q17.15 44.45 15.5 43.3 L17.3 43.4" fill="#5b3c00" fill-rule="evenodd" stroke="none"/>
      <path d="M2.15 7.15 Q1.45 7.65 1.1 8.3 L0.75 8.25 Q1.2 7.6 2.15 7.15 M5.45 20.95 L14.2 40.5 Q15.3 42.9 17.3 43.4 L15.5 43.3 Q14.35 42.55 13.65 40.9 L4.6 20.9 5.45 20.95 M19.1 43.5 L20.4 43.2 23.2 42.3 23.3 42.5 20.1 43.55 19.1 43.5" fill="#724b00" fill-rule="evenodd" stroke="none"/>
      <path d="M27.7 10.95 L35.8 29.0 35.95 29.35 Q34.75 29.3 34.1 30.1 33.45 30.9 33.7 32.1 L34.0 32.9 20.65 37.2 Q18.8 37.8 17.65 37.0 16.8 36.4 16.3 35.2 L6.95 14.6 6.8 14.4 7.1 14.4 Q8.4 14.45 9.15 13.6 9.8 12.8 9.55 11.6 L9.1 10.55 18.6 7.5 27.7 10.95" fill="#fcf2cf" fill-rule="evenodd" stroke="none"/>
      <path d="M23.2 42.3 L38.9 37.25 40.2 36.7 Q39.5 37.3 38.3 37.65 L23.3 42.5 23.2 42.3" fill="#1c1200" fill-rule="evenodd" stroke="none"/>
      <path d="M31.45 13.25 L35.55 22.3 M15.0 38.6 L8.25 23.65 M31.45 13.25 L29.65 9.15" fill="none" stroke="#ffaa00" stroke-linecap="round" stroke-linejoin="round" stroke-width="1.0"/>
      <path d="M35.55 22.3 L39.35 30.75 Q41.1 34.5 37.2 35.7 L20.45 41.1 Q16.8 42.25 15.2 39.0 L15.0 38.6 M8.25 23.65 L3.35 12.8 Q1.65 9.1 5.5 7.85 L16.95 4.2 26.25 7.85 29.65 9.15 29.75 9.2 31.45 13.25" fill="none" stroke="#fcf2cf" stroke-linecap="round" stroke-linejoin="round" stroke-width="1.0"/>
      <path d="M26.25 7.85 L26.5 8.3 M27.7 10.95 L35.8 29.0 35.95 29.35 Q34.75 29.3 34.1 30.1 33.45 30.9 33.7 32.1 L34.0 32.9 20.65 37.2 Q18.8 37.8 17.65 37.0 16.8 36.4 16.3 35.2 L6.95 14.6 6.8 14.4 7.1 14.4 Q8.4 14.45 9.15 13.6 9.8 12.8 9.55 11.6 L9.1 10.55 18.6 7.5" fill="none" stroke="#f0b92b" stroke-linecap="round" stroke-linejoin="round" stroke-width="0.05"/>
      <path d="M1.1 8.3 Q1.45 7.65 2.15 7.15 1.2 7.6 0.75 8.25 -0.45 9.75 0.7 12.25 L4.6 20.9 13.65 40.9 Q14.35 42.55 15.5 43.3 17.15 44.45 19.8 43.65 L20.1 43.55 23.3 42.5 38.3 37.65 Q39.5 37.3 40.2 36.7 42.95 35.15 41.35 31.7 L30.2 7.0 M1.1 8.3 Q0.4 9.65 1.35 11.8 L5.45 20.95 14.2 40.5 Q15.3 42.9 17.3 43.4 L19.1 43.5 20.4 43.2 23.2 42.3 38.9 37.25 40.2 36.7 M17.5 1.95 L3.8 6.35 Q2.8 6.7 2.15 7.15" fill="none" stroke="#000000" stroke-linecap="round" stroke-linejoin="round" stroke-opacity="0.3019608" stroke-width="0.05"/>
      <path d="M18.6 7.5 L27.7 10.95" fill="none" stroke="#ffcc00" stroke-linecap="round" stroke-linejoin="round" stroke-opacity="0.7490196" stroke-width="0.05"/>
    </g>
    <g id="sprite2" transform="matrix(1.0, 0.0, 0.0, 1.0, 0.0, 0.0)">
      <use height="13.75" transform="matrix(1.0, 0.0, 0.0, 1.0, 0.0, 0.0)" width="15.1" xlink:href="#shape2"/>
    </g>
    <g id="shape2" transform="matrix(1.0, 0.0, 0.0, 1.0, 0.0, 0.0)">
      <path d="M10.75 4.9 Q10.75 4.6 10.9 4.35 11.25 3.45 11.95 2.75 13.3 1.5 14.35 2.1 15.4 2.7 14.95 4.45 14.7 5.4 14.1 6.15 L13.75 6.5 Q13.1 7.15 12.35 7.35 L11.4 7.2 Q10.95 6.9 10.75 6.4 10.5 5.75 10.75 4.9 M7.5 5.9 Q7.0 5.85 6.6 5.5 6.05 5.0 5.8 4.15 L5.7 3.6 Q5.55 2.65 5.8 1.7 6.25 0.0 7.5 0.0 L7.6 0.0 Q8.85 0.0 9.3 1.7 9.55 2.65 9.4 3.6 L9.3 4.15 8.5 5.5 7.6 5.9 7.5 5.9 M4.35 4.9 Q4.6 5.75 4.35 6.4 L3.7 7.2 2.75 7.35 Q2.0 7.15 1.35 6.5 L1.0 6.15 Q0.4 5.4 0.15 4.45 -0.3 2.7 0.75 2.1 1.8 1.5 3.15 2.75 3.85 3.45 4.2 4.35 L4.35 4.9 M5.5 13.7 Q4.45 13.9 3.65 12.95 2.75 12.0 3.2 10.25 3.7 8.5 5.25 7.6 6.4 6.9 7.55 7.0 8.75 6.9 9.9 7.6 11.45 8.5 11.95 10.25 12.35 12.0 11.5 12.95 10.7 13.9 9.65 13.7 8.55 13.5 7.55 12.6 6.55 13.5 5.5 13.7" fill="#7fdbfe" fill-rule="evenodd" stroke="none"/>
    </g>
    <g id="sprite4" transform="matrix(1.0, 0.0, 0.0, 1.0, 0.0, -0.05)">
      <use height="211.55" transform="matrix(1.0, 0.0, 0.0, 1.0, -0.05, 0.0)" width="136.7" xlink:href="#shape3"/>
    </g>
    <g id="shape3" transform="matrix(1.0, 0.0, 0.0, 1.0, 0.05, 0.0)">
      <path d="M136.55 165.8 L68.6 106.0 68.4 106.0 118.25 201.5 M68.2 105.7 L68.25 105.8 68.25 105.75 68.2 105.7 0.0 45.7 M68.25 105.8 L68.3 105.85 68.3 105.8 68.25 105.75 49.95 0.05 M0.05 97.7 L68.15 105.95 68.25 105.85 68.25 105.8 M68.3 105.85 L68.25 105.85 68.3 106.0 68.3 105.85 68.3 105.8 68.35 105.8 68.3 105.8 86.6 18.35 M50.0 193.2 L68.3 106.0 68.15 105.95 18.25 151.55 M68.4 106.0 L68.3 106.0 86.55 211.5 M68.4 106.0 L68.3 105.85 M68.6 106.0 L68.35 105.8 118.25 60.15 M136.6 114.25 L68.6 106.0 M68.2 105.7 L18.25 10.05" fill="none" stroke="url(#gradient0)" stroke-linecap="round" stroke-linejoin="round" stroke-width="0.05"/>
    </g>
    <radialGradient cx="0" cy="0" gradientTransform="matrix(0.2092, 0.0, 0.0, 0.1771, 67.15, 107.2)" gradientUnits="userSpaceOnUse" id="gradient0" r="819.2" spreadMethod="pad">
      <stop offset="0.3568627450980392" stop-color="#ffffff"/>
      <stop offset="0.6705882352941176" stop-color="#000000" stop-opacity="0.0"/>
    </radialGradient>
    <g id="sprite6" transform="matrix(1.0, 0.0, 0.0, 1.0, 46.1, 56.6)">
      <use height="51.55" transform="matrix(1.0, 0.0, 0.0, 1.0, -41.0, -23.65)" width="96.35" xlink:href="#sprite7"/>
      <use height="48.55" transform="matrix(1.0, 0.0, 0.0, 1.0, -32.35, -50.5)" width="38.55" xlink:href="#sprite8"/>
      <use height="18.65" transform="matrix(1.0, 0.0, 0.0, 1.0, 11.15, -56.6)" width="18.05" xlink:href="#sprite10"/>
      <use height="46.1" transform="matrix(1.0, 0.0, 0.0, 1.0, -46.15, -20.4)" width="105.35" xlink:href="#shape8"/>
      <use height="62.1" transform="matrix(1.0, 0.0, 0.0, 1.0, -18.55, -54.8)" width="42.85" xlink:href="#sprite11"/>
      <use height="0.0" transform="matrix(1.0, 0.0, 0.0, 1.0, 13.55, -18.45)" width="0.0" xlink:href="#sprite14"/>
      <use height="63.05" transform="matrix(1.0, 0.0, 0.0, 1.0, -0.95, -42.95)" width="50.85" xlink:href="#sprite15"/>
      <use height="12.05" transform="matrix(2.361, 0.0, -0.3429, 2.7431, 25.1479, -18.9542)" width="12.15" xlink:href="#sprite18"/>
      <use height="39.6" transform="matrix(1.0, 0.0, 0.0, 1.0, 25.25, -16.35)" width="39.0" xlink:href="#sprite19"/>
      <use height="18.1" transform="matrix(1.0, 0.0, 0.0, 1.0, -8.9, -45.15)" width="21.5" xlink:href="#sprite21"/>
      <use height="7.25" transform="matrix(1.0, 0.0, 0.0, 1.0, 10.2, 8.35)" width="6.1" xlink:href="#sprite22"/>
      <use height="7.25" transform="matrix(1.0, 0.0, 0.0, 1.0, 1.65, 3.6)" width="6.1" xlink:href="#sprite23"/>
      <use height="7.25" transform="matrix(1.0, 0.0, 0.0, 1.0, -7.5, -0.55)" width="6.1" xlink:href="#sprite24"/>
      <use height="7.25" transform="matrix(1.0, 0.0, 0.0, 1.0, -16.05, -4.8)" width="6.1" xlink:href="#sprite25"/>
      <use height="7.25" transform="matrix(1.0, 0.0, 0.0, 1.0, -24.2, -9.55)" width="6.1" xlink:href="#sprite26"/>
    </g>
    <g id="sprite7" transform="matrix(1.0, 0.0, 0.0, 1.0, 48.15, 25.75)">
      <use height="51.55" transform="matrix(1.0, 0.0, 0.0, 1.0, -48.15, -25.75)" width="96.35" xlink:href="#shape5"/>
    </g>
    <g id="shape5" transform="matrix(1.0, 0.0, 0.0, 1.0, 48.15, 25.75)">
      <path d="M-47.15 -18.8 Q-43.35 -26.0 -27.0 -25.75 -10.4 -25.4 9.1 -17.45 28.65 -9.75 39.65 0.85 51.1 11.7 47.2 18.9 43.4 26.25 26.95 25.75 10.45 25.35 -9.05 17.55 -28.6 9.75 -39.95 -0.85 -51.05 -11.5 -47.15 -18.8" fill="url(#gradient1)" fill-rule="evenodd" stroke="none"/>
    </g>
    <radialGradient cx="0" cy="0" gradientTransform="matrix(0.055, 0.022, -0.0106, 0.0204, -0.05, 0.0)" gradientUnits="userSpaceOnUse" id="gradient1" r="819.2" spreadMethod="pad">
      <stop offset="0.49019607843137253" stop-color="#0d151c" stop-opacity="0.4117647"/>
      <stop offset="1.0" stop-color="#101a24" stop-opacity="0.0"/>
    </radialGradient>
    <g id="sprite8" transform="matrix(1.0, 0.0, 0.0, 1.0, 40.05, 18.5)">
      <use height="13.0" transform="matrix(2.9655, -0.3604, 0.0, 3.375, -40.0737, -13.8205)" width="13.0" xlink:href="#sprite9"/>
    </g>
    <g id="sprite9" transform="matrix(1.0, 0.0, 0.0, 1.0, 6.55, 12.35)">
      <use height="13.1" transform="matrix(1.0, 0.0, 0.0, 1.0, -6.6, -12.4)" width="13.1" xlink:href="#shape6"/>
    </g>
    <g id="shape6" transform="matrix(1.0, 0.0, 0.0, 1.0, 6.6, 12.4)">
      <path d="M-5.25 -3.3 L-5.8 -5.3 Q-5.9 -6.4 -5.65 -7.35 -2.0 -1.85 5.85 -6.35 5.85 -4.2 4.5 -2.4 L4.4 -2.3 4.25 -2.05 Q-2.05 0.3 -5.25 -3.3" fill="#958d6f" fill-rule="evenodd" stroke="none"/>
      <path d="M-5.65 -7.35 Q-5.3 -8.65 -4.5 -9.75 -2.95 -11.65 -0.55 -11.95 1.8 -12.25 3.65 -10.8 5.55 -9.25 5.8 -6.8 L5.85 -6.35 Q-2.0 -1.85 -5.65 -7.35" fill="#9e9b86" fill-rule="evenodd" stroke="none"/>
      <path d="M4.25 -2.05 Q2.75 -0.35 0.6 -0.05 -1.85 0.25 -3.75 -1.3 -4.8 -2.2 -5.25 -3.3 -2.05 0.3 4.25 -2.05" fill="#8a7f57" fill-rule="evenodd" stroke="none"/>
      <path d="M4.25 -2.05 Q2.75 -0.35 0.6 -0.05 -1.85 0.25 -3.75 -1.3 -4.8 -2.2 -5.25 -3.3 L-5.8 -5.3 Q-5.9 -6.4 -5.65 -7.35 -5.3 -8.65 -4.5 -9.75 -2.95 -11.65 -0.55 -11.95 1.8 -12.25 3.65 -10.8 5.55 -9.25 5.8 -6.8 L5.85 -6.35 Q5.85 -4.2 4.5 -2.4 L4.4 -2.3" fill="none" stroke="#000000" stroke-linecap="round" stroke-linejoin="round" stroke-opacity="0.3019608" stroke-width="0.05"/>
      <path d="M2.45 -11.3 Q3.4 -10.8 3.35 -10.05 3.3 -9.3 2.3 -8.8 1.25 -8.25 -0.2 -8.25 -1.6 -8.25 -2.55 -8.8 -3.6 -9.3 -3.55 -10.05 -3.5 -10.8 -2.4 -11.3 -1.35 -11.85 0.05 -11.85 1.5 -11.85 2.45 -11.3" fill="#a5a295" fill-rule="evenodd" stroke="none"/>
      <path d="M1.3 -10.15 L0.0 -9.85 -1.3 -10.15 Q-1.85 -10.4 -1.85 -10.8 -1.85 -11.15 -1.3 -11.4 L0.0 -11.7 1.3 -11.4 1.9 -10.8 Q1.9 -10.4 1.3 -10.15" fill="#aaa7a2" fill-rule="evenodd" stroke="none"/>
      <path d="M1.5 -12.1 Q3.75 -11.3 5.05 -8.7 6.35 -6.15 6.45 -3.0 6.6 0.2 4.45 0.5 L-0.25 0.3 Q-2.8 -0.2 -5.1 -1.55 -7.35 -2.9 -6.1 -6.55 -4.8 -10.15 -2.8 -11.5 -0.75 -12.85 1.5 -12.1" fill="url(#gradient2)" fill-rule="evenodd" stroke="none"/>
      <path d="M1.5 -12.1 Q-0.75 -12.85 -2.8 -11.5 -4.8 -10.15 -6.1 -6.55 -7.35 -2.9 -5.1 -1.55 -2.8 -0.2 -0.25 0.3 L4.45 0.5 Q6.6 0.2 6.45 -3.0 6.35 -6.15 5.05 -8.7 3.75 -11.3 1.5 -12.1 Z" fill="none" stroke="#b2b2b2" stroke-linecap="round" stroke-linejoin="round" stroke-width="0.05"/>
      <path d="M4.35 0.2 L1.0 0.3 Q-0.9 0.2 -3.35 -0.75 -5.8 -1.7 -5.25 -2.9 -4.7 -4.15 -3.2 -4.5 -1.75 -4.9 0.15 -4.55 2.05 -4.15 3.45 -3.2 4.8 -2.25 5.3 -1.15 5.8 -0.05 4.35 0.2" fill="url(#gradient3)" fill-rule="evenodd" stroke="none"/>
      <path d="M-4.7 -5.75 Q-4.45 -5.4 -4.45 -4.35 -4.4 -3.25 -3.8 -2.6 -3.15 -1.95 -3.65 -1.85 -4.35 -1.9 -5.05 -2.45 -5.75 -3.05 -5.8 -3.85 -5.85 -4.6 -5.4 -5.35 -4.9 -6.2 -4.7 -5.75" fill="#aba8a2" fill-opacity="0.57254905" fill-rule="evenodd" stroke="none"/>
      <path d="M-3.1 -8.6 L-2.7 -8.75 -2.3 -8.55 -2.1 -8.2 -2.2 -7.85 -2.6 -7.75 Q-2.85 -7.75 -3.0 -7.9 L-3.25 -8.3 -3.1 -8.6 M-2.45 -8.5 L-2.55 -8.5 -2.55 -8.4 -2.5 -8.3 -2.4 -8.25 -2.3 -8.3 -2.3 -8.4 -2.35 -8.45 -2.45 -8.5" fill="#9e9b86" fill-rule="evenodd" stroke="none"/>
      <path d="M-2.45 -8.5 L-2.35 -8.45 -2.3 -8.4 -2.3 -8.3 -2.4 -8.25 -2.5 -8.3 -2.55 -8.4 -2.55 -8.5 -2.45 -8.5" fill="#aaa7a2" fill-rule="evenodd" stroke="none"/>
      <path d="M2.65 -4.8 Q2.7 -4.4 2.35 -4.1 L1.6 -3.85 Q1.1 -3.9 0.75 -4.2 0.35 -4.5 0.3 -4.95 0.25 -5.35 0.6 -5.65 L1.4 -5.9 2.2 -5.55 2.65 -4.8 M2.0 -5.4 L1.8 -5.35 1.75 -5.2 1.85 -5.05 Q1.9 -4.95 2.05 -4.95 L2.2 -5.0 2.25 -5.15 2.2 -5.3 2.0 -5.4" fill="#9e9b86" fill-rule="evenodd" stroke="none"/>
      <path d="M2.0 -5.4 L2.2 -5.3 2.25 -5.15 2.2 -5.0 2.05 -4.95 Q1.9 -4.95 1.85 -5.05 L1.75 -5.2 1.8 -5.35 2.0 -5.4" fill="#aaa7a2" fill-rule="evenodd" stroke="none"/>
    </g>
    <linearGradient gradientTransform="matrix(0.001, -0.0076, -0.0058, -0.0018, 0.25, -5.95)" gradientUnits="userSpaceOnUse" id="gradient2" spreadMethod="pad" x1="-819.2" x2="819.2">
      <stop offset="0.0" stop-color="#9e9b86"/>
      <stop offset="1.0" stop-color="#aaa7a2" stop-opacity="0.011764706"/>
      <stop offset="1.0" stop-color="#21786f" stop-opacity="0.023529412"/>
    </linearGradient>
    <linearGradient gradientTransform="matrix(-2.0E-4, -0.0026, -0.0049, -9.0E-4, 0.0, -2.45)" gradientUnits="userSpaceOnUse" id="gradient3" spreadMethod="pad" x1="-819.2" x2="819.2">
      <stop offset="0.0" stop-color="#8a7f57"/>
      <stop offset="1.0" stop-color="#9e9b86" stop-opacity="0.011764706"/>
      <stop offset="1.0" stop-color="#21786f" stop-opacity="0.023529412"/>
    </linearGradient>
    <g id="sprite10" transform="matrix(1.0, 0.0, 0.0, 1.0, 18.05, 18.65)">
      <use height="18.75" transform="matrix(1.0, 0.0, 0.0, 1.0, -18.1, -18.7)" width="18.15" xlink:href="#shape7"/>
    </g>
    <g id="shape7" transform="matrix(1.0, 0.0, 0.0, 1.0, 18.1, 18.7)">
      <path d="M-16.35 -4.0 Q-20.55 -9.1 -14.3 -14.0 -18.2 -18.3 -17.15 -18.65 -5.4 -13.0 -1.7 -7.2 -1.2 -6.25 -0.85 -5.1 L-2.35 -4.0 -5.4 -10.55 Q-6.2 -6.55 -10.95 -7.85 L-11.2 -7.85 Q-13.35 -8.3 -14.45 -9.4 L-14.55 -9.55 Q-15.2 -10.3 -15.35 -11.4 -18.45 -7.8 -14.2 -3.4 L-14.05 -3.4 -11.35 -2.05 -11.15 -1.95 Q-13.55 -2.45 -16.2 -3.8 L-16.35 -4.0" fill="#10303d" fill-rule="evenodd" stroke="none"/>
      <path d="M-11.15 -1.95 L-11.35 -2.05 Q-14.35 -4.6 -14.45 -9.4 -13.35 -8.3 -11.2 -7.85 L-10.95 -7.85 Q-6.2 -6.55 -5.4 -10.55 L-2.35 -4.0 Q-6.4 -1.1 -11.15 -1.95" fill="#a88949" fill-rule="evenodd" stroke="none"/>
      <path d="M-11.35 -2.05 L-14.05 -3.4 -14.2 -3.4 Q-18.45 -7.8 -15.35 -11.4 -15.2 -10.3 -14.55 -9.55 L-14.45 -9.4 Q-14.35 -4.6 -11.35 -2.05" fill="#716f62" fill-rule="evenodd" stroke="none"/>
      <path d="M-16.2 -3.8 Q-13.55 -2.45 -11.15 -1.95 -6.65 -0.25 -0.55 -0.05 -9.0 0.25 -15.35 -2.95 L-15.55 -3.1 -16.2 -3.8 M-2.35 -4.0 L-0.85 -5.1 Q-0.15 -2.7 -0.5 -0.15 L-2.35 -4.0" fill="#0d252f" fill-rule="evenodd" stroke="none"/>
      <path d="M-2.35 -4.0 L-0.5 -0.15 -0.55 -0.15 -0.55 -0.05 Q-6.65 -0.25 -11.15 -1.95 -6.4 -1.1 -2.35 -4.0" fill="#997644" fill-rule="evenodd" stroke="none"/>
      <path d="M-0.55 -0.15 L-0.5 -0.05 -0.55 -0.05 -0.55 -0.15" fill="#4a9fd7" fill-rule="evenodd" stroke="none"/>
      <path d="M-1.7 -7.2 Q-5.4 -13.0 -17.15 -18.65 -15.9 -19.05 -6.45 -12.75 -3.2 -10.05 -1.7 -7.2" fill="#174457" fill-rule="evenodd" stroke="none"/>
      <path d="M-17.15 -18.65 Q-18.2 -18.3 -14.3 -14.0 -20.55 -9.1 -16.35 -4.0 M-11.15 -1.95 L-11.35 -2.05 -14.05 -3.4 -14.2 -3.4 Q-18.45 -7.8 -15.35 -11.4 -15.2 -10.3 -14.55 -9.55 L-14.45 -9.4 Q-13.35 -8.3 -11.2 -7.85 L-10.95 -7.85 Q-6.2 -6.55 -5.4 -10.55 L-2.35 -4.0 -0.5 -0.15 -0.55 -0.15 -0.5 -0.05 -0.55 -0.05 Q-6.65 -0.25 -11.15 -1.95 M-0.85 -5.1 Q-1.2 -6.25 -1.7 -7.2 -3.2 -10.05 -6.45 -12.75 -15.9 -19.05 -17.15 -18.65 M-0.55 -0.05 Q-9.0 0.25 -15.35 -2.95 L-15.55 -3.1 -16.2 -3.8 M-14.45 -9.4 Q-14.35 -4.6 -11.35 -2.05 M-0.5 -0.15 Q-0.15 -2.7 -0.85 -5.1" fill="none" stroke="#003366" stroke-linecap="round" stroke-linejoin="round" stroke-opacity="0.2" stroke-width="0.05"/>
      <path d="M-17.15 -6.0 Q-15.65 -5.35 -14.65 -6.6" fill="none" stroke="#003366" stroke-linecap="round" stroke-linejoin="round" stroke-opacity="0.2" stroke-width="0.05"/>
      <path d="M-14.8 -6.75 Q-15.75 -8.35 -18.05 -8.15" fill="none" stroke="#003366" stroke-linecap="round" stroke-linejoin="round" stroke-opacity="0.2" stroke-width="0.05"/>
      <path d="M-14.95 -6.8 Q-4.6 -4.55 0.0 -0.15" fill="none" stroke="#003366" stroke-linecap="round" stroke-linejoin="round" stroke-opacity="0.2" stroke-width="0.05"/>
      <path d="M-0.35 -0.2 Q-7.55 -3.0 -15.1 -2.85" fill="none" stroke="#003366" stroke-linecap="round" stroke-linejoin="round" stroke-opacity="0.2" stroke-width="0.05"/>
      <path d="M-16.55 -11.45 Q-11.0 -9.45 -8.1 -4.75" fill="none" stroke="#003366" stroke-linecap="round" stroke-linejoin="round" stroke-opacity="0.2" stroke-width="0.05"/>
      <path d="M-10.75 -8.5 Q-12.25 -8.8 -13.1 -9.7 -13.95 -10.55 -13.7 -11.5 -13.45 -12.45 -12.2 -12.9 L-9.5 -13.1 Q-8.0 -12.8 -7.1 -11.85 -6.2 -11.0 -6.45 -10.05 -6.7 -9.1 -8.0 -8.65 L-10.75 -8.5" fill="#4b473b" fill-rule="evenodd" stroke="none"/>
      <path d="M-10.75 -8.5 Q-12.25 -8.8 -13.1 -9.7 -13.95 -10.55 -13.7 -11.5 -13.45 -12.45 -12.2 -12.9 L-9.5 -13.1 Q-8.0 -12.8 -7.1 -11.85 -6.2 -11.0 -6.45 -10.05 -6.7 -9.1 -8.0 -8.65 L-10.75 -8.5 Z" fill="none" stroke="#000000" stroke-linecap="round" stroke-linejoin="round" stroke-opacity="0.2" stroke-width="0.05"/>
    </g>
    <g id="shape8" transform="matrix(1.0, 0.0, 0.0, 1.0, 46.15, 20.4)">
      <path d="M32.4 20.9 Q-30.7 10.15 -34.45 -9.2 -55.9 -19.8 -37.85 -20.3 -19.85 -20.85 -11.4 -12.1 -9.35 -10.0 31.25 1.75 56.9 6.15 58.9 13.7 61.0 21.8 44.6 25.5 39.95 26.55 32.4 20.9 L31.25 20.0 32.4 20.9" fill="url(#gradient4)" fill-rule="evenodd" stroke="none"/>
      <path d="M32.4 20.9 Q-30.7 10.15 -34.45 -9.2 -55.9 -19.8 -37.85 -20.3 -19.85 -20.85 -11.4 -12.1 -9.35 -10.0 31.25 1.75 56.9 6.15 58.9 13.7 61.0 21.8 44.6 25.5 39.95 26.55 32.4 20.9 L31.25 20.0" fill="none" stroke="#ffffff" stroke-linecap="round" stroke-linejoin="round" stroke-opacity="0.3019608" stroke-width="0.05"/>
      <path d="M4.7 21.45 L2.45 21.2 Q1.2 20.85 0.4 20.3 -0.45 19.7 -0.4 19.2 -0.3 18.7 0.65 18.55 L2.85 18.75 Q4.05 19.1 4.95 19.7 5.8 20.35 5.7 20.85 5.65 21.35 4.7 21.45" fill="url(#gradient5)" fill-rule="evenodd" stroke="none"/>
      <path d="M4.7 21.45 L2.45 21.2 Q1.2 20.85 0.4 20.3 -0.45 19.7 -0.4 19.2 -0.3 18.7 0.65 18.55 L2.85 18.75 Q4.05 19.1 4.95 19.7 5.8 20.35 5.7 20.85 5.65 21.35 4.7 21.45 Z" fill="none" stroke="#ffffff" stroke-linecap="round" stroke-linejoin="round" stroke-opacity="0.3019608" stroke-width="0.05"/>
    </g>
    <radialGradient cx="0" cy="0" gradientTransform="matrix(0.0628, 0.0283, -0.0107, 0.0108, 11.0, 4.05)" gradientUnits="userSpaceOnUse" id="gradient4" r="819.2" spreadMethod="pad">
      <stop offset="0.0" stop-color="#e3dec0"/>
      <stop offset="1.0" stop-color="#f4f0e8" stop-opacity="0.011764706"/>
      <stop offset="1.0" stop-color="#30ada0" stop-opacity="0.023529412"/>
    </radialGradient>
    <radialGradient cx="0" cy="0" gradientTransform="matrix(0.0057, 0.0028, -7.0E-4, 0.0013, 4.2, 19.9)" gradientUnits="userSpaceOnUse" id="gradient5" r="819.2" spreadMethod="pad">
      <stop offset="0.0" stop-color="#e3dec0"/>
      <stop offset="1.0" stop-color="#f4f0e8" stop-opacity="0.011764706"/>
      <stop offset="1.0" stop-color="#30ada0" stop-opacity="0.023529412"/>
    </radialGradient>
    <g id="sprite11" transform="matrix(1.0, 0.0, 0.0, 1.0, -2.15, 32.8)">
      <use height="15.1" transform="matrix(2.9655, -0.3604, 0.0, 3.375, 2.809, -22.832)" width="12.15" xlink:href="#sprite12"/>
      <use height="16.85" transform="matrix(2.9655, -0.3604, 0.0, 3.375, 2.1522, -27.5877)" width="14.45" xlink:href="#sprite13"/>
    </g>
    <g id="sprite12" transform="matrix(1.0, 0.0, 0.0, 1.0, 6.05, 15.1)">
      <use height="12.05" transform="matrix(1.0, 0.0, 0.0, 1.2531, -6.05, -15.1)" width="12.15" xlink:href="#shape9"/>
    </g>
    <g id="shape9" transform="matrix(1.0, 0.0, 0.0, 1.0, 6.05, 12.05)">
      <path d="M-3.35 -1.35 Q-5.4 -2.9 -5.9 -5.35 -6.4 -7.85 -5.05 -9.85 -3.6 -11.75 -1.15 -12.0 1.3 -12.3 3.35 -10.75 5.5 -9.15 6.0 -6.65 6.45 -4.2 5.0 -2.25 3.65 -0.3 1.2 -0.05 -1.25 0.25 -3.35 -1.35" fill="#000000" fill-opacity="0.3019608" fill-rule="evenodd" stroke="none"/>
    </g>
    <g id="sprite13" transform="matrix(1.0, 0.0, 0.0, 1.0, 7.3, 16.85)">
      <use height="16.95" transform="matrix(1.0, 0.0, 0.0, 1.0, -7.35, -16.9)" width="14.55" xlink:href="#shape10"/>
    </g>
    <g id="shape10" transform="matrix(1.0, 0.0, 0.0, 1.0, 7.35, 16.9)">
      <path d="M-5.7 -4.25 L-6.3 -6.9 Q-6.4 -8.35 -6.15 -9.6 -2.2 -2.45 6.35 -8.25 6.4 -5.45 4.85 -3.1 L4.8 -2.95 4.65 -2.7 Q-2.2 0.4 -5.7 -4.25" fill="#aba280" fill-rule="evenodd" stroke="none"/>
      <path d="M-6.15 -9.6 Q-5.8 -11.3 -4.9 -12.75 -3.2 -15.2 -0.65 -15.6 2.0 -16.0 4.0 -14.1 6.05 -12.05 6.3 -8.85 L6.35 -8.25 Q-2.2 -2.45 -6.15 -9.6" fill="#b5b199" fill-rule="evenodd" stroke="none"/>
      <path d="M4.65 -2.7 Q3.0 -0.45 0.65 -0.05 -2.0 0.3 -4.05 -1.7 -5.15 -2.85 -5.7 -4.25 -2.2 0.4 4.65 -2.7" fill="#9f9264" fill-rule="evenodd" stroke="none"/>
      <path d="M4.65 -2.7 Q3.0 -0.45 0.65 -0.05 -2.0 0.3 -4.05 -1.7 -5.15 -2.85 -5.7 -4.25 L-6.3 -6.9 Q-6.4 -8.35 -6.15 -9.6 -5.8 -11.3 -4.9 -12.75 -3.2 -15.2 -0.65 -15.6 2.0 -16.0 4.0 -14.1 6.05 -12.05 6.3 -8.85 L6.35 -8.25 Q6.4 -5.45 4.85 -3.1 L4.8 -2.95" fill="none" stroke="#000000" stroke-linecap="round" stroke-linejoin="round" stroke-opacity="0.3019608" stroke-width="0.05"/>
      <path d="M2.6 -14.75 Q3.75 -14.1 3.7 -13.1 3.65 -12.15 2.45 -11.5 1.35 -10.75 -0.2 -10.75 -1.75 -10.75 -2.8 -11.5 -3.9 -12.15 -3.85 -13.1 -3.8 -14.1 -2.65 -14.75 -1.5 -15.5 0.05 -15.5 1.6 -15.5 2.6 -14.75" fill="#bdb9ab" fill-rule="evenodd" stroke="none"/>
      <path d="M1.2 -13.85 L-0.1 -13.55 Q-0.85 -13.55 -1.4 -13.85 -1.95 -14.1 -1.95 -14.5 L-1.4 -15.1 -0.1 -15.4 1.2 -15.1 1.8 -14.5 Q1.8 -14.1 1.2 -13.85" fill="#c3c0b9" fill-rule="evenodd" stroke="none"/>
      <path d="M0.7 -16.8 Q3.2 -16.4 4.95 -13.4 6.65 -10.4 7.1 -6.35 7.55 -2.3 5.3 -1.25 3.0 -0.25 0.15 -0.25 -2.7 -0.25 -5.35 -1.4 -8.0 -2.55 -7.05 -7.55 -6.05 -12.6 -3.95 -14.9 -1.85 -17.2 0.7 -16.8" fill="url(#gradient6)" fill-rule="evenodd" stroke="none"/>
      <path d="M0.7 -16.8 Q-1.85 -17.2 -3.95 -14.9 -6.05 -12.6 -7.05 -7.55 -8.0 -2.55 -5.35 -1.4 -2.7 -0.25 0.15 -0.25 3.0 -0.25 5.3 -1.25 7.55 -2.3 7.1 -6.35 6.65 -10.4 4.95 -13.4 3.2 -16.4 0.7 -16.8 Z" fill="none" stroke="#cccccc" stroke-linecap="round" stroke-linejoin="round" stroke-width="0.05"/>
      <path d="M5.15 -1.65 L1.55 -0.6 -3.35 -0.8 Q-6.15 -1.35 -5.7 -3.1 -5.2 -4.8 -3.65 -5.7 -2.05 -6.6 0.05 -6.65 2.2 -6.7 3.8 -5.8 5.35 -4.95 6.05 -3.65 6.65 -2.35 5.15 -1.65" fill="url(#gradient7)" fill-rule="evenodd" stroke="none"/>
      <path d="M-5.4 -6.95 Q-5.1 -6.55 -4.95 -5.15 -4.8 -3.8 -4.1 -3.05 -3.3 -2.4 -3.8 -2.15 -4.6 -2.05 -5.4 -2.6 -6.25 -3.1 -6.4 -4.2 -6.55 -5.1 -6.15 -6.25 -5.7 -7.4 -5.4 -6.95" fill="#c4c0b9" fill-opacity="0.57254905" fill-rule="evenodd" stroke="none"/>
      <path d="M-4.0 -11.05 L-3.55 -11.3 -3.1 -11.2 -2.85 -10.8 -2.95 -10.3 Q-3.1 -10.1 -3.35 -10.05 L-3.8 -10.15 -4.1 -10.55 -4.0 -11.05 M-3.25 -11.1 L-3.35 -11.05 -3.35 -10.9 -3.3 -10.8 -3.15 -10.8 -3.05 -10.85 -3.05 -10.95 -3.1 -11.05 -3.25 -11.1" fill="#b5b199" fill-rule="evenodd" stroke="none"/>
      <path d="M-3.25 -11.1 L-3.1 -11.05 -3.05 -10.95 -3.05 -10.85 -3.15 -10.8 -3.3 -10.8 -3.35 -10.9 -3.35 -11.05 -3.25 -11.1" fill="#c3c0b9" fill-rule="evenodd" stroke="none"/>
      <path d="M2.75 -7.7 Q2.85 -7.15 2.55 -6.7 L1.7 -6.15 0.75 -6.35 Q0.3 -6.65 0.2 -7.2 0.1 -7.7 0.4 -8.2 0.7 -8.6 1.2 -8.7 L2.2 -8.5 Q2.65 -8.2 2.75 -7.7 M1.95 -8.3 L1.75 -8.15 1.7 -7.9 1.85 -7.75 2.05 -7.7 Q2.15 -7.7 2.25 -7.8 L2.3 -8.05 2.15 -8.25 1.95 -8.3" fill="#b5b199" fill-rule="evenodd" stroke="none"/>
      <path d="M1.95 -8.3 L2.15 -8.25 2.3 -8.05 2.25 -7.8 Q2.15 -7.7 2.05 -7.7 L1.85 -7.75 1.7 -7.9 1.75 -8.15 1.95 -8.3" fill="#c3c0b9" fill-rule="evenodd" stroke="none"/>
    </g>
    <linearGradient gradientTransform="matrix(2.0E-4, -0.0101, -0.0066, -8.0E-4, 0.0, -8.55)" gradientUnits="userSpaceOnUse" id="gradient6" spreadMethod="pad" x1="-819.2" x2="819.2">
      <stop offset="0.0" stop-color="#b5b199"/>
      <stop offset="1.0" stop-color="#c3c0b9" stop-opacity="0.011764706"/>
      <stop offset="1.0" stop-color="#268a80" stop-opacity="0.023529412"/>
    </linearGradient>
    <linearGradient gradientTransform="matrix(-5.0E-4, -0.0033, -0.0055, 2.0E-4, 0.0, -3.9)" gradientUnits="userSpaceOnUse" id="gradient7" spreadMethod="pad" x1="-819.2" x2="819.2">
      <stop offset="0.0" stop-color="#9e9264"/>
      <stop offset="1.0" stop-color="#b5b199" stop-opacity="0.011764706"/>
      <stop offset="1.0" stop-color="#268a80" stop-opacity="0.023529412"/>
    </linearGradient>
    <g id="sprite15" transform="matrix(1.0, 0.0, 0.0, 1.0, 24.05, 29.35)">
      <use height="15.1" transform="matrix(2.9655, -0.3604, 0.0, 3.375, -21.141, -22.332)" width="12.15" xlink:href="#sprite16"/>
      <use height="15.55" transform="matrix(2.9655, -0.3604, 0.0, 3.375, -18.8685, -21.6665)" width="13.4" xlink:href="#sprite17"/>
      <use height="15.55" transform="matrix(3.262, -0.3965, 0.0, 3.7125, -20.8554, -24.0226)" width="13.4" xlink:href="#sprite17"/>
      <use height="61.0" transform="matrix(1.0, 0.0, 0.0, 1.0, -24.1, -28.6)" width="50.95" xlink:href="#shape12"/>
    </g>
    <g id="sprite16" transform="matrix(1.0, 0.0, 0.0, 1.0, 6.05, 15.1)">
      <use height="12.05" transform="matrix(1.0, 0.0, 0.0, 1.2531, -6.05, -15.1)" width="12.15" xlink:href="#shape9"/>
    </g>
    <g id="sprite17" transform="matrix(1.0, 0.0, 0.0, 1.0, 6.7, 15.55)">
      <use height="15.75" transform="matrix(1.0, 0.0, 0.0, 1.0, -6.8, -15.65)" width="13.6" xlink:href="#shape11"/>
    </g>
    <g id="shape11" transform="matrix(1.0, 0.0, 0.0, 1.0, 6.8, 15.65)">
      <path d="M-5.8 -4.25 Q-6.35 -5.4 -6.55 -6.85 -6.8 -8.3 -6.55 -9.5 -2.0 -2.4 6.65 -8.2 6.9 -5.4 5.4 -3.05 L5.35 -2.95 5.2 -2.7 Q-1.85 0.4 -5.8 -4.25" fill="#c0b68f" fill-rule="evenodd" stroke="none"/>
      <path d="M-6.55 -9.5 Q-6.3 -11.2 -5.45 -12.65 -3.8 -15.1 -1.05 -15.5 1.65 -15.9 3.9 -14.0 6.15 -12.0 6.6 -8.8 L6.65 -8.2 Q-2.0 -2.4 -6.55 -9.5" fill="#cbc7ac" fill-rule="evenodd" stroke="none"/>
      <path d="M5.2 -2.7 Q3.6 -0.45 1.1 -0.05 -1.6 0.3 -3.9 -1.7 -5.15 -2.8 -5.8 -4.25 -1.85 0.4 5.2 -2.7" fill="#b1a470" fill-rule="evenodd" stroke="none"/>
      <path d="M5.2 -2.7 Q3.6 -0.45 1.1 -0.05 -1.6 0.3 -3.9 -1.7 -5.15 -2.8 -5.8 -4.25 -6.35 -5.4 -6.55 -6.85 -6.8 -8.3 -6.55 -9.5 -6.3 -11.2 -5.45 -12.65 -3.8 -15.1 -1.05 -15.5 1.65 -15.9 3.9 -14.0 6.15 -12.0 6.6 -8.8 L6.65 -8.2 Q6.9 -5.4 5.4 -3.05 L5.35 -2.95" fill="none" stroke="#000000" stroke-linecap="round" stroke-linejoin="round" stroke-opacity="0.3019608" stroke-width="0.05"/>
      <path d="M3.6 -13.05 Q3.6 -12.05 2.4 -11.4 1.25 -10.7 -0.35 -10.7 -2.0 -10.7 -3.15 -11.4 -4.35 -12.05 -4.35 -13.05 -4.35 -14.0 -3.15 -14.65 -2.0 -15.4 -0.35 -15.4 1.25 -15.4 2.4 -14.65 3.6 -14.0 3.6 -13.05" fill="#d4d0c0" fill-rule="evenodd" stroke="none"/>
      <path d="M1.35 -14.35 Q1.35 -13.95 0.75 -13.7 0.25 -13.4 -0.55 -13.4 L-1.85 -13.7 Q-2.4 -13.95 -2.4 -14.35 -2.4 -14.7 -1.85 -14.95 L-0.55 -15.25 0.75 -14.95 1.35 -14.35" fill="#dbd7d0" fill-rule="evenodd" stroke="none"/>
    </g>
    <g id="shape12" transform="matrix(1.0, 0.0, 0.0, 1.0, 24.1, 28.6)">
      <path d="M3.95 -28.3 Q12.85 -26.85 18.9 -15.85 24.9 -4.9 26.5 10.05 28.15 24.9 20.15 28.6 12.15 32.3 2.1 32.35 -7.9 32.3 -17.25 28.2 -26.55 24.0 -23.15 5.55 -19.65 -12.9 -12.3 -21.35 -5.0 -29.8 3.95 -28.3" fill="url(#gradient8)" fill-rule="evenodd" stroke="none"/>
      <path d="M3.95 -28.3 Q-5.0 -29.8 -12.3 -21.35 -19.65 -12.9 -23.15 5.55 -26.55 24.0 -17.25 28.2 -7.9 32.3 2.1 32.35 12.15 32.3 20.15 28.6 28.15 24.9 26.5 10.05 24.9 -4.9 18.9 -15.85 12.85 -26.85 3.95 -28.3 Z" fill="none" stroke="#ffffff" stroke-linecap="round" stroke-linejoin="round" stroke-width="0.05"/>
      <path d="M19.6 27.15 Q14.2 29.6 6.95 31.0 -0.3 32.35 -10.15 30.35 -20.0 28.25 -18.35 21.9 -16.65 15.6 -11.15 12.4 -5.7 9.0 1.8 8.85 9.25 8.75 14.9 11.9 20.45 15.1 22.75 19.95 25.0 24.7 19.6 27.15" fill="url(#gradient9)" fill-rule="evenodd" stroke="none"/>
      <path d="M-17.35 7.7 Q-16.25 9.3 -15.85 14.35 -15.35 19.4 -12.75 22.0 -10.05 24.55 -11.8 25.4 -14.5 25.75 -17.45 23.8 -20.4 21.85 -20.95 17.9 -21.4 14.6 -19.95 10.4 -18.45 6.1 -17.35 7.7" fill="#f5f1e8" fill-opacity="0.57254905" fill-rule="evenodd" stroke="none"/>
      <path d="M-12.4 -7.2 Q-11.85 -8.0 -10.95 -8.2 -10.05 -8.35 -9.3 -7.85 -8.55 -7.25 -8.35 -6.3 -8.2 -5.3 -8.7 -4.55 -9.25 -3.75 -10.15 -3.55 -11.1 -3.4 -11.8 -3.95 -12.6 -4.5 -12.8 -5.45 -12.95 -6.4 -12.4 -7.2 M-9.75 -7.4 L-10.1 -7.2 -10.15 -6.75 Q-10.15 -6.5 -9.95 -6.4 L-9.55 -6.3 -9.2 -6.55 Q-9.1 -6.7 -9.15 -6.95 L-9.35 -7.35 -9.75 -7.4" fill="#e3dec0" fill-rule="evenodd" stroke="none"/>
      <path d="M-9.75 -7.4 L-9.35 -7.35 -9.15 -6.95 Q-9.1 -6.7 -9.2 -6.55 L-9.55 -6.3 -9.95 -6.4 Q-10.15 -6.5 -10.15 -6.75 L-10.1 -7.2 -9.75 -7.4" fill="#f4f0e8" fill-rule="evenodd" stroke="none"/>
      <path d="M11.15 5.1 Q11.5 7.1 10.45 8.7 9.4 10.3 7.5 10.65 5.7 11.0 4.15 9.9 2.55 8.8 2.2 6.85 1.85 4.95 3.0 3.25 4.05 1.65 5.85 1.3 7.75 0.95 9.3 2.0 10.8 3.2 11.15 5.1 M8.35 2.9 Q7.85 3.0 7.7 3.35 7.4 3.7 7.55 4.2 7.6 4.65 8.0 4.9 8.25 5.15 8.75 5.1 L9.45 4.6 9.6 3.8 9.15 3.05 Q8.8 2.8 8.35 2.9" fill="#e3dec0" fill-rule="evenodd" stroke="none"/>
      <path d="M8.35 2.9 Q8.8 2.8 9.15 3.05 L9.6 3.8 9.45 4.6 8.75 5.1 Q8.25 5.15 8.0 4.9 7.6 4.65 7.55 4.2 7.4 3.7 7.7 3.35 7.85 3.0 8.35 2.9" fill="#f4f0e8" fill-rule="evenodd" stroke="none"/>
    </g>
    <linearGradient gradientTransform="matrix(8.0E-4, -0.0371, -0.0232, -0.0029, 1.65, 2.0)" gradientUnits="userSpaceOnUse" id="gradient8" spreadMethod="pad" x1="-819.2" x2="819.2">
      <stop offset="0.0" stop-color="#e3dec0"/>
      <stop offset="1.0" stop-color="#f4f0e8" stop-opacity="0.011764706"/>
      <stop offset="1.0" stop-color="#30ada0" stop-opacity="0.023529412"/>
    </linearGradient>
    <linearGradient gradientTransform="matrix(-0.0017, -0.0123, -0.0193, 7.0E-4, 1.85, 19.0)" gradientUnits="userSpaceOnUse" id="gradient9" spreadMethod="pad" x1="-819.2" x2="819.2">
      <stop offset="0.0" stop-color="#c6b77d"/>
      <stop offset="1.0" stop-color="#e3dec0" stop-opacity="0.011764706"/>
      <stop offset="1.0" stop-color="#30ada0" stop-opacity="0.023529412"/>
    </linearGradient>
    <g id="sprite18" transform="matrix(1.0, 0.0, 0.0, 1.0, 6.05, 12.05)">
      <use height="12.05" transform="matrix(1.0, 0.0, 0.0, 1.0, -6.05, -12.05)" width="12.15" xlink:href="#shape9"/>
    </g>
    <g id="sprite19" transform="matrix(1.0, 0.0, 0.0, 1.0, -14.3, 10.65)">
      <use height="39.7" transform="matrix(1.0, 0.0, 0.0, 1.0, 14.25, -10.7)" width="39.1" xlink:href="#shape13"/>
      <use height="5.6" transform="matrix(-1.0399, 0.0228, -0.0453, 0.7041, 42.9467, 9.1886)" width="3.5" xlink:href="#sprite20"/>
      <use height="28.15" transform="matrix(1.0, 0.0, 0.0, 1.0, 17.9, -4.55)" width="32.35" xlink:href="#shape15"/>
      <use height="5.6" transform="matrix(-1.1555, 0.0228, -0.0503, 0.702, 36.5131, 12.1445)" width="3.5" xlink:href="#sprite20"/>
      <use height="11.0" transform="matrix(1.0, 0.0, 0.0, 1.0, 17.85, 0.45)" width="20.25" xlink:href="#shape16"/>
    </g>
    <g id="shape13" transform="matrix(1.0, 0.0, 0.0, 1.0, -14.25, 10.7)">
      <path d="M15.3 3.7 Q15.95 -0.1 18.1 -3.25 22.15 -8.8 28.95 -9.65 35.7 -10.55 41.2 -6.3 46.9 -1.8 47.95 5.3 L48.1 6.6 Q26.65 19.5 15.3 3.7" fill="#e3dec0" fill-rule="evenodd" stroke="none"/>
      <path d="M48.1 6.6 Q48.65 12.85 45.0 18.05 L44.85 18.35 44.45 18.9 Q27.05 25.75 17.15 15.45 15.8 12.85 15.3 9.65 14.75 6.45 15.3 3.7 26.65 19.5 48.1 6.6" fill="#d6cba0" fill-rule="evenodd" stroke="none"/>
      <path d="M44.45 18.9 Q40.55 23.85 34.35 24.7 27.6 25.6 21.9 21.1 18.8 18.65 17.15 15.45 27.05 25.75 44.45 18.9" fill="#c6b77d" fill-rule="evenodd" stroke="none"/>
      <path d="M15.3 3.7 Q15.95 -0.1 18.1 -3.25 22.15 -8.8 28.95 -9.65 35.7 -10.55 41.2 -6.3 46.9 -1.8 47.95 5.3 L48.1 6.6 Q48.65 12.85 45.0 18.05 L44.85 18.35 M44.45 18.9 Q40.55 23.85 34.35 24.7 27.6 25.6 21.9 21.1 18.8 18.65 17.15 15.45 15.8 12.85 15.3 9.65 14.75 6.45 15.3 3.7 Z" fill="none" stroke="#000000" stroke-linecap="round" stroke-linejoin="round" stroke-opacity="0.3019608" stroke-width="0.05"/>
      <path d="M30.7 -9.35 Q34.75 -9.35 37.55 -7.75 40.55 -6.3 40.55 -4.15 40.55 -1.95 37.55 -0.5 34.75 1.1 30.7 1.1 26.65 1.1 23.8 -0.5 20.8 -1.95 20.8 -4.15 20.8 -6.3 23.8 -7.75 26.65 -9.35 30.7 -9.35" fill="#ede8d6" fill-rule="evenodd" stroke="none"/>
      <path d="M34.1 -4.4 Q32.65 -3.55 30.6 -3.55 28.5 -3.55 27.05 -4.4 25.55 -5.1 25.55 -6.25 25.55 -7.35 27.05 -8.1 28.5 -8.9 30.6 -8.9 32.65 -8.9 34.1 -8.1 35.65 -7.35 35.65 -6.25 35.65 -5.1 34.1 -4.4" fill="#f4f0e8" fill-rule="evenodd" stroke="none"/>
      <path d="M28.8 -10.35 Q35.65 -11.65 41.95 -6.9 48.15 -2.25 51.8 5.7 55.45 13.55 50.15 17.5 44.85 21.5 37.4 23.85 30.0 26.2 22.45 26.1 14.85 25.95 14.35 14.9 13.9 3.85 17.95 -2.6 21.95 -9.0 28.8 -10.35" fill="url(#gradient10)" fill-rule="evenodd" stroke="none"/>
      <path d="M28.8 -10.35 Q21.95 -9.0 17.95 -2.6 13.9 3.85 14.35 14.9 14.85 25.95 22.45 26.1 30.0 26.2 37.4 23.85 44.85 21.5 50.15 17.5 55.45 13.55 51.8 5.7 48.15 -2.25 41.95 -6.9 35.65 -11.65 28.8 -10.35 Z" fill="none" stroke="#ffffff" stroke-linecap="round" stroke-linejoin="round" stroke-width="0.05"/>
      <path d="M49.5 16.8 Q45.9 19.5 40.8 21.95 35.65 24.4 28.05 25.65 20.4 26.8 20.6 22.9 20.8 19.0 24.35 15.9 27.85 12.7 33.35 10.85 38.85 9.05 43.5 9.5 48.2 9.9 50.7 12.1 53.1 14.2 49.5 16.8" fill="url(#gradient11)" fill-rule="evenodd" stroke="none"/>
      <path d="M18.95 14.75 Q20.1 15.4 21.2 18.1 22.4 20.8 24.7 21.6 27.15 22.35 26.0 23.3 24.05 24.1 21.55 23.7 19.05 23.3 18.0 21.25 17.1 19.55 17.5 16.85 17.9 14.1 18.95 14.75" fill="#f5f1e8" fill-opacity="0.57254905" fill-rule="evenodd" stroke="none"/>
      <path d="M20.25 5.3 Q20.5 4.7 21.1 4.4 L22.35 4.2 Q23.05 4.35 23.35 4.8 23.65 5.35 23.35 5.9 23.1 6.45 22.5 6.8 L21.15 6.95 Q20.5 6.85 20.2 6.35 19.9 5.85 20.25 5.3 M22.15 4.55 L21.95 4.75 Q21.8 4.85 21.95 5.0 L22.15 5.15 22.5 5.1 22.7 4.85 22.65 4.65 22.45 4.45 22.15 4.55" fill="#e3dec0" fill-rule="evenodd" stroke="none"/>
      <path d="M22.15 4.55 L22.45 4.45 22.65 4.65 22.7 4.85 22.5 5.1 22.15 5.15 21.95 5.0 Q21.8 4.85 21.95 4.75 L22.15 4.55" fill="#f4f0e8" fill-rule="evenodd" stroke="none"/>
      <path d="M39.65 6.55 Q40.2 7.6 39.75 8.75 39.2 9.9 37.85 10.55 36.55 11.15 35.25 10.85 33.9 10.65 33.35 9.65 32.7 8.65 33.3 7.45 33.85 6.35 35.1 5.7 36.45 5.05 37.8 5.25 39.1 5.6 39.65 6.55 M37.25 6.0 L36.8 6.4 Q36.6 6.65 36.85 6.9 36.9 7.15 37.25 7.2 L37.85 7.15 38.3 6.65 38.3 6.2 Q38.15 5.95 37.8 5.9 L37.25 6.0" fill="#e3dec0" fill-rule="evenodd" stroke="none"/>
      <path d="M37.25 6.0 L37.8 5.9 Q38.15 5.95 38.3 6.2 L38.3 6.65 37.85 7.15 37.25 7.2 Q36.9 7.15 36.85 6.9 36.6 6.65 36.8 6.4 L37.25 6.0" fill="#f4f0e8" fill-rule="evenodd" stroke="none"/>
      <path d="M24.0 18.8 L28.7 23.15 23.05 24.9 22.25 23.3 24.0 18.8" fill="#fae09f" fill-rule="evenodd" stroke="none"/>
      <path d="M32.1 28.4 L30.45 23.9 36.55 23.3 33.7 28.95 32.1 28.4 M38.55 23.3 L43.7 19.55 43.85 25.75 42.2 26.35 38.55 23.3 M44.4 19.25 L47.1 13.15 50.2 18.65 48.85 19.95 44.4 19.25" fill="#faf9e3" fill-rule="evenodd" stroke="none"/>
      <path d="M49.25 0.1 L49.65 0.35 49.65 0.5 Q51.8 3.7 51.7 7.5 L51.55 7.75 51.55 8.2 Q50.75 10.65 48.7 12.4 46.25 14.45 43.05 14.15 40.05 13.7 38.05 11.1 L37.65 10.4 Q36.15 8.05 36.55 5.15 36.95 1.8 39.4 -0.35 41.4 -2.1 44.1 -2.1 L44.9 -2.1 Q47.5 -1.8 49.25 0.1" fill="#fcfce9" fill-rule="evenodd" stroke="none"/>
      <path d="M49.25 0.1 Q47.5 -1.8 44.9 -2.1 L44.1 -2.1 Q41.4 -2.1 39.4 -0.35 36.95 1.8 36.55 5.15 36.15 8.05 37.65 10.4 L38.05 11.1 Q40.05 13.7 43.05 14.15 46.25 14.45 48.7 12.4 50.75 10.65 51.55 8.2 51.0 12.1 48.15 14.45 45.2 17.05 41.55 16.6 39.4 16.35 37.65 15.0 36.55 14.15 35.75 12.85 33.3 9.8 33.7 5.6 34.1 1.65 37.2 -1.1 40.05 -3.55 43.7 -2.95 L46.4 -2.25 Q48.05 -1.5 49.25 0.1" fill="#c8cba3" fill-rule="evenodd" stroke="none"/>
      <path d="M51.55 8.2 L51.55 7.75 51.7 7.5 Q51.8 3.7 49.65 0.5 L49.65 0.35 49.25 0.1 Q48.05 -1.5 46.4 -2.25 L43.7 -2.95 Q40.05 -3.55 37.2 -1.1 34.1 1.65 33.7 5.6 33.3 9.8 35.75 12.85 36.55 14.15 37.65 15.0 39.4 16.35 41.55 16.6 45.2 17.05 48.15 14.45 51.0 12.1 51.55 8.2 Z" fill="none" stroke="#000000" stroke-linecap="butt" stroke-linejoin="miter-clip" stroke-miterlimit="3.0" stroke-opacity="0.3019608" stroke-width="0.05"/>
    </g>
    <linearGradient gradientTransform="matrix(-0.0055, -0.0208, -0.0176, 0.0039, 32.0, 7.05)" gradientUnits="userSpaceOnUse" id="gradient10" spreadMethod="pad" x1="-819.2" x2="819.2">
      <stop offset="0.0" stop-color="#e3dec0"/>
      <stop offset="1.0" stop-color="#f4f0e8" stop-opacity="0.011764706"/>
      <stop offset="1.0" stop-color="#30ada0" stop-opacity="0.023529412"/>
    </linearGradient>
    <linearGradient gradientTransform="matrix(-0.0032, -0.0064, -0.0141, 0.0049, 34.95, 16.45)" gradientUnits="userSpaceOnUse" id="gradient11" spreadMethod="pad" x1="-819.2" x2="819.2">
      <stop offset="0.0" stop-color="#c6b77d"/>
      <stop offset="1.0" stop-color="#e3dec0" stop-opacity="0.011764706"/>
      <stop offset="1.0" stop-color="#30ada0" stop-opacity="0.023529412"/>
    </linearGradient>
    <g id="sprite20" transform="matrix(1.0, 0.0, 0.0, 1.0, 1.75, 2.8)">
      <use height="5.6" transform="matrix(1.0, 0.0, 0.0, 1.0, -1.75, -2.8)" width="3.5" xlink:href="#shape14"/>
    </g>
    <g id="shape14" transform="matrix(1.0, 0.0, 0.0, 1.0, 1.75, 2.8)">
      <path d="M1.2 -2.0 Q1.75 -1.15 1.75 0.0 1.75 1.15 1.2 1.95 0.7 2.8 0.0 2.8 -0.7 2.8 -1.25 1.95 -1.75 1.15 -1.75 0.0 -1.75 -1.15 -1.25 -2.0 -0.7 -2.8 0.0 -2.8 0.7 -2.8 1.2 -2.0" fill="#252016" fill-rule="evenodd" stroke="none"/>
      <path d="M1.5 -1.0 L1.1 -0.8 0.7 -1.0 Q0.55 -1.2 0.55 -1.45 L0.7 -1.9 1.1 -2.1 1.5 -1.9 1.7 -1.45 1.5 -1.0" fill="#ffffff" fill-rule="evenodd" stroke="none"/>
    </g>
    <g id="shape15" transform="matrix(1.0, 0.0, 0.0, 1.0, -17.9, 4.55)">
      <path d="M35.05 -1.5 Q36.3 -2.8 38.15 -3.7 41.95 -5.3 45.85 -3.7 47.9 -2.55 49.5 -1.1 44.8 -1.8 37.65 7.6 33.7 3.7 35.05 -1.5" fill="#e3dec0" fill-rule="evenodd" stroke="none"/>
      <path d="M34.0 12.85 L33.15 11.1 Q31.3 6.75 32.9 2.55 33.7 0.2 35.05 -1.5 33.7 3.7 37.65 7.6 35.85 9.95 34.0 12.85" fill="#c6b77d" fill-rule="evenodd" stroke="none"/>
      <path d="M35.05 -1.5 Q36.3 -2.8 38.15 -3.7 41.95 -5.3 45.85 -3.7 47.9 -2.55 49.5 -1.1 L50.2 -0.35 M36.7 10.95 L34.0 12.85 33.15 11.1 Q31.3 6.75 32.9 2.55 33.7 0.2 35.05 -1.5 Z" fill="none" stroke="#000000" stroke-linecap="butt" stroke-linejoin="miter-clip" stroke-miterlimit="3.0" stroke-opacity="0.3019608" stroke-width="0.05"/>
      <path d="M38.15 -0.95 Q38.05 -1.8 38.7 -2.4 39.5 -3.1 40.85 -3.25 L42.9 -2.95 Q43.85 -2.7 44.0 -1.8 44.0 -0.95 43.3 -0.2 42.6 0.5 41.4 0.65 L39.1 0.35 Q38.15 -0.05 38.15 -0.95" fill="#f4f0e8" fill-rule="evenodd" stroke="none"/>
      <path d="M35.35 7.2 Q33.15 5.15 30.35 5.0 29.95 4.85 29.4 5.0 26.55 4.85 24.1 6.6 21.55 8.8 21.15 12.1 20.75 15.15 22.25 17.5 L22.65 18.05 Q24.95 20.8 28.3 21.25 31.95 21.55 34.5 19.5 37.1 17.5 37.75 14.45 L37.75 14.9 Q37.2 18.95 34.0 21.4 30.75 24.0 26.7 23.45 24.25 23.15 22.25 21.85 L20.2 19.95 Q17.5 16.75 18.05 12.55 18.45 8.8 21.8 6.05 25.05 3.7 29.1 4.0 L31.95 4.85 Q33.85 5.75 35.35 7.2" fill="#c8cba3" fill-rule="evenodd" stroke="none"/>
      <path d="M37.75 14.45 Q37.1 17.5 34.5 19.5 31.95 21.55 28.3 21.25 24.95 20.8 22.65 18.05 L22.25 17.5 Q20.75 15.15 21.15 12.1 21.55 8.8 24.1 6.6 26.55 4.85 29.4 5.0 29.95 4.85 30.35 5.0 33.15 5.15 35.35 7.2 L35.6 7.5 Q38.05 10.8 37.75 14.45" fill="#fcfce9" fill-rule="evenodd" stroke="none"/>
      <path d="M35.35 7.2 Q33.85 5.75 31.95 4.85 L29.1 4.0 Q25.05 3.7 21.8 6.05 18.45 8.8 18.05 12.55 17.5 16.75 20.2 19.95 L22.25 21.85 Q24.25 23.15 26.7 23.45 30.75 24.0 34.0 21.4 37.2 18.95 37.75 14.9 L37.75 14.45 Q38.05 10.8 35.6 7.5 L35.35 7.2 Z" fill="none" stroke="#000000" stroke-linecap="butt" stroke-linejoin="miter-clip" stroke-miterlimit="3.0" stroke-opacity="0.3019608" stroke-width="0.05"/>
    </g>
    <g id="shape16" transform="matrix(1.0, 0.0, 0.0, 1.0, -17.85, -0.45)">
      <path d="M17.9 10.25 L18.15 9.05 Q19.25 4.6 22.9 2.25 24.8 0.95 26.8 0.65 23.05 3.4 23.45 8.5 20.75 8.95 17.9 10.25" fill="#c6b77d" fill-rule="evenodd" stroke="none"/>
      <path d="M26.8 0.65 L30.6 0.95 Q34.5 2.1 36.7 6.15 37.9 8.8 38.05 11.4 31.15 6.9 23.45 8.5 23.05 3.4 26.8 0.65" fill="#e3dec0" fill-rule="evenodd" stroke="none"/>
      <path d="M17.9 10.25 L18.15 9.05 Q19.25 4.6 22.9 2.25 24.8 0.95 26.8 0.65 L30.6 0.95 Q34.5 2.1 36.7 6.15 37.9 8.8 38.05 11.4" fill="none" stroke="#000000" stroke-linecap="butt" stroke-linejoin="miter-clip" stroke-miterlimit="3.0" stroke-opacity="0.3019608" stroke-width="0.05"/>
      <path d="M28.85 4.85 Q28.45 3.85 28.85 3.15 29.25 2.4 30.2 2.4 31.3 2.25 32.35 3.0 33.45 3.7 34.0 4.7 34.4 5.6 34.0 6.3 33.55 7.05 32.65 7.2 31.55 7.2 30.45 6.45 29.4 5.75 28.85 4.85" fill="#f4f0e8" fill-rule="evenodd" stroke="none"/>
    </g>
    <g id="sprite21" transform="matrix(1.0, 0.0, 0.0, 1.0, 21.5, 18.1)">
      <use height="18.2" transform="matrix(1.0, 0.0, 0.0, 1.0, -21.55, -18.15)" width="21.6" xlink:href="#shape17"/>
    </g>
    <g id="shape17" transform="matrix(1.0, 0.0, 0.0, 1.0, 21.55, 18.15)">
      <path d="M-3.15 -4.0 L-7.65 -10.4 Q-7.7 -6.5 -12.8 -7.5 L-13.0 -7.55 Q-15.3 -7.9 -16.65 -8.95 L-16.8 -9.1 Q-17.7 -9.85 -18.0 -10.85 -20.45 -7.2 -15.25 -3.0 L-15.05 -2.9 -12.0 -1.75 -11.8 -1.65 Q-14.35 -2.05 -17.3 -3.35 L-17.45 -3.45 Q-22.85 -8.45 -17.4 -13.5 -22.3 -17.75 -21.35 -18.05 -8.15 -12.9 -3.25 -7.2 L-1.85 -5.2 -3.15 -4.0" fill="#10303d" fill-rule="evenodd" stroke="none"/>
      <path d="M-16.65 -8.95 Q-15.3 -7.9 -13.0 -7.55 L-12.8 -7.5 Q-7.7 -6.5 -7.65 -10.4 L-3.15 -4.0 Q-6.7 -0.95 -11.8 -1.65 L-12.0 -1.75 Q-15.65 -4.15 -16.65 -8.95" fill="#f7cfaa" fill-rule="evenodd" stroke="none"/>
      <path d="M-12.0 -1.75 L-15.05 -2.9 -15.25 -3.0 Q-20.45 -7.2 -18.0 -10.85 -17.7 -9.85 -16.8 -9.1 L-16.65 -8.95 Q-15.65 -4.15 -12.0 -1.75" fill="#716f62" fill-rule="evenodd" stroke="none"/>
      <path d="M-3.15 -4.0 L-1.85 -5.2 Q-0.65 -2.8 -0.55 -0.3 L-3.15 -4.0 M-17.3 -3.35 Q-14.35 -2.05 -11.8 -1.65 -6.85 -0.1 -0.6 -0.15 -9.1 0.55 -16.25 -2.45 L-16.45 -2.65 -17.3 -3.35" fill="#0d252f" fill-rule="evenodd" stroke="none"/>
      <path d="M-3.15 -4.0 L-0.55 -0.3 -0.6 -0.25 -0.6 -0.15 Q-6.85 -0.1 -11.8 -1.65 -6.7 -0.95 -3.15 -4.0" fill="#a88949" fill-rule="evenodd" stroke="none"/>
      <path d="M-0.6 -0.25 L-0.55 -0.15 -0.6 -0.15 -0.6 -0.25" fill="#4a9fd7" fill-rule="evenodd" stroke="none"/>
      <path d="M-3.25 -7.2 Q-8.15 -12.9 -21.35 -18.05 -20.1 -18.5 -9.2 -12.65 -5.35 -10.05 -3.25 -7.2" fill="#174457" fill-rule="evenodd" stroke="none"/>
      <path d="M-16.65 -8.95 Q-15.3 -7.9 -13.0 -7.55 L-12.8 -7.5 Q-7.7 -6.5 -7.65 -10.4 L-3.15 -4.0 -0.55 -0.3 Q-0.65 -2.8 -1.85 -5.2 L-3.25 -7.2 Q-5.35 -10.05 -9.2 -12.65 -20.1 -18.5 -21.35 -18.05 -22.3 -17.75 -17.4 -13.5 -22.85 -8.45 -17.45 -3.45 M-11.8 -1.65 L-12.0 -1.75 -15.05 -2.9 -15.25 -3.0 Q-20.45 -7.2 -18.0 -10.85 -17.7 -9.85 -16.8 -9.1 L-16.65 -8.95 Q-15.65 -4.15 -12.0 -1.75 M-0.6 -0.15 Q-9.1 0.55 -16.25 -2.45 L-16.45 -2.65 -17.3 -3.35 M-0.55 -0.3 L-0.6 -0.25 -0.55 -0.15 -0.6 -0.15 Q-6.85 -0.1 -11.8 -1.65" fill="none" stroke="#003366" stroke-linecap="round" stroke-linejoin="round" stroke-opacity="0.2" stroke-width="0.05"/>
      <path d="M-18.7 -5.45 Q-17.1 -4.9 -16.3 -6.2" fill="none" stroke="#003366" stroke-linecap="round" stroke-linejoin="round" stroke-opacity="0.2" stroke-width="0.05"/>
      <path d="M-16.55 -6.25 Q-17.8 -7.85 -20.05 -7.6" fill="none" stroke="#003366" stroke-linecap="round" stroke-linejoin="round" stroke-opacity="0.2" stroke-width="0.05"/>
      <path d="M-16.65 -6.4 Q-5.6 -4.5 0.0 -0.25" fill="none" stroke="#003366" stroke-linecap="round" stroke-linejoin="round" stroke-opacity="0.2" stroke-width="0.05"/>
      <path d="M-0.45 -0.3 Q-8.35 -2.9 -16.0 -2.4" fill="none" stroke="#003366" stroke-linecap="round" stroke-linejoin="round" stroke-opacity="0.2" stroke-width="0.05"/>
      <path d="M-19.2 -10.95 Q-13.2 -9.2 -9.2 -4.6" fill="none" stroke="#003366" stroke-linecap="round" stroke-linejoin="round" stroke-opacity="0.2" stroke-width="0.05"/>
      <path d="M-12.75 -8.05 Q-14.35 -8.3 -15.45 -9.15 -16.5 -9.95 -16.4 -10.9 -16.35 -11.85 -15.2 -12.4 L-12.4 -12.65 Q-10.8 -12.4 -9.75 -11.55 -8.65 -10.7 -8.7 -9.75 -8.8 -8.8 -10.0 -8.3 L-12.75 -8.05" fill="#5f584b" fill-rule="evenodd" stroke="none"/>
      <path d="M-12.75 -8.05 Q-14.35 -8.3 -15.45 -9.15 -16.5 -9.95 -16.4 -10.9 -16.35 -11.85 -15.2 -12.4 L-12.4 -12.65 Q-10.8 -12.4 -9.75 -11.55 -8.65 -10.7 -8.7 -9.75 -8.8 -8.8 -10.0 -8.3 L-12.75 -8.05 Z" fill="none" stroke="#000000" stroke-linecap="round" stroke-linejoin="round" stroke-opacity="0.2" stroke-width="0.05"/>
    </g>
    <g id="sprite22" transform="matrix(1.0, 0.0, 0.0, 1.0, 3.05, 0.0)">
      <use height="7.75" transform="matrix(1.0, 0.0, 0.0, 1.0, -3.3, -0.25)" width="6.6" xlink:href="#shape18"/>
    </g>
    <g id="shape18" transform="matrix(1.0, 0.0, 0.0, 1.0, 3.3, 0.25)">
      <path d="M-1.7 0.8 L-1.1 0.4 0.6 0.8 2.05 2.25 Q2.9 3.1 2.8 3.85 L2.65 4.3 2.05 4.8 0.35 4.55 -1.5 3.1 Q-2.1 2.25 -1.85 1.5 -1.95 1.05 -1.7 0.8" fill="#4d4746" fill-rule="evenodd" stroke="none"/>
      <path d="M2.8 3.85 Q2.9 3.1 2.05 2.25 L0.6 0.8 -1.1 0.4 -1.7 0.8 Q0.6 -1.3 3.05 2.1 L2.8 3.85" fill="#f5f1f1" fill-rule="evenodd" stroke="none"/>
      <path d="M-2.2 7.0 Q-2.45 6.15 -1.1 5.3 L1.2 4.55 Q2.3 4.45 1.8 3.6 0.7 1.9 -1.5 2.6 L-0.65 2.1 1.55 2.25 Q2.55 3.0 2.8 4.1 2.65 4.8 1.1 5.2 -0.5 5.4 -1.35 6.4 L-2.2 7.0" fill="#7a6658" fill-rule="evenodd" stroke="none"/>
      <path d="M-1.5 2.6 Q0.7 1.9 1.8 3.6 2.3 4.45 1.2 4.55 L-1.1 5.3 Q-2.45 6.15 -2.2 7.0 L-2.45 7.15 -2.7 6.4 Q-2.95 5.8 -2.45 4.55 -2.1 3.1 -1.5 2.6" fill="#c2b4ab" fill-rule="evenodd" stroke="none"/>
      <path d="M-2.2 7.0 L-1.35 6.4 Q-0.5 5.4 1.1 5.2 2.65 4.8 2.8 4.1 2.55 3.0 1.55 2.25 L-0.65 2.1 -1.5 2.6 Q-2.1 3.1 -2.45 4.55 -2.95 5.8 -2.7 6.4 L-2.45 7.15 -2.2 7.0 Z" fill="none" stroke="#003366" stroke-linecap="round" stroke-linejoin="round" stroke-opacity="0.2" stroke-width="0.25"/>
      <path d="M-2.6 6.1 L-3.0 5.6 -3.0 5.1 -2.6 5.0 Q-2.5 4.85 -2.4 4.85 L-1.9 5.35 -2.0 5.85 -2.25 6.1 -2.6 6.1" fill="#f5f1f1" fill-rule="evenodd" stroke="none"/>
    </g>
    <g id="sprite23" transform="matrix(1.0, 0.0, 0.0, 1.0, 3.05, 0.0)">
      <use height="7.75" transform="matrix(1.0, 0.0, 0.0, 1.0, -3.3, -0.25)" width="6.6" xlink:href="#shape19"/>
    </g>
    <g id="shape19" transform="matrix(1.0, 0.0, 0.0, 1.0, 3.3, 0.25)">
      <path d="M-1.7 0.8 L-1.1 0.4 0.6 0.8 2.05 2.25 Q2.9 3.1 2.8 3.85 L2.65 4.3 2.05 4.8 0.35 4.55 -1.5 3.1 Q-2.1 2.25 -1.85 1.5 -1.95 1.05 -1.7 0.8" fill="#4d4746" fill-rule="evenodd" stroke="none"/>
      <path d="M2.8 3.85 Q2.9 3.1 2.05 2.25 L0.6 0.8 -1.1 0.4 -1.7 0.8 Q0.6 -1.3 3.05 2.1 L2.8 3.85" fill="#f5f1f1" fill-rule="evenodd" stroke="none"/>
      <path d="M-1.5 2.6 L-0.65 2.1 1.55 2.25 Q2.55 3.0 2.8 4.1 2.65 4.8 1.1 5.2 -0.5 5.4 -1.35 6.4 L-2.2 7.0 Q-2.45 6.15 -1.1 5.3 L1.2 4.55 Q2.3 4.45 1.8 3.6 0.7 1.9 -1.5 2.6" fill="#7a6658" fill-rule="evenodd" stroke="none"/>
      <path d="M-1.5 2.6 Q0.7 1.9 1.8 3.6 2.3 4.45 1.2 4.55 L-1.1 5.3 Q-2.45 6.15 -2.2 7.0 L-2.45 7.15 -2.7 6.4 Q-2.95 5.8 -2.45 4.55 -2.1 3.1 -1.5 2.6" fill="#c2b4ab" fill-rule="evenodd" stroke="none"/>
      <path d="M-2.2 7.0 L-1.35 6.4 Q-0.5 5.4 1.1 5.2 2.65 4.8 2.8 4.1 2.55 3.0 1.55 2.25 L-0.65 2.1 -1.5 2.6 Q-2.1 3.1 -2.45 4.55 -2.95 5.8 -2.7 6.4 L-2.45 7.15 -2.2 7.0 Z" fill="none" stroke="#003366" stroke-linecap="round" stroke-linejoin="round" stroke-opacity="0.2" stroke-width="0.25"/>
      <path d="M-2.6 6.1 L-3.0 5.6 -3.0 5.1 -2.6 5.0 Q-2.5 4.85 -2.4 4.85 L-1.9 5.35 -2.0 5.85 -2.25 6.1 -2.6 6.1" fill="#f5f1f1" fill-rule="evenodd" stroke="none"/>
    </g>
    <g id="sprite24" transform="matrix(1.0, 0.0, 0.0, 1.0, 3.05, 0.0)">
      <use height="7.75" transform="matrix(1.0, 0.0, 0.0, 1.0, -3.3, -0.25)" width="6.6" xlink:href="#shape20"/>
    </g>
    <g id="shape20" transform="matrix(1.0, 0.0, 0.0, 1.0, 3.3, 0.25)">
      <path d="M-1.7 0.8 L-1.1 0.4 0.6 0.8 2.05 2.25 Q2.9 3.1 2.8 3.85 L2.65 4.3 2.05 4.8 0.35 4.55 -1.5 3.1 Q-2.1 2.25 -1.85 1.5 -1.95 1.05 -1.7 0.8" fill="#4d4746" fill-rule="evenodd" stroke="none"/>
      <path d="M2.8 3.85 Q2.9 3.1 2.05 2.25 L0.6 0.8 -1.1 0.4 -1.7 0.8 Q0.6 -1.3 3.05 2.1 L2.8 3.85" fill="#f5f1f1" fill-rule="evenodd" stroke="none"/>
      <path d="M-1.5 2.6 L-0.65 2.1 1.55 2.25 Q2.55 3.0 2.8 4.1 2.65 4.8 1.1 5.2 -0.5 5.4 -1.35 6.4 L-2.2 7.0 Q-2.45 6.15 -1.1 5.3 L1.2 4.55 Q2.3 4.45 1.8 3.6 0.7 1.9 -1.5 2.6" fill="#7a6658" fill-rule="evenodd" stroke="none"/>
      <path d="M-1.5 2.6 Q0.7 1.9 1.8 3.6 2.3 4.45 1.2 4.55 L-1.1 5.3 Q-2.45 6.15 -2.2 7.0 L-2.45 7.15 -2.7 6.4 Q-2.95 5.8 -2.45 4.55 -2.1 3.1 -1.5 2.6" fill="#c2b4ab" fill-rule="evenodd" stroke="none"/>
      <path d="M-2.2 7.0 L-1.35 6.4 Q-0.5 5.4 1.1 5.2 2.65 4.8 2.8 4.1 2.55 3.0 1.55 2.25 L-0.65 2.1 -1.5 2.6 Q-2.1 3.1 -2.45 4.55 -2.95 5.8 -2.7 6.4 L-2.45 7.15 -2.2 7.0 Z" fill="none" stroke="#003366" stroke-linecap="round" stroke-linejoin="round" stroke-opacity="0.2" stroke-width="0.25"/>
      <path d="M-2.6 6.1 L-3.0 5.6 -3.0 5.1 -2.6 5.0 Q-2.5 4.85 -2.4 4.85 L-1.9 5.35 -2.0 5.85 -2.25 6.1 -2.6 6.1" fill="#f5f1f1" fill-rule="evenodd" stroke="none"/>
    </g>
    <g id="sprite25" transform="matrix(1.0, 0.0, 0.0, 1.0, 3.05, 0.0)">
      <use height="7.75" transform="matrix(1.0, 0.0, 0.0, 1.0, -3.3, -0.25)" width="6.6" xlink:href="#shape21"/>
    </g>
    <g id="shape21" transform="matrix(1.0, 0.0, 0.0, 1.0, 3.3, 0.25)">
      <path d="M-1.7 0.8 L-1.1 0.4 0.6 0.8 2.05 2.25 Q2.9 3.1 2.8 3.85 L2.65 4.3 2.05 4.8 0.35 4.55 -1.5 3.1 Q-2.1 2.25 -1.85 1.5 -1.95 1.05 -1.7 0.8" fill="#4d4746" fill-rule="evenodd" stroke="none"/>
      <path d="M2.8 3.85 Q2.9 3.1 2.05 2.25 L0.6 0.8 -1.1 0.4 -1.7 0.8 Q0.6 -1.3 3.05 2.1 L2.8 3.85" fill="#f5f1f1" fill-rule="evenodd" stroke="none"/>
      <path d="M-2.2 7.0 Q-2.45 6.15 -1.1 5.3 L1.2 4.55 Q2.3 4.45 1.8 3.6 0.7 1.9 -1.5 2.6 L-0.65 2.1 1.55 2.25 Q2.55 3.0 2.8 4.1 2.65 4.8 1.1 5.2 -0.5 5.4 -1.35 6.4 L-2.2 7.0" fill="#7a6658" fill-rule="evenodd" stroke="none"/>
      <path d="M-1.5 2.6 Q0.7 1.9 1.8 3.6 2.3 4.45 1.2 4.55 L-1.1 5.3 Q-2.45 6.15 -2.2 7.0 L-2.45 7.15 -2.7 6.4 Q-2.95 5.8 -2.45 4.55 -2.1 3.1 -1.5 2.6" fill="#c2b4ab" fill-rule="evenodd" stroke="none"/>
      <path d="M-2.2 7.0 L-1.35 6.4 Q-0.5 5.4 1.1 5.2 2.65 4.8 2.8 4.1 2.55 3.0 1.55 2.25 L-0.65 2.1 -1.5 2.6 Q-2.1 3.1 -2.45 4.55 -2.95 5.8 -2.7 6.4 L-2.45 7.15 -2.2 7.0 Z" fill="none" stroke="#003366" stroke-linecap="round" stroke-linejoin="round" stroke-opacity="0.2" stroke-width="0.25"/>
      <path d="M-2.6 6.1 L-3.0 5.6 -3.0 5.1 -2.6 5.0 Q-2.5 4.85 -2.4 4.85 L-1.9 5.35 -2.0 5.85 -2.25 6.1 -2.6 6.1" fill="#f5f1f1" fill-rule="evenodd" stroke="none"/>
    </g>
    <g id="sprite26" transform="matrix(1.0, 0.0, 0.0, 1.0, 3.05, 0.0)">
      <use height="7.75" transform="matrix(1.0, 0.0, 0.0, 1.0, -3.3, -0.25)" width="6.6" xlink:href="#shape22"/>
    </g>
    <g id="shape22" transform="matrix(1.0, 0.0, 0.0, 1.0, 3.3, 0.25)">
      <path d="M-1.7 0.8 L-1.1 0.4 0.6 0.8 2.05 2.25 Q2.9 3.1 2.8 3.85 L2.65 4.3 2.05 4.8 0.35 4.55 -1.5 3.1 Q-2.1 2.25 -1.85 1.5 -1.95 1.05 -1.7 0.8" fill="#4d4746" fill-rule="evenodd" stroke="none"/>
      <path d="M2.8 3.85 Q2.9 3.1 2.05 2.25 L0.6 0.8 -1.1 0.4 -1.7 0.8 Q0.6 -1.3 3.05 2.1 L2.8 3.85" fill="#f5f1f1" fill-rule="evenodd" stroke="none"/>
      <path d="M-1.5 2.6 L-0.65 2.1 1.55 2.25 Q2.55 3.0 2.8 4.1 2.65 4.8 1.1 5.2 -0.5 5.4 -1.35 6.4 L-2.2 7.0 Q-2.45 6.15 -1.1 5.3 L1.2 4.55 Q2.3 4.45 1.8 3.6 0.7 1.9 -1.5 2.6" fill="#7a6658" fill-rule="evenodd" stroke="none"/>
      <path d="M-1.5 2.6 Q0.7 1.9 1.8 3.6 2.3 4.45 1.2 4.55 L-1.1 5.3 Q-2.45 6.15 -2.2 7.0 L-2.45 7.15 -2.7 6.4 Q-2.95 5.8 -2.45 4.55 -2.1 3.1 -1.5 2.6" fill="#c2b4ab" fill-rule="evenodd" stroke="none"/>
      <path d="M-2.2 7.0 L-1.35 6.4 Q-0.5 5.4 1.1 5.2 2.65 4.8 2.8 4.1 2.55 3.0 1.55 2.25 L-0.65 2.1 -1.5 2.6 Q-2.1 3.1 -2.45 4.55 -2.95 5.8 -2.7 6.4 L-2.45 7.15 -2.2 7.0 Z" fill="none" stroke="#003366" stroke-linecap="round" stroke-linejoin="round" stroke-opacity="0.2" stroke-width="0.25"/>
      <path d="M-2.6 6.1 L-3.0 5.6 -3.0 5.1 -2.6 5.0 Q-2.5 4.85 -2.4 4.85 L-1.9 5.35 -2.0 5.85 -2.25 6.1 -2.6 6.1" fill="#f5f1f1" fill-rule="evenodd" stroke="none"/>
    </g>
    <g id="shape23" transform="matrix(1.0, 0.0, 0.0, 1.0, -6.3, -55.15)">
      <path d="M36.35 60.35 L47.65 85.05 Q49.25 88.5 46.5 90.05 45.8 90.65 44.6 91.0 L26.1 97.0 Q23.45 97.8 21.8 96.65 20.65 95.9 19.95 94.25 L7.0 65.6 Q5.85 63.1 7.05 61.6 7.5 60.95 8.45 60.5 9.1 60.05 10.1 59.7 L23.8 55.3" fill="none" stroke="#ffcc00" stroke-linecap="round" stroke-linejoin="round" stroke-width="0.1"/>
      <path d="M36.35 60.35 L23.8 55.3" fill="none" stroke="#ffcc00" stroke-linecap="round" stroke-linejoin="round" stroke-width="0.05"/>
    </g>
    <g id="shape25" transform="matrix(1.0, 0.0, 0.0, 1.0, -14.7, -59.4)">
      <path d="M33.85 83.75 L33.85 83.8 33.85 83.95 33.85 84.0 33.85 84.1 33.9 84.1 33.9 84.15 34.35 84.4 34.85 84.75 34.35 84.45 34.1 84.3 34.05 84.25 33.95 84.2 33.9 84.2 33.9 84.7 33.9 85.25 33.85 84.75 33.75 84.2 33.7 84.1 33.5 84.25 33.0 84.55 32.7 84.7 32.95 84.5 33.4 84.3 33.45 84.25 33.5 84.2 33.7 84.1 33.65 84.05 33.7 84.05 33.7 84.0 33.3 83.6 32.95 83.25 33.3 83.55 33.55 83.8 33.7 83.95 33.8 83.4 33.9 82.95 33.85 83.35 33.85 83.75 M34.4 83.9 L34.35 83.9 34.25 84.0 34.15 84.0 33.9 84.05 34.15 83.95 34.7 83.75 35.2 83.65 34.85 83.75 34.95 83.85 34.85 83.75 34.7 83.8 34.4 83.9 M36.75 85.45 L36.9 85.55 36.9 85.5 37.1 83.9 37.35 82.3 37.45 81.75 37.4 82.25 37.4 83.85 37.2 85.6 37.35 86.0 37.4 86.1 38.7 86.9 40.15 87.75 40.55 88.05 40.1 87.8 38.75 87.05 37.75 86.45 37.4 86.25 37.35 86.2 37.4 86.3 37.5 87.75 37.55 89.45 37.6 90.0 37.5 89.5 37.25 87.9 37.05 86.25 37.0 86.3 36.9 85.9 36.7 85.75 36.9 85.85 36.9 85.65 35.7 84.55 34.95 83.85 35.65 84.4 36.45 85.15 36.5 85.2 36.75 85.45 M35.7 86.65 L36.1 86.45 36.2 86.4 36.85 86.1 36.3 86.45 34.8 87.25 33.35 88.0 32.8 88.25 33.3 88.0 34.65 87.2 35.7 86.65 M41.85 84.45 L41.35 84.6 39.85 85.15 38.15 85.7 37.5 85.9 Q37.45 85.85 38.1 85.65 L39.7 85.1 41.3 84.6 41.85 84.45" fill="#fefd8d" fill-opacity="0.972549" fill-rule="evenodd" stroke="none"/>
      <path d="M33.85 83.75 L34.05 83.4 34.25 83.2 34.15 83.4 34.0 83.8 33.9 83.9 33.85 83.8 33.85 83.75 M34.1 84.3 L34.35 84.5 34.45 84.65 34.25 84.5 34.0 84.3 33.95 84.2 34.05 84.25 34.1 84.3 M33.4 84.3 L33.3 84.3 32.95 84.45 32.7 84.55 32.95 84.4 33.35 84.25 33.45 84.25 33.4 84.3 M33.55 83.8 L33.4 83.6 33.6 83.8 33.65 83.9 33.55 83.8 M34.4 83.9 L34.65 83.85 34.95 83.85 35.05 83.8 34.95 83.85 34.7 83.9 34.3 84.0 34.2 84.0 34.25 84.0 34.35 83.9 34.4 83.9 M33.6 84.3 L33.7 84.2 33.75 84.35 33.65 84.7 33.55 85.05 33.55 84.75 33.6 84.3 M37.65 85.15 L37.35 85.5 37.35 85.0 37.9 84.05 38.5 83.1 38.7 82.75 38.55 83.1 38.15 84.05 37.65 85.15 M36.75 85.45 L36.5 85.2 36.45 85.15 35.85 84.4 35.45 83.85 35.95 84.3 36.65 85.15 36.9 85.5 36.75 85.45 M37.4 86.3 L37.35 86.2 37.4 86.25 37.75 86.45 Q38.15 86.7 38.6 87.1 L39.3 87.75 38.5 87.15 37.6 86.5 37.4 86.3 M35.7 86.65 L34.7 87.0 33.8 87.3 34.7 86.95 35.75 86.5 36.1 86.45 35.7 86.65 M38.7 85.65 L38.25 85.7 38.7 85.55 39.75 85.35 40.7 85.2 41.05 85.15 40.75 85.25 39.8 85.45 38.7 85.65 M36.7 86.7 L36.95 86.25 37.0 86.75 36.65 87.8 36.3 88.85 36.15 89.25 36.25 88.85 36.4 87.85 Q36.5 87.1 36.7 86.7" fill="#fffd8f" fill-opacity="0.4" fill-rule="evenodd" stroke="none"/>
      <path d="M38.0 86.75 Q37.9 86.0 37.45 85.8 L36.9 85.85 Q36.75 86.1 36.9 86.5 37.1 87.0 37.65 87.3 L38.35 87.95 38.6 88.25 38.45 87.85 38.0 86.75" fill="#fffd8f" fill-opacity="0.39215687" fill-rule="evenodd" stroke="none"/>
      <path d="M38.0 86.25 L37.05 85.85 Q36.8 85.8 36.95 85.95 L37.55 86.35 38.35 86.6 Q38.8 86.65 39.05 86.85 L39.35 86.95 39.0 86.75 38.0 86.25" fill="#fffd8f" fill-opacity="0.39215687" fill-rule="evenodd" stroke="none"/>
      <path d="M36.4 84.8 Q36.35 85.55 36.75 85.85 L37.3 85.9 37.45 85.25 Q37.35 84.75 36.9 84.35 36.35 83.9 36.3 83.55 L36.1 83.25 36.2 83.65 36.4 84.8" fill="#fffd8f" fill-opacity="0.39215687" fill-rule="evenodd" stroke="none"/>
      <path d="M36.25 85.35 L37.1 85.95 37.2 85.8 36.75 85.3 35.95 84.9 Q35.55 84.75 35.3 84.6 L35.05 84.45 35.35 84.65 36.25 85.35" fill="#fffd8f" fill-opacity="0.39215687" fill-rule="evenodd" stroke="none"/>
      <path d="M38.75 85.2 Q38.0 85.45 37.85 85.65 37.7 85.85 37.85 85.8 L38.5 85.65 39.25 85.2 39.9 84.75 40.15 84.6 39.75 84.75 38.75 85.2" fill="#fffd8f" fill-opacity="0.39215687" fill-rule="evenodd" stroke="none"/>
      <path d="M35.75 87.0 L36.6 86.4 36.5 86.25 Q36.25 86.25 35.9 86.5 L35.25 87.1 34.7 87.65 Q34.4 87.8 34.45 87.85 L34.8 87.6 35.75 87.0" fill="#fffd8f" fill-opacity="0.39215687" fill-rule="evenodd" stroke="none"/>
      <path d="M34.1 84.35 L33.95 84.05 33.75 84.05 Q33.65 84.1 33.7 84.25 L34.0 84.55 34.2 84.75 34.3 84.85 34.2 84.75 34.1 84.35" fill="#fffd8f" fill-opacity="0.39215687" fill-rule="evenodd" stroke="none"/>
      <path d="M34.1 84.2 Q33.9 84.05 33.75 84.05 L33.75 84.1 33.95 84.2 34.2 84.3 34.5 84.4 34.55 84.4 34.45 84.4 34.1 84.2" fill="#fffd8f" fill-opacity="0.39215687" fill-rule="evenodd" stroke="none"/>
      <path d="M33.5 83.65 L33.65 84.05 33.85 84.05 33.9 83.85 33.65 83.55 33.5 83.25 33.45 83.15 33.5 83.25 33.5 83.65" fill="#fffd8f" fill-opacity="0.39215687" fill-rule="evenodd" stroke="none"/>
      <path d="M33.5 83.9 L33.75 84.05 33.8 84.0 33.65 83.85 33.35 83.7 33.2 83.6 33.05 83.55 33.15 83.6 33.5 83.9" fill="#fffd8f" fill-opacity="0.39215687" fill-rule="evenodd" stroke="none"/>
      <path d="M34.3 83.8 L34.05 83.95 34.05 84.0 34.25 83.95 34.55 83.8 Q34.6 83.7 34.7 83.7 L34.8 83.6 34.7 83.65 34.3 83.8" fill="#fffd8f" fill-opacity="0.39215687" fill-rule="evenodd" stroke="none"/>
      <path d="M33.3 84.45 L33.6 84.2 33.6 84.15 Q33.5 84.15 33.4 84.3 L33.15 84.45 32.95 84.65 32.85 84.75 33.0 84.6 33.3 84.45" fill="#fffd8f" fill-opacity="0.39215687" fill-rule="evenodd" stroke="none"/>
      <path d="M36.3 85.35 Q36.05 85.7 36.05 86.15 L36.5 86.9 37.3 87.15 38.05 86.75 38.25 85.9 37.85 85.2 37.05 84.95 36.3 85.35" fill="#ffffff" fill-rule="evenodd" stroke="none"/>
      <path d="M18.75 62.3 L18.65 62.35 18.2 62.45 18.6 62.25 19.85 61.9 21.0 61.5 21.4 61.35 21.05 61.5 19.9 61.9 18.75 62.3 M17.45 61.95 L17.7 62.2 17.75 62.2 17.7 62.15 17.85 61.05 18.05 59.85 18.15 59.4 18.1 59.8 18.05 61.0 18.0 62.25 18.1 62.6 19.15 63.2 20.0 63.75 19.15 63.3 18.5 62.95 18.4 62.85 18.15 62.7 18.1 62.7 18.15 62.75 18.2 63.85 18.2 64.9 18.0 64.0 17.85 62.8 17.8 62.8 17.75 62.45 17.6 62.3 17.7 62.35 17.7 62.3 16.85 61.5 15.9 60.65 15.65 60.35 15.95 60.65 16.8 61.4 17.45 61.95 M14.7 64.25 L15.05 64.05 16.1 63.45 17.25 62.85 17.7 62.65 17.3 62.95 16.2 63.45 15.1 64.05 14.7 64.25" fill="#fefd8d" fill-opacity="0.972549" fill-rule="evenodd" stroke="none"/>
      <path d="M18.75 62.3 L19.1 62.2 19.85 62.05 20.6 61.95 19.85 62.15 19.05 62.3 18.75 62.3 M17.45 61.95 L16.95 61.35 16.5 60.75 17.0 61.3 17.55 61.95 17.7 62.15 17.75 62.2 17.7 62.2 17.45 61.95 M18.5 62.95 L19.0 63.35 19.6 63.8 19.8 64.0 19.6 63.85 18.95 63.4 18.3 62.9 18.15 62.75 18.1 62.7 18.15 62.7 18.4 62.85 18.5 62.95 M18.3 61.9 L18.05 62.2 18.1 61.85 18.45 61.15 18.9 60.4 19.1 60.2 18.95 60.4 18.65 61.15 18.3 61.9 M16.9 62.9 L17.2 62.85 Q17.15 62.9 16.85 63.05 L16.15 63.3 15.45 63.55 15.2 63.6 15.45 63.5 16.1 63.25 Q16.6 63.0 16.9 62.9 M17.55 63.1 L17.75 62.75 17.8 63.1 17.6 63.95 17.25 64.7 17.15 64.95 17.2 64.7 17.4 63.9 Q17.4 63.4 17.55 63.1" fill="#fffd8f" fill-opacity="0.4" fill-rule="evenodd" stroke="none"/>
      <path d="M18.6 63.1 L18.15 62.4 17.7 62.45 17.75 62.95 18.3 63.55 Q18.75 63.8 18.8 64.0 L19.0 64.25 18.85 63.95 18.6 63.1" fill="#fffd8f" fill-opacity="0.39215687" fill-rule="evenodd" stroke="none"/>
      <path d="M18.55 62.7 Q18.05 62.4 17.9 62.4 17.7 62.4 17.8 62.5 L18.25 62.8 18.85 63.0 19.35 63.15 19.6 63.2 19.35 63.1 18.55 62.7" fill="#fffd8f" fill-opacity="0.39215687" fill-rule="evenodd" stroke="none"/>
      <path d="M17.3 61.7 Q17.35 62.3 17.55 62.45 L18.0 62.5 18.1 62.0 17.65 61.35 17.25 60.75 17.15 60.5 17.2 60.8 17.3 61.7" fill="#fffd8f" fill-opacity="0.39215687" fill-rule="evenodd" stroke="none"/>
      <path d="M17.25 62.1 L17.9 62.5 17.95 62.45 17.6 62.05 17.05 61.75 16.55 61.5 16.35 61.4 16.55 61.6 Q16.8 61.7 17.25 62.1" fill="#fffd8f" fill-opacity="0.39215687" fill-rule="evenodd" stroke="none"/>
      <path d="M19.05 61.9 L18.4 62.3 18.45 62.4 18.9 62.3 19.5 61.95 19.95 61.6 20.15 61.5 19.85 61.6 19.05 61.9" fill="#fffd8f" fill-opacity="0.39215687" fill-rule="evenodd" stroke="none"/>
      <path d="M16.9 63.3 L17.5 62.85 17.45 62.7 17.05 62.9 16.5 63.35 16.15 63.75 15.95 63.95 16.2 63.75 16.9 63.3" fill="#fffd8f" fill-opacity="0.39215687" fill-rule="evenodd" stroke="none"/>
      <path d="M17.4 62.1 Q17.15 62.35 17.2 62.65 L17.55 63.25 18.1 63.4 18.7 63.1 18.85 62.5 18.55 61.95 17.9 61.75 17.4 62.1" fill="#ffffff" fill-rule="evenodd" stroke="none"/>
      <path d="M33.55 83.9 L33.45 84.15 33.6 84.45 33.85 84.5 34.15 84.4 34.2 84.05 34.1 83.85 33.75 83.75 33.55 83.9" fill="#ffffff" fill-rule="evenodd" stroke="none"/>
    </g>
  </defs>
</svg>
