<?xml version='1.0' encoding='UTF-8'?>
<svg xmlns:xlink="http://www.w3.org/1999/xlink" xmlns="http://www.w3.org/2000/svg" version="1.1" width="60px" height="60px" viewBox="0.0 0.0 60.0 60.0"><defs><g id="c1"><path fill="#000000" fill-opacity="0.00392156862745" d="M0.0 0.0 L60.0 0.0 60.0 60.0 0.0 60.0 0.0 0.0"/></g><g id="c2"><path fill="none" stroke="#000000" stroke-width="1.0" stroke-opacity="0.301960784314" d="M0.7 12.25 Q-0.45 9.75 0.75 8.25 1.2 7.6 2.15 7.15 2.8 6.7 3.8 6.35 L17.5 1.95 30.2 7.0 41.35 31.7 Q42.95 35.15 40.2 36.7 39.5 37.3 38.3 37.65 L25.5 41.8 25.45 41.75 24.55 42.0 11.85 37.0 0.7 12.25"/><path fill="#9d147b" stroke="none" d="M35.55 22.3 L31.5 13.2 29.75 9.2 16.95 4.25 5.5 7.85 Q1.65 9.1 3.35 12.8 L8.25 23.65 13.1 34.35 25.8 39.4 37.2 35.7 Q41.1 34.5 39.35 30.75 L35.55 22.3 M5.45 20.95 L1.35 11.8 Q0.4 9.65 1.1 8.3 1.45 7.65 2.15 7.15 2.8 6.7 3.8 6.35 L17.5 1.95 30.2 7.0 41.35 31.7 Q42.95 35.15 40.2 36.7 L38.9 37.25 25.2 41.65 12.5 36.65 5.45 20.95"/><path fill="#c47fad" stroke="none" d="M31.5 13.2 L35.55 22.3 39.35 30.75 Q41.1 34.5 37.2 35.7 L25.8 39.4 13.1 34.35 8.25 23.65 3.35 12.8 Q1.65 9.1 5.5 7.85 L16.95 4.25 29.75 9.2 31.5 13.2 M18.5 7.45 L9.1 10.55 9.55 11.6 Q9.8 12.8 9.15 13.6 8.4 14.45 7.1 14.4 L6.8 14.4 6.95 14.6 15.2 32.75 23.85 36.2 34.0 32.9 33.7 32.1 Q33.45 30.9 34.1 30.1 34.75 29.3 35.95 29.35 L35.8 29.0 27.75 10.95 18.5 7.45"/><path fill="#fcf2cf" stroke="none" d="M27.75 10.95 L35.8 29.0 35.95 29.35 Q34.75 29.3 34.1 30.1 33.45 30.9 33.7 32.1 L34.0 32.9 23.85 36.2 15.2 32.75 6.95 14.6 6.8 14.4 7.1 14.4 Q8.4 14.45 9.15 13.6 9.8 12.8 9.55 11.6 L9.1 10.55 18.5 7.45 27.75 10.95"/><path fill="#630a4c" stroke="none" d="M1.1 8.3 L0.75 8.25 Q1.2 7.6 2.15 7.15 1.45 7.65 1.1 8.3 M4.6 20.9 L5.45 20.95 12.5 36.65 11.55 36.25 11.25 35.55 4.6 20.9"/><path fill="#300525" stroke="none" d="M1.1 8.3 Q0.4 9.65 1.35 11.8 L5.45 20.95 4.6 20.9 0.7 12.25 Q-0.45 9.75 0.75 8.25 L1.1 8.3 M12.5 36.65 L25.2 41.65 38.9 37.25 40.2 36.7 Q39.5 37.3 38.3 37.65 L25.5 41.8 25.45 41.75 24.55 42.0 11.85 37.0 11.55 36.25 12.5 36.65"/><path fill="none" stroke="#bf9900" stroke-width="1.0" stroke-opacity="0.749019607843" d="M31.5 13.2 L35.55 22.3 M13.1 34.35 L8.25 23.65"/><path fill="none" stroke="#ffcc00" stroke-width="1.0" stroke-opacity="0.749019607843" d="M35.55 22.3 L39.35 30.75 Q41.1 34.5 37.2 35.7 L25.8 39.4 M8.25 23.65 L3.35 12.8 Q1.65 9.1 5.5 7.85 L16.95 4.25 29.75 9.2 31.5 13.2"/><path fill="none" stroke="#f0b92b" stroke-width="0.5" d="M27.75 10.95 L35.8 29.0 35.95 29.35 Q34.75 29.3 34.1 30.1 33.45 30.9 33.7 32.1 L34.0 32.9 23.85 36.2 15.2 32.75 6.95 14.6 6.8 14.4 7.1 14.4 Q8.4 14.45 9.15 13.6 9.8 12.8 9.55 11.6 L9.1 10.55 18.5 7.45"/><path fill="none" stroke="#000000" stroke-width="0.5" stroke-opacity="0.301960784314" d="M5.45 20.95 L1.35 11.8 Q0.4 9.65 1.1 8.3 M0.75 8.25 Q-0.45 9.75 0.7 12.25 L4.6 20.9 M5.45 20.95 L12.5 36.65 M25.2 41.65 L38.9 37.25 40.2 36.7 Q42.95 35.15 41.35 31.7 L30.2 7.0 M17.5 1.95 L3.8 6.35 Q2.8 6.7 2.15 7.15 1.45 7.65 1.1 8.3 M0.75 8.25 Q1.2 7.6 2.15 7.15 M11.25 35.55 L4.6 20.9 M25.5 41.8 L38.3 37.65 Q39.5 37.3 40.2 36.7"/><path fill="none" stroke="#ffcc00" stroke-width="0.5" stroke-opacity="0.749019607843" d="M18.5 7.45 L27.75 10.95"/><path fill="none" stroke="#f0b92b" stroke-width="1.0" stroke-opacity="0.749019607843" d="M25.8 39.4 L13.1 34.35"/><path fill="none" stroke="#432f2f" stroke-width="0.5" d="M12.5 36.65 L25.2 41.65"/></g><g id="c3"><path fill="#7fdbfe" stroke="none" d="M10.75 4.9 Q10.75 4.6 10.9 4.35 11.25 3.45 11.95 2.75 13.3 1.5 14.35 2.1 15.4 2.7 14.95 4.45 14.7 5.4 14.1 6.15 L13.75 6.5 Q13.1 7.15 12.35 7.35 L11.4 7.2 Q10.95 6.9 10.75 6.4 10.5 5.75 10.75 4.9 M7.5 5.9 Q7.0 5.85 6.6 5.5 6.05 5.0 5.8 4.15 L5.7 3.6 Q5.55 2.65 5.8 1.7 6.25 0.0 7.5 0.0 L7.6 0.0 Q8.85 0.0 9.3 1.7 9.55 2.65 9.4 3.6 L9.3 4.15 8.5 5.5 7.6 5.9 7.5 5.9 M4.35 4.9 Q4.6 5.75 4.35 6.4 L3.7 7.2 2.75 7.35 Q2.0 7.15 1.35 6.5 L1.0 6.15 Q0.4 5.4 0.15 4.45 -0.3 2.7 0.75 2.1 1.8 1.5 3.15 2.75 3.85 3.45 4.2 4.35 L4.35 4.9 M5.5 13.7 Q4.45 13.9 3.65 12.95 2.75 12.0 3.2 10.25 3.7 8.5 5.25 7.6 6.4 6.9 7.55 7.0 8.75 6.9 9.9 7.6 11.45 8.5 11.95 10.25 12.35 12.0 11.5 12.95 10.7 13.9 9.65 13.7 8.55 13.5 7.55 12.6 6.55 13.5 5.5 13.7"/></g><g id="c4"><g><use transform="matrix(1.0,0.0,0.0,1.0,0.0,0.0)" xlink:href="#c3"/></g></g><radialGradient gradientUnits="userSpaceOnUse" r="819.2" cx="0" cy="0" spreadMethod="pad" gradientTransform="matrix(0.0914459228516,0.0,0.0,0.0914459228516,0.6,3.4)" id="gradient1"><stop offset="0.0" stop-color="#ffffff"/><stop offset="1.0" stop-color="#ffffff" stop-opacity="0.0"/></radialGradient><g id="c5"><path stroke="none" fill="url(#gradient1)" d="M36.65 -54.65 Q60.05 -42.0 69.75 -17.95 80.55 8.9 68.0 34.1 55.45 59.35 26.8 68.2 -1.8 77.05 -29.7 64.3 -57.6 51.6 -68.45 24.75 -79.3 -2.05 -66.75 -27.25 L-66.7 -27.3 Q-54.1 -52.5 -25.5 -61.4 3.1 -70.2 31.0 -57.5 L36.65 -54.65"/></g><g id="c6"><g><use transform="matrix(1.0,0.0,0.0,1.0,0.0,0.0)" xlink:href="#c5"/></g></g><radialGradient gradientUnits="userSpaceOnUse" r="819.2" cx="0" cy="0" spreadMethod="pad" gradientTransform="matrix(0.209197998047,0.0,0.0,0.177108764648,67.15,107.2)" id="gradient2"><stop offset="0.356862745098" stop-color="#ffffff"/><stop offset="0.670588235294" stop-opacity="0.0"/></radialGradient><g id="c7"><path fill="none" stroke-linejoin="round" stroke-linecap="round" stroke="url(#gradient2)" stroke-width="0.5" d="M136.55 165.8 L68.6 106.0 68.4 106.0 118.25 201.5 M68.3 105.8 L68.35 105.8 68.3 105.8 68.3 105.85 68.4 106.0 68.3 106.0 86.55 211.5 M68.3 105.8 L68.3 105.85 68.3 106.0 68.15 105.95 18.25 151.55 M68.3 105.85 L68.25 105.85 68.3 106.0 50.0 193.2 M68.25 105.85 L68.15 105.95 0.05 97.7 M68.3 105.85 L68.25 105.8 68.25 105.85 M68.25 105.8 L68.2 105.7 0.0 45.7 M68.3 105.8 L68.25 105.75 68.25 105.8 M68.25 105.75 L68.2 105.7 18.25 10.05 M68.6 106.0 L68.35 105.8 118.25 60.15 M86.6 18.35 L68.3 105.8 M136.6 114.25 L68.6 106.0 M68.25 105.75 L49.95 0.05"/></g><g id="c8"><g><use transform="matrix(1.0,0.0,0.0,1.0,0.0,0.0)" xlink:href="#c7"/></g></g><g id="c9"><g><use transform="matrix(1.0,0.0,0.0,1.0,0.0,0.0)" xlink:href="#c2"/></g><g><use transform="matrix(0.238861083984,-0.0867004394531,0.10026550293,0.233917236328,34.25,31.15)" xlink:href="#c4"/></g><g><use transform="matrix(0.238861083984,-0.0867004394531,0.10026550293,0.233917236328,4.25,10.3)" xlink:href="#c4"/></g><g><use transform="matrix(0.141098022461,-0.0378112792969,0.111373901367,0.225646972656,20.25,20.65)" filter="url(#filter7)" xlink:href="#c6"/></g><g><use transform="matrix(-0.155029296875,0.0513153076172,0.0841827392578,0.147033691406,22.6,3.15)" filter="url(#filter8)" xlink:href="#c8"/></g></g><filter id="filter7"><feColorMatrix in="SourceGraphic" type="matrix" values="0.0 0.0 0.0 0.0 0.796875 0.0 0.0 0.0 0.0 0.59765625 0.0 0.0 0.0 0.0 0.19921875 0.0 0.0 0.0 1.0 0.0" result="cxform"/><feComposite operator="in" in2="SourceGraphic" result="color-xform"/></filter><filter id="filter8"><feColorMatrix in="SourceGraphic" type="matrix" values="0.0 0.0 0.0 0.0 0.99609375 0.0 0.0 0.0 0.0 0.99609375 0.0 0.0 0.0 0.0 0.99609375 0.0 0.0 0.0 1.0 0.0" result="cxform"/><feComposite operator="in" in2="SourceGraphic" result="color-xform"/></filter><g id="c10"><path fill="#bfbf40" stroke="none" d="M38.55 31.75 L38.15 31.75 37.7 32.15 Q37.9 32.45 37.45 33.1 L38.25 32.7 Q38.2 32.2 38.4 31.85 L38.55 31.75 M28.15 31.05 L27.3 31.3 28.05 33.25 27.4 32.4 27.3 34.1 27.6 34.9 28.25 33.65 28.15 33.55 28.15 31.05 M27.85 35.9 L27.55 36.75 28.8 35.6 28.55 35.45 28.05 35.4 27.85 35.9 M28.5 39.2 L28.55 39.25 29.65 38.4 30.3 37.4 29.65 37.2 29.9 37.6 29.45 38.3 28.5 39.2 M38.3 36.75 L40.4 36.0 40.9 35.25 40.9 35.05 40.35 35.8 38.3 36.75 M41.1 34.95 L41.25 34.3 40.6 34.95 41.1 34.95 M38.7 35.25 Q38.75 34.45 39.05 33.85 L39.35 33.35 38.55 32.85 38.05 33.05 37.95 33.45 37.45 34.7 37.3 35.0 37.3 35.4 37.1 35.65 38.7 35.25 M34.6 33.0 L34.45 33.3 35.45 33.9 35.55 33.65 34.6 33.0 M31.1 32.4 L31.3 32.0 30.75 31.45 30.45 31.75 31.1 32.4 M33.65 32.5 L34.35 29.5 33.3 32.4 33.65 32.5 M32.15 33.05 L31.15 32.9 30.25 32.05 29.7 33.7 29.3 34.7 29.6 34.95 29.3 34.7 28.8 34.15 28.5 35.25 29.6 34.95 29.75 34.9 30.3 34.95 30.55 33.95 Q30.75 33.35 31.1 33.05 L32.15 33.05 M28.2 37.6 L28.7 37.5 29.35 37.0 29.6 36.0 29.25 35.85 28.2 37.6 M28.15 33.55 L28.05 33.25 28.15 33.55"/><path fill="#f9f8ec" stroke="none" d="M39.15 31.75 L38.55 31.75 38.4 31.85 Q38.2 32.2 38.25 32.7 L38.45 32.6 39.15 31.75 M37.7 32.15 L37.55 32.35 36.85 30.9 36.5 31.3 36.45 31.4 36.3 31.85 36.1 32.75 36.55 31.65 36.7 31.45 36.85 31.4 37.45 32.5 37.55 32.35 37.45 32.5 36.2 33.75 36.6 33.55 Q37.0 33.35 37.45 33.1 37.9 32.45 37.7 32.15 M35.95 30.3 L34.8 29.5 34.4 29.5 34.35 29.5 33.65 32.5 33.3 32.45 31.6 32.25 31.3 32.0 31.1 32.4 31.3 32.6 34.0 33.0 34.45 33.3 34.6 33.0 34.15 32.75 34.75 29.8 34.8 29.5 34.75 29.8 35.55 30.3 35.8 31.25 35.7 31.85 35.6 32.35 35.6 32.3 35.8 31.8 35.95 31.3 35.95 30.6 35.95 30.3 M29.7 30.5 L29.4 30.7 30.45 31.75 30.75 31.45 29.7 30.5 M28.45 30.95 L28.15 31.05 28.15 33.55 28.25 33.65 28.8 34.15 29.3 34.7 28.3 33.4 28.45 30.95 M28.55 39.25 L31.3 39.0 29.75 39.05 29.05 39.1 30.0 38.4 33.2 36.95 34.7 36.5 Q35.5 36.2 36.4 35.95 L38.05 35.65 40.05 35.05 40.9 35.05 40.9 35.25 41.1 34.95 40.6 34.95 39.95 34.95 38.7 35.25 37.1 35.65 36.5 35.75 35.5 36.05 33.3 36.7 33.75 35.35 33.0 36.55 32.9 36.65 30.8 37.3 33.15 36.75 29.65 38.4 28.55 39.25 M41.25 34.0 L39.95 32.1 39.3 31.8 38.85 32.55 40.25 33.5 41.25 34.0 M34.35 33.6 L33.9 33.3 33.35 33.2 33.9 33.6 33.9 34.9 34.35 33.6 M30.25 32.05 L29.45 31.25 30.0 32.1 29.7 33.7 30.25 32.05 M35.55 33.65 L35.45 33.9 36.7 34.65 37.05 35.4 37.15 35.4 37.15 34.65 35.55 33.65 M30.85 35.0 L30.3 34.95 29.75 34.9 29.6 34.95 28.5 35.25 28.05 35.4 28.55 35.45 28.8 35.6 29.25 35.85 29.6 36.0 29.35 37.0 28.7 37.5 28.2 37.6 27.65 37.65 28.75 37.65 29.55 37.2 29.75 36.6 30.35 35.85 32.75 35.2 30.0 35.7 29.5 35.65 29.45 35.6 Q29.3 35.45 29.9 35.25 L30.1 35.2 30.85 35.0"/><path fill="#ffffe6" stroke="none" d="M36.85 30.9 L35.95 30.3 35.95 30.6 35.95 31.3 35.8 31.8 35.6 32.3 35.6 32.35 35.55 32.4 35.5 32.55 35.1 33.1 34.35 32.55 34.75 29.8 34.15 32.75 34.6 33.0 35.55 33.65 37.15 34.65 37.15 35.4 37.3 35.4 37.3 35.0 37.3 34.55 36.05 33.7 36.1 32.85 36.1 32.75 36.3 31.85 36.45 31.4 36.5 31.3 36.85 30.9 M30.0 30.3 L29.7 30.5 30.75 31.45 31.3 32.0 31.6 32.25 33.3 32.45 33.3 32.4 32.55 32.25 31.6 32.0 30.95 31.35 30.0 30.3 M41.25 34.3 L41.25 34.0 40.25 33.5 38.85 32.55 39.3 31.8 39.15 31.75 38.45 32.6 38.25 32.7 37.45 33.1 Q37.0 33.35 36.6 33.55 L38.05 33.05 38.55 32.85 39.35 33.35 40.9 34.2 40.6 34.95 41.25 34.3 M35.1 33.1 L36.05 33.7 35.1 33.1 M34.35 33.6 L33.9 34.9 33.75 35.35 33.3 36.7 35.5 36.05 Q35.2 35.25 35.55 34.4 L34.35 33.6 M37.05 35.4 L36.7 34.65 36.7 35.45 37.05 35.4 M30.85 35.0 L30.1 35.2 29.9 35.25 Q29.3 35.45 29.45 35.6 L29.5 35.65 30.0 35.7 32.75 35.2 32.75 35.15 30.85 35.0"/><path fill="#d5d580" stroke="none" d="M29.0 30.8 L28.45 30.95 28.3 33.4 29.3 34.7 29.7 33.7 30.0 32.1 29.45 31.25 29.0 30.8 M40.6 34.95 L40.9 34.2 39.35 33.35 39.05 33.85 Q38.75 34.45 38.7 35.25 L39.95 34.95 40.6 34.95 M38.05 33.05 L36.6 33.55 36.2 33.75 37.45 32.5 36.85 31.4 36.7 31.45 36.55 31.65 36.1 32.75 36.1 32.85 36.05 33.7 37.3 34.55 37.3 35.0 37.45 34.7 37.95 33.45 38.05 33.05 M35.6 32.35 L35.7 31.85 35.8 31.25 35.55 30.3 34.75 29.8 34.35 32.55 35.1 33.1 35.5 32.55 35.55 32.4 35.6 32.35 M33.35 33.2 L33.3 33.2 32.15 33.05 31.1 33.05 Q30.75 33.35 30.55 33.95 L30.3 34.95 30.85 35.0 32.75 35.15 32.8 35.15 32.9 35.15 32.8 35.2 32.75 35.2 30.35 35.85 29.75 36.6 29.55 37.2 29.65 37.2 30.3 37.4 30.8 37.3 32.9 36.65 33.0 36.55 33.75 35.35 33.9 34.9 33.9 33.6 33.35 33.2 M36.5 35.75 L36.5 35.0 35.55 34.4 Q35.2 35.25 35.5 36.05 L36.5 35.75"/><path fill="#5c2501" stroke="none" d="M34.35 29.5 L34.05 29.55 34.0 29.55 30.6 29.9 30.0 30.3 30.95 31.35 32.1 31.45 32.35 31.35 32.5 31.3 32.6 31.25 33.8 29.8 33.1 31.9 33.05 32.15 32.55 32.25 33.3 32.4 34.35 29.5"/><path fill="#92f458" stroke="none" d="M35.6 32.35 L35.55 32.4 35.6 32.35 M36.1 32.75 L36.1 32.85 36.1 32.75 M32.8 35.2 L32.9 35.15 32.8 35.15 32.8 35.2"/><path fill="#a6a637" stroke="none" d="M29.4 30.7 L29.0 30.8 29.45 31.25 30.25 32.05 31.15 32.9 32.15 33.05 33.3 33.2 33.35 33.2 33.9 33.3 34.35 33.6 35.55 34.4 36.5 35.0 36.5 35.75 36.7 35.45 36.7 34.65 35.45 33.9 34.45 33.3 34.0 33.0 31.3 32.6 31.1 32.4 30.45 31.75 29.4 30.7 M27.3 31.3 L27.05 34.25 27.85 35.9 28.05 35.4 28.5 35.25 28.8 34.15 28.25 33.65 27.6 34.9 27.3 34.1 27.4 32.4 28.05 33.25 27.3 31.3 M27.55 36.75 L27.2 37.65 27.7 38.7 28.5 39.2 29.45 38.3 29.9 37.6 29.65 37.2 29.55 37.2 28.75 37.65 28.55 37.8 27.65 38.35 27.2 37.65 27.65 37.65 28.2 37.6 29.25 35.85 28.8 35.6 27.55 36.75 M31.3 39.0 L32.55 38.9 36.4 37.45 36.8 36.85 36.9 36.75 37.55 36.05 38.05 35.65 36.4 35.95 Q35.5 36.2 34.7 36.5 L34.4 37.15 32.55 38.65 29.75 39.05 31.3 39.0 M30.8 37.3 L30.3 37.4 29.65 38.4 33.15 36.75 30.8 37.3"/><path fill="#7e3301" stroke="none" d="M32.55 32.25 L33.05 32.15 33.1 31.9 33.4 30.65 Q32.75 31.5 32.1 31.45 L30.95 31.35 31.6 32.0 32.55 32.25"/><path fill="#ca5202" stroke="none" d="M33.1 31.9 L33.8 29.8 32.6 31.25 32.5 31.3 32.35 31.35 32.1 31.45 Q32.75 31.5 33.4 30.65 L33.1 31.9"/><path fill="#d1fba6" stroke="none" d="M33.3 32.45 L33.65 32.5 33.3 32.4 33.3 32.45 M32.75 35.15 L32.75 35.2 32.8 35.2 32.8 35.15 32.75 35.15"/><path fill="#666622" stroke="none" d="M36.4 37.45 L38.2 36.8 38.3 36.75 40.35 35.8 40.9 35.05 40.05 35.05 38.05 35.65 37.55 36.05 36.9 36.75 36.8 36.85 36.4 37.45 M37.15 35.4 L37.05 35.4 36.7 35.45 36.5 35.75 37.1 35.65 37.3 35.4 37.15 35.4 M28.75 37.65 L27.65 37.65 27.2 37.65 27.65 38.35 28.55 37.8 28.75 37.65 M34.7 36.5 L33.2 36.95 30.0 38.4 29.05 39.1 29.75 39.05 32.55 38.65 34.4 37.15 34.7 36.5"/><path fill="none" stroke="#000000" stroke-width="0.5" stroke-opacity="0.301960784314" d="M39.15 31.75 L38.55 31.75 38.15 31.75 37.7 32.15 37.55 32.35 36.85 30.9 35.95 30.3 34.8 29.5 34.4 29.5 34.35 29.5 34.05 29.55 M34.0 29.55 L30.6 29.9 30.0 30.3 29.7 30.5 29.4 30.7 29.0 30.8 28.45 30.95 28.15 31.05 27.3 31.3 27.05 34.25 27.85 35.9 27.55 36.75 27.2 37.65 27.7 38.7 28.5 39.2 28.55 39.25 31.3 39.0 32.55 38.9 36.4 37.45 38.2 36.8 M38.3 36.75 L40.4 36.0 40.9 35.25 41.1 34.95 41.25 34.3 41.25 34.0 39.95 32.1 39.3 31.8 39.15 31.75 M36.6 33.55 Q37.0 33.35 37.45 33.1 L38.25 32.7 M34.75 29.8 L34.8 29.5 M34.45 33.3 L34.0 33.0 31.3 32.6 31.1 32.4 M33.65 32.5 L34.35 29.5 33.3 32.4 32.55 32.25 M30.95 31.35 L30.0 30.3 M35.1 33.1 L34.35 32.55 34.75 29.8 M36.05 33.7 L35.1 33.1 M37.3 35.0 L37.3 34.55 36.05 33.7 M37.55 32.35 L37.45 32.5 36.2 33.75 36.6 33.55 M34.35 33.6 L33.9 33.3 33.35 33.2 M33.3 33.2 L32.15 33.05 31.15 32.9 30.25 32.05 29.45 31.25 29.0 30.8 M37.15 35.4 L37.05 35.4 M36.7 34.65 L35.45 33.9 34.45 33.3 M35.55 34.4 L34.35 33.6 M36.5 35.75 L36.5 35.0 35.55 34.4 M30.45 31.75 L29.4 30.7 M29.6 34.95 L29.3 34.7 28.8 34.15 28.25 33.65 28.15 33.55 28.15 31.05 M30.3 34.95 L30.85 35.0 M29.55 37.2 L28.75 37.65 27.65 37.65 27.2 37.65 M28.05 35.4 L28.5 35.25 29.6 34.95 29.75 34.9 30.3 34.95 M30.45 31.75 L31.1 32.4 M30.95 31.35 L31.6 32.0 32.55 32.25 M28.05 33.25 L28.15 33.55 M28.05 33.25 L27.3 31.3 M33.3 32.4 L33.65 32.5 M28.05 35.4 L27.85 35.9 M28.55 37.8 L28.75 37.65 M30.3 37.4 L30.8 37.3 33.15 36.75 29.65 38.4 M30.3 37.4 L29.65 37.2 29.55 37.2 M28.55 39.25 L29.65 38.4 M36.7 35.45 L37.05 35.4 M36.7 35.45 L36.5 35.75 M37.3 35.4 L37.15 35.4 M37.1 35.65 L37.3 35.4 37.3 35.0 M36.7 34.65 L36.7 35.45"/><path fill="#f9f8ec" stroke="none" d="M37.25 24.75 L37.8 23.3 38.35 22.7 38.45 22.7 38.9 23.0 38.55 24.0 37.85 24.9 38.5 24.3 38.7 24.05 39.15 22.95 38.7 22.45 36.85 22.65 35.2 23.3 35.4 23.5 36.7 22.95 36.9 22.9 38.05 22.75 37.7 23.2 Q37.35 23.8 37.25 24.75 M37.4 25.35 L37.2 25.15 36.15 24.15 35.6 23.65 35.15 25.25 35.8 24.1 37.4 26.0 37.55 25.5 37.4 25.35 M32.4 20.65 L31.5 19.9 29.9 19.4 29.5 19.5 29.9 19.4 28.3 18.9 27.3 19.35 26.85 19.85 27.6 19.4 28.35 19.1 29.5 19.5 27.55 20.1 27.6 20.15 28.9 19.85 29.95 19.65 31.3 20.05 31.7 20.45 28.8 20.75 28.45 20.9 27.4 21.5 26.8 21.4 25.6 21.2 25.4 21.15 25.05 21.9 24.95 22.65 25.5 21.4 26.95 22.05 26.6 22.75 26.6 24.3 26.85 22.8 27.4 21.75 28.8 20.95 27.6 22.1 28.0 21.8 28.9 21.15 30.3 20.95 31.55 21.05 31.9 21.45 30.9 21.9 28.5 22.45 31.0 22.15 32.25 21.55 33.85 22.4 34.1 22.4 33.55 21.45 32.4 20.95 30.1 20.75 28.8 20.95 30.1 20.75 32.4 20.65 M23.6 25.45 L21.7 25.9 20.6 26.9 21.4 28.9 22.7 29.65 23.1 29.45 22.7 29.65 24.9 30.1 23.1 29.45 24.1 29.0 22.9 29.3 22.8 29.1 Q22.65 28.75 22.75 28.15 L22.95 27.65 22.55 28.55 22.5 29.3 21.65 28.85 21.25 27.9 20.9 27.0 21.85 26.2 23.0 25.8 23.6 25.6 23.6 25.45 M33.45 21.5 L33.65 21.95 32.2 21.3 31.85 21.05 32.4 21.1 33.45 21.5 M33.55 23.6 L32.3 25.35 31.65 25.8 30.65 25.1 29.85 22.95 31.9 22.4 33.35 22.3 32.15 22.15 28.65 23.0 26.75 24.4 26.5 25.05 25.95 26.4 27.1 24.35 28.4 23.35 28.45 24.35 28.45 25.15 28.4 25.35 28.4 25.4 28.0 26.95 29.05 26.2 29.2 25.05 29.45 24.35 29.8 23.85 29.85 23.8 30.45 25.1 30.5 25.25 31.95 26.6 32.0 26.6 32.1 26.7 32.55 26.5 32.05 26.1 32.5 25.55 33.55 23.6 M33.6 27.65 L33.2 27.8 33.2 26.8 33.0 27.9 33.1 28.2 33.6 27.65 M34.1 26.8 L35.65 27.2 35.5 27.4 35.25 27.85 35.1 28.4 35.0 28.75 35.35 27.95 36.0 27.35 36.8 28.2 35.6 28.9 35.0 29.05 34.0 29.2 32.85 29.35 32.1 28.95 32.0 28.1 33.0 26.5 33.85 26.65 34.4 27.6 34.55 27.65 35.1 27.75 34.9 27.4 34.6 27.4 34.1 26.8 M34.9 26.75 L34.3 26.55 33.0 26.25 31.75 28.1 31.95 29.25 32.9 29.55 35.6 29.05 37.2 28.45 36.6 27.65 36.15 27.15 34.9 26.75 M30.85 29.75 L26.75 28.25 25.85 26.65 25.4 25.85 25.85 26.65 24.95 23.7 25.4 25.85 24.75 24.75 24.9 23.35 24.85 23.35 24.65 24.7 24.55 25.15 24.2 26.15 24.4 27.85 24.45 25.95 24.75 25.5 25.35 26.5 25.85 27.3 26.5 28.45 25.7 29.3 26.7 28.65 27.65 28.9 28.85 29.25 28.45 30.05 28.35 30.4 28.25 30.8 28.3 30.8 28.5 30.3 28.7 29.9 29.15 29.35 30.8 29.8 30.85 29.75 M36.6 29.15 L36.45 29.05 32.25 29.85 31.65 30.05 31.5 30.15 31.6 30.25 32.55 30.55 34.05 30.7 34.35 30.7 35.4 30.5 35.95 30.5 35.5 30.35 35.1 30.4 34.35 30.55 33.95 30.5 32.75 30.35 32.3 30.05 34.25 29.65 35.4 29.4 36.6 29.15 M26.75 28.25 L26.5 28.45 26.75 28.25 M30.85 30.3 L28.25 31.0 28.2 31.45 Q29.5 30.9 30.85 30.3 M25.6 21.2 L27.4 21.75 25.6 21.2 M24.55 25.15 L24.75 24.75 24.55 25.15 M27.0 31.85 L27.1 31.7 27.4 30.85 27.5 30.55 27.55 30.3 27.65 29.65 27.45 30.25 27.35 30.65 27.2 30.95 26.9 31.5 26.8 31.6 25.8 31.9 25.35 30.7 25.65 32.15 25.7 32.15 25.8 32.15 25.95 32.1 27.0 31.85"/><path fill="#f0f0d2" stroke="none" d="M38.7 22.45 L39.15 22.95 39.35 22.7 38.7 22.45 M31.5 19.9 L30.3 19.0 28.3 18.9 29.9 19.4 31.5 19.9 M21.7 25.9 L20.35 26.55 18.45 26.7 20.35 26.9 20.6 26.9 21.7 25.9 M33.55 23.6 L33.75 22.75 33.85 22.4 33.35 22.3 31.9 22.4 29.85 22.95 30.65 25.1 31.65 25.8 32.3 25.35 33.55 23.6 M28.5 22.45 L30.9 21.9 31.9 21.45 31.55 21.05 30.3 20.95 28.9 21.15 28.0 21.8 28.3 22.5 28.5 22.45 M35.0 28.75 L35.0 29.05 35.6 28.9 36.8 28.2 36.0 27.35 35.35 27.95 35.0 28.75"/><path fill="#bfbf40" stroke="none" d="M39.15 22.95 L38.7 24.05 38.5 25.4 39.35 23.4 39.35 22.7 39.15 22.95 M38.5 24.3 L37.85 24.9 37.8 24.95 37.4 25.35 37.55 25.5 37.9 26.95 38.1 27.4 38.25 26.7 38.5 24.3 M18.85 28.65 L18.9 28.65 19.35 29.05 20.2 28.6 20.4 29.7 24.35 32.0 25.05 30.4 24.05 31.55 20.65 29.7 20.2 28.6 19.5 27.95 18.4 26.9 18.05 27.7 18.85 28.65 M25.75 32.9 L27.25 32.9 27.9 31.8 27.0 32.6 25.85 32.65 25.75 32.9 M32.1 31.2 L34.35 31.2 34.65 31.2 36.1 30.5 35.95 30.5 35.4 30.5 34.35 30.7 34.35 31.2 34.05 30.7 32.55 30.55 31.6 30.55 32.1 31.2 M37.3 29.45 L38.1 28.6 38.3 27.75 37.7 28.75 38.05 27.7 37.7 27.2 37.4 26.0 36.15 27.15 36.6 27.65 37.2 28.45 37.2 28.85 37.7 28.75 37.3 29.45 M28.45 20.9 L28.9 19.85 27.6 20.15 Q27.75 20.6 27.2 21.1 L26.8 21.4 27.4 21.5 28.45 20.9 M27.6 22.1 L28.8 20.95 27.4 21.75 26.85 22.8 27.6 22.1 M30.1 20.75 L32.4 20.95 33.55 21.45 32.4 20.65 30.1 20.75 M34.9 27.4 L34.95 27.4 34.85 27.35 34.9 27.4 M33.0 26.25 L32.55 26.5 32.1 26.7 30.85 27.9 31.75 28.1 33.0 26.25 M30.85 29.8 L30.8 29.8 29.15 29.35 28.7 29.9 28.5 30.3 28.3 30.8 28.25 31.0 30.85 30.3 30.85 29.8 M27.65 28.9 L26.7 28.65 25.7 29.3 26.5 28.45 25.85 27.3 25.35 29.5 25.4 29.55 25.35 29.5 24.7 28.95 24.95 28.6 25.3 27.35 25.35 26.75 25.35 26.5 24.75 25.5 24.45 25.95 24.4 27.85 24.55 28.8 24.1 29.0 23.1 29.45 24.9 30.1 25.2 30.15 25.35 30.7 25.8 31.9 26.8 31.6 26.9 31.5 27.2 30.95 27.35 30.65 27.45 30.25 27.65 29.65 27.65 28.9 M23.45 26.8 L23.6 25.6 23.0 25.8 22.35 26.9 22.3 27.0 21.7 27.6 21.25 27.9 21.65 28.85 22.5 29.3 22.55 28.55 22.95 27.65 23.15 27.45 Q23.4 27.25 23.65 27.15 L23.45 26.8 M24.75 24.75 L25.4 25.85 24.95 23.7 24.9 23.35 24.75 24.75 M24.55 28.8 L24.7 28.95 24.55 28.8 M25.7 29.3 L25.4 29.55 25.2 30.15 25.4 29.55 25.7 29.3"/><path fill="#ffffcc" stroke="none" d="M37.25 24.75 Q37.35 23.8 37.7 23.2 L38.05 22.75 36.9 22.9 36.7 22.95 Q36.75 23.8 36.15 24.15 L37.2 25.15 37.25 24.75 M35.4 23.5 L35.2 23.3 34.1 22.4 33.85 22.4 33.75 22.75 33.55 23.6 32.5 25.55 32.05 26.1 32.55 26.5 33.0 26.25 34.3 26.55 34.9 26.75 35.05 25.8 35.15 25.25 35.6 23.65 35.4 23.5 M31.95 26.6 L30.5 25.25 30.45 25.1 29.05 26.2 28.0 26.95 26.95 27.75 30.45 25.55 31.95 26.6 M34.85 27.35 L34.95 27.4 34.9 27.4 35.1 27.75 34.55 27.65 34.4 28.65 34.0 29.2 35.0 29.05 35.0 28.75 35.1 28.4 35.25 27.85 35.5 27.4 35.65 27.2 34.1 26.8 34.85 27.35 M35.1 30.4 Q35.05 29.95 35.25 29.6 L35.4 29.4 34.25 29.65 34.4 29.8 Q34.55 30.15 33.95 30.5 L34.35 30.55 35.1 30.4"/><path fill="#d5d580" stroke="none" d="M37.85 24.9 L38.55 24.0 38.9 23.0 38.45 22.7 38.35 22.7 37.8 23.3 37.25 24.75 37.2 25.15 37.4 25.35 37.8 24.95 37.85 24.9 M36.7 22.95 L35.4 23.5 35.6 23.65 36.15 24.15 Q36.75 23.8 36.7 22.95 M38.7 24.05 L38.5 24.3 38.25 26.7 38.5 25.4 38.7 24.05 M26.85 19.85 L26.35 20.45 25.4 21.15 25.6 21.2 26.8 21.4 27.2 21.1 Q27.75 20.6 27.6 20.15 L27.1 20.25 26.35 20.45 27.1 20.25 27.55 20.1 29.5 19.5 28.35 19.1 27.6 19.4 26.85 19.85 M18.45 26.7 L18.25 26.8 17.75 27.65 18.85 28.65 18.05 27.7 18.4 26.9 18.25 26.8 18.4 26.9 19.5 27.95 19.7 27.9 Q20.45 27.7 20.35 26.9 L18.45 26.7 M31.6 31.0 L31.95 31.2 32.1 31.2 31.6 30.55 32.55 30.55 31.6 30.25 31.5 30.15 31.35 30.25 31.3 30.65 31.6 31.0 M36.1 30.5 L36.45 29.7 36.7 29.25 36.6 29.15 35.4 29.4 35.25 29.6 Q35.05 29.95 35.1 30.4 L35.5 30.35 35.95 30.5 36.1 30.5 M38.3 27.75 L38.1 27.4 37.9 26.95 37.55 25.5 37.4 26.0 35.8 24.1 35.15 25.25 35.05 25.8 34.9 26.75 36.15 27.15 37.4 26.0 37.7 27.2 38.05 27.7 37.7 28.75 38.3 27.75 M28.45 20.9 L28.8 20.75 31.7 20.45 31.3 20.05 29.95 19.65 28.9 19.85 28.45 20.9 M33.45 21.5 L32.4 21.1 31.85 21.05 32.2 21.3 33.65 21.95 33.45 21.5 M28.0 21.8 L27.6 22.1 26.85 22.8 26.6 24.3 26.6 22.75 26.95 22.05 25.5 21.4 24.95 22.65 24.9 23.0 24.9 23.35 24.95 23.7 25.85 26.65 26.75 28.25 30.85 29.75 30.85 29.15 30.85 28.5 30.85 29.15 31.55 29.6 31.95 29.25 31.75 28.1 31.65 29.2 31.15 29.2 30.85 28.5 30.85 27.9 32.1 26.7 32.0 26.6 31.95 26.6 30.45 25.55 26.95 27.75 28.0 26.95 28.4 25.4 28.4 25.35 28.45 25.15 28.45 24.35 28.4 23.35 27.1 24.35 25.95 26.4 26.5 25.05 26.75 24.4 27.5 23.45 28.3 22.5 28.0 21.8 M30.45 25.1 L29.85 23.8 29.8 23.85 29.45 24.35 29.2 25.05 29.05 26.2 30.45 25.1 M33.2 26.8 L33.6 27.65 33.1 28.2 33.0 27.9 33.2 26.8 M34.0 29.2 L34.4 28.65 34.55 27.65 34.4 27.6 33.85 26.65 33.0 26.5 32.0 28.1 32.1 28.95 32.85 29.35 34.0 29.2 M25.95 26.4 L25.85 26.65 25.95 26.4 M34.35 30.7 L34.05 30.7 34.35 31.2 34.35 30.7 M33.95 30.5 Q34.55 30.15 34.4 29.8 L34.25 29.65 32.3 30.05 32.75 30.35 33.95 30.5 M28.25 30.8 L28.35 30.4 28.45 30.05 28.85 29.25 27.65 28.9 27.65 29.65 27.55 30.3 27.5 30.55 27.4 30.85 27.1 31.7 27.0 31.85 28.05 31.55 28.2 31.45 28.25 31.0 28.25 30.8 M26.5 25.05 L26.6 24.3 26.5 25.05 M23.0 25.8 L21.85 26.2 20.9 27.0 21.25 27.9 21.7 27.6 22.3 27.0 22.35 26.9 23.0 25.8 M22.95 27.65 L22.75 28.15 Q22.65 28.75 22.8 29.1 L22.9 29.3 24.1 29.0 24.55 28.8 23.65 27.15 Q23.4 27.25 23.15 27.45 L22.95 27.65 M25.35 26.5 L25.35 26.75 25.3 27.35 24.95 28.6 24.7 28.95 25.35 29.5 25.85 27.3 25.35 26.5"/><path fill="#a6a637" stroke="none" d="M25.05 21.9 L23.6 25.45 23.6 25.6 23.45 26.8 24.2 26.15 24.55 25.15 24.65 24.7 24.85 23.35 24.9 23.35 24.9 23.0 24.95 22.65 25.05 21.9 M24.35 32.0 L25.0 32.05 25.65 32.15 25.35 30.7 25.2 30.15 24.9 30.1 22.7 29.65 21.4 28.9 20.6 26.9 20.35 26.9 Q20.45 27.7 19.7 27.9 L19.5 27.95 20.2 28.6 20.65 29.7 24.05 31.55 25.05 30.4 25.2 30.15 25.05 30.4 24.35 32.0 M29.6 31.55 L29.75 31.45 31.6 31.0 31.3 30.65 31.35 30.25 30.85 30.3 Q29.5 30.9 28.2 31.45 L28.05 31.55 27.0 31.85 25.95 32.1 25.85 32.65 27.0 32.6 27.9 31.8 28.05 31.55 29.6 31.55 M33.35 22.3 L33.85 22.4 32.25 21.55 31.0 22.15 28.5 22.45 28.3 22.5 27.5 23.45 26.75 24.4 28.65 23.0 32.15 22.15 33.35 22.3 M33.2 26.8 L33.2 27.8 33.6 27.65 33.2 26.8 M34.9 27.4 L34.85 27.35 34.1 26.8 34.6 27.4 34.9 27.4 M30.85 28.5 L31.15 29.2 31.65 29.2 31.75 28.1 30.85 27.9 30.85 28.5 M37.2 28.45 L35.6 29.05 32.9 29.55 31.95 29.25 31.55 29.6 31.65 30.05 32.25 29.85 36.45 29.05 36.6 29.15 36.7 29.25 36.95 29.2 37.2 28.85 37.2 28.45 M24.9 23.0 L24.85 23.35 24.9 23.0 M21.4 28.9 L20.2 28.6 21.4 28.9"/><path fill="#666622" stroke="none" d="M19.35 29.05 L20.4 29.7 20.2 28.6 19.35 29.05 M25.0 32.05 L25.75 32.9 25.85 32.65 25.95 32.1 25.8 32.15 25.7 32.15 25.65 32.15 25.0 32.05 M27.25 32.9 L29.6 31.55 28.05 31.55 27.9 31.8 27.25 32.9 M36.45 29.7 L37.2 29.5 37.3 29.45 37.7 28.75 37.2 28.85 36.95 29.2 36.7 29.25 36.45 29.7 M30.85 29.15 L30.85 29.75 30.85 29.8 30.85 30.3 31.35 30.25 31.5 30.15 31.65 30.05 31.55 29.6 30.85 29.15 M24.2 26.15 L23.45 26.8 23.65 27.15 24.55 28.8 24.4 27.85 24.2 26.15"/><path fill="#92f458" stroke="none" d="M27.6 20.15 L27.55 20.1 27.1 20.25 27.6 20.15 M30.85 29.75 L30.8 29.8 30.85 29.8 30.85 29.75 M28.3 30.8 L28.25 30.8 28.25 31.0 28.3 30.8"/><path fill="none" stroke="#000000" stroke-width="0.5" stroke-opacity="0.301960784314" d="M35.4 23.5 L35.2 23.3 36.85 22.65 38.7 22.45 39.15 22.95 38.7 24.05 38.5 24.3 37.85 24.9 M37.8 24.95 L37.4 25.35 37.2 25.15 M38.5 25.4 L39.35 23.4 39.35 22.7 38.7 22.45 M39.35 22.7 L39.15 22.95 M32.4 20.65 L31.5 19.9 30.3 19.0 28.3 18.9 27.3 19.35 26.85 19.85 26.35 20.45 25.4 21.15 25.05 21.9 23.6 25.45 21.7 25.9 20.35 26.55 18.45 26.7 18.25 26.8 17.75 27.65 18.85 28.65 M18.9 28.65 L19.35 29.05 20.4 29.7 24.35 32.0 25.0 32.05 25.75 32.9 27.25 32.9 29.6 31.55 29.75 31.45 31.6 31.0 31.95 31.2 32.1 31.2 34.35 31.2 34.65 31.2 36.1 30.5 36.45 29.7 37.2 29.5 37.3 29.45 38.1 28.6 38.3 27.75 38.1 27.4 38.25 26.7 38.5 25.4 38.7 24.05 M27.55 20.1 L29.5 19.5 29.9 19.4 31.5 19.9 M33.35 22.3 L33.85 22.4 32.25 21.55 31.0 22.15 28.5 22.45 M27.6 22.1 L28.8 20.95 30.1 20.75 32.4 20.95 33.55 21.45 34.1 22.4 33.85 22.4 M33.35 22.3 L32.15 22.15 28.65 23.0 26.75 24.4 27.5 23.45 28.3 22.5 28.5 22.45 M33.55 21.45 L32.4 20.65 30.1 20.75 M35.2 23.3 L34.1 22.4 M25.95 26.4 L26.5 25.05 26.75 24.4 M33.6 27.65 L33.2 27.8 33.2 26.8 33.6 27.65 M34.85 27.35 L34.95 27.4 34.9 27.4 34.6 27.4 34.1 26.8 M34.85 27.35 L34.1 26.8 M34.9 26.75 L34.3 26.55 33.0 26.25 32.55 26.5 32.1 26.7 30.85 27.9 31.75 28.1 33.0 26.25 M31.95 29.25 L31.75 28.1 M30.85 28.5 L30.85 27.9 M30.85 28.5 L30.85 29.15 30.85 29.75 26.75 28.25 25.85 26.65 25.95 26.4 M36.15 24.15 L37.2 25.15 M35.6 23.65 L36.15 24.15 M35.6 23.65 L35.4 23.5 M34.9 26.75 L36.15 27.15 36.6 27.65 37.2 28.45 35.6 29.05 32.9 29.55 31.95 29.25 31.55 29.6 30.85 29.15 M37.4 25.35 L37.55 25.5 37.9 26.95 38.1 27.4 M37.7 28.75 L38.3 27.75 M37.7 28.75 L37.2 28.85 37.2 28.45 M36.7 29.25 L36.95 29.2 37.2 28.85 M36.7 29.25 L36.6 29.15 36.45 29.05 32.25 29.85 31.65 30.05 31.55 29.6 M35.95 30.5 L36.1 30.5 M35.95 30.5 L35.4 30.5 34.35 30.7 34.05 30.7 32.55 30.55 31.6 30.25 31.5 30.15 31.65 30.05 M30.85 29.75 L30.85 29.8 M25.7 29.3 L26.5 28.45 26.75 28.25 M31.6 31.0 L31.3 30.65 31.35 30.25 31.5 30.15 M31.35 30.25 L30.85 30.3 30.85 29.8 M34.35 30.7 L34.35 31.2 M37.3 29.45 L37.7 28.75 M36.7 29.25 L36.45 29.7 M27.1 20.25 L26.35 20.45 M27.1 20.25 L27.55 20.1 M28.3 18.9 L29.9 19.4 M24.95 22.65 L25.05 21.9 M27.4 21.75 L26.85 22.8 26.6 24.3 26.5 25.05 M26.85 22.8 L27.6 22.1 M25.6 21.2 L25.4 21.15 M28.8 20.95 L27.4 21.75 25.6 21.2 M24.85 23.35 L24.9 23.0 24.9 23.35 24.75 24.75 24.55 25.15 24.2 26.15 23.45 26.8 23.6 25.6 23.6 25.45 M24.9 23.0 L24.95 22.65 M24.1 29.0 L23.1 29.45 22.7 29.65 21.4 28.9 20.6 26.9 21.7 25.9 M24.75 24.75 L25.4 25.85 25.85 26.65 M24.95 23.7 L24.9 23.35 M25.4 25.85 L24.95 23.7 M24.4 27.85 L24.2 26.15 M23.45 26.8 L23.65 27.15 24.55 28.8 24.1 29.0 M24.7 28.95 L24.55 28.8 24.4 27.85 M27.0 31.85 L25.95 32.1 25.8 32.15 25.7 32.15 25.65 32.15 25.35 30.7 25.2 30.15 25.4 29.55 25.7 29.3 M28.2 31.45 L28.05 31.55 27.0 31.85 M27.9 31.8 L28.05 31.55 29.6 31.55 M25.85 32.65 L25.75 32.9 M25.85 32.65 L25.95 32.1 M27.25 32.9 L27.9 31.8 M25.2 30.15 L25.05 30.4 24.35 32.0 M20.2 28.6 L21.4 28.9 M25.35 29.5 L25.4 29.55 M25.2 30.15 L24.9 30.1 M22.7 29.65 L24.9 30.1 M25.35 29.5 L24.7 28.95 M25.0 32.05 L25.65 32.15 M20.35 26.9 L20.6 26.9 M20.2 28.6 L19.5 27.95 M20.35 26.9 L18.45 26.7 M19.35 29.05 L20.2 28.6 20.4 29.7 M18.25 26.8 L18.4 26.9 19.5 27.95 M30.85 30.3 Q29.5 30.9 28.2 31.45"/><path fill="#f9f8ec" stroke="none" d="M31.1 26.5 L30.45 27.1 28.15 27.75 30.6 27.2 31.1 26.5 M36.55 25.8 L34.8 26.1 34.1 25.8 34.7 26.25 36.55 25.8"/><path fill="#bfbf40" stroke="none" d="M28.15 27.75 L30.45 27.1 31.1 26.5 28.15 27.75 M34.1 25.8 L34.8 26.1 36.55 25.8 34.1 25.8"/><path fill="none" stroke="#000000" stroke-width="0.5" stroke-opacity="0.301960784314" d="M28.15 27.75 L31.1 26.5 M34.1 25.8 L36.55 25.8"/></g><radialGradient gradientUnits="userSpaceOnUse" r="819.2" cx="0" cy="0" spreadMethod="pad" gradientTransform="matrix(0.0212554931641,0.0,0.0,0.0212554931641,0.0,0.0)" id="gradient3"><stop offset="0.196078431373" stop-color="#fee3bc"/><stop offset="0.501960784314" stop-color="#fee3bc" stop-opacity="0.160784313725"/><stop offset="0.760784313725" stop-color="#ffe3bd" stop-opacity="0.0"/></radialGradient><g id="c11"><path stroke="none" fill="url(#gradient3)" d="M9.3 -9.85 Q13.35 -5.8 13.35 0.0 13.35 5.8 9.3 9.3 5.8 13.35 0.0 13.35 -5.8 13.35 -9.85 9.3 -13.35 5.8 -13.35 0.0 -13.35 -5.8 -9.85 -9.85 -5.8 -13.35 0.0 -13.35 5.8 -13.35 9.3 -9.85"/></g><g id="c12"><g><use transform="matrix(1.0,0.0,0.0,1.0,0.0,0.0)" xlink:href="#c11"/></g></g><g id="c13"><g><use transform="matrix(0.00422668457031,-1.35153198242,1.39352416992,0.0199737548828,40.75,38.25)" xlink:href="#c12"/></g><g><use transform="matrix(0.00953674316406,-3.04858398438,0.371963500977,0.00532531738281,41.6,40.75)" filter="url(#filter11)" xlink:href="#c12"/></g><g><use transform="matrix(3.04858398438,0.00953674316406,-0.00532531738281,0.371963500977,40.75,40.2)" filter="url(#filter12)" xlink:href="#c12"/></g></g><filter id="filter11"><feColorMatrix in="SourceGraphic" type="matrix" values="1.0 0.0 0.0 0.0 0.0 0.0 1.0 0.0 0.0 0.0 0.0 0.0 1.0 0.0 0.0 0.0 0.0 0.0 0.71875 0.0" result="cxform"/><feComposite operator="in" in2="SourceGraphic" result="color-xform"/></filter><filter id="filter12"><feColorMatrix in="SourceGraphic" type="matrix" values="1.0 0.0 0.0 0.0 0.0 0.0 1.0 0.0 0.0 0.0 0.0 0.0 1.0 0.0 0.0 0.0 0.0 0.0 0.71875 0.0" result="cxform"/><feComposite operator="in" in2="SourceGraphic" result="color-xform"/></filter><g id="c14"><g><use transform="matrix(1.0,0.0,0.0,1.0,0.0,0.0)" xlink:href="#c5"/></g></g><filter id="filter17"><feColorMatrix in="SourceGraphic" type="matrix" values="1.0 0.0 0.0 0.0 0.0 0.0 1.0 0.0 0.0 0.0 0.0 0.0 1.0 0.0 0.0 0.0 0.0 0.0 0.26171875 0.0" result="cxform"/><feComposite operator="in" in2="SourceGraphic" result="color-xform"/></filter><filter id="filter18"><feColorMatrix in="SourceGraphic" type="matrix" values="1.0 0.0 0.0 0.0 0.0 0.0 1.0 0.0 0.0 0.0 0.0 0.0 1.0 0.0 0.0 0.0 0.0 0.0 0.26171875 0.0" result="cxform"/><feComposite operator="in" in2="SourceGraphic" result="color-xform"/></filter><filter id="filter19"><feColorMatrix in="SourceGraphic" type="matrix" values="0.0 0.0 0.0 0.0 0.3984375 0.0 0.0 0.0 0.0 0.99609375 0.0 0.0 0.0 0.0 0.796875 0.0 0.0 0.0 0.1484375 0.0" result="cxform"/><feComposite operator="in" in2="SourceGraphic" result="color-xform"/></filter><filter id="filter20"><feColorMatrix in="SourceGraphic" type="matrix" values="0.0 0.0 0.0 0.0 0.3984375 0.0 0.0 0.0 0.0 0.99609375 0.0 0.0 0.0 0.0 0.796875 0.0 0.0 0.0 0.1484375 0.0" result="cxform"/><feComposite operator="in" in2="SourceGraphic" result="color-xform"/></filter><filter id="filter21"><feColorMatrix in="SourceGraphic" type="matrix" values="0.0 0.0 0.0 0.0 0.3984375 0.0 0.0 0.0 0.0 0.99609375 0.0 0.0 0.0 0.0 0.796875 0.0 0.0 0.0 0.1484375 0.0" result="cxform"/><feComposite operator="in" in2="SourceGraphic" result="color-xform"/></filter><filter id="filter22"><feColorMatrix in="SourceGraphic" type="matrix" values="0.0 0.0 0.0 0.0 0.3984375 0.0 0.0 0.0 0.0 0.99609375 0.0 0.0 0.0 0.0 0.796875 0.0 0.0 0.0 0.1484375 0.0" result="cxform"/><feComposite operator="in" in2="SourceGraphic" result="color-xform"/></filter><filter id="filter23"><feColorMatrix in="SourceGraphic" type="matrix" values="0.0 0.0 0.0 0.0 0.3984375 0.0 0.0 0.0 0.0 0.99609375 0.0 0.0 0.0 0.0 0.796875 0.0 0.0 0.0 0.1484375 0.0" result="cxform"/><feComposite operator="in" in2="SourceGraphic" result="color-xform"/></filter><filter id="filter24"><feColorMatrix in="SourceGraphic" type="matrix" values="1.0 0.0 0.0 0.0 0.0 0.0 1.0 0.0 0.0 0.0 0.0 0.0 1.0 0.0 0.0 0.0 0.0 0.0 0.578125 0.0" result="cxform"/><feComposite operator="in" in2="SourceGraphic" result="color-xform"/></filter><filter id="filter25"><feColorMatrix in="SourceGraphic" type="matrix" values="1.0 0.0 0.0 0.0 0.0 0.0 1.0 0.0 0.0 0.0 0.0 0.0 1.0 0.0 0.0 0.0 0.0 0.0 0.578125 0.0" result="cxform"/><feComposite operator="in" in2="SourceGraphic" result="color-xform"/></filter><filter id="filter26"><feColorMatrix in="SourceGraphic" type="matrix" values="1.0 0.0 0.0 0.0 0.0 0.0 1.0 0.0 0.0 0.0 0.0 0.0 1.0 0.0 0.0 0.0 0.0 0.0 0.23046875 0.0" result="cxform"/><feComposite operator="in" in2="SourceGraphic" result="color-xform"/></filter></defs><g><g><use transform="matrix(1.0,0.0,0.0,1.0,0.0,0.0)" xlink:href="#c1"/></g><g><use transform="matrix(1.15496826172,0.0,0.0,1.15496826172,5.85,4.8)" xlink:href="#c9"/></g><g><use transform="matrix(1.0,0.0,0.0,1.0,0.0,0.0)" xlink:href="#c10"/></g><g><use transform="matrix(-0.0302276611328,0.0,0.0,0.0302276611328,31.8,25.95)" filter="url(#filter17)" xlink:href="#c13"/></g><g><use transform="matrix(-0.0251007080078,0.0,0.0,0.0251007080078,37.1,24.85)" filter="url(#filter18)" xlink:href="#c13"/></g><g><use transform="matrix(-0.0531158447266,0.0,0.0,0.0705413818359,28.2,25.45)" filter="url(#filter19)" xlink:href="#c14"/></g><g><use transform="matrix(-0.04541015625,0.0121459960938,0.00810241699219,0.0303497314453,31.15,34.85)" filter="url(#filter20)" xlink:href="#c14"/></g><g><use transform="matrix(-0.0572814941406,0.0153198242188,0.00303649902344,0.0114135742188,34.9,36.85)" filter="url(#filter21)" xlink:href="#c14"/></g><g><use transform="matrix(-0.0115661621094,0.0200347900391,0.0335693359375,0.0193634033203,22.35,28.4)" filter="url(#filter22)" xlink:href="#c14"/></g><g><use transform="matrix(-0.0104827880859,0.0181884765625,0.0261383056641,0.0150756835938,34.35,28.45)" filter="url(#filter23)" xlink:href="#c14"/></g><g><use transform="matrix(-0.0705718994141,0.0,0.0,0.0795593261719,29.4,25.2)" filter="url(#filter24)" xlink:href="#c13"/></g><g><use transform="matrix(-0.0468444824219,0.0,0.0,0.0527954101562,35.05,34.6)" filter="url(#filter25)" xlink:href="#c13"/></g><g><use transform="matrix(0.162948608398,-0.0436706542969,0.128631591797,0.260604858398,30.0,28.7)" filter="url(#filter26)" xlink:href="#c6"/></g></g></svg>