<?xml version='1.0' encoding='UTF-8'?>
<svg xmlns:xlink="http://www.w3.org/1999/xlink" xmlns="http://www.w3.org/2000/svg" version="1.1" width="60px" height="60px" viewBox="0.0 0.0 60.0 60.0"><defs><g id="c1"><path fill="#78f5f5" fill-opacity="0.2" d="M-1.6 27.35 L7.4 27.0 8.75 27.2 Q9.05 28.7 9.7 29.35 L10.6 30.0 11.7 30.1 Q13.2 29.85 14.5 27.95 18.1 28.1 20.35 27.0 L22.65 26.3 23.05 26.0 Q24.75 24.5 24.25 22.5 24.05 21.65 23.35 21.2 L20.45 19.75 20.05 19.55 20.05 19.5 17.0 17.6 Q13.25 15.2 11.8 12.15 11.8 7.3 9.2 2.75 L9.2 2.5 Q9.2 1.8 8.85 1.3 L7.85 0.55 7.8 0.5 6.3 -1.45 6.9 -3.85 6.95 -3.95 7.2 -10.25 Q7.2 -21.85 2.6 -27.9 1.4 -29.5 0.3 -29.85 -1.5 -30.6 -2.95 -29.1 L-3.0 -29.05 Q-5.4 -26.75 -7.0 -22.85 -8.5 -19.5 -9.4 -14.9 L-9.6 -13.65 Q-13.45 -19.1 -18.7 -21.3 L-19.55 -21.45 Q-22.25 -21.65 -23.3 -17.9 L-24.15 -14.25 -24.15 -14.15 -24.4 -11.3 -24.4 -11.25 -24.4 -8.75 -24.4 -8.7 Q-24.25 -5.95 -23.6 -3.05 L-21.85 1.95 -21.85 2.05 -21.4 3.05 Q-22.65 7.7 -22.4 11.85 -22.3 14.45 -21.6 16.95 -19.35 24.95 -9.8 26.95 L-1.6 27.35"/><path fill="none" stroke="#ffffff" stroke-width="0.5" stroke-opacity="0.219607843137" d="M-1.6 27.35 L7.4 27.0 8.75 27.2 Q9.05 28.7 9.7 29.35 L10.6 30.0 11.7 30.1 Q13.2 29.85 14.5 27.95 18.1 28.1 20.35 27.0 L22.65 26.3 23.05 26.0 Q24.75 24.5 24.25 22.5 24.05 21.65 23.35 21.2 L20.45 19.75 20.05 19.55 20.05 19.5 17.0 17.6 Q13.25 15.2 11.8 12.15 11.8 7.3 9.2 2.75 L9.2 2.5 Q9.2 1.8 8.85 1.3 L7.85 0.55 7.8 0.5 6.3 -1.45 6.9 -3.85 6.95 -3.95 7.2 -10.25 Q7.2 -21.85 2.6 -27.9 1.4 -29.5 0.3 -29.85 -1.5 -30.6 -2.95 -29.1 L-3.0 -29.05 Q-5.4 -26.75 -7.0 -22.85 -8.5 -19.5 -9.4 -14.9 L-9.6 -13.65 Q-13.45 -19.1 -18.7 -21.3 L-19.55 -21.45 Q-22.25 -21.65 -23.3 -17.9 L-24.15 -14.25 -24.15 -14.15 -24.4 -11.3 -24.4 -11.25 -24.4 -8.75 -24.4 -8.7 Q-24.25 -5.95 -23.6 -3.05 L-21.85 1.95 -21.85 2.05 -21.4 3.05 Q-22.65 7.7 -22.4 11.85 -22.3 14.45 -21.6 16.95 -19.35 24.95 -9.8 26.95"/></g><g id="c2"><g><use transform="matrix(1.0,0.0,0.0,1.0,0.0,0.0)" xlink:href="#c1"/></g></g><g id="c3"><path fill="#3a332f" stroke="none" d="M3.35 -1.0 Q-1.3 -2.65 -6.55 -3.2 1.5 -0.8 6.65 3.2 4.95 -0.1 3.35 -1.0"/></g><g id="c4"><g><use transform="matrix(1.0,0.0,0.0,1.0,0.0,0.0)" xlink:href="#c3"/></g></g><g id="c5"><path fill="#3a332f" stroke="none" d="M-1.15 -0.8 Q-0.8 1.7 1.25 4.5 0.2 -0.9 0.3 -4.45 -1.0 -2.6 -1.15 -0.8"/></g><g id="c6"><g><use transform="matrix(1.0,0.0,0.0,1.0,0.0,0.0)" xlink:href="#c5"/></g></g><g id="c7"><path fill="#e6dfd8" stroke="none" d="M-3.45 -9.0 Q-4.85 -5.8 -5.65 -1.45 -5.8 3.55 -4.15 6.05 2.15 8.5 3.85 14.9 L4.0 15.0 Q6.25 11.9 6.65 8.95 L6.95 2.8 Q5.2 -8.55 0.1 -11.75 -1.85 -10.85 -3.45 -9.0"/><path fill="#990000" stroke="none" d="M6.95 2.8 Q6.95 -7.95 2.7 -13.65 1.2 -15.65 0.2 -14.65 -1.95 -12.5 -3.45 -9.0 -1.85 -10.85 0.1 -11.75 5.2 -8.55 6.95 2.8"/><path fill="#cebea4" stroke="none" d="M-5.65 -1.45 Q-6.65 3.7 -6.85 10.5 L3.85 14.9 Q2.15 8.5 -4.15 6.05 -5.8 3.55 -5.65 -1.45"/><path fill="none" stroke="#000000" stroke-width="0.5" stroke-opacity="0.498039215686" d="M6.95 2.8 Q6.95 -7.95 2.7 -13.65 1.2 -15.65 0.2 -14.65 -1.95 -12.5 -3.45 -9.0 -4.85 -5.8 -5.65 -1.45 -6.65 3.7 -6.85 10.5 L3.85 14.9 4.0 15.0 Q6.25 11.9 6.65 8.95 L6.95 2.8"/></g><g id="c8"><g><use transform="matrix(1.0,0.0,0.0,1.0,0.0,0.0)" xlink:href="#c7"/></g></g><g id="c9"><path fill="#e6dfd8" stroke="none" d="M12.5 9.65 Q14.1 7.15 15.15 3.05 15.55 -2.85 11.85 -8.2 8.75 -13.75 1.35 -15.25 -6.85 -15.4 -12.95 -10.3 -15.35 -4.05 -15.05 1.3 -8.7 11.15 12.5 9.65"/><path fill="#cebea4" stroke="none" d="M-15.05 1.3 Q-14.95 3.7 -14.3 5.95 -12.2 13.1 -3.4 14.7 L1.9 15.3 6.1 14.05 9.05 12.85 10.35 12.05 Q11.55 11.15 12.5 9.65 -8.7 11.15 -15.05 1.3"/><path fill="none" stroke="#000000" stroke-width="0.5" stroke-opacity="0.498039215686" d="M-15.05 1.3 Q-14.95 3.7 -14.3 5.95 -12.2 13.1 -3.4 14.7 M6.1 14.05 L9.05 12.85 10.35 12.05 Q11.55 11.15 12.5 9.65 14.1 7.15 15.15 3.05 15.55 -2.85 11.85 -8.2 8.75 -13.75 1.35 -15.25 M-12.95 -10.3 Q-15.35 -4.05 -15.05 1.3"/></g><g id="c10"><g><use transform="matrix(1.0,0.0,0.0,1.0,0.0,0.0)" xlink:href="#c9"/></g></g><g id="c11"><path fill="#990000" stroke="none" d="M-3.35 -9.65 L-4.0 -10.35 -5.0 -11.4 Q-6.35 -11.35 -6.95 -9.3 L-7.65 -5.8 -7.9 -3.1 -7.9 -0.75 Q-6.85 -7.25 -3.35 -9.65"/><path fill="#e1b3b0" stroke="none" d="M-7.9 -0.75 Q-7.8 1.85 -7.15 4.5 -6.55 6.9 -5.55 9.3 -7.3 -3.3 -3.85 -5.0 -1.8 -6.0 1.2 -3.15 L-1.3 -7.1 -3.35 -9.65 Q-6.85 -7.25 -7.9 -0.75"/><path fill="#d2978a" stroke="none" d="M-5.55 9.3 L-4.6 11.4 Q-2.25 11.2 0.1 8.7 2.05 6.5 4.3 5.1 3.7 1.4 1.2 -3.15 -1.8 -6.0 -3.85 -5.0 -7.3 -3.3 -5.55 9.3"/><path fill="none" stroke="#000000" stroke-width="0.5" stroke-opacity="0.498039215686" d="M-3.35 -9.65 L-4.0 -10.35 -5.0 -11.4 Q-6.35 -11.35 -6.95 -9.3 L-7.65 -5.8 -7.9 -3.1 -7.9 -0.75 Q-7.8 1.85 -7.15 4.5 -6.55 6.9 -5.55 9.3 L-4.6 11.4 M4.3 5.1 Q3.7 1.4 1.2 -3.15 L-1.3 -7.1 -3.35 -9.65"/><path fill="#e6dfd8" stroke="none" d="M4.05 -3.3 L-0.65 -7.05 Q-2.75 -8.35 -4.95 -8.95 1.05 -3.85 3.85 7.3 6.55 6.6 8.05 5.05 6.2 0.05 4.05 -3.3"/><path fill="#990000" stroke="none" d="M-4.95 -8.95 Q-2.75 -8.35 -0.65 -7.05 L4.05 -3.3 Q0.3 -9.15 -5.0 -11.4 -5.55 -10.25 -4.95 -8.95"/><path fill="none" stroke="#000000" stroke-width="0.5" stroke-opacity="0.498039215686" d="M4.05 -3.3 Q6.2 0.05 8.05 5.05 M3.85 7.3 Q1.05 -3.85 -4.95 -8.95 M-5.0 -11.4 Q0.3 -9.15 4.05 -3.3"/></g><g id="c12"><g><use transform="matrix(1.0,0.0,0.0,1.0,0.0,0.0)" xlink:href="#c11"/></g></g><g id="c13"><path fill="#cebea4" stroke="none" d="M-1.45 0.65 Q-0.9 1.55 -0.8 3.0 -2.6 2.15 -4.1 0.0 -3.6 2.95 -1.6 5.8 1.7 5.7 3.3 3.95 -1.65 -0.3 -3.4 -5.85 -3.3 -2.95 -1.3 0.75 L-1.45 0.65"/><path fill="#e6dfd8" stroke="none" d="M-4.1 0.0 Q-2.6 2.15 -0.8 3.0 -0.9 1.55 -1.45 0.65 -2.7 -0.05 -4.15 -0.1 L-4.1 0.0 M-3.4 -5.85 Q-1.65 -0.3 3.3 3.95 4.35 2.85 4.15 0.9 0.15 -4.9 -3.4 -5.85"/><path fill="none" stroke="#000000" stroke-width="0.5" stroke-opacity="0.498039215686" d="M-4.1 0.0 L-4.15 -0.1 Q-2.7 -0.05 -1.45 0.65 L-1.3 0.75 Q-3.3 -2.95 -3.4 -5.85 M-1.6 5.8 Q-3.6 2.95 -4.1 0.0 M4.15 0.9 Q0.15 -4.9 -3.4 -5.85"/></g><g id="c14"><g><use transform="matrix(1.0,0.0,0.0,1.0,0.0,0.0)" xlink:href="#c13"/></g></g><g id="c15"><path fill="#990000" stroke="none" d="M7.4 -0.45 Q5.75 -1.75 3.3 -1.5 1.2 -1.25 -1.05 -0.25 -3.45 0.75 -7.35 -2.3 -6.4 1.8 -4.05 2.2 -1.75 2.6 -0.1 1.4 1.55 0.15 3.55 -0.25 L7.4 -0.45"/></g><g id="c16"><g><use transform="matrix(1.0,0.0,0.0,1.0,0.0,0.0)" xlink:href="#c15"/></g></g><g id="c17"><path fill="#990000" stroke="none" d="M1.05 1.1 Q1.8 -0.6 2.5 -1.5 3.25 -2.5 4.85 -3.2 1.95 -3.7 0.75 -2.5 L-1.4 0.4 -1.55 0.7 Q-2.5 2.15 -4.75 2.9 -3.05 3.65 -1.4 3.3 0.25 2.9 1.0 1.2 L1.05 1.1"/></g><g id="c18"><g><use transform="matrix(1.0,0.0,0.0,1.0,0.0,0.0)" xlink:href="#c17"/></g></g><g id="c19"><path fill="#990000" stroke="none" d="M2.3 -0.45 Q1.55 -2.55 0.05 -2.25 -1.45 -1.95 -0.7 0.75 -1.55 0.7 -2.45 -0.05 -0.65 2.85 1.2 2.25 3.05 1.65 2.3 -0.45"/></g><g id="c20"><g><use transform="matrix(1.0,0.0,0.0,1.0,0.0,0.0)" xlink:href="#c19"/></g></g><g id="c21"><path fill="#990000" stroke="none" d="M-1.15 0.8 Q0.45 2.35 1.75 1.55 3.0 0.8 1.15 -1.85 1.45 -0.9 1.15 -0.35 -0.9 -2.25 -1.8 -1.5 -2.7 -0.75 -1.15 0.8"/></g><g id="c22"><g><use transform="matrix(1.0,0.0,0.0,1.0,0.0,0.0)" xlink:href="#c21"/></g></g><g id="c23"><path fill="#cebea4" stroke="none" d="M5.45 3.4 L2.35 2.3 Q1.7 4.45 1.9 5.85 2.05 7.3 2.55 7.9 3.4 7.7 4.25 6.5 5.05 5.3 5.45 3.4"/><path fill="none" stroke="#000000" stroke-width="0.5" stroke-opacity="0.298039215686" d="M5.45 3.4 L2.35 2.3 Q1.7 4.45 1.9 5.85 2.05 7.3 2.55 7.9 3.4 7.7 4.25 6.5 5.05 5.3 5.45 3.4"/><path fill="#e6dfd8" stroke="none" d="M12.5 3.75 L13.0 3.05 Q12.1 2.0 7.3 -0.95 2.5 -3.9 1.0 -7.95 -5.45 -6.75 -9.85 0.0 -6.55 1.45 0.05 2.9 6.7 4.4 12.5 3.75"/><path fill="#cebea4" stroke="none" d="M-9.85 0.0 Q-12.35 0.1 -13.25 2.3 -14.15 4.45 -12.2 5.55 -6.65 4.0 -1.05 4.8 L5.65 5.75 Q10.5 5.95 12.5 3.75 6.7 4.4 0.05 2.9 -6.55 1.45 -9.85 0.0"/><path fill="none" stroke="#000000" stroke-width="0.5" stroke-opacity="0.498039215686" d="M12.5 3.75 L13.0 3.05 Q12.1 2.0 7.3 -0.95 2.5 -3.9 1.0 -7.95 M-12.2 5.55 Q-6.65 4.0 -1.05 4.8 L5.65 5.75 Q10.5 5.95 12.5 3.75"/><path fill="#4e453f" stroke="none" d="M13.6 2.65 Q11.9 1.6 10.15 1.1 9.0 1.55 8.75 2.4 L9.45 3.8 12.65 3.6 13.6 2.65"/><path fill="#3a332f" stroke="none" d="M10.4 4.85 Q11.8 4.9 13.05 4.25 13.75 3.6 13.6 2.65 L12.65 3.6 9.45 3.8 10.4 4.85"/><path fill="none" stroke="#000000" stroke-width="0.5" stroke-opacity="0.498039215686" d="M10.4 4.85 Q11.8 4.9 13.05 4.25 13.75 3.6 13.6 2.65 11.9 1.6 10.15 1.1"/><path fill="#cebea4" fill-opacity="0.498039215686" d="M0.9 -7.2 Q-0.7 -8.55 -2.95 -7.9 -5.15 -7.3 -6.25 -1.65 -3.65 -6.2 0.9 -7.2"/></g><g id="c24"><g><use transform="matrix(1.0,0.0,0.0,1.0,0.0,0.0)" xlink:href="#c23"/></g></g><g id="c25"><g><use transform="matrix(1.0,0.0,0.0,1.0,-1.75,-12.85)" xlink:href="#c8"/></g><g><use transform="matrix(1.0,0.0,0.0,1.0,-5.35,10.65)" xlink:href="#c10"/></g><g><use transform="matrix(1.0,0.0,0.0,1.0,-14.45,-7.85)" xlink:href="#c12"/></g><g><use transform="matrix(1.0,0.0,0.0,1.0,-13.75,-3.4)" xlink:href="#c14"/></g><g><use transform="matrix(1.0,0.0,0.0,1.0,6.9,7.1)" xlink:href="#c6"/></g><g><use transform="matrix(1.0,0.0,0.0,1.0,-3.6,11.9)" xlink:href="#c4"/></g><g><use transform="matrix(1.0,0.0,0.0,1.0,-10.1,14.35)" xlink:href="#c16"/></g><g><use transform="matrix(1.0,0.0,0.0,1.0,-5.85,19.0)" xlink:href="#c18"/></g><g><use transform="matrix(1.0,0.0,0.0,1.0,-1.55,5.7)" xlink:href="#c20"/></g><g><use transform="matrix(1.0,0.0,0.0,1.0,3.35,2.35)" xlink:href="#c22"/></g><g><use transform="matrix(1.0,0.0,0.0,1.0,8.7,20.45)" xlink:href="#c24"/></g><g><use transform="matrix(1.0,0.0,0.0,1.0,-0.1,0.2)" xlink:href="#c2"/></g></g><g id="c26"><path fill="#000000" fill-opacity="0.00392156862745" d="M0.0 0.0 L60.0 0.0 60.0 60.0 0.0 60.0 0.0 0.0"/></g><g id="c27"><path fill="none" stroke="#000000" stroke-width="1.0" stroke-opacity="0.301960784314" d="M0.7 12.25 Q-0.45 9.75 0.75 8.25 1.2 7.6 2.15 7.15 2.8 6.7 3.8 6.35 L17.5 1.95 30.2 7.0 41.35 31.7 Q42.95 35.15 40.2 36.7 39.5 37.3 38.3 37.65 L19.8 43.65 Q17.15 44.45 15.5 43.3 14.35 42.55 13.65 40.9 L0.7 12.25"/><path fill="#9d147b" stroke="none" d="M35.55 22.3 L31.5 13.2 29.75 9.2 16.95 4.25 5.5 7.85 Q1.65 9.1 3.35 12.8 L8.25 23.65 15.0 38.6 15.2 39.0 Q16.8 42.25 20.45 41.1 L37.2 35.7 Q41.1 34.5 39.35 30.75 L35.55 22.3 M2.15 7.15 Q2.8 6.7 3.8 6.35 L17.5 1.95 30.2 7.0 41.35 31.7 Q42.95 35.15 40.2 36.7 L38.9 37.25 23.2 42.3 20.4 43.2 19.1 43.5 17.3 43.4 Q15.3 42.9 14.2 40.5 L5.45 20.95 1.35 11.8 Q0.4 9.65 1.1 8.3 1.45 7.65 2.15 7.15"/><path fill="#c47fad" stroke="none" d="M31.5 13.2 L35.55 22.3 39.35 30.75 Q41.1 34.5 37.2 35.7 L20.45 41.1 Q16.8 42.25 15.2 39.0 L15.0 38.6 8.25 23.65 3.35 12.8 Q1.65 9.1 5.5 7.85 L16.95 4.25 29.75 9.2 31.5 13.2 M18.5 7.45 L9.1 10.55 9.55 11.6 Q9.8 12.8 9.15 13.6 8.4 14.45 7.1 14.4 L6.8 14.4 6.95 14.6 16.3 35.2 Q16.8 36.4 17.65 37.0 18.8 37.8 20.65 37.2 L34.0 32.9 33.7 32.1 Q33.45 30.9 34.1 30.1 34.75 29.3 35.95 29.35 L35.8 29.0 27.75 10.95 18.5 7.45"/><path fill="#630a4c" stroke="none" d="M0.75 8.25 Q1.2 7.6 2.15 7.15 1.45 7.65 1.1 8.3 L0.75 8.25 M23.3 42.5 L20.1 43.55 19.1 43.5 20.4 43.2 23.2 42.3 23.3 42.5 M15.5 43.3 Q14.35 42.55 13.65 40.9 L4.6 20.9 5.45 20.95 14.2 40.5 Q15.3 42.9 17.3 43.4 L15.5 43.3"/><path fill="#300525" stroke="none" d="M4.6 20.9 L0.7 12.25 Q-0.45 9.75 0.75 8.25 L1.1 8.3 Q0.4 9.65 1.35 11.8 L5.45 20.95 4.6 20.9 M40.2 36.7 Q39.5 37.3 38.3 37.65 L23.3 42.5 23.2 42.3 38.9 37.25 40.2 36.7 M20.1 43.55 L19.8 43.65 Q17.15 44.45 15.5 43.3 L17.3 43.4 19.1 43.5 20.1 43.55"/><path fill="#fcf2cf" stroke="none" d="M27.75 10.95 L35.8 29.0 35.95 29.35 Q34.75 29.3 34.1 30.1 33.45 30.9 33.7 32.1 L34.0 32.9 20.65 37.2 Q18.8 37.8 17.65 37.0 16.8 36.4 16.3 35.2 L6.95 14.6 6.8 14.4 7.1 14.4 Q8.4 14.45 9.15 13.6 9.8 12.8 9.55 11.6 L9.1 10.55 18.5 7.45 27.75 10.95"/><path fill="none" stroke="#bf9900" stroke-width="1.0" stroke-opacity="0.749019607843" d="M31.5 13.2 L35.55 22.3 M15.0 38.6 L8.25 23.65"/><path fill="none" stroke="#ffcc00" stroke-width="1.0" stroke-opacity="0.749019607843" d="M35.55 22.3 L39.35 30.75 Q41.1 34.5 37.2 35.7 L20.45 41.1 Q16.8 42.25 15.2 39.0 L15.0 38.6 M8.25 23.65 L3.35 12.8 Q1.65 9.1 5.5 7.85 L16.95 4.25 29.75 9.2 31.5 13.2"/><path fill="none" stroke="#000000" stroke-width="0.5" stroke-opacity="0.301960784314" d="M4.6 20.9 L0.7 12.25 Q-0.45 9.75 0.75 8.25 1.2 7.6 2.15 7.15 2.8 6.7 3.8 6.35 L17.5 1.95 M30.2 7.0 L41.35 31.7 Q42.95 35.15 40.2 36.7 39.5 37.3 38.3 37.65 L23.3 42.5 20.1 43.55 19.8 43.65 Q17.15 44.45 15.5 43.3 14.35 42.55 13.65 40.9 L4.6 20.9 M5.45 20.95 L1.35 11.8 Q0.4 9.65 1.1 8.3 1.45 7.65 2.15 7.15 M19.1 43.5 L17.3 43.4 Q15.3 42.9 14.2 40.5 L5.45 20.95 M23.2 42.3 L20.4 43.2 19.1 43.5 M40.2 36.7 L38.9 37.25 23.2 42.3"/><path fill="none" stroke="#f0b92b" stroke-width="0.5" d="M27.75 10.95 L35.8 29.0 35.95 29.35 Q34.75 29.3 34.1 30.1 33.45 30.9 33.7 32.1 L34.0 32.9 20.65 37.2 Q18.8 37.8 17.65 37.0 16.8 36.4 16.3 35.2 L6.95 14.6 6.8 14.4 7.1 14.4 Q8.4 14.45 9.15 13.6 9.8 12.8 9.55 11.6 L9.1 10.55 18.5 7.45"/><path fill="none" stroke="#ffcc00" stroke-width="0.5" stroke-opacity="0.749019607843" d="M18.5 7.45 L27.75 10.95"/></g><g id="c28"><path fill="#7fdbfe" stroke="none" d="M10.75 4.9 Q10.75 4.6 10.9 4.35 11.25 3.45 11.95 2.75 13.3 1.5 14.35 2.1 15.4 2.7 14.95 4.45 14.7 5.4 14.1 6.15 L13.75 6.5 Q13.1 7.15 12.35 7.35 L11.4 7.2 Q10.95 6.9 10.75 6.4 10.5 5.75 10.75 4.9 M7.5 5.9 Q7.0 5.85 6.6 5.5 6.05 5.0 5.8 4.15 L5.7 3.6 Q5.55 2.65 5.8 1.7 6.25 0.0 7.5 0.0 L7.6 0.0 Q8.85 0.0 9.3 1.7 9.55 2.65 9.4 3.6 L9.3 4.15 8.5 5.5 7.6 5.9 7.5 5.9 M4.35 4.9 Q4.6 5.75 4.35 6.4 L3.7 7.2 2.75 7.35 Q2.0 7.15 1.35 6.5 L1.0 6.15 Q0.4 5.4 0.15 4.45 -0.3 2.7 0.75 2.1 1.8 1.5 3.15 2.75 3.85 3.45 4.2 4.35 L4.35 4.9 M5.5 13.7 Q4.45 13.9 3.65 12.95 2.75 12.0 3.2 10.25 3.7 8.5 5.25 7.6 6.4 6.9 7.55 7.0 8.75 6.9 9.9 7.6 11.45 8.5 11.95 10.25 12.35 12.0 11.5 12.95 10.7 13.9 9.65 13.7 8.55 13.5 7.55 12.6 6.55 13.5 5.5 13.7"/></g><g id="c29"><g><use transform="matrix(1.0,0.0,0.0,1.0,0.0,0.0)" xlink:href="#c28"/></g></g><radialGradient gradientUnits="userSpaceOnUse" r="819.2" cx="0" cy="0" spreadMethod="pad" gradientTransform="matrix(0.0914459228516,0.0,0.0,0.0914459228516,0.6,3.4)" id="gradient1"><stop offset="0.0" stop-color="#ffffff"/><stop offset="1.0" stop-color="#ffffff" stop-opacity="0.0"/></radialGradient><g id="c30"><path stroke="none" fill="url(#gradient1)" d="M36.65 -54.65 Q60.05 -42.0 69.75 -17.95 80.55 8.9 68.0 34.1 55.45 59.35 26.8 68.2 -1.8 77.05 -29.7 64.3 -57.6 51.6 -68.45 24.75 -79.3 -2.05 -66.75 -27.25 L-66.7 -27.3 Q-54.1 -52.5 -25.5 -61.4 3.1 -70.2 31.0 -57.5 L36.65 -54.65"/></g><g id="c31"><g><use transform="matrix(1.0,0.0,0.0,1.0,0.0,0.0)" xlink:href="#c30"/></g></g><radialGradient gradientUnits="userSpaceOnUse" r="819.2" cx="0" cy="0" spreadMethod="pad" gradientTransform="matrix(0.209197998047,0.0,0.0,0.177108764648,67.15,107.2)" id="gradient2"><stop offset="0.356862745098" stop-color="#ffffff"/><stop offset="0.670588235294" stop-opacity="0.0"/></radialGradient><g id="c32"><path fill="none" stroke-linejoin="round" stroke-linecap="round" stroke="url(#gradient2)" stroke-width="0.5" d="M136.55 165.8 L68.6 106.0 68.4 106.0 118.25 201.5 M68.3 105.8 L68.35 105.8 68.3 105.8 68.3 105.85 68.4 106.0 68.3 106.0 86.55 211.5 M68.3 105.8 L68.3 105.85 68.3 106.0 68.15 105.95 18.25 151.55 M68.3 105.85 L68.25 105.85 68.3 106.0 50.0 193.2 M68.25 105.85 L68.15 105.95 0.05 97.7 M68.3 105.85 L68.25 105.8 68.25 105.85 M68.25 105.8 L68.2 105.7 0.0 45.7 M68.3 105.8 L68.25 105.75 68.25 105.8 M68.25 105.75 L68.2 105.7 18.25 10.05 M68.6 106.0 L68.35 105.8 118.25 60.15 M86.6 18.35 L68.3 105.8 M136.6 114.25 L68.6 106.0 M68.25 105.75 L49.95 0.05"/></g><g id="c33"><g><use transform="matrix(1.0,0.0,0.0,1.0,0.0,0.0)" xlink:href="#c32"/></g></g><g id="c34"><g><use transform="matrix(1.0,0.0,0.0,1.0,0.0,0.0)" xlink:href="#c27"/></g><g><use transform="matrix(0.238861083984,-0.0867004394531,0.10026550293,0.233917236328,34.25,31.15)" xlink:href="#c29"/></g><g><use transform="matrix(0.238861083984,-0.0867004394531,0.10026550293,0.233917236328,4.25,10.3)" xlink:href="#c29"/></g><g><use transform="matrix(0.141098022461,-0.0378112792969,0.111373901367,0.225646972656,20.25,20.65)" filter="url(#filter31)" xlink:href="#c31"/></g><g><use transform="matrix(-0.155029296875,0.0513153076172,0.0841827392578,0.147033691406,22.6,3.15)" filter="url(#filter32)" xlink:href="#c33"/></g></g><filter id="filter31"><feColorMatrix in="SourceGraphic" type="matrix" values="0.0 0.0 0.0 0.0 0.796875 0.0 0.0 0.0 0.0 0.59765625 0.0 0.0 0.0 0.0 0.19921875 0.0 0.0 0.0 1.0 0.0" result="cxform"/><feComposite operator="in" in2="SourceGraphic" result="color-xform"/></filter><filter id="filter32"><feColorMatrix in="SourceGraphic" type="matrix" values="0.0 0.0 0.0 0.0 0.99609375 0.0 0.0 0.0 0.0 0.99609375 0.0 0.0 0.0 0.0 0.99609375 0.0 0.0 0.0 1.0 0.0" result="cxform"/><feComposite operator="in" in2="SourceGraphic" result="color-xform"/></filter><radialGradient gradientUnits="userSpaceOnUse" r="819.2" cx="0" cy="0" spreadMethod="pad" gradientTransform="matrix(-0.0486602783203,0.0,0.0,0.0264282226562,0.0,0.0)" id="gradient3"><stop offset="0.56862745098" stop-opacity="0.466666666667"/><stop offset="0.98431372549" stop-opacity="0.0"/></radialGradient><g id="c35"><path stroke="none" fill="url(#gradient3)" d="M-39.6 0.0 Q-39.6 8.9 -28.0 15.2 -16.4 21.5 0.0 21.5 16.4 21.5 28.05 15.2 39.6 8.9 39.6 0.0 39.6 -8.9 28.05 -15.2 16.4 -21.5 0.0 -21.5 -16.4 -21.5 -28.0 -15.2 -39.6 -8.9 -39.6 0.0"/></g><g id="c36"><g><use transform="matrix(1.0,0.0,0.0,1.0,0.0,0.0)" xlink:href="#c35"/></g></g><g id="c37"><path fill="#8c1715" stroke="none" d="M6.1 9.0 Q12.85 7.8 9.55 -0.1 8.2 -3.25 7.65 -5.5 L7.7 -5.65 Q20.05 -6.35 24.55 7.4 21.25 17.0 14.45 15.45 8.45 13.6 6.1 9.0"/><path fill="#660b09" stroke="none" d="M7.65 -5.5 Q8.2 -3.25 9.55 -0.1 12.85 7.8 6.1 9.0 3.5 8.6 3.45 6.2 7.45 5.0 7.25 0.75 7.05 -3.4 7.65 -5.5"/><path fill="none" stroke="#000000" stroke-width="0.5" stroke-opacity="0.498039215686" d="M24.55 7.4 Q20.05 -6.35 7.7 -5.65 L7.65 -5.5 Q7.05 -3.4 7.25 0.75 7.45 5.0 3.45 6.2"/><path fill="#e5e0d8" stroke="none" d="M9.45 4.95 Q3.6 5.85 1.4 1.45 -0.3 -1.95 0.2 -7.35 0.35 -9.35 -0.75 -10.6 L-1.05 -9.35 Q-4.4 1.4 -2.2 8.4 -0.05 15.35 5.55 17.1 L10.8 18.4 12.25 18.6 16.8 18.85 Q25.5 17.9 24.8 8.0 24.15 5.25 23.0 3.75 24.25 7.15 22.2 8.45 20.1 9.75 16.9 7.0 13.7 4.2 9.45 4.95"/><path fill="#afa18b" stroke="none" d="M-0.75 -10.6 Q-1.95 -12.0 -4.75 -12.35 -9.9 -13.05 -13.4 -11.35 -17.35 -9.35 -19.85 -5.15 -23.75 1.3 -23.5 9.2 -23.2 17.05 -16.45 20.4 -9.65 23.7 -2.4 24.45 6.9 25.65 13.55 24.65 L13.7 24.65 13.85 24.65 Q20.4 23.9 22.9 19.15 25.95 13.45 24.8 8.0 25.5 17.9 16.8 18.85 L12.25 18.6 10.8 18.4 5.55 17.1 Q-0.05 15.35 -2.2 8.4 -4.4 1.4 -1.05 -9.35 L-0.75 -10.6"/><path fill="none" stroke="#000000" stroke-width="0.5" stroke-opacity="0.498039215686" d="M9.45 4.95 Q3.6 5.85 1.4 1.45 -0.3 -1.95 0.2 -7.35 0.35 -9.35 -0.75 -10.6 M-19.85 -5.15 Q-23.75 1.3 -23.5 9.2 -23.2 17.05 -16.45 20.4 -9.65 23.7 -2.4 24.45 6.9 25.65 13.55 24.65 L13.7 24.65 13.85 24.65 Q20.4 23.9 22.9 19.15 25.95 13.45 24.8 8.0 24.15 5.25 23.0 3.75"/><path fill="#afa18b" stroke="none" d="M-11.65 -18.4 Q-14.45 -13.0 -25.15 -6.55 -23.25 -4.35 -20.0 -3.95 -13.05 -7.95 -11.65 -18.4"/><path fill="none" stroke="#000000" stroke-width="0.5" stroke-opacity="0.498039215686" d="M-11.65 -18.4 Q-14.45 -13.0 -25.15 -6.55 -23.25 -4.35 -20.0 -3.95"/><path fill="#afa18b" stroke="none" d="M-0.1 -17.0 Q-0.85 -13.0 -7.5 -16.65 -11.45 -18.75 -12.95 -17.25 -13.9 -15.15 -16.15 -12.95 -15.4 -8.25 -11.45 -6.75 -7.45 -5.3 -4.15 -7.1 L0.15 -7.2 Q1.25 -12.6 -0.1 -17.0"/><path fill="#877c6b" stroke="none" d="M-12.95 -17.25 Q-11.45 -18.75 -7.5 -16.65 -0.85 -13.0 -0.1 -17.0 -0.9 -19.7 -2.65 -22.0 L-10.4 -25.1 Q-11.05 -21.2 -12.45 -18.15 L-12.95 -17.25"/><path fill="none" stroke="#000000" stroke-width="0.5" stroke-opacity="0.498039215686" d="M-12.95 -17.25 L-12.45 -18.15 Q-11.05 -21.2 -10.4 -25.1 L-2.65 -22.0 Q-0.9 -19.7 -0.1 -17.0 1.25 -12.6 0.15 -7.2 M-16.15 -12.95 Q-13.9 -15.15 -12.95 -17.25"/><path fill="#8c1715" stroke="none" d="M10.75 7.05 Q7.25 8.85 5.8 8.05 9.45 10.6 12.1 9.3 14.75 7.95 16.8 8.65 14.25 5.15 10.75 7.05"/><path fill="#8c1715" stroke="none" d="M10.0 5.5 L6.45 5.3 Q3.75 5.4 2.0 2.95 3.75 7.55 6.6 7.7 9.55 7.85 10.0 5.5"/><path fill="#e5e0d8" stroke="none" d="M21.95 3.55 Q22.5 5.0 22.15 6.05 21.85 7.15 20.8 7.35 19.8 7.5 18.65 6.6 17.5 5.75 16.95 4.3 16.4 2.9 16.8 1.8 17.15 0.7 18.15 0.55 19.2 0.35 20.3 1.25 21.4 2.15 21.95 3.55"/><path fill="#78f5f5" fill-opacity="0.2" d="M-12.35 -25.4 Q-12.95 -21.95 -14.2 -19.15 L-14.2 -19.05 -14.25 -19.0 -14.7 -18.15 -14.75 -18.1 Q-15.45 -16.5 -17.1 -14.75 L-17.45 -14.45 Q-20.8 -11.5 -26.15 -8.25 L-26.9 -7.35 Q-27.2 -6.85 -27.1 -6.25 -27.0 -5.65 -26.6 -5.2 -25.2 -3.65 -23.3 -2.8 -25.7 2.8 -25.5 9.25 -25.2 18.3 -17.4 22.2 L-17.35 22.2 Q-10.2 25.65 -2.6 26.45 L-2.65 26.45 Q6.95 27.65 13.8 26.65 L14.0 26.65 14.15 26.65 14.05 26.65 Q21.75 25.75 24.65 20.1 28.05 13.7 26.8 7.6 L26.75 7.5 Q26.05 4.7 24.95 3.05 L24.9 2.9 24.85 2.85 Q19.45 -8.35 7.6 -7.65 6.8 -7.6 6.2 -7.0 5.85 -6.6 5.75 -6.05 5.0 -3.75 5.2 0.85 L5.0 2.55 Q3.8 1.85 3.15 0.55 1.8 -2.3 2.2 -6.8 3.4 -12.75 1.85 -17.6 L1.85 -17.55 Q0.95 -20.6 -1.0 -23.2 -1.3 -23.65 -1.85 -23.85 L-9.6 -26.95 -10.8 -27.05 Q-11.35 -26.95 -11.8 -26.45 L-12.35 -25.4"/><path fill="none" stroke="#ffffff" stroke-width="0.5" stroke-opacity="0.219607843137" d="M-12.35 -25.4 Q-12.95 -21.95 -14.2 -19.15 L-14.2 -19.05 -14.25 -19.0 -14.7 -18.15 -14.75 -18.1 Q-15.45 -16.5 -17.1 -14.75 L-17.45 -14.45 Q-20.8 -11.5 -26.15 -8.25 L-26.9 -7.35 Q-27.2 -6.85 -27.1 -6.25 -27.0 -5.65 -26.6 -5.2 -25.2 -3.65 -23.3 -2.8 -25.7 2.8 -25.5 9.25 -25.2 18.3 -17.4 22.2 L-17.35 22.2 Q-10.2 25.65 -2.6 26.45 L-2.65 26.45 Q6.95 27.65 13.8 26.65 L14.0 26.65 14.15 26.65 14.05 26.65 Q21.75 25.75 24.65 20.1 28.05 13.7 26.8 7.6 L26.75 7.5 Q26.05 4.7 24.95 3.05 L24.9 2.9 24.85 2.85 Q19.45 -8.35 7.6 -7.65 6.8 -7.6 6.2 -7.0 5.85 -6.6 5.75 -6.05 5.0 -3.75 5.2 0.85 L5.0 2.55 Q3.8 1.85 3.15 0.55 1.8 -2.3 2.2 -6.8 3.4 -12.75 1.85 -17.6 L1.85 -17.55 Q0.95 -20.6 -1.0 -23.2 -1.3 -23.65 -1.85 -23.85 L-9.6 -26.95 -10.8 -27.05 Q-11.35 -26.95 -11.8 -26.45 L-12.35 -25.4"/></g><g id="c38"><g><use transform="matrix(1.0,0.0,0.0,1.0,0.0,0.0)" xlink:href="#c37"/></g></g><g id="c39"><path fill="#e5d4ba" stroke="none" d="M-3.8 -4.8 Q0.3 2.3 1.6 -1.35 2.5 -3.55 1.95 -5.05 L0.85 -6.3 Q-0.8 -7.25 -2.1 -7.25 L-3.3 -6.25 -3.8 -4.8"/><path fill="#cebea4" stroke="none" d="M1.95 -5.05 Q2.5 -3.55 1.6 -1.35 0.3 2.3 -3.8 -4.8 L-3.8 -4.65 -3.8 -4.25 -3.75 -1.25 Q-3.45 4.1 -1.85 7.1 -0.3 7.5 0.85 6.65 3.4 4.6 3.8 0.8 4.0 -0.95 3.4 -2.6 L1.95 -5.05"/><path fill="none" stroke="#000000" stroke-width="0.5" stroke-opacity="0.498039215686" d="M-3.8 -4.8 L-3.3 -6.25 -2.1 -7.25 Q-0.8 -7.25 0.85 -6.3 L1.95 -5.05 3.4 -2.6 Q4.0 -0.95 3.8 0.8 3.4 4.6 0.85 6.65 -0.3 7.5 -1.85 7.1 -3.45 4.1 -3.75 -1.25 L-3.8 -4.25 -3.8 -4.65 -3.8 -4.8"/><path fill="#78f5f5" fill-opacity="0.2" d="M-5.8 -4.6 L-5.85 -4.5 -5.85 -4.25 -5.8 -1.1 Q-5.4 4.8 -3.6 8.1 L-3.1 8.7 -2.4 9.1 Q0.15 9.75 2.0 8.3 L2.1 8.25 Q5.2 5.7 5.75 1.1 L5.8 1.05 Q6.0 -1.2 5.2 -3.25 4.6 -4.85 3.45 -6.3 L2.2 -7.65 1.85 -7.9 Q-0.35 -9.3 -2.15 -9.25 L-2.9 -9.1 Q-4.1 -8.6 -5.0 -7.3 L-4.95 -7.35 Q-5.7 -6.3 -5.8 -4.9 L-5.8 -4.75 -5.8 -4.6"/><path fill="none" stroke="#ffffff" stroke-width="0.5" stroke-opacity="0.219607843137" d="M-5.8 -4.6 L-5.85 -4.5 -5.85 -4.25 -5.8 -1.1 Q-5.4 4.8 -3.6 8.1 L-3.1 8.7 -2.4 9.1 Q0.15 9.75 2.0 8.3 L2.1 8.25 Q5.2 5.7 5.75 1.1 L5.8 1.05 Q6.0 -1.2 5.2 -3.25 4.6 -4.85 3.45 -6.3 L2.2 -7.65 1.85 -7.9 Q-0.35 -9.3 -2.15 -9.25 L-2.9 -9.1 Q-4.1 -8.6 -5.0 -7.3 L-4.95 -7.35 Q-5.7 -6.3 -5.8 -4.9 L-5.8 -4.75 -5.8 -4.6"/></g><g id="c40"><g><use transform="matrix(1.0,0.0,0.0,1.0,0.0,0.0)" xlink:href="#c39"/></g></g><g id="c41"><path fill="#cebea4" stroke="none" d="M0.35 -2.25 L-0.4 -2.75 Q-1.15 -3.2 -2.85 -3.05 -4.2 -3.0 -4.1 -0.2 -3.55 0.85 -1.75 1.4 -1.05 1.7 -0.45 1.95 -1.4 -1.2 0.35 -2.25"/><path fill="#e6dfd8" stroke="none" d="M-0.45 1.95 L2.3 2.95 Q3.4 3.35 4.2 2.6 5.0 1.8 3.75 0.65 L0.95 -1.55 0.35 -2.25 Q-1.4 -1.2 -0.45 1.95"/><path fill="none" stroke="#000000" stroke-width="0.5" stroke-opacity="0.498039215686" d="M0.35 -2.25 L-0.4 -2.75 Q-1.15 -3.2 -2.85 -3.05 -4.2 -3.0 -4.1 -0.2 -3.55 0.85 -1.75 1.4 -1.05 1.7 -0.45 1.95 L2.3 2.95 Q3.4 3.35 4.2 2.6 5.0 1.8 3.75 0.65 L0.95 -1.55 0.35 -2.25"/><path fill="#78f5f5" fill-opacity="0.2" d="M5.55 1.2 L4.8 0.3 1.55 -2.3 0.8 -3.1 -0.15 -3.75 Q-1.15 -4.4 -3.4 -4.15 -4.65 -4.15 -5.2 -2.85 -5.6 -1.95 -5.55 -0.05 L-5.45 0.25 Q-4.7 1.65 -2.35 2.4 L-0.85 3.0 2.25 4.2 Q5.35 2.9 5.55 1.2"/><path fill="none" stroke="#ffffff" stroke-width="0.5" stroke-opacity="0.219607843137" d="M5.55 1.2 L4.8 0.3 1.55 -2.3 0.8 -3.1 -0.15 -3.75 Q-1.15 -4.4 -3.4 -4.15 -4.65 -4.15 -5.2 -2.85 -5.6 -1.95 -5.55 -0.05 L-5.45 0.25 Q-4.7 1.65 -2.35 2.4 L-0.85 3.0 2.25 4.2"/></g><g id="c42"><g><use transform="matrix(1.0,0.0,0.0,1.0,0.0,0.0)" xlink:href="#c41"/></g></g><radialGradient gradientUnits="userSpaceOnUse" r="819.2" cx="0" cy="0" spreadMethod="pad" gradientTransform="matrix(-0.0133819580078,0.0,0.0,0.0133819580078,-1.75,-2.25)" id="gradient4"><stop offset="0.63137254902" stop-color="#e6dfd8"/><stop offset="1.0" stop-color="#cebea4"/></radialGradient><g id="c43"><path fill="#cebea4" stroke="none" d="M-9.05 6.35 Q-8.6 8.25 -7.65 9.65 -5.85 12.15 -2.7 13.65 0.0 14.8 2.95 15.05 6.7 15.4 9.35 12.3 9.85 11.0 9.75 9.55 9.55 7.45 8.2 4.15 L7.2 2.2 Q7.9 5.6 6.1 7.6 0.85 13.3 -9.05 6.35"/><path stroke="none" fill="url(#gradient4)" d="M7.2 2.2 Q4.8 -1.65 -0.65 -5.25 -7.45 -9.75 -8.95 -5.25 -10.45 -0.75 -9.05 6.3 L-9.05 6.35 Q0.85 13.3 6.1 7.6 7.9 5.6 7.2 2.2"/><path fill="none" stroke="#000000" stroke-width="0.5" stroke-opacity="0.498039215686" d="M7.2 2.2 Q4.8 -1.65 -0.65 -5.25 -7.45 -9.75 -8.95 -5.25 -10.45 -0.75 -9.05 6.3 L-9.05 6.35 Q-8.6 8.25 -7.65 9.65 -5.85 12.15 -2.7 13.65 M2.95 15.05 Q6.7 15.4 9.35 12.3 M8.2 4.15 L7.2 2.2"/><path fill="#cebea4" stroke="none" d="M-7.05 -10.5 Q-5.7 -11.55 -2.7 -9.95 0.35 -8.45 1.8 -10.8 L1.7 -11.2 Q-0.95 -16.0 -3.95 -14.75 -5.75 -13.1 -7.05 -10.5"/><path fill="#e6dfd8" stroke="none" d="M1.8 -10.8 Q0.35 -8.45 -2.7 -9.95 -5.7 -11.55 -7.05 -10.5 -8.4 -7.95 -9.25 -4.5 -3.65 -1.95 2.35 -2.55 3.2 -6.8 1.8 -10.8"/><path fill="none" stroke="#000000" stroke-width="0.5" stroke-opacity="0.498039215686" d="M-7.05 -10.5 Q-5.75 -13.1 -3.95 -14.75 M1.7 -11.2 L1.8 -10.8 Q3.2 -6.8 2.35 -2.55 M-9.25 -4.5 Q-8.4 -7.95 -7.05 -10.5"/><path fill="#990000" stroke="none" d="M-7.65 -4.8 Q-7.2 -3.45 -7.4 -2.65 -7.55 -1.9 -7.85 -1.5 L-8.35 -0.55 -8.6 0.85 -8.5 1.95 Q-8.35 2.7 -7.85 3.25 L-6.9 3.85 -5.65 3.65 -5.05 3.15 Q-4.75 2.6 -4.7 1.85 -4.65 1.25 -4.9 0.6 -5.15 0.05 -5.75 -0.15 L-6.6 -0.05 -6.95 0.6 Q-6.3 0.3 -5.8 0.95 -5.45 1.5 -5.75 2.1 L-6.15 2.3 -6.8 2.3 -7.4 1.75 Q-7.65 1.35 -7.55 0.8 L-7.2 -0.5 -6.8 -1.4 -6.5 -2.3 Q-6.4 -2.8 -6.65 -3.5 -6.95 -4.25 -7.65 -4.8"/><path fill="#990000" stroke="none" d="M-6.1 6.6 Q-6.4 5.15 -7.5 4.35 -8.05 6.5 -5.8 9.15 -5.8 8.1 -6.1 6.6"/><path fill="#990000" stroke="none" d="M5.15 5.0 Q4.6 5.7 3.45 5.6 2.35 5.45 1.4 4.6 0.4 3.8 0.15 2.7 -0.15 1.6 0.45 1.0 1.0 0.25 2.1 0.3 3.2 0.45 4.2 1.3 5.2 2.15 5.45 3.2 5.75 4.35 5.15 5.0 M6.0 5.35 Q6.75 4.35 6.35 2.75 5.95 1.25 4.65 0.1 3.25 -1.1 1.55 -1.35 0.1 -1.4 -0.75 -0.45 -1.55 0.55 -1.15 2.1 -0.75 3.6 0.55 4.75 1.95 5.95 3.6 6.15 5.1 6.25 6.0 5.35"/><path fill="#78f5f5" fill-opacity="0.2" d="M3.5 -12.15 Q-0.2 -18.85 -4.65 -16.6 L-5.25 -16.2 Q-7.3 -14.35 -8.8 -11.35 L-8.8 -11.4 Q-10.15 -8.85 -11.0 -5.45 L-11.0 -5.55 Q-12.55 -0.8 -11.05 6.55 L-11.0 6.85 Q-10.55 9.1 -9.3 10.85 -7.25 13.75 -3.6 15.5 L-3.55 15.55 Q-0.55 16.8 2.7 17.1 L2.75 17.1 Q7.5 17.55 10.8 13.65 L11.15 13.1 Q11.85 11.35 11.7 9.45 11.55 7.1 10.0 3.45 9.6 2.35 8.8 1.2 L8.8 1.15 Q7.3 -1.35 4.6 -3.75 5.05 -7.55 3.8 -11.2 L3.8 -11.25 3.6 -11.95 3.5 -12.15"/><path fill="none" stroke="#ffffff" stroke-width="0.5" stroke-opacity="0.219607843137" d="M3.5 -12.15 Q-0.2 -18.85 -4.65 -16.6 L-5.25 -16.2 Q-7.3 -14.35 -8.8 -11.35 L-8.8 -11.4 Q-10.15 -8.85 -11.0 -5.45 L-11.0 -5.55 Q-12.55 -0.8 -11.05 6.55 L-11.0 6.85 Q-10.55 9.1 -9.3 10.85 -7.25 13.75 -3.6 15.5 L-3.55 15.55 Q-0.55 16.8 2.7 17.1 L2.75 17.1 Q7.5 17.55 10.8 13.65 L11.15 13.1 Q11.85 11.35 11.7 9.45 11.55 7.1 10.0 3.45 9.6 2.35 8.8 1.2 L8.8 1.15 Q7.3 -1.35 4.6 -3.75 5.05 -7.55 3.8 -11.2 L3.8 -11.25 3.6 -11.95 3.5 -12.15"/></g><g id="c44"><g><use transform="matrix(1.0,0.0,0.0,1.0,0.0,0.0)" xlink:href="#c43"/></g></g><g id="c45"><path fill="#aa9c87" stroke="none" d="M2.0 2.65 Q1.4 -1.6 3.95 -3.0 L-3.95 -2.1 Q-2.5 0.05 -3.2 1.6 -0.95 3.75 2.0 2.65"/><path fill="none" stroke="#000000" stroke-width="0.5" stroke-opacity="0.498039215686" d="M2.0 2.65 Q1.4 -1.6 3.95 -3.0 L-3.95 -2.1 Q-2.5 0.05 -3.2 1.6"/><path fill="#78f5f5" fill-opacity="0.2" d="M6.2 -3.4 Q2.85 -1.95 4.05 2.45 -0.85 4.4 -5.25 1.55 -4.85 -0.1 -5.55 -2.15 L6.2 -3.4"/><path fill="none" stroke="#ffffff" stroke-width="0.5" stroke-opacity="0.219607843137" d="M4.05 2.45 Q2.85 -1.95 6.2 -3.4 M-5.55 -2.15 Q-4.85 -0.1 -5.25 1.55"/></g><g id="c46"><g><use transform="matrix(1.0,0.0,0.0,1.0,0.0,0.0)" xlink:href="#c45"/></g></g><g id="c47"><path fill="#e6dfd8" stroke="none" d="M1.05 -1.2 L-0.6 -1.55 Q-1.25 -1.9 -1.6 -0.75 -1.9 0.45 -0.35 1.45 1.15 2.5 2.05 1.75 2.95 1.0 2.5 0.0 L1.7 -1.2 1.05 -1.2"/><path fill="none" stroke="#000000" stroke-width="0.5" stroke-opacity="0.498039215686" d="M1.05 -1.2 L-0.6 -1.55 Q-1.25 -1.9 -1.6 -0.75 -1.9 0.45 -0.35 1.45 1.15 2.5 2.05 1.75 2.95 1.0 2.5 0.0 L1.7 -1.2"/><path fill="#e6dfd8" stroke="none" d="M-0.05 -0.6 Q0.2 -1.85 -0.6 -2.05 L-1.05 -2.4 -1.5 -2.45 Q-2.15 -2.75 -2.45 -2.1 -3.05 0.4 -1.45 1.25 -1.0 1.5 -0.3 1.25 0.15 0.0 -0.05 -0.6"/><path fill="none" stroke="#000000" stroke-width="0.5" stroke-opacity="0.498039215686" d="M-0.05 -0.6 Q0.2 -1.85 -0.6 -2.05 L-1.05 -2.4 -1.5 -2.45 Q-2.15 -2.75 -2.45 -2.1 -3.05 0.4 -1.45 1.25 -1.0 1.5 -0.3 1.25"/><path fill="#78f5f5" fill-opacity="0.2" d="M0.95 -2.65 L0.3 -3.1 -0.45 -3.55 -0.55 -3.55 -1.15 -3.65 Q-1.8 -3.9 -2.35 -3.65 -3.2 -3.45 -3.65 -2.45 L-3.75 -2.15 Q-4.55 1.35 -2.1 2.4 L-2.05 2.45 -0.8 2.55 Q1.65 4.65 3.15 3.0 4.6 1.4 3.45 -0.65 L3.4 -0.7 2.6 -1.8 0.95 -2.65"/><path fill="none" stroke="#ffffff" stroke-width="0.5" stroke-opacity="0.219607843137" d="M0.95 -2.65 L0.3 -3.1 -0.45 -3.55 -0.55 -3.55 -1.15 -3.65 Q-1.8 -3.9 -2.35 -3.65 -3.2 -3.45 -3.65 -2.45 L-3.75 -2.15 Q-4.55 1.35 -2.1 2.4 L-2.05 2.45 -0.8 2.55 Q1.65 4.65 3.15 3.0 4.6 1.4 3.45 -0.65 L3.4 -0.7 2.6 -1.8"/></g><g id="c48"><g><use transform="matrix(1.0,0.0,0.0,1.0,0.0,0.0)" xlink:href="#c47"/></g></g><g id="c49"><path fill="#cebea4" stroke="none" d="M-2.2 1.95 L-2.05 3.1 Q-1.7 5.0 -0.9 5.7 0.3 6.1 0.95 5.5 1.6 4.9 1.75 4.05 0.05 5.3 -2.2 1.95"/><path fill="#e5d4ba" stroke="none" d="M1.75 4.05 L1.75 4.0 Q1.9 3.1 1.45 0.3 2.05 -1.1 2.15 -3.1 2.5 -3.75 2.35 -4.35 L1.4 -5.25 Q0.6 -6.1 -0.35 -5.7 -2.4 -6.4 -2.25 -0.65 -2.55 0.55 -2.2 1.95 0.05 5.3 1.75 4.05 M-0.35 -5.7 Q0.45 -5.25 0.05 -3.75 0.45 -5.25 -0.35 -5.7 M1.4 -5.25 Q1.75 -4.5 1.45 -3.55 1.75 -4.5 1.4 -5.25"/><path fill="none" stroke="#000000" stroke-width="0.5" stroke-opacity="0.498039215686" d="M1.75 4.05 L1.75 4.0 Q1.9 3.1 1.45 0.3 2.05 -1.1 2.15 -3.1 2.5 -3.75 2.35 -4.35 L1.4 -5.25 Q0.6 -6.1 -0.35 -5.7 -2.4 -6.4 -2.25 -0.65 M-2.05 3.1 Q-1.7 5.0 -0.9 5.7 0.3 6.1 0.95 5.5 1.6 4.9 1.75 4.05 M1.45 -3.55 Q1.75 -4.5 1.4 -5.25 M0.05 -3.75 Q0.45 -5.25 -0.35 -5.7"/><path fill="#78f5f5" fill-opacity="0.2" d="M-3.35 5.8 L-2.3 7.2 -1.65 7.6 Q0.85 8.5 2.25 7.05 L2.3 7.0 Q3.4 5.95 3.7 4.4 L3.7 4.3 Q3.9 3.35 3.45 0.6 3.95 -0.8 4.1 -2.6 4.6 -3.8 4.15 -5.0 L4.1 -5.2 Q3.6 -6.25 2.55 -6.85 1.15 -8.2 -0.45 -7.8 -2.25 -8.2 -3.35 -6.35 -5.2 0.2 -3.35 5.8"/><path fill="none" stroke="#ffffff" stroke-width="0.5" stroke-opacity="0.219607843137" d="M-3.35 5.8 L-2.3 7.2 -1.65 7.6 Q0.85 8.5 2.25 7.05 L2.3 7.0 Q3.4 5.95 3.7 4.4 L3.7 4.3 Q3.9 3.35 3.45 0.6 3.95 -0.8 4.1 -2.6 4.6 -3.8 4.15 -5.0 L4.1 -5.2 Q3.6 -6.25 2.55 -6.85 1.15 -8.2 -0.45 -7.8 -2.25 -8.2 -3.35 -6.35"/></g><g id="c50"><g><use transform="matrix(1.0,0.0,0.0,1.0,0.0,0.0)" xlink:href="#c49"/></g></g><g id="c51"><path fill="#e6dfd8" stroke="none" d="M1.45 -1.1 Q0.95 -3.4 -0.4 -3.85 -1.75 -4.35 -3.05 -2.85 -3.65 -2.85 -3.05 0.9 -2.1 0.75 -0.65 1.45 0.8 0.3 1.45 -1.1"/><path fill="none" stroke="#000000" stroke-width="0.5" stroke-opacity="0.498039215686" d="M1.45 -1.1 Q0.95 -3.4 -0.4 -3.85 -1.75 -4.35 -3.05 -2.85 M-3.05 0.9 Q-2.1 0.75 -0.65 1.45"/><path fill="#e6dfd8" stroke="none" d="M0.85 3.95 Q2.15 2.5 2.5 1.1 2.05 -0.7 1.4 -1.6 -1.05 -2.25 -2.85 0.15 -0.85 3.0 0.85 3.95"/><path fill="none" stroke="#000000" stroke-width="0.5" stroke-opacity="0.498039215686" d="M2.5 1.1 Q2.05 -0.7 1.4 -1.6 M-2.85 0.15 Q-0.85 3.0 0.85 3.95"/><path fill="#78f5f5" fill-opacity="0.2" d="M3.3 -1.5 L2.9 -2.25 Q2.1 -4.8 0.2 -5.25 -1.55 -6.0 -2.65 -4.35 L-2.8 -4.1 Q-3.95 0.05 -2.8 2.75 -1.45 4.65 -0.2 5.3 L0.55 5.5 Q4.0 1.5 3.3 -1.5"/><path fill="none" stroke="#ffffff" stroke-width="0.5" stroke-opacity="0.219607843137" d="M3.3 -1.5 L2.9 -2.25 Q2.1 -4.8 0.2 -5.25 -1.55 -6.0 -2.65 -4.35 L-2.8 -4.1 M-2.8 2.75 Q-1.45 4.65 -0.2 5.3 L0.55 5.5"/></g><g id="c52"><g><use transform="matrix(1.0,0.0,0.0,1.0,0.0,0.0)" xlink:href="#c51"/></g></g><g id="c53"><path fill="#e6dfd8" stroke="none" d="M0.85 -1.5 L0.6 -1.85 0.15 -2.0 -0.35 -2.1 -1.0 -1.35 -1.1 0.35 Q-1.05 1.45 -0.35 2.15 0.65 1.95 1.05 1.4 L1.25 0.15 1.3 -0.85 0.85 -1.5 Q0.05 -1.6 0.0 -1.0 0.05 -1.6 0.85 -1.5 M-0.45 -1.35 Q-0.4 -1.85 0.05 -1.95 L0.15 -2.0 0.05 -1.95 Q-0.4 -1.85 -0.45 -1.35"/><path fill="none" stroke="#000000" stroke-width="0.5" stroke-opacity="0.498039215686" d="M0.85 -1.5 L0.6 -1.85 0.15 -2.0 -0.35 -2.1 -1.0 -1.35 -1.1 0.35 Q-1.05 1.45 -0.35 2.15 0.65 1.95 1.05 1.4 L1.25 0.15 1.3 -0.85 0.85 -1.5 Q0.05 -1.6 0.0 -1.0 M0.15 -2.0 L0.05 -1.95 Q-0.4 -1.85 -0.45 -1.35"/><path fill="#78f5f5" fill-opacity="0.2" d="M0.55 3.7 Q1.4 3.4 1.85 2.75 2.25 2.05 2.15 0.4 2.45 -0.65 2.35 -1.4 2.2 -2.2 1.45 -2.6 L0.95 -3.4 0.2 -3.6 -0.75 -3.75 Q-1.5 -3.55 -1.95 -2.4 L-2.2 0.2 -2.35 0.3 Q-1.9 2.7 0.55 3.7"/><path fill="none" stroke="#ffffff" stroke-width="0.5" stroke-opacity="0.219607843137" d="M0.55 3.7 Q1.4 3.4 1.85 2.75 2.25 2.05 2.15 0.4 2.45 -0.65 2.35 -1.4 2.2 -2.2 1.45 -2.6 L0.95 -3.4 0.2 -3.6 -0.75 -3.75 Q-1.5 -3.55 -1.95 -2.4 L-2.2 0.2"/></g><g id="c54"><g><use transform="matrix(1.0,0.0,0.0,1.0,0.0,0.0)" xlink:href="#c53"/></g></g><g id="c55"><path fill="#e6dfd8" stroke="none" d="M-3.15 2.25 Q-2.65 2.9 -1.65 2.55 0.1 2.0 3.0 -1.15 2.95 -2.4 1.65 -3.1 L0.2 -2.35 -1.85 -1.65 Q-3.55 -0.25 -3.15 2.25"/><path fill="none" stroke="#000000" stroke-width="0.5" stroke-opacity="0.498039215686" d="M-3.15 2.25 Q-2.65 2.9 -1.65 2.55 0.1 2.0 3.0 -1.15 M1.65 -3.1 L0.2 -2.35 -1.85 -1.65"/><path fill="#78f5f5" fill-opacity="0.2" d="M0.6 -4.15 L0.4 -4.05 -0.55 -3.65 -1.55 -3.25 Q-3.1 -0.45 -3.5 3.65 -2.5 4.35 -0.9 3.9 0.85 3.4 3.5 0.55 2.95 -2.55 0.6 -4.15"/><path fill="none" stroke="#ffffff" stroke-width="0.5" stroke-opacity="0.219607843137" d="M0.6 -4.15 L0.4 -4.05 -0.55 -3.65 -1.55 -3.25 M-3.5 3.65 Q-2.5 4.35 -0.9 3.9 0.85 3.4 3.5 0.55"/></g><g id="c56"><g><use transform="matrix(1.0,0.0,0.0,1.0,0.0,0.0)" xlink:href="#c55"/></g></g><g id="c57"><path fill="#cebea4" stroke="none" d="M1.55 1.7 Q-2.65 3.5 -5.9 0.6 -7.2 3.65 -2.75 5.55 -0.8 5.45 0.7 4.2 L1.55 1.7"/><path fill="#e5d4ba" stroke="none" d="M-5.5 -2.95 Q-6.9 -1.75 -5.9 0.6 -2.65 3.5 1.55 1.7 L1.9 -1.15 Q0.65 -5.7 -1.65 -6.25 -3.5 -5.65 -4.85 -3.9 L-5.5 -2.95"/><path fill="none" stroke="#000000" stroke-width="0.5" stroke-opacity="0.498039215686" d="M-5.5 -2.95 L-4.85 -3.9 Q-3.5 -5.65 -1.65 -6.25 0.65 -5.7 1.9 -1.15 L1.55 1.7 M-2.75 5.55 Q-0.8 5.45 0.7 4.2 L1.55 1.7"/><path fill="#e5d4ba" stroke="none" d="M-0.5 3.55 Q-0.5 5.15 0.4 5.75 L2.15 5.95 Q3.0 5.6 3.15 4.95 L3.25 1.0 Q4.4 -0.75 4.7 -2.3 5.55 -3.85 4.5 -4.5 3.9 -5.65 2.85 -5.1 1.25 -5.7 0.0 -0.4 L-0.5 3.55 M4.5 -4.5 Q4.55 -3.8 4.25 -3.05 4.55 -3.8 4.5 -4.5 M2.85 -5.1 Q3.55 -4.3 3.15 -3.45 3.55 -4.3 2.85 -5.1"/><path fill="none" stroke="#000000" stroke-width="0.5" stroke-opacity="0.498039215686" d="M-0.5 3.55 Q-0.5 5.15 0.4 5.75 L2.15 5.95 Q3.0 5.6 3.15 4.95 L3.25 1.0 Q4.4 -0.75 4.7 -2.3 5.55 -3.85 4.5 -4.5 3.9 -5.65 2.85 -5.1 1.25 -5.7 0.0 -0.4 M3.15 -3.45 Q3.55 -4.3 2.85 -5.1 M4.25 -3.05 Q4.55 -3.8 4.5 -4.5"/><path fill="#78f5f5" fill-opacity="0.2" d="M-5.95 -5.7 Q-8.85 2.1 -4.6 6.2 -2.9 7.45 -0.95 7.3 L-0.75 7.45 Q1.15 8.7 2.85 7.85 4.8 7.05 5.05 5.5 5.25 4.8 5.25 1.6 6.2 -0.1 6.55 -1.55 7.2 -2.85 7.05 -3.75 6.95 -4.95 6.0 -5.75 4.65 -8.0 2.5 -7.15 L1.05 -6.9 Q0.05 -7.9 -1.2 -8.15 L-2.35 -8.1 Q-4.35 -7.45 -5.95 -5.7"/><path fill="none" stroke="#ffffff" stroke-width="0.5" stroke-opacity="0.219607843137" d="M-5.95 -5.7 Q-4.35 -7.45 -2.35 -8.1 L-1.2 -8.15 Q0.05 -7.9 1.05 -6.9 L2.5 -7.15 Q4.65 -8.0 6.0 -5.75 6.95 -4.95 7.05 -3.75 7.2 -2.85 6.55 -1.55 6.2 -0.1 5.25 1.6 5.25 4.8 5.05 5.5 4.8 7.05 2.85 7.85 1.15 8.7 -0.75 7.45 L-0.95 7.3"/></g><g id="c58"><g><use transform="matrix(1.0,0.0,0.0,1.0,0.0,0.0)" xlink:href="#c57"/></g></g><g id="c59"><g><use transform="matrix(0.639984130859,0.0,0.0,0.639984130859,0.0,-0.05)" xlink:href="#c36"/></g><g><use transform="matrix(0.639984130859,0.0,0.0,0.639984130859,-1.1,-7.25)" xlink:href="#c38"/></g><g><use transform="matrix(0.639984130859,0.0,0.0,0.639984130859,0.25,-24.55)" xlink:href="#c40"/></g><g><use transform="matrix(0.639984130859,0.0,0.0,0.639984130859,-3.75,-35.25)" xlink:href="#c42"/></g><g><use transform="matrix(0.639984130859,0.0,0.0,0.639984130859,-5.55,-27.95)" xlink:href="#c44"/></g><g><use transform="matrix(0.639984130859,0.0,0.0,0.639984130859,-6.6,-37.8)" xlink:href="#c46"/></g><g><use transform="matrix(0.639984130859,0.0,0.0,0.639984130859,-2.3,-33.85)" xlink:href="#c48"/></g><g><use transform="matrix(0.639984130859,0.0,0.0,0.639984130859,2.1,-24.35)" xlink:href="#c50"/></g><g><use transform="matrix(0.639984130859,0.0,0.0,0.639984130859,-7.6,-32.95)" xlink:href="#c52"/></g><g><use transform="matrix(0.639984130859,0.0,0.0,0.639984130859,-3.6,-33.95)" xlink:href="#c54"/></g><g><use transform="matrix(0.639984130859,0.0,0.0,0.639984130859,-5.3,-32.0)" xlink:href="#c56"/></g><g><use transform="matrix(0.639984130859,0.0,0.0,0.639984130859,-4.45,-22.5)" xlink:href="#c58"/></g><g><use transform="matrix(0.639984130859,0.0,0.0,0.639984130859,-3.15,-54.95)" xlink:href="#c25"/></g></g><g id="c60"><g><use transform="matrix(1.0,0.0,0.0,1.0,6.3,53.35)" xlink:href="#c34"/></g><g><use transform="matrix(0.285385131836,-0.0721282958984,0.0721282958984,0.285385131836,30.6,83.4)" xlink:href="#c59"/></g><g><use transform="matrix(0.141098022461,-0.0378112792969,0.111373901367,0.225646972656,27.2,74.05)" filter="url(#filter60)" xlink:href="#c31"/></g></g><filter id="filter60"><feColorMatrix in="SourceGraphic" type="matrix" values="1.0 0.0 0.0 0.0 0.0 0.0 1.0 0.0 0.0 0.0 0.0 0.0 1.0 0.0 0.0 0.0 0.0 0.0 0.23046875 0.0" result="cxform"/><feComposite operator="in" in2="SourceGraphic" result="color-xform"/></filter></defs><g><g><use transform="matrix(1.0,0.0,0.0,1.0,0.0,0.0)" xlink:href="#c26"/></g><g><use transform="matrix(1.15496826172,0.0,0.0,1.15496826172,-1.55,-56.9)" xlink:href="#c60"/></g></g></svg>