<?xml version="1.0" encoding="UTF-8" standalone="no"?>
<svg xmlns:xlink="http://www.w3.org/1999/xlink" height="60.0px" width="60.0px" xmlns="http://www.w3.org/2000/svg">
  <g transform="matrix(1.0, 0.0, 0.0, 1.0, 0.0, 0.0)">
    <use height="60.0" transform="matrix(1.0, 0.0, 0.0, 1.0, 0.0, 0.0)" width="60.0" xlink:href="#shape0"/>
    <use height="44.85" transform="matrix(1.155, 0.0, 0.0, 1.155, 5.1221, 2.0034)" width="42.8" xlink:href="#sprite0"/>
  </g>
  <defs>
    <g id="shape0" transform="matrix(1.0, 0.0, 0.0, 1.0, 0.0, 0.0)">
      <path d="M0.0 0.0 L60.0 0.0 60.0 60.0 0.0 60.0 0.0 0.0" fill="#000000" fill-opacity="0.003921569" fill-rule="evenodd" stroke="none"/>
    </g>
    <g id="sprite0" transform="matrix(1.0, 0.0, 0.0, 1.0, -5.95, -51.0)">
      <use height="41.05" transform="matrix(1.0, 0.0, 0.0, 1.0, 5.95, 54.8)" width="42.8" xlink:href="#sprite1"/>
      <clipPath id="clipPath0" transform="matrix(1.0, 0.0, 0.0, 1.0, 0.0, 0.0)">
        <path d="M46.35 90.05 L45.05 90.6 31.05 95.1 18.7 90.15 7.5 65.15 Q6.55 63.0 7.25 61.65 7.6 61.0 8.3 60.5 8.95 60.05 9.95 59.7 L23.65 55.3 36.35 60.35 47.5 85.05 Q49.1 88.5 46.35 90.05" fill="#003333" fill-rule="evenodd" stroke="none"/>
      </clipPath>
      <g clip-path="url(#clipPath0)">
        <use height="0.0" transform="matrix(1.0, 0.0, 0.0, 1.0, 6.45, 53.4)" width="0.0" xlink:href="#sprite5"/>
      </g>
      <use height="21.1" transform="matrix(1.0, 0.0, 0.0, 1.0, 18.65, 63.4)" width="18.35" xlink:href="#shape5"/>
      <use height="34.55" transform="matrix(0.4658, -0.3351, 0.3351, 0.4658, 14.1774, 70.933)" width="29.25" xlink:href="#sprite6"/>
      <use height="34.8" transform="matrix(0.3013, 0.0492, -0.0387, 0.2371, 24.5, 65.85)" width="34.8" xlink:href="#sprite7"/>
      <use height="20.95" transform="matrix(0.3578, -0.1873, -0.1873, -0.4233, 24.95, 76.7)" width="24.45" xlink:href="#sprite8"/>
      <use height="34.8" transform="matrix(0.1206, -0.0456, 0.0188, 0.0497, 21.65, 65.65)" width="34.8" xlink:href="#sprite7"/>
      <use height="34.8" transform="matrix(0.2312, 0.0377, -0.0297, 0.1819, 21.8, 76.45)" width="34.8" xlink:href="#sprite7"/>
      <use height="40.2" transform="matrix(1.0, 0.0, 0.0, 1.0, 6.25, 55.25)" width="42.1" xlink:href="#shape9"/>
      <clipPath id="clipPath1" transform="matrix(1.0, 0.0, 0.0, 1.0, 0.0, 0.0)">
        <path d="M46.35 90.05 L45.05 90.6 31.05 95.1 18.7 90.15 7.5 65.15 Q6.55 63.0 7.25 61.65 7.6 61.0 8.3 60.5 8.95 60.05 9.95 59.7 L23.65 55.3 36.35 60.35 47.5 85.05 Q49.1 88.5 46.35 90.05" fill="#003333" fill-rule="evenodd" stroke="none"/>
      </clipPath>
      <g clip-path="url(#clipPath1)">
        <use height="0.0" transform="matrix(1.0, 0.0, 0.0, 1.0, 9.65, 51.0)" width="0.0" xlink:href="#sprite9"/>
        <use height="0.0" transform="matrix(1.0, 0.0, 0.0, 1.0, 9.65, 51.0)" width="0.0" xlink:href="#sprite9"/>
        <use height="30.6" transform="matrix(1.0, 0.0, 0.0, 1.0, 14.7, 59.4)" width="27.15" xlink:href="#shape10"/>
      </g>
      <use height="0.0" transform="matrix(0.1411, -0.0378, 0.1114, 0.2256, 27.2, 74.05)" width="0.0" xlink:href="#sprite3"/>
    </g>
    <g id="sprite1" transform="matrix(1.0, 0.0, 0.0, 1.0, 0.35, -1.45)">
      <use height="13.75" transform="matrix(0.2389, -0.0867, 0.1003, 0.2339, 34.25, 31.15)" width="15.1" xlink:href="#sprite2"/>
      <use height="13.75" transform="matrix(0.2389, -0.0867, 0.1003, 0.2339, 4.25, 10.3)" width="15.1" xlink:href="#sprite2"/>
      <use height="43.05" transform="matrix(1.0, 0.0, 0.0, 1.0, -1.35, 0.45)" width="44.8" xlink:href="#shape2"/>
      <use height="13.75" transform="matrix(0.2389, -0.0867, 0.1003, 0.2339, 34.25, 31.15)" width="15.1" xlink:href="#sprite2"/>
      <use height="13.75" transform="matrix(0.2389, -0.0867, 0.1003, 0.2339, 4.25, 10.3)" width="15.1" xlink:href="#sprite2"/>
      <use height="0.0" transform="matrix(0.1411, -0.0378, 0.1114, 0.2256, 20.25, 20.65)" width="0.0" xlink:href="#sprite3"/>
      <use height="211.45" transform="matrix(-0.155, 0.0513, 0.0842, 0.147, 22.6042, 3.1574)" width="136.6" xlink:href="#sprite4"/>
    </g>
    <g id="sprite2" transform="matrix(1.0, 0.0, 0.0, 1.0, 0.0, 0.0)">
      <use height="13.75" transform="matrix(1.0, 0.0, 0.0, 1.0, 0.0, 0.0)" width="15.1" xlink:href="#shape1"/>
    </g>
    <g id="shape1" transform="matrix(1.0, 0.0, 0.0, 1.0, 0.0, 0.0)">
      <path d="M10.75 4.9 Q10.75 4.6 10.9 4.35 11.25 3.45 11.95 2.75 13.3 1.5 14.35 2.1 15.4 2.7 14.95 4.45 14.7 5.4 14.1 6.15 L13.75 6.5 Q13.1 7.15 12.35 7.35 L11.4 7.2 Q10.95 6.9 10.75 6.4 10.5 5.75 10.75 4.9 M7.5 5.9 Q7.0 5.85 6.6 5.5 6.05 5.0 5.8 4.15 L5.7 3.6 Q5.55 2.65 5.8 1.7 6.25 0.0 7.5 0.0 L7.6 0.0 Q8.85 0.0 9.3 1.7 9.55 2.65 9.4 3.6 L9.3 4.15 8.5 5.5 7.6 5.9 7.5 5.9 M4.35 4.9 Q4.6 5.75 4.35 6.4 L3.7 7.2 2.75 7.35 Q2.0 7.15 1.35 6.5 L1.0 6.15 Q0.4 5.4 0.15 4.45 -0.3 2.7 0.75 2.1 1.8 1.5 3.15 2.75 3.85 3.45 4.2 4.35 L4.35 4.9 M5.5 13.7 Q4.45 13.9 3.65 12.95 2.75 12.0 3.2 10.25 3.7 8.5 5.25 7.6 6.4 6.9 7.55 7.0 8.75 6.9 9.9 7.6 11.45 8.5 11.95 10.25 12.35 12.0 11.5 12.95 10.7 13.9 9.65 13.7 8.55 13.5 7.55 12.6 6.55 13.5 5.5 13.7" fill="#7fdbfe" fill-rule="evenodd" stroke="none"/>
    </g>
    <g id="shape2" transform="matrix(1.0, 0.0, 0.0, 1.0, 1.35, -0.45)">
      <path d="M11.85 37.0 L0.7 12.25 Q-0.45 9.75 0.75 8.25 1.2 7.6 2.15 7.15 2.8 6.7 3.8 6.35 L17.5 1.95 30.2 7.0 41.35 31.7 Q42.95 35.15 40.2 36.7 39.5 37.3 38.3 37.65 L25.5 41.8 25.45 41.75 24.55 42.0 11.85 37.0 Z" fill="none" stroke="#000000" stroke-linecap="round" stroke-linejoin="round" stroke-opacity="0.29803923" stroke-width="1.0"/>
      <path d="M35.55 22.3 L31.5 13.2 29.75 9.2 16.95 4.25 5.5 7.85 Q1.65 9.1 3.35 12.8 L8.25 23.65 13.1 34.35 25.8 39.4 37.2 35.7 Q41.1 34.5 39.35 30.75 L35.55 22.3 M2.15 7.15 Q2.8 6.7 3.8 6.35 L17.5 1.95 30.2 7.0 41.35 31.7 Q42.95 35.15 40.2 36.7 L38.9 37.25 25.2 41.65 12.5 36.65 5.45 20.95 1.35 11.8 Q0.4 9.65 1.1 8.3 1.45 7.65 2.15 7.15" fill="#ffcc00" fill-rule="evenodd" stroke="none"/>
      <path d="M31.5 13.2 L35.55 22.3 39.35 30.75 Q41.1 34.5 37.2 35.7 L25.8 39.4 13.1 34.35 8.25 23.65 3.35 12.8 Q1.65 9.1 5.5 7.85 L16.95 4.25 29.75 9.2 31.5 13.2 M18.5 7.45 L9.1 10.55 9.55 11.6 Q9.8 12.8 9.15 13.6 8.4 14.45 7.1 14.4 L6.8 14.4 6.95 14.6 15.2 32.75 23.85 36.2 34.0 32.9 33.7 32.1 Q33.45 30.9 34.1 30.1 34.75 29.3 35.95 29.35 L35.8 29.0 27.75 10.95 18.5 7.45" fill="#996600" fill-rule="evenodd" stroke="none"/>
      <path d="M27.75 10.95 L35.8 29.0 35.95 29.35 Q34.75 29.3 34.1 30.1 33.45 30.9 33.7 32.1 L34.0 32.9 23.85 36.2 15.2 32.75 6.95 14.6 6.8 14.4 7.1 14.4 Q8.4 14.45 9.15 13.6 9.8 12.8 9.55 11.6 L9.1 10.55 18.5 7.45 27.75 10.95" fill="#fcf2cf" fill-rule="evenodd" stroke="none"/>
      <path d="M0.75 8.25 Q1.2 7.6 2.15 7.15 1.45 7.65 1.1 8.3 L0.75 8.25" fill="#630a4c" fill-rule="evenodd" stroke="none"/>
      <path d="M4.6 20.9 L0.7 12.25 Q-0.45 9.75 0.75 8.25 L1.1 8.3 Q0.4 9.65 1.35 11.8 L5.45 20.95 4.6 20.9 M40.2 36.7 Q39.5 37.3 38.3 37.65 L25.5 41.8 25.45 41.75 24.55 42.0 11.85 37.0 11.55 36.25 12.5 36.65 25.2 41.65 38.9 37.25 40.2 36.7" fill="#5b3c00" fill-rule="evenodd" stroke="none"/>
      <path d="M11.55 36.25 L11.25 35.55 4.6 20.9 5.45 20.95 12.5 36.65 11.55 36.25" fill="#724b00" fill-rule="evenodd" stroke="none"/>
      <path d="M31.5 13.2 L35.55 22.3 M13.1 34.35 L8.25 23.65" fill="none" stroke="#ffaa00" stroke-linecap="round" stroke-linejoin="round" stroke-opacity="0.7490196" stroke-width="1.0"/>
      <path d="M35.55 22.3 L39.35 30.75 Q41.1 34.5 37.2 35.7 L25.8 39.4 13.1 34.35 M8.25 23.65 L3.35 12.8 Q1.65 9.1 5.5 7.85 L16.95 4.25 29.75 9.2 31.5 13.2" fill="none" stroke="#fcf2cf" stroke-linecap="round" stroke-linejoin="round" stroke-opacity="0.7490196" stroke-width="1.0"/>
      <path d="M27.75 10.95 L35.8 29.0 35.95 29.35 Q34.75 29.3 34.1 30.1 33.45 30.9 33.7 32.1 L34.0 32.9 23.85 36.2 15.2 32.75 6.95 14.6 6.8 14.4 7.1 14.4 Q8.4 14.45 9.15 13.6 9.8 12.8 9.55 11.6 L9.1 10.55 18.5 7.45" fill="none" stroke="#f0b92b" stroke-linecap="round" stroke-linejoin="round" stroke-width="0.05"/>
      <path d="M4.6 20.9 L0.7 12.25 Q-0.45 9.75 0.75 8.25 1.2 7.6 2.15 7.15 2.8 6.7 3.8 6.35 L17.5 1.95 M30.2 7.0 L41.35 31.7 Q42.95 35.15 40.2 36.7 39.5 37.3 38.3 37.65 L25.5 41.8 M11.25 35.55 L4.6 20.9 M5.45 20.95 L1.35 11.8 Q0.4 9.65 1.1 8.3 1.45 7.65 2.15 7.15 M12.5 36.65 L5.45 20.95 M40.2 36.7 L38.9 37.25 25.2 41.65" fill="none" stroke="#000000" stroke-linecap="round" stroke-linejoin="round" stroke-opacity="0.3019608" stroke-width="0.05"/>
      <path d="M18.5 7.45 L27.75 10.95" fill="none" stroke="#ffcc00" stroke-linecap="round" stroke-linejoin="round" stroke-opacity="0.7490196" stroke-width="0.05"/>
      <path d="M25.2 41.65 L12.5 36.65" fill="none" stroke="#432f2f" stroke-linecap="round" stroke-linejoin="round" stroke-width="0.05"/>
    </g>
    <g id="sprite4" transform="matrix(1.0, 0.0, 0.0, 1.0, 0.0, -0.05)">
      <use height="211.55" transform="matrix(1.0, 0.0, 0.0, 1.0, -0.05, 0.0)" width="136.7" xlink:href="#shape3"/>
    </g>
    <g id="shape3" transform="matrix(1.0, 0.0, 0.0, 1.0, 0.05, 0.0)">
      <path d="M136.55 165.8 L68.6 106.0 68.4 106.0 118.25 201.5 M68.2 105.7 L68.25 105.8 68.25 105.75 68.2 105.7 0.0 45.7 M68.25 105.8 L68.3 105.85 68.3 105.8 68.25 105.75 49.95 0.05 M0.05 97.7 L68.15 105.95 68.25 105.85 68.25 105.8 M68.3 105.85 L68.25 105.85 68.3 106.0 68.3 105.85 68.3 105.8 68.35 105.8 68.3 105.8 86.6 18.35 M50.0 193.2 L68.3 106.0 68.15 105.95 18.25 151.55 M68.4 106.0 L68.3 106.0 86.55 211.5 M68.4 106.0 L68.3 105.85 M68.6 106.0 L68.35 105.8 118.25 60.15 M136.6 114.25 L68.6 106.0 M68.2 105.7 L18.25 10.05" fill="none" stroke="url(#gradient0)" stroke-linecap="round" stroke-linejoin="round" stroke-width="0.05"/>
    </g>
    <radialGradient cx="0" cy="0" gradientTransform="matrix(0.2092, 0.0, 0.0, 0.1771, 67.15, 107.2)" gradientUnits="userSpaceOnUse" id="gradient0" r="819.2" spreadMethod="pad">
      <stop offset="0.3568627450980392" stop-color="#ffffff"/>
      <stop offset="0.6705882352941176" stop-color="#000000" stop-opacity="0.0"/>
    </radialGradient>
    <g id="shape5" transform="matrix(1.0, 0.0, 0.0, 1.0, -18.65, -63.4)">
      <path d="M21.7 66.9 L21.6 66.65 Q21.55 66.25 21.9 65.8 L22.1 65.5 Q22.7 64.85 23.85 64.45 L24.75 64.15 24.7 64.45 Q24.8 64.65 25.1 64.7 L25.85 64.6 26.4 64.25 Q26.8 64.35 27.0 64.65 L27.1 64.95 27.05 64.95 26.85 65.65 26.15 66.45 25.05 67.05 25.0 67.1 24.85 67.1 24.4 67.3 24.5 67.2 24.45 67.15 24.65 66.65 Q24.55 66.35 24.15 66.3 L23.4 66.4 22.8 66.85 Q22.55 67.1 22.7 67.35 L22.7 67.45 22.6 67.4 22.5 67.4 21.9 67.05 21.7 66.9" fill="#de961e" fill-rule="evenodd" stroke="none"/>
      <path d="M22.25 67.8 L21.7 66.9 21.9 67.05 22.5 67.4 22.6 67.4 22.7 67.45 23.2 67.85 23.35 67.9 Q23.7 68.1 23.95 67.9 L24.65 69.2 24.5 69.2 24.3 69.25 23.8 69.2 23.4 69.1 23.1 69.0 22.9 68.8 22.25 67.8" fill="#321e01" fill-rule="evenodd" stroke="none"/>
      <path d="M24.75 64.15 L25.3 64.35 25.95 64.35 26.4 64.25 25.85 64.6 25.1 64.7 Q24.8 64.65 24.7 64.45 L24.75 64.15 M24.05 70.7 L23.85 70.55 23.8 70.45 23.75 70.4 23.85 70.4 24.05 70.7" fill="#8a5702" fill-rule="evenodd" stroke="none"/>
      <path d="M27.3 65.8 L28.0 66.05 Q28.5 66.9 28.2 67.6 L27.15 68.7 Q26.7 69.05 25.85 69.2 25.0 69.4 24.5 69.2 L24.65 69.2 25.6 68.95 25.8 68.9 26.75 68.35 27.4 67.55 27.6 67.2 27.2 65.85 27.3 65.8" fill="#ffffff" fill-rule="evenodd" stroke="none"/>
      <path d="M27.2 65.85 L27.2 65.8 27.3 65.8 27.2 65.85" fill="#c7bb92" fill-opacity="0.5019608" fill-rule="evenodd" stroke="none"/>
      <path d="M27.05 64.95 L27.3 65.8 27.2 65.8 27.2 65.85 27.6 67.2 27.4 67.55 26.75 68.35 25.8 68.9 25.1 67.15 25.05 67.05 26.15 66.45 26.85 65.65 27.05 64.95" fill="#ab7018" fill-rule="evenodd" stroke="none"/>
      <path d="M24.4 67.3 L24.85 67.1 25.0 67.1 25.05 67.05 25.1 67.15 25.8 68.9 25.6 68.95 24.65 69.2 23.95 67.9 24.4 67.3" fill="#4a2d02" fill-rule="evenodd" stroke="none"/>
      <path d="M22.7 67.45 L22.7 67.35 Q22.55 67.1 22.8 66.85 L23.4 66.4 24.15 66.3 Q24.55 66.35 24.65 66.65 L24.45 67.15 24.5 67.2 24.4 67.3 23.95 67.9 Q23.7 68.1 23.35 67.9 L23.2 67.85 22.7 67.45" fill="#6a4302" fill-rule="evenodd" stroke="none"/>
      <path d="M28.0 66.05 L28.6 66.55 28.75 66.7 28.85 66.9 Q29.0 67.35 28.8 67.8 L28.25 68.55 27.9 68.9 28.25 68.55 28.8 67.8 Q29.9 67.95 31.0 68.45 L32.45 69.3 32.4 69.35 Q31.75 68.95 30.6 68.85 L28.45 68.85 27.95 68.95 27.9 68.9 27.85 68.95 27.65 69.15 26.05 70.0 25.5 70.0 Q24.8 69.85 24.65 69.6 L24.5 69.2 Q25.0 69.4 25.85 69.2 26.7 69.05 27.15 68.7 L28.2 67.6 Q28.5 66.9 28.0 66.05 M23.85 70.55 Q22.55 71.25 21.65 72.2 L20.85 73.5 21.3 72.1 Q21.75 71.0 22.5 70.15 L23.45 70.4 23.75 70.4 23.8 70.45 23.85 70.55" fill="#eadcc8" fill-rule="evenodd" stroke="none"/>
      <path d="M27.95 68.95 L28.45 68.85 30.6 68.85 Q31.75 68.95 32.4 69.35 L33.1 69.9 33.4 70.4 Q33.9 71.7 32.35 73.35 31.45 74.35 30.05 75.1 L28.25 75.95 25.4 76.65 23.4 76.7 22.1 76.45 Q21.05 76.05 20.7 75.2 L20.65 74.95 20.6 74.65 20.7 73.8 20.85 73.5 21.65 72.2 Q22.55 71.25 23.85 70.55 L24.05 70.7 24.3 70.8 24.8 70.85 25.3 70.85 25.5 70.8 26.3 70.55 26.5 70.45 27.1 70.2 27.55 69.8 27.75 69.6 27.95 69.1 27.95 68.95 M30.85 69.55 L29.95 69.5 Q29.55 69.7 29.25 70.15 29.05 70.6 29.3 71.05 L29.4 71.2 29.85 71.55 30.05 71.55 30.65 71.45 31.3 70.95 Q31.65 70.75 31.45 70.2 L30.85 69.55 M23.0 72.5 Q22.4 72.75 22.1 73.35 21.85 74.0 22.05 74.7 22.35 75.3 22.85 75.35 L23.95 75.1 25.0 74.6 25.1 74.35 Q25.3 74.0 25.1 73.5 L24.65 72.85 24.25 72.6 24.0 72.45 23.0 72.5" fill="url(#gradient1)" fill-rule="evenodd" stroke="none"/>
      <path d="M26.05 70.0 L27.65 69.15 27.85 68.95 27.9 68.9 27.95 68.95 27.95 69.1 27.75 69.6 27.55 69.8 27.1 70.2 26.5 70.45 26.3 70.55 26.05 70.0" fill="#98815f" fill-rule="evenodd" stroke="none"/>
      <path d="M28.75 66.7 L31.25 67.4 32.15 68.0 33.7 69.1 35.0 70.9 35.6 72.15 35.65 72.25 Q36.9 75.5 35.5 78.7 L34.5 80.5 Q33.45 81.85 31.9 82.75 L30.85 83.2 Q27.6 84.4 24.4 82.95 21.35 81.45 20.05 78.35 L20.0 78.2 19.65 77.2 Q19.35 76.05 19.45 74.95 L19.7 73.05 Q19.85 72.3 20.15 71.65 20.75 70.15 21.85 69.1 L21.8 69.2 21.9 69.3 21.95 69.5 22.5 70.15 Q21.75 71.0 21.3 72.1 L20.85 73.5 20.7 73.8 20.6 74.65 20.55 74.95 Q20.5 76.45 21.05 77.95 22.15 80.8 24.95 82.05 27.25 83.15 29.6 82.65 L30.65 82.3 Q31.75 81.95 32.65 81.15 L33.35 80.55 34.1 79.6 34.45 79.05 34.7 78.45 34.75 78.35 Q35.95 75.55 34.9 72.7 L34.85 72.65 Q34.3 71.05 33.1 69.9 L32.45 69.3 31.0 68.45 Q29.9 67.95 28.8 67.8 29.0 67.35 28.85 66.9 L28.75 66.7" fill="#d8bd96" fill-rule="evenodd" stroke="none"/>
      <path d="M20.65 74.95 L20.7 75.2 Q21.05 76.05 22.1 76.45 L22.25 77.55 Q22.45 78.3 23.15 79.3 24.3 80.85 25.9 81.6 27.5 82.4 29.15 82.6 L29.6 82.65 Q27.25 83.15 24.95 82.05 22.15 80.8 21.05 77.95 20.5 76.45 20.55 74.95 L20.65 74.95 M30.85 69.55 L31.45 70.2 Q31.65 70.75 31.3 70.95 L30.65 71.45 30.05 71.55 29.85 71.55 29.4 71.2 29.3 71.05 Q29.05 70.6 29.25 70.15 29.55 69.7 29.95 69.5 L30.85 69.55 M23.0 72.5 L24.0 72.45 24.25 72.6 24.65 72.85 25.1 73.5 Q25.3 74.0 25.1 74.35 L25.0 74.6 23.95 75.1 22.85 75.35 Q22.35 75.3 22.05 74.7 21.85 74.0 22.1 73.35 22.4 72.75 23.0 72.5 M27.9 79.35 L28.1 79.15 28.95 79.2 29.55 79.8 29.55 79.85 29.65 80.05 29.5 80.7 28.95 81.3 28.1 81.25 Q27.65 81.1 27.5 80.6 L27.45 80.05 27.5 79.75 27.9 79.35 M30.7 79.15 L30.75 79.15 31.1 79.2 31.45 79.55 31.4 79.95 31.05 80.35 30.65 80.25 Q30.45 80.25 30.35 80.1 L30.3 79.95 30.3 79.5 30.7 79.15 M30.9 80.95 L30.85 81.2 30.65 81.35 30.35 81.4 30.25 81.2 30.25 80.9 30.4 80.7 30.65 80.75 30.9 80.95 M33.0 74.2 L34.35 74.3 Q34.75 74.8 34.7 75.8 34.6 76.9 33.8 77.45 L33.0 77.9 Q32.65 77.95 32.35 77.55 31.8 76.75 31.95 75.75 L32.25 75.05 32.4 74.8 32.55 74.6 32.8 74.45 33.0 74.2" fill="#16111a" fill-rule="evenodd" stroke="none"/>
      <path d="M32.4 69.35 L32.45 69.3 33.1 69.9 Q34.3 71.05 34.85 72.65 L34.9 72.7 Q35.95 75.55 34.75 78.35 L34.7 78.45 34.45 79.05 34.7 78.4 Q35.95 75.6 34.9 72.7 34.25 71.05 33.1 69.9 L32.4 69.35" fill="#997539" fill-opacity="0.3019608" fill-rule="evenodd" stroke="none"/>
      <path d="M25.4 76.65 L28.25 75.95 30.05 75.1 Q31.45 74.35 32.35 73.35 33.9 71.7 33.4 70.4 L33.1 69.9 Q34.25 71.05 34.9 72.7 35.95 75.6 34.7 78.4 L34.45 79.05 34.1 79.6 33.35 80.55 30.6 80.35 30.5 80.35 29.65 80.05 29.55 79.85 29.55 79.8 28.95 79.2 28.1 79.15 27.9 79.35 Q26.75 78.65 26.0 77.6 L25.4 76.65 M30.7 79.15 L30.3 79.5 30.3 79.95 30.35 80.1 Q30.45 80.25 30.65 80.25 L31.05 80.35 31.4 79.95 31.45 79.55 31.1 79.2 30.75 79.15 30.7 79.15 M33.0 74.2 L32.8 74.45 32.55 74.6 32.4 74.8 32.25 75.05 31.95 75.75 Q31.8 76.75 32.35 77.55 32.65 77.95 33.0 77.9 L33.8 77.45 Q34.6 76.9 34.7 75.8 34.75 74.8 34.35 74.3 L33.0 74.2" fill="#332439" fill-rule="evenodd" stroke="none"/>
      <path d="M21.85 69.1 Q21.65 68.5 22.25 67.8 L22.9 68.8 23.1 69.0 23.4 69.1 23.8 69.2 24.3 69.25 24.5 69.2 24.65 69.6 Q24.8 69.85 25.5 70.0 L26.05 70.0 25.25 70.25 23.85 70.4 23.75 70.4 23.45 70.4 22.5 70.15 21.95 69.5 21.9 69.3 21.8 69.2 21.85 69.1" fill="#ccaa77" fill-rule="evenodd" stroke="none"/>
      <path d="M25.5 70.8 L25.3 70.85 24.8 70.85 24.3 70.8 24.05 70.7 23.85 70.4 25.25 70.25 25.5 70.8" fill="#44392b" fill-rule="evenodd" stroke="none"/>
      <path d="M26.3 70.55 L25.5 70.8 25.25 70.25 26.05 70.0 26.3 70.55" fill="#6b5b43" fill-rule="evenodd" stroke="none"/>
      <path d="M20.6 74.65 L20.65 74.95 20.55 74.95 20.6 74.65" fill="#354b01" fill-rule="evenodd" stroke="none"/>
      <path d="M22.1 76.45 L23.4 76.7 25.4 76.65 26.0 77.6 Q26.75 78.65 27.9 79.35 L27.5 79.75 27.45 80.05 27.5 80.6 Q27.65 81.1 28.1 81.25 L28.95 81.3 29.5 80.7 29.65 80.05 30.5 80.35 30.6 80.35 33.35 80.55 32.65 81.15 Q31.75 81.95 30.65 82.3 L29.6 82.65 29.15 82.6 Q27.5 82.4 25.9 81.6 24.3 80.85 23.15 79.3 22.45 78.3 22.25 77.55 L22.1 76.45 M30.9 80.95 L30.65 80.75 30.4 80.7 30.25 80.9 30.25 81.2 30.35 81.4 30.65 81.35 30.85 81.2 30.9 80.95" fill="#241b29" fill-rule="evenodd" stroke="none"/>
      <path d="M21.7 66.9 L21.6 66.65 Q21.55 66.25 21.9 65.8 L22.1 65.5 Q22.7 64.85 23.85 64.45 L24.75 64.15 25.3 64.35 25.95 64.35 26.4 64.25 Q26.8 64.35 27.0 64.65 L27.1 64.95 27.05 64.95 27.3 65.8 28.0 66.05 28.6 66.55 28.75 66.7 31.25 67.4 32.15 68.0 33.7 69.1 35.0 70.9 35.6 72.15 35.65 72.25 Q36.9 75.5 35.5 78.7 L34.5 80.5 Q33.45 81.85 31.9 82.75 L30.85 83.2 Q27.6 84.4 24.4 82.95 21.35 81.45 20.05 78.35 L20.0 78.2 19.65 77.2 Q19.35 76.05 19.45 74.95 L19.7 73.05 Q19.85 72.3 20.15 71.65 20.75 70.15 21.85 69.1 21.65 68.5 22.25 67.8 L21.7 66.9 M27.3 65.8 L27.2 65.8 27.2 65.85 27.6 67.2 27.4 67.55 26.75 68.35 25.8 68.9 25.6 68.95 24.65 69.2 24.5 69.2 24.3 69.25 23.8 69.2 23.4 69.1 23.1 69.0 22.9 68.8 22.25 67.8 M26.05 70.0 L27.65 69.15 27.85 68.95 27.9 68.9 28.25 68.55 28.8 67.8 Q29.0 67.35 28.85 66.9 L28.75 66.7 M27.9 68.9 L27.95 68.95 27.95 69.1 27.75 69.6 27.55 69.8 27.1 70.2 26.5 70.45 26.3 70.55 25.5 70.8 25.3 70.85 24.8 70.85 24.3 70.8 24.05 70.7 23.85 70.55 23.8 70.45 M21.85 69.1 L21.8 69.2 21.9 69.3 21.95 69.5 22.5 70.15 23.45 70.4 23.75 70.4 23.85 70.4 25.25 70.25 26.05 70.0" fill="none" stroke="#000000" stroke-linecap="round" stroke-linejoin="round" stroke-opacity="0.3019608" stroke-width="0.5"/>
      <path d="M28.5 72.15 L28.75 72.55 29.4 73.2 Q30.05 73.85 30.55 74.15 31.7 74.9 32.1 74.65 32.35 74.45 31.9 73.5 L31.1 72.2 31.05 72.1 Q30.45 71.35 29.7 71.25 L29.05 71.35 28.9 71.45 28.5 71.9 28.5 72.15 M26.5 72.55 Q29.25 71.45 30.5 68.8 31.6 69.1 32.85 70.25 32.9 71.1 32.3 71.85 L33.5 70.85 34.75 72.4 35.4 73.95 33.5 74.6 31.35 74.9 Q29.55 74.9 28.35 74.35 L27.1 73.45 27.65 72.9 26.9 73.2 26.85 73.1 26.5 72.55" fill="#e8e1ca" fill-rule="evenodd" stroke="none"/>
      <path d="M28.5 72.15 L28.5 71.9 28.9 71.45 29.05 71.35 29.7 71.25 Q30.45 71.35 31.05 72.1 L31.1 72.2 31.9 73.5 Q32.35 74.45 32.1 74.65 31.7 74.9 30.55 74.15 30.05 73.85 29.4 73.2 L28.75 72.55 28.5 72.15 M33.05 74.95 L33.55 75.3 33.65 75.45 33.75 76.0 33.45 76.55 33.4 76.55 32.85 76.65 32.75 76.6 32.35 76.3 32.15 75.6 32.4 75.1 32.45 75.1 33.05 74.95" fill="#21221a" fill-rule="evenodd" stroke="none"/>
      <path d="M35.4 73.95 L35.45 74.6 Q35.15 76.25 34.0 77.35 L32.15 78.6 31.65 78.9 Q30.65 78.7 30.2 77.95 29.6 78.55 28.45 78.5 L28.15 77.75 29.0 77.15 27.95 77.25 Q27.2 75.55 25.95 74.0 L27.1 73.45 28.35 74.35 Q29.55 74.9 31.35 74.9 L33.5 74.6 35.4 73.95 M26.9 73.2 L25.4 73.45 25.05 73.05 26.5 72.55 26.85 73.1 26.9 73.2 M33.05 74.95 L32.45 75.1 32.4 75.1 32.15 75.6 32.35 76.3 32.75 76.6 32.85 76.65 33.4 76.55 33.45 76.55 33.75 76.0 33.65 75.45 33.55 75.3 33.05 74.95" fill="#d2c79b" fill-rule="evenodd" stroke="none"/>
      <path d="M31.65 78.9 L28.45 78.5 Q29.6 78.55 30.2 77.95 30.65 78.7 31.65 78.9" fill="#c8ba84" fill-rule="evenodd" stroke="none"/>
      <path d="M26.5 72.55 Q29.25 71.45 30.5 68.8 31.6 69.1 32.85 70.25 32.9 71.1 32.3 71.85 L33.5 70.85 34.75 72.4 35.4 73.95 35.45 74.6 Q35.15 76.25 34.0 77.35 L32.15 78.6 31.65 78.9 28.45 78.5 28.15 77.75 29.0 77.15 27.95 77.25 Q27.2 75.55 25.95 74.0 L27.1 73.45 27.65 72.9 26.9 73.2 25.4 73.45 25.05 73.05 26.5 72.55 M28.45 78.5 Q29.6 78.55 30.2 77.95 30.65 78.7 31.65 78.9" fill="none" stroke="#000000" stroke-linecap="round" stroke-linejoin="round" stroke-opacity="0.3019608" stroke-width="0.05"/>
    </g>
    <linearGradient gradientTransform="matrix(0.0, 0.0, 0.0, 0.0, -64.25, 76.95)" gradientUnits="userSpaceOnUse" id="gradient1" spreadMethod="pad" x1="-819.2" x2="819.2">
      <stop offset="0.0" stop-color="#332439"/>
      <stop offset="0.9882352941176471" stop-color="#664774"/>
    </linearGradient>
    <g id="sprite6" transform="matrix(1.0, 0.0, 0.0, 1.0, 19.25, 3.15)">
      <use height="34.55" transform="matrix(1.0, 0.0, 0.0, 1.0, -19.25, -3.15)" width="29.25" xlink:href="#shape6"/>
    </g>
    <g id="shape6" transform="matrix(1.0, 0.0, 0.0, 1.0, 19.25, 3.15)">
      <path d="M4.5 -0.45 Q4.9 0.15 4.9 0.75 L4.8 1.15 4.8 1.25 4.15 2.7 4.95 3.75 Q5.35 4.4 5.25 5.05 L5.3 5.4 Q6.9 6.85 8.1 8.95 L8.85 10.7 9.8 13.85 Q10.15 15.8 9.9 17.75 L9.5 20.1 9.45 20.3 Q7.9 26.2 2.65 29.35 1.05 30.25 -0.55 30.8 -3.5 31.7 -6.55 31.3 L-8.45 30.9 Q-14.3 29.3 -17.35 24.0 -20.2 18.8 -18.8 13.05 L-18.75 12.75 -18.15 11.0 Q-17.5 9.1 -16.3 7.65 L-13.95 5.2 -11.9 3.6 Q-9.45 2.2 -6.9 1.8 -6.55 0.75 -5.0 0.4 L-4.95 0.4 -4.95 0.35 -5.0 0.35 -4.85 -1.05 -4.8 -1.05 -4.85 -1.4 -4.75 -1.9 Q-4.45 -2.55 -3.5 -2.8 L-2.9 -3.0 0.7 -2.85 2.25 -2.25 2.9 -1.45 Q3.1 -1.0 3.75 -0.75 L4.5 -0.45" fill="url(#gradient2)" fill-rule="evenodd" stroke="none"/>
    </g>
    <linearGradient gradientTransform="matrix(0.0179, 0.0, 0.0, 0.0211, -4.65, 14.1)" gradientUnits="userSpaceOnUse" id="gradient2" spreadMethod="pad" x1="-819.2" x2="819.2">
      <stop offset="0.0" stop-color="#77653c"/>
      <stop offset="0.9882352941176471" stop-color="#947c48" stop-opacity="0.0"/>
    </linearGradient>
    <g id="sprite7" transform="matrix(1.0, 0.0, 0.0, 1.0, 0.0, 0.0)">
      <use height="34.8" transform="matrix(1.0, 0.0, 0.0, 1.0, 0.0, 0.0)" width="34.8" xlink:href="#shape7"/>
    </g>
    <g id="shape7" transform="matrix(1.0, 0.0, 0.0, 1.0, 0.0, 0.0)">
      <path d="M17.4 34.8 Q10.2 34.8 5.1 29.7 0.0 24.6 0.0 17.4 0.0 10.2 5.1 5.1 10.2 0.0 17.4 0.0 24.6 0.0 29.7 5.1 34.8 10.2 34.8 17.4 34.8 24.6 29.7 29.7 24.6 34.8 17.4 34.8" fill="url(#gradient3)" fill-rule="evenodd" stroke="none"/>
    </g>
    <radialGradient cx="0" cy="0" gradientTransform="matrix(0.0221, 0.0, 0.0, 0.0221, 17.4, 17.4)" gradientUnits="userSpaceOnUse" id="gradient3" r="819.2" spreadMethod="pad">
      <stop offset="0.0" stop-color="#ffffff"/>
      <stop offset="0.9882352941176471" stop-color="#ffffff" stop-opacity="0.0"/>
    </radialGradient>
    <g id="sprite8" transform="matrix(1.0, 0.0, 0.0, 1.0, 0.0, 0.0)">
      <use height="20.95" transform="matrix(1.0, 0.0, 0.0, 1.0, 0.0, 0.0)" width="24.45" xlink:href="#shape8"/>
    </g>
    <g id="shape8" transform="matrix(1.0, 0.0, 0.0, 1.0, 0.0, 0.0)">
      <path d="M18.2 11.35 L20.15 11.25 18.75 12.55 Q19.05 13.8 18.8 15.05 18.5 16.35 17.65 17.3 L19.1 20.95 16.55 18.25 Q14.8 19.3 12.8 18.85 10.8 18.35 9.75 16.65 9.05 15.5 8.95 14.3 7.75 12.35 4.85 11.5 8.3 12.45 9.7 11.4 10.3 10.4 11.35 9.75 13.1 8.75 15.1 9.15 16.95 9.5 18.1 11.15 L18.2 11.35 M14.85 11.4 Q13.8 11.15 12.9 11.65 12.1 12.2 11.8 13.2 11.6 14.2 12.1 15.1 12.65 15.9 13.65 16.2 14.65 16.4 15.55 15.9 16.4 15.3 16.6 14.35 16.85 13.3 16.25 12.45 15.8 11.6 14.85 11.4" fill="#ffffff" fill-opacity="0.1764706" fill-rule="evenodd" stroke="none"/>
      <path d="M14.85 11.4 Q15.8 11.6 16.25 12.45 16.85 13.3 16.6 14.35 16.4 15.3 15.55 15.9 14.65 16.4 13.65 16.2 12.65 15.9 12.1 15.1 11.6 14.2 11.8 13.2 12.1 12.2 12.9 11.65 13.8 11.15 14.85 11.4" fill="#ffffff" fill-opacity="0.5882353" fill-rule="evenodd" stroke="none"/>
      <path d="M15.4 13.55 L18.1 17.55 13.35 14.65 7.05 18.5 12.75 13.55 0.0 0.0 14.25 12.25 24.45 5.95 15.4 13.55" fill="#ffffff" fill-opacity="0.5882353" fill-rule="evenodd" stroke="none"/>
    </g>
    <g id="shape9" transform="matrix(1.0, 0.0, 0.0, 1.0, -6.25, -55.25)">
      <path d="M46.5 90.1 Q45.8 90.7 44.6 91.05 L31.8 95.2 31.75 95.15 31.55 95.2 45.2 90.65 46.2 90.25 46.5 90.1" fill="#999999" fill-rule="evenodd" stroke="none"/>
      <path d="M31.55 95.2 L30.85 95.4 18.15 90.4 17.5 89.0 10.9 74.45 9.9 72.25 6.85 65.65 Q5.7 63.15 6.9 61.65 7.45 60.95 8.5 60.45 9.15 60.0 10.1 59.7 L23.8 55.3 23.85 55.3 36.55 60.4 36.6 60.4 47.7 85.1 Q49.3 88.6 46.5 90.1 45.8 90.7 44.6 91.05 L31.8 95.2" fill="none" stroke="#ffaa00" stroke-linecap="round" stroke-linejoin="round" stroke-opacity="0.7490196" stroke-width="0.05"/>
      <path d="M31.55 95.2 L45.2 90.65 46.2 90.25 46.5 90.1 Q49.25 88.55 47.65 85.1 L36.55 60.4 M9.9 72.25 L7.0 65.65 Q5.85 63.15 7.05 61.65 7.5 61.0 8.45 60.55 9.1 60.1 10.1 59.75 L23.85 55.3" fill="none" stroke="#000000" stroke-linecap="round" stroke-linejoin="round" stroke-opacity="0.3019608" stroke-width="0.05"/>
    </g>
    <g id="shape10" transform="matrix(1.0, 0.0, 0.0, 1.0, -14.7, -59.4)">
      <path d="M33.85 83.75 L33.85 83.8 33.85 83.95 33.85 84.0 33.85 84.1 33.9 84.1 33.9 84.15 34.35 84.4 34.85 84.75 34.35 84.45 34.1 84.3 34.05 84.25 33.95 84.2 33.9 84.2 33.9 84.7 33.9 85.25 33.85 84.75 33.75 84.2 33.7 84.1 33.5 84.25 33.0 84.55 32.7 84.7 32.95 84.5 33.4 84.3 33.45 84.25 33.5 84.2 33.7 84.1 33.65 84.05 33.7 84.05 33.7 84.0 33.3 83.6 32.95 83.25 33.3 83.55 33.55 83.8 33.7 83.95 33.8 83.4 33.9 82.95 33.85 83.35 33.85 83.75 M34.25 84.0 L34.15 84.0 33.9 84.05 34.15 83.95 34.7 83.75 35.2 83.65 34.85 83.75 34.95 83.85 34.85 83.75 34.7 83.8 34.4 83.9 34.35 83.9 34.25 84.0 M34.95 83.85 L35.65 84.4 36.45 85.15 36.5 85.2 36.75 85.45 36.9 85.55 36.9 85.5 37.1 83.9 37.35 82.3 37.45 81.75 37.4 82.25 37.4 83.85 37.2 85.6 37.35 86.0 37.4 86.1 38.7 86.9 40.15 87.75 40.55 88.05 40.1 87.8 38.75 87.05 37.75 86.45 37.4 86.25 37.35 86.2 37.4 86.3 37.5 87.75 37.55 89.45 37.6 90.0 37.5 89.5 37.25 87.9 37.05 86.25 37.0 86.3 36.9 85.9 36.7 85.75 36.9 85.85 36.9 85.65 35.7 84.55 34.95 83.85 M35.7 86.65 L36.1 86.45 36.2 86.4 36.85 86.1 36.3 86.45 34.8 87.25 33.35 88.0 32.8 88.25 33.3 88.0 34.65 87.2 35.7 86.65 M41.85 84.45 L41.35 84.6 39.85 85.15 38.15 85.7 37.5 85.9 Q37.45 85.85 38.1 85.65 L39.7 85.1 41.3 84.6 41.85 84.45" fill="#fefd8d" fill-opacity="0.972549" fill-rule="evenodd" stroke="none"/>
      <path d="M33.85 83.75 L34.05 83.4 34.25 83.2 34.15 83.4 34.0 83.8 33.9 83.9 33.85 83.8 33.85 83.75 M34.1 84.3 L34.35 84.5 34.45 84.65 34.25 84.5 34.0 84.3 33.95 84.2 34.05 84.25 34.1 84.3 M33.4 84.3 L33.3 84.3 32.95 84.45 32.7 84.55 32.95 84.4 33.35 84.25 33.45 84.25 33.4 84.3 M33.55 83.8 L33.4 83.6 33.6 83.8 33.65 83.9 33.55 83.8 M34.25 84.0 L34.35 83.9 34.4 83.9 34.65 83.85 34.95 83.85 35.05 83.8 34.95 83.85 34.7 83.9 34.3 84.0 34.2 84.0 34.25 84.0 M36.45 85.15 L35.85 84.4 35.45 83.85 35.95 84.3 36.65 85.15 36.9 85.5 36.75 85.45 36.5 85.2 36.45 85.15 M37.75 86.45 Q38.15 86.7 38.6 87.1 L39.3 87.75 38.5 87.15 37.6 86.5 37.4 86.3 37.35 86.2 37.4 86.25 37.75 86.45 M33.6 84.3 L33.7 84.2 33.75 84.35 33.65 84.7 33.55 85.05 33.55 84.75 33.6 84.3 M37.65 85.15 L37.35 85.5 37.35 85.0 37.9 84.05 38.5 83.1 38.7 82.75 38.55 83.1 38.15 84.05 37.65 85.15 M35.7 86.65 L34.7 87.0 33.8 87.3 34.7 86.95 35.75 86.5 36.1 86.45 35.7 86.65 M38.7 85.65 L38.25 85.7 38.7 85.55 39.75 85.35 40.7 85.2 41.05 85.15 40.75 85.25 39.8 85.45 38.7 85.65 M36.7 86.7 L36.95 86.25 37.0 86.75 36.65 87.8 36.3 88.85 36.15 89.25 36.25 88.85 36.4 87.85 Q36.5 87.1 36.7 86.7" fill="#fffd8f" fill-opacity="0.4" fill-rule="evenodd" stroke="none"/>
      <path d="M38.0 86.75 Q37.9 86.0 37.45 85.8 L36.9 85.85 Q36.75 86.1 36.9 86.5 37.1 87.0 37.65 87.3 L38.35 87.95 38.6 88.25 38.45 87.85 38.0 86.75" fill="#fffd8f" fill-opacity="0.39215687" fill-rule="evenodd" stroke="none"/>
      <path d="M38.0 86.25 L37.05 85.85 Q36.8 85.8 36.95 85.95 L37.55 86.35 38.35 86.6 Q38.8 86.65 39.05 86.85 L39.35 86.95 39.0 86.75 38.0 86.25" fill="#fffd8f" fill-opacity="0.39215687" fill-rule="evenodd" stroke="none"/>
      <path d="M36.4 84.8 Q36.35 85.55 36.75 85.85 L37.3 85.9 37.45 85.25 Q37.35 84.75 36.9 84.35 36.35 83.9 36.3 83.55 L36.1 83.25 36.2 83.65 36.4 84.8" fill="#fffd8f" fill-opacity="0.39215687" fill-rule="evenodd" stroke="none"/>
      <path d="M36.25 85.35 L37.1 85.95 37.2 85.8 36.75 85.3 35.95 84.9 Q35.55 84.75 35.3 84.6 L35.05 84.45 35.35 84.65 36.25 85.35" fill="#fffd8f" fill-opacity="0.39215687" fill-rule="evenodd" stroke="none"/>
      <path d="M38.75 85.2 Q38.0 85.45 37.85 85.65 37.7 85.85 37.85 85.8 L38.5 85.65 39.25 85.2 39.9 84.75 40.15 84.6 39.75 84.75 38.75 85.2" fill="#fffd8f" fill-opacity="0.39215687" fill-rule="evenodd" stroke="none"/>
      <path d="M35.75 87.0 L36.6 86.4 36.5 86.25 Q36.25 86.25 35.9 86.5 L35.25 87.1 34.7 87.65 Q34.4 87.8 34.45 87.85 L34.8 87.6 35.75 87.0" fill="#fffd8f" fill-opacity="0.39215687" fill-rule="evenodd" stroke="none"/>
      <path d="M34.1 84.35 L33.95 84.05 33.75 84.05 Q33.65 84.1 33.7 84.25 L34.0 84.55 34.2 84.75 34.3 84.85 34.2 84.75 34.1 84.35" fill="#fffd8f" fill-opacity="0.39215687" fill-rule="evenodd" stroke="none"/>
      <path d="M34.1 84.2 Q33.9 84.05 33.75 84.05 L33.75 84.1 33.95 84.2 34.2 84.3 34.5 84.4 34.55 84.4 34.45 84.4 34.1 84.2" fill="#fffd8f" fill-opacity="0.39215687" fill-rule="evenodd" stroke="none"/>
      <path d="M33.5 83.65 L33.65 84.05 33.85 84.05 33.9 83.85 33.65 83.55 33.5 83.25 33.45 83.15 33.5 83.25 33.5 83.65" fill="#fffd8f" fill-opacity="0.39215687" fill-rule="evenodd" stroke="none"/>
      <path d="M33.5 83.9 L33.75 84.05 33.8 84.0 33.65 83.85 33.35 83.7 33.2 83.6 33.05 83.55 33.15 83.6 33.5 83.9" fill="#fffd8f" fill-opacity="0.39215687" fill-rule="evenodd" stroke="none"/>
      <path d="M34.3 83.8 L34.05 83.95 34.05 84.0 34.25 83.95 34.55 83.8 Q34.6 83.7 34.7 83.7 L34.8 83.6 34.7 83.65 34.3 83.8" fill="#fffd8f" fill-opacity="0.39215687" fill-rule="evenodd" stroke="none"/>
      <path d="M33.3 84.45 L33.6 84.2 33.6 84.15 Q33.5 84.15 33.4 84.3 L33.15 84.45 32.95 84.65 32.85 84.75 33.0 84.6 33.3 84.45" fill="#fffd8f" fill-opacity="0.39215687" fill-rule="evenodd" stroke="none"/>
      <path d="M36.3 85.35 Q36.05 85.7 36.05 86.15 L36.5 86.9 37.3 87.15 38.05 86.75 38.25 85.9 37.85 85.2 37.05 84.95 36.3 85.35" fill="#ffffff" fill-rule="evenodd" stroke="none"/>
      <path d="M18.75 62.3 L18.65 62.35 18.2 62.45 18.6 62.25 19.85 61.9 21.0 61.5 21.4 61.35 21.05 61.5 19.9 61.9 18.75 62.3 M17.45 61.95 L17.7 62.2 17.75 62.2 17.7 62.15 17.85 61.05 18.05 59.85 18.15 59.4 18.1 59.8 18.05 61.0 18.0 62.25 18.1 62.6 19.15 63.2 20.0 63.75 19.15 63.3 18.5 62.95 18.4 62.85 18.15 62.7 18.1 62.7 18.15 62.75 18.2 63.85 18.2 64.9 18.0 64.0 17.85 62.8 17.8 62.8 17.75 62.45 17.6 62.3 17.7 62.35 17.7 62.3 16.85 61.5 15.9 60.65 15.65 60.35 15.95 60.65 16.8 61.4 17.45 61.95 M14.7 64.25 L15.05 64.05 16.1 63.45 17.25 62.85 17.7 62.65 17.3 62.95 16.2 63.45 15.1 64.05 14.7 64.25" fill="#fefd8d" fill-opacity="0.972549" fill-rule="evenodd" stroke="none"/>
      <path d="M18.75 62.3 L19.1 62.2 19.85 62.05 20.6 61.95 19.85 62.15 19.05 62.3 18.75 62.3 M17.45 61.95 L16.95 61.35 16.5 60.75 17.0 61.3 17.55 61.95 17.7 62.15 17.75 62.2 17.7 62.2 17.45 61.95 M18.5 62.95 L19.0 63.35 19.6 63.8 19.8 64.0 19.6 63.85 18.95 63.4 18.3 62.9 18.15 62.75 18.1 62.7 18.15 62.7 18.4 62.85 18.5 62.95 M18.3 61.9 L18.05 62.2 18.1 61.85 18.45 61.15 18.9 60.4 19.1 60.2 18.95 60.4 18.65 61.15 18.3 61.9 M17.55 63.1 L17.75 62.75 17.8 63.1 17.6 63.95 17.25 64.7 17.15 64.95 17.2 64.7 17.4 63.9 Q17.4 63.4 17.55 63.1 M16.9 62.9 L17.2 62.85 Q17.15 62.9 16.85 63.05 L16.15 63.3 15.45 63.55 15.2 63.6 15.45 63.5 16.1 63.25 Q16.6 63.0 16.9 62.9" fill="#fffd8f" fill-opacity="0.4" fill-rule="evenodd" stroke="none"/>
      <path d="M18.6 63.1 L18.15 62.4 17.7 62.45 17.75 62.95 18.3 63.55 Q18.75 63.8 18.8 64.0 L19.0 64.25 18.85 63.95 18.6 63.1" fill="#fffd8f" fill-opacity="0.39215687" fill-rule="evenodd" stroke="none"/>
      <path d="M18.55 62.7 Q18.05 62.4 17.9 62.4 17.7 62.4 17.8 62.5 L18.25 62.8 18.85 63.0 19.35 63.15 19.6 63.2 19.35 63.1 18.55 62.7" fill="#fffd8f" fill-opacity="0.39215687" fill-rule="evenodd" stroke="none"/>
      <path d="M17.3 61.7 Q17.35 62.3 17.55 62.45 L18.0 62.5 18.1 62.0 17.65 61.35 17.25 60.75 17.15 60.5 17.2 60.8 17.3 61.7" fill="#fffd8f" fill-opacity="0.39215687" fill-rule="evenodd" stroke="none"/>
      <path d="M17.25 62.1 L17.9 62.5 17.95 62.45 17.6 62.05 17.05 61.75 16.55 61.5 16.35 61.4 16.55 61.6 Q16.8 61.7 17.25 62.1" fill="#fffd8f" fill-opacity="0.39215687" fill-rule="evenodd" stroke="none"/>
      <path d="M19.05 61.9 L18.4 62.3 18.45 62.4 18.9 62.3 19.5 61.95 19.95 61.6 20.15 61.5 19.85 61.6 19.05 61.9" fill="#fffd8f" fill-opacity="0.39215687" fill-rule="evenodd" stroke="none"/>
      <path d="M16.9 63.3 L17.5 62.85 17.45 62.7 17.05 62.9 16.5 63.35 16.15 63.75 15.95 63.95 16.2 63.75 16.9 63.3" fill="#fffd8f" fill-opacity="0.39215687" fill-rule="evenodd" stroke="none"/>
      <path d="M17.4 62.1 Q17.15 62.35 17.2 62.65 L17.55 63.25 18.1 63.4 18.7 63.1 18.85 62.5 18.55 61.95 17.9 61.75 17.4 62.1" fill="#ffffff" fill-rule="evenodd" stroke="none"/>
      <path d="M33.55 83.9 L33.45 84.15 33.6 84.45 33.85 84.5 34.15 84.4 34.2 84.05 34.1 83.85 33.75 83.75 33.55 83.9" fill="#ffffff" fill-rule="evenodd" stroke="none"/>
    </g>
  </defs>
</svg>
