<?xml version='1.0' encoding='UTF-8'?>
<svg xmlns:xlink="http://www.w3.org/1999/xlink" xmlns="http://www.w3.org/2000/svg" version="1.1" width="60px" height="60px" viewBox="0.0 0.0 60.0 60.0"><defs><g id="c1"><path fill="#fcfcfc" stroke="none" d="M1.6 34.35 Q-4.1 17.5 10.4 1.4 25.35 -1.4 43.6 1.4 80.65 11.75 93.6 34.35 81.6 47.4 52.0 54.45 16.95 52.0 1.6 34.35"/><path fill="none" stroke="#f3df4e" stroke-width="0.5" d="M1.6 34.35 Q16.95 52.0 52.0 54.45 81.6 47.4 93.6 34.35 80.65 11.75 43.6 1.4 25.35 -1.4 10.4 1.4 -4.1 17.5 1.6 34.35"/></g><g id="c2"><g><use transform="matrix(1.0,0.0,0.0,1.0,0.0,0.0)" xlink:href="#c1"/></g></g><g id="c3"><path fill="#fcfcfc" stroke="none" d="M0.75 2.45 Q-0.45 3.1 -1.35 3.1 L-2.05 3.0 -2.15 2.35 Q-2.3 0.25 -2.05 -1.0 -1.05 -3.35 0.7 -3.15 1.6 -2.2 2.2 -0.4 2.1 1.15 0.75 2.45"/><path fill="none" stroke="#000000" stroke-width="0.5" stroke-opacity="0.4" d="M0.75 2.45 Q-0.45 3.1 -1.35 3.1 L-2.05 3.0 -2.15 2.35 Q-2.3 0.25 -2.05 -1.0 -1.05 -3.35 0.7 -3.15 1.6 -2.2 2.2 -0.4 2.1 1.15 0.75 2.45"/></g><g id="c4"><g><use transform="matrix(1.0,0.0,0.0,1.0,0.0,0.0)" xlink:href="#c3"/></g></g><g id="c5"><path fill="#fcfcfc" stroke="none" d="M-4.0 0.7 Q-4.5 -0.8 -3.25 -2.25 -1.9 -2.5 -0.3 -2.25 3.0 -1.35 4.15 0.7 3.05 1.85 0.45 2.45 -2.65 2.25 -4.0 0.7"/><path fill="none" stroke="#000000" stroke-width="0.5" stroke-opacity="0.4" d="M-4.0 0.7 Q-2.65 2.25 0.45 2.45 3.05 1.85 4.15 0.7 3.0 -1.35 -0.3 -2.25 -1.9 -2.5 -3.25 -2.25 -4.5 -0.8 -4.0 0.7"/></g><g id="c6"><g><use transform="matrix(1.0,0.0,0.0,1.0,0.0,0.0)" xlink:href="#c5"/></g></g><g id="c7"><path fill="#000000" fill-opacity="0.00392156862745" d="M0.0 0.0 L60.0 0.0 60.0 60.0 0.0 60.0 0.0 0.0"/></g><g id="c8"><path fill="none" stroke="#000000" stroke-width="1.0" stroke-opacity="0.301960784314" d="M0.7 12.25 Q-0.45 9.75 0.75 8.25 1.2 7.6 2.15 7.15 2.8 6.7 3.8 6.35 L17.5 1.95 30.2 7.0 41.35 31.7 Q42.95 35.15 40.2 36.7 39.5 37.3 38.3 37.65 L19.8 43.65 Q17.15 44.45 15.5 43.3 14.35 42.55 13.65 40.9 L0.7 12.25"/><path fill="#9d147b" stroke="none" d="M35.55 22.3 L31.5 13.2 29.75 9.2 16.95 4.25 5.5 7.85 Q1.65 9.1 3.35 12.8 L8.25 23.65 15.0 38.6 15.2 39.0 Q16.8 42.25 20.45 41.1 L37.2 35.7 Q41.1 34.5 39.35 30.75 L35.55 22.3 M2.15 7.15 Q2.8 6.7 3.8 6.35 L17.5 1.95 30.2 7.0 41.35 31.7 Q42.95 35.15 40.2 36.7 L38.9 37.25 23.2 42.3 20.4 43.2 19.1 43.5 17.3 43.4 Q15.3 42.9 14.2 40.5 L5.45 20.95 1.35 11.8 Q0.4 9.65 1.1 8.3 1.45 7.65 2.15 7.15"/><path fill="#c47fad" stroke="none" d="M31.5 13.2 L35.55 22.3 39.35 30.75 Q41.1 34.5 37.2 35.7 L20.45 41.1 Q16.8 42.25 15.2 39.0 L15.0 38.6 8.25 23.65 3.35 12.8 Q1.65 9.1 5.5 7.85 L16.95 4.25 29.75 9.2 31.5 13.2 M18.5 7.45 L9.1 10.55 9.55 11.6 Q9.8 12.8 9.15 13.6 8.4 14.45 7.1 14.4 L6.8 14.4 6.95 14.6 16.3 35.2 Q16.8 36.4 17.65 37.0 18.8 37.8 20.65 37.2 L34.0 32.9 33.7 32.1 Q33.45 30.9 34.1 30.1 34.75 29.3 35.95 29.35 L35.8 29.0 27.75 10.95 18.5 7.45"/><path fill="#630a4c" stroke="none" d="M0.75 8.25 Q1.2 7.6 2.15 7.15 1.45 7.65 1.1 8.3 L0.75 8.25 M23.3 42.5 L20.1 43.55 19.1 43.5 20.4 43.2 23.2 42.3 23.3 42.5 M15.5 43.3 Q14.35 42.55 13.65 40.9 L4.6 20.9 5.45 20.95 14.2 40.5 Q15.3 42.9 17.3 43.4 L15.5 43.3"/><path fill="#300525" stroke="none" d="M4.6 20.9 L0.7 12.25 Q-0.45 9.75 0.75 8.25 L1.1 8.3 Q0.4 9.65 1.35 11.8 L5.45 20.95 4.6 20.9 M40.2 36.7 Q39.5 37.3 38.3 37.65 L23.3 42.5 23.2 42.3 38.9 37.25 40.2 36.7 M20.1 43.55 L19.8 43.65 Q17.15 44.45 15.5 43.3 L17.3 43.4 19.1 43.5 20.1 43.55"/><path fill="#fcf2cf" stroke="none" d="M27.75 10.95 L35.8 29.0 35.95 29.35 Q34.75 29.3 34.1 30.1 33.45 30.9 33.7 32.1 L34.0 32.9 20.65 37.2 Q18.8 37.8 17.65 37.0 16.8 36.4 16.3 35.2 L6.95 14.6 6.8 14.4 7.1 14.4 Q8.4 14.45 9.15 13.6 9.8 12.8 9.55 11.6 L9.1 10.55 18.5 7.45 27.75 10.95"/><path fill="none" stroke="#bf9900" stroke-width="1.0" stroke-opacity="0.749019607843" d="M31.5 13.2 L35.55 22.3 M15.0 38.6 L8.25 23.65"/><path fill="none" stroke="#ffcc00" stroke-width="1.0" stroke-opacity="0.749019607843" d="M35.55 22.3 L39.35 30.75 Q41.1 34.5 37.2 35.7 L20.45 41.1 Q16.8 42.25 15.2 39.0 L15.0 38.6 M8.25 23.65 L3.35 12.8 Q1.65 9.1 5.5 7.85 L16.95 4.25 29.75 9.2 31.5 13.2"/><path fill="none" stroke="#000000" stroke-width="0.5" stroke-opacity="0.301960784314" d="M4.6 20.9 L0.7 12.25 Q-0.45 9.75 0.75 8.25 1.2 7.6 2.15 7.15 2.8 6.7 3.8 6.35 L17.5 1.95 M30.2 7.0 L41.35 31.7 Q42.95 35.15 40.2 36.7 39.5 37.3 38.3 37.65 L23.3 42.5 20.1 43.55 19.8 43.65 Q17.15 44.45 15.5 43.3 14.35 42.55 13.65 40.9 L4.6 20.9 M5.45 20.95 L1.35 11.8 Q0.4 9.65 1.1 8.3 1.45 7.65 2.15 7.15 M19.1 43.5 L17.3 43.4 Q15.3 42.9 14.2 40.5 L5.45 20.95 M23.2 42.3 L20.4 43.2 19.1 43.5 M40.2 36.7 L38.9 37.25 23.2 42.3"/><path fill="none" stroke="#f0b92b" stroke-width="0.5" d="M27.75 10.95 L35.8 29.0 35.95 29.35 Q34.75 29.3 34.1 30.1 33.45 30.9 33.7 32.1 L34.0 32.9 20.65 37.2 Q18.8 37.8 17.65 37.0 16.8 36.4 16.3 35.2 L6.95 14.6 6.8 14.4 7.1 14.4 Q8.4 14.45 9.15 13.6 9.8 12.8 9.55 11.6 L9.1 10.55 18.5 7.45"/><path fill="none" stroke="#ffcc00" stroke-width="0.5" stroke-opacity="0.749019607843" d="M18.5 7.45 L27.75 10.95"/></g><g id="c9"><path fill="#7fdbfe" stroke="none" d="M10.75 4.9 Q10.75 4.6 10.9 4.35 11.25 3.45 11.95 2.75 13.3 1.5 14.35 2.1 15.4 2.7 14.95 4.45 14.7 5.4 14.1 6.15 L13.75 6.5 Q13.1 7.15 12.35 7.35 L11.4 7.2 Q10.95 6.9 10.75 6.4 10.5 5.75 10.75 4.9 M7.5 5.9 Q7.0 5.85 6.6 5.5 6.05 5.0 5.8 4.15 L5.7 3.6 Q5.55 2.65 5.8 1.7 6.25 0.0 7.5 0.0 L7.6 0.0 Q8.85 0.0 9.3 1.7 9.55 2.65 9.4 3.6 L9.3 4.15 8.5 5.5 7.6 5.9 7.5 5.9 M4.35 4.9 Q4.6 5.75 4.35 6.4 L3.7 7.2 2.75 7.35 Q2.0 7.15 1.35 6.5 L1.0 6.15 Q0.4 5.4 0.15 4.45 -0.3 2.7 0.75 2.1 1.8 1.5 3.15 2.75 3.85 3.45 4.2 4.35 L4.35 4.9 M5.5 13.7 Q4.45 13.9 3.65 12.95 2.75 12.0 3.2 10.25 3.7 8.5 5.25 7.6 6.4 6.9 7.55 7.0 8.75 6.9 9.9 7.6 11.45 8.5 11.95 10.25 12.35 12.0 11.5 12.95 10.7 13.9 9.65 13.7 8.55 13.5 7.55 12.6 6.55 13.5 5.5 13.7"/></g><g id="c10"><g><use transform="matrix(1.0,0.0,0.0,1.0,0.0,0.0)" xlink:href="#c9"/></g></g><radialGradient gradientUnits="userSpaceOnUse" r="819.2" cx="0" cy="0" spreadMethod="pad" gradientTransform="matrix(0.0914459228516,0.0,0.0,0.0914459228516,0.6,3.4)" id="gradient1"><stop offset="0.0" stop-color="#ffffff"/><stop offset="1.0" stop-color="#ffffff" stop-opacity="0.0"/></radialGradient><g id="c11"><path stroke="none" fill="url(#gradient1)" d="M36.65 -54.65 Q60.05 -42.0 69.75 -17.95 80.55 8.9 68.0 34.1 55.45 59.35 26.8 68.2 -1.8 77.05 -29.7 64.3 -57.6 51.6 -68.45 24.75 -79.3 -2.05 -66.75 -27.25 L-66.7 -27.3 Q-54.1 -52.5 -25.5 -61.4 3.1 -70.2 31.0 -57.5 L36.65 -54.65"/></g><g id="c12"><g><use transform="matrix(1.0,0.0,0.0,1.0,0.0,0.0)" xlink:href="#c11"/></g></g><radialGradient gradientUnits="userSpaceOnUse" r="819.2" cx="0" cy="0" spreadMethod="pad" gradientTransform="matrix(0.209197998047,0.0,0.0,0.177108764648,67.15,107.2)" id="gradient2"><stop offset="0.356862745098" stop-color="#ffffff"/><stop offset="0.670588235294" stop-opacity="0.0"/></radialGradient><g id="c13"><path fill="none" stroke-linejoin="round" stroke-linecap="round" stroke="url(#gradient2)" stroke-width="0.5" d="M136.55 165.8 L68.6 106.0 68.4 106.0 118.25 201.5 M68.3 105.8 L68.35 105.8 68.3 105.8 68.3 105.85 68.4 106.0 68.3 106.0 86.55 211.5 M68.3 105.8 L68.3 105.85 68.3 106.0 68.15 105.95 18.25 151.55 M68.3 105.85 L68.25 105.85 68.3 106.0 50.0 193.2 M68.25 105.85 L68.15 105.95 0.05 97.7 M68.3 105.85 L68.25 105.8 68.25 105.85 M68.25 105.8 L68.2 105.7 0.0 45.7 M68.3 105.8 L68.25 105.75 68.25 105.8 M68.25 105.75 L68.2 105.7 18.25 10.05 M68.6 106.0 L68.35 105.8 118.25 60.15 M86.6 18.35 L68.3 105.8 M136.6 114.25 L68.6 106.0 M68.25 105.75 L49.95 0.05"/></g><g id="c14"><g><use transform="matrix(1.0,0.0,0.0,1.0,0.0,0.0)" xlink:href="#c13"/></g></g><g id="c15"><g><use transform="matrix(1.0,0.0,0.0,1.0,0.0,0.0)" xlink:href="#c8"/></g><g><use transform="matrix(0.238861083984,-0.0867004394531,0.10026550293,0.233917236328,34.25,31.15)" xlink:href="#c10"/></g><g><use transform="matrix(0.238861083984,-0.0867004394531,0.10026550293,0.233917236328,4.25,10.3)" xlink:href="#c10"/></g><g><use transform="matrix(0.141098022461,-0.0378112792969,0.111373901367,0.225646972656,20.25,20.65)" filter="url(#filter10)" xlink:href="#c12"/></g><g><use transform="matrix(-0.155029296875,0.0513153076172,0.0841827392578,0.147033691406,22.6,3.15)" filter="url(#filter11)" xlink:href="#c14"/></g></g><filter id="filter10"><feColorMatrix in="SourceGraphic" type="matrix" values="0.0 0.0 0.0 0.0 0.796875 0.0 0.0 0.0 0.0 0.59765625 0.0 0.0 0.0 0.0 0.19921875 0.0 0.0 0.0 1.0 0.0" result="cxform"/><feComposite operator="in" in2="SourceGraphic" result="color-xform"/></filter><filter id="filter11"><feColorMatrix in="SourceGraphic" type="matrix" values="0.0 0.0 0.0 0.0 0.99609375 0.0 0.0 0.0 0.0 0.99609375 0.0 0.0 0.0 0.0 0.99609375 0.0 0.0 0.0 1.0 0.0" result="cxform"/><feComposite operator="in" in2="SourceGraphic" result="color-xform"/></filter><radialGradient gradientUnits="userSpaceOnUse" r="819.2" cx="0" cy="0" spreadMethod="pad" gradientTransform="matrix(0.0214996337891,-0.00119018554688,0.0,0.0143890380859,0.0,0.0)" id="gradient3"><stop offset="0.588235294118" stop-color="#0d151c" stop-opacity="0.458823529412"/><stop offset="1.0" stop-color="#101a24" stop-opacity="0.0"/></radialGradient><g id="c16"><path stroke="none" fill="url(#gradient3)" d="M0.0 -12.35 Q7.6 -12.75 13.05 -9.5 18.5 -6.1 18.5 -1.05 18.5 4.05 13.05 8.0 7.6 11.95 0.0 12.35 -7.6 12.8 -13.05 9.5 -18.45 6.1 -18.45 1.05 -18.45 -4.05 -13.05 -8.0 -7.6 -11.9 0.0 -12.35"/></g><g id="c17"><g><use transform="matrix(1.0,0.0,0.0,1.0,0.0,0.0)" xlink:href="#c16"/></g></g><g id="c18"><path fill="#aa9672" stroke="none" d="M-0.1 3.4 L-0.15 3.1 0.05 2.15 0.75 1.95 1.4 1.85 Q1.65 2.05 1.7 2.4 L1.35 3.1 0.35 3.4 -0.1 3.4"/><path fill="none" stroke="#000000" stroke-width="0.5" stroke-opacity="0.4" d="M-0.1 3.4 L0.35 3.4 1.35 3.1 1.7 2.4 Q1.65 2.05 1.4 1.85 L0.75 1.95 0.05 2.15 -0.15 3.1 -0.1 3.4"/><path fill="#584631" stroke="none" d="M1.65 -3.15 L-0.9 -3.4 Q-2.2 -2.8 -2.7 -1.5 L-2.3 2.45 Q-1.8 3.15 -0.05 3.45 2.2 1.75 2.7 -0.15 2.45 -2.0 1.65 -3.15"/><path fill="none" stroke="#000000" stroke-width="0.5" stroke-opacity="0.4" d="M1.65 -3.15 Q2.45 -2.0 2.7 -0.15 2.2 1.75 -0.05 3.45 -1.8 3.15 -2.3 2.45 L-2.7 -1.5 Q-2.2 -2.8 -0.9 -3.4 L1.65 -3.15"/></g><g id="c19"><g><use transform="matrix(1.0,0.0,0.0,1.0,0.0,0.0)" xlink:href="#c18"/></g></g><g id="c20"><path fill="#6a543f" stroke="none" d="M0.1 -4.5 Q1.45 -3.9 2.7 -2.5 L2.9 -1.75 3.0 -1.3 Q3.15 -0.05 2.65 1.5 1.85 3.2 -0.25 4.15 L-1.15 4.3 -1.35 4.3 -1.45 4.3 Q-1.9 4.15 -2.1 3.6 L-2.15 2.6 Q-2.2 1.2 -3.0 0.2 -2.95 -1.7 -2.05 -3.4 -1.05 -4.3 0.1 -4.5"/><path fill="none" stroke="#000000" stroke-width="0.5" stroke-opacity="0.4" d="M0.1 -4.5 Q1.45 -3.9 2.7 -2.5 L2.9 -1.75 3.0 -1.3 Q3.15 -0.05 2.65 1.5 1.85 3.2 -0.25 4.15 L-1.15 4.3 -1.35 4.3 -1.45 4.3 Q-1.9 4.15 -2.1 3.6 L-2.15 2.6 Q-2.2 1.2 -3.0 0.2 -2.95 -1.7 -2.05 -3.4 -1.05 -4.3 0.1 -4.5"/><path fill="#aa9672" stroke="none" d="M-0.3 4.3 L-1.2 4.45 -1.4 4.5 -1.5 4.45 Q-1.95 4.3 -2.15 3.75 L-2.2 3.25 Q-2.1 2.9 -1.3 2.65 L0.2 2.65 Q0.7 3.3 0.5 3.85 L-0.3 4.3"/><path fill="none" stroke="#000000" stroke-width="0.5" stroke-opacity="0.4" d="M-0.3 4.3 L-1.2 4.45 -1.4 4.5 -1.5 4.45 Q-1.95 4.3 -2.15 3.75 L-2.2 3.25 Q-2.1 2.9 -1.3 2.65 L0.2 2.65 Q0.7 3.3 0.5 3.85 L-0.3 4.3"/></g><g id="c21"><g><use transform="matrix(1.0,0.0,0.0,1.0,0.0,0.0)" xlink:href="#c20"/></g></g><g id="c22"><path fill="#79532a" stroke="none" d="M-6.3 5.7 Q-5.6 4.0 -3.95 2.3 L-3.0 1.45 6.05 -2.25 Q8.05 -0.95 9.35 0.85 9.7 2.45 8.5 3.9 L7.95 3.4 Q6.75 2.4 5.25 2.65 3.65 3.45 2.65 4.4 L1.95 5.25 1.25 6.2 Q0.15 7.5 -2.35 7.25 L-6.3 5.7"/><path fill="#4e3415" stroke="none" d="M0.2 10.3 L-0.85 10.05 Q-4.05 9.4 -6.8 8.25 L-8.65 7.4 Q-11.0 4.75 -11.7 1.2 -11.3 -3.35 -9.1 -6.55 -4.25 -10.65 2.95 -10.2 8.1 -8.45 10.65 -5.5 11.85 -1.85 11.7 2.15 L10.95 3.95 9.55 6.25 9.3 5.3 Q10.5 4.05 10.15 2.15 L9.35 0.85 Q8.05 -0.95 6.05 -2.25 L-3.0 1.45 -3.95 2.3 Q-5.6 4.0 -6.3 5.7 -4.0 8.5 0.05 9.0 0.0 9.7 0.2 10.3"/><path fill="#cbb791" stroke="none" d="M1.95 5.25 L2.65 4.4 Q3.65 3.45 5.25 2.65 6.75 2.4 7.95 3.4 6.85 7.25 1.95 5.25"/><path fill="#937139" stroke="none" d="M0.2 10.3 Q0.0 9.7 0.05 9.0 L0.3 7.75 0.35 7.6 0.8 6.85 1.85 7.85 6.8 7.65 Q8.6 6.35 8.5 3.9 L9.3 5.3 9.55 6.25 Q8.1 8.2 5.9 9.45 3.0 10.35 0.2 10.3"/><path fill="#b59b6b" stroke="none" d="M7.95 3.4 L8.5 3.9 Q8.6 6.35 6.8 7.65 L1.85 7.85 0.8 6.85 1.25 6.2 1.95 5.25 Q6.85 7.25 7.95 3.4"/><path fill="#63421e" stroke="none" d="M0.05 9.0 Q-4.0 8.5 -6.3 5.7 L-2.35 7.25 Q0.15 7.5 1.25 6.2 L0.8 6.85 0.35 7.6 0.3 7.75 0.05 9.0 M9.35 0.85 L10.15 2.15 Q10.5 4.05 9.3 5.3 L8.5 3.9 Q9.7 2.45 9.35 0.85"/><path fill="none" stroke="#000000" stroke-width="0.5" stroke-opacity="0.4" d="M9.55 6.25 L10.95 3.95 11.7 2.15 Q11.85 -1.85 10.65 -5.5 8.1 -8.45 2.95 -10.2 -4.25 -10.65 -9.1 -6.55 -11.3 -3.35 -11.7 1.2 -11.0 4.75 -8.65 7.4 L-6.8 8.25 Q-4.05 9.4 -0.85 10.05 L0.2 10.3 Q0.0 9.7 0.05 9.0 L0.3 7.75 0.35 7.6 0.8 6.85 M9.3 5.3 L9.55 6.25 Q8.1 8.2 5.9 9.45 3.0 10.35 0.2 10.3 M8.5 3.9 L9.3 5.3 M7.95 3.4 L8.5 3.9 M1.95 5.25 L2.65 4.4 Q3.65 3.45 5.25 2.65 6.75 2.4 7.95 3.4 M1.95 5.25 L1.25 6.2 0.8 6.85"/></g><g id="c23"><g><use transform="matrix(1.0,0.0,0.0,1.0,0.0,0.0)" xlink:href="#c22"/></g></g><g id="c24"><path fill="#584631" stroke="none" d="M-1.65 -3.15 L0.85 -3.4 Q2.15 -2.8 2.7 -1.5 L2.25 2.45 Q1.75 3.15 0.05 3.45 -2.25 1.8 -2.7 -0.1 -2.5 -1.95 -1.65 -3.15"/><path fill="none" stroke="#000000" stroke-width="0.5" stroke-opacity="0.4" d="M-1.65 -3.15 Q-2.5 -1.95 -2.7 -0.1 -2.25 1.8 0.05 3.45 1.75 3.15 2.25 2.45 L2.7 -1.5 Q2.15 -2.8 0.85 -3.4 L-1.65 -3.15"/><path fill="#aa9672" stroke="none" d="M0.35 3.45 L-1.1 3.4 -1.45 2.8 -1.15 2.2 0.2 2.2 0.35 3.45"/><path fill="none" stroke="#000000" stroke-width="0.5" stroke-opacity="0.4" d="M0.35 3.45 L-1.1 3.4 -1.45 2.8 -1.15 2.2 0.2 2.2 0.35 3.45"/></g><g id="c25"><g><use transform="matrix(1.0,0.0,0.0,1.0,0.0,0.0)" xlink:href="#c24"/></g></g><g id="c26"><path fill="#79532a" stroke="none" d="M-2.8 -3.7 L-0.9 -3.75 1.75 -2.25 Q2.45 -0.05 3.4 1.2 L4.15 2.1 4.3 2.8 Q1.0 3.4 -1.45 2.4 -5.1 0.15 -2.8 -3.7"/><path fill="#4e3415" stroke="none" d="M-2.8 -3.7 Q-5.1 0.15 -1.45 2.4 1.0 3.4 4.3 2.8 L4.15 3.2 2.9 3.8 Q0.25 4.2 -1.75 3.1 -4.05 1.45 -4.5 -0.5 -4.3 -2.35 -2.8 -3.7"/><path fill="none" stroke="#000000" stroke-width="0.5" stroke-opacity="0.4" d="M4.3 2.8 L4.15 2.1 3.4 1.2 Q2.45 -0.05 1.75 -2.25 M-2.8 -3.7 Q-4.3 -2.35 -4.5 -0.5 -4.05 1.45 -1.75 3.1 0.25 4.2 2.9 3.8 L4.15 3.2 4.3 2.8"/><path fill="#aa9672" stroke="none" d="M3.15 3.7 L2.8 3.75 2.8 2.95 Q2.85 1.9 3.65 1.1 L4.4 2.05 Q4.65 2.65 4.4 3.1 4.0 3.45 3.15 3.7"/><path fill="none" stroke="#000000" stroke-width="0.5" stroke-opacity="0.4" d="M3.15 3.7 Q4.0 3.45 4.4 3.1 4.65 2.65 4.4 2.05 L3.65 1.1 Q2.85 1.9 2.8 2.95 L2.8 3.75 3.15 3.7"/></g><g id="c27"><g><use transform="matrix(1.0,0.0,0.0,1.0,0.0,0.0)" xlink:href="#c26"/></g></g><g id="c28"><path fill="#fcfcfc" stroke="none" d="M-27.85 55.3 Q-33.55 38.45 -19.05 22.35 -4.1 19.55 14.15 22.35 51.2 32.7 64.15 55.3 52.15 68.35 22.55 75.4 -12.5 72.95 -27.85 55.3"/></g><g id="c29"><g><use transform="matrix(1.0,0.0,0.0,1.0,0.0,0.0)" xlink:href="#c28"/></g></g><g id="c30"><path fill="#3eb477" stroke="none" d="M-8.95 -1.05 L-7.95 -2.2 Q-6.2 -3.85 -3.45 -4.8 L1.05 -5.35 Q3.9 -5.5 6.15 -4.6 -2.6 -4.1 -8.95 -1.05"/><path fill="#1d7d4f" stroke="none" d="M-10.4 2.05 Q-10.2 0.55 -8.95 -1.05 -2.6 -4.1 6.15 -4.6 L6.6 -4.4 Q10.4 -3.2 10.35 -1.3 7.35 2.35 2.15 3.1 L-6.65 3.6 Q-9.25 3.45 -10.4 2.05"/><path fill="#0c4a2c" stroke="none" d="M10.35 -1.3 Q10.55 1.15 10.05 1.95 6.3 4.2 1.1 5.3 -4.4 5.05 -8.95 4.05 -10.0 3.1 -10.4 2.05 -9.25 3.45 -6.65 3.6 L2.15 3.1 Q7.35 2.35 10.35 -1.3"/><path fill="none" stroke="#000000" stroke-width="0.5" stroke-opacity="0.4" d="M10.35 -1.3 Q10.55 1.15 10.05 1.95 6.3 4.2 1.1 5.3 -4.4 5.05 -8.95 4.05 -10.0 3.1 -10.4 2.05 -10.2 0.55 -8.95 -1.05 L-7.95 -2.2 Q-6.2 -3.85 -3.45 -4.8 L1.05 -5.35 Q3.9 -5.5 6.15 -4.6 L6.6 -4.4 Q10.4 -3.2 10.35 -1.3 7.35 2.35 2.15 3.1 L-6.65 3.6 Q-9.25 3.45 -10.4 2.05"/></g><g id="c31"><g><use transform="matrix(1.0,0.0,0.0,1.0,0.0,0.0)" xlink:href="#c30"/></g></g><g id="c32"><path fill="#1a9a4d" stroke="none" d="M2.7 4.15 L-0.15 6.05 Q-3.55 6.85 -5.55 5.5 L-6.15 4.55 -3.95 2.25 0.35 1.75 Q2.05 2.8 2.7 4.15"/><path fill="#146f43" stroke="none" d="M5.65 0.85 Q4.45 2.7 2.7 4.15 2.05 2.8 0.35 1.75 L-3.95 2.25 -6.15 4.55 -7.1 2.7 -7.1 1.15 Q0.0 0.5 5.65 0.85"/><path fill="#0c4a2c" stroke="none" d="M4.85 -6.75 L6.55 -4.55 Q7.85 -1.45 6.4 1.35 4.35 4.9 0.45 6.8 L-4.65 6.65 -5.55 5.5 Q-3.55 6.85 -0.15 6.05 L2.7 4.15 Q4.45 2.7 5.65 0.85 7.45 -2.95 4.85 -6.75"/><path fill="#0a5430" stroke="none" d="M4.85 -6.75 Q7.45 -2.95 5.65 0.85 0.0 0.5 -7.1 1.15 -6.8 -3.25 -2.45 -6.5 L4.85 -6.75"/><path fill="none" stroke="#000000" stroke-width="0.5" stroke-opacity="0.4" d="M-5.55 5.5 L-4.65 6.65 0.45 6.8 Q4.35 4.9 6.4 1.35 7.85 -1.45 6.55 -4.55 L4.85 -6.75 Q7.45 -2.95 5.65 0.85 4.45 2.7 2.7 4.15 L-0.15 6.05 Q-3.55 6.85 -5.55 5.5 L-6.15 4.55 -7.1 2.7 -7.1 1.15 Q-6.8 -3.25 -2.45 -6.5 L4.85 -6.75"/></g><g id="c33"><g><use transform="matrix(1.0,0.0,0.0,1.0,0.0,0.0)" xlink:href="#c32"/></g></g><g id="c34"><path fill="#1da751" stroke="none" d="M-7.55 3.3 L-7.95 2.45 -7.75 -0.2 -6.05 -0.45 -3.85 2.3 -3.85 4.15 Q-5.85 4.7 -7.55 3.3"/><path fill="#146f43" stroke="none" d="M-6.95 4.35 L-7.55 3.3 Q-5.85 4.7 -3.85 4.15 L-3.85 2.3 -6.05 -0.45 -7.75 -0.2 -6.6 -3.5 Q-4.5 -5.2 -0.9 -5.95 1.9 -6.25 4.15 -5.2 L-3.3 1.35 Q3.95 3.55 0.6 4.65 L-2.15 4.9 -4.25 4.65 -6.95 4.35"/><path fill="#0e5e38" stroke="none" d="M7.9 -1.95 L7.75 -0.2 Q5.85 3.6 2.05 5.25 -1.95 6.65 -5.55 5.2 -6.6 4.8 -6.95 4.35 L-4.25 4.65 -2.15 4.9 0.6 4.65 3.2 3.75 Q6.25 0.55 7.9 -1.95"/><path fill="#0a5430" stroke="none" d="M4.15 -5.2 Q6.3 -4.2 7.9 -1.95 6.25 0.55 3.2 3.75 L0.6 4.65 Q3.95 3.55 -3.3 1.35 L4.15 -5.2"/><path fill="none" stroke="#000000" stroke-width="0.5" stroke-opacity="0.4" d="M7.9 -1.95 L7.75 -0.2 Q5.85 3.6 2.05 5.25 -1.95 6.65 -5.55 5.2 -6.6 4.8 -6.95 4.35 L-7.55 3.3 -7.95 2.45 -7.75 -0.2 -6.6 -3.5 Q-4.5 -5.2 -0.9 -5.95 1.9 -6.25 4.15 -5.2 6.3 -4.2 7.9 -1.95 6.25 0.55 3.2 3.75 L0.6 4.65 -2.15 4.9 -4.25 4.65 -6.95 4.35"/></g><g id="c35"><g><use transform="matrix(1.0,0.0,0.0,1.0,0.0,0.0)" xlink:href="#c34"/></g></g><g id="c36"><path fill="#33a46c" stroke="none" d="M0.15 2.4 L1.45 0.75 3.05 0.75 4.85 2.55 Q3.9 3.5 2.25 3.1 L0.15 2.4"/><path fill="#146f43" stroke="none" d="M3.85 -0.6 Q4.9 0.85 4.85 2.55 L3.05 0.75 1.45 0.75 0.15 2.4 Q-0.2 2.25 -0.6 2.05 0.05 0.25 1.55 -0.15 4.95 1.15 3.85 -0.6"/><path fill="#0c4a2c" stroke="none" d="M4.85 2.55 Q4.15 3.3 3.0 3.85 -0.1 3.6 -1.75 2.2 -4.65 0.25 -4.85 -1.9 L-4.6 -3.3 Q-4.3 -0.55 -2.5 0.95 L-0.6 2.05 Q-0.2 2.25 0.15 2.4 L2.25 3.1 Q3.9 3.5 4.85 2.55"/><path fill="#0a5430" stroke="none" d="M-4.6 -3.3 L-3.4 -3.85 -0.05 -3.6 1.95 -2.45 3.85 -0.6 Q4.95 1.15 1.55 -0.15 0.05 0.25 -0.6 2.05 L-2.5 0.95 Q-4.3 -0.55 -4.6 -3.3"/><path fill="none" stroke="#000000" stroke-width="0.5" stroke-opacity="0.4" d="M-4.6 -3.3 L-3.4 -3.85 -0.05 -3.6 1.95 -2.45 3.85 -0.6 Q4.9 0.85 4.85 2.55 4.15 3.3 3.0 3.85 -0.1 3.6 -1.75 2.2 -4.65 0.25 -4.85 -1.9 L-4.6 -3.3 Q-4.3 -0.55 -2.5 0.95 L-0.6 2.05 M4.85 2.55 Q3.9 3.5 2.25 3.1 L0.15 2.4 Q-0.2 2.25 -0.6 2.05"/></g><g id="c37"><g><use transform="matrix(1.0,0.0,0.0,1.0,0.0,0.0)" xlink:href="#c36"/></g></g><g id="c38"><path fill="#1cd45a" stroke="none" d="M-7.8 1.1 Q-7.8 -0.2 -7.4 -1.4 -4.5 -5.05 1.9 -5.0 5.3 -4.2 7.85 -1.65 7.6 2.0 3.85 3.55 L-3.9 4.05 Q-7.05 2.9 -7.8 1.1"/><path fill="#146f43" stroke="none" d="M-7.8 1.1 Q-7.05 2.9 -3.9 4.05 L3.85 3.55 Q7.6 2.0 7.85 -1.65 L7.85 0.5 Q7.05 3.15 4.2 4.2 0.4 5.45 -3.85 4.75 -6.45 4.1 -7.8 2.25 L-7.8 1.1"/><path fill="none" stroke="#000000" stroke-width="0.5" stroke-opacity="0.4" d="M7.85 -1.65 Q5.3 -4.2 1.9 -5.0 -4.5 -5.05 -7.4 -1.4 -7.8 -0.2 -7.8 1.1 -7.05 2.9 -3.9 4.05 L3.85 3.55 Q7.6 2.0 7.85 -1.65 L7.85 0.5 Q7.05 3.15 4.2 4.2 0.4 5.45 -3.85 4.75 -6.45 4.1 -7.8 2.25 L-7.8 1.1"/><path fill="#3ae576" stroke="none" d="M6.55 -2.2 L6.55 -0.45 Q5.85 1.65 3.55 2.55 0.45 3.55 -3.0 3.0 -5.1 2.5 -6.25 0.95 L-6.25 0.0 -5.9 -2.05 Q-3.55 -5.0 1.65 -4.95 4.45 -4.3 6.55 -2.2"/></g><g id="c39"><g><use transform="matrix(1.0,0.0,0.0,1.0,0.0,0.0)" xlink:href="#c38"/></g></g><g id="c40"><path fill="#1cd45a" stroke="none" d="M-5.3 -3.15 L-4.45 -3.85 -2.9 -4.05 -0.6 -3.75 2.15 -2.8 Q3.7 -1.85 4.5 -0.6 L5.25 1.3 Q4.75 3.95 0.1 1.95 -3.2 0.6 -4.6 -1.3 L-5.3 -3.15"/><path fill="#4ced86" stroke="none" d="M5.25 1.3 L5.35 2.35 Q4.4 3.65 2.65 3.3 0.5 2.8 -2.45 1.15 -3.8 0.2 -4.6 -1.3 -3.2 0.6 0.1 1.95 4.75 3.95 5.25 1.3"/><path fill="#2d9160" stroke="none" d="M5.35 2.35 Q4.65 3.5 3.55 4.0 0.45 3.8 -1.85 2.55 -5.0 0.85 -5.3 -1.7 L-5.3 -3.15 -4.6 -1.3 Q-3.8 0.2 -2.45 1.15 0.5 2.8 2.65 3.3 4.4 3.65 5.35 2.35"/><path fill="none" stroke="#000000" stroke-width="0.5" stroke-opacity="0.4" d="M-5.3 -3.15 L-4.45 -3.85 -2.9 -4.05 -0.6 -3.75 2.15 -2.8 Q3.7 -1.85 4.5 -0.6 L5.25 1.3 5.35 2.35 Q4.65 3.5 3.55 4.0 0.45 3.8 -1.85 2.55 -5.0 0.85 -5.3 -1.7 L-5.3 -3.15 -4.6 -1.3 M5.35 2.35 Q4.4 3.65 2.65 3.3 0.5 2.8 -2.45 1.15 -3.8 0.2 -4.6 -1.3"/><path fill="#4ced86" stroke="none" d="M-3.35 -2.95 L-2.75 -3.3 -1.7 -3.35 -0.15 -3.05 1.75 -2.35 3.3 -0.9 3.85 0.2 3.9 0.85 2.65 1.7 Q0.55 1.35 -1.0 0.5 -3.1 -0.65 -3.35 -2.1 L-3.35 -2.95"/></g><g id="c41"><g><use transform="matrix(1.0,0.0,0.0,1.0,0.0,0.0)" xlink:href="#c40"/></g></g><g id="c42"><path fill="#2edc6b" stroke="none" d="M-9.15 2.45 Q-8.85 0.4 -6.7 -1.8 -4.95 -3.5 -2.2 -4.4 L2.3 -5.0 Q5.45 -5.1 7.9 -4.05 9.0 -3.15 9.15 -1.8 6.6 1.85 -0.55 3.05 -4.9 4.05 -9.15 2.45"/><path fill="#4ced86" stroke="none" d="M-9.15 2.45 Q-4.9 4.05 -0.55 3.05 6.6 1.85 9.15 -1.8 L9.1 -0.7 Q6.9 1.1 3.35 2.75 -1.3 4.15 -5.4 4.0 -8.0 3.85 -9.15 2.45"/><path fill="#1d8a55" stroke="none" d="M9.1 -0.7 L8.65 0.55 Q5.95 3.25 1.5 4.45 -3.15 5.45 -7.7 4.45 -8.75 3.5 -9.15 2.45 -8.0 3.85 -5.4 4.0 -1.3 4.15 3.35 2.75 6.9 1.1 9.1 -0.7"/><path fill="none" stroke="#000000" stroke-width="0.5" stroke-opacity="0.4" d="M9.15 -1.8 Q9.0 -3.15 7.9 -4.05 5.45 -5.1 2.3 -5.0 L-2.2 -4.4 Q-4.95 -3.5 -6.7 -1.8 -8.85 0.4 -9.15 2.45 -8.0 3.85 -5.4 4.0 -1.3 4.15 3.35 2.75 6.9 1.1 9.1 -0.7 L8.65 0.55 Q5.95 3.25 1.5 4.45 -3.15 5.45 -7.7 4.45 -8.75 3.5 -9.15 2.45 M9.15 -1.8 L9.1 -0.7"/><path fill="#4ced86" stroke="none" d="M6.1 -1.15 L5.8 -0.4 Q3.9 1.35 0.75 2.1 -2.5 2.75 -5.65 2.1 L-6.7 0.85 Q-6.45 -0.5 -4.95 -1.9 -3.75 -2.95 -1.8 -3.55 L1.3 -3.95 Q3.55 -4.0 5.25 -3.3 6.0 -2.75 6.1 -1.85 L6.1 -1.15"/></g><g id="c43"><g><use transform="matrix(1.0,0.0,0.0,1.0,0.0,0.0)" xlink:href="#c42"/></g></g><g id="c44"><g><use transform="matrix(1.0,0.0,0.0,1.0,-0.05,-0.05)" xlink:href="#c17"/></g><g><use transform="matrix(1.0,0.0,0.0,1.0,5.65,-6.4)" xlink:href="#c19"/></g><g><use transform="matrix(1.0,0.0,0.0,1.0,11.65,1.65)" xlink:href="#c21"/></g><g><use transform="matrix(1.0,0.0,0.0,1.0,0.45,-2.95)" xlink:href="#c23"/></g><g><use transform="matrix(1.0,0.0,0.0,1.0,-10.8,1.75)" xlink:href="#c25"/></g><g><use transform="matrix(1.0,0.0,0.0,1.0,-3.0,6.4)" xlink:href="#c27"/></g><g><use transform="matrix(1.0,0.0,0.0,1.0,0.05,-1.9)" xlink:href="#c6"/></g><g><use transform="matrix(1.0,0.0,0.0,1.0,8.2,-4.85)" xlink:href="#c4"/></g><g><use transform="matrix(-0.0663604736328,0.0191802978516,0.0,0.0885009765625,11.0,-7.3)" xlink:href="#c2"/></g><g><use transform="matrix(0.0885009765625,0.0,0.0,0.0885009765625,-1.35,-5.65)" xlink:href="#c29"/></g><g><use transform="matrix(1.0,0.0,0.0,1.0,-2.3,-15.2)" xlink:href="#c31"/></g><g><use transform="matrix(1.0,0.0,0.0,1.0,-7.8,-5.8)" xlink:href="#c33"/></g><g><use transform="matrix(1.0,0.0,0.0,1.0,-8.75,-10.45)" xlink:href="#c35"/></g><g><use transform="matrix(1.0,0.0,0.0,1.0,9.7,-8.75)" xlink:href="#c37"/></g><g><use transform="matrix(1.0,0.0,0.0,1.0,1.45,-7.95)" xlink:href="#c39"/></g><g><use transform="matrix(1.0,0.0,0.0,1.0,10.15,-12.65)" xlink:href="#c41"/></g><g><use transform="matrix(1.0,0.0,0.0,1.0,-4.8,-13.45)" xlink:href="#c43"/></g></g><g id="c45"><g><use transform="matrix(1.0,0.0,0.0,1.0,6.3,53.35)" xlink:href="#c15"/></g><g><use transform="matrix(0.544006347656,-0.0711059570312,0.0711059570312,0.544006347656,28.8,78.9)" xlink:href="#c44"/></g><g><use transform="matrix(0.141098022461,-0.0378112792969,0.111373901367,0.225646972656,27.2,74.05)" filter="url(#filter45)" xlink:href="#c12"/></g></g><filter id="filter45"><feColorMatrix in="SourceGraphic" type="matrix" values="1.0 0.0 0.0 0.0 0.0 0.0 1.0 0.0 0.0 0.0 0.0 0.0 1.0 0.0 0.0 0.0 0.0 0.0 0.23046875 0.0" result="cxform"/><feComposite operator="in" in2="SourceGraphic" result="color-xform"/></filter></defs><g><g><use transform="matrix(1.0,0.0,0.0,1.0,0.0,0.0)" xlink:href="#c7"/></g><g><use transform="matrix(1.15496826172,0.0,0.0,1.15496826172,-1.55,-56.9)" xlink:href="#c45"/></g></g></svg>