<?xml version="1.0" encoding="UTF-8" standalone="no"?>
<svg xmlns:xlink="http://www.w3.org/1999/xlink" height="60.0px" width="60.0px" xmlns="http://www.w3.org/2000/svg">
  <g transform="matrix(1.0, 0.0, 0.0, 1.0, 0.0, 0.0)">
    <use height="60.0" transform="matrix(1.0, 0.0, 0.0, 1.0, 0.0, 0.0)" width="60.0" xlink:href="#shape0"/>
    <use height="44.85" transform="matrix(1.155, 0.0, 0.0, 1.155, 5.1221, 2.0034)" width="42.8" xlink:href="#sprite0"/>
  </g>
  <defs>
    <g id="shape0" transform="matrix(1.0, 0.0, 0.0, 1.0, 0.0, 0.0)">
      <path d="M0.0 0.0 L60.0 0.0 60.0 60.0 0.0 60.0 0.0 0.0" fill="#000000" fill-opacity="0.003921569" fill-rule="evenodd" stroke="none"/>
    </g>
    <g id="sprite0" transform="matrix(1.0, 0.0, 0.0, 1.0, -5.95, -51.0)">
      <use height="41.05" transform="matrix(1.0, 0.0, 0.0, 1.0, 5.95, 54.8)" width="42.8" xlink:href="#sprite1"/>
      <clipPath id="clipPath0" transform="matrix(1.0, 0.0, 0.0, 1.0, 0.0, 0.0)">
        <path d="M46.35 90.05 L45.05 90.6 31.05 95.1 18.7 90.15 7.5 65.15 Q6.55 63.0 7.25 61.65 7.6 61.0 8.3 60.5 8.95 60.05 9.95 59.7 L23.65 55.3 36.35 60.35 47.5 85.05 Q49.1 88.5 46.35 90.05" fill="#003333" fill-rule="evenodd" stroke="none"/>
      </clipPath>
      <g clip-path="url(#clipPath0)">
        <use height="0.0" transform="matrix(1.0, 0.0, 0.0, 1.0, 6.45, 53.4)" width="0.0" xlink:href="#sprite5"/>
      </g>
      <use height="4.65" transform="matrix(1.0, 0.0, 0.0, 1.0, 21.2, 71.35)" width="5.9" xlink:href="#shape5"/>
      <use height="14.5" transform="matrix(0.4513, -0.1209, 0.121, 0.4516, 21.9642, 76.9004)" width="33.85" xlink:href="#sprite6"/>
      <use height="30.4" transform="matrix(0.3125, -0.0837, 0.0713, 0.2661, 17.5036, 74.4633)" width="60.1" xlink:href="#sprite7"/>
      <use height="10.35" transform="matrix(1.0, 0.0, 0.0, 1.0, 18.2, 69.45)" width="18.3" xlink:href="#shape8"/>
      <use height="14.9" transform="matrix(0.1301, 0.0056, 0.0113, 0.079, 28.45, 69.5)" width="26.15" xlink:href="#sprite8"/>
      <use height="54.45" transform="matrix(0.1047, -0.028, 0.028, 0.1048, 18.45, 72.6)" width="134.9" xlink:href="#sprite9"/>
      <use height="25.5" transform="matrix(0.4459, -0.1195, 0.1195, 0.4459, 15.2624, 68.3899)" width="39.7" xlink:href="#sprite10"/>
      <use height="22.3" transform="matrix(-0.2148, 0.0575, 0.0576, 0.2149, 35.6044, 70.3431)" width="26.7" xlink:href="#sprite11"/>
      <use height="13.35" transform="matrix(1.0, 0.0, 0.0, 1.0, 21.9, 62.85)" width="9.65" xlink:href="#shape20"/>
      <use height="0.0" transform="matrix(0.077, -0.0206, 0.0144, 0.0538, 28.6, 74.45)" width="0.0" xlink:href="#sprite16"/>
      <use height="81.5" transform="matrix(0.0979, -0.0262, 0.0262, 0.0979, 24.95, 73.0)" width="81.5" xlink:href="#sprite17"/>
      <use height="81.5" transform="matrix(0.0847, -0.0227, 0.0227, 0.0847, 18.05, 71.1)" width="81.5" xlink:href="#sprite17"/>
      <use height="40.2" transform="matrix(1.0, 0.0, 0.0, 1.0, 6.25, 55.25)" width="42.1" xlink:href="#shape22"/>
      <clipPath id="clipPath3" transform="matrix(1.0, 0.0, 0.0, 1.0, 0.0, 0.0)">
        <path d="M46.35 90.05 L45.05 90.6 31.05 95.1 18.7 90.15 7.5 65.15 Q6.55 63.0 7.25 61.65 7.6 61.0 8.3 60.5 8.95 60.05 9.95 59.7 L23.65 55.3 36.35 60.35 47.5 85.05 Q49.1 88.5 46.35 90.05" fill="#003333" fill-rule="evenodd" stroke="none"/>
      </clipPath>
      <g clip-path="url(#clipPath3)">
        <use height="0.0" transform="matrix(1.0, 0.0, 0.0, 1.0, 9.65, 51.0)" width="0.0" xlink:href="#sprite19"/>
        <use height="0.0" transform="matrix(1.0, 0.0, 0.0, 1.0, 9.65, 51.0)" width="0.0" xlink:href="#sprite19"/>
        <use height="30.6" transform="matrix(1.0, 0.0, 0.0, 1.0, 14.7, 59.4)" width="27.15" xlink:href="#shape23"/>
      </g>
      <use height="0.0" transform="matrix(0.1411, -0.0378, 0.1114, 0.2256, 27.2, 74.05)" width="0.0" xlink:href="#sprite3"/>
    </g>
    <g id="sprite1" transform="matrix(1.0, 0.0, 0.0, 1.0, 0.35, -1.45)">
      <use height="13.75" transform="matrix(0.2389, -0.0867, 0.1003, 0.2339, 34.25, 31.15)" width="15.1" xlink:href="#sprite2"/>
      <use height="13.75" transform="matrix(0.2389, -0.0867, 0.1003, 0.2339, 4.25, 10.3)" width="15.1" xlink:href="#sprite2"/>
      <use height="43.05" transform="matrix(1.0, 0.0, 0.0, 1.0, -1.35, 0.45)" width="44.8" xlink:href="#shape2"/>
      <use height="13.75" transform="matrix(0.2389, -0.0867, 0.1003, 0.2339, 34.25, 31.15)" width="15.1" xlink:href="#sprite2"/>
      <use height="13.75" transform="matrix(0.2389, -0.0867, 0.1003, 0.2339, 4.25, 10.3)" width="15.1" xlink:href="#sprite2"/>
      <use height="0.0" transform="matrix(0.1411, -0.0378, 0.1114, 0.2256, 20.25, 20.65)" width="0.0" xlink:href="#sprite3"/>
      <use height="211.45" transform="matrix(-0.155, 0.0513, 0.0842, 0.147, 22.6042, 3.1574)" width="136.6" xlink:href="#sprite4"/>
    </g>
    <g id="sprite2" transform="matrix(1.0, 0.0, 0.0, 1.0, 0.0, 0.0)">
      <use height="13.75" transform="matrix(1.0, 0.0, 0.0, 1.0, 0.0, 0.0)" width="15.1" xlink:href="#shape1"/>
    </g>
    <g id="shape1" transform="matrix(1.0, 0.0, 0.0, 1.0, 0.0, 0.0)">
      <path d="M10.75 4.9 Q10.75 4.6 10.9 4.35 11.25 3.45 11.95 2.75 13.3 1.5 14.35 2.1 15.4 2.7 14.95 4.45 14.7 5.4 14.1 6.15 L13.75 6.5 Q13.1 7.15 12.35 7.35 L11.4 7.2 Q10.95 6.9 10.75 6.4 10.5 5.75 10.75 4.9 M7.5 5.9 Q7.0 5.85 6.6 5.5 6.05 5.0 5.8 4.15 L5.7 3.6 Q5.55 2.65 5.8 1.7 6.25 0.0 7.5 0.0 L7.6 0.0 Q8.85 0.0 9.3 1.7 9.55 2.65 9.4 3.6 L9.3 4.15 8.5 5.5 7.6 5.9 7.5 5.9 M4.35 4.9 Q4.6 5.75 4.35 6.4 L3.7 7.2 2.75 7.35 Q2.0 7.15 1.35 6.5 L1.0 6.15 Q0.4 5.4 0.15 4.45 -0.3 2.7 0.75 2.1 1.8 1.5 3.15 2.75 3.85 3.45 4.2 4.35 L4.35 4.9 M5.5 13.7 Q4.45 13.9 3.65 12.95 2.75 12.0 3.2 10.25 3.7 8.5 5.25 7.6 6.4 6.9 7.55 7.0 8.75 6.9 9.9 7.6 11.45 8.5 11.95 10.25 12.35 12.0 11.5 12.95 10.7 13.9 9.65 13.7 8.55 13.5 7.55 12.6 6.55 13.5 5.5 13.7" fill="#7fdbfe" fill-rule="evenodd" stroke="none"/>
    </g>
    <g id="shape2" transform="matrix(1.0, 0.0, 0.0, 1.0, 1.35, -0.45)">
      <path d="M11.85 37.0 L0.7 12.25 Q-0.45 9.75 0.75 8.25 1.2 7.6 2.15 7.15 2.8 6.7 3.8 6.35 L17.5 1.95 30.2 7.0 41.35 31.7 Q42.95 35.15 40.2 36.7 39.5 37.3 38.3 37.65 L25.5 41.8 25.45 41.75 24.55 42.0 11.85 37.0 Z" fill="none" stroke="#000000" stroke-linecap="round" stroke-linejoin="round" stroke-opacity="0.29803923" stroke-width="1.0"/>
      <path d="M35.55 22.3 L31.5 13.2 29.75 9.2 16.95 4.25 5.5 7.85 Q1.65 9.1 3.35 12.8 L8.25 23.65 13.1 34.35 25.8 39.4 37.2 35.7 Q41.1 34.5 39.35 30.75 L35.55 22.3 M5.45 20.95 L1.35 11.8 Q0.4 9.65 1.1 8.3 1.45 7.65 2.15 7.15 2.8 6.7 3.8 6.35 L17.5 1.95 30.2 7.0 41.35 31.7 Q42.95 35.15 40.2 36.7 L38.9 37.25 25.2 41.65 12.5 36.65 5.45 20.95" fill="#ffcc00" fill-rule="evenodd" stroke="none"/>
      <path d="M31.5 13.2 L35.55 22.3 39.35 30.75 Q41.1 34.5 37.2 35.7 L25.8 39.4 13.1 34.35 8.25 23.65 3.35 12.8 Q1.65 9.1 5.5 7.85 L16.95 4.25 29.75 9.2 31.5 13.2 M18.5 7.45 L9.1 10.55 9.55 11.6 Q9.8 12.8 9.15 13.6 8.4 14.45 7.1 14.4 L6.8 14.4 6.95 14.6 15.2 32.75 23.85 36.2 34.0 32.9 33.7 32.1 Q33.45 30.9 34.1 30.1 34.75 29.3 35.95 29.35 L35.8 29.0 27.75 10.95 18.5 7.45" fill="#996600" fill-rule="evenodd" stroke="none"/>
      <path d="M27.75 10.95 L35.8 29.0 35.95 29.35 Q34.75 29.3 34.1 30.1 33.45 30.9 33.7 32.1 L34.0 32.9 23.85 36.2 15.2 32.75 6.95 14.6 6.8 14.4 7.1 14.4 Q8.4 14.45 9.15 13.6 9.8 12.8 9.55 11.6 L9.1 10.55 18.5 7.45 27.75 10.95" fill="#fcf2cf" fill-rule="evenodd" stroke="none"/>
      <path d="M1.1 8.3 L0.75 8.25 Q1.2 7.6 2.15 7.15 1.45 7.65 1.1 8.3" fill="#630a4c" fill-rule="evenodd" stroke="none"/>
      <path d="M1.1 8.3 Q0.4 9.65 1.35 11.8 L5.45 20.95 4.6 20.9 0.7 12.25 Q-0.45 9.75 0.75 8.25 L1.1 8.3 M12.5 36.65 L25.2 41.65 38.9 37.25 40.2 36.7 Q39.5 37.3 38.3 37.65 L25.5 41.8 25.45 41.75 24.55 42.0 11.85 37.0 11.55 36.25 12.5 36.65" fill="#5b3c00" fill-rule="evenodd" stroke="none"/>
      <path d="M4.6 20.9 L5.45 20.95 12.5 36.65 11.55 36.25 11.25 35.55 4.6 20.9" fill="#724b00" fill-rule="evenodd" stroke="none"/>
      <path d="M31.5 13.2 L35.55 22.3 M13.1 34.35 L8.25 23.65" fill="none" stroke="#ffaa00" stroke-linecap="round" stroke-linejoin="round" stroke-opacity="0.7490196" stroke-width="1.0"/>
      <path d="M35.55 22.3 L39.35 30.75 Q41.1 34.5 37.2 35.7 L25.8 39.4 13.1 34.35 M8.25 23.65 L3.35 12.8 Q1.65 9.1 5.5 7.85 L16.95 4.25 29.75 9.2 31.5 13.2" fill="none" stroke="#fcf2cf" stroke-linecap="round" stroke-linejoin="round" stroke-opacity="0.7490196" stroke-width="1.0"/>
      <path d="M27.75 10.95 L35.8 29.0 35.95 29.35 Q34.75 29.3 34.1 30.1 33.45 30.9 33.7 32.1 L34.0 32.9 23.85 36.2 15.2 32.75 6.95 14.6 6.8 14.4 7.1 14.4 Q8.4 14.45 9.15 13.6 9.8 12.8 9.55 11.6 L9.1 10.55 18.5 7.45" fill="none" stroke="#f0b92b" stroke-linecap="round" stroke-linejoin="round" stroke-width="0.05"/>
      <path d="M5.45 20.95 L1.35 11.8 Q0.4 9.65 1.1 8.3 1.45 7.65 2.15 7.15 2.8 6.7 3.8 6.35 L17.5 1.95 M0.75 8.25 Q-0.45 9.75 0.7 12.25 L4.6 20.9 11.25 35.55 M5.45 20.95 L12.5 36.65 M25.2 41.65 L38.9 37.25 40.2 36.7 Q42.95 35.15 41.35 31.7 L30.2 7.0 M0.75 8.25 Q1.2 7.6 2.15 7.15 M25.5 41.8 L38.3 37.65 Q39.5 37.3 40.2 36.7" fill="none" stroke="#000000" stroke-linecap="round" stroke-linejoin="round" stroke-opacity="0.3019608" stroke-width="0.05"/>
      <path d="M18.5 7.45 L27.75 10.95" fill="none" stroke="#ffcc00" stroke-linecap="round" stroke-linejoin="round" stroke-opacity="0.7490196" stroke-width="0.05"/>
      <path d="M12.5 36.65 L25.2 41.65" fill="none" stroke="#432f2f" stroke-linecap="round" stroke-linejoin="round" stroke-width="0.05"/>
    </g>
    <g id="sprite4" transform="matrix(1.0, 0.0, 0.0, 1.0, 0.0, -0.05)">
      <use height="211.55" transform="matrix(1.0, 0.0, 0.0, 1.0, -0.05, 0.0)" width="136.7" xlink:href="#shape3"/>
    </g>
    <g id="shape3" transform="matrix(1.0, 0.0, 0.0, 1.0, 0.05, 0.0)">
      <path d="M136.55 165.8 L68.6 106.0 68.4 106.0 118.25 201.5 M68.3 105.8 L68.35 105.8 68.3 105.8 68.3 105.85 68.4 106.0 68.3 106.0 86.55 211.5 M68.3 105.8 L68.3 105.85 68.3 106.0 68.15 105.95 18.25 151.55 M68.3 105.85 L68.25 105.85 68.3 106.0 50.0 193.2 M68.25 105.85 L68.15 105.95 0.05 97.7 M68.3 105.85 L68.25 105.8 68.25 105.85 M68.25 105.8 L68.2 105.7 0.0 45.7 M68.3 105.8 L68.25 105.75 68.25 105.8 M68.25 105.75 L68.2 105.7 18.25 10.05 M68.6 106.0 L68.35 105.8 118.25 60.15 M86.6 18.35 L68.3 105.8 M136.6 114.25 L68.6 106.0 M68.25 105.75 L49.95 0.05" fill="none" stroke="url(#gradient0)" stroke-linecap="round" stroke-linejoin="round" stroke-width="0.05"/>
    </g>
    <radialGradient cx="0" cy="0" gradientTransform="matrix(0.2092, 0.0, 0.0, 0.1771, 67.15, 107.2)" gradientUnits="userSpaceOnUse" id="gradient0" r="819.2" spreadMethod="pad">
      <stop offset="0.3568627450980392" stop-color="#ffffff"/>
      <stop offset="0.6705882352941176" stop-color="#000000" stop-opacity="0.0"/>
    </radialGradient>
    <g id="shape5" transform="matrix(1.0, 0.0, 0.0, 1.0, -21.2, -71.35)">
      <path d="M26.1 72.2 L26.05 72.15 25.8 71.95 25.9 71.65 26.35 71.4 26.8 71.45 27.05 71.65 26.95 71.95 26.55 72.2 26.1 72.2 M21.7 74.5 L21.6 74.55 21.25 74.2 Q21.2 73.95 21.4 73.75 21.65 73.5 22.0 73.4 L22.75 73.4 23.1 73.7 22.95 74.2 22.3 74.5 21.7 74.5 M22.3 75.75 L22.45 75.45 Q22.6 75.3 22.85 75.2 L23.35 75.2 23.55 75.4 23.45 75.7 23.4 75.7 23.05 75.9 22.55 75.95 22.3 75.75" fill="#faf0be" fill-opacity="0.4" fill-rule="evenodd" stroke="none"/>
      <path d="M26.1 72.2 L26.05 72.15 25.8 71.95 25.9 71.65 26.35 71.4 26.8 71.45 27.05 71.65 M21.7 74.5 L21.6 74.55 21.25 74.2 Q21.2 73.95 21.4 73.75 21.65 73.5 22.0 73.4 L22.75 73.4 23.1 73.7 M23.4 75.7 L23.45 75.7 23.55 75.4 23.35 75.2 22.85 75.2 Q22.6 75.3 22.45 75.45 L22.3 75.75" fill="none" stroke="#2b2309" stroke-linecap="round" stroke-linejoin="round" stroke-opacity="0.101960786" stroke-width="0.05"/>
    </g>
    <g id="sprite6" transform="matrix(1.0, 0.0, 0.0, 1.0, 0.15, 0.15)">
      <use height="15.1" transform="matrix(1.0, 0.0, 0.0, 1.0, -0.45, -0.45)" width="34.45" xlink:href="#shape6"/>
    </g>
    <g id="shape6" transform="matrix(1.0, 0.0, 0.0, 1.0, 0.45, 0.45)">
      <path d="M31.75 1.95 L31.85 2.0 Q32.9 2.5 33.15 2.9 33.35 3.35 32.15 4.05 30.95 4.75 27.95 5.0 L22.95 5.45 Q24.55 5.6 26.0 6.55 26.85 7.1 25.85 7.65 L24.95 8.05 Q21.55 9.2 17.9 9.4 L16.65 9.45 12.05 9.55 7.15 9.0 Q6.2 8.8 6.5 8.2 6.75 8.0 7.0 7.95 L3.8 7.4 0.95 6.85 Q-0.55 6.4 0.35 5.5 1.6 4.65 2.8 4.1 5.6 2.7 8.6 2.1 L14.15 1.4 14.65 1.4 15.4 1.25 14.6 2.0 Q14.8 2.95 15.9 2.95 L15.95 3.05 15.5 3.1 13.2 3.2 10.9 3.25 Q8.8 3.25 7.1 3.9 4.75 3.9 5.4 6.95 6.85 7.5 8.0 7.45 L9.8 7.3 8.95 8.1 11.2 8.35 16.05 8.15 17.65 8.1 20.1 8.0 Q22.0 8.0 23.3 7.35 24.0 6.95 23.35 6.65 22.45 6.2 21.35 6.2 L19.0 6.25 18.2 6.25 18.8 5.35 19.1 4.35 20.4 4.35 Q24.2 4.35 27.9 3.35 L31.75 1.95 M28.85 7.0 L28.75 7.25 28.75 7.4 29.4 7.95 31.0 8.25 32.55 7.95 32.75 7.85 33.2 7.25 33.2 7.2 33.55 7.65 33.55 7.8 Q33.55 8.3 32.75 8.65 L30.85 9.0 28.9 8.65 Q28.1 8.3 28.1 7.8 28.1 7.4 28.7 7.05 L28.85 7.0 M9.1 11.45 L9.55 12.1 9.6 12.35 Q9.6 13.1 8.3 13.65 L5.35 14.2 2.3 13.65 Q1.1 13.1 1.1 12.35 1.1 11.7 2.0 11.2 L2.25 11.05 Q2.1 11.25 2.1 11.5 L2.1 11.65 Q2.25 12.15 3.1 12.55 L5.55 13.0 8.0 12.55 8.3 12.4 Q9.05 12.0 9.05 11.5 L9.1 11.45" fill="#f77087" fill-rule="evenodd" stroke="none"/>
      <path d="M15.4 1.25 L16.05 1.05 18.0 0.55 20.0 0.25 22.35 0.0 23.45 0.05 23.55 0.1 Q26.85 0.1 30.05 1.2 L31.75 1.95 27.9 3.35 Q24.2 4.35 20.4 4.35 L19.1 4.35 18.8 5.35 18.2 6.25 19.0 6.25 21.35 6.2 Q22.45 6.2 23.35 6.65 24.0 6.95 23.3 7.35 22.0 8.0 20.1 8.0 L17.65 8.1 16.05 8.15 11.2 8.35 8.95 8.1 9.8 7.3 8.0 7.45 Q6.85 7.5 5.4 6.95 4.75 3.9 7.1 3.9 8.8 3.25 10.9 3.25 L13.2 3.2 15.5 3.1 15.95 3.05 16.35 2.9 15.9 2.95 Q14.8 2.95 14.6 2.0 L15.4 1.25 M33.2 7.2 L33.2 7.25 32.75 7.85 32.55 7.95 31.0 8.25 29.4 7.95 28.75 7.4 28.75 7.25 28.85 7.0 28.9 6.95 Q29.7 6.6 30.85 6.6 L32.75 6.95 33.2 7.2 M18.65 2.85 Q19.0 3.05 19.35 2.85 L18.65 2.85 M2.25 11.05 L2.3 11.0 Q3.6 10.45 5.35 10.45 7.1 10.45 8.3 11.0 L9.05 11.4 9.05 11.5 Q9.05 12.0 8.3 12.4 L8.0 12.55 5.55 13.0 3.1 12.55 Q2.25 12.15 2.1 11.65 L2.1 11.5 Q2.1 11.25 2.25 11.05" fill="#fc758c" fill-rule="evenodd" stroke="none"/>
      <path d="M15.9 2.95 L16.35 2.9 15.95 3.05 15.9 2.95 M18.65 2.85 L19.35 2.85 Q19.0 3.05 18.65 2.85 M9.05 11.4 L9.1 11.45 9.05 11.5 9.05 11.4" fill="#f17385" fill-rule="evenodd" stroke="none"/>
      <path d="M15.4 1.25 L16.05 1.05 18.0 0.55 20.0 0.25 22.35 0.0 23.45 0.05 23.55 0.1 Q26.85 0.1 30.05 1.2 L31.75 1.95 31.85 2.0 Q32.9 2.5 33.15 2.9 33.35 3.35 32.15 4.05 30.95 4.75 27.95 5.0 L22.95 5.45 Q24.55 5.6 26.0 6.55 26.85 7.1 25.85 7.65 L24.95 8.05 Q21.55 9.2 17.9 9.4 L16.65 9.45 12.05 9.55 7.15 9.0 Q6.2 8.8 6.5 8.2 6.75 8.0 7.0 7.95 L3.8 7.4 0.95 6.85 Q-0.55 6.4 0.35 5.5 1.6 4.65 2.8 4.1 5.6 2.7 8.6 2.1 L14.15 1.4 14.65 1.4 15.4 1.25 M28.85 7.0 L28.7 7.05 Q28.1 7.4 28.1 7.8 28.1 8.3 28.9 8.65 L30.85 9.0 32.75 8.65 Q33.55 8.3 33.55 7.8 L33.55 7.65 33.2 7.2 32.75 6.95 30.85 6.6 Q29.7 6.6 28.9 6.95 L28.85 7.0 M2.25 11.05 L2.3 11.0 Q3.6 10.45 5.35 10.45 7.1 10.45 8.3 11.0 L9.05 11.4 9.1 11.45 9.55 12.1 9.6 12.35 Q9.6 13.1 8.3 13.65 L5.35 14.2 2.3 13.65 Q1.1 13.1 1.1 12.35 1.1 11.7 2.0 11.2 L2.25 11.05" fill="none" stroke="#de5985" stroke-linecap="round" stroke-linejoin="round" stroke-opacity="0.3019608" stroke-width="0.30000000000000004"/>
      <path d="M15.45 1.3 L16.05 1.1 18.05 0.55 20.05 0.3 22.4 0.05 23.5 0.1 23.6 0.1 25.4 0.25 Q26.85 1.7 26.2 2.65 L25.9 3.0 23.35 4.5 Q21.7 5.4 19.55 6.05 L18.4 6.35 Q15.95 6.8 13.85 5.85 L10.4 5.65 Q7.95 5.7 6.05 6.75 L4.55 7.55 3.85 7.45 1.0 6.85 Q-0.5 6.4 0.4 5.5 1.65 4.7 2.85 4.1 5.65 2.75 8.65 2.1 L14.2 1.45 14.7 1.4 15.45 1.3" fill="#de5985" fill-opacity="0.11372549" fill-rule="evenodd" stroke="none"/>
    </g>
    <g id="sprite7" transform="matrix(1.0, 0.0, 0.0, 1.0, 0.0, -0.05)">
      <use height="30.4" transform="matrix(1.0, 0.0, 0.0, 1.0, 0.0, 0.05)" width="60.1" xlink:href="#shape7"/>
    </g>
    <g id="shape7" transform="matrix(1.0, 0.0, 0.0, 1.0, 0.0, -0.05)">
      <path d="M60.1 15.25 Q60.1 21.5 51.3 25.95 42.5 30.4 30.05 30.45 17.6 30.4 8.8 25.95 0.0 21.5 0.0 15.25 0.0 8.95 8.8 4.45 17.6 0.0 30.05 0.05 42.5 0.0 51.3 4.45 60.1 8.95 60.1 15.25" fill="url(#gradient1)" fill-rule="evenodd" stroke="none"/>
    </g>
    <radialGradient cx="0" cy="0" gradientTransform="matrix(0.0, -0.0157, 0.0347, 0.0, 30.05, 15.25)" gradientUnits="userSpaceOnUse" id="gradient1" r="819.2" spreadMethod="pad">
      <stop offset="0.0" stop-color="#372a0e"/>
      <stop offset="0.6627450980392157" stop-color="#372a0e"/>
      <stop offset="1.0" stop-color="#382a0e" stop-opacity="0.0"/>
    </radialGradient>
    <g id="shape8" transform="matrix(1.0, 0.0, 0.0, 1.0, -18.2, -69.45)">
      <path d="M33.65 70.25 L34.1 70.65 34.55 71.8 34.45 72.2 Q34.1 73.35 32.6 74.45 L32.1 74.8 30.45 75.7 29.15 76.25 27.25 76.85 23.55 77.5 22.8 77.5 20.95 77.35 20.7 77.3 Q19.65 77.1 19.0 76.55 L18.85 76.5 18.55 76.15 18.5 76.0 Q18.25 75.6 18.3 75.2 18.35 74.7 18.7 74.15 19.15 73.45 19.95 72.8 L22.4 73.3 24.05 71.85 22.45 71.35 Q23.85 70.65 25.45 70.2 L27.2 69.8 Q30.4 69.25 32.55 69.8 L33.65 70.25 31.5 71.5 33.65 70.25 M24.2 71.8 L24.05 71.85 24.2 71.8 M32.25 72.85 L32.15 72.85 32.25 72.85 M23.65 71.6 L25.95 70.85 26.0 70.8 23.65 71.5 23.65 71.6 M22.8 77.4 L22.8 77.5 22.8 77.4 M22.65 76.35 L22.65 76.4 23.3 76.4 22.65 76.35 M27.2 76.8 L27.25 76.85 27.2 76.8" fill="#e69d5c" fill-rule="evenodd" stroke="none"/>
      <path d="M34.55 71.8 Q34.6 71.1 34.1 70.65 L35.1 71.75 Q36.05 73.1 35.8 74.2 L35.4 75.05 Q34.4 76.65 31.5 77.95 L29.85 78.65 Q29.85 77.45 29.15 76.25 L30.45 75.7 32.1 74.8 32.6 74.45 Q34.1 73.35 34.45 72.2 L34.55 71.8" fill="#80552e" fill-rule="evenodd" stroke="none"/>
      <path d="M34.1 70.65 Q34.6 71.1 34.55 71.8 L34.1 70.65 M18.5 76.0 L18.55 76.15 18.5 76.0" fill="#f0a458" fill-rule="evenodd" stroke="none"/>
      <path d="M22.45 71.35 L24.05 71.85 22.4 73.3 19.95 72.8 20.0 72.75 20.3 72.55 Q20.95 72.05 21.9 71.6 L22.45 71.35 M23.65 71.5 L26.0 70.8 25.95 70.85 23.65 71.6 23.65 71.5" fill="#d19c68" fill-rule="evenodd" stroke="none"/>
      <path d="M29.15 76.25 Q29.85 77.45 29.85 78.65 L29.85 78.7 27.85 79.25 Q27.85 78.0 27.25 76.85 L29.15 76.25" fill="#a36f3c" fill-rule="evenodd" stroke="none"/>
      <path d="M20.0 72.75 L19.95 72.8 20.0 72.75" fill="#ffaf5e" fill-rule="evenodd" stroke="none"/>
      <path d="M18.3 75.2 Q18.25 75.6 18.5 76.0 L18.55 76.15 18.85 76.5 Q18.85 77.55 19.3 78.65 L19.1 78.5 18.85 78.25 18.45 77.5 18.4 77.35 18.35 77.1 18.25 76.2 18.3 75.2 18.3 75.15 18.3 75.2" fill="#db9650" fill-rule="evenodd" stroke="none"/>
      <path d="M18.85 76.5 L19.0 76.55 Q19.65 77.1 20.7 77.3 L20.95 77.35 22.8 77.5 23.35 79.75 Q20.65 79.65 19.3 78.65 18.85 77.55 18.85 76.5" fill="#c28547" fill-rule="evenodd" stroke="none"/>
      <path d="M22.65 76.4 L22.65 76.35 23.3 76.4 22.65 76.4" fill="#ffca94" fill-rule="evenodd" stroke="none"/>
      <path d="M23.35 79.75 L22.8 77.5 23.55 77.5 27.25 76.85 Q27.85 78.0 27.85 79.25 L24.0 79.7 23.35 79.75" fill="url(#gradient2)" fill-rule="evenodd" stroke="none"/>
      <path d="M34.1 70.65 L33.65 70.25 32.55 69.8 Q30.4 69.25 27.2 69.8 L25.45 70.2 Q23.85 70.65 22.45 71.35 L21.9 71.6 Q20.95 72.05 20.3 72.55 L20.0 72.75 M19.95 72.8 Q19.15 73.45 18.7 74.15 18.35 74.7 18.3 75.2 L18.3 75.15 18.3 75.2 18.25 76.2 18.35 77.1 18.4 77.35 18.45 77.5 18.85 78.25 19.1 78.5 19.3 78.65 Q20.65 79.65 23.35 79.75" fill="none" stroke="#2b2409" stroke-linecap="round" stroke-linejoin="round" stroke-opacity="0.4" stroke-width="0.05"/>
      <path d="M33.65 70.25 L31.5 71.5 M22.45 71.35 L24.05 71.85 24.2 71.8 M32.1 74.8 L30.45 75.7 29.15 76.25 27.25 76.85 23.55 77.5 22.8 77.5 20.95 77.35 20.7 77.3 Q19.65 77.1 19.0 76.55 L18.85 76.5 18.55 76.15 M33.65 70.25 L33.7 70.25 M22.4 73.3 L24.05 71.85 M20.0 72.75 L19.95 72.8 M18.3 75.2 Q18.25 75.6 18.5 76.0 M22.65 76.4 L22.65 76.35" fill="none" stroke="#2b2409" stroke-linecap="round" stroke-linejoin="round" stroke-opacity="0.2" stroke-width="0.05"/>
      <path d="M34.1 70.65 Q34.6 71.1 34.55 71.8 L34.45 72.2 Q34.1 73.35 32.6 74.45 L32.1 74.8 M29.85 78.65 L31.5 77.95 Q34.4 76.65 35.4 75.05 L35.8 74.2 Q36.05 73.1 35.1 71.75 L34.1 70.65 M32.15 72.85 L32.25 72.85 M23.65 71.6 L23.65 71.5 M20.0 72.75 L19.95 72.8 M18.5 76.0 L18.55 76.15 18.5 76.0 M22.8 77.5 L22.8 77.4 M23.35 79.75 L24.0 79.7 27.85 79.25 29.85 78.7" fill="none" stroke="#2b2509" stroke-linecap="round" stroke-linejoin="round" stroke-opacity="0.33333334" stroke-width="0.05"/>
      <path d="M29.85 78.7 L29.85 78.65 M27.25 76.85 L27.2 76.8 M19.3 78.65 L19.3 78.75" fill="none" stroke="#1a1605" stroke-linecap="round" stroke-linejoin="round" stroke-opacity="0.101960786" stroke-width="0.05"/>
      <path d="M36.0 71.8 L35.35 71.7 34.15 73.15 Q33.45 73.9 33.7 74.65 L32.7 74.4 32.3 74.5 32.95 73.85 34.0 72.55 34.3 71.7 34.25 70.95 34.4 70.95 35.15 71.15 Q35.55 71.3 36.0 71.8" fill="#e68f47" fill-rule="evenodd" stroke="none"/>
      <path d="M34.2 75.95 L35.3 75.1 36.35 73.55 36.45 73.5 35.25 75.55 Q33.95 76.75 32.4 77.55 L33.05 76.85 33.85 76.15 34.2 75.95" fill="#5c3e21" fill-rule="evenodd" stroke="none"/>
      <path d="M32.3 74.5 L32.7 74.4 33.7 74.65 Q34.2 75.0 34.35 75.65 L34.4 75.8 34.35 75.85 33.85 76.15 33.05 76.85 32.4 77.55 32.3 77.65 32.25 77.65 31.6 75.15 31.9 74.8 32.3 74.5" fill="#8f5d33" fill-rule="evenodd" stroke="none"/>
      <path d="M34.2 75.95 L33.85 76.15 34.35 75.85 34.2 75.95" fill="#c58648" fill-rule="evenodd" stroke="none"/>
      <path d="M36.0 71.8 Q35.55 71.3 35.15 71.15 L34.4 70.95 M35.25 75.55 L36.45 73.5 M36.45 73.45 L36.45 73.3 Q36.55 72.35 36.0 71.8" fill="none" stroke="#2b2409" stroke-linecap="round" stroke-linejoin="round" stroke-opacity="0.4" stroke-width="0.05"/>
      <path d="M35.35 71.7 L36.0 71.8 M34.4 70.95 L34.25 70.95 M32.3 74.5 L32.7 74.4 33.7 74.65 Q34.2 75.0 34.35 75.65 L34.4 75.8 34.35 75.85 34.2 75.95 33.85 76.15 33.05 76.85 32.4 77.55 Q33.95 76.75 35.25 75.55 M36.45 73.5 L36.35 73.55 35.3 75.1 34.2 75.95 M36.45 73.5 L36.45 73.45 M31.6 75.15 L31.9 74.8 32.3 74.5 M32.4 77.55 L32.3 77.65 32.25 77.65 M33.85 76.15 L34.35 75.85" fill="none" stroke="#2b2509" stroke-linecap="round" stroke-linejoin="round" stroke-opacity="0.33333334" stroke-width="0.05"/>
      <path d="M19.95 77.85 L18.95 76.5 20.45 76.35 20.0 77.15 19.95 77.85" fill="#ba946d" fill-rule="evenodd" stroke="none"/>
      <path d="M19.95 77.85 L20.0 77.15 20.45 76.35 21.55 77.45 19.95 77.85" fill="#cca278" fill-rule="evenodd" stroke="none"/>
      <path d="M19.95 77.85 L18.95 76.5 20.45 76.35 20.5 76.35 M20.45 76.35 L20.0 77.15 19.95 77.85 21.55 77.45 20.45 76.35" fill="none" stroke="#2b2409" stroke-linecap="round" stroke-linejoin="round" stroke-opacity="0.101960786" stroke-width="0.05"/>
      <path d="M20.5 76.35 L22.35 75.9" fill="none" stroke="#2b2409" stroke-linecap="round" stroke-linejoin="round" stroke-opacity="0.2" stroke-width="0.05"/>
      <path d="M19.95 77.85 L21.35 79.55" fill="none" stroke="#2b2409" stroke-linecap="round" stroke-linejoin="round" stroke-opacity="0.2" stroke-width="0.05"/>
    </g>
    <linearGradient gradientTransform="matrix(0.0067, -0.0034, 9.0E-4, 0.003, 29.5, 76.2)" gradientUnits="userSpaceOnUse" id="gradient2" spreadMethod="pad" x1="-819.2" x2="819.2">
      <stop offset="0.0" stop-color="#c28547"/>
      <stop offset="1.0" stop-color="#a36f3c"/>
    </linearGradient>
    <g id="sprite8" transform="matrix(1.0, 0.0, 0.0, 1.0, 0.0, 0.0)">
      <use height="15.0" transform="matrix(1.0, 0.0, 0.0, 1.0, -0.05, -0.05)" width="26.25" xlink:href="#shape9"/>
    </g>
    <g id="shape9" transform="matrix(1.0, 0.0, 0.0, 1.0, 0.05, 0.05)">
      <path d="M12.15 14.8 L11.1 8.4 13.4 0.3 26.15 7.05 12.25 14.9 12.15 14.8" fill="#ebc5a0" fill-rule="evenodd" stroke="none"/>
      <path d="M13.4 0.3 L11.1 8.4 12.15 14.8 0.0 7.4 13.0 0.0 13.4 0.3" fill="#dfbe9e" fill-rule="evenodd" stroke="none"/>
      <path d="M13.4 0.3 L11.1 8.4 12.15 14.8 12.25 14.9 26.15 7.05 13.4 0.3 13.0 0.0 0.0 7.4 12.15 14.8" fill="none" stroke="#5d441e" stroke-linecap="round" stroke-linejoin="round" stroke-opacity="0.101960786" stroke-width="0.05"/>
    </g>
    <g id="sprite9" transform="matrix(1.0, 0.0, 0.0, 1.0, 0.0, 0.0)">
      <use height="54.55" transform="matrix(1.0, 0.0, 0.0, 1.0, -0.05, -0.05)" width="135.0" xlink:href="#shape10"/>
    </g>
    <g id="shape10" transform="matrix(1.0, 0.0, 0.0, 1.0, 0.05, 0.05)">
      <path d="M131.25 35.7 L130.85 36.15 129.55 37.5 126.5 40.25 126.2 40.35 124.0 38.75 123.8 38.65 Q110.1 29.65 86.2 26.6 L85.95 26.55 82.9 26.3 73.2 25.5 70.8 25.45 Q57.7 24.75 45.5 26.65 57.7 15.2 70.8 15.9 L82.9 16.75 85.1 17.0 85.95 17.0 Q110.05 20.05 123.8 29.1 128.65 32.25 131.25 35.7" fill="#c89d66" fill-rule="evenodd" stroke="none"/>
      <path d="M45.5 26.65 Q57.7 24.75 70.8 25.45 L73.2 25.5 82.9 26.3 85.95 26.55 86.2 26.6 Q110.1 29.65 123.8 38.65 L124.0 38.75 126.2 40.35 125.6 40.85 124.45 41.65 Q55.15 29.35 52.65 53.7 L42.45 52.15 40.45 51.85 30.35 49.6 23.7 47.35 Q20.2 40.25 24.75 31.3 30.05 29.6 36.4 28.2 40.8 27.2 45.5 26.65" fill="#ae8c5d" fill-rule="evenodd" stroke="none"/>
      <path d="M131.25 35.7 Q128.65 32.25 123.8 29.1 110.05 20.05 85.95 17.0 L85.1 17.0 82.9 16.75 70.8 15.9 Q57.7 15.2 45.5 26.65 43.65 8.9 47.1 1.65 59.35 -0.25 72.2 0.05 L82.0 0.6 83.35 0.7 84.15 0.75 85.25 0.85 87.15 1.2 Q110.8 3.65 124.45 12.4 138.0 21.05 134.0 31.25 133.1 32.65 132.45 34.2 131.7 34.9 131.25 35.7" fill="#cea269" fill-rule="evenodd" stroke="none"/>
      <path d="M124.45 41.65 Q116.95 46.6 104.6 49.85 L95.6 51.85 Q73.95 55.8 52.65 53.7 55.15 29.35 124.45 41.65" fill="#bf9763" fill-rule="evenodd" stroke="none"/>
      <path d="M23.7 47.35 L23.7 47.8 19.25 46.35 Q14.25 44.1 10.65 41.8 L7.85 39.9 Q5.35 38.0 3.65 35.9 L3.0 34.95 Q1.65 33.1 1.1 31.75 -2.4 24.0 5.35 16.55 14.6 7.45 35.9 2.75 41.45 1.55 47.15 0.9 L47.1 1.65 Q42.7 2.15 38.45 3.1 27.75 5.4 20.1 8.9 L20.1 8.15 20.1 8.9 Q12.4 12.35 7.85 16.95 0.05 24.45 3.55 32.1 L4.35 33.4 6.3 36.3 8.9 39.0 9.3 39.35 Q14.1 43.4 21.8 46.65 L23.7 47.35 M7.85 39.9 L8.9 39.0 7.85 39.9" fill="#f6cf9b" fill-rule="evenodd" stroke="none"/>
      <path d="M20.1 8.9 Q27.75 5.4 38.45 3.1 42.7 2.15 47.1 1.65 43.65 8.9 45.5 26.65 40.8 27.2 36.4 28.2 30.05 29.6 24.75 31.3 L21.45 32.45 18.6 33.6 Q13.2 22.45 20.1 8.9 M21.45 22.9 L21.45 23.0 21.6 22.9 21.45 22.9" fill="#bc9561" fill-rule="evenodd" stroke="none"/>
      <path d="M21.6 22.9 L21.45 23.0 21.45 22.9 21.6 22.9" fill="#b4905f" fill-rule="evenodd" stroke="none"/>
      <path d="M24.75 31.3 Q20.2 40.25 23.7 47.35 L21.8 46.65 Q14.1 43.4 9.3 39.35 L8.9 39.0 Q13.0 36.05 18.6 33.6 L18.55 34.55 18.6 33.6 21.45 32.45 24.75 31.3" fill="#a8875a" fill-rule="evenodd" stroke="none"/>
      <path d="M8.9 39.0 L6.3 36.3 4.35 33.4 3.55 32.1 Q0.05 24.45 7.85 16.95 12.4 12.35 20.1 8.9 13.2 22.45 18.6 33.6 13.0 36.05 8.9 39.0" fill="#b28e5d" fill-rule="evenodd" stroke="none"/>
      <path d="M126.2 40.35 L126.5 40.25 129.55 37.5 130.85 36.15 131.25 35.7 Q131.7 34.9 132.45 34.2 133.1 32.65 134.0 31.25 138.0 21.05 124.45 12.4 110.8 3.65 87.15 1.2 L85.25 0.85 84.15 0.75 83.35 0.7 82.0 0.6 72.2 0.05 Q59.35 -0.25 47.1 1.65 42.7 2.15 38.45 3.1 27.75 5.4 20.1 8.9 12.4 12.35 7.85 16.95 0.05 24.45 3.55 32.1 L4.35 33.4 6.3 36.3 8.9 39.0 Q13.0 36.05 18.6 33.6 L21.45 32.45 24.75 31.3 Q30.05 29.6 36.4 28.2 40.8 27.2 45.5 26.65 57.7 24.75 70.8 25.45 L73.2 25.5 82.9 26.3 85.95 26.55 86.2 26.6 Q110.1 29.65 123.8 38.65 L124.0 38.75 126.2 40.35 125.6 40.85 124.45 41.65 Q116.95 46.6 104.6 49.85 L95.6 51.85 Q73.95 55.8 52.65 53.7 L42.45 52.15 40.45 51.85 30.35 49.6 23.7 47.35 21.8 46.65 Q14.1 43.4 9.3 39.35 L8.9 39.0 7.85 39.9 M85.95 17.0 L85.1 17.0" fill="none" stroke="#68613f" stroke-linecap="round" stroke-linejoin="round" stroke-opacity="0.33333334" stroke-width="0.05"/>
      <path d="M20.1 8.15 L20.1 8.9 M18.6 33.6 L18.55 34.55" fill="none" stroke="#68613f" stroke-linecap="round" stroke-linejoin="round" stroke-opacity="0.101960786" stroke-width="0.05"/>
      <path d="M21.45 22.9 L21.6 22.9" fill="none" stroke="#68613f" stroke-linecap="round" stroke-linejoin="round" stroke-opacity="0.2" stroke-width="0.05"/>
    </g>
    <g id="sprite10" transform="matrix(1.0, 0.0, 0.0, 1.0, 2.5, -5.25)">
      <clipPath id="clipPath1" transform="matrix(1.0, 0.0, 0.0, 1.0, 0.0, 0.0)">
        <path d="M29.35 8.7 L28.75 5.4 29.35 8.7 M6.9 5.4 L28.75 5.4 29.4 5.4 Q32.85 6.75 36.5 15.2 37.65 18.9 35.75 22.05 34.45 19.75 31.6 17.85 28.35 15.55 22.55 14.9 L22.1 14.8 21.85 14.75 21.65 14.75 21.35 14.7 18.95 14.6 12.9 15.05 12.9 14.8 10.15 15.25 Q7.95 15.8 6.3 16.55 4.0 17.5 2.85 18.9 2.2 19.45 1.95 20.0 L0.85 15.85 0.6 15.05 Q3.7 3.45 5.25 6.9 L6.9 5.4 M6.85 9.5 L8.1 9.55 8.05 8.15 6.85 9.5 6.6 9.5 Q5.55 9.3 5.15 8.85 4.85 8.5 5.25 6.9 4.85 8.5 5.15 8.85 5.55 9.3 6.6 9.5 L6.85 9.5 8.05 8.15 8.1 9.55 6.85 9.5" fill="#e3d660" fill-rule="evenodd" stroke="none"/>
        <path d="M12.5 21.55 Q15.5 18.5 18.65 18.75 L21.6 18.9 22.15 19.0 22.35 19.0 Q28.2 19.8 31.5 22.2 32.7 23.0 33.35 23.9 L33.25 24.0 32.9 24.35 32.2 25.05 32.05 25.05 31.55 24.65 31.5 24.65 Q28.2 22.3 22.35 21.55 L22.35 21.5 21.6 21.45 19.2 21.2 18.65 21.2 12.5 21.55" fill="#ba7f44" fill-rule="evenodd" stroke="none"/>
        <path d="M12.9 15.05 L18.95 14.6 21.35 14.7 21.65 14.75 21.85 14.75 22.1 14.8 22.55 14.9 Q28.35 15.55 31.6 17.85 34.45 19.75 35.75 22.05 34.1 22.4 34.0 22.75 L33.6 23.45 33.35 23.9 Q32.7 23.0 31.5 22.2 28.2 19.8 22.35 19.0 L22.15 19.0 21.6 18.9 18.65 18.75 Q15.5 18.5 12.5 21.55 12.05 16.85 12.9 15.05" fill="#c48648" fill-rule="evenodd" stroke="none"/>
        <path d="M12.5 21.55 L18.65 21.2 19.2 21.2 21.6 21.45 22.35 21.5 22.35 21.55 Q28.2 22.3 31.5 24.65 L31.55 24.65 32.05 25.05 31.95 25.15 31.65 25.45 Q14.85 22.25 14.3 28.55 L11.85 28.15 11.4 28.1 8.85 27.5 7.25 26.95 Q6.35 25.05 7.5 22.75 L10.3 21.95 12.5 21.55" fill="#946536" fill-rule="evenodd" stroke="none"/>
        <path d="M6.3 16.85 L6.3 16.55 6.3 16.85 Q4.5 17.8 3.4 19.0 2.05 20.35 2.05 21.75 L1.95 20.0 2.05 21.75 Q2.05 22.35 2.3 22.95 L2.55 23.3 3.05 24.0 3.65 24.75 3.4 24.95 3.65 24.75 3.75 24.85 5.95 26.35 6.25 26.5 6.75 26.7 7.25 26.95 7.25 27.05 6.2 26.65 5.65 26.4 5.95 26.35 5.65 26.4 4.05 25.5 3.4 24.95 2.35 23.9 2.2 23.65 1.75 22.85 Q1.15 21.45 1.95 20.0 2.2 19.45 2.85 18.9 4.0 17.5 6.3 16.55 7.95 15.8 10.15 15.25 L12.9 14.8 12.9 15.05 10.7 15.35 Q8.2 16.0 6.3 16.85" fill="#ffca94" fill-rule="evenodd" stroke="none"/>
        <path d="M0.85 15.85 L1.95 20.0 Q1.15 21.45 1.75 22.85 L2.2 23.65 2.35 23.9 3.4 24.95 4.05 25.5 5.65 26.4 2.75 26.9 -2.0 21.15 -2.1 21.05 0.85 15.85" fill="#ffffff" fill-rule="evenodd" stroke="none"/>
        <path d="M2.05 21.75 Q2.05 20.35 3.4 19.0 4.5 17.8 6.3 16.85 4.7 20.4 6.0 23.35 L5.95 23.35 Q4.65 24.0 3.65 24.75 L3.05 24.0 2.55 23.3 2.3 22.95 Q2.05 22.35 2.05 21.75" fill="#996837" fill-rule="evenodd" stroke="none"/>
        <path d="M6.0 23.35 L6.65 23.05 7.5 22.75 Q6.35 25.05 7.25 26.95 L6.75 26.7 6.25 26.5 5.95 26.35 3.75 24.85 3.65 24.75 Q4.65 24.0 5.95 23.35 L6.0 23.35" fill="#8a5e32" fill-rule="evenodd" stroke="none"/>
        <path d="M6.3 16.85 Q8.2 16.0 10.7 15.35 L12.9 15.05 Q12.05 16.85 12.5 21.55 L10.3 21.95 7.5 22.75 6.65 23.05 6.0 23.35 Q4.7 20.4 6.3 16.85" fill="#a8733d" fill-rule="evenodd" stroke="none"/>
        <path d="M31.65 25.45 Q29.85 26.7 26.85 27.6 L24.75 28.1 14.3 28.55 Q14.85 22.25 31.65 25.45" fill="#ad763f" fill-rule="evenodd" stroke="none"/>
        <path d="M28.75 5.4 L29.35 8.7 M6.9 5.4 L5.25 6.9 Q4.85 8.5 5.15 8.85 5.55 9.3 6.6 9.5 L6.85 9.5 8.05 8.15 8.1 9.55 6.85 9.5 M35.75 22.05 Q37.65 18.9 36.5 15.2 32.85 6.75 29.4 5.4 M1.95 20.0 L2.05 21.75 M5.25 6.9 Q3.7 3.45 0.6 15.05 L0.85 15.85 1.95 20.0 M5.65 26.4 L2.75 26.9 3.15 27.4 M6.25 26.5 L5.95 26.35 5.65 26.4 M2.75 26.9 L1.85 27.05 M0.85 15.85 L-2.1 21.05 -2.0 21.15 2.75 26.9" fill="none" stroke="#000000" stroke-linecap="round" stroke-linejoin="round" stroke-opacity="0.3019608" stroke-width="0.30000000000000004"/>
        <path d="M12.9 15.05 L18.95 14.6 21.35 14.7 21.65 14.75 21.85 14.75 22.1 14.8 22.55 14.9 Q28.35 15.55 31.6 17.85 34.45 19.75 35.75 22.05 34.1 22.4 34.0 22.75 L33.6 23.45 33.35 23.9 33.25 24.0 32.9 24.35 32.2 25.05 32.05 25.05 31.95 25.15 31.65 25.45 Q29.85 26.7 26.85 27.6 L24.75 28.1 14.3 28.55 11.85 28.15 11.4 28.1 8.85 27.5 7.25 26.95 6.75 26.7 6.25 26.5 M12.5 21.55 L18.65 21.2 19.2 21.2 21.6 21.45 22.35 21.5 22.35 21.55 Q28.2 22.3 31.5 24.65 L31.55 24.65 32.05 25.05 M22.35 19.0 L22.15 19.0 M6.3 16.85 Q8.2 16.0 10.7 15.35 L12.9 15.05 M2.05 21.75 Q2.05 20.35 3.4 19.0 4.5 17.8 6.3 16.85 M6.0 23.35 L6.65 23.05 7.5 22.75 10.3 21.95 12.5 21.55 M3.4 24.95 L3.65 24.75 3.05 24.0 2.55 23.3 2.3 22.95 Q2.05 22.35 2.05 21.75 M5.95 26.35 L3.75 24.85 3.65 24.75 Q4.65 24.0 5.95 23.35" fill="none" stroke="#2b2509" stroke-linecap="round" stroke-linejoin="round" stroke-opacity="0.33333334" stroke-width="0.05"/>
        <path d="M6.3 16.55 L6.3 16.85 M5.95 23.35 L6.0 23.35" fill="none" stroke="#2b2409" stroke-linecap="round" stroke-linejoin="round" stroke-opacity="0.101960786" stroke-width="0.05"/>
      </clipPath>
      <g clip-path="url(#clipPath1)">
        <use height="22.3" transform="matrix(-0.1148, 0.4088, 0.5262, 0.0798, 25.4803, 13.6814)" width="26.7" xlink:href="#sprite11"/>
        <use height="22.3" transform="matrix(-0.0051, 0.4246, 0.529, -0.0591, 14.2103, 11.871)" width="26.7" xlink:href="#sprite11"/>
        <use height="85.35" transform="matrix(-0.2021, 0.0213, 0.0213, 0.2021, 31.0744, 9.6901)" width="166.25" xlink:href="#sprite12"/>
        <use height="13.6" transform="matrix(1.0, 0.0, 0.0, 1.0, -0.15, 12.65)" width="10.75" xlink:href="#shape15"/>
        <use height="78.5" transform="matrix(0.0936, 0.0224, -0.0371, 0.147, 2.9121, 12.8141)" width="75.15" xlink:href="#sprite13"/>
        <use height="50.35" transform="matrix(0.1835, 0.0883, -0.0943, 0.1804, 14.2, 11.65)" width="90.95" xlink:href="#sprite14"/>
        <use height="10.7" transform="matrix(0.3898, 0.7349, 0.9243, 0.028, 10.6029, 21.1856)" width="10.5" xlink:href="#sprite15"/>
        <use height="12.45" transform="matrix(1.0, 0.0, 0.0, 1.0, 3.6, 19.8)" width="32.4" xlink:href="#shape19"/>
      </g>
    </g>
    <g id="sprite11" transform="matrix(1.0, 0.0, 0.0, 1.0, 9.2, 3.85)">
      <use height="25.3" transform="matrix(1.0, 0.0, 0.0, 1.0, -10.7, -5.35)" width="29.7" xlink:href="#shape12"/>
    </g>
    <g id="shape12" transform="matrix(1.0, 0.0, 0.0, 1.0, 10.7, 5.35)">
      <path d="M0.65 -3.4 L1.05 -3.6 5.75 -3.3 Q7.05 -2.95 7.6 -1.95 5.3 -2.3 3.55 -0.5 L2.35 -0.85 Q0.8 -2.3 0.65 -3.4 M9.95 11.6 Q8.95 15.6 8.35 16.6 5.75 17.9 4.15 17.3 3.55 16.3 2.7 16.4 L1.65 16.25 2.5 13.1 Q3.45 8.3 2.15 4.55 2.0 4.0 2.6 2.65 3.35 1.05 4.45 1.2 8.9 3.2 9.95 11.6 M-1.75 17.2 Q-4.65 19.1 -7.75 17.3 -4.0 11.5 -1.8 11.2 -2.25 13.65 -1.75 17.2 M-8.45 9.15 Q-6.8 9.05 -5.9 6.9 -5.0 4.7 -5.8 3.75 L-5.75 3.75 Q-3.6 2.55 -1.1 2.3 L1.75 2.65 1.8 2.65 1.1 6.05 Q-2.4 6.9 -5.0 9.15 -7.7 10.6 -8.45 9.15 M4.15 17.3 L2.5 13.1 4.15 17.3" fill="#d0de31" fill-rule="evenodd" stroke="none"/>
      <path d="M0.65 -3.4 Q0.8 -2.3 2.35 -0.85 -0.8 -1.75 -2.7 -1.4 0.0 -2.25 0.65 -3.4 M-7.75 17.3 Q-7.85 16.8 -8.6 16.25 -9.4 15.7 -8.35 13.8 -7.9 11.25 -5.0 9.15 -2.4 6.9 1.1 6.05 L1.45 5.95 Q-1.3 8.5 -1.8 11.2 -4.0 11.5 -7.75 17.3" fill="#b5d12d" fill-rule="evenodd" stroke="none"/>
      <path d="M2.35 -0.85 L3.55 -0.5 Q2.35 0.9 1.75 2.65 L-1.1 2.3 Q-3.6 2.55 -5.75 3.75 -5.0 1.0 -3.5 0.15 -2.0 -0.7 -2.7 -1.4 -0.8 -1.75 2.35 -0.85 M8.4 0.5 L8.4 0.6 8.45 0.6 Q11.8 2.35 13.2 4.65 14.55 6.9 11.8 9.9 L11.55 10.1 11.35 10.25 10.0 11.25 9.95 11.6 Q8.9 3.2 4.45 1.2 4.85 0.8 5.2 0.7 L5.5 0.6 8.3 0.5 8.4 0.5 M1.65 16.25 Q0.0 15.9 -1.75 17.2 -2.25 13.65 -1.8 11.2 -1.3 8.5 1.45 5.95 L2.15 4.55 Q3.45 8.3 2.5 13.1 L1.65 16.25 M-8.35 13.8 Q-8.85 11.8 -8.45 9.15 -7.7 10.6 -5.0 9.15 -7.9 11.25 -8.35 13.8" fill="#b6c92c" fill-rule="evenodd" stroke="none"/>
      <path d="M3.55 -0.5 Q5.3 -2.3 7.6 -1.95 L7.8 -1.5 8.4 0.5 8.3 0.5 5.5 0.6 5.2 0.7 Q4.95 0.0 3.55 -0.5 M2.6 2.65 Q2.0 4.0 2.15 4.55 L1.45 5.95 1.1 6.05 1.8 2.65 2.6 2.65" fill="#9fb327" fill-rule="evenodd" stroke="none"/>
      <path d="M5.2 0.7 Q4.85 0.8 4.45 1.2 3.35 1.05 2.6 2.65 L1.8 2.65 1.75 2.65 Q2.35 0.9 3.55 -0.5 4.95 0.0 5.2 0.7" fill="#8da624" fill-rule="evenodd" stroke="none"/>
      <path d="M8.45 0.6 Q10.45 0.4 12.95 1.9 15.5 3.4 16.35 5.8 L16.4 6.1 17.1 8.95 Q17.55 10.9 16.55 10.1 15.0 7.45 11.8 9.9 14.55 6.9 13.2 4.65 11.8 2.35 8.45 0.6" fill="#8ba323" fill-rule="evenodd" stroke="none"/>
      <path d="M16.55 10.1 L11.55 10.1 11.8 9.9 Q15.0 7.45 16.55 10.1" fill="#647519" fill-rule="evenodd" stroke="none"/>
      <path d="M7.6 -1.95 Q7.05 -2.95 5.75 -3.3 L1.05 -3.6 0.65 -3.4 Q0.0 -2.25 -2.7 -1.4 -2.0 -0.7 -3.5 0.15 -5.0 1.0 -5.75 3.75 L-5.8 3.75 Q-5.0 4.7 -5.9 6.9 -6.8 9.05 -8.45 9.15 -8.85 11.8 -8.35 13.8 -9.4 15.7 -8.6 16.25 -7.85 16.8 -7.75 17.3 -4.65 19.1 -1.75 17.2 0.0 15.9 1.65 16.25 L2.7 16.4 Q3.55 16.3 4.15 17.3 5.75 17.9 8.35 16.6 8.95 15.6 9.95 11.6 L10.0 11.25 11.35 10.25 11.55 10.1 16.55 10.1 Q15.0 7.45 11.8 9.9 L11.55 10.1 M7.6 -1.95 L7.8 -1.5 8.4 0.5 8.4 0.6 8.45 0.6 Q10.45 0.4 12.95 1.9 15.5 3.4 16.35 5.8 L16.4 6.1 17.1 8.95 Q17.55 10.9 16.55 10.1" fill="none" stroke="#000000" stroke-linecap="round" stroke-linejoin="round" stroke-opacity="0.3019608" stroke-width="0.5"/>
      <path d="M0.65 -3.4 Q0.8 -2.3 2.35 -0.85 -0.8 -1.75 -2.7 -1.4 M2.5 13.1 L4.15 17.3 M1.65 16.25 L2.5 13.1 M-8.45 9.15 Q-7.7 10.6 -5.0 9.15 -7.9 11.25 -8.35 13.8" fill="none" stroke="#22261f" stroke-linecap="round" stroke-linejoin="round" stroke-opacity="0.101960786" stroke-width="0.2"/>
      <path d="M2.35 -0.85 L3.55 -0.5 Q4.95 0.0 5.2 0.7 4.85 0.8 4.45 1.2 8.9 3.2 9.95 11.6 M8.4 0.5 L8.3 0.5 5.5 0.6 5.2 0.7 M2.6 2.65 Q3.35 1.05 4.45 1.2 M2.6 2.65 Q2.0 4.0 2.15 4.55 3.45 8.3 2.5 13.1 M1.8 2.65 L1.75 2.65 -1.1 2.3 Q-3.6 2.55 -5.75 3.75 M2.6 2.65 L1.8 2.65 M1.1 6.05 L1.45 5.95 2.15 4.55 M-5.0 9.15 Q-2.4 6.9 1.1 6.05 M-1.8 11.2 Q-4.0 11.5 -7.75 17.3 M-1.8 11.2 Q-2.25 13.65 -1.75 17.2 M1.45 5.95 Q-1.3 8.5 -1.8 11.2" fill="none" stroke="#22261f" stroke-linecap="round" stroke-linejoin="round" stroke-opacity="0.15294118" stroke-width="0.30000000000000004"/>
      <path d="M7.7 0.8 L8.0 0.85 Q8.45 0.85 8.45 1.2 8.45 1.45 8.1 1.45 L7.35 1.35 3.85 3.0 3.6 2.85 3.5 2.7 Q3.5 2.3 5.1 1.55 6.7 0.8 7.7 0.8 M3.5 3.6 L3.3 3.9 2.9 4.1 2.7 3.8 2.9 3.45 3.45 3.4 3.5 3.6 M0.85 9.1 Q0.0 9.95 -0.7 9.95 L-1.05 9.65 -0.65 8.9 -0.15 8.2 Q0.6 7.4 1.15 7.5 1.55 7.6 1.55 8.05 L0.85 9.1 M-1.3 11.3 L-1.5 11.25 -1.5 10.8 Q-1.4 10.65 -1.15 10.65 -0.85 10.65 -0.85 10.85 -0.85 11.3 -1.3 11.3 M-3.2 17.2 L-3.6 17.5 -4.55 17.65 -5.55 17.5 -6.45 17.35 -6.8 17.05 Q-6.8 16.75 -6.4 16.75 L-5.55 16.9 -5.2 16.95 -4.75 17.1 -3.55 16.95 Q-3.2 16.95 -3.2 17.2 M-2.05 17.05 Q-2.55 17.05 -2.55 16.7 L-2.1 16.5 Q-1.8 16.5 -1.8 16.75 L-1.85 16.9 -2.05 17.05" fill="#f0efa8" fill-rule="evenodd" stroke="none"/>
    </g>
    <g id="sprite12" transform="matrix(1.0, 0.0, 0.0, 1.0, 4.4, 3.05)">
      <clipPath id="clipPath2" transform="matrix(1.0, 0.0, 0.0, 1.0, 0.0, 0.0)">
        <path d="M140.45 68.55 Q71.15 89.1 6.3 77.75 -11.45 46.9 1.7 21.7 46.4 5.8 121.3 -2.55 L140.45 68.55" fill="#85364e" fill-rule="evenodd" stroke="none"/>
        <path d="M140.45 68.55 L121.3 -2.55 Q46.4 5.8 1.7 21.7 -11.45 46.9 6.3 77.75 71.15 89.1 140.45 68.55 Z" fill="none" stroke="#fe103f" stroke-linecap="round" stroke-linejoin="round" stroke-width="1.0"/>
      </clipPath>
      <g clip-path="url(#clipPath2)">
        <use height="407.8" transform="matrix(0.0, -0.3585, 0.3984, -0.0042, -0.5976, 80.9941)" width="222.6" xlink:href="#shape14"/>
      </g>
    </g>
    <g id="shape14" transform="matrix(1.0, 0.0, 0.0, 1.0, 1.5, 1.5)">
      <path d="M66.4 1.4 L77.9 0.05 Q144.7 -2.2 149.7 90.7 154.55 183.5 201.35 258.6 220.9 292.45 219.5 320.7 199.75 395.85 129.2 382.75 43.8 359.5 16.5 129.95 8.4 27.45 66.4 1.4" fill="#822a44" fill-rule="evenodd" stroke="none"/>
      <path d="M42.55 9.3 Q53.15 3.65 66.4 1.4 8.4 27.45 16.5 129.95 43.8 359.5 129.2 382.75 199.75 395.85 219.5 320.7 217.6 357.65 180.05 385.25 153.35 402.15 119.3 392.55 53.0 368.45 25.4 226.9 -12.35 54.5 42.55 9.3" fill="#7b2341" fill-rule="evenodd" stroke="none"/>
      <path d="M180.05 385.25 Q172.0 391.1 162.4 396.55 97.6 424.2 55.6 358.95 -4.3 234.4 0.35 100.6 2.25 30.7 42.55 9.3 -12.35 54.5 25.4 226.9 53.0 368.45 119.3 392.55 153.35 402.15 180.05 385.25" fill="#751c3f" fill-rule="evenodd" stroke="none"/>
      <path d="M42.55 9.3 Q53.15 3.65 66.4 1.4 L77.9 0.05 Q144.7 -2.2 149.7 90.7 154.55 183.5 201.35 258.6 220.9 292.45 219.5 320.7 217.6 357.65 180.05 385.25 172.0 391.1 162.4 396.55 97.6 424.2 55.6 358.95 -4.3 234.4 0.35 100.6 2.25 30.7 42.55 9.3 Z" fill="none" stroke="#4f103f" stroke-linecap="round" stroke-linejoin="round" stroke-opacity="0.3019608" stroke-width="3.0"/>
      <path d="M117.9 276.2 Q132.05 303.6 153.6 320.8 175.1 338.0 191.6 335.05 208.15 332.15 209.85 310.85 211.55 289.55 197.4 262.15 183.3 234.75 161.8 217.55 140.25 200.35 123.7 203.25 107.2 206.2 105.55 227.5 103.8 248.8 117.9 276.2" fill="url(#gradient3)" fill-rule="evenodd" stroke="none"/>
      <path d="M78.05 64.35 Q80.1 88.05 90.45 106.7 100.8 125.3 113.5 128.05 126.15 130.8 133.6 116.05 141.1 101.3 139.05 77.6 137.0 53.85 126.6 35.2 116.25 16.65 103.6 13.9 90.9 11.15 83.45 25.85 76.0 40.6 78.05 64.35" fill="url(#gradient4)" fill-rule="evenodd" stroke="none"/>
      <path d="M113.85 35.15 Q117.75 38.05 121.3 46.15 124.8 54.25 125.55 60.6 126.25 67.05 123.8 73.05 121.45 79.05 117.1 78.2 112.7 77.35 110.5 71.4 108.3 65.4 107.7 61.35 107.15 57.35 105.25 50.75 103.35 44.1 103.35 39.2 103.25 34.25 106.65 33.3 110.05 32.35 113.85 35.15" fill="url(#gradient5)" fill-rule="evenodd" stroke="none"/>
      <path d="M123.4 93.95 Q128.9 94.35 128.55 117.25 L129.0 139.3 Q130.25 153.55 133.1 165.5 135.85 177.4 141.35 194.95 146.25 208.6 161.4 235.85 176.55 263.1 184.9 280.15 193.25 297.2 196.1 314.85 181.95 286.55 164.7 266.75 147.4 246.95 130.25 213.9 123.05 198.55 118.85 184.0 114.6 169.4 112.05 152.6 109.45 135.75 109.6 129.7 109.75 123.65 110.75 113.9 111.75 104.15 114.85 98.85 117.9 93.55 123.4 93.95" fill="url(#gradient6)" fill-rule="evenodd" stroke="none"/>
    </g>
    <radialGradient cx="0" cy="0" gradientTransform="matrix(-0.0488, 0.0087, 0.0417, 0.081, 157.65, 269.15)" gradientUnits="userSpaceOnUse" id="gradient3" r="819.2" spreadMethod="pad">
      <stop offset="0.35294117647058826" stop-color="#863d56" stop-opacity="0.5019608"/>
      <stop offset="1.0" stop-color="#863d56" stop-opacity="0.0"/>
    </radialGradient>
    <radialGradient cx="0" cy="0" gradientTransform="matrix(-0.0375, -0.0081, 0.0061, 0.0702, 108.5, 70.95)" gradientUnits="userSpaceOnUse" id="gradient4" r="819.2" spreadMethod="pad">
      <stop offset="0.35294117647058826" stop-color="#863d56" stop-opacity="0.5019608"/>
      <stop offset="1.0" stop-color="#863d56" stop-opacity="0.0"/>
    </radialGradient>
    <linearGradient gradientTransform="matrix(-0.0023, -0.0175, 0.0188, -0.0032, 114.15, 44.75)" gradientUnits="userSpaceOnUse" id="gradient5" spreadMethod="pad" x1="-819.2" x2="819.2">
      <stop offset="0.0" stop-color="#8b4c7b" stop-opacity="0.5019608"/>
      <stop offset="1.0" stop-color="#8b4c7b" stop-opacity="0.0"/>
    </linearGradient>
    <linearGradient gradientTransform="matrix(0.0239, 0.0889, -0.1286, 0.0345, 175.4, 247.75)" gradientUnits="userSpaceOnUse" id="gradient6" spreadMethod="pad" x1="-819.2" x2="819.2">
      <stop offset="0.0" stop-color="#8b4c7b" stop-opacity="0.5019608"/>
      <stop offset="1.0" stop-color="#8b4c7b" stop-opacity="0.0"/>
    </linearGradient>
    <g id="shape15" transform="matrix(1.0, 0.0, 0.0, 1.0, 0.15, -12.65)">
      <path d="M7.0 13.25 Q7.9 13.45 8.55 14.05 L9.75 15.85 Q10.7 18.05 10.05 20.65 9.4 23.3 7.5 24.8 5.7 26.35 3.7 25.85 L3.35 25.75 2.0 24.9 1.65 24.6 0.85 23.2 Q-0.1 21.0 0.55 18.4 1.2 15.8 3.1 14.25 L4.5 13.4 6.9 13.2 7.0 13.25 M9.5 16.1 L8.45 14.45 Q7.75 13.8 6.8 13.6 L4.4 13.85 3.25 14.6 Q1.45 16.05 0.9 18.45 0.25 20.95 1.1 23.0 L1.8 24.15 2.9 25.15 3.8 25.5 4.8 25.6 5.65 25.45 7.4 24.5 Q9.1 23.05 9.75 20.6 10.35 18.15 9.5 16.1" fill="#bf84a8" fill-rule="evenodd" stroke="none"/>
      <path d="M9.5 16.1 Q10.35 18.15 9.75 20.6 9.1 23.05 7.4 24.5 L5.65 25.45 4.8 25.6 3.8 25.5 2.9 25.15 1.8 24.15 1.1 23.0 Q0.25 20.95 0.9 18.45 1.45 16.05 3.25 14.6 L4.4 13.85 6.8 13.6 Q7.75 13.8 8.45 14.45 L9.5 16.1" fill="#f2c8e2" fill-rule="evenodd" stroke="none"/>
      <path d="M3.35 25.75 L2.0 24.9 1.65 24.6 0.85 23.2 Q-0.1 21.0 0.55 18.4 1.2 15.8 3.1 14.25 L4.5 13.4 6.9 13.2 7.0 13.25" fill="none" stroke="#000000" stroke-linecap="round" stroke-linejoin="round" stroke-opacity="0.3019608" stroke-width="0.30000000000000004"/>
    </g>
    <g id="sprite13" transform="matrix(1.0, 0.0, 0.0, 1.0, 37.15, 38.8)">
      <use height="78.5" transform="matrix(1.0, 0.0, 0.0, 1.0, -37.15, -38.8)" width="75.15" xlink:href="#shape16"/>
    </g>
    <g id="shape16" transform="matrix(1.0, 0.0, 0.0, 1.0, 37.15, 38.8)">
      <path d="M5.5 -21.3 L6.0 -20.8 5.8 -19.95 6.5 -19.55 4.7 -17.8 7.55 -16.65 7.55 -18.2 10.3 -19.05 9.5 -20.2 10.55 -21.2 8.5 -22.55 7.35 -23.3 8.95 -25.55 9.1 -25.45 13.6 -26.95 12.2 -29.4 16.35 -29.65 18.2 -33.85 20.45 -33.65 22.0 -32.15 26.35 -31.7 26.95 -24.75 24.4 -23.25 23.95 -19.55 27.05 -18.1 31.75 -21.8 36.0 -19.75 37.4 -15.55 36.1 -12.8 33.9 -11.65 33.5 -11.8 33.5 -14.1 31.6 -13.25 31.6 -11.15 32.05 -10.7 31.05 -10.2 29.8 -7.55 32.4 -4.3 36.9 -5.2 38.0 -3.25 37.7 -1.1 36.25 -2.75 34.9 -1.2 36.05 0.25 35.0 4.15 37.05 8.3 34.3 10.35 34.25 10.4 32.35 8.75 29.6 9.85 29.6 13.3 33.8 16.0 33.75 20.7 31.25 23.8 28.9 23.8 27.35 22.25 29.45 20.5 28.7 19.7 26.6 20.15 25.85 18.95 24.95 20.3 23.5 20.3 23.2 18.95 25.85 16.85 25.2 15.5 23.25 16.4 22.45 15.1 19.1 18.25 18.4 19.85 20.5 19.4 20.55 21.75 22.2 22.85 21.75 24.05 23.85 27.75 22.85 29.55 21.25 30.2 19.15 33.85 20.15 36.05 10.7 36.05 13.75 39.1 8.2 39.1 5.3 37.25 5.6 37.5 3.55 39.7 1.8 36.65 -2.75 38.15 -3.1 37.1 -1.7 36.4 -6.95 35.3 -5.9 33.8 -5.95 33.65 -3.4 32.5 -4.8 31.0 -3.25 29.8 -0.4 32.15 1.0 30.05 -0.35 28.4 0.5 27.2 0.2 26.75 2.3 25.3 6.35 26.1 4.75 20.4 5.8 19.7 4.7 14.05 1.95 11.95 -0.1 13.85 2.45 15.65 1.0 19.0 -0.1 18.05 -2.3 21.2 -0.1 22.55 -1.3 25.05 -3.8 25.4 -3.8 27.25 -3.2 27.9 -4.95 29.65 -5.75 27.95 -7.6 27.95 -7.6 30.85 -7.1 31.55 -9.2 32.95 -10.15 30.6 -13.6 30.85 -14.3 32.65 -17.1 33.5 -21.95 29.8 -20.9 28.55 -22.0 27.55 -21.0 26.05 -21.25 23.15 -25.1 21.65 -25.2 21.7 -28.6 24.65 -30.5 23.5 -31.9 20.1 -30.7 17.65 -31.7 13.75 -30.6 12.3 -31.9 10.75 -32.0 10.65 -33.15 9.2 -31.9 9.2 -29.65 6.2 -31.6 3.4 -37.15 4.15 -35.8 1.45 -36.8 -2.45 -35.7 -3.9 -37.0 -5.45 -36.8 -5.75 -31.1 -5.45 -29.8 -6.35 -29.35 -5.05 -27.35 -6.2 -26.45 -4.7 -23.85 -7.25 -21.65 -9.35 -20.45 -10.5 -20.5 -12.65 -21.5 -11.75 -22.1 -12.8 -23.3 -12.5 -23.85 -14.7 -25.9 -15.9 -27.15 -15.2 -28.3 -15.9 -28.75 -15.6 -29.05 -16.0 -29.05 -19.4 -29.15 -19.6 -27.4 -20.45 -24.5 -18.5 -21.7 -20.8 -19.0 -18.1 -15.4 -23.7 -17.8 -24.7 -16.0 -26.75 -16.3 -28.1 -15.45 -29.1 -17.85 -32.2 -17.0 -33.95 -19.9 -34.15 -18.55 -35.5 -16.35 -35.2 -14.35 -38.8 -11.7 -38.45 -12.2 -37.9 -9.05 -35.05 -10.15 -33.8 -5.3 -30.1 -1.85 -31.15 -1.0 -28.7 3.65 -30.95 3.25 -29.8 4.25 -29.8 2.6 -26.1 4.3 -24.95 3.15 -23.55 4.1 -22.6 5.5 -21.3 M17.45 -26.5 L17.45 -28.8 15.5 -27.95 15.5 -25.85 17.45 -23.95 19.1 -25.85 17.45 -26.5 M21.8 -9.3 L21.8 -7.15 23.75 -5.3 25.4 -7.15 23.75 -7.85 23.75 -10.15 21.8 -9.3 M22.4 -21.1 L20.5 -20.3 20.5 -18.15 22.45 -16.3 24.1 -18.15 22.4 -18.85 22.4 -21.1 M19.95 -1.4 L19.95 -0.65 18.05 1.25 17.05 -0.05 15.8 1.15 15.8 3.55 17.0 4.25 17.0 5.65 19.2 6.6 19.8 4.6 18.9 3.4 20.5 0.1 22.55 0.1 21.15 -0.95 19.95 -1.4 M3.7 -19.1 L1.85 -19.1 1.85 -16.25 3.85 -15.5 4.85 -17.4 3.7 -19.1 M20.75 -5.65 L19.9 -4.25 23.15 -3.1 20.75 -5.65 M24.2 -2.05 L23.95 0.1 22.55 1.15 22.55 1.65 23.95 5.3 27.25 5.3 27.65 6.25 31.6 4.25 25.6 2.5 26.9 1.1 24.95 -0.05 25.75 -1.6 24.2 -2.05 M-8.35 10.7 L-6.35 11.45 -5.35 9.55 -6.5 7.85 -8.35 7.85 -8.35 10.7 M-23.8 -2.9 L-23.8 -0.05 -21.75 0.7 -20.75 -1.2 -21.95 -2.9 -23.8 -2.9 M-20.45 -10.45 L-20.45 -7.6 -18.4 -6.85 -17.4 -8.75 -18.55 -10.45 -20.45 -10.45 M-10.5 20.95 L-9.4 23.05 -7.0 21.55 -6.15 23.05 -3.2 21.5 -4.25 19.85 -6.35 20.2 -6.8 16.45 -7.15 16.3 -6.75 14.85 -9.85 14.2 -12.65 18.05 -11.8 21.2 -10.5 20.95 M11.4 13.85 L11.0 11.95 7.1 14.9 8.15 16.3 8.15 18.0 10.8 21.25 13.85 20.3 14.2 20.55 13.6 22.7 15.55 23.8 17.8 21.8 16.9 20.3 16.45 19.4 14.5 18.95 15.8 17.75 14.05 16.15 14.0 16.25 13.65 16.05 11.75 15.55 11.45 14.15 11.4 13.85 M-19.85 12.4 L-20.05 12.15 -20.9 12.7 -20.8 12.9 -19.85 12.4 M-17.2 23.25 L-19.05 23.25 -19.05 26.1 -17.0 26.85 -16.0 24.95 -17.2 23.25" fill="url(#gradient7)" fill-rule="evenodd" stroke="none"/>
      <path d="M5.5 -21.3 L4.1 -22.6 4.75 -23.35 8.5 -22.55 8.2 -22.4 5.5 -21.3 M-21.65 -9.35 L-23.85 -7.25 -24.05 -7.15 -24.35 -9.25 -25.95 -9.8 -28.0 -10.5 -27.95 -12.0 -24.1 -13.25 -23.85 -12.9 -25.15 -12.0 -23.95 -10.75 -22.7 -10.85 -21.65 -9.35 M7.6 -21.25 L7.65 -21.1 7.55 -21.2 7.6 -21.25 M11.4 13.85 L11.45 14.15 11.3 14.45 11.4 13.85" fill="url(#gradient8)" fill-rule="evenodd" stroke="none"/>
    </g>
    <radialGradient cx="0" cy="0" gradientTransform="matrix(0.0504, 0.0, 0.0, 0.0504, -0.1, -0.1)" gradientUnits="userSpaceOnUse" id="gradient7" r="819.2" spreadMethod="pad">
      <stop offset="0.5215686274509804" stop-color="#f16390" stop-opacity="0.27058825"/>
      <stop offset="1.0" stop-color="#f16190" stop-opacity="0.0"/>
    </radialGradient>
    <radialGradient cx="0" cy="0" gradientTransform="matrix(0.042, 0.0, 0.0, 0.042, 0.0, 0.0)" gradientUnits="userSpaceOnUse" id="gradient8" r="819.2" spreadMethod="pad">
      <stop offset="0.5215686274509804" stop-color="#f16390" stop-opacity="0.27058825"/>
      <stop offset="1.0" stop-color="#f16190" stop-opacity="0.0"/>
    </radialGradient>
    <g id="sprite14" transform="matrix(1.0, 0.0, 0.0, 1.0, 0.0, 0.0)">
      <use height="50.35" transform="matrix(1.0, 0.0, 0.0, 1.0, 0.0, 0.0)" width="90.95" xlink:href="#shape17"/>
    </g>
    <g id="shape17" transform="matrix(1.0, 0.0, 0.0, 1.0, 0.0, 0.0)">
      <path d="M85.65 2.35 Q85.75 1.85 86.9 2.15 L87.9 2.4 89.15 2.85 89.3 2.9 Q91.15 3.7 90.95 6.1 L90.8 6.85 Q90.55 7.75 90.25 7.35 L89.65 6.35 88.3 5.15 88.2 5.05 Q87.0 4.25 86.2 3.15 L85.65 2.35 M90.4 0.45 L90.6 1.15 90.15 1.0 88.15 0.1 Q89.9 -0.2 90.4 0.45 M18.4 29.85 L23.65 33.85 25.15 34.4 Q25.9 34.45 25.7 33.6 25.35 32.05 26.65 32.05 L27.95 32.3 30.15 32.9 Q30.8 33.0 30.85 32.6 L30.9 30.85 31.15 28.7 35.9 28.6 37.15 28.7 Q38.15 28.85 38.05 27.65 37.6 26.65 36.1 25.4 34.85 24.7 35.0 23.35 35.05 22.65 35.9 22.65 39.8 22.75 43.4 23.65 L44.15 23.85 Q46.5 24.75 49.05 23.9 L48.55 23.4 Q50.4 23.45 52.15 22.55 52.3 21.6 51.65 21.1 L51.0 20.55 Q50.5 20.0 49.9 19.85 L49.15 19.75 Q48.5 19.75 48.65 19.2 53.65 18.0 58.9 18.3 L59.9 18.45 Q61.05 18.65 60.65 17.35 L59.65 16.1 62.7 16.0 Q63.1 15.0 61.8 14.05 L61.15 13.35 60.5 12.75 Q59.9 12.1 60.85 11.95 62.0 12.3 63.15 12.8 65.9 13.9 68.9 14.25 L70.4 14.45 Q71.55 14.65 71.35 13.6 L71.2 12.85 Q70.9 11.7 71.9 11.4 L77.35 10.0 78.2 9.15 77.9 7.85 80.15 7.85 81.4 7.95 Q82.4 8.1 82.35 7.35 82.15 5.35 80.45 4.05 L79.6 3.5 Q78.05 2.65 77.15 1.6 79.25 1.4 81.15 2.1 L81.9 2.3 Q84.6 2.9 86.15 5.1 L87.5 6.95 90.45 10.4 Q90.95 13.15 89.1 15.25 L86.65 15.35 Q85.65 14.5 84.75 13.3 L84.7 13.25 83.35 12.15 82.65 11.9 80.65 11.35 79.95 11.0 78.2 10.95 Q76.95 11.35 75.95 11.95 75.4 12.25 75.5 12.85 75.65 14.2 76.4 15.35 76.9 16.15 76.85 17.1 76.8 18.5 75.15 18.05 L74.1 17.7 72.95 17.25 69.7 16.0 66.15 15.8 Q65.3 16.9 66.1 18.15 66.75 19.15 66.8 20.8 66.35 21.5 65.15 21.4 L62.15 20.6 61.4 20.3 58.5 20.45 Q58.0 21.0 58.1 21.85 58.15 22.4 58.5 22.8 L59.6 24.65 Q60.25 25.95 59.4 26.85 L58.7 27.2 57.4 27.7 55.15 27.75 52.65 27.3 51.9 27.2 50.7 26.8 49.4 26.85 49.6 27.85 Q49.85 28.55 49.6 29.65 L48.15 29.85 46.45 29.5 Q45.7 29.15 44.45 28.95 43.65 29.4 43.4 30.85 43.25 31.7 41.9 31.7 39.2 31.65 36.65 32.4 36.25 33.7 36.9 34.85 37.45 35.85 37.5 37.1 37.55 37.95 36.9 38.7 L35.0 38.1 Q34.6 36.65 32.75 36.75 32.3 36.3 31.0 36.0 30.45 35.55 29.65 35.3 L26.45 35.45 Q24.85 36.1 23.6 37.05 23.05 37.55 22.4 37.6 L21.4 37.75 20.15 38.0 Q19.2 38.05 19.35 39.1 L19.55 40.15 Q19.85 40.9 19.4 41.1 L18.45 40.3 Q17.7 39.5 15.8 40.0 14.75 41.2 14.65 43.1 L14.55 45.35 Q14.6 46.15 14.15 46.35 L12.1 44.15 10.6 41.95 Q9.6 41.2 9.5 42.35 L9.5 44.1 9.65 45.85 9.15 44.85 7.65 42.6 6.85 41.7 6.8 41.65 6.3 41.2 6.6 41.75 6.65 41.85 7.3 43.65 Q7.95 45.4 7.8 47.35 L7.75 48.1 Q7.75 49.55 7.15 50.35 6.65 50.2 6.5 49.6 6.1 47.25 5.35 44.85 3.95 40.2 1.8 35.9 L1.0 34.3 0.0 32.95 Q0.2 32.6 1.1 32.7 L2.65 33.4 3.35 33.7 5.4 34.5 Q5.5 33.95 5.9 33.85 L6.85 34.9 9.85 37.35 7.2 32.3 6.55 31.15 Q5.7 29.6 6.4 28.1 6.95 28.1 7.4 28.4 L8.4 29.05 9.5 30.0 13.6 34.9 14.45 36.05 16.65 38.85 Q16.15 36.4 15.25 33.8 L14.8 32.4 Q14.3 31.0 14.2 29.6 L14.05 27.85 Q13.95 26.9 14.9 27.0 15.35 27.15 15.6 27.6 16.05 28.45 17.45 29.25 L18.4 29.85" fill="#ffffff" fill-rule="evenodd" stroke="none"/>
    </g>
    <g id="sprite15" transform="matrix(1.0, 0.0, 0.0, 1.0, 0.15, 0.15)">
      <use height="11.3" transform="matrix(1.0, 0.0, 0.0, 1.0, -0.45, -0.45)" width="11.1" xlink:href="#shape18"/>
    </g>
    <g id="shape18" transform="matrix(1.0, 0.0, 0.0, 1.0, 0.45, 0.45)">
      <path d="M7.8 0.4 L8.4 0.0 Q10.45 1.4 9.4 3.5 5.7 7.6 0.25 8.2 L2.75 4.75 Q4.4 5.0 6.6 3.8 8.7 1.9 7.8 0.4" fill="#b78b26" fill-rule="evenodd" stroke="none"/>
      <path d="M10.2 2.4 L10.2 3.8 10.15 4.4 Q9.95 5.75 8.0 7.4 3.2 10.85 0.0 10.3 L0.0 8.6 1.65 8.65 Q4.35 8.35 8.0 5.7 9.55 4.35 10.0 3.2 L10.2 2.4" fill="#7e601b" fill-rule="evenodd" stroke="none"/>
      <path d="M0.25 8.2 Q5.7 7.6 9.4 3.5 10.45 1.4 8.4 0.0 10.25 1.0 10.2 2.4 L10.0 3.2 Q9.55 4.35 8.0 5.7 4.35 8.35 1.65 8.65 L0.0 8.6 0.25 8.2" fill="#d7a942" fill-rule="evenodd" stroke="none"/>
      <path d="M7.8 0.4 Q8.7 1.9 6.6 3.8 4.4 5.0 2.75 4.75 4.95 2.15 7.8 0.4" fill="#e3d660" fill-rule="evenodd" stroke="none"/>
      <path d="M8.4 0.0 L7.8 0.4 Q4.95 2.15 2.75 4.75 L0.25 8.2 0.0 8.6 0.0 10.3 Q3.2 10.85 8.0 7.4 9.95 5.75 10.15 4.4 L10.2 3.8 10.2 2.4 Q10.25 1.0 8.4 0.0 Z" fill="none" stroke="#000000" stroke-linecap="round" stroke-linejoin="round" stroke-opacity="0.3019608" stroke-width="0.30000000000000004"/>
    </g>
    <g id="shape19" transform="matrix(1.0, 0.0, 0.0, 1.0, -3.6, -19.8)">
      <path d="M25.25 24.1 L28.0 23.95 29.6 26.65 26.8 27.0 25.25 24.1" fill="#f7e083" fill-rule="evenodd" stroke="none"/>
      <path d="M26.8 27.0 L29.6 26.65 27.6 29.35 25.6 29.45 Q26.25 28.95 26.8 27.0" fill="#df8127" fill-rule="evenodd" stroke="none"/>
      <path d="M25.25 24.1 L26.8 27.0 Q26.25 28.95 25.6 29.45 L24.0 27.0 Q24.6 26.2 25.25 24.1" fill="#b86a1d" fill-rule="evenodd" stroke="none"/>
      <path d="M29.6 26.65 L28.0 23.95 25.25 24.1 26.8 27.0 29.6 26.65 27.6 29.35 25.6 29.45 24.0 27.0 Q24.6 26.2 25.25 24.1 M25.6 29.45 Q26.25 28.95 26.8 27.0" fill="none" stroke="#000000" stroke-linecap="round" stroke-linejoin="round" stroke-opacity="0.15294118" stroke-width="1.5"/>
      <path d="M25.65 26.45 L25.65 26.55 25.75 26.75 25.6 27.05 24.0 29.05 24.0 29.1 Q23.7 27.85 22.65 25.75 23.95 24.85 24.3 23.45 24.75 23.85 25.25 25.45 L25.65 26.45" fill="#e7a223" fill-rule="evenodd" stroke="none"/>
      <path d="M24.0 29.1 Q22.45 29.9 20.65 30.0 L20.2 29.25 19.3 27.0 22.65 25.75 Q23.7 27.85 24.0 29.1" fill="#df8127" fill-rule="evenodd" stroke="none"/>
      <path d="M19.3 27.0 L19.9 26.25 20.95 24.7 Q22.6 24.5 24.3 23.45 23.95 24.85 22.65 25.75 L19.3 27.0" fill="#f7e083" fill-rule="evenodd" stroke="none"/>
      <path d="M25.75 26.75 L25.65 26.45 25.65 26.55 25.75 26.75 25.6 27.05 24.0 29.05 24.0 29.1 Q22.45 29.9 20.65 30.0 L20.2 29.25 19.3 27.0 19.9 26.25 20.95 24.7 Q22.6 24.5 24.3 23.45 24.75 23.85 25.25 25.45 L25.65 26.45 M22.65 25.75 L19.3 27.0 M22.65 25.75 Q23.7 27.85 24.0 29.1 M24.3 23.45 Q23.95 24.85 22.65 25.75" fill="none" stroke="#000000" stroke-linecap="round" stroke-linejoin="round" stroke-opacity="0.15294118" stroke-width="1.5"/>
      <path d="M32.45 23.2 L30.75 23.1 29.75 24.75 31.5 24.95 32.45 23.2" fill="#f7e083" fill-rule="evenodd" stroke="none"/>
      <path d="M31.5 24.95 L29.75 24.75 31.0 26.4 32.25 26.5 Q31.85 26.2 31.5 24.95" fill="#df8127" fill-rule="evenodd" stroke="none"/>
      <path d="M32.45 23.2 L31.5 24.95 Q31.85 26.2 32.25 26.5 L33.25 25.0 32.45 23.2" fill="#b86a1d" fill-rule="evenodd" stroke="none"/>
      <path d="M29.75 24.75 L30.75 23.1 32.45 23.2 31.5 24.95 29.75 24.75 31.0 26.4 32.25 26.5 33.25 25.0 32.45 23.2 M32.25 26.5 Q31.85 26.2 31.5 24.95" fill="none" stroke="#000000" stroke-linecap="round" stroke-linejoin="round" stroke-opacity="0.15294118" stroke-width="1.5"/>
      <path d="M33.3 21.3 L34.2 22.5 34.5 22.8 34.5 22.9 34.45 23.1 33.75 24.5 33.25 25.35 32.05 26.8 31.9 26.95 31.45 27.25 30.4 27.75 29.0 28.0 28.25 28.1 26.95 28.5 25.8 28.7 24.0 28.95 23.35 29.05 20.9 29.35 20.2 29.35 18.45 29.6 16.15 29.85 15.65 29.8 14.55 29.65 12.15 29.55 11.0 29.35 10.65 29.3 9.5 28.9 8.4 28.35 7.7 27.95 6.7 27.35 5.55 26.5 5.1 26.05 Q6.15 25.8 7.2 24.95 L8.05 24.15 9.8 25.15 10.2 25.05 10.45 25.15 11.0 25.5 11.5 25.9 12.15 26.3 14.4 27.05 15.5 27.35 16.45 27.65 16.65 27.65 18.0 27.75 18.55 27.75 18.75 27.95 Q19.5 28.45 21.0 28.45 22.7 28.45 23.8 27.55 L23.95 27.55 24.15 27.55 24.4 27.5 25.1 27.35 26.1 27.05 26.35 27.0 27.15 26.6 27.9 26.3 29.1 25.7 29.2 25.7 29.55 25.7 30.0 25.8 Q31.9 25.8 33.3 21.3" fill="#000000" fill-opacity="0.3019608" fill-rule="evenodd" stroke="none"/>
    </g>
    <g id="shape20" transform="matrix(1.0, 0.0, 0.0, 1.0, -21.9, -62.85)">
      <path d="M26.65 69.85 Q26.6 69.15 25.75 68.8 L25.15 68.6 Q22.95 67.45 24.45 66.45 L26.0 65.1 25.75 64.55 Q24.5 65.8 23.45 65.3 22.1 64.75 23.15 63.95 24.15 63.25 24.8 63.3 L25.4 63.4 Q25.8 63.5 25.95 63.75 26.85 65.0 26.1 65.9 25.4 66.85 25.5 67.6 25.65 68.35 27.3 69.2 L28.3 69.9 Q28.9 70.5 28.8 71.3 28.55 72.1 27.8 72.55 L27.4 72.75 26.75 72.95 26.0 73.05 25.05 73.1 Q24.6 72.95 24.5 72.65 L24.5 72.4 24.55 72.15 24.9 71.75 25.0 71.65 25.2 71.5 25.45 71.3 25.65 71.2 26.45 70.45 26.65 69.85" fill="url(#gradient9)" fill-rule="evenodd" stroke="none"/>
      <path d="M26.65 69.85 Q26.6 69.15 25.75 68.8 L25.15 68.6 Q22.95 67.45 24.45 66.45 L26.0 65.1 25.75 64.55 Q24.5 65.8 23.45 65.3 22.1 64.75 23.15 63.95 24.15 63.25 24.8 63.3 L25.4 63.4 Q25.8 63.5 25.95 63.75 26.85 65.0 26.1 65.9 25.4 66.85 25.5 67.6 25.65 68.35 27.3 69.2 L28.3 69.9" fill="none" stroke="#fbf1bf" stroke-linecap="round" stroke-linejoin="round" stroke-opacity="0.7019608" stroke-width="0.30000000000000004"/>
      <path d="M29.65 66.6 Q29.85 66.0 29.35 65.85 L28.75 65.9 28.6 66.1 28.5 66.4 Q28.55 67.25 29.0 67.5 L29.6 68.2 29.55 69.45 Q29.3 70.25 29.65 70.8 L31.2 70.85 31.2 70.5 Q31.05 70.1 30.55 70.1 30.25 70.05 30.05 69.85 29.65 69.4 29.85 68.9 L29.95 68.65 Q30.3 67.6 29.6 67.4 L28.8 67.1 28.75 66.75 Q29.45 67.1 29.65 66.6" fill="url(#gradient10)" fill-rule="evenodd" stroke="none"/>
      <path d="M25.75 73.5 Q25.5 72.95 25.95 72.4 L26.25 72.05 Q27.35 70.4 25.9 70.3 L24.3 69.95 Q24.2 69.85 24.25 69.55 25.6 69.9 26.15 69.15 26.85 68.2 25.85 68.1 L24.4 68.35 24.05 68.65 23.8 69.1 Q23.7 70.3 24.6 70.6 L25.65 71.5 Q25.85 72.05 25.05 73.3 L24.65 74.15 Q24.5 74.85 24.9 75.3 25.3 75.8 26.05 75.8 L26.4 75.75 26.85 75.65 27.45 75.4 28.15 75.05 28.35 74.5 28.25 74.4 28.1 74.25 27.65 74.05 27.55 74.05 27.4 74.0 27.1 74.05 26.95 74.0 26.1 73.8 25.75 73.5" fill="url(#gradient11)" fill-rule="evenodd" stroke="none"/>
      <path d="M25.75 73.5 Q25.5 72.95 25.95 72.4 L26.25 72.05 Q27.35 70.4 25.9 70.3 L24.3 69.95 Q24.2 69.85 24.25 69.55 25.6 69.9 26.15 69.15 26.85 68.2 25.85 68.1 L24.4 68.35 24.05 68.65 23.8 69.1 Q23.7 70.3 24.6 70.6 L25.65 71.5 Q25.85 72.05 25.05 73.3 L24.65 74.15" fill="none" stroke="#fbf1bf" stroke-linecap="round" stroke-linejoin="round" stroke-opacity="0.7019608" stroke-width="0.30000000000000004"/>
      <path d="M22.4 72.4 Q22.0 72.05 22.35 71.75 22.6 71.5 22.75 71.55 L22.95 71.65 23.1 71.8 Q23.4 72.4 23.2 72.8 L23.05 73.5 Q23.05 73.85 23.6 74.3 24.1 74.7 24.05 75.25 23.95 76.05 23.05 75.9 L22.85 75.65 Q22.8 75.3 23.15 75.05 L23.35 74.8 Q23.5 74.3 23.15 74.05 L23.0 73.95 Q22.35 73.3 22.75 72.9 L23.15 72.4 23.05 72.15 Q22.75 72.65 22.4 72.4" fill="url(#gradient12)" fill-rule="evenodd" stroke="none"/>
    </g>
    <linearGradient gradientTransform="matrix(0.001, 0.0083, 0.002, -5.0E-4, 27.05, 65.7)" gradientUnits="userSpaceOnUse" id="gradient9" spreadMethod="pad" x1="-819.2" x2="819.2">
      <stop offset="0.0" stop-color="#fbf1bf" stop-opacity="0.12156863"/>
      <stop offset="0.7254901960784313" stop-color="#fbf1bf" stop-opacity="0.6"/>
      <stop offset="1.0" stop-color="#fbf1bf" stop-opacity="0.0"/>
    </linearGradient>
    <linearGradient gradientTransform="matrix(0.0018, 0.0044, -7.0E-4, 2.0E-4, 28.65, 67.6)" gradientUnits="userSpaceOnUse" id="gradient10" spreadMethod="pad" x1="-819.2" x2="819.2">
      <stop offset="0.0" stop-color="#fbf1bf" stop-opacity="0.12156863"/>
      <stop offset="0.7254901960784313" stop-color="#fbf1bf" stop-opacity="0.6"/>
      <stop offset="1.0" stop-color="#fbf1bf" stop-opacity="0.0"/>
    </linearGradient>
    <linearGradient gradientTransform="matrix(0.0025, 0.006, -0.0016, 4.0E-4, 23.8, 70.8)" gradientUnits="userSpaceOnUse" id="gradient11" spreadMethod="pad" x1="-819.2" x2="819.2">
      <stop offset="0.0" stop-color="#fbf1bf" stop-opacity="0.12156863"/>
      <stop offset="0.7254901960784313" stop-color="#fbf1bf" stop-opacity="0.6"/>
      <stop offset="1.0" stop-color="#fbf1bf" stop-opacity="0.0"/>
    </linearGradient>
    <linearGradient gradientTransform="matrix(5.0E-4, 0.0037, 6.0E-4, -1.0E-4, 23.45, 72.7)" gradientUnits="userSpaceOnUse" id="gradient12" spreadMethod="pad" x1="-819.2" x2="819.2">
      <stop offset="0.0" stop-color="#fbf1bf" stop-opacity="0.12156863"/>
      <stop offset="0.7254901960784313" stop-color="#fbf1bf" stop-opacity="0.6"/>
      <stop offset="1.0" stop-color="#fbf1bf" stop-opacity="0.0"/>
    </linearGradient>
    <g id="sprite17" transform="matrix(1.0, 0.0, 0.0, 1.0, 0.0, 0.0)">
      <use height="26.7" transform="matrix(0.0042, -1.3515, 1.3935, 0.02, 22.09, 56.0263)" width="26.7" xlink:href="#sprite18"/>
      <use height="26.7" transform="matrix(0.0095, -3.0486, 0.372, 0.0053, 36.507, 81.3775)" width="26.7" xlink:href="#sprite18"/>
      <use height="26.7" transform="matrix(3.0486, 0.0095, -0.0053, 0.372, 0.1225, 31.607)" width="26.7" xlink:href="#sprite18"/>
    </g>
    <g id="sprite18" transform="matrix(1.0, 0.0, 0.0, 1.0, 13.35, 13.35)">
      <use height="26.7" transform="matrix(1.0, 0.0, 0.0, 1.0, -13.35, -13.35)" width="26.7" xlink:href="#shape21"/>
    </g>
    <g id="shape21" transform="matrix(1.0, 0.0, 0.0, 1.0, 13.35, 13.35)">
      <path d="M9.3 -9.85 Q13.35 -5.8 13.35 0.0 13.35 5.8 9.3 9.3 5.8 13.35 0.0 13.35 -5.8 13.35 -9.85 9.3 -13.35 5.8 -13.35 0.0 -13.35 -5.8 -9.85 -9.85 -5.8 -13.35 0.0 -13.35 5.8 -13.35 9.3 -9.85" fill="url(#gradient13)" fill-rule="evenodd" stroke="none"/>
    </g>
    <radialGradient cx="0" cy="0" gradientTransform="matrix(0.0213, 0.0, 0.0, 0.0213, 0.0, 0.0)" gradientUnits="userSpaceOnUse" id="gradient13" r="819.2" spreadMethod="pad">
      <stop offset="0.19607843137254902" stop-color="#fee3bc" stop-opacity="0.42745098"/>
      <stop offset="0.5019607843137255" stop-color="#fee3bc" stop-opacity="0.06666667"/>
      <stop offset="0.7607843137254902" stop-color="#ffe3bd" stop-opacity="0.0"/>
    </radialGradient>
    <g id="shape22" transform="matrix(1.0, 0.0, 0.0, 1.0, -6.25, -55.25)">
      <path d="M46.5 90.1 Q45.8 90.7 44.6 91.05 L31.8 95.2 31.75 95.15 31.55 95.2 45.2 90.65 46.2 90.25 46.5 90.1" fill="#999999" fill-rule="evenodd" stroke="none"/>
      <path d="M31.55 95.2 L30.85 95.4 18.15 90.4 17.5 89.0 10.9 74.45 9.9 72.25 6.85 65.65 Q5.7 63.15 6.9 61.65 7.45 60.95 8.5 60.45 9.15 60.0 10.1 59.7 L23.8 55.3 23.85 55.3 36.55 60.4 36.6 60.4 47.7 85.1 Q49.3 88.6 46.5 90.1 45.8 90.7 44.6 91.05 L31.8 95.2" fill="none" stroke="#ffaa00" stroke-linecap="round" stroke-linejoin="round" stroke-opacity="0.7490196" stroke-width="0.05"/>
      <path d="M31.55 95.2 L45.2 90.65 46.2 90.25 46.5 90.1 Q49.25 88.55 47.65 85.1 L36.55 60.4 M9.9 72.25 L7.0 65.65 Q5.85 63.15 7.05 61.65 7.5 61.0 8.45 60.55 9.1 60.1 10.1 59.75 L23.85 55.3" fill="none" stroke="#000000" stroke-linecap="round" stroke-linejoin="round" stroke-opacity="0.3019608" stroke-width="0.05"/>
    </g>
    <g id="shape23" transform="matrix(1.0, 0.0, 0.0, 1.0, -14.7, -59.4)">
      <path d="M33.85 83.75 L33.85 83.8 33.85 83.95 33.85 84.0 33.85 84.1 33.9 84.1 33.9 84.15 34.35 84.4 34.85 84.75 34.35 84.45 34.1 84.3 34.05 84.25 33.95 84.2 33.9 84.2 33.9 84.7 33.9 85.25 33.85 84.75 33.75 84.2 33.7 84.1 33.5 84.25 33.0 84.55 32.7 84.7 32.95 84.5 33.4 84.3 33.45 84.25 33.5 84.2 33.7 84.1 33.65 84.05 33.7 84.05 33.7 84.0 33.3 83.6 32.95 83.25 33.3 83.55 33.55 83.8 33.7 83.95 33.8 83.4 33.9 82.95 33.85 83.35 33.85 83.75 M34.25 84.0 L34.15 84.0 33.9 84.05 34.15 83.95 34.7 83.75 35.2 83.65 34.85 83.75 34.95 83.85 34.85 83.75 34.7 83.8 34.4 83.9 34.35 83.9 34.25 84.0 M34.95 83.85 L35.65 84.4 36.45 85.15 36.5 85.2 36.75 85.45 36.9 85.55 36.9 85.5 37.1 83.9 37.35 82.3 37.45 81.75 37.4 82.25 37.4 83.85 37.2 85.6 37.35 86.0 37.4 86.1 38.7 86.9 40.15 87.75 40.55 88.05 40.1 87.8 38.75 87.05 37.75 86.45 37.4 86.25 37.35 86.2 37.4 86.3 37.5 87.75 37.55 89.45 37.6 90.0 37.5 89.5 37.25 87.9 37.05 86.25 37.0 86.3 36.9 85.9 36.7 85.75 36.9 85.85 36.9 85.65 35.7 84.55 34.95 83.85 M35.7 86.65 L36.1 86.45 36.2 86.4 36.85 86.1 36.3 86.45 34.8 87.25 33.35 88.0 32.8 88.25 33.3 88.0 34.65 87.2 35.7 86.65 M41.85 84.45 L41.35 84.6 39.85 85.15 38.15 85.7 37.5 85.9 Q37.45 85.85 38.1 85.65 L39.7 85.1 41.3 84.6 41.85 84.45" fill="#fefd8d" fill-opacity="0.972549" fill-rule="evenodd" stroke="none"/>
      <path d="M33.85 83.75 L34.05 83.4 34.25 83.2 34.15 83.4 34.0 83.8 33.9 83.9 33.85 83.8 33.85 83.75 M34.1 84.3 L34.35 84.5 34.45 84.65 34.25 84.5 34.0 84.3 33.95 84.2 34.05 84.25 34.1 84.3 M33.4 84.3 L33.3 84.3 32.95 84.45 32.7 84.55 32.95 84.4 33.35 84.25 33.45 84.25 33.4 84.3 M33.55 83.8 L33.4 83.6 33.6 83.8 33.65 83.9 33.55 83.8 M34.25 84.0 L34.35 83.9 34.4 83.9 34.65 83.85 34.95 83.85 35.05 83.8 34.95 83.85 34.7 83.9 34.3 84.0 34.2 84.0 34.25 84.0 M36.45 85.15 L35.85 84.4 35.45 83.85 35.95 84.3 36.65 85.15 36.9 85.5 36.75 85.45 36.5 85.2 36.45 85.15 M37.75 86.45 Q38.15 86.7 38.6 87.1 L39.3 87.75 38.5 87.15 37.6 86.5 37.4 86.3 37.35 86.2 37.4 86.25 37.75 86.45 M33.6 84.3 L33.7 84.2 33.75 84.35 33.65 84.7 33.55 85.05 33.55 84.75 33.6 84.3 M37.65 85.15 L37.35 85.5 37.35 85.0 37.9 84.05 38.5 83.1 38.7 82.75 38.55 83.1 38.15 84.05 37.65 85.15 M35.7 86.65 L34.7 87.0 33.8 87.3 34.7 86.95 35.75 86.5 36.1 86.45 35.7 86.65 M38.7 85.65 L38.25 85.7 38.7 85.55 39.75 85.35 40.7 85.2 41.05 85.15 40.75 85.25 39.8 85.45 38.7 85.65 M36.7 86.7 L36.95 86.25 37.0 86.75 36.65 87.8 36.3 88.85 36.15 89.25 36.25 88.85 36.4 87.85 Q36.5 87.1 36.7 86.7" fill="#fffd8f" fill-opacity="0.4" fill-rule="evenodd" stroke="none"/>
      <path d="M38.0 86.75 Q37.9 86.0 37.45 85.8 L36.9 85.85 Q36.75 86.1 36.9 86.5 37.1 87.0 37.65 87.3 L38.35 87.95 38.6 88.25 38.45 87.85 38.0 86.75" fill="#fffd8f" fill-opacity="0.39215687" fill-rule="evenodd" stroke="none"/>
      <path d="M38.0 86.25 L37.05 85.85 Q36.8 85.8 36.95 85.95 L37.55 86.35 38.35 86.6 Q38.8 86.65 39.05 86.85 L39.35 86.95 39.0 86.75 38.0 86.25" fill="#fffd8f" fill-opacity="0.39215687" fill-rule="evenodd" stroke="none"/>
      <path d="M36.4 84.8 Q36.35 85.55 36.75 85.85 L37.3 85.9 37.45 85.25 Q37.35 84.75 36.9 84.35 36.35 83.9 36.3 83.55 L36.1 83.25 36.2 83.65 36.4 84.8" fill="#fffd8f" fill-opacity="0.39215687" fill-rule="evenodd" stroke="none"/>
      <path d="M36.25 85.35 L37.1 85.95 37.2 85.8 36.75 85.3 35.95 84.9 Q35.55 84.75 35.3 84.6 L35.05 84.45 35.35 84.65 36.25 85.35" fill="#fffd8f" fill-opacity="0.39215687" fill-rule="evenodd" stroke="none"/>
      <path d="M38.75 85.2 Q38.0 85.45 37.85 85.65 37.7 85.85 37.85 85.8 L38.5 85.65 39.25 85.2 39.9 84.75 40.15 84.6 39.75 84.75 38.75 85.2" fill="#fffd8f" fill-opacity="0.39215687" fill-rule="evenodd" stroke="none"/>
      <path d="M35.75 87.0 L36.6 86.4 36.5 86.25 Q36.25 86.25 35.9 86.5 L35.25 87.1 34.7 87.65 Q34.4 87.8 34.45 87.85 L34.8 87.6 35.75 87.0" fill="#fffd8f" fill-opacity="0.39215687" fill-rule="evenodd" stroke="none"/>
      <path d="M34.1 84.35 L33.95 84.05 33.75 84.05 Q33.65 84.1 33.7 84.25 L34.0 84.55 34.2 84.75 34.3 84.85 34.2 84.75 34.1 84.35" fill="#fffd8f" fill-opacity="0.39215687" fill-rule="evenodd" stroke="none"/>
      <path d="M34.1 84.2 Q33.9 84.05 33.75 84.05 L33.75 84.1 33.95 84.2 34.2 84.3 34.5 84.4 34.55 84.4 34.45 84.4 34.1 84.2" fill="#fffd8f" fill-opacity="0.39215687" fill-rule="evenodd" stroke="none"/>
      <path d="M33.5 83.65 L33.65 84.05 33.85 84.05 33.9 83.85 33.65 83.55 33.5 83.25 33.45 83.15 33.5 83.25 33.5 83.65" fill="#fffd8f" fill-opacity="0.39215687" fill-rule="evenodd" stroke="none"/>
      <path d="M33.5 83.9 L33.75 84.05 33.8 84.0 33.65 83.85 33.35 83.7 33.2 83.6 33.05 83.55 33.15 83.6 33.5 83.9" fill="#fffd8f" fill-opacity="0.39215687" fill-rule="evenodd" stroke="none"/>
      <path d="M34.3 83.8 L34.05 83.95 34.05 84.0 34.25 83.95 34.55 83.8 Q34.6 83.7 34.7 83.7 L34.8 83.6 34.7 83.65 34.3 83.8" fill="#fffd8f" fill-opacity="0.39215687" fill-rule="evenodd" stroke="none"/>
      <path d="M33.3 84.45 L33.6 84.2 33.6 84.15 Q33.5 84.15 33.4 84.3 L33.15 84.45 32.95 84.65 32.85 84.75 33.0 84.6 33.3 84.45" fill="#fffd8f" fill-opacity="0.39215687" fill-rule="evenodd" stroke="none"/>
      <path d="M36.3 85.35 Q36.05 85.7 36.05 86.15 L36.5 86.9 37.3 87.15 38.05 86.75 38.25 85.9 37.85 85.2 37.05 84.95 36.3 85.35" fill="#ffffff" fill-rule="evenodd" stroke="none"/>
      <path d="M18.75 62.3 L18.65 62.35 18.2 62.45 18.6 62.25 19.85 61.9 21.0 61.5 21.4 61.35 21.05 61.5 19.9 61.9 18.75 62.3 M17.45 61.95 L17.7 62.2 17.75 62.2 17.7 62.15 17.85 61.05 18.05 59.85 18.15 59.4 18.1 59.8 18.05 61.0 18.0 62.25 18.1 62.6 19.15 63.2 20.0 63.75 19.15 63.3 18.5 62.95 18.4 62.85 18.15 62.7 18.1 62.7 18.15 62.75 18.2 63.85 18.2 64.9 18.0 64.0 17.85 62.8 17.8 62.8 17.75 62.45 17.6 62.3 17.7 62.35 17.7 62.3 16.85 61.5 15.9 60.65 15.65 60.35 15.95 60.65 16.8 61.4 17.45 61.95 M14.7 64.25 L15.05 64.05 16.1 63.45 17.25 62.85 17.7 62.65 17.3 62.95 16.2 63.45 15.1 64.05 14.7 64.25" fill="#fefd8d" fill-opacity="0.972549" fill-rule="evenodd" stroke="none"/>
      <path d="M18.75 62.3 L19.1 62.2 19.85 62.05 20.6 61.95 19.85 62.15 19.05 62.3 18.75 62.3 M17.45 61.95 L16.95 61.35 16.5 60.75 17.0 61.3 17.55 61.95 17.7 62.15 17.75 62.2 17.7 62.2 17.45 61.95 M18.5 62.95 L19.0 63.35 19.6 63.8 19.8 64.0 19.6 63.85 18.95 63.4 18.3 62.9 18.15 62.75 18.1 62.7 18.15 62.7 18.4 62.85 18.5 62.95 M18.3 61.9 L18.05 62.2 18.1 61.85 18.45 61.15 18.9 60.4 19.1 60.2 18.95 60.4 18.65 61.15 18.3 61.9 M17.55 63.1 L17.75 62.75 17.8 63.1 17.6 63.95 17.25 64.7 17.15 64.95 17.2 64.7 17.4 63.9 Q17.4 63.4 17.55 63.1 M16.9 62.9 L17.2 62.85 Q17.15 62.9 16.85 63.05 L16.15 63.3 15.45 63.55 15.2 63.6 15.45 63.5 16.1 63.25 Q16.6 63.0 16.9 62.9" fill="#fffd8f" fill-opacity="0.4" fill-rule="evenodd" stroke="none"/>
      <path d="M18.6 63.1 L18.15 62.4 17.7 62.45 17.75 62.95 18.3 63.55 Q18.75 63.8 18.8 64.0 L19.0 64.25 18.85 63.95 18.6 63.1" fill="#fffd8f" fill-opacity="0.39215687" fill-rule="evenodd" stroke="none"/>
      <path d="M18.55 62.7 Q18.05 62.4 17.9 62.4 17.7 62.4 17.8 62.5 L18.25 62.8 18.85 63.0 19.35 63.15 19.6 63.2 19.35 63.1 18.55 62.7" fill="#fffd8f" fill-opacity="0.39215687" fill-rule="evenodd" stroke="none"/>
      <path d="M17.3 61.7 Q17.35 62.3 17.55 62.45 L18.0 62.5 18.1 62.0 17.65 61.35 17.25 60.75 17.15 60.5 17.2 60.8 17.3 61.7" fill="#fffd8f" fill-opacity="0.39215687" fill-rule="evenodd" stroke="none"/>
      <path d="M17.25 62.1 L17.9 62.5 17.95 62.45 17.6 62.05 17.05 61.75 16.55 61.5 16.35 61.4 16.55 61.6 Q16.8 61.7 17.25 62.1" fill="#fffd8f" fill-opacity="0.39215687" fill-rule="evenodd" stroke="none"/>
      <path d="M19.05 61.9 L18.4 62.3 18.45 62.4 18.9 62.3 19.5 61.95 19.95 61.6 20.15 61.5 19.85 61.6 19.05 61.9" fill="#fffd8f" fill-opacity="0.39215687" fill-rule="evenodd" stroke="none"/>
      <path d="M16.9 63.3 L17.5 62.85 17.45 62.7 17.05 62.9 16.5 63.35 16.15 63.75 15.95 63.95 16.2 63.75 16.9 63.3" fill="#fffd8f" fill-opacity="0.39215687" fill-rule="evenodd" stroke="none"/>
      <path d="M17.4 62.1 Q17.15 62.35 17.2 62.65 L17.55 63.25 18.1 63.4 18.7 63.1 18.85 62.5 18.55 61.95 17.9 61.75 17.4 62.1" fill="#ffffff" fill-rule="evenodd" stroke="none"/>
      <path d="M33.55 83.9 L33.45 84.15 33.6 84.45 33.85 84.5 34.15 84.4 34.2 84.05 34.1 83.85 33.75 83.75 33.55 83.9" fill="#ffffff" fill-rule="evenodd" stroke="none"/>
    </g>
  </defs>
</svg>
