<?xml version='1.0' encoding='UTF-8'?>
<svg xmlns:xlink="http://www.w3.org/1999/xlink" xmlns="http://www.w3.org/2000/svg" version="1.1" width="60px" height="60px" viewBox="0.0 0.0 60.0 60.0"><defs><g id="c1"><path fill="#000000" fill-opacity="0.00392156862745" d="M0.0 0.0 L60.0 0.0 60.0 60.0 0.0 60.0 0.0 0.0"/></g><g id="c2"><path fill="none" stroke="#000000" stroke-width="1.0" stroke-opacity="0.301960784314" d="M0.7 12.25 Q-0.45 9.75 0.75 8.25 1.2 7.6 2.15 7.15 2.8 6.7 3.8 6.35 L17.5 1.95 30.2 7.0 41.35 31.7 Q42.95 35.15 40.2 36.7 39.5 37.3 38.3 37.65 L25.5 41.8 25.45 41.75 24.55 42.0 11.85 37.0 0.7 12.25"/><path fill="#9d147b" stroke="none" d="M35.55 22.3 L31.5 13.2 29.75 9.2 16.95 4.25 5.5 7.85 Q1.65 9.1 3.35 12.8 L8.25 23.65 13.1 34.35 25.8 39.4 37.2 35.7 Q41.1 34.5 39.35 30.75 L35.55 22.3 M5.45 20.95 L1.35 11.8 Q0.4 9.65 1.1 8.3 1.45 7.65 2.15 7.15 2.8 6.7 3.8 6.35 L17.5 1.95 30.2 7.0 41.35 31.7 Q42.95 35.15 40.2 36.7 L38.9 37.25 25.2 41.65 12.5 36.65 5.45 20.95"/><path fill="#c47fad" stroke="none" d="M31.5 13.2 L35.55 22.3 39.35 30.75 Q41.1 34.5 37.2 35.7 L25.8 39.4 13.1 34.35 8.25 23.65 3.35 12.8 Q1.65 9.1 5.5 7.85 L16.95 4.25 29.75 9.2 31.5 13.2 M18.5 7.45 L9.1 10.55 9.55 11.6 Q9.8 12.8 9.15 13.6 8.4 14.45 7.1 14.4 L6.8 14.4 6.95 14.6 15.2 32.75 23.85 36.2 34.0 32.9 33.7 32.1 Q33.45 30.9 34.1 30.1 34.75 29.3 35.95 29.35 L35.8 29.0 27.75 10.95 18.5 7.45"/><path fill="#fcf2cf" stroke="none" d="M27.75 10.95 L35.8 29.0 35.95 29.35 Q34.75 29.3 34.1 30.1 33.45 30.9 33.7 32.1 L34.0 32.9 23.85 36.2 15.2 32.75 6.95 14.6 6.8 14.4 7.1 14.4 Q8.4 14.45 9.15 13.6 9.8 12.8 9.55 11.6 L9.1 10.55 18.5 7.45 27.75 10.95"/><path fill="#630a4c" stroke="none" d="M1.1 8.3 L0.75 8.25 Q1.2 7.6 2.15 7.15 1.45 7.65 1.1 8.3 M4.6 20.9 L5.45 20.95 12.5 36.65 11.55 36.25 11.25 35.55 4.6 20.9"/><path fill="#300525" stroke="none" d="M1.1 8.3 Q0.4 9.65 1.35 11.8 L5.45 20.95 4.6 20.9 0.7 12.25 Q-0.45 9.75 0.75 8.25 L1.1 8.3 M12.5 36.65 L25.2 41.65 38.9 37.25 40.2 36.7 Q39.5 37.3 38.3 37.65 L25.5 41.8 25.45 41.75 24.55 42.0 11.85 37.0 11.55 36.25 12.5 36.65"/><path fill="none" stroke="#bf9900" stroke-width="1.0" stroke-opacity="0.749019607843" d="M31.5 13.2 L35.55 22.3 M13.1 34.35 L8.25 23.65"/><path fill="none" stroke="#ffcc00" stroke-width="1.0" stroke-opacity="0.749019607843" d="M35.55 22.3 L39.35 30.75 Q41.1 34.5 37.2 35.7 L25.8 39.4 M8.25 23.65 L3.35 12.8 Q1.65 9.1 5.5 7.85 L16.95 4.25 29.75 9.2 31.5 13.2"/><path fill="none" stroke="#f0b92b" stroke-width="0.5" d="M27.75 10.95 L35.8 29.0 35.95 29.35 Q34.75 29.3 34.1 30.1 33.45 30.9 33.7 32.1 L34.0 32.9 23.85 36.2 15.2 32.75 6.95 14.6 6.8 14.4 7.1 14.4 Q8.4 14.45 9.15 13.6 9.8 12.8 9.55 11.6 L9.1 10.55 18.5 7.45"/><path fill="none" stroke="#000000" stroke-width="0.5" stroke-opacity="0.301960784314" d="M5.45 20.95 L1.35 11.8 Q0.4 9.65 1.1 8.3 M0.75 8.25 Q-0.45 9.75 0.7 12.25 L4.6 20.9 M5.45 20.95 L12.5 36.65 M25.2 41.65 L38.9 37.25 40.2 36.7 Q42.95 35.15 41.35 31.7 L30.2 7.0 M17.5 1.95 L3.8 6.35 Q2.8 6.7 2.15 7.15 1.45 7.65 1.1 8.3 M0.75 8.25 Q1.2 7.6 2.15 7.15 M11.25 35.55 L4.6 20.9 M25.5 41.8 L38.3 37.65 Q39.5 37.3 40.2 36.7"/><path fill="none" stroke="#ffcc00" stroke-width="0.5" stroke-opacity="0.749019607843" d="M18.5 7.45 L27.75 10.95"/><path fill="none" stroke="#f0b92b" stroke-width="1.0" stroke-opacity="0.749019607843" d="M25.8 39.4 L13.1 34.35"/><path fill="none" stroke="#432f2f" stroke-width="0.5" d="M12.5 36.65 L25.2 41.65"/></g><g id="c3"><path fill="#7fdbfe" stroke="none" d="M10.75 4.9 Q10.75 4.6 10.9 4.35 11.25 3.45 11.95 2.75 13.3 1.5 14.35 2.1 15.4 2.7 14.95 4.45 14.7 5.4 14.1 6.15 L13.75 6.5 Q13.1 7.15 12.35 7.35 L11.4 7.2 Q10.95 6.9 10.75 6.4 10.5 5.75 10.75 4.9 M7.5 5.9 Q7.0 5.85 6.6 5.5 6.05 5.0 5.8 4.15 L5.7 3.6 Q5.55 2.65 5.8 1.7 6.25 0.0 7.5 0.0 L7.6 0.0 Q8.85 0.0 9.3 1.7 9.55 2.65 9.4 3.6 L9.3 4.15 8.5 5.5 7.6 5.9 7.5 5.9 M4.35 4.9 Q4.6 5.75 4.35 6.4 L3.7 7.2 2.75 7.35 Q2.0 7.15 1.35 6.5 L1.0 6.15 Q0.4 5.4 0.15 4.45 -0.3 2.7 0.75 2.1 1.8 1.5 3.15 2.75 3.85 3.45 4.2 4.35 L4.35 4.9 M5.5 13.7 Q4.45 13.9 3.65 12.95 2.75 12.0 3.2 10.25 3.7 8.5 5.25 7.6 6.4 6.9 7.55 7.0 8.75 6.9 9.9 7.6 11.45 8.5 11.95 10.25 12.35 12.0 11.5 12.95 10.7 13.9 9.65 13.7 8.55 13.5 7.55 12.6 6.55 13.5 5.5 13.7"/></g><g id="c4"><g><use transform="matrix(1.0,0.0,0.0,1.0,0.0,0.0)" xlink:href="#c3"/></g></g><radialGradient gradientUnits="userSpaceOnUse" r="819.2" cx="0" cy="0" spreadMethod="pad" gradientTransform="matrix(0.0914459228516,0.0,0.0,0.0914459228516,0.6,3.4)" id="gradient1"><stop offset="0.0" stop-color="#ffffff"/><stop offset="1.0" stop-color="#ffffff" stop-opacity="0.0"/></radialGradient><g id="c5"><path stroke="none" fill="url(#gradient1)" d="M36.65 -54.65 Q60.05 -42.0 69.75 -17.95 80.55 8.9 68.0 34.1 55.45 59.35 26.8 68.2 -1.8 77.05 -29.7 64.3 -57.6 51.6 -68.45 24.75 -79.3 -2.05 -66.75 -27.25 L-66.7 -27.3 Q-54.1 -52.5 -25.5 -61.4 3.1 -70.2 31.0 -57.5 L36.65 -54.65"/></g><g id="c6"><g><use transform="matrix(1.0,0.0,0.0,1.0,0.0,0.0)" xlink:href="#c5"/></g></g><radialGradient gradientUnits="userSpaceOnUse" r="819.2" cx="0" cy="0" spreadMethod="pad" gradientTransform="matrix(0.209197998047,0.0,0.0,0.177108764648,67.15,107.2)" id="gradient2"><stop offset="0.356862745098" stop-color="#ffffff"/><stop offset="0.670588235294" stop-opacity="0.0"/></radialGradient><g id="c7"><path fill="none" stroke-linejoin="round" stroke-linecap="round" stroke="url(#gradient2)" stroke-width="0.5" d="M136.55 165.8 L68.6 106.0 68.4 106.0 118.25 201.5 M68.3 105.8 L68.35 105.8 68.3 105.8 68.3 105.85 68.4 106.0 68.3 106.0 86.55 211.5 M68.3 105.8 L68.3 105.85 68.3 106.0 68.15 105.95 18.25 151.55 M68.3 105.85 L68.25 105.85 68.3 106.0 50.0 193.2 M68.25 105.85 L68.15 105.95 0.05 97.7 M68.3 105.85 L68.25 105.8 68.25 105.85 M68.25 105.8 L68.2 105.7 0.0 45.7 M68.3 105.8 L68.25 105.75 68.25 105.8 M68.25 105.75 L68.2 105.7 18.25 10.05 M68.6 106.0 L68.35 105.8 118.25 60.15 M86.6 18.35 L68.3 105.8 M136.6 114.25 L68.6 106.0 M68.25 105.75 L49.95 0.05"/></g><g id="c8"><g><use transform="matrix(1.0,0.0,0.0,1.0,0.0,0.0)" xlink:href="#c7"/></g></g><g id="c9"><g><use transform="matrix(1.0,0.0,0.0,1.0,0.0,0.0)" xlink:href="#c2"/></g><g><use transform="matrix(0.238861083984,-0.0867004394531,0.10026550293,0.233917236328,34.25,31.15)" xlink:href="#c4"/></g><g><use transform="matrix(0.238861083984,-0.0867004394531,0.10026550293,0.233917236328,4.25,10.3)" xlink:href="#c4"/></g><g><use transform="matrix(0.141098022461,-0.0378112792969,0.111373901367,0.225646972656,20.25,20.65)" filter="url(#filter7)" xlink:href="#c6"/></g><g><use transform="matrix(-0.155029296875,0.0513153076172,0.0841827392578,0.147033691406,22.6,3.15)" filter="url(#filter8)" xlink:href="#c8"/></g></g><filter id="filter7"><feColorMatrix in="SourceGraphic" type="matrix" values="0.0 0.0 0.0 0.0 0.796875 0.0 0.0 0.0 0.0 0.59765625 0.0 0.0 0.0 0.0 0.19921875 0.0 0.0 0.0 1.0 0.0" result="cxform"/><feComposite operator="in" in2="SourceGraphic" result="color-xform"/></filter><filter id="filter8"><feColorMatrix in="SourceGraphic" type="matrix" values="0.0 0.0 0.0 0.0 0.99609375 0.0 0.0 0.0 0.0 0.99609375 0.0 0.0 0.0 0.0 0.99609375 0.0 0.0 0.0 1.0 0.0" result="cxform"/><feComposite operator="in" in2="SourceGraphic" result="color-xform"/></filter><g id="c10"><path fill="#3e453a" stroke="none" d="M64.8 0.3 Q62.5 0.6 61.0 1.55 L35.3 3.3 Q23.25 4.7 11.15 7.35 L10.45 6.25 Q23.8 3.0 35.65 1.45 51.55 -0.65 64.8 0.3"/><path fill="#ffcc00" stroke="none" d="M61.0 1.55 Q62.5 0.6 64.8 0.3 L67.5 0.5 Q68.45 0.85 69.0 1.65 64.95 0.1 60.25 7.75 46.3 33.9 27.05 57.2 L25.55 56.4 32.05 47.65 35.85 42.3 Q47.9 24.95 56.2 8.6 L56.9 7.55 59.05 3.75 59.4 3.1 Q60.0 2.2 61.0 1.55 M5.7 82.35 L0.0 87.0 16.95 67.3 18.05 67.85 5.7 82.35"/><path fill="#ff9900" stroke="none" d="M27.05 57.2 Q46.3 33.9 60.25 7.75 64.95 0.1 69.0 1.65 69.8 2.9 69.5 5.25 59.8 23.25 47.15 39.6 L40.75 47.55 35.3 53.85 31.65 57.85 30.2 59.4 29.15 60.5 28.85 59.65 28.2 58.4 28.1 58.25 27.05 57.2 M19.75 69.85 Q13.0 76.25 5.7 82.35 L18.05 67.85 18.5 68.2 Q19.25 68.85 19.75 69.85"/><path fill="#1e201c" stroke="none" d="M10.45 6.25 L11.15 7.35 11.7 8.75 Q23.55 6.35 35.0 4.95 L59.4 3.1 59.05 3.75 56.9 7.55 Q45.4 7.9 34.2 9.4 23.5 10.85 13.05 13.35 L13.3 15.05 7.5 16.5 5.5 7.5 10.45 6.25"/><path fill="#2d332b" stroke="none" d="M11.15 7.35 Q23.25 4.7 35.3 3.3 L61.0 1.55 Q60.0 2.2 59.4 3.1 L35.0 4.95 Q23.55 6.35 11.7 8.75 L11.15 7.35 M56.9 7.55 L56.2 8.6 Q45.15 9.2 33.9 10.95 23.65 12.5 13.3 15.05 L13.05 13.35 Q23.5 10.85 34.2 9.4 45.4 7.9 56.9 7.55"/><path fill="#41210c" stroke="none" d="M25.55 56.4 L27.05 57.2 18.05 67.85 16.95 67.3 21.15 62.05 24.15 58.2 25.55 56.4"/><path fill="#241206" stroke="none" d="M29.15 60.5 L26.45 63.25 24.1 65.65 20.1 69.55 19.75 69.85 Q19.25 68.85 18.5 68.2 L18.05 67.85 27.05 57.2 28.1 58.25 28.2 58.4 28.85 59.65 29.15 60.5"/><path fill="none" stroke="#000000" stroke-width="1.5" stroke-opacity="0.301960784314" d="M64.8 0.3 Q51.55 -0.65 35.65 1.45 23.8 3.0 10.45 6.25 M59.05 3.75 L56.9 7.55 56.2 8.6 Q47.9 24.95 35.85 42.3 L32.05 47.65 25.55 56.4 M69.0 1.65 Q68.45 0.85 67.5 0.5 L64.8 0.3 M69.0 1.65 Q69.8 2.9 69.5 5.25 59.8 23.25 47.15 39.6 L40.75 47.55 35.3 53.85 31.65 57.85 30.2 59.4 29.15 60.5 26.45 63.25 24.1 65.65 20.1 69.55 19.75 69.85 Q13.0 76.25 5.7 82.35 L0.0 87.0 16.95 67.3 21.15 62.05 24.15 58.2 25.55 56.4 M13.3 15.05 Q23.65 12.5 33.9 10.95 45.15 9.2 56.2 8.6 M13.3 15.05 L7.5 16.5 5.5 7.5 10.45 6.25"/></g><g id="c11"><g><use transform="matrix(1.0,0.0,0.0,1.0,0.0,0.0)" xlink:href="#c10"/></g></g><g id="c12"><path fill="#ff9900" stroke="none" d="M37.55 84.0 L39.0 68.45 39.05 68.15 39.15 66.4 39.3 64.9 39.3 64.75 39.5 61.95 39.55 60.8 39.7 58.9 Q41.2 33.9 40.55 8.5 40.25 3.7 43.6 0.75 L43.8 0.65 Q47.85 -1.4 48.0 3.1 47.95 33.45 43.65 64.15 L40.5 83.45 40.4 84.15 38.4 83.9 37.55 84.0 M35.4 100.55 L35.75 100.65 36.9 101.15 33.4 115.9 35.4 100.55"/><path fill="#ffcc00" stroke="none" d="M43.6 0.75 Q40.25 3.7 40.55 8.5 41.2 33.9 39.7 58.9 L39.55 60.8 39.5 61.95 39.3 64.75 39.3 64.9 39.15 66.4 39.05 68.15 39.0 68.45 37.55 84.0 35.95 84.4 37.4 65.85 37.45 64.95 37.6 62.45 Q39.05 37.65 38.45 13.85 L38.4 12.15 38.25 8.1 38.05 7.2 38.05 5.85 Q38.3 4.0 40.2 2.55 L43.6 0.75 M35.4 100.55 L33.4 115.9 31.0 124.85 Q32.85 112.5 34.3 100.4 L35.4 100.55"/><path fill="#1e201c" stroke="none" d="M38.05 7.2 L38.25 8.1 38.4 12.15 Q27.45 17.7 16.8 24.75 11.1 28.5 5.5 32.65 L5.9 35.15 1.75 38.35 0.0 29.35 2.25 27.6 Q3.0 27.95 3.6 28.6 L4.45 29.75 Q10.05 25.3 15.7 21.3 26.85 13.4 38.05 7.2"/><path fill="#3e453a" stroke="none" d="M40.2 2.55 Q38.3 4.0 38.05 5.85 26.2 12.1 15.25 19.85 9.3 24.0 3.6 28.6 3.0 27.95 2.25 27.6 8.45 22.65 14.75 18.25 27.25 9.45 40.2 2.55"/><path fill="#2d332b" stroke="none" d="M38.05 5.85 L38.05 7.2 Q26.85 13.4 15.7 21.3 10.05 25.3 4.45 29.75 L3.6 28.6 Q9.3 24.0 15.25 19.85 26.2 12.1 38.05 5.85 M38.4 12.15 L38.45 13.85 Q27.85 19.75 17.5 26.85 L5.9 35.15 5.5 32.65 Q11.1 28.5 16.8 24.75 27.45 17.7 38.4 12.15"/><path fill="#241206" stroke="none" d="M37.55 84.0 L38.4 83.9 40.4 84.15 39.05 91.05 36.9 101.15 35.75 100.65 35.4 100.55 37.55 84.0"/><path fill="#41210c" stroke="none" d="M35.95 84.4 L37.55 84.0 35.4 100.55 34.3 100.4 35.3 91.35 35.95 84.4"/><path fill="none" stroke="#000000" stroke-width="1.5" stroke-opacity="0.301960784314" d="M40.4 84.15 L40.5 83.45 43.65 64.15 Q47.95 33.45 48.0 3.1 47.85 -1.4 43.8 0.65 L43.6 0.75 40.2 2.55 M38.25 8.1 L38.4 12.15 38.45 13.85 Q39.05 37.65 37.6 62.45 L37.45 64.95 37.4 65.85 35.95 84.4 M36.9 101.15 L39.05 91.05 40.4 84.15 M2.25 27.6 L0.0 29.35 1.75 38.35 5.9 35.15 17.5 26.85 Q27.85 19.75 38.45 13.85 M2.25 27.6 Q8.45 22.65 14.75 18.25 27.25 9.45 40.2 2.55 M34.3 100.4 L35.3 91.35 35.95 84.4 M33.4 115.9 L36.9 101.15 M33.4 115.9 L31.0 124.85 Q32.85 112.5 34.3 100.4"/></g><g id="c13"><g><use transform="matrix(1.0,0.0,0.0,1.0,0.0,0.0)" xlink:href="#c12"/></g></g><g id="c14"><path fill="#1e201c" stroke="none" d="M33.4 26.6 L33.55 26.6 33.65 26.6 33.8 26.65 33.95 26.7 35.05 25.5 37.25 23.5 37.25 23.8 36.8 24.7 35.3 26.05 34.3 27.2 34.4 27.45 34.05 27.85 33.4 26.6"/><path fill="#2d332b" stroke="none" d="M33.65 26.6 L34.9 25.25 36.15 24.1 37.25 23.25 37.25 23.5 35.05 25.5 33.95 26.7 33.8 26.65 33.65 26.6 M36.8 24.7 L36.7 25.15 35.45 26.25 34.4 27.45 34.3 27.2 35.3 26.05 36.8 24.7"/><path fill="#3e453a" stroke="none" d="M37.25 23.0 L37.25 23.25 36.15 24.1 34.9 25.25 33.65 26.6 33.55 26.6 33.4 26.6 34.8 25.05 37.25 23.0"/><path fill="none" stroke="#000000" stroke-width="0.5" stroke-opacity="0.301960784314" d="M37.25 23.0 L34.8 25.05 33.4 26.6 M36.7 25.15 L35.45 26.25 34.4 27.45 34.05 27.85 33.4 26.6"/><path fill="#3e453a" stroke="none" d="M27.1 23.65 L27.4 23.55 30.1 23.65 31.25 24.5 31.55 25.2 31.75 26.0 31.75 26.2 31.8 26.6 32.7 26.45 33.35 26.6 31.25 27.05 Q28.8 27.7 27.15 28.85 L26.65 29.3 26.25 29.6 25.95 29.65 25.65 29.45 26.25 29.0 26.55 28.8 26.6 28.8 26.6 28.75 26.9 28.6 27.3 28.25 28.0 27.85 27.3 27.85 27.0 27.8 26.25 27.45 25.7 26.85 25.65 26.8 Q25.2 25.7 25.75 24.5 L25.65 24.6 25.5 24.8 25.4 24.9 25.3 25.05 Q24.6 26.0 24.85 27.0 L24.85 27.05 25.65 28.2 25.85 28.3 25.4 28.2 Q24.85 27.75 24.65 27.05 L24.65 27.0 Q24.4 26.0 25.1 25.05 L25.2 24.95 25.3 24.85 25.85 24.1 26.65 23.25 26.8 23.4 26.8 23.45 26.65 23.9 27.1 23.65 M31.6 26.15 Q31.55 25.15 31.25 24.9 L31.2 25.25 30.85 26.15 30.75 26.25 30.7 26.3 29.8 27.05 31.0 26.75 31.65 26.6 31.6 26.15 M31.8 26.6 L31.65 26.6 31.8 26.6"/><path fill="#2d332b" stroke="none" d="M26.25 29.0 L26.15 28.65 26.05 28.6 25.4 28.2 25.85 28.3 25.65 28.2 24.85 27.05 24.85 27.0 Q24.6 26.0 25.3 25.05 L25.4 24.9 25.5 24.8 25.65 24.6 25.75 24.5 Q25.2 25.7 25.65 26.8 L25.7 26.85 26.25 27.45 27.0 27.8 27.3 27.85 28.0 27.85 27.3 28.25 27.1 28.3 26.5 28.35 26.45 28.35 26.3 28.35 25.85 28.3 26.25 28.55 26.3 28.6 26.35 28.6 26.55 28.8 26.25 29.0 M26.8 23.4 L27.1 23.65 26.65 23.9 26.8 23.45 26.8 23.4 M26.7 29.5 L27.1 29.15 Q30.05 27.25 33.15 26.85 33.5 26.9 33.85 27.25 L32.85 28.65 Q31.55 29.95 29.9 30.45 27.9 31.0 26.7 29.5 M29.8 27.05 L30.7 26.3 30.75 26.25 30.85 26.15 31.2 25.25 31.25 24.9 Q31.55 25.15 31.6 26.15 L31.55 26.2 31.4 26.35 31.0 26.75 29.8 27.05"/><path fill="#4f574a" stroke="none" d="M33.35 26.6 L33.45 26.65 33.85 27.2 34.05 27.45 33.85 27.25 Q33.5 26.9 33.15 26.85 30.05 27.25 27.1 29.15 L26.7 29.5 26.5 29.75 Q26.35 30.9 27.35 32.7 L28.25 33.7 28.2 33.7 27.7 33.65 Q26.45 31.55 26.25 30.4 L26.15 29.95 25.95 29.65 26.25 29.6 26.65 29.3 27.15 28.85 Q28.8 27.7 31.25 27.05 L33.35 26.6"/><path fill="#292e27" stroke="none" d="M34.05 27.45 L34.9 29.65 Q35.0 30.2 34.6 30.55 31.35 31.8 29.9 32.75 L28.25 33.7 27.35 32.7 Q26.35 30.9 26.5 29.75 L26.7 29.5 Q27.9 31.0 29.9 30.45 31.55 29.95 32.85 28.65 L33.85 27.25 34.05 27.45"/><path fill="#1e201c" stroke="none" d="M27.7 33.65 L27.55 33.6 Q25.7 32.05 25.65 29.45 L25.95 29.65 26.15 29.95 26.25 30.4 Q26.45 31.55 27.7 33.65 M27.3 28.25 L26.9 28.6 26.6 28.75 26.6 28.8 26.55 28.8 26.35 28.6 26.3 28.6 26.25 28.55 25.85 28.3 26.3 28.35 26.45 28.35 26.5 28.35 27.1 28.3 27.3 28.25 M31.6 26.15 L31.65 26.6 31.0 26.75 31.4 26.35 31.55 26.2 31.6 26.15"/><path fill="none" stroke="#000000" stroke-width="0.5" stroke-opacity="0.301960784314" d="M27.1 23.65 L27.4 23.55 30.1 23.65 31.25 24.5 31.55 25.2 31.75 26.0 31.75 26.2 31.8 26.6 32.7 26.45 33.35 26.6 33.45 26.65 33.85 27.2 34.05 27.45 34.9 29.65 Q35.0 30.2 34.6 30.55 31.35 31.8 29.9 32.75 L28.25 33.7 28.2 33.7 27.7 33.65 27.55 33.6 Q25.7 32.05 25.65 29.45 L26.25 29.0 26.15 28.65 26.05 28.6 25.4 28.2 Q24.85 27.75 24.65 27.05 L24.65 27.0 Q24.4 26.0 25.1 25.05 L25.2 24.95 25.3 24.85 25.85 24.1 26.65 23.25 26.8 23.4 27.1 23.65 26.65 23.9 M28.0 27.85 L27.3 28.25 26.9 28.6 26.6 28.75 M26.6 28.8 L26.55 28.8 26.25 29.0 M31.65 26.6 L31.8 26.6 M31.65 26.6 L31.0 26.75 29.8 27.05"/><path fill="#4a5346" stroke="none" d="M29.95 25.7 Q29.4 26.05 28.65 26.05 L27.3 25.7 Q26.75 25.3 26.75 24.75 26.75 24.25 27.3 23.85 27.85 23.45 28.65 23.45 29.4 23.45 29.95 23.85 30.5 24.25 30.5 24.75 30.5 25.3 29.95 25.7"/><path fill="#990000" stroke="none" d="M30.1 24.5 L28.55 24.9 Q29.1 25.8 29.2 26.85 L28.4 25.05 Q27.4 25.4 26.7 25.9 27.3 25.15 28.25 24.8 L27.35 23.6 28.45 24.7 30.1 24.5"/><path fill="#ca0202" stroke="none" d="M28.35 24.85 L29.5 24.65 28.45 25.0 28.95 26.3 28.3 25.05 27.1 25.6 28.25 24.9 27.65 24.05 28.35 24.85"/></g><g id="c15"><g><use transform="matrix(1.0,0.0,0.0,1.0,0.0,0.0)" xlink:href="#c5"/></g></g><g id="c16"><path fill="#ffcc00" stroke="none" d="M102.15 23.45 L106.5 22.65 108.75 22.25 Q125.5 19.15 143.15 14.95 L128.7 19.45 102.15 25.1 102.15 23.45 M0.85 38.5 Q1.55 37.15 2.9 35.5 L3.95 34.2 Q8.55 30.3 13.15 30.6 L18.1 30.7 20.75 30.75 52.6 29.6 54.85 32.3 54.45 32.35 51.15 32.7 Q30.55 34.9 14.65 34.8 6.55 33.65 0.85 38.5 M63.9 28.65 L67.05 28.3 77.25 27.15 87.9 25.7 88.3 27.55 67.25 30.75 67.15 30.7 63.9 28.65"/><path fill="#241206" stroke="none" d="M102.15 26.75 L100.7 27.1 89.6 29.75 88.8 29.9 88.3 27.55 102.15 25.1 102.15 26.75"/><path fill="#ff9900" stroke="none" d="M102.15 25.1 L128.7 19.45 109.55 24.9 106.7 25.6 102.15 26.75 102.15 25.1 M88.8 29.9 L77.5 32.35 70.9 33.7 67.15 30.7 67.25 30.75 88.3 27.55 88.8 29.9 M60.25 35.65 Q30.55 40.8 0.65 42.8 -0.7 41.35 0.85 38.5 6.55 33.65 14.65 34.8 30.55 34.9 51.15 32.7 L54.45 32.35 60.25 35.65"/><path fill="#41210c" stroke="none" d="M102.15 23.45 L102.15 25.1 88.3 27.55 87.9 25.7 89.55 25.45 100.3 23.75 102.15 23.45"/><path fill="#1e201c" stroke="none" d="M43.75 2.25 Q44.75 3.5 45.75 5.55 38.4 10.55 31.45 16.95 24.6 23.2 18.1 30.7 L13.15 30.6 12.1 30.35 Q20.5 21.15 29.15 13.65 36.35 7.35 43.75 2.25"/><path fill="#333333" stroke="none" d="M3.95 34.2 Q5.9 31.7 8.0 29.4 L9.85 30.35 Q19.1 20.05 28.1 12.2 35.3 5.95 42.5 0.95 L43.75 2.25 Q36.35 7.35 29.15 13.65 20.5 21.15 12.1 30.35 L13.15 30.6 Q8.55 30.3 3.95 34.2 M45.75 5.55 L46.65 7.55 Q38.8 12.45 32.35 18.25 25.85 24.05 20.75 30.75 L18.1 30.7 Q24.6 23.2 31.45 16.95 38.4 10.55 45.75 5.55"/><path fill="#3e453a" stroke="none" d="M8.0 29.4 Q16.85 19.2 26.95 10.55 33.5 4.95 40.6 0.0 41.55 0.15 42.5 0.95 35.3 5.95 28.1 12.2 19.1 20.05 9.85 30.35 L8.0 29.4"/><path fill="#824217" stroke="none" d="M70.9 33.7 L60.25 35.65 54.45 32.35 54.85 32.3 52.6 29.6 63.9 28.65 67.15 30.7 70.9 33.7"/><path fill="none" stroke="#000000" stroke-width="1.5" stroke-opacity="0.301960784314" d="M128.7 19.45 L143.15 14.95 Q125.5 19.15 108.75 22.25 L106.5 22.65 102.15 23.45 M128.7 19.45 L109.55 24.9 106.7 25.6 102.15 26.75 100.7 27.1 89.6 29.75 88.8 29.9 77.5 32.35 70.9 33.7 60.25 35.65 Q30.55 40.8 0.65 42.8 -0.7 41.35 0.85 38.5 1.55 37.15 2.9 35.5 L3.95 34.2 Q5.9 31.7 8.0 29.4 16.85 19.2 26.95 10.55 33.5 4.95 40.6 0.0 M46.65 7.55 Q38.8 12.45 32.35 18.25 25.85 24.05 20.75 30.75 L52.6 29.6 63.9 28.65 67.05 28.3 77.25 27.15 87.9 25.7 89.55 25.45 100.3 23.75 102.15 23.45 M13.15 30.6 L18.1 30.7 20.75 30.75"/></g><g id="c17"><g><use transform="matrix(1.0,0.0,0.0,1.0,0.0,0.0)" xlink:href="#c16"/></g></g><g id="c18"><path fill="#ff9900" stroke="none" d="M34.8 34.05 Q37.1 28.05 37.1 23.7 L37.3 23.15 37.7 23.05 37.4 22.85 38.0 22.95 Q37.95 27.55 36.45 31.65 L35.75 33.35 35.35 34.2 35.2 34.15 35.0 34.05 34.95 34.05 34.8 34.05 M34.5 35.8 L33.15 37.8 33.45 37.25 34.2 35.6 34.3 35.6 34.4 35.7 34.45 35.75 34.5 35.8"/><path fill="#ffcc00" stroke="none" d="M37.05 23.15 L37.25 22.95 37.35 22.9 37.4 22.85 37.7 23.05 37.3 23.15 37.1 23.7 Q37.1 28.05 34.8 34.05 L34.65 34.0 35.0 32.95 35.6 31.2 Q36.55 27.9 36.7 25.15 L36.75 24.2 Q36.7 23.6 37.0 23.25 L37.05 23.15 M33.15 37.8 L32.9 38.1 34.05 35.55 34.2 35.6 33.45 37.25 33.15 37.8"/><path fill="#241206" stroke="none" d="M34.8 34.05 L34.95 34.05 35.0 34.05 35.2 34.15 34.95 34.75 34.4 35.7 34.3 35.6 34.2 35.6 34.6 34.55 34.8 34.05"/><path fill="#41210c" stroke="none" d="M34.65 34.0 L34.8 34.05 34.6 34.55 34.2 35.6 34.05 35.55 34.4 34.6 34.5 34.45 34.65 34.0 M35.35 34.2 L35.0 34.8 34.95 34.95 34.5 35.8 34.45 35.75 34.4 35.7 34.95 34.75 35.2 34.15 35.35 34.2"/><path fill="none" stroke="#000000" stroke-width="0.5" stroke-opacity="0.301960784314" d="M37.35 22.9 L37.25 22.95 37.05 23.15 M36.75 24.2 L36.7 25.15 Q36.55 27.9 35.6 31.2 L35.0 32.95 34.65 34.0 M37.4 22.85 L38.0 22.95 Q37.95 27.55 36.45 31.65 L35.75 33.35 35.35 34.2 35.0 34.8 34.95 34.95 34.5 35.8 33.15 37.8 32.9 38.1 34.05 35.55 34.4 34.6 34.5 34.45 34.65 34.0"/></g><g id="c19"><path fill="#241206" stroke="none" d="M122.6 23.9 L122.05 21.55 122.0 21.3 121.6 20.75 136.6 15.6 137.1 17.25 137.15 17.7 136.55 18.0 127.2 22.05 122.6 23.9"/><path fill="#ff9900" stroke="none" d="M122.6 23.9 L122.4 24.0 120.3 24.85 Q110.85 28.55 101.55 31.65 76.5 40.0 52.4 44.0 L42.25 38.4 Q69.4 35.45 94.75 28.55 108.15 25.4 121.6 20.75 L122.0 21.3 122.05 21.55 122.6 23.9 M44.85 45.15 Q22.85 48.15 1.65 47.5 0.5 45.95 0.15 44.6 8.2 39.5 22.95 39.95 L32.45 39.35 44.85 45.15 M160.45 6.5 Q150.2 11.75 140.15 16.35 L139.9 16.5 137.15 17.7 137.1 17.25 136.6 15.6 160.45 6.5"/><path fill="#ffcc00" stroke="none" d="M121.6 20.75 Q108.15 25.4 94.75 28.55 69.4 35.45 42.25 38.4 L38.1 35.6 47.75 34.45 74.85 30.5 Q87.75 28.35 101.75 24.85 111.25 22.45 120.95 19.35 L121.6 20.75 M0.15 44.6 Q-0.2 43.25 0.25 42.1 2.95 40.45 5.55 39.35 8.25 38.15 10.9 37.65 L11.9 37.5 14.4 37.25 18.65 37.1 22.0 37.0 27.65 36.55 32.45 39.35 22.95 39.95 Q8.2 39.5 0.15 44.6 M135.8 14.2 L158.4 5.9 172.65 0.0 160.45 6.5 136.6 15.6 135.8 14.2"/><path fill="#41210c" stroke="none" d="M120.95 19.35 L130.1 16.25 135.8 14.2 136.6 15.6 121.6 20.75 120.95 19.35"/><path fill="#824217" stroke="none" d="M42.25 38.4 L52.4 44.0 44.85 45.15 32.45 39.35 27.65 36.55 38.1 35.6 42.25 38.4"/><path fill="#2d332b" stroke="none" d="M43.1 9.3 L44.0 10.65 Q35.8 15.95 27.85 22.45 19.25 29.4 10.9 37.65 8.25 38.15 5.55 39.35 15.65 29.55 26.8 20.95 34.7 14.8 43.1 9.3 M45.45 15.25 L45.65 17.0 Q37.9 22.35 31.6 27.75 26.25 32.35 22.0 37.0 L18.65 37.1 Q23.4 31.65 30.35 26.0 36.9 20.7 45.45 15.25"/><path fill="#1e201c" stroke="none" d="M44.0 10.65 Q44.95 12.45 45.45 15.25 36.9 20.7 30.35 26.0 23.4 31.65 18.65 37.1 L14.4 37.25 11.9 37.5 10.9 37.65 Q19.25 29.4 27.85 22.45 35.8 15.95 44.0 10.65"/><path fill="#3e453a" stroke="none" d="M0.25 42.1 Q0.5 41.3 1.15 40.6 12.55 28.2 25.25 18.75 33.2 12.8 41.65 8.0 L43.1 9.3 Q34.7 14.8 26.8 20.95 15.65 29.55 5.55 39.35 2.95 40.45 0.25 42.1"/><path fill="none" stroke="#000000" stroke-width="1.5" stroke-opacity="0.301960784314" d="M52.4 44.0 Q76.5 40.0 101.55 31.65 110.85 28.55 120.3 24.85 L122.4 24.0 122.6 23.9 M52.4 44.0 L44.85 45.15 Q22.85 48.15 1.65 47.5 0.5 45.95 0.15 44.6 -0.2 43.25 0.25 42.1 0.5 41.3 1.15 40.6 12.55 28.2 25.25 18.75 33.2 12.8 41.65 8.0 M45.65 17.0 Q37.9 22.35 31.6 27.75 26.25 32.35 22.0 37.0 L27.65 36.55 38.1 35.6 47.75 34.45 74.85 30.5 Q87.75 28.35 101.75 24.85 111.25 22.45 120.95 19.35 L130.1 16.25 135.8 14.2 158.4 5.9 172.65 0.0 160.45 6.5 Q150.2 11.75 140.15 16.35 M139.9 16.5 L137.15 17.7 136.55 18.0 127.2 22.05 122.6 23.9 M18.65 37.1 L14.4 37.25 11.9 37.5 M22.0 37.0 L18.65 37.1"/></g><g id="c20"><g><use transform="matrix(1.0,0.0,0.0,1.0,0.0,0.0)" xlink:href="#c19"/></g></g><g id="c21"><path fill="#ff9900" stroke="none" d="M18.8 30.8 Q19.7 30.5 21.05 31.3 24.55 33.55 28.6 35.2 L31.45 36.15 31.4 36.25 31.25 36.5 31.2 36.7 29.25 36.15 28.9 36.05 Q23.4 34.25 18.75 31.05 L18.8 30.8 M36.05 37.7 L32.9 37.1 32.85 37.1 32.95 36.9 33.05 36.7 36.05 37.7"/><path fill="#ffcc00" stroke="none" d="M31.45 36.15 L28.6 35.2 Q24.55 33.55 21.05 31.3 19.7 30.5 18.8 30.8 18.95 30.55 19.4 30.45 L20.05 30.6 20.5 30.75 20.95 31.0 21.35 31.25 21.75 31.5 Q25.15 33.55 29.3 35.2 L29.75 35.4 31.55 36.05 31.45 36.15 M33.05 36.7 L33.15 36.6 37.35 37.85 36.05 37.7 33.05 36.7"/><path fill="#2d332b" stroke="none" d="M21.75 31.5 L21.35 31.25 26.25 30.7 26.25 30.9 21.75 31.5 M20.5 30.75 L20.05 30.6 25.95 29.8 26.1 30.05 20.5 30.75"/><path fill="#1e201c" stroke="none" d="M21.35 31.25 L20.95 31.0 20.5 30.75 26.1 30.05 26.25 30.7 21.35 31.25"/><path fill="#3e453a" stroke="none" d="M20.05 30.6 L19.4 30.45 24.0 29.9 25.9 29.65 25.95 29.8 20.05 30.6"/><path fill="#41210c" stroke="none" d="M31.45 36.15 L31.55 36.05 32.05 36.25 33.15 36.6 33.05 36.7 31.45 36.15"/><path fill="#241206" stroke="none" d="M31.2 36.7 L31.25 36.5 31.4 36.25 31.45 36.15 33.05 36.7 32.95 36.9 32.85 37.1 31.75 36.85 31.2 36.7"/><path fill="none" stroke="#000000" stroke-width="0.5" stroke-opacity="0.301960784314" d="M31.55 36.05 L29.75 35.4 29.3 35.2 Q25.15 33.55 21.75 31.5 L21.35 31.25 20.95 31.0 M19.4 30.45 Q18.95 30.55 18.8 30.8 L18.75 31.05 Q23.4 34.25 28.9 36.05 L29.25 36.15 31.2 36.7 M33.15 36.6 L32.05 36.25 31.55 36.05 M26.25 30.9 L21.75 31.5 M19.4 30.45 L24.0 29.9 25.9 29.65 M36.05 37.7 L32.9 37.1 32.85 37.1 31.75 36.85 31.2 36.7 M36.05 37.7 L37.35 37.85 33.15 36.6"/></g><g id="c22"><path fill="#f4a33c" stroke="none" d="M1.25 1.25 Q2.5 0.0 4.3 0.0 6.1 0.0 7.35 1.25 8.6 2.5 8.6 4.3 8.6 6.1 7.35 7.35 6.1 8.6 4.3 8.6 2.5 8.6 1.25 7.35 0.0 6.1 0.0 4.3 0.0 2.5 1.25 1.25"/></g><g id="c23"><g><use transform="matrix(1.0,0.0,0.0,1.0,0.0,0.0)" xlink:href="#c22"/></g></g><filter id="filter17"><feColorMatrix in="SourceGraphic" type="matrix" values="0.6015625 0.0 0.0 0.0 0.0 0.0 0.6015625 0.0 0.0 0.0 0.0 0.0 0.6015625 0.0 0.0 0.0 0.0 0.0 1.0 0.0" result="cxform"/><feComposite operator="in" in2="SourceGraphic" result="color-xform"/></filter><filter id="filter18"><feColorMatrix in="SourceGraphic" type="matrix" values="0.8203125 0.0 0.0 0.0 0.0 0.0 0.8203125 0.0 0.0 0.0 0.0 0.0 0.8203125 0.0 0.0 0.0 0.0 0.0 1.0 0.0" result="cxform"/><feComposite operator="in" in2="SourceGraphic" result="color-xform"/></filter><filter id="filter20"><feColorMatrix in="SourceGraphic" type="matrix" values="1.0 0.0 0.0 0.0 0.0 0.0 1.0 0.0 0.0 0.0 0.0 0.0 1.0 0.0 0.0 0.0 0.0 0.0 0.21875 0.0" result="cxform"/><feComposite operator="in" in2="SourceGraphic" result="color-xform"/></filter><filter id="filter21"><feColorMatrix in="SourceGraphic" type="matrix" values="1.0 0.0 0.0 0.0 0.0 0.0 1.0 0.0 0.0 0.0 0.0 0.0 1.0 0.0 0.0 0.0 0.0 0.0 0.03125 0.0" result="cxform"/><feComposite operator="in" in2="SourceGraphic" result="color-xform"/></filter><filter id="filter22"><feColorMatrix in="SourceGraphic" type="matrix" values="0.6015625 0.0 0.0 0.0 0.0 0.0 0.6015625 0.0 0.0 0.0 0.0 0.0 0.6015625 0.0 0.0 0.0 0.0 0.0 1.0 0.0" result="cxform"/><feComposite operator="in" in2="SourceGraphic" result="color-xform"/></filter><filter id="filter24"><feColorMatrix in="SourceGraphic" type="matrix" values="0.8203125 0.0 0.0 0.0 0.0 0.0 0.8203125 0.0 0.0 0.0 0.0 0.0 0.8203125 0.0 0.0 0.0 0.0 0.0 1.0 0.0" result="cxform"/><feComposite operator="in" in2="SourceGraphic" result="color-xform"/></filter><filter id="filter26"><feColorMatrix in="SourceGraphic" type="matrix" values="1.0 0.0 0.0 0.0 0.0 0.0 1.0 0.0 0.0 0.0 0.0 0.0 1.0 0.0 0.0 0.0 0.0 0.0 0.26171875 0.0" result="cxform"/><feComposite operator="in" in2="SourceGraphic" result="color-xform"/></filter><filter id="filter27"><feColorMatrix in="SourceGraphic" type="matrix" values="1.0 0.0 0.0 0.0 0.0 0.0 1.0 0.0 0.0 0.0 0.0 0.0 1.0 0.0 0.0 0.0 0.0 0.0 0.26171875 0.0" result="cxform"/><feComposite operator="in" in2="SourceGraphic" result="color-xform"/></filter><filter id="filter28"><feColorMatrix in="SourceGraphic" type="matrix" values="1.0 0.0 0.0 0.0 0.0 0.0 1.0 0.0 0.0 0.0 0.0 0.0 1.0 0.0 0.0 0.0 0.0 0.0 0.26171875 0.0" result="cxform"/><feComposite operator="in" in2="SourceGraphic" result="color-xform"/></filter><filter id="filter29"><feColorMatrix in="SourceGraphic" type="matrix" values="1.0 0.0 0.0 0.0 0.0 0.0 1.0 0.0 0.0 0.0 0.0 0.0 1.0 0.0 0.0 0.0 0.0 0.0 0.26171875 0.0" result="cxform"/><feComposite operator="in" in2="SourceGraphic" result="color-xform"/></filter><filter id="filter30"><feColorMatrix in="SourceGraphic" type="matrix" values="1.0 0.0 0.0 0.0 0.0 0.0 1.0 0.0 0.0 0.0 0.0 0.0 1.0 0.0 0.0 0.0 0.0 0.0 0.26171875 0.0" result="cxform"/><feComposite operator="in" in2="SourceGraphic" result="color-xform"/></filter><filter id="filter31"><feColorMatrix in="SourceGraphic" type="matrix" values="1.0 0.0 0.0 0.0 0.0 0.0 1.0 0.0 0.0 0.0 0.0 0.0 1.0 0.0 0.0 0.0 0.0 0.0 0.26171875 0.0" result="cxform"/><feComposite operator="in" in2="SourceGraphic" result="color-xform"/></filter><filter id="filter32"><feColorMatrix in="SourceGraphic" type="matrix" values="0.0 0.0 0.0 0.0 0.99609375 0.0 0.0 0.0 0.0 0.99609375 0.0 0.0 0.0 0.0 0.99609375 0.0 0.0 0.0 0.2890625 0.0" result="cxform"/><feComposite operator="in" in2="SourceGraphic" result="color-xform"/></filter><filter id="filter33"><feColorMatrix in="SourceGraphic" type="matrix" values="1.0 0.0 0.0 0.0 0.0 0.0 1.0 0.0 0.0 0.0 0.0 0.0 1.0 0.0 0.0 0.0 0.0 0.0 0.23046875 0.0" result="cxform"/><feComposite operator="in" in2="SourceGraphic" result="color-xform"/></filter></defs><g><g><use transform="matrix(1.0,0.0,0.0,1.0,0.0,0.0)" xlink:href="#c1"/></g><g><use transform="matrix(1.15496826172,0.0,0.0,1.15496826172,5.85,4.8)" xlink:href="#c9"/></g><g><use transform="matrix(0.121826171875,0.0,0.0,0.121948242188,33.6,27.7)" filter="url(#filter17)" xlink:href="#c11"/></g><g><use transform="matrix(0.121826171875,0.0,0.0,0.121948242188,33.9,24.15)" filter="url(#filter18)" xlink:href="#c13"/></g><g><use transform="matrix(1.0,0.0,0.0,1.0,0.0,0.0)" xlink:href="#c14"/></g><g><use transform="matrix(0.041748046875,0.0,0.0,0.0275268554688,28.15,25.35)" filter="url(#filter20)" xlink:href="#c15"/></g><g><use transform="matrix(0.038330078125,-0.0165100097656,0.0108337402344,0.0252685546875,30.2,29.7)" filter="url(#filter21)" xlink:href="#c15"/></g><g><use transform="matrix(0.121826171875,0.0,0.0,0.121948242188,21.45,32.25)" filter="url(#filter22)" xlink:href="#c17"/></g><g><use transform="matrix(1.0,0.0,0.0,1.0,0.0,0.0)" xlink:href="#c18"/></g><g><use transform="matrix(0.121826171875,0.0,0.0,0.121948242188,20.9,29.95)" filter="url(#filter24)" xlink:href="#c20"/></g><g><use transform="matrix(1.0,0.0,0.0,1.0,0.0,0.0)" xlink:href="#c21"/></g><g><use transform="matrix(0.0671844482422,-0.0179901123047,0.01171875,0.0437927246094,38.95,24.45)" filter="url(#filter26)" xlink:href="#c23"/></g><g><use transform="matrix(0.0671844482422,-0.0179901123047,0.01171875,0.0437927246094,37.05,22.95)" filter="url(#filter27)" xlink:href="#c23"/></g><g><use transform="matrix(0.0695648193359,0.0,0.0,0.0453491210938,41.15,27.9)" filter="url(#filter28)" xlink:href="#c23"/></g><g><use transform="matrix(0.0695648193359,0.0,0.0,0.0453491210938,18.9,30.55)" filter="url(#filter29)" xlink:href="#c23"/></g><g><use transform="matrix(0.0671844482422,-0.0179901123047,0.01171875,0.0437927246094,21.1,35.05)" filter="url(#filter30)" xlink:href="#c23"/></g><g><use transform="matrix(0.0347747802734,-0.060302734375,0.0392303466797,0.0226745605469,21.55,37.2)" filter="url(#filter31)" xlink:href="#c23"/></g><g><use transform="matrix(0.0671844482422,0.0180053710938,-0.0089111328125,0.0333404541016,28.6,23.55)" filter="url(#filter32)" xlink:href="#c23"/></g><g><use transform="matrix(0.162948608398,-0.0436706542969,0.128631591797,0.260604858398,30.0,28.7)" filter="url(#filter33)" xlink:href="#c6"/></g></g></svg>