<?xml version='1.0' encoding='UTF-8'?>
<svg xmlns:xlink="http://www.w3.org/1999/xlink" xmlns="http://www.w3.org/2000/svg" version="1.1" width="60px" height="60px" viewBox="0.0 0.0 60.0 60.0"><defs><g id="c1"><path fill="#000000" fill-opacity="0.00392156862745" d="M0.0 0.0 L60.0 0.0 60.0 60.0 0.0 60.0 0.0 0.0"/></g><g id="c2"><path fill="none" stroke="#000000" stroke-width="1.0" stroke-opacity="0.301960784314" d="M0.7 12.25 Q-0.45 9.75 0.75 8.25 1.2 7.6 2.15 7.15 2.8 6.7 3.8 6.35 L17.5 1.95 30.2 7.0 41.35 31.7 Q42.95 35.15 40.2 36.7 39.5 37.3 38.3 37.65 L25.5 41.8 25.45 41.75 24.55 42.0 11.85 37.0 0.7 12.25"/><path fill="#9d147b" stroke="none" d="M35.55 22.3 L31.5 13.2 29.75 9.2 16.95 4.25 5.5 7.85 Q1.65 9.1 3.35 12.8 L8.25 23.65 13.1 34.35 25.8 39.4 37.2 35.7 Q41.1 34.5 39.35 30.75 L35.55 22.3 M2.15 7.15 Q2.8 6.7 3.8 6.35 L17.5 1.95 30.2 7.0 41.35 31.7 Q42.95 35.15 40.2 36.7 L38.9 37.25 25.2 41.65 12.5 36.65 5.45 20.95 1.35 11.8 Q0.4 9.65 1.1 8.3 1.45 7.65 2.15 7.15"/><path fill="#c47fad" stroke="none" d="M31.5 13.2 L35.55 22.3 39.35 30.75 Q41.1 34.5 37.2 35.7 L25.8 39.4 13.1 34.35 8.25 23.65 3.35 12.8 Q1.65 9.1 5.5 7.85 L16.95 4.25 29.75 9.2 31.5 13.2 M18.5 7.45 L9.1 10.55 9.55 11.6 Q9.8 12.8 9.15 13.6 8.4 14.45 7.1 14.4 L6.8 14.4 6.95 14.6 15.2 32.75 23.85 36.2 34.0 32.9 33.7 32.1 Q33.45 30.9 34.1 30.1 34.75 29.3 35.95 29.35 L35.8 29.0 27.75 10.95 18.5 7.45"/><path fill="#fcf2cf" stroke="none" d="M27.75 10.95 L35.8 29.0 35.95 29.35 Q34.75 29.3 34.1 30.1 33.45 30.9 33.7 32.1 L34.0 32.9 23.85 36.2 15.2 32.75 6.95 14.6 6.8 14.4 7.1 14.4 Q8.4 14.45 9.15 13.6 9.8 12.8 9.55 11.6 L9.1 10.55 18.5 7.45 27.75 10.95"/><path fill="#630a4c" stroke="none" d="M0.75 8.25 Q1.2 7.6 2.15 7.15 1.45 7.65 1.1 8.3 L0.75 8.25 M11.55 36.25 L11.25 35.55 4.6 20.9 5.45 20.95 12.5 36.65 11.55 36.25"/><path fill="#300525" stroke="none" d="M4.6 20.9 L0.7 12.25 Q-0.45 9.75 0.75 8.25 L1.1 8.3 Q0.4 9.65 1.35 11.8 L5.45 20.95 4.6 20.9 M40.2 36.7 Q39.5 37.3 38.3 37.65 L25.5 41.8 25.45 41.75 24.55 42.0 11.85 37.0 11.55 36.25 12.5 36.65 25.2 41.65 38.9 37.25 40.2 36.7"/><path fill="none" stroke="#bf9900" stroke-width="1.0" stroke-opacity="0.749019607843" d="M31.5 13.2 L35.55 22.3 M13.1 34.35 L8.25 23.65"/><path fill="none" stroke="#ffcc00" stroke-width="1.0" stroke-opacity="0.749019607843" d="M35.55 22.3 L39.35 30.75 Q41.1 34.5 37.2 35.7 L25.8 39.4 M8.25 23.65 L3.35 12.8 Q1.65 9.1 5.5 7.85 L16.95 4.25 29.75 9.2 31.5 13.2"/><path fill="none" stroke="#f0b92b" stroke-width="0.5" d="M27.75 10.95 L35.8 29.0 35.95 29.35 Q34.75 29.3 34.1 30.1 33.45 30.9 33.7 32.1 L34.0 32.9 23.85 36.2 15.2 32.75 6.95 14.6 6.8 14.4 7.1 14.4 Q8.4 14.45 9.15 13.6 9.8 12.8 9.55 11.6 L9.1 10.55 18.5 7.45"/><path fill="none" stroke="#000000" stroke-width="0.5" stroke-opacity="0.301960784314" d="M4.6 20.9 L0.7 12.25 Q-0.45 9.75 0.75 8.25 1.2 7.6 2.15 7.15 2.8 6.7 3.8 6.35 L17.5 1.95 M30.2 7.0 L41.35 31.7 Q42.95 35.15 40.2 36.7 39.5 37.3 38.3 37.65 L25.5 41.8 M11.25 35.55 L4.6 20.9 M5.45 20.95 L1.35 11.8 Q0.4 9.65 1.1 8.3 1.45 7.65 2.15 7.15 M12.5 36.65 L5.45 20.95 M40.2 36.7 L38.9 37.25 25.2 41.65"/><path fill="none" stroke="#ffcc00" stroke-width="0.5" stroke-opacity="0.749019607843" d="M18.5 7.45 L27.75 10.95"/><path fill="none" stroke="#f0b92b" stroke-width="1.0" stroke-opacity="0.749019607843" d="M25.8 39.4 L13.1 34.35"/><path fill="none" stroke="#432f2f" stroke-width="0.5" d="M25.2 41.65 L12.5 36.65"/></g><g id="c3"><path fill="#7fdbfe" stroke="none" d="M10.75 4.9 Q10.75 4.6 10.9 4.35 11.25 3.45 11.95 2.75 13.3 1.5 14.35 2.1 15.4 2.7 14.95 4.45 14.7 5.4 14.1 6.15 L13.75 6.5 Q13.1 7.15 12.35 7.35 L11.4 7.2 Q10.95 6.9 10.75 6.4 10.5 5.75 10.75 4.9 M7.5 5.9 Q7.0 5.85 6.6 5.5 6.05 5.0 5.8 4.15 L5.7 3.6 Q5.55 2.65 5.8 1.7 6.25 0.0 7.5 0.0 L7.6 0.0 Q8.85 0.0 9.3 1.7 9.55 2.65 9.4 3.6 L9.3 4.15 8.5 5.5 7.6 5.9 7.5 5.9 M4.35 4.9 Q4.6 5.75 4.35 6.4 L3.7 7.2 2.75 7.35 Q2.0 7.15 1.35 6.5 L1.0 6.15 Q0.4 5.4 0.15 4.45 -0.3 2.7 0.75 2.1 1.8 1.5 3.15 2.75 3.85 3.45 4.2 4.35 L4.35 4.9 M5.5 13.7 Q4.45 13.9 3.65 12.95 2.75 12.0 3.2 10.25 3.7 8.5 5.25 7.6 6.4 6.9 7.55 7.0 8.75 6.9 9.9 7.6 11.45 8.5 11.95 10.25 12.35 12.0 11.5 12.95 10.7 13.9 9.65 13.7 8.55 13.5 7.55 12.6 6.55 13.5 5.5 13.7"/></g><g id="c4"><g><use transform="matrix(1.0,0.0,0.0,1.0,0.0,0.0)" xlink:href="#c3"/></g></g><radialGradient gradientUnits="userSpaceOnUse" r="819.2" cx="0" cy="0" spreadMethod="pad" gradientTransform="matrix(0.0914459228516,0.0,0.0,0.0914459228516,0.6,3.4)" id="gradient1"><stop offset="0.0" stop-color="#ffffff"/><stop offset="1.0" stop-color="#ffffff" stop-opacity="0.0"/></radialGradient><g id="c5"><path stroke="none" fill="url(#gradient1)" d="M36.65 -54.65 Q60.05 -42.0 69.75 -17.95 80.55 8.9 68.0 34.1 55.45 59.35 26.8 68.2 -1.8 77.05 -29.7 64.3 -57.6 51.6 -68.45 24.75 -79.3 -2.05 -66.75 -27.25 L-66.7 -27.3 Q-54.1 -52.5 -25.5 -61.4 3.1 -70.2 31.0 -57.5 L36.65 -54.65"/></g><g id="c6"><g><use transform="matrix(1.0,0.0,0.0,1.0,0.0,0.0)" xlink:href="#c5"/></g></g><radialGradient gradientUnits="userSpaceOnUse" r="819.2" cx="0" cy="0" spreadMethod="pad" gradientTransform="matrix(0.209197998047,0.0,0.0,0.177108764648,67.15,107.2)" id="gradient2"><stop offset="0.356862745098" stop-color="#ffffff"/><stop offset="0.670588235294" stop-opacity="0.0"/></radialGradient><g id="c7"><path fill="none" stroke-linejoin="round" stroke-linecap="round" stroke="url(#gradient2)" stroke-width="0.5" d="M136.55 165.8 L68.6 106.0 68.4 106.0 118.25 201.5 M68.3 105.8 L68.35 105.8 68.3 105.8 68.3 105.85 68.4 106.0 68.3 106.0 86.55 211.5 M68.3 105.8 L68.3 105.85 68.3 106.0 68.15 105.95 18.25 151.55 M68.3 105.85 L68.25 105.85 68.3 106.0 50.0 193.2 M68.25 105.85 L68.15 105.95 0.05 97.7 M68.3 105.85 L68.25 105.8 68.25 105.85 M68.25 105.8 L68.2 105.7 0.0 45.7 M68.3 105.8 L68.25 105.75 68.25 105.8 M68.25 105.75 L68.2 105.7 18.25 10.05 M68.6 106.0 L68.35 105.8 118.25 60.15 M86.6 18.35 L68.3 105.8 M136.6 114.25 L68.6 106.0 M68.25 105.75 L49.95 0.05"/></g><g id="c8"><g><use transform="matrix(1.0,0.0,0.0,1.0,0.0,0.0)" xlink:href="#c7"/></g></g><g id="c9"><g><use transform="matrix(1.0,0.0,0.0,1.0,0.0,0.0)" xlink:href="#c2"/></g><g><use transform="matrix(0.238861083984,-0.0867004394531,0.10026550293,0.233917236328,34.25,31.15)" xlink:href="#c4"/></g><g><use transform="matrix(0.238861083984,-0.0867004394531,0.10026550293,0.233917236328,4.25,10.3)" xlink:href="#c4"/></g><g><use transform="matrix(0.141098022461,-0.0378112792969,0.111373901367,0.225646972656,20.25,20.65)" filter="url(#filter7)" xlink:href="#c6"/></g><g><use transform="matrix(-0.155029296875,0.0513153076172,0.0841827392578,0.147033691406,22.6,3.15)" filter="url(#filter8)" xlink:href="#c8"/></g></g><filter id="filter7"><feColorMatrix in="SourceGraphic" type="matrix" values="0.0 0.0 0.0 0.0 0.796875 0.0 0.0 0.0 0.0 0.59765625 0.0 0.0 0.0 0.0 0.19921875 0.0 0.0 0.0 1.0 0.0" result="cxform"/><feComposite operator="in" in2="SourceGraphic" result="color-xform"/></filter><filter id="filter8"><feColorMatrix in="SourceGraphic" type="matrix" values="0.0 0.0 0.0 0.0 0.99609375 0.0 0.0 0.0 0.0 0.99609375 0.0 0.0 0.0 0.0 0.99609375 0.0 0.0 0.0 1.0 0.0" result="cxform"/><feComposite operator="in" in2="SourceGraphic" result="color-xform"/></filter><g id="c10"><path fill="#e4c46c" stroke="none" d="M27.95 23.15 L31.0 23.25 Q33.2 23.55 35.15 24.7 L34.0 23.35 Q33.25 22.65 32.2 22.3 L28.65 22.2 Q29.4 21.75 30.25 21.5 L35.85 21.65 36.65 21.85 36.7 21.9 37.6 22.35 36.1 22.55 36.7 24.75 33.75 25.15 34.35 26.9 32.15 27.55 31.5 26.65 31.2 26.35 29.95 25.25 Q28.85 24.45 27.1 24.45 25.5 24.5 24.2 25.1 L25.45 24.1 25.65 23.95 Q26.65 23.25 27.95 23.15 M28.7 39.75 L25.15 39.1 Q23.7 38.6 22.35 36.35 24.95 38.95 26.9 38.15 L31.4 38.3 Q32.35 38.45 33.0 37.75 L32.2 39.25 28.7 39.75 M22.05 35.8 L21.15 33.9 Q22.85 33.5 23.0 35.1 23.15 36.25 22.05 35.8 M22.15 27.1 Q23.0 26.3 24.05 26.1 L27.75 26.2 Q29.9 26.65 31.7 27.7 L28.15 28.2 28.35 29.75 24.85 30.9 23.55 30.9 Q20.4 30.2 22.15 27.1 M24.8 36.0 Q25.95 36.1 26.35 36.6 L25.55 37.45 Q25.15 37.7 23.8 36.75 23.9 36.2 24.8 36.0"/><path fill="#cfa24d" stroke="none" d="M34.0 23.35 Q32.0 22.3 28.6 22.35 L28.65 22.2 32.2 22.3 Q33.25 22.65 34.0 23.35 M37.6 22.3 L37.75 22.3 Q38.8 22.8 39.7 23.55 L39.75 23.75 40.1 24.8 Q40.45 26.5 40.4 28.15 L40.0 30.55 39.55 29.55 Q40.3 25.8 39.2 24.35 38.45 24.4 37.65 25.15 L37.55 25.05 Q38.7 23.3 37.6 22.35 L37.6 22.3 M31.2 26.35 L29.0 25.55 24.2 25.1 Q25.5 24.5 27.1 24.45 28.85 24.45 29.95 25.25 L31.2 26.35 M32.65 29.85 Q31.4 30.85 31.7 31.65 31.85 32.0 31.5 32.1 L31.5 32.85 Q30.5 34.15 31.05 35.75 L29.85 33.5 Q30.15 32.5 27.3 31.4 L29.75 31.35 30.3 30.7 31.25 30.75 31.45 30.55 32.65 29.85"/><path fill="#947236" stroke="none" d="M27.95 23.15 L28.25 22.9 28.6 22.35 Q32.0 22.3 34.0 23.35 L35.15 24.7 Q33.2 23.55 31.0 23.25 L27.95 23.15 M38.65 33.15 L35.85 36.95 33.75 38.15 35.25 36.15 36.75 35.1 37.7 33.2 38.55 32.75 38.65 33.15 M24.05 26.1 Q24.3 25.75 24.2 25.1 L29.0 25.55 31.2 26.35 31.5 26.65 32.15 27.55 32.3 28.1 31.7 27.7 Q29.9 26.65 27.75 26.2 L24.05 26.1 M37.8 31.15 L37.1 31.05 36.55 31.15 36.55 30.6 36.65 30.5 36.75 30.45 36.9 30.45 36.8 29.35 Q37.5 26.75 38.1 28.3 38.8 30.5 37.8 31.15 M34.4 31.75 L35.0 31.85 35.1 32.1 35.15 32.25 35.05 32.35 34.2 32.4 34.2 31.9 34.3 31.85 34.4 31.75 M34.5 33.35 L34.35 33.45 34.25 33.6 33.95 33.75 33.9 33.75 33.75 33.5 33.7 33.35 33.7 33.25 33.9 33.1 34.45 33.1 34.5 33.2 34.5 33.35 M35.1 32.95 L35.25 33.05 35.25 33.1 35.35 33.3 34.75 33.5 34.8 33.4 34.9 33.25 34.95 33.1 34.95 33.05 35.05 32.95 35.1 32.95 M33.75 36.15 L33.8 36.15 33.95 36.35 33.95 36.95 33.8 37.0 33.75 37.0 33.7 37.05 33.4 37.0 33.2 37.0 33.45 36.2 33.5 36.15 33.65 36.1 33.75 36.15 M36.0 32.15 L36.05 32.0 36.0 31.9 36.2 31.8 36.75 31.75 36.85 31.9 36.8 32.05 36.75 32.15 36.6 32.3 36.3 32.4 36.25 32.4 36.05 32.2 36.0 32.15 M37.1 32.25 L37.1 32.15 37.2 31.95 37.25 31.7 37.4 31.7 37.65 31.75 37.65 32.0 37.1 32.25 M32.1 36.6 L32.2 36.55 32.5 36.45 32.65 36.6 32.5 37.15 32.3 37.25 32.2 37.2 32.05 37.15 31.9 36.9 31.9 36.85 32.05 36.65 32.1 36.6 M32.35 34.9 L33.0 35.45 32.8 35.7 32.8 35.75 32.85 35.75 32.9 36.0 32.8 36.05 32.35 36.15 32.25 36.15 32.35 36.05 32.1 35.3 32.35 34.9"/><path fill="#f0d077" stroke="none" d="M20.6 31.65 Q20.5 29.1 22.15 27.1 20.4 30.2 23.55 30.9 20.9 30.4 20.6 31.65 M32.15 27.55 L34.35 26.9 33.75 25.15 36.7 24.75 36.1 22.55 37.6 22.35 Q38.7 23.3 37.55 25.05 L36.85 25.9 35.0 27.65 33.35 29.2 32.65 29.85 31.45 30.55 31.25 30.75 30.3 30.7 29.75 31.35 27.3 31.4 26.9 31.25 26.85 31.25 26.7 31.2 24.85 30.9 28.35 29.75 28.15 28.2 31.7 27.7 32.3 28.1 32.15 27.55"/><path fill="#a09176" stroke="none" d="M36.7 21.9 L37.6 22.3 37.6 22.35 36.7 21.9 M37.55 25.05 L37.65 25.15 36.85 25.9 37.55 25.05"/><path fill="#b58c42" stroke="none" d="M37.65 25.15 Q38.45 24.4 39.2 24.35 40.3 25.8 39.55 29.55 38.5 31.4 37.7 32.0 L37.65 32.0 37.65 31.75 37.4 31.7 37.25 31.7 37.2 31.95 37.1 32.15 37.1 32.25 37.15 32.3 37.1 32.3 37.0 32.3 36.75 32.15 36.8 32.05 36.85 31.9 36.75 31.75 36.2 31.8 36.0 31.9 36.05 32.0 36.0 32.15 35.1 32.9 35.05 32.95 34.95 33.05 34.95 33.1 34.1 34.25 33.75 36.15 33.65 36.1 33.5 36.15 33.45 36.2 33.2 37.0 33.4 37.0 33.0 37.75 Q32.05 38.0 31.4 36.95 L31.1 35.95 31.05 35.75 Q30.5 34.15 31.5 32.85 L31.5 32.1 Q31.85 32.0 31.7 31.65 31.4 30.85 32.65 29.85 L33.35 29.2 35.0 27.65 36.85 25.9 37.65 25.15 M37.8 31.15 Q38.8 30.5 38.1 28.3 37.5 26.75 36.8 29.35 L36.9 30.45 36.75 30.45 36.65 30.5 36.55 30.6 36.55 31.15 37.1 31.05 37.8 31.15 M34.5 33.35 L34.5 33.2 34.45 33.1 33.9 33.1 33.7 33.25 33.7 33.35 33.75 33.5 33.9 33.75 33.95 33.75 34.25 33.6 34.35 33.45 34.5 33.35 M34.4 31.75 L34.3 31.85 34.2 31.9 34.2 32.4 35.05 32.35 35.15 32.25 35.1 32.1 35.0 31.85 34.4 31.75 M32.1 36.6 L32.05 36.65 31.9 36.85 31.9 36.9 32.05 37.15 32.2 37.2 32.3 37.25 32.5 37.15 32.65 36.6 32.5 36.45 32.2 36.55 32.1 36.6 M32.35 34.9 L32.1 35.3 32.35 36.05 32.25 36.15 32.35 36.15 32.8 36.05 32.9 36.0 32.85 35.75 32.8 35.75 32.8 35.7 33.0 35.45 32.35 34.9"/><path fill="#71684a" stroke="none" d="M35.05 32.95 L35.1 32.9 35.1 32.95 35.05 32.95"/><path fill="#a6803d" stroke="none" d="M40.0 30.55 L40.0 30.9 39.05 32.45 38.65 33.15 38.55 32.75 37.7 33.2 36.75 35.1 35.25 36.15 33.75 38.15 35.85 36.95 32.8 39.85 31.85 39.95 30.85 40.1 29.85 39.95 29.75 39.9 28.7 39.75 32.2 39.25 33.0 37.75 33.4 37.0 33.7 37.05 33.75 37.0 33.8 37.0 33.95 36.95 33.95 36.35 33.8 36.15 33.75 36.15 34.1 34.25 34.95 33.1 34.9 33.25 34.8 33.4 34.75 33.5 35.35 33.3 35.25 33.1 35.25 33.05 35.1 32.95 35.1 32.9 36.0 32.15 36.05 32.2 36.25 32.4 36.3 32.4 36.6 32.3 36.75 32.15 37.0 32.3 37.1 32.3 37.15 32.3 37.65 32.0 37.7 32.0 Q38.5 31.4 39.55 29.55 L40.0 30.55"/><path fill="#debc68" stroke="none" d="M22.35 36.35 L22.05 35.8 Q23.15 36.25 23.0 35.1 22.85 33.5 21.15 33.9 L20.75 32.85 20.6 31.65 Q20.9 30.4 23.55 30.9 L24.85 30.9 26.7 31.2 26.85 31.25 26.9 31.25 27.3 31.4 Q30.15 32.5 29.85 33.5 L31.05 35.75 31.1 35.95 31.4 36.95 Q32.05 38.0 33.0 37.75 32.35 38.45 31.4 38.3 L26.9 38.15 Q24.95 38.95 22.35 36.35 M24.8 36.0 Q23.9 36.2 23.8 36.75 25.15 37.7 25.55 37.45 L26.35 36.6 Q25.95 36.1 24.8 36.0"/><path fill="#8e7e66" stroke="none" d="M37.15 32.3 L37.1 32.25 37.65 32.0 37.15 32.3"/><path fill="#f0d077" stroke="none" d="M35.35 21.35 Q35.55 21.6 35.25 21.8 L34.75 21.85 Q34.55 21.55 34.8 21.35 35.05 21.1 35.35 21.35 M34.6 21.3 L34.55 21.65 34.2 21.6 Q34.05 21.4 34.25 21.25 L34.6 21.3 M33.0 21.1 Q33.25 21.3 32.95 21.55 L32.5 21.5 Q32.3 21.3 32.55 21.05 L33.0 21.1 M33.8 21.15 L33.8 21.5 33.45 21.55 Q33.25 21.35 33.45 21.2 L33.8 21.15 M33.6 24.1 Q33.8 24.3 33.6 24.5 33.45 24.7 33.25 24.5 33.1 24.35 33.25 24.1 33.45 23.95 33.6 24.1 M35.35 25.05 L35.35 25.2 35.1 25.25 Q34.95 25.15 35.1 25.05 L35.35 25.05 M34.3 24.55 L34.2 24.9 33.75 24.85 Q33.55 24.7 33.8 24.5 L34.3 24.55 M34.8 24.7 L34.75 25.2 Q34.6 25.4 34.35 25.2 34.15 24.9 34.4 24.65 L34.8 24.7 M32.4 20.8 Q32.65 21.05 32.3 21.3 L31.8 21.25 Q31.65 20.95 31.9 20.8 32.1 20.55 32.4 20.8 M31.45 21.05 L31.4 21.45 31.05 21.4 Q30.9 21.2 31.1 21.0 L31.45 21.05 M31.4 23.4 L31.3 23.7 31.0 23.65 Q30.85 23.5 31.0 23.4 31.25 23.2 31.4 23.4 M30.8 22.95 L30.75 23.45 30.3 23.5 30.2 23.15 30.15 23.25 Q29.9 23.45 29.65 23.25 29.4 23.1 29.7 22.85 L30.2 22.9 30.25 23.1 30.35 23.0 30.8 22.95 M30.15 23.5 Q30.35 23.7 30.15 23.9 30.0 24.1 29.8 23.9 29.65 23.75 29.8 23.55 L30.15 23.5 M30.9 23.7 L30.85 24.05 30.55 24.0 Q30.35 23.9 30.55 23.75 L30.9 23.7 M31.5 24.2 L31.5 24.6 31.1 24.55 Q30.95 24.35 31.1 24.15 L31.5 24.2 M32.9 23.75 Q33.1 24.0 32.85 24.1 L32.4 24.15 Q32.1 23.95 32.4 23.75 32.65 23.6 32.9 23.75 M32.2 23.55 L32.15 23.95 Q32.0 24.2 31.8 23.95 31.6 23.7 31.8 23.5 L32.2 23.55 M29.35 22.85 L29.4 23.2 29.5 23.25 29.4 23.6 Q29.2 23.8 29.0 23.6 28.85 23.45 29.0 23.25 L28.95 23.25 Q28.85 23.05 29.0 22.8 L29.35 22.85 M27.85 23.15 L27.9 23.25 28.0 23.3 28.0 23.55 27.7 23.6 27.55 23.5 Q27.4 23.35 27.55 23.2 L27.85 23.15 M28.8 23.0 Q29.0 23.2 28.8 23.4 L28.7 23.7 28.35 23.65 28.3 23.45 28.2 23.35 Q28.0 23.15 28.3 22.9 28.7 22.7 28.8 23.0 M32.35 25.4 L32.3 25.75 Q32.15 25.95 32.0 25.75 L32.0 25.4 Q32.2 25.2 32.35 25.4 M31.9 24.75 Q32.05 25.0 31.85 25.1 L31.45 25.05 Q31.25 24.9 31.55 24.7 L31.9 24.75 M32.95 25.8 Q33.2 26.05 32.9 26.25 32.65 26.5 32.35 26.25 32.05 26.05 32.4 25.8 32.75 25.55 32.95 25.8"/><path fill="#f0d077" stroke="none" d="M23.4 27.2 L23.35 27.15 Q22.95 26.15 24.85 26.1 L24.9 26.1 25.2 26.1 Q25.9 26.2 25.95 26.4 27.0 26.9 25.95 27.3 L24.45 27.65 24.1 27.55 Q23.6 27.45 23.4 27.2 M22.85 28.1 L23.55 28.05 23.85 28.05 24.0 28.1 Q25.15 28.35 24.2 28.45 L23.65 28.45 22.8 28.25 22.85 28.1 M26.1 28.0 L25.75 28.35 25.15 28.15 Q24.25 27.75 25.3 27.75 L25.6 27.7 25.95 27.8 26.1 28.0"/><path fill="#faefd9" stroke="none" d="M27.45 32.7 L28.2 33.15 28.85 34.2 29.35 35.25 29.95 36.35 30.55 37.4 30.85 38.4 30.9 38.8 Q30.8 39.05 30.0 39.15 L27.75 38.95 25.1 38.45 24.2 37.75 23.6 36.8 22.3 34.9 Q21.75 34.1 21.6 33.15 21.35 32.3 21.8 32.05 L22.5 31.9 25.85 32.35 27.45 32.7"/><path fill="#f0d077" stroke="none" d="M25.3 32.05 L25.35 32.1 25.45 32.05 Q25.65 31.85 25.8 32.05 L25.75 32.4 25.4 32.35 25.3 32.4 24.9 32.35 Q24.7 32.15 24.95 32.0 L25.3 32.05 M24.3 31.9 L24.25 32.3 23.8 32.25 Q23.6 32.05 23.85 31.85 L24.3 31.9 M27.75 32.4 L27.9 32.6 28.25 32.7 Q28.5 33.0 28.2 33.3 27.95 33.55 27.7 33.2 L27.6 32.95 Q27.4 33.1 27.15 32.8 L26.8 32.75 Q26.65 32.6 26.9 32.45 L27.2 32.35 27.25 32.3 Q27.45 32.05 27.75 32.4 M26.65 32.1 L26.65 32.5 26.3 32.45 Q26.1 32.15 26.35 32.0 L26.65 32.1 M23.6 31.75 L23.6 32.15 23.25 32.1 Q23.05 31.8 23.25 31.65 L23.6 31.75 M22.8 31.7 L22.8 32.0 22.55 31.95 Q22.5 31.75 22.6 31.7 L22.8 31.7 M22.25 31.75 Q22.55 32.05 22.25 32.3 L21.65 32.25 Q21.5 31.9 21.75 31.65 21.95 31.45 22.25 31.75 M21.85 32.45 L21.8 32.8 21.45 32.75 Q21.3 32.6 21.5 32.45 L21.85 32.45 M21.75 33.05 L21.7 33.35 21.35 33.3 Q21.25 33.1 21.4 33.0 L21.75 33.05 M21.9 33.9 L21.85 34.3 21.45 34.25 Q21.3 34.0 21.5 33.85 L21.9 33.9 M22.45 34.6 Q22.65 34.85 22.4 35.0 L22.0 34.95 Q21.85 34.7 22.05 34.55 L22.45 34.6 M23.2 35.7 L23.15 36.05 22.75 36.0 Q22.55 35.75 22.8 35.6 L23.2 35.7 M22.65 35.15 L22.55 35.55 22.2 35.45 22.25 35.15 22.65 35.15 M23.6 36.35 L23.55 36.7 Q23.35 36.95 23.2 36.7 23.05 36.5 23.25 36.35 23.45 36.15 23.6 36.35 M24.25 37.6 L24.15 37.8 23.95 37.8 23.95 37.7 23.6 37.45 Q23.4 37.2 23.7 36.95 L24.2 37.0 Q24.5 37.35 24.15 37.55 L24.25 37.6 M28.75 33.55 L28.7 33.95 28.35 33.9 Q28.2 33.65 28.4 33.5 L28.75 33.55 M29.15 34.25 Q29.3 34.4 29.05 34.6 28.9 34.8 28.7 34.6 28.55 34.35 28.8 34.25 29.05 34.05 29.15 34.25 M29.65 35.0 Q29.85 35.3 29.6 35.5 L29.55 35.5 29.7 35.65 29.65 36.0 29.3 35.95 Q29.15 35.75 29.35 35.6 L29.4 35.55 29.05 35.4 Q28.85 35.15 29.1 34.95 L29.65 35.0 M30.55 36.85 L30.5 37.2 30.05 37.15 Q29.95 37.0 30.2 36.8 L30.55 36.85 M30.2 36.35 L30.2 36.6 Q30.05 36.7 29.95 36.5 29.8 36.35 29.95 36.25 L30.2 36.35 M30.9 37.55 L30.9 37.95 30.45 37.9 Q30.3 37.7 30.45 37.5 L30.9 37.55 M30.55 38.95 L30.55 39.25 Q30.35 39.35 30.3 39.15 30.1 39.0 30.3 38.9 L30.55 38.95 M31.05 38.2 Q31.2 38.5 31.0 38.65 L30.6 38.6 Q30.45 38.4 30.65 38.2 30.9 38.0 31.05 38.2 M28.6 38.85 L28.55 39.2 Q28.35 39.45 28.2 39.2 28.05 38.95 28.25 38.8 L28.6 38.85 M29.9 38.95 Q30.05 39.15 29.8 39.35 L29.45 39.3 29.45 39.2 29.3 39.3 Q29.05 39.45 28.85 39.2 28.7 39.05 28.9 38.85 L29.35 38.9 29.4 39.1 29.55 38.95 Q29.8 38.8 29.9 38.95 M27.05 38.7 Q27.2 38.85 27.0 39.0 L26.7 38.95 Q26.6 38.8 26.75 38.7 26.95 38.55 27.05 38.7 M27.75 38.75 L27.7 39.1 27.3 39.05 Q27.2 38.8 27.4 38.7 L27.75 38.75 M25.55 38.25 L25.5 38.6 25.2 38.55 Q25.1 38.35 25.25 38.2 L25.55 38.25 M26.3 38.45 Q26.55 38.7 26.3 38.85 L25.8 38.8 Q25.65 38.6 25.85 38.35 L26.3 38.45 M24.85 38.1 Q25.05 38.3 24.8 38.5 L24.45 38.45 Q24.3 38.2 24.5 38.05 L24.85 38.1"/><path fill="#ebe0cc" stroke="none" d="M24.1 36.25 Q23.9 35.5 24.15 35.35 24.2 34.05 25.15 34.7 L26.25 35.75 26.3 36.2 26.25 37.05 26.2 37.15 Q25.2 38.25 24.25 36.6 L24.2 36.5 24.1 36.25 M27.8 36.75 L27.6 36.8 27.2 36.25 27.1 35.95 27.05 35.75 Q26.8 34.55 27.35 35.3 L27.65 35.85 Q28.0 36.5 27.8 36.75 M25.95 34.0 L26.5 34.05 26.55 34.75 Q26.5 35.85 26.0 34.95 L25.85 34.65 25.75 34.3 25.95 34.0"/><path fill="#a98145" fill-opacity="0.423529411765" d="M38.8 24.1 Q41.2 25.5 40.5 28.6 L39.7 30.8 Q38.1 33.95 35.75 36.75 34.8 37.95 34.05 37.15 33.95 37.05 34.1 36.9 36.35 34.15 37.45 30.85 L37.55 30.45 37.5 28.0 37.05 27.1 Q34.05 30.65 29.4 31.9 27.35 32.45 25.4 31.5 24.85 31.25 25.45 31.05 L27.9 30.6 Q31.85 30.35 34.85 27.8 37.05 26.0 37.5 23.5 L37.6 22.25 Q37.6 22.0 37.85 21.9 39.0 22.85 38.8 24.1 M37.2 26.95 Q38.15 27.55 38.35 28.4 L38.0 25.85 37.2 26.95 M34.15 31.2 Q34.0 31.25 34.0 31.0 33.85 30.55 34.15 30.35 35.2 31.2 34.15 31.2 M35.7 30.8 Q35.25 30.15 35.95 29.7 36.9 30.45 35.9 30.95 L35.7 30.8"/></g><radialGradient gradientUnits="userSpaceOnUse" r="819.2" cx="0" cy="0" spreadMethod="pad" gradientTransform="matrix(0.0405883789062,0.0,0.0,0.0405883789062,0.0,0.0)" id="gradient3"><stop offset="0.0" stop-color="#fff9c4"/><stop offset="1.0" stop-color="#fff9c4" stop-opacity="0.0"/></radialGradient><g id="c11"><path stroke="none" fill="url(#gradient3)" d="M22.95 -23.0 Q32.5 -13.45 32.5 0.0 32.5 13.45 22.95 22.95 13.45 32.5 0.0 32.5 -13.45 32.5 -23.0 22.95 -32.5 13.45 -32.5 0.0 -32.5 -13.45 -23.0 -23.0 -13.45 -32.5 0.0 -32.5 13.45 -32.5 22.95 -23.0"/></g><g id="c12"><g><use transform="matrix(1.0,0.0,0.0,1.0,0.0,0.0)" xlink:href="#c11"/></g></g><filter id="filter13"><feColorMatrix in="SourceGraphic" type="matrix" values="1.0 0.0 0.0 0.0 0.0 0.0 1.0 0.0 0.0 0.0 0.0 0.0 1.0 0.0 0.0 0.0 0.0 0.0 0.23046875 0.0" result="cxform"/><feComposite operator="in" in2="SourceGraphic" result="color-xform"/></filter><filter id="filter14"><feColorMatrix in="SourceGraphic" type="matrix" values="1.0 0.0 0.0 0.0 0.0 0.0 1.0 0.0 0.0 0.0 0.0 0.0 1.0 0.0 0.0 0.0 0.0 0.0 0.23046875 0.0" result="cxform"/><feComposite operator="in" in2="SourceGraphic" result="color-xform"/></filter></defs><g><g><use transform="matrix(1.0,0.0,0.0,1.0,0.0,0.0)" xlink:href="#c1"/></g><g><use transform="matrix(1.15496826172,0.0,0.0,1.15496826172,5.85,4.8)" xlink:href="#c9"/></g><g><use transform="matrix(1.0,0.0,0.0,1.0,0.0,0.0)" xlink:href="#c10"/></g><g><use transform="matrix(-0.00837707519531,-0.21516418457,0.242568969727,-0.0265960693359,29.0,31.2)" filter="url(#filter13)" xlink:href="#c12"/></g><g><use transform="matrix(0.162948608398,-0.0436706542969,0.128631591797,0.260604858398,30.0,28.7)" filter="url(#filter14)" xlink:href="#c6"/></g></g></svg>