<?xml version='1.0' encoding='UTF-8'?>
<svg xmlns:xlink="http://www.w3.org/1999/xlink" xmlns="http://www.w3.org/2000/svg" version="1.1" width="60px" height="60px" viewBox="0.0 0.0 60.0 60.0"><defs><g id="c1"><path fill="#000000" fill-opacity="0.611764705882" d="M21.35 15.6 Q18.0 11.75 13.95 11.55 10.7 4.95 6.65 8.1 L3.65 8.2 0.0 10.15 Q1.25 8.1 1.6 6.6 1.9 5.1 2.75 4.15 3.55 3.2 4.0 0.0 4.7 5.0 6.15 4.85 9.6 3.95 12.8 5.8 L17.5 8.95 19.9 11.35 Q21.75 13.3 21.75 14.0 L21.7 14.35 Q22.3 15.15 21.35 15.6"/><path fill="#ffffff" stroke="none" d="M13.45 9.2 Q13.45 8.15 14.25 8.15 15.45 8.15 15.4 9.7 15.4 10.6 14.7 10.6 13.9 10.6 13.6 9.9 L13.45 9.2"/><path fill="#ffffff" stroke="none" d="M6.7 5.45 Q7.35 5.55 7.35 6.55 7.35 7.6 6.65 7.6 6.15 7.6 6.0 6.95 L6.0 6.5 Q6.0 5.35 6.7 5.45"/></g><g id="c2"><g><use transform="matrix(1.0,0.0,0.0,1.0,0.0,0.0)" xlink:href="#c1"/></g></g><radialGradient gradientUnits="userSpaceOnUse" r="819.2" cx="0" cy="0" spreadMethod="pad" gradientTransform="matrix(0.0111999511719,0.0,0.0,0.0111999511719,4.35,6.7)" id="gradient1"><stop offset="0.458823529412" stop-color="#fed68c"/><stop offset="1.0" stop-color="#a27939"/></radialGradient><g id="c3"><path fill="#af8645" stroke="none" d="M11.7 10.05 L10.45 8.75 Q6.95 5.4 3.2 4.7 L4.0 4.75 5.7 1.45 Q7.1 -1.2 9.25 1.0 11.4 3.2 11.7 8.2 L11.7 10.05"/><path stroke="none" fill="url(#gradient1)" d="M3.2 4.7 Q6.95 5.4 10.45 8.75 L11.7 10.05 Q11.45 13.25 9.45 13.75 6.95 14.4 4.6 13.75 2.2 13.1 1.05 11.25 -0.1 9.45 0.0 7.65 0.05 5.8 2.1 4.95 L3.2 4.7"/><path fill="none" stroke="#000000" stroke-width="0.5" stroke-opacity="0.301960784314" d="M11.7 10.05 L11.7 8.2 Q11.4 3.2 9.25 1.0 7.1 -1.2 5.7 1.45 L4.0 4.75 3.2 4.7 2.1 4.95 Q0.05 5.8 0.0 7.65 -0.1 9.45 1.05 11.25 2.2 13.1 4.6 13.75 6.95 14.4 9.45 13.75 11.45 13.25 11.7 10.05"/></g><g id="c4"><g><use transform="matrix(1.0,0.0,0.0,1.0,0.0,0.0)" xlink:href="#c3"/></g></g><radialGradient gradientUnits="userSpaceOnUse" r="819.2" cx="0" cy="0" spreadMethod="pad" gradientTransform="matrix(0.0200500488281,0.0,0.0,0.0200500488281,16.85,14.0)" id="gradient2"><stop offset="0.458823529412" stop-color="#e78a31"/><stop offset="1.0" stop-color="#b05b1b"/></radialGradient><radialGradient gradientUnits="userSpaceOnUse" r="819.2" cx="0" cy="0" spreadMethod="pad" gradientTransform="matrix(0.0373992919922,0.0,0.0,0.0373992919922,18.7,3.8)" id="gradient3"><stop offset="0.0" stop-color="#75380f"/><stop offset="1.0" stop-color="#a65015"/></radialGradient><g id="c5"><path stroke="none" fill="url(#gradient2)" d="M9.35 5.95 L15.0 5.3 17.9 9.0 22.6 10.4 31.3 16.85 31.4 17.2 26.8 19.45 Q29.4 21.8 29.55 24.15 L22.25 23.0 Q19.85 26.0 17.45 26.55 15.75 26.4 13.6 23.3 L6.3 24.25 Q5.55 22.05 5.95 19.2 L1.6 17.25 Q2.85 15.2 6.7 12.75 4.35 11.6 3.8 9.65 L7.2 7.05 9.2 6.1 9.35 5.95"/><path stroke="none" fill="url(#gradient3)" d="M7.2 7.05 L3.8 9.65 Q4.35 11.6 6.7 12.75 2.85 15.2 1.6 17.25 L5.95 19.2 Q5.55 22.05 6.3 24.25 L13.6 23.3 Q15.75 26.4 17.45 26.55 19.85 26.0 22.25 23.0 L29.55 24.15 Q29.4 21.8 26.8 19.45 L31.4 17.2 31.3 16.85 22.6 10.4 17.9 9.0 15.0 5.3 9.35 5.95 11.5 3.2 Q16.8 -2.25 24.0 1.6 L31.5 5.65 37.0 14.3 38.45 21.4 Q35.7 22.1 32.5 21.45 33.45 25.4 32.95 29.5 27.8 30.15 23.55 28.65 21.05 32.6 16.85 34.4 14.4 33.05 12.85 30.3 L5.8 31.0 Q3.65 25.75 4.0 21.0 1.45 20.25 0.0 18.6 1.4 15.7 3.75 13.95 2.6 13.6 3.05 9.1 L7.2 7.05"/><path fill="none" stroke="#000000" stroke-width="0.5" stroke-opacity="0.4" d="M9.35 5.95 L9.2 6.1 7.2 7.05 3.05 9.1 Q2.6 13.6 3.75 13.95 1.4 15.7 0.0 18.6 1.45 20.25 4.0 21.0 3.65 25.75 5.8 31.0 L12.85 30.3 Q14.4 33.05 16.85 34.4 21.05 32.6 23.55 28.65 27.8 30.15 32.95 29.5 33.45 25.4 32.5 21.45 35.7 22.1 38.45 21.4 L37.0 14.3 31.5 5.65 24.0 1.6 Q16.8 -2.25 11.5 3.2 L9.35 5.95"/></g><g id="c6"><g><use transform="matrix(1.0,0.0,0.0,1.0,0.0,0.0)" xlink:href="#c5"/></g></g><g id="c7"><path fill="#415152" stroke="none" d="M5.8 5.8 L6.05 5.1 10.0 2.95 11.4 8.3 10.6 9.0 5.8 5.8"/><path fill="#12110f" stroke="none" d="M5.8 5.8 L10.6 9.0 7.2 11.9 5.8 5.8"/><path fill="none" stroke="#00ff00" stroke-width="0.5" d="M10.6 9.0 L10.9 9.2"/><path fill="none" stroke="#000000" stroke-width="0.5" stroke-opacity="0.4" d="M10.6 9.0 L11.4 8.3 10.0 2.95 6.05 5.1 5.8 5.8 7.2 11.9 10.6 9.0"/><path fill="#474337" stroke="none" d="M11.75 0.0 Q14.9 4.45 14.9 12.1 12.9 18.35 8.5 24.6 4.5 25.95 1.4 23.5 L1.4 23.45 Q0.85 19.95 1.6 17.95 3.05 18.65 4.75 17.65 7.25 11.9 8.4 7.3 L9.15 5.2 Q9.9 3.2 11.75 0.0"/><path fill="#9d9282" stroke="none" d="M1.4 23.45 L1.35 23.4 Q-0.8 20.3 0.45 16.1 L4.3 16.2 8.4 7.3 Q7.25 11.9 4.75 17.65 3.05 18.65 1.6 17.95 0.85 19.95 1.4 23.45"/><path fill="none" stroke="#000000" stroke-width="0.5" stroke-opacity="0.4" d="M14.9 12.1 Q12.9 18.35 8.5 24.6 4.5 25.95 1.4 23.5 L1.4 23.45 1.35 23.4 Q-0.8 20.3 0.45 16.1 L4.3 16.2 8.4 7.3 9.15 5.2 Q9.9 3.2 11.75 0.0"/></g><g id="c8"><g><use transform="matrix(1.0,0.0,0.0,1.0,0.0,0.0)" xlink:href="#c7"/></g></g><g id="c9"><path fill="#595449" stroke="none" d="M21.2 15.4 L21.05 15.55 20.95 15.65 Q20.45 15.95 20.05 16.3 L18.9 16.95 20.05 16.3 19.55 16.6 18.9 16.95 18.15 17.35 17.7 17.55 17.65 17.55 17.45 14.4 Q21.85 12.95 25.55 9.65 23.6 13.1 21.2 15.4"/><path fill="#607578" stroke="none" d="M21.05 15.55 L21.2 15.4 Q26.25 17.05 30.1 20.75 25.65 18.45 19.55 16.6 L20.05 16.3 Q20.45 15.95 20.95 15.65 L21.05 15.55"/><path fill="#70695d" stroke="none" d="M17.65 17.55 L17.7 17.55 18.0 27.7 Q10.55 26.3 5.35 21.95 10.7 18.35 15.7 16.65 L17.3 19.55 Q16.9 17.25 17.65 17.55"/><path fill="#59605b" stroke="none" d="M17.7 17.55 L18.15 17.35 18.9 16.95 19.55 16.6 Q25.65 18.45 30.1 20.75 24.75 25.45 18.0 27.7 L17.7 17.55"/><path fill="#544f45" stroke="none" d="M17.45 14.4 L17.65 17.55 Q16.9 17.25 17.3 19.55 L15.7 16.65 14.85 16.2 14.3 15.7 Q11.85 13.35 9.65 9.7 14.3 13.2 17.45 14.4"/><path fill="#4f4a40" stroke="none" d="M5.35 21.95 Q9.5 17.65 14.3 15.7 L14.85 16.2 15.7 16.65 Q10.7 18.35 5.35 21.95"/><path fill="#a49b88" stroke="none" d="M9.65 9.7 Q12.9 4.15 17.6 0.0 L17.45 14.4 Q14.3 13.2 9.65 9.7"/><path fill="#6f695c" stroke="none" d="M25.55 9.65 Q21.85 12.95 17.45 14.4 L17.6 0.0 Q22.45 4.2 25.55 9.65 M22.8 50.4 Q16.35 45.2 7.4 41.0 L0.0 40.4 Q0.5 35.45 3.6 27.65 L5.35 21.95 Q10.55 26.3 18.0 27.7 L22.8 50.4 M17.05 34.4 L16.55 29.95 8.7 35.1 6.15 25.2 5.9 25.0 4.65 30.4 2.6 38.9 7.45 38.1 8.75 37.7 10.3 38.55 18.05 43.35 17.05 34.4"/><path fill="#4f4a41" stroke="none" d="M4.65 30.4 L5.9 25.0 6.15 25.2 8.7 35.1 16.55 29.95 17.05 34.4 10.3 38.55 8.75 37.7 7.45 38.1 4.65 30.4"/><path fill="#5c574b" stroke="none" d="M17.05 34.4 L18.05 43.35 10.3 38.55 17.05 34.4 M7.45 38.1 L2.6 38.9 4.65 30.4 7.45 38.1"/><path fill="#383d3a" stroke="none" d="M28.8 24.95 L30.2 30.1 29.1 37.8 28.65 39.2 22.2 34.45 21.3 30.05 28.0 34.8 28.65 24.95 28.8 24.95"/><path fill="#494f4b" stroke="none" d="M30.1 20.75 Q31.8 27.3 33.0 33.9 L33.65 38.0 34.45 44.35 Q28.95 48.35 22.8 50.4 L18.0 27.7 Q24.75 25.45 30.1 20.75 M30.2 30.1 L28.8 24.95 28.75 24.8 28.65 24.95 28.0 34.8 21.3 30.05 22.2 34.45 Q23.2 41.05 24.3 45.5 28.7 44.8 32.6 41.85 31.85 36.4 30.2 30.1"/><path fill="#474337" stroke="none" d="M28.8 24.95 L28.65 24.95 28.75 24.8 28.8 24.95"/><path fill="#444a46" stroke="none" d="M22.2 34.45 L28.65 39.2 29.1 37.8 30.2 30.1 Q31.85 36.4 32.6 41.85 28.7 44.8 24.3 45.5 23.2 41.05 22.2 34.45"/><path fill="none" stroke="#000000" stroke-width="0.5" stroke-opacity="0.4" d="M21.05 15.55 L21.2 15.4 Q23.6 13.1 25.55 9.65 M18.15 17.35 L18.9 16.95 20.05 16.3 Q20.45 15.95 20.95 15.65 M21.2 15.4 Q26.25 17.05 30.1 20.75 31.8 27.3 33.0 33.9 L33.65 38.0 34.45 44.35 Q28.95 48.35 22.8 50.4 16.35 45.2 7.4 41.0 L0.0 40.4 M5.35 21.95 Q9.5 17.65 14.3 15.7 11.85 13.35 9.65 9.7 12.9 4.15 17.6 0.0 22.45 4.2 25.55 9.65 M14.85 16.2 L14.3 15.7 M15.7 16.65 Q10.7 18.35 5.35 21.95 M17.45 14.4 L17.6 0.0 M18.0 27.7 L22.8 50.4"/><path fill="none" stroke="#fff7ab" stroke-width="0.5" stroke-opacity="0.301960784314" d="M25.55 9.65 Q21.85 12.95 17.45 14.4 14.3 13.2 9.65 9.7"/><path fill="none" stroke="#000000" stroke-width="0.5" stroke-opacity="0.152941176471" d="M4.65 30.4 L5.9 25.0 6.15 25.2 8.7 35.1 16.55 29.95 17.05 34.4 18.05 43.35 M2.6 38.9 L4.65 30.4 7.45 38.1 M10.3 38.55 L17.05 34.4"/><path fill="none" stroke="#000000" stroke-width="0.5" stroke-opacity="0.2" d="M30.2 30.1 L28.8 24.95 28.75 24.8 28.65 24.95 28.0 34.8 21.3 30.05 22.2 34.45 28.65 39.2 29.1 37.8 30.2 30.1 Q31.85 36.4 32.6 41.85 28.7 44.8 24.3 45.5 23.2 41.05 22.2 34.45"/><path fill="none" stroke="#b8a99c" stroke-width="0.5" stroke-opacity="0.301960784314" d="M16.2 30.7 L8.35 35.8"/><path fill="none" stroke="#b2a894" stroke-width="0.5" stroke-opacity="0.301960784314" d="M8.3 35.7 L6.0 26.4"/><path fill="none" stroke="#b8a99c" stroke-width="0.5" stroke-opacity="0.301960784314" d="M11.55 38.8 L16.85 35.75"/><path fill="none" stroke="#b2a894" stroke-width="0.5" stroke-opacity="0.301960784314" d="M6.4 37.75 L4.4 32.1"/><path fill="none" stroke="#b2a894" stroke-width="0.5" stroke-opacity="0.301960784314" d="M22.1 31.2 L28.35 35.5"/><path fill="none" stroke="#b2a894" stroke-width="0.5" stroke-opacity="0.301960784314" d="M28.4 35.4 L28.95 26.15"/><path fill="none" stroke="#b2a894" stroke-width="0.5" stroke-opacity="0.301960784314" d="M28.65 39.75 L22.8 35.7"/><path fill="none" stroke="#b2a894" stroke-width="0.5" stroke-opacity="0.301960784314" d="M29.6 39.6 L30.45 31.8"/><path fill="#f3ead8" stroke="none" d="M17.45 27.7 Q17.4 27.2 18.0 27.15 18.65 27.05 18.7 27.7 18.7 28.2 18.1 28.25 17.6 28.25 17.5 28.0 L17.45 27.7"/><path fill="#f2e9d7" fill-opacity="0.360784313725" d="M17.6 16.3 L17.85 16.35 Q18.05 19.9 18.4 23.2 18.7 26.4 18.25 27.6 L17.8 27.7 Q17.0 25.75 17.25 22.75 L17.45 16.45 17.6 16.3"/><path fill="#b5aa97" fill-opacity="0.650980392157" d="M17.3 20.7 L17.5 22.75 17.3 23.4 16.55 23.65 Q15.65 23.65 15.45 22.95 L15.4 21.3 15.35 21.25 14.3 21.9 13.0 22.15 Q11.7 22.15 11.3 21.1 L11.1 20.0 Q11.1 19.15 11.45 18.95 11.7 18.75 14.3 17.7 L15.6 17.1 17.65 19.6 17.6 19.65 17.3 20.7"/><path fill="#f2e9d7" fill-opacity="0.360784313725" d="M7.95 23.3 L11.35 25.0 Q13.55 26.05 16.5 26.85 18.65 27.45 18.65 27.6 18.65 28.05 18.05 28.05 15.8 28.05 10.8 25.75 5.75 23.5 5.75 22.45 5.75 21.35 6.7 22.1 L7.95 23.3"/><path fill="#b5aa97" fill-opacity="0.882352941176" d="M16.15 21.95 L15.1 22.7 16.0 22.6 Q17.35 22.6 17.95 24.0 18.3 24.75 18.3 25.45 18.3 26.45 17.95 26.8 17.3 27.5 15.15 27.5 13.55 27.5 12.6 26.0 L11.95 24.45 Q11.95 22.75 14.2 21.05 16.45 19.35 16.45 21.35 L16.15 21.95"/><path fill="#b5aa97" fill-opacity="0.650980392157" d="M12.75 20.25 L11.15 20.95 Q11.55 21.75 11.75 23.05 11.85 23.7 12.35 24.1 L12.8 25.0 12.5 25.75 11.35 26.05 Q10.25 26.05 8.1 24.15 L6.15 22.25 Q6.15 21.8 7.3 20.9 8.35 20.0 9.7 19.3 13.25 17.45 13.25 19.5 13.25 20.1 12.75 20.25"/><path fill="#f3ead8" stroke="none" d="M17.0 14.35 Q17.0 13.7 17.6 13.65 18.25 13.65 18.25 14.35 18.25 14.95 17.65 14.95 17.15 14.95 17.0 14.65 L17.0 14.35"/><path fill="#f2e8d9" fill-opacity="0.870588235294" d="M15.4 13.45 Q16.8 10.7 17.0 8.5 L17.55 1.1 17.7 0.9 17.95 0.95 Q18.0 5.2 18.2 9.05 18.35 12.85 17.8 14.2 L17.35 14.3 Q17.1 13.45 15.4 13.45"/><path fill="#f2e9d7" fill-opacity="0.490196078431" d="M15.7 26.55 L17.2 26.85 Q17.0 23.95 17.2 21.0 18.2 21.1 18.25 22.15 L18.1 24.05 Q18.1 24.85 18.5 26.05 L18.9 27.65 18.7 28.3 Q18.4 28.65 18.0 28.65 L14.65 26.7 14.65 26.55 15.7 26.55"/><path fill="#70695d" fill-opacity="0.333333333333" d="M17.05 7.85 L16.8 9.35 Q16.4 10.6 15.55 10.6 14.85 10.6 14.65 10.0 L14.55 9.3 Q14.55 8.75 15.0 7.85 15.6 6.6 16.6 6.6 17.1 6.6 17.1 6.95 L17.05 7.85"/><path fill="#70695d" fill-opacity="0.333333333333" d="M14.65 6.65 L14.4 6.4 14.35 6.1 14.55 5.6 15.1 5.2 Q15.5 5.2 15.5 5.55 15.1 6.65 14.65 6.65"/><path fill="#000000" fill-opacity="0.121568627451" d="M9.75 28.85 L9.45 26.9 11.1 26.95 Q12.75 28.05 12.75 28.3 L10.15 30.5 9.75 28.85"/><path fill="#000000" fill-opacity="0.282352941176" d="M26.25 28.05 L26.55 26.1 24.9 26.15 23.25 27.5 25.85 29.7 26.25 28.05"/><path fill="#000000" fill-opacity="0.211764705882" d="M19.45 26.9 L19.3 26.8 19.25 26.45 Q19.25 25.5 25.15 22.55 19.8 18.4 19.8 17.5 19.8 15.25 24.9 17.75 29.95 20.2 29.95 21.3 29.95 22.45 24.9 24.85 L19.85 27.0 19.45 26.9"/><path fill="#000000" fill-opacity="0.211764705882" d="M20.4 23.95 Q19.95 24.95 20.1 25.85 L20.1 27.05 19.75 27.25 Q19.6 26.9 19.2 24.3 L18.8 21.0 Q18.8 19.85 19.85 20.7 20.85 21.55 20.85 22.1 L20.4 23.95"/></g><g id="c10"><g><use transform="matrix(1.0,0.0,0.0,1.0,0.0,0.0)" xlink:href="#c9"/></g></g><g id="c11"><path fill="#6f695c" stroke="none" d="M13.6 18.8 L14.9 18.4 17.45 11.3 15.9 9.2 11.55 9.3 10.5 12.6 10.35 13.15 9.8 14.3 9.2 15.55 4.7 17.85 Q7.6 19.5 11.15 19.2 L13.25 18.9 13.6 18.8 M20.05 8.6 Q19.7 15.1 15.85 22.05 10.45 22.75 5.05 22.25 0.7 19.65 0.0 16.2 3.3 15.5 5.95 13.7 8.95 3.2 10.75 0.0 15.15 1.95 20.05 8.6"/><path fill="#5b564a" stroke="none" d="M10.5 12.6 L11.55 9.3 15.9 9.2 17.45 11.3 14.9 18.4 13.6 18.8 13.25 18.9 11.15 19.2 13.25 15.2 9.8 14.3 10.35 13.15 10.5 12.6"/><path fill="#4c473c" stroke="none" d="M11.15 19.2 Q7.6 19.5 4.7 17.85 L9.2 15.55 9.8 14.3 13.25 15.2 11.15 19.2"/><path fill="none" stroke="#000000" stroke-width="0.5" stroke-opacity="0.4" d="M20.05 8.6 Q19.7 15.1 15.85 22.05 10.45 22.75 5.05 22.25 0.7 19.65 0.0 16.2 3.3 15.5 5.95 13.7 8.95 3.2 10.75 0.0 15.15 1.95 20.05 8.6"/><path fill="none" stroke="#000000" stroke-width="0.5" stroke-opacity="0.301960784314" d="M13.6 18.8 L13.25 18.9 11.15 19.2 Q7.6 19.5 4.7 17.85 L9.2 15.55 9.8 14.3 10.35 13.15 10.5 12.6"/><path fill="none" stroke="#000000" stroke-width="0.5" stroke-opacity="0.152941176471" d="M9.8 14.3 L13.25 15.2 11.15 19.2"/><path fill="#b3a996" fill-opacity="0.811764705882" d="M10.2 2.0 L10.6 1.0 Q10.65 0.6 11.1 0.65 11.55 0.65 11.65 1.0 L14.4 3.3 Q16.4 4.25 11.4 2.15 7.75 13.05 7.25 13.15 L6.65 13.0 6.6 12.75 7.35 10.2 8.55 6.6 9.55 3.55 10.2 2.0"/><path fill="#b2a894" stroke="none" d="M6.6 12.65 Q6.7 12.4 7.0 12.65 L7.4 13.2 7.05 13.9 6.5 14.7 5.0 15.6 2.9 16.4 1.05 16.6 0.15 16.5 Q0.3 16.3 1.7 15.85 L3.8 15.05 5.2 14.45 6.2 13.55 6.6 12.65"/><path fill="#415152" stroke="none" d="M11.3 9.6 Q11.6 6.2 13.05 3.8 L13.2 3.9 13.1 4.05 15.85 8.3 15.85 8.35 Q14.0 9.65 11.3 9.6"/><path fill="#12110f" stroke="none" d="M15.85 8.3 L13.1 4.05 13.2 3.9 Q15.7 5.1 16.75 7.8 16.05 10.0 14.3 12.0 15.65 10.15 15.85 8.35 L15.9 8.3 15.85 8.3"/><path fill="#3d3933" stroke="none" d="M11.3 9.6 Q14.0 9.65 15.85 8.35 15.65 10.15 14.3 12.0 L11.3 9.6"/><path fill="#ffffff" fill-opacity="0.301960784314" d="M15.85 8.35 L15.85 8.3 15.9 8.3 15.85 8.35"/><path fill="none" stroke="#000000" stroke-width="0.5" stroke-opacity="0.4" d="M13.2 3.9 L13.05 3.8 Q11.6 6.2 11.3 9.6 M15.85 8.35 L15.85 8.3 15.9 8.3 15.85 8.35 M13.2 3.9 Q15.7 5.1 16.75 7.8 16.05 10.0 14.3 12.0 L11.3 9.6"/><path fill="#f2e7d4" stroke="none" d="M11.65 1.45 L11.3 2.5 Q10.95 3.0 10.6 3.0 L10.05 2.9 9.95 2.35 Q9.95 1.85 10.4 1.35 10.9 0.7 11.55 1.0 L11.65 1.45"/></g><g id="c12"><g><use transform="matrix(1.0,0.0,0.0,1.0,0.0,0.0)" xlink:href="#c11"/></g></g><g id="c13"><g><use transform="matrix(1.0,0.0,0.0,1.0,-20.15,-14.35)" xlink:href="#c8"/></g><g><use transform="matrix(1.0,0.0,0.0,1.0,-23.05,1.85)" xlink:href="#c6"/></g><g><use transform="matrix(1.0,0.0,0.0,1.0,-12.5,3.1)" xlink:href="#c4"/></g><g><use transform="matrix(1.0,0.0,0.0,1.0,-14.75,-0.6)" xlink:href="#c2"/></g><g><use transform="matrix(1.0,0.0,0.0,1.0,-14.0,-36.25)" xlink:href="#c10"/></g><g><use transform="matrix(1.0,0.0,0.0,1.0,3.05,-2.8)" xlink:href="#c12"/></g></g><radialGradient gradientUnits="userSpaceOnUse" r="819.2" cx="0" cy="0" spreadMethod="pad" gradientTransform="matrix(0.0178375244141,-0.000473022460938,0.000473022460938,0.0178375244141,14.1,12.65)" id="gradient4"><stop offset="0.462745098039" stop-color="#2d4806"/><stop offset="1.0" stop-color="#0e1117"/></radialGradient><g id="c14"><path stroke="none" fill="url(#gradient4)" d="M16.85 4.1 Q18.2 10.65 13.9 15.5 5.75 18.6 0.55 13.55 -1.45 5.95 3.55 1.1 11.75 -2.1 16.85 4.1"/><path fill="none" stroke="#000000" stroke-width="0.5" stroke-opacity="0.4" d="M16.85 4.1 Q18.2 10.65 13.9 15.5 5.75 18.6 0.55 13.55 -1.45 5.95 3.55 1.1 11.75 -2.1 16.85 4.1"/><path fill="none" stroke="#cccccc" stroke-width="0.5" stroke-opacity="0.301960784314" d="M5.1 1.85 Q10.15 5.1 12.1 9.3 L13.05 12.55 13.55 14.9"/><path fill="none" stroke="#cccccc" stroke-width="0.5" stroke-opacity="0.301960784314" d="M3.7 1.95 L3.55 3.0 Q3.6 4.6 4.7 8.1 5.7 11.35 6.6 13.1 7.2 14.35 7.85 14.9 L8.9 15.8 9.0 15.9"/><path fill="none" stroke="#cccccc" stroke-width="0.5" stroke-opacity="0.301960784314" d="M2.25 2.95 L1.5 6.15 Q1.3 7.1 1.35 8.4 1.45 11.9 2.3 13.2 L4.5 15.55"/><path fill="none" stroke="#cccccc" stroke-width="0.5" stroke-opacity="0.301960784314" d="M6.1 1.1 Q11.05 1.75 13.8 4.65 16.3 7.25 16.35 10.65 L16.45 10.95 16.5 11.2"/></g><g id="c15"><g><use transform="matrix(1.0,0.0,0.0,1.0,0.0,0.0)" xlink:href="#c14"/></g></g><g id="c16"><path fill="#142300" stroke="none" d="M1.45 0.8 L3.65 0.0 5.25 0.3 6.4 5.3 5.55 6.95 4.0 8.05 1.95 7.5 0.0 2.45 1.45 0.8"/><path fill="none" stroke="#000000" stroke-width="0.5" stroke-opacity="0.4" d="M1.45 0.8 L3.65 0.0 5.25 0.3 6.4 5.3 5.55 6.95 4.0 8.05 1.95 7.5 0.0 2.45 1.45 0.8"/></g><g id="c17"><g><use transform="matrix(1.0,0.0,0.0,1.0,0.0,0.0)" xlink:href="#c16"/></g></g><g id="c18"><path fill="#b8884d" stroke="none" d="M2.55 6.35 Q0.75 6.15 0.0 4.65 0.0 2.15 2.5 0.45 L7.15 0.25 Q10.15 0.95 9.55 3.7 8.85 5.8 6.5 6.55 6.2 8.2 5.15 8.65 3.25 7.65 2.55 6.35"/><path fill="none" stroke="#000000" stroke-width="0.5" stroke-opacity="0.301960784314" d="M2.55 6.35 Q0.75 6.15 0.0 4.65 0.0 2.15 2.5 0.45 L7.15 0.25 Q10.15 0.95 9.55 3.7 8.85 5.8 6.5 6.55 6.2 8.2 5.15 8.65 3.25 7.65 2.55 6.35"/></g><g id="c19"><g><use transform="matrix(1.0,0.0,0.0,1.0,0.0,0.0)" xlink:href="#c18"/></g></g><g id="c20"><path fill="#0b0d12" stroke="none" d="M13.55 -2.25 Q12.45 2.75 11.0 4.15 4.6 11.65 -8.45 10.95 -15.95 5.85 -12.4 -0.5 -14.15 -6.4 -10.15 -7.25 -3.6 -13.0 8.65 -10.0 13.35 -8.3 13.55 -2.25"/><path fill="none" stroke="#000000" stroke-width="0.5" stroke-opacity="0.4" d="M13.55 -2.25 Q13.35 -8.3 8.65 -10.0 -3.6 -13.0 -10.15 -7.25 -14.15 -6.4 -12.4 -0.5 -15.95 5.85 -8.45 10.95 4.6 11.65 11.0 4.15 12.45 2.75 13.55 -2.25"/></g><g id="c21"><g><use transform="matrix(1.0,0.0,0.0,1.0,0.0,0.0)" xlink:href="#c20"/></g></g><g id="c22"><path fill="#5f594d" stroke="none" d="M6.95 4.95 L5.55 3.7 Q4.15 2.7 3.8 2.7 L2.05 3.4 3.8 2.7 Q4.15 2.7 5.55 3.7 L6.95 4.95 M3.55 0.0 Q7.1 1.65 9.5 4.4 8.9 5.1 7.35 5.5 6.0 6.45 3.9 7.0 2.1 6.25 1.1 4.6 0.3 4.15 0.0 3.05 1.05 1.6 3.55 0.0"/><path fill="none" stroke="#000000" stroke-width="0.5" stroke-opacity="0.2" d="M2.05 3.4 L3.8 2.7 Q4.15 2.7 5.55 3.7 L6.95 4.95"/><path fill="none" stroke="#000000" stroke-width="0.5" stroke-opacity="0.4" d="M3.55 0.0 Q7.1 1.65 9.5 4.4 8.9 5.1 7.35 5.5 6.0 6.45 3.9 7.0 2.1 6.25 1.1 4.6 0.3 4.15 0.0 3.05 1.05 1.6 3.55 0.0"/></g><g id="c23"><g><use transform="matrix(1.0,0.0,0.0,1.0,0.0,0.0)" xlink:href="#c22"/></g></g><radialGradient gradientUnits="userSpaceOnUse" r="819.2" cx="0" cy="0" spreadMethod="pad" gradientTransform="matrix(0.0110778808594,0.005615234375,-0.005615234375,0.0110778808594,10.0,14.45)" id="gradient5"><stop offset="0.458823529412" stop-color="#2d4806"/><stop offset="1.0" stop-color="#121e01"/></radialGradient><g id="c24"><path stroke="none" fill="url(#gradient5)" d="M7.7 0.0 Q15.5 0.95 16.9 8.05 15.15 13.8 9.7 15.8 2.0 14.75 0.0 8.55 1.7 1.7 7.7 0.0"/><path fill="none" stroke="#000000" stroke-width="0.5" stroke-opacity="0.4" d="M7.7 0.0 Q15.5 0.95 16.9 8.05 15.15 13.8 9.7 15.8 2.0 14.75 0.0 8.55 1.7 1.7 7.7 0.0"/><path fill="none" stroke="#cccccc" stroke-width="0.5" stroke-opacity="0.2" d="M7.25 1.1 Q6.8 6.35 8.1 11.1 8.75 13.45 9.6 15.2 L9.75 15.35 9.6 15.3 9.6 15.2"/><path fill="none" stroke="#cccccc" stroke-width="0.5" stroke-opacity="0.2" d="M5.75 2.5 Q5.1 2.95 4.35 4.5 2.65 7.85 3.35 11.0 3.8 13.0 4.7 13.95"/><path fill="none" stroke="#cccccc" stroke-width="0.5" stroke-opacity="0.2" d="M9.35 1.1 L9.25 1.2 Q13.0 4.35 13.85 8.1 14.35 10.3 13.75 13.0"/></g><g id="c25"><g><use transform="matrix(1.0,0.0,0.0,1.0,0.0,0.0)" xlink:href="#c24"/></g></g><g id="c26"><path fill="#4d483e" stroke="none" d="M4.8 6.25 Q3.95 7.25 3.1 7.25 L1.85 6.25 0.0 1.7 1.3 0.05 Q3.0 -0.2 4.85 0.65 5.85 4.05 4.8 6.25"/><path fill="none" stroke="#000000" stroke-width="0.5" stroke-opacity="0.4" d="M1.85 6.25 L0.0 1.7 1.3 0.05 Q3.0 -0.2 4.85 0.65 5.85 4.05 4.8 6.25"/></g><g id="c27"><g><use transform="matrix(1.0,0.0,0.0,1.0,0.0,0.0)" xlink:href="#c26"/></g></g><g id="c28"><path fill="#5f594d" stroke="none" d="M2.4 0.0 Q3.75 0.4 4.8 2.2 5.15 4.75 4.0 6.45 2.8 8.0 0.9 8.45 0.55 8.35 0.15 6.3 -0.2 4.15 0.15 1.65 1.0 0.4 2.4 0.0"/><path fill="none" stroke="#000000" stroke-width="0.5" stroke-opacity="0.4" d="M2.4 0.0 Q3.75 0.4 4.8 2.2 5.15 4.75 4.0 6.45 2.8 8.0 0.9 8.45 0.55 8.35 0.15 6.3 -0.2 4.15 0.15 1.65 1.0 0.4 2.4 0.0"/></g><g id="c29"><g><use transform="matrix(1.0,0.0,0.0,1.0,0.0,0.0)" xlink:href="#c28"/></g></g><g id="c30"><path fill="#423d35" stroke="none" d="M4.3 4.85 L2.95 3.55 0.95 2.1 2.95 3.55 4.3 4.85 M0.9 0.0 Q3.95 2.1 5.9 4.85 5.0 6.15 2.75 6.45 1.05 4.65 0.0 1.6 0.15 0.1 0.9 0.0"/><path fill="none" stroke="#000000" stroke-width="0.5" stroke-opacity="0.4" d="M0.9 0.0 Q3.95 2.1 5.9 4.85 5.0 6.15 2.75 6.45 1.05 4.65 0.0 1.6 0.15 0.1 0.9 0.0"/><path fill="none" stroke="#000000" stroke-width="0.5" stroke-opacity="0.2" d="M0.95 2.1 L2.95 3.55 4.3 4.85"/></g><g id="c31"><g><use transform="matrix(1.0,0.0,0.0,1.0,0.0,0.0)" xlink:href="#c30"/></g></g><g id="c32"><path fill="#0f1900" stroke="none" d="M0.05 4.45 Q3.6 -0.4 8.8 0.05 14.4 3.05 13.1 8.95 9.85 12.9 5.0 12.9 -0.5 9.9 0.05 4.45"/><path fill="none" stroke="#000000" stroke-width="0.5" stroke-opacity="0.301960784314" d="M0.05 4.45 Q3.6 -0.4 8.8 0.05 14.4 3.05 13.1 8.95 9.85 12.9 5.0 12.9 -0.5 9.9 0.05 4.45"/></g><g id="c33"><g><use transform="matrix(1.0,0.0,0.0,1.0,0.0,0.0)" xlink:href="#c32"/></g></g><g id="c34"><path fill="#3b372f" stroke="none" d="M4.7 5.7 L1.85 5.6 0.0 1.95 Q0.3 0.75 1.35 0.1 2.8 -0.2 4.2 0.65 4.95 3.7 4.7 5.7"/><path fill="none" stroke="#000000" stroke-width="0.5" stroke-opacity="0.4" d="M1.85 5.6 L0.0 1.95 Q0.3 0.75 1.35 0.1 2.8 -0.2 4.2 0.65 4.95 3.7 4.7 5.7"/></g><g id="c35"><g><use transform="matrix(1.0,0.0,0.0,1.0,0.0,0.0)" xlink:href="#c34"/></g></g><g id="c36"><path fill="#423d35" stroke="none" d="M7.9 3.35 L2.9 4.55 0.0 4.3 Q0.35 3.1 2.05 1.7 3.65 0.35 5.05 0.05 6.35 -0.25 7.15 0.95 7.85 2.15 7.9 3.35"/><path fill="none" stroke="#000000" stroke-width="0.5" stroke-opacity="0.4" d="M7.9 3.35 L2.9 4.55 0.0 4.3 Q0.35 3.1 2.05 1.7 3.65 0.35 5.05 0.05 6.35 -0.25 7.15 0.95 7.85 2.15 7.9 3.35"/></g><g id="c37"><g><use transform="matrix(1.0,0.0,0.0,1.0,0.0,0.0)" xlink:href="#c36"/></g></g><g id="c38"><path fill="#bfa067" stroke="none" d="M4.85 2.85 L4.9 2.8 4.9 2.9 4.85 2.85"/><path fill="#dbb776" stroke="none" d="M4.9 2.8 L4.85 2.85 Q4.2 3.45 2.45 3.45 1.2 3.45 0.4 2.9 L0.05 2.6 Q0.35 1.65 1.1 0.7 2.25 0.0 3.75 0.25 4.85 1.85 4.9 2.8"/><path fill="#b8884d" stroke="none" d="M0.05 2.6 L0.4 2.9 Q1.2 3.45 2.45 3.45 4.2 3.45 4.85 2.85 L4.9 2.9 Q4.9 3.75 3.8 3.95 5.65 5.3 5.45 6.8 5.25 8.3 4.15 9.1 3.0 9.9 2.05 8.75 1.1 7.6 0.65 6.1 0.15 4.6 0.75 3.65 -0.2 3.3 0.05 2.6"/><path fill="none" stroke="#000000" stroke-width="0.5" stroke-opacity="0.301960784314" d="M4.9 2.8 Q4.85 1.85 3.75 0.25 2.25 0.0 1.1 0.7 0.35 1.65 0.05 2.6 M4.9 2.9 L4.9 2.8 M4.9 2.9 Q4.9 3.75 3.8 3.95 5.65 5.3 5.45 6.8 5.25 8.3 4.15 9.1 3.0 9.9 2.05 8.75 1.1 7.6 0.65 6.1 0.15 4.6 0.75 3.65 -0.2 3.3 0.05 2.6"/><path fill="#dbb776" stroke="none" d="M8.2 5.05 Q6.85 6.7 5.6 5.55 4.7 2.95 5.6 0.45 7.65 -0.85 9.15 1.45 9.35 3.35 8.2 5.05"/><path fill="none" stroke="#000000" stroke-width="0.5" stroke-opacity="0.301960784314" d="M8.2 5.05 Q6.85 6.7 5.6 5.55 4.7 2.95 5.6 0.45 7.65 -0.85 9.15 1.45 9.35 3.35 8.2 5.05"/></g><g id="c39"><g><use transform="matrix(1.0,0.0,0.0,1.0,0.0,0.0)" xlink:href="#c38"/></g></g><radialGradient gradientUnits="userSpaceOnUse" r="819.2" cx="0" cy="0" spreadMethod="pad" gradientTransform="matrix(0.0212097167969,0.0,0.0,0.0212097167969,7.25,0.55)" id="gradient6"><stop offset="0.458823529412" stop-color="#2c3746"/><stop offset="1.0" stop-color="#0e1117"/></radialGradient><g id="c40"><path stroke="none" fill="url(#gradient6)" d="M8.35 17.85 Q2.25 16.2 0.0 10.45 0.85 2.35 7.35 0.0 14.65 1.55 16.6 7.95 15.8 16.15 8.35 17.85"/><path fill="none" stroke="#000000" stroke-width="0.5" stroke-opacity="0.4" d="M8.35 17.85 Q2.25 16.2 0.0 10.45 0.85 2.35 7.35 0.0 14.65 1.55 16.6 7.95 15.8 16.15 8.35 17.85"/><path fill="none" stroke="#cccccc" stroke-width="0.5" stroke-opacity="0.301960784314" d="M0.5 9.1 Q2.3 5.05 5.25 2.95 7.8 1.05 10.25 1.2 L10.25 1.35"/><path fill="none" stroke="#cccccc" stroke-width="0.5" stroke-opacity="0.301960784314" d="M0.85 10.05 Q4.2 7.8 8.5 6.4 11.65 5.4 13.0 5.4 L13.85 5.6"/><path fill="none" stroke="#cccccc" stroke-width="0.5" stroke-opacity="0.301960784314" d="M1.2 11.3 L3.05 12.4 Q4.85 13.15 7.4 13.15 L10.4 12.9 Q11.9 12.55 12.55 12.0 L14.1 10.85"/></g><g id="c41"><g><use transform="matrix(1.0,0.0,0.0,1.0,0.0,0.0)" xlink:href="#c40"/></g></g><g id="c42"><path fill="#272e40" stroke="none" d="M7.0 0.9 L8.1 2.45 7.5 4.5 2.4 6.35 0.75 4.95 0.0 2.7 0.35 1.15 5.3 0.0 7.0 0.9"/><path fill="none" stroke="#000000" stroke-width="0.5" stroke-opacity="0.4" d="M7.0 0.9 L8.1 2.45 7.5 4.5 2.4 6.35 0.75 4.95 0.0 2.7 0.35 1.15 5.3 0.0 7.0 0.9"/></g><g id="c43"><g><use transform="matrix(1.0,0.0,0.0,1.0,0.0,0.0)" xlink:href="#c42"/></g></g><radialGradient gradientUnits="userSpaceOnUse" r="819.2" cx="0" cy="0" spreadMethod="pad" gradientTransform="matrix(0.0230712890625,0.0,0.0,0.0230712890625,0.0,0.0)" id="gradient7"><stop offset="0.172549019608" stop-color="#040c0d" stop-opacity="0.572549019608"/><stop offset="0.972549019608" stop-opacity="0.0"/></radialGradient><g id="c44"><path stroke="none" fill="url(#gradient7)" d="M12.7 -12.75 Q18.0 -7.45 18.0 0.0 18.0 7.45 12.7 12.7 7.45 18.0 0.0 18.0 -7.45 18.0 -12.75 12.7 -18.0 7.45 -18.0 0.0 -18.0 -7.45 -12.75 -12.75 -7.45 -18.0 0.0 -18.0 7.45 -18.0 12.7 -12.75"/></g><g id="c45"><g><use transform="matrix(1.0,0.0,0.0,1.0,0.0,0.0)" xlink:href="#c44"/></g></g><g id="c46"><path fill="#6f695c" stroke="none" d="M-4.1 47.35 Q-2.3 44.3 0.3 42.0 2.95 44.35 4.65 47.3 2.65 49.15 0.2 49.95 -1.55 49.25 -4.1 47.35"/><path fill="#4f4a3e" stroke="none" d="M4.65 47.3 Q2.85 50.6 0.3 52.65 -2.1 50.65 -4.1 47.35 -1.55 49.25 0.2 49.95 2.65 49.15 4.65 47.3"/><path fill="none" stroke="#000000" stroke-width="0.5" stroke-opacity="0.4" d="M-4.1 47.35 Q-2.3 44.3 0.3 42.0 2.95 44.35 4.65 47.3 2.85 50.6 0.3 52.65 -2.1 50.65 -4.1 47.35"/><path fill="#a39a87" fill-opacity="0.733333333333" d="M0.45 44.85 L0.15 47.6 0.35 49.5 Q0.35 50.05 -0.25 50.05 -1.05 50.05 -1.05 48.8 L-2.45 48.2 Q-3.35 47.9 -3.35 47.55 L-1.45 44.8 Q0.45 42.55 0.45 44.85 M-1.2 45.6 L-2.55 47.35 -1.3 47.8 -1.2 45.6"/><path fill="#99907f" stroke="none" d="M21.3 -46.6 L17.65 -51.3 15.5 -52.55 17.3 -51.8 15.85 -53.5 Q19.35 -51.15 21.7 -47.1 L21.8 -46.9 21.85 -46.2 Q22.1 -37.5 21.45 -28.95 21.85 -37.1 21.3 -46.6"/><path fill="#d1c6b6" stroke="none" d="M15.85 -53.5 L17.3 -51.8 15.5 -52.55 14.5 -53.1 14.7 -54.25 15.85 -53.5"/><path fill="#635d52" stroke="none" d="M15.5 -52.55 L17.65 -51.3 21.3 -46.6 19.25 -44.0 15.8 -39.7 12.65 -43.65 14.5 -53.1 15.5 -52.55 M3.25 -33.85 L6.65 -35.25 7.15 -36.1 9.55 -34.9 5.55 -31.8 3.25 -33.85"/><path fill="#877f70" stroke="none" d="M14.5 -53.1 L12.65 -43.65 12.2 -41.2 10.2 -35.45 9.55 -34.9 7.15 -36.1 10.3 -42.0 14.7 -54.25 14.5 -53.1"/><path fill="#59605b" stroke="none" d="M21.3 -46.6 Q21.85 -37.1 21.45 -28.95 L21.45 -28.9 18.6 -21.95 16.7 -23.4 15.3 -24.6 15.9 -31.9 15.85 -39.6 15.8 -39.7 19.25 -44.0 21.3 -46.6"/><path fill="#4d483d" stroke="none" d="M12.65 -43.65 L15.8 -39.7 15.85 -39.6 15.9 -31.9 15.3 -24.6 15.2 -23.7 11.85 -17.5 10.2 -18.8 6.45 -20.05 2.75 -13.45 3.3 -17.35 3.25 -18.5 Q6.5 -22.15 8.45 -26.6 L3.15 -30.85 3.25 -33.85 5.55 -31.8 9.55 -34.9 10.2 -35.45 12.2 -41.2 12.65 -43.65 M14.7 -36.65 L8.95 -28.15 14.7 -36.65 M14.75 -37.5 L8.0 -27.9 14.75 -37.5 M13.0 -21.25 L8.25 -24.15 13.0 -21.25"/><path fill="#3b372f" stroke="none" d="M13.7 -11.65 L12.55 -10.5 12.25 -14.35 10.2 -18.8 11.85 -17.5 13.55 -16.15 14.35 -14.35 13.7 -11.65 M3.25 -18.5 L2.9 -24.1 3.15 -30.85 8.45 -26.6 Q6.5 -22.15 3.25 -18.5"/><path fill="#607578" stroke="none" d="M15.3 -24.6 L16.7 -23.4 18.6 -21.95 14.8 -12.8 13.7 -11.65 14.35 -14.35 13.55 -16.15 11.85 -17.5 15.2 -23.7 15.3 -24.6"/><path fill="none" stroke="#000000" stroke-width="0.5" stroke-opacity="0.4" d="M21.45 -28.95 Q22.1 -37.5 21.85 -46.2 L21.8 -46.9 21.7 -47.1 Q19.35 -51.15 15.85 -53.5 L14.7 -54.25 M18.6 -21.95 L21.45 -28.9 21.45 -28.95 M18.6 -21.95 L14.8 -12.8 13.7 -11.65 12.55 -10.5 12.25 -14.35 10.2 -18.8 6.45 -20.05 2.75 -13.45 3.3 -17.35 3.25 -18.5 M3.15 -30.85 L3.25 -33.85 6.65 -35.25 7.15 -36.1 10.3 -42.0 14.7 -54.25 M3.25 -33.85 L5.55 -31.8 M10.2 -18.8 L11.85 -17.5"/><path fill="none" stroke="#000000" stroke-width="0.5" stroke-opacity="0.152941176471" d="M12.65 -43.65 L15.8 -39.7 15.85 -39.6 15.9 -31.9 15.3 -24.6 15.2 -23.7 11.85 -17.5 M8.0 -27.9 L14.75 -37.5 M8.25 -24.15 L13.0 -21.25"/><path fill="none" stroke="#000000" stroke-width="0.5" stroke-opacity="0.301960784314" d="M3.25 -18.5 L2.9 -24.1 3.15 -30.85 8.45 -26.6 Q6.5 -22.15 3.25 -18.5"/><path fill="none" stroke="#b8a99c" stroke-width="0.5" stroke-opacity="0.152941176471" d="M8.95 -28.15 L14.7 -36.65"/><path fill="#000000" fill-opacity="0.101960784314" d="M17.35 -31.05 L18.2 -27.95 Q18.2 -27.3 17.3 -26.5 L15.85 -24.95 15.05 -23.2 Q14.55 -22.05 14.1 -22.05 L13.85 -22.15 13.8 -22.4 14.4 -23.65 Q12.55 -27.65 12.55 -28.85 12.55 -29.25 13.75 -30.3 L15.1 -31.55 15.1 -33.05 Q15.15 -33.9 16.3 -33.5 L17.35 -31.05"/><path fill="#000000" fill-opacity="0.101960784314" d="M18.15 -33.05 L18.15 -33.5 Q18.15 -34.1 18.8 -34.75 19.4 -35.45 19.4 -34.55 19.25 -32.65 18.6 -32.65 18.2 -32.65 18.15 -33.05"/><path fill="#474238" stroke="none" d="M-1.85 44.5 L-3.0 -42.65 -1.2 -44.9 0.25 -46.35 Q2.55 -45.1 4.0 -43.15 L3.9 -31.45 3.4 -21.05 2.4 44.5 0.2 45.95 -0.85 45.2 -1.85 44.5"/><path fill="none" stroke="#000000" stroke-width="0.5" stroke-opacity="0.4" d="M-1.85 44.5 L-3.0 -42.65 -1.2 -44.9 0.25 -46.35 Q2.55 -45.1 4.0 -43.15 L3.9 -31.45 M3.4 -21.05 L2.4 44.5"/><path fill="#454038" stroke="none" d="M8.1 -46.1 Q6.1 -42.1 3.6 -39.2 2.0 -37.65 0.2 -36.45 L0.0 -39.55 Q4.4 -42.0 8.1 -46.1"/><path fill="#6f695c" stroke="none" d="M0.15 -54.0 Q5.0 -50.85 8.1 -46.1 4.4 -42.0 0.0 -39.55 L0.15 -54.0"/><path fill="#544f45" stroke="none" d="M0.2 -36.45 L-2.6 -37.2 Q-5.35 -39.0 -7.8 -42.55 -3.15 -40.1 0.0 -39.55 L0.2 -36.45 M0.35 3.4 L-2.1 2.8 Q-4.5 1.2 -6.6 -1.85 -2.6 0.3 0.15 0.75 L0.35 3.4"/><path fill="#4a453c" stroke="none" d="M2.75 -9.9 Q5.45 -7.65 7.2 -4.95 4.0 -1.4 0.15 0.75 L0.25 -7.75 0.25 -7.9 0.5 -8.0 Q1.5 -8.25 2.25 -9.15 L2.75 -9.9"/><path fill="#575148" stroke="none" d="M-5.85 -3.25 L-2.4 -8.55 Q-1.7 -7.4 0.25 -7.9 L0.25 -7.75 -2.4 -5.8 -5.85 -3.25"/><path fill="#a49b88" stroke="none" d="M-7.8 -42.55 Q-4.55 -48.8 0.15 -54.0 L0.0 -39.55 Q-3.15 -40.1 -7.8 -42.55"/><path fill="#595449" stroke="none" d="M7.2 -4.95 Q5.45 -1.45 3.3 1.0 L0.35 3.4 0.15 0.75 Q4.0 -1.4 7.2 -4.95"/><path fill="#857d6e" stroke="none" d="M-6.6 -1.85 L-5.85 -3.25 -2.4 -5.8 0.25 -7.75 0.15 0.75 Q-2.6 0.3 -6.6 -1.85"/><path fill="none" stroke="#000000" stroke-width="0.5" stroke-opacity="0.4" d="M8.1 -46.1 Q6.1 -42.1 3.6 -39.2 M-2.6 -37.2 Q-5.35 -39.0 -7.8 -42.55 -4.55 -48.8 0.15 -54.0 5.0 -50.85 8.1 -46.1 M2.75 -9.9 Q5.45 -7.65 7.2 -4.95 5.45 -1.45 3.3 1.0 M-2.1 2.8 Q-4.5 1.2 -6.6 -1.85 L-5.85 -3.25 -2.4 -8.55 M0.0 -39.55 L0.15 -54.0"/><path fill="none" stroke="#fff7ab" stroke-width="0.5" stroke-opacity="0.301960784314" d="M8.1 -46.1 Q4.4 -42.0 0.0 -39.55 M-7.8 -42.55 Q-3.15 -40.1 0.0 -39.55"/><path fill="none" stroke="#000000" stroke-width="0.5" stroke-opacity="0.301960784314" d="M0.25 -7.75 L0.25 -7.9 M0.15 0.75 L0.25 -7.75"/><path fill="none" stroke="#fff7ab" stroke-width="0.5" stroke-opacity="0.152941176471" d="M7.2 -4.95 Q4.0 -1.4 0.15 0.75"/><path fill="none" stroke="#fff7ab" stroke-width="0.5" stroke-opacity="0.2" d="M0.15 0.75 Q-2.6 0.3 -6.6 -1.85"/><path fill="#f3ead8" stroke="none" d="M-0.45 -39.5 Q-0.45 -40.15 0.15 -40.35 0.8 -40.5 0.8 -39.8 0.8 -39.2 0.2 -39.05 -0.3 -38.95 -0.45 -39.2 L-0.45 -39.5"/><path fill="#f2e8d9" stroke="none" d="M0.5 -53.1 Q0.55 -48.85 0.75 -45.05 0.9 -41.3 0.35 -39.85 L-0.1 -39.65 Q-0.8 -41.75 -0.45 -45.35 -0.05 -48.95 0.1 -52.85 L0.25 -53.1 0.5 -53.1"/><path fill="#f2e9d7" fill-opacity="0.670588235294" d="M-0.25 0.8 Q-0.25 0.25 0.3 0.15 0.85 -0.05 0.85 0.6 0.85 1.1 0.35 1.2 L-0.2 1.1 -0.25 0.8"/><path fill="#f2e8d9" fill-opacity="0.470588235294" d="M0.6 -7.4 L0.8 -2.65 Q0.95 -0.35 0.45 0.55 L0.05 0.7 Q-0.55 -0.55 -0.25 -2.7 L0.25 -7.2 0.35 -7.4 0.6 -7.4"/><path fill="#f2e8d9" fill-opacity="0.470588235294" d="M0.6 -3.15 L0.8 -1.3 Q0.95 -0.35 0.45 0.05 L0.05 0.15 Q-0.55 -0.25 -0.25 -1.15 L0.25 -3.0 0.35 -3.15 0.6 -3.15"/><path fill="#3b372f" stroke="none" d="M0.0 -27.6 L1.25 -22.5 0.15 -17.7 -5.5 -19.0 Q-3.25 -23.15 0.0 -27.6"/><path fill="#f2e9d7" fill-opacity="0.780392156863" d="M-21.5 -22.25 L-18.6 -29.45 Q-16.1 -34.9 -13.15 -39.45 L-11.8 -37.7 -13.7 -34.7 -14.4 -32.85 -16.5 -29.35 -18.15 -26.25 -20.45 -22.0 -21.5 -22.25"/><path fill="#7a7365" stroke="none" d="M-11.8 -37.7 L-7.4 -31.8 -7.3 -31.7 -6.85 -31.05 -12.45 -24.45 -14.55 -26.2 -13.45 -26.2 -16.5 -29.35 -14.4 -32.85 -13.7 -34.7 -11.8 -37.7"/><path fill="#575248" stroke="none" d="M-18.15 -26.25 L-16.5 -29.35 -13.45 -26.2 -14.55 -26.2 -18.15 -26.25 M-19.6 -2.7 L-19.75 -2.95 -19.25 -3.15 -17.9 -3.5 -18.95 -1.9 -19.6 -2.7 M-17.9 -0.9 L-14.5 -3.6 -17.1 0.15 -17.9 -0.9"/><path fill="#6f695c" stroke="none" d="M-20.45 -1.75 L-21.6 -3.15 -20.9 -3.35 -20.4 -21.4 -20.45 -22.0 -18.15 -26.25 -14.55 -26.2 -12.45 -24.45 -12.8 -24.15 -13.35 -15.95 -12.95 -10.4 -19.25 -3.15 -19.75 -2.95 -19.6 -2.7 -20.45 -1.75 M-7.3 -31.7 L-4.45 -30.85 -3.65 -31.3 -2.0 -33.55 -0.35 -30.45 -3.25 -28.5 -6.85 -31.05 -7.3 -31.7"/><path fill="#4d483d" stroke="none" d="M0.15 -17.7 L-0.35 -12.1 -2.95 -13.9 -8.1 -7.5 -12.95 -9.85 -12.95 -10.4 -13.35 -15.95 -12.8 -24.15 -12.45 -24.45 -6.85 -31.05 -3.25 -28.5 -0.35 -30.45 0.0 -27.6 Q-3.25 -23.15 -5.5 -19.0 L0.15 -17.7 M-8.9 -10.7 L-4.45 -17.1 -8.9 -10.7 M-10.45 -9.75 L-4.25 -18.25 -10.45 -9.75 M-5.0 -21.7 L-11.05 -25.55 -5.0 -21.7"/><path fill="#c7c0b2" stroke="none" d="M-21.6 -3.15 Q-22.55 -12.05 -21.6 -21.9 L-21.5 -22.25 -20.45 -22.0 -20.4 -21.4 -20.9 -3.35 -21.6 -3.15"/><path fill="#666054" stroke="none" d="M-8.1 -7.5 L-13.15 4.6 Q-16.8 2.65 -20.45 -1.75 L-19.6 -2.7 -18.95 -1.9 -17.9 -3.5 -19.25 -3.15 -12.95 -10.4 -12.95 -9.85 -8.1 -7.5 M-17.9 -0.9 L-17.1 0.15 -14.5 -3.6 -17.9 -0.9"/><path fill="none" stroke="#000000" stroke-width="0.5" stroke-opacity="0.4" d="M-0.35 -12.1 L-2.95 -13.9 -8.1 -7.5 -13.15 4.6 Q-16.8 2.65 -20.45 -1.75 L-21.6 -3.15 Q-22.55 -12.05 -21.6 -21.9 L-21.5 -22.25 -18.6 -29.45 Q-16.1 -34.9 -13.15 -39.45 L-11.8 -37.7 -7.4 -31.8 -7.3 -31.7 -4.45 -30.85 -3.65 -31.3 -2.0 -33.55 -0.35 -30.45 M-7.3 -31.7 L-6.85 -31.05 -3.25 -28.5"/><path fill="none" stroke="#000000" stroke-width="0.5" stroke-opacity="0.152941176471" d="M-12.95 -10.4 L-13.35 -15.95 -12.8 -24.15 -12.45 -24.45 -6.85 -31.05 M-12.95 -10.4 L-12.95 -9.85 -8.1 -7.5 M-4.25 -18.25 L-10.45 -9.75 M-11.05 -25.55 L-5.0 -21.7"/><path fill="none" stroke="#b8a99c" stroke-width="0.5" stroke-opacity="0.152941176471" d="M-4.45 -17.1 L-8.9 -10.7"/><path fill="none" stroke="#000000" stroke-width="0.5" stroke-opacity="0.2" d="M0.15 -17.7 L-0.35 -12.1 M-0.35 -30.45 L0.0 -27.6"/><path fill="none" stroke="#000000" stroke-width="0.5" stroke-opacity="0.301960784314" d="M0.0 -27.6 Q-3.25 -23.15 -5.5 -19.0 L0.15 -17.7"/><path fill="#000000" fill-opacity="0.101960784314" d="M0.05 -28.2 L0.1 -28.2 0.15 -28.05 0.05 -27.85 -0.15 -27.65 0.0 -27.5 0.1 -27.45 Q0.1 -27.2 -3.0 -23.45 -4.55 -23.35 -6.5 -24.5 L-8.85 -26.15 -8.85 -26.35 -8.55 -26.45 -7.25 -25.9 -3.85 -25.55 Q-2.2 -25.7 -1.15 -26.85 L0.05 -28.2"/><path fill="#000000" fill-opacity="0.101960784314" d="M-12.75 -2.4 Q-14.5 1.45 -15.3 1.45 -16.5 1.45 -17.95 -0.7 L-19.2 -2.85 Q-19.2 -3.95 -15.35 -7.8 -13.4 -9.8 -11.35 -9.15 -10.05 -8.7 -9.05 -7.5 -10.9 -6.65 -12.75 -2.4"/><path fill="#415152" stroke="none" d="M0.0 -21.9 Q0.95 -25.2 2.8 -27.3 L2.95 -27.15 2.8 -27.05 4.7 -22.35 4.7 -22.3 Q2.65 -21.4 0.0 -21.9"/><path fill="#12110f" stroke="none" d="M2.95 -27.15 Q5.15 -25.5 5.7 -22.65 4.55 -20.6 2.4 -19.0 4.15 -20.5 4.7 -22.3 L4.75 -22.35 4.7 -22.35 2.8 -27.05 2.95 -27.15"/><path fill="#ffffff" fill-opacity="0.301960784314" d="M4.7 -22.3 L4.7 -22.35 4.75 -22.35 4.7 -22.3"/><path fill="#3d3933" stroke="none" d="M2.4 -19.0 L0.0 -21.9 Q2.65 -21.4 4.7 -22.3 4.15 -20.5 2.4 -19.0"/><path fill="none" stroke="#000000" stroke-width="0.5" stroke-opacity="0.4" d="M0.0 -21.9 Q0.95 -25.2 2.8 -27.3 L2.95 -27.15 Q5.15 -25.5 5.7 -22.65 4.55 -20.6 2.4 -19.0 L0.0 -21.9"/><path fill="none" stroke="#000000" stroke-width="0.5" stroke-opacity="0.301960784314" d="M4.7 -22.3 L4.7 -22.35 4.75 -22.35 4.7 -22.3"/></g><g id="c47"><g><use transform="matrix(1.0,0.0,0.0,1.0,0.0,0.0)" xlink:href="#c46"/></g></g><g id="c48"><path fill="#4b483e" stroke="none" d="M-3.15 7.95 Q-8.85 4.0 -9.05 -3.85 -6.5 -8.15 -2.3 -8.0 7.2 -2.9 9.0 4.05 2.95 7.8 -3.15 7.95"/><path fill="none" stroke="#000000" stroke-width="0.5" stroke-opacity="0.4" d="M-3.15 7.95 Q-8.85 4.0 -9.05 -3.85 -6.5 -8.15 -2.3 -8.0 7.2 -2.9 9.0 4.05 2.95 7.8 -3.15 7.95"/><path fill="none" stroke="#000000" stroke-width="0.5" stroke-opacity="0.152941176471" d="M-5.45 2.15 L-2.6 5.25 Q-0.8 5.25 6.3 3.3 L6.35 3.3 4.65 1.0"/><path fill="#635f52" fill-opacity="0.760784313725" d="M6.7 1.85 L7.9 3.75 Q7.9 4.4 3.7 5.9 -0.55 7.4 -2.5 7.4 -3.45 7.4 -3.3 6.85 L-3.1 6.4 -3.85 5.4 -3.65 5.25 -3.1 5.65 -2.55 6.0 Q-1.0 6.0 2.45 4.8 L6.2 3.4 5.5 1.65 Q5.5 0.25 6.7 1.85"/><path fill="#aba48e" fill-opacity="0.43137254902" d="M4.6 4.55 L4.65 4.85 3.8 5.7 Q3.3 5.7 3.3 5.1 3.3 4.5 4.25 4.5 L4.6 4.55"/></g><g id="c49"><g><use transform="matrix(1.0,0.0,0.0,1.0,0.0,0.0)" xlink:href="#c48"/></g></g><g id="c50"><g><use transform="matrix(1.29431152344,0.0,0.0,0.685073852539,-1.8,-0.65)" filter="url(#filter31)" xlink:href="#c45"/></g><g><use transform="matrix(0.576690673828,0.0,0.0,0.305236816406,23.85,-5.4)" filter="url(#filter32)" xlink:href="#c45"/></g><g><use transform="matrix(-1.0,0.0,0.0,1.0,26.2,-31.85)" xlink:href="#c43"/></g><g><use transform="matrix(-1.0,0.0,0.0,1.0,23.25,-36.85)" xlink:href="#c41"/></g><g><use transform="matrix(-1.0,0.0,0.0,1.0,23.9,-57.4)" xlink:href="#c47"/></g><g><use transform="matrix(-1.0,0.0,0.0,1.0,28.7,-31.5)" xlink:href="#c39"/></g><g><use transform="matrix(-1.0,0.0,0.0,1.0,11.45,-5.55)" xlink:href="#c37"/></g><g><use transform="matrix(-1.0,0.0,0.0,1.0,9.35,-9.8)" xlink:href="#c35"/></g><g><use transform="matrix(-1.0,0.0,0.0,1.0,12.15,-21.75)" xlink:href="#c33"/></g><g><use transform="matrix(-1.0,0.0,0.0,1.0,12.7,-13.0)" xlink:href="#c31"/></g><g><use transform="matrix(-1.0,0.0,0.0,1.0,-9.15,0.5)" xlink:href="#c29"/></g><g><use transform="matrix(-1.0,0.0,0.0,1.0,-8.1,-3.3)" xlink:href="#c27"/></g><g><use transform="matrix(-1.0,0.0,0.0,1.0,-1.6,-17.4)" xlink:href="#c25"/></g><g><use transform="matrix(-1.0,0.0,0.0,1.0,-5.85,-6.05)" xlink:href="#c23"/></g><g><use transform="matrix(-1.0,0.0,0.0,1.0,-3.05,-20.8)" xlink:href="#c21"/></g><g><use transform="matrix(-1.0,0.0,0.0,1.0,1.1,-13.3)" xlink:href="#c49"/></g><g><use transform="matrix(-1.0,0.0,0.0,1.0,-17.75,-10.0)" xlink:href="#c19"/></g><g><use transform="matrix(-1.0,0.0,0.0,1.0,-18.25,-14.0)" xlink:href="#c17"/></g><g><use transform="matrix(-1.0,0.0,0.0,1.0,-10.25,-25.55)" xlink:href="#c15"/></g><g><use transform="matrix(-1.0,0.0,0.0,1.0,-1.95,-44.55)" xlink:href="#c13"/></g></g><filter id="filter31"><feColorMatrix in="SourceGraphic" type="matrix" values="1.0 0.0 0.0 0.0 0.0 0.0 1.0 0.0 0.0 0.0 0.0 0.0 1.0 0.0 0.0 0.0 0.0 0.0 0.73828125 0.0" result="cxform"/><feComposite operator="in" in2="SourceGraphic" result="color-xform"/></filter><filter id="filter32"><feColorMatrix in="SourceGraphic" type="matrix" values="1.0 0.0 0.0 0.0 0.0 0.0 1.0 0.0 0.0 0.0 0.0 0.0 1.0 0.0 0.0 0.0 0.0 0.0 0.73828125 0.0" result="cxform"/><feComposite operator="in" in2="SourceGraphic" result="color-xform"/></filter><g id="c51"><path fill="#000000" fill-opacity="0.00392156862745" d="M0.0 0.0 L60.0 0.0 60.0 60.0 0.0 60.0 0.0 0.0"/></g><g id="c52"><path fill="none" stroke="#000000" stroke-width="1.0" stroke-opacity="0.301960784314" d="M0.7 12.25 Q-0.45 9.75 0.75 8.25 1.2 7.6 2.15 7.15 2.8 6.7 3.8 6.35 L17.5 1.95 30.2 7.0 41.35 31.7 Q42.95 35.15 40.2 36.7 39.5 37.3 38.3 37.65 L25.5 41.8 25.45 41.75 24.55 42.0 11.85 37.0 0.7 12.25"/><path fill="#9d147b" stroke="none" d="M35.55 22.3 L31.5 13.2 29.75 9.2 16.95 4.25 5.5 7.85 Q1.65 9.1 3.35 12.8 L8.25 23.65 13.1 34.35 25.8 39.4 37.2 35.7 Q41.1 34.5 39.35 30.75 L35.55 22.3 M5.45 20.95 L1.35 11.8 Q0.4 9.65 1.1 8.3 1.45 7.65 2.15 7.15 2.8 6.7 3.8 6.35 L17.5 1.95 30.2 7.0 41.35 31.7 Q42.95 35.15 40.2 36.7 L38.9 37.25 25.2 41.65 12.5 36.65 5.45 20.95"/><path fill="#c47fad" stroke="none" d="M31.5 13.2 L35.55 22.3 39.35 30.75 Q41.1 34.5 37.2 35.7 L25.8 39.4 13.1 34.35 8.25 23.65 3.35 12.8 Q1.65 9.1 5.5 7.85 L16.95 4.25 29.75 9.2 31.5 13.2 M18.5 7.45 L9.1 10.55 9.55 11.6 Q9.8 12.8 9.15 13.6 8.4 14.45 7.1 14.4 L6.8 14.4 6.95 14.6 15.2 32.75 23.85 36.2 34.0 32.9 33.7 32.1 Q33.45 30.9 34.1 30.1 34.75 29.3 35.95 29.35 L35.8 29.0 27.75 10.95 18.5 7.45"/><path fill="#fcf2cf" stroke="none" d="M27.75 10.95 L35.8 29.0 35.95 29.35 Q34.75 29.3 34.1 30.1 33.45 30.9 33.7 32.1 L34.0 32.9 23.85 36.2 15.2 32.75 6.95 14.6 6.8 14.4 7.1 14.4 Q8.4 14.45 9.15 13.6 9.8 12.8 9.55 11.6 L9.1 10.55 18.5 7.45 27.75 10.95"/><path fill="#630a4c" stroke="none" d="M1.1 8.3 L0.75 8.25 Q1.2 7.6 2.15 7.15 1.45 7.65 1.1 8.3 M4.6 20.9 L5.45 20.95 12.5 36.65 11.55 36.25 11.25 35.55 4.6 20.9"/><path fill="#300525" stroke="none" d="M1.1 8.3 Q0.4 9.65 1.35 11.8 L5.45 20.95 4.6 20.9 0.7 12.25 Q-0.45 9.75 0.75 8.25 L1.1 8.3 M12.5 36.65 L25.2 41.65 38.9 37.25 40.2 36.7 Q39.5 37.3 38.3 37.65 L25.5 41.8 25.45 41.75 24.55 42.0 11.85 37.0 11.55 36.25 12.5 36.65"/><path fill="none" stroke="#bf9900" stroke-width="1.0" stroke-opacity="0.749019607843" d="M31.5 13.2 L35.55 22.3 M13.1 34.35 L8.25 23.65"/><path fill="none" stroke="#ffcc00" stroke-width="1.0" stroke-opacity="0.749019607843" d="M35.55 22.3 L39.35 30.75 Q41.1 34.5 37.2 35.7 L25.8 39.4 M8.25 23.65 L3.35 12.8 Q1.65 9.1 5.5 7.85 L16.95 4.25 29.75 9.2 31.5 13.2"/><path fill="none" stroke="#f0b92b" stroke-width="0.5" d="M27.75 10.95 L35.8 29.0 35.95 29.35 Q34.75 29.3 34.1 30.1 33.45 30.9 33.7 32.1 L34.0 32.9 23.85 36.2 15.2 32.75 6.95 14.6 6.8 14.4 7.1 14.4 Q8.4 14.45 9.15 13.6 9.8 12.8 9.55 11.6 L9.1 10.55 18.5 7.45"/><path fill="none" stroke="#000000" stroke-width="0.5" stroke-opacity="0.301960784314" d="M5.45 20.95 L1.35 11.8 Q0.4 9.65 1.1 8.3 M0.75 8.25 Q-0.45 9.75 0.7 12.25 L4.6 20.9 M5.45 20.95 L12.5 36.65 M25.2 41.65 L38.9 37.25 40.2 36.7 Q42.95 35.15 41.35 31.7 L30.2 7.0 M17.5 1.95 L3.8 6.35 Q2.8 6.7 2.15 7.15 1.45 7.65 1.1 8.3 M0.75 8.25 Q1.2 7.6 2.15 7.15 M11.25 35.55 L4.6 20.9 M25.5 41.8 L38.3 37.65 Q39.5 37.3 40.2 36.7"/><path fill="none" stroke="#ffcc00" stroke-width="0.5" stroke-opacity="0.749019607843" d="M18.5 7.45 L27.75 10.95"/><path fill="none" stroke="#f0b92b" stroke-width="1.0" stroke-opacity="0.749019607843" d="M25.8 39.4 L13.1 34.35"/><path fill="none" stroke="#432f2f" stroke-width="0.5" d="M12.5 36.65 L25.2 41.65"/></g><g id="c53"><path fill="#7fdbfe" stroke="none" d="M10.75 4.9 Q10.75 4.6 10.9 4.35 11.25 3.45 11.95 2.75 13.3 1.5 14.35 2.1 15.4 2.7 14.95 4.45 14.7 5.4 14.1 6.15 L13.75 6.5 Q13.1 7.15 12.35 7.35 L11.4 7.2 Q10.95 6.9 10.75 6.4 10.5 5.75 10.75 4.9 M7.5 5.9 Q7.0 5.85 6.6 5.5 6.05 5.0 5.8 4.15 L5.7 3.6 Q5.55 2.65 5.8 1.7 6.25 0.0 7.5 0.0 L7.6 0.0 Q8.85 0.0 9.3 1.7 9.55 2.65 9.4 3.6 L9.3 4.15 8.5 5.5 7.6 5.9 7.5 5.9 M4.35 4.9 Q4.6 5.75 4.35 6.4 L3.7 7.2 2.75 7.35 Q2.0 7.15 1.35 6.5 L1.0 6.15 Q0.4 5.4 0.15 4.45 -0.3 2.7 0.75 2.1 1.8 1.5 3.15 2.75 3.85 3.45 4.2 4.35 L4.35 4.9 M5.5 13.7 Q4.45 13.9 3.65 12.95 2.75 12.0 3.2 10.25 3.7 8.5 5.25 7.6 6.4 6.9 7.55 7.0 8.75 6.9 9.9 7.6 11.45 8.5 11.95 10.25 12.35 12.0 11.5 12.95 10.7 13.9 9.65 13.7 8.55 13.5 7.55 12.6 6.55 13.5 5.5 13.7"/></g><g id="c54"><g><use transform="matrix(1.0,0.0,0.0,1.0,0.0,0.0)" xlink:href="#c53"/></g></g><radialGradient gradientUnits="userSpaceOnUse" r="819.2" cx="0" cy="0" spreadMethod="pad" gradientTransform="matrix(0.0914459228516,0.0,0.0,0.0914459228516,0.6,3.4)" id="gradient8"><stop offset="0.0" stop-color="#ffffff"/><stop offset="1.0" stop-color="#ffffff" stop-opacity="0.0"/></radialGradient><g id="c55"><path stroke="none" fill="url(#gradient8)" d="M36.65 -54.65 Q60.05 -42.0 69.75 -17.95 80.55 8.9 68.0 34.1 55.45 59.35 26.8 68.2 -1.8 77.05 -29.7 64.3 -57.6 51.6 -68.45 24.75 -79.3 -2.05 -66.75 -27.25 L-66.7 -27.3 Q-54.1 -52.5 -25.5 -61.4 3.1 -70.2 31.0 -57.5 L36.65 -54.65"/></g><g id="c56"><g><use transform="matrix(1.0,0.0,0.0,1.0,0.0,0.0)" xlink:href="#c55"/></g></g><radialGradient gradientUnits="userSpaceOnUse" r="819.2" cx="0" cy="0" spreadMethod="pad" gradientTransform="matrix(0.209197998047,0.0,0.0,0.177108764648,67.15,107.2)" id="gradient9"><stop offset="0.356862745098" stop-color="#ffffff"/><stop offset="0.670588235294" stop-opacity="0.0"/></radialGradient><g id="c57"><path fill="none" stroke-linejoin="round" stroke-linecap="round" stroke="url(#gradient9)" stroke-width="0.5" d="M136.55 165.8 L68.6 106.0 68.4 106.0 118.25 201.5 M68.3 105.8 L68.35 105.8 68.3 105.8 68.3 105.85 68.4 106.0 68.3 106.0 86.55 211.5 M68.3 105.8 L68.3 105.85 68.3 106.0 68.15 105.95 18.25 151.55 M68.3 105.85 L68.25 105.85 68.3 106.0 50.0 193.2 M68.25 105.85 L68.15 105.95 0.05 97.7 M68.3 105.85 L68.25 105.8 68.25 105.85 M68.25 105.8 L68.2 105.7 0.0 45.7 M68.3 105.8 L68.25 105.75 68.25 105.8 M68.25 105.75 L68.2 105.7 18.25 10.05 M68.6 106.0 L68.35 105.8 118.25 60.15 M86.6 18.35 L68.3 105.8 M136.6 114.25 L68.6 106.0 M68.25 105.75 L49.95 0.05"/></g><g id="c58"><g><use transform="matrix(1.0,0.0,0.0,1.0,0.0,0.0)" xlink:href="#c57"/></g></g><g id="c59"><g><use transform="matrix(1.0,0.0,0.0,1.0,0.0,0.0)" xlink:href="#c52"/></g><g><use transform="matrix(0.238861083984,-0.0867004394531,0.10026550293,0.233917236328,34.25,31.15)" xlink:href="#c54"/></g><g><use transform="matrix(0.238861083984,-0.0867004394531,0.10026550293,0.233917236328,4.25,10.3)" xlink:href="#c54"/></g><g><use transform="matrix(0.141098022461,-0.0378112792969,0.111373901367,0.225646972656,20.25,20.65)" filter="url(#filter57)" xlink:href="#c56"/></g><g><use transform="matrix(-0.155029296875,0.0513153076172,0.0841827392578,0.147033691406,22.6,3.15)" filter="url(#filter58)" xlink:href="#c58"/></g></g><filter id="filter57"><feColorMatrix in="SourceGraphic" type="matrix" values="0.0 0.0 0.0 0.0 0.796875 0.0 0.0 0.0 0.0 0.59765625 0.0 0.0 0.0 0.0 0.19921875 0.0 0.0 0.0 1.0 0.0" result="cxform"/><feComposite operator="in" in2="SourceGraphic" result="color-xform"/></filter><filter id="filter58"><feColorMatrix in="SourceGraphic" type="matrix" values="0.0 0.0 0.0 0.0 0.99609375 0.0 0.0 0.0 0.0 0.99609375 0.0 0.0 0.0 0.0 0.99609375 0.0 0.0 0.0 1.0 0.0" result="cxform"/><feComposite operator="in" in2="SourceGraphic" result="color-xform"/></filter><filter id="filter62"><feColorMatrix in="SourceGraphic" type="matrix" values="1.0 0.0 0.0 0.0 0.0 0.0 1.0 0.0 0.0 0.0 0.0 0.0 1.0 0.0 0.0 0.0 0.0 0.0 0.23046875 0.0" result="cxform"/><feComposite operator="in" in2="SourceGraphic" result="color-xform"/></filter></defs><g><g><use transform="matrix(1.0,0.0,0.0,1.0,0.0,0.0)" xlink:href="#c51"/></g><g><use transform="matrix(1.15496826172,0.0,0.0,1.15496826172,5.85,4.8)" xlink:href="#c59"/></g><g><use transform="matrix(0.199432373047,-0.0770263671875,0.0770263671875,0.199432373047,32.8,40.35)" xlink:href="#c50"/></g><g><use transform="matrix(0.162948608398,-0.0436706542969,0.128631591797,0.260604858398,30.0,28.7)" filter="url(#filter62)" xlink:href="#c56"/></g></g></svg>