<?xml version='1.0' encoding='UTF-8'?>
<svg xmlns:xlink="http://www.w3.org/1999/xlink" xmlns="http://www.w3.org/2000/svg" version="1.1" width="60px" height="60px" viewBox="0.0 0.0 60.0 60.0"><defs><radialGradient gradientUnits="userSpaceOnUse" r="819.2" cx="0" cy="0" spreadMethod="pad" gradientTransform="matrix(0.0171966552734,0.0,0.0,0.0171966552734,0.0,0.0)" id="gradient1"><stop offset="0.588235294118" stop-color="#0e171d"/><stop offset="1.0" stop-color="#101a24" stop-opacity="0.0"/></radialGradient><g id="c1"><path stroke="none" fill="url(#gradient1)" d="M10.4 -10.45 Q14.75 -6.1 14.75 0.0 14.75 6.1 10.4 10.4 6.1 14.75 0.0 14.75 -6.1 14.75 -10.45 10.4 -14.75 6.1 -14.75 0.0 -14.75 -6.1 -10.45 -10.45 -6.1 -14.75 0.0 -14.75 6.1 -14.75 10.4 -10.45"/></g><g id="c2"><g><use transform="matrix(1.0,0.0,0.0,1.0,0.0,0.0)" xlink:href="#c1"/></g></g><g id="c3"><path fill="#2b2e05" stroke="none" d="M0.4 4.85 L0.15 4.05 Q-0.15 2.7 0.2 2.4 L0.45 2.1 1.35 1.4 1.5 1.35 Q3.1 0.15 3.75 0.0 4.5 -0.15 4.55 1.35 L6.6 1.0 Q7.1 0.85 6.75 2.15 L8.8 2.3 Q9.65 2.55 7.95 3.35 L7.35 3.6 6.05 4.25 3.4 5.7 Q2.0 6.05 0.4 4.9 L0.4 4.85 0.4 4.9 0.35 4.85 0.4 4.85"/><path fill="none" stroke="#32251b" stroke-width="0.5" stroke-opacity="0.450980392157" d="M3.4 5.7 L6.05 4.25 7.35 3.6 7.95 3.35 Q9.65 2.55 8.8 2.3 L6.75 2.15 Q7.1 0.85 6.6 1.0 L4.55 1.35 Q4.5 -0.15 3.75 0.0 3.1 0.15 1.5 1.35 L1.35 1.4 0.45 2.1 0.2 2.4 Q-0.15 2.7 0.15 4.05 L0.4 4.85 0.4 4.9"/></g><g id="c4"><g><use transform="matrix(1.0,0.0,0.0,1.0,0.0,0.0)" xlink:href="#c3"/></g></g><g id="c5"><path fill="#262504" stroke="none" d="M9.6 2.9 Q9.65 4.2 8.85 5.5 8.3 6.7 7.1 7.65 L7.05 7.75 4.85 9.55 4.7 9.65 4.6 9.7 0.0 9.25 0.1 8.75 Q0.2 7.5 0.85 6.2 1.5 4.9 2.55 3.8 3.25 2.95 4.2 2.6 7.8 7.15 9.6 2.9"/><path fill="#2b2e05" stroke="none" d="M9.6 2.9 Q7.8 7.15 4.2 2.6 L4.35 2.5 Q5.85 -0.95 8.7 0.4 L8.7 0.45 Q9.4 1.3 9.6 2.45 L9.6 2.8 9.6 2.9"/><path fill="#135339" stroke="none" d="M4.6 9.7 L4.7 9.65 4.7 9.7 4.6 9.7"/><path fill="none" stroke="#32251b" stroke-width="0.5" stroke-opacity="0.450980392157" d="M4.7 9.65 L4.85 9.55 7.05 7.75 7.1 7.65 Q8.3 6.7 8.85 5.5 9.65 4.2 9.6 2.9 L9.6 2.8 9.6 2.45 Q9.4 1.3 8.7 0.45 L8.7 0.4 M4.2 2.6 Q3.25 2.95 2.55 3.8 1.5 4.9 0.85 6.2 0.2 7.5 0.1 8.75 L0.0 9.25 M4.6 9.7 L4.7 9.65 M4.7 9.7 L4.85 9.55 M4.35 2.5 L4.2 2.6"/></g><g id="c6"><g><use transform="matrix(1.0,0.0,0.0,1.0,0.0,0.0)" xlink:href="#c5"/></g></g><g id="c7"><path fill="#262504" stroke="none" d="M0.0 2.6 Q2.75 0.15 5.6 0.05 L5.65 0.05 Q6.9 -0.15 7.75 0.7 L8.0 1.6 Q8.2 2.35 5.7 4.3 3.1 7.15 0.75 5.55 0.0 4.25 0.0 2.6"/><path fill="none" stroke="#32251b" stroke-width="0.5" stroke-opacity="0.450980392157" d="M0.0 2.6 Q2.75 0.15 5.6 0.05 L5.65 0.05 Q6.9 -0.15 7.75 0.7"/></g><g id="c8"><g><use transform="matrix(1.0,0.0,0.0,1.0,0.0,0.0)" xlink:href="#c7"/></g></g><g id="c9"><path fill="#2b2e05" stroke="none" d="M0.0 2.1 Q1.45 0.55 2.45 0.25 L3.45 0.0 3.85 0.1 Q5.0 1.05 5.7 2.45 6.45 3.9 6.4 5.65 L6.05 6.0 4.25 7.45 Q0.85 8.5 0.3 4.3 L0.0 2.1"/><path fill="none" stroke="#32251b" stroke-width="0.5" stroke-opacity="0.450980392157" d="M3.85 0.1 Q5.0 1.05 5.7 2.45 6.45 3.9 6.4 5.65 L6.05 6.0 4.25 7.45 M0.3 4.3 L0.0 2.1"/></g><g id="c10"><g><use transform="matrix(1.0,0.0,0.0,1.0,0.0,0.0)" xlink:href="#c9"/></g></g><g id="c11"><path fill="#94b268" fill-opacity="0.501960784314" d="M5.25 2.45 L5.7 1.75 6.35 1.9 Q7.0 2.2 7.1 2.7 7.3 3.2 6.95 3.75 L6.05 4.4 5.05 4.35 Q4.55 4.15 4.25 3.55 L4.75 3.05 5.8 3.5 4.75 3.05 5.25 2.45 6.45 2.85 5.25 2.45"/><path fill="none" stroke="#32251b" stroke-width="0.5" stroke-opacity="0.450980392157" d="M4.75 3.05 L4.25 3.55 Q4.55 4.15 5.05 4.35 L6.05 4.4 6.95 3.75 Q7.3 3.2 7.1 2.7 7.0 2.2 6.35 1.9 L5.7 1.75 5.25 2.45 6.45 2.85 M4.75 3.05 L5.8 3.5 M5.25 2.45 L4.75 3.05"/><path fill="#2b2e05" stroke="none" d="M0.9 4.7 L0.0 4.75 Q0.3 3.5 1.3 3.7 1.85 4.3 0.9 4.7"/><path fill="none" stroke="#32251b" stroke-width="0.5" stroke-opacity="0.450980392157" d="M0.9 4.7 L0.0 4.75 Q0.3 3.5 1.3 3.7"/><path fill="#475209" stroke="none" d="M1.0 3.15 Q0.6 -0.05 2.65 0.0 L3.2 0.6 3.2 1.4 2.65 2.55 2.3 2.9 1.55 3.25 1.0 3.15"/><path fill="#2b2e05" stroke="none" d="M1.0 3.15 L1.55 3.25 2.3 2.9 2.65 2.55 3.2 1.4 3.2 0.6 2.65 0.0 Q3.5 -0.05 4.75 0.45 5.85 0.95 6.85 1.6 6.1 3.45 4.3 5.0 L1.35 4.75 1.0 3.15"/><path fill="none" stroke="#32251b" stroke-width="0.5" stroke-opacity="0.450980392157" d="M2.65 0.0 Q0.6 -0.05 1.0 3.15 M2.65 0.0 Q3.5 -0.05 4.75 0.45 M6.85 1.6 Q6.1 3.45 4.3 5.0 M1.35 4.75 L1.0 3.15"/><path fill="#2b2e05" stroke="none" d="M2.55 3.95 L2.95 4.45 Q3.5 4.0 4.3 4.1 L4.8 4.45 Q4.15 5.1 2.4 5.45 L2.7 4.85 0.95 5.25 Q1.55 3.75 2.55 3.95 M2.7 4.85 L2.95 4.45 2.7 4.85"/><path fill="none" stroke="#32251b" stroke-width="0.5" stroke-opacity="0.450980392157" d="M2.95 4.45 Q3.5 4.0 4.3 4.1 M4.8 4.45 Q4.15 5.1 2.4 5.45 L2.7 4.85 0.95 5.25 Q1.55 3.75 2.55 3.95 M2.95 4.45 L2.7 4.85"/></g><g id="c12"><g><use transform="matrix(1.0,0.0,0.0,1.0,0.0,0.0)" xlink:href="#c11"/></g></g><g id="c13"><path fill="#4b4b12" stroke="none" d="M0.0 15.9 L0.0 15.65 Q0.3 8.8 5.15 0.5 10.25 -0.95 12.35 1.9 11.35 3.65 10.7 5.45 L10.65 5.65 Q-1.4 7.8 0.75 22.0 0.15 20.05 0.05 18.05 L0.0 15.9"/><path fill="#1f1e03" stroke="none" d="M10.65 5.65 Q8.9 10.35 9.45 15.1 L9.6 16.2 Q3.0 16.5 5.2 22.5 L5.0 22.75 Q3.75 24.2 2.75 26.25 1.45 24.2 0.75 22.0 -1.4 7.8 10.65 5.65"/><path fill="#2b2e05" stroke="none" d="M9.6 16.2 L10.35 19.4 Q7.4 20.05 5.2 22.5 3.0 16.5 9.6 16.2"/><path fill="none" stroke="#000000" stroke-width="0.5" stroke-opacity="0.301960784314" d="M0.0 15.9 L0.0 15.65 Q0.3 8.8 5.15 0.5 10.25 -0.95 12.35 1.9 11.35 3.65 10.7 5.45 M10.65 5.65 Q8.9 10.35 9.45 15.1 L9.6 16.2 10.35 19.4 M2.75 26.25 Q1.45 24.2 0.75 22.0 0.15 20.05 0.05 18.05"/></g><g id="c14"><g><use transform="matrix(1.0,0.0,0.0,1.0,0.0,0.0)" xlink:href="#c13"/></g></g><g id="c15"><path fill="#1f1e03" stroke="none" d="M10.1 1.7 Q5.15 4.35 6.0 10.55 3.45 9.55 1.85 9.7 1.15 1.9 10.1 1.7"/><path fill="#2b2e05" stroke="none" d="M10.1 1.7 Q1.15 1.9 1.85 9.7 0.7 9.85 0.0 10.55 -0.3 -0.4 8.8 0.0 11.1 0.3 10.2 1.6 L10.1 1.7"/><path fill="none" stroke="#000000" stroke-width="0.5" stroke-opacity="0.301960784314" d="M1.85 9.7 Q3.45 9.55 6.0 10.55 5.15 4.35 10.1 1.7 M1.85 9.7 Q0.7 9.85 0.0 10.55 -0.3 -0.4 8.8 0.0 11.1 0.3 10.2 1.6 L10.1 1.7"/></g><g id="c16"><g><use transform="matrix(1.0,0.0,0.0,1.0,0.0,0.0)" xlink:href="#c15"/></g></g><g id="c17"><path fill="#959522" stroke="none" d="M4.85 0.15 L5.05 0.2 Q13.85 1.65 17.7 13.75 16.25 15.3 14.25 15.2 12.0 9.3 6.2 3.4 3.9 1.05 4.85 0.15"/><path fill="#616116" stroke="none" d="M9.95 13.7 Q8.35 5.55 0.65 2.1 -1.05 0.4 1.75 0.0 L4.85 0.15 Q3.9 1.05 6.2 3.4 12.0 9.3 14.25 15.2 12.4 15.1 10.15 13.7 L9.95 13.7"/><path fill="none" stroke="#000000" stroke-width="0.5" stroke-opacity="0.301960784314" d="M9.95 13.7 Q8.35 5.55 0.65 2.1 -1.05 0.4 1.75 0.0 L4.85 0.15 M5.05 0.2 Q13.85 1.65 17.7 13.75"/></g><g id="c18"><g><use transform="matrix(1.0,0.0,0.0,1.0,0.0,0.0)" xlink:href="#c17"/></g></g><g id="c19"><path fill="#1f1e03" stroke="none" d="M0.0 0.1 Q1.75 1.15 6.0 0.0 5.7 4.2 11.15 5.95 12.15 6.75 9.9 7.0 0.9 7.2 0.0 0.1"/><path fill="none" stroke="#000000" stroke-width="0.5" stroke-opacity="0.301960784314" d="M6.0 0.0 Q5.7 4.2 11.15 5.95 12.15 6.75 9.9 7.0 0.9 7.2 0.0 0.1"/></g><g id="c20"><g><use transform="matrix(1.0,0.0,0.0,1.0,0.0,0.0)" xlink:href="#c19"/></g></g><g id="c21"><path fill="#1f1e03" stroke="none" d="M0.9 2.35 Q4.4 3.5 5.6 0.1 6.35 -0.4 6.9 1.3 8.05 7.9 0.65 6.45 -0.75 5.45 0.9 2.35"/><path fill="none" stroke="#000000" stroke-width="0.5" stroke-opacity="0.301960784314" d="M0.9 2.35 Q4.4 3.5 5.6 0.1 6.35 -0.4 6.9 1.3 8.05 7.9 0.65 6.45"/></g><g id="c22"><g><use transform="matrix(1.0,0.0,0.0,1.0,0.0,0.0)" xlink:href="#c21"/></g></g><g id="c23"><path fill="#2b2e05" stroke="none" d="M0.7 1.45 L2.15 1.05 7.75 0.0 Q8.7 2.55 10.9 4.35 14.6 6.7 19.65 8.2 L21.25 8.65 Q22.2 9.15 22.3 10.05 L19.95 18.55 Q18.15 20.15 13.8 20.15 L9.95 19.85 9.25 19.55 8.85 19.3 8.65 19.25 8.55 19.2 8.35 19.05 8.25 19.0 8.05 18.95 Q4.9 17.4 2.95 13.9 L1.75 11.65 Q-1.0 5.6 0.7 1.45"/><path fill="none" stroke="#000000" stroke-width="0.5" stroke-opacity="0.301960784314" d="M0.7 1.45 Q-1.0 5.6 1.75 11.65 M8.05 18.95 L8.25 19.0 8.35 19.05 8.55 19.2 8.65 19.25 8.85 19.3 9.25 19.55 9.95 19.85 13.8 20.15 Q18.15 20.15 19.95 18.55 M22.3 10.05 Q22.2 9.15 21.25 8.65 L19.65 8.2 Q14.6 6.7 10.9 4.35 8.7 2.55 7.75 0.0"/><path fill="#000000" fill-opacity="0.341176470588" d="M0.65 1.45 L2.1 1.05 Q1.8 1.35 2.45 3.7 L4.05 6.2 Q4.4 7.75 3.75 9.35 5.05 12.95 8.85 15.45 L12.0 16.5 12.05 15.5 13.0 12.65 Q13.8 10.25 16.6 9.0 17.9 8.45 19.55 8.15 L21.25 8.65 Q22.15 9.1 22.25 10.0 L19.85 18.55 Q18.0 20.1 13.75 20.1 L9.9 19.8 Q4.4 17.55 1.65 11.65 L1.75 11.65 Q-1.1 5.55 0.65 1.45"/></g><g id="c24"><g><use transform="matrix(1.0,0.0,0.0,1.0,0.0,0.0)" xlink:href="#c23"/></g></g><g id="c25"><path fill="#5a630c" stroke="none" d="M9.35 1.1 L9.45 1.9 Q9.65 3.3 9.15 3.6 L8.95 3.95 7.9 4.65 Q7.75 4.65 7.7 4.75 L5.2 6.1 Q4.4 6.15 4.55 4.55 L2.35 4.9 Q1.85 4.95 2.35 3.6 L0.25 3.3 Q-0.5 3.05 1.2 2.3 L1.95 1.95 3.3 1.4 6.3 0.05 Q7.8 -0.25 9.35 1.0 L9.35 1.1"/><path fill="#010154" stroke="none" d="M9.35 1.1 L9.35 1.0 9.4 1.1 9.35 1.1"/><path fill="none" stroke="#32251b" stroke-width="0.5" stroke-opacity="0.450980392157" d="M6.3 0.05 L3.3 1.4 1.95 1.95 1.2 2.3 Q-0.5 3.05 0.25 3.3 L2.35 3.6 Q1.85 4.95 2.35 4.9 L4.55 4.55 Q4.4 6.15 5.2 6.1 L7.7 4.75 Q7.75 4.65 7.9 4.65 L8.95 3.95 9.15 3.6 Q9.65 3.3 9.45 1.9 L9.35 1.1 9.35 1.0"/></g><g id="c26"><g><use transform="matrix(1.0,0.0,0.0,1.0,0.0,0.0)" xlink:href="#c25"/></g></g><g id="c27"><path fill="#2b2e05" stroke="none" d="M0.35 1.3 L0.4 1.25 Q1.05 0.3 2.35 0.05 L2.45 0.05 Q5.4 -0.35 8.35 1.55 L8.4 1.65 Q8.4 3.3 7.45 4.8 4.95 7.0 2.3 4.65 -0.15 3.1 0.0 2.35 L0.35 1.3"/><path fill="none" stroke="#32251b" stroke-width="0.5" stroke-opacity="0.450980392157" d="M8.4 1.65 L8.35 1.55 Q5.4 -0.35 2.45 0.05 L2.35 0.05 Q1.05 0.3 0.4 1.25 L0.35 1.3"/></g><g id="c28"><g><use transform="matrix(1.0,0.0,0.0,1.0,0.0,0.0)" xlink:href="#c27"/></g></g><g id="c29"><path fill="#475209" stroke="none" d="M5.1 8.8 L4.85 8.9 3.6 8.4 2.75 7.6 2.65 7.3 2.55 7.25 Q1.35 6.55 0.75 5.35 -0.15 4.05 0.05 2.6 0.05 1.2 0.85 0.0 L1.0 0.0 5.4 1.3 Q6.5 1.55 7.25 2.25 8.4 3.2 9.05 4.4 9.7 5.6 9.95 6.8 L10.0 7.35 5.1 8.8 M4.9 8.0 Q3.7 7.95 2.65 7.3 3.7 7.95 4.9 8.0 M2.55 2.25 L2.65 2.8 2.4 3.25 2.2 3.5 1.6 3.55 1.45 3.5 1.3 3.5 1.0 3.05 0.85 2.5 1.25 2.1 1.7 2.15 1.95 2.3 1.95 2.8 1.95 2.3 1.7 2.15 1.25 2.1 0.85 2.5 1.0 3.05 1.3 3.5 1.45 3.5 1.6 3.55 2.2 3.5 2.4 3.25 2.65 2.8 2.55 2.25"/><path fill="none" stroke="#32251b" stroke-width="0.5" stroke-opacity="0.450980392157" d="M5.1 8.8 L4.85 8.9 3.6 8.4 2.75 7.6 2.65 7.3 2.55 7.25 Q1.35 6.55 0.75 5.35 -0.15 4.05 0.05 2.6 0.05 1.2 0.85 0.0 L1.0 0.0 M5.4 1.3 Q6.5 1.55 7.25 2.25 8.4 3.2 9.05 4.4 9.7 5.6 9.95 6.8 L10.0 7.35 M1.95 2.8 L1.95 2.3 1.7 2.15 1.25 2.1 0.85 2.5 1.0 3.05 1.3 3.5 1.45 3.5 1.6 3.55 2.2 3.5 2.4 3.25 2.65 2.8 2.55 2.25 M2.65 7.3 Q3.7 7.95 4.9 8.0"/></g><g id="c30"><g><use transform="matrix(1.0,0.0,0.0,1.0,0.0,0.0)" xlink:href="#c29"/></g></g><g id="c31"><path fill="#2b2e05" stroke="none" d="M8.45 3.6 L7.45 4.9 Q3.7 5.05 2.05 3.85 2.55 2.7 3.2 1.75 4.0 0.7 4.65 0.3 4.45 0.65 4.55 1.1 L4.95 1.7 6.1 2.5 6.55 2.6 7.45 2.4 7.8 2.05 8.45 3.6"/><path fill="#475209" stroke="none" d="M4.65 0.3 Q6.45 -0.8 7.8 2.05 L7.45 2.4 6.55 2.6 6.1 2.5 4.95 1.7 4.55 1.1 Q4.45 0.65 4.65 0.3"/><path fill="none" stroke="#32251b" stroke-width="0.5" stroke-opacity="0.450980392157" d="M7.45 4.9 Q3.7 5.05 2.05 3.85 M3.2 1.75 Q4.0 0.7 4.65 0.3 6.45 -0.8 7.8 2.05 L8.45 3.6"/><path fill="#68a310" fill-opacity="0.501960784314" d="M2.2 2.8 L0.9 3.55 2.2 2.8 3.0 3.45 3.7 3.9 Q3.55 4.75 3.05 5.15 2.55 5.55 1.85 5.45 1.1 5.35 0.5 4.8 -0.05 4.25 0.0 3.6 -0.05 2.95 0.65 2.4 L1.45 2.0 2.2 2.8 M1.85 4.25 L3.0 3.45 1.85 4.25"/><path fill="none" stroke="#32251b" stroke-width="0.5" stroke-opacity="0.450980392157" d="M0.9 3.55 L2.2 2.8 1.45 2.0 0.65 2.4 Q-0.05 2.95 0.0 3.6 -0.05 4.25 0.5 4.8 1.1 5.35 1.85 5.45 2.55 5.55 3.05 5.15 3.55 4.75 3.7 3.9 L3.0 3.45 1.85 4.25 M2.2 2.8 L3.0 3.45"/><path fill="#2b2e05" stroke="none" d="M7.65 4.8 Q7.15 4.4 7.35 3.75 8.1 2.85 9.6 4.1 L7.65 4.8"/><path fill="none" stroke="#32251b" stroke-width="0.5" stroke-opacity="0.450980392157" d="M7.35 3.75 Q8.1 2.85 9.6 4.1 L7.65 4.8"/></g><g id="c32"><g><use transform="matrix(1.0,0.0,0.0,1.0,0.0,0.0)" xlink:href="#c31"/></g></g><g id="c33"><path fill="#5a630c" stroke="none" d="M0.2 6.7 L0.15 6.6 0.0 6.35 Q0.35 4.45 1.3 2.8 2.3 1.25 3.6 0.2 L3.9 0.0 5.0 0.3 Q5.95 0.6 7.05 2.25 L6.9 2.55 Q3.7 5.9 0.15 6.6 L0.2 6.7"/><path fill="#454b0a" stroke="none" d="M0.2 6.7 L0.15 6.6 Q3.7 5.9 6.9 2.55 6.45 3.5 6.25 4.65 4.95 9.25 1.7 8.15 L0.2 6.7"/><path fill="none" stroke="#32251b" stroke-width="0.5" stroke-opacity="0.450980392157" d="M3.6 0.2 Q2.3 1.25 1.3 2.8 0.35 4.45 0.0 6.35 L0.15 6.6 0.2 6.7 1.7 8.15 M6.9 2.55 L7.05 2.25 M6.25 4.65 Q6.45 3.5 6.9 2.55"/></g><g id="c34"><g><use transform="matrix(1.0,0.0,0.0,1.0,0.0,0.0)" xlink:href="#c33"/></g></g><g id="c35"><path fill="#221100" stroke="none" d="M1.05 0.0 Q1.5 -0.05 2.0 0.35 L2.7 1.1 2.75 1.2 2.85 1.35 2.85 2.15 Q2.65 2.55 2.2 2.6 L1.2 2.25 1.0 2.1 0.65 1.7 0.5 1.35 Q0.25 0.8 0.35 0.45 0.55 0.05 1.05 0.0"/><path fill="none" stroke="#000000" stroke-width="0.5" d="M1.05 0.0 Q1.5 -0.05 2.0 0.35 L2.7 1.1 2.75 1.2 2.85 1.35 2.85 2.15 Q2.65 2.55 2.2 2.6 L1.2 2.25 1.0 2.1 0.65 1.7 0.5 1.35 Q0.25 0.8 0.35 0.45 0.55 0.05 1.05 0.0"/><path fill="#ffffff" stroke="none" d="M1.15 1.15 L0.85 1.35 0.35 1.2 0.1 0.95 0.1 0.6 0.45 0.5 0.9 0.55 1.2 0.85 1.15 1.15"/><path fill="#cbf468" stroke="none" d="M2.95 2.35 L2.6 2.6 2.05 2.6 1.75 2.3 Q1.65 2.1 1.8 1.95 1.95 1.75 2.2 1.7 L2.7 1.7 3.05 1.95 2.95 2.35"/></g><g id="c36"><g><use transform="matrix(1.0,0.0,0.0,1.0,0.0,0.0)" xlink:href="#c35"/></g></g><g id="c37"><path fill="#f9f4ec" stroke="none" d="M9.55 4.6 L9.7 5.15 9.55 6.5 Q9.1 8.6 7.35 9.25 5.65 9.9 3.65 8.8 2.1 8.0 1.15 6.55 5.65 7.45 9.55 4.6"/><path fill="#c4c980" stroke="none" d="M9.55 4.6 Q5.65 7.45 1.15 6.55 2.1 8.0 3.65 8.8 5.65 9.9 7.35 9.25 9.1 8.6 9.55 6.5 L9.7 5.15 Q10.2 6.8 9.95 8.3 9.5 10.45 7.75 11.15 6.05 11.8 4.0 10.6 1.95 9.5 0.85 7.25 L0.15 5.1 0.05 3.5 0.2 2.85 Q0.65 0.8 2.35 0.15 4.1 -0.55 6.15 0.55 8.1 1.7 9.25 4.0 L9.4 4.25 9.55 4.6"/><path fill="none" stroke="#000000" stroke-width="0.5" stroke-opacity="0.501960784314" d="M9.7 5.15 L9.55 4.6 M9.7 5.15 Q10.2 6.8 9.95 8.3 9.5 10.45 7.75 11.15 6.05 11.8 4.0 10.6 1.95 9.5 0.85 7.25 L0.15 5.1 0.05 3.5 0.2 2.85 Q0.65 0.8 2.35 0.15 4.1 -0.55 6.15 0.55 8.1 1.7 9.25 4.0 L9.4 4.25 9.55 4.6"/></g><g id="c38"><g><use transform="matrix(1.0,0.0,0.0,1.0,0.0,0.0)" xlink:href="#c37"/></g></g><g id="c39"><path fill="#75741c" stroke="none" d="M22.8 8.3 Q20.15 7.15 15.9 8.35 L14.75 9.05 Q9.2 12.95 3.8 22.25 L2.35 22.05 Q-0.75 20.95 0.2 15.8 L2.15 8.1 2.15 8.0 2.1 5.85 2.15 5.8 Q17.55 4.15 18.0 1.7 L18.25 1.7 18.35 1.9 Q21.0 6.55 22.8 8.3 M7.95 11.95 Q5.6 7.3 2.15 8.1 5.6 7.3 7.95 11.95"/><path fill="#959522" stroke="none" d="M3.8 22.25 Q9.2 12.95 14.75 9.05 L15.9 8.35 Q20.15 7.15 22.8 8.3 L23.0 8.5 23.2 8.65 24.25 9.0 Q25.05 9.2 25.3 9.9 L25.45 9.75 Q25.5 10.6 25.05 11.35 L5.3 21.75 3.8 22.25 M24.65 10.2 L24.2 10.3 24.2 10.4 24.65 10.2 M5.8 20.35 Q13.9 14.8 24.2 10.4 13.9 14.8 5.8 20.35"/><path fill="#a5a527" stroke="none" d="M18.0 1.7 Q17.55 4.15 2.15 5.8 5.2 -0.35 13.05 0.0 L13.65 0.05 15.4 0.95 Q16.35 1.5 18.0 1.7"/><path fill="none" stroke="#000000" stroke-width="0.5" stroke-opacity="0.301960784314" d="M22.8 8.3 Q21.0 6.55 18.35 1.9 L18.25 1.7 18.0 1.7 Q16.35 1.5 15.4 0.95 L13.65 0.05 13.05 0.0 Q5.2 -0.35 2.15 5.8 L2.1 5.85 2.15 8.0 M2.15 8.1 Q5.6 7.3 7.95 11.95 M3.8 22.25 L2.35 22.05 Q-0.75 20.95 0.2 15.8 L2.15 8.1 M25.45 9.75 Q25.5 10.6 25.05 11.35 L5.3 21.75 3.8 22.25 M23.2 8.65 L24.25 9.0 Q25.05 9.2 25.3 9.9 M24.65 10.2 L24.2 10.3 M24.2 10.4 Q13.9 14.8 5.8 20.35"/></g><g id="c40"><g><use transform="matrix(1.0,0.0,0.0,1.0,0.0,0.0)" xlink:href="#c39"/></g></g><g id="c41"><path fill="#959522" stroke="none" d="M2.0 1.95 Q1.3 1.1 0.45 1.65 1.3 1.1 2.0 1.95 M2.7 1.5 Q2.35 0.9 3.3 0.35 2.35 0.9 2.7 1.5 M0.15 3.1 L0.0 1.35 Q1.05 -0.3 2.65 0.1 L3.2 0.35 3.3 0.35 3.95 0.75 3.95 1.6 Q2.95 2.6 1.45 3.1 L0.15 3.1"/><path fill="none" stroke="#000000" stroke-width="0.5" stroke-opacity="0.301960784314" d="M3.3 0.35 Q2.35 0.9 2.7 1.5 M0.45 1.65 Q1.3 1.1 2.0 1.95 M3.3 0.35 L3.2 0.35 2.65 0.1 Q1.05 -0.3 0.0 1.35 L0.15 3.1 M3.95 0.75 L3.3 0.35"/></g><g id="c42"><g><use transform="matrix(1.0,0.0,0.0,1.0,0.0,0.0)" xlink:href="#c41"/></g></g><g id="c43"><path fill="#f1b58d" stroke="none" d="M1.35 8.45 L4.4 6.05 Q8.1 3.5 13.95 1.1 17.7 -0.45 19.1 0.15 19.5 0.25 19.5 0.6 15.95 2.95 10.4 5.65 4.9 8.3 2.75 8.75 L1.25 8.6 1.35 8.45 M15.3 1.85 L15.65 1.55 14.8 1.75 Q14.15 1.95 13.35 2.4 L11.85 3.2 11.5 3.6 12.25 3.35 13.9 2.7 15.3 1.85"/><path fill="#fff9f9" stroke="none" d="M15.3 1.85 L13.9 2.7 12.25 3.35 11.5 3.6 11.85 3.2 13.35 2.4 Q14.15 1.95 14.8 1.75 L15.65 1.55 15.3 1.85"/><path fill="#e98849" stroke="none" d="M19.5 0.6 L19.5 1.35 Q18.2 4.65 6.65 9.7 1.65 11.55 0.1 11.1 -0.3 10.1 1.25 8.6 L2.75 8.75 Q4.9 8.3 10.4 5.65 15.95 2.95 19.5 0.6 M17.4 2.6 Q12.7 5.85 5.9 8.8 12.7 5.85 17.4 2.6"/><path fill="#0f5e71" stroke="none" d="M1.25 8.6 L1.25 8.55 1.35 8.45 1.25 8.6"/><path fill="none" stroke="#000000" stroke-width="0.5" stroke-opacity="0.301960784314" d="M19.5 0.6 L19.5 1.35 Q18.2 4.65 6.65 9.7 1.65 11.55 0.1 11.1 -0.3 10.1 1.25 8.6 L1.25 8.55 1.35 8.45 4.4 6.05 Q8.1 3.5 13.95 1.1 17.7 -0.45 19.1 0.15 19.5 0.25 19.5 0.6 M5.9 8.8 Q12.7 5.85 17.4 2.6"/></g><g id="c44"><g><use transform="matrix(1.0,0.0,0.0,1.0,0.0,0.0)" xlink:href="#c43"/></g></g><g id="c45"><path fill="#5a630c" stroke="none" d="M1.35 0.4 L2.1 0.0 Q6.45 0.05 8.9 7.8 8.45 9.55 6.05 10.4 L6.05 10.45 6.05 10.4 6.0 10.45 5.95 10.4 3.1 10.55 3.05 10.6 2.5 10.0 1.2 7.95 Q0.1 6.2 0.0 4.05 L0.15 1.85 0.25 1.6 0.25 1.45 1.35 0.4"/></g><g id="c46"><g><use transform="matrix(1.0,0.0,0.0,1.0,0.0,0.0)" xlink:href="#c45"/></g></g><g id="c47"><g><use transform="matrix(1.1628112793,0.0,0.0,0.581390380859,2.55,-1.3)" filter="url(#filter24)" xlink:href="#c2"/></g><g><use transform="matrix(1.0,0.0,0.0,1.0,0.7,-11.2)" xlink:href="#c4"/></g><g><use transform="matrix(1.0,0.0,0.0,1.0,0.85,-17.85)" xlink:href="#c6"/></g><g><use transform="matrix(1.0,0.0,0.0,1.0,1.4,-18.2)" xlink:href="#c8"/></g><g><use transform="matrix(1.0,0.0,0.0,1.0,10.6,-9.0)" xlink:href="#c10"/></g><g><use transform="matrix(1.0,0.0,0.0,1.0,9.9,-4.65)" xlink:href="#c12"/></g><g><use transform="matrix(1.0,0.0,0.0,1.0,-10.2,-39.15)" xlink:href="#c14"/></g><g><use transform="matrix(1.0,0.0,0.0,1.0,-20.7,-50.65)" xlink:href="#c16"/></g><g><use transform="matrix(1.0,0.0,0.0,1.0,-15.5,-50.75)" xlink:href="#c18"/></g><g><use transform="matrix(1.0,0.0,0.0,1.0,-20.75,-41.55)" xlink:href="#c20"/></g><g><use transform="matrix(1.0,0.0,0.0,1.0,-15.5,-41.15)" xlink:href="#c22"/></g><g><use transform="matrix(1.0,0.0,0.0,1.0,-8.0,-21.45)" xlink:href="#c24"/></g><g><use transform="matrix(1.0,0.0,0.0,1.0,-11.95,-5.75)" xlink:href="#c26"/></g><g><use transform="matrix(1.0,0.0,0.0,1.0,-11.9,-12.7)" xlink:href="#c28"/></g><g><use transform="matrix(1.0,0.0,0.0,1.0,-12.55,-11.4)" xlink:href="#c30"/></g><g><use transform="matrix(1.0,0.0,0.0,1.0,-3.25,-0.3)" xlink:href="#c32"/></g><g><use transform="matrix(1.0,0.0,0.0,1.0,-3.0,-4.3)" xlink:href="#c34"/></g><g><use transform="matrix(1.0,0.0,0.0,1.0,23.5,-21.1)" xlink:href="#c36"/></g><g><use transform="matrix(1.0,0.0,-0.0434722900391,1.0,16.7,-23.75)" xlink:href="#c38"/></g><g><use transform="matrix(1.0,0.0,0.0,1.0,2.25,-22.95)" xlink:href="#c40"/></g><g><use transform="matrix(1.0,0.0,0.0,1.0,16.35,-15.25)" xlink:href="#c42"/></g><g><use transform="matrix(1.0,0.0,0.0,1.0,8.95,-13.35)" xlink:href="#c44"/></g><g><use transform="matrix(1.0,0.0,0.0,1.0,3.4,-16.5)" xlink:href="#c46"/></g><g><use transform="matrix(1.0,0.0,0.0,1.0,1.05,-16.45)" xlink:href="#c38"/></g><g><use transform="matrix(1.0,0.0,0.0,1.0,1.85,-9.45)" xlink:href="#c36"/></g></g><filter id="filter24"><feColorMatrix in="SourceGraphic" type="matrix" values="1.0 0.0 0.0 0.0 0.0 0.0 1.0 0.0 0.0 0.0 0.0 0.0 1.0 0.0 0.0 0.0 0.0 0.0 0.5 0.0" result="cxform"/><feComposite operator="in" in2="SourceGraphic" result="color-xform"/></filter><g id="c48"><path fill="#000000" fill-opacity="0.00392156862745" d="M0.0 0.0 L60.0 0.0 60.0 60.0 0.0 60.0 0.0 0.0"/></g><g id="c49"><path fill="none" stroke="#000000" stroke-width="1.0" stroke-opacity="0.301960784314" d="M0.7 12.25 Q-0.45 9.75 0.75 8.25 1.2 7.6 2.15 7.15 2.8 6.7 3.8 6.35 L17.5 1.95 30.2 7.0 41.35 31.7 Q42.95 35.15 40.2 36.7 39.5 37.3 38.3 37.65 L25.5 41.8 25.45 41.75 24.55 42.0 11.85 37.0 0.7 12.25"/><path fill="#9d147b" stroke="none" d="M35.55 22.3 L31.5 13.2 29.75 9.2 16.95 4.25 5.5 7.85 Q1.65 9.1 3.35 12.8 L8.25 23.65 13.1 34.35 25.8 39.4 37.2 35.7 Q41.1 34.5 39.35 30.75 L35.55 22.3 M5.45 20.95 L1.35 11.8 Q0.4 9.65 1.1 8.3 1.45 7.65 2.15 7.15 2.8 6.7 3.8 6.35 L17.5 1.95 30.2 7.0 41.35 31.7 Q42.95 35.15 40.2 36.7 L38.9 37.25 25.2 41.65 12.5 36.65 5.45 20.95"/><path fill="#c47fad" stroke="none" d="M31.5 13.2 L35.55 22.3 39.35 30.75 Q41.1 34.5 37.2 35.7 L25.8 39.4 13.1 34.35 8.25 23.65 3.35 12.8 Q1.65 9.1 5.5 7.85 L16.95 4.25 29.75 9.2 31.5 13.2 M18.5 7.45 L9.1 10.55 9.55 11.6 Q9.8 12.8 9.15 13.6 8.4 14.45 7.1 14.4 L6.8 14.4 6.95 14.6 15.2 32.75 23.85 36.2 34.0 32.9 33.7 32.1 Q33.45 30.9 34.1 30.1 34.75 29.3 35.95 29.35 L35.8 29.0 27.75 10.95 18.5 7.45"/><path fill="#fcf2cf" stroke="none" d="M27.75 10.95 L35.8 29.0 35.95 29.35 Q34.75 29.3 34.1 30.1 33.45 30.9 33.7 32.1 L34.0 32.9 23.85 36.2 15.2 32.75 6.95 14.6 6.8 14.4 7.1 14.4 Q8.4 14.45 9.15 13.6 9.8 12.8 9.55 11.6 L9.1 10.55 18.5 7.45 27.75 10.95"/><path fill="#630a4c" stroke="none" d="M1.1 8.3 L0.75 8.25 Q1.2 7.6 2.15 7.15 1.45 7.65 1.1 8.3 M4.6 20.9 L5.45 20.95 12.5 36.65 11.55 36.25 11.25 35.55 4.6 20.9"/><path fill="#300525" stroke="none" d="M1.1 8.3 Q0.4 9.65 1.35 11.8 L5.45 20.95 4.6 20.9 0.7 12.25 Q-0.45 9.75 0.75 8.25 L1.1 8.3 M12.5 36.65 L25.2 41.65 38.9 37.25 40.2 36.7 Q39.5 37.3 38.3 37.65 L25.5 41.8 25.45 41.75 24.55 42.0 11.85 37.0 11.55 36.25 12.5 36.65"/><path fill="none" stroke="#bf9900" stroke-width="1.0" stroke-opacity="0.749019607843" d="M31.5 13.2 L35.55 22.3 M13.1 34.35 L8.25 23.65"/><path fill="none" stroke="#ffcc00" stroke-width="1.0" stroke-opacity="0.749019607843" d="M35.55 22.3 L39.35 30.75 Q41.1 34.5 37.2 35.7 L25.8 39.4 M8.25 23.65 L3.35 12.8 Q1.65 9.1 5.5 7.85 L16.95 4.25 29.75 9.2 31.5 13.2"/><path fill="none" stroke="#f0b92b" stroke-width="0.5" d="M27.75 10.95 L35.8 29.0 35.95 29.35 Q34.75 29.3 34.1 30.1 33.45 30.9 33.7 32.1 L34.0 32.9 23.85 36.2 15.2 32.75 6.95 14.6 6.8 14.4 7.1 14.4 Q8.4 14.45 9.15 13.6 9.8 12.8 9.55 11.6 L9.1 10.55 18.5 7.45"/><path fill="none" stroke="#000000" stroke-width="0.5" stroke-opacity="0.301960784314" d="M5.45 20.95 L1.35 11.8 Q0.4 9.65 1.1 8.3 M0.75 8.25 Q-0.45 9.75 0.7 12.25 L4.6 20.9 M5.45 20.95 L12.5 36.65 M25.2 41.65 L38.9 37.25 40.2 36.7 Q42.95 35.15 41.35 31.7 L30.2 7.0 M17.5 1.95 L3.8 6.35 Q2.8 6.7 2.15 7.15 1.45 7.65 1.1 8.3 M0.75 8.25 Q1.2 7.6 2.15 7.15 M11.25 35.55 L4.6 20.9 M25.5 41.8 L38.3 37.65 Q39.5 37.3 40.2 36.7"/><path fill="none" stroke="#ffcc00" stroke-width="0.5" stroke-opacity="0.749019607843" d="M18.5 7.45 L27.75 10.95"/><path fill="none" stroke="#f0b92b" stroke-width="1.0" stroke-opacity="0.749019607843" d="M25.8 39.4 L13.1 34.35"/><path fill="none" stroke="#432f2f" stroke-width="0.5" d="M12.5 36.65 L25.2 41.65"/></g><g id="c50"><path fill="#7fdbfe" stroke="none" d="M10.75 4.9 Q10.75 4.6 10.9 4.35 11.25 3.45 11.95 2.75 13.3 1.5 14.35 2.1 15.4 2.7 14.95 4.45 14.7 5.4 14.1 6.15 L13.75 6.5 Q13.1 7.15 12.35 7.35 L11.4 7.2 Q10.95 6.9 10.75 6.4 10.5 5.75 10.75 4.9 M7.5 5.9 Q7.0 5.85 6.6 5.5 6.05 5.0 5.8 4.15 L5.7 3.6 Q5.55 2.65 5.8 1.7 6.25 0.0 7.5 0.0 L7.6 0.0 Q8.85 0.0 9.3 1.7 9.55 2.65 9.4 3.6 L9.3 4.15 8.5 5.5 7.6 5.9 7.5 5.9 M4.35 4.9 Q4.6 5.75 4.35 6.4 L3.7 7.2 2.75 7.35 Q2.0 7.15 1.35 6.5 L1.0 6.15 Q0.4 5.4 0.15 4.45 -0.3 2.7 0.75 2.1 1.8 1.5 3.15 2.75 3.85 3.45 4.2 4.35 L4.35 4.9 M5.5 13.7 Q4.45 13.9 3.65 12.95 2.75 12.0 3.2 10.25 3.7 8.5 5.25 7.6 6.4 6.9 7.55 7.0 8.75 6.9 9.9 7.6 11.45 8.5 11.95 10.25 12.35 12.0 11.5 12.95 10.7 13.9 9.65 13.7 8.55 13.5 7.55 12.6 6.55 13.5 5.5 13.7"/></g><g id="c51"><g><use transform="matrix(1.0,0.0,0.0,1.0,0.0,0.0)" xlink:href="#c50"/></g></g><radialGradient gradientUnits="userSpaceOnUse" r="819.2" cx="0" cy="0" spreadMethod="pad" gradientTransform="matrix(0.0914459228516,0.0,0.0,0.0914459228516,0.6,3.4)" id="gradient2"><stop offset="0.0" stop-color="#ffffff"/><stop offset="1.0" stop-color="#ffffff" stop-opacity="0.0"/></radialGradient><g id="c52"><path stroke="none" fill="url(#gradient2)" d="M36.65 -54.65 Q60.05 -42.0 69.75 -17.95 80.55 8.9 68.0 34.1 55.45 59.35 26.8 68.2 -1.8 77.05 -29.7 64.3 -57.6 51.6 -68.45 24.75 -79.3 -2.05 -66.75 -27.25 L-66.7 -27.3 Q-54.1 -52.5 -25.5 -61.4 3.1 -70.2 31.0 -57.5 L36.65 -54.65"/></g><g id="c53"><g><use transform="matrix(1.0,0.0,0.0,1.0,0.0,0.0)" xlink:href="#c52"/></g></g><radialGradient gradientUnits="userSpaceOnUse" r="819.2" cx="0" cy="0" spreadMethod="pad" gradientTransform="matrix(0.209197998047,0.0,0.0,0.177108764648,67.15,107.2)" id="gradient3"><stop offset="0.356862745098" stop-color="#ffffff"/><stop offset="0.670588235294" stop-opacity="0.0"/></radialGradient><g id="c54"><path fill="none" stroke-linejoin="round" stroke-linecap="round" stroke="url(#gradient3)" stroke-width="0.5" d="M136.55 165.8 L68.6 106.0 68.4 106.0 118.25 201.5 M68.3 105.8 L68.35 105.8 68.3 105.8 68.3 105.85 68.4 106.0 68.3 106.0 86.55 211.5 M68.3 105.8 L68.3 105.85 68.3 106.0 68.15 105.95 18.25 151.55 M68.3 105.85 L68.25 105.85 68.3 106.0 50.0 193.2 M68.25 105.85 L68.15 105.95 0.05 97.7 M68.3 105.85 L68.25 105.8 68.25 105.85 M68.25 105.8 L68.2 105.7 0.0 45.7 M68.3 105.8 L68.25 105.75 68.25 105.8 M68.25 105.75 L68.2 105.7 18.25 10.05 M68.6 106.0 L68.35 105.8 118.25 60.15 M86.6 18.35 L68.3 105.8 M136.6 114.25 L68.6 106.0 M68.25 105.75 L49.95 0.05"/></g><g id="c55"><g><use transform="matrix(1.0,0.0,0.0,1.0,0.0,0.0)" xlink:href="#c54"/></g></g><g id="c56"><g><use transform="matrix(1.0,0.0,0.0,1.0,0.0,0.0)" xlink:href="#c49"/></g><g><use transform="matrix(0.238861083984,-0.0867004394531,0.10026550293,0.233917236328,34.25,31.15)" xlink:href="#c51"/></g><g><use transform="matrix(0.238861083984,-0.0867004394531,0.10026550293,0.233917236328,4.25,10.3)" xlink:href="#c51"/></g><g><use transform="matrix(0.141098022461,-0.0378112792969,0.111373901367,0.225646972656,20.25,20.65)" filter="url(#filter55)" xlink:href="#c53"/></g><g><use transform="matrix(-0.155029296875,0.0513153076172,0.0841827392578,0.147033691406,22.6,3.15)" filter="url(#filter56)" xlink:href="#c55"/></g></g><filter id="filter55"><feColorMatrix in="SourceGraphic" type="matrix" values="0.0 0.0 0.0 0.0 0.796875 0.0 0.0 0.0 0.0 0.59765625 0.0 0.0 0.0 0.0 0.19921875 0.0 0.0 0.0 1.0 0.0" result="cxform"/><feComposite operator="in" in2="SourceGraphic" result="color-xform"/></filter><filter id="filter56"><feColorMatrix in="SourceGraphic" type="matrix" values="0.0 0.0 0.0 0.0 0.99609375 0.0 0.0 0.0 0.0 0.99609375 0.0 0.0 0.0 0.0 0.99609375 0.0 0.0 0.0 1.0 0.0" result="cxform"/><feComposite operator="in" in2="SourceGraphic" result="color-xform"/></filter><filter id="filter60"><feColorMatrix in="SourceGraphic" type="matrix" values="1.0 0.0 0.0 0.0 0.0 0.0 1.0 0.0 0.0 0.0 0.0 0.0 1.0 0.0 0.0 0.0 0.0 0.0 0.23046875 0.0" result="cxform"/><feComposite operator="in" in2="SourceGraphic" result="color-xform"/></filter></defs><g><g><use transform="matrix(1.0,0.0,0.0,1.0,0.0,0.0)" xlink:href="#c48"/></g><g><use transform="matrix(1.15496826172,0.0,0.0,1.15496826172,5.85,4.8)" xlink:href="#c56"/></g><g><use transform="matrix(0.416122436523,-0.111480712891,0.111480712891,0.416122436523,31.45,39.1)" xlink:href="#c47"/></g><g><use transform="matrix(0.162948608398,-0.0436706542969,0.128631591797,0.260604858398,30.0,28.7)" filter="url(#filter60)" xlink:href="#c53"/></g></g></svg>