<?xml version='1.0' encoding='UTF-8'?>
<svg xmlns:xlink="http://www.w3.org/1999/xlink" xmlns="http://www.w3.org/2000/svg" version="1.1" width="60px" height="60px" viewBox="0.0 0.0 60.0 60.0"><defs><g id="c1"><path fill="#000000" fill-opacity="0.00392156862745" d="M0.0 0.0 L60.0 0.0 60.0 60.0 0.0 60.0 0.0 0.0"/></g><g id="c2"><path fill="#006699" stroke="none" d="M31.5 39.85 L19.8 43.65 Q17.15 44.45 15.5 43.3 14.35 42.55 13.65 40.9 L1.7 14.45 1.6 14.3 1.2 13.45 -0.75 9.05 Q-2.05 6.2 -0.3 4.75 0.3 4.25 1.2 3.9 L5.5 2.25 Q8.95 0.95 10.65 4.15 L22.3 0.4 Q26.55 -1.0 28.45 3.1 L40.55 29.95 40.9 30.7 42.95 35.15 Q43.95 37.35 43.15 38.7 42.5 39.7 40.95 40.25 L36.65 41.8 35.1 42.2 Q32.75 42.3 31.5 39.85"/><path fill="none" stroke="#000000" stroke-width="1.0" stroke-opacity="0.298039215686" d="M31.5 39.85 L19.8 43.65 Q17.15 44.45 15.5 43.3 14.35 42.55 13.65 40.9 L1.7 14.45 1.6 14.3 1.2 13.45 -0.75 9.05 Q-2.05 6.2 -0.3 4.75 0.3 4.25 1.2 3.9 L5.5 2.25 Q8.95 0.95 10.65 4.15 L22.3 0.4 Q26.55 -1.0 28.45 3.1 L40.55 29.95 40.9 30.7 42.95 35.15 Q43.95 37.35 43.15 38.7 42.5 39.7 40.95 40.25 L36.65 41.8 35.1 42.2 Q32.75 42.3 31.5 39.85"/><path fill="#300525" stroke="none" d="M0.75 8.25 L29.8 9.75 25.55 0.9 Q26.9 1.6 27.8 3.55 L40.7 32.15 Q42.6 36.3 38.3 37.65 L23.3 42.5 13.15 21.4 4.6 20.9 0.7 12.25 Q-0.45 9.75 0.75 8.25 M20.1 43.55 L19.8 43.65 Q17.15 44.45 15.5 43.3 L20.1 43.55"/><path fill="#630a4c" stroke="none" d="M25.55 0.9 L29.8 9.75 0.75 8.25 Q1.45 7.3 3.1 6.75 L21.65 0.8 25.55 0.9 M4.6 20.9 L13.15 21.4 23.3 42.5 20.1 43.55 15.5 43.3 Q14.35 42.55 13.65 40.9 L4.6 20.9"/><path fill="none" stroke="#000000" stroke-width="0.5" stroke-opacity="0.301960784314" d="M0.75 8.25 Q-0.45 9.75 0.7 12.25 L4.6 20.9 M23.3 42.5 L38.3 37.65 Q42.6 36.3 40.7 32.15 L27.8 3.55 Q26.9 1.6 25.55 0.9 L21.65 0.8 3.1 6.75 Q1.45 7.3 0.75 8.25 M20.1 43.55 L19.8 43.65 Q17.15 44.45 15.5 43.3 14.35 42.55 13.65 40.9 L4.6 20.9 M20.1 43.55 L23.3 42.5"/><path fill="#9d147b" stroke="none" d="M14.2 40.5 L1.35 11.8 Q-0.5 7.75 3.8 6.35 L22.3 0.4 Q26.55 -1.0 28.45 3.1 L41.35 31.7 Q43.25 35.85 38.9 37.25 L20.4 43.2 Q16.1 44.55 14.2 40.5"/><path fill="none" stroke="#000000" stroke-width="0.5" stroke-opacity="0.301960784314" d="M14.2 40.5 L1.35 11.8 Q-0.5 7.75 3.8 6.35 L22.3 0.4 Q26.55 -1.0 28.45 3.1 L41.35 31.7 Q43.25 35.85 38.9 37.25 L20.4 43.2 Q16.1 44.55 14.2 40.5"/><path fill="#9d147b" stroke="none" d="M31.4 39.65 L31.3 39.45 31.25 39.4 29.25 34.95 Q27.55 31.2 31.25 29.85 L35.6 28.25 Q38.8 27.1 40.5 29.85 L40.9 30.7 42.95 35.15 Q43.95 37.35 43.15 38.7 42.5 39.45 41.2 39.9 L36.9 41.45 34.85 41.85 Q32.9 41.7 31.75 39.5 L31.4 39.65"/><path fill="#630a4c" stroke="none" d="M43.15 38.7 Q42.5 39.7 40.95 40.25 L36.65 41.8 35.1 42.2 Q32.75 42.3 31.45 39.8 L31.4 39.65 31.75 39.5 Q32.9 41.7 34.85 41.85 L36.9 41.45 41.2 39.9 Q42.5 39.45 43.15 38.7"/><path fill="none" stroke="#003333" stroke-width="0.5" stroke-opacity="0.509803921569" d="M43.15 38.7 Q42.5 39.7 40.95 40.25 L36.65 41.8 35.1 42.2 Q32.75 42.3 31.45 39.8 L31.4 39.65 30.3 40.0 31.4 39.65 M40.5 29.85 L40.9 30.7 42.95 35.15 Q43.95 37.35 43.15 38.7 42.5 39.45 41.2 39.9 L36.9 41.45 34.85 41.85 Q32.9 41.7 31.75 39.5 L31.4 39.65"/><path fill="#9d147b" stroke="none" d="M10.65 4.2 L10.85 4.6 12.85 9.05 Q14.5 12.8 10.8 14.15 L6.5 15.8 Q4.5 16.6 3.1 15.8 L1.75 12.85 -0.2 8.45 Q-1.25 6.15 -0.3 4.75 0.3 4.25 1.2 3.9 L5.5 2.25 Q9.0 0.95 10.65 4.2"/><path fill="#300525" stroke="none" d="M-0.3 4.75 Q-1.25 6.15 -0.2 8.45 L1.75 12.85 3.1 15.8 Q2.25 15.35 1.6 14.3 L1.2 13.45 -0.75 9.05 Q-2.05 6.2 -0.3 4.75"/><path fill="none" stroke="#003333" stroke-width="0.5" stroke-opacity="0.509803921569" d="M3.1 15.8 L6.45 23.15 M-0.3 4.75 Q0.3 4.25 1.2 3.9 L5.5 2.25 Q9.0 0.95 10.65 4.2 M3.1 15.8 L1.75 12.85 -0.2 8.45 Q-1.25 6.15 -0.3 4.75 -2.05 6.2 -0.75 9.05 L1.2 13.45 1.6 14.3"/><path fill="#fcf2cf" stroke="none" d="M9.15 13.6 Q9.8 12.8 9.55 11.6 L9.1 10.55 22.05 6.35 Q24.9 5.45 26.25 7.85 L26.5 8.3 35.8 29.0 35.95 29.35 Q34.75 29.3 34.1 30.1 33.45 30.9 33.7 32.1 L34.0 32.9 20.65 37.2 Q18.8 37.8 17.65 37.0 16.8 36.4 16.3 35.2 L6.95 14.6 6.8 14.4 7.1 14.4 Q8.4 14.45 9.15 13.6"/><path fill="#c47fad" stroke="none" d="M9.15 13.6 Q8.4 14.45 7.1 14.4 L6.8 14.4 6.95 14.6 16.3 35.2 Q16.8 36.4 17.65 37.0 18.8 37.8 20.65 37.2 L34.0 32.9 33.7 32.1 Q33.45 30.9 34.1 30.1 34.75 29.3 35.95 29.35 L35.8 29.0 26.5 8.3 26.25 7.85 Q24.9 5.45 22.05 6.35 L9.1 10.55 9.55 11.6 Q9.8 12.8 9.15 13.6 M28.25 6.1 L35.55 22.3 39.35 30.75 Q41.1 34.5 37.2 35.7 L20.45 41.1 Q16.8 42.25 15.2 39.0 L15.0 38.6 8.25 23.65 3.35 12.8 Q1.65 9.1 5.5 7.85 L22.25 2.5 Q26.05 1.25 27.75 4.95 L28.25 6.1"/><path fill="none" stroke="#ffcc00" stroke-width="1.0" stroke-opacity="0.749019607843" d="M35.55 22.3 L39.35 30.75 Q41.1 34.5 37.2 35.7 L20.45 41.1 Q16.8 42.25 15.2 39.0 L15.0 38.6 M8.25 23.65 L3.35 12.8 Q1.65 9.1 5.5 7.85 L22.25 2.5 Q26.05 1.25 27.75 4.95 L28.25 6.1"/><path fill="none" stroke="#bf9900" stroke-width="1.0" stroke-opacity="0.749019607843" d="M28.25 6.1 L35.55 22.3 M15.0 38.6 L8.25 23.65"/><path fill="none" stroke="#f0b92b" stroke-width="0.5" d="M9.15 13.6 Q9.8 12.8 9.55 11.6 L9.1 10.55 22.05 6.35 Q24.9 5.45 26.25 7.85 L26.5 8.3 35.8 29.0 35.95 29.35 Q34.75 29.3 34.1 30.1 33.45 30.9 33.7 32.1 L34.0 32.9 20.65 37.2 Q18.8 37.8 17.65 37.0 16.8 36.4 16.3 35.2 L6.95 14.6 6.8 14.4 7.1 14.4 Q8.4 14.45 9.15 13.6"/></g><g id="c3"><path fill="#7fdbfe" stroke="none" d="M10.75 4.9 Q10.75 4.6 10.9 4.35 11.25 3.45 11.95 2.75 13.3 1.5 14.35 2.1 15.4 2.7 14.95 4.45 14.7 5.4 14.1 6.15 L13.75 6.5 Q13.1 7.15 12.35 7.35 L11.4 7.2 Q10.95 6.9 10.75 6.4 10.5 5.75 10.75 4.9 M7.5 5.9 Q7.0 5.85 6.6 5.5 6.05 5.0 5.8 4.15 L5.7 3.6 Q5.55 2.65 5.8 1.7 6.25 0.0 7.5 0.0 L7.6 0.0 Q8.85 0.0 9.3 1.7 9.55 2.65 9.4 3.6 L9.3 4.15 8.5 5.5 7.6 5.9 7.5 5.9 M4.35 4.9 Q4.6 5.75 4.35 6.4 L3.7 7.2 2.75 7.35 Q2.0 7.15 1.35 6.5 L1.0 6.15 Q0.4 5.4 0.15 4.45 -0.3 2.7 0.75 2.1 1.8 1.5 3.15 2.75 3.85 3.45 4.2 4.35 L4.35 4.9 M5.5 13.7 Q4.45 13.9 3.65 12.95 2.75 12.0 3.2 10.25 3.7 8.5 5.25 7.6 6.4 6.9 7.55 7.0 8.75 6.9 9.9 7.6 11.45 8.5 11.95 10.25 12.35 12.0 11.5 12.95 10.7 13.9 9.65 13.7 8.55 13.5 7.55 12.6 6.55 13.5 5.5 13.7"/></g><g id="c4"><g><use transform="matrix(1.0,0.0,0.0,1.0,0.0,0.0)" xlink:href="#c3"/></g></g><radialGradient gradientUnits="userSpaceOnUse" r="819.2" cx="0" cy="0" spreadMethod="pad" gradientTransform="matrix(0.0914459228516,0.0,0.0,0.0914459228516,0.6,3.4)" id="gradient1"><stop offset="0.0" stop-color="#ffffff"/><stop offset="1.0" stop-color="#ffffff" stop-opacity="0.0"/></radialGradient><g id="c5"><path stroke="none" fill="url(#gradient1)" d="M36.65 -54.65 Q60.05 -42.0 69.75 -17.95 80.55 8.9 68.0 34.1 55.45 59.35 26.8 68.2 -1.8 77.05 -29.7 64.3 -57.6 51.6 -68.45 24.75 -79.3 -2.05 -66.75 -27.25 L-66.7 -27.3 Q-54.1 -52.5 -25.5 -61.4 3.1 -70.2 31.0 -57.5 L36.65 -54.65"/></g><g id="c6"><g><use transform="matrix(1.0,0.0,0.0,1.0,0.0,0.0)" xlink:href="#c5"/></g></g><radialGradient gradientUnits="userSpaceOnUse" r="819.2" cx="0" cy="0" spreadMethod="pad" gradientTransform="matrix(0.209197998047,0.0,0.0,0.177108764648,67.15,107.2)" id="gradient2"><stop offset="0.356862745098" stop-color="#ffffff"/><stop offset="0.670588235294" stop-opacity="0.0"/></radialGradient><g id="c7"><path fill="none" stroke-linejoin="round" stroke-linecap="round" stroke="url(#gradient2)" stroke-width="0.5" d="M136.55 165.8 L68.6 106.0 68.4 106.0 118.25 201.5 M68.3 105.8 L68.35 105.8 68.3 105.8 68.3 105.85 68.4 106.0 68.3 106.0 86.55 211.5 M68.3 105.8 L68.3 105.85 68.3 106.0 68.15 105.95 18.25 151.55 M68.3 105.85 L68.25 105.85 68.3 106.0 50.0 193.2 M68.25 105.85 L68.15 105.95 0.05 97.7 M68.3 105.85 L68.25 105.8 68.25 105.85 M68.25 105.8 L68.2 105.7 0.0 45.7 M68.3 105.8 L68.25 105.75 68.25 105.8 M68.25 105.75 L68.2 105.7 18.25 10.05 M68.6 106.0 L68.35 105.8 118.25 60.15 M86.6 18.35 L68.3 105.8 M136.6 114.25 L68.6 106.0 M68.25 105.75 L49.95 0.05"/></g><g id="c8"><g><use transform="matrix(1.0,0.0,0.0,1.0,0.0,0.0)" xlink:href="#c7"/></g></g><g id="c9"><g><use transform="matrix(1.0,0.0,0.0,1.0,0.0,0.0)" xlink:href="#c2"/></g><g><use transform="matrix(0.238861083984,-0.0867004394531,0.10026550293,0.233917236328,34.25,31.15)" xlink:href="#c4"/></g><g><use transform="matrix(0.238861083984,-0.0867004394531,0.10026550293,0.233917236328,4.25,10.3)" xlink:href="#c4"/></g><g><use transform="matrix(0.141098022461,-0.0378112792969,0.111373901367,0.225646972656,20.25,20.65)" filter="url(#filter7)" xlink:href="#c6"/></g><g><use transform="matrix(-0.155029296875,0.0513153076172,0.0841827392578,0.147033691406,22.6,3.15)" filter="url(#filter8)" xlink:href="#c8"/></g></g><filter id="filter7"><feColorMatrix in="SourceGraphic" type="matrix" values="0.0 0.0 0.0 0.0 0.796875 0.0 0.0 0.0 0.0 0.59765625 0.0 0.0 0.0 0.0 0.19921875 0.0 0.0 0.0 1.0 0.0" result="cxform"/><feComposite operator="in" in2="SourceGraphic" result="color-xform"/></filter><filter id="filter8"><feColorMatrix in="SourceGraphic" type="matrix" values="0.0 0.0 0.0 0.0 0.99609375 0.0 0.0 0.0 0.0 0.99609375 0.0 0.0 0.0 0.0 0.99609375 0.0 0.0 0.0 1.0 0.0" result="cxform"/><feComposite operator="in" in2="SourceGraphic" result="color-xform"/></filter><linearGradient gradientUnits="userSpaceOnUse" x1="-819.2" x2="819.2" spreadMethod="pad" gradientTransform="matrix(0.0,-0.0222015380859,0.0352630615234,0.0,55.9,22.3)" id="gradient3"><stop offset="0.0" stop-color="#ff5793" stop-opacity="0.152941176471"/><stop offset="1.0" stop-color="#ffcce6"/></linearGradient><linearGradient gradientUnits="userSpaceOnUse" x1="-819.2" x2="819.2" spreadMethod="pad" gradientTransform="matrix(-0.0124053955078,-0.0215454101562,0.0213470458984,-0.0122833251953,15.45,47.45)" id="gradient4"><stop offset="0.0" stop-color="#ff5793" stop-opacity="0.152941176471"/><stop offset="1.0" stop-color="#ffcce6"/></linearGradient><g id="c10"><path fill="#ffcce5" stroke="none" d="M60.15 -10.25 Q61.25 -9.6 61.35 -8.15 61.5 -6.8 60.7 -5.5 59.9 -4.3 58.45 -4.0 57.1 -3.6 56.05 -4.3 55.0 -5.1 54.85 -6.4 54.7 -7.85 55.5 -9.05 56.3 -10.25 57.65 -10.65 59.1 -10.95 60.15 -10.25 M95.4 22.85 Q94.35 23.1 93.55 22.45 92.9 21.9 92.75 21.0 92.6 20.05 93.15 19.15 93.8 18.35 94.9 18.05 95.8 17.8 96.35 18.35 97.25 18.85 97.4 19.8 97.55 20.7 96.75 21.65 96.35 22.6 95.4 22.85 M54.85 22.3 Q53.9 22.6 53.0 21.9 52.3 21.4 52.2 20.45 52.05 19.4 52.6 18.6 53.4 17.8 54.3 17.55 55.25 17.25 55.8 17.8 56.7 18.2 56.85 19.25 56.95 20.2 56.15 21.1 55.8 22.05 54.85 22.3 M83.3 33.6 Q82.25 34.8 80.9 35.2 79.6 35.5 78.65 34.8 77.6 34.0 77.3 32.7 77.2 31.25 78.0 30.05 78.8 28.85 80.1 28.55 81.45 28.15 82.65 28.85 83.7 29.5 83.85 30.95 84.1 32.3 83.3 33.6 M24.1 18.6 Q23.6 19.25 22.9 19.4 L21.75 19.25 Q21.05 18.85 20.95 18.2 20.95 17.4 21.35 16.75 21.85 16.05 22.55 15.8 23.2 15.65 23.7 16.05 24.4 16.45 24.4 17.25 24.5 17.95 24.1 18.6 M-0.5 8.1 Q0.05 7.15 1.0 6.9 1.9 6.65 2.7 7.15 3.35 7.8 3.5 8.75 3.65 9.8 3.1 10.6 L1.5 11.7 -0.1 11.55 Q-0.9 11.0 -1.0 9.95 -1.15 9.0 -0.5 8.1 M22.15 59.7 L22.0 59.7 22.0 59.55 22.15 59.7 M5.9 47.45 Q6.45 46.65 7.25 46.4 8.15 46.15 8.95 46.65 9.5 47.2 9.6 48.0 9.75 48.9 9.25 49.7 8.7 50.5 7.75 50.8 6.95 51.05 6.15 50.5 5.5 50.1 5.35 49.2 5.25 48.4 5.9 47.45 M4.85 61.8 L5.35 62.6 5.1 63.8 4.15 64.5 Q3.65 64.6 3.25 64.2 2.7 63.95 2.7 63.3 2.6 62.75 2.95 62.2 L3.75 61.7 4.85 61.8 M9.6 118.6 Q8.95 118.75 8.3 118.2 7.75 117.95 7.65 117.15 7.5 116.5 8.05 115.7 8.45 115.15 9.1 115.0 9.75 114.75 10.4 115.0 10.95 115.55 11.1 116.2 11.2 117.0 10.7 117.55 10.3 118.35 9.6 118.6 M84.65 87.2 Q83.85 86.7 83.7 85.65 83.55 84.7 84.25 83.75 84.75 82.95 85.7 82.85 86.65 82.55 87.45 82.85 88.1 83.5 88.25 84.45 88.35 85.5 87.85 86.3 87.15 87.2 86.25 87.5 L84.65 87.2 M79.05 88.15 L80.4 88.3 Q81.05 88.7 81.2 89.5 81.3 90.15 80.65 90.8 80.4 91.5 79.6 91.75 L78.25 91.5 Q77.7 91.1 77.6 90.4 77.45 89.6 78.0 88.95 78.4 88.3 79.05 88.15 M95.95 86.95 Q97.0 87.6 97.15 89.1 97.4 90.4 96.45 91.75 95.65 92.95 94.35 93.2 L91.8 92.95 Q90.9 92.15 90.6 90.8 90.5 89.35 91.3 88.15 92.2 86.95 93.55 86.55 94.9 86.3 95.95 86.95 M64.0 101.45 Q63.5 102.4 62.7 102.5 61.75 102.8 60.95 102.25 60.45 101.85 60.3 100.9 60.15 100.0 60.7 99.05 61.25 98.25 62.15 98.0 62.95 97.85 63.75 98.25 64.4 98.8 64.55 99.7 64.7 100.65 64.0 101.45"/><path stroke="none" fill="url(#gradient3)" d="M79.45 9.7 Q78.0 16.45 71.35 18.6 64.55 20.7 62.45 26.05 60.3 31.1 62.45 33.5 64.3 35.6 67.5 38.15 68.95 39.2 71.85 44.15 L70.25 44.0 Q69.75 48.65 65.75 48.25 61.9 47.7 56.95 50.1 55.25 41.75 53.1 37.5 51.5 34.3 52.7 30.3 53.25 27.35 55.5 25.25 58.05 22.7 61.35 21.9 66.15 20.6 70.15 17.0 74.25 13.3 73.45 7.55 72.8 1.95 68.0 -0.15 61.5 -2.95 59.9 3.55 58.55 2.35 60.7 -1.6 62.55 -5.75 68.8 -7.35 74.8 -8.95 77.85 -2.95 80.9 2.75 79.45 9.7"/><path stroke="none" fill="url(#gradient4)" d="M22.0 59.55 Q24.8 54.35 24.25 48.9 23.7 42.8 19.45 39.5 14.0 35.2 10.0 41.2 6.45 46.25 1.1 43.6 -1.3 42.4 -2.5 39.9 -4.6 35.35 -4.35 30.15 -4.05 24.45 0.6 20.7 4.15 17.55 7.1 21.25 10.15 25.5 6.15 28.3 5.35 23.1 2.2 26.3 -0.9 29.5 1.65 33.6 4.45 39.1 10.15 35.1 13.35 32.95 16.8 32.45 22.8 31.75 27.7 34.4 31.7 36.4 34.35 40.25 36.2 43.35 36.5 47.2 36.6 51.7 33.55 54.65 L33.05 55.15 31.55 55.95 Q26.1 58.65 22.15 59.7 L22.0 59.55"/></g><linearGradient gradientUnits="userSpaceOnUse" x1="-819.2" x2="819.2" spreadMethod="pad" gradientTransform="matrix(0.0,-0.015869140625,0.015869140625,0.0,13.0,13.0)" id="gradient5"><stop offset="0.0" stop-opacity="0.0"/><stop offset="1.0" stop-opacity="0.501960784314"/></linearGradient><g id="c11"><path stroke="none" fill="url(#gradient5)" d="M26.0 0.0 L26.0 26.0 0.0 26.0 0.0 0.0 26.0 0.0"/></g><g id="c12"><g><use transform="matrix(1.0,0.0,0.0,1.0,0.0,0.0)" xlink:href="#c11"/></g></g><g id="c13"><path fill="#ffaae3" stroke="none" d="M7.0 14.15 L12.05 11.65 12.25 11.95 8.85 14.4 13.25 13.65 13.3 13.7 11.15 15.0 Q9.75 15.5 7.55 14.45 L7.0 14.15 M4.0 4.95 L5.8 4.75 1.6 7.1 -0.4 6.6 4.0 4.95"/><path fill="#c46aa4" stroke="none" d="M10.45 8.95 L12.05 11.65 7.0 14.15 6.1 13.5 6.55 13.1 8.8 11.1 8.75 11.15 4.4 12.65 3.1 10.95 2.9 10.55 1.95 8.4 1.9 8.35 8.25 5.35 8.9 6.35 2.9 10.55 10.45 8.95 M12.25 11.95 L13.25 13.65 8.85 14.4 12.25 11.95"/><path fill="#990066" stroke="none" d="M10.45 8.95 L2.9 10.55 8.9 6.35 10.45 8.95 M8.25 5.35 L1.9 8.35 1.6 7.1 5.8 4.75 4.0 4.95 2.1 5.2 Q2.25 3.05 3.65 2.25 L5.85 1.35 8.25 5.35 M4.4 12.65 L8.75 11.15 8.8 11.1 6.55 13.1 3.65 14.3 4.4 12.65 M5.8 4.75 L5.9 4.7 5.8 4.75"/><path fill="#db67b4" stroke="none" d="M6.1 13.5 L7.0 14.15 7.55 14.45 Q9.75 15.5 11.15 15.0 L13.3 13.7 12.4 17.3 Q10.45 18.0 7.5 16.6 L5.55 15.3 6.1 13.5 M5.85 1.35 L3.65 2.25 Q2.25 3.05 2.1 5.2 L0.0 4.35 Q0.15 1.1 2.2 0.0 L5.85 1.35"/><path fill="#f271c7" stroke="none" d="M1.9 8.35 L1.95 8.4 2.9 10.55 3.1 10.95 4.4 12.65 3.65 14.3 Q2.85 13.75 1.65 11.75 0.35 9.6 -0.35 7.1 L-0.4 6.6 1.6 7.1 1.9 8.35"/><path fill="none" stroke="#000000" stroke-width="1.0" stroke-opacity="0.301960784314" d="M12.4 17.3 Q10.45 18.0 7.5 16.6 L5.55 15.3 6.1 13.5 M2.1 5.2 L0.0 4.35 Q0.15 1.1 2.2 0.0 M3.65 14.3 L6.55 13.1 M-0.4 6.6 L-0.35 7.1 Q0.35 9.6 1.65 11.75 2.85 13.75 3.65 14.3 M-0.4 6.6 L4.0 4.95"/><path fill="none" stroke="#000000" stroke-width="0.5" stroke-opacity="0.301960784314" d="M12.05 11.65 L10.45 8.95 8.9 6.35 8.25 5.35 5.85 1.35 M8.8 11.1 L6.55 13.1 6.1 13.5 M12.05 11.65 L12.25 11.95 13.25 13.65 13.3 13.7 12.4 17.3 M2.1 5.2 L4.0 4.95 5.8 4.75 5.9 4.7 5.8 4.75 M2.2 0.0 L5.85 1.35"/></g><g id="c14"><g><use transform="matrix(1.0,0.0,0.0,1.0,0.0,0.0)" xlink:href="#c13"/></g></g><g id="c15"><path fill="#de9479" stroke="none" d="M35.15 11.45 L35.2 11.55 35.15 11.55 35.15 11.45"/><path fill="#fe78d7" stroke="none" d="M4.85 16.3 Q19.3 9.6 32.1 2.75 L35.5 2.95 35.5 3.0 30.4 5.05 Q25.35 7.2 25.05 8.15 L26.35 8.2 17.55 12.65 16.85 12.95 10.95 15.7 9.65 16.45 Q9.15 16.7 8.8 16.9 L8.55 16.75 8.4 16.65 8.25 16.55 Q6.25 15.7 4.85 16.3 M38.75 5.45 L39.8 6.85 40.35 7.8 Q39.2 8.4 37.65 9.65 L35.2 11.55 35.15 11.45 35.5 10.55 Q32.05 11.4 26.4 14.5 24.0 15.8 22.6 16.8 20.55 18.15 20.55 18.85 L20.65 19.3 Q20.65 19.9 17.45 21.3 15.35 22.25 13.75 22.8 L12.55 20.45 12.2 19.95 12.3 19.85 16.85 16.85 18.85 15.2 19.45 14.55 19.65 14.35 19.95 14.2 20.0 14.3 25.55 12.45 26.25 12.25 30.2 10.5 Q33.2 9.05 33.75 8.6 L33.05 8.05 32.5 7.75 Q35.5 6.1 36.85 6.05 L37.0 6.05 38.75 5.45 M5.35 17.7 L5.65 17.55 8.35 17.7 8.55 17.85 Q9.5 18.35 10.3 18.95 L11.85 20.9 12.85 23.05 13.0 23.6 13.15 25.15 13.15 25.8 Q13.0 26.9 12.2 27.55 L11.4 28.0 Q10.3 28.35 8.55 27.55 6.6 26.6 5.35 24.55 4.1 22.45 4.1 20.55 4.1 18.35 5.35 17.7 M5.85 18.45 Q4.8 19.0 4.8 20.85 4.8 22.5 5.85 24.2 6.95 25.95 8.55 26.75 10.0 27.45 10.95 27.15 L11.6 26.75 Q12.3 26.2 12.4 25.3 L12.4 24.75 12.3 23.4 11.35 21.15 10.0 19.55 Q9.35 19.0 8.55 18.6 L8.4 18.45 6.15 18.35 5.85 18.45"/><path fill="#e36aba" stroke="none" d="M8.55 21.2 L9.1 21.55 9.6 22.15 9.95 23.0 10.0 23.5 10.0 23.7 9.7 24.25 9.45 24.4 8.55 24.25 7.55 23.3 Q7.15 22.65 7.15 22.05 7.15 21.35 7.55 21.15 L7.65 21.1 8.5 21.15 8.55 21.2"/><path fill="#d463a9" stroke="none" d="M40.35 7.8 Q41.0 9.0 41.3 10.25 L41.4 10.75 Q40.0 11.3 38.1 12.5 L35.5 14.0 Q35.1 14.0 35.0 13.55 34.95 13.05 34.7 12.95 34.4 12.8 32.0 13.85 L29.0 15.1 Q28.35 15.3 27.1 16.45 L25.6 17.8 25.9 17.95 26.8 17.7 27.8 17.45 28.1 17.55 25.6 19.2 23.5 20.25 Q16.7 23.4 14.25 24.95 L14.05 23.85 13.75 22.8 Q15.35 22.25 17.45 21.3 20.65 19.9 20.65 19.3 L20.55 18.85 Q20.55 18.15 22.6 16.8 24.0 15.8 26.4 14.5 32.05 11.4 35.5 10.55 L35.15 11.45 35.15 11.55 35.2 11.55 37.65 9.65 Q39.2 8.4 40.35 7.8"/><path fill="#b85693" stroke="none" d="M41.4 10.75 L41.5 12.1 41.4 13.0 Q41.15 14.4 40.25 15.1 26.2 21.15 13.0 28.7 13.9 28.0 14.15 26.6 L14.25 25.7 14.25 25.1 14.25 24.95 Q16.7 23.4 23.5 20.25 L25.6 19.2 28.1 17.55 27.8 17.45 26.8 17.7 25.9 17.95 25.6 17.8 27.1 16.45 Q28.35 15.3 29.0 15.1 L32.0 13.85 Q34.4 12.8 34.7 12.95 34.95 13.05 35.0 13.55 35.1 14.0 35.5 14.0 L38.1 12.5 Q40.0 11.3 41.4 10.75 M37.0 3.9 L37.0 5.7 29.65 7.6 37.0 3.9"/><path fill="#ffc4ee" stroke="none" d="M13.0 28.7 L12.0 29.2 Q10.6 29.7 8.4 28.65 6.15 27.45 4.5 24.95 2.9 22.45 2.9 20.0 2.9 17.35 4.5 16.45 L4.85 16.3 Q6.25 15.7 8.25 16.55 L8.4 16.65 8.55 16.75 8.8 16.9 Q9.15 16.7 9.65 16.45 L10.95 15.7 16.85 12.95 17.55 12.65 26.35 8.2 25.05 8.15 Q25.35 7.2 30.4 5.05 L35.5 3.0 35.55 3.0 35.65 3.05 37.0 3.9 29.65 7.6 37.0 5.7 38.6 5.3 38.75 5.45 37.0 6.05 36.85 6.05 Q35.5 6.1 32.5 7.75 L33.05 8.05 33.75 8.6 Q33.2 9.05 30.2 10.5 L26.25 12.25 25.55 12.45 20.0 14.3 19.95 14.2 19.65 14.35 19.45 14.55 18.85 15.2 16.85 16.85 12.3 19.85 12.15 19.9 12.2 19.95 12.55 20.45 13.75 22.8 14.05 23.85 14.25 24.95 14.25 25.1 14.25 25.7 14.15 26.6 Q13.9 28.0 13.0 28.7 M5.35 17.7 Q4.1 18.35 4.1 20.55 4.1 22.45 5.35 24.55 6.6 26.6 8.55 27.55 10.3 28.35 11.4 28.0 L12.2 27.55 Q13.0 26.9 13.15 25.8 L13.15 25.15 13.0 23.6 12.85 23.05 11.85 20.9 10.3 18.95 Q9.5 18.35 8.55 17.85 L8.35 17.7 5.65 17.55 5.35 17.7 M5.85 18.45 L6.15 18.35 8.4 18.45 8.55 18.6 Q9.35 19.0 10.0 19.55 L11.35 21.15 12.3 23.4 12.4 24.75 12.4 25.3 Q12.3 26.2 11.6 26.75 L10.95 27.15 Q10.0 27.45 8.55 26.75 6.95 25.95 5.85 24.2 4.8 22.5 4.8 20.85 4.8 19.0 5.85 18.45 M8.55 21.2 L8.5 21.15 7.65 21.1 7.55 21.15 Q7.15 21.35 7.15 22.05 7.15 22.65 7.55 23.3 L8.55 24.25 9.45 24.4 9.7 24.25 10.0 23.7 10.0 23.5 9.95 23.0 9.6 22.15 9.1 21.55 8.55 21.2"/><path fill="none" stroke="#000000" stroke-width="1.0" stroke-opacity="0.301960784314" d="M41.4 10.75 L41.5 12.1 41.4 13.0 Q41.15 14.4 40.25 15.1 26.2 21.15 13.0 28.7 L12.0 29.2 Q10.6 29.7 8.4 28.65 6.15 27.45 4.5 24.95 2.9 22.45 2.9 20.0 2.9 17.35 4.5 16.45 L4.85 16.3 Q19.3 9.6 32.1 2.75 L35.5 2.95 35.55 3.0 35.65 3.05 37.0 3.9 37.0 5.7 38.6 5.3 38.75 5.45 39.8 6.85 40.35 7.8 Q41.0 9.0 41.3 10.25 L41.4 10.75"/><path fill="none" stroke="#000000" stroke-width="0.5" stroke-opacity="0.301960784314" d="M37.0 3.9 L29.65 7.6 37.0 5.7"/></g><g id="c16"><g><use transform="matrix(1.0,0.0,0.0,1.0,0.0,0.0)" xlink:href="#c15"/></g></g><g id="c17"><path fill="#873a3a" stroke="none" d="M31.4 5.9 L33.95 4.4 31.9 5.65 31.4 5.9"/><path fill="#c97070" stroke="none" d="M16.05 26.05 L16.15 26.35 16.1 26.35 16.05 26.05"/><path fill="#421c1c" stroke="none" d="M16.3 26.95 L16.25 26.9 16.2 26.6 16.3 26.95"/><path fill="#703030" stroke="none" d="M15.3 21.35 L15.4 21.3 15.3 21.35"/><path fill="#220d0d" stroke="none" d="M16.3 26.95 L16.25 26.95 16.25 26.9 16.3 26.95"/><path fill="#ffaae3" stroke="none" d="M45.65 4.35 L46.1 4.9 Q39.55 8.7 31.25 12.7 25.0 15.6 19.05 18.45 L31.75 11.3 Q18.7 17.05 13.8 19.4 L12.95 18.55 12.35 18.05 12.3 18.05 12.2 17.95 13.75 16.65 Q14.4 16.25 15.75 16.0 L20.6 14.7 25.4 13.15 Q27.25 12.3 27.1 11.3 26.9 10.25 25.0 10.3 23.05 10.3 21.3 11.2 19.5 12.05 19.85 12.5 20.2 12.95 20.7 13.05 L21.9 13.1 Q22.7 13.1 23.4 12.55 L24.0 11.85 Q24.0 11.45 23.3 11.45 22.75 11.45 22.5 11.8 L22.5 12.05 22.7 12.1 23.5 11.9 23.45 11.95 Q22.4 12.65 21.85 12.65 L21.4 12.35 Q21.4 12.0 22.4 11.4 23.5 10.75 24.7 10.75 L25.7 10.85 25.8 11.1 Q25.8 12.25 23.9 13.15 L19.45 14.3 13.8 15.7 Q11.6 16.35 10.8 17.0 L10.55 16.85 10.35 16.7 9.95 16.5 9.7 16.4 9.2 16.2 9.15 16.2 8.4 15.95 Q25.3 8.65 36.35 2.25 L35.05 3.75 33.95 4.4 35.05 3.75 40.45 0.45 41.4 -0.1 41.8 0.1 42.2 0.3 43.75 1.4 42.95 1.8 42.15 2.7 40.3 4.1 38.55 4.15 36.55 4.05 34.7 5.0 32.65 6.8 Q31.5 7.95 34.0 7.55 L37.2 6.7 Q37.85 6.25 37.9 5.8 37.95 5.35 36.75 5.45 35.5 5.55 35.5 6.0 35.5 6.45 35.95 6.45 L36.15 6.2 36.05 5.95 36.55 5.95 36.8 6.25 Q36.65 6.65 35.7 6.65 34.75 6.65 34.75 6.0 34.75 5.75 35.25 5.35 L36.05 4.95 38.15 4.85 40.05 4.7 40.95 4.2 45.0 2.3 45.7 2.9 34.45 8.75 45.65 4.35 M47.05 13.6 L48.95 14.65 35.75 19.15 47.05 13.6 M17.1 28.45 L22.5 25.95 18.35 29.15 17.1 28.45 M33.95 4.4 L31.4 5.9 31.9 5.65 33.95 4.4"/><path fill="#c46aa4" stroke="none" d="M46.1 4.9 L46.85 6.0 47.35 6.85 46.9 7.35 Q41.85 10.75 34.7 14.85 L25.75 19.75 35.2 16.85 39.3 13.05 Q42.05 10.35 44.95 10.05 47.85 9.75 47.1 10.95 L45.3 13.1 Q44.15 14.15 43.15 14.2 L41.55 14.15 Q41.0 14.05 41.5 13.3 L42.5 12.15 Q43.05 11.65 43.95 11.65 44.65 11.65 44.65 12.2 L44.2 12.8 43.2 13.1 Q42.8 13.1 42.8 12.9 42.8 12.75 43.55 12.55 44.25 12.35 44.25 12.15 L44.2 12.15 44.2 12.05 43.65 12.05 43.65 12.1 Q42.4 12.5 42.4 13.1 L42.55 13.45 Q42.75 13.7 43.05 13.7 44.45 13.7 45.9 11.65 45.9 10.8 44.85 10.8 43.15 10.8 41.3 12.05 L39.8 13.35 38.3 15.0 37.45 16.05 35.1 17.4 Q34.65 17.65 34.15 17.85 L30.9 20.25 16.3 26.95 16.2 26.6 16.15 26.45 16.3 26.55 18.3 25.0 19.45 23.4 Q19.9 22.65 20.9 21.85 22.2 20.75 23.2 20.75 L24.05 20.95 24.45 21.4 Q24.2 22.5 22.7 22.5 22.2 22.5 22.2 22.15 L22.4 21.95 23.05 21.75 23.1 21.8 23.1 22.05 23.25 22.1 23.5 21.75 23.5 21.55 22.9 21.35 Q21.75 21.35 21.1 22.7 20.45 24.0 21.85 23.5 L23.85 22.75 Q25.7 21.9 25.95 20.8 26.15 19.65 24.2 20.0 22.25 20.3 20.8 21.4 L18.7 23.3 16.45 24.95 15.8 25.3 15.55 24.5 32.05 13.55 19.55 19.25 15.4 21.3 15.3 21.35 15.15 21.15 15.05 20.95 14.15 19.8 14.1 19.7 13.8 19.4 Q18.7 17.05 31.75 11.3 L19.05 18.45 Q25.0 15.6 31.25 12.7 39.55 8.7 46.1 4.9 M4.9 16.15 Q15.8 11.7 24.7 7.15 31.45 3.65 37.05 0.15 L37.6 0.05 37.8 0.05 38.9 0.05 40.45 0.45 35.05 3.75 36.35 2.25 Q25.3 8.65 8.4 15.95 L6.6 15.75 5.1 16.1 4.9 16.15 M43.75 1.4 L45.0 2.3 40.95 4.2 40.05 4.7 38.15 4.85 36.05 4.95 35.25 5.35 Q34.75 5.75 34.75 6.0 34.75 6.65 35.7 6.65 36.65 6.65 36.8 6.25 L36.55 5.95 36.05 5.95 36.15 6.2 35.95 6.45 Q35.5 6.45 35.5 6.0 35.5 5.55 36.75 5.45 37.95 5.35 37.9 5.8 37.85 6.25 37.2 6.7 L34.0 7.55 Q31.5 7.95 32.65 6.8 L34.7 5.0 36.55 4.05 38.55 4.15 40.3 4.1 42.15 2.7 42.95 1.8 43.75 1.4 M10.8 17.0 Q11.6 16.35 13.8 15.7 L19.45 14.3 23.9 13.15 Q25.8 12.25 25.8 11.1 L25.7 10.85 24.7 10.75 Q23.5 10.75 22.4 11.4 21.4 12.0 21.4 12.35 L21.85 12.65 Q22.4 12.65 23.45 11.95 L23.5 11.9 22.7 12.1 22.5 12.05 22.5 11.8 Q22.75 11.45 23.3 11.45 24.0 11.45 24.0 11.85 L23.4 12.55 Q22.7 13.1 21.9 13.1 L20.7 13.05 Q20.2 12.95 19.85 12.5 19.5 12.05 21.3 11.2 23.05 10.3 25.0 10.3 26.9 10.25 27.1 11.3 27.25 12.3 25.4 13.15 L20.6 14.7 15.75 16.0 Q14.4 16.25 13.75 16.65 L12.2 17.95 12.1 17.85 12.05 17.85 11.4 17.4 11.2 17.4 10.8 17.0 10.7 17.05 10.8 17.0"/><path fill="#990066" stroke="none" d="M45.7 2.9 L45.65 4.35 34.45 8.75 45.7 2.9 M47.35 6.85 Q48.9 9.65 49.1 12.6 L47.05 13.6 35.75 19.15 48.95 14.65 Q48.7 16.2 47.5 17.3 30.45 24.05 18.2 31.75 L16.25 32.85 Q17.25 32.0 18.35 29.15 L22.5 25.95 17.1 28.45 16.4 28.75 16.4 28.1 16.4 28.05 16.25 26.95 16.3 26.95 30.9 20.25 34.15 17.85 Q34.65 17.65 35.1 17.4 L37.45 16.05 38.3 15.0 39.8 13.35 41.3 12.05 Q43.15 10.8 44.85 10.8 45.9 10.8 45.9 11.65 44.45 13.7 43.05 13.7 42.75 13.7 42.55 13.45 L42.4 13.1 Q42.4 12.5 43.65 12.1 L43.65 12.05 44.2 12.05 44.2 12.15 44.25 12.15 Q44.25 12.35 43.55 12.55 42.8 12.75 42.8 12.9 42.8 13.1 43.2 13.1 L44.2 12.8 44.65 12.2 Q44.65 11.65 43.95 11.65 43.05 11.65 42.5 12.15 L41.5 13.3 Q41.0 14.05 41.55 14.15 L43.15 14.2 Q44.15 14.15 45.3 13.1 L47.1 10.95 Q47.85 9.75 44.95 10.05 42.05 10.35 39.3 13.05 L35.2 16.85 25.75 19.75 34.7 14.85 Q41.85 10.75 46.9 7.35 L47.35 6.85 M28.1 23.3 L22.5 25.95 28.1 23.3 M15.8 25.3 L16.45 24.95 18.7 23.3 20.8 21.4 Q22.25 20.3 24.2 20.0 26.15 19.65 25.95 20.8 25.7 21.9 23.85 22.75 L21.85 23.5 Q20.45 24.0 21.1 22.7 21.75 21.35 22.9 21.35 L23.5 21.55 23.5 21.75 23.25 22.1 23.1 22.05 23.1 21.8 23.05 21.75 22.4 21.95 22.2 22.15 Q22.2 22.5 22.7 22.5 24.2 22.5 24.45 21.4 L24.05 20.95 23.2 20.75 Q22.2 20.75 20.9 21.85 19.9 22.65 19.45 23.4 L18.3 25.0 16.3 26.55 16.15 26.45 16.15 26.4 16.1 26.35 16.15 26.35 16.05 26.05 15.8 25.3 M15.4 21.3 L19.55 19.25 32.05 13.55 15.55 24.5 14.7 22.75 14.65 22.65 14.5 22.4 14.15 21.85 14.75 21.6 14.8 21.6 14.85 21.55 15.3 21.35 15.4 21.3"/><path fill="#de94c3" stroke="none" d="M16.2 26.6 L16.3 26.95 16.2 26.6"/><path fill="#b0769b" stroke="none" d="M12.05 17.85 L12.1 17.85 12.05 17.85"/><path fill="#fe78d7" stroke="none" d="M15.8 28.45 L14.35 27.75 14.35 27.2 14.15 25.9 Q13.8 24.5 13.05 23.1 L12.7 22.55 13.8 22.05 14.15 21.85 14.5 22.4 14.65 22.65 14.7 22.75 15.55 24.5 15.8 25.3 16.05 26.05 16.1 26.35 16.15 26.4 16.15 26.45 16.2 26.6 16.25 26.9 16.25 26.95 16.4 28.05 16.4 28.1 16.4 28.75 15.8 28.45"/><path fill="#db67b4" stroke="none" d="M16.25 32.85 L16.2 32.9 14.85 33.55 13.45 31.35 14.6 30.75 15.0 30.4 Q15.55 29.7 15.75 28.65 L15.8 28.45 16.4 28.75 17.1 28.45 18.35 29.15 Q17.25 32.0 16.25 32.85 M13.8 22.05 L13.45 21.55 12.2 20.2 10.85 19.2 10.0 18.7 9.85 18.6 Q8.75 18.15 7.85 18.15 L6.45 18.4 6.3 18.45 4.9 16.15 5.1 16.1 6.6 15.75 8.4 15.95 9.15 16.2 9.2 16.2 9.7 16.4 9.95 16.5 10.35 16.7 10.55 16.85 10.8 17.0 10.7 17.05 10.8 17.0 11.2 17.4 11.4 17.4 12.05 17.85 12.1 17.85 12.2 17.95 12.3 18.05 12.35 18.05 12.95 18.55 13.8 19.4 14.1 19.7 14.15 19.8 15.05 20.95 15.15 21.15 15.3 21.35 14.15 21.85 13.8 22.05"/><path fill="none" stroke="#000000" stroke-width="1.0" stroke-opacity="0.301960784314" d="M45.7 2.9 L45.65 4.35 46.1 4.9 46.85 6.0 47.35 6.85 Q48.9 9.65 49.1 12.6 L47.05 13.6 48.95 14.65 Q48.7 16.2 47.5 17.3 L47.3 17.45 Q34.75 22.45 18.2 31.75 L16.25 32.85 16.2 32.9 14.85 33.55 M15.0 30.4 Q15.55 29.7 15.75 28.65 L15.8 28.45 14.35 27.75 14.35 27.2 14.15 25.9 Q13.8 24.5 13.05 23.1 L12.7 22.55 13.8 22.05 13.45 21.55 12.2 20.2 10.85 19.2 10.0 18.7 9.85 18.6 Q8.75 18.15 7.85 18.15 L6.45 18.4 6.3 18.45 M4.9 16.15 L4.85 16.15 4.9 16.15 Q15.8 11.7 24.7 7.15 31.45 3.65 37.05 0.15 L37.6 0.05 37.8 0.05 38.9 0.05 40.45 0.45 41.4 -0.1 41.8 0.1 42.2 0.3 43.75 1.4 45.0 2.3 45.7 2.9"/><path fill="none" stroke="#000000" stroke-width="0.5" stroke-opacity="0.301960784314" d="M34.45 8.75 L45.65 4.35 M16.4 28.75 L17.1 28.45 22.5 25.95 28.1 23.3 M33.95 4.4 L35.05 3.75 40.45 0.45 M31.4 5.9 L33.95 4.4 M15.3 21.35 L15.4 21.3 19.55 19.25 M14.15 21.85 L14.75 21.6 14.8 21.6 14.85 21.55 15.3 21.35 14.15 21.85 13.8 22.05 M15.8 28.45 L16.4 28.75 M18.35 29.15 L22.5 25.95 M47.05 13.6 L35.75 19.15 48.95 14.65"/></g><g id="c18"><g><use transform="matrix(1.0,0.0,0.0,1.0,0.0,0.0)" xlink:href="#c17"/></g></g><linearGradient gradientUnits="userSpaceOnUse" x1="-819.2" x2="819.2" spreadMethod="pad" gradientTransform="matrix(0.00741577148438,-0.0445556640625,0.0592498779297,0.00990295410156,98.05,54.35)" id="gradient6"><stop offset="0.0" stop-color="#ff5793" stop-opacity="0.152941176471"/><stop offset="1.0" stop-color="#ffcce6"/></linearGradient><linearGradient gradientUnits="userSpaceOnUse" x1="-819.2" x2="819.2" spreadMethod="pad" gradientTransform="matrix(-0.00900268554688,-0.0335235595703,0.0463409423828,-0.012451171875,55.35,71.1)" id="gradient7"><stop offset="0.0" stop-color="#ff5793" stop-opacity="0.152941176471"/><stop offset="1.0" stop-color="#ffcce6"/></linearGradient><g id="c19"><path stroke="none" fill="url(#gradient6)" d="M100.85 -10.9 Q110.3 -12.4 117.1 -4.65 118.65 -2.95 119.85 -0.7 123.45 6.1 122.4 15.4 120.95 27.8 112.4 36.55 103.8 44.95 102.2 55.05 100.45 65.05 98.2 73.55 95.8 82.05 89.95 84.6 83.95 87.1 78.4 87.35 84.5 84.7 86.35 76.75 88.1 68.75 89.4 59.95 90.6 51.05 100.05 40.95 102.3 38.3 104.3 34.55 108.05 27.0 109.9 18.1 111.35 9.7 106.3 2.9 L105.35 1.6 Q99.25 -5.75 92.2 -1.45 89.15 0.25 88.9 3.2 88.35 5.6 89.7 7.15 L89.8 7.3 Q92.2 9.95 95.4 10.35 99.65 11.15 101.5 6.35 102.05 9.95 97.4 11.45 92.45 13.0 88.2 8.35 L87.7 7.95 Q86.2 5.95 85.7 3.6 84.75 -0.15 87.95 -4.65 91.3 -9.45 100.85 -10.9"/><path stroke="none" fill="url(#gradient7)" d="M44.6 25.15 Q49.0 27.8 48.05 31.4 47.5 30.7 46.7 30.2 44.35 29.1 42.75 30.45 41.25 31.8 41.15 33.5 L41.25 34.95 Q42.6 40.3 47.9 42.4 54.55 45.1 62.7 51.35 70.8 57.6 73.2 68.2 75.6 78.75 74.5 83.25 73.3 87.65 66.95 94.3 60.4 100.8 46.2 102.95 58.7 95.75 60.0 83.0 61.35 70.1 57.9 62.75 54.3 55.3 47.9 51.05 41.4 46.55 36.5 38.45 35.4 36.7 34.9 35.25 32.5 29.1 35.95 26.2 40.05 22.6 44.6 25.15"/></g><g id="c20"><g><use transform="matrix(1.0,0.0,0.0,1.0,0.0,0.0)" xlink:href="#c10"/></g><g><use transform="matrix(3.39373779297,-1.69683837891,0.709533691406,0.35888671875,17.2,109.0)" xlink:href="#c12"/></g><g><use transform="matrix(2.65997314453,0.0,0.0,2.65997314453,-2.85,63.75)" xlink:href="#c14"/></g><g><use transform="matrix(2.65997314453,0.0,0.0,2.65997314453,-1.7,23.35)" xlink:href="#c16"/></g><g><use transform="matrix(2.65997314453,0.0,0.0,2.65997314453,-9.3,20.4)" xlink:href="#c18"/></g><g><use transform="matrix(1.0,0.0,0.0,1.0,0.0,0.0)" xlink:href="#c19"/></g></g><g id="c21"><g><use transform="matrix(1.0,0.0,0.0,1.0,6.3,53.35)" xlink:href="#c9"/></g><g><use transform="matrix(-0.146041870117,0.0488891601562,0.0616760253906,0.140441894531,33.05,63.95)" xlink:href="#c20"/></g><g><use transform="matrix(0.141098022461,-0.0378112792969,0.111373901367,0.225646972656,27.2,74.05)" filter="url(#filter21)" xlink:href="#c6"/></g></g><filter id="filter21"><feColorMatrix in="SourceGraphic" type="matrix" values="1.0 0.0 0.0 0.0 0.0 0.0 1.0 0.0 0.0 0.0 0.0 0.0 1.0 0.0 0.0 0.0 0.0 0.0 0.23046875 0.0" result="cxform"/><feComposite operator="in" in2="SourceGraphic" result="color-xform"/></filter></defs><g><g><use transform="matrix(1.0,0.0,0.0,1.0,0.0,0.0)" xlink:href="#c1"/></g><g><use transform="matrix(1.15496826172,0.0,0.0,1.15496826172,-1.5,-57.15)" xlink:href="#c21"/></g></g></svg>