<?xml version='1.0' encoding='UTF-8'?>
<svg xmlns:xlink="http://www.w3.org/1999/xlink" xmlns="http://www.w3.org/2000/svg" version="1.1" width="60px" height="60px" viewBox="0.0 0.0 60.0 60.0"><defs><radialGradient gradientUnits="userSpaceOnUse" r="819.2" cx="0" cy="0" spreadMethod="pad" gradientTransform="matrix(0.0171966552734,0.0,0.0,0.0171966552734,0.0,0.0)" id="gradient1"><stop offset="0.588235294118" stop-color="#0e171d"/><stop offset="1.0" stop-color="#101a24" stop-opacity="0.0"/></radialGradient><g id="c1"><path stroke="none" fill="url(#gradient1)" d="M10.4 -10.45 Q14.75 -6.1 14.75 0.0 14.75 6.1 10.4 10.4 6.1 14.75 0.0 14.75 -6.1 14.75 -10.45 10.4 -14.75 6.1 -14.75 0.0 -14.75 -6.1 -10.45 -10.45 -6.1 -14.75 0.0 -14.75 6.1 -14.75 10.4 -10.45"/></g><g id="c2"><g><use transform="matrix(1.0,0.0,0.0,1.0,0.0,0.0)" xlink:href="#c1"/></g></g><g id="c3"><g><use transform="matrix(-2.51812744141,0.0827331542969,0.0,1.5704498291,0.0,0.0)" filter="url(#filter2)" xlink:href="#c2"/></g></g><filter id="filter2"><feColorMatrix in="SourceGraphic" type="matrix" values="1.0 0.0 0.0 0.0 0.0 0.0 1.0 0.0 0.0 0.0 0.0 0.0 1.0 0.0 0.0 0.0 0.0 0.0 0.5 0.0" result="cxform"/><feComposite operator="in" in2="SourceGraphic" result="color-xform"/></filter><radialGradient gradientUnits="userSpaceOnUse" r="819.2" cx="0" cy="0" spreadMethod="pad" gradientTransform="matrix(0.0276031494141,-0.0116424560547,-0.00202941894531,0.0136871337891,-14.75,-33.55)" id="gradient2"><stop offset="0.313725490196" stop-color="#ffffff"/><stop offset="1.0" stop-color="#ffffff" stop-opacity="0.0"/></radialGradient><radialGradient gradientUnits="userSpaceOnUse" r="819.2" cx="0" cy="0" spreadMethod="pad" gradientTransform="matrix(0.00506591796875,-0.00466918945312,-0.00157165527344,0.010009765625,-22.75,-34.35)" id="gradient3"><stop offset="0.313725490196" stop-color="#ffffff"/><stop offset="1.0" stop-color="#ffffff" stop-opacity="0.0"/></radialGradient><radialGradient gradientUnits="userSpaceOnUse" r="819.2" cx="0" cy="0" spreadMethod="pad" gradientTransform="matrix(0.00581359863281,-0.00181579589844,-0.0225067138672,0.0182342529297,-24.0,-34.2)" id="gradient4"><stop offset="0.313725490196" stop-color="#ffffff"/><stop offset="1.0" stop-color="#ffffff" stop-opacity="0.0"/></radialGradient><g id="c4"><path fill="#78929c" stroke="none" d="M28.25 -11.8 L27.3 -9.4 Q23.8 -0.5 15.3 7.95 L7.65 14.4 Q-47.65 17.25 -44.3 -11.65 -43.35 -14.2 -41.8 -16.7 L-41.75 -16.75 -41.7 -17.0 -41.65 -16.95 -37.05 -23.55 -32.5 -28.7 Q-27.95 -33.05 -23.0 -36.3 -8.75 -4.75 28.25 -11.8 M-41.75 -16.75 L-41.65 -16.95 -41.75 -16.75"/><path fill="#9dc6b6" stroke="none" d="M24.2 -37.9 Q31.4 -30.5 29.7 -18.4 29.25 -15.2 28.25 -11.8 -8.75 -4.75 -23.0 -36.3 -14.05 -42.05 -3.9 -44.15 L11.0 -44.6 Q15.4 -44.0 19.3 -41.5 L19.5 -41.4 Q21.1 -38.9 22.1 -36.05 25.85 -26.25 22.15 -14.6 28.85 -27.5 24.2 -37.9"/><path fill="#3c4a4f" stroke="none" d="M22.1 -36.05 L23.65 -38.25 24.2 -37.9 Q28.85 -27.5 22.15 -14.6 25.85 -26.25 22.1 -36.05 M7.65 14.4 Q-1.95 21.05 -13.0 23.4 -28.95 26.65 -38.9 19.2 -48.6 11.65 -46.65 -2.35 -46.3 -5.4 -45.5 -8.1 L-44.3 -11.65 Q-47.65 17.25 7.65 14.4"/><path fill="none" stroke="#000000" stroke-width="0.5" stroke-opacity="0.301960784314" d="M22.1 -36.05 L23.65 -38.25 24.2 -37.9 Q31.4 -30.5 29.7 -18.4 29.25 -15.2 28.25 -11.8 L27.3 -9.4 Q23.8 -0.5 15.3 7.95 L7.65 14.4 Q-1.95 21.05 -13.0 23.4 -28.95 26.65 -38.9 19.2 -48.6 11.65 -46.65 -2.35 -46.3 -5.4 -45.5 -8.1 L-44.3 -11.65 Q-43.35 -14.2 -41.8 -16.7 L-41.75 -16.75 M-41.65 -16.95 L-37.05 -23.55 -32.5 -28.7 Q-27.95 -33.05 -23.0 -36.3 -14.05 -42.05 -3.9 -44.15 L11.0 -44.6 Q15.4 -44.0 19.3 -41.5 L19.5 -41.4 Q21.1 -38.9 22.1 -36.05 25.85 -26.25 22.15 -14.6 28.85 -27.5 24.2 -37.9 M-41.65 -16.95 L-41.75 -16.75"/><path fill="#faf0be" fill-opacity="0.301960784314" d="M-6.65 -34.15 Q-10.05 -31.6 -14.45 -30.3 -18.9 -29.05 -21.8 -29.7 -24.65 -30.35 -24.3 -32.6 -24.0 -34.85 -20.65 -37.3 -17.25 -39.85 -12.8 -41.1 -8.4 -42.4 -5.5 -41.75 -2.6 -41.1 -2.9 -38.85 -3.25 -36.6 -6.65 -34.15"/><path fill="#fefcf8" fill-opacity="0.301960784314" d="M-12.25 -37.05 Q-13.6 -36.0 -15.35 -35.5 L-18.3 -35.25 Q-19.45 -35.5 -19.35 -36.4 -19.2 -37.3 -17.85 -38.3 -16.45 -39.3 -14.7 -39.8 L-11.8 -40.1 Q-10.65 -39.8 -10.8 -38.9 -10.9 -38.0 -12.25 -37.05"/><path stroke="none" fill="url(#gradient2)" d="M1.85 -47.0 Q7.9 -46.85 7.3 -42.9 6.75 -38.9 -0.2 -33.35 -7.05 -27.8 -16.2 -23.95 -25.35 -20.05 -31.45 -20.15 -37.45 -20.25 -36.9 -24.25 -36.3 -28.2 -29.4 -33.8 -22.5 -39.3 -13.35 -43.2 -4.2 -47.05 1.85 -47.0"/><path fill="#000000" fill-opacity="0.301960784314" d="M-33.15 -18.0 Q-42.7 -5.9 -44.1 7.2 L-44.25 13.15 Q-43.5 23.75 -35.3 29.7 -25.05 37.2 -8.9 32.8 7.15 28.45 19.65 14.7 26.9 6.75 30.5 -1.65 33.05 -7.75 33.7 -13.95 34.45 -21.6 32.15 -27.35 29.95 -32.75 24.95 -36.45 14.65 -43.9 -1.45 -39.55 -17.55 -35.2 -30.05 -21.45 L-31.75 -19.65 -33.15 -18.0"/><path stroke="none" fill="url(#gradient3)" d="M-19.15 -42.0 Q-18.25 -41.0 -18.7 -38.1 -19.2 -35.2 -20.7 -32.0 -22.2 -28.85 -23.85 -27.3 -25.55 -25.75 -26.45 -26.7 -27.3 -27.7 -26.8 -30.6 -26.35 -33.5 -24.9 -36.7 -23.35 -39.85 -21.65 -41.4 -20.0 -42.95 -19.15 -42.0"/><path stroke="none" fill="url(#gradient4)" d="M-9.55 -44.35 Q-12.8 -40.95 -19.4 -35.65 -25.95 -30.35 -31.9 -26.2 -37.95 -22.0 -39.85 -21.4 -41.8 -20.8 -38.5 -24.15 -35.3 -27.45 -28.75 -32.75 L-16.15 -42.3 Q-10.15 -46.45 -8.2 -47.05 -6.3 -47.65 -9.55 -44.35"/></g><radialGradient gradientUnits="userSpaceOnUse" r="819.2" cx="0" cy="0" spreadMethod="pad" gradientTransform="matrix(0.0806579589844,-0.0468444824219,0.0285186767578,0.0460205078125,163.3,102.6)" id="gradient5"><stop offset="0.0" stop-color="#a58942"/><stop offset="1.0" stop-color="#c77808"/></radialGradient><linearGradient gradientUnits="userSpaceOnUse" x1="-819.2" x2="819.2" spreadMethod="pad" gradientTransform="matrix(-0.0269927978516,0.00259399414062,-0.00306701660156,-0.0317840576172,85.4,87.7)" id="gradient6"><stop offset="0.0" stop-color="#ec9400"/><stop offset="1.0" stop-color="#c1860c"/><stop offset="1.0" stop-color="#9b4a1d"/></linearGradient><g id="c5"><path fill="#fec214" stroke="none" d="M165.2 42.7 Q165.05 44.95 164.35 47.2 L164.35 46.5 164.25 47.55 163.9 48.55 162.7 51.25 161.1 53.85 161.1 53.9 157.65 58.2 Q155.15 61.05 151.95 63.5 149.1 65.85 145.7 67.85 133.55 75.25 114.8 79.2 L111.7 79.8 Q85.75 84.7 60.35 81.0 L51.1 79.3 48.75 78.8 Q31.5 74.9 20.05 68.3 L18.2 67.2 Q11.2 62.7 6.55 57.1 L5.55 55.8 Q3.45 53.05 2.15 50.3 0.45 46.75 0.1 43.25 L0.0 42.05 0.0 41.05 Q0.05 33.3 6.4 25.65 L7.6 24.3 Q21.6 8.8 53.5 2.75 75.4 -1.35 96.95 0.65 106.75 1.55 116.5 3.75 L119.15 4.35 Q142.85 10.15 154.95 21.45 157.55 23.95 159.65 26.7 L162.05 30.4 Q165.05 36.1 165.25 41.1 L165.2 42.7 M19.05 43.05 Q19.2 44.5 19.7 46.0 L20.55 48.25 Q21.6 50.35 23.2 52.5 26.95 57.4 33.0 61.3 42.15 66.95 56.45 70.2 L58.3 70.6 65.45 71.9 Q85.0 74.8 105.05 71.0 121.15 67.95 131.3 61.8 133.9 60.2 136.1 58.4 138.5 56.55 140.5 54.35 143.85 50.65 145.3 46.9 L146.25 43.15 146.35 41.3 Q146.35 35.75 142.05 30.05 140.45 27.9 138.35 26.0 130.95 19.0 117.75 14.75 L110.8 12.8 108.8 12.3 Q84.8 6.9 60.15 11.55 35.55 16.2 24.75 28.2 L23.85 29.2 Q18.15 36.05 19.05 43.05"/><path stroke="none" fill="url(#gradient5)" d="M164.35 47.2 L164.35 74.6 Q164.2 77.2 163.15 79.85 162.2 82.2 160.55 84.6 L157.3 88.55 Q154.95 91.2 151.95 93.45 L146.1 97.55 Q134.75 104.45 117.2 108.55 122.65 93.4 117.65 81.4 L117.2 80.45 Q134.75 76.4 146.1 69.45 149.3 67.55 151.95 65.4 154.95 63.1 157.3 60.45 L160.55 56.55 160.6 56.6 160.55 56.5 162.05 54.15 163.15 51.75 164.1 48.6 164.25 47.55 164.35 46.5 164.35 47.2"/><path stroke="none" fill="url(#gradient6)" d="M164.35 47.2 Q165.05 44.95 165.2 42.7 L165.2 74.3 Q165.0 77.25 163.9 80.15 162.9 82.8 161.1 85.45 L157.65 89.8 Q155.15 92.65 151.95 95.1 149.1 97.45 145.7 99.45 133.55 106.85 114.8 110.8 L111.7 111.4 Q85.75 116.3 60.35 112.6 L51.1 110.9 48.75 110.4 Q31.5 106.5 20.05 99.9 17.05 86.6 19.5 71.45 L20.05 68.3 Q31.5 74.9 48.75 78.8 L51.1 79.3 60.35 81.0 Q85.75 84.7 111.7 79.8 L114.8 79.2 Q133.55 75.25 145.7 67.85 149.1 65.85 151.95 63.5 155.15 61.05 157.65 58.2 L161.1 53.9 161.15 53.95 161.1 53.85 162.7 51.25 163.9 48.55 164.1 48.6 163.15 51.75 162.05 54.15 160.55 56.5 160.55 56.55 157.3 60.45 Q154.95 63.1 151.95 65.4 149.3 67.55 146.1 69.45 134.75 76.4 117.2 80.45 L117.65 81.4 Q122.65 93.4 117.2 108.55 134.75 104.45 146.1 97.55 L151.95 93.45 Q154.95 91.2 157.3 88.55 L160.55 84.6 Q162.2 82.2 163.15 79.85 164.2 77.2 164.35 74.6 L164.35 47.2 M0.1 43.25 Q0.45 46.75 2.15 50.3 3.45 53.05 5.55 55.8 L6.55 57.1 6.1 60.3 Q4.1 74.8 6.55 88.7 L5.55 87.4 Q3.45 84.65 2.15 81.9 0.2 77.75 0.0 73.65 L0.0 46.0 0.0 45.0 0.0 43.25 0.1 43.25"/><path fill="#ed9500" stroke="none" d="M19.05 43.05 Q19.65 37.9 23.85 32.8 L24.75 31.8 Q35.55 19.8 60.15 15.15 84.8 10.5 108.8 15.9 L110.8 16.4 Q116.35 17.75 121.05 19.5 131.9 23.5 138.35 29.6 140.45 31.5 142.05 33.65 145.65 38.45 146.25 43.15 L145.3 46.9 Q143.85 50.65 140.5 54.35 138.5 56.55 136.1 58.4 133.9 60.2 131.3 61.8 121.15 67.95 105.05 71.0 85.0 74.8 65.45 71.9 L58.3 70.6 56.45 70.2 Q42.15 66.95 33.0 61.3 26.95 57.4 23.2 52.5 21.6 50.35 20.55 48.25 L19.7 46.0 Q19.2 44.5 19.05 43.05"/><path fill="#d47e00" stroke="none" d="M146.25 43.15 Q145.65 38.45 142.05 33.65 140.45 31.5 138.35 29.6 131.9 23.5 121.05 19.5 116.35 17.75 110.8 16.4 L108.8 15.9 Q84.8 10.5 60.15 15.15 35.55 19.8 24.75 31.8 L23.85 32.8 Q19.65 37.9 19.05 43.05 18.15 36.05 23.85 29.2 L24.75 28.2 Q35.55 16.2 60.15 11.55 84.8 6.9 108.8 12.3 L110.8 12.8 117.75 14.75 Q130.95 19.0 138.35 26.0 140.45 27.9 142.05 30.05 146.35 35.75 146.35 41.3 L146.25 43.15"/><path fill="#ad440a" stroke="none" d="M161.1 53.85 L161.15 53.95 161.1 53.9 161.1 53.85"/><path fill="#cc6b22" stroke="none" d="M0.0 42.05 L0.1 43.25 0.0 43.25 0.0 42.05"/><path fill="#fffd1c" stroke="none" d="M20.05 68.3 L19.5 71.45 Q17.05 86.6 20.05 99.9 L18.2 98.8 Q11.2 94.3 6.55 88.7 4.1 74.8 6.1 60.3 L6.55 57.1 Q11.2 62.7 18.2 67.2 L20.05 68.3"/><path fill="none" stroke="#000000" stroke-width="1.0" stroke-opacity="0.101960784314" d="M20.05 99.9 Q31.5 106.5 48.75 110.4 L51.1 110.9 60.35 112.6 Q85.75 116.3 111.7 111.4 L114.8 110.8 Q133.55 106.85 145.7 99.45 149.1 97.45 151.95 95.1 155.15 92.65 157.65 89.8 L161.1 85.45 Q162.9 82.8 163.9 80.15 165.0 77.25 165.2 74.3 L165.2 42.7 165.25 41.1 Q165.05 36.1 162.05 30.4 L159.65 26.7 Q157.55 23.95 154.95 21.45 142.85 10.15 119.15 4.35 L116.5 3.75 Q106.75 1.55 96.95 0.65 75.4 -1.35 53.5 2.75 21.6 8.8 7.6 24.3 L6.4 25.65 Q0.05 33.3 0.0 41.05 L0.0 42.05 M6.55 88.7 L5.55 87.4 Q3.45 84.65 2.15 81.9 0.2 77.75 0.0 73.65 L0.0 46.0 0.0 45.0 0.0 43.25 0.0 42.05 M6.55 88.7 Q11.2 94.3 18.2 98.8 L20.05 99.9"/></g><g id="c6"><path fill="#ffc040" stroke="none" d="M0.1 43.05 L0.0 42.05 0.0 41.05 Q0.05 33.3 6.4 25.65 L7.6 24.3 Q21.6 8.8 53.5 2.75 75.4 -1.35 96.95 0.65 106.75 1.55 116.5 3.75 L119.15 4.35 Q131.9 7.45 141.25 12.2 144.35 13.75 147.1 15.45 L149.25 16.8 Q152.4 19.0 155.0 21.45 L156.65 23.1 157.5 24.05 155.65 23.65 Q147.85 22.2 134.65 23.05 128.0 18.25 118.0 15.05 114.7 14.0 111.05 13.1 L109.05 12.6 Q85.05 7.2 60.4 11.85 35.8 16.5 25.0 28.5 L24.1 29.5 Q18.4 36.35 19.3 43.35 19.9 38.2 24.1 33.1 L25.0 32.1 Q35.8 20.1 60.4 15.45 85.05 10.8 109.05 16.2 L111.05 16.7 Q116.6 18.05 121.3 19.8 128.8 22.55 134.2 26.35 119.35 25.85 104.35 28.65 76.65 33.9 64.5 47.35 64.0 47.9 61.3 53.2 58.55 58.5 58.5 61.2 58.4 63.9 59.25 67.2 60.05 70.45 68.65 72.45 64.25 72.2 55.6 70.2 49.25 75.25 46.95 77.95 L46.65 78.3 Q30.8 74.5 20.05 68.3 L18.2 67.2 Q11.2 62.7 6.55 57.1 L5.55 55.8 Q3.45 53.05 2.15 50.3 0.45 46.65 0.1 43.05"/><path fill="#ffc040" fill-opacity="0.4" d="M134.65 23.05 L134.45 23.0 Q134.55 26.35 134.2 26.35 128.8 22.55 121.3 19.8 116.6 18.05 111.05 16.7 L109.05 16.2 Q85.05 10.8 60.4 15.45 35.8 20.1 25.0 32.1 L24.1 33.1 Q19.9 38.2 19.3 43.35 18.4 36.35 24.1 29.5 L25.0 28.5 Q35.8 16.5 60.4 11.85 85.05 7.2 109.05 12.6 L111.05 13.1 Q114.7 14.0 118.0 15.05 128.0 18.25 134.65 23.05"/><path fill="#ffff99" stroke="none" d="M46.95 77.95 L48.75 78.35 51.1 78.85 60.35 80.55 Q85.75 84.25 111.7 79.35 L114.8 78.75 Q133.55 74.8 145.7 67.4 149.1 65.4 151.95 63.05 155.1 60.65 157.6 57.85 L157.65 57.9 Q155.15 60.85 151.95 63.35 149.1 65.75 145.7 67.85 133.7 75.45 115.25 79.85 L114.8 79.95 111.7 80.6 Q85.75 86.15 60.35 83.05 L51.1 81.55 48.75 81.1 Q31.5 77.65 20.05 71.3 L19.5 71.0 18.2 70.25 Q11.2 65.9 6.55 60.45 L6.1 59.85 5.55 59.15 Q3.45 56.45 2.15 53.75 0.2 49.65 0.0 45.55 L0.0 44.55 0.0 44.35 0.1 43.05 Q0.45 46.65 2.15 50.3 3.45 53.05 5.55 55.8 L6.55 57.1 Q11.2 62.7 18.2 67.2 L20.05 68.3 Q30.8 74.5 46.65 78.3 L46.95 77.95"/></g><g id="c7"><g><use transform="matrix(1.0,0.0,0.0,1.0,0.0,0.0)" xlink:href="#c6"/></g></g><g id="c8"><path fill="none" stroke="#ffc040" stroke-width="1.0" stroke-opacity="0.501960784314" d="M0.0 34.05 Q0.0 35.05 0.7 35.75 1.4 36.45 2.4 36.45 L2.75 36.45 Q3.5 36.3 4.1 35.75 4.8 35.05 4.8 34.05 L4.8 17.9 M9.8 38.4 Q9.8 39.4 10.5 40.1 11.2 40.8 12.2 40.8 13.15 40.8 13.9 40.1 14.6 39.4 14.6 38.4 L14.6 22.25 M139.9 16.05 Q139.9 17.15 139.35 18.05 138.75 18.95 137.9 19.15 137.1 19.4 136.5 18.85 135.9 18.25 135.9 17.15 L135.9 0.0"/><path fill="none" stroke="#ffc040" stroke-width="1.0" stroke-opacity="0.4" d="M20.2 41.5 Q20.2 42.5 20.9 43.2 21.6 43.9 22.6 43.9 23.55 43.9 24.3 43.2 25.0 42.5 25.0 41.5 L25.0 25.35 M133.4 23.7 Q133.4 24.8 132.85 25.7 L131.4 26.8 Q130.6 27.05 130.0 26.5 129.4 25.9 129.4 24.8 L129.4 7.65"/><path fill="none" stroke="#ffc040" stroke-width="1.0" stroke-opacity="0.301960784314" d="M30.8 43.65 Q30.8 44.65 31.5 45.35 32.2 46.05 33.2 46.05 34.15 46.05 34.9 45.35 35.6 44.65 35.6 43.65 L35.6 27.5 M126.55 28.85 Q126.55 29.9 125.95 30.8 125.4 31.75 124.55 31.95 123.75 32.2 123.15 31.6 122.55 31.05 122.55 30.0 L122.55 12.85"/><path fill="none" stroke="#ffc040" stroke-width="1.0" stroke-opacity="0.2" d="M41.2 44.85 Q41.2 45.85 41.9 46.55 42.6 47.25 43.6 47.25 44.55 47.25 45.3 46.55 46.0 45.85 46.0 44.85 L46.0 28.7 M118.25 34.4 Q118.25 35.45 117.7 36.35 117.1 37.25 116.25 37.5 115.45 37.7 114.85 37.15 114.25 36.55 114.25 35.5 L114.25 18.3"/><path fill="none" stroke="#ffc040" stroke-width="1.0" stroke-opacity="0.101960784314" d="M52.0 45.65 Q52.0 46.65 52.7 47.35 53.4 48.05 54.4 48.05 55.35 48.05 56.1 47.35 56.8 46.65 56.8 45.65 L56.8 29.5 M63.75 44.85 Q63.75 45.85 64.45 46.55 65.15 47.25 66.15 47.25 67.1 47.25 67.85 46.55 68.55 45.85 68.55 44.85 L68.55 28.7 M108.85 37.75 Q108.85 38.8 108.25 39.7 107.65 40.6 106.85 40.85 106.05 41.05 105.4 40.5 104.8 39.9 104.8 38.85 L104.8 21.65 M97.2 41.6 Q97.2 42.65 96.6 43.55 96.05 44.5 95.2 44.7 94.4 44.95 93.8 44.35 93.2 43.75 93.2 42.7 L93.2 25.5"/></g><g id="c9"><g><use transform="matrix(1.0,0.0,0.0,1.0,0.0,0.0)" xlink:href="#c8"/></g></g><g id="c10"><path fill="#ffff99" stroke="none" d="M36.4 34.95 Q38.2 33.25 41.3 32.8 44.35 32.3 46.8 33.3 49.2 34.25 49.65 36.15 50.05 38.05 48.15 39.7 46.3 41.4 43.25 41.9 40.15 42.35 37.75 41.35 35.3 40.4 34.9 38.5 34.45 36.6 36.4 34.95"/><path fill="#ffff99" stroke="none" d="M52.4 30.7 Q53.3 29.9 54.75 29.65 L57.4 29.9 Q58.6 30.4 58.8 31.3 58.95 32.2 58.05 32.95 57.15 33.8 55.7 34.0 L53.05 33.75 Q51.85 33.3 51.7 32.4 51.5 31.5 52.4 30.7"/><path fill="#ffff99" fill-opacity="0.301960784314" d="M64.95 33.25 Q65.85 36.5 61.65 39.8 57.5 43.05 50.65 44.4 43.8 45.75 38.35 44.4 32.9 43.0 32.0 39.7 31.1 36.45 35.3 33.2 39.45 29.95 46.3 28.6 53.15 27.25 58.6 28.6 64.05 30.0 64.95 33.25"/></g><g id="c11"><g><use transform="matrix(1.0,0.0,0.0,1.0,0.0,0.0)" xlink:href="#c5"/></g><g><use transform="matrix(1.0,0.0,0.0,1.0,0.0,0.3)" filter="url(#filter6)" xlink:href="#c7"/></g><g><use transform="matrix(1.0,0.0,0.0,1.0,22.5,61.8)" filter="url(#filter7)" xlink:href="#c9"/></g><g><use transform="matrix(1.0,0.0,0.0,1.0,0.0,0.0)" xlink:href="#c10"/></g></g><filter id="filter6"><feColorMatrix in="SourceGraphic" type="matrix" values="1.0 0.0 0.0 0.0 0.0 0.0 1.0 0.0 0.0 0.0 0.0 0.0 1.0 0.0 0.0 0.0 0.0 0.0 0.30859375 0.0" result="cxform"/><feComposite operator="in" in2="SourceGraphic" result="color-xform"/></filter><filter id="filter7"><feColorMatrix in="SourceGraphic" type="matrix" values="1.0 0.0 0.0 0.0 0.0 0.0 1.0 0.0 0.0 0.0 0.0 0.0 1.0 0.0 0.0 0.0 0.0 0.0 0.30859375 0.0" result="cxform"/><feComposite operator="in" in2="SourceGraphic" result="color-xform"/></filter><g id="c12"><g><use transform="matrix(1.0,0.0,0.0,1.0,0.0,0.0)" xlink:href="#c4"/></g><g><use transform="matrix(-0.455368041992,0.37890625,-0.375045776367,-0.452011108398,59.05,-5.5)" xlink:href="#c11"/></g></g><g id="c13"><path fill="#875f01" stroke="none" d="M27.6 0.85 L26.0 11.1 Q18.4 5.05 6.55 3.1 -5.45 1.1 -14.8 4.4 -23.95 7.7 -25.2 14.3 -26.15 12.45 -26.45 10.65 -26.8 8.7 -26.45 6.75 -25.1 -0.7 -14.7 -4.45 -4.35 -8.1 9.0 -5.9 19.9 -4.1 27.6 0.85"/><path fill="#db9902" stroke="none" d="M27.6 0.85 Q19.9 -4.1 9.0 -5.9 -4.35 -8.1 -14.7 -4.45 -25.1 -0.7 -26.45 6.75 -26.8 8.7 -26.45 10.65 L-39.9 6.95 -40.0 6.15 Q-39.95 6.65 -39.6 4.6 -37.75 -5.85 -23.1 -11.1 -8.5 -16.25 10.3 -13.15 28.35 -10.15 40.15 -1.2 L27.6 0.85"/><path fill="#e6b100" stroke="none" d="M-40.0 6.15 L-39.9 6.95 -40.2 6.85 -40.1 5.9 -40.0 6.15"/><path fill="none" stroke="#d29402" stroke-width="0.5" stroke-opacity="0.301960784314" d="M27.6 0.85 Q19.9 -4.1 9.0 -5.9 -4.35 -8.1 -14.7 -4.45 -25.1 -0.7 -26.45 6.75 -26.8 8.7 -26.45 10.65 M-25.2 14.3 Q-23.95 7.7 -14.8 4.4 -5.45 1.1 6.55 3.1 18.4 5.05 26.0 11.1 M40.15 -1.2 Q28.35 -10.15 10.3 -13.15 -8.5 -16.25 -23.1 -11.1 -37.75 -5.85 -39.6 4.6 -39.95 6.65 -40.0 6.15 L-39.9 6.95 M-40.2 6.85 L-40.1 5.9 -40.0 6.15"/></g><g id="c14"><g><use transform="matrix(1.0,0.0,0.0,1.0,0.0,0.0)" xlink:href="#c13"/></g></g><g id="c15"><path fill="#28231c" stroke="none" d="M3.8 -5.2 Q8.5 -1.85 11.25 4.15 L5.05 3.6 3.35 8.35 2.75 8.3 Q-6.2 5.8 -9.05 0.65 L-8.8 -0.5 -7.1 0.15 Q-3.55 1.0 -0.3 0.3 L3.4 -3.0 3.8 -5.2 M4.15 2.8 L9.7 2.8 Q7.05 -1.1 5.5 -1.65 L0.85 6.05 -3.1 5.2 Q-0.8 7.4 2.8 7.55 L4.15 2.8"/><path fill="#42362d" stroke="none" d="M4.15 2.8 L2.8 7.55 Q-0.8 7.4 -3.1 5.2 L0.85 6.05 5.5 -1.65 Q7.05 -1.1 9.7 2.8 L4.15 2.8"/><path fill="#1a1511" stroke="none" d="M3.8 -5.2 L3.4 -3.0 -0.3 0.3 Q-3.55 1.0 -7.1 0.15 L-8.8 -0.5 -9.05 0.65 Q-6.2 5.8 2.75 8.3 -5.4 7.2 -9.45 2.4 -13.05 -1.85 -9.2 -6.75 -5.4 -9.95 1.25 -6.7 L3.8 -5.2"/><path fill="none" stroke="#000000" stroke-width="0.5" stroke-opacity="0.301960784314" d="M2.75 8.3 L3.35 8.35 5.05 3.6 11.25 4.15 Q8.5 -1.85 3.8 -5.2 M2.75 8.3 Q-5.4 7.2 -9.45 2.4 -13.05 -1.85 -9.2 -6.75 -5.4 -9.95 1.25 -6.7 L3.8 -5.2"/></g><g id="c16"><g><use transform="matrix(1.0,0.0,0.0,1.0,0.0,0.0)" xlink:href="#c15"/></g></g><g id="c17"><path fill="#1a1511" stroke="none" d="M-3.85 5.25 L-4.95 -1.65 -3.15 -6.05 Q1.6 -8.65 5.0 -6.9 2.4 -0.9 1.5 5.6 -1.15 9.7 -3.85 5.25"/><path fill="none" stroke="#000000" stroke-width="0.5" stroke-opacity="0.301960784314" d="M-3.85 5.25 L-4.95 -1.65 -3.15 -6.05 Q1.6 -8.65 5.0 -6.9 2.4 -0.9 1.5 5.6 -1.15 9.7 -3.85 5.25"/></g><g id="c18"><g><use transform="matrix(1.0,0.0,0.0,1.0,0.0,0.0)" xlink:href="#c17"/></g></g><g id="c19"><path fill="#28231c" stroke="none" d="M6.35 -4.7 L8.5 -3.15 Q12.7 -0.2 11.35 6.95 9.85 14.1 5.0 14.1 0.1 14.0 -4.6 11.65 -9.45 9.25 -10.95 0.4 -12.3 -8.45 -10.95 -12.0 -9.45 -15.4 -2.9 -13.35 3.6 -11.5 6.05 -5.5 L6.35 -4.7 Q4.65 -5.75 -2.9 -7.95 -4.4 -7.4 -2.7 1.45 -4.4 -7.4 -2.9 -7.95 4.65 -5.75 6.35 -4.7"/><path fill="none" stroke="#000000" stroke-width="0.5" stroke-opacity="0.301960784314" d="M6.35 -4.7 L6.05 -5.5 Q3.6 -11.5 -2.9 -13.35 -9.45 -15.4 -10.95 -12.0 -12.3 -8.45 -10.95 0.4 -9.45 9.25 -4.6 11.65 0.1 14.0 5.0 14.1 9.85 14.1 11.35 6.95 12.7 -0.2 8.5 -3.15 L6.35 -4.7 Q4.65 -5.75 -2.9 -7.95 -4.4 -7.4 -2.7 1.45"/></g><g id="c20"><g><use transform="matrix(1.0,0.0,0.0,1.0,0.0,0.0)" xlink:href="#c19"/></g></g><g id="c21"><path fill="#28231c" stroke="none" d="M3.1 10.2 L1.15 9.15 2.65 9.15 4.15 3.45 8.7 3.75 Q7.85 -0.35 5.4 -3.6 L3.45 0.75 Q-1.35 -0.6 -2.8 3.3 -2.9 5.45 -1.3 7.5 L-1.2 7.65 Q-5.85 4.3 -7.9 -0.1 -8.1 -2.6 -7.05 -2.8 -4.4 -0.85 -1.5 -1.05 L2.75 -3.6 2.7 -5.45 3.3 -6.55 5.7 -5.2 Q8.0 -1.65 9.25 4.7 L4.2 4.1 3.45 10.25 3.1 10.2"/><path fill="#463c31" stroke="none" d="M1.15 9.15 Q-0.2 8.85 -1.2 7.65 L-1.3 7.5 Q-2.9 5.45 -2.8 3.3 -1.35 -0.6 3.45 0.75 L5.4 -3.6 Q7.85 -0.35 8.7 3.75 L4.15 3.45 2.65 9.15 1.15 9.15"/><path fill="#1a1511" stroke="none" d="M3.1 10.2 Q-3.7 8.3 -7.45 2.55 -10.65 -2.4 -8.1 -8.15 -5.4 -11.85 1.15 -9.1 3.8 -8.05 5.7 -5.2 L3.3 -6.55 2.7 -5.45 2.75 -3.6 -1.5 -1.05 Q-4.4 -0.85 -7.05 -2.8 -8.1 -2.6 -7.9 -0.1 -5.85 4.3 -1.2 7.65 -0.2 8.85 1.15 9.15 L3.1 10.2"/><path fill="none" stroke="#000000" stroke-width="0.5" stroke-opacity="0.301960784314" d="M5.7 -5.2 Q3.8 -8.05 1.15 -9.1 -5.4 -11.85 -8.1 -8.15 -10.65 -2.4 -7.45 2.55 -3.7 8.3 3.1 10.2 M5.7 -5.2 Q8.0 -1.65 9.25 4.7 L4.2 4.1 3.45 10.25"/></g><g id="c22"><g><use transform="matrix(1.0,0.0,0.0,1.0,0.0,0.0)" xlink:href="#c21"/></g></g><g id="c23"><path fill="#1a1511" stroke="none" d="M5.45 -5.9 Q2.6 -0.25 1.6 5.75 -1.0 7.65 -4.3 5.45 L-5.5 -1.0 -3.55 -5.1 Q1.7 -7.65 5.45 -5.9"/><path fill="none" stroke="#000000" stroke-width="0.5" stroke-opacity="0.301960784314" d="M5.45 -5.9 Q2.6 -0.25 1.6 5.75 -1.0 7.65 -4.3 5.45 L-5.5 -1.0 -3.55 -5.1 Q1.7 -7.65 5.45 -5.9"/></g><g id="c24"><g><use transform="matrix(1.0,0.0,0.0,1.0,0.0,0.0)" xlink:href="#c23"/></g></g><g id="c25"><path fill="#db6f02" stroke="none" d="M1.95 11.05 Q3.8 7.75 3.45 3.9 4.0 5.7 4.05 8.1 L4.05 11.1 1.95 11.45 1.95 11.05"/><path fill="#6c2206" stroke="none" d="M0.15 -8.15 Q4.5 0.6 4.3 11.8 3.8 11.25 1.95 12.7 L1.95 11.45 4.05 11.1 4.05 8.1 Q4.0 5.7 3.45 3.9 3.8 7.75 1.95 11.05 L1.95 7.75 Q3.3 3.1 0.15 -8.15"/><path fill="#481104" stroke="none" d="M-0.4 6.9 Q-1.95 -6.35 -4.3 -12.75 -2.1 -11.15 -0.05 -8.5 L0.0 -8.4 0.15 -8.15 Q3.3 3.1 1.95 7.75 L1.95 11.05 1.95 11.45 1.95 12.7 -1.35 10.2 -0.4 6.9"/><path fill="none" stroke="#000000" stroke-width="0.5" stroke-opacity="0.301960784314" d="M-0.4 6.9 Q-1.95 -6.35 -4.3 -12.75 -2.1 -11.15 -0.05 -8.5 L0.0 -8.4 M0.15 -8.15 Q4.5 0.6 4.3 11.8 3.8 11.25 1.95 12.7"/></g><g id="c26"><g><use transform="matrix(1.0,0.0,0.0,1.0,0.0,0.0)" xlink:href="#c25"/></g></g><g id="c27"><path fill="#28231c" stroke="none" d="M18.95 8.3 L18.35 9.5 Q19.45 11.05 20.65 15.15 L3.55 24.5 -2.4 23.35 -17.4 14.0 Q-19.25 7.85 -20.0 2.3 -13.55 9.3 -5.6 14.2 L0.5 15.4 18.95 8.3"/><path fill="#14110e" stroke="none" d="M-19.9 -15.0 L-19.45 -17.15 Q-7.85 -43.7 17.5 -20.7 21.6 -14.0 19.9 -5.6 19.6 -1.6 18.6 3.25 L1.55 7.7 -5.0 6.4 Q-14.2 -2.85 -19.9 -15.0"/><path fill="#1e1a15" stroke="none" d="M18.6 3.25 L18.5 3.6 17.6 4.55 18.95 8.3 0.5 15.4 -5.6 14.2 Q-13.55 9.3 -20.0 2.3 -21.3 -7.0 -19.9 -15.0 -14.2 -2.85 -5.0 6.4 L1.55 7.7 18.6 3.25"/><path fill="#231e18" stroke="none" d="M20.65 15.15 L19.85 16.8 Q15.55 31.5 -0.3 31.35 -6.9 27.85 -10.4 24.95 -13.9 21.9 -16.35 17.15 L-17.4 14.0 -2.4 23.35 3.55 24.5 20.65 15.15"/><path fill="none" stroke="#000000" stroke-width="0.5" stroke-opacity="0.301960784314" d="M-19.9 -15.0 L-19.45 -17.15 Q-7.85 -43.7 17.5 -20.7 21.6 -14.0 19.9 -5.6 19.6 -1.6 18.6 3.25 L18.5 3.6 17.6 4.55 18.95 8.3 18.35 9.5 Q19.45 11.05 20.65 15.15 L19.85 16.8 Q15.55 31.5 -0.3 31.35 -6.9 27.85 -10.4 24.95 -13.9 21.9 -16.35 17.15 L-17.4 14.0 Q-19.25 7.85 -20.0 2.3 -21.3 -7.0 -19.9 -15.0 -14.2 -2.85 -5.0 6.4 L1.55 7.7 18.6 3.25 M18.95 8.3 L0.5 15.4 -5.6 14.2 Q-13.55 9.3 -20.0 2.3 M20.65 15.15 L3.55 24.5 -2.4 23.35 -17.4 14.0"/><path fill="#42362d" stroke="none" d="M-0.4 18.05 Q13.4 11.55 17.1 10.5 L19.4 14.7 2.65 22.95 -0.8 22.25 Q-9.1 17.85 -11.75 12.7 -8.55 15.15 -4.45 17.25 L-0.4 18.05"/><path fill="#28231c" stroke="none" d="M-2.05 14.05 Q-10.4 9.65 -13.0 4.45 -9.8 6.95 -5.7 9.05 L-1.65 9.85 Q12.05 4.65 16.45 5.1 L18.1 7.7 0.4 14.55 -2.05 14.05"/><path fill="#28231c" stroke="none" d="M-12.4 19.5 Q-9.4 24.0 -4.25 25.75 L2.4 26.75 Q15.0 20.95 17.25 18.55 17.5 21.2 15.1 24.5 8.8 29.95 0.3 29.85 -9.95 26.7 -12.4 19.5"/><path fill="#605142" stroke="none" d="M17.75 14.0 L2.25 21.9 -1.2 21.25 -4.2 18.35 Q-1.5 19.2 1.9 19.1 L16.2 12.4 Q17.15 12.6 17.75 14.0"/></g><g id="c28"><g><use transform="matrix(1.0,0.0,0.0,1.0,0.0,0.0)" xlink:href="#c27"/></g></g><g id="c29"><path fill="#28231c" stroke="none" d="M-5.4 5.9 Q-5.5 5.5 -5.95 5.2 -10.8 -0.15 -11.4 -8.0 -12.1 -15.95 -8.9 -16.3 -5.65 -16.5 2.0 -11.05 9.5 -5.75 10.8 0.55 12.05 6.7 11.25 12.15 10.55 17.4 4.05 16.0 -2.45 14.65 -4.35 8.8 L-5.4 5.9 Q-7.65 -7.0 0.5 -2.25 -5.95 -7.05 -6.6 -5.75 -5.95 3.45 -5.4 5.9"/><path fill="#14110e" stroke="none" d="M-5.4 5.9 Q-5.95 3.45 -6.6 -5.75 -5.95 -7.05 0.5 -2.25 -7.65 -7.0 -5.4 5.9"/><path fill="none" stroke="#000000" stroke-width="0.5" stroke-opacity="0.301960784314" d="M-5.4 5.9 L-4.35 8.8 Q-2.45 14.65 4.05 16.0 10.55 17.4 11.25 12.15 12.05 6.7 10.8 0.55 9.5 -5.75 2.0 -11.05 -5.65 -16.5 -8.9 -16.3 -12.1 -15.95 -11.4 -8.0 -10.8 -0.15 -5.95 5.2 -5.5 5.5 -5.4 5.9 -5.95 3.45 -6.6 -5.75 -5.95 -7.05 0.5 -2.25"/><path fill="#372f26" stroke="none" d="M6.6 4.1 L7.9 -1.9 Q11.15 -0.1 9.8 13.15 4.85 14.25 -0.85 10.55 -4.75 1.2 -3.35 -1.5 -0.85 -3.45 6.6 4.1"/><path fill="#372f26" stroke="none" d="M-9.05 -14.85 Q-2.75 -13.4 3.9 -7.0 -2.25 -10.8 -7.5 -10.05 L-9.65 -6.5 Q-11.05 -11.95 -9.05 -14.85"/><path fill="#605142" stroke="none" d="M7.05 6.55 L8.0 2.8 Q10.45 4.25 9.4 12.6 5.75 12.95 1.55 10.2 -1.35 3.95 -0.3 2.35 1.55 1.2 7.05 6.55"/></g><g id="c30"><g><use transform="matrix(1.0,0.0,0.0,1.0,0.0,0.0)" xlink:href="#c29"/></g></g><g id="c31"><path fill="#481104" stroke="none" d="M-8.95 10.25 Q-9.45 -1.05 -1.6 -11.75 1.85 -15.15 5.75 -17.55 2.75 -9.0 -0.95 3.9 10.25 10.4 8.75 13.3 7.25 16.25 2.65 17.5 L3.9 15.1 Q3.15 13.0 2.4 12.75 L-3.0 11.0 Q-7.95 9.35 -8.95 10.25"/><path fill="none" stroke="#000000" stroke-width="0.5" stroke-opacity="0.301960784314" d="M-8.95 10.25 Q-9.45 -1.05 -1.6 -11.75 1.85 -15.15 5.75 -17.55 2.75 -9.0 -0.95 3.9 10.25 10.4 8.75 13.3 7.25 16.25 2.65 17.5 L3.9 15.1 Q3.15 13.0 2.4 12.75 L-3.0 11.0 Q-7.95 9.35 -8.95 10.25"/></g><g id="c32"><g><use transform="matrix(1.0,0.0,0.0,1.0,0.0,0.0)" xlink:href="#c31"/></g></g><g id="c33"><path fill="#db6f02" stroke="none" d="M-9.35 3.85 Q-8.95 1.35 -7.5 -0.45 -8.75 3.75 -5.0 7.35 L-9.65 7.0 -9.35 3.85 M4.3 15.7 Q6.7 15.5 9.1 14.4 6.85 16.9 3.15 17.1 L4.3 15.7"/><path fill="#6c2206" stroke="none" d="M0.7 -13.0 Q-8.8 1.1 -3.7 5.25 L6.1 12.35 Q4.55 13.4 2.7 12.9 L2.4 12.75 -3.5 9.7 Q-8.9 6.95 -10.25 7.7 -9.35 -3.85 0.7 -13.0 M-9.35 3.85 L-9.65 7.0 -5.0 7.35 Q-8.75 3.75 -7.5 -0.45 -8.95 1.35 -9.35 3.85"/><path fill="#481104" stroke="none" d="M2.7 12.9 Q4.55 13.4 6.1 12.35 L-3.7 5.25 Q-8.8 1.1 0.7 -13.0 L0.95 -13.2 1.1 -13.3 Q5.5 -16.05 10.2 -17.7 4.65 -11.05 -0.3 2.95 11.6 12.05 9.55 14.75 7.45 17.5 1.95 17.65 L3.8 15.55 Q3.25 13.6 2.7 12.9 M4.3 15.7 L3.15 17.1 Q6.85 16.9 9.1 14.4 6.7 15.5 4.3 15.7"/><path fill="none" stroke="#000000" stroke-width="0.5" stroke-opacity="0.301960784314" d="M2.7 12.9 Q3.25 13.6 3.8 15.55 L1.95 17.65 Q7.45 17.5 9.55 14.75 11.6 12.05 -0.3 2.95 4.65 -11.05 10.2 -17.7 5.5 -16.05 1.1 -13.3 L0.95 -13.2 M0.7 -13.0 Q-9.35 -3.85 -10.25 7.7 -8.9 6.95 -3.5 9.7 L2.4 12.75 2.7 12.9"/></g><g id="c34"><g><use transform="matrix(1.0,0.0,0.0,1.0,0.0,0.0)" xlink:href="#c33"/></g></g><g id="c35"><path fill="#fdbb24" stroke="none" d="M32.95 -10.55 Q31.75 -15.5 25.95 -20.2 L22.65 -22.45 35.2 -24.5 36.1 -23.8 36.3 -23.6 38.75 -21.5 39.4 -20.85 40.05 -20.15 40.55 -19.6 40.7 -19.45 41.25 -18.8 41.85 -18.1 41.95 -17.95 42.1 -17.8 42.25 -17.6 Q46.3 -10.95 46.35 -4.65 L46.35 -4.4 46.35 -4.35 46.2 -3.75 46.2 -3.8 45.4 -1.7 Q41.8 5.3 36.05 8.95 L35.75 9.15 35.35 9.4 35.2 9.45 34.95 9.6 27.1 2.6 Q31.05 0.0 32.5 -3.6 L33.1 -5.85 Q33.55 -8.25 32.95 -10.55"/><path fill="#c08703" stroke="none" d="M22.65 -22.45 L25.95 -20.2 Q31.75 -15.5 32.95 -10.55 L27.7 -2.45 Q26.95 -7.45 21.15 -12.1 L21.05 -12.2 22.65 -22.45"/><path fill="#976a02" stroke="none" d="M32.95 -10.55 Q33.55 -8.25 33.1 -5.85 L32.5 -3.6 27.6 1.1 27.65 0.7 Q27.95 -0.9 27.7 -2.45 L32.95 -10.55"/><path fill="#7d5802" stroke="none" d="M32.5 -3.6 Q31.05 0.0 27.1 2.6 L27.6 1.1 32.5 -3.6"/><path fill="#fedf9a" stroke="none" d="M27.1 2.6 L34.95 9.6 33.45 10.4 25.9 3.35 27.1 2.6 M12.95 7.25 L14.3 15.15 11.95 15.3 11.95 7.4 12.95 7.25"/><path fill="#fdbe2d" stroke="none" d="M25.9 3.35 L33.45 10.4 Q31.7 11.3 29.75 12.0 23.05 14.4 15.45 15.05 L14.3 15.15 12.95 7.25 15.45 6.9 21.4 5.25 Q23.9 4.4 25.9 3.35"/><path fill="#d29402" stroke="none" d="M34.95 9.6 L35.2 9.45 35.35 9.4 35.75 9.15 36.05 8.95 Q41.8 5.3 45.4 -1.7 L46.2 -3.8 46.2 -3.75 46.2 -3.65 44.6 5.45 Q43.1 13.6 33.95 18.55 L34.95 9.6 M45.4 -1.7 L46.2 -3.65 45.4 -1.7 M-21.6 18.85 Q-26.2 17.0 -30.2 14.55 L-29.85 4.7 -29.8 4.7 Q-25.6 7.4 -20.65 9.45 L-21.6 18.85 M-29.85 4.65 L-29.8 4.7 -29.85 4.7 -29.85 4.65"/><path fill="#fdc035" stroke="none" d="M33.45 10.4 L34.95 9.6 33.95 18.55 32.65 19.25 33.45 10.4 M11.95 15.3 L14.3 15.15 13.9 24.15 12.2 24.3 11.95 15.3"/><path fill="#c18702" stroke="none" d="M14.3 15.15 L15.45 15.05 Q23.05 14.4 29.75 12.0 31.7 11.3 33.45 10.4 L32.65 19.25 28.1 21.1 Q22.1 23.25 15.45 24.0 L13.9 24.15 14.3 15.15"/><path fill="#fec645" stroke="none" d="M11.95 7.4 L11.95 15.3 2.45 14.95 -3.65 14.15 Q-13.0 12.6 -20.65 9.45 L-14.65 3.35 Q-9.15 5.7 -2.35 6.8 L2.45 7.4 Q7.45 7.85 11.95 7.4"/><path fill="#db9902" stroke="none" d="M-20.65 9.45 Q-13.0 12.6 -3.65 14.15 L2.45 14.95 11.95 15.3 12.2 24.3 Q7.5 24.55 2.45 24.2 L-5.25 23.25 Q-14.2 21.75 -21.6 18.85 L-20.65 9.45"/><path fill="#a77503" stroke="none" d="M-30.2 14.55 L-36.05 10.5 Q-48.05 0.95 -46.15 -9.55 L-45.15 -16.45 -44.85 -16.35 Q-43.25 -5.7 -34.4 1.4 L-29.85 4.65 -29.85 4.7 -30.2 14.55"/><path fill="#e39f02" stroke="none" d="M-44.85 -16.35 L-31.4 -12.65 Q-31.1 -10.85 -30.15 -9.0 -28.35 -5.55 -24.2 -2.3 -22.45 -0.9 -20.5 0.35 L-29.8 4.7 -29.85 4.65 -34.4 1.4 Q-43.25 -5.7 -44.85 -16.35"/><path fill="#e6b100" stroke="none" d="M-14.65 3.35 L-20.65 9.45 Q-25.6 7.4 -29.8 4.7 L-20.5 0.35 Q-17.8 2.05 -14.65 3.35"/><path fill="none" stroke="#d29402" stroke-width="0.5" stroke-opacity="0.301960784314" d="M22.65 -22.45 L25.95 -20.2 Q31.75 -15.5 32.95 -10.55 33.55 -8.25 33.1 -5.85 L32.5 -3.6 Q31.05 0.0 27.1 2.6 L25.9 3.35 Q23.9 4.4 21.4 5.25 L15.45 6.9 12.95 7.25 11.95 7.4 Q7.45 7.85 2.45 7.4 L-2.35 6.8 Q-9.15 5.7 -14.65 3.35 M34.95 9.6 L35.2 9.45 35.35 9.4 35.75 9.15 36.05 8.95 Q41.8 5.3 45.4 -1.7 M46.2 -3.8 L46.2 -3.75 46.25 -3.8 46.35 -4.35 46.35 -4.4 46.35 -4.65 Q46.3 -10.95 42.25 -17.6 L42.1 -17.8 41.95 -17.95 41.85 -18.1 41.25 -18.8 40.7 -19.45 40.55 -19.6 40.05 -20.15 39.4 -20.85 38.75 -21.5 36.3 -23.6 36.1 -23.8 35.2 -24.5 22.65 -22.45 21.05 -12.2 21.15 -12.1 Q26.95 -7.45 27.7 -2.45 27.95 -0.9 27.65 0.7 L27.6 1.1 27.1 2.6 M33.45 10.4 L34.95 9.6 M33.95 18.55 Q43.1 13.6 44.6 5.45 L46.2 -3.65 45.4 -1.7 M14.3 15.15 L15.45 15.05 Q23.05 14.4 29.75 12.0 31.7 11.3 33.45 10.4 M32.65 19.25 L33.95 18.55 M46.2 -3.65 L46.2 -3.75 M13.9 24.15 L15.45 24.0 Q22.1 23.25 28.1 21.1 L32.65 19.25 M11.95 15.3 L14.3 15.15 M13.9 24.15 L13.85 24.45 M-20.65 9.45 Q-13.0 12.6 -3.65 14.15 L2.45 14.95 11.95 15.3 M12.2 24.3 L13.9 24.15 M12.2 24.3 Q7.5 24.55 2.45 24.2 L-5.25 23.25 Q-14.2 21.75 -21.6 18.85 -26.2 17.0 -30.2 14.55 L-30.25 14.95 M-30.2 14.55 L-36.05 10.5 Q-48.05 0.95 -46.15 -9.55 L-45.15 -16.45 -44.85 -16.35 -31.4 -12.65 Q-31.1 -10.85 -30.15 -9.0 -28.35 -5.55 -24.2 -2.3 -22.45 -0.9 -20.5 0.35 -17.8 2.05 -14.65 3.35 M-44.85 -16.35 Q-43.25 -5.7 -34.4 1.4 L-29.85 4.65 -29.8 4.7 Q-25.6 7.4 -20.65 9.45 M-29.85 4.7 L-29.8 4.7 M-29.85 4.65 L-29.85 4.7"/></g><g id="c36"><g><use transform="matrix(1.0,0.0,0.0,1.0,0.0,0.0)" xlink:href="#c35"/></g></g><g id="c37"><path fill="#28231c" stroke="none" d="M6.35 -12.15 Q13.6 -14.1 11.7 -6.1 L10.05 -5.45 -5.05 11.65 Q-6.2 12.9 -10.0 12.3 -13.7 11.75 -10.7 7.7 -9.4 6.65 -7.85 6.4 -1.15 0.0 5.15 -7.85 4.4 -11.45 6.35 -12.15"/><path fill="none" stroke="#000000" stroke-width="0.5" stroke-opacity="0.301960784314" d="M6.35 -12.15 Q13.6 -14.1 11.7 -6.1 L10.05 -5.45 -5.05 11.65 Q-6.2 12.9 -10.0 12.3 -13.7 11.75 -10.7 7.7 -9.4 6.65 -7.85 6.4 -1.15 0.0 5.15 -7.85 4.4 -11.45 6.35 -12.15"/><path fill="none" stroke="#000000" stroke-width="0.5" stroke-opacity="0.301960784314" d="M6.0 -8.55 Q8.6 -9.9 11.05 -6.5"/><path fill="#42362d" stroke="none" d="M4.35 -6.15 L6.65 -6.45 -3.05 4.3 -6.3 5.75 4.35 -6.15"/></g><g id="c38"><g><use transform="matrix(1.0,0.0,0.0,1.0,0.0,0.0)" xlink:href="#c37"/></g></g><g id="c39"><path fill="#42362d" stroke="none" d="M4.1 0.7 L5.1 -1.75 5.95 -1.15 4.75 1.5 4.1 0.7"/><path fill="#28231c" stroke="none" d="M4.75 1.5 L5.95 -1.15 5.1 -1.75 4.1 0.7 3.65 0.6 3.65 -0.35 1.5 -1.1 Q1.05 -4.55 1.35 -7.25 L6.45 -1.55 5.0 1.6 4.75 1.5"/><path fill="none" stroke="#000000" stroke-width="0.5" stroke-opacity="0.301960784314" d="M5.0 1.6 L6.45 -1.55 1.35 -7.25 M1.5 -1.1 L3.65 -0.35 3.65 0.6"/><path fill="#28231c" stroke="none" d="M-2.6 2.45 L-7.75 -1.85 -7.35 -5.15 0.9 -7.3 2.4 -5.4 3.75 -4.6 5.75 0.0 Q1.6 1.75 -2.6 2.45"/><path fill="none" stroke="#000000" stroke-width="0.5" stroke-opacity="0.301960784314" d="M-2.6 2.45 L-7.75 -1.85 -7.35 -5.15 0.9 -7.3 2.4 -5.4 3.75 -4.6 5.75 0.0 Q1.6 1.75 -2.6 2.45"/><path fill="#28231c" stroke="none" d="M-1.05 -0.3 L-6.9 -4.9 0.55 -6.75 0.15 -4.45 2.6 -4.35 3.95 -3.4 -1.05 -0.3"/><path fill="#42362d" stroke="none" d="M5.2 3.7 L6.4 1.8 7.4 2.85 6.0 4.85 5.2 3.7"/><path fill="#28231c" stroke="none" d="M6.0 4.85 L7.4 2.85 6.4 1.8 5.2 3.7 4.7 3.35 4.7 2.4 2.15 0.5 Q1.65 -3.2 2.0 -5.7 L8.0 2.7 6.25 5.05 6.0 4.85"/><path fill="none" stroke="#000000" stroke-width="0.5" stroke-opacity="0.301960784314" d="M6.25 5.05 L8.0 2.7 2.0 -5.7 M2.15 0.5 L4.7 2.4 4.7 3.35"/><path fill="#28231c" stroke="none" d="M-0.75 2.0 L-4.95 2.9 -6.05 7.25 Q-7.85 4.6 -8.0 0.95 L-0.4 -1.55 Q0.6 0.65 -0.75 2.0"/><path fill="none" stroke="#000000" stroke-width="0.5" stroke-opacity="0.301960784314" d="M-0.4 -1.55 L-8.0 0.95 Q-7.85 4.6 -6.05 7.25 L-4.95 2.9 -0.75 2.0"/><path fill="#42362d" stroke="none" d="M-6.1 1.4 L-6.45 6.1 Q-7.8 3.6 -7.5 1.3 L-6.1 1.4"/></g><g id="c40"><g><use transform="matrix(1.0,0.0,0.0,1.0,0.0,0.0)" xlink:href="#c39"/></g></g><g id="c41"><path fill="#495a03" stroke="none" d="M-21.0 -1.7 L-22.35 -4.3 -22.1 -5.75 Q-20.55 -8.85 -18.6 -11.8 -16.2 -15.5 -13.2 -18.95 -9.4 -19.15 -6.2 -18.95 L-0.3 -18.2 Q-10.15 -11.15 -16.45 -3.55 L-21.0 -1.7 M-2.35 -18.2 L-6.75 -18.8 Q-9.25 -19.15 -12.85 -18.7 -15.8 -15.35 -18.1 -11.6 L-18.85 -10.3 Q-18.85 -9.35 -17.85 -9.2 L-15.65 -10.55 -9.1 -14.5 -2.35 -18.2"/><path fill="#7e9c05" stroke="none" d="M-2.35 -18.2 L-9.1 -14.5 -15.65 -10.55 -17.85 -9.2 Q-18.85 -9.35 -18.85 -10.3 L-18.1 -11.6 Q-15.8 -15.35 -12.85 -18.7 -9.25 -19.15 -6.75 -18.8 L-2.35 -18.2"/><path fill="#6c2206" stroke="none" d="M32.45 8.05 Q31.9 10.5 30.85 11.25 22.15 21.8 -4.0 18.8 -16.2 17.35 -32.0 12.45 -32.5 12.75 -32.45 10.4 -16.05 15.15 -3.55 16.6 23.1 19.7 32.45 8.05"/><path fill="#481104" stroke="none" d="M-32.45 10.4 L-30.4 9.45 Q-27.6 7.8 -26.5 6.05 L-26.05 5.15 -23.55 -5.75 -19.4 -12.15 Q-16.05 -17.15 -13.8 -19.25 L-5.9 -19.45 0.4 -19.05 Q8.2 -18.25 15.05 -15.65 22.9 -10.4 27.1 -2.6 29.8 -0.15 32.45 8.05 23.1 19.7 -3.55 16.6 -16.05 15.15 -32.45 10.4 M-21.0 -1.7 L-16.45 -3.55 Q-10.15 -11.15 -0.3 -18.2 L-6.2 -18.95 Q-9.4 -19.15 -13.2 -18.95 -16.2 -15.5 -18.6 -11.8 -20.55 -8.85 -22.1 -5.75 L-22.35 -4.3 -21.0 -1.7"/><path fill="none" stroke="#000000" stroke-width="0.5" stroke-opacity="0.301960784314" d="M-32.45 10.4 L-30.4 9.45 Q-27.6 7.8 -26.5 6.05 L-26.05 5.15 -23.55 -5.75 -19.4 -12.15 Q-16.05 -17.15 -13.8 -19.25 L-5.9 -19.45 0.4 -19.05 Q8.2 -18.25 15.05 -15.65 22.9 -10.4 27.1 -2.6 29.8 -0.15 32.45 8.05 31.9 10.5 30.85 11.25 22.15 21.8 -4.0 18.8 -16.2 17.35 -32.0 12.45 -32.5 12.75 -32.45 10.4 -16.05 15.15 -3.55 16.6 23.1 19.7 32.45 8.05"/></g><g id="c42"><g><use transform="matrix(1.0,0.0,0.0,1.0,0.0,0.0)" xlink:href="#c41"/></g></g><g id="c43"><path fill="#28231c" stroke="none" d="M3.15 -14.15 Q9.45 -17.85 9.3 -8.95 8.85 -8.45 7.95 -7.9 L-2.6 13.5 Q-3.3 15.05 -6.95 15.2 -10.55 15.45 -8.6 10.5 -7.55 9.15 -6.2 8.5 -1.3 0.35 2.95 -9.35 1.45 -13.0 3.15 -14.15"/><path fill="none" stroke="#000000" stroke-width="0.5" stroke-opacity="0.301960784314" d="M3.15 -14.15 Q9.45 -17.85 9.3 -8.95 8.85 -8.45 7.95 -7.9 L-2.6 13.5 Q-3.3 15.05 -6.95 15.2 -10.55 15.45 -8.6 10.5 -7.55 9.15 -6.2 8.5 -1.3 0.35 2.95 -9.35 1.45 -13.0 3.15 -14.15"/><path fill="none" stroke="#000000" stroke-width="0.5" stroke-opacity="0.301960784314" d="M3.45 -10.2 Q5.55 -12.25 8.55 -9.15"/><path fill="#42362d" stroke="none" d="M2.4 -7.45 L4.5 -8.25 -2.3 5.2 -5.0 7.5 2.4 -7.45"/></g><g id="c44"><g><use transform="matrix(1.0,0.0,0.0,1.0,0.0,0.0)" xlink:href="#c43"/></g></g><g id="c45"><path fill="#28231c" stroke="none" d="M13.7 4.7 Q16.7 11.4 7.85 10.3 L6.95 8.85 -13.25 -3.8 Q-14.7 -4.75 -14.45 -8.35 -14.35 -11.95 -9.65 -9.5 -8.4 -8.4 -7.85 -6.95 -0.25 -1.15 8.95 4.0 12.7 2.95 13.7 4.7"/><path fill="none" stroke="#000000" stroke-width="0.5" stroke-opacity="0.301960784314" d="M13.7 4.7 Q16.7 11.4 7.85 10.3 L6.95 8.85 -13.25 -3.8 Q-14.7 -4.75 -14.45 -8.35 -14.35 -11.95 -9.65 -9.5 -8.4 -8.4 -7.85 -6.95 -0.25 -1.15 8.95 4.0 12.7 2.95 13.7 4.7"/><path fill="none" stroke="#000000" stroke-width="0.5" stroke-opacity="0.301960784314" d="M9.7 4.7 Q11.5 7.0 8.1 9.65"/><path fill="#42362d" stroke="none" d="M7.05 3.25 L7.65 5.45 -5.05 -2.75 -7.0 -5.65 7.05 3.25"/></g><g id="c46"><g><use transform="matrix(1.0,0.0,0.0,1.0,0.0,0.0)" xlink:href="#c45"/></g></g><g id="c47"><path fill="#28231c" stroke="none" d="M9.55 2.7 Q11.85 2.05 12.45 6.8 12.85 11.5 8.75 9.7 8.85 8.75 6.95 6.95 0.05 1.8 -7.85 -2.05 -10.75 0.35 -12.15 -3.5 -13.8 -7.6 -8.0 -10.2 -5.85 -9.9 -6.05 -6.7 1.75 -1.7 9.55 2.7"/><path fill="none" stroke="#000000" stroke-width="0.5" stroke-opacity="0.301960784314" d="M9.55 2.7 Q11.85 2.05 12.45 6.8 12.85 11.5 8.75 9.7 8.85 8.75 6.95 6.95 0.05 1.8 -7.85 -2.05 -10.75 0.35 -12.15 -3.5 -13.8 -7.6 -8.0 -10.2 -5.85 -9.9 -6.05 -6.7 1.75 -1.7 9.55 2.7"/><path fill="none" stroke="#000000" stroke-width="0.5" stroke-opacity="0.301960784314" d="M-8.9 -3.8 Q-8.2 -6.2 -6.05 -7.0"/><path fill="#42362d" stroke="none" d="M-10.65 -8.15 Q-12.2 -6.3 -11.2 -4.45 -9.4 -7.5 -6.85 -8.1 -7.5 -9.3 -8.05 -9.3 -9.65 -9.6 -10.65 -8.15"/><path fill="#42362d" stroke="none" d="M-7.4 -3.35 Q-7.0 -7.0 -4.75 -5.6 1.25 -2.1 6.1 2.05 -0.65 -0.6 -7.4 -3.35"/></g><g id="c48"><g><use transform="matrix(1.0,0.0,0.0,1.0,0.0,0.0)" xlink:href="#c47"/></g></g><g id="c49"><path fill="#28231c" stroke="none" d="M-0.25 3.5 L7.35 3.45 Q7.9 6.5 6.45 8.75 L5.4 5.7 1.0 7.55 Q0.85 5.05 -0.25 3.5"/><path fill="none" stroke="#000000" stroke-width="0.5" stroke-opacity="0.301960784314" d="M-0.25 3.5 L7.35 3.45 Q7.9 6.5 6.45 8.75 L5.4 5.7 1.0 7.55"/><path fill="#28231c" stroke="none" d="M-0.45 0.0 L4.55 -5.45 Q7.65 -3.35 8.9 -0.15 L4.6 -1.75 1.75 1.0 Q-0.1 1.3 -0.45 0.0"/><path fill="none" stroke="#000000" stroke-width="0.5" stroke-opacity="0.301960784314" d="M-0.45 0.0 L4.55 -5.45 Q7.65 -3.35 8.9 -0.15 L4.6 -1.75 1.75 1.0"/><path fill="#42362d" stroke="none" d="M8.2 -0.65 L4.65 -4.0 4.45 -4.75 Q7.5 -3.25 8.2 -0.65"/><path fill="#28231c" stroke="none" d="M2.6 0.0 L-6.05 2.1 -7.05 5.8 -6.7 10.05 -8.95 7.65 Q-8.95 3.75 -7.95 0.15 L-0.4 -2.2 2.6 0.0 M-3.0 8.6 L-2.7 4.7 -1.65 8.65 -2.65 8.35 -3.0 8.6"/><path fill="#42362d" stroke="none" d="M2.6 0.0 L2.8 0.15 2.3 7.15 -0.55 8.85 -1.65 8.65 -2.7 4.7 -3.0 8.6 -4.75 9.65 -6.7 10.15 -6.7 10.05 -7.05 5.8 -6.05 2.1 2.6 0.0"/><path fill="none" stroke="#000000" stroke-width="0.5" stroke-opacity="0.301960784314" d="M-1.65 8.65 L-0.55 8.85 2.3 7.15 2.8 0.15 2.6 0.0 -0.4 -2.2 -7.95 0.15 Q-8.95 3.75 -8.95 7.65 L-6.7 10.05 M-6.7 10.15 L-4.75 9.65 -3.0 8.6 M-1.65 8.65 L-2.65 8.35 -3.0 8.6"/><path fill="#28231c" stroke="none" d="M-3.6 -0.5 L-2.5 -10.15 Q2.5 -10.25 5.8 -6.5 L0.55 -6.5 -0.35 -1.0 Q-1.85 0.25 -3.6 -0.5"/><path fill="none" stroke="#000000" stroke-width="0.5" stroke-opacity="0.301960784314" d="M-3.6 -0.5 L-2.5 -10.15 Q2.5 -10.25 5.8 -6.5 L0.55 -6.5 -0.35 -1.0"/><path fill="#42362d" stroke="none" d="M4.65 -7.05 L-1.7 -8.9 -1.9 -9.65 Q2.05 -9.55 4.65 -7.05"/><path fill="#28231c" stroke="none" d="M-8.55 3.3 L-7.95 -4.85 Q-3.9 -5.0 -2.05 -2.0 L-5.55 -1.8 -6.15 2.7 Q-7.55 4.1 -8.55 3.3"/><path fill="none" stroke="#000000" stroke-width="0.5" stroke-opacity="0.301960784314" d="M-8.55 3.3 L-7.95 -4.85 Q-3.9 -5.0 -2.05 -2.0 L-5.55 -1.8 -6.15 2.7"/><path fill="#42362d" stroke="none" d="M-2.9 -2.65 L-7.25 -3.8 -7.45 -4.55 Q-3.75 -4.1 -2.9 -2.65"/></g><g id="c50"><g><use transform="matrix(1.0,0.0,0.0,1.0,0.0,0.0)" xlink:href="#c49"/></g></g><g id="c51"><path fill="#28231c" stroke="none" d="M-5.65 -12.25 L-5.0 -10.55 Q1.5 -1.75 9.5 6.45 11.85 7.25 11.4 10.95 11.0 14.65 7.25 11.35 6.3 9.95 5.95 8.35 0.1 1.1 -7.05 -5.8 -10.25 -5.35 -11.0 -7.3 -12.9 -14.8 -5.65 -12.25"/><path fill="none" stroke="#000000" stroke-width="0.5" stroke-opacity="0.301960784314" d="M-5.65 -12.25 L-5.0 -10.55 Q1.5 -1.75 9.5 6.45 11.85 7.25 11.4 10.95 11.0 14.65 7.25 11.35 6.3 9.95 5.95 8.35 0.1 1.1 -7.05 -5.8 -10.25 -5.35 -11.0 -7.3 -12.9 -14.8 -5.65 -12.25"/><path fill="none" stroke="#000000" stroke-width="0.5" stroke-opacity="0.301960784314" d="M-7.7 -6.5 Q-9.0 -9.2 -5.9 -11.4"/></g><g id="c52"><g><use transform="matrix(1.0,0.0,0.0,1.0,0.0,0.0)" xlink:href="#c51"/></g></g><g id="c53"><path fill="#28231c" stroke="none" d="M-2.5 -6.4 L-10.05 -5.1 Q-10.7 -1.3 -9.45 1.5 L-7.45 -3.05 -3.3 -3.9 Q-1.9 -5.25 -2.5 -6.4"/><path fill="none" stroke="#000000" stroke-width="0.5" stroke-opacity="0.301960784314" d="M-2.5 -6.4 L-10.05 -5.1 Q-10.7 -1.3 -9.45 1.5 L-7.45 -3.05 -3.3 -3.9"/><path fill="#28231c" stroke="none" d="M-1.7 2.2 L-6.85 -2.1 -6.45 -5.4 1.8 -7.55 3.3 -5.65 4.65 -4.85 6.65 -0.25 Q2.5 1.5 -1.7 2.2"/><path fill="none" stroke="#000000" stroke-width="0.5" stroke-opacity="0.301960784314" d="M-1.7 2.2 L-6.85 -2.1 -6.45 -5.4 1.8 -7.55 3.3 -5.65 4.65 -4.85 6.65 -0.25 Q2.5 1.5 -1.7 2.2"/><path fill="#28231c" stroke="none" d="M-0.15 -0.55 L-6.0 -5.15 1.45 -7.0 1.05 -4.7 3.5 -4.6 4.85 -3.65 -0.15 -0.55"/><path fill="#42362d" stroke="none" d="M8.8 3.85 L7.8 3.1 8.55 1.0 9.8 1.85 8.8 3.85"/><path fill="#28231c" stroke="none" d="M7.0 2.55 L7.05 1.9 4.15 0.45 Q2.8 -3.05 2.6 -5.6 L10.35 1.55 9.1 4.2 8.8 3.85 9.8 1.85 8.55 1.0 7.8 3.1 7.0 2.55"/><path fill="none" stroke="#000000" stroke-width="0.5" stroke-opacity="0.301960784314" d="M7.0 2.55 L7.05 1.9 4.15 0.45 M2.6 -5.6 L10.35 1.55 9.1 4.2"/><path fill="#28231c" stroke="none" d="M-2.3 -4.8 Q-1.6 -3.4 -2.6 -0.95 L-7.15 0.25 -8.3 5.75 Q-10.25 2.9 -10.35 -1.75 L-2.3 -4.8"/><path fill="none" stroke="#000000" stroke-width="0.5" stroke-opacity="0.301960784314" d="M-2.3 -4.8 L-10.35 -1.75 Q-10.25 2.9 -8.3 5.75 L-7.15 0.25 -2.6 -0.95"/><path fill="#42362d" stroke="none" d="M-8.65 -0.5 L-10.4 -1.25 Q-10.0 1.25 -8.6 4.9 L-8.65 -0.5"/><path fill="#28231c" stroke="none" d="M0.3 -1.3 Q1.3 0.9 -0.05 2.25 L-4.25 3.15 -5.35 7.5 Q-7.15 4.85 -7.3 1.2 L0.3 -1.3"/><path fill="none" stroke="#000000" stroke-width="0.5" stroke-opacity="0.301960784314" d="M0.3 -1.3 L-7.3 1.2 Q-7.15 4.85 -5.35 7.5 L-4.25 3.15 -0.05 2.25"/><path fill="#42362d" stroke="none" d="M-5.4 1.65 L-5.75 6.35 Q-7.1 3.85 -6.8 1.55 L-5.4 1.65"/></g><g id="c54"><g><use transform="matrix(1.0,0.0,0.0,1.0,0.0,0.0)" xlink:href="#c53"/></g></g><g id="c55"><path fill="#28231c" stroke="none" d="M3.4 14.35 Q5.3 17.55 1.4 19.5 -2.55 21.0 -3.35 14.55 -2.45 14.55 -1.95 11.35 -1.4 0.15 -2.6 -12.25 -6.45 -16.1 -3.75 -18.85 -1.1 -22.15 4.6 -14.2 5.6 -11.05 2.7 -10.55 2.7 1.85 3.4 14.35"/><path fill="none" stroke="#000000" stroke-width="0.5" stroke-opacity="0.301960784314" d="M3.4 14.35 Q5.3 17.55 1.4 19.5 -2.55 21.0 -3.35 14.55 -2.45 14.55 -1.95 11.35 -1.4 0.15 -2.6 -12.25 -6.45 -16.1 -3.75 -18.85 -1.1 -22.15 4.6 -14.2 5.6 -11.05 2.7 -10.55 2.7 1.85 3.4 14.35"/><path fill="none" stroke="#000000" stroke-width="0.5" stroke-opacity="0.301960784314" d="M-1.6 -14.25 Q0.95 -13.75 2.9 -10.65"/><path fill="#42362d" stroke="none" d="M1.2 -17.8 Q-1.3 -19.6 -2.4 -17.8 1.4 -15.8 3.4 -12.15 4.1 -13.4 3.75 -14.25 3.15 -16.65 1.2 -17.8"/><path fill="#42362d" stroke="none" d="M-1.15 -12.0 Q2.35 -12.25 2.4 -8.6 2.8 0.9 1.9 9.0 L-1.15 -12.0"/></g><g id="c56"><g><use transform="matrix(1.0,0.0,0.0,1.0,0.0,0.0)" xlink:href="#c55"/></g></g><g id="c57"><path fill="#98250a" stroke="none" d="M-37.65 15.05 L-37.9 14.95 Q-31.2 11.85 -29.55 7.85 L-24.05 -7.9 -24.0 -7.95 -23.35 -7.8 Q-14.05 -6.4 -6.6 -6.5 -10.4 -4.2 -14.3 -2.0 L-22.6 14.45 Q-25.5 18.15 -29.95 18.5 L-37.65 15.05 M21.6 -19.5 Q24.0 -17.1 26.0 -14.3 30.45 -8.0 32.55 0.05 L27.55 -7.95 19.05 -15.25 18.35 -15.2 Q15.45 -12.1 11.3 -10.1 L1.2 -8.1 0.0 -7.0 -6.6 -6.5 4.55 -13.1 18.35 -15.2 18.95 -15.7 20.85 -18.25 21.6 -19.5"/><path fill="#0e1001" stroke="none" d="M38.05 4.55 L38.05 5.6 Q20.15 44.15 -38.2 16.55 -38.35 15.55 -37.65 15.05 L-29.95 18.5 Q-23.7 21.05 -17.95 22.9 20.9 34.8 36.15 8.1 L36.45 7.75 38.05 4.55"/><path fill="#c16100" stroke="none" d="M-24.0 -7.95 Q-18.2 -16.8 -12.9 -22.05 -8.7 -26.2 -4.7 -28.1 9.7 -26.2 21.6 -19.5 L20.85 -18.25 18.95 -15.7 18.35 -15.2 4.55 -13.1 14.0 -14.9 12.0 -23.6 -4.6 -26.0 -12.95 -18.8 -1.5 -12.0 4.55 -13.1 -6.6 -6.5 Q-14.05 -6.4 -23.35 -7.8 L-24.0 -7.95"/><path fill="#db6f02" stroke="none" d="M4.55 -13.1 L-1.5 -12.0 -12.95 -18.8 -4.6 -26.0 12.0 -23.6 14.0 -14.9 4.55 -13.1 M-0.6 -16.1 L8.55 -17.85 7.4 -23.05 -2.4 -24.45 -7.4 -20.25 -0.6 -16.1"/><path fill="#fb8004" stroke="none" d="M-0.6 -16.1 L-7.4 -20.25 -2.4 -24.45 7.4 -23.05 8.55 -17.85 -0.6 -16.1"/><path fill="#6c2206" stroke="none" d="M32.55 0.05 L32.8 0.4 Q34.55 3.1 37.05 3.9 L38.25 4.05 38.05 4.55 36.45 7.75 Q31.4 6.9 27.9 0.6 L25.4 -6.35 Q21.45 -8.85 17.45 -11.45 L11.3 -10.1 Q6.45 -7.85 0.0 -7.0 L-10.5 2.5 -14.5 18.45 -17.95 22.9 Q-23.7 21.05 -29.95 18.5 -25.5 18.15 -22.6 14.45 L-14.3 -2.0 Q-10.4 -4.2 -6.6 -6.5 L0.0 -7.0 1.2 -8.1 11.3 -10.1 Q15.45 -12.1 18.35 -15.2 L19.05 -15.25 27.55 -7.95 32.55 0.05"/><path fill="#481104" stroke="none" d="M36.45 7.75 L36.15 8.1 Q20.9 34.8 -17.95 22.9 L-14.5 18.45 -10.5 2.5 0.0 -7.0 Q6.45 -7.85 11.3 -10.1 L17.45 -11.45 Q21.45 -8.85 25.4 -6.35 L27.9 0.6 Q31.4 6.9 36.45 7.75"/><path fill="none" stroke="#000000" stroke-width="0.5" stroke-opacity="0.301960784314" d="M38.05 4.55 L38.05 5.6 Q20.15 44.15 -38.2 16.55 -38.35 15.55 -37.65 15.05 L-37.9 14.95 Q-31.2 11.85 -29.55 7.85 L-24.05 -7.9 -24.0 -7.95 Q-18.2 -16.8 -12.9 -22.05 -8.7 -26.2 -4.7 -28.1 9.7 -26.2 21.6 -19.5 24.0 -17.1 26.0 -14.3 30.45 -8.0 32.55 0.05 M32.8 0.4 Q34.55 3.1 37.05 3.9 L38.25 4.05 38.05 4.55 36.45 7.75 36.15 8.1 Q20.9 34.8 -17.95 22.9 -23.7 21.05 -29.95 18.5 L-37.65 15.05"/><path fill="#6c2206" stroke="none" d="M-19.4 -7.0 L-17.55 -9.55 -14.75 -8.65 -14.8 -5.5 -17.7 -4.5 -19.4 -7.0"/><path fill="#6c2206" stroke="none" d="M-19.0 -11.15 L-18.2 -12.3 -16.95 -11.85 -17.0 -10.45 -18.25 -10.0 -19.0 -11.15"/><path fill="#6c2206" stroke="none" d="M-20.85 -3.8 L-20.2 -4.65 -19.25 -4.35 -19.25 -3.3 -20.25 -2.95 -20.85 -3.8"/><path fill="#6c2206" stroke="none" d="M-22.6 -8.65 L-21.85 -9.25 -20.95 -8.85 -21.1 -8.05 -22.15 -7.95 -22.6 -8.65"/><path fill="#481104" stroke="none" d="M-27.7 9.75 L-25.35 4.9 Q-25.3 3.25 -25.6 1.6 L-24.85 4.15 Q-25.2 3.45 -24.95 5.45 L-27.7 9.75 M-24.7 4.3 L-19.3 1.15 Q-22.2 2.9 -24.5 4.8 L-24.7 4.3"/><path fill="#100301" stroke="none" d="M-19.3 1.15 L-24.15 5.95 -22.1 9.95 Q-23.4 8.6 -24.7 6.5 L-27.7 9.75 -24.95 5.45 Q-25.2 3.45 -24.85 4.15 L-24.7 4.3 -24.5 4.8 Q-22.2 2.9 -19.3 1.15"/><path fill="none" stroke="#000000" stroke-width="0.5" stroke-opacity="0.301960784314" d="M-19.3 1.15 L-24.15 5.95 -22.1 9.95 Q-23.4 8.6 -24.7 6.5 L-27.7 9.75 -25.35 4.9 Q-25.3 3.25 -25.6 1.6 L-24.85 4.15 -24.7 4.3 -19.3 1.15 Q-22.2 2.9 -24.5 4.8 L-24.7 4.3 M-27.7 9.75 L-24.95 5.45 Q-25.2 3.45 -24.85 4.15"/></g><g id="c58"><g><use transform="matrix(1.0,0.0,0.0,1.0,0.0,0.0)" xlink:href="#c57"/></g></g><g id="c59"><path fill="#28231c" stroke="none" d="M12.1 -0.7 Q11.6 -1.4 8.85 -1.15 0.65 0.85 -7.4 4.55 -7.5 8.9 -11.4 7.1 -15.35 5.4 -13.55 -1.5 -12.0 -3.05 -9.65 -0.5 -0.75 -3.35 7.55 -6.75 8.5 -9.0 12.35 -5.9 16.1 -2.75 12.1 -0.7"/><path fill="none" stroke="#000000" stroke-width="0.5" stroke-opacity="0.301960784314" d="M12.1 -0.7 Q11.6 -1.4 8.85 -1.15 0.65 0.85 -7.4 4.55 -7.5 8.9 -11.4 7.1 -15.35 5.4 -13.55 -1.5 -12.0 -3.05 -9.65 -0.5 -0.75 -3.35 7.55 -6.75 8.5 -9.0 12.35 -5.9 16.1 -2.75 12.1 -0.7"/><path fill="none" stroke="#000000" stroke-width="0.5" stroke-opacity="0.301960784314" d="M-9.5 4.1 Q-10.85 1.7 -10.0 -0.7"/><path fill="#42362d" stroke="none" d="M-13.45 2.2 Q-13.0 4.8 -11.0 5.4 -12.05 1.6 -10.9 -1.0 L-12.6 -0.85 Q-13.85 0.2 -13.45 2.2"/><path fill="#42362d" stroke="none" d="M-7.9 3.55 Q-10.4 0.45 -7.85 -0.35 -1.35 -2.8 5.0 -3.8 L-7.9 3.55"/></g><g id="c60"><g><use transform="matrix(1.0,0.0,0.0,1.0,0.0,0.0)" xlink:href="#c59"/></g></g><radialGradient gradientUnits="userSpaceOnUse" r="819.2" cx="0" cy="0" spreadMethod="pad" gradientTransform="matrix(-0.00225830078125,0.00604248046875,0.00100708007812,0.00419616699219,11.0,-8.05)" id="gradient7"><stop offset="0.454901960784" stop-color="#ffffff"/><stop offset="0.603921568627" stop-color="#fbf1bf"/></radialGradient><radialGradient gradientUnits="userSpaceOnUse" r="819.2" cx="0" cy="0" spreadMethod="pad" gradientTransform="matrix(0.0072021484375,0.00506591796875,-0.001708984375,0.00367736816406,-2.25,-5.4)" id="gradient8"><stop offset="0.454901960784" stop-color="#ffffff"/><stop offset="0.603921568627" stop-color="#fbf1bf"/></radialGradient><g id="c61"><path fill="#28231c" stroke="none" d="M-1.05 -3.85 L-0.5 -4.45 Q4.3 -5.75 9.85 -5.9 11.3 -5.0 11.55 -7.35 11.8 -9.65 9.3 -9.9 8.6 -9.6 8.2 -8.95 3.9 -8.1 -0.95 -8.2 -2.7 -10.25 -3.4 -9.55 -5.45 -6.4 -1.05 -3.85"/><path fill="none" stroke="#000000" stroke-width="0.5" stroke-opacity="0.301960784314" d="M-1.05 -3.85 L-0.5 -4.45 Q4.3 -5.75 9.85 -5.9 11.3 -5.0 11.55 -7.35 11.8 -9.65 9.3 -9.9 8.6 -9.6 8.2 -8.95 3.9 -8.1 -0.95 -8.2 -2.7 -10.25 -3.4 -9.55 -5.45 -6.4 -1.05 -3.85"/><path fill="none" stroke="#000000" stroke-width="0.5" stroke-opacity="0.301960784314" d="M-1.4 -8.2 Q-2.5 -7.35 -1.1 -4.45"/><path fill="#181b1b" stroke="none" d="M15.45 14.2 L10.25 14.6 10.9 18.1 6.0 15.55 2.05 19.8 -0.55 15.25 -5.75 18.0 -5.2 12.95 -8.9 13.6 -8.05 10.4 -11.15 6.55 -9.7 -4.65 11.65 -2.55 15.55 9.7 13.65 11.5 15.45 14.2"/><path fill="none" stroke="#000000" stroke-width="0.5" stroke-opacity="0.301960784314" d="M15.45 14.2 L10.25 14.6 10.9 18.1 6.0 15.55 2.05 19.8 -0.55 15.25 -5.75 18.0 -5.2 12.95 -8.9 13.6 -8.05 10.4 -11.15 6.55 -9.7 -4.65 11.65 -2.55 15.55 9.7 13.65 11.5 15.45 14.2"/><path fill="#28231c" stroke="none" d="M12.85 -5.45 L17.3 -9.65 14.0 -11.5 Q11.95 -10.7 12.85 -5.45"/><path fill="none" stroke="#000000" stroke-width="0.5" stroke-opacity="0.301960784314" d="M12.85 -5.45 L17.3 -9.65 14.0 -11.5"/><path fill="#28231c" stroke="none" d="M12.05 -1.9 L15.55 -3.95 13.7 -6.5 Q11.95 -6.0 12.05 -1.9"/><path fill="none" stroke="#000000" stroke-width="0.5" stroke-opacity="0.301960784314" d="M12.05 -1.9 L15.55 -3.95 13.7 -6.5"/><path fill="#28231c" stroke="none" d="M12.6 -0.2 Q12.45 1.35 13.45 7.1 5.65 11.8 2.1 12.6 -0.35 12.25 -7.25 7.75 L-9.05 4.0 Q-9.65 2.0 -9.95 -2.8 L-10.5 -10.7 Q-10.7 -13.8 -4.9 -16.8 0.95 -19.85 5.75 -19.8 10.6 -19.85 12.75 -16.5 14.85 -13.2 13.85 -8.8 13.0 -5.4 12.85 -3.45 L12.6 -0.2"/><path fill="none" stroke="#000000" stroke-width="0.5" stroke-opacity="0.301960784314" d="M12.6 -0.2 Q12.45 1.35 13.45 7.1 5.65 11.8 2.1 12.6 -0.35 12.25 -7.25 7.75 L-9.05 4.0 Q-9.65 2.0 -9.95 -2.8 L-10.5 -10.7 Q-10.7 -13.8 -4.9 -16.8 0.95 -19.85 5.75 -19.8 10.6 -19.85 12.75 -16.5 14.85 -13.2 13.85 -8.8 13.0 -5.4 12.85 -3.45 L12.6 -0.2"/><path fill="#181b1b" stroke="none" d="M2.15 -9.25 Q4.2 -6.35 4.05 -3.75 L4.05 -3.6 Q3.9 -0.95 1.55 -0.15 -0.75 0.7 -3.75 -0.75 -6.8 -2.3 -8.85 -5.3 -10.9 -8.3 -10.7 -10.95 L-10.3 -12.65 Q-9.7 -13.95 -8.25 -14.45 -5.95 -15.25 -2.9 -13.75 0.15 -12.25 2.15 -9.25"/><path fill="#eed4e5" stroke="none" d="M-0.3 -11.85 L-0.6 -4.5 -4.05 2.95 -0.3 -11.85"/><path fill="none" stroke="#000000" stroke-width="0.5" stroke-opacity="0.301960784314" d="M-0.3 -11.85 L-0.6 -4.5 -4.05 2.95 -0.3 -11.85"/><path fill="#181b1b" stroke="none" d="M9.15 -11.55 Q9.9 -14.55 11.05 -16.2 12.2 -17.85 13.1 -17.25 13.95 -16.65 14.05 -14.3 L14.05 -14.2 Q14.2 -11.7 13.4 -8.75 12.7 -5.7 11.55 -4.05 10.4 -2.4 9.5 -3.05 8.6 -3.65 8.5 -6.15 L8.55 -8.0 Q8.65 -9.7 9.15 -11.55"/><path stroke="none" fill="url(#gradient7)" d="M12.95 -14.3 Q13.05 -12.55 12.65 -9.6 11.85 -4.8 10.4 -4.3 9.65 -3.75 9.2 -4.85 L12.95 -14.3"/><path stroke="none" fill="url(#gradient8)" d="M3.15 -2.75 Q2.15 -1.9 0.3 -2.25 -3.6 -2.6 -6.7 -6.75 -8.35 -9.25 -8.55 -10.65 1.7 -3.5 3.15 -2.75"/><path fill="#28231c" stroke="none" d="M-11.5 -7.3 Q-7.9 -6.45 -9.5 -1.2 L-17.25 -5.5 -11.5 -7.3"/><path fill="none" stroke="#000000" stroke-width="0.5" stroke-opacity="0.301960784314" d="M-9.5 -1.2 L-17.25 -5.5 -11.5 -7.3"/><path fill="#42362d" stroke="none" d="M-11.15 -4.6 L-16.15 -5.55 -12.25 -6.65 -11.95 -6.6 Q-10.6 -5.55 -11.15 -4.6"/><path fill="#28231c" stroke="none" d="M-8.0 2.0 L-14.15 0.35 -10.9 -2.45 Q-7.9 -2.1 -8.0 2.0"/><path fill="none" stroke="#000000" stroke-width="0.5" stroke-opacity="0.301960784314" d="M-8.0 2.0 L-14.15 0.35 -10.9 -2.45"/><path fill="#42362d" stroke="none" d="M-10.0 -0.2 L-13.35 0.15 Q-12.5 -1.0 -11.1 -1.65 -10.1 -0.9 -10.0 -0.2"/><path fill="#42362d" stroke="none" d="M2.65 1.15 L6.0 -1.4 Q7.6 -2.6 9.95 -2.1 12.35 -1.6 10.05 -0.25 7.7 1.2 2.65 1.15"/><path fill="#d8ca7c" stroke="none" d="M13.75 5.35 L13.8 5.85 13.75 7.1 Q11.0 12.65 1.75 13.35 -6.45 11.0 -8.55 5.8 L-7.85 5.1 -5.1 7.55 -5.05 7.9 -4.95 7.65 -1.45 9.05 -1.45 9.25 -1.35 9.1 2.35 9.9 2.45 10.4 2.65 9.9 7.4 9.8 7.65 10.6 7.85 9.65 Q9.6 8.9 11.35 7.7 L11.55 8.2 11.75 7.45 13.75 5.35"/><path fill="#fbf1bf" stroke="none" d="M11.75 7.45 L13.05 2.05 Q13.65 3.85 13.75 5.35 L11.75 7.45 M-7.85 5.1 Q-6.9 4.15 -5.75 3.5 L-5.1 7.55 -7.85 5.1 M-4.95 7.65 Q-4.15 6.05 -2.85 5.1 -1.75 7.2 -1.45 9.05 L-4.95 7.65 M-1.35 9.1 Q-0.2 7.3 1.25 6.1 2.05 8.05 2.35 9.9 L-1.35 9.1 M2.65 9.9 Q3.45 7.8 5.1 5.75 6.6 7.6 7.4 9.8 L2.65 9.9 M7.85 9.65 Q8.35 6.5 9.45 3.85 L11.35 7.7 Q9.6 8.9 7.85 9.65"/><path fill="none" stroke="#000000" stroke-width="0.5" stroke-opacity="0.301960784314" d="M11.75 7.45 L13.05 2.05 Q13.65 3.85 13.75 5.35 L13.8 5.85 13.75 7.1 M-8.55 5.8 L-7.85 5.1 Q-6.9 4.15 -5.75 3.5 L-5.1 7.55 -5.05 7.9 -4.95 7.65 Q-4.15 6.05 -2.85 5.1 -1.75 7.2 -1.45 9.05 L-1.45 9.25 -1.35 9.1 Q-0.2 7.3 1.25 6.1 2.05 8.05 2.35 9.9 L2.45 10.4 2.65 9.9 Q3.45 7.8 5.1 5.75 6.6 7.6 7.4 9.8 L7.65 10.6 7.85 9.65 Q8.35 6.5 9.45 3.85 L11.35 7.7 11.55 8.2 11.75 7.45"/><path fill="#ffffff" stroke="none" d="M13.25 5.35 L12.9 4.6 13.1 2.95 13.25 5.35"/><path fill="#ffffff" stroke="none" d="M10.4 6.8 L9.4 6.25 9.45 4.35 10.4 6.8"/><path fill="#ffffff" stroke="none" d="M6.6 9.15 Q5.15 8.85 4.9 8.25 L5.05 6.35 Q6.15 7.75 6.6 9.15"/><path fill="#28231c" stroke="none" d="M14.35 8.25 Q14.75 9.85 14.1 10.25 10.1 15.15 2.25 14.7 -3.75 13.25 -6.35 10.95 -9.1 7.55 -8.85 5.15 L-8.45 5.45 Q0.15 18.65 14.35 8.25"/><path fill="#b95d8e" stroke="none" d="M-8.45 5.45 Q4.35 15.45 13.9 5.85 L15.15 5.9 Q15.65 7.45 15.05 7.85 L14.35 8.25 Q0.15 18.65 -8.45 5.45"/><path fill="none" stroke="#000000" stroke-width="0.5" stroke-opacity="0.301960784314" d="M-8.45 5.45 Q4.35 15.45 13.9 5.85 L15.15 5.9 Q15.65 7.45 15.05 7.85 L14.35 8.25 M-8.85 5.15 L-8.45 5.45 Q0.15 18.65 14.35 8.25"/><path fill="#d8a7c5" stroke="none" d="M1.6 12.05 L0.05 11.95 Q-0.8 11.75 -1.35 11.25 -1.95 10.85 -1.8 10.5 -1.75 10.2 -1.0 10.05 L0.5 10.2 Q1.4 10.45 1.9 10.85 2.45 11.3 2.35 11.6 2.25 12.0 1.6 12.05"/><path fill="#f4e8f0" stroke="none" d="M0.9 11.55 L0.15 11.5 -0.5 11.15 -0.75 10.8 -0.35 10.55 0.35 10.65 Q0.8 10.75 1.05 10.95 L1.25 11.3 0.9 11.55"/></g><g id="c62"><g><use transform="matrix(1.0,0.0,0.0,1.0,0.0,0.0)" xlink:href="#c61"/></g></g><g id="c63"><path fill="#6c2206" stroke="none" d="M17.75 -1.9 L18.3 -0.9 Q17.0 2.2 15.45 3.5 L17.65 -2.2 17.7 -2.2 17.75 -1.95 17.75 -1.9 M13.6 9.8 L16.65 6.4 Q19.85 2.4 21.05 0.0 L21.1 0.0 20.95 1.0 Q18.2 8.8 8.0 15.4 L4.75 15.15 -0.75 14.3 -0.75 13.25 -0.75 12.45 -0.7 12.45 4.75 13.55 7.95 14.15 Q12.45 11.2 13.6 9.8 M-2.2 14.0 Q-10.6 12.2 -21.05 8.4 L-20.85 7.25 -20.7 7.2 -15.75 8.9 Q-12.25 10.05 -2.15 12.2 L-2.2 14.0 M-17.05 4.5 L-16.6 3.45 -16.05 1.6 -15.5 -1.85 Q-12.5 5.4 -2.05 7.7 L0.15 8.1 0.15 8.45 -2.05 8.4 Q-9.2 7.85 -17.05 4.5 M0.65 8.2 L2.3 8.4 0.65 8.45 0.65 8.2"/><path fill="#c16100" stroke="none" d="M18.3 -0.9 L17.75 -1.9 18.4 -1.2 Q19.65 -0.1 21.1 -0.05 L21.05 0.0 Q19.85 2.4 16.65 6.4 L13.6 9.8 13.2 9.85 Q12.95 9.35 13.4 8.65 11.85 8.85 10.4 9.4 16.95 6.35 19.65 0.3 L19.65 0.2 Q19.05 0.25 18.3 -0.9 M-3.4 -15.4 Q3.75 -14.8 10.65 -11.8 12.75 -10.05 14.35 -7.9 L12.05 -2.8 5.1 -0.8 -7.35 -1.85 -8.0 -2.0 Q-8.65 -4.6 -7.7 -7.6 L-9.85 -7.8 Q-7.9 -13.5 -3.9 -14.7 L-3.4 -15.4 M-7.7 -7.6 L-0.55 -7.0 7.5 -7.95 9.75 -11.55 Q4.1 -14.55 -3.15 -14.9 L-3.9 -14.7 Q-6.75 -10.9 -7.7 -7.6"/><path fill="#963807" stroke="none" d="M17.65 -2.2 L15.45 3.5 Q17.0 2.2 18.3 -0.9 19.05 0.25 19.65 0.2 L19.65 0.3 Q16.95 6.35 10.4 9.4 L9.4 9.85 4.8 8.65 4.75 8.65 0.75 7.0 0.95 3.75 0.4 6.85 -2.05 5.5 Q-7.05 2.3 -8.0 -2.0 L-7.35 -1.85 5.1 -0.8 12.05 -2.8 14.35 -7.9 Q16.35 -5.35 17.65 -2.2"/><path fill="#db6f02" stroke="none" d="M-7.7 -7.6 Q-6.75 -10.9 -3.9 -14.7 L-3.15 -14.9 Q4.1 -14.55 9.75 -11.55 L7.5 -7.95 -0.55 -7.0 -7.7 -7.6 M4.75 -10.05 L6.2 -12.3 Q2.55 -14.25 -2.05 -14.45 -4.95 -14.0 -6.35 -9.9 L-0.45 -9.45 4.75 -10.05"/><path fill="#98250a" stroke="none" d="M10.4 9.4 Q11.85 8.85 13.4 8.65 12.95 9.35 13.2 9.85 L13.6 9.8 Q12.45 11.2 7.95 14.15 L4.75 13.55 -0.7 12.45 0.45 10.8 0.55 10.8 4.75 10.75 9.4 9.85 10.4 9.4 M-20.7 7.2 Q-18.05 6.0 -17.05 4.5 -17.1 6.1 -18.7 6.8 -9.25 9.95 -2.05 10.65 L-0.35 10.8 -2.05 12.2 -2.15 12.2 Q-12.25 10.05 -15.75 8.9 L-20.7 7.2 M-15.1 -4.2 Q-9.5 -13.3 -3.4 -15.4 L-3.9 -14.7 Q-7.9 -13.5 -9.85 -7.8 L-7.7 -7.6 Q-8.65 -4.6 -8.0 -2.0 L-15.1 -4.2"/><path fill="#fb8004" stroke="none" d="M4.75 -10.05 L-0.45 -9.45 -6.35 -9.9 Q-4.95 -14.0 -2.05 -14.45 2.55 -14.25 6.2 -12.3 L4.75 -10.05"/><path fill="#7e3005" stroke="none" d="M-15.5 -1.85 L-15.1 -4.2 -8.0 -2.0 Q-7.05 2.3 -2.05 5.5 L0.4 6.85 0.15 8.1 -2.05 7.7 Q-12.5 5.4 -15.5 -1.85 M0.75 7.0 L4.75 8.65 4.8 8.65 9.4 9.85 4.75 10.75 0.55 10.8 0.65 8.45 2.3 8.4 0.65 8.2 0.75 7.0 M-0.35 10.8 L-2.05 10.65 Q-9.25 9.95 -18.7 6.8 -17.1 6.1 -17.05 4.5 -9.2 7.85 -2.05 8.4 L0.15 8.45 -0.35 10.8"/><path fill="#280d02" stroke="none" d="M-0.75 13.25 L-2.05 14.0 -2.2 14.0 -2.15 12.2 -2.05 12.2 -0.35 10.8 0.15 8.45 0.15 8.1 0.4 6.85 0.95 3.75 0.75 7.0 0.65 8.2 0.65 8.45 0.55 10.8 0.45 10.8 -0.7 12.45 -0.75 12.45 -0.75 13.25"/><path fill="none" stroke="#000000" stroke-width="0.5" stroke-opacity="0.301960784314" d="M17.75 -1.9 L17.75 -1.95 17.7 -2.2 M13.2 9.85 L13.6 9.8 16.65 6.4 Q19.85 2.4 21.05 0.0 L21.1 -0.05 Q19.65 -0.1 18.4 -1.2 L17.75 -1.9 M21.05 0.0 L21.1 0.0 20.95 1.0 Q18.2 8.8 8.0 15.4 L4.75 15.15 -0.75 14.3 -0.75 13.25 -2.05 14.0 -2.2 14.0 Q-10.6 12.2 -21.05 8.4 L-20.85 7.25 -20.7 7.2 Q-18.05 6.0 -17.05 4.5 L-16.6 3.45 -16.05 1.6 -15.5 -1.85 -15.1 -4.2 Q-9.5 -13.3 -3.4 -15.4 3.75 -14.8 10.65 -11.8 12.75 -10.05 14.35 -7.9 16.35 -5.35 17.65 -2.2 M0.4 6.85 L0.95 3.75 0.75 7.0 0.65 8.2 0.65 8.45 0.55 10.8 M0.15 8.45 L0.15 8.1 0.4 6.85 M-20.7 7.2 L-15.75 8.9 Q-12.25 10.05 -2.15 12.2 L-2.05 12.2 -0.35 10.8 0.15 8.45 M0.45 10.8 L-0.7 12.45 4.75 13.55 7.95 14.15 Q12.45 11.2 13.6 9.8 M-2.15 12.2 L-2.2 14.0 M-0.7 12.45 L-0.75 12.45 -0.75 13.25"/><path fill="#6c2206" stroke="none" d="M12.6 -6.9 L12.35 -7.35 Q12.45 -8.7 12.85 -9.7 L13.1 -8.95 Q12.7 -8.1 12.6 -6.9"/><path fill="#963807" stroke="none" d="M12.85 -9.7 L12.9 -9.75 12.85 -9.85 Q13.7 -9.6 14.7 -8.8 L14.75 -8.5 14.6 -8.15 Q13.7 -8.9 13.1 -8.95 L12.85 -9.7"/><path fill="#3d3329" stroke="none" d="M14.75 -8.5 L15.2 -5.7 13.75 -4.8 13.7 -4.9 15.05 -5.65 14.6 -8.15 14.75 -8.5"/><path fill="#0f0d0b" stroke="none" d="M13.7 -4.9 L12.6 -6.9 Q12.7 -8.1 13.1 -8.95 13.7 -8.9 14.6 -8.15 L15.05 -5.65 13.7 -4.9"/><path fill="none" stroke="#000000" stroke-width="0.5" stroke-opacity="0.301960784314" d="M12.85 -9.7 L12.9 -9.75 12.85 -9.85 Q13.7 -9.6 14.7 -8.8 L14.75 -8.5 15.2 -5.7 13.75 -4.8 13.7 -4.9 12.6 -6.9 12.35 -7.35 Q12.45 -8.7 12.85 -9.7 L13.1 -8.95 Q13.7 -8.9 14.6 -8.15 L14.75 -8.5 M13.1 -8.95 Q12.7 -8.1 12.6 -6.9 M14.6 -8.15 L15.05 -5.65 13.7 -4.9"/><path fill="#963807" stroke="none" d="M-8.1 -1.2 L-8.15 -1.5 Q-6.65 -2.75 -5.2 -3.3 L-5.15 -3.25 -5.05 -3.2 -5.05 -2.45 -7.55 -1.0 -8.1 -1.2"/><path fill="#6c2206" stroke="none" d="M-5.05 -3.2 Q-3.55 -2.65 -2.5 -1.5 L-3.85 1.4 -7.25 1.4 Q-8.0 0.2 -8.1 -1.2 L-7.55 -1.0 Q-7.45 0.4 -6.8 1.3 L-3.85 1.3 -2.75 -1.05 -5.05 -2.45 -5.05 -3.2"/><path fill="#0f0d0b" stroke="none" d="M-7.55 -1.0 L-5.05 -2.45 -2.75 -1.05 -3.85 1.3 -6.8 1.3 Q-7.45 0.4 -7.55 -1.0"/><path fill="none" stroke="#000000" stroke-width="0.5" stroke-opacity="0.301960784314" d="M-8.1 -1.2 L-8.15 -1.5 Q-6.65 -2.75 -5.2 -3.3 L-5.15 -3.25 -5.05 -3.2 Q-3.55 -2.65 -2.5 -1.5 L-3.85 1.4 -7.25 1.4 Q-8.0 0.2 -8.1 -1.2 L-7.55 -1.0 -5.05 -2.45 -5.05 -3.2 M-7.55 -1.0 Q-7.45 0.4 -6.8 1.3 L-3.85 1.3 -2.75 -1.05 -5.05 -2.45"/><path fill="#6c2206" stroke="none" d="M0.25 3.35 L0.1 1.75 1.65 1.2 2.75 2.4 1.9 3.75 0.25 3.35"/><path fill="#6c2206" stroke="none" d="M-1.4 3.15 L-1.45 2.45 -0.75 2.25 -0.25 2.75 -0.65 3.35 -1.4 3.15"/><path fill="#6c2206" stroke="none" d="M-0.35 6.55 L-0.4 6.0 0.1 5.8 0.5 6.2 0.2 6.65 -0.35 6.55"/></g><g id="c64"><g><use transform="matrix(1.0,0.0,0.0,1.0,0.0,0.0)" xlink:href="#c63"/></g></g><g id="c65"><path fill="#28231c" stroke="none" d="M0.15 10.75 Q-0.75 8.45 0.55 8.6 L-3.2 -7.35 Q-4.3 -8.75 -2.95 -11.0 -1.75 -13.0 -0.65 -9.55 -0.6 -8.2 -1.15 -7.4 L2.05 7.45 Q4.4 8.55 3.4 10.65 2.45 12.8 0.15 10.75"/><path fill="none" stroke="#000000" stroke-width="0.5" stroke-opacity="0.301960784314" d="M0.15 10.75 Q-0.75 8.45 0.55 8.6 L-3.2 -7.35 Q-4.3 -8.75 -2.95 -11.0 -1.75 -13.0 -0.65 -9.55 -0.6 -8.2 -1.15 -7.4 L2.05 7.45 Q4.4 8.55 3.4 10.65 2.45 12.8 0.15 10.75"/><path fill="#514437" stroke="none" d="M-2.35 -6.5 L1.2 8.4 0.9 8.1 -2.8 -6.5 -2.35 -6.5"/></g><g id="c66"><g><use transform="matrix(1.0,0.0,0.0,1.0,0.0,0.0)" xlink:href="#c65"/></g></g><g id="c67"><path fill="#463c31" stroke="none" d="M0.2 -4.85 Q0.2 0.05 0.6 5.8 2.5 5.6 1.4 7.6 0.3 9.5 -1.6 6.9 -1.7 5.6 -0.75 6.1 L-1.55 -5.8 Q-2.3 -7.05 -0.95 -8.15 0.2 -9.1 0.55 -6.45 L0.2 -4.85"/><path fill="none" stroke="#000000" stroke-width="0.5" stroke-opacity="0.301960784314" d="M0.2 -4.85 Q0.2 0.05 0.6 5.8 2.5 5.6 1.4 7.6 0.3 9.5 -1.6 6.9 -1.7 5.6 -0.75 6.1 L-1.55 -5.8 Q-2.3 -7.05 -0.95 -8.15 0.2 -9.1 0.55 -6.45 L0.2 -4.85"/><path fill="#514437" stroke="none" d="M-0.55 -5.1 L-0.05 5.6 -0.5 6.0 Q-0.75 0.45 -1.15 -5.1 L-0.55 -5.1"/></g><g id="c68"><g><use transform="matrix(1.0,0.0,0.0,1.0,0.0,0.0)" xlink:href="#c67"/></g></g><g id="c69"><path fill="#4b3f34" stroke="none" d="M0.85 -5.85 Q0.5 -0.05 0.55 6.9 2.15 6.5 1.1 8.95 0.05 11.35 -1.45 8.35 -1.35 6.7 -0.55 7.25 L-0.6 -6.8 Q-1.1 -8.35 0.05 -9.7 1.05 -10.95 1.25 -7.75 L0.85 -5.85"/><path fill="none" stroke="#000000" stroke-width="0.5" stroke-opacity="0.301960784314" d="M0.85 -5.85 Q0.5 -0.05 0.55 6.9 2.15 6.5 1.1 8.95 0.05 11.35 -1.45 8.35 -1.35 6.7 -0.55 7.25 L-0.6 -6.8 Q-1.1 -8.35 0.05 -9.7 1.05 -10.95 1.25 -7.75 L0.85 -5.85"/><path fill="#977e68" stroke="none" d="M0.05 -6.25 L-0.05 6.5 -0.45 7.0 -0.4 -6.25 0.05 -6.25"/><path fill="#977e68" stroke="none" d="M0.2 -8.7 L0.0 -8.25 -0.3 -8.05 -0.5 -8.05 -0.5 -8.4 -0.3 -8.8 0.0 -9.05 0.2 -8.95 0.2 -8.7"/><path fill="#977e68" stroke="none" d="M0.85 7.75 L0.65 8.2 0.35 8.4 0.15 8.4 0.15 8.05 0.35 7.65 0.65 7.4 0.85 7.5 0.85 7.75"/></g><g id="c70"><g><use transform="matrix(1.0,0.0,0.0,1.0,0.0,0.0)" xlink:href="#c69"/></g></g><g id="c71"><path fill="#28231c" stroke="none" d="M-1.05 5.05 L-0.95 -6.85 Q-1.5 -8.5 0.1 -8.7 1.4 -8.85 1.6 -6.05 1.4 -5.3 0.75 -5.2 L0.45 5.7 Q1.65 7.75 0.65 8.5 -0.4 9.15 -1.25 6.65 -2.05 4.05 -1.05 5.05"/><path fill="none" stroke="#000000" stroke-width="0.5" stroke-opacity="0.301960784314" d="M-1.05 5.05 L-0.95 -6.85 Q-1.5 -8.5 0.1 -8.7 1.4 -8.85 1.6 -6.05 1.4 -5.3 0.75 -5.2 L0.45 5.7 Q1.65 7.75 0.65 8.5 -0.4 9.15 -1.25 6.65 -2.05 4.05 -1.05 5.05"/><path fill="#514437" stroke="none" d="M-0.2 -5.55 L-0.3 5.7 -0.5 5.35 -0.6 -5.9 -0.2 -5.55"/></g><g id="c72"><g><use transform="matrix(1.0,0.0,0.0,1.0,0.0,0.0)" xlink:href="#c71"/></g></g><g id="c73"><path fill="#463c31" stroke="none" d="M0.2 -4.85 Q0.2 0.05 0.6 5.8 2.5 5.6 1.4 7.6 0.3 9.5 -1.6 6.9 -1.7 5.6 -0.75 6.1 L-1.55 -5.8 Q-2.3 -7.05 -0.95 -8.15 0.2 -9.1 0.55 -6.45 L0.2 -4.85"/><path fill="none" stroke="#000000" stroke-width="0.5" stroke-opacity="0.301960784314" d="M0.2 -4.85 Q0.2 0.05 0.6 5.8 2.5 5.6 1.4 7.6 0.3 9.5 -1.6 6.9 -1.7 5.6 -0.75 6.1 L-1.55 -5.8 Q-2.3 -7.05 -0.95 -8.15 0.2 -9.1 0.55 -6.45 L0.2 -4.85"/><path fill="#514437" stroke="none" d="M-0.55 -5.1 L-0.05 5.6 -0.5 6.0 Q-0.75 0.45 -1.15 -5.1 L-0.55 -5.1"/></g><g id="c74"><g><use transform="matrix(1.0,0.0,0.0,1.0,0.0,0.0)" xlink:href="#c73"/></g></g><g id="c75"><path fill="#4b3f34" stroke="none" d="M0.85 -5.85 Q0.5 -0.05 0.55 6.9 2.15 6.5 1.1 8.95 0.05 11.35 -1.45 8.35 -1.35 6.7 -0.55 7.25 L-0.6 -6.8 Q-1.1 -8.35 0.05 -9.7 1.05 -10.95 1.25 -7.75 L0.85 -5.85"/><path fill="none" stroke="#000000" stroke-width="0.5" stroke-opacity="0.301960784314" d="M0.85 -5.85 Q0.5 -0.05 0.55 6.9 2.15 6.5 1.1 8.95 0.05 11.35 -1.45 8.35 -1.35 6.7 -0.55 7.25 L-0.6 -6.8 Q-1.1 -8.35 0.05 -9.7 1.05 -10.95 1.25 -7.75 L0.85 -5.85"/><path fill="#977e68" stroke="none" d="M0.05 -6.25 L-0.05 6.5 -0.45 7.0 -0.4 -6.25 0.05 -6.25"/><path fill="#977e68" stroke="none" d="M0.2 -8.7 L0.0 -8.25 -0.3 -8.05 -0.5 -8.05 -0.5 -8.4 -0.3 -8.8 0.0 -9.05 0.2 -8.95 0.2 -8.7"/><path fill="#977e68" stroke="none" d="M0.85 7.75 L0.65 8.2 0.35 8.4 0.15 8.4 0.15 8.05 0.35 7.65 0.65 7.4 0.85 7.5 0.85 7.75"/></g><g id="c76"><g><use transform="matrix(1.0,0.0,0.0,1.0,0.0,0.0)" xlink:href="#c75"/></g></g><g id="c77"><path fill="#28231c" stroke="none" d="M2.4 -3.25 L9.1 -0.95 Q8.35 2.7 6.1 5.0 L5.85 0.6 2.25 -0.85 Q1.35 -2.3 2.4 -3.25"/><path fill="none" stroke="#000000" stroke-width="0.5" stroke-opacity="0.301960784314" d="M2.4 -3.25 L9.1 -0.95 Q8.35 2.7 6.1 5.0 L5.85 0.6 2.25 -0.85"/><path fill="#28231c" stroke="none" d="M-1.65 4.15 L-3.5 5.2 -7.2 5.05 Q-7.05 -0.2 -5.95 -3.7 L0.1 -6.4 3.45 -2.95 0.25 4.65 -1.65 4.15"/><path fill="none" stroke="#000000" stroke-width="0.5" stroke-opacity="0.301960784314" d="M-1.65 4.15 L-3.5 5.2 -7.2 5.05 Q-7.05 -0.2 -5.95 -3.7 L0.1 -6.4 3.45 -2.95 0.25 4.65 -1.65 4.15"/><path fill="#42362d" stroke="none" d="M-3.85 -0.75 L3.15 -2.55 0.2 4.25 -1.3 2.6 -2.85 4.4 -4.35 4.85 -3.85 -0.75"/><path fill="#28231c" stroke="none" d="M-1.45 -4.95 L5.1 -10.6 Q8.5 -7.65 9.55 -4.0 7.2 -5.15 4.85 -6.4 L1.0 -3.35 Q-0.75 -3.45 -1.45 -4.95"/><path fill="none" stroke="#000000" stroke-width="0.5" stroke-opacity="0.301960784314" d="M-1.45 -4.95 L5.1 -10.6 Q8.5 -7.65 9.55 -4.0 7.2 -5.15 4.85 -6.4 L1.0 -3.35"/><path fill="#28231c" stroke="none" d="M-5.85 -2.7 L-4.35 -9.6 Q-0.65 -9.3 1.95 -7.4 L-2.45 -6.7 -3.45 -2.9 Q-4.8 -1.75 -5.85 -2.7"/><path fill="none" stroke="#000000" stroke-width="0.5" stroke-opacity="0.301960784314" d="M-5.85 -2.7 L-4.35 -9.6 Q-0.65 -9.3 1.95 -7.4 L-2.45 -6.7 -3.45 -2.9"/><path fill="#28231c" stroke="none" d="M-6.05 1.1 Q-4.75 3.0 -3.75 5.1 L-6.1 8.25 -3.3 10.9 Q-6.4 11.4 -9.5 9.35 L-6.05 1.1"/><path fill="none" stroke="#000000" stroke-width="0.5" stroke-opacity="0.301960784314" d="M-6.05 1.1 L-9.5 9.35 Q-6.4 11.4 -3.3 10.9 L-6.1 8.25 -3.75 5.1"/><path fill="#42362d" stroke="none" d="M-7.95 8.35 L-3.9 10.75 Q-6.75 10.75 -8.7 9.45 L-7.95 8.35"/><path fill="#42362d" stroke="none" d="M-3.9 -7.95 L0.8 -7.95 Q-1.7 -9.4 -4.0 -9.25 L-3.9 -7.95"/><path fill="#42362d" stroke="none" d="M5.1 -8.2 L5.5 -10.3 Q7.1 -8.35 9.05 -4.75 L5.1 -8.2"/></g><g id="c78"><g><use transform="matrix(1.0,0.0,0.0,1.0,0.0,0.0)" xlink:href="#c77"/></g></g><g id="c79"><path fill="#28231c" stroke="none" d="M4.7 10.55 Q6.85 13.0 3.0 13.85 -0.9 14.4 -2.1 9.85 -1.15 9.95 -0.9 7.8 -0.95 0.05 -2.9 -8.7 -7.0 -11.9 -4.45 -13.45 -1.95 -15.4 4.3 -9.15 5.5 -6.8 2.5 -6.85 3.3 1.8 4.7 10.55"/><path fill="none" stroke="#000000" stroke-width="0.5" stroke-opacity="0.301960784314" d="M4.7 10.55 Q6.85 13.0 3.0 13.85 -0.9 14.4 -2.1 9.85 -1.15 9.95 -0.9 7.8 -0.95 0.05 -2.9 -8.7 -7.0 -11.9 -4.45 -13.45 -1.95 -15.4 4.3 -9.15 5.5 -6.8 2.5 -6.85 3.3 1.8 4.7 10.55"/><path fill="none" stroke="#000000" stroke-width="0.5" stroke-opacity="0.301960784314" d="M-2.1 -10.0 Q0.5 -9.3 2.7 -6.9"/><path fill="#42362d" stroke="none" d="M0.6 -12.1 Q-2.05 -13.7 -3.1 -12.6 0.9 -10.65 3.1 -7.9 3.7 -8.7 3.35 -9.3 2.6 -11.05 0.6 -12.1"/><path fill="#42362d" stroke="none" d="M-1.45 -8.35 Q2.1 -8.1 2.35 -5.5 3.35 1.15 2.85 6.65 L-1.45 -8.35"/></g><g id="c80"><g><use transform="matrix(1.0,0.0,0.0,1.0,0.0,0.0)" xlink:href="#c79"/></g></g><g id="c81"><g><use transform="matrix(1.0,0.0,0.0,1.0,0.55,0.8)" xlink:href="#c3"/></g><g><use transform="matrix(1.0,0.0,0.0,1.0,-14.95,-81.0)" xlink:href="#c12"/></g><g><use transform="matrix(1.0,0.0,0.0,1.0,-5.5,-71.1)" xlink:href="#c14"/></g><g><use transform="matrix(1.0,0.0,0.0,1.0,23.7,-6.8)" xlink:href="#c16"/></g><g><use transform="matrix(1.0,0.0,0.0,1.0,21.15,-13.95)" xlink:href="#c18"/></g><g><use transform="matrix(1.0,0.0,0.0,1.0,18.85,-31.7)" xlink:href="#c20"/></g><g><use transform="matrix(1.0,0.0,0.0,1.0,-15.45,8.8)" xlink:href="#c22"/></g><g><use transform="matrix(1.0,0.0,0.0,1.0,-16.1,0.55)" xlink:href="#c24"/></g><g><use transform="matrix(1.0,0.0,0.0,1.0,13.55,-54.05)" xlink:href="#c26"/></g><g><use transform="matrix(1.0,0.0,0.0,1.0,-4.0,-49.2)" xlink:href="#c28"/></g><g><use transform="matrix(1.0,0.0,0.0,1.0,-17.75,-20.2)" xlink:href="#c30"/></g><g><use transform="matrix(1.0,0.0,0.0,1.0,-19.25,-43.35)" xlink:href="#c32"/></g><g><use transform="matrix(1.0,0.0,0.0,1.0,-20.5,-50.2)" xlink:href="#c34"/></g><g><use transform="matrix(1.0,0.0,0.0,1.0,-0.55,-47.8)" xlink:href="#c36"/></g><g><use transform="matrix(1.0,0.0,0.0,1.0,26.5,-94.0)" xlink:href="#c38"/></g><g><use transform="matrix(1.0,0.0,0.0,1.0,38.25,-65.35)" xlink:href="#c40"/></g><g><use transform="matrix(1.0,0.0,0.0,1.0,1.1,-77.3)" xlink:href="#c42"/></g><g><use transform="matrix(1.0,0.0,0.0,1.0,-15.6,-53.3)" xlink:href="#c44"/></g><g><use transform="matrix(1.0,0.0,0.0,1.0,-27.75,-76.5)" xlink:href="#c46"/></g><g><use transform="matrix(1.0,0.0,0.0,1.0,-12.6,-35.35)" xlink:href="#c48"/></g><g><use transform="matrix(1.0,0.0,0.0,1.0,1.75,-33.3)" xlink:href="#c50"/></g><g><use transform="matrix(1.0,0.0,0.0,1.0,32.85,-63.9)" xlink:href="#c52"/></g><g><use transform="matrix(1.0,0.0,0.0,1.0,-36.65,-56.45)" xlink:href="#c54"/></g><g><use transform="matrix(1.0,0.0,0.0,1.0,36.95,-86.55)" xlink:href="#c56"/></g><g><use transform="matrix(1.0,0.0,0.0,1.0,4.45,-91.65)" xlink:href="#c58"/></g><g><use transform="matrix(1.0,0.0,0.0,1.0,53.95,-56.3)" xlink:href="#c60"/></g><g><use transform="matrix(1.0,0.0,0.0,1.0,18.45,-63.5)" xlink:href="#c62"/></g><g><use transform="matrix(1.0,0.0,0.0,1.0,17.55,-82.05)" xlink:href="#c64"/></g><g><use transform="matrix(1.0,0.0,0.0,1.0,10.5,-92.45)" xlink:href="#c66"/></g><g><use transform="matrix(1.0,0.0,0.0,1.0,8.15,-108.95)" xlink:href="#c68"/></g><g><use transform="matrix(1.0,0.0,0.0,1.0,7.9,-124.75)" xlink:href="#c70"/></g><g><use transform="matrix(1.0,0.0,0.0,1.0,31.35,-96.2)" xlink:href="#c72"/></g><g><use transform="matrix(1.0,0.0,0.0,1.0,31.6,-111.65)" xlink:href="#c74"/></g><g><use transform="matrix(1.0,0.0,0.0,1.0,30.7,-127.8)" xlink:href="#c76"/></g><g><use transform="matrix(1.0,0.0,0.0,1.0,69.4,-63.3)" xlink:href="#c78"/></g><g><use transform="matrix(1.0,0.0,0.0,1.0,-37.75,-71.5)" xlink:href="#c80"/></g></g><g id="c82"><path fill="#000000" fill-opacity="0.00392156862745" d="M0.0 0.0 L60.0 0.0 60.0 60.0 0.0 60.0 0.0 0.0"/></g><g id="c83"><path fill="none" stroke="#000000" stroke-width="1.0" stroke-opacity="0.301960784314" d="M0.7 12.25 Q-0.45 9.75 0.75 8.25 1.2 7.6 2.15 7.15 2.8 6.7 3.8 6.35 L17.5 1.95 30.2 7.0 41.35 31.7 Q42.95 35.15 40.2 36.7 39.5 37.3 38.3 37.65 L25.5 41.8 25.45 41.75 24.55 42.0 11.85 37.0 0.7 12.25"/><path fill="#9d147b" stroke="none" d="M35.55 22.3 L31.5 13.2 29.75 9.2 16.95 4.25 5.5 7.85 Q1.65 9.1 3.35 12.8 L8.25 23.65 13.1 34.35 25.8 39.4 37.2 35.7 Q41.1 34.5 39.35 30.75 L35.55 22.3 M5.45 20.95 L1.35 11.8 Q0.4 9.65 1.1 8.3 1.45 7.65 2.15 7.15 2.8 6.7 3.8 6.35 L17.5 1.95 30.2 7.0 41.35 31.7 Q42.95 35.15 40.2 36.7 L38.9 37.25 25.2 41.65 12.5 36.65 5.45 20.95"/><path fill="#c47fad" stroke="none" d="M31.5 13.2 L35.55 22.3 39.35 30.75 Q41.1 34.5 37.2 35.7 L25.8 39.4 13.1 34.35 8.25 23.65 3.35 12.8 Q1.65 9.1 5.5 7.85 L16.95 4.25 29.75 9.2 31.5 13.2 M18.5 7.45 L9.1 10.55 9.55 11.6 Q9.8 12.8 9.15 13.6 8.4 14.45 7.1 14.4 L6.8 14.4 6.95 14.6 15.2 32.75 23.85 36.2 34.0 32.9 33.7 32.1 Q33.45 30.9 34.1 30.1 34.75 29.3 35.95 29.35 L35.8 29.0 27.75 10.95 18.5 7.45"/><path fill="#fcf2cf" stroke="none" d="M27.75 10.95 L35.8 29.0 35.95 29.35 Q34.75 29.3 34.1 30.1 33.45 30.9 33.7 32.1 L34.0 32.9 23.85 36.2 15.2 32.75 6.95 14.6 6.8 14.4 7.1 14.4 Q8.4 14.45 9.15 13.6 9.8 12.8 9.55 11.6 L9.1 10.55 18.5 7.45 27.75 10.95"/><path fill="#630a4c" stroke="none" d="M1.1 8.3 L0.75 8.25 Q1.2 7.6 2.15 7.15 1.45 7.65 1.1 8.3 M4.6 20.9 L5.45 20.95 12.5 36.65 11.55 36.25 11.25 35.55 4.6 20.9"/><path fill="#300525" stroke="none" d="M1.1 8.3 Q0.4 9.65 1.35 11.8 L5.45 20.95 4.6 20.9 0.7 12.25 Q-0.45 9.75 0.75 8.25 L1.1 8.3 M12.5 36.65 L25.2 41.65 38.9 37.25 40.2 36.7 Q39.5 37.3 38.3 37.65 L25.5 41.8 25.45 41.75 24.55 42.0 11.85 37.0 11.55 36.25 12.5 36.65"/><path fill="none" stroke="#bf9900" stroke-width="1.0" stroke-opacity="0.749019607843" d="M31.5 13.2 L35.55 22.3 M13.1 34.35 L8.25 23.65"/><path fill="none" stroke="#ffcc00" stroke-width="1.0" stroke-opacity="0.749019607843" d="M35.55 22.3 L39.35 30.75 Q41.1 34.5 37.2 35.7 L25.8 39.4 M8.25 23.65 L3.35 12.8 Q1.65 9.1 5.5 7.85 L16.95 4.25 29.75 9.2 31.5 13.2"/><path fill="none" stroke="#f0b92b" stroke-width="0.5" d="M27.75 10.95 L35.8 29.0 35.95 29.35 Q34.75 29.3 34.1 30.1 33.45 30.9 33.7 32.1 L34.0 32.9 23.85 36.2 15.2 32.75 6.95 14.6 6.8 14.4 7.1 14.4 Q8.4 14.45 9.15 13.6 9.8 12.8 9.55 11.6 L9.1 10.55 18.5 7.45"/><path fill="none" stroke="#000000" stroke-width="0.5" stroke-opacity="0.301960784314" d="M5.45 20.95 L1.35 11.8 Q0.4 9.65 1.1 8.3 M0.75 8.25 Q-0.45 9.75 0.7 12.25 L4.6 20.9 M5.45 20.95 L12.5 36.65 M25.2 41.65 L38.9 37.25 40.2 36.7 Q42.95 35.15 41.35 31.7 L30.2 7.0 M17.5 1.95 L3.8 6.35 Q2.8 6.7 2.15 7.15 1.45 7.65 1.1 8.3 M0.75 8.25 Q1.2 7.6 2.15 7.15 M11.25 35.55 L4.6 20.9 M25.5 41.8 L38.3 37.65 Q39.5 37.3 40.2 36.7"/><path fill="none" stroke="#ffcc00" stroke-width="0.5" stroke-opacity="0.749019607843" d="M18.5 7.45 L27.75 10.95"/><path fill="none" stroke="#f0b92b" stroke-width="1.0" stroke-opacity="0.749019607843" d="M25.8 39.4 L13.1 34.35"/><path fill="none" stroke="#432f2f" stroke-width="0.5" d="M12.5 36.65 L25.2 41.65"/></g><g id="c84"><path fill="#7fdbfe" stroke="none" d="M10.75 4.9 Q10.75 4.6 10.9 4.35 11.25 3.45 11.95 2.75 13.3 1.5 14.35 2.1 15.4 2.7 14.95 4.45 14.7 5.4 14.1 6.15 L13.75 6.5 Q13.1 7.15 12.35 7.35 L11.4 7.2 Q10.95 6.9 10.75 6.4 10.5 5.75 10.75 4.9 M7.5 5.9 Q7.0 5.85 6.6 5.5 6.05 5.0 5.8 4.15 L5.7 3.6 Q5.55 2.65 5.8 1.7 6.25 0.0 7.5 0.0 L7.6 0.0 Q8.85 0.0 9.3 1.7 9.55 2.65 9.4 3.6 L9.3 4.15 8.5 5.5 7.6 5.9 7.5 5.9 M4.35 4.9 Q4.6 5.75 4.35 6.4 L3.7 7.2 2.75 7.35 Q2.0 7.15 1.35 6.5 L1.0 6.15 Q0.4 5.4 0.15 4.45 -0.3 2.7 0.75 2.1 1.8 1.5 3.15 2.75 3.85 3.45 4.2 4.35 L4.35 4.9 M5.5 13.7 Q4.45 13.9 3.65 12.95 2.75 12.0 3.2 10.25 3.7 8.5 5.25 7.6 6.4 6.9 7.55 7.0 8.75 6.9 9.9 7.6 11.45 8.5 11.95 10.25 12.35 12.0 11.5 12.95 10.7 13.9 9.65 13.7 8.55 13.5 7.55 12.6 6.55 13.5 5.5 13.7"/></g><g id="c85"><g><use transform="matrix(1.0,0.0,0.0,1.0,0.0,0.0)" xlink:href="#c84"/></g></g><radialGradient gradientUnits="userSpaceOnUse" r="819.2" cx="0" cy="0" spreadMethod="pad" gradientTransform="matrix(0.0914459228516,0.0,0.0,0.0914459228516,0.6,3.4)" id="gradient9"><stop offset="0.0" stop-color="#ffffff"/><stop offset="1.0" stop-color="#ffffff" stop-opacity="0.0"/></radialGradient><g id="c86"><path stroke="none" fill="url(#gradient9)" d="M36.65 -54.65 Q60.05 -42.0 69.75 -17.95 80.55 8.9 68.0 34.1 55.45 59.35 26.8 68.2 -1.8 77.05 -29.7 64.3 -57.6 51.6 -68.45 24.75 -79.3 -2.05 -66.75 -27.25 L-66.7 -27.3 Q-54.1 -52.5 -25.5 -61.4 3.1 -70.2 31.0 -57.5 L36.65 -54.65"/></g><g id="c87"><g><use transform="matrix(1.0,0.0,0.0,1.0,0.0,0.0)" xlink:href="#c86"/></g></g><radialGradient gradientUnits="userSpaceOnUse" r="819.2" cx="0" cy="0" spreadMethod="pad" gradientTransform="matrix(0.209197998047,0.0,0.0,0.177108764648,67.15,107.2)" id="gradient10"><stop offset="0.356862745098" stop-color="#ffffff"/><stop offset="0.670588235294" stop-opacity="0.0"/></radialGradient><g id="c88"><path fill="none" stroke-linejoin="round" stroke-linecap="round" stroke="url(#gradient10)" stroke-width="0.5" d="M136.55 165.8 L68.6 106.0 68.4 106.0 118.25 201.5 M68.3 105.8 L68.35 105.8 68.3 105.8 68.3 105.85 68.4 106.0 68.3 106.0 86.55 211.5 M68.3 105.8 L68.3 105.85 68.3 106.0 68.15 105.95 18.25 151.55 M68.3 105.85 L68.25 105.85 68.3 106.0 50.0 193.2 M68.25 105.85 L68.15 105.95 0.05 97.7 M68.3 105.85 L68.25 105.8 68.25 105.85 M68.25 105.8 L68.2 105.7 0.0 45.7 M68.3 105.8 L68.25 105.75 68.25 105.8 M68.25 105.75 L68.2 105.7 18.25 10.05 M68.6 106.0 L68.35 105.8 118.25 60.15 M86.6 18.35 L68.3 105.8 M136.6 114.25 L68.6 106.0 M68.25 105.75 L49.95 0.05"/></g><g id="c89"><g><use transform="matrix(1.0,0.0,0.0,1.0,0.0,0.0)" xlink:href="#c88"/></g></g><g id="c90"><g><use transform="matrix(1.0,0.0,0.0,1.0,0.0,0.0)" xlink:href="#c83"/></g><g><use transform="matrix(0.238861083984,-0.0867004394531,0.10026550293,0.233917236328,34.25,31.15)" xlink:href="#c85"/></g><g><use transform="matrix(0.238861083984,-0.0867004394531,0.10026550293,0.233917236328,4.25,10.3)" xlink:href="#c85"/></g><g><use transform="matrix(0.141098022461,-0.0378112792969,0.111373901367,0.225646972656,20.25,20.65)" filter="url(#filter87)" xlink:href="#c87"/></g><g><use transform="matrix(-0.155029296875,0.0513153076172,0.0841827392578,0.147033691406,22.6,3.15)" filter="url(#filter88)" xlink:href="#c89"/></g></g><filter id="filter87"><feColorMatrix in="SourceGraphic" type="matrix" values="0.0 0.0 0.0 0.0 0.796875 0.0 0.0 0.0 0.0 0.59765625 0.0 0.0 0.0 0.0 0.19921875 0.0 0.0 0.0 1.0 0.0" result="cxform"/><feComposite operator="in" in2="SourceGraphic" result="color-xform"/></filter><filter id="filter88"><feColorMatrix in="SourceGraphic" type="matrix" values="0.0 0.0 0.0 0.0 0.99609375 0.0 0.0 0.0 0.0 0.99609375 0.0 0.0 0.0 0.0 0.99609375 0.0 0.0 0.0 1.0 0.0" result="cxform"/><feComposite operator="in" in2="SourceGraphic" result="color-xform"/></filter><filter id="filter92"><feColorMatrix in="SourceGraphic" type="matrix" values="1.0 0.0 0.0 0.0 0.0 0.0 1.0 0.0 0.0 0.0 0.0 0.0 1.0 0.0 0.0 0.0 0.0 0.0 0.23046875 0.0" result="cxform"/><feComposite operator="in" in2="SourceGraphic" result="color-xform"/></filter></defs><g><g><use transform="matrix(1.0,0.0,0.0,1.0,0.0,0.0)" xlink:href="#c82"/></g><g><use transform="matrix(1.15496826172,0.0,0.0,1.15496826172,5.85,4.8)" xlink:href="#c90"/></g><g><use transform="matrix(0.13525390625,-0.0511016845703,0.0511016845703,0.13525390625,32.7,38.35)" xlink:href="#c81"/></g><g><use transform="matrix(0.162948608398,-0.0436706542969,0.128631591797,0.260604858398,30.0,28.7)" filter="url(#filter92)" xlink:href="#c87"/></g></g></svg>