<?xml version="1.0" encoding="UTF-8" standalone="no"?>
<svg xmlns:xlink="http://www.w3.org/1999/xlink" height="60.0px" width="60.0px" xmlns="http://www.w3.org/2000/svg">
  <g transform="matrix(1.0, 0.0, 0.0, 1.0, 0.0, 0.0)">
    <use height="60.0" transform="matrix(1.0, 0.0, 0.0, 1.0, 0.0, 0.0)" width="60.0" xlink:href="#shape0"/>
    <use height="45.85" transform="matrix(1.155, 0.0, 0.0, 1.155, 3.9671, 2.0034)" width="44.8" xlink:href="#sprite0"/>
  </g>
  <defs>
    <g id="shape0" transform="matrix(1.0, 0.0, 0.0, 1.0, 0.0, 0.0)">
      <path d="M0.0 0.0 L60.0 0.0 60.0 60.0 0.0 60.0 0.0 0.0" fill="#000000" fill-opacity="0.003921569" fill-rule="evenodd" stroke="none"/>
    </g>
    <g id="sprite0" transform="matrix(1.0, 0.0, 0.0, 1.0, -4.95, -51.0)">
      <use height="43.05" transform="matrix(1.0, 0.0, 0.0, 1.0, 4.95, 53.8)" width="44.8" xlink:href="#sprite1"/>
      <clipPath id="clipPath0" transform="matrix(1.0, 0.0, 0.0, 1.0, 0.0, 0.0)">
        <path d="M46.35 90.05 L45.05 90.6 31.05 95.1 18.7 90.15 7.5 65.15 Q6.55 63.0 7.25 61.65 7.6 61.0 8.3 60.5 8.95 60.05 9.95 59.7 L23.65 55.3 36.35 60.35 47.5 85.05 Q49.1 88.5 46.35 90.05" fill="#003333" fill-rule="evenodd" stroke="none"/>
      </clipPath>
      <g clip-path="url(#clipPath0)">
        <use height="0.0" transform="matrix(1.0, 0.0, 0.0, 1.0, 6.45, 53.4)" width="0.0" xlink:href="#sprite5"/>
      </g>
      <use height="30.5" transform="matrix(0.5325, -0.223, 0.223, 0.5325, 17.3509, 70.1205)" width="27.05" xlink:href="#sprite6"/>
      <use height="40.3" transform="matrix(1.0, 0.0, 0.0, 1.0, 6.2, 55.2)" width="42.2" xlink:href="#shape21"/>
      <clipPath id="clipPath1" transform="matrix(1.0, 0.0, 0.0, 1.0, 0.0, 0.0)">
        <path d="M46.35 90.05 L45.05 90.6 31.05 95.1 18.7 90.15 7.5 65.15 Q6.55 63.0 7.25 61.65 7.6 61.0 8.3 60.5 8.95 60.05 9.95 59.7 L23.65 55.3 36.35 60.35 47.5 85.05 Q49.1 88.5 46.35 90.05" fill="#003333" fill-rule="evenodd" stroke="none"/>
      </clipPath>
      <g clip-path="url(#clipPath1)">
        <use height="0.0" transform="matrix(1.0, 0.0, 0.0, 1.0, 9.65, 51.0)" width="0.0" xlink:href="#sprite26"/>
        <use height="0.0" transform="matrix(1.0, 0.0, 0.0, 1.0, 9.65, 51.0)" width="0.0" xlink:href="#sprite26"/>
        <use height="30.6" transform="matrix(1.0, 0.0, 0.0, 1.0, 14.7, 59.4)" width="27.15" xlink:href="#shape22"/>
      </g>
      <use height="0.0" transform="matrix(0.1411, -0.0378, 0.1114, 0.2256, 27.2, 74.05)" width="0.0" xlink:href="#sprite3"/>
    </g>
    <g id="sprite1" transform="matrix(1.0, 0.0, 0.0, 1.0, 1.35, -0.45)">
      <use height="13.75" transform="matrix(0.2389, -0.0867, 0.1003, 0.2339, 34.25, 31.15)" width="15.1" xlink:href="#sprite2"/>
      <use height="13.75" transform="matrix(0.2389, -0.0867, 0.1003, 0.2339, 4.25, 10.3)" width="15.1" xlink:href="#sprite2"/>
      <use height="45.05" transform="matrix(1.0, 0.0, 0.0, 1.0, -2.35, -0.55)" width="46.8" xlink:href="#shape2"/>
      <use height="13.75" transform="matrix(0.2389, -0.0867, 0.1003, 0.2339, 34.25, 31.15)" width="15.1" xlink:href="#sprite2"/>
      <use height="13.75" transform="matrix(0.2389, -0.0867, 0.1003, 0.2339, 4.25, 10.3)" width="15.1" xlink:href="#sprite2"/>
      <use height="0.0" transform="matrix(0.1411, -0.0378, 0.1114, 0.2256, 20.25, 20.65)" width="0.0" xlink:href="#sprite3"/>
      <use height="211.55" transform="matrix(-0.155, 0.0513, 0.0842, 0.147, 22.6078, 3.1474)" width="136.7" xlink:href="#sprite4"/>
    </g>
    <g id="sprite2" transform="matrix(1.0, 0.0, 0.0, 1.0, 0.0, 0.0)">
      <use height="13.75" transform="matrix(1.0, 0.0, 0.0, 1.0, 0.0, 0.0)" width="15.1" xlink:href="#shape1"/>
    </g>
    <g id="shape1" transform="matrix(1.0, 0.0, 0.0, 1.0, 0.0, 0.0)">
      <path d="M10.75 4.9 Q10.75 4.6 10.9 4.35 11.25 3.45 11.95 2.75 13.3 1.5 14.35 2.1 15.4 2.7 14.95 4.45 14.7 5.4 14.1 6.15 L13.75 6.5 Q13.1 7.15 12.35 7.35 L11.4 7.2 Q10.95 6.9 10.75 6.4 10.5 5.75 10.75 4.9 M7.5 5.9 Q7.0 5.85 6.6 5.5 6.05 5.0 5.8 4.15 L5.7 3.6 Q5.55 2.65 5.8 1.7 6.25 0.0 7.5 0.0 L7.6 0.0 Q8.85 0.0 9.3 1.7 9.55 2.65 9.4 3.6 L9.3 4.15 8.5 5.5 7.6 5.9 7.5 5.9 M4.35 4.9 Q4.6 5.75 4.35 6.4 L3.7 7.2 2.75 7.35 Q2.0 7.15 1.35 6.5 L1.0 6.15 Q0.4 5.4 0.15 4.45 -0.3 2.7 0.75 2.1 1.8 1.5 3.15 2.75 3.85 3.45 4.2 4.35 L4.35 4.9 M5.5 13.7 Q4.45 13.9 3.65 12.95 2.75 12.0 3.2 10.25 3.7 8.5 5.25 7.6 6.4 6.9 7.55 7.0 8.75 6.9 9.9 7.6 11.45 8.5 11.95 10.25 12.35 12.0 11.5 12.95 10.7 13.9 9.65 13.7 8.55 13.5 7.55 12.6 6.55 13.5 5.5 13.7" fill="#7fdbfe" fill-rule="evenodd" stroke="none"/>
    </g>
    <g id="shape2" transform="matrix(1.0, 0.0, 0.0, 1.0, 2.35, 0.55)">
      <path d="M11.85 37.0 L0.7 12.25 Q-0.45 9.75 0.75 8.25 1.2 7.6 2.15 7.15 2.8 6.7 3.8 6.35 L17.5 1.95 30.2 7.0 41.35 31.7 Q42.95 35.15 40.2 36.7 39.5 37.3 38.3 37.65 L25.5 41.8 25.45 41.75 24.55 42.0 11.85 37.0 Z" fill="none" stroke="#000000" stroke-linecap="round" stroke-linejoin="round" stroke-opacity="0.29803923" stroke-width="1.0"/>
      <path d="M35.55 22.3 L31.5 13.2 29.75 9.2 16.95 4.25 5.5 7.85 Q1.65 9.1 3.35 12.8 L8.25 23.65 13.1 34.35 25.8 39.4 37.2 35.7 Q41.1 34.5 39.35 30.75 L35.55 22.3 M5.45 20.95 L1.35 11.8 Q0.4 9.65 1.1 8.3 1.45 7.65 2.15 7.15 2.8 6.7 3.8 6.35 L17.5 1.95 30.2 7.0 41.35 31.7 Q42.95 35.15 40.2 36.7 L38.9 37.25 25.2 41.65 12.5 36.65 5.45 20.95" fill="#ffcc00" fill-rule="evenodd" stroke="none"/>
      <path d="M31.5 13.2 L35.55 22.3 39.35 30.75 Q41.1 34.5 37.2 35.7 L25.8 39.4 13.1 34.35 8.25 23.65 3.35 12.8 Q1.65 9.1 5.5 7.85 L16.95 4.25 29.75 9.2 31.5 13.2 M18.5 7.45 L9.1 10.55 9.55 11.6 Q9.8 12.8 9.15 13.6 8.4 14.45 7.1 14.4 L6.8 14.4 6.95 14.6 15.2 32.75 23.85 36.2 34.0 32.9 33.7 32.1 Q33.45 30.9 34.1 30.1 34.75 29.3 35.95 29.35 L35.8 29.0 27.75 10.95 18.5 7.45" fill="#996600" fill-rule="evenodd" stroke="none"/>
      <path d="M27.75 10.95 L35.8 29.0 35.95 29.35 Q34.75 29.3 34.1 30.1 33.45 30.9 33.7 32.1 L34.0 32.9 23.85 36.2 15.2 32.75 6.95 14.6 6.8 14.4 7.1 14.4 Q8.4 14.45 9.15 13.6 9.8 12.8 9.55 11.6 L9.1 10.55 18.5 7.45 27.75 10.95" fill="#fcf2cf" fill-rule="evenodd" stroke="none"/>
      <path d="M1.1 8.3 L0.75 8.25 Q1.2 7.6 2.15 7.15 1.45 7.65 1.1 8.3" fill="#630a4c" fill-rule="evenodd" stroke="none"/>
      <path d="M1.1 8.3 Q0.4 9.65 1.35 11.8 L5.45 20.95 4.6 20.9 0.7 12.25 Q-0.45 9.75 0.75 8.25 L1.1 8.3 M12.5 36.65 L25.2 41.65 38.9 37.25 40.2 36.7 Q39.5 37.3 38.3 37.65 L25.5 41.8 25.45 41.75 24.55 42.0 11.85 37.0 11.55 36.25 12.5 36.65" fill="#5b3c00" fill-rule="evenodd" stroke="none"/>
      <path d="M4.6 20.9 L5.45 20.95 12.5 36.65 11.55 36.25 11.25 35.55 4.6 20.9" fill="#724b00" fill-rule="evenodd" stroke="none"/>
      <path d="M31.5 13.2 L35.55 22.3 M13.1 34.35 L8.25 23.65" fill="none" stroke="#ffaa00" stroke-linecap="round" stroke-linejoin="round" stroke-opacity="0.7490196" stroke-width="1.0"/>
      <path d="M35.55 22.3 L39.35 30.75 Q41.1 34.5 37.2 35.7 L25.8 39.4 13.1 34.35 M8.25 23.65 L3.35 12.8 Q1.65 9.1 5.5 7.85 L16.95 4.25 29.75 9.2 31.5 13.2" fill="none" stroke="#fcf2cf" stroke-linecap="round" stroke-linejoin="round" stroke-opacity="0.7490196" stroke-width="1.0"/>
      <path d="M27.75 10.95 L35.8 29.0 35.95 29.35 Q34.75 29.3 34.1 30.1 33.45 30.9 33.7 32.1 L34.0 32.9 23.85 36.2 15.2 32.75 6.95 14.6 6.8 14.4 7.1 14.4 Q8.4 14.45 9.15 13.6 9.8 12.8 9.55 11.6 L9.1 10.55 18.5 7.45" fill="none" stroke="#f0b92b" stroke-linecap="round" stroke-linejoin="round" stroke-width="0.05"/>
      <path d="M5.45 20.95 L1.35 11.8 Q0.4 9.65 1.1 8.3 1.45 7.65 2.15 7.15 2.8 6.7 3.8 6.35 L17.5 1.95 M0.75 8.25 Q-0.45 9.75 0.7 12.25 L4.6 20.9 11.25 35.55 M5.45 20.95 L12.5 36.65 M25.2 41.65 L38.9 37.25 40.2 36.7 Q42.95 35.15 41.35 31.7 L30.2 7.0 M0.75 8.25 Q1.2 7.6 2.15 7.15 M25.5 41.8 L38.3 37.65 Q39.5 37.3 40.2 36.7" fill="none" stroke="#000000" stroke-linecap="round" stroke-linejoin="round" stroke-opacity="0.3019608" stroke-width="0.05"/>
      <path d="M18.5 7.45 L27.75 10.95" fill="none" stroke="#ffcc00" stroke-linecap="round" stroke-linejoin="round" stroke-opacity="0.7490196" stroke-width="0.05"/>
      <path d="M12.5 36.65 L25.2 41.65" fill="none" stroke="#432f2f" stroke-linecap="round" stroke-linejoin="round" stroke-width="0.05"/>
    </g>
    <g id="sprite4" transform="matrix(1.0, 0.0, 0.0, 1.0, 0.05, 0.0)">
      <use height="211.65" transform="matrix(1.0, 0.0, 0.0, 1.0, -0.1, -0.05)" width="136.8" xlink:href="#shape3"/>
    </g>
    <g id="shape3" transform="matrix(1.0, 0.0, 0.0, 1.0, 0.1, 0.05)">
      <path d="M136.55 165.8 L68.6 106.0 68.4 106.0 118.25 201.5 M68.3 105.8 L68.35 105.8 68.3 105.8 68.3 105.85 68.4 106.0 68.3 106.0 86.55 211.5 M68.3 105.8 L68.3 105.85 68.3 106.0 68.15 105.95 18.25 151.55 M68.3 105.85 L68.25 105.85 68.3 106.0 50.0 193.2 M68.25 105.85 L68.15 105.95 0.05 97.7 M68.3 105.85 L68.25 105.8 68.25 105.85 M68.25 105.8 L68.2 105.7 0.0 45.7 M68.3 105.8 L68.25 105.75 68.25 105.8 M68.25 105.75 L68.2 105.7 18.25 10.05 M68.6 106.0 L68.35 105.8 118.25 60.15 M86.6 18.35 L68.3 105.8 M136.6 114.25 L68.6 106.0 M68.25 105.75 L49.95 0.05" fill="none" stroke="url(#gradient0)" stroke-linecap="round" stroke-linejoin="round" stroke-width="0.05"/>
    </g>
    <radialGradient cx="0" cy="0" gradientTransform="matrix(0.2092, 0.0, 0.0, 0.1771, 67.15, 107.2)" gradientUnits="userSpaceOnUse" id="gradient0" r="819.2" spreadMethod="pad">
      <stop offset="0.3568627450980392" stop-color="#ffffff"/>
      <stop offset="0.6705882352941176" stop-color="#000000" stop-opacity="0.0"/>
    </radialGradient>
    <g id="sprite6" transform="matrix(1.0, 0.0, 0.0, 1.0, 13.55, 22.35)">
      <use height="0.0" transform="matrix(1.0, 0.0, 0.0, 1.0, 0.0, 0.0)" width="0.0" xlink:href="#sprite7"/>
      <use height="8.45" transform="matrix(1.0, 0.0, 0.0, 1.0, 1.0, -13.6)" width="11.15" xlink:href="#sprite8"/>
      <use height="10.25" transform="matrix(1.0, 0.0, 0.0, 1.0, -13.35, -7.2)" width="9.9" xlink:href="#sprite9"/>
      <use height="8.35" transform="matrix(1.0, 0.0, 0.0, 1.0, 1.15, -7.7)" width="9.65" xlink:href="#sprite10"/>
      <use height="19.3" transform="matrix(1.0, 0.0, 0.0, 1.0, -10.55, -14.1)" width="17.6" xlink:href="#sprite11"/>
      <use height="9.25" transform="matrix(1.0, 0.0, 0.0, 1.0, -11.75, -1.1)" width="7.65" xlink:href="#sprite12"/>
      <use height="17.8" transform="matrix(1.0, 0.0, 0.0, 1.0, -10.8, -22.35)" width="24.3" xlink:href="#sprite13"/>
      <use height="12.35" transform="matrix(1.0, 0.0, 0.0, 1.0, -13.55, -8.25)" width="8.85" xlink:href="#sprite25"/>
    </g>
    <g id="sprite8" transform="matrix(1.0, 0.0, 0.0, 1.0, 5.7, 4.55)">
      <use height="8.55" transform="matrix(1.0, 0.0, 0.0, 1.0, -5.75, -4.6)" width="11.25" xlink:href="#shape5"/>
    </g>
    <g id="shape5" transform="matrix(1.0, 0.0, 0.0, 1.0, 5.75, 4.6)">
      <path d="M2.9 1.15 L3.2 -1.15 2.95 -1.7 3.0 -1.75 4.05 -1.15 4.15 -0.85 4.8 1.6 3.05 1.2 2.9 1.15" fill="#bfad72" fill-rule="evenodd" stroke="none"/>
      <path d="M2.9 1.15 L3.05 1.2 4.8 1.6 4.15 -0.85 5.4 1.7 5.35 2.25 5.35 2.4 5.3 3.0 1.4 3.2 2.9 1.35 2.9 1.15 M3.0 -1.75 L2.95 -1.7 2.95 -1.75 3.0 -1.75" fill="#a19360" fill-rule="evenodd" stroke="none"/>
      <path d="M2.95 -1.7 L3.2 -1.15 2.9 1.15 2.9 1.35 1.4 3.2 1.15 3.5 -0.7 3.85 -4.2 3.2 -5.65 1.5 -5.65 -1.85 -4.65 -3.15 -4.7 -3.2 -3.7 -4.15 -0.7 -4.5 2.15 -3.65 2.95 -1.75 2.95 -1.7" fill="#1c2628" fill-rule="evenodd" stroke="none"/>
      <path d="M-4.7 -3.2 L-4.65 -3.15 -5.65 -1.85 -4.7 -3.2" fill="#000000" fill-rule="evenodd" stroke="none"/>
      <path d="M2.95 -1.7 L3.2 -1.15 2.9 1.15 2.9 1.35 1.4 3.2 1.15 3.5 -0.7 3.85 -4.2 3.2 -5.65 1.5 M4.15 -0.85 L4.05 -1.15 3.0 -1.75 2.95 -1.75 2.15 -3.65 -0.7 -4.5 -3.7 -4.15 M2.95 -1.7 L2.95 -1.75 M4.15 -0.85 L5.4 1.7 5.35 2.25 M5.35 2.4 L5.3 3.0 1.4 3.2" fill="none" stroke="#000000" stroke-linecap="round" stroke-linejoin="round" stroke-opacity="0.4" stroke-width="0.05"/>
    </g>
    <g id="sprite9" transform="matrix(1.0, 0.0, 0.0, 1.0, 4.95, 5.1)">
      <use height="10.35" transform="matrix(1.0, 0.0, 0.0, 1.0, -5.0, -5.15)" width="10.0" xlink:href="#shape6"/>
    </g>
    <g id="shape6" transform="matrix(1.0, 0.0, 0.0, 1.0, 5.0, 5.15)">
      <path d="M4.75 -0.3 L4.9 0.75 4.4 1.85 Q0.75 2.65 -0.95 1.75 L-3.05 -0.5 -4.6 -3.3 -1.0 0.35 2.1 0.6 4.75 -0.3" fill="#243931" fill-rule="evenodd" stroke="none"/>
      <path d="M-4.6 -3.3 L-3.05 -0.5 -0.95 1.75 Q0.75 2.65 4.4 1.85 L3.65 3.45 1.0 5.1 Q-1.25 4.45 -2.35 2.8 -4.0 0.15 -4.9 -3.4 L-4.8 -3.7 -4.6 -3.3" fill="#000000" fill-rule="evenodd" stroke="none"/>
      <path d="M4.75 -0.3 L2.1 0.6 -1.0 0.35 -4.6 -3.3 -4.8 -3.7 Q-4.5 -4.75 -3.7 -5.05 -0.95 -3.25 3.45 -3.25 L4.65 -1.45 4.75 -0.3" fill="#385046" fill-rule="evenodd" stroke="none"/>
      <path d="M4.4 1.85 L4.9 0.75 4.75 -0.3 4.65 -1.45 3.45 -3.25 Q-0.95 -3.25 -3.7 -5.05 -4.5 -4.75 -4.8 -3.7 L-4.9 -3.4 Q-4.0 0.15 -2.35 2.8 -1.25 4.45 1.0 5.1 L3.65 3.45 4.4 1.85 Z" fill="none" stroke="#000000" stroke-linecap="round" stroke-linejoin="round" stroke-opacity="0.4" stroke-width="0.05"/>
    </g>
    <g id="sprite10" transform="matrix(1.0, 0.0, 0.0, 1.0, 4.8, 4.15)">
      <use height="8.45" transform="matrix(1.0, 0.0, 0.0, 1.0, -4.85, -4.2)" width="9.75" xlink:href="#shape7"/>
    </g>
    <g id="shape7" transform="matrix(1.0, 0.0, 0.0, 1.0, 4.85, 4.2)">
      <path d="M-4.55 -1.75 L-4.25 -2.35 Q-3.25 -3.55 -1.9 -4.05 L-1.7 -4.1 -1.0 -4.0 1.05 -2.5 1.5 -0.95 1.45 -0.95 -0.55 -0.1 -3.6 -0.55 -4.55 -1.75" fill="#385046" fill-rule="evenodd" stroke="none"/>
      <path d="M-1.0 -4.0 L0.7 -3.8 0.9 -3.7 1.7 -2.8 2.35 -1.8 1.9 -0.8 0.3 0.2 -0.5 1.55 -0.5 3.4 -0.8 4.15 -0.95 4.15 -2.75 4.15 -4.45 2.75 -4.7 -0.3 -4.7 -0.35 -4.7 -0.7 -4.55 -1.75 -3.6 -0.55 -0.55 -0.1 1.45 -0.95 1.5 -0.95 1.05 -2.5 -1.0 -4.0" fill="#1c2628" fill-rule="evenodd" stroke="none"/>
      <path d="M2.35 -1.8 L2.55 -1.45 2.6 -0.75 2.6 -0.5 2.6 1.7 2.15 2.9 2.1 3.05 1.6 3.3 0.05 4.15 -0.8 4.15 -0.5 3.4 -0.5 1.55 0.3 0.2 1.9 -0.8 2.35 -1.8" fill="#000000" fill-rule="evenodd" stroke="none"/>
      <path d="M3.85 0.65 L4.0 0.8 4.8 2.15 4.4 2.45 2.9 0.55 3.85 0.65" fill="#fbf1bf" fill-rule="evenodd" stroke="none"/>
      <path d="M2.6 -0.5 L3.85 0.65 2.9 0.55 4.4 2.45 3.0 3.3 2.2 3.3 2.2 3.15 2.15 2.9 2.6 1.7 2.6 -0.5" fill="#a19360" fill-rule="evenodd" stroke="none"/>
      <path d="M2.2 3.3 L1.6 3.3 2.1 3.05 2.15 2.9 2.2 3.15 2.2 3.3" fill="#a6a077" fill-rule="evenodd" stroke="none"/>
      <path d="M-1.0 -4.0 L0.7 -3.8 0.9 -3.7 1.7 -2.8 2.35 -1.8 2.55 -1.45 2.6 -0.75 2.6 -0.5 3.85 0.65 4.0 0.8 4.8 2.15 4.4 2.45 3.0 3.3 2.2 3.3 1.6 3.3 0.05 4.15 -0.8 4.15 M-0.95 4.15 L-2.75 4.15 -4.45 2.75 -4.7 -0.3 -4.7 -0.35 -4.7 -0.7 -4.55 -1.75 -4.25 -2.35 Q-3.25 -3.55 -1.9 -4.05 L-1.7 -4.1 -1.0 -4.0 M2.15 2.9 L2.1 3.05 1.6 3.3 M2.15 2.9 L2.6 1.7 2.6 -0.5" fill="none" stroke="#000000" stroke-linecap="round" stroke-linejoin="round" stroke-opacity="0.4" stroke-width="0.05"/>
    </g>
    <g id="sprite11" transform="matrix(1.0, 0.0, 0.0, 1.0, 8.8, 9.65)">
      <use height="19.4" transform="matrix(1.0, 0.0, 0.0, 1.0, -8.85, -9.7)" width="17.7" xlink:href="#shape8"/>
    </g>
    <g id="shape8" transform="matrix(1.0, 0.0, 0.0, 1.0, 8.85, 9.7)">
      <path d="M4.05 7.8 Q2.4 8.75 0.05 9.6 -5.0 9.55 -7.4 6.4 L-8.75 -0.65 -7.1 -6.25 -4.95 -8.5 -1.1 -9.6 -1.05 -9.6 4.5 -8.05 8.15 -2.4 8.75 1.5 8.15 3.55 6.45 5.95 5.65 6.7 6.5 5.6 Q7.3 4.3 7.2 3.25 7.1 2.2 6.1 1.9 5.1 1.6 3.9 2.3 2.65 3.0 1.85 4.25 1.0 5.55 1.15 6.65 1.25 7.7 2.25 8.0 L4.05 7.8" fill="#18231d" fill-rule="evenodd" stroke="none"/>
      <path d="M4.05 7.8 L2.25 8.0 Q1.25 7.7 1.15 6.65 1.0 5.55 1.85 4.25 2.65 3.0 3.9 2.3 5.1 1.6 6.1 1.9 7.1 2.2 7.2 3.25 7.3 4.3 6.5 5.6 L5.65 6.7 4.45 7.6 4.05 7.8 M4.5 5.1 L4.55 5.65 4.0 6.1 4.55 5.65 4.5 5.1 M4.6 6.1 L4.55 5.65 5.15 5.15 4.55 5.65 4.6 6.1" fill="#a66b35" fill-rule="evenodd" stroke="none"/>
      <path d="M5.65 6.7 L6.45 5.95 8.15 3.55 8.75 1.5 8.15 -2.4 4.5 -8.05 -1.05 -9.6 -1.1 -9.6 -4.95 -8.5 -7.1 -6.25 -8.75 -0.65 -7.4 6.4 Q-5.0 9.55 0.05 9.6 2.4 8.75 4.05 7.8 L2.25 8.0 Q1.25 7.7 1.15 6.65 1.0 5.55 1.85 4.25 2.65 3.0 3.9 2.3 5.1 1.6 6.1 1.9 7.1 2.2 7.2 3.25 7.3 4.3 6.5 5.6 L5.65 6.7 4.45 7.6 4.05 7.8 M5.15 5.15 L4.55 5.65 4.6 6.1 M4.0 6.1 L4.55 5.65 4.5 5.1" fill="none" stroke="#000000" stroke-linecap="round" stroke-linejoin="round" stroke-opacity="0.4" stroke-width="0.05"/>
    </g>
    <g id="sprite12" transform="matrix(1.0, 0.0, 0.0, 1.0, 3.85, 4.6)">
      <use height="9.35" transform="matrix(1.0, 0.0, 0.0, 1.0, -3.9, -4.65)" width="7.75" xlink:href="#shape9"/>
    </g>
    <g id="shape9" transform="matrix(1.0, 0.0, 0.0, 1.0, 3.9, 4.65)">
      <path d="M-3.4 -2.2 L-3.1 -2.8 Q-2.1 -4.0 -0.75 -4.5 L-0.55 -4.55 0.15 -4.45 2.2 -2.95 2.6 -1.4 0.6 -0.55 -2.45 -1.0 -3.4 -2.2" fill="#385046" fill-rule="evenodd" stroke="none"/>
      <path d="M0.15 -4.45 L1.85 -4.25 2.05 -4.15 2.85 -3.25 3.5 -2.25 3.05 -1.25 1.45 -0.25 0.65 1.1 0.65 1.7 -0.35 0.75 -0.9 0.9 -0.95 1.05 -2.4 2.4 -2.45 2.5 -2.5 3.0 -3.3 2.3 -3.55 -0.75 -3.55 -0.8 -3.55 -1.15 -3.4 -2.2 -2.45 -1.0 0.6 -0.55 2.6 -1.4 2.2 -2.95 0.15 -4.45" fill="#1c2628" fill-rule="evenodd" stroke="none"/>
      <path d="M3.5 -2.25 L3.7 -1.9 3.75 -1.2 3.75 1.25 3.25 2.6 1.85 3.35 1.1 2.1 0.65 1.7 0.65 1.1 1.45 -0.25 3.05 -1.25 3.5 -2.25" fill="#000000" fill-rule="evenodd" stroke="none"/>
      <path d="M-2.4 2.4 L-2.4 2.5 -2.45 2.5 -2.4 2.4" fill="#a6a077" fill-rule="evenodd" stroke="none"/>
      <path d="M0.15 -4.45 L1.85 -4.25 2.05 -4.15 2.85 -3.25 3.5 -2.25 3.7 -1.9 3.75 -1.2 3.75 1.25 3.25 2.6 1.85 3.35 M-2.5 3.0 L-3.3 2.3 -3.55 -0.75 -3.55 -0.8 -3.55 -1.15 -3.4 -2.2 -3.1 -2.8 Q-2.1 -4.0 -0.75 -4.5 L-0.55 -4.55 0.15 -4.45 Z" fill="none" stroke="#000000" stroke-linecap="round" stroke-linejoin="round" stroke-opacity="0.4" stroke-width="0.05"/>
      <path d="M-3.05 1.85 L-3.05 1.8 -2.8 1.7 -2.1 2.3 -1.75 2.9 -1.7 2.95 -2.55 3.55 -2.95 3.55 -2.65 3.2 -2.65 3.1 -2.7 2.4 -3.05 1.85" fill="#a19360" fill-rule="evenodd" stroke="none"/>
      <path d="M-3.8 3.2 L-3.8 2.6 -3.75 2.6 -3.75 2.55 -3.05 1.85 -2.7 2.4 -2.65 3.1 -2.65 3.2 -2.95 3.55 -2.95 2.75 -3.3 3.35 -3.8 3.2" fill="#e3d39a" fill-rule="evenodd" stroke="none"/>
      <path d="M-2.95 3.55 L-3.25 3.55 -3.8 3.25 -3.8 3.2 -3.3 3.35 -2.95 2.75 -2.95 3.55" fill="#a6a077" fill-rule="evenodd" stroke="none"/>
      <path d="M-3.05 1.8 L-2.8 1.7 -2.1 2.3 -1.75 2.9 -1.7 2.95 -2.55 3.55 -2.95 3.55 -3.25 3.55 -3.8 3.25 -3.8 3.2 -3.8 2.6 -3.75 2.6 -3.75 2.55 -3.05 1.85" fill="none" stroke="#000000" stroke-linecap="round" stroke-linejoin="round" stroke-opacity="0.4" stroke-width="0.05"/>
      <path d="M-0.95 1.05 L-0.9 0.9 -0.35 0.75 1.1 2.1 1.85 3.35 1.9 3.45 0.1 4.6 -0.7 4.6 -0.05 3.85 -0.05 3.7 -0.15 2.25 -0.95 1.05" fill="#a19360" fill-rule="evenodd" stroke="none"/>
      <path d="M-2.55 3.75 L-2.45 2.5 -2.4 2.5 -2.4 2.4 -0.95 1.05 -0.15 2.25 -0.05 3.7 -0.05 3.85 -0.7 4.6 -1.35 4.15 -1.4 4.2 -2.55 3.75" fill="#fbf1bf" fill-rule="evenodd" stroke="none"/>
      <path d="M-0.7 4.6 L-1.3 4.6 -2.55 3.9 -2.55 3.75 -1.4 4.2 -1.35 4.15 -0.7 4.6" fill="#a6a077" fill-rule="evenodd" stroke="none"/>
      <path d="M-0.9 0.9 L-0.35 0.75 1.1 2.1 1.85 3.35 1.9 3.45 0.1 4.6 -0.7 4.6 -1.3 4.6 -2.55 3.9 -2.55 3.75 -2.45 2.5 -2.4 2.5 -2.4 2.4 -0.95 1.05" fill="none" stroke="#000000" stroke-linecap="round" stroke-linejoin="round" stroke-opacity="0.4" stroke-width="0.05"/>
      <path d="M2.05 2.45 L2.05 2.4 2.3 2.25 3.0 2.8 3.35 3.3 3.4 3.35 2.55 4.05 2.15 4.15 2.45 3.75 2.45 3.65 2.4 2.95 2.05 2.45" fill="#a19360" fill-rule="evenodd" stroke="none"/>
      <path d="M1.3 3.9 L1.3 3.25 1.35 3.25 1.35 3.2 2.05 2.45 2.4 2.95 2.45 3.65 2.45 3.75 2.15 4.15 2.15 3.35 1.8 4.0 1.3 3.9" fill="#e3d39a" fill-rule="evenodd" stroke="none"/>
      <path d="M2.15 4.15 L1.85 4.2 1.3 3.95 1.3 3.9 1.8 4.0 2.15 3.35 2.15 4.15" fill="#a6a077" fill-rule="evenodd" stroke="none"/>
      <path d="M2.05 2.4 L2.3 2.25 3.0 2.8 3.35 3.3 3.4 3.35 2.55 4.05 2.15 4.15 1.85 4.2 1.3 3.95 1.3 3.9 1.3 3.25 1.35 3.25 1.35 3.2 2.05 2.45" fill="none" stroke="#000000" stroke-linecap="round" stroke-linejoin="round" stroke-opacity="0.4" stroke-width="0.05"/>
    </g>
    <g id="sprite13" transform="matrix(1.0, 0.0, 0.0, 1.0, 12.1, 8.9)">
      <use height="5.6" transform="matrix(1.0, 0.0, 0.0, 1.0, 5.3, -1.65)" width="6.9" xlink:href="#sprite14"/>
      <use height="3.6" transform="matrix(1.0, 0.0, 0.0, 1.0, -1.95, -7.4)" width="6.3" xlink:href="#sprite15"/>
      <use height="17.25" transform="matrix(1.0, 0.0, 0.0, 1.0, -11.3, -8.35)" width="19.65" xlink:href="#sprite16"/>
      <use height="4.75" transform="matrix(1.0, 0.0, 0.0, 1.0, 3.85, 1.75)" width="5.3" xlink:href="#sprite17"/>
      <use height="5.7" transform="matrix(1.0, 0.0, 0.0, 1.0, -12.1, -8.9)" width="4.75" xlink:href="#sprite18"/>
      <use height="7.9" transform="matrix(1.0, 0.0, 0.0, 1.0, -11.25, -2.35)" width="6.5" xlink:href="#sprite19"/>
      <use height="3.05" transform="matrix(1.0, 0.0, 0.0, 1.0, -7.6, 1.35)" width="2.2" xlink:href="#sprite20"/>
      <use height="1.25" transform="matrix(1.0, 0.0, 0.0, 1.0, -9.05, 1.6)" width="1.65" xlink:href="#sprite21"/>
      <use height="2.7" transform="matrix(1.0, 0.0, 0.0, 1.0, -10.9, 3.5)" width="3.9" xlink:href="#sprite22"/>
      <use height="2.4" transform="matrix(1.0, 0.0, 0.0, 1.0, -9.15, -3.0)" width="3.9" xlink:href="#sprite23"/>
      <use height="5.6" transform="matrix(1.0, 0.0, 0.0, 1.0, -3.75, 3.3)" width="6.9" xlink:href="#sprite24"/>
    </g>
    <g id="sprite14" transform="matrix(1.0, 0.0, 0.0, 1.0, 3.45, 2.8)">
      <use height="5.8" transform="matrix(1.0, 0.0, 0.0, 1.0, -3.55, -2.9)" width="7.1" xlink:href="#shape10"/>
    </g>
    <g id="shape10" transform="matrix(1.0, 0.0, 0.0, 1.0, 3.55, 2.9)">
      <path d="M-2.8 -1.85 L-2.5 -2.45 -0.6 -2.7 0.8 -1.5 -0.1 -1.45 -1.45 -0.1 -2.8 -1.85" fill="#fceeb7" fill-rule="evenodd" stroke="none"/>
      <path d="M0.8 -1.5 L0.9 -1.5 2.4 -2.65 3.35 -0.95 1.1 0.7 -0.7 0.7 -1.4 -0.1 -1.45 -0.1 -0.1 -1.45 0.8 -1.5" fill="#e3d39a" fill-rule="evenodd" stroke="none"/>
      <path d="M3.35 -0.95 L2.8 1.0 0.5 2.7 -2.9 2.0 -3.35 -0.65 -2.8 -1.85 -1.45 -0.1 -1.4 -0.1 -0.7 0.7 1.1 0.7 3.35 -0.95" fill="#a19360" fill-rule="evenodd" stroke="none"/>
      <path d="M-2.8 -1.85 L-2.5 -2.45 -0.6 -2.7 0.8 -1.5 0.9 -1.5 2.4 -2.65 3.35 -0.95 2.8 1.0 0.5 2.7 -2.9 2.0 -3.35 -0.65 -2.8 -1.85 M-0.1 -1.45 L0.8 -1.5" fill="none" stroke="#000000" stroke-linecap="round" stroke-linejoin="round" stroke-opacity="0.4" stroke-width="0.05"/>
    </g>
    <g id="sprite15" transform="matrix(1.0, 0.0, 0.0, 1.0, 3.15, 1.8)">
      <use height="3.7" transform="matrix(1.0, 0.0, 0.0, 1.0, -3.2, -1.85)" width="6.4" xlink:href="#shape11"/>
    </g>
    <g id="shape11" transform="matrix(1.0, 0.0, 0.0, 1.0, 3.2, 1.85)">
      <path d="M3.1 1.75 L-1.65 1.75 -3.1 -1.5 Q-1.0 -1.95 1.2 -1.5 2.6 0.3 3.1 1.75" fill="#476956" fill-rule="evenodd" stroke="none"/>
      <path d="M-3.1 -1.5 Q-1.0 -1.95 1.2 -1.5 2.6 0.3 3.1 1.75" fill="none" stroke="#332300" stroke-linecap="round" stroke-linejoin="round" stroke-opacity="0.5411765" stroke-width="0.05"/>
    </g>
    <g id="sprite16" transform="matrix(1.0, 0.0, 0.0, 1.0, 9.85, 8.6)">
      <use height="17.35" transform="matrix(1.0, 0.0, 0.0, 1.0, -9.9, -8.65)" width="19.75" xlink:href="#shape12"/>
    </g>
    <g id="shape12" transform="matrix(1.0, 0.0, 0.0, 1.0, 9.9, 8.65)">
      <path d="M-9.6 -2.5 L-9.0 -4.0 -6.0 -7.1 -1.2 -8.55 Q4.4 -6.5 8.65 -2.3 L8.8 -1.6 8.85 -1.4 6.6 0.9 2.0 2.3 -5.4 0.15 -9.6 -2.5" fill="#476956" fill-rule="evenodd" stroke="none"/>
      <path d="M-9.6 -2.5 L-5.4 0.15 2.0 2.3 6.6 0.9 8.85 -1.4 9.75 2.4 5.75 6.65 -1.05 8.6 -6.95 6.8 -9.35 4.05 Q-10.15 0.65 -9.6 -2.5" fill="#26382f" fill-rule="evenodd" stroke="none"/>
      <path d="M8.8 -1.6 L8.65 -2.3 Q4.4 -6.5 -1.2 -8.55 L-6.0 -7.1 -9.0 -4.0 -9.6 -2.5 Q-10.15 0.65 -9.35 4.05 L-6.95 6.8 M-1.05 8.6 L5.75 6.65 9.75 2.4" fill="none" stroke="#000000" stroke-linecap="round" stroke-linejoin="round" stroke-opacity="0.4" stroke-width="0.05"/>
    </g>
    <g id="sprite17" transform="matrix(1.0, 0.0, 0.0, 1.0, 2.65, 2.35)">
      <use height="4.85" transform="matrix(1.0, 0.0, 0.0, 1.0, -2.7, -2.4)" width="5.4" xlink:href="#shape13"/>
    </g>
    <g id="shape13" transform="matrix(1.0, 0.0, 0.0, 1.0, 2.7, 2.4)">
      <path d="M2.6 0.0 L0.65 0.5 -1.2 -0.05 -0.5 -1.6 1.1 -2.15 1.25 -1.95 2.6 -0.05 2.6 0.0" fill="#e6b385" fill-rule="evenodd" stroke="none"/>
      <path d="M2.6 0.0 L2.6 1.65 1.3 2.35 -1.75 1.95 -2.6 0.2 -1.3 -1.6 0.15 -2.3 1.05 -2.2 1.1 -2.15 -0.5 -1.6 -1.2 -0.05 0.65 0.5 2.6 0.0" fill="#a66b35" fill-rule="evenodd" stroke="none"/>
      <path d="M1.1 -2.15 L1.05 -2.2 0.15 -2.3 -1.3 -1.6 -2.6 0.2 -1.75 1.95 1.3 2.35 2.6 1.65 2.6 0.0 2.6 -0.05 1.25 -1.95" fill="none" stroke="#000000" stroke-linecap="round" stroke-linejoin="round" stroke-opacity="0.4" stroke-width="0.05"/>
    </g>
    <g id="sprite18" transform="matrix(1.0, 0.0, 0.0, 1.0, 2.4, 2.85)">
      <use height="5.8" transform="matrix(1.0, 0.0, 0.0, 1.0, -2.45, -2.9)" width="4.85" xlink:href="#shape14"/>
    </g>
    <g id="shape14" transform="matrix(1.0, 0.0, 0.0, 1.0, 2.45, 2.9)">
      <path d="M-1.05 -0.7 L0.4 -0.35 1.1 -2.8 2.3 -0.65 0.8 1.35 -1.05 -0.7" fill="#476956" fill-rule="evenodd" stroke="none"/>
      <path d="M0.8 1.35 L-0.4 2.8 -2.35 2.4 -0.2 1.15 -1.35 -0.75 -1.05 -0.7 0.8 1.35" fill="#121a16" fill-rule="evenodd" stroke="none"/>
      <path d="M-1.05 -0.7 L0.4 -0.35 1.1 -2.8 2.3 -0.65 M-0.4 2.8 L-2.35 2.4 -0.2 1.15 -1.35 -0.75 -1.05 -0.7 Z" fill="none" stroke="#000000" stroke-linecap="round" stroke-linejoin="round" stroke-opacity="0.43137255" stroke-width="0.05"/>
    </g>
    <g id="sprite19" transform="matrix(1.0, 0.0, 0.0, 1.0, 3.25, 3.95)">
      <use height="8.4" transform="matrix(1.0, 0.0, 0.0, 1.0, -3.5, -4.2)" width="7.0" xlink:href="#shape15"/>
    </g>
    <g id="shape15" transform="matrix(1.0, 0.0, 0.0, 1.0, 3.5, 4.2)">
      <path d="M-1.7 -2.2 Q-2.45 -1.45 -2.45 -0.2 -2.45 1.05 -1.7 2.05 -1.0 3.1 0.0 3.2 1.0 3.4 1.75 2.65 2.45 1.85 2.45 0.6 2.45 -0.65 1.75 -1.6 1.0 -2.6 0.0 -2.8 -1.0 -2.95 -1.7 -2.2 M0.0 -3.65 Q1.25 -3.45 2.15 -2.2 3.0 -0.95 3.0 0.55 3.0 2.05 2.15 2.95 1.25 3.85 0.0 3.65 -1.2 3.4 -2.1 2.15 -3.0 1.0 -3.0 -0.5 -3.0 -2.0 -2.1 -3.0 -1.2 -3.9 0.0 -3.65" fill="#25382e" fill-rule="evenodd" stroke="none"/>
      <path d="M-1.7 -2.2 Q-1.0 -2.95 0.0 -2.8 1.0 -2.6 1.75 -1.6 2.45 -0.65 2.45 0.6 2.45 1.85 1.75 2.65 1.0 3.4 0.0 3.2 -1.0 3.1 -1.7 2.05 -2.45 1.05 -2.45 -0.2 -2.45 -1.45 -1.7 -2.2" fill="#ffffcc" fill-rule="evenodd" stroke="none"/>
      <path d="M-1.7 -2.2 Q-2.45 -1.45 -2.45 -0.2 -2.45 1.05 -1.7 2.05 -1.0 3.1 0.0 3.2 1.0 3.4 1.75 2.65 2.45 1.85 2.45 0.6 2.45 -0.65 1.75 -1.6 1.0 -2.6 0.0 -2.8 -1.0 -2.95 -1.7 -2.2 Z" fill="none" stroke="#332300" stroke-linecap="round" stroke-linejoin="round" stroke-opacity="0.5411765" stroke-width="0.25"/>
    </g>
    <g id="sprite20" transform="matrix(1.0, 0.0, 0.0, 1.0, 1.1, 1.5)">
      <use height="3.05" transform="matrix(1.0, 0.0, 0.0, 1.0, -1.1, -1.5)" width="2.2" xlink:href="#shape16"/>
    </g>
    <g id="shape16" transform="matrix(1.0, 0.0, 0.0, 1.0, 1.1, 1.5)">
      <path d="M-0.9 -0.7 L-0.95 -0.6 -1.1 0.45 Q-1.0 1.05 -0.7 1.35 L0.2 1.5 0.85 0.8 0.85 0.75 0.9 0.75 Q1.15 0.25 1.05 -0.4 L0.6 -1.35 -0.25 -1.45 -0.9 -0.7 M-0.5 -0.2 L-0.45 -0.25 -0.4 -0.25 -0.5 -0.2" fill="#000000" fill-rule="evenodd" stroke="none"/>
      <path d="M-0.5 -0.2 L-0.4 -0.25 -0.45 -0.25 -0.5 -0.2" fill="#1d5bb8" fill-rule="evenodd" stroke="none"/>
    </g>
    <g id="sprite21" transform="matrix(1.0, 0.0, 0.0, 1.0, 0.85, 0.6)">
      <use height="1.25" transform="matrix(1.0, 0.0, 0.0, 1.0, -0.85, -0.6)" width="1.65" xlink:href="#shape17"/>
    </g>
    <g id="shape17" transform="matrix(1.0, 0.0, 0.0, 1.0, 0.85, 0.6)">
      <path d="M0.55 0.55 L-0.05 0.6 -0.65 0.25 -0.85 -0.2 -0.65 -0.55 -0.05 -0.55 0.55 -0.25 0.8 0.2 0.55 0.55" fill="#ffffff" fill-rule="evenodd" stroke="none"/>
    </g>
    <g id="sprite22" transform="matrix(1.0, 0.0, 0.0, 1.0, 1.95, 1.35)">
      <use height="2.7" transform="matrix(1.0, 0.0, 0.0, 1.0, -1.95, -1.35)" width="3.9" xlink:href="#shape18"/>
    </g>
    <g id="shape18" transform="matrix(1.0, 0.0, 0.0, 1.0, 1.95, 1.35)">
      <path d="M1.95 0.35 L1.1 -0.2 -1.15 -1.35 Q-2.9 0.25 -0.85 1.25 2.0 1.65 1.95 0.35" fill="#375144" fill-rule="evenodd" stroke="none"/>
    </g>
    <g id="sprite23" transform="matrix(1.0, 0.0, 0.0, 1.0, 1.95, 1.2)">
      <use height="2.4" transform="matrix(1.0, 0.0, 0.0, 1.0, -1.95, -1.2)" width="3.9" xlink:href="#shape19"/>
    </g>
    <g id="shape19" transform="matrix(1.0, 0.0, 0.0, 1.0, 1.95, 1.2)">
      <path d="M1.65 1.2 Q2.6 -1.15 0.75 -1.2 -2.1 -0.8 -1.95 -0.3 -1.8 0.15 -1.0 0.15 -0.2 0.1 1.65 1.2" fill="#78a38b" fill-opacity="0.5529412" fill-rule="evenodd" stroke="none"/>
    </g>
    <g id="sprite24" transform="matrix(1.0, 0.0, 0.0, 1.0, 3.45, 2.8)">
      <use height="5.8" transform="matrix(1.0, 0.0, 0.0, 1.0, -3.55, -2.9)" width="7.1" xlink:href="#shape10"/>
    </g>
    <g id="sprite25" transform="matrix(1.0, 0.0, 0.0, 1.0, 4.2, 6.4)">
      <use height="12.45" transform="matrix(1.0, 0.0, 0.0, 1.0, -4.25, -6.45)" width="8.95" xlink:href="#shape20"/>
    </g>
    <g id="shape20" transform="matrix(1.0, 0.0, 0.0, 1.0, 4.25, 6.45)">
      <path d="M-0.35 -5.95 L-1.85 -5.3 -1.9 -5.35 -0.35 -5.95" fill="#000000" fill-rule="evenodd" stroke="none"/>
      <path d="M1.2 -5.55 L2.2 -2.65 1.45 0.0 -0.2 -0.05 -0.95 0.45 -2.7 1.7 -2.5 2.35 -4.1 1.1 -4.15 -1.85 -3.1 -4.65 -1.9 -5.35 -1.85 -5.3 -0.35 -5.95 -0.3 -5.95 1.2 -5.55" fill="#385046" fill-rule="evenodd" stroke="none"/>
      <path d="M1.45 0.0 L2.2 -2.65 1.2 -5.55 2.9 -5.1 4.2 -3.25 3.9 0.3 3.05 2.05 2.75 2.2 3.2 0.7 2.1 0.0 1.45 0.0" fill="#1c2628" fill-rule="evenodd" stroke="none"/>
      <path d="M-2.5 2.35 L-2.7 1.7 -0.95 0.45 -0.75 1.2 -0.15 0.7 1.8 0.95 1.8 1.0 0.7 3.65 1.25 3.35 0.75 5.75 0.2 5.65 -1.9 3.8 -0.45 2.8 0.3 3.25 0.1 1.55 0.05 1.6 -1.8 1.85 -2.45 2.4 -2.5 2.4 -2.5 2.35" fill="#e3d39a" fill-rule="evenodd" stroke="none"/>
      <path d="M-2.5 2.4 L-2.45 2.4 -1.8 1.85 0.05 1.6 0.1 1.55 0.3 3.25 -0.45 2.8 -1.9 3.8 -2.15 3.6 -2.5 2.4" fill="#fceeb7" fill-rule="evenodd" stroke="none"/>
      <path d="M1.45 0.0 L2.1 0.0 3.2 0.7 2.75 2.2 1.55 5.9 0.9 5.8 0.75 5.75 1.25 3.35 0.7 3.65 1.8 1.0 1.8 0.95 -0.15 0.7 -0.75 1.2 -0.95 0.45 -0.2 -0.05 1.45 0.0" fill="#a19360" fill-rule="evenodd" stroke="none"/>
      <path d="M1.45 0.0 L2.1 0.0 3.2 0.7 2.75 2.2 3.05 2.05 3.9 0.3 4.2 -3.25 2.9 -5.1 M-3.1 -4.65 L-4.15 -1.85 -4.1 1.1 -2.5 2.35 -2.7 1.7 -0.95 0.45 -0.2 -0.05 1.45 0.0 M-1.9 3.8 L0.2 5.65 0.75 5.75 M0.9 5.8 L1.55 5.9 2.75 2.2 M-2.5 2.35 L-2.5 2.4 -2.15 3.6 -1.9 3.8" fill="none" stroke="#000000" stroke-linecap="round" stroke-linejoin="round" stroke-opacity="0.4" stroke-width="0.05"/>
      <path d="M4.6 -3.35 L4.6 -3.5 Q1.9 -4.6 0.45 -6.35 -2.15 -4.5 0.65 -2.65 4.55 -1.5 4.6 -3.35" fill="#426153" fill-opacity="0.7411765" fill-rule="evenodd" stroke="none"/>
    </g>
    <g id="shape21" transform="matrix(1.0, 0.0, 0.0, 1.0, -6.2, -55.2)">
      <path d="M46.5 90.1 Q45.8 90.7 44.6 91.05 L31.8 95.2 31.75 95.15 31.55 95.2 45.2 90.65 46.2 90.25 46.5 90.1" fill="#999999" fill-rule="evenodd" stroke="none"/>
      <path d="M31.55 95.2 L30.85 95.4 18.15 90.4 17.5 89.0 10.9 74.45 9.9 72.25 6.85 65.65 Q5.7 63.15 6.9 61.65 7.45 60.95 8.5 60.45 9.15 60.0 10.1 59.7 L23.8 55.3 23.85 55.3 36.55 60.4 36.6 60.4 47.7 85.1 Q49.3 88.6 46.5 90.1 45.8 90.7 44.6 91.05 L31.8 95.2" fill="none" stroke="#ffaa00" stroke-linecap="round" stroke-linejoin="round" stroke-opacity="0.7490196" stroke-width="0.05"/>
      <path d="M31.55 95.2 L45.2 90.65 46.2 90.25 46.5 90.1 Q49.25 88.55 47.65 85.1 L36.55 60.4 M9.9 72.25 L7.0 65.65 Q5.85 63.15 7.05 61.65 7.5 61.0 8.45 60.55 9.1 60.1 10.1 59.75 L23.85 55.3" fill="none" stroke="#000000" stroke-linecap="round" stroke-linejoin="round" stroke-opacity="0.3019608" stroke-width="0.05"/>
    </g>
    <g id="shape22" transform="matrix(1.0, 0.0, 0.0, 1.0, -14.7, -59.4)">
      <path d="M33.85 83.75 L33.85 83.8 33.85 83.95 33.85 84.0 33.85 84.1 33.9 84.1 33.9 84.15 34.35 84.4 34.85 84.75 34.35 84.45 34.1 84.3 34.05 84.25 33.95 84.2 33.9 84.2 33.9 84.7 33.9 85.25 33.85 84.75 33.75 84.2 33.7 84.1 33.5 84.25 33.0 84.55 32.7 84.7 32.95 84.5 33.4 84.3 33.45 84.25 33.5 84.2 33.7 84.1 33.65 84.05 33.7 84.05 33.7 84.0 33.3 83.6 32.95 83.25 33.3 83.55 33.55 83.8 33.7 83.95 33.8 83.4 33.9 82.95 33.85 83.35 33.85 83.75 M34.25 84.0 L34.15 84.0 33.9 84.05 34.15 83.95 34.7 83.75 35.2 83.65 34.85 83.75 34.95 83.85 34.85 83.75 34.7 83.8 34.4 83.9 34.35 83.9 34.25 84.0 M34.95 83.85 L35.65 84.4 36.45 85.15 36.5 85.2 36.75 85.45 36.9 85.55 36.9 85.5 37.1 83.9 37.35 82.3 37.45 81.75 37.4 82.25 37.4 83.85 37.2 85.6 37.35 86.0 37.4 86.1 38.7 86.9 40.15 87.75 40.55 88.05 40.1 87.8 38.75 87.05 37.75 86.45 37.4 86.25 37.35 86.2 37.4 86.3 37.5 87.75 37.55 89.45 37.6 90.0 37.5 89.5 37.25 87.9 37.05 86.25 37.0 86.3 36.9 85.9 36.7 85.75 36.9 85.85 36.9 85.65 35.7 84.55 34.95 83.85 M35.7 86.65 L36.1 86.45 36.2 86.4 36.85 86.1 36.3 86.45 34.8 87.25 33.35 88.0 32.8 88.25 33.3 88.0 34.65 87.2 35.7 86.65 M41.85 84.45 L41.35 84.6 39.85 85.15 38.15 85.7 37.5 85.9 Q37.45 85.85 38.1 85.65 L39.7 85.1 41.3 84.6 41.85 84.45" fill="#fefd8d" fill-opacity="0.972549" fill-rule="evenodd" stroke="none"/>
      <path d="M33.85 83.75 L34.05 83.4 34.25 83.2 34.15 83.4 34.0 83.8 33.9 83.9 33.85 83.8 33.85 83.75 M34.1 84.3 L34.35 84.5 34.45 84.65 34.25 84.5 34.0 84.3 33.95 84.2 34.05 84.25 34.1 84.3 M33.4 84.3 L33.3 84.3 32.95 84.45 32.7 84.55 32.95 84.4 33.35 84.25 33.45 84.25 33.4 84.3 M33.55 83.8 L33.4 83.6 33.6 83.8 33.65 83.9 33.55 83.8 M34.25 84.0 L34.35 83.9 34.4 83.9 34.65 83.85 34.95 83.85 35.05 83.8 34.95 83.85 34.7 83.9 34.3 84.0 34.2 84.0 34.25 84.0 M36.45 85.15 L35.85 84.4 35.45 83.85 35.95 84.3 36.65 85.15 36.9 85.5 36.75 85.45 36.5 85.2 36.45 85.15 M37.75 86.45 Q38.15 86.7 38.6 87.1 L39.3 87.75 38.5 87.15 37.6 86.5 37.4 86.3 37.35 86.2 37.4 86.25 37.75 86.45 M33.6 84.3 L33.7 84.2 33.75 84.35 33.65 84.7 33.55 85.05 33.55 84.75 33.6 84.3 M37.65 85.15 L37.35 85.5 37.35 85.0 37.9 84.05 38.5 83.1 38.7 82.75 38.55 83.1 38.15 84.05 37.65 85.15 M35.7 86.65 L34.7 87.0 33.8 87.3 34.7 86.95 35.75 86.5 36.1 86.45 35.7 86.65 M38.7 85.65 L38.25 85.7 38.7 85.55 39.75 85.35 40.7 85.2 41.05 85.15 40.75 85.25 39.8 85.45 38.7 85.65 M36.7 86.7 L36.95 86.25 37.0 86.75 36.65 87.8 36.3 88.85 36.15 89.25 36.25 88.85 36.4 87.85 Q36.5 87.1 36.7 86.7" fill="#fffd8f" fill-opacity="0.4" fill-rule="evenodd" stroke="none"/>
      <path d="M38.0 86.75 Q37.9 86.0 37.45 85.8 L36.9 85.85 Q36.75 86.1 36.9 86.5 37.1 87.0 37.65 87.3 L38.35 87.95 38.6 88.25 38.45 87.85 38.0 86.75" fill="#fffd8f" fill-opacity="0.39215687" fill-rule="evenodd" stroke="none"/>
      <path d="M38.0 86.25 L37.05 85.85 Q36.8 85.8 36.95 85.95 L37.55 86.35 38.35 86.6 Q38.8 86.65 39.05 86.85 L39.35 86.95 39.0 86.75 38.0 86.25" fill="#fffd8f" fill-opacity="0.39215687" fill-rule="evenodd" stroke="none"/>
      <path d="M36.4 84.8 Q36.35 85.55 36.75 85.85 L37.3 85.9 37.45 85.25 Q37.35 84.75 36.9 84.35 36.35 83.9 36.3 83.55 L36.1 83.25 36.2 83.65 36.4 84.8" fill="#fffd8f" fill-opacity="0.39215687" fill-rule="evenodd" stroke="none"/>
      <path d="M36.25 85.35 L37.1 85.95 37.2 85.8 36.75 85.3 35.95 84.9 Q35.55 84.75 35.3 84.6 L35.05 84.45 35.35 84.65 36.25 85.35" fill="#fffd8f" fill-opacity="0.39215687" fill-rule="evenodd" stroke="none"/>
      <path d="M38.75 85.2 Q38.0 85.45 37.85 85.65 37.7 85.85 37.85 85.8 L38.5 85.65 39.25 85.2 39.9 84.75 40.15 84.6 39.75 84.75 38.75 85.2" fill="#fffd8f" fill-opacity="0.39215687" fill-rule="evenodd" stroke="none"/>
      <path d="M35.75 87.0 L36.6 86.4 36.5 86.25 Q36.25 86.25 35.9 86.5 L35.25 87.1 34.7 87.65 Q34.4 87.8 34.45 87.85 L34.8 87.6 35.75 87.0" fill="#fffd8f" fill-opacity="0.39215687" fill-rule="evenodd" stroke="none"/>
      <path d="M34.1 84.35 L33.95 84.05 33.75 84.05 Q33.65 84.1 33.7 84.25 L34.0 84.55 34.2 84.75 34.3 84.85 34.2 84.75 34.1 84.35" fill="#fffd8f" fill-opacity="0.39215687" fill-rule="evenodd" stroke="none"/>
      <path d="M34.1 84.2 Q33.9 84.05 33.75 84.05 L33.75 84.1 33.95 84.2 34.2 84.3 34.5 84.4 34.55 84.4 34.45 84.4 34.1 84.2" fill="#fffd8f" fill-opacity="0.39215687" fill-rule="evenodd" stroke="none"/>
      <path d="M33.5 83.65 L33.65 84.05 33.85 84.05 33.9 83.85 33.65 83.55 33.5 83.25 33.45 83.15 33.5 83.25 33.5 83.65" fill="#fffd8f" fill-opacity="0.39215687" fill-rule="evenodd" stroke="none"/>
      <path d="M33.5 83.9 L33.75 84.05 33.8 84.0 33.65 83.85 33.35 83.7 33.2 83.6 33.05 83.55 33.15 83.6 33.5 83.9" fill="#fffd8f" fill-opacity="0.39215687" fill-rule="evenodd" stroke="none"/>
      <path d="M34.3 83.8 L34.05 83.95 34.05 84.0 34.25 83.95 34.55 83.8 Q34.6 83.7 34.7 83.7 L34.8 83.6 34.7 83.65 34.3 83.8" fill="#fffd8f" fill-opacity="0.39215687" fill-rule="evenodd" stroke="none"/>
      <path d="M33.3 84.45 L33.6 84.2 33.6 84.15 Q33.5 84.15 33.4 84.3 L33.15 84.45 32.95 84.65 32.85 84.75 33.0 84.6 33.3 84.45" fill="#fffd8f" fill-opacity="0.39215687" fill-rule="evenodd" stroke="none"/>
      <path d="M36.3 85.35 Q36.05 85.7 36.05 86.15 L36.5 86.9 37.3 87.15 38.05 86.75 38.25 85.9 37.85 85.2 37.05 84.95 36.3 85.35" fill="#ffffff" fill-rule="evenodd" stroke="none"/>
      <path d="M18.75 62.3 L18.65 62.35 18.2 62.45 18.6 62.25 19.85 61.9 21.0 61.5 21.4 61.35 21.05 61.5 19.9 61.9 18.75 62.3 M17.45 61.95 L17.7 62.2 17.75 62.2 17.7 62.15 17.85 61.05 18.05 59.85 18.15 59.4 18.1 59.8 18.05 61.0 18.0 62.25 18.1 62.6 19.15 63.2 20.0 63.75 19.15 63.3 18.5 62.95 18.4 62.85 18.15 62.7 18.1 62.7 18.15 62.75 18.2 63.85 18.2 64.9 18.0 64.0 17.85 62.8 17.8 62.8 17.75 62.45 17.6 62.3 17.7 62.35 17.7 62.3 16.85 61.5 15.9 60.65 15.65 60.35 15.95 60.65 16.8 61.4 17.45 61.95 M14.7 64.25 L15.05 64.05 16.1 63.45 17.25 62.85 17.7 62.65 17.3 62.95 16.2 63.45 15.1 64.05 14.7 64.25" fill="#fefd8d" fill-opacity="0.972549" fill-rule="evenodd" stroke="none"/>
      <path d="M18.75 62.3 L19.1 62.2 19.85 62.05 20.6 61.95 19.85 62.15 19.05 62.3 18.75 62.3 M17.45 61.95 L16.95 61.35 16.5 60.75 17.0 61.3 17.55 61.95 17.7 62.15 17.75 62.2 17.7 62.2 17.45 61.95 M18.5 62.95 L19.0 63.35 19.6 63.8 19.8 64.0 19.6 63.85 18.95 63.4 18.3 62.9 18.15 62.75 18.1 62.7 18.15 62.7 18.4 62.85 18.5 62.95 M18.3 61.9 L18.05 62.2 18.1 61.85 18.45 61.15 18.9 60.4 19.1 60.2 18.95 60.4 18.65 61.15 18.3 61.9 M17.55 63.1 L17.75 62.75 17.8 63.1 17.6 63.95 17.25 64.7 17.15 64.95 17.2 64.7 17.4 63.9 Q17.4 63.4 17.55 63.1 M16.9 62.9 L17.2 62.85 Q17.15 62.9 16.85 63.05 L16.15 63.3 15.45 63.55 15.2 63.6 15.45 63.5 16.1 63.25 Q16.6 63.0 16.9 62.9" fill="#fffd8f" fill-opacity="0.4" fill-rule="evenodd" stroke="none"/>
      <path d="M18.6 63.1 L18.15 62.4 17.7 62.45 17.75 62.95 18.3 63.55 Q18.75 63.8 18.8 64.0 L19.0 64.25 18.85 63.95 18.6 63.1" fill="#fffd8f" fill-opacity="0.39215687" fill-rule="evenodd" stroke="none"/>
      <path d="M18.55 62.7 Q18.05 62.4 17.9 62.4 17.7 62.4 17.8 62.5 L18.25 62.8 18.85 63.0 19.35 63.15 19.6 63.2 19.35 63.1 18.55 62.7" fill="#fffd8f" fill-opacity="0.39215687" fill-rule="evenodd" stroke="none"/>
      <path d="M17.3 61.7 Q17.35 62.3 17.55 62.45 L18.0 62.5 18.1 62.0 17.65 61.35 17.25 60.75 17.15 60.5 17.2 60.8 17.3 61.7" fill="#fffd8f" fill-opacity="0.39215687" fill-rule="evenodd" stroke="none"/>
      <path d="M17.25 62.1 L17.9 62.5 17.95 62.45 17.6 62.05 17.05 61.75 16.55 61.5 16.35 61.4 16.55 61.6 Q16.8 61.7 17.25 62.1" fill="#fffd8f" fill-opacity="0.39215687" fill-rule="evenodd" stroke="none"/>
      <path d="M19.05 61.9 L18.4 62.3 18.45 62.4 18.9 62.3 19.5 61.95 19.95 61.6 20.15 61.5 19.85 61.6 19.05 61.9" fill="#fffd8f" fill-opacity="0.39215687" fill-rule="evenodd" stroke="none"/>
      <path d="M16.9 63.3 L17.5 62.85 17.45 62.7 17.05 62.9 16.5 63.35 16.15 63.75 15.95 63.95 16.2 63.75 16.9 63.3" fill="#fffd8f" fill-opacity="0.39215687" fill-rule="evenodd" stroke="none"/>
      <path d="M17.4 62.1 Q17.15 62.35 17.2 62.65 L17.55 63.25 18.1 63.4 18.7 63.1 18.85 62.5 18.55 61.95 17.9 61.75 17.4 62.1" fill="#ffffff" fill-rule="evenodd" stroke="none"/>
      <path d="M33.55 83.9 L33.45 84.15 33.6 84.45 33.85 84.5 34.15 84.4 34.2 84.05 34.1 83.85 33.75 83.75 33.55 83.9" fill="#ffffff" fill-rule="evenodd" stroke="none"/>
    </g>
  </defs>
</svg>
