<?xml version='1.0' encoding='UTF-8'?>
<svg xmlns:xlink="http://www.w3.org/1999/xlink" xmlns="http://www.w3.org/2000/svg" version="1.1" width="60px" height="60px" viewBox="0.0 0.0 60.0 60.0"><defs><g id="c1"><path fill="#847f6e" stroke="none" d="M2.55 0.0 Q2.05 0.2 1.85 0.45 L3.25 0.75 Q3.45 1.95 4.05 3.0 4.5 3.1 4.85 2.8 L5.1 3.65 4.8 4.95 Q4.1 6.2 1.6 3.4 0.55 2.1 0.0 0.25 L2.55 0.0"/><path fill="#c9b38a" stroke="none" d="M2.55 0.0 L3.4 0.05 4.85 0.35 4.75 0.6 Q5.2 2.35 5.1 3.65 L4.85 2.8 Q4.5 3.1 4.05 3.0 3.45 1.95 3.25 0.75 L1.85 0.45 Q2.05 0.2 2.55 0.0 M3.95 1.75 L4.75 0.6 3.95 1.75"/><path fill="none" stroke="#000000" stroke-width="0.5" stroke-opacity="0.298039215686" d="M4.75 0.6 L4.85 0.35 3.4 0.05 2.55 0.0 0.0 0.25 M5.1 3.65 Q5.2 2.35 4.75 0.6 L3.95 1.75 M4.8 4.95 L5.1 3.65"/></g><g id="c2"><g><use transform="matrix(1.0,0.0,0.0,1.0,0.0,0.0)" xlink:href="#c1"/></g></g><g id="c3"><path fill="#777465" stroke="none" d="M7.0 2.8 L6.8 4.55 6.6 3.45 Q0.25 7.2 2.55 3.4 L5.0 2.15 4.8 3.35 6.6 1.5 7.0 2.8"/><path fill="#e9d9bf" stroke="none" d="M3.25 2.3 Q5.05 0.5 6.85 0.0 7.15 1.25 7.0 2.8 L6.6 1.5 4.8 3.35 5.0 2.15 2.55 3.4 3.25 2.3"/><path fill="#605a4c" stroke="none" d="M6.8 4.55 L5.65 8.55 1.35 8.0 Q-0.05 7.55 0.0 6.85 1.1 4.85 2.25 3.45 L3.25 2.3 2.55 3.4 Q0.25 7.2 6.6 3.45 L6.8 4.55"/><path fill="none" stroke="#000000" stroke-width="0.5" stroke-opacity="0.298039215686" d="M6.8 4.55 L5.65 8.55 1.35 8.0 Q-0.05 7.55 0.0 6.85 1.1 4.85 2.25 3.45 L3.25 2.3 Q5.05 0.5 6.85 0.0 7.15 1.25 7.0 2.8 L6.8 4.55"/></g><g id="c4"><path fill="#4f4a37" stroke="none" d="M5.85 8.15 Q4.85 8.25 3.85 7.35 5.2 4.95 6.7 3.55 6.7 5.55 5.85 8.15"/><path fill="none" stroke="#000000" stroke-width="0.5" stroke-opacity="0.298039215686" d="M5.85 8.15 Q4.85 8.25 3.85 7.35 5.2 4.95 6.7 3.55"/></g><g id="c5"><g><use transform="matrix(1.0,0.0,0.0,1.0,0.0,0.0)" xlink:href="#c3"/></g><g><use transform="matrix(1.0,0.0,0.0,1.0,0.0,0.0)" xlink:href="#c4"/></g></g><radialGradient gradientUnits="userSpaceOnUse" r="819.2" cx="0" cy="0" spreadMethod="pad" gradientTransform="matrix(0.0126190185547,0.0,0.0,0.0126190185547,12.7,2.1)" id="gradient1"><stop offset="0.541176470588" stop-color="#8c8876"/><stop offset="1.0" stop-color="#756f5f"/></radialGradient><g id="c6"><path fill="#615b4b" stroke="none" d="M20.95 5.25 Q20.5 8.15 17.55 10.95 13.3 13.25 5.45 11.7 -0.05 10.0 0.0 6.5 0.3 4.6 1.25 3.5 1.2 8.2 6.75 10.35 12.45 12.25 17.05 10.25 19.75 8.85 20.95 5.25"/><path stroke="none" fill="url(#gradient1)" d="M1.25 3.5 L1.65 3.05 Q8.85 0.25 16.1 0.0 19.0 0.0 20.45 1.15 21.3 3.2 20.95 5.25 19.75 8.85 17.05 10.25 12.45 12.25 6.75 10.35 1.2 8.2 1.25 3.5"/><path fill="none" stroke="#000000" stroke-width="0.5" stroke-opacity="0.298039215686" d="M1.25 3.5 L1.65 3.05 Q8.85 0.25 16.1 0.0 19.0 0.0 20.45 1.15 21.3 3.2 20.95 5.25 20.5 8.15 17.55 10.95 13.3 13.25 5.45 11.7 -0.05 10.0 0.0 6.5 0.3 4.6 1.25 3.5"/></g><g id="c7"><path fill="#66614e" stroke="none" d="M16.5 9.4 L17.6 8.5 Q17.55 9.3 16.95 10.05 L16.5 10.1 15.45 9.9 16.5 9.4"/><path fill="none" stroke="#000000" stroke-width="0.5" stroke-opacity="0.298039215686" d="M16.5 9.4 L17.6 8.5"/></g><g id="c8"><g><use transform="matrix(1.0,0.0,0.0,1.0,0.0,0.0)" xlink:href="#c6"/></g><g><use transform="matrix(1.0,0.0,0.0,1.0,0.0,0.0)" xlink:href="#c7"/></g></g><radialGradient gradientUnits="userSpaceOnUse" r="819.2" cx="0" cy="0" spreadMethod="pad" gradientTransform="matrix(0.0127868652344,0.0,0.0,0.0126190185547,11.2,7.8)" id="gradient2"><stop offset="0.447058823529" stop-color="#8c8876"/><stop offset="1.0" stop-color="#756f5f"/></radialGradient><g id="c9"><path stroke="none" fill="url(#gradient2)" d="M0.0 6.65 Q0.25 4.15 2.3 2.4 4.55 0.45 7.6 0.45 10.7 0.45 12.85 2.4 L12.95 2.45 Q14.95 4.4 14.9 7.1 14.85 9.0 13.75 10.55 L12.6 11.8 12.0 12.25 Q9.95 13.75 7.25 13.75 4.2 13.75 2.05 11.8 -0.1 9.85 0.0 7.1 L0.0 6.65"/><path fill="none" stroke="#000000" stroke-width="0.5" stroke-opacity="0.298039215686" d="M0.0 6.65 Q0.25 4.15 2.3 2.4 4.55 0.45 7.6 0.45 10.7 0.45 12.85 2.4 L12.95 2.45"/></g><g id="c10"><path fill="#7e7968" stroke="none" d="M6.5 0.6 Q8.35 -0.1 10.45 0.05 L9.65 0.8 6.5 0.6"/><path fill="none" stroke="#000000" stroke-width="0.5" stroke-opacity="0.298039215686" d="M6.5 0.6 Q8.35 -0.1 10.45 0.05 L9.65 0.8"/></g><g id="c11"><g><use transform="matrix(1.0,0.0,0.0,1.0,0.0,0.0)" xlink:href="#c9"/></g><g><use transform="matrix(1.0,0.0,0.0,1.0,0.0,0.0)" xlink:href="#c10"/></g></g><g id="c12"><path fill="#eee2d2" stroke="none" d="M0.05 4.55 L0.05 4.9 Q0.0 6.75 0.8 5.65 1.2 4.7 1.65 4.5 2.25 3.9 1.85 2.15 L1.4 0.8 1.8 2.6 1.3 4.25 Q0.5 5.95 0.2 5.75 0.05 5.75 0.05 4.55"/><path fill="#b5a895" stroke="none" d="M1.4 0.8 L0.8 0.2 Q0.2 1.9 0.05 4.55 0.05 5.75 0.2 5.75 0.5 5.95 1.3 4.25 L1.8 2.6 1.4 0.8"/></g><g id="c13"><path fill="#2d2c1a" stroke="none" d="M1.5 2.65 Q1.15 1.45 0.65 1.5 0.0 2.65 0.2 5.5 0.75 3.6 1.5 2.65"/><path fill="none" stroke="#000000" stroke-width="0.5" stroke-opacity="0.298039215686" d="M1.5 2.65 Q1.15 1.45 0.65 1.5 0.0 2.65 0.2 5.5 0.75 3.6 1.5 2.65"/></g><g id="c14"><path fill="#fbfbf9" stroke="none" d="M1.15 2.5 Q0.95 1.95 0.6 2.1 0.2 3.1 0.25 4.65 0.65 3.35 1.15 2.5"/><path fill="none" stroke="#000000" stroke-width="0.5" stroke-opacity="0.298039215686" d="M1.15 2.5 Q0.95 1.95 0.6 2.1 0.2 3.1 0.25 4.65 0.65 3.35 1.15 2.5"/></g><g id="c15"><path fill="#2d2c1a" stroke="none" d="M0.3 4.9 L0.35 4.95 0.45 4.65 0.4 4.15 0.35 3.8 0.2 3.75 0.2 4.0 0.2 4.5 0.3 4.9"/></g><g id="c16"><path fill="#2d2c1a" stroke="none" d="M0.8 0.0 Q0.1 1.5 0.0 4.8 L0.8 0.0"/><path fill="none" stroke="#000000" stroke-width="0.5" stroke-opacity="0.298039215686" d="M0.8 0.0 Q0.1 1.5 0.0 4.8 L0.8 0.0"/></g><g id="c17"><path fill="none" stroke="#000000" stroke-width="0.5" stroke-opacity="0.298039215686" d="M0.95 4.25 L0.2 5.5"/></g><g id="c18"><g><use transform="matrix(1.0,0.0,0.0,1.0,0.0,0.0)" xlink:href="#c12"/></g><g><use transform="matrix(1.0,0.0,0.0,1.0,0.0,0.0)" xlink:href="#c13"/></g><g><use transform="matrix(1.0,0.0,0.0,1.0,0.0,0.0)" xlink:href="#c14"/></g><g><use transform="matrix(1.0,0.0,0.0,1.0,0.0,0.0)" xlink:href="#c15"/></g><g><use transform="matrix(1.0,0.0,0.0,1.0,0.0,0.0)" xlink:href="#c16"/></g><g><use transform="matrix(1.0,0.0,0.0,1.0,0.0,0.0)" xlink:href="#c17"/></g></g><g id="c19"><path fill="#67624f" stroke="none" d="M3.55 3.8 Q2.15 2.2 0.0 1.6 1.4 0.5 2.8 0.8 3.9 2.0 3.55 3.8"/></g><g id="c20"><path fill="#4b3025" stroke="none" d="M10.25 2.0 Q8.9 4.55 5.0 4.95 3.35 4.0 2.7 1.8 L6.55 0.95 Q7.0 2.1 7.75 3.0 L10.25 2.0"/><path fill="none" stroke="#000000" stroke-width="0.5" stroke-opacity="0.298039215686" d="M10.25 2.0 Q8.9 4.55 5.0 4.95 3.35 4.0 2.7 1.8 L6.55 0.95 Q7.0 2.1 7.75 3.0 L10.25 2.0"/></g><g id="c21"><path fill="#e7dfca" stroke="none" d="M10.0 2.4 L7.7 3.15 Q7.0 2.65 6.55 1.15 L6.55 0.7 Q7.25 2.3 7.85 2.75 10.15 1.2 11.1 1.3 L10.0 2.4"/><path fill="none" stroke="#000000" stroke-width="0.5" stroke-opacity="0.298039215686" d="M11.1 1.3 Q10.15 1.2 7.85 2.75 7.25 2.3 6.55 0.7 L6.55 1.15 Q7.0 2.65 7.7 3.15 L10.0 2.4"/></g><g id="c22"><path fill="#a59e94" stroke="none" d="M3.4 2.1 Q4.95 2.15 6.9 3.45 6.45 4.1 5.65 4.25 L5.65 3.7 5.1 4.25 4.6 3.2 4.35 3.75 Q4.05 3.6 3.9 2.9 L3.4 2.1"/><path fill="none" stroke="#000000" stroke-width="0.5" stroke-opacity="0.298039215686" d="M3.4 2.1 Q4.95 2.15 6.9 3.45 6.45 4.1 5.65 4.25 L5.65 3.7 5.1 4.25 4.6 3.2 4.35 3.75 Q4.05 3.6 3.9 2.9 L3.4 2.1"/></g><g id="c23"><path fill="#eee2d2" stroke="none" d="M5.15 0.8 L5.35 0.75 Q6.75 0.15 7.7 0.35 8.35 1.1 8.0 2.7 7.45 4.05 5.35 3.45 4.7 3.25 4.25 2.9 L3.35 2.1 Q4.2 1.25 5.15 0.8"/><path fill="none" stroke="#000000" stroke-width="0.5" stroke-opacity="0.298039215686" d="M5.15 0.8 L5.35 0.75 Q6.75 0.15 7.7 0.35 8.35 1.1 8.0 2.7 7.45 4.05 5.35 3.45 4.7 3.25 4.25 2.9 L3.35 2.1"/></g><g id="c24"><path fill="#2d2c1a" stroke="none" d="M7.8 1.3 L6.2 1.1 Q6.9 0.1 8.2 0.0 8.4 0.65 7.8 1.3"/><path fill="none" stroke="#000000" stroke-width="0.5" stroke-opacity="0.298039215686" d="M7.8 1.3 L6.2 1.1 Q6.9 0.1 8.2 0.0 8.4 0.65 7.8 1.3"/></g><g id="c25"><path fill="#d1cebf" stroke="none" d="M7.85 0.5 L7.6 0.65 7.3 0.65 7.15 0.55 7.25 0.35 7.5 0.2 7.8 0.2 7.95 0.3 7.85 0.5"/></g><g id="c26"><path fill="#ffffff" fill-opacity="0.298039215686" d="M3.7 2.2 L1.85 1.85 Q2.6 1.25 4.85 1.1 4.55 1.8 3.7 2.2"/><path fill="none" stroke="#000000" stroke-width="0.5" stroke-opacity="0.298039215686" d="M3.7 2.2 L1.85 1.85 Q2.6 1.25 4.85 1.1 4.55 1.8 3.7 2.2"/></g><g id="c27"><path fill="#e7dfca" stroke="none" d="M2.5 1.8 L2.9 1.8 Q3.4 3.6 5.0 4.7 8.15 4.45 9.55 2.55 10.2 1.65 11.1 1.3 11.05 2.2 9.95 3.35 7.55 5.25 4.9 5.1 3.1 4.0 2.5 1.8"/><path fill="none" stroke="#000000" stroke-width="0.5" stroke-opacity="0.298039215686" d="M2.5 1.8 L2.9 1.8 Q3.4 3.6 5.0 4.7 8.15 4.45 9.55 2.55 M11.1 1.3 Q11.05 2.2 9.95 3.35"/></g><g id="c28"><path fill="#2d2c1a" stroke="none" d="M3.8 2.35 L1.85 1.9 3.95 2.1 3.8 2.35"/><path fill="none" stroke="#000000" stroke-width="0.5" stroke-opacity="0.298039215686" d="M3.8 2.35 L1.85 1.9 3.95 2.1 3.8 2.35"/></g><g id="c29"><path fill="none" stroke="#000000" stroke-width="0.5" stroke-opacity="0.298039215686" d="M7.9 1.7 L7.9 2.65"/></g><g id="c30"><path fill="#a5a08f" stroke="none" d="M5.2 5.1 L5.25 5.05 6.4 5.05 6.45 5.1 6.5 6.0 6.05 6.9 Q5.7 7.25 5.35 7.25 4.95 7.25 4.8 6.9 4.6 6.5 4.75 6.0 4.85 5.5 5.2 5.1"/></g><g id="c31"><path fill="#a5a08f" stroke="none" d="M8.35 4.1 Q8.6 4.0 8.95 3.85 L9.0 3.9 9.05 4.3 8.9 4.7 8.65 4.85 Q8.45 4.85 8.35 4.7 L8.3 4.3 8.35 4.1"/></g><g id="c32"><path fill="#f0eade" stroke="none" d="M5.8 6.6 L5.8 6.4 5.9 6.2 Q5.95 6.1 6.05 6.1 L6.15 6.2 6.15 6.4 6.05 6.6 5.9 6.7 5.8 6.6"/></g><g id="c33"><path fill="#fbf7f6" stroke="none" d="M6.2 3.55 L5.25 3.45 5.25 3.4 5.2 3.05 Q5.3 2.9 5.55 2.9 L6.0 3.05 6.15 3.2 6.2 2.8 Q6.3 2.6 6.5 2.6 L6.75 2.8 6.95 3.25 6.9 3.6 6.2 3.6 6.2 3.55"/><path fill="none" stroke="#000000" stroke-width="0.5" stroke-opacity="0.298039215686" d="M6.2 3.6 L6.2 3.55"/></g><g id="c34"><path fill="#2d2c1a" stroke="none" d="M6.2 3.4 Q7.65 3.6 8.25 2.7 7.85 3.9 6.1 3.75 4.8 3.45 3.8 2.35 3.7 2.0 3.95 2.1 5.05 3.2 6.2 3.4"/><path fill="none" stroke="#000000" stroke-width="0.5" stroke-opacity="0.298039215686" d="M6.2 3.4 Q7.65 3.6 8.25 2.7 7.85 3.9 6.1 3.75 4.8 3.45 3.8 2.35 3.7 2.0 3.95 2.1 5.05 3.2 6.2 3.4"/></g><g id="c35"><g><use transform="matrix(1.0,0.0,0.0,1.0,0.0,0.0)" xlink:href="#c19"/></g><g><use transform="matrix(1.0,0.0,0.0,1.0,0.0,0.0)" xlink:href="#c20"/></g><g><use transform="matrix(1.0,0.0,0.0,1.0,0.0,0.0)" xlink:href="#c21"/></g><g><use transform="matrix(1.0,0.0,0.0,1.0,0.0,0.0)" xlink:href="#c22"/></g><g><use transform="matrix(1.0,0.0,0.0,1.0,0.0,0.0)" xlink:href="#c23"/></g><g><use transform="matrix(1.0,0.0,0.0,1.0,0.0,0.0)" xlink:href="#c24"/></g><g><use transform="matrix(1.0,0.0,0.0,1.0,0.0,0.0)" xlink:href="#c25"/></g><g><use transform="matrix(1.0,0.0,0.0,1.0,0.0,0.0)" xlink:href="#c26"/></g><g><use transform="matrix(1.0,0.0,0.0,1.0,0.0,0.0)" xlink:href="#c27"/></g><g><use transform="matrix(1.0,0.0,0.0,1.0,0.0,0.0)" xlink:href="#c28"/></g><g><use transform="matrix(1.0,0.0,0.0,1.0,0.0,0.0)" xlink:href="#c29"/></g><g><use transform="matrix(1.0,0.0,0.0,1.0,0.0,0.0)" xlink:href="#c30"/></g><g><use transform="matrix(1.0,0.0,0.0,1.0,0.0,0.0)" xlink:href="#c31"/></g><g><use transform="matrix(1.0,0.0,0.0,1.0,0.0,0.0)" xlink:href="#c32"/></g><g><use transform="matrix(1.0,0.0,0.0,1.0,0.0,0.0)" xlink:href="#c33"/></g><g><use transform="matrix(1.0,0.0,0.0,1.0,0.0,0.0)" xlink:href="#c34"/></g></g><g id="c36"><path fill="#ceab85" stroke="none" d="M2.2 4.05 Q3.05 3.65 3.2 4.4 L1.8 8.1 Q1.55 6.15 2.2 4.05"/></g><g id="c37"><path fill="#d9b79e" stroke="none" d="M3.7 1.7 L3.15 1.25 Q3.55 0.4 4.5 0.0 L3.8 1.65 3.7 1.7"/></g><g id="c38"><path fill="#eee2d2" stroke="none" d="M6.35 2.95 L6.6 3.2 Q7.3 4.4 4.5 4.25 L1.45 4.15 Q-0.75 4.25 -0.25 2.75 L0.7 1.45 Q0.0 2.4 0.25 2.95 0.4 3.5 2.25 3.75 L6.5 3.85 Q6.85 3.75 6.35 2.95"/><path fill="#b5a895" stroke="none" d="M0.7 1.45 Q1.45 0.8 2.4 0.6 4.75 1.3 6.35 2.95 6.85 3.75 6.5 3.85 L2.25 3.75 Q0.4 3.5 0.25 2.95 0.0 2.4 0.7 1.45"/></g><g id="c39"><path fill="#2d2c1a" stroke="none" d="M1.5 3.2 Q2.25 2.1 3.7 1.75 6.15 2.05 6.65 4.1 4.15 3.25 1.5 3.2"/><path fill="none" stroke="#000000" stroke-width="0.5" stroke-opacity="0.298039215686" d="M1.5 3.2 Q2.25 2.1 3.7 1.75 6.15 2.05 6.65 4.1 4.15 3.25 1.5 3.2"/></g><g id="c40"><path fill="#fbfbf9" stroke="none" d="M2.2 2.65 Q2.7 2.1 3.75 1.95 5.45 2.2 5.9 3.4 L2.2 2.65"/><path fill="none" stroke="#000000" stroke-width="0.5" stroke-opacity="0.298039215686" d="M2.2 2.65 Q2.7 2.1 3.75 1.95 5.45 2.2 5.9 3.4 L2.2 2.65"/></g><g id="c41"><path fill="#2d2c1a" stroke="none" d="M5.75 3.4 L5.5 3.5 5.25 3.35 5.1 3.0 5.2 2.65 Q5.3 2.55 5.45 2.55 5.6 2.55 5.7 2.7 L5.85 3.05 5.75 3.4"/></g><g id="c42"><path fill="#2d2c1a" stroke="none" d="M2.7 0.85 Q5.4 1.35 7.0 3.5 L2.7 0.85"/><path fill="none" stroke="#000000" stroke-width="0.5" stroke-opacity="0.298039215686" d="M2.7 0.85 Q5.4 1.35 7.0 3.5 L2.7 0.85"/></g><g id="c43"><path fill="none" stroke="#000000" stroke-width="0.5" stroke-opacity="0.298039215686" d="M3.85 3.85 L6.65 4.1"/></g><g id="c44"><g><use transform="matrix(1.0,0.0,0.0,1.0,0.0,0.0)" xlink:href="#c36"/></g><g><use transform="matrix(1.0,0.0,0.0,1.0,0.0,0.0)" xlink:href="#c37"/></g><g><use transform="matrix(1.0,0.0,0.0,1.0,0.0,0.0)" xlink:href="#c38"/></g><g><use transform="matrix(1.0,0.0,0.0,1.0,0.0,0.0)" xlink:href="#c39"/></g><g><use transform="matrix(1.0,0.0,0.0,1.0,0.0,0.0)" xlink:href="#c40"/></g><g><use transform="matrix(1.0,0.0,0.0,1.0,0.0,0.0)" xlink:href="#c41"/></g><g><use transform="matrix(1.0,0.0,0.0,1.0,0.0,0.0)" xlink:href="#c42"/></g><g><use transform="matrix(1.0,0.0,0.0,1.0,0.0,0.0)" xlink:href="#c43"/></g></g><g id="c45"><path fill="#615b4b" stroke="none" d="M4.6 6.05 L6.4 6.05 Q5.95 6.85 5.15 7.05 L4.3 6.25 4.6 6.05"/><path fill="#c9b38a" stroke="none" d="M3.3 1.6 L4.4 1.35 3.75 2.65 6.25 3.3 Q5.65 5.1 4.6 6.05 3.15 5.85 1.7 5.15 L0.35 5.3 0.0 5.3 1.25 3.6 3.3 1.6 M2.45 5.0 L1.7 5.15 2.45 5.0"/><path fill="#a08c69" stroke="none" d="M0.35 5.3 L1.7 5.15 Q3.15 5.85 4.6 6.05 L4.3 6.25 5.15 7.05 4.05 7.15 Q3.05 7.0 2.0 6.4 L0.35 5.3"/><path fill="#767060" stroke="none" d="M4.6 6.05 Q5.65 5.1 6.25 3.3 L3.75 2.65 4.4 1.35 3.3 1.6 5.3 0.0 Q6.6 1.55 6.85 3.35 6.9 5.1 6.4 6.05 L4.6 6.05"/><path fill="none" stroke="#000000" stroke-width="0.5" stroke-opacity="0.298039215686" d="M5.3 0.0 L3.3 1.6 1.25 3.6 0.0 5.3 0.35 5.3 1.7 5.15 2.45 5.0 M4.05 7.15 Q3.05 7.0 2.0 6.4 L0.35 5.3"/></g><g id="c46"><g><use transform="matrix(1.0,0.0,0.0,1.0,0.0,0.0)" xlink:href="#c45"/></g></g><g id="c47"><path fill="#5d5749" stroke="none" d="M5.6 0.0 Q6.75 -0.05 6.95 0.85 7.15 1.8 6.3 3.1 5.45 4.4 4.0 5.35 2.55 6.3 1.4 6.35 0.25 6.35 0.05 5.45 -0.2 4.55 0.7 3.25 1.55 1.95 3.0 1.0 4.4 0.05 5.6 0.0"/></g><g id="c48"><g><use transform="matrix(1.0,0.0,0.0,1.0,0.0,0.0)" xlink:href="#c47"/></g></g><g id="c49"><path fill="#757263" stroke="none" d="M0.0 8.7 Q0.0 7.25 0.15 6.0 L0.85 4.55 1.0 4.4 1.9 2.95 1.75 3.8 3.05 2.0 3.35 2.2 4.55 3.1 5.1 3.65 5.6 5.15 Q5.5 6.0 4.8 5.95 4.05 4.45 2.9 3.65 2.2 4.4 2.0 8.15 1.25 10.9 0.0 8.7"/><path fill="#5d5749" stroke="none" d="M5.6 5.15 L5.95 6.65 Q6.1 7.75 1.85 11.25 L0.05 11.15 0.0 8.7 Q1.25 10.9 2.0 8.15 2.2 4.4 2.9 3.65 4.05 4.45 4.8 5.95 5.5 6.0 5.6 5.15"/><path fill="#e8dcc2" stroke="none" d="M0.15 6.0 Q0.65 1.95 2.5 0.0 4.1 1.2 5.1 3.65 L4.55 3.1 3.35 2.2 3.05 2.0 1.75 3.8 1.9 2.95 1.0 4.4 0.85 4.55 0.15 6.0"/><path fill="none" stroke="#000000" stroke-width="0.5" stroke-opacity="0.298039215686" d="M5.6 5.15 L5.95 6.65 M1.85 11.25 L0.05 11.15 0.0 8.7 Q0.0 7.25 0.15 6.0 0.65 1.95 2.5 0.0 4.1 1.2 5.1 3.65 L5.6 5.15"/></g><g id="c50"><path fill="#453f2f" stroke="none" d="M3.2 4.2 Q4.15 4.8 5.0 7.25 4.4 8.6 3.3 9.5 2.4 7.6 3.2 4.2"/><path fill="none" stroke="#000000" stroke-width="0.5" stroke-opacity="0.298039215686" d="M5.0 7.25 Q4.4 8.6 3.3 9.5 2.4 7.6 3.2 4.2"/></g><g id="c51"><g><use transform="matrix(1.0,0.0,0.0,1.0,0.0,0.0)" xlink:href="#c49"/></g><g><use transform="matrix(1.0,0.0,0.0,1.0,0.0,0.0)" xlink:href="#c50"/></g></g><radialGradient gradientUnits="userSpaceOnUse" r="819.2" cx="0" cy="0" spreadMethod="pad" gradientTransform="matrix(0.0196990966797,0.0,-0.00018310546875,0.00997924804688,15.9,8.05)" id="gradient3"><stop offset="0.729411764706" stop-opacity="0.298039215686"/><stop offset="1.0" stop-opacity="0.0"/></radialGradient><g id="c52"><path stroke="none" fill="url(#gradient3)" d="M4.75 2.35 Q9.45 0.0 16.05 0.0 22.65 0.0 27.25 2.35 31.85 4.7 31.8 8.05 31.75 11.4 27.05 13.75 22.35 16.1 15.75 16.1 9.15 16.1 4.55 13.75 -0.05 11.4 0.0 8.05 0.05 4.7 4.75 2.35"/></g><g id="c53"><path fill="#927c64" stroke="none" d="M7.1 10.9 Q6.0 4.25 10.2 0.6 10.6 3.55 11.75 5.2 12.85 4.3 14.3 3.95 14.2 6.15 14.65 8.4 11.45 13.8 7.1 10.9"/><path fill="none" stroke="#000000" stroke-width="0.5" stroke-opacity="0.298039215686" d="M7.1 10.9 Q6.0 4.25 10.2 0.6 10.6 3.55 11.75 5.2 12.85 4.3 14.3 3.95 14.2 6.15 14.65 8.4"/><path fill="#7b6951" stroke="none" d="M3.85 5.05 Q3.25 7.55 3.85 8.6 5.3 6.1 7.9 4.55 10.0 6.25 10.2 7.35 L10.25 7.8 10.5 9.7 Q9.95 10.95 9.05 11.8 7.0 13.95 3.4 13.9 0.25 12.4 0.0 7.9 L2.5 9.2 Q2.95 6.85 3.85 5.05"/><path fill="#ae9479" stroke="none" d="M10.2 7.35 Q10.0 6.25 7.9 4.55 5.3 6.1 3.85 8.6 3.25 7.55 3.85 5.05 5.95 0.65 10.5 0.0 10.25 1.7 10.15 3.3 10.05 5.4 10.2 7.35"/><path fill="none" stroke="#000000" stroke-width="0.5" stroke-opacity="0.298039215686" d="M10.15 3.3 Q10.25 1.7 10.5 0.0 5.95 0.65 3.85 5.05 2.95 6.85 2.5 9.2 L0.0 7.9 Q0.25 12.4 3.4 13.9"/></g><g id="c54"><path fill="#2b271c" stroke="none" d="M16.95 4.6 Q18.1 4.1 19.1 4.35 L17.6 8.5 Q18.15 11.9 15.95 14.75 L15.45 15.2 Q9.8 20.0 5.2 15.85 L4.75 15.4 3.85 15.8 Q3.35 15.75 2.95 15.5 3.4 14.95 3.35 14.1 L2.55 14.65 Q2.25 13.5 2.5 11.95 L3.5 10.05 5.8 10.2 Q5.0 11.2 5.25 12.3 L7.05 12.05 Q9.65 12.45 9.95 10.85 L10.0 9.55 11.7 9.9 Q13.0 8.05 13.4 5.65 L14.0 7.6 Q15.35 6.9 16.95 4.6"/><path fill="#3e382a" stroke="none" d="M3.5 10.05 Q4.65 8.4 6.6 6.85 9.8 4.35 13.25 3.9 15.0 3.75 16.95 4.6 15.35 6.9 14.0 7.6 L13.4 5.65 Q13.0 8.05 11.7 9.9 L10.0 9.55 9.95 10.85 Q9.65 12.45 7.05 12.05 L5.25 12.3 Q5.0 11.2 5.8 10.2 L3.5 10.05"/><path fill="#8b7f67" stroke="none" d="M3.85 15.8 L2.5 16.5 Q2.0 15.45 2.05 14.15 2.1 13.15 2.5 12.0 L2.5 11.95 Q2.25 13.5 2.55 14.65 L3.35 14.1 Q3.4 14.95 2.95 15.5 3.35 15.75 3.85 15.8"/><path fill="none" stroke="#000000" stroke-width="0.5" stroke-opacity="0.298039215686" d="M16.95 4.6 Q18.1 4.1 19.1 4.35 L17.6 8.5 Q18.15 11.9 15.95 14.75 L15.45 15.2 Q9.8 20.0 5.2 15.85 L4.75 15.4 3.85 15.8 2.5 16.5 Q2.0 15.45 2.05 14.15 2.1 13.15 2.5 12.0"/><path fill="#3e382a" stroke="none" d="M4.85 6.4 L6.05 6.65 7.1 6.9 Q7.6 9.5 5.45 10.9 L2.4 10.65 Q2.35 9.55 3.85 8.4 L1.6 7.6 Q2.9 6.65 4.85 6.4"/><path fill="#d1c3a6" stroke="none" d="M0.55 7.3 Q2.35 6.15 4.85 6.4 2.9 6.65 1.6 7.6 L0.55 7.3"/><path fill="#91856f" stroke="none" d="M1.2 7.95 L0.35 7.45 0.55 7.3 1.6 7.6 1.2 7.95 M0.55 11.5 L0.0 11.4 Q0.3 10.35 1.75 9.4 0.85 10.6 0.55 11.5"/><path fill="#2b271c" stroke="none" d="M5.45 10.9 Q4.35 11.6 2.55 12.0 L0.55 11.5 Q0.85 10.6 1.75 9.4 L2.75 8.85 1.2 7.95 1.6 7.6 3.85 8.4 Q2.35 9.55 2.4 10.65 L5.45 10.9"/><path fill="none" stroke="#000000" stroke-width="0.5" stroke-opacity="0.298039215686" d="M1.2 7.95 L0.35 7.45 0.55 7.3 Q2.35 6.15 4.85 6.4 L6.05 6.65 7.1 6.9 M2.55 12.0 L0.55 11.5 0.0 11.4 Q0.3 10.35 1.75 9.4 L2.75 8.85 1.2 7.95"/><path fill="#3e382a" stroke="none" d="M9.0 2.65 L9.65 1.95 9.9 2.85 Q10.45 2.05 9.9 1.05 11.5 1.35 12.8 2.5 L13.55 3.95 Q12.15 8.95 8.75 8.4 8.4 6.6 8.7 4.4 L9.0 2.65"/><path fill="#d1c3a6" stroke="none" d="M12.8 2.5 Q11.5 1.35 9.9 1.05 10.45 2.05 9.9 2.85 L9.65 1.95 9.0 2.65 8.95 1.2 9.15 0.0 Q11.35 0.35 12.8 2.5"/><path fill="#91856f" stroke="none" d="M8.95 1.2 L9.0 2.65 8.25 3.2 7.95 3.4 8.95 1.2"/><path fill="#2b271c" stroke="none" d="M9.0 2.65 L8.7 4.4 Q8.4 6.6 8.75 8.4 L7.15 7.9 Q5.95 6.4 7.8 3.7 L7.95 3.4 8.25 3.2 9.0 2.65"/><path fill="none" stroke="#000000" stroke-width="0.5" stroke-opacity="0.298039215686" d="M12.8 2.5 Q11.35 0.35 9.15 0.0 L8.95 1.2 7.95 3.4 7.8 3.7 Q5.95 6.4 7.15 7.9 M13.55 3.95 L12.8 2.5"/><path fill="#3e382a" stroke="none" d="M13.3 3.85 Q14.3 1.5 17.65 1.25 L17.0 4.5 16.95 4.5 Q14.65 6.85 13.3 3.85"/><path fill="none" stroke="#000000" stroke-width="0.5" stroke-opacity="0.298039215686" d="M13.3 3.85 Q14.3 1.5 17.65 1.25 L17.0 4.5 16.95 4.5"/></g><g id="c55"><path fill="#2b271c" stroke="none" d="M7.65 0.0 L8.85 0.1 Q9.3 0.9 9.35 1.75 L5.1 1.55 7.25 4.25 4.6 4.2 5.65 7.0 Q4.2 6.4 2.7 6.35 L2.15 6.4 2.3 6.75 2.75 7.9 3.1 8.7 4.35 10.9 1.05 10.5 0.0 8.95 Q0.15 6.7 0.7 5.0 1.4 2.95 2.7 1.75 4.55 0.15 7.65 0.0"/><path fill="#544331" stroke="none" d="M1.05 10.5 L4.35 10.9 3.1 8.7 2.75 7.9 2.3 6.75 2.15 6.4 2.7 6.35 Q4.2 6.4 5.65 7.0 L4.6 4.2 7.25 4.25 5.1 1.55 9.35 1.75 Q9.3 0.9 8.85 0.1 11.7 0.45 14.4 2.55 12.65 1.85 11.25 2.0 L11.6 4.1 9.85 3.9 11.5 6.35 8.1 6.5 9.5 9.25 6.5 9.55 Q7.5 10.75 10.25 12.0 8.55 13.0 6.0 12.6 6.9 13.45 8.2 14.0 3.8 14.1 1.05 10.5"/><path fill="#29251a" stroke="none" d="M14.4 2.55 L14.95 3.0 Q16.75 4.55 18.5 7.0 19.5 9.6 17.3 11.0 12.1 13.95 8.2 14.0 6.9 13.45 6.0 12.6 8.55 13.0 10.25 12.0 7.5 10.75 6.5 9.55 L9.5 9.25 8.1 6.5 11.5 6.35 9.85 3.9 11.6 4.1 11.25 2.0 Q12.65 1.85 14.4 2.55"/><path fill="none" stroke="#000000" stroke-width="0.5" stroke-opacity="0.298039215686" d="M8.85 0.1 L7.65 0.0 M0.0 8.95 L1.05 10.5 M8.85 0.1 Q11.7 0.45 14.4 2.55 L14.95 3.0 Q16.75 4.55 18.5 7.0 19.5 9.6 17.3 11.0 12.1 13.95 8.2 14.0 3.8 14.1 1.05 10.5"/><path fill="none" stroke="#000000" stroke-width="0.5" stroke-opacity="0.298039215686" d="M0.8 5.25 L1.0 7.4"/><path fill="none" stroke="#000000" stroke-width="0.5" stroke-opacity="0.298039215686" d="M1.75 4.4 L1.4 5.65"/></g><g id="c56"><path fill="#393323" stroke="none" d="M10.95 3.05 Q12.2 7.85 7.95 9.85 0.7 10.6 0.0 3.85 -0.15 1.9 2.05 0.55 7.95 -1.3 10.95 3.05"/><path fill="none" stroke="#000000" stroke-width="0.5" stroke-opacity="0.298039215686" d="M10.95 3.05 Q12.2 7.85 7.95 9.85 0.7 10.6 0.0 3.85 -0.15 1.9 2.05 0.55 7.95 -1.3 10.95 3.05"/></g><radialGradient gradientUnits="userSpaceOnUse" r="819.2" cx="0" cy="0" spreadMethod="pad" gradientTransform="matrix(0.0115966796875,0.0,0.0,0.0115966796875,3.5,5.05)" id="gradient4"><stop offset="0.56862745098" stop-color="#393323"/><stop offset="1.0" stop-color="#5c5744"/></radialGradient><g id="c57"><path fill="#393323" stroke="none" d="M4.75 12.0 Q-0.2 10.35 0.0 6.9 1.3 2.65 3.2 1.75 6.2 0.65 9.0 5.1 11.7 12.75 4.75 12.0"/><path fill="none" stroke="#000000" stroke-width="0.5" stroke-opacity="0.298039215686" d="M4.75 12.0 Q-0.2 10.35 0.0 6.9 M3.2 1.75 Q6.2 0.65 9.0 5.1"/><path fill="#605b48" stroke="none" d="M5.7 0.0 Q8.15 -0.15 10.35 2.7 13.8 9.1 10.65 11.5 L10.45 11.65 Q11.55 9.0 10.8 6.45 L10.6 5.85 Q9.45 2.85 5.7 0.0"/><path stroke="none" fill="url(#gradient4)" d="M1.2 6.3 Q0.65 2.4 2.85 1.1 4.3 0.1 5.7 0.0 9.45 2.85 10.6 5.85 L10.8 6.45 Q11.55 9.0 10.45 11.65 5.55 13.9 3.05 10.6 1.95 9.15 1.25 6.6 L1.2 6.3"/><path fill="none" stroke="#000000" stroke-width="0.5" stroke-opacity="0.298039215686" d="M1.2 6.3 Q0.65 2.4 2.85 1.1 4.3 0.1 5.7 0.0 8.15 -0.15 10.35 2.7 13.8 9.1 10.65 11.5 L10.45 11.65 Q5.55 13.9 3.05 10.6"/></g><g id="c58"><path fill="#943924" stroke="none" d="M9.0 6.7 Q8.6 4.0 3.6 1.0 L2.5 0.35 2.65 0.3 4.0 0.0 Q9.7 1.35 9.2 6.1 L9.0 6.7"/><path fill="#6e2618" stroke="none" d="M2.5 0.35 L3.6 1.0 Q8.6 4.0 9.0 6.7 L8.8 7.05 Q7.45 9.5 4.45 9.35 -0.75 6.95 0.1 3.3 0.7 1.05 2.5 0.35"/><path fill="none" stroke="#000000" stroke-width="0.5" stroke-opacity="0.298039215686" d="M9.0 6.7 L9.2 6.1 Q9.7 1.35 4.0 0.0 L2.65 0.3 2.5 0.35 Q0.7 1.05 0.1 3.3 -0.75 6.95 4.45 9.35 7.45 9.5 8.8 7.05 L9.0 6.7"/></g><radialGradient gradientUnits="userSpaceOnUse" r="819.2" cx="0" cy="0" spreadMethod="pad" gradientTransform="matrix(0.00794982910156,-0.0118713378906,0.0118713378906,0.00794982910156,5.0,9.0)" id="gradient5"><stop offset="0.341176470588" stop-color="#ba7f6d"/><stop offset="1.0" stop-color="#cec0a5"/></radialGradient><radialGradient gradientUnits="userSpaceOnUse" r="819.2" cx="0" cy="0" spreadMethod="pad" gradientTransform="matrix(0.00596618652344,-0.00889587402344,0.0105133056641,0.00704956054688,25.75,10.35)" id="gradient7"><stop offset="0.521568627451" stop-color="#b5ba91"/><stop offset="1.0" stop-color="#727152"/></radialGradient><radialGradient gradientUnits="userSpaceOnUse" r="819.2" cx="0" cy="0" spreadMethod="pad" gradientTransform="matrix(0.00596618652344,-0.00889587402344,0.0105133056641,0.00704956054688,25.95,10.3)" id="gradient8"><stop offset="0.521568627451" stop-color="#b5ba91"/><stop offset="1.0" stop-color="#727152"/></radialGradient><g id="c59"><path fill="#898265" stroke="none" d="M15.15 5.55 L15.25 5.25 Q16.85 4.0 24.0 7.5 L23.9 8.5 Q17.65 5.3 15.15 5.55"/><path fill="#666247" stroke="none" d="M23.9 8.5 Q23.35 12.6 22.6 14.8 L22.45 15.05 Q21.15 17.5 19.8 18.55 13.5 11.3 14.1 9.35 L16.15 9.25 Q14.8 6.65 15.15 5.55 17.65 5.3 23.9 8.5 M16.15 9.25 Q17.65 12.05 22.45 15.05 17.65 12.05 16.15 9.25"/><path fill="none" stroke="#000000" stroke-width="0.5" stroke-opacity="0.298039215686" d="M15.15 5.55 L15.25 5.25 Q16.85 4.0 24.0 7.5 L23.9 8.5 M19.8 18.55 Q13.5 11.3 14.1 9.35 L16.15 9.25 Q14.8 6.65 15.15 5.55 17.65 5.3 23.9 8.5 M22.45 15.05 Q17.65 12.05 16.15 9.25"/><path fill="#7e261a" stroke="none" d="M8.2 11.4 Q5.65 11.35 4.3 12.6 L5.4 12.6 4.3 13.3 6.25 13.6 5.75 13.85 7.7 15.2 Q3.5 13.45 0.6 14.15 0.75 13.4 1.15 12.75 2.05 11.3 4.2 10.6 5.85 10.45 8.2 11.4 M3.55 11.9 Q2.25 12.2 1.15 12.75 2.25 12.2 3.55 11.9"/><path fill="#90745c" stroke="none" d="M8.2 11.4 Q12.65 13.2 19.85 18.95 L19.3 22.65 Q12.6 17.25 7.7 15.2 L5.75 13.85 6.25 13.6 4.3 13.3 5.4 12.6 4.3 12.6 Q5.65 11.35 8.2 11.4"/><path fill="none" stroke="#000000" stroke-width="0.5" stroke-opacity="0.298039215686" d="M7.7 15.2 Q12.6 17.25 19.3 22.65 L19.85 18.95 Q12.65 13.2 8.2 11.4 M7.7 15.2 Q3.5 13.45 0.6 14.15 0.75 13.4 1.15 12.75 2.05 11.3 4.2 10.6 5.85 10.45 8.2 11.4 M1.15 12.75 Q2.25 12.2 3.55 11.9"/><path stroke="none" fill="url(#gradient5)" d="M12.6 14.1 L9.75 12.45 8.75 11.95 7.45 10.7 7.75 10.35 Q6.5 10.05 6.15 9.7 6.35 9.45 6.9 9.2 L5.5 8.55 Q5.5 8.15 7.4 7.7 L4.8 7.15 Q5.95 6.25 8.6 5.9 L6.6 5.0 11.0 4.85 11.95 5.4 Q21.5 17.65 12.6 14.1"/><path fill="#992f22" stroke="none" d="M8.75 11.95 Q4.45 10.05 1.6 11.3 2.3 10.4 3.3 10.05 L1.9 9.65 -0.05 10.35 Q1.55 4.0 7.95 4.0 9.2 4.0 11.0 4.85 L6.6 5.0 8.6 5.9 Q5.95 6.25 4.8 7.15 L7.4 7.7 Q5.5 8.15 5.5 8.55 L6.9 9.2 Q6.35 9.45 6.15 9.7 6.5 10.05 7.75 10.35 L7.45 10.7 8.75 11.95 M1.9 9.65 L3.75 9.15 1.9 9.65"/><path fill="#aa9c82" stroke="none" d="M11.95 5.4 L13.6 6.4 Q17.15 8.8 22.4 13.2 L19.55 19.6 16.05 16.6 12.6 14.1 Q21.5 17.65 11.95 5.4"/><path fill="none" stroke="#000000" stroke-width="0.5" stroke-opacity="0.298039215686" d="M11.95 5.4 L13.6 6.4 Q17.15 8.8 22.4 13.2 L19.55 19.6 16.05 16.6 12.6 14.1 M8.75 11.95 Q4.45 10.05 1.6 11.3 2.3 10.4 3.3 10.05 L1.9 9.65 -0.05 10.35 Q1.55 4.0 7.95 4.0 9.2 4.0 11.0 4.85 L11.95 5.4 M3.75 9.15 L1.9 9.65"/><path stroke="none" fill="url(#gradient5)" d="M14.9 3.1 L13.7 1.75 15.2 2.65 19.2 5.45 21.6 8.0 Q22.45 9.05 21.95 9.15 18.4 8.15 16.0 8.35 L13.95 7.0 12.8 6.35 12.25 6.1 10.8 5.45 8.4 3.6 9.15 3.35 Q10.25 3.1 12.35 3.3 L11.0 2.4 Q12.75 2.45 14.9 3.1"/><path fill="#b13c2b" stroke="none" d="M10.55 5.35 L9.15 4.95 6.1 4.75 Q3.65 5.05 1.65 6.9 1.6 5.7 2.65 3.65 L1.55 4.65 Q1.55 2.9 4.0 1.05 L2.0 1.0 Q4.55 -0.95 9.15 0.5 11.7 1.25 14.9 3.1 12.75 2.45 11.0 2.4 L12.35 3.3 Q10.25 3.1 9.15 3.35 L8.4 3.6 10.8 5.45 10.55 5.35"/><path fill="#aa9c82" stroke="none" d="M19.2 5.45 L24.1 9.6 22.2 13.8 Q18.9 10.45 16.0 8.35 18.4 8.15 21.95 9.15 22.45 9.05 21.6 8.0 L19.2 5.45"/><path fill="none" stroke="#000000" stroke-width="0.5" stroke-opacity="0.298039215686" d="M10.55 5.35 L9.15 4.95 6.1 4.75 Q3.65 5.05 1.65 6.9 1.6 5.7 2.65 3.65 L1.55 4.65 Q1.55 2.9 4.0 1.05 L2.0 1.0 Q4.55 -0.95 9.15 0.5 11.7 1.25 14.9 3.1 L13.7 1.75 15.2 2.65 19.2 5.45 24.1 9.6 22.2 13.8 Q18.9 10.45 16.0 8.35 L13.95 7.0 12.8 6.35 12.25 6.1"/><path fill="#e8644d" stroke="none" d="M6.6 0.75 L6.35 0.8 6.1 0.75 5.95 0.6 6.1 0.5 6.35 0.45 6.6 0.5 6.75 0.6 6.6 0.75"/><path fill="#e8644d" stroke="none" d="M8.75 0.85 L9.5 1.1 9.75 1.3 9.45 1.3 8.65 1.15 7.9 0.9 7.65 0.7 7.95 0.7 8.75 0.85"/><path fill="#e8644d" stroke="none" d="M5.8 5.4 L5.05 5.65 4.3 5.8 3.95 5.8 Q3.95 5.7 4.25 5.6 L5.0 5.35 5.75 5.2 6.1 5.2 5.8 5.4"/><path fill="#666247" stroke="none" d="M18.3 20.9 Q22.4 16.25 25.85 23.3 20.65 28.0 19.45 26.3 18.3 24.95 18.3 20.9"/><path fill="none" stroke="#000000" stroke-width="0.5" stroke-opacity="0.298039215686" d="M18.3 20.9 Q22.4 16.25 25.85 23.3 20.65 28.0 19.45 26.3 18.3 24.95 18.3 20.9"/><path fill="#666247" stroke="none" d="M20.3 19.25 Q19.3 20.85 18.3 21.65 12.95 15.55 12.55 13.2 15.2 17.4 20.3 19.25"/><path fill="#897f64" stroke="none" d="M13.65 8.65 L13.75 8.35 Q15.1 7.3 20.7 9.75 L22.5 10.6 22.4 11.6 20.7 10.75 Q15.8 8.4 13.65 8.65"/><path stroke="none" fill="url(#gradient7)" d="M22.4 11.6 L21.85 15.0 21.1 17.9 20.95 18.15 20.3 19.25 Q15.2 17.4 12.55 13.2 12.5 12.75 12.6 12.45 L14.65 12.4 Q13.3 9.75 13.65 8.65 15.8 8.4 20.7 10.75 L22.4 11.6 M14.65 12.4 Q16.15 15.15 20.95 18.15 16.15 15.15 14.65 12.4"/><path fill="none" stroke="#000000" stroke-width="0.5" stroke-opacity="0.298039215686" d="M13.65 8.65 L13.75 8.35 Q15.1 7.3 20.7 9.75 L22.5 10.6 22.4 11.6 M18.3 21.65 Q12.95 15.55 12.55 13.2 12.5 12.75 12.6 12.45 L14.65 12.4 Q13.3 9.75 13.65 8.65 15.8 8.4 20.7 10.75 M20.95 18.15 Q16.15 15.15 14.65 12.4"/><path fill="#666247" stroke="none" d="M29.25 16.65 Q28.3 20.9 25.95 23.5 21.95 25.25 18.45 21.35 L19.15 18.65 21.1 19.4 Q23.8 19.65 29.25 16.65"/><path stroke="none" fill="url(#gradient8)" d="M22.05 11.3 Q27.65 12.9 29.25 16.65 23.8 19.65 21.1 19.4 L19.15 18.65 Q20.15 15.35 22.05 11.3"/><path fill="none" stroke="#000000" stroke-width="0.5" stroke-opacity="0.298039215686" d="M22.05 11.3 Q27.65 12.9 29.25 16.65 28.3 20.9 25.95 23.5"/><path stroke="none" fill="url(#gradient8)" d="M22.05 11.3 Q23.55 6.75 25.35 4.9 26.4 4.9 27.45 7.2 30.0 12.75 29.25 16.65 23.05 16.0 22.05 11.3"/><path fill="none" stroke="#000000" stroke-width="0.5" stroke-opacity="0.298039215686" d="M22.05 11.3 Q23.55 6.75 25.35 4.9 26.4 4.9 27.45 7.2 30.0 12.75 29.25 16.65"/><path fill="none" stroke="#000000" stroke-width="0.5" stroke-opacity="0.298039215686" d="M26.0 10.35 L27.25 11.75 27.55 11.15 26.2 9.45 M27.55 11.15 L27.85 10.6 M27.25 11.75 L28.15 13.25 M27.55 11.15 L28.3 12.4"/><path fill="#6f6a4c" stroke="none" d="M21.6 21.15 L21.45 21.25 19.45 21.45 Q20.2 20.3 21.5 19.65 21.0 20.75 21.6 21.15"/><path fill="#504b35" stroke="none" d="M21.5 19.65 Q21.95 19.4 22.45 19.25 22.1 20.6 21.6 21.15 21.0 20.75 21.5 19.65"/><path fill="none" stroke="#000000" stroke-width="0.5" stroke-opacity="0.298039215686" d="M21.5 19.65 Q21.95 19.4 22.45 19.25 22.1 20.6 21.6 21.15 L21.45 21.25 19.45 21.45 Q20.2 20.3 21.5 19.65 21.0 20.75 21.6 21.15"/><path fill="#6f6a4c" stroke="none" d="M23.6 16.95 L23.05 17.9 Q21.75 15.85 22.4 12.6 23.05 13.1 23.5 14.0 22.45 15.65 23.6 16.95"/><path fill="#504b35" stroke="none" d="M23.5 14.0 L24.05 15.4 23.6 16.95 Q22.45 15.65 23.5 14.0"/><path fill="none" stroke="#000000" stroke-width="0.5" stroke-opacity="0.298039215686" d="M23.6 16.95 L23.05 17.9 Q21.75 15.85 22.4 12.6 23.05 13.1 23.5 14.0 L24.05 15.4 23.6 16.95 Q22.45 15.65 23.5 14.0"/><path fill="#e1e3be" stroke="none" d="M25.65 8.3 L25.9 8.25 26.25 8.45 26.45 8.75 26.4 9.0 26.15 9.05 25.8 8.85 25.65 8.55 25.65 8.3"/><path fill="#dce1b9" stroke="none" d="M26.95 8.4 L27.1 8.4 27.25 8.55 27.4 8.7 27.35 8.85 27.25 8.85 27.05 8.75 26.95 8.55 26.95 8.4"/><path fill="#dce1b9" stroke="none" d="M26.25 7.25 L26.35 7.3 26.45 7.5 26.5 7.75 26.4 7.85 26.3 7.8 26.2 7.6 26.15 7.4 26.25 7.25"/><path fill="#91986f" stroke="none" d="M27.15 21.45 Q25.9 20.6 24.6 18.95 25.85 16.9 29.05 16.25 L30.15 17.45 30.25 18.9 Q28.55 19.45 27.15 21.45"/><path fill="#6a6e4b" stroke="none" d="M26.95 24.15 Q26.0 24.95 24.85 24.75 24.2 24.15 23.9 22.85 24.85 19.05 26.3 22.9 26.7 24.2 26.95 24.15"/><path fill="#5d5b42" stroke="none" d="M23.75 19.1 Q25.5 20.9 27.15 21.45 26.8 23.2 27.05 24.1 L26.95 24.15 Q26.7 24.2 26.3 22.9 24.85 19.05 23.9 22.85 23.6 21.4 23.75 19.1"/><path fill="#cad0a4" stroke="none" d="M30.15 17.45 L29.05 16.25 Q25.85 16.9 24.6 18.95 25.9 20.6 27.15 21.45 25.5 20.9 23.75 19.1 26.7 15.6 29.1 15.4 29.9 16.25 30.15 17.45"/><path fill="#55553b" stroke="none" d="M27.15 21.45 Q28.55 19.45 30.25 18.9 29.55 22.0 27.05 24.1 26.8 23.2 27.15 21.45"/><path fill="none" stroke="#000000" stroke-width="0.5" stroke-opacity="0.298039215686" d="M30.15 17.45 Q29.9 16.25 29.1 15.4 26.7 15.6 23.75 19.1 25.5 20.9 27.15 21.45 28.55 19.45 30.25 18.9 L30.15 17.45 M27.05 24.1 L26.95 24.15 Q26.0 24.95 24.85 24.75 24.2 24.15 23.9 22.85 23.6 21.4 23.75 19.1 M27.05 24.1 Q26.8 23.2 27.15 21.45 M30.25 18.9 Q29.55 22.0 27.05 24.1"/><path fill="#464032" stroke="none" d="M35.2 25.55 L35.15 25.75 34.35 26.35 Q31.9 27.95 30.1 26.05 25.85 25.8 27.4 22.25 L28.25 21.15 Q32.5 24.8 35.2 25.55"/><path fill="#615c49" stroke="none" d="M28.25 21.15 Q29.2 20.2 30.2 20.15 31.9 20.5 34.35 22.8 L35.0 24.05 Q35.3 24.85 35.2 25.55 32.5 24.8 28.25 21.15"/><path fill="none" stroke="#000000" stroke-width="0.5" stroke-opacity="0.298039215686" d="M35.2 25.55 L35.15 25.75 34.35 26.35 Q31.9 27.95 30.1 26.05 25.85 25.8 27.4 22.25 L28.25 21.15 Q29.2 20.2 30.2 20.15 31.9 20.5 34.35 22.8 L35.0 24.05 Q35.3 24.85 35.2 25.55"/><path fill="#80753f" stroke="none" d="M39.0 38.65 Q38.0 36.75 39.5 35.0 39.9 34.6 41.15 34.75 42.5 34.9 43.3 36.0 L42.35 36.3 Q42.7 37.65 41.85 38.85 L39.9 37.75 39.0 38.65"/><path fill="none" stroke="#000000" stroke-width="0.5" stroke-opacity="0.298039215686" d="M39.0 38.65 Q38.0 36.75 39.5 35.0 39.9 34.6 41.15 34.75 42.5 34.9 43.3 36.0 L42.35 36.3 Q42.7 37.65 41.85 38.85 L39.9 37.75 39.0 38.65"/><path fill="#712319" stroke="none" d="M41.55 34.2 L42.3 34.85 41.8 35.75 41.35 35.95 Q39.4 36.4 38.95 35.3 38.5 34.15 39.7 33.25 41.6 32.2 42.75 33.4 41.6 33.25 41.4 34.1 L41.55 34.2"/><path fill="#9a3324" stroke="none" d="M42.8 34.15 L41.55 34.2 41.4 34.1 Q41.6 33.25 42.75 33.4 L42.75 33.45 42.8 34.15"/><path fill="#571715" stroke="none" d="M41.8 35.75 L42.3 34.85 41.55 34.2 42.8 34.15 Q42.7 35.15 41.8 35.75"/><path fill="none" stroke="#000000" stroke-width="0.5" stroke-opacity="0.298039215686" d="M41.8 35.75 Q42.7 35.15 42.8 34.15 L42.75 33.45 42.75 33.4 Q41.6 32.2 39.7 33.25 38.5 34.15 38.95 35.3 39.4 36.4 41.35 35.95 L41.8 35.75"/><path fill="#80753f" stroke="none" d="M40.75 31.4 L40.95 33.0 40.1 33.8 Q40.05 31.05 40.75 31.4"/><path fill="#5e4e2a" stroke="none" d="M40.1 33.8 L39.5 33.85 Q39.3 31.0 38.1 27.65 L38.9 27.2 Q40.2 28.95 40.75 31.4 40.05 31.05 40.1 33.8"/><path fill="none" stroke="#000000" stroke-width="0.5" stroke-opacity="0.298039215686" d="M40.1 33.8 L39.5 33.85 Q39.3 31.0 38.1 27.65 L38.9 27.2 Q40.2 28.95 40.75 31.4 L40.95 33.0 40.1 33.8"/><path fill="none" stroke="#000000" stroke-width="0.5" stroke-opacity="0.298039215686" d="M38.5 32.3 Q39.5 31.9 39.65 31.05"/><path fill="#db7d5b" stroke="none" d="M42.35 34.1 L42.15 34.15 41.95 34.1 41.9 33.9 41.95 33.7 42.15 33.65 42.35 33.7 42.4 33.9 42.35 34.1"/><path fill="#80753f" stroke="none" d="M36.4 38.85 L36.35 38.5 35.25 38.05 Q35.8 37.0 36.8 36.45 38.1 35.65 39.25 36.7 40.45 37.8 39.95 39.2 L39.2 38.65 Q38.7 39.9 37.85 40.4 38.7 39.3 38.55 38.3 37.1 38.15 36.4 38.85"/><path fill="#b8a15e" stroke="none" d="M37.85 40.4 L36.65 40.75 36.4 38.85 Q37.1 38.15 38.55 38.3 38.7 39.3 37.85 40.4"/><path fill="none" stroke="#000000" stroke-width="0.5" stroke-opacity="0.298039215686" d="M36.4 38.85 L36.35 38.5 35.25 38.05 Q35.8 37.0 36.8 36.45 38.1 35.65 39.25 36.7 40.45 37.8 39.95 39.2 L39.2 38.65 Q38.7 39.9 37.85 40.4 L36.65 40.75 36.4 38.85"/><path fill="#702619" stroke="none" d="M39.25 37.3 L37.95 37.45 Q36.05 36.85 36.2 35.7 36.4 34.45 37.85 34.25 L39.2 34.5 Q37.65 34.25 36.85 35.65 L37.65 36.45 Q38.3 36.95 39.2 37.05 L39.25 37.3"/><path fill="#9a3324" stroke="none" d="M39.2 34.5 Q40.2 34.9 40.4 35.95 38.7 36.95 37.65 36.45 L36.85 35.65 Q37.65 34.25 39.2 34.5"/><path fill="#5b1c13" stroke="none" d="M40.4 35.95 L40.4 36.0 Q40.05 36.95 39.25 37.3 L39.2 37.05 Q38.3 36.95 37.65 36.45 38.7 36.95 40.4 35.95"/><path fill="none" stroke="#000000" stroke-width="0.5" stroke-opacity="0.298039215686" d="M40.4 35.95 L40.4 36.0 Q40.05 36.95 39.25 37.3 L37.95 37.45 Q36.05 36.85 36.2 35.7 36.4 34.45 37.85 34.25 L39.2 34.5 Q40.2 34.9 40.4 35.95"/><path fill="#80753f" stroke="none" d="M37.75 32.9 Q38.2 30.45 37.75 27.9 38.15 27.15 38.7 27.45 39.4 29.75 39.35 32.3 38.8 31.5 37.75 32.9"/><path fill="#b8a15e" stroke="none" d="M39.35 32.3 L39.1 34.8 Q37.8 35.5 37.35 34.6 L37.75 32.9 Q38.8 31.5 39.35 32.3"/><path fill="none" stroke="#000000" stroke-width="0.5" stroke-opacity="0.298039215686" d="M37.75 32.9 Q38.2 30.45 37.75 27.9 38.15 27.15 38.7 27.45 39.4 29.75 39.35 32.3 L39.1 34.8 Q37.8 35.5 37.35 34.6 L37.75 32.9"/><path fill="none" stroke="#000000" stroke-width="0.5" stroke-opacity="0.298039215686" d="M36.75 34.25 Q37.8 34.3 38.45 33.6"/><path fill="none" stroke="#000000" stroke-width="0.5" stroke-opacity="0.298039215686" d="M37.4 32.4 L38.5 31.45"/><path fill="#db7d5b" stroke="none" d="M39.35 36.1 L39.1 36.15 38.8 36.1 38.7 35.9 38.8 35.75 39.1 35.7 39.35 35.75 39.5 35.9 39.35 36.1"/><path fill="#80753f" stroke="none" d="M36.4 26.0 L38.45 27.05 37.15 28.95 Q33.3 25.5 27.55 22.15 27.4 21.3 28.35 20.9 L33.2 24.1 Q32.75 24.4 33.45 24.95 36.0 27.05 36.4 26.0"/><path fill="#b8a15e" stroke="none" d="M33.2 24.1 L36.4 26.0 Q36.0 27.05 33.45 24.95 32.75 24.4 33.2 24.1"/><path fill="none" stroke="#000000" stroke-width="0.5" stroke-opacity="0.298039215686" d="M36.4 26.0 L38.45 27.05 37.15 28.95 Q33.3 25.5 27.55 22.15 27.4 21.3 28.35 20.9 L33.2 24.1 36.4 26.0"/><path fill="none" stroke="#000000" stroke-width="0.5" stroke-opacity="0.298039215686" d="M29.6 21.1 Q29.05 21.4 28.8 21.95 M31.15 22.15 Q30.75 22.75 30.85 23.35 M34.3 24.25 Q33.7 24.5 33.35 25.0 M35.8 24.95 Q35.4 25.85 35.45 26.7"/><path fill="#b8a15e" stroke="none" d="M36.75 27.45 Q37.0 26.15 38.55 25.15 L39.0 25.15 Q40.25 25.35 40.4 26.85 L40.2 27.45 Q39.45 25.85 38.45 27.45 37.4 28.05 36.75 27.45 M39.0 25.15 Q38.05 26.2 38.45 27.45 38.05 26.2 39.0 25.15"/><path fill="#857544" stroke="none" d="M40.2 27.45 L38.95 29.0 Q37.7 30.0 36.8 28.85 L36.7 28.55 36.75 27.45 Q37.4 28.05 38.45 27.45 L39.0 28.55 Q37.95 29.3 36.7 28.55 37.95 29.3 39.0 28.55 L38.45 27.45 Q39.45 25.85 40.2 27.45"/><path fill="none" stroke="#000000" stroke-width="0.5" stroke-opacity="0.298039215686" d="M36.75 27.45 Q37.0 26.15 38.55 25.15 L39.0 25.15 Q40.25 25.35 40.4 26.85 L40.2 27.45 38.95 29.0 Q37.7 30.0 36.8 28.85 L36.7 28.55 36.75 27.45 M38.45 27.45 Q38.05 26.2 39.0 25.15 M36.7 28.55 Q37.95 29.3 39.0 28.55 L38.45 27.45"/><path fill="#afb589" stroke="none" d="M40.0 27.55 L41.55 27.1 Q42.3 28.0 42.65 29.15 L42.45 29.7 40.75 29.5 Q40.15 28.85 40.0 27.55"/><path fill="#969e75" stroke="none" d="M41.5 26.05 L40.0 27.55 38.75 27.05 Q40.0 26.2 41.5 26.05"/><path fill="#6e6e54" stroke="none" d="M38.75 27.05 L40.0 27.55 Q40.1 29.8 38.95 30.35 38.05 29.35 38.65 27.1 L38.75 27.05"/><path fill="#6e744e" stroke="none" d="M40.75 29.5 L42.45 29.7 Q40.9 30.85 39.0 30.4 39.8 30.25 40.75 29.5"/><path fill="#e2e4b3" stroke="none" d="M42.65 29.15 Q42.3 28.0 41.55 27.1 L40.0 27.55 41.5 26.05 Q42.9 27.95 42.65 29.15"/><path fill="#4f5139" stroke="none" d="M38.95 30.35 Q40.1 29.8 40.0 27.55 40.15 28.85 40.75 29.5 39.8 30.25 39.0 30.4 L38.95 30.35"/><path fill="none" stroke="#000000" stroke-width="0.5" stroke-opacity="0.298039215686" d="M42.65 29.15 Q42.9 27.95 41.5 26.05 L40.0 27.55 38.75 27.05 38.65 27.1 Q38.05 29.35 38.95 30.35 M40.0 27.55 Q40.15 28.85 40.75 29.5 L42.45 29.7 42.65 29.15 M39.0 30.4 L38.95 30.35 M38.75 27.05 Q40.0 26.2 41.5 26.05 M42.45 29.7 Q40.9 30.85 39.0 30.4 39.8 30.25 40.75 29.5"/><path fill="#464032" stroke="none" d="M31.5 22.85 L31.0 23.3 Q30.7 25.45 29.35 24.2 28.85 23.2 29.05 22.45 29.3 23.95 30.5 23.95 30.85 23.2 31.5 22.85"/><path fill="#615c49" stroke="none" d="M29.05 22.45 Q29.3 21.5 30.55 20.95 32.25 20.65 32.25 22.25 L31.5 22.85 Q30.85 23.2 30.5 23.95 29.3 23.95 29.05 22.45"/><path fill="none" stroke="#000000" stroke-width="0.5" stroke-opacity="0.298039215686" d="M31.5 22.85 L31.0 23.3 Q30.7 25.45 29.35 24.2 28.85 23.2 29.05 22.45 29.3 21.5 30.55 20.95 M32.25 22.25 L31.5 22.85"/><path fill="#464032" stroke="none" d="M30.25 23.6 Q30.6 24.6 31.6 24.6 32.15 23.4 33.45 23.25 L32.2 24.3 Q31.95 26.45 30.6 25.2 30.15 24.3 30.25 23.6"/><path fill="#615c49" stroke="none" d="M33.45 23.25 Q32.15 23.4 31.6 24.6 30.6 24.6 30.25 23.6 30.4 22.55 31.75 21.95 33.5 21.7 33.45 23.25"/><path fill="none" stroke="#000000" stroke-width="0.5" stroke-opacity="0.298039215686" d="M31.75 21.95 Q30.4 22.55 30.25 23.6 30.15 24.3 30.6 25.2 31.95 26.45 32.2 24.3 L33.45 23.25"/><path fill="#615c49" stroke="none" d="M30.9 20.95 L29.8 22.05 29.6 22.85 Q28.35 23.35 28.1 21.75 27.8 19.35 30.65 19.35 31.35 20.15 30.9 20.95"/><path fill="none" stroke="#000000" stroke-width="0.5" stroke-opacity="0.298039215686" d="M30.9 20.95 L29.8 22.05 29.6 22.85 Q28.35 23.35 28.1 21.75 27.8 19.35 30.65 19.35"/><path fill="#615c49" stroke="none" d="M28.15 21.3 Q31.1 22.25 30.35 23.8 29.05 24.6 28.15 23.5 26.45 22.05 28.15 21.3"/><path fill="none" stroke="#000000" stroke-width="0.5" stroke-opacity="0.298039215686" d="M28.15 21.3 Q31.1 22.25 30.35 23.8 29.05 24.6 28.15 23.5 26.45 22.05 28.15 21.3"/><path fill="#615c49" stroke="none" d="M30.5 19.35 L31.85 19.45 32.25 20.85 Q31.1 21.0 30.45 20.4 30.2 19.9 30.5 19.35"/><path fill="none" stroke="#000000" stroke-width="0.5" stroke-opacity="0.298039215686" d="M30.5 19.35 L31.85 19.45 32.25 20.85"/><path fill="#615c49" stroke="none" d="M32.05 20.3 L33.4 20.4 Q33.7 20.9 33.8 21.8 32.65 21.95 32.0 21.35 31.75 20.85 32.05 20.3"/><path fill="none" stroke="#000000" stroke-width="0.5" stroke-opacity="0.298039215686" d="M32.05 20.3 L33.4 20.4 Q33.7 20.9 33.8 21.8"/><path fill="#615c49" stroke="none" d="M33.1 21.35 L34.45 21.45 34.85 22.85 Q33.7 23.0 33.05 22.4 32.8 21.9 33.1 21.35"/><path fill="none" stroke="#000000" stroke-width="0.5" stroke-opacity="0.298039215686" d="M33.1 21.35 L34.45 21.45 34.85 22.85"/></g><radialGradient gradientUnits="userSpaceOnUse" r="819.2" cx="0" cy="0" spreadMethod="pad" gradientTransform="matrix(0.01318359375,0.0,0.0,0.01318359375,-6.4,-8.25)" id="gradient10"><stop offset="0.447058823529" stop-color="#b36038"/><stop offset="1.0" stop-color="#9f3422"/></radialGradient><radialGradient gradientUnits="userSpaceOnUse" r="819.2" cx="0" cy="0" spreadMethod="pad" gradientTransform="matrix(0.0148620605469,0.0,0.0,0.0148620605469,-7.65,-7.0)" id="gradient11"><stop offset="0.447058823529" stop-color="#712d22"/><stop offset="1.0" stop-color="#431d14"/></radialGradient><g id="c60"><path fill="#944a2d" stroke="none" d="M-7.7 -9.7 L-7.3 -10.1 -6.15 -11.15 Q-5.6 -10.45 -5.75 -9.7 L-7.7 -9.7"/><path fill="#7f351c" stroke="none" d="M-12.6 0.5 L-12.5 0.0 Q-12.2 -2.0 -11.5 -3.85 L-11.25 -2.6 Q-11.9 -0.75 -12.6 0.5"/><path fill="#742419" stroke="none" d="M3.55 -14.25 Q7.8 -13.75 10.45 -10.1 13.45 -5.95 12.55 0.0 11.6 5.9 7.3 10.1 3.0 14.3 -2.2 14.3 -7.4 14.3 -10.4 10.1 -12.85 6.7 -12.7 2.25 L-11.25 3.6 Q-8.2 -3.7 -3.4 -8.15 0.3 -11.15 4.75 -10.65 4.7 -12.95 3.55 -14.25"/><path fill="#de9453" stroke="none" d="M-10.55 -5.85 Q-9.4 -7.95 -7.7 -9.7 L-5.75 -9.7 Q-8.45 -8.15 -10.55 -5.85 M-5.55 -11.6 L-4.4 -12.4 -3.85 -11.6 -5.55 -11.6"/><path stroke="none" fill="url(#gradient10)" d="M-12.7 2.25 L-12.6 0.5 Q-11.9 -0.75 -11.25 -2.6 L-11.5 -3.85 -10.55 -5.85 Q-8.45 -8.15 -5.75 -9.7 -5.6 -10.45 -6.15 -11.15 L-5.55 -11.6 -3.85 -11.6 -4.4 -12.4 -2.85 -11.8 -4.4 -12.4 Q-1.3 -14.3 2.2 -14.3 L3.55 -14.25 Q4.7 -12.95 4.75 -10.65 0.3 -11.15 -3.4 -8.15 -8.2 -3.7 -11.25 3.6 L-12.7 2.25"/><path fill="none" stroke="#000000" stroke-width="0.5" stroke-opacity="0.298039215686" d="M3.55 -14.25 Q7.8 -13.75 10.45 -10.1 13.45 -5.95 12.55 0.0 11.6 5.9 7.3 10.1 3.0 14.3 -2.2 14.3 -7.4 14.3 -10.4 10.1 -12.85 6.7 -12.7 2.25 L-12.6 0.5 -12.5 0.0 Q-12.2 -2.0 -11.5 -3.85 L-10.55 -5.85 Q-9.4 -7.95 -7.7 -9.7 L-7.3 -10.1 -6.15 -11.15 -5.55 -11.6 -4.4 -12.4 Q-1.3 -14.3 2.2 -14.3 L3.55 -14.25 M-2.85 -11.8 L-4.4 -12.4 M-6.15 -11.15 Q-5.6 -10.45 -5.75 -9.7 L-7.7 -9.7 M-11.5 -3.85 L-11.25 -2.6 Q-11.9 -0.75 -12.6 0.5"/><path fill="none" stroke="#000000" stroke-width="0.5" stroke-opacity="0.298039215686" d="M0.75 -13.6 Q2.15 -13.1 3.15 -11.75 M-9.8 -5.85 L-8.75 -4.85 -8.05 -3.1 -10.8 -2.45 M-8.15 -8.1 Q-7.0 -6.75 -7.15 -4.35 M-10.0 -4.3 L-8.75 -4.85 M-11.95 4.05 L-11.1 4.7 -10.25 3.6 M-11.65 6.4 Q-10.45 7.6 -8.55 7.7 M-11.1 4.7 L-9.7 5.15"/><path fill="#431d14" stroke="none" d="M-8.2 7.7 Q-10.1 4.5 -9.4 0.25 -8.7 -4.55 -5.2 -7.95 L-3.4 -9.4 Q-10.6 -1.25 -8.2 7.7"/><path stroke="none" fill="url(#gradient11)" d="M0.85 -11.2 L2.55 -11.35 Q6.75 -11.35 9.2 -7.95 11.65 -4.55 10.9 0.25 10.15 5.05 6.65 8.45 4.8 10.25 2.7 11.1 L0.85 11.65 -1.05 11.85 -2.8 11.7 Q-5.8 11.1 -7.7 8.45 L-8.2 7.7 Q-10.6 -1.25 -3.4 -9.4 -1.4 -10.85 0.85 -11.2"/><path fill="none" stroke="#000000" stroke-width="0.5" stroke-opacity="0.298039215686" d="M-2.8 11.7 Q-5.8 11.1 -7.7 8.45 L-8.2 7.7 Q-10.1 4.5 -9.4 0.25 -8.7 -4.55 -5.2 -7.95 L-3.4 -9.4 Q-1.4 -10.85 0.85 -11.2"/><path fill="none" stroke="#000000" stroke-width="0.5" stroke-opacity="0.298039215686" d="M-8.05 0.95 L-7.6 0.1 -6.85 -0.75 -6.9 -1.95 -8.05 -0.45 M-6.9 -1.95 L-5.9 -2.65 M-7.35 2.3 Q-7.8 1.1 -7.6 0.1 M-6.55 1.05 L-6.85 -0.75"/><path fill="none" stroke="#000000" stroke-width="0.5" stroke-opacity="0.298039215686" d="M-3.45 -4.85 L-3.15 -5.8 -3.2 -5.75 M-1.1 -7.55 L-2.45 -7.2 -3.15 -5.8 -1.65 -6.4 -0.7 -6.5 M-4.7 -4.05 Q-4.6 -5.3 -3.85 -6.7 L-5.1 -6.05 M-2.05 -4.95 L-1.65 -6.4 M-2.45 -7.2 L-3.85 -6.7"/></g><g id="c61"><path fill="#9e813d" stroke="none" d="M0.4 3.6 Q2.1 5.05 4.4 4.25 5.65 3.95 6.5 2.95 7.15 1.75 6.5 0.6 2.7 -0.9 0.1 1.45 -0.2 2.2 0.4 3.6"/><path fill="none" stroke="#000000" stroke-width="0.5" stroke-opacity="0.298039215686" d="M0.4 3.6 Q2.1 5.05 4.4 4.25 5.65 3.95 6.5 2.95 7.15 1.75 6.5 0.6 2.7 -0.9 0.1 1.45 -0.2 2.2 0.4 3.6"/></g><g id="c62"><path fill="#464034" stroke="none" d="M10.95 1.1 Q11.3 4.75 8.95 7.15 5.7 8.35 2.65 8.1 0.45 6.4 0.0 4.4 8.6 -5.05 10.95 1.1"/><path fill="none" stroke="#000000" stroke-width="0.5" stroke-opacity="0.298039215686" d="M10.95 1.1 Q8.6 -5.05 0.0 4.4 0.45 6.4 2.65 8.1 5.7 8.35 8.95 7.15 11.3 4.75 10.95 1.1"/></g><g id="c63"><path fill="#464034" stroke="none" d="M0.0 4.25 Q0.5 4.5 1.1 4.0 7.1 -1.65 11.0 0.65 12.85 2.0 12.8 5.35 L11.15 7.3 Q7.65 10.45 1.9 8.65 0.05 6.45 0.0 4.25"/><path fill="none" stroke="#000000" stroke-width="0.5" stroke-opacity="0.298039215686" d="M0.0 4.25 Q0.05 6.45 1.9 8.65 M12.8 5.35 Q12.85 2.0 11.0 0.65"/></g><g id="c64"><path fill="#715a24" stroke="none" d="M2.5 4.25 L3.75 4.25 Q3.3 9.2 4.7 12.7 4.05 13.45 3.0 13.55 L3.0 13.5 2.3 13.75 1.65 13.5 Q0.85 13.15 0.5 12.45 1.7 9.25 1.45 4.25 L2.5 4.25 2.65 6.3 2.5 4.25 M2.05 11.05 L1.65 13.5 2.05 11.05"/><path fill="none" stroke="#000000" stroke-width="0.5" stroke-opacity="0.298039215686" d="M1.65 13.5 L2.3 13.75 3.0 13.5 3.0 13.55 Q4.05 13.45 4.7 12.7 3.3 9.2 3.75 4.25 L2.5 4.25 2.65 6.3 M2.5 4.25 L1.45 4.25 Q1.7 9.25 0.5 12.45 0.85 13.15 1.65 13.5 L2.05 11.05"/><path fill="#9e813d" stroke="none" d="M0.85 2.5 Q0.45 3.5 0.85 4.5 2.55 5.95 4.85 5.15 6.15 4.8 7.0 3.85 7.65 2.65 7.0 1.45 3.2 -0.05 0.85 2.5 3.2 4.15 6.05 3.1 3.2 4.15 0.85 2.5"/><path fill="none" stroke="#000000" stroke-width="0.5" stroke-opacity="0.298039215686" d="M0.85 2.5 Q0.45 3.5 0.85 4.5 2.55 5.95 4.85 5.15 6.15 4.8 7.0 3.85 7.65 2.65 7.0 1.45 M0.85 2.5 Q3.2 4.15 6.05 3.1"/><path fill="#464034" stroke="none" d="M6.45 1.0 L6.35 1.8 5.55 1.35 6.35 1.8 5.4 2.85 5.2 3.0 4.8 3.1 Q3.15 3.45 0.0 2.3 0.75 1.25 2.05 0.2 4.55 0.05 6.45 1.0 M4.75 1.9 L5.4 2.85 4.75 1.9"/><path fill="none" stroke="#000000" stroke-width="0.5" stroke-opacity="0.298039215686" d="M6.35 1.8 L6.45 1.0 M0.0 2.3 Q3.15 3.45 4.8 3.1 L5.2 3.0 5.4 2.85 4.75 1.9 M6.35 1.8 L5.55 1.35 M5.4 2.85 L6.35 1.8"/><path fill="#933323" stroke="none" d="M5.45 1.3 Q4.3 1.9 2.7 4.75 3.35 0.75 5.1 0.0 6.9 -0.1 7.4 2.15 6.5 1.5 5.45 1.3"/><path fill="none" stroke="#000000" stroke-width="0.5" stroke-opacity="0.298039215686" d="M5.45 1.3 Q6.5 1.5 7.4 2.15 6.9 -0.1 5.1 0.0 3.35 0.75 2.7 4.75 4.3 1.9 5.45 1.3"/></g><radialGradient gradientUnits="userSpaceOnUse" r="819.2" cx="0" cy="0" spreadMethod="pad" gradientTransform="matrix(0.00906372070312,0.0,0.00054931640625,0.00834655761719,2.7,4.35)" id="gradient12"><stop offset="0.56862745098" stop-color="#958a74"/><stop offset="1.0" stop-color="#a5977d"/></radialGradient><g id="c65"><path stroke="none" fill="url(#gradient12)" d="M0.2 7.5 L0.05 6.7 Q-0.2 4.4 0.95 2.7 L1.55 1.95 1.95 1.5 Q3.25 0.4 4.9 0.1 L6.2 0.0 7.45 0.1 Q9.3 0.35 10.85 1.5 L11.4 1.95 Q13.65 3.9 14.0 6.7 14.3 9.45 12.5 11.45 10.7 13.4 7.8 13.4 4.95 13.4 2.65 11.45 0.7 9.75 0.2 7.5"/><path fill="none" stroke="#000000" stroke-width="0.5" stroke-opacity="0.298039215686" d="M7.45 0.1 Q9.3 0.35 10.85 1.5 L11.4 1.95 Q13.65 3.9 14.0 6.7 14.3 9.45 12.5 11.45 10.7 13.4 7.8 13.4 4.95 13.4 2.65 11.45 0.7 9.75 0.2 7.5"/><path fill="#a5977d" stroke="none" d="M14.15 7.55 Q14.8 9.3 14.3 10.4 L13.85 9.9 Q13.2 11.65 12.35 12.2 L12.35 10.9 Q13.1 8.75 14.15 7.55"/><path fill="none" stroke="#000000" stroke-width="0.5" stroke-opacity="0.298039215686" d="M14.15 7.55 Q14.8 9.3 14.3 10.4 L13.85 9.9 Q13.2 11.65 12.35 12.2 L12.35 10.9"/><path fill="#a5977d" stroke="none" d="M12.25 2.95 Q10.95 2.5 11.05 1.6 12.6 2.05 13.3 2.7 L12.45 2.95 12.25 2.95"/><path fill="none" stroke="#000000" stroke-width="0.5" stroke-opacity="0.298039215686" d="M11.05 1.6 Q12.6 2.05 13.3 2.7 L12.45 2.95 12.25 2.95"/><path fill="#ded0b5" stroke="none" d="M13.4 4.65 Q14.75 7.85 11.0 10.6 6.95 12.45 6.05 8.35 6.45 4.7 10.25 3.35 12.45 3.0 13.4 4.65"/><path fill="#b49277" stroke="none" d="M9.45 5.75 L9.6 5.85 9.5 6.0 9.3 6.15 9.05 6.15 8.9 6.05 Q8.85 5.95 8.95 5.9 L9.2 5.75 9.45 5.75"/><path fill="#b49277" stroke="none" d="M8.6 7.1 L8.45 7.2 8.35 7.1 8.3 6.8 8.35 6.55 8.45 6.45 8.6 6.55 8.65 6.8 8.6 7.1"/><path fill="#b49277" stroke="none" d="M9.0 7.8 L8.95 7.95 8.8 7.95 8.65 7.8 8.6 7.6 8.65 7.45 8.8 7.45 8.95 7.6 9.0 7.8"/><path fill="#b49277" stroke="none" d="M9.85 8.4 L9.85 8.55 9.7 8.65 9.5 8.55 9.3 8.4 9.3 8.25 9.45 8.15 9.7 8.25 9.85 8.4"/><path fill="#b49277" stroke="none" d="M10.25 5.75 L10.35 5.8 10.4 5.9 10.35 6.0 10.25 6.05 10.15 6.0 10.1 5.9 10.15 5.8 10.25 5.75"/><path fill="#b49277" stroke="none" d="M11.15 8.9 L11.1 8.8 11.15 8.7 11.3 8.7 11.45 8.7 11.5 8.8 11.45 8.9 11.3 8.95 11.15 8.9"/><path fill="#b49277" stroke="none" d="M12.25 8.3 L12.15 8.5 12.0 8.6 11.85 8.55 11.8 8.4 11.9 8.25 12.1 8.15 12.25 8.15 12.25 8.3"/><path fill="#b49277" stroke="none" d="M12.35 7.7 L12.25 7.8 12.15 7.7 12.1 7.55 12.15 7.35 12.25 7.3 12.35 7.35 12.4 7.55 12.35 7.7"/><path fill="#b49277" stroke="none" d="M12.05 6.45 L12.15 6.5 12.2 6.65 12.15 6.8 12.05 6.85 11.9 6.8 11.85 6.65 11.9 6.5 12.05 6.45"/></g><radialGradient gradientUnits="userSpaceOnUse" r="819.2" cx="0" cy="0" spreadMethod="pad" gradientTransform="matrix(0.0101623535156,0.0,0.0,0.0101623535156,6.5,4.3)" id="gradient13"><stop offset="0.56862745098" stop-color="#a0947c"/><stop offset="1.0" stop-color="#b6aa90"/></radialGradient><g id="c66"><path stroke="none" fill="url(#gradient13)" d="M7.9 0.1 Q9.7 0.4 11.15 1.65 L11.65 2.1 Q13.8 4.25 13.95 7.3 14.1 10.3 12.15 12.4 10.2 14.55 7.35 14.55 4.45 14.55 2.3 12.4 0.5 10.6 0.1 8.15 L0.0 7.3 Q-0.1 4.8 1.2 2.95 L1.8 2.1 2.3 1.65 Q3.6 0.45 5.35 0.1 L6.65 0.0 7.9 0.1"/><path fill="none" stroke="#000000" stroke-width="0.5" stroke-opacity="0.298039215686" d="M7.9 0.1 Q9.7 0.4 11.15 1.65 L11.65 2.1 Q13.8 4.25 13.95 7.3 14.1 10.3 12.15 12.4 10.2 14.55 7.35 14.55 4.45 14.55 2.3 12.4 0.5 10.6 0.1 8.15"/><path fill="#b6aa90" stroke="none" d="M8.3 13.95 Q7.4 14.95 5.85 15.2 L6.25 14.55 4.15 14.65 5.35 13.5 Q7.35 13.4 8.3 13.95"/><path fill="none" stroke="#000000" stroke-width="0.5" stroke-opacity="0.298039215686" d="M8.3 13.95 Q7.4 14.95 5.85 15.2 L6.25 14.55 4.15 14.65 5.35 13.5"/><path fill="#ded0b5" stroke="none" d="M12.85 4.4 Q14.25 5.15 14.6 6.4 L13.5 6.0 Q12.5 4.85 12.85 4.4"/><path fill="none" stroke="#000000" stroke-width="0.5" stroke-opacity="0.298039215686" d="M12.85 4.4 Q14.25 5.15 14.6 6.4 L13.5 6.0"/><path fill="#ded0b5" stroke="none" d="M13.9 7.3 Q14.0 9.1 12.55 10.85 11.15 12.6 8.7 12.6 6.25 12.6 4.45 10.8 3.7 10.05 3.6 9.2 4.65 6.55 6.7 4.85 10.9 1.5 13.4 4.75 13.8 5.5 13.9 7.3"/><path fill="#c49672" stroke="none" d="M10.85 8.3 L11.05 6.35 11.3 9.1 11.6 11.85 11.15 10.1 Q10.45 11.9 9.6 12.4 L10.1 10.95 8.95 9.75 Q9.65 9.8 10.4 10.35 L10.7 9.25 10.25 7.35 10.85 8.3"/></g><g id="c67"><path fill="#464034" stroke="none" d="M29.85 5.2 Q30.25 5.95 30.3 6.85 30.45 8.15 29.75 9.35 28.8 11.0 26.3 12.45 22.05 14.9 15.8 15.2 9.5 15.55 4.85 13.55 0.25 11.55 0.0 8.4 -0.25 5.25 4.0 2.8 8.25 0.35 14.55 0.05 20.8 -0.3 25.45 1.7 28.75 3.15 29.85 5.2"/><path fill="none" stroke="#000000" stroke-width="0.5" stroke-opacity="0.298039215686" d="M29.75 9.35 Q28.8 11.0 26.3 12.45 22.05 14.9 15.8 15.2 9.5 15.55 4.85 13.55 0.25 11.55 0.0 8.4 -0.25 5.25 4.0 2.8 8.25 0.35 14.55 0.05 20.8 -0.3 25.45 1.7 28.75 3.15 29.85 5.2"/></g><g id="c68"><path fill="#ccb569" stroke="none" d="M6.45 3.6 Q4.75 5.05 2.45 4.25 1.2 3.95 0.35 2.95 -0.3 1.75 0.35 0.6 4.15 -0.9 6.75 1.45 7.05 2.2 6.45 3.6"/><path fill="none" stroke="#000000" stroke-width="0.5" stroke-opacity="0.298039215686" d="M6.45 3.6 Q4.75 5.05 2.45 4.25 1.2 3.95 0.35 2.95 -0.3 1.75 0.35 0.6 4.15 -0.9 6.75 1.45 7.05 2.2 6.45 3.6"/></g><g id="c69"><path fill="#5e5848" stroke="none" d="M0.25 1.1 Q6.65 -2.2 11.2 4.4 11.1 6.75 8.55 8.1 4.5 9.8 2.25 7.15 -0.7 3.85 0.25 1.1"/><path fill="none" stroke="#000000" stroke-width="0.5" stroke-opacity="0.298039215686" d="M0.25 1.1 Q6.65 -2.2 11.2 4.4 11.1 6.75 8.55 8.1 4.5 9.8 2.25 7.15 -0.7 3.85 0.25 1.1"/></g><g id="c70"><path fill="#5e5848" stroke="none" d="M15.15 6.85 L14.7 8.05 Q14.1 9.0 12.9 9.4 7.15 11.2 3.65 8.05 2.75 7.25 2.0 6.1 3.85 3.15 6.75 2.6 9.15 1.8 14.6 6.8 L15.15 6.85"/><path fill="#464034" stroke="none" d="M15.25 6.3 L15.15 6.85 14.6 6.8 Q9.15 1.8 6.75 2.6 3.85 3.15 2.0 6.1 0.2 3.7 0.0 0.85 3.85 -1.95 13.7 4.75 L15.25 6.3"/><path fill="none" stroke="#000000" stroke-width="0.5" stroke-opacity="0.298039215686" d="M15.25 6.3 L15.15 6.85 14.7 8.05 Q14.1 9.0 12.9 9.4 M2.0 6.1 Q0.2 3.7 0.0 0.85"/><path fill="#464034" stroke="none" d="M6.25 8.4 L9.5 8.4 Q8.85 10.0 7.65 10.25 6.95 9.9 6.25 8.4"/><path fill="#5e5848" stroke="none" d="M6.15 8.35 Q7.95 6.1 9.55 8.4 8.9 9.3 7.65 9.4 6.9 9.25 6.15 8.35"/><path fill="none" stroke="#5e5848" stroke-width="0.5" stroke-opacity="0.298039215686" d="M9.55 8.4 Q8.9 9.3 7.65 9.4 6.9 9.25 6.15 8.35"/></g><g id="c71"><path fill="#9e813d" stroke="none" d="M4.1 5.25 L5.15 5.25 Q4.85 10.3 6.1 13.45 L4.9 14.55 4.25 14.75 4.05 13.7 3.55 14.55 Q2.5 14.45 1.9 13.7 3.3 10.2 2.8 5.25 L4.1 5.25 3.95 7.3 4.1 5.25 M4.9 14.55 L4.55 12.05 4.9 14.55"/><path fill="none" stroke="#000000" stroke-width="0.5" stroke-opacity="0.298039215686" d="M4.1 5.25 L5.15 5.25 Q4.85 10.3 6.1 13.45 L4.9 14.55 4.25 14.75 4.05 13.7 3.55 14.55 Q2.5 14.45 1.9 13.7 3.3 10.2 2.8 5.25 L4.1 5.25 3.95 7.3 M4.55 12.05 L4.9 14.55"/><path fill="#c9b45b" stroke="none" d="M6.55 3.45 Q6.95 4.45 6.55 5.45 4.85 6.9 2.55 6.1 1.25 5.75 0.4 4.8 -0.25 3.6 0.4 2.4 4.2 0.9 6.55 3.45 4.2 5.1 1.35 4.05 4.2 5.1 6.55 3.45"/><path fill="none" stroke="#000000" stroke-width="0.5" stroke-opacity="0.298039215686" d="M6.55 3.45 Q6.95 4.45 6.55 5.45 4.85 6.9 2.55 6.1 1.25 5.75 0.4 4.8 -0.25 3.6 0.4 2.4 M6.55 3.45 Q4.2 5.1 1.35 4.05"/><path fill="#5e5848" stroke="none" d="M2.7 4.1 L2.6 3.05 2.7 4.1 Q0.85 3.3 0.4 2.4 1.45 1.2 3.75 0.95 5.75 1.8 6.7 3.35 5.2 4.35 3.45 4.25 L3.0 4.2 2.7 4.1 M4.0 3.3 L3.45 4.25 4.0 3.3"/><path fill="none" stroke="#000000" stroke-width="0.5" stroke-opacity="0.298039215686" d="M2.6 3.05 L2.7 4.1 3.0 4.2 3.45 4.25 4.0 3.3 M6.7 3.35 Q5.2 4.35 3.45 4.25 M2.7 4.1 Q0.85 3.3 0.4 2.4"/><path fill="#933323" stroke="none" d="M3.55 1.35 Q1.45 1.55 0.0 3.35 0.75 -0.1 4.2 0.0 7.6 0.75 6.8 4.75 5.75 1.9 3.55 1.35"/><path fill="none" stroke="#000000" stroke-width="0.5" stroke-opacity="0.298039215686" d="M3.55 1.35 Q1.45 1.55 0.0 3.35 0.75 -0.1 4.2 0.0 7.6 0.75 6.8 4.75 5.75 1.9 3.55 1.35"/></g><radialGradient gradientUnits="userSpaceOnUse" r="819.2" cx="0" cy="0" spreadMethod="pad" gradientTransform="matrix(0.0173950195312,0.0,0.0,0.0137481689453,12.55,7.45)" id="gradient14"><stop offset="0.607843137255" stop-color="#5e5946"/><stop offset="1.0" stop-color="#444132"/></radialGradient><g id="c72"><path stroke="none" fill="url(#gradient14)" d="M2.5 5.35 Q5.7 -2.1 18.65 0.85 26.75 3.4 31.4 12.0 34.1 19.8 27.1 22.75 18.45 26.85 7.55 23.05 2.7 21.2 1.8 19.95 -2.15 11.5 2.5 5.35"/><path fill="none" stroke="#000000" stroke-width="0.5" stroke-opacity="0.298039215686" d="M2.5 5.35 Q5.7 -2.1 18.65 0.85 26.75 3.4 31.4 12.0 34.1 19.8 27.1 22.75 18.45 26.85 7.55 23.05 2.7 21.2 1.8 19.95 -2.15 11.5 2.5 5.35"/></g><g id="c73"><path fill="#e6dac0" stroke="none" d="M21.35 0.1 Q24.7 1.45 25.65 2.9 26.1 4.2 26.0 5.25 L25.35 6.25 Q23.55 8.2 18.6 8.6 16.2 10.0 14.0 10.9 5.75 14.2 0.3 10.15 -0.2 9.2 0.2 8.35 3.6 3.95 16.0 4.85 19.95 -0.8 21.35 0.1"/><path fill="#afa38b" stroke="none" d="M26.0 5.25 Q25.9 6.25 25.35 7.0 23.7 9.15 18.3 9.6 16.05 11.35 14.0 12.45 7.15 15.95 2.1 12.05 0.75 11.05 0.3 10.15 5.75 14.2 14.0 10.9 16.2 10.0 18.6 8.6 23.55 8.2 25.35 6.25 L26.0 5.25"/><path fill="none" stroke="#000000" stroke-width="0.5" stroke-opacity="0.298039215686" d="M21.35 0.1 Q24.7 1.45 25.65 2.9 26.1 4.2 26.0 5.25 25.9 6.25 25.35 7.0"/></g><g id="c74"><path fill="#504b37" stroke="none" d="M-7.75 -0.05 Q-5.05 -2.25 -0.85 -1.9 L0.9 -3.75 2.5 -3.35 Q3.5 -4.55 5.8 -5.5 L5.45 -4.45 Q7.45 -4.8 8.5 -3.95 L7.7 -0.85 Q1.7 -3.55 -3.25 2.45 L-9.0 2.15 Q-7.95 1.2 -5.8 0.5 L-4.45 0.5 Q-5.75 -0.7 -7.75 -0.05"/><path fill="#3d3825" stroke="none" d="M7.7 -0.85 L9.05 -0.25 Q7.75 3.15 4.35 4.2 -2.15 6.65 -9.0 4.45 L-6.6 2.6 -9.0 2.15 -3.25 2.45 Q1.7 -3.55 7.7 -0.85 M-5.8 0.5 L-7.75 -0.05 Q-5.75 -0.7 -4.45 0.5 L-5.8 0.5"/><path fill="none" stroke="#000000" stroke-width="0.5" stroke-opacity="0.298039215686" d="M-7.75 -0.05 Q-5.05 -2.25 -0.85 -1.9 L0.9 -3.75 2.5 -3.35 Q3.5 -4.55 5.8 -5.5 L5.45 -4.45 Q7.45 -4.8 8.5 -3.95 L7.7 -0.85 9.05 -0.25 Q7.75 3.15 4.35 4.2 -2.15 6.65 -9.0 4.45 L-6.6 2.6 -9.0 2.15 Q-7.95 1.2 -5.8 0.5 L-7.75 -0.05"/></g><g id="c75"><path fill="#443f2c" stroke="none" d="M-6.7 7.75 Q-6.3 6.5 -6.45 4.8 L-3.3 4.8 Q-4.35 6.45 -6.7 7.75"/><path fill="#322c1e" stroke="none" d="M-6.45 4.8 Q-9.45 3.0 -10.7 1.05 L-5.4 -3.95 Q2.45 -2.05 9.35 -7.7 9.5 -1.9 10.75 -2.55 10.75 -0.2 9.1 1.35 3.7 6.9 -3.35 6.45 -4.8 7.8 -6.7 7.75 -4.35 6.45 -3.3 4.8 L-6.45 4.8"/><path fill="none" stroke="#000000" stroke-width="0.5" stroke-opacity="0.298039215686" d="M-6.45 4.8 Q-9.45 3.0 -10.7 1.05 L-5.4 -3.95 Q2.45 -2.05 9.35 -7.7 9.5 -1.9 10.75 -2.55 10.75 -0.2 9.1 1.35 3.7 6.9 -3.35 6.45 -4.8 7.8 -6.7 7.75 -6.3 6.5 -6.45 4.8"/></g><radialGradient gradientUnits="userSpaceOnUse" r="819.2" cx="0" cy="0" spreadMethod="pad" gradientTransform="matrix(0.0132293701172,0.0,0.0,0.0132293701172,18.5,10.1)" id="gradient15"><stop offset="0.447058823529" stop-color="#6e2512"/><stop offset="1.0" stop-color="#7a331f"/></radialGradient><g id="c76"><path fill="#a44225" stroke="none" d="M33.45 2.5 L33.05 3.75 Q32.6 2.8 31.7 2.45 L32.65 0.0 Q33.95 0.25 33.45 2.5"/><path fill="#6f2315" stroke="none" d="M9.05 14.05 L6.25 12.9 Q1.8 11.1 0.4 8.4 0.25 7.65 0.9 6.85 -0.55 4.25 0.4 2.5 1.7 4.7 6.25 6.9 L7.6 7.3 Q5.6 7.75 6.75 8.95 9.5 10.95 14.0 12.1 L5.65 11.05 Q6.75 12.55 9.05 14.05"/><path fill="#9d3a27" stroke="none" d="M17.2 8.25 Q17.5 10.5 15.2 12.4 17.15 13.45 16.1 15.3 12.35 15.1 9.05 14.05 6.75 12.55 5.65 11.05 L14.0 12.1 Q9.5 10.95 6.75 8.95 5.6 7.75 7.6 7.3 11.85 8.45 17.2 8.25"/><path stroke="none" fill="url(#gradient15)" d="M31.7 2.45 Q32.6 2.8 33.05 3.75 L33.45 2.5 Q34.0 3.95 34.15 5.25 34.45 7.6 33.05 9.55 31.2 12.55 26.95 14.0 21.15 15.5 16.1 15.3 17.15 13.45 15.2 12.4 17.5 10.5 17.2 8.25 L25.9 7.15 Q29.9 5.55 31.7 2.45"/><path fill="none" stroke="#000000" stroke-width="0.5" stroke-opacity="0.298039215686" d="M33.45 2.5 Q33.95 0.25 32.65 0.0 L31.7 2.45 Q29.9 5.55 25.9 7.15 L17.2 8.25 M16.1 15.3 Q21.15 15.5 26.95 14.0 31.2 12.55 33.05 9.55 34.45 7.6 34.15 5.25 34.0 3.95 33.45 2.5 M9.05 14.05 L6.25 12.9 Q1.8 11.1 0.4 8.4 0.25 7.65 0.9 6.85 -0.55 4.25 0.4 2.5 1.7 4.7 6.25 6.9 L7.6 7.3 Q11.85 8.45 17.2 8.25 M9.05 14.05 Q12.35 15.1 16.1 15.3"/><path fill="none" stroke="#000000" stroke-width="0.5" stroke-opacity="0.298039215686" d="M3.8 7.45 Q7.0 10.3 11.1 11.55 7.9 11.05 5.95 10.15"/></g><radialGradient gradientUnits="userSpaceOnUse" r="819.2" cx="0" cy="0" spreadMethod="pad" gradientTransform="matrix(0.00857543945312,0.0,-0.0001220703125,0.009765625,6.95,9.7)" id="gradient16"><stop offset="0.733333333333" stop-color="#36130d"/><stop offset="1.0" stop-color="#36130d" stop-opacity="0.0"/></radialGradient><radialGradient gradientUnits="userSpaceOnUse" r="819.2" cx="0" cy="0" spreadMethod="pad" gradientTransform="matrix(0.0115661621094,0.0,0.0,0.0115661621094,11.1,15.55)" id="gradient17"><stop offset="0.447058823529" stop-color="#8f2f1f"/><stop offset="1.0" stop-color="#691b0e"/></radialGradient><radialGradient gradientUnits="userSpaceOnUse" r="819.2" cx="0" cy="0" spreadMethod="pad" gradientTransform="matrix(0.0109252929688,0.0,-0.00105285644531,0.00973510742188,7.4,6.05)" id="gradient18"><stop offset="0.447058823529" stop-color="#b76847"/><stop offset="1.0" stop-color="#a5432a"/></radialGradient><radialGradient gradientUnits="userSpaceOnUse" r="819.2" cx="0" cy="0" spreadMethod="pad" gradientTransform="matrix(0.00621032714844,0.0,-0.00067138671875,0.00621032714844,12.5,11.95)" id="gradient19"><stop offset="0.447058823529" stop-color="#8f2f1f"/><stop offset="1.0" stop-color="#724325"/></radialGradient><g id="c77"><path stroke="none" fill="url(#gradient16)" d="M7.05 1.75 Q9.95 1.75 12.0 4.1 14.0 6.45 13.95 9.7 13.9 13.0 11.85 15.35 9.75 17.65 6.85 17.65 4.0 17.65 2.0 15.35 -0.05 13.0 0.0 9.7 0.05 6.45 2.15 4.1 4.2 1.75 7.05 1.75"/><path fill="#a5a281" stroke="none" d="M7.65 1.45 L7.65 1.55 Q6.05 1.9 5.05 2.35 5.2 3.15 4.6 3.5 3.5 3.85 3.25 4.8 L2.95 6.45 2.6 6.7 2.4 7.2 Q1.8 8.8 1.7 10.1 1.4 8.35 1.55 6.1 2.3 4.05 4.0 2.45 6.6 -0.1 9.9 -0.1 11.75 -0.1 13.15 0.65 L10.55 0.35 10.55 0.65 Q9.1 0.7 7.65 1.3 L7.65 1.45"/><path fill="#80805e" stroke="none" d="M1.8 11.95 L2.4 13.25 3.45 13.75 2.9 14.15 Q4.65 16.7 8.5 17.15 L8.05 17.15 Q4.7 17.15 2.65 14.65 1.75 13.55 1.3 12.25 0.75 10.55 0.95 8.55 1.1 7.25 1.55 6.1 1.4 8.35 1.7 10.1 1.6 11.1 1.8 11.95 M10.9 16.65 Q11.85 15.85 12.5 14.65 L12.45 15.85 10.9 16.65"/><path fill="#541f0f" stroke="none" d="M17.0 7.35 L16.55 9.1 Q16.1 10.4 15.25 11.5 15.65 10.35 15.35 9.1 L15.3 8.95 15.3 9.1 Q15.0 12.4 12.25 13.55 L11.1 13.9 7.3 13.55 6.2 12.75 4.95 11.85 Q3.4 11.1 1.95 11.85 L1.8 11.95 Q1.6 11.1 1.7 10.1 L1.8 10.75 Q6.75 11.65 12.15 10.15 L12.25 10.1 Q15.15 8.65 16.25 6.35 16.7 6.35 17.0 7.35"/><path stroke="none" fill="url(#gradient17)" d="M17.05 7.55 L17.0 8.55 Q16.6 12.1 14.0 14.65 L12.45 15.85 12.5 14.65 Q11.85 15.85 10.9 16.65 9.75 17.1 8.5 17.15 4.65 16.7 2.9 14.15 L3.45 13.75 2.4 13.25 1.8 11.95 1.95 11.85 Q3.4 11.1 4.95 11.85 L6.2 12.75 7.3 13.55 11.1 13.9 12.25 13.55 Q15.0 12.4 15.3 9.1 L15.3 8.95 15.35 9.1 Q15.65 10.35 15.25 11.5 16.1 10.4 16.55 9.1 L17.0 7.35 17.05 7.55"/><path fill="#ca7445" stroke="none" d="M2.4 7.2 Q2.45 9.75 3.6 10.45 L12.15 10.15 Q6.75 11.65 1.8 10.75 L1.7 10.1 Q1.8 8.8 2.4 7.2"/><path fill="#c06344" stroke="none" d="M16.85 5.55 Q15.2 2.3 12.45 1.65 L7.65 1.45 7.65 1.3 Q9.1 0.7 10.55 0.65 L10.55 0.35 13.15 0.65 Q14.35 1.3 15.3 2.45 16.45 3.85 16.85 5.55"/><path stroke="none" fill="url(#gradient18)" d="M17.05 7.55 L17.0 7.35 Q16.7 6.35 16.25 6.35 15.15 8.65 12.25 10.1 L12.15 10.15 3.6 10.45 Q2.45 9.75 2.4 7.2 L2.6 6.7 2.95 6.45 3.25 4.8 Q3.5 3.85 4.6 3.5 5.2 3.15 5.05 2.35 6.05 1.9 7.65 1.55 L7.65 1.45 12.45 1.65 Q15.2 2.3 16.85 5.55 L17.05 7.0 17.05 7.55"/><path fill="none" stroke="#000000" stroke-width="0.5" stroke-opacity="0.298039215686" d="M12.45 15.85 L14.0 14.65 Q16.6 12.1 17.0 8.55 L17.05 7.55 17.05 7.0 16.85 5.55 Q16.45 3.85 15.3 2.45 14.35 1.3 13.15 0.65 11.75 -0.1 9.9 -0.1 6.6 -0.1 4.0 2.45 2.3 4.05 1.55 6.1 1.1 7.25 0.95 8.55 0.75 10.55 1.3 12.25 1.75 13.55 2.65 14.65 4.7 17.15 8.05 17.15 L8.5 17.15 Q9.75 17.1 10.9 16.65 M12.45 15.85 L10.9 16.65"/><path fill="#8b8c6c" stroke="none" d="M11.0 5.3 L11.9 5.2 Q13.6 5.2 14.65 6.5 L15.0 7.0 Q14.55 6.45 13.95 6.2 L13.45 6.45 13.3 5.85 Q12.55 5.35 11.0 5.3"/><path fill="#80805e" stroke="none" d="M10.3 14.0 Q9.05 13.8 8.15 12.75 7.1 11.45 7.3 9.6 7.5 7.8 8.85 6.5 L9.05 6.35 Q7.6 8.35 7.7 10.05 L8.4 11.55 8.1 12.1 Q8.9 13.35 10.3 14.0"/><path stroke="none" fill="url(#gradient19)" d="M15.0 7.0 Q15.7 8.1 15.5 9.6 15.3 11.45 13.95 12.75 12.65 14.05 10.95 14.05 L10.3 14.0 Q8.9 13.35 8.1 12.1 L8.4 11.55 7.7 10.05 Q7.6 8.35 9.05 6.35 9.95 5.5 11.0 5.3 12.55 5.35 13.3 5.85 L13.45 6.45 13.95 6.2 Q14.55 6.45 15.0 7.0"/><path fill="none" stroke="#000000" stroke-width="0.5" stroke-opacity="0.298039215686" d="M11.0 5.3 L11.9 5.2 Q13.6 5.2 14.65 6.5 L15.0 7.0 M10.3 14.0 Q9.05 13.8 8.15 12.75 7.1 11.45 7.3 9.6 7.5 7.8 8.85 6.5 L9.05 6.35"/><path fill="#aca088" stroke="none" d="M15.15 7.85 Q15.25 10.05 13.3 12.25 L13.0 11.85 12.3 12.8 12.2 12.5 11.4 12.95 Q9.55 12.9 8.4 11.7 7.65 10.95 8.0 10.45 L9.45 10.0 Q9.8 6.75 11.2 5.8 L11.55 6.6 11.7 5.75 Q13.15 5.9 13.8 7.8 L14.7 7.1 Q15.1 6.75 15.15 7.85 M12.9 10.65 L13.9 9.4 Q13.95 8.7 13.55 8.95 13.0 9.7 12.9 10.65 M12.0 11.0 L12.25 10.4 9.95 10.65 12.0 11.0"/><path fill="none" stroke="#000000" stroke-width="0.5" stroke-opacity="0.298039215686" d="M9.2 2.05 Q10.0 2.85 10.2 3.5"/><path fill="none" stroke="#000000" stroke-width="0.5" stroke-opacity="0.298039215686" d="M9.55 1.3 Q10.8 2.75 11.1 4.25"/><path fill="none" stroke="#000000" stroke-width="0.5" stroke-opacity="0.298039215686" d="M7.85 2.9 Q10.05 2.5 12.25 3.4"/><path fill="none" stroke="#000000" stroke-width="0.5" stroke-opacity="0.298039215686" d="M6.9 12.95 Q5.95 14.25 4.5 14.9 6.35 14.7 7.95 13.15"/><path fill="#541f0f" stroke="none" d="M4.55 11.2 L4.2 11.9 3.55 12.15 2.9 11.9 Q2.65 11.6 2.7 11.2 2.7 10.8 3.0 10.5 3.3 10.25 3.7 10.25 4.1 10.25 4.35 10.5 L4.55 11.2"/><path fill="#90895f" stroke="none" d="M4.45 10.75 L4.2 11.15 3.6 11.4 3.05 11.15 2.9 10.6 2.9 10.5 3.0 10.35 Q3.3 10.1 3.65 10.1 4.0 10.1 4.25 10.35 L4.45 10.75"/><path fill="#474826" stroke="none" d="M2.9 10.5 L2.9 10.6 3.05 11.15 3.6 11.4 4.2 11.15 4.45 10.75 4.45 11.0 4.15 11.65 3.5 11.9 2.9 11.65 Q2.65 11.35 2.7 11.0 L2.9 10.5"/><path fill="none" stroke="#000000" stroke-width="0.5" stroke-opacity="0.298039215686" d="M2.9 10.5 L2.7 11.0 Q2.65 11.35 2.9 11.65 L3.5 11.9 4.15 11.65 4.45 11.0 4.45 10.75 4.25 10.35 Q4.0 10.1 3.65 10.1 3.3 10.1 3.0 10.35 L2.9 10.5"/><path fill="#d7d89c" stroke="none" d="M3.55 10.85 L3.45 11.05 3.3 11.1 3.1 11.05 3.05 10.85 3.15 10.65 3.35 10.6 3.5 10.65 3.55 10.85"/><path fill="#6c3820" stroke="none" d="M4.6 4.95 Q4.65 4.5 4.95 4.2 5.25 3.9 5.65 3.9 6.05 3.9 6.3 4.2 L6.5 4.95 6.15 5.7 Q5.85 6.05 5.45 6.05 5.1 6.05 4.85 5.7 4.6 5.4 4.6 4.95"/><path fill="#b3af94" stroke="none" d="M4.95 5.45 L4.85 5.35 Q4.6 5.05 4.65 4.7 4.7 4.3 4.95 4.05 5.25 3.8 5.6 3.8 L6.2 4.05 6.4 4.7 6.2 5.2 6.1 5.05 Q6.0 4.85 5.75 4.85 L5.25 5.05 4.95 5.45"/><path fill="#81785b" stroke="none" d="M6.2 5.2 L6.1 5.35 5.45 5.6 4.95 5.45 5.25 5.05 5.75 4.85 Q6.0 4.85 6.1 5.05 L6.2 5.2"/><path fill="none" stroke="#000000" stroke-width="0.5" stroke-opacity="0.298039215686" d="M4.95 5.45 L4.85 5.35 Q4.6 5.05 4.65 4.7 4.7 4.3 4.95 4.05 5.25 3.8 5.6 3.8 L6.2 4.05 6.4 4.7 6.2 5.2 6.1 5.35 5.45 5.6 4.95 5.45"/><path fill="#dad9bd" stroke="none" d="M5.55 4.4 L5.45 4.6 5.25 4.65 5.1 4.6 5.05 4.4 5.1 4.2 5.3 4.15 5.5 4.2 5.55 4.4"/><path fill="#6c3820" stroke="none" d="M11.35 1.45 L12.1 1.65 12.65 2.15 Q12.8 2.45 12.6 2.65 L12.05 2.85 11.3 2.6 10.8 2.15 Q10.65 1.85 10.8 1.65 11.0 1.45 11.35 1.45"/><path fill="#b3af94" stroke="none" d="M13.3 2.05 Q13.15 2.25 12.8 2.25 L12.05 2.05 11.6 1.6 Q11.45 1.35 11.6 1.15 L12.15 1.0 12.9 1.2 13.35 1.65 Q13.5 1.9 13.3 2.05"/><path fill="none" stroke="#000000" stroke-width="0.5" stroke-opacity="0.298039215686" d="M13.3 2.05 Q13.15 2.25 12.8 2.25 L12.05 2.05 11.6 1.6 Q11.45 1.35 11.6 1.15 L12.15 1.0 12.9 1.2 13.35 1.65 Q13.5 1.9 13.3 2.05"/><path fill="#dad9bd" stroke="none" d="M11.5 1.5 L11.7 1.55 11.8 1.65 11.8 1.8 11.65 1.85 11.45 1.8 11.3 1.65 11.3 1.5 11.5 1.5"/><path fill="#80805e" stroke="none" d="M7.3 15.65 L7.8 15.3 8.65 15.2 9.3 15.45 9.4 15.85 8.85 16.25 8.0 16.3 7.35 16.1 Q7.15 15.9 7.3 15.65"/><path fill="none" stroke="#000000" stroke-width="0.5" stroke-opacity="0.298039215686" d="M7.3 15.65 L7.8 15.3 8.65 15.2 9.3 15.45 9.4 15.85 8.85 16.25 8.0 16.3 7.35 16.1 Q7.15 15.9 7.3 15.65"/><path fill="#80805e" stroke="none" d="M14.4 13.65 L14.5 13.1 14.9 12.5 Q15.15 12.25 15.4 12.2 L15.6 12.35 15.5 12.9 15.1 13.5 Q14.85 13.75 14.6 13.8 L14.4 13.65"/><path fill="none" stroke="#000000" stroke-width="0.5" stroke-opacity="0.298039215686" d="M14.4 13.65 L14.5 13.1 14.9 12.5 Q15.15 12.25 15.4 12.2 L15.6 12.35 15.5 12.9 15.1 13.5 Q14.85 13.75 14.6 13.8 L14.4 13.65"/><path fill="#a19c7c" stroke="none" d="M16.55 6.65 L16.4 7.05 16.0 7.15 15.65 6.7 15.55 6.3 15.75 5.9 Q15.9 5.7 16.15 5.8 L16.5 6.25 16.55 6.65"/><path fill="#696548" stroke="none" d="M16.55 6.65 L16.6 7.05 16.35 7.65 15.95 7.8 15.65 7.3 15.55 6.55 15.55 6.3 15.65 6.7 16.0 7.15 16.4 7.05 16.55 6.65"/><path fill="none" stroke="#000000" stroke-width="0.5" stroke-opacity="0.298039215686" d="M15.55 6.3 L15.55 6.55 15.65 7.3 15.95 7.8 16.35 7.65 16.6 7.05 16.55 6.65 M15.55 6.3 L15.75 5.9 Q15.9 5.7 16.15 5.8 L16.5 6.25 16.55 6.65"/></g><g id="c78"><path fill="#5e5848" stroke="none" d="M3.5 4.95 Q3.55 6.15 2.65 6.2 0.6 6.1 0.65 4.25 3.3 2.95 3.5 4.95"/><path fill="none" stroke="#000000" stroke-width="0.5" stroke-opacity="0.298039215686" d="M3.5 4.95 Q3.55 6.15 2.65 6.2 0.6 6.1 0.65 4.25 3.3 2.95 3.5 4.95"/><path fill="#5e5848" stroke="none" d="M8.55 4.1 Q9.05 6.0 6.6 6.25 5.05 6.05 5.15 4.55 6.2 3.8 8.55 4.1"/><path fill="none" stroke="#000000" stroke-width="0.5" stroke-opacity="0.298039215686" d="M8.55 4.1 Q9.05 6.0 6.6 6.25 5.05 6.05 5.15 4.55 6.2 3.8 8.55 4.1"/><path fill="#5e5848" stroke="none" d="M5.3 5.25 Q5.75 7.6 3.3 6.55 2.2 6.1 2.15 5.25 4.45 3.7 5.3 5.25"/><path fill="none" stroke="#000000" stroke-width="0.5" stroke-opacity="0.298039215686" d="M5.3 5.25 Q5.75 7.6 3.3 6.55 2.2 6.1 2.15 5.25 4.45 3.7 5.3 5.25"/><path fill="#5e5848" stroke="none" d="M6.4 4.45 Q7.55 5.35 6.75 6.65 5.7 7.5 4.4 6.65 3.8 6.25 3.85 5.45 4.3 4.4 6.4 4.45"/><path fill="none" stroke="#000000" stroke-width="0.5" stroke-opacity="0.298039215686" d="M6.4 4.45 Q7.55 5.35 6.75 6.65 5.7 7.5 4.4 6.65 3.8 6.25 3.85 5.45 4.3 4.4 6.4 4.45"/><path fill="#5e5848" stroke="none" d="M7.4 1.5 Q9.1 3.35 8.15 4.05 L7.55 4.3 7.2 4.4 6.9 4.45 5.95 4.45 5.7 5.15 Q1.8 6.05 0.2 4.25 L-0.15 3.55 Q0.4 4.25 1.25 4.3 5.2 4.3 7.4 1.5"/><path fill="#433d2f" stroke="none" d="M-0.15 3.55 Q-0.45 2.55 0.2 1.25 3.75 -1.4 7.0 1.1 L7.4 1.5 Q5.2 4.3 1.25 4.3 0.4 4.25 -0.15 3.55"/><path fill="none" stroke="#000000" stroke-width="0.5" stroke-opacity="0.298039215686" d="M-0.15 3.55 Q-0.45 2.55 0.2 1.25 3.75 -1.4 7.0 1.1 L7.4 1.5 Q9.1 3.35 8.15 4.05 M6.9 4.45 L5.95 4.45 5.7 5.15 M0.2 4.25 L-0.15 3.55"/></g><g id="c79"><path fill="#5e5946" stroke="none" d="M0.9 2.8 Q5.65 -2.65 12.15 2.55 12.4 5.65 10.1 10.3 5.95 13.0 3.1 10.85 0.7 7.2 0.65 5.15 L0.0 3.95 Q0.2 3.2 0.9 2.8"/><path fill="none" stroke="#000000" stroke-width="0.5" stroke-opacity="0.298039215686" d="M0.9 2.8 Q5.65 -2.65 12.15 2.55 12.4 5.65 10.1 10.3 5.95 13.0 3.1 10.85 0.7 7.2 0.65 5.15 L0.0 3.95 Q0.2 3.2 0.9 2.8"/><path fill="#983122" stroke="none" d="M0.95 8.2 Q0.1 6.65 0.5 5.15 2.7 7.5 7.2 7.65 9.35 7.85 11.35 6.85 6.75 13.45 0.95 8.2"/><path fill="#6d2316" stroke="none" d="M11.35 6.85 Q11.9 7.6 10.9 8.95 11.3 10.35 9.0 11.5 6.6 12.5 4.65 12.25 2.05 11.4 1.65 9.2 L0.95 8.2 Q6.75 13.45 11.35 6.85 M10.9 8.95 Q10.05 9.95 9.05 10.45 10.05 9.95 10.9 8.95"/><path fill="none" stroke="#000000" stroke-width="0.5" stroke-opacity="0.298039215686" d="M11.35 6.85 Q11.9 7.6 10.9 8.95 11.3 10.35 9.0 11.5 6.6 12.5 4.65 12.25 2.05 11.4 1.65 9.2 L0.95 8.2 Q0.1 6.65 0.5 5.15 2.7 7.5 7.2 7.65 9.35 7.85 11.35 6.85 M9.05 10.45 Q10.05 9.95 10.9 8.95"/></g><g id="c80"><path fill="#5e5946" stroke="none" d="M0.0 7.45 Q1.85 2.3 4.25 0.75 5.95 -0.45 8.6 0.25 12.9 1.55 12.55 5.7 12.3 6.85 11.1 8.9 9.9 10.95 6.1 11.2 4.4 11.25 2.6 10.45 0.8 9.65 0.0 7.45"/><path fill="none" stroke="#000000" stroke-width="0.5" stroke-opacity="0.298039215686" d="M0.0 7.45 Q1.85 2.3 4.25 0.75 M12.55 5.7 Q12.3 6.85 11.1 8.9"/></g><radialGradient gradientUnits="userSpaceOnUse" r="819.2" cx="0" cy="0" spreadMethod="pad" gradientTransform="matrix(0.00869750976562,0.0,0.0,0.00762939453125,5.5,3.5)" id="gradient20"><stop offset="0.423529411765" stop-color="#7a765f"/><stop offset="1.0" stop-color="#5e5946"/></radialGradient><g id="c81"><path stroke="none" fill="url(#gradient20)" d="M0.05 5.45 L0.25 4.65 Q2.2 0.95 4.95 0.0 12.65 0.2 10.8 8.35 8.15 9.7 3.95 9.35 2.5 9.25 0.8 8.55 -0.2 7.35 0.05 5.45"/><path fill="none" stroke="#000000" stroke-width="0.5" stroke-opacity="0.298039215686" d="M0.05 5.45 L0.25 4.65 Q2.2 0.95 4.95 0.0"/></g><g id="c82"><path fill="#b9a863" stroke="none" d="M17.85 4.9 Q18.35 7.9 15.4 10.85 10.65 12.85 4.05 9.9 10.25 11.1 15.3 9.35 17.15 7.55 17.85 4.9"/><path fill="#8d7e47" stroke="none" d="M4.05 9.9 L0.7 8.15 Q-1.15 4.5 1.8 1.2 9.4 -1.75 16.95 2.65 17.65 3.8 17.85 4.9 17.15 7.55 15.3 9.35 10.25 11.1 4.05 9.9"/><path fill="none" stroke="#000000" stroke-width="0.5" stroke-opacity="0.298039215686" d="M4.05 9.9 L0.7 8.15 Q-1.15 4.5 1.8 1.2 9.4 -1.75 16.95 2.65 17.65 3.8 17.85 4.9 18.35 7.9 15.4 10.85 10.65 12.85 4.05 9.9"/><path fill="none" stroke="#000000" stroke-width="0.5" stroke-opacity="0.298039215686" d="M16.5 9.45 Q17.45 6.85 14.5 5.5 15.1 9.85 12.25 11.6 M14.5 5.5 Q12.05 10.15 9.0 11.3"/></g><radialGradient gradientUnits="userSpaceOnUse" r="819.2" cx="0" cy="0" spreadMethod="pad" gradientTransform="matrix(0.0141906738281,0.00392150878906,-0.00430297851562,0.00819396972656,11.25,5.7)" id="gradient21"><stop offset="0.827450980392" stop-color="#444132"/><stop offset="1.0" stop-color="#444132" stop-opacity="0.0"/></radialGradient><g id="c83"><path stroke="none" fill="url(#gradient21)" d="M21.2 9.35 Q19.95 11.75 16.0 12.6 L7.8 12.25 Q3.5 11.05 1.35 8.5 -0.8 6.0 0.45 3.6 1.7 1.2 5.65 0.35 L13.85 0.7 Q18.15 1.9 20.3 4.4 22.45 6.95 21.2 9.35"/></g><g id="c84"><g><use transform="matrix(1.84997558594,0.0,0.0,1.84997558594,-32.65,-16.05)" xlink:href="#c52"/></g><g><use transform="matrix(1.84997558594,0.0,0.0,1.84997558594,-68.6,-81.9)" xlink:href="#c53"/></g><g><use transform="matrix(1.84997558594,0.0,0.0,1.84997558594,-70.85,-73.45)" xlink:href="#c54"/></g><g><use transform="matrix(1.84997558594,0.0,0.0,1.84997558594,-53.25,-58.75)" xlink:href="#c55"/></g><g><use transform="matrix(1.84997558594,0.0,0.0,1.84997558594,3.4,-83.75)" xlink:href="#c56"/></g><g><use transform="matrix(1.84997558594,0.0,0.0,1.84997558594,18.0,-81.35)" xlink:href="#c57"/></g><g><use transform="matrix(1.84997558594,0.0,0.0,1.84997558594,21.35,-83.55)" xlink:href="#c58"/></g><g><use transform="matrix(1.84997558594,0.0,0.0,1.84997558594,-30.3,-123.5)" xlink:href="#c59"/></g><g><use transform="matrix(1.84997558594,0.0,0.0,1.84997558594,-19.4,-71.95)" xlink:href="#c60"/></g><g><use transform="matrix(1.84997558594,0.0,0.0,1.84997558594,9.8,-26.2)" xlink:href="#c61"/></g><g><use transform="matrix(1.84997558594,0.0,0.0,1.84997558594,5.5,-37.2)" xlink:href="#c62"/></g><g><use transform="matrix(1.84997558594,0.0,0.0,1.84997558594,2.0,-45.15)" xlink:href="#c63"/></g><g><use transform="matrix(1.84997558594,0.0,0.0,1.84997558594,10.6,-26.65)" xlink:href="#c64"/></g><g><use transform="matrix(1.84997558594,0.0,0.0,1.84997558594,-1.25,-31.95)" xlink:href="#c65"/></g><g><use transform="matrix(1.84997558594,0.0,0.0,1.84997558594,-17.2,-27.4)" xlink:href="#c66"/></g><g><use transform="matrix(1.84997558594,0.0,0.0,1.84997558594,-31.35,-51.65)" xlink:href="#c67"/></g><g><use transform="matrix(1.84997558594,0.0,0.0,1.84997558594,-21.9,-14.45)" xlink:href="#c68"/></g><g><use transform="matrix(1.84997558594,0.0,0.0,1.84997558594,-27.15,-25.35)" xlink:href="#c69"/></g><g><use transform="matrix(1.84997558594,0.0,0.0,1.84997558594,-30.6,-34.6)" xlink:href="#c70"/></g><g><use transform="matrix(1.84997558594,0.0,0.0,1.84997558594,-23.75,-16.6)" xlink:href="#c71"/></g><g><use transform="matrix(1.84997558594,0.0,0.0,1.84997558594,-30.85,-80.95)" xlink:href="#c72"/></g><g><use transform="matrix(1.84997558594,0.0,0.0,1.84997558594,-19.5,-67.45)" xlink:href="#c73"/></g><g><use transform="matrix(1.84997558594,0.0,0.0,1.84997558594,10.1,-49.65)" xlink:href="#c74"/></g><g><use transform="matrix(1.84997558594,0.0,0.0,1.84997558594,7.85,-35.2)" xlink:href="#c75"/></g><g><use transform="matrix(1.84997558594,0.0,0.0,1.84997558594,-31.6,-57.85)" xlink:href="#c76"/></g><g><use transform="matrix(1.84997558594,0.0,0.0,1.84997558594,-1.65,-54.95)" xlink:href="#c77"/></g><g><use transform="matrix(1.84997558594,0.0,0.0,1.84997558594,-38.55,-39.15)" xlink:href="#c78"/></g><g><use transform="matrix(1.84997558594,0.0,0.0,1.84997558594,-43.25,-55.45)" xlink:href="#c79"/></g><g><use transform="matrix(1.84997558594,0.0,0.0,1.84997558594,-42.05,-63.75)" xlink:href="#c80"/></g><g><use transform="matrix(1.84997558594,0.0,0.0,1.84997558594,-35.3,-71.35)" xlink:href="#c81"/></g><g><use transform="matrix(1.84997558594,0.0,0.0,1.84997558594,-17.35,-78.3)" xlink:href="#c82"/></g><g><use transform="matrix(1.84997558594,0.0,0.0,1.84997558594,-25.25,-81.25)" xlink:href="#c83"/></g><g><use transform="matrix(1.84997558594,0.0,0.0,1.84997558594,-0.15,-91.65)" xlink:href="#c1"/></g><g><use transform="matrix(1.84997558594,0.0,0.0,1.84997558594,-7.65,-105.0)" xlink:href="#c3"/></g><g><use transform="matrix(1.84997558594,0.0,0.0,1.84997558594,-7.65,-105.0)" xlink:href="#c4"/></g><g><use transform="matrix(1.84997558594,0.0,0.0,1.84997558594,-22.35,-82.8)" xlink:href="#c6"/></g><g><use transform="matrix(1.84997558594,0.0,0.0,1.84997558594,-22.35,-82.8)" xlink:href="#c7"/></g><g><use transform="matrix(1.84997558594,0.0,0.0,1.84997558594,-19.65,-93.3)" xlink:href="#c9"/></g><g><use transform="matrix(1.84997558594,0.0,0.0,1.84997558594,-19.65,-93.3)" xlink:href="#c10"/></g><g><use transform="matrix(1.84997558594,0.0,0.0,1.84997558594,3.4,-86.5)" xlink:href="#c12"/></g><g><use transform="matrix(1.84997558594,0.0,0.0,1.84997558594,3.4,-86.5)" xlink:href="#c13"/></g><g><use transform="matrix(1.84997558594,0.0,0.0,1.84997558594,3.4,-86.5)" xlink:href="#c14"/></g><g><use transform="matrix(1.84997558594,0.0,0.0,1.84997558594,3.4,-86.5)" xlink:href="#c15"/></g><g><use transform="matrix(1.84997558594,0.0,0.0,1.84997558594,3.4,-86.5)" xlink:href="#c16"/></g><g><use transform="matrix(1.84997558594,0.0,0.0,1.84997558594,3.4,-86.5)" xlink:href="#c17"/></g><g><use transform="matrix(1.84997558594,0.0,0.0,1.84997558594,-9.2,-76.5)" xlink:href="#c19"/></g><g><use transform="matrix(1.84997558594,0.0,0.0,1.84997558594,-9.2,-76.5)" xlink:href="#c20"/></g><g><use transform="matrix(1.84997558594,0.0,0.0,1.84997558594,-9.2,-76.5)" xlink:href="#c21"/></g><g><use transform="matrix(1.84997558594,0.0,0.0,1.84997558594,-9.2,-76.5)" xlink:href="#c22"/></g><g><use transform="matrix(1.84997558594,0.0,0.0,1.84997558594,-9.2,-76.5)" xlink:href="#c23"/></g><g><use transform="matrix(1.84997558594,0.0,0.0,1.84997558594,-9.2,-76.5)" xlink:href="#c24"/></g><g><use transform="matrix(1.84997558594,0.0,0.0,1.84997558594,-9.2,-76.5)" xlink:href="#c25"/></g><g><use transform="matrix(1.84997558594,0.0,0.0,1.84997558594,-9.2,-76.5)" xlink:href="#c26"/></g><g><use transform="matrix(1.84997558594,0.0,0.0,1.84997558594,-9.2,-76.5)" xlink:href="#c27"/></g><g><use transform="matrix(1.84997558594,0.0,0.0,1.84997558594,-9.2,-76.5)" xlink:href="#c28"/></g><g><use transform="matrix(1.84997558594,0.0,0.0,1.84997558594,-9.2,-76.5)" xlink:href="#c29"/></g><g><use transform="matrix(1.84997558594,0.0,0.0,1.84997558594,-9.2,-76.5)" xlink:href="#c30"/></g><g><use transform="matrix(1.84997558594,0.0,0.0,1.84997558594,-9.2,-76.5)" xlink:href="#c31"/></g><g><use transform="matrix(1.84997558594,0.0,0.0,1.84997558594,-9.2,-76.5)" xlink:href="#c32"/></g><g><use transform="matrix(1.84997558594,0.0,0.0,1.84997558594,-9.2,-76.5)" xlink:href="#c33"/></g><g><use transform="matrix(1.84997558594,0.0,0.0,1.84997558594,-9.2,-76.5)" xlink:href="#c34"/></g><g><use transform="matrix(1.84997558594,0.0,0.0,1.84997558594,-12.0,-81.65)" xlink:href="#c36"/></g><g><use transform="matrix(1.84997558594,0.0,0.0,1.84997558594,-12.0,-81.65)" xlink:href="#c37"/></g><g><use transform="matrix(1.84997558594,0.0,0.0,1.84997558594,-12.0,-81.65)" xlink:href="#c38"/></g><g><use transform="matrix(1.84997558594,0.0,0.0,1.84997558594,-12.0,-81.65)" xlink:href="#c39"/></g><g><use transform="matrix(1.84997558594,0.0,0.0,1.84997558594,-12.0,-81.65)" xlink:href="#c40"/></g><g><use transform="matrix(1.84997558594,0.0,0.0,1.84997558594,-12.0,-81.65)" xlink:href="#c41"/></g><g><use transform="matrix(1.84997558594,0.0,0.0,1.84997558594,-12.0,-81.65)" xlink:href="#c42"/></g><g><use transform="matrix(1.84997558594,0.0,0.0,1.84997558594,-12.0,-81.65)" xlink:href="#c43"/></g><g><use transform="matrix(1.84997558594,0.0,0.0,1.84997558594,-29.35,-81.75)" xlink:href="#c45"/></g><g><use transform="matrix(1.84997558594,0.0,0.0,1.84997558594,-19.55,-91.0)" xlink:href="#c47"/></g><g><use transform="matrix(1.84997558594,0.0,0.0,1.84997558594,-18.0,-101.45)" xlink:href="#c49"/></g><g><use transform="matrix(1.84997558594,0.0,0.0,1.84997558594,-18.0,-101.45)" xlink:href="#c50"/></g></g><g id="c85"><path fill="#000000" fill-opacity="0.00392156862745" d="M0.0 0.0 L60.0 0.0 60.0 60.0 0.0 60.0 0.0 0.0"/></g><g id="c86"><path fill="none" stroke="#000000" stroke-width="1.0" stroke-opacity="0.301960784314" d="M0.7 12.25 Q-0.45 9.75 0.75 8.25 1.2 7.6 2.15 7.15 2.8 6.7 3.8 6.35 L17.5 1.95 30.2 7.0 41.35 31.7 Q42.95 35.15 40.2 36.7 39.5 37.3 38.3 37.65 L25.5 41.8 25.45 41.75 24.55 42.0 11.85 37.0 0.7 12.25"/><path fill="#9d147b" stroke="none" d="M35.55 22.3 L31.5 13.2 29.75 9.2 16.95 4.25 5.5 7.85 Q1.65 9.1 3.35 12.8 L8.25 23.65 13.1 34.35 25.8 39.4 37.2 35.7 Q41.1 34.5 39.35 30.75 L35.55 22.3 M5.45 20.95 L1.35 11.8 Q0.4 9.65 1.1 8.3 1.45 7.65 2.15 7.15 2.8 6.7 3.8 6.35 L17.5 1.95 30.2 7.0 41.35 31.7 Q42.95 35.15 40.2 36.7 L38.9 37.25 25.2 41.65 12.5 36.65 5.45 20.95"/><path fill="#c47fad" stroke="none" d="M31.5 13.2 L35.55 22.3 39.35 30.75 Q41.1 34.5 37.2 35.7 L25.8 39.4 13.1 34.35 8.25 23.65 3.35 12.8 Q1.65 9.1 5.5 7.85 L16.95 4.25 29.75 9.2 31.5 13.2 M18.5 7.45 L9.1 10.55 9.55 11.6 Q9.8 12.8 9.15 13.6 8.4 14.45 7.1 14.4 L6.8 14.4 6.95 14.6 15.2 32.75 23.85 36.2 34.0 32.9 33.7 32.1 Q33.45 30.9 34.1 30.1 34.75 29.3 35.95 29.35 L35.8 29.0 27.75 10.95 18.5 7.45"/><path fill="#fcf2cf" stroke="none" d="M27.75 10.95 L35.8 29.0 35.95 29.35 Q34.75 29.3 34.1 30.1 33.45 30.9 33.7 32.1 L34.0 32.9 23.85 36.2 15.2 32.75 6.95 14.6 6.8 14.4 7.1 14.4 Q8.4 14.45 9.15 13.6 9.8 12.8 9.55 11.6 L9.1 10.55 18.5 7.45 27.75 10.95"/><path fill="#630a4c" stroke="none" d="M1.1 8.3 L0.75 8.25 Q1.2 7.6 2.15 7.15 1.45 7.65 1.1 8.3 M4.6 20.9 L5.45 20.95 12.5 36.65 11.55 36.25 11.25 35.55 4.6 20.9"/><path fill="#300525" stroke="none" d="M1.1 8.3 Q0.4 9.65 1.35 11.8 L5.45 20.95 4.6 20.9 0.7 12.25 Q-0.45 9.75 0.75 8.25 L1.1 8.3 M12.5 36.65 L25.2 41.65 38.9 37.25 40.2 36.7 Q39.5 37.3 38.3 37.65 L25.5 41.8 25.45 41.75 24.55 42.0 11.85 37.0 11.55 36.25 12.5 36.65"/><path fill="none" stroke="#bf9900" stroke-width="1.0" stroke-opacity="0.749019607843" d="M31.5 13.2 L35.55 22.3 M13.1 34.35 L8.25 23.65"/><path fill="none" stroke="#ffcc00" stroke-width="1.0" stroke-opacity="0.749019607843" d="M35.55 22.3 L39.35 30.75 Q41.1 34.5 37.2 35.7 L25.8 39.4 M8.25 23.65 L3.35 12.8 Q1.65 9.1 5.5 7.85 L16.95 4.25 29.75 9.2 31.5 13.2"/><path fill="none" stroke="#f0b92b" stroke-width="0.5" d="M27.75 10.95 L35.8 29.0 35.95 29.35 Q34.75 29.3 34.1 30.1 33.45 30.9 33.7 32.1 L34.0 32.9 23.85 36.2 15.2 32.75 6.95 14.6 6.8 14.4 7.1 14.4 Q8.4 14.45 9.15 13.6 9.8 12.8 9.55 11.6 L9.1 10.55 18.5 7.45"/><path fill="none" stroke="#000000" stroke-width="0.5" stroke-opacity="0.301960784314" d="M5.45 20.95 L1.35 11.8 Q0.4 9.65 1.1 8.3 M0.75 8.25 Q-0.45 9.75 0.7 12.25 L4.6 20.9 M5.45 20.95 L12.5 36.65 M25.2 41.65 L38.9 37.25 40.2 36.7 Q42.95 35.15 41.35 31.7 L30.2 7.0 M17.5 1.95 L3.8 6.35 Q2.8 6.7 2.15 7.15 1.45 7.65 1.1 8.3 M0.75 8.25 Q1.2 7.6 2.15 7.15 M11.25 35.55 L4.6 20.9 M25.5 41.8 L38.3 37.65 Q39.5 37.3 40.2 36.7"/><path fill="none" stroke="#ffcc00" stroke-width="0.5" stroke-opacity="0.749019607843" d="M18.5 7.45 L27.75 10.95"/><path fill="none" stroke="#f0b92b" stroke-width="1.0" stroke-opacity="0.749019607843" d="M25.8 39.4 L13.1 34.35"/><path fill="none" stroke="#432f2f" stroke-width="0.5" d="M12.5 36.65 L25.2 41.65"/></g><g id="c87"><path fill="#7fdbfe" stroke="none" d="M10.75 4.9 Q10.75 4.6 10.9 4.35 11.25 3.45 11.95 2.75 13.3 1.5 14.35 2.1 15.4 2.7 14.95 4.45 14.7 5.4 14.1 6.15 L13.75 6.5 Q13.1 7.15 12.35 7.35 L11.4 7.2 Q10.95 6.9 10.75 6.4 10.5 5.75 10.75 4.9 M7.5 5.9 Q7.0 5.85 6.6 5.5 6.05 5.0 5.8 4.15 L5.7 3.6 Q5.55 2.65 5.8 1.7 6.25 0.0 7.5 0.0 L7.6 0.0 Q8.85 0.0 9.3 1.7 9.55 2.65 9.4 3.6 L9.3 4.15 8.5 5.5 7.6 5.9 7.5 5.9 M4.35 4.9 Q4.6 5.75 4.35 6.4 L3.7 7.2 2.75 7.35 Q2.0 7.15 1.35 6.5 L1.0 6.15 Q0.4 5.4 0.15 4.45 -0.3 2.7 0.75 2.1 1.8 1.5 3.15 2.75 3.85 3.45 4.2 4.35 L4.35 4.9 M5.5 13.7 Q4.45 13.9 3.65 12.95 2.75 12.0 3.2 10.25 3.7 8.5 5.25 7.6 6.4 6.9 7.55 7.0 8.75 6.9 9.9 7.6 11.45 8.5 11.95 10.25 12.35 12.0 11.5 12.95 10.7 13.9 9.65 13.7 8.55 13.5 7.55 12.6 6.55 13.5 5.5 13.7"/></g><g id="c88"><g><use transform="matrix(1.0,0.0,0.0,1.0,0.0,0.0)" xlink:href="#c87"/></g></g><radialGradient gradientUnits="userSpaceOnUse" r="819.2" cx="0" cy="0" spreadMethod="pad" gradientTransform="matrix(0.0914459228516,0.0,0.0,0.0914459228516,0.6,3.4)" id="gradient22"><stop offset="0.0" stop-color="#ffffff"/><stop offset="1.0" stop-color="#ffffff" stop-opacity="0.0"/></radialGradient><g id="c89"><path stroke="none" fill="url(#gradient22)" d="M36.65 -54.65 Q60.05 -42.0 69.75 -17.95 80.55 8.9 68.0 34.1 55.45 59.35 26.8 68.2 -1.8 77.05 -29.7 64.3 -57.6 51.6 -68.45 24.75 -79.3 -2.05 -66.75 -27.25 L-66.7 -27.3 Q-54.1 -52.5 -25.5 -61.4 3.1 -70.2 31.0 -57.5 L36.65 -54.65"/></g><g id="c90"><g><use transform="matrix(1.0,0.0,0.0,1.0,0.0,0.0)" xlink:href="#c89"/></g></g><radialGradient gradientUnits="userSpaceOnUse" r="819.2" cx="0" cy="0" spreadMethod="pad" gradientTransform="matrix(0.209197998047,0.0,0.0,0.177108764648,67.15,107.2)" id="gradient23"><stop offset="0.356862745098" stop-color="#ffffff"/><stop offset="0.670588235294" stop-opacity="0.0"/></radialGradient><g id="c91"><path fill="none" stroke-linejoin="round" stroke-linecap="round" stroke="url(#gradient23)" stroke-width="0.5" d="M136.55 165.8 L68.6 106.0 68.4 106.0 118.25 201.5 M68.3 105.8 L68.35 105.8 68.3 105.8 68.3 105.85 68.4 106.0 68.3 106.0 86.55 211.5 M68.3 105.8 L68.3 105.85 68.3 106.0 68.15 105.95 18.25 151.55 M68.3 105.85 L68.25 105.85 68.3 106.0 50.0 193.2 M68.25 105.85 L68.15 105.95 0.05 97.7 M68.3 105.85 L68.25 105.8 68.25 105.85 M68.25 105.8 L68.2 105.7 0.0 45.7 M68.3 105.8 L68.25 105.75 68.25 105.8 M68.25 105.75 L68.2 105.7 18.25 10.05 M68.6 106.0 L68.35 105.8 118.25 60.15 M86.6 18.35 L68.3 105.8 M136.6 114.25 L68.6 106.0 M68.25 105.75 L49.95 0.05"/></g><g id="c92"><g><use transform="matrix(1.0,0.0,0.0,1.0,0.0,0.0)" xlink:href="#c91"/></g></g><g id="c93"><g><use transform="matrix(1.0,0.0,0.0,1.0,0.0,0.0)" xlink:href="#c86"/></g><g><use transform="matrix(0.238861083984,-0.0867004394531,0.10026550293,0.233917236328,34.25,31.15)" xlink:href="#c88"/></g><g><use transform="matrix(0.238861083984,-0.0867004394531,0.10026550293,0.233917236328,4.25,10.3)" xlink:href="#c88"/></g><g><use transform="matrix(0.141098022461,-0.0378112792969,0.111373901367,0.225646972656,20.25,20.65)" filter="url(#filter121)" xlink:href="#c90"/></g><g><use transform="matrix(-0.155029296875,0.0513153076172,0.0841827392578,0.147033691406,22.6,3.15)" filter="url(#filter122)" xlink:href="#c92"/></g></g><filter id="filter121"><feColorMatrix in="SourceGraphic" type="matrix" values="0.0 0.0 0.0 0.0 0.796875 0.0 0.0 0.0 0.0 0.59765625 0.0 0.0 0.0 0.0 0.19921875 0.0 0.0 0.0 1.0 0.0" result="cxform"/><feComposite operator="in" in2="SourceGraphic" result="color-xform"/></filter><filter id="filter122"><feColorMatrix in="SourceGraphic" type="matrix" values="0.0 0.0 0.0 0.0 0.99609375 0.0 0.0 0.0 0.0 0.99609375 0.0 0.0 0.0 0.0 0.99609375 0.0 0.0 0.0 1.0 0.0" result="cxform"/><feComposite operator="in" in2="SourceGraphic" result="color-xform"/></filter><filter id="filter126"><feColorMatrix in="SourceGraphic" type="matrix" values="1.0 0.0 0.0 0.0 0.0 0.0 1.0 0.0 0.0 0.0 0.0 0.0 1.0 0.0 0.0 0.0 0.0 0.0 0.23046875 0.0" result="cxform"/><feComposite operator="in" in2="SourceGraphic" result="color-xform"/></filter></defs><g><g><use transform="matrix(1.0,0.0,0.0,1.0,0.0,0.0)" xlink:href="#c85"/></g><g><use transform="matrix(1.15496826172,0.0,0.0,1.15496826172,5.85,4.8)" xlink:href="#c93"/></g><g><use transform="matrix(0.165328979492,-0.0667572021484,0.0667572021484,0.165328979492,36.25,38.9)" xlink:href="#c84"/></g><g><use transform="matrix(0.162948608398,-0.0436706542969,0.128631591797,0.260604858398,30.0,28.7)" filter="url(#filter126)" xlink:href="#c90"/></g></g></svg>