<?xml version='1.0' encoding='UTF-8'?>
<svg xmlns:xlink="http://www.w3.org/1999/xlink" xmlns="http://www.w3.org/2000/svg" version="1.1" width="60px" height="60px" viewBox="0.0 0.0 60.0 60.0"><defs><radialGradient gradientUnits="userSpaceOnUse" r="819.2" cx="0" cy="0" spreadMethod="pad" gradientTransform="matrix(0.0171966552734,0.0,0.0,0.0171966552734,0.0,0.0)" id="gradient1"><stop offset="0.588235294118" stop-color="#0e171d"/><stop offset="1.0" stop-color="#101a24" stop-opacity="0.0"/></radialGradient><g id="c1"><path stroke="none" fill="url(#gradient1)" d="M10.4 -10.45 Q14.75 -6.1 14.75 0.0 14.75 6.1 10.4 10.4 6.1 14.75 0.0 14.75 -6.1 14.75 -10.45 10.4 -14.75 6.1 -14.75 0.0 -14.75 -6.1 -10.45 -10.45 -6.1 -14.75 0.0 -14.75 6.1 -14.75 10.4 -10.45"/></g><g id="c2"><g><use transform="matrix(1.0,0.0,0.0,1.0,0.0,0.0)" xlink:href="#c1"/></g></g><g id="c3"><path fill="#00000c" stroke="none" d="M-7.9 -3.45 L-7.85 -3.5 -7.9 -3.45 -8.05 -3.45 -7.85 -3.5 -5.3 -4.95 -2.65 -5.15 -2.25 -4.95 Q0.4 -3.6 2.5 -2.8 L5.0 -1.7 6.15 -1.25 Q9.3 0.1 7.85 0.6 L4.2 1.05 Q5.15 3.35 4.25 3.3 L0.45 2.7 Q0.6 5.45 -0.6 5.25 -1.95 4.95 -5.05 2.95 L-5.3 2.9 -7.15 1.6 -7.65 1.2 Q-8.45 0.45 -8.2 -1.9 L-7.9 -3.3 -7.9 -3.45 M4.0 0.45 L4.2 1.05 4.0 0.45"/><path fill="none" stroke="#000000" stroke-width="0.5" stroke-opacity="0.301960784314" d="M-7.85 -3.5 L-7.9 -3.45 -7.9 -3.3 -8.2 -1.9 Q-8.45 0.45 -7.65 1.2 L-7.15 1.6 -5.3 2.9 -5.05 2.95 Q-1.95 4.95 -0.6 5.25 0.6 5.45 0.45 2.7 L4.25 3.3 Q5.15 3.35 4.2 1.05 L4.0 0.45 M-2.65 -5.15 L-2.25 -4.95 Q0.4 -3.6 2.5 -2.8 L5.0 -1.7 6.15 -1.25 Q9.3 0.1 7.85 0.6 L4.2 1.05"/></g><g id="c4"><g><use transform="matrix(1.0,0.0,0.0,1.0,0.0,0.0)" xlink:href="#c3"/></g></g><g id="c5"><path fill="#00000c" stroke="none" d="M-7.3 -2.3 L-7.2 -2.35 Q-2.25 -5.8 2.85 -4.9 L3.05 -4.9 Q5.35 -4.55 6.65 -2.95 L6.7 -2.85 7.3 -1.15 Q7.6 0.35 3.2 2.95 -1.5 7.2 -5.9 3.25 -7.25 0.7 -7.3 -2.3"/><path fill="none" stroke="#000000" stroke-width="0.5" stroke-opacity="0.301960784314" d="M-7.3 -2.3 L-7.2 -2.35 Q-2.25 -5.8 2.85 -4.9 L3.05 -4.9 Q5.35 -4.55 6.65 -2.95 L6.7 -2.85"/></g><g id="c6"><g><use transform="matrix(1.0,0.0,0.0,1.0,0.0,0.0)" xlink:href="#c5"/></g></g><g id="c7"><path fill="#00000c" stroke="none" d="M-8.75 5.9 L-8.65 4.9 Q-8.3 2.7 -7.1 0.65 -5.95 -1.5 -4.1 -3.2 -2.7 -4.35 -1.0 -4.75 5.5 5.0 8.8 -2.2 8.7 0.1 7.45 2.25 6.3 4.2 4.25 5.5 L4.15 5.7 3.85 6.25 Q3.45 7.1 2.5 7.55 1.4 8.25 0.25 8.45 L-0.1 8.3 -8.75 5.9 M0.0 6.9 Q2.2 6.85 4.15 5.7 2.2 6.85 0.0 6.9"/><path fill="#19243e" stroke="none" d="M5.4 -4.15 L4.7 -3.8 4.25 -3.15 4.15 -2.2 Q4.15 -1.7 4.5 -1.4 L5.05 -1.05 Q5.4 -0.7 5.9 -0.7 L6.2 -0.9 Q6.4 -0.9 6.55 -1.05 L7.05 -1.7 Q7.25 -2.25 7.05 -2.75 L6.6 -3.4 5.75 -3.35 5.45 -3.0 Q5.25 -2.55 5.45 -2.2 5.25 -2.55 5.45 -3.0 L5.75 -3.35 6.6 -3.4 7.05 -2.75 Q7.25 -2.25 7.05 -1.7 L6.55 -1.05 Q6.4 -0.9 6.2 -0.9 L5.9 -0.7 Q5.4 -0.7 5.05 -1.05 L4.5 -1.4 Q4.15 -1.7 4.15 -2.2 L4.25 -3.15 4.7 -3.8 5.4 -4.15 M7.05 -7.05 L7.1 -6.95 Q8.45 -5.15 8.7 -2.95 L8.8 -2.45 8.8 -2.2 Q5.5 5.0 -1.0 -4.75 L-0.7 -4.9 Q1.95 -10.7 7.05 -7.05"/><path fill="none" stroke="#000000" stroke-width="0.5" stroke-opacity="0.301960784314" d="M-1.0 -4.75 Q-2.7 -4.35 -4.1 -3.2 -5.95 -1.5 -7.1 0.65 -8.3 2.7 -8.65 4.9 L-8.75 5.9 M-0.1 8.3 L0.25 8.45 Q1.4 8.25 2.5 7.55 3.45 7.1 3.85 6.25 L4.15 5.7 Q2.2 6.85 0.0 6.9 M5.45 -2.2 Q5.25 -2.55 5.45 -3.0 L5.75 -3.35 6.6 -3.4 7.05 -2.75 Q7.25 -2.25 7.05 -1.7 L6.55 -1.05 Q6.4 -0.9 6.2 -0.9 L5.9 -0.7 Q5.4 -0.7 5.05 -1.05 L4.5 -1.4 Q4.15 -1.7 4.15 -2.2 L4.25 -3.15 4.7 -3.8 5.4 -4.15 M8.8 -2.2 L8.8 -2.45 8.7 -2.95 Q8.45 -5.15 7.1 -6.95 L7.05 -7.05 M-0.7 -4.9 L-1.0 -4.75 M8.8 -2.2 Q8.7 0.1 7.45 2.25 6.3 4.2 4.25 5.5 L4.15 5.7"/></g><g id="c8"><g><use transform="matrix(1.0,0.0,0.0,1.0,0.0,0.0)" xlink:href="#c7"/></g></g><g id="c9"><path fill="#19243e" stroke="none" d="M-4.35 2.9 Q-2.5 0.9 -1.15 0.4 L0.4 0.0 0.75 0.25 Q2.3 1.55 3.3 3.45 4.35 5.4 4.35 7.75 L3.75 8.3 Q2.65 9.4 1.35 10.2 -3.25 11.6 -3.95 5.95 -3.9 4.2 -4.35 2.9"/><path fill="none" stroke="#000000" stroke-width="0.5" stroke-opacity="0.301960784314" d="M0.75 0.25 Q2.3 1.55 3.3 3.45 4.35 5.4 4.35 7.75 L3.75 8.3 Q2.65 9.4 1.35 10.2 M-3.95 5.95 Q-3.9 4.2 -4.35 2.9"/></g><g id="c10"><g><use transform="matrix(1.0,0.0,0.0,1.0,0.0,0.0)" xlink:href="#c9"/></g></g><g id="c11"><path fill="#19243e" stroke="none" d="M0.2 0.65 L-1.05 0.75 Q-0.55 -0.9 0.8 -0.65 1.5 0.1 0.2 0.65"/><path fill="none" stroke="#000000" stroke-width="0.5" stroke-opacity="0.301960784314" d="M0.2 0.65 L-1.05 0.75 Q-0.55 -0.9 0.8 -0.65"/></g><g id="c12"><g><use transform="matrix(1.0,0.0,0.0,1.0,0.0,0.0)" xlink:href="#c11"/></g></g><g id="c13"><path fill="#19243e" stroke="none" d="M-3.9 4.3 L-3.2 4.4 Q-2.65 4.3 -2.2 3.9 L-1.7 3.45 Q-1.2 2.7 -1.0 1.85 L-1.0 0.8 Q-1.2 0.2 -1.7 0.0 -0.55 -0.1 1.05 0.6 2.65 1.25 4.05 2.15 2.95 4.65 0.55 6.8 L-3.5 6.45 -3.9 4.3"/><path fill="#283149" stroke="none" d="M-3.9 4.3 Q-4.55 0.0 -1.7 0.0 -1.2 0.2 -1.0 0.8 L-1.0 1.85 Q-1.2 2.7 -1.7 3.45 L-2.2 3.9 Q-2.65 4.3 -3.2 4.4 L-3.9 4.3"/><path fill="none" stroke="#000000" stroke-width="0.5" stroke-opacity="0.301960784314" d="M-1.7 0.0 Q-4.55 0.0 -3.9 4.3 M-1.7 0.0 Q-0.55 -0.1 1.05 0.6 M4.05 2.15 Q2.95 4.65 0.55 6.8 M-3.5 6.45 L-3.9 4.3"/></g><g id="c14"><g><use transform="matrix(1.0,0.0,0.0,1.0,0.0,0.0)" xlink:href="#c13"/></g></g><g id="c15"><path fill="#19243e" stroke="none" d="M-0.5 0.05 Q0.25 0.5 -0.05 1.1 -1.55 1.7 -2.7 1.7 -1.9 -0.3 -0.5 0.05"/><path fill="none" stroke="#000000" stroke-width="0.5" stroke-opacity="0.301960784314" d="M-0.5 0.05 Q-1.9 -0.3 -2.7 1.7 -1.55 1.7 -0.05 1.1"/><path fill="#19243e" stroke="none" d="M2.75 0.75 Q1.75 1.65 -0.45 2.1 0.15 0.0 2.0 0.3 L2.75 0.75"/><path fill="none" stroke="#000000" stroke-width="0.5" stroke-opacity="0.301960784314" d="M2.0 0.3 Q0.15 0.0 -0.45 2.1 1.75 1.65 2.75 0.75"/></g><g id="c16"><g><use transform="matrix(1.0,0.0,0.0,1.0,0.0,0.0)" xlink:href="#c15"/></g></g><g id="c17"><path fill="#283149" stroke="none" d="M-19.25 16.45 Q-13.8 26.0 20.75 13.85 L20.75 14.25 Q20.9 17.7 20.1 21.25 L20.0 21.6 19.9 21.9 Q18.3 26.25 14.2 27.85 -1.75 37.75 -20.7 22.9 L-20.7 22.75 Q-20.5 19.45 -19.25 16.45"/><path fill="#273147" stroke="none" d="M-19.25 16.45 L-18.0 14.0 Q-15.95 10.45 -12.75 7.8 L-12.55 7.7 -11.85 7.15 Q-8.25 4.45 -4.4 2.65 -0.25 1.0 3.9 0.25 8.0 -0.45 11.85 0.9 15.9 2.3 18.3 6.1 20.35 9.25 20.6 13.45 L20.75 13.85 Q-13.8 26.0 -19.25 16.45"/><path fill="#00000c" stroke="none" d="M19.9 21.9 L19.55 23.0 19.5 23.25 Q18.6 26.45 16.75 29.35 14.3 33.2 10.45 35.9 6.7 38.3 2.5 38.9 L-5.65 39.25 Q-9.85 38.8 -13.4 36.65 -17.15 34.5 -19.05 30.65 -20.85 26.95 -20.7 22.9 -1.75 37.75 14.2 27.85 18.3 26.25 19.9 21.9"/><path fill="none" stroke="#ffffff" stroke-width="0.5" stroke-opacity="0.301960784314" d="M20.75 13.85 L20.6 13.45 Q20.35 9.25 18.3 6.1 15.9 2.3 11.85 0.9 8.0 -0.45 3.9 0.25 -0.25 1.0 -4.4 2.65 -8.25 4.45 -11.85 7.15 L-12.55 7.7 -12.75 7.8 Q-15.95 10.45 -18.0 14.0 L-19.25 16.45 M20.75 13.85 L20.75 14.25 Q20.9 17.7 20.1 21.25 L20.0 21.6 19.9 21.9 19.55 23.0 19.5 23.25 M-20.7 22.9 L-20.7 22.75 Q-20.5 19.45 -19.25 16.45"/><path fill="none" stroke="#000000" stroke-width="0.5" stroke-opacity="0.301960784314" d="M19.5 23.25 Q18.6 26.45 16.75 29.35 14.3 33.2 10.45 35.9 6.7 38.3 2.5 38.9 L-5.65 39.25 Q-9.85 38.8 -13.4 36.65 -17.15 34.5 -19.05 30.65 -20.85 26.95 -20.7 22.9"/></g><g id="c18"><g><use transform="matrix(1.0,0.0,0.0,1.0,0.0,0.0)" xlink:href="#c17"/></g></g><g id="c19"><path fill="#00000c" stroke="none" d="M1.6 -4.4 L0.4 -7.75 -0.45 -8.45 -0.85 -8.7 -1.65 -9.0 -2.2 -9.15 -2.05 -9.75 -1.8 -10.8 -1.55 -11.9 -1.3 -12.7 -1.0 -13.5 -0.75 -14.25 -0.45 -14.9 -0.05 -15.4 0.3 -15.85 0.9 -16.4 1.5 -16.75 2.1 -16.85 2.55 -16.75 3.0 -16.55 3.45 -16.35 Q1.45 -12.35 1.6 -4.4"/><path fill="none" stroke="#000000" stroke-width="0.5" stroke-opacity="0.301960784314" d="M3.45 -16.35 L3.0 -16.55 2.55 -16.75 2.1 -16.85 1.5 -16.75 0.9 -16.4 0.3 -15.85 -0.05 -15.4 -0.45 -14.9 -0.75 -14.25 -1.0 -13.5 -1.3 -12.7 -1.55 -11.9 -1.8 -10.8 -2.05 -9.75 -2.2 -9.15 -1.65 -9.0 -0.85 -8.7 -0.45 -8.45 0.4 -7.75 1.6 -4.4"/><path fill="#00000c" stroke="none" d="M-2.15 -9.95 Q-2.5 -13.7 -2.75 -14.35 L-3.65 -16.0 -4.1 -16.65 -5.05 -17.95 -5.75 -18.75 -5.35 -19.1 -4.7 -19.65 -4.0 -20.2 -3.4 -20.55 -2.75 -20.85 -2.05 -21.15 -1.45 -21.25 -0.75 -21.25 -0.15 -21.2 0.75 -20.95 1.7 -20.5 2.6 -19.7 3.2 -19.0 3.75 -18.35 4.3 -17.5 Q0.25 -16.7 -2.15 -9.95"/><path fill="none" stroke="#000000" stroke-width="0.5" stroke-opacity="0.301960784314" d="M4.3 -17.5 L3.75 -18.35 3.2 -19.0 2.6 -19.7 1.7 -20.5 0.75 -20.95 -0.15 -21.2 -0.75 -21.25 -1.45 -21.25 -2.05 -21.15 -2.75 -20.85 -3.4 -20.55 -4.0 -20.2 -4.7 -19.65 -5.35 -19.1 -5.75 -18.75 -5.05 -17.95 -4.1 -16.65 -3.65 -16.0 -2.75 -14.35 Q-2.5 -13.7 -2.15 -9.95"/><path fill="#00000c" stroke="none" d="M-5.2 -19.5 L-5.1 -21.45 -5.2 -24.0 -5.25 -25.2 -5.6 -27.5 -5.9 -29.0 -5.35 -28.85 -4.4 -28.6 -3.45 -28.25 -2.65 -27.85 -1.85 -27.3 -1.05 -26.7 -0.35 -26.05 0.25 -25.3 0.85 -24.45 1.7 -23.15 2.4 -21.55 2.9 -19.8 3.15 -18.5 3.35 -17.15 3.55 -15.75 -5.2 -19.5"/><path fill="none" stroke="#000000" stroke-width="0.5" stroke-opacity="0.301960784314" d="M3.55 -15.75 L3.35 -17.15 3.15 -18.5 2.9 -19.8 2.4 -21.55 1.7 -23.15 0.85 -24.45 0.25 -25.3 -0.35 -26.05 -1.05 -26.7 -1.85 -27.3 -2.65 -27.85 -3.45 -28.25 -4.4 -28.6 -5.35 -28.85 -5.9 -29.0 -5.6 -27.5 -5.25 -25.2 -5.2 -24.0 -5.1 -21.45 -5.2 -19.5"/><path fill="#313c57" stroke="none" d="M3.7 -18.8 Q3.8 -18.1 3.45 -17.95 L1.3 -17.25 1.1 -17.25 Q-3.4 -16.2 -5.9 -18.65 L-5.9 -19.3 -5.8 -19.45 -5.25 -20.3 Q-2.4 -17.35 3.0 -19.0 L3.2 -19.75 3.7 -18.8"/><path fill="none" stroke="#ffffff" stroke-width="0.5" stroke-opacity="0.301960784314" d="M3.7 -18.8 Q3.8 -18.1 3.45 -17.95 L1.3 -17.25 M1.1 -17.25 Q-3.4 -16.2 -5.9 -18.65 L-5.9 -19.3 -5.8 -19.45 -5.25 -20.3 Q-2.4 -17.35 3.0 -19.0 L3.2 -19.75"/><path fill="#313c57" stroke="none" d="M4.1 -18.8 L3.95 -17.6 3.6 -17.85 Q2.2 -16.35 1.15 -14.85 -0.95 -11.7 -1.7 -8.35 -2.0 -8.15 -2.4 -8.35 L-2.6 -8.75 Q-1.4 -14.05 3.6 -19.1 3.9 -19.3 4.1 -18.8"/><path fill="none" stroke="#ffffff" stroke-width="0.5" stroke-opacity="0.301960784314" d="M4.1 -18.8 Q3.9 -19.3 3.6 -19.1 -1.4 -14.05 -2.6 -8.75 L-2.4 -8.35 Q-2.0 -8.15 -1.7 -8.35 -0.95 -11.7 1.15 -14.85 2.2 -16.35 3.6 -17.85 L3.95 -17.6"/><path fill="#313c57" stroke="none" d="M2.35 -9.65 L2.45 -8.9 2.25 -8.3 1.9 -7.8 2.25 -8.3 Q2.25 -4.9 2.5 -3.05 L2.55 -2.3 2.6 -1.8 2.6 -1.6 2.3 -0.95 2.15 -0.75 2.0 -0.75 Q1.65 -0.7 1.4 -0.95 L1.4 -1.3 1.3 -2.0 1.4 -1.3 1.4 -0.95 Q1.65 -0.7 2.0 -0.75 L2.15 -0.75 2.3 -0.95 2.6 -1.6 2.6 -1.8 2.55 -2.3 Q3.05 -2.05 2.95 -1.3 2.85 -0.35 2.4 -0.05 1.45 0.15 1.05 -0.65 0.75 -1.35 1.3 -2.0 L1.0 -4.5 0.75 -8.0 Q0.2 -8.95 0.8 -9.95 2.0 -10.4 2.35 -9.7 L2.35 -9.65 Q2.15 -8.85 1.45 -8.6 2.15 -8.85 2.35 -9.65"/><path fill="none" stroke="#ffffff" stroke-width="0.5" stroke-opacity="0.301960784314" d="M2.25 -8.3 L2.45 -8.9 2.35 -9.65 Q2.15 -8.85 1.45 -8.6 M2.25 -8.3 L1.9 -7.8 M2.35 -9.65 L2.35 -9.7 Q2.0 -10.4 0.8 -9.95 0.2 -8.95 0.75 -8.0 L1.0 -4.5 1.3 -2.0 1.4 -1.3 1.4 -0.95 Q1.65 -0.7 2.0 -0.75 L2.15 -0.75 2.3 -0.95 2.6 -1.6 2.6 -1.8 2.55 -2.3 2.5 -3.05 Q2.25 -4.9 2.25 -8.3 M1.3 -2.0 Q0.75 -1.35 1.05 -0.65 1.45 0.15 2.4 -0.05 2.85 -0.35 2.95 -1.3 3.05 -2.05 2.55 -2.3"/><path fill="#313c57" stroke="none" d="M4.65 -15.25 L2.75 -19.8 0.85 -23.6 0.7 -23.85 0.5 -24.3 Q-0.6 -26.0 -2.0 -27.35 -2.95 -28.05 -4.05 -28.35 L-5.95 -28.75 -5.95 -29.55 -5.6 -30.35 Q-3.35 -30.65 -1.75 -29.0 L0.45 -26.4 1.3 -25.1 1.35 -25.0 3.3 -21.1 4.9 -16.9 5.15 -16.3 Q5.1 -15.05 4.65 -15.25"/><path fill="none" stroke="#ffffff" stroke-width="0.5" stroke-opacity="0.301960784314" d="M4.65 -15.25 L2.75 -19.8 0.85 -23.6 0.7 -23.85 0.5 -24.3 Q-0.6 -26.0 -2.0 -27.35 -2.95 -28.05 -4.05 -28.35 L-5.95 -28.75 -5.95 -29.55 -5.6 -30.35 Q-3.35 -30.65 -1.75 -29.0 L0.45 -26.4 1.3 -25.1 M1.35 -25.0 L3.3 -21.1 4.9 -16.9 5.15 -16.3"/><path fill="#313c57" stroke="none" d="M3.05 -16.7 L3.2 -17.25 3.45 -18.25 3.95 -19.25 Q6.05 -17.05 5.6 -16.4 L5.35 -16.85 5.35 -16.9 5.15 -17.1 4.8 -16.9 4.5 -16.0 Q4.5 -15.75 4.65 -15.65 4.7 -15.55 4.8 -15.6 L4.95 -15.5 4.0 -15.3 3.95 -15.3 3.85 -15.1 3.85 -15.0 3.8 -14.95 Q2.3 -12.4 2.2 -9.65 1.7 -9.0 1.3 -9.05 1.0 -9.05 0.8 -9.35 1.55 -14.3 3.15 -16.7 L3.05 -16.7 M3.15 -16.7 L3.2 -17.25 3.15 -16.7 M3.85 -15.1 L3.8 -14.95 3.85 -15.1"/><path fill="#9a6345" stroke="none" d="M5.85 -15.25 L5.8 -15.25 4.95 -15.5 4.8 -15.6 Q4.7 -15.55 4.65 -15.65 4.5 -15.75 4.5 -16.0 L4.8 -16.9 5.15 -17.1 5.35 -16.9 5.35 -16.85 Q4.9 -16.7 4.8 -16.3 4.8 -15.65 5.85 -15.25"/><path fill="#20211b" stroke="none" d="M3.95 -15.3 L3.95 -15.25 3.9 -15.2 3.85 -15.1 3.95 -15.3"/><path fill="#fdd9a5" stroke="none" d="M5.6 -16.4 Q6.1 -15.55 5.85 -15.25 4.8 -15.65 4.8 -16.3 4.9 -16.7 5.35 -16.85 L5.6 -16.4"/><path fill="none" stroke="#ffffff" stroke-width="0.5" stroke-opacity="0.301960784314" d="M3.95 -19.25 Q6.05 -17.05 5.6 -16.4 6.1 -15.55 5.85 -15.25 L5.8 -15.25 4.95 -15.5 4.0 -15.3 3.95 -15.3 3.95 -15.25 3.9 -15.2 3.85 -15.1 3.85 -15.0 3.8 -14.95 Q2.3 -12.4 2.2 -9.65 M0.8 -9.35 Q1.55 -14.3 3.15 -16.7 L3.05 -16.7 M3.2 -17.25 L3.15 -16.7 M4.95 -15.5 L4.8 -15.6 Q4.7 -15.55 4.65 -15.65 4.5 -15.75 4.5 -16.0 L4.8 -16.9 5.15 -17.1 5.35 -16.9 5.35 -16.85 5.6 -16.4 M3.8 -14.95 L3.85 -15.1 3.95 -15.3"/><path fill="#f6ede4" stroke="none" d="M2.35 -8.05 Q2.0 -4.75 2.5 -1.1 L2.1 -0.75 Q1.0 -5.2 1.15 -7.45 L1.5 -7.45 Q1.4 -6.6 1.85 -5.8 L2.15 -7.75 2.35 -8.05"/><path fill="#f6ede4" stroke="none" d="M2.25 -9.8 L2.25 -11.8 Q1.55 -10.3 1.55 -9.1 1.2 -8.8 1.0 -9.1 1.65 -14.1 3.3 -15.55 L3.85 -15.55 Q2.35 -12.7 2.25 -9.8"/><path fill="#f6ede4" stroke="none" d="M3.9 -18.6 Q-0.95 -29.6 -5.75 -29.3 -6.0 -29.85 -5.3 -30.25 0.1 -30.15 3.9 -18.8 L3.9 -18.6"/><path fill="#f6ede4" stroke="none" d="M4.75 -18.0 L4.5 -17.55 3.8 -17.8 4.05 -18.25 4.75 -18.0"/></g><g id="c20"><g><use transform="matrix(1.0,0.0,0.0,1.0,0.0,0.0)" xlink:href="#c19"/></g></g><g id="c21"><path fill="#2f3954" stroke="none" d="M3.2 2.4 L2.75 2.95 1.65 3.3 0.95 3.25 Q0.1 2.95 -0.65 2.45 L-1.35 1.65 Q-1.65 1.1 -1.4 0.55 0.8 -1.2 3.2 2.4"/><path fill="#283149" stroke="none" d="M-1.4 0.55 Q-1.65 1.1 -1.35 1.65 L-0.65 2.45 Q0.1 2.95 0.95 3.25 L1.65 3.3 2.75 2.95 3.2 2.4 4.3 4.3 3.35 6.2 -4.3 5.85 -3.1 2.8 Q-2.2 1.3 -1.4 0.55"/><path fill="none" stroke="#000000" stroke-width="0.5" stroke-opacity="0.301960784314" d="M3.2 2.4 Q0.8 -1.2 -1.4 0.55 -2.2 1.3 -3.1 2.8 M-4.3 5.85 L3.35 6.2 M4.3 4.3 L3.2 2.4"/></g><g id="c22"><g><use transform="matrix(1.0,0.0,0.0,1.0,0.0,0.0)" xlink:href="#c21"/></g></g><g id="c23"><path fill="#283149" stroke="none" d="M-0.95 2.05 Q-1.6 1.55 -1.5 0.7 -0.7 -0.7 1.55 0.7 0.75 1.5 -0.95 2.05"/><path fill="none" stroke="#000000" stroke-width="0.5" stroke-opacity="0.301960784314" d="M-1.5 0.7 Q-0.7 -0.7 1.55 0.7 0.75 1.5 -0.95 2.05"/></g><g id="c24"><g><use transform="matrix(1.0,0.0,0.0,1.0,0.0,0.0)" xlink:href="#c23"/></g></g><g id="c25"><path fill="#283149" stroke="none" d="M4.4 2.55 Q3.95 3.9 3.85 5.9 2.95 12.3 -1.55 11.4 L-3.8 9.8 -4.35 9.35 Q-4.25 6.65 -3.15 4.3 -2.1 2.05 -0.6 0.3 L-0.2 0.05 1.3 0.25 Q2.6 0.45 4.4 2.55"/><path fill="none" stroke="#000000" stroke-width="0.5" stroke-opacity="0.301960784314" d="M3.85 5.9 Q3.95 3.9 4.4 2.55 M-0.6 0.3 Q-2.1 2.05 -3.15 4.3 -4.25 6.65 -4.35 9.35 L-3.8 9.8 -1.55 11.4"/><path fill="#313c57" stroke="none" d="M0.55 5.1 L-0.5 9.05 Q-3.6 10.25 -4.1 8.45 -3.95 5.5 -2.45 3.65 -1.05 2.7 0.55 5.1"/><path fill="#ffffff" fill-opacity="0.301960784314" d="M1.55 5.8 L1.75 6.55 1.3 7.1 0.5 7.0 -0.2 6.45 -0.3 5.65 0.05 5.15 0.85 5.2 1.55 5.8"/><path fill="#ffffff" fill-opacity="0.301960784314" d="M-0.6 8.0 L-0.55 8.35 -0.75 8.65 -1.15 8.65 -1.5 8.3 -1.6 7.9 -1.35 7.65 -1.0 7.7 -0.6 8.0"/><path fill="#ffffff" fill-opacity="0.301960784314" d="M2.5 9.25 L2.55 9.55 2.4 9.75 2.05 9.75 1.8 9.5 1.7 9.2 1.9 9.0 2.2 9.0 2.5 9.25"/></g><g id="c26"><g><use transform="matrix(1.0,0.0,0.0,1.0,0.0,0.0)" xlink:href="#c25"/></g></g><g id="c27"><path fill="#283149" stroke="none" d="M-14.65 1.05 L-14.7 -0.3 Q-14.6 -5.75 -10.2 -9.45 L-8.0 -11.05 Q-4.35 -13.15 0.25 -13.05 6.35 -13.0 10.65 -9.1 14.8 -5.15 14.7 0.25 L14.7 0.7 14.6 2.15 Q6.75 7.55 -4.75 7.2 -8.15 7.1 -4.85 10.8 -0.05 14.65 9.45 10.05 5.3 13.15 -0.25 13.05 L-5.15 12.25 -7.35 11.35 -8.45 10.7 -10.55 9.15 Q-14.25 5.7 -14.65 1.05"/><path fill="#323e56" stroke="none" d="M9.45 10.05 Q-0.05 14.65 -4.85 10.8 -8.15 7.1 -4.75 7.2 6.75 7.55 14.6 2.15 13.85 6.3 10.25 9.5 L9.45 10.05"/><path fill="none" stroke="#ffffff" stroke-width="0.5" stroke-opacity="0.301960784314" d="M14.6 2.15 L14.7 0.7 14.7 0.25 Q14.8 -5.15 10.65 -9.1 6.35 -13.0 0.25 -13.05 -4.35 -13.15 -8.0 -11.05 L-10.2 -9.45 Q-14.6 -5.75 -14.7 -0.3 L-14.65 1.05 M-5.15 12.25 L-0.25 13.05 Q5.3 13.15 9.45 10.05 M14.6 2.15 Q13.85 6.3 10.25 9.5 L9.45 10.05"/><path fill="#ffffff" fill-opacity="0.301960784314" d="M1.6 7.05 Q1.9 7.4 1.8 7.8 L1.3 8.35 0.45 8.35 Q-0.05 8.2 -0.35 7.85 L-0.5 7.1 -0.05 6.55 0.9 6.5 1.6 7.05"/><path fill="#ffffff" fill-opacity="0.301960784314" d="M-1.05 9.5 Q-0.85 9.65 -0.9 9.85 L-1.2 10.15 -1.6 10.15 -2.05 9.85 -2.1 9.45 -1.9 9.2 -1.4 9.2 -1.05 9.5"/><path fill="#ffffff" fill-opacity="0.301960784314" d="M2.55 10.4 L2.6 10.7 2.4 10.95 2.05 10.95 1.7 10.75 1.65 10.4 1.85 10.2 2.2 10.2 2.55 10.4"/></g><g id="c28"><g><use transform="matrix(1.0,0.0,0.0,1.0,0.0,0.0)" xlink:href="#c27"/></g></g><radialGradient gradientUnits="userSpaceOnUse" r="819.2" cx="0" cy="0" spreadMethod="pad" gradientTransform="matrix(0.0297393798828,-0.0164337158203,0.0370483398438,0.0173645019531,0.2,-16.15)" id="gradient2"><stop offset="0.0666666666667" stop-color="#ffffff" stop-opacity="0.643137254902"/><stop offset="0.211764705882" stop-color="#5ba4a4" stop-opacity="0.580392156863"/><stop offset="1.0" stop-color="#305657" stop-opacity="0.0"/></radialGradient><g id="c29"><path fill="#273147" stroke="none" d="M-17.75 -4.0 Q-2.35 6.3 14.15 -4.95 16.15 -6.1 16.0 -8.05 17.7 -4.95 17.8 -1.3 18.0 5.2 13.5 11.3 L12.4 12.65 Q8.15 17.35 2.35 16.95 -4.3 16.4 -6.75 15.05 -8.85 13.8 -9.6 12.65 L-9.85 12.25 Q-10.4 10.95 -11.65 9.85 -15.15 6.8 -16.25 4.25 L-16.75 2.7 -17.75 -4.0"/><path fill="#313c57" stroke="none" d="M-17.75 -4.0 Q-18.15 -6.85 -15.8 -9.35 L-14.55 -10.5 -9.65 -14.25 Q-5.5 -16.9 0.0 -16.9 6.2 -16.9 10.9 -13.55 L12.45 -12.3 Q14.65 -10.35 16.0 -8.05 16.15 -6.1 14.15 -4.95 -2.35 6.3 -17.75 -4.0"/><path fill="none" stroke="#ffffff" stroke-width="0.5" stroke-opacity="0.301960784314" d="M16.0 -8.05 Q14.65 -10.35 12.45 -12.3 L10.9 -13.55 Q6.2 -16.9 0.0 -16.9 -5.5 -16.9 -9.65 -14.25 L-14.55 -10.5 -15.8 -9.35 M12.4 12.65 L13.5 11.3 Q18.0 5.2 17.8 -1.3 17.7 -4.95 16.0 -8.05"/><path fill="#4b5572" stroke="none" d="M-2.75 -16.55 L4.9 -16.15 Q8.65 -15.35 13.05 -11.15 12.1 -11.95 11.35 -12.15 L7.25 -12.6 0.5 -12.5 Q-3.7 -12.4 -4.05 -13.95 -4.4 -15.5 -8.05 -14.0 L-12.15 -12.15 -12.0 -12.3 -8.65 -14.55 Q-6.2 -16.05 -2.75 -16.55"/><path fill="none" stroke="#ffffff" stroke-width="0.5" stroke-opacity="0.301960784314" d="M-2.75 -16.55 L4.9 -16.15 Q8.65 -15.35 13.05 -11.15 12.1 -11.95 11.35 -12.15 L7.25 -12.6 0.5 -12.5 Q-3.7 -12.4 -4.05 -13.95 -4.4 -15.5 -8.05 -14.0 L-12.15 -12.15 -12.0 -12.3 -8.65 -14.55 Q-6.2 -16.05 -2.75 -16.55"/><path fill="#4b5572" stroke="none" d="M-5.05 -9.65 Q-3.9 -6.1 -8.4 -3.6 -13.5 -1.8 -12.25 -7.3 -13.35 -10.9 -16.75 -5.55 -16.1 -8.6 -13.05 -10.85 -10.05 -13.1 -7.1 -11.95 -5.5 -11.25 -5.05 -9.65"/><path fill="#ffffff" fill-opacity="0.301960784314" d="M-8.4 -6.45 Q-8.95 -6.05 -9.5 -6.05 -10.05 -6.05 -10.25 -6.45 -10.45 -6.8 -10.25 -7.35 L-9.5 -8.3 -8.4 -8.65 Q-7.85 -8.65 -7.65 -8.3 -7.4 -7.9 -7.65 -7.35 -7.85 -6.8 -8.4 -6.45"/><path fill="#ffffff" fill-opacity="0.470588235294" d="M-8.65 -6.95 Q-8.9 -6.75 -9.2 -6.75 -9.5 -6.75 -9.6 -6.95 L-9.55 -7.4 -9.2 -7.9 -8.65 -8.05 -8.25 -7.9 -8.25 -7.4 -8.65 -6.95"/><path fill="#ffffff" fill-opacity="0.301960784314" d="M-2.15 10.05 Q-1.9 10.4 -1.95 10.8 L-2.4 11.35 -3.2 11.25 -3.9 10.7 -4.0 9.9 -3.65 9.4 -2.85 9.45 -2.15 10.05"/><path fill="#ffffff" fill-opacity="0.301960784314" d="M-4.4 12.25 Q-4.3 12.4 -4.35 12.6 L-4.55 12.9 -4.95 12.9 -5.3 12.55 -5.4 12.15 -5.15 11.9 -4.8 11.95 Q-4.55 12.0 -4.4 12.25"/><path fill="#ffffff" fill-opacity="0.301960784314" d="M-1.2 13.5 L-1.15 13.8 -1.3 14.0 -1.65 14.0 -1.9 13.75 -2.0 13.45 -1.8 13.25 -1.5 13.25 Q-1.35 13.3 -1.2 13.5"/><path stroke="none" fill="url(#gradient2)" d="M-10.7 -13.5 Q-7.05 -16.2 -1.35 -16.6 4.25 -16.95 8.55 -14.75 12.75 -12.45 12.8 -9.55 12.75 -6.6 8.7 -4.45 4.65 -2.2 -1.05 -1.85 -6.85 -1.65 -10.8 -3.55 -14.8 -5.35 -14.6 -8.15 -14.4 -10.9 -10.7 -13.5"/><path fill="#000000" fill-opacity="0.301960784314" d="M-0.8 -3.05 Q-3.4 -2.05 -4.05 -4.3 -4.7 -6.4 -3.9 -9.15 -3.1 -11.85 -0.65 -13.65 1.75 -15.4 4.7 -15.4 7.7 -15.35 9.55 -13.1 11.45 -10.95 11.0 -9.0 L10.5 -7.7 10.0 -3.95 8.8 -6.1 8.0 -5.65 8.2 -4.45 6.5 -4.85 6.0 -3.05 4.5 -4.05 3.2 -2.4 2.85 -3.7 1.55 -3.35 1.2 -3.2 1.05 -2.65 0.6 -0.4 -0.8 -3.05"/><path fill="#dad4b4" stroke="none" d="M-0.2 -13.55 Q-2.65 -11.75 -3.45 -9.05 -4.25 -6.3 -3.6 -4.15 -2.9 -1.95 -0.35 -2.95 L1.0 -0.3 1.55 -3.1 2.0 -3.25 3.3 -3.6 3.7 -2.3 4.9 -3.95 6.45 -2.95 6.95 -4.75 8.6 -4.35 8.4 -5.6 9.25 -6.0 10.45 -3.85 10.95 -7.65 11.45 -8.9 Q11.9 -10.8 10.0 -13.05 8.15 -15.25 5.15 -15.25 2.2 -15.3 -0.2 -13.55"/><path fill="none" stroke="#000000" stroke-width="0.5" stroke-opacity="0.301960784314" d="M-0.2 -13.55 Q-2.65 -11.75 -3.45 -9.05 -4.25 -6.3 -3.6 -4.15 -2.9 -1.95 -0.35 -2.95 L1.0 -0.3 1.55 -3.1 2.0 -3.25 3.3 -3.6 3.7 -2.3 4.9 -3.95 6.45 -2.95 6.95 -4.75 8.6 -4.35 8.4 -5.6 9.25 -6.0 10.45 -3.85 10.95 -7.65 11.45 -8.9 Q11.9 -10.8 10.0 -13.05 8.15 -15.25 5.15 -15.25 2.2 -15.3 -0.2 -13.55"/><path fill="#ffffff" stroke="none" d="M-3.1 -9.2 Q-3.9 -6.65 -3.3 -4.6 -2.65 -2.6 -0.1 -3.5 L1.1 -1.25 1.75 -3.7 2.15 -3.8 3.35 -4.15 3.75 -2.9 4.95 -4.4 6.5 -3.55 6.95 -5.2 8.4 -4.85 Q8.3 -5.05 8.35 -5.95 L9.1 -6.4 10.3 -4.35 10.75 -7.9 11.3 -9.1 Q11.75 -10.85 9.9 -12.95 8.05 -15.0 5.15 -15.05 2.3 -15.1 -0.05 -13.45 -2.35 -11.8 -3.1 -9.2"/><path fill="#000000" stroke="none" d="M2.8 -10.15 L3.35 -7.8 Q3.75 -6.3 2.3 -5.7 0.85 -5.05 0.05 -5.05 -0.65 -5.0 -0.85 -5.85 -1.1 -6.65 -0.75 -7.9 -0.4 -9.1 0.45 -10.0 1.2 -10.85 1.95 -10.9 2.7 -10.95 2.8 -10.15"/><path fill="none" stroke="#000000" stroke-width="0.5" stroke-opacity="0.301960784314" d="M2.8 -10.15 Q2.7 -10.95 1.95 -10.9 1.2 -10.85 0.45 -10.0 -0.4 -9.1 -0.75 -7.9 -1.1 -6.65 -0.85 -5.85 -0.65 -5.0 0.05 -5.05 0.85 -5.05 2.3 -5.7 3.75 -6.3 3.35 -7.8 L2.8 -10.15"/><path fill="#000000" stroke="none" d="M7.85 -13.1 Q8.65 -12.95 9.4 -12.3 10.2 -11.75 10.5 -10.9 10.9 -10.05 10.55 -9.6 L9.25 -8.75 Q8.35 -8.45 7.95 -9.1 L7.0 -10.95 Q6.45 -12.15 6.75 -12.65 7.0 -13.25 7.85 -13.1"/><path fill="none" stroke="#000000" stroke-width="0.5" stroke-opacity="0.301960784314" d="M7.85 -13.1 Q7.0 -13.25 6.75 -12.65 6.45 -12.15 7.0 -10.95 L7.95 -9.1 Q8.35 -8.45 9.25 -8.75 L10.55 -9.6 Q10.9 -10.05 10.5 -10.9 10.2 -11.75 9.4 -12.3 8.65 -12.95 7.85 -13.1"/><path fill="#000000" stroke="none" d="M7.0 -6.95 L5.6 -8.0 5.0 -6.15 7.0 -6.95"/><path fill="none" stroke="#000000" stroke-width="0.5" stroke-opacity="0.301960784314" d="M7.0 -6.95 L5.6 -8.0 5.0 -6.15 7.0 -6.95"/><path fill="#f6ede4" stroke="none" d="M-15.5 3.15 L-15.9 1.0 Q-9.2 -0.55 -4.2 -3.8 L-7.0 4.2 -9.2 4.1 -8.3 1.45 Q-11.9 2.8 -15.5 3.15"/><path fill="#f6ede4" stroke="none" d="M16.3 -5.95 L12.15 -9.9 13.75 -11.25 15.0 -9.4 14.45 -8.95 16.1 -7.2 16.3 -5.95"/><path fill="#f6ede4" stroke="none" d="M-1.55 -15.6 Q-1.45 -16.1 -2.8 -16.75 L1.1 -16.95 Q1.75 -15.85 1.6 -14.75 L-11.8 -12.75 Q-8.1 -15.5 -6.1 -16.05 -5.0 -15.4 -1.55 -15.6"/></g><g id="c30"><g><use transform="matrix(1.0,0.0,0.0,1.0,0.0,0.0)" xlink:href="#c29"/></g></g><g id="c31"><path fill="#0a1318" stroke="none" d="M-15.05 3.0 L-11.4 2.6 Q6.1 3.3 12.7 -4.3 13.4 -4.05 13.5 -3.2 L13.5 -3.15 12.15 0.6 11.6 1.65 Q6.9 10.75 -12.0 4.65 L-14.7 3.25 -15.05 3.0"/><path fill="#313c57" stroke="none" d="M14.9 -7.45 Q16.65 -9.25 12.45 1.2 L11.95 2.35 Q7.1 11.4 -12.15 5.35 -15.45 4.05 -15.35 3.4 L-15.05 3.0 -14.7 3.25 -12.0 4.65 Q6.9 10.75 11.6 1.65 L12.15 0.6 13.5 -3.15 13.5 -3.2 14.9 -7.45"/><path fill="#1c384a" stroke="none" d="M12.7 -4.3 Q13.95 -5.75 14.85 -7.4 L14.9 -7.45 13.5 -3.2 Q13.4 -4.05 12.7 -4.3"/><path fill="none" stroke="#000000" stroke-width="0.5" stroke-opacity="0.301960784314" d="M14.9 -7.45 Q16.65 -9.25 12.45 1.2 L11.95 2.35 Q7.1 11.4 -12.15 5.35 -15.45 4.05 -15.35 3.4 L-15.05 3.0 -11.4 2.6 Q6.1 3.3 12.7 -4.3 13.95 -5.75 14.85 -7.4 L14.9 -7.45 13.5 -3.2 13.5 -3.15 12.15 0.6 11.6 1.65 Q6.9 10.75 -12.0 4.65 L-14.7 3.25 -15.05 3.0"/><path fill="#fbf1bf" stroke="none" d="M-4.15 4.5 L-3.75 2.4 -4.95 2.45 -4.15 4.5"/><path fill="none" stroke="#000000" stroke-width="0.5" stroke-opacity="0.301960784314" d="M-4.15 4.5 L-3.75 2.4 -4.95 2.45 -4.15 4.5"/><path fill="#fbf1bf" stroke="none" d="M-10.4 4.1 L-9.9 2.65 -10.95 2.6 -10.4 4.1"/><path fill="none" stroke="#000000" stroke-width="0.5" stroke-opacity="0.301960784314" d="M-10.4 4.1 L-9.9 2.65 -10.95 2.6 -10.4 4.1"/><path fill="#fbf1bf" stroke="none" d="M-1.7 6.75 L-1.3 4.9 -0.5 6.8 -1.7 6.75"/><path fill="none" stroke="#000000" stroke-width="0.5" stroke-opacity="0.301960784314" d="M-1.7 6.75 L-1.3 4.9 -0.5 6.8 -1.7 6.75"/><path fill="#fbf1bf" stroke="none" d="M-7.75 5.7 L-6.9 4.05 -6.65 6.15 -7.75 5.7"/><path fill="none" stroke="#000000" stroke-width="0.5" stroke-opacity="0.301960784314" d="M-7.75 5.7 L-6.9 4.05 -6.65 6.15 -7.75 5.7"/><path fill="#fbf1bf" stroke="none" d="M6.2 6.3 L6.7 3.7 7.5 5.6 6.2 6.3"/><path fill="none" stroke="#000000" stroke-width="0.5" stroke-opacity="0.301960784314" d="M6.2 6.3 L6.7 3.7 7.5 5.6 6.2 6.3"/><path fill="#fbf1bf" stroke="none" d="M12.3 0.0 L11.15 -0.6 11.75 1.15 12.3 0.0"/><path fill="none" stroke="#000000" stroke-width="0.5" stroke-opacity="0.301960784314" d="M12.3 0.0 L11.15 -0.6 11.75 1.15 12.3 0.0"/><path fill="#fbf1bf" stroke="none" d="M12.7 -4.35 L12.1 -3.65 13.05 -3.2 12.7 -4.35"/><path fill="none" stroke="#000000" stroke-width="0.5" stroke-opacity="0.301960784314" d="M12.7 -4.35 L12.1 -3.65 13.05 -3.2 12.7 -4.35"/></g><g id="c32"><g><use transform="matrix(1.0,0.0,0.0,1.0,0.0,0.0)" xlink:href="#c31"/></g></g><g id="c33"><path fill="#1a2135" stroke="none" d="M-2.95 0.1 Q0.25 1.8 2.8 2.75 L5.4 3.8 6.65 4.35 Q10.2 5.85 8.5 6.35 L4.55 6.9 Q5.5 9.45 4.6 9.35 L0.4 8.7 Q0.7 11.8 -0.8 11.55 -2.25 11.25 -5.6 9.0 L-5.85 8.95 -7.85 7.55 -8.45 7.0 Q-9.3 6.25 -8.95 3.65 L-8.7 2.15 Q-7.35 1.5 -8.7 2.0 L-8.65 1.9 Q-5.75 -0.4 -2.95 0.1 M4.25 6.25 L4.55 6.9 4.25 6.25"/><path fill="#19243e" stroke="none" d="M-8.7 2.15 L-8.7 2.0 -8.8 2.0 -8.65 1.9 -8.7 2.0 Q-7.35 1.5 -8.7 2.15"/><path fill="none" stroke="#000000" stroke-width="0.5" stroke-opacity="0.301960784314" d="M-2.95 0.1 Q0.25 1.8 2.8 2.75 L5.4 3.8 6.65 4.35 Q10.2 5.85 8.5 6.35 L4.55 6.9 Q5.5 9.45 4.6 9.35 L0.4 8.7 Q0.7 11.8 -0.8 11.55 -2.25 11.25 -5.6 9.0 L-5.85 8.95 -7.85 7.55 -8.45 7.0 Q-9.3 6.25 -8.95 3.65 L-8.7 2.15 -8.7 2.0 -8.65 1.9 M4.55 6.9 L4.25 6.25"/></g><g id="c34"><g><use transform="matrix(1.0,0.0,0.0,1.0,0.0,0.0)" xlink:href="#c33"/></g></g><radialGradient gradientUnits="userSpaceOnUse" r="819.2" cx="0" cy="0" spreadMethod="pad" gradientTransform="matrix(0.0149383544922,-0.00497436523438,0.0179901123047,0.00968933105469,0.8,-1.2)" id="gradient3"><stop offset="0.0666666666667" stop-color="#ffffff" stop-opacity="0.643137254902"/><stop offset="0.211764705882" stop-color="#5ba4a4" stop-opacity="0.580392156863"/><stop offset="1.0" stop-color="#305657" stop-opacity="0.0"/></radialGradient><g id="c35"><path fill="#313c57" stroke="none" d="M-7.1 6.7 L-7.45 5.65 -7.7 3.0 Q-6.15 0.4 -4.5 0.05 L2.45 0.5 4.1 1.4 4.75 1.95 6.25 3.7 Q2.65 2.2 0.5 4.75 -1.7 7.3 -4.7 7.25 -6.5 7.25 -7.1 6.7 M6.7 4.25 L6.75 4.25 6.75 4.35 6.7 4.25"/><path fill="#283149" stroke="none" d="M6.25 3.7 L6.4 3.8 6.65 4.2 6.7 4.25 6.75 4.35 6.9 4.7 7.6 7.3 Q8.0 9.15 5.1 11.55 -1.65 14.1 -6.1 9.25 L-7.1 6.7 Q-6.5 7.25 -4.7 7.25 -1.7 7.3 0.5 4.75 2.65 2.2 6.25 3.7"/><path fill="none" stroke="#ffffff" stroke-width="0.5" stroke-opacity="0.301960784314" d="M-7.7 3.0 Q-6.15 0.4 -4.5 0.05 L2.45 0.5 4.1 1.4 4.75 1.95 6.25 3.7 6.4 3.8 6.65 4.2 6.7 4.25 6.75 4.25 6.75 4.35"/><path fill="#4b5572" stroke="none" d="M-2.55 0.2 Q-2.1 0.4 -0.45 0.2 1.2 0.0 2.8 1.0 4.4 1.95 1.85 2.4 L-1.35 2.5 Q-2.0 2.1 -2.4 1.1 -2.75 0.1 -5.25 0.7 -3.0 -0.05 -2.55 0.2"/><path fill="#4b5572" stroke="none" d="M-4.65 2.75 Q-6.55 5.15 -5.05 5.9 -6.7 5.8 -7.25 4.65 -7.8 3.05 -6.1 1.85 -2.8 0.35 -4.65 2.75"/><path fill="#ffffff" fill-opacity="0.301960784314" d="M-0.5 6.1 Q-0.25 6.45 -0.3 6.85 L-0.75 7.4 -1.55 7.3 -2.25 6.75 -2.35 5.95 -2.0 5.45 -1.2 5.5 -0.5 6.1"/><path fill="#ffffff" fill-opacity="0.301960784314" d="M-2.85 8.2 Q-2.75 8.35 -2.8 8.55 L-3.0 8.85 -3.4 8.85 -3.75 8.5 -3.85 8.1 -3.6 7.85 -3.25 7.9 -2.85 8.2"/><path fill="#ffffff" fill-opacity="0.301960784314" d="M0.4 9.45 L0.45 9.75 0.3 9.95 -0.05 9.95 -0.3 9.7 -0.4 9.4 -0.2 9.2 0.1 9.2 0.4 9.45"/><path fill="#ffffff" fill-opacity="0.301960784314" d="M-0.15 4.3 L-1.0 4.15 Q-1.4 3.9 -1.4 3.55 L-1.0 2.9 -0.15 2.6 0.75 2.8 1.1 3.35 Q1.15 3.7 0.8 3.95 L-0.15 4.3"/><path fill="#ffffff" fill-opacity="0.301960784314" d="M-1.4 1.5 L-1.85 1.45 -2.05 1.15 -1.85 0.8 -1.4 0.65 -0.95 0.75 -0.75 1.0 -0.95 1.35 -1.4 1.5"/><path fill="#ffffff" fill-opacity="0.301960784314" d="M-4.1 3.65 L-4.45 3.55 -4.6 3.35 -4.45 3.1 -4.05 2.95 -3.7 3.0 -3.55 3.25 -3.75 3.5 -4.1 3.65"/><path stroke="none" fill="url(#gradient3)" d="M-5.45 0.7 Q-3.55 -0.2 -0.8 0.05 2.05 0.25 4.1 1.45 6.1 2.7 6.1 3.9 6.0 5.15 4.0 5.8 L-0.85 6.2 Q-3.7 5.95 -5.65 4.9 -7.55 3.85 -7.4 2.75 -7.3 1.55 -5.45 0.7"/></g><g id="c36"><g><use transform="matrix(1.0,0.0,0.0,1.0,0.0,0.0)" xlink:href="#c35"/></g></g><radialGradient gradientUnits="userSpaceOnUse" r="819.2" cx="0" cy="0" spreadMethod="pad" gradientTransform="matrix(0.0158233642578,-0.00900268554688,0.00755310058594,0.0103607177734,5.05,-2.5)" id="gradient4"><stop offset="0.0666666666667" stop-color="#ffffff" stop-opacity="0.643137254902"/><stop offset="0.211764705882" stop-color="#5ba4a4" stop-opacity="0.580392156863"/><stop offset="1.0" stop-color="#305657" stop-opacity="0.0"/></radialGradient><g id="c37"><path fill="#283149" stroke="none" d="M-0.55 1.75 L-1.6 3.35 Q-4.5 8.6 0.85 11.8 2.3 12.7 7.45 11.95 6.2 13.85 4.25 15.0 L4.15 15.15 4.1 15.25 3.9 15.75 Q3.45 16.6 2.5 17.1 1.4 17.7 0.3 17.85 L-0.1 17.65 -8.85 14.05 -8.8 13.95 -8.65 13.1 Q-8.3 10.65 -7.1 8.5 -6.0 6.3 -4.15 4.65 L-2.55 3.35 -0.55 1.75 M0.0 16.1 Q2.15 16.2 4.0 15.25 L4.15 15.15 4.0 15.25 Q2.15 16.2 0.0 16.1"/><path fill="#313c57" stroke="none" d="M7.45 11.95 Q2.3 12.7 0.85 11.8 -4.5 8.6 -1.6 3.35 L-0.55 1.75 Q3.95 -1.6 7.1 1.5 L7.15 1.6 Q8.7 3.9 8.8 6.7 9.0 9.5 7.55 11.75 L7.45 11.95 M5.35 4.5 Q5.15 4.5 4.75 4.85 L4.2 5.55 Q4.1 6.1 4.15 6.6 4.15 7.05 4.5 7.45 L5.05 8.0 5.95 8.2 6.25 8.15 6.6 8.1 7.1 7.35 7.15 6.2 Q7.1 5.75 6.6 5.45 L5.8 5.5 5.5 5.85 Q5.15 6.2 5.45 6.7 5.15 6.2 5.5 5.85 L5.8 5.5 6.6 5.45 Q7.1 5.75 7.15 6.2 L7.1 7.35 6.6 8.1 6.25 8.15 5.95 8.2 5.05 8.0 4.5 7.45 Q4.15 7.05 4.15 6.6 4.1 6.1 4.2 5.55 L4.75 4.85 Q5.15 4.5 5.35 4.5"/><path fill="none" stroke="#000000" stroke-width="0.5" stroke-opacity="0.301960784314" d="M7.45 11.95 L7.55 11.75 Q9.0 9.5 8.8 6.7 8.7 3.9 7.15 1.6 M-2.55 3.35 L-4.15 4.65 Q-6.0 6.3 -7.1 8.5 -8.3 10.65 -8.65 13.1 L-8.8 13.95 -8.85 14.05 M-0.1 17.65 L0.3 17.85 Q1.4 17.7 2.5 17.1 3.45 16.6 3.9 15.75 L4.1 15.25 4.15 15.15 4.0 15.25 Q2.15 16.2 0.0 16.1 M5.45 6.7 Q5.15 6.2 5.5 5.85 L5.8 5.5 6.6 5.45 Q7.1 5.75 7.15 6.2 L7.1 7.35 6.6 8.1 6.25 8.15 5.95 8.2 5.05 8.0 4.5 7.45 Q4.15 7.05 4.15 6.6 4.1 6.1 4.2 5.55 L4.75 4.85 Q5.15 4.5 5.35 4.5 M4.15 15.15 L4.25 15.0 Q6.2 13.85 7.45 11.95"/><path fill="#313c57" stroke="none" d="M-2.25 16.3 L3.05 16.05 Q2.9 16.6 1.3 17.2 L-1.95 17.4 Q-3.6 17.0 -2.25 16.3"/><path fill="none" stroke="#000000" stroke-width="0.5" stroke-opacity="0.301960784314" d="M-2.25 16.3 L3.05 16.05 Q2.9 16.6 1.3 17.2 L-1.95 17.4 Q-3.6 17.0 -2.25 16.3"/><path stroke="none" fill="url(#gradient4)" d="M4.6 0.05 Q6.55 0.6 7.3 1.85 8.15 3.25 6.9 4.55 5.6 5.8 3.45 7.0 1.3 8.25 -0.85 8.4 -2.95 8.4 -3.75 7.3 -4.55 6.2 -3.6 4.6 -2.65 3.05 -0.25 1.5 2.15 -0.05 3.65 0.0 L4.6 0.05"/><path fill="#ffffff" fill-opacity="0.301960784314" d="M-0.1 6.65 L0.1 7.4 -0.35 7.95 -1.15 7.85 -1.85 7.3 -1.95 6.5 -1.6 6.0 -0.8 6.05 Q-0.35 6.25 -0.1 6.65"/><path fill="#ffffff" fill-opacity="0.301960784314" d="M-2.35 8.85 L-2.3 9.2 -2.5 9.5 -2.9 9.5 -3.25 9.15 -3.35 8.75 -3.1 8.5 -2.75 8.55 -2.35 8.85"/><path fill="#ffffff" fill-opacity="0.301960784314" d="M0.75 10.05 L0.8 10.35 0.65 10.55 0.3 10.55 0.05 10.3 -0.05 10.0 0.15 9.8 0.45 9.8 0.75 10.05"/><path fill="#f6ede4" stroke="none" d="M-4.2 8.0 L-6.35 8.0 -5.85 6.7 0.3 6.05 Q-3.0 8.95 -5.5 13.3 L-6.95 12.65 Q-5.95 10.25 -4.2 8.0"/></g><g id="c38"><g><use transform="matrix(1.0,0.0,0.0,1.0,0.0,0.0)" xlink:href="#c37"/></g></g><g id="c39"><path fill="#00000c" stroke="none" d="M11.1 26.8 L7.15 23.45 5.2 22.9 4.3 22.75 2.6 22.6 1.45 22.6 1.45 21.95 1.5 20.7 1.45 19.4 1.55 18.5 1.75 17.55 2.05 16.65 2.35 15.85 2.8 15.2 3.25 14.55 4.15 13.85 Q4.6 13.5 5.2 13.35 L6.35 13.0 7.35 13.0 8.25 13.05 9.3 13.2 Q7.2 18.1 11.1 26.8"/><path fill="none" stroke="#000000" stroke-width="0.5" stroke-opacity="0.301960784314" d="M9.3 13.2 L8.25 13.05 7.35 13.0 6.35 13.0 5.2 13.35 Q4.6 13.5 4.15 13.85 L3.25 14.55 2.8 15.2 2.35 15.85 2.05 16.65 1.75 17.55 1.55 18.5 1.45 19.4 1.5 20.7 1.45 21.95 1.45 22.6 2.6 22.6 4.3 22.75 5.2 22.9 7.15 23.45 11.1 26.8"/><path fill="#00000c" stroke="none" d="M1.1 21.75 Q-1.2 17.75 -2.05 17.1 L-4.6 15.55 -5.75 14.95 Q-7.0 14.25 -8.2 13.8 L-9.95 13.05 -9.4 12.6 Q-8.85 12.15 -8.3 11.85 L-7.2 11.0 Q-6.65 10.65 -6.15 10.45 L-5.0 9.95 -3.75 9.45 -2.6 9.2 -1.3 9.0 -0.05 8.85 1.9 8.9 3.95 9.2 6.05 9.75 7.55 10.35 8.95 10.95 10.45 11.7 Q2.85 13.65 1.1 21.75"/><path fill="none" stroke="#000000" stroke-width="0.5" stroke-opacity="0.301960784314" d="M10.45 11.7 L8.95 10.95 7.55 10.35 6.05 9.75 3.95 9.2 1.9 8.9 -0.05 8.85 -1.3 9.0 -2.6 9.2 -3.75 9.45 -5.0 9.95 -6.15 10.45 Q-6.65 10.65 -7.2 11.0 L-8.3 11.85 Q-8.85 12.15 -9.4 12.6 L-9.95 13.05 -8.2 13.8 Q-7.0 14.25 -5.75 14.95 L-4.6 15.55 -2.05 17.1 Q-1.2 17.75 1.1 21.75"/><path fill="#00000c" stroke="none" d="M-9.25 12.1 L-9.9 9.95 -11.2 7.15 -11.9 5.95 -13.65 3.45 -14.95 1.9 -13.85 1.9 -11.8 2.0 -9.85 2.1 -8.0 2.3 -6.2 2.7 -4.4 3.15 -2.7 3.65 Q-1.95 4.0 -1.15 4.3 L0.4 5.05 2.7 6.25 4.75 7.8 6.55 9.65 7.65 10.95 8.7 12.35 9.75 13.85 -9.25 12.1"/><path fill="none" stroke="#000000" stroke-width="0.5" stroke-opacity="0.301960784314" d="M9.75 13.85 L8.7 12.35 7.65 10.95 6.55 9.65 4.75 7.8 2.7 6.25 0.4 5.05 -1.15 4.3 Q-1.95 4.0 -2.7 3.65 L-4.4 3.15 -6.2 2.7 -8.0 2.3 -9.85 2.1 -11.8 2.0 -13.85 1.9 -14.95 1.9 -13.65 3.45 -11.9 5.95 -11.2 7.15 -9.9 9.95 -9.25 12.1"/><path fill="#313c57" stroke="none" d="M4.3 12.85 Q-4.2 15.2 -10.15 13.25 L-10.5 12.5 -10.4 12.35 -9.65 11.25 Q-2.7 13.7 7.15 10.4 7.35 10.2 7.15 9.55 L8.7 10.4 Q9.15 11.2 8.6 11.45 L4.55 12.8 4.3 12.85"/><path fill="none" stroke="#ffffff" stroke-width="0.5" stroke-opacity="0.301960784314" d="M4.3 12.85 Q-4.2 15.2 -10.15 13.25 L-10.5 12.5 -10.4 12.35 -9.65 11.25 Q-2.7 13.7 7.15 10.4 7.35 10.2 7.15 9.55 M8.7 10.4 Q9.15 11.2 8.6 11.45 L4.55 12.8"/><path fill="#313c57" stroke="none" d="M9.4 10.35 L9.75 11.7 8.9 11.5 Q6.85 13.5 5.45 15.45 2.7 19.5 2.85 23.3 L1.45 23.55 0.8 23.1 Q0.75 17.1 8.3 10.15 8.75 9.85 9.4 10.35"/><path fill="none" stroke="#ffffff" stroke-width="0.5" stroke-opacity="0.301960784314" d="M9.4 10.35 Q8.75 9.85 8.3 10.15 0.75 17.1 0.8 23.1 L1.45 23.55 2.85 23.3 Q2.7 19.5 5.45 15.45 6.85 13.5 8.9 11.5 L9.75 11.7"/><path fill="#313c57" stroke="none" d="M10.6 22.35 Q12.2 26.05 13.45 28.0 L13.95 28.85 14.3 29.35 14.4 29.55 14.1 30.4 13.85 30.6 13.5 30.65 12.35 30.6 12.15 30.2 11.6 29.45 12.15 30.2 12.35 30.6 13.5 30.65 13.85 30.6 14.1 30.4 14.4 29.55 14.3 29.35 13.95 28.85 Q15.0 28.95 15.2 29.8 15.45 30.85 14.65 31.3 12.9 31.75 11.75 31.05 10.85 30.3 11.6 29.45 L9.95 26.8 7.85 23.05 Q6.3 22.15 7.0 20.9 L10.05 20.8 10.2 20.85 10.7 21.65 10.6 22.35 10.15 23.0 10.6 22.35 M8.9 22.2 Q10.15 21.75 10.2 20.85 10.15 21.75 8.9 22.2"/><path fill="none" stroke="#ffffff" stroke-width="0.5" stroke-opacity="0.301960784314" d="M13.95 28.85 L13.45 28.0 Q12.2 26.05 10.6 22.35 L10.15 23.0 M10.6 22.35 L10.7 21.65 10.2 20.85 Q10.15 21.75 8.9 22.2 M11.6 29.45 L12.15 30.2 12.35 30.6 13.5 30.65 13.85 30.6 14.1 30.4 14.4 29.55 14.3 29.35 13.95 28.85 Q15.0 28.95 15.2 29.8 15.45 30.85 14.65 31.3 12.9 31.75 11.75 31.05 10.85 30.3 11.6 29.45 L9.95 26.8 7.85 23.05 Q6.3 22.15 7.0 20.9 L10.05 20.8 10.2 20.85"/><path fill="#313c57" stroke="none" d="M1.05 4.25 L1.2 4.3 6.75 8.05 11.9 12.2 12.6 12.8 Q13.1 14.15 12.1 14.05 L6.25 9.65 0.8 6.0 Q0.6 5.8 0.45 5.75 L-0.2 5.35 Q-3.15 3.8 -6.6 2.7 L-11.05 2.15 -14.9 2.25 -15.3 1.35 -15.05 0.35 Q-10.75 -0.55 -6.75 0.75 -3.75 1.7 -1.3 3.0 L1.05 4.25"/><path fill="none" stroke="#ffffff" stroke-width="0.5" stroke-opacity="0.301960784314" d="M1.2 4.3 L6.75 8.05 11.9 12.2 12.6 12.8 M12.1 14.05 L6.25 9.65 0.8 6.0 Q0.6 5.8 0.45 5.75 L-0.2 5.35 Q-3.15 3.8 -6.6 2.7 L-11.05 2.15 -14.9 2.25 -15.3 1.35 -15.05 0.35 Q-10.75 -0.55 -6.75 0.75 -3.75 1.7 -1.3 3.0 L1.05 4.25"/><path fill="#d8ca7c" stroke="none" d="M12.6 13.75 L12.25 13.7 11.9 13.7 11.5 13.35 Q11.3 12.95 11.65 12.25 L12.3 11.9 12.65 12.1 12.75 12.15 Q12.0 12.45 12.0 12.9 12.2 13.6 14.55 13.75 L14.4 13.8 12.6 13.75"/><path fill="#313c57" stroke="none" d="M12.75 12.15 L12.65 12.1 12.3 11.9 11.65 12.25 Q11.3 12.95 11.5 13.35 L11.9 13.7 12.25 13.7 12.6 13.75 10.8 14.15 10.75 14.15 Q10.45 14.3 10.55 14.6 L10.55 14.65 Q8.75 17.85 9.9 20.85 9.2 21.7 8.35 21.75 L7.25 21.55 Q6.45 16.0 8.45 12.95 L8.35 12.95 8.35 11.15 8.85 9.9 Q14.0 11.8 13.4 12.55 L12.75 12.15 M8.75 12.3 L8.45 12.95 8.75 12.3"/><path fill="#fbf1bf" stroke="none" d="M14.55 13.75 Q12.2 13.6 12.0 12.9 12.0 12.45 12.75 12.15 L13.4 12.55 Q14.8 13.4 14.55 13.75"/><path fill="#20211b" stroke="none" d="M10.75 14.15 L10.75 14.25 10.65 14.4 10.55 14.65 10.55 14.6 Q10.45 14.3 10.75 14.15"/><path fill="none" stroke="#ffffff" stroke-width="0.5" stroke-opacity="0.301960784314" d="M12.75 12.15 L12.65 12.1 12.3 11.9 11.65 12.25 Q11.3 12.95 11.5 13.35 L11.9 13.7 12.25 13.7 12.6 13.75 14.4 13.8 14.55 13.75 Q14.8 13.4 13.4 12.55 14.0 11.8 8.85 9.9 M12.75 12.15 L13.4 12.55 M8.35 12.95 L8.45 12.95 8.75 12.3 M7.25 21.55 Q6.45 16.0 8.45 12.95 M10.75 14.15 L10.75 14.25 10.65 14.4 10.55 14.65 Q8.75 17.85 9.9 20.85 M10.55 14.65 L10.55 14.6 Q10.45 14.3 10.75 14.15 L10.8 14.15 12.6 13.75"/><path fill="#f6ede4" stroke="none" d="M10.35 23.5 L10.75 22.95 Q11.75 27.05 13.55 29.8 L13.25 30.0 Q10.7 27.55 8.4 23.75 L9.3 23.8 11.35 27.2 10.35 23.5"/><path fill="#f6ede4" stroke="none" d="M8.75 18.65 L8.25 21.85 Q7.8 21.75 7.45 21.45 8.2 16.45 9.85 14.2 L10.2 14.2 Q8.55 17.0 9.9 21.05 L9.45 21.55 8.75 18.65"/><path fill="#f6ede4" stroke="none" d="M-3.8 1.9 Q0.7 3.2 9.85 10.9 -6.35 -0.3 -14.75 2.0 -15.65 1.1 -14.45 0.35 -9.3 -0.65 -3.8 1.9"/><path fill="#f6ede4" stroke="none" d="M11.05 10.9 L11.05 11.55 9.85 11.55 9.85 10.9 11.05 10.9"/></g><g id="c40"><g><use transform="matrix(1.0,0.0,0.0,1.0,0.0,0.0)" xlink:href="#c39"/></g></g><g id="c41"><g><use transform="matrix(-1.70286560059,0.0,0.0,0.851409912109,0.0,0.0)" filter="url(#filter21)" xlink:href="#c2"/></g><g><use transform="matrix(1.0,0.0,0.0,1.0,15.65,-9.95)" xlink:href="#c4"/></g><g><use transform="matrix(1.0,0.0,0.0,1.0,16.65,-22.1)" xlink:href="#c6"/></g><g><use transform="matrix(1.0,0.0,0.0,1.0,16.3,-17.6)" xlink:href="#c8"/></g><g><use transform="matrix(1.0,0.0,0.0,1.0,17.0,-9.35)" xlink:href="#c10"/></g><g><use transform="matrix(1.0,0.0,0.0,1.0,12.15,2.45)" xlink:href="#c12"/></g><g><use transform="matrix(1.0,0.0,0.0,1.0,16.55,-3.4)" xlink:href="#c14"/></g><g><use transform="matrix(1.0,0.0,0.0,1.0,15.1,2.0)" xlink:href="#c16"/></g><g><use transform="matrix(1.0,0.0,0.0,1.0,-0.55,-37.9)" xlink:href="#c18"/></g><g><use transform="matrix(1.29693603516,0.0,0.0,1.29693603516,-1.9,-28.9)" xlink:href="#c20"/></g><g><use transform="matrix(1.0,0.0,0.0,1.0,2.7,3.0)" xlink:href="#c22"/></g><g><use transform="matrix(1.0,0.0,0.0,1.0,7.1,7.05)" xlink:href="#c24"/></g><g><use transform="matrix(1.0,0.0,0.0,1.0,-0.05,-2.2)" xlink:href="#c26"/></g><g><use transform="matrix(1.0,0.0,0.0,1.0,5.1,-15.0)" xlink:href="#c28"/></g><g><use transform="matrix(1.0,0.0,0.0,1.0,4.9,-22.15)" xlink:href="#c30"/></g><g><use transform="matrix(1.0,0.0,0.0,1.0,8.1,-17.5)" xlink:href="#c32"/></g><g><use transform="matrix(1.0,0.0,0.0,1.0,-14.15,-1.25)" xlink:href="#c34"/></g><g><use transform="matrix(1.0,0.0,0.0,1.0,-13.65,-14.15)" xlink:href="#c36"/></g><g><use transform="matrix(1.0,0.0,0.0,1.0,-14.15,-11.7)" xlink:href="#c38"/></g><g><use transform="matrix(1.0,0.0,0.0,1.0,-24.8,-54.05)" xlink:href="#c40"/></g></g><filter id="filter21"><feColorMatrix in="SourceGraphic" type="matrix" values="1.0 0.0 0.0 0.0 0.0 0.0 1.0 0.0 0.0 0.0 0.0 0.0 1.0 0.0 0.0 0.0 0.0 0.0 0.5 0.0" result="cxform"/><feComposite operator="in" in2="SourceGraphic" result="color-xform"/></filter><g id="c42"><path fill="#000000" fill-opacity="0.00392156862745" d="M0.0 0.0 L60.0 0.0 60.0 60.0 0.0 60.0 0.0 0.0"/></g><g id="c43"><path fill="none" stroke="#000000" stroke-width="1.0" stroke-opacity="0.301960784314" d="M0.7 12.25 Q-0.45 9.75 0.75 8.25 1.2 7.6 2.15 7.15 2.8 6.7 3.8 6.35 L17.5 1.95 30.2 7.0 41.35 31.7 Q42.95 35.15 40.2 36.7 39.5 37.3 38.3 37.65 L25.5 41.8 25.45 41.75 24.55 42.0 11.85 37.0 0.7 12.25"/><path fill="#9d147b" stroke="none" d="M35.55 22.3 L31.5 13.2 29.75 9.2 16.95 4.25 5.5 7.85 Q1.65 9.1 3.35 12.8 L8.25 23.65 13.1 34.35 25.8 39.4 37.2 35.7 Q41.1 34.5 39.35 30.75 L35.55 22.3 M5.45 20.95 L1.35 11.8 Q0.4 9.65 1.1 8.3 1.45 7.65 2.15 7.15 2.8 6.7 3.8 6.35 L17.5 1.95 30.2 7.0 41.35 31.7 Q42.95 35.15 40.2 36.7 L38.9 37.25 25.2 41.65 12.5 36.65 5.45 20.95"/><path fill="#c47fad" stroke="none" d="M31.5 13.2 L35.55 22.3 39.35 30.75 Q41.1 34.5 37.2 35.7 L25.8 39.4 13.1 34.35 8.25 23.65 3.35 12.8 Q1.65 9.1 5.5 7.85 L16.95 4.25 29.75 9.2 31.5 13.2 M18.5 7.45 L9.1 10.55 9.55 11.6 Q9.8 12.8 9.15 13.6 8.4 14.45 7.1 14.4 L6.8 14.4 6.95 14.6 15.2 32.75 23.85 36.2 34.0 32.9 33.7 32.1 Q33.45 30.9 34.1 30.1 34.75 29.3 35.95 29.35 L35.8 29.0 27.75 10.95 18.5 7.45"/><path fill="#fcf2cf" stroke="none" d="M27.75 10.95 L35.8 29.0 35.95 29.35 Q34.75 29.3 34.1 30.1 33.45 30.9 33.7 32.1 L34.0 32.9 23.85 36.2 15.2 32.75 6.95 14.6 6.8 14.4 7.1 14.4 Q8.4 14.45 9.15 13.6 9.8 12.8 9.55 11.6 L9.1 10.55 18.5 7.45 27.75 10.95"/><path fill="#630a4c" stroke="none" d="M1.1 8.3 L0.75 8.25 Q1.2 7.6 2.15 7.15 1.45 7.65 1.1 8.3 M4.6 20.9 L5.45 20.95 12.5 36.65 11.55 36.25 11.25 35.55 4.6 20.9"/><path fill="#300525" stroke="none" d="M1.1 8.3 Q0.4 9.65 1.35 11.8 L5.45 20.95 4.6 20.9 0.7 12.25 Q-0.45 9.75 0.75 8.25 L1.1 8.3 M12.5 36.65 L25.2 41.65 38.9 37.25 40.2 36.7 Q39.5 37.3 38.3 37.65 L25.5 41.8 25.45 41.75 24.55 42.0 11.85 37.0 11.55 36.25 12.5 36.65"/><path fill="none" stroke="#bf9900" stroke-width="1.0" stroke-opacity="0.749019607843" d="M31.5 13.2 L35.55 22.3 M13.1 34.35 L8.25 23.65"/><path fill="none" stroke="#ffcc00" stroke-width="1.0" stroke-opacity="0.749019607843" d="M35.55 22.3 L39.35 30.75 Q41.1 34.5 37.2 35.7 L25.8 39.4 M8.25 23.65 L3.35 12.8 Q1.65 9.1 5.5 7.85 L16.95 4.25 29.75 9.2 31.5 13.2"/><path fill="none" stroke="#f0b92b" stroke-width="0.5" d="M27.75 10.95 L35.8 29.0 35.95 29.35 Q34.75 29.3 34.1 30.1 33.45 30.9 33.7 32.1 L34.0 32.9 23.85 36.2 15.2 32.75 6.95 14.6 6.8 14.4 7.1 14.4 Q8.4 14.45 9.15 13.6 9.8 12.8 9.55 11.6 L9.1 10.55 18.5 7.45"/><path fill="none" stroke="#000000" stroke-width="0.5" stroke-opacity="0.301960784314" d="M5.45 20.95 L1.35 11.8 Q0.4 9.65 1.1 8.3 M0.75 8.25 Q-0.45 9.75 0.7 12.25 L4.6 20.9 M5.45 20.95 L12.5 36.65 M25.2 41.65 L38.9 37.25 40.2 36.7 Q42.95 35.15 41.35 31.7 L30.2 7.0 M17.5 1.95 L3.8 6.35 Q2.8 6.7 2.15 7.15 1.45 7.65 1.1 8.3 M0.75 8.25 Q1.2 7.6 2.15 7.15 M11.25 35.55 L4.6 20.9 M25.5 41.8 L38.3 37.65 Q39.5 37.3 40.2 36.7"/><path fill="none" stroke="#ffcc00" stroke-width="0.5" stroke-opacity="0.749019607843" d="M18.5 7.45 L27.75 10.95"/><path fill="none" stroke="#f0b92b" stroke-width="1.0" stroke-opacity="0.749019607843" d="M25.8 39.4 L13.1 34.35"/><path fill="none" stroke="#432f2f" stroke-width="0.5" d="M12.5 36.65 L25.2 41.65"/></g><g id="c44"><path fill="#7fdbfe" stroke="none" d="M10.75 4.9 Q10.75 4.6 10.9 4.35 11.25 3.45 11.95 2.75 13.3 1.5 14.35 2.1 15.4 2.7 14.95 4.45 14.7 5.4 14.1 6.15 L13.75 6.5 Q13.1 7.15 12.35 7.35 L11.4 7.2 Q10.95 6.9 10.75 6.4 10.5 5.75 10.75 4.9 M7.5 5.9 Q7.0 5.85 6.6 5.5 6.05 5.0 5.8 4.15 L5.7 3.6 Q5.55 2.65 5.8 1.7 6.25 0.0 7.5 0.0 L7.6 0.0 Q8.85 0.0 9.3 1.7 9.55 2.65 9.4 3.6 L9.3 4.15 8.5 5.5 7.6 5.9 7.5 5.9 M4.35 4.9 Q4.6 5.75 4.35 6.4 L3.7 7.2 2.75 7.35 Q2.0 7.15 1.35 6.5 L1.0 6.15 Q0.4 5.4 0.15 4.45 -0.3 2.7 0.75 2.1 1.8 1.5 3.15 2.75 3.85 3.45 4.2 4.35 L4.35 4.9 M5.5 13.7 Q4.45 13.9 3.65 12.95 2.75 12.0 3.2 10.25 3.7 8.5 5.25 7.6 6.4 6.9 7.55 7.0 8.75 6.9 9.9 7.6 11.45 8.5 11.95 10.25 12.35 12.0 11.5 12.95 10.7 13.9 9.65 13.7 8.55 13.5 7.55 12.6 6.55 13.5 5.5 13.7"/></g><g id="c45"><g><use transform="matrix(1.0,0.0,0.0,1.0,0.0,0.0)" xlink:href="#c44"/></g></g><radialGradient gradientUnits="userSpaceOnUse" r="819.2" cx="0" cy="0" spreadMethod="pad" gradientTransform="matrix(0.0914459228516,0.0,0.0,0.0914459228516,0.6,3.4)" id="gradient5"><stop offset="0.0" stop-color="#ffffff"/><stop offset="1.0" stop-color="#ffffff" stop-opacity="0.0"/></radialGradient><g id="c46"><path stroke="none" fill="url(#gradient5)" d="M36.65 -54.65 Q60.05 -42.0 69.75 -17.95 80.55 8.9 68.0 34.1 55.45 59.35 26.8 68.2 -1.8 77.05 -29.7 64.3 -57.6 51.6 -68.45 24.75 -79.3 -2.05 -66.75 -27.25 L-66.7 -27.3 Q-54.1 -52.5 -25.5 -61.4 3.1 -70.2 31.0 -57.5 L36.65 -54.65"/></g><g id="c47"><g><use transform="matrix(1.0,0.0,0.0,1.0,0.0,0.0)" xlink:href="#c46"/></g></g><radialGradient gradientUnits="userSpaceOnUse" r="819.2" cx="0" cy="0" spreadMethod="pad" gradientTransform="matrix(0.209197998047,0.0,0.0,0.177108764648,67.15,107.2)" id="gradient6"><stop offset="0.356862745098" stop-color="#ffffff"/><stop offset="0.670588235294" stop-opacity="0.0"/></radialGradient><g id="c48"><path fill="none" stroke-linejoin="round" stroke-linecap="round" stroke="url(#gradient6)" stroke-width="0.5" d="M136.55 165.8 L68.6 106.0 68.4 106.0 118.25 201.5 M68.3 105.8 L68.35 105.8 68.3 105.8 68.3 105.85 68.4 106.0 68.3 106.0 86.55 211.5 M68.3 105.8 L68.3 105.85 68.3 106.0 68.15 105.95 18.25 151.55 M68.3 105.85 L68.25 105.85 68.3 106.0 50.0 193.2 M68.25 105.85 L68.15 105.95 0.05 97.7 M68.3 105.85 L68.25 105.8 68.25 105.85 M68.25 105.8 L68.2 105.7 0.0 45.7 M68.3 105.8 L68.25 105.75 68.25 105.8 M68.25 105.75 L68.2 105.7 18.25 10.05 M68.6 106.0 L68.35 105.8 118.25 60.15 M86.6 18.35 L68.3 105.8 M136.6 114.25 L68.6 106.0 M68.25 105.75 L49.95 0.05"/></g><g id="c49"><g><use transform="matrix(1.0,0.0,0.0,1.0,0.0,0.0)" xlink:href="#c48"/></g></g><g id="c50"><g><use transform="matrix(1.0,0.0,0.0,1.0,0.0,0.0)" xlink:href="#c43"/></g><g><use transform="matrix(0.238861083984,-0.0867004394531,0.10026550293,0.233917236328,34.25,31.15)" xlink:href="#c45"/></g><g><use transform="matrix(0.238861083984,-0.0867004394531,0.10026550293,0.233917236328,4.25,10.3)" xlink:href="#c45"/></g><g><use transform="matrix(0.141098022461,-0.0378112792969,0.111373901367,0.225646972656,20.25,20.65)" filter="url(#filter47)" xlink:href="#c47"/></g><g><use transform="matrix(-0.155029296875,0.0513153076172,0.0841827392578,0.147033691406,22.6,3.15)" filter="url(#filter48)" xlink:href="#c49"/></g></g><filter id="filter47"><feColorMatrix in="SourceGraphic" type="matrix" values="0.0 0.0 0.0 0.0 0.796875 0.0 0.0 0.0 0.0 0.59765625 0.0 0.0 0.0 0.0 0.19921875 0.0 0.0 0.0 1.0 0.0" result="cxform"/><feComposite operator="in" in2="SourceGraphic" result="color-xform"/></filter><filter id="filter48"><feColorMatrix in="SourceGraphic" type="matrix" values="0.0 0.0 0.0 0.0 0.99609375 0.0 0.0 0.0 0.0 0.99609375 0.0 0.0 0.0 0.0 0.99609375 0.0 0.0 0.0 1.0 0.0" result="cxform"/><feComposite operator="in" in2="SourceGraphic" result="color-xform"/></filter><filter id="filter52"><feColorMatrix in="SourceGraphic" type="matrix" values="1.0 0.0 0.0 0.0 0.0 0.0 1.0 0.0 0.0 0.0 0.0 0.0 1.0 0.0 0.0 0.0 0.0 0.0 0.23046875 0.0" result="cxform"/><feComposite operator="in" in2="SourceGraphic" result="color-xform"/></filter></defs><g><g><use transform="matrix(1.0,0.0,0.0,1.0,0.0,0.0)" xlink:href="#c42"/></g><g><use transform="matrix(1.15496826172,0.0,0.0,1.15496826172,5.85,4.8)" xlink:href="#c50"/></g><g><use transform="matrix(0.313339233398,-0.0839233398438,0.0839233398438,0.313339233398,33.65,36.9)" xlink:href="#c41"/></g><g><use transform="matrix(0.162948608398,-0.0436706542969,0.128631591797,0.260604858398,30.0,28.7)" filter="url(#filter52)" xlink:href="#c47"/></g></g></svg>