<?xml version='1.0' encoding='UTF-8'?>
<svg xmlns:xlink="http://www.w3.org/1999/xlink" xmlns="http://www.w3.org/2000/svg" version="1.1" width="60px" height="60px" viewBox="0.0 0.0 60.0 60.0"><defs><g id="c1"><path fill="#e19448" stroke="none" d="M21.8 2.95 Q27.85 8.0 33.35 15.65 34.35 17.15 34.75 19.05 25.05 28.35 12.25 32.45 7.05 37.7 1.05 32.25 L0.25 30.85 Q-0.25 28.3 0.2 25.85 0.8 22.45 0.85 18.4 1.3 12.9 3.55 8.8 10.75 4.65 21.8 2.95"/><path fill="#ca7624" stroke="none" d="M1.05 32.25 Q7.05 37.7 12.25 32.45 25.05 28.35 34.75 19.05 35.6 23.55 33.6 29.95 28.8 37.1 18.75 39.4 8.35 41.2 3.95 36.3 2.55 34.75 1.05 32.25"/><path fill="none" stroke="#000000" stroke-width="0.5" stroke-opacity="0.301960784314" d="M34.75 19.05 Q34.35 17.15 33.35 15.65 27.85 8.0 21.8 2.95 M0.85 18.4 Q0.8 22.45 0.2 25.85 -0.25 28.3 0.25 30.85 L1.05 32.25 M34.75 19.05 Q35.6 23.55 33.6 29.95 28.8 37.1 18.75 39.4 8.35 41.2 3.95 36.3 2.55 34.75 1.05 32.25"/><path fill="#e5aa5b" stroke="none" d="M22.1 2.9 L24.0 5.5 Q24.4 7.1 15.3 12.15 5.3 16.0 3.0 13.25 3.2 8.5 4.15 6.85 L5.25 7.35 4.7 10.35 5.45 7.45 Q12.95 10.2 22.1 2.9"/><path fill="#efc8a0" stroke="none" d="M4.15 6.85 L4.5 6.3 Q5.45 4.85 7.25 3.6 10.8 1.2 17.9 0.05 19.45 -0.25 22.1 2.9 12.95 10.2 5.45 7.45 L5.8 6.4 Q6.0 5.6 5.8 5.8 L5.45 6.6 5.25 7.35 4.15 6.85"/><path fill="#fec7a3" stroke="none" d="M5.45 7.45 L4.7 10.35 5.25 7.35 5.45 6.6 5.8 5.8 Q6.0 5.6 5.8 6.4 L5.45 7.45"/><path fill="none" stroke="#000000" stroke-width="0.5" stroke-opacity="0.301960784314" d="M22.1 2.9 L24.0 5.5 M4.5 6.3 Q5.45 4.85 7.25 3.6 10.8 1.2 17.9 0.05 19.45 -0.25 22.1 2.9"/><path fill="#82441a" fill-opacity="0.501960784314" d="M10.0 27.25 Q11.6 20.8 5.6 11.2 L23.4 6.85 Q27.55 15.3 34.25 17.45 22.85 27.2 10.0 27.25"/><path fill="#ad6f45" stroke="none" d="M25.15 7.5 Q27.7 10.65 26.9 13.05 26.1 14.15 24.7 14.1 23.5 14.0 20.95 11.45 L22.75 14.85 18.85 15.8 Q18.1 11.65 17.45 9.9 19.15 11.25 20.4 9.45 22.35 6.3 25.15 7.5"/></g><g id="c2"><g><use transform="matrix(1.0,0.0,0.0,1.0,0.0,0.0)" xlink:href="#c1"/></g></g><g id="c3"><path fill="#e19448" stroke="none" d="M13.4 4.2 L14.1 10.25 14.0 13.2 Q13.75 5.5 7.2 1.3 L13.4 4.2 M13.9 14.05 L14.95 15.4 Q12.1 16.65 9.15 16.1 12.5 14.9 13.9 14.05"/><path fill="#e5aa5b" stroke="none" d="M7.2 1.3 Q13.75 5.5 14.0 13.2 L13.9 14.05 Q12.5 14.9 9.15 16.1 12.1 16.65 14.95 15.4 L16.4 16.55 Q14.15 17.35 11.4 18.85 L9.45 19.1 7.9 19.0 Q1.95 15.1 0.65 10.1 -0.75 5.1 0.8 0.4 L3.55 0.05 Q4.25 0.05 7.2 1.3"/><path fill="none" stroke="#000000" stroke-width="0.5" stroke-opacity="0.301960784314" d="M14.0 13.2 L14.1 10.25 13.4 4.2 M14.0 13.2 L13.9 14.05 14.95 15.4 16.4 16.55 M7.9 19.0 Q1.95 15.1 0.65 10.1 -0.75 5.1 0.8 0.4"/><path fill="none" stroke="#ca6046" stroke-width="1.5" stroke-opacity="0.301960784314" d="M1.7 8.15 Q0.6 5.05 2.85 1.95 4.6 -0.25 5.0 2.7 5.45 5.95 3.75 7.2 3.0 7.8 2.85 5.85 2.85 4.3 3.6 3.8 4.2 3.5 4.1 5.3 3.9 6.0 3.6 5.45"/></g><g id="c4"><g><use transform="matrix(1.0,0.0,0.0,1.0,0.0,0.0)" xlink:href="#c3"/></g></g><g id="c5"><path fill="#e19448" stroke="none" d="M9.45 2.4 Q11.75 -0.85 14.55 -0.9 17.3 -0.95 18.55 0.0 19.85 2.05 20.4 4.25 L20.65 6.6 Q20.9 11.4 17.45 17.1 L16.5 16.85 13.95 21.85 12.1 24.45 Q8.25 24.5 5.5 23.4 4.4 18.95 9.45 15.1 L13.35 14.95 Q16.6 13.25 15.35 10.85 9.05 9.5 9.45 2.4"/><path fill="#e5aa5b" stroke="none" d="M9.45 2.4 Q9.05 9.5 15.35 10.85 16.6 13.25 13.35 14.95 L9.45 15.1 Q4.4 18.95 5.5 23.4 1.85 22.0 0.0 18.55 0.85 13.8 2.5 11.55 3.95 9.55 6.85 7.85 L7.65 7.35 Q8.4 4.15 9.45 2.4 M7.35 8.45 L7.65 7.35 7.35 8.45"/><path fill="none" stroke="#000000" stroke-width="0.5" stroke-opacity="0.301960784314" d="M12.1 24.45 L13.95 21.85 16.5 16.85 17.45 17.1 M9.45 2.4 Q8.4 4.15 7.65 7.35 L7.35 8.45 M7.65 7.35 L6.85 7.85 Q3.95 9.55 2.5 11.55 0.85 13.8 0.0 18.55"/></g><g id="c6"><g><use transform="matrix(1.0,0.0,0.0,1.0,0.0,0.0)" xlink:href="#c5"/></g></g><g id="c7"><path fill="#a5611f" stroke="none" d="M49.4 28.1 Q48.75 33.1 45.85 40.2 21.25 61.45 6.7 45.35 4.5 42.2 3.2 38.8 2.1 36.0 1.4 33.35 L1.3 33.05 Q4.0 39.9 7.8 41.45 11.6 43.0 13.45 41.1 25.7 40.85 37.0 43.25 43.95 33.45 49.4 28.1"/><path fill="#e19448" stroke="none" d="M43.3 13.55 L44.9 15.3 48.3 19.8 Q50.15 22.7 49.4 28.1 43.95 33.45 37.0 43.25 25.7 40.85 13.45 41.1 11.6 43.0 7.8 41.45 4.0 39.9 1.3 33.05 L0.45 28.85 0.05 26.3 Q3.65 30.4 8.85 32.15 10.0 29.2 16.5 24.8 19.8 22.6 23.4 20.5 23.45 20.7 27.0 18.65 L30.55 16.6 Q38.1 11.85 43.3 13.55"/><path fill="#e5aa5b" stroke="none" d="M0.05 26.3 Q1.15 19.0 3.45 13.65 L4.45 11.55 8.35 15.0 13.05 18.6 20.2 13.65 Q27.5 8.05 35.75 7.7 L34.1 5.65 43.3 13.55 Q38.1 11.85 30.55 16.6 L27.0 18.65 Q23.45 20.7 23.4 20.5 19.8 22.6 16.5 24.8 10.0 29.2 8.85 32.15 3.65 30.4 0.05 26.3"/><path fill="#efc8a0" stroke="none" d="M5.65 9.25 L5.6 9.25 6.1 8.75 Q13.25 1.05 28.95 0.0 29.7 -0.15 34.1 5.65 L35.75 7.7 Q27.5 8.05 20.2 13.65 L13.05 18.6 5.65 9.25"/><path fill="#eab17b" stroke="none" d="M4.45 11.55 L5.65 9.25 13.05 18.6 8.35 15.0 4.45 11.55"/><path fill="none" stroke="#000000" stroke-width="0.5" stroke-opacity="0.301960784314" d="M6.7 45.35 Q4.5 42.2 3.2 38.8 2.1 36.0 1.4 33.35 L1.3 33.05 M28.95 0.0 Q29.7 -0.15 34.1 5.65 L43.3 13.55 M35.75 7.7 L34.1 5.65"/><path fill="#e19448" stroke="none" d="M18.2 51.3 L15.9 51.05 13.85 50.2 Q13.0 49.75 13.1 49.4 13.2 49.0 14.15 49.0 L16.35 49.35 18.5 50.1 Q19.35 50.6 19.25 51.0 19.15 51.35 18.2 51.3"/><path fill="none" stroke="#000000" stroke-width="0.5" stroke-opacity="0.301960784314" d="M18.2 51.3 L15.9 51.05 13.85 50.2 Q13.0 49.75 13.1 49.4 13.2 49.0 14.15 49.0 L16.35 49.35 18.5 50.1 Q19.35 50.6 19.25 51.0 19.15 51.35 18.2 51.3"/><path fill="#e19448" stroke="none" d="M45.95 38.7 L45.4 39.95 44.45 40.9 Q43.95 41.3 43.65 41.1 43.4 40.95 43.55 40.3 L44.15 39.1 Q44.55 38.45 45.05 38.1 45.55 37.75 45.8 37.9 46.1 38.1 45.95 38.7"/><path fill="none" stroke="#000000" stroke-width="0.5" stroke-opacity="0.301960784314" d="M45.95 38.7 L45.4 39.95 44.45 40.9 Q43.95 41.3 43.65 41.1 43.4 40.95 43.55 40.3 L44.15 39.1 Q44.55 38.45 45.05 38.1 45.55 37.75 45.8 37.9 46.1 38.1 45.95 38.7"/></g><g id="c8"><g><use transform="matrix(1.0,0.0,0.0,1.0,0.0,0.0)" xlink:href="#c7"/></g></g><g id="c9"><path fill="#96581d" stroke="none" d="M0.0 9.9 Q0.3 8.25 2.15 4.55 3.95 0.85 4.85 0.05 7.1 -0.25 9.8 2.95 L13.05 2.45 Q15.15 3.0 16.7 5.7 17.5 8.05 16.6 13.1 L15.55 17.7 Q14.7 18.2 12.75 18.15 L10.35 17.8 8.3 16.0 Q0.7 14.05 0.0 9.9"/><path fill="none" stroke="#000000" stroke-width="0.5" stroke-opacity="0.301960784314" d="M0.0 9.9 Q0.3 8.25 2.15 4.55 3.95 0.85 4.85 0.05 7.1 -0.25 9.8 2.95 L13.05 2.45 Q15.15 3.0 16.7 5.7 17.5 8.05 16.6 13.1 L15.55 17.7 Q14.7 18.2 12.75 18.15 L10.35 17.8 8.3 16.0"/></g><g id="c10"><g><use transform="matrix(1.0,0.0,0.0,1.0,0.0,0.0)" xlink:href="#c9"/></g></g><g id="c11"><path fill="#96581d" stroke="none" d="M0.05 7.45 Q5.5 1.25 6.25 0.9 L7.9 0.0 8.95 6.2 Q9.65 10.35 7.5 15.35 8.0 16.4 7.7 16.55 L6.5 17.85 Q6.25 18.2 4.45 18.15 L2.6 18.05 2.05 16.0 1.1 12.9 0.05 7.45"/><path fill="none" stroke="#000000" stroke-width="0.5" stroke-opacity="0.301960784314" d="M0.05 7.45 L1.1 12.9 2.05 16.0 M7.7 16.55 Q8.0 16.4 7.5 15.35 9.65 10.35 8.95 6.2 L7.9 0.0"/></g><g id="c12"><g><use transform="matrix(1.0,0.0,0.0,1.0,0.0,0.0)" xlink:href="#c11"/></g></g><g id="c13"><path fill="#e5aa5b" stroke="none" d="M11.05 0.6 Q12.55 1.0 14.75 2.1 18.75 4.15 20.85 21.95 L18.15 26.45 16.0 28.65 13.2 30.95 12.85 31.4 Q10.0 32.0 5.95 28.5 L4.9 27.35 2.5 20.75 Q1.55 17.4 1.45 16.2 1.15 12.5 3.0 8.35 3.7 6.7 7.45 3.5 L11.05 0.6 M11.55 0.85 L11.95 0.9 11.55 0.8 11.55 0.85 M14.55 29.25 L13.2 30.95 14.55 29.25"/><path fill="#e19448" stroke="none" d="M4.9 27.35 L2.95 24.35 Q1.2 21.4 0.8 19.8 -0.5 15.4 0.35 11.95 1.1 8.4 3.35 4.5 5.6 0.55 9.0 0.0 L11.05 0.6 7.45 3.5 Q3.7 6.7 3.0 8.35 1.15 12.5 1.45 16.2 1.55 17.4 2.5 20.75 L4.9 27.35 M11.55 0.85 L11.55 0.8 11.95 0.9 11.55 0.85"/><path fill="none" stroke="#000000" stroke-width="0.5" stroke-opacity="0.301960784314" d="M20.85 21.95 L18.15 26.45 16.0 28.65 13.2 30.95 12.85 31.4 Q10.0 32.0 5.95 28.5 L4.9 27.35 M0.8 19.8 Q-0.5 15.4 0.35 11.95 1.1 8.4 3.35 4.5 M1.45 16.2 Q1.55 17.4 2.5 20.75 M13.2 30.95 L14.55 29.25"/><path fill="#eab17b" stroke="none" d="M6.95 19.3 L6.35 16.35 Q6.1 14.25 6.2 13.6 6.35 12.4 8.25 6.55 10.2 0.75 13.05 2.6 15.85 4.45 17.45 12.9 19.05 21.25 16.75 24.35 14.4 27.45 11.05 24.15 7.65 20.8 6.95 19.3"/><path fill="#e19448" stroke="none" d="M2.45 14.25 L4.75 11.1 7.4 13.0 6.7 17.35 3.65 18.2 2.45 14.25"/><path fill="none" stroke="#ca6046" stroke-width="0.5" stroke-opacity="0.301960784314" d="M2.45 14.25 L4.75 11.1 7.4 13.0 6.7 17.35 3.65 18.2 2.45 14.25"/><path fill="#e19448" stroke="none" d="M6.95 7.5 L9.4 6.75 10.0 8.8 7.95 10.7 6.05 9.95 6.95 7.5"/><path fill="none" stroke="#ca6046" stroke-width="0.5" stroke-opacity="0.301960784314" d="M6.95 7.5 L9.4 6.75 10.0 8.8 7.95 10.7 6.05 9.95 6.95 7.5"/><path fill="#e19448" stroke="none" d="M2.75 8.05 L5.05 7.7 5.35 9.6 3.25 11.1 1.65 10.15 2.75 8.05"/><path fill="none" stroke="#ca6046" stroke-width="0.5" stroke-opacity="0.301960784314" d="M2.75 8.05 L5.05 7.7 5.35 9.6 3.25 11.1 1.65 10.15 2.75 8.05"/></g><g id="c14"><g><use transform="matrix(1.0,0.0,0.0,1.0,0.0,0.0)" xlink:href="#c13"/></g></g><g id="c15"><path fill="#96581d" stroke="none" d="M9.65 7.95 Q9.5 13.15 10.2 18.7 L10.9 21.0 10.7 22.0 9.4 22.0 7.8 22.15 Q6.2 23.05 4.5 24.5 3.0 25.4 2.25 25.15 L1.9 24.65 Q1.75 24.2 1.9 23.85 1.55 23.15 1.25 17.45 L0.65 12.7 Q-0.6 5.15 0.65 2.4 5.85 -4.35 9.65 7.95"/><path fill="none" stroke="#000000" stroke-width="0.5" stroke-opacity="0.301960784314" d="M9.65 7.95 Q9.5 13.15 10.2 18.7 L10.9 21.0 10.7 22.0 9.4 22.0 7.8 22.15 Q6.2 23.05 4.5 24.5 3.0 25.4 2.25 25.15 L1.9 24.65 Q1.75 24.2 1.9 23.85 1.55 23.15 1.25 17.45 L0.65 12.7 Q-0.6 5.15 0.65 2.4 5.85 -4.35 9.65 7.95"/></g><g id="c16"><g><use transform="matrix(1.0,0.0,0.0,1.0,0.0,0.0)" xlink:href="#c15"/></g></g><g id="c17"><path fill="#48352e" stroke="none" d="M6.4 5.4 L5.6 4.1 6.4 5.4 6.5 6.2 3.05 7.4 Q2.7 7.45 0.35 5.4 L0.0 3.75 Q0.55 1.45 4.15 0.25 6.4 -0.55 7.25 1.0 L9.15 3.2 9.5 4.45 7.2 5.75 Q6.6 5.35 6.4 5.4"/><path fill="none" stroke="#000000" stroke-width="0.5" stroke-opacity="0.301960784314" d="M5.6 4.1 L6.4 5.4 Q6.6 5.35 7.2 5.75 L9.5 4.45 9.15 3.2 7.25 1.0 M0.0 3.75 L0.35 5.4 Q2.7 7.45 3.05 7.4 L6.5 6.2 6.4 5.4"/></g><g id="c18"><g><use transform="matrix(1.0,0.0,0.0,1.0,0.0,0.0)" xlink:href="#c17"/></g></g><g id="c19"><path fill="#48352e" stroke="none" d="M6.4 5.4 L5.6 4.1 6.4 5.4 6.5 6.2 3.05 7.4 Q2.7 7.45 0.35 5.4 L0.0 3.75 Q0.55 1.45 4.15 0.25 5.65 -0.3 7.4 1.25 L9.15 3.2 9.5 4.45 7.2 5.75 Q6.6 5.35 6.4 5.4"/><path fill="none" stroke="#000000" stroke-width="0.5" stroke-opacity="0.301960784314" d="M5.6 4.1 L6.4 5.4 Q6.6 5.35 7.2 5.75 L9.5 4.45 9.15 3.2 7.4 1.25 Q5.65 -0.3 4.15 0.25 M0.0 3.75 L0.35 5.4 Q2.7 7.45 3.05 7.4 L6.5 6.2 6.4 5.4"/></g><g id="c20"><g><use transform="matrix(1.0,0.0,0.0,1.0,0.0,0.0)" xlink:href="#c19"/></g></g><g id="c21"><path fill="#ffb880" stroke="none" d="M23.4 15.6 L22.45 23.1 Q21.75 25.15 20.4 27.05 L20.25 27.65 Q18.0 29.4 12.8 27.95 L9.05 26.0 4.2 20.8 Q2.2 18.1 2.05 17.5 1.75 16.5 1.5 11.65 1.2 6.75 5.1 0.8 L11.4 1.2 Q14.75 0.8 23.4 15.6 M20.85 24.95 L20.4 27.05 20.85 24.95"/><path fill="#ad6f45" stroke="none" d="M5.1 0.8 Q1.2 6.75 1.5 11.65 1.75 16.5 2.05 17.5 2.2 18.1 4.2 20.8 -0.05 16.4 0.0 13.65 -0.05 11.6 0.3 7.85 0.55 2.95 3.25 1.0 L5.1 0.8 M4.05 0.05 L3.05 0.5 3.75 0.0 4.05 0.05 M5.95 23.3 L5.85 23.15 5.95 23.3"/><path fill="none" stroke="#000000" stroke-width="0.5" stroke-opacity="0.301960784314" d="M20.4 27.05 Q21.75 25.15 22.45 23.1 L23.4 15.6 M9.05 26.0 L12.8 27.95 Q18.0 29.4 20.25 27.65 L20.4 27.05 20.85 24.95 M0.3 7.85 Q-0.05 11.6 0.0 13.65 -0.05 16.4 4.2 20.8"/></g><g id="c22"><g><use transform="matrix(1.0,0.0,0.0,1.0,0.0,0.0)" xlink:href="#c21"/></g></g><g id="c23"><path fill="#ad6f45" stroke="none" d="M10.45 21.7 L8.85 21.8 Q8.35 22.0 6.95 22.85 5.2 23.85 4.45 24.5 2.95 25.4 2.25 25.2 L1.9 24.7 Q1.7 24.2 1.85 23.85 L1.15 15.6 0.6 12.75 Q-0.55 5.2 0.6 2.4 5.85 -4.35 9.65 8.0 9.45 13.15 10.2 18.7 L10.85 20.95 11.15 21.4 10.7 22.35 10.45 21.7 M8.5 15.65 Q9.55 17.05 10.2 18.7 9.55 17.05 8.5 15.65"/><path fill="none" stroke="#000000" stroke-width="0.5" stroke-opacity="0.301960784314" d="M10.45 21.7 L8.85 21.8 Q8.35 22.0 6.95 22.85 5.2 23.85 4.45 24.5 2.95 25.4 2.25 25.2 L1.9 24.7 Q1.7 24.2 1.85 23.85 L1.15 15.6 0.6 12.75 Q-0.55 5.2 0.6 2.4 5.85 -4.35 9.65 8.0 9.45 13.15 10.2 18.7 L10.85 20.95 11.15 21.4 10.7 22.35 M10.2 18.7 Q9.55 17.05 8.5 15.65"/></g><g id="c24"><g><use transform="matrix(1.0,0.0,0.0,1.0,0.0,0.0)" xlink:href="#c23"/></g></g><radialGradient gradientUnits="userSpaceOnUse" r="819.2" cx="0" cy="0" spreadMethod="pad" gradientTransform="matrix(0.0171966552734,0.0,0.0,0.0171966552734,0.0,0.0)" id="gradient1"><stop offset="0.588235294118" stop-color="#0e171d"/><stop offset="1.0" stop-color="#101a24" stop-opacity="0.0"/></radialGradient><g id="c25"><path stroke="none" fill="url(#gradient1)" d="M10.4 -10.45 Q14.75 -6.1 14.75 0.0 14.75 6.1 10.4 10.4 6.1 14.75 0.0 14.75 -6.1 14.75 -10.45 10.4 -14.75 6.1 -14.75 0.0 -14.75 -6.1 -10.45 -10.45 -6.1 -14.75 0.0 -14.75 6.1 -14.75 10.4 -10.45"/></g><g id="c26"><g><use transform="matrix(1.0,0.0,0.0,1.0,0.0,0.0)" xlink:href="#c25"/></g></g><g id="c27"><path fill="#96581d" stroke="none" d="M56.6 33.35 Q57.35 46.45 49.55 55.2 41.8 64.05 30.05 63.3 18.35 62.65 9.55 52.85 0.8 43.15 0.05 30.05 -0.7 16.95 7.1 8.15 14.85 -0.6 26.55 0.05 38.25 0.8 47.05 10.45 55.85 20.25 56.6 33.35"/><path fill="none" stroke="#000000" stroke-width="0.5" stroke-opacity="0.301960784314" d="M56.6 33.35 Q57.35 46.45 49.55 55.2 41.8 64.05 30.05 63.3 18.35 62.65 9.55 52.85 0.8 43.15 0.05 30.05 -0.7 16.95 7.1 8.15 14.85 -0.6 26.55 0.05 38.25 0.8 47.05 10.45 55.85 20.25 56.6 33.35"/></g><g id="c28"><g><use transform="matrix(1.0,0.0,0.0,1.0,0.0,0.0)" xlink:href="#c27"/></g></g><g id="c29"><path fill="#96581d" stroke="none" d="M4.45 6.4 L6.4 4.3 8.8 2.55 Q10.7 1.25 11.4 1.0 L14.25 0.1 Q8.4 2.25 4.45 6.4"/><path fill="#e5aa5b" stroke="none" d="M14.25 0.1 Q14.55 0.1 11.9 4.1 9.3 8.0 8.1 16.25 7.7 17.05 7.0 17.45 L4.65 18.0 1.65 17.35 0.0 15.1 1.1 12.0 2.2 9.75 3.1 8.15 4.45 6.4 Q8.4 2.25 14.25 0.1"/><path fill="none" stroke="#000000" stroke-width="0.5" stroke-opacity="0.301960784314" d="M11.9 4.1 Q9.3 8.0 8.1 16.25 M1.65 17.35 L0.0 15.1 1.1 12.0 2.2 9.75 3.1 8.15 4.45 6.4 6.4 4.3 8.8 2.55 Q10.7 1.25 11.4 1.0"/></g><g id="c30"><g><use transform="matrix(1.0,0.0,0.0,1.0,0.0,0.0)" xlink:href="#c29"/></g></g><g id="c31"><path fill="#96581d" stroke="none" d="M44.7 19.05 Q46.0 20.95 46.65 23.05 49.85 33.2 37.4 49.05 32.45 53.85 15.2 53.7 5.2 40.8 1.75 27.8 5.55 36.3 15.05 43.7 18.1 37.2 22.95 30.85 L26.2 27.3 Q35.55 18.4 44.7 19.05"/><path fill="#e5aa5b" stroke="none" d="M1.75 27.8 Q-1.0 17.05 0.6 6.3 1.4 3.85 1.95 2.65 2.8 0.85 7.5 0.2 L11.9 2.55 Q8.05 2.85 7.6 6.9 7.4 18.0 11.75 26.5 15.2 31.5 16.9 29.25 29.9 12.25 38.75 14.6 L44.7 19.05 Q35.55 18.4 26.2 27.3 L22.95 30.85 Q18.1 37.2 15.05 43.7 5.55 36.3 1.75 27.8"/><path fill="#efc8a0" stroke="none" d="M11.9 2.55 L38.75 14.6 Q29.9 12.25 16.9 29.25 15.2 31.5 11.75 26.5 7.4 18.0 7.6 6.9 8.05 2.85 11.9 2.55"/><path fill="none" stroke="#000000" stroke-width="0.5" stroke-opacity="0.301960784314" d="M44.7 19.05 Q46.0 20.95 46.65 23.05 49.85 33.2 37.4 49.05 32.45 53.85 15.2 53.7 5.2 40.8 1.75 27.8 -1.0 17.05 0.6 6.3 1.4 3.85 1.95 2.65 M7.5 0.2 L11.9 2.55 38.75 14.6 44.7 19.05"/><path fill="none" stroke="#000000" stroke-width="0.5" stroke-opacity="0.301960784314" d="M22.95 30.85 Q18.1 37.2 15.05 43.7"/><path fill="#e19448" stroke="none" d="M5.35 32.55 L2.2 24.15 6.8 19.3 12.85 24.8 11.95 33.0 5.35 32.55"/><path fill="none" stroke="#ca6046" stroke-width="0.5" stroke-opacity="0.301960784314" d="M5.35 32.55 L2.2 24.15 6.8 19.3 12.85 24.8 11.95 33.0 5.35 32.55"/><path fill="#e19448" stroke="none" d="M0.45 18.85 L1.6 14.5 4.6 14.2 5.45 18.4 2.85 21.25 0.45 18.85"/><path fill="none" stroke="#ca6046" stroke-width="0.5" stroke-opacity="0.301960784314" d="M0.45 18.85 L1.6 14.5 4.6 14.2 5.45 18.4 2.85 21.25 0.45 18.85"/><path fill="#e19448" stroke="none" d="M7.75 14.25 L10.5 14.05 11.5 17.2 9.35 19.45 7.05 17.6 7.75 14.25"/><path fill="none" stroke="#ca6046" stroke-width="0.5" stroke-opacity="0.301960784314" d="M7.75 14.25 L10.5 14.05 11.5 17.2 9.35 19.45 7.05 17.6 7.75 14.25"/></g><g id="c32"><g><use transform="matrix(1.0,0.0,0.0,1.0,0.0,0.0)" xlink:href="#c31"/></g></g><g id="c33"><path fill="#eedcd5" stroke="none" d="M11.15 11.95 L10.85 9.8 11.15 11.95 M11.1 5.0 L10.9 6.85 10.85 9.8 Q11.85 11.1 12.85 13.35 11.2 14.2 9.9 13.95 L8.15 12.95 7.95 10.35 Q6.15 5.2 6.1 0.2 8.5 1.5 11.1 5.0 M7.95 10.35 L8.85 12.6 7.95 10.35"/><path fill="none" stroke="#a69688" stroke-width="0.5" stroke-opacity="0.2" d="M10.85 9.8 L11.15 11.95 M11.1 5.0 L10.9 6.85 10.85 9.8 Q11.85 11.1 12.85 13.35 11.2 14.2 9.9 13.95 L8.15 12.95 M7.95 10.35 Q6.15 5.2 6.1 0.2 M8.85 12.6 L7.95 10.35"/></g><g id="c34"><g><use transform="matrix(1.0,0.0,0.0,1.0,0.0,0.0)" xlink:href="#c33"/></g></g><linearGradient gradientUnits="userSpaceOnUse" x1="-819.2" x2="819.2" spreadMethod="pad" gradientTransform="matrix(0.88346862793,0.403564453125,0.0230712890625,0.856246948242,-1029.95,-936.05)" id="gradient2"><stop offset="0.0" stop-color="#ffffff"/><stop offset="1.0" stop-color="#d6c7ba"/></linearGradient><linearGradient gradientUnits="userSpaceOnUse" x1="-819.2" x2="819.2" spreadMethod="pad" gradientTransform="matrix(-0.0096435546875,0.00285339355469,0.00692749023438,0.0195770263672,47.6,38.6)" id="gradient3"><stop offset="0.0" stop-color="#ffffff"/><stop offset="1.0" stop-color="#c2ae9a"/></linearGradient><g id="c35"><path stroke="none" fill="url(#gradient2)" d="M10.25 8.7 L11.95 10.05 11.55 11.3 Q11.0 12.1 9.7 12.1 L7.95 11.9 9.6 11.65 Q10.4 11.25 10.85 10.2 L9.9 9.75 10.25 8.7"/><path fill="#f2e6e1" stroke="none" d="M8.9 6.55 L10.4 7.9 10.25 8.7 9.9 9.75 Q9.3 10.85 7.95 11.1 L6.65 11.25 Q8.15 11.05 9.05 9.4 L9.5 8.3 7.8 7.8 Q6.5 7.6 5.8 8.25 L5.45 7.6 6.35 6.7 Q6.7 6.3 7.7 6.35 L8.9 6.55"/><path fill="#f5e9e7" stroke="none" d="M4.3 17.6 L3.4 17.7 Q2.75 17.6 2.85 17.5 L3.2 14.7 3.1 12.95 Q2.95 11.25 2.35 10.4 3.25 10.6 4.1 11.1 4.3 8.8 2.2 7.85 3.2 7.4 4.45 7.45 L5.45 7.6 5.8 8.25 5.2 9.5 4.1 11.1 Q5.05 11.55 5.35 12.0 L5.6 12.8 4.4 14.25 4.6 16.05 4.3 17.6 M0.9 7.4 L1.15 5.9 Q3.95 1.5 8.55 0.0 8.9 1.4 8.05 3.55 L8.05 3.6 Q1.15 7.15 0.9 7.4 M4.4 14.25 L3.2 14.7 4.4 14.25"/><path stroke="none" fill="url(#gradient3)" d="M9.7 12.1 L9.1 13.3 Q9.95 14.25 10.25 15.25 L10.3 15.6 Q10.25 16.4 8.55 15.8 L8.75 15.3 8.75 14.75 Q8.55 13.95 7.55 12.55 L6.65 11.25 7.95 11.1 Q9.3 10.85 9.9 9.75 L10.85 10.2 Q10.4 11.25 9.6 11.65 L7.95 11.9 9.7 12.1 M8.05 3.55 L9.65 3.4 Q9.8 3.9 9.45 5.2 L8.9 6.55 7.7 6.35 Q6.7 6.3 6.35 6.7 L8.05 3.6 8.05 3.55"/><path fill="#eedcd5" stroke="none" d="M8.55 15.8 Q8.05 16.25 6.5 15.8 L5.55 15.85 4.6 16.05 4.4 14.25 5.6 12.8 5.35 12.0 Q5.05 11.55 4.1 11.1 3.25 10.6 2.35 10.4 2.95 11.25 3.1 12.95 L3.2 14.7 2.85 17.5 1.7 16.8 0.0 13.5 0.9 7.4 Q1.15 7.15 8.05 3.6 L6.35 6.7 5.45 7.6 4.45 7.45 Q3.2 7.4 2.2 7.85 4.3 8.8 4.1 11.1 L5.2 9.5 5.8 8.25 Q6.5 7.6 7.8 7.8 L9.5 8.3 9.05 9.4 Q8.15 11.05 6.65 11.25 L7.55 12.55 Q8.55 13.95 8.75 14.75 L8.75 15.3 8.55 15.8"/><path fill="#c4a8a2" stroke="none" d="M6.5 15.8 L7.0 17.25 7.2 18.3 Q6.9 19.2 4.3 17.6 L4.6 16.05 5.55 15.85 6.5 15.8"/><path fill="none" stroke="#a69688" stroke-width="0.5" stroke-opacity="0.2" d="M8.9 6.55 L10.4 7.9 10.25 8.7 11.95 10.05 11.55 11.3 Q11.0 12.1 9.7 12.1 L9.1 13.3 Q9.95 14.25 10.25 15.25 L10.3 15.6 Q10.25 16.4 8.55 15.8 8.05 16.25 6.5 15.8 L7.0 17.25 7.2 18.3 Q6.9 19.2 4.3 17.6 L3.4 17.7 Q2.75 17.6 2.85 17.5 M0.0 13.5 L0.9 7.4 1.15 5.9 Q3.95 1.5 8.55 0.0 8.9 1.4 8.05 3.55 L9.65 3.4 Q9.8 3.9 9.45 5.2 L8.9 6.55 7.7 6.35 Q6.7 6.3 6.35 6.7 L5.45 7.6 5.8 8.25 M6.65 11.25 L7.95 11.1 Q9.3 10.85 9.9 9.75 L10.25 8.7 M8.05 3.55 L8.05 3.6 6.35 6.7 M2.2 7.85 Q3.2 7.4 4.45 7.45 L5.45 7.6 M2.35 10.4 Q3.25 10.6 4.1 11.1 L5.2 9.5 5.8 8.25 M9.7 12.1 L7.95 11.9 M4.1 11.1 Q5.05 11.55 5.35 12.0 L5.6 12.8 4.4 14.25 4.6 16.05 5.55 15.85 6.5 15.8 M8.55 15.8 L8.75 15.3 8.75 14.75 Q8.55 13.95 7.55 12.55 L6.65 11.25 M3.2 14.7 L4.4 14.25 M4.3 17.6 L4.6 16.05"/></g><g id="c36"><g><use transform="matrix(1.0,0.0,0.0,1.0,0.0,0.0)" xlink:href="#c35"/></g></g><g id="c37"><path fill="#efc8a0" stroke="none" d="M51.15 34.1 L51.2 34.2 51.2 34.1 51.15 34.1 M23.3 9.45 Q24.85 9.05 31.25 11.55 37.65 13.95 42.65 17.55 47.6 21.1 48.95 25.25 49.25 26.2 53.9 36.6 L53.95 36.65 52.0 39.55 Q50.85 41.35 43.6 46.05 L36.55 50.4 Q11.95 46.35 7.45 25.55 L9.95 21.7 Q13.25 17.3 17.7 12.8 21.7 9.75 23.3 9.45 M50.0 29.75 L50.1 29.75 50.0 29.7 50.0 29.75"/><path fill="#e5aa5b" stroke="none" d="M53.95 36.65 L56.5 41.2 56.25 44.4 55.75 47.55 Q54.55 50.8 52.2 54.55 49.65 58.7 48.35 59.0 22.05 67.1 13.55 60.2 4.85 53.2 4.65 38.55 4.45 33.3 5.75 28.85 L7.45 25.55 Q11.95 46.35 36.55 50.4 L43.6 46.05 Q50.85 41.35 52.0 39.55 L53.95 36.65"/><path fill="#e19448" stroke="none" d="M55.75 47.55 Q54.5 60.8 46.15 72.35 L42.75 76.6 Q33.25 79.05 28.3 78.6 L21.75 77.45 17.25 76.4 Q15.05 75.9 10.4 72.45 6.0 69.2 4.95 67.6 1.0 61.1 0.0 50.6 -0.25 47.65 2.25 38.45 3.85 32.95 5.75 28.85 4.45 33.3 4.65 38.55 4.85 53.2 13.55 60.2 22.05 67.1 48.35 59.0 49.65 58.7 52.2 54.55 54.55 50.8 55.75 47.55"/><path fill="none" stroke="#000000" stroke-width="0.5" stroke-opacity="0.301960784314" d="M23.3 9.45 Q24.85 9.05 31.25 11.55 37.65 13.95 42.65 17.55 47.6 21.1 48.95 25.25 49.25 26.2 53.9 36.6 L53.95 36.65 56.5 41.2"/><path fill="none" stroke="#000000" stroke-width="0.5" stroke-opacity="0.301960784314" d="M55.75 47.55 Q54.5 60.8 46.15 72.35 L42.75 76.6 M17.7 12.8 Q21.7 9.75 23.3 9.45"/><path fill="#e19448" stroke="none" d="M8.65 54.3 L8.35 47.15 11.7 46.3 14.1 52.9 12.25 57.9 8.65 54.3"/><path fill="none" stroke="#ca6046" stroke-width="0.5" stroke-opacity="0.301960784314" d="M8.65 54.3 L8.35 47.15 11.7 46.3 14.1 52.9 12.25 57.9 8.65 54.3"/><path fill="#e19448" stroke="none" d="M6.2 41.55 L10.3 37.75 13.25 39.75 11.05 44.75 6.65 45.9 6.2 41.55"/><path fill="none" stroke="#ca6046" stroke-width="0.5" stroke-opacity="0.301960784314" d="M6.2 41.55 L10.3 37.75 13.25 39.75 11.05 44.75 6.65 45.9 6.2 41.55"/></g><g id="c38"><g><use transform="matrix(1.0,0.0,0.0,1.0,0.0,0.0)" xlink:href="#c37"/></g></g><g id="c39"><path fill="#48352e" stroke="none" d="M6.1 1.05 L7.6 3.3 7.95 4.6 6.0 5.85 5.35 5.5 5.45 6.25 2.55 7.6 1.35 6.65 0.35 5.5 0.0 3.9 Q0.5 1.5 3.45 0.2 5.35 -0.5 6.1 1.05 M4.7 4.25 L5.35 5.5 4.7 4.25"/><path fill="none" stroke="#000000" stroke-width="0.5" stroke-opacity="0.301960784314" d="M5.35 5.5 L6.0 5.85 7.95 4.6 7.6 3.3 6.1 1.05 M0.0 3.9 L0.35 5.5 1.35 6.65 2.55 7.6 5.45 6.25 5.35 5.5 4.7 4.25"/></g><g id="c40"><g><use transform="matrix(1.0,0.0,0.0,1.0,0.0,0.0)" xlink:href="#c39"/></g></g><g id="c41"><path fill="#ded0cc" stroke="none" d="M2.95 11.85 Q-0.25 10.35 0.05 0.0 2.0 2.7 4.25 4.8 7.6 7.9 6.85 10.6 6.15 13.3 2.95 11.85"/><path fill="none" stroke="#a69688" stroke-width="0.5" stroke-opacity="0.2" d="M2.95 11.85 Q-0.25 10.35 0.05 0.0 2.0 2.7 4.25 4.8 7.6 7.9 6.85 10.6 6.15 13.3 2.95 11.85"/></g><g id="c42"><g><use transform="matrix(1.0,0.0,0.0,1.0,0.0,0.0)" xlink:href="#c41"/></g></g><g id="c43"><path fill="#f5e9e7" stroke="none" d="M2.65 5.6 Q0.6 4.95 0.0 3.45 5.7 -0.3 11.4 0.05 L12.65 0.95 Q7.7 1.95 2.65 5.6 M17.25 11.0 L17.7 11.15 15.7 12.65 14.5 11.75 13.55 10.1 Q12.85 10.45 12.1 10.9 11.35 9.9 11.3 9.5 11.05 8.75 11.75 7.35 11.7 7.2 11.8 7.15 11.7 7.2 11.75 7.35 L9.6 7.25 8.2 6.9 8.1 6.05 Q9.5 3.9 11.6 2.7 10.05 5.7 11.8 7.15 12.3 6.05 13.1 4.85 13.0 6.2 14.1 7.85 L15.25 9.25 Q15.9 10.7 17.25 11.0 M15.25 9.25 L13.55 10.1 15.25 9.25"/><path fill="#eedcd5" stroke="none" d="M12.65 0.95 L17.55 4.75 17.95 9.2 17.25 11.0 Q15.9 10.7 15.25 9.25 L14.1 7.85 Q13.0 6.2 13.1 4.85 12.3 6.05 11.8 7.15 10.05 5.7 11.6 2.7 9.5 3.9 8.1 6.05 L6.6 6.35 2.65 5.6 Q7.7 1.95 12.65 0.95 M14.5 11.75 L13.35 11.95 Q11.6 15.0 9.35 15.2 9.05 14.35 9.15 12.2 L9.25 10.2 Q7.05 12.05 4.45 10.95 6.3 7.4 8.2 6.9 L9.6 7.25 11.75 7.35 Q11.05 8.75 11.3 9.5 11.35 9.9 12.1 10.9 12.85 10.45 13.55 10.1 L14.5 11.75"/><path fill="#f2e6e1" stroke="none" d="M9.25 10.2 L7.8 11.5 Q6.05 12.85 4.65 12.45 3.95 12.3 3.2 11.6 3.6 9.2 4.35 8.0 5.25 6.35 6.6 6.35 L8.1 6.05 8.2 6.9 Q6.3 7.4 4.45 10.95 7.05 12.05 9.25 10.2"/><path fill="none" stroke="#a69688" stroke-width="0.5" stroke-opacity="0.2" d="M2.65 5.6 Q0.6 4.95 0.0 3.45 5.7 -0.3 11.4 0.05 L12.65 0.95 17.55 4.75 M17.7 11.15 L15.7 12.65 14.5 11.75 13.35 11.95 Q11.6 15.0 9.35 15.2 9.05 14.35 9.15 12.2 L9.25 10.2 7.8 11.5 Q6.05 12.85 4.65 12.45 3.95 12.3 3.2 11.6 3.6 9.2 4.35 8.0 5.25 6.35 6.6 6.35 L2.65 5.6 M13.55 10.1 L14.5 11.75 M11.8 7.15 Q11.7 7.2 11.75 7.35 11.05 8.75 11.3 9.5 11.35 9.9 12.1 10.9 12.85 10.45 13.55 10.1 L15.25 9.25 M13.1 4.85 Q12.3 6.05 11.8 7.15 M11.6 2.7 Q9.5 3.9 8.1 6.05 L6.6 6.35"/></g><g id="c44"><g><use transform="matrix(1.0,0.0,0.0,1.0,0.0,0.0)" xlink:href="#c43"/></g></g><g id="c45"><path fill="#48352e" stroke="none" d="M5.1 4.25 L5.8 5.45 5.1 4.25 M3.7 0.25 Q5.1 -0.3 6.7 1.2 L8.3 3.2 8.65 4.5 6.55 5.8 Q6.0 5.45 5.8 5.45 L5.95 6.2 2.75 7.65 Q2.55 7.7 1.45 6.75 L0.35 5.65 Q0.45 5.2 0.0 4.05 0.55 1.65 3.7 0.25"/><path fill="none" stroke="#000000" stroke-width="0.5" stroke-opacity="0.301960784314" d="M5.8 5.45 L5.1 4.25 M3.7 0.25 Q5.1 -0.3 6.7 1.2 L8.3 3.2 8.65 4.5 6.55 5.8 Q6.0 5.45 5.8 5.45 L5.95 6.2 2.75 7.65 Q2.55 7.7 1.45 6.75 L0.35 5.65 Q0.45 5.2 0.0 4.05"/></g><g id="c46"><g><use transform="matrix(1.0,0.0,0.0,1.0,0.0,0.0)" xlink:href="#c45"/></g></g><g id="c47"><path fill="#ad6f45" stroke="none" d="M0.6 8.75 L0.0 9.15 0.15 8.65 0.6 8.75 M11.2 14.55 L11.25 14.1 11.3 14.0 11.3 13.9 11.55 13.3 Q12.0 13.9 12.05 14.35 L11.2 14.55"/><path fill="#ffecd1" stroke="none" d="M11.3 13.9 Q11.35 13.05 10.95 12.95 L7.7 12.75 6.9 12.4 Q3.6 11.35 2.6 9.25 L2.7 8.0 3.45 5.35 Q5.3 0.15 6.45 0.0 10.35 0.55 12.05 8.95 L11.55 13.3 11.3 13.9"/><path fill="#fedcbc" stroke="none" d="M0.0 9.15 L0.6 8.75 Q2.2 7.55 3.45 5.35 L2.7 8.0 2.6 9.25 Q3.6 11.35 6.9 12.4 L7.7 12.75 10.95 12.95 Q11.35 13.05 11.3 13.9 L11.3 14.0 11.25 14.1 11.2 14.55 Q9.45 14.8 6.9 14.05 L6.15 13.8 Q0.15 11.55 0.0 9.15"/><path fill="none" stroke="#000000" stroke-width="0.5" stroke-opacity="0.301960784314" d="M0.0 9.15 L0.6 8.75 M0.15 8.65 L0.0 9.15 Q0.15 11.55 6.15 13.8 L6.9 14.05 Q9.45 14.8 11.2 14.55 L11.25 14.1 M11.3 14.0 L11.3 13.9 11.55 13.3 12.05 8.95 Q10.35 0.55 6.45 0.0 5.3 0.15 3.45 5.35 2.2 7.55 0.6 8.75 M2.7 8.0 L3.45 5.35 M12.05 14.35 L11.2 14.55"/></g><g id="c48"><g><use transform="matrix(1.0,0.0,0.0,1.0,0.0,0.0)" xlink:href="#c47"/></g></g><g id="c49"><path fill="#fedcbc" stroke="none" d="M0.1 5.85 L0.9 5.85 Q2.95 5.65 5.2 4.05 9.3 -0.6 10.6 0.1 14.45 3.55 12.85 14.35 12.25 16.45 10.6 19.05 L10.75 20.65 9.75 20.2 6.85 17.85 4.65 15.7 Q-0.75 8.75 0.1 5.85 M10.6 19.05 L9.75 20.2 10.6 19.05"/><path fill="#ad6f45" stroke="none" d="M0.4 5.4 L0.9 5.85 0.1 5.85 0.4 5.4"/><path fill="none" stroke="#000000" stroke-width="0.5" stroke-opacity="0.301960784314" d="M0.4 5.4 L0.1 5.85 0.9 5.85 Q2.95 5.65 5.2 4.05 9.3 -0.6 10.6 0.1 14.45 3.55 12.85 14.35 12.25 16.45 10.6 19.05 M10.75 20.65 L9.75 20.2 6.85 17.85 4.65 15.7 Q-0.75 8.75 0.1 5.85 M9.75 20.2 L10.6 19.05"/></g><g id="c50"><g><use transform="matrix(1.0,0.0,0.0,1.0,0.0,0.0)" xlink:href="#c49"/></g></g><g id="c51"><path fill="#fedcbc" stroke="none" d="M13.5 19.1 L8.45 18.55 7.6 18.25 Q0.4 15.45 0.0 12.2 L0.7 11.65 Q2.3 10.15 3.6 7.2 L3.0 10.65 3.1 12.35 Q4.3 15.05 8.35 16.35 8.75 16.75 9.25 16.85 L13.1 16.95 Q13.55 17.15 13.6 18.3 L13.55 18.5 13.5 19.1"/><path fill="#ad6f45" stroke="none" d="M13.75 17.45 Q14.4 18.2 14.5 18.8 L13.5 19.1 13.55 18.5 13.6 18.3 13.75 17.45 M0.0 12.2 L0.15 11.65 0.7 11.65 0.0 12.2"/><path fill="#ffecd1" stroke="none" d="M3.6 7.2 Q5.25 0.2 6.55 0.0 11.1 0.65 13.9 11.65 14.15 14.0 13.75 17.45 L13.6 18.3 Q13.55 17.15 13.1 16.95 L9.25 16.85 Q8.75 16.75 8.35 16.35 4.3 15.05 3.1 12.35 L3.0 10.65 3.6 7.2"/><path fill="none" stroke="#000000" stroke-width="0.5" stroke-opacity="0.301960784314" d="M3.6 7.2 Q5.25 0.2 6.55 0.0 11.1 0.65 13.9 11.65 14.15 14.0 13.75 17.45 M14.5 18.8 L13.5 19.1 8.45 18.55 7.6 18.25 Q0.4 15.45 0.0 12.2 L0.15 11.65 M0.7 11.65 Q2.3 10.15 3.6 7.2 L3.0 10.65 M13.6 18.3 L13.75 17.45 M0.7 11.65 L0.0 12.2 M13.5 19.1 L13.55 18.5"/></g><g id="c52"><g><use transform="matrix(1.0,0.0,0.0,1.0,0.0,0.0)" xlink:href="#c51"/></g></g><g id="c53"><path fill="#ca7624" stroke="none" d="M2.3 6.15 L2.2 6.55 Q1.4 9.35 3.1 11.5 4.9 13.65 8.3 13.9 11.75 14.2 15.7 13.15 19.55 12.05 20.25 9.0 L20.25 7.15 20.1 6.05 Q21.15 8.5 21.2 11.7 21.3 17.25 18.3 21.65 15.25 26.1 10.8 26.95 6.45 27.65 3.25 24.2 0.1 20.9 0.0 15.35 -0.1 10.35 2.3 6.15"/><path fill="#e5aa5b" stroke="none" d="M20.1 6.05 L20.25 7.15 20.25 9.0 Q19.55 12.05 15.7 13.15 11.75 14.2 8.3 13.9 4.9 13.65 3.1 11.5 1.4 9.35 2.2 6.55 L2.3 6.15 Q3.2 3.5 6.1 1.8 6.75 1.4 8.65 0.65 L10.3 0.15 Q14.75 -0.6 17.95 2.8 19.3 4.25 20.1 6.05"/><path fill="none" stroke="#000000" stroke-width="0.5" stroke-opacity="0.301960784314" d="M2.3 6.15 Q-0.1 10.35 0.0 15.35 0.1 20.9 3.25 24.2 6.45 27.65 10.8 26.95 15.25 26.1 18.3 21.65 21.3 17.25 21.2 11.7 21.15 8.5 20.1 6.05 19.3 4.25 17.95 2.8 14.75 -0.6 10.3 0.15 L8.65 0.65 Q6.75 1.4 6.1 1.8"/></g><g id="c54"><g><use transform="matrix(1.0,0.0,0.0,1.0,0.0,0.0)" xlink:href="#c53"/></g></g><g id="c55"><path fill="#e5aa5b" stroke="none" d="M2.7 7.25 Q3.95 7.1 5.2 7.25 10.95 8.2 12.55 13.8 L11.3 16.95 Q10.1 19.45 9.35 20.25 5.5 23.3 2.7 7.25"/><path fill="#de8c3a" stroke="none" d="M0.45 14.95 Q-0.1 8.35 0.4 7.75 1.5 7.35 2.7 7.25 5.5 23.3 9.35 20.25 5.85 23.85 3.55 24.65 0.85 19.9 0.45 14.95"/><path fill="none" stroke="#000000" stroke-width="0.5" stroke-opacity="0.301960784314" d="M0.45 14.95 Q-0.1 8.35 0.4 7.75 1.5 7.35 2.7 7.25 3.95 7.1 5.2 7.25 10.95 8.2 12.55 13.8 L11.3 16.95 Q10.1 19.45 9.35 20.25 5.85 23.85 3.55 24.65"/><path fill="#fedcbc" stroke="none" d="M11.4 11.55 L11.3 12.25 10.75 11.7 9.9 11.65 Q7.45 12.3 5.2 10.3 L4.3 9.35 Q4.1 8.95 4.35 5.35 5.2 0.5 6.05 0.0 9.15 0.1 11.3 7.5 11.65 9.0 11.4 11.55"/><path fill="#fed0b4" stroke="none" d="M4.35 5.35 Q4.1 8.95 4.3 9.35 L5.2 10.3 Q7.45 12.3 9.9 11.65 L10.75 11.7 11.3 12.25 11.2 12.7 9.6 12.85 7.95 12.85 Q6.0 12.45 4.8 11.8 2.4 10.7 2.15 9.25 L2.55 8.75 Q3.55 7.45 4.35 5.35 M5.2 10.3 L4.8 11.8 5.2 10.3"/><path fill="#ad6f45" stroke="none" d="M11.3 12.25 L11.4 11.55 11.95 12.4 11.2 12.7 11.3 12.25 M2.55 8.75 L2.15 9.25 2.2 8.75 2.55 8.75"/><path fill="none" stroke="#000000" stroke-width="0.5" stroke-opacity="0.2" d="M11.3 12.25 L11.4 11.55 Q11.65 9.0 11.3 7.5 9.15 0.1 6.05 0.0 5.2 0.5 4.35 5.35 M11.3 12.25 L11.2 12.7 11.95 12.4 M2.55 8.75 L2.15 9.25 Q2.4 10.7 4.8 11.8 L5.2 10.3 M2.55 8.75 Q3.55 7.45 4.35 5.35 M2.15 9.25 L2.2 8.75 M11.2 12.7 L9.6 12.85 7.95 12.85 Q6.0 12.45 4.8 11.8"/></g><g id="c56"><g><use transform="matrix(1.0,0.0,0.0,1.0,0.0,0.0)" xlink:href="#c55"/></g></g><g id="c57"><path fill="#371e0d" stroke="none" d="M3.7 7.4 Q11.75 1.15 13.4 2.75 L13.6 3.8 15.65 6.8 Q19.4 12.45 17.6 13.25 14.1 13.0 8.8 10.25 L3.7 7.4"/><path fill="#e5aa5b" stroke="none" d="M13.4 2.75 Q13.5 2.2 14.4 2.35 L17.4 6.85 Q20.85 12.9 19.5 14.5 14.8 15.8 8.8 10.25 14.1 13.0 17.6 13.25 19.4 12.45 15.65 6.8 L13.6 3.8 13.4 2.75"/><path fill="#de8c3a" stroke="none" d="M17.4 6.85 Q20.4 11.75 20.85 14.65 19.5 16.9 18.15 17.1 16.95 16.85 16.85 16.6 5.35 12.0 2.9 9.1 L3.7 7.4 8.8 10.25 Q14.8 15.8 19.5 14.5 20.85 12.9 17.4 6.85"/><path fill="#ca7624" stroke="none" d="M16.85 16.6 Q10.4 23.7 3.15 23.45 0.6 20.5 0.95 16.2 1.15 13.0 2.9 9.1 5.35 12.0 16.85 16.6"/><path fill="none" stroke="#000000" stroke-width="0.5" stroke-opacity="0.301960784314" d="M14.4 2.35 L17.4 6.85 Q20.4 11.75 20.85 14.65 19.5 16.9 18.15 17.1 16.95 16.85 16.85 16.6 10.4 23.7 3.15 23.45 M15.65 6.8 Q19.4 12.45 17.6 13.25 14.1 13.0 8.8 10.25 M3.7 7.4 L8.8 10.25"/></g><g id="c58"><g><use transform="matrix(1.0,0.0,0.0,1.0,0.0,0.0)" xlink:href="#c57"/></g></g><g id="c59"><path fill="#e5aa5b" stroke="none" d="M22.4 6.15 L22.0 6.85 Q12.9 22.9 0.0 14.85 -0.15 9.55 2.95 5.35 4.7 2.95 6.85 1.5 8.85 0.55 11.05 0.15 15.9 -0.6 19.5 2.55 L21.45 4.35 22.4 6.15"/><path fill="#de8c3a" stroke="none" d="M22.0 6.85 L22.4 6.15 Q23.3 8.35 23.45 11.25 23.65 16.65 20.35 21.0 17.25 25.45 12.35 26.25 7.5 27.05 3.8 23.8 2.75 22.8 2.0 21.65 20.5 25.75 22.0 6.85"/><path fill="#e19448" stroke="none" d="M0.0 14.85 Q12.9 22.9 22.0 6.85 20.5 25.75 2.0 21.65 0.2 18.9 0.0 15.2 L0.0 14.85"/><path fill="none" stroke="#000000" stroke-width="0.5" stroke-opacity="0.301960784314" d="M22.4 6.15 L21.45 4.35 M6.85 1.5 Q4.7 2.95 2.95 5.35 -0.15 9.55 0.0 14.85 L0.0 15.2 Q0.2 18.9 2.0 21.65 2.75 22.8 3.8 23.8 7.5 27.05 12.35 26.25 17.25 25.45 20.35 21.0 23.65 16.65 23.45 11.25 23.3 8.35 22.4 6.15"/><path fill="#efc8a0" stroke="none" d="M4.3 12.75 L1.65 12.8 Q1.2 12.55 1.1 11.75 0.95 11.0 1.6 8.9 2.25 6.8 4.35 4.4 6.45 1.95 7.4 1.7 8.35 1.35 7.3 6.7 6.3 12.0 6.55 12.35 L4.3 12.75"/></g><g id="c60"><g><use transform="matrix(1.0,0.0,0.0,1.0,0.0,0.0)" xlink:href="#c59"/></g></g><g id="c61"><path fill="#c36a40" stroke="none" d="M3.85 0.0 L4.65 0.8 5.5 3.0 6.1 5.35 Q6.15 6.5 5.65 8.0 L5.05 9.1 Q5.7 8.1 5.65 6.2 3.15 7.1 2.65 5.15 L3.05 2.1 Q3.25 0.0 3.85 0.0"/><path fill="#e5aa5b" stroke="none" d="M3.85 0.0 Q3.25 0.0 3.05 2.1 L2.65 5.15 2.4 6.8 Q1.9 8.85 1.05 9.95 L0.0 9.05 Q0.15 7.15 1.55 6.9 2.4 4.7 2.75 2.55 3.05 -0.05 3.85 0.0 M1.0 8.1 L1.55 6.9 1.0 8.1"/><path fill="#6c3b1d" stroke="none" d="M2.65 5.15 Q3.15 7.1 5.65 6.2 5.7 8.1 5.05 9.1 L3.95 9.35 1.8 9.25 2.4 6.8 2.65 5.15"/><path fill="#ad6f45" stroke="none" d="M1.8 9.25 L1.45 9.7 1.05 9.95 Q1.9 8.85 2.4 6.8 L1.8 9.25"/><path fill="none" stroke="#000000" stroke-width="0.5" stroke-opacity="0.301960784314" d="M5.05 9.1 L5.65 8.0 Q6.15 6.5 6.1 5.35 L5.5 3.0 4.65 0.8 3.85 0.0 Q3.25 0.0 3.05 2.1 L2.65 5.15 M5.05 9.1 L3.95 9.35 1.8 9.25 1.45 9.7 1.05 9.95 M0.0 9.05 Q0.15 7.15 1.55 6.9 2.4 4.7 2.75 2.55 3.05 -0.05 3.85 0.0 M1.55 6.9 L1.0 8.1 M2.4 6.8 L1.8 9.25 M2.4 6.8 L2.65 5.15"/></g><g id="c62"><g><use transform="matrix(1.0,0.0,0.0,1.0,0.0,0.0)" xlink:href="#c61"/></g></g><g id="c63"><path fill="#c36a40" stroke="none" d="M2.45 5.5 L2.6 2.25 Q2.75 0.25 3.2 0.0 3.75 0.1 4.1 0.55 L5.0 2.65 5.75 4.95 5.5 7.65 Q5.3 8.6 4.85 9.0 5.65 7.8 5.45 5.9 3.0 7.55 2.45 5.5"/><path fill="#e5aa5b" stroke="none" d="M3.2 0.0 Q2.75 0.25 2.6 2.25 L2.45 5.5 2.2 7.45 Q1.95 9.4 1.1 10.7 L0.0 9.95 Q0.0 8.05 1.45 7.45 2.15 5.0 2.35 2.8 2.5 0.25 3.2 0.0 M1.0 8.75 L1.45 7.45 1.0 8.75"/><path fill="#ad6f45" stroke="none" d="M1.8 9.8 L1.5 10.35 1.1 10.7 Q1.95 9.4 2.2 7.45 L1.8 9.8"/><path fill="#6c3b1d" stroke="none" d="M2.45 5.5 Q3.0 7.55 5.45 5.9 5.65 7.8 4.85 9.0 L4.0 9.4 Q2.7 9.05 1.8 9.8 L2.2 7.45 2.45 5.5"/><path fill="none" stroke="#000000" stroke-width="0.5" stroke-opacity="0.301960784314" d="M3.2 0.0 Q2.75 0.25 2.6 2.25 L2.45 5.5 2.2 7.45 1.8 9.8 1.5 10.35 1.1 10.7 M4.85 9.0 Q5.3 8.6 5.5 7.65 L5.75 4.95 5.0 2.65 4.1 0.55 Q3.75 0.1 3.2 0.0 2.5 0.25 2.35 2.8 2.15 5.0 1.45 7.45 L1.0 8.75 M0.0 9.95 Q0.0 8.05 1.45 7.45 M1.8 9.8 Q2.7 9.05 4.0 9.4 L4.85 9.0"/></g><g id="c64"><g><use transform="matrix(1.0,0.0,0.0,1.0,0.0,0.0)" xlink:href="#c63"/></g></g><radialGradient gradientUnits="userSpaceOnUse" r="819.2" cx="0" cy="0" spreadMethod="pad" gradientTransform="matrix(0.004638671875,9.1552734375e-05,0.00067138671875,0.00851440429688,3.45,8.4)" id="gradient4"><stop offset="0.694117647059" stop-color="#fff4dd"/><stop offset="0.745098039216" stop-color="#d1b579"/></radialGradient><g id="c65"><path fill="#d99984" stroke="none" d="M4.05 0.2 Q2.6 -0.2 1.75 1.7 0.85 3.6 1.05 6.65 1.2 9.75 2.45 12.35 3.6 14.9 5.05 15.25 6.5 15.8 7.4 13.9 8.25 12.0 8.05 8.8 7.85 5.8 6.7 3.25 5.45 0.65 4.05 0.2"/><path fill="#ca6046" stroke="none" d="M7.0 3.65 Q5.95 1.4 4.7 1.1 3.4 0.8 2.6 2.55 1.75 4.3 1.9 7.05 2.05 9.85 3.1 12.1 4.15 14.35 5.4 14.65 6.65 15.0 7.5 13.25 8.3 11.5 8.2 8.7 8.05 5.9 7.0 3.65"/><path fill="#ca6046" stroke="none" d="M0.85 9.5 Q0.35 6.6 1.0 4.4 1.65 2.1 3.1 1.7 4.55 1.25 5.9 3.0 7.25 4.65 7.75 7.55 8.3 10.4 7.65 12.65 7.0 14.95 5.55 15.4 4.1 15.8 2.75 14.05 1.4 12.35 0.85 9.5"/><path stroke="none" fill="url(#gradient4)" d="M7.3 6.95 L7.3 7.05 7.35 7.3 Q7.8 9.8 7.2 12.0 6.65 14.05 5.35 14.4 4.6 14.65 3.85 14.15 L2.8 13.3 Q1.6 11.55 1.15 9.05 0.65 6.4 1.2 4.3 1.8 2.25 3.05 1.85 L4.1 1.8 Q4.85 2.1 5.6 3.05 6.75 4.6 7.3 6.95"/><path fill="none" stroke="#000000" stroke-width="0.5" stroke-opacity="0.180392156863" d="M7.3 6.95 Q6.75 4.6 5.6 3.05 4.85 2.1 4.1 1.8 L3.05 1.85 Q1.8 2.25 1.2 4.3 0.65 6.4 1.15 9.05 1.6 11.55 2.8 13.3 L3.85 14.15 Q4.6 14.65 5.35 14.4 6.65 14.05 7.2 12.0 7.8 9.8 7.35 7.3 L7.3 7.05 7.3 6.95"/><path fill="#252016" stroke="none" d="M3.05 8.5 L3.45 8.1 Q3.7 7.9 3.95 8.1 L4.25 8.85 4.2 9.75 3.75 10.35 3.2 10.25 2.9 9.5 2.9 9.05 3.1 9.05 3.25 8.9 3.3 8.75 3.2 8.55 3.05 8.5"/><path fill="#ffffff" stroke="none" d="M3.05 8.5 L3.2 8.55 3.3 8.75 3.25 8.9 3.1 9.05 2.9 9.05 2.85 8.9 2.9 8.7 3.05 8.55 3.05 8.5"/></g><g id="c66"><g><use transform="matrix(1.0,0.0,0.0,1.0,0.0,0.0)" xlink:href="#c65"/></g></g><radialGradient gradientUnits="userSpaceOnUse" r="819.2" cx="0" cy="0" fx="80.0" fy="0" spreadMethod="pad" gradientTransform="matrix(0.00680541992188,0.00534057617188,-0.0048828125,0.00698852539062,9.65,8.3)" id="gradient5"><stop offset="0.694117647059" stop-color="#fff4dd"/><stop offset="0.745098039216" stop-color="#d1b579"/></radialGradient><g id="c67"><path fill="#ca6046" stroke="none" d="M0.15 8.55 Q-0.45 5.3 1.2 2.9 2.85 0.55 5.75 0.25 8.65 0.0 11.1 2.0 13.5 4.0 14.1 7.25 14.65 10.4 12.95 12.8 11.3 15.25 8.4 15.5 5.5 15.8 3.05 13.7 0.7 11.7 0.15 8.55"/><path stroke="none" fill="url(#gradient5)" d="M10.15 1.85 Q10.8 2.0 12.25 3.1 13.7 4.7 13.95 7.2 L14.0 7.5 Q14.15 10.15 12.75 12.1 11.25 14.15 9.1 14.45 7.8 14.6 6.6 13.95 L5.3 12.95 Q3.65 11.3 3.5 8.7 3.3 6.05 4.8 4.0 6.2 2.0 8.4 1.7 L10.15 1.85"/><path fill="none" stroke="#000000" stroke-width="0.5" stroke-opacity="0.180392156863" d="M10.15 1.85 L8.4 1.7 Q6.2 2.0 4.8 4.0 3.3 6.05 3.5 8.7 3.65 11.3 5.3 12.95 L6.6 13.95 Q7.8 14.6 9.1 14.45 11.25 14.15 12.75 12.1 14.15 10.15 14.0 7.5 L13.95 7.2 Q13.7 4.7 12.25 3.1 10.8 2.0 10.15 1.85"/><path fill="#252016" stroke="none" d="M11.2 6.25 L11.8 5.65 Q12.2 5.5 12.6 5.8 L13.05 6.9 Q13.15 7.6 12.85 8.2 L12.2 8.9 11.4 8.75 11.0 7.65 11.0 7.0 11.25 7.05 11.5 6.85 11.6 6.6 11.45 6.35 11.2 6.25"/><path fill="#ffffff" stroke="none" d="M11.0 7.0 L10.85 6.8 11.0 6.45 Q11.05 6.3 11.2 6.35 L11.2 6.25 11.45 6.35 11.6 6.6 11.5 6.85 11.25 7.05 11.0 7.0"/></g><g id="c68"><g><use transform="matrix(1.0,0.0,0.0,1.0,0.0,0.0)" xlink:href="#c67"/></g></g><g id="c69"><path fill="#9c4e27" stroke="none" d="M17.0 8.9 Q17.3 8.1 16.6 7.35 L15.45 6.25 14.3 5.2 13.3 4.4 Q12.45 3.9 11.6 3.65 11.6 3.2 11.9 2.85 L12.45 2.55 12.45 2.6 13.2 3.1 Q16.05 4.85 17.9 7.95 L17.85 8.2 Q17.65 9.0 17.0 8.9 M10.45 4.5 L11.0 5.45 12.0 7.35 Q12.75 9.05 12.35 11.05 L12.1 11.4 Q11.85 11.95 11.1 12.0 L11.5 11.7 Q12.05 10.85 11.8 9.95 L11.3 8.4 10.7 6.95 9.6 5.05 9.35 4.9 Q8.9 4.75 8.65 5.3 L8.35 6.2 Q8.3 5.05 9.15 4.3 L10.0 3.55 Q9.9 3.7 9.95 3.8 L10.45 4.5 M6.25 14.85 L8.3 14.25 12.0 12.2 18.7 9.4 Q19.15 9.3 19.6 8.45 L20.05 7.4 Q20.6 8.05 20.05 8.75 19.5 9.45 18.7 9.75 L7.8 15.2 Q6.55 15.25 6.25 14.85"/><path fill="#1a0d07" stroke="none" d="M11.6 3.65 Q12.45 3.9 13.3 4.4 L14.3 5.2 15.45 6.25 16.6 7.35 Q17.3 8.1 17.0 8.9 L15.4 8.4 14.1 7.5 13.15 6.25 12.5 5.4 11.6 3.65 M8.35 6.2 L8.65 5.3 Q8.9 4.75 9.35 4.9 L9.6 5.05 10.7 6.95 11.3 8.4 11.8 9.95 Q12.05 10.85 11.5 11.7 L11.1 12.0 9.9 11.65 8.85 10.8 Q8.45 10.1 8.35 9.3 L8.25 8.25 8.35 6.2"/><path fill="#ff9b69" stroke="none" d="M17.0 8.9 Q17.65 9.0 17.85 8.2 L17.9 7.95 Q16.05 4.85 13.2 3.1 L12.45 2.6 12.45 2.55 11.9 2.85 Q11.6 3.2 11.6 3.65 L12.5 5.4 13.15 6.25 14.1 7.5 15.4 8.4 17.0 8.9 M11.1 12.0 Q11.85 11.95 12.1 11.4 L12.35 11.05 Q12.75 9.05 12.0 7.35 L11.0 5.45 10.45 4.5 9.95 3.8 Q9.9 3.7 10.0 3.55 L9.15 4.3 Q8.3 5.05 8.35 6.2 L8.25 8.25 8.35 9.3 Q8.45 10.1 8.85 10.8 L9.9 11.65 11.1 12.0 M20.05 7.4 L19.6 8.45 Q19.15 9.3 18.7 9.4 L12.0 12.2 8.3 14.25 6.25 14.85 5.95 14.5 5.75 13.3 Q5.7 12.85 6.5 8.35 L7.25 3.9 7.6 2.0 Q7.75 0.6 8.85 0.1 L9.95 0.2 9.3 0.4 8.6 0.8 Q7.95 1.5 7.9 2.45 L7.1 7.95 7.75 4.45 Q7.95 3.1 10.2 0.25 L18.9 6.15 20.05 7.4"/><path fill="#efc8a0" stroke="none" d="M10.2 0.25 Q7.95 3.1 7.75 4.45 L7.1 7.95 7.9 2.45 Q7.95 1.5 8.6 0.8 L9.3 0.4 9.95 0.2 10.2 0.25"/><path fill="#d88430" stroke="none" d="M5.45 3.7 L5.5 1.45 Q5.5 -0.85 6.15 0.6 6.8 2.0 7.2 2.4 L5.45 3.7"/><path fill="#ca7624" stroke="none" d="M6.25 14.85 Q6.55 15.25 7.8 15.2 L5.8 15.75 2.05 14.65 0.1 14.55 Q-0.15 13.7 0.35 12.9 L3.65 8.65 5.45 3.7 7.2 2.4 7.6 2.0 7.25 3.9 6.5 8.35 Q5.7 12.85 5.75 13.3 L5.95 14.5 6.25 14.85"/><path fill="none" stroke="#000000" stroke-width="0.5" stroke-opacity="0.301960784314" d="M11.6 3.65 Q12.45 3.9 13.3 4.4 L14.3 5.2 15.45 6.25 16.6 7.35 Q17.3 8.1 17.0 8.9 17.65 9.0 17.85 8.2 L17.9 7.95 Q16.05 4.85 13.2 3.1 M12.45 2.55 L11.9 2.85 Q11.6 3.2 11.6 3.65 L12.5 5.4 13.15 6.25 14.1 7.5 15.4 8.4 17.0 8.9 M11.1 12.0 Q11.85 11.95 12.1 11.4 L12.35 11.05 Q12.75 9.05 12.0 7.35 L11.0 5.45 10.45 4.5 M10.0 3.55 L9.15 4.3 Q8.3 5.05 8.35 6.2 L8.65 5.3 Q8.9 4.75 9.35 4.9 L9.6 5.05 10.7 6.95 11.3 8.4 11.8 9.95 Q12.05 10.85 11.5 11.7 L11.1 12.0 9.9 11.65 8.85 10.8 Q8.45 10.1 8.35 9.3 L8.25 8.25 8.35 6.2 M6.25 14.85 Q6.55 15.25 7.8 15.2 L18.7 9.75 Q19.5 9.45 20.05 8.75 20.6 8.05 20.05 7.4 L18.9 6.15 10.2 0.25 9.95 0.2 8.85 0.1 Q7.75 0.6 7.6 2.0 L7.25 3.9 6.5 8.35 Q5.7 12.85 5.75 13.3 L5.95 14.5 6.25 14.85 M6.15 0.6 Q6.8 2.0 7.2 2.4 L7.6 2.0 M7.2 2.4 L5.45 3.7 M2.05 14.65 L5.8 15.75 7.8 15.2"/></g><g id="c70"><g><use transform="matrix(1.0,0.0,0.0,1.0,0.0,0.0)" xlink:href="#c69"/></g></g><g id="c71"><path fill="#e09141" stroke="none" d="M7.0 2.0 Q8.2 2.9 7.0 3.5 L2.85 11.55 1.4 9.2 0.5 7.4 0.0 5.95 0.05 4.55 Q0.95 7.0 2.05 8.9 4.65 3.45 7.0 2.0"/><path fill="#e5aa5b" stroke="none" d="M7.0 2.0 Q4.65 3.45 2.05 8.9 0.95 7.0 0.05 4.55 0.05 3.5 0.75 1.2 0.95 0.45 2.0 0.0 5.75 1.1 7.0 2.0"/><path fill="none" stroke="#000000" stroke-width="0.5" stroke-opacity="0.301960784314" d="M0.0 5.95 L0.5 7.4 1.4 9.2 2.85 11.55 7.0 3.5 Q8.2 2.9 7.0 2.0 5.75 1.1 2.0 0.0"/><path fill="#efc8a0" stroke="none" d="M0.65 5.45 Q0.65 6.75 1.0 6.1 L1.55 4.65 2.3 3.0 3.1 1.5 Q3.45 0.9 3.15 0.8 2.85 0.7 2.0 1.35 1.2 1.95 0.9 3.0 0.6 4.05 0.65 5.45"/></g><g id="c72"><g><use transform="matrix(1.0,0.0,0.0,1.0,0.0,0.0)" xlink:href="#c71"/></g></g><g id="c73"><path fill="#e09141" stroke="none" d="M9.7 2.75 L10.6 4.15 11.5 6.1 Q12.1 7.95 12.05 9.8 11.2 9.25 2.15 8.2 0.8 9.4 0.35 8.2 5.15 5.6 11.25 7.75 11.1 5.55 9.7 2.75"/><path fill="#e5aa5b" stroke="none" d="M0.35 8.2 Q-0.25 6.95 0.2 2.7 2.55 0.55 3.25 0.25 L5.25 0.35 Q6.25 0.6 9.7 2.75 11.1 5.55 11.25 7.75 5.15 5.6 0.35 8.2"/><path fill="none" stroke="#000000" stroke-width="0.5" stroke-opacity="0.301960784314" d="M9.7 2.75 L10.6 4.15 11.5 6.1 Q12.1 7.95 12.05 9.8 11.2 9.25 2.15 8.2 0.8 9.4 0.35 8.2 -0.25 6.95 0.2 2.7"/><path fill="#efc8a0" stroke="none" d="M7.75 3.05 Q9.2 4.0 8.3 3.9 L6.55 3.65 4.45 3.4 2.45 3.4 Q1.65 3.45 1.65 3.0 1.6 2.55 2.65 2.0 3.65 1.3 4.9 1.65 6.2 2.05 7.75 3.05"/></g><g id="c74"><g><use transform="matrix(1.0,0.0,0.0,1.0,0.0,0.0)" xlink:href="#c73"/></g></g><linearGradient gradientUnits="userSpaceOnUse" x1="-819.2" x2="819.2" spreadMethod="pad" gradientTransform="matrix(-0.000640869140625,-0.00421142578125,0.00222778320312,-0.000259399414062,1.6,4.1)" id="gradient6"><stop offset="0.819607843137" stop-color="#fff169" stop-opacity="0.501960784314"/><stop offset="1.0" stop-color="#fff169" stop-opacity="0.2"/></linearGradient><g id="c75"><path stroke="none" fill="url(#gradient6)" d="M0.65 0.1 Q2.65 -0.55 2.8 2.55 3.05 6.85 4.15 9.85 5.25 12.9 3.8 13.7 2.35 14.25 1.35 13.05 0.5 11.9 1.0 8.3 1.85 1.85 0.1 1.0 -0.2 0.35 0.65 0.1"/><path fill="none" stroke="#ffffff" stroke-width="1.5" stroke-opacity="0.301960784314" d="M0.65 0.1 Q2.65 -0.55 2.8 2.55 3.05 6.85 4.15 9.85 5.25 12.9 3.8 13.7 2.35 14.25 1.35 13.05 0.5 11.9 1.0 8.3 1.85 1.85 0.1 1.0 -0.2 0.35 0.65 0.1"/><path fill="#ffffff" fill-opacity="0.701960784314" d="M3.4 12.1 Q3.85 10.4 3.05 7.85 4.3 10.6 4.3 11.9 4.3 13.25 3.65 13.45 2.95 13.75 3.4 12.1"/></g><g id="c76"><g><use transform="matrix(1.0,0.0,0.0,1.0,0.0,0.0)" xlink:href="#c75"/></g></g><g id="c77"><path fill="#e5aa5b" stroke="none" d="M13.25 4.5 L15.0 7.45 16.9 11.35 Q18.1 14.55 15.65 17.2 11.5 22.15 5.15 20.95 L2.65 19.4 Q3.4 19.45 5.1 18.1 14.3 7.2 13.25 4.5"/><path fill="#efc8a0" stroke="none" d="M13.25 4.5 Q14.3 7.2 5.1 18.1 3.4 19.45 2.65 19.4 L2.3 19.1 2.0 17.85 Q1.35 14.7 2.7 11.85 3.75 9.4 6.0 7.1 8.7 4.65 11.7 3.35 L12.25 3.55 13.25 4.5"/><path fill="#de8c3a" stroke="none" d="M5.15 20.95 Q11.5 22.15 15.65 17.2 18.1 14.55 16.9 11.35 18.8 15.25 18.65 19.35 15.85 21.35 10.85 21.85 7.7 22.25 5.15 20.95"/><path fill="none" stroke="#000000" stroke-width="0.5" stroke-opacity="0.301960784314" d="M15.0 7.45 L13.25 4.5 12.25 3.55 11.7 3.35 Q8.7 4.65 6.0 7.1 3.75 9.4 2.7 11.85 1.35 14.7 2.0 17.85 L2.3 19.1 2.65 19.4 5.15 20.95 Q7.7 22.25 10.85 21.85 15.85 21.35 18.65 19.35"/><path fill="#ad6f45" stroke="none" d="M11.75 4.9 L11.05 4.85 11.45 4.6 11.75 4.9 M4.2 14.6 L4.6 15.05 3.75 15.3 Q3.55 14.9 3.75 14.15 L4.2 14.6"/><path fill="#fedcbc" stroke="none" d="M11.05 4.85 L11.75 4.9 Q12.85 7.15 8.7 11.95 L8.15 12.55 Q6.2 14.5 4.6 15.05 L4.2 14.6 Q3.75 13.85 4.0 13.55 5.65 13.0 6.8 11.85 9.7 7.8 9.6 6.35 L8.45 4.95 6.95 3.3 Q9.15 4.6 11.05 4.85"/><path fill="#ffecd1" stroke="none" d="M6.95 3.3 L8.45 4.95 9.6 6.35 Q9.7 7.8 6.8 11.85 5.65 13.0 4.0 13.55 3.75 13.85 4.2 14.6 L3.75 14.15 Q1.95 12.15 1.2 10.55 -1.4 2.4 1.7 0.05 2.8 -0.4 6.95 3.3"/><path fill="none" stroke="#000000" stroke-width="0.5" stroke-opacity="0.301960784314" d="M11.05 4.85 L11.75 4.9 11.45 4.6 M11.05 4.85 Q9.15 4.6 6.95 3.3 L8.45 4.95 9.6 6.35 M4.2 14.6 L4.6 15.05 Q6.2 14.5 8.15 12.55 L8.7 11.95 Q12.85 7.15 11.75 4.9 M3.75 14.15 Q1.95 12.15 1.2 10.55 -1.4 2.4 1.7 0.05 2.8 -0.4 6.95 3.3 M4.2 14.6 L3.75 14.15 M3.75 15.3 L4.6 15.05"/></g><g id="c78"><g><use transform="matrix(1.0,0.0,0.0,1.0,0.0,0.0)" xlink:href="#c77"/></g></g><g id="c79"><g><use transform="matrix(2.64288330078,-0.129760742188,0.0,1.69931030273,0.0,0.0)" filter="url(#filter40)" xlink:href="#c26"/></g><g><use transform="matrix(1.0,0.0,0.0,1.0,-5.05,-46.95)" xlink:href="#c24"/></g><g><use transform="matrix(1.0,0.0,0.0,1.0,-7.5,-60.8)" xlink:href="#c22"/></g><g><use transform="matrix(1.0,0.0,0.0,1.0,-2.5,-26.75)" xlink:href="#c20"/></g><g><use transform="matrix(1.0,0.0,0.0,1.0,-38.7,-60.35)" xlink:href="#c28"/></g><g><use transform="matrix(1.0,0.0,0.0,1.0,-50.05,-96.5)" xlink:href="#c30"/></g><g><use transform="matrix(1.0,0.0,0.0,1.0,-51.2,-85.95)" xlink:href="#c32"/></g><g><use transform="matrix(1.0,0.0,0.0,1.0,5.8,-56.75)" xlink:href="#c34"/></g><g><use transform="matrix(1.0,0.0,0.0,1.0,11.85,-65.8)" xlink:href="#c36"/></g><g><use transform="matrix(1.0,0.0,0.0,1.0,-37.85,-81.55)" xlink:href="#c38"/></g><g><use transform="matrix(1.0,0.0,0.0,1.0,-40.65,-0.7)" xlink:href="#c18"/></g><g><use transform="matrix(1.0,0.0,0.0,1.0,-43.3,-20.85)" xlink:href="#c16"/></g><g><use transform="matrix(1.0,0.0,0.0,1.0,-43.45,-32.7)" xlink:href="#c14"/></g><g><use transform="matrix(1.0,0.0,0.0,1.0,35.35,-4.6)" xlink:href="#c40"/></g><g><use transform="matrix(1.0,0.0,0.0,1.0,33.45,-19.5)" xlink:href="#c12"/></g><g><use transform="matrix(1.0,0.0,0.0,1.0,23.4,-29.1)" xlink:href="#c10"/></g><g><use transform="matrix(1.0,0.0,0.0,1.0,-14.3,-45.45)" xlink:href="#c8"/></g><g><use transform="matrix(1.0,0.0,0.0,1.0,-5.2,-46.5)" xlink:href="#c42"/></g><g><use transform="matrix(1.0,0.0,0.0,1.0,-21.75,-50.7)" xlink:href="#c44"/></g><g><use transform="matrix(1.0,0.0,0.0,1.0,-10.25,-16.7)" xlink:href="#c6"/></g><g><use transform="matrix(1.0,0.0,0.0,1.0,-1.65,16.2)" xlink:href="#c46"/></g><g><use transform="matrix(1.0,0.0,0.0,1.0,-10.85,0.3)" xlink:href="#c4"/></g><g><use transform="matrix(0.995056152344,-0.0960235595703,0.0960235595703,0.995056152344,-39.0,-84.6)" xlink:href="#c48"/></g><g><use transform="matrix(1.0,0.0,0.0,1.0,1.7,-59.1)" xlink:href="#c50"/></g><g><use transform="matrix(1.0,0.0,0.0,1.0,-14.3,-79.55)" xlink:href="#c52"/></g><g><use transform="matrix(1.0,0.0,0.0,1.0,19.15,-31.9)" xlink:href="#c54"/></g><g><use transform="matrix(1.0,0.0,0.0,1.0,29.8,-35.5)" xlink:href="#c56"/></g><g><use transform="matrix(1.0,0.0,0.0,1.0,2.35,-39.15)" xlink:href="#c2"/></g><g><use transform="matrix(1.0,0.0,0.0,1.0,18.5,-23.4)" xlink:href="#c58"/></g><g><use transform="matrix(1.0,0.0,0.0,1.0,1.7,-25.85)" xlink:href="#c60"/></g><g><use transform="matrix(1.0,0.0,0.0,1.0,18.5,-46.55)" xlink:href="#c62"/></g><g><use transform="matrix(1.0,0.0,0.0,1.0,8.3,-42.2)" xlink:href="#c64"/></g><g><use transform="matrix(1.0,0.0,0.0,1.0,23.2,-35.15)" xlink:href="#c66"/></g><g><use transform="matrix(1.0,0.0,0.0,1.0,11.15,-30.95)" xlink:href="#c68"/></g><g><use transform="matrix(1.0,0.0,0.0,1.0,19.35,-26.4)" xlink:href="#c70"/></g><g><use transform="matrix(1.0,0.0,0.0,1.0,23.0,-35.75)" xlink:href="#c72"/></g><g><use transform="matrix(1.0,0.0,0.0,1.0,13.1,-33.25)" xlink:href="#c74"/></g><g><use transform="matrix(1.0,0.0,0.0,1.0,28.7,-15.9)" xlink:href="#c76"/></g><g><use transform="matrix(1.0,0.0,0.0,1.0,8.45,-22.0)" xlink:href="#c78"/></g></g><filter id="filter40"><feColorMatrix in="SourceGraphic" type="matrix" values="1.0 0.0 0.0 0.0 0.0 0.0 1.0 0.0 0.0 0.0 0.0 0.0 1.0 0.0 0.0 0.0 0.0 0.0 0.390625 0.0" result="cxform"/><feComposite operator="in" in2="SourceGraphic" result="color-xform"/></filter><g id="c80"><path fill="#000000" fill-opacity="0.00392156862745" d="M0.0 0.0 L60.0 0.0 60.0 60.0 0.0 60.0 0.0 0.0"/></g><g id="c81"><path fill="none" stroke="#000000" stroke-width="1.0" stroke-opacity="0.301960784314" d="M0.7 12.25 Q-0.45 9.75 0.75 8.25 1.2 7.6 2.15 7.15 2.8 6.7 3.8 6.35 L17.5 1.95 30.2 7.0 41.35 31.7 Q42.95 35.15 40.2 36.7 39.5 37.3 38.3 37.65 L25.5 41.8 25.45 41.75 24.55 42.0 11.85 37.0 0.7 12.25"/><path fill="#9d147b" stroke="none" d="M35.55 22.3 L31.5 13.2 29.75 9.2 16.95 4.25 5.5 7.85 Q1.65 9.1 3.35 12.8 L8.25 23.65 13.1 34.35 25.8 39.4 37.2 35.7 Q41.1 34.5 39.35 30.75 L35.55 22.3 M5.45 20.95 L1.35 11.8 Q0.4 9.65 1.1 8.3 1.45 7.65 2.15 7.15 2.8 6.7 3.8 6.35 L17.5 1.95 30.2 7.0 41.35 31.7 Q42.95 35.15 40.2 36.7 L38.9 37.25 25.2 41.65 12.5 36.65 5.45 20.95"/><path fill="#c47fad" stroke="none" d="M31.5 13.2 L35.55 22.3 39.35 30.75 Q41.1 34.5 37.2 35.7 L25.8 39.4 13.1 34.35 8.25 23.65 3.35 12.8 Q1.65 9.1 5.5 7.85 L16.95 4.25 29.75 9.2 31.5 13.2 M18.5 7.45 L9.1 10.55 9.55 11.6 Q9.8 12.8 9.15 13.6 8.4 14.45 7.1 14.4 L6.8 14.4 6.95 14.6 15.2 32.75 23.85 36.2 34.0 32.9 33.7 32.1 Q33.45 30.9 34.1 30.1 34.75 29.3 35.95 29.35 L35.8 29.0 27.75 10.95 18.5 7.45"/><path fill="#fcf2cf" stroke="none" d="M27.75 10.95 L35.8 29.0 35.95 29.35 Q34.75 29.3 34.1 30.1 33.45 30.9 33.7 32.1 L34.0 32.9 23.85 36.2 15.2 32.75 6.95 14.6 6.8 14.4 7.1 14.4 Q8.4 14.45 9.15 13.6 9.8 12.8 9.55 11.6 L9.1 10.55 18.5 7.45 27.75 10.95"/><path fill="#630a4c" stroke="none" d="M1.1 8.3 L0.75 8.25 Q1.2 7.6 2.15 7.15 1.45 7.65 1.1 8.3 M4.6 20.9 L5.45 20.95 12.5 36.65 11.55 36.25 11.25 35.55 4.6 20.9"/><path fill="#300525" stroke="none" d="M1.1 8.3 Q0.4 9.65 1.35 11.8 L5.45 20.95 4.6 20.9 0.7 12.25 Q-0.45 9.75 0.75 8.25 L1.1 8.3 M12.5 36.65 L25.2 41.65 38.9 37.25 40.2 36.7 Q39.5 37.3 38.3 37.65 L25.5 41.8 25.45 41.75 24.55 42.0 11.85 37.0 11.55 36.25 12.5 36.65"/><path fill="none" stroke="#bf9900" stroke-width="1.0" stroke-opacity="0.749019607843" d="M31.5 13.2 L35.55 22.3 M13.1 34.35 L8.25 23.65"/><path fill="none" stroke="#ffcc00" stroke-width="1.0" stroke-opacity="0.749019607843" d="M35.55 22.3 L39.35 30.75 Q41.1 34.5 37.2 35.7 L25.8 39.4 M8.25 23.65 L3.35 12.8 Q1.65 9.1 5.5 7.85 L16.95 4.25 29.75 9.2 31.5 13.2"/><path fill="none" stroke="#f0b92b" stroke-width="0.5" d="M27.75 10.95 L35.8 29.0 35.95 29.35 Q34.75 29.3 34.1 30.1 33.45 30.9 33.7 32.1 L34.0 32.9 23.85 36.2 15.2 32.75 6.95 14.6 6.8 14.4 7.1 14.4 Q8.4 14.45 9.15 13.6 9.8 12.8 9.55 11.6 L9.1 10.55 18.5 7.45"/><path fill="none" stroke="#000000" stroke-width="0.5" stroke-opacity="0.301960784314" d="M5.45 20.95 L1.35 11.8 Q0.4 9.65 1.1 8.3 M0.75 8.25 Q-0.45 9.75 0.7 12.25 L4.6 20.9 M5.45 20.95 L12.5 36.65 M25.2 41.65 L38.9 37.25 40.2 36.7 Q42.95 35.15 41.35 31.7 L30.2 7.0 M17.5 1.95 L3.8 6.35 Q2.8 6.7 2.15 7.15 1.45 7.65 1.1 8.3 M0.75 8.25 Q1.2 7.6 2.15 7.15 M11.25 35.55 L4.6 20.9 M25.5 41.8 L38.3 37.65 Q39.5 37.3 40.2 36.7"/><path fill="none" stroke="#ffcc00" stroke-width="0.5" stroke-opacity="0.749019607843" d="M18.5 7.45 L27.75 10.95"/><path fill="none" stroke="#f0b92b" stroke-width="1.0" stroke-opacity="0.749019607843" d="M25.8 39.4 L13.1 34.35"/><path fill="none" stroke="#432f2f" stroke-width="0.5" d="M12.5 36.65 L25.2 41.65"/></g><g id="c82"><path fill="#7fdbfe" stroke="none" d="M10.75 4.9 Q10.75 4.6 10.9 4.35 11.25 3.45 11.95 2.75 13.3 1.5 14.35 2.1 15.4 2.7 14.95 4.45 14.7 5.4 14.1 6.15 L13.75 6.5 Q13.1 7.15 12.35 7.35 L11.4 7.2 Q10.95 6.9 10.75 6.4 10.5 5.75 10.75 4.9 M7.5 5.9 Q7.0 5.85 6.6 5.5 6.05 5.0 5.8 4.15 L5.7 3.6 Q5.55 2.65 5.8 1.7 6.25 0.0 7.5 0.0 L7.6 0.0 Q8.85 0.0 9.3 1.7 9.55 2.65 9.4 3.6 L9.3 4.15 8.5 5.5 7.6 5.9 7.5 5.9 M4.35 4.9 Q4.6 5.75 4.35 6.4 L3.7 7.2 2.75 7.35 Q2.0 7.15 1.35 6.5 L1.0 6.15 Q0.4 5.4 0.15 4.45 -0.3 2.7 0.75 2.1 1.8 1.5 3.15 2.75 3.85 3.45 4.2 4.35 L4.35 4.9 M5.5 13.7 Q4.45 13.9 3.65 12.95 2.75 12.0 3.2 10.25 3.7 8.5 5.25 7.6 6.4 6.9 7.55 7.0 8.75 6.9 9.9 7.6 11.45 8.5 11.95 10.25 12.35 12.0 11.5 12.95 10.7 13.9 9.65 13.7 8.55 13.5 7.55 12.6 6.55 13.5 5.5 13.7"/></g><g id="c83"><g><use transform="matrix(1.0,0.0,0.0,1.0,0.0,0.0)" xlink:href="#c82"/></g></g><radialGradient gradientUnits="userSpaceOnUse" r="819.2" cx="0" cy="0" spreadMethod="pad" gradientTransform="matrix(0.0914459228516,0.0,0.0,0.0914459228516,0.6,3.4)" id="gradient7"><stop offset="0.0" stop-color="#ffffff"/><stop offset="1.0" stop-color="#ffffff" stop-opacity="0.0"/></radialGradient><g id="c84"><path stroke="none" fill="url(#gradient7)" d="M36.65 -54.65 Q60.05 -42.0 69.75 -17.95 80.55 8.9 68.0 34.1 55.45 59.35 26.8 68.2 -1.8 77.05 -29.7 64.3 -57.6 51.6 -68.45 24.75 -79.3 -2.05 -66.75 -27.25 L-66.7 -27.3 Q-54.1 -52.5 -25.5 -61.4 3.1 -70.2 31.0 -57.5 L36.65 -54.65"/></g><g id="c85"><g><use transform="matrix(1.0,0.0,0.0,1.0,0.0,0.0)" xlink:href="#c84"/></g></g><radialGradient gradientUnits="userSpaceOnUse" r="819.2" cx="0" cy="0" spreadMethod="pad" gradientTransform="matrix(0.209197998047,0.0,0.0,0.177108764648,67.15,107.2)" id="gradient8"><stop offset="0.356862745098" stop-color="#ffffff"/><stop offset="0.670588235294" stop-opacity="0.0"/></radialGradient><g id="c86"><path fill="none" stroke-linejoin="round" stroke-linecap="round" stroke="url(#gradient8)" stroke-width="0.5" d="M136.55 165.8 L68.6 106.0 68.4 106.0 118.25 201.5 M68.3 105.8 L68.35 105.8 68.3 105.8 68.3 105.85 68.4 106.0 68.3 106.0 86.55 211.5 M68.3 105.8 L68.3 105.85 68.3 106.0 68.15 105.95 18.25 151.55 M68.3 105.85 L68.25 105.85 68.3 106.0 50.0 193.2 M68.25 105.85 L68.15 105.95 0.05 97.7 M68.3 105.85 L68.25 105.8 68.25 105.85 M68.25 105.8 L68.2 105.7 0.0 45.7 M68.3 105.8 L68.25 105.75 68.25 105.8 M68.25 105.75 L68.2 105.7 18.25 10.05 M68.6 106.0 L68.35 105.8 118.25 60.15 M86.6 18.35 L68.3 105.8 M136.6 114.25 L68.6 106.0 M68.25 105.75 L49.95 0.05"/></g><g id="c87"><g><use transform="matrix(1.0,0.0,0.0,1.0,0.0,0.0)" xlink:href="#c86"/></g></g><g id="c88"><g><use transform="matrix(1.0,0.0,0.0,1.0,0.0,0.0)" xlink:href="#c81"/></g><g><use transform="matrix(0.238861083984,-0.0867004394531,0.10026550293,0.233917236328,34.25,31.15)" xlink:href="#c83"/></g><g><use transform="matrix(0.238861083984,-0.0867004394531,0.10026550293,0.233917236328,4.25,10.3)" xlink:href="#c83"/></g><g><use transform="matrix(0.141098022461,-0.0378112792969,0.111373901367,0.225646972656,20.25,20.65)" filter="url(#filter85)" xlink:href="#c85"/></g><g><use transform="matrix(-0.155029296875,0.0513153076172,0.0841827392578,0.147033691406,22.6,3.15)" filter="url(#filter86)" xlink:href="#c87"/></g></g><filter id="filter85"><feColorMatrix in="SourceGraphic" type="matrix" values="0.0 0.0 0.0 0.0 0.796875 0.0 0.0 0.0 0.0 0.59765625 0.0 0.0 0.0 0.0 0.19921875 0.0 0.0 0.0 1.0 0.0" result="cxform"/><feComposite operator="in" in2="SourceGraphic" result="color-xform"/></filter><filter id="filter86"><feColorMatrix in="SourceGraphic" type="matrix" values="0.0 0.0 0.0 0.0 0.99609375 0.0 0.0 0.0 0.0 0.99609375 0.0 0.0 0.0 0.0 0.99609375 0.0 0.0 0.0 1.0 0.0" result="cxform"/><feComposite operator="in" in2="SourceGraphic" result="color-xform"/></filter><filter id="filter90"><feColorMatrix in="SourceGraphic" type="matrix" values="1.0 0.0 0.0 0.0 0.0 0.0 1.0 0.0 0.0 0.0 0.0 0.0 1.0 0.0 0.0 0.0 0.0 0.0 0.23046875 0.0" result="cxform"/><feComposite operator="in" in2="SourceGraphic" result="color-xform"/></filter></defs><g><g><use transform="matrix(1.0,0.0,0.0,1.0,0.0,0.0)" xlink:href="#c80"/></g><g><use transform="matrix(1.15496826172,0.0,0.0,1.15496826172,5.85,4.8)" xlink:href="#c88"/></g><g><use transform="matrix(0.218887329102,0.0,0.0,0.218887329102,32.6,36.75)" xlink:href="#c79"/></g><g><use transform="matrix(0.162948608398,-0.0436706542969,0.128631591797,0.260604858398,30.0,28.7)" filter="url(#filter90)" xlink:href="#c85"/></g></g></svg>