<?xml version='1.0' encoding='UTF-8'?>
<svg xmlns:xlink="http://www.w3.org/1999/xlink" xmlns="http://www.w3.org/2000/svg" version="1.1" width="60px" height="60px" viewBox="0.0 0.0 60.0 60.0"><defs><g id="c1"><path fill="#000000" fill-opacity="0.00392156862745" d="M0.0 0.0 L60.0 0.0 60.0 60.0 0.0 60.0 0.0 0.0"/></g><g id="c2"><path fill="#006699" stroke="none" d="M31.5 39.85 L19.8 43.65 Q17.15 44.45 15.5 43.3 14.35 42.55 13.65 40.9 L1.7 14.45 1.6 14.3 1.2 13.45 -0.75 9.05 Q-2.05 6.2 -0.3 4.75 0.3 4.25 1.2 3.9 L5.5 2.25 Q8.95 0.95 10.65 4.15 L22.3 0.4 Q26.55 -1.0 28.45 3.1 L40.55 29.95 40.9 30.7 42.95 35.15 Q43.95 37.35 43.15 38.7 42.5 39.7 40.95 40.25 L36.65 41.8 35.1 42.2 Q32.75 42.3 31.5 39.85"/><path fill="none" stroke="#000000" stroke-width="1.0" stroke-opacity="0.298039215686" d="M31.5 39.85 L19.8 43.65 Q17.15 44.45 15.5 43.3 14.35 42.55 13.65 40.9 L1.7 14.45 1.6 14.3 1.2 13.45 -0.75 9.05 Q-2.05 6.2 -0.3 4.75 0.3 4.25 1.2 3.9 L5.5 2.25 Q8.95 0.95 10.65 4.15 L22.3 0.4 Q26.55 -1.0 28.45 3.1 L40.55 29.95 40.9 30.7 42.95 35.15 Q43.95 37.35 43.15 38.7 42.5 39.7 40.95 40.25 L36.65 41.8 35.1 42.2 Q32.75 42.3 31.5 39.85"/><path fill="#300525" stroke="none" d="M0.75 8.25 L29.8 9.75 25.55 0.9 Q26.9 1.6 27.8 3.55 L40.7 32.15 Q42.6 36.3 38.3 37.65 L23.3 42.5 13.15 21.4 4.6 20.9 0.7 12.25 Q-0.45 9.75 0.75 8.25 M20.1 43.55 L19.8 43.65 Q17.15 44.45 15.5 43.3 L20.1 43.55"/><path fill="#630a4c" stroke="none" d="M25.55 0.9 L29.8 9.75 0.75 8.25 Q1.45 7.3 3.1 6.75 L21.65 0.8 25.55 0.9 M4.6 20.9 L13.15 21.4 23.3 42.5 20.1 43.55 15.5 43.3 Q14.35 42.55 13.65 40.9 L4.6 20.9"/><path fill="none" stroke="#000000" stroke-width="0.5" stroke-opacity="0.301960784314" d="M0.75 8.25 Q-0.45 9.75 0.7 12.25 L4.6 20.9 M23.3 42.5 L38.3 37.65 Q42.6 36.3 40.7 32.15 L27.8 3.55 Q26.9 1.6 25.55 0.9 L21.65 0.8 3.1 6.75 Q1.45 7.3 0.75 8.25 M20.1 43.55 L19.8 43.65 Q17.15 44.45 15.5 43.3 14.35 42.55 13.65 40.9 L4.6 20.9 M20.1 43.55 L23.3 42.5"/><path fill="#9d147b" stroke="none" d="M14.2 40.5 L1.35 11.8 Q-0.5 7.75 3.8 6.35 L22.3 0.4 Q26.55 -1.0 28.45 3.1 L41.35 31.7 Q43.25 35.85 38.9 37.25 L20.4 43.2 Q16.1 44.55 14.2 40.5"/><path fill="none" stroke="#000000" stroke-width="0.5" stroke-opacity="0.301960784314" d="M14.2 40.5 L1.35 11.8 Q-0.5 7.75 3.8 6.35 L22.3 0.4 Q26.55 -1.0 28.45 3.1 L41.35 31.7 Q43.25 35.85 38.9 37.25 L20.4 43.2 Q16.1 44.55 14.2 40.5"/><path fill="#9d147b" stroke="none" d="M31.4 39.65 L31.3 39.45 31.25 39.4 29.25 34.95 Q27.55 31.2 31.25 29.85 L35.6 28.25 Q38.8 27.1 40.5 29.85 L40.9 30.7 42.95 35.15 Q43.95 37.35 43.15 38.7 42.5 39.45 41.2 39.9 L36.9 41.45 34.85 41.85 Q32.9 41.7 31.75 39.5 L31.4 39.65"/><path fill="#630a4c" stroke="none" d="M43.15 38.7 Q42.5 39.7 40.95 40.25 L36.65 41.8 35.1 42.2 Q32.75 42.3 31.45 39.8 L31.4 39.65 31.75 39.5 Q32.9 41.7 34.85 41.85 L36.9 41.45 41.2 39.9 Q42.5 39.45 43.15 38.7"/><path fill="none" stroke="#003333" stroke-width="0.5" stroke-opacity="0.509803921569" d="M43.15 38.7 Q42.5 39.7 40.95 40.25 L36.65 41.8 35.1 42.2 Q32.75 42.3 31.45 39.8 L31.4 39.65 30.3 40.0 31.4 39.65 M40.5 29.85 L40.9 30.7 42.95 35.15 Q43.95 37.35 43.15 38.7 42.5 39.45 41.2 39.9 L36.9 41.45 34.85 41.85 Q32.9 41.7 31.75 39.5 L31.4 39.65"/><path fill="#9d147b" stroke="none" d="M10.65 4.2 L10.85 4.6 12.85 9.05 Q14.5 12.8 10.8 14.15 L6.5 15.8 Q4.5 16.6 3.1 15.8 L1.75 12.85 -0.2 8.45 Q-1.25 6.15 -0.3 4.75 0.3 4.25 1.2 3.9 L5.5 2.25 Q9.0 0.95 10.65 4.2"/><path fill="#300525" stroke="none" d="M-0.3 4.75 Q-1.25 6.15 -0.2 8.45 L1.75 12.85 3.1 15.8 Q2.25 15.35 1.6 14.3 L1.2 13.45 -0.75 9.05 Q-2.05 6.2 -0.3 4.75"/><path fill="none" stroke="#003333" stroke-width="0.5" stroke-opacity="0.509803921569" d="M3.1 15.8 L6.45 23.15 M-0.3 4.75 Q0.3 4.25 1.2 3.9 L5.5 2.25 Q9.0 0.95 10.65 4.2 M3.1 15.8 L1.75 12.85 -0.2 8.45 Q-1.25 6.15 -0.3 4.75 -2.05 6.2 -0.75 9.05 L1.2 13.45 1.6 14.3"/><path fill="#fcf2cf" stroke="none" d="M9.15 13.6 Q9.8 12.8 9.55 11.6 L9.1 10.55 22.05 6.35 Q24.9 5.45 26.25 7.85 L26.5 8.3 35.8 29.0 35.95 29.35 Q34.75 29.3 34.1 30.1 33.45 30.9 33.7 32.1 L34.0 32.9 20.65 37.2 Q18.8 37.8 17.65 37.0 16.8 36.4 16.3 35.2 L6.95 14.6 6.8 14.4 7.1 14.4 Q8.4 14.45 9.15 13.6"/><path fill="#c47fad" stroke="none" d="M9.15 13.6 Q8.4 14.45 7.1 14.4 L6.8 14.4 6.95 14.6 16.3 35.2 Q16.8 36.4 17.65 37.0 18.8 37.8 20.65 37.2 L34.0 32.9 33.7 32.1 Q33.45 30.9 34.1 30.1 34.75 29.3 35.95 29.35 L35.8 29.0 26.5 8.3 26.25 7.85 Q24.9 5.45 22.05 6.35 L9.1 10.55 9.55 11.6 Q9.8 12.8 9.15 13.6 M28.25 6.1 L35.55 22.3 39.35 30.75 Q41.1 34.5 37.2 35.7 L20.45 41.1 Q16.8 42.25 15.2 39.0 L15.0 38.6 8.25 23.65 3.35 12.8 Q1.65 9.1 5.5 7.85 L22.25 2.5 Q26.05 1.25 27.75 4.95 L28.25 6.1"/><path fill="none" stroke="#ffcc00" stroke-width="1.0" stroke-opacity="0.749019607843" d="M35.55 22.3 L39.35 30.75 Q41.1 34.5 37.2 35.7 L20.45 41.1 Q16.8 42.25 15.2 39.0 L15.0 38.6 M8.25 23.65 L3.35 12.8 Q1.65 9.1 5.5 7.85 L22.25 2.5 Q26.05 1.25 27.75 4.95 L28.25 6.1"/><path fill="none" stroke="#bf9900" stroke-width="1.0" stroke-opacity="0.749019607843" d="M28.25 6.1 L35.55 22.3 M15.0 38.6 L8.25 23.65"/><path fill="none" stroke="#f0b92b" stroke-width="0.5" d="M9.15 13.6 Q9.8 12.8 9.55 11.6 L9.1 10.55 22.05 6.35 Q24.9 5.45 26.25 7.85 L26.5 8.3 35.8 29.0 35.95 29.35 Q34.75 29.3 34.1 30.1 33.45 30.9 33.7 32.1 L34.0 32.9 20.65 37.2 Q18.8 37.8 17.65 37.0 16.8 36.4 16.3 35.2 L6.95 14.6 6.8 14.4 7.1 14.4 Q8.4 14.45 9.15 13.6"/></g><g id="c3"><path fill="#7fdbfe" stroke="none" d="M10.75 4.9 Q10.75 4.6 10.9 4.35 11.25 3.45 11.95 2.75 13.3 1.5 14.35 2.1 15.4 2.7 14.95 4.45 14.7 5.4 14.1 6.15 L13.75 6.5 Q13.1 7.15 12.35 7.35 L11.4 7.2 Q10.95 6.9 10.75 6.4 10.5 5.75 10.75 4.9 M7.5 5.9 Q7.0 5.85 6.6 5.5 6.05 5.0 5.8 4.15 L5.7 3.6 Q5.55 2.65 5.8 1.7 6.25 0.0 7.5 0.0 L7.6 0.0 Q8.85 0.0 9.3 1.7 9.55 2.65 9.4 3.6 L9.3 4.15 8.5 5.5 7.6 5.9 7.5 5.9 M4.35 4.9 Q4.6 5.75 4.35 6.4 L3.7 7.2 2.75 7.35 Q2.0 7.15 1.35 6.5 L1.0 6.15 Q0.4 5.4 0.15 4.45 -0.3 2.7 0.75 2.1 1.8 1.5 3.15 2.75 3.85 3.45 4.2 4.35 L4.35 4.9 M5.5 13.7 Q4.45 13.9 3.65 12.95 2.75 12.0 3.2 10.25 3.7 8.5 5.25 7.6 6.4 6.9 7.55 7.0 8.75 6.9 9.9 7.6 11.45 8.5 11.95 10.25 12.35 12.0 11.5 12.95 10.7 13.9 9.65 13.7 8.55 13.5 7.55 12.6 6.55 13.5 5.5 13.7"/></g><g id="c4"><g><use transform="matrix(1.0,0.0,0.0,1.0,0.0,0.0)" xlink:href="#c3"/></g></g><radialGradient gradientUnits="userSpaceOnUse" r="819.2" cx="0" cy="0" spreadMethod="pad" gradientTransform="matrix(0.0914459228516,0.0,0.0,0.0914459228516,0.6,3.4)" id="gradient1"><stop offset="0.0" stop-color="#ffffff"/><stop offset="1.0" stop-color="#ffffff" stop-opacity="0.0"/></radialGradient><g id="c5"><path stroke="none" fill="url(#gradient1)" d="M36.65 -54.65 Q60.05 -42.0 69.75 -17.95 80.55 8.9 68.0 34.1 55.45 59.35 26.8 68.2 -1.8 77.05 -29.7 64.3 -57.6 51.6 -68.45 24.75 -79.3 -2.05 -66.75 -27.25 L-66.7 -27.3 Q-54.1 -52.5 -25.5 -61.4 3.1 -70.2 31.0 -57.5 L36.65 -54.65"/></g><g id="c6"><g><use transform="matrix(1.0,0.0,0.0,1.0,0.0,0.0)" xlink:href="#c5"/></g></g><radialGradient gradientUnits="userSpaceOnUse" r="819.2" cx="0" cy="0" spreadMethod="pad" gradientTransform="matrix(0.209197998047,0.0,0.0,0.177108764648,67.15,107.2)" id="gradient2"><stop offset="0.356862745098" stop-color="#ffffff"/><stop offset="0.670588235294" stop-opacity="0.0"/></radialGradient><g id="c7"><path fill="none" stroke-linejoin="round" stroke-linecap="round" stroke="url(#gradient2)" stroke-width="0.5" d="M136.55 165.8 L68.6 106.0 68.4 106.0 118.25 201.5 M68.3 105.8 L68.35 105.8 68.3 105.8 68.3 105.85 68.4 106.0 68.3 106.0 86.55 211.5 M68.3 105.8 L68.3 105.85 68.3 106.0 68.15 105.95 18.25 151.55 M68.3 105.85 L68.25 105.85 68.3 106.0 50.0 193.2 M68.25 105.85 L68.15 105.95 0.05 97.7 M68.3 105.85 L68.25 105.8 68.25 105.85 M68.25 105.8 L68.2 105.7 0.0 45.7 M68.3 105.8 L68.25 105.75 68.25 105.8 M68.25 105.75 L68.2 105.7 18.25 10.05 M68.6 106.0 L68.35 105.8 118.25 60.15 M86.6 18.35 L68.3 105.8 M136.6 114.25 L68.6 106.0 M68.25 105.75 L49.95 0.05"/></g><g id="c8"><g><use transform="matrix(1.0,0.0,0.0,1.0,0.0,0.0)" xlink:href="#c7"/></g></g><g id="c9"><g><use transform="matrix(1.0,0.0,0.0,1.0,0.0,0.0)" xlink:href="#c2"/></g><g><use transform="matrix(0.238861083984,-0.0867004394531,0.10026550293,0.233917236328,34.25,31.15)" xlink:href="#c4"/></g><g><use transform="matrix(0.238861083984,-0.0867004394531,0.10026550293,0.233917236328,4.25,10.3)" xlink:href="#c4"/></g><g><use transform="matrix(0.141098022461,-0.0378112792969,0.111373901367,0.225646972656,20.25,20.65)" filter="url(#filter7)" xlink:href="#c6"/></g><g><use transform="matrix(-0.155029296875,0.0513153076172,0.0841827392578,0.147033691406,22.6,3.15)" filter="url(#filter8)" xlink:href="#c8"/></g></g><filter id="filter7"><feColorMatrix in="SourceGraphic" type="matrix" values="0.0 0.0 0.0 0.0 0.796875 0.0 0.0 0.0 0.0 0.59765625 0.0 0.0 0.0 0.0 0.19921875 0.0 0.0 0.0 1.0 0.0" result="cxform"/><feComposite operator="in" in2="SourceGraphic" result="color-xform"/></filter><filter id="filter8"><feColorMatrix in="SourceGraphic" type="matrix" values="0.0 0.0 0.0 0.0 0.99609375 0.0 0.0 0.0 0.0 0.99609375 0.0 0.0 0.0 0.0 0.99609375 0.0 0.0 0.0 1.0 0.0" result="cxform"/><feComposite operator="in" in2="SourceGraphic" result="color-xform"/></filter><linearGradient gradientUnits="userSpaceOnUse" x1="-819.2" x2="819.2" spreadMethod="pad" gradientTransform="matrix(-0.0102081298828,-0.00135803222656,0.00102233886719,-0.0393371582031,44.7,97.25)" id="gradient3"><stop offset="0.0" stop-color="#36240d"/><stop offset="1.0" stop-color="#ad824f"/></linearGradient><g id="c10"><path fill="none" stroke="#000000" stroke-width="1.0" stroke-opacity="0.301960784314" d="M69.95 8.85 L66.75 10.05 60.5 12.7 Q51.7 16.3 43.95 19.9 42.25 21.4 37.4 24.15 32.55 26.9 25.15 28.9 L24.95 29.0 24.15 29.4 Q22.25 30.35 20.5 31.35 8.05 37.95 -0.75 44.2 L-0.9 45.2 -0.9 45.4 Q-0.95 51.7 0.5 55.85 L0.75 56.25 2.15 57.85 3.1 58.75 4.25 59.9 Q4.8 66.05 7.8 73.05 L10.05 77.8 Q11.8 87.6 14.05 91.05 L40.25 109.05 40.95 109.55 Q43.8 111.15 46.4 111.0 L47.45 110.85 Q49.1 110.5 50.75 109.5 L50.95 109.3 56.6 105.2 Q64.75 99.55 74.2 93.35 90.3 82.65 110.4 70.35 111.85 69.3 111.95 67.7 L112.85 59.85 Q114.75 53.55 115.85 46.6 L116.35 43.0 120.0 40.15 Q121.1 38.6 122.2 29.25 L122.3 28.7 122.1 27.75 120.1 25.45 115.6 21.9 85.8 5.6 Q82.35 4.6 77.45 5.8 L77.2 5.85 74.5 6.95 73.45 7.4 73.4 7.45 73.25 7.45 72.85 7.6 72.95 7.6 72.15 7.95 69.95 8.85"/><path fill="#f5e8b4" stroke="none" d="M108.55 17.9 L115.55 21.65 120.0 25.3 Q121.15 27.55 121.0 29.35 L116.5 34.0 94.55 49.1 92.45 48.0 91.9 46.85 92.7 50.65 72.55 64.65 Q72.45 64.65 72.3 64.8 62.65 71.65 50.15 78.1 L44.85 78.65 Q40.8 77.4 35.2 74.6 30.3 71.95 17.7 62.55 L13.9 59.75 13.35 56.95 Q10.95 55.25 9.3 55.55 L1.6 49.25 Q-0.25 46.6 0.05 44.75 9.45 37.5 21.05 31.6 L25.55 29.5 34.9 29.5 17.95 39.85 15.3 41.4 6.35 46.75 Q5.35 47.45 8.45 50.35 L8.75 50.8 11.1 52.9 30.45 67.15 31.7 68.15 Q41.2 74.85 47.95 71.1 L61.1 63.65 71.05 58.05 74.4 55.95 84.05 50.25 91.9 45.45 92.7 45.05 Q93.7 44.35 94.7 43.8 L114.0 31.45 Q114.85 31.05 115.7 30.35 116.4 29.8 115.55 28.65 113.3 25.6 101.4 18.45 85.45 8.8 80.4 9.5 L80.0 9.5 77.6 10.6 76.75 10.9 55.05 19.45 47.1 19.55 43.85 19.7 Q51.7 16.05 60.4 12.55 63.6 11.15 66.7 9.9 L69.9 8.65 72.15 7.8 72.85 7.55 73.4 7.25 73.95 7.1 74.1 7.1 76.9 6.25 80.4 5.85 84.05 6.0 108.55 17.9"/><path fill="#cbb356" stroke="none" d="M80.4 9.5 Q85.45 8.8 101.4 18.45 113.3 25.6 115.55 28.65 116.4 29.8 115.7 30.35 114.85 31.05 114.0 31.45 L94.7 43.8 91.6 42.4 89.2 41.4 84.6 39.85 81.95 39.45 80.25 40.45 80.4 9.5 M122.1 29.1 Q121.15 38.45 120.0 40.0 L116.4 42.8 Q110.65 47.0 107.0 49.95 L104.2 51.9 101.55 53.85 99.45 55.4 90.9 61.55 Q80.95 68.7 72.45 74.15 62.5 80.6 54.5 85.1 52.4 86.2 50.75 86.75 L50.45 86.75 47.5 87.3 Q45.85 82.15 47.5 79.5 L50.75 78.35 55.2 76.4 Q58.45 74.85 71.75 65.9 L86.7 55.7 87.1 55.4 93.55 50.95 93.85 50.65 Q94.25 53.85 94.55 54.0 94.8 53.15 95.1 52.9 95.5 52.45 95.4 49.65 L96.5 48.85 97.5 48.25 100.15 46.3 115.4 35.55 Q115.55 35.4 115.7 35.4 121.4 31.45 122.1 29.1 M8.45 56.4 L8.6 56.4 Q11.55 56.25 12.25 57.5 12.95 58.65 13.35 60.3 9.15 61.15 8.75 59.2 8.3 57.1 8.45 56.4"/><path fill="#faf1d1" stroke="none" d="M108.55 17.9 L84.05 6.0 80.4 5.85 76.9 6.25 74.1 7.1 73.95 7.1 74.4 6.85 77.2 5.7 77.45 5.55 Q82.35 4.45 85.7 5.45 L108.55 17.9 M47.1 19.55 L55.05 19.45 76.75 10.9 69.2 14.25 67.1 15.1 64.3 16.35 Q62.65 17.05 60.95 17.9 59.4 18.6 57.75 19.45 L51.55 22.8 54.8 20.15 47.1 19.55 M17.95 39.85 L34.9 29.5 25.55 29.5 21.05 31.6 Q9.45 37.5 0.05 44.75 -0.25 46.6 1.6 49.25 L9.3 55.55 Q10.95 55.25 13.35 56.95 L13.9 59.75 17.7 62.55 Q30.3 71.95 35.2 74.6 40.8 77.4 44.85 78.65 L50.15 78.1 Q62.65 71.65 72.3 64.8 72.45 64.65 72.55 64.65 L92.7 50.65 91.9 46.85 92.45 48.0 93.85 50.65 93.55 50.95 87.1 55.4 86.7 55.7 71.75 65.9 Q58.45 74.85 55.2 76.4 L50.75 78.35 47.5 79.5 Q45.85 82.15 47.5 87.3 L46.55 87.3 46.4 87.3 Q45.95 84.1 45.15 82.0 44.15 79.9 42.9 79.05 38.95 77.8 33.8 74.45 L28.75 71.1 26.95 69.95 26.5 69.55 17.15 63.1 13.35 60.3 Q12.95 58.65 12.25 57.5 11.55 56.25 8.6 56.4 L8.45 56.4 Q5.1 53.6 2.45 50.95 0.9 49.55 0.05 48.15 L0.75 55.7 0.45 55.7 Q-1.05 51.5 -0.95 45.2 L-0.95 45.05 -0.8 44.05 Q8.05 37.75 20.5 31.2 22.15 30.2 24.15 29.25 L24.95 28.8 25.1 28.8 39.65 28.1 38.25 28.95 Q31.85 32.15 25.55 35.65 L25.25 35.8 17.95 39.85 M94.55 49.1 L116.5 34.0 121.0 29.35 Q121.15 27.55 120.0 25.3 121.4 26.55 122.0 27.55 L122.25 28.55 122.1 29.1 Q121.4 31.45 115.7 35.4 115.55 35.4 115.4 35.55 L100.15 46.3 97.5 48.25 96.5 48.85 95.4 49.65 94.55 49.1"/><path fill="#945e0e" stroke="none" d="M116.4 42.8 L115.8 46.45 Q114.7 53.45 112.75 59.75 L109.8 56.1 108.55 60.85 Q106.85 65.65 103.9 70.55 L97.9 63.65 Q97.5 71.1 92.15 78.1 L86.4 71.25 Q86.0 78.35 80.55 85.5 L74.55 78.5 Q73.25 85.8 68.8 92.2 L63.9 84.4 Q62.2 91.8 57.45 99.9 L50.15 91.25 48.2 96.15 50.75 86.9 50.75 86.75 Q52.4 86.2 54.5 85.1 62.5 80.6 72.45 74.15 80.95 68.7 90.9 61.55 L99.45 55.4 101.55 53.85 104.2 51.9 107.0 49.95 Q110.65 47.0 116.4 42.8"/><path fill="#36240d" stroke="none" d="M112.75 59.75 L111.9 67.6 Q111.75 69.15 110.35 70.1 90.2 82.4 74.1 93.2 64.75 99.35 56.6 105.1 53.65 107.05 50.85 109.15 L50.75 109.3 Q49.05 110.3 47.35 110.7 45.55 108.2 46.8 101.05 L48.2 96.15 50.15 91.25 57.45 99.9 Q62.2 91.8 63.9 84.4 L68.8 92.2 Q73.25 85.8 74.55 78.5 L80.55 85.5 Q86.0 78.35 86.4 71.25 L92.15 78.1 Q97.5 71.1 97.9 63.65 L103.9 70.55 Q106.85 65.65 108.55 60.85 L109.8 56.1 112.75 59.75"/><path fill="#625526" stroke="none" d="M76.75 10.9 L77.6 10.6 80.0 9.5 80.4 9.5 80.25 40.45 78.6 41.55 Q74.55 43.95 69.9 46.15 59.7 51.05 49.45 56.55 40.25 61.55 31.0 66.9 L30.45 67.15 11.1 52.9 8.75 50.8 8.45 50.35 Q5.35 47.45 6.35 46.75 L15.3 41.4 17.95 39.85 25.25 35.8 25.55 35.65 Q31.85 32.15 38.25 28.95 L39.65 28.1 Q43.75 27.0 47.8 24.9 L50.6 23.35 Q51.0 23.05 51.55 22.8 L57.75 19.45 Q59.4 18.6 60.95 17.9 62.65 17.05 64.3 16.35 L67.1 15.1 69.2 14.25 76.75 10.9 M92.45 48.0 L94.55 49.1 95.4 49.65 Q95.5 52.45 95.1 52.9 94.8 53.15 94.55 54.0 94.25 53.85 93.85 50.65 L92.45 48.0"/><path fill="#eec891" stroke="none" d="M73.95 7.1 L73.4 7.25 73.25 7.25 73.95 7.1 M0.75 56.1 L0.45 55.7 0.75 55.7 0.75 56.1"/><path fill="#e6b069" stroke="none" d="M73.4 7.25 L72.85 7.55 72.15 7.8 73.0 7.4 72.85 7.4 73.25 7.25 73.4 7.25"/><path fill="#ebd994" stroke="none" d="M43.85 19.7 L47.1 19.55 54.8 20.15 51.55 22.8 Q51.0 23.05 50.6 23.35 L47.8 24.9 Q43.75 27.0 39.65 28.1 L25.1 28.8 Q32.55 26.7 37.3 24.05 42.2 21.25 43.85 19.7 M4.25 59.75 L3.0 58.65 2.15 57.65 0.75 56.1 0.75 55.7 0.05 48.15 Q0.9 49.55 2.45 50.95 5.1 53.6 8.45 56.4 8.3 57.1 8.75 59.2 9.15 61.15 13.35 60.3 L17.15 63.1 26.5 69.55 26.95 69.95 28.75 71.1 33.8 74.45 Q38.95 77.8 42.9 79.05 44.15 79.9 45.15 82.0 45.95 84.1 46.4 87.3 L45.55 87.2 43.85 86.75 Q39.55 85.35 34.5 82.15 L29.45 78.8 21.2 73.2 20.9 72.9 13.2 67.3 Q8.05 63.25 4.25 59.75"/><path fill="#704d1e" stroke="none" d="M94.7 43.8 Q93.7 44.35 92.7 45.05 L91.9 45.45 84.05 50.25 74.4 55.95 71.05 58.05 61.1 63.65 47.95 71.1 Q41.2 74.85 31.7 68.15 L30.45 67.15 31.0 66.9 Q40.25 61.55 49.45 56.55 59.7 51.05 69.9 46.15 74.55 43.95 78.6 41.55 L80.25 40.45 81.95 39.45 84.6 39.85 89.2 41.4 91.6 42.4 94.7 43.8"/><path fill="#cb8112" stroke="none" d="M10.0 77.65 L7.75 72.9 Q4.8 65.9 4.25 59.75 8.05 63.25 13.2 67.3 L20.9 72.9 21.2 73.2 29.45 78.8 34.5 82.15 Q39.55 85.35 43.85 86.75 45.55 95.3 41.65 104.4 35.6 95.85 33.35 87.75 L28.75 95.45 Q22.05 87.2 20.05 78.65 L16.3 87.05 Q11.65 79.05 9.55 70.95 L9.3 70.4 9.45 70.95 10.0 77.65"/><path fill="#a57c4a" stroke="none" d="M40.95 109.45 L40.25 108.9 14.05 90.8 Q11.8 87.45 10.0 77.65 L9.45 70.95 9.55 70.95 Q11.65 79.05 16.3 87.05 L20.05 78.65 Q22.05 87.2 28.75 95.45 L33.35 87.75 Q35.6 95.85 41.65 104.4 L40.95 109.45"/><path stroke="none" fill="url(#gradient3)" d="M9.45 70.95 L9.3 70.4 9.55 70.95 9.45 70.95"/><path fill="#eb9b25" stroke="none" d="M47.5 87.3 L50.45 86.75 50.75 86.9 48.2 96.15 Q45.55 101.3 41.9 104.95 L41.65 104.4 Q45.55 95.3 43.85 86.75 L45.55 87.2 46.4 87.3 46.55 87.3 47.5 87.3"/><path fill="#ad824f" stroke="none" d="M47.35 110.7 L46.4 110.85 Q43.75 111.0 40.95 109.45 L41.65 104.4 41.9 104.95 Q45.55 101.3 48.2 96.15 L46.8 101.05 Q45.55 108.2 47.35 110.7"/><path fill="#c77663" stroke="none" d="M50.45 86.75 L50.75 86.75 50.75 86.9 50.45 86.75"/><path fill="none" stroke="#000000" stroke-width="0.5" stroke-opacity="0.301960784314" d="M120.0 25.3 L115.55 21.65 108.55 17.9 85.7 5.45 Q82.35 4.45 77.45 5.55 L77.2 5.7 74.4 6.85 73.95 7.1 73.4 7.25 72.85 7.55 72.15 7.8 69.9 8.65 66.7 9.9 Q63.6 11.15 60.4 12.55 51.7 16.05 43.85 19.7 M120.0 25.3 Q121.4 26.55 122.0 27.55 L122.25 28.55 122.1 29.1 Q121.15 38.45 120.0 40.0 L116.4 42.8 115.8 46.45 Q114.7 53.45 112.75 59.75 L111.9 67.6 Q111.75 69.15 110.35 70.1 90.2 82.4 74.1 93.2 64.75 99.35 56.6 105.1 53.65 107.05 50.85 109.15 L50.75 109.3 Q49.05 110.3 47.35 110.7 L46.4 110.85 Q43.75 111.0 40.95 109.45 L40.25 108.9 14.05 90.8 Q11.8 87.45 10.0 77.65 L7.75 72.9 Q4.8 65.9 4.25 59.75 L3.0 58.65 2.15 57.65 0.75 56.1 0.45 55.7 Q-1.05 51.5 -0.95 45.2 L-0.95 45.05 -0.8 44.05 Q8.05 37.75 20.5 31.2 22.15 30.2 24.15 29.25 L24.95 28.8 25.1 28.8 Q32.55 26.7 37.3 24.05 42.2 21.25 43.85 19.7 M47.5 87.3 L50.45 86.75 50.75 86.75 Q52.4 86.2 54.5 85.1 62.5 80.6 72.45 74.15 80.95 68.7 90.9 61.55 L99.45 55.4 101.55 53.85 104.2 51.9 107.0 49.95 Q110.65 47.0 116.4 42.8 M46.4 87.3 L46.55 87.3 47.5 87.3 M4.25 59.75 Q8.05 63.25 13.2 67.3 L20.9 72.9 21.2 73.2 29.45 78.8 34.5 82.15 Q39.55 85.35 43.85 86.75 L45.55 87.2 46.4 87.3"/><path fill="none" stroke="#000000" stroke-width="1.5" stroke-opacity="0.501960784314" d="M115.55 28.65 Q116.4 29.8 115.7 30.35 114.85 31.05 114.0 31.45 L94.7 43.8 Q93.7 44.35 92.7 45.05 L91.9 45.45 84.05 50.25 74.4 55.95 71.05 58.05 61.1 63.65 47.95 71.1 Q41.2 74.85 31.7 68.15 L30.45 67.15 11.1 52.9 8.75 50.8 8.45 50.35 Q5.35 47.45 6.35 46.75"/><path fill="none" stroke="#000000" stroke-width="0.5" stroke-opacity="0.101960784314" d="M48.2 96.15 L50.15 91.25 57.45 99.9 Q62.2 91.8 63.9 84.4 L68.8 92.2 Q73.25 85.8 74.55 78.5 L80.55 85.5 Q86.0 78.35 86.4 71.25 L92.15 78.1 Q97.5 71.1 97.9 63.65 L103.9 70.55 Q106.85 65.65 108.55 60.85 L109.8 56.1 112.75 59.75 M9.55 70.95 Q11.65 79.05 16.3 87.05 L20.05 78.65 Q22.05 87.2 28.75 95.45 L33.35 87.75 Q35.6 95.85 41.65 104.4 L41.9 104.95 Q45.55 101.3 48.2 96.15 M9.45 70.95 L9.3 70.4 9.55 70.95 M9.45 70.95 L10.0 77.65"/><path fill="none" stroke="#000000" stroke-width="1.5" stroke-opacity="0.101960784314" d="M30.45 67.15 L31.0 66.9 Q40.25 61.55 49.45 56.55 59.7 51.05 69.9 46.15 74.55 43.95 78.6 41.55 L80.25 40.45 81.95 39.45 84.6 39.85 89.2 41.4 91.6 42.4 94.7 43.8 M39.65 28.1 L25.1 28.8"/><path fill="#ffedcc" fill-opacity="0.501960784314" d="M102.7 33.65 Q101.95 35.6 100.25 36.2 98.45 36.8 96.75 35.75 95.05 34.7 94.35 32.55 93.65 30.45 94.45 28.5 95.2 26.55 96.9 25.95 98.7 25.35 100.4 26.4 102.1 27.45 102.8 29.6 103.5 31.75 102.7 33.65 M61.75 31.2 Q61.85 30.45 61.5 29.9 L60.5 29.1 59.45 29.3 Q58.95 29.65 58.85 30.35 58.75 31.05 59.15 31.65 59.5 32.3 60.05 32.4 L61.15 32.25 Q61.65 31.9 61.75 31.2 M102.1 30.25 L102.15 28.95 Q101.95 28.3 101.4 27.95 L100.25 27.8 Q99.7 28.0 99.45 28.6 99.2 29.25 99.4 29.95 99.65 30.6 100.15 30.95 L101.3 31.15 Q101.85 30.9 102.1 30.25 M59.7 28.4 Q61.25 27.3 63.1 27.85 64.95 28.35 66.05 30.25 67.15 32.1 66.9 34.25 66.6 36.45 65.1 37.55 63.55 38.7 61.7 38.15 59.85 37.65 58.7 35.75 57.65 33.9 57.9 31.7 58.2 29.55 59.7 28.4 M47.0 46.95 Q47.9 47.95 48.05 49.4 48.2 50.9 47.45 52.0 46.6 53.05 45.35 53.1 44.1 53.1 43.15 52.1 42.15 51.05 42.0 49.6 41.85 48.1 42.7 47.05 43.5 45.95 44.75 45.95 46.0 45.9 47.0 46.95 M46.3 50.75 Q46.0 50.4 45.6 50.45 45.2 50.45 44.9 50.8 44.65 51.1 44.7 51.6 L45.05 52.4 Q45.4 52.75 45.8 52.75 L46.45 52.35 46.65 51.55 46.3 50.75 M62.95 46.6 Q63.75 45.5 65.0 45.5 66.25 45.45 67.25 46.5 68.2 47.5 68.35 48.95 68.5 50.45 67.7 51.55 66.85 52.6 65.6 52.65 64.35 52.65 63.4 51.65 62.4 50.6 62.25 49.15 62.1 47.65 62.95 46.6 M38.2 56.1 Q38.1 55.35 37.55 54.85 37.05 54.35 36.45 54.35 35.8 54.35 35.4 54.9 35.0 55.45 35.1 56.2 35.15 57.0 35.65 57.45 36.15 58.0 36.8 58.0 37.4 58.0 37.8 57.4 38.25 56.9 38.2 56.1 M66.55 50.3 Q66.25 49.95 65.85 49.95 65.45 50.0 65.15 50.35 64.9 50.65 64.95 51.15 65.0 51.65 65.3 51.95 65.65 52.3 66.05 52.25 66.45 52.25 66.7 51.9 67.0 51.6 66.95 51.1 L66.55 50.3 M42.3 53.75 Q43.8 55.4 44.05 57.75 44.25 60.1 43.0 61.75 41.75 63.45 39.75 63.5 37.75 63.55 36.2 61.9 34.65 60.3 34.45 57.95 34.2 55.6 35.5 53.9 36.75 52.2 38.75 52.15 40.75 52.1 42.3 53.75 M56.75 57.45 Q56.95 59.8 55.7 61.45 54.45 63.15 52.45 63.2 50.45 63.25 48.9 61.65 47.35 60.0 47.15 57.65 46.9 55.3 48.2 53.65 49.45 51.9 51.45 51.9 53.45 51.8 55.0 53.45 56.5 55.1 56.75 57.45 M54.15 62.05 Q54.55 61.5 54.45 60.75 54.4 60.0 53.9 59.45 53.4 58.95 52.8 59.0 52.15 59.0 51.75 59.5 51.35 60.05 51.4 60.8 51.5 61.6 52.0 62.1 52.5 62.65 53.1 62.65 53.75 62.6 54.15 62.05"/><path fill="#858585" stroke="none" d="M40.15 58.4 Q40.25 59.45 39.7 60.2 39.1 60.95 38.2 61.0 37.3 61.0 36.65 60.25 35.9 59.55 35.8 58.5 35.7 57.4 36.3 56.6 36.85 55.85 37.75 55.85 38.65 55.8 39.35 56.55 40.05 57.3 40.15 58.4"/><path fill="#ffffff" stroke="none" d="M38.05 56.2 Q38.15 56.95 37.7 57.5 37.3 58.0 36.7 58.0 36.05 58.05 35.55 57.55 35.05 57.0 34.95 56.25 34.9 55.5 35.3 54.95 35.7 54.4 36.35 54.35 36.95 54.35 37.45 54.9 38.0 55.45 38.05 56.2"/><path fill="#858585" stroke="none" d="M51.3 56.25 Q51.9 55.45 52.8 55.45 53.7 55.4 54.4 56.15 55.15 56.9 55.2 57.95 55.35 59.05 54.75 59.85 54.2 60.6 53.25 60.6 52.4 60.65 51.65 59.9 50.95 59.15 50.85 58.1 50.75 57.0 51.3 56.25"/><path fill="#ffffff" stroke="none" d="M51.6 59.45 Q52.05 58.9 52.65 58.85 53.35 58.85 53.85 59.35 L54.4 60.65 Q54.5 61.45 54.05 62.0 53.65 62.55 53.05 62.5 52.4 62.55 51.9 62.0 51.4 61.5 51.3 60.7 51.2 60.0 51.6 59.45"/><path fill="#858585" stroke="none" d="M44.65 48.85 Q45.0 48.35 45.55 48.35 46.15 48.3 46.6 48.8 47.05 49.25 47.1 49.95 47.15 50.6 46.8 51.1 46.4 51.6 45.85 51.6 45.3 51.6 44.85 51.15 44.4 50.65 44.3 50.0 44.25 49.35 44.65 48.85"/><path fill="#ffffff" stroke="none" d="M44.85 50.85 Q45.1 50.5 45.5 50.5 45.9 50.5 46.2 50.8 46.55 51.15 46.55 51.6 46.65 52.1 46.4 52.45 46.1 52.8 45.7 52.8 45.3 52.85 44.95 52.5 44.65 52.2 44.65 51.7 44.55 51.2 44.85 50.85"/><path fill="#858585" stroke="none" d="M64.95 48.4 Q65.3 47.9 65.85 47.9 66.45 47.85 66.9 48.35 67.35 48.8 67.4 49.5 67.45 50.15 67.1 50.65 66.7 51.15 66.15 51.15 65.6 51.15 65.15 50.7 64.7 50.2 64.6 49.55 64.55 48.9 64.95 48.4"/><path fill="#ffffff" stroke="none" d="M65.15 50.4 Q65.4 50.05 65.8 50.05 66.2 50.05 66.5 50.35 66.85 50.7 66.85 51.15 66.95 51.65 66.7 52.0 66.4 52.35 66.0 52.35 65.6 52.4 65.25 52.05 64.95 51.75 64.95 51.25 64.85 50.75 65.15 50.4"/><path fill="#858585" stroke="none" d="M63.1 33.75 Q63.0 34.7 62.3 35.2 61.6 35.75 60.75 35.5 59.9 35.25 59.4 34.4 58.9 33.5 59.0 32.55 59.15 31.55 59.85 31.05 60.55 30.55 61.4 30.8 62.25 31.05 62.75 31.85 63.25 32.75 63.1 33.75"/><path fill="#ffffff" stroke="none" d="M61.6 31.15 Q61.5 31.85 61.0 32.25 L59.9 32.4 Q59.3 32.25 58.95 31.65 58.6 31.05 58.7 30.35 58.8 29.65 59.25 29.25 L60.4 29.1 Q61.0 29.25 61.3 29.85 61.7 30.45 61.6 31.15"/><path fill="#858585" stroke="none" d="M97.75 32.0 Q96.95 31.55 96.65 30.6 96.35 29.6 96.7 28.7 97.05 27.85 97.8 27.55 L99.4 27.75 Q100.15 28.25 100.5 29.2 100.85 30.2 100.5 31.05 100.15 31.95 99.35 32.25 L97.75 32.0"/><path fill="#ffffff" stroke="none" d="M100.1 31.15 Q99.55 30.8 99.3 30.15 99.15 29.45 99.4 28.8 99.6 28.2 100.15 28.0 100.7 27.8 101.25 28.15 101.8 28.45 102.05 29.15 102.25 29.85 102.05 30.45 L101.2 31.3 100.1 31.15"/><path fill="#9ac400" fill-opacity="0.501960784314" d="M51.25 37.6 L53.45 42.4 48.5 42.5 46.3 37.7 51.25 37.6"/></g><g id="c11"><g><use transform="matrix(1.0,0.0,0.0,1.0,0.0,0.0)" xlink:href="#c5"/></g></g><g id="c12"><path fill="#302018" stroke="none" d="M13.35 17.15 L13.75 16.9 Q19.0 14.15 22.4 11.9 30.75 6.55 28.3 4.6 26.95 3.4 22.4 4.05 19.5 4.5 15.35 5.7 16.55 4.85 16.95 4.05 L19.55 1.95 Q21.8 -0.15 17.25 1.95 L16.75 2.15 16.35 2.35 14.35 3.25 13.75 3.55 13.7 3.6 Q1.85 9.25 1.1 10.4 1.1 9.9 0.45 9.75 L6.6 5.85 Q9.45 4.05 13.75 2.35 L14.85 1.95 19.85 0.2 Q22.55 -0.65 25.15 2.0 27.0 1.75 29.55 3.4 32.1 5.0 31.25 6.55 28.5 8.2 25.1 10.4 L24.15 11.0 22.4 12.1 13.75 17.3 13.7 17.3 13.35 17.15"/><path fill="#946752" stroke="none" d="M14.35 3.25 L16.35 2.35 Q17.65 2.0 17.1 3.45 L16.95 4.05 Q16.55 4.85 15.35 5.7 L13.75 6.6 Q10.8 8.15 5.25 9.9 10.8 5.5 13.75 3.65 L13.8 3.65 14.35 3.25 M22.4 5.55 Q26.75 2.85 25.85 5.3 25.75 6.75 22.4 8.5 19.45 10.05 14.0 11.75 19.45 7.45 22.4 5.55"/><path fill="#5b3023" stroke="none" d="M15.35 5.7 Q19.5 4.5 22.4 4.05 26.95 3.4 28.3 4.6 30.75 6.55 22.4 11.9 19.0 14.15 13.75 16.9 L13.35 17.15 Q13.4 15.75 10.1 15.6 6.6 12.45 2.7 11.05 1.95 10.9 1.8 11.95 L1.75 11.95 1.75 11.8 1.7 11.35 1.6 10.9 Q1.85 10.9 1.5 10.75 L1.1 10.4 Q1.85 9.25 13.7 3.6 L13.75 3.65 Q10.8 5.5 5.25 9.9 10.8 8.15 13.75 6.6 L15.35 5.7 M22.4 5.55 Q19.45 7.45 14.0 11.75 19.45 10.05 22.4 8.5 25.75 6.75 25.85 5.3 26.75 2.85 22.4 5.55"/><path fill="#73362a" stroke="none" d="M16.35 2.35 L16.75 2.15 17.25 1.95 Q21.8 -0.15 19.55 1.95 L16.95 4.05 17.1 3.45 Q17.65 2.0 16.35 2.35"/><path fill="#825a20" stroke="none" d="M13.7 3.6 L13.75 3.55 14.35 3.25 13.8 3.65 13.75 3.65 13.7 3.6 M1.75 11.95 L1.8 11.95 1.8 12.05 1.75 11.95"/><path fill="#ffffbe" stroke="none" d="M13.35 17.15 L13.7 17.3 13.25 17.55 Q13.15 16.25 10.0 16.05 8.0 14.3 5.9 13.6 4.25 12.15 2.55 11.55 2.05 11.45 1.85 11.95 L1.8 11.95 Q1.95 10.9 2.7 11.05 6.6 12.45 10.1 15.6 13.4 15.75 13.35 17.15 M0.45 9.75 Q1.1 9.9 1.1 10.4 L1.5 10.75 Q1.85 10.9 1.6 10.9 L1.7 11.35 1.6 11.4 1.0 10.9 Q0.2 10.5 0.05 11.05 0.1 10.1 0.45 9.75"/><path fill="#cc6b22" stroke="none" d="M1.15 17.95 Q0.0 13.4 0.0 11.35 L0.05 11.25 0.05 11.05 Q0.2 10.5 1.0 10.9 L1.6 11.4 1.75 11.8 1.75 11.95 1.8 12.05 1.85 11.95 Q2.05 11.45 2.55 11.55 4.25 12.15 5.9 13.6 8.0 14.3 10.0 16.05 13.15 16.25 13.25 17.55 L13.25 17.6 8.65 20.2 Q5.9 21.6 2.9 19.25 L1.15 17.95"/><path fill="#9de300" fill-opacity="0.780392156863" d="M1.7 11.35 L1.75 11.8 1.6 11.4 1.7 11.35"/><path fill="#cc8e33" stroke="none" d="M1.8 11.95 L1.85 11.95 1.8 12.05 1.8 11.95"/><path fill="none" stroke="#ffffff" stroke-width="1.5" stroke-opacity="0.301960784314" d="M31.25 6.55 Q32.1 5.0 29.55 3.4 27.0 1.75 25.15 2.0 22.55 -0.65 19.85 0.2 L14.85 1.95 13.75 2.35 Q9.45 4.05 6.6 5.85 L0.45 9.75 Q1.1 9.9 1.1 10.4 L1.5 10.75 Q1.85 10.9 1.6 10.9 L1.7 11.35 1.75 11.8 1.75 11.95 M1.15 17.95 Q0.0 13.4 0.0 11.35 L0.05 11.25 0.05 11.05 Q0.1 10.1 0.45 9.75 M1.8 11.95 Q1.95 10.9 2.7 11.05 6.6 12.45 10.1 15.6 13.4 15.75 13.35 17.15 M1.8 11.95 L1.8 12.05 1.85 11.95 Q2.05 11.45 2.55 11.55 4.25 12.15 5.9 13.6 8.0 14.3 10.0 16.05 13.15 16.25 13.25 17.55 L13.25 17.6 M1.8 12.05 L1.75 11.95 M1.75 11.8 L1.6 11.4 1.0 10.9 Q0.2 10.5 0.05 11.05"/></g><g id="c13"><path fill="#774411" stroke="none" d="M76.7 11.5 Q76.25 12.0 75.6 12.0 74.95 12.0 74.45 11.5 74.0 11.05 74.0 10.4 74.0 9.75 74.45 9.25 74.95 8.8 75.6 8.8 76.25 8.8 76.7 9.25 77.2 9.75 77.2 10.4 77.2 11.05 76.7 11.5 M64.8 11.2 Q64.8 11.85 64.3 12.3 63.85 12.8 63.2 12.8 62.55 12.8 62.05 12.3 61.6 11.85 61.6 11.2 61.6 10.55 62.05 10.05 62.55 9.6 63.2 9.6 63.85 9.6 64.3 10.05 64.8 10.55 64.8 11.2 M65.6 20.3 Q65.6 18.7 66.75 17.55 67.9 16.4 69.5 16.4 71.1 16.4 72.25 17.55 73.4 18.7 73.4 20.3 73.4 21.9 72.25 23.05 71.1 24.2 69.5 24.2 67.9 24.2 66.75 23.05 65.6 21.9 65.6 20.3 M63.8 23.3 Q63.8 24.5 62.95 25.35 62.1 26.2 60.9 26.2 59.7 26.2 58.85 25.35 58.0 24.5 58.0 23.3 58.0 22.1 58.85 21.25 59.7 20.4 60.9 20.4 62.1 20.4 62.95 21.25 63.8 22.1 63.8 23.3 M53.3 5.3 Q52.4 4.4 52.4 3.1 52.4 1.8 53.3 0.9 54.2 0.0 55.5 0.0 56.8 0.0 57.7 0.9 58.6 1.8 58.6 3.1 58.6 4.4 57.7 5.3 56.8 6.2 55.5 6.2 54.2 6.2 53.3 5.3 M42.15 0.95 Q42.75 0.4 43.6 0.4 44.45 0.4 45.0 0.95 45.6 1.55 45.6 2.4 45.6 3.25 45.0 3.8 44.45 4.4 43.6 4.4 42.75 4.4 42.15 3.8 41.6 3.25 41.6 2.4 41.6 1.55 42.15 0.95 M38.15 8.75 L45.2 8.4 Q48.2 8.4 50.3 10.5 52.4 12.6 52.4 15.6 52.4 18.6 50.3 20.7 48.85 22.15 47.0 22.6 40.45 16.25 38.15 8.75 M59.05 15.05 Q58.55 15.6 57.8 15.6 57.05 15.6 56.5 15.05 56.0 14.55 56.0 13.8 56.0 13.05 56.5 12.5 57.05 12.0 57.8 12.0 58.55 12.0 59.05 12.5 59.6 13.05 59.6 13.8 59.6 14.55 59.05 15.05 M55.1 21.35 Q55.1 22.15 54.55 22.7 54.0 23.25 53.2 23.25 52.4 23.25 51.85 22.7 51.3 22.15 51.3 21.35 51.3 20.55 51.85 20.0 52.4 19.45 53.2 19.45 54.0 19.45 54.55 20.0 55.1 20.55 55.1 21.35 M55.6 30.8 Q54.95 30.8 54.45 30.3 54.0 29.85 54.0 29.2 54.0 28.55 54.45 28.05 54.95 27.6 55.6 27.6 56.25 27.6 56.7 28.05 57.2 28.55 57.2 29.2 57.2 29.85 56.7 30.3 56.25 30.8 55.6 30.8"/><path fill="none" stroke="#000000" stroke-width="1.0" stroke-opacity="0.2" d="M76.7 11.5 Q76.25 12.0 75.6 12.0 74.95 12.0 74.45 11.5 74.0 11.05 74.0 10.4 74.0 9.75 74.45 9.25 74.95 8.8 75.6 8.8 76.25 8.8 76.7 9.25 77.2 9.75 77.2 10.4 77.2 11.05 76.7 11.5 M64.8 11.2 Q64.8 11.85 64.3 12.3 63.85 12.8 63.2 12.8 62.55 12.8 62.05 12.3 61.6 11.85 61.6 11.2 61.6 10.55 62.05 10.05 62.55 9.6 63.2 9.6 63.85 9.6 64.3 10.05 64.8 10.55 64.8 11.2 M65.6 20.3 Q65.6 18.7 66.75 17.55 67.9 16.4 69.5 16.4 71.1 16.4 72.25 17.55 73.4 18.7 73.4 20.3 73.4 21.9 72.25 23.05 71.1 24.2 69.5 24.2 67.9 24.2 66.75 23.05 65.6 21.9 65.6 20.3 M63.8 23.3 Q63.8 24.5 62.95 25.35 62.1 26.2 60.9 26.2 59.7 26.2 58.85 25.35 58.0 24.5 58.0 23.3 58.0 22.1 58.85 21.25 59.7 20.4 60.9 20.4 62.1 20.4 62.95 21.25 63.8 22.1 63.8 23.3 M53.3 5.3 Q52.4 4.4 52.4 3.1 52.4 1.8 53.3 0.9 54.2 0.0 55.5 0.0 56.8 0.0 57.7 0.9 58.6 1.8 58.6 3.1 58.6 4.4 57.7 5.3 56.8 6.2 55.5 6.2 54.2 6.2 53.3 5.3 M42.15 0.95 Q42.75 0.4 43.6 0.4 44.45 0.4 45.0 0.95 45.6 1.55 45.6 2.4 45.6 3.25 45.0 3.8 44.45 4.4 43.6 4.4 42.75 4.4 42.15 3.8 41.6 3.25 41.6 2.4 41.6 1.55 42.15 0.95 M38.15 8.75 L45.2 8.4 Q48.2 8.4 50.3 10.5 52.4 12.6 52.4 15.6 52.4 18.6 50.3 20.7 48.85 22.15 47.0 22.6 M59.05 15.05 Q58.55 15.6 57.8 15.6 57.05 15.6 56.5 15.05 56.0 14.55 56.0 13.8 56.0 13.05 56.5 12.5 57.05 12.0 57.8 12.0 58.55 12.0 59.05 12.5 59.6 13.05 59.6 13.8 59.6 14.55 59.05 15.05 M55.1 21.35 Q55.1 22.15 54.55 22.7 54.0 23.25 53.2 23.25 52.4 23.25 51.85 22.7 51.3 22.15 51.3 21.35 51.3 20.55 51.85 20.0 52.4 19.45 53.2 19.45 54.0 19.45 54.55 20.0 55.1 20.55 55.1 21.35 M55.6 30.8 Q54.95 30.8 54.45 30.3 54.0 29.85 54.0 29.2 54.0 28.55 54.45 28.05 54.95 27.6 55.6 27.6 56.25 27.6 56.7 28.05 57.2 28.55 57.2 29.2 57.2 29.85 56.7 30.3 56.25 30.8 55.6 30.8"/></g><g id="c14"><g><use transform="matrix(1.0,0.0,0.0,1.0,0.0,0.0)" xlink:href="#c13"/></g></g><g id="c15"><path fill="#774411" stroke="none" d="M76.7 11.5 Q76.25 12.0 75.6 12.0 74.95 12.0 74.45 11.5 74.0 11.05 74.0 10.4 74.0 9.75 74.45 9.25 74.95 8.8 75.6 8.8 76.25 8.8 76.7 9.25 77.2 9.75 77.2 10.4 77.2 11.05 76.7 11.5 M64.8 11.2 Q64.8 11.85 64.3 12.3 63.85 12.8 63.2 12.8 62.55 12.8 62.05 12.3 61.6 11.85 61.6 11.2 61.6 10.55 62.05 10.05 62.55 9.6 63.2 9.6 63.85 9.6 64.3 10.05 64.8 10.55 64.8 11.2 M65.6 20.3 Q65.6 18.7 66.75 17.55 67.9 16.4 69.5 16.4 71.1 16.4 72.25 17.55 73.4 18.7 73.4 20.3 73.4 21.9 72.25 23.05 71.1 24.2 69.5 24.2 67.9 24.2 66.75 23.05 65.6 21.9 65.6 20.3 M63.8 23.3 Q63.8 24.5 62.95 25.35 62.1 26.2 60.9 26.2 59.7 26.2 58.85 25.35 58.0 24.5 58.0 23.3 58.0 22.1 58.85 21.25 59.7 20.4 60.9 20.4 62.1 20.4 62.95 21.25 63.8 22.1 63.8 23.3 M53.3 5.3 Q52.4 4.4 52.4 3.1 52.4 1.8 53.3 0.9 54.2 0.0 55.5 0.0 56.8 0.0 57.7 0.9 58.6 1.8 58.6 3.1 58.6 4.4 57.7 5.3 56.8 6.2 55.5 6.2 54.2 6.2 53.3 5.3 M42.15 0.95 Q42.75 0.4 43.6 0.4 44.45 0.4 45.0 0.95 45.6 1.55 45.6 2.4 45.6 3.25 45.0 3.8 44.45 4.4 43.6 4.4 42.75 4.4 42.15 3.8 41.6 3.25 41.6 2.4 41.6 1.55 42.15 0.95 M50.3 10.5 Q52.4 12.6 52.4 15.6 52.4 18.6 50.3 20.7 48.2 22.8 45.2 22.8 42.2 22.8 40.1 20.7 38.0 18.6 38.0 15.6 38.0 12.6 40.1 10.5 42.2 8.4 45.2 8.4 48.2 8.4 50.3 10.5 M59.05 15.05 Q58.55 15.6 57.8 15.6 57.05 15.6 56.5 15.05 56.0 14.55 56.0 13.8 56.0 13.05 56.5 12.5 57.05 12.0 57.8 12.0 58.55 12.0 59.05 12.5 59.6 13.05 59.6 13.8 59.6 14.55 59.05 15.05 M55.1 21.35 Q55.1 22.15 54.55 22.7 54.0 23.25 53.2 23.25 52.4 23.25 51.85 22.7 51.3 22.15 51.3 21.35 51.3 20.55 51.85 20.0 52.4 19.45 53.2 19.45 54.0 19.45 54.55 20.0 55.1 20.55 55.1 21.35 M55.6 27.6 Q56.25 27.6 56.7 28.05 57.2 28.55 57.2 29.2 57.2 29.85 56.7 30.3 56.25 30.8 55.6 30.8 54.95 30.8 54.45 30.3 54.0 29.85 54.0 29.2 54.0 28.55 54.45 28.05 54.95 27.6 55.6 27.6 M47.4 36.2 Q46.2 37.4 44.5 37.4 42.8 37.4 41.6 36.2 40.4 35.0 40.4 33.3 40.4 31.6 41.6 30.4 42.8 29.2 44.5 29.2 46.2 29.2 47.4 30.4 48.6 31.6 48.6 33.3 48.6 35.0 47.4 36.2 M33.9 5.65 Q34.4 6.15 34.4 6.8 34.4 7.45 33.9 7.9 33.45 8.4 32.8 8.4 32.15 8.4 31.65 7.9 31.2 7.45 31.2 6.8 31.2 6.15 31.65 5.65 32.15 5.2 32.8 5.2 33.45 5.2 33.9 5.65 M22.85 4.85 Q23.35 4.4 24.0 4.4 24.65 4.4 25.1 4.85 25.6 5.35 25.6 6.0 25.6 6.65 25.1 7.1 24.65 7.6 24.0 7.6 23.35 7.6 22.85 7.1 22.4 6.65 22.4 6.0 22.4 5.35 22.85 4.85 M30.15 13.05 Q30.8 13.7 30.8 14.6 30.8 15.5 30.15 16.15 29.5 16.8 28.6 16.8 27.7 16.8 27.05 16.15 26.4 15.5 26.4 14.6 26.4 13.7 27.05 13.05 27.7 12.4 28.6 12.4 29.5 12.4 30.15 13.05 M23.05 19.85 Q24.1 18.8 25.6 18.8 27.1 18.8 28.15 19.85 29.2 20.9 29.2 22.4 29.2 23.9 28.15 24.95 27.1 26.0 25.6 26.0 24.1 26.0 23.05 24.95 22.0 23.9 22.0 22.4 22.0 20.9 23.05 19.85 M11.55 7.55 Q12.7 6.4 14.3 6.4 15.9 6.4 17.05 7.55 18.2 8.7 18.2 10.3 18.2 11.9 17.05 13.05 15.9 14.2 14.3 14.2 12.7 14.2 11.55 13.05 10.4 11.9 10.4 10.3 10.4 8.7 11.55 7.55 M4.1 13.5 Q4.8 14.2 4.8 15.2 4.8 16.2 4.1 16.9 3.4 17.6 2.4 17.6 1.4 17.6 0.7 16.9 0.0 16.2 0.0 15.2 0.0 14.2 0.7 13.5 1.4 12.8 2.4 12.8 3.4 12.8 4.1 13.5 M14.9 17.6 Q15.45 17.6 15.8 17.95 16.2 18.35 16.2 18.9 16.2 19.45 15.8 19.8 15.45 20.2 14.9 20.2 14.35 20.2 13.95 19.8 13.6 19.45 13.6 18.9 13.6 18.35 13.95 17.95 14.35 17.6 14.9 17.6 M13.0 24.0 Q13.9 24.0 14.55 24.65 15.2 25.3 15.2 26.2 15.2 27.1 14.55 27.75 13.9 28.4 13.0 28.4 12.1 28.4 11.45 27.75 10.8 27.1 10.8 26.2 10.8 25.3 11.45 24.65 12.1 24.0 13.0 24.0 M18.4 34.5 Q18.4 33.15 19.35 32.15 20.35 31.2 21.7 31.2 23.05 31.2 24.0 32.15 25.0 33.15 25.0 34.5 25.0 35.85 24.0 36.8 23.05 37.8 21.7 37.8 20.35 37.8 19.35 36.8 18.4 35.85 18.4 34.5 M31.65 30.45 Q31.1 31.0 30.3 31.0 29.5 31.0 28.95 30.45 28.4 29.9 28.4 29.1 28.4 28.3 28.95 27.75 29.5 27.2 30.3 27.2 31.1 27.2 31.65 27.75 32.2 28.3 32.2 29.1 32.2 29.9 31.65 30.45"/><path fill="none" stroke="#000000" stroke-width="1.0" stroke-opacity="0.2" d="M76.7 11.5 Q76.25 12.0 75.6 12.0 74.95 12.0 74.45 11.5 74.0 11.05 74.0 10.4 74.0 9.75 74.45 9.25 74.95 8.8 75.6 8.8 76.25 8.8 76.7 9.25 77.2 9.75 77.2 10.4 77.2 11.05 76.7 11.5 M64.8 11.2 Q64.8 11.85 64.3 12.3 63.85 12.8 63.2 12.8 62.55 12.8 62.05 12.3 61.6 11.85 61.6 11.2 61.6 10.55 62.05 10.05 62.55 9.6 63.2 9.6 63.85 9.6 64.3 10.05 64.8 10.55 64.8 11.2 M65.6 20.3 Q65.6 18.7 66.75 17.55 67.9 16.4 69.5 16.4 71.1 16.4 72.25 17.55 73.4 18.7 73.4 20.3 73.4 21.9 72.25 23.05 71.1 24.2 69.5 24.2 67.9 24.2 66.75 23.05 65.6 21.9 65.6 20.3 M63.8 23.3 Q63.8 24.5 62.95 25.35 62.1 26.2 60.9 26.2 59.7 26.2 58.85 25.35 58.0 24.5 58.0 23.3 58.0 22.1 58.85 21.25 59.7 20.4 60.9 20.4 62.1 20.4 62.95 21.25 63.8 22.1 63.8 23.3 M53.3 5.3 Q52.4 4.4 52.4 3.1 52.4 1.8 53.3 0.9 54.2 0.0 55.5 0.0 56.8 0.0 57.7 0.9 58.6 1.8 58.6 3.1 58.6 4.4 57.7 5.3 56.8 6.2 55.5 6.2 54.2 6.2 53.3 5.3 M42.15 0.95 Q42.75 0.4 43.6 0.4 44.45 0.4 45.0 0.95 45.6 1.55 45.6 2.4 45.6 3.25 45.0 3.8 44.45 4.4 43.6 4.4 42.75 4.4 42.15 3.8 41.6 3.25 41.6 2.4 41.6 1.55 42.15 0.95 M50.3 10.5 Q52.4 12.6 52.4 15.6 52.4 18.6 50.3 20.7 48.2 22.8 45.2 22.8 42.2 22.8 40.1 20.7 38.0 18.6 38.0 15.6 38.0 12.6 40.1 10.5 42.2 8.4 45.2 8.4 48.2 8.4 50.3 10.5 M59.05 15.05 Q58.55 15.6 57.8 15.6 57.05 15.6 56.5 15.05 56.0 14.55 56.0 13.8 56.0 13.05 56.5 12.5 57.05 12.0 57.8 12.0 58.55 12.0 59.05 12.5 59.6 13.05 59.6 13.8 59.6 14.55 59.05 15.05 M55.1 21.35 Q55.1 22.15 54.55 22.7 54.0 23.25 53.2 23.25 52.4 23.25 51.85 22.7 51.3 22.15 51.3 21.35 51.3 20.55 51.85 20.0 52.4 19.45 53.2 19.45 54.0 19.45 54.55 20.0 55.1 20.55 55.1 21.35 M55.6 27.6 Q56.25 27.6 56.7 28.05 57.2 28.55 57.2 29.2 57.2 29.85 56.7 30.3 56.25 30.8 55.6 30.8 54.95 30.8 54.45 30.3 54.0 29.85 54.0 29.2 54.0 28.55 54.45 28.05 54.95 27.6 55.6 27.6 M47.4 36.2 Q46.2 37.4 44.5 37.4 42.8 37.4 41.6 36.2 40.4 35.0 40.4 33.3 40.4 31.6 41.6 30.4 42.8 29.2 44.5 29.2 46.2 29.2 47.4 30.4 48.6 31.6 48.6 33.3 48.6 35.0 47.4 36.2 M33.9 5.65 Q34.4 6.15 34.4 6.8 34.4 7.45 33.9 7.9 33.45 8.4 32.8 8.4 32.15 8.4 31.65 7.9 31.2 7.45 31.2 6.8 31.2 6.15 31.65 5.65 32.15 5.2 32.8 5.2 33.45 5.2 33.9 5.65 M22.85 4.85 Q23.35 4.4 24.0 4.4 24.65 4.4 25.1 4.85 25.6 5.35 25.6 6.0 25.6 6.65 25.1 7.1 24.65 7.6 24.0 7.6 23.35 7.6 22.85 7.1 22.4 6.65 22.4 6.0 22.4 5.35 22.85 4.85 M30.15 13.05 Q30.8 13.7 30.8 14.6 30.8 15.5 30.15 16.15 29.5 16.8 28.6 16.8 27.7 16.8 27.05 16.15 26.4 15.5 26.4 14.6 26.4 13.7 27.05 13.05 27.7 12.4 28.6 12.4 29.5 12.4 30.15 13.05 M23.05 19.85 Q24.1 18.8 25.6 18.8 27.1 18.8 28.15 19.85 29.2 20.9 29.2 22.4 29.2 23.9 28.15 24.95 27.1 26.0 25.6 26.0 24.1 26.0 23.05 24.95 22.0 23.9 22.0 22.4 22.0 20.9 23.05 19.85 M11.55 7.55 Q12.7 6.4 14.3 6.4 15.9 6.4 17.05 7.55 18.2 8.7 18.2 10.3 18.2 11.9 17.05 13.05 15.9 14.2 14.3 14.2 12.7 14.2 11.55 13.05 10.4 11.9 10.4 10.3 10.4 8.7 11.55 7.55 M4.1 13.5 Q4.8 14.2 4.8 15.2 4.8 16.2 4.1 16.9 3.4 17.6 2.4 17.6 1.4 17.6 0.7 16.9 0.0 16.2 0.0 15.2 0.0 14.2 0.7 13.5 1.4 12.8 2.4 12.8 3.4 12.8 4.1 13.5 M14.9 17.6 Q15.45 17.6 15.8 17.95 16.2 18.35 16.2 18.9 16.2 19.45 15.8 19.8 15.45 20.2 14.9 20.2 14.35 20.2 13.95 19.8 13.6 19.45 13.6 18.9 13.6 18.35 13.95 17.95 14.35 17.6 14.9 17.6 M13.0 24.0 Q13.9 24.0 14.55 24.65 15.2 25.3 15.2 26.2 15.2 27.1 14.55 27.75 13.9 28.4 13.0 28.4 12.1 28.4 11.45 27.75 10.8 27.1 10.8 26.2 10.8 25.3 11.45 24.65 12.1 24.0 13.0 24.0 M18.4 34.5 Q18.4 33.15 19.35 32.15 20.35 31.2 21.7 31.2 23.05 31.2 24.0 32.15 25.0 33.15 25.0 34.5 25.0 35.85 24.0 36.8 23.05 37.8 21.7 37.8 20.35 37.8 19.35 36.8 18.4 35.85 18.4 34.5 M31.65 30.45 Q31.1 31.0 30.3 31.0 29.5 31.0 28.95 30.45 28.4 29.9 28.4 29.1 28.4 28.3 28.95 27.75 29.5 27.2 30.3 27.2 31.1 27.2 31.65 27.75 32.2 28.3 32.2 29.1 32.2 29.9 31.65 30.45"/></g><g id="c16"><g><use transform="matrix(1.0,0.0,0.0,1.0,0.0,0.0)" xlink:href="#c15"/></g></g><g id="c17"><g><use transform="matrix(1.0,0.0,0.0,1.0,0.0,0.0)" xlink:href="#c12"/></g><g><use transform="matrix(-0.245956420898,-0.119323730469,-0.0354614257812,0.185104370117,20.75,21.2)" filter="url(#filter13)" xlink:href="#c14"/></g><g><use transform="matrix(0.288925170898,0.0,0.0,0.289184570312,5.1,3.2)" filter="url(#filter14)" xlink:href="#c16"/></g></g><filter id="filter13"><feColorMatrix in="SourceGraphic" type="matrix" values="1.0 0.0 0.0 0.0 0.0 0.0 1.0 0.0 0.0 0.0 0.0 0.0 1.0 0.0 0.0 0.0 0.0 0.0 0.2890625 0.0" result="cxform"/><feComposite operator="in" in2="SourceGraphic" result="color-xform"/></filter><filter id="filter14"><feColorMatrix in="SourceGraphic" type="matrix" values="1.0 0.0 0.0 0.0 0.0 0.0 1.0 0.0 0.0 0.0 0.0 0.0 1.0 0.0 0.0 0.0 0.0 0.0 0.2890625 0.0" result="cxform"/><feComposite operator="in" in2="SourceGraphic" result="color-xform"/></filter><g id="c18"><g><use transform="matrix(1.0,0.0,0.0,1.0,0.0,0.0)" xlink:href="#c10"/></g><g><use transform="matrix(0.429504394531,-0.228057861328,-0.0133666992188,0.193237304688,77.45,73.45)" filter="url(#filter16)" xlink:href="#c11"/></g><g><use transform="matrix(2.79985046387,0.0,0.0,2.79985046387,23.8,14.5)" filter="url(#filter17)" xlink:href="#c17"/></g></g><filter id="filter16"><feColorMatrix in="SourceGraphic" type="matrix" values="1.0 0.0 0.0 0.0 0.0 0.0 1.0 0.0 0.0 0.0 0.0 0.0 1.0 0.0 0.0 0.0 0.0 0.0 0.171875 0.0" result="cxform"/><feComposite operator="in" in2="SourceGraphic" result="color-xform"/></filter><filter id="filter17"><feColorMatrix in="SourceGraphic" type="matrix" values="0.6875 0.0 0.0 0.0 0.30859375 0.0 0.6875 0.0 0.0 0.18359375 0.0 0.0 0.6875 0.0 0.0 0.0 0.0 0.0 1.0 0.0" result="cxform"/><feComposite operator="in" in2="SourceGraphic" result="color-xform"/></filter><g id="c19"><g><use transform="matrix(1.0,0.0,0.0,1.0,6.3,53.35)" xlink:href="#c9"/></g><g><use transform="matrix(-0.146041870117,0.0488891601562,0.0616760253906,0.140441894531,33.05,63.95)" xlink:href="#c18"/></g><g><use transform="matrix(0.141098022461,-0.0378112792969,0.111373901367,0.225646972656,27.2,74.05)" filter="url(#filter20)" xlink:href="#c6"/></g></g><filter id="filter20"><feColorMatrix in="SourceGraphic" type="matrix" values="1.0 0.0 0.0 0.0 0.0 0.0 1.0 0.0 0.0 0.0 0.0 0.0 1.0 0.0 0.0 0.0 0.0 0.0 0.23046875 0.0" result="cxform"/><feComposite operator="in" in2="SourceGraphic" result="color-xform"/></filter></defs><g><g><use transform="matrix(1.0,0.0,0.0,1.0,0.0,0.0)" xlink:href="#c1"/></g><g><use transform="matrix(1.15496826172,0.0,0.0,1.15496826172,-1.5,-57.15)" xlink:href="#c19"/></g></g></svg>