<?xml version='1.0' encoding='UTF-8'?>
<svg xmlns:xlink="http://www.w3.org/1999/xlink" xmlns="http://www.w3.org/2000/svg" version="1.1" width="60px" height="60px" viewBox="0.0 0.0 60.0 60.0"><defs><g id="c1"><path fill="#000000" fill-opacity="0.00392156862745" d="M0.0 0.0 L60.0 0.0 60.0 60.0 0.0 60.0 0.0 0.0"/></g><g id="c2"><path fill="#006699" stroke="none" d="M31.5 39.85 L19.8 43.65 Q17.15 44.45 15.5 43.3 14.35 42.55 13.65 40.9 L1.7 14.45 1.6 14.3 1.2 13.45 -0.75 9.05 Q-2.05 6.2 -0.3 4.75 0.3 4.25 1.2 3.9 L5.5 2.25 Q8.95 0.95 10.65 4.15 L22.3 0.4 Q26.55 -1.0 28.45 3.1 L40.55 29.95 40.9 30.7 42.95 35.15 Q43.95 37.35 43.15 38.7 42.5 39.7 40.95 40.25 L36.65 41.8 35.1 42.2 Q32.75 42.3 31.5 39.85"/><path fill="none" stroke="#000000" stroke-width="1.0" stroke-opacity="0.298039215686" d="M31.5 39.85 L19.8 43.65 Q17.15 44.45 15.5 43.3 14.35 42.55 13.65 40.9 L1.7 14.45 1.6 14.3 1.2 13.45 -0.75 9.05 Q-2.05 6.2 -0.3 4.75 0.3 4.25 1.2 3.9 L5.5 2.25 Q8.95 0.95 10.65 4.15 L22.3 0.4 Q26.55 -1.0 28.45 3.1 L40.55 29.95 40.9 30.7 42.95 35.15 Q43.95 37.35 43.15 38.7 42.5 39.7 40.95 40.25 L36.65 41.8 35.1 42.2 Q32.75 42.3 31.5 39.85"/><path fill="#300525" stroke="none" d="M0.75 8.25 L29.8 9.75 25.55 0.9 Q26.9 1.6 27.8 3.55 L40.7 32.15 Q42.6 36.3 38.3 37.65 L23.3 42.5 13.15 21.4 4.6 20.9 0.7 12.25 Q-0.45 9.75 0.75 8.25 M20.1 43.55 L19.8 43.65 Q17.15 44.45 15.5 43.3 L20.1 43.55"/><path fill="#630a4c" stroke="none" d="M25.55 0.9 L29.8 9.75 0.75 8.25 Q1.45 7.3 3.1 6.75 L21.65 0.8 25.55 0.9 M4.6 20.9 L13.15 21.4 23.3 42.5 20.1 43.55 15.5 43.3 Q14.35 42.55 13.65 40.9 L4.6 20.9"/><path fill="none" stroke="#000000" stroke-width="0.5" stroke-opacity="0.301960784314" d="M0.75 8.25 Q-0.45 9.75 0.7 12.25 L4.6 20.9 M23.3 42.5 L38.3 37.65 Q42.6 36.3 40.7 32.15 L27.8 3.55 Q26.9 1.6 25.55 0.9 L21.65 0.8 3.1 6.75 Q1.45 7.3 0.75 8.25 M20.1 43.55 L19.8 43.65 Q17.15 44.45 15.5 43.3 14.35 42.55 13.65 40.9 L4.6 20.9 M20.1 43.55 L23.3 42.5"/><path fill="#9d147b" stroke="none" d="M14.2 40.5 L1.35 11.8 Q-0.5 7.75 3.8 6.35 L22.3 0.4 Q26.55 -1.0 28.45 3.1 L41.35 31.7 Q43.25 35.85 38.9 37.25 L20.4 43.2 Q16.1 44.55 14.2 40.5"/><path fill="none" stroke="#000000" stroke-width="0.5" stroke-opacity="0.301960784314" d="M14.2 40.5 L1.35 11.8 Q-0.5 7.75 3.8 6.35 L22.3 0.4 Q26.55 -1.0 28.45 3.1 L41.35 31.7 Q43.25 35.85 38.9 37.25 L20.4 43.2 Q16.1 44.55 14.2 40.5"/><path fill="#9d147b" stroke="none" d="M31.4 39.65 L31.3 39.45 31.25 39.4 29.25 34.95 Q27.55 31.2 31.25 29.85 L35.6 28.25 Q38.8 27.1 40.5 29.85 L40.9 30.7 42.95 35.15 Q43.95 37.35 43.15 38.7 42.5 39.45 41.2 39.9 L36.9 41.45 34.85 41.85 Q32.9 41.7 31.75 39.5 L31.4 39.65"/><path fill="#630a4c" stroke="none" d="M43.15 38.7 Q42.5 39.7 40.95 40.25 L36.65 41.8 35.1 42.2 Q32.75 42.3 31.45 39.8 L31.4 39.65 31.75 39.5 Q32.9 41.7 34.85 41.85 L36.9 41.45 41.2 39.9 Q42.5 39.45 43.15 38.7"/><path fill="none" stroke="#003333" stroke-width="0.5" stroke-opacity="0.509803921569" d="M43.15 38.7 Q42.5 39.7 40.95 40.25 L36.65 41.8 35.1 42.2 Q32.75 42.3 31.45 39.8 L31.4 39.65 30.3 40.0 31.4 39.65 M40.5 29.85 L40.9 30.7 42.95 35.15 Q43.95 37.35 43.15 38.7 42.5 39.45 41.2 39.9 L36.9 41.45 34.85 41.85 Q32.9 41.7 31.75 39.5 L31.4 39.65"/><path fill="#9d147b" stroke="none" d="M10.65 4.2 L10.85 4.6 12.85 9.05 Q14.5 12.8 10.8 14.15 L6.5 15.8 Q4.5 16.6 3.1 15.8 L1.75 12.85 -0.2 8.45 Q-1.25 6.15 -0.3 4.75 0.3 4.25 1.2 3.9 L5.5 2.25 Q9.0 0.95 10.65 4.2"/><path fill="#300525" stroke="none" d="M-0.3 4.75 Q-1.25 6.15 -0.2 8.45 L1.75 12.85 3.1 15.8 Q2.25 15.35 1.6 14.3 L1.2 13.45 -0.75 9.05 Q-2.05 6.2 -0.3 4.75"/><path fill="none" stroke="#003333" stroke-width="0.5" stroke-opacity="0.509803921569" d="M3.1 15.8 L6.45 23.15 M-0.3 4.75 Q0.3 4.25 1.2 3.9 L5.5 2.25 Q9.0 0.95 10.65 4.2 M3.1 15.8 L1.75 12.85 -0.2 8.45 Q-1.25 6.15 -0.3 4.75 -2.05 6.2 -0.75 9.05 L1.2 13.45 1.6 14.3"/><path fill="#fcf2cf" stroke="none" d="M9.15 13.6 Q9.8 12.8 9.55 11.6 L9.1 10.55 22.05 6.35 Q24.9 5.45 26.25 7.85 L26.5 8.3 35.8 29.0 35.95 29.35 Q34.75 29.3 34.1 30.1 33.45 30.9 33.7 32.1 L34.0 32.9 20.65 37.2 Q18.8 37.8 17.65 37.0 16.8 36.4 16.3 35.2 L6.95 14.6 6.8 14.4 7.1 14.4 Q8.4 14.45 9.15 13.6"/><path fill="#c47fad" stroke="none" d="M9.15 13.6 Q8.4 14.45 7.1 14.4 L6.8 14.4 6.95 14.6 16.3 35.2 Q16.8 36.4 17.65 37.0 18.8 37.8 20.65 37.2 L34.0 32.9 33.7 32.1 Q33.45 30.9 34.1 30.1 34.75 29.3 35.95 29.35 L35.8 29.0 26.5 8.3 26.25 7.85 Q24.9 5.45 22.05 6.35 L9.1 10.55 9.55 11.6 Q9.8 12.8 9.15 13.6 M28.25 6.1 L35.55 22.3 39.35 30.75 Q41.1 34.5 37.2 35.7 L20.45 41.1 Q16.8 42.25 15.2 39.0 L15.0 38.6 8.25 23.65 3.35 12.8 Q1.65 9.1 5.5 7.85 L22.25 2.5 Q26.05 1.25 27.75 4.95 L28.25 6.1"/><path fill="none" stroke="#ffcc00" stroke-width="1.0" stroke-opacity="0.749019607843" d="M35.55 22.3 L39.35 30.75 Q41.1 34.5 37.2 35.7 L20.45 41.1 Q16.8 42.25 15.2 39.0 L15.0 38.6 M8.25 23.65 L3.35 12.8 Q1.65 9.1 5.5 7.85 L22.25 2.5 Q26.05 1.25 27.75 4.95 L28.25 6.1"/><path fill="none" stroke="#bf9900" stroke-width="1.0" stroke-opacity="0.749019607843" d="M28.25 6.1 L35.55 22.3 M15.0 38.6 L8.25 23.65"/><path fill="none" stroke="#f0b92b" stroke-width="0.5" d="M9.15 13.6 Q9.8 12.8 9.55 11.6 L9.1 10.55 22.05 6.35 Q24.9 5.45 26.25 7.85 L26.5 8.3 35.8 29.0 35.95 29.35 Q34.75 29.3 34.1 30.1 33.45 30.9 33.7 32.1 L34.0 32.9 20.65 37.2 Q18.8 37.8 17.65 37.0 16.8 36.4 16.3 35.2 L6.95 14.6 6.8 14.4 7.1 14.4 Q8.4 14.45 9.15 13.6"/></g><g id="c3"><path fill="#7fdbfe" stroke="none" d="M10.75 4.9 Q10.75 4.6 10.9 4.35 11.25 3.45 11.95 2.75 13.3 1.5 14.35 2.1 15.4 2.7 14.95 4.45 14.7 5.4 14.1 6.15 L13.75 6.5 Q13.1 7.15 12.35 7.35 L11.4 7.2 Q10.95 6.9 10.75 6.4 10.5 5.75 10.75 4.9 M7.5 5.9 Q7.0 5.85 6.6 5.5 6.05 5.0 5.8 4.15 L5.7 3.6 Q5.55 2.65 5.8 1.7 6.25 0.0 7.5 0.0 L7.6 0.0 Q8.85 0.0 9.3 1.7 9.55 2.65 9.4 3.6 L9.3 4.15 8.5 5.5 7.6 5.9 7.5 5.9 M4.35 4.9 Q4.6 5.75 4.35 6.4 L3.7 7.2 2.75 7.35 Q2.0 7.15 1.35 6.5 L1.0 6.15 Q0.4 5.4 0.15 4.45 -0.3 2.7 0.75 2.1 1.8 1.5 3.15 2.75 3.85 3.45 4.2 4.35 L4.35 4.9 M5.5 13.7 Q4.45 13.9 3.65 12.95 2.75 12.0 3.2 10.25 3.7 8.5 5.25 7.6 6.4 6.9 7.55 7.0 8.75 6.9 9.9 7.6 11.45 8.5 11.95 10.25 12.35 12.0 11.5 12.95 10.7 13.9 9.65 13.7 8.55 13.5 7.55 12.6 6.55 13.5 5.5 13.7"/></g><g id="c4"><g><use transform="matrix(1.0,0.0,0.0,1.0,0.0,0.0)" xlink:href="#c3"/></g></g><radialGradient gradientUnits="userSpaceOnUse" r="819.2" cx="0" cy="0" spreadMethod="pad" gradientTransform="matrix(0.0914459228516,0.0,0.0,0.0914459228516,0.6,3.4)" id="gradient1"><stop offset="0.0" stop-color="#ffffff"/><stop offset="1.0" stop-color="#ffffff" stop-opacity="0.0"/></radialGradient><g id="c5"><path stroke="none" fill="url(#gradient1)" d="M36.65 -54.65 Q60.05 -42.0 69.75 -17.95 80.55 8.9 68.0 34.1 55.45 59.35 26.8 68.2 -1.8 77.05 -29.7 64.3 -57.6 51.6 -68.45 24.75 -79.3 -2.05 -66.75 -27.25 L-66.7 -27.3 Q-54.1 -52.5 -25.5 -61.4 3.1 -70.2 31.0 -57.5 L36.65 -54.65"/></g><g id="c6"><g><use transform="matrix(1.0,0.0,0.0,1.0,0.0,0.0)" xlink:href="#c5"/></g></g><radialGradient gradientUnits="userSpaceOnUse" r="819.2" cx="0" cy="0" spreadMethod="pad" gradientTransform="matrix(0.209197998047,0.0,0.0,0.177108764648,67.15,107.2)" id="gradient2"><stop offset="0.356862745098" stop-color="#ffffff"/><stop offset="0.670588235294" stop-opacity="0.0"/></radialGradient><g id="c7"><path fill="none" stroke-linejoin="round" stroke-linecap="round" stroke="url(#gradient2)" stroke-width="0.5" d="M136.55 165.8 L68.6 106.0 68.4 106.0 118.25 201.5 M68.3 105.8 L68.35 105.8 68.3 105.8 68.3 105.85 68.4 106.0 68.3 106.0 86.55 211.5 M68.3 105.8 L68.3 105.85 68.3 106.0 68.15 105.95 18.25 151.55 M68.3 105.85 L68.25 105.85 68.3 106.0 50.0 193.2 M68.25 105.85 L68.15 105.95 0.05 97.7 M68.3 105.85 L68.25 105.8 68.25 105.85 M68.25 105.8 L68.2 105.7 0.0 45.7 M68.3 105.8 L68.25 105.75 68.25 105.8 M68.25 105.75 L68.2 105.7 18.25 10.05 M68.6 106.0 L68.35 105.8 118.25 60.15 M86.6 18.35 L68.3 105.8 M136.6 114.25 L68.6 106.0 M68.25 105.75 L49.95 0.05"/></g><g id="c8"><g><use transform="matrix(1.0,0.0,0.0,1.0,0.0,0.0)" xlink:href="#c7"/></g></g><g id="c9"><g><use transform="matrix(1.0,0.0,0.0,1.0,0.0,0.0)" xlink:href="#c2"/></g><g><use transform="matrix(0.238861083984,-0.0867004394531,0.10026550293,0.233917236328,34.25,31.15)" xlink:href="#c4"/></g><g><use transform="matrix(0.238861083984,-0.0867004394531,0.10026550293,0.233917236328,4.25,10.3)" xlink:href="#c4"/></g><g><use transform="matrix(0.141098022461,-0.0378112792969,0.111373901367,0.225646972656,20.25,20.65)" filter="url(#filter7)" xlink:href="#c6"/></g><g><use transform="matrix(-0.155029296875,0.0513153076172,0.0841827392578,0.147033691406,22.6,3.15)" filter="url(#filter8)" xlink:href="#c8"/></g></g><filter id="filter7"><feColorMatrix in="SourceGraphic" type="matrix" values="0.0 0.0 0.0 0.0 0.796875 0.0 0.0 0.0 0.0 0.59765625 0.0 0.0 0.0 0.0 0.19921875 0.0 0.0 0.0 1.0 0.0" result="cxform"/><feComposite operator="in" in2="SourceGraphic" result="color-xform"/></filter><filter id="filter8"><feColorMatrix in="SourceGraphic" type="matrix" values="0.0 0.0 0.0 0.0 0.99609375 0.0 0.0 0.0 0.0 0.99609375 0.0 0.0 0.0 0.0 0.99609375 0.0 0.0 0.0 1.0 0.0" result="cxform"/><feComposite operator="in" in2="SourceGraphic" result="color-xform"/></filter><linearGradient gradientUnits="userSpaceOnUse" x1="-819.2" x2="819.2" spreadMethod="pad" gradientTransform="matrix(-0.0125122070312,0.0106201171875,-0.0176391601562,-0.0123901367188,4.0,-13.55)" id="gradient3"><stop offset="0.0" stop-color="#e7ddbe"/><stop offset="0.988235294118" stop-color="#d2bc8a"/></linearGradient><linearGradient gradientUnits="userSpaceOnUse" x1="-819.2" x2="819.2" spreadMethod="pad" gradientTransform="matrix(-0.00201416015625,-0.00352478027344,0.00787353515625,-0.0045166015625,17.3,-1.1)" id="gradient4"><stop offset="0.0" stop-color="#552b80"/><stop offset="0.988235294118" stop-color="#261339"/></linearGradient><linearGradient gradientUnits="userSpaceOnUse" x1="-819.2" x2="819.2" spreadMethod="pad" gradientTransform="matrix(-0.00259399414062,0.00979614257812,-0.0178680419922,-0.00473022460938,-12.2,1.55)" id="gradient5"><stop offset="0.0" stop-color="#9662ca"/><stop offset="0.988235294118" stop-color="#a67ccf"/></linearGradient><linearGradient gradientUnits="userSpaceOnUse" x1="-819.2" x2="819.2" spreadMethod="pad" gradientTransform="matrix(0.0,-0.0030517578125,0.00424194335938,0.0,-21.1,-5.15)" id="gradient6"><stop offset="0.0" stop-color="#4a2570"/><stop offset="0.988235294118" stop-color="#261339"/></linearGradient><linearGradient gradientUnits="userSpaceOnUse" x1="-819.2" x2="819.2" spreadMethod="pad" gradientTransform="matrix(-0.0020751953125,-0.00770568847656,0.00634765625,-0.001708984375,-19.65,0.75)" id="gradient7"><stop offset="0.0" stop-color="#663399"/><stop offset="0.988235294118" stop-color="#4a2570"/></linearGradient><linearGradient gradientUnits="userSpaceOnUse" x1="-819.2" x2="819.2" spreadMethod="pad" gradientTransform="matrix(0.00662231445312,0.00379943847656,-0.0035400390625,0.00617980957031,-8.05,19.65)" id="gradient8"><stop offset="0.0" stop-color="#afbc76"/><stop offset="0.988235294118" stop-color="#9fae59"/></linearGradient><linearGradient gradientUnits="userSpaceOnUse" x1="-819.2" x2="819.2" spreadMethod="pad" gradientTransform="matrix(-0.00639343261719,-0.00466918945312,0.00123596191406,-0.001708984375,-14.8,23.35)" id="gradient9"><stop offset="0.0" stop-color="#ccd995"/><stop offset="0.988235294118" stop-color="#e7ecce"/></linearGradient><linearGradient gradientUnits="userSpaceOnUse" x1="-819.2" x2="819.2" spreadMethod="pad" gradientTransform="matrix(0.00595092773438,0.0,0.0,0.00442504882812,8.45,22.8)" id="gradient10"><stop offset="0.0" stop-color="#663399"/><stop offset="0.988235294118" stop-color="#4a2570"/></linearGradient><linearGradient gradientUnits="userSpaceOnUse" x1="-819.2" x2="819.2" spreadMethod="pad" gradientTransform="matrix(-0.0045166015625,0.010498046875,-0.0100250244141,-0.00431823730469,9.55,16.75)" id="gradient11"><stop offset="0.0" stop-color="#9662ca"/><stop offset="0.988235294118" stop-color="#a67ccf"/></linearGradient><linearGradient gradientUnits="userSpaceOnUse" x1="-819.2" x2="819.2" spreadMethod="pad" gradientTransform="matrix(0.001220703125,0.00454711914062,-0.00666809082031,0.00178527832031,22.3,8.15)" id="gradient12"><stop offset="0.0" stop-color="#663399"/><stop offset="0.988235294118" stop-color="#4a2570"/></linearGradient><linearGradient gradientUnits="userSpaceOnUse" x1="-819.2" x2="819.2" spreadMethod="pad" gradientTransform="matrix(-0.00135803222656,0.00517272949219,-0.00448608398438,-0.00119018554688,21.0,16.9)" id="gradient13"><stop offset="0.0" stop-color="#4a2570"/><stop offset="0.988235294118" stop-color="#261339"/></linearGradient><linearGradient gradientUnits="userSpaceOnUse" x1="-819.2" x2="819.2" spreadMethod="pad" gradientTransform="matrix(-0.00105285644531,-0.00392150878906,0.00509643554688,-0.00137329101562,10.35,2.3)" id="gradient14"><stop offset="0.0" stop-color="#8345c0"/><stop offset="0.988235294118" stop-color="#261339"/></linearGradient><g id="c10"><path fill="#af9441" stroke="none" d="M25.9 -14.55 Q26.75 -9.75 23.7 -5.65 L23.5 -5.35 Q21.7 -3.05 19.1 -1.6 L18.5 -1.3 Q16.05 -0.15 12.95 0.25 L12.5 0.3 9.5 0.5 9.25 0.5 5.9 0.2 4.35 -0.2 4.1 0.25 4.15 -2.6 4.15 -2.65 5.7 -2.25 7.3 -2.05 9.1 -1.95 10.65 -1.95 12.75 -2.2 Q15.85 -2.6 18.3 -3.75 L18.9 -4.1 Q20.95 -5.2 22.5 -6.9 L23.5 -8.1 Q25.75 -11.15 25.9 -14.55 M-10.1 -16.05 L-9.6 -14.2 -9.2 -13.2 -7.85 -10.65 -7.35 -9.9 -8.2 -9.0 -9.1 -10.85 -9.45 -11.75 -9.85 -13.3 Q-10.2 -14.7 -10.15 -16.0 L-10.1 -16.05 M-14.55 -2.25 L-13.05 0.1 -12.9 2.55 -14.4 0.2 -14.55 -2.25 M-11.5 -1.95 L-9.25 0.7 -10.15 1.9 -11.35 0.45 -11.5 -1.95 M-11.1 3.15 L-7.25 4.5 -7.05 6.95 -10.9 5.6 -11.1 3.15 M-5.7 2.5 L-2.55 3.55 -3.9 5.45 -3.95 5.5 -5.5 4.9 -5.7 2.5 M-2.35 6.0 L-0.6 6.6 -0.45 8.35 -2.0 8.5 -3.75 7.9 -3.7 7.85 -3.9 5.5 -2.35 6.0 M-2.3 -17.35 Q-3.45 -18.05 -3.8 -19.25 L-3.95 -20.05 Q-4.0 -21.2 -3.2 -22.35 L-3.1 -22.45 Q-1.95 -24.1 0.25 -24.8 L0.7 -24.9 4.4 -24.75 Q6.0 -24.2 6.6 -22.95 L5.75 -23.35 2.0 -23.45 1.6 -23.4 Q0.25 -22.95 -0.7 -22.15 L-1.75 -21.0 Q-2.65 -19.85 -2.65 -18.65 L-2.45 -17.8 -2.3 -17.35 M18.45 -15.45 L17.85 -15.7 14.05 -15.9 13.95 -15.85 13.4 -15.7 Q11.0 -14.95 9.75 -13.25 8.5 -11.55 8.95 -9.85 L9.0 -9.75 9.35 -8.95 9.3 -8.9 8.5 -9.4 7.75 -10.35 7.35 -11.15 Q6.85 -12.9 8.15 -14.65 9.4 -16.35 11.75 -17.1 L12.15 -17.2 12.35 -17.25 16.25 -17.1 Q17.75 -16.55 18.45 -15.45 M-0.6 -7.75 L-0.8 -7.95 -5.25 -4.05 -6.2 -4.75 -1.0 -9.35 -0.9 -9.4 -0.2 -8.8 -0.6 -7.75"/><path stroke="none" fill="url(#gradient3)" d="M-10.0 -21.1 Q-9.5 -23.0 -8.35 -24.75 L-7.95 -25.2 Q-5.35 -28.7 -0.95 -30.2 L2.85 -31.15 5.8 -31.35 Q11.4 -31.4 16.65 -28.6 21.6 -25.95 24.0 -21.8 L25.2 -19.1 Q25.95 -16.75 25.9 -14.55 25.75 -11.15 23.5 -8.1 L22.5 -6.9 Q20.95 -5.2 18.9 -4.1 L18.3 -3.75 Q15.85 -2.6 12.75 -2.2 L10.65 -1.95 9.1 -1.95 7.3 -2.05 5.7 -2.25 4.15 -2.65 4.15 -2.6 -0.6 6.6 -2.35 6.0 -3.9 5.45 -2.55 3.55 -5.7 2.5 -5.75 2.45 -7.25 4.5 -11.1 3.15 -10.15 1.9 -9.25 0.7 -11.5 -1.95 -11.5 -2.0 -11.55 -1.95 -13.05 0.1 -14.55 -2.25 -14.6 -2.25 -8.2 -9.0 -7.35 -9.9 -7.85 -10.65 -9.2 -13.2 -9.6 -14.2 -10.1 -16.05 -10.15 -16.3 -10.3 -18.45 Q-10.35 -19.8 -10.0 -21.1 M6.6 -22.95 Q6.0 -24.2 4.4 -24.75 L0.7 -24.9 0.25 -24.8 Q-1.95 -24.1 -3.1 -22.45 L-3.2 -22.35 Q-4.0 -21.2 -3.95 -20.05 L-3.8 -19.25 Q-3.45 -18.05 -2.3 -17.35 L-1.4 -16.95 -0.25 -16.7 2.7 -16.95 3.55 -17.25 Q5.1 -17.9 6.05 -19.15 L6.6 -20.1 Q7.1 -21.3 6.75 -22.5 L6.6 -22.95 M18.45 -15.45 Q17.75 -16.55 16.25 -17.1 L12.35 -17.25 12.15 -17.2 11.75 -17.1 Q9.4 -16.35 8.15 -14.65 6.85 -12.9 7.35 -11.15 L7.75 -10.35 8.5 -9.4 9.3 -8.9 9.4 -8.85 9.95 -8.6 10.6 -8.4 14.4 -8.7 Q15.5 -9.0 16.4 -9.55 L18.05 -11.1 18.55 -11.9 Q19.2 -13.25 18.8 -14.6 L18.45 -15.45 M-0.6 -7.75 L-0.2 -8.8 -0.9 -9.4 -1.0 -9.35 -6.2 -4.75 -5.25 -4.05 -2.75 -2.2 -0.6 -7.75"/><path fill="#000000" stroke="none" d="M-2.3 -17.35 L-2.45 -17.8 -2.65 -18.65 Q-2.65 -19.85 -1.75 -21.0 L-0.7 -22.15 Q0.25 -22.95 1.6 -23.4 L2.0 -23.45 5.75 -23.35 6.6 -22.95 6.75 -22.5 Q7.1 -21.3 6.6 -20.1 L6.05 -19.15 Q5.1 -17.9 3.55 -17.25 L2.7 -16.95 -0.25 -16.7 -1.4 -16.95 -2.3 -17.35 M9.3 -8.9 L9.35 -8.95 9.0 -9.75 8.95 -9.85 Q8.5 -11.55 9.75 -13.25 11.0 -14.95 13.4 -15.7 L13.95 -15.85 14.05 -15.9 17.85 -15.7 18.45 -15.45 18.8 -14.6 Q19.2 -13.25 18.55 -11.9 L18.05 -11.1 16.4 -9.55 Q15.5 -9.0 14.4 -8.7 L10.6 -8.4 9.95 -8.6 9.4 -8.85 9.3 -8.9 M-5.25 -4.05 L-0.8 -7.95 -0.6 -7.75 -2.75 -2.2 -5.25 -4.05"/><path stroke="none" fill="url(#gradient4)" d="M23.5 -5.35 L25.3 -1.8 Q21.2 4.7 15.7 5.45 14.45 2.85 12.5 0.3 L12.95 0.25 Q16.05 -0.15 18.5 -1.3 L19.1 -1.6 Q21.7 -3.05 23.5 -5.35"/><path stroke="none" fill="url(#gradient5)" d="M-25.15 9.55 Q-27.05 5.15 -27.05 0.7 -27.05 -4.6 -24.35 -8.05 L-22.25 -10.15 -20.4 -11.4 Q-19.1 -12.15 -17.7 -12.6 L-17.5 -12.7 Q-14.0 -13.8 -9.85 -13.3 L-9.45 -11.75 -9.1 -10.85 Q-13.1 -11.45 -16.4 -10.35 L-17.5 -9.95 -18.2 -9.6 -18.8 -9.3 -20.4 -8.2 -22.2 -6.4 Q-24.55 -3.4 -24.55 1.2 L-24.45 2.8 Q-23.95 7.55 -20.55 13.05 L-22.6 14.55 -25.15 9.55"/><path fill="#663399" stroke="none" d="M0.05 29.45 L-2.2 31.25 Q-1.4 30.55 -2.35 28.95 L0.05 29.45 M-22.25 -10.15 L-14.9 -17.75 -14.75 -17.9 -14.6 -18.1 -11.6 -20.3 -10.0 -21.1 Q-10.35 -19.8 -10.3 -18.45 L-10.15 -16.3 -10.1 -16.05 -10.15 -16.0 Q-10.2 -14.7 -9.85 -13.3 -14.0 -13.8 -17.5 -12.7 L-17.7 -12.6 Q-19.1 -12.15 -20.4 -11.4 L-22.25 -10.15 M-10.15 -16.3 L-10.15 -16.0 -10.15 -16.3 M-0.75 19.25 L-0.65 19.3 -0.85 19.4 -0.75 19.25 M-15.3 8.5 L-15.2 8.7 -15.9 9.3 -16.05 9.15 -15.3 8.5 M-3.9 25.15 L-3.75 25.2 -4.0 25.45 -3.9 25.15"/><path stroke="none" fill="url(#gradient6)" d="M-24.45 2.8 L-24.55 1.2 Q-24.55 -3.4 -22.2 -6.4 L-20.4 -8.2 -18.8 -9.3 -18.2 -9.6 -18.25 -8.2 Q-18.25 -5.85 -17.6 -3.45 -21.35 -3.9 -24.45 2.8"/><path stroke="none" fill="url(#gradient7)" d="M-17.6 -3.45 L-17.5 -3.05 Q-16.2 1.45 -12.65 6.15 L-13.7 7.1 -14.9 5.45 -16.2 5.3 Q-17.15 5.35 -16.5 6.2 L-15.3 8.5 -16.05 9.15 -17.5 10.4 -18.8 8.6 -20.1 8.45 Q-21.0 8.5 -20.4 9.35 L-19.1 11.85 -19.8 12.45 -20.55 13.05 Q-23.95 7.55 -24.45 2.8 -21.35 -3.9 -17.6 -3.45"/><path fill="#967e38" stroke="none" d="M-13.05 0.1 L-11.55 -1.95 -11.5 -1.95 -11.35 0.45 -12.9 2.55 -13.05 0.1 M-7.25 4.5 L-5.75 2.45 -5.7 2.5 -5.5 4.9 -5.55 4.9 -7.05 6.95 -7.25 4.5 M-0.6 6.6 L4.15 -2.6 4.1 0.25 -0.05 8.35 -0.45 8.35 -0.6 6.6 M-13.7 7.1 L-13.6 7.25 -13.6 9.1 -13.6 9.95 -14.8 10.95 -14.9 10.8 -14.4 8.4 Q-14.85 6.5 -16.2 5.3 L-14.9 5.45 -13.7 7.1 M-0.65 19.3 L1.3 18.15 2.95 19.25 3.1 19.5 4.0 21.25 Q2.65 19.8 0.4 20.0 L-1.2 21.55 -0.4 22.1 0.65 24.1 0.4 24.1 Q-0.8 22.4 -3.2 22.9 L-5.25 24.8 -5.4 24.75 -5.4 23.3 -4.2 22.25 -2.05 21.0 -2.05 20.45 -0.85 19.4 -0.65 19.3 M-20.1 8.45 L-18.8 8.6 -17.5 10.4 -17.5 11.75 -17.5 13.1 -18.7 14.1 -18.8 13.95 -18.2 11.75 Q-18.65 9.6 -20.1 8.45 M-1.2 21.55 L-2.05 21.0 -1.2 21.55"/><path fill="#74622c" stroke="none" d="M-15.3 8.5 L-16.5 6.2 Q-17.15 5.35 -16.2 5.3 -14.85 6.5 -14.4 8.4 L-14.9 10.8 -15.4 10.05 -15.9 9.3 -15.2 8.7 -15.3 8.5 M-20.1 8.45 Q-18.65 9.6 -18.2 11.75 L-18.8 13.95 -19.25 13.25 -19.8 12.45 -19.1 11.85 -20.4 9.35 Q-21.0 8.5 -20.1 8.45 M-1.2 21.55 L0.4 20.0 Q2.65 19.8 4.0 21.25 L0.7 21.25 -0.4 22.1 -1.2 21.55 M-3.75 25.2 L-3.9 25.15 -4.55 25.0 -5.25 24.8 -3.2 22.9 Q-0.8 22.4 0.4 24.1 L-2.65 24.1 -3.75 25.2"/><path fill="#7c8943" stroke="none" d="M-16.05 9.15 L-15.9 9.3 -15.4 10.05 -17.5 11.75 -17.5 10.4 -16.05 9.15 M-19.8 12.45 L-19.25 13.25 -21.85 15.35 -22.6 14.55 -20.55 13.05 -19.8 12.45 M-4.55 25.0 L-3.9 25.15 -4.0 25.45 -4.0 25.5 -4.15 28.45 -6.75 27.1 -4.55 25.0"/><path fill="#9fae59" stroke="none" d="M-2.2 31.25 L-2.35 31.35 -5.35 30.4 -6.75 27.1 -8.55 26.05 -5.4 23.3 -5.4 24.75 -5.25 24.8 -4.55 25.0 -6.75 27.1 -4.15 28.45 -2.35 28.95 Q-1.4 30.55 -2.2 31.25 M-13.6 9.1 L-12.45 10.4 -12.7 11.7 Q-14.8 11.7 -15.7 14.15 -19.4 15.05 -19.4 17.85 L-21.85 15.35 -19.25 13.25 -18.8 13.95 -18.7 14.1 -17.5 13.1 -17.5 11.75 -15.4 10.05 -14.9 10.8 -14.8 10.95 -13.6 9.95 -13.6 9.1"/><path stroke="none" fill="url(#gradient8)" d="M-12.45 10.4 L-11.85 11.05 Q-7.2 15.9 -0.75 19.25 L-0.85 19.4 -2.05 20.45 -2.05 21.0 -4.2 22.25 -5.4 23.3 -8.55 26.05 Q-14.45 22.55 -19.35 17.9 L-19.4 17.85 Q-19.4 15.05 -15.7 14.15 -14.8 11.7 -12.7 11.7 L-12.45 10.4"/><path fill="#ccd995" stroke="none" d="M-19.4 17.85 L-19.35 17.9 -19.4 17.9 -19.4 17.85"/><path fill="#c2d282" stroke="none" d="M-5.35 30.4 L-7.4 29.6 -8.6 26.1 -8.55 26.05 -6.75 27.1 -5.35 30.4 M-21.9 18.6 Q-24.25 15.6 -26.1 12.0 -26.1 9.65 -25.15 9.55 L-22.6 14.55 -21.85 15.35 -19.4 17.85 -19.4 17.9 -21.9 18.6"/><path stroke="none" fill="url(#gradient9)" d="M-7.4 29.6 Q-16.15 25.9 -21.9 18.6 L-19.4 17.9 -19.35 17.9 Q-14.45 22.55 -8.55 26.05 L-8.6 26.1 -7.4 29.6"/><path stroke="none" fill="url(#gradient10)" d="M3.1 19.5 L3.6 19.2 4.4 19.45 Q9.1 21.0 13.1 20.85 L11.85 22.5 9.0 24.7 Q3.55 27.75 -4.0 25.5 L-4.0 25.45 -3.75 25.2 -2.65 24.1 0.4 24.1 0.65 24.1 -0.4 22.1 0.7 21.25 4.0 21.25 3.1 19.5"/><path stroke="none" fill="url(#gradient11)" d="M14.85 25.2 Q13.5 26.65 11.6 27.7 6.6 30.55 0.05 29.45 L-2.35 28.95 -4.15 28.45 -4.0 25.5 Q3.55 27.75 9.0 24.7 L11.85 22.5 13.1 20.85 14.3 18.0 Q14.75 16.25 14.75 14.2 L14.5 11.05 Q14.05 8.5 12.9 6.0 L15.7 5.45 Q17.1 8.25 17.75 11.05 L18.2 14.55 18.25 15.65 Q18.25 18.0 17.7 20.05 16.85 23.05 14.85 25.2"/><path stroke="none" fill="url(#gradient12)" d="M25.3 -1.8 Q26.4 0.9 26.8 3.65 L27.05 6.05 Q23.3 14.35 18.2 14.55 L17.75 11.05 Q17.1 8.25 15.7 5.45 21.2 4.7 25.3 -1.8"/><path stroke="none" fill="url(#gradient13)" d="M27.05 6.05 L27.05 6.75 26.8 9.65 26.5 11.05 Q25.95 13.05 24.9 14.7 L24.4 15.4 23.85 16.1 23.5 16.45 23.2 16.75 14.85 25.2 Q16.85 23.05 17.7 20.05 18.25 18.0 18.25 15.65 L18.2 14.55 Q23.3 14.35 27.05 6.05"/><path stroke="none" fill="url(#gradient14)" d="M12.9 6.0 Q11.6 3.2 9.5 0.5 L12.5 0.3 Q14.45 2.85 15.7 5.45 L12.9 6.0"/><path fill="none" stroke="#d2bc8a" stroke-width="1.0" stroke-opacity="0.4" d="M-10.1 -16.05 L-9.6 -14.2 -9.2 -13.2 -7.85 -10.65 -7.35 -9.9 M-14.55 -2.25 L-13.05 0.1 -11.55 -1.95 M-11.5 -1.95 L-9.25 0.7 M-11.1 3.15 L-7.25 4.5 -5.75 2.45 -5.7 2.5 -2.55 3.55 M-3.9 5.45 L-2.35 6.0 -0.6 6.6 4.15 -2.6 4.15 -2.65 5.7 -2.25 7.3 -2.05 9.1 -1.95 10.65 -1.95 12.75 -2.2 Q15.85 -2.6 18.3 -3.75 L18.9 -4.1 Q20.95 -5.2 22.5 -6.9 L23.5 -8.1 Q25.75 -11.15 25.9 -14.55 M6.6 -22.95 Q6.0 -24.2 4.4 -24.75 L0.7 -24.9 0.25 -24.8 Q-1.95 -24.1 -3.1 -22.45 L-3.2 -22.35 Q-4.0 -21.2 -3.95 -20.05 L-3.8 -19.25 Q-3.45 -18.05 -2.3 -17.35 M6.6 -22.95 L6.75 -22.5 Q7.1 -21.3 6.6 -20.1 L6.05 -19.15 Q5.1 -17.9 3.55 -17.25 L2.7 -16.95 -0.25 -16.7 -1.4 -16.95 -2.3 -17.35 M18.45 -15.45 Q17.75 -16.55 16.25 -17.1 L12.35 -17.25 12.15 -17.2 11.75 -17.1 Q9.4 -16.35 8.15 -14.65 6.85 -12.9 7.35 -11.15 L7.75 -10.35 8.5 -9.4 9.3 -8.9 9.4 -8.85 9.95 -8.6 10.6 -8.4 14.4 -8.7 Q15.5 -9.0 16.4 -9.55 L18.05 -11.1 18.55 -11.9 Q19.2 -13.25 18.8 -14.6 L18.45 -15.45 M-0.6 -7.75 L-0.2 -8.8 -0.9 -9.4 -1.0 -9.35 -6.2 -4.75 -5.25 -4.05"/><path fill="none" stroke="#000000" stroke-width="0.5" stroke-opacity="0.4" d="M-10.0 -21.1 Q-9.5 -23.0 -8.35 -24.75 L-7.95 -25.2 Q-5.35 -28.7 -0.95 -30.2 L2.85 -31.15 5.8 -31.35 Q11.4 -31.4 16.65 -28.6 21.6 -25.95 24.0 -21.8 L25.2 -19.1 Q25.95 -16.75 25.9 -14.55 M24.9 14.7 L24.4 15.4 23.85 16.1 23.5 16.45 23.2 16.75 14.85 25.2 Q13.5 26.65 11.6 27.7 6.6 30.55 0.05 29.45 L-2.2 31.25 -2.35 31.35 -5.35 30.4 -7.4 29.6 Q-16.15 25.9 -21.9 18.6 -24.25 15.6 -26.1 12.0 -26.1 9.65 -25.15 9.55 -27.05 5.15 -27.05 0.7 -27.05 -4.6 -24.35 -8.05 L-22.25 -10.15 -14.9 -17.75 -14.75 -17.9 -14.6 -18.1 M-10.0 -21.1 Q-10.35 -19.8 -10.3 -18.45 L-10.15 -16.3 -10.1 -16.05 M-7.35 -9.9 L-8.2 -9.0 -14.6 -2.25 -14.55 -2.25 M-9.25 0.7 L-10.15 1.9 -11.1 3.15 M-2.55 3.55 L-3.9 5.45 -3.9 5.5 M-18.2 -9.6 L-17.5 -9.95 -16.4 -10.35 Q-13.1 -11.45 -9.1 -10.85 M-12.65 6.15 L-13.7 7.1 M-13.6 9.1 L-12.45 10.4 -11.85 11.05 Q-7.2 15.9 -0.75 19.25 L-0.65 19.3 1.3 18.15 2.95 19.25 3.1 19.5 3.6 19.2 M13.1 20.85 L14.3 18.0 Q14.75 16.25 14.75 14.2 L14.5 11.05 Q14.05 8.5 12.9 6.0 11.6 3.2 9.5 0.5 M-0.45 8.35 L-2.0 8.5 M-3.7 7.85 L-3.9 5.5 M-10.9 5.6 L-11.1 3.15 M-14.4 0.2 L-14.55 -2.25 M-15.3 8.5 L-16.05 9.15 M-20.1 8.45 L-18.8 8.6 -17.5 10.4 -16.05 9.15 M-17.5 10.4 L-17.5 11.75 M-18.8 13.95 L-18.7 14.1 -17.5 13.1 -17.5 11.75 M-5.4 23.3 L-4.2 22.25 -2.05 21.0 -2.05 20.45 -0.85 19.4 M-19.8 12.45 L-20.55 13.05 -22.6 14.55 M-2.05 21.0 L-1.2 21.55 -0.4 22.1 0.7 21.25 4.0 21.25 3.1 19.5 M-0.65 19.3 L-0.85 19.4 M-19.8 12.45 L-19.1 11.85 -20.4 9.35 Q-21.0 8.5 -20.1 8.45 M-25.15 9.55 L-22.6 14.55 M-3.9 25.15 L-3.75 25.2 -2.65 24.1 0.4 24.1 M-4.0 25.45 L-3.75 25.2 M-4.15 28.45 L-2.35 28.95 0.05 29.45 M-4.0 25.5 L-4.15 28.45 M-4.0 25.45 L-4.0 25.5 M-5.25 24.8 L-5.4 24.75 -5.4 23.3 M-2.2 31.25 Q-1.4 30.55 -2.35 28.95 M-0.4 22.1 L0.65 24.1 0.4 24.1"/><path fill="none" stroke="#000000" stroke-width="0.5" stroke-opacity="0.4" d="M25.9 -14.55 Q26.75 -9.75 23.7 -5.65 L23.5 -5.35 25.3 -1.8 Q26.4 0.9 26.8 3.65 L27.05 6.05 27.05 6.75 26.8 9.65 26.5 11.05 Q25.95 13.05 24.9 14.7 M-14.6 -18.1 L-11.6 -20.3 -10.0 -21.1 M12.5 0.3 L12.95 0.25 Q16.05 -0.15 18.5 -1.3 L19.1 -1.6 Q21.7 -3.05 23.5 -5.35 M-9.1 -10.85 L-9.45 -11.75 -9.85 -13.3 Q-10.2 -14.7 -10.15 -16.0 L-10.15 -16.3 M-18.2 -9.6 L-18.25 -8.2 Q-18.25 -5.85 -17.6 -3.45 L-17.5 -3.05 Q-16.2 1.45 -12.65 6.15 M-13.7 7.1 L-13.6 7.25 -13.6 9.1 -13.6 9.95 -14.8 10.95 -14.9 10.8 M3.6 19.2 L4.4 19.45 Q9.1 21.0 13.1 20.85 M9.5 0.5 L9.25 0.5 5.9 0.2 4.35 -0.2 4.1 0.25 -0.05 8.35 M-2.0 8.5 L-3.75 7.9 -3.7 7.85 M-3.9 5.5 L-3.95 5.5 -5.5 4.9 -5.55 4.9 -7.05 6.95 -10.9 5.6 M-11.35 0.45 L-10.15 1.9 M-8.2 -9.0 L-9.1 -10.85 M-11.35 0.45 L-12.9 2.55 -14.4 0.2 M-15.3 8.5 L-16.5 6.2 Q-17.15 5.35 -16.2 5.3 L-14.9 5.45 -13.7 7.1 M-15.2 8.7 L-15.3 8.5 M9.5 0.5 L12.5 0.3"/><path fill="none" stroke="#663399" stroke-width="1.0" stroke-opacity="0.4" d="M-9.85 -13.3 Q-14.0 -13.8 -17.5 -12.7 L-17.7 -12.6 Q-19.1 -12.15 -20.4 -11.4 L-22.25 -10.15 M-24.45 2.8 L-24.55 1.2 Q-24.55 -3.4 -22.2 -6.4 L-20.4 -8.2 -18.8 -9.3 -18.2 -9.6 M-20.55 13.05 Q-23.95 7.55 -24.45 2.8 M15.7 5.45 Q17.1 8.25 17.75 11.05 L18.2 14.55 18.25 15.65 Q18.25 18.0 17.7 20.05 16.85 23.05 14.85 25.2 M12.5 0.3 Q14.45 2.85 15.7 5.45"/><path fill="none" stroke="#e2e9c5" stroke-width="1.0" stroke-opacity="0.4" d="M-19.35 17.9 Q-14.45 22.55 -8.55 26.05 L-6.75 27.1 M-22.6 14.55 L-21.85 15.35 -19.4 17.85 M-4.15 28.45 L-6.75 27.1"/><path fill="none" stroke="#000000" stroke-width="1.0" stroke-opacity="0.4" d="M-10.0 -21.1 Q-9.5 -23.0 -8.35 -24.75 L-7.95 -25.2 Q-5.35 -28.7 -0.95 -30.2 L2.85 -31.15 5.8 -31.35 Q11.4 -31.4 16.65 -28.6 21.6 -25.95 24.0 -21.8 L25.2 -19.1 Q25.95 -16.75 25.9 -14.55 26.75 -9.75 23.7 -5.65 L23.5 -5.35 25.3 -1.8 Q26.4 0.9 26.8 3.65 L27.05 6.05 27.05 6.75 26.8 9.65 26.5 11.05 Q25.95 13.05 24.9 14.7 L24.4 15.4 23.85 16.1 23.5 16.45 23.2 16.75 14.85 25.2 Q13.5 26.65 11.6 27.7 6.6 30.55 0.05 29.45 L-2.35 31.35 -5.35 30.4 -7.4 29.6 Q-16.15 25.9 -21.9 18.6 -24.25 15.6 -26.1 12.0 -26.1 9.65 -25.15 9.55 -27.05 5.15 -27.05 0.7 -27.05 -4.6 -24.35 -8.05 L-22.25 -10.15 -14.9 -17.75 -14.75 -17.9 -14.6 -18.1 -11.6 -20.3 -10.0 -21.1 Q-10.75 -15.65 -9.15 -10.85 L-9.1 -10.85 -8.2 -9.0 -14.6 -2.25 -14.55 -2.25 -14.4 0.2 -12.9 2.55 -11.35 0.45 -10.15 1.9 -11.1 3.15 -10.9 5.6 -7.05 6.95 -5.55 4.9 -5.5 4.9 -3.95 5.5 -3.7 7.85 -3.75 7.9 -2.0 8.5 -0.05 8.35 4.35 -0.2 5.9 0.2 9.25 0.5 9.5 0.5 Q11.6 3.2 12.9 6.0 14.05 8.5 14.5 11.05 L14.75 14.2 Q14.75 16.25 14.3 18.0 L13.1 20.85 Q9.1 21.0 4.4 19.45 L3.6 19.2 3.1 19.5 2.95 19.25 1.3 18.15 -0.65 19.3 -0.75 19.25 Q-7.2 15.9 -11.85 11.05 L-12.45 10.4 -13.6 9.1 -13.6 7.25 -13.7 7.1 -12.65 6.15 Q-16.2 1.45 -17.5 -3.05 L-17.6 -3.45 Q-18.25 -5.85 -18.25 -8.2 L-18.2 -9.6 -17.5 -9.95 -16.4 -10.35 Q-13.15 -11.45 -9.15 -10.85"/></g><g id="c11"><g><use transform="matrix(1.9599609375,0.0,0.0,1.9599609375,58.25,66.8)" xlink:href="#c10"/></g></g><g id="c12"><g><use transform="matrix(1.0,0.0,0.0,1.0,6.3,53.35)" xlink:href="#c9"/></g><g><use transform="matrix(-0.146041870117,0.0488891601562,0.0616760253906,0.140441894531,33.05,63.95)" xlink:href="#c11"/></g><g><use transform="matrix(0.141098022461,-0.0378112792969,0.111373901367,0.225646972656,27.2,74.05)" filter="url(#filter12)" xlink:href="#c6"/></g></g><filter id="filter12"><feColorMatrix in="SourceGraphic" type="matrix" values="1.0 0.0 0.0 0.0 0.0 0.0 1.0 0.0 0.0 0.0 0.0 0.0 1.0 0.0 0.0 0.0 0.0 0.0 0.23046875 0.0" result="cxform"/><feComposite operator="in" in2="SourceGraphic" result="color-xform"/></filter></defs><g><g><use transform="matrix(1.0,0.0,0.0,1.0,0.0,0.0)" xlink:href="#c1"/></g><g><use transform="matrix(1.15496826172,0.0,0.0,1.15496826172,-1.5,-57.15)" xlink:href="#c12"/></g></g></svg>