<?xml version='1.0' encoding='UTF-8'?>
<svg xmlns:xlink="http://www.w3.org/1999/xlink" xmlns="http://www.w3.org/2000/svg" version="1.1" width="60px" height="63px" viewBox="0.0 -2.32474112858 60.3090772832 62.6312863662"><defs><g id="c1"><path fill="#000000" fill-opacity="0.00392156862745" d="M0.0 0.0 L60.0 0.0 60.0 60.0 0.0 60.0 0.0 0.0"/></g><g id="c2"><path fill="#006699" stroke="none" d="M31.5 39.85 L19.8 43.65 Q17.15 44.45 15.5 43.3 14.35 42.55 13.65 40.9 L1.7 14.45 1.6 14.3 1.2 13.45 -0.75 9.05 Q-2.05 6.2 -0.3 4.75 0.3 4.25 1.2 3.9 L5.5 2.25 Q8.95 0.95 10.65 4.15 L22.3 0.4 Q26.55 -1.0 28.45 3.1 L40.55 29.95 40.9 30.7 42.95 35.15 Q43.95 37.35 43.15 38.7 42.5 39.7 40.95 40.25 L36.65 41.8 35.1 42.2 Q32.75 42.3 31.5 39.85"/><path fill="none" stroke="#000000" stroke-width="1.0" stroke-opacity="0.298039215686" d="M31.5 39.85 L19.8 43.65 Q17.15 44.45 15.5 43.3 14.35 42.55 13.65 40.9 L1.7 14.45 1.6 14.3 1.2 13.45 -0.75 9.05 Q-2.05 6.2 -0.3 4.75 0.3 4.25 1.2 3.9 L5.5 2.25 Q8.95 0.95 10.65 4.15 L22.3 0.4 Q26.55 -1.0 28.45 3.1 L40.55 29.95 40.9 30.7 42.95 35.15 Q43.95 37.35 43.15 38.7 42.5 39.7 40.95 40.25 L36.65 41.8 35.1 42.2 Q32.75 42.3 31.5 39.85"/><path fill="#5b3c00" stroke="none" d="M0.75 8.25 L29.8 9.75 25.55 0.9 Q26.9 1.6 27.8 3.55 L40.7 32.15 Q42.6 36.3 38.3 37.65 L23.3 42.5 13.15 21.4 4.6 20.9 0.7 12.25 Q-0.45 9.75 0.75 8.25 M20.1 43.55 L19.8 43.65 Q17.15 44.45 15.5 43.3 L20.1 43.55"/><path fill="#724b00" stroke="none" d="M25.55 0.9 L29.8 9.75 0.75 8.25 Q1.45 7.3 3.1 6.75 L21.65 0.8 25.55 0.9 M4.6 20.9 L13.15 21.4 23.3 42.5 20.1 43.55 15.5 43.3 Q14.35 42.55 13.65 40.9 L4.6 20.9"/><path fill="none" stroke="#000000" stroke-width="0.5" stroke-opacity="0.301960784314" d="M0.75 8.25 Q-0.45 9.75 0.7 12.25 L4.6 20.9 M23.3 42.5 L38.3 37.65 Q42.6 36.3 40.7 32.15 L27.8 3.55 Q26.9 1.6 25.55 0.9 L21.65 0.8 3.1 6.75 Q1.45 7.3 0.75 8.25 M20.1 43.55 L19.8 43.65 Q17.15 44.45 15.5 43.3 14.35 42.55 13.65 40.9 L4.6 20.9 M20.1 43.55 L23.3 42.5"/><path fill="#fed00b" stroke="none" d="M40.5 29.85 L40.55 29.95 40.9 30.7 42.95 35.15 Q43.95 37.35 43.15 38.7 42.5 39.45 41.2 39.9 L36.9 41.45 34.85 41.85 Q32.9 41.7 31.8 39.55 L31.75 39.5 31.4 39.65 30.3 40.0 31.4 39.65 31.4 39.7 20.4 43.2 Q16.1 44.55 14.2 40.5 L6.45 23.15 6.0 22.15 5.55 21.15 4.05 17.85 3.15 15.85 3.1 15.8 1.75 12.85 -0.2 8.45 Q-1.25 6.15 -0.3 4.75 0.3 4.25 1.2 3.9 L5.5 2.25 Q8.95 0.95 10.65 4.15 L22.3 0.4 Q26.55 -1.0 28.45 3.1 L40.5 29.85"/><path fill="#5b3c00" stroke="none" d="M43.15 38.7 Q42.5 39.7 40.95 40.25 L36.65 41.8 35.1 42.2 Q32.75 42.3 31.45 39.8 L31.4 39.7 31.4 39.65 31.75 39.5 31.8 39.55 Q32.9 41.7 34.85 41.85 L36.9 41.45 41.2 39.9 Q42.5 39.45 43.15 38.7 M3.1 15.8 Q2.25 15.35 1.6 14.3 L1.2 13.45 -0.75 9.05 Q-2.05 6.2 -0.3 4.75 -1.25 6.15 -0.2 8.45 L1.75 12.85 3.1 15.8"/><path fill="#9d147b" stroke="none" d="M31.4 39.65 L30.3 40.0 31.4 39.65"/><path fill="none" stroke="#003333" stroke-width="0.5" stroke-opacity="0.509803921569" d="M40.5 29.85 L40.55 29.95 40.9 30.7 42.95 35.15 Q43.95 37.35 43.15 38.7 42.5 39.7 40.95 40.25 L36.65 41.8 35.1 42.2 Q32.75 42.3 31.45 39.8 L31.4 39.7 M6.45 23.15 L6.0 22.15 M5.55 21.15 L4.05 17.85 3.1 15.8 1.75 12.85 -0.2 8.45 Q-1.25 6.15 -0.3 4.75 0.3 4.25 1.2 3.9 L5.5 2.25 Q8.95 0.95 10.65 4.15 M1.6 14.3 L1.2 13.45 -0.75 9.05 Q-2.05 6.2 -0.3 4.75 M31.4 39.65 L31.75 39.5 31.8 39.55 Q32.9 41.7 34.85 41.85 L36.9 41.45 41.2 39.9 Q42.5 39.45 43.15 38.7 M31.4 39.65 L30.3 40.0 31.4 39.65 31.4 39.7"/><path fill="none" stroke="#000000" stroke-width="0.5" stroke-opacity="0.301960784314" d="M31.4 39.7 L20.4 43.2 Q16.1 44.55 14.2 40.5 L6.45 23.15 M6.0 22.15 L5.55 21.15 M10.65 4.15 L22.3 0.4 Q26.55 -1.0 28.45 3.1 L40.5 29.85 M4.05 17.85 L3.15 15.85"/><path fill="#fcf2cf" stroke="none" d="M9.15 13.6 Q9.8 12.8 9.55 11.6 L9.1 10.55 22.05 6.35 Q24.9 5.45 26.25 7.85 L26.5 8.3 35.8 29.0 35.95 29.35 Q34.75 29.3 34.1 30.1 33.45 30.9 33.7 32.1 L34.0 32.9 20.65 37.2 Q18.8 37.8 17.65 37.0 16.8 36.4 16.3 35.2 L6.95 14.6 6.8 14.4 7.1 14.4 Q8.4 14.45 9.15 13.6"/><path fill="#9f6b00" stroke="none" d="M28.25 6.1 L35.55 22.3 39.35 30.75 Q41.1 34.5 37.2 35.7 L20.45 41.1 Q16.8 42.25 15.2 39.0 L15.0 38.6 8.25 23.65 3.35 12.8 Q1.65 9.1 5.5 7.85 L22.25 2.5 Q26.05 1.25 27.75 4.95 L28.25 6.1 M9.15 13.6 Q8.4 14.45 7.1 14.4 L6.8 14.4 6.95 14.6 16.3 35.2 Q16.8 36.4 17.65 37.0 18.8 37.8 20.65 37.2 L34.0 32.9 33.7 32.1 Q33.45 30.9 34.1 30.1 34.75 29.3 35.95 29.35 L35.8 29.0 26.5 8.3 26.25 7.85 Q24.9 5.45 22.05 6.35 L9.1 10.55 9.55 11.6 Q9.8 12.8 9.15 13.6"/><path fill="none" stroke="#f0b92b" stroke-width="0.5" d="M9.15 13.6 Q9.8 12.8 9.55 11.6 L9.1 10.55 22.05 6.35 Q24.9 5.45 26.25 7.85 L26.5 8.3 35.8 29.0 35.95 29.35 Q34.75 29.3 34.1 30.1 33.45 30.9 33.7 32.1 L34.0 32.9 20.65 37.2 Q18.8 37.8 17.65 37.0 16.8 36.4 16.3 35.2 L6.95 14.6 6.8 14.4 7.1 14.4 Q8.4 14.45 9.15 13.6"/><path fill="none" stroke="#feaa00" stroke-width="1.0" d="M28.25 6.1 L35.55 22.3 M15.0 38.6 L8.25 23.65"/><path fill="none" stroke="#fbeec5" stroke-width="1.0" d="M35.55 22.3 L39.35 30.75 Q41.1 34.5 37.2 35.7 L20.45 41.1 Q16.8 42.25 15.2 39.0 L15.0 38.6 M8.25 23.65 L3.35 12.8 Q1.65 9.1 5.5 7.85 L22.25 2.5 Q26.05 1.25 27.75 4.95 L28.25 6.1"/></g><g id="c3"><path fill="#7fdbfe" stroke="none" d="M10.75 4.9 Q10.75 4.6 10.9 4.35 11.25 3.45 11.95 2.75 13.3 1.5 14.35 2.1 15.4 2.7 14.95 4.45 14.7 5.4 14.1 6.15 L13.75 6.5 Q13.1 7.15 12.35 7.35 L11.4 7.2 Q10.95 6.9 10.75 6.4 10.5 5.75 10.75 4.9 M7.5 5.9 Q7.0 5.85 6.6 5.5 6.05 5.0 5.8 4.15 L5.7 3.6 Q5.55 2.65 5.8 1.7 6.25 0.0 7.5 0.0 L7.6 0.0 Q8.85 0.0 9.3 1.7 9.55 2.65 9.4 3.6 L9.3 4.15 8.5 5.5 7.6 5.9 7.5 5.9 M4.35 4.9 Q4.6 5.75 4.35 6.4 L3.7 7.2 2.75 7.35 Q2.0 7.15 1.35 6.5 L1.0 6.15 Q0.4 5.4 0.15 4.45 -0.3 2.7 0.75 2.1 1.8 1.5 3.15 2.75 3.85 3.45 4.2 4.35 L4.35 4.9 M5.5 13.7 Q4.45 13.9 3.65 12.95 2.75 12.0 3.2 10.25 3.7 8.5 5.25 7.6 6.4 6.9 7.55 7.0 8.75 6.9 9.9 7.6 11.45 8.5 11.95 10.25 12.35 12.0 11.5 12.95 10.7 13.9 9.65 13.7 8.55 13.5 7.55 12.6 6.55 13.5 5.5 13.7"/></g><g id="c4"><g><use transform="matrix(1.0,0.0,0.0,1.0,0.0,0.0)" xlink:href="#c3"/></g></g><radialGradient gradientUnits="userSpaceOnUse" r="819.2" cx="0" cy="0" spreadMethod="pad" gradientTransform="matrix(0.0914459228516,0.0,0.0,0.0914459228516,0.6,3.4)" id="gradient1"><stop offset="0.0" stop-color="#ffffff"/><stop offset="1.0" stop-color="#ffffff" stop-opacity="0.0"/></radialGradient><g id="c5"><path stroke="none" fill="url(#gradient1)" d="M36.65 -54.65 Q60.05 -42.0 69.75 -17.95 80.55 8.9 68.0 34.1 55.45 59.35 26.8 68.2 -1.8 77.05 -29.7 64.3 -57.6 51.6 -68.45 24.75 -79.3 -2.05 -66.75 -27.25 L-66.7 -27.3 Q-54.1 -52.5 -25.5 -61.4 3.1 -70.2 31.0 -57.5 L36.65 -54.65"/></g><g id="c6"><g><use transform="matrix(1.0,0.0,0.0,1.0,0.0,0.0)" xlink:href="#c5"/></g></g><radialGradient gradientUnits="userSpaceOnUse" r="819.2" cx="0" cy="0" spreadMethod="pad" gradientTransform="matrix(0.209197998047,0.0,0.0,0.177108764648,67.15,107.2)" id="gradient2"><stop offset="0.356862745098" stop-color="#ffffff"/><stop offset="0.670588235294" stop-opacity="0.0"/></radialGradient><g id="c7"><path fill="none" stroke-linejoin="round" stroke-linecap="round" stroke="url(#gradient2)" stroke-width="0.5" d="M136.55 165.8 L68.6 106.0 68.4 106.0 118.25 201.5 M68.3 105.8 L68.35 105.8 68.3 105.8 68.3 105.85 68.4 106.0 68.3 106.0 86.55 211.5 M68.3 105.8 L68.3 105.85 68.3 106.0 68.15 105.95 18.25 151.55 M68.3 105.85 L68.25 105.85 68.3 106.0 50.0 193.2 M68.25 105.85 L68.15 105.95 0.05 97.7 M68.3 105.85 L68.25 105.8 68.25 105.85 M68.25 105.8 L68.2 105.7 0.0 45.7 M68.3 105.8 L68.25 105.75 68.25 105.8 M68.25 105.75 L68.2 105.7 18.25 10.05 M68.6 106.0 L68.35 105.8 118.25 60.15 M86.6 18.35 L68.3 105.8 M136.6 114.25 L68.6 106.0 M68.25 105.75 L49.95 0.05"/></g><g id="c8"><g><use transform="matrix(1.0,0.0,0.0,1.0,0.0,0.0)" xlink:href="#c7"/></g></g><g id="c9"><g><use transform="matrix(1.0,0.0,0.0,1.0,0.0,0.0)" xlink:href="#c2"/></g><g><use transform="matrix(0.238861083984,-0.0867004394531,0.10026550293,0.233917236328,34.25,31.15)" xlink:href="#c4"/></g><g><use transform="matrix(0.238861083984,-0.0867004394531,0.10026550293,0.233917236328,4.25,10.3)" xlink:href="#c4"/></g><g><use transform="matrix(0.141098022461,-0.0378112792969,0.111373901367,0.225646972656,20.25,20.65)" filter="url(#filter7)" xlink:href="#c6"/></g><g><use transform="matrix(-0.155029296875,0.0513153076172,0.0841827392578,0.147033691406,22.6,3.15)" filter="url(#filter8)" xlink:href="#c8"/></g></g><filter id="filter7"><feColorMatrix in="SourceGraphic" type="matrix" values="0.0 0.0 0.0 0.0 0.796875 0.0 0.0 0.0 0.0 0.59765625 0.0 0.0 0.0 0.0 0.19921875 0.0 0.0 0.0 1.0 0.0" result="cxform"/><feComposite operator="in" in2="SourceGraphic" result="color-xform"/></filter><filter id="filter8"><feColorMatrix in="SourceGraphic" type="matrix" values="0.0 0.0 0.0 0.0 0.99609375 0.0 0.0 0.0 0.0 0.99609375 0.0 0.0 0.0 0.0 0.99609375 0.0 0.0 0.0 1.0 0.0" result="cxform"/><feComposite operator="in" in2="SourceGraphic" result="color-xform"/></filter><g id="c10"><path fill="#ffffff" stroke="none" d="M37.9 92.95 L26.2 96.75 Q23.55 97.55 21.9 96.4 20.75 95.65 20.05 94.0 L8.1 67.55 8.0 67.4 7.6 66.55 5.65 62.15 Q4.35 59.3 6.1 57.85 6.7 57.35 7.6 57.0 L11.9 55.35 Q15.35 54.05 17.05 57.25 L28.7 53.5 Q32.95 52.1 34.85 56.2 L46.95 83.05 47.3 83.8 49.35 88.25 Q50.35 90.45 49.55 91.8 48.9 92.8 47.35 93.35 L43.05 94.9 41.5 95.3 Q39.15 95.4 37.9 92.95"/></g><linearGradient gradientUnits="userSpaceOnUse" x1="-819.2" x2="819.2" spreadMethod="pad" gradientTransform="matrix(0.0255126953125,0.0,0.0,0.0268249511719,20.9,21.95)" id="gradient3"><stop offset="0.0" stop-color="#f90013"/><stop offset="0.160784313725" stop-color="#ff99ff"/><stop offset="0.462745098039" stop-color="#66ffff"/><stop offset="0.721568627451" stop-color="#ff9900"/><stop offset="1.0" stop-color="#33ff00"/></linearGradient><g id="c11"><path stroke="none" fill="url(#gradient3)" d="M0.6 8.2 Q1.05 7.55 2.0 7.1 2.65 6.65 3.65 6.3 L22.15 0.35 Q26.4 -1.05 28.3 3.05 L41.2 31.65 Q42.8 35.1 40.05 36.65 39.35 37.25 38.15 37.6 L19.65 43.6 Q17.0 44.4 15.35 43.25 14.2 42.5 13.5 40.85 L0.55 12.2 Q-0.6 9.7 0.6 8.2"/></g><g id="c12"><g><use transform="matrix(1.0,0.0,0.0,1.0,0.0,0.0)" xlink:href="#c11"/></g></g><g id="c13"><path fill="#fed945" stroke="none" d="M96.35 84.45 Q90.3 79.95 88.3 76.1 89.55 79.5 88.7 86.05 L88.4 87.85 Q87.5 89.7 88.45 92.4 88.5 92.75 88.7 93.0 89.3 94.7 90.6 95.6 L92.05 96.35 97.0 96.55 Q98.6 95.85 99.5 94.25 L100.1 93.15 Q101.15 90.75 100.15 88.3 L99.75 87.8 98.75 86.25 Q97.7 85.0 96.35 84.45"/><path fill="none" stroke="#534226" stroke-width="0.5" stroke-opacity="0.250980392157" d="M96.35 84.45 Q90.3 79.95 88.3 76.1 89.55 79.5 88.7 86.05 L88.4 87.85 Q87.5 89.7 88.45 92.4 88.5 92.75 88.7 93.0 89.3 94.7 90.6 95.6 L92.05 96.35 97.0 96.55 Q98.6 95.85 99.5 94.25 L100.1 93.15 Q101.15 90.75 100.15 88.3 L99.75 87.8 98.75 86.25 Q97.7 85.0 96.35 84.45"/><path fill="#ffff2f" stroke="none" d="M97.05 91.3 Q98.05 90.85 98.55 89.75 98.95 88.65 98.5 87.65 98.1 86.6 97.0 86.2 L94.85 86.15 Q93.8 86.6 93.4 87.75 93.0 88.8 93.4 89.85 93.85 90.85 94.95 91.3 96.0 91.75 97.05 91.3"/><path fill="#3d4d22" stroke="none" d="M17.95 118.1 Q17.9 117.35 18.15 116.6 L18.2 115.8 18.65 113.15 19.35 110.9 Q20.05 109.2 21.1 108.5 20.6 110.35 21.5 112.55 22.35 114.8 24.7 117.3 L24.9 117.45 26.6 119.1 Q30.3 122.45 35.7 124.65 L36.45 125.2 37.6 125.55 37.85 125.6 38.6 126.0 38.6 125.9 Q44.85 128.2 50.4 128.5 L51.1 128.4 54.65 128.2 Q57.1 128.05 58.85 127.4 L60.35 126.8 60.65 126.5 Q62.8 125.25 63.5 123.3 63.8 124.9 62.2 128.35 L60.45 131.55 Q59.7 133.65 57.75 134.85 L55.4 136.0 51.5 136.65 50.7 136.8 49.8 136.95 47.3 136.95 47.2 136.85 45.15 136.7 47.65 134.3 Q26.55 132.15 17.95 118.1"/><path fill="#e6c65e" stroke="none" d="M21.8 125.9 L21.6 125.75 21.8 125.75 21.8 125.9"/><path fill="#526e30" stroke="none" d="M45.15 136.7 L42.6 136.3 39.85 135.75 Q37.65 135.15 35.5 134.35 26.8 131.15 21.8 125.9 L21.8 125.75 21.6 125.75 21.3 125.4 Q17.75 121.5 17.95 118.1 26.55 132.15 47.65 134.3 L45.15 136.7"/><path fill="#405425" stroke="none" d="M37.85 125.6 L38.6 125.9 38.6 126.0 37.85 125.6"/><path fill="none" stroke="#382510" stroke-width="0.8" stroke-opacity="0.301960784314" d="M17.95 118.1 Q17.9 117.35 18.15 116.6 L18.2 115.8 18.65 113.15 19.35 110.9 Q20.05 109.2 21.1 108.5 20.6 110.35 21.5 112.55 22.35 114.8 24.7 117.3 L24.9 117.45 26.6 119.1 Q30.3 122.45 35.7 124.65 L36.45 125.2 37.6 125.55 37.85 125.6 38.6 125.9 Q44.85 128.2 50.4 128.5 L51.1 128.4 54.65 128.2 Q57.1 128.05 58.85 127.4 L60.35 126.8 60.65 126.5 Q62.8 125.25 63.5 123.3 63.8 124.9 62.2 128.35 L60.45 131.55 Q59.7 133.65 57.75 134.85 L55.4 136.0 51.5 136.65 50.7 136.8 M49.8 136.95 L47.3 136.95 47.2 136.85 45.15 136.7 42.6 136.3 39.85 135.75 Q37.65 135.15 35.5 134.35 26.8 131.15 21.8 125.9 L21.6 125.75 21.3 125.4 Q17.75 121.5 17.95 118.1"/></g><radialGradient gradientUnits="userSpaceOnUse" r="819.2" cx="0" cy="0" spreadMethod="pad" gradientTransform="matrix(0.0516357421875,0.0,0.0,0.0516357421875,8.0,13.7)" id="gradient4"><stop offset="0.0" stop-color="#e7db7e"/><stop offset="0.149019607843" stop-color="#afc00c"/><stop offset="0.572549019608" stop-color="#809311"/></radialGradient><g id="c14"><path stroke="none" fill="url(#gradient4)" d="M29.0 50.4 L22.85 51.0 22.15 51.0 Q15.25 51.0 10.15 48.9 L8.75 48.25 7.4 47.55 Q3.45 45.15 3.2 42.0 L3.15 41.65 Q-3.15 26.4 3.15 9.65 L3.15 9.4 3.2 9.1 Q3.45 5.45 9.0 0.1 10.9 -1.75 13.1 -2.95 7.45 2.45 13.6 5.7 19.7 8.9 31.5 4.9 33.05 6.75 24.9 11.8 20.95 14.2 18.0 14.5 L24.4 15.05 Q31.55 14.75 32.35 17.6 35.3 42.4 12.8 47.65 21.8 50.3 29.0 50.4"/><path fill="#809311" stroke="none" d="M35.85 0.25 Q39.15 3.55 39.95 5.15 40.85 6.95 41.1 8.8 L41.15 9.5 41.15 9.65 Q44.45 19.7 43.85 29.0 L43.7 30.4 Q43.3 34.2 41.15 41.65 41.05 44.95 37.0 47.5 45.15 27.7 38.9 9.45 36.7 5.2 34.8 2.5 35.65 1.8 35.85 0.25"/><path fill="#596f04" stroke="none" d="M13.1 -2.95 Q16.1 -4.55 19.65 -4.95 L19.9 -5.0 20.7 -5.05 22.6 -5.1 24.8 -4.95 24.95 -4.95 28.35 -4.3 Q32.25 -3.25 34.8 -0.8 L35.3 -0.3 35.85 0.25 Q35.65 1.8 34.8 2.5 36.7 5.2 38.9 9.45 45.15 27.7 37.0 47.5 L35.6 48.25 Q32.8 49.65 29.45 50.35 L29.0 50.4 Q21.8 50.3 12.8 47.65 35.3 42.4 32.35 17.6 31.55 14.75 24.4 15.05 L18.0 14.5 Q20.95 14.2 24.9 11.8 33.05 6.75 31.5 4.9 19.7 8.9 13.6 5.7 7.45 2.45 13.1 -2.95"/><path fill="none" stroke="#000000" stroke-width="1.0" stroke-opacity="0.301960784314" d="M13.1 -2.95 Q16.1 -4.55 19.65 -4.95 L19.9 -5.0 20.7 -5.05 22.6 -5.1 24.8 -4.95 24.95 -4.95 28.35 -4.3 Q32.25 -3.25 34.8 -0.8 L35.3 -0.3 M35.85 0.25 Q39.15 3.55 39.95 5.15 40.85 6.95 41.1 8.8 L41.15 9.5 41.15 9.65 Q44.45 19.7 43.85 29.0 L43.7 30.4 Q43.3 34.2 41.15 41.65 41.05 44.95 37.0 47.5 L35.6 48.25 Q32.8 49.65 29.45 50.35 L29.0 50.4 22.85 51.0 22.15 51.0 Q15.25 51.0 10.15 48.9 L8.75 48.25 7.4 47.55 Q3.45 45.15 3.2 42.0 L3.15 41.65 Q-3.15 26.4 3.15 9.65 L3.15 9.4 3.2 9.1 Q3.45 5.45 9.0 0.1 10.9 -1.75 13.1 -2.95"/></g><g id="c15"><g><use transform="matrix(1.0,0.0,0.0,1.0,0.0,0.0)" xlink:href="#c14"/></g></g><g id="c16"><path fill="#e6c65e" stroke="none" d="M7.2 15.65 L7.05 15.55 7.1 15.5 7.2 15.65"/><path fill="#405425" stroke="none" d="M20.25 10.5 L21.2 10.5 21.25 10.55 20.25 10.5"/><path fill="#b19b52" stroke="none" d="M39.85 4.25 Q41.15 2.55 41.2 0.65 42.0 1.85 41.7 5.25 L41.2 8.5 Q41.2 10.45 39.95 12.1 L39.85 4.25 M27.75 18.0 L25.3 18.3 21.2 18.5 Q13.0 18.5 7.2 15.65 L7.1 15.5 7.05 15.55 6.65 15.35 Q1.55 12.7 1.25 9.0 L1.05 8.25 Q5.35 13.55 7.1 9.85 L9.85 11.65 11.35 12.55 13.15 12.55 Q24.2 12.6 27.4 17.45 L27.75 18.0"/><path fill="#7c6c38" stroke="none" d="M39.85 4.25 L39.95 12.1 38.35 13.7 Q37.25 12.3 38.6 5.5 L39.6 4.5 39.85 4.25 M29.85 17.55 L27.75 18.0 27.4 17.45 Q24.2 12.6 13.15 12.55 L11.35 12.55 9.85 11.65 7.1 9.85 Q1.5 6.0 0.55 3.85 0.6 2.15 1.25 1.25 1.5 3.0 2.8 4.5 4.25 6.15 7.05 7.55 L7.2 7.65 9.1 8.5 Q13.25 10.1 18.45 10.4 L19.2 10.45 20.25 10.5 21.25 10.55 21.35 10.55 Q28.8 12.8 29.85 17.55"/><path fill="#534226" stroke="none" d="M38.35 13.7 L35.35 15.55 34.65 15.9 33.9 16.25 31.85 17.0 31.8 17.0 29.85 17.55 Q28.8 12.8 21.35 10.55 L21.25 10.55 21.2 10.5 21.3 10.5 Q27.2 10.5 31.85 9.0 L32.45 8.8 35.35 7.55 38.6 5.5 Q37.25 12.3 38.35 13.7"/><path fill="#c5a55c" stroke="none" d="M1.05 8.25 L0.65 5.95 0.55 3.85 Q1.5 6.0 7.1 9.85 5.35 13.55 1.05 8.25"/><path fill="none" stroke="#382510" stroke-width="0.8" stroke-opacity="0.301960784314" d="M39.95 12.1 Q41.2 10.45 41.2 8.5 L41.7 5.25 Q42.0 1.85 41.2 0.65 41.15 2.55 39.85 4.25 M39.95 12.1 L38.35 13.7 35.35 15.55 34.65 15.9 M33.9 16.25 L31.85 17.0 31.8 17.0 29.85 17.55 27.75 18.0 25.3 18.3 21.2 18.5 Q13.0 18.5 7.2 15.65 L7.05 15.55 6.65 15.35 Q1.55 12.7 1.25 9.0 L1.05 8.25 0.65 5.95 0.55 3.85 Q0.6 2.15 1.25 1.25 1.5 3.0 2.8 4.5 4.25 6.15 7.05 7.55 L7.2 7.65 9.1 8.5 Q13.25 10.1 18.45 10.4 L19.2 10.45 20.25 10.5 21.2 10.5 21.3 10.5 Q27.2 10.5 31.85 9.0 L32.45 8.8 35.35 7.55 38.6 5.5 39.6 4.5 39.85 4.25"/><path fill="none" stroke="#382510" stroke-width="0.5" stroke-opacity="0.152941176471" d="M0.9 8.05 Q5.55 13.9 7.3 9.4 L9.2 8.45 M6.65 15.35 Q7.85 12.25 13.15 12.55 24.2 12.6 27.4 17.45 L27.8 18.1 M35.75 14.85 L34.0 16.5 M32.4 8.8 Q34.95 8.6 34.95 9.35 36.0 11.55 35.85 14.6"/></g><g id="c17"><g><use transform="matrix(1.0,0.0,0.0,1.0,0.0,0.0)" xlink:href="#c16"/></g></g><linearGradient gradientUnits="userSpaceOnUse" x1="-819.2" x2="819.2" spreadMethod="pad" gradientTransform="matrix(0.0176239013672,0.00465393066406,-0.00299072265625,0.0113525390625,13.2,24.25)" id="gradient5"><stop offset="0.0" stop-color="#afc00c"/><stop offset="0.509803921569" stop-color="#809311"/></linearGradient><g id="c18"><path fill="#405425" stroke="none" d="M35.2 9.65 L35.2 9.7 35.05 10.65 Q34.4 13.0 30.9 14.75 L27.45 16.05 22.3 16.8 20.55 16.85 20.05 16.85 17.3 16.7 Q13.3 16.25 10.2 14.75 L9.35 14.25 9.3 14.25 Q6.0 12.25 5.9 9.65 L5.9 9.45 5.95 9.2 Q6.15 6.4 10.2 4.35 13.3 2.8 17.3 2.35 L20.05 2.2 20.55 2.2 23.35 2.35 Q27.65 2.7 30.9 4.35 32.75 5.3 33.8 6.35 34.95 7.55 35.15 9.0 L35.2 9.55 35.2 9.65"/><path fill="#74a146" stroke="none" d="M25.9 32.0 L25.95 32.0 25.9 32.0"/><path fill="#e7db7e" stroke="none" d="M40.7 11.75 L39.65 15.1 38.85 15.9 Q34.65 19.85 31.2 20.25 L31.2 20.3 26.95 21.0 Q18.45 21.9 12.15 19.45 L11.65 19.5 11.5 19.5 11.25 19.5 Q6.3 17.65 2.45 14.35 1.2 12.55 1.3 11.2 L1.95 9.65 Q2.05 13.05 6.35 15.6 L6.45 15.65 7.55 16.25 Q11.65 18.3 17.0 18.8 L20.75 19.0 20.95 19.0 22.35 19.0 24.25 18.9 29.9 17.95 Q32.3 17.3 34.4 16.25 38.9 14.0 39.75 10.95 L39.95 9.75 40.7 11.75"/><path fill="#e0d363" stroke="none" d="M1.95 9.65 L1.95 9.4 2.0 9.1 Q2.25 5.45 7.55 2.8 13.1 0.0 20.95 0.0 28.85 0.0 34.4 2.8 36.8 4.0 38.15 5.4 39.65 6.95 39.9 8.8 L39.95 9.5 39.95 9.65 39.95 9.75 39.75 10.95 Q38.9 14.0 34.4 16.25 32.3 17.3 29.9 17.95 L24.25 18.9 22.35 19.0 20.95 19.0 20.75 19.0 17.0 18.8 Q11.65 18.3 7.55 16.25 L6.45 15.65 6.35 15.6 Q2.05 13.05 1.95 9.65 M35.2 9.65 L35.2 9.55 35.15 9.0 Q34.95 7.55 33.8 6.35 32.75 5.3 30.9 4.35 27.65 2.7 23.35 2.35 L20.55 2.2 20.05 2.2 17.3 2.35 Q13.3 2.8 10.2 4.35 6.15 6.4 5.95 9.2 L5.9 9.45 5.9 9.65 Q6.0 12.25 9.3 14.25 L9.35 14.25 10.2 14.75 Q13.3 16.25 17.3 16.7 L20.05 16.85 20.55 16.85 22.3 16.8 27.45 16.05 30.9 14.75 Q34.4 13.0 35.05 10.65 L35.2 9.7 35.2 9.65"/><path stroke="none" fill="url(#gradient5)" d="M4.55 30.35 L4.4 30.2 Q2.2 28.3 2.0 26.0 L1.95 25.65 Q-1.55 18.75 1.3 11.2 1.2 12.55 2.45 14.35 6.3 17.65 11.25 19.5 L11.5 19.5 11.65 19.5 12.15 19.45 Q18.45 21.9 26.95 21.0 28.45 22.55 28.65 23.15 29.0 24.25 28.05 26.75 L28.0 26.9 27.85 27.2 Q26.4 29.75 19.55 31.6 11.2 33.8 4.55 30.35"/><path fill="#596f04" stroke="none" d="M40.7 11.75 Q42.0 15.65 40.7 22.35 39.25 29.75 35.7 31.55 40.6 22.35 38.85 15.9 L39.65 15.1 40.7 11.75 M13.3 34.25 Q10.15 33.55 7.55 32.25 L6.6 31.75 6.45 31.65 4.55 30.35 Q11.2 33.8 19.55 31.6 26.4 29.75 27.85 27.2 L28.0 26.9 28.05 26.75 Q29.0 24.25 28.65 23.15 28.45 22.55 26.95 21.0 L31.2 20.3 Q32.0 22.15 31.8 24.35 L31.1 28.25 29.55 30.3 Q28.3 31.3 25.9 32.0 21.25 33.35 13.3 34.25"/><path fill="#305807" stroke="none" d="M38.85 15.9 Q40.6 22.35 35.7 31.55 L34.4 32.25 Q32.3 33.3 29.9 33.95 L23.45 34.95 20.95 35.0 13.3 34.25 Q21.25 33.35 25.9 32.0 28.3 31.3 29.55 30.3 L31.1 28.25 31.8 24.35 Q32.0 22.15 31.2 20.3 L31.2 20.25 Q34.65 19.85 38.85 15.9 M25.9 32.0 L25.95 32.0 25.9 32.0"/><path fill="none" stroke="#000000" stroke-width="1.0" stroke-opacity="0.301960784314" d="M35.7 31.55 Q39.25 29.75 40.7 22.35 42.0 15.65 40.7 11.75 M35.7 31.55 L34.4 32.25 Q32.3 33.3 29.9 33.95 L23.45 34.95 20.95 35.0 13.3 34.25 Q10.15 33.55 7.55 32.25 L6.6 31.75 6.45 31.65 4.55 30.35 M4.4 30.2 Q2.2 28.3 2.0 26.0 L1.95 25.65 Q-1.55 18.75 1.3 11.2 L1.95 9.65 1.95 9.4 2.0 9.1 Q2.25 5.45 7.55 2.8 13.1 0.0 20.95 0.0 28.85 0.0 34.4 2.8 36.8 4.0 38.15 5.4 39.65 6.95 39.9 8.8 L39.95 9.5 39.95 9.65 39.95 9.75 40.7 11.75"/></g><g id="c19"><g><use transform="matrix(1.0,0.0,0.0,1.0,0.0,0.0)" xlink:href="#c18"/></g></g><g id="c20"><path fill="#fcf3d8" fill-opacity="0.301960784314" d="M40.35 67.8 Q39.7 67.2 38.55 67.4 37.5 67.6 36.6 68.55 35.7 69.45 35.55 70.5 35.4 71.65 36.1 72.25 36.7 72.85 37.8 72.65 38.95 72.45 39.8 71.55 40.7 70.6 40.85 69.55 41.0 68.45 40.35 67.8 M45.55 61.95 L42.7 65.75 Q44.05 67.05 43.8 69.2 43.5 71.35 41.7 73.25 L39.35 75.05 Q37.3 77.0 36.6 80.35 37.25 76.5 36.05 75.55 34.95 75.45 34.15 74.7 32.75 73.45 33.05 71.25 33.35 69.2 35.0 67.35 L35.15 67.2 34.85 65.35 36.4 66.1 Q37.7 65.2 39.1 64.9 L41.7 65.1 45.55 61.95"/><path fill="#fcf3d8" stroke="none" d="M40.35 67.8 Q41.0 68.45 40.85 69.55 40.7 70.6 39.8 71.55 38.95 72.45 37.8 72.65 36.7 72.85 36.1 72.25 35.4 71.65 35.55 70.5 35.7 69.45 36.6 68.55 37.5 67.6 38.55 67.4 39.7 67.2 40.35 67.8"/><path fill="#82950f" stroke="none" d="M76.55 22.85 Q74.9 27.0 75.55 27.5 76.1 28.05 78.9 25.5 82.3 20.25 84.6 18.5 86.25 17.2 89.8 16.0 L86.7 14.15 Q82.35 15.4 76.55 22.85"/><path fill="#b8ca0b" stroke="none" d="M78.9 25.5 Q76.1 28.05 75.55 27.5 74.9 27.0 76.55 22.85 75.0 25.95 69.35 40.15 65.85 48.8 63.2 50.65 64.35 52.25 67.8 52.35 69.95 45.2 71.65 40.25 74.7 30.85 78.9 25.5"/><path fill="none" stroke="#382510" stroke-width="0.5" stroke-opacity="0.301960784314" d="M76.55 22.85 Q82.35 15.4 86.7 14.15 L89.8 16.0 Q86.25 17.2 84.6 18.5 82.3 20.25 78.9 25.5 74.7 30.85 71.65 40.25 69.95 45.2 67.8 52.35 M63.2 50.65 Q65.85 48.8 69.35 40.15 75.0 25.95 76.55 22.85"/></g><linearGradient gradientUnits="userSpaceOnUse" x1="-819.2" x2="819.2" spreadMethod="pad" gradientTransform="matrix(0.00672912597656,-0.00596618652344,0.00166320800781,0.0018310546875,4.3,-3.6)" id="gradient6"><stop offset="0.0" stop-color="#f49302"/><stop offset="0.329411764706" stop-color="#f1cc38"/><stop offset="1.0" stop-color="#f2f204"/></linearGradient><g id="c21"><path stroke="none" fill="url(#gradient6)" d="M6.2 -8.25 L9.0 -10.05 Q8.75 -7.4 7.95 -5.3 6.95 -6.6 6.2 -8.25 M6.7 -3.1 Q3.85 0.4 -1.45 0.45 3.45 -1.05 6.05 -4.3 L6.7 -3.1 M-2.45 -1.5 Q0.8 -4.5 4.25 -6.9 L5.9 -4.7 Q1.7 -2.05 -1.0 -1.05 L4.1 -5.65 Q0.6 -4.0 -2.45 -1.5"/><path fill="#f5f0cd" stroke="none" d="M6.2 -8.25 Q6.95 -6.6 7.95 -5.3 L6.7 -3.1 6.05 -4.3 6.7 -5.25 5.9 -4.7 4.25 -6.9 6.2 -8.25"/><path fill="#d89f1f" stroke="none" d="M-1.45 0.45 L-2.3 0.4 Q-3.0 0.1 -2.95 -0.3 L-2.45 -1.5 Q0.6 -4.0 4.1 -5.65 L-1.0 -1.05 Q1.7 -2.05 5.9 -4.7 L6.7 -5.25 6.05 -4.3 Q3.45 -1.05 -1.45 0.45"/><path fill="none" stroke="#000000" stroke-width="0.5" stroke-opacity="0.2" d="M7.95 -5.3 Q8.75 -7.4 9.0 -10.05 L6.2 -8.25 M7.95 -5.3 L6.7 -3.1 Q3.85 0.4 -1.45 0.45 L-2.3 0.4 Q-3.0 0.1 -2.95 -0.3 L-2.45 -1.5 Q0.8 -4.5 4.25 -6.9 L6.2 -8.25"/></g><g id="c22"><g><use transform="matrix(1.0,0.0,0.0,1.0,0.0,0.0)" xlink:href="#c21"/></g></g><g id="c23"><path fill="#5b5735" fill-opacity="0.392156862745" d="M-4.4 -15.85 Q-4.5 -14.55 -3.85 -13.6 L-2.6 -14.25 -4.1 -13.05 Q-4.0 -10.9 -2.9 -10.1 -1.9 -9.4 -1.25 -10.2 0.0 -11.5 0.35 -12.35 L0.25 -16.05 2.45 -13.3 Q2.95 -12.75 4.55 -12.45 6.2 -12.25 6.3 -14.55 6.5 -15.35 5.3 -17.0 L3.25 -18.15 5.3 -18.4 Q5.25 -19.15 4.35 -20.0 3.25 -20.95 1.3 -20.85 0.4 -20.7 -0.85 -20.05 -2.05 -19.45 -2.8 -18.75 -4.2 -17.4 -4.4 -15.85"/></g><g id="c24"><path fill="#d9e27a" stroke="none" d="M0.9 -4.5 L0.6 -4.2 -0.05 -4.1 Q-0.4 -4.15 -0.6 -4.35 L-0.8 -4.75 -0.5 -5.1 0.1 -5.15 0.7 -4.95 0.9 -4.5"/><path fill="none" stroke="#000000" stroke-width="0.5" stroke-opacity="0.101960784314" d="M0.9 -4.5 L0.6 -4.2 -0.05 -4.1 Q-0.4 -4.15 -0.6 -4.35 L-0.8 -4.75 -0.5 -5.1 0.1 -5.15 0.7 -4.95 0.9 -4.5"/><path fill="#afc00c" stroke="none" d="M0.7 -6.6 L0.35 -7.2 -0.4 -7.4 -1.05 -7.1 -1.3 -6.35 Q-1.25 -5.8 -0.85 -5.6 -0.6 -5.25 -0.2 -5.45 0.2 -5.45 0.55 -5.85 0.8 -6.15 0.7 -6.6 M2.65 -5.65 Q2.3 -6.45 1.6 -6.0 L0.85 -4.9 0.35 -3.75 Q-0.05 -2.65 -1.2 -3.4 L-1.65 -3.75 Q-2.35 -4.5 -2.45 -5.65 L-1.9 -6.6 Q-1.25 -7.55 -0.2 -7.75 0.9 -7.9 1.8 -7.15 2.55 -6.55 2.65 -5.65"/><path fill="#d3e232" stroke="none" d="M0.7 -6.6 Q0.8 -6.15 0.55 -5.85 0.2 -5.45 -0.2 -5.45 -0.6 -5.25 -0.85 -5.6 -1.25 -5.8 -1.3 -6.35 L-1.05 -7.1 -0.4 -7.4 0.35 -7.2 0.7 -6.6"/><path fill="#809311" stroke="none" d="M2.65 -5.65 L2.75 -5.35 Q2.9 -4.25 2.15 -3.4 L0.9 -2.5 0.5 -2.45 Q-0.5 -2.25 -1.3 -2.8 L-1.5 -2.95 Q-2.4 -3.65 -2.55 -4.75 L-2.45 -5.65 Q-2.35 -4.5 -1.65 -3.75 L-1.2 -3.4 Q-0.05 -2.65 0.35 -3.75 L0.85 -4.9 1.6 -6.0 Q2.3 -6.45 2.65 -5.65"/><path fill="none" stroke="#000000" stroke-width="0.5" stroke-opacity="0.2" d="M-2.45 -5.65 L-2.55 -4.75 Q-2.4 -3.65 -1.5 -2.95 L-1.3 -2.8 Q-0.5 -2.25 0.5 -2.45 L0.9 -2.5 2.15 -3.4 Q2.9 -4.25 2.75 -5.35 L2.65 -5.65 M-2.45 -5.65 L-1.9 -6.6 Q-1.25 -7.55 -0.2 -7.75 0.9 -7.9 1.8 -7.15 2.55 -6.55 2.65 -5.65"/><path fill="#afc00c" stroke="none" d="M4.85 -3.55 Q4.5 -4.35 3.85 -3.9 3.2 -3.35 2.6 -1.6 2.15 -0.55 1.05 -1.25 L0.15 -2.15 0.05 -2.4 -0.25 -3.55 0.3 -4.5 Q0.95 -5.4 2.05 -5.6 3.1 -5.75 4.05 -5.0 4.8 -4.4 4.85 -3.55 M2.9 -4.5 L2.6 -5.1 1.85 -5.3 1.15 -4.95 0.9 -4.2 Q0.95 -3.7 1.35 -3.5 1.65 -3.15 2.05 -3.35 2.45 -3.35 2.8 -3.75 3.05 -4.0 2.9 -4.5"/><path fill="#d3e232" stroke="none" d="M2.9 -4.5 Q3.05 -4.0 2.8 -3.75 2.45 -3.35 2.05 -3.35 1.65 -3.15 1.35 -3.5 0.95 -3.7 0.9 -4.2 L1.15 -4.95 1.85 -5.3 2.6 -5.1 2.9 -4.5"/><path fill="#809311" stroke="none" d="M-0.25 -3.55 L0.05 -2.4 0.15 -2.15 1.05 -1.25 Q2.15 -0.55 2.6 -1.6 3.2 -3.35 3.85 -3.9 4.5 -4.35 4.85 -3.55 L5.0 -3.2 Q5.1 -2.15 4.4 -1.25 3.8 -0.45 2.7 -0.35 1.65 -0.15 0.7 -0.8 0.05 -1.4 -0.2 -2.15 L-0.25 -2.4 -0.3 -2.6 -0.25 -3.55"/><path fill="none" stroke="#000000" stroke-width="0.5" stroke-opacity="0.2" d="M4.85 -3.55 Q4.8 -4.4 4.05 -5.0 3.1 -5.75 2.05 -5.6 0.95 -5.4 0.3 -4.5 L-0.25 -3.55 -0.3 -2.6 -0.25 -2.4 -0.2 -2.15 Q0.05 -1.4 0.7 -0.8 1.65 -0.15 2.7 -0.35 3.8 -0.45 4.4 -1.25 5.1 -2.15 5.0 -3.2 L4.85 -3.55"/><path fill="#809311" stroke="none" d="M0.55 -3.65 L0.6 -3.3 Q0.8 -2.15 0.1 -1.3 -0.6 -0.35 -1.65 -0.3 -2.75 -0.1 -3.65 -0.85 -4.55 -1.5 -4.6 -2.65 L-4.6 -3.6 Q-4.55 -2.05 -3.35 -1.3 -2.2 -0.55 -2.15 -1.65 -2.0 -2.7 -1.0 -3.5 0.1 -4.3 0.55 -3.65"/><path fill="#afc00c" stroke="none" d="M-4.6 -3.6 L-4.15 -4.6 Q-3.35 -5.4 -2.4 -5.65 -1.2 -5.7 -0.3 -5.05 0.5 -4.45 0.55 -3.65 0.1 -4.3 -1.0 -3.5 -2.0 -2.7 -2.15 -1.65 -2.2 -0.55 -3.35 -1.3 -4.55 -2.05 -4.6 -3.6 M-1.45 -4.45 Q-1.4 -4.8 -1.8 -5.05 -2.15 -5.4 -2.55 -5.3 L-3.2 -5.0 -3.4 -4.25 Q-3.4 -3.7 -3.0 -3.45 -2.75 -3.25 -2.35 -3.45 L-1.6 -3.65 Q-1.3 -4.05 -1.45 -4.45"/><path fill="#e7db7e" stroke="none" d="M-1.45 -4.45 Q-1.3 -4.05 -1.6 -3.65 L-2.35 -3.45 Q-2.75 -3.25 -3.0 -3.45 -3.4 -3.7 -3.4 -4.25 L-3.2 -5.0 -2.55 -5.3 Q-2.15 -5.4 -1.8 -5.05 -1.4 -4.8 -1.45 -4.45"/><path fill="none" stroke="#000000" stroke-width="0.5" stroke-opacity="0.2" d="M0.55 -3.65 L0.6 -3.3 Q0.8 -2.15 0.1 -1.3 -0.6 -0.35 -1.65 -0.3 -2.75 -0.1 -3.65 -0.85 -4.55 -1.5 -4.6 -2.65 L-4.6 -3.6 -4.15 -4.6 Q-3.35 -5.4 -2.4 -5.65 -1.2 -5.7 -0.3 -5.05 0.5 -4.45 0.55 -3.65"/></g><g id="c25"><g><use transform="matrix(1.0,0.0,0.0,1.0,0.0,0.0)" xlink:href="#c24"/></g></g><g id="c26"><g><use transform="matrix(-0.554473876953,-0.384750366211,-0.676147460938,0.880126953125,-2.15,-20.15)" filter="url(#filter15)" xlink:href="#c22"/></g><g><use transform="matrix(-0.0698547363281,-1.19186401367,-1.19186401367,0.0698547363281,0.7,-22.45)" filter="url(#filter16)" xlink:href="#c22"/></g><g><use transform="matrix(-0.459991455078,-0.682968139648,0.765045166016,-0.672119140625,-3.15,-20.55)" filter="url(#filter17)" xlink:href="#c22"/></g><g><use transform="matrix(0.793380737305,-0.892150878906,-0.892150878906,-0.793380737305,4.65,-21.3)" xlink:href="#c22"/></g><g><use transform="matrix(-1.18835449219,-0.106536865234,0.106552124023,-1.18835449219,-4.2,-17.6)" xlink:href="#c22"/></g><g><use transform="matrix(1.26852416992,0.144088745117,0.252304077148,-1.22422790527,5.15,-16.05)" xlink:href="#c22"/></g><g><use transform="matrix(-0.800155639648,0.885772705078,-0.885726928711,-0.800155639648,-3.0,-12.55)" xlink:href="#c22"/></g><g><use transform="matrix(1.0,0.0,0.0,1.0,0.0,0.0)" xlink:href="#c23"/></g><g><use transform="matrix(-0.938949584961,0.746459960938,0.746459960938,0.938995361328,1.3,-15.8)" xlink:href="#c25"/></g></g><filter id="filter15"><feColorMatrix in="SourceGraphic" type="matrix" values="0.69921875 0.0 0.0 0.0 0.0 0.0 0.6015625 0.0 0.0 0.0 0.0 0.0 0.6015625 0.0 0.0 0.0 0.0 0.0 1.0 0.0" result="cxform"/><feComposite operator="in" in2="SourceGraphic" result="color-xform"/></filter><filter id="filter16"><feColorMatrix in="SourceGraphic" type="matrix" values="0.8984375 0.0 0.0 0.0 0.0 0.0 0.80078125 0.0 0.0 0.0 0.0 0.0 0.80078125 0.0 0.0 0.0 0.0 0.0 1.0 0.0" result="cxform"/><feComposite operator="in" in2="SourceGraphic" result="color-xform"/></filter><filter id="filter17"><feColorMatrix in="SourceGraphic" type="matrix" values="0.80078125 0.0 0.0 0.0 0.0 0.0 0.69921875 0.0 0.0 0.0 0.0 0.0 0.69921875 0.0 0.0 0.0 0.0 0.0 1.0 0.0" result="cxform"/><feComposite operator="in" in2="SourceGraphic" result="color-xform"/></filter><g id="c27"><path fill="#fed945" stroke="none" d="M77.25 54.45 L79.55 56.2 79.55 52.25 82.25 55.85 82.85 54.1 82.4 53.25 Q79.5 48.95 75.75 50.05 L68.15 52.85 Q71.55 53.6 75.95 52.15 L77.25 54.45 M86.2 63.0 L84.25 60.8 84.2 63.85 82.65 60.25 82.75 64.75 Q84.1 67.4 86.2 73.1 L88.95 80.5 90.9 79.7 86.2 63.0"/><path fill="#ffff2f" stroke="none" d="M82.85 54.1 L82.25 55.85 79.55 52.25 79.55 56.2 77.25 54.45 Q80.65 59.85 82.75 64.75 L82.65 60.25 84.2 63.85 84.25 60.8 86.2 63.0 Q84.75 57.15 82.85 54.1"/><path fill="none" stroke="#382510" stroke-width="0.5" stroke-opacity="0.301960784314" d="M77.25 54.45 L75.95 52.15 M68.15 52.85 L75.75 50.05 Q79.5 48.95 82.4 53.25 M82.85 54.1 Q84.75 57.15 86.2 63.0 M82.75 64.75 Q80.65 59.85 77.25 54.45 M88.95 80.5 L86.2 73.1 Q84.1 67.4 82.75 64.75 M90.9 79.7 L86.2 63.0"/></g><g id="c28"><g><use transform="matrix(1.0,0.0,0.0,1.0,0.0,0.0)" xlink:href="#c13"/></g><g><use transform="matrix(1.21620178223,0.44548034668,-0.44548034668,1.21620178223,33.95,54.3)" xlink:href="#c15"/></g><g><use transform="matrix(1.24018859863,0.454208374023,-0.454208374023,1.24018859863,18.4,97.7)" xlink:href="#c17"/></g><g><use transform="matrix(0.719818115234,0.263641357422,-0.263641357422,0.719818115234,48.05,49.5)" filter="url(#filter27)" xlink:href="#c17"/></g><g><use transform="matrix(0.733306884766,0.268676757812,-0.268676757812,0.733306884766,54.05,33.5)" xlink:href="#c19"/></g><g><use transform="matrix(1.0,0.0,0.0,1.0,0.0,0.0)" xlink:href="#c20"/></g><g><use transform="matrix(-1.49320983887,-0.554092407227,-0.558456420898,1.49578857422,79.25,40.4)" xlink:href="#c26"/></g><g><use transform="matrix(1.0,0.0,0.0,1.0,0.0,0.0)" xlink:href="#c27"/></g></g><filter id="filter27"><feColorMatrix in="SourceGraphic" type="matrix" values="0.62890625 0.0 0.0 0.0 0.08203125 0.0 0.62890625 0.0 0.0 0.0546875 0.0 0.0 0.62890625 0.0 0.0234375 0.0 0.0 0.0 1.0 0.0" result="cxform"/><feComposite operator="in" in2="SourceGraphic" result="color-xform"/></filter><g id="c29"><path fill="none" stroke="#ffcc00" stroke-width="0.5" d="M37.8 93.2 L26.1 97.0 Q23.45 97.8 21.8 96.65 20.65 95.9 19.95 94.25 L8.0 67.8 7.9 67.65 7.5 66.8 5.55 62.4 Q4.25 59.55 6.0 58.1 L7.5 57.25 11.8 55.6 Q15.25 54.3 16.95 57.5 L28.6 53.75 Q32.85 52.35 34.75 56.45 L46.85 83.3 47.2 84.05 49.25 88.5 Q50.25 90.7 49.45 92.05 48.8 93.05 47.25 93.6 L42.95 95.15 41.4 95.55 Q39.05 95.65 37.8 93.2"/></g><linearGradient gradientUnits="userSpaceOnUse" x1="-819.2" x2="819.2" spreadMethod="pad" gradientTransform="matrix(-0.0125732421875,0.0326843261719,-0.0249176025391,-0.0216674804688,24.2,31.15)" id="gradient7"><stop offset="0.0" stop-opacity="0.337254901961"/><stop offset="1.0" stop-opacity="0.0"/></linearGradient><linearGradient gradientUnits="userSpaceOnUse" x1="-819.2" x2="819.2" spreadMethod="pad" gradientTransform="matrix(-0.00735473632812,0.0279541015625,-0.0266723632812,-0.0160522460938,34.25,42.6)" id="gradient8"><stop offset="0.0" stop-opacity="0.337254901961"/><stop offset="1.0" stop-opacity="0.0"/></linearGradient><linearGradient gradientUnits="userSpaceOnUse" x1="-819.2" x2="819.2" spreadMethod="pad" gradientTransform="matrix(0.0,0.0374755859375,-0.0333709716797,-0.0137786865234,15.9,31.9)" id="gradient9"><stop offset="0.0" stop-opacity="0.337254901961"/><stop offset="1.0" stop-opacity="0.0"/></linearGradient><linearGradient gradientUnits="userSpaceOnUse" x1="-819.2" x2="819.2" spreadMethod="pad" gradientTransform="matrix(-0.00982666015625,0.0286254882812,-0.0181274414062,-0.0141143798828,4.1,18.2)" id="gradient10"><stop offset="0.0" stop-opacity="0.337254901961"/><stop offset="1.0" stop-opacity="0.0"/></linearGradient><g id="c30"><path stroke="none" fill="url(#gradient7)" d="M26.45 9.0 L26.45 45.2 21.35 45.2 21.35 9.0 26.45 9.0"/><path stroke="none" fill="url(#gradient8)" d="M31.7 45.2 L31.7 17.3 36.8 24.7 36.8 45.2 31.7 45.2"/><path stroke="none" fill="url(#gradient9)" d="M15.65 9.0 L14.95 45.2 9.35 45.2 9.6 9.0 15.65 9.0"/><path stroke="none" fill="url(#gradient10)" d="M5.1 9.0 L5.1 40.3 0.0 40.3 0.0 9.0 5.1 9.0"/></g><g id="c31"><g><use transform="matrix(1.0,0.0,0.0,1.0,0.0,0.0)" xlink:href="#c30"/></g></g><g id="c32"><path fill="#fefd8d" fill-opacity="0.972549019608" d="M33.85 83.75 L33.85 83.8 33.85 83.95 33.85 84.0 33.85 84.1 33.9 84.1 33.9 84.15 34.35 84.4 34.85 84.75 34.35 84.45 34.1 84.3 34.05 84.25 33.95 84.2 33.9 84.2 33.9 84.7 33.9 85.25 33.85 84.75 33.75 84.2 33.7 84.1 33.5 84.25 33.0 84.55 32.7 84.7 32.95 84.5 33.4 84.3 33.45 84.25 33.5 84.2 33.7 84.1 33.65 84.05 33.7 84.05 33.7 84.0 33.3 83.6 32.95 83.25 33.3 83.55 33.55 83.8 33.7 83.95 33.8 83.4 33.9 82.95 33.85 83.35 33.85 83.75 M34.25 84.0 L34.15 84.0 33.9 84.05 34.15 83.95 34.7 83.75 35.2 83.65 34.85 83.75 34.95 83.85 34.85 83.75 34.7 83.8 34.4 83.9 34.35 83.9 34.25 84.0 M34.95 83.85 L35.65 84.4 36.45 85.15 36.5 85.2 36.75 85.45 36.9 85.55 36.9 85.5 37.1 83.9 37.35 82.3 37.45 81.75 37.4 82.25 37.4 83.85 37.2 85.6 37.35 86.0 37.4 86.1 38.7 86.9 40.15 87.75 40.55 88.05 40.1 87.8 38.75 87.05 37.75 86.45 37.4 86.25 37.35 86.2 37.4 86.3 37.5 87.75 37.55 89.45 37.6 90.0 37.5 89.5 37.25 87.9 37.05 86.25 37.0 86.3 36.9 85.9 36.7 85.75 36.9 85.85 36.9 85.65 35.7 84.55 34.95 83.85 M35.7 86.65 L36.1 86.45 36.2 86.4 36.85 86.1 36.3 86.45 34.8 87.25 33.35 88.0 32.8 88.25 33.3 88.0 34.65 87.2 35.7 86.65 M41.85 84.45 L41.35 84.6 39.85 85.15 38.15 85.7 37.5 85.9 Q37.45 85.85 38.1 85.65 L39.7 85.1 41.3 84.6 41.85 84.45"/><path fill="#fffd8f" fill-opacity="0.4" d="M33.85 83.75 L34.05 83.4 34.25 83.2 34.15 83.4 34.0 83.8 33.9 83.9 33.85 83.8 33.85 83.75 M34.1 84.3 L34.35 84.5 34.45 84.65 34.25 84.5 34.0 84.3 33.95 84.2 34.05 84.25 34.1 84.3 M33.4 84.3 L33.3 84.3 32.95 84.45 32.7 84.55 32.95 84.4 33.35 84.25 33.45 84.25 33.4 84.3 M33.55 83.8 L33.4 83.6 33.6 83.8 33.65 83.9 33.55 83.8 M34.25 84.0 L34.35 83.9 34.4 83.9 34.65 83.85 34.95 83.85 35.05 83.8 34.95 83.85 34.7 83.9 34.3 84.0 34.2 84.0 34.25 84.0 M36.45 85.15 L35.85 84.4 35.45 83.85 35.95 84.3 36.65 85.15 36.9 85.5 36.75 85.45 36.5 85.2 36.45 85.15 M37.75 86.45 Q38.15 86.7 38.6 87.1 L39.3 87.75 38.5 87.15 37.6 86.5 37.4 86.3 37.35 86.2 37.4 86.25 37.75 86.45 M33.6 84.3 L33.7 84.2 33.75 84.35 33.65 84.7 33.55 85.05 33.55 84.75 33.6 84.3 M37.65 85.15 L37.35 85.5 37.35 85.0 37.9 84.05 38.5 83.1 38.7 82.75 38.55 83.1 38.15 84.05 37.65 85.15 M35.7 86.65 L34.7 87.0 33.8 87.3 34.7 86.95 35.75 86.5 36.1 86.45 35.7 86.65 M38.7 85.65 L38.25 85.7 38.7 85.55 39.75 85.35 40.7 85.2 41.05 85.15 40.75 85.25 39.8 85.45 38.7 85.65 M36.7 86.7 L36.95 86.25 37.0 86.75 36.65 87.8 36.3 88.85 36.15 89.25 36.25 88.85 36.4 87.85 Q36.5 87.1 36.7 86.7"/><path fill="#fffd8f" fill-opacity="0.392156862745" d="M38.0 86.75 Q37.9 86.0 37.45 85.8 L36.9 85.85 Q36.75 86.1 36.9 86.5 37.1 87.0 37.65 87.3 L38.35 87.95 38.6 88.25 38.45 87.85 38.0 86.75"/><path fill="#fffd8f" fill-opacity="0.392156862745" d="M38.0 86.25 L37.05 85.85 Q36.8 85.8 36.95 85.95 L37.55 86.35 38.35 86.6 Q38.8 86.65 39.05 86.85 L39.35 86.95 39.0 86.75 38.0 86.25"/><path fill="#fffd8f" fill-opacity="0.392156862745" d="M36.4 84.8 Q36.35 85.55 36.75 85.85 L37.3 85.9 37.45 85.25 Q37.35 84.75 36.9 84.35 36.35 83.9 36.3 83.55 L36.1 83.25 36.2 83.65 36.4 84.8"/><path fill="#fffd8f" fill-opacity="0.392156862745" d="M36.25 85.35 L37.1 85.95 37.2 85.8 36.75 85.3 35.95 84.9 Q35.55 84.75 35.3 84.6 L35.05 84.45 35.35 84.65 36.25 85.35"/><path fill="#fffd8f" fill-opacity="0.392156862745" d="M38.75 85.2 Q38.0 85.45 37.85 85.65 37.7 85.85 37.85 85.8 L38.5 85.65 39.25 85.2 39.9 84.75 40.15 84.6 39.75 84.75 38.75 85.2"/><path fill="#fffd8f" fill-opacity="0.392156862745" d="M35.75 87.0 L36.6 86.4 36.5 86.25 Q36.25 86.25 35.9 86.5 L35.25 87.1 34.7 87.65 Q34.4 87.8 34.45 87.85 L34.8 87.6 35.75 87.0"/><path fill="#fffd8f" fill-opacity="0.392156862745" d="M34.1 84.35 L33.95 84.05 33.75 84.05 Q33.65 84.1 33.7 84.25 L34.0 84.55 34.2 84.75 34.3 84.85 34.2 84.75 34.1 84.35"/><path fill="#fffd8f" fill-opacity="0.392156862745" d="M34.1 84.2 Q33.9 84.05 33.75 84.05 L33.75 84.1 33.95 84.2 34.2 84.3 34.5 84.4 34.55 84.4 34.45 84.4 34.1 84.2"/><path fill="#fffd8f" fill-opacity="0.392156862745" d="M33.5 83.65 L33.65 84.05 33.85 84.05 33.9 83.85 33.65 83.55 33.5 83.25 33.45 83.15 33.5 83.25 33.5 83.65"/><path fill="#fffd8f" fill-opacity="0.392156862745" d="M33.5 83.9 L33.75 84.05 33.8 84.0 33.65 83.85 33.35 83.7 33.2 83.6 33.05 83.55 33.15 83.6 33.5 83.9"/><path fill="#fffd8f" fill-opacity="0.392156862745" d="M34.3 83.8 L34.05 83.95 34.05 84.0 34.25 83.95 34.55 83.8 Q34.6 83.7 34.7 83.7 L34.8 83.6 34.7 83.65 34.3 83.8"/><path fill="#fffd8f" fill-opacity="0.392156862745" d="M33.3 84.45 L33.6 84.2 33.6 84.15 Q33.5 84.15 33.4 84.3 L33.15 84.45 32.95 84.65 32.85 84.75 33.0 84.6 33.3 84.45"/><path fill="#ffffff" stroke="none" d="M36.3 85.35 Q36.05 85.7 36.05 86.15 L36.5 86.9 37.3 87.15 38.05 86.75 38.25 85.9 37.85 85.2 37.05 84.95 36.3 85.35"/><path fill="#fefd8d" fill-opacity="0.972549019608" d="M18.75 62.3 L18.65 62.35 18.2 62.45 18.6 62.25 19.85 61.9 21.0 61.5 21.4 61.35 21.05 61.5 19.9 61.9 18.75 62.3 M17.45 61.95 L17.7 62.2 17.75 62.2 17.7 62.15 17.85 61.05 18.05 59.85 18.15 59.4 18.1 59.8 18.05 61.0 18.0 62.25 18.1 62.6 19.15 63.2 20.0 63.75 19.15 63.3 18.5 62.95 18.4 62.85 18.15 62.7 18.1 62.7 18.15 62.75 18.2 63.85 18.2 64.9 18.0 64.0 17.85 62.8 17.8 62.8 17.75 62.45 17.6 62.3 17.7 62.35 17.7 62.3 16.85 61.5 15.9 60.65 15.65 60.35 15.95 60.65 16.8 61.4 17.45 61.95 M14.7 64.25 L15.05 64.05 16.1 63.45 17.25 62.85 17.7 62.65 17.3 62.95 16.2 63.45 15.1 64.05 14.7 64.25"/><path fill="#fffd8f" fill-opacity="0.4" d="M18.75 62.3 L19.1 62.2 19.85 62.05 20.6 61.95 19.85 62.15 19.05 62.3 18.75 62.3 M17.45 61.95 L16.95 61.35 16.5 60.75 17.0 61.3 17.55 61.95 17.7 62.15 17.75 62.2 17.7 62.2 17.45 61.95 M18.5 62.95 L19.0 63.35 19.6 63.8 19.8 64.0 19.6 63.85 18.95 63.4 18.3 62.9 18.15 62.75 18.1 62.7 18.15 62.7 18.4 62.85 18.5 62.95 M18.3 61.9 L18.05 62.2 18.1 61.85 18.45 61.15 18.9 60.4 19.1 60.2 18.95 60.4 18.65 61.15 18.3 61.9 M17.55 63.1 L17.75 62.75 17.8 63.1 17.6 63.95 17.25 64.7 17.15 64.95 17.2 64.7 17.4 63.9 Q17.4 63.4 17.55 63.1 M16.9 62.9 L17.2 62.85 Q17.15 62.9 16.85 63.05 L16.15 63.3 15.45 63.55 15.2 63.6 15.45 63.5 16.1 63.25 Q16.6 63.0 16.9 62.9"/><path fill="#fffd8f" fill-opacity="0.392156862745" d="M18.6 63.1 L18.15 62.4 17.7 62.45 17.75 62.95 18.3 63.55 Q18.75 63.8 18.8 64.0 L19.0 64.25 18.85 63.95 18.6 63.1"/><path fill="#fffd8f" fill-opacity="0.392156862745" d="M18.55 62.7 Q18.05 62.4 17.9 62.4 17.7 62.4 17.8 62.5 L18.25 62.8 18.85 63.0 19.35 63.15 19.6 63.2 19.35 63.1 18.55 62.7"/><path fill="#fffd8f" fill-opacity="0.392156862745" d="M17.3 61.7 Q17.35 62.3 17.55 62.45 L18.0 62.5 18.1 62.0 17.65 61.35 17.25 60.75 17.15 60.5 17.2 60.8 17.3 61.7"/><path fill="#fffd8f" fill-opacity="0.392156862745" d="M17.25 62.1 L17.9 62.5 17.95 62.45 17.6 62.05 17.05 61.75 16.55 61.5 16.35 61.4 16.55 61.6 Q16.8 61.7 17.25 62.1"/><path fill="#fffd8f" fill-opacity="0.392156862745" d="M19.05 61.9 L18.4 62.3 18.45 62.4 18.9 62.3 19.5 61.95 19.95 61.6 20.15 61.5 19.85 61.6 19.05 61.9"/><path fill="#fffd8f" fill-opacity="0.392156862745" d="M16.9 63.3 L17.5 62.85 17.45 62.7 17.05 62.9 16.5 63.35 16.15 63.75 15.95 63.95 16.2 63.75 16.9 63.3"/><path fill="#ffffff" stroke="none" d="M17.4 62.1 Q17.15 62.35 17.2 62.65 L17.55 63.25 18.1 63.4 18.7 63.1 18.85 62.5 18.55 61.95 17.9 61.75 17.4 62.1"/><path fill="#ffffff" stroke="none" d="M33.55 83.9 L33.45 84.15 33.6 84.45 33.85 84.5 34.15 84.4 34.2 84.05 34.1 83.85 33.75 83.75 33.55 83.9"/></g><g id="c33"><g><use transform="matrix(1.0,0.0,0.0,1.0,6.3,53.35)" xlink:href="#c9"/></g><mask id="mask10"><use transform="matrix(1.0,0.0,0.0,1.0,0.0,0.0)" xlink:href="#c10"/></mask><g mask="url(#mask10)"><use transform="matrix(1.19317626953,0.0,0.0,1.19317626953,2.45,49.2)" xlink:href="#c12"/></g><g><use transform="matrix(-0.146041870117,0.0488891601562,0.0616760253906,0.140441894531,33.05,63.95)" xlink:href="#c28"/></g><g><use transform="matrix(1.0,0.0,0.0,1.0,0.0,0.0)" xlink:href="#c29"/></g><mask id="mask10"><use transform="matrix(1.0,0.0,0.0,1.0,0.0,0.0)" xlink:href="#c10"/></mask><g mask="url(#mask10)"><use transform="matrix(1.0,0.0,0.0,1.0,9.65,51.0)" filter="url(#filter39)" xlink:href="#c31"/></g><g mask="url(#mask10)"><use transform="matrix(1.0,0.0,0.0,1.0,9.65,47.6)" filter="url(#filter40)" xlink:href="#c31"/></g><g mask="url(#mask10)"><use transform="matrix(1.0,0.0,0.0,1.0,0.0,0.0)" xlink:href="#c32"/></g><g><use transform="matrix(0.141098022461,-0.0378112792969,0.111373901367,0.225646972656,27.2,74.05)" filter="url(#filter42)" xlink:href="#c6"/></g></g><filter id="filter39"><feColorMatrix in="SourceGraphic" type="matrix" values="0.0 0.0 0.0 0.0 0.99609375 0.0 0.0 0.0 0.0 0.99609375 0.0 0.0 0.0 0.0 0.99609375 0.0 0.0 0.0 1.0 0.0" result="cxform"/><feComposite operator="in" in2="SourceGraphic" result="color-xform"/></filter><filter id="filter40"><feColorMatrix in="SourceGraphic" type="matrix" values="0.0 0.0 0.0 0.0 0.99609375 0.0 0.0 0.0 0.0 0.99609375 0.0 0.0 0.0 0.0 0.99609375 0.0 0.0 0.0 1.0 0.0" result="cxform"/><feComposite operator="in" in2="SourceGraphic" result="color-xform"/></filter><filter id="filter42"><feColorMatrix in="SourceGraphic" type="matrix" values="1.0 0.0 0.0 0.0 0.0 0.0 1.0 0.0 0.0 0.0 0.0 0.0 1.0 0.0 0.0 0.0 0.0 0.0 0.23046875 0.0" result="cxform"/><feComposite operator="in" in2="SourceGraphic" result="color-xform"/></filter></defs><g><g><use transform="matrix(1.0,0.0,0.0,1.0,0.0,0.0)" xlink:href="#c1"/></g><g><use transform="matrix(1.15492248535,0.0,0.0,1.15492248535,-1.5,-57.7)" xlink:href="#c33"/></g></g></svg>