<?xml version="1.0" encoding="UTF-8" standalone="no"?>
<svg xmlns:xlink="http://www.w3.org/1999/xlink" height="60.0px" width="60.0px" xmlns="http://www.w3.org/2000/svg">
  <g transform="matrix(1.0, 0.0, 0.0, 1.0, 0.0, 0.0)">
    <use height="60.0" transform="matrix(1.0, 0.0, 0.0, 1.0, 0.0, 0.0)" width="60.0" xlink:href="#shape0"/>
    <use height="51.25" transform="matrix(1.1549, 0.0, 0.0, 1.1549, 1.3296, -2.7257)" width="48.85" xlink:href="#sprite0"/>
  </g>
  <defs>
    <g id="shape0" transform="matrix(1.0, 0.0, 0.0, 1.0, 0.0, 0.0)">
      <path d="M0.0 0.0 L60.0 0.0 60.0 60.0 0.0 60.0 0.0 0.0" fill="#000000" fill-opacity="0.003921569" fill-rule="evenodd" stroke="none"/>
    </g>
    <g id="sprite0" transform="matrix(1.0, 0.0, 0.0, 1.0, -2.45, -47.6)">
      <use height="46.95" transform="matrix(1.0, 0.0, 0.0, 1.0, 3.5, 51.9)" width="47.8" xlink:href="#sprite1"/>
      <clipPath id="clipPath0" transform="matrix(1.0, 0.0, 0.0, 1.0, 0.0, 0.0)">
        <path d="M37.9 92.95 L26.2 96.75 Q23.55 97.55 21.9 96.4 20.75 95.65 20.05 94.0 L8.1 67.55 8.0 67.4 7.6 66.55 5.65 62.15 Q4.35 59.3 6.1 57.85 6.7 57.35 7.6 57.0 L11.9 55.35 Q15.35 54.05 17.05 57.25 L28.7 53.5 Q32.95 52.1 34.85 56.2 L46.95 83.05 47.3 83.8 49.35 88.25 Q50.35 90.45 49.55 91.8 48.9 92.8 47.35 93.35 L43.05 94.9 41.5 95.3 Q39.15 95.4 37.9 92.95" fill="#006699" fill-rule="evenodd" stroke="none"/>
      </clipPath>
      <g clip-path="url(#clipPath0)">
        <use height="0.0" transform="matrix(1.1932, 0.0, 0.0, 1.1932, 2.45, 49.2)" width="0.0" xlink:href="#sprite5"/>
      </g>
      <use height="140.15" transform="matrix(-0.146, 0.0489, 0.0617, 0.1404, 30.8174, 61.6125)" width="115.9" xlink:href="#sprite6"/>
      <use height="44.15" transform="matrix(1.0, 0.0, 0.0, 1.0, 4.9, 53.3)" width="45.0" xlink:href="#shape6"/>
      <clipPath id="clipPath1" transform="matrix(1.0, 0.0, 0.0, 1.0, 0.0, 0.0)">
        <path d="M37.9 92.95 L26.2 96.75 Q23.55 97.55 21.9 96.4 20.75 95.65 20.05 94.0 L8.1 67.55 8.0 67.4 7.6 66.55 5.65 62.15 Q4.35 59.3 6.1 57.85 6.7 57.35 7.6 57.0 L11.9 55.35 Q15.35 54.05 17.05 57.25 L28.7 53.5 Q32.95 52.1 34.85 56.2 L46.95 83.05 47.3 83.8 49.35 88.25 Q50.35 90.45 49.55 91.8 48.9 92.8 47.35 93.35 L43.05 94.9 41.5 95.3 Q39.15 95.4 37.9 92.95" fill="#006699" fill-rule="evenodd" stroke="none"/>
      </clipPath>
      <g clip-path="url(#clipPath1)">
        <use height="0.0" transform="matrix(1.0, 0.0, 0.0, 1.0, 9.65, 51.0)" width="0.0" xlink:href="#sprite8"/>
        <use height="0.0" transform="matrix(1.0, 0.0, 0.0, 1.0, 9.65, 47.6)" width="0.0" xlink:href="#sprite8"/>
        <use height="30.6" transform="matrix(1.0, 0.0, 0.0, 1.0, 14.7, 59.4)" width="27.15" xlink:href="#shape7"/>
      </g>
      <use height="0.0" transform="matrix(0.1411, -0.0378, 0.1114, 0.2256, 27.2, 74.05)" width="0.0" xlink:href="#sprite3"/>
    </g>
    <g id="sprite1" transform="matrix(1.0, 0.0, 0.0, 1.0, 2.8, 1.45)">
      <use height="48.95" transform="matrix(1.0, 0.0, 0.0, 1.0, -3.8, -2.45)" width="49.8" xlink:href="#shape1"/>
      <use height="13.75" transform="matrix(0.2389, -0.0867, 0.1003, 0.2339, 34.25, 31.15)" width="15.1" xlink:href="#sprite2"/>
      <use height="13.75" transform="matrix(0.2389, -0.0867, 0.1003, 0.2339, 4.25, 10.3)" width="15.1" xlink:href="#sprite2"/>
      <use height="0.0" transform="matrix(0.1411, -0.0378, 0.1114, 0.2256, 20.25, 20.65)" width="0.0" xlink:href="#sprite3"/>
      <use height="211.55" transform="matrix(-0.155, 0.0513, 0.0842, 0.147, 22.6078, 3.1474)" width="136.7" xlink:href="#sprite4"/>
    </g>
    <g id="shape1" transform="matrix(1.0, 0.0, 0.0, 1.0, 3.8, 2.45)">
      <path d="M31.5 39.85 L19.8 43.65 Q17.15 44.45 15.5 43.3 14.35 42.55 13.65 40.9 L1.7 14.45 1.6 14.3 1.2 13.45 -0.75 9.05 Q-2.05 6.2 -0.3 4.75 0.3 4.25 1.2 3.9 L5.5 2.25 Q8.95 0.95 10.65 4.15 L22.3 0.4 Q26.55 -1.0 28.45 3.1 L40.55 29.95 40.9 30.7 42.95 35.15 Q43.95 37.35 43.15 38.7 42.5 39.7 40.95 40.25 L36.65 41.8 35.1 42.2 Q32.75 42.3 31.5 39.85" fill="#006699" fill-rule="evenodd" stroke="none"/>
      <path d="M31.5 39.85 L19.8 43.65 Q17.15 44.45 15.5 43.3 14.35 42.55 13.65 40.9 L1.7 14.45 1.6 14.3 1.2 13.45 -0.75 9.05 Q-2.05 6.2 -0.3 4.75 0.3 4.25 1.2 3.9 L5.5 2.25 Q8.95 0.95 10.65 4.15 L22.3 0.4 Q26.55 -1.0 28.45 3.1 L40.55 29.95 40.9 30.7 42.95 35.15 Q43.95 37.35 43.15 38.7 42.5 39.7 40.95 40.25 L36.65 41.8 35.1 42.2 Q32.75 42.3 31.5 39.85 Z" fill="none" stroke="#000000" stroke-linecap="round" stroke-linejoin="round" stroke-opacity="0.29803923" stroke-width="1.0"/>
      <path d="M0.75 8.25 L29.8 9.75 25.55 0.9 Q26.9 1.6 27.8 3.55 L40.7 32.15 Q42.6 36.3 38.3 37.65 L23.3 42.5 13.15 21.4 4.6 20.9 0.7 12.25 Q-0.45 9.75 0.75 8.25 M20.1 43.55 L19.8 43.65 Q17.15 44.45 15.5 43.3 L20.1 43.55" fill="#5b3c00" fill-rule="evenodd" stroke="none"/>
      <path d="M25.55 0.9 L29.8 9.75 0.75 8.25 Q1.45 7.3 3.1 6.75 L21.65 0.8 25.55 0.9 M4.6 20.9 L13.15 21.4 23.3 42.5 20.1 43.55 15.5 43.3 Q14.35 42.55 13.65 40.9 L4.6 20.9" fill="#724b00" fill-rule="evenodd" stroke="none"/>
      <path d="M0.75 8.25 Q-0.45 9.75 0.7 12.25 L4.6 20.9 13.65 40.9 Q14.35 42.55 15.5 43.3 17.15 44.45 19.8 43.65 L20.1 43.55 23.3 42.5 38.3 37.65 Q42.6 36.3 40.7 32.15 L27.8 3.55 Q26.9 1.6 25.55 0.9 L21.65 0.8 3.1 6.75 Q1.45 7.3 0.75 8.25 Z" fill="none" stroke="#000000" stroke-linecap="round" stroke-linejoin="round" stroke-opacity="0.3019608" stroke-width="0.05"/>
      <path d="M40.5 29.85 L40.55 29.95 40.9 30.7 42.95 35.15 Q43.95 37.35 43.15 38.7 42.5 39.45 41.2 39.9 L36.9 41.45 34.85 41.85 Q32.9 41.7 31.8 39.55 L31.75 39.5 31.4 39.65 30.3 40.0 31.4 39.65 31.4 39.7 20.4 43.2 Q16.1 44.55 14.2 40.5 L6.45 23.15 6.0 22.15 5.55 21.15 4.05 17.85 3.15 15.85 3.1 15.8 1.75 12.85 -0.2 8.45 Q-1.25 6.15 -0.3 4.75 0.3 4.25 1.2 3.9 L5.5 2.25 Q8.95 0.95 10.65 4.15 L22.3 0.4 Q26.55 -1.0 28.45 3.1 L40.5 29.85" fill="#fed00b" fill-rule="evenodd" stroke="none"/>
      <path d="M43.15 38.7 Q42.5 39.7 40.95 40.25 L36.65 41.8 35.1 42.2 Q32.75 42.3 31.45 39.8 L31.4 39.7 31.4 39.65 31.75 39.5 31.8 39.55 Q32.9 41.7 34.85 41.85 L36.9 41.45 41.2 39.9 Q42.5 39.45 43.15 38.7 M3.1 15.8 Q2.25 15.35 1.6 14.3 L1.2 13.45 -0.75 9.05 Q-2.05 6.2 -0.3 4.75 -1.25 6.15 -0.2 8.45 L1.75 12.85 3.1 15.8" fill="#5b3c00" fill-rule="evenodd" stroke="none"/>
      <path d="M31.4 39.65 L30.3 40.0 31.4 39.65" fill="#9d147b" fill-rule="evenodd" stroke="none"/>
      <path d="M40.5 29.85 L40.55 29.95 40.9 30.7 42.95 35.15 Q43.95 37.35 43.15 38.7 42.5 39.7 40.95 40.25 L36.65 41.8 35.1 42.2 Q32.75 42.3 31.45 39.8 L31.4 39.7 31.4 39.65 31.75 39.5 31.8 39.55 Q32.9 41.7 34.85 41.85 L36.9 41.45 41.2 39.9 Q42.5 39.45 43.15 38.7 M6.45 23.15 L6.0 22.15 M5.55 21.15 L4.05 17.85 3.1 15.8 1.75 12.85 -0.2 8.45 Q-1.25 6.15 -0.3 4.75 0.3 4.25 1.2 3.9 L5.5 2.25 Q8.95 0.95 10.65 4.15 M1.6 14.3 L1.2 13.45 -0.75 9.05 Q-2.05 6.2 -0.3 4.75 M31.4 39.65 L30.3 40.0 31.4 39.65" fill="none" stroke="#003333" stroke-linecap="round" stroke-linejoin="round" stroke-opacity="0.50980395" stroke-width="0.05"/>
      <path d="M31.4 39.7 L20.4 43.2 Q16.1 44.55 14.2 40.5 L6.45 23.15 M6.0 22.15 L5.55 21.15 M10.65 4.15 L22.3 0.4 Q26.55 -1.0 28.45 3.1 L40.5 29.85 M4.05 17.85 L3.15 15.85" fill="none" stroke="#000000" stroke-linecap="round" stroke-linejoin="round" stroke-opacity="0.3019608" stroke-width="0.05"/>
      <path d="M9.15 13.6 Q9.8 12.8 9.55 11.6 L9.1 10.55 22.05 6.35 Q24.9 5.45 26.25 7.85 L26.5 8.3 35.8 29.0 35.95 29.35 Q34.75 29.3 34.1 30.1 33.45 30.9 33.7 32.1 L34.0 32.9 20.65 37.2 Q18.8 37.8 17.65 37.0 16.8 36.4 16.3 35.2 L6.95 14.6 6.8 14.4 7.1 14.4 Q8.4 14.45 9.15 13.6" fill="#fcf2cf" fill-rule="evenodd" stroke="none"/>
      <path d="M28.25 6.1 L35.55 22.3 39.35 30.75 Q41.1 34.5 37.2 35.7 L20.45 41.1 Q16.8 42.25 15.2 39.0 L15.0 38.6 8.25 23.65 3.35 12.8 Q1.65 9.1 5.5 7.85 L22.25 2.5 Q26.05 1.25 27.75 4.95 L28.25 6.1 M9.15 13.6 Q8.4 14.45 7.1 14.4 L6.8 14.4 6.95 14.6 16.3 35.2 Q16.8 36.4 17.65 37.0 18.8 37.8 20.65 37.2 L34.0 32.9 33.7 32.1 Q33.45 30.9 34.1 30.1 34.75 29.3 35.95 29.35 L35.8 29.0 26.5 8.3 26.25 7.85 Q24.9 5.45 22.05 6.35 L9.1 10.55 9.55 11.6 Q9.8 12.8 9.15 13.6" fill="#9f6b00" fill-rule="evenodd" stroke="none"/>
      <path d="M9.15 13.6 Q9.8 12.8 9.55 11.6 L9.1 10.55 22.05 6.35 Q24.9 5.45 26.25 7.85 L26.5 8.3 35.8 29.0 35.95 29.35 Q34.75 29.3 34.1 30.1 33.45 30.9 33.7 32.1 L34.0 32.9 20.65 37.2 Q18.8 37.8 17.65 37.0 16.8 36.4 16.3 35.2 L6.95 14.6 6.8 14.4 7.1 14.4 Q8.4 14.45 9.15 13.6" fill="none" stroke="#f0b92b" stroke-linecap="round" stroke-linejoin="round" stroke-width="0.05"/>
      <path d="M28.25 6.1 L35.55 22.3 M15.0 38.6 L8.25 23.65" fill="none" stroke="#feaa00" stroke-linecap="round" stroke-linejoin="round" stroke-width="1.0"/>
      <path d="M35.55 22.3 L39.35 30.75 Q41.1 34.5 37.2 35.7 L20.45 41.1 Q16.8 42.25 15.2 39.0 L15.0 38.6 M8.25 23.65 L3.35 12.8 Q1.65 9.1 5.5 7.85 L22.25 2.5 Q26.05 1.25 27.75 4.95 L28.25 6.1" fill="none" stroke="#fbeec5" stroke-linecap="round" stroke-linejoin="round" stroke-width="1.0"/>
    </g>
    <g id="sprite2" transform="matrix(1.0, 0.0, 0.0, 1.0, 0.0, 0.0)">
      <use height="13.75" transform="matrix(1.0, 0.0, 0.0, 1.0, 0.0, 0.0)" width="15.1" xlink:href="#shape2"/>
    </g>
    <g id="shape2" transform="matrix(1.0, 0.0, 0.0, 1.0, 0.0, 0.0)">
      <path d="M10.75 4.9 Q10.75 4.6 10.9 4.35 11.25 3.45 11.95 2.75 13.3 1.5 14.35 2.1 15.4 2.7 14.95 4.45 14.7 5.4 14.1 6.15 L13.75 6.5 Q13.1 7.15 12.35 7.35 L11.4 7.2 Q10.95 6.9 10.75 6.4 10.5 5.75 10.75 4.9 M7.5 5.9 Q7.0 5.85 6.6 5.5 6.05 5.0 5.8 4.15 L5.7 3.6 Q5.55 2.65 5.8 1.7 6.25 0.0 7.5 0.0 L7.6 0.0 Q8.85 0.0 9.3 1.7 9.55 2.65 9.4 3.6 L9.3 4.15 8.5 5.5 7.6 5.9 7.5 5.9 M4.35 4.9 Q4.6 5.75 4.35 6.4 L3.7 7.2 2.75 7.35 Q2.0 7.15 1.35 6.5 L1.0 6.15 Q0.4 5.4 0.15 4.45 -0.3 2.7 0.75 2.1 1.8 1.5 3.15 2.75 3.85 3.45 4.2 4.35 L4.35 4.9 M5.5 13.7 Q4.45 13.9 3.65 12.95 2.75 12.0 3.2 10.25 3.7 8.5 5.25 7.6 6.4 6.9 7.55 7.0 8.75 6.9 9.9 7.6 11.45 8.5 11.95 10.25 12.35 12.0 11.5 12.95 10.7 13.9 9.65 13.7 8.55 13.5 7.55 12.6 6.55 13.5 5.5 13.7" fill="#7fdbfe" fill-rule="evenodd" stroke="none"/>
    </g>
    <g id="sprite4" transform="matrix(1.0, 0.0, 0.0, 1.0, 0.05, 0.0)">
      <use height="211.65" transform="matrix(1.0, 0.0, 0.0, 1.0, -0.1, -0.05)" width="136.8" xlink:href="#shape3"/>
    </g>
    <g id="shape3" transform="matrix(1.0, 0.0, 0.0, 1.0, 0.1, 0.05)">
      <path d="M136.55 165.8 L68.6 106.0 68.4 106.0 118.25 201.5 M68.3 105.8 L68.35 105.8 68.3 105.8 68.3 105.85 68.4 106.0 68.3 106.0 86.55 211.5 M68.3 105.8 L68.3 105.85 68.3 106.0 68.15 105.95 18.25 151.55 M68.3 105.85 L68.25 105.85 68.3 106.0 50.0 193.2 M68.25 105.85 L68.15 105.95 0.05 97.7 M68.3 105.85 L68.25 105.8 68.25 105.85 M68.25 105.8 L68.2 105.7 0.0 45.7 M68.3 105.8 L68.25 105.75 68.25 105.8 M68.25 105.75 L68.2 105.7 18.25 10.05 M68.6 106.0 L68.35 105.8 118.25 60.15 M86.6 18.35 L68.3 105.8 M136.6 114.25 L68.6 106.0 M68.25 105.75 L49.95 0.05" fill="none" stroke="url(#gradient0)" stroke-linecap="round" stroke-linejoin="round" stroke-width="0.05"/>
    </g>
    <radialGradient cx="0" cy="0" gradientTransform="matrix(0.2092, 0.0, 0.0, 0.1771, 67.15, 107.2)" gradientUnits="userSpaceOnUse" id="gradient0" r="819.2" spreadMethod="pad">
      <stop offset="0.3568627450980392" stop-color="#ffffff"/>
      <stop offset="0.6705882352941176" stop-color="#000000" stop-opacity="0.0"/>
    </radialGradient>
    <g id="sprite6" transform="matrix(1.0, 0.0, 0.0, 1.0, -7.2, 19.15)">
      <use height="143.15" transform="matrix(1.0, 0.0, 0.0, 1.0, 5.7, -20.65)" width="118.9" xlink:href="#shape5"/>
      <use height="0.0" transform="matrix(0.5012, 0.3707, -0.3316, 0.4481, 104.35, 13.25)" width="0.0" xlink:href="#sprite7"/>
      <use height="0.0" transform="matrix(0.5999, 0.2373, -0.2872, 0.3882, 101.85, 11.6)" width="0.0" xlink:href="#sprite7"/>
      <use height="0.0" transform="matrix(0.3397, 0.2512, -0.3316, 0.4481, 83.6, -3.9)" width="0.0" xlink:href="#sprite7"/>
      <use height="0.0" transform="matrix(0.1366, -0.1634, 0.0642, 0.0586, 48.85, 57.15)" width="0.0" xlink:href="#sprite7"/>
      <use height="0.0" transform="matrix(0.0, -0.0567, 0.0703, 0.0029, 65.3, 21.0)" width="0.0" xlink:href="#sprite7"/>
    </g>
    <g id="shape5" transform="matrix(1.0, 0.0, 0.0, 1.0, -5.7, 20.65)">
      <path d="M90.7 28.35 L90.15 27.8" fill="none" stroke="#000000" stroke-linecap="round" stroke-linejoin="round" stroke-opacity="0.101960786" stroke-width="0.05"/>
      <path d="M86.5 -16.9 L82.15 -15.15 Q73.6 -11.2 70.95 -3.65 L71.6 1.8 69.95 11.8 69.95 11.9 69.9 12.15 69.9 12.25 70.0 12.15 69.9 13.1 68.45 13.3 68.2 13.4 68.1 13.45 Q57.2 16.6 58.5 27.15 L58.5 27.35 Q58.65 28.65 59.35 30.3 L57.45 31.7 57.15 32.0 54.7 33.75 54.1 34.3 29.45 67.0 27.7 69.35 24.5 73.6 20.15 79.4 12.7 89.25 12.95 89.2 12.85 89.5 11.8 90.8 11.9 91.55 11.75 91.4 11.6 91.9 11.8 90.8 Q9.25 97.5 9.2 101.6 9.15 102.55 9.25 103.35 L9.25 103.5 Q9.95 112.95 18.9 117.0 28.6 121.45 38.0 115.95 L39.1 114.85 63.8 82.95 64.3 82.35 64.85 81.75 67.1 78.7 74.15 69.65 75.6 67.4 75.95 66.5 84.5 55.4 85.9 49.4 Q89.95 49.65 91.75 48.55 102.1 42.95 99.55 34.15 L107.1 32.85 107.2 31.6 112.15 29.8 121.1 14.6 120.3 13.85 Q117.75 8.2 112.35 4.85 L111.0 4.05 100.65 3.3 100.6 -10.2 86.5 -16.9 Z" fill="none" stroke="#000000" stroke-linecap="round" stroke-linejoin="round" stroke-opacity="0.3019608" stroke-width="1.0"/>
      <path d="M69.1 71.3 Q67.65 72.55 65.0 73.8 59.25 76.45 50.6 77.5 41.95 78.55 35.7 77.4 29.4 76.25 29.05 73.5 28.95 72.5 29.75 71.5 30.9 69.8 34.55 68.15 40.35 65.5 49.0 64.45 57.65 63.4 63.85 64.55 70.2 65.7 70.5 68.4 70.6 69.1 70.3 69.8 L70.25 69.85 69.1 71.3" fill="#eefbff" fill-rule="evenodd" stroke="none"/>
      <path d="M29.75 71.5 Q28.95 72.5 29.05 73.5 29.4 76.25 35.7 77.4 41.95 78.55 50.6 77.5 59.25 76.45 65.0 73.8 67.65 72.55 69.1 71.3 L40.15 107.95 Q30.45 118.8 18.1 112.1 8.3 105.05 15.45 90.75 L29.7 71.5 29.75 71.5" fill="url(#gradient1)" fill-rule="evenodd" stroke="none"/>
      <path d="M69.1 71.3 Q67.65 72.55 65.0 73.8 59.25 76.45 50.6 77.5 41.95 78.55 35.7 77.4 29.4 76.25 29.05 73.5 28.95 72.5 29.75 71.5 L29.7 71.5 15.45 90.75 Q8.3 105.05 18.1 112.1 30.45 118.8 40.15 107.95 L69.1 71.3 70.25 69.85 70.3 69.8 Q70.6 69.1 70.5 68.4 70.2 65.7 63.85 64.55 57.65 63.4 49.0 64.45 40.35 65.5 34.55 68.15 30.9 69.8 29.75 71.5" fill="none" stroke="#ffffff" stroke-linecap="round" stroke-linejoin="round" stroke-opacity="0.4" stroke-width="0.05"/>
      <path d="M39.95 93.35 Q41.65 93.15 42.95 94.1 44.25 95.05 44.45 96.6 44.65 98.2 43.6 99.4 42.55 100.65 40.85 100.85 39.15 101.05 37.9 100.1 36.6 99.2 36.4 97.6 36.2 96.05 37.25 94.8 38.25 93.55 39.95 93.35 M46.75 78.55 Q49.5 78.2 51.75 79.75 54.05 81.45 54.4 84.1 54.7 86.65 52.85 88.85 51.1 91.0 48.35 91.35 45.55 91.7 43.2 90.05 40.85 88.35 40.55 85.8 40.2 83.15 42.1 80.95 43.95 78.9 46.75 78.55" fill="#ffffff" fill-opacity="0.2" fill-rule="evenodd" stroke="none"/>
      <path d="M86.7 49.2 L62.5 35.25" fill="none" stroke="#000000" stroke-linecap="round" stroke-linejoin="round" stroke-opacity="0.3019608" stroke-width="0.30000000000000004"/>
      <path d="M66.65 27.45 Q66.0 30.25 66.45 32.5 66.7 34.5 67.7 36.2 69.55 38.35 72.05 40.15 75.1 42.3 78.05 43.1 L78.95 43.35 79.95 43.5 80.85 43.9 Q83.5 44.0 86.1 42.8 L87.7 42.05 84.1 53.8 Q84.05 54.4 83.3 55.25 L83.35 55.45 80.9 59.0 77.8 63.5 77.5 63.9 77.35 63.8 74.7 67.2 75.55 66.5 75.55 66.65 75.5 67.1 74.1 69.4 67.0 78.4 64.75 81.45 64.25 82.1 63.7 82.7 39.0 114.6 37.9 115.7 Q28.5 121.2 18.8 116.75 9.9 112.65 9.15 103.2 L9.15 103.1 9.1 101.3 Q9.15 97.2 11.7 90.5 L12.7 89.2 12.85 88.95 20.4 79.1 24.35 73.3 27.6 69.05 29.35 66.65 54.0 34.05 54.65 33.5 65.9 25.1 66.2 27.5 66.65 27.45 M11.75 90.75 L11.7 90.5 11.5 91.65 11.65 91.15 11.8 91.2 11.8 91.0 11.75 90.75 M80.65 57.25 Q82.4 56.7 83.35 55.45 82.4 56.7 80.65 57.25 M33.8 72.25 L33.6 72.2 33.55 72.3 33.8 72.25 M39.8 74.3 L42.2 71.25 42.1 71.25 39.8 74.3 M36.95 113.75 L36.35 114.7 36.95 113.75 M10.25 99.1 L10.35 98.15 10.25 99.1" fill="url(#gradient2)" fill-rule="evenodd" stroke="none"/>
      <path d="M75.55 66.5 L74.7 67.2 77.35 63.8 77.5 63.9 75.9 66.25 75.55 66.5" fill="url(#gradient3)" fill-rule="evenodd" stroke="none"/>
      <path d="M75.5 67.1 L75.55 66.65 75.55 66.5 75.9 66.25 75.55 66.65 75.9 66.25 75.5 67.1" fill="url(#gradient4)" fill-rule="evenodd" stroke="none"/>
      <path d="M39.8 74.3 L42.1 71.25 42.2 71.25 39.8 74.3" fill="url(#gradient5)" fill-rule="evenodd" stroke="none"/>
      <path d="M24.35 73.3 L20.4 79.1 12.85 88.95 12.6 89.0 20.05 79.15 24.35 73.3" fill="#e6f0ed" fill-opacity="0.8" fill-rule="evenodd" stroke="none"/>
      <path d="M83.35 55.45 L83.3 55.25 Q84.05 54.4 84.1 53.8 L87.7 42.05 86.1 42.8 Q83.5 44.0 80.85 43.9 L79.95 43.5 78.95 43.35 78.05 43.1 Q75.1 42.3 72.05 40.15 69.55 38.35 67.7 36.2 66.7 34.5 66.45 32.5 66.0 30.25 66.65 27.45 M65.9 25.1 L54.65 33.5 54.0 34.05 29.35 66.65 27.6 69.05 24.35 73.3 20.4 79.1 12.85 88.95 12.7 89.2 11.7 90.5 Q9.15 97.2 9.1 101.3 L9.15 103.1 9.15 103.2 Q9.9 112.65 18.8 116.75 28.5 121.2 37.9 115.7 L39.0 114.6 63.7 82.7 64.25 82.1 64.75 81.45 67.0 78.4 74.1 69.4 75.5 67.1 75.55 66.65 75.9 66.25 77.5 63.9 77.8 63.5 80.9 59.0 83.35 55.45 Q82.4 56.7 80.65 57.25 M11.75 90.75 L11.8 91.0 11.65 91.15 11.5 91.65 M75.9 66.25 L75.5 67.1 M12.6 89.0 L20.05 79.15 24.35 73.3 M10.35 98.15 L10.25 99.1 M36.35 114.7 L36.95 113.75" fill="none" stroke="#000000" stroke-linecap="round" stroke-linejoin="round" stroke-opacity="0.3019608" stroke-width="0.30000000000000004"/>
      <path d="M96.2 28.2 L96.75 28.5 Q105.0 41.0 91.6 48.3 89.8 49.35 85.8 49.15 93.55 44.45 92.7 40.85 96.6 41.05 98.2 38.7 100.35 35.55 97.3 29.9 L97.1 29.6 96.2 28.2 M73.7 44.85 Q72.05 43.85 70.3 42.5 66.2 39.65 63.55 36.45 63.4 29.55 67.65 25.75 L68.35 26.65 68.55 27.2 71.15 30.0 71.55 30.45 76.5 34.4 80.55 37.0 84.0 38.75 Q79.65 44.1 73.7 44.85 M58.4 26.9 Q57.1 16.35 68.0 13.15 66.4 13.75 65.45 15.05 L64.85 15.85 Q64.65 16.25 64.6 16.6 58.7 20.55 58.4 27.1 L58.4 26.3 58.4 26.9" fill="#b0cfbf" fill-opacity="0.53333336" fill-rule="evenodd" stroke="none"/>
      <path d="M68.0 13.15 L68.1 13.15 68.35 13.05 Q70.6 12.5 74.0 13.05 80.3 14.45 87.3 19.3 L87.7 19.7 90.9 22.15 91.6 22.9 93.0 24.2 96.2 28.2 97.1 29.6 97.3 29.9 Q100.35 35.55 98.2 38.7 96.6 41.05 92.7 40.85 L91.15 40.7 89.65 40.5 85.8 39.4 84.0 38.75 80.55 37.0 76.5 34.4 71.55 30.45 71.15 30.0 68.55 27.2 68.35 26.65 67.65 25.75 67.45 25.4 66.45 23.7 Q64.85 20.9 64.6 18.85 64.35 17.6 64.6 16.6 64.65 16.25 64.85 15.85 L65.45 15.05 Q66.4 13.75 68.0 13.15 M83.65 21.15 Q76.2 16.1 71.4 17.05 69.05 22.7 77.05 28.9 L78.5 29.7 Q90.05 36.8 92.85 33.0 92.15 27.55 86.45 23.1 L83.65 21.15" fill="#bac8af" fill-opacity="0.53333336" fill-rule="evenodd" stroke="none"/>
      <path d="M63.55 36.45 Q61.6 34.3 60.25 31.95 58.7 29.25 58.4 27.1 L58.4 26.9 58.4 26.3 58.4 27.1 Q58.7 20.55 64.6 16.6 64.35 17.6 64.6 18.85 64.85 20.9 66.45 23.7 L67.45 25.4 67.65 25.75 Q63.4 29.55 63.55 36.45" fill="#e6f0ed" fill-opacity="0.84313726" fill-rule="evenodd" stroke="none"/>
      <path d="M78.5 29.7 L77.05 28.9 Q69.05 22.7 71.4 17.05 76.2 16.1 83.65 21.15 79.5 24.5 78.5 29.7" fill="#000000" fill-opacity="0.2901961" fill-rule="evenodd" stroke="none"/>
      <path d="M83.65 21.15 L86.45 23.1 Q92.15 27.55 92.85 33.0 90.05 36.8 78.5 29.7 79.5 24.5 83.65 21.15" fill="#000000" fill-opacity="0.14117648" fill-rule="evenodd" stroke="none"/>
      <path d="M85.8 49.15 L83.45 48.6 Q78.65 47.95 73.7 44.85 79.65 44.1 84.0 38.75 L85.8 39.4 89.65 40.5 91.15 40.7 92.7 40.85 Q93.55 44.45 85.8 49.15" fill="#d0dcc9" fill-opacity="0.53333336" fill-rule="evenodd" stroke="none"/>
      <path d="M68.0 13.15 L68.1 13.15 68.35 13.05 Q70.6 12.5 74.0 13.05 80.3 14.45 87.3 19.3 L87.7 19.7 90.9 22.15 91.6 22.9 93.0 24.2 96.2 28.2 97.1 29.6 97.3 29.9 Q100.35 35.55 98.2 38.7 96.6 41.05 92.7 40.85 L91.15 40.7 89.65 40.5 85.8 39.4 84.0 38.75 80.55 37.0 76.5 34.4 71.55 30.45 71.15 30.0 68.55 27.2 68.35 26.65 67.65 25.75 67.45 25.4 66.45 23.7 Q64.85 20.9 64.6 18.85 64.35 17.6 64.6 16.6 64.65 16.25 64.85 15.85 L65.45 15.05 Q66.4 13.75 68.0 13.15 57.1 16.35 58.4 26.9 L58.4 26.3 58.4 27.1 58.4 26.9 M96.75 28.5 Q105.0 41.0 91.6 48.3 89.8 49.35 85.8 49.15 L83.45 48.6 Q78.65 47.95 73.7 44.85 72.05 43.85 70.3 42.5 66.2 39.65 63.55 36.45 61.6 34.3 60.25 31.95 58.7 29.25 58.4 27.1 M78.5 29.7 L77.05 28.9 Q69.05 22.7 71.4 17.05 76.2 16.1 83.65 21.15 L86.45 23.1 Q92.15 27.55 92.85 33.0 90.05 36.8 78.5 29.7" fill="none" stroke="#000000" stroke-linecap="round" stroke-linejoin="round" stroke-opacity="0.3019608" stroke-width="0.30000000000000004"/>
      <path d="M84.7 50.95 Q82.45 54.25 76.75 53.95 71.1 53.7 65.2 50.0 59.3 46.1 56.65 41.05 54.1 35.95 56.2 32.7 58.35 29.3 60.9 33.8 63.4 38.15 71.4 43.45 79.25 48.5 83.05 48.0 86.85 47.55 84.7 50.95" fill="#382510" fill-opacity="0.2" fill-rule="evenodd" stroke="none"/>
      <path d="M63.4 37.15 Q65.1 38.85 70.35 25.85 L87.75 40.5 84.25 55.45 44.8 107.3 54.1 87.75 63.4 37.15" fill="url(#gradient6)" fill-rule="evenodd" stroke="none"/>
      <path d="M94.0 -4.45 L98.35 -11.1 100.3 -10.15 100.4 3.3 99.4 3.2 91.95 4.15 86.65 4.75 86.45 5.85 Q88.35 9.7 95.0 17.35 L108.55 25.65 120.0 13.9 120.75 14.6 111.85 29.75 106.9 31.6 106.75 32.75 89.95 35.65 78.85 30.85 78.85 30.55 78.95 15.9 79.55 13.75 79.75 13.75 79.85 13.6 80.3 13.15 82.7 6.9 82.6 6.85 87.3 2.15 94.0 -4.45 M86.45 5.85 L85.35 12.6 83.6 16.55 88.8 22.4 78.85 30.55 88.8 22.4 83.6 16.55 85.35 12.6 86.45 5.85 M78.6 30.75 L78.55 30.7 78.65 30.65 78.6 30.75" fill="#7e7a6b" fill-rule="evenodd" stroke="none"/>
      <path d="M94.0 -4.45 L81.8 -15.25 86.25 -16.9 98.35 -11.1 94.0 -4.45 M71.25 1.8 L88.25 1.15 87.3 2.15 82.6 6.85 82.7 6.9 80.3 13.15 79.85 13.6 79.75 13.75 79.55 13.75 69.0 18.15 69.65 12.15 69.6 12.2 69.55 12.1 69.65 11.8 69.65 11.7 71.25 1.8 M111.95 4.8 Q117.45 8.1 120.0 13.9 L108.55 25.65 95.0 17.35 Q88.35 9.7 86.45 5.85 L86.65 4.75 91.95 4.15 109.55 16.1 111.95 4.8 M69.65 11.8 L69.85 11.7 69.65 12.15 69.55 12.1 69.65 12.15 69.85 11.7 69.65 11.8" fill="#d9d9be" fill-rule="evenodd" stroke="none"/>
      <path d="M81.8 -15.25 L94.0 -4.45 87.3 2.15 88.25 1.15 71.25 1.8 70.6 -3.6 Q73.3 -11.25 81.8 -15.25 M91.95 4.15 L99.4 3.2 100.4 3.3 110.65 4.1 111.95 4.8 109.55 16.1 91.95 4.15" fill="#f0f0e1" fill-rule="evenodd" stroke="none"/>
      <path d="M78.85 30.85 L78.8 31.15 78.75 31.05 78.6 30.75 78.85 30.85 78.6 30.75 78.65 30.65 78.85 30.55 78.85 30.85 M76.65 28.45 L69.0 18.15 79.55 13.75 78.95 15.9 78.85 30.55 78.65 30.65 78.55 30.7 76.65 28.45" fill="#a8a893" fill-rule="evenodd" stroke="none"/>
      <path d="M98.35 -11.1 L86.25 -16.9 81.8 -15.25 Q73.3 -11.25 70.6 -3.6 L71.25 1.8 69.65 11.7 69.65 11.8 69.55 12.1 69.65 12.15 69.85 11.7 69.65 11.8 M100.4 3.3 L100.3 -10.15 98.35 -11.1 M91.95 4.15 L99.4 3.2 100.4 3.3 110.65 4.1 111.95 4.8 Q117.45 8.1 120.0 13.9 L120.75 14.6 111.85 29.75 106.9 31.6 106.75 32.75 89.95 35.65 78.85 30.85 78.6 30.75 78.55 30.7 76.65 28.45 69.0 18.15 69.65 12.15 69.6 12.2 69.55 12.1 M78.75 31.05 L76.65 28.45 M91.95 4.15 L86.65 4.75 86.45 5.85 85.35 12.6 83.6 16.55 88.8 22.4 78.85 30.55 78.65 30.65 78.55 30.7" fill="none" stroke="#000000" stroke-linecap="round" stroke-linejoin="round" stroke-opacity="0.3019608" stroke-width="1.5"/>
    </g>
    <radialGradient cx="0" cy="0" gradientTransform="matrix(0.0324, -0.004, 0.004, 0.0324, 36.95, 86.75)" gradientUnits="userSpaceOnUse" id="gradient1" r="819.2" spreadMethod="pad">
      <stop offset="0.00392156862745098" stop-color="#b1e7f8"/>
      <stop offset="1.0" stop-color="#2b9ebb"/>
    </radialGradient>
    <radialGradient cx="0" cy="0" gradientTransform="matrix(0.022, 0.0172, -0.0427, 0.0548, 41.7, 65.5)" gradientUnits="userSpaceOnUse" id="gradient2" r="819.2" spreadMethod="pad">
      <stop offset="0.0196078431372549" stop-color="#eaf2ed" stop-opacity="0.7019608"/>
      <stop offset="0.17647058823529413" stop-color="#dae8e1" stop-opacity="0.7019608"/>
      <stop offset="0.42745098039215684" stop-color="#b3d1c2" stop-opacity="0.12156863"/>
      <stop offset="0.7137254901960784" stop-color="#afcfbf" stop-opacity="0.03137255"/>
      <stop offset="0.9294117647058824" stop-color="#e2eee9" stop-opacity="0.6627451"/>
    </radialGradient>
    <linearGradient gradientTransform="matrix(-0.0384, 0.0632, -0.0066, -0.004, 45.7, 103.65)" gradientUnits="userSpaceOnUse" id="gradient3" spreadMethod="pad" x1="-819.2" x2="819.2">
      <stop offset="0.08627450980392157" stop-color="#dae9e2" stop-opacity="0.34117648"/>
      <stop offset="0.4470588235294118" stop-color="#afcfbf" stop-opacity="0.07058824"/>
    </linearGradient>
    <linearGradient gradientTransform="matrix(-0.0436, 0.0559, -0.0146, -0.0114, 65.9, 63.5)" gradientUnits="userSpaceOnUse" id="gradient4" spreadMethod="pad" x1="-819.2" x2="819.2">
      <stop offset="0.3215686274509804" stop-color="#dae9e2" stop-opacity="0.4117647"/>
      <stop offset="0.6274509803921569" stop-color="#afcfbf" stop-opacity="0.16078432"/>
    </linearGradient>
    <radialGradient cx="0" cy="0" gradientTransform="matrix(0.0041, -5.0E-4, 5.0E-4, 0.0041, 39.55, 73.6)" gradientUnits="userSpaceOnUse" id="gradient5" r="819.2" spreadMethod="pad">
      <stop offset="0.0196078431372549" stop-color="#eaf2ed" stop-opacity="0.7019608"/>
      <stop offset="0.17647058823529413" stop-color="#dae8e1" stop-opacity="0.7019608"/>
      <stop offset="0.42745098039215684" stop-color="#b3d1c2" stop-opacity="0.12156863"/>
      <stop offset="0.7137254901960784" stop-color="#afcfbf" stop-opacity="0.03137255"/>
      <stop offset="0.9294117647058824" stop-color="#e2eee9" stop-opacity="0.6627451"/>
    </radialGradient>
    <linearGradient gradientTransform="matrix(0.0215, -0.0026, 0.0036, 0.0296, 75.7, 58.9)" gradientUnits="userSpaceOnUse" id="gradient6" spreadMethod="pad" x1="-819.2" x2="819.2">
      <stop offset="0.0" stop-color="#000000" stop-opacity="0.0"/>
      <stop offset="0.9803921568627451" stop-color="#000000" stop-opacity="0.44313726"/>
    </linearGradient>
    <g id="shape6" transform="matrix(1.0, 0.0, 0.0, 1.0, -4.9, -53.3)">
      <path d="M37.8 93.2 L26.1 97.0 Q23.45 97.8 21.8 96.65 20.65 95.9 19.95 94.25 L8.0 67.8 7.9 67.65 7.5 66.8 5.55 62.4 Q4.25 59.55 6.0 58.1 L7.5 57.25 11.8 55.6 Q15.25 54.3 16.95 57.5 L28.6 53.75 Q32.85 52.35 34.75 56.45 L46.85 83.3 47.2 84.05 49.25 88.5 Q50.25 90.7 49.45 92.05 48.8 93.05 47.25 93.6 L42.95 95.15 41.4 95.55 Q39.05 95.65 37.8 93.2 Z" fill="none" stroke="#ffcc00" stroke-linecap="round" stroke-linejoin="round" stroke-width="0.05"/>
    </g>
    <g id="shape7" transform="matrix(1.0, 0.0, 0.0, 1.0, -14.7, -59.4)">
      <path d="M33.85 83.75 L33.85 83.8 33.85 83.95 33.85 84.0 33.85 84.1 33.9 84.1 33.9 84.15 34.35 84.4 34.85 84.75 34.35 84.45 34.1 84.3 34.05 84.25 33.95 84.2 33.9 84.2 33.9 84.7 33.9 85.25 33.85 84.75 33.75 84.2 33.7 84.1 33.5 84.25 33.0 84.55 32.7 84.7 32.95 84.5 33.4 84.3 33.45 84.25 33.5 84.2 33.7 84.1 33.65 84.05 33.7 84.05 33.7 84.0 33.3 83.6 32.95 83.25 33.3 83.55 33.55 83.8 33.7 83.95 33.8 83.4 33.9 82.95 33.85 83.35 33.85 83.75 M34.25 84.0 L34.15 84.0 33.9 84.05 34.15 83.95 34.7 83.75 35.2 83.65 34.85 83.75 34.95 83.85 34.85 83.75 34.7 83.8 34.4 83.9 34.35 83.9 34.25 84.0 M34.95 83.85 L35.65 84.4 36.45 85.15 36.5 85.2 36.75 85.45 36.9 85.55 36.9 85.5 37.1 83.9 37.35 82.3 37.45 81.75 37.4 82.25 37.4 83.85 37.2 85.6 37.35 86.0 37.4 86.1 38.7 86.9 40.15 87.75 40.55 88.05 40.1 87.8 38.75 87.05 37.75 86.45 37.4 86.25 37.35 86.2 37.4 86.3 37.5 87.75 37.55 89.45 37.6 90.0 37.5 89.5 37.25 87.9 37.05 86.25 37.0 86.3 36.9 85.9 36.7 85.75 36.9 85.85 36.9 85.65 35.7 84.55 34.95 83.85 M35.7 86.65 L36.1 86.45 36.2 86.4 36.85 86.1 36.3 86.45 34.8 87.25 33.35 88.0 32.8 88.25 33.3 88.0 34.65 87.2 35.7 86.65 M41.85 84.45 L41.35 84.6 39.85 85.15 38.15 85.7 37.5 85.9 Q37.45 85.85 38.1 85.65 L39.7 85.1 41.3 84.6 41.85 84.45" fill="#fefd8d" fill-opacity="0.972549" fill-rule="evenodd" stroke="none"/>
      <path d="M33.85 83.75 L34.05 83.4 34.25 83.2 34.15 83.4 34.0 83.8 33.9 83.9 33.85 83.8 33.85 83.75 M34.1 84.3 L34.35 84.5 34.45 84.65 34.25 84.5 34.0 84.3 33.95 84.2 34.05 84.25 34.1 84.3 M33.4 84.3 L33.3 84.3 32.95 84.45 32.7 84.55 32.95 84.4 33.35 84.25 33.45 84.25 33.4 84.3 M33.55 83.8 L33.4 83.6 33.6 83.8 33.65 83.9 33.55 83.8 M34.25 84.0 L34.35 83.9 34.4 83.9 34.65 83.85 34.95 83.85 35.05 83.8 34.95 83.85 34.7 83.9 34.3 84.0 34.2 84.0 34.25 84.0 M36.45 85.15 L35.85 84.4 35.45 83.85 35.95 84.3 36.65 85.15 36.9 85.5 36.75 85.45 36.5 85.2 36.45 85.15 M37.75 86.45 Q38.15 86.7 38.6 87.1 L39.3 87.75 38.5 87.15 37.6 86.5 37.4 86.3 37.35 86.2 37.4 86.25 37.75 86.45 M33.6 84.3 L33.7 84.2 33.75 84.35 33.65 84.7 33.55 85.05 33.55 84.75 33.6 84.3 M35.7 86.65 L34.7 87.0 33.8 87.3 34.7 86.95 35.75 86.5 36.1 86.45 35.7 86.65 M37.65 85.15 L37.35 85.5 37.35 85.0 37.9 84.05 38.5 83.1 38.7 82.75 38.55 83.1 38.15 84.05 37.65 85.15 M38.7 85.65 L38.25 85.7 38.7 85.55 39.75 85.35 40.7 85.2 41.05 85.15 40.75 85.25 39.8 85.45 38.7 85.65 M36.7 86.7 L36.95 86.25 37.0 86.75 36.65 87.8 36.3 88.85 36.15 89.25 36.25 88.85 36.4 87.85 Q36.5 87.1 36.7 86.7" fill="#fffd8f" fill-opacity="0.4" fill-rule="evenodd" stroke="none"/>
      <path d="M38.0 86.75 Q37.9 86.0 37.45 85.8 L36.9 85.85 Q36.75 86.1 36.9 86.5 37.1 87.0 37.65 87.3 L38.35 87.95 38.6 88.25 38.45 87.85 38.0 86.75" fill="#fffd8f" fill-opacity="0.39215687" fill-rule="evenodd" stroke="none"/>
      <path d="M38.0 86.25 L37.05 85.85 Q36.8 85.8 36.95 85.95 L37.55 86.35 38.35 86.6 Q38.8 86.65 39.05 86.85 L39.35 86.95 39.0 86.75 38.0 86.25" fill="#fffd8f" fill-opacity="0.39215687" fill-rule="evenodd" stroke="none"/>
      <path d="M36.4 84.8 Q36.35 85.55 36.75 85.85 L37.3 85.9 37.45 85.25 Q37.35 84.75 36.9 84.35 36.35 83.9 36.3 83.55 L36.1 83.25 36.2 83.65 36.4 84.8" fill="#fffd8f" fill-opacity="0.39215687" fill-rule="evenodd" stroke="none"/>
      <path d="M36.25 85.35 L37.1 85.95 37.2 85.8 36.75 85.3 35.95 84.9 Q35.55 84.75 35.3 84.6 L35.05 84.45 35.35 84.65 36.25 85.35" fill="#fffd8f" fill-opacity="0.39215687" fill-rule="evenodd" stroke="none"/>
      <path d="M38.75 85.2 Q38.0 85.45 37.85 85.65 37.7 85.85 37.85 85.8 L38.5 85.65 39.25 85.2 39.9 84.75 40.15 84.6 39.75 84.75 38.75 85.2" fill="#fffd8f" fill-opacity="0.39215687" fill-rule="evenodd" stroke="none"/>
      <path d="M35.75 87.0 L36.6 86.4 36.5 86.25 Q36.25 86.25 35.9 86.5 L35.25 87.1 34.7 87.65 Q34.4 87.8 34.45 87.85 L34.8 87.6 35.75 87.0" fill="#fffd8f" fill-opacity="0.39215687" fill-rule="evenodd" stroke="none"/>
      <path d="M34.1 84.35 L33.95 84.05 33.75 84.05 Q33.65 84.1 33.7 84.25 L34.0 84.55 34.2 84.75 34.3 84.85 34.2 84.75 34.1 84.35" fill="#fffd8f" fill-opacity="0.39215687" fill-rule="evenodd" stroke="none"/>
      <path d="M34.1 84.2 Q33.9 84.05 33.75 84.05 L33.75 84.1 33.95 84.2 34.2 84.3 34.5 84.4 34.55 84.4 34.45 84.4 34.1 84.2" fill="#fffd8f" fill-opacity="0.39215687" fill-rule="evenodd" stroke="none"/>
      <path d="M33.5 83.65 L33.65 84.05 33.85 84.05 33.9 83.85 33.65 83.55 33.5 83.25 33.45 83.15 33.5 83.25 33.5 83.65" fill="#fffd8f" fill-opacity="0.39215687" fill-rule="evenodd" stroke="none"/>
      <path d="M33.5 83.9 L33.75 84.05 33.8 84.0 33.65 83.85 33.35 83.7 33.2 83.6 33.05 83.55 33.15 83.6 33.5 83.9" fill="#fffd8f" fill-opacity="0.39215687" fill-rule="evenodd" stroke="none"/>
      <path d="M34.3 83.8 L34.05 83.95 34.05 84.0 34.25 83.95 34.55 83.8 Q34.6 83.7 34.7 83.7 L34.8 83.6 34.7 83.65 34.3 83.8" fill="#fffd8f" fill-opacity="0.39215687" fill-rule="evenodd" stroke="none"/>
      <path d="M33.3 84.45 L33.6 84.2 33.6 84.15 Q33.5 84.15 33.4 84.3 L33.15 84.45 32.95 84.65 32.85 84.75 33.0 84.6 33.3 84.45" fill="#fffd8f" fill-opacity="0.39215687" fill-rule="evenodd" stroke="none"/>
      <path d="M36.3 85.35 Q36.05 85.7 36.05 86.15 L36.5 86.9 37.3 87.15 38.05 86.75 38.25 85.9 37.85 85.2 37.05 84.95 36.3 85.35" fill="#ffffff" fill-rule="evenodd" stroke="none"/>
      <path d="M18.75 62.3 L18.65 62.35 18.2 62.45 18.6 62.25 19.85 61.9 21.0 61.5 21.4 61.35 21.05 61.5 19.9 61.9 18.75 62.3 M17.45 61.95 L17.7 62.2 17.75 62.2 17.7 62.15 17.85 61.05 18.05 59.85 18.15 59.4 18.1 59.8 18.05 61.0 18.0 62.25 18.1 62.6 19.15 63.2 20.0 63.75 19.15 63.3 18.5 62.95 18.4 62.85 18.15 62.7 18.1 62.7 18.15 62.75 18.2 63.85 18.2 64.9 18.0 64.0 17.85 62.8 17.8 62.8 17.75 62.45 17.6 62.3 17.7 62.35 17.7 62.3 16.85 61.5 15.9 60.65 15.65 60.35 15.95 60.65 16.8 61.4 17.45 61.95 M14.7 64.25 L15.05 64.05 16.1 63.45 17.25 62.85 17.7 62.65 17.3 62.95 16.2 63.45 15.1 64.05 14.7 64.25" fill="#fefd8d" fill-opacity="0.972549" fill-rule="evenodd" stroke="none"/>
      <path d="M18.75 62.3 L19.1 62.2 19.85 62.05 20.6 61.95 19.85 62.15 19.05 62.3 18.75 62.3 M17.45 61.95 L16.95 61.35 16.5 60.75 17.0 61.3 17.55 61.95 17.7 62.15 17.75 62.2 17.7 62.2 17.45 61.95 M18.5 62.95 L19.0 63.35 19.6 63.8 19.8 64.0 19.6 63.85 18.95 63.4 18.3 62.9 18.15 62.75 18.1 62.7 18.15 62.7 18.4 62.85 18.5 62.95 M18.3 61.9 L18.05 62.2 18.1 61.85 18.45 61.15 18.9 60.4 19.1 60.2 18.95 60.4 18.65 61.15 18.3 61.9 M16.9 62.9 L17.2 62.85 Q17.15 62.9 16.85 63.05 L16.15 63.3 15.45 63.55 15.2 63.6 15.45 63.5 16.1 63.25 Q16.6 63.0 16.9 62.9 M17.55 63.1 L17.75 62.75 17.8 63.1 17.6 63.95 17.25 64.7 17.15 64.95 17.2 64.7 17.4 63.9 Q17.4 63.4 17.55 63.1" fill="#fffd8f" fill-opacity="0.4" fill-rule="evenodd" stroke="none"/>
      <path d="M18.6 63.1 L18.15 62.4 17.7 62.45 17.75 62.95 18.3 63.55 Q18.75 63.8 18.8 64.0 L19.0 64.25 18.85 63.95 18.6 63.1" fill="#fffd8f" fill-opacity="0.39215687" fill-rule="evenodd" stroke="none"/>
      <path d="M18.55 62.7 Q18.05 62.4 17.9 62.4 17.7 62.4 17.8 62.5 L18.25 62.8 18.85 63.0 19.35 63.15 19.6 63.2 19.35 63.1 18.55 62.7" fill="#fffd8f" fill-opacity="0.39215687" fill-rule="evenodd" stroke="none"/>
      <path d="M17.3 61.7 Q17.35 62.3 17.55 62.45 L18.0 62.5 18.1 62.0 17.65 61.35 17.25 60.75 17.15 60.5 17.2 60.8 17.3 61.7" fill="#fffd8f" fill-opacity="0.39215687" fill-rule="evenodd" stroke="none"/>
      <path d="M17.25 62.1 L17.9 62.5 17.95 62.45 17.6 62.05 17.05 61.75 16.55 61.5 16.35 61.4 16.55 61.6 Q16.8 61.7 17.25 62.1" fill="#fffd8f" fill-opacity="0.39215687" fill-rule="evenodd" stroke="none"/>
      <path d="M19.05 61.9 L18.4 62.3 18.45 62.4 18.9 62.3 19.5 61.95 19.95 61.6 20.15 61.5 19.85 61.6 19.05 61.9" fill="#fffd8f" fill-opacity="0.39215687" fill-rule="evenodd" stroke="none"/>
      <path d="M16.9 63.3 L17.5 62.85 17.45 62.7 17.05 62.9 16.5 63.35 16.15 63.75 15.95 63.95 16.2 63.75 16.9 63.3" fill="#fffd8f" fill-opacity="0.39215687" fill-rule="evenodd" stroke="none"/>
      <path d="M17.4 62.1 Q17.15 62.35 17.2 62.65 L17.55 63.25 18.1 63.4 18.7 63.1 18.85 62.5 18.55 61.95 17.9 61.75 17.4 62.1" fill="#ffffff" fill-rule="evenodd" stroke="none"/>
      <path d="M33.55 83.9 L33.45 84.15 33.6 84.45 33.85 84.5 34.15 84.4 34.2 84.05 34.1 83.85 33.75 83.75 33.55 83.9" fill="#ffffff" fill-rule="evenodd" stroke="none"/>
    </g>
  </defs>
</svg>
