<?xml version="1.0" encoding="UTF-8" standalone="no"?>
<svg xmlns:xlink="http://www.w3.org/1999/xlink" height="60.0px" width="60.0px" xmlns="http://www.w3.org/2000/svg">
  <g transform="matrix(1.0, 0.0, 0.0, 1.0, 0.0, 0.0)">
    <use height="60.0" transform="matrix(1.0, 0.0, 0.0, 1.0, 0.0, 0.0)" width="60.0" xlink:href="#shape0"/>
    <use height="50.25" transform="matrix(1.1549, 0.0, 0.0, 1.1549, 1.3296, -2.7257)" width="47.85" xlink:href="#sprite0"/>
  </g>
  <defs>
    <g id="shape0" transform="matrix(1.0, 0.0, 0.0, 1.0, 0.0, 0.0)">
      <path d="M0.0 0.0 L60.0 0.0 60.0 60.0 0.0 60.0 0.0 0.0" fill="#000000" fill-opacity="0.003921569" fill-rule="evenodd" stroke="none"/>
    </g>
    <g id="sprite0" transform="matrix(1.0, 0.0, 0.0, 1.0, -2.45, -47.6)">
      <use height="44.95" transform="matrix(1.0, 0.0, 0.0, 1.0, 4.5, 52.9)" width="45.8" xlink:href="#sprite1"/>
      <clipPath id="clipPath0" transform="matrix(1.0, 0.0, 0.0, 1.0, 0.0, 0.0)">
        <path d="M37.9 92.95 L26.2 96.75 Q23.55 97.55 21.9 96.4 20.75 95.65 20.05 94.0 L8.1 67.55 8.0 67.4 7.6 66.55 5.65 62.15 Q4.35 59.3 6.1 57.85 6.7 57.35 7.6 57.0 L11.9 55.35 Q15.35 54.05 17.05 57.25 L28.7 53.5 Q32.95 52.1 34.85 56.2 L46.95 83.05 47.3 83.8 49.35 88.25 Q50.35 90.45 49.55 91.8 48.9 92.8 47.35 93.35 L43.05 94.9 41.5 95.3 Q39.15 95.4 37.9 92.95" fill="#006699" fill-rule="evenodd" stroke="none"/>
      </clipPath>
      <g clip-path="url(#clipPath0)">
        <use height="0.0" transform="matrix(1.1932, 0.0, 0.0, 1.1932, 2.45, 49.2)" width="0.0" xlink:href="#sprite5"/>
      </g>
      <use height="142.65" transform="matrix(-0.146, 0.0489, 0.0617, 0.1404, 32.239, 62.1032)" width="113.95" xlink:href="#sprite6"/>
      <use height="44.05" transform="matrix(1.0, 0.0, 0.0, 1.0, 4.95, 53.35)" width="44.9" xlink:href="#shape38"/>
      <clipPath id="clipPath1" transform="matrix(1.0, 0.0, 0.0, 1.0, 0.0, 0.0)">
        <path d="M37.9 92.95 L26.2 96.75 Q23.55 97.55 21.9 96.4 20.75 95.65 20.05 94.0 L8.1 67.55 8.0 67.4 7.6 66.55 5.65 62.15 Q4.35 59.3 6.1 57.85 6.7 57.35 7.6 57.0 L11.9 55.35 Q15.35 54.05 17.05 57.25 L28.7 53.5 Q32.95 52.1 34.85 56.2 L46.95 83.05 47.3 83.8 49.35 88.25 Q50.35 90.45 49.55 91.8 48.9 92.8 47.35 93.35 L43.05 94.9 41.5 95.3 Q39.15 95.4 37.9 92.95" fill="#006699" fill-rule="evenodd" stroke="none"/>
      </clipPath>
      <g clip-path="url(#clipPath1)">
        <use height="0.0" transform="matrix(1.0, 0.0, 0.0, 1.0, 9.65, 51.0)" width="0.0" xlink:href="#sprite43"/>
        <use height="0.0" transform="matrix(1.0, 0.0, 0.0, 1.0, 9.65, 47.6)" width="0.0" xlink:href="#sprite43"/>
        <use height="30.6" transform="matrix(1.0, 0.0, 0.0, 1.0, 14.7, 59.4)" width="27.15" xlink:href="#shape39"/>
      </g>
      <use height="0.0" transform="matrix(0.1411, -0.0378, 0.1114, 0.2256, 27.2, 74.05)" width="0.0" xlink:href="#sprite3"/>
    </g>
    <g id="sprite1" transform="matrix(1.0, 0.0, 0.0, 1.0, 1.8, 0.45)">
      <use height="46.95" transform="matrix(1.0, 0.0, 0.0, 1.0, -2.8, -1.45)" width="47.8" xlink:href="#shape1"/>
      <use height="13.75" transform="matrix(0.2389, -0.0867, 0.1003, 0.2339, 34.25, 31.15)" width="15.1" xlink:href="#sprite2"/>
      <use height="13.75" transform="matrix(0.2389, -0.0867, 0.1003, 0.2339, 4.25, 10.3)" width="15.1" xlink:href="#sprite2"/>
      <use height="0.0" transform="matrix(0.1411, -0.0378, 0.1114, 0.2256, 20.25, 20.65)" width="0.0" xlink:href="#sprite3"/>
      <use height="211.45" transform="matrix(-0.155, 0.0513, 0.0842, 0.147, 22.6042, 3.1574)" width="136.6" xlink:href="#sprite4"/>
    </g>
    <g id="shape1" transform="matrix(1.0, 0.0, 0.0, 1.0, 2.8, 1.45)">
      <path d="M31.5 39.85 L19.8 43.65 Q17.15 44.45 15.5 43.3 14.35 42.55 13.65 40.9 L1.7 14.45 1.6 14.3 1.2 13.45 -0.75 9.05 Q-2.05 6.2 -0.3 4.75 0.3 4.25 1.2 3.9 L5.5 2.25 Q8.95 0.95 10.65 4.15 L22.3 0.4 Q26.55 -1.0 28.45 3.1 L40.55 29.95 40.9 30.7 42.95 35.15 Q43.95 37.35 43.15 38.7 42.5 39.7 40.95 40.25 L36.65 41.8 35.1 42.2 Q32.75 42.3 31.5 39.85" fill="#006699" fill-rule="evenodd" stroke="none"/>
      <path d="M31.5 39.85 L19.8 43.65 Q17.15 44.45 15.5 43.3 14.35 42.55 13.65 40.9 L1.7 14.45 1.6 14.3 1.2 13.45 -0.75 9.05 Q-2.05 6.2 -0.3 4.75 0.3 4.25 1.2 3.9 L5.5 2.25 Q8.95 0.95 10.65 4.15 L22.3 0.4 Q26.55 -1.0 28.45 3.1 L40.55 29.95 40.9 30.7 42.95 35.15 Q43.95 37.35 43.15 38.7 42.5 39.7 40.95 40.25 L36.65 41.8 35.1 42.2 Q32.75 42.3 31.5 39.85 Z" fill="none" stroke="#000000" stroke-linecap="round" stroke-linejoin="round" stroke-opacity="0.29803923" stroke-width="1.0"/>
      <path d="M0.75 8.25 L29.8 9.75 25.55 0.9 Q26.9 1.6 27.8 3.55 L40.7 32.15 Q42.6 36.3 38.3 37.65 L23.3 42.5 13.15 21.4 4.6 20.9 0.7 12.25 Q-0.45 9.75 0.75 8.25 M20.1 43.55 L19.8 43.65 Q17.15 44.45 15.5 43.3 L20.1 43.55" fill="#5b3c00" fill-rule="evenodd" stroke="none"/>
      <path d="M25.55 0.9 L29.8 9.75 0.75 8.25 Q1.45 7.3 3.1 6.75 L21.65 0.8 25.55 0.9 M4.6 20.9 L13.15 21.4 23.3 42.5 20.1 43.55 15.5 43.3 Q14.35 42.55 13.65 40.9 L4.6 20.9" fill="#724b00" fill-rule="evenodd" stroke="none"/>
      <path d="M0.75 8.25 Q-0.45 9.75 0.7 12.25 L4.6 20.9 13.65 40.9 Q14.35 42.55 15.5 43.3 17.15 44.45 19.8 43.65 L20.1 43.55 23.3 42.5 38.3 37.65 Q42.6 36.3 40.7 32.15 L27.8 3.55 Q26.9 1.6 25.55 0.9 L21.65 0.8 3.1 6.75 Q1.45 7.3 0.75 8.25 Z" fill="none" stroke="#000000" stroke-linecap="round" stroke-linejoin="round" stroke-opacity="0.3019608" stroke-width="0.05"/>
      <path d="M40.5 29.85 L40.55 29.95 40.9 30.7 42.95 35.15 Q43.95 37.35 43.15 38.7 42.5 39.45 41.2 39.9 L36.9 41.45 34.85 41.85 Q32.9 41.7 31.8 39.55 L31.75 39.5 31.4 39.65 30.3 40.0 31.4 39.65 31.4 39.7 20.4 43.2 Q16.1 44.55 14.2 40.5 L6.45 23.15 6.0 22.15 5.55 21.15 4.05 17.85 3.15 15.85 3.1 15.8 1.75 12.85 -0.2 8.45 Q-1.25 6.15 -0.3 4.75 0.3 4.25 1.2 3.9 L5.5 2.25 Q8.95 0.95 10.65 4.15 L22.3 0.4 Q26.55 -1.0 28.45 3.1 L40.5 29.85" fill="#fed00b" fill-rule="evenodd" stroke="none"/>
      <path d="M43.15 38.7 Q42.5 39.7 40.95 40.25 L36.65 41.8 35.1 42.2 Q32.75 42.3 31.45 39.8 L31.4 39.7 31.4 39.65 31.75 39.5 31.8 39.55 Q32.9 41.7 34.85 41.85 L36.9 41.45 41.2 39.9 Q42.5 39.45 43.15 38.7 M3.1 15.8 Q2.25 15.35 1.6 14.3 L1.2 13.45 -0.75 9.05 Q-2.05 6.2 -0.3 4.75 -1.25 6.15 -0.2 8.45 L1.75 12.85 3.1 15.8" fill="#5b3c00" fill-rule="evenodd" stroke="none"/>
      <path d="M31.4 39.65 L30.3 40.0 31.4 39.65" fill="#9d147b" fill-rule="evenodd" stroke="none"/>
      <path d="M40.5 29.85 L40.55 29.95 40.9 30.7 42.95 35.15 Q43.95 37.35 43.15 38.7 42.5 39.7 40.95 40.25 L36.65 41.8 35.1 42.2 Q32.75 42.3 31.45 39.8 L31.4 39.7 31.4 39.65 31.75 39.5 31.8 39.55 Q32.9 41.7 34.85 41.85 L36.9 41.45 41.2 39.9 Q42.5 39.45 43.15 38.7 M6.45 23.15 L6.0 22.15 M5.55 21.15 L4.05 17.85 3.1 15.8 1.75 12.85 -0.2 8.45 Q-1.25 6.15 -0.3 4.75 0.3 4.25 1.2 3.9 L5.5 2.25 Q8.95 0.95 10.65 4.15 M1.6 14.3 L1.2 13.45 -0.75 9.05 Q-2.05 6.2 -0.3 4.75 M31.4 39.65 L30.3 40.0 31.4 39.65" fill="none" stroke="#003333" stroke-linecap="round" stroke-linejoin="round" stroke-opacity="0.50980395" stroke-width="0.05"/>
      <path d="M31.4 39.7 L20.4 43.2 Q16.1 44.55 14.2 40.5 L6.45 23.15 M6.0 22.15 L5.55 21.15 M10.65 4.15 L22.3 0.4 Q26.55 -1.0 28.45 3.1 L40.5 29.85 M4.05 17.85 L3.15 15.85" fill="none" stroke="#000000" stroke-linecap="round" stroke-linejoin="round" stroke-opacity="0.3019608" stroke-width="0.05"/>
      <path d="M9.15 13.6 Q9.8 12.8 9.55 11.6 L9.1 10.55 22.05 6.35 Q24.9 5.45 26.25 7.85 L26.5 8.3 35.8 29.0 35.95 29.35 Q34.75 29.3 34.1 30.1 33.45 30.9 33.7 32.1 L34.0 32.9 20.65 37.2 Q18.8 37.8 17.65 37.0 16.8 36.4 16.3 35.2 L6.95 14.6 6.8 14.4 7.1 14.4 Q8.4 14.45 9.15 13.6" fill="#fcf2cf" fill-rule="evenodd" stroke="none"/>
      <path d="M28.25 6.1 L35.55 22.3 39.35 30.75 Q41.1 34.5 37.2 35.7 L20.45 41.1 Q16.8 42.25 15.2 39.0 L15.0 38.6 8.25 23.65 3.35 12.8 Q1.65 9.1 5.5 7.85 L22.25 2.5 Q26.05 1.25 27.75 4.95 L28.25 6.1 M9.15 13.6 Q8.4 14.45 7.1 14.4 L6.8 14.4 6.95 14.6 16.3 35.2 Q16.8 36.4 17.65 37.0 18.8 37.8 20.65 37.2 L34.0 32.9 33.7 32.1 Q33.45 30.9 34.1 30.1 34.75 29.3 35.95 29.35 L35.8 29.0 26.5 8.3 26.25 7.85 Q24.9 5.45 22.05 6.35 L9.1 10.55 9.55 11.6 Q9.8 12.8 9.15 13.6" fill="#9f6b00" fill-rule="evenodd" stroke="none"/>
      <path d="M9.15 13.6 Q9.8 12.8 9.55 11.6 L9.1 10.55 22.05 6.35 Q24.9 5.45 26.25 7.85 L26.5 8.3 35.8 29.0 35.95 29.35 Q34.75 29.3 34.1 30.1 33.45 30.9 33.7 32.1 L34.0 32.9 20.65 37.2 Q18.8 37.8 17.65 37.0 16.8 36.4 16.3 35.2 L6.95 14.6 6.8 14.4 7.1 14.4 Q8.4 14.45 9.15 13.6" fill="none" stroke="#f0b92b" stroke-linecap="round" stroke-linejoin="round" stroke-width="0.05"/>
      <path d="M28.25 6.1 L35.55 22.3 M15.0 38.6 L8.25 23.65" fill="none" stroke="#feaa00" stroke-linecap="round" stroke-linejoin="round" stroke-width="1.0"/>
      <path d="M35.55 22.3 L39.35 30.75 Q41.1 34.5 37.2 35.7 L20.45 41.1 Q16.8 42.25 15.2 39.0 L15.0 38.6 M8.25 23.65 L3.35 12.8 Q1.65 9.1 5.5 7.85 L22.25 2.5 Q26.05 1.25 27.75 4.95 L28.25 6.1" fill="none" stroke="#fbeec5" stroke-linecap="round" stroke-linejoin="round" stroke-width="1.0"/>
    </g>
    <g id="sprite2" transform="matrix(1.0, 0.0, 0.0, 1.0, 0.0, 0.0)">
      <use height="13.75" transform="matrix(1.0, 0.0, 0.0, 1.0, 0.0, 0.0)" width="15.1" xlink:href="#shape2"/>
    </g>
    <g id="shape2" transform="matrix(1.0, 0.0, 0.0, 1.0, 0.0, 0.0)">
      <path d="M10.75 4.9 Q10.75 4.6 10.9 4.35 11.25 3.45 11.95 2.75 13.3 1.5 14.35 2.1 15.4 2.7 14.95 4.45 14.7 5.4 14.1 6.15 L13.75 6.5 Q13.1 7.15 12.35 7.35 L11.4 7.2 Q10.95 6.9 10.75 6.4 10.5 5.75 10.75 4.9 M7.5 5.9 Q7.0 5.85 6.6 5.5 6.05 5.0 5.8 4.15 L5.7 3.6 Q5.55 2.65 5.8 1.7 6.25 0.0 7.5 0.0 L7.6 0.0 Q8.85 0.0 9.3 1.7 9.55 2.65 9.4 3.6 L9.3 4.15 8.5 5.5 7.6 5.9 7.5 5.9 M4.35 4.9 Q4.6 5.75 4.35 6.4 L3.7 7.2 2.75 7.35 Q2.0 7.15 1.35 6.5 L1.0 6.15 Q0.4 5.4 0.15 4.45 -0.3 2.7 0.75 2.1 1.8 1.5 3.15 2.75 3.85 3.45 4.2 4.35 L4.35 4.9 M5.5 13.7 Q4.45 13.9 3.65 12.95 2.75 12.0 3.2 10.25 3.7 8.5 5.25 7.6 6.4 6.9 7.55 7.0 8.75 6.9 9.9 7.6 11.45 8.5 11.95 10.25 12.35 12.0 11.5 12.95 10.7 13.9 9.65 13.7 8.55 13.5 7.55 12.6 6.55 13.5 5.5 13.7" fill="#7fdbfe" fill-rule="evenodd" stroke="none"/>
    </g>
    <g id="sprite4" transform="matrix(1.0, 0.0, 0.0, 1.0, 0.0, -0.05)">
      <use height="211.55" transform="matrix(1.0, 0.0, 0.0, 1.0, -0.05, 0.0)" width="136.7" xlink:href="#shape3"/>
    </g>
    <g id="shape3" transform="matrix(1.0, 0.0, 0.0, 1.0, 0.05, 0.0)">
      <path d="M136.55 165.8 L68.6 106.0 68.4 106.0 118.25 201.5 M68.3 105.8 L68.35 105.8 68.3 105.8 68.3 105.85 68.4 106.0 68.3 106.0 86.55 211.5 M68.3 105.8 L68.3 105.85 68.3 106.0 68.15 105.95 18.25 151.55 M68.3 105.85 L68.25 105.85 68.3 106.0 50.0 193.2 M68.25 105.85 L68.15 105.95 0.05 97.7 M68.3 105.85 L68.25 105.8 68.25 105.85 M68.25 105.8 L68.2 105.7 0.0 45.7 M68.3 105.8 L68.25 105.75 68.25 105.8 M68.25 105.75 L68.2 105.7 18.25 10.05 M68.6 106.0 L68.35 105.8 118.25 60.15 M86.6 18.35 L68.3 105.8 M136.6 114.25 L68.6 106.0 M68.25 105.75 L49.95 0.05" fill="none" stroke="url(#gradient0)" stroke-linecap="round" stroke-linejoin="round" stroke-width="0.05"/>
    </g>
    <radialGradient cx="0" cy="0" gradientTransform="matrix(0.2092, 0.0, 0.0, 0.1771, 67.15, 107.2)" gradientUnits="userSpaceOnUse" id="gradient0" r="819.2" spreadMethod="pad">
      <stop offset="0.3568627450980392" stop-color="#ffffff"/>
      <stop offset="0.6705882352941176" stop-color="#000000" stop-opacity="0.0"/>
    </radialGradient>
    <g id="sprite6" transform="matrix(1.0, 0.0, 0.0, 1.0, 0.0, 13.15)">
      <use height="89.25" transform="matrix(-1.5984, 0.0, 0.0, 1.5984, 113.9499, -13.1572)" width="71.3" xlink:href="#sprite7"/>
    </g>
    <g id="sprite7" transform="matrix(1.0, 0.0, 0.0, 1.0, 30.5, 74.8)">
      <use height="0.0" transform="matrix(1.0, 0.0, 0.0, 1.0, 0.0, 0.0)" width="0.0" xlink:href="#sprite8"/>
      <use height="8.35" transform="matrix(1.0, 0.0, 0.0, 1.0, -9.05, -24.5)" width="8.7" xlink:href="#sprite10"/>
      <use height="9.7" transform="matrix(1.0, 0.0, 0.0, 1.0, -10.6, -23.9)" width="6.85" xlink:href="#sprite11"/>
      <use height="19.15" transform="matrix(1.0, 0.0, 0.0, 1.0, 7.8, -20.2)" width="10.5" xlink:href="#sprite12"/>
      <use height="12.4" transform="matrix(1.0, 0.0, 0.0, 1.0, 2.05, -26.15)" width="15.25" xlink:href="#sprite13"/>
      <use height="10.0" transform="matrix(1.0, 0.0, 0.0, 1.0, 1.25, -25.5)" width="6.4" xlink:href="#sprite14"/>
      <use height="13.6" transform="matrix(1.0, 0.0, 0.0, 1.0, 18.85, -14.8)" width="7.25" xlink:href="#sprite15"/>
      <use height="10.4" transform="matrix(1.0, 0.0, 0.0, 1.0, 15.45, -20.85)" width="11.3" xlink:href="#sprite16"/>
      <use height="8.9" transform="matrix(1.0, 0.0, 0.0, 1.0, 9.3, -20.85)" width="8.45" xlink:href="#sprite17"/>
      <use height="10.2" transform="matrix(1.0, 0.0, 0.0, 1.0, 16.4, -13.6)" width="17.1" xlink:href="#sprite18"/>
      <use height="7.3" transform="matrix(1.0, 0.0, 0.0, 1.0, 10.9, -13.25)" width="11.65" xlink:href="#sprite19"/>
      <use height="23.85" transform="matrix(1.0, 0.0, 0.0, 1.0, -19.4, -40.15)" width="16.7" xlink:href="#sprite20"/>
      <use height="16.15" transform="matrix(1.0, 0.0, 0.0, 1.0, -20.35, -49.85)" width="10.1" xlink:href="#sprite21"/>
      <use height="15.1" transform="matrix(1.0, 0.0, 0.0, 1.0, -18.7, -60.85)" width="15.6" xlink:href="#sprite22"/>
      <use height="35.9" transform="matrix(1.0, 0.0, 0.0, 1.0, -14.95, -74.8)" width="27.85" xlink:href="#sprite23"/>
      <use height="25.55" transform="matrix(1.0, 0.0, 0.0, 1.0, -18.4, -25.1)" width="37.25" xlink:href="#sprite24"/>
      <use height="8.95" transform="matrix(1.0, 0.0, 0.0, 1.0, -29.45, -16.75)" width="10.95" xlink:href="#sprite25"/>
      <use height="9.55" transform="matrix(1.0, 0.0, 0.0, 1.0, -30.5, -11.25)" width="4.8" xlink:href="#sprite26"/>
      <use height="11.0" transform="matrix(1.0, 0.0, 0.0, 1.0, -16.8, -19.9)" width="11.05" xlink:href="#sprite27"/>
      <use height="14.0" transform="matrix(1.0, 0.0, 0.0, 1.0, -23.45, -19.35)" width="11.75" xlink:href="#sprite28"/>
      <use height="16.85" transform="matrix(1.0, 0.0, 0.0, 1.0, -23.75, -9.7)" width="6.55" xlink:href="#sprite29"/>
      <use height="7.65" transform="matrix(1.0, 0.0, 0.0, 1.0, -7.4, -13.1)" width="7.65" xlink:href="#sprite30"/>
      <use height="14.45" transform="matrix(1.0, 0.0, 0.0, 1.0, -15.65, -13.5)" width="11.75" xlink:href="#sprite31"/>
      <use height="11.35" transform="matrix(1.0, 0.0, 0.0, 1.0, -14.9, -1.55)" width="5.85" xlink:href="#sprite32"/>
      <use height="9.9" transform="matrix(1.0, 0.0, 0.0, 1.0, 10.9, -17.15)" width="9.8" xlink:href="#sprite33"/>
      <use height="11.8" transform="matrix(1.0, 0.0, 0.0, 1.0, 11.9, -21.25)" width="9.05" xlink:href="#sprite34"/>
      <use height="10.8" transform="matrix(1.0, 0.0, 0.0, 1.0, 4.6, -14.75)" width="10.9" xlink:href="#sprite35"/>
      <use height="9.7" transform="matrix(1.0, 0.0, 0.0, 1.0, 3.6, -17.95)" width="11.9" xlink:href="#sprite36"/>
      <use height="14.0" transform="matrix(1.0, 0.0, 0.0, 1.0, 23.5, -10.05)" width="16.1" xlink:href="#sprite37"/>
      <use height="25.7" transform="matrix(1.0, 0.0, 0.0, 1.0, 22.75, -27.5)" width="18.05" xlink:href="#sprite38"/>
      <use height="10.8" transform="matrix(1.0, 0.0, 0.0, 1.0, -5.5, -9.6)" width="9.85" xlink:href="#sprite39"/>
      <use height="14.25" transform="matrix(1.0, 0.0, 0.0, 1.0, -10.2, -5.85)" width="17.4" xlink:href="#sprite40"/>
      <use height="20.0" transform="matrix(1.0, 0.0, 0.0, 1.0, -8.3, -5.55)" width="21.55" xlink:href="#sprite41"/>
      <use height="23.85" transform="matrix(1.0, 0.0, 0.0, 1.0, -9.7, -14.9)" width="26.9" xlink:href="#sprite42"/>
    </g>
    <g id="sprite8" transform="matrix(1.0, 0.0, 0.0, 1.0, 0.0, 0.0)">
      <use height="0.0" transform="matrix(1.0, 0.0, 0.0, 1.0, 0.0, 0.0)" width="0.0" xlink:href="#sprite9"/>
    </g>
    <g id="sprite10" transform="matrix(1.0, 0.0, 0.0, 1.0, 4.4, 4.15)">
      <use height="8.45" transform="matrix(1.0, 0.0, 0.0, 1.0, -4.45, -4.2)" width="8.8" xlink:href="#shape5"/>
    </g>
    <g id="shape5" transform="matrix(1.0, 0.0, 0.0, 1.0, 4.45, 4.2)">
      <path d="M3.65 0.8 L0.95 3.4 2.3 4.2 Q3.75 3.55 4.3 2.25 4.15 1.35 3.65 0.8" fill="#3c4b4f" fill-rule="evenodd" stroke="none"/>
      <path d="M4.0 0.1 L3.7 -0.1 4.0 0.1 4.25 0.85 2.1 4.05 1.35 2.6 3.7 -0.1 3.95 -0.4 4.0 0.1" fill="#21292c" fill-rule="evenodd" stroke="none"/>
      <path d="M3.95 -0.4 L3.7 -0.1 2.25 -1.35 1.55 -0.75 1.55 -2.25 0.35 -2.95 -0.15 -2.45 -1.05 -3.4 -2.6 -2.8 -2.8 -3.85 0.05 -4.15 Q2.3 -3.0 3.95 -0.4" fill="#d7a13f" fill-rule="evenodd" stroke="none"/>
      <path d="M-2.6 -2.8 L-1.05 -3.4 -0.15 -2.45 0.35 -2.95 1.55 -2.25 1.55 -0.75 2.25 -1.35 3.7 -0.1 1.35 2.6 Q-0.8 -0.85 -2.8 -1.5 L-2.6 -2.8" fill="#c38124" fill-rule="evenodd" stroke="none"/>
      <path d="M-2.6 -2.8 L-2.8 -1.5 Q-0.8 -0.85 1.35 2.6 L-2.2 2.1 Q-2.1 1.7 -4.4 -1.25 L-4.4 -3.5 -2.8 -3.85 -2.6 -2.8 M-4.4 -1.25 L-2.8 -1.5 -4.4 -1.25" fill="#943c12" fill-rule="evenodd" stroke="none"/>
      <path d="M2.1 4.05 L-0.75 3.65 -2.2 2.1 1.35 2.6 2.1 4.05" fill="#121618" fill-rule="evenodd" stroke="none"/>
      <path d="M3.7 -0.1 L4.0 0.1 3.95 -0.4 Q2.3 -3.0 0.05 -4.15 L-2.8 -3.85 -2.6 -2.8 -2.8 -1.5 -4.4 -1.25 -4.4 -3.5 -2.8 -3.85 M4.0 0.1 L4.25 0.85 2.1 4.05 -0.75 3.65 -2.2 2.1 Q-2.1 1.7 -4.4 -1.25" fill="none" stroke="#000000" stroke-linecap="round" stroke-linejoin="round" stroke-opacity="0.3019608" stroke-width="0.05"/>
    </g>
    <g id="sprite11" transform="matrix(1.0, 0.0, 0.0, 1.0, 3.35, 4.85)">
      <use height="9.8" transform="matrix(1.0, 0.0, 0.0, 1.0, -3.4, -4.9)" width="6.95" xlink:href="#shape6"/>
    </g>
    <g id="shape6" transform="matrix(1.0, 0.0, 0.0, 1.0, 3.4, 4.9)">
      <path d="M-0.2 0.3 Q-0.95 0.1 -1.85 -1.4 -2.65 -2.35 -1.85 -4.0 -0.35 -5.1 1.5 -4.75 2.4 -3.7 2.5 -1.7 L2.2 -0.35 Q1.0 0.85 -0.2 0.3" fill="#3c4b4f" fill-rule="evenodd" stroke="none"/>
      <path d="M-0.2 0.3 Q-0.95 0.1 -1.85 -1.4 -2.65 -2.35 -1.85 -4.0 -0.35 -5.1 1.5 -4.75 2.4 -3.7 2.5 -1.7 L2.2 -0.35 Q1.0 0.85 -0.2 0.3 Z" fill="none" stroke="#000000" stroke-linecap="round" stroke-linejoin="round" stroke-opacity="0.3019608" stroke-width="0.05"/>
      <path d="M0.65 -4.0 Q2.1 -3.5 3.1 -1.85 3.7 -0.1 3.4 2.15 L2.35 4.45 Q2.25 0.0 1.05 -3.15 L0.65 -4.0" fill="#c38124" fill-rule="evenodd" stroke="none"/>
      <path d="M0.65 -4.0 L1.05 -3.15 -1.2 -2.1 -0.85 1.35 0.2 4.8 -1.0 4.45 Q-1.15 3.1 -2.2 1.05 -3.3 -1.1 -3.35 -2.4 -1.85 -4.0 0.65 -4.0" fill="#d7a13f" fill-rule="evenodd" stroke="none"/>
      <path d="M1.05 -3.15 Q2.25 0.0 2.35 4.45 L0.2 4.8 -0.85 1.35 -1.2 -2.1 1.05 -3.15" fill="#ce952b" fill-rule="evenodd" stroke="none"/>
      <path d="M2.35 4.45 L3.4 2.15 Q3.7 -0.1 3.1 -1.85 2.1 -3.5 0.65 -4.0 -1.85 -4.0 -3.35 -2.4 -3.3 -1.1 -2.2 1.05 -1.15 3.1 -1.0 4.45" fill="none" stroke="#000000" stroke-linecap="round" stroke-linejoin="round" stroke-opacity="0.3019608" stroke-width="0.05"/>
    </g>
    <g id="sprite12" transform="matrix(1.0, 0.0, 0.0, 1.0, 5.25, 9.55)">
      <use height="19.25" transform="matrix(1.0, 0.0, 0.0, 1.0, -5.3, -9.6)" width="10.6" xlink:href="#shape7"/>
    </g>
    <g id="shape7" transform="matrix(1.0, 0.0, 0.0, 1.0, 5.3, 9.6)">
      <path d="M5.25 -7.25 L4.95 -4.2 -0.1 -0.45 -0.7 -3.0 5.25 -7.25" fill="#946742" fill-rule="evenodd" stroke="none"/>
      <path d="M-0.7 -3.0 L-0.1 -0.45 -4.8 -2.7 -4.8 -3.35 Q-4.75 -3.8 -5.15 -5.05 L-4.35 -4.8 -5.15 -5.05 -5.15 -5.15 -4.35 -4.8 -0.7 -3.0" fill="#21292c" fill-rule="evenodd" stroke="none"/>
      <path d="M5.25 -7.25 L-0.7 -3.0 -4.35 -4.8 -5.15 -5.15 -5.25 -5.15 -0.05 -9.55 Q2.65 -8.35 5.25 -7.25" fill="#943c12" fill-rule="evenodd" stroke="none"/>
      <path d="M-5.15 -5.05 L-5.25 -5.15 -5.15 -5.15 -5.15 -5.05" fill="#3c4b4f" fill-rule="evenodd" stroke="none"/>
      <path d="M-0.25 9.6 L-1.45 7.85 Q-1.95 4.1 -4.8 -2.7 L-0.1 -0.45 Q0.1 4.1 -0.25 9.6" fill="#c38124" fill-rule="evenodd" stroke="none"/>
      <path d="M-0.1 -0.45 L4.95 -4.2 Q5.45 2.6 1.45 8.15 L-0.25 9.6 Q0.1 4.1 -0.1 -0.45" fill="#d7a13f" fill-rule="evenodd" stroke="none"/>
      <path d="M4.95 -4.2 L5.25 -7.25 -0.7 -3.0 -4.35 -4.8 -5.15 -5.05 -5.15 -5.15 -5.25 -5.15 -0.05 -9.55 Q2.65 -8.35 5.25 -7.25 M-0.1 -0.45 L4.95 -4.2 Q5.45 2.6 1.45 8.15 L-0.25 9.6 -1.45 7.85 Q-1.95 4.1 -4.8 -2.7 L-4.8 -3.35 Q-4.75 -3.8 -5.15 -5.05 L-5.25 -5.15 M-4.8 -2.7 L-0.1 -0.45 M-5.15 -5.15 L-4.35 -4.8" fill="none" stroke="#5e4226" stroke-linecap="round" stroke-linejoin="round" stroke-opacity="0.7019608" stroke-width="0.05"/>
    </g>
    <g id="sprite13" transform="matrix(1.0, 0.0, 0.0, 1.0, 7.6, 6.2)">
      <use height="12.5" transform="matrix(1.0, 0.0, 0.0, 1.0, -7.65, -6.25)" width="15.35" xlink:href="#shape8"/>
    </g>
    <g id="shape8" transform="matrix(1.0, 0.0, 0.0, 1.0, 7.65, 6.25)">
      <path d="M6.35 1.3 Q7.25 2.15 7.65 3.45 6.95 5.35 4.7 6.2 L2.4 4.9 6.35 1.3" fill="#3c4b4f" fill-rule="evenodd" stroke="none"/>
      <path d="M6.2 -0.05 L6.55 -0.5 6.75 0.25 6.2 -0.05 6.75 0.25 7.25 1.35 Q7.4 1.75 4.4 5.9 L3.0 3.75 6.2 -0.05" fill="#21292c" fill-rule="evenodd" stroke="none"/>
      <path d="M6.55 -0.5 L6.2 -0.05 3.65 -1.95 2.6 -1.1 2.35 -3.35 0.25 -4.25 -0.35 -3.55 -2.05 -5.0 -4.45 -4.35 -5.0 -5.85 -0.45 -6.1 Q3.45 -4.25 6.55 -0.5" fill="#d7a13f" fill-rule="evenodd" stroke="none"/>
      <path d="M-4.45 -4.35 L-2.05 -5.0 -0.35 -3.55 0.25 -4.25 2.35 -3.35 2.6 -1.1 3.65 -1.95 6.2 -0.05 3.0 3.75 Q-1.2 -1.35 -4.55 -2.4 L-4.45 -4.35" fill="#c38124" fill-rule="evenodd" stroke="none"/>
      <path d="M-5.0 -5.85 L-4.45 -4.35 -4.55 -2.4 -7.15 -2.1 -4.55 -2.4 Q-1.2 -1.35 3.0 3.75 L-3.0 2.85 Q-2.85 2.3 -7.15 -2.1 L-7.6 -5.3 -5.0 -5.85" fill="#943c12" fill-rule="evenodd" stroke="none"/>
      <path d="M3.0 3.75 L4.4 5.9 -0.35 5.2 -3.0 2.85 3.0 3.75" fill="#121618" fill-rule="evenodd" stroke="none"/>
      <path d="M6.2 -0.05 L6.75 0.25 6.55 -0.5 Q3.45 -4.25 -0.45 -6.1 L-5.0 -5.85 -4.45 -4.35 -4.55 -2.4 -7.15 -2.1 Q-2.85 2.3 -3.0 2.85 L-0.35 5.2 4.4 5.9 Q7.4 1.75 7.25 1.35 L6.75 0.25 M-7.15 -2.1 L-7.6 -5.3 -5.0 -5.85" fill="none" stroke="#000000" stroke-linecap="round" stroke-linejoin="round" stroke-opacity="0.3019608" stroke-width="0.05"/>
    </g>
    <g id="sprite14" transform="matrix(1.0, 0.0, 0.0, 1.0, 3.2, 5.0)">
      <use height="10.1" transform="matrix(1.0, 0.0, 0.0, 1.0, -3.25, -5.05)" width="6.5" xlink:href="#shape9"/>
    </g>
    <g id="shape9" transform="matrix(1.0, 0.0, 0.0, 1.0, 3.25, 5.05)">
      <path d="M2.05 0.35 Q0.45 1.0 -0.55 -0.1 -1.2 -0.5 -1.7 -2.4 -2.1 -3.6 -0.75 -4.9 1.05 -5.25 2.75 -4.1 3.3 -2.75 2.7 -0.9 L2.05 0.35" fill="#3c4b4f" fill-rule="evenodd" stroke="none"/>
      <path d="M2.05 0.35 Q0.45 1.0 -0.55 -0.1 -1.2 -0.5 -1.7 -2.4 -2.1 -3.6 -0.75 -4.9 1.05 -5.25 2.75 -4.1 3.3 -2.75 2.7 -0.9 L2.05 0.35 Z" fill="none" stroke="#000000" stroke-linecap="round" stroke-linejoin="round" stroke-opacity="0.3019608" stroke-width="0.05"/>
      <path d="M1.6 -2.75 L-0.95 -2.75 -1.75 0.7 -1.85 4.4 -2.85 3.6 Q-2.6 2.2 -2.95 -0.15 -3.4 -2.65 -2.95 -4.0 L1.6 -3.75 1.6 -2.75" fill="#d7a13f" fill-rule="evenodd" stroke="none"/>
      <path d="M-1.85 4.4 L-1.75 0.7 -0.95 -2.75 1.6 -2.75 Q1.8 0.75 0.5 5.0 -0.65 5.0 -1.85 4.4" fill="#ce952b" fill-rule="evenodd" stroke="none"/>
      <path d="M1.6 -2.75 L1.6 -3.75 Q2.75 -2.65 3.2 -0.75 3.3 1.2 2.25 3.25 L0.5 5.0 Q1.8 0.75 1.6 -2.75" fill="#c38124" fill-rule="evenodd" stroke="none"/>
      <path d="M1.6 -3.75 L-2.95 -4.0 Q-3.4 -2.65 -2.95 -0.15 -2.6 2.2 -2.85 3.6 M0.5 5.0 L2.25 3.25 Q3.3 1.2 3.2 -0.75 2.75 -2.65 1.6 -3.75 Z" fill="none" stroke="#000000" stroke-linecap="round" stroke-linejoin="round" stroke-opacity="0.3019608" stroke-width="0.05"/>
    </g>
    <g id="sprite15" transform="matrix(1.0, 0.0, 0.0, 1.0, 3.6, 6.8)">
      <use height="13.7" transform="matrix(1.0, 0.0, 0.0, 1.0, -3.65, -6.85)" width="7.35" xlink:href="#shape10"/>
    </g>
    <g id="shape10" transform="matrix(1.0, 0.0, 0.0, 1.0, 3.65, 6.85)">
      <path d="M3.65 -5.1 L3.55 -1.9 -0.15 -0.1 -0.15 -2.4 3.65 -5.1" fill="#946742" fill-rule="evenodd" stroke="none"/>
      <path d="M-3.55 -2.2 L-3.5 -2.65 Q-3.4 -3.05 -3.6 -3.9 L-3.6 -4.0 -1.85 -3.15 -0.15 -2.4 -0.15 -0.1 -3.55 -2.2 M-3.6 -3.9 L-1.85 -3.15 -3.6 -3.9" fill="#21292c" fill-rule="evenodd" stroke="none"/>
      <path d="M-3.6 -4.0 L-0.75 -6.8 3.65 -5.1 -0.15 -2.4 -1.85 -3.15 -3.6 -4.0" fill="#943c12" fill-rule="evenodd" stroke="none"/>
      <path d="M-1.7 6.8 L-2.4 5.5 Q-2.4 2.8 -3.55 -2.2 L-0.15 -0.1 -1.7 6.8" fill="#c38124" fill-rule="evenodd" stroke="none"/>
      <path d="M3.55 -1.9 Q3.2 2.8 -0.25 6.1 L-1.7 6.8 -0.15 -0.1 3.55 -1.9" fill="#d7a13f" fill-rule="evenodd" stroke="none"/>
      <path d="M3.65 -5.1 L3.55 -1.9 Q3.2 2.8 -0.25 6.1 L-1.7 6.8 -2.4 5.5 Q-2.4 2.8 -3.55 -2.2 L-3.5 -2.65 Q-3.4 -3.05 -3.6 -3.9 L-3.6 -4.0 -0.75 -6.8 3.65 -5.1 -0.15 -2.4 -1.85 -3.15 -3.6 -3.9 M-0.15 -0.1 L3.55 -1.9 M-3.6 -4.0 L-1.85 -3.15 M-3.55 -2.2 L-0.15 -0.1" fill="none" stroke="#000000" stroke-linecap="round" stroke-linejoin="round" stroke-opacity="0.3019608" stroke-width="0.05"/>
    </g>
    <g id="sprite16" transform="matrix(1.0, 0.0, 0.0, 1.0, 5.5, 5.1)">
      <use height="10.5" transform="matrix(1.0, 0.0, 0.0, 1.0, -5.55, -5.15)" width="11.4" xlink:href="#shape11"/>
    </g>
    <g id="shape11" transform="matrix(1.0, 0.0, 0.0, 1.0, 5.55, 5.15)">
      <path d="M4.95 1.65 Q5.55 2.3 5.8 3.5 5.1 4.85 3.2 5.3 L1.5 4.15 4.95 1.65" fill="#3c4b4f" fill-rule="evenodd" stroke="none"/>
      <path d="M5.3 0.85 L4.9 0.55 5.3 0.85 5.55 1.75 Q5.7 2.15 2.85 5.1 L1.9 3.25 4.9 0.55 5.2 0.25 5.3 0.85" fill="#21292c" fill-rule="evenodd" stroke="none"/>
      <path d="M-3.15 -3.8 L-1.2 -4.2 0.05 -2.85 0.6 -3.4 2.15 -2.45 2.15 -0.6 3.05 -1.2 4.9 0.55 1.9 3.25 Q-0.9 -1.2 -3.45 -2.35 L-3.15 -3.8" fill="#c38124" fill-rule="evenodd" stroke="none"/>
      <path d="M5.2 0.25 L4.9 0.55 3.05 -1.2 2.15 -0.6 2.15 -2.45 0.6 -3.4 0.05 -2.85 -1.2 -4.2 -3.15 -3.8 -3.45 -5.1 0.2 -4.85 Q3.15 -3.1 5.2 0.25" fill="#d7a13f" fill-rule="evenodd" stroke="none"/>
      <path d="M-3.15 -3.8 L-3.45 -2.35 Q-0.9 -1.2 1.9 3.25 1.45 3.4 -2.65 1.95 -2.5 1.55 -5.5 -2.35 L-5.5 -4.9 -3.45 -5.1 -3.15 -3.8 M-5.5 -2.35 L-3.45 -2.35 -5.5 -2.35" fill="#943c12" fill-rule="evenodd" stroke="none"/>
      <path d="M2.85 5.1 L-0.8 4.1 -2.65 1.95 Q1.45 3.4 1.9 3.25 L2.85 5.1" fill="#121618" fill-rule="evenodd" stroke="none"/>
      <path d="M4.9 0.55 L5.3 0.85 5.2 0.25 Q3.15 -3.1 0.2 -4.85 L-3.45 -5.1 -3.15 -3.8 -3.45 -2.35 -5.5 -2.35 -5.5 -4.9 -3.45 -5.1 M5.3 0.85 L5.55 1.75 Q5.7 2.15 2.85 5.1 L-0.8 4.1 -2.65 1.95 Q-2.5 1.55 -5.5 -2.35" fill="none" stroke="#000000" stroke-linecap="round" stroke-linejoin="round" stroke-opacity="0.3019608" stroke-width="0.05"/>
    </g>
    <g id="sprite17" transform="matrix(1.0, 0.0, 0.0, 1.0, 4.2, 4.45)">
      <use height="9.0" transform="matrix(1.0, 0.0, 0.0, 1.0, -4.25, -4.5)" width="8.55" xlink:href="#shape12"/>
    </g>
    <g id="shape12" transform="matrix(1.0, 0.0, 0.0, 1.0, 4.25, 4.5)">
      <path d="M1.6 1.0 Q-0.15 1.0 -0.5 -0.2 -0.85 -0.8 -0.45 -2.65 -0.2 -3.8 1.5 -4.4 3.3 -4.0 4.25 -2.45 4.15 -1.1 2.65 0.3 L1.6 1.0" fill="#3c4b4f" fill-rule="evenodd" stroke="none"/>
      <path d="M1.6 1.0 Q-0.15 1.0 -0.5 -0.2 -0.85 -0.8 -0.45 -2.65 -0.2 -3.8 1.5 -4.4 3.3 -4.0 4.25 -2.45 4.15 -1.1 2.65 0.3 L1.6 1.0 Z" fill="none" stroke="#000000" stroke-linecap="round" stroke-linejoin="round" stroke-opacity="0.3019608" stroke-width="0.05"/>
      <path d="M3.05 -2.65 Q3.6 -1.25 3.1 0.55 2.3 2.25 0.4 3.5 L-1.95 4.45 Q1.15 1.25 2.6 -1.85 L3.05 -2.65" fill="#c38124" fill-rule="evenodd" stroke="none"/>
      <path d="M3.05 -2.65 L2.6 -1.85 0.4 -2.7 -1.9 0.0 -3.7 3.1 -4.2 2.0 Q-3.35 0.9 -2.55 -1.15 -1.75 -3.5 -0.8 -4.45 1.25 -4.45 3.05 -2.65" fill="#d7a13f" fill-rule="evenodd" stroke="none"/>
      <path d="M2.6 -1.85 Q1.15 1.25 -1.95 4.45 -3.0 4.05 -3.7 3.1 L-1.9 0.0 0.4 -2.7 2.6 -1.85" fill="#ce952b" fill-rule="evenodd" stroke="none"/>
      <path d="M-1.95 4.45 L0.4 3.5 Q2.3 2.25 3.1 0.55 3.6 -1.25 3.05 -2.65 1.25 -4.45 -0.8 -4.45 -1.75 -3.5 -2.55 -1.15 -3.35 0.9 -4.2 2.0" fill="none" stroke="#000000" stroke-linecap="round" stroke-linejoin="round" stroke-opacity="0.3019608" stroke-width="0.05"/>
    </g>
    <g id="sprite18" transform="matrix(1.0, 0.0, 0.0, 1.0, 8.3, 5.1)">
      <use height="12.2" transform="matrix(1.0, 0.0, 0.0, 1.0, -9.3, -6.1)" width="19.1" xlink:href="#shape13"/>
    </g>
    <g id="shape13" transform="matrix(1.0, 0.0, 0.0, 1.0, 9.3, 6.1)">
      <path d="M8.2 -2.2 Q8.8 1.0 5.6 3.25 2.2 5.6 -5.25 4.95 L-7.15 1.85 Q-3.3 -3.6 5.85 -4.1 L8.2 -2.2" fill="#21292c" fill-rule="evenodd" stroke="none"/>
      <path d="M-7.15 1.85 Q-9.05 -0.4 -7.8 -2.7 -6.8 -4.15 -1.85 -5.1 2.95 -5.2 5.85 -4.1 -3.3 -3.6 -7.15 1.85" fill="#3c4b4f" fill-rule="evenodd" stroke="none"/>
      <path d="M5.6 3.25 Q2.2 5.6 -5.25 4.95 L-7.15 1.85 Q-9.05 -0.4 -7.8 -2.7 -6.8 -4.15 -1.85 -5.1 2.95 -5.2 5.85 -4.1 L8.2 -2.2" fill="none" stroke="#000000" stroke-linecap="round" stroke-linejoin="round" stroke-opacity="0.3019608" stroke-width="0.05"/>
      <path d="M8.2 -2.2 Q8.8 1.0 5.6 3.25 Z" fill="none" stroke="#000000" stroke-linecap="round" stroke-linejoin="round" stroke-opacity="0.3019608" stroke-width="1.0"/>
    </g>
    <g id="sprite19" transform="matrix(1.0, 0.0, 0.0, 1.0, 5.8, 3.65)">
      <use height="7.4" transform="matrix(1.0, 0.0, 0.0, 1.0, -5.85, -3.7)" width="11.75" xlink:href="#shape14"/>
    </g>
    <g id="shape14" transform="matrix(1.0, 0.0, 0.0, 1.0, 5.85, 3.7)">
      <path d="M0.6 3.65 Q-3.6 3.5 -4.95 1.65 -6.1 0.7 -5.7 -1.6 -5.7 -3.1 -1.7 -3.65 2.8 -2.65 5.85 -0.6 2.7 -0.55 1.85 0.35 0.0 2.7 0.6 3.65" fill="#3c4b4f" fill-rule="evenodd" stroke="none"/>
      <path d="M0.6 3.65 Q0.0 2.7 1.85 0.35 2.7 -0.55 5.85 -0.6 6.0 1.35 3.05 2.95 L0.6 3.65" fill="#21292c" fill-rule="evenodd" stroke="none"/>
      <path d="M5.85 -0.6 Q2.8 -2.65 -1.7 -3.65 -5.7 -3.1 -5.7 -1.6 -6.1 0.7 -4.95 1.65 -3.6 3.5 0.6 3.65 L3.05 2.95 Q6.0 1.35 5.85 -0.6 Z" fill="none" stroke="#000000" stroke-linecap="round" stroke-linejoin="round" stroke-opacity="0.3019608" stroke-width="0.05"/>
    </g>
    <g id="sprite20" transform="matrix(1.0, 0.0, 0.0, 1.0, 8.35, 11.9)">
      <use height="23.95" transform="matrix(1.0, 0.0, 0.0, 1.0, -8.4, -11.95)" width="16.8" xlink:href="#shape15"/>
    </g>
    <g id="shape15" transform="matrix(1.0, 0.0, 0.0, 1.0, 8.4, 11.95)">
      <path d="M-6.6 -11.1 Q-5.0 -12.75 -1.2 -11.0 L0.7 -8.3 -1.3 -8.6 5.6 4.05 8.0 6.8 Q6.4 10.2 3.35 11.4 -5.65 1.9 -5.25 -7.4 L-5.25 -7.5 -6.6 -11.1" fill="#3c4b4f" fill-rule="evenodd" stroke="none"/>
      <path d="M0.7 -8.3 L4.95 -2.25 Q9.2 3.85 8.1 6.75 L8.0 6.8 5.6 4.05 -1.3 -8.6 0.7 -8.3" fill="#21292c" fill-rule="evenodd" stroke="none"/>
      <path d="M-7.5 -1.85 L-8.35 -5.3 Q-7.95 -10.2 -6.6 -11.1 L-5.25 -7.5 Q-7.55 -5.6 -7.5 -1.85" fill="#13171a" fill-rule="evenodd" stroke="none"/>
      <path d="M3.35 11.4 L2.85 11.55 2.0 11.8 -0.5 11.95 -0.65 11.85 Q-5.5 6.15 -7.5 -1.85 -7.55 -5.6 -5.25 -7.5 L-5.25 -7.4 Q-5.65 1.9 3.35 11.4" fill="#171e20" fill-rule="evenodd" stroke="none"/>
      <path d="M-0.5 11.95 L-0.6 11.95 -0.75 11.85 -0.65 11.85 -0.5 11.95" fill="#4f4f4f" fill-rule="evenodd" stroke="none"/>
      <path d="M-6.6 -11.1 Q-5.0 -12.75 -1.2 -11.0 L0.7 -8.3 4.95 -2.25 Q9.2 3.85 8.1 6.75 L8.0 6.8 Q6.4 10.2 3.35 11.4 L2.85 11.55 2.0 11.8 -0.5 11.95 -0.6 11.95 -0.75 11.85 M-0.65 11.85 Q-5.5 6.15 -7.5 -1.85 L-8.35 -5.3 Q-7.95 -10.2 -6.6 -11.1 Z" fill="none" stroke="#000000" stroke-linecap="round" stroke-linejoin="round" stroke-opacity="0.3019608" stroke-width="0.05"/>
    </g>
    <g id="sprite21" transform="matrix(1.0, 0.0, 0.0, 1.0, 5.05, 8.1)">
      <use height="16.25" transform="matrix(1.0, 0.0, 0.0, 1.0, -5.1, -8.15)" width="10.2" xlink:href="#shape16"/>
    </g>
    <g id="shape16" transform="matrix(1.0, 0.0, 0.0, 1.0, 5.1, 8.15)">
      <path d="M-4.45 -2.7 L-4.0 -5.0 Q-1.9 -8.0 -0.55 -8.05 L-0.95 -5.4 Q-3.2 -5.1 -4.45 -2.7" fill="#13171a" fill-rule="evenodd" stroke="none"/>
      <path d="M-0.95 -5.4 L-0.55 -8.05 Q1.15 -8.45 3.25 -6.45 L3.65 -4.3 2.25 -5.0 3.05 4.35 3.8 6.55 Q1.6 8.15 -1.0 8.05 -4.4 -0.05 -0.95 -5.3 L-0.95 -5.4" fill="#3c4b4f" fill-rule="evenodd" stroke="none"/>
      <path d="M-4.45 -2.7 Q-3.2 -5.1 -0.95 -5.4 L-0.95 -5.3 Q-4.4 -0.05 -1.0 8.05 L-1.5 8.05 -2.15 8.0 -4.1 7.35 -4.1 7.2 Q-5.85 2.45 -4.45 -2.7" fill="#171e20" fill-rule="evenodd" stroke="none"/>
      <path d="M3.65 -4.3 L4.7 0.45 Q5.7 5.35 3.95 6.7 L3.8 6.55 3.05 4.35 2.25 -5.0 3.65 -4.3" fill="#21292c" fill-rule="evenodd" stroke="none"/>
      <path d="M-4.1 7.35 L-4.15 7.35 -4.15 7.2 -4.1 7.2 -4.1 7.35" fill="#4f4f4f" fill-rule="evenodd" stroke="none"/>
      <path d="M-0.55 -8.05 Q-1.9 -8.0 -4.0 -5.0 L-4.45 -2.7 Q-5.85 2.45 -4.1 7.2 M-0.55 -8.05 Q1.15 -8.45 3.25 -6.45 L3.65 -4.3 4.7 0.45 Q5.7 5.35 3.95 6.7 L3.8 6.55 Q1.6 8.15 -1.0 8.05 L-1.5 8.05 -2.15 8.0 -4.1 7.35 -4.15 7.35 -4.15 7.2" fill="none" stroke="#000000" stroke-linecap="round" stroke-linejoin="round" stroke-opacity="0.3019608" stroke-width="0.05"/>
    </g>
    <g id="sprite22" transform="matrix(1.0, 0.0, 0.0, 1.0, 7.8, 7.55)">
      <use height="15.2" transform="matrix(1.0, 0.0, 0.0, 1.0, -7.85, -7.6)" width="15.7" xlink:href="#shape17"/>
    </g>
    <g id="shape17" transform="matrix(1.0, 0.0, 0.0, 1.0, 7.85, 7.6)">
      <path d="M5.5 -7.4 L3.5 -5.25 Q1.4 -6.0 -1.2 -4.65 L0.65 -6.4 Q4.4 -8.0 5.5 -7.4" fill="#13171a" fill-rule="evenodd" stroke="none"/>
      <path d="M3.5 -5.25 L5.5 -7.4 Q7.4 -7.15 7.8 -4.25 L6.75 -2.15 Q6.55 -3.0 6.05 -3.5 L0.4 5.2 -0.4 7.5 Q-3.4 7.75 -5.65 6.55 -3.1 -2.3 3.5 -5.25" fill="#3c4b4f" fill-rule="evenodd" stroke="none"/>
      <path d="M-0.4 7.5 L0.4 5.2 6.05 -3.5 Q6.55 -3.0 6.75 -2.15 L4.6 2.5 Q2.2 7.05 -0.25 7.5 L-0.4 7.5" fill="#21292c" fill-rule="evenodd" stroke="none"/>
      <path d="M3.5 -5.25 Q-3.1 -2.3 -5.65 6.55 L-6.0 6.2 -6.45 5.75 -7.8 4.4 -7.6 4.35 Q-6.05 -0.55 -1.2 -4.65 1.4 -6.0 3.5 -5.25" fill="#171e20" fill-rule="evenodd" stroke="none"/>
      <path d="M-7.8 4.4 L-7.75 4.3 -7.65 4.3 -7.6 4.35 -7.8 4.4" fill="#4f4f4f" fill-rule="evenodd" stroke="none"/>
      <path d="M-5.65 6.55 Q-3.4 7.75 -0.4 7.5 L-0.25 7.5 Q2.2 7.05 4.6 2.5 L6.75 -2.15 7.8 -4.25 Q7.4 -7.15 5.5 -7.4 4.4 -8.0 0.65 -6.4 L-1.2 -4.65 Q-6.05 -0.55 -7.6 4.35 M-7.8 4.4 L-7.75 4.3 -7.65 4.3 M-5.65 6.55 L-6.0 6.2 -6.45 5.75 -7.8 4.4" fill="none" stroke="#000000" stroke-linecap="round" stroke-linejoin="round" stroke-opacity="0.3019608" stroke-width="0.05"/>
    </g>
    <g id="sprite23" transform="matrix(1.0, 0.0, 0.0, 1.0, 13.95, 18.15)">
      <use height="36.0" transform="matrix(1.0, 0.0, 0.0, 1.0, -14.0, -18.2)" width="27.95" xlink:href="#shape18"/>
    </g>
    <g id="shape18" transform="matrix(1.0, 0.0, 0.0, 1.0, 14.0, 18.2)">
      <path d="M8.0 -14.65 Q5.35 -16.9 1.35 -17.4 -2.75 -17.95 -5.15 -16.0 -7.55 -14.0 -6.25 -10.4 -5.15 -6.8 -3.0 -4.8 -0.8 -2.7 2.3 -2.7 5.35 -2.7 9.3 -4.15 13.25 -5.75 11.95 -9.1 10.65 -12.4 8.0 -14.65 M-13.65 0.85 Q-14.15 -1.1 -13.75 -3.5 -12.95 -10.0 -9.7 -13.85 -6.5 -17.6 -1.05 -18.1 4.4 -18.5 9.45 -14.65 13.4 -11.55 13.85 -3.2 8.9 -5.05 2.55 0.6 L2.5 0.65 -0.1 -0.75 -0.65 -0.95 -2.8 -1.65 Q-9.4 -2.15 -13.65 0.85" fill="url(#gradient1)" fill-rule="evenodd" stroke="none"/>
      <path d="M8.0 -14.65 Q10.65 -12.4 11.95 -9.1 13.25 -5.75 9.3 -4.15 5.35 -2.7 2.3 -2.7 -0.8 -2.7 -3.0 -4.8 -5.15 -6.8 -6.25 -10.4 -7.55 -14.0 -5.15 -16.0 -2.75 -17.95 1.35 -17.4 5.35 -16.9 8.0 -14.65 M-2.75 -8.55 Q-2.5 -8.0 -1.15 -8.0 0.7 -8.0 0.7 -9.35 0.7 -10.7 -1.05 -10.4 -2.75 -10.0 -2.75 -9.1 L-2.75 -8.55" fill="url(#gradient2)" fill-rule="evenodd" stroke="none"/>
      <path d="M13.55 7.25 L11.8 17.7 11.3 13.85 Q10.65 5.75 2.5 0.65 L2.55 0.6 Q7.55 3.55 11.95 9.1 13.0 8.45 13.55 6.6 L13.55 7.25" fill="#5c7678" fill-rule="evenodd" stroke="none"/>
      <path d="M13.85 -3.2 L13.85 0.65 13.65 6.15 13.55 6.6 Q13.0 8.45 11.95 9.1 7.55 3.55 2.55 0.6 8.9 -5.05 13.85 -3.2" fill="#3c4b4f" fill-rule="evenodd" stroke="none"/>
      <path d="M11.8 17.7 L11.65 17.75 11.15 16.3 10.1 14.05 9.85 13.55 9.8 13.5 9.7 13.35 9.1 12.55 Q7.75 10.6 2.5 6.2 L2.4 6.15 2.3 6.05 2.2 5.95 Q0.7 4.2 2.5 0.65 10.65 5.75 11.3 13.85 L11.8 17.7" fill="#21292c" fill-rule="evenodd" stroke="none"/>
      <path d="M2.2 5.95 L1.7 5.4 0.95 4.85 -1.05 3.5 Q-0.35 5.5 -3.95 7.5 -5.15 8.3 -6.45 7.95 -8.7 7.35 -10.7 5.8 -13.1 3.95 -13.65 0.85 -9.4 -2.15 -2.8 -1.65 L-0.65 -0.95 -0.1 -0.75 2.5 0.65 Q0.7 4.2 2.2 5.95 M-8.7 3.65 Q-4.45 1.8 -1.05 3.5 -4.45 1.8 -8.7 3.65" fill="#c38124" fill-rule="evenodd" stroke="none"/>
      <path d="M9.85 13.55 L9.8 13.55 9.7 13.35 9.8 13.5 9.85 13.55 M9.8 13.55 L9.8 13.5 9.8 13.55" fill="url(#gradient3)" fill-rule="evenodd" stroke="none"/>
      <path d="M-2.75 -8.55 L-2.75 -9.1 Q-2.75 -10.0 -1.05 -10.4 0.7 -10.7 0.7 -9.35 0.7 -8.0 -1.15 -8.0 -2.5 -8.0 -2.75 -8.55" fill="#edc567" fill-rule="evenodd" stroke="none"/>
      <path d="M-13.65 0.85 Q-14.15 -1.1 -13.75 -3.5 -12.95 -10.0 -9.7 -13.85 -6.5 -17.6 -1.05 -18.1 4.4 -18.5 9.45 -14.65 13.4 -11.55 13.85 -3.2 L13.85 0.65 13.65 6.15 13.55 7.25 11.8 17.7 11.65 17.75 M10.1 14.05 L9.85 13.55 9.8 13.55 9.7 13.35 9.1 12.55 Q7.75 10.6 2.5 6.2 M2.4 6.15 L2.3 6.05 2.2 5.95 1.7 5.4 0.95 4.85 -1.05 3.5 Q-0.35 5.5 -3.95 7.5 -5.15 8.3 -6.45 7.95 -8.7 7.35 -10.7 5.8 -13.1 3.95 -13.65 0.85 M13.65 6.15 L13.55 6.6 13.55 7.25 M9.85 13.55 L9.8 13.5 9.8 13.55 M9.8 13.5 L9.7 13.35 M-1.05 3.5 Q-4.45 1.8 -8.7 3.65" fill="none" stroke="#000000" stroke-linecap="round" stroke-linejoin="round" stroke-opacity="0.4" stroke-width="0.05"/>
    </g>
    <linearGradient gradientTransform="matrix(-0.0116, -0.0123, 0.0121, -0.0114, 3.7, -2.0)" gradientUnits="userSpaceOnUse" id="gradient1" spreadMethod="pad" x1="-819.2" x2="819.2">
      <stop offset="0.0" stop-color="#d7a13f"/>
      <stop offset="1.0" stop-color="#edc567"/>
    </linearGradient>
    <linearGradient gradientTransform="matrix(0.0042, 0.0091, -0.0094, 0.0042, 3.2, -10.7)" gradientUnits="userSpaceOnUse" id="gradient2" spreadMethod="pad" x1="-819.2" x2="819.2">
      <stop offset="0.0" stop-color="#f7e4bb"/>
      <stop offset="1.0" stop-color="#edc567"/>
    </linearGradient>
    <linearGradient gradientTransform="matrix(0.0159, 0.0, 0.0, 0.0097, -0.65, 6.15)" gradientUnits="userSpaceOnUse" id="gradient3" spreadMethod="pad" x1="-819.2" x2="819.2">
      <stop offset="0.0" stop-color="#851d13"/>
      <stop offset="1.0" stop-color="#59120c"/>
    </linearGradient>
    <g id="sprite24" transform="matrix(1.0, 0.0, 0.0, 1.0, 18.65, 12.75)">
      <use height="25.65" transform="matrix(1.0, 0.0, 0.0, 1.0, -18.7, -12.8)" width="37.35" xlink:href="#shape19"/>
    </g>
    <g id="shape19" transform="matrix(1.0, 0.0, 0.0, 1.0, 18.7, 12.8)">
      <path d="M1.55 -10.25 Q8.1 -8.5 12.7 -4.25 17.3 0.05 18.4 5.0 19.45 9.9 14.7 11.85 10.0 13.75 2.35 11.75 -5.25 9.65 -11.15 5.3 -17.1 0.8 -15.6 -3.55 -14.2 -8.0 -9.6 -9.95 L1.55 -10.25" fill="#171e20" fill-rule="evenodd" stroke="none"/>
      <path d="M1.55 -10.25 Q8.1 -8.5 12.7 -4.25 17.3 0.05 18.4 5.0 19.45 9.9 14.7 11.85 10.0 13.75 2.35 11.75 -5.25 9.65 -11.15 5.3 -17.1 0.8 -15.6 -3.55 -14.2 -8.0 -9.6 -9.95 L1.55 -10.25 Z" fill="none" stroke="#000000" stroke-linecap="round" stroke-linejoin="round" stroke-opacity="0.3019608" stroke-width="0.05"/>
      <path d="M-10.95 -5.4 L-3.35 -12.55 -3.3 -12.75 -0.7 -11.25 -0.9 -11.2 -1.3 -11.25 -8.85 -4.05 -10.95 -5.4 M15.55 7.8 L9.5 7.3 8.8 7.3 5.55 5.1 0.65 4.45 0.75 4.2 1.45 3.05 3.8 -1.35 Q5.1 -0.7 6.35 -0.15 L6.95 5.1 10.6 5.5 14.4 5.65 14.6 5.65 15.55 7.8" fill="#3c4b4f" fill-rule="evenodd" stroke="none"/>
      <path d="M-0.7 -11.25 L-3.3 -12.75 Q2.15 -12.05 8.5 -9.55 L11.1 -8.45 15.0 -6.75 Q17.3 -0.3 15.55 7.8 L14.6 5.65 14.55 5.6 14.85 3.9 15.05 0.3 11.1 -2.0 10.85 -4.25 14.75 -3.35 13.9 -6.25 11.65 -7.2 Q10.3 -7.85 9.1 -8.4 4.0 -10.3 -0.45 -11.2 L-0.7 -11.25" fill="#21292c" fill-rule="evenodd" stroke="none"/>
      <path d="M-8.85 -4.05 L-1.3 -11.25 -0.9 -11.2 -0.45 -11.2 3.4 -8.2 Q7.55 -4.45 10.95 0.05 L12.3 2.0 13.85 4.4 14.55 5.6 14.4 5.65 10.6 5.5 6.95 5.1 6.35 -0.15 Q5.1 -0.7 3.8 -1.35 L1.45 3.05 Q0.65 2.5 -0.15 2.15 L-3.75 -0.05 Q-6.85 -2.1 -8.85 -4.05" fill="#edc567" fill-rule="evenodd" stroke="none"/>
      <path d="M-0.45 -11.2 Q4.0 -10.3 9.1 -8.4 10.3 -7.85 11.65 -7.2 L13.9 -6.25 14.75 -3.35 10.85 -4.25 11.1 -2.0 15.05 0.3 14.85 3.9 14.55 5.6 13.85 4.4 12.3 2.0 10.95 0.05 Q7.55 -4.45 3.4 -8.2 L-0.45 -11.2" fill="#d7a13f" fill-rule="evenodd" stroke="none"/>
      <path d="M-10.95 -5.4 L-8.85 -4.05 -13.75 0.85 -11.15 1.65 0.75 4.2 0.65 4.45 5.55 5.1 8.8 7.3 5.0 6.75 Q-7.8 5.3 -18.65 1.9 L-17.85 1.25 -17.6 1.15 -10.95 -5.4" fill="#171e20" fill-rule="evenodd" stroke="none"/>
      <path d="M0.75 4.2 L-11.15 1.65 -13.75 0.85 -8.85 -4.05 Q-6.85 -2.1 -3.75 -0.05 L-0.15 2.15 Q0.65 2.5 1.45 3.05 L0.75 4.2" fill="#c38124" fill-rule="evenodd" stroke="none"/>
      <path d="M-3.3 -12.75 L-3.35 -12.55 -10.95 -5.4 -17.6 1.15 -17.85 1.25 -18.65 1.9 Q-7.8 5.3 5.0 6.75 L8.8 7.3 M-1.3 -11.25 L-0.9 -11.2 -0.45 -11.2 3.4 -8.2 Q7.55 -4.45 10.95 0.05 L12.3 2.0 13.85 4.4 14.55 5.6 14.4 5.65 M-3.3 -12.75 Q2.15 -12.05 8.5 -9.55 L11.1 -8.45 15.0 -6.75 Q17.3 -0.3 15.55 7.8 L9.5 7.3 M14.75 -3.35 L10.85 -4.25 11.1 -2.0 15.05 0.3 M1.45 3.05 L3.8 -1.35 Q5.1 -0.7 6.35 -0.15 L6.95 5.1 M0.65 4.45 L0.75 4.2 1.45 3.05" fill="none" stroke="#000000" stroke-linecap="round" stroke-linejoin="round" stroke-opacity="0.3019608" stroke-width="0.05"/>
      <path d="M-2.3 -5.6 L-3.7 -3.8 -8.85 -4.05 -5.5 -7.3 -2.3 -5.6" fill="#3c4b4f" fill-rule="evenodd" stroke="none"/>
      <path d="M-2.3 -5.6 L-3.7 -3.8 -8.85 -4.05 -5.5 -7.3 -2.3 -5.6 Z" fill="none" stroke="#000000" stroke-linecap="round" stroke-linejoin="round" stroke-opacity="0.3019608" stroke-width="0.05"/>
      <path d="M4.9 -9.95 L8.35 -8.85 7.35 -7.4 4.9 -7.9 4.9 -9.95" fill="#21292c" fill-rule="evenodd" stroke="none"/>
      <path d="M4.9 -9.95 L4.9 -7.9 7.35 -7.4 8.35 -8.85 4.9 -9.95 Z" fill="none" stroke="#000000" stroke-linecap="round" stroke-linejoin="round" stroke-opacity="0.3019608" stroke-width="0.05"/>
    </g>
    <g id="sprite25" transform="matrix(1.0, 0.0, 0.0, 1.0, 5.4, 4.45)">
      <use height="9.05" transform="matrix(1.0, 0.0, 0.0, 1.0, -5.45, -4.5)" width="11.05" xlink:href="#shape20"/>
    </g>
    <g id="shape20" transform="matrix(1.0, 0.0, 0.0, 1.0, 5.45, 4.5)">
      <path d="M-0.2 0.45 Q-0.95 -1.05 -2.35 -0.95 -3.1 -1.1 -4.6 -0.2 -5.55 0.35 -5.4 2.1 -4.15 3.5 -2.35 3.95 -2.75 2.7 -2.3 2.1 -0.95 0.6 -0.2 0.45" fill="#21292c" fill-rule="evenodd" stroke="none"/>
      <path d="M-2.35 3.95 Q-1.05 3.35 -0.4 1.7 L-0.2 0.45 Q-0.95 0.6 -2.3 2.1 -2.75 2.7 -2.35 3.95" fill="#121718" fill-rule="evenodd" stroke="none"/>
      <path d="M-0.2 0.45 Q-0.95 -1.05 -2.35 -0.95 -3.1 -1.1 -4.6 -0.2 -5.55 0.35 -5.4 2.1 -4.15 3.5 -2.35 3.95 -1.05 3.35 -0.4 1.7 L-0.2 0.45 Z" fill="none" stroke="#000000" stroke-linecap="round" stroke-linejoin="round" stroke-opacity="0.3019608" stroke-width="0.05"/>
      <path d="M-3.75 -1.45 L-0.8 -3.25 0.65 -3.85 3.25 -3.25 4.85 -3.55 5.5 -2.55 4.1 -2.1 3.75 -2.0 3.3 -1.45 3.2 -0.6 2.5 -1.25 1.55 -0.55 0.95 0.15 -0.1 0.25 -0.45 0.45 Q-2.15 -1.4 -3.75 -1.45" fill="#d7a13f" fill-rule="evenodd" stroke="none"/>
      <path d="M-0.45 0.45 L-0.1 0.25 0.95 0.15 1.55 -0.55 2.5 -1.25 3.2 -0.6 3.3 -1.45 3.75 -2.0 4.1 -2.1 5.5 -2.55 Q5.75 -1.95 5.1 -0.5 0.75 3.95 -1.15 4.5 -0.05 3.15 -0.45 0.45" fill="#c38124" fill-rule="evenodd" stroke="none"/>
      <path d="M4.85 -3.55 L3.25 -3.25 0.65 -3.85 -0.8 -3.25 -3.75 -1.45 -4.05 -1.45 -4.45 -1.4 Q-2.3 -3.65 -0.15 -4.15 L3.15 -4.45 Q4.1 -4.5 4.85 -3.55" fill="#edc567" fill-rule="evenodd" stroke="none"/>
      <path d="M-4.45 -1.4 L-4.05 -1.45 -3.75 -1.45 Q-2.15 -1.4 -0.45 0.45 L-2.15 1.75 Q-3.75 -0.15 -5.0 -0.05 L-4.45 -1.4" fill="#3c4b4f" fill-rule="evenodd" stroke="none"/>
      <path d="M-1.15 4.5 L-2.2 4.35 -2.15 1.75 -0.45 0.45 Q-0.05 3.15 -1.15 4.5" fill="#21292c" fill-rule="evenodd" stroke="none"/>
      <path d="M4.85 -3.55 Q4.1 -4.5 3.15 -4.45 L-0.15 -4.15 Q-2.3 -3.65 -4.45 -1.4 L-5.0 -0.05 Q-3.75 -0.15 -2.15 1.75 L-2.2 4.35 -1.15 4.5 Q0.75 3.95 5.1 -0.5 5.75 -1.95 5.5 -2.55 L4.85 -3.55 M-4.05 -1.45 L-3.75 -1.45" fill="none" stroke="#000000" stroke-linecap="round" stroke-linejoin="round" stroke-opacity="0.3019608" stroke-width="0.05"/>
    </g>
    <g id="sprite26" transform="matrix(1.0, 0.0, 0.0, 1.0, 2.4, 4.75)">
      <use height="9.65" transform="matrix(1.0, 0.0, 0.0, 1.0, -2.45, -4.8)" width="4.9" xlink:href="#shape21"/>
    </g>
    <g id="shape21" transform="matrix(1.0, 0.0, 0.0, 1.0, 2.45, 4.8)">
      <path d="M0.4 -2.95 L2.4 -2.95 2.1 -2.0 2.0 -1.6 -0.05 -1.1 0.4 -2.95" fill="#21292c" fill-rule="evenodd" stroke="none"/>
      <path d="M0.4 -2.95 L-0.05 -1.1 -2.15 -2.85 -1.55 -4.75 0.4 -2.95" fill="#3c4b4f" fill-rule="evenodd" stroke="none"/>
      <path d="M-1.0 4.8 L-1.6 4.0 Q-2.9 0.8 -2.15 -2.85 L-0.05 -1.1 -1.0 4.8" fill="#d7a13f" fill-rule="evenodd" stroke="none"/>
      <path d="M-0.05 -1.1 L2.0 -1.6 Q0.2 2.0 -0.35 3.95 L-1.0 4.8 -0.05 -1.1" fill="#c38124" fill-rule="evenodd" stroke="none"/>
      <path d="M2.0 -1.6 L2.1 -2.0 2.4 -2.95 0.4 -2.95 -1.55 -4.75 -2.15 -2.85 -0.05 -1.1 2.0 -1.6 Q0.2 2.0 -0.35 3.95 L-1.0 4.8 -1.6 4.0 Q-2.9 0.8 -2.15 -2.85" fill="none" stroke="#000000" stroke-linecap="round" stroke-linejoin="round" stroke-opacity="0.3019608" stroke-width="0.05"/>
      <path d="M-1.6 3.45 L-1.45 2.9 -1.45 1.4 -1.6 -0.05 Q-1.7 -0.65 -1.85 -0.65 L-2.0 -0.05 -2.0 1.45 -1.9 2.9 -1.6 3.45" fill="#edc567" fill-rule="evenodd" stroke="none"/>
    </g>
    <g id="sprite27" transform="matrix(1.0, 0.0, 0.0, 1.0, 5.55, 5.5)">
      <use height="11.1" transform="matrix(1.0, 0.0, 0.0, 1.0, -5.6, -5.55)" width="11.15" xlink:href="#shape22"/>
    </g>
    <g id="shape22" transform="matrix(1.0, 0.0, 0.0, 1.0, 5.6, 5.55)">
      <path d="M-1.7 2.85 L-4.2 -0.05 Q-2.4 -2.9 0.1 -5.5 L2.0 -0.65 -1.7 2.85" fill="#943c12" fill-rule="evenodd" stroke="none"/>
      <path d="M-1.7 2.85 L2.0 -0.65 Q4.0 0.5 5.45 3.6 4.8 5.1 2.45 5.5 -0.2 5.0 -1.7 2.85" fill="#c38124" fill-rule="evenodd" stroke="none"/>
      <path d="M2.0 -0.65 L0.1 -5.5 Q3.15 -3.0 4.5 -0.45 5.75 2.05 5.45 3.6 4.0 0.5 2.0 -0.65" fill="#d7a13f" fill-rule="evenodd" stroke="none"/>
      <path d="M0.1 -5.5 Q-2.4 -2.9 -4.2 -0.05 L-1.7 2.85 2.0 -0.65 0.1 -5.5 Q3.15 -3.0 4.5 -0.45 5.75 2.05 5.45 3.6 4.8 5.1 2.45 5.5 -0.2 5.0 -1.7 2.85" fill="none" stroke="#000000" stroke-linecap="round" stroke-linejoin="round" stroke-opacity="0.3019608" stroke-width="0.05"/>
      <path d="M1.25 -1.1 Q0.3 -1.0 -1.6 -2.75 -2.3 -3.35 -1.95 -4.9 -0.15 -4.45 0.85 -2.5 L1.25 -1.1" fill="#21292c" fill-rule="evenodd" stroke="none"/>
      <path d="M1.25 -1.1 Q0.55 1.0 -1.25 1.1 -2.15 1.4 -4.15 0.5 -5.5 0.05 -5.55 -2.15 -4.15 -4.1 -1.95 -4.9 -2.3 -3.35 -1.6 -2.75 0.3 -1.0 1.25 -1.1" fill="#3c4b4f" fill-rule="evenodd" stroke="none"/>
      <path d="M-1.95 -4.9 Q-4.15 -4.1 -5.55 -2.15 -5.5 0.05 -4.15 0.5 -2.15 1.4 -1.25 1.1 0.55 1.0 1.25 -1.1 L0.85 -2.5 Q-0.15 -4.45 -1.95 -4.9 Z" fill="none" stroke="#000000" stroke-linecap="round" stroke-linejoin="round" stroke-opacity="0.3019608" stroke-width="0.05"/>
    </g>
    <g id="sprite28" transform="matrix(1.0, 0.0, 0.0, 1.0, 5.9, 7.0)">
      <use height="14.1" transform="matrix(1.0, 0.0, 0.0, 1.0, -5.95, -7.05)" width="11.85" xlink:href="#shape23"/>
    </g>
    <g id="shape23" transform="matrix(1.0, 0.0, 0.0, 1.0, 5.95, 7.05)">
      <path d="M0.05 1.35 Q-1.75 0.05 -3.3 1.0 -4.25 1.3 -5.45 3.3 -6.25 4.5 -5.0 6.45 L-0.3 6.75 Q-1.5 5.55 -1.35 4.55 -0.75 1.95 0.05 1.35" fill="#21292c" fill-rule="evenodd" stroke="none"/>
      <path d="M-0.3 6.75 Q0.85 5.25 0.6 2.95 L0.05 1.35 Q-0.75 1.95 -1.35 4.55 -1.5 5.55 -0.3 6.75" fill="#121718" fill-rule="evenodd" stroke="none"/>
      <path d="M0.05 1.35 Q-1.75 0.05 -3.3 1.0 -4.25 1.3 -5.45 3.3 -6.25 4.5 -5.0 6.45 L-0.3 6.75 Q0.85 5.25 0.6 2.95 L0.05 1.35 Z" fill="none" stroke="#000000" stroke-linecap="round" stroke-linejoin="round" stroke-opacity="0.3019608" stroke-width="0.05"/>
      <path d="M5.05 -5.9 Q5.6 -5.35 5.85 -3.25 3.45 4.6 1.6 6.45 2.1 4.15 -0.1 1.4 L0.2 0.8 1.4 0.1 1.7 -1.15 2.35 -2.5 3.5 -2.2 3.15 -3.25 3.35 -4.2 3.6 -4.5 5.05 -5.9" fill="#c38124" fill-rule="evenodd" stroke="none"/>
      <path d="M3.7 -6.65 L5.05 -5.9 3.6 -4.5 3.35 -4.2 3.15 -3.25 3.5 -2.2 2.35 -2.5 1.7 -1.15 1.4 0.1 0.2 0.8 -0.1 1.4 Q-3.15 0.15 -5.1 1.1 L-2.8 -2.8 -1.45 -4.35 2.0 -5.25 3.7 -6.65" fill="#d7a13f" fill-rule="evenodd" stroke="none"/>
      <path d="M-5.9 1.65 Q-4.75 -2.3 -2.55 -4.25 -1.9 -4.95 1.1 -6.65 2.2 -7.3 3.7 -6.65 L2.0 -5.25 -1.45 -4.35 -2.8 -2.8 -5.1 1.1 -5.45 1.35 -5.9 1.65" fill="#edc567" fill-rule="evenodd" stroke="none"/>
      <path d="M-1.3 3.95 Q-4.25 2.65 -5.7 3.45 L-5.9 1.65 -5.45 1.35 -5.1 1.1 Q-3.15 0.15 -0.1 1.4 L-1.3 3.95" fill="#3c4b4f" fill-rule="evenodd" stroke="none"/>
      <path d="M1.6 6.45 Q0.85 6.5 0.25 7.0 L-1.3 3.95 -0.1 1.4 Q2.1 4.15 1.6 6.45" fill="#21292c" fill-rule="evenodd" stroke="none"/>
      <path d="M3.7 -6.65 L5.05 -5.9 Q5.6 -5.35 5.85 -3.25 3.45 4.6 1.6 6.45 0.85 6.5 0.25 7.0 L-1.3 3.95 Q-4.25 2.65 -5.7 3.45 L-5.9 1.65 Q-4.75 -2.3 -2.55 -4.25 -1.9 -4.95 1.1 -6.65 2.2 -7.3 3.7 -6.65 M-5.1 1.1 L-5.45 1.35" fill="none" stroke="#000000" stroke-linecap="round" stroke-linejoin="round" stroke-opacity="0.3019608" stroke-width="0.05"/>
    </g>
    <g id="sprite29" transform="matrix(1.0, 0.0, 0.0, 1.0, 3.3, 8.4)">
      <use height="16.95" transform="matrix(1.0, 0.0, 0.0, 1.0, -3.35, -8.45)" width="6.65" xlink:href="#shape24"/>
    </g>
    <g id="shape24" transform="matrix(1.0, 0.0, 0.0, 1.0, 3.35, 8.45)">
      <path d="M2.95 -2.4 L1.25 -4.95 2.0 -7.45 3.25 -4.5 2.95 -2.95 2.95 -2.4" fill="#21292c" fill-rule="evenodd" stroke="none"/>
      <path d="M2.0 -7.45 L1.25 -4.95 -3.2 -5.6 -1.95 -8.4 2.0 -7.45" fill="#3c4b4f" fill-rule="evenodd" stroke="none"/>
      <path d="M-3.2 -5.6 L1.25 -4.95 0.1 8.45 -1.1 7.15 Q-3.85 2.2 -3.2 -5.6" fill="#d7a13f" fill-rule="evenodd" stroke="none"/>
      <path d="M1.25 -4.95 L2.95 -2.4 Q1.25 3.6 0.85 6.85 L0.1 8.45 1.25 -4.95" fill="#c38124" fill-rule="evenodd" stroke="none"/>
      <path d="M1.25 -4.95 L2.95 -2.4 2.95 -2.95 3.25 -4.5 2.0 -7.45 -1.95 -8.4 -3.2 -5.6 Q-3.85 2.2 -1.1 7.15 L0.1 8.45 0.85 6.85 Q1.25 3.6 2.95 -2.4 M1.25 -4.95 L-3.2 -5.6" fill="none" stroke="#000000" stroke-linecap="round" stroke-linejoin="round" stroke-opacity="0.3019608" stroke-width="0.05"/>
      <path d="M-1.65 -3.25 Q-1.6 -3.8 -1.8 -4.15 -1.9 -4.6 -2.1 -4.65 L-2.55 -4.45 -2.8 -3.65 -2.7 -2.75 -2.35 -2.2 -1.9 -2.45 Q-1.7 -2.8 -1.65 -3.25 M-2.7 0.6 L-2.55 2.85 -2.0 5.1 -1.45 5.95 Q-1.2 5.95 -1.2 5.1 -1.15 4.1 -1.4 2.85 L-1.9 0.6 Q-2.25 -0.35 -2.45 -0.35 -2.7 -0.35 -2.7 0.6" fill="#edc567" fill-rule="evenodd" stroke="none"/>
    </g>
    <g id="sprite30" transform="matrix(1.0, 0.0, 0.0, 1.0, 3.85, 3.8)">
      <use height="7.75" transform="matrix(1.0, 0.0, 0.0, 1.0, -3.9, -3.85)" width="7.75" xlink:href="#shape25"/>
    </g>
    <g id="shape25" transform="matrix(1.0, 0.0, 0.0, 1.0, 3.9, 3.85)">
      <path d="M0.1 -3.8 Q2.15 -1.9 3.1 -0.05 4.0 1.75 3.75 2.75 2.8 0.5 1.4 -0.35 L0.1 -3.8" fill="#d7a13f" fill-rule="evenodd" stroke="none"/>
      <path d="M-1.2 1.8 L-2.9 -0.25 0.1 -3.8 1.4 -0.35 -1.2 1.8" fill="#943c12" fill-rule="evenodd" stroke="none"/>
      <path d="M3.75 2.75 Q3.3 3.75 1.75 3.85 -0.15 3.45 -1.2 1.8 L1.4 -0.35 Q2.8 0.5 3.75 2.75" fill="#c38124" fill-rule="evenodd" stroke="none"/>
      <path d="M0.1 -3.8 Q2.15 -1.9 3.1 -0.05 4.0 1.75 3.75 2.75 3.3 3.75 1.75 3.85 -0.15 3.45 -1.2 1.8 L-2.9 -0.25 0.1 -3.8 1.4 -0.35 -1.2 1.8" fill="none" stroke="#000000" stroke-linecap="round" stroke-linejoin="round" stroke-opacity="0.3019608" stroke-width="0.05"/>
      <path d="M-1.35 -3.6 Q-0.15 -3.2 0.55 -1.8 L0.75 -0.7 Q0.15 -0.8 -1.1 -2.05 -1.6 -2.5 -1.35 -3.6" fill="#21292c" fill-rule="evenodd" stroke="none"/>
      <path d="M-1.35 -3.6 Q-1.6 -2.5 -1.1 -2.05 0.15 -0.8 0.75 -0.7 0.35 0.65 -0.85 0.6 L-2.9 0.05 Q-3.85 -0.35 -3.85 -1.85 -2.95 -3.15 -1.35 -3.6" fill="#3c4b4f" fill-rule="evenodd" stroke="none"/>
      <path d="M0.75 -0.7 L0.55 -1.8 Q-0.15 -3.2 -1.35 -3.6 -2.95 -3.15 -3.85 -1.85 -3.85 -0.35 -2.9 0.05 L-0.85 0.6 Q0.35 0.65 0.75 -0.7 Z" fill="none" stroke="#000000" stroke-linecap="round" stroke-linejoin="round" stroke-opacity="0.3019608" stroke-width="0.05"/>
    </g>
    <g id="sprite31" transform="matrix(1.0, 0.0, 0.0, 1.0, 5.9, 7.0)">
      <use height="14.55" transform="matrix(1.0, 0.0, 0.0, 1.0, -5.95, -7.05)" width="11.85" xlink:href="#shape26"/>
    </g>
    <g id="shape26" transform="matrix(1.0, 0.0, 0.0, 1.0, 5.95, 7.05)">
      <path d="M0.0 1.85 Q-1.8 0.55 -3.35 1.5 -4.3 1.8 -5.5 3.8 -6.3 5.0 -5.05 6.95 L-0.35 7.25 Q-1.55 6.05 -1.4 5.05 -0.8 2.45 0.0 1.85" fill="#21292c" fill-rule="evenodd" stroke="none"/>
      <path d="M-0.35 7.25 Q0.8 5.75 0.55 3.45 L0.0 1.85 Q-0.8 2.45 -1.4 5.05 -1.55 6.05 -0.35 7.25" fill="#121718" fill-rule="evenodd" stroke="none"/>
      <path d="M0.0 1.85 Q-1.8 0.55 -3.35 1.5 -4.3 1.8 -5.5 3.8 -6.3 5.0 -5.05 6.95 L-0.35 7.25 Q0.8 5.75 0.55 3.45 L0.0 1.85 Z" fill="none" stroke="#000000" stroke-linecap="round" stroke-linejoin="round" stroke-opacity="0.3019608" stroke-width="0.05"/>
      <path d="M5.05 -5.9 Q5.6 -5.35 5.85 -3.25 3.45 4.6 1.6 6.45 2.1 4.15 -0.1 1.4 L0.2 0.8 1.4 0.1 1.7 -1.15 2.35 -2.5 3.5 -2.2 3.15 -3.25 3.35 -4.2 3.6 -4.5 5.05 -5.9" fill="#c38124" fill-rule="evenodd" stroke="none"/>
      <path d="M3.7 -6.65 L5.05 -5.9 3.6 -4.5 3.35 -4.2 3.15 -3.25 3.5 -2.2 2.35 -2.5 1.7 -1.15 1.4 0.1 0.2 0.8 -0.1 1.4 Q-3.15 0.15 -5.1 1.1 L-2.8 -2.8 -1.45 -4.35 2.0 -5.25 3.7 -6.65" fill="#d7a13f" fill-rule="evenodd" stroke="none"/>
      <path d="M-5.9 1.65 Q-4.75 -2.3 -2.55 -4.25 -1.9 -4.95 1.1 -6.65 2.2 -7.3 3.7 -6.65 L2.0 -5.25 -1.45 -4.35 -2.8 -2.8 -5.1 1.1 -5.45 1.35 -5.9 1.65" fill="#edc567" fill-rule="evenodd" stroke="none"/>
      <path d="M-1.3 3.95 Q-4.25 2.65 -5.7 3.45 L-5.9 1.65 -5.45 1.35 -5.1 1.1 Q-3.15 0.15 -0.1 1.4 L-1.3 3.95" fill="#3c4b4f" fill-rule="evenodd" stroke="none"/>
      <path d="M1.6 6.45 Q0.85 6.5 0.25 7.0 L-1.3 3.95 -0.1 1.4 Q2.1 4.15 1.6 6.45" fill="#21292c" fill-rule="evenodd" stroke="none"/>
      <path d="M3.7 -6.65 L5.05 -5.9 Q5.6 -5.35 5.85 -3.25 3.45 4.6 1.6 6.45 0.85 6.5 0.25 7.0 L-1.3 3.95 Q-4.25 2.65 -5.7 3.45 L-5.9 1.65 Q-4.75 -2.3 -2.55 -4.25 -1.9 -4.95 1.1 -6.65 2.2 -7.3 3.7 -6.65 M-5.1 1.1 L-5.45 1.35" fill="none" stroke="#000000" stroke-linecap="round" stroke-linejoin="round" stroke-opacity="0.3019608" stroke-width="0.05"/>
    </g>
    <g id="sprite32" transform="matrix(1.0, 0.0, 0.0, 1.0, 2.95, 5.65)">
      <use height="11.45" transform="matrix(1.0, 0.0, 0.0, 1.0, -3.0, -5.7)" width="5.95" xlink:href="#shape27"/>
    </g>
    <g id="shape27" transform="matrix(1.0, 0.0, 0.0, 1.0, 3.0, 5.7)">
      <path d="M0.35 -4.25 L2.9 -4.9 2.85 -3.65 2.9 -3.2 0.4 -1.9 0.35 -4.25" fill="#21292c" fill-rule="evenodd" stroke="none"/>
      <path d="M0.35 -4.25 L0.4 -1.9 -2.9 -3.2 -2.95 -5.65 0.35 -4.25" fill="#3c4b4f" fill-rule="evenodd" stroke="none"/>
      <path d="M1.35 5.7 L0.2 5.0 Q-2.6 1.5 -2.9 -3.2 L0.4 -1.9 Q0.65 2.0 1.35 5.7" fill="#d7a13f" fill-rule="evenodd" stroke="none"/>
      <path d="M0.4 -1.9 L2.9 -3.2 Q1.9 1.75 1.85 4.4 L1.35 5.7 Q0.65 2.0 0.4 -1.9" fill="#c38124" fill-rule="evenodd" stroke="none"/>
      <path d="M2.9 -3.2 L2.85 -3.65 2.9 -4.9 0.35 -4.25 -2.95 -5.65 -2.9 -3.2 0.4 -1.9 2.9 -3.2 Q1.9 1.75 1.85 4.4 L1.35 5.7 0.2 5.0 Q-2.6 1.5 -2.9 -3.2" fill="none" stroke="#000000" stroke-linecap="round" stroke-linejoin="round" stroke-opacity="0.3019608" stroke-width="0.05"/>
      <path d="M-0.05 4.05 L-0.05 3.3 -0.6 1.5 -1.35 -0.2 -1.85 -0.8 -1.85 -0.05 -1.35 1.75 -0.6 3.45 -0.05 4.05" fill="#edc567" fill-rule="evenodd" stroke="none"/>
    </g>
    <g id="sprite33" transform="matrix(1.0, 0.0, 0.0, 1.0, 4.9, 4.95)">
      <use height="10.0" transform="matrix(1.0, 0.0, 0.0, 1.0, -4.95, -5.0)" width="9.9" xlink:href="#shape28"/>
    </g>
    <g id="shape28" transform="matrix(1.0, 0.0, 0.0, 1.0, 4.95, 5.0)">
      <path d="M4.1 -2.75 Q5.2 -1.0 4.75 0.95 L4.3 2.4 2.7 4.0 Q1.0 5.15 -1.0 4.7 -3.0 4.3 -4.05 2.6 -5.2 0.95 -4.8 -1.05 L-4.8 -1.15 Q-4.55 -2.15 -3.95 -2.95 L-2.7 -4.15 Q-1.0 -5.25 1.0 -4.85 2.95 -4.4 4.1 -2.75 M3.0 -3.5 Q2.75 -3.75 2.35 -3.85 L1.65 -3.75 1.25 -3.3 Q1.2 -3.0 1.4 -2.75 1.65 -2.45 2.05 -2.4 L2.8 -2.45 3.2 -2.95 3.0 -3.5" fill="url(#gradient4)" fill-rule="evenodd" stroke="none"/>
      <path d="M3.0 -3.5 L3.2 -2.95 2.8 -2.45 2.05 -2.4 Q1.65 -2.45 1.4 -2.75 1.2 -3.0 1.25 -3.3 L1.65 -3.75 2.35 -3.85 Q2.75 -3.75 3.0 -3.5" fill="#d8ca7c" fill-rule="evenodd" stroke="none"/>
      <path d="M4.1 -2.75 Q2.95 -4.4 1.0 -4.85 -1.0 -5.25 -2.7 -4.15 L-3.95 -2.95 Q-4.55 -2.15 -4.8 -1.15 L-4.8 -1.05 Q-5.2 0.95 -4.05 2.6 -3.0 4.3 -1.0 4.7 1.0 5.15 2.7 4.0 L4.3 2.4 4.75 0.95 Q5.2 -1.0 4.1 -2.75 Z" fill="none" stroke="#170e09" stroke-linecap="round" stroke-linejoin="round" stroke-opacity="0.4509804" stroke-width="0.05"/>
      <path d="M-2.95 4.15 L-3.15 4.05 -4.35 2.75 Q-4.95 1.9 -4.8 1.35 -2.0 5.05 3.35 3.55 L2.5 4.35 0.95 4.9 0.55 4.95 -1.35 4.85 -2.95 4.15" fill="#21292c" fill-rule="evenodd" stroke="none"/>
      <path d="M-2.95 4.15 L-1.35 4.85 0.55 4.95 0.95 4.9 2.5 4.35 3.35 3.55 Q-2.0 5.05 -4.8 1.35 -4.95 1.9 -4.35 2.75 L-3.15 4.05 -2.95 4.15 Z" fill="none" stroke="#170e09" stroke-linecap="round" stroke-linejoin="round" stroke-opacity="0.4509804" stroke-width="0.05"/>
      <path d="M0.05 1.2 L-0.25 2.15 -0.15 3.15 0.2 3.6 0.65 3.25 0.95 2.3 0.85 1.3 0.5 0.85 Q0.25 0.8 0.05 1.2" fill="#000000" fill-rule="evenodd" stroke="none"/>
      <path d="M0.05 1.2 L-0.25 2.15 -0.15 3.15 0.2 3.6 0.65 3.25 0.95 2.3 0.85 1.3 0.5 0.85 Q0.25 0.8 0.05 1.2 Z" fill="none" stroke="#170e09" stroke-linecap="round" stroke-linejoin="round" stroke-opacity="0.4509804" stroke-width="0.05"/>
    </g>
    <radialGradient cx="0" cy="0" gradientTransform="matrix(0.0063, -0.0017, 0.0011, 0.0042, 1.3, 0.75)" gradientUnits="userSpaceOnUse" id="gradient4" r="819.2" spreadMethod="pad">
      <stop offset="0.44313725490196076" stop-color="#fbf1bf"/>
      <stop offset="0.5803921568627451" stop-color="#d8ca7c"/>
    </radialGradient>
    <g id="sprite34" transform="matrix(1.0, 0.0, 0.0, 1.0, 4.5, 5.9)">
      <use height="11.9" transform="matrix(1.0, 0.0, 0.0, 1.0, -4.55, -5.95)" width="9.15" xlink:href="#shape29"/>
    </g>
    <g id="shape29" transform="matrix(1.0, 0.0, 0.0, 1.0, 4.55, 5.95)">
      <path d="M-3.0 -2.1 L-2.95 -4.2 Q-2.85 -5.65 -1.75 -5.9 L0.7 -3.7 1.15 -4.1 Q1.85 -3.8 3.05 -2.0 L3.8 -0.65 4.1 -0.3 4.55 0.2 Q2.2 1.25 -1.0 5.9 L-3.6 2.45 -3.85 -1.0 -3.7 -1.85 -2.95 -1.55 -3.0 -2.1 M-0.8 -0.85 L-0.8 -1.15 -1.2 -1.3 -1.55 -1.2 -1.8 -0.9 -1.75 -0.6 Q-1.55 -0.45 -1.45 -0.45 L-0.95 -0.45 Q-0.8 -0.6 -0.8 -0.85 M0.7 -3.7 Q0.5 -3.5 0.35 -2.5 0.5 -3.5 0.7 -3.7" fill="url(#gradient5)" fill-rule="evenodd" stroke="none"/>
      <path d="M-0.8 -0.85 Q-0.8 -0.6 -0.95 -0.45 L-1.45 -0.45 Q-1.55 -0.45 -1.75 -0.6 L-1.8 -0.9 -1.55 -1.2 -1.2 -1.3 -0.8 -1.15 -0.8 -0.85" fill="#748d94" fill-rule="evenodd" stroke="none"/>
      <path d="M-3.6 2.45 L-4.15 1.65 Q-4.95 0.3 -3.85 -1.0 L-3.6 2.45" fill="#21292c" fill-rule="evenodd" stroke="none"/>
      <path d="M-3.0 -2.1 L-2.95 -4.2 Q-2.85 -5.65 -1.75 -5.9 L0.7 -3.7 1.15 -4.1 Q1.85 -3.8 3.05 -2.0 L3.8 -0.65 4.1 -0.3 4.55 0.2 Q2.2 1.25 -1.0 5.9 L-3.6 2.45 -4.15 1.65 Q-4.95 0.3 -3.85 -1.0 L-3.7 -1.85 -2.95 -1.55 M-3.6 2.45 L-3.85 -1.0 M0.35 -2.5 Q0.5 -3.5 0.7 -3.7" fill="none" stroke="#170e09" stroke-linecap="round" stroke-linejoin="round" stroke-opacity="0.4509804" stroke-width="0.05"/>
    </g>
    <radialGradient cx="0" cy="0" gradientTransform="matrix(0.0076, 0.0, 0.0, 0.0076, -0.65, -2.6)" gradientUnits="userSpaceOnUse" id="gradient5" r="819.2" spreadMethod="pad">
      <stop offset="0.0" stop-color="#495c61"/>
      <stop offset="0.7568627450980392" stop-color="#2d3739"/>
      <stop offset="0.9725490196078431" stop-color="#21292c"/>
    </radialGradient>
    <g id="sprite35" transform="matrix(1.0, 0.0, 0.0, 1.0, 5.45, 5.4)">
      <use height="10.9" transform="matrix(1.0, 0.0, 0.0, 1.0, -5.5, -5.45)" width="11.0" xlink:href="#shape30"/>
    </g>
    <g id="shape30" transform="matrix(1.0, 0.0, 0.0, 1.0, 5.5, 5.45)">
      <path d="M5.05 -1.6 L5.3 0.05 Q5.3 1.25 4.7 2.5 3.65 4.45 1.55 5.1 -0.6 5.75 -2.55 4.75 -4.5 3.7 -5.15 1.6 L-5.2 1.5 Q-5.85 -0.6 -4.8 -2.5 -3.75 -4.45 -1.7 -5.1 0.45 -5.8 2.45 -4.75 4.4 -3.7 5.05 -1.6" fill="url(#gradient6)" fill-rule="evenodd" stroke="none"/>
      <path d="M5.05 -1.6 Q4.4 -3.7 2.45 -4.75 0.45 -5.8 -1.7 -5.1 -3.75 -4.45 -4.8 -2.5 -5.85 -0.6 -5.2 1.5 L-5.15 1.6 Q-4.5 3.7 -2.55 4.75 -0.6 5.75 1.55 5.1 3.65 4.45 4.7 2.5 5.3 1.25 5.3 0.05 L5.05 -1.6 Z" fill="none" stroke="#170e09" stroke-linecap="round" stroke-linejoin="round" stroke-opacity="0.4509804" stroke-width="0.05"/>
      <path d="M-2.25 4.9 Q-3.35 4.45 -3.45 3.9 1.35 5.65 5.35 1.1 5.6 1.35 5.05 2.3 L3.9 3.75 3.6 4.0 Q2.6 4.8 1.7 5.05 L-0.1 5.4 -0.35 5.4 -2.25 4.9" fill="#21292c" fill-rule="evenodd" stroke="none"/>
      <path d="M-2.25 4.9 L-0.35 5.4 -0.1 5.4 1.7 5.05 Q2.6 4.8 3.6 4.0 L3.9 3.75 5.05 2.3 Q5.6 1.35 5.35 1.1 1.35 5.65 -3.45 3.9 -3.35 4.45 -2.25 4.9 Z" fill="none" stroke="#170e09" stroke-linecap="round" stroke-linejoin="round" stroke-opacity="0.4509804" stroke-width="0.05"/>
      <path d="M3.75 -0.65 L3.45 0.35 3.55 1.4 Q3.65 1.85 3.95 1.9 4.2 1.95 4.4 1.55 L4.7 0.55 4.65 -0.55 4.25 -1.05 3.75 -0.65" fill="#000000" fill-rule="evenodd" stroke="none"/>
      <path d="M3.75 -0.65 L3.45 0.35 3.55 1.4 Q3.65 1.85 3.95 1.9 4.2 1.95 4.4 1.55 L4.7 0.55 4.65 -0.55 4.25 -1.05 3.75 -0.65 Z" fill="none" stroke="#170e09" stroke-linecap="round" stroke-linejoin="round" stroke-opacity="0.4509804" stroke-width="0.05"/>
    </g>
    <radialGradient cx="0" cy="0" gradientTransform="matrix(0.0077, -0.002, 0.0018, 0.0068, 0.75, 0.7)" gradientUnits="userSpaceOnUse" id="gradient6" r="819.2" spreadMethod="pad">
      <stop offset="0.44313725490196076" stop-color="#fbf1bf"/>
      <stop offset="0.5803921568627451" stop-color="#d8ca7c"/>
    </radialGradient>
    <g id="sprite36" transform="matrix(1.0, 0.0, 0.0, 1.0, 5.95, 4.85)">
      <use height="9.8" transform="matrix(1.0, 0.0, 0.0, 1.0, -6.0, -4.9)" width="12.0" xlink:href="#shape31"/>
    </g>
    <g id="shape31" transform="matrix(1.0, 0.0, 0.0, 1.0, 6.0, 4.9)">
      <path d="M1.25 -3.3 L1.85 -4.3 Q3.0 -4.3 4.6 -1.9 6.15 0.45 5.9 4.5 5.25 3.45 -1.9 4.05 -3.1 4.25 -4.5 4.8 -5.95 5.25 -5.95 3.0 -6.0 0.75 -5.35 -0.2 -5.2 -0.4 -4.5 -0.45 -4.55 -1.25 -3.45 -4.3 L-0.15 -4.45 1.25 -3.3 1.8 -2.9 1.25 -3.3 M-3.45 -0.2 L-4.5 -0.45 -3.45 -0.2 M0.55 -1.55 Q0.8 -1.55 1.05 -1.7 L1.25 -2.1 1.05 -2.45 0.55 -2.65 0.0 -2.45 -0.15 -2.1 0.0 -1.7 Q0.2 -1.55 0.55 -1.55" fill="url(#gradient7)" fill-rule="evenodd" stroke="none"/>
      <path d="M0.55 -1.55 Q0.2 -1.55 0.0 -1.7 L-0.15 -2.1 0.0 -2.45 0.55 -2.65 1.05 -2.45 1.25 -2.1 1.05 -1.7 Q0.8 -1.55 0.55 -1.55" fill="#748d94" fill-rule="evenodd" stroke="none"/>
      <path d="M-4.5 -0.45 Q-5.2 -0.4 -5.35 -0.2 -6.0 0.75 -5.95 3.0 -5.95 5.25 -4.5 4.8 -3.1 4.25 -1.9 4.05 5.25 3.45 5.9 4.5 6.15 0.45 4.6 -1.9 3.0 -4.3 1.85 -4.3 L1.25 -3.3 1.8 -2.9 M1.25 -3.3 L-0.15 -4.45 -3.45 -4.3 Q-4.55 -1.25 -4.5 -0.45 L-3.45 -0.2" fill="none" stroke="#170e09" stroke-linecap="round" stroke-linejoin="round" stroke-opacity="0.4509804" stroke-width="0.05"/>
    </g>
    <radialGradient cx="0" cy="0" gradientTransform="matrix(0.014, -9.0E-4, 4.0E-4, 0.0066, -0.55, -3.3)" gradientUnits="userSpaceOnUse" id="gradient7" r="819.2" spreadMethod="pad">
      <stop offset="0.0" stop-color="#495c61"/>
      <stop offset="0.7568627450980392" stop-color="#2d3739"/>
      <stop offset="0.9725490196078431" stop-color="#21292c"/>
    </radialGradient>
    <g id="sprite37" transform="matrix(1.0, 0.0, 0.0, 1.0, 8.05, 7.0)">
      <use height="14.1" transform="matrix(1.0, 0.0, 0.0, 1.0, -8.1, -7.05)" width="16.2" xlink:href="#shape32"/>
    </g>
    <g id="shape32" transform="matrix(1.0, 0.0, 0.0, 1.0, 8.1, 7.05)">
      <path d="M3.75 -6.75 L4.65 -6.6 5.55 -6.4 5.7 -6.3 5.6 -4.9 Q7.15 -5.1 6.8 -3.95 L6.75 -3.75 6.2 -2.4 7.25 -2.1 Q8.25 -2.05 8.0 -1.1 L7.05 1.85 6.8 2.35 6.15 3.55 6.1 3.6 6.1 3.65 Q3.15 5.75 2.6 4.3 1.9 2.35 1.65 1.0 1.5 -0.3 1.15 0.05 -0.85 1.0 -1.5 1.75 L-2.45 -1.0 Q-2.7 -1.7 -3.1 -1.65 L-5.1 -0.3 Q-7.55 -1.75 -8.0 -4.05 L-7.85 -4.8 Q-7.4 -2.4 -4.85 -0.9 L-2.9 -2.2 Q-2.5 -2.25 -2.2 -1.55 L-1.3 1.2 Q-0.65 0.4 1.4 -0.5 1.7 -0.9 1.9 0.45 L2.85 3.7 Q3.45 5.4 5.25 3.45 L5.6 3.0 6.85 0.05 7.25 -1.2 7.1 -1.55 6.45 -1.5 5.15 -1.3 6.05 -3.45 6.1 -3.8 Q6.1 -4.4 5.05 -3.95 L4.85 -3.8 4.8 -3.8 Q4.85 -4.7 4.4 -5.7 L3.75 -6.75" fill="#88511a" fill-rule="evenodd" stroke="none"/>
      <path d="M3.75 -6.75 L4.4 -5.7 Q4.85 -4.7 4.8 -3.8 L4.85 -3.8 5.05 -3.95 Q6.1 -4.4 6.1 -3.8 L6.05 -3.45 5.15 -1.3 6.45 -1.5 7.1 -1.55 7.25 -1.2 6.85 0.05 5.6 3.0 5.25 3.45 Q3.45 5.4 2.85 3.7 L1.9 0.45 Q1.7 -0.9 1.4 -0.5 -0.65 0.4 -1.3 1.2 L-2.2 -1.55 Q-2.5 -2.25 -2.9 -2.2 L-4.85 -0.9 Q-7.4 -2.4 -7.85 -4.8 -4.1 -7.4 2.4 -6.9 L3.4 -6.85 3.75 -6.75" fill="#000000" fill-rule="evenodd" stroke="none"/>
      <path d="M6.1 3.65 L6.1 3.6 6.15 3.55 6.1 3.65" fill="#4d4433" fill-rule="evenodd" stroke="none"/>
      <path d="M-8.0 -4.05 Q-7.55 -1.75 -5.1 -0.3 L-3.1 -1.65 Q-2.7 -1.7 -2.45 -1.0 L-1.5 1.75 Q-0.85 1.0 1.15 0.05 1.5 -0.3 1.65 1.0 1.9 2.35 2.6 4.3 3.15 5.75 6.1 3.65 L4.6 5.85 Q3.9 6.9 1.3 7.0 -1.3 7.05 -3.4 5.9 -5.45 4.8 -7.0 0.6 -8.2 -2.7 -8.0 -4.05" fill="#c38124" fill-rule="evenodd" stroke="none"/>
      <path d="M6.15 3.55 L6.8 2.35 7.05 1.85 8.0 -1.1 Q8.25 -2.05 7.25 -2.1 L6.2 -2.4 6.75 -3.75 6.8 -3.95 Q7.15 -5.1 5.6 -4.9 L5.7 -6.3 5.55 -6.4 4.65 -6.6 3.75 -6.75 4.4 -5.7 Q4.85 -4.7 4.8 -3.8 M4.85 -3.8 L5.05 -3.95 Q6.1 -4.4 6.1 -3.8 L6.05 -3.45 5.15 -1.3 6.45 -1.5 7.1 -1.55 7.25 -1.2 6.85 0.05 5.6 3.0 5.25 3.45 Q3.45 5.4 2.85 3.7 L1.9 0.45 Q1.7 -0.9 1.4 -0.5 -0.65 0.4 -1.3 1.2 L-2.2 -1.55 Q-2.5 -2.25 -2.9 -2.2 L-4.85 -0.9 Q-7.4 -2.4 -7.85 -4.8 L-8.0 -4.05 Q-7.55 -1.75 -5.1 -0.3 L-3.1 -1.65 Q-2.7 -1.7 -2.45 -1.0 L-1.5 1.75 Q-0.85 1.0 1.15 0.05 1.5 -0.3 1.65 1.0 1.9 2.35 2.6 4.3 3.15 5.75 6.1 3.65 L6.1 3.6 6.15 3.55 M6.1 3.65 L4.6 5.85 Q3.9 6.9 1.3 7.0 -1.3 7.05 -3.4 5.9 -5.45 4.8 -7.0 0.6 -8.2 -2.7 -8.0 -4.05 M-7.85 -4.8 Q-4.1 -7.4 2.4 -6.9 L3.4 -6.85 3.75 -6.75" fill="none" stroke="#000000" stroke-linecap="round" stroke-linejoin="round" stroke-opacity="0.3019608" stroke-width="0.05"/>
    </g>
    <g id="sprite38" transform="matrix(1.0, 0.0, 0.0, 1.0, 9.0, 12.85)">
      <use height="25.8" transform="matrix(1.0, 0.0, 0.0, 1.0, -9.05, -12.9)" width="18.15" xlink:href="#shape33"/>
    </g>
    <g id="shape33" transform="matrix(1.0, 0.0, 0.0, 1.0, 9.05, 12.9)">
      <path d="M5.3 -4.8 Q1.75 -6.4 -1.5 -5.45 -3.2 -4.95 -4.8 -3.8 L-6.75 -3.55 Q-5.1 -5.5 -2.8 -6.5 -0.2 -7.55 2.2 -6.8 L3.6 -6.15 4.25 -5.75 5.3 -4.8" fill="#a30101" fill-rule="evenodd" stroke="none"/>
      <path d="M5.3 -4.8 L5.5 -4.7 5.6 -4.5 5.65 -4.45 6.15 -3.85 Q7.35 -2.25 7.95 -0.45 8.6 1.35 9.05 5.25 L8.4 6.65 Q8.8 5.85 8.2 7.25 7.6 8.65 5.8 11.1 L5.55 11.3 5.5 11.55 5.35 11.65 5.25 11.75 3.9 12.8 2.9 12.8 2.5 12.5 2.05 12.15 1.8 11.9 -1.5 9.25 -1.85 9.05 -2.7 8.75 Q-4.35 9.45 -4.8 10.05 -5.3 10.65 -5.4 8.45 -5.55 6.3 -6.25 6.65 L-7.4 7.35 Q-7.65 6.0 -8.25 4.8 -8.85 3.5 -8.7 1.1 L-8.7 1.35 -8.55 0.35 -8.5 -0.1 -8.1 -1.45 -6.95 -3.15 -6.8 -3.45 -6.75 -3.55 -4.8 -3.8 Q-3.2 -4.95 -1.5 -5.45 1.75 -6.4 5.3 -4.8" fill="#c38124" fill-rule="evenodd" stroke="none"/>
      <path d="M-6.8 -3.45 L-6.95 -3.15 -8.1 -1.45 -8.5 -0.1 M-8.55 0.35 L-8.7 1.35 M-8.7 1.1 Q-8.85 3.5 -8.25 4.8 -7.65 6.0 -7.4 7.35 L-6.25 6.65 Q-5.55 6.3 -5.4 8.45 -5.3 10.65 -4.8 10.05 -4.35 9.45 -2.7 8.75 L-1.85 9.05 -1.5 9.25 1.8 11.9 2.05 12.15 2.5 12.5 2.9 12.8 3.9 12.8 5.25 11.75 5.35 11.65 5.5 11.55 5.55 11.3 5.8 11.1 Q7.6 8.65 8.2 7.25 8.8 5.85 8.4 6.65 L9.05 5.25 Q8.6 1.35 7.95 -0.45 7.35 -2.25 6.15 -3.85 M5.6 -4.5 L5.5 -4.7 M4.25 -5.75 L3.6 -6.15 2.2 -6.8 Q-0.2 -7.55 -2.8 -6.5 -5.1 -5.5 -6.75 -3.55" fill="none" stroke="#000000" stroke-linecap="round" stroke-linejoin="round" stroke-opacity="0.3019608" stroke-width="0.05"/>
      <path d="M1.85 -12.6 Q3.55 -11.5 5.25 -9.15 6.95 -6.85 7.95 -3.55 8.9 -0.2 9.0 2.25 L7.65 2.85 Q4.8 5.0 -5.55 3.45 L-8.85 2.9 4.5 3.35 Q5.45 -2.9 1.85 -12.6" fill="url(#gradient8)" fill-rule="evenodd" stroke="none"/>
      <path d="M-1.9 -11.4 Q-0.35 -12.3 1.6 -12.85 L1.65 -12.75 1.85 -12.6 Q5.45 -2.9 4.5 3.35 L-8.85 2.9 -9.0 2.9 -8.55 -0.7 Q-7.15 -8.35 -1.95 -11.4 L-1.9 -11.4 M-1.55 -11.55 L-1.85 -11.35 -1.85 -11.3 -1.95 -11.3 Q-4.5 -9.5 -6.8 -5.05 -9.2 -0.25 -6.0 0.95 L-5.3 1.2 Q-2.6 2.1 -0.3 2.15 1.95 2.15 1.95 0.65 1.95 -0.85 0.75 -6.0 -0.3 -10.4 -1.5 -11.15 L-1.55 -11.55" fill="url(#gradient9)" fill-rule="evenodd" stroke="none"/>
      <path d="M-1.55 -11.55 L-1.5 -11.15 Q-0.3 -10.4 0.75 -6.0 1.95 -0.85 1.95 0.65 1.95 2.15 -0.3 2.15 -2.6 2.1 -5.3 1.2 L-6.0 0.95 Q-9.2 -0.25 -6.8 -5.05 -4.5 -9.5 -1.95 -11.3 L-1.85 -11.3 -1.85 -11.35 -1.55 -11.55" fill="#edc567" fill-rule="evenodd" stroke="none"/>
      <path d="M-1.9 -11.4 Q-0.35 -12.3 1.6 -12.85 L1.65 -12.75 1.85 -12.6 Q3.55 -11.5 5.25 -9.15 6.95 -6.85 7.95 -3.55 8.9 -0.2 9.0 2.25 L7.65 2.85 M-9.0 2.9 L-8.55 -0.7 Q-7.15 -8.35 -1.95 -11.4" fill="none" stroke="#000000" stroke-linecap="round" stroke-linejoin="round" stroke-opacity="0.3019608" stroke-width="0.05"/>
      <path d="M2.0 7.5 Q0.0 4.9 -2.55 4.0 6.1 4.85 8.35 2.7 8.05 6.7 4.65 11.7 3.9 13.85 2.0 7.5" fill="url(#gradient10)" fill-rule="evenodd" stroke="none"/>
    </g>
    <radialGradient cx="0" cy="0" fx="-166.4" fy="0" gradientTransform="matrix(0.0139, 0.0, 0.0, 0.0139, 0.0, -4.25)" gradientUnits="userSpaceOnUse" id="gradient8" r="819.2" spreadMethod="pad">
      <stop offset="0.10980392156862745" stop-color="#edc567"/>
      <stop offset="0.4392156862745098" stop-color="#d7a13f"/>
      <stop offset="0.9882352941176471" stop-color="#c38124"/>
    </radialGradient>
    <radialGradient cx="0" cy="0" fx="-166.4" fy="0" gradientTransform="matrix(0.0174, -0.0111, 0.0097, 0.0199, 1.5, -10.4)" gradientUnits="userSpaceOnUse" id="gradient9" r="819.2" spreadMethod="pad">
      <stop offset="0.10980392156862745" stop-color="#edc567"/>
      <stop offset="0.4392156862745098" stop-color="#d7a13f"/>
      <stop offset="0.9882352941176471" stop-color="#c38124"/>
    </radialGradient>
    <linearGradient gradientTransform="matrix(7.0E-4, 0.0066, -0.0058, 6.0E-4, 2.45, 4.1)" gradientUnits="userSpaceOnUse" id="gradient10" spreadMethod="pad" x1="-819.2" x2="819.2">
      <stop offset="0.10980392156862745" stop-color="#edc567"/>
      <stop offset="0.4392156862745098" stop-color="#d7a13f"/>
      <stop offset="0.9882352941176471" stop-color="#c38124"/>
    </linearGradient>
    <g id="sprite39" transform="matrix(1.0, 0.0, 0.0, 1.0, 4.95, 5.4)">
      <use height="10.9" transform="matrix(1.0, 0.0, 0.0, 1.0, -5.0, -5.45)" width="9.95" xlink:href="#shape34"/>
    </g>
    <g id="shape34" transform="matrix(1.0, 0.0, 0.0, 1.0, 5.0, 5.45)">
      <path d="M4.05 -4.55 L4.85 -2.1 Q5.25 1.6 3.45 4.45 -0.2 5.95 -3.8 5.05 -5.0 3.25 -4.95 1.65 -1.55 2.55 1.85 1.25 L1.85 1.1 1.9 1.05 Q2.75 -3.35 4.05 -4.55" fill="#21292c" fill-rule="evenodd" stroke="none"/>
      <path d="M-4.95 1.65 Q-4.95 0.8 -4.45 0.0 -2.65 -3.6 -1.1 -4.35 1.3 -6.35 4.05 -4.55 2.75 -3.35 1.9 1.05 L1.85 1.1 1.85 1.25 Q-1.55 2.55 -4.95 1.65" fill="#3c4b4f" fill-rule="evenodd" stroke="none"/>
      <path d="M4.05 -4.55 L4.85 -2.1 Q5.25 1.6 3.45 4.45 -0.2 5.95 -3.8 5.05 -5.0 3.25 -4.95 1.65 -4.95 0.8 -4.45 0.0 -2.65 -3.6 -1.1 -4.35 1.3 -6.35 4.05 -4.55 Z" fill="none" stroke="#000000" stroke-linecap="round" stroke-linejoin="round" stroke-opacity="0.3019608" stroke-width="0.05"/>
    </g>
    <g id="sprite40" transform="matrix(1.0, 0.0, 0.0, 1.0, 8.95, 7.1)">
      <use height="16.25" transform="matrix(1.0, 0.0, 0.0, 1.0, -9.95, -8.1)" width="19.4" xlink:href="#shape35"/>
    </g>
    <g id="shape35" transform="matrix(1.0, 0.0, 0.0, 1.0, 9.95, 8.1)">
      <path d="M7.05 1.0 L8.45 5.7 Q3.45 8.45 -1.35 6.05 -4.15 1.1 -8.45 -0.75 L-8.4 -4.0 Q-1.05 -5.55 7.05 1.0" fill="#21292c" fill-rule="evenodd" stroke="none"/>
      <path d="M7.05 1.0 Q-1.05 -5.55 -8.4 -4.0 -7.15 -6.15 -3.45 -7.1 1.2 -7.1 3.25 -5.4 6.3 -2.6 7.05 1.0" fill="#3c4b4f" fill-rule="evenodd" stroke="none"/>
      <path d="M-8.45 -0.75 Q-4.15 1.1 -1.35 6.05" fill="none" stroke="#000000" stroke-linecap="round" stroke-linejoin="round" stroke-opacity="0.3019608" stroke-width="1.0"/>
      <path d="M-1.35 6.05 Q3.45 8.45 8.45 5.7 L7.05 1.0 Q6.3 -2.6 3.25 -5.4 1.2 -7.1 -3.45 -7.1 -7.15 -6.15 -8.4 -4.0 L-8.45 -0.75 Z" fill="none" stroke="#000000" stroke-linecap="round" stroke-linejoin="round" stroke-opacity="0.3019608" stroke-width="0.05"/>
    </g>
    <g id="sprite41" transform="matrix(1.0, 0.0, 0.0, 1.0, 10.8, 10.0)">
      <use height="20.1" transform="matrix(1.0, 0.0, 0.0, 1.0, -10.85, -10.05)" width="21.65" xlink:href="#shape36"/>
    </g>
    <g id="shape36" transform="matrix(1.0, 0.0, 0.0, 1.0, 10.85, 10.05)">
      <path d="M2.2 -2.85 L1.65 -2.15 0.4 -4.4 Q-1.0 -6.55 -3.45 -9.4 L-2.9 -10.0 Q-0.15 -6.75 1.3 -4.5 L2.2 -2.85 M-9.95 -3.7 L-5.2 1.3 -5.1 1.4 -7.4 3.35 -6.4 5.8 -3.5 8.1 -0.85 8.45 8.15 9.2 -2.35 10.0 Q-7.2 7.75 -8.6 3.45 L-10.8 -2.95 -9.95 -3.7 M10.15 6.15 Q8.4 5.6 7.2 3.9 L7.7 3.2 7.75 3.2 Q8.95 4.95 10.4 5.35 L10.15 6.15" fill="#c38124" fill-rule="evenodd" stroke="none"/>
      <path d="M3.4 -1.5 L4.0 -2.1 Q4.5 -0.1 4.85 0.4 L4.3 1.1 3.5 -1.45 3.4 -1.5 M-5.1 1.4 L-4.4 2.1 -2.05 2.3 -1.55 4.65 1.45 5.0 1.8 7.15 7.55 8.45 Q9.55 7.6 10.15 6.15 L10.4 5.35 10.75 5.45 Q10.75 7.95 8.15 9.2 L-0.85 8.45 -3.5 8.1 -6.4 5.8 -7.4 3.35 -5.1 1.4 M7.2 3.9 Q7.0 3.6 7.15 1.85 L7.65 1.2 Q7.55 2.85 7.7 3.2 L7.2 3.9 M-4.15 2.4 Q-3.5 4.55 -2.0 4.5 L-2.25 2.55 -4.15 2.4 M1.25 5.35 L-1.3 5.0 Q-0.6 6.7 1.25 6.95 L1.25 5.35" fill="#d7a13f" fill-rule="evenodd" stroke="none"/>
      <path d="M1.25 5.35 L1.25 6.95 Q-0.6 6.7 -1.3 5.0 L1.25 5.35 M-4.15 2.4 L-2.25 2.55 -2.0 4.5 Q-3.5 4.55 -4.15 2.4" fill="#edc567" fill-rule="evenodd" stroke="none"/>
      <path d="M3.4 -1.5 L1.65 -2.15 2.2 -2.85 Q4.05 -2.3 4.0 -2.1 L3.4 -1.5 M7.15 1.85 Q6.9 1.95 4.3 1.1 L4.85 0.4 7.65 1.2 7.15 1.85" fill="#96581d" fill-rule="evenodd" stroke="none"/>
      <path d="M1.65 -2.15 L3.4 -1.5 3.5 -1.45 4.3 1.1 Q6.9 1.95 7.15 1.85 7.0 3.6 7.2 3.9 8.4 5.6 10.15 6.15 9.55 7.6 7.55 8.45 L1.8 7.15 1.45 5.0 -1.55 4.65 -2.05 2.3 -4.4 2.1 -5.1 1.4 -5.2 1.3 -9.95 -3.7 -3.45 -9.4 Q-1.0 -6.55 0.4 -4.4 L1.65 -2.15" fill="#000000" fill-rule="evenodd" stroke="none"/>
      <path d="M4.0 -2.1 Q4.05 -2.3 2.2 -2.85 L1.3 -4.5 Q-0.15 -6.75 -2.9 -10.0 L-3.45 -9.4 -9.95 -3.7 -10.8 -2.95 -8.6 3.45 Q-7.2 7.75 -2.35 10.0 L8.15 9.2 Q10.75 7.95 10.75 5.45 L10.4 5.35 M7.7 3.2 Q7.55 2.85 7.65 1.2 L4.85 0.4 Q4.5 -0.1 4.0 -2.1" fill="none" stroke="#000000" stroke-linecap="round" stroke-linejoin="round" stroke-opacity="0.3019608" stroke-width="0.05"/>
      <path d="M-9.95 -3.7 L-5.2 1.3 -5.1 1.4 -4.4 2.1 -2.05 2.3 -1.55 4.65 1.45 5.0 1.8 7.15 7.55 8.45 Q9.55 7.6 10.15 6.15" fill="none" stroke="#000000" stroke-linecap="round" stroke-linejoin="round" stroke-opacity="0.3019608" stroke-width="0.05"/>
    </g>
    <g id="sprite42" transform="matrix(1.0, 0.0, 0.0, 1.0, 13.45, 11.9)">
      <use height="23.95" transform="matrix(1.0, 0.0, 0.0, 1.0, -13.5, -11.95)" width="27.0" xlink:href="#shape37"/>
    </g>
    <g id="shape37" transform="matrix(1.0, 0.0, 0.0, 1.0, 13.5, 11.95)">
      <path d="M8.25 -0.45 L7.9 0.25 Q5.0 3.55 -8.4 6.65 L-12.75 7.65 Q5.15 2.35 6.15 0.5 7.0 -1.25 7.1 -0.55 6.85 -4.05 -4.0 -11.75 -1.85 -10.9 0.2 -9.35 3.3 -7.1 6.2 -3.35 L8.25 -0.45" fill="url(#gradient11)" fill-rule="evenodd" stroke="none"/>
      <path d="M7.9 0.25 L8.25 -0.45 8.45 -0.45 Q11.85 0.7 13.45 3.2 L12.7 7.6 Q12.15 10.35 11.6 11.25 L11.9 7.1 Q11.95 4.6 11.1 4.3 L2.8 4.0 Q9.3 1.45 7.9 0.25 M-4.0 -11.75 Q6.85 -4.05 7.1 -0.55 7.0 -1.25 6.15 0.5 5.15 2.35 -12.75 7.65 L-12.9 7.7 -13.4 4.1 Q-14.15 -6.2 -4.35 -11.9 L-4.3 -11.9 -4.0 -11.75 M4.5 -0.15 Q6.95 -1.35 3.85 -4.45 L3.3 -4.95 Q0.25 -7.75 -5.2 -10.8 -9.7 -7.35 -11.3 -1.75 -12.9 3.9 -5.45 2.5 L-3.9 2.15 Q2.25 0.95 4.5 -0.15" fill="url(#gradient12)" fill-rule="evenodd" stroke="none"/>
      <path d="M4.5 -0.15 Q2.25 0.95 -3.9 2.15 L-5.45 2.5 Q-12.9 3.9 -11.3 -1.75 -9.7 -7.35 -5.2 -10.8 0.25 -7.75 3.3 -4.95 L3.85 -4.45 Q6.95 -1.35 4.5 -0.15" fill="#edc567" fill-rule="evenodd" stroke="none"/>
      <path d="M0.0 8.35 L1.45 6.1 1.65 6.95 0.0 8.35 M2.3 10.45 L7.35 7.55 7.65 8.1 2.3 10.45 M-9.45 11.95 L-5.4 7.15 -2.9 6.5 -9.45 11.95" fill="#c38124" fill-rule="evenodd" stroke="none"/>
      <path d="M-12.75 7.65 L-8.4 6.65 Q5.0 3.55 7.9 0.25 9.3 1.45 2.8 4.0 L11.1 4.3 Q11.95 4.6 11.9 7.1 L11.6 11.25 11.1 11.7 7.65 8.1 7.35 7.55 2.3 10.45 1.65 6.95 1.45 6.1 0.0 8.35 -2.7 6.4 -2.9 6.5 -5.4 7.15 -9.45 11.95 -12.9 7.7 -12.75 7.65" fill="#cc9030" fill-rule="evenodd" stroke="none"/>
      <path d="M7.9 0.25 L8.25 -0.45 6.2 -3.35 Q3.3 -7.1 0.2 -9.35 -1.85 -10.9 -4.0 -11.75 L-4.3 -11.9 -4.35 -11.9 Q-14.15 -6.2 -13.4 4.1 L-12.9 7.7 -9.45 11.95 -2.9 6.5 -2.7 6.4 0.0 8.35 1.65 6.95 1.45 6.1 M11.6 11.25 Q12.15 10.35 12.7 7.6 L13.45 3.2 Q11.85 0.7 8.45 -0.45 L8.25 -0.45 M2.3 10.45 L7.65 8.1 11.1 11.7 11.6 11.25 M2.3 10.45 L1.65 6.95" fill="none" stroke="#000000" stroke-linecap="round" stroke-linejoin="round" stroke-opacity="0.3019608" stroke-width="0.05"/>
    </g>
    <radialGradient cx="0" cy="0" fx="-166.4" fy="0" gradientTransform="matrix(0.0184, -0.0182, 0.018, 0.0145, -3.25, -9.8)" gradientUnits="userSpaceOnUse" id="gradient11" r="819.2" spreadMethod="pad">
      <stop offset="0.10980392156862745" stop-color="#edc567"/>
      <stop offset="0.6627450980392157" stop-color="#d7a13f"/>
      <stop offset="0.9882352941176471" stop-color="#c38124"/>
    </radialGradient>
    <radialGradient cx="0" cy="0" fx="-166.4" fy="0" gradientTransform="matrix(0.0184, -0.0182, 0.018, 0.0145, -3.25, -9.8)" gradientUnits="userSpaceOnUse" id="gradient12" r="819.2" spreadMethod="pad">
      <stop offset="0.10980392156862745" stop-color="#edc567"/>
      <stop offset="0.4392156862745098" stop-color="#d7a13f"/>
      <stop offset="0.9882352941176471" stop-color="#c38124"/>
    </radialGradient>
    <g id="shape38" transform="matrix(1.0, 0.0, 0.0, 1.0, -4.95, -53.35)">
      <path d="M37.8 93.2 L26.1 97.0 Q23.45 97.8 21.8 96.65 20.65 95.9 19.95 94.25 L8.0 67.8 7.9 67.65 7.5 66.8 5.55 62.4 Q4.25 59.55 6.0 58.1 L7.5 57.25 11.8 55.6 Q15.25 54.3 16.95 57.5 L28.6 53.75 Q32.85 52.35 34.75 56.45 L46.85 83.3 47.2 84.05 49.25 88.5 Q50.25 90.7 49.45 92.05 48.8 93.05 47.25 93.6 L42.95 95.15 41.4 95.55 Q39.05 95.65 37.8 93.2 Z" fill="none" stroke="#ffcc00" stroke-linecap="round" stroke-linejoin="round" stroke-width="0.05"/>
    </g>
    <g id="shape39" transform="matrix(1.0, 0.0, 0.0, 1.0, -14.7, -59.4)">
      <path d="M33.85 83.75 L33.85 83.8 33.85 83.95 33.85 84.0 33.85 84.1 33.9 84.1 33.9 84.15 34.35 84.4 34.85 84.75 34.35 84.45 34.1 84.3 34.05 84.25 33.95 84.2 33.9 84.2 33.9 84.7 33.9 85.25 33.85 84.75 33.75 84.2 33.7 84.1 33.5 84.25 33.0 84.55 32.7 84.7 32.95 84.5 33.4 84.3 33.45 84.25 33.5 84.2 33.7 84.1 33.65 84.05 33.7 84.05 33.7 84.0 33.3 83.6 32.95 83.25 33.3 83.55 33.55 83.8 33.7 83.95 33.8 83.4 33.9 82.95 33.85 83.35 33.85 83.75 M34.25 84.0 L34.15 84.0 33.9 84.05 34.15 83.95 34.7 83.75 35.2 83.65 34.85 83.75 34.95 83.85 34.85 83.75 34.7 83.8 34.4 83.9 34.35 83.9 34.25 84.0 M34.95 83.85 L35.65 84.4 36.45 85.15 36.5 85.2 36.75 85.45 36.9 85.55 36.9 85.5 37.1 83.9 37.35 82.3 37.45 81.75 37.4 82.25 37.4 83.85 37.2 85.6 37.35 86.0 37.4 86.1 38.7 86.9 40.15 87.75 40.55 88.05 40.1 87.8 38.75 87.05 37.75 86.45 37.4 86.25 37.35 86.2 37.4 86.3 37.5 87.75 37.55 89.45 37.6 90.0 37.5 89.5 37.25 87.9 37.05 86.25 37.0 86.3 36.9 85.9 36.7 85.75 36.9 85.85 36.9 85.65 35.7 84.55 34.95 83.85 M35.7 86.65 L36.1 86.45 36.2 86.4 36.85 86.1 36.3 86.45 34.8 87.25 33.35 88.0 32.8 88.25 33.3 88.0 34.65 87.2 35.7 86.65 M41.85 84.45 L41.35 84.6 39.85 85.15 38.15 85.7 37.5 85.9 Q37.45 85.85 38.1 85.65 L39.7 85.1 41.3 84.6 41.85 84.45" fill="#fefd8d" fill-opacity="0.972549" fill-rule="evenodd" stroke="none"/>
      <path d="M33.85 83.75 L34.05 83.4 34.25 83.2 34.15 83.4 34.0 83.8 33.9 83.9 33.85 83.8 33.85 83.75 M34.1 84.3 L34.35 84.5 34.45 84.65 34.25 84.5 34.0 84.3 33.95 84.2 34.05 84.25 34.1 84.3 M33.4 84.3 L33.3 84.3 32.95 84.45 32.7 84.55 32.95 84.4 33.35 84.25 33.45 84.25 33.4 84.3 M33.55 83.8 L33.4 83.6 33.6 83.8 33.65 83.9 33.55 83.8 M34.25 84.0 L34.35 83.9 34.4 83.9 34.65 83.85 34.95 83.85 35.05 83.8 34.95 83.85 34.7 83.9 34.3 84.0 34.2 84.0 34.25 84.0 M36.45 85.15 L35.85 84.4 35.45 83.85 35.95 84.3 36.65 85.15 36.9 85.5 36.75 85.45 36.5 85.2 36.45 85.15 M37.75 86.45 Q38.15 86.7 38.6 87.1 L39.3 87.75 38.5 87.15 37.6 86.5 37.4 86.3 37.35 86.2 37.4 86.25 37.75 86.45 M33.6 84.3 L33.7 84.2 33.75 84.35 33.65 84.7 33.55 85.05 33.55 84.75 33.6 84.3 M37.65 85.15 L37.35 85.5 37.35 85.0 37.9 84.05 38.5 83.1 38.7 82.75 38.55 83.1 38.15 84.05 37.65 85.15 M35.7 86.65 L34.7 87.0 33.8 87.3 34.7 86.95 35.75 86.5 36.1 86.45 35.7 86.65 M38.7 85.65 L38.25 85.7 38.7 85.55 39.75 85.35 40.7 85.2 41.05 85.15 40.75 85.25 39.8 85.45 38.7 85.65 M36.7 86.7 L36.95 86.25 37.0 86.75 36.65 87.8 36.3 88.85 36.15 89.25 36.25 88.85 36.4 87.85 Q36.5 87.1 36.7 86.7" fill="#fffd8f" fill-opacity="0.4" fill-rule="evenodd" stroke="none"/>
      <path d="M38.0 86.75 Q37.9 86.0 37.45 85.8 L36.9 85.85 Q36.75 86.1 36.9 86.5 37.1 87.0 37.65 87.3 L38.35 87.95 38.6 88.25 38.45 87.85 38.0 86.75" fill="#fffd8f" fill-opacity="0.39215687" fill-rule="evenodd" stroke="none"/>
      <path d="M38.0 86.25 L37.05 85.85 Q36.8 85.8 36.95 85.95 L37.55 86.35 38.35 86.6 Q38.8 86.65 39.05 86.85 L39.35 86.95 39.0 86.75 38.0 86.25" fill="#fffd8f" fill-opacity="0.39215687" fill-rule="evenodd" stroke="none"/>
      <path d="M36.4 84.8 Q36.35 85.55 36.75 85.85 L37.3 85.9 37.45 85.25 Q37.35 84.75 36.9 84.35 36.35 83.9 36.3 83.55 L36.1 83.25 36.2 83.65 36.4 84.8" fill="#fffd8f" fill-opacity="0.39215687" fill-rule="evenodd" stroke="none"/>
      <path d="M36.25 85.35 L37.1 85.95 37.2 85.8 36.75 85.3 35.95 84.9 Q35.55 84.75 35.3 84.6 L35.05 84.45 35.35 84.65 36.25 85.35" fill="#fffd8f" fill-opacity="0.39215687" fill-rule="evenodd" stroke="none"/>
      <path d="M38.75 85.2 Q38.0 85.45 37.85 85.65 37.7 85.85 37.85 85.8 L38.5 85.65 39.25 85.2 39.9 84.75 40.15 84.6 39.75 84.75 38.75 85.2" fill="#fffd8f" fill-opacity="0.39215687" fill-rule="evenodd" stroke="none"/>
      <path d="M35.75 87.0 L36.6 86.4 36.5 86.25 Q36.25 86.25 35.9 86.5 L35.25 87.1 34.7 87.65 Q34.4 87.8 34.45 87.85 L34.8 87.6 35.75 87.0" fill="#fffd8f" fill-opacity="0.39215687" fill-rule="evenodd" stroke="none"/>
      <path d="M34.1 84.35 L33.95 84.05 33.75 84.05 Q33.65 84.1 33.7 84.25 L34.0 84.55 34.2 84.75 34.3 84.85 34.2 84.75 34.1 84.35" fill="#fffd8f" fill-opacity="0.39215687" fill-rule="evenodd" stroke="none"/>
      <path d="M34.1 84.2 Q33.9 84.05 33.75 84.05 L33.75 84.1 33.95 84.2 34.2 84.3 34.5 84.4 34.55 84.4 34.45 84.4 34.1 84.2" fill="#fffd8f" fill-opacity="0.39215687" fill-rule="evenodd" stroke="none"/>
      <path d="M33.5 83.65 L33.65 84.05 33.85 84.05 33.9 83.85 33.65 83.55 33.5 83.25 33.45 83.15 33.5 83.25 33.5 83.65" fill="#fffd8f" fill-opacity="0.39215687" fill-rule="evenodd" stroke="none"/>
      <path d="M33.5 83.9 L33.75 84.05 33.8 84.0 33.65 83.85 33.35 83.7 33.2 83.6 33.05 83.55 33.15 83.6 33.5 83.9" fill="#fffd8f" fill-opacity="0.39215687" fill-rule="evenodd" stroke="none"/>
      <path d="M34.3 83.8 L34.05 83.95 34.05 84.0 34.25 83.95 34.55 83.8 Q34.6 83.7 34.7 83.7 L34.8 83.6 34.7 83.65 34.3 83.8" fill="#fffd8f" fill-opacity="0.39215687" fill-rule="evenodd" stroke="none"/>
      <path d="M33.3 84.45 L33.6 84.2 33.6 84.15 Q33.5 84.15 33.4 84.3 L33.15 84.45 32.95 84.65 32.85 84.75 33.0 84.6 33.3 84.45" fill="#fffd8f" fill-opacity="0.39215687" fill-rule="evenodd" stroke="none"/>
      <path d="M36.3 85.35 Q36.05 85.7 36.05 86.15 L36.5 86.9 37.3 87.15 38.05 86.75 38.25 85.9 37.85 85.2 37.05 84.95 36.3 85.35" fill="#ffffff" fill-rule="evenodd" stroke="none"/>
      <path d="M18.75 62.3 L18.65 62.35 18.2 62.45 18.6 62.25 19.85 61.9 21.0 61.5 21.4 61.35 21.05 61.5 19.9 61.9 18.75 62.3 M17.45 61.95 L17.7 62.2 17.75 62.2 17.7 62.15 17.85 61.05 18.05 59.85 18.15 59.4 18.1 59.8 18.05 61.0 18.0 62.25 18.1 62.6 19.15 63.2 20.0 63.75 19.15 63.3 18.5 62.95 18.4 62.85 18.15 62.7 18.1 62.7 18.15 62.75 18.2 63.85 18.2 64.9 18.0 64.0 17.85 62.8 17.8 62.8 17.75 62.45 17.6 62.3 17.7 62.35 17.7 62.3 16.85 61.5 15.9 60.65 15.65 60.35 15.95 60.65 16.8 61.4 17.45 61.95 M14.7 64.25 L15.05 64.05 16.1 63.45 17.25 62.85 17.7 62.65 17.3 62.95 16.2 63.45 15.1 64.05 14.7 64.25" fill="#fefd8d" fill-opacity="0.972549" fill-rule="evenodd" stroke="none"/>
      <path d="M18.75 62.3 L19.1 62.2 19.85 62.05 20.6 61.95 19.85 62.15 19.05 62.3 18.75 62.3 M17.45 61.95 L16.95 61.35 16.5 60.75 17.0 61.3 17.55 61.95 17.7 62.15 17.75 62.2 17.7 62.2 17.45 61.95 M18.5 62.95 L19.0 63.35 19.6 63.8 19.8 64.0 19.6 63.85 18.95 63.4 18.3 62.9 18.15 62.75 18.1 62.7 18.15 62.7 18.4 62.85 18.5 62.95 M18.3 61.9 L18.05 62.2 18.1 61.85 18.45 61.15 18.9 60.4 19.1 60.2 18.95 60.4 18.65 61.15 18.3 61.9 M17.55 63.1 L17.75 62.75 17.8 63.1 17.6 63.95 17.25 64.7 17.15 64.95 17.2 64.7 17.4 63.9 Q17.4 63.4 17.55 63.1 M16.9 62.9 L17.2 62.85 Q17.15 62.9 16.85 63.05 L16.15 63.3 15.45 63.55 15.2 63.6 15.45 63.5 16.1 63.25 Q16.6 63.0 16.9 62.9" fill="#fffd8f" fill-opacity="0.4" fill-rule="evenodd" stroke="none"/>
      <path d="M18.6 63.1 L18.15 62.4 17.7 62.45 17.75 62.95 18.3 63.55 Q18.75 63.8 18.8 64.0 L19.0 64.25 18.85 63.95 18.6 63.1" fill="#fffd8f" fill-opacity="0.39215687" fill-rule="evenodd" stroke="none"/>
      <path d="M18.55 62.7 Q18.05 62.4 17.9 62.4 17.7 62.4 17.8 62.5 L18.25 62.8 18.85 63.0 19.35 63.15 19.6 63.2 19.35 63.1 18.55 62.7" fill="#fffd8f" fill-opacity="0.39215687" fill-rule="evenodd" stroke="none"/>
      <path d="M17.3 61.7 Q17.35 62.3 17.55 62.45 L18.0 62.5 18.1 62.0 17.65 61.35 17.25 60.75 17.15 60.5 17.2 60.8 17.3 61.7" fill="#fffd8f" fill-opacity="0.39215687" fill-rule="evenodd" stroke="none"/>
      <path d="M17.25 62.1 L17.9 62.5 17.95 62.45 17.6 62.05 17.05 61.75 16.55 61.5 16.35 61.4 16.55 61.6 Q16.8 61.7 17.25 62.1" fill="#fffd8f" fill-opacity="0.39215687" fill-rule="evenodd" stroke="none"/>
      <path d="M19.05 61.9 L18.4 62.3 18.45 62.4 18.9 62.3 19.5 61.95 19.95 61.6 20.15 61.5 19.85 61.6 19.05 61.9" fill="#fffd8f" fill-opacity="0.39215687" fill-rule="evenodd" stroke="none"/>
      <path d="M16.9 63.3 L17.5 62.85 17.45 62.7 17.05 62.9 16.5 63.35 16.15 63.75 15.95 63.95 16.2 63.75 16.9 63.3" fill="#fffd8f" fill-opacity="0.39215687" fill-rule="evenodd" stroke="none"/>
      <path d="M17.4 62.1 Q17.15 62.35 17.2 62.65 L17.55 63.25 18.1 63.4 18.7 63.1 18.85 62.5 18.55 61.95 17.9 61.75 17.4 62.1" fill="#ffffff" fill-rule="evenodd" stroke="none"/>
      <path d="M33.55 83.9 L33.45 84.15 33.6 84.45 33.85 84.5 34.15 84.4 34.2 84.05 34.1 83.85 33.75 83.75 33.55 83.9" fill="#ffffff" fill-rule="evenodd" stroke="none"/>
    </g>
  </defs>
</svg>
