<?xml version='1.0' encoding='UTF-8'?>
<svg xmlns:xlink="http://www.w3.org/1999/xlink" xmlns="http://www.w3.org/2000/svg" version="1.1" width="60px" height="63px" viewBox="0.0 -2.32474112858 60.3090772832 62.6312863662"><defs><g id="c1"><path fill="#000000" fill-opacity="0.00392156862745" d="M0.0 0.0 L60.0 0.0 60.0 60.0 0.0 60.0 0.0 0.0"/></g><g id="c2"><g><use transform="matrix(1.0,0.0,0.0,1.0,0.0,0.0)" xlink:href="#c1"/></g></g><g id="c3"/><g id="c4"><path fill="#006699" stroke="none" d="M31.5 39.85 L19.8 43.65 Q17.15 44.45 15.5 43.3 14.35 42.55 13.65 40.9 L1.7 14.45 1.6 14.3 1.2 13.45 -0.75 9.05 Q-2.05 6.2 -0.3 4.75 0.3 4.25 1.2 3.9 L5.5 2.25 Q8.95 0.95 10.65 4.15 L22.3 0.4 Q26.55 -1.0 28.45 3.1 L40.55 29.95 40.9 30.7 42.95 35.15 Q43.95 37.35 43.15 38.7 42.5 39.7 40.95 40.25 L36.65 41.8 35.1 42.2 Q32.75 42.3 31.5 39.85"/><path fill="none" stroke="#000000" stroke-width="1.0" stroke-opacity="0.298039215686" d="M31.5 39.85 L19.8 43.65 Q17.15 44.45 15.5 43.3 14.35 42.55 13.65 40.9 L1.7 14.45 1.6 14.3 1.2 13.45 -0.75 9.05 Q-2.05 6.2 -0.3 4.75 0.3 4.25 1.2 3.9 L5.5 2.25 Q8.95 0.95 10.65 4.15 L22.3 0.4 Q26.55 -1.0 28.45 3.1 L40.55 29.95 40.9 30.7 42.95 35.15 Q43.95 37.35 43.15 38.7 42.5 39.7 40.95 40.25 L36.65 41.8 35.1 42.2 Q32.75 42.3 31.5 39.85"/><path fill="#5b3c00" stroke="none" d="M0.75 8.25 L29.8 9.75 25.55 0.9 Q26.9 1.6 27.8 3.55 L40.7 32.15 Q42.6 36.3 38.3 37.65 L23.3 42.5 13.15 21.4 4.6 20.9 0.7 12.25 Q-0.45 9.75 0.75 8.25 M20.1 43.55 L19.8 43.65 Q17.15 44.45 15.5 43.3 L20.1 43.55"/><path fill="#724b00" stroke="none" d="M25.55 0.9 L29.8 9.75 0.75 8.25 Q1.45 7.3 3.1 6.75 L21.65 0.8 25.55 0.9 M4.6 20.9 L13.15 21.4 23.3 42.5 20.1 43.55 15.5 43.3 Q14.35 42.55 13.65 40.9 L4.6 20.9"/><path fill="none" stroke="#000000" stroke-width="0.5" stroke-opacity="0.301960784314" d="M0.75 8.25 Q-0.45 9.75 0.7 12.25 L4.6 20.9 M23.3 42.5 L38.3 37.65 Q42.6 36.3 40.7 32.15 L27.8 3.55 Q26.9 1.6 25.55 0.9 L21.65 0.8 3.1 6.75 Q1.45 7.3 0.75 8.25 M20.1 43.55 L19.8 43.65 Q17.15 44.45 15.5 43.3 14.35 42.55 13.65 40.9 L4.6 20.9 M20.1 43.55 L23.3 42.5"/><path fill="#fed00b" stroke="none" d="M40.5 29.85 L40.55 29.95 40.9 30.7 42.95 35.15 Q43.95 37.35 43.15 38.7 42.5 39.45 41.2 39.9 L36.9 41.45 34.85 41.85 Q32.9 41.7 31.8 39.55 L31.75 39.5 31.4 39.65 30.3 40.0 31.4 39.65 31.4 39.7 20.4 43.2 Q16.1 44.55 14.2 40.5 L6.45 23.15 6.0 22.15 5.55 21.15 4.05 17.85 3.15 15.85 3.1 15.8 1.75 12.85 -0.2 8.45 Q-1.25 6.15 -0.3 4.75 0.3 4.25 1.2 3.9 L5.5 2.25 Q8.95 0.95 10.65 4.15 L22.3 0.4 Q26.55 -1.0 28.45 3.1 L40.5 29.85"/><path fill="#5b3c00" stroke="none" d="M43.15 38.7 Q42.5 39.7 40.95 40.25 L36.65 41.8 35.1 42.2 Q32.75 42.3 31.45 39.8 L31.4 39.7 31.4 39.65 31.75 39.5 31.8 39.55 Q32.9 41.7 34.85 41.85 L36.9 41.45 41.2 39.9 Q42.5 39.45 43.15 38.7 M3.1 15.8 Q2.25 15.35 1.6 14.3 L1.2 13.45 -0.75 9.05 Q-2.05 6.2 -0.3 4.75 -1.25 6.15 -0.2 8.45 L1.75 12.85 3.1 15.8"/><path fill="#9d147b" stroke="none" d="M31.4 39.65 L30.3 40.0 31.4 39.65"/><path fill="none" stroke="#003333" stroke-width="0.5" stroke-opacity="0.509803921569" d="M40.5 29.85 L40.55 29.95 40.9 30.7 42.95 35.15 Q43.95 37.35 43.15 38.7 42.5 39.7 40.95 40.25 L36.65 41.8 35.1 42.2 Q32.75 42.3 31.45 39.8 L31.4 39.7 M6.45 23.15 L6.0 22.15 M5.55 21.15 L4.05 17.85 3.1 15.8 1.75 12.85 -0.2 8.45 Q-1.25 6.15 -0.3 4.75 0.3 4.25 1.2 3.9 L5.5 2.25 Q8.95 0.95 10.65 4.15 M1.6 14.3 L1.2 13.45 -0.75 9.05 Q-2.05 6.2 -0.3 4.75 M31.4 39.65 L31.75 39.5 31.8 39.55 Q32.9 41.7 34.85 41.85 L36.9 41.45 41.2 39.9 Q42.5 39.45 43.15 38.7 M31.4 39.65 L30.3 40.0 31.4 39.65 31.4 39.7"/><path fill="none" stroke="#000000" stroke-width="0.5" stroke-opacity="0.301960784314" d="M31.4 39.7 L20.4 43.2 Q16.1 44.55 14.2 40.5 L6.45 23.15 M6.0 22.15 L5.55 21.15 M10.65 4.15 L22.3 0.4 Q26.55 -1.0 28.45 3.1 L40.5 29.85 M4.05 17.85 L3.15 15.85"/><path fill="#fcf2cf" stroke="none" d="M9.15 13.6 Q9.8 12.8 9.55 11.6 L9.1 10.55 22.05 6.35 Q24.9 5.45 26.25 7.85 L26.5 8.3 35.8 29.0 35.95 29.35 Q34.75 29.3 34.1 30.1 33.45 30.9 33.7 32.1 L34.0 32.9 20.65 37.2 Q18.8 37.8 17.65 37.0 16.8 36.4 16.3 35.2 L6.95 14.6 6.8 14.4 7.1 14.4 Q8.4 14.45 9.15 13.6"/><path fill="#9f6b00" stroke="none" d="M28.25 6.1 L35.55 22.3 39.35 30.75 Q41.1 34.5 37.2 35.7 L20.45 41.1 Q16.8 42.25 15.2 39.0 L15.0 38.6 8.25 23.65 3.35 12.8 Q1.65 9.1 5.5 7.85 L22.25 2.5 Q26.05 1.25 27.75 4.95 L28.25 6.1 M9.15 13.6 Q8.4 14.45 7.1 14.4 L6.8 14.4 6.95 14.6 16.3 35.2 Q16.8 36.4 17.65 37.0 18.8 37.8 20.65 37.2 L34.0 32.9 33.7 32.1 Q33.45 30.9 34.1 30.1 34.75 29.3 35.95 29.35 L35.8 29.0 26.5 8.3 26.25 7.85 Q24.9 5.45 22.05 6.35 L9.1 10.55 9.55 11.6 Q9.8 12.8 9.15 13.6"/><path fill="none" stroke="#f0b92b" stroke-width="0.5" d="M9.15 13.6 Q9.8 12.8 9.55 11.6 L9.1 10.55 22.05 6.35 Q24.9 5.45 26.25 7.85 L26.5 8.3 35.8 29.0 35.95 29.35 Q34.75 29.3 34.1 30.1 33.45 30.9 33.7 32.1 L34.0 32.9 20.65 37.2 Q18.8 37.8 17.65 37.0 16.8 36.4 16.3 35.2 L6.95 14.6 6.8 14.4 7.1 14.4 Q8.4 14.45 9.15 13.6"/><path fill="none" stroke="#feaa00" stroke-width="1.0" d="M28.25 6.1 L35.55 22.3 M15.0 38.6 L8.25 23.65"/><path fill="none" stroke="#fbeec5" stroke-width="1.0" d="M35.55 22.3 L39.35 30.75 Q41.1 34.5 37.2 35.7 L20.45 41.1 Q16.8 42.25 15.2 39.0 L15.0 38.6 M8.25 23.65 L3.35 12.8 Q1.65 9.1 5.5 7.85 L22.25 2.5 Q26.05 1.25 27.75 4.95 L28.25 6.1"/></g><g id="c5"><path fill="#7fdbfe" stroke="none" d="M10.75 4.9 Q10.75 4.6 10.9 4.35 11.25 3.45 11.95 2.75 13.3 1.5 14.35 2.1 15.4 2.7 14.95 4.45 14.7 5.4 14.1 6.15 L13.75 6.5 Q13.1 7.15 12.35 7.35 L11.4 7.2 Q10.95 6.9 10.75 6.4 10.5 5.75 10.75 4.9 M7.5 5.9 Q7.0 5.85 6.6 5.5 6.05 5.0 5.8 4.15 L5.7 3.6 Q5.55 2.65 5.8 1.7 6.25 0.0 7.5 0.0 L7.6 0.0 Q8.85 0.0 9.3 1.7 9.55 2.65 9.4 3.6 L9.3 4.15 8.5 5.5 7.6 5.9 7.5 5.9 M4.35 4.9 Q4.6 5.75 4.35 6.4 L3.7 7.2 2.75 7.35 Q2.0 7.15 1.35 6.5 L1.0 6.15 Q0.4 5.4 0.15 4.45 -0.3 2.7 0.75 2.1 1.8 1.5 3.15 2.75 3.85 3.45 4.2 4.35 L4.35 4.9 M5.5 13.7 Q4.45 13.9 3.65 12.95 2.75 12.0 3.2 10.25 3.7 8.5 5.25 7.6 6.4 6.9 7.55 7.0 8.75 6.9 9.9 7.6 11.45 8.5 11.95 10.25 12.35 12.0 11.5 12.95 10.7 13.9 9.65 13.7 8.55 13.5 7.55 12.6 6.55 13.5 5.5 13.7"/></g><g id="c6"><g><use transform="matrix(1.0,0.0,0.0,1.0,0.0,0.0)" xlink:href="#c5"/></g></g><radialGradient gradientUnits="userSpaceOnUse" r="819.2" cx="0" cy="0" spreadMethod="pad" gradientTransform="matrix(0.0914459228516,0.0,0.0,0.0914459228516,0.6,3.4)" id="gradient1"><stop offset="0.0" stop-color="#ffffff"/><stop offset="1.0" stop-color="#ffffff" stop-opacity="0.0"/></radialGradient><g id="c7"><path stroke="none" fill="url(#gradient1)" d="M36.65 -54.65 Q60.05 -42.0 69.75 -17.95 80.55 8.9 68.0 34.1 55.45 59.35 26.8 68.2 -1.8 77.05 -29.7 64.3 -57.6 51.6 -68.45 24.75 -79.3 -2.05 -66.75 -27.25 L-66.7 -27.3 Q-54.1 -52.5 -25.5 -61.4 3.1 -70.2 31.0 -57.5 L36.65 -54.65"/></g><g id="c8"><g><use transform="matrix(1.0,0.0,0.0,1.0,0.0,0.0)" xlink:href="#c7"/></g></g><radialGradient gradientUnits="userSpaceOnUse" r="819.2" cx="0" cy="0" spreadMethod="pad" gradientTransform="matrix(0.209197998047,0.0,0.0,0.177108764648,67.15,107.2)" id="gradient2"><stop offset="0.356862745098" stop-color="#ffffff"/><stop offset="0.670588235294" stop-opacity="0.0"/></radialGradient><g id="c9"><path fill="none" stroke-linejoin="round" stroke-linecap="round" stroke="url(#gradient2)" stroke-width="0.5" d="M136.55 165.8 L68.6 106.0 68.4 106.0 118.25 201.5 M68.3 105.8 L68.35 105.8 68.3 105.8 68.3 105.85 68.4 106.0 68.3 106.0 86.55 211.5 M68.3 105.8 L68.3 105.85 68.3 106.0 68.15 105.95 18.25 151.55 M68.3 105.85 L68.25 105.85 68.3 106.0 50.0 193.2 M68.25 105.85 L68.15 105.95 0.05 97.7 M68.3 105.85 L68.25 105.8 68.25 105.85 M68.25 105.8 L68.2 105.7 0.0 45.7 M68.3 105.8 L68.25 105.75 68.25 105.8 M68.25 105.75 L68.2 105.7 18.25 10.05 M68.6 106.0 L68.35 105.8 118.25 60.15 M86.6 18.35 L68.3 105.8 M136.6 114.25 L68.6 106.0 M68.25 105.75 L49.95 0.05"/></g><g id="c10"><g><use transform="matrix(1.0,0.0,0.0,1.0,0.0,0.0)" xlink:href="#c9"/></g></g><g id="c11"><g><use transform="matrix(1.0,0.0,0.0,1.0,0.0,0.0)" xlink:href="#c4"/></g><g><use transform="matrix(0.238861083984,-0.0867004394531,0.10026550293,0.233917236328,34.25,31.15)" xlink:href="#c6"/></g><g><use transform="matrix(0.238861083984,-0.0867004394531,0.10026550293,0.233917236328,4.25,10.3)" xlink:href="#c6"/></g><g><use transform="matrix(0.141098022461,-0.0378112792969,0.111373901367,0.225646972656,20.25,20.65)" filter="url(#filter8)" xlink:href="#c8"/></g><g><use transform="matrix(-0.155029296875,0.0513153076172,0.0841827392578,0.147033691406,22.6,3.15)" filter="url(#filter9)" xlink:href="#c10"/></g></g><filter id="filter8"><feColorMatrix in="SourceGraphic" type="matrix" values="0.0 0.0 0.0 0.0 0.796875 0.0 0.0 0.0 0.0 0.59765625 0.0 0.0 0.0 0.0 0.19921875 0.0 0.0 0.0 1.0 0.0" result="cxform"/><feComposite operator="in" in2="SourceGraphic" result="color-xform"/></filter><filter id="filter9"><feColorMatrix in="SourceGraphic" type="matrix" values="0.0 0.0 0.0 0.0 0.99609375 0.0 0.0 0.0 0.0 0.99609375 0.0 0.0 0.0 0.0 0.99609375 0.0 0.0 0.0 1.0 0.0" result="cxform"/><feComposite operator="in" in2="SourceGraphic" result="color-xform"/></filter><g id="c12"><path fill="#ffffff" stroke="none" d="M37.9 92.95 L26.2 96.75 Q23.55 97.55 21.9 96.4 20.75 95.65 20.05 94.0 L8.1 67.55 8.0 67.4 7.6 66.55 5.65 62.15 Q4.35 59.3 6.1 57.85 6.7 57.35 7.6 57.0 L11.9 55.35 Q15.35 54.05 17.05 57.25 L28.7 53.5 Q32.95 52.1 34.85 56.2 L46.95 83.05 47.3 83.8 49.35 88.25 Q50.35 90.45 49.55 91.8 48.9 92.8 47.35 93.35 L43.05 94.9 41.5 95.3 Q39.15 95.4 37.9 92.95"/></g><linearGradient gradientUnits="userSpaceOnUse" x1="-819.2" x2="819.2" spreadMethod="pad" gradientTransform="matrix(0.0255126953125,0.0,0.0,0.0268249511719,20.9,21.95)" id="gradient3"><stop offset="0.0" stop-color="#f90013"/><stop offset="0.160784313725" stop-color="#ff99ff"/><stop offset="0.462745098039" stop-color="#66ffff"/><stop offset="0.721568627451" stop-color="#ff9900"/><stop offset="1.0" stop-color="#33ff00"/></linearGradient><g id="c13"><path stroke="none" fill="url(#gradient3)" d="M0.6 8.2 Q1.05 7.55 2.0 7.1 2.65 6.65 3.65 6.3 L22.15 0.35 Q26.4 -1.05 28.3 3.05 L41.2 31.65 Q42.8 35.1 40.05 36.65 39.35 37.25 38.15 37.6 L19.65 43.6 Q17.0 44.4 15.35 43.25 14.2 42.5 13.5 40.85 L0.55 12.2 Q-0.6 9.7 0.6 8.2"/></g><g id="c14"><g><use transform="matrix(1.0,0.0,0.0,1.0,0.0,0.0)" xlink:href="#c13"/></g></g><g id="c15"><path fill="#194740" stroke="none" d="M80.95 4.5 Q81.7 4.7 82.05 6.0 L42.6 81.9 42.35 82.25 41.9 80.9 Q41.3 79.65 40.35 78.9 L41.25 79.45 80.95 4.5"/><path fill="#225f56" stroke="none" d="M80.55 4.5 Q80.75 4.35 80.95 4.5 L41.25 79.45 40.35 78.9 40.15 78.7 Q40.05 78.55 40.0 78.7 L39.95 78.7 39.85 78.55 39.2 78.35 80.55 4.5"/><path fill="#2e8174" stroke="none" d="M39.2 78.35 L37.35 77.8 36.45 77.9 79.15 5.05 Q79.95 4.5 80.55 4.5 L39.2 78.35"/><path fill="none" stroke="#000000" stroke-width="0.5" stroke-opacity="0.301960784314" d="M39.2 78.35 L37.35 77.8 36.45 77.9 79.15 5.05 Q79.95 4.5 80.55 4.5 80.75 4.35 80.95 4.5 81.7 4.7 82.05 6.0 L42.6 81.9 42.35 82.25 41.9 80.9 Q41.3 79.65 40.35 78.9 L40.15 78.7 Q40.05 78.55 40.0 78.7 L39.95 78.7 39.85 78.55 39.2 78.35"/><path fill="#d6b668" stroke="none" d="M35.15 77.75 L37.3 77.5 39.0 77.7 34.85 83.2 17.6 110.75 Q16.35 111.3 14.95 112.05 15.85 107.9 17.45 105.6 L17.75 105.15 21.1 100.05 29.25 85.95 Q29.4 85.55 29.65 85.3 L29.7 85.15 29.95 85.1 30.0 85.0 30.0 84.95 30.4 84.1 33.05 80.5 35.0 77.9 35.15 77.75 M17.75 105.15 Q22.05 100.45 25.7 94.3 28.75 89.75 29.95 85.1 28.75 89.75 25.7 94.3 22.05 100.45 17.75 105.15"/><path fill="#d6c088" stroke="none" d="M35.05 77.75 L35.15 77.75 35.0 77.9 35.0 77.85 35.05 77.8 35.05 77.75"/><path fill="#3b2c1c" stroke="none" d="M42.95 79.95 L43.55 82.8 43.75 84.05 Q42.9 84.5 38.05 92.3 33.25 99.95 26.6 114.75 L26.6 114.8 26.55 114.8 26.5 114.8 26.55 114.8 26.6 114.75 26.55 114.8 26.5 115.0 26.4 115.15 26.45 114.85 26.5 115.0 26.45 114.85 26.5 114.8 26.6 114.75 Q26.75 113.9 26.5 114.8 L25.65 114.25 24.9 113.75 23.6 112.35 23.85 112.2 21.1 111.75 22.35 110.5 27.45 102.2 27.55 101.8 42.95 79.95 M35.05 77.8 L35.0 77.8 34.95 77.75 35.05 77.75 35.05 77.8 M43.55 82.8 Q37.3 90.1 32.45 98.0 28.15 106.5 25.65 114.25 28.15 106.5 32.45 98.0 37.3 90.1 43.55 82.8 M27.45 102.2 L23.85 112.2 27.45 102.2"/><path fill="#ba9c62" stroke="none" d="M39.0 77.7 L41.0 78.15 25.05 103.3 20.3 109.8 17.6 110.75 34.85 83.2 39.0 77.7"/><path fill="#876843" stroke="none" d="M41.0 78.15 L41.9 78.9 42.95 79.95 27.55 101.8 27.45 102.2 22.35 110.5 20.95 109.45 Q20.55 109.55 20.3 109.8 L25.05 103.3 41.0 78.15"/><path fill="#8e483e" stroke="none" d="M26.55 114.85 L26.5 115.0 26.55 114.8 26.55 114.85 M26.6 114.75 L26.5 114.8 Q26.75 113.9 26.6 114.75"/><path fill="#966c3e" stroke="none" d="M26.2 115.0 Q21.4 117.0 16.15 112.85 L14.95 112.05 Q16.35 111.3 17.6 110.75 L20.3 109.8 Q20.55 109.55 20.95 109.45 L22.35 110.5 21.1 111.75 23.85 112.2 23.6 112.35 24.9 113.75 25.65 114.25 26.5 114.8 26.45 114.85 26.3 114.95 26.2 115.0 M20.3 112.8 L21.8 112.8 19.3 111.0 17.65 112.3 Q19.45 114.25 23.05 114.35 19.45 114.25 17.65 112.3 L19.3 111.0 21.8 112.8 20.3 112.8"/><path fill="none" stroke="#000000" stroke-width="0.5" stroke-opacity="0.301960784314" d="M35.05 77.75 L35.15 77.75 37.3 77.5 39.0 77.7 41.0 78.15 41.9 78.9 42.95 79.95 43.55 82.8 43.75 84.05 Q42.9 84.5 38.05 92.3 33.25 99.95 26.6 114.75 L26.6 114.8 26.55 114.85 26.5 115.0 26.4 115.15 26.45 114.85 26.2 115.0 Q21.4 117.0 16.15 112.85 L14.95 112.05 Q15.85 107.9 17.45 105.6 L17.75 105.15 21.1 100.05 29.25 85.95 Q29.4 85.55 29.65 85.3 L29.7 85.15 29.95 85.1 M30.0 84.95 L30.4 84.1 33.05 80.5 35.0 77.9 M35.15 77.75 L35.0 77.9 M30.0 84.95 L30.0 85.0 29.95 85.1 M22.35 110.5 L27.45 102.2 27.55 101.8 M20.3 109.8 Q20.55 109.55 20.95 109.45 L22.35 110.5 21.1 111.75 23.85 112.2 27.45 102.2 M26.5 114.8 L26.55 114.8 26.6 114.75 26.5 114.8 Q26.75 113.9 26.6 114.75 M24.9 113.75 L23.6 112.35 23.85 112.2 M26.55 114.8 L26.6 114.8 M26.5 115.0 L26.45 114.85 26.5 114.8 M26.2 115.0 L26.3 114.95 26.45 114.85 M26.55 114.8 L26.55 114.85 M26.55 114.8 L26.5 115.0 M14.95 112.05 Q16.35 111.3 17.6 110.75 L20.3 109.8"/><path fill="none" stroke="#000000" stroke-width="0.5" stroke-opacity="0.152941176471" d="M29.95 85.1 L30.0 84.95 M29.95 85.1 Q28.75 89.75 25.7 94.3 22.05 100.45 17.75 105.15 M25.65 114.25 Q28.15 106.5 32.45 98.0 37.3 90.1 43.55 82.8 M23.05 114.35 Q19.45 114.25 17.65 112.3 L19.3 111.0 21.8 112.8 20.3 112.8"/><path fill="#44b07a" stroke="none" d="M20.15 102.15 L20.0 102.25 19.95 101.45 19.95 101.2 Q20.1 97.85 23.05 96.8 L27.75 96.65 24.9 102.4 20.15 102.15"/><path fill="#3a9467" stroke="none" d="M19.95 101.45 L20.0 102.25 20.15 102.15 20.05 103.0 20.0 102.25 19.8 102.25 19.7 101.95 19.95 101.45 M24.9 102.4 L27.75 96.65 Q29.8 97.35 31.65 99.75 L28.8 105.4 Q27.0 103.15 24.9 102.4"/><path fill="#66d69e" stroke="none" d="M29.1 93.7 L27.75 93.4 25.55 93.35 25.3 93.0 Q24.8 91.95 26.4 90.45 L26.75 90.1 Q28.75 90.25 30.5 90.95 L29.1 93.7"/><path fill="#4ec489" stroke="none" d="M27.75 96.65 L23.05 96.8 Q21.9 93.9 25.3 93.0 L25.55 93.35 27.75 93.4 29.1 93.7 29.15 93.7 27.75 96.65"/><path fill="#82deae" stroke="none" d="M30.5 90.95 Q28.75 90.25 26.75 90.1 26.15 88.05 28.45 87.4 L28.7 87.4 31.45 87.6 32.1 87.75 30.5 90.95 M32.3 87.4 Q30.55 86.7 28.6 86.55 27.95 84.55 30.25 83.9 L30.55 83.9 33.25 84.05 33.9 84.15 32.3 87.4"/><path fill="#5bbf8d" stroke="none" d="M29.1 93.7 L30.5 90.95 Q32.45 91.8 34.1 93.55 L34.5 94.0 33.25 96.5 32.35 95.5 31.3 94.7 Q30.3 94.0 29.15 93.7 L29.1 93.7"/><path fill="#40a271" stroke="none" d="M29.15 93.7 Q30.3 94.0 31.3 94.7 L32.35 95.5 33.25 96.5 31.65 99.75 Q29.8 97.35 27.75 96.65 L29.15 93.7"/><path fill="#77caa0" stroke="none" d="M33.9 84.15 Q36.4 84.8 38.1 86.9 L36.3 90.45 36.05 90.2 36.05 90.15 35.9 89.95 Q34.25 88.25 32.3 87.4 L33.9 84.15 M32.1 87.75 Q34.35 88.35 36.05 90.15 L36.05 90.2 36.3 90.45 34.5 94.0 34.1 93.55 Q32.45 91.8 30.5 90.95 L32.1 87.75"/><path fill="#4da177" stroke="none" d="M36.1 96.55 Q36.7 98.75 34.65 98.95 L34.0 97.6 33.9 97.4 33.25 96.5 34.5 94.0 36.1 96.55"/><path fill="#5ea17e" stroke="none" d="M38.1 86.9 L39.45 89.1 Q41.45 92.6 37.9 93.0 37.2 91.6 36.3 90.45 37.05 91.4 37.6 92.65 39.65 96.2 36.1 96.55 L34.5 94.0 36.3 90.45 38.1 86.9"/><path fill="#388c62" stroke="none" d="M34.0 97.6 L34.75 99.55 Q34.8 102.2 33.45 102.4 L31.65 99.75 33.25 96.5 33.9 97.4 34.0 97.6"/><path fill="#307d56" stroke="none" d="M33.45 102.4 Q35.45 105.85 30.6 108.1 L28.8 105.4 31.65 99.75 33.45 102.4"/><path fill="none" stroke="#000000" stroke-width="0.5" stroke-opacity="0.301960784314" d="M19.95 101.45 L20.0 102.25 20.15 102.15 24.9 102.4 M27.75 96.65 L23.05 96.8 Q20.1 97.85 19.95 101.2 L19.95 101.45 19.7 101.95 M19.8 102.25 L20.0 102.25 20.05 103.0 M25.3 93.0 L25.55 93.35 27.75 93.4 29.1 93.7 29.15 93.7 Q30.3 94.0 31.3 94.7 L32.35 95.5 33.25 96.5 33.9 97.4 34.0 97.6 34.75 99.55 Q34.8 102.2 33.45 102.4 35.45 105.85 30.6 108.1 L28.8 105.4 Q27.0 103.15 24.9 102.4 M30.5 90.95 Q28.75 90.25 26.75 90.1 L26.4 90.45 Q24.8 91.95 25.3 93.0 21.9 93.9 23.05 96.8 M32.3 87.4 Q30.55 86.7 28.6 86.55 27.95 84.55 30.25 83.9 L30.55 83.9 33.25 84.05 33.9 84.15 Q36.4 84.8 38.1 86.9 L39.45 89.1 Q41.45 92.6 37.9 93.0 37.2 91.6 36.3 90.45 37.05 91.4 37.6 92.65 39.65 96.2 36.1 96.55 36.7 98.75 34.65 98.95 L34.0 97.6 M26.75 90.1 Q26.15 88.05 28.45 87.4 L28.7 87.4 31.45 87.6 32.1 87.75 Q34.35 88.35 36.05 90.15 L35.9 89.95 Q34.25 88.25 32.3 87.4 M34.5 94.0 L34.1 93.55 Q32.45 91.8 30.5 90.95 M36.3 90.45 L36.05 90.2 36.05 90.15 M33.45 102.4 L31.65 99.75 Q29.8 97.35 27.75 96.65 M36.1 96.55 L34.5 94.0"/><path fill="#b6c4c2" stroke="none" d="M22.6 48.6 L22.95 47.25 27.65 43.55 Q25.5 50.35 28.5 55.5 22.15 52.7 22.6 48.6"/><path fill="#c1d0ce" stroke="none" d="M81.1 67.85 Q76.2 71.95 74.05 74.9 71.8 77.8 74.35 82.8 L72.15 81.85 Q69.2 82.45 69.75 85.3 L59.8 78.75 64.45 78.65 Q64.25 77.7 61.65 74.9 L62.45 75.6 Q69.2 77.2 72.15 73.55 72.5 71.4 68.6 68.45 72.25 70.9 81.1 67.85 M66.7 90.4 L65.2 91.35 Q62.4 87.65 55.8 84.5 L52.25 82.95 Q48.25 81.5 43.15 80.45 L48.15 71.5 Q51.95 74.45 54.75 77.9 L58.75 84.5 49.9 78.05 54.45 83.1 Q60.7 84.9 65.0 87.95 L66.7 90.4 M42.5 67.75 L36.85 77.55 Q34.2 76.4 27.85 77.7 L34.8 75.95 Q36.2 73.25 33.05 74.3 34.15 72.25 32.95 67.15 31.65 65.3 29.6 63.8 L26.7 61.45 Q30.7 64.5 37.7 67.5 39.4 67.05 35.9 64.45 39.15 65.8 42.5 67.75 M38.5 72.15 Q37.55 68.95 34.05 66.3 31.75 65.3 29.6 63.8 31.75 65.3 34.05 66.3 37.55 68.95 38.5 72.15 M32.95 67.15 Q34.3 69.15 34.75 71.6 34.3 69.15 32.95 67.15 M35.55 73.25 Q34.15 73.7 33.05 74.3 34.15 73.7 35.55 73.25 M47.65 68.5 L28.55 60.3 Q52.0 69.1 38.5 59.5 54.1 62.65 62.25 72.4 56.85 72.9 59.85 77.3 55.4 71.25 47.65 68.5 M72.15 81.85 Q66.65 79.35 62.45 75.6 66.65 79.35 72.15 81.85"/><path fill="#ffffff" stroke="none" d="M22.6 48.6 Q22.15 52.7 28.5 55.5 32.5 57.1 39.5 55.9 57.65 53.35 68.55 65.55 71.0 68.15 77.85 67.9 L81.1 67.85 Q72.25 70.9 68.6 68.45 72.5 71.4 72.15 73.55 69.2 77.2 62.45 75.6 L61.65 74.9 Q64.25 77.7 64.45 78.65 L59.8 78.75 69.75 85.3 Q70.4 87.5 66.7 90.4 L65.0 87.95 Q60.7 84.9 54.45 83.1 L49.9 78.05 58.75 84.5 54.75 77.9 Q51.95 74.45 48.15 71.5 45.4 69.35 42.5 67.75 39.15 65.8 35.9 64.45 39.4 67.05 37.7 67.5 30.7 64.5 26.7 61.45 L24.1 58.9 Q21.15 55.2 22.6 48.6 M27.85 77.7 Q29.05 76.0 33.05 74.3 36.2 73.25 34.8 75.95 L27.85 77.7 M59.85 77.3 Q56.85 72.9 62.25 72.4 54.1 62.65 38.5 59.5 52.0 69.1 28.55 60.3 L47.65 68.5 Q55.4 71.25 59.85 77.3 M61.15 74.4 L61.4 74.7 61.65 74.9 61.4 74.7 61.15 74.4"/><path fill="none" stroke="#000000" stroke-width="0.5" stroke-opacity="0.301960784314" d="M28.5 55.5 Q25.5 50.35 27.65 43.55 L22.95 47.25 22.6 48.6 Q22.15 52.7 28.5 55.5 32.5 57.1 39.5 55.9 57.65 53.35 68.55 65.55 71.0 68.15 77.85 67.9 L81.1 67.85 Q76.2 71.95 74.05 74.9 71.8 77.8 74.35 82.8 L72.15 81.85 Q69.2 82.45 69.75 85.3 70.4 87.5 66.7 90.4 L65.2 91.35 Q62.4 87.65 55.8 84.5 L52.25 82.95 Q48.25 81.5 43.15 80.45 L48.15 71.5 Q45.4 69.35 42.5 67.75 L36.85 77.55 Q34.2 76.4 27.85 77.7 29.05 76.0 33.05 74.3 34.15 72.25 32.95 67.15 31.65 65.3 29.6 63.8 L26.7 61.45 24.1 58.9 Q21.15 55.2 22.6 48.6 M34.75 71.6 Q34.3 69.15 32.95 67.15 M29.6 63.8 Q31.75 65.3 34.05 66.3 37.55 68.95 38.5 72.15 M33.05 74.3 Q34.15 73.7 35.55 73.25 M48.15 71.5 Q51.95 74.45 54.75 77.9 M35.9 64.45 Q39.15 65.8 42.5 67.75 M59.85 77.3 Q55.4 71.25 47.65 68.5 M61.65 74.9 L61.4 74.7 61.15 74.4 M61.65 74.9 L62.45 75.6 Q66.65 79.35 72.15 81.85 M69.75 85.3 L59.8 78.75"/><path fill="#ffffff" stroke="none" d="M50.7 -7.4 L52.8 -4.9 Q57.75 1.85 67.85 2.6 77.85 3.15 83.4 10.45 88.9 17.85 91.5 19.75 99.95 25.65 103.75 23.6 99.85 28.7 96.55 29.05 93.25 29.3 91.45 29.0 86.55 28.05 79.65 24.85 78.9 23.2 83.15 24.1 79.95 22.65 74.2 21.0 73.2 20.3 70.65 19.8 64.95 18.8 60.55 18.95 L53.0 20.4 63.7 22.65 56.9 22.5 Q54.95 21.3 53.0 20.4 44.6 18.8 43.8 22.15 43.05 13.6 45.1 12.6 L56.6 15.75 Q53.3 14.45 53.6 12.15 L58.25 11.9 57.25 11.65 Q51.55 7.65 52.3 3.05 53.65 1.4 58.5 2.35 54.3 1.2 50.7 -7.4 M86.45 35.4 Q88.0 38.5 86.55 40.15 L75.25 32.55 81.2 32.3 Q84.25 33.2 86.45 35.4 M58.95 11.9 L58.25 11.9 58.95 11.9 M57.7 14.75 Q65.15 14.1 72.3 18.0 L91.1 26.85 Q68.95 15.15 85.1 18.9 72.35 9.3 59.7 9.75 62.95 14.05 57.7 14.75"/><path fill="#c1d0ce" stroke="none" d="M91.45 29.0 L89.45 28.95 Q85.95 31.75 86.45 35.4 84.25 33.2 81.2 32.3 L75.25 32.55 86.55 40.15 Q75.35 33.3 68.9 31.5 L74.2 21.0 Q79.95 22.65 83.15 24.1 78.9 23.2 79.65 24.85 86.55 28.05 91.45 29.0 L89.85 28.75 89.45 28.95 Q80.4 28.6 78.5 29.75 80.4 28.6 89.45 28.95 L89.85 28.75 91.45 29.0 M70.65 19.8 L65.0 29.45 Q62.45 26.8 59.95 25.55 57.45 24.3 53.5 22.8 49.55 21.25 43.8 22.15 44.6 18.8 53.0 20.4 54.95 21.3 56.9 22.5 L63.7 22.65 53.0 20.4 60.55 18.95 Q64.95 18.8 70.65 19.8 M45.1 12.6 Q47.6 11.15 46.1 8.55 L44.0 7.55 Q49.4 6.05 50.05 2.55 50.85 -1.05 50.7 -7.4 54.3 1.2 58.5 2.35 53.65 1.4 52.3 3.05 51.55 7.65 57.25 11.65 L58.25 11.9 53.6 12.15 Q53.3 14.45 56.6 15.75 L45.1 12.6 M72.3 18.0 Q65.15 14.1 57.7 14.75 62.95 14.05 59.7 9.75 72.35 9.3 85.1 18.9 68.95 15.15 91.1 26.85 L72.3 18.0 M89.85 28.75 L89.6 28.7 89.5 28.75 88.3 28.55 87.8 28.4 82.9 26.75 Q78.7 25.85 75.7 27.3 78.7 25.85 82.9 26.75 L87.8 28.4 88.3 28.55 89.5 28.75 89.6 28.7 89.85 28.75 M46.1 8.55 Q51.65 11.0 57.25 11.65 51.65 11.0 46.1 8.55"/><path fill="#b6c4c2" stroke="none" d="M91.5 19.75 Q100.5 22.55 104.2 16.5 L104.6 22.4 103.75 23.6 Q99.95 25.65 91.5 19.75"/><path fill="none" stroke="#000000" stroke-width="0.5" stroke-opacity="0.301960784314" d="M50.7 -7.4 L52.8 -4.9 Q57.75 1.85 67.85 2.6 77.85 3.15 83.4 10.45 88.9 17.85 91.5 19.75 100.5 22.55 104.2 16.5 L104.6 22.4 103.75 23.6 Q99.85 28.7 96.55 29.05 93.25 29.3 91.45 29.0 L89.45 28.95 Q85.95 31.75 86.45 35.4 88.0 38.5 86.55 40.15 75.35 33.3 68.9 31.5 L74.2 21.0 Q73.2 20.3 70.65 19.8 L65.0 29.45 Q62.45 26.8 59.95 25.55 57.45 24.3 53.5 22.8 49.55 21.25 43.8 22.15 43.05 13.6 45.1 12.6 47.6 11.15 46.1 8.55 L44.0 7.55 Q49.4 6.05 50.05 2.55 50.85 -1.05 50.7 -7.4 M57.25 11.65 L58.25 11.9 58.95 11.9 M57.7 14.75 Q65.15 14.1 72.3 18.0 M70.65 19.8 Q64.95 18.8 60.55 18.95 M91.45 29.0 L89.85 28.75 89.45 28.95 Q80.4 28.6 78.5 29.75 M75.7 27.3 Q78.7 25.85 82.9 26.75 L87.8 28.4 88.3 28.55 89.5 28.75 89.6 28.7 89.85 28.75 M83.15 24.1 Q79.95 22.65 74.2 21.0 M81.2 32.3 Q84.25 33.2 86.45 35.4 M103.75 23.6 Q99.95 25.65 91.5 19.75 M57.25 11.65 Q51.65 11.0 46.1 8.55 M56.6 15.75 L45.1 12.6"/><path fill="#c1d0ce" stroke="none" d="M63.4 39.65 Q57.1 38.05 54.55 35.9 62.2 37.7 62.8 36.9 63.25 36.35 59.9 32.75 65.6 38.25 74.7 37.5 67.65 40.5 63.4 39.65 M42.7 38.05 Q40.5 43.35 39.2 44.9 L36.65 46.5 Q41.05 42.2 38.75 42.3 L42.7 38.05 M32.05 51.3 Q34.05 48.05 39.45 47.0 43.6 47.45 47.5 48.55 55.85 46.85 48.9 42.3 L45.35 42.15 Q47.25 40.6 53.0 41.3 L51.65 39.1 57.2 42.25 56.0 44.2 51.4 52.15 Q41.15 47.4 32.05 51.3 M61.6 45.2 Q64.85 47.55 69.85 50.5 68.2 46.2 60.05 41.35 L69.65 45.6 Q75.75 48.1 85.6 46.0 81.85 50.9 82.55 52.0 L73.9 52.15 65.95 52.3 Q74.25 57.5 85.15 55.75 84.5 56.95 82.55 58.2 79.15 58.5 78.6 60.45 78.95 61.95 80.45 63.3 74.8 60.9 66.25 54.05 58.8 52.5 65.8 56.95 L73.0 61.1 Q63.8 58.9 57.15 54.65 L61.6 45.2 M48.9 42.3 Q53.15 42.65 56.0 44.2 53.15 42.65 48.9 42.3"/><path fill="#ffffff" stroke="none" d="M59.9 32.75 Q63.25 36.35 62.8 36.9 62.2 37.7 54.55 35.9 57.1 38.05 63.4 39.65 67.65 40.5 74.7 37.5 81.1 35.0 86.6 37.3 93.4 40.35 91.05 46.1 92.55 39.95 86.75 44.55 L86.05 45.45 85.6 46.0 Q75.75 48.1 69.65 45.6 L60.05 41.35 Q68.2 46.2 69.85 50.5 64.85 47.55 61.6 45.2 L57.2 42.25 51.65 39.1 53.0 41.3 Q47.25 40.6 45.35 42.15 L48.9 42.3 Q55.85 46.85 47.5 48.55 43.6 47.45 39.45 47.0 34.05 48.05 32.05 51.3 31.1 48.6 34.4 45.1 36.45 44.3 38.75 42.3 41.05 42.2 36.65 46.5 L39.2 44.9 Q40.5 43.35 42.7 38.05 L43.15 36.95 Q44.6 33.35 44.4 32.0 L44.15 31.0 44.05 30.75 Q43.25 28.05 40.55 25.8 L38.45 25.7 Q41.3 23.55 46.0 24.45 54.75 26.8 59.9 32.75 M80.45 63.3 Q81.55 64.4 83.5 65.4 77.6 63.75 73.0 61.1 L65.8 56.95 Q58.8 52.5 66.25 54.05 74.8 60.9 80.45 63.3 M85.15 55.75 Q74.25 57.5 65.95 52.3 L73.9 52.15 82.55 52.0 84.25 51.95 Q86.1 53.9 85.15 55.75"/><path fill="#b4c2c0" stroke="none" d="M38.45 25.7 L40.55 25.8 Q43.25 28.05 44.05 30.75 43.05 29.9 40.75 32.45 37.35 28.1 38.45 25.7 M86.75 44.55 Q92.55 39.95 91.05 46.1 L86.75 44.55"/><path fill="none" stroke="#000000" stroke-width="0.5" stroke-opacity="0.301960784314" d="M63.4 39.65 Q67.65 40.5 74.7 37.5 65.6 38.25 59.9 32.75 54.75 26.8 46.0 24.45 41.3 23.55 38.45 25.7 37.35 28.1 40.75 32.45 43.05 29.9 44.05 30.75 L44.15 31.0 44.4 32.0 Q44.6 33.35 43.15 36.95 L42.7 38.05 Q40.5 43.35 39.2 44.9 M40.55 25.8 Q43.25 28.05 44.05 30.75 M38.75 42.3 Q36.45 44.3 34.4 45.1 31.1 48.6 32.05 51.3 41.15 47.4 51.4 52.15 L56.0 44.2 Q53.15 42.65 48.9 42.3 L45.35 42.15 M51.65 39.1 L57.2 42.25 61.6 45.2 Q64.85 47.55 69.85 50.5 M85.6 46.0 L86.05 45.45 86.75 44.55 Q92.55 39.95 91.05 46.1 93.4 40.35 86.6 37.3 81.1 35.0 74.7 37.5 M56.0 44.2 L57.2 42.25 M91.05 46.1 L86.75 44.55 M42.7 38.05 L38.75 42.3 M73.0 61.1 Q77.6 63.75 83.5 65.4 81.55 64.4 80.45 63.3 78.95 61.95 78.6 60.45 79.15 58.5 82.55 58.2 84.5 56.95 85.15 55.75 86.1 53.9 84.25 51.95 L82.55 52.0 Q81.85 50.9 85.6 46.0 M65.8 56.95 L73.0 61.1 Q63.8 58.9 57.15 54.65 L61.6 45.2 M73.9 52.15 L82.55 52.0"/></g><g id="c16"><g><use transform="matrix(1.0,0.0,0.0,1.0,0.0,0.0)" xlink:href="#c15"/></g></g><g id="c17"><path fill="none" stroke="#ffcc00" stroke-width="0.5" d="M37.8 93.2 L26.1 97.0 Q23.45 97.8 21.8 96.65 20.65 95.9 19.95 94.25 L8.0 67.8 7.9 67.65 7.5 66.8 5.55 62.4 Q4.25 59.55 6.0 58.1 L7.5 57.25 11.8 55.6 Q15.25 54.3 16.95 57.5 L28.6 53.75 Q32.85 52.35 34.75 56.45 L46.85 83.3 47.2 84.05 49.25 88.5 Q50.25 90.7 49.45 92.05 48.8 93.05 47.25 93.6 L42.95 95.15 41.4 95.55 Q39.05 95.65 37.8 93.2"/></g><linearGradient gradientUnits="userSpaceOnUse" x1="-819.2" x2="819.2" spreadMethod="pad" gradientTransform="matrix(-0.0125732421875,0.0326843261719,-0.0249176025391,-0.0216674804688,24.2,31.15)" id="gradient4"><stop offset="0.0" stop-opacity="0.337254901961"/><stop offset="1.0" stop-opacity="0.0"/></linearGradient><linearGradient gradientUnits="userSpaceOnUse" x1="-819.2" x2="819.2" spreadMethod="pad" gradientTransform="matrix(-0.00735473632812,0.0279541015625,-0.0266723632812,-0.0160522460938,34.25,42.6)" id="gradient5"><stop offset="0.0" stop-opacity="0.337254901961"/><stop offset="1.0" stop-opacity="0.0"/></linearGradient><linearGradient gradientUnits="userSpaceOnUse" x1="-819.2" x2="819.2" spreadMethod="pad" gradientTransform="matrix(0.0,0.0374755859375,-0.0333709716797,-0.0137786865234,15.9,31.9)" id="gradient6"><stop offset="0.0" stop-opacity="0.337254901961"/><stop offset="1.0" stop-opacity="0.0"/></linearGradient><linearGradient gradientUnits="userSpaceOnUse" x1="-819.2" x2="819.2" spreadMethod="pad" gradientTransform="matrix(-0.00982666015625,0.0286254882812,-0.0181274414062,-0.0141143798828,4.1,18.2)" id="gradient7"><stop offset="0.0" stop-opacity="0.337254901961"/><stop offset="1.0" stop-opacity="0.0"/></linearGradient><g id="c18"><path stroke="none" fill="url(#gradient4)" d="M26.45 9.0 L26.45 45.2 21.35 45.2 21.35 9.0 26.45 9.0"/><path stroke="none" fill="url(#gradient5)" d="M31.7 45.2 L31.7 17.3 36.8 24.7 36.8 45.2 31.7 45.2"/><path stroke="none" fill="url(#gradient6)" d="M15.65 9.0 L14.95 45.2 9.35 45.2 9.6 9.0 15.65 9.0"/><path stroke="none" fill="url(#gradient7)" d="M5.1 9.0 L5.1 40.3 0.0 40.3 0.0 9.0 5.1 9.0"/></g><g id="c19"><g><use transform="matrix(1.0,0.0,0.0,1.0,0.0,0.0)" xlink:href="#c18"/></g></g><g id="c20"><path fill="#fefd8d" fill-opacity="0.972549019608" d="M33.85 83.75 L33.85 83.8 33.85 83.95 33.85 84.0 33.85 84.1 33.9 84.1 33.9 84.15 34.35 84.4 34.85 84.75 34.35 84.45 34.1 84.3 34.05 84.25 33.95 84.2 33.9 84.2 33.9 84.7 33.9 85.25 33.85 84.75 33.75 84.2 33.7 84.1 33.5 84.25 33.0 84.55 32.7 84.7 32.95 84.5 33.4 84.3 33.45 84.25 33.5 84.2 33.7 84.1 33.65 84.05 33.7 84.05 33.7 84.0 33.3 83.6 32.95 83.25 33.3 83.55 33.55 83.8 33.7 83.95 33.8 83.4 33.9 82.95 33.85 83.35 33.85 83.75 M34.25 84.0 L34.15 84.0 33.9 84.05 34.15 83.95 34.7 83.75 35.2 83.65 34.85 83.75 34.95 83.85 34.85 83.75 34.7 83.8 34.4 83.9 34.35 83.9 34.25 84.0 M34.95 83.85 L35.65 84.4 36.45 85.15 36.5 85.2 36.75 85.45 36.9 85.55 36.9 85.5 37.1 83.9 37.35 82.3 37.45 81.75 37.4 82.25 37.4 83.85 37.2 85.6 37.35 86.0 37.4 86.1 38.7 86.9 40.15 87.75 40.55 88.05 40.1 87.8 38.75 87.05 37.75 86.45 37.4 86.25 37.35 86.2 37.4 86.3 37.5 87.75 37.55 89.45 37.6 90.0 37.5 89.5 37.25 87.9 37.05 86.25 37.0 86.3 36.9 85.9 36.7 85.75 36.9 85.85 36.9 85.65 35.7 84.55 34.95 83.85 M35.7 86.65 L36.1 86.45 36.2 86.4 36.85 86.1 36.3 86.45 34.8 87.25 33.35 88.0 32.8 88.25 33.3 88.0 34.65 87.2 35.7 86.65 M41.85 84.45 L41.35 84.6 39.85 85.15 38.15 85.7 37.5 85.9 Q37.45 85.85 38.1 85.65 L39.7 85.1 41.3 84.6 41.85 84.45"/><path fill="#fffd8f" fill-opacity="0.4" d="M33.85 83.75 L34.05 83.4 34.25 83.2 34.15 83.4 34.0 83.8 33.9 83.9 33.85 83.8 33.85 83.75 M34.1 84.3 L34.35 84.5 34.45 84.65 34.25 84.5 34.0 84.3 33.95 84.2 34.05 84.25 34.1 84.3 M33.4 84.3 L33.3 84.3 32.95 84.45 32.7 84.55 32.95 84.4 33.35 84.25 33.45 84.25 33.4 84.3 M33.55 83.8 L33.4 83.6 33.6 83.8 33.65 83.9 33.55 83.8 M34.25 84.0 L34.35 83.9 34.4 83.9 34.65 83.85 34.95 83.85 35.05 83.8 34.95 83.85 34.7 83.9 34.3 84.0 34.2 84.0 34.25 84.0 M36.45 85.15 L35.85 84.4 35.45 83.85 35.95 84.3 36.65 85.15 36.9 85.5 36.75 85.45 36.5 85.2 36.45 85.15 M37.75 86.45 Q38.15 86.7 38.6 87.1 L39.3 87.75 38.5 87.15 37.6 86.5 37.4 86.3 37.35 86.2 37.4 86.25 37.75 86.45 M33.6 84.3 L33.7 84.2 33.75 84.35 33.65 84.7 33.55 85.05 33.55 84.75 33.6 84.3 M37.65 85.15 L37.35 85.5 37.35 85.0 37.9 84.05 38.5 83.1 38.7 82.75 38.55 83.1 38.15 84.05 37.65 85.15 M35.7 86.65 L34.7 87.0 33.8 87.3 34.7 86.95 35.75 86.5 36.1 86.45 35.7 86.65 M38.7 85.65 L38.25 85.7 38.7 85.55 39.75 85.35 40.7 85.2 41.05 85.15 40.75 85.25 39.8 85.45 38.7 85.65 M36.7 86.7 L36.95 86.25 37.0 86.75 36.65 87.8 36.3 88.85 36.15 89.25 36.25 88.85 36.4 87.85 Q36.5 87.1 36.7 86.7"/><path fill="#fffd8f" fill-opacity="0.392156862745" d="M38.0 86.75 Q37.9 86.0 37.45 85.8 L36.9 85.85 Q36.75 86.1 36.9 86.5 37.1 87.0 37.65 87.3 L38.35 87.95 38.6 88.25 38.45 87.85 38.0 86.75"/><path fill="#fffd8f" fill-opacity="0.392156862745" d="M38.0 86.25 L37.05 85.85 Q36.8 85.8 36.95 85.95 L37.55 86.35 38.35 86.6 Q38.8 86.65 39.05 86.85 L39.35 86.95 39.0 86.75 38.0 86.25"/><path fill="#fffd8f" fill-opacity="0.392156862745" d="M36.4 84.8 Q36.35 85.55 36.75 85.85 L37.3 85.9 37.45 85.25 Q37.35 84.75 36.9 84.35 36.35 83.9 36.3 83.55 L36.1 83.25 36.2 83.65 36.4 84.8"/><path fill="#fffd8f" fill-opacity="0.392156862745" d="M36.25 85.35 L37.1 85.95 37.2 85.8 36.75 85.3 35.95 84.9 Q35.55 84.75 35.3 84.6 L35.05 84.45 35.35 84.65 36.25 85.35"/><path fill="#fffd8f" fill-opacity="0.392156862745" d="M38.75 85.2 Q38.0 85.45 37.85 85.65 37.7 85.85 37.85 85.8 L38.5 85.65 39.25 85.2 39.9 84.75 40.15 84.6 39.75 84.75 38.75 85.2"/><path fill="#fffd8f" fill-opacity="0.392156862745" d="M35.75 87.0 L36.6 86.4 36.5 86.25 Q36.25 86.25 35.9 86.5 L35.25 87.1 34.7 87.65 Q34.4 87.8 34.45 87.85 L34.8 87.6 35.75 87.0"/><path fill="#fffd8f" fill-opacity="0.392156862745" d="M34.1 84.35 L33.95 84.05 33.75 84.05 Q33.65 84.1 33.7 84.25 L34.0 84.55 34.2 84.75 34.3 84.85 34.2 84.75 34.1 84.35"/><path fill="#fffd8f" fill-opacity="0.392156862745" d="M34.1 84.2 Q33.9 84.05 33.75 84.05 L33.75 84.1 33.95 84.2 34.2 84.3 34.5 84.4 34.55 84.4 34.45 84.4 34.1 84.2"/><path fill="#fffd8f" fill-opacity="0.392156862745" d="M33.5 83.65 L33.65 84.05 33.85 84.05 33.9 83.85 33.65 83.55 33.5 83.25 33.45 83.15 33.5 83.25 33.5 83.65"/><path fill="#fffd8f" fill-opacity="0.392156862745" d="M33.5 83.9 L33.75 84.05 33.8 84.0 33.65 83.85 33.35 83.7 33.2 83.6 33.05 83.55 33.15 83.6 33.5 83.9"/><path fill="#fffd8f" fill-opacity="0.392156862745" d="M34.3 83.8 L34.05 83.95 34.05 84.0 34.25 83.95 34.55 83.8 Q34.6 83.7 34.7 83.7 L34.8 83.6 34.7 83.65 34.3 83.8"/><path fill="#fffd8f" fill-opacity="0.392156862745" d="M33.3 84.45 L33.6 84.2 33.6 84.15 Q33.5 84.15 33.4 84.3 L33.15 84.45 32.95 84.65 32.85 84.75 33.0 84.6 33.3 84.45"/><path fill="#ffffff" stroke="none" d="M36.3 85.35 Q36.05 85.7 36.05 86.15 L36.5 86.9 37.3 87.15 38.05 86.75 38.25 85.9 37.85 85.2 37.05 84.95 36.3 85.35"/><path fill="#fefd8d" fill-opacity="0.972549019608" d="M18.75 62.3 L18.65 62.35 18.2 62.45 18.6 62.25 19.85 61.9 21.0 61.5 21.4 61.35 21.05 61.5 19.9 61.9 18.75 62.3 M17.45 61.95 L17.7 62.2 17.75 62.2 17.7 62.15 17.85 61.05 18.05 59.85 18.15 59.4 18.1 59.8 18.05 61.0 18.0 62.25 18.1 62.6 19.15 63.2 20.0 63.75 19.15 63.3 18.5 62.95 18.4 62.85 18.15 62.7 18.1 62.7 18.15 62.75 18.2 63.85 18.2 64.9 18.0 64.0 17.85 62.8 17.8 62.8 17.75 62.45 17.6 62.3 17.7 62.35 17.7 62.3 16.85 61.5 15.9 60.65 15.65 60.35 15.95 60.65 16.8 61.4 17.45 61.95 M14.7 64.25 L15.05 64.05 16.1 63.45 17.25 62.85 17.7 62.65 17.3 62.95 16.2 63.45 15.1 64.05 14.7 64.25"/><path fill="#fffd8f" fill-opacity="0.4" d="M18.75 62.3 L19.1 62.2 19.85 62.05 20.6 61.95 19.85 62.15 19.05 62.3 18.75 62.3 M17.45 61.95 L16.95 61.35 16.5 60.75 17.0 61.3 17.55 61.95 17.7 62.15 17.75 62.2 17.7 62.2 17.45 61.95 M18.5 62.95 L19.0 63.35 19.6 63.8 19.8 64.0 19.6 63.85 18.95 63.4 18.3 62.9 18.15 62.75 18.1 62.7 18.15 62.7 18.4 62.85 18.5 62.95 M18.3 61.9 L18.05 62.2 18.1 61.85 18.45 61.15 18.9 60.4 19.1 60.2 18.95 60.4 18.65 61.15 18.3 61.9 M17.55 63.1 L17.75 62.75 17.8 63.1 17.6 63.95 17.25 64.7 17.15 64.95 17.2 64.7 17.4 63.9 Q17.4 63.4 17.55 63.1 M16.9 62.9 L17.2 62.85 Q17.15 62.9 16.85 63.05 L16.15 63.3 15.45 63.55 15.2 63.6 15.45 63.5 16.1 63.25 Q16.6 63.0 16.9 62.9"/><path fill="#fffd8f" fill-opacity="0.392156862745" d="M18.6 63.1 L18.15 62.4 17.7 62.45 17.75 62.95 18.3 63.55 Q18.75 63.8 18.8 64.0 L19.0 64.25 18.85 63.95 18.6 63.1"/><path fill="#fffd8f" fill-opacity="0.392156862745" d="M18.55 62.7 Q18.05 62.4 17.9 62.4 17.7 62.4 17.8 62.5 L18.25 62.8 18.85 63.0 19.35 63.15 19.6 63.2 19.35 63.1 18.55 62.7"/><path fill="#fffd8f" fill-opacity="0.392156862745" d="M17.3 61.7 Q17.35 62.3 17.55 62.45 L18.0 62.5 18.1 62.0 17.65 61.35 17.25 60.75 17.15 60.5 17.2 60.8 17.3 61.7"/><path fill="#fffd8f" fill-opacity="0.392156862745" d="M17.25 62.1 L17.9 62.5 17.95 62.45 17.6 62.05 17.05 61.75 16.55 61.5 16.35 61.4 16.55 61.6 Q16.8 61.7 17.25 62.1"/><path fill="#fffd8f" fill-opacity="0.392156862745" d="M19.05 61.9 L18.4 62.3 18.45 62.4 18.9 62.3 19.5 61.95 19.95 61.6 20.15 61.5 19.85 61.6 19.05 61.9"/><path fill="#fffd8f" fill-opacity="0.392156862745" d="M16.9 63.3 L17.5 62.85 17.45 62.7 17.05 62.9 16.5 63.35 16.15 63.75 15.95 63.95 16.2 63.75 16.9 63.3"/><path fill="#ffffff" stroke="none" d="M17.4 62.1 Q17.15 62.35 17.2 62.65 L17.55 63.25 18.1 63.4 18.7 63.1 18.85 62.5 18.55 61.95 17.9 61.75 17.4 62.1"/><path fill="#ffffff" stroke="none" d="M33.55 83.9 L33.45 84.15 33.6 84.45 33.85 84.5 34.15 84.4 34.2 84.05 34.1 83.85 33.75 83.75 33.55 83.9"/></g><g id="c21"><g><use transform="matrix(1.0,0.0,0.0,1.0,6.3,53.35)" xlink:href="#c11"/></g><mask id="mask12"><use transform="matrix(1.0,0.0,0.0,1.0,0.0,0.0)" xlink:href="#c12"/></mask><g mask="url(#mask12)"><use transform="matrix(1.19317626953,0.0,0.0,1.19317626953,2.45,49.2)" xlink:href="#c14"/></g><g><use transform="matrix(-0.146041870117,0.0488891601562,0.0616760253906,0.140441894531,33.05,63.95)" xlink:href="#c16"/></g><g><use transform="matrix(1.0,0.0,0.0,1.0,0.0,0.0)" xlink:href="#c17"/></g><mask id="mask12"><use transform="matrix(1.0,0.0,0.0,1.0,0.0,0.0)" xlink:href="#c12"/></mask><g mask="url(#mask12)"><use transform="matrix(1.0,0.0,0.0,1.0,9.65,51.0)" filter="url(#filter19)" xlink:href="#c19"/></g><g mask="url(#mask12)"><use transform="matrix(1.0,0.0,0.0,1.0,9.65,47.6)" filter="url(#filter20)" xlink:href="#c19"/></g><g mask="url(#mask12)"><use transform="matrix(1.0,0.0,0.0,1.0,0.0,0.0)" xlink:href="#c20"/></g><g><use transform="matrix(0.141098022461,-0.0378112792969,0.111373901367,0.225646972656,27.2,74.05)" filter="url(#filter22)" xlink:href="#c8"/></g></g><filter id="filter19"><feColorMatrix in="SourceGraphic" type="matrix" values="0.0 0.0 0.0 0.0 0.99609375 0.0 0.0 0.0 0.0 0.99609375 0.0 0.0 0.0 0.0 0.99609375 0.0 0.0 0.0 1.0 0.0" result="cxform"/><feComposite operator="in" in2="SourceGraphic" result="color-xform"/></filter><filter id="filter20"><feColorMatrix in="SourceGraphic" type="matrix" values="0.0 0.0 0.0 0.0 0.99609375 0.0 0.0 0.0 0.0 0.99609375 0.0 0.0 0.0 0.0 0.99609375 0.0 0.0 0.0 1.0 0.0" result="cxform"/><feComposite operator="in" in2="SourceGraphic" result="color-xform"/></filter><filter id="filter22"><feColorMatrix in="SourceGraphic" type="matrix" values="1.0 0.0 0.0 0.0 0.0 0.0 1.0 0.0 0.0 0.0 0.0 0.0 1.0 0.0 0.0 0.0 0.0 0.0 0.23046875 0.0" result="cxform"/><feComposite operator="in" in2="SourceGraphic" result="color-xform"/></filter><g id="c22"><g><use transform="matrix(1.15492248535,0.0,0.0,1.15492248535,-1.5,-57.7)" xlink:href="#c21"/></g></g><g id="c23"><path fill="none" stroke="#000000" stroke-width="2.0" stroke-opacity="0.0" d="M30.0 30.0 L-30.0 30.0 -30.0 -30.0 30.0 -30.0 30.0 30.0"/></g><g id="c24"><g><use transform="matrix(1.0,0.0,0.0,1.0,0.0,0.0)" xlink:href="#c23"/></g></g></defs><g><g><use transform="matrix(1.0,0.0,0.0,1.0,0.0,0.0)" xlink:href="#c2"/></g><g><use transform="matrix(1.0,0.0,0.0,1.0,0.0,0.0)" xlink:href="#c3"/></g><g><use transform="matrix(1.0,0.0,0.0,1.0,0.0,0.0)" xlink:href="#c22"/></g><g><use transform="matrix(1.0,0.0,0.0,1.0,0.0,0.0)" xlink:href="#c3"/></g><g><use transform="matrix(1.0,0.0,0.0,1.0,30.0,30.0)" xlink:href="#c24"/></g></g></svg>