<?xml version='1.0' encoding='UTF-8'?>
<svg xmlns:xlink="http://www.w3.org/1999/xlink" xmlns="http://www.w3.org/2000/svg" version="1.1" width="60px" height="60px" viewBox="0.0 0.0 60.0 60.0"><defs><g id="c1"><path fill="#000000" fill-opacity="0.00392156862745" d="M0.0 0.0 L60.0 0.0 60.0 60.0 0.0 60.0 0.0 0.0"/></g><g id="c2"><path fill="none" stroke="#000000" stroke-width="1.0" stroke-opacity="0.301960784314" d="M22.3 0.35 Q26.6 -1.0 28.5 3.05 L41.4 31.7 Q43.1 35.4 39.9 36.85 L38.15 37.65 19.65 43.65 Q17.05 44.5 15.35 43.3 14.2 42.55 13.5 40.9 L0.55 12.25 Q-0.6 9.75 0.6 8.25 1.15 7.55 2.2 7.05 2.85 6.6 3.8 6.3 L22.3 0.35"/><path fill="#300525" stroke="none" d="M25.55 0.9 Q26.9 1.6 27.8 3.55 L40.7 32.15 Q42.6 36.3 38.3 37.65 L23.3 42.5 13.15 21.4 4.6 20.9 0.7 12.25 Q-0.45 9.75 0.75 8.25 L29.8 9.75 25.55 0.9 M20.1 43.55 L19.8 43.65 Q17.15 44.45 15.5 43.3 L20.1 43.55"/><path fill="#630a4c" stroke="none" d="M23.3 42.5 L20.1 43.55 15.5 43.3 Q14.35 42.55 13.65 40.9 L4.6 20.9 13.15 21.4 23.3 42.5 M0.75 8.25 Q1.45 7.3 3.1 6.75 L21.65 0.8 25.55 0.9 29.8 9.75 0.75 8.25"/><path fill="none" stroke="#000000" stroke-width="0.5" stroke-opacity="0.301960784314" d="M25.55 0.9 Q26.9 1.6 27.8 3.55 L40.7 32.15 Q42.6 36.3 38.3 37.65 L23.3 42.5 20.1 43.55 19.8 43.65 Q17.15 44.45 15.5 43.3 14.35 42.55 13.65 40.9 L4.6 20.9 0.7 12.25 Q-0.45 9.75 0.75 8.25 1.45 7.3 3.1 6.75 L21.65 0.8 25.55 0.9"/><path fill="#9d147b" stroke="none" d="M14.2 40.5 L1.35 11.8 Q-0.5 7.75 3.8 6.35 L22.3 0.4 Q26.55 -1.0 28.45 3.1 L41.35 31.7 Q43.25 35.85 38.9 37.25 L20.4 43.2 Q16.1 44.55 14.2 40.5"/><path fill="none" stroke="#000000" stroke-width="0.5" stroke-opacity="0.301960784314" d="M14.2 40.5 L1.35 11.8 Q-0.5 7.75 3.8 6.35 L22.3 0.4 Q26.55 -1.0 28.45 3.1 L41.35 31.7 Q43.25 35.85 38.9 37.25 L20.4 43.2 Q16.1 44.55 14.2 40.5"/><path fill="#fcf2cf" stroke="none" d="M9.15 13.6 Q9.8 12.8 9.55 11.6 L9.1 10.55 22.05 6.35 Q24.9 5.45 26.25 7.85 L26.5 8.3 35.8 29.0 35.95 29.35 Q34.75 29.3 34.1 30.1 33.45 30.9 33.7 32.1 L34.0 32.9 20.65 37.2 Q18.8 37.8 17.65 37.0 16.8 36.4 16.3 35.2 L6.95 14.6 6.8 14.4 7.1 14.4 Q8.4 14.45 9.15 13.6"/><path fill="#c47fad" stroke="none" d="M8.25 23.65 L3.35 12.8 Q1.65 9.1 5.5 7.85 L22.25 2.5 Q26.05 1.25 27.75 4.95 L28.25 6.1 35.55 22.3 39.35 30.75 Q41.1 34.5 37.2 35.7 L20.45 41.1 Q16.8 42.25 15.2 39.0 L15.0 38.6 8.25 23.65 M9.15 13.6 Q8.4 14.45 7.1 14.4 L6.8 14.4 6.95 14.6 16.3 35.2 Q16.8 36.4 17.65 37.0 18.8 37.8 20.65 37.2 L34.0 32.9 33.7 32.1 Q33.45 30.9 34.1 30.1 34.75 29.3 35.95 29.35 L35.8 29.0 26.5 8.3 26.25 7.85 Q24.9 5.45 22.05 6.35 L9.1 10.55 9.55 11.6 Q9.8 12.8 9.15 13.6"/><path fill="none" stroke="#ffcc00" stroke-width="1.0" stroke-opacity="0.749019607843" d="M8.25 23.65 L3.35 12.8 Q1.65 9.1 5.5 7.85 L22.25 2.5 Q26.05 1.25 27.75 4.95 L28.25 6.1 M35.55 22.3 L39.35 30.75 Q41.1 34.5 37.2 35.7 L20.45 41.1 Q16.8 42.25 15.2 39.0 L15.0 38.6"/><path fill="none" stroke="#bf9900" stroke-width="1.0" stroke-opacity="0.749019607843" d="M28.25 6.1 L35.55 22.3 M15.0 38.6 L8.25 23.65"/><path fill="none" stroke="#f0b92b" stroke-width="0.5" d="M9.15 13.6 Q9.8 12.8 9.55 11.6 L9.1 10.55 22.05 6.35 Q24.9 5.45 26.25 7.85 L26.5 8.3 35.8 29.0 35.95 29.35 Q34.75 29.3 34.1 30.1 33.45 30.9 33.7 32.1 L34.0 32.9 20.65 37.2 Q18.8 37.8 17.65 37.0 16.8 36.4 16.3 35.2 L6.95 14.6 6.8 14.4 7.1 14.4 Q8.4 14.45 9.15 13.6"/></g><g id="c3"><path fill="#7fdbfe" stroke="none" d="M10.75 4.9 Q10.75 4.6 10.9 4.35 11.25 3.45 11.95 2.75 13.3 1.5 14.35 2.1 15.4 2.7 14.95 4.45 14.7 5.4 14.1 6.15 L13.75 6.5 Q13.1 7.15 12.35 7.35 L11.4 7.2 Q10.95 6.9 10.75 6.4 10.5 5.75 10.75 4.9 M7.5 5.9 Q7.0 5.85 6.6 5.5 6.05 5.0 5.8 4.15 L5.7 3.6 Q5.55 2.65 5.8 1.7 6.25 0.0 7.5 0.0 L7.6 0.0 Q8.85 0.0 9.3 1.7 9.55 2.65 9.4 3.6 L9.3 4.15 8.5 5.5 7.6 5.9 7.5 5.9 M4.35 4.9 Q4.6 5.75 4.35 6.4 L3.7 7.2 2.75 7.35 Q2.0 7.15 1.35 6.5 L1.0 6.15 Q0.4 5.4 0.15 4.45 -0.3 2.7 0.75 2.1 1.8 1.5 3.15 2.75 3.85 3.45 4.2 4.35 L4.35 4.9 M5.5 13.7 Q4.45 13.9 3.65 12.95 2.75 12.0 3.2 10.25 3.7 8.5 5.25 7.6 6.4 6.9 7.55 7.0 8.75 6.9 9.9 7.6 11.45 8.5 11.95 10.25 12.35 12.0 11.5 12.95 10.7 13.9 9.65 13.7 8.55 13.5 7.55 12.6 6.55 13.5 5.5 13.7"/></g><g id="c4"><g><use transform="matrix(1.0,0.0,0.0,1.0,0.0,0.0)" xlink:href="#c3"/></g></g><radialGradient gradientUnits="userSpaceOnUse" r="819.2" cx="0" cy="0" spreadMethod="pad" gradientTransform="matrix(0.0914459228516,0.0,0.0,0.0914459228516,0.6,3.4)" id="gradient1"><stop offset="0.0" stop-color="#ffffff"/><stop offset="1.0" stop-color="#ffffff" stop-opacity="0.0"/></radialGradient><g id="c5"><path stroke="none" fill="url(#gradient1)" d="M36.65 -54.65 Q60.05 -42.0 69.75 -17.95 80.55 8.9 68.0 34.1 55.45 59.35 26.8 68.2 -1.8 77.05 -29.7 64.3 -57.6 51.6 -68.45 24.75 -79.3 -2.05 -66.75 -27.25 L-66.7 -27.3 Q-54.1 -52.5 -25.5 -61.4 3.1 -70.2 31.0 -57.5 L36.65 -54.65"/></g><g id="c6"><g><use transform="matrix(1.0,0.0,0.0,1.0,0.0,0.0)" xlink:href="#c5"/></g></g><radialGradient gradientUnits="userSpaceOnUse" r="819.2" cx="0" cy="0" spreadMethod="pad" gradientTransform="matrix(0.209197998047,0.0,0.0,0.177108764648,67.15,107.2)" id="gradient2"><stop offset="0.356862745098" stop-color="#ffffff"/><stop offset="0.670588235294" stop-opacity="0.0"/></radialGradient><g id="c7"><path fill="none" stroke-linejoin="round" stroke-linecap="round" stroke="url(#gradient2)" stroke-width="0.5" d="M136.55 165.8 L68.6 106.0 68.4 106.0 118.25 201.5 M68.2 105.7 L68.25 105.8 68.25 105.75 68.2 105.7 0.0 45.7 M68.25 105.8 L68.3 105.85 68.3 105.8 68.25 105.75 49.95 0.05 M0.05 97.7 L68.15 105.95 68.25 105.85 68.25 105.8 M68.3 105.85 L68.25 105.85 68.3 106.0 68.3 105.85 68.3 105.8 68.35 105.8 68.3 105.8 86.6 18.35 M50.0 193.2 L68.3 106.0 68.15 105.95 18.25 151.55 M68.4 106.0 L68.3 106.0 86.55 211.5 M68.4 106.0 L68.3 105.85 M68.6 106.0 L68.35 105.8 118.25 60.15 M136.6 114.25 L68.6 106.0 M68.2 105.7 L18.25 10.05"/></g><g id="c8"><g><use transform="matrix(1.0,0.0,0.0,1.0,0.0,0.0)" xlink:href="#c7"/></g></g><linearGradient gradientUnits="userSpaceOnUse" x1="-819.2" x2="819.2" spreadMethod="pad" gradientTransform="matrix(0.0193634033203,0.0,0.0,0.0067138671875,17.95,26.05)" id="gradient3"><stop offset="0.0078431372549" stop-color="#33cccc"/><stop offset="0.596078431373" stop-color="#006699"/><stop offset="0.964705882353" stop-color="#33cccc"/></linearGradient><radialGradient gradientUnits="userSpaceOnUse" r="819.2" cx="0" cy="0" spreadMethod="pad" gradientTransform="matrix(0.0347747802734,0.0,0.0,0.0282135009766,7.45,31.5)" id="gradient4"><stop offset="0.00392156862745" stop-color="#586f74"/><stop offset="0.807843137255" stop-color="#130f12"/><stop offset="0.949019607843" stop-color="#78929c"/></radialGradient><radialGradient gradientUnits="userSpaceOnUse" r="819.2" cx="0" cy="0" spreadMethod="pad" gradientTransform="matrix(0.0347747802734,0.0,0.0,0.0282135009766,7.45,31.5)" id="gradient5"><stop offset="0.00392156862745" stop-color="#0eadad"/><stop offset="0.929411764706" stop-color="#0a8582"/></radialGradient><radialGradient gradientUnits="userSpaceOnUse" r="819.2" cx="0" cy="0" spreadMethod="pad" gradientTransform="matrix(0.0346221923828,0.0,0.0,0.0281066894531,10.5,21.9)" id="gradient6"><stop offset="0.0196078431373" stop-color="#eaf2ed" stop-opacity="0.941176470588"/><stop offset="0.176470588235" stop-color="#dae9e2" stop-opacity="0.611764705882"/><stop offset="0.427450980392" stop-color="#b4d2c3" stop-opacity="0.0313725490196"/><stop offset="0.713725490196" stop-color="#afcfbf" stop-opacity="0.0313725490196"/><stop offset="0.929411764706" stop-color="#e2eee9" stop-opacity="0.662745098039"/></radialGradient><g id="c9"><path stroke="none" fill="url(#gradient3)" d="M33.85 22.9 Q33.85 25.35 29.0 27.7 24.15 30.05 16.65 31.3 12.85 31.9 9.95 31.35 6.95 30.75 5.2 28.95 2.1 25.8 2.1 22.9 L2.25 22.05 2.65 21.35 Q3.6 19.7 5.8 21.7 7.85 23.7 13.65 23.85 19.4 23.95 24.75 22.25 30.0 20.45 31.7 21.0 33.35 21.6 33.55 22.05 L33.85 22.9"/><path stroke="none" fill="url(#gradient4)" d="M2.1 22.9 Q2.1 25.8 5.2 28.95 6.95 30.75 9.95 31.35 12.85 31.9 16.65 31.3 24.15 30.05 29.0 27.7 33.85 25.35 33.85 22.9 34.45 24.65 34.45 26.65 34.45 32.15 29.6 36.1 24.75 40.05 17.9 40.05 11.05 40.05 6.2 36.1 1.35 32.15 1.35 26.65 1.35 24.65 2.0 22.85 L2.1 22.9"/><path stroke="none" fill="url(#gradient5)" d="M2.1 22.9 L2.0 22.85 2.25 22.05 2.1 22.9"/><path stroke="none" fill="url(#gradient6)" d="M35.95 26.45 Q35.95 32.45 30.65 36.75 25.4 41.05 18.0 41.05 10.55 41.05 5.25 36.75 0.0 32.45 0.0 26.45 0.0 20.4 5.25 16.1 10.55 11.85 18.0 11.85 25.4 11.85 30.65 16.1 35.95 20.4 35.95 26.45"/><path fill="none" stroke="#382510" stroke-width="0.6" stroke-opacity="0.301960784314" d="M35.95 26.45 Q35.95 32.45 30.65 36.75 25.4 41.05 18.0 41.05 10.55 41.05 5.25 36.75 0.0 32.45 0.0 26.45 0.0 20.4 5.25 16.1 10.55 11.85 18.0 11.85 25.4 11.85 30.65 16.1 35.95 20.4 35.95 26.45"/><path fill="#009999" fill-opacity="0.490196078431" d="M26.4 32.7 L27.45 33.0 Q27.9 33.35 27.9 33.85 L27.45 34.7 26.4 35.05 Q25.8 35.05 25.4 34.7 24.95 34.35 24.95 33.85 24.95 33.35 25.4 33.0 L26.4 32.7 M31.2 28.9 Q32.0 29.5 32.0 30.35 32.0 31.15 31.2 31.75 30.5 32.35 29.5 32.35 28.5 32.35 27.7 31.75 26.95 31.15 26.95 30.35 26.95 29.5 27.7 28.9 28.5 28.3 29.5 28.3 30.5 28.3 31.2 28.9"/><path fill="#ad7910" stroke="none" d="M33.9 18.5 L36.6 15.85 36.7 18.9 39.8 20.25 36.5 22.75 37.15 26.5 33.4 26.35 31.3 28.6 30.7 24.95 27.6 24.35 30.1 21.65 30.05 21.55 30.15 21.4 30.05 21.4 Q29.3 19.6 28.15 17.85 L28.05 17.65 Q27.65 16.9 27.75 14.85 27.8 12.65 27.25 11.9 L30.65 14.8 30.8 14.9 Q32.1 16.45 30.15 21.4 L30.95 19.95 29.75 23.75 32.65 24.6 32.6 24.55 33.3 22.9 35.95 21.8 33.05 18.4 33.75 18.55 33.9 18.5"/><path fill="#f9c347" stroke="none" d="M30.05 21.55 L30.05 21.4 30.15 21.4 30.05 21.55 M24.6 13.4 L22.55 11.5 Q23.05 9.65 24.0 9.7 L24.35 9.95 24.3 11.9 Q24.05 12.85 24.6 13.4 M33.75 18.35 L33.9 18.5 33.75 18.55 33.75 18.35"/><path fill="#d0950d" stroke="none" d="M33.05 18.4 L35.95 21.8 33.3 22.9 32.6 24.55 32.65 24.6 29.75 23.75 30.95 19.95 32.25 18.6 33.05 18.4"/><path fill="#bd8812" stroke="none" d="M30.8 14.9 Q32.45 16.55 33.75 18.35 L33.75 18.55 33.05 18.4 32.25 18.6 30.95 19.95 30.15 21.4 Q32.1 16.45 30.8 14.9"/><path fill="#996b0f" stroke="none" d="M28.05 17.65 Q26.55 15.5 24.65 13.45 L24.6 13.4 Q24.05 12.85 24.3 11.9 L24.35 9.95 27.25 11.9 Q27.8 12.65 27.75 14.85 27.65 16.9 28.05 17.65"/><path fill="none" stroke="#21150b" stroke-width="0.5" stroke-opacity="0.43137254902" d="M33.9 18.5 L36.6 15.85 36.7 18.9 39.8 20.25 36.5 22.75 37.15 26.5 33.4 26.35 31.3 28.6 30.7 24.95 27.6 24.35 30.1 21.65 30.05 21.55 30.05 21.4 Q29.3 19.6 28.15 17.85 L28.05 17.65 Q26.55 15.5 24.65 13.45 L24.6 13.4 22.55 11.5 Q23.05 9.65 24.0 9.7 L24.35 9.95 27.25 11.9 30.65 14.8 30.8 14.9 Q32.45 16.55 33.75 18.35 L33.9 18.5 M33.75 18.55 L33.05 18.4 32.25 18.6 30.95 19.95 30.15 21.4 30.05 21.55 M33.75 18.35 L33.75 18.55 M30.05 21.4 L30.15 21.4 M24.6 13.4 Q24.05 12.85 24.3 11.9 L24.35 9.95"/><path fill="none" stroke="#21140a" stroke-width="0.5" stroke-opacity="0.211764705882" d="M30.15 21.4 Q32.1 16.45 30.8 14.9 M27.25 11.9 Q27.8 12.65 27.75 14.85 27.65 16.9 28.05 17.65"/><path fill="#382510" fill-opacity="0.2" d="M9.2 17.3 Q9.2 15.3 12.4 13.85 15.65 12.4 20.2 12.4 24.75 12.4 27.95 13.85 31.2 15.3 31.2 17.3 31.2 19.3 27.95 20.75 24.75 22.15 20.2 22.15 15.65 22.15 12.4 20.75 9.2 19.3 9.2 17.3"/><path fill="#ae9a66" stroke="none" d="M12.5 11.3 L12.5 11.15 12.3 10.85 12.2 10.6 12.2 10.45 12.1 10.35 12.1 10.2 12.05 10.0 11.7 8.6 11.7 8.55 11.65 8.6 11.6 8.6 Q13.15 7.05 14.75 7.0 L14.2 9.7 14.3 9.85 12.9 11.7 12.5 11.3 M26.75 10.25 L23.95 11.75 23.85 12.4 23.45 13.0 22.7 13.8 23.7 8.4 Q24.7 8.25 25.55 8.95 L26.75 10.25"/><path fill="#996b0f" stroke="none" d="M12.5 11.15 L12.5 11.3 12.9 11.7 13.05 12.0 13.1 12.05 13.15 12.1 13.5 12.45 14.3 13.2 15.8 14.05 16.9 14.45 17.65 14.6 19.95 14.7 20.0 14.7 20.7 14.65 21.0 14.55 21.85 14.3 22.2 14.15 23.5 13.0 23.85 12.4 23.95 11.75 26.75 10.25 26.75 10.3 26.8 10.35 26.8 10.45 26.85 10.5 27.3 11.1 27.4 11.15 27.4 11.2 Q27.05 12.3 26.1 13.15 L24.25 14.4 23.35 14.85 22.15 15.2 18.2 15.6 17.65 15.55 17.6 15.55 Q15.7 15.4 14.2 14.8 L13.4 14.45 Q12.4 14.05 11.6 13.35 L10.7 12.6 Q10.05 11.9 9.8 11.1 L9.6 10.05 9.6 10.0 9.65 9.95 Q10.25 9.35 11.2 8.85 L11.25 8.8 11.4 8.8 11.45 8.8 11.65 8.6 11.7 8.6 12.0 10.0 12.1 10.2 12.1 10.35 12.2 10.45 12.2 10.6 12.25 10.85 12.5 11.15"/><path fill="#cfc78c" stroke="none" d="M12.5 11.15 L12.25 10.85 12.2 10.6 12.3 10.85 12.5 11.15 M12.1 10.2 L12.0 10.0 11.7 8.6 12.05 10.0 12.1 10.2 M11.65 8.6 L11.45 8.8 11.6 8.6 11.65 8.6 M9.6 10.0 L9.6 10.05 9.5 10.2 9.6 10.0 M27.3 11.1 L26.85 10.5 26.8 10.45 26.8 10.35 26.75 10.3 26.8 10.3 27.1 10.65 27.35 11.1 27.3 11.1 M23.85 12.4 L23.5 13.0 22.2 14.15 22.7 13.8 23.45 13.0 23.85 12.4 M13.15 12.1 L13.1 12.05 13.05 12.0 13.15 12.1 M23.45 13.0 L23.5 13.0 23.45 13.0 M26.85 10.5 L27.1 10.65 26.85 10.5"/><path fill="#8d6d3f" stroke="none" d="M11.7 8.6 L11.65 8.6 11.7 8.55 11.7 8.6 M27.4 11.15 L27.3 11.1 27.35 11.1 27.4 11.15"/><path fill="#cc951a" stroke="none" d="M10.7 12.6 L11.6 13.35 Q12.4 14.05 13.4 14.45 L14.2 14.8 Q15.7 15.4 17.6 15.55 L17.65 15.55 18.2 15.6 22.15 15.2 Q24.6 16.8 23.5 19.15 20.95 20.65 17.7 20.05 L15.5 20.05 Q13.65 19.95 12.15 18.75 10.55 18.3 9.45 17.3 8.25 16.3 8.0 14.9 9.1 13.4 10.7 12.6 M15.6 19.15 L16.25 18.55 Q16.4 18.1 16.05 17.8 15.65 17.35 15.05 17.25 L13.85 17.2 Q13.35 17.4 13.3 17.75 13.1 18.25 13.45 18.6 L14.45 19.15 15.6 19.15 M17.65 15.55 L17.7 20.05 17.65 15.55 M10.5 15.1 L9.85 15.05 Q9.6 15.2 9.6 15.5 L9.75 16.2 10.25 16.7 10.85 16.75 11.15 16.25 10.95 15.6 10.5 15.1 M14.2 14.8 Q11.4 16.35 12.15 18.75 11.4 16.35 14.2 14.8"/><path fill="#bd8812" stroke="none" d="M9.6 10.05 L9.8 11.1 Q10.05 11.9 10.7 12.6 9.1 13.4 8.0 14.9 7.7 13.9 7.8 12.9 8.1 11.45 9.3 10.25 L9.35 10.2 9.4 10.25 9.45 10.25 9.5 10.2 9.6 10.05 M22.15 15.2 L23.35 14.85 24.25 14.4 26.1 13.15 Q27.15 13.65 28.1 14.7 L28.2 14.75 28.2 14.8 Q27.7 17.25 24.55 18.7 L23.5 19.15 Q24.6 16.8 22.15 15.2"/><path fill="#ad7910" stroke="none" d="M26.1 13.15 Q27.05 12.3 27.4 11.2 28.5 12.9 28.2 14.6 L28.2 14.75 28.1 14.7 Q27.15 13.65 26.1 13.15"/><path fill="#f0c106" stroke="none" d="M15.6 19.15 L14.45 19.15 13.45 18.6 Q13.1 18.25 13.3 17.75 13.35 17.4 13.85 17.2 L15.05 17.25 Q15.65 17.35 16.05 17.8 16.4 18.1 16.25 18.55 L15.6 19.15 M10.5 15.1 L10.95 15.6 11.15 16.25 10.85 16.75 10.25 16.7 9.75 16.2 9.6 15.5 Q9.6 15.2 9.85 15.05 L10.5 15.1"/><path fill="none" stroke="#382510" stroke-width="0.5" stroke-opacity="0.501960784314" d="M12.5 11.3 L12.5 11.15 12.3 10.85 12.2 10.6 12.2 10.45 12.1 10.35 12.1 10.2 M11.45 8.8 L11.4 8.8 11.25 8.8 11.2 8.85 Q10.25 9.35 9.65 9.95 L9.6 10.0 M27.4 11.2 L27.4 11.15 M22.2 14.15 L21.85 14.3 M20.0 14.7 L19.95 14.7 17.65 14.6 M14.3 13.2 L13.5 12.45 13.15 12.1 13.1 12.05 M14.3 9.85 L12.9 11.7 M11.65 8.6 L11.6 8.6 11.45 8.8 M12.05 10.0 L12.1 10.2 M13.05 12.0 L13.15 12.1 M11.7 8.55 L11.65 8.6 M11.6 8.6 Q13.15 7.05 14.75 7.0 L14.2 9.7 M22.7 13.8 L23.45 13.0 23.85 12.4 M23.5 13.0 L23.45 13.0 M22.7 13.8 L22.2 14.15 M26.75 10.25 L26.8 10.3 27.1 10.65 M27.35 11.1 L27.4 11.15 M26.8 10.3 L26.75 10.3 M27.35 11.1 L27.3 11.1 M22.7 13.8 L23.7 8.4 Q24.7 8.25 25.55 8.95 L26.75 10.25 M28.2 14.75 L28.2 14.6 Q28.5 12.9 27.4 11.2 M26.1 13.15 Q27.15 13.65 28.1 14.7 L28.2 14.75 28.2 14.8 Q27.7 17.25 24.55 18.7 L23.5 19.15 Q20.95 20.65 17.7 20.05 L15.5 20.05 Q13.65 19.95 12.15 18.75 10.55 18.3 9.45 17.3 8.25 16.3 8.0 14.9 7.7 13.9 7.8 12.9 8.1 11.45 9.3 10.25 L9.35 10.2 9.4 10.25 9.45 10.25 9.5 10.2 9.6 10.0 M9.5 10.2 L9.6 10.05 M22.15 15.2 Q24.6 16.8 23.5 19.15 M17.7 20.05 L17.65 15.55 M12.15 18.75 Q11.4 16.35 14.2 14.8 M10.7 12.6 Q9.1 13.4 8.0 14.9"/><path fill="none" stroke="#382510" stroke-width="0.5" stroke-opacity="0.501960784314" d="M26.85 10.5 L26.8 10.45 26.8 10.35 26.75 10.3 M27.1 10.65 L27.35 11.1 M27.1 10.65 L26.85 10.5"/><path fill="#e2ebd0" stroke="none" d="M14.8 14.55 Q13.75 14.35 12.8 13.95 11.5 13.4 11.0 12.7 L10.85 12.5 10.85 12.45 Q10.0 9.3 11.0 8.55 L14.4 9.1 Q12.6 11.75 14.8 14.55"/><path fill="#b9be9c" stroke="none" d="M10.85 12.45 Q8.1 8.45 12.1 6.35 L23.15 5.45 Q28.5 7.3 25.75 11.85 25.6 12.8 24.35 13.6 25.8 10.4 24.4 9.65 L21.6 10.25 Q21.65 13.2 19.75 14.75 L18.25 14.9 14.8 14.55 Q12.6 11.75 14.4 9.1 L11.0 8.55 Q10.0 9.3 10.85 12.45"/><path fill="#959966" stroke="none" d="M24.35 13.6 Q24.0 13.7 23.55 13.95 21.9 14.65 19.75 14.75 21.65 13.2 21.6 10.25 L24.4 9.65 Q25.8 10.4 24.35 13.6"/><path fill="none" stroke="#ffffff" stroke-width="0.5" stroke-opacity="0.301960784314" d="M14.8 14.55 Q13.75 14.35 12.8 13.95 11.5 13.4 11.0 12.7 L10.85 12.5 10.85 12.45 Q8.1 8.45 12.1 6.35 L23.15 5.45 Q28.5 7.3 25.75 11.85 25.6 12.8 24.35 13.6 24.0 13.7 23.55 13.95 21.9 14.65 19.75 14.75 L18.25 14.9 14.8 14.55"/><path fill="#e9f0e4" stroke="none" d="M10.75 8.4 L10.75 8.05 Q10.7 6.75 12.9 5.8 15.15 4.85 18.3 4.85 21.45 4.8 23.6 5.8 25.85 6.75 25.8 8.1 25.85 9.25 24.1 10.05 L23.6 10.3 22.2 10.8 20.15 11.2 18.3 11.25 15.9 11.15 14.3 10.8 14.1 10.8 10.75 8.4"/><path fill="#ffffff" stroke="none" d="M14.1 10.8 L12.85 10.3 Q11.0 9.5 10.75 8.4 L14.1 10.8"/><path fill="none" stroke="#382510" stroke-width="0.5" stroke-opacity="0.301960784314" d="M10.75 8.05 Q10.7 6.75 12.9 5.8 15.15 4.85 18.3 4.85 21.45 4.8 23.6 5.8 25.85 6.75 25.8 8.1 25.85 9.25 24.1 10.05 M22.2 10.8 L20.15 11.2 M15.9 11.15 L14.3 10.8"/></g><linearGradient gradientUnits="userSpaceOnUse" x1="-819.2" x2="819.2" spreadMethod="pad" gradientTransform="matrix(0.00836181640625,0.0,0.0,0.00857543945312,6.9,12.2)" id="gradient7"><stop offset="0.149019607843" stop-color="#c2a561"/><stop offset="0.572549019608" stop-color="#927b47"/></linearGradient><linearGradient gradientUnits="userSpaceOnUse" x1="-819.2" x2="819.2" spreadMethod="pad" gradientTransform="matrix(-0.00624084472656,0.00358581542969,-0.00286865234375,-0.00498962402344,16.05,12.5)" id="gradient8"><stop offset="0.149019607843" stop-color="#c2a561"/><stop offset="0.572549019608" stop-color="#927b47"/></linearGradient><g id="c10"><path fill="#e6c497" stroke="none" d="M17.45 2.25 L17.35 2.3 16.55 1.65 17.45 2.25 M2.75 1.45 L2.75 1.4 3.1 1.25 2.75 1.45"/><path fill="#806c53" stroke="none" d="M18.75 5.45 L18.8 5.4 18.8 5.45 18.75 5.45"/><path fill="#e0c585" stroke="none" d="M16.55 1.65 L17.35 2.3 Q18.0 3.0 18.15 3.8 L18.15 4.15 18.15 4.35 18.1 4.75 18.05 4.8 Q17.65 6.2 15.6 7.25 L13.45 8.05 9.5 8.5 Q6.85 8.5 4.7 7.8 L4.65 7.8 3.35 7.25 1.45 5.85 Q2.65 4.55 4.85 3.55 L0.85 4.45 0.85 4.4 0.8 4.2 0.8 4.15 0.8 3.95 Q0.95 2.55 2.75 1.45 L3.1 1.25 3.35 1.1 Q5.4 0.05 8.15 -0.15 8.55 2.5 10.5 0.95 L10.55 -0.15 Q13.45 0.0 15.6 1.1 L16.55 1.65"/><path stroke="none" fill="url(#gradient7)" d="M0.05 5.2 Q0.3 6.85 2.75 8.1 L4.2 8.7 4.25 8.7 Q6.55 9.45 9.45 9.45 L13.75 8.95 Q13.3 11.45 13.15 15.95 12.95 19.85 13.1 22.4 L9.55 22.7 5.3 22.25 4.35 21.95 4.3 21.95 2.85 21.35 0.65 19.65 0.6 13.35 0.05 5.2"/><path stroke="none" fill="url(#gradient8)" d="M13.75 8.95 L16.1 8.1 Q18.3 6.95 18.75 5.45 L18.8 5.45 18.4 15.1 18.4 19.65 Q17.6 20.6 16.2 21.35 L13.85 22.2 13.1 22.4 Q12.95 19.85 13.15 15.95 13.3 11.45 13.75 8.95"/><path fill="#d8ca7c" stroke="none" d="M2.75 1.45 L2.7 1.45 2.75 1.4 2.75 1.45"/><path fill="#ac9c46" stroke="none" d="M17.35 2.3 L17.45 2.25 17.95 2.7 Q18.7 3.45 18.85 4.35 L18.85 4.7 18.85 4.95 18.8 5.4 18.75 5.45 Q18.3 6.95 16.1 8.1 L13.75 8.95 9.45 9.45 Q6.55 9.45 4.25 8.7 L4.2 8.7 2.75 8.1 Q0.3 6.85 0.05 5.2 L0.05 5.0 0.0 4.8 0.0 4.7 0.0 4.5 Q0.15 2.7 2.7 1.45 L2.75 1.45 Q0.95 2.55 0.8 3.95 L0.8 4.15 0.8 4.2 0.85 4.4 0.85 4.45 4.85 3.55 Q2.65 4.55 1.45 5.85 L3.35 7.25 4.65 7.8 4.7 7.8 Q6.85 8.5 9.5 8.5 L13.45 8.05 15.6 7.25 Q17.65 6.2 18.05 4.8 L18.1 4.75 18.15 4.35 18.15 4.15 18.15 3.8 Q18.0 3.0 17.35 2.3 M8.15 -0.15 L9.2 0.4 10.55 -0.15 10.5 0.95 Q8.55 2.5 8.15 -0.15"/><path fill="none" stroke="#000000" stroke-width="0.5" stroke-opacity="0.250980392157" d="M17.45 2.25 L16.55 1.65 M2.7 1.45 Q0.15 2.7 0.0 4.5 L0.0 4.7 0.0 4.8 0.05 5.0 0.05 5.2 M18.8 5.4 L18.85 4.95 18.85 4.7 18.85 4.35 Q18.7 3.45 17.95 2.7 L17.45 2.25 M10.55 -0.15 Q13.45 0.0 15.6 1.1 L16.55 1.65 M18.8 5.4 L18.8 5.45 18.4 15.1 18.4 19.65 M0.65 19.65 L0.6 13.35 0.05 5.2 M2.75 1.4 L2.7 1.45 M3.1 1.25 L2.75 1.4 M3.1 1.25 L3.35 1.1 Q5.4 0.05 8.15 -0.15 L9.2 0.4 10.55 -0.15"/><path fill="#927b47" stroke="none" d="M17.05 9.9 Q17.35 9.4 17.55 9.45 L17.85 10.05 Q18.05 10.75 17.85 11.4 17.6 12.4 17.2 12.7 L16.85 12.75 16.75 12.3 16.65 11.8 16.65 11.65 16.65 10.85 17.05 9.9 M1.3 13.7 Q1.3 13.5 1.65 13.4 L1.8 13.3 2.15 13.6 Q2.15 14.1 1.65 14.1 1.3 14.1 1.3 13.7 M2.95 14.75 L3.35 14.6 Q3.85 14.6 3.85 15.15 L3.6 15.65 3.1 15.9 Q2.35 15.9 2.35 15.15 2.35 14.6 2.65 14.6 L2.95 14.75 M2.65 11.55 L3.45 11.4 Q4.4 11.4 4.4 12.5 L4.05 13.2 3.2 13.5 2.6 13.25 2.2 12.8 Q2.05 11.9 2.65 11.55"/><path fill="#ac9c46" stroke="none" d="M11.6 4.0 Q11.6 3.75 12.0 3.6 L12.25 3.55 Q12.9 3.55 13.2 3.85 13.0 4.25 12.3 4.25 L11.65 4.2 11.6 4.0 M12.85 1.8 L13.05 2.1 12.3 2.3 11.95 2.2 12.0 1.95 Q12.1 1.8 12.3 1.8 L12.5 1.8 12.85 1.8 M16.8 5.2 L16.35 5.7 14.9 6.05 Q13.6 6.05 13.45 5.4 L13.45 5.3 14.15 5.0 15.6 4.65 Q16.8 4.65 16.8 5.2 M15.35 2.45 L15.75 3.0 15.5 3.35 14.65 3.55 14.05 3.4 13.6 2.9 13.65 2.85 Q13.7 2.7 14.1 2.45 L14.75 2.25 15.35 2.45 M11.95 6.35 L10.85 6.95 8.95 7.2 Q7.4 7.2 7.4 6.7 L7.85 6.2 7.9 6.15 8.55 5.65 9.75 5.5 11.35 5.9 11.95 6.35"/><path fill="#77653c" stroke="none" d="M13.85 11.95 Q14.0 11.8 14.15 11.75 L14.2 11.7 14.7 11.5 15.35 11.65 15.7 12.05 15.4 12.5 14.55 12.85 Q13.9 12.85 13.7 12.55 L13.6 12.2 13.85 11.95 M15.6 9.9 L15.8 9.9 Q16.1 9.9 16.4 10.2 L15.75 10.75 Q15.4 10.75 15.4 10.35 L15.55 9.95 15.6 9.9 M15.65 13.55 L15.7 13.5 15.75 13.5 15.85 13.55 16.0 13.6 Q16.2 13.65 16.2 13.85 L16.0 14.15 Q15.75 14.35 15.5 14.35 L15.2 14.3 15.2 13.95 15.65 13.55 M17.95 14.7 Q18.3 14.85 18.3 15.3 L17.65 16.45 Q16.95 17.05 16.3 17.05 15.3 17.05 15.3 16.1 15.3 15.65 15.75 15.25 16.35 14.75 17.25 14.65 L17.6 14.6 17.95 14.7"/></g><g id="c11"><g><use transform="matrix(1.0,0.0,0.0,1.0,0.0,0.0)" xlink:href="#c10"/></g></g><g id="c12"><path fill="#fcf3d8" stroke="none" d="M23.1 27.25 L28.65 19.0 24.0 27.85 28.5 32.45 23.4 28.65 21.7 30.55 22.6 27.7 19.85 24.85 23.1 27.25"/><path fill="#fcf3d8" fill-opacity="0.301960784314" d="M23.25 22.95 Q23.2 24.9 23.9 25.5 L24.95 26.15 Q25.7 26.9 25.75 28.0 25.7 29.05 25.05 29.8 L24.95 29.85 25.25 30.9 24.35 30.35 Q23.8 30.7 23.05 30.7 22.35 30.65 21.8 30.3 L20.0 31.55 21.2 29.85 Q20.4 29.1 20.4 27.95 20.4 26.9 21.15 26.15 21.65 25.6 22.3 25.45 23.1 24.6 23.25 22.95 M23.2 29.5 Q23.7 29.45 24.1 29.05 L24.55 28.15 Q24.55 27.6 24.1 27.2 23.7 26.8 23.15 26.8 22.65 26.8 22.25 27.2 21.85 27.55 21.85 28.1 21.85 28.65 22.3 29.05 22.6 29.45 23.2 29.5"/><path fill="#fcf3d8" stroke="none" d="M23.2 29.5 Q22.6 29.45 22.3 29.05 21.85 28.65 21.85 28.1 21.85 27.55 22.25 27.2 22.65 26.8 23.15 26.8 23.7 26.8 24.1 27.2 24.55 27.6 24.55 28.15 L24.1 29.05 Q23.7 29.45 23.2 29.5"/><path fill="#382510" fill-opacity="0.2" d="M11.75 7.85 Q11.5 6.2 13.45 4.95 15.45 3.65 18.5 3.55 21.55 3.45 23.9 4.6 26.3 5.75 26.55 7.4 26.8 9.1 24.8 10.3 22.85 11.55 19.8 11.65 16.75 11.75 14.35 10.65 12.0 9.55 11.75 7.85"/><path fill="#b19b52" stroke="none" d="M14.95 9.7 Q13.85 9.5 12.95 9.1 L11.15 8.0 11.0 7.75 Q10.0 4.65 11.05 3.8 L14.4 4.35 Q12.75 7.0 14.95 9.7"/><path fill="#7c6c38" stroke="none" d="M19.85 9.8 L18.3 9.95 14.95 9.7 Q12.75 7.0 14.4 4.35 L11.05 3.8 Q10.0 4.65 11.0 7.75 8.15 3.8 12.1 1.65 L23.05 0.5 Q28.35 2.3 25.8 6.85 25.65 7.8 24.4 8.55 25.75 5.4 24.4 4.65 L21.55 5.3 Q21.7 8.25 19.85 9.8"/><path fill="#534226" stroke="none" d="M24.4 8.55 L23.6 8.95 19.85 9.8 Q21.7 8.25 21.55 5.3 L24.4 4.65 Q25.75 5.4 24.4 8.55"/><path fill="none" stroke="#382510" stroke-width="0.5" stroke-opacity="0.301960784314" d="M19.85 9.8 L18.3 9.95 14.95 9.7 Q13.85 9.5 12.95 9.1 L11.15 8.0 11.0 7.75 Q8.15 3.8 12.1 1.65 L23.05 0.5 Q28.35 2.3 25.8 6.85 25.65 7.8 24.4 8.55 L23.6 8.95 19.85 9.8"/><path fill="#d8ca7c" stroke="none" d="M10.8 3.4 Q10.8 2.0 12.95 1.05 15.1 0.1 18.3 0.0 21.4 -0.05 23.6 0.85 25.75 1.7 25.8 3.05 25.85 4.25 24.15 5.05 L23.65 5.35 22.25 5.85 20.2 6.25 18.4 6.4 16.05 6.25 14.5 6.0 14.25 5.95 10.9 3.7 10.8 3.4"/><path fill="#e1d29d" stroke="none" d="M14.25 5.95 L13.0 5.55 Q11.1 4.75 10.9 3.7 L14.25 5.95"/><path fill="none" stroke="#382510" stroke-width="0.5" stroke-opacity="0.301960784314" d="M10.8 3.4 Q10.8 2.0 12.95 1.05 15.1 0.1 18.3 0.0 21.4 -0.05 23.6 0.85 25.75 1.7 25.8 3.05 25.85 4.25 24.15 5.05 M22.25 5.85 L20.2 6.25 M16.05 6.25 L14.5 6.0"/><path fill="#cdb65c" stroke="none" d="M12.95 3.35 Q12.95 2.4 14.45 1.7 16.0 1.05 18.2 0.95 20.4 0.95 21.95 1.6 23.45 2.15 23.45 3.1 23.5 3.9 22.3 4.55 L22.0 4.7 21.0 5.05 19.55 5.35 18.3 5.4 16.65 5.35 15.55 5.15 15.4 5.15 13.05 3.55 12.95 3.35"/><path fill="#e1d29d" stroke="none" d="M15.4 5.15 L14.5 4.9 Q13.2 4.3 13.05 3.55 L15.4 5.15"/><path fill="none" stroke="#382510" stroke-width="0.5" stroke-opacity="0.301960784314" d="M12.95 3.35 Q12.95 2.4 14.45 1.7 16.0 1.05 18.2 0.95 20.4 0.95 21.95 1.6 23.45 2.15 23.45 3.1 23.5 3.9 22.3 4.55 M21.0 5.05 L19.55 5.35 M16.65 5.35 L15.55 5.15"/><path fill="#ffffff" stroke="none" d="M4.45 25.55 L4.6 26.25 4.65 26.4 4.85 26.75 5.1 27.25 5.65 28.05 5.65 27.85 5.7 26.75 5.95 25.95 Q6.35 25.0 7.4 24.05 9.45 22.1 10.0 20.75 10.0 21.9 10.45 22.85 L10.55 23.0 12.1 25.45 Q13.75 27.2 13.85 29.65 L13.85 30.4 13.8 30.95 13.7 31.55 13.75 31.75 14.0 31.45 14.4 31.0 14.65 30.7 14.85 31.35 Q15.0 32.45 14.05 33.5 L13.15 34.25 Q11.75 35.3 10.35 35.5 L9.7 35.55 7.15 34.8 7.1 34.75 5.55 33.6 5.45 33.4 5.15 33.0 4.5 31.75 Q3.75 29.9 4.05 27.15 L4.1 26.95 4.25 26.1 4.4 25.45 4.45 25.55"/><path fill="none" stroke="#ffffff" stroke-width="2.3" d="M4.45 25.55 L4.6 26.25 4.65 26.4 4.85 26.75 5.1 27.25 5.65 28.05 5.65 27.85 5.7 26.75 5.95 25.95 Q6.35 25.0 7.4 24.05 9.45 22.1 10.0 20.75 10.0 21.9 10.45 22.85 L10.55 23.0 12.1 25.45 Q13.75 27.2 13.85 29.65 L13.85 30.4 13.8 30.95 13.7 31.55 13.75 31.75 14.0 31.45 14.4 31.0 14.65 30.7 14.85 31.35 Q15.0 32.45 14.05 33.5 L13.15 34.25 Q11.75 35.3 10.35 35.5 L9.7 35.55 7.15 34.8 7.1 34.75 5.55 33.6 5.45 33.4 5.15 33.0 4.5 31.75 Q3.75 29.9 4.05 27.15 L4.1 26.95 4.25 26.1 4.4 25.45 4.45 25.55"/></g><g id="c13"><path fill="#00ffcc" fill-opacity="0.219607843137" d="M4.75 8.5 Q5.3 7.1 6.65 5.55 9.35 2.5 10.05 0.55 10.05 2.05 10.6 3.2 11.2 4.3 12.75 6.1 15.5 8.45 15.0 12.75 L14.9 13.6 14.95 13.85 15.25 13.35 15.8 12.7 16.1 12.25 Q17.15 14.45 14.15 17.3 11.95 19.45 9.65 19.95 6.1 20.15 4.25 18.5 L4.1 18.35 3.7 17.9 Q1.75 15.55 2.3 10.55 L2.35 10.25 2.55 9.15 2.75 8.2 2.8 8.35 3.0 9.2 3.35 9.75 3.65 10.4 4.35 11.25 4.4 11.3 4.35 11.05 Q4.15 9.85 4.75 8.5"/><path fill="none" stroke="#00cccc" stroke-width="0.5" stroke-opacity="0.0" d="M16.1 12.25 L15.9 11.45 M3.7 17.9 Q3.35 17.9 3.35 17.7 L3.1 17.5 Q2.85 17.5 3.0 17.3 L3.05 17.25 2.8 17.1 2.6 16.55 M4.35 11.25 L4.3 11.0 2.8 8.35 M4.35 11.05 L4.3 11.0 Q4.1 9.85 4.75 8.5 M2.55 9.15 L2.3 10.05"/><path fill="none" stroke="#00cccc" stroke-width="0.5" d="M4.75 8.5 Q5.3 7.1 6.65 5.55 9.35 2.5 10.05 0.55 10.05 2.05 10.6 3.2 11.2 4.3 12.75 6.1 15.5 8.45 15.0 12.75 L14.9 13.6 14.95 13.85 15.25 13.35 15.8 12.7 16.1 12.25 Q17.15 14.45 14.15 17.3 11.95 19.45 9.65 19.95 6.1 20.15 4.25 18.5 L4.1 18.35 3.7 17.9 M2.8 8.35 L3.0 9.2 3.35 9.75 3.65 10.4 4.35 11.25 M2.8 8.35 L2.75 8.2 2.55 9.15 2.35 10.25 2.3 10.55 Q1.75 15.55 3.7 17.9 M2.3 10.05 L2.3 10.55 M4.75 8.5 Q4.15 9.85 4.35 11.05 L4.4 11.3 4.35 11.25"/><path fill="none" stroke="#00cccc" stroke-width="0.5" stroke-opacity="0.0" d="M6.65 19.05 L6.15 19.15 5.9 18.95 5.65 18.75 5.4 18.55 Q5.4 18.35 5.15 18.35 L4.9 18.15 4.65 17.95 Q4.4 17.95 4.5 17.7 4.6 17.45 4.35 17.45 3.35 17.45 3.1 13.25 2.9 9.45 3.35 7.5 L3.75 8.75 Q4.25 9.7 4.9 9.7 L5.15 9.75 5.15 9.65 Q5.15 8.45 9.05 4.95 12.55 1.85 12.35 0.85 L12.75 2.15 Q13.25 3.45 13.85 3.45 L14.35 4.85 Q14.85 6.25 15.1 6.25 15.4 6.25 15.4 7.55 L15.35 9.25 15.15 10.8 14.6 12.5 15.65 11.5 Q16.1 11.0 16.15 10.35 L16.4 10.3 Q16.85 13.9 14.85 16.75 12.65 19.9 8.7 19.9 L6.4 19.6 6.05 19.45 5.65 19.25 M5.15 9.75 L5.25 9.9 5.4 10.1 5.4 10.35 5.15 9.75"/></g><g id="c14"><g><use transform="matrix(1.0,0.0,0.0,1.0,0.0,0.0)" xlink:href="#c13"/></g></g><g id="c15"><g><use transform="matrix(1.0,0.0,0.0,1.0,0.0,0.0)" xlink:href="#c9"/></g><g><use transform="matrix(0.578186035156,-0.0151519775391,0.0151519775391,0.578186035156,12.6,1.95)" filter="url(#filter7)" xlink:href="#c11"/></g><g><use transform="matrix(1.0,0.0,0.0,1.0,0.0,0.0)" xlink:href="#c12"/></g><g><use transform="matrix(0.766738891602,0.162643432617,0.0,0.766738891602,2.3,18.7)" filter="url(#filter9)" xlink:href="#c14"/></g><g><use transform="matrix(0.536712646484,0.113845825195,0.0,0.536712646484,4.15,23.6)" filter="url(#filter10)" xlink:href="#c14"/></g></g><filter id="filter7"><feColorMatrix in="SourceGraphic" type="matrix" values="0.6171875 0.0 0.0 0.0 0.34765625 0.0 0.6171875 0.0 0.0 0.35546875 0.0 0.0 0.6171875 0.0 0.33984375 0.0 0.0 0.0 1.0 0.0" result="cxform"/><feComposite operator="in" in2="SourceGraphic" result="color-xform"/></filter><filter id="filter9"><feColorMatrix in="SourceGraphic" type="matrix" values="0.62890625 0.0 0.0 0.0 0.28515625 0.0 0.62890625 0.0 0.0 0.25390625 0.0 0.0 0.62890625 0.0 0.1640625 0.0 0.0 0.0 1.0 0.0" result="cxform"/><feComposite operator="in" in2="SourceGraphic" result="color-xform"/></filter><filter id="filter10"><feColorMatrix in="SourceGraphic" type="matrix" values="0.62890625 0.0 0.0 0.0 0.28515625 0.0 0.62890625 0.0 0.0 0.25390625 0.0 0.0 0.62890625 0.0 0.1640625 0.0 0.0 0.0 1.0 0.0" result="cxform"/><feComposite operator="in" in2="SourceGraphic" result="color-xform"/></filter><g id="c16"><g><use transform="matrix(1.0,0.0,0.0,1.0,0.0,0.0)" xlink:href="#c2"/></g><g><use transform="matrix(0.238861083984,-0.0867004394531,0.10026550293,0.233917236328,34.25,31.15)" xlink:href="#c4"/></g><g><use transform="matrix(0.238861083984,-0.0867004394531,0.10026550293,0.233917236328,4.25,10.3)" xlink:href="#c4"/></g><g><use transform="matrix(0.141098022461,-0.0378112792969,0.111373901367,0.225646972656,20.25,20.65)" filter="url(#filter14)" xlink:href="#c6"/></g><g><use transform="matrix(-0.155029296875,0.0513153076172,0.0841827392578,0.147033691406,22.6,2.3)" filter="url(#filter15)" xlink:href="#c8"/></g><g><use transform="matrix(-0.443298339844,0.16748046875,0.16748046875,0.443298339844,26.45,9.6)" xlink:href="#c15"/></g><g><use transform="matrix(0.162948608398,-0.0436706542969,0.128631591797,0.260604858398,20.35,20.95)" filter="url(#filter17)" xlink:href="#c6"/></g></g><filter id="filter14"><feColorMatrix in="SourceGraphic" type="matrix" values="0.0 0.0 0.0 0.0 0.796875 0.0 0.0 0.0 0.0 0.59765625 0.0 0.0 0.0 0.0 0.19921875 0.0 0.0 0.0 1.0 0.0" result="cxform"/><feComposite operator="in" in2="SourceGraphic" result="color-xform"/></filter><filter id="filter15"><feColorMatrix in="SourceGraphic" type="matrix" values="0.0 0.0 0.0 0.0 0.99609375 0.0 0.0 0.0 0.0 0.99609375 0.0 0.0 0.0 0.0 0.99609375 0.0 0.0 0.0 1.0 0.0" result="cxform"/><feComposite operator="in" in2="SourceGraphic" result="color-xform"/></filter><filter id="filter17"><feColorMatrix in="SourceGraphic" type="matrix" values="1.0 0.0 0.0 0.0 0.0 0.0 1.0 0.0 0.0 0.0 0.0 0.0 1.0 0.0 0.0 0.0 0.0 0.0 0.23046875 0.0" result="cxform"/><feComposite operator="in" in2="SourceGraphic" result="color-xform"/></filter></defs><g><g><use transform="matrix(1.0,0.0,0.0,1.0,0.0,0.0)" xlink:href="#c1"/></g><g><use transform="matrix(1.15496826172,0.0,0.0,1.15496826172,5.85,3.95)" xlink:href="#c16"/></g></g></svg>