<?xml version='1.0' encoding='UTF-8'?>
<svg xmlns:xlink="http://www.w3.org/1999/xlink" xmlns="http://www.w3.org/2000/svg" version="1.1" width="60px" height="60px" viewBox="0.0 0.0 60.0 60.0"><defs><g id="c1"><path fill="#bcb9a0" stroke="none" d="M-23.4 12.7 Q-23.5 5.15 -19.7 -0.4 L-12.9 -8.75 -12.05 -8.6 Q-8.4 -6.3 -6.15 -1.15 L-12.65 0.55 Q-12.0 1.65 -10.05 2.5 -14.4 1.95 -18.7 3.15 L-16.2 4.9 Q-21.2 6.2 -23.4 12.7 M-22.1 18.25 Q-16.65 14.5 -10.95 14.95 L-8.3 15.95 -11.8 17.05 -15.6 18.0 Q-18.65 18.55 -20.9 21.95 L-22.1 18.25"/><path fill="#e0dcbe" stroke="none" d="M-23.4 12.7 Q-21.2 6.2 -16.2 4.9 L-18.7 3.15 Q-14.4 1.95 -10.05 2.5 -12.0 1.65 -12.65 0.55 L-6.15 -1.15 Q-2.2 7.8 -2.85 12.1 -3.9 13.75 -8.3 15.95 L-10.95 14.95 Q-16.65 14.5 -22.1 18.25 L-23.4 12.8 -23.4 12.7"/><path fill="none" stroke="#000000" stroke-width="0.5" stroke-opacity="0.301960784314" d="M-12.9 -8.75 L-19.7 -0.4 Q-23.5 5.15 -23.4 12.7 L-23.4 12.8 -22.1 18.25 -20.9 21.95 Q-18.65 18.55 -15.6 18.0"/><path fill="#bcb9a0" stroke="none" d="M15.45 -26.9 Q17.45 -22.8 16.4 -21.5 18.15 -16.9 8.15 0.1 8.05 0.3 2.9 -5.45 L-2.6 -11.45 2.05 -16.3 10.9 -22.2 Q12.65 -23.9 13.9 -25.9 L13.75 -27.6 15.45 -26.9 M14.1 -23.25 L13.9 -25.9 14.1 -23.25"/><path fill="#e0dcbe" stroke="none" d="M8.15 0.1 Q18.15 -16.9 16.4 -21.5 17.45 -22.8 15.45 -26.9 21.6 -21.0 25.25 -11.4 26.65 -9.25 23.65 -1.35 14.85 -0.05 8.15 0.1"/><path fill="none" stroke="#000000" stroke-width="0.5" stroke-opacity="0.301960784314" d="M15.45 -26.9 L13.75 -27.6 13.9 -25.9 14.1 -23.25 M15.45 -26.9 Q21.6 -21.0 25.25 -11.4 26.65 -9.25 23.65 -1.35 M2.05 -16.3 L10.9 -22.2 Q12.65 -23.9 13.9 -25.9"/><path fill="none" stroke="#77adad" stroke-width="0.5" stroke-opacity="0.4" d="M-2.6 -11.45 L2.05 -16.3"/><path fill="#e0dcbe" stroke="none" d="M-5.1 -13.0 Q-1.65 -9.7 3.2 -16.95 3.7 -22.0 2.0 -27.25 1.85 -28.9 -3.0 -31.7 L3.6 -29.45 Q7.7 -26.3 8.8 -22.65 6.45 -18.65 7.35 -9.95 16.6 -14.8 22.6 -12.9 L22.85 -12.4 Q22.55 3.2 9.6 0.6 -3.4 -2.05 -3.7 -5.0 -4.15 -5.65 -4.65 -8.75 -5.15 -11.65 -5.1 -13.0"/><path fill="#ece8d7" stroke="none" d="M22.6 -12.9 Q16.6 -14.8 7.35 -9.95 6.45 -18.65 8.8 -22.65 7.7 -26.3 3.6 -29.45 7.2 -27.9 13.75 -22.5 20.9 -16.6 22.6 -12.9"/><path fill="#bcb9a0" stroke="none" d="M-3.0 -31.7 Q1.85 -28.9 2.0 -27.25 3.7 -22.0 3.2 -16.95 -1.65 -9.7 -5.1 -13.0 L-3.9 -19.4 -2.75 -25.2 Q-2.8 -27.75 -3.35 -30.1 L-4.7 -31.4 -3.0 -31.7 M-1.2 -27.75 L-3.35 -30.1 -1.2 -27.75"/><path fill="none" stroke="#000000" stroke-width="0.5" stroke-opacity="0.301960784314" d="M-3.0 -31.7 L-4.7 -31.4 -3.35 -30.1 -1.2 -27.75 M3.6 -29.45 L-3.0 -31.7 M3.6 -29.45 Q7.2 -27.9 13.75 -22.5 20.9 -16.6 22.6 -12.9 L22.85 -12.4 M-3.7 -5.0 Q-4.15 -5.65 -4.65 -8.75 -5.15 -11.65 -5.1 -13.0 L-3.9 -19.4 -2.75 -25.2 Q-2.8 -27.75 -3.35 -30.1"/><path fill="#ece8d7" stroke="none" d="M17.35 -18.55 L17.4 -18.5 17.3 -18.55 17.35 -18.55 M-6.65 -2.5 L-4.35 -4.75 Q-4.7 -5.35 -8.35 -7.15 -8.2 -7.9 -2.05 -8.3 -3.4 -11.2 -5.0 -15.85 L-3.6 -17.85 Q2.55 -14.15 3.3 -12.65 2.6 -15.6 4.5 -14.75 3.0 -17.5 -0.2 -21.85 7.65 -22.05 14.15 -19.1 18.7 -17.0 19.55 -16.25 28.4 -5.5 28.55 -0.45 28.45 3.9 26.45 8.2 24.85 11.55 23.25 13.1 L21.2 14.3 Q23.0 11.15 21.55 10.1 21.25 14.5 12.95 17.8 14.75 12.7 12.7 11.25 12.0 11.0 6.85 16.55 8.05 12.8 4.8 9.95 L-0.25 13.45 Q1.25 3.4 -6.65 -2.5"/><path fill="#aca899" stroke="none" d="M17.4 -18.5 Q22.3 -15.55 24.35 -13.2 26.3 -10.95 27.8 -7.45 28.8 -4.95 29.1 -0.1 29.4 4.75 28.6 10.35 L22.3 19.9 22.8 17.75 24.0 16.1 Q26.6 12.6 27.45 9.1 L28.05 6.15 28.5 3.15 28.55 -0.45 Q28.4 -5.5 19.55 -16.25 L17.3 -18.55 17.4 -18.5 M22.4 16.85 Q20.55 20.35 17.95 23.1 L14.45 26.15 18.0 20.35 20.35 17.5 23.25 13.1 22.4 16.85 M17.75 19.25 Q13.9 22.6 9.55 24.6 8.0 25.4 4.0 26.55 L8.5 18.45 2.5 23.7 Q-0.5 25.15 -3.45 25.9 L1.25 15.45 1.4 16.65 5.85 12.4 1.9 21.5 Q4.3 20.8 6.55 19.5 9.1 18.0 11.3 15.65 L8.0 21.85 12.3 20.3 Q16.85 18.2 20.6 14.35 L17.75 19.25 M1.2 15.1 L-3.65 19.85 -3.45 16.5 -3.2 9.15 -1.65 17.25 0.1 15.8 1.2 15.1"/><path fill="#e0dcbe" stroke="none" d="M22.8 17.75 L22.25 18.3 22.4 16.85 23.25 13.1 20.35 17.5 18.0 20.35 16.3 21.6 17.75 19.25 20.6 14.35 Q16.85 18.2 12.3 20.3 L8.0 21.85 11.3 15.65 Q9.1 18.0 6.55 19.5 4.3 20.8 1.9 21.5 L5.85 12.4 1.4 16.65 1.25 15.45 1.2 15.1 0.1 15.8 -1.65 17.25 -3.2 9.15 -3.45 16.5 Q-8.15 15.75 -8.4 2.45 -9.05 0.0 -6.65 -2.5 1.25 3.4 -0.25 13.45 L4.8 9.95 Q8.05 12.8 6.85 16.55 12.0 11.0 12.7 11.25 14.75 12.7 12.95 17.8 21.25 14.5 21.55 10.1 23.0 11.15 21.2 14.3 L23.25 13.1 Q24.85 11.55 26.45 8.2 28.45 3.9 28.55 -0.45 L28.5 3.15 28.05 6.15 27.45 9.1 Q26.6 12.6 24.0 16.1 L22.8 17.75"/><path fill="none" stroke="#382525" stroke-width="0.5" stroke-opacity="0.4" d="M17.35 -18.55 L17.4 -18.5 Q22.3 -15.55 24.35 -13.2 26.3 -10.95 27.8 -7.45 28.8 -4.95 29.1 -0.1 29.4 4.75 28.6 10.35 L22.3 19.9 22.8 17.75 M22.4 16.85 Q20.55 20.35 17.95 23.1 L14.45 26.15 18.0 20.35 M17.75 19.25 Q13.9 22.6 9.55 24.6 8.0 25.4 4.0 26.55 L8.5 18.45 2.5 23.7 Q-0.5 25.15 -3.45 25.9 L1.25 15.45 M1.2 15.1 L-3.65 19.85"/><path fill="#bcb9a0" stroke="none" d="M-6.6 -15.05 Q-16.05 -21.4 -15.95 -28.7 -3.85 -25.4 -0.95 -20.8 -1.15 -19.9 -3.85 -17.4 -6.4 -15.05 -6.6 -15.05"/><path fill="none" stroke="#000000" stroke-width="0.5" stroke-opacity="0.301960784314" d="M-0.95 -20.8 Q-3.85 -25.4 -15.95 -28.7 -16.05 -21.4 -6.6 -15.05"/><path fill="#bcb9a0" stroke="none" d="M-8.2 -7.4 L-14.25 -9.6 Q-16.0 -10.65 -16.85 -11.45 -18.7 -14.15 -19.75 -16.7 L-21.15 -17.9 -23.1 -18.5 -22.45 -18.95 Q-21.3 -19.1 -15.35 -15.45 -9.3 -11.75 -8.1 -9.9 -6.75 -7.9 -8.2 -7.4"/><path fill="#e0dcbe" stroke="none" d="M-22.45 -18.95 L-19.1 -19.85 Q-17.25 -19.45 -9.75 -15.95 -2.5 -12.6 -1.7 -12.55 -2.4 -11.8 -1.3 -12.55 L-4.65 -7.1 -8.2 -7.4 Q-6.75 -7.9 -8.1 -9.9 -9.3 -11.75 -15.35 -15.45 -21.3 -19.1 -22.45 -18.95 M-6.7 -20.0 L-6.6 -20.05 Q-5.15 -19.9 -3.0 -18.8 L-6.7 -20.0"/><path fill="#ece8d7" stroke="none" d="M-19.1 -19.85 L-14.0 -20.25 -6.7 -20.0 -3.0 -18.8 Q-1.0 -17.85 1.6 -16.1 L-1.7 -12.55 Q-2.5 -12.6 -9.75 -15.95 -17.25 -19.45 -19.1 -19.85"/><path fill="none" stroke="#000000" stroke-width="0.5" stroke-opacity="0.301960784314" d="M-8.2 -7.4 L-14.25 -9.6 Q-16.0 -10.65 -16.85 -11.45 -18.7 -14.15 -19.75 -16.7 L-21.15 -17.9 -23.1 -18.5 -22.45 -18.95 -19.1 -19.85 -14.0 -20.25 -6.7 -20.0 -6.6 -20.05"/><path fill="#e0dcbe" stroke="none" d="M-26.85 -5.9 L-24.05 -8.8 Q-18.3 -10.15 -13.85 -7.7 L-14.45 -9.8 Q-10.7 -7.75 -8.1 -4.9 -8.85 -6.45 -8.55 -7.2 L-2.95 -4.05 Q-6.25 1.8 -9.55 3.1 -11.35 3.1 -15.85 1.4 L-17.1 -0.55 Q-20.7 -4.1 -26.85 -5.9"/><path fill="#bcb9a0" stroke="none" d="M-26.85 -5.9 Q-20.7 -4.1 -17.1 -0.55 L-15.85 1.4 -18.95 -0.2 -22.25 -2.15 Q-24.75 -3.75 -28.5 -3.7 L-26.85 -5.9 M-2.95 -4.05 L-8.55 -7.2 Q-8.85 -6.45 -8.1 -4.9 -10.7 -7.75 -14.45 -9.8 L-13.85 -7.7 Q-18.3 -10.15 -24.05 -8.8 -19.1 -11.85 -12.75 -11.8 L-2.45 -11.05 -2.2 -8.4 Q-2.15 -5.45 -2.95 -4.05"/><path fill="none" stroke="#000000" stroke-width="0.5" stroke-opacity="0.301960784314" d="M-24.05 -8.8 L-26.85 -5.9 -28.5 -3.7 Q-24.75 -3.75 -22.25 -2.15 M-24.05 -8.8 Q-19.1 -11.85 -12.75 -11.8 L-2.45 -11.05"/></g><g id="c2"><g><use transform="matrix(1.0,0.0,0.0,1.0,0.0,0.0)" xlink:href="#c1"/></g></g><g id="c3"><path fill="#000000" fill-opacity="0.00392156862745" d="M0.0 0.0 L60.0 0.0 60.0 60.0 0.0 60.0 0.0 0.0"/></g><g id="c4"><path fill="#006699" stroke="none" d="M31.5 39.85 L19.8 43.65 Q17.15 44.45 15.5 43.3 14.35 42.55 13.65 40.9 L1.7 14.45 1.6 14.3 1.2 13.45 -0.75 9.05 Q-2.05 6.2 -0.3 4.75 0.3 4.25 1.2 3.9 L5.5 2.25 Q8.95 0.95 10.65 4.15 L22.3 0.4 Q26.55 -1.0 28.45 3.1 L40.55 29.95 40.9 30.7 42.95 35.15 Q43.95 37.35 43.15 38.7 42.5 39.7 40.95 40.25 L36.65 41.8 35.1 42.2 Q32.75 42.3 31.5 39.85"/><path fill="none" stroke="#000000" stroke-width="1.0" stroke-opacity="0.298039215686" d="M31.5 39.85 L19.8 43.65 Q17.15 44.45 15.5 43.3 14.35 42.55 13.65 40.9 L1.7 14.45 1.6 14.3 1.2 13.45 -0.75 9.05 Q-2.05 6.2 -0.3 4.75 0.3 4.25 1.2 3.9 L5.5 2.25 Q8.95 0.95 10.65 4.15 L22.3 0.4 Q26.55 -1.0 28.45 3.1 L40.55 29.95 40.9 30.7 42.95 35.15 Q43.95 37.35 43.15 38.7 42.5 39.7 40.95 40.25 L36.65 41.8 35.1 42.2 Q32.75 42.3 31.5 39.85"/><path fill="#300525" stroke="none" d="M0.75 8.25 L29.8 9.75 25.55 0.9 Q26.9 1.6 27.8 3.55 L40.7 32.15 Q42.6 36.3 38.3 37.65 L23.3 42.5 13.15 21.4 4.6 20.9 0.7 12.25 Q-0.45 9.75 0.75 8.25 M20.1 43.55 L19.8 43.65 Q17.15 44.45 15.5 43.3 L20.1 43.55"/><path fill="#630a4c" stroke="none" d="M25.55 0.9 L29.8 9.75 0.75 8.25 Q1.45 7.3 3.1 6.75 L21.65 0.8 25.55 0.9 M4.6 20.9 L13.15 21.4 23.3 42.5 20.1 43.55 15.5 43.3 Q14.35 42.55 13.65 40.9 L4.6 20.9"/><path fill="none" stroke="#000000" stroke-width="0.5" stroke-opacity="0.301960784314" d="M0.75 8.25 Q-0.45 9.75 0.7 12.25 L4.6 20.9 M23.3 42.5 L38.3 37.65 Q42.6 36.3 40.7 32.15 L27.8 3.55 Q26.9 1.6 25.55 0.9 L21.65 0.8 3.1 6.75 Q1.45 7.3 0.75 8.25 M20.1 43.55 L19.8 43.65 Q17.15 44.45 15.5 43.3 14.35 42.55 13.65 40.9 L4.6 20.9 M20.1 43.55 L23.3 42.5"/><path fill="#9d147b" stroke="none" d="M14.2 40.5 L1.35 11.8 Q-0.5 7.75 3.8 6.35 L22.3 0.4 Q26.55 -1.0 28.45 3.1 L41.35 31.7 Q43.25 35.85 38.9 37.25 L20.4 43.2 Q16.1 44.55 14.2 40.5"/><path fill="none" stroke="#000000" stroke-width="0.5" stroke-opacity="0.301960784314" d="M14.2 40.5 L1.35 11.8 Q-0.5 7.75 3.8 6.35 L22.3 0.4 Q26.55 -1.0 28.45 3.1 L41.35 31.7 Q43.25 35.85 38.9 37.25 L20.4 43.2 Q16.1 44.55 14.2 40.5"/><path fill="#9d147b" stroke="none" d="M31.4 39.65 L31.3 39.45 31.25 39.4 29.25 34.95 Q27.55 31.2 31.25 29.85 L35.6 28.25 Q38.8 27.1 40.5 29.85 L40.9 30.7 42.95 35.15 Q43.95 37.35 43.15 38.7 42.5 39.45 41.2 39.9 L36.9 41.45 34.85 41.85 Q32.9 41.7 31.75 39.5 L31.4 39.65"/><path fill="#630a4c" stroke="none" d="M43.15 38.7 Q42.5 39.7 40.95 40.25 L36.65 41.8 35.1 42.2 Q32.75 42.3 31.45 39.8 L31.4 39.65 31.75 39.5 Q32.9 41.7 34.85 41.85 L36.9 41.45 41.2 39.9 Q42.5 39.45 43.15 38.7"/><path fill="none" stroke="#003333" stroke-width="0.5" stroke-opacity="0.509803921569" d="M43.15 38.7 Q42.5 39.7 40.95 40.25 L36.65 41.8 35.1 42.2 Q32.75 42.3 31.45 39.8 L31.4 39.65 30.3 40.0 31.4 39.65 M40.5 29.85 L40.9 30.7 42.95 35.15 Q43.95 37.35 43.15 38.7 42.5 39.45 41.2 39.9 L36.9 41.45 34.85 41.85 Q32.9 41.7 31.75 39.5 L31.4 39.65"/><path fill="#9d147b" stroke="none" d="M10.65 4.2 L10.85 4.6 12.85 9.05 Q14.5 12.8 10.8 14.15 L6.5 15.8 Q4.5 16.6 3.1 15.8 L1.75 12.85 -0.2 8.45 Q-1.25 6.15 -0.3 4.75 0.3 4.25 1.2 3.9 L5.5 2.25 Q9.0 0.95 10.65 4.2"/><path fill="#300525" stroke="none" d="M-0.3 4.75 Q-1.25 6.15 -0.2 8.45 L1.75 12.85 3.1 15.8 Q2.25 15.35 1.6 14.3 L1.2 13.45 -0.75 9.05 Q-2.05 6.2 -0.3 4.75"/><path fill="none" stroke="#003333" stroke-width="0.5" stroke-opacity="0.509803921569" d="M3.1 15.8 L6.45 23.15 M-0.3 4.75 Q0.3 4.25 1.2 3.9 L5.5 2.25 Q9.0 0.95 10.65 4.2 M3.1 15.8 L1.75 12.85 -0.2 8.45 Q-1.25 6.15 -0.3 4.75 -2.05 6.2 -0.75 9.05 L1.2 13.45 1.6 14.3"/><path fill="#fcf2cf" stroke="none" d="M9.15 13.6 Q9.8 12.8 9.55 11.6 L9.1 10.55 22.05 6.35 Q24.9 5.45 26.25 7.85 L26.5 8.3 35.8 29.0 35.95 29.35 Q34.75 29.3 34.1 30.1 33.45 30.9 33.7 32.1 L34.0 32.9 20.65 37.2 Q18.8 37.8 17.65 37.0 16.8 36.4 16.3 35.2 L6.95 14.6 6.8 14.4 7.1 14.4 Q8.4 14.45 9.15 13.6"/><path fill="#c47fad" stroke="none" d="M9.15 13.6 Q8.4 14.45 7.1 14.4 L6.8 14.4 6.95 14.6 16.3 35.2 Q16.8 36.4 17.65 37.0 18.8 37.8 20.65 37.2 L34.0 32.9 33.7 32.1 Q33.45 30.9 34.1 30.1 34.75 29.3 35.95 29.35 L35.8 29.0 26.5 8.3 26.25 7.85 Q24.9 5.45 22.05 6.35 L9.1 10.55 9.55 11.6 Q9.8 12.8 9.15 13.6 M28.25 6.1 L35.55 22.3 39.35 30.75 Q41.1 34.5 37.2 35.7 L20.45 41.1 Q16.8 42.25 15.2 39.0 L15.0 38.6 8.25 23.65 3.35 12.8 Q1.65 9.1 5.5 7.85 L22.25 2.5 Q26.05 1.25 27.75 4.95 L28.25 6.1"/><path fill="none" stroke="#ffcc00" stroke-width="1.0" stroke-opacity="0.749019607843" d="M35.55 22.3 L39.35 30.75 Q41.1 34.5 37.2 35.7 L20.45 41.1 Q16.8 42.25 15.2 39.0 L15.0 38.6 M8.25 23.65 L3.35 12.8 Q1.65 9.1 5.5 7.85 L22.25 2.5 Q26.05 1.25 27.75 4.95 L28.25 6.1"/><path fill="none" stroke="#bf9900" stroke-width="1.0" stroke-opacity="0.749019607843" d="M28.25 6.1 L35.55 22.3 M15.0 38.6 L8.25 23.65"/><path fill="none" stroke="#f0b92b" stroke-width="0.5" d="M9.15 13.6 Q9.8 12.8 9.55 11.6 L9.1 10.55 22.05 6.35 Q24.9 5.45 26.25 7.85 L26.5 8.3 35.8 29.0 35.95 29.35 Q34.75 29.3 34.1 30.1 33.45 30.9 33.7 32.1 L34.0 32.9 20.65 37.2 Q18.8 37.8 17.65 37.0 16.8 36.4 16.3 35.2 L6.95 14.6 6.8 14.4 7.1 14.4 Q8.4 14.45 9.15 13.6"/></g><g id="c5"><path fill="#7fdbfe" stroke="none" d="M10.75 4.9 Q10.75 4.6 10.9 4.35 11.25 3.45 11.95 2.75 13.3 1.5 14.35 2.1 15.4 2.7 14.95 4.45 14.7 5.4 14.1 6.15 L13.75 6.5 Q13.1 7.15 12.35 7.35 L11.4 7.2 Q10.95 6.9 10.75 6.4 10.5 5.75 10.75 4.9 M7.5 5.9 Q7.0 5.85 6.6 5.5 6.05 5.0 5.8 4.15 L5.7 3.6 Q5.55 2.65 5.8 1.7 6.25 0.0 7.5 0.0 L7.6 0.0 Q8.85 0.0 9.3 1.7 9.55 2.65 9.4 3.6 L9.3 4.15 8.5 5.5 7.6 5.9 7.5 5.9 M4.35 4.9 Q4.6 5.75 4.35 6.4 L3.7 7.2 2.75 7.35 Q2.0 7.15 1.35 6.5 L1.0 6.15 Q0.4 5.4 0.15 4.45 -0.3 2.7 0.75 2.1 1.8 1.5 3.15 2.75 3.85 3.45 4.2 4.35 L4.35 4.9 M5.5 13.7 Q4.45 13.9 3.65 12.95 2.75 12.0 3.2 10.25 3.7 8.5 5.25 7.6 6.4 6.9 7.55 7.0 8.75 6.9 9.9 7.6 11.45 8.5 11.95 10.25 12.35 12.0 11.5 12.95 10.7 13.9 9.65 13.7 8.55 13.5 7.55 12.6 6.55 13.5 5.5 13.7"/></g><g id="c6"><g><use transform="matrix(1.0,0.0,0.0,1.0,0.0,0.0)" xlink:href="#c5"/></g></g><radialGradient gradientUnits="userSpaceOnUse" r="819.2" cx="0" cy="0" spreadMethod="pad" gradientTransform="matrix(0.0914459228516,0.0,0.0,0.0914459228516,0.6,3.4)" id="gradient1"><stop offset="0.0" stop-color="#ffffff"/><stop offset="1.0" stop-color="#ffffff" stop-opacity="0.0"/></radialGradient><g id="c7"><path stroke="none" fill="url(#gradient1)" d="M36.65 -54.65 Q60.05 -42.0 69.75 -17.95 80.55 8.9 68.0 34.1 55.45 59.35 26.8 68.2 -1.8 77.05 -29.7 64.3 -57.6 51.6 -68.45 24.75 -79.3 -2.05 -66.75 -27.25 L-66.7 -27.3 Q-54.1 -52.5 -25.5 -61.4 3.1 -70.2 31.0 -57.5 L36.65 -54.65"/></g><g id="c8"><g><use transform="matrix(1.0,0.0,0.0,1.0,0.0,0.0)" xlink:href="#c7"/></g></g><radialGradient gradientUnits="userSpaceOnUse" r="819.2" cx="0" cy="0" spreadMethod="pad" gradientTransform="matrix(0.209197998047,0.0,0.0,0.177108764648,67.15,107.2)" id="gradient2"><stop offset="0.356862745098" stop-color="#ffffff"/><stop offset="0.670588235294" stop-opacity="0.0"/></radialGradient><g id="c9"><path fill="none" stroke-linejoin="round" stroke-linecap="round" stroke="url(#gradient2)" stroke-width="0.5" d="M136.55 165.8 L68.6 106.0 68.4 106.0 118.25 201.5 M68.3 105.8 L68.35 105.8 68.3 105.8 68.3 105.85 68.4 106.0 68.3 106.0 86.55 211.5 M68.3 105.8 L68.3 105.85 68.3 106.0 68.15 105.95 18.25 151.55 M68.3 105.85 L68.25 105.85 68.3 106.0 50.0 193.2 M68.25 105.85 L68.15 105.95 0.05 97.7 M68.3 105.85 L68.25 105.8 68.25 105.85 M68.25 105.8 L68.2 105.7 0.0 45.7 M68.3 105.8 L68.25 105.75 68.25 105.8 M68.25 105.75 L68.2 105.7 18.25 10.05 M68.6 106.0 L68.35 105.8 118.25 60.15 M86.6 18.35 L68.3 105.8 M136.6 114.25 L68.6 106.0 M68.25 105.75 L49.95 0.05"/></g><g id="c10"><g><use transform="matrix(1.0,0.0,0.0,1.0,0.0,0.0)" xlink:href="#c9"/></g></g><g id="c11"><g><use transform="matrix(1.0,0.0,0.0,1.0,0.0,0.0)" xlink:href="#c4"/></g><g><use transform="matrix(0.238861083984,-0.0867004394531,0.10026550293,0.233917236328,34.25,31.15)" xlink:href="#c6"/></g><g><use transform="matrix(0.238861083984,-0.0867004394531,0.10026550293,0.233917236328,4.25,10.3)" xlink:href="#c6"/></g><g><use transform="matrix(0.141098022461,-0.0378112792969,0.111373901367,0.225646972656,20.25,20.65)" filter="url(#filter8)" xlink:href="#c8"/></g><g><use transform="matrix(-0.155029296875,0.0513153076172,0.0841827392578,0.147033691406,22.6,3.15)" filter="url(#filter9)" xlink:href="#c10"/></g></g><filter id="filter8"><feColorMatrix in="SourceGraphic" type="matrix" values="0.0 0.0 0.0 0.0 0.796875 0.0 0.0 0.0 0.0 0.59765625 0.0 0.0 0.0 0.0 0.19921875 0.0 0.0 0.0 1.0 0.0" result="cxform"/><feComposite operator="in" in2="SourceGraphic" result="color-xform"/></filter><filter id="filter9"><feColorMatrix in="SourceGraphic" type="matrix" values="0.0 0.0 0.0 0.0 0.99609375 0.0 0.0 0.0 0.0 0.99609375 0.0 0.0 0.0 0.0 0.99609375 0.0 0.0 0.0 1.0 0.0" result="cxform"/><feComposite operator="in" in2="SourceGraphic" result="color-xform"/></filter><radialGradient gradientUnits="userSpaceOnUse" r="819.2" cx="0" cy="0" spreadMethod="pad" gradientTransform="matrix(0.0171966552734,0.0,0.0,0.0171966552734,0.0,0.0)" id="gradient3"><stop offset="0.333333333333" stop-color="#0e171d"/><stop offset="1.0" stop-color="#101a24" stop-opacity="0.0"/></radialGradient><g id="c12"><path stroke="none" fill="url(#gradient3)" d="M10.4 -10.45 Q14.75 -6.1 14.75 0.0 14.75 6.1 10.4 10.4 6.1 14.75 0.0 14.75 -6.1 14.75 -10.45 10.4 -14.75 6.1 -14.75 0.0 -14.75 -6.1 -10.45 -10.45 -6.1 -14.75 0.0 -14.75 6.1 -14.75 10.4 -10.45"/></g><g id="c13"><g><use transform="matrix(1.0,0.0,0.0,1.0,0.0,0.0)" xlink:href="#c12"/></g></g><g id="c14"><path fill="#bcb9a0" stroke="none" d="M-9.4 6.5 L-4.65 -9.15 Q-2.5 -7.95 -0.65 -6.55 L2.6 -3.15 5.65 0.9 Q5.9 2.05 7.0 4.85 L8.15 7.6 7.75 7.95 Q6.95 7.5 6.45 6.4 -5.35 2.85 -1.55 10.9 -8.1 7.9 -9.4 6.5"/><path fill="#e0dcbe" stroke="none" d="M7.75 7.95 L9.35 8.8 Q4.35 11.5 0.35 11.15 L-1.55 10.9 Q-5.35 2.85 6.45 6.4 6.95 7.5 7.75 7.95"/><path fill="none" stroke="#000000" stroke-width="0.5" stroke-opacity="0.301960784314" d="M-0.65 -6.55 L2.6 -3.15 5.65 0.9 Q5.9 2.05 7.0 4.85 L8.15 7.6 7.75 7.95 9.35 8.8 Q4.35 11.5 0.35 11.15 L-1.55 10.9 Q-8.1 7.9 -9.4 6.5 M7.75 7.95 Q6.95 7.5 6.45 6.4"/><path fill="#bcb9a0" stroke="none" d="M0.9 -9.6 Q2.3 -9.85 2.75 -11.25 L5.45 -7.2 Q6.6 -4.0 5.85 -1.65 L4.05 0.6 Q2.1 2.9 0.85 3.5 -1.25 1.95 -3.4 -2.1 -5.45 -5.95 -4.95 -6.65 L-4.1 -7.65 -2.8 -8.75 -1.0 -9.25 0.9 -9.6"/><path fill="none" stroke="#000000" stroke-width="0.5" stroke-opacity="0.301960784314" d="M0.85 3.5 Q2.1 2.9 4.05 0.6 L5.85 -1.65 Q6.6 -4.0 5.45 -7.2 L2.75 -11.25 Q2.3 -9.85 0.9 -9.6"/></g><g id="c15"><g><use transform="matrix(1.0,0.0,0.0,1.0,0.0,0.0)" xlink:href="#c14"/></g></g><g id="c16"><path fill="#867c71" stroke="none" d="M-1.85 -0.75 L-3.15 0.65 -4.75 1.25 -2.95 -0.45 -1.85 -0.75"/><path fill="#a7a094" stroke="none" d="M8.8 -1.5 L5.0 -1.2 -0.25 -0.25 -3.15 0.65 -1.85 -0.75 4.55 -2.1 7.45 -2.25 8.8 -1.5"/><path fill="#4a738a" stroke="none" d="M-3.15 0.65 L-0.25 -0.25 5.0 -1.2 8.8 -1.5 10.0 3.4 Q9.35 4.3 7.55 4.7 8.05 2.3 5.6 0.0 3.7 2.25 3.95 4.3 L4.1 4.95 -0.9 5.25 -3.1 2.4 Q-3.7 1.25 -3.15 0.65"/><path fill="#000000" stroke="none" d="M3.95 4.3 Q3.7 2.25 5.6 0.0 8.05 2.3 7.55 4.7 L3.95 4.3"/><path fill="#283f4a" stroke="none" d="M-3.15 0.65 Q-3.7 1.25 -3.1 2.4 L-0.9 5.25 -4.5 4.0 -4.75 1.25 -3.15 0.65"/><path fill="none" stroke="#332720" stroke-width="0.5" stroke-opacity="0.450980392157" d="M8.8 -1.5 L7.45 -2.25 4.55 -2.1 -1.85 -0.75 -2.95 -0.45 -4.75 1.25 M10.0 3.4 L8.8 -1.5"/><path fill="none" stroke="#32251b" stroke-width="0.5" stroke-opacity="0.450980392157" d="M-3.15 0.65 L-0.25 -0.25 5.0 -1.2 8.8 -1.5 M-0.9 5.25 L4.1 4.95 3.95 4.3 Q3.7 2.25 5.6 0.0 8.05 2.3 7.55 4.7 9.35 4.3 10.0 3.4 M-4.75 1.25 L-3.15 0.65 M-0.9 5.25 L-4.5 4.0 -4.75 1.25 M3.95 4.3 L7.55 4.7"/><path fill="#bcb9a0" stroke="none" d="M-10.7 -2.75 Q-6.0 -3.8 -4.2 -2.6 -3.9 -1.75 -4.9 0.6 -9.85 -0.9 -10.7 -2.75"/><path fill="none" stroke="#000000" stroke-width="0.5" stroke-opacity="0.301960784314" d="M-10.7 -2.75 Q-6.0 -3.8 -4.2 -2.6"/><path fill="#bcb9a0" stroke="none" d="M-5.25 -1.65 L-1.85 -1.25 Q-3.2 3.1 -5.15 3.95 -6.4 -0.05 -5.25 -1.65"/><path fill="none" stroke="#000000" stroke-width="0.5" stroke-opacity="0.301960784314" d="M-5.15 3.95 Q-6.4 -0.05 -5.25 -1.65"/><path fill="#bcb9a0" stroke="none" d="M5.25 -5.35 Q9.4 -4.05 10.7 -1.1 6.35 -0.85 4.6 -2.3 4.45 -2.9 5.25 -5.35"/><path fill="none" stroke="#000000" stroke-width="0.5" stroke-opacity="0.301960784314" d="M4.6 -2.3 Q6.35 -0.85 10.7 -1.1 9.4 -4.05 5.25 -5.35"/><path fill="#bcb9a0" stroke="none" d="M2.15 -3.5 Q3.3 -1.1 1.25 1.65 -1.65 0.4 -1.2 -1.35 L2.15 -3.5"/><path fill="none" stroke="#000000" stroke-width="0.5" stroke-opacity="0.301960784314" d="M-1.2 -1.35 Q-1.65 0.4 1.25 1.65 3.3 -1.1 2.15 -3.5"/></g><g id="c17"><g><use transform="matrix(1.0,0.0,0.0,1.0,0.0,0.0)" xlink:href="#c16"/></g></g><g id="c18"><path fill="#bcb9a0" stroke="none" d="M-9.4 7.8 L-4.6 -8.35 -0.95 -6.2 2.4 -3.9 Q4.4 -2.0 5.7 0.45 L7.0 4.2 8.15 6.85 7.8 7.25 Q7.0 6.95 6.45 5.85 -5.35 3.75 -1.5 11.3 -8.1 9.05 -9.4 7.8"/><path fill="#e0dcbe" stroke="none" d="M7.8 7.25 Q8.55 7.8 9.4 7.95 4.35 11.25 0.35 11.35 L-1.5 11.3 Q-5.35 3.75 6.45 5.85 7.0 6.95 7.8 7.25"/><path fill="none" stroke="#000000" stroke-width="0.5" stroke-opacity="0.301960784314" d="M2.4 -3.9 Q4.4 -2.0 5.7 0.45 L7.0 4.2 8.15 6.85 7.8 7.25 Q8.55 7.8 9.4 7.95 4.35 11.25 0.35 11.35 L-1.5 11.3 Q-8.1 9.05 -9.4 7.8 M7.8 7.25 Q7.0 6.95 6.45 5.85"/><path fill="#bcb9a0" stroke="none" d="M-1.05 -9.0 Q-0.35 -9.15 1.0 -9.9 2.6 -10.8 2.8 -11.4 L5.5 -7.7 Q6.65 -4.6 5.9 -2.15 L5.75 -1.85 Q3.9 1.7 0.9 3.6 -3.65 0.65 -4.85 -2.0 L-5.15 -3.75 Q-5.3 -5.35 -4.9 -5.95 L-3.1 -7.45 -1.05 -9.0"/><path fill="none" stroke="#000000" stroke-width="0.5" stroke-opacity="0.301960784314" d="M0.9 3.6 Q3.9 1.7 5.75 -1.85 L5.9 -2.15 Q6.65 -4.6 5.5 -7.7 L2.8 -11.4 Q2.6 -10.8 1.0 -9.9 -0.35 -9.15 -1.05 -9.0"/></g><g id="c19"><g><use transform="matrix(1.0,0.0,0.0,1.0,0.0,0.0)" xlink:href="#c18"/></g></g><g id="c20"><path fill="#867c71" stroke="none" d="M-2.3 -0.8 L-3.6 0.75 -5.2 1.55 -3.7 -0.2 -2.3 -0.8"/><path fill="#4a738a" stroke="none" d="M-3.6 0.75 L-0.7 -0.45 Q0.95 -1.15 4.55 -2.05 L8.35 -2.8 8.65 -2.75 9.55 1.95 Q8.9 2.95 7.1 3.55 7.6 1.1 5.15 -0.9 3.25 1.55 3.5 3.6 L3.65 4.25 Q1.9 5.15 -1.35 5.1 L-3.55 2.5 Q-4.15 1.4 -3.6 0.75"/><path fill="#a7a094" stroke="none" d="M8.35 -2.8 L4.55 -2.05 Q0.95 -1.15 -0.7 -0.45 L-3.6 0.75 -2.3 -0.8 Q1.15 -2.2 4.1 -2.9 L7.0 -3.4 8.35 -2.8"/><path fill="#000000" stroke="none" d="M3.5 3.6 Q3.25 1.55 5.15 -0.9 7.6 1.1 7.1 3.55 4.3 3.5 3.5 3.6"/><path fill="#283f4a" stroke="none" d="M-3.6 0.75 Q-4.15 1.4 -3.55 2.5 L-1.35 5.1 -4.95 4.25 -5.2 1.55 -3.6 0.75"/><path fill="none" stroke="#332720" stroke-width="0.5" stroke-opacity="0.450980392157" d="M8.35 -2.8 L7.0 -3.4 4.1 -2.9 Q1.15 -2.2 -2.3 -0.8 M9.55 1.95 L8.65 -2.75 8.35 -2.8 M-5.2 1.55 L-3.7 -0.2 -2.3 -0.8"/><path fill="none" stroke="#32251b" stroke-width="0.5" stroke-opacity="0.450980392157" d="M-3.6 0.75 L-0.7 -0.45 Q0.95 -1.15 4.55 -2.05 L8.35 -2.8 M-1.35 5.1 Q1.9 5.15 3.65 4.25 L3.5 3.6 Q3.25 1.55 5.15 -0.9 7.6 1.1 7.1 3.55 8.9 2.95 9.55 1.95 M-1.35 5.1 L-4.95 4.25 -5.2 1.55 -3.6 0.75 M7.1 3.55 Q4.3 3.5 3.5 3.6"/><path fill="#bcb9a0" stroke="none" d="M-4.4 -0.85 Q-8.8 -2.25 -9.55 -5.05 -4.45 -5.15 -2.8 -3.7 -2.75 -3.35 -3.55 -2.05 L-4.4 -0.85"/><path fill="none" stroke="#000000" stroke-width="0.5" stroke-opacity="0.301960784314" d="M-2.8 -3.7 Q-4.45 -5.15 -9.55 -5.05 -8.8 -2.25 -4.4 -0.85"/><path fill="#bcb9a0" stroke="none" d="M-1.55 0.1 Q-3.8 3.1 -7.15 2.95 -6.45 -0.85 -4.5 -1.8 -3.55 -1.6 -1.55 0.05 L-1.55 0.1"/><path fill="none" stroke="#000000" stroke-width="0.5" stroke-opacity="0.301960784314" d="M-1.55 0.1 Q-3.8 3.1 -7.15 2.95 -6.45 -0.85 -4.5 -1.8"/></g><g id="c21"><g><use transform="matrix(1.0,0.0,0.0,1.0,0.0,0.0)" xlink:href="#c20"/></g></g><g id="c22"><path fill="#88806f" stroke="none" d="M18.0 13.15 L21.55 9.8 20.25 12.45 Q18.75 14.6 16.65 16.4 L13.85 17.65 16.4 15.1 18.0 13.15 M17.4 16.4 L20.55 14.9 19.1 16.75 Q16.65 19.5 13.3 21.25 9.15 22.75 5.05 23.65 L-4.15 24.9 -5.45 24.65 -6.9 24.35 Q-1.2 24.3 4.4 23.1 8.2 22.3 11.95 20.95 L15.2 18.45 17.4 16.4 M8.15 2.05 L10.75 1.3 8.5 5.0 8.15 2.05 M8.8 4.95 L15.75 0.0 Q16.05 1.8 15.75 3.85 15.05 5.85 13.6 8.05 L18.6 4.0 18.75 7.5 Q18.45 10.35 17.0 13.2 L14.0 15.9 Q15.95 12.95 16.15 9.95 L16.2 7.45 12.1 10.65 13.8 7.0 Q14.1 5.45 13.85 3.95 L7.85 8.2 9.85 4.7 8.8 4.95"/><path fill="#948a7c" stroke="none" d="M18.0 13.15 L16.4 15.1 13.85 17.65 16.65 16.4 17.65 15.95 17.4 16.4 15.2 18.45 11.95 20.95 Q8.2 22.3 4.4 23.1 L1.9 21.0 8.2 19.15 2.05 18.7 -0.95 12.45 Q2.45 9.65 4.2 5.85 -0.85 7.6 -7.2 7.1 L-4.55 2.5 Q6.1 -0.4 8.15 2.05 L8.5 5.0 8.8 4.95 9.85 4.7 7.85 8.2 13.85 3.95 Q14.1 5.45 13.8 7.0 L12.1 10.65 16.2 7.45 16.15 9.95 Q15.95 12.95 14.0 15.9 L17.0 13.2 18.5 11.9 18.0 13.15"/><path fill="#67655c" stroke="none" d="M-6.9 24.35 L-6.95 24.35 Q-7.1 23.85 -6.25 23.4 L-12.65 22.8 Q-13.1 20.85 -11.75 19.9 -12.1 19.3 -13.2 19.0 -19.2 16.95 -21.55 12.55 L-14.3 13.55 Q-15.6 12.65 -13.05 12.35 -14.75 12.3 -21.45 8.65 -15.0 8.35 -11.25 8.45 L-11.15 7.5 Q-13.1 5.1 -12.3 4.75 -9.7 6.35 -9.1 6.35 -6.7 3.1 -4.55 2.5 L-7.2 7.1 Q-0.85 7.6 4.2 5.85 2.45 9.65 -0.95 12.45 L2.05 18.7 8.2 19.15 1.9 21.0 4.4 23.1 Q-1.2 24.3 -6.9 24.35"/><path fill="none" stroke="#382525" stroke-width="0.5" stroke-opacity="0.4" d="M16.65 16.4 Q18.75 14.6 20.25 12.45 L21.55 9.8 18.0 13.15 M17.4 16.4 L20.55 14.9 19.1 16.75 Q16.65 19.5 13.3 21.25 9.15 22.75 5.05 23.65 L-4.15 24.9 M8.8 4.95 L15.75 0.0 Q16.05 1.8 15.75 3.85 15.05 5.85 13.6 8.05 L18.6 4.0 18.75 7.5 Q18.45 10.35 17.0 13.2"/></g><g id="c23"><g><use transform="matrix(1.0,0.0,0.0,1.0,0.0,0.0)" xlink:href="#c22"/></g></g><g id="c24"><path fill="#fff6d9" stroke="none" d="M9.0 -10.75 L9.1 -10.55 9.65 -9.3 8.9 -8.75 7.75 -8.6 7.1 -7.9 5.5 -8.05 4.55 -8.1 3.5 -9.5 9.0 -10.75 M12.45 -7.8 L12.55 -7.6 13.1 -6.35 11.1 -4.9 9.45 -5.7 7.8 -5.45 6.95 -6.55 12.45 -7.8 M0.6 -2.5 L0.7 -2.3 0.9 -1.9 1.0 -1.6 1.1 -1.45 1.25 -1.05 -0.8 0.4 -2.9 0.2 -3.85 0.15 -4.9 -1.25 0.6 -2.5 M1.5 -0.95 L7.0 -2.2 7.0 -2.25 6.2 -3.3 11.7 -4.55 11.8 -4.35 12.35 -3.1 10.3 -1.65 8.2 -1.85 7.25 -1.9 7.0 -2.2 7.1 -2.0 7.65 -0.75 5.6 0.7 3.5 0.5 2.55 0.45 1.5 -0.95 M-3.5 -6.25 L-3.4 -6.05 -2.95 -5.1 -2.85 -4.8 -4.9 -3.35 -7.0 -3.55 -7.95 -3.6 -9.0 -5.0 -3.5 -6.25"/><path fill="#eae2c8" stroke="none" d="M3.0 -10.2 L4.3 -11.55 6.75 -11.9 9.0 -10.8 9.0 -10.75 3.5 -9.5 3.0 -10.1 3.0 -10.2 M9.75 -8.85 L10.2 -8.95 12.45 -7.85 12.45 -7.8 6.95 -6.55 6.45 -7.15 6.45 -7.25 7.1 -7.9 7.75 -8.6 8.9 -8.75 9.75 -8.85 M-9.5 -5.6 L-9.5 -5.7 -8.2 -7.05 -6.15 -7.35 -5.75 -7.4 -3.5 -6.3 -3.5 -6.25 -9.0 -5.0 -9.5 -5.6 M5.7 -3.9 L5.7 -4.0 6.55 -4.85 7.0 -5.35 7.8 -5.45 9.45 -5.7 11.1 -4.9 11.7 -4.6 11.7 -4.55 6.2 -3.3 5.75 -3.85 5.7 -3.9 M1.35 -1.95 L1.85 -2.5 2.3 -3.0 4.75 -3.35 5.35 -3.05 5.75 -2.85 7.0 -2.25 7.0 -2.2 1.5 -0.95 1.1 -1.45 1.0 -1.6 1.0 -1.65 1.35 -1.95 M0.2 -2.75 L0.6 -2.55 0.6 -2.5 -4.9 -1.25 -5.4 -1.85 -5.4 -1.95 -4.1 -3.3 -3.0 -3.45 -2.1 -3.55 -1.65 -3.65 0.2 -2.75"/><path fill="#d3cc92" stroke="none" d="M9.65 -9.3 L9.8 -9.1 9.75 -8.85 8.9 -8.75 9.65 -9.3 M13.1 -6.35 L13.25 -6.15 12.4 -3.0 12.4 -2.5 11.4 1.15 10.55 2.15 7.95 2.2 7.7 -0.2 7.8 -0.55 7.65 -0.75 7.8 -0.55 7.7 -0.2 7.15 1.85 6.7 3.5 5.85 4.5 3.25 4.55 3.5 0.5 5.6 0.7 7.65 -0.75 8.2 -1.85 10.3 -1.65 12.35 -3.1 11.8 -4.35 11.7 -4.55 11.7 -4.6 11.1 -4.9 13.1 -6.35 M-6.6 0.7 L-6.65 0.7 -7.25 0.5 -7.0 -3.55 -4.9 -3.35 -2.85 -4.8 -2.7 -4.6 -2.75 -4.3 -3.0 -3.45 -4.1 -3.3 -5.4 -1.95 -5.4 -1.85 -5.3 0.55 -6.6 0.7 M7.1 -7.9 L6.45 -7.25 6.45 -7.15 6.55 -4.85 5.7 -4.0 5.7 -3.9 5.7 -3.85 5.25 -4.0 5.5 -8.05 7.1 -7.9 M1.25 -1.05 L1.4 -0.85 1.05 0.45 0.3 3.2 -0.55 4.2 -3.15 4.25 -2.9 0.2 -0.8 0.4 1.25 -1.05 M12.35 -3.1 L12.4 -3.0 12.35 -3.1"/><path fill="#98985f" stroke="none" d="M-7.25 0.5 L-8.6 -0.15 -9.4 -2.15 -9.5 -5.6 -9.0 -5.0 -7.95 -3.6 -7.0 -3.55 -7.25 0.5 M3.0 -10.1 L3.5 -9.5 4.55 -8.1 5.5 -8.05 5.25 -4.0 3.9 -4.65 3.1 -6.65 3.1 -7.45 3.0 -10.1 M5.7 -3.85 L5.7 -3.9 5.75 -3.85 6.2 -3.3 7.0 -2.25 5.75 -2.85 5.7 -3.8 5.7 -3.85 M6.55 -4.85 L6.45 -7.15 6.95 -6.55 7.8 -5.45 7.0 -5.35 6.55 -4.85 M1.1 -1.45 L1.5 -0.95 2.55 0.45 3.5 0.5 3.25 4.55 1.9 3.9 1.1 1.9 1.05 0.45 1.4 -0.85 1.25 -1.05 1.1 -1.45 M7.1 -2.0 L7.0 -2.2 7.25 -1.9 8.2 -1.85 7.65 -0.75 7.1 -2.0 M7.7 -0.2 L7.95 2.2 7.15 1.85 7.7 -0.2 M-3.15 4.25 L-4.5 3.6 -5.3 1.6 -5.3 0.55 -5.4 -1.85 -4.9 -1.25 -3.85 0.15 -2.9 0.2 -3.15 4.25"/><path fill="#6f2609" stroke="none" d="M-6.15 -7.35 L-4.55 -9.35 Q-3.0 -10.6 1.3 -10.75 L3.0 -10.2 3.0 -10.1 3.1 -7.45 Q-0.25 -8.0 -2.9 -5.8 L-2.95 -5.1 -3.4 -6.05 -3.5 -6.25 -3.5 -6.3 -5.75 -7.4 -6.15 -7.35 M1.85 -2.5 L1.35 -1.95 0.9 -1.9 0.7 -2.3 0.6 -2.5 0.6 -2.55 0.2 -2.75 1.85 -2.5 M-3.0 -3.45 L-2.75 -4.3 -2.1 -3.55 -3.0 -3.45"/><path fill="#a53a0e" stroke="none" d="M5.25 -4.0 L5.7 -3.85 5.7 -3.8 5.35 -3.05 4.75 -3.35 2.3 -3.0 1.85 -2.5 0.2 -2.75 -1.65 -3.65 -2.1 -3.55 -2.75 -4.3 -2.7 -4.6 -2.85 -4.8 -2.95 -5.1 -2.9 -5.8 Q-0.25 -8.0 3.1 -7.45 L3.1 -6.65 3.9 -4.65 5.25 -4.0"/><path fill="#561f07" stroke="none" d="M-6.0 1.75 L-6.6 0.7 -5.3 0.55 -5.3 1.6 -6.0 1.75 M0.9 -1.9 L1.35 -1.95 1.0 -1.65 1.0 -1.6 0.9 -1.9 M5.75 -2.85 L5.35 -3.05 5.7 -3.8 5.75 -2.85"/><path fill="#862f0b" stroke="none" d="M12.4 -2.5 L12.75 -2.1 13.5 -0.75 Q12.05 0.0 12.8 2.3 10.65 1.85 8.2 5.7 6.75 3.5 2.0 6.65 0.15 5.05 -3.9 5.25 -13.85 -2.75 -6.0 1.75 L-5.3 1.6 -4.5 3.6 -3.15 4.25 -0.55 4.2 0.3 3.2 1.05 0.45 1.1 1.9 1.9 3.9 3.25 4.55 5.85 4.5 6.7 3.5 7.15 1.85 7.95 2.2 10.55 2.15 11.4 1.15 12.4 -2.5"/><path fill="none" stroke="#786b43" stroke-width="0.5" stroke-opacity="0.501960784314" d="M3.0 -10.2 L4.3 -11.55 6.75 -11.9 9.0 -10.8 9.0 -10.75 M9.1 -10.55 L9.65 -9.3 9.8 -9.1 9.75 -8.85 10.2 -8.95 12.45 -7.85 12.45 -7.8 M12.55 -7.6 L13.1 -6.35 13.25 -6.15 12.4 -3.0 12.4 -2.5 12.75 -2.1 13.5 -0.75 Q12.05 0.0 12.8 2.3 10.65 1.85 8.2 5.7 6.75 3.5 2.0 6.65 0.15 5.05 -3.9 5.25 -13.85 -2.75 -6.0 1.75 L-6.6 0.7 -6.65 0.7 -7.25 0.5 -8.6 -0.15 -9.4 -2.15 -9.5 -5.6 -9.5 -5.7 -8.2 -7.05 -6.15 -7.35 -4.55 -9.35 Q-3.0 -10.6 1.3 -10.75 L3.0 -10.2 3.0 -10.1 3.1 -7.45 3.1 -6.65 3.9 -4.65 5.25 -4.0 5.7 -3.85 5.7 -3.9 5.7 -4.0 6.55 -4.85 6.45 -7.15 6.45 -7.25 7.1 -7.9 7.75 -8.6 8.9 -8.75 9.75 -8.85 M1.35 -1.95 L1.85 -2.5 M0.2 -2.75 L0.6 -2.55 0.6 -2.5 M0.7 -2.3 L0.9 -1.9 1.35 -1.95 1.0 -1.65 1.0 -1.6 1.1 -1.45 1.25 -1.05 1.4 -0.85 1.05 0.45 1.1 1.9 1.9 3.9 3.25 4.55 5.85 4.5 6.7 3.5 7.15 1.85 7.7 -0.2 M7.0 -2.2 L7.0 -2.25 5.75 -2.85 5.35 -3.05 4.75 -3.35 2.3 -3.0 1.85 -2.5 M0.9 -1.9 L1.0 -1.6 M11.1 -4.9 L9.45 -5.7 7.8 -5.45 7.0 -5.35 6.55 -4.85 M5.7 -3.8 L5.7 -3.85 M11.7 -4.55 L11.7 -4.6 11.1 -4.9 M7.1 -2.0 L7.65 -0.75 7.8 -0.55 7.7 -0.2 M12.35 -3.1 L11.8 -4.35 M7.95 2.2 L10.55 2.15 11.4 1.15 12.4 -2.5 M5.75 -2.85 L5.7 -3.8 5.35 -3.05 M12.4 -3.0 L12.35 -3.1 M7.15 1.85 L7.95 2.2 M1.05 0.45 L0.3 3.2 -0.55 4.2 -3.15 4.25 -4.5 3.6 -5.3 1.6 -5.3 0.55 -5.4 -1.85 M-6.15 -7.35 L-5.75 -7.4 -3.5 -6.3 -3.5 -6.25 M-3.4 -6.05 L-2.95 -5.1 -2.85 -4.8 M-3.0 -3.45 L-4.1 -3.3 -5.4 -1.95 -5.4 -1.85 M-2.1 -3.55 L-1.65 -3.65 0.2 -2.75 M-2.75 -4.3 L-3.0 -3.45 -2.1 -3.55 M-2.75 -4.3 L-2.7 -4.6 -2.85 -4.8 M-5.3 0.55 L-6.6 0.7"/></g><g id="c25"><g><use transform="matrix(0.866821289062,0.0,0.0,1.00811767578,0.0,-12.55)" filter="url(#filter16)" xlink:href="#c23"/></g><g><use transform="matrix(1.0,0.0,0.0,1.0,0.0,0.0)" xlink:href="#c24"/></g></g><filter id="filter16"><feColorMatrix in="SourceGraphic" type="matrix" values="0.69921875 0.0 0.0 0.0 0.0 0.0 0.69921875 0.0 0.0 0.0 0.0 0.0 0.69921875 0.0 0.0 0.0 0.0 0.0 1.0 0.0" result="cxform"/><feComposite operator="in" in2="SourceGraphic" result="color-xform"/></filter><g id="c26"><path fill="#bcb9a0" stroke="none" d="M-9.4 6.55 L-4.65 -9.1 -0.95 -6.5 2.4 -3.8 Q4.4 -1.65 5.65 0.95 6.2 3.55 6.9 5.3 L7.6 6.7 8.15 7.65 7.75 8.0 Q6.95 7.55 6.45 6.45 -5.35 2.9 -1.55 10.95 -8.1 7.95 -9.4 6.55"/><path fill="#e0dcbe" stroke="none" d="M7.75 8.0 L9.35 8.85 Q4.35 11.55 0.35 11.2 L-1.55 10.95 Q-5.35 2.9 6.45 6.45 6.95 7.55 7.75 8.0"/><path fill="none" stroke="#000000" stroke-width="0.5" stroke-opacity="0.301960784314" d="M2.4 -3.8 Q4.4 -1.65 5.65 0.95 6.2 3.55 6.9 5.3 L7.6 6.7 8.15 7.65 7.75 8.0 9.35 8.85 Q4.35 11.55 0.35 11.2 L-1.55 10.95 Q-8.1 7.95 -9.4 6.55 M7.75 8.0 Q6.95 7.55 6.45 6.45"/><path fill="#bcb9a0" stroke="none" d="M0.9 -9.55 Q2.3 -9.8 2.75 -11.2 L5.1 -7.9 5.75 -5.2 Q6.2 -2.65 5.85 -1.6 L4.05 0.65 Q2.1 2.95 0.85 3.55 -1.1 2.1 -3.3 -0.8 L-5.3 -3.8 Q-5.75 -5.4 -4.95 -6.6 L-4.1 -7.6 -2.8 -8.7 -1.0 -9.2 0.9 -9.55"/><path fill="none" stroke="#000000" stroke-width="0.5" stroke-opacity="0.301960784314" d="M0.9 -9.55 Q2.3 -9.8 2.75 -11.2 L5.1 -7.9 5.75 -5.2 Q6.2 -2.65 5.85 -1.6 L4.05 0.65 Q2.1 2.95 0.85 3.55"/></g><g id="c27"><g><use transform="matrix(1.0,0.0,0.0,1.0,0.0,0.0)" xlink:href="#c26"/></g></g><g id="c28"><path fill="#a7a094" stroke="none" d="M-1.85 -0.75 L4.55 -2.1 7.45 -2.25 8.8 -1.5 7.0 -1.6 5.35 -1.55 Q3.5 -1.4 -0.25 -0.25 L-3.15 0.65 -1.85 -0.75"/><path fill="#4a738a" stroke="none" d="M-3.15 0.65 L-0.25 -0.25 Q3.5 -1.4 5.35 -1.55 L7.0 -1.6 8.8 -1.5 10.0 3.4 Q9.35 4.3 7.55 4.7 8.05 2.3 5.6 0.0 3.7 2.25 3.95 4.3 L4.1 4.95 -0.9 5.25 -3.1 2.4 Q-3.7 1.25 -3.15 0.65"/><path fill="#000000" stroke="none" d="M7.55 4.7 L3.95 4.3 Q3.7 2.25 5.6 0.0 8.05 2.3 7.55 4.7"/><path fill="#867c71" stroke="none" d="M-1.85 -0.75 L-3.15 0.65 -4.75 1.25 -3.25 -0.3 -1.85 -0.75"/><path fill="#283f4a" stroke="none" d="M-0.9 5.25 L-4.5 4.0 -4.75 1.25 -3.15 0.65 Q-3.7 1.25 -3.1 2.4 L-0.9 5.25"/><path fill="none" stroke="#32251b" stroke-width="0.5" stroke-opacity="0.450980392157" d="M-3.15 0.65 L-0.25 -0.25 Q3.5 -1.4 5.35 -1.55 L7.0 -1.6 8.8 -1.5 M10.0 3.4 Q9.35 4.3 7.55 4.7 L3.95 4.3 4.1 4.95 -0.9 5.25 -4.5 4.0 -4.75 1.25 -3.15 0.65 M3.95 4.3 Q3.7 2.25 5.6 0.0 8.05 2.3 7.55 4.7"/><path fill="none" stroke="#332720" stroke-width="0.5" stroke-opacity="0.450980392157" d="M8.8 -1.5 L7.45 -2.25 4.55 -2.1 -1.85 -0.75 M8.8 -1.5 L10.0 3.4 M-4.75 1.25 L-3.25 -0.3 -1.85 -0.75"/><path fill="#bcb9a0" stroke="none" d="M-5.0 0.65 Q-9.4 0.05 -10.7 -2.75 -6.0 -3.8 -4.2 -2.6 -4.05 -2.25 -4.5 -0.8 L-5.0 0.65"/><path fill="none" stroke="#000000" stroke-width="0.5" stroke-opacity="0.301960784314" d="M-4.2 -2.6 Q-6.0 -3.8 -10.7 -2.75 -9.4 0.05 -5.0 0.65"/><path fill="#bcb9a0" stroke="none" d="M-5.25 -1.65 L-1.85 -1.25 Q-3.2 3.1 -5.15 3.95 -6.4 -0.05 -5.25 -1.65"/><path fill="none" stroke="#000000" stroke-width="0.5" stroke-opacity="0.301960784314" d="M-5.15 3.95 Q-6.4 -0.05 -5.25 -1.65"/><path fill="#bcb9a0" stroke="none" d="M5.25 -5.35 Q9.4 -4.05 10.7 -1.1 6.35 -0.85 4.6 -2.3 4.4 -3.2 5.2 -5.3 L5.25 -5.35"/><path fill="none" stroke="#000000" stroke-width="0.5" stroke-opacity="0.301960784314" d="M5.25 -5.35 Q9.4 -4.05 10.7 -1.1 6.35 -0.85 4.6 -2.3"/><path fill="#bcb9a0" stroke="none" d="M2.15 -3.5 Q3.3 -1.1 1.25 1.65 -1.65 0.4 -1.2 -1.35 L2.15 -3.5"/><path fill="none" stroke="#000000" stroke-width="0.5" stroke-opacity="0.301960784314" d="M-1.2 -1.35 Q-1.65 0.4 1.25 1.65 3.3 -1.1 2.15 -3.5"/></g><g id="c29"><g><use transform="matrix(1.0,0.0,0.0,1.0,0.0,0.0)" xlink:href="#c28"/></g></g><g id="c30"><path fill="#4a738a" stroke="none" d="M-3.9 1.05 L-1.0 -0.15 Q2.75 -1.75 4.6 -2.15 L6.25 -2.35 8.05 -2.5 8.35 -2.45 9.25 2.25 Q8.6 3.25 6.8 3.85 7.3 1.4 4.85 -0.6 2.95 1.85 3.2 3.9 L3.35 4.55 Q1.6 5.45 -1.65 5.4 L-3.85 2.8 Q-4.45 1.7 -3.9 1.05"/><path fill="#a7a094" stroke="none" d="M8.05 -2.5 L6.25 -2.35 4.6 -2.15 Q2.75 -1.75 -1.0 -0.15 L-3.9 1.05 -2.6 -0.5 Q0.85 -1.9 3.8 -2.6 L6.7 -3.1 8.05 -2.5"/><path fill="#000000" stroke="none" d="M3.2 3.9 Q2.95 1.85 4.85 -0.6 7.3 1.4 6.8 3.85 4.0 3.8 3.2 3.9"/><path fill="#283f4a" stroke="none" d="M-3.9 1.05 Q-4.45 1.7 -3.85 2.8 L-1.65 5.4 -5.25 4.55 -5.5 1.85 -3.9 1.05"/><path fill="#867c71" stroke="none" d="M-2.6 -0.5 L-3.9 1.05 -5.5 1.85 -4.0 0.1 -2.6 -0.5"/><path fill="none" stroke="#332720" stroke-width="0.5" stroke-opacity="0.450980392157" d="M8.05 -2.5 L6.7 -3.1 3.8 -2.6 Q0.85 -1.9 -2.6 -0.5 M9.25 2.25 L8.35 -2.45 8.05 -2.5 M-5.5 1.85 L-4.0 0.1 -2.6 -0.5"/><path fill="none" stroke="#32251b" stroke-width="0.5" stroke-opacity="0.450980392157" d="M-3.9 1.05 L-1.0 -0.15 Q2.75 -1.75 4.6 -2.15 L6.25 -2.35 8.05 -2.5 M-1.65 5.4 Q1.6 5.45 3.35 4.55 L3.2 3.9 Q2.95 1.85 4.85 -0.6 7.3 1.4 6.8 3.85 8.6 3.25 9.25 2.25 M6.8 3.85 Q4.0 3.8 3.2 3.9 M-1.65 5.4 L-5.25 4.55 -5.5 1.85 -3.9 1.05"/><path fill="#bcb9a0" stroke="none" d="M-4.15 -1.2 Q-8.55 -2.6 -9.3 -5.4 -4.2 -5.5 -2.55 -4.05 -2.5 -3.7 -3.3 -2.4 L-4.15 -1.2"/><path fill="none" stroke="#000000" stroke-width="0.5" stroke-opacity="0.301960784314" d="M-2.55 -4.05 Q-4.2 -5.5 -9.3 -5.4 -8.55 -2.6 -4.15 -1.2"/><path fill="#bcb9a0" stroke="none" d="M-4.25 -2.1 Q-3.3 -1.9 -1.3 -0.25 L-1.3 -0.2 Q-3.55 2.8 -6.9 2.65 -6.2 -1.15 -4.25 -2.1"/><path fill="none" stroke="#000000" stroke-width="0.5" stroke-opacity="0.301960784314" d="M-1.3 -0.2 Q-3.55 2.8 -6.9 2.65 -6.2 -1.15 -4.25 -2.1"/></g><g id="c31"><g><use transform="matrix(1.0,0.0,0.0,1.0,0.0,0.0)" xlink:href="#c30"/></g></g><g id="c32"><path fill="#bcb9a0" stroke="none" d="M-9.4 7.8 L-4.6 -8.35 Q-3.4 -7.8 0.75 -4.3 5.1 -0.7 5.7 0.45 L6.8 3.9 Q7.55 6.1 7.85 6.45 L8.15 6.85 7.8 7.25 Q7.0 6.95 6.45 5.85 -5.35 3.75 -1.5 11.3 -8.1 9.05 -9.4 7.8"/><path fill="#e0dcbe" stroke="none" d="M7.8 7.25 Q8.55 7.8 9.4 7.95 4.35 11.25 0.35 11.35 L-1.5 11.3 Q-5.35 3.75 6.45 5.85 7.0 6.95 7.8 7.25"/><path fill="none" stroke="#000000" stroke-width="0.5" stroke-opacity="0.301960784314" d="M5.7 0.45 L6.8 3.9 Q7.55 6.1 7.85 6.45 L8.15 6.85 7.8 7.25 Q8.55 7.8 9.4 7.95 4.35 11.25 0.35 11.35 L-1.5 11.3 Q-8.1 9.05 -9.4 7.8 M7.8 7.25 Q7.0 6.95 6.45 5.85"/><path fill="#bcb9a0" stroke="none" d="M0.95 -9.5 Q2.35 -9.9 2.8 -11.35 L5.5 -7.65 Q6.65 -4.55 5.9 -2.1 L4.1 0.35 Q2.15 2.9 0.9 3.65 -3.65 0.7 -4.85 -1.95 L-5.25 -3.05 Q-5.7 -4.55 -4.9 -5.9 L-4.05 -6.95 -2.75 -8.15 -0.95 -8.9 0.95 -9.5"/><path fill="none" stroke="#000000" stroke-width="0.5" stroke-opacity="0.301960784314" d="M0.9 3.65 Q2.15 2.9 4.1 0.35 L5.9 -2.1 Q6.65 -4.55 5.5 -7.65 L2.8 -11.35 Q2.35 -9.9 0.95 -9.5"/><path fill="#bcb9a0" stroke="none" d="M2.25 -4.6 Q2.2 3.4 -4.3 7.75 -8.55 0.35 -6.2 -3.65 -4.8 -4.4 2.25 -4.6"/><path fill="none" stroke="#000000" stroke-width="0.5" stroke-opacity="0.301960784314" d="M-6.2 -3.65 Q-8.55 0.35 -4.3 7.75 2.2 3.4 2.25 -4.6"/></g><g id="c33"><g><use transform="matrix(1.0,0.0,0.0,1.0,0.0,0.0)" xlink:href="#c32"/></g></g><g id="c34"><path fill="#aca899" stroke="none" d="M22.5 6.55 L21.75 1.55 Q21.45 5.5 20.1 9.3 L18.45 13.1 19.9 4.2 Q18.55 8.0 11.3 18.55 L12.2 11.1 Q11.05 14.55 9.45 17.45 7.8 20.0 5.95 22.0 L6.45 11.85 4.0 18.3 2.95 16.85 1.5 20.55 -2.6 14.7 0.65 24.5 Q-0.6 23.65 -3.95 20.2 L-8.4 15.15 -5.5 22.25 -9.8 18.95 Q-14.3 15.05 -17.7 9.95 L-13.95 18.3 -16.55 14.95 Q-18.85 11.45 -20.25 7.65 L-19.6 12.7 -22.0 8.0 Q-24.0 3.7 -24.25 2.1 -22.3 -16.15 -4.8 -23.2 L-2.05 -24.3 Q18.65 -26.55 24.15 -4.75 24.5 -1.05 23.3 3.65 L22.5 6.55"/><path fill="none" stroke="#382525" stroke-width="0.5" stroke-opacity="0.4" d="M22.5 6.55 L23.3 3.65 Q24.5 -1.05 24.15 -4.75 18.65 -26.55 -2.05 -24.3 L-4.8 -23.2 Q-22.3 -16.15 -24.25 2.1 -24.0 3.7 -22.0 8.0 L-19.6 12.7 -20.25 7.65 Q-18.85 11.45 -16.55 14.95 L-13.95 18.3 -17.7 9.95 Q-14.3 15.05 -9.8 18.95 L-5.5 22.25 -8.4 15.15 -3.95 20.2 Q-0.6 23.65 0.65 24.5 L-2.6 14.7 1.5 20.55 2.95 16.85 4.0 18.3 6.45 11.85 5.95 22.0 Q7.8 20.0 9.45 17.45 11.05 14.55 12.2 11.1 L11.3 18.55 Q18.55 8.0 19.9 4.2 L18.45 13.1 20.1 9.3 Q21.45 5.5 21.75 1.55 L22.5 6.55"/></g><g id="c35"><g><use transform="matrix(1.0,0.0,0.0,1.0,0.0,0.0)" xlink:href="#c34"/></g></g><g id="c36"><path fill="#4a738a" stroke="none" d="M-1.35 8.95 Q1.85 10.05 4.05 8.6 4.55 8.25 4.95 4.55 5.3 1.45 7.0 2.15 4.75 -2.45 0.55 -1.55 4.35 -3.85 6.1 -1.6 7.8 0.5 8.05 1.9 L8.1 3.05 Q8.05 4.05 6.7 6.7 5.25 9.55 4.3 10.05 2.25 11.1 0.1 11.15 -1.95 11.05 -1.35 8.95"/><path fill="#283f4a" stroke="none" d="M8.05 1.9 Q7.8 0.5 6.1 -1.6 4.35 -3.85 0.55 -1.55 4.75 -2.45 7.0 2.15 5.3 1.45 4.95 4.55 4.55 8.25 4.05 8.6 1.85 10.05 -1.35 8.95 -0.2 7.0 0.6 4.4 -0.5 3.7 -1.5 3.4 L-4.45 3.35 Q-7.2 4.55 -8.2 -0.3 L-7.4 -2.35 Q-3.6 -7.9 5.4 -3.2 7.7 -0.7 8.05 1.9 M0.75 0.25 Q1.25 3.25 0.6 4.4 1.25 3.25 0.75 0.25"/><path fill="none" stroke="#000000" stroke-width="0.5" stroke-opacity="0.301960784314" d="M-1.35 8.95 Q-1.95 11.05 0.1 11.15 2.25 11.1 4.3 10.05 5.25 9.55 6.7 6.7 8.05 4.05 8.1 3.05 L8.05 1.9 Q7.7 -0.7 5.4 -3.2 -3.6 -7.9 -7.4 -2.35 M-4.45 3.35 L-1.5 3.4 Q-0.5 3.7 0.6 4.4 1.25 3.25 0.75 0.25 M0.6 4.4 Q-0.2 7.0 -1.35 8.95"/><path fill="#4a738a" stroke="none" d="M15.5 8.8 Q14.5 10.5 11.2 12.0 7.9 13.5 4.4 7.7 10.1 8.55 9.5 -7.35 7.95 -6.3 7.3 -7.0 7.6 -10.15 10.2 -8.8 12.85 -7.05 14.85 -4.15 16.8 -1.25 16.65 2.65 L16.65 2.7 Q16.8 5.4 16.05 7.55 L15.5 8.8"/><path fill="#283f4a" stroke="none" d="M7.3 -7.0 Q7.95 -6.3 9.5 -7.35 10.1 8.55 4.4 7.7 7.9 13.5 11.2 12.0 14.5 10.5 15.5 8.8 13.75 12.05 9.5 13.55 -4.0 12.7 -5.95 2.75 L-5.9 -0.45 Q-2.15 -5.8 0.7 -2.25 1.6 -0.75 4.3 -0.15 L7.45 0.3 Q7.8 -3.65 7.3 -7.0 M5.5 5.65 Q7.65 2.15 7.45 0.3 7.65 2.15 5.5 5.65"/><path fill="none" stroke="#000000" stroke-width="0.5" stroke-opacity="0.301960784314" d="M7.3 -7.0 Q7.8 -3.65 7.45 0.3 7.65 2.15 5.5 5.65 M0.7 -2.25 Q1.6 -0.75 4.3 -0.15 L7.45 0.3 M7.3 -7.0 Q7.6 -10.15 10.2 -8.8 12.85 -7.05 14.85 -4.15 16.8 -1.25 16.65 2.65 L16.65 2.7 Q16.8 5.4 16.05 7.55 L15.5 8.8 Q13.75 12.05 9.5 13.55 -4.0 12.7 -5.95 2.75"/><path fill="none" stroke="#ffffff" stroke-width="0.5" stroke-opacity="0.301960784314" d="M12.5 -6.4 Q15.85 0.5 14.8 5.05"/><path fill="#ede9d7" stroke="none" d="M1.95 -6.8 L2.25 -6.2 Q4.05 -2.0 2.95 2.0 2.9 -2.25 0.45 -5.5 L-0.55 -6.65 Q-0.95 -4.7 -2.2 -4.5 -3.75 -6.5 -3.35 -9.0 -5.3 -9.2 -5.9 -7.85 -7.3 -9.45 -6.8 -11.35 -5.9 -12.1 -4.6 -12.7 0.4 -9.85 1.95 -6.8"/><path fill="#e0dcbe" stroke="none" d="M-6.8 -11.35 Q-7.3 -9.45 -5.9 -7.85 -5.3 -9.2 -3.35 -9.0 -3.75 -6.5 -2.2 -4.5 -0.95 -4.7 -0.55 -6.65 L0.45 -5.5 Q2.9 -2.25 2.95 2.0 L2.15 1.4 Q0.6 -0.75 -0.05 -3.15 -0.65 -2.15 -1.45 -1.5 L-2.6 -2.75 -3.3 -3.8 Q-3.55 -3.55 -4.7 -3.25 L-6.5 -3.05 -6.25 -5.15 -5.8 -7.15 -7.4 -6.65 -8.8 -8.55 Q-8.3 -10.1 -6.8 -11.35"/><path fill="#bcb9a0" stroke="none" d="M2.15 1.4 L0.35 -0.5 -0.15 -1.35 Q-0.4 0.5 -1.3 2.0 L-1.55 2.35 -2.5 3.55 -4.85 5.4 -6.0 3.65 Q-4.15 2.25 -2.7 -1.3 -4.7 1.0 -6.85 1.9 -9.25 2.95 -11.9 2.5 -11.1 -0.2 -10.2 -2.0 L-8.8 -4.05 -6.8 -5.55 Q-8.0 -5.7 -9.0 -5.05 -9.4 -6.95 -8.8 -8.55 L-7.4 -6.65 -5.8 -7.15 -6.25 -5.15 -6.5 -3.05 -4.7 -3.25 Q-3.55 -3.55 -3.3 -3.8 L-2.6 -2.75 -1.45 -1.5 Q-0.65 -2.15 -0.05 -3.15 0.6 -0.75 2.15 1.4"/><path fill="#aca899" stroke="none" d="M-4.6 -12.7 Q-5.9 -12.1 -6.8 -11.35 -8.3 -10.1 -8.8 -8.55 -9.4 -6.95 -9.0 -5.05 -8.0 -5.7 -6.8 -5.55 L-8.8 -4.05 -10.2 -2.0 -12.7 -4.85 -10.85 -1.35 -12.4 -3.1 -14.3 -6.35 -14.45 -4.75 -15.65 -6.85 Q-16.65 -8.75 -16.65 -9.2 -13.1 -13.8 -6.2 -13.5 L-4.6 -12.7 M0.35 -0.5 Q0.05 1.55 0.5 4.2 L-1.3 2.0 Q-0.4 0.5 -0.15 -1.35 L0.35 -0.5 M-1.55 2.35 L-0.65 5.0 -2.5 3.55 -1.55 2.35 M-6.0 3.65 L-6.85 1.9 Q-4.7 1.0 -2.7 -1.3 -4.15 2.25 -6.0 3.65"/><path fill="none" stroke="#000000" stroke-width="0.5" stroke-opacity="0.301960784314" d="M2.95 2.0 Q4.05 -2.0 2.25 -6.2 L1.95 -6.8 M2.15 1.4 L0.35 -0.5 M-1.3 2.0 L-1.55 2.35 M-2.5 3.55 L-4.85 5.4 -6.0 3.65 -6.85 1.9 Q-9.25 2.95 -11.9 2.5 -11.1 -0.2 -10.2 -2.0 M-6.8 -5.55 L-8.8 -4.05 -10.2 -2.0 M-2.5 3.55 L-1.55 2.35 M-1.3 2.0 Q-0.4 0.5 -0.15 -1.35 L0.35 -0.5 M-6.85 1.9 Q-4.7 1.0 -2.7 -1.3"/><path fill="none" stroke="#382525" stroke-width="0.5" stroke-opacity="0.4" d="M1.95 -6.8 Q0.4 -9.85 -4.6 -12.7 M0.35 -0.5 Q0.05 1.55 0.5 4.2 L-1.3 2.0 M-1.55 2.35 L-0.65 5.0 -2.5 3.55 M-10.2 -2.0 L-12.7 -4.85 -10.85 -1.35 -12.4 -3.1 -14.3 -6.35 -14.45 -4.75 -15.65 -6.85 Q-16.65 -8.75 -16.65 -9.2"/></g><g id="c37"><g><use transform="matrix(1.0,0.0,0.0,1.0,0.0,0.0)" xlink:href="#c36"/></g></g><g id="c38"><path fill="#4a738a" stroke="none" d="M1.4 -10.3 Q2.25 -11.75 4.7 -8.65 L8.65 -3.8 8.65 0.4 6.75 2.5 Q4.3 4.75 1.55 5.65 -4.4 3.25 -9.05 -1.15 L-8.15 -2.3 -0.45 -6.15 2.15 -4.65 Q0.95 -5.55 1.4 -10.3"/><path fill="#283f4a" stroke="none" d="M1.4 -10.3 Q0.95 -5.55 2.15 -4.65 L-0.45 -6.15 -0.3 -6.3 1.3 -10.3 1.4 -10.3 M-9.05 -1.15 Q-4.4 3.25 1.55 5.65 4.3 4.75 6.75 2.5 L8.65 0.4 8.65 -3.8 Q11.95 1.3 8.35 5.5 6.65 8.75 -0.1 10.3 -5.0 11.85 -7.75 8.05 -11.95 3.55 -9.05 -1.15"/><path fill="none" stroke="#000033" stroke-width="0.5" stroke-opacity="0.411764705882" d="M8.65 -3.8 L4.7 -8.65 Q2.25 -11.75 1.4 -10.3 L1.3 -10.3 -0.3 -6.3 -0.45 -6.15 -8.15 -2.3 -9.05 -1.15 M8.65 -3.8 Q11.95 1.3 8.35 5.5 6.65 8.75 -0.1 10.3 -5.0 11.85 -7.75 8.05 -11.95 3.55 -9.05 -1.15"/></g><g id="c39"><g><use transform="matrix(1.0,0.0,0.0,1.0,0.0,0.0)" xlink:href="#c38"/></g></g><g id="c40"><path fill="#bcb9a0" stroke="none" d="M3.6 3.2 L3.6 2.75 Q3.85 -0.05 2.9 -2.8 L2.15 -4.5 Q3.95 -2.9 5.9 -1.9 4.85 -1.2 4.65 2.6 2.85 4.7 3.1 7.25 L2.35 6.5 Q2.9 5.8 3.6 3.2 M-0.55 -7.2 L-0.95 -7.3 -1.0 -7.3 Q-1.75 -7.45 -2.5 -7.0 L-3.0 -6.45 -3.7 -5.65 -4.1 -4.6 -4.4 -2.75 Q-4.6 -0.7 -4.1 1.4 L-4.75 0.9 Q-4.5 -2.35 -5.9 -6.3 L-5.85 -6.25 -3.5 -6.6 -1.8 -8.65 -0.55 -7.2"/><path fill="#9e8f58" stroke="none" d="M0.55 -4.55 L0.3 -5.0 0.55 -4.55 M1.65 -5.3 Q2.6 1.3 1.0 1.65 L-1.6 -0.65 Q-3.25 -4.3 -2.1 -6.2 L-1.0 -7.3 -0.95 -7.3 -0.55 -7.2 0.25 -6.75 1.1 -5.95 1.65 -5.3"/><path fill="#786c43" stroke="none" d="M2.15 -4.5 L2.9 -2.8 Q3.85 -0.05 3.6 2.75 L3.6 3.2 1.0 1.65 Q2.6 1.3 1.65 -5.3 L2.15 -4.5 M-1.0 -7.3 L-2.1 -6.2 Q-3.25 -4.3 -1.6 -0.65 -4.0 -3.25 -4.1 -4.6 L-3.7 -5.65 -3.0 -6.45 -2.5 -7.0 Q-1.75 -7.45 -1.0 -7.3"/><path fill="#c8cba3" stroke="none" d="M1.0 1.65 L3.6 3.2 Q2.9 5.8 2.35 6.5 L2.05 6.85 1.45 7.3 1.0 6.7 1.9 6.0 2.0 5.95 Q2.85 4.85 1.5 3.4 0.8 3.1 -0.95 1.55 L-2.85 -0.3 Q-4.0 0.25 -2.7 2.7 L-4.1 1.4 Q-4.6 -0.7 -4.4 -2.75 L-4.1 -4.6 Q-4.0 -3.25 -1.6 -0.65 L1.0 1.65"/><path fill="#fcfce9" stroke="none" d="M-2.7 2.7 Q-4.0 0.25 -2.85 -0.3 L-0.95 1.55 Q0.8 3.1 1.5 3.4 2.85 4.85 2.0 5.95 L1.9 6.0 Q1.35 6.4 -1.0 4.35 L-2.7 2.7"/><path fill="#cacdba" stroke="none" d="M1.9 6.0 L1.0 6.7 -1.0 4.35 Q1.35 6.4 1.9 6.0"/><path fill="none" stroke="#422401" stroke-width="0.5" stroke-opacity="0.43137254902" d="M3.6 3.2 L3.6 2.75 Q3.85 -0.05 2.9 -2.8 L2.15 -4.5 1.65 -5.3 1.1 -5.95 0.25 -6.75 -0.55 -7.2 -0.95 -7.3 -1.0 -7.3 M3.6 3.2 Q2.9 5.8 2.35 6.5 M1.45 7.3 L2.05 6.85 2.35 6.5 M-4.1 1.4 Q-4.6 -0.7 -4.4 -2.75 L-4.1 -4.6 -3.7 -5.65 -3.0 -6.45 -2.5 -7.0 Q-1.75 -7.45 -1.0 -7.3 M-4.1 1.4 L-2.7 2.7 -1.0 4.35 1.0 6.7"/><path fill="none" stroke="#f9ee97" stroke-width="1.75" stroke-opacity="0.482352941176" d="M0.3 -5.0 L0.55 -4.55"/><path fill="none" stroke="#422301" stroke-width="1.0" stroke-opacity="0.701960784314" d="M1.0 1.65 L3.6 3.2 M-1.6 -0.65 L1.0 1.65 M-4.1 -4.6 Q-4.0 -3.25 -1.6 -0.65"/><path fill="none" stroke="#422301" stroke-width="0.5" stroke-opacity="0.211764705882" d="M1.0 6.7 L1.45 7.3 2.15 8.65 M-4.75 0.9 L-4.1 1.4 M-5.35 0.45 L-4.75 0.9"/><path fill="#252016" stroke="none" d="M-0.3 2.75 Q0.15 3.8 0.8 4.1 1.5 4.35 2.05 3.75 L2.45 3.1 -0.65 0.9 -0.3 2.75"/></g><g id="c41"><g><use transform="matrix(1.0,0.0,0.0,1.0,0.0,0.0)" xlink:href="#c40"/></g></g><g id="c42"><path fill="#e0dcbe" stroke="none" d="M5.05 -0.05 Q3.5 -2.2 2.85 -4.6 2.25 -3.6 1.45 -2.95 0.8 -3.45 -0.45 -5.4 -0.9 -5.0 -1.95 -4.7 L-3.6 -4.5 -3.35 -6.65 -2.9 -8.6 -4.5 -8.1 -5.9 -10.0 Q-5.4 -11.55 -3.9 -12.8 -4.4 -10.9 -3.0 -9.3 -2.4 -10.65 -0.45 -10.45 -0.85 -7.95 0.7 -5.95 1.95 -6.15 2.35 -8.1 L3.35 -6.95 Q5.8 -3.7 5.85 0.55 L5.05 -0.05"/><path fill="#ede9d7" stroke="none" d="M5.85 0.55 Q5.8 -3.7 3.35 -6.95 L2.35 -8.1 Q1.95 -6.15 0.7 -5.95 -0.85 -7.95 -0.45 -10.45 -2.4 -10.65 -3.0 -9.3 -4.4 -10.9 -3.9 -12.8 L-1.7 -14.15 Q3.3 -11.3 4.85 -8.25 6.6 -2.1 5.85 0.55"/><path fill="#bcb9a0" stroke="none" d="M2.75 -2.8 L2.85 -4.6 2.75 -2.8 Q2.5 -0.95 1.6 0.55 L1.35 0.9 0.4 2.1 Q-0.6 3.15 -1.95 3.95 L-3.1 2.2 Q-1.25 0.8 0.2 -2.75 -1.8 -0.45 -3.95 0.45 -6.35 1.5 -9.0 1.05 L-7.3 -3.45 -5.7 -5.4 Q-4.4 -6.8 -3.9 -7.0 -5.1 -7.15 -6.1 -6.5 -6.5 -8.4 -5.9 -10.0 L-4.5 -8.1 -2.9 -8.6 -3.35 -6.65 -3.6 -4.5 -1.95 -4.7 Q-0.9 -5.0 -0.45 -5.4 0.8 -3.45 1.45 -2.95 2.25 -3.6 2.85 -4.6 3.5 -2.2 5.05 -0.05 L3.25 -1.95 2.75 -2.8"/><path fill="#aca899" stroke="none" d="M2.75 -2.8 L3.25 -1.95 Q2.95 0.1 3.4 2.75 L1.6 0.55 Q2.5 -0.95 2.75 -2.8 M-5.9 -10.0 Q-6.5 -8.4 -6.1 -6.5 -5.1 -7.15 -3.9 -7.0 -4.4 -6.8 -5.7 -5.4 L-7.3 -3.45 -9.8 -6.3 -7.95 -2.8 -9.5 -4.55 -11.4 -7.8 -11.55 -6.2 -12.45 -7.4 Q-13.8 -9.4 -13.75 -10.65 -10.2 -15.25 -3.3 -14.95 L-1.7 -14.15 -3.9 -12.8 Q-5.4 -11.55 -5.9 -10.0 M-3.95 0.45 Q-1.8 -0.45 0.2 -2.75 -1.25 0.8 -3.1 2.2 L-3.95 0.45 M0.4 2.1 L1.35 0.9 2.25 3.55 0.4 2.1"/><path fill="none" stroke="#000000" stroke-width="0.5" stroke-opacity="0.301960784314" d="M2.85 -4.6 L2.75 -2.8 3.25 -1.95 5.05 -0.05 M-3.9 -7.0 Q-4.4 -6.8 -5.7 -5.4 L-7.3 -3.45 -9.0 1.05 Q-6.35 1.5 -3.95 0.45 -1.8 -0.45 0.2 -2.75 M-3.1 2.2 L-1.95 3.95 Q-0.6 3.15 0.4 2.1 L1.35 0.9 1.6 0.55 Q2.5 -0.95 2.75 -2.8 M5.85 0.55 Q6.6 -2.1 4.85 -8.25 M-3.1 2.2 L-3.95 0.45"/><path fill="none" stroke="#382525" stroke-width="0.5" stroke-opacity="0.4" d="M3.25 -1.95 Q2.95 0.1 3.4 2.75 L1.6 0.55 M1.35 0.9 L2.25 3.55 0.4 2.1 M4.85 -8.25 Q3.3 -11.3 -1.7 -14.15 M-7.3 -3.45 L-9.8 -6.3 -7.95 -2.8 -9.5 -4.55 -11.4 -7.8 -11.55 -6.2 -12.45 -7.4 Q-13.8 -9.4 -13.75 -10.65"/><path fill="#283f4a" stroke="none" d="M-1.2 -1.85 Q-2.15 -1.6 -3.1 -0.1 L-4.05 1.75 Q-2.45 2.85 -0.8 3.3 L-3.75 4.0 Q-6.5 4.85 -6.7 6.35 -7.55 1.2 -9.2 4.15 -9.75 0.05 -6.6 -1.85 -10.05 -1.0 -10.25 1.35 -10.45 3.7 -9.95 4.7 -10.95 2.9 -10.45 -0.05 -6.6 -8.05 -1.75 -7.0 L-0.35 -6.25 Q1.1 -2.75 -1.2 -1.85 M-5.95 -0.7 Q-4.95 1.4 -4.05 1.75 -4.95 1.4 -5.95 -0.7"/><path fill="#4a738a" stroke="none" d="M-9.95 4.7 Q-10.45 3.7 -10.25 1.35 -10.05 -1.0 -6.6 -1.85 -9.75 0.05 -9.2 4.15 -7.55 1.2 -6.7 6.35 -6.5 4.85 -3.75 4.0 L-0.8 3.3 Q0.5 4.15 -0.8 5.45 -2.25 6.7 -4.05 7.25 -5.8 7.75 -7.55 6.85 L-7.55 6.8 Q-8.75 6.25 -9.5 5.3 L-9.95 4.7"/><path fill="none" stroke="#000000" stroke-width="0.5" stroke-opacity="0.301960784314" d="M-4.05 1.75 L-3.1 -0.1 Q-2.15 -1.6 -1.2 -1.85 M-1.75 -7.0 Q-6.6 -8.05 -10.45 -0.05 -10.95 2.9 -9.95 4.7 L-9.5 5.3 Q-8.75 6.25 -7.55 6.8 L-7.55 6.85 Q-5.8 7.75 -4.05 7.25 -2.25 6.7 -0.8 5.45 0.5 4.15 -0.8 3.3 -2.45 2.85 -4.05 1.75 -4.95 1.4 -5.95 -0.7"/><path fill="#4a738a" stroke="none" d="M12.55 10.3 Q11.55 12.0 8.25 13.5 4.95 15.0 1.45 9.2 7.15 10.05 6.55 -5.85 5.0 -4.8 4.35 -5.5 4.65 -8.65 7.25 -7.3 9.9 -5.55 11.9 -2.65 13.25 -0.75 13.7 4.2 13.85 6.9 13.1 9.05 L12.55 10.3"/><path fill="#283f4a" stroke="none" d="M4.35 -5.5 Q5.0 -4.8 6.55 -5.85 7.15 10.05 1.45 9.2 4.95 15.0 8.25 13.5 11.55 12.0 12.55 10.3 10.8 13.55 6.55 15.05 -6.95 14.2 -8.9 4.25 L-8.85 1.05 Q-5.1 -4.3 -2.25 -0.75 -1.85 -0.05 0.85 0.85 L4.5 1.8 Q4.85 -2.15 4.35 -5.5 M2.55 7.15 Q4.7 3.65 4.5 1.8 4.7 3.65 2.55 7.15"/><path fill="none" stroke="#000000" stroke-width="0.5" stroke-opacity="0.301960784314" d="M12.55 10.3 L13.1 9.05 Q13.85 6.9 13.7 4.2 13.25 -0.75 11.9 -2.65 9.9 -5.55 7.25 -7.3 4.65 -8.65 4.35 -5.5 4.85 -2.15 4.5 1.8 4.7 3.65 2.55 7.15 M-8.9 4.25 Q-6.95 14.2 6.55 15.05 10.8 13.55 12.55 10.3 M4.5 1.8 L0.85 0.85 Q-1.85 -0.05 -2.25 -0.75"/><path fill="none" stroke="#ffffff" stroke-width="0.5" stroke-opacity="0.301960784314" d="M9.6 -4.6 Q13.05 4.05 11.2 9.7"/></g><g id="c43"><g><use transform="matrix(1.0,0.0,0.0,1.0,0.0,0.0)" xlink:href="#c42"/></g></g><g id="c44"><path fill="#283f4a" stroke="none" d="M-7.5 -11.05 Q-10.95 -2.35 -3.95 -0.2 1.75 0.3 4.15 -0.15 5.35 -0.35 6.2 -2.6 7.0 -4.85 6.4 -6.3 L5.7 -7.45 5.15 -8.25 Q3.25 -9.75 -3.15 -9.1 L-0.8 -9.8 2.2 -10.05 5.05 -10.15 Q9.85 -6.7 9.6 -2.35 L9.3 -0.9 8.8 0.85 5.95 2.55 Q2.9 4.05 -3.1 3.95 -6.0 3.2 -7.85 1.9 L-10.0 -0.3 Q-11.75 -3.0 -10.9 -7.0 -10.15 -9.75 -7.5 -11.05"/><path fill="#bcb9a0" stroke="none" d="M-7.85 1.9 Q-6.0 3.2 -3.1 3.95 2.9 4.05 5.95 2.55 L8.8 0.85 9.3 -0.9 9.6 -2.35 Q9.85 -6.7 5.05 -10.15 L2.2 -10.05 -0.8 -9.8 -0.85 -9.9 0.8 -12.5 Q6.3 -9.9 9.6 -11.45 9.65 -5.15 11.0 -1.45 12.3 2.15 6.1 3.3 -0.1 4.3 -2.0 12.55 -8.05 9.6 -7.1 5.8 -8.1 2.85 -7.85 1.9"/><path fill="#4a738a" stroke="none" d="M-3.15 -9.1 Q3.25 -9.75 5.15 -8.25 L5.7 -7.45 6.4 -6.3 Q7.0 -4.85 6.2 -2.6 5.35 -0.35 4.15 -0.15 1.75 0.3 -3.95 -0.2 -10.95 -2.35 -7.5 -11.05 L-6.8 -11.3 Q-6.0 -11.4 -5.05 -10.35 L-3.75 -8.85 -3.15 -9.1 M-2.65 -6.75 L-3.75 -8.85 -2.65 -6.75"/><path fill="none" stroke="#000033" stroke-width="0.5" stroke-opacity="0.411764705882" d="M-7.5 -11.05 Q-10.15 -9.75 -10.9 -7.0 -11.75 -3.0 -10.0 -0.3 L-7.85 1.9 Q-6.0 3.2 -3.1 3.95 2.9 4.05 5.95 2.55 L8.8 0.85 M9.6 -2.35 Q9.85 -6.7 5.05 -10.15 L2.2 -10.05 -0.8 -9.8 -3.15 -9.1 -3.75 -8.85 -2.65 -6.75 M-3.75 -8.85 L-5.05 -10.35 Q-6.0 -11.4 -6.8 -11.3 L-7.5 -11.05"/></g><g id="c45"><g><use transform="matrix(1.0,0.0,0.0,1.0,0.0,0.0)" xlink:href="#c44"/></g></g><g id="c46"><g><use transform="matrix(-2.15698242188,0.0,0.0,1.07849121094,0.05,0.0)" filter="url(#filter28)" xlink:href="#c13"/></g><g><use transform="matrix(1.0,0.0,0.0,1.0,2.95,-16.1)" xlink:href="#c15"/></g><g><use transform="matrix(1.0,0.0,0.0,1.0,1.5,-8.75)" xlink:href="#c17"/></g><g><use transform="matrix(1.0,0.0,0.0,1.0,18.15,-6.65)" xlink:href="#c19"/></g><g><use transform="matrix(1.0,0.0,0.0,1.0,16.6,1.3)" xlink:href="#c21"/></g><g><use transform="matrix(1.0,0.0,0.0,1.0,7.35,-5.4)" xlink:href="#c25"/></g><g><use transform="matrix(1.0,0.0,0.0,1.0,-16.2,-6.45)" xlink:href="#c27"/></g><g><use transform="matrix(1.0,0.0,0.0,1.0,-17.65,0.95)" xlink:href="#c29"/></g><g><use transform="matrix(1.0,0.0,0.0,1.0,-1.8,8.55)" xlink:href="#c31"/></g><g><use transform="matrix(1.0,0.0,0.0,1.0,0.0,0.25)" xlink:href="#c33"/></g><g><use transform="matrix(1.0,0.0,0.0,1.0,-7.4,-22.5)" xlink:href="#c35"/></g><g><use transform="matrix(1.0,0.0,0.0,1.0,31.0,-13.8)" xlink:href="#c37"/></g><g><use transform="matrix(1.0,0.0,0.0,1.0,24.8,-34.8)" xlink:href="#c39"/></g><g><use transform="matrix(1.0,0.0,0.0,1.0,3.2,-21.5)" xlink:href="#c2"/></g><g><use transform="matrix(1.0,0.0,0.0,1.0,8.45,-12.5)" xlink:href="#c41"/></g><g><use transform="matrix(1.0,0.0,0.0,1.0,3.9,0.8)" xlink:href="#c43"/></g><g><use transform="matrix(1.0,0.0,0.0,1.0,-7.75,-17.35)" xlink:href="#c45"/></g></g><filter id="filter28"><feColorMatrix in="SourceGraphic" type="matrix" values="1.0 0.0 0.0 0.0 0.0 0.0 1.0 0.0 0.0 0.0 0.0 0.0 1.0 0.0 0.0 0.0 0.0 0.0 0.5 0.0" result="cxform"/><feComposite operator="in" in2="SourceGraphic" result="color-xform"/></filter><g id="c47"><g><use transform="matrix(-1.37194824219,0.0,0.0,1.37194824219,73.9,87.25)" xlink:href="#c46"/></g></g><g id="c48"><g><use transform="matrix(1.0,0.0,0.0,1.0,6.3,53.35)" xlink:href="#c11"/></g><g><use transform="matrix(-0.146041870117,0.0488891601562,0.0616760253906,0.140441894531,33.05,63.95)" xlink:href="#c47"/></g><g><use transform="matrix(0.141098022461,-0.0378112792969,0.111373901367,0.225646972656,27.2,74.05)" filter="url(#filter48)" xlink:href="#c8"/></g></g><filter id="filter48"><feColorMatrix in="SourceGraphic" type="matrix" values="1.0 0.0 0.0 0.0 0.0 0.0 1.0 0.0 0.0 0.0 0.0 0.0 1.0 0.0 0.0 0.0 0.0 0.0 0.23046875 0.0" result="cxform"/><feComposite operator="in" in2="SourceGraphic" result="color-xform"/></filter></defs><g><g><use transform="matrix(1.0,0.0,0.0,1.0,0.0,0.0)" xlink:href="#c3"/></g><g><use transform="matrix(1.15496826172,0.0,0.0,1.15496826172,-1.5,-57.15)" xlink:href="#c48"/></g></g></svg>