<?xml version='1.0' encoding='UTF-8'?>
<svg xmlns:xlink="http://www.w3.org/1999/xlink" xmlns="http://www.w3.org/2000/svg" version="1.1" width="60px" height="60px" viewBox="0.0 0.0 60.0 60.0"><defs><g id="c1"><path fill="#000000" fill-opacity="0.00392156862745" d="M0.0 0.0 L60.0 0.0 60.0 60.0 0.0 60.0 0.0 0.0"/></g><g id="c2"><path fill="none" stroke="#000000" stroke-width="1.0" stroke-opacity="0.301960784314" d="M22.3 0.35 Q26.6 -1.0 28.5 3.05 L41.4 31.7 Q43.1 35.4 39.9 36.85 L38.15 37.65 19.65 43.65 Q17.05 44.5 15.35 43.3 14.2 42.55 13.5 40.9 L0.55 12.25 Q-0.6 9.75 0.6 8.25 1.15 7.55 2.2 7.05 2.85 6.6 3.8 6.3 L22.3 0.35"/><path fill="#300525" stroke="none" d="M25.55 0.9 Q26.9 1.6 27.8 3.55 L40.7 32.15 Q42.6 36.3 38.3 37.65 L23.3 42.5 13.15 21.4 4.6 20.9 0.7 12.25 Q-0.45 9.75 0.75 8.25 L29.8 9.75 25.55 0.9 M20.1 43.55 L19.8 43.65 Q17.15 44.45 15.5 43.3 L20.1 43.55"/><path fill="#630a4c" stroke="none" d="M23.3 42.5 L20.1 43.55 15.5 43.3 Q14.35 42.55 13.65 40.9 L4.6 20.9 13.15 21.4 23.3 42.5 M0.75 8.25 Q1.45 7.3 3.1 6.75 L21.65 0.8 25.55 0.9 29.8 9.75 0.75 8.25"/><path fill="none" stroke="#000000" stroke-width="0.5" stroke-opacity="0.301960784314" d="M25.55 0.9 Q26.9 1.6 27.8 3.55 L40.7 32.15 Q42.6 36.3 38.3 37.65 L23.3 42.5 20.1 43.55 19.8 43.65 Q17.15 44.45 15.5 43.3 14.35 42.55 13.65 40.9 L4.6 20.9 0.7 12.25 Q-0.45 9.75 0.75 8.25 1.45 7.3 3.1 6.75 L21.65 0.8 25.55 0.9"/><path fill="#9d147b" stroke="none" d="M14.2 40.5 L1.35 11.8 Q-0.5 7.75 3.8 6.35 L22.3 0.4 Q26.55 -1.0 28.45 3.1 L41.35 31.7 Q43.25 35.85 38.9 37.25 L20.4 43.2 Q16.1 44.55 14.2 40.5"/><path fill="none" stroke="#000000" stroke-width="0.5" stroke-opacity="0.301960784314" d="M14.2 40.5 L1.35 11.8 Q-0.5 7.75 3.8 6.35 L22.3 0.4 Q26.55 -1.0 28.45 3.1 L41.35 31.7 Q43.25 35.85 38.9 37.25 L20.4 43.2 Q16.1 44.55 14.2 40.5"/><path fill="#fcf2cf" stroke="none" d="M9.15 13.6 Q9.8 12.8 9.55 11.6 L9.1 10.55 22.05 6.35 Q24.9 5.45 26.25 7.85 L26.5 8.3 35.8 29.0 35.95 29.35 Q34.75 29.3 34.1 30.1 33.45 30.9 33.7 32.1 L34.0 32.9 20.65 37.2 Q18.8 37.8 17.65 37.0 16.8 36.4 16.3 35.2 L6.95 14.6 6.8 14.4 7.1 14.4 Q8.4 14.45 9.15 13.6"/><path fill="#c47fad" stroke="none" d="M8.25 23.65 L3.35 12.8 Q1.65 9.1 5.5 7.85 L22.25 2.5 Q26.05 1.25 27.75 4.95 L28.25 6.1 35.55 22.3 39.35 30.75 Q41.1 34.5 37.2 35.7 L20.45 41.1 Q16.8 42.25 15.2 39.0 L15.0 38.6 8.25 23.65 M9.15 13.6 Q8.4 14.45 7.1 14.4 L6.8 14.4 6.95 14.6 16.3 35.2 Q16.8 36.4 17.65 37.0 18.8 37.8 20.65 37.2 L34.0 32.9 33.7 32.1 Q33.45 30.9 34.1 30.1 34.75 29.3 35.95 29.35 L35.8 29.0 26.5 8.3 26.25 7.85 Q24.9 5.45 22.05 6.35 L9.1 10.55 9.55 11.6 Q9.8 12.8 9.15 13.6"/><path fill="none" stroke="#ffcc00" stroke-width="1.0" stroke-opacity="0.749019607843" d="M8.25 23.65 L3.35 12.8 Q1.65 9.1 5.5 7.85 L22.25 2.5 Q26.05 1.25 27.75 4.95 L28.25 6.1 M35.55 22.3 L39.35 30.75 Q41.1 34.5 37.2 35.7 L20.45 41.1 Q16.8 42.25 15.2 39.0 L15.0 38.6"/><path fill="none" stroke="#bf9900" stroke-width="1.0" stroke-opacity="0.749019607843" d="M28.25 6.1 L35.55 22.3 M15.0 38.6 L8.25 23.65"/><path fill="none" stroke="#f0b92b" stroke-width="0.5" d="M9.15 13.6 Q9.8 12.8 9.55 11.6 L9.1 10.55 22.05 6.35 Q24.9 5.45 26.25 7.85 L26.5 8.3 35.8 29.0 35.95 29.35 Q34.75 29.3 34.1 30.1 33.45 30.9 33.7 32.1 L34.0 32.9 20.65 37.2 Q18.8 37.8 17.65 37.0 16.8 36.4 16.3 35.2 L6.95 14.6 6.8 14.4 7.1 14.4 Q8.4 14.45 9.15 13.6"/></g><g id="c3"><path fill="#7fdbfe" stroke="none" d="M10.75 4.9 Q10.75 4.6 10.9 4.35 11.25 3.45 11.95 2.75 13.3 1.5 14.35 2.1 15.4 2.7 14.95 4.45 14.7 5.4 14.1 6.15 L13.75 6.5 Q13.1 7.15 12.35 7.35 L11.4 7.2 Q10.95 6.9 10.75 6.4 10.5 5.75 10.75 4.9 M7.5 5.9 Q7.0 5.85 6.6 5.5 6.05 5.0 5.8 4.15 L5.7 3.6 Q5.55 2.65 5.8 1.7 6.25 0.0 7.5 0.0 L7.6 0.0 Q8.85 0.0 9.3 1.7 9.55 2.65 9.4 3.6 L9.3 4.15 8.5 5.5 7.6 5.9 7.5 5.9 M4.35 4.9 Q4.6 5.75 4.35 6.4 L3.7 7.2 2.75 7.35 Q2.0 7.15 1.35 6.5 L1.0 6.15 Q0.4 5.4 0.15 4.45 -0.3 2.7 0.75 2.1 1.8 1.5 3.15 2.75 3.85 3.45 4.2 4.35 L4.35 4.9 M5.5 13.7 Q4.45 13.9 3.65 12.95 2.75 12.0 3.2 10.25 3.7 8.5 5.25 7.6 6.4 6.9 7.55 7.0 8.75 6.9 9.9 7.6 11.45 8.5 11.95 10.25 12.35 12.0 11.5 12.95 10.7 13.9 9.65 13.7 8.55 13.5 7.55 12.6 6.55 13.5 5.5 13.7"/></g><g id="c4"><g><use transform="matrix(1.0,0.0,0.0,1.0,0.0,0.0)" xlink:href="#c3"/></g></g><radialGradient gradientUnits="userSpaceOnUse" r="819.2" cx="0" cy="0" spreadMethod="pad" gradientTransform="matrix(0.0914459228516,0.0,0.0,0.0914459228516,0.6,3.4)" id="gradient1"><stop offset="0.0" stop-color="#ffffff"/><stop offset="1.0" stop-color="#ffffff" stop-opacity="0.0"/></radialGradient><g id="c5"><path stroke="none" fill="url(#gradient1)" d="M36.65 -54.65 Q60.05 -42.0 69.75 -17.95 80.55 8.9 68.0 34.1 55.45 59.35 26.8 68.2 -1.8 77.05 -29.7 64.3 -57.6 51.6 -68.45 24.75 -79.3 -2.05 -66.75 -27.25 L-66.7 -27.3 Q-54.1 -52.5 -25.5 -61.4 3.1 -70.2 31.0 -57.5 L36.65 -54.65"/></g><g id="c6"><g><use transform="matrix(1.0,0.0,0.0,1.0,0.0,0.0)" xlink:href="#c5"/></g></g><radialGradient gradientUnits="userSpaceOnUse" r="819.2" cx="0" cy="0" spreadMethod="pad" gradientTransform="matrix(0.209197998047,0.0,0.0,0.177108764648,67.15,107.2)" id="gradient2"><stop offset="0.356862745098" stop-color="#ffffff"/><stop offset="0.670588235294" stop-opacity="0.0"/></radialGradient><g id="c7"><path fill="none" stroke-linejoin="round" stroke-linecap="round" stroke="url(#gradient2)" stroke-width="0.5" d="M136.55 165.8 L68.6 106.0 68.4 106.0 118.25 201.5 M68.2 105.7 L68.25 105.8 68.25 105.75 68.2 105.7 0.0 45.7 M68.25 105.8 L68.3 105.85 68.3 105.8 68.25 105.75 49.95 0.05 M0.05 97.7 L68.15 105.95 68.25 105.85 68.25 105.8 M68.3 105.85 L68.25 105.85 68.3 106.0 68.3 105.85 68.3 105.8 68.35 105.8 68.3 105.8 86.6 18.35 M50.0 193.2 L68.3 106.0 68.15 105.95 18.25 151.55 M68.4 106.0 L68.3 106.0 86.55 211.5 M68.4 106.0 L68.3 105.85 M68.6 106.0 L68.35 105.8 118.25 60.15 M136.6 114.25 L68.6 106.0 M68.2 105.7 L18.25 10.05"/></g><g id="c8"><g><use transform="matrix(1.0,0.0,0.0,1.0,0.0,0.0)" xlink:href="#c7"/></g></g><g id="c9"><path fill="#c1b98f" stroke="none" d="M26.05 13.25 L26.0 13.25 26.05 13.2 26.05 13.25"/><path fill="#cfd2b5" stroke="none" d="M26.0 13.25 L26.05 13.25 26.1 13.2 26.4 13.3 27.95 13.75 27.3 14.95 Q25.0 15.8 22.85 18.2 L17.5 25.75 17.3 26.05 15.9 28.1 15.1 27.75 15.3 27.4 15.3 27.35 15.3 27.4 15.35 27.25 14.25 26.65 15.7 25.35 16.8 24.15 19.35 20.45 Q23.0 15.1 25.95 13.25 L26.0 13.25 M17.15 24.6 L15.4 27.25 15.35 27.25 15.4 27.25 17.15 24.6 M21.1 14.65 L19.15 19.45 17.9 21.05 16.55 21.85 Q19.3 18.05 21.1 14.65 M19.6 29.05 L20.8 26.65 Q22.0 24.55 23.5 23.4 L21.75 26.9 21.4 27.65 20.5 28.95 20.3 29.1 19.6 29.05"/><path fill="#6c6c38" stroke="none" d="M26.05 13.25 L26.05 13.2 26.1 13.2 26.05 13.25"/><path fill="#b4b878" stroke="none" d="M26.05 13.2 L26.0 13.25 25.95 13.25 Q23.0 15.1 19.35 20.45 L16.8 24.15 15.7 25.35 14.25 26.65 Q13.7 26.45 13.55 25.95 L16.55 21.85 17.9 21.05 19.15 19.45 21.1 14.65 22.55 12.05 24.7 12.75 24.95 12.35 26.3 12.8 26.05 13.2 M27.45 16.3 L27.25 16.6 23.5 23.4 Q22.0 24.55 20.8 26.65 L19.6 29.05 18.7 28.85 Q18.5 28.5 19.9 25.75 L20.15 24.95 Q20.25 24.4 19.3 26.25 L19.0 26.85 17.8 28.5 16.35 28.35 15.9 28.1 17.3 26.05 17.5 25.75 22.85 18.2 Q25.0 15.8 27.3 14.95 L22.6 22.7 Q25.15 19.05 27.45 16.3 M22.3 21.05 L21.6 22.25 22.3 21.05"/><path fill="#38321d" stroke="none" d="M26.1 13.2 L26.05 13.2 26.3 12.8 26.4 13.3 26.1 13.2"/><path fill="#343621" stroke="none" d="M27.8 17.45 L27.45 16.25 27.45 16.3 Q25.15 19.05 22.6 22.7 L27.3 14.95 27.95 13.75 28.25 14.9 28.4 16.4 27.8 17.45 M27.25 16.6 L27.95 18.0 24.9 23.0 22.6 27.25 Q21.65 29.0 20.85 31.0 L20.75 30.4 Q20.9 29.25 21.4 27.65 L21.75 26.9 23.5 23.4 27.25 16.6"/><path fill="#b4b88b" stroke="none" d="M27.45 16.3 L27.45 16.25 27.8 17.45 27.95 18.0 27.25 16.6 27.45 16.3"/><path fill="#dddecb" stroke="none" d="M14.25 26.65 L15.35 27.25 15.3 27.35 15.35 27.25 15.3 27.4 15.3 27.35 15.3 27.4 14.0 26.8 14.15 26.7 14.25 26.65 14.15 26.7 14.0 26.8 13.6 26.75 13.95 27.5 13.85 27.4 13.25 26.6 13.55 25.95 Q13.7 26.45 14.25 26.65 M16.35 28.35 L17.8 28.5 19.0 26.85 19.3 26.25 Q20.25 24.4 20.15 24.95 L18.1 28.6 18.25 29.45 17.9 29.0 16.35 28.35 M18.7 28.85 L19.6 29.05 19.55 29.25 19.6 29.05 20.3 29.1 20.5 28.95 21.4 27.65 Q20.9 29.25 20.75 30.4 20.25 29.5 19.65 29.3 L19.55 29.25 18.7 28.85"/><path fill="#939672" stroke="none" d="M14.0 26.8 L15.3 27.4 15.1 27.75 15.9 28.1 16.35 28.35 17.9 29.0 18.25 29.45 16.35 28.65 15.45 28.9 14.7 28.65 13.95 27.5 13.6 26.75 14.0 26.8 M20.85 31.0 L20.7 30.9 20.15 30.75 20.15 30.7 19.15 29.55 18.5 29.35 18.7 28.85 19.55 29.25 19.65 29.3 Q20.25 29.5 20.75 30.4 L20.85 31.0"/><path fill="#7d8061" stroke="none" d="M20.15 30.75 L15.45 28.9 16.35 28.65 18.25 29.45 18.3 29.85 18.5 29.35 19.15 29.55 20.15 30.7 20.15 30.75"/><path fill="#2b1c00" stroke="none" d="M20.15 24.95 L19.9 25.75 Q18.5 28.5 18.7 28.85 L18.5 29.35 18.3 29.85 18.25 29.45 18.1 28.6 20.15 24.95"/><path fill="none" stroke="#382510" stroke-width="0.5" stroke-opacity="0.152941176471" d="M26.0 13.25 L26.05 13.25 26.1 13.2 M25.95 13.25 Q23.0 15.1 19.35 20.45 L16.8 24.15 15.7 25.35 14.25 26.65 14.15 26.7 14.0 26.8 M21.1 14.65 L19.15 19.45 17.9 21.05 16.55 21.85 M27.3 14.95 Q25.0 15.8 22.85 18.2 L17.5 25.75 17.3 26.05 15.9 28.1 M19.6 29.05 L20.8 26.65 Q22.0 24.55 23.5 23.4 M19.55 29.25 L19.6 29.05"/><path fill="none" stroke="#382510" stroke-width="0.7" stroke-opacity="0.301960784314" d="M15.35 27.25 L15.4 27.25 17.15 24.6 M26.1 13.2 L26.05 13.2 M15.3 27.4 L15.3 27.35 15.35 27.25 15.3 27.4 15.3 27.35 M26.4 13.3 L26.1 13.2 M21.6 22.25 L22.3 21.05 M15.3 27.4 L15.1 27.75 M18.1 28.6 L20.15 24.95"/><path fill="none" stroke="#000000" stroke-width="0.5" stroke-opacity="0.301960784314" d="M18.25 29.45 L18.1 28.6 M18.25 29.45 L18.3 29.85"/></g><g id="c10"><path fill="#ffffff" stroke="none" d="M19.65 28.15 L17.95 29.75 15.4 32.15 11.3 35.35 10.65 35.3 10.7 35.25 12.85 32.7 Q13.25 31.85 14.95 30.1 16.7 27.4 17.6 26.45 20.35 23.6 20.7 22.75 20.8 22.5 22.65 20.0 24.3 17.65 24.5 16.35 L26.35 14.4 Q28.0 12.85 27.9 12.3 L27.5 11.95 27.25 11.8 Q27.1 12.85 25.0 14.6 23.7 15.5 22.85 16.25 L22.15 17.0 21.15 17.85 20.5 18.4 19.1 19.6 19.15 19.85 Q19.3 20.55 18.45 21.25 L16.15 23.15 11.65 27.25 Q10.7 27.5 10.5 26.5 10.35 25.8 12.4 23.85 L12.35 23.8 4.35 30.75 Q3.45 29.7 3.0 30.15 L2.9 29.55 Q3.15 29.05 4.4 28.05 L5.5 26.35 7.35 24.75 8.15 24.05 8.7 23.55 16.1 17.35 16.1 16.8 15.7 16.8 16.0 15.95 16.35 15.25 14.7 15.75 Q8.1 21.25 3.75 24.2 L0.0 26.6 0.1 26.35 2.7 24.75 Q2.6 24.2 3.1 23.9 L3.9 23.4 5.7 22.0 8.5 19.55 10.3 18.05 Q12.4 15.6 15.55 12.6 L18.4 9.6 Q21.1 6.75 21.6 6.6 21.9 6.5 21.95 6.8 L21.55 7.35 Q21.05 7.8 21.15 8.25 L21.25 8.65 Q21.75 7.95 23.95 6.4 24.3 6.05 24.35 5.3 24.4 4.65 25.0 4.2 L29.3 0.0 31.15 0.5 32.75 0.4 Q33.25 0.4 34.15 0.95 L34.65 1.4 23.8 11.85 33.5 4.25 34.25 3.95 34.45 3.9 34.45 3.95 34.5 3.9 35.35 3.95 35.5 4.0 Q36.0 4.2 36.1 4.55 L35.9 5.1 Q35.6 5.4 35.65 5.7 L36.1 6.2 34.3 8.2 31.7 11.15 27.55 15.65 24.1 19.85 19.15 25.6 17.3 28.15 Q16.8 28.85 16.9 29.3 L17.3 29.2 19.65 28.15 19.7 28.1 19.75 28.1 19.65 28.15 M19.45 9.35 L20.0 8.85 21.55 7.15 19.45 9.35 M16.6 18.65 L15.7 19.55 15.55 19.7 16.75 18.75 16.6 18.65 M14.55 19.5 L15.25 18.75 14.15 19.85 14.55 19.5 M38.6 6.25 Q37.6 6.55 37.4 5.65 37.2 4.65 38.2 4.35 39.2 4.05 39.4 4.95 39.6 5.95 38.6 6.25 M11.95 23.45 L12.15 23.3 12.15 23.25 11.95 23.45 M2.3 28.4 Q1.25 28.7 0.95 27.65 0.7 26.65 1.75 26.4 2.85 26.15 3.05 27.15 3.25 28.15 2.3 28.4"/></g><g id="c11"><g><use transform="matrix(1.0,0.0,0.0,1.0,0.0,0.0)" xlink:href="#c10"/></g></g><g id="c12"><g><use transform="matrix(1.0,0.0,0.0,1.0,0.0,0.0)" xlink:href="#c2"/></g><g><use transform="matrix(0.238861083984,-0.0867004394531,0.10026550293,0.233917236328,34.25,31.15)" xlink:href="#c4"/></g><g><use transform="matrix(0.238861083984,-0.0867004394531,0.10026550293,0.233917236328,4.25,10.3)" xlink:href="#c4"/></g><g><use transform="matrix(0.141098022461,-0.0378112792969,0.111373901367,0.225646972656,20.25,20.65)" filter="url(#filter8)" xlink:href="#c6"/></g><g><use transform="matrix(-0.155029296875,0.0513153076172,0.0841827392578,0.147033691406,22.6,2.3)" filter="url(#filter9)" xlink:href="#c8"/></g><g><use transform="matrix(1.0,0.0,0.0,1.0,0.0,0.0)" xlink:href="#c9"/></g><g><use transform="matrix(0.383041381836,-0.102615356445,0.102615356445,0.383041381836,11.7,16.05)" filter="url(#filter11)" xlink:href="#c11"/></g><g><use transform="matrix(0.162948608398,-0.0436706542969,0.128631591797,0.260604858398,20.35,20.95)" filter="url(#filter12)" xlink:href="#c6"/></g></g><filter id="filter8"><feColorMatrix in="SourceGraphic" type="matrix" values="0.0 0.0 0.0 0.0 0.796875 0.0 0.0 0.0 0.0 0.59765625 0.0 0.0 0.0 0.0 0.19921875 0.0 0.0 0.0 1.0 0.0" result="cxform"/><feComposite operator="in" in2="SourceGraphic" result="color-xform"/></filter><filter id="filter9"><feColorMatrix in="SourceGraphic" type="matrix" values="0.0 0.0 0.0 0.0 0.99609375 0.0 0.0 0.0 0.0 0.99609375 0.0 0.0 0.0 0.0 0.99609375 0.0 0.0 0.0 1.0 0.0" result="cxform"/><feComposite operator="in" in2="SourceGraphic" result="color-xform"/></filter><filter id="filter11"><feColorMatrix in="SourceGraphic" type="matrix" values="1.0 0.0 0.0 0.0 0.0 0.0 1.0 0.0 0.0 0.0 0.0 0.0 1.0 0.0 0.0 0.0 0.0 0.0 0.37109375 0.0" result="cxform"/><feComposite operator="in" in2="SourceGraphic" result="color-xform"/></filter><filter id="filter12"><feColorMatrix in="SourceGraphic" type="matrix" values="1.0 0.0 0.0 0.0 0.0 0.0 1.0 0.0 0.0 0.0 0.0 0.0 1.0 0.0 0.0 0.0 0.0 0.0 0.23046875 0.0" result="cxform"/><feComposite operator="in" in2="SourceGraphic" result="color-xform"/></filter></defs><g><g><use transform="matrix(1.0,0.0,0.0,1.0,0.0,0.0)" xlink:href="#c1"/></g><g><use transform="matrix(1.15496826172,0.0,0.0,1.15496826172,5.85,3.95)" xlink:href="#c12"/></g></g></svg>