<?xml version='1.0' encoding='UTF-8'?>
<svg xmlns:xlink="http://www.w3.org/1999/xlink" xmlns="http://www.w3.org/2000/svg" version="1.1" width="60px" height="63px" viewBox="0.0 -2.32474112858 60.3090772832 62.6312863662"><defs><g id="c1"><path fill="#000000" fill-opacity="0.00392156862745" d="M0.0 0.0 L60.0 0.0 60.0 60.0 0.0 60.0 0.0 0.0"/></g><g id="c2"><path fill="#006699" stroke="none" d="M31.5 39.85 L19.8 43.65 Q17.15 44.45 15.5 43.3 14.35 42.55 13.65 40.9 L1.7 14.45 1.6 14.3 1.2 13.45 -0.75 9.05 Q-2.05 6.2 -0.3 4.75 0.3 4.25 1.2 3.9 L5.5 2.25 Q8.95 0.95 10.65 4.15 L22.3 0.4 Q26.55 -1.0 28.45 3.1 L40.55 29.95 40.9 30.7 42.95 35.15 Q43.95 37.35 43.15 38.7 42.5 39.7 40.95 40.25 L36.65 41.8 35.1 42.2 Q32.75 42.3 31.5 39.85"/><path fill="none" stroke="#000000" stroke-width="1.0" stroke-opacity="0.298039215686" d="M31.5 39.85 L19.8 43.65 Q17.15 44.45 15.5 43.3 14.35 42.55 13.65 40.9 L1.7 14.45 1.6 14.3 1.2 13.45 -0.75 9.05 Q-2.05 6.2 -0.3 4.75 0.3 4.25 1.2 3.9 L5.5 2.25 Q8.95 0.95 10.65 4.15 L22.3 0.4 Q26.55 -1.0 28.45 3.1 L40.55 29.95 40.9 30.7 42.95 35.15 Q43.95 37.35 43.15 38.7 42.5 39.7 40.95 40.25 L36.65 41.8 35.1 42.2 Q32.75 42.3 31.5 39.85"/><path fill="#5b3c00" stroke="none" d="M0.75 8.25 L29.8 9.75 25.55 0.9 Q26.9 1.6 27.8 3.55 L40.7 32.15 Q42.6 36.3 38.3 37.65 L23.3 42.5 13.15 21.4 4.6 20.9 0.7 12.25 Q-0.45 9.75 0.75 8.25 M20.1 43.55 L19.8 43.65 Q17.15 44.45 15.5 43.3 L20.1 43.55"/><path fill="#724b00" stroke="none" d="M25.55 0.9 L29.8 9.75 0.75 8.25 Q1.45 7.3 3.1 6.75 L21.65 0.8 25.55 0.9 M4.6 20.9 L13.15 21.4 23.3 42.5 20.1 43.55 15.5 43.3 Q14.35 42.55 13.65 40.9 L4.6 20.9"/><path fill="none" stroke="#000000" stroke-width="0.5" stroke-opacity="0.301960784314" d="M0.75 8.25 Q-0.45 9.75 0.7 12.25 L4.6 20.9 M23.3 42.5 L38.3 37.65 Q42.6 36.3 40.7 32.15 L27.8 3.55 Q26.9 1.6 25.55 0.9 L21.65 0.8 3.1 6.75 Q1.45 7.3 0.75 8.25 M20.1 43.55 L19.8 43.65 Q17.15 44.45 15.5 43.3 14.35 42.55 13.65 40.9 L4.6 20.9 M20.1 43.55 L23.3 42.5"/><path fill="#fed00b" stroke="none" d="M40.5 29.85 L40.55 29.95 40.9 30.7 42.95 35.15 Q43.95 37.35 43.15 38.7 42.5 39.45 41.2 39.9 L36.9 41.45 34.85 41.85 Q32.9 41.7 31.8 39.55 L31.75 39.5 31.4 39.65 30.3 40.0 31.4 39.65 31.4 39.7 20.4 43.2 Q16.1 44.55 14.2 40.5 L6.45 23.15 6.0 22.15 5.55 21.15 4.05 17.85 3.15 15.85 3.1 15.8 1.75 12.85 -0.2 8.45 Q-1.25 6.15 -0.3 4.75 0.3 4.25 1.2 3.9 L5.5 2.25 Q8.95 0.95 10.65 4.15 L22.3 0.4 Q26.55 -1.0 28.45 3.1 L40.5 29.85"/><path fill="#5b3c00" stroke="none" d="M43.15 38.7 Q42.5 39.7 40.95 40.25 L36.65 41.8 35.1 42.2 Q32.75 42.3 31.45 39.8 L31.4 39.7 31.4 39.65 31.75 39.5 31.8 39.55 Q32.9 41.7 34.85 41.85 L36.9 41.45 41.2 39.9 Q42.5 39.45 43.15 38.7 M3.1 15.8 Q2.25 15.35 1.6 14.3 L1.2 13.45 -0.75 9.05 Q-2.05 6.2 -0.3 4.75 -1.25 6.15 -0.2 8.45 L1.75 12.85 3.1 15.8"/><path fill="#9d147b" stroke="none" d="M31.4 39.65 L30.3 40.0 31.4 39.65"/><path fill="none" stroke="#003333" stroke-width="0.5" stroke-opacity="0.509803921569" d="M40.5 29.85 L40.55 29.95 40.9 30.7 42.95 35.15 Q43.95 37.35 43.15 38.7 42.5 39.7 40.95 40.25 L36.65 41.8 35.1 42.2 Q32.75 42.3 31.45 39.8 L31.4 39.7 M6.45 23.15 L6.0 22.15 M5.55 21.15 L4.05 17.85 3.1 15.8 1.75 12.85 -0.2 8.45 Q-1.25 6.15 -0.3 4.75 0.3 4.25 1.2 3.9 L5.5 2.25 Q8.95 0.95 10.65 4.15 M1.6 14.3 L1.2 13.45 -0.75 9.05 Q-2.05 6.2 -0.3 4.75 M31.4 39.65 L31.75 39.5 31.8 39.55 Q32.9 41.7 34.85 41.85 L36.9 41.45 41.2 39.9 Q42.5 39.45 43.15 38.7 M31.4 39.65 L30.3 40.0 31.4 39.65 31.4 39.7"/><path fill="none" stroke="#000000" stroke-width="0.5" stroke-opacity="0.301960784314" d="M31.4 39.7 L20.4 43.2 Q16.1 44.55 14.2 40.5 L6.45 23.15 M6.0 22.15 L5.55 21.15 M10.65 4.15 L22.3 0.4 Q26.55 -1.0 28.45 3.1 L40.5 29.85 M4.05 17.85 L3.15 15.85"/><path fill="#fcf2cf" stroke="none" d="M9.15 13.6 Q9.8 12.8 9.55 11.6 L9.1 10.55 22.05 6.35 Q24.9 5.45 26.25 7.85 L26.5 8.3 35.8 29.0 35.95 29.35 Q34.75 29.3 34.1 30.1 33.45 30.9 33.7 32.1 L34.0 32.9 20.65 37.2 Q18.8 37.8 17.65 37.0 16.8 36.4 16.3 35.2 L6.95 14.6 6.8 14.4 7.1 14.4 Q8.4 14.45 9.15 13.6"/><path fill="#9f6b00" stroke="none" d="M28.25 6.1 L35.55 22.3 39.35 30.75 Q41.1 34.5 37.2 35.7 L20.45 41.1 Q16.8 42.25 15.2 39.0 L15.0 38.6 8.25 23.65 3.35 12.8 Q1.65 9.1 5.5 7.85 L22.25 2.5 Q26.05 1.25 27.75 4.95 L28.25 6.1 M9.15 13.6 Q8.4 14.45 7.1 14.4 L6.8 14.4 6.95 14.6 16.3 35.2 Q16.8 36.4 17.65 37.0 18.8 37.8 20.65 37.2 L34.0 32.9 33.7 32.1 Q33.45 30.9 34.1 30.1 34.75 29.3 35.95 29.35 L35.8 29.0 26.5 8.3 26.25 7.85 Q24.9 5.45 22.05 6.35 L9.1 10.55 9.55 11.6 Q9.8 12.8 9.15 13.6"/><path fill="none" stroke="#f0b92b" stroke-width="0.5" d="M9.15 13.6 Q9.8 12.8 9.55 11.6 L9.1 10.55 22.05 6.35 Q24.9 5.45 26.25 7.85 L26.5 8.3 35.8 29.0 35.95 29.35 Q34.75 29.3 34.1 30.1 33.45 30.9 33.7 32.1 L34.0 32.9 20.65 37.2 Q18.8 37.8 17.65 37.0 16.8 36.4 16.3 35.2 L6.95 14.6 6.8 14.4 7.1 14.4 Q8.4 14.45 9.15 13.6"/><path fill="none" stroke="#feaa00" stroke-width="1.0" d="M28.25 6.1 L35.55 22.3 M15.0 38.6 L8.25 23.65"/><path fill="none" stroke="#fbeec5" stroke-width="1.0" d="M35.55 22.3 L39.35 30.75 Q41.1 34.5 37.2 35.7 L20.45 41.1 Q16.8 42.25 15.2 39.0 L15.0 38.6 M8.25 23.65 L3.35 12.8 Q1.65 9.1 5.5 7.85 L22.25 2.5 Q26.05 1.25 27.75 4.95 L28.25 6.1"/></g><g id="c3"><path fill="#7fdbfe" stroke="none" d="M10.75 4.9 Q10.75 4.6 10.9 4.35 11.25 3.45 11.95 2.75 13.3 1.5 14.35 2.1 15.4 2.7 14.95 4.45 14.7 5.4 14.1 6.15 L13.75 6.5 Q13.1 7.15 12.35 7.35 L11.4 7.2 Q10.95 6.9 10.75 6.4 10.5 5.75 10.75 4.9 M7.5 5.9 Q7.0 5.85 6.6 5.5 6.05 5.0 5.8 4.15 L5.7 3.6 Q5.55 2.65 5.8 1.7 6.25 0.0 7.5 0.0 L7.6 0.0 Q8.85 0.0 9.3 1.7 9.55 2.65 9.4 3.6 L9.3 4.15 8.5 5.5 7.6 5.9 7.5 5.9 M4.35 4.9 Q4.6 5.75 4.35 6.4 L3.7 7.2 2.75 7.35 Q2.0 7.15 1.35 6.5 L1.0 6.15 Q0.4 5.4 0.15 4.45 -0.3 2.7 0.75 2.1 1.8 1.5 3.15 2.75 3.85 3.45 4.2 4.35 L4.35 4.9 M5.5 13.7 Q4.45 13.9 3.65 12.95 2.75 12.0 3.2 10.25 3.7 8.5 5.25 7.6 6.4 6.9 7.55 7.0 8.75 6.9 9.9 7.6 11.45 8.5 11.95 10.25 12.35 12.0 11.5 12.95 10.7 13.9 9.65 13.7 8.55 13.5 7.55 12.6 6.55 13.5 5.5 13.7"/></g><g id="c4"><g><use transform="matrix(1.0,0.0,0.0,1.0,0.0,0.0)" xlink:href="#c3"/></g></g><radialGradient gradientUnits="userSpaceOnUse" r="819.2" cx="0" cy="0" spreadMethod="pad" gradientTransform="matrix(0.0914459228516,0.0,0.0,0.0914459228516,0.6,3.4)" id="gradient1"><stop offset="0.0" stop-color="#ffffff"/><stop offset="1.0" stop-color="#ffffff" stop-opacity="0.0"/></radialGradient><g id="c5"><path stroke="none" fill="url(#gradient1)" d="M36.65 -54.65 Q60.05 -42.0 69.75 -17.95 80.55 8.9 68.0 34.1 55.45 59.35 26.8 68.2 -1.8 77.05 -29.7 64.3 -57.6 51.6 -68.45 24.75 -79.3 -2.05 -66.75 -27.25 L-66.7 -27.3 Q-54.1 -52.5 -25.5 -61.4 3.1 -70.2 31.0 -57.5 L36.65 -54.65"/></g><g id="c6"><g><use transform="matrix(1.0,0.0,0.0,1.0,0.0,0.0)" xlink:href="#c5"/></g></g><radialGradient gradientUnits="userSpaceOnUse" r="819.2" cx="0" cy="0" spreadMethod="pad" gradientTransform="matrix(0.209197998047,0.0,0.0,0.177108764648,67.15,107.2)" id="gradient2"><stop offset="0.356862745098" stop-color="#ffffff"/><stop offset="0.670588235294" stop-opacity="0.0"/></radialGradient><g id="c7"><path fill="none" stroke-linejoin="round" stroke-linecap="round" stroke="url(#gradient2)" stroke-width="0.5" d="M136.55 165.8 L68.6 106.0 68.4 106.0 118.25 201.5 M68.3 105.8 L68.35 105.8 68.3 105.8 68.3 105.85 68.4 106.0 68.3 106.0 86.55 211.5 M68.3 105.8 L68.3 105.85 68.3 106.0 68.15 105.95 18.25 151.55 M68.3 105.85 L68.25 105.85 68.3 106.0 50.0 193.2 M68.25 105.85 L68.15 105.95 0.05 97.7 M68.3 105.85 L68.25 105.8 68.25 105.85 M68.25 105.8 L68.2 105.7 0.0 45.7 M68.3 105.8 L68.25 105.75 68.25 105.8 M68.25 105.75 L68.2 105.7 18.25 10.05 M68.6 106.0 L68.35 105.8 118.25 60.15 M86.6 18.35 L68.3 105.8 M136.6 114.25 L68.6 106.0 M68.25 105.75 L49.95 0.05"/></g><g id="c8"><g><use transform="matrix(1.0,0.0,0.0,1.0,0.0,0.0)" xlink:href="#c7"/></g></g><g id="c9"><g><use transform="matrix(1.0,0.0,0.0,1.0,0.0,0.0)" xlink:href="#c2"/></g><g><use transform="matrix(0.238861083984,-0.0867004394531,0.10026550293,0.233917236328,34.25,31.15)" xlink:href="#c4"/></g><g><use transform="matrix(0.238861083984,-0.0867004394531,0.10026550293,0.233917236328,4.25,10.3)" xlink:href="#c4"/></g><g><use transform="matrix(0.141098022461,-0.0378112792969,0.111373901367,0.225646972656,20.25,20.65)" filter="url(#filter7)" xlink:href="#c6"/></g><g><use transform="matrix(-0.155029296875,0.0513153076172,0.0841827392578,0.147033691406,22.6,3.15)" filter="url(#filter8)" xlink:href="#c8"/></g></g><filter id="filter7"><feColorMatrix in="SourceGraphic" type="matrix" values="0.0 0.0 0.0 0.0 0.796875 0.0 0.0 0.0 0.0 0.59765625 0.0 0.0 0.0 0.0 0.19921875 0.0 0.0 0.0 1.0 0.0" result="cxform"/><feComposite operator="in" in2="SourceGraphic" result="color-xform"/></filter><filter id="filter8"><feColorMatrix in="SourceGraphic" type="matrix" values="0.0 0.0 0.0 0.0 0.99609375 0.0 0.0 0.0 0.0 0.99609375 0.0 0.0 0.0 0.0 0.99609375 0.0 0.0 0.0 1.0 0.0" result="cxform"/><feComposite operator="in" in2="SourceGraphic" result="color-xform"/></filter><g id="c10"><path fill="#ffffff" stroke="none" d="M37.9 92.95 L26.2 96.75 Q23.55 97.55 21.9 96.4 20.75 95.65 20.05 94.0 L8.1 67.55 8.0 67.4 7.6 66.55 5.65 62.15 Q4.35 59.3 6.1 57.85 6.7 57.35 7.6 57.0 L11.9 55.35 Q15.35 54.05 17.05 57.25 L28.7 53.5 Q32.95 52.1 34.85 56.2 L46.95 83.05 47.3 83.8 49.35 88.25 Q50.35 90.45 49.55 91.8 48.9 92.8 47.35 93.35 L43.05 94.9 41.5 95.3 Q39.15 95.4 37.9 92.95"/></g><linearGradient gradientUnits="userSpaceOnUse" x1="-819.2" x2="819.2" spreadMethod="pad" gradientTransform="matrix(0.0255126953125,0.0,0.0,0.0268249511719,20.9,21.95)" id="gradient3"><stop offset="0.0" stop-color="#f90013"/><stop offset="0.160784313725" stop-color="#ff99ff"/><stop offset="0.462745098039" stop-color="#66ffff"/><stop offset="0.721568627451" stop-color="#ff9900"/><stop offset="1.0" stop-color="#33ff00"/></linearGradient><g id="c11"><path stroke="none" fill="url(#gradient3)" d="M0.6 8.2 Q1.05 7.55 2.0 7.1 2.65 6.65 3.65 6.3 L22.15 0.35 Q26.4 -1.05 28.3 3.05 L41.2 31.65 Q42.8 35.1 40.05 36.65 39.35 37.25 38.15 37.6 L19.65 43.6 Q17.0 44.4 15.35 43.25 14.2 42.5 13.5 40.85 L0.55 12.2 Q-0.6 9.7 0.6 8.2"/></g><g id="c12"><g><use transform="matrix(1.0,0.0,0.0,1.0,0.0,0.0)" xlink:href="#c11"/></g></g><radialGradient gradientUnits="userSpaceOnUse" r="819.2" cx="0" cy="0" spreadMethod="pad" gradientTransform="matrix(0.0171966552734,0.0,0.0,0.0171966552734,0.0,0.0)" id="gradient4"><stop offset="0.333333333333" stop-color="#0e171d"/><stop offset="1.0" stop-color="#101a24" stop-opacity="0.0"/></radialGradient><g id="c13"><path stroke="none" fill="url(#gradient4)" d="M10.4 -10.45 Q14.75 -6.1 14.75 0.0 14.75 6.1 10.4 10.4 6.1 14.75 0.0 14.75 -6.1 14.75 -10.45 10.4 -14.75 6.1 -14.75 0.0 -14.75 -6.1 -10.45 -10.45 -6.1 -14.75 0.0 -14.75 6.1 -14.75 10.4 -10.45"/></g><g id="c14"><g><use transform="matrix(1.0,0.0,0.0,1.0,0.0,0.0)" xlink:href="#c13"/></g></g><g id="c15"><g><use transform="matrix(1.72113037109,-0.0392913818359,0.0,0.850311279297,0.0,0.0)" filter="url(#filter11)" xlink:href="#c14"/></g></g><filter id="filter11"><feColorMatrix in="SourceGraphic" type="matrix" values="1.0 0.0 0.0 0.0 0.0 0.0 1.0 0.0 0.0 0.0 0.0 0.0 1.0 0.0 0.0 0.0 0.0 0.0 0.5 0.0" result="cxform"/><feComposite operator="in" in2="SourceGraphic" result="color-xform"/></filter><g id="c16"><path fill="#2c2b21" stroke="none" d="M0.35 -1.9 L-4.55 -7.45 0.35 -4.9 Q5.05 -0.8 8.65 4.3 L8.0 7.65 4.05 4.25 Q-3.4 -0.85 -8.05 -1.2 L-8.15 -2.1 Q-6.2 -2.65 -1.6 -1.0 -5.05 -4.05 -8.65 -6.55 L-8.5 -7.65 -5.6 -6.7 0.35 -1.9 2.5 0.2 0.35 -1.9 M1.95 2.35 L-1.2 -0.7 -1.6 -1.0 -1.2 -0.7 1.95 2.35"/><path fill="none" stroke="#000000" stroke-width="0.5" stroke-opacity="0.4" d="M0.35 -1.9 L-4.55 -7.45 0.35 -4.9 Q5.05 -0.8 8.65 4.3 L8.0 7.65 4.05 4.25 Q-3.4 -0.85 -8.05 -1.2 L-8.15 -2.1 Q-6.2 -2.65 -1.6 -1.0 -5.05 -4.05 -8.65 -6.55 L-8.5 -7.65 -5.6 -6.7 0.35 -1.9 2.5 0.2 M-1.6 -1.0 L-1.2 -0.7 1.95 2.35"/></g><g id="c17"><g><use transform="matrix(1.0,0.0,0.0,1.0,0.0,0.0)" xlink:href="#c16"/></g></g><g id="c18"><path fill="#4a473e" stroke="none" d="M-11.2 -17.0 Q-10.95 -16.2 -8.4 -15.9 L-2.05 -16.4 Q1.75 -17.25 2.95 -18.7 4.1 -20.15 4.3 -20.9 4.1 -20.15 2.95 -18.7 1.75 -17.25 -2.05 -16.4 L-8.4 -15.9 Q-10.95 -16.2 -11.2 -17.0 L-9.55 -18.65 Q-4.05 -23.75 2.95 -21.4 L4.3 -20.9 7.65 -19.35 8.6 -18.9 10.0 -18.3 Q11.8 -17.2 13.45 -15.55 1.35 -16.6 -8.55 -4.0 L-8.7 -2.95 Q-12.05 -2.75 -14.4 -3.55 -18.4 -4.9 -18.1 -6.55 -18.4 -4.9 -14.4 -3.55 -12.05 -2.75 -8.7 -2.95 -9.55 5.25 -2.7 11.8 -10.6 13.6 -14.95 12.1 -18.65 10.8 -19.45 9.75 -18.65 10.8 -14.95 12.1 -10.6 13.6 -2.7 11.8 L0.5 14.45 Q10.15 17.0 15.9 10.4 17.6 8.45 18.95 5.7 L19.95 3.4 19.75 4.45 19.8 4.65 19.2 6.5 19.15 6.65 19.05 6.95 18.75 7.8 17.5 10.4 15.9 12.6 13.5 15.1 Q11.05 17.3 8.2 18.8 5.45 20.15 2.55 21.0 -0.45 22.0 -3.4 22.15 L-9.4 21.8 Q-12.15 20.85 -14.25 18.95 L-15.4 17.85 -16.15 16.95 -17.75 14.4 Q-18.8 12.15 -19.45 9.75 L-19.6 9.15 -19.65 9.05 Q-20.3 5.95 -20.1 2.8 -20.05 0.2 -19.45 -2.5 L-18.1 -6.55 -17.9 -7.05 Q-15.45 -12.65 -11.2 -17.0 M18.75 7.8 Q18.05 9.4 15.9 11.65 L13.65 13.85 Q8.75 18.35 0.6 19.85 -7.65 21.3 -11.6 19.75 -14.2 18.7 -15.4 17.85 -14.2 18.7 -11.6 19.75 -7.65 21.3 0.6 19.85 8.75 18.35 13.65 13.85 L15.9 11.65 Q18.05 9.4 18.75 7.8"/><path fill="#61664b" stroke="none" d="M-8.7 -2.95 L-8.55 -4.0 Q1.35 -16.6 13.45 -15.55 L13.95 -15.05 15.9 -12.7 15.95 -12.65 17.4 -10.2 Q19.2 -6.45 19.85 -3.1 20.25 -0.8 20.1 1.3 L20.0 3.15 19.95 3.4 18.95 5.7 Q17.6 8.45 15.9 10.4 10.15 17.0 0.5 14.45 L-2.7 11.8 Q-9.55 5.25 -8.7 -2.95 L-3.6 -3.7 Q3.2 -5.25 8.7 -9.75 14.0 -14.05 13.95 -15.05 14.0 -14.05 8.7 -9.75 3.2 -5.25 -3.6 -3.7 L-8.7 -2.95 M19.85 -3.1 Q20.15 -0.3 15.9 3.25 L14.3 4.45 Q8.3 8.75 -0.85 11.3 L-2.7 11.8 -0.85 11.3 Q8.3 8.75 14.3 4.45 L15.9 3.25 Q20.15 -0.3 19.85 -3.1"/><path fill="none" stroke="#cccccc" stroke-width="0.5" stroke-opacity="0.498039215686" d="M4.3 -20.9 Q4.1 -20.15 2.95 -18.7 1.75 -17.25 -2.05 -16.4 L-8.4 -15.9 Q-10.95 -16.2 -11.2 -17.0 M-18.1 -6.55 Q-18.4 -4.9 -14.4 -3.55 -12.05 -2.75 -8.7 -2.95 L-3.6 -3.7 Q3.2 -5.25 8.7 -9.75 14.0 -14.05 13.95 -15.05 L13.45 -15.55 M-19.6 9.15 L-19.45 9.75 Q-18.65 10.8 -14.95 12.1 -10.6 13.6 -2.7 11.8 L-0.85 11.3 Q8.3 8.75 14.3 4.45 L15.9 3.25 Q20.15 -0.3 19.85 -3.1 20.25 -0.8 20.1 1.3 L20.0 3.15 M-15.4 17.85 L-16.15 16.95 M13.95 -15.05 L15.9 -12.7 15.95 -12.65 17.4 -10.2 Q19.2 -6.45 19.85 -3.1 M19.05 6.95 L18.75 7.8 M-15.4 17.85 Q-14.2 18.7 -11.6 19.75 -7.65 21.3 0.6 19.85 8.75 18.35 13.65 13.85 L15.9 11.65 Q18.05 9.4 18.75 7.8"/><path fill="none" stroke="#000000" stroke-width="0.5" stroke-opacity="0.4" d="M-11.2 -17.0 Q-15.45 -12.65 -17.9 -7.05 L-18.1 -6.55 -19.45 -2.5 Q-20.05 0.2 -20.1 2.8 -20.3 5.95 -19.65 9.05 L-19.6 9.15 M13.45 -15.55 Q11.8 -17.2 10.0 -18.3 L8.6 -18.9 7.65 -19.35 4.3 -20.9 2.95 -21.4 Q-4.05 -23.75 -9.55 -18.65 L-11.2 -17.0 M-16.15 16.95 L-17.75 14.4 Q-18.8 12.15 -19.45 9.75 M19.95 3.4 L19.75 4.45 M19.8 4.65 L19.2 6.5 19.15 6.65 19.05 6.95 M18.75 7.8 L17.5 10.4 15.9 12.6 13.5 15.1 Q11.05 17.3 8.2 18.8 5.45 20.15 2.55 21.0 -0.45 22.0 -3.4 22.15 L-9.4 21.8 Q-12.15 20.85 -14.25 18.95 L-15.4 17.85"/><path fill="#1a1a1a" stroke="none" d="M9.25 18.3 Q5.65 20.2 1.65 20.9 -2.4 21.65 -1.4 18.65 -0.4 15.6 3.1 10.4 6.5 5.2 8.6 3.95 10.5 2.75 13.8 3.3 16.95 3.8 18.4 5.85 19.85 7.85 16.45 12.1 12.9 16.35 9.25 18.3"/><path fill="none" stroke="#000000" stroke-width="0.5" stroke-opacity="0.301960784314" d="M9.25 18.3 Q5.65 20.2 1.65 20.9 -2.4 21.65 -1.4 18.65 -0.4 15.6 3.1 10.4 6.5 5.2 8.6 3.95 10.5 2.75 13.8 3.3 16.95 3.8 18.4 5.85 19.85 7.85 16.45 12.1 12.9 16.35 9.25 18.3"/><path fill="#2b2b2b" stroke="none" d="M8.9 18.4 Q5.5 20.15 1.8 20.8 -1.95 21.45 -0.95 18.7 -0.1 15.85 3.2 11.0 6.3 6.15 8.25 5.05 10.05 3.95 13.1 4.4 16.1 4.95 17.4 6.8 18.75 8.65 15.55 12.6 12.25 16.55 8.9 18.4"/><path fill="none" stroke="#000000" stroke-width="0.5" stroke-opacity="0.301960784314" d="M8.9 18.4 Q5.5 20.15 1.8 20.8 -1.95 21.45 -0.95 18.7 -0.1 15.85 3.2 11.0 6.3 6.15 8.25 5.05 10.05 3.95 13.1 4.4 16.1 4.95 17.4 6.8 18.75 8.65 15.55 12.6 12.25 16.55 8.9 18.4"/><path fill="#1a1a1a" fill-opacity="0.301960784314" d="M11.7 4.95 L11.75 4.95 12.55 5.35 12.55 5.8 12.05 6.5 12.05 14.75 12.55 14.95 12.55 15.45 10.5 16.6 10.5 16.55 9.65 16.1 9.65 15.7 10.15 15.0 10.15 6.8 9.7 6.55 9.65 6.5 9.65 6.05 9.7 6.0 9.75 6.0 11.7 4.95 M6.6 7.55 L6.7 7.55 8.6 6.55 8.7 6.55 9.45 6.9 9.45 7.35 9.0 8.05 9.0 16.3 9.45 16.55 9.45 17.0 7.4 18.15 7.4 18.1 6.55 17.7 6.55 17.3 7.05 16.6 7.05 8.35 6.6 8.1 6.55 8.1 6.55 7.7 6.6 7.55"/></g><g id="c19"><path fill="#2d3328" stroke="none" d="M5.3 72.25 L5.25 72.25 5.25 72.1 5.3 72.25"/><path fill="#ffcd2f" stroke="none" d="M0.85 6.5 L0.75 6.35 13.0 0.15 13.1 0.0 18.25 2.55 5.65 8.9 0.85 6.5"/><path fill="#d6a426" stroke="none" d="M18.25 2.55 L18.25 5.35 15.25 9.85 15.25 61.25 18.25 62.75 18.25 65.75 5.3 72.25 5.25 72.1 5.25 69.25 5.45 69.15 8.25 65.0 8.45 64.65 8.45 13.65 5.25 12.05 5.25 9.05 5.65 8.9 18.25 2.55"/><path fill="#a07b1c" stroke="none" d="M5.25 72.1 L0.0 69.55 0.0 66.85 0.1 66.9 1.0 67.35 1.6 67.45 5.25 69.25 5.25 72.1 M3.1 62.5 L3.2 62.25 3.2 11.25 0.45 9.9 0.0 9.5 0.1 9.35 0.0 9.35 0.0 6.65 0.4 6.5 0.85 6.5 5.65 8.9 5.25 9.05 5.25 12.05 8.45 13.65 8.45 64.65 8.25 65.0 3.1 62.5"/><path fill="#deaa28" stroke="none" d="M0.1 66.9 L3.1 62.5 8.25 65.0 5.45 69.15 5.25 69.25 1.6 67.45 1.0 67.35 0.1 66.9"/><path fill="none" stroke="#000000" stroke-width="0.5" stroke-opacity="0.301960784314" d="M18.25 2.55 L18.25 5.35 15.25 9.85 15.25 61.25 18.25 62.75 18.25 65.75 5.3 72.25 M5.25 72.1 L0.0 69.55 0.0 66.85 0.1 66.9 3.1 62.5 3.2 62.25 3.2 11.25 0.45 9.9 0.0 9.5 0.1 9.35 0.0 9.35 0.0 6.65 0.4 6.5 0.85 6.5 0.75 6.35 13.0 0.15 13.1 0.0 18.25 2.55"/></g><g id="c20"><g><use transform="matrix(1.0,0.0,0.0,1.0,0.0,0.0)" xlink:href="#c19"/></g></g><g id="c21"><path fill="#b9ae9a" stroke="none" d="M-19.4 8.35 L-19.75 8.6 -20.1 8.4 -20.2 7.85 -20.1 7.3 -19.75 7.05 Q-19.55 7.05 -19.4 7.25 -19.25 7.5 -19.25 7.8 L-19.4 8.35"/><path fill="#d8d1c9" stroke="none" d="M-19.6 7.75 L-19.8 7.9 -20.05 7.75 -20.1 7.4 -20.05 7.05 -19.8 6.9 Q-19.7 6.9 -19.6 7.05 L-19.5 7.4 -19.6 7.75"/><path fill="#b9ae9a" stroke="none" d="M-17.45 10.0 L-17.8 10.25 -18.15 10.05 -18.25 9.5 -18.15 8.95 -17.8 8.7 -17.45 8.9 Q-17.3 9.15 -17.3 9.45 L-17.45 10.0"/><path fill="#d8d1c9" stroke="none" d="M-17.65 9.4 L-17.85 9.55 -18.1 9.4 -18.15 9.05 -18.1 8.7 -17.85 8.55 Q-17.75 8.55 -17.65 8.7 L-17.55 9.05 -17.65 9.4"/><path fill="#b9ae9a" stroke="none" d="M-14.3 11.2 L-14.65 11.45 -15.0 11.25 -15.1 10.7 -15.0 10.15 -14.65 9.9 -14.3 10.1 Q-14.15 10.35 -14.15 10.65 L-14.3 11.2"/><path fill="#d8d1c9" stroke="none" d="M-14.5 10.8 L-14.7 10.95 -14.95 10.8 -15.0 10.45 -14.95 10.1 -14.7 9.95 -14.5 10.1 -14.4 10.45 -14.5 10.8"/><path fill="#b9ae9a" stroke="none" d="M-11.05 11.85 L-11.4 12.1 -11.75 11.9 -11.85 11.35 -11.75 10.8 -11.4 10.55 -11.05 10.75 -10.9 11.3 -11.05 11.85"/><path fill="#d8d1c9" stroke="none" d="M-11.25 11.25 L-11.45 11.4 -11.7 11.25 -11.75 10.9 -11.7 10.55 Q-11.55 10.4 -11.45 10.4 L-11.25 10.55 -11.15 10.9 -11.25 11.25"/><path fill="#b9ae9a" stroke="none" d="M-7.6 11.85 L-7.95 12.1 -8.3 11.9 -8.4 11.35 -8.3 10.8 -7.95 10.55 Q-7.75 10.55 -7.6 10.75 -7.45 11.0 -7.45 11.3 L-7.6 11.85"/><path fill="#d8d1c9" stroke="none" d="M-7.8 11.35 L-8.0 11.5 -8.25 11.35 -8.3 11.0 -8.25 10.65 Q-8.1 10.5 -8.0 10.5 L-7.8 10.65 -7.7 11.0 -7.8 11.35"/><path fill="#b9ae9a" stroke="none" d="M-2.8 11.15 L-3.15 11.4 -3.5 11.2 -3.6 10.65 -3.5 10.1 -3.15 9.85 -2.8 10.05 -2.65 10.6 -2.8 11.15"/><path fill="#d8d1c9" stroke="none" d="M-3.0 10.6 L-3.2 10.75 -3.45 10.6 -3.5 10.25 -3.45 9.9 Q-3.3 9.75 -3.2 9.75 L-3.0 9.9 -2.9 10.25 -3.0 10.6"/><path fill="#b9ae9a" stroke="none" d="M1.7 10.05 L1.35 10.3 1.0 10.1 0.9 9.55 1.0 9.0 Q1.2 8.8 1.35 8.75 L1.7 8.95 1.85 9.5 1.7 10.05"/><path fill="#d8d1c9" stroke="none" d="M1.5 9.4 L1.3 9.55 1.05 9.4 1.0 9.05 1.05 8.7 Q1.2 8.55 1.3 8.55 L1.5 8.7 1.6 9.05 1.5 9.4"/><path fill="#b9ae9a" stroke="none" d="M15.75 3.2 L15.4 3.45 Q15.25 3.5 15.05 3.25 L14.95 2.7 15.05 2.15 15.4 1.9 15.75 2.1 15.9 2.65 15.75 3.2"/><path fill="#d8d1c9" stroke="none" d="M15.55 2.65 L15.35 2.8 15.1 2.65 15.05 2.3 15.1 1.95 15.35 1.8 15.55 1.95 15.65 2.3 15.55 2.65"/><path fill="#b9ae9a" stroke="none" d="M18.25 0.55 L17.9 0.8 17.55 0.6 17.45 0.05 17.55 -0.5 17.9 -0.75 18.25 -0.55 18.4 0.0 18.25 0.55"/><path fill="#d8d1c9" stroke="none" d="M18.05 0.0 L17.85 0.15 17.6 0.0 17.55 -0.35 17.6 -0.7 17.85 -0.85 18.05 -0.7 18.15 -0.35 18.05 0.0"/><path fill="#b9ae9a" stroke="none" d="M19.7 -2.15 L19.35 -1.9 Q19.2 -1.85 19.0 -2.1 L18.9 -2.65 19.0 -3.2 19.35 -3.45 19.7 -3.25 19.85 -2.7 19.7 -2.15"/><path fill="#d8d1c9" stroke="none" d="M19.55 -2.75 Q19.45 -2.6 19.35 -2.6 19.25 -2.6 19.1 -2.75 L19.05 -3.1 19.1 -3.45 19.35 -3.6 19.55 -3.45 19.65 -3.1 19.55 -2.75"/><path fill="#2e2c27" stroke="none" d="M-6.65 -16.65 Q-8.25 -17.15 -8.4 -18.25 -8.55 -19.4 -7.1 -20.45 -5.65 -21.55 -3.5 -22.05 -1.35 -22.55 0.25 -22.1 1.85 -21.7 2.0 -20.55 2.15 -19.45 0.7 -18.3 -0.7 -17.25 -2.85 -16.75 L-6.65 -16.65"/><path fill="none" stroke="#000000" stroke-width="0.5" stroke-opacity="0.301960784314" d="M-6.65 -16.65 Q-8.25 -17.15 -8.4 -18.25 -8.55 -19.4 -7.1 -20.45 -5.65 -21.55 -3.5 -22.05 -1.35 -22.55 0.25 -22.1 1.85 -21.7 2.0 -20.55 2.15 -19.45 0.7 -18.3 -0.7 -17.25 -2.85 -16.75 L-6.65 -16.65"/><path fill="#040404" stroke="none" d="M-5.8 -16.75 Q-7.1 -17.05 -7.2 -17.9 -7.3 -18.7 -6.15 -19.5 -4.95 -20.35 -3.2 -20.75 L-0.2 -20.85 Q1.15 -20.6 1.25 -19.8 1.35 -18.95 0.15 -18.1 -0.95 -17.3 -2.7 -16.9 L-5.8 -16.75"/><path fill="none" stroke="#000000" stroke-width="0.5" stroke-opacity="0.301960784314" d="M-5.8 -16.75 Q-7.1 -17.05 -7.2 -17.9 -7.3 -18.7 -6.15 -19.5 -4.95 -20.35 -3.2 -20.75 L-0.2 -20.85 Q1.15 -20.6 1.25 -19.8 1.35 -18.95 0.15 -18.1 -0.95 -17.3 -2.7 -16.9 L-5.8 -16.75"/></g><g id="c22"><g><use transform="matrix(1.0,0.0,0.0,1.0,0.0,0.0)" xlink:href="#c18"/></g><g><use transform="matrix(0.160369873047,-0.003662109375,0.0,0.160369873047,6.6,6.6)" xlink:href="#c20"/></g><g><use transform="matrix(0.160369873047,-0.003662109375,0.0,0.160369873047,9.65,5.0)" xlink:href="#c20"/></g><g><use transform="matrix(1.0,0.0,0.0,1.0,0.0,0.0)" xlink:href="#c21"/></g></g><g id="c23"><path fill="#403e2f" stroke="none" d="M-1.0 -4.7 L-0.65 -4.5 0.25 -2.4 0.15 -2.0 Q-0.85 2.45 -2.1 2.15 -3.35 -0.8 -3.25 -4.25 L-1.6 -4.65 -1.0 -4.7"/><path fill="#312f24" stroke="none" d="M-2.1 2.15 Q-0.85 2.45 0.15 -2.0 L0.25 -2.4 -0.65 -4.5 0.65 -3.1 1.35 -2.1 3.35 2.3 2.8 3.65 Q1.0 5.7 -1.35 3.8 L-2.1 2.15"/><path fill="none" stroke="#000000" stroke-width="0.5" stroke-opacity="0.4" d="M-1.0 -4.7 L-1.6 -4.65 -3.25 -4.25 Q-3.35 -0.8 -2.1 2.15 M3.35 2.3 L2.8 3.65 Q1.0 5.7 -1.35 3.8 L-2.1 2.15"/></g><g id="c24"><g><use transform="matrix(1.0,0.0,0.0,1.0,0.0,0.0)" xlink:href="#c23"/></g></g><linearGradient gradientUnits="userSpaceOnUse" x1="-819.2" x2="819.2" spreadMethod="pad" gradientTransform="matrix(-0.00210571289062,0.00369262695312,-0.00605773925781,-0.00685119628906,-1.25,2.95)" id="gradient5"><stop offset="0.0" stop-color="#ffffff"/><stop offset="1.0" stop-color="#c9dbed"/></linearGradient><g id="c25"><path fill="#312f24" stroke="none" d="M0.45 -2.7 L3.55 -3.1 6.2 -2.65 Q5.85 -1.05 4.1 -0.2 L2.6 0.3 1.9 0.5 1.95 0.5 0.95 1.0 -0.75 0.9 0.8 -2.1 0.45 -2.7"/><path fill="#1d1c16" stroke="none" d="M6.2 -2.65 L3.55 -3.1 0.45 -2.7 -0.1 -3.3 0.75 -4.6 Q1.35 -5.75 3.05 -5.7 4.35 -5.55 6.25 -4.55 L6.2 -2.65 M0.95 1.0 L1.95 0.5 Q4.9 1.55 6.0 3.55 L6.25 4.15 6.2 4.15 Q6.45 5.65 1.8 5.35 L1.05 6.4 1.1 6.3 Q0.85 5.55 0.1 5.15 L0.45 4.45 1.65 3.5 1.4 2.65 1.45 2.6 1.35 2.1 1.05 1.15 0.95 1.0"/><path fill="#595741" stroke="none" d="M0.45 -2.7 L0.8 -2.1 -0.75 0.9 -0.95 0.9 -0.75 0.9 Q0.55 1.15 1.0 1.85 L1.4 2.6 1.45 2.6 1.4 2.65 1.65 3.5 0.45 4.45 -0.2 4.85 -0.1 4.95 0.1 5.15 Q0.85 5.55 1.1 6.3 L1.05 6.4 1.1 6.4 1.1 6.45 1.3 8.1 0.2 8.8 Q0.2 8.75 0.1 8.85 L-0.8 9.1 -0.8 9.0 -0.55 8.45 Q-0.3 7.0 -0.95 5.3 L-1.0 5.25 -0.2 4.85 -1.0 5.25 -1.05 5.3 -1.05 5.25 -1.05 5.1 -1.4 4.3 -0.95 4.5 Q-0.75 2.5 -3.2 0.7 L-0.95 0.9 Q-1.3 -1.65 -4.05 -2.1 -1.3 -3.85 -0.2 -3.35 L-0.1 -3.3 0.45 -2.7 M-6.0 -2.2 L-5.95 -3.9 Q-3.6 -9.5 1.85 -12.7 2.6 -11.25 2.15 -8.75 -2.85 -6.25 -6.0 -2.2"/><path fill="#424131" stroke="none" d="M-0.75 0.9 L0.95 1.0 1.05 1.15 1.35 2.1 1.45 2.6 1.4 2.6 1.0 1.85 Q0.55 1.15 -0.75 0.9 M0.75 -4.6 L-0.1 -3.3 -0.2 -3.35 Q-1.3 -3.85 -4.05 -2.1 -1.3 -1.65 -0.95 0.9 L-3.2 0.7 Q-0.75 2.5 -0.95 4.5 L-1.4 4.3 -1.05 5.1 -1.05 5.25 -1.05 5.3 -0.95 5.3 Q-0.3 7.0 -0.55 8.45 L-1.25 7.95 -2.4 8.05 -5.35 4.75 -5.4 4.15 -5.55 2.05 -5.7 1.9 -6.0 -2.2 Q-2.85 -6.25 2.15 -8.75 1.8 -6.85 0.75 -4.6 M0.45 4.45 L0.1 5.15 -0.1 4.95 -0.2 4.85 0.45 4.45"/><path stroke="none" fill="url(#gradient5)" d="M-1.0 5.25 L-0.95 5.3 -1.05 5.3 -1.0 5.25 M0.1 8.85 Q0.2 8.75 0.2 8.8 L0.2 8.95 0.1 8.85"/><path fill="none" stroke="#000000" stroke-width="0.5" stroke-opacity="0.4" d="M0.45 -2.7 L0.8 -2.1 -0.75 0.9 0.95 1.0 M1.95 0.5 L1.9 0.5 2.6 0.3 4.1 -0.2 Q5.85 -1.05 6.2 -2.65 L6.25 -4.55 Q4.35 -5.55 3.05 -5.7 1.35 -5.75 0.75 -4.6 L-0.1 -3.3 0.45 -2.7 M-0.1 -3.3 L-0.2 -3.35 Q-1.3 -3.85 -4.05 -2.1 M-0.95 0.9 L-0.75 0.9 Q0.55 1.15 1.0 1.85 L1.4 2.6 1.45 2.6 1.35 2.1 1.05 1.15 0.95 1.0 M-6.0 -2.2 L-5.95 -3.9 Q-3.6 -9.5 1.85 -12.7 2.6 -11.25 2.15 -8.75 1.8 -6.85 0.75 -4.6 M-3.2 0.7 L-0.95 0.9 M1.45 2.6 L1.4 2.65 1.65 3.5 0.45 4.45 0.1 5.15 Q0.85 5.55 1.1 6.3 L1.05 6.4 1.8 5.35 Q6.45 5.65 6.2 4.15 M6.25 4.15 L6.0 3.55 Q4.9 1.55 1.95 0.5 M-0.2 4.85 L0.45 4.45 M0.1 5.15 L-0.1 4.95 -0.2 4.85 -1.0 5.25 -1.05 5.3 -1.05 5.25 M-0.8 9.0 L-0.8 9.1 0.1 8.85 Q0.2 8.75 0.2 8.8 L1.3 8.1 1.1 6.45 1.1 6.4 1.05 6.4 M-1.4 4.3 L-0.95 4.5 M-5.7 1.9 L-6.0 -2.2 M-5.4 4.15 L-5.35 4.75 M-5.7 1.9 L-5.55 2.05 M-5.4 4.15 L-5.7 1.9 M0.2 8.8 L0.2 8.95"/></g><g id="c26"><g><use transform="matrix(1.0,0.0,0.0,1.0,0.0,0.0)" xlink:href="#c25"/></g></g><g id="c27"><path fill="#585446" stroke="none" d="M-0.35 -3.05 L0.85 -2.75 Q2.05 -2.4 2.45 -1.9 L3.2 0.25 3.3 1.3 2.4 1.75 0.1 1.7 0.85 0.15 0.8 -0.15 Q0.45 -0.95 -0.5 -0.95 L-1.4 -1.1 -1.4 -1.4 -1.5 -1.65 -1.4 -1.9 -0.95 -2.45 -0.35 -3.05"/><path fill="none" stroke="#000000" stroke-width="0.5" stroke-opacity="0.4" d="M-0.35 -3.05 L0.85 -2.75 Q2.05 -2.4 2.45 -1.9 L3.2 0.25 3.3 1.3 2.4 1.75 0.1 1.7 0.85 0.15 0.8 -0.15 Q0.45 -0.95 -0.5 -0.95 L-1.4 -1.1 -1.4 -1.4 -1.5 -1.65 -1.4 -1.9 -0.95 -2.45 -0.35 -3.05"/><path fill="#585446" stroke="none" d="M-3.2 -0.2 L-3.2 -0.45 -3.15 -0.75 -2.65 -1.25 -2.15 -1.9 -0.85 -1.55 0.65 -0.65 1.35 1.5 1.55 2.5 0.65 2.9 -1.6 3.0 -0.9 1.35 -1.0 1.1 Q-1.3 0.25 -2.15 0.25 L-3.1 0.1 -3.2 -0.2"/><path fill="none" stroke="#000000" stroke-width="0.5" stroke-opacity="0.4" d="M-3.2 -0.2 L-3.2 -0.45 -3.15 -0.75 -2.65 -1.25 -2.15 -1.9 -0.85 -1.55 0.65 -0.65 1.35 1.5 1.55 2.5 0.65 2.9 -1.6 3.0 -0.9 1.35 -1.0 1.1 Q-1.3 0.25 -2.15 0.25 L-3.1 0.1 -3.2 -0.2"/></g><g id="c28"><g><use transform="matrix(1.0,0.0,0.0,1.0,0.0,0.0)" xlink:href="#c27"/></g></g><radialGradient gradientUnits="userSpaceOnUse" r="819.2" cx="0" cy="0" spreadMethod="pad" gradientTransform="matrix(0.00419616699219,-0.00189208984375,-3.0517578125e-05,0.00706481933594,7.9,-2.7)" id="gradient6"><stop offset="0.43137254902" stop-color="#66ffff" stop-opacity="0.650980392157"/><stop offset="1.0" stop-color="#66ffff" stop-opacity="0.0"/></radialGradient><radialGradient gradientUnits="userSpaceOnUse" r="819.2" cx="0" cy="0" spreadMethod="pad" gradientTransform="matrix(0.00469970703125,-0.00205993652344,0.0,0.00738525390625,-5.25,5.35)" id="gradient7"><stop offset="0.43137254902" stop-color="#66ffff" stop-opacity="0.650980392157"/><stop offset="1.0" stop-color="#66ffff" stop-opacity="0.0"/></radialGradient><g id="c29"><path fill="#333333" stroke="none" d="M8.5 3.55 L5.9 3.4 5.5 3.2 4.6 3.75 3.5 0.3 Q4.2 -6.8 9.75 -7.45 11.55 -6.15 12.05 -4.3 12.7 -2.55 12.25 -0.35 L11.95 0.1 Q11.65 1.95 10.25 2.85 9.6 3.3 8.5 3.55"/><path fill="#26231e" stroke="none" d="M5.2 -3.8 L6.0 -5.1 Q7.15 -6.3 8.6 -6.3 10.05 -6.4 11.05 -5.15 11.9 -4.1 11.85 -2.4 L11.9 -2.25 11.75 -1.1 Q11.35 -0.1 10.6 0.8 9.35 1.95 7.95 2.0 6.4 2.1 5.45 0.85 4.55 -0.35 4.7 -2.1 4.8 -3.1 5.2 -3.8"/><path fill="none" stroke="#000000" stroke-width="0.5" stroke-opacity="0.4" d="M5.2 -3.8 Q4.8 -3.1 4.7 -2.1 4.55 -0.35 5.45 0.85 6.4 2.1 7.95 2.0 9.35 1.95 10.6 0.8 11.35 -0.1 11.75 -1.1 L11.9 -2.25 11.85 -2.4 Q11.9 -4.1 11.05 -5.15 10.05 -6.4 8.6 -6.3 7.15 -6.3 6.0 -5.1 L5.2 -3.8"/><path stroke="none" fill="url(#gradient6)" d="M11.25 -4.15 Q11.25 -1.75 10.2 0.35 9.2 2.5 7.8 3.1 6.35 3.8 5.45 2.55 4.4 1.25 4.45 -1.05 4.45 -3.45 5.5 -5.6 6.45 -7.8 7.85 -8.5 9.35 -9.1 10.35 -7.85 11.3 -6.5 11.25 -4.15"/><path fill="#bff2d3" stroke="none" d="M9.5 -4.75 L8.55 -4.8 8.1 -4.7 Q7.4 -4.4 6.85 -3.7 6.2 -2.7 6.1 -1.65 6.1 -0.6 6.85 0.0 7.45 0.6 8.3 0.55 L8.5 0.5 Q9.25 0.35 9.9 -0.35 L8.55 0.75 8.0 0.9 Q6.95 1.1 6.2 0.35 5.35 -0.3 5.35 -1.45 5.45 -2.7 6.2 -3.75 6.95 -4.7 8.05 -5.0 L8.35 -5.0 9.5 -4.75"/><path fill="#e3faee" stroke="none" d="M9.9 -0.35 Q9.25 0.35 8.5 0.5 L8.3 0.55 Q7.45 0.6 6.85 0.0 6.1 -0.6 6.1 -1.65 6.2 -2.7 6.85 -3.7 7.4 -4.4 8.1 -4.7 L8.55 -4.8 9.5 -4.75 10.0 -4.45 Q10.6 -3.7 10.6 -2.5 10.65 -1.35 9.9 -0.35"/><path fill="none" stroke="#000000" stroke-width="0.5" stroke-opacity="0.372549019608" d="M9.5 -4.75 L8.35 -5.0 8.05 -5.0 Q6.95 -4.7 6.2 -3.75 5.45 -2.7 5.35 -1.45 5.35 -0.3 6.2 0.35 6.95 1.1 8.0 0.9 L8.55 0.75 9.9 -0.35 Q10.65 -1.35 10.6 -2.5 10.6 -3.7 10.0 -4.45 L9.5 -4.75"/><path fill="#c8a935" stroke="none" d="M9.85 -9.05 L9.85 -8.6 9.8 -8.4 10.15 -8.2 10.5 -8.55 10.5 -8.6 11.45 -8.1 11.25 -7.5 11.5 -7.2 11.65 -7.25 12.0 -7.5 12.65 -6.6 12.5 -6.45 12.4 -6.3 12.35 -6.1 12.5 -5.65 13.05 -5.85 13.5 -4.9 13.0 -4.45 13.2 -3.95 13.3 -4.05 13.6 -3.95 13.8 -2.8 13.35 -2.6 Q13.25 -2.35 13.3 -2.1 L13.5 -2.05 13.75 -1.9 13.65 -0.75 13.3 -0.7 13.15 -0.65 13.0 -0.2 13.0 -0.15 13.45 0.1 13.05 1.25 12.45 1.3 12.3 1.65 12.6 2.05 12.0 3.1 11.9 3.05 11.8 3.15 11.45 2.9 11.35 3.0 11.25 3.2 11.2 3.1 11.0 3.2 11.0 3.4 11.2 3.65 11.2 3.75 10.35 4.6 10.2 4.5 10.0 4.3 9.85 4.25 9.5 4.4 9.55 4.6 9.5 4.85 9.55 4.95 8.6 5.45 8.3 5.2 8.3 5.0 7.8 5.2 7.75 5.4 7.7 5.75 6.65 5.9 6.55 5.45 6.1 5.5 5.85 6.05 4.8 5.9 4.8 5.55 4.85 5.35 4.35 5.2 4.05 5.65 3.0 5.3 3.2 4.7 2.9 4.5 2.85 4.45 2.7 4.55 2.4 4.8 1.55 4.25 1.8 3.85 1.85 3.6 1.55 3.3 1.45 3.4 1.15 3.45 0.5 2.7 0.8 2.25 0.85 2.2 0.7 1.85 0.8 1.85 1.45 1.55 1.55 1.55 1.65 0.1 2.0 1.4 2.3 1.95 3.4 3.2 4.8 3.85 Q6.05 4.3 7.45 3.85 8.95 3.5 10.1 2.35 L11.05 1.2 11.3 0.85 11.3 0.8 11.75 -0.15 12.05 -1.9 Q12.1 -3.35 11.5 -4.75 10.85 -6.3 9.55 -6.95 L8.45 -7.45 8.0 -7.5 8.05 -7.95 8.1 -8.05 8.3 -8.8 8.3 -8.85 8.6 -8.9 8.65 -9.0 8.85 -9.2 8.9 -9.3 9.85 -9.05"/><path fill="#333333" stroke="none" d="M-10.5 8.4 Q-11.6 6.9 -11.25 4.3 -7.15 -2.15 -0.25 2.3 L1.6 5.4 0.65 5.8 0.4 6.35 Q-0.45 7.95 -1.4 8.95 L-3.25 10.4 Q-4.95 11.4 -6.7 10.8 L-7.25 10.7 Q-9.45 9.95 -10.5 8.4"/><path fill="#26231e" stroke="none" d="M-9.0 3.85 Q-8.75 3.1 -8.1 2.5 -6.8 1.25 -5.1 1.15 -3.4 0.95 -2.1 2.0 -1.15 3.05 -1.15 4.75 L-1.2 4.95 Q-1.3 6.65 -2.6 8.05 -4.0 9.25 -5.75 9.4 -7.4 9.55 -8.55 8.55 -9.65 7.3 -9.55 5.6 -9.5 4.6 -9.0 3.85"/><path fill="none" stroke="#000000" stroke-width="0.5" stroke-opacity="0.4" d="M-9.0 3.85 Q-9.5 4.6 -9.55 5.6 -9.65 7.3 -8.55 8.55 -7.4 9.55 -5.75 9.4 -4.0 9.25 -2.6 8.05 -1.3 6.65 -1.2 4.95 L-1.15 4.75 Q-1.15 3.05 -2.1 2.0 -3.4 0.95 -5.1 1.15 -6.8 1.25 -8.1 2.5 -8.75 3.1 -9.0 3.85"/><path stroke="none" fill="url(#gradient7)" d="M-1.35 3.8 Q-1.35 6.3 -2.45 8.55 -3.6 10.75 -5.15 11.4 -6.8 12.2 -7.8 10.85 -8.9 9.55 -8.95 7.05 -8.95 4.55 -7.85 2.3 -6.7 0.0 -5.1 -0.7 -3.5 -1.45 -2.4 -0.1 -1.3 1.25 -1.35 3.8"/><path fill="#e3faee" stroke="none" d="M-3.1 2.85 L-2.6 3.2 Q-1.9 4.0 -1.9 5.25 -1.85 6.45 -2.65 7.6 -3.4 8.25 -4.25 8.4 L-4.45 8.45 Q-5.4 8.55 -6.05 7.9 -6.95 7.3 -6.95 6.2 -6.9 5.05 -6.05 4.05 L-4.7 3.0 -4.2 2.8 -3.1 2.85"/><path fill="#bff2d3" stroke="none" d="M-3.1 2.85 L-4.2 2.8 -4.7 3.0 -6.05 4.05 Q-6.9 5.05 -6.95 6.2 -6.95 7.3 -6.05 7.9 -5.4 8.55 -4.45 8.45 L-4.25 8.4 Q-3.4 8.25 -2.65 7.6 L-4.2 8.7 -4.8 8.85 Q-5.95 9.1 -6.8 8.3 -7.8 7.6 -7.8 6.4 -7.75 5.1 -6.8 4.0 -5.95 2.95 -4.75 2.65 L-4.4 2.6 -3.1 2.85"/><path fill="none" stroke="#000000" stroke-width="0.5" stroke-opacity="0.372549019608" d="M-2.65 7.6 Q-1.85 6.45 -1.9 5.25 -1.9 4.0 -2.6 3.2 L-3.1 2.85 M-2.65 7.6 L-4.2 8.7 -4.8 8.85 Q-5.95 9.1 -6.8 8.3 -7.8 7.6 -7.8 6.4 -7.75 5.1 -6.8 4.0 -5.95 2.95 -4.75 2.65 L-4.4 2.6 -3.1 2.85"/><path fill="#ffffff" stroke="none" d="M-3.35 5.6 L-3.5 5.75 -3.65 5.5 -3.8 5.05 -3.7 4.6 -3.55 4.45 -3.4 4.7 -3.35 5.15 -3.35 5.6"/><path fill="#c8a935" stroke="none" d="M-8.9 -1.1 L-8.65 -1.25 Q-8.55 -1.15 -8.45 -1.15 L-8.15 -0.65 -8.05 -0.5 -7.85 -0.2 -8.3 0.15 -9.55 1.3 Q-10.7 2.7 -11.05 4.45 -11.4 6.05 -10.95 7.35 L-10.05 8.8 -9.25 9.45 -9.25 9.55 -8.85 9.7 -7.55 10.25 -3.95 10.0 Q-2.25 9.5 -0.95 8.4 L0.5 7.0 1.4 5.2 1.65 4.55 1.7 3.05 2.2 4.35 2.3 4.25 3.1 4.2 3.25 4.15 3.15 4.55 3.35 4.55 3.7 4.8 3.25 5.9 2.9 6.0 2.6 6.0 2.35 6.45 2.55 6.55 2.85 6.85 2.05 7.9 1.7 7.85 1.5 7.85 1.5 7.9 1.1 8.25 1.45 8.75 0.5 9.6 -0.05 9.4 -0.5 9.8 -0.3 10.35 -1.5 11.0 -1.9 10.6 -2.4 10.9 -2.5 11.5 -3.75 11.85 -3.95 11.55 -4.05 11.45 -4.6 11.55 -4.8 12.2 -6.05 12.25 -6.1 12.15 -6.25 11.75 -6.7 11.75 -6.85 11.95 -6.95 12.25 -7.1 12.4 -8.3 12.15 -8.3 12.0 -8.25 11.7 -8.25 11.55 -8.45 11.45 -8.55 11.65 -8.85 11.45 -8.9 11.55 -9.2 11.95 -9.3 11.9 -9.4 11.95 -10.4 11.35 -10.15 10.85 -10.55 10.55 -11.15 10.9 -11.85 10.05 -11.5 9.6 -11.5 9.5 -11.75 9.2 -12.4 9.4 -12.95 8.35 -12.4 8.0 -12.6 7.6 -13.25 7.6 -13.3 6.45 -12.95 6.2 -12.75 6.2 -12.7 5.65 -13.35 5.5 -13.15 4.3 -12.45 4.2 -12.4 3.7 -12.75 3.45 -12.9 3.4 -12.4 2.2 -12.0 2.25 -11.8 2.25 -11.55 1.75 -12.0 1.35 -11.15 0.35 -10.95 0.35 -10.55 0.45 -10.25 0.1 -10.3 -0.1 -10.4 -0.25 -10.45 -0.45 -9.4 -1.25 -9.25 -1.2 -9.1 -1.05 -8.9 -1.1"/><path fill="#d5be66" stroke="none" d="M4.35 0.75 L0.25 3.35 Q-2.5 4.55 -5.4 4.95 -8.15 5.6 -10.75 4.35 -13.55 2.95 -13.75 -0.05 -13.55 -2.75 -11.7 -4.75 L-9.1 -7.0 Q-6.65 -8.5 -3.9 -8.55 L-3.0 -7.95 -3.7 -5.9 Q-4.3 -3.8 -6.1 -2.95 L-5.8 -2.0 Q-5.05 -0.05 -2.9 -0.05 -0.55 -0.1 1.6 -1.05 L2.3 -1.7 Q3.2 -2.6 4.15 -4.45 5.1 -6.35 3.15 -7.65 L2.0 -7.55 Q-0.45 -7.8 -1.5 -10.0 0.35 -12.35 3.2 -12.4 5.0 -12.4 6.6 -11.7 L8.6 -10.4 Q10.8 -8.15 10.05 -5.15 9.45 -2.85 7.85 -1.35 6.4 0.0 4.3 0.75 L4.35 0.75"/><path fill="none" stroke="#000000" stroke-width="0.5" stroke-opacity="0.301960784314" d="M4.3 0.75 Q6.4 0.0 7.85 -1.35 9.45 -2.85 10.05 -5.15 10.8 -8.15 8.6 -10.4 L6.6 -11.7 Q5.0 -12.4 3.2 -12.4 0.35 -12.35 -1.5 -10.0 -0.45 -7.8 2.0 -7.55 L3.15 -7.65 Q5.1 -6.35 4.15 -4.45 3.2 -2.6 2.3 -1.7 L1.6 -1.05 Q-0.55 -0.1 -2.9 -0.05 -5.05 -0.05 -5.8 -2.0 L-6.1 -2.95 Q-4.3 -3.8 -3.7 -5.9 L-3.0 -7.95 -3.9 -8.55 Q-6.65 -8.5 -9.1 -7.0 L-11.7 -4.75 Q-13.55 -2.75 -13.75 -0.05 -13.55 2.95 -10.75 4.35 -8.15 5.6 -5.4 4.95 -2.5 4.55 0.25 3.35 L4.35 0.75"/><path fill="#c8a935" stroke="none" d="M-0.3 -8.4 Q-1.5 -9.65 0.1 -10.7 L0.95 -11.1 Q1.1 -11.35 1.4 -11.4 L2.0 -11.35 Q3.55 -11.25 5.0 -10.5 7.05 -9.65 7.95 -8.25 10.05 -4.65 6.4 -1.35 L3.95 0.45 1.85 -0.55 Q3.55 -1.95 4.55 -3.3 5.35 -4.2 5.4 -5.05 7.2 -6.8 4.7 -8.75 L4.65 -8.8 4.45 -9.0 4.4 -9.0 4.0 -9.3 2.8 -9.35 Q2.2 -9.15 2.2 -8.85 L2.65 -8.55 2.85 -8.7 3.85 -8.8 Q4.3 -8.6 4.25 -8.2 3.75 -7.45 2.6 -7.35 1.3 -7.3 -0.3 -8.4"/><path fill="#522e26" stroke="none" d="M3.95 0.45 L6.4 -1.35 Q10.05 -4.65 7.95 -8.25 7.05 -9.65 5.0 -10.5 3.55 -11.25 2.0 -11.35 L1.4 -11.4 1.75 -11.55 3.15 -11.85 Q6.5 -12.45 9.05 -10.35 L10.3 -8.75 Q10.95 -7.85 10.95 -7.05 11.05 -5.0 10.3 -3.6 9.55 -2.2 7.3 -0.3 L8.65 -1.55 6.15 -0.2 5.2 0.65 4.65 0.85 4.55 0.9 4.5 0.9 3.95 0.45"/><path fill="#8f7926" stroke="none" d="M-0.3 -8.4 Q1.3 -7.3 2.6 -7.35 3.75 -7.45 4.25 -8.2 4.3 -8.6 3.85 -8.8 L2.85 -8.7 2.65 -8.55 2.2 -8.85 Q2.2 -9.15 2.8 -9.35 L4.0 -9.3 4.4 -9.0 4.45 -9.0 4.65 -8.8 4.7 -8.75 Q7.2 -6.8 5.4 -5.05 5.45 -6.25 3.85 -7.2 L4.5 -7.6 Q4.95 -8.15 4.65 -8.8 4.95 -8.15 4.5 -7.6 L3.85 -7.2 1.65 -7.25 Q0.4 -7.55 -0.3 -8.4"/><path fill="#3a211b" stroke="none" d="M7.3 -0.3 L6.25 0.45 4.9 1.2 4.5 0.9 4.55 0.9 4.65 0.85 5.2 0.65 6.15 -0.2 8.65 -1.55 7.3 -0.3"/><path fill="#362e1c" stroke="none" d="M4.9 1.2 L4.8 1.2 4.5 0.9 4.9 1.2"/><path fill="none" stroke="#000000" stroke-width="0.5" stroke-opacity="0.301960784314" d="M1.4 -11.4 Q1.1 -11.35 0.95 -11.1 L0.1 -10.7 Q-1.5 -9.65 -0.3 -8.4 0.4 -7.55 1.65 -7.25 L3.85 -7.2 4.5 -7.6 Q4.95 -8.15 4.65 -8.8 M2.85 -8.7 L2.65 -8.55 2.2 -8.85 Q2.2 -9.15 2.8 -9.35 L4.0 -9.3 4.4 -9.0 4.45 -9.0 4.65 -8.8 M1.4 -11.4 L1.75 -11.55 3.15 -11.85 Q6.5 -12.45 9.05 -10.35 L10.3 -8.75 Q10.95 -7.85 10.95 -7.05 11.05 -5.0 10.3 -3.6 9.55 -2.2 7.3 -0.3 L6.25 0.45"/><path fill="none" stroke="#f5c14b" stroke-width="0.5" stroke-opacity="0.301960784314" d="M5.4 -5.05 Q5.35 -4.2 4.55 -3.3 3.55 -1.95 1.85 -0.55 M3.95 0.45 L6.4 -1.35 Q10.05 -4.65 7.95 -8.25 7.05 -9.65 5.0 -10.5 3.55 -11.25 2.0 -11.35 L1.4 -11.4 M3.85 -7.2 Q5.45 -6.25 5.4 -5.05"/><path fill="#522e26" stroke="none" d="M-3.55 5.05 L-3.65 5.05 -3.7 5.15 -3.8 5.15 -3.9 5.15 -7.5 5.5 Q-9.75 5.5 -11.8 4.15 -12.5 3.75 -12.95 2.65 L-13.3 0.45 Q-13.25 -2.95 -9.5 -5.85 L-7.9 -7.0 -7.45 -7.25 -8.1 -6.55 Q-9.2 -5.2 -9.9 -3.35 -10.85 -0.95 -10.1 0.75 -8.55 4.6 -1.7 3.2 L2.55 1.85 2.4 2.6 2.35 2.6 2.3 2.65 2.2 2.7 1.5 3.1 1.45 3.1 Q0.85 3.2 -0.35 3.65 L-3.55 5.05"/><path fill="#c8a935" stroke="none" d="M2.55 1.85 L-1.7 3.2 Q-8.55 4.6 -10.1 0.75 -10.85 -0.95 -9.9 -3.35 -9.2 -5.2 -8.1 -6.55 L-7.45 -7.25 -6.75 -7.6 -5.7 -8.05 Q-2.95 -9.05 -2.75 -7.15 L-2.75 -7.1 Q-3.25 -5.1 -4.4 -3.85 -5.5 -2.75 -6.7 -2.8 -7.2 -2.9 -7.0 -3.45 -6.85 -4.0 -6.0 -4.35 L-5.7 -4.4 Q-5.4 -4.7 -5.6 -5.0 L-6.65 -4.75 Q-7.5 -4.25 -7.7 -3.55 L-7.75 -3.1 -7.8 -2.95 -7.75 -2.75 -7.75 -2.65 Q-7.95 0.85 -4.55 0.15 L-2.1 0.4 Q0.3 0.2 2.8 -0.85 L2.55 1.85"/><path fill="#8f7926" stroke="none" d="M-2.75 -7.1 Q-2.65 -5.95 -3.35 -4.65 -4.1 -3.05 -5.4 -2.5 -5.95 -0.5 -4.55 0.15 -7.95 0.85 -7.75 -2.65 L-7.75 -2.75 -7.8 -2.95 -7.75 -3.1 -7.7 -3.55 Q-7.5 -4.25 -6.65 -4.75 L-5.6 -5.0 Q-5.4 -4.7 -5.7 -4.4 L-6.0 -4.35 Q-6.85 -4.0 -7.0 -3.45 -7.2 -2.9 -6.7 -2.8 -5.5 -2.75 -4.4 -3.85 -3.25 -5.1 -2.75 -7.1 M-5.4 -2.5 L-6.4 -2.2 Q-7.35 -2.0 -7.75 -2.75 -7.35 -2.0 -6.4 -2.2 L-5.4 -2.5"/><path fill="#3a211b" stroke="none" d="M-3.55 5.05 L-0.35 3.65 Q0.85 3.2 1.45 3.1 L1.5 3.1 2.2 2.7 2.3 2.65 2.3 3.25 0.35 4.05 -1.45 4.55 -1.5 4.55 -3.15 5.0 -3.55 5.05"/><path fill="#362e1c" stroke="none" d="M2.3 2.65 L2.35 2.6 2.4 2.6 2.35 3.15 2.3 3.25 2.3 2.65"/><path fill="none" stroke="#000000" stroke-width="0.5" stroke-opacity="0.301960784314" d="M-7.45 -7.25 L-7.9 -7.0 -9.5 -5.85 Q-13.25 -2.95 -13.3 0.45 L-12.95 2.65 Q-12.5 3.75 -11.8 4.15 -9.75 5.5 -7.5 5.5 L-3.9 5.15 -3.8 5.15 -3.7 5.15 -3.65 5.05 -3.55 5.05 -3.15 5.0 -1.5 4.55 -1.45 4.55 0.35 4.05 2.3 3.25 2.35 3.15 M-7.45 -7.25 L-6.75 -7.6 -5.7 -8.05 Q-2.95 -9.05 -2.75 -7.15 L-2.75 -7.1 Q-2.65 -5.95 -3.35 -4.65 -4.1 -3.05 -5.4 -2.5 M-6.0 -4.35 L-5.7 -4.4 Q-5.4 -4.7 -5.6 -5.0 L-6.65 -4.75 Q-7.5 -4.25 -7.7 -3.55 L-7.75 -3.1 -7.8 -2.95 -7.75 -2.75 Q-7.35 -2.0 -6.4 -2.2 L-5.4 -2.5"/><path fill="none" stroke="#f5c14b" stroke-width="0.5" stroke-opacity="0.301960784314" d="M2.55 1.85 L-1.7 3.2 Q-8.55 4.6 -10.1 0.75 -10.85 -0.95 -9.9 -3.35 -9.2 -5.2 -8.1 -6.55 L-7.45 -7.25 M-5.4 -2.5 Q-5.95 -0.5 -4.55 0.15 L-2.1 0.4 Q0.3 0.2 2.8 -0.85"/><path fill="none" stroke="#302b19" stroke-width="0.5" d="M1.45 3.1 L1.5 3.1 2.2 2.7 2.3 2.65 2.35 2.6 2.4 2.6"/></g><g id="c30"><g><use transform="matrix(1.0,0.0,0.0,1.0,0.0,0.0)" xlink:href="#c29"/></g></g><g id="c31"><path fill="#c9a225" stroke="none" d="M-3.15 -2.6 Q-2.95 -4.15 -1.65 -4.3 -0.15 -4.7 0.55 -3.65 L2.55 0.95 3.15 2.85 Q2.8 5.85 -3.15 -2.6 M0.0 -3.55 Q-0.6 -4.3 -1.75 -4.05 -2.8 -4.0 -3.0 -2.7 1.75 4.0 2.05 1.65 L1.55 0.05 0.0 -3.55"/><path fill="#313535" stroke="none" d="M0.0 -3.55 L1.55 0.05 2.05 1.65 Q1.75 4.0 -3.0 -2.7 -2.8 -4.0 -1.75 -4.05 -0.6 -4.3 0.0 -3.55"/><path fill="#fbca2e" stroke="none" d="M3.15 2.85 Q3.35 4.35 2.95 4.35 L2.25 4.45 Q-0.65 3.3 -1.95 1.5 -3.3 -0.4 -3.15 -2.3 L-3.15 -2.6 Q2.8 5.85 3.15 2.85"/><path fill="none" stroke="#5c2e00" stroke-width="0.5" stroke-opacity="0.443137254902" d="M-3.15 -2.6 Q-2.95 -4.15 -1.65 -4.3 -0.15 -4.7 0.55 -3.65 L2.55 0.95 3.15 2.85 Q3.35 4.35 2.95 4.35 L2.25 4.45 Q-0.65 3.3 -1.95 1.5 -3.3 -0.4 -3.15 -2.3 L-3.15 -2.6"/></g><g id="c32"><g><use transform="matrix(1.0,0.0,0.0,1.0,0.0,0.0)" xlink:href="#c31"/></g></g><g id="c33"><path fill="#424131" stroke="none" d="M0.25 4.65 L-3.1 1.25 -3.85 0.15 -4.45 -1.65 -2.8 -0.2 -2.4 -0.2 Q2.8 -0.1 3.2 -1.55 L4.4 -0.25 Q5.0 3.15 1.75 4.45 L0.25 4.65"/><path fill="#595741" stroke="none" d="M-4.45 -1.65 L-4.35 -2.25 -4.0 -2.85 -2.55 -4.65 Q0.9 -3.8 3.2 -1.55 2.8 -0.1 -2.4 -0.2 L-2.8 -0.2 -4.45 -1.65"/><path fill="none" stroke="#000000" stroke-width="0.5" stroke-opacity="0.4" d="M-4.35 -2.25 L-4.0 -2.85 -2.55 -4.65 Q0.9 -3.8 3.2 -1.55 L4.4 -0.25 Q5.0 3.15 1.75 4.45 L0.25 4.65"/></g><g id="c34"><g><use transform="matrix(1.0,0.0,0.0,1.0,0.0,0.0)" xlink:href="#c33"/></g></g><linearGradient gradientUnits="userSpaceOnUse" x1="-819.2" x2="819.2" spreadMethod="pad" gradientTransform="matrix(0.00447082519531,0.00260925292969,0.00389099121094,-0.00875854492188,4.0,3.4)" id="gradient8"><stop offset="0.0" stop-color="#ffffff"/><stop offset="1.0" stop-color="#c9dbed"/></linearGradient><g id="c35"><path fill="#595741" stroke="none" d="M-6.45 -5.95 Q-8.3 -8.0 -8.05 -9.7 0.05 -8.9 5.7 -4.65 L6.6 -3.1 Q0.8 -5.6 -6.45 -5.95 M5.5 8.9 L6.05 9.35 6.0 9.4 4.85 9.55 4.65 9.55 3.0 9.3 2.4 7.75 2.3 7.6 Q2.3 6.8 2.95 6.05 L3.2 5.75 3.2 5.7 3.15 5.7 2.1 5.55 0.25 5.2 0.1 4.4 0.1 4.35 0.2 3.45 Q0.45 2.6 1.95 1.9 L2.15 1.7 1.95 1.9 Q0.2 1.1 -1.5 -0.4 L-1.4 -1.0 -1.05 -1.8 -1.0 -1.85 Q0.15 -2.85 4.4 -2.3 1.15 -0.75 2.15 1.7 3.15 1.2 4.7 0.7 2.65 3.3 3.9 5.05 L4.4 4.75 4.4 5.65 4.45 5.7 4.45 5.8 4.35 5.8 3.2 5.7 4.35 5.8 4.35 5.85 Q4.35 7.65 5.5 8.9"/><path fill="#424131" stroke="none" d="M-6.45 -5.95 Q0.8 -5.6 6.6 -3.1 L8.35 0.8 8.25 0.85 9.15 2.95 9.4 3.7 7.35 7.75 6.15 8.2 5.5 8.9 Q4.35 7.65 4.35 5.85 L4.45 5.8 4.45 5.7 4.4 5.65 4.4 4.75 3.9 5.05 Q2.65 3.3 4.7 0.7 3.15 1.2 2.15 1.7 1.15 -0.75 4.4 -2.3 0.15 -2.85 -1.0 -1.85 L-1.05 -1.8 Q-2.0 -2.1 -2.7 -2.6 L-2.8 -2.6 Q-5.15 -4.25 -6.45 -5.95 M1.95 1.9 Q0.45 2.6 0.2 3.45 L0.1 4.35 0.05 4.35 -0.2 3.8 -0.15 2.75 -0.1 2.65 Q0.35 2.0 1.95 1.9 M2.1 5.55 L3.15 5.7 3.2 5.75 2.95 6.05 2.1 5.55"/><path fill="#1d1c16" stroke="none" d="M2.3 7.65 L0.95 6.95 Q-4.45 9.1 -4.9 7.65 L-5.05 7.6 -5.0 7.05 Q-4.65 4.7 -1.7 2.55 L-0.1 2.65 -0.15 2.75 -0.2 3.8 0.05 4.35 0.1 4.4 0.25 5.2 2.1 5.55 2.95 6.05 Q2.3 6.8 2.3 7.6 L2.3 7.65 M-8.35 1.3 L-9.35 -0.35 Q-7.55 -2.15 -6.05 -2.8 L-2.8 -2.6 -2.7 -2.6 Q-2.0 -2.1 -1.05 -1.8 L-1.4 -1.0 -5.35 -0.15 -8.35 1.3"/><path fill="#e6f2ff" stroke="none" d="M0.1 4.35 L0.1 4.4 0.05 4.35 0.1 4.35"/><path stroke="none" fill="url(#gradient8)" d="M4.85 9.55 L4.7 9.6 4.65 9.55 4.85 9.55 M2.4 7.75 L2.3 7.65 2.3 7.6 2.4 7.75 M3.15 5.7 L3.2 5.7 3.2 5.75 3.15 5.7 M4.35 5.8 L4.45 5.8 4.35 5.85 4.35 5.8"/><path fill="#312f24" stroke="none" d="M-1.7 2.55 L-1.4 2.5 -2.45 2.65 -4.55 2.75 Q-7.1 2.65 -8.35 1.3 L-5.35 -0.15 -1.4 -1.0 -1.5 -0.4 Q0.2 1.1 1.95 1.9 0.35 2.0 -0.1 2.65 L-1.7 2.55"/><path fill="none" stroke="#000000" stroke-width="0.5" stroke-opacity="0.301960784314" d="M6.6 -3.1 L5.7 -4.65 Q0.05 -8.9 -8.05 -9.7 -8.3 -8.0 -6.45 -5.95 M6.6 -3.1 L8.35 0.8 9.15 2.95 9.4 3.7 M6.05 9.35 L6.0 9.4 4.85 9.55 4.65 9.55 3.0 9.3 2.4 7.75 2.3 7.65 0.95 6.95 Q-4.45 9.1 -4.9 7.65 M4.7 9.6 L4.65 9.55 M-5.05 7.6 L-5.0 7.05 Q-4.65 4.7 -1.7 2.55 L-1.4 2.5 -2.45 2.65 -4.55 2.75 Q-7.1 2.65 -8.35 1.3 L-9.35 -0.35 Q-7.55 -2.15 -6.05 -2.8 L-2.8 -2.6 Q-5.15 -4.25 -6.45 -5.95 M1.95 1.9 L2.15 1.7 M4.4 -2.3 Q0.15 -2.85 -1.0 -1.85 L-1.05 -1.8 -1.4 -1.0 -1.5 -0.4 Q0.2 1.1 1.95 1.9 0.45 2.6 0.2 3.45 L0.1 4.35 0.1 4.4 0.25 5.2 2.1 5.55 3.15 5.7 3.2 5.7 4.35 5.8 4.45 5.8 4.45 5.7 M4.4 4.75 L3.9 5.05 M4.7 0.7 Q3.15 1.2 2.15 1.7 M0.05 4.35 L-0.2 3.8 -0.15 2.75 -0.1 2.65 Q0.35 2.0 1.95 1.9 M0.05 4.35 L0.1 4.4 M2.95 6.05 L3.2 5.75 3.2 5.7 M2.95 6.05 L2.1 5.55 M-2.8 -2.6 L-2.7 -2.6 Q-2.0 -2.1 -1.05 -1.8 M2.4 7.75 L2.3 7.6 Q2.3 6.8 2.95 6.05 M8.25 0.85 L8.35 0.8"/></g><g id="c36"><g><use transform="matrix(1.0,0.0,0.0,1.0,0.0,0.0)" xlink:href="#c35"/></g></g><g id="c37"><path fill="#fbca2e" stroke="none" d="M-1.75 3.9 Q-2.7 1.9 -2.8 -0.7 -3.0 -3.7 -2.15 -3.9 -0.45 -3.9 0.7 -3.3 L2.0 -2.4 2.6 -1.45 2.85 -0.7 2.85 -0.15 Q2.85 0.8 2.3 1.95 2.35 1.5 1.8 2.45 4.25 -5.15 -1.75 3.9"/><path fill="#c9a225" stroke="none" d="M1.8 2.45 Q1.05 0.85 0.35 1.65 L-1.0 3.25 Q-1.55 4.1 -1.75 3.9 4.25 -5.15 1.8 2.45"/><path fill="none" stroke="#5c2e00" stroke-width="0.5" stroke-opacity="0.443137254902" d="M-1.75 3.9 Q-2.7 1.9 -2.8 -0.7 -3.0 -3.7 -2.15 -3.9 -0.45 -3.9 0.7 -3.3 L2.0 -2.4 2.6 -1.45 2.85 -0.7 2.85 -0.15 Q2.85 0.8 2.3 1.95 2.35 1.5 1.8 2.45 1.05 0.85 0.35 1.65 L-1.0 3.25 Q-1.55 4.1 -1.75 3.9"/></g><g id="c38"><g><use transform="matrix(1.0,0.0,0.0,1.0,0.0,0.0)" xlink:href="#c37"/></g></g><g id="c39"><path fill="#989279" stroke="none" d="M2.95 0.4 L1.65 -0.05 1.65 -0.2 1.55 -0.95 2.45 -1.7 2.95 -1.05 2.95 0.4"/><path fill="#6e6958" stroke="none" d="M2.45 -1.7 L1.55 -0.95 1.65 -0.2 1.65 -0.05 2.95 0.4 3.0 0.65 3.0 1.2 2.85 2.25 1.85 2.4 -0.3 1.7 0.9 0.4 0.8 0.15 Q0.75 -0.75 -0.1 -1.05 L-0.9 -1.5 -0.85 -1.7 -0.8 -1.95 -0.7 -2.25 -0.1 -2.65 0.55 -3.0 1.7 -2.4 2.45 -1.7"/><path fill="none" stroke="#000000" stroke-width="0.5" stroke-opacity="0.4" d="M2.95 0.4 L2.95 -1.05 2.45 -1.7 1.7 -2.4 0.55 -3.0 -0.1 -2.65 -0.7 -2.25 -0.8 -1.95 -0.85 -1.7 -0.9 -1.5 -0.1 -1.05 Q0.75 -0.75 0.8 0.15 L0.9 0.4 -0.3 1.7 1.85 2.4 2.85 2.25 3.0 1.2 3.0 0.65"/><path fill="#736e5c" stroke="none" d="M0.95 1.15 L0.9 1.85 0.75 2.9 -0.2 3.05 -2.3 2.4 -1.2 1.05 -1.2 0.8 Q-1.25 -0.15 -2.1 -0.45 L-2.95 -0.85 -2.9 -1.1 -2.9 -1.35 -2.7 -1.6 -2.15 -2.0 -1.45 -2.4 Q-1.15 -2.35 -0.35 -1.75 L0.3 -1.2 -0.55 -0.85 -0.7 -0.85 -0.5 0.45 0.95 1.15"/><path fill="#a8a185" stroke="none" d="M0.3 -1.2 L0.45 -1.15 0.9 -0.4 0.95 1.15 -0.5 0.45 -0.7 -0.85 -0.55 -0.85 0.3 -1.2"/><path fill="none" stroke="#000000" stroke-width="0.5" stroke-opacity="0.4" d="M0.95 1.15 L0.9 1.85 0.75 2.9 -0.2 3.05 -2.3 2.4 -1.2 1.05 -1.2 0.8 Q-1.25 -0.15 -2.1 -0.45 L-2.95 -0.85 -2.9 -1.1 -2.9 -1.35 -2.7 -1.6 -2.15 -2.0 -1.45 -2.4 Q-1.15 -2.35 -0.35 -1.75 L0.3 -1.2 M0.45 -1.15 L0.9 -0.4 0.95 1.15"/></g><g id="c40"><g><use transform="matrix(1.0,0.0,0.0,1.0,0.0,0.0)" xlink:href="#c39"/></g></g><g id="c41"><path fill="#644602" stroke="none" d="M-3.85 2.9 Q-3.85 2.4 -3.05 1.8 -2.15 1.25 -0.9 0.95 L1.25 0.65 Q2.25 0.75 2.25 1.25 2.3 1.75 1.4 2.3 L-0.7 3.25 -2.9 3.45 Q-3.8 3.4 -3.85 2.9"/><path fill="none" stroke="#000000" stroke-width="0.5" stroke-opacity="0.301960784314" d="M-3.85 2.9 Q-3.85 2.4 -3.05 1.8 -2.15 1.25 -0.9 0.95 L1.25 0.65 Q2.25 0.75 2.25 1.25 2.3 1.75 1.4 2.3 L-0.7 3.25 -2.9 3.45 Q-3.8 3.4 -3.85 2.9"/><path fill="#fbca2e" stroke="none" d="M-2.7 2.6 L-3.75 2.45 Q-3.85 -2.6 -3.45 -4.7 -3.15 -7.0 -3.2 -7.45 -0.15 -3.65 1.9 0.35 L1.65 1.0 1.35 1.35 Q0.2 2.9 -2.7 2.6 M1.65 1.9 L1.9 1.55 2.15 0.85 3.85 4.65 Q1.3 8.75 -3.45 6.85 L-3.7 2.95 -2.7 3.05 Q0.45 3.3 1.65 1.9"/><path fill="#b78104" stroke="none" d="M1.35 1.35 L1.65 1.9 Q0.45 3.3 -2.7 3.05 L-2.7 2.6 Q0.2 2.9 1.35 1.35"/><path fill="none" stroke="#000000" stroke-width="0.5" stroke-opacity="0.301960784314" d="M-2.7 2.6 L-3.75 2.45 Q-3.85 -2.6 -3.45 -4.7 -3.15 -7.0 -3.2 -7.45 -0.15 -3.65 1.9 0.35 L1.65 1.0 1.35 1.35 1.65 1.9 1.9 1.55 2.15 0.85 3.85 4.65 M-3.45 6.85 L-3.7 2.95 -2.7 3.05 -2.7 2.6 Q0.2 2.9 1.35 1.35 M-2.7 3.05 Q0.45 3.3 1.65 1.9"/><path fill="#fce496" stroke="none" d="M-0.55 1.6 Q-1.0 -2.9 -3.0 -7.05 -0.2 -3.45 1.2 0.6 0.6 1.6 -0.55 1.6"/><path fill="#fce496" stroke="none" d="M2.2 1.95 L3.15 4.65 Q1.35 6.6 -1.5 6.4 2.05 5.15 2.2 1.95"/></g><g id="c42"><g><use transform="matrix(1.0,0.0,0.0,1.0,0.0,0.0)" xlink:href="#c41"/></g></g><g id="c43"><g><use transform="matrix(1.0,0.0,0.0,1.0,0.4,-1.55)" xlink:href="#c15"/></g><g><use transform="matrix(1.0,0.0,0.0,1.0,-18.25,-3.45)" xlink:href="#c17"/></g><g><use transform="matrix(1.0,0.0,0.0,1.0,0.3,-15.55)" xlink:href="#c22"/></g><g><use transform="matrix(1.0,0.0,0.0,1.0,12.15,-33.1)" xlink:href="#c24"/></g><g><use transform="matrix(1.0,0.0,0.0,1.0,14.15,-43.05)" xlink:href="#c26"/></g><g><use transform="matrix(1.0,0.0,0.0,1.0,19.35,-5.65)" xlink:href="#c28"/></g><g><use transform="matrix(1.0,0.0,0.0,1.0,2.8,-22.3)" xlink:href="#c30"/></g><g><use transform="matrix(1.0,0.0,0.0,1.0,8.1,-15.35)" xlink:href="#c32"/></g><g><use transform="matrix(1.0,0.0,0.0,1.0,-17.9,-16.7)" xlink:href="#c34"/></g><g><use transform="matrix(1.0,0.0,0.0,1.0,-28.4,-23.45)" xlink:href="#c36"/></g><g><use transform="matrix(1.0,0.0,0.0,1.0,7.3,-19.35)" xlink:href="#c38"/></g><g><use transform="matrix(1.0,0.0,0.0,1.0,-1.75,7.2)" xlink:href="#c40"/></g><g><use transform="matrix(1.0,0.0,0.0,1.0,-2.6,-40.2)" xlink:href="#c42"/></g></g><g id="c44"><g><use transform="matrix(-1.9599609375,0.0,0.0,1.9599609375,48.1,109.25)" xlink:href="#c43"/></g></g><g id="c45"><path fill="none" stroke="#ffcc00" stroke-width="0.5" d="M37.8 93.2 L26.1 97.0 Q23.45 97.8 21.8 96.65 20.65 95.9 19.95 94.25 L8.0 67.8 7.9 67.65 7.5 66.8 5.55 62.4 Q4.25 59.55 6.0 58.1 L7.5 57.25 11.8 55.6 Q15.25 54.3 16.95 57.5 L28.6 53.75 Q32.85 52.35 34.75 56.45 L46.85 83.3 47.2 84.05 49.25 88.5 Q50.25 90.7 49.45 92.05 48.8 93.05 47.25 93.6 L42.95 95.15 41.4 95.55 Q39.05 95.65 37.8 93.2"/></g><linearGradient gradientUnits="userSpaceOnUse" x1="-819.2" x2="819.2" spreadMethod="pad" gradientTransform="matrix(-0.0125732421875,0.0326843261719,-0.0249176025391,-0.0216674804688,24.2,31.15)" id="gradient9"><stop offset="0.0" stop-opacity="0.337254901961"/><stop offset="1.0" stop-opacity="0.0"/></linearGradient><linearGradient gradientUnits="userSpaceOnUse" x1="-819.2" x2="819.2" spreadMethod="pad" gradientTransform="matrix(-0.00735473632812,0.0279541015625,-0.0266723632812,-0.0160522460938,34.25,42.6)" id="gradient10"><stop offset="0.0" stop-opacity="0.337254901961"/><stop offset="1.0" stop-opacity="0.0"/></linearGradient><linearGradient gradientUnits="userSpaceOnUse" x1="-819.2" x2="819.2" spreadMethod="pad" gradientTransform="matrix(0.0,0.0374755859375,-0.0333709716797,-0.0137786865234,15.9,31.9)" id="gradient11"><stop offset="0.0" stop-opacity="0.337254901961"/><stop offset="1.0" stop-opacity="0.0"/></linearGradient><linearGradient gradientUnits="userSpaceOnUse" x1="-819.2" x2="819.2" spreadMethod="pad" gradientTransform="matrix(-0.00982666015625,0.0286254882812,-0.0181274414062,-0.0141143798828,4.1,18.2)" id="gradient12"><stop offset="0.0" stop-opacity="0.337254901961"/><stop offset="1.0" stop-opacity="0.0"/></linearGradient><g id="c46"><path stroke="none" fill="url(#gradient9)" d="M26.45 9.0 L26.45 45.2 21.35 45.2 21.35 9.0 26.45 9.0"/><path stroke="none" fill="url(#gradient10)" d="M31.7 45.2 L31.7 17.3 36.8 24.7 36.8 45.2 31.7 45.2"/><path stroke="none" fill="url(#gradient11)" d="M15.65 9.0 L14.95 45.2 9.35 45.2 9.6 9.0 15.65 9.0"/><path stroke="none" fill="url(#gradient12)" d="M5.1 9.0 L5.1 40.3 0.0 40.3 0.0 9.0 5.1 9.0"/></g><g id="c47"><g><use transform="matrix(1.0,0.0,0.0,1.0,0.0,0.0)" xlink:href="#c46"/></g></g><g id="c48"><path fill="#fefd8d" fill-opacity="0.972549019608" d="M33.85 83.75 L33.85 83.8 33.85 83.95 33.85 84.0 33.85 84.1 33.9 84.1 33.9 84.15 34.35 84.4 34.85 84.75 34.35 84.45 34.1 84.3 34.05 84.25 33.95 84.2 33.9 84.2 33.9 84.7 33.9 85.25 33.85 84.75 33.75 84.2 33.7 84.1 33.5 84.25 33.0 84.55 32.7 84.7 32.95 84.5 33.4 84.3 33.45 84.25 33.5 84.2 33.7 84.1 33.65 84.05 33.7 84.05 33.7 84.0 33.3 83.6 32.95 83.25 33.3 83.55 33.55 83.8 33.7 83.95 33.8 83.4 33.9 82.95 33.85 83.35 33.85 83.75 M34.25 84.0 L34.15 84.0 33.9 84.05 34.15 83.95 34.7 83.75 35.2 83.65 34.85 83.75 34.95 83.85 34.85 83.75 34.7 83.8 34.4 83.9 34.35 83.9 34.25 84.0 M34.95 83.85 L35.65 84.4 36.45 85.15 36.5 85.2 36.75 85.45 36.9 85.55 36.9 85.5 37.1 83.9 37.35 82.3 37.45 81.75 37.4 82.25 37.4 83.85 37.2 85.6 37.35 86.0 37.4 86.1 38.7 86.9 40.15 87.75 40.55 88.05 40.1 87.8 38.75 87.05 37.75 86.45 37.4 86.25 37.35 86.2 37.4 86.3 37.5 87.75 37.55 89.45 37.6 90.0 37.5 89.5 37.25 87.9 37.05 86.25 37.0 86.3 36.9 85.9 36.7 85.75 36.9 85.85 36.9 85.65 35.7 84.55 34.95 83.85 M35.7 86.65 L36.1 86.45 36.2 86.4 36.85 86.1 36.3 86.45 34.8 87.25 33.35 88.0 32.8 88.25 33.3 88.0 34.65 87.2 35.7 86.65 M41.85 84.45 L41.35 84.6 39.85 85.15 38.15 85.7 37.5 85.9 Q37.45 85.85 38.1 85.65 L39.7 85.1 41.3 84.6 41.85 84.45"/><path fill="#fffd8f" fill-opacity="0.4" d="M33.85 83.75 L34.05 83.4 34.25 83.2 34.15 83.4 34.0 83.8 33.9 83.9 33.85 83.8 33.85 83.75 M34.1 84.3 L34.35 84.5 34.45 84.65 34.25 84.5 34.0 84.3 33.95 84.2 34.05 84.25 34.1 84.3 M33.4 84.3 L33.3 84.3 32.95 84.45 32.7 84.55 32.95 84.4 33.35 84.25 33.45 84.25 33.4 84.3 M33.55 83.8 L33.4 83.6 33.6 83.8 33.65 83.9 33.55 83.8 M34.25 84.0 L34.35 83.9 34.4 83.9 34.65 83.85 34.95 83.85 35.05 83.8 34.95 83.85 34.7 83.9 34.3 84.0 34.2 84.0 34.25 84.0 M36.45 85.15 L35.85 84.4 35.45 83.85 35.95 84.3 36.65 85.15 36.9 85.5 36.75 85.45 36.5 85.2 36.45 85.15 M37.75 86.45 Q38.15 86.7 38.6 87.1 L39.3 87.75 38.5 87.15 37.6 86.5 37.4 86.3 37.35 86.2 37.4 86.25 37.75 86.45 M33.6 84.3 L33.7 84.2 33.75 84.35 33.65 84.7 33.55 85.05 33.55 84.75 33.6 84.3 M37.65 85.15 L37.35 85.5 37.35 85.0 37.9 84.05 38.5 83.1 38.7 82.75 38.55 83.1 38.15 84.05 37.65 85.15 M35.7 86.65 L34.7 87.0 33.8 87.3 34.7 86.95 35.75 86.5 36.1 86.45 35.7 86.65 M38.7 85.65 L38.25 85.7 38.7 85.55 39.75 85.35 40.7 85.2 41.05 85.15 40.75 85.25 39.8 85.45 38.7 85.65 M36.7 86.7 L36.95 86.25 37.0 86.75 36.65 87.8 36.3 88.85 36.15 89.25 36.25 88.85 36.4 87.85 Q36.5 87.1 36.7 86.7"/><path fill="#fffd8f" fill-opacity="0.392156862745" d="M38.0 86.75 Q37.9 86.0 37.45 85.8 L36.9 85.85 Q36.75 86.1 36.9 86.5 37.1 87.0 37.65 87.3 L38.35 87.95 38.6 88.25 38.45 87.85 38.0 86.75"/><path fill="#fffd8f" fill-opacity="0.392156862745" d="M38.0 86.25 L37.05 85.85 Q36.8 85.8 36.95 85.95 L37.55 86.35 38.35 86.6 Q38.8 86.65 39.05 86.85 L39.35 86.95 39.0 86.75 38.0 86.25"/><path fill="#fffd8f" fill-opacity="0.392156862745" d="M36.4 84.8 Q36.35 85.55 36.75 85.85 L37.3 85.9 37.45 85.25 Q37.35 84.75 36.9 84.35 36.35 83.9 36.3 83.55 L36.1 83.25 36.2 83.65 36.4 84.8"/><path fill="#fffd8f" fill-opacity="0.392156862745" d="M36.25 85.35 L37.1 85.95 37.2 85.8 36.75 85.3 35.95 84.9 Q35.55 84.75 35.3 84.6 L35.05 84.45 35.35 84.65 36.25 85.35"/><path fill="#fffd8f" fill-opacity="0.392156862745" d="M38.75 85.2 Q38.0 85.45 37.85 85.65 37.7 85.85 37.85 85.8 L38.5 85.65 39.25 85.2 39.9 84.75 40.15 84.6 39.75 84.75 38.75 85.2"/><path fill="#fffd8f" fill-opacity="0.392156862745" d="M35.75 87.0 L36.6 86.4 36.5 86.25 Q36.25 86.25 35.9 86.5 L35.25 87.1 34.7 87.65 Q34.4 87.8 34.45 87.85 L34.8 87.6 35.75 87.0"/><path fill="#fffd8f" fill-opacity="0.392156862745" d="M34.1 84.35 L33.95 84.05 33.75 84.05 Q33.65 84.1 33.7 84.25 L34.0 84.55 34.2 84.75 34.3 84.85 34.2 84.75 34.1 84.35"/><path fill="#fffd8f" fill-opacity="0.392156862745" d="M34.1 84.2 Q33.9 84.05 33.75 84.05 L33.75 84.1 33.95 84.2 34.2 84.3 34.5 84.4 34.55 84.4 34.45 84.4 34.1 84.2"/><path fill="#fffd8f" fill-opacity="0.392156862745" d="M33.5 83.65 L33.65 84.05 33.85 84.05 33.9 83.85 33.65 83.55 33.5 83.25 33.45 83.15 33.5 83.25 33.5 83.65"/><path fill="#fffd8f" fill-opacity="0.392156862745" d="M33.5 83.9 L33.75 84.05 33.8 84.0 33.65 83.85 33.35 83.7 33.2 83.6 33.05 83.55 33.15 83.6 33.5 83.9"/><path fill="#fffd8f" fill-opacity="0.392156862745" d="M34.3 83.8 L34.05 83.95 34.05 84.0 34.25 83.95 34.55 83.8 Q34.6 83.7 34.7 83.7 L34.8 83.6 34.7 83.65 34.3 83.8"/><path fill="#fffd8f" fill-opacity="0.392156862745" d="M33.3 84.45 L33.6 84.2 33.6 84.15 Q33.5 84.15 33.4 84.3 L33.15 84.45 32.95 84.65 32.85 84.75 33.0 84.6 33.3 84.45"/><path fill="#ffffff" stroke="none" d="M36.3 85.35 Q36.05 85.7 36.05 86.15 L36.5 86.9 37.3 87.15 38.05 86.75 38.25 85.9 37.85 85.2 37.05 84.95 36.3 85.35"/><path fill="#fefd8d" fill-opacity="0.972549019608" d="M18.75 62.3 L18.65 62.35 18.2 62.45 18.6 62.25 19.85 61.9 21.0 61.5 21.4 61.35 21.05 61.5 19.9 61.9 18.75 62.3 M17.45 61.95 L17.7 62.2 17.75 62.2 17.7 62.15 17.85 61.05 18.05 59.85 18.15 59.4 18.1 59.8 18.05 61.0 18.0 62.25 18.1 62.6 19.15 63.2 20.0 63.75 19.15 63.3 18.5 62.95 18.4 62.85 18.15 62.7 18.1 62.7 18.15 62.75 18.2 63.85 18.2 64.9 18.0 64.0 17.85 62.8 17.8 62.8 17.75 62.45 17.6 62.3 17.7 62.35 17.7 62.3 16.85 61.5 15.9 60.65 15.65 60.35 15.95 60.65 16.8 61.4 17.45 61.95 M14.7 64.25 L15.05 64.05 16.1 63.45 17.25 62.85 17.7 62.65 17.3 62.95 16.2 63.45 15.1 64.05 14.7 64.25"/><path fill="#fffd8f" fill-opacity="0.4" d="M18.75 62.3 L19.1 62.2 19.85 62.05 20.6 61.95 19.85 62.15 19.05 62.3 18.75 62.3 M17.45 61.95 L16.95 61.35 16.5 60.75 17.0 61.3 17.55 61.95 17.7 62.15 17.75 62.2 17.7 62.2 17.45 61.95 M18.5 62.95 L19.0 63.35 19.6 63.8 19.8 64.0 19.6 63.85 18.95 63.4 18.3 62.9 18.15 62.75 18.1 62.7 18.15 62.7 18.4 62.85 18.5 62.95 M18.3 61.9 L18.05 62.2 18.1 61.85 18.45 61.15 18.9 60.4 19.1 60.2 18.95 60.4 18.65 61.15 18.3 61.9 M17.55 63.1 L17.75 62.75 17.8 63.1 17.6 63.95 17.25 64.7 17.15 64.95 17.2 64.7 17.4 63.9 Q17.4 63.4 17.55 63.1 M16.9 62.9 L17.2 62.85 Q17.15 62.9 16.85 63.05 L16.15 63.3 15.45 63.55 15.2 63.6 15.45 63.5 16.1 63.25 Q16.6 63.0 16.9 62.9"/><path fill="#fffd8f" fill-opacity="0.392156862745" d="M18.6 63.1 L18.15 62.4 17.7 62.45 17.75 62.95 18.3 63.55 Q18.75 63.8 18.8 64.0 L19.0 64.25 18.85 63.95 18.6 63.1"/><path fill="#fffd8f" fill-opacity="0.392156862745" d="M18.55 62.7 Q18.05 62.4 17.9 62.4 17.7 62.4 17.8 62.5 L18.25 62.8 18.85 63.0 19.35 63.15 19.6 63.2 19.35 63.1 18.55 62.7"/><path fill="#fffd8f" fill-opacity="0.392156862745" d="M17.3 61.7 Q17.35 62.3 17.55 62.45 L18.0 62.5 18.1 62.0 17.65 61.35 17.25 60.75 17.15 60.5 17.2 60.8 17.3 61.7"/><path fill="#fffd8f" fill-opacity="0.392156862745" d="M17.25 62.1 L17.9 62.5 17.95 62.45 17.6 62.05 17.05 61.75 16.55 61.5 16.35 61.4 16.55 61.6 Q16.8 61.7 17.25 62.1"/><path fill="#fffd8f" fill-opacity="0.392156862745" d="M19.05 61.9 L18.4 62.3 18.45 62.4 18.9 62.3 19.5 61.95 19.95 61.6 20.15 61.5 19.85 61.6 19.05 61.9"/><path fill="#fffd8f" fill-opacity="0.392156862745" d="M16.9 63.3 L17.5 62.85 17.45 62.7 17.05 62.9 16.5 63.35 16.15 63.75 15.95 63.95 16.2 63.75 16.9 63.3"/><path fill="#ffffff" stroke="none" d="M17.4 62.1 Q17.15 62.35 17.2 62.65 L17.55 63.25 18.1 63.4 18.7 63.1 18.85 62.5 18.55 61.95 17.9 61.75 17.4 62.1"/><path fill="#ffffff" stroke="none" d="M33.55 83.9 L33.45 84.15 33.6 84.45 33.85 84.5 34.15 84.4 34.2 84.05 34.1 83.85 33.75 83.75 33.55 83.9"/></g><g id="c49"><g><use transform="matrix(1.0,0.0,0.0,1.0,6.3,53.35)" xlink:href="#c9"/></g><mask id="mask10"><use transform="matrix(1.0,0.0,0.0,1.0,0.0,0.0)" xlink:href="#c10"/></mask><g mask="url(#mask10)"><use transform="matrix(1.19317626953,0.0,0.0,1.19317626953,2.45,49.2)" xlink:href="#c12"/></g><g><use transform="matrix(-0.146041870117,0.0488891601562,0.0616760253906,0.140441894531,33.05,63.95)" xlink:href="#c44"/></g><g><use transform="matrix(1.0,0.0,0.0,1.0,0.0,0.0)" xlink:href="#c45"/></g><mask id="mask10"><use transform="matrix(1.0,0.0,0.0,1.0,0.0,0.0)" xlink:href="#c10"/></mask><g mask="url(#mask10)"><use transform="matrix(1.0,0.0,0.0,1.0,9.65,51.0)" filter="url(#filter49)" xlink:href="#c47"/></g><g mask="url(#mask10)"><use transform="matrix(1.0,0.0,0.0,1.0,9.65,47.6)" filter="url(#filter50)" xlink:href="#c47"/></g><g mask="url(#mask10)"><use transform="matrix(1.0,0.0,0.0,1.0,0.0,0.0)" xlink:href="#c48"/></g><g><use transform="matrix(0.141098022461,-0.0378112792969,0.111373901367,0.225646972656,27.2,74.05)" filter="url(#filter52)" xlink:href="#c6"/></g></g><filter id="filter49"><feColorMatrix in="SourceGraphic" type="matrix" values="0.0 0.0 0.0 0.0 0.99609375 0.0 0.0 0.0 0.0 0.99609375 0.0 0.0 0.0 0.0 0.99609375 0.0 0.0 0.0 1.0 0.0" result="cxform"/><feComposite operator="in" in2="SourceGraphic" result="color-xform"/></filter><filter id="filter50"><feColorMatrix in="SourceGraphic" type="matrix" values="0.0 0.0 0.0 0.0 0.99609375 0.0 0.0 0.0 0.0 0.99609375 0.0 0.0 0.0 0.0 0.99609375 0.0 0.0 0.0 1.0 0.0" result="cxform"/><feComposite operator="in" in2="SourceGraphic" result="color-xform"/></filter><filter id="filter52"><feColorMatrix in="SourceGraphic" type="matrix" values="1.0 0.0 0.0 0.0 0.0 0.0 1.0 0.0 0.0 0.0 0.0 0.0 1.0 0.0 0.0 0.0 0.0 0.0 0.23046875 0.0" result="cxform"/><feComposite operator="in" in2="SourceGraphic" result="color-xform"/></filter></defs><g><g><use transform="matrix(1.0,0.0,0.0,1.0,0.0,0.0)" xlink:href="#c1"/></g><g><use transform="matrix(1.15492248535,0.0,0.0,1.15492248535,-1.5,-57.7)" xlink:href="#c49"/></g></g></svg>