<?xml version='1.0' encoding='UTF-8'?>
<svg xmlns:xlink="http://www.w3.org/1999/xlink" xmlns="http://www.w3.org/2000/svg" version="1.1" width="60px" height="60px" viewBox="0.0 0.0 60.0 60.0"><defs><g id="c1"><path fill="#000000" fill-opacity="0.00392156862745" d="M0.0 0.0 L60.0 0.0 60.0 60.0 0.0 60.0 0.0 0.0"/></g><g id="c2"><path fill="none" stroke="#000000" stroke-width="1.0" stroke-opacity="0.301960784314" d="M22.3 0.35 Q26.6 -1.0 28.5 3.05 L41.4 31.7 Q43.1 35.4 39.9 36.85 L38.15 37.65 19.65 43.65 Q17.05 44.5 15.35 43.3 14.2 42.55 13.5 40.9 L0.55 12.25 Q-0.6 9.75 0.6 8.25 1.15 7.55 2.2 7.05 2.85 6.6 3.8 6.3 L22.3 0.35"/><path fill="#5b3c00" stroke="none" d="M0.75 8.25 L29.8 9.75 25.55 0.9 Q26.9 1.6 27.8 3.55 L40.7 32.15 Q42.6 36.3 38.3 37.65 L23.3 42.5 13.15 21.4 4.6 20.9 0.7 12.25 Q-0.45 9.75 0.75 8.25 M20.1 43.55 L19.8 43.65 Q17.15 44.45 15.5 43.3 L20.1 43.55"/><path fill="#724b00" stroke="none" d="M25.55 0.9 L29.8 9.75 0.75 8.25 Q1.45 7.3 3.1 6.75 L21.65 0.8 25.55 0.9 M4.6 20.9 L13.15 21.4 23.3 42.5 20.1 43.55 15.5 43.3 Q14.35 42.55 13.65 40.9 L4.6 20.9"/><path fill="none" stroke="#000000" stroke-width="0.5" stroke-opacity="0.301960784314" d="M0.75 8.25 Q-0.45 9.75 0.7 12.25 L4.6 20.9 M23.3 42.5 L38.3 37.65 Q42.6 36.3 40.7 32.15 L27.8 3.55 Q26.9 1.6 25.55 0.9 L21.65 0.8 3.1 6.75 Q1.45 7.3 0.75 8.25 M20.1 43.55 L19.8 43.65 Q17.15 44.45 15.5 43.3 14.35 42.55 13.65 40.9 L4.6 20.9 M20.1 43.55 L23.3 42.5"/><path fill="#ffcc00" stroke="none" d="M14.2 40.5 L1.35 11.8 Q-0.5 7.75 3.8 6.35 L22.3 0.4 Q26.55 -1.0 28.45 3.1 L41.35 31.7 Q43.25 35.85 38.9 37.25 L20.4 43.2 Q16.1 44.55 14.2 40.5"/><path fill="none" stroke="#000000" stroke-width="0.5" stroke-opacity="0.301960784314" d="M14.2 40.5 L1.35 11.8 Q-0.5 7.75 3.8 6.35 L22.3 0.4 Q26.55 -1.0 28.45 3.1 L41.35 31.7 Q43.25 35.85 38.9 37.25 L20.4 43.2 Q16.1 44.55 14.2 40.5"/><path fill="#fcf2cf" stroke="none" d="M9.15 13.6 Q9.8 12.8 9.55 11.6 L9.1 10.55 22.05 6.35 Q24.9 5.45 26.25 7.85 L26.5 8.3 35.8 29.0 35.95 29.35 Q34.75 29.3 34.1 30.1 33.45 30.9 33.7 32.1 L34.0 32.9 20.65 37.2 Q18.8 37.8 17.65 37.0 16.8 36.4 16.3 35.2 L6.95 14.6 6.8 14.4 7.1 14.4 Q8.4 14.45 9.15 13.6"/><path fill="#996600" stroke="none" d="M28.25 6.1 L35.55 22.3 39.35 30.75 Q41.1 34.5 37.2 35.7 L20.45 41.1 Q16.8 42.25 15.2 39.0 L15.0 38.6 8.25 23.65 3.35 12.8 Q1.65 9.1 5.5 7.85 L22.25 2.5 Q26.05 1.25 27.75 4.95 L28.25 6.1 M9.15 13.6 Q8.4 14.45 7.1 14.4 L6.8 14.4 6.95 14.6 16.3 35.2 Q16.8 36.4 17.65 37.0 18.8 37.8 20.65 37.2 L34.0 32.9 33.7 32.1 Q33.45 30.9 34.1 30.1 34.75 29.3 35.95 29.35 L35.8 29.0 26.5 8.3 26.25 7.85 Q24.9 5.45 22.05 6.35 L9.1 10.55 9.55 11.6 Q9.8 12.8 9.15 13.6"/><path fill="none" stroke="#f0b92b" stroke-width="0.5" d="M9.15 13.6 Q9.8 12.8 9.55 11.6 L9.1 10.55 22.05 6.35 Q24.9 5.45 26.25 7.85 L26.5 8.3 35.8 29.0 35.95 29.35 Q34.75 29.3 34.1 30.1 33.45 30.9 33.7 32.1 L34.0 32.9 20.65 37.2 Q18.8 37.8 17.65 37.0 16.8 36.4 16.3 35.2 L6.95 14.6 6.8 14.4 7.1 14.4 Q8.4 14.45 9.15 13.6"/><path fill="none" stroke="#fcf2cf" stroke-width="1.0" d="M35.55 22.3 L39.35 30.75 Q41.1 34.5 37.2 35.7 L20.45 41.1 Q16.8 42.25 15.2 39.0 L15.0 38.6 M8.25 23.65 L3.35 12.8 Q1.65 9.1 5.5 7.85 L22.25 2.5 Q26.05 1.25 27.75 4.95 L28.25 6.1"/><path fill="none" stroke="#ffaa00" stroke-width="1.0" d="M28.25 6.1 L35.55 22.3 M15.0 38.6 L8.25 23.65"/></g><g id="c3"><path fill="#7fdbfe" stroke="none" d="M10.75 4.9 Q10.75 4.6 10.9 4.35 11.25 3.45 11.95 2.75 13.3 1.5 14.35 2.1 15.4 2.7 14.95 4.45 14.7 5.4 14.1 6.15 L13.75 6.5 Q13.1 7.15 12.35 7.35 L11.4 7.2 Q10.95 6.9 10.75 6.4 10.5 5.75 10.75 4.9 M7.5 5.9 Q7.0 5.85 6.6 5.5 6.05 5.0 5.8 4.15 L5.7 3.6 Q5.55 2.65 5.8 1.7 6.25 0.0 7.5 0.0 L7.6 0.0 Q8.85 0.0 9.3 1.7 9.55 2.65 9.4 3.6 L9.3 4.15 8.5 5.5 7.6 5.9 7.5 5.9 M4.35 4.9 Q4.6 5.75 4.35 6.4 L3.7 7.2 2.75 7.35 Q2.0 7.15 1.35 6.5 L1.0 6.15 Q0.4 5.4 0.15 4.45 -0.3 2.7 0.75 2.1 1.8 1.5 3.15 2.75 3.85 3.45 4.2 4.35 L4.35 4.9 M5.5 13.7 Q4.45 13.9 3.65 12.95 2.75 12.0 3.2 10.25 3.7 8.5 5.25 7.6 6.4 6.9 7.55 7.0 8.75 6.9 9.9 7.6 11.45 8.5 11.95 10.25 12.35 12.0 11.5 12.95 10.7 13.9 9.65 13.7 8.55 13.5 7.55 12.6 6.55 13.5 5.5 13.7"/></g><g id="c4"><g><use transform="matrix(1.0,0.0,0.0,1.0,0.0,0.0)" xlink:href="#c3"/></g></g><radialGradient gradientUnits="userSpaceOnUse" r="819.2" cx="0" cy="0" spreadMethod="pad" gradientTransform="matrix(0.0914459228516,0.0,0.0,0.0914459228516,0.6,3.4)" id="gradient1"><stop offset="0.0" stop-color="#ffffff"/><stop offset="1.0" stop-color="#ffffff" stop-opacity="0.0"/></radialGradient><g id="c5"><path stroke="none" fill="url(#gradient1)" d="M36.65 -54.65 Q60.05 -42.0 69.75 -17.95 80.55 8.9 68.0 34.1 55.45 59.35 26.8 68.2 -1.8 77.05 -29.7 64.3 -57.6 51.6 -68.45 24.75 -79.3 -2.05 -66.75 -27.25 L-66.7 -27.3 Q-54.1 -52.5 -25.5 -61.4 3.1 -70.2 31.0 -57.5 L36.65 -54.65"/></g><g id="c6"><g><use transform="matrix(1.0,0.0,0.0,1.0,0.0,0.0)" xlink:href="#c5"/></g></g><radialGradient gradientUnits="userSpaceOnUse" r="819.2" cx="0" cy="0" spreadMethod="pad" gradientTransform="matrix(0.209197998047,0.0,0.0,0.177108764648,67.15,107.2)" id="gradient2"><stop offset="0.356862745098" stop-color="#ffffff"/><stop offset="0.670588235294" stop-opacity="0.0"/></radialGradient><g id="c7"><path fill="none" stroke-linejoin="round" stroke-linecap="round" stroke="url(#gradient2)" stroke-width="0.5" d="M136.55 165.8 L68.6 106.0 68.4 106.0 118.25 201.5 M68.2 105.7 L68.25 105.8 68.25 105.75 68.2 105.7 0.0 45.7 M68.25 105.8 L68.3 105.85 68.3 105.8 68.25 105.75 49.95 0.05 M0.05 97.7 L68.15 105.95 68.25 105.85 68.25 105.8 M68.3 105.85 L68.25 105.85 68.3 106.0 68.3 105.85 68.3 105.8 68.35 105.8 68.3 105.8 86.6 18.35 M50.0 193.2 L68.3 106.0 68.15 105.95 18.25 151.55 M68.4 106.0 L68.3 106.0 86.55 211.5 M68.4 106.0 L68.3 105.85 M68.6 106.0 L68.35 105.8 118.25 60.15 M136.6 114.25 L68.6 106.0 M68.2 105.7 L18.25 10.05"/></g><g id="c8"><g><use transform="matrix(1.0,0.0,0.0,1.0,0.0,0.0)" xlink:href="#c7"/></g></g><g id="c9"><g><use transform="matrix(1.0,0.0,0.0,1.0,0.0,0.0)" xlink:href="#c2"/></g><g><use transform="matrix(0.238861083984,-0.0867004394531,0.10026550293,0.233917236328,34.25,31.15)" xlink:href="#c4"/></g><g><use transform="matrix(0.238861083984,-0.0867004394531,0.10026550293,0.233917236328,4.25,10.3)" xlink:href="#c4"/></g><g><use transform="matrix(0.141098022461,-0.0378112792969,0.111373901367,0.225646972656,20.25,20.65)" filter="url(#filter7)" xlink:href="#c6"/></g><g><use transform="matrix(-0.155029296875,0.0513153076172,0.0841827392578,0.147033691406,22.6,3.15)" filter="url(#filter8)" xlink:href="#c8"/></g></g><filter id="filter7"><feColorMatrix in="SourceGraphic" type="matrix" values="0.0 0.0 0.0 0.0 0.796875 0.0 0.0 0.0 0.0 0.59765625 0.0 0.0 0.0 0.0 0.19921875 0.0 0.0 0.0 1.0 0.0" result="cxform"/><feComposite operator="in" in2="SourceGraphic" result="color-xform"/></filter><filter id="filter8"><feColorMatrix in="SourceGraphic" type="matrix" values="0.0 0.0 0.0 0.0 0.99609375 0.0 0.0 0.0 0.0 0.99609375 0.0 0.0 0.0 0.0 0.99609375 0.0 0.0 0.0 1.0 0.0" result="cxform"/><feComposite operator="in" in2="SourceGraphic" result="color-xform"/></filter><radialGradient gradientUnits="userSpaceOnUse" r="819.2" cx="0" cy="0" spreadMethod="pad" gradientTransform="matrix(0.0255126953125,0.0,0.0,0.0268249511719,27.35,75.35)" id="gradient3"><stop offset="0.356862745098" stop-color="#ffffff"/><stop offset="0.670588235294" stop-opacity="0.0"/></radialGradient><g id="c10"><path fill="none" stroke-linejoin="round" stroke-linecap="round" stroke="url(#gradient3)" stroke-width="0.5" d="M7.05 61.6 Q7.5 60.95 8.45 60.5 9.1 60.05 10.1 59.7 L28.6 53.75 Q32.85 52.35 34.75 56.45 L47.65 85.05 Q49.25 88.5 46.5 90.05 45.8 90.65 44.6 91.0 L26.1 97.0 Q23.45 97.8 21.8 96.65 20.65 95.9 19.95 94.25 L7.0 65.6 Q5.85 63.1 7.05 61.6"/></g><linearGradient gradientUnits="userSpaceOnUse" x1="-819.2" x2="819.2" spreadMethod="pad" gradientTransform="matrix(0.0255126953125,0.0,0.0,0.0268249511719,20.9,21.95)" id="gradient4"><stop offset="0.0" stop-color="#f90013"/><stop offset="0.160784313725" stop-color="#ff99ff"/><stop offset="0.462745098039" stop-color="#66ffff"/><stop offset="0.721568627451" stop-color="#ff9900"/><stop offset="1.0" stop-color="#33ff00"/></linearGradient><g id="c11"><path stroke="none" fill="url(#gradient4)" d="M0.6 8.2 Q1.05 7.55 2.0 7.1 2.65 6.65 3.65 6.3 L22.15 0.35 Q26.4 -1.05 28.3 3.05 L41.2 31.65 Q42.8 35.1 40.05 36.65 39.35 37.25 38.15 37.6 L19.65 43.6 Q17.0 44.4 15.35 43.25 14.2 42.5 13.5 40.85 L0.55 12.2 Q-0.6 9.7 0.6 8.2"/></g><g id="c12"><g><use transform="matrix(1.0,0.0,0.0,1.0,0.0,0.0)" xlink:href="#c11"/></g></g><radialGradient gradientUnits="userSpaceOnUse" r="819.2" cx="0" cy="0" spreadMethod="pad" gradientTransform="matrix(0.0186157226562,0.0,0.0,0.0230102539062,13.35,25.5)" id="gradient5"><stop offset="0.4" stop-color="#add6ff"/><stop offset="1.0" stop-color="#5891c4"/></radialGradient><g id="c13"><path fill="#2fedd6" stroke="none" d="M19.8 5.15 L19.8 5.25 19.8 5.15"/><path fill="#ecf5fd" stroke="none" d="M21.2 2.6 L21.25 2.95 21.25 3.0 20.9 4.05 19.8 5.15 19.0 5.65 Q16.85 6.75 13.65 6.75 10.5 6.75 8.3 5.65 L7.8 5.4 8.2 9.25 Q8.25 10.3 7.8 11.4 L7.4 12.2 6.15 13.3 Q2.45 17.1 1.55 23.25 L1.55 23.35 1.5 23.65 1.4 24.75 1.5 26.55 Q1.95 29.25 4.25 31.55 L5.35 32.5 Q7.9 34.45 11.4 34.95 L13.75 35.15 14.7 35.1 16.0 35.0 Q19.5 34.45 22.2 32.45 L23.25 31.55 Q25.5 29.25 25.9 26.55 L26.05 24.65 26.0 23.65 25.85 23.35 25.85 23.25 Q24.95 17.1 21.3 13.3 L20.1 12.15 19.85 11.4 Q19.45 10.3 19.4 9.35 19.25 8.05 19.8 5.25 L20.85 4.25 Q20.15 7.15 20.25 8.6 20.35 9.9 20.9 11.4 L21.05 11.75 22.4 13.05 Q26.45 17.3 27.3 24.0 L27.3 24.15 27.4 24.45 Q27.55 26.05 27.3 27.5 26.7 30.4 24.15 32.75 20.85 35.75 16.2 36.35 L14.85 36.5 13.75 36.5 11.25 36.35 Q6.55 35.75 3.3 32.75 0.7 30.4 0.15 27.5 -0.1 26.05 0.05 24.45 L0.1 24.15 0.1 24.0 Q0.9 17.3 5.0 13.05 L6.4 11.8 6.65 11.4 Q7.45 9.9 7.4 8.5 7.3 6.85 6.6 4.4 L6.6 4.35 6.15 3.4 6.1 3.0 6.1 2.95 6.45 1.9 Q6.95 1.05 8.35 0.3 10.5 -0.8 13.7 -0.8 16.85 -0.8 19.05 0.3 L20.75 1.6 21.2 2.6 M20.4 3.0 L20.4 2.65 20.0 1.75 18.45 0.6 Q16.5 -0.35 13.7 -0.35 10.9 -0.35 8.95 0.6 7.7 1.3 7.3 2.05 L6.95 2.95 6.95 3.0 7.0 3.35 7.4 4.2 7.65 4.5 8.1 4.85 8.5 5.1 8.5 5.15 8.9 5.35 Q10.9 6.35 13.65 6.35 16.5 6.35 18.4 5.35 L19.15 4.9 20.1 3.95 20.4 3.0"/><path stroke="none" fill="url(#gradient5)" d="M20.9 4.05 L20.85 4.25 19.8 5.25 Q19.25 8.05 19.4 9.35 19.45 10.3 19.85 11.4 L20.1 12.15 21.3 13.3 Q24.95 17.1 25.85 23.25 L25.85 23.35 26.0 23.65 26.05 24.65 25.9 26.55 Q25.5 29.25 23.25 31.55 L22.2 32.45 22.25 31.85 Q22.25 30.1 19.75 28.85 17.25 27.6 13.75 27.6 10.25 27.6 7.75 28.85 5.25 30.1 5.25 31.85 L5.35 32.5 4.25 31.55 Q1.95 29.25 1.5 26.55 L1.4 24.75 1.5 23.65 1.55 23.35 1.55 23.25 Q2.45 17.1 6.15 13.3 L7.4 12.2 7.8 11.4 Q8.25 10.3 8.2 9.25 L7.8 5.4 8.3 5.65 Q10.5 6.75 13.65 6.75 16.85 6.75 19.0 5.65 L19.8 5.15 20.9 4.05 M6.1 2.95 L6.35 2.05 6.45 1.9 6.1 2.95 M20.75 1.6 L21.1 2.1 21.2 2.45 21.2 2.6 20.75 1.6 M19.8 5.15 L19.8 5.25 19.8 5.15"/><path fill="#5891c4" stroke="none" d="M20.4 3.0 L20.1 3.95 19.15 4.9 18.4 5.35 Q16.5 6.35 13.65 6.35 10.9 6.35 8.9 5.35 L8.5 5.15 8.5 5.1 8.1 4.85 7.65 4.5 7.4 4.2 7.0 3.35 6.95 3.0 6.95 2.95 7.3 2.05 Q7.7 1.3 8.95 0.6 10.9 -0.35 13.7 -0.35 16.5 -0.35 18.45 0.6 L20.0 1.75 20.4 2.65 20.4 3.0"/><path fill="#82c1ff" stroke="none" d="M22.2 32.45 Q19.5 34.45 16.0 35.0 L14.7 35.1 13.75 35.15 11.4 34.95 Q7.9 34.45 5.35 32.5 L5.25 31.85 Q5.25 30.1 7.75 28.85 10.25 27.6 13.75 27.6 17.25 27.6 19.75 28.85 22.25 30.1 22.25 31.85 L22.2 32.45"/><path fill="none" stroke="#000000" stroke-width="1.0" stroke-opacity="0.301960784314" d="M21.2 2.6 L21.25 2.95 21.25 3.0 20.9 4.05 M20.85 4.25 Q20.15 7.15 20.25 8.6 20.35 9.9 20.9 11.4 L21.05 11.75 22.4 13.05 Q26.45 17.3 27.3 24.0 L27.3 24.15 27.4 24.45 Q27.55 26.05 27.3 27.5 26.7 30.4 24.15 32.75 20.85 35.75 16.2 36.35 L14.85 36.5 13.75 36.5 11.25 36.35 Q6.55 35.75 3.3 32.75 0.7 30.4 0.15 27.5 -0.1 26.05 0.05 24.45 L0.1 24.15 0.1 24.0 Q0.9 17.3 5.0 13.05 L6.4 11.8 6.65 11.4 Q7.45 9.9 7.4 8.5 7.3 6.85 6.6 4.4 L6.6 4.35 6.15 3.4 6.1 3.0 6.1 2.95 6.45 1.9 Q6.95 1.05 8.35 0.3 10.5 -0.8 13.7 -0.8 16.85 -0.8 19.05 0.3 L20.75 1.6 21.1 2.1 21.2 2.45 21.2 2.6"/><path fill="#ffffff" fill-opacity="0.701960784314" d="M9.45 13.45 L9.05 13.45 9.65 11.45 Q10.0 8.85 9.3 5.8 9.95 5.6 12.3 6.7 12.65 12.0 10.9 12.85 L9.45 13.45"/><path fill="#e6f2ff" fill-opacity="0.701960784314" d="M4.5 16.85 Q6.45 13.85 8.8 14.2 11.15 14.55 12.75 17.15 14.35 19.7 14.35 21.05 14.35 22.5 12.85 22.7 11.3 22.85 8.05 24.3 4.8 25.7 3.8 25.05 2.75 24.35 2.65 22.1 2.55 19.85 4.5 16.85"/><path fill="#5c74cd" fill-opacity="0.701960784314" d="M9.45 13.45 Q13.7 13.7 16.1 13.4 15.0 9.4 14.95 6.7 L17.85 6.1 Q19.2 13.55 20.4 14.35 22.1 15.55 23.0 17.35 L24.25 20.15 Q24.85 21.7 24.9 23.2 L24.85 25.9 Q24.75 27.1 23.85 29.1 22.95 31.1 21.35 32.1 19.75 33.1 17.95 33.55 L14.25 33.95 12.25 34.1 9.65 33.65 Q8.05 33.45 6.2 32.1 4.3 30.8 3.75 29.7 L2.7 27.5 Q2.3 26.6 2.2 25.25 2.55 26.2 6.4 28.1 10.2 30.0 14.95 27.45 19.65 24.85 18.8 20.3 18.15 17.0 12.05 14.95 L11.95 14.9 Q10.75 14.6 9.55 13.95 L9.5 13.9 8.65 13.4 9.05 13.45 9.45 13.45"/></g><g id="c14"><path fill="#ffffff" fill-opacity="0.701960784314" d="M5.7 3.8 L3.8 3.85 Q0.6 4.9 0.2 8.05 -0.5 4.0 1.3 2.0 3.1 -0.05 5.05 0.0 7.0 0.0 6.9 1.7 6.75 3.45 5.7 3.8"/></g><g id="c15"><g><use transform="matrix(1.0,0.0,0.0,1.0,0.0,0.0)" xlink:href="#c14"/></g></g><g id="c16"><path fill="#171d2d" fill-opacity="0.301960784314" d="M21.2 2.45 L21.2 2.6 21.25 2.95 21.25 3.0 20.9 4.05 20.85 4.25 Q20.15 7.15 20.25 8.6 L20.5 10.05 Q14.55 13.35 7.25 9.75 L7.4 8.5 Q7.3 6.85 6.6 4.4 L6.6 4.35 6.15 3.4 6.1 3.0 6.1 2.95 6.35 2.05 6.45 1.9 Q6.95 1.05 8.35 0.3 10.5 -0.8 13.7 -0.8 16.85 -0.8 19.05 0.3 L20.75 1.6 21.1 2.1 21.2 2.45"/></g><g id="c17"><path fill="#ffffff" stroke="none" d="M15.05 1.5 L15.35 1.6 22.3 3.55 Q22.0 6.9 20.3 9.75 L11.55 12.45 10.4 11.2 10.85 9.75 11.65 10.55 19.4 8.45 19.4 8.35 20.5 4.55 16.8 3.6 14.15 2.8 15.05 1.5"/><path fill="#d4b254" stroke="none" d="M14.15 2.8 L16.8 3.6 20.5 4.55 19.4 8.35 19.4 8.45 11.65 10.55 10.85 9.75 Q12.0 5.95 14.15 2.8"/><path fill="#dedede" stroke="none" d="M15.05 1.5 L14.15 2.8 13.15 2.45 9.9 0.85 10.75 -0.3 Q12.05 0.4 15.05 1.5 M10.85 9.75 L10.4 11.2 10.15 10.9 9.35 10.05 Q7.75 8.25 7.45 7.25 L7.75 5.65 Q8.1 6.7 9.7 8.5 L10.85 9.75"/><path fill="#a18540" stroke="none" d="M7.75 5.65 Q8.5 2.95 9.9 0.85 L13.15 2.45 14.15 2.8 Q12.0 5.95 10.85 9.75 L9.7 8.5 Q8.1 6.7 7.75 5.65"/><path fill="none" stroke="#000000" stroke-width="0.5" stroke-opacity="0.301960784314" d="M10.4 11.2 L11.55 12.45 20.3 9.75 Q22.0 6.9 22.3 3.55 L15.35 1.6 15.05 1.5 M10.4 11.2 L10.15 10.9 9.35 10.05 Q7.75 8.25 7.45 7.25 L7.75 5.65 Q8.5 2.95 9.9 0.85 L10.75 -0.3 Q12.05 0.4 15.05 1.5"/></g><g id="c18"><g><use transform="matrix(1.0,0.0,0.0,1.0,0.0,0.0)" xlink:href="#c17"/></g></g><g id="c19"><g><use transform="matrix(1.0,0.0,0.0,1.0,0.0,0.0)" xlink:href="#c13"/></g><g><use transform="matrix(1.0,0.0,0.0,1.0,3.7,15.45)" xlink:href="#c15"/></g><g><use transform="matrix(1.0,0.0,0.0,1.0,0.0,0.0)" xlink:href="#c16"/></g><g><use transform="matrix(-1.0,0.0,0.0,1.0,34.05,15.2)" xlink:href="#c18"/></g></g><g id="c20"><path fill="#add6ff" stroke="none" d="M13.2 0.05 Q17.25 0.35 19.75 1.6 22.55 3.05 23.35 4.65 L23.6 5.75 23.6 5.9 23.6 6.1 23.55 6.6 Q23.1 8.55 20.3 9.85 L17.55 11.2 17.1 11.4 17.05 11.4 15.7 11.65 12.25 11.9 11.05 11.9 11.05 11.85 9.8 11.7 Q6.7 11.15 4.3 9.85 0.95 8.3 0.95 5.9 0.95 5.2 1.3 4.5 1.95 3.05 4.6 1.4 L4.9 1.25 Q8.05 0.0 12.25 0.0 L13.2 0.05 M23.0 6.65 L23.05 6.25 Q23.1 4.65 22.05 3.65 L20.05 2.05 Q19.15 1.45 18.0 1.1 L14.95 1.0 Q13.0 1.25 14.7 2.05 L17.95 3.15 Q20.4 4.45 20.45 5.8 L20.25 6.75 Q19.8 7.7 18.45 8.55 17.3 9.3 15.6 9.75 L12.85 10.25 9.9 10.35 5.2 9.65 9.85 10.95 12.9 11.15 15.65 10.9 Q18.45 10.45 20.3 9.4 22.65 8.0 23.0 6.65 M13.35 9.45 L15.6 9.2 Q16.95 8.95 17.75 8.55 19.35 7.8 19.85 6.75 L20.0 5.9 19.85 5.0 Q19.3 3.95 18.3 4.05 L16.8 3.15 Q14.65 2.05 12.25 2.05 9.4 2.05 7.3 2.95 L7.2 3.0 6.85 3.15 Q5.25 3.95 4.8 4.95 4.55 5.4 4.55 5.9 4.55 6.7 5.1 7.35 5.7 8.0 6.85 8.55 8.05 9.2 10.0 9.35 L10.45 9.35 12.25 9.45 12.5 9.45 12.7 9.45 13.35 9.45"/><path fill="#7eb0de" stroke="none" d="M17.1 11.4 Q19.0 10.95 20.65 10.1 22.55 9.15 23.45 8.0 L23.85 7.3 23.6 10.35 23.4 11.2 Q22.8 12.9 20.3 14.15 18.8 14.9 17.1 15.35 L12.25 15.85 10.9 15.8 10.6 15.8 9.75 15.7 9.55 15.7 9.35 15.65 9.2 15.65 Q6.4 15.25 4.2 14.15 1.7 12.9 1.1 11.2 L0.95 10.45 0.9 10.35 Q0.55 8.65 0.65 7.4 L1.05 8.0 Q1.9 9.15 3.8 10.1 6.4 11.45 9.8 11.8 L11.05 11.9 12.25 11.9 15.7 11.65 17.05 11.4 17.1 11.4 M24.25 5.9 L24.15 5.9 24.15 5.5 24.25 5.9 M23.0 6.65 Q22.65 8.0 20.3 9.4 18.45 10.45 15.65 10.9 L12.9 11.15 9.85 10.95 5.2 9.65 9.9 10.35 12.85 10.25 15.6 9.75 Q17.3 9.3 18.45 8.55 19.8 7.7 20.25 6.75 L20.45 5.8 Q20.4 4.45 17.95 3.15 L14.7 2.05 Q13.0 1.25 14.95 1.0 L18.0 1.1 Q19.15 1.45 20.05 2.05 L22.05 3.65 Q23.1 4.65 23.05 6.25 L23.0 6.65 M21.95 12.3 Q23.6 10.35 23.25 8.65 21.0 10.95 18.0 11.6 L15.75 12.05 14.65 12.25 13.85 12.6 Q11.6 13.45 9.6 13.75 5.8 14.35 2.7 13.05 5.0 14.75 8.75 15.35 L9.5 15.45 16.4 15.05 16.85 14.95 Q20.35 14.1 21.95 12.3"/><path fill="#678bdc" stroke="none" d="M21.95 12.3 Q20.35 14.1 16.85 14.95 L16.4 15.05 9.5 15.45 8.75 15.35 Q5.0 14.75 2.7 13.05 5.8 14.35 9.6 13.75 11.6 13.45 13.85 12.6 L14.65 12.25 15.75 12.05 18.0 11.6 Q21.0 10.95 23.25 8.65 23.6 10.35 21.95 12.3"/><path fill="#ecf5fd" stroke="none" d="M13.2 0.05 Q17.5 0.15 20.65 1.7 23.85 3.3 24.15 5.5 L24.15 5.9 24.25 5.9 24.35 6.6 Q24.55 8.25 24.15 10.35 L23.95 11.25 Q23.3 13.0 20.65 14.3 L17.25 15.55 12.25 16.1 10.8 16.05 10.5 16.05 9.6 15.95 9.4 15.95 9.2 15.9 9.0 15.9 Q6.1 15.5 3.8 14.3 1.15 13.0 0.5 11.25 L0.35 10.45 0.3 10.35 Q-0.05 8.5 0.05 7.15 L0.25 5.9 0.3 5.9 0.35 5.5 Q0.6 3.3 3.8 1.7 L4.9 1.25 4.6 1.4 Q1.95 3.05 1.3 4.5 0.95 5.2 0.95 5.9 0.95 8.3 4.3 9.85 6.7 11.15 9.8 11.7 L11.05 11.85 11.05 11.9 9.8 11.8 Q6.4 11.45 3.8 10.1 1.9 9.15 1.05 8.0 L0.65 7.4 Q0.55 8.65 0.9 10.35 L0.95 10.45 1.1 11.2 Q1.7 12.9 4.2 14.15 6.4 15.25 9.2 15.65 L9.35 15.65 9.55 15.7 9.75 15.7 10.6 15.8 10.9 15.8 12.25 15.85 17.1 15.35 Q18.8 14.9 20.3 14.15 22.8 12.9 23.4 11.2 L23.6 10.35 23.85 7.3 23.45 8.0 Q22.55 9.15 20.65 10.1 19.0 10.95 17.1 11.4 L17.55 11.2 20.3 9.85 Q23.1 8.55 23.55 6.6 L23.6 6.1 23.6 5.9 23.6 5.75 23.35 4.65 Q22.55 3.05 19.75 1.6 17.25 0.35 13.2 0.05 M10.45 9.35 L10.0 9.35 Q8.05 9.2 6.85 8.55 5.7 8.0 5.1 7.35 4.55 6.7 4.55 5.9 4.55 5.4 4.8 4.95 5.25 3.95 6.85 3.15 L7.2 3.0 7.3 2.95 Q9.4 2.05 12.25 2.05 14.65 2.05 16.8 3.15 L18.3 4.05 Q19.3 3.95 19.85 5.0 L20.0 5.9 19.85 6.75 Q19.35 7.8 17.75 8.55 16.95 8.95 15.6 9.2 L13.35 9.45 15.6 9.05 17.25 8.35 Q18.65 7.7 19.1 6.8 L19.3 5.9 19.15 5.1 Q18.65 4.15 17.25 3.4 L16.75 3.2 Q14.85 2.4 12.25 2.4 9.65 2.4 7.7 3.25 L7.3 3.4 Q5.9 4.15 5.5 5.05 L5.25 5.9 Q5.25 6.7 5.85 7.35 L7.3 8.35 Q8.5 9.0 10.0 9.25 L10.45 9.35"/><path fill="#556eb5" stroke="none" d="M10.0 9.25 Q8.5 9.0 7.3 8.35 L5.85 7.35 Q5.25 6.7 5.25 5.9 L5.5 5.05 Q5.9 4.15 7.3 3.4 L7.7 3.25 8.55 3.75 Q9.7 4.9 9.95 7.15 L10.0 8.35 10.0 9.25"/><path fill="#6e86d1" stroke="none" d="M10.45 9.35 L10.0 9.25 10.0 8.35 9.95 7.15 Q9.7 4.9 8.55 3.75 L7.7 3.25 Q9.65 2.4 12.25 2.4 14.85 2.4 16.75 3.2 16.0 4.5 15.75 6.95 L15.6 9.05 13.35 9.45 12.7 9.45 12.5 9.45 12.25 9.45 10.45 9.35"/><path fill="#879cdb" stroke="none" d="M16.75 3.2 L17.25 3.4 Q18.65 4.15 19.15 5.1 L19.3 5.9 19.1 6.8 Q18.65 7.7 17.25 8.35 L15.6 9.05 15.75 6.95 Q16.0 4.5 16.75 3.2"/><path fill="none" stroke="#000000" stroke-width="1.0" stroke-opacity="0.301960784314" d="M24.15 5.5 Q23.85 3.3 20.65 1.7 17.5 0.15 13.2 0.05 L12.25 0.0 Q8.05 0.0 4.9 1.25 L3.8 1.7 Q0.6 3.3 0.35 5.5 L0.3 5.9 0.25 5.9 0.05 7.15 Q-0.05 8.5 0.3 10.35 L0.35 10.45 0.5 11.25 Q1.15 13.0 3.8 14.3 6.1 15.5 9.0 15.9 L9.2 15.9 9.4 15.95 9.6 15.95 10.5 16.05 10.8 16.05 12.25 16.1 17.25 15.55 20.65 14.3 Q23.3 13.0 23.95 11.25 L24.15 10.35 Q24.55 8.25 24.35 6.6 L24.25 5.9"/></g><g id="c21"><g><use transform="matrix(1.0,0.0,0.0,1.0,0.0,0.0)" xlink:href="#c20"/></g></g><g id="c22"><path fill="#e8e1ca" stroke="none" d="M2.85 0.45 Q0.9 2.0 0.7 3.4 0.65 3.65 0.9 4.2 L1.4 4.75 3.1 3.95 5.8 2.5 Q4.45 3.5 3.9 4.25 L3.25 5.4 4.6 5.5 Q7.0 5.5 11.15 4.2 L13.8 2.9 Q14.7 2.25 14.9 0.8 14.95 0.2 13.65 -0.85 15.3 -0.25 15.35 1.05 L15.4 1.25 15.3 1.75 14.4 3.2 13.25 4.15 12.4 4.7 Q10.5 5.7 8.0 6.15 L7.5 6.25 Q4.75 6.65 2.7 6.15 L2.55 6.1 2.05 5.9 0.6 5.0 Q0.15 4.5 0.15 3.85 0.05 2.3 2.25 0.85 L2.85 0.45"/><path fill="#d5c899" stroke="none" d="M6.0 -0.9 L8.2 1.05 8.35 -0.15 8.4 -1.35 12.95 -1.1 13.65 -0.85 Q14.95 0.2 14.9 0.8 14.7 2.25 13.8 2.9 L11.15 4.2 Q7.0 5.5 4.6 5.5 L3.25 5.4 3.9 4.25 Q4.45 3.5 5.8 2.5 L3.1 3.95 1.4 4.75 0.9 4.2 Q0.65 3.65 0.7 3.4 0.9 2.0 2.85 0.45 L4.6 -0.4 5.85 -0.85 6.0 -0.9 M11.05 -0.85 L10.9 -0.85 Q9.55 -0.55 9.45 0.2 9.4 0.95 11.0 0.95 L12.25 0.75 Q13.0 0.5 13.05 0.05 13.1 -0.35 12.15 -0.55 L11.85 -0.65 11.05 -0.85 M13.3 0.9 L12.65 1.15 12.3 1.55 12.95 1.9 Q13.9 1.9 13.95 1.4 14.0 1.3 13.6 1.15 L13.3 0.9 M10.75 2.05 L10.0 1.75 9.55 1.7 8.5 2.0 7.8 2.25 Q7.0 2.65 6.95 3.15 6.8 4.05 8.05 4.05 L10.05 3.65 Q11.05 3.2 11.1 2.6 11.15 2.25 10.75 2.05"/><path fill="#ac9c46" stroke="none" d="M8.4 -1.35 L8.35 -0.15 8.2 1.05 6.0 -0.9 Q7.15 -0.45 7.65 -0.7 L8.4 -1.35 M11.05 -0.85 L11.85 -0.65 12.15 -0.55 Q13.1 -0.35 13.05 0.05 13.0 0.5 12.25 0.75 L11.0 0.95 Q9.4 0.95 9.45 0.2 9.55 -0.55 10.9 -0.85 L11.05 -0.85 M10.75 2.05 Q11.15 2.25 11.1 2.6 11.05 3.2 10.05 3.65 L8.05 4.05 Q6.8 4.05 6.95 3.15 7.0 2.65 7.8 2.25 L8.5 2.0 9.55 1.7 10.0 1.75 10.75 2.05 M13.3 0.9 L13.6 1.15 Q14.0 1.3 13.95 1.4 13.9 1.9 12.95 1.9 L12.3 1.55 12.65 1.15 13.3 0.9"/><path fill="#ccbe88" stroke="none" d="M15.3 1.75 L14.95 5.3 14.9 5.3 Q12.35 5.3 11.4 6.6 L10.75 6.45 10.45 6.5 Q10.1 6.65 10.0 7.15 9.95 7.5 10.25 7.75 L10.85 8.0 Q10.65 9.45 10.9 10.1 L8.9 10.4 Q8.05 8.35 7.5 6.25 L8.0 6.15 Q10.5 5.7 12.4 4.7 L13.25 4.15 14.4 3.2 15.3 1.75"/><path fill="#947d49" stroke="none" d="M11.4 6.6 L11.75 6.7 Q12.3 6.95 12.25 7.3 L11.9 7.75 10.9 8.0 10.85 7.95 10.85 8.0 10.25 7.75 Q9.95 7.5 10.0 7.15 10.1 6.65 10.45 6.5 L10.75 6.45 11.4 6.6"/><path fill="#baa75f" stroke="none" d="M14.95 5.3 L14.75 7.3 Q14.55 8.55 12.6 9.5 L10.9 10.1 Q10.65 9.45 10.85 8.0 L10.9 8.0 11.9 7.75 12.25 7.3 Q12.3 6.95 11.75 6.7 L11.4 6.6 Q12.35 5.3 14.9 5.3 L14.95 5.3"/><path fill="#89793a" stroke="none" d="M5.2 7.5 Q6.0 7.5 5.95 8.1 5.95 8.6 5.65 8.6 5.1 8.6 4.95 8.05 4.8 7.5 5.2 7.5 M2.6 7.3 L2.75 7.25 3.75 7.75 4.5 8.55 4.05 8.85 3.2 8.55 2.65 7.8 2.6 7.3"/><path fill="#65592c" stroke="none" d="M8.9 10.4 L8.05 10.4 Q5.45 10.4 3.7 9.5 L2.5 8.5 2.25 8.0 0.6 5.0 2.05 5.9 2.55 6.1 2.7 6.15 Q4.75 6.65 7.5 6.25 8.05 8.35 8.9 10.4 M2.6 7.3 L2.65 7.8 3.2 8.55 4.05 8.85 4.5 8.55 3.75 7.75 2.75 7.25 2.6 7.3 M5.2 7.5 Q4.8 7.5 4.95 8.05 5.1 8.6 5.65 8.6 5.95 8.6 5.95 8.1 6.0 7.5 5.2 7.5"/><path fill="none" stroke="#000000" stroke-width="1.0" stroke-opacity="0.301960784314" d="M8.4 -1.35 L7.65 -0.7 Q7.15 -0.45 6.0 -0.9 L5.85 -0.85 4.6 -0.4 2.85 0.45 M13.65 -0.85 L12.95 -1.1 8.4 -1.35 M13.65 -0.85 Q15.3 -0.25 15.35 1.05 L15.4 1.25 15.3 1.75 14.95 5.3 14.75 7.3 Q14.55 8.55 12.6 9.5 L10.9 10.1 8.9 10.4 8.05 10.4 Q5.45 10.4 3.7 9.5 L2.5 8.5 2.25 8.0 0.6 5.0 Q0.15 4.5 0.15 3.85 0.05 2.3 2.25 0.85 L2.85 0.45"/></g><g id="c23"><g><use transform="matrix(1.0,0.0,0.0,1.0,0.0,0.0)" xlink:href="#c22"/></g></g><g id="c24"><path fill="none" stroke="#ffcc00" stroke-width="0.5" d="M7.05 61.6 Q7.5 60.95 8.45 60.5 9.1 60.05 10.1 59.7 L28.6 53.75 Q32.85 52.35 34.75 56.45 L47.65 85.05 Q49.25 88.5 46.5 90.05 45.8 90.65 44.6 91.0 L26.1 97.0 Q23.45 97.8 21.8 96.65 20.65 95.9 19.95 94.25 L7.0 65.6 Q5.85 63.1 7.05 61.6"/></g><g id="c25"><path fill="#ffffff" stroke="none" d="M7.05 61.6 Q7.5 60.95 8.45 60.5 9.1 60.05 10.1 59.7 L28.6 53.75 Q32.85 52.35 34.75 56.45 L47.65 85.05 Q49.25 88.5 46.5 90.05 45.8 90.65 44.6 91.0 L26.1 97.0 Q23.45 97.8 21.8 96.65 20.65 95.9 19.95 94.25 L7.0 65.6 Q5.85 63.1 7.05 61.6"/><path fill="#ffffff" stroke-linejoin="round" stroke-linecap="round" stroke="url(#gradient3)" stroke-width="0.5" d="M7.05 61.6 Q7.5 60.95 8.45 60.5 9.1 60.05 10.1 59.7 L28.6 53.75 Q32.85 52.35 34.75 56.45 L47.65 85.05 Q49.25 88.5 46.5 90.05 45.8 90.65 44.6 91.0 L26.1 97.0 Q23.45 97.8 21.8 96.65 20.65 95.9 19.95 94.25 L7.0 65.6 Q5.85 63.1 7.05 61.6"/></g><linearGradient gradientUnits="userSpaceOnUse" x1="-819.2" x2="819.2" spreadMethod="pad" gradientTransform="matrix(-0.0125732421875,0.0358276367188,-0.0249176025391,-0.0237579345703,24.2,32.05)" id="gradient7"><stop offset="0.0" stop-opacity="0.337254901961"/><stop offset="1.0" stop-opacity="0.0"/></linearGradient><linearGradient gradientUnits="userSpaceOnUse" x1="-819.2" x2="819.2" spreadMethod="pad" gradientTransform="matrix(-0.00735473632812,0.0306396484375,-0.0266723632812,-0.0176086425781,34.25,44.6)" id="gradient8"><stop offset="0.0" stop-opacity="0.337254901961"/><stop offset="1.0" stop-opacity="0.0"/></linearGradient><linearGradient gradientUnits="userSpaceOnUse" x1="-819.2" x2="819.2" spreadMethod="pad" gradientTransform="matrix(-0.00982666015625,0.0313873291016,-0.0181274414062,-0.0154724121094,4.1,17.85)" id="gradient9"><stop offset="0.0" stop-opacity="0.337254901961"/><stop offset="1.0" stop-opacity="0.0"/></linearGradient><linearGradient gradientUnits="userSpaceOnUse" x1="-819.2" x2="819.2" spreadMethod="pad" gradientTransform="matrix(0.0,0.0410766601562,-0.0333709716797,-0.0151062011719,15.9,32.85)" id="gradient10"><stop offset="0.0" stop-opacity="0.337254901961"/><stop offset="1.0" stop-opacity="0.0"/></linearGradient><g id="c26"><path stroke="none" fill="url(#gradient7)" d="M21.35 46.7 L21.35 1.75 26.45 1.75 26.45 46.7 21.35 46.7"/><path stroke="none" fill="url(#gradient8)" d="M31.7 5.7 L36.8 5.55 36.8 46.7 31.7 46.7 31.7 5.7"/><path stroke="none" fill="url(#gradient9)" d="M0.0 6.65 L5.1 6.45 5.1 46.7 0.0 46.7 0.0 6.65"/><path stroke="none" fill="url(#gradient10)" d="M9.35 46.7 L9.65 1.75 15.75 1.75 15.0 46.7 9.35 46.7"/></g><g id="c27"><g><use transform="matrix(1.0,0.0,0.0,1.0,0.0,0.0)" xlink:href="#c26"/></g></g><g id="c28"><path fill="#fefd8d" fill-opacity="0.972549019608" d="M33.85 83.75 L33.85 83.8 33.85 83.95 33.85 84.0 33.85 84.1 33.9 84.1 33.9 84.15 34.35 84.4 34.85 84.75 34.35 84.45 34.1 84.3 34.05 84.25 33.95 84.2 33.9 84.2 33.9 84.7 33.9 85.25 33.85 84.75 33.75 84.2 33.7 84.1 33.5 84.25 33.0 84.55 32.7 84.7 32.95 84.5 33.4 84.3 33.45 84.25 33.5 84.2 33.7 84.1 33.65 84.05 33.7 84.05 33.7 84.0 33.3 83.6 32.95 83.25 33.3 83.55 33.55 83.8 33.7 83.95 33.8 83.4 33.9 82.95 33.85 83.35 33.85 83.75 M34.4 83.9 L34.35 83.9 34.25 84.0 34.15 84.0 33.9 84.05 34.15 83.95 34.7 83.75 35.2 83.65 34.85 83.75 34.95 83.85 34.85 83.75 34.7 83.8 34.4 83.9 M36.75 85.45 L36.9 85.55 36.9 85.5 37.1 83.9 37.35 82.3 37.45 81.75 37.4 82.25 37.4 83.85 37.2 85.6 37.35 86.0 37.4 86.1 38.7 86.9 40.15 87.75 40.55 88.05 40.1 87.8 38.75 87.05 37.75 86.45 37.4 86.25 37.35 86.2 37.4 86.3 37.5 87.75 37.55 89.45 37.6 90.0 37.5 89.5 37.25 87.9 37.05 86.25 37.0 86.3 36.9 85.9 36.7 85.75 36.9 85.85 36.9 85.65 35.7 84.55 34.95 83.85 35.65 84.4 36.45 85.15 36.5 85.2 36.75 85.45 M36.1 86.45 L36.2 86.4 36.85 86.1 36.3 86.45 34.8 87.25 33.35 88.0 32.8 88.25 33.3 88.0 34.65 87.2 35.7 86.65 36.1 86.45 M41.85 84.45 L41.35 84.6 39.85 85.15 38.15 85.7 37.5 85.9 Q37.45 85.85 38.1 85.65 L39.7 85.1 41.3 84.6 41.85 84.45"/><path fill="#fffd8f" fill-opacity="0.4" d="M33.85 83.75 L34.05 83.4 34.25 83.2 34.15 83.4 34.0 83.8 33.9 83.9 33.85 83.8 33.85 83.75 M34.1 84.3 L34.35 84.5 34.45 84.65 34.25 84.5 34.0 84.3 33.95 84.2 34.05 84.25 34.1 84.3 M33.4 84.3 L33.3 84.3 32.95 84.45 32.7 84.55 32.95 84.4 33.35 84.25 33.45 84.25 33.4 84.3 M33.55 83.8 L33.4 83.6 33.6 83.8 33.65 83.9 33.55 83.8 M34.4 83.9 L34.65 83.85 34.95 83.85 35.05 83.8 34.95 83.85 34.7 83.9 34.3 84.0 34.2 84.0 34.25 84.0 34.35 83.9 34.4 83.9 M33.6 84.3 L33.7 84.2 33.75 84.35 33.65 84.7 33.55 85.05 33.55 84.75 33.6 84.3 M37.65 85.15 L37.35 85.5 37.35 85.0 37.9 84.05 38.5 83.1 38.7 82.75 38.55 83.1 38.15 84.05 37.65 85.15 M36.75 85.45 L36.5 85.2 36.45 85.15 35.85 84.4 35.45 83.85 35.95 84.3 36.65 85.15 36.9 85.5 36.75 85.45 M37.4 86.3 L37.35 86.2 37.4 86.25 37.75 86.45 Q38.15 86.7 38.6 87.1 L39.3 87.75 38.5 87.15 37.6 86.5 37.4 86.3 M36.1 86.45 L35.7 86.65 34.7 87.0 33.8 87.3 34.7 86.95 35.75 86.5 36.1 86.45 M38.7 85.65 L38.25 85.7 38.7 85.55 39.75 85.35 40.7 85.2 41.05 85.15 40.75 85.25 39.8 85.45 38.7 85.65 M36.7 86.7 L36.95 86.25 37.0 86.75 36.65 87.8 36.3 88.85 36.15 89.25 36.25 88.85 36.4 87.85 Q36.5 87.1 36.7 86.7"/><path fill="#fffd8f" fill-opacity="0.392156862745" d="M38.0 86.75 Q37.9 86.0 37.45 85.8 L36.9 85.85 Q36.75 86.1 36.9 86.5 37.1 87.0 37.65 87.3 L38.35 87.95 38.6 88.25 38.45 87.85 38.0 86.75"/><path fill="#fffd8f" fill-opacity="0.392156862745" d="M38.0 86.25 L37.05 85.85 Q36.8 85.8 36.95 85.95 L37.55 86.35 38.35 86.6 Q38.8 86.65 39.05 86.85 L39.35 86.95 39.0 86.75 38.0 86.25"/><path fill="#fffd8f" fill-opacity="0.392156862745" d="M36.4 84.8 Q36.35 85.55 36.75 85.85 L37.3 85.9 37.45 85.25 Q37.35 84.75 36.9 84.35 36.35 83.9 36.3 83.55 L36.1 83.25 36.2 83.65 36.4 84.8"/><path fill="#fffd8f" fill-opacity="0.392156862745" d="M36.25 85.35 L37.1 85.95 37.2 85.8 36.75 85.3 35.95 84.9 Q35.55 84.75 35.3 84.6 L35.05 84.45 35.35 84.65 36.25 85.35"/><path fill="#fffd8f" fill-opacity="0.392156862745" d="M38.75 85.2 Q38.0 85.45 37.85 85.65 37.7 85.85 37.85 85.8 L38.5 85.65 39.25 85.2 39.9 84.75 40.15 84.6 39.75 84.75 38.75 85.2"/><path fill="#fffd8f" fill-opacity="0.392156862745" d="M35.75 87.0 L36.6 86.4 36.5 86.25 Q36.25 86.25 35.9 86.5 L35.25 87.1 34.7 87.65 Q34.4 87.8 34.45 87.85 L34.8 87.6 35.75 87.0"/><path fill="#fffd8f" fill-opacity="0.392156862745" d="M34.1 84.35 L33.95 84.05 33.75 84.05 Q33.65 84.1 33.7 84.25 L34.0 84.55 34.2 84.75 34.3 84.85 34.2 84.75 34.1 84.35"/><path fill="#fffd8f" fill-opacity="0.392156862745" d="M34.1 84.2 Q33.9 84.05 33.75 84.05 L33.75 84.1 33.95 84.2 34.2 84.3 34.5 84.4 34.55 84.4 34.45 84.4 34.1 84.2"/><path fill="#fffd8f" fill-opacity="0.392156862745" d="M33.5 83.65 L33.65 84.05 33.85 84.05 33.9 83.85 33.65 83.55 33.5 83.25 33.45 83.15 33.5 83.25 33.5 83.65"/><path fill="#fffd8f" fill-opacity="0.392156862745" d="M33.5 83.9 L33.75 84.05 33.8 84.0 33.65 83.85 33.35 83.7 33.2 83.6 33.05 83.55 33.15 83.6 33.5 83.9"/><path fill="#fffd8f" fill-opacity="0.392156862745" d="M34.3 83.8 L34.05 83.95 34.05 84.0 34.25 83.95 34.55 83.8 Q34.6 83.7 34.7 83.7 L34.8 83.6 34.7 83.65 34.3 83.8"/><path fill="#fffd8f" fill-opacity="0.392156862745" d="M33.3 84.45 L33.6 84.2 33.6 84.15 Q33.5 84.15 33.4 84.3 L33.15 84.45 32.95 84.65 32.85 84.75 33.0 84.6 33.3 84.45"/><path fill="#ffffff" stroke="none" d="M36.3 85.35 Q36.05 85.7 36.05 86.15 L36.5 86.9 37.3 87.15 38.05 86.75 38.25 85.9 37.85 85.2 37.05 84.95 36.3 85.35"/><path fill="#fefd8d" fill-opacity="0.972549019608" d="M18.75 62.3 L18.65 62.35 18.2 62.45 18.6 62.25 19.85 61.9 21.0 61.5 21.4 61.35 21.05 61.5 19.9 61.9 18.75 62.3 M17.45 61.95 L17.7 62.2 17.75 62.2 17.7 62.15 17.85 61.05 18.05 59.85 18.15 59.4 18.1 59.8 18.05 61.0 18.0 62.25 18.1 62.6 19.15 63.2 20.0 63.75 19.15 63.3 18.5 62.95 18.4 62.85 18.15 62.7 18.1 62.7 18.15 62.75 18.2 63.85 18.2 64.9 18.0 64.0 17.85 62.8 17.8 62.8 17.75 62.45 17.6 62.3 17.7 62.35 17.7 62.3 16.85 61.5 15.9 60.65 15.65 60.35 15.95 60.65 16.8 61.4 17.45 61.95 M14.7 64.25 L15.05 64.05 16.1 63.45 17.25 62.85 17.7 62.65 17.3 62.95 16.2 63.45 15.1 64.05 14.7 64.25"/><path fill="#fffd8f" fill-opacity="0.4" d="M18.75 62.3 L19.1 62.2 19.85 62.05 20.6 61.95 19.85 62.15 19.05 62.3 18.75 62.3 M17.45 61.95 L16.95 61.35 16.5 60.75 17.0 61.3 17.55 61.95 17.7 62.15 17.75 62.2 17.7 62.2 17.45 61.95 M18.5 62.95 L19.0 63.35 19.6 63.8 19.8 64.0 19.6 63.85 18.95 63.4 18.3 62.9 18.15 62.75 18.1 62.7 18.15 62.7 18.4 62.85 18.5 62.95 M18.3 61.9 L18.05 62.2 18.1 61.85 18.45 61.15 18.9 60.4 19.1 60.2 18.95 60.4 18.65 61.15 18.3 61.9 M16.9 62.9 L17.2 62.85 Q17.15 62.9 16.85 63.05 L16.15 63.3 15.45 63.55 15.2 63.6 15.45 63.5 16.1 63.25 Q16.6 63.0 16.9 62.9 M17.55 63.1 L17.75 62.75 17.8 63.1 17.6 63.95 17.25 64.7 17.15 64.95 17.2 64.7 17.4 63.9 Q17.4 63.4 17.55 63.1"/><path fill="#fffd8f" fill-opacity="0.392156862745" d="M18.6 63.1 L18.15 62.4 17.7 62.45 17.75 62.95 18.3 63.55 Q18.75 63.8 18.8 64.0 L19.0 64.25 18.85 63.95 18.6 63.1"/><path fill="#fffd8f" fill-opacity="0.392156862745" d="M18.55 62.7 Q18.05 62.4 17.9 62.4 17.7 62.4 17.8 62.5 L18.25 62.8 18.85 63.0 19.35 63.15 19.6 63.2 19.35 63.1 18.55 62.7"/><path fill="#fffd8f" fill-opacity="0.392156862745" d="M17.3 61.7 Q17.35 62.3 17.55 62.45 L18.0 62.5 18.1 62.0 17.65 61.35 17.25 60.75 17.15 60.5 17.2 60.8 17.3 61.7"/><path fill="#fffd8f" fill-opacity="0.392156862745" d="M17.25 62.1 L17.9 62.5 17.95 62.45 17.6 62.05 17.05 61.75 16.55 61.5 16.35 61.4 16.55 61.6 Q16.8 61.7 17.25 62.1"/><path fill="#fffd8f" fill-opacity="0.392156862745" d="M19.05 61.9 L18.4 62.3 18.45 62.4 18.9 62.3 19.5 61.95 19.95 61.6 20.15 61.5 19.85 61.6 19.05 61.9"/><path fill="#fffd8f" fill-opacity="0.392156862745" d="M16.9 63.3 L17.5 62.85 17.45 62.7 17.05 62.9 16.5 63.35 16.15 63.75 15.95 63.95 16.2 63.75 16.9 63.3"/><path fill="#ffffff" stroke="none" d="M17.4 62.1 Q17.15 62.35 17.2 62.65 L17.55 63.25 18.1 63.4 18.7 63.1 18.85 62.5 18.55 61.95 17.9 61.75 17.4 62.1"/><path fill="#ffffff" stroke="none" d="M33.55 83.9 L33.45 84.15 33.6 84.45 33.85 84.5 34.15 84.4 34.2 84.05 34.1 83.85 33.75 83.75 33.55 83.9"/></g><g id="c29"><g><use transform="matrix(1.0,0.0,0.0,1.0,6.3,53.35)" xlink:href="#c9"/></g><g><use transform="matrix(1.0,0.0,0.0,1.0,0.0,0.0)" xlink:href="#c10"/></g><g><use transform="matrix(1.0,0.0,0.0,1.0,6.45,53.4)" xlink:href="#c12"/></g><g><use transform="matrix(0.467544555664,-0.269912719727,0.269912719727,0.467544555664,16.95,72.1)" xlink:href="#c19"/></g><g><use transform="matrix(0.415802001953,-0.240051269531,0.240051269531,0.415802001953,16.9,69.2)" xlink:href="#c21"/></g><g><use transform="matrix(0.467544555664,-0.269912719727,0.269912719727,0.467544555664,17.65,67.45)" filter="url(#filter24)" xlink:href="#c23"/></g><g><use transform="matrix(1.0,0.0,0.0,1.0,0.0,0.0)" xlink:href="#c24"/></g><mask id="mask25"><use transform="matrix(1.0,0.0,0.0,1.0,0.0,0.0)" xlink:href="#c25"/></mask><g mask="url(#mask25)"><use transform="matrix(1.0,0.0,0.0,1.0,9.65,51.0)" filter="url(#filter27)" xlink:href="#c27"/></g><g mask="url(#mask25)"><use transform="matrix(1.0,0.0,0.0,1.0,9.65,51.0)" filter="url(#filter28)" xlink:href="#c27"/></g><g mask="url(#mask25)"><use transform="matrix(1.0,0.0,0.0,1.0,0.0,0.0)" xlink:href="#c28"/></g><g><use transform="matrix(0.141098022461,-0.0378112792969,0.111373901367,0.225646972656,27.2,74.05)" filter="url(#filter30)" xlink:href="#c6"/></g></g><filter id="filter24"><feColorMatrix in="SourceGraphic" type="matrix" values="0.73828125 0.0 0.0 0.0 0.2578125 0.0 0.73828125 0.0 0.0 0.10546875 0.0 0.0 0.73828125 0.0 0.0 0.0 0.0 0.0 1.0 0.0" result="cxform"/><feComposite operator="in" in2="SourceGraphic" result="color-xform"/></filter><filter id="filter27"><feColorMatrix in="SourceGraphic" type="matrix" values="0.0 0.0 0.0 0.0 0.99609375 0.0 0.0 0.0 0.0 0.99609375 0.0 0.0 0.0 0.0 0.99609375 0.0 0.0 0.0 1.0 0.0" result="cxform"/><feComposite operator="in" in2="SourceGraphic" result="color-xform"/></filter><filter id="filter28"><feColorMatrix in="SourceGraphic" type="matrix" values="0.0 0.0 0.0 0.0 0.99609375 0.0 0.0 0.0 0.0 0.99609375 0.0 0.0 0.0 0.0 0.99609375 0.0 0.0 0.0 1.0 0.0" result="cxform"/><feComposite operator="in" in2="SourceGraphic" result="color-xform"/></filter><filter id="filter30"><feColorMatrix in="SourceGraphic" type="matrix" values="1.0 0.0 0.0 0.0 0.0 0.0 1.0 0.0 0.0 0.0 0.0 0.0 1.0 0.0 0.0 0.0 0.0 0.0 0.23046875 0.0" result="cxform"/><feComposite operator="in" in2="SourceGraphic" result="color-xform"/></filter></defs><g><g><use transform="matrix(1.0,0.0,0.0,1.0,0.0,0.0)" xlink:href="#c1"/></g><g><use transform="matrix(1.15496826172,0.0,0.0,1.15496826172,-1.5,-57.65)" xlink:href="#c29"/></g></g></svg>