<?xml version='1.0' encoding='UTF-8'?>
<svg xmlns:xlink="http://www.w3.org/1999/xlink" xmlns="http://www.w3.org/2000/svg" version="1.1" width="60px" height="60px" viewBox="0.0 0.0 60.0 60.0"><defs><g id="c1"><path fill="#000000" fill-opacity="0.00392156862745" d="M0.0 0.0 L60.0 0.0 60.0 60.0 0.0 60.0 0.0 0.0"/></g><g id="c2"><path fill="#006699" stroke="none" d="M31.5 39.85 L19.8 43.65 Q17.15 44.45 15.5 43.3 14.35 42.55 13.65 40.9 L1.7 14.45 1.6 14.3 1.2 13.45 -0.75 9.05 Q-2.05 6.2 -0.3 4.75 0.3 4.25 1.2 3.9 L5.5 2.25 Q8.95 0.95 10.65 4.15 L22.3 0.4 Q26.55 -1.0 28.45 3.1 L40.55 29.95 40.9 30.7 42.95 35.15 Q43.95 37.35 43.15 38.7 42.5 39.7 40.95 40.25 L36.65 41.8 35.1 42.2 Q32.75 42.3 31.5 39.85"/><path fill="none" stroke="#000000" stroke-width="1.0" stroke-opacity="0.298039215686" d="M31.5 39.85 L19.8 43.65 Q17.15 44.45 15.5 43.3 14.35 42.55 13.65 40.9 L1.7 14.45 1.6 14.3 1.2 13.45 -0.75 9.05 Q-2.05 6.2 -0.3 4.75 0.3 4.25 1.2 3.9 L5.5 2.25 Q8.95 0.95 10.65 4.15 L22.3 0.4 Q26.55 -1.0 28.45 3.1 L40.55 29.95 40.9 30.7 42.95 35.15 Q43.95 37.35 43.15 38.7 42.5 39.7 40.95 40.25 L36.65 41.8 35.1 42.2 Q32.75 42.3 31.5 39.85"/><path fill="#300525" stroke="none" d="M0.75 8.25 L29.8 9.75 25.55 0.9 Q26.9 1.6 27.8 3.55 L40.7 32.15 Q42.6 36.3 38.3 37.65 L23.3 42.5 13.15 21.4 4.6 20.9 0.7 12.25 Q-0.45 9.75 0.75 8.25 M20.1 43.55 L19.8 43.65 Q17.15 44.45 15.5 43.3 L20.1 43.55"/><path fill="#630a4c" stroke="none" d="M25.55 0.9 L29.8 9.75 0.75 8.25 Q1.45 7.3 3.1 6.75 L21.65 0.8 25.55 0.9 M4.6 20.9 L13.15 21.4 23.3 42.5 20.1 43.55 15.5 43.3 Q14.35 42.55 13.65 40.9 L4.6 20.9"/><path fill="none" stroke="#000000" stroke-width="0.5" stroke-opacity="0.301960784314" d="M0.75 8.25 Q-0.45 9.75 0.7 12.25 L4.6 20.9 M23.3 42.5 L38.3 37.65 Q42.6 36.3 40.7 32.15 L27.8 3.55 Q26.9 1.6 25.55 0.9 L21.65 0.8 3.1 6.75 Q1.45 7.3 0.75 8.25 M20.1 43.55 L19.8 43.65 Q17.15 44.45 15.5 43.3 14.35 42.55 13.65 40.9 L4.6 20.9 M20.1 43.55 L23.3 42.5"/><path fill="#9d147b" stroke="none" d="M14.2 40.5 L1.35 11.8 Q-0.5 7.75 3.8 6.35 L22.3 0.4 Q26.55 -1.0 28.45 3.1 L41.35 31.7 Q43.25 35.85 38.9 37.25 L20.4 43.2 Q16.1 44.55 14.2 40.5"/><path fill="none" stroke="#000000" stroke-width="0.5" stroke-opacity="0.301960784314" d="M14.2 40.5 L1.35 11.8 Q-0.5 7.75 3.8 6.35 L22.3 0.4 Q26.55 -1.0 28.45 3.1 L41.35 31.7 Q43.25 35.85 38.9 37.25 L20.4 43.2 Q16.1 44.55 14.2 40.5"/><path fill="#9d147b" stroke="none" d="M31.4 39.65 L31.3 39.45 31.25 39.4 29.25 34.95 Q27.55 31.2 31.25 29.85 L35.6 28.25 Q38.8 27.1 40.5 29.85 L40.9 30.7 42.95 35.15 Q43.95 37.35 43.15 38.7 42.5 39.45 41.2 39.9 L36.9 41.45 34.85 41.85 Q32.9 41.7 31.75 39.5 L31.4 39.65"/><path fill="#630a4c" stroke="none" d="M43.15 38.7 Q42.5 39.7 40.95 40.25 L36.65 41.8 35.1 42.2 Q32.75 42.3 31.45 39.8 L31.4 39.65 31.75 39.5 Q32.9 41.7 34.85 41.85 L36.9 41.45 41.2 39.9 Q42.5 39.45 43.15 38.7"/><path fill="none" stroke="#003333" stroke-width="0.5" stroke-opacity="0.509803921569" d="M43.15 38.7 Q42.5 39.7 40.95 40.25 L36.65 41.8 35.1 42.2 Q32.75 42.3 31.45 39.8 L31.4 39.65 30.3 40.0 31.4 39.65 M40.5 29.85 L40.9 30.7 42.95 35.15 Q43.95 37.35 43.15 38.7 42.5 39.45 41.2 39.9 L36.9 41.45 34.85 41.85 Q32.9 41.7 31.75 39.5 L31.4 39.65"/><path fill="#9d147b" stroke="none" d="M10.65 4.2 L10.85 4.6 12.85 9.05 Q14.5 12.8 10.8 14.15 L6.5 15.8 Q4.5 16.6 3.1 15.8 L1.75 12.85 -0.2 8.45 Q-1.25 6.15 -0.3 4.75 0.3 4.25 1.2 3.9 L5.5 2.25 Q9.0 0.95 10.65 4.2"/><path fill="#300525" stroke="none" d="M-0.3 4.75 Q-1.25 6.15 -0.2 8.45 L1.75 12.85 3.1 15.8 Q2.25 15.35 1.6 14.3 L1.2 13.45 -0.75 9.05 Q-2.05 6.2 -0.3 4.75"/><path fill="none" stroke="#003333" stroke-width="0.5" stroke-opacity="0.509803921569" d="M3.1 15.8 L6.45 23.15 M-0.3 4.75 Q0.3 4.25 1.2 3.9 L5.5 2.25 Q9.0 0.95 10.65 4.2 M3.1 15.8 L1.75 12.85 -0.2 8.45 Q-1.25 6.15 -0.3 4.75 -2.05 6.2 -0.75 9.05 L1.2 13.45 1.6 14.3"/><path fill="#fcf2cf" stroke="none" d="M9.15 13.6 Q9.8 12.8 9.55 11.6 L9.1 10.55 22.05 6.35 Q24.9 5.45 26.25 7.85 L26.5 8.3 35.8 29.0 35.95 29.35 Q34.75 29.3 34.1 30.1 33.45 30.9 33.7 32.1 L34.0 32.9 20.65 37.2 Q18.8 37.8 17.65 37.0 16.8 36.4 16.3 35.2 L6.95 14.6 6.8 14.4 7.1 14.4 Q8.4 14.45 9.15 13.6"/><path fill="#c47fad" stroke="none" d="M9.15 13.6 Q8.4 14.45 7.1 14.4 L6.8 14.4 6.95 14.6 16.3 35.2 Q16.8 36.4 17.65 37.0 18.8 37.8 20.65 37.2 L34.0 32.9 33.7 32.1 Q33.45 30.9 34.1 30.1 34.75 29.3 35.95 29.35 L35.8 29.0 26.5 8.3 26.25 7.85 Q24.9 5.45 22.05 6.35 L9.1 10.55 9.55 11.6 Q9.8 12.8 9.15 13.6 M28.25 6.1 L35.55 22.3 39.35 30.75 Q41.1 34.5 37.2 35.7 L20.45 41.1 Q16.8 42.25 15.2 39.0 L15.0 38.6 8.25 23.65 3.35 12.8 Q1.65 9.1 5.5 7.85 L22.25 2.5 Q26.05 1.25 27.75 4.95 L28.25 6.1"/><path fill="none" stroke="#ffcc00" stroke-width="1.0" stroke-opacity="0.749019607843" d="M35.55 22.3 L39.35 30.75 Q41.1 34.5 37.2 35.7 L20.45 41.1 Q16.8 42.25 15.2 39.0 L15.0 38.6 M8.25 23.65 L3.35 12.8 Q1.65 9.1 5.5 7.85 L22.25 2.5 Q26.05 1.25 27.75 4.95 L28.25 6.1"/><path fill="none" stroke="#bf9900" stroke-width="1.0" stroke-opacity="0.749019607843" d="M28.25 6.1 L35.55 22.3 M15.0 38.6 L8.25 23.65"/><path fill="none" stroke="#f0b92b" stroke-width="0.5" d="M9.15 13.6 Q9.8 12.8 9.55 11.6 L9.1 10.55 22.05 6.35 Q24.9 5.45 26.25 7.85 L26.5 8.3 35.8 29.0 35.95 29.35 Q34.75 29.3 34.1 30.1 33.45 30.9 33.7 32.1 L34.0 32.9 20.65 37.2 Q18.8 37.8 17.65 37.0 16.8 36.4 16.3 35.2 L6.95 14.6 6.8 14.4 7.1 14.4 Q8.4 14.45 9.15 13.6"/></g><g id="c3"><path fill="#7fdbfe" stroke="none" d="M10.75 4.9 Q10.75 4.6 10.9 4.35 11.25 3.45 11.95 2.75 13.3 1.5 14.35 2.1 15.4 2.7 14.95 4.45 14.7 5.4 14.1 6.15 L13.75 6.5 Q13.1 7.15 12.35 7.35 L11.4 7.2 Q10.95 6.9 10.75 6.4 10.5 5.75 10.75 4.9 M7.5 5.9 Q7.0 5.85 6.6 5.5 6.05 5.0 5.8 4.15 L5.7 3.6 Q5.55 2.65 5.8 1.7 6.25 0.0 7.5 0.0 L7.6 0.0 Q8.85 0.0 9.3 1.7 9.55 2.65 9.4 3.6 L9.3 4.15 8.5 5.5 7.6 5.9 7.5 5.9 M4.35 4.9 Q4.6 5.75 4.35 6.4 L3.7 7.2 2.75 7.35 Q2.0 7.15 1.35 6.5 L1.0 6.15 Q0.4 5.4 0.15 4.45 -0.3 2.7 0.75 2.1 1.8 1.5 3.15 2.75 3.85 3.45 4.2 4.35 L4.35 4.9 M5.5 13.7 Q4.45 13.9 3.65 12.95 2.75 12.0 3.2 10.25 3.7 8.5 5.25 7.6 6.4 6.9 7.55 7.0 8.75 6.9 9.9 7.6 11.45 8.5 11.95 10.25 12.35 12.0 11.5 12.95 10.7 13.9 9.65 13.7 8.55 13.5 7.55 12.6 6.55 13.5 5.5 13.7"/></g><g id="c4"><g><use transform="matrix(1.0,0.0,0.0,1.0,0.0,0.0)" xlink:href="#c3"/></g></g><radialGradient gradientUnits="userSpaceOnUse" r="819.2" cx="0" cy="0" spreadMethod="pad" gradientTransform="matrix(0.0914459228516,0.0,0.0,0.0914459228516,0.6,3.4)" id="gradient1"><stop offset="0.0" stop-color="#ffffff"/><stop offset="1.0" stop-color="#ffffff" stop-opacity="0.0"/></radialGradient><g id="c5"><path stroke="none" fill="url(#gradient1)" d="M36.65 -54.65 Q60.05 -42.0 69.75 -17.95 80.55 8.9 68.0 34.1 55.45 59.35 26.8 68.2 -1.8 77.05 -29.7 64.3 -57.6 51.6 -68.45 24.75 -79.3 -2.05 -66.75 -27.25 L-66.7 -27.3 Q-54.1 -52.5 -25.5 -61.4 3.1 -70.2 31.0 -57.5 L36.65 -54.65"/></g><g id="c6"><g><use transform="matrix(1.0,0.0,0.0,1.0,0.0,0.0)" xlink:href="#c5"/></g></g><radialGradient gradientUnits="userSpaceOnUse" r="819.2" cx="0" cy="0" spreadMethod="pad" gradientTransform="matrix(0.209197998047,0.0,0.0,0.177108764648,67.15,107.2)" id="gradient2"><stop offset="0.356862745098" stop-color="#ffffff"/><stop offset="0.670588235294" stop-opacity="0.0"/></radialGradient><g id="c7"><path fill="none" stroke-linejoin="round" stroke-linecap="round" stroke="url(#gradient2)" stroke-width="0.5" d="M136.55 165.8 L68.6 106.0 68.4 106.0 118.25 201.5 M68.3 105.8 L68.35 105.8 68.3 105.8 68.3 105.85 68.4 106.0 68.3 106.0 86.55 211.5 M68.3 105.8 L68.3 105.85 68.3 106.0 68.15 105.95 18.25 151.55 M68.3 105.85 L68.25 105.85 68.3 106.0 50.0 193.2 M68.25 105.85 L68.15 105.95 0.05 97.7 M68.3 105.85 L68.25 105.8 68.25 105.85 M68.25 105.8 L68.2 105.7 0.0 45.7 M68.3 105.8 L68.25 105.75 68.25 105.8 M68.25 105.75 L68.2 105.7 18.25 10.05 M68.6 106.0 L68.35 105.8 118.25 60.15 M86.6 18.35 L68.3 105.8 M136.6 114.25 L68.6 106.0 M68.25 105.75 L49.95 0.05"/></g><g id="c8"><g><use transform="matrix(1.0,0.0,0.0,1.0,0.0,0.0)" xlink:href="#c7"/></g></g><g id="c9"><g><use transform="matrix(1.0,0.0,0.0,1.0,0.0,0.0)" xlink:href="#c2"/></g><g><use transform="matrix(0.238861083984,-0.0867004394531,0.10026550293,0.233917236328,34.25,31.15)" xlink:href="#c4"/></g><g><use transform="matrix(0.238861083984,-0.0867004394531,0.10026550293,0.233917236328,4.25,10.3)" xlink:href="#c4"/></g><g><use transform="matrix(0.141098022461,-0.0378112792969,0.111373901367,0.225646972656,20.25,20.65)" filter="url(#filter7)" xlink:href="#c6"/></g><g><use transform="matrix(-0.155029296875,0.0513153076172,0.0841827392578,0.147033691406,22.6,3.15)" filter="url(#filter8)" xlink:href="#c8"/></g></g><filter id="filter7"><feColorMatrix in="SourceGraphic" type="matrix" values="0.0 0.0 0.0 0.0 0.796875 0.0 0.0 0.0 0.0 0.59765625 0.0 0.0 0.0 0.0 0.19921875 0.0 0.0 0.0 1.0 0.0" result="cxform"/><feComposite operator="in" in2="SourceGraphic" result="color-xform"/></filter><filter id="filter8"><feColorMatrix in="SourceGraphic" type="matrix" values="0.0 0.0 0.0 0.0 0.99609375 0.0 0.0 0.0 0.0 0.99609375 0.0 0.0 0.0 0.0 0.99609375 0.0 0.0 0.0 1.0 0.0" result="cxform"/><feComposite operator="in" in2="SourceGraphic" result="color-xform"/></filter><g id="c10"><path fill="none" stroke="#382510" stroke-width="1.0" stroke-opacity="0.4" d="M85.05 27.35 Q86.6 17.25 85.6 8.7 85.35 4.25 83.95 0.05 L66.7 20.5 Q63.35 24.1 61.0 27.2 L64.05 26.9 Q68.95 26.5 73.15 26.9 79.05 27.5 83.95 29.6 L84.8 29.85 85.05 27.35 85.5 26.9 Q99.75 13.35 115.15 11.4 112.9 28.45 105.35 42.05 116.7 53.25 117.0 67.25 110.1 55.9 96.95 61.9 L99.05 64.0 Q105.5 74.1 104.1 84.3 100.75 91.05 94.15 93.85 88.0 96.1 79.9 94.8 78.05 94.1 76.4 94.1 62.4 88.95 52.7 72.7 L52.15 68.65 50.5 68.2 Q35.9 63.3 26.8 47.1 23.9 34.2 33.25 28.9 L33.55 28.6 Q39.4 29.45 46.85 33.9 L47.4 33.5 47.55 33.5 Q51.05 30.55 55.4 28.3 L55.5 28.2 55.65 28.2 61.0 27.2 M83.4 39.95 Q84.5 41.35 82.55 44.0 80.7 46.5 77.2 48.75 73.6 51.0 70.35 51.55 67.15 52.25 66.0 50.85 64.9 49.3 66.7 46.65 68.55 44.15 72.2 41.9 75.7 39.65 78.9 39.1 82.25 38.4 83.4 39.95 M84.8 29.85 Q88.0 31.4 90.65 33.65 93.05 36.85 94.3 41.2 L95.0 44.0 Q95.85 47.8 96.0 52.4 100.75 48.05 105.35 42.05 M70.8 31.7 Q71.6 32.8 69.95 35.2 68.1 37.3 64.9 39.4 61.7 41.35 58.75 42.2 55.65 42.75 54.8 41.6 54.0 40.35 55.8 38.25 57.6 35.9 60.85 33.9 64.05 31.8 67.0 31.25 69.95 30.4 70.8 31.7 M55.4 28.3 L55.65 28.2 M52.15 68.65 Q51.9 64.45 53.15 61.2 L48.1 56.75 Q44.45 48.9 45.3 37.0 46.0 35.3 47.0 34.05 L46.85 33.9 M53.15 61.2 Q59.6 66.4 66.15 69.5 L70.2 71.15 Q75.4 73.0 80.7 73.7 L83.95 73.8 Q85.9 73.25 87.7 71.6 90.8 68.8 93.6 63.75 L95.85 58.7 96.0 52.4 M47.4 33.5 L47.0 34.05"/><path fill="#365c4d" stroke="none" d="M105.2 41.9 Q116.55 53.2 116.8 67.1 105.65 48.5 78.05 76.0 70.8 73.95 67.3 66.95 L63.05 58.1 Q62.25 56.15 53.1 47.1 52.75 44.7 53.7 39.3 54.35 33.65 66.65 20.3 L83.75 -0.1 Q85.1 4.15 85.5 8.6 86.45 17.15 84.9 27.3 L85.3 26.9 Q99.7 13.3 114.95 11.3 112.85 28.35 105.2 41.9 95.25 54.9 84.25 60.0 95.25 54.9 105.2 41.9 M78.2 55.55 Q83.5 40.15 84.9 27.3 83.5 40.15 78.2 55.55"/><path fill="none" stroke="#000000" stroke-width="0.5" stroke-opacity="0.301960784314" d="M116.8 67.1 Q116.55 53.2 105.2 41.9 95.25 54.9 84.25 60.0 M105.2 41.9 Q112.85 28.35 114.95 11.3 99.7 13.3 85.3 26.9 L84.9 27.3 Q83.5 40.15 78.2 55.55 M84.9 27.3 Q86.45 17.15 85.5 8.6 85.1 4.15 83.75 -0.1 L66.65 20.3 Q54.35 33.65 53.7 39.3 52.75 44.7 53.1 47.1"/><path fill="#5f8a78" stroke="none" d="M83.75 8.5 Q84.2 28.5 82.55 41.7 L78.8 43.35 Q70.9 47.3 68.75 36.45 73.15 23.45 83.75 8.5"/><path fill="#5f8a78" stroke="none" d="M91.5 45.4 Q93.5 45.1 96.6 43.3 104.6 39.35 108.05 31.8 111.25 24.2 112.75 14.35 L91.5 45.4"/><path fill="#a0935f" stroke="none" d="M46.5 34.05 Q38.95 29.55 33.1 28.6 L32.75 28.9 Q43.0 35.9 40.2 43.25 34.25 50.5 26.45 47.15 35.5 63.3 50.05 68.3 L53.4 69.2 Q61.6 70.65 67.65 68.15 74.25 65.5 77.9 58.55 78.85 48.5 72.4 38.2 62.3 27.0 55.2 28.2 50.25 30.75 46.5 34.05 49.25 35.75 51.2 37.65 49.25 35.75 46.5 34.05"/><path fill="#e0dbaf" stroke="none" d="M26.45 47.15 Q34.25 50.5 40.2 43.25 43.0 35.9 32.75 28.9 23.55 34.15 26.45 47.15"/><path fill="none" stroke="#000000" stroke-width="0.5" stroke-opacity="0.301960784314" d="M32.75 28.9 L33.1 28.6 Q38.95 29.55 46.5 34.05 49.25 35.75 51.2 37.65 M46.5 34.05 Q50.25 30.75 55.2 28.2 62.3 27.0 72.4 38.2 78.85 48.5 77.9 58.55 74.25 65.5 67.65 68.15 61.6 70.65 53.4 69.2 L50.05 68.3 Q35.5 63.3 26.45 47.15 M32.75 28.9 Q23.55 34.15 26.45 47.15"/><path fill="#e6b386" stroke="none" d="M46.8 33.55 Q44.7 40.15 52.95 46.65 64.1 55.75 75.15 56.55 82.1 56.15 86.3 59.8 89.85 64.25 89.25 67.45 89.15 69.35 87.1 71.55 85.25 73.3 83.3 73.9 64.75 73.4 47.5 56.85 43.85 49.0 44.6 37.0 45.55 35.1 46.8 33.55"/><path fill="#a36c36" stroke="none" d="M87.1 71.55 Q89.15 69.35 89.25 67.45 89.85 64.25 86.3 59.8 82.1 56.15 75.15 56.55 64.1 55.75 52.95 46.65 44.7 40.15 46.8 33.55 51.45 27.45 63.55 26.95 80.3 25.6 89.95 33.7 96.15 42.1 95.1 58.85 91.35 67.7 87.1 71.55 M68.25 31.7 L68.6 31.6 68.2 31.55 68.25 31.7"/><path fill="none" stroke="#000000" stroke-width="0.5" stroke-opacity="0.301960784314" d="M46.8 33.55 Q45.55 35.1 44.6 37.0 43.85 49.0 47.5 56.85 64.75 73.4 83.3 73.9 85.25 73.3 87.1 71.55 91.35 67.7 95.1 58.85 96.15 42.1 89.95 33.7 80.3 25.6 63.55 26.95 51.45 27.45 46.8 33.55"/><path fill="#54311b" stroke="none" d="M54.5 41.7 Q53.7 40.55 55.45 38.25 57.25 35.9 60.45 33.9 63.7 31.9 66.65 31.25 69.65 30.55 70.45 31.7 71.3 32.85 69.5 35.15 67.75 37.45 64.5 39.45 61.3 41.45 58.3 42.15 55.35 42.85 54.5 41.7 M71.8 42.0 Q75.35 39.8 78.65 39.2 81.9 38.55 82.95 40.05 84.05 41.5 82.2 44.05 80.35 46.65 76.8 48.85 73.25 51.1 70.0 51.7 66.75 52.35 65.65 50.9 64.6 49.4 66.45 46.85 68.25 44.25 71.8 42.0"/><path fill="none" stroke="#000000" stroke-width="0.5" stroke-opacity="0.301960784314" d="M54.5 41.7 Q53.7 40.55 55.45 38.25 57.25 35.9 60.45 33.9 63.7 31.9 66.65 31.25 69.65 30.55 70.45 31.7 71.3 32.85 69.5 35.15 67.75 37.45 64.5 39.45 61.3 41.45 58.3 42.15 55.35 42.85 54.5 41.7 M71.8 42.0 Q75.35 39.8 78.65 39.2 81.9 38.55 82.95 40.05 84.05 41.5 82.2 44.05 80.35 46.65 76.8 48.85 73.25 51.1 70.0 51.7 66.75 52.35 65.65 50.9 64.6 49.4 66.45 46.85 68.25 44.25 71.8 42.0"/><path fill="#9a7016" stroke="none" d="M28.9 96.2 L30.4 95.65 36.6 102.4 29.65 103.75 24.25 108.0 22.9 109.1 21.15 108.0 19.65 106.7 28.9 96.2 M33.6 91.0 L33.8 90.45 41.15 82.1 42.05 82.55 46.1 86.8 42.65 88.4 37.25 94.25 34.6 91.95 34.45 91.9 33.6 91.0"/><path fill="#c4911a" stroke="none" d="M36.6 102.4 L38.45 104.4 35.8 108.0 24.25 108.0 29.65 103.75 36.6 102.4 M37.25 94.25 L42.65 88.4 46.1 86.8 47.7 89.4 44.35 93.4 37.4 94.35 37.25 94.25"/><path fill="#ffcc00" stroke="none" d="M35.8 108.0 L31.25 112.2 28.95 112.9 22.9 109.1 24.25 108.0 35.8 108.0 M44.35 93.4 L42.5 95.55 40.5 95.85 37.4 94.35 44.35 93.4"/><path fill="none" stroke="#382510" stroke-width="1.0" stroke-opacity="0.301960784314" d="M28.9 96.2 L30.4 95.65 36.6 102.4 38.45 104.4 35.8 108.0 31.25 112.2 28.95 112.9 22.9 109.1 21.15 108.0 19.65 106.7 M33.6 91.0 L34.45 91.9 M34.6 91.95 L37.25 94.25 M46.1 86.8 L42.05 82.55 41.15 82.1 M37.4 94.35 L40.5 95.85 42.5 95.55 44.35 93.4 47.7 89.4 46.1 86.8 M37.4 94.35 L37.25 94.25"/><path fill="#c4911a" stroke="none" d="M44.0 85.95 L33.8 96.15 33.35 96.7 16.85 113.2 12.25 108.55 44.5 76.25 44.6 59.95 46.25 58.3 50.9 62.95 51.25 71.2 Q50.7 78.9 44.0 85.95"/><path fill="#9a7016" stroke="none" d="M50.9 62.95 L58.55 70.6 58.2 71.75 51.5 78.45 44.0 85.95 Q50.7 78.9 51.25 71.2 L50.9 62.95"/><path fill="#ffcc00" stroke="none" d="M12.25 108.55 L5.95 102.25 7.7 96.85 44.6 59.95 44.5 76.25 12.25 108.55"/><path fill="none" stroke="#382510" stroke-width="1.0" stroke-opacity="0.301960784314" d="M44.0 85.95 L33.8 96.15 33.35 96.7 16.85 113.2 12.25 108.55 5.95 102.25 7.7 96.85 44.6 59.95 46.25 58.3 M58.55 70.6 L58.2 71.75 51.5 78.45 44.0 85.95"/><path fill="#fefd9a" fill-opacity="0.6" d="M26.2 80.45 L31.15 75.5 34.9 79.25 29.95 84.2 26.2 80.45 M19.4 94.75 L14.95 99.2 11.2 95.45 15.65 91.0 19.4 94.75"/><path fill="#fefd9a" stroke="none" d="M29.95 84.2 L19.4 94.75 15.65 91.0 26.2 80.45 29.95 84.2"/><path fill="#5c3a1b" stroke="none" d="M66.05 58.75 Q67.75 63.95 61.5 67.3 56.3 68.85 48.0 61.05 L47.5 60.4 Q46.05 58.45 44.9 56.5 46.45 50.65 53.7 47.55 60.5 52.5 66.05 58.75"/><path fill="#422513" stroke="none" d="M48.0 61.05 Q56.3 68.85 61.5 67.3 67.75 63.95 66.05 58.75 L70.25 63.95 Q67.1 69.8 61.25 72.9 53.2 67.95 48.0 61.05"/><path fill="none" stroke="#382510" stroke-width="1.0" stroke-opacity="0.4" d="M66.05 58.75 Q60.5 52.5 53.7 47.55 46.45 50.65 44.9 56.5 46.05 58.45 47.5 60.4 M48.0 61.05 Q53.2 67.95 61.25 72.9 67.1 69.8 70.25 63.95 L66.05 58.75"/><path fill="#9a7016" stroke="none" d="M53.0 50.8 Q54.9 50.5 56.05 51.65 57.15 52.75 56.85 54.65 56.5 56.7 54.95 58.25 53.35 59.85 51.4 60.1 49.4 60.5 48.3 59.4 47.15 58.25 47.55 56.25 47.85 54.35 49.45 52.75 51.0 51.2 53.0 50.8"/><path fill="#fcf3d8" fill-opacity="0.301960784314" d="M22.8 88.8 Q22.8 89.8 22.1 90.5 21.4 91.25 20.4 91.25 19.4 91.2 18.7 90.5 17.95 89.8 17.95 88.8 18.0 87.8 18.65 87.05 19.4 86.35 20.35 86.35 21.4 86.35 22.1 87.05 22.8 87.75 22.8 88.8 M24.1 92.0 Q25.55 90.55 25.55 88.55 25.6 86.5 24.1 85.1 23.25 84.2 22.1 83.8 20.45 82.3 20.25 79.25 20.35 82.8 19.05 83.9 18.0 84.25 17.2 85.1 15.75 86.55 15.7 88.55 15.7 90.45 17.0 91.9 L17.15 92.05 16.6 93.9 18.25 92.85 Q19.3 93.45 20.6 93.45 21.95 93.4 23.05 92.85 L26.25 95.1 24.1 92.0"/><path fill="#fcf3d8" stroke="none" d="M22.8 88.8 Q22.8 87.75 22.1 87.05 21.4 86.35 20.35 86.35 19.4 86.35 18.65 87.05 18.0 87.8 17.95 88.8 17.95 89.8 18.7 90.5 19.4 91.2 20.4 91.25 21.4 91.25 22.1 90.5 22.8 89.8 22.8 88.8"/><path fill="#fcf3d8" stroke="none" d="M20.2 86.95 L26.2 82.55 21.15 87.8 22.85 92.95 19.6 89.5 10.3 96.5 18.6 88.05 9.95 71.7 20.2 86.95"/><path fill="#e0dbaf" stroke="none" d="M77.2 63.35 Q75.8 61.4 73.0 60.0 75.8 61.4 77.2 63.35 M52.4 72.7 Q49.75 59.3 59.25 54.4 65.15 55.35 73.0 60.0 76.05 56.5 81.25 53.95 88.4 53.0 98.75 64.05 103.5 77.5 84.6 77.9 74.65 74.4 66.55 68.65 60.4 75.95 52.4 72.7"/><path fill="#a0935f" stroke="none" d="M98.75 64.05 Q105.2 74.1 103.8 84.35 100.4 91.05 93.85 93.85 87.7 96.1 79.55 94.85 77.75 94.15 76.05 94.15 62.05 88.95 52.4 72.7 60.4 75.95 66.55 68.65 74.65 74.4 84.6 77.9 103.5 77.5 98.75 64.05"/><path fill="none" stroke="#000000" stroke-width="0.5" stroke-opacity="0.301960784314" d="M73.0 60.0 Q75.8 61.4 77.2 63.35 M52.4 72.7 Q49.75 59.3 59.25 54.4 65.15 55.35 73.0 60.0 76.05 56.5 81.25 53.95 88.4 53.0 98.75 64.05 105.2 74.1 103.8 84.35 100.4 91.05 93.85 93.85 87.7 96.1 79.55 94.85 77.75 94.15 76.05 94.15 62.05 88.95 52.4 72.7"/></g><g id="c11"><g><use transform="matrix(1.0,0.0,0.0,1.0,0.0,0.0)" xlink:href="#c10"/></g></g><g id="c12"><g><use transform="matrix(1.0,0.0,0.0,1.0,6.3,53.35)" xlink:href="#c9"/></g><g><use transform="matrix(-0.146041870117,0.0488891601562,0.0616760253906,0.140441894531,33.05,63.95)" xlink:href="#c11"/></g><g><use transform="matrix(0.141098022461,-0.0378112792969,0.111373901367,0.225646972656,27.2,74.05)" filter="url(#filter12)" xlink:href="#c6"/></g></g><filter id="filter12"><feColorMatrix in="SourceGraphic" type="matrix" values="1.0 0.0 0.0 0.0 0.0 0.0 1.0 0.0 0.0 0.0 0.0 0.0 1.0 0.0 0.0 0.0 0.0 0.0 0.23046875 0.0" result="cxform"/><feComposite operator="in" in2="SourceGraphic" result="color-xform"/></filter></defs><g><g><use transform="matrix(1.0,0.0,0.0,1.0,0.0,0.0)" xlink:href="#c1"/></g><g><use transform="matrix(1.15496826172,0.0,0.0,1.15496826172,-1.5,-57.15)" xlink:href="#c12"/></g></g></svg>