<?xml version='1.0' encoding='UTF-8'?>
<svg xmlns:xlink="http://www.w3.org/1999/xlink" xmlns="http://www.w3.org/2000/svg" version="1.1" width="60px" height="60px" viewBox="0.0 0.0 60.0 60.0"><defs><g id="c1"><path fill="#000000" fill-opacity="0.00392156862745" d="M0.0 0.0 L60.0 0.0 60.0 60.0 0.0 60.0 0.0 0.0"/></g><g id="c2"><path fill="#006699" stroke="none" d="M31.5 39.85 L19.8 43.65 Q17.15 44.45 15.5 43.3 14.35 42.55 13.65 40.9 L1.7 14.45 1.6 14.3 1.2 13.45 -0.75 9.05 Q-2.05 6.2 -0.3 4.75 0.3 4.25 1.2 3.9 L5.5 2.25 Q8.95 0.95 10.65 4.15 L22.3 0.4 Q26.55 -1.0 28.45 3.1 L40.55 29.95 40.9 30.7 42.95 35.15 Q43.95 37.35 43.15 38.7 42.5 39.7 40.95 40.25 L36.65 41.8 35.1 42.2 Q32.75 42.3 31.5 39.85"/><path fill="none" stroke="#000000" stroke-width="1.0" stroke-opacity="0.298039215686" d="M31.5 39.85 L19.8 43.65 Q17.15 44.45 15.5 43.3 14.35 42.55 13.65 40.9 L1.7 14.45 1.6 14.3 1.2 13.45 -0.75 9.05 Q-2.05 6.2 -0.3 4.75 0.3 4.25 1.2 3.9 L5.5 2.25 Q8.95 0.95 10.65 4.15 L22.3 0.4 Q26.55 -1.0 28.45 3.1 L40.55 29.95 40.9 30.7 42.95 35.15 Q43.95 37.35 43.15 38.7 42.5 39.7 40.95 40.25 L36.65 41.8 35.1 42.2 Q32.75 42.3 31.5 39.85"/><path fill="#300525" stroke="none" d="M0.75 8.25 L29.8 9.75 25.55 0.9 Q26.9 1.6 27.8 3.55 L40.7 32.15 Q42.6 36.3 38.3 37.65 L23.3 42.5 13.15 21.4 4.6 20.9 0.7 12.25 Q-0.45 9.75 0.75 8.25 M20.1 43.55 L19.8 43.65 Q17.15 44.45 15.5 43.3 L20.1 43.55"/><path fill="#630a4c" stroke="none" d="M25.55 0.9 L29.8 9.75 0.75 8.25 Q1.45 7.3 3.1 6.75 L21.65 0.8 25.55 0.9 M4.6 20.9 L13.15 21.4 23.3 42.5 20.1 43.55 15.5 43.3 Q14.35 42.55 13.65 40.9 L4.6 20.9"/><path fill="none" stroke="#000000" stroke-width="0.5" stroke-opacity="0.301960784314" d="M0.75 8.25 Q-0.45 9.75 0.7 12.25 L4.6 20.9 M23.3 42.5 L38.3 37.65 Q42.6 36.3 40.7 32.15 L27.8 3.55 Q26.9 1.6 25.55 0.9 L21.65 0.8 3.1 6.75 Q1.45 7.3 0.75 8.25 M20.1 43.55 L19.8 43.65 Q17.15 44.45 15.5 43.3 14.35 42.55 13.65 40.9 L4.6 20.9 M20.1 43.55 L23.3 42.5"/><path fill="#9d147b" stroke="none" d="M14.2 40.5 L1.35 11.8 Q-0.5 7.75 3.8 6.35 L22.3 0.4 Q26.55 -1.0 28.45 3.1 L41.35 31.7 Q43.25 35.85 38.9 37.25 L20.4 43.2 Q16.1 44.55 14.2 40.5"/><path fill="none" stroke="#000000" stroke-width="0.5" stroke-opacity="0.301960784314" d="M14.2 40.5 L1.35 11.8 Q-0.5 7.75 3.8 6.35 L22.3 0.4 Q26.55 -1.0 28.45 3.1 L41.35 31.7 Q43.25 35.85 38.9 37.25 L20.4 43.2 Q16.1 44.55 14.2 40.5"/><path fill="#9d147b" stroke="none" d="M31.4 39.65 L31.3 39.45 31.25 39.4 29.25 34.95 Q27.55 31.2 31.25 29.85 L35.6 28.25 Q38.8 27.1 40.5 29.85 L40.9 30.7 42.95 35.15 Q43.95 37.35 43.15 38.7 42.5 39.45 41.2 39.9 L36.9 41.45 34.85 41.85 Q32.9 41.7 31.75 39.5 L31.4 39.65"/><path fill="#630a4c" stroke="none" d="M43.15 38.7 Q42.5 39.7 40.95 40.25 L36.65 41.8 35.1 42.2 Q32.75 42.3 31.45 39.8 L31.4 39.65 31.75 39.5 Q32.9 41.7 34.85 41.85 L36.9 41.45 41.2 39.9 Q42.5 39.45 43.15 38.7"/><path fill="none" stroke="#003333" stroke-width="0.5" stroke-opacity="0.509803921569" d="M43.15 38.7 Q42.5 39.7 40.95 40.25 L36.65 41.8 35.1 42.2 Q32.75 42.3 31.45 39.8 L31.4 39.65 30.3 40.0 31.4 39.65 M40.5 29.85 L40.9 30.7 42.95 35.15 Q43.95 37.35 43.15 38.7 42.5 39.45 41.2 39.9 L36.9 41.45 34.85 41.85 Q32.9 41.7 31.75 39.5 L31.4 39.65"/><path fill="#9d147b" stroke="none" d="M10.65 4.2 L10.85 4.6 12.85 9.05 Q14.5 12.8 10.8 14.15 L6.5 15.8 Q4.5 16.6 3.1 15.8 L1.75 12.85 -0.2 8.45 Q-1.25 6.15 -0.3 4.75 0.3 4.25 1.2 3.9 L5.5 2.25 Q9.0 0.95 10.65 4.2"/><path fill="#300525" stroke="none" d="M-0.3 4.75 Q-1.25 6.15 -0.2 8.45 L1.75 12.85 3.1 15.8 Q2.25 15.35 1.6 14.3 L1.2 13.45 -0.75 9.05 Q-2.05 6.2 -0.3 4.75"/><path fill="none" stroke="#003333" stroke-width="0.5" stroke-opacity="0.509803921569" d="M3.1 15.8 L6.45 23.15 M-0.3 4.75 Q0.3 4.25 1.2 3.9 L5.5 2.25 Q9.0 0.95 10.65 4.2 M3.1 15.8 L1.75 12.85 -0.2 8.45 Q-1.25 6.15 -0.3 4.75 -2.05 6.2 -0.75 9.05 L1.2 13.45 1.6 14.3"/><path fill="#fcf2cf" stroke="none" d="M9.15 13.6 Q9.8 12.8 9.55 11.6 L9.1 10.55 22.05 6.35 Q24.9 5.45 26.25 7.85 L26.5 8.3 35.8 29.0 35.95 29.35 Q34.75 29.3 34.1 30.1 33.45 30.9 33.7 32.1 L34.0 32.9 20.65 37.2 Q18.8 37.8 17.65 37.0 16.8 36.4 16.3 35.2 L6.95 14.6 6.8 14.4 7.1 14.4 Q8.4 14.45 9.15 13.6"/><path fill="#c47fad" stroke="none" d="M9.15 13.6 Q8.4 14.45 7.1 14.4 L6.8 14.4 6.95 14.6 16.3 35.2 Q16.8 36.4 17.65 37.0 18.8 37.8 20.65 37.2 L34.0 32.9 33.7 32.1 Q33.45 30.9 34.1 30.1 34.75 29.3 35.95 29.35 L35.8 29.0 26.5 8.3 26.25 7.85 Q24.9 5.45 22.05 6.35 L9.1 10.55 9.55 11.6 Q9.8 12.8 9.15 13.6 M28.25 6.1 L35.55 22.3 39.35 30.75 Q41.1 34.5 37.2 35.7 L20.45 41.1 Q16.8 42.25 15.2 39.0 L15.0 38.6 8.25 23.65 3.35 12.8 Q1.65 9.1 5.5 7.85 L22.25 2.5 Q26.05 1.25 27.75 4.95 L28.25 6.1"/><path fill="none" stroke="#ffcc00" stroke-width="1.0" stroke-opacity="0.749019607843" d="M35.55 22.3 L39.35 30.75 Q41.1 34.5 37.2 35.7 L20.45 41.1 Q16.8 42.25 15.2 39.0 L15.0 38.6 M8.25 23.65 L3.35 12.8 Q1.65 9.1 5.5 7.85 L22.25 2.5 Q26.05 1.25 27.75 4.95 L28.25 6.1"/><path fill="none" stroke="#bf9900" stroke-width="1.0" stroke-opacity="0.749019607843" d="M28.25 6.1 L35.55 22.3 M15.0 38.6 L8.25 23.65"/><path fill="none" stroke="#f0b92b" stroke-width="0.5" d="M9.15 13.6 Q9.8 12.8 9.55 11.6 L9.1 10.55 22.05 6.35 Q24.9 5.45 26.25 7.85 L26.5 8.3 35.8 29.0 35.95 29.35 Q34.75 29.3 34.1 30.1 33.45 30.9 33.7 32.1 L34.0 32.9 20.65 37.2 Q18.8 37.8 17.65 37.0 16.8 36.4 16.3 35.2 L6.95 14.6 6.8 14.4 7.1 14.4 Q8.4 14.45 9.15 13.6"/></g><g id="c3"><path fill="#7fdbfe" stroke="none" d="M10.75 4.9 Q10.75 4.6 10.9 4.35 11.25 3.45 11.95 2.75 13.3 1.5 14.35 2.1 15.4 2.7 14.95 4.45 14.7 5.4 14.1 6.15 L13.75 6.5 Q13.1 7.15 12.35 7.35 L11.4 7.2 Q10.95 6.9 10.75 6.4 10.5 5.75 10.75 4.9 M7.5 5.9 Q7.0 5.85 6.6 5.5 6.05 5.0 5.8 4.15 L5.7 3.6 Q5.55 2.65 5.8 1.7 6.25 0.0 7.5 0.0 L7.6 0.0 Q8.85 0.0 9.3 1.7 9.55 2.65 9.4 3.6 L9.3 4.15 8.5 5.5 7.6 5.9 7.5 5.9 M4.35 4.9 Q4.6 5.75 4.35 6.4 L3.7 7.2 2.75 7.35 Q2.0 7.15 1.35 6.5 L1.0 6.15 Q0.4 5.4 0.15 4.45 -0.3 2.7 0.75 2.1 1.8 1.5 3.15 2.75 3.85 3.45 4.2 4.35 L4.35 4.9 M5.5 13.7 Q4.45 13.9 3.65 12.95 2.75 12.0 3.2 10.25 3.7 8.5 5.25 7.6 6.4 6.9 7.55 7.0 8.75 6.9 9.9 7.6 11.45 8.5 11.95 10.25 12.35 12.0 11.5 12.95 10.7 13.9 9.65 13.7 8.55 13.5 7.55 12.6 6.55 13.5 5.5 13.7"/></g><g id="c4"><g><use transform="matrix(1.0,0.0,0.0,1.0,0.0,0.0)" xlink:href="#c3"/></g></g><radialGradient gradientUnits="userSpaceOnUse" r="819.2" cx="0" cy="0" spreadMethod="pad" gradientTransform="matrix(0.0914459228516,0.0,0.0,0.0914459228516,0.6,3.4)" id="gradient1"><stop offset="0.0" stop-color="#ffffff"/><stop offset="1.0" stop-color="#ffffff" stop-opacity="0.0"/></radialGradient><g id="c5"><path stroke="none" fill="url(#gradient1)" d="M36.65 -54.65 Q60.05 -42.0 69.75 -17.95 80.55 8.9 68.0 34.1 55.45 59.35 26.8 68.2 -1.8 77.05 -29.7 64.3 -57.6 51.6 -68.45 24.75 -79.3 -2.05 -66.75 -27.25 L-66.7 -27.3 Q-54.1 -52.5 -25.5 -61.4 3.1 -70.2 31.0 -57.5 L36.65 -54.65"/></g><g id="c6"><g><use transform="matrix(1.0,0.0,0.0,1.0,0.0,0.0)" xlink:href="#c5"/></g></g><radialGradient gradientUnits="userSpaceOnUse" r="819.2" cx="0" cy="0" spreadMethod="pad" gradientTransform="matrix(0.209197998047,0.0,0.0,0.177108764648,67.15,107.2)" id="gradient2"><stop offset="0.356862745098" stop-color="#ffffff"/><stop offset="0.670588235294" stop-opacity="0.0"/></radialGradient><g id="c7"><path fill="none" stroke-linejoin="round" stroke-linecap="round" stroke="url(#gradient2)" stroke-width="0.5" d="M136.55 165.8 L68.6 106.0 68.4 106.0 118.25 201.5 M68.3 105.8 L68.35 105.8 68.3 105.8 68.3 105.85 68.4 106.0 68.3 106.0 86.55 211.5 M68.3 105.8 L68.3 105.85 68.3 106.0 68.15 105.95 18.25 151.55 M68.3 105.85 L68.25 105.85 68.3 106.0 50.0 193.2 M68.25 105.85 L68.15 105.95 0.05 97.7 M68.3 105.85 L68.25 105.8 68.25 105.85 M68.25 105.8 L68.2 105.7 0.0 45.7 M68.3 105.8 L68.25 105.75 68.25 105.8 M68.25 105.75 L68.2 105.7 18.25 10.05 M68.6 106.0 L68.35 105.8 118.25 60.15 M86.6 18.35 L68.3 105.8 M136.6 114.25 L68.6 106.0 M68.25 105.75 L49.95 0.05"/></g><g id="c8"><g><use transform="matrix(1.0,0.0,0.0,1.0,0.0,0.0)" xlink:href="#c7"/></g></g><g id="c9"><g><use transform="matrix(1.0,0.0,0.0,1.0,0.0,0.0)" xlink:href="#c2"/></g><g><use transform="matrix(0.238861083984,-0.0867004394531,0.10026550293,0.233917236328,34.25,31.15)" xlink:href="#c4"/></g><g><use transform="matrix(0.238861083984,-0.0867004394531,0.10026550293,0.233917236328,4.25,10.3)" xlink:href="#c4"/></g><g><use transform="matrix(0.141098022461,-0.0378112792969,0.111373901367,0.225646972656,20.25,20.65)" filter="url(#filter7)" xlink:href="#c6"/></g><g><use transform="matrix(-0.155029296875,0.0513153076172,0.0841827392578,0.147033691406,22.6,3.15)" filter="url(#filter8)" xlink:href="#c8"/></g></g><filter id="filter7"><feColorMatrix in="SourceGraphic" type="matrix" values="0.0 0.0 0.0 0.0 0.796875 0.0 0.0 0.0 0.0 0.59765625 0.0 0.0 0.0 0.0 0.19921875 0.0 0.0 0.0 1.0 0.0" result="cxform"/><feComposite operator="in" in2="SourceGraphic" result="color-xform"/></filter><filter id="filter8"><feColorMatrix in="SourceGraphic" type="matrix" values="0.0 0.0 0.0 0.0 0.99609375 0.0 0.0 0.0 0.0 0.99609375 0.0 0.0 0.0 0.0 0.99609375 0.0 0.0 0.0 1.0 0.0" result="cxform"/><feComposite operator="in" in2="SourceGraphic" result="color-xform"/></filter><g id="c10"><path fill="#ffffff" stroke="none" d="M-3.9 -12.25 L-3.95 -12.3 -4.0 -12.3 -3.9 -12.25 -2.5 -10.75 4.1 -8.5 3.95 -7.5 5.95 -6.9 6.05 -7.85 12.8 -5.55 14.8 -5.6 -3.9 -12.25 M4.1 -8.5 L6.05 -7.85 4.1 -8.5 M14.1 3.9 L15.15 3.6 15.2 3.6 15.3 2.9 12.45 3.4 Q11.05 3.75 10.15 4.4 L9.55 4.85 Q8.95 5.35 8.6 6.0 L8.5 6.2 8.1 8.7 7.95 11.2 8.0 11.85 8.5 11.75 8.6 11.75 8.6 10.7 8.65 9.25 9.0 7.2 9.1 6.8 Q9.75 5.35 12.35 4.35 L14.1 3.9"/><path fill="#e3e3e3" stroke="none" d="M-2.5 -10.75 L-1.8 -10.15 Q0.85 -7.95 4.05 -6.9 7.25 -5.85 11.4 -5.55 L12.8 -5.55 6.05 -7.85 5.95 -6.9 3.95 -7.5 4.1 -8.5 -2.5 -10.75"/><path fill="#b3b3b3" stroke="none" d="M-2.75 7.6 L-2.65 7.05 -2.6 6.4 Q-2.4 4.15 -2.9 2.45 -3.35 0.85 -4.85 -0.6 L-6.35 -2.0 -2.95 8.85 -2.8 7.95 -2.75 7.6 M8.65 11.95 L14.1 3.9 12.35 4.35 Q9.75 5.35 9.1 6.8 L9.0 7.2 8.65 9.25 8.6 10.7 8.6 11.75 8.65 11.95"/><path fill="#d1d1d1" stroke="none" d="M-2.95 8.85 L-6.35 -2.0 -6.8 -2.3 -7.3 -2.55 -3.45 9.95 -2.95 8.85 M15.15 3.6 L14.1 3.9 8.65 11.95 8.65 12.15 8.85 13.05 8.65 12.15 8.65 11.95 8.6 11.75 8.5 11.75 8.0 11.85 8.25 13.55 8.95 13.1 8.85 13.05 15.15 3.6"/><path fill="none" stroke="#000000" stroke-width="0.5" stroke-opacity="0.2" d="M-3.9 -12.25 L-4.0 -12.3 -3.95 -12.3 -3.9 -12.25 -2.5 -10.75 -1.8 -10.15 Q0.85 -7.95 4.05 -6.9 7.25 -5.85 11.4 -5.55 L12.8 -5.55 14.8 -5.6 -3.9 -12.25 M-6.35 -2.0 L-4.85 -0.6 Q-3.35 0.85 -2.9 2.45 -2.4 4.15 -2.6 6.4 L-2.65 7.05 -2.75 7.6 M-2.8 7.95 L-2.95 8.85 -6.35 -2.0 -6.8 -2.3 -7.3 -2.55 -3.45 9.95 -2.95 8.85 M-2.5 -10.75 L4.1 -8.5 3.95 -7.5 5.95 -6.9 6.05 -7.85 12.8 -5.55 M6.05 -7.85 L4.1 -8.5 M14.1 3.9 L15.15 3.6 8.85 13.05 8.65 12.15 8.65 11.95 14.1 3.9 M15.2 3.6 L15.15 3.6 M8.65 11.95 L8.6 11.75 M8.95 13.1 L8.85 13.05"/><path fill="#ffed3b" stroke="none" d="M15.35 -2.9 Q14.95 -5.95 13.55 -8.85 12.55 -10.85 11.25 -12.4 L10.9 -13.1 Q10.45 -13.05 10.25 -13.3 L10.0 -13.5 9.95 -13.5 9.4 -12.75 10.05 -11.6 10.45 -11.5 Q11.05 -12.3 10.95 -11.4 L10.85 -11.1 Q13.05 -8.7 14.0 -5.4 L14.45 -2.65 15.35 -2.9 M9.25 -14.05 L9.0 -14.25 8.55 -13.45 8.85 -13.25 9.25 -14.05 M6.85 -15.4 L6.25 -15.65 1.2 -15.85 1.05 -15.85 1.4 -15.1 1.4 -15.0 Q1.05 -15.25 0.95 -15.85 L1.0 -15.9 0.7 -15.85 0.4 -15.45 Q-1.05 -14.95 -2.3 -13.95 -4.0 -12.55 -5.15 -10.6 -6.55 -8.1 -7.05 -4.75 L-7.45 -2.35 -6.0 -2.0 -5.85 -4.35 Q-5.4 -7.2 -4.25 -9.35 L-4.45 -9.55 Q-2.2 -12.85 -0.6 -13.9 L0.6 -14.35 0.4 -14.7 0.35 -15.05 0.4 -15.15 0.8 -14.45 1.1 -14.45 1.45 -14.5 1.75 -14.8 3.05 -15.05 5.9 -14.75 6.4 -14.6 6.85 -15.4 M0.7 -15.85 L1.1 -14.45 0.7 -15.85 M-5.15 -10.6 L-4.45 -9.55 -5.15 -10.6 M-6.0 -0.8 Q-6.55 -1.0 -7.0 -0.4 L-6.6 1.9 Q-6.2 4.35 -4.4 7.25 L-3.0 9.3 -3.3 9.7 Q-1.05 12.45 2.1 13.45 L5.35 13.95 5.25 13.65 Q8.5 13.0 10.7 11.15 L12.3 9.4 11.7 8.45 9.9 10.4 Q7.55 12.35 4.85 12.3 L2.3 11.9 Q-0.5 11.0 -2.5 8.55 L-4.25 5.8 Q-5.8 2.7 -6.0 -0.8 M-6.15 1.0 L-6.0 0.65 Q-5.85 2.35 -5.3 3.35 L-5.9 2.25 -6.15 1.0 M10.35 -12.55 L10.35 -12.7 Q10.4 -13.0 10.75 -12.95 10.65 -12.5 10.35 -12.55 M10.7 -12.25 L10.65 -12.35 10.95 -12.7 11.0 -12.7 10.7 -12.25 M10.9 -13.1 L10.05 -11.6 10.9 -13.1 M12.95 9.05 L13.15 8.65 13.1 8.2 13.35 7.8 13.65 7.65 14.45 5.05 Q14.65 4.45 14.4 4.3 L13.95 4.25 13.65 4.3 13.4 5.2 13.35 5.25 12.45 7.25 11.85 7.75 Q11.7 7.95 11.8 8.25 L12.75 9.15 12.95 9.15 12.95 9.05 11.85 7.75 12.95 9.05 M11.65 9.0 L11.25 9.75 Q10.85 10.25 10.65 10.2 L10.6 10.1 11.1 9.5 11.6 8.95 11.65 9.0 M12.2 7.85 L12.3 7.75 12.65 8.0 12.8 8.4 12.7 8.45 12.2 7.85 M4.85 12.3 L5.25 13.65 4.85 12.3 M-3.0 9.3 L-2.5 8.55 -3.0 9.3"/><path fill="#ffffff" stroke="none" d="M8.3 -14.65 L7.8 -14.95 7.35 -14.2 7.9 -13.85 8.3 -14.65 M1.05 -15.85 L1.05 -15.9 1.0 -15.9 0.95 -15.85 Q1.05 -15.25 1.4 -15.0 L1.4 -15.1 1.05 -15.85 M-4.2 10.75 L-4.8 11.15 -5.15 12.85 -4.0 13.3 -3.85 11.5 -4.15 10.75 -4.2 10.75 M-6.15 1.0 L-5.9 2.25 -5.3 3.35 Q-5.85 2.35 -6.0 0.65 L-6.15 1.0 M10.7 -12.25 L11.0 -12.7 10.95 -12.7 10.65 -12.35 10.7 -12.25 M10.35 -12.55 Q10.65 -12.5 10.75 -12.95 10.4 -13.0 10.35 -12.7 L10.35 -12.55 M12.2 7.85 L12.7 8.45 12.8 8.4 12.65 8.0 12.3 7.75 12.2 7.85 M11.65 9.0 L11.6 8.95 11.1 9.5 10.6 10.1 10.65 10.2 Q10.85 10.25 11.25 9.75 L11.65 9.0"/><path fill="#fff596" stroke="none" d="M9.95 -13.5 L9.25 -14.05 8.85 -13.25 9.4 -12.75 9.95 -13.5 M9.0 -14.25 L8.3 -14.65 7.9 -13.85 8.35 -13.6 8.55 -13.45 9.0 -14.25 M7.8 -14.95 L6.95 -15.35 6.85 -15.4 6.4 -14.6 7.35 -14.2 7.8 -14.95"/><path fill="#d69e2e" stroke="none" d="M-7.45 -2.35 L-7.3 -1.75 -7.3 -1.5 -7.3 -1.4 -7.2 -0.2 Q-6.9 3.35 -5.25 6.65 L-3.95 8.9 -3.3 9.7 -3.0 9.3 -4.4 7.25 Q-6.2 4.35 -6.6 1.9 L-7.0 -0.4 Q-6.55 -1.0 -6.0 -0.8 L-6.0 -1.65 -6.0 -2.0 -7.45 -2.35 M7.9 -13.85 L7.35 -14.2 6.4 -14.6 5.9 -14.75 3.05 -15.05 1.75 -14.8 1.45 -14.5 1.1 -14.45 0.8 -14.45 0.4 -15.15 0.35 -15.05 0.4 -14.7 0.6 -14.35 -0.6 -13.9 Q-2.2 -12.85 -4.45 -9.55 L-4.25 -9.35 Q-3.2 -11.25 -1.6 -12.55 L0.75 -13.95 1.35 -13.9 1.85 -14.3 6.05 -14.05 6.15 -14.0 7.15 -13.65 7.65 -13.35 8.35 -13.0 8.65 -12.75 9.2 -12.4 9.55 -12.1 9.85 -11.25 10.05 -11.6 9.4 -12.75 8.85 -13.25 8.55 -13.45 8.35 -13.6 7.9 -13.85 M1.35 -13.9 L1.1 -14.45 1.35 -13.9 M14.45 -2.65 L14.0 -5.4 Q13.05 -8.7 10.85 -11.1 L10.95 -11.4 Q11.05 -12.3 10.45 -11.5 L10.05 -11.6 9.85 -11.25 10.65 -10.8 12.55 -7.95 Q13.8 -5.4 14.2 -2.65 L14.45 -2.65 14.2 -2.2 Q14.45 -0.05 14.1 2.15 L13.65 4.3 13.95 4.25 14.4 4.3 Q14.65 4.45 14.45 5.05 L13.65 7.65 13.35 7.8 13.1 8.2 13.15 8.65 12.95 9.05 12.95 9.15 12.75 9.15 11.8 8.25 11.8 8.35 11.7 8.45 12.3 9.4 10.7 11.15 Q8.5 13.0 5.25 13.65 L5.35 13.95 Q8.1 13.85 10.6 11.75 L12.65 9.6 13.15 9.2 13.35 8.55 13.95 7.35 14.15 7.0 14.9 4.85 15.3 2.55 Q15.7 -0.25 15.35 -2.9 L14.45 -2.65 M12.95 9.05 L13.15 9.2 12.95 9.05"/><path fill="#d6c631" stroke="none" d="M14.2 -2.2 L14.45 -2.65 14.2 -2.65 14.2 -2.2"/><path fill="none" stroke="#000000" stroke-width="0.5" stroke-opacity="0.2" d="M15.35 -2.9 Q14.95 -5.95 13.55 -8.85 12.55 -10.85 11.25 -12.4 L10.9 -13.1 Q10.45 -13.05 10.25 -13.3 L10.0 -13.5 M9.95 -13.5 L9.25 -14.05 9.0 -14.25 8.3 -14.65 7.8 -14.95 6.95 -15.35 M6.85 -15.4 L6.25 -15.65 1.2 -15.85 1.05 -15.85 M1.0 -15.9 L0.7 -15.85 0.4 -15.45 Q-1.05 -14.95 -2.3 -13.95 -4.0 -12.55 -5.15 -10.6 -6.55 -8.1 -7.05 -4.75 L-7.45 -2.35 -7.3 -1.75 -7.3 -1.5 M-7.3 -1.4 L-7.2 -0.2 Q-6.9 3.35 -5.25 6.65 L-3.95 8.9 -4.1 10.7 -4.2 10.75 -4.8 11.15 -5.15 12.85 -4.0 13.3 -3.85 11.5 -4.15 10.75 -4.1 10.7 M1.1 -14.45 L0.7 -15.85 M-4.25 -9.35 L-4.45 -9.55 -5.15 -10.6 M1.1 -14.45 L1.35 -13.9 0.75 -13.95 -1.6 -12.55 Q-3.2 -11.25 -4.25 -9.35 -5.4 -7.2 -5.85 -4.35 L-6.0 -2.0 -7.45 -2.35 M9.85 -11.25 L9.55 -12.1 9.2 -12.4 8.65 -12.75 8.35 -13.0 7.65 -13.35 7.15 -13.65 6.15 -14.0 6.05 -14.05 1.85 -14.3 1.35 -13.9 M-6.0 -2.0 L-6.0 -1.65 -6.0 -0.8 M-3.0 9.3 L-3.3 9.7 -3.95 8.9 M10.05 -11.6 L10.9 -13.1 M9.85 -11.25 L10.05 -11.6 M14.2 -2.65 Q13.8 -5.4 12.55 -7.95 L10.65 -10.8 9.85 -11.25 M14.45 -2.65 L15.35 -2.9 Q15.7 -0.25 15.3 2.55 L14.9 4.85 14.15 7.0 M13.95 7.35 L13.35 8.55 13.15 9.2 12.95 9.05 M13.65 4.3 L14.1 2.15 Q14.45 -0.05 14.2 -2.2 M14.45 -2.65 L14.2 -2.65 14.2 -2.2 M11.85 7.75 L12.45 7.25 13.35 5.25 13.4 5.2 13.65 4.3 M11.8 8.25 Q11.7 7.95 11.85 7.75 L12.95 9.05 M11.8 8.25 L11.8 8.35 11.7 8.45 9.9 10.4 Q7.55 12.35 4.85 12.3 L2.3 11.9 Q-0.5 11.0 -2.5 8.55 L-4.25 5.8 Q-5.8 2.7 -6.0 -0.8 M5.25 13.65 L4.85 12.3 M5.35 13.95 Q8.1 13.85 10.6 11.75 L12.65 9.6 13.15 9.2 M-3.3 9.7 Q-1.05 12.45 2.1 13.45 L5.35 13.95 5.25 13.65 M-2.5 8.55 L-3.0 9.3"/><path fill="#ffffff" stroke="none" d="M15.15 -4.65 L14.85 -5.6 11.4 -5.55 Q7.25 -5.85 4.05 -6.9 0.85 -7.95 -1.8 -10.15 L-3.95 -12.3 -4.65 -11.4 Q-1.8 -8.35 1.9 -6.6 L2.45 -6.35 4.6 -5.55 7.05 -4.9 7.6 -4.85 7.05 -4.9 4.6 -5.55 2.45 -6.35 1.9 -6.6 1.4 -5.8 -3.15 -8.7 -5.25 -10.55 -5.4 -10.35 Q-6.95 -7.9 -7.15 -4.2 L-7.25 -3.5 -7.35 -2.7 Q-7.25 -2.45 -6.8 -2.3 -6.35 -2.15 -4.85 -0.6 -3.35 0.85 -2.9 2.45 -2.4 4.15 -2.6 6.4 L-2.65 7.05 -2.75 7.6 -2.8 7.95 -2.15 9.05 -1.0 10.25 Q0.05 11.25 2.35 12.45 3.45 13.05 5.0 12.8 L5.7 12.6 8.0 11.85 7.95 11.2 8.1 8.7 8.5 6.2 8.6 6.0 Q8.95 5.35 9.55 4.85 L10.15 4.4 Q11.05 3.75 12.45 3.4 L15.3 2.9 12.45 3.4 Q11.05 3.75 10.15 4.4 8.45 0.2 7.85 -4.05 L7.8 -4.1 7.6 -4.85 7.9 -4.8 12.75 -4.35 15.15 -4.65 M8.6 11.75 L8.6 10.7 8.65 9.25 9.0 7.2 9.1 6.8 Q9.75 5.35 12.35 4.35 L15.2 3.6 15.3 2.9 15.6 0.0 Q15.7 -1.95 15.2 -4.2 L11.35 -4.0 7.85 -4.05 Q8.45 0.2 10.15 4.4 L9.55 4.85 Q7.8 0.05 7.05 -4.9 7.8 0.05 9.55 4.85 8.95 5.35 8.6 6.0 L8.5 6.2 8.1 8.7 7.95 11.2 8.0 11.85 8.5 11.75 8.6 11.75 M-2.95 0.35 L-2.85 0.5 -2.65 0.85 Q0.3 -2.35 2.45 -6.35 0.3 -2.35 -2.65 0.85 L-2.85 0.5 -2.95 0.35 Q-0.65 -2.2 1.4 -5.8 -0.65 -2.2 -2.95 0.35 L-3.9 -1.0 Q-5.35 -2.65 -7.25 -3.5 -5.35 -2.65 -3.9 -1.0 L-2.95 0.35 M4.6 -5.55 L2.35 12.45 4.6 -5.55 M-2.65 0.85 Q-1.25 3.6 -1.75 7.05 L-1.8 7.5 -2.15 9.05 -1.8 7.5 -1.75 7.05 Q-1.25 3.6 -2.65 0.85"/><path fill="#e3e3e3" stroke="none" d="M-4.65 -11.4 L-5.25 -10.55 -3.15 -8.7 1.4 -5.8 1.9 -6.6 Q-1.8 -8.35 -4.65 -11.4 M15.2 -4.2 L15.15 -4.65 12.75 -4.35 7.9 -4.8 7.6 -4.85 7.8 -4.1 7.85 -4.05 11.35 -4.0 15.2 -4.2"/><path fill="#d1d1d1" stroke="none" d="M-2.8 7.95 Q-3.0 9.2 -3.45 9.95 L-2.7 10.7 -1.35 11.95 Q0.15 13.35 2.05 14.4 L3.7 14.65 4.5 14.6 7.7 13.75 8.25 13.55 8.95 13.1 8.65 11.95 8.6 11.75 8.5 11.75 8.0 11.85 5.7 12.6 5.0 12.8 Q3.45 13.05 2.35 12.45 L2.05 14.4 2.35 12.45 Q0.05 11.25 -1.0 10.25 L-2.15 9.05 -2.8 7.95 M8.25 13.55 L8.0 11.85 8.25 13.55 M-2.7 10.7 L-2.15 9.05 -2.7 10.7"/><path fill="none" stroke="#000000" stroke-width="0.5" stroke-opacity="0.2" d="M15.15 -4.65 L14.85 -5.6 11.4 -5.55 Q7.25 -5.85 4.05 -6.9 0.85 -7.95 -1.8 -10.15 L-3.95 -12.3 -4.65 -11.4 -5.25 -10.55 -5.4 -10.35 Q-6.95 -7.9 -7.15 -4.2 L-7.25 -3.5 -7.35 -2.7 Q-7.25 -2.45 -6.8 -2.3 -6.35 -2.15 -4.85 -0.6 -3.35 0.85 -2.9 2.45 -2.4 4.15 -2.6 6.4 L-2.65 7.05 -2.75 7.6 M-2.8 7.95 Q-3.0 9.2 -3.45 9.95 L-2.7 10.7 -1.35 11.95 Q0.15 13.35 2.05 14.4 L3.7 14.65 4.5 14.6 7.7 13.75 8.25 13.55 8.95 13.1 8.65 11.95 8.6 11.75 8.6 10.7 8.65 9.25 9.0 7.2 9.1 6.8 Q9.75 5.35 12.35 4.35 L15.2 3.6 15.3 2.9 15.6 0.0 Q15.7 -1.95 15.2 -4.2 L15.15 -4.65 12.75 -4.35 7.9 -4.8 7.6 -4.85 7.05 -4.9 4.6 -5.55 2.45 -6.35 1.9 -6.6 Q-1.8 -8.35 -4.65 -11.4 M1.9 -6.6 L1.4 -5.8 Q-0.65 -2.2 -2.95 0.35 L-3.9 -1.0 Q-5.35 -2.65 -7.25 -3.5 M2.45 -6.35 Q0.3 -2.35 -2.65 0.85 L-2.85 0.5 -2.95 0.35 M7.8 -4.1 L7.6 -4.85 M15.3 2.9 L12.45 3.4 Q11.05 3.75 10.15 4.4 8.45 0.2 7.85 -4.05 M10.15 4.4 L9.55 4.85 Q7.8 0.05 7.05 -4.9 M9.55 4.85 Q8.95 5.35 8.6 6.0 L8.5 6.2 8.1 8.7 7.95 11.2 8.0 11.85 8.25 13.55 M2.35 12.45 L4.6 -5.55 M2.05 14.4 L2.35 12.45 M-2.15 9.05 L-1.8 7.5 -1.75 7.05 Q-1.25 3.6 -2.65 0.85 M-2.15 9.05 L-2.7 10.7"/><path fill="#c4ab2d" fill-opacity="0.2" d="M-4.05 -4.05 Q-4.05 -4.45 -4.4 -4.5 -4.8 -4.6 -4.85 -4.2 -4.95 -3.7 -4.65 -3.6 -4.15 -3.45 -4.05 -3.95 L-4.05 -4.05 M-3.5 -4.65 Q-2.75 -4.45 -2.15 -4.9 L-2.5 -5.25 Q-3.4 -5.55 -3.65 -4.95 L-3.5 -4.65 M-2.25 -4.15 L-2.55 -4.15 -2.6 -3.85 -2.6 -3.55 -1.75 -2.85 -1.45 -2.55 -1.2 -2.25 Q-0.85 -2.15 -0.55 -2.8 L-0.4 -3.2 0.1 -2.7 0.85 -2.15 1.25 -2.1 Q1.35 -2.8 0.5 -3.35 L-0.3 -3.45 -0.45 -3.75 -1.0 -3.85 -1.25 -3.8 -2.25 -4.15 M-2.75 -0.55 L-3.65 -0.55 -4.0 -0.45 -5.6 -2.25 -5.7 -2.0 -4.5 0.0 -3.05 1.75 -2.9 1.75 -2.8 1.55 Q-2.75 1.3 -3.2 0.65 -2.9 0.65 -2.65 0.3 L-2.5 -0.2 Q-2.45 -0.6 -2.75 -0.55 M0.6 3.25 Q-0.1 3.0 -0.7 4.0 L-1.25 5.2 -0.95 6.25 -1.05 7.05 -2.65 7.0 -2.7 7.6 -2.75 7.95 Q-2.95 9.15 -3.45 9.95 L-2.7 10.65 -1.35 11.95 Q0.15 13.35 2.1 14.4 L4.5 14.6 7.7 13.75 9.0 13.15 Q8.75 12.7 8.65 11.7 L8.6 10.7 8.6 9.9 8.65 9.25 8.35 8.2 8.2 8.0 Q7.8 7.35 6.7 7.15 L6.5 7.65 6.55 8.25 6.65 8.75 4.3 9.8 3.9 9.4 3.75 8.8 4.2 8.05 3.95 7.55 Q3.65 7.25 3.4 7.2 L3.0 7.2 2.6 7.5 2.2 8.15 2.3 9.3 2.5 10.3 2.05 10.85 1.2 10.7 0.65 10.4 0.0 10.05 Q0.25 9.6 0.8 9.45 L1.7 8.85 1.1 8.0 1.8 7.25 1.4 6.8 1.25 6.15 1.45 5.6 1.65 5.0 Q1.75 4.45 1.25 3.85 L0.6 3.25 M0.1 1.6 L-0.1 2.0 Q-0.15 2.35 0.85 2.95 L1.4 2.9 1.7 2.85 1.25 2.05 0.5 1.4 Q0.3 1.3 0.1 1.6 M-2.05 3.2 Q-2.0 2.85 -2.35 2.6 -2.65 2.4 -2.75 2.85 L-2.65 3.35 -2.4 3.6 Q-2.2 3.7 -2.15 3.45 L-2.05 3.2 M10.7 2.5 L11.1 2.9 Q11.85 3.15 11.9 2.7 11.95 2.35 11.35 2.15 10.8 2.0 10.7 2.5 M13.85 1.35 L14.0 1.5 14.3 1.15 13.95 0.65 13.85 0.95 13.85 1.35 M14.2 3.8 Q14.35 2.8 13.2 3.15 12.05 3.45 12.0 3.85 11.95 4.2 12.3 4.3 L12.9 4.15 13.6 3.95 13.75 4.05 13.85 4.2 14.15 4.05 14.2 3.8 M8.55 5.65 L8.35 5.5 7.7 5.65 Q7.7 6.1 8.35 6.45 L8.45 6.35 8.55 6.3 8.65 6.15 8.6 6.0 8.55 5.65 M6.0 6.05 L5.5 5.65 Q5.1 5.55 4.8 5.8 4.55 6.0 4.55 6.3 4.4 7.35 5.0 7.55 L5.75 7.2 6.25 6.7 6.0 6.05 M6.95 10.65 Q6.85 11.15 6.2 10.95 5.85 10.8 5.9 10.45 L6.55 10.0 6.6 10.0 Q7.0 10.25 6.95 10.65"/></g><g id="c11"><g><use transform="matrix(1.0,0.0,0.0,1.0,0.0,0.0)" xlink:href="#c10"/></g></g><g id="c12"><g><use transform="matrix(1.0,0.0,0.0,1.0,7.45,16.15)" xlink:href="#c11"/></g></g><g id="c13"><g><use transform="matrix(5.18176269531,0.0,0.0,5.18176269531,0.0,-18.0)" xlink:href="#c12"/></g></g><g id="c14"><g><use transform="matrix(1.0,0.0,0.0,1.0,6.3,53.35)" xlink:href="#c9"/></g><g><use transform="matrix(-0.146041870117,0.0488891601562,0.0616760253906,0.140441894531,33.05,63.95)" xlink:href="#c13"/></g><g><use transform="matrix(0.141098022461,-0.0378112792969,0.111373901367,0.225646972656,27.2,74.05)" filter="url(#filter14)" xlink:href="#c6"/></g></g><filter id="filter14"><feColorMatrix in="SourceGraphic" type="matrix" values="1.0 0.0 0.0 0.0 0.0 0.0 1.0 0.0 0.0 0.0 0.0 0.0 1.0 0.0 0.0 0.0 0.0 0.0 0.23046875 0.0" result="cxform"/><feComposite operator="in" in2="SourceGraphic" result="color-xform"/></filter></defs><g><g><use transform="matrix(1.0,0.0,0.0,1.0,0.0,0.0)" xlink:href="#c1"/></g><g><use transform="matrix(1.15496826172,0.0,0.0,1.15496826172,-1.5,-57.15)" xlink:href="#c14"/></g></g></svg>