<?xml version='1.0' encoding='UTF-8'?>
<svg xmlns:xlink="http://www.w3.org/1999/xlink" xmlns="http://www.w3.org/2000/svg" version="1.1" width="60px" height="60px" viewBox="0.0 0.0 60.0 60.0"><defs><g id="c1"><path fill="#000000" fill-opacity="0.00392156862745" d="M0.0 0.0 L60.0 0.0 60.0 60.0 0.0 60.0 0.0 0.0"/></g><g id="c2"><path fill="#006699" stroke="none" d="M31.5 39.85 L19.8 43.65 Q17.15 44.45 15.5 43.3 14.35 42.55 13.65 40.9 L1.7 14.45 1.6 14.3 1.2 13.45 -0.75 9.05 Q-2.05 6.2 -0.3 4.75 0.3 4.25 1.2 3.9 L5.5 2.25 Q8.95 0.95 10.65 4.15 L22.3 0.4 Q26.55 -1.0 28.45 3.1 L40.55 29.95 40.9 30.7 42.95 35.15 Q43.95 37.35 43.15 38.7 42.5 39.7 40.95 40.25 L36.65 41.8 35.1 42.2 Q32.75 42.3 31.5 39.85"/><path fill="none" stroke="#000000" stroke-width="1.0" stroke-opacity="0.298039215686" d="M31.5 39.85 L19.8 43.65 Q17.15 44.45 15.5 43.3 14.35 42.55 13.65 40.9 L1.7 14.45 1.6 14.3 1.2 13.45 -0.75 9.05 Q-2.05 6.2 -0.3 4.75 0.3 4.25 1.2 3.9 L5.5 2.25 Q8.95 0.95 10.65 4.15 L22.3 0.4 Q26.55 -1.0 28.45 3.1 L40.55 29.95 40.9 30.7 42.95 35.15 Q43.95 37.35 43.15 38.7 42.5 39.7 40.95 40.25 L36.65 41.8 35.1 42.2 Q32.75 42.3 31.5 39.85"/><path fill="#300525" stroke="none" d="M0.75 8.25 L29.8 9.75 25.55 0.9 Q26.9 1.6 27.8 3.55 L40.7 32.15 Q42.6 36.3 38.3 37.65 L23.3 42.5 13.15 21.4 4.6 20.9 0.7 12.25 Q-0.45 9.75 0.75 8.25 M20.1 43.55 L19.8 43.65 Q17.15 44.45 15.5 43.3 L20.1 43.55"/><path fill="#630a4c" stroke="none" d="M25.55 0.9 L29.8 9.75 0.75 8.25 Q1.45 7.3 3.1 6.75 L21.65 0.8 25.55 0.9 M4.6 20.9 L13.15 21.4 23.3 42.5 20.1 43.55 15.5 43.3 Q14.35 42.55 13.65 40.9 L4.6 20.9"/><path fill="none" stroke="#000000" stroke-width="0.5" stroke-opacity="0.301960784314" d="M0.75 8.25 Q-0.45 9.75 0.7 12.25 L4.6 20.9 M23.3 42.5 L38.3 37.65 Q42.6 36.3 40.7 32.15 L27.8 3.55 Q26.9 1.6 25.55 0.9 L21.65 0.8 3.1 6.75 Q1.45 7.3 0.75 8.25 M20.1 43.55 L19.8 43.65 Q17.15 44.45 15.5 43.3 14.35 42.55 13.65 40.9 L4.6 20.9 M20.1 43.55 L23.3 42.5"/><path fill="#9d147b" stroke="none" d="M14.2 40.5 L1.35 11.8 Q-0.5 7.75 3.8 6.35 L22.3 0.4 Q26.55 -1.0 28.45 3.1 L41.35 31.7 Q43.25 35.85 38.9 37.25 L20.4 43.2 Q16.1 44.55 14.2 40.5"/><path fill="none" stroke="#000000" stroke-width="0.5" stroke-opacity="0.301960784314" d="M14.2 40.5 L1.35 11.8 Q-0.5 7.75 3.8 6.35 L22.3 0.4 Q26.55 -1.0 28.45 3.1 L41.35 31.7 Q43.25 35.85 38.9 37.25 L20.4 43.2 Q16.1 44.55 14.2 40.5"/><path fill="#9d147b" stroke="none" d="M31.4 39.65 L31.3 39.45 31.25 39.4 29.25 34.95 Q27.55 31.2 31.25 29.85 L35.6 28.25 Q38.8 27.1 40.5 29.85 L40.9 30.7 42.95 35.15 Q43.95 37.35 43.15 38.7 42.5 39.45 41.2 39.9 L36.9 41.45 34.85 41.85 Q32.9 41.7 31.75 39.5 L31.4 39.65"/><path fill="#630a4c" stroke="none" d="M43.15 38.7 Q42.5 39.7 40.95 40.25 L36.65 41.8 35.1 42.2 Q32.75 42.3 31.45 39.8 L31.4 39.65 31.75 39.5 Q32.9 41.7 34.85 41.85 L36.9 41.45 41.2 39.9 Q42.5 39.45 43.15 38.7"/><path fill="none" stroke="#003333" stroke-width="0.5" stroke-opacity="0.509803921569" d="M43.15 38.7 Q42.5 39.7 40.95 40.25 L36.65 41.8 35.1 42.2 Q32.75 42.3 31.45 39.8 L31.4 39.65 30.3 40.0 31.4 39.65 M40.5 29.85 L40.9 30.7 42.95 35.15 Q43.95 37.35 43.15 38.7 42.5 39.45 41.2 39.9 L36.9 41.45 34.85 41.85 Q32.9 41.7 31.75 39.5 L31.4 39.65"/><path fill="#9d147b" stroke="none" d="M10.65 4.2 L10.85 4.6 12.85 9.05 Q14.5 12.8 10.8 14.15 L6.5 15.8 Q4.5 16.6 3.1 15.8 L1.75 12.85 -0.2 8.45 Q-1.25 6.15 -0.3 4.75 0.3 4.25 1.2 3.9 L5.5 2.25 Q9.0 0.95 10.65 4.2"/><path fill="#300525" stroke="none" d="M-0.3 4.75 Q-1.25 6.15 -0.2 8.45 L1.75 12.85 3.1 15.8 Q2.25 15.35 1.6 14.3 L1.2 13.45 -0.75 9.05 Q-2.05 6.2 -0.3 4.75"/><path fill="none" stroke="#003333" stroke-width="0.5" stroke-opacity="0.509803921569" d="M3.1 15.8 L6.45 23.15 M-0.3 4.75 Q0.3 4.25 1.2 3.9 L5.5 2.25 Q9.0 0.95 10.65 4.2 M3.1 15.8 L1.75 12.85 -0.2 8.45 Q-1.25 6.15 -0.3 4.75 -2.05 6.2 -0.75 9.05 L1.2 13.45 1.6 14.3"/><path fill="#fcf2cf" stroke="none" d="M9.15 13.6 Q9.8 12.8 9.55 11.6 L9.1 10.55 22.05 6.35 Q24.9 5.45 26.25 7.85 L26.5 8.3 35.8 29.0 35.95 29.35 Q34.75 29.3 34.1 30.1 33.45 30.9 33.7 32.1 L34.0 32.9 20.65 37.2 Q18.8 37.8 17.65 37.0 16.8 36.4 16.3 35.2 L6.95 14.6 6.8 14.4 7.1 14.4 Q8.4 14.45 9.15 13.6"/><path fill="#c47fad" stroke="none" d="M9.15 13.6 Q8.4 14.45 7.1 14.4 L6.8 14.4 6.95 14.6 16.3 35.2 Q16.8 36.4 17.65 37.0 18.8 37.8 20.65 37.2 L34.0 32.9 33.7 32.1 Q33.45 30.9 34.1 30.1 34.75 29.3 35.95 29.35 L35.8 29.0 26.5 8.3 26.25 7.85 Q24.9 5.45 22.05 6.35 L9.1 10.55 9.55 11.6 Q9.8 12.8 9.15 13.6 M28.25 6.1 L35.55 22.3 39.35 30.75 Q41.1 34.5 37.2 35.7 L20.45 41.1 Q16.8 42.25 15.2 39.0 L15.0 38.6 8.25 23.65 3.35 12.8 Q1.65 9.1 5.5 7.85 L22.25 2.5 Q26.05 1.25 27.75 4.95 L28.25 6.1"/><path fill="none" stroke="#ffcc00" stroke-width="1.0" stroke-opacity="0.749019607843" d="M35.55 22.3 L39.35 30.75 Q41.1 34.5 37.2 35.7 L20.45 41.1 Q16.8 42.25 15.2 39.0 L15.0 38.6 M8.25 23.65 L3.35 12.8 Q1.65 9.1 5.5 7.85 L22.25 2.5 Q26.05 1.25 27.75 4.95 L28.25 6.1"/><path fill="none" stroke="#bf9900" stroke-width="1.0" stroke-opacity="0.749019607843" d="M28.25 6.1 L35.55 22.3 M15.0 38.6 L8.25 23.65"/><path fill="none" stroke="#f0b92b" stroke-width="0.5" d="M9.15 13.6 Q9.8 12.8 9.55 11.6 L9.1 10.55 22.05 6.35 Q24.9 5.45 26.25 7.85 L26.5 8.3 35.8 29.0 35.95 29.35 Q34.75 29.3 34.1 30.1 33.45 30.9 33.7 32.1 L34.0 32.9 20.65 37.2 Q18.8 37.8 17.65 37.0 16.8 36.4 16.3 35.2 L6.95 14.6 6.8 14.4 7.1 14.4 Q8.4 14.45 9.15 13.6"/></g><g id="c3"><path fill="#7fdbfe" stroke="none" d="M10.75 4.9 Q10.75 4.6 10.9 4.35 11.25 3.45 11.95 2.75 13.3 1.5 14.35 2.1 15.4 2.7 14.95 4.45 14.7 5.4 14.1 6.15 L13.75 6.5 Q13.1 7.15 12.35 7.35 L11.4 7.2 Q10.95 6.9 10.75 6.4 10.5 5.75 10.75 4.9 M7.5 5.9 Q7.0 5.85 6.6 5.5 6.05 5.0 5.8 4.15 L5.7 3.6 Q5.55 2.65 5.8 1.7 6.25 0.0 7.5 0.0 L7.6 0.0 Q8.85 0.0 9.3 1.7 9.55 2.65 9.4 3.6 L9.3 4.15 8.5 5.5 7.6 5.9 7.5 5.9 M4.35 4.9 Q4.6 5.75 4.35 6.4 L3.7 7.2 2.75 7.35 Q2.0 7.15 1.35 6.5 L1.0 6.15 Q0.4 5.4 0.15 4.45 -0.3 2.7 0.75 2.1 1.8 1.5 3.15 2.75 3.85 3.45 4.2 4.35 L4.35 4.9 M5.5 13.7 Q4.45 13.9 3.65 12.95 2.75 12.0 3.2 10.25 3.7 8.5 5.25 7.6 6.4 6.9 7.55 7.0 8.75 6.9 9.9 7.6 11.45 8.5 11.95 10.25 12.35 12.0 11.5 12.95 10.7 13.9 9.65 13.7 8.55 13.5 7.55 12.6 6.55 13.5 5.5 13.7"/></g><g id="c4"><g><use transform="matrix(1.0,0.0,0.0,1.0,0.0,0.0)" xlink:href="#c3"/></g></g><radialGradient gradientUnits="userSpaceOnUse" r="819.2" cx="0" cy="0" spreadMethod="pad" gradientTransform="matrix(0.0914459228516,0.0,0.0,0.0914459228516,0.6,3.4)" id="gradient1"><stop offset="0.0" stop-color="#ffffff"/><stop offset="1.0" stop-color="#ffffff" stop-opacity="0.0"/></radialGradient><g id="c5"><path stroke="none" fill="url(#gradient1)" d="M36.65 -54.65 Q60.05 -42.0 69.75 -17.95 80.55 8.9 68.0 34.1 55.45 59.35 26.8 68.2 -1.8 77.05 -29.7 64.3 -57.6 51.6 -68.45 24.75 -79.3 -2.05 -66.75 -27.25 L-66.7 -27.3 Q-54.1 -52.5 -25.5 -61.4 3.1 -70.2 31.0 -57.5 L36.65 -54.65"/></g><g id="c6"><g><use transform="matrix(1.0,0.0,0.0,1.0,0.0,0.0)" xlink:href="#c5"/></g></g><radialGradient gradientUnits="userSpaceOnUse" r="819.2" cx="0" cy="0" spreadMethod="pad" gradientTransform="matrix(0.209197998047,0.0,0.0,0.177108764648,67.15,107.2)" id="gradient2"><stop offset="0.356862745098" stop-color="#ffffff"/><stop offset="0.670588235294" stop-opacity="0.0"/></radialGradient><g id="c7"><path fill="none" stroke-linejoin="round" stroke-linecap="round" stroke="url(#gradient2)" stroke-width="0.5" d="M136.55 165.8 L68.6 106.0 68.4 106.0 118.25 201.5 M68.3 105.8 L68.35 105.8 68.3 105.8 68.3 105.85 68.4 106.0 68.3 106.0 86.55 211.5 M68.3 105.8 L68.3 105.85 68.3 106.0 68.15 105.95 18.25 151.55 M68.3 105.85 L68.25 105.85 68.3 106.0 50.0 193.2 M68.25 105.85 L68.15 105.95 0.05 97.7 M68.3 105.85 L68.25 105.8 68.25 105.85 M68.25 105.8 L68.2 105.7 0.0 45.7 M68.3 105.8 L68.25 105.75 68.25 105.8 M68.25 105.75 L68.2 105.7 18.25 10.05 M68.6 106.0 L68.35 105.8 118.25 60.15 M86.6 18.35 L68.3 105.8 M136.6 114.25 L68.6 106.0 M68.25 105.75 L49.95 0.05"/></g><g id="c8"><g><use transform="matrix(1.0,0.0,0.0,1.0,0.0,0.0)" xlink:href="#c7"/></g></g><g id="c9"><g><use transform="matrix(1.0,0.0,0.0,1.0,0.0,0.0)" xlink:href="#c2"/></g><g><use transform="matrix(0.238861083984,-0.0867004394531,0.10026550293,0.233917236328,34.25,31.15)" xlink:href="#c4"/></g><g><use transform="matrix(0.238861083984,-0.0867004394531,0.10026550293,0.233917236328,4.25,10.3)" xlink:href="#c4"/></g><g><use transform="matrix(0.141098022461,-0.0378112792969,0.111373901367,0.225646972656,20.25,20.65)" filter="url(#filter7)" xlink:href="#c6"/></g><g><use transform="matrix(-0.155029296875,0.0513153076172,0.0841827392578,0.147033691406,22.6,3.15)" filter="url(#filter8)" xlink:href="#c8"/></g></g><filter id="filter7"><feColorMatrix in="SourceGraphic" type="matrix" values="0.0 0.0 0.0 0.0 0.796875 0.0 0.0 0.0 0.0 0.59765625 0.0 0.0 0.0 0.0 0.19921875 0.0 0.0 0.0 1.0 0.0" result="cxform"/><feComposite operator="in" in2="SourceGraphic" result="color-xform"/></filter><filter id="filter8"><feColorMatrix in="SourceGraphic" type="matrix" values="0.0 0.0 0.0 0.0 0.99609375 0.0 0.0 0.0 0.0 0.99609375 0.0 0.0 0.0 0.0 0.99609375 0.0 0.0 0.0 1.0 0.0" result="cxform"/><feComposite operator="in" in2="SourceGraphic" result="color-xform"/></filter><linearGradient gradientUnits="userSpaceOnUse" x1="-819.2" x2="819.2" spreadMethod="pad" gradientTransform="matrix(0.0128021240234,-0.0210113525391,0.0247497558594,0.01708984375,87.4,26.05)" id="gradient3"><stop offset="0.0" stop-color="#90958f"/><stop offset="1.0" stop-color="#ede7d7"/></linearGradient><radialGradient gradientUnits="userSpaceOnUse" r="819.2" cx="0" cy="0" spreadMethod="pad" gradientTransform="matrix(0.00479125976562,0.00505065917969,-0.00505065917969,0.00479125976562,32.85,94.95)" id="gradient4"><stop offset="0.0" stop-color="#2ae0c6" stop-opacity="0.533333333333"/><stop offset="1.0" stop-color="#34ffec" stop-opacity="0.0"/></radialGradient><radialGradient gradientUnits="userSpaceOnUse" r="819.2" cx="0" cy="0" spreadMethod="pad" gradientTransform="matrix(0.00955200195312,0.0100708007812,-0.0100708007812,0.00955200195312,49.65,80.7)" id="gradient5"><stop offset="0.0" stop-color="#2ae0c6" stop-opacity="0.533333333333"/><stop offset="1.0" stop-color="#34ffec" stop-opacity="0.0"/></radialGradient><radialGradient gradientUnits="userSpaceOnUse" r="819.2" cx="0" cy="0" spreadMethod="pad" gradientTransform="matrix(0.00479125976562,0.00505065917969,-0.00505065917969,0.00479125976562,76.25,75.9)" id="gradient6"><stop offset="0.0" stop-color="#2ae0c6" stop-opacity="0.533333333333"/><stop offset="1.0" stop-color="#34ffec" stop-opacity="0.0"/></radialGradient><radialGradient gradientUnits="userSpaceOnUse" r="819.2" cx="0" cy="0" spreadMethod="pad" gradientTransform="matrix(0.00479125976562,0.00505065917969,-0.00505065917969,0.00479125976562,87.3,43.0)" id="gradient7"><stop offset="0.0" stop-color="#2ae0c6" stop-opacity="0.533333333333"/><stop offset="1.0" stop-color="#34ffec" stop-opacity="0.0"/></radialGradient><radialGradient gradientUnits="userSpaceOnUse" r="819.2" cx="0" cy="0" spreadMethod="pad" gradientTransform="matrix(0.00833129882812,0.00881958007812,-0.00881958007812,0.00833129882812,92.2,66.65)" id="gradient8"><stop offset="0.0" stop-color="#2ae0c6" stop-opacity="0.533333333333"/><stop offset="1.0" stop-color="#34ffec" stop-opacity="0.0"/></radialGradient><radialGradient gradientUnits="userSpaceOnUse" r="819.2" cx="0" cy="0" spreadMethod="pad" gradientTransform="matrix(0.00982666015625,0.0103454589844,-0.0103454589844,0.00982666015625,52.9,12.1)" id="gradient9"><stop offset="0.0" stop-color="#2ae0c6" stop-opacity="0.533333333333"/><stop offset="1.0" stop-color="#34ffec" stop-opacity="0.0"/></radialGradient><g id="c10"><path fill="#71684a" stroke="none" d="M35.55 92.2 L37.4 91.55 45.15 100.05 36.5 101.7 29.75 107.0 28.0 108.35 25.85 107.0 24.0 105.4 35.55 92.2 M41.45 85.75 L41.65 85.1 50.8 74.65 51.9 75.2 57.0 80.55 52.75 82.5 46.1 89.9 46.0 89.9 42.65 86.95 42.5 86.85 41.45 85.75"/><path fill="#cbc4b4" stroke="none" d="M44.15 107.0 L38.5 112.25 35.65 113.1 28.0 108.35 29.75 107.0 44.15 107.0 M54.85 88.8 L52.55 91.45 50.05 91.85 46.1 89.9 54.85 88.8"/><path fill="#aaa080" stroke="none" d="M45.15 100.05 L47.4 102.55 44.15 107.0 29.75 107.0 36.5 101.7 45.15 100.05 M46.1 89.9 L52.75 82.5 57.0 80.55 59.0 83.8 54.85 88.8 46.1 89.9"/><path fill="none" stroke="#382510" stroke-width="1.0" stroke-opacity="0.301960784314" d="M35.55 92.2 L37.4 91.55 45.15 100.05 47.4 102.55 44.15 107.0 38.5 112.25 35.65 113.1 28.0 108.35 25.85 107.0 24.0 105.4 M41.45 85.75 L42.5 86.85 M42.65 86.95 L46.0 89.9 46.1 89.9 50.05 91.85 52.55 91.45 54.85 88.8 59.0 83.8 57.0 80.55 51.9 75.2 50.8 74.65"/><path fill="#71684a" stroke="none" d="M55.35 46.45 L57.4 44.4 66.15 48.0 Q71.05 50.3 72.8 59.75 L72.35 61.2 63.95 69.6 54.6 78.95 Q62.95 70.15 63.6 60.55 L63.4 54.75 55.35 48.45 55.35 46.45"/><path fill="#cbc4b4" stroke="none" d="M55.35 46.45 L55.35 48.45 55.25 66.85 14.9 107.2 7.05 99.35 9.25 92.6 54.25 47.65 54.25 47.55 55.35 46.45"/><path fill="#aaa080" stroke="none" d="M55.35 48.45 L63.4 54.75 63.6 60.55 Q62.95 70.15 54.6 78.95 L41.8 91.7 41.3 92.35 20.7 112.95 14.9 107.2 55.25 66.85 55.35 48.45"/><path fill="none" stroke="#382510" stroke-width="1.0" stroke-opacity="0.301960784314" d="M57.4 44.4 L55.35 46.45 54.25 47.55 M54.6 78.95 L63.95 69.6 72.35 61.2 72.8 59.75 M54.25 47.65 L9.25 92.6 7.05 99.35 14.9 107.2 20.7 112.95 41.3 92.35 41.8 91.7 54.6 78.95"/><path fill="#ede8de" fill-opacity="0.6" d="M17.9 86.45 L22.45 91.0 16.9 96.6 12.3 92.0 17.9 86.45 M35.65 77.85 L31.05 73.25 37.3 67.05 41.85 71.6 35.65 77.85"/><path fill="#ede8de" stroke="none" d="M22.45 91.0 L17.9 86.45 31.05 73.25 35.65 77.85 22.45 91.0"/><path fill="#e6e1d1" stroke="none" d="M43.05 69.45 Q38.25 73.45 33.55 76.45 L30.55 68.85 33.15 66.15 30.25 66.45 29.75 65.15 Q34.65 64.15 42.15 58.95 41.15 65.95 43.05 69.45"/><path fill="#aeac9d" stroke="none" d="M42.15 58.95 L47.15 55.1 52.1 61.25 Q47.55 65.75 43.05 69.45 41.15 65.95 42.15 58.95"/><path fill="none" stroke="#382510" stroke-width="0.7" stroke-opacity="0.301960784314" d="M43.05 69.45 Q38.25 73.45 33.55 76.45 L30.55 68.85 33.15 66.15 30.25 66.45 29.75 65.15 Q34.65 64.15 42.15 58.95 L47.15 55.1 M52.1 61.25 Q47.55 65.75 43.05 69.45"/><path fill="#65613d" stroke="none" d="M65.3 68.35 Q63.6 69.55 60.4 68.75 56.9 67.75 53.6 64.95 L53.1 64.45 Q50.2 61.65 48.8 58.5 L48.3 57.4 Q47.05 54.1 48.7 52.5 L48.7 52.0 48.8 51.8 Q50.6 50.1 54.3 51.0 58.1 52.0 61.4 55.3 65.0 58.5 66.4 62.25 67.7 65.95 66.0 67.85 L65.3 68.35"/><path fill="#677f9f" stroke="none" d="M53.6 64.95 Q48.6 67.95 47.9 71.65 L47.05 70.95 Q44.05 68.25 42.75 65.35 45.45 64.85 48.8 58.5 50.2 61.65 53.1 64.45 L53.6 64.95"/><path fill="#45556c" stroke="none" d="M65.3 68.35 L59.3 74.85 Q57.6 76.05 54.5 75.15 51.1 74.25 47.9 71.65 48.6 67.95 53.6 64.95 56.9 67.75 60.4 68.75 63.6 69.55 65.3 68.35 M42.75 65.35 L42.25 64.05 Q41.05 60.35 42.75 58.4 L48.7 52.5 Q47.05 54.1 48.3 57.4 L48.8 58.5 Q45.45 64.85 42.75 65.35"/><path fill="none" stroke="#382510" stroke-width="0.7" stroke-opacity="0.250980392157" d="M47.9 71.65 Q51.1 74.25 54.5 75.15 57.6 76.05 59.3 74.85 L65.3 68.35 M47.9 71.65 L47.05 70.95 Q44.05 68.25 42.75 65.35 L42.25 64.05 Q41.05 60.35 42.75 58.4 L48.7 52.5 48.7 52.0 48.8 51.8 Q50.6 50.1 54.3 51.0 58.1 52.0 61.4 55.3 65.0 58.5 66.4 62.25 67.7 65.95 66.0 67.85 L65.3 68.35"/><path fill="#65613d" stroke="none" d="M55.2 40.8 L55.4 40.6 Q57.6 38.5 62.2 39.6 66.9 40.9 71.2 45.0 75.6 49.0 77.2 53.6 78.9 58.3 76.7 60.65 L75.9 61.25 Q73.7 62.85 69.9 61.75 65.5 60.55 61.4 57.0 L60.7 56.4 Q57.0 52.9 55.3 49.0 L54.7 47.7 Q53.3 43.2 55.2 40.8"/><path fill="#44536b" stroke="none" d="M55.2 40.8 Q53.3 43.2 54.7 47.7 L55.3 49.0 Q51.3 56.9 47.9 57.4 L47.25 55.8 Q45.65 51.3 47.8 49.0 L55.2 40.8 M61.4 57.0 Q65.5 60.55 69.9 61.75 73.7 62.85 75.9 61.25 L68.5 69.45 Q66.4 70.85 62.4 69.85 58.2 68.75 54.2 65.45 55.2 60.85 61.4 57.0"/><path fill="#677f9f" stroke="none" d="M55.3 49.0 Q57.0 52.9 60.7 56.4 L61.4 57.0 Q55.2 60.85 54.2 65.45 L53.3 64.55 Q49.6 61.15 47.9 57.4 51.3 56.9 55.3 49.0"/><path fill="none" stroke="#382510" stroke-width="0.7" stroke-opacity="0.250980392157" d="M75.9 61.25 L76.7 60.65 Q78.9 58.3 77.2 53.6 75.6 49.0 71.2 45.0 66.9 40.9 62.2 39.6 57.6 38.5 55.4 40.6 L55.2 40.8 M75.9 61.25 L68.5 69.45 Q66.4 70.85 62.4 69.85 58.2 68.75 54.2 65.45 L53.3 64.55 Q49.6 61.15 47.9 57.4 L47.25 55.8 Q45.65 51.3 47.8 49.0 L55.2 40.8"/><path fill="#e2d89e" stroke="none" d="M79.95 39.1 Q84.1 43.35 85.5 48.15 86.95 52.8 84.65 55.0 L83.8 55.65 75.8 63.3 Q73.65 64.6 69.7 63.4 65.55 62.0 61.85 58.5 L60.9 57.6 Q57.4 54.0 55.85 50.2 L55.45 48.55 Q54.15 44.0 56.3 41.8 L64.35 33.85 Q66.75 31.9 71.25 33.3 75.8 34.75 79.95 39.1"/><path fill="none" stroke="#382510" stroke-width="0.7" stroke-opacity="0.250980392157" d="M79.95 39.1 Q75.8 34.75 71.25 33.3 66.75 31.9 64.35 33.85 L56.3 41.8 Q54.15 44.0 55.45 48.55 L55.85 50.2 Q57.4 54.0 60.9 57.6 L61.85 58.5 Q65.55 62.0 69.7 63.4 73.65 64.6 75.8 63.3 L83.8 55.65 84.65 55.0 Q86.95 52.8 85.5 48.15 84.1 43.35 79.95 39.1"/><path fill="#7e0101" stroke="none" d="M48.5 9.15 L48.4 8.95 Q51.55 4.5 56.35 3.6 61.25 2.5 63.65 2.6 L69.0 3.15 Q72.05 3.7 77.5 6.1 L79.0 6.55 76.75 6.55 74.55 6.65 69.65 7.55 Q64.95 7.55 61.9 8.75 L62.35 8.4 61.8 8.6 Q58.75 9.8 57.65 11.8 56.35 14.2 56.8 16.45 57.1 18.75 59.1 23.35 61.15 27.9 63.35 31.2 65.75 41.55 54.4 32.25 L54.4 32.15 54.3 32.15 51.35 32.6 Q45.55 21.5 48.5 9.15"/><path fill="#e2d89e" stroke="none" d="M79.0 6.55 L82.2 6.55 84.35 6.55 81.55 8.85 78.05 11.9 Q77.05 13.65 81.2 15.5 L87.55 18.75 70.75 30.1 Q66.05 29.65 69.65 25.85 L78.25 18.45 Q73.8 16.45 60.5 19.1 L71.5 11.9 Q77.4 8.85 69.65 7.55 L74.55 6.65 76.75 6.55 79.0 6.55"/><path fill="#f1eccf" stroke="none" d="M84.35 6.55 L84.45 6.55 84.6 6.55 84.8 6.55 Q93.0 5.8 97.0 6.85 102.0 7.95 106.7 12.75 111.85 17.9 112.4 26.3 112.7 30.65 112.05 34.45 L112.05 34.65 112.05 34.9 112.5 38.15 112.5 38.5 Q107.6 58.1 106.95 42.3 106.95 34.8 104.75 37.4 L102.0 40.75 101.9 41.1 101.7 41.3 100.15 43.7 Q98.55 46.55 94.95 49.6 91.55 52.55 95.5 32.8 81.85 44.5 80.45 42.3 78.9 40.0 79.8 37.6 80.75 35.1 85.55 25.1 L73.35 29.85 71.85 30.2 70.75 30.1 87.55 18.75 81.2 15.5 Q77.05 13.65 78.05 11.9 L81.55 8.85 84.35 6.55"/><path fill="#b80101" stroke="none" d="M71.85 30.2 L73.35 29.85 85.55 25.1 Q80.75 35.1 79.8 37.6 78.9 40.0 80.45 42.3 81.85 44.5 95.5 32.8 91.55 52.55 94.95 49.6 98.55 46.55 100.15 43.7 L101.7 41.3 101.8 41.3 101.9 41.1 102.0 40.75 104.75 37.4 Q106.95 34.8 106.95 42.3 107.6 58.1 112.5 38.5 L112.6 38.5 112.6 38.8 Q113.7 49.6 112.4 51.25 L111.85 52.2 110.4 53.85 Q109.55 54.85 107.35 55.8 105.2 56.8 100.7 57.25 L92.2 55.05 Q84.8 52.75 79.35 48.3 73.9 43.85 71.95 41.65 70.1 39.6 68.1 36.75 L68.0 36.5 Q67.45 34.65 69.85 31.75 L71.85 30.2 M110.85 51.15 L111.4 51.8 110.85 51.0 110.85 51.15"/><path stroke="none" fill="url(#gradient3)" d="M101.7 41.3 L101.9 41.1 101.8 41.3 101.7 41.3"/><path fill="#b10101" stroke="none" d="M112.05 34.9 L116.1 41.65 117.2 44.5 117.95 46.9 118.25 48.3 Q118.5 48.75 118.4 50.5 L118.15 54.2 118.25 54.4 118.15 54.4 118.05 54.75 118.05 54.85 117.95 55.5 117.85 56.15 117.7 56.25 Q117.95 56.25 117.6 57.15 L117.7 57.25 115.65 59.4 Q112.95 61.8 108.45 62.45 L100.6 62.15 98.3 59.4 99.65 62.6 89.7 59.75 89.7 59.65 Q84.35 57.35 82.1 55.8 L77.5 52.45 77.4 52.35 77.3 52.35 77.15 52.1 71.95 47.55 Q73.9 53.0 65.75 45.55 58.1 38.5 54.4 32.25 65.75 41.55 63.35 31.2 L63.65 31.6 63.85 31.95 67.9 36.5 68.1 36.75 Q70.1 39.6 71.95 41.65 73.9 43.85 79.35 48.3 84.8 52.75 92.2 55.05 L100.7 57.25 Q105.2 56.8 107.35 55.8 109.55 54.85 110.4 53.85 L111.85 52.2 112.4 51.25 Q113.7 49.6 112.6 38.8 L112.6 38.5 112.05 34.9"/><path fill="#555d6b" stroke="none" d="M112.5 38.5 L112.5 38.15 112.6 38.5 112.5 38.5"/><path fill="#78818a" stroke="none" d="M118.15 54.2 L118.25 54.2 118.25 54.4 118.15 54.2 M117.6 57.15 L117.7 57.15 117.7 57.25 117.6 57.15 M112.5 38.15 L112.05 34.9 112.6 38.5 112.5 38.15 M110.85 51.15 L110.85 51.0 111.4 51.8 110.85 51.15 M89.7 59.65 L89.7 59.75 89.4 59.65 89.7 59.65 M57.75 41.85 L58.0 42.2 57.9 42.2 57.75 41.85"/><path fill="#d20202" stroke="none" d="M117.7 57.25 L116.95 59.3 116.1 61.8 Q114.65 64.3 112.15 66.3 L111.4 66.85 Q109.2 68.25 106.3 68.8 L106.3 68.9 100.6 62.15 108.45 62.45 Q112.95 61.8 115.65 59.4 L117.7 57.25 M101.5 67.6 L101.9 68.8 Q93.4 68.25 89.15 66.4 85.45 64.75 80.2 62.05 L78.35 60.7 76.1 59.0 74.45 57.55 73.7 56.9 Q64.0 49.05 58.0 42.2 L57.75 41.85 57.65 41.75 54.7 37.7 54.5 37.3 53.75 36.1 52.95 35.1 52.75 34.9 52.3 34.35 51.35 32.6 54.3 32.15 54.4 32.25 Q58.1 38.5 65.75 45.55 73.9 53.0 71.95 47.55 L77.15 52.1 77.3 52.35 77.4 52.35 77.5 52.45 82.1 55.8 Q84.35 57.35 89.7 59.65 L89.4 59.65 89.7 59.75 99.65 62.6 101.5 67.6"/><path fill="#6d0101" stroke="none" d="M104.65 71.95 L104.55 71.95 101.5 67.6 99.65 62.6 98.3 59.4 100.6 62.15 106.3 68.9 106.05 69.45 104.65 71.95 M73.55 61.9 L73.45 61.9 Q71.95 60.7 71.05 60.05 L66.6 56.45 Q53.2 45.05 47.65 31.85 46.85 30.3 48.3 27.6 47.65 26.3 44.15 25.75 43.4 15.8 45.25 12.85 47.0 10.15 48.5 9.15 45.55 21.5 51.35 32.6 L52.3 34.35 52.75 34.9 52.95 35.1 53.1 35.55 54.5 37.3 54.7 37.7 57.65 41.75 57.75 41.85 57.9 42.2 58.0 42.2 Q64.0 49.05 73.7 56.9 L74.45 62.45 73.9 62.15 73.55 61.9"/><path fill="#a00101" stroke="none" d="M116.1 61.8 Q114.45 66.05 112.95 68.15 L112.4 68.7 Q110.0 71.5 104.65 71.95 L106.05 69.45 106.3 68.9 106.3 68.8 Q109.2 68.25 111.4 66.85 L112.15 66.3 Q114.65 64.3 116.1 61.8 M101.9 68.8 L102.15 68.9 102.15 69.25 Q101.8 71.1 100.6 72.4 L93.75 71.2 Q87.2 69.55 80.65 66.15 L77.5 64.45 77.5 64.2 77.4 64.3 77.4 64.45 74.45 62.6 74.45 62.45 73.7 56.9 74.45 57.55 76.1 59.0 78.35 60.7 80.2 62.05 Q85.45 64.75 89.15 66.4 93.4 68.25 101.9 68.8 M63.35 31.2 Q61.15 27.9 59.1 23.35 57.1 18.75 56.8 16.45 56.35 14.2 57.65 11.8 58.75 9.8 61.8 8.6 L61.9 8.75 Q64.95 7.55 69.65 7.55 77.4 8.85 71.5 11.9 L60.5 19.1 Q73.8 16.45 78.25 18.45 L69.65 25.85 Q66.05 29.65 70.75 30.1 L71.85 30.2 69.85 31.75 Q67.45 34.65 68.0 36.5 L67.9 36.5 63.85 31.95 63.65 31.6 63.35 31.2"/><path fill="#909aa6" stroke="none" d="M54.3 32.15 L54.4 32.15 54.4 32.25 54.3 32.15 M104.85 72.15 Q104.65 72.4 104.55 72.3 L104.55 72.05 104.65 72.05 104.85 72.15 M52.95 35.1 L53.75 36.1 54.5 37.3 53.1 35.55 52.95 35.1"/><path fill="#363d49" stroke="none" d="M77.5 64.45 L77.4 64.45 77.4 64.3 77.5 64.45 M74.45 62.6 L74.1 62.35 73.9 62.15 73.8 62.15 73.55 61.9 73.9 62.15 74.45 62.45 74.45 62.6"/><path fill="#515868" stroke="none" d="M61.8 8.6 L62.35 8.4 61.9 8.75 61.8 8.6 M68.1 36.75 L67.9 36.5 68.0 36.5 68.1 36.75"/><path fill="none" stroke="#000000" stroke-width="0.5" stroke-opacity="0.4" d="M48.5 9.15 L48.4 8.95 Q51.55 4.5 56.35 3.6 61.25 2.5 63.65 2.6 L69.0 3.15 Q72.05 3.7 77.5 6.1 L79.0 6.55 M82.2 6.55 L84.35 6.55 84.45 6.55 M84.6 6.55 L84.8 6.55 Q93.0 5.8 97.0 6.85 102.0 7.95 106.7 12.75 111.85 17.9 112.4 26.3 112.7 30.65 112.05 34.45 M112.05 34.9 L116.1 41.65 M117.95 55.5 L117.85 56.15 M117.6 57.15 L117.7 57.15 117.7 57.25 116.95 59.3 116.1 61.8 Q114.45 66.05 112.95 68.15 L112.4 68.7 Q110.0 71.5 104.65 71.95 L104.55 71.95 101.5 67.6 M101.9 68.8 L102.15 68.9 102.15 69.25 Q101.8 71.1 100.6 72.4 L93.75 71.2 Q87.2 69.55 80.65 66.15 L77.5 64.45 77.4 64.45 74.45 62.6 74.1 62.35 73.9 62.15 73.8 62.15 73.55 61.9 73.45 61.9 Q71.95 60.7 71.05 60.05 L66.6 56.45 Q53.2 45.05 47.65 31.85 46.85 30.3 48.3 27.6 47.65 26.3 44.15 25.75 43.4 15.8 45.25 12.85 47.0 10.15 48.5 9.15 M77.4 64.3 L77.5 64.2 77.5 64.45 77.4 64.3 M74.45 57.55 L76.1 59.0 M74.45 62.45 L73.9 62.15"/><path fill="none" stroke="#000000" stroke-width="0.5" stroke-opacity="0.250980392157" d="M79.0 6.55 L82.2 6.55 M112.05 34.45 L112.05 34.65 112.05 34.9 112.6 38.5 112.6 38.8 Q113.7 49.6 112.4 51.25 M116.1 41.65 L117.2 44.5 117.95 46.9 118.25 48.3 Q118.5 48.75 118.4 50.5 L118.15 54.2 118.25 54.4 118.15 54.4 118.05 54.75 118.05 54.85 117.95 55.5 M117.85 56.15 L117.7 56.25 Q117.95 56.25 117.6 57.15 M101.5 67.6 L101.9 68.8 M69.65 7.55 L74.55 6.65 76.75 6.55 79.0 6.55 M112.5 38.15 L112.05 34.9 M112.6 38.5 L112.5 38.15 M98.3 59.4 L99.65 62.6 101.5 67.6 M54.4 32.25 L54.3 32.15 M76.1 59.0 L78.35 60.7 M52.3 34.35 L52.75 34.9 M52.95 35.1 L53.75 36.1 54.5 37.3 54.7 37.7 M57.65 41.75 L57.75 41.85 58.0 42.2 Q64.0 49.05 73.7 56.9 L74.45 57.55 M57.75 41.85 L57.9 42.2 58.0 42.2"/><path fill="none" stroke="#000000" stroke-width="0.5" stroke-opacity="0.250980392157" d="M101.7 41.3 L101.9 41.1 101.8 41.3 101.7 41.3 M73.35 29.85 L71.85 30.2 71.3 30.2"/><path fill="#fcf3d8" fill-opacity="0.301960784314" d="M26.8 80.65 Q26.85 81.9 25.9 82.85 25.0 83.8 23.7 83.8 22.45 83.8 21.5 82.9 20.55 81.95 20.55 80.7 20.55 79.4 21.45 78.45 22.4 77.5 23.65 77.6 24.95 77.5 25.9 78.45 26.85 79.35 26.8 80.65 M28.5 84.8 Q30.3 82.95 30.35 80.3 30.35 77.75 28.45 75.9 27.35 74.8 25.85 74.3 23.8 72.3 23.55 68.45 23.65 73.0 22.0 74.35 20.65 74.85 19.6 75.9 17.7 77.75 17.7 80.35 17.65 82.8 19.35 84.7 L19.5 84.85 18.8 87.25 20.9 85.9 Q22.3 86.65 23.95 86.7 25.65 86.7 27.05 85.85 L31.2 88.75 28.5 84.8"/><path fill="#fcf3d8" stroke="none" d="M26.8 80.65 Q26.85 79.35 25.9 78.45 24.95 77.5 23.65 77.6 22.4 77.5 21.45 78.45 20.55 79.4 20.55 80.7 20.55 81.95 21.5 82.9 22.45 83.8 23.7 83.8 25.0 83.8 25.9 82.85 26.85 81.9 26.8 80.65"/><path fill="#fcf3d8" stroke="none" d="M23.65 78.5 L31.4 72.85 24.85 79.6 27.05 86.25 22.9 81.8 10.9 90.8 21.6 79.9 10.45 58.9 23.65 78.5"/><path stroke="none" fill="url(#gradient4)" d="M27.0 94.75 Q27.1 92.35 28.85 90.55 30.65 88.85 33.15 88.95 35.65 89.05 37.3 90.85 39.05 92.65 38.9 95.15 38.9 97.6 37.05 99.35 35.25 100.95 32.85 100.95 30.3 100.75 28.6 99.0 26.95 97.2 27.0 94.75 M30.55 94.95 Q30.55 95.9 31.25 96.5 32.0 97.3 32.9 97.35 33.9 97.4 34.6 96.75 35.4 96.0 35.35 94.9 35.35 93.95 34.65 93.25 34.0 92.6 33.0 92.6 32.0 92.55 31.3 93.15 30.6 93.9 30.55 94.95"/><path fill="#ffffff" stroke="none" d="M30.55 94.95 Q30.6 93.9 31.3 93.15 32.0 92.55 33.0 92.6 34.0 92.6 34.65 93.25 35.35 93.95 35.35 94.9 35.4 96.0 34.6 96.75 33.9 97.4 32.9 97.35 32.0 97.3 31.25 96.5 30.55 95.9 30.55 94.95"/><path stroke="none" fill="url(#gradient5)" d="M45.05 80.65 Q45.0 82.55 46.35 83.85 47.85 85.35 49.7 85.4 51.7 85.5 53.2 84.15 54.7 82.8 54.55 80.55 54.65 78.65 53.2 77.25 51.95 76.0 49.9 75.95 47.9 75.85 46.45 77.05 45.15 78.55 45.05 80.65 M38.0 80.25 Q38.15 75.5 41.6 71.9 45.2 68.6 50.3 68.75 55.2 68.95 58.45 72.55 61.95 76.1 61.65 81.0 61.65 86.0 58.0 89.45 54.45 92.7 49.55 92.6 44.5 92.3 41.2 88.65 37.8 85.2 38.0 80.25"/><path fill="#ffffff" stroke="none" d="M45.05 80.65 Q45.15 78.55 46.45 77.05 47.9 75.85 49.9 75.95 51.95 76.0 53.2 77.25 54.65 78.65 54.55 80.55 54.7 82.8 53.2 84.15 51.7 85.5 49.7 85.4 47.85 85.35 46.35 83.85 45.0 82.55 45.05 80.65"/><path stroke="none" fill="url(#gradient6)" d="M73.95 75.9 Q73.95 76.85 74.65 77.45 75.4 78.25 76.3 78.3 77.3 78.35 78.0 77.7 78.8 76.95 78.75 75.85 78.75 74.9 78.05 74.2 77.4 73.55 76.4 73.55 75.4 73.5 74.7 74.1 74.0 74.85 73.95 75.9 M70.4 75.7 Q70.5 73.3 72.25 71.5 74.05 69.8 76.55 69.9 79.05 70.0 80.7 71.8 82.45 73.6 82.3 76.1 82.3 78.55 80.45 80.3 78.65 81.9 76.25 81.9 73.7 81.7 72.0 79.95 70.35 78.15 70.4 75.7"/><path fill="#ffffff" stroke="none" d="M73.95 75.9 Q74.0 74.85 74.7 74.1 75.4 73.5 76.4 73.55 77.4 73.55 78.05 74.2 78.75 74.9 78.75 75.85 78.8 76.95 78.0 77.7 77.3 78.35 76.3 78.3 75.4 78.25 74.65 77.45 73.95 76.85 73.95 75.9"/><path stroke="none" fill="url(#gradient7)" d="M81.45 42.8 Q81.55 40.4 83.3 38.6 85.1 36.9 87.6 37.0 90.1 37.1 91.75 38.9 93.5 40.7 93.35 43.2 93.35 45.65 91.5 47.4 89.7 49.0 87.3 49.0 84.75 48.8 83.05 47.05 81.4 45.25 81.45 42.8 M85.0 43.0 Q85.0 43.95 85.7 44.55 86.45 45.35 87.35 45.4 88.35 45.45 89.05 44.8 89.85 44.05 89.8 42.95 89.8 42.0 89.1 41.3 88.45 40.65 87.45 40.65 86.45 40.6 85.75 41.2 85.05 41.95 85.0 43.0"/><path fill="#ffffff" stroke="none" d="M85.0 43.0 Q85.05 41.95 85.75 41.2 86.45 40.6 87.45 40.65 88.45 40.65 89.1 41.3 89.8 42.0 89.8 42.95 89.85 44.05 89.05 44.8 88.35 45.45 87.35 45.4 86.45 45.35 85.7 44.55 85.0 43.95 85.0 43.0"/><path stroke="none" fill="url(#gradient8)" d="M88.2 66.6 Q88.1 68.25 89.3 69.35 90.65 70.7 92.2 70.7 94.0 70.8 95.3 69.65 96.65 68.45 96.55 66.55 96.6 64.85 95.35 63.6 94.25 62.55 92.45 62.45 90.7 62.35 89.4 63.4 88.3 64.75 88.2 66.6 M82.0 66.2 Q82.15 62.05 85.2 58.9 88.35 56.0 92.75 56.2 97.1 56.35 99.9 59.5 102.9 62.6 102.7 66.85 102.7 71.25 99.55 74.25 96.35 77.15 92.15 77.05 87.75 76.8 84.8 73.6 81.9 70.55 82.0 66.2"/><path fill="#ffffff" stroke="none" d="M88.2 66.6 Q88.3 64.75 89.4 63.4 90.7 62.35 92.45 62.45 94.25 62.55 95.35 63.6 96.6 64.85 96.55 66.55 96.65 68.45 95.3 69.65 94.0 70.8 92.2 70.7 90.65 70.7 89.3 69.35 88.1 68.25 88.2 66.6"/><path stroke="none" fill="url(#gradient9)" d="M40.9 11.6 Q41.1 6.7 44.65 3.0 48.35 -0.4 53.55 -0.2 58.65 0.0 61.95 3.65 65.55 7.3 65.25 12.35 65.25 17.5 61.45 21.05 57.8 24.35 52.8 24.3 47.65 24.0 44.2 20.3 40.75 16.7 40.9 11.6 M48.2 12.0 Q48.1 14.0 49.5 15.3 51.05 16.85 52.95 16.9 55.0 16.95 56.55 15.65 58.05 14.2 57.95 11.9 58.05 9.95 56.55 8.55 55.25 7.25 53.2 7.15 51.1 7.1 49.6 8.3 48.3 9.8 48.2 12.0"/><path fill="#ffffff" stroke="none" d="M48.2 12.0 Q48.3 9.8 49.6 8.3 51.1 7.1 53.2 7.15 55.25 7.25 56.55 8.55 58.05 9.95 57.95 11.9 58.05 14.2 56.55 15.65 55.0 16.95 52.95 16.9 51.05 16.85 49.5 15.3 48.1 14.0 48.2 12.0"/></g><g id="c11"><g><use transform="matrix(1.0,0.0,0.0,1.0,0.0,0.0)" xlink:href="#c10"/></g></g><g id="c12"><g><use transform="matrix(1.0,0.0,0.0,1.0,6.3,53.35)" xlink:href="#c9"/></g><g><use transform="matrix(-0.146041870117,0.0488891601562,0.0616760253906,0.140441894531,33.05,63.95)" xlink:href="#c11"/></g><g><use transform="matrix(0.141098022461,-0.0378112792969,0.111373901367,0.225646972656,27.2,74.05)" filter="url(#filter12)" xlink:href="#c6"/></g></g><filter id="filter12"><feColorMatrix in="SourceGraphic" type="matrix" values="1.0 0.0 0.0 0.0 0.0 0.0 1.0 0.0 0.0 0.0 0.0 0.0 1.0 0.0 0.0 0.0 0.0 0.0 0.23046875 0.0" result="cxform"/><feComposite operator="in" in2="SourceGraphic" result="color-xform"/></filter></defs><g><g><use transform="matrix(1.0,0.0,0.0,1.0,0.0,0.0)" xlink:href="#c1"/></g><g><use transform="matrix(1.15496826172,0.0,0.0,1.15496826172,-1.5,-57.15)" xlink:href="#c12"/></g></g></svg>