<?xml version='1.0' encoding='UTF-8'?>
<svg xmlns:xlink="http://www.w3.org/1999/xlink" xmlns="http://www.w3.org/2000/svg" version="1.1" width="60px" height="60px" viewBox="0.0 0.0 60.0 60.0"><defs><g id="c1"><path fill="#000000" fill-opacity="0.00392156862745" d="M0.0 0.0 L60.0 0.0 60.0 60.0 0.0 60.0 0.0 0.0"/></g><g id="c2"><path fill="#006699" stroke="none" d="M31.5 39.85 L19.8 43.65 Q17.15 44.45 15.5 43.3 14.35 42.55 13.65 40.9 L1.7 14.45 1.6 14.3 1.2 13.45 -0.75 9.05 Q-2.05 6.2 -0.3 4.75 0.3 4.25 1.2 3.9 L5.5 2.25 Q8.95 0.95 10.65 4.15 L22.3 0.4 Q26.55 -1.0 28.45 3.1 L40.55 29.95 40.9 30.7 42.95 35.15 Q43.95 37.35 43.15 38.7 42.5 39.7 40.95 40.25 L36.65 41.8 35.1 42.2 Q32.75 42.3 31.5 39.85"/><path fill="none" stroke="#000000" stroke-width="1.0" stroke-opacity="0.298039215686" d="M31.5 39.85 L19.8 43.65 Q17.15 44.45 15.5 43.3 14.35 42.55 13.65 40.9 L1.7 14.45 1.6 14.3 1.2 13.45 -0.75 9.05 Q-2.05 6.2 -0.3 4.75 0.3 4.25 1.2 3.9 L5.5 2.25 Q8.95 0.95 10.65 4.15 L22.3 0.4 Q26.55 -1.0 28.45 3.1 L40.55 29.95 40.9 30.7 42.95 35.15 Q43.95 37.35 43.15 38.7 42.5 39.7 40.95 40.25 L36.65 41.8 35.1 42.2 Q32.75 42.3 31.5 39.85"/><path fill="#300525" stroke="none" d="M0.75 8.25 L29.8 9.75 25.55 0.9 Q26.9 1.6 27.8 3.55 L40.7 32.15 Q42.6 36.3 38.3 37.65 L23.3 42.5 13.15 21.4 4.6 20.9 0.7 12.25 Q-0.45 9.75 0.75 8.25 M20.1 43.55 L19.8 43.65 Q17.15 44.45 15.5 43.3 L20.1 43.55"/><path fill="#630a4c" stroke="none" d="M25.55 0.9 L29.8 9.75 0.75 8.25 Q1.45 7.3 3.1 6.75 L21.65 0.8 25.55 0.9 M4.6 20.9 L13.15 21.4 23.3 42.5 20.1 43.55 15.5 43.3 Q14.35 42.55 13.65 40.9 L4.6 20.9"/><path fill="none" stroke="#000000" stroke-width="0.5" stroke-opacity="0.301960784314" d="M0.75 8.25 Q-0.45 9.75 0.7 12.25 L4.6 20.9 M23.3 42.5 L38.3 37.65 Q42.6 36.3 40.7 32.15 L27.8 3.55 Q26.9 1.6 25.55 0.9 L21.65 0.8 3.1 6.75 Q1.45 7.3 0.75 8.25 M20.1 43.55 L19.8 43.65 Q17.15 44.45 15.5 43.3 14.35 42.55 13.65 40.9 L4.6 20.9 M20.1 43.55 L23.3 42.5"/><path fill="#9d147b" stroke="none" d="M14.2 40.5 L1.35 11.8 Q-0.5 7.75 3.8 6.35 L22.3 0.4 Q26.55 -1.0 28.45 3.1 L41.35 31.7 Q43.25 35.85 38.9 37.25 L20.4 43.2 Q16.1 44.55 14.2 40.5"/><path fill="none" stroke="#000000" stroke-width="0.5" stroke-opacity="0.301960784314" d="M14.2 40.5 L1.35 11.8 Q-0.5 7.75 3.8 6.35 L22.3 0.4 Q26.55 -1.0 28.45 3.1 L41.35 31.7 Q43.25 35.85 38.9 37.25 L20.4 43.2 Q16.1 44.55 14.2 40.5"/><path fill="#9d147b" stroke="none" d="M31.4 39.65 L31.3 39.45 31.25 39.4 29.25 34.95 Q27.55 31.2 31.25 29.85 L35.6 28.25 Q38.8 27.1 40.5 29.85 L40.9 30.7 42.95 35.15 Q43.95 37.35 43.15 38.7 42.5 39.45 41.2 39.9 L36.9 41.45 34.85 41.85 Q32.9 41.7 31.75 39.5 L31.4 39.65"/><path fill="#630a4c" stroke="none" d="M43.15 38.7 Q42.5 39.7 40.95 40.25 L36.65 41.8 35.1 42.2 Q32.75 42.3 31.45 39.8 L31.4 39.65 31.75 39.5 Q32.9 41.7 34.85 41.85 L36.9 41.45 41.2 39.9 Q42.5 39.45 43.15 38.7"/><path fill="none" stroke="#003333" stroke-width="0.5" stroke-opacity="0.509803921569" d="M43.15 38.7 Q42.5 39.7 40.95 40.25 L36.65 41.8 35.1 42.2 Q32.75 42.3 31.45 39.8 L31.4 39.65 30.3 40.0 31.4 39.65 M40.5 29.85 L40.9 30.7 42.95 35.15 Q43.95 37.35 43.15 38.7 42.5 39.45 41.2 39.9 L36.9 41.45 34.85 41.85 Q32.9 41.7 31.75 39.5 L31.4 39.65"/><path fill="#9d147b" stroke="none" d="M10.65 4.2 L10.85 4.6 12.85 9.05 Q14.5 12.8 10.8 14.15 L6.5 15.8 Q4.5 16.6 3.1 15.8 L1.75 12.85 -0.2 8.45 Q-1.25 6.15 -0.3 4.75 0.3 4.25 1.2 3.9 L5.5 2.25 Q9.0 0.95 10.65 4.2"/><path fill="#300525" stroke="none" d="M-0.3 4.75 Q-1.25 6.15 -0.2 8.45 L1.75 12.85 3.1 15.8 Q2.25 15.35 1.6 14.3 L1.2 13.45 -0.75 9.05 Q-2.05 6.2 -0.3 4.75"/><path fill="none" stroke="#003333" stroke-width="0.5" stroke-opacity="0.509803921569" d="M3.1 15.8 L6.45 23.15 M-0.3 4.75 Q0.3 4.25 1.2 3.9 L5.5 2.25 Q9.0 0.95 10.65 4.2 M3.1 15.8 L1.75 12.85 -0.2 8.45 Q-1.25 6.15 -0.3 4.75 -2.05 6.2 -0.75 9.05 L1.2 13.45 1.6 14.3"/><path fill="#fcf2cf" stroke="none" d="M9.15 13.6 Q9.8 12.8 9.55 11.6 L9.1 10.55 22.05 6.35 Q24.9 5.45 26.25 7.85 L26.5 8.3 35.8 29.0 35.95 29.35 Q34.75 29.3 34.1 30.1 33.45 30.9 33.7 32.1 L34.0 32.9 20.65 37.2 Q18.8 37.8 17.65 37.0 16.8 36.4 16.3 35.2 L6.95 14.6 6.8 14.4 7.1 14.4 Q8.4 14.45 9.15 13.6"/><path fill="#c47fad" stroke="none" d="M9.15 13.6 Q8.4 14.45 7.1 14.4 L6.8 14.4 6.95 14.6 16.3 35.2 Q16.8 36.4 17.65 37.0 18.8 37.8 20.65 37.2 L34.0 32.9 33.7 32.1 Q33.45 30.9 34.1 30.1 34.75 29.3 35.95 29.35 L35.8 29.0 26.5 8.3 26.25 7.85 Q24.9 5.45 22.05 6.35 L9.1 10.55 9.55 11.6 Q9.8 12.8 9.15 13.6 M28.25 6.1 L35.55 22.3 39.35 30.75 Q41.1 34.5 37.2 35.7 L20.45 41.1 Q16.8 42.25 15.2 39.0 L15.0 38.6 8.25 23.65 3.35 12.8 Q1.65 9.1 5.5 7.85 L22.25 2.5 Q26.05 1.25 27.75 4.95 L28.25 6.1"/><path fill="none" stroke="#ffcc00" stroke-width="1.0" stroke-opacity="0.749019607843" d="M35.55 22.3 L39.35 30.75 Q41.1 34.5 37.2 35.7 L20.45 41.1 Q16.8 42.25 15.2 39.0 L15.0 38.6 M8.25 23.65 L3.35 12.8 Q1.65 9.1 5.5 7.85 L22.25 2.5 Q26.05 1.25 27.75 4.95 L28.25 6.1"/><path fill="none" stroke="#bf9900" stroke-width="1.0" stroke-opacity="0.749019607843" d="M28.25 6.1 L35.55 22.3 M15.0 38.6 L8.25 23.65"/><path fill="none" stroke="#f0b92b" stroke-width="0.5" d="M9.15 13.6 Q9.8 12.8 9.55 11.6 L9.1 10.55 22.05 6.35 Q24.9 5.45 26.25 7.85 L26.5 8.3 35.8 29.0 35.95 29.35 Q34.75 29.3 34.1 30.1 33.45 30.9 33.7 32.1 L34.0 32.9 20.65 37.2 Q18.8 37.8 17.65 37.0 16.8 36.4 16.3 35.2 L6.95 14.6 6.8 14.4 7.1 14.4 Q8.4 14.45 9.15 13.6"/></g><g id="c3"><path fill="#7fdbfe" stroke="none" d="M10.75 4.9 Q10.75 4.6 10.9 4.35 11.25 3.45 11.95 2.75 13.3 1.5 14.35 2.1 15.4 2.7 14.95 4.45 14.7 5.4 14.1 6.15 L13.75 6.5 Q13.1 7.15 12.35 7.35 L11.4 7.2 Q10.95 6.9 10.75 6.4 10.5 5.75 10.75 4.9 M7.5 5.9 Q7.0 5.85 6.6 5.5 6.05 5.0 5.8 4.15 L5.7 3.6 Q5.55 2.65 5.8 1.7 6.25 0.0 7.5 0.0 L7.6 0.0 Q8.85 0.0 9.3 1.7 9.55 2.65 9.4 3.6 L9.3 4.15 8.5 5.5 7.6 5.9 7.5 5.9 M4.35 4.9 Q4.6 5.75 4.35 6.4 L3.7 7.2 2.75 7.35 Q2.0 7.15 1.35 6.5 L1.0 6.15 Q0.4 5.4 0.15 4.45 -0.3 2.7 0.75 2.1 1.8 1.5 3.15 2.75 3.85 3.45 4.2 4.35 L4.35 4.9 M5.5 13.7 Q4.45 13.9 3.65 12.95 2.75 12.0 3.2 10.25 3.7 8.5 5.25 7.6 6.4 6.9 7.55 7.0 8.75 6.9 9.9 7.6 11.45 8.5 11.95 10.25 12.35 12.0 11.5 12.95 10.7 13.9 9.65 13.7 8.55 13.5 7.55 12.6 6.55 13.5 5.5 13.7"/></g><g id="c4"><g><use transform="matrix(1.0,0.0,0.0,1.0,0.0,0.0)" xlink:href="#c3"/></g></g><radialGradient gradientUnits="userSpaceOnUse" r="819.2" cx="0" cy="0" spreadMethod="pad" gradientTransform="matrix(0.0914459228516,0.0,0.0,0.0914459228516,0.6,3.4)" id="gradient1"><stop offset="0.0" stop-color="#ffffff"/><stop offset="1.0" stop-color="#ffffff" stop-opacity="0.0"/></radialGradient><g id="c5"><path stroke="none" fill="url(#gradient1)" d="M36.65 -54.65 Q60.05 -42.0 69.75 -17.95 80.55 8.9 68.0 34.1 55.45 59.35 26.8 68.2 -1.8 77.05 -29.7 64.3 -57.6 51.6 -68.45 24.75 -79.3 -2.05 -66.75 -27.25 L-66.7 -27.3 Q-54.1 -52.5 -25.5 -61.4 3.1 -70.2 31.0 -57.5 L36.65 -54.65"/></g><g id="c6"><g><use transform="matrix(1.0,0.0,0.0,1.0,0.0,0.0)" xlink:href="#c5"/></g></g><radialGradient gradientUnits="userSpaceOnUse" r="819.2" cx="0" cy="0" spreadMethod="pad" gradientTransform="matrix(0.209197998047,0.0,0.0,0.177108764648,67.15,107.2)" id="gradient2"><stop offset="0.356862745098" stop-color="#ffffff"/><stop offset="0.670588235294" stop-opacity="0.0"/></radialGradient><g id="c7"><path fill="none" stroke-linejoin="round" stroke-linecap="round" stroke="url(#gradient2)" stroke-width="0.5" d="M136.55 165.8 L68.6 106.0 68.4 106.0 118.25 201.5 M68.3 105.8 L68.35 105.8 68.3 105.8 68.3 105.85 68.4 106.0 68.3 106.0 86.55 211.5 M68.3 105.8 L68.3 105.85 68.3 106.0 68.15 105.95 18.25 151.55 M68.3 105.85 L68.25 105.85 68.3 106.0 50.0 193.2 M68.25 105.85 L68.15 105.95 0.05 97.7 M68.3 105.85 L68.25 105.8 68.25 105.85 M68.25 105.8 L68.2 105.7 0.0 45.7 M68.3 105.8 L68.25 105.75 68.25 105.8 M68.25 105.75 L68.2 105.7 18.25 10.05 M68.6 106.0 L68.35 105.8 118.25 60.15 M86.6 18.35 L68.3 105.8 M136.6 114.25 L68.6 106.0 M68.25 105.75 L49.95 0.05"/></g><g id="c8"><g><use transform="matrix(1.0,0.0,0.0,1.0,0.0,0.0)" xlink:href="#c7"/></g></g><g id="c9"><g><use transform="matrix(1.0,0.0,0.0,1.0,0.0,0.0)" xlink:href="#c2"/></g><g><use transform="matrix(0.238861083984,-0.0867004394531,0.10026550293,0.233917236328,34.25,31.15)" xlink:href="#c4"/></g><g><use transform="matrix(0.238861083984,-0.0867004394531,0.10026550293,0.233917236328,4.25,10.3)" xlink:href="#c4"/></g><g><use transform="matrix(0.141098022461,-0.0378112792969,0.111373901367,0.225646972656,20.25,20.65)" filter="url(#filter7)" xlink:href="#c6"/></g><g><use transform="matrix(-0.155029296875,0.0513153076172,0.0841827392578,0.147033691406,22.6,3.15)" filter="url(#filter8)" xlink:href="#c8"/></g></g><filter id="filter7"><feColorMatrix in="SourceGraphic" type="matrix" values="0.0 0.0 0.0 0.0 0.796875 0.0 0.0 0.0 0.0 0.59765625 0.0 0.0 0.0 0.0 0.19921875 0.0 0.0 0.0 1.0 0.0" result="cxform"/><feComposite operator="in" in2="SourceGraphic" result="color-xform"/></filter><filter id="filter8"><feColorMatrix in="SourceGraphic" type="matrix" values="0.0 0.0 0.0 0.0 0.99609375 0.0 0.0 0.0 0.0 0.99609375 0.0 0.0 0.0 0.0 0.99609375 0.0 0.0 0.0 1.0 0.0" result="cxform"/><feComposite operator="in" in2="SourceGraphic" result="color-xform"/></filter><g id="c10"><path fill="none" stroke="#000000" stroke-width="1.0" stroke-opacity="0.301960784314" d="M88.25 -0.95 Q88.95 -3.7 86.6 -5.45 L85.65 -6.15 84.75 -6.55 Q81.4 -7.85 79.4 -5.35 79.05 0.1 77.85 5.55 76.55 11.6 74.1 17.75 68.1 17.6 61.05 19.4 53.15 22.2 46.55 27.45 L42.4 31.4 38.0 27.0 Q29.1 26.95 22.7 33.3 L22.05 34.9 21.9 34.9 Q17.0 45.0 17.4 50.45 17.2 62.15 22.8 70.15 L22.3 72.15 21.75 75.0 15.0 74.65 12.7 70.45 12.5 70.45 Q10.2 70.0 8.55 71.25 L8.35 71.45 7.6 72.2 10.1 75.25 9.6 77.2 6.0 79.4 5.95 79.4 Q7.75 82.45 11.4 81.4 L14.2 78.65 20.7 80.5 19.45 86.85 10.5 88.8 7.15 85.3 7.0 85.35 Q4.65 85.6 3.4 87.1 L3.25 87.4 2.75 88.35 5.9 90.65 5.95 92.65 3.05 95.7 3.0 95.8 Q5.5 98.15 8.7 96.2 L10.75 92.85 18.25 92.95 16.2 103.35 16.35 103.3 16.05 104.1 16.05 104.35 16.0 104.45 Q15.65 106.1 16.5 108.1 L16.95 109.15 13.4 119.0 Q13.3 119.1 13.35 119.15 L13.35 119.2 13.25 119.3 13.15 119.55 Q12.95 120.1 13.2 120.65 L13.5 121.3 Q14.2 122.6 15.65 123.5 17.2 124.4 18.55 124.35 L19.15 124.3 19.45 124.2 19.95 123.95 20.35 123.55 20.45 123.45 20.45 123.4 20.55 123.35 24.35 116.4 25.8 117.2 26.5 117.6 22.9 123.75 22.85 123.9 22.85 123.95 22.75 124.0 22.6 124.25 Q22.35 124.75 22.55 125.3 L22.65 125.95 Q23.25 127.15 24.55 128.05 26.05 128.9 27.55 128.9 L28.15 128.85 28.5 128.75 29.05 128.55 29.6 128.15 29.65 128.1 29.7 128.05 29.75 127.95 36.3 119.9 38.35 119.7 39.2 119.45 39.85 119.15 40.95 118.65 41.15 118.55 41.15 118.6 41.65 118.4 42.25 118.05 42.7 117.8 Q47.3 115.4 52.1 111.45 L52.3 111.25 56.25 117.5 54.35 121.0 Q54.4 124.75 57.75 125.6 L57.75 125.55 58.85 121.45 60.6 120.5 64.25 122.05 64.75 121.1 64.9 120.8 Q65.5 118.9 64.55 116.85 L64.5 116.7 59.75 115.65 56.85 107.3 63.65 101.4 69.55 106.85 68.7 110.7 Q69.65 114.35 73.1 114.3 L73.15 114.25 73.15 110.05 74.55 108.65 78.5 109.15 78.75 108.15 78.8 107.8 Q78.95 105.8 77.45 104.05 L77.35 103.95 72.5 104.1 68.1 97.6 70.15 95.8 83.9 97.05 86.3 97.0 91.15 95.6 91.2 95.55 Q99.7 92.1 104.9 84.2 L106.1 82.15 Q108.5 70.75 108.6 62.0 107.15 54.85 101.95 50.7 102.7 42.55 99.65 34.5 97.0 29.15 93.4 25.5 98.85 20.25 104.75 16.3 109.45 13.2 114.45 10.95 116.05 8.2 113.7 5.55 L112.9 4.85 111.95 4.15 Q109.45 2.65 107.1 4.25 L88.1 21.4 Q84.75 19.4 80.85 18.5 L88.25 -0.95"/><path fill="#cac960" stroke="none" d="M22.25 75.0 L25.2 75.15 Q26.35 75.45 26.9 76.05 L21.2 75.8 22.25 75.0 M26.65 81.25 Q26.1 81.65 25.3 81.75 L17.35 79.5 17.9 78.9 14.0 77.8 10.8 80.75 10.8 80.7 Q8.1 80.55 9.15 77.55 L9.6 77.2 10.1 75.25 7.6 72.2 8.35 71.45 11.55 71.6 12.0 71.8 14.35 76.25 19.85 76.9 18.0 78.85 17.9 78.9 26.65 81.25 M22.35 87.05 L17.9 88.05 19.35 86.85 20.45 86.6 Q21.65 86.65 22.35 87.05 M3.25 87.4 Q5.15 86.55 6.4 86.75 L6.85 86.85 10.25 90.5 16.4 89.6 Q15.7 90.25 15.2 91.15 L14.6 92.1 10.4 92.15 8.1 95.75 8.0 95.75 Q5.3 96.25 5.6 93.15 L5.95 92.65 5.9 90.65 2.75 88.35 3.25 87.4 M14.2 92.85 L14.6 92.1 23.45 92.15 22.25 93.0 14.2 92.85"/><path fill="#ffffff" stroke="none" d="M8.35 71.45 L8.55 71.25 11.95 71.15 12.3 71.2 14.8 75.45 21.2 75.8 19.85 76.9 14.35 76.25 12.0 71.8 11.55 71.6 8.35 71.45 M3.4 87.1 Q5.15 86.25 6.65 86.2 L7.0 86.15 10.5 89.6 17.9 88.05 16.4 89.6 10.25 90.5 6.85 86.85 6.4 86.75 Q5.15 86.55 3.25 87.4 L3.4 87.1"/><path fill="#e6e4b3" stroke="none" d="M8.55 71.25 Q10.2 70.0 12.5 70.45 L12.7 70.45 15.0 74.65 22.25 75.0 21.2 75.8 14.8 75.45 12.3 71.2 11.95 71.15 8.55 71.25 M26.9 76.05 Q27.6 76.7 27.7 77.7 L19.85 76.9 21.2 75.8 26.9 76.05 M17.35 79.5 L14.2 78.65 11.4 81.4 Q7.75 82.45 5.95 79.4 L6.0 79.4 9.6 77.2 9.15 77.55 6.9 79.55 8.35 80.75 10.8 80.7 10.8 80.75 14.0 77.8 17.9 78.9 17.35 79.5 M19.35 86.85 L17.9 88.05 22.35 87.05 Q23.2 87.5 23.6 88.45 L16.4 89.6 17.9 88.05 10.5 89.6 7.0 86.15 6.65 86.2 Q5.15 86.25 3.4 87.1 4.65 85.6 7.0 85.35 L7.15 85.3 10.5 88.8 19.35 86.85 M5.95 92.65 L5.6 93.15 4.0 95.6 5.65 96.4 Q7.65 96.25 8.0 95.75 L8.1 95.75 10.4 92.15 14.6 92.1 14.2 92.85 10.75 92.85 8.7 96.2 Q5.5 98.15 3.0 95.8 L3.05 95.7 5.95 92.65"/><path fill="#b9b93e" stroke="none" d="M27.7 77.7 L27.7 78.6 Q27.5 80.45 26.65 81.25 L17.9 78.9 18.0 78.85 19.85 76.9 27.7 77.7 M16.4 89.6 L23.6 88.45 23.8 89.3 Q24.05 91.2 23.45 92.15 L14.6 92.1 15.2 91.15 Q15.7 90.25 16.4 89.6 M9.15 77.55 Q8.1 80.55 10.8 80.7 L8.35 80.75 6.9 79.55 9.15 77.55 M5.6 93.15 Q5.3 96.25 8.0 95.75 7.65 96.25 5.65 96.4 L4.0 95.6 5.6 93.15"/><path fill="none" stroke="#000000" stroke-width="0.5" stroke-opacity="0.301960784314" d="M8.55 71.25 Q10.2 70.0 12.5 70.45 L12.7 70.45 15.0 74.65 22.25 75.0 25.2 75.15 Q26.35 75.45 26.9 76.05 27.6 76.7 27.7 77.7 L27.7 78.6 Q27.5 80.45 26.65 81.25 26.1 81.65 25.3 81.75 L17.35 79.5 14.2 78.65 11.4 81.4 Q7.75 82.45 5.95 79.4 L5.9 79.4 6.0 79.4 9.6 77.2 10.1 75.25 7.6 72.2 8.35 71.45 8.55 71.25 M22.35 87.05 Q21.65 86.65 20.45 86.6 L19.35 86.85 10.5 88.8 7.15 85.3 7.0 85.35 Q4.65 85.6 3.4 87.1 M23.6 88.45 Q23.2 87.5 22.35 87.05 M3.25 87.4 L3.4 87.1 M3.25 87.4 L2.75 88.35 5.9 90.65 5.95 92.65 M14.2 92.85 L10.75 92.85 8.7 96.2 Q5.5 98.15 3.0 95.8 L3.0 95.7 3.05 95.7 5.95 92.65 M14.2 92.85 L22.25 93.0 23.45 92.15 M23.6 88.45 L23.8 89.3 Q24.05 91.2 23.45 92.15"/><path fill="#ffffff" stroke="none" d="M73.4 22.35 L72.35 21.75 Q76.05 13.55 77.85 5.55 79.05 0.05 79.35 -5.4 81.4 -7.85 84.75 -6.6 L85.65 -6.15 Q84.45 -0.25 82.55 5.55 80.0 13.2 76.25 20.8 81.95 7.85 83.85 -1.05 85.25 -6.0 81.9 -6.2 L80.5 -4.85 Q80.0 0.65 79.0 5.55 77.1 15.1 73.4 22.35"/><path fill="#e6e4b3" stroke="none" d="M73.4 22.35 Q77.1 15.1 79.0 5.55 80.0 0.65 80.5 -4.85 L81.9 -6.2 Q85.25 -6.0 83.85 -1.05 81.95 7.85 76.25 20.8 L75.05 23.3 73.4 22.35 M86.6 -5.45 Q88.95 -3.75 88.25 -1.0 L78.25 25.1 76.7 24.15 Q81.15 13.35 83.75 5.5 85.85 -1.05 86.6 -5.45"/><path fill="#b9b93e" stroke="none" d="M76.25 20.8 Q80.0 13.2 82.55 5.55 84.45 -0.25 85.65 -6.15 L86.6 -5.45 Q85.85 -1.05 83.75 5.5 81.15 13.35 76.7 24.15 L75.05 23.3 76.25 20.8"/><path fill="none" stroke="#000000" stroke-width="0.5" stroke-opacity="0.301960784314" d="M85.65 -6.15 L84.75 -6.6 Q81.4 -7.85 79.35 -5.4 79.05 0.05 77.85 5.55 76.05 13.55 72.35 21.75 L73.4 22.35 M85.65 -6.15 L86.6 -5.45 Q88.95 -3.75 88.25 -1.0 L78.25 25.1 76.7 24.15 75.05 23.3 73.4 22.35"/><path fill="#e6e4b3" stroke="none" d="M113.65 5.55 Q115.95 8.2 114.45 10.95 109.45 13.2 104.75 16.3 97.9 20.8 91.6 27.2 L90.7 26.45 Q96.1 20.45 104.35 15.2 108.6 12.5 113.5 10.05 115.05 8.0 113.65 5.55 M87.8 24.05 L86.35 22.9 107.1 4.25 Q109.4 2.65 111.95 4.15 108.05 6.45 102.65 10.8 96.25 16.0 87.8 24.05"/><path fill="#ffffff" stroke="none" d="M89.2 25.25 L87.8 24.05 Q96.25 16.0 102.65 10.8 108.05 6.45 111.95 4.15 L112.9 4.85 Q107.85 8.05 103.1 11.95 95.85 17.8 89.2 25.25"/><path fill="#b9b93e" stroke="none" d="M112.9 4.85 L113.65 5.55 Q115.05 8.0 113.5 10.05 108.6 12.5 104.35 15.2 96.1 20.45 90.7 26.45 L89.2 25.25 Q95.85 17.8 103.1 11.95 107.85 8.05 112.9 4.85"/><path fill="none" stroke="#000000" stroke-width="0.5" stroke-opacity="0.301960784314" d="M112.9 4.85 L113.65 5.55 Q115.95 8.2 114.45 10.95 109.45 13.2 104.75 16.3 97.9 20.8 91.6 27.2 L90.7 26.45 89.2 25.25 87.8 24.05 86.35 22.9 107.1 4.25 Q109.4 2.65 111.95 4.15 L112.9 4.85"/><path fill="#d7f16b" stroke="none" d="M64.85 20.3 L61.65 21.05 Q54.3 23.5 48.4 28.45 41.1 34.35 35.65 43.85 L59.0 53.75 84.9 64.85 85.0 64.9 92.7 68.15 Q98.2 59.5 99.3 50.5 100.25 42.7 97.0 34.75 94.05 27.6 88.45 23.8 L84.2 21.5 84.05 21.45 Q82.15 20.6 81.4 20.5 87.9 23.8 82.3 32.85 77.2 39.75 72.6 43.65 90.75 23.15 75.95 19.5 L64.85 20.3 M32.7 44.3 Q38.5 34.0 46.45 27.6 53.0 22.3 60.85 19.55 88.4 12.45 99.5 34.5 102.7 43.05 101.7 51.55 100.5 61.35 94.45 70.7 L32.7 44.3"/><path fill="#75d74a" stroke="none" d="M59.0 53.75 L35.65 43.85 Q41.1 34.35 48.4 28.45 54.3 23.5 61.65 21.05 L64.85 20.3 Q55.25 23.6 51.35 29.8 47.35 36.15 51.35 43.05 58.1 50.55 66.4 47.45 L59.0 53.75 M88.45 23.8 Q94.05 27.6 97.0 34.75 100.25 42.7 99.3 50.5 98.2 59.5 92.7 68.15 L85.0 64.9 85.0 64.85 Q102.8 38.7 88.45 23.8"/><path fill="#9ae17b" stroke="none" d="M64.85 20.3 L75.95 19.5 Q90.75 23.15 72.6 43.65 69.35 46.25 66.4 47.45 58.1 50.55 51.35 43.05 47.35 36.15 51.35 29.8 55.25 23.6 64.85 20.3"/><path fill="#339328" stroke="none" d="M72.6 43.65 Q77.2 39.75 82.3 32.85 87.9 23.8 81.4 20.5 82.15 20.6 84.05 21.45 L84.2 21.5 88.45 23.8 Q102.8 38.7 85.0 64.85 L84.9 64.85 59.0 53.75 66.4 47.45 Q69.35 46.25 72.6 43.65"/><path fill="#f49302" stroke="none" d="M85.0 64.9 L84.9 64.85 85.0 64.85 85.0 64.9"/><path fill="none" stroke="#000000" stroke-width="0.5" stroke-opacity="0.301960784314" d="M32.7 44.3 Q38.5 34.0 46.45 27.6 53.0 22.3 60.85 19.55 88.4 12.45 99.5 34.5 102.7 43.05 101.7 51.55 100.5 61.35 94.45 70.7 L32.7 44.3"/><path fill="#ffffff" stroke="none" d="M79.95 45.6 Q86.15 41.9 84.35 38.05 L83.8 37.85 81.7 37.45 Q80.35 37.45 78.9 38.05 76.3 39.2 74.95 41.6 L74.35 43.05 Q74.05 43.75 74.05 44.4 73.95 45.35 74.25 46.25 74.9 48.5 77.2 49.3 79.5 50.15 82.05 49.0 84.7 47.9 86.05 45.5 87.4 43.15 86.7 40.8 86.4 39.75 85.65 38.95 85.6 40.35 84.75 41.8 83.4 44.2 80.75 45.3 L79.95 45.6 M82.2 36.7 L84.65 37.15 85.55 37.55 Q87.5 38.55 88.1 40.7 88.8 42.9 87.8 45.2 87.0 47.7 88.6 47.05 L88.5 47.25 87.1 49.2 Q87.25 46.95 85.7 48.25 84.45 49.6 82.6 50.3 79.6 51.65 76.9 50.7 74.15 49.75 73.35 47.05 72.9 45.35 73.4 43.55 L73.45 43.3 74.2 41.6 Q75.85 38.75 78.85 37.45 80.55 36.7 82.2 36.7"/><path fill="#e6e4b3" stroke="none" d="M74.05 44.4 Q74.05 43.75 74.35 43.05 L74.95 41.6 Q76.3 39.2 78.9 38.05 80.35 37.45 81.7 37.45 L83.8 37.85 84.35 38.05 Q86.15 41.9 79.95 45.6 L79.8 45.65 Q77.8 46.25 75.9 45.6 74.8 45.2 74.05 44.4 M88.1 40.7 Q87.5 38.55 85.55 37.55 L84.65 37.15 82.2 36.7 85.45 37.1 85.6 37.15 Q88.6 38.2 89.4 41.15 L89.6 41.95 Q89.2 42.8 88.1 40.7"/><path fill="#cac960" stroke="none" d="M79.95 45.6 L80.75 45.3 Q83.4 44.2 84.75 41.8 85.6 40.35 85.65 38.95 86.4 39.75 86.7 40.8 87.4 43.15 86.05 45.5 84.7 47.9 82.05 49.0 79.5 50.15 77.2 49.3 74.9 48.5 74.25 46.25 73.95 45.35 74.05 44.4 74.8 45.2 75.9 45.6 77.8 46.25 79.8 45.65 L79.95 45.6 M88.1 40.7 Q89.2 42.8 89.6 41.95 90.05 44.4 88.6 47.05 87.0 47.7 87.8 45.2 88.8 42.9 88.1 40.7 M73.45 43.3 L73.4 43.55 Q72.9 45.35 73.35 47.05 74.15 49.75 76.9 50.7 79.6 51.65 82.6 50.3 84.45 49.6 85.7 48.25 87.25 46.95 87.1 49.2 85.5 50.85 83.3 51.75 80.05 53.3 77.0 52.2 74.0 51.15 73.1 48.15 72.4 45.85 73.35 43.5 L73.45 43.3"/><path fill="none" stroke="#000000" stroke-width="0.5" stroke-opacity="0.301960784314" d="M89.6 41.95 L89.4 41.15 Q88.6 38.2 85.6 37.15 L85.45 37.1 82.2 36.7 Q80.55 36.7 78.85 37.45 75.85 38.75 74.2 41.6 L73.45 43.3 M87.1 49.2 L88.5 47.25 88.6 47.05 M87.1 49.2 Q85.5 50.85 83.3 51.75 80.05 53.3 77.0 52.2 74.0 51.15 73.1 48.15 72.4 45.85 73.35 43.5 L73.45 43.3 M89.6 41.95 Q90.05 44.4 88.6 47.05"/><path fill="#e6e4b3" stroke="none" d="M61.45 31.15 Q60.8 29.0 58.95 28.0 L58.1 27.65 55.85 27.3 58.85 27.6 59.0 27.65 Q61.85 28.65 62.65 31.55 L62.85 32.35 Q62.5 33.25 61.45 31.15 M48.6 35.3 Q48.55 34.65 48.8 33.9 L49.3 32.4 Q50.55 29.9 52.85 28.7 54.15 28.05 55.45 28.05 L57.35 28.35 57.85 28.55 Q59.7 32.4 54.1 36.3 L53.95 36.35 Q52.1 37.05 50.3 36.4 49.25 36.05 48.6 35.3"/><path fill="#ffffff" stroke="none" d="M55.85 27.3 L58.1 27.65 58.95 28.0 Q60.8 29.0 61.45 31.15 62.1 33.4 61.25 35.7 60.7 38.25 62.1 37.5 L62.0 37.75 60.8 39.8 Q60.85 37.5 59.45 38.9 58.35 40.25 56.7 41.05 53.95 42.5 51.4 41.6 48.8 40.7 48.05 37.95 47.55 36.25 47.95 34.4 L47.95 34.2 48.0 34.15 48.65 32.4 Q50.05 29.55 52.8 28.1 54.3 27.3 55.85 27.3 M54.1 36.3 Q59.7 32.4 57.85 28.55 L57.35 28.35 55.45 28.05 Q54.15 28.05 52.85 28.7 50.55 29.9 49.3 32.4 L48.8 33.9 Q48.55 34.65 48.6 35.3 48.55 36.2 48.8 37.1 49.5 39.4 51.65 40.15 53.8 40.9 56.15 39.7 58.5 38.55 59.65 36.1 60.9 33.6 60.15 31.3 59.8 30.2 59.1 29.45 59.1 30.85 58.35 32.35 57.2 34.85 54.8 35.95 L54.1 36.3"/><path fill="#cac960" stroke="none" d="M61.45 31.15 Q62.5 33.25 62.85 32.35 63.35 34.85 62.1 37.5 60.7 38.25 61.25 35.7 62.1 33.4 61.45 31.15 M47.95 34.2 L47.95 34.4 Q47.55 36.25 48.05 37.95 48.8 40.7 51.4 41.6 53.95 42.5 56.7 41.05 58.35 40.25 59.45 38.9 60.85 37.5 60.8 39.8 59.35 41.45 57.35 42.5 54.35 44.1 51.5 43.1 48.7 42.1 47.8 39.1 47.1 36.8 47.9 34.4 L47.95 34.2 M54.1 36.3 L54.8 35.95 Q57.2 34.85 58.35 32.35 59.1 30.85 59.1 29.45 59.8 30.2 60.15 31.3 60.9 33.6 59.65 36.1 58.5 38.55 56.15 39.7 53.8 40.9 51.65 40.15 49.5 39.4 48.8 37.1 48.55 36.2 48.6 35.3 49.25 36.05 50.3 36.4 52.1 37.05 53.95 36.35 L54.1 36.3"/><path fill="none" stroke="#000000" stroke-width="0.5" stroke-opacity="0.301960784314" d="M62.85 32.35 L62.65 31.55 Q61.85 28.65 59.0 27.65 L58.85 27.6 55.85 27.3 Q54.3 27.3 52.8 28.1 50.05 29.55 48.65 32.4 L48.0 34.15 47.95 34.2 M60.8 39.8 L62.0 37.75 62.1 37.5 M60.8 39.8 Q59.35 41.45 57.35 42.5 54.35 44.1 51.5 43.1 48.7 42.1 47.8 39.1 47.1 36.8 47.9 34.4 L47.95 34.2 M62.85 32.35 Q63.35 34.85 62.1 37.5"/><path fill="#246c41" stroke="none" d="M36.3 32.85 L36.85 35.9 Q33.35 35.7 30.9 37.15 29.4 38.05 28.25 39.6 27.35 42.55 27.2 45.2 L27.2 47.5 26.7 45.3 26.65 44.1 Q26.5 40.7 27.7 36.5 L28.75 35.25 Q31.55 32.55 36.3 32.85 M49.65 89.75 Q41.15 86.45 34.35 81.45 36.25 80.0 36.4 76.95 36.8 71.95 32.8 62.45 39.4 67.4 47.5 70.75 41.85 80.05 49.65 89.75 M81.4 56.7 L79.5 56.25 79.2 54.75 96.25 54.8 Q98.05 55.8 97.9 59.0 L96.8 57.8 84.45 59.45 81.4 56.7"/><path fill="#b9b93e" stroke="none" d="M27.2 45.2 Q27.35 42.55 28.25 39.6 29.4 38.05 30.9 37.15 33.35 35.7 36.85 35.9 L39.5 41.1 Q36.1 38.1 33.8 38.7 L33.0 39.0 Q29.65 40.35 27.2 45.2 M44.3 61.65 L45.2 60.65 55.2 48.3 56.8 50.7 47.5 63.2 44.3 61.65 M86.9 69.7 Q84.6 70.6 82.15 70.95 L82.1 69.3 81.4 56.7 84.45 59.45 86.9 69.7"/><path fill="#75d74a" stroke="none" d="M36.85 35.9 L36.3 32.85 45.1 41.6 45.25 43.7 44.05 43.05 40.4 43.0 39.5 41.1 36.85 35.9 M63.05 41.95 L71.2 44.85 Q70.65 46.25 71.4 48.0 72.1 49.55 74.1 51.35 L63.8 47.35 Q64.55 46.25 64.5 45.05 L64.15 43.8 63.05 41.95 M91.35 95.7 L86.4 97.15 84.05 97.2 84.25 96.25 Q87.35 84.6 85.95 78.35 89.7 77.5 93.0 75.9 91.65 80.0 91.0 83.55 89.7 90.7 91.35 95.7 M34.35 81.45 Q28.75 77.25 24.35 71.95 17.2 56.55 20.75 48.15 21.3 50.2 22.3 52.25 L23.95 54.25 28.95 59.75 Q34.15 65.0 36.4 76.95 36.25 80.0 34.35 81.45 M60.95 69.0 L60.35 67.75 63.45 68.55 66.95 69.4 68.25 69.6 69.2 69.75 73.0 70.4 Q71.2 71.95 72.4 73.55 73.45 75.15 75.6 76.4 L67.65 75.3 62.25 74.0 Q62.1 71.95 61.35 69.8 L60.95 69.0"/><path fill="#cac960" stroke="none" d="M27.2 47.5 L27.2 45.2 Q29.65 40.35 33.0 39.0 L33.8 38.7 Q36.1 38.1 39.5 41.1 L40.4 43.0 28.85 50.8 28.25 50.0 Q27.55 48.8 27.2 47.5 M50.1 47.15 Q46.2 47.3 43.45 48.2 41.8 48.7 40.55 49.5 39.45 50.15 38.7 51.05 35.65 54.5 37.05 57.5 L32.05 53.7 43.7 44.4 50.1 47.15 M49.65 64.0 L47.5 63.2 56.8 50.7 66.65 54.25 66.3 55.8 Q64.25 55.0 62.25 54.9 L60.45 55.1 Q58.7 55.35 57.0 56.2 L54.4 57.95 Q51.35 60.35 49.65 64.0 M89.35 68.7 L87.85 69.4 86.9 69.7 84.45 59.45 96.8 57.8 97.9 59.0 97.9 59.05 94.05 59.15 Q91.75 59.85 90.15 62.1 89.8 62.6 89.6 63.3 88.85 65.35 89.35 68.7 M78.65 57.2 Q75.5 56.9 73.7 58.9 72.55 60.0 72.0 62.0 70.65 67.0 73.0 70.4 L69.2 69.75 68.25 69.6 70.05 55.15 78.65 57.2"/><path fill="#e6e4b3" stroke="none" d="M40.4 43.0 L44.05 43.05 30.95 52.8 28.85 50.8 40.4 43.0 M37.05 57.5 Q35.65 54.5 38.7 51.05 39.45 50.15 40.55 49.5 41.8 48.7 43.45 48.2 46.2 47.3 50.1 47.15 L53.5 49.0 45.2 60.65 44.3 61.65 Q40.45 59.75 37.05 57.5 M60.35 67.75 L51.95 64.9 51.1 64.65 Q54.5 55.95 62.25 54.9 64.25 55.0 66.3 55.8 L66.65 54.25 69.25 53.8 66.95 69.4 63.45 68.55 66.3 55.8 63.45 68.55 60.35 67.75 M97.2 62.95 L95.1 64.85 Q92.95 66.75 90.55 68.1 88.75 61.8 94.05 59.15 L97.9 59.05 97.2 62.95 M82.15 70.95 L81.0 71.05 73.0 70.4 Q70.65 67.0 72.0 62.0 72.55 60.0 73.7 58.9 75.5 56.9 78.65 57.2 L80.0 57.55 82.1 69.3 82.15 70.95"/><path fill="#339328" stroke="none" d="M45.25 43.7 L45.1 41.6 79.2 54.75 79.5 56.25 69.25 53.8 66.65 54.25 56.8 50.7 55.2 48.3 45.25 43.7 M84.05 97.2 Q67.2 96.9 51.3 90.45 L49.65 89.75 Q41.85 80.05 47.5 70.75 L50.15 71.8 Q58.55 75.2 67.15 76.9 74.95 78.4 83.0 78.55 86.0 83.9 84.25 96.25 L84.05 97.2 M105.9 58.95 Q107.25 61.15 107.15 67.35 L105.45 79.65 Q103.1 86.95 94.25 92.95 90.2 93.1 91.0 83.55 91.65 80.0 93.0 75.9 96.2 74.35 98.8 72.15 104.3 67.7 105.7 62.05 L105.9 58.95"/><path fill="#f9f8ec" stroke="none" d="M44.05 43.05 L45.25 43.7 55.2 48.3 45.2 60.65 53.5 49.0 50.1 47.15 43.7 44.4 32.05 53.7 30.95 52.8 44.05 43.05 M51.1 64.65 L49.65 64.0 Q51.35 60.35 54.4 57.95 L57.0 56.2 Q58.7 55.35 60.45 55.1 L62.25 54.9 Q54.5 55.95 51.1 64.65 M90.55 68.1 L89.35 68.7 Q88.85 65.35 89.6 63.3 89.8 62.6 90.15 62.1 91.75 59.85 94.05 59.15 88.75 61.8 90.55 68.1 M66.95 69.4 L69.25 53.8 79.5 56.25 81.4 56.7 82.1 69.3 80.0 57.55 78.65 57.2 70.05 55.15 68.25 69.6 66.95 69.4"/><path fill="#d7f16b" stroke="none" d="M36.3 32.85 Q31.55 32.55 28.75 35.25 L27.7 36.5 Q26.5 40.7 26.65 44.1 25.9 37.35 27.8 35.1 30.6 31.1 36.4 31.4 L45.2 40.15 61.45 46.4 Q62.9 47.0 63.8 44.75 L64.15 43.8 64.5 45.05 Q64.55 46.25 63.8 47.35 L74.1 51.35 79.3 53.35 96.35 53.35 Q100.3 55.3 97.2 62.95 L97.9 59.05 97.9 59.0 Q98.05 55.8 96.25 54.8 L79.2 54.75 45.1 41.6 36.3 32.85 M24.35 71.95 L23.4 70.9 Q17.4 62.65 17.55 50.55 17.15 45.15 22.05 35.1 L22.2 35.1 21.75 36.3 Q19.4 43.85 22.9 50.6 L24.6 52.6 Q34.85 64.35 50.7 70.15 55.1 71.95 59.45 73.25 61.0 73.0 61.05 69.7 L60.95 69.0 61.35 69.8 Q62.1 71.95 62.25 74.0 L67.65 75.3 75.6 76.4 85.9 76.9 Q93.9 75.0 99.55 69.95 102.1 67.6 104.15 64.5 106.7 56.55 101.2 50.2 105.55 53.85 105.9 58.95 L105.7 62.05 Q104.3 67.7 98.8 72.15 96.2 74.35 93.0 75.9 89.7 77.5 85.95 78.35 87.35 84.6 84.25 96.25 86.0 83.9 83.0 78.55 74.95 78.4 67.15 76.9 58.55 75.2 50.15 71.8 L47.5 70.75 Q39.4 67.4 32.8 62.45 36.8 71.95 36.4 76.95 34.15 65.0 28.95 59.75 L23.95 54.25 22.3 52.25 Q21.3 50.2 20.75 48.15 17.2 56.55 24.35 71.95"/><path fill="#9ae17b" stroke="none" d="M26.65 44.1 L26.7 45.3 27.2 47.5 Q27.55 48.8 28.25 50.0 L28.85 50.8 30.95 52.8 32.05 53.7 37.05 57.5 Q40.45 59.75 44.3 61.65 L47.5 63.2 49.65 64.0 51.1 64.65 51.95 64.9 60.35 67.75 60.95 69.0 61.05 69.7 Q61.0 73.0 59.45 73.25 55.1 71.95 50.7 70.15 34.85 64.35 24.6 52.6 L22.9 50.6 Q19.4 43.85 21.75 36.3 L22.2 35.1 22.2 35.05 22.85 33.45 Q29.25 27.05 38.2 27.15 L47.35 36.35 63.05 41.95 64.15 43.8 63.8 44.75 Q62.9 47.0 61.45 46.4 L45.2 40.15 36.4 31.4 Q30.6 31.1 27.8 35.1 25.9 37.35 26.65 44.1 M71.2 44.85 L82.65 48.9 100.65 49.75 101.2 50.2 Q107.25 54.35 108.75 62.05 108.7 70.85 106.25 82.3 L105.0 84.35 Q99.8 92.2 91.4 95.65 L91.35 95.7 Q89.7 90.7 91.0 83.55 90.2 93.1 94.25 92.95 103.1 86.95 105.45 79.65 L107.15 67.35 Q107.25 61.15 105.9 58.95 105.55 53.85 101.2 50.2 106.7 56.55 104.15 64.5 102.1 67.6 99.55 69.95 93.9 75.0 85.9 76.9 L75.6 76.4 Q73.45 75.15 72.4 73.55 71.2 71.95 73.0 70.4 L81.0 71.05 82.15 70.95 Q84.6 70.6 86.9 69.7 L87.85 69.4 89.35 68.7 90.55 68.1 Q92.95 66.75 95.1 64.85 L97.2 62.95 Q100.3 55.3 96.35 53.35 L79.3 53.35 74.1 51.35 Q72.1 49.55 71.4 48.0 70.65 46.25 71.2 44.85"/><path fill="none" stroke="#000000" stroke-width="0.5" stroke-opacity="0.301960784314" d="M26.65 44.1 L26.7 45.3 27.2 47.5 27.2 45.2 Q27.35 42.55 28.25 39.6 29.4 38.05 30.9 37.15 33.35 35.7 36.85 35.9 L39.5 41.1 40.4 43.0 44.05 43.05 45.25 43.7 M32.05 53.7 L37.05 57.5 Q40.45 59.75 44.3 61.65 M22.85 33.45 Q29.25 27.05 38.2 27.15 L47.35 36.35 63.05 41.95 71.2 44.85 82.65 48.9 100.65 49.75 101.2 50.2 Q107.25 54.35 108.75 62.05 108.7 70.85 106.25 82.3 L105.0 84.35 Q99.8 92.2 91.4 95.65 L91.35 95.7 86.4 97.15 84.05 97.2 Q67.2 96.9 51.3 90.45 L49.65 89.75 Q41.15 86.45 34.35 81.45 28.75 77.25 24.35 71.95 L23.4 70.9 Q17.4 62.65 17.55 50.55 17.15 45.15 22.05 35.1 L22.85 33.45 22.2 35.05 22.2 35.1 M60.35 67.75 L51.95 64.9 51.1 64.65 49.65 64.0 47.5 63.2 44.3 61.65 M28.85 50.8 L28.25 50.0 Q27.55 48.8 27.2 47.5 M32.05 53.7 L30.95 52.8 28.85 50.8 40.4 43.0 M56.8 50.7 L55.2 48.3 45.25 43.7 M97.2 62.95 L95.1 64.85 Q92.95 66.75 90.55 68.1 L89.35 68.7 87.85 69.4 86.9 69.7 Q84.6 70.6 82.15 70.95 L81.0 71.05 73.0 70.4 69.2 69.75 68.25 69.6 66.95 69.4 M66.65 54.25 L66.3 55.8 63.45 68.55 66.95 69.4 M69.25 53.8 L66.65 54.25 56.8 50.7 47.5 63.2 M63.45 68.55 L60.35 67.75 M79.5 56.25 L81.4 56.7 84.45 59.45 96.8 57.8 97.9 59.0 97.9 59.05 97.2 62.95 M79.5 56.25 L69.25 53.8 M84.45 59.45 L86.9 69.7"/><path fill="#d7f16b" stroke="none" d="M22.0 100.1 L22.8 100.05 Q26.55 100.0 30.6 101.5 32.6 101.4 34.8 100.3 L37.15 99.1 Q40.0 97.25 43.05 94.05 L46.8 89.85 Q56.35 77.05 49.75 73.1 L54.55 75.4 Q55.1 80.6 48.35 89.65 42.65 97.55 37.0 101.75 L36.4 102.2 34.6 103.45 35.85 104.3 Q39.2 106.45 41.15 109.4 L41.4 109.7 Q42.8 111.8 43.1 113.7 L43.1 114.05 Q43.25 115.5 42.6 116.8 L42.55 116.85 42.2 117.45 41.8 117.95 41.75 117.9 42.05 117.3 42.25 116.7 Q42.8 114.1 40.65 110.75 38.8 107.85 35.65 105.7 L35.6 105.55 33.95 104.55 32.65 103.85 Q31.3 103.1 29.95 102.6 L28.55 102.1 Q25.35 101.1 22.35 101.15 17.5 101.4 16.0 104.25 L16.05 103.9 16.0 104.25 15.95 104.25 16.05 103.9 16.2 103.45 16.1 103.4 22.15 72.35 23.15 68.35 Q23.5 67.35 24.5 66.8 19.65 85.35 18.1 101.25 19.25 100.6 20.8 100.25 L22.0 100.1"/><path fill="#75d74a" stroke="none" d="M32.5 66.55 Q27.0 68.8 24.25 76.15 L22.25 82.85 Q19.65 92.05 22.0 100.1 L20.8 100.25 Q19.25 100.6 18.1 101.25 19.65 85.35 24.5 66.8 26.0 66.05 28.8 66.15 L32.5 66.55 M54.55 75.4 Q60.9 78.7 67.25 82.65 L70.2 84.95 Q71.05 87.85 67.8 92.2 65.15 95.75 59.9 100.3 49.05 108.45 41.15 109.4 39.2 106.45 35.85 104.3 L34.6 103.45 36.4 102.2 37.0 101.75 Q42.65 97.55 48.35 89.65 55.1 80.6 54.55 75.4 M41.75 117.9 L41.8 117.95 41.75 118.0 41.75 117.9"/><path fill="#9ae17b" stroke="none" d="M32.5 66.55 L33.05 66.65 Q41.45 69.25 49.75 73.1 56.35 77.05 46.8 89.85 L43.05 94.05 Q40.0 97.25 37.15 99.1 L34.8 100.3 Q32.6 101.4 30.6 101.5 26.55 100.0 22.8 100.05 L22.0 100.1 Q19.65 92.05 22.25 82.85 L24.25 76.15 Q27.0 68.8 32.5 66.55 M73.85 90.9 Q73.9 92.05 73.15 93.15 L52.8 110.75 51.9 111.55 Q47.15 115.5 42.55 117.9 L42.1 118.2 Q41.75 118.3 41.55 118.45 L40.95 118.75 40.9 118.7 41.75 118.0 41.8 117.95 42.2 117.45 42.55 116.85 42.6 116.8 Q43.25 115.5 43.1 114.05 44.8 115.1 50.55 110.8 56.2 106.45 63.65 99.95 L73.85 90.9"/><path fill="#339328" stroke="none" d="M70.2 84.95 Q72.35 86.85 73.25 88.65 73.85 89.75 73.85 90.9 L63.65 99.95 Q56.2 106.45 50.55 110.8 44.8 115.1 43.1 114.05 L43.1 113.7 Q42.8 111.8 41.4 109.7 L41.15 109.4 Q49.05 108.45 59.9 100.3 65.15 95.75 67.8 92.2 71.05 87.85 70.2 84.95 M22.25 115.25 Q19.25 113.1 17.45 110.3 L16.35 108.25 Q15.5 106.25 15.85 104.5 L15.95 104.3 15.95 104.25 16.0 104.25 Q17.5 101.4 22.35 101.15 25.35 101.1 28.55 102.1 32.1 107.65 32.2 112.65 L32.2 113.3 29.75 113.1 27.35 108.75 18.7 108.75 22.25 115.25 M35.65 105.7 Q38.8 107.85 40.65 110.75 42.8 114.1 42.25 116.7 L42.05 117.3 39.4 113.7 37.4 113.6 37.0 112.5 Q35.9 108.8 35.65 105.7 M15.95 104.3 L16.0 104.25 15.95 104.3"/><path fill="#206039" stroke="none" d="M39.05 119.6 L38.15 119.8 36.05 120.0 30.75 119.35 Q28.25 118.7 25.6 117.3 L22.25 115.25 18.7 108.75 27.35 108.75 29.75 113.1 32.2 113.3 32.2 112.65 Q32.1 107.65 28.55 102.1 L29.95 102.6 Q31.3 103.1 32.65 103.85 L33.95 104.55 35.6 105.55 35.65 105.7 Q35.9 108.8 37.0 112.5 L37.4 113.6 39.4 113.7 42.05 117.3 41.75 117.9 41.75 118.0 40.9 118.7 40.85 118.8 39.7 119.3 39.05 119.6"/><path fill="none" stroke="#000000" stroke-width="0.5" stroke-opacity="0.301960784314" d="M49.75 73.1 Q41.45 69.25 33.05 66.65 L32.5 66.55 M49.75 73.1 L54.55 75.4 Q60.9 78.7 67.25 82.65 L70.2 84.95 Q72.35 86.85 73.25 88.65 73.85 89.75 73.85 90.9 73.9 92.05 73.15 93.15 L52.8 110.75 51.9 111.55 Q47.15 115.5 42.55 117.9 L42.1 118.2 Q41.75 118.3 41.55 118.45 L40.95 118.75 40.85 118.8 Q40.15 119.3 39.05 119.6 L38.15 119.8 36.05 120.0 30.75 119.35 Q28.25 118.7 25.6 117.3 L22.25 115.25 Q19.25 113.1 17.45 110.3 L16.35 108.25 Q15.5 106.25 15.85 104.5 L15.95 104.3 15.95 104.25 16.05 103.9 16.1 103.4 22.15 72.35 23.15 68.35 Q23.5 67.35 24.5 66.8 26.0 66.05 28.8 66.15 L32.5 66.55 M39.05 119.6 L39.7 119.3 40.85 118.8 40.9 118.7 M16.2 103.45 L16.05 103.9 16.0 104.25 15.95 104.3"/><path fill="#75d74a" stroke="none" d="M35.6 110.4 L36.15 110.55 36.4 110.75 Q36.7 110.8 36.9 111.0 38.8 112.05 39.5 113.55 L39.6 113.75 Q35.45 120.4 29.85 126.0 29.35 124.95 28.25 124.15 L30.45 121.45 34.9 113.75 Q35.8 111.55 35.6 110.4"/><path fill="#9ae17b" stroke="none" d="M39.6 113.75 Q40.15 115.05 39.4 116.0 L39.35 116.05 39.3 116.1 29.75 127.95 Q30.3 127.15 29.85 126.0 35.45 120.4 39.6 113.75 M31.25 110.2 Q32.0 109.75 33.15 109.8 L33.95 109.9 34.0 109.9 Q35.3 111.2 33.65 115.4 31.7 118.7 30.0 120.65 28.0 122.8 26.2 123.2 L25.0 123.0 24.35 123.05 31.25 110.2"/><path fill="#d7f16b" stroke="none" d="M29.65 128.1 L29.6 128.15 Q29.9 127.25 29.4 126.25 28.9 125.2 27.6 124.4 26.25 123.6 24.85 123.5 L22.85 123.9 22.9 123.75 30.25 111.2 30.45 110.8 30.55 110.7 31.25 110.2 24.35 123.05 25.0 123.0 26.2 123.2 Q28.0 122.8 30.0 120.65 31.7 118.7 33.65 115.4 35.3 111.2 34.0 109.9 L35.6 110.4 Q35.8 111.55 34.9 113.75 L30.45 121.45 28.25 124.15 Q29.35 124.95 29.85 126.0 30.3 127.15 29.75 127.95 L29.7 128.05 29.65 128.1"/><path fill="#339328" stroke="none" d="M29.6 128.15 L29.05 128.55 28.5 128.75 28.15 128.85 27.55 128.9 Q26.05 128.9 24.55 128.05 23.25 127.15 22.65 125.95 L22.55 125.3 Q22.35 124.75 22.6 124.25 L22.75 124.0 22.85 123.95 22.85 123.9 24.85 123.5 Q26.25 123.6 27.6 124.4 28.9 125.2 29.4 126.25 29.9 127.25 29.6 128.15"/><path fill="none" stroke="#000000" stroke-width="0.5" stroke-opacity="0.301960784314" d="M39.6 113.75 Q40.15 115.05 39.4 116.0 L39.35 116.05 39.3 116.1 29.75 127.95 29.65 128.1 29.6 128.15 29.05 128.55 28.5 128.75 28.15 128.85 27.55 128.9 Q26.05 128.9 24.55 128.05 23.25 127.15 22.65 125.95 L22.55 125.3 Q22.35 124.75 22.6 124.25 L22.75 124.0 22.85 123.95 22.85 123.9 22.9 123.75 30.25 111.2 30.45 110.8 30.55 110.7 31.25 110.2 Q32.0 109.75 33.15 109.8 L33.95 109.9 M34.0 109.9 L35.6 110.4 36.15 110.55 36.4 110.75 Q36.7 110.8 36.9 111.0 38.8 112.05 39.5 113.55 L39.6 113.75 M29.75 127.95 L29.7 128.05 29.65 128.1"/><path fill="#9ae17b" stroke="none" d="M27.55 108.15 Q28.3 109.55 27.75 110.55 L27.7 110.65 20.6 123.35 Q20.95 122.5 20.35 121.3 24.7 115.3 27.55 108.15 M19.1 104.55 Q19.8 104.1 20.9 104.15 L21.6 104.2 21.65 104.2 Q23.15 105.55 22.25 110.0 20.95 113.55 19.65 115.65 18.1 117.95 16.5 118.4 L15.3 118.25 14.7 118.3 19.1 104.55"/><path fill="#75d74a" stroke="none" d="M23.3 104.7 L23.8 104.85 24.05 105.05 24.6 105.3 Q26.55 106.4 27.45 107.95 L27.55 108.15 Q24.7 115.3 20.35 121.3 19.75 120.2 18.55 119.4 L20.2 116.5 23.1 108.25 Q23.65 105.9 23.3 104.7"/><path fill="#d7f16b" stroke="none" d="M20.5 123.5 L20.5 123.55 20.45 123.6 Q20.6 122.6 20.0 121.6 19.3 120.5 17.95 119.7 16.55 118.85 15.25 118.8 14.1 118.85 13.45 119.25 L13.45 119.1 18.35 105.7 18.45 105.25 18.55 105.15 Q18.75 104.7 19.1 104.55 L14.7 118.3 15.3 118.25 16.5 118.4 Q18.1 117.95 19.65 115.65 20.95 113.55 22.25 110.0 23.15 105.55 21.65 104.2 L23.3 104.7 Q23.65 105.9 23.1 108.25 L20.2 116.5 18.55 119.4 Q19.75 120.2 20.35 121.3 20.95 122.5 20.6 123.35 L20.5 123.5"/><path fill="#339328" stroke="none" d="M20.45 123.6 L20.0 124.0 19.55 124.25 19.2 124.35 18.65 124.45 Q17.25 124.45 15.7 123.6 14.3 122.7 13.55 121.4 L13.35 120.75 Q13.05 120.15 13.2 119.6 L13.3 119.3 13.45 119.3 13.45 119.25 Q14.1 118.85 15.25 118.8 16.55 118.85 17.95 119.7 19.3 120.5 20.0 121.6 20.6 122.6 20.45 123.6"/><path fill="none" stroke="#000000" stroke-width="0.5" stroke-opacity="0.301960784314" d="M23.3 104.7 L23.8 104.85 24.05 105.05 24.6 105.3 Q26.55 106.4 27.45 107.95 L27.55 108.15 Q28.3 109.55 27.75 110.55 L27.7 110.65 20.6 123.35 20.5 123.5 20.5 123.55 20.45 123.6 20.0 124.0 19.55 124.25 19.2 124.35 18.65 124.45 Q17.25 124.45 15.7 123.6 14.3 122.7 13.55 121.4 L13.35 120.75 Q13.05 120.15 13.2 119.6 L13.3 119.3 13.45 119.3 13.45 119.25 13.45 119.1 18.35 105.7 18.45 105.25 18.55 105.15 Q18.75 104.7 19.1 104.55 19.8 104.1 20.9 104.15 L21.6 104.2 M21.65 104.2 L23.3 104.7 M20.6 123.35 L20.5 123.5"/><path fill="#000000" fill-opacity="0.301960784314" d="M65.55 98.85 Q64.5 100.05 63.1 100.45 L60.75 100.25 Q59.85 99.65 59.95 98.3 60.0 97.0 61.1 95.85 62.2 94.65 63.6 94.3 L65.95 94.45 Q66.85 95.05 66.7 96.4 66.65 97.7 65.55 98.85"/><path fill="#e6e4b3" stroke="none" d="M64.9 94.75 Q65.75 94.9 66.55 95.7 L72.3 104.15 77.1 104.0 77.2 104.05 Q78.75 105.85 78.55 107.85 78.0 105.95 76.9 104.95 L76.65 104.75 71.75 104.8 64.9 94.75 M72.9 114.4 Q69.4 114.4 68.5 110.75 L69.35 106.9 60.9 99.05 Q60.5 98.35 60.65 97.7 L70.05 106.6 69.3 110.8 69.35 110.85 Q69.25 111.55 70.55 113.0 L72.3 113.6 72.05 111.1 71.4 108.8 73.8 106.6 74.1 106.75 78.3 109.25 74.25 107.15 71.85 109.25 73.0 114.3 72.9 114.4"/><path fill="#cac960" stroke="none" d="M78.5 108.2 L78.3 109.25 74.1 106.75 73.8 106.6 71.4 108.8 72.05 111.1 Q70.85 113.1 69.35 110.85 L69.3 110.8 70.05 106.6 60.65 97.7 Q60.85 96.5 62.35 95.35 62.7 95.0 63.1 94.9 L71.3 105.55 76.35 105.3 76.7 105.5 Q77.7 106.2 78.5 108.2"/><path fill="#ffffff" stroke="none" d="M64.9 94.75 L71.75 104.8 76.65 104.75 76.9 104.95 Q78.0 105.95 78.55 107.85 L78.5 108.2 Q77.7 106.2 76.7 105.5 L76.35 105.3 71.3 105.55 63.1 94.9 64.9 94.75"/><path fill="#b9b93e" stroke="none" d="M72.05 111.1 L72.3 113.6 70.55 113.0 Q69.25 111.55 69.35 110.85 70.85 113.1 72.05 111.1"/><path fill="#246c41" stroke="none" d="M78.3 109.25 L74.35 108.65 73.0 110.05 73.0 114.3 71.85 109.25 74.25 107.15 78.3 109.25"/><path fill="none" stroke="#000000" stroke-width="0.5" stroke-opacity="0.301960784314" d="M78.55 107.85 Q78.75 105.85 77.2 104.05 L77.1 104.0 72.3 104.15 66.55 95.7 Q65.75 94.9 64.9 94.75 M78.55 107.85 L78.5 108.2 78.3 109.25 74.35 108.65 73.0 110.05 73.0 114.3 73.0 114.35 72.9 114.4 Q69.4 114.4 68.5 110.75 L69.35 106.9 60.9 99.05 Q60.5 98.35 60.65 97.7 60.85 96.5 62.35 95.35 62.7 95.0 63.1 94.9 L64.9 94.75"/><path fill="#000000" fill-opacity="0.301960784314" d="M51.55 109.65 Q50.0 109.65 49.3 108.8 48.55 107.95 49.0 106.75 49.45 105.5 50.8 104.6 52.15 103.8 53.6 103.8 55.1 103.8 55.85 104.6 56.55 105.45 56.1 106.7 55.65 107.85 54.3 108.7 53.0 109.6 51.55 109.65"/><path fill="#cac960" stroke="none" d="M50.5 106.35 Q51.0 105.3 52.7 104.5 L53.6 104.3 58.75 116.75 63.7 117.7 64.0 118.1 Q64.75 119.0 65.05 121.15 L64.55 122.05 61.15 118.55 60.9 118.4 57.95 119.85 58.05 122.2 Q56.4 123.9 55.45 121.35 L55.45 121.3 57.35 117.45 50.5 106.35"/><path fill="#ffffff" stroke="none" d="M65.05 121.15 Q64.75 119.0 64.0 118.1 L63.7 117.7 58.75 116.75 53.6 104.3 Q54.55 104.1 55.4 104.6 L59.4 116.1 64.15 117.3 64.35 117.6 Q65.1 118.85 65.2 120.85 L65.05 121.15"/><path fill="#e6e4b3" stroke="none" d="M50.5 106.35 L57.35 117.45 55.45 121.3 55.45 121.35 Q55.2 121.9 56.1 123.65 L57.65 124.7 58.05 122.2 57.95 119.85 60.9 118.4 61.15 118.55 64.55 122.05 61.2 118.95 58.35 120.4 58.1 125.6 58.05 125.65 Q54.7 124.8 54.7 121.0 L56.5 117.5 50.4 107.75 Q50.2 106.95 50.5 106.35 M55.4 104.6 L56.75 105.95 60.05 115.65 64.8 116.7 64.85 116.85 Q65.85 118.9 65.2 120.85 65.1 118.85 64.35 117.6 L64.15 117.3 59.4 116.1 55.4 104.6"/><path fill="#b9b93e" stroke="none" d="M55.45 121.35 Q56.4 123.9 58.05 122.2 L57.65 124.7 56.1 123.65 Q55.2 121.9 55.45 121.35"/><path fill="#246c41" stroke="none" d="M58.1 125.6 L58.35 120.4 61.2 118.95 64.55 122.05 60.9 120.55 59.15 121.5 58.1 125.6"/><path fill="none" stroke="#000000" stroke-width="0.5" stroke-opacity="0.301960784314" d="M53.6 104.3 L52.7 104.5 Q51.0 105.3 50.5 106.35 50.2 106.95 50.4 107.75 L56.5 117.5 54.7 121.0 Q54.7 124.8 58.05 125.65 M64.55 122.05 L65.05 121.15 M53.6 104.3 Q54.55 104.1 55.4 104.6 L56.75 105.95 60.05 115.65 64.8 116.7 64.85 116.85 Q65.85 118.9 65.2 120.85 L65.05 121.15 M64.55 122.05 L60.9 120.55 59.15 121.5 58.1 125.6 58.15 125.6 58.05 125.65"/></g><g id="c11"><g><use transform="matrix(1.0,0.0,0.0,1.0,0.0,0.0)" xlink:href="#c5"/></g></g><radialGradient gradientUnits="userSpaceOnUse" r="819.2" cx="0" cy="0" spreadMethod="pad" gradientTransform="matrix(0.0212554931641,0.0,0.0,0.0212554931641,0.0,0.0)" id="gradient3"><stop offset="0.196078431373" stop-color="#fee3bc"/><stop offset="0.501960784314" stop-color="#fee3bc" stop-opacity="0.160784313725"/><stop offset="0.760784313725" stop-color="#ffe3bd" stop-opacity="0.0"/></radialGradient><g id="c12"><path stroke="none" fill="url(#gradient3)" d="M9.3 -9.85 Q13.35 -5.8 13.35 0.0 13.35 5.8 9.3 9.3 5.8 13.35 0.0 13.35 -5.8 13.35 -9.85 9.3 -13.35 5.8 -13.35 0.0 -13.35 -5.8 -9.85 -9.85 -5.8 -13.35 0.0 -13.35 5.8 -13.35 9.3 -9.85"/></g><g id="c13"><g><use transform="matrix(1.0,0.0,0.0,1.0,0.0,0.0)" xlink:href="#c12"/></g></g><g id="c14"><g><use transform="matrix(0.00422668457031,-1.35153198242,1.39352416992,0.0199737548828,40.75,38.25)" xlink:href="#c13"/></g><g><use transform="matrix(0.00953674316406,-3.04858398438,0.371948242188,0.00532531738281,41.6,40.75)" filter="url(#filter12)" xlink:href="#c13"/></g><g><use transform="matrix(3.04858398438,0.00953674316406,-0.00532531738281,0.371948242188,40.75,40.2)" filter="url(#filter13)" xlink:href="#c13"/></g></g><filter id="filter12"><feColorMatrix in="SourceGraphic" type="matrix" values="1.0 0.0 0.0 0.0 0.0 0.0 1.0 0.0 0.0 0.0 0.0 0.0 1.0 0.0 0.0 0.0 0.0 0.0 0.71875 0.0" result="cxform"/><feComposite operator="in" in2="SourceGraphic" result="color-xform"/></filter><filter id="filter13"><feColorMatrix in="SourceGraphic" type="matrix" values="1.0 0.0 0.0 0.0 0.0 0.0 1.0 0.0 0.0 0.0 0.0 0.0 1.0 0.0 0.0 0.0 0.0 0.0 0.71875 0.0" result="cxform"/><feComposite operator="in" in2="SourceGraphic" result="color-xform"/></filter><g id="c15"><g><use transform="matrix(1.0,0.0,0.0,1.0,0.0,0.0)" xlink:href="#c10"/></g><g><use transform="matrix(0.324722290039,0.0,0.0,0.235443115234,74.15,35.95)" filter="url(#filter15)" xlink:href="#c11"/></g><g><use transform="matrix(0.256637573242,-0.0165557861328,0.0,0.171646118164,82.7,82.5)" filter="url(#filter16)" xlink:href="#c11"/></g><g><use transform="matrix(0.248138427734,0.103439331055,-0.125701904297,0.278961181641,40.15,88.7)" filter="url(#filter17)" xlink:href="#c11"/></g><g><use transform="matrix(0.0531616210938,0.0221405029297,-0.0491333007812,0.10905456543,20.55,111.35)" filter="url(#filter18)" xlink:href="#c11"/></g><g><use transform="matrix(0.0531616210938,0.0221405029297,-0.0491333007812,0.10905456543,31.0,116.05)" filter="url(#filter19)" xlink:href="#c11"/></g><g><use transform="matrix(0.343994140625,0.143463134766,-0.0491333007812,0.10905456543,53.4,58.05)" filter="url(#filter20)" xlink:href="#c11"/></g><g><use transform="matrix(0.544952392578,0.0,0.0,0.544952392578,63.45,55.8)" filter="url(#filter21)" xlink:href="#c14"/></g></g><filter id="filter15"><feColorMatrix in="SourceGraphic" type="matrix" values="1.0 0.0 0.0 0.0 0.0 0.0 1.0 0.0 0.0 0.0 0.0 0.0 1.0 0.0 0.0 0.0 0.0 0.0 0.2890625 0.0" result="cxform"/><feComposite operator="in" in2="SourceGraphic" result="color-xform"/></filter><filter id="filter16"><feColorMatrix in="SourceGraphic" type="matrix" values="1.0 0.0 0.0 0.0 0.0 0.0 1.0 0.0 0.0 0.0 0.0 0.0 1.0 0.0 0.0 0.0 0.0 0.0 0.2890625 0.0" result="cxform"/><feComposite operator="in" in2="SourceGraphic" result="color-xform"/></filter><filter id="filter17"><feColorMatrix in="SourceGraphic" type="matrix" values="1.0 0.0 0.0 0.0 0.0 0.0 1.0 0.0 0.0 0.0 0.0 0.0 1.0 0.0 0.0 0.0 0.0 0.0 0.2890625 0.0" result="cxform"/><feComposite operator="in" in2="SourceGraphic" result="color-xform"/></filter><filter id="filter18"><feColorMatrix in="SourceGraphic" type="matrix" values="1.0 0.0 0.0 0.0 0.0 0.0 1.0 0.0 0.0 0.0 0.0 0.0 1.0 0.0 0.0 0.0 0.0 0.0 0.2890625 0.0" result="cxform"/><feComposite operator="in" in2="SourceGraphic" result="color-xform"/></filter><filter id="filter19"><feColorMatrix in="SourceGraphic" type="matrix" values="1.0 0.0 0.0 0.0 0.0 0.0 1.0 0.0 0.0 0.0 0.0 0.0 1.0 0.0 0.0 0.0 0.0 0.0 0.2890625 0.0" result="cxform"/><feComposite operator="in" in2="SourceGraphic" result="color-xform"/></filter><filter id="filter20"><feColorMatrix in="SourceGraphic" type="matrix" values="1.0 0.0 0.0 0.0 0.0 0.0 1.0 0.0 0.0 0.0 0.0 0.0 1.0 0.0 0.0 0.0 0.0 0.0 0.1796875 0.0" result="cxform"/><feComposite operator="in" in2="SourceGraphic" result="color-xform"/></filter><filter id="filter21"><feColorMatrix in="SourceGraphic" type="matrix" values="1.0 0.0 0.0 0.0 0.0 0.0 1.0 0.0 0.0 0.0 0.0 0.0 1.0 0.0 0.0 0.0 0.0 0.0 0.2890625 0.0" result="cxform"/><feComposite operator="in" in2="SourceGraphic" result="color-xform"/></filter><g id="c16"><g><use transform="matrix(1.0,0.0,0.0,1.0,6.3,53.35)" xlink:href="#c9"/></g><g><use transform="matrix(-0.146041870117,0.0488891601562,0.0616760253906,0.140441894531,33.05,63.95)" xlink:href="#c15"/></g><g><use transform="matrix(0.141098022461,-0.0378112792969,0.111373901367,0.225646972656,27.2,74.05)" filter="url(#filter24)" xlink:href="#c6"/></g></g><filter id="filter24"><feColorMatrix in="SourceGraphic" type="matrix" values="1.0 0.0 0.0 0.0 0.0 0.0 1.0 0.0 0.0 0.0 0.0 0.0 1.0 0.0 0.0 0.0 0.0 0.0 0.23046875 0.0" result="cxform"/><feComposite operator="in" in2="SourceGraphic" result="color-xform"/></filter></defs><g><g><use transform="matrix(1.0,0.0,0.0,1.0,0.0,0.0)" xlink:href="#c1"/></g><g><use transform="matrix(1.15496826172,0.0,0.0,1.15496826172,-1.5,-57.15)" xlink:href="#c16"/></g></g></svg>