<?xml version='1.0' encoding='UTF-8'?>
<svg xmlns:xlink="http://www.w3.org/1999/xlink" xmlns="http://www.w3.org/2000/svg" version="1.1" width="60px" height="63px" viewBox="0.0 -2.32474112858 60.3090772832 62.6312863662"><defs><g id="c1"><path fill="#000000" fill-opacity="0.00392156862745" d="M0.0 0.0 L60.0 0.0 60.0 60.0 0.0 60.0 0.0 0.0"/></g><g id="c2"><path fill="#006699" stroke="none" d="M31.5 39.85 L19.8 43.65 Q17.15 44.45 15.5 43.3 14.35 42.55 13.65 40.9 L1.7 14.45 1.6 14.3 1.2 13.45 -0.75 9.05 Q-2.05 6.2 -0.3 4.75 0.3 4.25 1.2 3.9 L5.5 2.25 Q8.95 0.95 10.65 4.15 L22.3 0.4 Q26.55 -1.0 28.45 3.1 L40.55 29.95 40.9 30.7 42.95 35.15 Q43.95 37.35 43.15 38.7 42.5 39.7 40.95 40.25 L36.65 41.8 35.1 42.2 Q32.75 42.3 31.5 39.85"/><path fill="none" stroke="#000000" stroke-width="1.0" stroke-opacity="0.298039215686" d="M31.5 39.85 L19.8 43.65 Q17.15 44.45 15.5 43.3 14.35 42.55 13.65 40.9 L1.7 14.45 1.6 14.3 1.2 13.45 -0.75 9.05 Q-2.05 6.2 -0.3 4.75 0.3 4.25 1.2 3.9 L5.5 2.25 Q8.95 0.95 10.65 4.15 L22.3 0.4 Q26.55 -1.0 28.45 3.1 L40.55 29.95 40.9 30.7 42.95 35.15 Q43.95 37.35 43.15 38.7 42.5 39.7 40.95 40.25 L36.65 41.8 35.1 42.2 Q32.75 42.3 31.5 39.85"/><path fill="#5b3c00" stroke="none" d="M0.75 8.25 L29.8 9.75 25.55 0.9 Q26.9 1.6 27.8 3.55 L40.7 32.15 Q42.6 36.3 38.3 37.65 L23.3 42.5 13.15 21.4 4.6 20.9 0.7 12.25 Q-0.45 9.75 0.75 8.25 M20.1 43.55 L19.8 43.65 Q17.15 44.45 15.5 43.3 L20.1 43.55"/><path fill="#724b00" stroke="none" d="M25.55 0.9 L29.8 9.75 0.75 8.25 Q1.45 7.3 3.1 6.75 L21.65 0.8 25.55 0.9 M4.6 20.9 L13.15 21.4 23.3 42.5 20.1 43.55 15.5 43.3 Q14.35 42.55 13.65 40.9 L4.6 20.9"/><path fill="none" stroke="#000000" stroke-width="0.5" stroke-opacity="0.301960784314" d="M0.75 8.25 Q-0.45 9.75 0.7 12.25 L4.6 20.9 M23.3 42.5 L38.3 37.65 Q42.6 36.3 40.7 32.15 L27.8 3.55 Q26.9 1.6 25.55 0.9 L21.65 0.8 3.1 6.75 Q1.45 7.3 0.75 8.25 M20.1 43.55 L19.8 43.65 Q17.15 44.45 15.5 43.3 14.35 42.55 13.65 40.9 L4.6 20.9 M20.1 43.55 L23.3 42.5"/><path fill="#fed00b" stroke="none" d="M40.5 29.85 L40.55 29.95 40.9 30.7 42.95 35.15 Q43.95 37.35 43.15 38.7 42.5 39.45 41.2 39.9 L36.9 41.45 34.85 41.85 Q32.9 41.7 31.8 39.55 L31.75 39.5 31.4 39.65 30.3 40.0 31.4 39.65 31.4 39.7 20.4 43.2 Q16.1 44.55 14.2 40.5 L6.45 23.15 6.0 22.15 5.55 21.15 4.05 17.85 3.15 15.85 3.1 15.8 1.75 12.85 -0.2 8.45 Q-1.25 6.15 -0.3 4.75 0.3 4.25 1.2 3.9 L5.5 2.25 Q8.95 0.95 10.65 4.15 L22.3 0.4 Q26.55 -1.0 28.45 3.1 L40.5 29.85"/><path fill="#5b3c00" stroke="none" d="M43.15 38.7 Q42.5 39.7 40.95 40.25 L36.65 41.8 35.1 42.2 Q32.75 42.3 31.45 39.8 L31.4 39.7 31.4 39.65 31.75 39.5 31.8 39.55 Q32.9 41.7 34.85 41.85 L36.9 41.45 41.2 39.9 Q42.5 39.45 43.15 38.7 M3.1 15.8 Q2.25 15.35 1.6 14.3 L1.2 13.45 -0.75 9.05 Q-2.05 6.2 -0.3 4.75 -1.25 6.15 -0.2 8.45 L1.75 12.85 3.1 15.8"/><path fill="#9d147b" stroke="none" d="M31.4 39.65 L30.3 40.0 31.4 39.65"/><path fill="none" stroke="#003333" stroke-width="0.5" stroke-opacity="0.509803921569" d="M40.5 29.85 L40.55 29.95 40.9 30.7 42.95 35.15 Q43.95 37.35 43.15 38.7 42.5 39.7 40.95 40.25 L36.65 41.8 35.1 42.2 Q32.75 42.3 31.45 39.8 L31.4 39.7 M6.45 23.15 L6.0 22.15 M5.55 21.15 L4.05 17.85 3.1 15.8 1.75 12.85 -0.2 8.45 Q-1.25 6.15 -0.3 4.75 0.3 4.25 1.2 3.9 L5.5 2.25 Q8.95 0.95 10.65 4.15 M1.6 14.3 L1.2 13.45 -0.75 9.05 Q-2.05 6.2 -0.3 4.75 M31.4 39.65 L31.75 39.5 31.8 39.55 Q32.9 41.7 34.85 41.85 L36.9 41.45 41.2 39.9 Q42.5 39.45 43.15 38.7 M31.4 39.65 L30.3 40.0 31.4 39.65 31.4 39.7"/><path fill="none" stroke="#000000" stroke-width="0.5" stroke-opacity="0.301960784314" d="M31.4 39.7 L20.4 43.2 Q16.1 44.55 14.2 40.5 L6.45 23.15 M6.0 22.15 L5.55 21.15 M10.65 4.15 L22.3 0.4 Q26.55 -1.0 28.45 3.1 L40.5 29.85 M4.05 17.85 L3.15 15.85"/><path fill="#fcf2cf" stroke="none" d="M9.15 13.6 Q9.8 12.8 9.55 11.6 L9.1 10.55 22.05 6.35 Q24.9 5.45 26.25 7.85 L26.5 8.3 35.8 29.0 35.95 29.35 Q34.75 29.3 34.1 30.1 33.45 30.9 33.7 32.1 L34.0 32.9 20.65 37.2 Q18.8 37.8 17.65 37.0 16.8 36.4 16.3 35.2 L6.95 14.6 6.8 14.4 7.1 14.4 Q8.4 14.45 9.15 13.6"/><path fill="#9f6b00" stroke="none" d="M28.25 6.1 L35.55 22.3 39.35 30.75 Q41.1 34.5 37.2 35.7 L20.45 41.1 Q16.8 42.25 15.2 39.0 L15.0 38.6 8.25 23.65 3.35 12.8 Q1.65 9.1 5.5 7.85 L22.25 2.5 Q26.05 1.25 27.75 4.95 L28.25 6.1 M9.15 13.6 Q8.4 14.45 7.1 14.4 L6.8 14.4 6.95 14.6 16.3 35.2 Q16.8 36.4 17.65 37.0 18.8 37.8 20.65 37.2 L34.0 32.9 33.7 32.1 Q33.45 30.9 34.1 30.1 34.75 29.3 35.95 29.35 L35.8 29.0 26.5 8.3 26.25 7.85 Q24.9 5.45 22.05 6.35 L9.1 10.55 9.55 11.6 Q9.8 12.8 9.15 13.6"/><path fill="none" stroke="#f0b92b" stroke-width="0.5" d="M9.15 13.6 Q9.8 12.8 9.55 11.6 L9.1 10.55 22.05 6.35 Q24.9 5.45 26.25 7.85 L26.5 8.3 35.8 29.0 35.95 29.35 Q34.75 29.3 34.1 30.1 33.45 30.9 33.7 32.1 L34.0 32.9 20.65 37.2 Q18.8 37.8 17.65 37.0 16.8 36.4 16.3 35.2 L6.95 14.6 6.8 14.4 7.1 14.4 Q8.4 14.45 9.15 13.6"/><path fill="none" stroke="#feaa00" stroke-width="1.0" d="M28.25 6.1 L35.55 22.3 M15.0 38.6 L8.25 23.65"/><path fill="none" stroke="#fbeec5" stroke-width="1.0" d="M35.55 22.3 L39.35 30.75 Q41.1 34.5 37.2 35.7 L20.45 41.1 Q16.8 42.25 15.2 39.0 L15.0 38.6 M8.25 23.65 L3.35 12.8 Q1.65 9.1 5.5 7.85 L22.25 2.5 Q26.05 1.25 27.75 4.95 L28.25 6.1"/></g><g id="c3"><path fill="#7fdbfe" stroke="none" d="M10.75 4.9 Q10.75 4.6 10.9 4.35 11.25 3.45 11.95 2.75 13.3 1.5 14.35 2.1 15.4 2.7 14.95 4.45 14.7 5.4 14.1 6.15 L13.75 6.5 Q13.1 7.15 12.35 7.35 L11.4 7.2 Q10.95 6.9 10.75 6.4 10.5 5.75 10.75 4.9 M7.5 5.9 Q7.0 5.85 6.6 5.5 6.05 5.0 5.8 4.15 L5.7 3.6 Q5.55 2.65 5.8 1.7 6.25 0.0 7.5 0.0 L7.6 0.0 Q8.85 0.0 9.3 1.7 9.55 2.65 9.4 3.6 L9.3 4.15 8.5 5.5 7.6 5.9 7.5 5.9 M4.35 4.9 Q4.6 5.75 4.35 6.4 L3.7 7.2 2.75 7.35 Q2.0 7.15 1.35 6.5 L1.0 6.15 Q0.4 5.4 0.15 4.45 -0.3 2.7 0.75 2.1 1.8 1.5 3.15 2.75 3.85 3.45 4.2 4.35 L4.35 4.9 M5.5 13.7 Q4.45 13.9 3.65 12.95 2.75 12.0 3.2 10.25 3.7 8.5 5.25 7.6 6.4 6.9 7.55 7.0 8.75 6.9 9.9 7.6 11.45 8.5 11.95 10.25 12.35 12.0 11.5 12.95 10.7 13.9 9.65 13.7 8.55 13.5 7.55 12.6 6.55 13.5 5.5 13.7"/></g><g id="c4"><g><use transform="matrix(1.0,0.0,0.0,1.0,0.0,0.0)" xlink:href="#c3"/></g></g><radialGradient gradientUnits="userSpaceOnUse" r="819.2" cx="0" cy="0" spreadMethod="pad" gradientTransform="matrix(0.0914459228516,0.0,0.0,0.0914459228516,0.6,3.4)" id="gradient1"><stop offset="0.0" stop-color="#ffffff"/><stop offset="1.0" stop-color="#ffffff" stop-opacity="0.0"/></radialGradient><g id="c5"><path stroke="none" fill="url(#gradient1)" d="M36.65 -54.65 Q60.05 -42.0 69.75 -17.95 80.55 8.9 68.0 34.1 55.45 59.35 26.8 68.2 -1.8 77.05 -29.7 64.3 -57.6 51.6 -68.45 24.75 -79.3 -2.05 -66.75 -27.25 L-66.7 -27.3 Q-54.1 -52.5 -25.5 -61.4 3.1 -70.2 31.0 -57.5 L36.65 -54.65"/></g><g id="c6"><g><use transform="matrix(1.0,0.0,0.0,1.0,0.0,0.0)" xlink:href="#c5"/></g></g><radialGradient gradientUnits="userSpaceOnUse" r="819.2" cx="0" cy="0" spreadMethod="pad" gradientTransform="matrix(0.209197998047,0.0,0.0,0.177108764648,67.15,107.2)" id="gradient2"><stop offset="0.356862745098" stop-color="#ffffff"/><stop offset="0.670588235294" stop-opacity="0.0"/></radialGradient><g id="c7"><path fill="none" stroke-linejoin="round" stroke-linecap="round" stroke="url(#gradient2)" stroke-width="0.5" d="M136.55 165.8 L68.6 106.0 68.4 106.0 118.25 201.5 M68.3 105.8 L68.35 105.8 68.3 105.8 68.3 105.85 68.4 106.0 68.3 106.0 86.55 211.5 M68.3 105.8 L68.3 105.85 68.3 106.0 68.15 105.95 18.25 151.55 M68.3 105.85 L68.25 105.85 68.3 106.0 50.0 193.2 M68.25 105.85 L68.15 105.95 0.05 97.7 M68.3 105.85 L68.25 105.8 68.25 105.85 M68.25 105.8 L68.2 105.7 0.0 45.7 M68.3 105.8 L68.25 105.75 68.25 105.8 M68.25 105.75 L68.2 105.7 18.25 10.05 M68.6 106.0 L68.35 105.8 118.25 60.15 M86.6 18.35 L68.3 105.8 M136.6 114.25 L68.6 106.0 M68.25 105.75 L49.95 0.05"/></g><g id="c8"><g><use transform="matrix(1.0,0.0,0.0,1.0,0.0,0.0)" xlink:href="#c7"/></g></g><g id="c9"><g><use transform="matrix(1.0,0.0,0.0,1.0,0.0,0.0)" xlink:href="#c2"/></g><g><use transform="matrix(0.238861083984,-0.0867004394531,0.10026550293,0.233917236328,34.25,31.15)" xlink:href="#c4"/></g><g><use transform="matrix(0.238861083984,-0.0867004394531,0.10026550293,0.233917236328,4.25,10.3)" xlink:href="#c4"/></g><g><use transform="matrix(0.141098022461,-0.0378112792969,0.111373901367,0.225646972656,20.25,20.65)" filter="url(#filter7)" xlink:href="#c6"/></g><g><use transform="matrix(-0.155029296875,0.0513153076172,0.0841827392578,0.147033691406,22.6,3.15)" filter="url(#filter8)" xlink:href="#c8"/></g></g><filter id="filter7"><feColorMatrix in="SourceGraphic" type="matrix" values="0.0 0.0 0.0 0.0 0.796875 0.0 0.0 0.0 0.0 0.59765625 0.0 0.0 0.0 0.0 0.19921875 0.0 0.0 0.0 1.0 0.0" result="cxform"/><feComposite operator="in" in2="SourceGraphic" result="color-xform"/></filter><filter id="filter8"><feColorMatrix in="SourceGraphic" type="matrix" values="0.0 0.0 0.0 0.0 0.99609375 0.0 0.0 0.0 0.0 0.99609375 0.0 0.0 0.0 0.0 0.99609375 0.0 0.0 0.0 1.0 0.0" result="cxform"/><feComposite operator="in" in2="SourceGraphic" result="color-xform"/></filter><g id="c10"><path fill="#ffffff" stroke="none" d="M37.9 92.95 L26.2 96.75 Q23.55 97.55 21.9 96.4 20.75 95.65 20.05 94.0 L8.1 67.55 8.0 67.4 7.6 66.55 5.65 62.15 Q4.35 59.3 6.1 57.85 6.7 57.35 7.6 57.0 L11.9 55.35 Q15.35 54.05 17.05 57.25 L28.7 53.5 Q32.95 52.1 34.85 56.2 L46.95 83.05 47.3 83.8 49.35 88.25 Q50.35 90.45 49.55 91.8 48.9 92.8 47.35 93.35 L43.05 94.9 41.5 95.3 Q39.15 95.4 37.9 92.95"/></g><linearGradient gradientUnits="userSpaceOnUse" x1="-819.2" x2="819.2" spreadMethod="pad" gradientTransform="matrix(0.0255126953125,0.0,0.0,0.0268249511719,20.9,21.95)" id="gradient3"><stop offset="0.0" stop-color="#f90013"/><stop offset="0.160784313725" stop-color="#ff99ff"/><stop offset="0.462745098039" stop-color="#66ffff"/><stop offset="0.721568627451" stop-color="#ff9900"/><stop offset="1.0" stop-color="#33ff00"/></linearGradient><g id="c11"><path stroke="none" fill="url(#gradient3)" d="M0.6 8.2 Q1.05 7.55 2.0 7.1 2.65 6.65 3.65 6.3 L22.15 0.35 Q26.4 -1.05 28.3 3.05 L41.2 31.65 Q42.8 35.1 40.05 36.65 39.35 37.25 38.15 37.6 L19.65 43.6 Q17.0 44.4 15.35 43.25 14.2 42.5 13.5 40.85 L0.55 12.2 Q-0.6 9.7 0.6 8.2"/></g><g id="c12"><g><use transform="matrix(1.0,0.0,0.0,1.0,0.0,0.0)" xlink:href="#c11"/></g></g><radialGradient gradientUnits="userSpaceOnUse" r="819.2" cx="0" cy="0" spreadMethod="pad" gradientTransform="matrix(0.0419769287109,0.0,0.0,0.0419769287109,0.0,0.0)" id="gradient4"><stop offset="0.521568627451" stop-color="#52493f"/><stop offset="1.0" stop-color="#747864" stop-opacity="0.0"/></radialGradient><radialGradient gradientUnits="userSpaceOnUse" r="819.2" cx="0" cy="0" spreadMethod="pad" gradientTransform="matrix(0.0419769287109,0.0,0.0,0.0419769287109,0.0,0.0)" id="gradient5"><stop offset="0.521568627451" stop-color="#746136" stop-opacity="0.701960784314"/><stop offset="1.0" stop-color="#878256" stop-opacity="0.0"/></radialGradient><radialGradient gradientUnits="userSpaceOnUse" r="819.2" cx="0" cy="0" spreadMethod="pad" gradientTransform="matrix(0.0503692626953,0.0,0.0,0.0503692626953,-0.1,-0.1)" id="gradient6"><stop offset="0.521568627451" stop-color="#133a01" stop-opacity="0.450980392157"/><stop offset="1.0" stop-color="#221e00" stop-opacity="0.0"/></radialGradient><g id="c13"><path stroke="none" fill="url(#gradient4)" d="M5.5 -21.3 L4.1 -22.6 4.75 -23.35 8.5 -22.55 8.2 -22.4 5.5 -21.3"/><path stroke="none" fill="url(#gradient5)" d="M-21.65 -9.35 L-23.85 -7.25 -24.05 -7.15 -24.35 -9.25 -25.95 -9.8 -28.0 -10.5 -27.95 -12.0 -24.1 -13.25 -23.85 -12.9 -25.15 -12.0 -23.95 -10.75 -22.7 -10.85 -21.65 -9.35 M7.6 -21.25 L7.65 -21.1 7.55 -21.2 7.6 -21.25 M11.4 13.85 L11.45 14.15 11.3 14.45 11.4 13.85"/><path stroke="none" fill="url(#gradient6)" d="M5.5 -21.3 L6.0 -20.8 5.8 -19.95 6.5 -19.55 4.7 -17.8 7.55 -16.65 7.55 -18.2 10.3 -19.05 9.5 -20.2 10.55 -21.2 8.5 -22.55 7.35 -23.3 8.95 -25.55 9.1 -25.45 13.6 -26.95 12.2 -29.4 16.35 -29.65 18.2 -33.85 20.45 -33.65 22.0 -32.15 26.35 -31.7 26.95 -24.75 24.4 -23.25 23.95 -19.55 27.05 -18.1 31.75 -21.8 36.0 -19.75 37.4 -15.55 36.1 -12.8 33.9 -11.65 33.5 -11.8 33.5 -14.1 31.6 -13.25 31.6 -11.15 32.05 -10.7 31.05 -10.2 29.8 -7.55 32.4 -4.3 36.9 -5.2 38.0 -3.25 37.7 -1.1 36.25 -2.75 34.9 -1.2 36.05 0.25 35.0 4.15 37.05 8.3 34.3 10.35 34.25 10.4 32.35 8.75 29.6 9.85 29.6 13.3 33.8 16.0 33.75 20.7 31.25 23.8 28.9 23.8 27.35 22.25 29.45 20.5 28.7 19.7 26.6 20.15 25.85 18.95 24.95 20.3 23.5 20.3 23.2 18.95 25.85 16.85 25.2 15.5 23.25 16.4 22.45 15.1 19.1 18.25 18.4 19.85 20.5 19.4 20.55 21.75 22.2 22.85 21.75 24.05 23.85 27.75 22.85 29.55 21.25 30.2 19.15 33.85 20.15 36.05 10.7 36.05 13.75 39.1 8.2 39.1 5.3 37.25 5.6 37.5 3.55 39.7 1.8 36.65 -2.75 38.15 -3.1 37.1 -1.7 36.4 -6.95 35.3 -5.9 33.8 -5.95 33.65 -3.4 32.5 -4.8 31.0 -3.25 29.8 -0.4 32.15 1.0 30.05 -0.35 28.4 0.5 27.2 0.2 26.75 2.3 25.3 6.35 26.1 4.75 20.4 5.8 19.7 4.7 14.05 1.95 11.95 -0.1 13.85 2.45 15.65 1.0 19.0 -0.1 18.05 -2.3 21.2 -0.1 22.55 -1.3 25.05 -3.8 25.4 -3.8 27.25 -3.2 27.9 -4.95 29.65 -5.75 27.95 -7.6 27.95 -7.6 30.85 -7.1 31.55 -9.2 32.95 -10.15 30.6 -13.6 30.85 -14.3 32.65 -17.1 33.5 -21.95 29.8 -20.9 28.55 -22.0 27.55 -21.0 26.05 -21.25 23.15 -25.1 21.65 -25.2 21.7 -28.6 24.65 -30.5 23.5 -31.9 20.1 -30.7 17.65 -31.7 13.75 -30.6 12.3 -31.9 10.75 -32.0 10.65 -33.15 9.2 -31.9 9.2 -29.65 6.2 -31.6 3.4 -37.15 4.15 -35.8 1.45 -36.8 -2.45 -35.7 -3.9 -37.0 -5.45 -36.8 -5.75 -31.1 -5.45 -29.8 -6.35 -29.35 -5.05 -27.35 -6.2 -26.45 -4.7 -23.85 -7.25 -21.65 -9.35 -20.45 -10.5 -20.5 -12.65 -21.5 -11.75 -22.1 -12.8 -23.3 -12.5 -23.85 -14.7 -25.9 -15.9 -27.15 -15.2 -28.3 -15.9 -28.75 -15.6 -29.05 -16.0 -29.05 -19.4 -29.15 -19.6 -27.4 -20.45 -24.5 -18.5 -21.7 -20.8 -19.0 -18.1 -15.4 -23.7 -17.8 -24.7 -16.0 -26.75 -16.3 -28.1 -15.45 -29.1 -17.85 -32.2 -17.0 -33.95 -19.9 -34.15 -18.55 -35.5 -16.35 -35.2 -14.35 -38.8 -11.7 -38.45 -12.2 -37.9 -9.05 -35.05 -10.15 -33.8 -5.3 -30.1 -1.85 -31.15 -1.0 -28.7 3.65 -30.95 3.25 -29.8 4.25 -29.8 2.6 -26.1 4.3 -24.95 3.15 -23.55 4.1 -22.6 5.5 -21.3 M17.45 -26.5 L17.45 -28.8 15.5 -27.95 15.5 -25.85 17.45 -23.95 19.1 -25.85 17.45 -26.5 M23.75 -10.15 L21.8 -9.3 21.8 -7.15 23.75 -5.3 25.4 -7.15 23.75 -7.85 23.75 -10.15 M22.4 -18.85 L22.4 -21.1 20.5 -20.3 20.5 -18.15 22.45 -16.3 24.1 -18.15 22.4 -18.85 M19.95 -1.4 L19.95 -0.65 18.05 1.25 17.05 -0.05 15.8 1.15 15.8 3.55 17.0 4.25 17.0 5.65 19.2 6.6 19.8 4.6 18.9 3.4 20.5 0.1 22.55 0.1 21.15 -0.95 19.95 -1.4 M3.7 -19.1 L1.85 -19.1 1.85 -16.25 3.85 -15.5 4.85 -17.4 3.7 -19.1 M20.75 -5.65 L19.9 -4.25 23.15 -3.1 20.75 -5.65 M25.75 -1.6 L24.2 -2.05 23.95 0.1 22.55 1.15 22.55 1.65 23.95 5.3 27.25 5.3 27.65 6.25 31.6 4.25 25.6 2.5 26.9 1.1 24.95 -0.05 25.75 -1.6 M-17.2 23.25 L-19.05 23.25 -19.05 26.1 -17.0 26.85 -16.0 24.95 -17.2 23.25 M-8.35 7.85 L-8.35 10.7 -6.35 11.45 -5.35 9.55 -6.5 7.85 -8.35 7.85 M-23.8 -2.9 L-23.8 -0.05 -21.75 0.7 -20.75 -1.2 -21.95 -2.9 -23.8 -2.9 M-20.45 -10.45 L-20.45 -7.6 -18.4 -6.85 -17.4 -8.75 -18.55 -10.45 -20.45 -10.45 M-10.5 20.95 L-9.4 23.05 -7.0 21.55 -6.15 23.05 -3.2 21.5 -4.25 19.85 -6.35 20.2 -6.8 16.45 -7.15 16.3 -6.75 14.85 -9.85 14.2 -12.65 18.05 -11.8 21.2 -10.5 20.95 M11.4 13.85 L11.0 11.95 7.1 14.9 8.15 16.3 8.15 18.0 10.8 21.25 13.85 20.3 14.2 20.55 13.6 22.7 15.55 23.8 17.8 21.8 16.9 20.3 16.45 19.4 14.5 18.95 15.8 17.75 14.05 16.15 14.0 16.25 13.65 16.05 11.75 15.55 11.45 14.15 11.4 13.85 M-19.85 12.4 L-20.05 12.15 -20.9 12.7 -20.8 12.9 -19.85 12.4"/></g><g id="c14"><g><use transform="matrix(1.0,0.0,0.0,1.0,0.0,0.0)" xlink:href="#c13"/></g></g><g id="c15"><g><use transform="matrix(-0.878829956055,0.0,0.0,0.322067260742,33.4,12.5)" xlink:href="#c14"/></g></g><g id="c16"><path fill="#757502" stroke="none" d="M-15.7 -36.25 Q-17.35 -34.25 -18.7 -31.85 -24.6 -18.3 -17.7 -7.45 L-16.75 -5.9 Q-15.45 4.2 -23.85 10.35 -30.15 -1.2 -31.25 -10.3 -25.7 -14.35 -24.35 -24.85 -23.65 -35.2 -31.45 -20.15 -30.45 -31.7 -22.55 -40.2 L-22.55 -40.25 Q-16.9 -41.85 -15.7 -36.25 M-10.95 5.95 Q-8.95 11.0 -7.65 16.45 L-7.45 17.8 Q-12.2 19.25 -15.5 28.6 -16.9 38.2 -8.35 39.0 -9.4 42.5 -11.1 45.25 -22.85 43.95 -25.2 31.4 -20.75 23.85 -22.1 16.0 -11.5 15.5 -10.95 5.95 M-12.3 -40.05 Q-10.85 -46.5 -14.1 -47.2 L-10.8 -49.2 Q2.5 -56.3 16.45 -51.5 4.2 -51.4 10.05 -49.0 5.5 -49.6 0.2 -48.35 -6.85 -45.6 -12.3 -40.05"/><path fill="#9b9b02" stroke="none" d="M-15.7 -36.25 Q-16.9 -41.85 -22.55 -40.25 -19.0 -44.05 -14.1 -47.2 -10.85 -46.5 -12.3 -40.05 L-15.7 -36.25 M-31.45 -20.15 Q-23.65 -35.2 -24.35 -24.85 -25.7 -14.35 -31.25 -10.3 L-31.5 -12.65 Q-31.85 -16.55 -31.45 -20.15 M-23.85 10.35 Q-15.45 4.2 -16.75 -5.9 -13.4 -0.35 -10.95 5.95 -11.5 15.5 -22.1 16.0 -22.6 13.2 -23.85 10.4 L-23.85 10.35 M-7.45 17.8 Q-6.0 30.65 -8.35 39.0 -16.9 38.2 -15.5 28.6 -12.2 19.25 -7.45 17.8 M16.45 -51.5 L18.5 -50.7 Q30.95 -42.6 28.05 -40.25 L17.95 -46.25 Q14.3 -48.45 10.05 -49.0 4.2 -51.4 16.45 -51.5"/><path fill="none" stroke="#000000" stroke-width="0.5" stroke-opacity="0.4" d="M-16.75 -5.9 L-17.7 -7.45 Q-24.6 -18.3 -18.7 -31.85 -17.35 -34.25 -15.7 -36.25 L-12.3 -40.05 M-22.55 -40.2 Q-30.45 -31.7 -31.45 -20.15 -31.85 -16.55 -31.5 -12.65 L-31.25 -10.3 Q-30.15 -1.2 -23.85 10.35 L-23.85 10.4 Q-22.6 13.2 -22.1 16.0 -20.75 23.85 -25.2 31.4 M-16.75 -5.9 Q-13.4 -0.35 -10.95 5.95 -8.95 11.0 -7.65 16.45 L-7.45 17.8 Q-6.0 30.65 -8.35 39.0 M-14.1 -47.2 Q-19.0 -44.05 -22.55 -40.25 M16.45 -51.5 Q2.5 -56.3 -10.8 -49.2 L-14.1 -47.2 M10.05 -49.0 Q14.3 -48.45 17.95 -46.25 L28.05 -40.25 Q30.95 -42.6 18.5 -50.7 L16.45 -51.5 M10.05 -49.0 Q5.5 -49.6 0.2 -48.35 -6.85 -45.6 -12.3 -40.05 M-11.1 45.25 Q-9.4 42.5 -8.35 39.0"/><path fill="none" stroke="#99cc00" stroke-width="0.5" stroke-opacity="0.239215686275" d="M-22.55 -40.25 L-22.55 -40.2 M-8.35 39.0 L-7.9 39.75 M-14.1 -47.2 L-14.3 -47.95"/><path fill="#000000" fill-opacity="0.301960784314" d="M27.1 -44.1 Q29.5 -41.45 28.05 -40.25 L17.95 -46.25 Q14.3 -48.45 10.05 -49.0 5.5 -49.6 0.2 -48.35 -6.85 -45.6 -12.3 -40.05 L-15.7 -36.25 Q-17.35 -34.25 -18.7 -31.85 -24.6 -18.3 -17.7 -7.45 L-16.75 -5.9 Q-13.4 -0.35 -10.95 5.95 -8.95 11.0 -7.65 16.45 L-7.45 17.8 Q-6.0 30.65 -8.35 39.0 -9.4 42.5 -11.1 45.25 -17.9 44.5 -21.6 39.95 -18.15 33.85 -16.8 26.65 -15.7 20.75 -16.9 15.0 -17.45 12.3 -18.45 9.75 L-19.75 6.4 -24.45 -6.65 Q-26.0 -11.6 -26.4 -16.7 -26.65 -20.1 -26.4 -23.5 -26.2 -26.4 -25.3 -29.05 -23.6 -34.3 -19.5 -38.7 L-17.9 -40.0 -17.6 -40.25 Q-15.1 -42.9 -12.0 -44.95 -8.85 -47.2 -5.05 -48.85 0.9 -51.35 7.75 -51.5 L11.1 -51.25 Q15.9 -50.6 19.8 -47.95 23.3 -45.65 27.1 -44.1"/></g><g id="c17"><g><use transform="matrix(1.0,0.0,0.0,1.0,0.0,0.0)" xlink:href="#c16"/></g></g><g id="c18"><path fill="#4a4902" stroke="none" d="M21.7 27.0 Q23.65 28.05 26.9 28.4 L30.5 29.2 Q30.85 29.55 30.35 29.7 L28.35 30.0 23.0 29.5 22.9 29.45 21.3 29.2 21.25 29.2 20.6 29.05 21.7 27.0"/><path fill="none" stroke="#000000" stroke-width="0.5" stroke-opacity="0.152941176471" d="M23.0 29.5 L28.35 30.0 30.35 29.7 Q30.85 29.55 30.5 29.2 L26.9 28.4 Q23.65 28.05 21.7 27.0 M20.6 29.05 L21.25 29.2"/><path fill="#29342e" stroke="none" d="M44.45 10.6 L44.15 8.75 Q43.6 6.1 41.35 3.8 39.65 2.15 37.35 1.6 L38.0 0.55 39.05 0.75 41.25 2.2 43.6 4.8 Q45.35 7.55 44.45 10.6 M19.9 22.5 Q19.65 23.4 21.25 25.6 22.7 27.6 24.95 29.85 23.75 30.2 22.8 29.25 L19.2 24.7 Q19.5 26.85 21.0 29.15 L21.0 29.2 20.75 29.1 Q17.55 27.55 16.1 23.55 15.25 25.45 14.05 27.2 L11.2 26.2 Q11.65 24.3 11.75 20.55 L14.85 21.15 Q17.6 21.55 19.9 22.5 M1.65 17.85 L1.75 17.0 3.4 14.4 3.2 16.1 3.35 16.75 Q4.0 17.3 4.95 17.6 L9.2 19.6 11.45 20.45 Q10.3 23.9 9.15 25.35 L8.05 24.8 5.7 23.65 5.5 23.6 5.45 23.55 5.3 23.4 Q4.75 22.65 5.05 19.6 L1.4 21.3 Q0.45 20.4 0.0 19.15 L0.15 18.9 Q1.35 18.65 1.65 17.85"/><path fill="#222b25" stroke="none" d="M37.35 1.6 Q39.65 2.15 41.35 3.8 43.6 6.1 44.15 8.75 L44.45 10.6 Q43.35 15.05 39.15 19.8 34.9 24.45 24.95 29.85 22.7 27.6 21.25 25.6 19.65 23.4 19.9 22.5 19.6 19.2 21.0 17.0 L22.2 15.2 23.4 13.4 25.35 10.8 27.75 8.35 30.0 6.0 33.5 3.0 Q35.65 1.15 37.2 1.55 L37.35 1.6 M1.4 21.3 L5.05 19.6 Q4.75 22.65 5.3 23.4 4.55 22.7 3.75 22.15 2.8 21.55 1.4 21.3 M9.15 25.35 Q10.3 23.9 11.45 20.45 12.05 17.45 12.5 17.25 L11.75 20.55 Q11.65 24.3 11.2 26.2 10.9 25.1 9.15 25.35 M14.05 27.2 Q15.25 25.45 16.1 23.55 17.55 27.55 20.75 29.1 L20.15 28.9 17.65 27.9 14.05 27.2 M21.0 29.15 Q19.5 26.85 19.2 24.7 L22.8 29.25 21.6 28.95 21.0 29.15"/><path fill="#566d58" stroke="none" d="M39.05 0.75 L38.0 0.55 Q36.15 0.3 34.5 1.2 L31.4 3.55 31.15 3.65 Q34.1 0.8 31.3 0.75 L33.0 0.35 Q35.8 -0.3 37.9 0.35 L38.1 0.4 39.05 0.75"/><path fill="#2f3b34" stroke="none" d="M38.0 0.55 L37.35 1.6 37.2 1.55 Q35.65 1.15 33.5 3.0 L30.0 6.0 27.75 8.35 25.35 10.8 23.4 13.4 22.2 15.2 21.0 17.0 Q19.6 19.2 19.9 22.5 17.6 21.55 14.85 21.15 L11.75 20.55 12.5 17.25 Q12.05 17.45 11.45 20.45 L9.2 19.6 4.95 17.6 Q4.0 17.3 3.35 16.75 L3.2 16.1 3.4 14.4 Q4.65 12.5 6.25 11.1 5.55 11.75 6.05 12.4 L6.95 13.25 7.1 13.3 Q7.9 13.9 8.9 14.2 11.25 15.0 13.8 15.3 L17.05 15.45 21.0 15.45 Q23.95 10.2 28.95 5.6 L26.75 5.6 31.15 3.65 31.4 3.55 34.5 1.2 Q36.15 0.3 38.0 0.55"/><path fill="#496152" stroke="none" d="M31.3 0.75 Q34.1 0.8 31.15 3.65 L26.75 5.6 28.95 5.6 Q23.95 10.2 21.0 15.45 L17.05 15.45 13.8 15.3 Q11.25 15.0 8.9 14.2 7.9 13.9 7.1 13.3 L6.95 13.25 6.05 12.4 Q5.55 11.75 6.25 11.1 L6.3 11.0 7.1 10.35 11.05 7.6 11.9 7.05 Q14.3 5.55 16.95 4.5 18.95 3.6 21.0 3.0 L27.0 1.55 31.3 0.75"/><path fill="none" stroke="#000000" stroke-width="0.5" stroke-opacity="0.470588235294" d="M37.35 1.6 Q39.65 2.15 41.35 3.8 43.6 6.1 44.15 8.75 L44.45 10.6 Q45.35 7.55 43.6 4.8 L41.25 2.2 39.05 0.75 38.1 0.4 37.9 0.35 Q35.8 -0.3 33.0 0.35 L31.3 0.75 27.0 1.55 21.0 3.0 Q18.95 3.6 16.95 4.5 14.3 5.55 11.9 7.05 L11.05 7.6 7.1 10.35 6.3 11.0 6.25 11.1 M37.35 1.6 L37.2 1.55 Q35.65 1.15 33.5 3.0 L30.0 6.0 27.75 8.35 25.35 10.8 23.4 13.4 22.2 15.2 21.0 17.0 Q19.6 19.2 19.9 22.5 M3.4 14.4 L1.75 17.0 1.65 17.85 M3.4 14.4 Q4.65 12.5 6.25 11.1"/><path fill="none" stroke="#000000" stroke-width="0.5" stroke-opacity="0.301960784314" d="M24.95 29.85 Q34.9 24.45 39.15 19.8 43.35 15.05 44.45 10.6"/><path fill="#566d58" stroke="none" d="M25.0 5.8 Q27.7 4.1 29.35 4.9 24.95 8.25 22.1 12.7 20.3 12.75 20.2 12.15 21.7 9.0 25.0 5.8"/><path fill="#3e3e22" stroke="none" d="M20.6 11.1 Q17.5 15.05 16.1 20.6 L16.05 17.85 Q18.35 12.5 20.6 11.1"/><path fill="none" stroke="#b8bb9d" stroke-width="0.5" d="M30.1 1.45 L31.1 1.05 M18.3 14.9 L18.75 13.85 M22.7 8.3 L21.65 9.65 M27.1 4.0 L25.4 5.05"/><path fill="none" stroke="#7e835c" stroke-width="0.5" d="M14.8 25.55 L14.8 26.65 M16.7 19.1 L16.1 20.5"/><path fill="#777257" stroke="none" d="M19.95 5.35 L21.55 5.6 19.8 5.6 Q19.2 6.3 18.15 6.55 16.9 6.8 15.55 7.65 14.15 8.45 13.1 8.1 12.1 7.75 12.1 7.25 12.1 6.75 13.15 6.35 L14.25 5.9 15.15 5.25 Q19.25 3.05 23.8 2.3 20.55 3.45 21.75 4.7 L19.95 5.35 M27.2 2.2 L24.4 2.0 28.85 1.25 27.2 2.2"/><path fill="none" stroke="#000000" stroke-width="0.5" stroke-opacity="0.152941176471" d="M15.4 5.1 Q11.15 7.4 9.4 13.05 M18.35 28.6 Q16.05 27.15 15.95 22.85"/></g><g id="c19"><g><use transform="matrix(1.0,0.0,0.0,1.0,0.0,0.0)" xlink:href="#c18"/></g></g><g id="c20"><path fill="#022002" stroke="none" d="M20.6 6.05 L20.5 5.95 20.55 5.95 20.6 6.05"/><path fill="#260d0d" stroke="none" d="M20.55 5.95 L20.5 5.95 20.6 6.05 Q22.85 12.7 19.85 15.75 L18.2 15.8 18.5 15.55 Q19.95 14.6 20.35 13.25 L20.75 11.8 Q20.75 10.85 20.35 9.9 19.55 7.25 18.2 4.85 L17.8 4.15 16.65 2.55 18.65 3.15 20.55 5.95"/><path fill="#1c1c0f" stroke="none" d="M20.6 6.05 L20.55 5.95 18.65 3.15 Q21.05 3.95 24.2 5.95 24.45 6.6 24.35 7.4 L24.05 9.1 23.2 11.75 Q22.65 7.25 20.6 6.05"/><path fill="#16150c" stroke="none" d="M24.2 5.95 Q21.05 3.95 18.65 3.15 16.2 0.35 14.6 1.0 L14.9 0.75 Q16.5 -0.25 17.65 0.05 20.05 0.6 21.8 2.3 23.45 4.05 24.2 5.95"/><path fill="#1a0000" stroke="none" d="M18.65 3.15 L16.65 2.55 17.8 4.15 18.2 4.85 Q19.55 7.25 20.35 9.9 20.75 10.85 20.75 11.8 L20.35 13.25 Q19.95 14.6 18.5 15.55 L18.2 15.8 16.2 15.9 17.85 14.85 Q19.05 14.05 19.45 12.95 L19.8 11.75 19.55 10.15 Q18.75 7.55 17.45 5.35 L15.95 3.25 14.9 2.3 13.95 1.5 14.6 1.0 Q16.2 0.35 18.65 3.15"/><path fill="#212012" stroke="none" d="M19.85 15.75 Q22.85 12.7 20.6 6.05 22.65 7.25 23.2 11.75 L22.6 12.95 21.9 14.35 Q21.6 15.05 20.5 15.65 L19.85 15.75"/><path fill="#000000" stroke="none" d="M13.95 1.5 L14.9 2.3 15.95 3.25 17.45 5.35 Q18.75 7.55 19.55 10.15 L19.8 11.75 19.45 12.95 Q19.05 14.05 17.85 14.85 L16.2 15.9 15.8 16.15 Q9.65 18.05 5.95 20.75 L1.65 24.2 Q0.3 22.65 0.05 20.7 -0.2 18.75 0.5 16.7 1.2 14.65 3.45 11.9 5.7 9.1 8.1 6.75 L13.05 2.2 13.95 1.5"/><path fill="none" stroke="#000000" stroke-width="0.5" stroke-opacity="0.470588235294" d="M14.6 1.0 L13.95 1.5 M14.6 1.0 L14.9 0.75 Q16.5 -0.25 17.65 0.05"/><path fill="#7c7529" fill-opacity="0.301960784314" d="M13.55 9.4 Q13.1 9.75 12.7 10.45 12.35 11.15 12.35 11.7 12.35 12.3 12.7 12.5 L13.55 12.3 14.35 11.25 Q14.75 10.55 14.75 9.95 14.75 9.35 14.35 9.15 14.0 9.0 13.55 9.4 M13.5 8.1 Q14.4 7.4 15.05 7.7 15.8 8.05 15.8 9.2 15.8 10.25 15.05 11.65 14.4 12.95 13.5 13.65 12.6 14.35 11.95 14.1 11.3 13.7 11.25 12.6 11.3 11.4 11.95 10.15 12.6 8.75 13.5 8.1"/><path fill="#ffffff" stroke="none" d="M13.55 9.4 Q14.0 9.0 14.35 9.15 14.75 9.35 14.75 9.95 14.75 10.55 14.35 11.25 L13.55 12.3 12.7 12.5 Q12.35 12.3 12.35 11.7 12.35 11.15 12.7 10.45 13.1 9.75 13.55 9.4"/><path fill="#ffffff" stroke="none" d="M3.6 16.15 Q3.6 15.65 3.9 15.05 4.25 14.4 4.7 14.1 5.1 13.75 5.4 13.9 5.75 14.05 5.75 14.6 L5.4 15.75 4.7 16.7 3.9 16.85 Q3.6 16.7 3.6 16.15"/><path fill="#7c7529" fill-opacity="0.301960784314" d="M3.6 16.15 Q3.6 16.7 3.9 16.85 L4.7 16.7 5.4 15.75 5.75 14.6 Q5.75 14.05 5.4 13.9 5.1 13.75 4.7 14.1 4.25 14.4 3.9 15.05 3.6 15.65 3.6 16.15 M6.65 13.95 Q6.65 14.9 6.0 16.1 5.45 17.3 4.6 17.85 3.85 18.5 3.25 18.3 2.7 17.95 2.65 16.95 2.7 15.9 3.25 14.75 3.85 13.55 4.6 12.95 5.45 12.3 6.0 12.6 6.65 12.9 6.65 13.95"/><path fill="#e0e3d0" stroke="none" d="M11.9 15.6 Q12.4 16.4 12.5 17.55 L11.2 18.2 Q10.7 17.65 10.6 16.3 11.1 15.7 11.9 15.6 M8.2 19.9 L6.7 20.9 Q6.0 20.3 5.75 18.8 6.15 18.05 7.1 17.85 7.9 18.6 8.2 19.9"/><path fill="#cac9b5" stroke="none" d="M14.45 17.55 Q14.05 16.7 14.35 15.15 15.1 14.6 15.9 14.75 16.15 15.8 16.0 17.2 L14.45 17.55 M4.2 20.8 Q4.45 20.25 5.2 20.05 L5.95 21.45 5.0 22.2 Q4.5 21.8 4.2 20.8"/><path fill="#b5b197" stroke="none" d="M17.05 17.3 Q17.3 16.25 17.75 15.5 18.4 15.35 18.75 15.7 18.6 16.85 18.1 17.45 L17.05 17.3 M2.1 23.55 Q2.2 22.95 2.8 22.6 3.5 22.8 4.15 23.35 L3.45 24.35 Q2.8 24.3 2.1 23.55"/></g><g id="c21"><g><use transform="matrix(1.0,0.0,0.0,1.0,0.0,0.0)" xlink:href="#c20"/></g></g><g id="c22"><path fill="#3c3c00" stroke="none" d="M9.85 0.05 Q9.1 -0.15 8.3 0.4 7.8 0.8 7.25 1.55 L7.05 2.65 Q7.75 3.35 8.65 2.5 9.4 1.9 9.6 2.1 L9.7 1.6 9.65 1.4 9.85 0.05 M8.95 3.75 L7.25 5.75 5.55 7.0 4.9 7.25 4.85 7.25 Q-0.35 8.1 0.0 8.75 -0.05 9.1 2.85 9.65 L8.15 9.1 8.3 9.05 9.1 5.65 8.95 3.75 M8.4 1.3 Q9.45 0.45 9.65 1.4 9.45 0.45 8.4 1.3"/><path fill="#464600" stroke="none" d="M9.6 2.1 L9.15 3.3 8.95 3.75 9.1 5.65 8.3 9.05 9.35 8.6 Q10.9 7.7 11.45 6.2 11.95 2.55 10.85 0.8 L10.6 0.45 9.85 0.05 9.65 1.4 9.7 1.6 9.6 2.1"/><path fill="none" stroke="#382510" stroke-width="0.5" stroke-opacity="0.301960784314" d="M9.85 0.05 Q9.1 -0.15 8.3 0.4 7.8 0.8 7.25 1.55 L7.05 2.65 Q7.75 3.35 8.65 2.5 9.4 1.9 9.6 2.1 L9.15 3.3 M8.95 3.75 L7.25 5.75 5.55 7.0 4.9 7.25 4.85 7.25 Q-0.35 8.1 0.0 8.75 -0.05 9.1 2.85 9.65 L8.15 9.1 M8.3 9.05 L9.35 8.6 Q10.9 7.7 11.45 6.2 11.95 2.55 10.85 0.8 L10.6 0.45 9.85 0.05 M9.65 1.4 Q9.45 0.45 8.4 1.3 M9.65 1.4 L9.7 1.6 9.6 2.1"/></g><g id="c23"><g><use transform="matrix(1.0,0.0,0.0,1.0,0.0,0.0)" xlink:href="#c22"/></g></g><g id="c24"><path fill="#757502" stroke="none" d="M7.25 2.0 L7.25 2.15 6.9 2.6 5.9 2.7 5.55 2.6 5.0 2.2 3.6 1.6 2.65 1.35 Q2.35 1.05 2.5 0.9 2.55 0.6 2.9 0.3 L3.2 0.2 3.7 0.1 3.8 0.05 4.4 0.1 5.4 0.55 6.9 1.65 7.0 1.75 7.25 2.0"/><path fill="#4a4902" stroke="none" d="M3.2 0.2 L2.9 0.3 Q2.55 0.6 2.5 0.9 2.35 1.05 2.65 1.35 L3.6 1.6 5.0 2.2 5.55 2.6 5.9 2.7 6.9 2.6 7.25 2.15 7.25 2.0 Q7.95 2.6 8.05 3.5 L8.1 3.55 8.05 4.35 Q7.4 4.9 6.7 4.6 L4.9 2.65 Q3.3 1.75 2.65 2.05 L1.0 3.3 0.0 2.55 Q0.15 1.3 1.6 0.55 2.35 0.0 3.25 0.0 L3.2 0.2"/><path fill="#2b2b00" stroke="none" d="M1.0 3.3 L2.65 2.05 Q3.3 1.75 4.9 2.65 L6.7 4.6 Q7.4 4.9 8.05 4.35 L7.45 4.9 7.35 4.95 Q6.8 5.1 6.3 4.7 L5.6 4.1 5.3 3.7 5.1 3.5 Q4.35 2.75 3.6 2.9 2.75 2.95 2.3 3.55 L1.0 3.3"/></g><g id="c25"><g><use transform="matrix(1.0,0.0,0.0,1.0,0.0,0.0)" xlink:href="#c24"/></g></g><g id="c26"><g><use transform="matrix(1.0,0.0,0.0,1.0,-33.05,-12.65)" xlink:href="#c15"/></g><g><use transform="matrix(0.403594970703,-0.231262207031,0.140869140625,0.456359863281,8.4,-26.65)" xlink:href="#c17"/></g><g><use transform="matrix(1.0,0.0,0.0,1.0,-23.8,-18.0)" xlink:href="#c19"/></g><g><use transform="matrix(1.0,0.0,0.0,1.0,-4.25,-16.55)" xlink:href="#c21"/></g><g><use transform="matrix(1.0,0.0,0.0,1.0,14.75,-7.55)" xlink:href="#c23"/></g><g><use transform="matrix(1.0,0.0,0.0,1.0,9.5,-0.25)" xlink:href="#c25"/></g><g><use transform="matrix(-0.361251831055,-0.133117675781,0.11344909668,0.550277709961,-20.5,-16.7)" xlink:href="#c17"/></g></g><g id="c27"><g><use transform="matrix(-1.59997558594,0.0,0.0,1.59997558594,52.8,92.25)" xlink:href="#c26"/></g></g><g id="c28"><path fill="none" stroke="#ffcc00" stroke-width="0.5" d="M37.8 93.2 L26.1 97.0 Q23.45 97.8 21.8 96.65 20.65 95.9 19.95 94.25 L8.0 67.8 7.9 67.65 7.5 66.8 5.55 62.4 Q4.25 59.55 6.0 58.1 L7.5 57.25 11.8 55.6 Q15.25 54.3 16.95 57.5 L28.6 53.75 Q32.85 52.35 34.75 56.45 L46.85 83.3 47.2 84.05 49.25 88.5 Q50.25 90.7 49.45 92.05 48.8 93.05 47.25 93.6 L42.95 95.15 41.4 95.55 Q39.05 95.65 37.8 93.2"/></g><linearGradient gradientUnits="userSpaceOnUse" x1="-819.2" x2="819.2" spreadMethod="pad" gradientTransform="matrix(-0.0125732421875,0.0326843261719,-0.0249176025391,-0.0216674804688,24.2,31.15)" id="gradient7"><stop offset="0.0" stop-opacity="0.337254901961"/><stop offset="1.0" stop-opacity="0.0"/></linearGradient><linearGradient gradientUnits="userSpaceOnUse" x1="-819.2" x2="819.2" spreadMethod="pad" gradientTransform="matrix(-0.00735473632812,0.0279541015625,-0.0266723632812,-0.0160522460938,34.25,42.6)" id="gradient8"><stop offset="0.0" stop-opacity="0.337254901961"/><stop offset="1.0" stop-opacity="0.0"/></linearGradient><linearGradient gradientUnits="userSpaceOnUse" x1="-819.2" x2="819.2" spreadMethod="pad" gradientTransform="matrix(0.0,0.0374755859375,-0.0333709716797,-0.0137786865234,15.9,31.9)" id="gradient9"><stop offset="0.0" stop-opacity="0.337254901961"/><stop offset="1.0" stop-opacity="0.0"/></linearGradient><linearGradient gradientUnits="userSpaceOnUse" x1="-819.2" x2="819.2" spreadMethod="pad" gradientTransform="matrix(-0.00982666015625,0.0286254882812,-0.0181274414062,-0.0141143798828,4.1,18.2)" id="gradient10"><stop offset="0.0" stop-opacity="0.337254901961"/><stop offset="1.0" stop-opacity="0.0"/></linearGradient><g id="c29"><path stroke="none" fill="url(#gradient7)" d="M26.45 9.0 L26.45 45.2 21.35 45.2 21.35 9.0 26.45 9.0"/><path stroke="none" fill="url(#gradient8)" d="M31.7 45.2 L31.7 17.3 36.8 24.7 36.8 45.2 31.7 45.2"/><path stroke="none" fill="url(#gradient9)" d="M15.65 9.0 L14.95 45.2 9.35 45.2 9.6 9.0 15.65 9.0"/><path stroke="none" fill="url(#gradient10)" d="M5.1 9.0 L5.1 40.3 0.0 40.3 0.0 9.0 5.1 9.0"/></g><g id="c30"><g><use transform="matrix(1.0,0.0,0.0,1.0,0.0,0.0)" xlink:href="#c29"/></g></g><g id="c31"><path fill="#fefd8d" fill-opacity="0.972549019608" d="M33.85 83.75 L33.85 83.8 33.85 83.95 33.85 84.0 33.85 84.1 33.9 84.1 33.9 84.15 34.35 84.4 34.85 84.75 34.35 84.45 34.1 84.3 34.05 84.25 33.95 84.2 33.9 84.2 33.9 84.7 33.9 85.25 33.85 84.75 33.75 84.2 33.7 84.1 33.5 84.25 33.0 84.55 32.7 84.7 32.95 84.5 33.4 84.3 33.45 84.25 33.5 84.2 33.7 84.1 33.65 84.05 33.7 84.05 33.7 84.0 33.3 83.6 32.95 83.25 33.3 83.55 33.55 83.8 33.7 83.95 33.8 83.4 33.9 82.95 33.85 83.35 33.85 83.75 M34.25 84.0 L34.15 84.0 33.9 84.05 34.15 83.95 34.7 83.75 35.2 83.65 34.85 83.75 34.95 83.85 34.85 83.75 34.7 83.8 34.4 83.9 34.35 83.9 34.25 84.0 M34.95 83.85 L35.65 84.4 36.45 85.15 36.5 85.2 36.75 85.45 36.9 85.55 36.9 85.5 37.1 83.9 37.35 82.3 37.45 81.75 37.4 82.25 37.4 83.85 37.2 85.6 37.35 86.0 37.4 86.1 38.7 86.9 40.15 87.75 40.55 88.05 40.1 87.8 38.75 87.05 37.75 86.45 37.4 86.25 37.35 86.2 37.4 86.3 37.5 87.75 37.55 89.45 37.6 90.0 37.5 89.5 37.25 87.9 37.05 86.25 37.0 86.3 36.9 85.9 36.7 85.75 36.9 85.85 36.9 85.65 35.7 84.55 34.95 83.85 M35.7 86.65 L36.1 86.45 36.2 86.4 36.85 86.1 36.3 86.45 34.8 87.25 33.35 88.0 32.8 88.25 33.3 88.0 34.65 87.2 35.7 86.65 M41.85 84.45 L41.35 84.6 39.85 85.15 38.15 85.7 37.5 85.9 Q37.45 85.85 38.1 85.65 L39.7 85.1 41.3 84.6 41.85 84.45"/><path fill="#fffd8f" fill-opacity="0.4" d="M33.85 83.75 L34.05 83.4 34.25 83.2 34.15 83.4 34.0 83.8 33.9 83.9 33.85 83.8 33.85 83.75 M34.1 84.3 L34.35 84.5 34.45 84.65 34.25 84.5 34.0 84.3 33.95 84.2 34.05 84.25 34.1 84.3 M33.4 84.3 L33.3 84.3 32.95 84.45 32.7 84.55 32.95 84.4 33.35 84.25 33.45 84.25 33.4 84.3 M33.55 83.8 L33.4 83.6 33.6 83.8 33.65 83.9 33.55 83.8 M34.25 84.0 L34.35 83.9 34.4 83.9 34.65 83.85 34.95 83.85 35.05 83.8 34.95 83.85 34.7 83.9 34.3 84.0 34.2 84.0 34.25 84.0 M36.45 85.15 L35.85 84.4 35.45 83.85 35.95 84.3 36.65 85.15 36.9 85.5 36.75 85.45 36.5 85.2 36.45 85.15 M37.75 86.45 Q38.15 86.7 38.6 87.1 L39.3 87.75 38.5 87.15 37.6 86.5 37.4 86.3 37.35 86.2 37.4 86.25 37.75 86.45 M33.6 84.3 L33.7 84.2 33.75 84.35 33.65 84.7 33.55 85.05 33.55 84.75 33.6 84.3 M37.65 85.15 L37.35 85.5 37.35 85.0 37.9 84.05 38.5 83.1 38.7 82.75 38.55 83.1 38.15 84.05 37.65 85.15 M35.7 86.65 L34.7 87.0 33.8 87.3 34.7 86.95 35.75 86.5 36.1 86.45 35.7 86.65 M38.7 85.65 L38.25 85.7 38.7 85.55 39.75 85.35 40.7 85.2 41.05 85.15 40.75 85.25 39.8 85.45 38.7 85.65 M36.7 86.7 L36.95 86.25 37.0 86.75 36.65 87.8 36.3 88.85 36.15 89.25 36.25 88.85 36.4 87.85 Q36.5 87.1 36.7 86.7"/><path fill="#fffd8f" fill-opacity="0.392156862745" d="M38.0 86.75 Q37.9 86.0 37.45 85.8 L36.9 85.85 Q36.75 86.1 36.9 86.5 37.1 87.0 37.65 87.3 L38.35 87.95 38.6 88.25 38.45 87.85 38.0 86.75"/><path fill="#fffd8f" fill-opacity="0.392156862745" d="M38.0 86.25 L37.05 85.85 Q36.8 85.8 36.95 85.95 L37.55 86.35 38.35 86.6 Q38.8 86.65 39.05 86.85 L39.35 86.95 39.0 86.75 38.0 86.25"/><path fill="#fffd8f" fill-opacity="0.392156862745" d="M36.4 84.8 Q36.35 85.55 36.75 85.85 L37.3 85.9 37.45 85.25 Q37.35 84.75 36.9 84.35 36.35 83.9 36.3 83.55 L36.1 83.25 36.2 83.65 36.4 84.8"/><path fill="#fffd8f" fill-opacity="0.392156862745" d="M36.25 85.35 L37.1 85.95 37.2 85.8 36.75 85.3 35.95 84.9 Q35.55 84.75 35.3 84.6 L35.05 84.45 35.35 84.65 36.25 85.35"/><path fill="#fffd8f" fill-opacity="0.392156862745" d="M38.75 85.2 Q38.0 85.45 37.85 85.65 37.7 85.85 37.85 85.8 L38.5 85.65 39.25 85.2 39.9 84.75 40.15 84.6 39.75 84.75 38.75 85.2"/><path fill="#fffd8f" fill-opacity="0.392156862745" d="M35.75 87.0 L36.6 86.4 36.5 86.25 Q36.25 86.25 35.9 86.5 L35.25 87.1 34.7 87.65 Q34.4 87.8 34.45 87.85 L34.8 87.6 35.75 87.0"/><path fill="#fffd8f" fill-opacity="0.392156862745" d="M34.1 84.35 L33.95 84.05 33.75 84.05 Q33.65 84.1 33.7 84.25 L34.0 84.55 34.2 84.75 34.3 84.85 34.2 84.75 34.1 84.35"/><path fill="#fffd8f" fill-opacity="0.392156862745" d="M34.1 84.2 Q33.9 84.05 33.75 84.05 L33.75 84.1 33.95 84.2 34.2 84.3 34.5 84.4 34.55 84.4 34.45 84.4 34.1 84.2"/><path fill="#fffd8f" fill-opacity="0.392156862745" d="M33.5 83.65 L33.65 84.05 33.85 84.05 33.9 83.85 33.65 83.55 33.5 83.25 33.45 83.15 33.5 83.25 33.5 83.65"/><path fill="#fffd8f" fill-opacity="0.392156862745" d="M33.5 83.9 L33.75 84.05 33.8 84.0 33.65 83.85 33.35 83.7 33.2 83.6 33.05 83.55 33.15 83.6 33.5 83.9"/><path fill="#fffd8f" fill-opacity="0.392156862745" d="M34.3 83.8 L34.05 83.95 34.05 84.0 34.25 83.95 34.55 83.8 Q34.6 83.7 34.7 83.7 L34.8 83.6 34.7 83.65 34.3 83.8"/><path fill="#fffd8f" fill-opacity="0.392156862745" d="M33.3 84.45 L33.6 84.2 33.6 84.15 Q33.5 84.15 33.4 84.3 L33.15 84.45 32.95 84.65 32.85 84.75 33.0 84.6 33.3 84.45"/><path fill="#ffffff" stroke="none" d="M36.3 85.35 Q36.05 85.7 36.05 86.15 L36.5 86.9 37.3 87.15 38.05 86.75 38.25 85.9 37.85 85.2 37.05 84.95 36.3 85.35"/><path fill="#fefd8d" fill-opacity="0.972549019608" d="M18.75 62.3 L18.65 62.35 18.2 62.45 18.6 62.25 19.85 61.9 21.0 61.5 21.4 61.35 21.05 61.5 19.9 61.9 18.75 62.3 M17.45 61.95 L17.7 62.2 17.75 62.2 17.7 62.15 17.85 61.05 18.05 59.85 18.15 59.4 18.1 59.8 18.05 61.0 18.0 62.25 18.1 62.6 19.15 63.2 20.0 63.75 19.15 63.3 18.5 62.95 18.4 62.85 18.15 62.7 18.1 62.7 18.15 62.75 18.2 63.85 18.2 64.9 18.0 64.0 17.85 62.8 17.8 62.8 17.75 62.45 17.6 62.3 17.7 62.35 17.7 62.3 16.85 61.5 15.9 60.65 15.65 60.35 15.95 60.65 16.8 61.4 17.45 61.95 M14.7 64.25 L15.05 64.05 16.1 63.45 17.25 62.85 17.7 62.65 17.3 62.95 16.2 63.45 15.1 64.05 14.7 64.25"/><path fill="#fffd8f" fill-opacity="0.4" d="M18.75 62.3 L19.1 62.2 19.85 62.05 20.6 61.95 19.85 62.15 19.05 62.3 18.75 62.3 M17.45 61.95 L16.95 61.35 16.5 60.75 17.0 61.3 17.55 61.95 17.7 62.15 17.75 62.2 17.7 62.2 17.45 61.95 M18.5 62.95 L19.0 63.35 19.6 63.8 19.8 64.0 19.6 63.85 18.95 63.4 18.3 62.9 18.15 62.75 18.1 62.7 18.15 62.7 18.4 62.85 18.5 62.95 M18.3 61.9 L18.05 62.2 18.1 61.85 18.45 61.15 18.9 60.4 19.1 60.2 18.95 60.4 18.65 61.15 18.3 61.9 M17.55 63.1 L17.75 62.75 17.8 63.1 17.6 63.95 17.25 64.7 17.15 64.95 17.2 64.7 17.4 63.9 Q17.4 63.4 17.55 63.1 M16.9 62.9 L17.2 62.85 Q17.15 62.9 16.85 63.05 L16.15 63.3 15.45 63.55 15.2 63.6 15.45 63.5 16.1 63.25 Q16.6 63.0 16.9 62.9"/><path fill="#fffd8f" fill-opacity="0.392156862745" d="M18.6 63.1 L18.15 62.4 17.7 62.45 17.75 62.95 18.3 63.55 Q18.75 63.8 18.8 64.0 L19.0 64.25 18.85 63.95 18.6 63.1"/><path fill="#fffd8f" fill-opacity="0.392156862745" d="M18.55 62.7 Q18.05 62.4 17.9 62.4 17.7 62.4 17.8 62.5 L18.25 62.8 18.85 63.0 19.35 63.15 19.6 63.2 19.35 63.1 18.55 62.7"/><path fill="#fffd8f" fill-opacity="0.392156862745" d="M17.3 61.7 Q17.35 62.3 17.55 62.45 L18.0 62.5 18.1 62.0 17.65 61.35 17.25 60.75 17.15 60.5 17.2 60.8 17.3 61.7"/><path fill="#fffd8f" fill-opacity="0.392156862745" d="M17.25 62.1 L17.9 62.5 17.95 62.45 17.6 62.05 17.05 61.75 16.55 61.5 16.35 61.4 16.55 61.6 Q16.8 61.7 17.25 62.1"/><path fill="#fffd8f" fill-opacity="0.392156862745" d="M19.05 61.9 L18.4 62.3 18.45 62.4 18.9 62.3 19.5 61.95 19.95 61.6 20.15 61.5 19.85 61.6 19.05 61.9"/><path fill="#fffd8f" fill-opacity="0.392156862745" d="M16.9 63.3 L17.5 62.85 17.45 62.7 17.05 62.9 16.5 63.35 16.15 63.75 15.95 63.95 16.2 63.75 16.9 63.3"/><path fill="#ffffff" stroke="none" d="M17.4 62.1 Q17.15 62.35 17.2 62.65 L17.55 63.25 18.1 63.4 18.7 63.1 18.85 62.5 18.55 61.95 17.9 61.75 17.4 62.1"/><path fill="#ffffff" stroke="none" d="M33.55 83.9 L33.45 84.15 33.6 84.45 33.85 84.5 34.15 84.4 34.2 84.05 34.1 83.85 33.75 83.75 33.55 83.9"/></g><g id="c32"><g><use transform="matrix(1.0,0.0,0.0,1.0,6.3,53.35)" xlink:href="#c9"/></g><mask id="mask10"><use transform="matrix(1.0,0.0,0.0,1.0,0.0,0.0)" xlink:href="#c10"/></mask><g mask="url(#mask10)"><use transform="matrix(1.19317626953,0.0,0.0,1.19317626953,2.45,49.2)" xlink:href="#c12"/></g><g><use transform="matrix(-0.146041870117,0.0488891601562,0.0616760253906,0.140441894531,33.05,63.95)" xlink:href="#c27"/></g><g><use transform="matrix(1.0,0.0,0.0,1.0,0.0,0.0)" xlink:href="#c28"/></g><mask id="mask10"><use transform="matrix(1.0,0.0,0.0,1.0,0.0,0.0)" xlink:href="#c10"/></mask><g mask="url(#mask10)"><use transform="matrix(1.0,0.0,0.0,1.0,9.65,51.0)" filter="url(#filter32)" xlink:href="#c30"/></g><g mask="url(#mask10)"><use transform="matrix(1.0,0.0,0.0,1.0,9.65,47.6)" filter="url(#filter33)" xlink:href="#c30"/></g><g mask="url(#mask10)"><use transform="matrix(1.0,0.0,0.0,1.0,0.0,0.0)" xlink:href="#c31"/></g><g><use transform="matrix(0.141098022461,-0.0378112792969,0.111373901367,0.225646972656,27.2,74.05)" filter="url(#filter35)" xlink:href="#c6"/></g></g><filter id="filter32"><feColorMatrix in="SourceGraphic" type="matrix" values="0.0 0.0 0.0 0.0 0.99609375 0.0 0.0 0.0 0.0 0.99609375 0.0 0.0 0.0 0.0 0.99609375 0.0 0.0 0.0 1.0 0.0" result="cxform"/><feComposite operator="in" in2="SourceGraphic" result="color-xform"/></filter><filter id="filter33"><feColorMatrix in="SourceGraphic" type="matrix" values="0.0 0.0 0.0 0.0 0.99609375 0.0 0.0 0.0 0.0 0.99609375 0.0 0.0 0.0 0.0 0.99609375 0.0 0.0 0.0 1.0 0.0" result="cxform"/><feComposite operator="in" in2="SourceGraphic" result="color-xform"/></filter><filter id="filter35"><feColorMatrix in="SourceGraphic" type="matrix" values="1.0 0.0 0.0 0.0 0.0 0.0 1.0 0.0 0.0 0.0 0.0 0.0 1.0 0.0 0.0 0.0 0.0 0.0 0.23046875 0.0" result="cxform"/><feComposite operator="in" in2="SourceGraphic" result="color-xform"/></filter></defs><g><g><use transform="matrix(1.0,0.0,0.0,1.0,0.0,0.0)" xlink:href="#c1"/></g><g><use transform="matrix(1.15492248535,0.0,0.0,1.15492248535,-1.5,-57.7)" xlink:href="#c32"/></g></g></svg>