<?xml version='1.0' encoding='UTF-8'?>
<svg xmlns:xlink="http://www.w3.org/1999/xlink" xmlns="http://www.w3.org/2000/svg" version="1.1" width="60px" height="60px" viewBox="0.0 0.0 60.0 60.0"><defs><g id="c1"><path fill="#000000" fill-opacity="0.00392156862745" d="M0.0 0.0 L60.0 0.0 60.0 60.0 0.0 60.0 0.0 0.0"/></g><g id="c2"><path fill="none" stroke="#000000" stroke-width="1.0" stroke-opacity="0.301960784314" d="M22.3 0.35 Q26.6 -1.0 28.5 3.05 L41.4 31.7 Q43.1 35.4 39.9 36.85 L38.15 37.65 19.65 43.65 Q17.05 44.5 15.35 43.3 14.2 42.55 13.5 40.9 L0.55 12.25 Q-0.6 9.75 0.6 8.25 1.15 7.55 2.2 7.05 2.85 6.6 3.8 6.3 L22.3 0.35"/><path fill="#300525" stroke="none" d="M25.55 0.9 Q26.9 1.6 27.8 3.55 L40.7 32.15 Q42.6 36.3 38.3 37.65 L23.3 42.5 13.15 21.4 4.6 20.9 0.7 12.25 Q-0.45 9.75 0.75 8.25 L29.8 9.75 25.55 0.9 M20.1 43.55 L19.8 43.65 Q17.15 44.45 15.5 43.3 L20.1 43.55"/><path fill="#630a4c" stroke="none" d="M23.3 42.5 L20.1 43.55 15.5 43.3 Q14.35 42.55 13.65 40.9 L4.6 20.9 13.15 21.4 23.3 42.5 M0.75 8.25 Q1.45 7.3 3.1 6.75 L21.65 0.8 25.55 0.9 29.8 9.75 0.75 8.25"/><path fill="none" stroke="#000000" stroke-width="0.5" stroke-opacity="0.301960784314" d="M25.55 0.9 Q26.9 1.6 27.8 3.55 L40.7 32.15 Q42.6 36.3 38.3 37.65 L23.3 42.5 20.1 43.55 19.8 43.65 Q17.15 44.45 15.5 43.3 14.35 42.55 13.65 40.9 L4.6 20.9 0.7 12.25 Q-0.45 9.75 0.75 8.25 1.45 7.3 3.1 6.75 L21.65 0.8 25.55 0.9"/><path fill="#9d147b" stroke="none" d="M14.2 40.5 L1.35 11.8 Q-0.5 7.75 3.8 6.35 L22.3 0.4 Q26.55 -1.0 28.45 3.1 L41.35 31.7 Q43.25 35.85 38.9 37.25 L20.4 43.2 Q16.1 44.55 14.2 40.5"/><path fill="none" stroke="#000000" stroke-width="0.5" stroke-opacity="0.301960784314" d="M14.2 40.5 L1.35 11.8 Q-0.5 7.75 3.8 6.35 L22.3 0.4 Q26.55 -1.0 28.45 3.1 L41.35 31.7 Q43.25 35.85 38.9 37.25 L20.4 43.2 Q16.1 44.55 14.2 40.5"/><path fill="#fcf2cf" stroke="none" d="M9.15 13.6 Q9.8 12.8 9.55 11.6 L9.1 10.55 22.05 6.35 Q24.9 5.45 26.25 7.85 L26.5 8.3 35.8 29.0 35.95 29.35 Q34.75 29.3 34.1 30.1 33.45 30.9 33.7 32.1 L34.0 32.9 20.65 37.2 Q18.8 37.8 17.65 37.0 16.8 36.4 16.3 35.2 L6.95 14.6 6.8 14.4 7.1 14.4 Q8.4 14.45 9.15 13.6"/><path fill="#c47fad" stroke="none" d="M8.25 23.65 L3.35 12.8 Q1.65 9.1 5.5 7.85 L22.25 2.5 Q26.05 1.25 27.75 4.95 L28.25 6.1 35.55 22.3 39.35 30.75 Q41.1 34.5 37.2 35.7 L20.45 41.1 Q16.8 42.25 15.2 39.0 L15.0 38.6 8.25 23.65 M9.15 13.6 Q8.4 14.45 7.1 14.4 L6.8 14.4 6.95 14.6 16.3 35.2 Q16.8 36.4 17.65 37.0 18.8 37.8 20.65 37.2 L34.0 32.9 33.7 32.1 Q33.45 30.9 34.1 30.1 34.75 29.3 35.95 29.35 L35.8 29.0 26.5 8.3 26.25 7.85 Q24.9 5.45 22.05 6.35 L9.1 10.55 9.55 11.6 Q9.8 12.8 9.15 13.6"/><path fill="none" stroke="#ffcc00" stroke-width="1.0" stroke-opacity="0.749019607843" d="M8.25 23.65 L3.35 12.8 Q1.65 9.1 5.5 7.85 L22.25 2.5 Q26.05 1.25 27.75 4.95 L28.25 6.1 M35.55 22.3 L39.35 30.75 Q41.1 34.5 37.2 35.7 L20.45 41.1 Q16.8 42.25 15.2 39.0 L15.0 38.6"/><path fill="none" stroke="#bf9900" stroke-width="1.0" stroke-opacity="0.749019607843" d="M28.25 6.1 L35.55 22.3 M15.0 38.6 L8.25 23.65"/><path fill="none" stroke="#f0b92b" stroke-width="0.5" d="M9.15 13.6 Q9.8 12.8 9.55 11.6 L9.1 10.55 22.05 6.35 Q24.9 5.45 26.25 7.85 L26.5 8.3 35.8 29.0 35.95 29.35 Q34.75 29.3 34.1 30.1 33.45 30.9 33.7 32.1 L34.0 32.9 20.65 37.2 Q18.8 37.8 17.65 37.0 16.8 36.4 16.3 35.2 L6.95 14.6 6.8 14.4 7.1 14.4 Q8.4 14.45 9.15 13.6"/></g><g id="c3"><path fill="#7fdbfe" stroke="none" d="M10.75 4.9 Q10.75 4.6 10.9 4.35 11.25 3.45 11.95 2.75 13.3 1.5 14.35 2.1 15.4 2.7 14.95 4.45 14.7 5.4 14.1 6.15 L13.75 6.5 Q13.1 7.15 12.35 7.35 L11.4 7.2 Q10.95 6.9 10.75 6.4 10.5 5.75 10.75 4.9 M7.5 5.9 Q7.0 5.85 6.6 5.5 6.05 5.0 5.8 4.15 L5.7 3.6 Q5.55 2.65 5.8 1.7 6.25 0.0 7.5 0.0 L7.6 0.0 Q8.85 0.0 9.3 1.7 9.55 2.65 9.4 3.6 L9.3 4.15 8.5 5.5 7.6 5.9 7.5 5.9 M4.35 4.9 Q4.6 5.75 4.35 6.4 L3.7 7.2 2.75 7.35 Q2.0 7.15 1.35 6.5 L1.0 6.15 Q0.4 5.4 0.15 4.45 -0.3 2.7 0.75 2.1 1.8 1.5 3.15 2.75 3.85 3.45 4.2 4.35 L4.35 4.9 M5.5 13.7 Q4.45 13.9 3.65 12.95 2.75 12.0 3.2 10.25 3.7 8.5 5.25 7.6 6.4 6.9 7.55 7.0 8.75 6.9 9.9 7.6 11.45 8.5 11.95 10.25 12.35 12.0 11.5 12.95 10.7 13.9 9.65 13.7 8.55 13.5 7.55 12.6 6.55 13.5 5.5 13.7"/></g><g id="c4"><g><use transform="matrix(1.0,0.0,0.0,1.0,0.0,0.0)" xlink:href="#c3"/></g></g><radialGradient gradientUnits="userSpaceOnUse" r="819.2" cx="0" cy="0" spreadMethod="pad" gradientTransform="matrix(0.0914459228516,0.0,0.0,0.0914459228516,0.6,3.4)" id="gradient1"><stop offset="0.0" stop-color="#ffffff"/><stop offset="1.0" stop-color="#ffffff" stop-opacity="0.0"/></radialGradient><g id="c5"><path stroke="none" fill="url(#gradient1)" d="M36.65 -54.65 Q60.05 -42.0 69.75 -17.95 80.55 8.9 68.0 34.1 55.45 59.35 26.8 68.2 -1.8 77.05 -29.7 64.3 -57.6 51.6 -68.45 24.75 -79.3 -2.05 -66.75 -27.25 L-66.7 -27.3 Q-54.1 -52.5 -25.5 -61.4 3.1 -70.2 31.0 -57.5 L36.65 -54.65"/></g><g id="c6"><g><use transform="matrix(1.0,0.0,0.0,1.0,0.0,0.0)" xlink:href="#c5"/></g></g><radialGradient gradientUnits="userSpaceOnUse" r="819.2" cx="0" cy="0" spreadMethod="pad" gradientTransform="matrix(0.209197998047,0.0,0.0,0.177108764648,67.15,107.2)" id="gradient2"><stop offset="0.356862745098" stop-color="#ffffff"/><stop offset="0.670588235294" stop-opacity="0.0"/></radialGradient><g id="c7"><path fill="none" stroke-linejoin="round" stroke-linecap="round" stroke="url(#gradient2)" stroke-width="0.5" d="M136.55 165.8 L68.6 106.0 68.4 106.0 118.25 201.5 M68.2 105.7 L68.25 105.8 68.25 105.75 68.2 105.7 0.0 45.7 M68.25 105.8 L68.3 105.85 68.3 105.8 68.25 105.75 49.95 0.05 M0.05 97.7 L68.15 105.95 68.25 105.85 68.25 105.8 M68.3 105.85 L68.25 105.85 68.3 106.0 68.3 105.85 68.3 105.8 68.35 105.8 68.3 105.8 86.6 18.35 M50.0 193.2 L68.3 106.0 68.15 105.95 18.25 151.55 M68.4 106.0 L68.3 106.0 86.55 211.5 M68.4 106.0 L68.3 105.85 M68.6 106.0 L68.35 105.8 118.25 60.15 M136.6 114.25 L68.6 106.0 M68.2 105.7 L18.25 10.05"/></g><g id="c8"><g><use transform="matrix(1.0,0.0,0.0,1.0,0.0,0.0)" xlink:href="#c7"/></g></g><g id="c9"><path fill="#ffca69" stroke="none" d="M13.55 12.15 L13.6 12.15 13.7 12.1 13.55 12.15 M14.8 11.75 L14.9 11.65 14.8 11.75"/><path fill="#825432" stroke="none" d="M13.6 12.15 L13.55 12.15 Q12.5 12.75 12.55 13.85 L12.55 13.9 Q12.55 14.95 13.45 15.6 L13.75 15.65 15.1 15.75 16.0 15.6 14.4 15.3 Q13.4 14.85 13.25 13.95 L13.05 13.65 12.95 13.05 Q12.95 12.55 13.6 12.15 M14.9 11.65 L15.9 11.8 16.6 12.05 17.05 12.45 17.45 12.9 17.65 13.25 17.8 13.95 17.85 14.65 17.9 15.3 17.85 15.3 17.75 16.05 Q17.5 18.95 15.95 22.7 14.25 26.9 14.4 27.6 L14.4 27.65 14.85 28.55 14.95 28.6 15.8 28.65 15.95 28.6 15.85 28.05 15.85 27.9 15.3 27.95 15.1 27.4 Q15.1 26.85 16.6 22.9 18.2 19.05 18.45 16.05 L18.45 15.95 18.5 15.9 18.5 15.85 18.5 15.15 18.55 14.6 18.55 14.35 Q18.5 13.0 18.05 12.45 17.45 11.35 15.75 11.55 L14.9 11.65 M25.15 13.65 L25.65 14.05 Q26.3 14.6 26.5 15.4 L26.7 16.2 26.6 17.35 26.5 17.65 26.55 17.65 25.95 19.2 25.9 19.45 26.65 19.35 27.2 17.8 27.4 16.15 Q27.4 14.7 25.95 13.95 L25.15 13.65"/><path fill="#543520" stroke="none" d="M13.7 12.1 L13.6 12.15 Q12.95 12.55 12.95 13.05 L13.05 13.65 13.25 13.95 13.25 13.8 Q13.25 13.0 14.15 12.6 L15.7 12.25 15.75 12.25 17.05 12.45 16.6 12.05 15.9 11.8 14.9 11.65 14.8 11.75 14.75 11.75 14.65 11.75 13.9 11.95 13.75 12.1 13.7 12.1 M16.0 15.6 L15.1 15.75 13.75 15.65 13.45 15.6 14.05 15.9 16.55 16.25 16.6 16.25 16.95 16.25 17.1 16.2 17.25 16.2 17.75 16.05 17.85 15.3 17.2 15.5 17.1 15.55 16.95 15.55 16.6 15.55 16.0 15.6 M18.5 15.15 L18.5 15.85 20.5 15.2 20.55 15.2 23.6 14.15 Q24.6 14.1 25.6 14.6 L26.5 15.4 Q26.3 14.6 25.65 14.05 L25.15 13.65 23.6 13.45 Q22.9 13.55 20.35 14.55 L18.5 15.15 M15.85 27.9 L15.85 28.05 15.95 28.6 17.2 28.4 17.2 27.7 15.85 27.9"/><path fill="none" stroke="#000000" stroke-width="0.5" stroke-opacity="0.301960784314" d="M13.55 12.15 L13.7 12.1 13.75 12.1 13.9 11.95 14.65 11.75 14.75 11.75 14.8 11.75 14.9 11.65 15.75 11.55 Q17.45 11.35 18.05 12.45 18.5 13.0 18.55 14.35 L18.55 14.6 18.5 15.15 18.5 15.85 18.5 15.9 18.45 15.95 18.45 16.05 Q18.2 19.05 16.6 22.9 15.1 26.85 15.1 27.4 L15.3 27.95 15.85 27.9 17.2 27.7 M13.25 13.95 Q13.4 14.85 14.4 15.3 L16.0 15.6 16.6 15.55 16.95 15.55 17.1 15.55 17.2 15.5 17.85 15.3 17.9 15.3 17.85 14.65 17.8 13.95 17.65 13.25 17.45 12.9 17.05 12.45 15.75 12.25 15.7 12.25 14.15 12.6 Q13.25 13.0 13.25 13.8 L13.25 13.95 M13.45 15.6 Q12.55 14.95 12.55 13.9 L12.55 13.85 Q12.5 12.75 13.55 12.15 M15.95 28.6 L15.8 28.65 14.95 28.6 14.85 28.55 14.4 27.65 14.4 27.6 Q14.25 26.9 15.95 22.7 17.5 18.95 17.75 16.05 L17.85 15.3 M17.75 16.05 L17.25 16.2 17.1 16.2 16.95 16.25 16.6 16.25 16.55 16.25 14.05 15.9 13.45 15.6 M18.5 15.85 L18.45 15.95 M18.5 15.15 L20.35 14.55 Q22.9 13.55 23.6 13.45 L25.15 13.65 25.95 13.95 Q27.4 14.7 27.4 16.15 L27.2 17.8 26.65 19.35 25.9 19.45 25.95 19.2 26.55 17.65 26.5 17.65 26.6 17.35 26.7 16.2 26.5 15.4 25.6 14.6 Q24.6 14.1 23.6 14.15 L20.55 15.2 20.5 15.2 18.5 15.85 M17.2 28.4 L15.95 28.6"/><path fill="#17702c" stroke="none" d="M22.4 21.6 L23.75 21.85 23.8 21.75 23.9 20.8 23.8 17.1 22.4 21.55 22.4 21.6"/><path fill="#38a330" stroke="none" d="M22.4 21.6 L22.4 21.55 23.8 17.1 Q22.6 18.3 21.0 21.75 L22.0 21.9 22.25 21.55 22.4 21.6"/><path fill="none" stroke="#000000" stroke-width="0.5" stroke-opacity="0.152941176471" d="M22.4 21.6 L22.4 21.55 23.8 17.1 23.9 20.8 23.8 21.75 23.75 21.85 M21.0 21.75 Q22.6 18.3 23.8 17.1"/><path fill="#38a330" stroke="none" d="M21.15 21.95 L21.1 21.9 18.1 18.15 Q18.2 19.95 20.1 23.35 L21.05 22.55 21.0 22.05 21.15 21.95"/><path fill="#17702c" stroke="none" d="M22.5 20.8 L22.45 20.75 21.65 20.1 18.1 18.15 21.1 21.9 21.15 21.95 22.5 20.8"/><path fill="none" stroke="#000000" stroke-width="0.5" stroke-opacity="0.152941176471" d="M18.1 18.15 L21.65 20.1 22.45 20.75 22.5 20.8 M21.15 21.95 L21.1 21.9 18.1 18.15 Q18.2 19.95 20.1 23.35"/><path fill="#17702c" stroke="none" d="M20.7 24.0 L20.5 22.65 20.45 22.65 19.5 22.8 16.0 23.9 20.6 23.95 20.7 24.0"/><path fill="#38a330" stroke="none" d="M20.7 24.0 L20.6 23.95 16.0 23.9 Q17.45 24.75 21.2 25.3 21.45 24.45 21.1 24.35 L20.65 24.1 20.7 24.0"/><path fill="none" stroke="#000000" stroke-width="0.5" stroke-opacity="0.152941176471" d="M20.7 24.0 L20.6 23.95 16.0 23.9 19.5 22.8 20.45 22.65 20.5 22.65 M21.2 25.3 Q17.45 24.75 16.0 23.9"/><path fill="#17702c" stroke="none" d="M24.8 23.65 L24.55 24.8 24.6 24.85 25.45 25.0 28.7 25.05 24.85 23.7 24.8 23.65"/><path fill="#38a330" stroke="none" d="M24.8 23.65 L24.85 23.7 28.7 25.05 Q27.65 24.0 26.2 23.25 L25.2 23.5 24.85 23.55 24.8 23.65"/><path fill="none" stroke="#000000" stroke-width="0.5" stroke-opacity="0.152941176471" d="M24.8 23.65 L24.85 23.7 28.7 25.05 25.45 25.0 24.6 24.85 24.55 24.8 M26.2 23.25 Q27.65 24.0 28.7 25.05"/><path fill="#38a330" stroke="none" d="M24.9 25.1 L24.9 25.15 27.15 29.25 Q27.1 27.55 25.8 24.05 24.9 24.2 25.0 24.55 L25.0 25.0 24.9 25.1"/><path fill="#17702c" stroke="none" d="M23.8 25.9 L23.85 25.95 24.4 26.7 27.15 29.25 24.9 25.15 24.9 25.1 23.8 25.9"/><path fill="none" stroke="#000000" stroke-width="0.5" stroke-opacity="0.152941176471" d="M27.15 29.25 L24.4 26.7 23.85 25.95 23.8 25.9 M24.9 25.1 L24.9 25.15 27.15 29.25 Q27.1 27.55 25.8 24.05"/><path fill="#17702c" stroke="none" d="M22.8 25.25 L21.65 25.4 21.65 25.45 21.75 26.3 22.75 29.4 22.8 25.3 22.8 25.25"/><path fill="#38a330" stroke="none" d="M22.8 25.25 L22.8 25.3 22.75 29.4 Q23.4 28.1 23.7 26.45 L23.15 25.6 22.95 25.25 22.8 25.25"/><path fill="none" stroke="#000000" stroke-width="0.5" stroke-opacity="0.152941176471" d="M22.8 25.25 L22.8 25.3 22.75 29.4 21.75 26.3 21.65 25.45 21.65 25.4 M23.7 26.45 Q23.4 28.1 22.75 29.4"/></g><g id="c10"><path fill="#ffffff" stroke="none" d="M2.75 2.55 L2.65 2.95 2.75 3.05 2.85 3.55 2.7 3.85 2.8 4.0 Q1.2 6.8 0.0 6.8 -1.85 6.8 -3.95 5.35 -6.7 3.45 -6.7 0.45 -6.7 -0.95 -5.5 -2.2 -4.1 -3.65 -2.05 -3.65 0.4 -3.65 1.8 -1.95 2.65 -0.9 2.85 0.55 L1.45 0.55 Q0.9 1.45 1.5 2.4 L2.75 2.55"/><path fill="#ffffff" stroke="#ff0000" stroke-width="0.5" d="M2.75 2.55 L2.8 2.55 2.85 2.45 2.9 1.85 M2.75 2.55 L2.8 2.55 M2.75 2.55 L1.5 2.4 Q0.9 1.45 1.45 0.55 L2.85 0.55 Q2.65 -0.9 1.8 -1.95 0.4 -3.65 -2.05 -3.65 -4.1 -3.65 -5.5 -2.2 -6.7 -0.95 -6.7 0.45 -6.7 3.45 -3.95 5.35 -1.85 6.8 0.0 6.8 1.2 6.8 2.8 4.0 L2.7 3.85 2.85 3.55 2.75 3.05 2.65 2.95 2.75 2.55"/></g><g id="c11"><path fill="#4fd44c" stroke="none" d="M0.35 -0.8 L0.15 -1.15 -0.3 -1.3 -0.7 -1.15 -0.9 -0.8 -0.7 -0.4 -0.3 -0.25 Q0.0 -0.25 0.15 -0.4 L0.35 -0.8 M0.0 -1.5 Q1.15 -1.5 1.95 -0.75 L2.55 0.1 2.65 0.5 2.75 0.8 2.75 1.2 2.75 1.4 Q2.7 2.45 1.95 3.15 1.15 3.95 0.0 3.95 -1.15 3.95 -1.95 3.15 L-2.0 3.1 Q-2.75 2.3 -2.75 1.2 -2.75 0.1 -1.95 -0.75 L-1.9 -0.75 -0.8 -1.35 -0.35 -1.45 0.0 -1.5 M2.45 1.7 L2.5 1.35 2.55 0.8 2.4 0.2 2.4 0.15 Q1.65 -0.8 0.55 -1.15 1.5 0.15 0.05 0.95 -1.4 1.75 -2.3 0.5 -2.6 1.6 -2.1 2.45 -1.2 3.75 0.4 3.6 2.15 3.35 2.45 1.7"/><path fill="#ffffff" stroke="none" d="M0.35 -0.8 L0.15 -0.4 Q0.0 -0.25 -0.3 -0.25 L-0.7 -0.4 -0.9 -0.8 -0.7 -1.15 -0.3 -1.3 0.15 -1.15 0.35 -0.8"/><path fill="#bd954d" stroke="none" d="M2.55 0.8 L2.5 1.35 2.45 1.7 Q1.8 1.45 1.85 1.15 1.85 0.8 2.55 0.8"/><path fill="#2a7028" stroke="none" d="M2.55 0.8 Q1.85 0.8 1.85 1.15 1.8 1.45 2.45 1.7 2.15 3.35 0.4 3.6 -1.2 3.75 -2.1 2.45 -2.6 1.6 -2.3 0.5 -1.4 1.75 0.05 0.95 1.5 0.15 0.55 -1.15 1.65 -0.8 2.4 0.15 L2.4 0.2 2.55 0.8"/><path fill="none" stroke="#000000" stroke-width="0.5" stroke-opacity="0.301960784314" d="M0.0 -1.5 L-0.35 -1.45 -0.8 -1.35 -1.9 -0.75 -1.95 -0.75 Q-2.75 0.1 -2.75 1.2 -2.75 2.3 -2.0 3.1 L-1.95 3.15 Q-1.15 3.95 0.0 3.95 1.15 3.95 1.95 3.15 2.7 2.45 2.75 1.4 L2.75 1.2 2.75 0.8 2.65 0.5 2.55 0.1 1.95 -0.75 Q1.15 -1.5 0.0 -1.5 M2.55 0.8 Q1.85 0.8 1.85 1.15 1.8 1.45 2.45 1.7"/><path fill="#42341f" stroke="none" d="M2.05 2.2 L1.6 2.55 1.25 2.15 1.15 1.4 1.45 0.6 Q1.7 0.3 1.9 0.35 L2.25 0.65 2.4 1.45 2.05 2.2"/><path fill="#ffffff" fill-opacity="0.301960784314" d="M-0.35 -0.45 Q-0.25 -0.65 -0.3 -0.85 L-0.65 -1.05 -1.05 -1.0 -1.3 -0.65 -1.3 -0.2 -1.05 0.0 -0.6 -0.05 -0.35 -0.45 M-0.4 0.35 L-0.4 0.8 -0.7 0.5 -1.2 0.5 -1.65 0.25 -2.45 0.6 -1.85 0.0 -1.85 -0.8 -1.35 -1.55 -0.8 -1.75 Q-0.35 -2.0 -0.15 -2.65 L-0.2 -1.6 0.1 -1.25 Q0.3 -0.85 0.1 -0.4 0.0 0.05 -0.4 0.35"/><path fill="#ffffff" stroke="none" d="M-0.35 -0.45 L-0.6 -0.05 -1.05 0.0 -1.3 -0.2 -1.3 -0.65 -1.05 -1.0 -0.65 -1.05 -0.3 -0.85 Q-0.25 -0.65 -0.35 -0.45"/><path fill="#ffffff" stroke="none" d="M-0.8 -0.3 L-1.7 0.4 -0.95 -0.75 -1.6 -2.1 -0.75 -0.85 2.45 -3.85 -0.5 -0.55 0.55 1.75 -0.8 -0.3"/></g><g id="c12"><mask id="mask10"><use transform="matrix(1.0,0.0,0.0,1.0,0.0,0.0)" xlink:href="#c10"/></mask><g mask="url(#mask10)"><use transform="matrix(1.0,0.0,0.0,1.0,0.0,0.0)" xlink:href="#c11"/></g></g><g id="c13"><path fill="#c7962b" stroke="none" d="M29.3 19.55 L29.3 19.3 29.3 19.25 29.15 18.75 29.0 18.45 28.4 17.65 28.35 17.65 27.95 17.45 27.5 17.45 Q26.35 18.15 26.25 19.7 L26.4 20.85 26.5 22.05 26.35 23.15 26.3 23.35 26.3 23.3 26.25 23.4 26.25 23.6 Q26.1 24.65 25.6 25.2 24.95 25.9 23.6 25.9 21.45 25.9 21.4 23.55 21.4 22.95 22.05 22.35 22.45 21.95 22.9 21.9 L23.2 21.8 23.35 21.8 23.55 21.85 24.1 22.15 24.5 22.75 24.6 23.25 24.45 23.6 24.3 23.7 25.0 23.3 25.1 23.15 25.1 22.55 25.05 22.45 Q24.75 21.45 23.85 20.95 22.95 20.5 21.9 20.65 20.65 20.8 20.2 21.85 19.8 22.75 20.45 24.9 L20.5 25.05 20.85 26.0 Q21.8 27.4 23.95 27.4 26.75 27.35 27.3 26.1 27.9 24.9 27.55 23.65 L27.3 21.95 27.35 21.75 Q27.2 20.7 27.4 19.85 L27.4 19.75 27.4 19.4 27.9 18.6 28.1 18.2 27.8 19.05 Q27.8 19.75 28.6 19.75 L29.3 19.55 M18.35 27.95 L17.8 27.45 17.25 27.3 Q16.2 27.45 16.25 28.45 16.4 28.0 16.8 28.0 17.4 28.0 17.4 28.55 L17.3 28.85 17.35 28.85 17.95 28.45 18.0 28.4 18.35 27.95"/><path fill="#94711f" stroke="none" d="M29.3 19.55 L28.6 19.75 Q27.8 19.75 27.8 19.05 L28.1 18.2 27.9 18.6 27.4 19.4 27.4 19.75 28.1 20.2 28.65 20.15 Q29.25 20.0 29.3 19.55 M25.05 22.45 L25.1 22.55 25.1 23.15 25.0 23.3 24.3 23.7 24.45 23.6 23.8 23.75 23.55 23.75 23.55 23.7 24.05 23.35 24.2 22.65 24.1 22.15 23.55 21.85 Q23.2 21.9 22.95 22.2 22.65 22.6 22.65 23.15 22.65 24.6 24.35 24.6 L25.5 24.3 25.65 24.2 26.1 23.85 26.05 23.95 Q25.45 25.2 24.1 25.3 L22.75 25.1 Q22.25 24.8 22.05 24.05 21.95 23.65 22.2 22.85 22.45 22.1 22.9 21.9 22.45 21.95 22.05 22.35 21.4 22.95 21.4 23.55 21.45 25.9 23.6 25.9 24.95 25.9 25.6 25.2 26.1 24.65 26.25 23.6 L26.25 23.4 26.3 23.3 26.3 23.35 26.35 23.15 26.5 22.05 26.4 20.85 26.25 19.7 Q26.35 18.15 27.5 17.45 L26.5 18.1 Q25.6 18.8 25.45 20.25 24.0 18.65 21.7 18.9 19.4 19.15 18.85 20.3 18.25 21.4 18.4 23.05 18.45 24.65 18.65 26.05 18.8 27.15 18.35 27.95 L18.0 28.4 17.95 28.45 17.35 28.85 17.3 28.85 17.4 28.55 Q17.4 28.0 16.8 28.0 16.4 28.0 16.25 28.45 L16.35 28.9 Q16.65 29.75 17.1 30.05 17.6 30.35 18.75 29.75 19.95 29.25 20.6 27.7 L20.75 27.3 20.05 25.3 Q19.25 23.45 19.25 22.8 19.2 21.6 19.85 20.95 20.5 20.25 21.7 20.25 23.25 20.25 24.15 20.95 24.9 21.55 25.05 22.45 M26.25 23.4 L26.2 23.55 26.1 23.85 26.2 23.55 26.25 23.4 M25.45 20.25 Q25.95 21.0 26.25 22.1 L26.35 23.15 26.25 22.1 Q25.95 21.0 25.45 20.25"/><path fill="#705417" stroke="none" d="M20.85 26.0 L20.5 25.05 20.45 24.9 Q19.8 22.75 20.2 21.85 20.65 20.8 21.9 20.65 22.95 20.5 23.85 20.95 24.75 21.45 25.05 22.45 24.9 21.55 24.15 20.95 23.25 20.25 21.7 20.25 20.5 20.25 19.85 20.95 19.2 21.6 19.25 22.8 19.25 23.45 20.05 25.3 L20.75 27.3 20.85 26.0 M24.45 23.6 L24.6 23.25 24.5 22.75 24.1 22.15 24.2 22.65 24.05 23.35 23.55 23.7 23.55 23.75 23.8 23.75 24.45 23.6 M23.55 21.85 L23.35 21.8 23.2 21.8 22.9 21.9 Q22.45 22.1 22.2 22.85 21.95 23.65 22.05 24.05 22.25 24.8 22.75 25.1 L24.1 25.3 Q25.45 25.2 26.05 23.95 L26.1 23.85 25.65 24.2 25.5 24.3 24.35 24.6 Q22.65 24.6 22.65 23.15 22.65 22.6 22.95 22.2 23.2 21.9 23.55 21.85"/><path fill="none" stroke="#000000" stroke-width="0.5" stroke-opacity="0.301960784314" d="M27.5 17.45 L27.95 17.45 28.35 17.65 28.4 17.65 29.0 18.45 29.15 18.75 29.3 19.25 29.3 19.3 29.3 19.55 Q29.25 20.0 28.65 20.15 L28.1 20.2 27.4 19.75 27.4 19.85 Q27.2 20.7 27.35 21.75 L27.3 21.95 27.55 23.65 Q27.9 24.9 27.3 26.1 26.75 27.35 23.95 27.4 21.8 27.4 20.85 26.0 L20.5 25.05 20.45 24.9 Q19.8 22.75 20.2 21.85 20.65 20.8 21.9 20.65 22.95 20.5 23.85 20.95 24.75 21.45 25.05 22.45 L25.1 22.55 25.1 23.15 25.0 23.3 24.3 23.7 24.45 23.6 24.6 23.25 24.5 22.75 24.1 22.15 23.55 21.85 23.35 21.8 23.2 21.8 22.9 21.9 Q22.45 22.1 22.2 22.85 21.95 23.65 22.05 24.05 22.25 24.8 22.75 25.1 L24.1 25.3 Q25.45 25.2 26.05 23.95 L26.1 23.85 26.2 23.55 26.25 23.4 26.3 23.3 M27.4 19.4 L27.4 19.75 M27.5 17.45 L26.5 18.1 Q25.6 18.8 25.45 20.25 24.0 18.65 21.7 18.9 19.4 19.15 18.85 20.3 18.25 21.4 18.4 23.05 18.45 24.65 18.65 26.05 18.8 27.15 18.35 27.95 L17.8 27.45 17.25 27.3 Q16.2 27.45 16.25 28.45 L16.35 28.9 Q16.65 29.75 17.1 30.05 17.6 30.35 18.75 29.75 19.95 29.25 20.6 27.7 L20.75 27.3 20.85 26.0 M26.35 23.15 L26.25 22.1 Q25.95 21.0 25.45 20.25 M18.35 27.95 L18.0 28.4"/><path fill="#31250b" stroke="none" d="M27.8 19.7 L28.05 19.95 28.4 20.0 28.65 19.85 28.6 19.55 28.35 19.3 28.0 19.25 27.75 19.45 27.8 19.7"/><path fill="none" stroke="#000000" stroke-width="0.5" stroke-opacity="0.301960784314" d="M27.8 19.7 L28.05 19.95 28.4 20.0 28.65 19.85 28.6 19.55 28.35 19.3 28.0 19.25 27.75 19.45 27.8 19.7"/><path fill="#825432" stroke="none" d="M28.55 19.95 L28.45 19.65 28.25 19.5 28.0 19.6 Q27.85 19.65 27.85 19.8 L27.8 20.1 27.8 20.15 28.05 21.2 Q28.5 22.1 29.1 22.25 L29.35 22.2 29.5 22.0 29.5 21.75 29.3 21.55 28.7 20.9 28.5 20.2 28.55 19.95"/><path fill="none" stroke="#000000" stroke-width="0.5" stroke-opacity="0.301960784314" d="M28.55 19.95 L28.5 20.2 28.7 20.9 29.3 21.55 29.5 21.75 29.5 22.0 29.35 22.2 29.1 22.25 Q28.5 22.1 28.05 21.2 L27.8 20.15 27.8 20.1 27.85 19.8 Q27.85 19.65 28.0 19.6 L28.25 19.5 28.45 19.65 28.55 19.95"/><path fill="none" stroke="#000000" stroke-width="0.5" stroke-opacity="0.301960784314" d="M29.05 21.4 Q28.6 21.65 28.6 21.95"/><path fill="none" stroke="#000000" stroke-width="0.5" stroke-opacity="0.301960784314" d="M28.55 20.5 L28.35 20.5 27.95 20.85"/><path fill="none" stroke="#000000" stroke-width="0.5" stroke-opacity="0.301960784314" d="M28.75 21.0 Q28.5 20.95 28.35 21.2 L28.15 21.55"/><path fill="none" stroke="#000000" stroke-width="0.5" stroke-opacity="0.301960784314" d="M28.45 20.0 L28.2 19.9 27.8 20.05"/><path fill="#31250b" stroke="none" d="M17.95 28.6 L17.65 28.85 17.55 29.15 17.7 29.45 18.0 29.45 18.25 29.25 18.4 28.9 18.2 28.6 17.95 28.6"/><path fill="none" stroke="#000000" stroke-width="0.5" stroke-opacity="0.301960784314" d="M17.95 28.6 L17.65 28.85 17.55 29.15 17.7 29.45 18.0 29.45 18.25 29.25 18.4 28.9 18.2 28.6 17.95 28.6"/><path fill="#825432" stroke="none" d="M18.3 28.85 L18.05 28.8 17.8 28.95 17.75 29.2 17.85 29.4 Q18.65 30.05 18.55 30.65 L18.6 30.95 18.85 31.1 19.1 31.05 19.25 30.8 Q19.5 29.8 18.3 28.85"/><path fill="none" stroke="#000000" stroke-width="0.5" stroke-opacity="0.301960784314" d="M18.3 28.85 Q19.5 29.8 19.25 30.8 L19.1 31.05 18.85 31.1 18.6 30.95 18.55 30.65 Q18.65 30.05 17.85 29.4 L17.75 29.2 17.8 28.95 18.05 28.8 18.3 28.85"/><path fill="none" stroke="#000000" stroke-width="0.5" stroke-opacity="0.101960784314" d="M19.3 30.45 L18.95 30.25 Q18.6 30.25 18.6 30.4"/><path fill="none" stroke="#000000" stroke-width="0.5" stroke-opacity="0.101960784314" d="M19.05 29.6 L18.8 29.55 18.3 29.9"/><path fill="none" stroke="#000000" stroke-width="0.5" stroke-opacity="0.101960784314" d="M18.6 29.1 L18.35 29.05 18.15 29.25 17.95 29.5"/></g><g id="c14"><g><use transform="matrix(1.0,0.0,0.0,1.0,0.0,0.0)" xlink:href="#c2"/></g><g><use transform="matrix(0.238861083984,-0.0867004394531,0.10026550293,0.233917236328,34.25,31.15)" xlink:href="#c4"/></g><g><use transform="matrix(0.238861083984,-0.0867004394531,0.10026550293,0.233917236328,4.25,10.3)" xlink:href="#c4"/></g><g><use transform="matrix(0.141098022461,-0.0378112792969,0.111373901367,0.225646972656,20.25,20.65)" filter="url(#filter9)" xlink:href="#c6"/></g><g><use transform="matrix(-0.155029296875,0.0513153076172,0.0841827392578,0.147033691406,22.6,2.3)" filter="url(#filter10)" xlink:href="#c8"/></g><g><use transform="matrix(1.0,0.0,0.0,1.0,0.0,0.0)" xlink:href="#c9"/></g><g><use transform="matrix(0.241119384766,-0.431854248047,-0.431854248047,-0.241119384766,15.75,25.85)" xlink:href="#c12"/></g><g><use transform="matrix(-0.0704803466797,0.490692138672,0.490692138672,0.0704803466797,26.6,17.1)" xlink:href="#c12"/></g><g><use transform="matrix(0.475784301758,-0.131698608398,0.131698608398,0.475784301758,16.55,27.5)" xlink:href="#c12"/></g><g><use transform="matrix(1.0,0.0,0.0,1.0,0.0,0.0)" xlink:href="#c13"/></g><g><use transform="matrix(-0.00733947753906,0.495468139648,0.495468139648,0.00733947753906,26.15,14.75)" xlink:href="#c12"/></g><g><use transform="matrix(0.162948608398,-0.0436706542969,0.128631591797,0.260604858398,20.35,20.95)" filter="url(#filter17)" xlink:href="#c6"/></g></g><filter id="filter9"><feColorMatrix in="SourceGraphic" type="matrix" values="0.0 0.0 0.0 0.0 0.796875 0.0 0.0 0.0 0.0 0.59765625 0.0 0.0 0.0 0.0 0.19921875 0.0 0.0 0.0 1.0 0.0" result="cxform"/><feComposite operator="in" in2="SourceGraphic" result="color-xform"/></filter><filter id="filter10"><feColorMatrix in="SourceGraphic" type="matrix" values="0.0 0.0 0.0 0.0 0.99609375 0.0 0.0 0.0 0.0 0.99609375 0.0 0.0 0.0 0.0 0.99609375 0.0 0.0 0.0 1.0 0.0" result="cxform"/><feComposite operator="in" in2="SourceGraphic" result="color-xform"/></filter><filter id="filter17"><feColorMatrix in="SourceGraphic" type="matrix" values="1.0 0.0 0.0 0.0 0.0 0.0 1.0 0.0 0.0 0.0 0.0 0.0 1.0 0.0 0.0 0.0 0.0 0.0 0.23046875 0.0" result="cxform"/><feComposite operator="in" in2="SourceGraphic" result="color-xform"/></filter></defs><g><g><use transform="matrix(1.0,0.0,0.0,1.0,0.0,0.0)" xlink:href="#c1"/></g><g><use transform="matrix(1.15496826172,0.0,0.0,1.15496826172,5.85,3.95)" xlink:href="#c14"/></g></g></svg>