<?xml version='1.0' encoding='UTF-8'?>
<svg xmlns:xlink="http://www.w3.org/1999/xlink" xmlns="http://www.w3.org/2000/svg" version="1.1" width="60px" height="60px" viewBox="0.0 0.0 60.0 60.0"><defs><g id="c1"><path fill="#000000" fill-opacity="0.00392156862745" d="M0.0 0.0 L60.0 0.0 60.0 60.0 0.0 60.0 0.0 0.0"/></g><g id="c2"><path fill="none" stroke="#000000" stroke-width="1.0" stroke-opacity="0.301960784314" d="M22.3 0.35 Q26.6 -1.0 28.5 3.05 L41.4 31.7 Q43.1 35.4 39.9 36.85 L38.15 37.65 19.65 43.65 Q17.05 44.5 15.35 43.3 14.2 42.55 13.5 40.9 L0.55 12.25 Q-0.6 9.75 0.6 8.25 1.15 7.55 2.2 7.05 2.85 6.6 3.8 6.3 L22.3 0.35"/><path fill="#300525" stroke="none" d="M25.55 0.9 Q26.9 1.6 27.8 3.55 L40.7 32.15 Q42.6 36.3 38.3 37.65 L23.3 42.5 13.15 21.4 4.6 20.9 0.7 12.25 Q-0.45 9.75 0.75 8.25 L29.8 9.75 25.55 0.9 M20.1 43.55 L19.8 43.65 Q17.15 44.45 15.5 43.3 L20.1 43.55"/><path fill="#630a4c" stroke="none" d="M23.3 42.5 L20.1 43.55 15.5 43.3 Q14.35 42.55 13.65 40.9 L4.6 20.9 13.15 21.4 23.3 42.5 M0.75 8.25 Q1.45 7.3 3.1 6.75 L21.65 0.8 25.55 0.9 29.8 9.75 0.75 8.25"/><path fill="none" stroke="#000000" stroke-width="0.5" stroke-opacity="0.301960784314" d="M25.55 0.9 Q26.9 1.6 27.8 3.55 L40.7 32.15 Q42.6 36.3 38.3 37.65 L23.3 42.5 20.1 43.55 19.8 43.65 Q17.15 44.45 15.5 43.3 14.35 42.55 13.65 40.9 L4.6 20.9 0.7 12.25 Q-0.45 9.75 0.75 8.25 1.45 7.3 3.1 6.75 L21.65 0.8 25.55 0.9"/><path fill="#9d147b" stroke="none" d="M14.2 40.5 L1.35 11.8 Q-0.5 7.75 3.8 6.35 L22.3 0.4 Q26.55 -1.0 28.45 3.1 L41.35 31.7 Q43.25 35.85 38.9 37.25 L20.4 43.2 Q16.1 44.55 14.2 40.5"/><path fill="none" stroke="#000000" stroke-width="0.5" stroke-opacity="0.301960784314" d="M14.2 40.5 L1.35 11.8 Q-0.5 7.75 3.8 6.35 L22.3 0.4 Q26.55 -1.0 28.45 3.1 L41.35 31.7 Q43.25 35.85 38.9 37.25 L20.4 43.2 Q16.1 44.55 14.2 40.5"/><path fill="#fcf2cf" stroke="none" d="M9.15 13.6 Q9.8 12.8 9.55 11.6 L9.1 10.55 22.05 6.35 Q24.9 5.45 26.25 7.85 L26.5 8.3 35.8 29.0 35.95 29.35 Q34.75 29.3 34.1 30.1 33.45 30.9 33.7 32.1 L34.0 32.9 20.65 37.2 Q18.8 37.8 17.65 37.0 16.8 36.4 16.3 35.2 L6.95 14.6 6.8 14.4 7.1 14.4 Q8.4 14.45 9.15 13.6"/><path fill="#c47fad" stroke="none" d="M8.25 23.65 L3.35 12.8 Q1.65 9.1 5.5 7.85 L22.25 2.5 Q26.05 1.25 27.75 4.95 L28.25 6.1 35.55 22.3 39.35 30.75 Q41.1 34.5 37.2 35.7 L20.45 41.1 Q16.8 42.25 15.2 39.0 L15.0 38.6 8.25 23.65 M9.15 13.6 Q8.4 14.45 7.1 14.4 L6.8 14.4 6.95 14.6 16.3 35.2 Q16.8 36.4 17.65 37.0 18.8 37.8 20.65 37.2 L34.0 32.9 33.7 32.1 Q33.45 30.9 34.1 30.1 34.75 29.3 35.95 29.35 L35.8 29.0 26.5 8.3 26.25 7.85 Q24.9 5.45 22.05 6.35 L9.1 10.55 9.55 11.6 Q9.8 12.8 9.15 13.6"/><path fill="none" stroke="#ffcc00" stroke-width="1.0" stroke-opacity="0.749019607843" d="M8.25 23.65 L3.35 12.8 Q1.65 9.1 5.5 7.85 L22.25 2.5 Q26.05 1.25 27.75 4.95 L28.25 6.1 M35.55 22.3 L39.35 30.75 Q41.1 34.5 37.2 35.7 L20.45 41.1 Q16.8 42.25 15.2 39.0 L15.0 38.6"/><path fill="none" stroke="#bf9900" stroke-width="1.0" stroke-opacity="0.749019607843" d="M28.25 6.1 L35.55 22.3 M15.0 38.6 L8.25 23.65"/><path fill="none" stroke="#f0b92b" stroke-width="0.5" d="M9.15 13.6 Q9.8 12.8 9.55 11.6 L9.1 10.55 22.05 6.35 Q24.9 5.45 26.25 7.85 L26.5 8.3 35.8 29.0 35.95 29.35 Q34.75 29.3 34.1 30.1 33.45 30.9 33.7 32.1 L34.0 32.9 20.65 37.2 Q18.8 37.8 17.65 37.0 16.8 36.4 16.3 35.2 L6.95 14.6 6.8 14.4 7.1 14.4 Q8.4 14.45 9.15 13.6"/></g><g id="c3"><path fill="#7fdbfe" stroke="none" d="M10.75 4.9 Q10.75 4.6 10.9 4.35 11.25 3.45 11.95 2.75 13.3 1.5 14.35 2.1 15.4 2.7 14.95 4.45 14.7 5.4 14.1 6.15 L13.75 6.5 Q13.1 7.15 12.35 7.35 L11.4 7.2 Q10.95 6.9 10.75 6.4 10.5 5.75 10.75 4.9 M7.5 5.9 Q7.0 5.85 6.6 5.5 6.05 5.0 5.8 4.15 L5.7 3.6 Q5.55 2.65 5.8 1.7 6.25 0.0 7.5 0.0 L7.6 0.0 Q8.85 0.0 9.3 1.7 9.55 2.65 9.4 3.6 L9.3 4.15 8.5 5.5 7.6 5.9 7.5 5.9 M4.35 4.9 Q4.6 5.75 4.35 6.4 L3.7 7.2 2.75 7.35 Q2.0 7.15 1.35 6.5 L1.0 6.15 Q0.4 5.4 0.15 4.45 -0.3 2.7 0.75 2.1 1.8 1.5 3.15 2.75 3.85 3.45 4.2 4.35 L4.35 4.9 M5.5 13.7 Q4.45 13.9 3.65 12.95 2.75 12.0 3.2 10.25 3.7 8.5 5.25 7.6 6.4 6.9 7.55 7.0 8.75 6.9 9.9 7.6 11.45 8.5 11.95 10.25 12.35 12.0 11.5 12.95 10.7 13.9 9.65 13.7 8.55 13.5 7.55 12.6 6.55 13.5 5.5 13.7"/></g><g id="c4"><g><use transform="matrix(1.0,0.0,0.0,1.0,0.0,0.0)" xlink:href="#c3"/></g></g><radialGradient gradientUnits="userSpaceOnUse" r="819.2" cx="0" cy="0" spreadMethod="pad" gradientTransform="matrix(0.0914459228516,0.0,0.0,0.0914459228516,0.6,3.4)" id="gradient1"><stop offset="0.0" stop-color="#ffffff"/><stop offset="1.0" stop-color="#ffffff" stop-opacity="0.0"/></radialGradient><g id="c5"><path stroke="none" fill="url(#gradient1)" d="M36.65 -54.65 Q60.05 -42.0 69.75 -17.95 80.55 8.9 68.0 34.1 55.45 59.35 26.8 68.2 -1.8 77.05 -29.7 64.3 -57.6 51.6 -68.45 24.75 -79.3 -2.05 -66.75 -27.25 L-66.7 -27.3 Q-54.1 -52.5 -25.5 -61.4 3.1 -70.2 31.0 -57.5 L36.65 -54.65"/></g><g id="c6"><g><use transform="matrix(1.0,0.0,0.0,1.0,0.0,0.0)" xlink:href="#c5"/></g></g><radialGradient gradientUnits="userSpaceOnUse" r="819.2" cx="0" cy="0" spreadMethod="pad" gradientTransform="matrix(0.209197998047,0.0,0.0,0.177108764648,67.15,107.2)" id="gradient2"><stop offset="0.356862745098" stop-color="#ffffff"/><stop offset="0.670588235294" stop-opacity="0.0"/></radialGradient><g id="c7"><path fill="none" stroke-linejoin="round" stroke-linecap="round" stroke="url(#gradient2)" stroke-width="0.5" d="M136.55 165.8 L68.6 106.0 68.4 106.0 118.25 201.5 M68.2 105.7 L68.25 105.8 68.25 105.75 68.2 105.7 0.0 45.7 M68.25 105.8 L68.3 105.85 68.3 105.8 68.25 105.75 49.95 0.05 M0.05 97.7 L68.15 105.95 68.25 105.85 68.25 105.8 M68.3 105.85 L68.25 105.85 68.3 106.0 68.3 105.85 68.3 105.8 68.35 105.8 68.3 105.8 86.6 18.35 M50.0 193.2 L68.3 106.0 68.15 105.95 18.25 151.55 M68.4 106.0 L68.3 106.0 86.55 211.5 M68.4 106.0 L68.3 105.85 M68.6 106.0 L68.35 105.8 118.25 60.15 M136.6 114.25 L68.6 106.0 M68.2 105.7 L18.25 10.05"/></g><g id="c8"><g><use transform="matrix(1.0,0.0,0.0,1.0,0.0,0.0)" xlink:href="#c7"/></g></g><g id="c9"><path fill="#7d614f" stroke="none" d="M15.0 17.15 L15.0 17.1 14.85 17.0 Q14.7 17.0 14.7 17.15 L14.75 17.25 14.85 17.3 14.95 17.25 15.0 17.2 15.0 17.15"/><path fill="none" stroke="#ff0000" stroke-width="0.5" d="M24.05 24.0 L24.3 23.95"/></g><g id="c10"><path fill="#999909" stroke="none" d="M14.3 23.3 Q14.75 22.5 14.75 21.05 10.3 21.3 6.3 18.15 L8.05 17.0 Q5.65 8.85 1.75 1.6 11.85 4.95 16.85 11.1 L17.5 9.95 Q19.0 13.4 19.05 17.2 L21.1 17.35 Q20.05 18.85 18.35 18.95 L17.5 18.65 17.15 20.05 Q16.6 22.55 14.3 23.3"/><path fill="#787707" stroke="none" d="M18.0 8.55 Q19.65 12.65 19.6 17.15 L22.0 17.15 Q20.65 19.05 18.7 19.2 L17.8 18.95 17.25 20.7 Q16.6 23.6 13.9 24.65 L14.3 23.3 14.4 21.95 Q9.3 22.45 4.6 18.85 L6.75 17.5 Q4.2 7.85 0.0 0.0 11.55 2.9 17.2 9.95 L18.0 8.55 M18.35 18.95 Q20.05 18.85 21.1 17.35 L19.05 17.2 Q19.0 13.4 17.5 9.95 L16.85 11.1 Q11.85 4.95 1.75 1.6 5.65 8.85 8.05 17.0 L6.3 18.15 Q10.3 21.3 14.75 21.05 14.75 22.5 14.3 23.3 16.6 22.55 17.15 20.05 L17.5 18.65 18.35 18.95"/><path fill="none" stroke="#000000" stroke-width="0.5" stroke-opacity="0.301960784314" d="M18.0 8.55 Q19.65 12.65 19.6 17.15 L22.0 17.15 Q20.65 19.05 18.7 19.2 L17.8 18.95 17.25 20.7 Q16.6 23.6 13.9 24.65 L14.3 23.3 14.4 21.95 Q9.3 22.45 4.6 18.85 L6.75 17.5 Q4.2 7.85 0.0 0.0 11.55 2.9 17.2 9.95 L18.0 8.55 M18.35 18.95 L17.5 18.65"/><path fill="#d0cf0d" stroke="none" d="M14.8 19.3 Q13.6 19.6 9.15 18.2 L11.7 15.2 Q9.85 10.3 6.8 5.9 11.05 6.9 15.95 12.85 L17.5 11.45 Q17.85 15.2 17.6 15.5 L19.35 17.9 17.7 17.95 17.25 17.6 Q17.2 18.65 15.55 21.85 L14.8 19.3"/><path fill="none" stroke="#000000" stroke-width="0.5" stroke-opacity="0.301960784314" d="M17.7 19.3 Q13.9 11.9 7.5 5.8"/></g><g id="c11"><g><use transform="matrix(1.0,0.0,0.0,1.0,0.0,0.0)" xlink:href="#c10"/></g></g><g id="c12"><path fill="#787707" stroke="none" d="M23.5 20.45 Q24.4 19.55 24.65 18.4 L24.35 18.6 23.15 16.55 Q22.25 17.9 21.9 19.45 L21.55 19.65 Q21.9 20.55 22.85 20.8 L22.7 21.3 23.3 20.85 23.85 20.55 23.8 20.5 23.25 20.8 22.75 21.15 22.85 20.8 Q22.05 20.55 21.7 19.75 L22.05 19.55 Q22.35 18.15 23.1 16.9 L24.25 18.8 24.5 18.6 23.5 20.45"/><path fill="#999909" stroke="none" d="M23.5 20.45 L24.5 18.6 24.25 18.8 23.1 16.9 Q22.35 18.15 22.05 19.55 L21.7 19.75 Q22.05 20.55 22.85 20.8 L22.75 21.15 23.25 20.8 23.8 20.5 23.5 20.45"/><path fill="none" stroke="#000000" stroke-width="0.5" stroke-opacity="0.301960784314" d="M23.8 20.5 L23.85 20.55 23.3 20.85 22.7 21.3 22.85 20.8 Q21.9 20.55 21.55 19.65 L21.9 19.45 Q22.25 17.9 23.15 16.55 L24.35 18.6 24.65 18.4 Q24.4 19.55 23.5 20.45"/><path fill="#d0cf0d" stroke="none" d="M22.9 17.65 L22.45 19.65 22.0 19.8 Q22.35 20.4 22.95 20.6 L22.95 20.95 23.2 20.7 23.55 20.6 23.3 20.4 24.2 19.05 23.7 19.35 Q23.4 18.95 23.05 17.35 L22.9 17.65"/><path fill="none" stroke="#000000" stroke-width="0.5" stroke-opacity="0.301960784314" d="M22.95 18.4 Q22.85 19.5 23.2 20.75"/><path fill="#916c5e" stroke="none" d="M13.35 12.1 L12.35 12.95 12.15 13.4 12.05 14.15 12.1 14.35 Q11.7 14.95 11.45 15.8 11.45 16.15 11.8 16.45 L12.35 16.7 12.8 16.8 13.1 16.7 13.35 17.2 13.65 17.5 14.15 17.75 14.25 17.85 14.35 17.9 15.2 19.0 15.5 19.25 Q15.95 19.4 16.1 19.1 L16.65 20.6 Q16.6 20.9 16.85 21.15 L17.0 21.35 18.15 21.75 18.5 22.1 20.35 23.4 20.45 23.45 20.8 23.6 21.75 24.05 23.6 25.35 23.65 25.4 25.55 27.15 26.6 27.95 26.85 28.95 Q27.2 29.9 28.05 30.9 L28.15 30.95 29.0 31.8 30.35 31.45 31.15 30.6 30.25 31.35 29.0 31.65 27.6 30.1 26.95 28.65 26.75 28.0 26.6 27.95 26.75 28.0 27.0 28.3 27.2 28.55 27.05 28.1 26.3 27.5 25.05 26.45 23.6 25.05 21.95 23.95 20.0 23.05 18.5 21.9 17.75 20.9 17.7 20.8 17.65 20.15 17.5 20.6 17.6 20.85 17.65 21.0 18.0 21.5 17.05 21.1 16.8 20.75 16.55 19.65 16.15 18.9 15.7 18.4 16.0 18.9 16.05 19.0 15.75 19.05 15.05 18.6 14.5 17.9 14.1 17.2 14.25 17.6 13.65 17.25 13.3 16.65 13.45 16.6 13.85 16.45 13.75 16.4 12.75 16.65 11.7 16.2 11.6 15.8 Q11.65 15.05 12.05 14.65 12.35 14.05 12.75 13.8 L12.8 13.75 12.9 13.75 12.8 13.85 12.5 15.05 12.55 15.3 12.55 15.4 12.95 15.85 13.05 15.85 13.1 15.9 13.8 15.9 14.2 15.7 14.3 15.45 14.05 15.6 13.95 15.6 13.15 15.7 12.7 15.3 Q12.6 14.7 12.9 13.95 L13.6 12.8 13.85 12.4 13.15 13.2 12.95 13.6 12.8 13.7 12.75 13.8 12.45 13.95 12.25 14.2 12.3 13.5 12.35 13.15 12.65 12.85 12.95 12.7 12.95 12.65 13.35 12.1 M12.1 14.35 L12.25 14.2 12.1 14.35 M12.9 13.75 L12.95 13.6 12.9 13.75 M14.35 17.9 L14.3 17.75 14.25 17.6 14.3 17.75 14.35 17.9 M13.1 16.7 L13.3 16.65 13.1 16.7 M18.15 21.75 L18.0 21.6 18.0 21.5 18.0 21.6 18.15 21.75 M16.1 19.1 L16.05 19.0 16.1 19.1 M30.6 30.55 L30.75 30.15 30.35 30.6 29.65 30.85 Q29.4 30.65 29.5 30.35 L29.4 30.3 Q29.25 30.7 29.5 30.9 L29.6 30.95 30.15 30.85 30.6 30.55 M19.15 20.65 L19.05 20.65 18.8 20.95 18.25 20.55 18.6 20.95 Q18.85 21.2 19.15 20.8 L19.15 20.65"/><path fill="#93765b" stroke="none" d="M31.65 29.75 L32.05 28.85 31.95 28.7 32.05 27.0 31.7 27.75 31.6 28.3 31.6 28.5 31.7 28.45 31.15 28.9 30.8 29.35 31.5 29.2 31.55 29.2 31.65 29.75 M30.95 26.55 L31.0 26.4 29.25 26.3 29.3 26.45 30.95 26.55 M28.75 25.6 L28.55 25.8 28.9 26.05 29.65 25.6 29.05 25.7 28.75 25.6 M23.6 21.15 L23.5 20.55 Q23.4 20.25 23.2 20.35 L23.25 21.3 23.6 22.5 23.55 23.25 23.85 23.75 24.0 23.9 24.3 24.05 24.55 24.05 24.3 23.6 24.05 23.45 24.05 23.8 Q23.6 22.95 23.95 23.25 L24.0 23.3 Q24.65 23.75 24.6 24.05 L24.5 24.35 Q24.2 24.45 23.75 24.0 L23.65 23.8 Q23.3 23.25 23.3 22.85 L23.15 22.75 23.3 23.4 21.5 22.3 21.55 22.45 22.45 23.1 22.25 23.05 20.95 22.35 20.0 21.35 19.6 20.5 18.75 19.6 18.75 19.85 18.05 19.5 17.2 18.65 17.2 18.3 16.5 17.9 15.75 17.0 15.7 16.85 15.75 16.4 16.6 17.05 16.8 17.25 17.0 17.5 16.95 17.05 16.6 16.4 16.8 16.45 17.05 16.3 17.3 16.05 17.5 15.85 17.55 15.8 17.65 15.5 17.7 15.15 17.65 14.9 17.55 14.9 17.25 14.95 17.05 14.9 16.9 14.95 16.7 14.95 16.5 14.95 16.3 14.95 16.1 15.0 15.8 15.0 15.65 15.05 14.55 14.15 14.45 14.65 13.7 14.2 13.35 14.25 13.55 13.35 Q13.75 12.6 14.4 11.85 13.85 12.05 13.35 12.4 L13.6 11.95 13.35 12.1 12.95 12.65 12.95 12.7 12.7 13.05 12.6 13.3 12.75 13.4 13.15 13.2 13.85 12.4 13.95 12.3 13.85 12.4 13.6 12.8 12.95 14.1 12.9 14.35 12.9 15.1 13.25 15.55 13.25 15.35 Q13.0 14.55 13.55 14.5 L13.95 14.8 14.15 15.1 14.3 15.45 14.2 15.7 13.8 15.9 14.35 16.25 14.8 17.15 13.85 16.45 13.45 16.6 13.8 17.15 13.9 17.15 13.95 16.75 14.35 17.2 14.7 17.7 14.8 17.75 15.45 18.0 15.25 17.45 16.55 19.0 17.0 20.4 Q17.25 20.65 17.5 20.6 L17.65 20.15 18.3 19.95 Q17.95 20.1 17.9 20.3 L18.05 20.85 19.0 21.8 20.9 23.0 23.85 24.55 26.15 26.45 27.1 27.15 27.25 27.25 27.7 27.8 28.15 28.85 29.2 29.8 30.4 29.65 30.8 30.0 30.75 30.15 30.6 30.55 30.85 30.35 30.85 30.3 30.9 29.75 30.5 29.5 29.9 29.6 28.7 28.75 28.5 28.5 28.3 28.05 28.15 27.6 28.55 27.9 29.95 28.6 30.1 28.3 29.65 28.1 28.9 27.7 28.15 27.1 27.9 26.45 Q26.75 25.75 25.55 25.3 L25.05 24.6 24.75 24.0 24.0 22.6 23.95 23.0 23.75 22.4 23.6 21.15 M17.65 17.1 Q18.0 16.45 17.95 15.5 L17.9 14.85 Q17.9 16.25 17.45 16.6 L17.65 17.1 M11.95 15.4 L11.95 15.95 12.55 16.4 13.25 16.3 12.75 16.1 Q12.35 15.8 12.25 15.3 L12.3 14.75 11.95 15.4 M18.5 20.0 L18.3 19.95 18.5 20.0 18.55 20.0 18.6 20.05 18.95 20.25 19.05 20.3 19.15 20.55 18.85 20.6 18.6 20.4 18.5 20.2 18.5 20.05 18.5 20.0 M19.15 20.65 L19.15 20.55 19.15 20.65 19.15 20.8 Q18.85 21.2 18.6 20.95 L18.25 20.55 18.25 20.5 18.25 20.3 18.4 20.5 18.85 20.7 19.05 20.65 19.15 20.65 M31.75 28.4 L31.95 28.7 31.75 28.4 M30.35 30.35 L30.35 30.15 29.8 30.0 29.6 30.15 29.55 30.25 29.75 30.4 30.1 30.45 30.35 30.35"/><path fill="#785c4b" stroke="none" d="M31.15 30.6 L31.65 29.75 31.55 29.2 31.5 29.2 30.65 29.5 Q31.1 29.55 31.0 29.95 L30.85 30.3 30.85 30.35 30.6 30.55 30.15 30.85 29.6 30.95 29.5 30.9 Q29.25 30.7 29.4 30.3 L29.5 30.2 29.55 30.1 29.6 30.05 30.45 30.1 30.35 30.35 30.1 30.45 29.75 30.4 29.5 30.35 Q29.4 30.65 29.65 30.85 L30.35 30.6 30.75 30.15 30.8 30.0 30.4 29.65 29.2 29.8 28.15 28.85 27.7 27.8 27.25 27.25 27.1 27.15 26.15 26.45 23.85 24.55 20.9 23.0 19.0 21.8 18.05 20.85 17.9 20.3 Q17.95 20.1 18.3 19.95 L17.65 20.15 17.7 20.8 17.75 20.9 18.5 21.9 20.0 23.05 21.95 23.95 23.6 25.05 25.05 26.45 26.3 27.5 27.05 28.1 27.2 28.55 27.0 28.3 26.75 28.0 26.95 28.65 27.6 30.1 29.0 31.65 30.25 31.35 31.15 30.6 M29.8 27.05 L30.55 27.0 30.95 26.55 29.3 26.45 29.5 26.8 29.8 27.05 M23.2 20.35 L22.95 20.6 22.95 20.8 23.2 21.85 23.2 21.9 23.3 22.45 23.3 22.85 Q23.3 23.25 23.65 23.8 L23.75 24.0 Q24.2 24.45 24.5 24.35 L24.6 24.05 24.35 24.15 23.95 23.9 23.85 23.75 23.55 23.25 23.6 22.5 23.25 21.3 23.2 20.35 M12.95 12.7 L12.65 12.85 12.35 13.15 12.3 13.5 12.25 14.2 12.45 13.95 12.75 13.8 12.8 13.7 12.95 13.6 13.15 13.2 12.75 13.4 12.6 13.3 12.7 13.05 12.95 12.7 M12.9 13.75 L12.8 13.75 12.75 13.8 Q12.35 14.05 12.05 14.65 11.65 15.05 11.6 15.8 L11.7 16.2 12.75 16.65 13.75 16.4 13.85 16.45 14.8 17.15 14.35 16.25 13.8 15.9 13.1 15.9 13.05 15.85 12.95 15.85 12.55 15.4 12.55 15.3 12.5 15.05 12.8 13.85 12.9 13.75 M13.5 16.15 L13.75 16.4 13.5 16.15 M11.95 15.4 L12.3 14.75 12.25 15.3 Q12.35 15.8 12.75 16.1 L13.25 16.3 12.55 16.4 11.95 15.95 11.95 15.4 M13.25 15.35 L13.25 15.55 12.9 15.1 12.9 14.35 12.95 14.1 13.6 12.8 12.9 13.95 Q12.6 14.7 12.7 15.3 L13.15 15.7 13.95 15.6 13.75 15.55 13.4 15.0 13.55 14.5 Q13.0 14.55 13.25 15.35 M17.5 20.6 Q17.25 20.65 17.0 20.4 L16.55 19.0 15.25 17.45 15.45 18.0 14.8 17.75 14.7 17.7 14.35 17.2 13.95 16.75 13.9 17.15 13.8 17.15 13.45 16.6 13.3 16.65 13.65 17.25 14.25 17.6 14.1 17.2 14.5 17.9 15.05 18.6 15.75 19.05 16.05 19.0 16.0 18.9 15.7 18.4 16.15 18.9 16.55 19.65 16.8 20.75 17.05 21.1 18.0 21.5 17.65 21.0 17.6 20.85 17.5 20.6 M15.7 18.4 L15.6 18.35 15.7 18.4 M29.95 28.6 L28.55 27.9 28.15 27.6 28.3 28.05 28.65 28.55 29.45 29.1 29.1 28.75 29.05 28.55 29.05 28.25 29.55 28.7 29.95 28.6 M19.05 20.65 L18.85 20.7 18.4 20.5 18.25 20.3 18.25 20.5 18.25 20.55 18.8 20.95 19.05 20.65 M24.05 23.8 L24.0 23.3 23.95 23.25 Q23.6 22.95 24.05 23.8 M27.25 28.6 L27.2 28.55 27.25 28.6 M31.6 28.3 L31.5 27.85 31.1 28.1 31.1 28.85 31.6 28.5 31.6 28.3 M28.55 27.9 L29.05 28.25 28.55 27.9"/><path fill="#cabdac" stroke="none" d="M32.05 27.0 L32.0 27.0 31.6 27.7 31.25 27.95 31.4 27.2 31.3 27.4 31.1 28.1 31.5 27.85 31.6 28.3 31.7 27.75 32.05 27.0 M30.25 28.0 L30.5 27.4 29.8 27.05 29.5 26.8 29.3 26.45 29.25 26.3 31.0 26.4 31.0 25.75 30.5 25.7 30.1 25.65 30.65 25.5 30.6 25.45 30.1 25.55 29.4 25.6 29.1 25.65 28.9 25.6 29.25 25.4 29.95 25.3 29.25 25.3 28.75 25.6 29.05 25.7 29.65 25.6 30.1 25.65 29.65 25.6 28.9 26.05 28.85 26.1 28.8 26.2 29.0 26.1 29.7 25.7 30.9 25.8 30.9 26.15 30.7 26.15 30.9 26.25 30.9 26.3 29.15 26.3 29.4 26.85 30.4 27.5 30.25 27.8 29.4 27.4 30.2 28.0 30.05 28.15 29.0 27.65 28.35 27.05 28.0 26.3 Q27.05 25.65 25.65 25.25 L25.15 24.65 24.6 23.4 25.3 24.5 26.0 24.95 Q27.0 25.55 28.1 25.65 L28.85 26.1 28.9 26.05 28.55 25.8 28.15 25.55 26.6 25.15 Q25.95 24.9 25.35 24.45 L24.15 22.55 24.0 22.2 23.75 21.55 23.6 21.15 23.75 22.4 23.95 23.0 24.0 22.6 24.75 24.0 25.05 24.6 25.55 25.3 Q26.75 25.75 27.9 26.45 L28.15 27.1 28.9 27.7 29.65 28.1 30.1 28.3 30.25 28.0 M23.15 22.75 L22.55 22.5 22.35 22.35 Q20.85 21.35 20.35 20.65 L19.65 19.45 19.45 19.2 19.45 19.15 Q18.25 18.4 17.65 17.1 L17.45 16.6 17.3 16.4 17.5 17.15 18.15 18.15 19.45 19.35 Q20.05 20.1 20.25 20.7 L20.6 21.05 22.2 22.4 23.15 22.85 23.1 23.1 21.45 22.1 21.4 22.4 21.85 22.8 21.1 22.35 20.1 21.3 19.75 20.4 18.6 19.4 18.6 19.7 Q18.0 19.45 17.35 18.75 L17.2 18.15 Q16.6 17.95 15.95 17.15 15.65 16.8 15.75 16.55 16.3 16.8 17.15 17.75 L17.1 17.1 16.75 16.55 17.5 15.85 17.3 16.05 17.05 16.3 16.8 16.45 16.6 16.4 16.95 17.05 17.0 17.5 16.8 17.25 16.6 17.05 15.75 16.4 15.7 16.85 15.75 17.0 16.5 17.9 17.2 18.3 17.2 18.65 18.05 19.5 18.75 19.85 18.75 19.6 19.6 20.5 20.0 21.35 20.95 22.35 22.25 23.05 22.45 23.1 21.55 22.45 21.5 22.3 23.3 23.4 23.15 22.75 M16.4 11.85 L15.25 11.5 14.9 11.55 14.35 11.65 14.2 11.75 13.6 11.95 13.35 12.4 Q13.85 12.05 14.4 11.85 13.75 12.6 13.55 13.35 L13.35 14.25 13.7 14.2 14.45 14.65 14.55 14.15 14.4 14.5 Q14.15 14.25 13.9 14.1 L13.45 14.15 13.6 13.4 Q13.9 12.55 14.5 11.75 L14.45 11.75 14.4 11.75 13.6 12.15 13.65 12.0 13.8 11.95 14.0 11.9 14.45 11.7 15.2 11.6 16.4 11.85 M14.15 15.1 L14.2 15.45 13.75 15.45 13.6 15.1 Q13.45 14.8 13.6 14.65 L13.95 14.8 13.55 14.5 13.4 15.0 13.75 15.55 13.95 15.6 14.05 15.6 14.3 15.45 14.15 15.1 M23.85 22.35 L23.8 21.85 23.95 22.35 23.95 22.6 23.85 22.35"/><path fill="#b3a588" stroke="none" d="M32.0 27.0 L31.75 26.95 31.45 27.0 31.4 27.2 31.25 27.95 31.6 27.7 32.0 27.0 M30.6 25.45 L30.55 25.2 29.95 25.25 29.95 25.3 29.25 25.4 28.9 25.6 29.1 25.65 29.4 25.6 30.1 25.55 30.6 25.45 M17.9 14.85 L17.65 14.05 16.35 12.95 16.4 11.85 15.2 11.6 14.45 11.7 14.0 11.9 13.8 11.95 13.65 12.0 13.6 12.15 14.4 11.75 14.45 11.75 14.5 11.75 Q13.9 12.55 13.6 13.4 L13.45 14.15 13.9 14.1 Q14.15 14.25 14.4 14.5 L14.55 14.15 15.65 15.05 15.8 15.0 16.1 15.0 16.3 14.95 16.5 14.95 16.7 14.95 16.9 14.95 17.05 14.9 17.25 14.95 17.55 14.9 17.65 14.9 17.7 15.15 17.65 15.5 17.55 15.8 17.5 15.85 16.75 16.55 17.1 17.1 17.15 17.75 Q16.3 16.8 15.75 16.55 15.65 16.8 15.95 17.15 16.6 17.95 17.2 18.15 L17.35 18.75 Q18.0 19.45 18.6 19.7 L18.6 19.4 19.75 20.4 20.1 21.3 21.1 22.35 21.85 22.8 21.4 22.4 21.45 22.1 23.1 23.1 23.15 22.85 22.2 22.4 20.6 21.05 20.25 20.7 Q20.05 20.1 19.45 19.35 L18.15 18.15 17.5 17.15 17.3 16.4 17.45 16.6 Q17.9 16.25 17.9 14.85 M13.95 14.8 L13.6 14.65 Q13.45 14.8 13.6 15.1 L13.75 15.45 14.2 15.45 14.15 15.1 13.95 14.8 M23.85 22.35 L23.95 22.6 23.95 22.35 23.8 21.85 23.85 22.35 M28.3 28.05 L28.5 28.5 28.7 28.75 29.9 29.6 30.5 29.5 30.9 29.75 30.85 30.3 31.0 29.95 Q31.1 29.55 30.65 29.5 L30.5 29.45 30.65 29.5 31.5 29.2 30.8 29.35 31.15 28.9 31.7 28.45 31.6 28.5 31.1 28.85 30.5 29.45 29.65 29.3 29.45 29.1 28.65 28.55 28.3 28.05 M18.5 20.0 L18.5 20.05 18.5 20.2 18.6 20.4 18.85 20.6 19.15 20.55 19.05 20.3 18.95 20.25 18.6 20.05 18.55 20.0 18.5 20.0 M24.0 23.3 L24.05 23.8 24.05 23.45 24.3 23.6 24.55 24.05 24.3 24.05 24.0 23.9 23.85 23.75 23.95 23.9 24.35 24.15 24.6 24.05 Q24.65 23.75 24.0 23.3 M28.85 26.1 L28.1 25.65 Q27.0 25.55 26.0 24.95 L25.3 24.5 24.6 23.4 25.15 24.65 25.65 25.25 Q27.05 25.65 28.0 26.3 L28.35 27.05 29.0 27.65 30.05 28.15 30.2 28.0 29.4 27.4 30.25 27.8 30.4 27.5 29.4 26.85 29.15 26.3 30.9 26.3 30.9 26.25 30.7 26.15 30.9 26.15 30.9 25.8 29.7 25.7 29.0 26.1 28.8 26.2 28.85 26.1 M29.75 30.4 L29.55 30.25 29.6 30.15 29.8 30.0 30.35 30.15 30.35 30.35 30.45 30.1 29.6 30.05 29.55 30.1 29.5 30.2 29.4 30.3 29.5 30.35 29.75 30.4"/><path fill="#675b43" stroke="none" d="M30.5 25.7 L30.65 25.5 30.1 25.65 30.5 25.7"/><path fill="#9b8564" stroke="none" d="M31.75 26.95 L31.75 26.25 31.35 26.4 31.3 27.4 31.4 27.2 31.45 27.0 31.75 26.95"/><path fill="#3e3528" stroke="none" d="M31.35 26.4 L30.85 27.5 30.5 28.05 30.25 28.0 30.1 28.3 29.95 28.6 29.55 28.7 29.05 28.25 29.05 28.55 29.1 28.75 29.45 29.1 29.65 29.3 30.5 29.45 31.1 28.85 31.1 28.1 31.3 27.4 31.35 26.4"/><path fill="none" stroke="#000000" stroke-width="0.5" stroke-opacity="0.301960784314" d="M13.35 12.1 L12.35 12.95 12.15 13.4 12.05 14.15 12.1 14.35 Q11.7 14.95 11.45 15.8 11.45 16.15 11.8 16.45 L12.35 16.7 12.8 16.8 13.1 16.7 13.35 17.2 13.65 17.5 14.15 17.75 14.25 17.85 14.35 17.9 15.2 19.0 15.5 19.25 Q15.95 19.4 16.1 19.1 L16.65 20.6 Q16.6 20.9 16.85 21.15 L17.0 21.35 18.15 21.75 18.5 22.1 20.35 23.4 20.45 23.45 20.8 23.6 21.75 24.05 23.6 25.35 23.65 25.4 25.55 27.15 26.6 27.95 26.85 28.95 Q27.2 29.9 28.05 30.9 L28.15 30.95 29.0 31.8 30.35 31.45 31.15 30.6 31.65 29.75 32.05 28.85 31.95 28.7 32.05 27.0 32.0 27.0 31.75 26.95 31.75 26.25 31.35 26.4 30.85 27.5 30.5 28.05 30.25 28.0 30.5 27.4 29.8 27.05 30.55 27.0 30.95 26.55 31.0 26.4 31.0 25.75 30.5 25.7 30.65 25.5 30.6 25.45 30.55 25.2 29.95 25.25 M29.95 25.3 L29.25 25.3 28.75 25.6 28.55 25.8 28.15 25.55 26.6 25.15 Q25.95 24.9 25.35 24.45 L24.15 22.55 24.0 22.2 23.75 21.55 23.6 21.15 23.5 20.55 Q23.4 20.25 23.2 20.35 L22.95 20.6 22.95 20.8 23.2 21.85 23.2 21.9 23.3 22.45 23.3 22.85 23.15 22.75 22.55 22.5 22.35 22.35 Q20.85 21.35 20.35 20.65 L19.65 19.45 19.45 19.2 19.45 19.15 Q18.25 18.4 17.65 17.1 18.0 16.45 17.95 15.5 L17.9 14.85 17.65 14.05 16.35 12.95 16.4 11.85 15.25 11.5 14.9 11.55 14.35 11.65 14.2 11.75 13.6 11.95 13.35 12.1 M12.25 14.2 L12.1 14.35 M12.9 13.75 L12.8 13.85 12.5 15.05 12.55 15.3 12.55 15.4 12.95 15.85 13.05 15.85 13.1 15.9 13.8 15.9 14.2 15.7 14.3 15.45 M14.8 17.15 L13.85 16.45 13.75 16.4 13.5 16.15 M13.95 12.3 L13.85 12.4 13.15 13.2 12.95 13.6 12.8 13.7 12.75 13.8 12.45 13.95 12.25 14.2 M12.95 13.6 L12.9 13.75 M17.45 16.6 L17.65 17.1 M13.95 14.8 L14.15 15.1 14.3 15.45 M13.55 14.5 L13.95 14.8 M13.45 16.6 L13.85 16.45 M14.25 17.6 L14.3 17.75 14.35 17.9 M14.1 17.2 L14.25 17.6 M13.3 16.65 L13.45 16.6 M13.3 16.65 L13.1 16.7 M13.55 14.5 Q13.0 14.55 13.25 15.35 M18.0 21.5 L18.0 21.6 18.15 21.75 M15.6 18.35 L15.7 18.4 16.0 18.9 16.05 19.0 16.1 19.1 M30.1 28.3 L29.95 28.6 M30.85 30.3 L30.85 30.35 30.6 30.55 30.15 30.85 29.6 30.95 29.5 30.9 Q29.25 30.7 29.4 30.3 L29.5 30.2 29.55 30.1 29.6 30.05 30.45 30.1 M18.3 19.95 L18.5 20.0 M19.15 20.55 L19.15 20.65 M18.6 20.95 Q18.85 21.2 19.15 20.8 L19.15 20.65 M24.05 23.8 Q23.6 22.95 23.95 23.25 L24.0 23.3 Q24.65 23.75 24.6 24.05 M23.3 22.85 Q23.3 23.25 23.65 23.8 L23.75 24.0 Q24.2 24.45 24.5 24.35 L24.6 24.05 M19.15 20.55 L19.05 20.3 18.95 20.25 18.6 20.05 18.55 20.0 18.5 20.0 M17.5 20.6 L17.6 20.85 17.65 21.0 18.0 21.5 M17.65 20.15 L18.3 19.95 M28.85 26.1 L28.8 26.2 M26.75 28.0 L27.0 28.3 27.2 28.55 27.25 28.6 M26.6 27.95 L26.75 28.0 M17.65 20.15 L17.5 20.6 M30.1 25.65 L29.65 25.6 M30.1 25.65 L30.5 25.7 M29.8 27.05 L29.5 26.8 29.3 26.45 29.25 26.3 M28.9 26.05 L28.85 26.1 M28.9 26.05 L29.65 25.6 M31.75 26.95 L31.45 27.0 31.4 27.2 31.3 27.4 M31.6 28.5 L31.1 28.85 31.1 28.1 31.3 27.4 M31.95 28.7 L31.75 28.4 M29.45 29.1 L29.1 28.75 29.05 28.55 29.05 28.25 29.55 28.7 29.95 28.6 M29.05 28.25 L28.55 27.9 M30.25 28.0 L30.1 28.3 M30.5 29.45 L30.65 29.5 Q31.1 29.55 31.0 29.95 L30.85 30.3 M31.1 28.85 L30.5 29.45 29.65 29.3 29.45 29.1 M28.55 25.8 L28.9 26.05"/><path fill="#a00101" stroke="none" d="M14.85 11.95 L14.5 12.2 Q14.2 13.45 14.35 14.95 L14.75 14.65 15.8 13.6 Q15.55 12.75 15.85 11.8 L14.85 11.95 M16.4 16.1 Q17.35 15.75 17.7 14.9 L17.7 14.8 17.75 13.6 17.05 14.1 16.55 15.65 16.4 16.1"/><path fill="#d20202" stroke="none" d="M14.85 11.95 L15.85 11.8 15.9 11.6 14.85 11.95 M17.7 14.8 L18.0 13.15 17.75 13.6 17.7 14.8 M17.65 12.5 L17.4 12.0 17.0 11.9 16.0 11.75 15.8 12.7 16.0 13.65 17.2 13.9 17.8 13.3 17.65 12.5"/><path fill="#fc2525" stroke="none" d="M15.85 11.8 Q15.55 12.75 15.8 13.6 L14.75 14.65 15.85 13.8 16.85 14.05 16.55 15.65 17.05 14.1 17.75 13.6 18.0 13.15 17.65 12.5 17.8 13.3 17.2 13.9 16.0 13.65 15.8 12.7 16.0 11.75 17.0 11.9 15.9 11.6 15.85 11.8"/><path fill="#7e0101" stroke="none" d="M14.75 14.65 L14.35 14.95 Q15.3 15.7 16.4 16.1 L16.55 15.65 16.85 14.05 15.85 13.8 14.75 14.65"/><path fill="none" stroke="#000000" stroke-width="0.5" stroke-opacity="0.301960784314" d="M14.35 14.95 Q14.2 13.45 14.5 12.2 L14.85 11.95 M14.35 14.95 Q15.3 15.7 16.4 16.1 17.35 15.75 17.7 14.9 L17.7 14.8 18.0 13.15 17.65 12.5 17.4 12.0 17.0 11.9 15.9 11.6 14.85 11.95"/><path fill="#000000" fill-opacity="0.211764705882" d="M14.55 13.4 L14.25 13.7 14.25 14.55 14.55 14.55 14.5 15.4 14.5 15.45 Q14.55 14.5 15.0 13.75 15.35 13.45 15.85 13.3 L16.8 13.5 Q17.15 13.9 16.9 14.25 L16.35 14.7 17.0 14.4 17.2 14.1 17.2 14.05 17.3 13.45 Q17.3 12.8 16.1 12.85 14.9 12.95 14.55 13.4"/></g><g id="c13"><path fill="#93765b" stroke="none" d="M13.95 13.85 L13.6 14.3 14.1 14.4 14.5 15.3 Q14.55 14.35 15.0 13.65 15.35 13.3 15.85 13.15 L16.8 13.35 Q17.15 13.75 16.9 14.1 L16.35 14.55 17.0 14.25 17.05 13.9 17.05 13.15 Q16.6 12.85 16.05 12.9 15.35 13.0 14.9 13.4 L14.2 14.25 Q13.75 14.35 13.95 13.85 M16.75 16.4 L16.25 15.7 15.9 15.45 15.1 15.55 Q15.75 15.75 16.65 16.5 L16.75 16.4"/><path fill="#cabdac" stroke="none" d="M17.2 13.95 L17.05 14.1 17.15 13.7 17.1 13.05 16.4 12.8 15.5 12.95 Q15.15 13.1 14.85 13.35 14.45 13.7 14.15 14.2 L13.95 14.15 14.1 13.7 13.95 13.85 Q13.75 14.35 14.2 14.25 L14.9 13.4 Q15.35 13.0 16.05 12.9 16.6 12.85 17.05 13.15 L17.05 13.9 17.0 14.25 17.2 14.0 17.2 13.95 M15.1 15.55 L15.9 15.45 16.25 15.7 16.75 16.4 16.3 15.7 15.75 15.4 15.05 15.55 15.1 15.55"/><path fill="#b3a588" stroke="none" d="M17.2 13.95 L17.3 13.3 Q17.25 12.65 16.05 12.7 14.9 12.8 14.55 13.25 L14.1 13.7 13.95 14.15 14.15 14.2 Q14.45 13.7 14.85 13.35 15.15 13.1 15.5 12.95 L16.4 12.8 17.1 13.05 17.15 13.7 17.05 14.1 17.2 13.95 M15.05 15.55 L15.75 15.4 16.3 15.7 16.75 16.4 16.7 16.2 Q16.5 15.3 16.05 15.25 L15.15 15.4 15.0 15.55 15.05 15.55"/><path fill="none" stroke="#000000" stroke-width="0.5" stroke-opacity="0.301960784314" d="M14.1 13.7 L14.55 13.25 Q14.9 12.8 16.05 12.7 17.25 12.65 17.3 13.3 L17.2 13.95 M14.1 13.7 L13.95 13.85 13.6 14.3 M14.5 15.3 Q14.55 14.35 15.0 13.65 15.35 13.3 15.85 13.15 L16.8 13.35 Q17.15 13.75 16.9 14.1 L16.35 14.55 17.0 14.25 17.2 14.0 17.2 13.95 M16.75 16.4 L16.65 16.5 M16.75 16.4 L16.7 16.2 Q16.5 15.3 16.05 15.25 L15.15 15.4 15.0 15.55"/></g><g id="c14"><g><use transform="matrix(1.0,0.0,0.0,1.0,0.0,0.0)" xlink:href="#c2"/></g><g><use transform="matrix(0.238861083984,-0.0867004394531,0.10026550293,0.233917236328,34.25,31.15)" xlink:href="#c4"/></g><g><use transform="matrix(0.238861083984,-0.0867004394531,0.10026550293,0.233917236328,4.25,10.3)" xlink:href="#c4"/></g><g><use transform="matrix(0.141098022461,-0.0378112792969,0.111373901367,0.225646972656,20.25,20.65)" filter="url(#filter8)" xlink:href="#c6"/></g><g><use transform="matrix(-0.155029296875,0.0513153076172,0.0841827392578,0.147033691406,22.6,2.3)" filter="url(#filter9)" xlink:href="#c8"/></g><g><use transform="matrix(1.0,0.0,0.0,1.0,0.0,0.0)" xlink:href="#c9"/></g><g><use transform="matrix(-0.119415283203,-0.0578155517578,-0.0770874023438,0.137115478516,27.15,18.6)" filter="url(#filter11)" xlink:href="#c11"/></g><g><use transform="matrix(1.0,0.0,0.0,1.0,0.0,0.0)" xlink:href="#c12"/></g><g><use transform="matrix(-0.0208892822266,0.012451171875,0.0103912353516,0.0248565673828,16.3,13.35)" filter="url(#filter13)" xlink:href="#c6"/></g><g><use transform="matrix(1.0,0.0,0.0,1.0,0.0,0.0)" xlink:href="#c13"/></g><g><use transform="matrix(-0.0380401611328,-0.0412292480469,-0.0176391601562,0.0162811279297,17.8,19.05)" filter="url(#filter15)" xlink:href="#c6"/></g><g><use transform="matrix(-0.0170288085938,-0.0184631347656,-0.0135040283203,0.0124664306641,24.1,19.45)" filter="url(#filter16)" xlink:href="#c6"/></g><g><use transform="matrix(-0.0263214111328,-0.0215606689453,-0.0135040283203,0.0124664306641,28.1,27.1)" filter="url(#filter17)" xlink:href="#c6"/></g><g><use transform="matrix(-0.0183868408203,-0.0199279785156,-0.0176391601562,0.0162811279297,16.15,14.45)" filter="url(#filter18)" xlink:href="#c6"/></g><g><use transform="matrix(0.162948608398,-0.0436706542969,0.128631591797,0.260604858398,20.35,20.95)" filter="url(#filter19)" xlink:href="#c6"/></g></g><filter id="filter8"><feColorMatrix in="SourceGraphic" type="matrix" values="0.0 0.0 0.0 0.0 0.796875 0.0 0.0 0.0 0.0 0.59765625 0.0 0.0 0.0 0.0 0.19921875 0.0 0.0 0.0 1.0 0.0" result="cxform"/><feComposite operator="in" in2="SourceGraphic" result="color-xform"/></filter><filter id="filter9"><feColorMatrix in="SourceGraphic" type="matrix" values="0.0 0.0 0.0 0.0 0.99609375 0.0 0.0 0.0 0.0 0.99609375 0.0 0.0 0.0 0.0 0.99609375 0.0 0.0 0.0 1.0 0.0" result="cxform"/><feComposite operator="in" in2="SourceGraphic" result="color-xform"/></filter><filter id="filter11"><feColorMatrix in="SourceGraphic" type="matrix" values="0.78125 0.0 0.0 0.0 0.0 0.0 0.78125 0.0 0.0 0.0 0.0 0.0 0.78125 0.0 0.0 0.0 0.0 0.0 1.0 0.0" result="cxform"/><feComposite operator="in" in2="SourceGraphic" result="color-xform"/></filter><filter id="filter13"><feColorMatrix in="SourceGraphic" type="matrix" values="0.0 0.0 0.0 0.0 0.99609375 0.0 0.0 0.0 0.0 0.59765625 0.0 0.0 0.0 0.0 0.0 0.0 0.0 0.0 0.48828125 0.0" result="cxform"/><feComposite operator="in" in2="SourceGraphic" result="color-xform"/></filter><filter id="filter15"><feColorMatrix in="SourceGraphic" type="matrix" values="1.0 0.0 0.0 0.0 0.0 0.0 1.0 0.0 0.0 0.0 0.0 0.0 1.0 0.0 0.0 0.0 0.0 0.0 0.140625 0.0" result="cxform"/><feComposite operator="in" in2="SourceGraphic" result="color-xform"/></filter><filter id="filter16"><feColorMatrix in="SourceGraphic" type="matrix" values="1.0 0.0 0.0 0.0 0.0 0.0 1.0 0.0 0.0 0.0 0.0 0.0 1.0 0.0 0.0 0.0 0.0 0.0 0.140625 0.0" result="cxform"/><feComposite operator="in" in2="SourceGraphic" result="color-xform"/></filter><filter id="filter17"><feColorMatrix in="SourceGraphic" type="matrix" values="1.0 0.0 0.0 0.0 0.0 0.0 1.0 0.0 0.0 0.0 0.0 0.0 1.0 0.0 0.0 0.0 0.0 0.0 0.140625 0.0" result="cxform"/><feComposite operator="in" in2="SourceGraphic" result="color-xform"/></filter><filter id="filter18"><feColorMatrix in="SourceGraphic" type="matrix" values="1.0 0.0 0.0 0.0 0.0 0.0 1.0 0.0 0.0 0.0 0.0 0.0 1.0 0.0 0.0 0.0 0.0 0.0 0.140625 0.0" result="cxform"/><feComposite operator="in" in2="SourceGraphic" result="color-xform"/></filter><filter id="filter19"><feColorMatrix in="SourceGraphic" type="matrix" values="1.0 0.0 0.0 0.0 0.0 0.0 1.0 0.0 0.0 0.0 0.0 0.0 1.0 0.0 0.0 0.0 0.0 0.0 0.23046875 0.0" result="cxform"/><feComposite operator="in" in2="SourceGraphic" result="color-xform"/></filter></defs><g><g><use transform="matrix(1.0,0.0,0.0,1.0,0.0,0.0)" xlink:href="#c1"/></g><g><use transform="matrix(1.15496826172,0.0,0.0,1.15496826172,5.85,3.95)" xlink:href="#c14"/></g></g></svg>