<?xml version='1.0' encoding='UTF-8'?>
<svg xmlns:xlink="http://www.w3.org/1999/xlink" xmlns="http://www.w3.org/2000/svg" version="1.1" width="60px" height="60px" viewBox="0.0 0.0 60.0 60.0"><defs><g id="c1"><path fill="#000000" fill-opacity="0.00392156862745" d="M0.0 0.0 L60.0 0.0 60.0 60.0 0.0 60.0 0.0 0.0"/></g><g id="c2"><path fill="none" stroke="#000000" stroke-width="1.0" stroke-opacity="0.301960784314" d="M22.3 0.35 Q26.6 -1.0 28.5 3.05 L41.4 31.7 Q43.1 35.4 39.9 36.85 L38.15 37.65 19.65 43.65 Q17.05 44.5 15.35 43.3 14.2 42.55 13.5 40.9 L0.55 12.25 Q-0.6 9.75 0.6 8.25 1.15 7.55 2.2 7.05 2.85 6.6 3.8 6.3 L22.3 0.35"/><path fill="#300525" stroke="none" d="M25.55 0.9 Q26.9 1.6 27.8 3.55 L40.7 32.15 Q42.6 36.3 38.3 37.65 L23.3 42.5 13.15 21.4 4.6 20.9 0.7 12.25 Q-0.45 9.75 0.75 8.25 L29.8 9.75 25.55 0.9 M20.1 43.55 L19.8 43.65 Q17.15 44.45 15.5 43.3 L20.1 43.55"/><path fill="#630a4c" stroke="none" d="M23.3 42.5 L20.1 43.55 15.5 43.3 Q14.35 42.55 13.65 40.9 L4.6 20.9 13.15 21.4 23.3 42.5 M0.75 8.25 Q1.45 7.3 3.1 6.75 L21.65 0.8 25.55 0.9 29.8 9.75 0.75 8.25"/><path fill="none" stroke="#000000" stroke-width="0.5" stroke-opacity="0.301960784314" d="M25.55 0.9 Q26.9 1.6 27.8 3.55 L40.7 32.15 Q42.6 36.3 38.3 37.65 L23.3 42.5 20.1 43.55 19.8 43.65 Q17.15 44.45 15.5 43.3 14.35 42.55 13.65 40.9 L4.6 20.9 0.7 12.25 Q-0.45 9.75 0.75 8.25 1.45 7.3 3.1 6.75 L21.65 0.8 25.55 0.9"/><path fill="#9d147b" stroke="none" d="M14.2 40.5 L1.35 11.8 Q-0.5 7.75 3.8 6.35 L22.3 0.4 Q26.55 -1.0 28.45 3.1 L41.35 31.7 Q43.25 35.85 38.9 37.25 L20.4 43.2 Q16.1 44.55 14.2 40.5"/><path fill="none" stroke="#000000" stroke-width="0.5" stroke-opacity="0.301960784314" d="M14.2 40.5 L1.35 11.8 Q-0.5 7.75 3.8 6.35 L22.3 0.4 Q26.55 -1.0 28.45 3.1 L41.35 31.7 Q43.25 35.85 38.9 37.25 L20.4 43.2 Q16.1 44.55 14.2 40.5"/><path fill="#fcf2cf" stroke="none" d="M9.15 13.6 Q9.8 12.8 9.55 11.6 L9.1 10.55 22.05 6.35 Q24.9 5.45 26.25 7.85 L26.5 8.3 35.8 29.0 35.95 29.35 Q34.75 29.3 34.1 30.1 33.45 30.9 33.7 32.1 L34.0 32.9 20.65 37.2 Q18.8 37.8 17.65 37.0 16.8 36.4 16.3 35.2 L6.95 14.6 6.8 14.4 7.1 14.4 Q8.4 14.45 9.15 13.6"/><path fill="#c47fad" stroke="none" d="M8.25 23.65 L3.35 12.8 Q1.65 9.1 5.5 7.85 L22.25 2.5 Q26.05 1.25 27.75 4.95 L28.25 6.1 35.55 22.3 39.35 30.75 Q41.1 34.5 37.2 35.7 L20.45 41.1 Q16.8 42.25 15.2 39.0 L15.0 38.6 8.25 23.65 M9.15 13.6 Q8.4 14.45 7.1 14.4 L6.8 14.4 6.95 14.6 16.3 35.2 Q16.8 36.4 17.65 37.0 18.8 37.8 20.65 37.2 L34.0 32.9 33.7 32.1 Q33.45 30.9 34.1 30.1 34.75 29.3 35.95 29.35 L35.8 29.0 26.5 8.3 26.25 7.85 Q24.9 5.45 22.05 6.35 L9.1 10.55 9.55 11.6 Q9.8 12.8 9.15 13.6"/><path fill="none" stroke="#ffcc00" stroke-width="1.0" stroke-opacity="0.749019607843" d="M8.25 23.65 L3.35 12.8 Q1.65 9.1 5.5 7.85 L22.25 2.5 Q26.05 1.25 27.75 4.95 L28.25 6.1 M35.55 22.3 L39.35 30.75 Q41.1 34.5 37.2 35.7 L20.45 41.1 Q16.8 42.25 15.2 39.0 L15.0 38.6"/><path fill="none" stroke="#bf9900" stroke-width="1.0" stroke-opacity="0.749019607843" d="M28.25 6.1 L35.55 22.3 M15.0 38.6 L8.25 23.65"/><path fill="none" stroke="#f0b92b" stroke-width="0.5" d="M9.15 13.6 Q9.8 12.8 9.55 11.6 L9.1 10.55 22.05 6.35 Q24.9 5.45 26.25 7.85 L26.5 8.3 35.8 29.0 35.95 29.35 Q34.75 29.3 34.1 30.1 33.45 30.9 33.7 32.1 L34.0 32.9 20.65 37.2 Q18.8 37.8 17.65 37.0 16.8 36.4 16.3 35.2 L6.95 14.6 6.8 14.4 7.1 14.4 Q8.4 14.45 9.15 13.6"/></g><g id="c3"><path fill="#7fdbfe" stroke="none" d="M10.75 4.9 Q10.75 4.6 10.9 4.35 11.25 3.45 11.95 2.75 13.3 1.5 14.35 2.1 15.4 2.7 14.95 4.45 14.7 5.4 14.1 6.15 L13.75 6.5 Q13.1 7.15 12.35 7.35 L11.4 7.2 Q10.95 6.9 10.75 6.4 10.5 5.75 10.75 4.9 M7.5 5.9 Q7.0 5.85 6.6 5.5 6.05 5.0 5.8 4.15 L5.7 3.6 Q5.55 2.65 5.8 1.7 6.25 0.0 7.5 0.0 L7.6 0.0 Q8.85 0.0 9.3 1.7 9.55 2.65 9.4 3.6 L9.3 4.15 8.5 5.5 7.6 5.9 7.5 5.9 M4.35 4.9 Q4.6 5.75 4.35 6.4 L3.7 7.2 2.75 7.35 Q2.0 7.15 1.35 6.5 L1.0 6.15 Q0.4 5.4 0.15 4.45 -0.3 2.7 0.75 2.1 1.8 1.5 3.15 2.75 3.85 3.45 4.2 4.35 L4.35 4.9 M5.5 13.7 Q4.45 13.9 3.65 12.95 2.75 12.0 3.2 10.25 3.7 8.5 5.25 7.6 6.4 6.9 7.55 7.0 8.75 6.9 9.9 7.6 11.45 8.5 11.95 10.25 12.35 12.0 11.5 12.95 10.7 13.9 9.65 13.7 8.55 13.5 7.55 12.6 6.55 13.5 5.5 13.7"/></g><g id="c4"><g><use transform="matrix(1.0,0.0,0.0,1.0,0.0,0.0)" xlink:href="#c3"/></g></g><radialGradient gradientUnits="userSpaceOnUse" r="819.2" cx="0" cy="0" spreadMethod="pad" gradientTransform="matrix(0.0914459228516,0.0,0.0,0.0914459228516,0.6,3.4)" id="gradient1"><stop offset="0.0" stop-color="#ffffff"/><stop offset="1.0" stop-color="#ffffff" stop-opacity="0.0"/></radialGradient><g id="c5"><path stroke="none" fill="url(#gradient1)" d="M36.65 -54.65 Q60.05 -42.0 69.75 -17.95 80.55 8.9 68.0 34.1 55.45 59.35 26.8 68.2 -1.8 77.05 -29.7 64.3 -57.6 51.6 -68.45 24.75 -79.3 -2.05 -66.75 -27.25 L-66.7 -27.3 Q-54.1 -52.5 -25.5 -61.4 3.1 -70.2 31.0 -57.5 L36.65 -54.65"/></g><g id="c6"><g><use transform="matrix(1.0,0.0,0.0,1.0,0.0,0.0)" xlink:href="#c5"/></g></g><radialGradient gradientUnits="userSpaceOnUse" r="819.2" cx="0" cy="0" spreadMethod="pad" gradientTransform="matrix(0.209197998047,0.0,0.0,0.177108764648,67.15,107.2)" id="gradient2"><stop offset="0.356862745098" stop-color="#ffffff"/><stop offset="0.670588235294" stop-opacity="0.0"/></radialGradient><g id="c7"><path fill="none" stroke-linejoin="round" stroke-linecap="round" stroke="url(#gradient2)" stroke-width="0.5" d="M136.55 165.8 L68.6 106.0 68.4 106.0 118.25 201.5 M68.2 105.7 L68.25 105.8 68.25 105.75 68.2 105.7 0.0 45.7 M68.25 105.8 L68.3 105.85 68.3 105.8 68.25 105.75 49.95 0.05 M0.05 97.7 L68.15 105.95 68.25 105.85 68.25 105.8 M68.3 105.85 L68.25 105.85 68.3 106.0 68.3 105.85 68.3 105.8 68.35 105.8 68.3 105.8 86.6 18.35 M50.0 193.2 L68.3 106.0 68.15 105.95 18.25 151.55 M68.4 106.0 L68.3 106.0 86.55 211.5 M68.4 106.0 L68.3 105.85 M68.6 106.0 L68.35 105.8 118.25 60.15 M136.6 114.25 L68.6 106.0 M68.2 105.7 L18.25 10.05"/></g><g id="c8"><g><use transform="matrix(1.0,0.0,0.0,1.0,0.0,0.0)" xlink:href="#c7"/></g></g><linearGradient gradientUnits="userSpaceOnUse" x1="-819.2" x2="819.2" spreadMethod="pad" gradientTransform="matrix(-0.00358581542969,-0.0204315185547,-0.0205841064453,0.00361633300781,15.6,7.05)" id="gradient3"><stop offset="0.0" stop-color="#ffff00" stop-opacity="0.0"/><stop offset="1.0" stop-color="#ff9900"/></linearGradient><linearGradient gradientUnits="userSpaceOnUse" x1="-819.2" x2="819.2" spreadMethod="pad" gradientTransform="matrix(-0.00265502929688,0.00030517578125,0.000518798828125,0.00453186035156,2.9,27.95)" id="gradient4"><stop offset="0.0" stop-color="#ffff00" stop-opacity="0.0"/><stop offset="1.0" stop-color="#ff9900"/></linearGradient><linearGradient gradientUnits="userSpaceOnUse" x1="-819.2" x2="819.2" spreadMethod="pad" gradientTransform="matrix(-0.00975036621094,-0.00445556640625,-0.00218200683594,0.00480651855469,1.05,13.25)" id="gradient5"><stop offset="0.0" stop-color="#ffff00" stop-opacity="0.0"/><stop offset="1.0" stop-color="#ff9900"/></linearGradient><g id="c9"><path stroke="none" fill="url(#gradient3)" d="M22.0 23.6 L11.85 23.1 11.55 23.05 5.45 22.35 Q1.9 21.8 1.5 23.4 L1.45 23.45 Q0.65 24.8 3.5 27.0 5.65 28.6 9.1 30.05 12.45 31.5 15.15 31.9 18.75 32.4 19.1 30.8 20.0 29.4 17.1 27.25 15.7 26.2 13.85 25.2 L21.95 25.65 21.9 25.65 Q26.5 25.8 27.05 23.8 28.05 21.8 24.05 18.85 L17.15 13.7 17.1 13.65 16.95 13.35 16.85 13.3 16.25 12.85 16.25 12.8 16.2 12.8 16.15 12.8 Q10.6 8.45 7.05 5.8 4.0 3.45 4.15 2.45 L8.6 2.2 Q13.35 2.9 19.4 5.45 25.45 8.0 29.3 10.9 32.45 13.3 32.2 14.25 L27.75 14.5 Q23.45 13.85 18.0 11.7 L17.25 11.65 Q16.9 11.85 16.7 12.2 16.6 12.6 16.75 13.0 L16.95 13.3 17.3 13.5 Q22.95 15.85 27.45 16.5 33.35 17.4 34.05 15.05 35.2 12.9 30.5 9.35 26.5 6.3 20.15 3.65 13.85 1.0 8.9 0.25 L8.95 0.25 Q3.05 -0.7 2.3 1.65 1.2 3.8 5.85 7.4 L5.9 7.4 14.85 14.3 15.6 15.05 22.85 20.45 Q25.25 22.2 25.15 23.05 24.7 23.75 22.0 23.6 M4.7 25.4 Q3.4 24.45 3.3 24.2 L3.35 24.15 5.15 24.3 11.3 25.05 11.6 25.1 11.75 25.1 11.65 25.3 Q11.45 25.65 11.6 26.05 L12.1 26.65 Q14.35 27.7 15.9 28.8 L17.25 30.05 15.45 29.9 Q12.95 29.5 9.85 28.2 6.7 26.9 4.7 25.4"/><path stroke="none" fill="url(#gradient4)" d="M4.7 25.4 Q6.7 26.9 9.85 28.2 12.95 29.5 15.45 29.9 L17.25 30.05 15.9 28.8 Q14.35 27.7 12.1 26.65 L11.6 26.05 Q11.45 25.65 11.65 25.3 L11.75 25.1 11.6 25.1 11.3 25.05 5.15 24.3 3.35 24.15 3.3 24.2 Q3.4 24.45 4.7 25.4"/><path stroke="none" fill="url(#gradient5)" d="M11.1 22.25 L11.7 21.75 11.7 21.0 Q11.55 20.6 11.2 20.45 7.1 18.6 4.35 16.6 2.0 14.75 2.05 14.1 2.5 13.55 5.45 14.05 9.05 14.55 13.65 16.45 L14.35 16.45 14.95 15.85 Q15.1 15.5 14.9 15.1 L14.35 14.55 Q9.55 12.6 5.75 12.05 0.8 11.25 0.2 13.3 -0.85 15.15 3.15 18.15 6.0 20.35 10.35 22.3 L11.1 22.25"/></g><g id="c10"><path fill="#a8956b" stroke="none" d="M25.25 9.6 L28.65 5.75 Q29.5 4.85 30.7 4.8 31.9 4.75 32.8 5.6 L33.25 6.15 Q33.8 6.75 33.8 7.75 33.85 8.95 33.0 9.8 L29.7 13.1 29.3 13.5 29.05 13.75 29.0 13.7 28.5 13.9 Q27.6 13.85 26.65 13.2 L33.25 6.15 26.65 13.2 Q26.3 13.05 26.1 12.8 L25.1 11.85 Q24.65 11.1 24.7 10.3 L24.75 10.25 25.25 9.6 M29.1 7.35 L25.1 11.85 29.1 7.35"/><path fill="#c7b17f" stroke="none" d="M26.65 13.2 Q27.6 13.85 28.5 13.9 L29.0 13.7 29.05 13.75 8.95 33.85 9.5 35.25 9.6 38.5 6.65 40.55 5.5 40.05 5.5 40.0 6.55 39.05 7.3 37.85 Q7.35 36.9 6.45 35.6 5.55 34.35 5.1 34.35 L4.6 34.6 5.4 33.6 25.1 11.85 26.1 12.8 Q26.3 13.05 26.65 13.2 L23.95 16.05 26.65 13.2 M8.4 32.7 L8.95 33.85 8.4 32.7 7.3 33.85 8.4 32.7 19.2 21.3 8.4 32.7 M4.55 30.9 L6.3 31.2 4.45 33.4 4.55 30.9 M1.9 36.6 L2.3 36.45 2.55 36.15 2.0 34.95 1.3 33.95 Q2.25 34.1 2.95 34.85 L3.45 35.4 3.75 35.9 3.7 37.2 1.9 36.6"/><path fill="#fce5af" stroke="none" d="M24.7 10.3 Q24.65 11.1 25.1 11.85 L5.4 33.6 4.6 34.6 5.1 34.35 Q5.55 34.35 6.45 35.6 7.35 36.9 7.3 37.85 L6.55 39.05 5.5 40.0 5.5 40.05 5.45 40.0 3.6 39.2 3.7 37.2 3.75 35.9 3.45 35.4 2.95 34.85 Q2.25 34.1 1.3 33.95 L2.0 34.95 2.55 36.15 2.3 36.45 1.9 36.6 0.2 36.05 0.0 36.0 0.45 31.95 3.65 30.75 4.45 30.9 4.55 30.9 4.45 33.4 6.3 31.2 24.7 10.3"/><path fill="none" stroke="#000000" stroke-width="0.5" stroke-opacity="0.301960784314" d="M33.25 6.15 L32.8 5.6 Q31.9 4.75 30.7 4.8 29.5 4.85 28.65 5.75 L25.25 9.6 M29.05 13.75 L29.3 13.5 M29.7 13.1 L33.0 9.8 Q33.85 8.95 33.8 7.75 33.8 6.75 33.25 6.15 M5.5 40.05 L6.65 40.55 9.6 38.5 9.5 35.25 8.95 33.85 8.4 32.7 M0.2 36.05 L1.6 36.6 1.9 36.6 0.2 36.05 0.0 36.0 0.45 31.95 3.65 30.75 4.45 30.9 4.55 30.9 6.3 31.2 24.7 10.3 M3.45 35.4 L3.75 35.9 3.7 37.2 3.6 39.2 5.45 40.0 5.5 40.05 M4.45 33.4 L6.3 31.2 M1.9 36.6 L3.7 37.2 M8.95 33.85 L29.05 13.75"/><path fill="none" stroke="#000000" stroke-width="0.5" stroke-opacity="0.101960784314" d="M25.1 11.85 L29.1 7.35 M33.25 6.15 L26.65 13.2 M25.1 11.85 L5.4 33.6 M8.4 32.7 L7.3 33.85 M19.2 21.3 L8.4 32.7 M23.95 16.05 L26.65 13.2"/></g><g id="c11"><path fill="#29211d" stroke="none" d="M11.25 -1.6 Q13.35 -3.25 14.2 -3.5 14.7 -3.65 14.7 -2.45 14.7 1.35 10.45 3.75 L10.3 3.75 Q7.75 5.35 4.75 6.1 L4.15 6.1 0.15 6.15 -3.05 5.95 Q-5.3 5.55 -7.4 4.55 L-9.25 3.6 -10.25 2.95 -11.15 2.4 -12.45 1.35 -12.5 1.35 -12.75 1.05 Q-14.65 -1.1 -14.65 -3.65 -14.65 -5.05 -14.2 -6.25 L-13.55 -5.1 Q-12.5 -3.5 -10.2 -2.05 L-9.7 -1.75 Q-5.65 0.95 0.2 1.2 L0.7 1.2 2.15 1.2 5.65 0.8 7.15 0.4 Q8.95 -0.15 10.45 -1.2 L11.25 -1.6"/></g><g id="c12"><g><use transform="matrix(1.0,0.0,0.0,1.0,0.0,0.0)" xlink:href="#c11"/></g></g><g id="c13"><path fill="#ba9b5c" stroke="none" d="M19.5 16.45 Q19.5 15.85 19.85 15.3 20.0 15.0 20.25 14.85 L20.2 15.1 Q19.75 15.45 19.45 16.55 L19.5 16.45 M20.35 16.25 Q20.6 17.2 21.45 17.9 L21.55 17.95 21.1 18.4 19.9 17.8 19.8 17.6 Q19.65 16.65 20.35 16.25"/><path fill="#f2ca78" stroke="none" d="M20.2 15.1 L20.3 16.15 20.35 16.25 Q19.65 16.65 19.8 17.6 L19.85 17.8 19.7 17.4 19.65 17.15 19.55 16.95 19.5 16.55 19.45 16.55 Q19.75 15.45 20.2 15.1 M21.55 17.95 L21.8 18.1 21.75 18.15 Q21.55 18.45 21.1 18.4 L21.55 17.95"/><path fill="#7a643c" stroke="none" d="M22.35 18.4 L22.65 18.5 Q22.35 19.2 21.5 19.4 L21.4 19.3 Q22.2 19.05 22.35 18.4 M23.55 18.55 L24.4 18.15 24.15 18.7 Q23.7 19.45 22.7 19.55 23.3 19.2 23.55 18.55 M20.3 18.55 L19.85 17.8 19.8 17.6 19.9 17.8 21.1 18.4 20.3 18.55"/><path fill="#877043" stroke="none" d="M21.8 18.1 L22.35 18.4 Q22.2 19.05 21.4 19.3 L20.8 18.9 20.3 18.55 21.1 18.4 Q21.55 18.45 21.75 18.15 L21.8 18.1 M22.65 18.5 L23.35 18.5 23.55 18.55 Q23.3 19.2 22.7 19.55 L22.7 19.5 21.5 19.4 Q22.35 19.2 22.65 18.5"/><path fill="none" stroke="#000000" stroke-width="0.5" stroke-opacity="0.301960784314" d="M19.5 16.45 Q19.5 15.85 19.85 15.3 20.0 15.0 20.25 14.85 L20.2 15.1 20.3 16.15 20.35 16.25 Q20.6 17.2 21.45 17.9 L21.55 17.95 21.8 18.1 22.35 18.4 22.65 18.5 23.35 18.5 23.55 18.55 24.4 18.15 24.15 18.7 Q23.7 19.45 22.7 19.55 L22.7 19.5 21.5 19.4 21.4 19.3 20.8 18.9 20.3 18.55 19.85 17.8 19.7 17.4 19.65 17.15 19.55 16.95 19.5 16.55 19.45 16.55 M20.2 15.1 Q19.75 15.45 19.45 16.55 M19.85 17.8 L19.8 17.6 Q19.65 16.65 20.35 16.25 M21.1 18.4 L21.55 17.95 M20.3 18.55 L21.1 18.4 M22.35 18.4 Q22.2 19.05 21.4 19.3 M23.55 18.55 Q23.3 19.2 22.7 19.55 M22.65 18.5 Q22.35 19.2 21.5 19.4"/></g><g id="c14"><path fill="#ba9b5c" stroke="none" d="M18.5 17.65 Q18.5 17.05 18.85 16.5 L19.25 16.05 19.2 16.3 Q18.75 16.65 18.45 17.75 L18.5 17.65 M19.35 17.45 Q19.6 18.4 20.45 19.1 L20.55 19.15 20.1 19.6 18.9 19.0 18.8 18.8 Q18.65 17.85 19.35 17.45"/><path fill="#f2ca78" stroke="none" d="M19.2 16.3 L19.3 17.35 19.35 17.45 Q18.65 17.85 18.8 18.8 L18.85 19.0 18.7 18.6 18.65 18.35 18.55 18.15 18.5 17.75 18.45 17.75 Q18.75 16.65 19.2 16.3 M20.55 19.15 L20.8 19.3 20.75 19.35 Q20.55 19.65 20.1 19.6 L20.55 19.15"/><path fill="#7a643c" stroke="none" d="M21.35 19.6 L21.65 19.7 Q21.35 20.4 20.5 20.6 L20.4 20.5 Q21.2 20.25 21.35 19.6 M22.55 19.75 L23.4 19.35 23.15 19.9 Q22.7 20.65 21.7 20.75 L22.55 19.75 M19.3 19.75 L18.85 19.0 18.8 18.8 18.9 19.0 20.1 19.6 19.3 19.75"/><path fill="#877043" stroke="none" d="M20.8 19.3 L21.35 19.6 Q21.2 20.25 20.4 20.5 L19.8 20.1 19.3 19.75 20.1 19.6 Q20.55 19.65 20.75 19.35 L20.8 19.3 M21.65 19.7 L22.35 19.7 22.55 19.75 21.7 20.75 21.7 20.7 20.5 20.6 Q21.35 20.4 21.65 19.7"/><path fill="none" stroke="#000000" stroke-width="0.5" stroke-opacity="0.301960784314" d="M18.5 17.65 Q18.5 17.05 18.85 16.5 L19.25 16.05 19.2 16.3 19.3 17.35 19.35 17.45 Q19.6 18.4 20.45 19.1 L20.55 19.15 20.8 19.3 21.35 19.6 21.65 19.7 22.35 19.7 22.55 19.75 23.4 19.35 23.15 19.9 Q22.7 20.65 21.7 20.75 L21.7 20.7 20.5 20.6 20.4 20.5 19.8 20.1 19.3 19.75 18.85 19.0 18.7 18.6 18.65 18.35 18.55 18.15 18.5 17.75 18.45 17.75 Q18.75 16.65 19.2 16.3 M18.85 19.0 L18.8 18.8 Q18.65 17.85 19.35 17.45 M20.1 19.6 L20.55 19.15 M19.3 19.75 L20.1 19.6 M21.35 19.6 Q21.2 20.25 20.4 20.5 M22.55 19.75 L21.7 20.75 M21.65 19.7 Q21.35 20.4 20.5 20.6"/></g><g id="c15"><path fill="#ba9b5c" stroke="none" d="M20.45 15.1 Q20.45 14.5 20.8 13.95 L21.2 13.5 21.15 13.75 Q20.7 14.1 20.4 15.2 L20.45 15.1 M21.3 14.9 Q21.55 15.85 22.4 16.55 L22.5 16.6 22.05 17.05 Q21.65 17.0 20.85 16.45 L20.75 16.25 Q20.6 15.3 21.3 14.9"/><path fill="#f2ca78" stroke="none" d="M21.15 13.75 L21.25 14.8 21.3 14.9 Q20.6 15.3 20.75 16.25 L20.8 16.45 20.65 16.05 20.6 15.8 20.5 15.6 20.45 15.2 20.4 15.2 Q20.7 14.1 21.15 13.75 M22.5 16.6 L22.75 16.75 22.7 16.8 22.05 17.05 22.5 16.6"/><path fill="#7a643c" stroke="none" d="M23.3 17.05 L23.6 17.15 Q23.3 17.85 22.45 18.05 L22.35 17.95 Q23.15 17.7 23.3 17.05 M24.5 17.2 L25.35 16.8 25.1 17.35 Q24.65 18.1 23.65 18.2 L24.5 17.2 M21.25 17.2 L20.8 16.45 20.75 16.25 20.85 16.45 Q21.65 17.0 22.05 17.05 L21.25 17.2"/><path fill="#877043" stroke="none" d="M22.75 16.75 L23.3 17.05 Q23.15 17.7 22.35 17.95 L21.75 17.55 21.25 17.2 22.05 17.05 22.7 16.8 22.75 16.75 M23.6 17.15 L24.3 17.15 24.5 17.2 23.65 18.2 23.65 18.15 22.45 18.05 Q23.3 17.85 23.6 17.15"/><path fill="none" stroke="#000000" stroke-width="0.5" stroke-opacity="0.301960784314" d="M20.45 15.1 Q20.45 14.5 20.8 13.95 L21.2 13.5 21.15 13.75 21.25 14.8 21.3 14.9 Q21.55 15.85 22.4 16.55 L22.5 16.6 22.75 16.75 23.3 17.05 23.6 17.15 24.3 17.15 24.5 17.2 25.35 16.8 25.1 17.35 Q24.65 18.1 23.65 18.2 L23.65 18.15 22.45 18.05 22.35 17.95 21.75 17.55 21.25 17.2 20.8 16.45 20.65 16.05 20.6 15.8 20.5 15.6 20.45 15.2 20.4 15.2 Q20.7 14.1 21.15 13.75 M20.8 16.45 L20.75 16.25 Q20.6 15.3 21.3 14.9 M22.05 17.05 L22.5 16.6 M21.25 17.2 L22.05 17.05 M23.3 17.05 Q23.15 17.7 22.35 17.95 M24.5 17.2 L23.65 18.2 M23.6 17.15 Q23.3 17.85 22.45 18.05"/><path fill="#bf9f5f" stroke="none" d="M23.95 21.4 Q25.1 21.95 25.7 22.7 24.7 23.3 23.8 23.3 24.2 23.8 23.8 24.7 22.85 24.15 22.1 23.0 L19.7 21.8 20.8 20.95 22.3 21.4 23.95 21.4"/><path fill="#75603a" stroke="none" d="M22.3 20.9 L24.3 19.95 23.95 21.4 22.3 21.4 20.8 20.95 22.3 20.9"/><path fill="#877043" stroke="none" d="M20.15 19.75 L22.3 20.9 20.8 20.95 Q20.5 20.6 19.8 20.3 L20.15 19.75"/><path fill="#c7a863" stroke="none" d="M19.7 21.8 L19.1 21.4 19.8 20.3 Q20.5 20.6 20.8 20.95 L19.7 21.8"/><path fill="none" stroke="#000000" stroke-width="0.5" stroke-opacity="0.301960784314" d="M20.15 19.75 L22.3 20.9 24.3 19.95 23.95 21.4 Q25.1 21.95 25.7 22.7 24.7 23.3 23.8 23.3 24.2 23.8 23.8 24.7 22.85 24.15 22.1 23.0 L19.7 21.8 19.1 21.4 M20.8 20.95 L19.7 21.8 M22.3 20.9 L20.8 20.95"/><path fill="#997e49" stroke="none" d="M17.0 20.2 Q15.9 19.7 15.25 18.9 16.2 18.3 17.1 18.3 16.8 17.8 17.15 16.85 18.05 17.45 18.85 18.6 L21.25 19.75 20.15 20.6 18.7 20.2 17.0 20.2"/><path fill="#877043" stroke="none" d="M21.15 21.25 L20.85 21.8 18.7 20.7 20.15 20.6 21.15 21.25"/><path fill="#bf9f5f" stroke="none" d="M18.7 20.7 L16.7 21.65 Q16.7 20.6 17.0 20.2 L18.7 20.2 20.15 20.6 18.7 20.7"/><path fill="#c7a863" stroke="none" d="M21.25 19.75 L21.9 20.15 21.15 21.25 20.15 20.6 21.25 19.75"/><path fill="none" stroke="#000000" stroke-width="0.5" stroke-opacity="0.301960784314" d="M17.0 20.2 Q15.9 19.7 15.25 18.9 16.2 18.3 17.1 18.3 16.8 17.8 17.15 16.85 18.05 17.45 18.85 18.6 L21.25 19.75 21.9 20.15 M20.85 21.8 L18.7 20.7 16.7 21.65 Q16.7 20.6 17.0 20.2 M20.15 20.6 L21.25 19.75 M20.15 20.6 L18.7 20.7"/><path fill="#c7a863" stroke="none" d="M22.35 20.3 L22.45 20.6 22.8 21.9 22.6 22.35 21.45 23.35 20.85 22.8 20.9 22.35 20.95 22.3 21.2 21.85 21.45 21.05 21.5 20.3 21.45 21.05 21.2 21.85 20.95 22.3 20.9 22.35 20.8 22.8 20.75 22.9 20.4 23.05 20.1 23.1 19.15 22.95 18.5 21.8 19.0 21.7 19.1 21.45 19.8 20.2 19.9 20.1 Q20.05 19.55 19.8 18.85 L20.1 18.9 21.05 19.45 21.2 19.55 21.5 20.3 21.65 20.35 22.35 20.3"/><path fill="#877043" stroke="none" d="M21.45 23.35 L21.15 23.35 20.4 23.05 20.75 22.9 20.8 22.8 20.85 22.8 21.45 23.35 M19.15 22.95 Q18.4 22.55 18.1 21.95 17.8 21.4 18.05 21.25 L18.15 21.15 Q18.85 20.75 19.15 19.9 L19.15 19.75 18.95 19.2 19.8 18.85 Q20.05 19.55 19.9 20.1 L19.8 20.2 19.1 21.45 19.0 21.7 18.5 21.8 19.15 22.95 M21.05 19.45 L21.3 19.4 Q21.95 19.5 22.25 20.1 L22.35 20.3 21.65 20.35 21.5 20.3 21.2 19.55 21.05 19.45"/><path fill="#3f3216" stroke="none" d="M20.9 22.35 L20.85 22.8 20.8 22.8 20.9 22.35"/><path fill="none" stroke="#000000" stroke-width="0.5" stroke-opacity="0.301960784314" d="M22.35 20.3 L22.45 20.6 22.8 21.9 22.6 22.35 21.45 23.35 21.15 23.35 20.4 23.05 20.1 23.1 19.15 22.95 Q18.4 22.55 18.1 21.95 17.8 21.4 18.05 21.25 L18.15 21.15 Q18.85 20.75 19.15 19.9 L19.15 19.75 18.95 19.2 19.8 18.85 20.1 18.9 21.05 19.45 21.3 19.4 Q21.95 19.5 22.25 20.1 L22.35 20.3 M21.5 20.3 L21.45 21.05 21.2 21.85 20.95 22.3 20.9 22.35 20.8 22.8 20.75 22.9 20.4 23.05 M21.05 19.45 L21.2 19.55 21.5 20.3"/><path fill="none" stroke="#000000" stroke-width="0.5" stroke-opacity="0.2" d="M20.95 22.25 Q20.7 21.5 20.0 20.95 19.3 20.3 18.6 20.55"/><path fill="none" stroke="#000000" stroke-width="0.5" stroke-opacity="0.2" d="M21.6 20.65 Q21.25 19.9 20.35 19.8 L18.9 20.05"/><path fill="none" stroke="#000000" stroke-width="0.5" stroke-opacity="0.2" d="M22.3 22.5 L22.15 21.95 21.7 21.55 21.15 21.55"/><path fill="#bfb6ad" stroke="none" d="M21.85 2.45 Q21.45 3.0 21.8 3.55 L22.05 3.7 Q23.45 3.85 27.85 2.4 32.9 0.65 37.5 6.75 L37.6 6.75 37.7 6.9 Q38.25 8.25 38.45 9.75 L38.5 9.8 Q38.95 13.55 36.7 15.95 34.4 18.4 30.7 18.1 L30.6 18.1 30.25 18.1 29.25 18.05 28.85 18.65 Q28.1 19.9 27.15 20.45 L25.4 20.55 Q24.8 19.95 24.8 18.75 24.8 17.8 25.25 16.8 L25.35 16.75 25.35 16.7 25.25 16.8 25.1 17.0 Q24.1 18.05 23.0 18.3 21.9 18.65 21.35 18.05 20.8 17.4 21.05 16.2 21.3 15.1 22.1 14.15 L22.3 14.05 22.25 14.0 22.1 14.15 Q21.2 14.7 20.25 14.75 19.0 14.8 18.4 14.2 17.9 13.55 18.4 12.45 18.9 11.5 20.1 10.65 L20.5 10.45 20.2 8.45 20.2 8.35 Q19.9 5.6 21.1 3.45 L21.0 3.35 21.1 3.4 21.35 3.1 21.85 2.45 M21.1 3.45 L21.1 3.4 21.1 3.45"/><path fill="#ffffff" stroke="none" d="M37.6 6.75 L37.5 6.75 Q32.9 0.65 27.85 2.4 23.45 3.85 22.05 3.7 L21.8 3.55 Q21.45 3.0 21.85 2.45 L22.05 2.2 23.0 1.35 Q25.0 -0.2 28.05 0.0 30.7 0.15 33.0 1.6 L34.55 2.75 34.95 3.0 35.0 3.05 35.4 3.4 35.85 3.95 36.75 5.25 37.6 6.75 M33.0 1.6 L34.5 2.85 34.9 3.1 34.95 3.15 35.35 3.5 35.8 4.05 36.75 5.25 35.8 4.05 35.35 3.5 34.95 3.15 34.9 3.1 34.5 2.85 33.0 1.6"/><path fill="none" stroke="#000000" stroke-width="0.5" stroke-opacity="0.301960784314" d="M21.85 2.45 L21.35 3.1 21.1 3.4 21.1 3.45 Q19.9 5.6 20.2 8.35 L20.2 8.45 20.5 10.45 20.1 10.65 Q18.9 11.5 18.4 12.45 17.9 13.55 18.4 14.2 19.0 14.8 20.25 14.75 21.2 14.7 22.1 14.15 L22.25 14.0 22.3 14.05 22.1 14.15 Q21.3 15.1 21.05 16.2 20.8 17.4 21.35 18.05 21.9 18.65 23.0 18.3 24.1 18.05 25.1 17.0 L25.25 16.8 25.35 16.7 25.35 16.75 25.25 16.8 Q24.8 17.8 24.8 18.75 24.8 19.95 25.4 20.55 L27.15 20.45 Q28.1 19.9 28.85 18.65 L29.25 18.05 30.25 18.1 30.6 18.1 30.7 18.1 Q34.4 18.4 36.7 15.95 38.95 13.55 38.5 9.8 L38.45 9.75 Q38.25 8.25 37.7 6.9 L37.6 6.75 36.75 5.25 35.8 4.05 35.35 3.5 34.95 3.15 34.9 3.1 34.5 2.85 33.0 1.6 Q30.7 0.15 28.05 0.0 25.0 -0.2 23.0 1.35 L22.05 2.2 21.85 2.45"/><path fill="#33312e" fill-opacity="0.301960784314" d="M27.6 8.7 Q27.35 10.15 26.2 11.35 25.1 12.55 23.7 12.85 22.25 13.2 21.45 12.4 20.65 11.65 20.85 10.15 21.1 8.8 22.2 7.6 23.35 6.4 24.75 6.0 26.15 5.75 26.95 6.5 27.75 7.3 27.6 8.7"/><path fill="#990000" stroke="none" d="M27.1 11.55 Q25.95 12.75 24.55 13.05 23.15 13.35 22.35 12.55 21.55 11.8 21.7 10.35 21.95 9.0 23.1 7.8 24.25 6.55 25.6 6.2 27.05 5.95 27.85 6.7 28.65 7.5 28.45 8.9 28.25 10.3 27.1 11.55"/><path fill="none" stroke="#000000" stroke-width="0.5" stroke-opacity="0.301960784314" d="M27.1 11.55 Q25.95 12.75 24.55 13.05 23.15 13.35 22.35 12.55 21.55 11.8 21.7 10.35 21.95 9.0 23.1 7.8 24.25 6.55 25.6 6.2 27.05 5.95 27.85 6.7 28.65 7.5 28.45 8.9 28.25 10.3 27.1 11.55"/><path fill="#fd0202" stroke="none" d="M23.85 7.45 Q24.6 6.65 25.55 6.4 26.45 6.25 27.0 6.7 27.55 7.25 27.45 8.2 27.3 9.15 26.55 9.95 25.8 10.75 24.85 10.95 23.9 11.15 23.35 10.6 22.8 10.15 22.95 9.15 23.1 8.25 23.85 7.45"/><path fill="#ffffff" stroke="none" d="M25.85 6.7 L26.3 6.8 26.45 7.25 26.15 7.75 25.7 8.05 25.2 8.0 Q25.0 7.8 25.1 7.5 L25.35 7.0 25.85 6.7"/><path fill="#ffffff" stroke="none" d="M25.7 8.15 L26.0 8.25 26.05 8.5 25.9 8.85 25.55 9.05 25.3 9.0 25.2 8.7 25.35 8.4 25.7 8.15"/><path fill="#33312e" fill-opacity="0.301960784314" d="M32.9 13.65 Q32.65 15.1 31.5 16.3 30.4 17.5 29.0 17.8 27.55 18.15 26.75 17.4 25.95 16.6 26.15 15.15 26.4 13.75 27.5 12.55 28.65 11.35 30.05 11.0 31.45 10.7 32.25 11.5 33.05 12.25 32.9 13.65"/><path fill="#990000" stroke="none" d="M30.2 10.2 Q31.55 10.0 32.35 10.75 33.2 11.55 33.05 12.9 32.8 14.35 31.65 15.55 30.5 16.8 29.15 17.05 27.7 17.4 26.85 16.6 26.05 15.85 26.3 14.35 26.45 13.05 27.6 11.8 28.75 10.6 30.2 10.2"/><path fill="none" stroke="#000000" stroke-width="0.5" stroke-opacity="0.301960784314" d="M30.2 10.2 Q31.55 10.0 32.35 10.75 33.2 11.55 33.05 12.9 32.8 14.35 31.65 15.55 30.5 16.8 29.15 17.05 27.7 17.4 26.85 16.6 26.05 15.85 26.3 14.35 26.45 13.05 27.6 11.8 28.75 10.6 30.2 10.2"/><path fill="#fd0202" stroke="none" d="M28.6 11.5 Q29.35 10.7 30.3 10.45 31.25 10.3 31.75 10.75 32.3 11.3 32.25 12.25 32.0 13.2 31.25 14.0 30.5 14.8 29.65 15.05 28.65 15.2 28.1 14.65 27.6 14.2 27.7 13.25 27.85 12.3 28.6 11.5"/><path fill="#ffffff" stroke="none" d="M30.55 10.75 L31.0 10.85 31.15 11.3 30.85 11.8 30.4 12.1 29.9 12.05 Q29.7 11.85 29.8 11.55 L30.05 11.05 Q30.3 10.8 30.55 10.75"/><path fill="#ffffff" stroke="none" d="M30.05 11.9 L30.35 12.0 30.4 12.25 30.25 12.6 29.9 12.8 29.65 12.75 29.55 12.45 29.7 12.15 30.05 11.9"/><path fill="#ffffff" stroke="none" d="M22.45 17.65 L22.45 17.7 Q20.45 17.1 22.0 15.05 22.5 14.3 23.15 14.5 22.5 15.9 22.45 17.65"/><path fill="#ffffff" stroke="none" d="M26.1 20.0 L26.05 20.1 Q24.25 19.0 26.05 17.5 L26.35 17.55 26.1 20.0"/><path fill="#ffffff" stroke="none" d="M19.6 14.1 L19.55 14.2 Q17.9 12.9 20.2 11.75 L20.4 11.75 19.6 14.1"/><path fill="#ffffff" stroke="none" d="M33.8 17.1 L32.45 16.95 Q37.2 15.75 37.55 10.8 37.55 10.6 37.75 10.8 38.85 15.95 33.8 17.1"/></g><g id="c16"><g><use transform="matrix(0.736709594727,0.194961547852,-0.194961547852,0.736709594727,10.4,6.7)" filter="url(#filter5)" xlink:href="#c9"/></g><g><use transform="matrix(1.0,0.0,0.0,1.0,0.0,0.0)" xlink:href="#c10"/></g><g><use transform="matrix(0.153533935547,0.106674194336,-0.136596679688,0.205612182617,21.55,17.95)" filter="url(#filter7)" xlink:href="#c12"/></g><g><use transform="matrix(1.0,0.0,0.0,1.0,0.0,0.0)" xlink:href="#c13"/></g><g><use transform="matrix(0.153533935547,0.106674194336,-0.136596679688,0.205612182617,20.65,19.15)" filter="url(#filter9)" xlink:href="#c12"/></g><g><use transform="matrix(1.0,0.0,0.0,1.0,0.0,0.0)" xlink:href="#c14"/></g><g><use transform="matrix(0.153533935547,0.106674194336,-0.136596679688,0.205612182617,22.5,16.6)" filter="url(#filter11)" xlink:href="#c12"/></g><g><use transform="matrix(1.0,0.0,0.0,1.0,0.0,0.0)" xlink:href="#c15"/></g></g><filter id="filter5"><feColorMatrix in="SourceGraphic" type="matrix" values="0.0 0.0 0.0 0.0 0.0 0.0 0.0 0.0 0.0 0.0 0.0 0.0 0.0 0.0 0.0 0.0 0.0 0.0 1.0 0.0" result="cxform"/><feComposite operator="in" in2="SourceGraphic" result="color-xform"/></filter><filter id="filter7"><feColorMatrix in="SourceGraphic" type="matrix" values="1.0 0.0 0.0 0.0 0.0 0.0 1.0 0.0 0.0 0.0 0.0 0.0 1.0 0.0 0.0 0.0 0.0 0.0 0.609375 0.0" result="cxform"/><feComposite operator="in" in2="SourceGraphic" result="color-xform"/></filter><filter id="filter9"><feColorMatrix in="SourceGraphic" type="matrix" values="1.0 0.0 0.0 0.0 0.0 0.0 1.0 0.0 0.0 0.0 0.0 0.0 1.0 0.0 0.0 0.0 0.0 0.0 0.609375 0.0" result="cxform"/><feComposite operator="in" in2="SourceGraphic" result="color-xform"/></filter><filter id="filter11"><feColorMatrix in="SourceGraphic" type="matrix" values="1.0 0.0 0.0 0.0 0.0 0.0 1.0 0.0 0.0 0.0 0.0 0.0 1.0 0.0 0.0 0.0 0.0 0.0 0.609375 0.0" result="cxform"/><feComposite operator="in" in2="SourceGraphic" result="color-xform"/></filter><g id="c17"><g><use transform="matrix(1.0,0.0,0.0,1.0,0.0,0.0)" xlink:href="#c2"/></g><g><use transform="matrix(0.238861083984,-0.0867004394531,0.10026550293,0.233917236328,34.25,31.15)" xlink:href="#c4"/></g><g><use transform="matrix(0.238861083984,-0.0867004394531,0.10026550293,0.233917236328,4.25,10.3)" xlink:href="#c4"/></g><g><use transform="matrix(0.141098022461,-0.0378112792969,0.111373901367,0.225646972656,20.25,20.65)" filter="url(#filter16)" xlink:href="#c6"/></g><g><use transform="matrix(-0.155029296875,0.0513153076172,0.0841827392578,0.147033691406,22.6,2.3)" filter="url(#filter17)" xlink:href="#c8"/></g><g><use transform="matrix(-0.486602783203,0.0510406494141,0.0510406494141,0.486602783203,29.7,10.5)" xlink:href="#c16"/></g><g><use transform="matrix(0.162948608398,-0.0436706542969,0.128631591797,0.260604858398,20.35,20.95)" filter="url(#filter19)" xlink:href="#c6"/></g></g><filter id="filter16"><feColorMatrix in="SourceGraphic" type="matrix" values="0.0 0.0 0.0 0.0 0.796875 0.0 0.0 0.0 0.0 0.59765625 0.0 0.0 0.0 0.0 0.19921875 0.0 0.0 0.0 1.0 0.0" result="cxform"/><feComposite operator="in" in2="SourceGraphic" result="color-xform"/></filter><filter id="filter17"><feColorMatrix in="SourceGraphic" type="matrix" values="0.0 0.0 0.0 0.0 0.99609375 0.0 0.0 0.0 0.0 0.99609375 0.0 0.0 0.0 0.0 0.99609375 0.0 0.0 0.0 1.0 0.0" result="cxform"/><feComposite operator="in" in2="SourceGraphic" result="color-xform"/></filter><filter id="filter19"><feColorMatrix in="SourceGraphic" type="matrix" values="1.0 0.0 0.0 0.0 0.0 0.0 1.0 0.0 0.0 0.0 0.0 0.0 1.0 0.0 0.0 0.0 0.0 0.0 0.23046875 0.0" result="cxform"/><feComposite operator="in" in2="SourceGraphic" result="color-xform"/></filter></defs><g><g><use transform="matrix(1.0,0.0,0.0,1.0,0.0,0.0)" xlink:href="#c1"/></g><g><use transform="matrix(1.15496826172,0.0,0.0,1.15496826172,5.85,3.95)" xlink:href="#c17"/></g></g></svg>