<?xml version='1.0' encoding='UTF-8'?>
<svg xmlns:xlink="http://www.w3.org/1999/xlink" xmlns="http://www.w3.org/2000/svg" version="1.1" width="60px" height="60px" viewBox="0.0 0.0 60.0 60.0"><defs><g id="c1"><path fill="#000000" fill-opacity="0.00392156862745" d="M0.0 0.0 L60.0 0.0 60.0 60.0 0.0 60.0 0.0 0.0"/></g><g id="c2"><path fill="none" stroke="#000000" stroke-width="1.0" stroke-opacity="0.301960784314" d="M22.3 0.35 Q26.6 -1.0 28.5 3.05 L41.4 31.7 Q43.1 35.4 39.9 36.85 L38.15 37.65 19.65 43.65 Q17.05 44.5 15.35 43.3 14.2 42.55 13.5 40.9 L0.55 12.25 Q-0.6 9.75 0.6 8.25 1.15 7.55 2.2 7.05 2.85 6.6 3.8 6.3 L22.3 0.35"/><path fill="#300525" stroke="none" d="M25.55 0.9 Q26.9 1.6 27.8 3.55 L40.7 32.15 Q42.6 36.3 38.3 37.65 L23.3 42.5 13.15 21.4 4.6 20.9 0.7 12.25 Q-0.45 9.75 0.75 8.25 L29.8 9.75 25.55 0.9 M20.1 43.55 L19.8 43.65 Q17.15 44.45 15.5 43.3 L20.1 43.55"/><path fill="#630a4c" stroke="none" d="M23.3 42.5 L20.1 43.55 15.5 43.3 Q14.35 42.55 13.65 40.9 L4.6 20.9 13.15 21.4 23.3 42.5 M0.75 8.25 Q1.45 7.3 3.1 6.75 L21.65 0.8 25.55 0.9 29.8 9.75 0.75 8.25"/><path fill="none" stroke="#000000" stroke-width="0.5" stroke-opacity="0.301960784314" d="M25.55 0.9 Q26.9 1.6 27.8 3.55 L40.7 32.15 Q42.6 36.3 38.3 37.65 L23.3 42.5 20.1 43.55 19.8 43.65 Q17.15 44.45 15.5 43.3 14.35 42.55 13.65 40.9 L4.6 20.9 0.7 12.25 Q-0.45 9.75 0.75 8.25 1.45 7.3 3.1 6.75 L21.65 0.8 25.55 0.9"/><path fill="#9d147b" stroke="none" d="M14.2 40.5 L1.35 11.8 Q-0.5 7.75 3.8 6.35 L22.3 0.4 Q26.55 -1.0 28.45 3.1 L41.35 31.7 Q43.25 35.85 38.9 37.25 L20.4 43.2 Q16.1 44.55 14.2 40.5"/><path fill="none" stroke="#000000" stroke-width="0.5" stroke-opacity="0.301960784314" d="M14.2 40.5 L1.35 11.8 Q-0.5 7.75 3.8 6.35 L22.3 0.4 Q26.55 -1.0 28.45 3.1 L41.35 31.7 Q43.25 35.85 38.9 37.25 L20.4 43.2 Q16.1 44.55 14.2 40.5"/><path fill="#fcf2cf" stroke="none" d="M9.15 13.6 Q9.8 12.8 9.55 11.6 L9.1 10.55 22.05 6.35 Q24.9 5.45 26.25 7.85 L26.5 8.3 35.8 29.0 35.95 29.35 Q34.75 29.3 34.1 30.1 33.45 30.9 33.7 32.1 L34.0 32.9 20.65 37.2 Q18.8 37.8 17.65 37.0 16.8 36.4 16.3 35.2 L6.95 14.6 6.8 14.4 7.1 14.4 Q8.4 14.45 9.15 13.6"/><path fill="#c47fad" stroke="none" d="M8.25 23.65 L3.35 12.8 Q1.65 9.1 5.5 7.85 L22.25 2.5 Q26.05 1.25 27.75 4.95 L28.25 6.1 35.55 22.3 39.35 30.75 Q41.1 34.5 37.2 35.7 L20.45 41.1 Q16.8 42.25 15.2 39.0 L15.0 38.6 8.25 23.65 M9.15 13.6 Q8.4 14.45 7.1 14.4 L6.8 14.4 6.95 14.6 16.3 35.2 Q16.8 36.4 17.65 37.0 18.8 37.8 20.65 37.2 L34.0 32.9 33.7 32.1 Q33.45 30.9 34.1 30.1 34.75 29.3 35.95 29.35 L35.8 29.0 26.5 8.3 26.25 7.85 Q24.9 5.45 22.05 6.35 L9.1 10.55 9.55 11.6 Q9.8 12.8 9.15 13.6"/><path fill="none" stroke="#ffcc00" stroke-width="1.0" stroke-opacity="0.749019607843" d="M8.25 23.65 L3.35 12.8 Q1.65 9.1 5.5 7.85 L22.25 2.5 Q26.05 1.25 27.75 4.95 L28.25 6.1 M35.55 22.3 L39.35 30.75 Q41.1 34.5 37.2 35.7 L20.45 41.1 Q16.8 42.25 15.2 39.0 L15.0 38.6"/><path fill="none" stroke="#bf9900" stroke-width="1.0" stroke-opacity="0.749019607843" d="M28.25 6.1 L35.55 22.3 M15.0 38.6 L8.25 23.65"/><path fill="none" stroke="#f0b92b" stroke-width="0.5" d="M9.15 13.6 Q9.8 12.8 9.55 11.6 L9.1 10.55 22.05 6.35 Q24.9 5.45 26.25 7.85 L26.5 8.3 35.8 29.0 35.95 29.35 Q34.75 29.3 34.1 30.1 33.45 30.9 33.7 32.1 L34.0 32.9 20.65 37.2 Q18.8 37.8 17.65 37.0 16.8 36.4 16.3 35.2 L6.95 14.6 6.8 14.4 7.1 14.4 Q8.4 14.45 9.15 13.6"/></g><g id="c3"><path fill="#7fdbfe" stroke="none" d="M10.75 4.9 Q10.75 4.6 10.9 4.35 11.25 3.45 11.95 2.75 13.3 1.5 14.35 2.1 15.4 2.7 14.95 4.45 14.7 5.4 14.1 6.15 L13.75 6.5 Q13.1 7.15 12.35 7.35 L11.4 7.2 Q10.95 6.9 10.75 6.4 10.5 5.75 10.75 4.9 M7.5 5.9 Q7.0 5.85 6.6 5.5 6.05 5.0 5.8 4.15 L5.7 3.6 Q5.55 2.65 5.8 1.7 6.25 0.0 7.5 0.0 L7.6 0.0 Q8.85 0.0 9.3 1.7 9.55 2.65 9.4 3.6 L9.3 4.15 8.5 5.5 7.6 5.9 7.5 5.9 M4.35 4.9 Q4.6 5.75 4.35 6.4 L3.7 7.2 2.75 7.35 Q2.0 7.15 1.35 6.5 L1.0 6.15 Q0.4 5.4 0.15 4.45 -0.3 2.7 0.75 2.1 1.8 1.5 3.15 2.75 3.85 3.45 4.2 4.35 L4.35 4.9 M5.5 13.7 Q4.45 13.9 3.65 12.95 2.75 12.0 3.2 10.25 3.7 8.5 5.25 7.6 6.4 6.9 7.55 7.0 8.75 6.9 9.9 7.6 11.45 8.5 11.95 10.25 12.35 12.0 11.5 12.95 10.7 13.9 9.65 13.7 8.55 13.5 7.55 12.6 6.55 13.5 5.5 13.7"/></g><g id="c4"><g><use transform="matrix(1.0,0.0,0.0,1.0,0.0,0.0)" xlink:href="#c3"/></g></g><radialGradient gradientUnits="userSpaceOnUse" r="819.2" cx="0" cy="0" spreadMethod="pad" gradientTransform="matrix(0.0914459228516,0.0,0.0,0.0914459228516,0.6,3.4)" id="gradient1"><stop offset="0.0" stop-color="#ffffff"/><stop offset="1.0" stop-color="#ffffff" stop-opacity="0.0"/></radialGradient><g id="c5"><path stroke="none" fill="url(#gradient1)" d="M36.65 -54.65 Q60.05 -42.0 69.75 -17.95 80.55 8.9 68.0 34.1 55.45 59.35 26.8 68.2 -1.8 77.05 -29.7 64.3 -57.6 51.6 -68.45 24.75 -79.3 -2.05 -66.75 -27.25 L-66.7 -27.3 Q-54.1 -52.5 -25.5 -61.4 3.1 -70.2 31.0 -57.5 L36.65 -54.65"/></g><g id="c6"><g><use transform="matrix(1.0,0.0,0.0,1.0,0.0,0.0)" xlink:href="#c5"/></g></g><radialGradient gradientUnits="userSpaceOnUse" r="819.2" cx="0" cy="0" spreadMethod="pad" gradientTransform="matrix(0.209197998047,0.0,0.0,0.177108764648,67.15,107.2)" id="gradient2"><stop offset="0.356862745098" stop-color="#ffffff"/><stop offset="0.670588235294" stop-opacity="0.0"/></radialGradient><g id="c7"><path fill="none" stroke-linejoin="round" stroke-linecap="round" stroke="url(#gradient2)" stroke-width="0.5" d="M136.55 165.8 L68.6 106.0 68.4 106.0 118.25 201.5 M68.2 105.7 L68.25 105.8 68.25 105.75 68.2 105.7 0.0 45.7 M68.25 105.8 L68.3 105.85 68.3 105.8 68.25 105.75 49.95 0.05 M0.05 97.7 L68.15 105.95 68.25 105.85 68.25 105.8 M68.3 105.85 L68.25 105.85 68.3 106.0 68.3 105.85 68.3 105.8 68.35 105.8 68.3 105.8 86.6 18.35 M50.0 193.2 L68.3 106.0 68.15 105.95 18.25 151.55 M68.4 106.0 L68.3 106.0 86.55 211.5 M68.4 106.0 L68.3 105.85 M68.6 106.0 L68.35 105.8 118.25 60.15 M136.6 114.25 L68.6 106.0 M68.2 105.7 L18.25 10.05"/></g><g id="c8"><g><use transform="matrix(1.0,0.0,0.0,1.0,0.0,0.0)" xlink:href="#c7"/></g></g><linearGradient gradientUnits="userSpaceOnUse" x1="-819.2" x2="819.2" spreadMethod="pad" gradientTransform="matrix(0.0079345703125,0.00511169433594,-0.00505065917969,0.00784301757812,21.45,22.25)" id="gradient3"><stop offset="0.101960784314" stop-color="#6499ce"/><stop offset="1.0" stop-color="#2c5976"/></linearGradient><radialGradient gradientUnits="userSpaceOnUse" r="819.2" cx="0" cy="0" spreadMethod="pad" gradientTransform="matrix(0.004638671875,0.00389099121094,-0.00456237792969,0.00482177734375,18.55,19.05)" id="gradient4"><stop offset="0.227450980392" stop-color="#d6f99f" stop-opacity="0.682352941176"/><stop offset="1.0" stop-color="#54b3bc" stop-opacity="0.0"/></radialGradient><g id="c9"><path fill="#326789" stroke="none" d="M27.0 26.55 Q24.7 28.5 21.8 28.7 18.85 28.95 16.75 27.3 14.6 25.6 14.75 22.25 14.95 18.95 16.55 16.9 18.2 14.85 21.45 15.0 24.7 15.15 27.0 17.2 29.25 19.25 29.3 21.95 29.3 24.6 27.0 26.55 M26.45 26.4 Q28.55 24.7 28.65 22.15 28.7 19.6 26.75 17.75 24.8 15.95 21.7 15.6 18.55 15.3 17.15 17.3 15.55 19.6 15.45 22.2 15.35 24.8 16.7 26.15 18.0 27.45 19.3 27.75 L21.95 28.05 Q24.3 28.05 26.45 26.4"/><path fill="#1f3d56" stroke="none" d="M26.45 26.4 Q24.3 28.05 21.95 28.05 L19.3 27.75 Q18.0 27.45 16.7 26.15 15.35 24.8 15.45 22.2 15.55 19.6 17.15 17.3 18.55 15.3 21.7 15.6 24.8 15.95 26.75 17.75 28.7 19.6 28.65 22.15 28.55 24.7 26.45 26.4"/><path stroke="none" fill="url(#gradient3)" d="M29.7 22.4 Q29.5 25.0 27.3 27.15 25.1 29.4 21.9 29.5 18.75 29.65 16.45 28.2 14.1 26.7 14.15 22.6 14.3 18.45 16.4 16.05 18.55 13.65 22.05 14.45 25.5 15.25 27.75 17.5 29.95 19.8 29.7 22.4 M27.0 26.55 Q29.3 24.6 29.3 21.95 29.25 19.25 27.0 17.2 24.7 15.15 21.45 15.0 18.2 14.85 16.55 16.9 14.95 18.95 14.75 22.25 14.6 25.6 16.75 27.3 18.85 28.95 21.8 28.7 24.7 28.5 27.0 26.55"/><path fill="#10032e" fill-opacity="0.423529411765" d="M27.6 20.55 Q27.6 19.25 27.15 18.2 28.45 19.8 28.45 21.95 28.45 24.6 26.5 26.55 24.55 28.45 21.75 28.5 19.0 28.55 17.05 26.7 16.05 25.7 15.55 24.55 L16.25 25.3 Q18.2 27.15 20.95 27.1 23.7 27.05 25.65 25.1 27.6 23.2 27.6 20.55"/><path stroke="none" fill="url(#gradient4)" d="M22.2 15.35 Q23.7 16.6 23.75 18.6 23.75 20.6 22.25 22.2 20.75 23.75 18.65 23.95 16.55 24.15 15.05 22.9 13.55 21.6 13.5 19.65 13.5 17.65 15.0 16.1 16.45 14.5 18.6 14.3 20.7 14.05 22.2 15.35"/><path fill="#fbff99" fill-opacity="0.2" d="M15.7 22.95 L15.8 22.55 16.1 22.3 16.45 22.35 16.7 22.65 16.65 23.05 16.35 23.3 15.95 23.25 15.7 22.95"/><path fill="#fbff99" fill-opacity="0.141176470588" d="M16.7 25.75 Q16.55 25.15 16.85 24.65 17.1 24.15 17.65 24.0 L18.7 24.15 Q19.2 24.45 19.35 25.0 19.5 25.55 19.25 26.05 L18.4 26.7 17.35 26.55 Q16.85 26.3 16.7 25.75"/></g><linearGradient gradientUnits="userSpaceOnUse" x1="-819.2" x2="819.2" spreadMethod="pad" gradientTransform="matrix(-0.0140991210938,-0.00807189941406,0.0126953125,-0.0221557617188,19.5,14.0)" id="gradient5"><stop offset="0.0" stop-color="#ffff2f" stop-opacity="0.482352941176"/><stop offset="1.0" stop-color="#ffffff"/></linearGradient><g id="c10"><path stroke="none" fill="url(#gradient5)" d="M14.7 5.2 Q22.15 0.1 28.55 -0.35 L37.15 0.0 Q50.65 3.55 35.0 10.85 19.3 18.15 4.95 28.95 1.45 31.35 -0.5 30.85 -2.45 30.3 -0.75 24.6 0.9 18.9 4.1 14.6 7.2 10.25 14.7 5.2"/></g><g id="c11"><g><use transform="matrix(1.0,0.0,0.0,1.0,0.0,0.0)" xlink:href="#c10"/></g></g><linearGradient gradientUnits="userSpaceOnUse" x1="-819.2" x2="819.2" spreadMethod="pad" gradientTransform="matrix(-0.0131530761719,-0.0216979980469,0.0110015869141,-0.0280456542969,17.6,15.95)" id="gradient6"><stop offset="0.0" stop-color="#35f4f4" stop-opacity="0.482352941176"/><stop offset="1.0" stop-color="#ffffff"/></linearGradient><g id="c12"><path stroke="none" fill="url(#gradient6)" d="M33.6 18.95 Q20.9 34.25 4.7 31.2 2.5 29.4 1.35 26.6 -0.35 22.1 0.1 17.25 0.55 12.2 3.25 8.75 6.55 1.6 12.35 0.3 22.0 -0.6 28.8 1.1 L33.35 4.15 Q38.25 13.35 33.6 18.95"/></g><g id="c13"><g><use transform="matrix(1.0,0.0,0.0,1.0,0.0,0.0)" xlink:href="#c12"/></g></g><radialGradient gradientUnits="userSpaceOnUse" r="819.2" cx="0" cy="0" spreadMethod="pad" gradientTransform="matrix(0.00390625,-0.000442504882812,0.000442504882812,0.00390625,20.7,23.15)" id="gradient7"><stop offset="0.101960784314" stop-color="#80ff00" stop-opacity="0.501960784314"/><stop offset="1.0" stop-color="#e6ff00" stop-opacity="0.0"/></radialGradient><g id="c14"><path stroke="none" fill="url(#gradient7)" d="M24.1 22.85 Q24.25 24.2 23.35 25.3 22.5 26.35 21.1 26.5 19.75 26.65 18.65 25.85 17.7 25.1 17.5 23.9 L17.7 23.75 17.75 23.6 17.65 23.35 17.4 23.3 Q17.35 22.15 18.1 21.15 19.0 20.05 20.35 19.9 21.75 19.75 22.8 20.6 23.95 21.5 24.1 22.85"/></g><linearGradient gradientUnits="userSpaceOnUse" x1="-819.2" x2="819.2" spreadMethod="pad" gradientTransform="matrix(0.000534057617188,0.0855102539062,-0.0059814453125,0.0,10.05,20.2)" id="gradient8"><stop offset="0.0" stop-color="#f3ffc4" stop-opacity="0.160784313725"/><stop offset="0.894117647059" stop-color="#ebffbb"/><stop offset="1.0" stop-color="#ddffaa" stop-opacity="0.0"/></linearGradient><g id="c15"><path stroke="none" fill="url(#gradient8)" d="M13.9 -7.4 Q14.8 -9.3 15.5 -10.0 17.25 -12.4 20.5 -7.9 23.7 -3.4 20.15 6.5 17.2 13.85 13.35 4.75 12.75 8.1 12.95 10.75 13.15 13.85 17.8 20.05 22.45 26.25 16.6 43.65 L15.15 47.0 Q11.9 55.3 13.75 65.75 14.45 69.7 16.4 71.05 20.2 73.9 20.3 81.9 20.05 85.2 18.95 88.0 9.6 97.0 7.75 79.9 6.5 68.6 10.9 55.45 15.25 42.25 15.35 34.35 15.4 26.4 12.95 19.3 10.5 12.2 12.4 -2.55 12.85 -5.15 13.9 -7.4"/></g><g id="c16"><g><use transform="matrix(1.0,0.0,0.0,1.0,0.0,0.0)" xlink:href="#c15"/></g></g><radialGradient gradientUnits="userSpaceOnUse" r="819.2" cx="0" cy="0" spreadMethod="pad" gradientTransform="matrix(0.0150604248047,0.0,0.0,0.0150604248047,0.0,0.0)" id="gradient9"><stop offset="0.101960784314" stop-color="#00f9ff" stop-opacity="0.721568627451"/><stop offset="1.0" stop-color="#00ffe1" stop-opacity="0.101960784314"/></radialGradient><g id="c17"><path stroke="none" fill="url(#gradient9)" d="M1.8 -1.8 Q1.05 -2.55 0.0 -2.55 -1.05 -2.55 -1.8 -1.8 -2.55 -1.05 -2.55 0.0 -2.55 1.05 -1.8 1.8 -1.05 2.55 0.0 2.55 1.05 2.55 1.8 1.8 2.55 1.05 2.55 0.0 2.55 -1.05 1.8 -1.8 M9.0 -9.0 Q12.75 -5.25 12.75 0.0 12.75 5.25 9.0 9.0 5.25 12.75 0.0 12.75 -5.25 12.75 -9.0 9.0 -12.3 5.7 -12.7 1.25 -12.2 1.25 -11.85 0.9 -11.55 0.55 -11.55 0.1 -11.55 -0.4 -11.85 -0.75 -12.2 -1.1 -12.7 -1.1 -12.35 -5.65 -9.0 -9.0 -5.25 -12.75 0.0 -12.75 5.25 -12.75 9.0 -9.0"/><path fill="#ffffff" stroke="none" d="M0.5 -13.75 L0.35 -13.35 -0.1 -13.2 -0.5 -13.35 -0.65 -13.75 -0.5 -14.2 -0.1 -14.35 0.35 -14.2 0.5 -13.75"/><path fill="#ffffff" stroke="none" d="M1.55 -9.55 L1.25 -8.8 Q0.9 -8.45 0.45 -8.45 -0.05 -8.45 -0.35 -8.8 -0.7 -9.15 -0.65 -9.55 -0.7 -10.05 -0.35 -10.4 L0.45 -10.7 Q0.9 -10.7 1.25 -10.4 L1.55 -9.55"/><path fill="#ffffff" stroke="none" d="M3.75 14.75 L3.45 15.5 Q3.1 15.85 2.65 15.85 2.15 15.85 1.85 15.5 1.5 15.15 1.55 14.75 1.5 14.25 1.85 13.9 2.15 13.6 2.65 13.6 3.1 13.6 3.45 13.9 L3.75 14.75"/><path fill="#fefce2" stroke="none" d="M3.45 -4.0 Q5.25 -2.75 5.6 -0.6 6.0 1.55 4.75 3.35 3.5 5.15 1.3 5.5 -0.85 5.85 -2.6 4.6 -4.4 3.35 -4.75 1.2 -5.1 -0.95 -3.85 -2.75 -2.6 -4.55 -0.45 -4.9 1.7 -5.25 3.45 -4.0"/></g><g id="c18"><g><use transform="matrix(1.0,0.0,0.0,1.0,0.0,0.0)" xlink:href="#c17"/></g></g><g id="c19"><path fill="#0de3fb" stroke="none" d="M25.75 17.95 L25.75 17.85 25.8 17.75 25.95 17.75 26.0 17.75 26.0 17.85 25.95 17.95 25.8 17.95 25.75 17.95 M25.35 18.35 L25.35 18.3 25.45 18.3 25.5 18.3 25.5 18.35 25.4 18.4 25.35 18.35 M25.3 19.1 L25.35 19.15 25.25 19.2 25.15 19.25 25.1 19.2 25.05 19.15 25.15 19.05 25.25 19.05 25.3 19.1 M26.65 18.65 L26.8 18.65 26.9 18.7 26.9 18.85 26.8 18.9 26.65 18.95 26.55 18.9 26.55 18.8 26.65 18.65 M20.9 17.2 L20.95 17.15 21.0 17.15 21.05 17.2 21.0 17.25 20.95 17.25 20.9 17.25 20.9 17.2 M20.3 17.9 L20.25 17.8 20.3 17.75 20.4 17.75 20.5 17.75 20.5 17.8 20.45 17.85 20.4 17.9 20.3 17.9 M21.15 19.0 L21.05 19.05 20.95 19.1 20.9 19.05 20.85 19.0 20.95 18.9 21.05 18.85 21.1 18.9 21.15 19.0 M20.3 20.1 L20.4 20.1 20.5 20.1 20.5 20.2 20.45 20.25 20.35 20.3 20.3 20.25 20.3 20.15 20.3 20.1 M20.55 19.4 L20.6 19.4 20.65 19.4 20.65 19.45 20.6 19.5 20.55 19.5 20.5 19.45 20.55 19.4 M21.6 16.95 L21.6 17.05 21.5 17.05 21.4 17.05 21.4 16.95 21.45 16.9 21.5 16.85 21.6 16.9 21.6 16.95 M21.45 18.0 L21.55 17.9 21.65 17.95 21.7 18.05 21.65 18.15 21.5 18.15 21.45 18.15 21.4 18.1 21.45 18.0 M21.85 19.75 L21.9 19.8 21.95 19.9 21.85 19.95 21.7 20.0 21.65 19.95 21.65 19.85 21.7 19.75 21.85 19.75 M17.95 23.35 L18.05 23.35 18.1 23.4 18.15 23.45 18.05 23.5 17.95 23.55 17.9 23.5 17.9 23.4 17.95 23.35 M17.65 23.9 L17.6 23.9 17.55 23.9 17.55 23.85 17.6 23.8 17.65 23.85 17.65 23.9 M17.35 24.55 L17.4 24.5 17.45 24.5 17.55 24.5 17.55 24.6 17.5 24.65 17.4 24.65 17.35 24.65 17.35 24.55 M21.9 20.95 L21.75 21.0 21.65 20.95 21.65 20.85 21.75 20.75 21.85 20.7 22.0 20.75 22.0 20.85 21.9 20.95 M21.25 21.35 L21.3 21.4 21.3 21.45 21.25 21.5 21.15 21.55 21.1 21.5 21.1 21.4 21.15 21.4 21.25 21.35 M22.4 22.25 L22.55 22.2 22.7 22.2 22.7 22.3 22.7 22.45 22.55 22.45 22.4 22.45 22.35 22.35 22.4 22.25 M21.7 22.75 L21.6 22.75 21.6 22.65 21.65 22.6 21.75 22.6 21.8 22.6 21.8 22.65 21.75 22.7 21.7 22.75 M21.2 22.9 L21.05 23.05 20.9 23.05 20.8 22.95 20.8 22.8 20.95 22.7 21.1 22.7 21.25 22.8 21.2 22.9 M22.25 23.5 L22.25 23.35 22.45 23.25 22.6 23.25 22.65 23.35 22.65 23.45 22.5 23.6 22.35 23.6 22.25 23.5 M22.95 22.2 L22.8 22.25 22.65 22.15 22.65 22.05 22.75 21.9 22.95 21.9 23.05 21.95 23.1 22.1 22.95 22.2 M20.45 21.6 L20.5 21.5 20.7 21.5 20.85 21.55 20.85 21.7 20.75 21.8 20.55 21.85 20.45 21.75 20.45 21.6 M19.4 20.55 L19.4 20.4 19.5 20.3 19.65 20.3 19.75 20.35 19.75 20.45 19.7 20.55 19.5 20.6 19.4 20.55 M19.0 20.95 L19.1 21.0 19.05 21.05 19.0 21.15 18.95 21.15 18.9 21.1 18.9 21.05 18.95 21.0 19.0 20.95 M19.35 22.5 L19.25 22.55 19.1 22.55 19.05 22.45 19.1 22.35 19.15 22.25 19.3 22.25 19.4 22.35 19.35 22.5 M18.8 21.95 L18.9 22.0 18.9 22.1 18.8 22.15 18.7 22.2 18.6 22.15 18.6 22.1 18.65 21.95 18.8 21.95 M19.05 23.05 L19.1 23.05 19.1 23.15 19.05 23.2 18.95 23.2 18.9 23.15 18.95 23.1 19.0 23.0 19.05 23.05 M20.8 22.55 L20.8 22.45 20.9 22.35 21.0 22.35 21.1 22.4 21.1 22.5 21.05 22.55 20.95 22.6 20.8 22.55 M20.95 23.5 L21.05 23.6 20.95 23.7 20.85 23.7 20.75 23.7 20.7 23.6 20.75 23.5 20.85 23.45 20.95 23.5 M20.55 24.35 L20.4 24.3 20.35 24.25 20.35 24.1 20.45 24.05 20.6 24.05 20.7 24.15 20.7 24.25 20.55 24.35 M20.95 24.8 L20.9 24.8 20.85 24.75 20.9 24.7 20.95 24.65 21.0 24.6 21.05 24.7 21.05 24.75 20.95 24.8 M19.5 23.9 L19.55 23.95 19.55 24.05 19.45 24.15 19.35 24.1 19.25 24.05 19.3 23.95 19.4 23.9 19.5 23.9 M18.6 24.25 L18.7 24.15 18.8 24.15 18.85 24.2 18.9 24.3 18.8 24.4 18.7 24.4 18.6 24.35 18.6 24.25 M20.05 26.1 L20.1 26.15 20.2 26.2 20.1 26.3 20.0 26.35 19.9 26.35 19.85 26.25 19.9 26.15 20.05 26.1 M22.8 23.9 L22.7 24.05 22.55 24.1 22.4 24.05 22.35 23.95 22.45 23.85 22.6 23.75 22.75 23.8 22.8 23.9 M22.05 24.85 L22.2 24.85 22.25 24.9 22.2 25.0 22.15 25.1 22.0 25.1 21.95 25.0 22.0 24.9 22.05 24.85 M22.25 26.1 L22.2 26.25 22.05 26.3 21.9 26.25 21.9 26.2 21.95 26.05 22.05 26.0 22.2 26.0 22.25 26.1 M21.3 25.85 L21.35 25.85 21.4 25.95 21.35 26.0 21.3 26.0 21.2 26.0 21.2 25.95 21.2 25.85 21.3 25.85 M20.85 27.55 L20.8 27.65 20.6 27.75 20.45 27.7 20.4 27.6 20.5 27.45 Q20.55 27.35 20.65 27.4 L20.8 27.4 20.85 27.55"/></g><g id="c20"><path fill="#763c01" stroke="none" d="M24.45 24.55 L24.5 23.2 24.55 23.15 24.7 23.3 24.8 22.65 25.0 23.25 25.05 23.25 25.05 23.7 Q25.3 25.75 23.55 27.25 22.8 27.95 21.9 28.3 L21.3 28.25 Q23.45 27.3 24.15 25.85 L24.6 24.65 24.45 24.55"/><path fill="#a45600" stroke="none" d="M21.3 28.25 L21.2 28.25 21.0 28.2 20.35 28.3 20.45 28.15 20.85 28.1 21.05 28.05 Q22.55 27.35 23.65 26.05 L24.45 24.55 24.6 24.65 24.15 25.85 Q23.45 27.3 21.3 28.25"/><path fill="#a45600" stroke="none" d="M23.3 16.5 L22.65 15.75 Q22.15 15.15 21.35 15.1 17.45 14.65 16.0 18.35 15.35 19.95 16.85 20.45 19.9 21.4 20.65 18.1 21.0 16.15 19.25 17.1 L18.75 17.6 Q20.05 18.2 18.45 18.4 18.0 18.5 17.95 17.9 17.9 16.5 19.4 16.15 21.95 15.55 21.65 18.15 21.4 19.9 20.1 21.05 17.45 23.35 15.6 20.0 14.6 18.2 15.95 16.65 18.95 13.1 23.2 15.05 24.8 16.8 24.9 18.85 25.55 21.3 24.45 23.7 L24.5 21.4 Q24.4 19.0 23.3 16.5"/><path fill="#542b01" stroke="none" d="M21.55 17.45 L21.65 17.55 21.55 17.85 Q21.45 18.95 21.0 19.9 L20.85 20.2 20.25 20.9 Q19.1 21.9 18.3 22.0 17.5 22.05 16.7 21.55 15.9 20.95 15.55 19.75 17.95 21.8 20.1 20.3 20.8 19.8 21.1 19.05 L21.55 17.45 M24.4 20.2 Q24.15 18.0 23.1 16.25 22.0 14.75 20.2 14.95 17.25 14.95 15.8 18.75 16.15 15.85 18.6 14.85 21.3 14.1 23.05 15.4 25.25 18.85 24.4 20.2"/><path fill="#a45600" stroke="none" d="M26.85 23.4 L27.15 23.25 27.75 20.9 Q28.25 17.0 24.8 15.65 L24.2 15.2 23.85 14.9 Q26.7 15.8 27.8 17.8 28.45 18.95 28.45 20.45 L28.4 21.15 28.1 22.65 27.75 23.4 27.7 23.6 26.9 24.85 26.05 26.0 Q24.9 27.35 23.5 27.95 20.85 29.15 17.85 28.65 16.4 28.4 15.45 27.45 14.4 26.45 14.1 24.85 15.7 28.95 20.55 28.1 L21.35 27.95 Q22.7 27.6 23.75 27.05 L25.6 25.7 Q25.75 25.3 25.5 24.85 L25.5 24.8 25.45 24.75 25.3 24.65 24.7 25.05 24.35 25.05 24.25 23.75 24.2 22.4 24.2 22.3 24.55 22.25 24.55 22.2 25.45 22.25 26.7 22.3 26.45 23.5 26.85 23.4"/><path fill="#120e10" fill-opacity="0.4" d="M26.85 23.4 L26.45 23.5 26.7 22.3 26.75 22.1 27.0 22.25 26.85 23.4 M24.7 25.05 L25.3 24.65 25.45 24.75 25.5 24.8 25.5 24.85 24.8 25.25 24.3 25.35 24.7 25.05 M23.5 27.95 Q24.9 27.35 26.05 26.0 L27.2 25.75 Q25.85 27.25 23.5 27.95 M27.7 23.6 L27.75 23.4 28.1 22.65 28.4 21.15 Q28.5 23.55 27.55 25.35 L27.7 23.6"/><path fill="#a97601" stroke="none" d="M26.7 22.3 L25.45 22.25 25.6 21.95 26.8 22.05 26.75 22.1 26.7 22.3 M24.25 23.75 L24.35 25.05 24.7 25.05 24.3 25.35 24.05 25.35 23.9 23.7 24.25 23.75"/><path fill="#e6b100" stroke="none" d="M25.45 22.25 L24.55 22.2 24.55 22.25 24.2 21.9 24.25 21.85 25.6 21.95 25.45 22.25 M24.2 22.4 L24.25 23.75 23.9 23.7 23.9 21.9 23.95 22.0 24.05 22.3 24.2 22.4"/><path fill="#ffff2f" stroke="none" d="M24.55 22.25 L24.2 22.3 24.2 22.4 24.05 22.3 23.95 22.0 24.2 21.9 24.55 22.25"/><path fill="#763c01" stroke="none" d="M26.05 26.0 L26.9 24.85 27.7 23.6 27.55 25.35 27.55 25.45 27.4 25.65 27.25 25.75 27.2 25.75 26.05 26.0"/><path fill="none" stroke="#120e10" stroke-width="0.7" stroke-opacity="0.250980392157" d="M28.4 21.15 L28.45 20.45 Q28.45 18.95 27.8 17.8 26.7 15.8 23.85 14.9 L24.2 15.2 24.8 15.65 Q28.25 17.0 27.75 20.9 L27.15 23.25 26.85 23.4 26.45 23.5 26.7 22.3 26.75 22.1 26.8 22.05 25.6 21.95 24.25 21.85 24.2 21.9 23.95 22.0 M24.7 25.05 L25.3 24.65 25.45 24.75 25.5 24.8 25.5 24.85 Q25.75 25.3 25.6 25.7 L23.75 27.05 M21.35 27.95 L20.55 28.1 Q15.7 28.95 14.1 24.85 14.4 26.45 15.45 27.45 16.4 28.4 17.85 28.65 20.85 29.15 23.5 27.95 24.9 27.35 26.05 26.0 L26.9 24.85 27.7 23.6 27.75 23.4 28.1 22.65 28.4 21.15 M23.9 21.9 L23.9 23.7 24.05 25.35 24.3 25.35 24.7 25.05"/><path fill="#382510" stroke="none" d="M25.8 22.95 L25.95 23.2 25.85 23.7 25.55 24.05 25.2 24.15 25.0 23.85 25.15 23.35 25.45 23.0 25.8 22.95"/><path fill="none" stroke="#120e10" stroke-width="0.7" stroke-opacity="0.2" d="M25.8 22.95 L25.95 23.2 25.85 23.7 25.55 24.05 25.2 24.15 25.0 23.85 25.15 23.35 25.45 23.0 25.8 22.95"/><path fill="#382510" stroke="none" d="M27.15 24.35 L27.2 24.6 27.1 25.05 26.8 25.35 26.5 25.45 26.4 25.15 26.55 24.75 26.85 24.4 27.15 24.35"/><path fill="none" stroke="#120e10" stroke-width="0.7" stroke-opacity="0.2" d="M27.15 24.35 L27.2 24.6 27.1 25.05 26.8 25.35 26.5 25.45 26.4 25.15 26.55 24.75 26.85 24.4 27.15 24.35"/><path fill="#e6b100" stroke="none" d="M25.9 22.9 L25.5 23.0 25.05 22.9 24.9 22.7 25.05 22.45 25.5 22.4 25.9 22.45 26.1 22.7 25.9 22.9"/><path fill="#fcf3d8" fill-opacity="0.301960784314" d="M19.0 17.95 L18.95 18.45 18.55 18.8 17.95 18.7 17.65 18.3 17.7 17.8 18.15 17.45 18.7 17.55 19.0 17.95 M19.6 18.75 Q19.9 18.25 19.7 17.65 L19.05 16.85 18.45 16.65 Q17.85 16.3 17.6 15.5 17.9 16.5 17.6 16.9 L17.15 17.35 Q16.9 17.85 17.05 18.4 17.15 18.95 17.65 19.25 L17.7 19.3 17.7 19.8 18.05 19.4 18.7 19.4 19.35 19.05 20.4 19.45 19.6 18.75"/><path fill="#fcf3d8" stroke="none" d="M19.0 17.95 L18.7 17.55 18.15 17.45 17.7 17.8 17.65 18.3 17.95 18.7 18.55 18.8 18.95 18.45 19.0 17.95"/><path fill="#fcf3d8" stroke="none" d="M18.3 17.75 L19.6 16.1 18.6 17.9 19.45 19.2 18.35 18.45 16.25 21.1 17.95 18.15 14.3 14.3 18.3 17.75"/></g><g id="c21"><g><use transform="matrix(1.0,0.0,0.0,1.0,0.0,0.0)" xlink:href="#c2"/></g><g><use transform="matrix(0.238861083984,-0.0867004394531,0.10026550293,0.233917236328,34.25,31.15)" xlink:href="#c4"/></g><g><use transform="matrix(0.238861083984,-0.0867004394531,0.10026550293,0.233917236328,4.25,10.3)" xlink:href="#c4"/></g><g><use transform="matrix(0.141098022461,-0.0378112792969,0.111373901367,0.225646972656,20.25,20.65)" filter="url(#filter11)" xlink:href="#c6"/></g><g><use transform="matrix(-0.155029296875,0.0513153076172,0.0841827392578,0.147033691406,22.6,2.3)" filter="url(#filter12)" xlink:href="#c8"/></g><g><use transform="matrix(1.0,0.0,0.0,1.0,0.0,0.0)" xlink:href="#c9"/></g><g><use transform="matrix(0.07666015625,-0.206954956055,-0.174240112305,-0.0753784179688,26.25,30.3)" filter="url(#filter14)" xlink:href="#c11"/></g><g><use transform="matrix(0.274719238281,0.0,0.0,0.274719238281,14.8,15.0)" xlink:href="#c13"/></g><g><use transform="matrix(1.0,0.0,0.0,1.0,0.0,0.0)" xlink:href="#c14"/></g><g><use transform="matrix(-0.153121948242,-0.0227813720703,-0.0414581298828,0.0703430175781,27.55,17.75)" xlink:href="#c16"/></g><g><use transform="matrix(0.101089477539,0.1162109375,0.0583038330078,-0.0615997314453,15.65,24.4)" filter="url(#filter18)" xlink:href="#c16"/></g><g><use transform="matrix(-0.214401245117,-0.238525390625,0.238525390625,-0.214401245117,21.6,22.3)" filter="url(#filter19)" xlink:href="#c18"/></g><g><use transform="matrix(0.0912933349609,-0.0675964355469,-0.0149230957031,-0.0580139160156,22.15,27.15)" filter="url(#filter20)" xlink:href="#c16"/></g><g><use transform="matrix(1.0,0.0,0.0,1.0,0.0,0.0)" xlink:href="#c19"/></g><g><use transform="matrix(0.242248535156,-0.00704956054688,0.015869140625,0.280303955078,14.15,15.4)" filter="url(#filter22)" xlink:href="#c11"/></g><g><use transform="matrix(1.0,0.0,0.0,1.0,0.0,0.0)" xlink:href="#c20"/></g><g><use transform="matrix(0.162948608398,-0.0436706542969,0.128631591797,0.260604858398,20.35,20.95)" filter="url(#filter24)" xlink:href="#c6"/></g></g><filter id="filter11"><feColorMatrix in="SourceGraphic" type="matrix" values="0.0 0.0 0.0 0.0 0.796875 0.0 0.0 0.0 0.0 0.59765625 0.0 0.0 0.0 0.0 0.19921875 0.0 0.0 0.0 1.0 0.0" result="cxform"/><feComposite operator="in" in2="SourceGraphic" result="color-xform"/></filter><filter id="filter12"><feColorMatrix in="SourceGraphic" type="matrix" values="0.0 0.0 0.0 0.0 0.99609375 0.0 0.0 0.0 0.0 0.99609375 0.0 0.0 0.0 0.0 0.99609375 0.0 0.0 0.0 1.0 0.0" result="cxform"/><feComposite operator="in" in2="SourceGraphic" result="color-xform"/></filter><filter id="filter14"><feColorMatrix in="SourceGraphic" type="matrix" values="1.0 0.0 0.0 0.0 0.0 0.0 1.0 0.0 0.0 0.0 0.0 0.0 1.0 0.0 0.0 0.0 0.0 0.0 0.19921875 0.0" result="cxform"/><feComposite operator="in" in2="SourceGraphic" result="color-xform"/></filter><filter id="filter18"><feColorMatrix in="SourceGraphic" type="matrix" values="1.0 0.0 0.0 0.0 0.0 0.0 1.0 0.0 0.0 0.0 0.0 0.0 1.0 0.0 0.0 0.0 0.0 0.0 0.4609375 0.0" result="cxform"/><feComposite operator="in" in2="SourceGraphic" result="color-xform"/></filter><filter id="filter19"><feColorMatrix in="SourceGraphic" type="matrix" values="1.0 0.0 0.0 0.0 0.0 0.0 1.0 0.0 0.0 0.0 0.0 0.0 1.0 0.0 0.0 0.0 0.0 0.0 0.71875 0.0" result="cxform"/><feComposite operator="in" in2="SourceGraphic" result="color-xform"/></filter><filter id="filter20"><feColorMatrix in="SourceGraphic" type="matrix" values="1.0 0.0 0.0 0.0 0.0 0.0 1.0 0.0 0.0 0.0 0.0 0.0 1.0 0.0 0.0 0.0 0.0 0.0 0.578125 0.0" result="cxform"/><feComposite operator="in" in2="SourceGraphic" result="color-xform"/></filter><filter id="filter22"><feColorMatrix in="SourceGraphic" type="matrix" values="1.0 0.0 0.0 0.0 0.0 0.0 1.0 0.0 0.0 0.0 0.0 0.0 1.0 0.0 0.0 0.0 0.0 0.0 0.08984375 0.0" result="cxform"/><feComposite operator="in" in2="SourceGraphic" result="color-xform"/></filter><filter id="filter24"><feColorMatrix in="SourceGraphic" type="matrix" values="1.0 0.0 0.0 0.0 0.0 0.0 1.0 0.0 0.0 0.0 0.0 0.0 1.0 0.0 0.0 0.0 0.0 0.0 0.23046875 0.0" result="cxform"/><feComposite operator="in" in2="SourceGraphic" result="color-xform"/></filter></defs><g><g><use transform="matrix(1.0,0.0,0.0,1.0,0.0,0.0)" xlink:href="#c1"/></g><g><use transform="matrix(1.15496826172,0.0,0.0,1.15496826172,5.85,3.95)" xlink:href="#c21"/></g></g></svg>