<?xml version='1.0' encoding='UTF-8'?>
<svg xmlns:xlink="http://www.w3.org/1999/xlink" xmlns="http://www.w3.org/2000/svg" version="1.1" width="60px" height="60px" viewBox="0.0 0.0 60.0 60.0"><defs><g id="c1"><path fill="#000000" fill-opacity="0.00392156862745" d="M0.0 0.0 L60.0 0.0 60.0 60.0 0.0 60.0 0.0 0.0"/></g><g id="c2"><path fill="none" stroke="#000000" stroke-width="1.0" stroke-opacity="0.301960784314" d="M22.3 0.35 Q26.6 -1.0 28.5 3.05 L41.4 31.7 Q43.1 35.4 39.9 36.85 L38.15 37.65 19.65 43.65 Q17.05 44.5 15.35 43.3 14.2 42.55 13.5 40.9 L0.55 12.25 Q-0.6 9.75 0.6 8.25 1.15 7.55 2.2 7.05 2.85 6.6 3.8 6.3 L22.3 0.35"/><path fill="#300525" stroke="none" d="M25.55 0.9 Q26.9 1.6 27.8 3.55 L40.7 32.15 Q42.6 36.3 38.3 37.65 L23.3 42.5 13.15 21.4 4.6 20.9 0.7 12.25 Q-0.45 9.75 0.75 8.25 L29.8 9.75 25.55 0.9 M20.1 43.55 L19.8 43.65 Q17.15 44.45 15.5 43.3 L20.1 43.55"/><path fill="#630a4c" stroke="none" d="M23.3 42.5 L20.1 43.55 15.5 43.3 Q14.35 42.55 13.65 40.9 L4.6 20.9 13.15 21.4 23.3 42.5 M0.75 8.25 Q1.45 7.3 3.1 6.75 L21.65 0.8 25.55 0.9 29.8 9.75 0.75 8.25"/><path fill="none" stroke="#000000" stroke-width="0.5" stroke-opacity="0.301960784314" d="M25.55 0.9 Q26.9 1.6 27.8 3.55 L40.7 32.15 Q42.6 36.3 38.3 37.65 L23.3 42.5 20.1 43.55 19.8 43.65 Q17.15 44.45 15.5 43.3 14.35 42.55 13.65 40.9 L4.6 20.9 0.7 12.25 Q-0.45 9.75 0.75 8.25 1.45 7.3 3.1 6.75 L21.65 0.8 25.55 0.9"/><path fill="#9d147b" stroke="none" d="M14.2 40.5 L1.35 11.8 Q-0.5 7.75 3.8 6.35 L22.3 0.4 Q26.55 -1.0 28.45 3.1 L41.35 31.7 Q43.25 35.85 38.9 37.25 L20.4 43.2 Q16.1 44.55 14.2 40.5"/><path fill="none" stroke="#000000" stroke-width="0.5" stroke-opacity="0.301960784314" d="M14.2 40.5 L1.35 11.8 Q-0.5 7.75 3.8 6.35 L22.3 0.4 Q26.55 -1.0 28.45 3.1 L41.35 31.7 Q43.25 35.85 38.9 37.25 L20.4 43.2 Q16.1 44.55 14.2 40.5"/><path fill="#fcf2cf" stroke="none" d="M9.15 13.6 Q9.8 12.8 9.55 11.6 L9.1 10.55 22.05 6.35 Q24.9 5.45 26.25 7.85 L26.5 8.3 35.8 29.0 35.95 29.35 Q34.75 29.3 34.1 30.1 33.45 30.9 33.7 32.1 L34.0 32.9 20.65 37.2 Q18.8 37.8 17.65 37.0 16.8 36.4 16.3 35.2 L6.95 14.6 6.8 14.4 7.1 14.4 Q8.4 14.45 9.15 13.6"/><path fill="#c47fad" stroke="none" d="M8.25 23.65 L3.35 12.8 Q1.65 9.1 5.5 7.85 L22.25 2.5 Q26.05 1.25 27.75 4.95 L28.25 6.1 35.55 22.3 39.35 30.75 Q41.1 34.5 37.2 35.7 L20.45 41.1 Q16.8 42.25 15.2 39.0 L15.0 38.6 8.25 23.65 M9.15 13.6 Q8.4 14.45 7.1 14.4 L6.8 14.4 6.95 14.6 16.3 35.2 Q16.8 36.4 17.65 37.0 18.8 37.8 20.65 37.2 L34.0 32.9 33.7 32.1 Q33.45 30.9 34.1 30.1 34.75 29.3 35.95 29.35 L35.8 29.0 26.5 8.3 26.25 7.85 Q24.9 5.45 22.05 6.35 L9.1 10.55 9.55 11.6 Q9.8 12.8 9.15 13.6"/><path fill="none" stroke="#ffcc00" stroke-width="1.0" stroke-opacity="0.749019607843" d="M8.25 23.65 L3.35 12.8 Q1.65 9.1 5.5 7.85 L22.25 2.5 Q26.05 1.25 27.75 4.95 L28.25 6.1 M35.55 22.3 L39.35 30.75 Q41.1 34.5 37.2 35.7 L20.45 41.1 Q16.8 42.25 15.2 39.0 L15.0 38.6"/><path fill="none" stroke="#bf9900" stroke-width="1.0" stroke-opacity="0.749019607843" d="M28.25 6.1 L35.55 22.3 M15.0 38.6 L8.25 23.65"/><path fill="none" stroke="#f0b92b" stroke-width="0.5" d="M9.15 13.6 Q9.8 12.8 9.55 11.6 L9.1 10.55 22.05 6.35 Q24.9 5.45 26.25 7.85 L26.5 8.3 35.8 29.0 35.95 29.35 Q34.75 29.3 34.1 30.1 33.45 30.9 33.7 32.1 L34.0 32.9 20.65 37.2 Q18.8 37.8 17.65 37.0 16.8 36.4 16.3 35.2 L6.95 14.6 6.8 14.4 7.1 14.4 Q8.4 14.45 9.15 13.6"/></g><g id="c3"><path fill="#7fdbfe" stroke="none" d="M10.75 4.9 Q10.75 4.6 10.9 4.35 11.25 3.45 11.95 2.75 13.3 1.5 14.35 2.1 15.4 2.7 14.95 4.45 14.7 5.4 14.1 6.15 L13.75 6.5 Q13.1 7.15 12.35 7.35 L11.4 7.2 Q10.95 6.9 10.75 6.4 10.5 5.75 10.75 4.9 M7.5 5.9 Q7.0 5.85 6.6 5.5 6.05 5.0 5.8 4.15 L5.7 3.6 Q5.55 2.65 5.8 1.7 6.25 0.0 7.5 0.0 L7.6 0.0 Q8.85 0.0 9.3 1.7 9.55 2.65 9.4 3.6 L9.3 4.15 8.5 5.5 7.6 5.9 7.5 5.9 M4.35 4.9 Q4.6 5.75 4.35 6.4 L3.7 7.2 2.75 7.35 Q2.0 7.15 1.35 6.5 L1.0 6.15 Q0.4 5.4 0.15 4.45 -0.3 2.7 0.75 2.1 1.8 1.5 3.15 2.75 3.85 3.45 4.2 4.35 L4.35 4.9 M5.5 13.7 Q4.45 13.9 3.65 12.95 2.75 12.0 3.2 10.25 3.7 8.5 5.25 7.6 6.4 6.9 7.55 7.0 8.75 6.9 9.9 7.6 11.45 8.5 11.95 10.25 12.35 12.0 11.5 12.95 10.7 13.9 9.65 13.7 8.55 13.5 7.55 12.6 6.55 13.5 5.5 13.7"/></g><g id="c4"><g><use transform="matrix(1.0,0.0,0.0,1.0,0.0,0.0)" xlink:href="#c3"/></g></g><radialGradient gradientUnits="userSpaceOnUse" r="819.2" cx="0" cy="0" spreadMethod="pad" gradientTransform="matrix(0.0914459228516,0.0,0.0,0.0914459228516,0.6,3.4)" id="gradient1"><stop offset="0.0" stop-color="#ffffff"/><stop offset="1.0" stop-color="#ffffff" stop-opacity="0.0"/></radialGradient><g id="c5"><path stroke="none" fill="url(#gradient1)" d="M36.65 -54.65 Q60.05 -42.0 69.75 -17.95 80.55 8.9 68.0 34.1 55.45 59.35 26.8 68.2 -1.8 77.05 -29.7 64.3 -57.6 51.6 -68.45 24.75 -79.3 -2.05 -66.75 -27.25 L-66.7 -27.3 Q-54.1 -52.5 -25.5 -61.4 3.1 -70.2 31.0 -57.5 L36.65 -54.65"/></g><g id="c6"><g><use transform="matrix(1.0,0.0,0.0,1.0,0.0,0.0)" xlink:href="#c5"/></g></g><radialGradient gradientUnits="userSpaceOnUse" r="819.2" cx="0" cy="0" spreadMethod="pad" gradientTransform="matrix(0.209197998047,0.0,0.0,0.177108764648,67.15,107.2)" id="gradient2"><stop offset="0.356862745098" stop-color="#ffffff"/><stop offset="0.670588235294" stop-opacity="0.0"/></radialGradient><g id="c7"><path fill="none" stroke-linejoin="round" stroke-linecap="round" stroke="url(#gradient2)" stroke-width="0.5" d="M136.55 165.8 L68.6 106.0 68.4 106.0 118.25 201.5 M68.2 105.7 L68.25 105.8 68.25 105.75 68.2 105.7 0.0 45.7 M68.25 105.8 L68.3 105.85 68.3 105.8 68.25 105.75 49.95 0.05 M0.05 97.7 L68.15 105.95 68.25 105.85 68.25 105.8 M68.3 105.85 L68.25 105.85 68.3 106.0 68.3 105.85 68.3 105.8 68.35 105.8 68.3 105.8 86.6 18.35 M50.0 193.2 L68.3 106.0 68.15 105.95 18.25 151.55 M68.4 106.0 L68.3 106.0 86.55 211.5 M68.4 106.0 L68.3 105.85 M68.6 106.0 L68.35 105.8 118.25 60.15 M136.6 114.25 L68.6 106.0 M68.2 105.7 L18.25 10.05"/></g><g id="c8"><g><use transform="matrix(1.0,0.0,0.0,1.0,0.0,0.0)" xlink:href="#c7"/></g></g><g id="c9"><path fill="#7a4837" stroke="none" d="M26.1 15.35 L26.15 15.4 28.0 17.3 28.95 18.75 28.95 18.8 29.0 22.55 Q28.75 20.9 28.0 19.4 L27.0 17.95 25.55 16.45 Q24.2 15.25 22.45 14.75 26.15 15.65 26.1 15.35"/><path fill="#cf7952" stroke="none" d="M29.3 27.8 L27.7 30.25 Q28.5 28.85 28.45 27.15 L28.75 26.0 28.45 27.15 Q27.6 29.55 25.6 31.2 L25.15 31.65 24.8 31.9 24.6 31.7 25.15 31.25 Q26.85 29.75 27.65 27.75 L27.75 27.5 Q27.5 29.0 28.75 26.0 L28.85 25.85 28.95 25.15 28.95 24.75 Q29.5 26.0 29.3 27.8 M11.1 18.5 L11.65 17.65 11.65 17.6 11.8 17.65 11.1 18.5 M12.15 16.85 L13.15 15.8 13.4 15.55 13.9 15.2 Q15.35 14.1 17.0 13.6 L21.2 13.3 Q24.0 13.75 26.1 15.35 26.15 15.65 22.45 14.75 L22.2 14.7 21.8 14.55 20.5 14.35 18.7 14.25 Q16.0 14.4 13.75 16.0 L13.2 16.35 12.55 17.0 12.35 17.15 12.15 16.85"/><path fill="#b3552a" stroke="none" d="M28.95 18.8 Q30.5 21.45 30.1 24.7 29.95 26.4 29.3 27.8 29.5 26.0 28.95 24.75 L29.0 24.5 29.05 23.7 29.05 23.45 29.0 22.55 28.95 18.8 M27.7 30.25 L26.4 31.3 25.95 31.7 25.65 31.85 25.1 32.2 24.8 31.9 25.15 31.65 25.6 31.2 Q27.6 29.55 28.45 27.15 28.5 28.85 27.7 30.25 M12.25 17.75 Q11.3 18.55 10.7 19.55 L11.1 18.5 11.8 17.65 12.25 17.75 M12.35 17.15 L12.55 17.0 13.2 16.35 13.75 16.0 Q16.0 14.4 18.7 14.25 L20.5 14.35 21.8 14.55 22.2 14.7 Q16.75 14.15 20.9 15.15 L20.15 15.05 Q16.7 14.7 13.7 16.6 L12.95 17.15 12.6 17.5 12.35 17.15"/><path fill="#482920" stroke="none" d="M25.1 32.2 L24.65 32.45 22.4 33.15 24.4 32.2 24.5 32.15 24.35 31.9 24.4 31.9 24.45 31.85 24.6 31.7 24.8 31.9 25.1 32.2 M12.35 17.65 L12.25 17.75 11.8 17.65 11.65 17.6 12.15 16.85 12.35 17.15 12.6 17.5 12.35 17.65 M22.45 14.75 Q24.2 15.25 25.55 16.45 24.35 15.7 23.5 15.95 L23.7 16.05 23.4 15.9 Q22.45 15.45 21.4 15.25 L21.2 15.15 21.0 15.15 20.9 15.15 Q16.75 14.15 22.2 14.7 L22.45 14.75 M28.0 19.4 Q28.75 20.9 29.0 22.55 L29.05 23.45 29.05 23.7 29.0 24.5 28.95 24.75 28.95 25.15 28.85 25.85 28.75 26.0 Q27.5 29.0 27.75 27.5 L28.1 26.3 28.2 25.85 28.3 25.4 Q28.6 23.4 28.1 21.65 L28.0 19.4 M23.5 15.95 L23.4 15.9 23.5 15.95 M11.8 17.65 L12.35 17.15 11.8 17.65 M24.65 32.45 L24.5 32.15 24.8 31.9 24.5 32.15 24.65 32.45"/><path fill="#ccb880" stroke="none" d="M22.4 33.15 L22.05 33.25 24.35 31.9 24.5 32.15 24.4 32.2 22.4 33.15"/><path fill="none" stroke="#000000" stroke-width="0.5" stroke-opacity="0.313725490196" d="M26.1 15.35 L26.15 15.4 28.0 17.3 28.95 18.75 28.95 18.8 Q30.5 21.45 30.1 24.7 29.95 26.4 29.3 27.8 L27.7 30.25 26.4 31.3 25.95 31.7 25.65 31.85 25.1 32.2 24.65 32.45 22.4 33.15 22.05 33.25 M24.4 31.9 L12.35 17.65 M10.7 19.55 L11.1 18.5 11.65 17.65 11.65 17.6 12.15 16.85 13.15 15.8 13.4 15.55 13.9 15.2 Q15.35 14.1 17.0 13.6 L21.2 13.3 Q24.0 13.75 26.1 15.35 M22.45 14.75 Q24.2 15.25 25.55 16.45 L27.0 17.95 28.0 19.4 Q28.75 20.9 29.0 22.55 L29.05 23.45 29.05 23.7 29.0 24.5 28.95 24.75 28.95 25.15 28.85 25.85 28.75 26.0 28.45 27.15 Q27.6 29.55 25.6 31.2 L25.15 31.65 24.8 31.9 25.1 32.2 M12.35 17.15 L12.55 17.0 13.2 16.35 13.75 16.0 Q16.0 14.4 18.7 14.25 L20.5 14.35 21.8 14.55 22.2 14.7 22.45 14.75 M23.4 15.9 L23.5 15.95 Q24.35 15.7 25.55 16.45 M28.1 21.65 L28.0 19.4 M12.15 16.85 L12.35 17.15 12.6 17.5 M11.8 17.65 L12.25 17.75 M11.8 17.65 L11.65 17.6 M12.35 17.15 L11.8 17.65 11.1 18.5 M24.6 31.7 L24.8 31.9 24.5 32.15 24.65 32.45 M24.5 32.15 L24.4 32.2 22.4 33.15 M24.5 32.15 L24.35 31.9"/><path fill="#7a4837" stroke="none" d="M28.15 19.1 L28.15 19.2 28.1 19.1 28.15 19.1 M26.35 15.85 L26.4 15.85 26.65 16.15 26.35 15.85"/><path fill="#cccccc" stroke="none" d="M26.5 16.05 L26.65 16.15 26.4 15.85 26.1 15.7 26.45 15.25 27.2 15.9 28.65 17.7 29.05 18.4 28.65 18.7 28.35 18.75 28.55 18.5 28.3 18.1 28.25 18.1 26.5 16.05"/><path fill="#999999" stroke="none" d="M26.5 16.05 L28.25 18.1 28.3 18.1 28.55 18.5 28.35 18.75 28.65 18.7 28.15 19.05 28.15 19.1 27.8 18.5 27.75 18.45 27.7 18.35 26.35 16.8 26.3 16.75 25.7 16.2 26.1 15.7 26.4 15.85 26.35 15.85 26.5 16.05"/><path fill="#666666" stroke="none" d="M25.7 16.2 L26.3 16.75 26.35 16.8 27.7 18.35 27.75 18.45 27.8 18.5 28.15 19.1 28.1 19.1 27.85 19.2 27.35 18.5 26.05 17.1 25.4 16.5 25.7 16.2"/><path fill="none" stroke="#000000" stroke-width="0.5" stroke-opacity="0.2" d="M29.05 18.4 L28.65 17.7 27.2 15.9 26.45 15.25 M26.3 16.75 L26.35 16.8 M28.1 19.1 L27.85 19.2 27.35 18.5 26.05 17.1 25.4 16.5"/><path fill="#cccccc" stroke="none" d="M26.4 16.0 L25.95 15.55 26.45 14.85 Q27.0 14.75 27.0 15.4 L26.4 16.0"/><path fill="#7a4837" stroke="none" d="M25.9 16.45 L26.0 16.55 25.9 16.45 M26.4 16.0 L26.0 16.55 25.85 16.7 25.4 16.4 25.95 15.55 26.4 16.0"/><path fill="#3d231b" stroke="none" d="M25.4 16.4 L25.85 16.7 25.45 17.1 25.05 16.95 25.4 16.4"/><path fill="none" stroke="#000000" stroke-width="0.5" stroke-opacity="0.43137254902" d="M26.0 16.55 L25.9 16.45 M26.0 16.55 L26.4 16.0 27.0 15.4 Q27.0 14.75 26.45 14.85 L25.95 15.55 25.4 16.4 25.05 16.95 25.45 17.1 25.85 16.7 26.0 16.55"/><path fill="#7a4837" stroke="none" d="M28.4 19.5 L28.4 19.4 28.45 19.4 Q28.7 19.2 29.05 18.95 L29.35 19.5 28.6 19.85 28.4 19.5"/><path fill="#3d231b" stroke="none" d="M28.6 19.85 L28.2 20.15 27.85 19.7 28.15 19.5 28.35 19.45 28.4 19.5 28.6 19.85"/><path fill="#cccccc" stroke="none" d="M29.05 18.95 L29.75 18.5 Q30.15 18.8 29.95 19.25 L29.35 19.5 29.05 18.95"/><path fill="none" stroke="#000000" stroke-width="0.5" stroke-opacity="0.43137254902" d="M28.4 19.5 L28.4 19.4 28.45 19.4 Q28.7 19.2 29.05 18.95 L29.75 18.5 Q30.15 18.8 29.95 19.25 L29.35 19.5 28.6 19.85 28.2 20.15 27.85 19.7 28.15 19.5 28.35 19.45 28.4 19.5"/><path fill="#333333" stroke="none" d="M16.85 22.85 L17.65 23.2 Q18.5 24.85 20.0 26.15 L20.25 26.85 19.55 26.65 Q18.5 24.8 17.15 23.65 L16.85 22.85"/><path fill="none" stroke="#000000" stroke-width="0.5" stroke-opacity="0.2" d="M16.85 22.85 L17.65 23.2 Q18.5 24.85 20.0 26.15 L20.25 26.85 19.55 26.65 Q18.5 24.8 17.15 23.65 L16.85 22.85"/><path fill="#999999" stroke="none" d="M28.65 26.05 L28.6 26.0 28.65 26.0 28.85 25.2 29.5 25.3 29.5 25.65 29.4 25.85 29.35 26.0 28.4 28.35 28.4 28.4 28.2 28.8 27.85 28.75 28.05 28.9 27.5 28.65 27.45 28.65 27.8 28.15 27.8 28.05 27.9 27.9 28.65 26.05"/><path fill="#666666" stroke="none" d="M28.6 26.0 L28.65 26.05 27.9 27.9 27.8 28.05 27.8 28.15 27.45 28.65 27.2 28.45 27.6 27.7 28.2 25.95 28.45 25.05 28.85 25.2 28.65 26.0 28.6 26.0"/><path fill="#cccccc" stroke="none" d="M29.35 26.0 L29.5 25.65 29.5 25.3 30.0 25.4 29.8 26.4 28.9 28.55 28.5 29.15 28.05 28.9 27.85 28.75 28.2 28.8 28.4 28.4 28.4 28.35 29.35 26.0"/><path fill="none" stroke="#000000" stroke-width="0.5" stroke-opacity="0.2" d="M28.65 26.05 L28.6 26.0 M28.45 25.05 L28.2 25.95 27.6 27.7 27.2 28.45 27.45 28.65 M28.5 29.15 L28.9 28.55 29.8 26.4 30.0 25.4"/><path fill="#666666" stroke="none" d="M17.4 14.65 L19.4 14.5 19.5 14.5 19.6 14.55 20.25 14.65 20.25 14.7 20.2 14.95 19.35 14.9 17.5 15.05 16.8 15.2 16.7 14.8 17.35 14.65 17.4 14.65"/><path fill="#999999" stroke="none" d="M20.25 14.65 L19.6 14.55 19.5 14.5 19.4 14.5 17.4 14.65 17.35 14.65 16.7 14.8 16.5 14.1 16.8 14.0 16.8 14.05 16.95 14.05 19.55 13.8 19.6 13.8 20.15 13.85 20.15 14.25 20.3 13.9 20.25 14.55 20.25 14.65"/><path fill="#cccccc" stroke="none" d="M20.3 13.9 L20.15 14.25 20.15 13.85 19.6 13.8 19.55 13.8 16.95 14.05 17.1 13.95 16.8 14.0 16.5 14.1 16.35 13.55 17.2 13.35 19.5 13.2 20.35 13.3 20.3 13.9"/><path fill="none" stroke="#000000" stroke-width="0.5" stroke-opacity="0.2" d="M17.35 14.65 L17.4 14.65 M16.8 15.2 L17.5 15.05 19.35 14.9 20.2 14.95 20.25 14.7 M16.35 13.55 L17.2 13.35 19.5 13.2 20.35 13.3"/></g><g id="c10"><g><use transform="matrix(1.0,0.0,0.0,1.0,0.0,0.0)" xlink:href="#c2"/></g><g><use transform="matrix(0.238861083984,-0.0867004394531,0.10026550293,0.233917236328,34.25,31.15)" xlink:href="#c4"/></g><g><use transform="matrix(0.238861083984,-0.0867004394531,0.10026550293,0.233917236328,4.25,10.3)" xlink:href="#c4"/></g><g><use transform="matrix(0.141098022461,-0.0378112792969,0.111373901367,0.225646972656,20.25,20.65)" filter="url(#filter7)" xlink:href="#c6"/></g><g><use transform="matrix(-0.155029296875,0.0513153076172,0.0841827392578,0.147033691406,22.6,2.3)" filter="url(#filter8)" xlink:href="#c8"/></g><g><use transform="matrix(1.0,0.0,0.0,1.0,0.0,0.0)" xlink:href="#c9"/></g><g><use transform="matrix(0.162948608398,-0.0436706542969,0.128631591797,0.260604858398,20.35,20.95)" filter="url(#filter10)" xlink:href="#c6"/></g></g><filter id="filter7"><feColorMatrix in="SourceGraphic" type="matrix" values="0.0 0.0 0.0 0.0 0.796875 0.0 0.0 0.0 0.0 0.59765625 0.0 0.0 0.0 0.0 0.19921875 0.0 0.0 0.0 1.0 0.0" result="cxform"/><feComposite operator="in" in2="SourceGraphic" result="color-xform"/></filter><filter id="filter8"><feColorMatrix in="SourceGraphic" type="matrix" values="0.0 0.0 0.0 0.0 0.99609375 0.0 0.0 0.0 0.0 0.99609375 0.0 0.0 0.0 0.0 0.99609375 0.0 0.0 0.0 1.0 0.0" result="cxform"/><feComposite operator="in" in2="SourceGraphic" result="color-xform"/></filter><filter id="filter10"><feColorMatrix in="SourceGraphic" type="matrix" values="1.0 0.0 0.0 0.0 0.0 0.0 1.0 0.0 0.0 0.0 0.0 0.0 1.0 0.0 0.0 0.0 0.0 0.0 0.23046875 0.0" result="cxform"/><feComposite operator="in" in2="SourceGraphic" result="color-xform"/></filter></defs><g><g><use transform="matrix(1.0,0.0,0.0,1.0,0.0,0.0)" xlink:href="#c1"/></g><g><use transform="matrix(1.15496826172,0.0,0.0,1.15496826172,5.85,3.95)" xlink:href="#c10"/></g></g></svg>