<?xml version='1.0' encoding='UTF-8'?>
<svg xmlns:xlink="http://www.w3.org/1999/xlink" xmlns="http://www.w3.org/2000/svg" version="1.1" width="60px" height="60px" viewBox="0.0 0.0 60.0 60.0"><defs><g id="c1"><path fill="#000000" fill-opacity="0.00392156862745" d="M0.0 0.0 L60.0 0.0 60.0 60.0 0.0 60.0 0.0 0.0"/></g><g id="c2"><path fill="none" stroke="#000000" stroke-width="1.0" stroke-opacity="0.301960784314" d="M22.3 0.35 Q26.6 -1.0 28.5 3.05 L41.4 31.7 Q43.1 35.4 39.9 36.85 L38.15 37.65 19.65 43.65 Q17.05 44.5 15.35 43.3 14.2 42.55 13.5 40.9 L0.55 12.25 Q-0.6 9.75 0.6 8.25 1.15 7.55 2.2 7.05 2.85 6.6 3.8 6.3 L22.3 0.35"/><path fill="#300525" stroke="none" d="M25.55 0.9 Q26.9 1.6 27.8 3.55 L40.7 32.15 Q42.6 36.3 38.3 37.65 L23.3 42.5 13.15 21.4 4.6 20.9 0.7 12.25 Q-0.45 9.75 0.75 8.25 L29.8 9.75 25.55 0.9 M20.1 43.55 L19.8 43.65 Q17.15 44.45 15.5 43.3 L20.1 43.55"/><path fill="#630a4c" stroke="none" d="M23.3 42.5 L20.1 43.55 15.5 43.3 Q14.35 42.55 13.65 40.9 L4.6 20.9 13.15 21.4 23.3 42.5 M0.75 8.25 Q1.45 7.3 3.1 6.75 L21.65 0.8 25.55 0.9 29.8 9.75 0.75 8.25"/><path fill="none" stroke="#000000" stroke-width="0.5" stroke-opacity="0.301960784314" d="M25.55 0.9 Q26.9 1.6 27.8 3.55 L40.7 32.15 Q42.6 36.3 38.3 37.65 L23.3 42.5 20.1 43.55 19.8 43.65 Q17.15 44.45 15.5 43.3 14.35 42.55 13.65 40.9 L4.6 20.9 0.7 12.25 Q-0.45 9.75 0.75 8.25 1.45 7.3 3.1 6.75 L21.65 0.8 25.55 0.9"/><path fill="#9d147b" stroke="none" d="M14.2 40.5 L1.35 11.8 Q-0.5 7.75 3.8 6.35 L22.3 0.4 Q26.55 -1.0 28.45 3.1 L41.35 31.7 Q43.25 35.85 38.9 37.25 L20.4 43.2 Q16.1 44.55 14.2 40.5"/><path fill="none" stroke="#000000" stroke-width="0.5" stroke-opacity="0.301960784314" d="M14.2 40.5 L1.35 11.8 Q-0.5 7.75 3.8 6.35 L22.3 0.4 Q26.55 -1.0 28.45 3.1 L41.35 31.7 Q43.25 35.85 38.9 37.25 L20.4 43.2 Q16.1 44.55 14.2 40.5"/><path fill="#fcf2cf" stroke="none" d="M9.15 13.6 Q9.8 12.8 9.55 11.6 L9.1 10.55 22.05 6.35 Q24.9 5.45 26.25 7.85 L26.5 8.3 35.8 29.0 35.95 29.35 Q34.75 29.3 34.1 30.1 33.45 30.9 33.7 32.1 L34.0 32.9 20.65 37.2 Q18.8 37.8 17.65 37.0 16.8 36.4 16.3 35.2 L6.95 14.6 6.8 14.4 7.1 14.4 Q8.4 14.45 9.15 13.6"/><path fill="#c47fad" stroke="none" d="M8.25 23.65 L3.35 12.8 Q1.65 9.1 5.5 7.85 L22.25 2.5 Q26.05 1.25 27.75 4.95 L28.25 6.1 35.55 22.3 39.35 30.75 Q41.1 34.5 37.2 35.7 L20.45 41.1 Q16.8 42.25 15.2 39.0 L15.0 38.6 8.25 23.65 M9.15 13.6 Q8.4 14.45 7.1 14.4 L6.8 14.4 6.95 14.6 16.3 35.2 Q16.8 36.4 17.65 37.0 18.8 37.8 20.65 37.2 L34.0 32.9 33.7 32.1 Q33.45 30.9 34.1 30.1 34.75 29.3 35.95 29.35 L35.8 29.0 26.5 8.3 26.25 7.85 Q24.9 5.45 22.05 6.35 L9.1 10.55 9.55 11.6 Q9.8 12.8 9.15 13.6"/><path fill="none" stroke="#ffcc00" stroke-width="1.0" stroke-opacity="0.749019607843" d="M8.25 23.65 L3.35 12.8 Q1.65 9.1 5.5 7.85 L22.25 2.5 Q26.05 1.25 27.75 4.95 L28.25 6.1 M35.55 22.3 L39.35 30.75 Q41.1 34.5 37.2 35.7 L20.45 41.1 Q16.8 42.25 15.2 39.0 L15.0 38.6"/><path fill="none" stroke="#bf9900" stroke-width="1.0" stroke-opacity="0.749019607843" d="M28.25 6.1 L35.55 22.3 M15.0 38.6 L8.25 23.65"/><path fill="none" stroke="#f0b92b" stroke-width="0.5" d="M9.15 13.6 Q9.8 12.8 9.55 11.6 L9.1 10.55 22.05 6.35 Q24.9 5.45 26.25 7.85 L26.5 8.3 35.8 29.0 35.95 29.35 Q34.75 29.3 34.1 30.1 33.45 30.9 33.7 32.1 L34.0 32.9 20.65 37.2 Q18.8 37.8 17.65 37.0 16.8 36.4 16.3 35.2 L6.95 14.6 6.8 14.4 7.1 14.4 Q8.4 14.45 9.15 13.6"/></g><g id="c3"><path fill="#7fdbfe" stroke="none" d="M10.75 4.9 Q10.75 4.6 10.9 4.35 11.25 3.45 11.95 2.75 13.3 1.5 14.35 2.1 15.4 2.7 14.95 4.45 14.7 5.4 14.1 6.15 L13.75 6.5 Q13.1 7.15 12.35 7.35 L11.4 7.2 Q10.95 6.9 10.75 6.4 10.5 5.75 10.75 4.9 M7.5 5.9 Q7.0 5.85 6.6 5.5 6.05 5.0 5.8 4.15 L5.7 3.6 Q5.55 2.65 5.8 1.7 6.25 0.0 7.5 0.0 L7.6 0.0 Q8.85 0.0 9.3 1.7 9.55 2.65 9.4 3.6 L9.3 4.15 8.5 5.5 7.6 5.9 7.5 5.9 M4.35 4.9 Q4.6 5.75 4.35 6.4 L3.7 7.2 2.75 7.35 Q2.0 7.15 1.35 6.5 L1.0 6.15 Q0.4 5.4 0.15 4.45 -0.3 2.7 0.75 2.1 1.8 1.5 3.15 2.75 3.85 3.45 4.2 4.35 L4.35 4.9 M5.5 13.7 Q4.45 13.9 3.65 12.95 2.75 12.0 3.2 10.25 3.7 8.5 5.25 7.6 6.4 6.9 7.55 7.0 8.75 6.9 9.9 7.6 11.45 8.5 11.95 10.25 12.35 12.0 11.5 12.95 10.7 13.9 9.65 13.7 8.55 13.5 7.55 12.6 6.55 13.5 5.5 13.7"/></g><g id="c4"><g><use transform="matrix(1.0,0.0,0.0,1.0,0.0,0.0)" xlink:href="#c3"/></g></g><radialGradient gradientUnits="userSpaceOnUse" r="819.2" cx="0" cy="0" spreadMethod="pad" gradientTransform="matrix(0.0914459228516,0.0,0.0,0.0914459228516,0.6,3.4)" id="gradient1"><stop offset="0.0" stop-color="#ffffff"/><stop offset="1.0" stop-color="#ffffff" stop-opacity="0.0"/></radialGradient><g id="c5"><path stroke="none" fill="url(#gradient1)" d="M36.65 -54.65 Q60.05 -42.0 69.75 -17.95 80.55 8.9 68.0 34.1 55.45 59.35 26.8 68.2 -1.8 77.05 -29.7 64.3 -57.6 51.6 -68.45 24.75 -79.3 -2.05 -66.75 -27.25 L-66.7 -27.3 Q-54.1 -52.5 -25.5 -61.4 3.1 -70.2 31.0 -57.5 L36.65 -54.65"/></g><g id="c6"><g><use transform="matrix(1.0,0.0,0.0,1.0,0.0,0.0)" xlink:href="#c5"/></g></g><radialGradient gradientUnits="userSpaceOnUse" r="819.2" cx="0" cy="0" spreadMethod="pad" gradientTransform="matrix(0.209197998047,0.0,0.0,0.177108764648,67.15,107.2)" id="gradient2"><stop offset="0.356862745098" stop-color="#ffffff"/><stop offset="0.670588235294" stop-opacity="0.0"/></radialGradient><g id="c7"><path fill="none" stroke-linejoin="round" stroke-linecap="round" stroke="url(#gradient2)" stroke-width="0.5" d="M136.55 165.8 L68.6 106.0 68.4 106.0 118.25 201.5 M68.2 105.7 L68.25 105.8 68.25 105.75 68.2 105.7 0.0 45.7 M68.25 105.8 L68.3 105.85 68.3 105.8 68.25 105.75 49.95 0.05 M0.05 97.7 L68.15 105.95 68.25 105.85 68.25 105.8 M68.3 105.85 L68.25 105.85 68.3 106.0 68.3 105.85 68.3 105.8 68.35 105.8 68.3 105.8 86.6 18.35 M50.0 193.2 L68.3 106.0 68.15 105.95 18.25 151.55 M68.4 106.0 L68.3 106.0 86.55 211.5 M68.4 106.0 L68.3 105.85 M68.6 106.0 L68.35 105.8 118.25 60.15 M136.6 114.25 L68.6 106.0 M68.2 105.7 L18.25 10.05"/></g><g id="c8"><g><use transform="matrix(1.0,0.0,0.0,1.0,0.0,0.0)" xlink:href="#c7"/></g></g><linearGradient gradientUnits="userSpaceOnUse" x1="-819.2" x2="819.2" spreadMethod="pad" gradientTransform="matrix(0.126861572266,0.0,0.0,0.0318298339844,209.15,35.8)" id="gradient3"><stop offset="0.0" stop-color="#6f4a00"/><stop offset="1.0" stop-color="#6b2d03"/></linearGradient><linearGradient gradientUnits="userSpaceOnUse" x1="-819.2" x2="819.2" spreadMethod="pad" gradientTransform="matrix(0.174667358398,-0.00762939453125,0.00202941894531,0.0464630126953,204.3,39.85)" id="gradient4"><stop offset="0.0" stop-color="#9b7928"/><stop offset="1.0" stop-color="#9c9127"/></linearGradient><linearGradient gradientUnits="userSpaceOnUse" x1="-819.2" x2="819.2" spreadMethod="pad" gradientTransform="matrix(0.0926361083984,0.00332641601562,-0.00141906738281,0.0394439697266,213.7,33.55)" id="gradient5"><stop offset="0.0" stop-color="#533800"/><stop offset="1.0" stop-color="#683600"/></linearGradient><linearGradient gradientUnits="userSpaceOnUse" x1="-819.2" x2="819.2" spreadMethod="pad" gradientTransform="matrix(0.170532226562,0.0149383544922,-0.00857543945312,0.0979461669922,201.65,108.7)" id="gradient6"><stop offset="0.0" stop-color="#6c4900"/><stop offset="1.0" stop-color="#683600"/></linearGradient><linearGradient gradientUnits="userSpaceOnUse" x1="-819.2" x2="819.2" spreadMethod="pad" gradientTransform="matrix(0.0735778808594,0.0,0.0,0.0810852050781,277.5,120.9)" id="gradient7"><stop offset="0.0" stop-color="#7d5500"/><stop offset="1.0" stop-color="#745c03"/></linearGradient><linearGradient gradientUnits="userSpaceOnUse" x1="-819.2" x2="819.2" spreadMethod="pad" gradientTransform="matrix(0.0343627929688,0.0,0.0,0.0659790039062,85.5,109.75)" id="gradient8"><stop offset="0.0" stop-color="#7d5500"/><stop offset="1.0" stop-color="#745c03"/></linearGradient><linearGradient gradientUnits="userSpaceOnUse" x1="-819.2" x2="819.2" spreadMethod="pad" gradientTransform="matrix(0.0197448730469,0.0,0.0,0.0693359375,167.95,130.6)" id="gradient9"><stop offset="0.0" stop-color="#7d5500"/><stop offset="1.0" stop-color="#745c03"/></linearGradient><linearGradient gradientUnits="userSpaceOnUse" x1="-819.2" x2="819.2" spreadMethod="pad" gradientTransform="matrix(0.0166168212891,0.0287322998047,-0.0182800292969,0.0105743408203,364.75,77.6)" id="gradient10"><stop offset="0.0" stop-color="#5b3e00"/><stop offset="1.0" stop-color="#534a02"/></linearGradient><linearGradient gradientUnits="userSpaceOnUse" x1="-819.2" x2="819.2" spreadMethod="pad" gradientTransform="matrix(0.0297546386719,0.0,0.0,0.00564575195312,292.25,5.15)" id="gradient11"><stop offset="0.0" stop-color="#795200"/><stop offset="1.0" stop-color="#766a01"/></linearGradient><linearGradient gradientUnits="userSpaceOnUse" x1="-819.2" x2="819.2" spreadMethod="pad" gradientTransform="matrix(0.0,0.0264892578125,-0.0171813964844,0.0,266.9,36.45)" id="gradient12"><stop offset="0.0" stop-color="#5b3e00"/><stop offset="1.0" stop-color="#534a02"/></linearGradient><linearGradient gradientUnits="userSpaceOnUse" x1="-819.2" x2="819.2" spreadMethod="pad" gradientTransform="matrix(0.0081787109375,0.0,0.0,0.0365600585938,286.45,30.0)" id="gradient13"><stop offset="0.0" stop-color="#806000"/><stop offset="1.0" stop-color="#7d7d02"/></linearGradient><linearGradient gradientUnits="userSpaceOnUse" x1="-819.2" x2="819.2" spreadMethod="pad" gradientTransform="matrix(0.00799560546875,0.0,0.0,0.111846923828,210.95,156.8)" id="gradient14"><stop offset="0.0" stop-color="#806000"/><stop offset="1.0" stop-color="#7d7d02"/></linearGradient><linearGradient gradientUnits="userSpaceOnUse" x1="-819.2" x2="819.2" spreadMethod="pad" gradientTransform="matrix(0.0180053710938,0.0,0.0,0.0139465332031,339.25,33.7)" id="gradient15"><stop offset="0.0" stop-color="#795200"/><stop offset="1.0" stop-color="#766a01"/></linearGradient><linearGradient gradientUnits="userSpaceOnUse" x1="-819.2" x2="819.2" spreadMethod="pad" gradientTransform="matrix(0.0335693359375,0.0,0.0,0.0478515625,342.9,78.25)" id="gradient16"><stop offset="0.0" stop-color="#806000"/><stop offset="1.0" stop-color="#7d7d02"/></linearGradient><linearGradient gradientUnits="userSpaceOnUse" x1="-819.2" x2="819.2" spreadMethod="pad" gradientTransform="matrix(0.0168304443359,0.0168304443359,-0.00628662109375,0.00628662109375,388.3,135.7)" id="gradient17"><stop offset="0.0" stop-color="#537750"/><stop offset="1.0" stop-color="#425a3f"/></linearGradient><linearGradient gradientUnits="userSpaceOnUse" x1="-819.2" x2="819.2" spreadMethod="pad" gradientTransform="matrix(0.0,0.0338134765625,-0.0198669433594,0.0,148.0,49.7)" id="gradient18"><stop offset="0.0" stop-color="#5b3e00"/><stop offset="1.0" stop-color="#534a02"/></linearGradient><linearGradient gradientUnits="userSpaceOnUse" x1="-819.2" x2="819.2" spreadMethod="pad" gradientTransform="matrix(-0.0121765136719,0.00326538085938,-0.00234985351562,-0.00872802734375,139.85,5.45)" id="gradient19"><stop offset="0.0" stop-color="#795200"/><stop offset="1.0" stop-color="#766a01"/></linearGradient><linearGradient gradientUnits="userSpaceOnUse" x1="-819.2" x2="819.2" spreadMethod="pad" gradientTransform="matrix(0.0108032226562,0.0,0.0,0.0352478027344,125.25,30.1)" id="gradient20"><stop offset="0.0" stop-color="#806000"/><stop offset="1.0" stop-color="#7d7d02"/></linearGradient><linearGradient gradientUnits="userSpaceOnUse" x1="-819.2" x2="819.2" spreadMethod="pad" gradientTransform="matrix(0.0235290527344,0.0,0.0,0.0103759765625,126.8,62.7)" id="gradient21"><stop offset="0.0" stop-color="#795200"/><stop offset="1.0" stop-color="#766a01"/></linearGradient><linearGradient gradientUnits="userSpaceOnUse" x1="-819.2" x2="819.2" spreadMethod="pad" gradientTransform="matrix(-0.012451171875,0.0808410644531,-0.0254364013672,-0.00392150878906,113.9,157.9)" id="gradient22"><stop offset="0.0" stop-color="#5b3e00"/><stop offset="1.0" stop-color="#534a02"/></linearGradient><linearGradient gradientUnits="userSpaceOnUse" x1="-819.2" x2="819.2" spreadMethod="pad" gradientTransform="matrix(0.0121459960938,0.0,0.0,0.0112915039062,64.05,32.95)" id="gradient23"><stop offset="0.0" stop-color="#795200"/><stop offset="1.0" stop-color="#766a01"/></linearGradient><linearGradient gradientUnits="userSpaceOnUse" x1="-819.2" x2="819.2" spreadMethod="pad" gradientTransform="matrix(-0.0246429443359,0.0246429443359,-0.0118255615234,-0.0118255615234,34.3,66.1)" id="gradient24"><stop offset="0.0" stop-color="#5b3e00"/><stop offset="1.0" stop-color="#534a02"/></linearGradient><linearGradient gradientUnits="userSpaceOnUse" x1="-819.2" x2="819.2" spreadMethod="pad" gradientTransform="matrix(0.0322265625,0.0,0.0,0.0377502441406,50.0,69.55)" id="gradient25"><stop offset="0.0" stop-color="#806000"/><stop offset="1.0" stop-color="#7d7d02"/></linearGradient><linearGradient gradientUnits="userSpaceOnUse" x1="-819.2" x2="819.2" spreadMethod="pad" gradientTransform="matrix(0.0234375,0.0,0.0,0.0093994140625,191.15,70.0)" id="gradient26"><stop offset="0.0" stop-color="#795200"/><stop offset="1.0" stop-color="#766a01"/></linearGradient><linearGradient gradientUnits="userSpaceOnUse" x1="-819.2" x2="819.2" spreadMethod="pad" gradientTransform="matrix(0.0182189941406,0.0,0.0,0.105285644531,137.7,145.55)" id="gradient27"><stop offset="0.0" stop-color="#806000"/><stop offset="1.0" stop-color="#7d7d02"/></linearGradient><linearGradient gradientUnits="userSpaceOnUse" x1="-819.2" x2="819.2" spreadMethod="pad" gradientTransform="matrix(0.0,0.0863952636719,-0.0232238769531,0.0,190.25,174.65)" id="gradient28"><stop offset="0.0" stop-color="#5b3e00"/><stop offset="1.0" stop-color="#534a02"/></linearGradient><linearGradient gradientUnits="userSpaceOnUse" x1="-819.2" x2="819.2" spreadMethod="pad" gradientTransform="matrix(0.00692749023438,0.0,0.0,0.0213317871094,25.2,87.25)" id="gradient29"><stop offset="0.0" stop-color="#ffffff"/><stop offset="1.0" stop-color="#c8d5c4"/></linearGradient><linearGradient gradientUnits="userSpaceOnUse" x1="-819.2" x2="819.2" spreadMethod="pad" gradientTransform="matrix(-0.00642395019531,-0.00642395019531,0.0142211914062,-0.0142211914062,13.25,110.65)" id="gradient30"><stop offset="0.0" stop-color="#537750"/><stop offset="1.0" stop-color="#425a3f"/></linearGradient><linearGradient gradientUnits="userSpaceOnUse" x1="-819.2" x2="819.2" spreadMethod="pad" gradientTransform="matrix(0.030517578125,0.0,0.0,0.0151062011719,108.2,224.6)" id="gradient31"><stop offset="0.0" stop-color="#ffffff"/><stop offset="1.0" stop-color="#c8d5c4"/></linearGradient><linearGradient gradientUnits="userSpaceOnUse" x1="-819.2" x2="819.2" spreadMethod="pad" gradientTransform="matrix(-0.00517272949219,-0.00135803222656,0.00856018066406,-0.0324249267578,120.65,254.9)" id="gradient32"><stop offset="0.0" stop-color="#537750"/><stop offset="1.0" stop-color="#425a3f"/></linearGradient><linearGradient gradientUnits="userSpaceOnUse" x1="-819.2" x2="819.2" spreadMethod="pad" gradientTransform="matrix(0.0313110351562,0.0,0.0,0.0146179199219,189.65,242.05)" id="gradient33"><stop offset="0.0" stop-color="#ffffff"/><stop offset="1.0" stop-color="#c8d5c4"/></linearGradient><linearGradient gradientUnits="userSpaceOnUse" x1="-819.2" x2="819.2" spreadMethod="pad" gradientTransform="matrix(-0.0144195556641,-0.0144195556641,0.021728515625,-0.021728515625,201.35,267.25)" id="gradient34"><stop offset="0.0" stop-color="#537750"/><stop offset="1.0" stop-color="#425a3f"/></linearGradient><g id="c9"><path stroke="none" fill="url(#gradient3)" d="M295.15 11.6 L319.55 13.0 Q340.7 13.75 349.55 23.0 L345.55 35.0 Q338.25 40.0 328.3 44.15 323.7 46.05 318.5 47.75 311.55 50.05 303.55 52.0 L304.55 61.0 295.55 54.0 289.8 56.2 295.15 11.6 M258.25 10.25 L255.8 56.6 195.1 56.6 153.6 61.9 148.05 10.75 158.55 11.0 Q208.4 8.95 258.25 10.25 M62.6 32.0 L71.6 20.0 Q97.35 13.8 122.05 11.75 L125.5 61.4 96.55 58.0 Q82.45 52.95 74.15 47.05 67.5 42.35 64.55 37.1 63.15 34.6 62.6 32.0"/><path stroke="none" fill="url(#gradient4)" d="M349.55 23.0 Q340.7 13.75 319.55 13.0 L295.15 11.6 290.25 11.4 290.8 4.0 311.55 4.0 Q343.45 6.55 355.55 19.0 L355.55 33.0 351.75 53.2 348.0 40.65 335.3 46.85 328.3 44.15 Q338.25 40.0 345.55 35.0 L349.55 23.0 M289.8 56.2 L295.55 54.0 304.55 61.0 217.25 77.4 213.1 77.4 215.45 70.6 Q247.85 68.6 274.7 61.05 282.45 58.85 289.8 56.2 M303.55 52.0 Q311.55 50.05 318.5 47.75 L322.6 53.05 319.65 54.5 309.55 56.0 303.55 52.0 M281.15 4.0 L270.3 10.6 258.25 10.25 Q208.4 8.95 158.55 11.0 L148.05 10.75 Q142.1 10.7 136.05 10.9 L130.35 5.25 164.55 4.0 281.15 4.0 M55.05 36.6 L54.6 34.0 68.6 16.0 Q93.35 9.3 119.1 6.35 L122.05 11.75 Q97.35 13.8 71.6 20.0 L62.6 32.0 Q63.15 34.6 64.55 37.1 L55.05 36.6 M74.15 47.05 Q82.45 52.95 96.55 58.0 L125.5 61.4 137.15 62.75 133.7 68.95 113.65 66.55 Q88.05 64.35 73.3 55.7 L70.15 52.25 74.15 47.05 M160.05 73.8 L151.9 72.0 157.15 65.1 200.55 70.2 196.8 77.4 184.15 77.4 160.05 73.8"/><path stroke="none" fill="url(#gradient5)" d="M295.15 11.6 L289.8 56.2 Q282.45 58.85 274.7 61.05 L261.85 56.6 255.8 56.6 258.25 10.25 270.3 10.6 281.15 4.0 290.8 4.0 290.25 11.4 295.15 11.6 M119.1 6.35 L130.35 5.25 136.05 10.9 Q142.1 10.7 148.05 10.75 L153.6 61.9 142.35 63.35 137.15 62.75 125.5 61.4 122.05 11.75 119.1 6.35"/><path stroke="none" fill="url(#gradient6)" d="M318.5 47.75 Q323.7 46.05 328.3 44.15 L335.3 46.85 348.0 40.65 351.75 53.2 349.55 65.0 354.55 73.0 348.95 85.2 357.55 125.0 350.55 138.0 337.8 144.4 Q322.25 100.5 319.65 54.5 L322.6 53.05 318.5 47.75 M215.45 70.6 L213.1 77.4 217.25 77.4 Q226.0 134.75 222.9 187.35 200.5 189.5 176.9 187.4 L184.15 77.4 196.8 77.4 200.55 70.2 207.55 71.0 215.45 70.6 M151.8 182.85 L107.55 166.0 104.7 163.8 113.65 66.55 133.7 68.95 137.15 62.75 142.35 63.35 157.15 65.1 151.9 72.0 160.05 73.8 Q162.7 134.25 151.8 182.85 M57.35 84.75 L53.6 78.0 60.6 68.0 55.05 36.6 64.55 37.1 Q67.5 42.35 74.15 47.05 L70.15 52.25 73.3 55.7 73.3 69.55 67.9 78.0 61.25 73.2 57.35 84.75 M83.6 114.0 Q105.85 161.55 82.35 135.8 L62.6 81.0 Q64.3 72.8 83.6 114.0"/><path fill="#6c4900" stroke="none" d="M304.55 61.0 L303.55 52.0 309.55 56.0 314.55 83.0 304.55 61.0 M300.25 163.15 L294.9 163.15 292.05 160.5 292.2 153.65 Q297.25 155.2 300.25 163.15 M308.9 123.3 L307.1 113.75 318.4 131.05 315.45 139.95 313.05 136.35 314.85 132.8 308.9 123.3"/><path stroke="none" fill="url(#gradient7)" d="M217.25 77.4 L304.55 61.0 314.55 83.0 309.55 56.0 319.65 54.5 Q322.25 100.5 337.8 144.4 L300.25 163.15 Q297.25 155.2 292.2 153.65 L292.05 160.5 291.9 167.35 272.55 177.0 Q248.5 184.95 222.9 187.35 226.0 134.75 217.25 77.4 M313.05 136.35 L315.45 139.95 318.4 131.05 307.1 113.75 308.9 123.3 310.65 132.8 313.05 136.35"/><path stroke="none" fill="url(#gradient8)" d="M104.7 163.8 L70.6 137.0 62.6 127.0 58.6 87.0 57.35 84.75 61.25 73.2 67.9 78.0 73.3 69.55 73.3 55.7 Q88.05 64.35 113.65 66.55 L104.7 163.8 M83.6 114.0 Q64.3 72.8 62.6 81.0 L82.35 135.8 Q105.85 161.55 83.6 114.0"/><path stroke="none" fill="url(#gradient9)" d="M176.9 187.4 L157.55 185.0 151.8 182.85 Q162.7 134.25 160.05 73.8 L184.15 77.4 176.9 187.4"/><path fill="none" stroke="#000000" stroke-width="0.5" stroke-opacity="0.4" d="M289.8 56.2 L295.55 54.0 304.55 61.0 303.55 52.0 Q311.55 50.05 318.5 47.75 323.7 46.05 328.3 44.15 338.25 40.0 345.55 35.0 L349.55 23.0 M351.75 53.2 L355.55 33.0 355.55 19.0 Q343.45 6.55 311.55 4.0 L290.8 4.0 281.15 4.0 M255.8 56.6 L261.85 56.6 274.7 61.05 Q282.45 58.85 289.8 56.2 M274.7 61.05 Q247.85 68.6 215.45 70.6 L207.55 71.0 200.55 70.2 157.15 65.1 142.35 63.35 137.15 62.75 125.5 61.4 M337.8 144.4 L350.55 138.0 357.55 125.0 348.95 85.2 354.55 73.0 349.55 65.0 351.75 53.2 M337.8 144.4 L300.25 163.15 294.9 163.15 292.05 160.5 291.9 167.35 272.55 177.0 Q248.5 184.95 222.9 187.35 200.5 189.5 176.9 187.4 L157.55 185.0 151.8 182.85 107.55 166.0 104.7 163.8 70.6 137.0 62.6 127.0 58.6 87.0 57.35 84.75 53.6 78.0 60.6 68.0 55.05 36.6 54.6 34.0 68.6 16.0 Q93.35 9.3 119.1 6.35 L130.35 5.25 164.55 4.0 281.15 4.0 M313.05 136.35 L310.65 132.8 308.9 123.3 314.85 132.8 313.05 136.35 M153.6 61.9 L195.1 56.6 255.8 56.6 M62.6 32.0 Q63.15 34.6 64.55 37.1 67.5 42.35 74.15 47.05 82.45 52.95 96.55 58.0 L125.5 61.4 M142.35 63.35 L153.6 61.9"/><path fill="#660000" fill-opacity="0.4" d="M231.75 105.35 Q232.7 106.85 232.65 108.5 232.65 110.45 231.45 112.65 230.15 115.05 228.65 115.05 226.85 115.05 224.75 109.95 222.95 105.65 222.95 104.45 222.95 103.55 223.1 102.65 L224.75 102.35 Q229.85 102.35 231.75 105.35 M228.8 107.4 L228.95 110.4 Q229.6 109.95 229.55 108.95 229.45 107.95 228.8 107.25 L228.8 107.4 M268.05 109.65 L266.6 110.25 Q264.45 109.0 262.7 107.05 260.9 104.95 260.9 103.5 260.9 101.75 261.55 99.2 262.25 96.35 263.0 96.35 265.9 96.35 267.55 99.2 268.8 101.45 268.8 103.95 268.8 105.45 268.05 109.65 M289.2 112.35 Q292.1 109.05 293.1 109.05 296.85 109.05 298.85 113.3 298.85 114.25 294.85 119.4 290.75 124.65 289.8 124.65 287.8 124.65 286.8 121.1 L286.2 117.35 Q286.2 115.75 289.2 112.35 M316.95 88.5 L316.95 94.4 315.45 95.15 Q313.95 94.1 313.95 91.2 313.95 88.45 315.45 87.3 316.4 87.7 316.95 88.5 M266.0 150.15 Q264.25 150.15 263.15 151.5 262.25 152.6 262.25 153.95 262.25 154.85 264.1 158.0 266.35 161.85 268.5 161.85 272.25 161.85 272.25 157.35 269.9 150.15 266.0 150.15 M335.1 107.95 Q336.8 101.0 339.95 96.2 341.25 111.75 350.4 111.75 352.7 111.75 354.25 109.7 L357.55 125.0 350.55 138.0 300.25 163.15 294.9 163.15 292.05 160.5 291.9 167.35 284.9 170.85 Q283.95 169.95 282.3 169.95 272.45 169.95 268.05 177.7 L267.6 178.6 Q245.85 185.2 222.9 187.35 200.5 189.5 176.9 187.4 L157.55 185.0 107.55 166.0 94.0 155.35 94.5 150.2 Q94.85 148.1 94.5 146.15 93.75 142.25 90.15 142.25 86.9 142.25 86.2 149.25 L70.6 137.0 62.6 127.0 59.15 92.4 60.7 96.95 Q62.85 100.85 67.55 100.85 L69.7 100.6 Q73.15 99.7 73.65 95.6 L73.5 93.55 73.25 89.1 73.55 86.85 Q95.1 122.55 97.95 122.55 102.55 122.55 103.7 118.2 104.0 117.05 104.0 112.8 L102.8 97.65 Q102.8 95.65 104.05 94.0 104.2 100.3 106.4 103.95 L109.8 108.7 116.55 117.15 Q118.1 119.15 122.05 130.65 123.75 134.7 125.5 137.2 L126.0 138.4 Q127.45 141.1 130.9 141.2 L131.1 141.2 Q133.45 141.2 135.0 139.9 140.95 138.95 159.35 131.5 L160.8 130.9 Q159.95 136.05 160.5 140.75 161.65 150.3 169.05 150.3 173.65 150.3 176.3 144.75 L179.3 137.75 180.25 136.9 Q183.5 134.2 189.95 132.5 194.3 131.35 197.65 130.0 198.2 133.0 199.05 135.65 202.65 146.7 209.4 146.7 214.85 146.7 215.55 142.15 215.35 137.0 215.85 135.65 216.9 132.8 222.7 127.35 L227.0 123.45 227.25 123.25 227.65 124.8 Q229.45 131.15 231.6 136.45 238.45 153.3 245.85 153.3 249.3 153.3 250.95 150.9 252.15 149.25 252.15 147.3 250.95 138.35 250.95 136.85 250.95 131.9 251.7 130.05 252.5 128.05 255.35 126.7 258.65 125.1 259.4 124.2 L260.7 129.85 Q262.8 135.2 267.2 135.2 270.8 135.2 273.15 130.5 L275.45 131.75 276.85 134.85 Q280.6 142.25 283.45 144.15 285.1 146.7 288.6 146.7 294.35 146.7 297.3 134.1 L297.7 131.7 299.75 132.15 Q305.55 132.15 306.2 125.55 306.45 123.5 306.1 120.8 L306.0 120.05 308.95 123.65 310.65 132.8 313.05 136.35 314.85 132.8 309.5 124.3 Q315.55 131.25 318.25 131.55 L318.45 131.55 Q320.5 131.55 322.0 130.4 323.4 131.55 325.65 131.55 329.1 131.55 330.75 128.1 L331.7 125.45 332.95 119.4 Q334.3 110.95 335.1 107.95 M76.35 69.9 Q78.2 69.9 79.1 71.55 80.85 72.85 80.85 73.35 80.85 74.85 79.85 76.7 L79.65 78.95 79.5 85.05 Q79.65 85.5 78.15 85.5 76.45 85.5 74.05 79.8 72.75 79.15 71.95 77.1 L71.15 73.95 Q71.15 72.55 72.5 71.25 73.9 69.9 75.65 69.9 L76.0 69.95 76.35 69.9 M91.05 85.5 Q91.85 85.5 94.05 90.95 94.05 92.75 92.55 94.4 90.85 96.35 88.35 96.35 L86.4 96.05 Q86.25 95.15 86.25 93.5 86.25 92.0 88.05 88.8 89.9 85.5 91.05 85.5 M69.35 80.7 L68.75 90.15 Q68.45 90.9 66.95 90.9 65.45 90.9 64.55 88.8 63.95 87.4 63.95 86.55 L64.7 78.0 66.35 77.7 Q69.2 77.7 69.35 80.7 M166.95 112.25 L166.8 112.95 166.6 113.55 Q166.4 113.85 165.45 113.85 164.7 113.85 163.35 110.4 162.15 107.3 162.15 106.7 162.15 105.6 162.35 105.45 L163.65 105.35 Q166.05 105.35 166.95 112.25 M172.35 129.95 Q172.35 131.45 171.0 136.1 L169.65 136.7 Q168.15 135.9 168.15 132.95 168.15 131.5 169.05 129.6 170.0 127.65 170.85 127.65 172.35 127.65 172.35 129.95 M159.45 156.75 Q155.7 156.75 155.7 160.8 155.7 164.85 159.45 164.85 163.2 164.85 163.2 160.8 163.2 156.75 159.45 156.75"/><path stroke="none" fill="url(#gradient10)" d="M392.25 93.0 L372.0 109.15 370.4 111.4 Q346.35 91.0 332.2 45.15 346.2 42.3 354.0 25.0 364.2 66.85 393.1 92.1 L392.25 93.0"/><path fill="#859c83" stroke="none" d="M392.25 93.0 L393.2 92.2 393.1 92.1 396.4 90.2 428.0 124.2 409.2 149.4 372.0 109.15 392.25 93.0 M199.5 301.0 Q178.65 296.4 159.7 280.55 163.95 260.15 164.0 234.9 L204.1 254.05 199.5 301.0 M112.0 281.0 Q91.7 275.25 74.4 259.0 80.7 240.05 83.2 216.2 L121.2 237.0 112.0 281.0 M0.0 120.6 L0.0 94.6 19.55 70.35 21.2 96.2 0.0 120.6"/><path stroke="none" fill="url(#gradient11)" d="M255.2 4.45 Q256.7 0.25 261.2 0.6 272.35 2.7 284.45 0.6 283.15 1.2 282.0 2.5 279.4 5.1 279.9 8.7 266.35 12.2 255.2 4.45"/><path stroke="none" fill="url(#gradient12)" d="M279.75 59.95 Q264.1 64.95 252.8 66.2 256.95 40.35 255.65 11.9 L255.2 4.45 Q266.35 12.2 279.9 8.7 L280.15 11.9 Q281.95 38.35 279.75 59.95"/><path stroke="none" fill="url(#gradient13)" d="M284.45 0.6 Q286.9 -0.6 289.85 0.85 L293.15 4.2 289.2 4.2 Q285.9 3.65 283.8 8.7 L284.0 11.9 Q285.3 36.4 283.8 58.75 L279.75 59.95 Q281.95 38.35 280.15 11.9 L279.9 8.7 Q279.4 5.1 282.0 2.5 283.15 1.2 284.45 0.6"/><path stroke="none" fill="url(#gradient14)" d="M210.35 65.5 Q212.9 64.6 215.75 66.3 L217.5 71.05 214.7 70.8 Q210.35 69.3 209.4 77.5 219.0 148.05 210.2 240.7 L209.8 245.0 205.15 248.45 Q213.7 153.5 204.4 77.95 204.4 75.85 204.7 74.1 205.45 69.3 208.15 66.8 209.2 65.9 210.35 65.5"/><path stroke="none" fill="url(#gradient15)" d="M324.5 39.15 Q339.1 35.1 345.2 23.8 349.5 20.25 354.0 25.0 346.2 42.3 332.2 45.15 L331.2 41.8 Q328.4 38.5 324.5 39.15"/><path stroke="none" fill="url(#gradient16)" d="M366.1 117.45 Q338.8 90.1 327.6 49.4 322.7 44.85 319.2 47.4 L315.6 49.4 Q314.55 45.6 318.8 41.8 321.9 39.6 324.5 39.15 328.4 38.5 331.2 41.8 L332.2 45.15 Q346.35 91.0 370.4 111.4 L366.1 117.45"/><path stroke="none" fill="url(#gradient17)" d="M372.0 109.15 L409.2 149.4 398.4 156.2 364.4 119.8 366.1 117.45 370.4 111.4 372.0 109.15"/><path stroke="none" fill="url(#gradient18)" d="M164.25 4.55 L163.7 11.9 Q161.9 39.85 164.25 66.85 L152.65 65.25 151.4 60.6 Q148.75 58.85 146.1 59.5 L134.1 59.0 Q131.05 37.4 131.9 11.9 L132.05 7.25 Q149.25 14.65 164.25 4.55"/><path stroke="none" fill="url(#gradient19)" d="M126.2 1.4 Q142.9 3.85 158.55 0.0 161.4 -0.05 164.25 4.55 149.25 14.65 132.05 7.25 129.15 2.2 126.2 1.4"/><path stroke="none" fill="url(#gradient20)" d="M129.0 58.35 Q126.45 35.65 127.5 11.9 L127.5 11.15 Q124.7 6.35 120.9 6.65 L116.4 7.85 Q117.9 4.25 122.85 1.8 123.9 1.25 124.95 1.25 L125.1 1.25 125.15 1.25 126.2 1.4 Q129.15 2.2 132.05 7.25 L131.9 11.9 Q131.05 37.4 134.1 59.0 L129.0 58.35"/><path stroke="none" fill="url(#gradient21)" d="M107.55 60.6 Q108.1 54.05 112.4 54.2 120.7 57.0 129.0 58.35 L134.1 59.0 146.1 59.5 Q144.95 59.8 143.75 60.6 139.8 63.55 138.95 70.85 122.2 73.1 107.55 60.6"/><path stroke="none" fill="url(#gradient22)" d="M91.35 212.25 Q105.8 149.8 107.6 66.2 107.3 62.95 107.55 60.6 122.2 73.1 138.95 70.85 140.75 142.8 122.8 231.8 L90.4 216.2 91.35 212.25"/><path stroke="none" fill="url(#gradient23)" d="M62.0 42.2 Q53.8 39.9 54.1 27.0 57.15 23.15 62.0 23.8 L68.8 26.2 Q67.85 34.6 74.0 40.6 68.0 36.0 62.0 42.2"/><path stroke="none" fill="url(#gradient24)" d="M54.1 27.0 Q53.8 39.9 62.0 42.2 46.3 72.7 23.6 96.2 L21.6 74.2 24.1 71.5 Q40.85 52.6 52.4 29.8 53.15 28.2 54.1 27.0"/><path stroke="none" fill="url(#gradient25)" d="M62.0 42.2 Q68.0 36.0 74.0 40.6 77.35 45.2 76.0 48.2 L70.8 45.8 Q67.25 43.0 62.4 48.2 49.4 75.1 30.9 97.6 L28.45 100.5 23.6 96.2 Q46.3 72.7 62.0 42.2"/><path stroke="none" fill="url(#gradient26)" d="M172.65 75.3 Q170.25 62.5 176.15 62.3 193.55 67.05 210.35 65.5 209.2 65.9 208.15 66.8 205.45 69.3 204.7 74.1 191.05 80.65 172.65 75.3"/><path stroke="none" fill="url(#gradient27)" d="M152.65 65.25 L149.9 64.8 Q145.75 63.1 143.95 70.75 146.5 137.95 128.6 224.8 L127.75 228.85 122.8 231.8 Q140.75 142.8 138.95 70.85 139.8 63.55 143.75 60.6 144.95 59.8 146.1 59.5 148.75 58.85 151.4 60.6 L152.65 65.25"/><path stroke="none" fill="url(#gradient28)" d="M171.7 230.1 Q179.6 163.4 172.65 75.3 191.05 80.65 204.7 74.1 204.4 75.85 204.4 77.95 213.7 153.5 205.15 248.45 L171.2 234.35 171.7 230.1"/><path stroke="none" fill="url(#gradient29)" d="M24.1 71.5 L21.6 74.2 23.6 96.2 28.45 100.5 30.9 97.6 30.7 104.75 21.2 96.2 19.55 70.35 20.0 69.8 24.1 71.5 M28.0 101.0 L28.45 100.5 28.0 101.0"/><path stroke="none" fill="url(#gradient30)" d="M30.7 104.75 L11.6 129.4 0.0 120.6 21.2 96.2 30.7 104.75"/><path stroke="none" fill="url(#gradient31)" d="M128.6 224.8 L133.2 229.8 121.2 237.0 83.2 216.2 91.35 212.25 90.4 216.2 122.8 231.8 127.75 228.85 128.6 224.8"/><path stroke="none" fill="url(#gradient32)" d="M133.2 229.8 L124.0 274.6 112.0 281.0 121.2 237.0 133.2 229.8"/><path stroke="none" fill="url(#gradient33)" d="M210.2 240.7 L215.3 245.6 204.1 254.05 164.0 234.9 171.7 230.1 171.2 234.35 205.15 248.45 209.8 245.0 210.2 240.7"/><path stroke="none" fill="url(#gradient34)" d="M215.3 245.6 L210.85 293.4 199.5 301.0 204.1 254.05 215.3 245.6"/><path fill="none" stroke="#000000" stroke-width="0.5" stroke-opacity="0.4" d="M409.2 149.4 L428.0 124.2 396.4 90.2 393.1 92.1 393.2 92.2 392.25 93.0 372.0 109.15 M409.2 149.4 L398.4 156.2 364.4 119.8 366.1 117.45 Q338.8 90.1 327.6 49.4 322.7 44.85 319.2 47.4 L315.6 49.4 Q314.55 45.6 318.8 41.8 321.9 39.6 324.5 39.15 339.1 35.1 345.2 23.8 349.5 20.25 354.0 25.0 364.2 66.85 393.1 92.1 L392.25 93.0 M255.2 4.45 Q256.7 0.25 261.2 0.6 272.35 2.7 284.45 0.6 286.9 -0.6 289.85 0.85 L293.15 4.2 289.2 4.2 Q285.9 3.65 283.8 8.7 L284.0 11.9 Q285.3 36.4 283.8 58.75 L279.75 59.95 Q264.1 64.95 252.8 66.2 256.95 40.35 255.65 11.9 L255.2 4.45 M210.35 65.5 Q212.9 64.6 215.75 66.3 L217.5 71.05 214.7 70.8 Q210.35 69.3 209.4 77.5 219.0 148.05 210.2 240.7 L215.3 245.6 210.85 293.4 199.5 301.0 Q178.65 296.4 159.7 280.55 163.95 260.15 164.0 234.9 L171.7 230.1 Q179.6 163.4 172.65 75.3 170.25 62.5 176.15 62.3 193.55 67.05 210.35 65.5 M205.15 248.45 L209.8 245.0 210.2 240.7 M366.1 117.45 L370.4 111.4 372.0 109.15 M126.2 1.4 Q142.9 3.85 158.55 0.0 161.4 -0.05 164.25 4.55 L163.7 11.9 Q161.9 39.85 164.25 66.85 L152.65 65.25 149.9 64.8 Q145.75 63.1 143.95 70.75 146.5 137.95 128.6 224.8 L133.2 229.8 124.0 274.6 112.0 281.0 Q91.7 275.25 74.4 259.0 80.7 240.05 83.2 216.2 L91.35 212.25 Q105.8 149.8 107.6 66.2 107.3 62.95 107.55 60.6 108.1 54.05 112.4 54.2 120.7 57.0 129.0 58.35 126.45 35.65 127.5 11.9 L127.5 11.15 Q124.7 6.35 120.9 6.65 L116.4 7.85 Q117.9 4.25 122.85 1.8 123.9 1.25 124.95 1.25 L125.1 1.25 125.15 1.25 126.2 1.4 M74.0 40.6 Q67.85 34.6 68.8 26.2 L62.0 23.8 Q57.15 23.15 54.1 27.0 53.15 28.2 52.4 29.8 40.85 52.6 24.1 71.5 L21.6 74.2 23.6 96.2 M30.9 97.6 Q49.4 75.1 62.4 48.2 67.25 43.0 70.8 45.8 L76.0 48.2 Q77.35 45.2 74.0 40.6 M152.65 65.25 L151.4 60.6 Q148.75 58.85 146.1 59.5 L134.1 59.0 129.0 58.35 M122.8 231.8 L127.75 228.85 128.6 224.8 M19.55 70.35 L20.0 69.8 24.1 71.5 M30.9 97.6 L30.7 104.75 11.6 129.4 0.0 120.6 0.0 94.6 19.55 70.35 M30.9 97.6 L28.45 100.5 28.0 101.0 M28.45 100.5 L23.6 96.2 M91.35 212.25 L90.4 216.2 122.8 231.8 M205.15 248.45 L171.2 234.35 171.7 230.1"/><path fill="#660000" fill-opacity="0.2" d="M177.75 265.95 Q179.3 265.95 180.4 264.8 181.25 263.85 181.4 262.8 L182.25 268.4 Q184.85 279.9 189.65 279.9 190.85 279.9 192.0 279.15 193.55 278.1 193.55 276.35 193.55 275.55 190.75 265.8 192.5 267.35 194.7 267.9 194.45 268.3 194.45 268.65 194.45 269.5 195.3 270.15 197.2 271.55 198.35 272.7 195.6 276.25 195.6 280.05 195.6 283.95 199.2 283.95 200.2 283.95 201.25 283.0 203.2 281.2 205.5 276.25 L207.05 272.7 208.5 272.9 Q211.8 272.9 212.55 269.45 L212.7 265.25 Q213.4 261.1 212.05 259.4 213.0 259.0 214.1 258.7 L210.85 293.4 199.5 301.0 Q192.5 299.45 185.7 296.65 L186.3 296.25 Q191.85 292.75 191.85 290.85 191.45 287.15 188.25 287.15 186.2 287.15 185.25 286.55 L184.45 286.2 Q184.85 285.1 184.85 284.1 184.85 280.2 181.25 280.2 178.65 280.2 176.35 284.3 L175.2 286.55 Q172.7 286.75 172.05 289.55 167.95 287.0 164.0 284.0 163.75 280.2 160.35 280.2 L159.75 280.25 Q162.35 267.85 163.35 253.65 164.9 253.45 169.1 251.95 L170.4 258.3 Q172.85 265.95 177.75 265.95 M178.6 255.0 L180.05 254.7 181.25 261.85 178.6 255.0 M104.25 277.7 Q105.5 278.2 106.25 279.15 102.05 277.6 98.0 275.6 L104.25 277.7 M100.9 250.35 L100.5 253.35 Q100.5 257.25 104.1 257.25 107.9 257.25 110.55 241.55 113.5 244.25 117.45 245.35 117.3 248.95 117.3 252.65 L117.45 255.0 117.45 255.3 Q118.15 257.85 120.95 257.85 124.5 257.85 125.15 246.95 L125.15 245.9 Q127.5 245.2 130.6 242.65 L124.0 274.6 119.2 277.2 Q117.15 272.1 115.2 272.1 L113.85 272.35 Q112.75 272.7 112.2 273.7 L111.35 272.9 Q107.05 269.15 99.75 269.15 98.5 269.15 97.35 269.95 95.85 270.95 95.85 272.7 95.85 274.35 97.25 275.25 85.25 269.15 74.4 259.0 78.85 245.6 81.4 229.8 82.9 231.8 84.95 232.7 87.05 247.3 89.55 248.95 L89.55 249.3 Q89.55 253.2 93.15 253.2 96.85 253.2 100.9 250.35 M6.7 117.3 L6.85 116.65 8.25 111.15 8.6 109.35 Q8.3 105.65 4.95 105.65 2.45 105.65 0.0 112.95 L0.0 94.6 12.1 79.6 12.75 80.45 14.2 82.45 13.9 83.35 11.3 87.25 Q8.3 91.7 8.3 93.2 8.3 95.1 8.6 95.65 9.45 97.2 12.95 97.95 L13.05 98.45 11.95 100.6 Q9.6 104.95 9.6 108.3 L9.65 109.5 9.7 110.0 Q9.95 111.85 10.65 113.3 12.65 117.7 17.75 117.95 L19.25 119.5 11.6 129.4 6.55 125.6 6.6 125.55 Q10.35 122.7 10.35 120.95 10.35 117.4 6.7 117.3 M404.15 143.9 L404.1 143.75 Q404.1 142.8 404.2 142.85 L404.25 143.1 Q404.65 143.65 405.05 144.9 L405.85 148.3 Q406.35 149.75 407.25 150.65 L405.25 151.9 404.85 151.3 Q405.8 150.25 405.8 148.1 404.25 144.75 404.15 143.9 M427.45 123.6 L428.0 124.2 422.75 131.3 421.0 129.6 423.9 127.5 Q426.55 125.25 427.45 123.6 M374.7 127.75 L374.85 127.9 379.7 132.45 Q380.95 133.9 381.65 137.5 L381.85 138.5 372.75 128.75 374.7 127.75 M387.0 118.7 L390.95 111.8 Q395.6 113.9 398.7 113.9 402.85 113.9 405.15 111.15 407.9 113.45 410.85 113.45 414.0 113.45 414.45 110.7 L415.75 111.0 423.0 118.85 Q421.35 119.75 418.1 122.7 L415.8 124.85 Q411.65 121.35 410.3 121.35 408.6 121.35 407.55 122.6 406.65 123.7 406.65 125.0 L412.4 132.7 Q411.15 133.3 410.75 134.8 410.4 137.65 409.7 138.3 405.05 135.2 402.15 135.2 400.25 135.2 399.0 136.5 L398.3 134.65 Q395.1 126.5 391.2 126.5 389.6 126.5 388.7 127.25 387.6 128.1 387.6 130.1 L389.85 136.25 Q392.5 143.15 395.25 149.25 L398.55 156.15 398.5 156.2 389.7 139.4 Q386.7 131.65 384.45 127.2 383.3 124.9 382.05 123.25 L383.85 121.95 Q386.25 120.05 387.0 118.7"/></g><g id="c10"><g><use transform="matrix(1.0,0.0,0.0,1.0,0.0,0.0)" xlink:href="#c9"/></g></g><g id="c11"><g><use transform="matrix(1.0,0.0,0.0,1.0,0.0,0.0)" xlink:href="#c2"/></g><g><use transform="matrix(0.238861083984,-0.0867004394531,0.10026550293,0.233917236328,34.25,31.15)" xlink:href="#c4"/></g><g><use transform="matrix(0.238861083984,-0.0867004394531,0.10026550293,0.233917236328,4.25,10.3)" xlink:href="#c4"/></g><g><use transform="matrix(0.141098022461,-0.0378112792969,0.111373901367,0.225646972656,20.25,20.65)" filter="url(#filter8)" xlink:href="#c6"/></g><g><use transform="matrix(-0.155029296875,0.0513153076172,0.0841827392578,0.147033691406,22.6,2.3)" filter="url(#filter9)" xlink:href="#c8"/></g><g><use transform="matrix(-0.0423278808594,0.016845703125,0.016845703125,0.0423278808594,28.3,12.75)" xlink:href="#c10"/></g><g><use transform="matrix(0.162948608398,-0.0436706542969,0.128631591797,0.260604858398,20.35,20.95)" filter="url(#filter11)" xlink:href="#c6"/></g></g><filter id="filter8"><feColorMatrix in="SourceGraphic" type="matrix" values="0.0 0.0 0.0 0.0 0.796875 0.0 0.0 0.0 0.0 0.59765625 0.0 0.0 0.0 0.0 0.19921875 0.0 0.0 0.0 1.0 0.0" result="cxform"/><feComposite operator="in" in2="SourceGraphic" result="color-xform"/></filter><filter id="filter9"><feColorMatrix in="SourceGraphic" type="matrix" values="0.0 0.0 0.0 0.0 0.99609375 0.0 0.0 0.0 0.0 0.99609375 0.0 0.0 0.0 0.0 0.99609375 0.0 0.0 0.0 1.0 0.0" result="cxform"/><feComposite operator="in" in2="SourceGraphic" result="color-xform"/></filter><filter id="filter11"><feColorMatrix in="SourceGraphic" type="matrix" values="1.0 0.0 0.0 0.0 0.0 0.0 1.0 0.0 0.0 0.0 0.0 0.0 1.0 0.0 0.0 0.0 0.0 0.0 0.23046875 0.0" result="cxform"/><feComposite operator="in" in2="SourceGraphic" result="color-xform"/></filter></defs><g><g><use transform="matrix(1.0,0.0,0.0,1.0,0.0,0.0)" xlink:href="#c1"/></g><g><use transform="matrix(1.15496826172,0.0,0.0,1.15496826172,5.85,3.95)" xlink:href="#c11"/></g></g></svg>