<?xml version='1.0' encoding='UTF-8'?>
<svg xmlns:xlink="http://www.w3.org/1999/xlink" xmlns="http://www.w3.org/2000/svg" version="1.1" width="60px" height="60px" viewBox="0.0 0.0 60.0 60.0"><defs><g id="c1"><path fill="#000000" fill-opacity="0.00392156862745" d="M0.0 0.0 L60.0 0.0 60.0 60.0 0.0 60.0 0.0 0.0"/></g><g id="c2"><path fill="none" stroke="#000000" stroke-width="1.0" stroke-opacity="0.301960784314" d="M22.3 0.35 Q26.6 -1.0 28.5 3.05 L41.4 31.7 Q43.1 35.4 39.9 36.85 L38.15 37.65 19.65 43.65 Q17.05 44.5 15.35 43.3 14.2 42.55 13.5 40.9 L0.55 12.25 Q-0.6 9.75 0.6 8.25 1.15 7.55 2.2 7.05 2.85 6.6 3.8 6.3 L22.3 0.35"/><path fill="#300525" stroke="none" d="M25.55 0.9 Q26.9 1.6 27.8 3.55 L40.7 32.15 Q42.6 36.3 38.3 37.65 L23.3 42.5 13.15 21.4 4.6 20.9 0.7 12.25 Q-0.45 9.75 0.75 8.25 L29.8 9.75 25.55 0.9 M20.1 43.55 L19.8 43.65 Q17.15 44.45 15.5 43.3 L20.1 43.55"/><path fill="#630a4c" stroke="none" d="M23.3 42.5 L20.1 43.55 15.5 43.3 Q14.35 42.55 13.65 40.9 L4.6 20.9 13.15 21.4 23.3 42.5 M0.75 8.25 Q1.45 7.3 3.1 6.75 L21.65 0.8 25.55 0.9 29.8 9.75 0.75 8.25"/><path fill="none" stroke="#000000" stroke-width="0.5" stroke-opacity="0.301960784314" d="M25.55 0.9 Q26.9 1.6 27.8 3.55 L40.7 32.15 Q42.6 36.3 38.3 37.65 L23.3 42.5 20.1 43.55 19.8 43.65 Q17.15 44.45 15.5 43.3 14.35 42.55 13.65 40.9 L4.6 20.9 0.7 12.25 Q-0.45 9.75 0.75 8.25 1.45 7.3 3.1 6.75 L21.65 0.8 25.55 0.9"/><path fill="#9d147b" stroke="none" d="M14.2 40.5 L1.35 11.8 Q-0.5 7.75 3.8 6.35 L22.3 0.4 Q26.55 -1.0 28.45 3.1 L41.35 31.7 Q43.25 35.85 38.9 37.25 L20.4 43.2 Q16.1 44.55 14.2 40.5"/><path fill="none" stroke="#000000" stroke-width="0.5" stroke-opacity="0.301960784314" d="M14.2 40.5 L1.35 11.8 Q-0.5 7.75 3.8 6.35 L22.3 0.4 Q26.55 -1.0 28.45 3.1 L41.35 31.7 Q43.25 35.85 38.9 37.25 L20.4 43.2 Q16.1 44.55 14.2 40.5"/><path fill="#fcf2cf" stroke="none" d="M9.15 13.6 Q9.8 12.8 9.55 11.6 L9.1 10.55 22.05 6.35 Q24.9 5.45 26.25 7.85 L26.5 8.3 35.8 29.0 35.95 29.35 Q34.75 29.3 34.1 30.1 33.45 30.9 33.7 32.1 L34.0 32.9 20.65 37.2 Q18.8 37.8 17.65 37.0 16.8 36.4 16.3 35.2 L6.95 14.6 6.8 14.4 7.1 14.4 Q8.4 14.45 9.15 13.6"/><path fill="#c47fad" stroke="none" d="M8.25 23.65 L3.35 12.8 Q1.65 9.1 5.5 7.85 L22.25 2.5 Q26.05 1.25 27.75 4.95 L28.25 6.1 35.55 22.3 39.35 30.75 Q41.1 34.5 37.2 35.7 L20.45 41.1 Q16.8 42.25 15.2 39.0 L15.0 38.6 8.25 23.65 M9.15 13.6 Q8.4 14.45 7.1 14.4 L6.8 14.4 6.95 14.6 16.3 35.2 Q16.8 36.4 17.65 37.0 18.8 37.8 20.65 37.2 L34.0 32.9 33.7 32.1 Q33.45 30.9 34.1 30.1 34.75 29.3 35.95 29.35 L35.8 29.0 26.5 8.3 26.25 7.85 Q24.9 5.45 22.05 6.35 L9.1 10.55 9.55 11.6 Q9.8 12.8 9.15 13.6"/><path fill="none" stroke="#ffcc00" stroke-width="1.0" stroke-opacity="0.749019607843" d="M8.25 23.65 L3.35 12.8 Q1.65 9.1 5.5 7.85 L22.25 2.5 Q26.05 1.25 27.75 4.95 L28.25 6.1 M35.55 22.3 L39.35 30.75 Q41.1 34.5 37.2 35.7 L20.45 41.1 Q16.8 42.25 15.2 39.0 L15.0 38.6"/><path fill="none" stroke="#bf9900" stroke-width="1.0" stroke-opacity="0.749019607843" d="M28.25 6.1 L35.55 22.3 M15.0 38.6 L8.25 23.65"/><path fill="none" stroke="#f0b92b" stroke-width="0.5" d="M9.15 13.6 Q9.8 12.8 9.55 11.6 L9.1 10.55 22.05 6.35 Q24.9 5.45 26.25 7.85 L26.5 8.3 35.8 29.0 35.95 29.35 Q34.75 29.3 34.1 30.1 33.45 30.9 33.7 32.1 L34.0 32.9 20.65 37.2 Q18.8 37.8 17.65 37.0 16.8 36.4 16.3 35.2 L6.95 14.6 6.8 14.4 7.1 14.4 Q8.4 14.45 9.15 13.6"/></g><g id="c3"><path fill="#7fdbfe" stroke="none" d="M10.75 4.9 Q10.75 4.6 10.9 4.35 11.25 3.45 11.95 2.75 13.3 1.5 14.35 2.1 15.4 2.7 14.95 4.45 14.7 5.4 14.1 6.15 L13.75 6.5 Q13.1 7.15 12.35 7.35 L11.4 7.2 Q10.95 6.9 10.75 6.4 10.5 5.75 10.75 4.9 M7.5 5.9 Q7.0 5.85 6.6 5.5 6.05 5.0 5.8 4.15 L5.7 3.6 Q5.55 2.65 5.8 1.7 6.25 0.0 7.5 0.0 L7.6 0.0 Q8.85 0.0 9.3 1.7 9.55 2.65 9.4 3.6 L9.3 4.15 8.5 5.5 7.6 5.9 7.5 5.9 M4.35 4.9 Q4.6 5.75 4.35 6.4 L3.7 7.2 2.75 7.35 Q2.0 7.15 1.35 6.5 L1.0 6.15 Q0.4 5.4 0.15 4.45 -0.3 2.7 0.75 2.1 1.8 1.5 3.15 2.75 3.85 3.45 4.2 4.35 L4.35 4.9 M5.5 13.7 Q4.45 13.9 3.65 12.95 2.75 12.0 3.2 10.25 3.7 8.5 5.25 7.6 6.4 6.9 7.55 7.0 8.75 6.9 9.9 7.6 11.45 8.5 11.95 10.25 12.35 12.0 11.5 12.95 10.7 13.9 9.65 13.7 8.55 13.5 7.55 12.6 6.55 13.5 5.5 13.7"/></g><g id="c4"><g><use transform="matrix(1.0,0.0,0.0,1.0,0.0,0.0)" xlink:href="#c3"/></g></g><radialGradient gradientUnits="userSpaceOnUse" r="819.2" cx="0" cy="0" spreadMethod="pad" gradientTransform="matrix(0.0914459228516,0.0,0.0,0.0914459228516,0.6,3.4)" id="gradient1"><stop offset="0.0" stop-color="#ffffff"/><stop offset="1.0" stop-color="#ffffff" stop-opacity="0.0"/></radialGradient><g id="c5"><path stroke="none" fill="url(#gradient1)" d="M36.65 -54.65 Q60.05 -42.0 69.75 -17.95 80.55 8.9 68.0 34.1 55.45 59.35 26.8 68.2 -1.8 77.05 -29.7 64.3 -57.6 51.6 -68.45 24.75 -79.3 -2.05 -66.75 -27.25 L-66.7 -27.3 Q-54.1 -52.5 -25.5 -61.4 3.1 -70.2 31.0 -57.5 L36.65 -54.65"/></g><g id="c6"><g><use transform="matrix(1.0,0.0,0.0,1.0,0.0,0.0)" xlink:href="#c5"/></g></g><radialGradient gradientUnits="userSpaceOnUse" r="819.2" cx="0" cy="0" spreadMethod="pad" gradientTransform="matrix(0.209197998047,0.0,0.0,0.177108764648,67.15,107.2)" id="gradient2"><stop offset="0.356862745098" stop-color="#ffffff"/><stop offset="0.670588235294" stop-opacity="0.0"/></radialGradient><g id="c7"><path fill="none" stroke-linejoin="round" stroke-linecap="round" stroke="url(#gradient2)" stroke-width="0.5" d="M136.55 165.8 L68.6 106.0 68.4 106.0 118.25 201.5 M68.2 105.7 L68.25 105.8 68.25 105.75 68.2 105.7 0.0 45.7 M68.25 105.8 L68.3 105.85 68.3 105.8 68.25 105.75 49.95 0.05 M0.05 97.7 L68.15 105.95 68.25 105.85 68.25 105.8 M68.3 105.85 L68.25 105.85 68.3 106.0 68.3 105.85 68.3 105.8 68.35 105.8 68.3 105.8 86.6 18.35 M50.0 193.2 L68.3 106.0 68.15 105.95 18.25 151.55 M68.4 106.0 L68.3 106.0 86.55 211.5 M68.4 106.0 L68.3 105.85 M68.6 106.0 L68.35 105.8 118.25 60.15 M136.6 114.25 L68.6 106.0 M68.2 105.7 L18.25 10.05"/></g><g id="c8"><g><use transform="matrix(1.0,0.0,0.0,1.0,0.0,0.0)" xlink:href="#c7"/></g></g><g id="c9"><path fill="#656038" stroke="none" d="M12.35 -11.6 L12.45 -11.55 12.4 -7.8 9.65 -3.4 7.85 -1.7 10.65 -5.9 10.75 -6.3 10.7 -6.05 11.9 -8.05 12.1 -11.9 12.15 -11.75 12.35 -11.6 M-1.55 -12.95 L-1.45 -12.85 -1.55 -12.45 -1.55 -12.95 M0.95 -13.25 L1.2 -13.1 1.2 -12.95 0.95 -12.9 0.95 -13.25 M2.3 -13.15 L2.65 -12.8 2.65 -12.55 2.7 -11.75 3.1 -11.75 3.25 -11.8 2.9 -3.7 2.3 -13.15 M5.6 -14.15 L6.0 -13.7 6.0 -13.5 5.9 -11.85 5.65 12.6 5.6 13.0 5.25 13.25 5.35 0.5 5.6 -14.15 M7.3 -11.95 L7.8 -11.65 7.65 -10.75 7.3 -11.95 M11.55 6.15 L11.05 6.15 11.35 -5.05 11.85 -4.9 11.9 -4.9 11.65 5.25 11.65 5.5 11.55 6.15 M-1.5 1.15 L-1.3 2.3 -1.35 3.65 -1.7 0.9 -1.75 0.6 -2.0 -1.1 -2.2 -2.4 -2.55 -3.75 -2.95 -5.35 -3.0 -5.55 -2.6 -5.1 -2.6 -4.85 -2.1 -2.7 -2.15 -2.7 -1.55 1.1 -1.5 1.15 M-3.75 -8.45 L-3.45 -7.4 -3.95 -8.55 -3.75 -8.45"/><path fill="#729292" stroke="none" d="M9.65 -3.4 L12.4 -7.8 12.45 -11.55 12.35 -11.6 12.9 -11.6 12.75 -7.9 10.8 -4.75 10.5 -4.2 9.65 -3.4 M2.65 -12.55 L3.05 -12.5 3.1 -11.75 2.7 -11.75 2.65 -12.55 M6.0 -13.5 L6.4 -13.25 6.35 -11.85 6.3 -11.85 5.9 -11.85 6.0 -13.5 M5.65 12.6 L7.4 10.75 7.55 10.35 7.8 10.4 11.55 6.15 11.65 5.5 11.65 5.25 11.7 5.3 11.7 5.25 11.65 5.25 11.9 -4.9 12.4 -4.85 12.15 6.35 6.0 12.75 5.95 13.45 5.35 13.8 1.45 12.95 1.4 12.65 1.35 12.6 1.4 12.6 2.55 12.8 2.55 12.75 2.9 12.65 3.25 12.9 4.2 13.1 5.25 13.3 5.25 13.25 5.6 13.0 5.65 12.6 M1.25 11.65 L1.2 11.6 1.0 12.65 0.5 12.85 -2.4 12.35 -2.3 11.95 -1.6 12.1 -1.65 12.25 0.35 12.55 0.75 12.35 1.0 11.2 1.05 11.2 1.25 11.25 1.25 11.6 1.25 11.65"/><path fill="#cfdada" stroke="none" d="M12.35 -11.6 L12.15 -11.75 12.1 -11.9 9.45 -11.95 9.6 -11.8 9.55 -11.8 7.85 -11.85 7.8 -11.65 7.3 -11.95 7.25 -11.95 6.5 -11.85 6.35 -11.85 6.4 -13.25 6.0 -13.5 6.0 -13.7 5.6 -14.15 4.35 -14.0 4.35 -13.7 4.25 -13.9 3.3 -13.8 3.25 -11.8 3.1 -11.75 3.05 -12.5 2.65 -12.55 2.65 -12.8 2.3 -13.15 1.2 -12.95 1.2 -13.1 0.95 -13.25 -1.4 -13.15 -1.45 -12.85 -1.55 -12.95 -1.55 -13.0 -3.1 -12.95 -3.1 -11.7 -3.8 -11.65 -3.95 -10.25 -3.95 -9.35 -3.8 -8.75 -4.05 -9.35 -4.9 -13.0 -4.1 -13.0 -3.95 -14.65 2.4 -14.9 2.8 -13.25 3.1 -15.0 6.5 -15.1 6.75 -13.3 7.75 -13.35 13.65 -13.6 13.65 -13.5 13.55 -9.35 13.55 -9.25 13.55 -9.2 12.75 -7.9 12.9 -11.6 12.35 -11.6 M10.5 -4.2 L10.8 -4.75 13.4 -6.95 13.5 -7.0 13.15 6.2 6.3 13.2 6.35 13.2 6.15 14.5 -3.65 12.35 -3.65 10.95 -6.35 6.85 -6.35 6.8 -8.0 3.3 -8.25 -12.9 -5.7 -12.95 -5.05 -11.45 -5.25 -11.65 -6.0 -11.65 -6.05 -11.8 -6.3 -12.0 -7.65 -11.7 -7.65 -10.6 -7.6 -9.55 -7.8 -8.3 -7.6 -8.3 -7.4 -2.8 -7.4 -2.75 -7.65 -2.6 -7.45 3.2 -6.95 3.85 -6.95 4.0 -4.75 8.15 -4.65 8.1 -4.6 8.4 -4.15 9.15 -4.1 9.15 -3.8 9.05 -3.65 9.45 -3.2 10.35 -3.0 10.45 -2.9 11.85 -2.8 11.85 -2.3 11.95 -2.4 12.35 0.5 12.85 1.0 12.65 1.2 11.6 1.25 11.65 1.25 12.55 1.35 12.6 1.4 12.65 1.45 12.95 5.35 13.8 5.95 13.45 6.0 12.75 12.15 6.35 12.4 -4.85 11.9 -4.9 11.85 -4.9 11.35 -5.05 10.65 -4.3 10.5 -4.2"/><path fill="#617e7e" stroke="none" d="M13.65 -13.5 L14.5 -13.1 14.4 -8.8 13.55 -9.25 13.55 -9.35 13.65 -13.5 M14.4 -7.0 L14.05 6.05 13.15 6.2 13.5 -7.0 14.4 -7.0 M6.5 -15.1 L7.3 -14.75 7.35 -14.75 7.75 -13.35 6.75 -13.3 6.5 -15.1"/><path fill="#777242" stroke="none" d="M-6.3 -12.0 L-6.05 -11.8 -6.0 -11.65 -6.3 -11.6 -6.3 -12.0 M-5.25 -11.65 L-5.05 -11.45 -4.15 -9.6 -4.1 -9.5 -4.05 -9.35 -3.8 -8.75 -3.75 -8.45 -3.95 -8.55 -3.95 -8.45 -4.9 -10.75 -5.25 -11.65"/><path fill="#aca66c" stroke="none" d="M-7.65 -10.6 L-7.65 -11.7 -6.3 -12.0 -6.3 -11.6 -6.25 -11.35 -6.25 -11.3 -6.05 -5.65 Q-6.1 -0.6 -6.65 2.7 L-6.7 3.0 -6.95 4.0 -6.95 3.85 -7.45 3.2 -7.65 -2.6 -7.4 -2.75 -7.4 -2.8 Q-6.3 -3.65 -6.45 -5.65 -6.5 -6.8 -6.85 -8.2 L-7.6 -8.3 -7.8 -8.3 -7.6 -9.55 -7.55 -10.35 -7.65 -10.6"/><path fill="#a59f61" stroke="none" d="M-7.65 -10.6 L-7.55 -10.35 -7.6 -9.55 -7.65 -10.6 M-7.6 -8.3 L-6.85 -8.2 Q-6.5 -6.8 -6.45 -5.65 -6.3 -3.65 -7.4 -2.8 L-7.6 -8.3"/><path fill="#958e55" stroke="none" d="M-6.0 -11.65 L-5.25 -11.65 -4.9 -10.75 -5.2 -5.55 Q-5.65 3.25 -4.65 8.1 L-4.75 8.15 -6.95 4.0 -6.7 3.0 -6.65 2.7 Q-6.1 -0.6 -6.05 -5.65 L-6.25 -11.3 -6.25 -11.35 -6.3 -11.6 -6.0 -11.65"/><path fill="#86824d" stroke="none" d="M-3.1 -11.7 L-3.1 -12.95 -1.55 -13.0 -1.55 -12.95 -1.55 -12.45 -1.15 -8.4 -1.4 -8.05 -1.5 -8.35 -1.65 -5.2 -1.9 -3.05 -2.1 -2.7 -2.6 -4.85 -2.6 -5.1 -2.65 -5.2 -2.7 -5.3 -3.05 -6.85 -3.1 -11.7 M-2.6 -8.7 L-2.6 -8.75 -2.65 -8.75 -2.6 -8.7 M-2.3 -0.35 L-3.05 4.3 -3.1 -5.75 -3.0 -5.55 -2.95 -5.35 -2.55 -3.75 -2.2 -2.4 Q-2.55 -2.0 -2.45 -1.3 L-2.3 -0.35"/><path fill="#b3ad79" stroke="none" d="M-3.8 -8.75 L-3.95 -9.35 -3.95 -10.25 -3.8 -11.65 -3.1 -11.7 -3.05 -6.85 -2.7 -5.3 -2.65 -5.2 -2.6 -5.1 -3.0 -5.55 -3.1 -5.75 -3.05 4.3 -3.0 10.45 -3.2 10.35 -3.65 9.45 -3.8 9.05 -3.8 8.55 -3.85 8.45 -3.95 -8.45 -3.95 -8.55 -3.45 -7.4 -3.75 -8.45 -3.8 -8.75"/><path fill="#4a6060" stroke="none" d="M10.8 -4.75 L12.75 -7.9 13.55 -9.2 13.55 -9.25 14.4 -8.8 12.75 -6.45 13.4 -6.95 10.8 -4.75 M13.5 -7.0 L13.55 -7.05 14.4 -7.0 13.5 -7.0 M-5.7 -12.95 L-4.9 -13.0 -4.05 -9.35 -4.1 -9.5 -4.15 -9.6 -5.05 -11.45 -5.7 -12.95 M2.4 -14.9 L3.1 -15.0 2.8 -13.25 2.4 -14.9"/><path fill="#928e54" stroke="none" d="M-1.45 -12.85 L-1.4 -13.15 0.95 -13.25 0.95 -12.9 1.5 -4.85 1.5 -4.25 1.35 -4.3 1.45 -3.8 1.45 -3.75 0.95 3.6 Q0.75 -0.35 1.15 -4.4 L0.45 -4.4 Q0.8 1.25 0.4 5.95 L0.55 5.95 Q0.45 6.15 0.5 6.4 L0.25 6.4 0.4 6.7 -0.9 10.85 -0.9 10.9 -1.6 12.1 -2.3 11.95 -2.8 11.85 -2.9 11.85 -3.0 10.45 -3.05 4.3 -2.3 -0.35 -1.7 0.9 -1.35 3.65 -1.3 2.3 -1.5 1.15 0.2 2.1 0.05 1.5 -0.1 -1.1 Q-0.2 -2.65 0.05 -3.65 L0.25 -4.25 Q-0.9 -4.25 -1.55 -3.45 L-1.9 -3.05 -1.65 -5.2 -1.5 -8.35 -1.4 -8.05 -1.15 -8.4 -1.55 -12.45 -1.45 -12.85 M0.25 -4.75 L1.4 -4.7 1.25 -5.05 0.8 -5.15 Q0.55 -5.3 0.45 -5.05 L0.25 -4.75"/><path fill="#88844f" stroke="none" d="M12.1 -11.9 L11.9 -8.05 10.7 -6.05 10.75 -6.3 10.75 -6.35 10.75 -7.85 10.75 -7.9 10.75 -8.35 Q10.6 -10.25 9.55 -11.8 L9.6 -11.8 9.45 -11.95 12.1 -11.9 M1.2 -12.95 L2.3 -13.15 2.9 -3.7 1.5 -4.25 1.5 -4.85 0.95 -12.9 1.2 -12.95 M3.25 -11.8 L3.3 -13.8 4.25 -13.9 4.35 -13.7 4.05 -8.0 3.65 -2.95 3.5 -3.15 2.9 -3.7 3.25 -11.8 M11.05 6.15 L8.65 9.0 Q10.7 3.05 10.65 -3.75 L10.65 -3.95 10.65 -4.3 11.35 -5.05 11.05 6.15 M3.2 1.65 L3.1 2.4 2.05 9.15 1.25 11.6 1.25 11.25 1.05 11.2 1.0 11.2 0.65 11.2 0.35 12.55 -1.65 12.25 -1.6 12.1 -0.9 10.9 -0.9 10.85 0.4 6.7 0.75 6.9 1.1 6.85 1.25 6.5 0.5 6.4 Q0.45 6.15 0.55 5.95 L1.1 6.1 0.95 3.6 1.45 -3.75 1.5 -3.55 1.7 -0.9 1.45 1.65 1.35 2.25 Q2.3 2.25 3.2 1.65 M11.65 5.25 L11.7 5.25 11.7 5.3 11.65 5.25"/><path fill="#918951" stroke="none" d="M10.75 -6.3 L10.65 -5.9 7.85 -1.7 9.65 -3.4 10.5 -4.2 10.65 -4.3 10.65 -3.95 10.65 -3.75 Q10.7 3.05 8.65 9.0 L7.55 10.3 7.35 9.5 7.35 9.45 7.5 -2.0 7.65 -10.75 7.8 -11.65 7.85 -11.85 9.55 -11.8 Q10.6 -10.25 10.75 -8.35 L10.75 -7.9 10.75 -7.85 10.75 -6.35 10.75 -6.3 M4.35 -13.7 L4.35 -14.0 5.6 -14.15 5.35 0.5 Q3.8 6.85 3.75 11.65 L3.75 11.85 3.75 11.95 3.7 11.85 Q3.75 12.75 4.2 13.1 L3.25 12.9 2.9 12.65 2.65 12.5 2.55 12.75 2.55 12.8 1.4 12.6 1.35 12.6 1.25 12.55 1.25 11.65 1.25 11.6 2.05 9.15 3.1 2.4 3.2 1.65 Q3.25 1.55 3.4 1.55 4.35 0.6 4.45 -0.7 4.45 -2.05 3.65 -2.95 L4.05 -8.0 4.35 -13.7"/><path fill="#a29a5b" stroke="none" d="M6.35 -11.85 L6.5 -11.85 6.5 -11.35 Q6.25 -7.6 6.55 -5.35 6.5 -4.9 6.7 -4.4 6.85 -2.6 7.5 -2.0 L7.35 9.45 7.3 9.5 7.1 10.65 7.1 10.75 6.2 11.9 6.3 -11.85 6.35 -11.85"/><path fill="#413e23" stroke="none" d="M5.9 -11.85 L6.3 -11.85 6.2 11.9 7.1 10.75 7.1 10.65 7.3 9.5 7.35 9.5 7.55 10.3 8.65 9.0 11.05 6.15 11.55 6.15 7.8 10.4 7.55 10.35 7.4 10.75 5.65 12.6 5.9 -11.85 M-3.8 9.05 L-4.1 9.15 -4.15 9.15 -3.85 8.55 -3.8 8.55 -3.8 9.05 M0.35 12.55 L0.65 11.2 1.0 11.2 0.75 12.35 0.35 12.55 M2.55 12.75 L2.65 12.5 2.9 12.65 2.55 12.75"/><path fill="#afa872" stroke="none" d="M6.5 -11.85 L7.25 -11.95 7.3 -11.95 7.65 -10.75 7.5 -2.0 Q6.85 -2.6 6.7 -4.4 6.5 -4.9 6.55 -5.35 6.25 -7.6 6.5 -11.35 L6.5 -11.85"/><path fill="#c7c701" stroke="none" d="M2.9 -3.7 L3.5 -3.15 3.65 -2.95 Q4.45 -2.05 4.45 -0.7 4.35 0.6 3.4 1.55 3.25 1.55 3.2 1.65 2.3 2.25 1.35 2.25 L1.45 1.65 1.7 -0.9 1.5 -3.55 1.45 -3.75 1.45 -3.8 1.35 -4.3 1.5 -4.25 2.9 -3.7 M-1.9 -3.05 L-1.55 -3.45 Q-0.9 -4.25 0.25 -4.25 L0.05 -3.65 Q-0.2 -2.65 -0.1 -1.1 L0.05 1.5 0.2 2.1 -1.5 1.15 -1.55 1.1 -2.15 -2.7 -2.1 -2.7 -1.9 -3.05 M-1.7 0.9 L-2.3 -0.35 -2.45 -1.3 Q-2.55 -2.0 -2.2 -2.4 L-2.0 -1.1 -1.75 0.6 -1.7 0.9 M0.55 5.95 L0.4 5.95 Q0.8 1.25 0.45 -4.4 L1.15 -4.4 Q0.75 -0.35 0.95 3.6 L1.1 6.1 0.55 5.95 M0.4 6.7 L0.25 6.4 0.5 6.4 1.25 6.5 1.1 6.85 0.75 6.9 0.4 6.7"/><path fill="#e7e701" stroke="none" d="M0.25 -4.75 L0.45 -5.05 Q0.55 -5.3 0.8 -5.15 L1.25 -5.05 1.4 -4.7 0.25 -4.75"/><path fill="#9f995b" stroke="none" d="M-4.15 9.15 L-4.6 8.4 -4.65 8.1 Q-5.65 3.25 -5.2 -5.55 L-4.9 -10.75 -3.95 -8.45 -3.85 8.45 -3.85 8.55 -4.15 9.15"/><path fill="#9e995a" stroke="none" d="M4.2 13.1 Q3.75 12.75 3.7 11.85 L3.75 11.95 3.75 11.85 3.75 11.65 Q3.8 6.85 5.35 0.5 L5.25 13.25 5.25 13.3 4.2 13.1"/><path fill="#526969" stroke="none" d="M14.05 6.05 L14.05 6.15 7.2 13.05 6.35 13.2 6.3 13.2 13.15 6.2 14.05 6.05"/><path fill="#465959" stroke="none" d="M7.2 13.05 L7.1 13.1 7.15 13.1 7.05 14.2 6.15 14.5 6.35 13.2 7.2 13.05"/><path fill="none" stroke="#000000" stroke-width="0.5" stroke-opacity="0.501960784314" d="M7.75 -13.35 L13.65 -13.6 13.65 -13.5 14.5 -13.1 14.4 -8.8 12.75 -6.45 13.4 -6.95 13.5 -7.0 13.55 -7.05 14.4 -7.0 14.05 6.05 14.05 6.15 7.2 13.05 7.1 13.1 7.15 13.1 7.05 14.2 6.15 14.5 -3.65 12.35 -3.65 10.95 -6.35 6.85 M-6.35 6.8 L-8.0 3.3 -8.25 -12.9 -5.7 -12.95 -4.9 -13.0 -4.1 -13.0 -3.95 -14.65 2.4 -14.9 3.1 -15.0 6.5 -15.1 7.3 -14.75 7.35 -14.75 7.75 -13.35 6.75 -13.3 6.5 -15.1 M6.35 13.2 L6.15 14.5 M13.55 -9.35 L13.65 -13.5"/><path fill="none" stroke="#000000" stroke-width="0.5" d="M6.3 13.2 L13.15 6.2 13.5 -7.0"/><path fill="#bac4c4" stroke="none" d="M10.6 -11.3 L10.55 -11.25 10.45 -11.3 Q10.35 -11.3 10.35 -11.45 L10.35 -11.65 10.45 -11.8 10.6 -11.9 10.6 -11.85 10.75 -11.75 10.8 -11.45 10.65 -11.3 10.6 -11.3"/><path fill="#808787" stroke="none" d="M10.6 -11.9 L10.7 -11.85 10.85 -11.7 10.9 -11.5 10.75 -11.3 10.65 -11.3 10.8 -11.45 10.75 -11.75 10.6 -11.85 10.6 -11.9"/><path fill="none" stroke="#000000" stroke-width="0.5" stroke-opacity="0.301960784314" d="M10.6 -11.3 L10.55 -11.25 10.45 -11.3 Q10.35 -11.3 10.35 -11.45 L10.35 -11.65 10.45 -11.8 10.6 -11.9 10.6 -11.85 10.6 -11.9 10.7 -11.85 10.85 -11.7 10.9 -11.5 10.75 -11.3 10.65 -11.3 10.6 -11.3 10.65 -11.3 10.8 -11.45 10.75 -11.75 10.6 -11.85"/><path fill="#bac4c4" stroke="none" d="M10.6 -10.15 L10.55 -10.2 Q10.45 -10.2 10.45 -10.25 L10.45 -10.45 10.5 -10.6 10.65 -10.65 10.6 -10.6 10.65 -10.6 10.75 -10.5 10.75 -10.35 10.7 -10.2 10.6 -10.15"/><path fill="#808787" stroke="none" d="M10.7 -10.65 L10.75 -10.6 10.8 -10.5 10.85 -10.3 10.75 -10.2 10.65 -10.15 10.7 -10.2 10.75 -10.35 10.75 -10.5 10.65 -10.6 10.7 -10.65"/><path fill="none" stroke="#000000" stroke-width="0.5" stroke-opacity="0.301960784314" d="M10.6 -10.15 L10.55 -10.2 Q10.45 -10.2 10.45 -10.25 L10.45 -10.45 10.5 -10.6 10.65 -10.65 10.6 -10.6 10.7 -10.65 10.75 -10.6 10.8 -10.5 10.85 -10.3 10.75 -10.2 10.65 -10.15 10.6 -10.15 10.7 -10.2 10.75 -10.35 10.75 -10.5 10.65 -10.6 10.6 -10.6"/><path fill="#bac4c4" stroke="none" d="M10.05 5.4 L10.0 5.4 9.9 5.3 9.85 5.15 9.95 5.0 10.05 4.95 10.1 4.95 10.2 5.05 10.2 5.25 10.15 5.4 10.05 5.4"/><path fill="#808787" stroke="none" d="M10.1 4.95 L10.15 5.0 10.25 5.05 10.3 5.25 10.2 5.35 10.1 5.4 10.15 5.4 10.2 5.25 10.2 5.05 10.1 4.95"/><path fill="none" stroke="#000000" stroke-width="0.5" stroke-opacity="0.301960784314" d="M10.05 5.4 L10.0 5.4 9.9 5.3 9.85 5.15 9.95 5.0 10.05 4.95 10.1 4.95 10.15 5.0 10.25 5.05 10.3 5.25 10.2 5.35 10.1 5.4 10.05 5.4 10.15 5.4 10.2 5.25 10.2 5.05 10.1 4.95 10.05 4.95"/><path fill="#bac4c4" stroke="none" d="M6.7 8.45 L6.65 8.45 6.55 8.35 6.5 8.2 6.6 8.05 6.7 8.0 6.75 8.0 6.85 8.1 6.85 8.3 6.8 8.45 6.7 8.45"/><path fill="#808787" stroke="none" d="M6.75 8.0 L6.8 8.05 6.9 8.1 6.95 8.3 6.85 8.4 6.75 8.45 6.8 8.45 6.85 8.3 6.85 8.1 6.75 8.0"/><path fill="none" stroke="#000000" stroke-width="0.5" stroke-opacity="0.301960784314" d="M6.7 8.45 L6.65 8.45 6.55 8.35 6.5 8.2 6.6 8.05 6.7 8.0 6.75 8.0 6.8 8.05 6.9 8.1 6.95 8.3 6.85 8.4 6.75 8.45 6.7 8.45 6.8 8.45 6.85 8.3 6.85 8.1 6.75 8.0 6.7 8.0"/><path fill="#bac4c4" stroke="none" d="M2.8 11.1 L2.75 11.1 2.65 11.0 2.6 10.85 2.7 10.7 2.8 10.65 2.85 10.65 2.95 10.75 2.95 10.95 2.9 11.1 2.8 11.1"/><path fill="#808787" stroke="none" d="M2.85 10.65 L2.9 10.7 3.0 10.75 3.05 10.95 2.95 11.05 2.85 11.1 2.9 11.1 2.95 10.95 2.95 10.75 2.85 10.65"/><path fill="none" stroke="#000000" stroke-width="0.5" stroke-opacity="0.301960784314" d="M2.8 11.1 L2.75 11.1 2.65 11.0 2.6 10.85 2.7 10.7 2.8 10.65 2.85 10.65 2.9 10.7 3.0 10.75 3.05 10.95 2.95 11.05 2.85 11.1 2.8 11.1 2.9 11.1 2.95 10.95 2.95 10.75 2.85 10.65 2.8 10.65"/><path fill="#bac4c4" stroke="none" d="M4.2 11.95 L4.15 11.95 4.05 11.85 4.0 11.7 4.1 11.55 4.2 11.5 4.25 11.5 4.35 11.6 4.35 11.8 4.3 11.95 4.2 11.95"/><path fill="#808787" stroke="none" d="M4.25 11.5 L4.3 11.55 4.4 11.6 4.45 11.8 4.35 11.9 4.25 11.95 4.3 11.95 4.35 11.8 4.35 11.6 4.25 11.5"/><path fill="none" stroke="#000000" stroke-width="0.5" stroke-opacity="0.301960784314" d="M4.2 11.95 L4.15 11.95 4.05 11.85 4.0 11.7 4.1 11.55 4.2 11.5 4.25 11.5 4.3 11.55 4.4 11.6 4.45 11.8 4.35 11.9 4.25 11.95 4.2 11.95 4.3 11.95 4.35 11.8 4.35 11.6 4.25 11.5 4.2 11.5"/><path fill="#bac4c4" stroke="none" d="M4.1 11.25 L4.0 11.25 3.95 11.25 3.8 11.05 3.8 10.8 3.95 10.6 4.15 10.6 4.25 10.75 4.3 11.0 4.15 11.2 4.15 11.25 4.1 11.25"/><path fill="#808787" stroke="none" d="M4.15 10.6 L4.2 10.55 4.25 10.6 4.35 10.7 4.4 11.0 4.25 11.2 4.15 11.25 4.15 11.2 4.3 11.0 4.25 10.75 4.15 10.6"/><path fill="none" stroke="#000000" stroke-width="0.5" stroke-opacity="0.301960784314" d="M4.1 11.25 L4.0 11.25 3.95 11.25 3.8 11.05 3.8 10.8 3.95 10.6 4.15 10.6 4.2 10.55 4.25 10.6 4.35 10.7 4.4 11.0 4.25 11.2 4.15 11.25 4.1 11.25 4.15 11.25 4.15 11.2 4.3 11.0 4.25 10.75 4.15 10.6"/><path fill="#bac4c4" stroke="none" d="M-2.4 10.95 L-2.45 10.95 -2.55 10.85 -2.6 10.7 -2.5 10.55 -2.4 10.5 -2.35 10.5 -2.25 10.6 -2.25 10.8 -2.3 10.95 -2.4 10.95"/><path fill="#808787" stroke="none" d="M-2.35 10.5 L-2.3 10.55 -2.2 10.6 -2.15 10.8 -2.25 10.9 -2.35 10.95 -2.3 10.95 -2.25 10.8 -2.25 10.6 -2.35 10.5"/><path fill="none" stroke="#000000" stroke-width="0.5" stroke-opacity="0.301960784314" d="M-2.4 10.95 L-2.45 10.95 -2.55 10.85 -2.6 10.7 -2.5 10.55 -2.4 10.5 -2.35 10.5 -2.3 10.55 -2.2 10.6 -2.15 10.8 -2.25 10.9 -2.35 10.95 -2.4 10.95 -2.3 10.95 -2.25 10.8 -2.25 10.6 -2.35 10.5 -2.4 10.5"/><path fill="#bac4c4" stroke="none" d="M-1.0 10.55 L-1.05 10.55 -1.15 10.45 -1.2 10.3 -1.1 10.15 -1.0 10.1 -0.95 10.1 -0.85 10.2 -0.85 10.4 -0.9 10.55 -1.0 10.55"/><path fill="#808787" stroke="none" d="M-0.95 10.1 L-0.9 10.15 -0.8 10.2 -0.75 10.4 -0.85 10.5 -0.95 10.55 -0.9 10.55 -0.85 10.4 -0.85 10.2 -0.95 10.1"/><path fill="none" stroke="#000000" stroke-width="0.5" stroke-opacity="0.301960784314" d="M-1.0 10.55 L-1.05 10.55 -1.15 10.45 -1.2 10.3 -1.1 10.15 -1.0 10.1 -0.95 10.1 -0.9 10.15 -0.8 10.2 -0.75 10.4 -0.85 10.5 -0.95 10.55 -1.0 10.55 -0.9 10.55 -0.85 10.4 -0.85 10.2 -0.95 10.1 -1.0 10.1"/><path fill="#bac4c4" stroke="none" d="M-6.05 5.65 L-6.1 5.65 -6.2 5.55 -6.25 5.4 -6.15 5.25 -6.05 5.2 -6.0 5.2 -5.9 5.3 -5.9 5.5 -5.95 5.65 -6.05 5.65"/><path fill="#808787" stroke="none" d="M-6.0 5.2 L-5.95 5.25 -5.85 5.3 -5.8 5.5 -5.9 5.6 -6.0 5.65 -5.95 5.65 -5.9 5.5 -5.9 5.3 -6.0 5.2"/><path fill="none" stroke="#000000" stroke-width="0.5" stroke-opacity="0.301960784314" d="M-6.05 5.65 L-6.1 5.65 -6.2 5.55 -6.25 5.4 -6.15 5.25 -6.05 5.2 -6.0 5.2 -5.95 5.25 -5.85 5.3 -5.8 5.5 -5.9 5.6 -6.0 5.65 -6.05 5.65 -5.95 5.65 -5.9 5.5 -5.9 5.3 -6.0 5.2 -6.05 5.2"/><path fill="#bac4c4" stroke="none" d="M-6.75 -9.4 L-6.8 -9.4 -6.9 -9.5 -6.95 -9.65 -6.85 -9.8 -6.75 -9.85 -6.7 -9.85 -6.6 -9.75 -6.6 -9.55 -6.65 -9.4 -6.75 -9.4"/><path fill="#808787" stroke="none" d="M-6.7 -9.85 L-6.65 -9.8 -6.55 -9.75 -6.5 -9.55 -6.6 -9.45 -6.7 -9.4 -6.65 -9.4 -6.6 -9.55 -6.6 -9.75 -6.7 -9.85"/><path fill="none" stroke="#000000" stroke-width="0.5" stroke-opacity="0.301960784314" d="M-6.75 -9.4 L-6.8 -9.4 -6.9 -9.5 -6.95 -9.65 -6.85 -9.8 -6.75 -9.85 -6.7 -9.85 -6.65 -9.8 -6.55 -9.75 -6.5 -9.55 -6.6 -9.45 -6.7 -9.4 -6.75 -9.4 -6.65 -9.4 -6.6 -9.55 -6.6 -9.75 -6.7 -9.85 -6.75 -9.85"/><path fill="#bac4c4" stroke="none" d="M-1.65 -10.5 L-1.7 -10.5 -1.8 -10.6 -1.85 -10.75 -1.75 -10.9 -1.65 -10.95 -1.6 -10.95 -1.5 -10.85 -1.5 -10.65 -1.55 -10.5 -1.65 -10.5"/><path fill="#808787" stroke="none" d="M-1.6 -10.95 L-1.55 -10.9 -1.45 -10.85 -1.4 -10.65 -1.5 -10.55 -1.6 -10.5 -1.55 -10.5 -1.5 -10.65 -1.5 -10.85 -1.6 -10.95"/><path fill="none" stroke="#000000" stroke-width="0.5" stroke-opacity="0.301960784314" d="M-1.65 -10.5 L-1.7 -10.5 -1.8 -10.6 -1.85 -10.75 -1.75 -10.9 -1.65 -10.95 -1.6 -10.95 -1.55 -10.9 -1.45 -10.85 -1.4 -10.65 -1.5 -10.55 -1.6 -10.5 -1.65 -10.5 -1.55 -10.5 -1.5 -10.65 -1.5 -10.85 -1.6 -10.95 -1.65 -10.95"/><path fill="#bac4c4" stroke="none" d="M-0.6 -9.8 L-0.65 -9.8 -0.75 -9.9 -0.8 -10.05 -0.7 -10.2 -0.6 -10.25 -0.55 -10.25 -0.45 -10.15 -0.45 -9.95 -0.5 -9.8 -0.6 -9.8"/><path fill="#808787" stroke="none" d="M-0.55 -10.25 L-0.5 -10.2 -0.4 -10.15 -0.35 -9.95 -0.45 -9.85 -0.55 -9.8 -0.5 -9.8 -0.45 -9.95 -0.45 -10.15 -0.55 -10.25"/><path fill="none" stroke="#000000" stroke-width="0.5" stroke-opacity="0.301960784314" d="M-0.6 -9.8 L-0.65 -9.8 -0.75 -9.9 -0.8 -10.05 -0.7 -10.2 -0.6 -10.25 -0.55 -10.25 -0.5 -10.2 -0.4 -10.15 -0.35 -9.95 -0.45 -9.85 -0.55 -9.8 -0.6 -9.8 -0.5 -9.8 -0.45 -9.95 -0.45 -10.15 -0.55 -10.25 -0.6 -10.25"/><path fill="#bac4c4" stroke="none" d="M3.7 -11.25 L3.65 -11.25 3.55 -11.35 3.5 -11.5 3.6 -11.65 3.7 -11.7 3.75 -11.7 3.85 -11.6 3.85 -11.4 3.8 -11.25 3.7 -11.25"/><path fill="#808787" stroke="none" d="M3.75 -11.7 L3.8 -11.65 3.9 -11.6 3.95 -11.4 3.85 -11.3 3.75 -11.25 3.8 -11.25 3.85 -11.4 3.85 -11.6 3.75 -11.7"/><path fill="none" stroke="#000000" stroke-width="0.5" stroke-opacity="0.301960784314" d="M3.7 -11.25 L3.65 -11.25 3.55 -11.35 3.5 -11.5 3.6 -11.65 3.7 -11.7 3.75 -11.7 3.8 -11.65 3.9 -11.6 3.95 -11.4 3.85 -11.3 3.75 -11.25 3.7 -11.25 3.8 -11.25 3.85 -11.4 3.85 -11.6 3.75 -11.7 3.7 -11.7"/><path fill="#bac4c4" stroke="none" d="M-0.05 -11.3 L-0.1 -11.3 -0.2 -11.4 -0.25 -11.55 -0.15 -11.7 -0.05 -11.75 0.0 -11.75 0.1 -11.65 0.1 -11.45 0.05 -11.3 -0.05 -11.3"/><path fill="#808787" stroke="none" d="M0.0 -11.75 L0.05 -11.7 0.15 -11.65 0.2 -11.45 0.1 -11.35 0.0 -11.3 0.05 -11.3 0.1 -11.45 0.1 -11.65 0.0 -11.75"/><path fill="none" stroke="#000000" stroke-width="0.5" stroke-opacity="0.301960784314" d="M-0.05 -11.3 L-0.1 -11.3 -0.2 -11.4 -0.25 -11.55 -0.15 -11.7 -0.05 -11.75 0.0 -11.75 0.05 -11.7 0.15 -11.65 0.2 -11.45 0.1 -11.35 0.0 -11.3 -0.05 -11.3 0.05 -11.3 0.1 -11.45 0.1 -11.65 0.0 -11.75 -0.05 -11.75"/><path fill="#bac4c4" stroke="none" d="M-7.55 -7.2 L-7.6 -7.2 -7.7 -7.3 -7.75 -7.45 -7.65 -7.6 -7.55 -7.65 -7.5 -7.65 -7.4 -7.55 -7.4 -7.35 -7.45 -7.2 -7.55 -7.2"/><path fill="#808787" stroke="none" d="M-7.5 -7.65 L-7.45 -7.6 -7.35 -7.55 -7.3 -7.35 -7.4 -7.25 -7.5 -7.2 -7.45 -7.2 -7.4 -7.35 -7.4 -7.55 -7.5 -7.65"/><path fill="none" stroke="#000000" stroke-width="0.5" stroke-opacity="0.301960784314" d="M-7.55 -7.2 L-7.6 -7.2 -7.7 -7.3 -7.75 -7.45 -7.65 -7.6 -7.55 -7.65 -7.5 -7.65 -7.45 -7.6 -7.35 -7.55 -7.3 -7.35 -7.4 -7.25 -7.5 -7.2 -7.55 -7.2 -7.45 -7.2 -7.4 -7.35 -7.4 -7.55 -7.5 -7.65 -7.55 -7.65"/><path fill="#bac4c4" stroke="none" d="M-5.6 -8.5 L-5.65 -8.5 -5.75 -8.6 -5.8 -8.75 -5.7 -8.9 -5.6 -8.95 -5.55 -8.95 -5.45 -8.85 -5.45 -8.65 -5.5 -8.5 -5.6 -8.5"/><path fill="#808787" stroke="none" d="M-5.55 -8.95 L-5.5 -8.9 -5.4 -8.85 -5.35 -8.65 -5.45 -8.55 -5.55 -8.5 -5.5 -8.5 -5.45 -8.65 -5.45 -8.85 -5.55 -8.95"/><path fill="none" stroke="#000000" stroke-width="0.5" stroke-opacity="0.301960784314" d="M-5.6 -8.5 L-5.65 -8.5 -5.75 -8.6 -5.8 -8.75 -5.7 -8.9 -5.6 -8.95 -5.55 -8.95 -5.5 -8.9 -5.4 -8.85 -5.35 -8.65 -5.45 -8.55 -5.55 -8.5 -5.6 -8.5 -5.5 -8.5 -5.45 -8.65 -5.45 -8.85 -5.55 -8.95 -5.6 -8.95"/><path fill="#bac4c4" stroke="none" d="M8.8 -0.7 L8.75 -0.7 8.65 -0.8 8.6 -0.95 8.7 -1.1 8.8 -1.15 8.85 -1.15 8.95 -1.05 8.95 -0.85 8.9 -0.7 8.8 -0.7"/><path fill="#808787" stroke="none" d="M8.85 -1.15 L8.9 -1.1 9.0 -1.05 9.05 -0.85 8.95 -0.75 8.85 -0.7 8.9 -0.7 8.95 -0.85 8.95 -1.05 8.85 -1.15"/><path fill="none" stroke="#000000" stroke-width="0.5" stroke-opacity="0.301960784314" d="M8.8 -0.7 L8.75 -0.7 8.65 -0.8 8.6 -0.95 8.7 -1.1 8.8 -1.15 8.85 -1.15 8.9 -1.1 9.0 -1.05 9.05 -0.85 8.95 -0.75 8.85 -0.7 8.8 -0.7 8.9 -0.7 8.95 -0.85 8.95 -1.05 8.85 -1.15 8.8 -1.15"/><path fill="#bac4c4" stroke="none" d="M9.95 -0.4 L9.9 -0.4 9.8 -0.5 9.75 -0.65 9.85 -0.8 9.95 -0.85 10.0 -0.85 10.1 -0.75 10.1 -0.55 10.05 -0.4 9.95 -0.4"/><path fill="#808787" stroke="none" d="M10.0 -0.85 L10.05 -0.8 10.15 -0.75 10.2 -0.55 10.1 -0.45 10.0 -0.4 10.05 -0.4 10.1 -0.55 10.1 -0.75 10.0 -0.85"/><path fill="none" stroke="#000000" stroke-width="0.5" stroke-opacity="0.301960784314" d="M9.95 -0.4 L9.9 -0.4 9.8 -0.5 9.75 -0.65 9.85 -0.8 9.95 -0.85 10.0 -0.85 10.05 -0.8 10.15 -0.75 10.2 -0.55 10.1 -0.45 10.0 -0.4 9.95 -0.4 10.05 -0.4 10.1 -0.55 10.1 -0.75 10.0 -0.85 9.95 -0.85"/><path fill="#bac4c4" stroke="none" d="M10.2 -3.35 L10.15 -3.35 10.05 -3.45 10.0 -3.6 10.1 -3.75 10.2 -3.8 10.25 -3.8 10.35 -3.7 10.35 -3.5 10.3 -3.35 10.2 -3.35"/><path fill="#808787" stroke="none" d="M10.25 -3.8 L10.3 -3.75 10.4 -3.7 10.45 -3.5 10.35 -3.4 10.25 -3.35 10.3 -3.35 10.35 -3.5 10.35 -3.7 10.25 -3.8"/><path fill="none" stroke="#000000" stroke-width="0.5" stroke-opacity="0.301960784314" d="M10.2 -3.35 L10.15 -3.35 10.05 -3.45 10.0 -3.6 10.1 -3.75 10.2 -3.8 10.25 -3.8 10.3 -3.75 10.4 -3.7 10.45 -3.5 10.35 -3.4 10.25 -3.35 10.2 -3.35 10.3 -3.35 10.35 -3.5 10.35 -3.7 10.25 -3.8 10.2 -3.8"/><path fill="#bac4c4" stroke="none" d="M-4.0 5.65 L-4.05 5.65 -4.15 5.55 -4.2 5.4 -4.1 5.25 -4.0 5.2 -3.95 5.2 -3.85 5.3 -3.85 5.5 -3.9 5.65 -4.0 5.65"/><path fill="#808787" stroke="none" d="M-3.95 5.2 L-3.9 5.25 -3.8 5.3 -3.75 5.5 -3.85 5.6 -3.95 5.65 -3.9 5.65 -3.85 5.5 -3.85 5.3 -3.95 5.2"/><path fill="none" stroke="#000000" stroke-width="0.5" stroke-opacity="0.301960784314" d="M-4.0 5.65 L-4.05 5.65 -4.15 5.55 -4.2 5.4 -4.1 5.25 -4.0 5.2 -3.95 5.2 -3.9 5.25 -3.8 5.3 -3.75 5.5 -3.85 5.6 -3.95 5.65 -4.0 5.65 -3.9 5.65 -3.85 5.5 -3.85 5.3 -3.95 5.2 -4.0 5.2"/><path fill="#bac4c4" stroke="none" d="M-7.05 3.6 L-7.1 3.6 -7.2 3.5 -7.25 3.35 -7.15 3.2 -7.05 3.15 -7.0 3.15 -6.9 3.25 -6.9 3.45 -6.95 3.6 -7.05 3.6"/><path fill="#808787" stroke="none" d="M-7.0 3.15 L-6.95 3.2 -6.85 3.25 -6.8 3.45 -6.9 3.55 -7.0 3.6 -6.95 3.6 -6.9 3.45 -6.9 3.25 -7.0 3.15"/><path fill="none" stroke="#000000" stroke-width="0.5" stroke-opacity="0.301960784314" d="M-7.05 3.6 L-7.1 3.6 -7.2 3.5 -7.25 3.35 -7.15 3.2 -7.05 3.15 -7.0 3.15 -6.95 3.2 -6.85 3.25 -6.8 3.45 -6.9 3.55 -7.0 3.6 -7.05 3.6 -6.95 3.6 -6.9 3.45 -6.9 3.25 -7.0 3.15 -7.05 3.15"/><path fill="#bac4c4" stroke="none" d="M4.1 -8.5 L4.05 -8.5 3.95 -8.6 3.9 -8.75 4.0 -8.9 4.1 -8.95 4.15 -8.95 4.25 -8.85 4.25 -8.65 4.2 -8.5 4.1 -8.5"/><path fill="#808787" stroke="none" d="M4.15 -8.95 L4.2 -8.9 4.3 -8.85 4.35 -8.65 4.25 -8.55 4.15 -8.5 4.2 -8.5 4.25 -8.65 4.25 -8.85 4.15 -8.95"/><path fill="none" stroke="#000000" stroke-width="0.5" stroke-opacity="0.301960784314" d="M4.1 -8.5 L4.05 -8.5 3.95 -8.6 3.9 -8.75 4.0 -8.9 4.1 -8.95 4.15 -8.95 4.2 -8.9 4.3 -8.85 4.35 -8.65 4.25 -8.55 4.15 -8.5 4.1 -8.5 4.2 -8.5 4.25 -8.65 4.25 -8.85 4.15 -8.95 4.1 -8.95"/></g><g id="c10"><g><use transform="matrix(1.0,0.0,0.0,1.0,0.0,0.0)" xlink:href="#c9"/></g></g><g id="c11"><g><use transform="matrix(1.0,0.0,0.0,1.0,8.25,15.1)" xlink:href="#c10"/></g></g><g id="c12"><g><use transform="matrix(1.0,0.0,0.0,1.0,0.0,0.0)" xlink:href="#c2"/></g><g><use transform="matrix(0.238861083984,-0.0867004394531,0.10026550293,0.233917236328,34.25,31.15)" xlink:href="#c4"/></g><g><use transform="matrix(0.238861083984,-0.0867004394531,0.10026550293,0.233917236328,4.25,10.3)" xlink:href="#c4"/></g><g><use transform="matrix(0.141098022461,-0.0378112792969,0.111373901367,0.225646972656,20.25,20.65)" filter="url(#filter9)" xlink:href="#c6"/></g><g><use transform="matrix(-0.155029296875,0.0513153076172,0.0841827392578,0.147033691406,22.6,2.3)" filter="url(#filter10)" xlink:href="#c8"/></g><g><use transform="matrix(-0.602981567383,0.280792236328,0.280792236328,0.602981567383,24.65,9.5)" xlink:href="#c11"/></g><g><use transform="matrix(0.162948608398,-0.0436706542969,0.128631591797,0.260604858398,20.35,20.95)" filter="url(#filter12)" xlink:href="#c6"/></g></g><filter id="filter9"><feColorMatrix in="SourceGraphic" type="matrix" values="0.0 0.0 0.0 0.0 0.796875 0.0 0.0 0.0 0.0 0.59765625 0.0 0.0 0.0 0.0 0.19921875 0.0 0.0 0.0 1.0 0.0" result="cxform"/><feComposite operator="in" in2="SourceGraphic" result="color-xform"/></filter><filter id="filter10"><feColorMatrix in="SourceGraphic" type="matrix" values="0.0 0.0 0.0 0.0 0.99609375 0.0 0.0 0.0 0.0 0.99609375 0.0 0.0 0.0 0.0 0.99609375 0.0 0.0 0.0 1.0 0.0" result="cxform"/><feComposite operator="in" in2="SourceGraphic" result="color-xform"/></filter><filter id="filter12"><feColorMatrix in="SourceGraphic" type="matrix" values="1.0 0.0 0.0 0.0 0.0 0.0 1.0 0.0 0.0 0.0 0.0 0.0 1.0 0.0 0.0 0.0 0.0 0.0 0.23046875 0.0" result="cxform"/><feComposite operator="in" in2="SourceGraphic" result="color-xform"/></filter></defs><g><g><use transform="matrix(1.0,0.0,0.0,1.0,0.0,0.0)" xlink:href="#c1"/></g><g><use transform="matrix(1.15496826172,0.0,0.0,1.15496826172,5.85,3.95)" xlink:href="#c12"/></g></g></svg>