<?xml version='1.0' encoding='UTF-8'?>
<svg xmlns:xlink="http://www.w3.org/1999/xlink" xmlns="http://www.w3.org/2000/svg" version="1.1" width="60px" height="60px" viewBox="0.0 0.0 60.0 60.0"><defs><g id="c1"><path fill="#000000" fill-opacity="0.00392156862745" d="M0.0 0.0 L60.0 0.0 60.0 60.0 0.0 60.0 0.0 0.0"/></g><g id="c2"><path fill="none" stroke="#000000" stroke-width="1.0" stroke-opacity="0.301960784314" d="M22.3 0.35 Q26.6 -1.0 28.5 3.05 L41.4 31.7 Q43.1 35.4 39.9 36.85 L38.15 37.65 19.65 43.65 Q17.05 44.5 15.35 43.3 14.2 42.55 13.5 40.9 L0.55 12.25 Q-0.6 9.75 0.6 8.25 1.15 7.55 2.2 7.05 2.85 6.6 3.8 6.3 L22.3 0.35"/><path fill="#5b3c00" stroke="none" d="M0.75 8.25 L29.8 9.75 25.55 0.9 Q26.9 1.6 27.8 3.55 L40.7 32.15 Q42.6 36.3 38.3 37.65 L23.3 42.5 13.15 21.4 4.6 20.9 0.7 12.25 Q-0.45 9.75 0.75 8.25 M20.1 43.55 L19.8 43.65 Q17.15 44.45 15.5 43.3 L20.1 43.55"/><path fill="#724b00" stroke="none" d="M25.55 0.9 L29.8 9.75 0.75 8.25 Q1.45 7.3 3.1 6.75 L21.65 0.8 25.55 0.9 M4.6 20.9 L13.15 21.4 23.3 42.5 20.1 43.55 15.5 43.3 Q14.35 42.55 13.65 40.9 L4.6 20.9"/><path fill="none" stroke="#000000" stroke-width="0.5" stroke-opacity="0.301960784314" d="M0.75 8.25 Q-0.45 9.75 0.7 12.25 L4.6 20.9 M23.3 42.5 L38.3 37.65 Q42.6 36.3 40.7 32.15 L27.8 3.55 Q26.9 1.6 25.55 0.9 L21.65 0.8 3.1 6.75 Q1.45 7.3 0.75 8.25 M20.1 43.55 L19.8 43.65 Q17.15 44.45 15.5 43.3 14.35 42.55 13.65 40.9 L4.6 20.9 M20.1 43.55 L23.3 42.5"/><path fill="#ffcc00" stroke="none" d="M14.2 40.5 L1.35 11.8 Q-0.5 7.75 3.8 6.35 L22.3 0.4 Q26.55 -1.0 28.45 3.1 L41.35 31.7 Q43.25 35.85 38.9 37.25 L20.4 43.2 Q16.1 44.55 14.2 40.5"/><path fill="none" stroke="#000000" stroke-width="0.5" stroke-opacity="0.301960784314" d="M14.2 40.5 L1.35 11.8 Q-0.5 7.75 3.8 6.35 L22.3 0.4 Q26.55 -1.0 28.45 3.1 L41.35 31.7 Q43.25 35.85 38.9 37.25 L20.4 43.2 Q16.1 44.55 14.2 40.5"/><path fill="#fcf2cf" stroke="none" d="M9.15 13.6 Q9.8 12.8 9.55 11.6 L9.1 10.55 22.05 6.35 Q24.9 5.45 26.25 7.85 L26.5 8.3 35.8 29.0 35.95 29.35 Q34.75 29.3 34.1 30.1 33.45 30.9 33.7 32.1 L34.0 32.9 20.65 37.2 Q18.8 37.8 17.65 37.0 16.8 36.4 16.3 35.2 L6.95 14.6 6.8 14.4 7.1 14.4 Q8.4 14.45 9.15 13.6"/><path fill="#996600" stroke="none" d="M28.25 6.1 L35.55 22.3 39.35 30.75 Q41.1 34.5 37.2 35.7 L20.45 41.1 Q16.8 42.25 15.2 39.0 L15.0 38.6 8.25 23.65 3.35 12.8 Q1.65 9.1 5.5 7.85 L22.25 2.5 Q26.05 1.25 27.75 4.95 L28.25 6.1 M9.15 13.6 Q8.4 14.45 7.1 14.4 L6.8 14.4 6.95 14.6 16.3 35.2 Q16.8 36.4 17.65 37.0 18.8 37.8 20.65 37.2 L34.0 32.9 33.7 32.1 Q33.45 30.9 34.1 30.1 34.75 29.3 35.95 29.35 L35.8 29.0 26.5 8.3 26.25 7.85 Q24.9 5.45 22.05 6.35 L9.1 10.55 9.55 11.6 Q9.8 12.8 9.15 13.6"/><path fill="none" stroke="#f0b92b" stroke-width="0.5" d="M9.15 13.6 Q9.8 12.8 9.55 11.6 L9.1 10.55 22.05 6.35 Q24.9 5.45 26.25 7.85 L26.5 8.3 35.8 29.0 35.95 29.35 Q34.75 29.3 34.1 30.1 33.45 30.9 33.7 32.1 L34.0 32.9 20.65 37.2 Q18.8 37.8 17.65 37.0 16.8 36.4 16.3 35.2 L6.95 14.6 6.8 14.4 7.1 14.4 Q8.4 14.45 9.15 13.6"/><path fill="none" stroke="#fcf2cf" stroke-width="1.0" d="M35.55 22.3 L39.35 30.75 Q41.1 34.5 37.2 35.7 L20.45 41.1 Q16.8 42.25 15.2 39.0 L15.0 38.6 M8.25 23.65 L3.35 12.8 Q1.65 9.1 5.5 7.85 L22.25 2.5 Q26.05 1.25 27.75 4.95 L28.25 6.1"/><path fill="none" stroke="#ffaa00" stroke-width="1.0" d="M28.25 6.1 L35.55 22.3 M15.0 38.6 L8.25 23.65"/></g><g id="c3"><path fill="#7fdbfe" stroke="none" d="M10.75 4.9 Q10.75 4.6 10.9 4.35 11.25 3.45 11.95 2.75 13.3 1.5 14.35 2.1 15.4 2.7 14.95 4.45 14.7 5.4 14.1 6.15 L13.75 6.5 Q13.1 7.15 12.35 7.35 L11.4 7.2 Q10.95 6.9 10.75 6.4 10.5 5.75 10.75 4.9 M7.5 5.9 Q7.0 5.85 6.6 5.5 6.05 5.0 5.8 4.15 L5.7 3.6 Q5.55 2.65 5.8 1.7 6.25 0.0 7.5 0.0 L7.6 0.0 Q8.85 0.0 9.3 1.7 9.55 2.65 9.4 3.6 L9.3 4.15 8.5 5.5 7.6 5.9 7.5 5.9 M4.35 4.9 Q4.6 5.75 4.35 6.4 L3.7 7.2 2.75 7.35 Q2.0 7.15 1.35 6.5 L1.0 6.15 Q0.4 5.4 0.15 4.45 -0.3 2.7 0.75 2.1 1.8 1.5 3.15 2.75 3.85 3.45 4.2 4.35 L4.35 4.9 M5.5 13.7 Q4.45 13.9 3.65 12.95 2.75 12.0 3.2 10.25 3.7 8.5 5.25 7.6 6.4 6.9 7.55 7.0 8.75 6.9 9.9 7.6 11.45 8.5 11.95 10.25 12.35 12.0 11.5 12.95 10.7 13.9 9.65 13.7 8.55 13.5 7.55 12.6 6.55 13.5 5.5 13.7"/></g><g id="c4"><g><use transform="matrix(1.0,0.0,0.0,1.0,0.0,0.0)" xlink:href="#c3"/></g></g><radialGradient gradientUnits="userSpaceOnUse" r="819.2" cx="0" cy="0" spreadMethod="pad" gradientTransform="matrix(0.0914459228516,0.0,0.0,0.0914459228516,0.6,3.4)" id="gradient1"><stop offset="0.0" stop-color="#ffffff"/><stop offset="1.0" stop-color="#ffffff" stop-opacity="0.0"/></radialGradient><g id="c5"><path stroke="none" fill="url(#gradient1)" d="M36.65 -54.65 Q60.05 -42.0 69.75 -17.95 80.55 8.9 68.0 34.1 55.45 59.35 26.8 68.2 -1.8 77.05 -29.7 64.3 -57.6 51.6 -68.45 24.75 -79.3 -2.05 -66.75 -27.25 L-66.7 -27.3 Q-54.1 -52.5 -25.5 -61.4 3.1 -70.2 31.0 -57.5 L36.65 -54.65"/></g><g id="c6"><g><use transform="matrix(1.0,0.0,0.0,1.0,0.0,0.0)" xlink:href="#c5"/></g></g><radialGradient gradientUnits="userSpaceOnUse" r="819.2" cx="0" cy="0" spreadMethod="pad" gradientTransform="matrix(0.209197998047,0.0,0.0,0.177108764648,67.15,107.2)" id="gradient2"><stop offset="0.356862745098" stop-color="#ffffff"/><stop offset="0.670588235294" stop-opacity="0.0"/></radialGradient><g id="c7"><path fill="none" stroke-linejoin="round" stroke-linecap="round" stroke="url(#gradient2)" stroke-width="0.5" d="M136.55 165.8 L68.6 106.0 68.4 106.0 118.25 201.5 M68.2 105.7 L68.25 105.8 68.25 105.75 68.2 105.7 0.0 45.7 M68.25 105.8 L68.3 105.85 68.3 105.8 68.25 105.75 49.95 0.05 M0.05 97.7 L68.15 105.95 68.25 105.85 68.25 105.8 M68.3 105.85 L68.25 105.85 68.3 106.0 68.3 105.85 68.3 105.8 68.35 105.8 68.3 105.8 86.6 18.35 M50.0 193.2 L68.3 106.0 68.15 105.95 18.25 151.55 M68.4 106.0 L68.3 106.0 86.55 211.5 M68.4 106.0 L68.3 105.85 M68.6 106.0 L68.35 105.8 118.25 60.15 M136.6 114.25 L68.6 106.0 M68.2 105.7 L18.25 10.05"/></g><g id="c8"><g><use transform="matrix(1.0,0.0,0.0,1.0,0.0,0.0)" xlink:href="#c7"/></g></g><g id="c9"><g><use transform="matrix(1.0,0.0,0.0,1.0,0.0,0.0)" xlink:href="#c2"/></g><g><use transform="matrix(0.238861083984,-0.0867004394531,0.10026550293,0.233917236328,34.25,31.15)" xlink:href="#c4"/></g><g><use transform="matrix(0.238861083984,-0.0867004394531,0.10026550293,0.233917236328,4.25,10.3)" xlink:href="#c4"/></g><g><use transform="matrix(0.141098022461,-0.0378112792969,0.111373901367,0.225646972656,20.25,20.65)" filter="url(#filter7)" xlink:href="#c6"/></g><g><use transform="matrix(-0.155029296875,0.0513153076172,0.0841827392578,0.147033691406,22.6,3.15)" filter="url(#filter8)" xlink:href="#c8"/></g></g><filter id="filter7"><feColorMatrix in="SourceGraphic" type="matrix" values="0.0 0.0 0.0 0.0 0.796875 0.0 0.0 0.0 0.0 0.59765625 0.0 0.0 0.0 0.0 0.19921875 0.0 0.0 0.0 1.0 0.0" result="cxform"/><feComposite operator="in" in2="SourceGraphic" result="color-xform"/></filter><filter id="filter8"><feColorMatrix in="SourceGraphic" type="matrix" values="0.0 0.0 0.0 0.0 0.99609375 0.0 0.0 0.0 0.0 0.99609375 0.0 0.0 0.0 0.0 0.99609375 0.0 0.0 0.0 1.0 0.0" result="cxform"/><feComposite operator="in" in2="SourceGraphic" result="color-xform"/></filter><radialGradient gradientUnits="userSpaceOnUse" r="819.2" cx="0" cy="0" spreadMethod="pad" gradientTransform="matrix(0.0255126953125,0.0,0.0,0.0268249511719,27.35,75.35)" id="gradient3"><stop offset="0.356862745098" stop-color="#ffffff"/><stop offset="0.670588235294" stop-opacity="0.0"/></radialGradient><g id="c10"><path fill="none" stroke-linejoin="round" stroke-linecap="round" stroke="url(#gradient3)" stroke-width="0.5" d="M7.05 61.6 Q7.5 60.95 8.45 60.5 9.1 60.05 10.1 59.7 L28.6 53.75 Q32.85 52.35 34.75 56.45 L47.65 85.05 Q49.25 88.5 46.5 90.05 45.8 90.65 44.6 91.0 L26.1 97.0 Q23.45 97.8 21.8 96.65 20.65 95.9 19.95 94.25 L7.0 65.6 Q5.85 63.1 7.05 61.6"/></g><linearGradient gradientUnits="userSpaceOnUse" x1="-819.2" x2="819.2" spreadMethod="pad" gradientTransform="matrix(0.0255126953125,0.0,0.0,0.0268249511719,20.9,21.95)" id="gradient4"><stop offset="0.0" stop-color="#f90013"/><stop offset="0.160784313725" stop-color="#ff99ff"/><stop offset="0.462745098039" stop-color="#66ffff"/><stop offset="0.721568627451" stop-color="#ff9900"/><stop offset="1.0" stop-color="#33ff00"/></linearGradient><g id="c11"><path stroke="none" fill="url(#gradient4)" d="M0.6 8.2 Q1.05 7.55 2.0 7.1 2.65 6.65 3.65 6.3 L22.15 0.35 Q26.4 -1.05 28.3 3.05 L41.2 31.65 Q42.8 35.1 40.05 36.65 39.35 37.25 38.15 37.6 L19.65 43.6 Q17.0 44.4 15.35 43.25 14.2 42.5 13.5 40.85 L0.55 12.2 Q-0.6 9.7 0.6 8.2"/></g><g id="c12"><g><use transform="matrix(1.0,0.0,0.0,1.0,0.0,0.0)" xlink:href="#c11"/></g></g><g id="c13"><path fill="#860f02" stroke="none" d="M15.75 -14.9 L15.95 -14.95 Q17.45 -17.1 19.85 -17.25 L22.2 -13.75 23.8 -11.7 24.5 -10.9 Q27.05 -7.9 30.65 -4.65 24.35 -6.7 19.15 -10.3 L17.15 -11.85 17.05 -11.9 Q14.65 -13.95 15.65 -14.8 L15.75 -14.9 M17.1 -13.9 L22.2 -13.75 17.1 -13.9 M19.5 -12.2 Q22.45 -10.65 24.5 -10.9 22.45 -10.65 19.5 -12.2"/><path fill="none" stroke="#130f12" stroke-width="1.0" stroke-opacity="0.2" d="M15.75 -14.9 L15.95 -14.95 Q17.45 -17.1 19.85 -17.25 L22.2 -13.75 23.8 -11.7 24.5 -10.9 Q27.05 -7.9 30.65 -4.65 24.35 -6.7 19.15 -10.3 L17.15 -11.85"/><path fill="none" stroke="#130f12" stroke-width="1.0" stroke-opacity="0.101960784314" d="M17.05 -11.9 Q17.25 -10.65 15.3 -10.85 M15.65 -14.8 Q15.4 -15.8 14.7 -16.0 L13.7 -16.05 M24.5 -10.9 Q22.45 -10.65 19.5 -12.2 M22.2 -13.75 L17.1 -13.9"/><path fill="#860f02" stroke="none" d="M16.2 -18.3 L17.2 -20.6 Q19.9 -26.35 24.25 -31.25 22.85 -26.6 22.05 -22.75 L21.85 -21.7 21.5 -19.1 21.25 -14.95 Q19.05 -13.85 16.7 -14.95 L16.55 -14.95 16.4 -14.95 Q15.1 -15.2 16.15 -18.2 L16.2 -18.3 M17.25 -16.45 Q19.75 -16.85 21.5 -19.1 19.75 -16.85 17.25 -16.45 M18.4 -19.2 Q20.15 -21.95 22.05 -22.75 20.15 -21.95 18.4 -19.2"/><path fill="none" stroke="#130f12" stroke-width="1.0" stroke-opacity="0.101960784314" d="M16.15 -18.2 Q15.7 -19.35 14.1 -18.2 M16.4 -14.95 Q16.7 -14.0 16.2 -13.4 L15.35 -12.9 M21.5 -19.1 Q19.75 -16.85 17.25 -16.45 M22.05 -22.75 Q20.15 -21.95 18.4 -19.2"/><path fill="none" stroke="#130f12" stroke-width="1.0" stroke-opacity="0.2" d="M22.05 -22.75 Q22.85 -26.6 24.25 -31.25 19.9 -26.35 17.2 -20.6 L16.2 -18.3 M16.55 -14.95 L16.7 -14.95 Q19.05 -13.85 21.25 -14.95 L21.5 -19.1 21.85 -21.7 22.05 -22.75"/></g><g id="c14"><path fill="#cf5927" stroke="none" d="M49.0 2.65 L49.3 2.7 49.55 2.75 Q50.15 2.9 50.4 3.5 L55.2 27.5 52.25 33.0 46.45 35.25 Q44.9 36.65 43.4 38.7 L42.5 40.1 24.15 22.15 Q25.4 19.7 27.4 17.6 L28.6 16.45 29.7 15.55 Q44.75 2.45 49.0 2.65"/><path fill="#fedc56" stroke="none" d="M24.15 22.15 L8.75 13.15 12.0 9.9 33.5 5.35 29.7 15.55 28.6 16.45 27.4 17.6 Q25.4 19.7 24.15 22.15"/><path fill="#fdc801" stroke="none" d="M12.0 9.9 Q20.15 4.3 30.55 0.4 39.3 -1.05 49.0 2.65 44.75 2.45 29.7 15.55 L33.5 5.35 12.0 9.9"/><path fill="none" stroke="#130f12" stroke-width="1.0" stroke-opacity="0.301960784314" d="M49.0 2.65 L49.3 2.7 49.55 2.75 Q50.15 2.9 50.4 3.5 L55.2 27.5 52.25 33.0 46.45 35.25 Q44.9 36.65 43.4 38.7 L42.5 40.1 M8.75 13.15 L12.0 9.9 Q20.15 4.3 30.55 0.4 39.3 -1.05 49.0 2.65"/></g><g id="c15"><g><use transform="matrix(1.0,0.0,0.0,1.0,0.0,0.0)" xlink:href="#c14"/></g></g><g id="c16"><path fill="#130f12" fill-opacity="0.23137254902" d="M16.8 1.55 L11.4 -1.75 21.05 -15.7 Q18.75 -8.4 18.1 2.0 L16.8 1.55"/><path fill="#860f02" stroke="none" d="M16.85 -10.15 L16.95 -8.95 17.25 -5.95 18.15 -1.1 Q15.95 0.15 12.9 -1.1 L12.7 -1.1 12.55 -1.1 Q10.95 -1.45 11.3 -4.85 L11.35 -5.0 11.8 -7.7 Q13.35 -14.3 17.0 -20.0 16.65 -14.65 16.85 -10.15 14.9 -9.2 13.65 -6.05 14.9 -9.2 16.85 -10.15 M13.05 -2.85 Q15.9 -3.3 17.25 -5.95 15.9 -3.3 13.05 -2.85"/><path fill="none" stroke="#130f12" stroke-width="1.0" stroke-opacity="0.2" d="M17.25 -5.95 L16.95 -8.95 16.85 -10.15 Q16.65 -14.65 17.0 -20.0 13.35 -14.3 11.8 -7.7 L11.35 -5.0 M12.7 -1.1 L12.9 -1.1 Q15.95 0.15 18.15 -1.1 L17.25 -5.95"/><path fill="none" stroke="#130f12" stroke-width="1.0" stroke-opacity="0.101960784314" d="M16.85 -10.15 Q14.9 -9.2 13.65 -6.05 M17.25 -5.95 Q15.9 -3.3 13.05 -2.85 M11.3 -4.85 Q10.45 -6.2 8.95 -4.85 M12.55 -1.1 Q13.15 -0.05 12.7 0.65 L11.9 1.2"/><path fill="#130f12" fill-opacity="0.243137254902" d="M10.75 12.45 Q16.0 -0.55 5.15 -9.6 18.7 -6.35 10.75 12.45"/><path fill="none" stroke="#130f12" stroke-width="1.0" stroke-opacity="0.290196078431" d="M5.15 -9.6 Q16.0 -0.55 10.75 12.45 L9.9 14.3"/><path fill="#c22312" stroke="none" d="M11.15 -25.35 L4.75 -22.95 Q2.05 -21.8 -0.4 -19.75 -3.0 -19.45 -5.3 -18.3 L-10.15 -14.55 Q-11.85 -14.6 -13.3 -13.75 -18.5 -10.0 -21.7 -6.7 -21.7 -8.3 -20.65 -10.35 -19.65 -12.45 -19.2 -13.65 -17.85 -13.6 -16.1 -15.5 -13.65 -21.05 -11.9 -20.85 -9.6 -18.95 -5.65 -23.3 L-5.6 -22.85 -3.5 -23.25 -3.05 -23.35 4.6 -24.95 Q10.5 -26.3 11.15 -25.35 M-5.5 -20.0 L-5.6 -22.85 -5.5 -20.0 M-11.9 -20.85 L-11.75 -16.95 -11.9 -20.85"/><path fill="#130f12" fill-opacity="0.2" d="M-21.7 -6.7 Q-18.5 -10.0 -13.3 -13.75 -11.85 -14.6 -10.15 -14.55 L-5.3 -18.3 Q-3.0 -19.45 -0.4 -19.75 2.05 -21.8 4.75 -22.95 L11.15 -25.35 -21.7 -6.7"/><path fill="#fe7070" stroke="none" d="M-19.2 -13.65 Q-17.9 -17.05 -15.95 -19.65 -13.45 -23.2 -11.95 -22.6 L-12.1 -25.3 Q-7.35 -28.55 -5.75 -27.1 L-5.65 -23.3 Q-9.6 -18.95 -11.9 -20.85 L-11.95 -22.6 -11.9 -20.85 Q-13.65 -21.05 -16.1 -15.5 -17.85 -13.6 -19.2 -13.65"/><path fill="none" stroke="#130f12" stroke-width="1.0" stroke-opacity="0.301960784314" d="M11.15 -25.35 Q10.5 -26.3 4.6 -24.95 L-3.05 -23.35 M-3.5 -23.25 L-5.6 -22.85 -5.5 -20.0 M-19.2 -13.65 Q-17.9 -17.05 -15.95 -19.65 -13.45 -23.2 -11.95 -22.6 L-12.1 -25.3 Q-7.35 -28.55 -5.75 -27.1 L-5.65 -23.3 -5.6 -22.85 M-11.9 -20.85 L-11.95 -22.6 M-11.75 -16.95 L-11.9 -20.85 M-19.2 -13.65 Q-19.65 -12.45 -20.65 -10.35 -21.7 -8.3 -21.7 -6.7"/></g><g id="c17"><path fill="#ffff2f" fill-opacity="0.580392156863" d="M3.1 -1.8 L3.1 -9.5 10.8 -9.5 10.8 -1.8 3.1 -1.8 M6.35 8.6 L6.35 4.95 10.0 4.95 10.0 8.6 6.35 8.6 M1.0 2.0 L-10.75 2.0 -10.75 -9.75 1.0 -9.75 1.0 2.0 M-4.95 5.1 L-0.25 5.1 -0.25 9.8 -4.95 9.8 -4.95 5.1"/></g><g id="c18"><g><use transform="matrix(1.0,0.0,0.0,1.0,0.0,0.0)" xlink:href="#c17"/></g></g><g id="c19"><path fill="#ffffff" fill-opacity="0.501960784314" d="M2.65 -13.2 Q-0.1 -11.9 -1.6 -10.05 -4.75 -11.15 -7.4 -10.6 L-7.65 -9.9 -8.55 -9.5 -12.1 -9.0 Q-12.1 -7.9 -13.1 -7.45 L-15.0 -6.95 Q-16.8 -5.5 -16.2 -4.35 -15.1 -3.0 -18.65 -3.0 -19.9 -3.65 -23.2 -2.3 -24.55 -1.6 -23.25 -3.65 -21.9 -5.7 -19.2 -7.15 L-18.55 -7.95 Q-16.9 -9.1 -14.85 -9.1 -17.7 -11.85 -9.45 -11.5 -9.95 -12.85 -9.6 -13.45 -8.9 -14.05 -6.2 -13.4 -3.55 -12.7 -1.85 -11.5 0.45 -13.45 2.2 -13.85 4.55 -14.7 2.65 -13.2"/></g><g id="c20"><path fill="#fffbeb" stroke="none" d="M2.0 20.1 L1.9 19.85 Q-0.55 12.9 0.2 1.6 L0.3 0.0 Q11.8 -0.2 22.3 3.4 L23.85 5.45 Q30.4 14.3 33.4 24.75 L34.25 28.15 Q19.3 27.45 2.9 22.25 L2.0 20.1"/><path fill="none" stroke="#000000" stroke-width="0.5" stroke-opacity="0.2" d="M1.9 19.85 Q-0.55 12.9 0.2 1.6 L0.3 0.0 Q11.8 -0.2 22.3 3.4 L23.85 5.45 Q30.4 14.3 33.4 24.75 L34.25 28.15 Q19.3 27.45 2.9 22.25 L2.0 20.1"/></g><g id="c21"><g><use transform="matrix(1.0,0.0,0.0,1.0,0.0,0.0)" xlink:href="#c20"/></g></g><g id="c22"><path fill="#dedac7" stroke="none" d="M-12.4 -7.15 L-12.05 -7.15 -11.7 -7.25 -11.5 -7.3 -10.95 -7.3 -14.9 -4.2 -14.85 -4.0 -15.2 -3.9 -15.8 -3.95 -16.25 -3.8 -16.9 -3.6 -12.4 -7.15 M-6.8 -5.8 L-5.65 -5.05 -5.45 -4.9 -4.95 -4.55 -8.6 -1.7 -8.8 -1.8 -10.6 -2.9 -6.8 -5.8"/><path fill="#f5f5e3" stroke="none" d="M-16.9 -3.6 L-16.25 -3.8 -15.8 -3.95 -15.2 -3.9 -14.85 -4.0 -14.65 -4.05 -12.2 -3.6 -12.05 -3.55 -10.7 -2.95 -10.6 -2.9 -8.8 -1.8 -8.6 -1.7 -7.65 -0.85 -7.1 -0.35 -6.0 0.8 Q-4.2 3.3 -3.95 6.0 L-3.95 6.2 Q-3.75 6.9 -3.85 7.85 -3.95 9.0 -4.2 9.95 L-4.3 10.25 -4.95 11.5 -5.45 12.2 -7.1 13.65 -7.2 13.65 -8.25 14.25 Q-10.35 15.0 -12.95 14.25 -16.35 13.1 -18.7 9.6 -21.15 6.4 -20.95 2.6 L-20.95 2.25 Q-20.75 0.45 -19.8 -1.1 L-19.25 -1.8 -16.9 -3.6"/><path fill="#ede9d4" stroke="none" d="M-14.85 -4.0 L-14.9 -4.2 -10.95 -7.3 -9.05 -6.85 -8.9 -6.8 -8.35 -6.5 -7.55 -6.2 -7.45 -6.1 -6.8 -5.8 -10.6 -2.9 -10.7 -2.95 -12.05 -3.55 -12.2 -3.6 -14.65 -4.05 -14.85 -4.0"/><path fill="#a8a281" stroke="none" d="M-4.95 -4.55 L-4.5 -4.1 -3.95 -3.6 -2.85 -2.45 -2.5 -1.9 -2.7 -1.75 Q-1.05 0.6 -0.8 3.15 L-0.8 3.3 -0.7 4.25 -0.7 4.6 Q-0.8 5.75 -1.05 6.7 L-1.15 7.0 -1.8 8.25 -2.3 8.95 -4.95 11.5 -4.3 10.25 -4.2 9.95 Q-3.95 9.0 -3.85 7.85 -3.75 6.9 -3.95 6.2 L-3.95 6.0 Q-4.2 3.3 -6.0 0.8 L-7.1 -0.35 -7.65 -0.85 -8.6 -1.7 -4.95 -4.55"/><path fill="none" stroke="#9e9879" stroke-width="0.5" stroke-opacity="0.690196078431" d="M-12.4 -7.15 L-16.9 -3.6 M-7.2 13.65 L-8.25 14.25 Q-10.35 15.0 -12.95 14.25 -16.35 13.1 -18.7 9.6 -21.15 6.4 -20.95 2.6 L-20.95 2.25 Q-20.75 0.45 -19.8 -1.1 L-19.25 -1.8 -16.9 -3.6"/><path fill="none" stroke="#000000" stroke-width="0.5" stroke-opacity="0.101960784314" d="M-16.9 -3.6 L-16.25 -3.8 -15.8 -3.95 -15.2 -3.9 -14.85 -4.0 -14.65 -4.05 -12.2 -3.6 -12.05 -3.55 -10.7 -2.95 -10.6 -2.9 -8.8 -1.8 -8.6 -1.7 -7.65 -0.85 -7.1 -0.35 -6.0 0.8 Q-4.2 3.3 -3.95 6.0 L-3.95 6.2 Q-3.75 6.9 -3.85 7.85 -3.95 9.0 -4.2 9.95 L-4.3 10.25 -4.95 11.5 -5.45 12.2 -7.1 13.65 M-2.3 8.95 L-4.95 11.5"/><path fill="#22201a" stroke="none" d="M-9.1 6.75 L-9.1 6.2 -9.1 6.15 Q-9.25 4.85 -10.05 3.75 L-10.6 3.15 Q-10.7 3.0 -10.9 2.95 L-11.4 2.45 Q-12.15 1.95 -12.85 1.6 L-13.95 1.4 Q-13.95 2.95 -12.85 4.4 -11.8 6.05 -10.15 6.5 L-9.1 6.75"/><path fill="#9e9879" stroke="none" d="M-9.1 6.75 L-10.15 6.5 Q-11.8 6.05 -12.85 4.4 -13.95 2.95 -13.95 1.4 -14.05 1.3 -14.1 1.35 L-14.2 1.35 -15.65 1.75 Q-16.9 2.9 -17.1 4.4 L-17.1 4.55 Q-17.2 6.25 -16.0 7.8 -14.95 9.5 -13.3 9.95 L-10.6 9.75 -9.8 9.05 -9.25 8.05 -9.25 8.0 -9.1 7.05 -9.1 6.75"/><path fill="none" stroke="#000000" stroke-width="0.5" stroke-opacity="0.101960784314" d="M-13.95 1.4 L-12.85 1.6 Q-12.15 1.95 -11.4 2.45 L-10.9 2.95 Q-10.7 3.0 -10.6 3.15 L-10.05 3.75 Q-9.25 4.85 -9.1 6.15 L-9.1 6.2 -9.1 6.75 -10.15 6.5 Q-11.8 6.05 -12.85 4.4 -13.95 2.95 -13.95 1.4 -14.05 1.3 -14.1 1.35 L-14.2 1.35 -15.65 1.75 Q-16.9 2.9 -17.1 4.4 L-17.1 4.55 Q-17.2 6.25 -16.0 7.8 -14.95 9.5 -13.3 9.95 L-10.6 9.75 -9.8 9.05 -9.25 8.05 -9.25 8.0 -9.1 7.05 -9.1 6.75"/></g><g id="c23"><g><use transform="matrix(1.0,0.0,0.0,1.0,0.0,0.0)" xlink:href="#c13"/></g><g><use transform="matrix(1.0,0.0,0.0,1.0,-31.85,-25.8)" filter="url(#filter14)" xlink:href="#c15"/></g><g><use transform="matrix(1.0,0.0,0.0,1.0,0.0,0.0)" xlink:href="#c16"/></g><g><use transform="matrix(0.234512329102,-0.68913269043,0.420791625977,0.0605163574219,4.45,-5.1)" filter="url(#filter16)" xlink:href="#c18"/></g><g><use transform="matrix(1.0,0.0,0.0,1.0,0.0,0.0)" xlink:href="#c19"/></g><g><use transform="matrix(1.0,0.0,0.0,1.0,-23.3,-13.5)" xlink:href="#c21"/></g><g><use transform="matrix(1.0,0.0,0.0,1.0,0.0,0.0)" xlink:href="#c22"/></g></g><filter id="filter14"><feColorMatrix in="SourceGraphic" type="matrix" values="1.0 0.0 0.0 0.0 0.0 0.0 0.51953125 0.0 0.0 0.0 0.0 0.0 1.0 0.0 0.0 0.0 0.0 0.0 1.0 0.0" result="cxform"/><feComposite operator="in" in2="SourceGraphic" result="color-xform"/></filter><filter id="filter16"><feColorMatrix in="SourceGraphic" type="matrix" values="1.0 0.0 0.0 0.0 0.0 0.0 1.0 0.0 0.0 0.0 0.0 0.0 1.0 0.0 0.0 0.0 0.0 0.0 0.140625 0.0" result="cxform"/><feComposite operator="in" in2="SourceGraphic" result="color-xform"/></filter><linearGradient gradientUnits="userSpaceOnUse" x1="-819.2" x2="819.2" spreadMethod="pad" gradientTransform="matrix(-0.00471496582031,0.0145568847656,0.00437927246094,-0.000473022460938,9.05,16.6)" id="gradient5"><stop offset="0.0" stop-color="#fffffa" stop-opacity="0.8"/><stop offset="1.0" stop-color="#c8d8ce" stop-opacity="0.0"/></linearGradient><linearGradient gradientUnits="userSpaceOnUse" x1="-819.2" x2="819.2" spreadMethod="pad" gradientTransform="matrix(-0.000686645507812,0.00564575195312,0.00650024414062,-0.00205993652344,11.6,13.2)" id="gradient6"><stop offset="0.0" stop-opacity="0.101960784314"/><stop offset="1.0" stop-opacity="0.0"/></linearGradient><linearGradient gradientUnits="userSpaceOnUse" x1="-819.2" x2="819.2" spreadMethod="pad" gradientTransform="matrix(-0.000686645507812,0.00564575195312,0.00650024414062,-0.00205993652344,12.6,7.15)" id="gradient7"><stop offset="0.0" stop-opacity="0.0705882352941"/><stop offset="1.0" stop-opacity="0.0"/></linearGradient><linearGradient gradientUnits="userSpaceOnUse" x1="-819.2" x2="819.2" spreadMethod="pad" gradientTransform="matrix(0.00210571289062,0.0139312744141,-0.00738525390625,0.00111389160156,7.25,13.0)" id="gradient8"><stop offset="0.0" stop-color="#fffffa"/><stop offset="1.0" stop-color="#c8d8ce" stop-opacity="0.0"/></linearGradient><linearGradient gradientUnits="userSpaceOnUse" x1="-819.2" x2="819.2" spreadMethod="pad" gradientTransform="matrix(0.0,0.00666809082031,0.00752258300781,-0.00361633300781,7.15,15.5)" id="gradient9"><stop offset="0.0" stop-opacity="0.101960784314"/><stop offset="1.0" stop-opacity="0.0"/></linearGradient><linearGradient gradientUnits="userSpaceOnUse" x1="-819.2" x2="819.2" spreadMethod="pad" gradientTransform="matrix(0.0,0.00666809082031,0.00752258300781,-0.00361633300781,7.15,15.5)" id="gradient10"><stop offset="0.0" stop-opacity="0.0705882352941"/><stop offset="1.0" stop-opacity="0.0"/></linearGradient><linearGradient gradientUnits="userSpaceOnUse" x1="-819.2" x2="819.2" spreadMethod="pad" gradientTransform="matrix(0.0,0.0130920410156,-0.00776672363281,-0.0001220703125,25.15,12.25)" id="gradient11"><stop offset="0.0" stop-color="#fffffa"/><stop offset="1.0" stop-color="#c8d8ce" stop-opacity="0.0"/></linearGradient><linearGradient gradientUnits="userSpaceOnUse" x1="-819.2" x2="819.2" spreadMethod="pad" gradientTransform="matrix(0.0,0.0103607177734,-0.0120544433594,-0.000167846679688,22.9,14.55)" id="gradient12"><stop offset="0.0" stop-opacity="0.0705882352941"/><stop offset="1.0" stop-opacity="0.0"/></linearGradient><linearGradient gradientUnits="userSpaceOnUse" x1="-819.2" x2="819.2" spreadMethod="pad" gradientTransform="matrix(0.0,0.0103607177734,-0.0120544433594,-0.000167846679688,22.9,14.55)" id="gradient13"><stop offset="0.0" stop-opacity="0.101960784314"/><stop offset="1.0" stop-opacity="0.0"/></linearGradient><g id="c24"><path stroke="none" fill="url(#gradient5)" d="M20.3 15.0 L20.35 15.05 Q23.7 18.55 22.15 25.05 20.65 31.6 13.3 29.1 5.9 26.5 4.95 23.8 4.05 21.05 4.35 19.9 4.65 18.7 8.4 16.3 12.1 13.8 12.2 11.7 12.3 9.55 10.95 7.15 9.65 4.65 9.85 3.25 9.95 1.95 11.0 1.05 12.15 0.2 13.4 0.15 14.8 0.05 15.6 0.8 16.5 1.7 16.3 3.35 L15.8 4.45 Q15.15 5.45 14.25 5.75 13.2 6.05 12.6 5.4 12.15 4.75 12.2 4.2 L12.3 3.85 12.7 3.1 12.6 3.1 Q11.95 3.8 11.9 4.5 11.75 5.7 12.95 8.1 14.15 10.55 17.95 12.75 L19.05 14.0 Q17.65 12.3 20.3 15.0 L19.05 14.0 20.3 15.0"/><path fill="none" stroke-linejoin="round" stroke-linecap="round" stroke="url(#gradient6)" stroke-width="0.5" d="M12.7 3.1 L12.3 3.85 12.2 4.2 Q12.15 4.75 12.6 5.4 13.2 6.05 14.25 5.75 15.15 5.45 15.8 4.45 L16.3 3.35 Q16.5 1.7 15.6 0.8 14.8 0.05 13.4 0.15 12.15 0.2 11.0 1.05 9.95 1.95 9.85 3.25 9.65 4.65 10.95 7.15 12.3 9.55 12.2 11.7 12.1 13.8 8.4 16.3 4.65 18.7 4.35 19.9 4.05 21.05 4.95 23.8 5.9 26.5 13.3 29.1 20.65 31.6 22.15 25.05 23.7 18.55 20.35 15.05 L20.3 15.0 19.05 14.0 17.95 12.75 Q14.15 10.55 12.95 8.1 11.75 5.7 11.9 4.5 11.95 3.8 12.6 3.1 M20.3 15.0 Q17.65 12.3 19.05 14.0"/><path fill="none" stroke-linejoin="round" stroke-linecap="round" stroke="url(#gradient7)" stroke-width="0.5" d="M12.6 3.1 L12.7 3.1"/><path fill="none" stroke="#000000" stroke-width="0.5" stroke-opacity="0.0705882352941" d="M12.75 3.05 Q14.1 1.65 14.45 3.35"/><path stroke="none" fill="url(#gradient8)" d="M6.6 10.8 Q5.9 11.7 5.9 12.55 5.9 13.95 6.75 14.6 L8.5 15.35 Q11.15 16.25 13.0 18.8 14.85 21.35 14.95 22.75 15.05 24.1 12.85 25.75 10.65 27.4 9.3 27.6 L6.65 27.45 Q5.35 27.1 3.95 25.4 2.55 23.75 2.75 23.0 2.9 22.2 5.05 20.3 7.15 18.35 5.15 15.8 3.2 13.2 3.2 11.55 3.2 10.0 4.4 8.75 5.55 7.6 7.15 7.25 8.75 6.85 9.85 7.55 11.1 8.4 11.1 10.35 L10.65 11.7 Q9.95 13.05 8.9 13.55 L6.9 13.4 Q6.25 12.75 6.25 12.1 L6.3 11.7 6.75 10.75 6.6 10.8"/><path fill="none" stroke-linejoin="round" stroke-linecap="round" stroke="url(#gradient9)" stroke-width="0.5" d="M6.75 10.75 L6.3 11.7 6.25 12.1 Q6.25 12.75 6.9 13.4 L8.9 13.55 Q9.95 13.05 10.65 11.7 L11.1 10.35 Q11.1 8.4 9.85 7.55 8.75 6.85 7.15 7.25 5.55 7.6 4.4 8.75 3.2 10.0 3.2 11.55 3.2 13.2 5.15 15.8 7.15 18.35 5.05 20.3 2.9 22.2 2.75 23.0 2.55 23.75 3.95 25.4 5.35 27.1 6.65 27.45 L9.3 27.6 Q10.65 27.4 12.85 25.75 15.05 24.1 14.95 22.75 14.85 21.35 13.0 18.8 11.15 16.25 8.5 15.35 L6.75 14.6 Q5.9 13.95 5.9 12.55 5.9 11.7 6.6 10.8"/><path fill="none" stroke-linejoin="round" stroke-linecap="round" stroke="url(#gradient10)" stroke-width="0.5" d="M6.6 10.8 L6.75 10.75"/><path fill="none" stroke="#000000" stroke-width="0.5" stroke-opacity="0.0705882352941" d="M6.7 10.75 Q8.1 8.9 8.8 10.85"/><path stroke="none" fill="url(#gradient11)" d="M23.5 6.9 L24.3 8.0 24.35 8.6 Q24.35 9.6 23.3 11.1 22.0 12.85 20.1 12.8 18.4 12.75 17.35 11.1 16.6 10.0 16.6 9.35 16.6 6.35 18.55 4.1 20.3 2.25 22.95 1.7 25.45 1.1 27.3 2.05 29.25 3.15 29.25 5.55 29.25 8.1 26.15 13.55 22.95 18.95 23.6 21.1 24.2 23.25 26.2 24.3 28.2 25.35 28.7 29.3 29.2 33.25 26.35 32.25 23.45 31.2 20.8 31.55 18.15 31.85 15.65 29.4 L12.7 26.75 Q12.2 26.55 11.8 24.05 11.4 21.5 17.2 17.55 L23.6 12.85 Q24.9 11.2 24.9 9.05 24.9 7.7 23.8 6.8 L23.5 6.9"/><path fill="none" stroke-linejoin="round" stroke-linecap="round" stroke="url(#gradient12)" stroke-width="0.5" d="M23.8 6.8 L23.5 6.9"/><path fill="none" stroke-linejoin="round" stroke-linecap="round" stroke="url(#gradient13)" stroke-width="0.5" d="M23.5 6.9 L24.3 8.0 24.35 8.6 Q24.35 9.6 23.3 11.1 22.0 12.85 20.1 12.8 18.4 12.75 17.35 11.1 16.6 10.0 16.6 9.35 16.6 6.35 18.55 4.1 20.3 2.25 22.95 1.7 25.45 1.1 27.3 2.05 29.25 3.15 29.25 5.55 29.25 8.1 26.15 13.55 22.95 18.95 23.6 21.1 24.2 23.25 26.2 24.3 28.2 25.35 28.7 29.3 29.2 33.25 26.35 32.25 23.45 31.2 20.8 31.55 18.15 31.85 15.65 29.4 L12.7 26.75 Q12.2 26.55 11.8 24.05 11.4 21.5 17.2 17.55 L23.6 12.85 Q24.9 11.2 24.9 9.05 24.9 7.7 23.8 6.8"/><path fill="none" stroke="#000000" stroke-width="0.5" stroke-opacity="0.0705882352941" d="M23.65 6.8 Q21.35 4.95 20.25 8.5"/></g><g id="c25"><g><use transform="matrix(0.574401855469,0.0,0.0,0.574401855469,15.35,30.6)" xlink:href="#c23"/></g><g><use transform="matrix(1.0,0.0,0.0,1.0,0.0,0.0)" xlink:href="#c24"/></g></g><g id="c26"><path fill="none" stroke="#ffcc00" stroke-width="0.5" d="M7.05 61.6 Q7.5 60.95 8.45 60.5 9.1 60.05 10.1 59.7 L28.6 53.75 Q32.85 52.35 34.75 56.45 L47.65 85.05 Q49.25 88.5 46.5 90.05 45.8 90.65 44.6 91.0 L26.1 97.0 Q23.45 97.8 21.8 96.65 20.65 95.9 19.95 94.25 L7.0 65.6 Q5.85 63.1 7.05 61.6"/></g><g id="c27"><path fill="#ffffff" stroke="none" d="M7.05 61.6 Q7.5 60.95 8.45 60.5 9.1 60.05 10.1 59.7 L28.6 53.75 Q32.85 52.35 34.75 56.45 L47.65 85.05 Q49.25 88.5 46.5 90.05 45.8 90.65 44.6 91.0 L26.1 97.0 Q23.45 97.8 21.8 96.65 20.65 95.9 19.95 94.25 L7.0 65.6 Q5.85 63.1 7.05 61.6"/><path fill="#ffffff" stroke-linejoin="round" stroke-linecap="round" stroke="url(#gradient3)" stroke-width="0.5" d="M7.05 61.6 Q7.5 60.95 8.45 60.5 9.1 60.05 10.1 59.7 L28.6 53.75 Q32.85 52.35 34.75 56.45 L47.65 85.05 Q49.25 88.5 46.5 90.05 45.8 90.65 44.6 91.0 L26.1 97.0 Q23.45 97.8 21.8 96.65 20.65 95.9 19.95 94.25 L7.0 65.6 Q5.85 63.1 7.05 61.6"/></g><linearGradient gradientUnits="userSpaceOnUse" x1="-819.2" x2="819.2" spreadMethod="pad" gradientTransform="matrix(-0.0125732421875,0.0358276367188,-0.0249176025391,-0.0237579345703,24.2,32.05)" id="gradient15"><stop offset="0.0" stop-opacity="0.337254901961"/><stop offset="1.0" stop-opacity="0.0"/></linearGradient><linearGradient gradientUnits="userSpaceOnUse" x1="-819.2" x2="819.2" spreadMethod="pad" gradientTransform="matrix(-0.00735473632812,0.0306396484375,-0.0266723632812,-0.0176086425781,34.25,44.6)" id="gradient16"><stop offset="0.0" stop-opacity="0.337254901961"/><stop offset="1.0" stop-opacity="0.0"/></linearGradient><linearGradient gradientUnits="userSpaceOnUse" x1="-819.2" x2="819.2" spreadMethod="pad" gradientTransform="matrix(-0.00982666015625,0.0313873291016,-0.0181274414062,-0.0154724121094,4.1,17.85)" id="gradient17"><stop offset="0.0" stop-opacity="0.337254901961"/><stop offset="1.0" stop-opacity="0.0"/></linearGradient><linearGradient gradientUnits="userSpaceOnUse" x1="-819.2" x2="819.2" spreadMethod="pad" gradientTransform="matrix(0.0,0.0410766601562,-0.0333709716797,-0.0151062011719,15.9,32.85)" id="gradient18"><stop offset="0.0" stop-opacity="0.337254901961"/><stop offset="1.0" stop-opacity="0.0"/></linearGradient><g id="c28"><path stroke="none" fill="url(#gradient15)" d="M21.35 46.7 L21.35 1.75 26.45 1.75 26.45 46.7 21.35 46.7"/><path stroke="none" fill="url(#gradient16)" d="M31.7 5.7 L36.8 5.55 36.8 46.7 31.7 46.7 31.7 5.7"/><path stroke="none" fill="url(#gradient17)" d="M0.0 6.65 L5.1 6.45 5.1 46.7 0.0 46.7 0.0 6.65"/><path stroke="none" fill="url(#gradient18)" d="M9.35 46.7 L9.65 1.75 15.75 1.75 15.0 46.7 9.35 46.7"/></g><g id="c29"><g><use transform="matrix(1.0,0.0,0.0,1.0,0.0,0.0)" xlink:href="#c28"/></g></g><g id="c30"><path fill="#fefd8d" fill-opacity="0.972549019608" d="M33.85 83.75 L33.85 83.8 33.85 83.95 33.85 84.0 33.85 84.1 33.9 84.1 33.9 84.15 34.35 84.4 34.85 84.75 34.35 84.45 34.1 84.3 34.05 84.25 33.95 84.2 33.9 84.2 33.9 84.7 33.9 85.25 33.85 84.75 33.75 84.2 33.7 84.1 33.5 84.25 33.0 84.55 32.7 84.7 32.95 84.5 33.4 84.3 33.45 84.25 33.5 84.2 33.7 84.1 33.65 84.05 33.7 84.05 33.7 84.0 33.3 83.6 32.95 83.25 33.3 83.55 33.55 83.8 33.7 83.95 33.8 83.4 33.9 82.95 33.85 83.35 33.85 83.75 M34.4 83.9 L34.35 83.9 34.25 84.0 34.15 84.0 33.9 84.05 34.15 83.95 34.7 83.75 35.2 83.65 34.85 83.75 34.95 83.85 34.85 83.75 34.7 83.8 34.4 83.9 M36.75 85.45 L36.9 85.55 36.9 85.5 37.1 83.9 37.35 82.3 37.45 81.75 37.4 82.25 37.4 83.85 37.2 85.6 37.35 86.0 37.4 86.1 38.7 86.9 40.15 87.75 40.55 88.05 40.1 87.8 38.75 87.05 37.75 86.45 37.4 86.25 37.35 86.2 37.4 86.3 37.5 87.75 37.55 89.45 37.6 90.0 37.5 89.5 37.25 87.9 37.05 86.25 37.0 86.3 36.9 85.9 36.7 85.75 36.9 85.85 36.9 85.65 35.7 84.55 34.95 83.85 35.65 84.4 36.45 85.15 36.5 85.2 36.75 85.45 M36.1 86.45 L36.2 86.4 36.85 86.1 36.3 86.45 34.8 87.25 33.35 88.0 32.8 88.25 33.3 88.0 34.65 87.2 35.7 86.65 36.1 86.45 M41.85 84.45 L41.35 84.6 39.85 85.15 38.15 85.7 37.5 85.9 Q37.45 85.85 38.1 85.65 L39.7 85.1 41.3 84.6 41.85 84.45"/><path fill="#fffd8f" fill-opacity="0.4" d="M33.85 83.75 L34.05 83.4 34.25 83.2 34.15 83.4 34.0 83.8 33.9 83.9 33.85 83.8 33.85 83.75 M34.1 84.3 L34.35 84.5 34.45 84.65 34.25 84.5 34.0 84.3 33.95 84.2 34.05 84.25 34.1 84.3 M33.4 84.3 L33.3 84.3 32.95 84.45 32.7 84.55 32.95 84.4 33.35 84.25 33.45 84.25 33.4 84.3 M33.55 83.8 L33.4 83.6 33.6 83.8 33.65 83.9 33.55 83.8 M34.4 83.9 L34.65 83.85 34.95 83.85 35.05 83.8 34.95 83.85 34.7 83.9 34.3 84.0 34.2 84.0 34.25 84.0 34.35 83.9 34.4 83.9 M33.6 84.3 L33.7 84.2 33.75 84.35 33.65 84.7 33.55 85.05 33.55 84.75 33.6 84.3 M37.65 85.15 L37.35 85.5 37.35 85.0 37.9 84.05 38.5 83.1 38.7 82.75 38.55 83.1 38.15 84.05 37.65 85.15 M36.75 85.45 L36.5 85.2 36.45 85.15 35.85 84.4 35.45 83.85 35.95 84.3 36.65 85.15 36.9 85.5 36.75 85.45 M37.4 86.3 L37.35 86.2 37.4 86.25 37.75 86.45 Q38.15 86.7 38.6 87.1 L39.3 87.75 38.5 87.15 37.6 86.5 37.4 86.3 M36.1 86.45 L35.7 86.65 34.7 87.0 33.8 87.3 34.7 86.95 35.75 86.5 36.1 86.45 M38.7 85.65 L38.25 85.7 38.7 85.55 39.75 85.35 40.7 85.2 41.05 85.15 40.75 85.25 39.8 85.45 38.7 85.65 M36.7 86.7 L36.95 86.25 37.0 86.75 36.65 87.8 36.3 88.85 36.15 89.25 36.25 88.85 36.4 87.85 Q36.5 87.1 36.7 86.7"/><path fill="#fffd8f" fill-opacity="0.392156862745" d="M38.0 86.75 Q37.9 86.0 37.45 85.8 L36.9 85.85 Q36.75 86.1 36.9 86.5 37.1 87.0 37.65 87.3 L38.35 87.95 38.6 88.25 38.45 87.85 38.0 86.75"/><path fill="#fffd8f" fill-opacity="0.392156862745" d="M38.0 86.25 L37.05 85.85 Q36.8 85.8 36.95 85.95 L37.55 86.35 38.35 86.6 Q38.8 86.65 39.05 86.85 L39.35 86.95 39.0 86.75 38.0 86.25"/><path fill="#fffd8f" fill-opacity="0.392156862745" d="M36.4 84.8 Q36.35 85.55 36.75 85.85 L37.3 85.9 37.45 85.25 Q37.35 84.75 36.9 84.35 36.35 83.9 36.3 83.55 L36.1 83.25 36.2 83.65 36.4 84.8"/><path fill="#fffd8f" fill-opacity="0.392156862745" d="M36.25 85.35 L37.1 85.95 37.2 85.8 36.75 85.3 35.95 84.9 Q35.55 84.75 35.3 84.6 L35.05 84.45 35.35 84.65 36.25 85.35"/><path fill="#fffd8f" fill-opacity="0.392156862745" d="M38.75 85.2 Q38.0 85.45 37.85 85.65 37.7 85.85 37.85 85.8 L38.5 85.65 39.25 85.2 39.9 84.75 40.15 84.6 39.75 84.75 38.75 85.2"/><path fill="#fffd8f" fill-opacity="0.392156862745" d="M35.75 87.0 L36.6 86.4 36.5 86.25 Q36.25 86.25 35.9 86.5 L35.25 87.1 34.7 87.65 Q34.4 87.8 34.45 87.85 L34.8 87.6 35.75 87.0"/><path fill="#fffd8f" fill-opacity="0.392156862745" d="M34.1 84.35 L33.95 84.05 33.75 84.05 Q33.65 84.1 33.7 84.25 L34.0 84.55 34.2 84.75 34.3 84.85 34.2 84.75 34.1 84.35"/><path fill="#fffd8f" fill-opacity="0.392156862745" d="M34.1 84.2 Q33.9 84.05 33.75 84.05 L33.75 84.1 33.95 84.2 34.2 84.3 34.5 84.4 34.55 84.4 34.45 84.4 34.1 84.2"/><path fill="#fffd8f" fill-opacity="0.392156862745" d="M33.5 83.65 L33.65 84.05 33.85 84.05 33.9 83.85 33.65 83.55 33.5 83.25 33.45 83.15 33.5 83.25 33.5 83.65"/><path fill="#fffd8f" fill-opacity="0.392156862745" d="M33.5 83.9 L33.75 84.05 33.8 84.0 33.65 83.85 33.35 83.7 33.2 83.6 33.05 83.55 33.15 83.6 33.5 83.9"/><path fill="#fffd8f" fill-opacity="0.392156862745" d="M34.3 83.8 L34.05 83.95 34.05 84.0 34.25 83.95 34.55 83.8 Q34.6 83.7 34.7 83.7 L34.8 83.6 34.7 83.65 34.3 83.8"/><path fill="#fffd8f" fill-opacity="0.392156862745" d="M33.3 84.45 L33.6 84.2 33.6 84.15 Q33.5 84.15 33.4 84.3 L33.15 84.45 32.95 84.65 32.85 84.75 33.0 84.6 33.3 84.45"/><path fill="#ffffff" stroke="none" d="M36.3 85.35 Q36.05 85.7 36.05 86.15 L36.5 86.9 37.3 87.15 38.05 86.75 38.25 85.9 37.85 85.2 37.05 84.95 36.3 85.35"/><path fill="#fefd8d" fill-opacity="0.972549019608" d="M18.75 62.3 L18.65 62.35 18.2 62.45 18.6 62.25 19.85 61.9 21.0 61.5 21.4 61.35 21.05 61.5 19.9 61.9 18.75 62.3 M17.45 61.95 L17.7 62.2 17.75 62.2 17.7 62.15 17.85 61.05 18.05 59.85 18.15 59.4 18.1 59.8 18.05 61.0 18.0 62.25 18.1 62.6 19.15 63.2 20.0 63.75 19.15 63.3 18.5 62.95 18.4 62.85 18.15 62.7 18.1 62.7 18.15 62.75 18.2 63.85 18.2 64.9 18.0 64.0 17.85 62.8 17.8 62.8 17.75 62.45 17.6 62.3 17.7 62.35 17.7 62.3 16.85 61.5 15.9 60.65 15.65 60.35 15.95 60.65 16.8 61.4 17.45 61.95 M14.7 64.25 L15.05 64.05 16.1 63.45 17.25 62.85 17.7 62.65 17.3 62.95 16.2 63.45 15.1 64.05 14.7 64.25"/><path fill="#fffd8f" fill-opacity="0.4" d="M18.75 62.3 L19.1 62.2 19.85 62.05 20.6 61.95 19.85 62.15 19.05 62.3 18.75 62.3 M17.45 61.95 L16.95 61.35 16.5 60.75 17.0 61.3 17.55 61.95 17.7 62.15 17.75 62.2 17.7 62.2 17.45 61.95 M18.5 62.95 L19.0 63.35 19.6 63.8 19.8 64.0 19.6 63.85 18.95 63.4 18.3 62.9 18.15 62.75 18.1 62.7 18.15 62.7 18.4 62.85 18.5 62.95 M18.3 61.9 L18.05 62.2 18.1 61.85 18.45 61.15 18.9 60.4 19.1 60.2 18.95 60.4 18.65 61.15 18.3 61.9 M16.9 62.9 L17.2 62.85 Q17.15 62.9 16.85 63.05 L16.15 63.3 15.45 63.55 15.2 63.6 15.45 63.5 16.1 63.25 Q16.6 63.0 16.9 62.9 M17.55 63.1 L17.75 62.75 17.8 63.1 17.6 63.95 17.25 64.7 17.15 64.95 17.2 64.7 17.4 63.9 Q17.4 63.4 17.55 63.1"/><path fill="#fffd8f" fill-opacity="0.392156862745" d="M18.6 63.1 L18.15 62.4 17.7 62.45 17.75 62.95 18.3 63.55 Q18.75 63.8 18.8 64.0 L19.0 64.25 18.85 63.95 18.6 63.1"/><path fill="#fffd8f" fill-opacity="0.392156862745" d="M18.55 62.7 Q18.05 62.4 17.9 62.4 17.7 62.4 17.8 62.5 L18.25 62.8 18.85 63.0 19.35 63.15 19.6 63.2 19.35 63.1 18.55 62.7"/><path fill="#fffd8f" fill-opacity="0.392156862745" d="M17.3 61.7 Q17.35 62.3 17.55 62.45 L18.0 62.5 18.1 62.0 17.65 61.35 17.25 60.75 17.15 60.5 17.2 60.8 17.3 61.7"/><path fill="#fffd8f" fill-opacity="0.392156862745" d="M17.25 62.1 L17.9 62.5 17.95 62.45 17.6 62.05 17.05 61.75 16.55 61.5 16.35 61.4 16.55 61.6 Q16.8 61.7 17.25 62.1"/><path fill="#fffd8f" fill-opacity="0.392156862745" d="M19.05 61.9 L18.4 62.3 18.45 62.4 18.9 62.3 19.5 61.95 19.95 61.6 20.15 61.5 19.85 61.6 19.05 61.9"/><path fill="#fffd8f" fill-opacity="0.392156862745" d="M16.9 63.3 L17.5 62.85 17.45 62.7 17.05 62.9 16.5 63.35 16.15 63.75 15.95 63.95 16.2 63.75 16.9 63.3"/><path fill="#ffffff" stroke="none" d="M17.4 62.1 Q17.15 62.35 17.2 62.65 L17.55 63.25 18.1 63.4 18.7 63.1 18.85 62.5 18.55 61.95 17.9 61.75 17.4 62.1"/><path fill="#ffffff" stroke="none" d="M33.55 83.9 L33.45 84.15 33.6 84.45 33.85 84.5 34.15 84.4 34.2 84.05 34.1 83.85 33.75 83.75 33.55 83.9"/></g><g id="c31"><g><use transform="matrix(1.0,0.0,0.0,1.0,6.3,53.35)" xlink:href="#c9"/></g><g><use transform="matrix(1.0,0.0,0.0,1.0,0.0,0.0)" xlink:href="#c10"/></g><g><use transform="matrix(1.0,0.0,0.0,1.0,6.45,53.4)" xlink:href="#c12"/></g><g><use transform="matrix(0.522415161133,-0.197219848633,0.197219848633,0.522415161133,14.7,66.1)" xlink:href="#c25"/></g><g><use transform="matrix(1.0,0.0,0.0,1.0,0.0,0.0)" xlink:href="#c26"/></g><mask id="mask27"><use transform="matrix(1.0,0.0,0.0,1.0,0.0,0.0)" xlink:href="#c27"/></mask><g mask="url(#mask27)"><use transform="matrix(1.0,0.0,0.0,1.0,9.65,51.0)" filter="url(#filter29)" xlink:href="#c29"/></g><g mask="url(#mask27)"><use transform="matrix(1.0,0.0,0.0,1.0,9.65,51.0)" filter="url(#filter30)" xlink:href="#c29"/></g><g mask="url(#mask27)"><use transform="matrix(1.0,0.0,0.0,1.0,0.0,0.0)" xlink:href="#c30"/></g><g><use transform="matrix(0.141098022461,-0.0378112792969,0.111373901367,0.225646972656,27.2,74.05)" filter="url(#filter32)" xlink:href="#c6"/></g></g><filter id="filter29"><feColorMatrix in="SourceGraphic" type="matrix" values="0.0 0.0 0.0 0.0 0.99609375 0.0 0.0 0.0 0.0 0.99609375 0.0 0.0 0.0 0.0 0.99609375 0.0 0.0 0.0 1.0 0.0" result="cxform"/><feComposite operator="in" in2="SourceGraphic" result="color-xform"/></filter><filter id="filter30"><feColorMatrix in="SourceGraphic" type="matrix" values="0.0 0.0 0.0 0.0 0.99609375 0.0 0.0 0.0 0.0 0.99609375 0.0 0.0 0.0 0.0 0.99609375 0.0 0.0 0.0 1.0 0.0" result="cxform"/><feComposite operator="in" in2="SourceGraphic" result="color-xform"/></filter><filter id="filter32"><feColorMatrix in="SourceGraphic" type="matrix" values="1.0 0.0 0.0 0.0 0.0 0.0 1.0 0.0 0.0 0.0 0.0 0.0 1.0 0.0 0.0 0.0 0.0 0.0 0.23046875 0.0" result="cxform"/><feComposite operator="in" in2="SourceGraphic" result="color-xform"/></filter></defs><g><g><use transform="matrix(1.0,0.0,0.0,1.0,0.0,0.0)" xlink:href="#c1"/></g><g><use transform="matrix(1.15496826172,0.0,0.0,1.15496826172,-1.5,-57.65)" xlink:href="#c31"/></g></g></svg>