<?xml version='1.0' encoding='UTF-8'?>
<svg xmlns:xlink="http://www.w3.org/1999/xlink" xmlns="http://www.w3.org/2000/svg" version="1.1" width="60px" height="60px" viewBox="0.0 0.0 60.0 60.0"><defs><g id="c1"><path fill="#000000" fill-opacity="0.00392156862745" d="M0.0 0.0 L60.0 0.0 60.0 60.0 0.0 60.0 0.0 0.0"/></g><g id="c2"><path fill="none" stroke="#000000" stroke-width="1.0" stroke-opacity="0.301960784314" d="M22.3 0.35 Q26.6 -1.0 28.5 3.05 L41.4 31.7 Q43.1 35.4 39.9 36.85 L38.15 37.65 19.65 43.65 Q17.05 44.5 15.35 43.3 14.2 42.55 13.5 40.9 L0.55 12.25 Q-0.6 9.75 0.6 8.25 1.15 7.55 2.2 7.05 2.85 6.6 3.8 6.3 L22.3 0.35"/><path fill="#300525" stroke="none" d="M25.55 0.9 Q26.9 1.6 27.8 3.55 L40.7 32.15 Q42.6 36.3 38.3 37.65 L23.3 42.5 13.15 21.4 4.6 20.9 0.7 12.25 Q-0.45 9.75 0.75 8.25 L29.8 9.75 25.55 0.9 M20.1 43.55 L19.8 43.65 Q17.15 44.45 15.5 43.3 L20.1 43.55"/><path fill="#630a4c" stroke="none" d="M23.3 42.5 L20.1 43.55 15.5 43.3 Q14.35 42.55 13.65 40.9 L4.6 20.9 13.15 21.4 23.3 42.5 M0.75 8.25 Q1.45 7.3 3.1 6.75 L21.65 0.8 25.55 0.9 29.8 9.75 0.75 8.25"/><path fill="none" stroke="#000000" stroke-width="0.5" stroke-opacity="0.301960784314" d="M25.55 0.9 Q26.9 1.6 27.8 3.55 L40.7 32.15 Q42.6 36.3 38.3 37.65 L23.3 42.5 20.1 43.55 19.8 43.65 Q17.15 44.45 15.5 43.3 14.35 42.55 13.65 40.9 L4.6 20.9 0.7 12.25 Q-0.45 9.75 0.75 8.25 1.45 7.3 3.1 6.75 L21.65 0.8 25.55 0.9"/><path fill="#9d147b" stroke="none" d="M14.2 40.5 L1.35 11.8 Q-0.5 7.75 3.8 6.35 L22.3 0.4 Q26.55 -1.0 28.45 3.1 L41.35 31.7 Q43.25 35.85 38.9 37.25 L20.4 43.2 Q16.1 44.55 14.2 40.5"/><path fill="none" stroke="#000000" stroke-width="0.5" stroke-opacity="0.301960784314" d="M14.2 40.5 L1.35 11.8 Q-0.5 7.75 3.8 6.35 L22.3 0.4 Q26.55 -1.0 28.45 3.1 L41.35 31.7 Q43.25 35.85 38.9 37.25 L20.4 43.2 Q16.1 44.55 14.2 40.5"/><path fill="#fcf2cf" stroke="none" d="M9.15 13.6 Q9.8 12.8 9.55 11.6 L9.1 10.55 22.05 6.35 Q24.9 5.45 26.25 7.85 L26.5 8.3 35.8 29.0 35.95 29.35 Q34.75 29.3 34.1 30.1 33.45 30.9 33.7 32.1 L34.0 32.9 20.65 37.2 Q18.8 37.8 17.65 37.0 16.8 36.4 16.3 35.2 L6.95 14.6 6.8 14.4 7.1 14.4 Q8.4 14.45 9.15 13.6"/><path fill="#c47fad" stroke="none" d="M8.25 23.65 L3.35 12.8 Q1.65 9.1 5.5 7.85 L22.25 2.5 Q26.05 1.25 27.75 4.95 L28.25 6.1 35.55 22.3 39.35 30.75 Q41.1 34.5 37.2 35.7 L20.45 41.1 Q16.8 42.25 15.2 39.0 L15.0 38.6 8.25 23.65 M9.15 13.6 Q8.4 14.45 7.1 14.4 L6.8 14.4 6.95 14.6 16.3 35.2 Q16.8 36.4 17.65 37.0 18.8 37.8 20.65 37.2 L34.0 32.9 33.7 32.1 Q33.45 30.9 34.1 30.1 34.75 29.3 35.95 29.35 L35.8 29.0 26.5 8.3 26.25 7.85 Q24.9 5.45 22.05 6.35 L9.1 10.55 9.55 11.6 Q9.8 12.8 9.15 13.6"/><path fill="none" stroke="#ffcc00" stroke-width="1.0" stroke-opacity="0.749019607843" d="M8.25 23.65 L3.35 12.8 Q1.65 9.1 5.5 7.85 L22.25 2.5 Q26.05 1.25 27.75 4.95 L28.25 6.1 M35.55 22.3 L39.35 30.75 Q41.1 34.5 37.2 35.7 L20.45 41.1 Q16.8 42.25 15.2 39.0 L15.0 38.6"/><path fill="none" stroke="#bf9900" stroke-width="1.0" stroke-opacity="0.749019607843" d="M28.25 6.1 L35.55 22.3 M15.0 38.6 L8.25 23.65"/><path fill="none" stroke="#f0b92b" stroke-width="0.5" d="M9.15 13.6 Q9.8 12.8 9.55 11.6 L9.1 10.55 22.05 6.35 Q24.9 5.45 26.25 7.85 L26.5 8.3 35.8 29.0 35.95 29.35 Q34.75 29.3 34.1 30.1 33.45 30.9 33.7 32.1 L34.0 32.9 20.65 37.2 Q18.8 37.8 17.65 37.0 16.8 36.4 16.3 35.2 L6.95 14.6 6.8 14.4 7.1 14.4 Q8.4 14.45 9.15 13.6"/></g><g id="c3"><path fill="#7fdbfe" stroke="none" d="M10.75 4.9 Q10.75 4.6 10.9 4.35 11.25 3.45 11.95 2.75 13.3 1.5 14.35 2.1 15.4 2.7 14.95 4.45 14.7 5.4 14.1 6.15 L13.75 6.5 Q13.1 7.15 12.35 7.35 L11.4 7.2 Q10.95 6.9 10.75 6.4 10.5 5.75 10.75 4.9 M7.5 5.9 Q7.0 5.85 6.6 5.5 6.05 5.0 5.8 4.15 L5.7 3.6 Q5.55 2.65 5.8 1.7 6.25 0.0 7.5 0.0 L7.6 0.0 Q8.85 0.0 9.3 1.7 9.55 2.65 9.4 3.6 L9.3 4.15 8.5 5.5 7.6 5.9 7.5 5.9 M4.35 4.9 Q4.6 5.75 4.35 6.4 L3.7 7.2 2.75 7.35 Q2.0 7.15 1.35 6.5 L1.0 6.15 Q0.4 5.4 0.15 4.45 -0.3 2.7 0.75 2.1 1.8 1.5 3.15 2.75 3.85 3.45 4.2 4.35 L4.35 4.9 M5.5 13.7 Q4.45 13.9 3.65 12.95 2.75 12.0 3.2 10.25 3.7 8.5 5.25 7.6 6.4 6.9 7.55 7.0 8.75 6.9 9.9 7.6 11.45 8.5 11.95 10.25 12.35 12.0 11.5 12.95 10.7 13.9 9.65 13.7 8.55 13.5 7.55 12.6 6.55 13.5 5.5 13.7"/></g><g id="c4"><g><use transform="matrix(1.0,0.0,0.0,1.0,0.0,0.0)" xlink:href="#c3"/></g></g><radialGradient gradientUnits="userSpaceOnUse" r="819.2" cx="0" cy="0" spreadMethod="pad" gradientTransform="matrix(0.0914459228516,0.0,0.0,0.0914459228516,0.6,3.4)" id="gradient1"><stop offset="0.0" stop-color="#ffffff"/><stop offset="1.0" stop-color="#ffffff" stop-opacity="0.0"/></radialGradient><g id="c5"><path stroke="none" fill="url(#gradient1)" d="M36.65 -54.65 Q60.05 -42.0 69.75 -17.95 80.55 8.9 68.0 34.1 55.45 59.35 26.8 68.2 -1.8 77.05 -29.7 64.3 -57.6 51.6 -68.45 24.75 -79.3 -2.05 -66.75 -27.25 L-66.7 -27.3 Q-54.1 -52.5 -25.5 -61.4 3.1 -70.2 31.0 -57.5 L36.65 -54.65"/></g><g id="c6"><g><use transform="matrix(1.0,0.0,0.0,1.0,0.0,0.0)" xlink:href="#c5"/></g></g><radialGradient gradientUnits="userSpaceOnUse" r="819.2" cx="0" cy="0" spreadMethod="pad" gradientTransform="matrix(0.209197998047,0.0,0.0,0.177108764648,67.15,107.2)" id="gradient2"><stop offset="0.356862745098" stop-color="#ffffff"/><stop offset="0.670588235294" stop-opacity="0.0"/></radialGradient><g id="c7"><path fill="none" stroke-linejoin="round" stroke-linecap="round" stroke="url(#gradient2)" stroke-width="0.5" d="M136.55 165.8 L68.6 106.0 68.4 106.0 118.25 201.5 M68.2 105.7 L68.25 105.8 68.25 105.75 68.2 105.7 0.0 45.7 M68.25 105.8 L68.3 105.85 68.3 105.8 68.25 105.75 49.95 0.05 M0.05 97.7 L68.15 105.95 68.25 105.85 68.25 105.8 M68.3 105.85 L68.25 105.85 68.3 106.0 68.3 105.85 68.3 105.8 68.35 105.8 68.3 105.8 86.6 18.35 M50.0 193.2 L68.3 106.0 68.15 105.95 18.25 151.55 M68.4 106.0 L68.3 106.0 86.55 211.5 M68.4 106.0 L68.3 105.85 M68.6 106.0 L68.35 105.8 118.25 60.15 M136.6 114.25 L68.6 106.0 M68.2 105.7 L18.25 10.05"/></g><g id="c8"><g><use transform="matrix(1.0,0.0,0.0,1.0,0.0,0.0)" xlink:href="#c7"/></g></g><g id="c9"><path fill="#d9501a" stroke="none" d="M2.05 -8.0 L2.5 -6.2 2.6 -5.85 Q2.85 -4.7 3.45 -4.35 4.0 -4.05 4.5 -4.05 5.3 -4.1 5.75 -5.15 6.55 -6.8 5.0 -8.55 L2.05 -8.0 M4.5 -4.05 Q5.35 -5.6 4.15 -7.0 L4.5 -6.85 4.95 -6.3 Q5.7 -5.15 4.5 -4.05"/><path fill="#a53a0e" stroke="none" d="M4.5 -4.05 Q5.7 -5.15 4.95 -6.3 L4.5 -6.85 4.15 -7.0 Q5.35 -5.6 4.5 -4.05"/><path fill="none" stroke="#000000" stroke-width="0.5" stroke-opacity="0.450980392157" d="M2.05 -8.0 L2.5 -6.2 2.6 -5.85 Q2.85 -4.7 3.45 -4.35 4.0 -4.05 4.5 -4.05 5.3 -4.1 5.75 -5.15 6.55 -6.8 5.0 -8.55"/><path fill="#4a738a" stroke="none" d="M7.55 -22.7 L7.3 -22.9 7.55 -22.7 M7.1 -23.05 Q6.95 -21.6 7.3 -21.25 L7.1 -21.25 6.5 -21.75 4.05 -20.55 3.8 -20.2 Q5.7 -19.6 7.1 -18.05 9.2 -18.7 8.9 -18.8 L9.35 -19.7 9.35 -21.0 8.1 -22.55 Q7.3 -23.55 7.1 -23.05 M6.35 -19.45 Q7.45 -19.95 8.55 -20.55 7.45 -19.95 6.35 -19.45"/><path fill="#283f4a" stroke="none" d="M7.1 -23.05 L7.05 -23.05 6.5 -21.8 6.5 -21.75 7.1 -21.25 7.3 -21.25 Q6.95 -21.6 7.1 -23.05 M3.8 -20.2 Q2.9 -18.7 4.15 -17.3 5.05 -16.1 6.6 -16.6 8.7 -17.05 9.25 -18.1 10.4 -19.4 9.35 -21.0 L9.35 -19.7 8.9 -18.8 Q9.2 -18.7 7.1 -18.05 5.7 -19.6 3.8 -20.2"/><path fill="none" stroke="#9ab8c9" stroke-width="0.5" stroke-opacity="0.772549019608" d="M7.3 -22.9 L7.55 -22.7"/><path fill="none" stroke="#000033" stroke-width="0.5" stroke-opacity="0.411764705882" d="M6.5 -21.75 L6.5 -21.8 7.05 -23.05 7.1 -23.05 M6.5 -21.75 L4.05 -20.55 3.8 -20.2 Q2.9 -18.7 4.15 -17.3 5.05 -16.1 6.6 -16.6 8.7 -17.05 9.25 -18.1 10.4 -19.4 9.35 -21.0 L8.1 -22.55 Q7.3 -23.55 7.1 -23.05"/><path fill="none" stroke="#9abac9" stroke-width="0.5" stroke-opacity="0.501960784314" d="M8.55 -20.55 Q7.45 -19.95 6.35 -19.45"/><path fill="#a19a6f" stroke="none" d="M7.2 -12.85 Q6.95 -13.15 6.85 -13.85 7.7 -15.05 8.1 -17.1 L8.55 -15.9 Q8.0 -14.0 7.2 -12.85"/><path fill="none" stroke="#000000" stroke-width="0.5" stroke-opacity="0.450980392157" d="M7.2 -12.85 Q6.95 -13.15 6.85 -13.85 7.7 -15.05 8.1 -17.1 L8.55 -15.9 Q8.0 -14.0 7.2 -12.85"/><path fill="#6b6439" stroke="none" d="M6.85 -17.15 Q6.65 -16.9 6.6 -16.15 7.65 -14.7 8.35 -12.4 L8.65 -13.55 Q7.9 -15.75 6.85 -17.15"/><path fill="none" stroke="#000000" stroke-width="0.5" stroke-opacity="0.450980392157" d="M6.85 -17.15 Q6.65 -16.9 6.6 -16.15 7.65 -14.7 8.35 -12.4 L8.65 -13.55 Q7.9 -15.75 6.85 -17.15"/><path fill="#f1edc9" stroke="none" d="M7.65 -17.4 Q7.1 -18.0 6.25 -18.2 L6.15 -18.25 Q6.25 -19.15 5.8 -19.9 5.1 -21.0 3.9 -21.35 L2.55 -21.4 Q2.9 -20.4 2.2 -19.6 2.0 -21.55 -0.85 -23.1 L-0.95 -23.1 -2.2 -22.65 -2.65 -22.35 -2.7 -22.3 Q-3.1 -22.6 -3.65 -22.75 -4.85 -23.05 -5.95 -22.4 L-6.4 -22.1 -6.5 -21.0 -6.1 -20.1 Q-5.5 -19.1 -4.0 -18.7 L-3.95 -18.65 -3.3 -18.5 Q-2.3 -18.35 -2.0 -18.7 L-1.45 -19.3 -1.4 -19.4 -0.2 -18.9 0.1 -18.8 0.2 -18.8 -1.55 -18.7 Q-1.85 -17.95 -2.5 -17.45 -3.05 -18.1 -4.0 -18.35 L-5.9 -18.2 -6.8 -18.6 -7.25 -18.7 Q-7.6 -19.6 -7.35 -20.55 L-7.2 -21.0 -8.45 -20.65 -8.95 -20.3 Q-9.25 -19.4 -8.75 -18.45 L-9.05 -18.3 -9.55 -18.0 Q-9.85 -17.05 -9.25 -16.0 L-9.2 -15.9 -8.9 -15.5 -7.7 -14.75 -7.05 -14.5 -5.15 -14.55 -5.1 -14.6 -4.7 -15.0 -4.55 -15.2 -4.55 -15.0 -4.6 -14.85 -4.75 -14.45 -4.45 -14.35 -4.65 -14.25 Q-4.95 -13.35 -4.45 -12.4 L-4.35 -12.25 Q-3.75 -11.35 -2.6 -10.9 L-2.25 -10.8 -2.15 -10.75 -1.4 -10.6 Q-0.5 -10.5 -0.25 -10.8 L0.35 -11.45 0.35 -11.5 1.2 -11.05 1.45 -10.95 1.8 -10.85 Q3.35 -10.4 3.7 -10.85 L4.35 -11.5 4.3 -11.2 Q3.95 -10.0 2.9 -9.35 L2.0 -9.0 Q2.65 -8.2 3.8 -7.8 L5.75 -7.7 6.4 -8.3 Q6.6 -9.2 6.25 -10.05 L7.45 -9.8 Q8.75 -11.55 7.4 -12.95 L6.95 -12.65 Q5.9 -12.05 4.65 -12.35 L4.35 -12.45 3.95 -13.5 3.65 -14.0 4.8 -14.2 5.05 -14.5 5.4 -14.85 5.35 -14.5 5.3 -14.35 5.45 -14.3 5.9 -14.15 7.15 -13.95 7.4 -14.0 Q8.2 -15.25 7.75 -17.3 L7.65 -17.4 M0.2 -18.8 L1.4 -18.7 1.7 -18.9 2.2 -19.45 2.3 -19.55 2.3 -19.25 1.85 -18.3 1.35 -18.15 0.2 -18.8 M-5.6 -11.3 L-5.6 -12.5 Q-6.05 -12.6 -6.4 -12.85 L-6.9 -12.65 -6.7 -12.3 -5.6 -11.3 M-8.05 -11.6 L-8.0 -12.65 -8.3 -12.75 Q-9.45 -13.05 -10.1 -14.05 L-9.7 -12.9 Q-9.2 -12.05 -8.05 -11.6 M-1.7 -15.45 Q-1.25 -15.1 -0.65 -14.85 L-0.15 -14.7 -0.1 -14.7 Q1.4 -14.3 1.8 -14.7 L2.4 -15.35 2.35 -15.05 Q2.05 -13.85 0.9 -13.2 L0.25 -12.9 0.0 -13.45 Q-0.6 -14.5 -1.8 -14.85 L-1.85 -14.85 -1.75 -14.95 -1.7 -15.45 M-3.85 -9.1 L-3.9 -9.1 -5.8 -9.0 -6.55 -9.35 Q-5.95 -8.75 -4.85 -8.4 L-4.0 -8.25 -3.85 -9.1 M-0.6 -9.6 L-1.1 -9.3 Q-1.85 -8.85 -2.7 -8.85 L-2.65 -8.75 -2.6 -8.7 -2.5 -8.45 Q-1.9 -7.6 -0.55 -7.1 0.65 -6.65 1.15 -6.9 L0.7 -7.6 Q0.35 -8.35 0.35 -9.1 -0.2 -9.25 -0.6 -9.6"/><path fill="#e2d9b6" stroke="none" d="M-2.65 -22.35 L-2.7 -22.3 -2.65 -22.35"/><path fill="#fdfcf9" stroke="none" d="M2.55 -21.4 L2.1 -21.25 1.95 -21.55 Q1.35 -22.65 0.1 -23.0 L-0.85 -23.1 Q2.0 -21.55 2.2 -19.6 2.9 -20.4 2.55 -21.4 M8.7 -10.6 Q8.95 -11.65 8.45 -12.6 L7.9 -13.45 7.6 -13.1 7.4 -12.95 Q8.75 -11.55 7.45 -9.8 L8.05 -10.0 8.7 -10.6 M8.45 -14.85 Q8.6 -15.9 8.1 -16.8 L7.75 -17.3 Q8.2 -15.25 7.4 -14.0 L7.85 -14.2 8.45 -14.85"/><path fill="#e4dca8" stroke="none" d="M-6.4 -22.1 L-7.2 -21.0 -7.35 -20.55 Q-7.6 -19.6 -7.25 -18.7 L-6.8 -18.6 -5.9 -18.2 -4.0 -18.35 Q-3.05 -18.1 -2.5 -17.45 -1.85 -17.95 -1.55 -18.7 L0.2 -18.8 1.35 -18.15 1.85 -18.3 2.3 -19.25 2.3 -19.55 2.2 -19.45 1.7 -18.9 1.4 -18.7 0.2 -18.8 0.1 -18.8 -0.2 -18.9 -1.4 -19.4 -1.45 -19.3 -2.0 -18.7 Q-2.3 -18.35 -3.3 -18.5 L-3.95 -18.65 -4.0 -18.7 Q-5.5 -19.1 -6.1 -20.1 L-6.5 -21.0 -6.4 -22.1 M-8.95 -20.3 Q-9.65 -19.7 -9.9 -18.8 L-9.95 -17.5 -10.5 -16.45 Q-10.75 -15.45 -10.35 -14.5 L-10.95 -13.35 Q-11.25 -12.15 -10.65 -11.05 -10.0 -9.95 -8.8 -9.6 L-8.4 -9.55 Q-8.35 -8.75 -7.95 -8.05 -7.3 -6.95 -6.1 -6.6 -4.9 -6.3 -3.75 -6.9 L-3.7 -7.0 -3.65 -6.9 Q-3.1 -5.8 -1.95 -5.4 L0.4 -5.55 Q1.15 -5.9 1.55 -6.55 1.95 -6.25 2.4 -6.1 L4.75 -6.2 Q5.9 -6.8 6.3 -7.95 L6.4 -8.3 7.1 -8.55 Q8.2 -9.1 8.6 -10.3 L8.7 -10.6 8.05 -10.0 7.45 -9.8 6.25 -10.05 Q6.6 -9.2 6.4 -8.3 L5.75 -7.7 3.8 -7.8 Q2.65 -8.2 2.0 -9.0 L2.9 -9.35 Q3.95 -10.0 4.3 -11.2 L4.35 -11.5 3.7 -10.85 Q3.35 -10.4 1.8 -10.85 L1.45 -10.95 1.2 -11.05 0.35 -11.5 0.35 -11.45 -0.25 -10.8 Q-0.5 -10.5 -1.4 -10.6 L-2.15 -10.75 -2.25 -10.8 -2.6 -10.9 Q-3.75 -11.35 -4.35 -12.25 L-4.45 -12.4 Q-4.95 -13.35 -4.65 -14.25 L-4.45 -14.35 -4.75 -14.45 -4.6 -14.85 -4.55 -15.0 -4.55 -15.2 -4.7 -15.0 -5.1 -14.6 -5.15 -14.55 -7.05 -14.5 -7.7 -14.75 -8.9 -15.5 -9.2 -15.9 -9.25 -16.0 Q-9.85 -17.05 -9.55 -18.0 L-9.05 -18.3 -8.75 -18.45 Q-9.25 -19.4 -8.95 -20.3 M7.9 -13.45 L8.35 -14.5 8.45 -14.85 7.85 -14.2 7.4 -14.0 7.15 -13.95 5.9 -14.15 5.45 -14.3 5.3 -14.35 5.35 -14.5 5.4 -14.85 5.05 -14.5 4.8 -14.2 3.65 -14.0 3.95 -13.5 4.35 -12.45 4.65 -12.35 Q5.9 -12.05 6.95 -12.65 L7.4 -12.95 7.6 -13.1 7.9 -13.45 M-8.05 -11.6 Q-9.2 -12.05 -9.7 -12.9 L-10.1 -14.05 Q-9.45 -13.05 -8.3 -12.75 L-8.0 -12.65 -8.05 -11.6 M-5.6 -11.3 L-6.7 -12.3 -6.9 -12.65 -6.4 -12.85 Q-6.05 -12.6 -5.6 -12.5 L-5.6 -11.3 M-1.7 -15.45 L-1.75 -14.95 -1.85 -14.85 -1.8 -14.85 Q-0.6 -14.5 0.0 -13.45 L0.25 -12.9 0.9 -13.2 Q2.05 -13.85 2.35 -15.05 L2.4 -15.35 1.8 -14.7 Q1.4 -14.3 -0.1 -14.7 L-0.15 -14.7 -0.65 -14.85 Q-1.25 -15.1 -1.7 -15.45 M-0.6 -9.6 Q-0.2 -9.25 0.35 -9.1 0.35 -8.35 0.7 -7.6 L1.15 -6.9 Q0.65 -6.65 -0.55 -7.1 -1.9 -7.6 -2.5 -8.45 L-2.6 -8.7 -2.65 -8.75 -2.7 -8.85 Q-1.85 -8.85 -1.1 -9.3 L-0.6 -9.6 M-3.85 -9.1 L-4.0 -8.25 -4.85 -8.4 Q-5.95 -8.75 -6.55 -9.35 L-5.8 -9.0 -3.9 -9.1 -3.85 -9.1"/><path fill="none" stroke="#000000" stroke-width="0.5" stroke-opacity="0.450980392157" d="M7.65 -17.4 Q7.1 -18.0 6.25 -18.2 L6.15 -18.25 Q6.25 -19.15 5.8 -19.9 5.1 -21.0 3.9 -21.35 L2.55 -21.4 2.1 -21.25 1.95 -21.55 Q1.35 -22.65 0.1 -23.0 L-0.85 -23.1 M-0.95 -23.1 L-2.2 -22.65 -2.65 -22.35 -2.7 -22.3 Q-3.1 -22.6 -3.65 -22.75 -4.85 -23.05 -5.95 -22.4 L-6.4 -22.1 -7.2 -21.0 -8.45 -20.65 -8.95 -20.3 Q-9.65 -19.7 -9.9 -18.8 L-9.95 -17.5 -10.5 -16.45 Q-10.75 -15.45 -10.35 -14.5 L-10.95 -13.35 Q-11.25 -12.15 -10.65 -11.05 -10.0 -9.95 -8.8 -9.6 L-8.4 -9.55 Q-8.35 -8.75 -7.95 -8.05 -7.3 -6.95 -6.1 -6.6 -4.9 -6.3 -3.75 -6.9 L-3.7 -7.0 -3.65 -6.9 Q-3.1 -5.8 -1.95 -5.4 L0.4 -5.55 Q1.15 -5.9 1.55 -6.55 1.95 -6.25 2.4 -6.1 L4.75 -6.2 Q5.9 -6.8 6.3 -7.95 L6.4 -8.3 7.1 -8.55 Q8.2 -9.1 8.6 -10.3 L8.7 -10.6 Q8.95 -11.65 8.45 -12.6 L7.9 -13.45 8.35 -14.5 8.45 -14.85 Q8.6 -15.9 8.1 -16.8 L7.75 -17.3"/><path fill="#bcb35d" stroke="none" d="M-1.8 -14.55 L-2.6 -15.0 -3.4 -13.65 -4.7 -13.05 Q-3.75 -11.5 -3.75 -9.95 L-3.35 -9.85 Q-3.75 -10.7 -3.75 -11.7 L-3.65 -12.65 -3.45 -13.2 -3.05 -13.85 -2.85 -14.05 -2.05 -14.5 -2.0 -14.5 -1.8 -14.55 M0.3 -13.15 Q1.0 -12.1 1.0 -10.75 L1.0 -10.55 0.95 -10.25 Q0.9 -9.4 0.45 -8.8 L0.95 -8.6 Q0.65 -9.75 1.55 -11.05 L1.35 -11.65 Q1.2 -12.55 2.0 -13.4 L-0.2 -13.85 0.3 -13.15"/><path fill="none" stroke="#422401" stroke-width="0.5" stroke-opacity="0.43137254902" d="M-3.35 -9.85 L-2.8 -9.65 -2.5 -9.55 -1.9 -9.3 -1.5 -9.1 -0.25 -8.4 -0.05 -8.25"/><path fill="#bcb35d" stroke="none" d="M-6.95 -15.45 L-7.25 -14.6 -7.05 -14.5 Q-6.65 -14.9 -5.65 -15.1 -4.1 -14.55 -3.85 -13.35 L-3.85 -13.25 -3.85 -12.4 -4.35 -11.9 Q-4.85 -11.4 -5.95 -11.1 -7.25 -11.1 -7.95 -11.6 -8.7 -10.95 -7.75 -10.05 L-7.75 -9.95 Q-7.75 -8.9 -5.95 -7.3 -6.0 -10.85 -4.4 -11.6 -2.8 -12.3 -3.45 -13.2 L-4.55 -15.8 Q-5.3 -15.15 -6.95 -15.45"/><path fill="#4a738a" stroke="none" d="M-9.25 -14.1 L-9.6 -14.45 -9.25 -14.1 M-8.95 -14.55 L-9.05 -14.5 -9.6 -14.9 -10.3 -15.05 -10.55 -14.9 Q-10.9 -11.7 -8.35 -11.6 L-7.65 -11.6 Q-6.8 -11.75 -5.65 -12.3 -4.85 -12.7 -5.2 -12.55 -4.75 -13.75 -5.45 -14.55 L-5.95 -15.05 -6.05 -15.15 Q-6.8 -15.5 -8.9 -14.65 L-8.95 -14.55 M-6.7 -14.0 L-5.45 -14.55 -6.7 -14.0 M-8.5 -13.9 L-9.05 -14.5 -8.5 -13.9"/><path fill="#283f4a" stroke="none" d="M-10.55 -14.9 Q-11.3 -14.25 -11.3 -13.25 -11.2 -11.85 -10.4 -11.05 L-10.15 -10.85 Q-9.25 -10.25 -7.7 -10.3 -5.45 -10.85 -4.65 -11.7 L-4.0 -12.4 -4.0 -13.45 -4.0 -13.5 Q-4.3 -15.0 -6.2 -15.75 L-6.8 -15.55 Q-8.2 -15.2 -8.9 -14.65 -6.8 -15.5 -6.05 -15.15 L-5.95 -15.05 -5.45 -14.55 Q-4.75 -13.75 -5.2 -12.55 -4.85 -12.7 -5.65 -12.3 -6.8 -11.75 -7.65 -11.6 L-8.35 -11.6 Q-10.9 -11.7 -10.55 -14.9"/><path fill="none" stroke="#9abac9" stroke-width="0.5" stroke-opacity="0.792156862745" d="M-9.6 -14.45 L-9.25 -14.1"/><path fill="none" stroke="#000033" stroke-width="0.5" stroke-opacity="0.411764705882" d="M-8.95 -14.55 L-9.05 -14.5 -9.6 -14.9 -10.3 -15.05 -10.55 -14.9 Q-11.3 -14.25 -11.3 -13.25 -11.2 -11.85 -10.4 -11.05 L-10.15 -10.85 Q-9.25 -10.25 -7.7 -10.3 -5.45 -10.85 -4.65 -11.7 L-4.0 -12.4 -4.0 -13.45 M-4.0 -13.5 Q-4.3 -15.0 -6.2 -15.75 L-6.8 -15.55 Q-8.2 -15.2 -8.9 -14.65 M-9.05 -14.5 L-8.5 -13.9"/><path fill="none" stroke="#9abac9" stroke-width="0.5" stroke-opacity="0.501960784314" d="M-5.45 -14.55 L-6.7 -14.0"/><path fill="#e4dca8" stroke="none" d="M-6.65 -7.8 Q-6.9 -7.05 -6.55 -6.1 -6.35 -5.3 -5.4 -5.15 L-4.2 -3.9 Q-3.25 -3.1 -2.3 -4.15 -1.3 -5.2 -1.9 -6.6 L-6.15 -8.7 -6.65 -7.8"/><path fill="none" stroke="#000000" stroke-width="0.5" stroke-opacity="0.450980392157" d="M-6.65 -7.8 Q-6.9 -7.05 -6.55 -6.1 -6.35 -5.3 -5.4 -5.15 L-4.2 -3.9 Q-3.25 -3.1 -2.3 -4.15 -1.3 -5.2 -1.9 -6.6"/><path fill="#a19a6f" stroke="none" d="M0.9 -10.45 L0.9 -10.7 Q-1.4 -11.7 -3.05 -13.65 L-3.45 -13.15 -3.45 -13.1 -2.05 -11.75 -2.3 -11.3 -2.25 -11.25 -1.4 -10.65 -1.3 -10.55 -0.7 -11.0 0.9 -10.45"/><path fill="#6b6439" stroke="none" d="M0.9 -10.45 L-0.7 -11.0 -1.3 -10.55 0.45 -9.65 Q0.85 -9.95 0.9 -10.45 M-2.3 -11.3 L-2.05 -11.75 -3.45 -13.1 -3.55 -12.4 -2.3 -11.3"/><path fill="none" stroke="#000000" stroke-width="0.5" stroke-opacity="0.450980392157" d="M-3.45 -13.15 L-3.05 -13.65 Q-1.4 -11.7 0.9 -10.7 L0.9 -10.45 Q0.85 -9.95 0.45 -9.65 L-1.3 -10.55 M-1.4 -10.65 L-2.25 -11.25 M-2.3 -11.3 L-3.55 -12.4 -3.45 -13.1"/><path fill="#6b6439" stroke="none" d="M0.1 -13.45 Q-0.35 -13.4 -1.05 -12.75 L-2.3 -10.9 Q-2.85 -9.95 -2.85 -9.4 L-2.25 -9.0 Q-1.45 -11.35 0.4 -13.0 L0.1 -13.45"/><path fill="#a19a6f" stroke="none" d="M-2.85 -9.4 Q-2.85 -9.95 -2.3 -10.9 L-1.05 -12.75 Q-0.35 -13.4 0.1 -13.45 L-0.5 -13.9 Q-2.35 -12.35 -3.35 -10.05 -3.2 -9.65 -2.85 -9.4"/><path fill="none" stroke="#000000" stroke-width="0.5" stroke-opacity="0.450980392157" d="M0.1 -13.45 L0.4 -13.0 Q-1.45 -11.35 -2.25 -9.0 L-2.85 -9.4 Q-3.2 -9.65 -3.35 -10.05 -2.35 -12.35 -0.5 -13.9 L0.1 -13.45"/><path fill="#8d3814" stroke="none" d="M-0.65 -21.75 L1.5 -24.65 Q0.7 -21.05 5.65 -25.35 4.55 -22.8 5.1 -22.0 5.6 -21.2 6.1 -20.95 L7.2 -21.05 7.05 -20.45 5.6 -18.9 5.2 -18.55 5.1 -18.5 Q5.0 -21.5 2.45 -21.75 L-0.6 -21.5 -0.7 -21.5 -0.65 -21.75"/><path fill="#000000" fill-opacity="0.2" d="M-0.6 -21.5 L2.45 -21.75 Q5.0 -21.5 5.1 -18.5 L4.0 -17.5 0.75 -18.3 -0.6 -21.5"/><path fill="none" stroke="#11141a" stroke-width="0.5" stroke-opacity="0.380392156863" d="M5.6 -18.9 L7.05 -20.45 7.2 -21.05 6.1 -20.95 Q5.6 -21.2 5.1 -22.0 4.55 -22.8 5.65 -25.35 0.7 -21.05 1.5 -24.65 L-0.65 -21.75 M-0.7 -21.5 L-0.6 -21.5 2.45 -21.75 Q5.0 -21.5 5.1 -18.5"/><path fill="none" stroke="#3d3928" stroke-width="0.5" stroke-opacity="0.501960784314" d="M-0.65 -21.75 L-0.7 -21.5 M5.2 -18.55 L5.6 -18.9"/><path fill="#fbc904" stroke="none" d="M6.0 -20.0 L6.3 -20.0 Q4.95 -17.9 4.2 -18.15 3.15 -17.9 3.25 -18.4 L3.7 -18.35 Q4.85 -18.45 6.0 -20.0 M-0.8 -17.55 L-1.0 -17.75 -1.05 -17.8 -1.25 -18.15 -1.65 -19.05 -1.65 -19.1 -1.75 -19.85 Q-1.75 -20.75 -1.05 -21.85 L-0.8 -22.2 -0.8 -22.05 Q-1.35 -20.75 -1.15 -19.6 L-1.05 -19.45 -0.9 -19.05 -0.6 -18.55 -0.5 -18.4 -0.35 -18.15 -0.8 -17.55 M-0.7 -22.0 L-0.55 -22.2 -0.05 -22.4 -0.45 -21.45 Q-0.15 -20.85 0.25 -21.0 L-0.6 -19.95 -0.6 -20.2 -0.7 -22.0"/><path fill="#ffffff" stroke="none" d="M5.95 -20.95 L6.0 -21.0 6.05 -20.95 5.95 -20.95"/><path fill="#c55c18" stroke="none" d="M3.25 -18.4 Q3.15 -17.9 4.2 -18.15 4.95 -17.9 6.3 -20.0 L6.6 -20.05 5.65 -18.4 5.6 -18.35 5.3 -17.65 Q4.05 -15.9 2.1 -16.1 1.3 -16.15 0.2 -16.65 L0.15 -16.7 -0.35 -17.1 -0.8 -17.55 -0.35 -18.15 0.1 -17.75 0.55 -17.4 1.35 -17.0 Q3.9 -16.15 5.6 -18.35 3.6 -17.0 1.4 -18.0 0.9 -18.2 0.5 -18.5 L1.3 -19.7 2.1 -20.7 1.05 -20.95 0.95 -20.95 1.6 -21.3 3.2 -21.3 Q2.9 -20.5 2.9 -19.85 L2.9 -19.0 3.05 -18.6 3.25 -18.4 M-0.55 -22.2 L0.45 -23.85 0.9 -23.85 0.35 -22.7 0.3 -22.55 -0.05 -22.4 -0.55 -22.2"/><path fill="#fdfd35" stroke="none" d="M0.3 -22.55 Q-0.15 -21.4 0.25 -21.1 L0.45 -20.95 0.95 -20.95 1.05 -20.95 -0.05 -19.2 -0.15 -19.15 -0.45 -19.55 -0.6 -19.95 0.25 -21.0 Q-0.15 -20.85 -0.45 -21.45 L-0.05 -22.4 0.3 -22.55"/><path fill="#8d3814" stroke="none" d="M1.05 -20.95 L2.1 -20.7 1.3 -19.7 0.5 -18.5 0.25 -18.7 0.05 -18.95 -0.15 -19.1 -0.15 -19.15 -0.05 -19.2 1.05 -20.95"/><path fill="#ff0000" stroke="none" d="M-0.15 -19.15 L-0.15 -19.1 0.05 -18.95 -0.5 -18.4 -0.6 -18.55 -0.9 -19.05 -0.45 -19.55 -0.15 -19.15"/><path fill="#5e1a1a" stroke="none" d="M0.5 -18.5 Q0.9 -18.2 1.4 -18.0 3.6 -17.0 5.6 -18.35 3.9 -16.15 1.35 -17.0 L0.55 -17.4 0.1 -17.75 -0.35 -18.15 -0.5 -18.4 0.05 -18.95 0.25 -18.7 0.5 -18.5"/><path fill="#7e98a3" stroke="none" d="M-0.6 -22.45 L-0.55 -22.45 -0.7 -22.0 -0.6 -22.45"/><path fill="#6194e7" stroke="none" d="M-0.8 -22.2 L-0.6 -22.45 -0.7 -22.0 -0.8 -22.05 -0.8 -22.2"/><path fill="#cc0000" stroke="none" d="M-0.45 -19.55 L-0.9 -19.05 -1.05 -19.45 -1.15 -19.6 Q-1.35 -20.75 -0.8 -22.05 L-0.7 -22.0 -0.6 -20.2 -0.6 -19.95 -0.45 -19.55"/><path fill="none" stroke="#11141a" stroke-width="0.5" stroke-opacity="0.380392156863" d="M6.0 -20.0 Q4.85 -18.45 3.7 -18.35 L3.25 -18.4 M6.6 -20.05 L5.65 -18.4 5.6 -18.35 5.3 -17.65 Q4.05 -15.9 2.1 -16.1 1.3 -16.15 0.2 -16.65 L0.15 -16.7 -0.35 -17.1 -0.8 -17.55 -1.0 -17.75 M-1.05 -17.8 L-1.25 -18.15 -1.65 -19.05 M-1.65 -19.1 L-1.75 -19.85 Q-1.75 -20.75 -1.05 -21.85 L-0.8 -22.2 -0.6 -22.45 -0.55 -22.45 -0.7 -22.0 -0.6 -22.45 M-0.55 -22.2 L0.45 -23.85 M0.9 -23.85 L0.35 -22.7 M0.3 -22.55 Q-0.15 -21.4 0.25 -21.1 L0.45 -20.95 0.95 -20.95 1.6 -21.3 M3.2 -21.3 Q2.9 -20.5 2.9 -19.85 L2.9 -19.0 3.05 -18.6 3.25 -18.4 M5.95 -20.95 L6.0 -21.0 M0.5 -18.5 Q0.9 -18.2 1.4 -18.0 3.6 -17.0 5.6 -18.35 3.9 -16.15 1.35 -17.0 L0.55 -17.4 0.1 -17.75 -0.35 -18.15 M-0.15 -19.15 L-0.15 -19.1 0.05 -18.95 0.25 -18.7 0.5 -18.5 M-0.15 -19.15 L-0.45 -19.55 M-0.9 -19.05 L-0.6 -18.55 -0.5 -18.4 -0.35 -18.15 M-0.7 -22.0 L-0.6 -20.2 -0.6 -19.95 -0.45 -19.55 M-0.8 -22.2 L-0.8 -22.05 Q-1.35 -20.75 -1.15 -19.6 L-1.05 -19.45 -0.9 -19.05"/><path fill="#fbc904" stroke="none" d="M5.5 -21.5 Q5.8 -21.8 6.2 -21.9 L7.1 -21.7 Q7.55 -21.4 7.6 -20.95 7.75 -20.45 7.5 -20.1 L7.45 -20.0 7.35 -19.9 6.95 -19.6 6.7 -19.55 5.8 -19.7 Q5.35 -20.0 5.25 -20.45 5.15 -20.95 5.45 -21.4 L5.5 -21.5"/><path fill="#5c7681" stroke="none" d="M5.5 -21.5 L5.45 -21.4 5.45 -21.45 5.5 -21.5"/><path fill="none" stroke="#11141a" stroke-width="0.5" stroke-opacity="0.380392156863" d="M5.45 -21.4 Q5.15 -20.95 5.25 -20.45 5.35 -20.0 5.8 -19.7 L6.7 -19.55 6.95 -19.6 7.35 -19.9 7.45 -20.0 7.5 -20.1 Q7.75 -20.45 7.6 -20.95 7.55 -21.4 7.1 -21.7 L6.2 -21.9 Q5.8 -21.8 5.5 -21.5 L5.45 -21.45"/><path fill="#ffffff" stroke="none" d="M6.8 -21.2 L6.6 -21.05 6.55 -20.85 6.75 -20.6 7.05 -20.4 7.2 -20.55 7.25 -20.8 7.1 -21.0 6.8 -21.2"/><path fill="#c55c18" stroke="none" d="M6.8 -19.7 Q5.9 -19.85 5.1 -20.35 L5.05 -20.3 Q5.05 -19.95 5.3 -19.65 5.6 -19.3 5.95 -19.3 6.4 -19.25 6.65 -19.5 L6.8 -19.7"/><path fill="#fbc904" stroke="none" d="M1.25 -21.95 L2.05 -22.4 3.05 -22.2 3.6 -21.35 Q3.7 -20.85 3.45 -20.45 L3.4 -20.4 3.3 -20.25 2.8 -19.9 2.55 -19.85 1.6 -20.0 Q1.15 -20.3 1.05 -20.85 0.95 -21.4 1.25 -21.85 L1.3 -21.85 1.25 -21.95"/><path fill="#5c7681" stroke="none" d="M1.25 -21.95 L1.3 -21.85 1.25 -21.9 1.25 -21.95"/><path fill="none" stroke="#11141a" stroke-width="0.5" stroke-opacity="0.380392156863" d="M1.25 -21.85 Q0.95 -21.4 1.05 -20.85 1.15 -20.3 1.6 -20.0 L2.55 -19.85 2.8 -19.9 3.3 -20.25 3.4 -20.4 3.45 -20.45 Q3.7 -20.85 3.6 -21.35 L3.05 -22.2 2.05 -22.4 1.25 -21.95 1.25 -21.9"/><path fill="#ffffff" stroke="none" d="M2.8 -21.7 L2.55 -21.55 2.5 -21.3 2.75 -21.0 3.0 -20.85 3.25 -20.95 3.3 -21.2 3.05 -21.5 2.8 -21.7"/><path fill="#c55c18" stroke="none" d="M2.75 -20.05 L0.95 -20.75 0.9 -20.7 1.15 -20.0 Q1.45 -19.65 1.9 -19.6 2.3 -19.55 2.65 -19.85 L2.75 -20.05"/><path fill="#fbc904" stroke="none" d="M-0.15 -25.3 L-0.15 -25.35 -0.1 -25.4 Q0.2 -25.7 0.6 -25.85 1.15 -25.9 1.5 -25.6 L2.0 -24.85 Q2.15 -24.35 1.9 -24.0 L1.85 -23.95 1.75 -23.85 1.35 -23.5 1.1 -23.45 0.2 -23.6 Q-0.25 -23.9 -0.35 -24.4 -0.45 -24.9 -0.15 -25.3"/><path fill="#5c7681" stroke="none" d="M-0.1 -25.4 L-0.15 -25.35 -0.1 -25.4"/><path fill="none" stroke="#11141a" stroke-width="0.5" stroke-opacity="0.380392156863" d="M-0.15 -25.3 Q-0.45 -24.9 -0.35 -24.4 -0.25 -23.9 0.2 -23.6 L1.1 -23.45 1.35 -23.5 1.75 -23.85 1.85 -23.95 1.9 -24.0 Q2.15 -24.35 2.0 -24.85 L1.5 -25.6 Q1.15 -25.9 0.6 -25.85 0.2 -25.7 -0.1 -25.4 M-0.15 -25.35 L-0.1 -25.4"/><path fill="#ffffff" stroke="none" d="M1.2 -25.15 L1.0 -25.0 0.95 -24.8 1.15 -24.55 1.45 -24.35 1.6 -24.5 1.65 -24.75 1.5 -24.95 1.2 -25.15"/><path fill="#c55c18" stroke="none" d="M1.2 -23.6 Q0.3 -23.75 -0.5 -24.25 L-0.55 -24.2 -0.3 -23.55 Q0.0 -23.2 0.35 -23.2 0.8 -23.15 1.05 -23.4 L1.2 -23.6"/><path fill="#fbc904" stroke="none" d="M4.3 -25.7 L4.35 -25.75 5.05 -26.2 5.95 -25.95 6.45 -25.2 Q6.6 -24.7 6.35 -24.35 L6.3 -24.3 6.15 -24.2 5.8 -23.85 5.55 -23.8 Q5.0 -23.7 4.65 -23.95 4.2 -24.25 4.1 -24.75 4.0 -25.25 4.3 -25.65 L4.3 -25.7"/><path fill="#5c7681" stroke="none" d="M4.3 -25.7 L4.35 -25.75 4.3 -25.7"/><path fill="none" stroke="#11141a" stroke-width="0.5" stroke-opacity="0.380392156863" d="M4.35 -25.75 L4.3 -25.7 M4.35 -25.75 L5.05 -26.2 5.95 -25.95 6.45 -25.2 Q6.6 -24.7 6.35 -24.35 L6.3 -24.3 6.15 -24.2 5.8 -23.85 5.55 -23.8 Q5.0 -23.7 4.65 -23.95 4.2 -24.25 4.1 -24.75 4.0 -25.25 4.3 -25.65"/><path fill="#ffffff" stroke="none" d="M5.7 -25.5 L5.5 -25.35 5.45 -25.15 5.65 -24.9 5.95 -24.7 6.1 -24.85 6.15 -25.1 6.0 -25.3 5.7 -25.5"/><path fill="#c55c18" stroke="none" d="M5.55 -23.95 Q4.65 -24.1 3.85 -24.6 L3.8 -24.55 Q3.8 -24.2 4.05 -23.9 L4.7 -23.55 Q5.15 -23.5 5.4 -23.75 L5.55 -23.95"/><path fill="#ffffff" fill-opacity="0.250980392157" d="M7.0 -19.65 L7.7 -21.0 7.6 -21.8 6.8 -21.0 7.0 -19.65 M7.8 -22.55 L8.25 -20.8 7.2 -19.0 6.45 -18.75 6.0 -21.3 7.7 -22.6 7.8 -22.55"/><path fill="#ffffff" stroke="none" d="M7.0 -19.65 L6.8 -21.0 7.6 -21.8 7.7 -21.0 7.0 -19.65"/><path fill="#ffffff" stroke="none" d="M-1.0 -18.45 L-0.85 -20.0 0.2 -21.0 0.1 -20.1 -1.0 -18.45"/><path fill="#ffffff" fill-opacity="0.250980392157" d="M0.6 -21.95 L0.65 -19.9 -0.9 -17.65 -1.75 -17.35 -1.65 -20.35 0.5 -22.0 0.6 -21.95 M-1.0 -18.45 L0.1 -20.1 0.2 -21.0 -0.85 -20.0 -1.0 -18.45"/></g><g id="c10"><g><use transform="matrix(1.0,0.0,0.0,1.0,0.0,0.0)" xlink:href="#c9"/></g></g><g id="c11"><g><use transform="matrix(1.0,0.0,0.0,1.0,11.3,26.2)" xlink:href="#c10"/></g></g><g id="c12"><g><use transform="matrix(1.0,0.0,0.0,1.0,0.0,0.0)" xlink:href="#c2"/></g><g><use transform="matrix(0.238861083984,-0.0867004394531,0.10026550293,0.233917236328,34.25,31.15)" xlink:href="#c4"/></g><g><use transform="matrix(0.238861083984,-0.0867004394531,0.10026550293,0.233917236328,4.25,10.3)" xlink:href="#c4"/></g><g><use transform="matrix(0.141098022461,-0.0378112792969,0.111373901367,0.225646972656,20.25,20.65)" filter="url(#filter9)" xlink:href="#c6"/></g><g><use transform="matrix(-0.155029296875,0.0513153076172,0.0841827392578,0.147033691406,22.6,2.3)" filter="url(#filter10)" xlink:href="#c8"/></g><g><use transform="matrix(-0.736038208008,0.197174072266,0.199066162109,0.74299621582,26.8,11.05)" xlink:href="#c11"/></g><g><use transform="matrix(0.162948608398,-0.0436706542969,0.128631591797,0.260604858398,20.35,20.95)" filter="url(#filter12)" xlink:href="#c6"/></g></g><filter id="filter9"><feColorMatrix in="SourceGraphic" type="matrix" values="0.0 0.0 0.0 0.0 0.796875 0.0 0.0 0.0 0.0 0.59765625 0.0 0.0 0.0 0.0 0.19921875 0.0 0.0 0.0 1.0 0.0" result="cxform"/><feComposite operator="in" in2="SourceGraphic" result="color-xform"/></filter><filter id="filter10"><feColorMatrix in="SourceGraphic" type="matrix" values="0.0 0.0 0.0 0.0 0.99609375 0.0 0.0 0.0 0.0 0.99609375 0.0 0.0 0.0 0.0 0.99609375 0.0 0.0 0.0 1.0 0.0" result="cxform"/><feComposite operator="in" in2="SourceGraphic" result="color-xform"/></filter><filter id="filter12"><feColorMatrix in="SourceGraphic" type="matrix" values="1.0 0.0 0.0 0.0 0.0 0.0 1.0 0.0 0.0 0.0 0.0 0.0 1.0 0.0 0.0 0.0 0.0 0.0 0.23046875 0.0" result="cxform"/><feComposite operator="in" in2="SourceGraphic" result="color-xform"/></filter></defs><g><g><use transform="matrix(1.0,0.0,0.0,1.0,0.0,0.0)" xlink:href="#c1"/></g><g><use transform="matrix(1.15496826172,0.0,0.0,1.15496826172,5.85,3.95)" xlink:href="#c12"/></g></g></svg>