<?xml version='1.0' encoding='UTF-8'?>
<svg xmlns:xlink="http://www.w3.org/1999/xlink" xmlns="http://www.w3.org/2000/svg" version="1.1" width="60px" height="60px" viewBox="0.0 0.0 60.0 60.0"><defs><radialGradient gradientUnits="userSpaceOnUse" r="819.2" cx="0" cy="0" spreadMethod="pad" gradientTransform="matrix(-0.00393676757812,0.00228881835938,0.00411987304688,0.00711059570312,5.05,-3.25)" id="gradient1"><stop offset="0.349019607843" stop-color="#ffe353"/><stop offset="0.572549019608" stop-color="#ff9900"/><stop offset="0.992156862745" stop-color="#c97318"/></radialGradient><radialGradient gradientUnits="userSpaceOnUse" r="819.2" cx="0" cy="0" spreadMethod="pad" gradientTransform="matrix(0.00154113769531,-0.00250244140625,0.000137329101562,0.00265502929688,6.8,0.9)" id="gradient2"><stop offset="0.478431372549" stop-color="#ffe353"/><stop offset="0.63137254902" stop-color="#ffe353" stop-opacity="0.0"/></radialGradient><radialGradient gradientUnits="userSpaceOnUse" r="819.2" cx="0" cy="0" spreadMethod="pad" gradientTransform="matrix(-0.0167846679688,0.000869750976562,0.0,0.0128173828125,0.85,-4.7)" id="gradient3"><stop offset="0.0" stop-color="#a7ca2c"/><stop offset="0.549019607843" stop-color="#19804c"/><stop offset="1.0" stop-color="#11663c"/></radialGradient><radialGradient gradientUnits="userSpaceOnUse" r="819.2" cx="0" cy="0" spreadMethod="pad" gradientTransform="matrix(-0.00701904296875,0.000350952148438,0.0,0.00686645507812,-0.15,6.25)" id="gradient4"><stop offset="0.0" stop-color="#a7ca2c"/><stop offset="0.549019607843" stop-color="#147c4d"/><stop offset="0.972549019608" stop-color="#11663c"/></radialGradient><radialGradient gradientUnits="userSpaceOnUse" r="819.2" cx="0" cy="0" spreadMethod="pad" gradientTransform="matrix(-0.0162811279297,0.000839233398438,0.00154113769531,0.014892578125,1.55,-3.55)" id="gradient5"><stop offset="0.0" stop-color="#a7ca2c"/><stop offset="0.549019607843" stop-color="#147c4d"/><stop offset="0.972549019608" stop-color="#19804c"/></radialGradient><radialGradient gradientUnits="userSpaceOnUse" r="819.2" cx="0" cy="0" spreadMethod="pad" gradientTransform="matrix(-0.0142974853516,0.000732421875,0.0,0.00736999511719,1.65,-4.7)" id="gradient6"><stop offset="0.41568627451" stop-color="#a7ca2c"/><stop offset="0.788235294118" stop-color="#a7ca2c" stop-opacity="0.0"/></radialGradient><radialGradient gradientUnits="userSpaceOnUse" r="819.2" cx="0" cy="0" spreadMethod="pad" gradientTransform="matrix(-0.00508117675781,0.00222778320312,0.0,0.00340270996094,2.85,6.25)" id="gradient7"><stop offset="0.0" stop-color="#a7ca2c"/><stop offset="0.549019607843" stop-color="#11663c"/></radialGradient><radialGradient gradientUnits="userSpaceOnUse" r="819.2" cx="0" cy="0" spreadMethod="pad" gradientTransform="matrix(-0.00944519042969,-0.00291442871094,-0.00180053710938,0.00666809082031,-3.6,2.15)" id="gradient8"><stop offset="0.349019607843" stop-color="#ffe353"/><stop offset="0.572549019608" stop-color="#ff9900"/><stop offset="0.992156862745" stop-color="#c97318"/></radialGradient><radialGradient gradientUnits="userSpaceOnUse" r="819.2" cx="0" cy="0" spreadMethod="pad" gradientTransform="matrix(-0.00439453125,-0.000885009765625,-0.000411987304688,0.0020751953125,-4.2,6.95)" id="gradient9"><stop offset="0.478431372549" stop-color="#ffe353"/><stop offset="0.63137254902" stop-color="#ffe353" stop-opacity="0.0"/></radialGradient><g id="c1"><path stroke="none" fill="url(#gradient1)" d="M5.1 -4.3 Q4.2 -4.25 3.65 -3.0 3.1 -1.75 3.1 -0.1 3.1 1.5 3.75 2.65 4.4 3.8 5.35 3.8 6.25 3.8 6.95 2.65 7.6 1.5 7.6 -0.1 7.6 -1.75 6.8 -3.05 6.0 -4.35 5.1 -4.3"/><path fill="none" stroke="#000000" stroke-width="0.5" stroke-opacity="0.301960784314" d="M5.1 -4.3 Q4.2 -4.25 3.65 -3.0 3.1 -1.75 3.1 -0.1 3.1 1.5 3.75 2.65 4.4 3.8 5.35 3.8 6.25 3.8 6.95 2.65 7.6 1.5 7.6 -0.1 7.6 -1.75 6.8 -3.05 6.0 -4.35 5.1 -4.3"/><path stroke="none" fill="url(#gradient2)" d="M7.0 2.45 Q6.6 2.85 6.35 2.65 6.05 2.4 6.0 1.95 5.9 1.45 6.75 0.05 L7.1 -0.75 Q7.85 -2.45 7.6 0.8 L7.0 2.45"/><path fill="#000000" stroke="none" d="M6.85 0.55 L7.1 0.9 7.4 0.55 7.5 -0.35 7.35 -1.2 7.05 -1.55 6.8 -1.2 Q6.65 -0.85 6.65 -0.35 L6.85 0.55"/><path fill="#ffffff" stroke="none" d="M6.8 -0.05 L6.55 0.1 6.4 0.35 6.35 0.5 6.45 0.5 6.7 0.3 6.85 0.1 6.9 -0.1 6.8 -0.05"/><path fill="#19804c" stroke="none" d="M5.05 6.4 L5.1 6.35 5.3 4.5 Q4.3 7.3 -1.1 6.95 L-2.25 6.45 Q0.6 8.2 1.9 8.05 3.8 7.85 5.05 6.4"/><path stroke="none" fill="url(#gradient3)" d="M5.3 4.5 Q7.1 -1.4 5.45 -4.1 3.85 -6.8 1.6 -7.25 L-1.6 -7.45 Q-4.1 -5.35 -4.95 -3.3 -5.8 -1.3 -5.45 3.75 L-5.4 4.25 -3.7 5.5 -2.25 6.45 -1.1 6.95 Q4.3 7.3 5.3 4.5"/><path stroke="none" fill="url(#gradient4)" d="M-5.4 4.25 L-5.35 4.8 Q-0.2 8.7 1.75 8.5 3.65 8.25 4.95 6.75 L5.05 6.4 Q3.8 7.85 1.9 8.05 0.6 8.2 -2.25 6.45 L-3.7 5.5 -5.4 4.25"/><path fill="none" stroke="#000000" stroke-width="0.5" stroke-opacity="0.301960784314" d="M5.3 4.5 Q7.1 -1.4 5.45 -4.1 3.85 -6.8 1.6 -7.25 L-1.6 -7.45 Q-4.1 -5.35 -4.95 -3.3 -5.8 -1.3 -5.45 3.75 L-5.4 4.25 -5.35 4.8 Q-0.2 8.7 1.75 8.5 3.65 8.25 4.95 6.75 L5.05 6.4 5.1 6.35 5.3 4.5"/><path stroke="none" fill="url(#gradient5)" d="M-1.9 -2.65 Q-3.0 -1.6 -2.1 -0.35 0.05 0.9 0.45 3.25 0.9 5.6 2.45 5.0 4.15 4.85 5.0 3.75 6.5 0.85 5.4 -2.55 3.55 -5.7 -0.05 -4.8 L-1.9 -2.65"/><path fill="#73ae37" stroke="none" d="M2.0 6.85 Q0.65 6.85 1.45 7.05 2.25 7.25 3.4 6.65 4.55 6.1 4.75 5.2 L4.05 6.05 Q3.3 6.8 2.0 6.85"/><path stroke="none" fill="url(#gradient6)" d="M-3.35 -3.6 Q-4.3 -2.1 -3.8 -1.5 -3.3 -0.9 -1.65 0.15 0.05 1.15 1.25 0.6 2.45 0.05 4.3 -0.4 6.15 -0.85 5.45 -2.65 4.75 -4.4 3.7 -5.55 L-0.8 -5.65 Q-2.35 -5.05 -3.35 -3.6"/><path stroke="none" fill="url(#gradient7)" d="M2.9 6.5 L0.5 6.6 3.4 6.8 Q4.5 6.05 5.25 4.45 4.25 6.05 2.9 6.5"/><path fill="#fdfdfd" stroke="none" d="M3.1 7.0 L3.4 6.95 3.75 6.7 3.9 6.5 3.75 6.35 3.4 6.45 3.1 6.65 2.95 6.9 3.1 7.0"/><path fill="#d05f18" stroke="none" d="M-2.3 -2.95 Q-1.25 -2.95 -1.45 -4.15 L-0.65 -2.95 Q-1.45 -4.3 -2.65 -5.65 -2.65 -4.2 -2.3 -2.95 M5.9 -6.0 L6.4 -8.5 Q5.2 -7.7 4.35 -6.7 4.85 -5.4 5.9 -6.0"/><path fill="#b64616" stroke="none" d="M-0.65 -2.95 L-1.45 -4.15 Q-1.25 -2.95 -2.3 -2.95 L-1.9 -1.8 Q-0.4 -0.6 -0.3 -2.4 L-0.35 -2.4 -0.35 -2.45 -0.65 -2.95 M4.35 -6.7 L3.8 -6.0 3.15 -4.8 Q3.95 -3.5 4.95 -3.65 L5.9 -6.0 Q4.85 -5.4 4.35 -6.7"/><path stroke="none" fill="url(#gradient8)" d="M-7.65 4.3 Q-7.8 5.9 -6.7 7.05 -5.6 8.2 -4.0 8.25 -2.45 8.3 -1.35 7.25 -0.2 6.2 -0.2 4.6 -0.2 3.05 -1.35 1.65 -2.5 0.2 -3.95 0.2 -5.45 0.2 -6.45 1.45 -7.5 2.65 -7.65 4.3"/><path fill="none" stroke="#000000" stroke-width="0.5" stroke-opacity="0.301960784314" d="M-7.65 4.3 Q-7.8 5.9 -6.7 7.05 -5.6 8.2 -4.0 8.25 -2.45 8.3 -1.35 7.25 -0.2 6.2 -0.2 4.6 -0.2 3.05 -1.35 1.65 -2.5 0.2 -3.95 0.2 -5.45 0.2 -6.45 1.45 -7.5 2.65 -7.65 4.3"/><path stroke="none" fill="url(#gradient9)" d="M-4.7 8.25 L-2.8 7.95 Q-2.05 7.65 -1.85 7.2 -1.65 6.8 -4.0 6.3 L-5.05 5.9 Q-7.15 5.15 -6.4 7.35 -5.75 8.15 -4.7 8.25"/><path fill="#000000" stroke="none" d="M-3.3 6.4 Q-3.1 6.7 -2.8 6.65 L-2.25 6.25 -2.05 5.4 -2.25 4.65 Q-2.45 4.3 -2.8 4.35 L-3.3 4.75 -3.55 5.6 -3.3 6.4"/><path fill="#ffffff" stroke="none" d="M-3.45 5.3 L-3.75 5.3 -4.1 5.35 -4.25 5.55 -4.1 5.7 -3.75 5.75 -3.45 5.65 -3.3 5.45 -3.45 5.3"/></g><g id="c2"><g><use transform="matrix(1.0,0.0,0.0,1.0,0.0,0.0)" xlink:href="#c1"/></g></g><radialGradient gradientUnits="userSpaceOnUse" r="819.2" cx="0" cy="0" spreadMethod="pad" gradientTransform="matrix(-0.00665283203125,0.0,0.0,0.00665283203125,-0.45,-5.25)" id="gradient10"><stop offset="0.0" stop-color="#a7ca2c"/><stop offset="0.549019607843" stop-color="#147c4d"/><stop offset="0.972549019608" stop-color="#19804c"/></radialGradient><radialGradient gradientUnits="userSpaceOnUse" r="819.2" cx="0" cy="0" spreadMethod="pad" gradientTransform="matrix(-0.00529479980469,0.0,0.0,0.00602722167969,-1.35,-4.3)" id="gradient11"><stop offset="0.41568627451" stop-color="#a7ca2c"/><stop offset="0.972549019608" stop-color="#a7ca2c" stop-opacity="0.0"/></radialGradient><radialGradient gradientUnits="userSpaceOnUse" r="819.2" cx="0" cy="0" spreadMethod="pad" gradientTransform="matrix(-0.00357055664062,0.00123596191406,0.0,0.00396728515625,-2.8,-0.7)" id="gradient12"><stop offset="0.0" stop-color="#a7ca2c"/><stop offset="0.549019607843" stop-color="#3b9143"/></radialGradient><radialGradient gradientUnits="userSpaceOnUse" r="819.2" cx="0" cy="0" spreadMethod="pad" gradientTransform="matrix(-0.00213623046875,3.0517578125e-05,0.000823974609375,0.00297546386719,-2.65,3.5)" id="gradient13"><stop offset="0.290196078431" stop-color="#081544"/><stop offset="0.792156862745" stop-color="#081544" stop-opacity="0.0"/></radialGradient><g id="c3"><path stroke="none" fill="url(#gradient10)" d="M4.05 -3.8 L4.0 -3.9 2.75 -5.75 Q1.75 -6.95 0.6 -6.95 -0.55 -7.0 -2.25 -5.4 -3.9 -3.8 -4.75 -1.4 -5.25 -0.05 -5.15 1.5 -4.1 0.5 -0.05 3.65 0.4 4.0 0.45 3.4 0.55 -5.5 4.05 -3.8"/><path fill="#2e8947" stroke="none" d="M-5.15 1.5 Q-5.25 -0.05 -4.75 -1.4 -3.9 -3.8 -2.25 -5.4 -0.55 -7.0 0.6 -6.95 1.75 -6.95 2.75 -5.75 L4.0 -3.9 4.05 -3.8 Q4.8 -1.8 5.2 2.55 5.55 7.0 -1.6 6.9 -3.7 6.85 -4.65 3.9 L-5.15 1.5 M0.6 -7.3 Q-0.6 -7.3 -2.35 -5.6 -4.05 -3.95 -4.95 -1.45 -5.85 1.0 -4.85 4.1 -3.85 7.2 -1.65 7.25 5.8 7.3 5.4 2.7 5.0 -1.95 4.2 -4.05 L2.9 -6.0 Q1.85 -7.25 0.6 -7.3"/><path fill="#40751c" stroke="none" d="M-5.15 1.5 L-4.65 3.9 Q-3.7 6.85 -1.6 6.9 5.55 7.0 5.2 2.55 4.8 -1.8 4.05 -3.8 0.55 -5.5 0.45 3.4 0.4 4.0 -0.05 3.65 -4.1 0.5 -5.15 1.5"/><path fill="none" stroke="#000000" stroke-width="0.5" stroke-opacity="0.301960784314" d="M0.6 -7.3 Q-0.6 -7.3 -2.35 -5.6 -4.05 -3.95 -4.95 -1.45 -5.85 1.0 -4.85 4.1 -3.85 7.2 -1.65 7.25 5.8 7.3 5.4 2.7 5.0 -1.95 4.2 -4.05 L2.9 -6.0 Q1.85 -7.25 0.6 -7.3"/><path fill="#035043" stroke="none" d="M-1.75 1.3 Q-2.95 0.15 -3.75 0.6 -4.6 1.05 -4.8 1.8 L-5.0 3.15 -4.5 4.7 Q-3.9 6.15 -3.05 6.75 L-1.55 7.2 0.15 6.9 Q0.95 6.55 0.2 4.5 -0.55 2.45 -1.75 1.3"/><path stroke="none" fill="url(#gradient11)" d="M-0.6 -4.5 Q-0.15 -6.25 -2.65 -4.65 -5.75 -1.0 -2.25 0.5 -1.0 -2.7 -0.6 -4.5"/><path stroke="none" fill="url(#gradient12)" d="M-4.5 -1.0 Q-3.15 0.0 -2.45 0.05 -1.7 -0.55 -1.2 -2.25 -1.85 -0.65 -2.8 -0.45 -3.95 -0.65 -4.5 -1.0"/><path fill="#fdfdfd" stroke="none" d="M-2.65 0.0 L-2.4 0.0 -2.2 -0.15 -2.1 -0.45 -2.2 -0.6 -2.4 -0.6 -2.65 -0.45 -2.75 -0.2 -2.65 0.0"/><path stroke="none" fill="url(#gradient13)" d="M-4.15 3.55 L-3.25 5.25 Q-2.6 6.0 -2.0 5.95 -1.4 5.95 -1.15 5.25 -0.95 4.5 -1.25 3.5 -1.5 2.5 -2.15 1.8 -2.75 1.1 -3.4 1.1 -4.0 1.1 -4.2 1.85 -4.45 2.55 -4.15 3.55"/><path fill="#9b2d17" stroke="none" d="M-1.8 3.95 L-1.8 3.85 Q-1.9 3.15 -2.3 2.65 -2.7 2.15 -3.2 2.15 -3.65 2.15 -3.95 2.65 -4.2 3.15 -4.1 3.85 L-4.1 3.95 Q-2.65 5.1 -1.8 3.95"/><path fill="#7d1d13" stroke="none" d="M-4.1 3.95 Q-4.0 4.6 -3.6 5.05 -3.2 5.55 -2.75 5.55 L-1.95 5.05 Q-1.7 4.6 -1.8 3.95 -2.65 5.1 -4.1 3.95"/><path fill="none" stroke="#000000" stroke-width="0.5" stroke-opacity="0.286274509804" d="M-1.8 3.95 L-1.8 3.85 Q-1.9 3.15 -2.3 2.65 -2.7 2.15 -3.2 2.15 -3.65 2.15 -3.95 2.65 -4.2 3.15 -4.1 3.85 L-4.1 3.95 Q-4.0 4.6 -3.6 5.05 -3.2 5.55 -2.75 5.55 L-1.95 5.05 Q-1.7 4.6 -1.8 3.95"/><path fill="#ffe353" stroke="none" d="M-2.9 3.3 L-2.65 3.45 -2.55 3.3 -2.45 3.05 -2.6 2.8 -2.75 2.65 -2.95 2.8 -2.95 3.05 -2.9 3.3"/></g><g id="c4"><g><use transform="matrix(1.0,0.0,0.0,1.0,0.0,0.0)" xlink:href="#c3"/></g></g><radialGradient gradientUnits="userSpaceOnUse" r="819.2" cx="0" cy="0" spreadMethod="pad" gradientTransform="matrix(-0.00160217285156,0.00123596191406,-0.00079345703125,0.00459289550781,-2.1,-0.6)" id="gradient14"><stop offset="0.0" stop-color="#aacf52"/><stop offset="0.549019607843" stop-color="#4f9b3e"/></radialGradient><radialGradient gradientUnits="userSpaceOnUse" r="819.2" cx="0" cy="0" spreadMethod="pad" gradientTransform="matrix(-0.00154113769531,1.52587890625e-05,0.000595092773438,0.00215148925781,-1.6,1.9)" id="gradient15"><stop offset="0.290196078431" stop-color="#081544"/><stop offset="0.792156862745" stop-color="#081544" stop-opacity="0.0"/></radialGradient><g id="c5"><path fill="#167e4c" stroke="none" d="M1.0 -3.7 Q-1.1 -0.95 -1.15 1.55 -1.85 2.8 -2.7 2.15 L-2.75 1.95 Q-3.15 0.45 -2.7 -0.75 -2.2 -2.1 -1.25 -3.0 L0.35 -3.9 1.0 -3.7"/><path fill="#2e8947" stroke="none" d="M1.1 -3.85 L1.0 -3.7 0.35 -3.9 -1.25 -3.0 Q-2.2 -2.1 -2.7 -0.75 -3.15 0.45 -2.75 1.95 L-2.7 2.15 -2.85 2.0 Q-3.3 0.45 -2.8 -0.8 -2.3 -2.2 -1.3 -3.15 -0.35 -4.1 0.35 -4.1 L1.1 -3.85"/><path fill="#40751c" stroke="none" d="M1.1 -3.85 L1.65 -3.35 2.35 -2.3 2.35 -2.25 2.4 -2.25 Q2.8 -1.05 3.05 1.55 L3.05 1.65 Q3.2 4.15 -0.95 4.1 -2.2 4.1 -2.75 2.35 L-2.85 2.0 -2.7 2.15 Q-1.85 2.8 -1.15 1.55 -1.1 -0.95 1.0 -3.7 L1.1 -3.85"/><path fill="none" stroke="#000000" stroke-width="0.5" stroke-opacity="0.301960784314" d="M-2.85 2.0 L-2.75 2.35 Q-2.2 4.1 -0.95 4.1 3.2 4.15 3.05 1.65 L3.05 1.55 Q2.8 -1.05 2.4 -2.25 L2.35 -2.25 2.35 -2.3 1.65 -3.35 1.1 -3.85 M-2.85 2.0 Q-3.3 0.45 -2.8 -0.8 -2.3 -2.2 -1.3 -3.15 -0.35 -4.1 0.35 -4.1 L1.1 -3.85 M-2.75 1.95 L-2.7 2.15"/><path stroke="none" fill="url(#gradient14)" d="M-2.1 0.35 Q-1.7 -0.3 -1.15 -2.25 -1.75 -0.45 -2.15 -0.3 L-2.7 -1.0 Q-2.4 0.25 -2.1 0.35"/><path fill="#fdfdfd" stroke="none" d="M-2.25 0.3 L-2.15 0.3 -2.0 0.15 -2.0 -0.15 -2.0 -0.3 -2.15 -0.3 -2.25 -0.15 -2.3 0.1 -2.25 0.3"/><path fill="#035043" stroke="none" d="M-2.85 1.05 L-2.9 1.8 -2.65 2.65 -1.8 3.85 -0.85 4.05 0.15 3.75 Q0.6 3.45 0.15 2.3 -0.3 1.2 -1.0 0.6 -1.65 0.05 -2.2 0.35 -2.7 0.65 -2.85 1.05"/><path stroke="none" fill="url(#gradient15)" d="M-2.0 3.15 Q-1.55 3.65 -1.1 3.65 L-0.5 3.15 Q-0.35 2.65 -0.55 1.9 -0.75 1.15 -1.2 0.65 -1.7 0.15 -2.1 0.15 -2.55 0.15 -2.7 0.65 L-2.65 1.95 -2.0 3.15"/><path fill="#9b2d17" stroke="none" d="M-0.9 1.95 L-0.9 1.9 -1.3 1.1 Q-1.65 0.8 -2.0 0.8 -2.35 0.85 -2.5 1.25 -2.7 1.6 -2.55 2.1 L-2.55 2.15 Q-1.45 2.9 -0.9 1.95"/><path fill="#7d1d13" stroke="none" d="M-2.55 2.15 L-2.1 2.9 -1.45 3.25 -0.95 2.8 Q-0.8 2.45 -0.9 1.95 -1.45 2.9 -2.55 2.15"/><path fill="none" stroke="#000000" stroke-width="0.5" stroke-opacity="0.286274509804" d="M-0.9 1.95 L-0.9 1.9 -1.3 1.1 Q-1.65 0.8 -2.0 0.8 -2.35 0.85 -2.5 1.25 -2.7 1.6 -2.55 2.1 L-2.55 2.15 -2.1 2.9 -1.45 3.25 -0.95 2.8 Q-0.8 2.45 -0.9 1.95"/><path fill="#ffe353" stroke="none" d="M-1.55 1.65 L-1.4 1.7 -1.3 1.6 -1.3 1.4 -1.4 1.2 -1.55 1.2 -1.65 1.25 -1.65 1.45 -1.55 1.65"/></g><g id="c6"><g><use transform="matrix(1.0,0.0,0.0,1.0,0.0,0.0)" xlink:href="#c5"/></g></g><radialGradient gradientUnits="userSpaceOnUse" r="819.2" cx="0" cy="0" spreadMethod="pad" gradientTransform="matrix(0.0665130615234,0.0,0.0,0.0343933105469,18.55,7.65)" id="gradient16"><stop offset="0.0" stop-opacity="0.490196078431"/><stop offset="0.494117647059" stop-opacity="0.243137254902"/><stop offset="0.882352941176" stop-opacity="0.0117647058824"/><stop offset="1.0" stop-opacity="0.0"/></radialGradient><g id="c7"><path stroke="none" fill="url(#gradient16)" d="M55.85 -11.45 Q70.8 -3.95 70.8 7.65 70.8 19.25 55.85 26.7 40.15 35.0 18.55 35.0 -3.8 35.0 -19.55 26.7 -35.3 19.25 -35.3 7.65 -35.3 -3.95 -19.55 -11.45 -3.8 -19.7 18.55 -19.7 40.15 -19.7 55.85 -11.45"/></g><g id="c8"><g><use transform="matrix(1.0,0.0,0.0,1.0,0.0,0.0)" xlink:href="#c7"/></g></g><radialGradient gradientUnits="userSpaceOnUse" r="819.2" cx="0" cy="0" spreadMethod="pad" gradientTransform="matrix(-0.0197448730469,-7.62939453125e-05,-0.000228881835938,0.0165863037109,1.65,-8.15)" id="gradient17"><stop offset="0.0" stop-color="#a7ca2c"/><stop offset="0.549019607843" stop-color="#147c4d"/><stop offset="0.972549019608" stop-color="#19804c"/></radialGradient><radialGradient gradientUnits="userSpaceOnUse" r="819.2" cx="0" cy="0" spreadMethod="pad" gradientTransform="matrix(-0.00294494628906,3.0517578125e-05,0.00108337402344,0.00419616699219,-4.9,4.25)" id="gradient18"><stop offset="0.290196078431" stop-color="#081544"/><stop offset="0.792156862745" stop-color="#081544" stop-opacity="0.0"/></radialGradient><radialGradient gradientUnits="userSpaceOnUse" r="819.2" cx="0" cy="0" spreadMethod="pad" gradientTransform="matrix(-0.007568359375,0.001220703125,-0.00106811523438,0.00888061523438,4.05,1.45)" id="gradient19"><stop offset="0.290196078431" stop-color="#081544"/><stop offset="0.792156862745" stop-color="#081544" stop-opacity="0.0"/></radialGradient><radialGradient gradientUnits="userSpaceOnUse" r="819.2" cx="0" cy="0" spreadMethod="pad" gradientTransform="matrix(-0.0242462158203,-9.1552734375e-05,-0.000137329101562,0.00941467285156,6.3,-7.1)" id="gradient20"><stop offset="0.41568627451" stop-color="#a7ca2c"/><stop offset="0.972549019608" stop-color="#a7ca2c" stop-opacity="0.0"/></radialGradient><radialGradient gradientUnits="userSpaceOnUse" r="819.2" cx="0" cy="0" spreadMethod="pad" gradientTransform="matrix(-0.00656127929688,-1.52587890625e-05,-0.00102233886719,0.00424194335938,-1.15,-1.15)" id="gradient21"><stop offset="0.0" stop-color="#e2e214"/><stop offset="0.549019607843" stop-color="#157c4c"/></radialGradient><g id="c9"><path fill="#2e8947" stroke="none" d="M8.75 0.1 L8.8 -3.45 8.4 -4.8 7.3 -6.85 Q6.45 -8.5 4.45 -9.85 2.45 -11.2 -1.9 -11.15 -6.25 -11.05 -8.05 -6.15 -8.9 -3.85 -8.9 -1.55 -9.0 1.1 -7.95 3.7 -6.05 8.6 -2.2 8.25 7.95 6.3 8.65 1.4 L8.75 0.1 M-2.3 8.65 Q-6.3 9.0 -8.3 3.9 -10.25 -1.2 -8.4 -6.35 -6.45 -11.5 -1.95 -11.55 2.55 -11.6 4.6 -10.2 6.7 -8.8 7.6 -7.1 L8.75 -4.95 Q9.65 -3.6 9.0 1.5 8.3 6.6 -2.3 8.65"/><path stroke="none" fill="url(#gradient17)" d="M-8.9 -1.55 Q-8.9 -3.85 -8.05 -6.15 -6.25 -11.05 -1.9 -11.15 2.45 -11.2 4.45 -9.85 6.45 -8.5 7.3 -6.85 L8.4 -4.8 8.8 -3.45 8.75 0.1 Q4.7 -3.4 -1.9 4.15 -5.7 3.9 -8.9 -1.55"/><path fill="#40751c" stroke="none" d="M-8.9 -1.55 Q-5.7 3.9 -1.9 4.15 4.7 -3.4 8.75 0.1 L8.65 1.4 Q7.95 6.3 -2.2 8.25 -6.05 8.6 -7.95 3.7 -9.0 1.1 -8.9 -1.55"/><path fill="none" stroke="#000000" stroke-width="0.5" stroke-opacity="0.301960784314" d="M-2.3 8.65 Q8.3 6.6 9.0 1.5 9.65 -3.6 8.75 -4.95 L7.6 -7.1 Q6.7 -8.8 4.6 -10.2 2.55 -11.6 -1.95 -11.55 -6.45 -11.5 -8.4 -6.35 -10.25 -1.2 -8.3 3.9 -6.3 9.0 -2.3 8.65"/><path fill="#035043" stroke="none" d="M-6.6 -2.1 Q-7.8 -2.1 -8.45 -0.55 -9.1 1.0 -8.15 3.75 -7.25 6.5 -6.9 6.45 L-5.05 7.9 Q-3.6 8.8 -2.4 8.3 -1.2 7.75 -1.75 4.85 -2.2 1.95 -3.75 -0.1 -5.35 -2.1 -6.6 -2.1"/><path stroke="none" fill="url(#gradient18)" d="M-5.75 6.7 Q-4.9 7.7 -4.1 7.7 -3.25 7.7 -2.9 6.65 -2.55 5.65 -2.9 4.25 -3.3 2.8 -4.15 1.8 -5.0 0.85 -5.85 0.85 -6.65 0.85 -7.0 1.85 -7.35 2.85 -6.95 4.3 -6.6 5.7 -5.75 6.7"/><path stroke="none" fill="url(#gradient19)" d="M-1.05 2.3 Q-1.45 5.35 -0.15 7.2 1.05 9.1 3.2 8.75 5.35 8.4 7.1 6.0 8.9 3.65 9.25 0.65 9.6 -2.35 8.35 -4.25 7.1 -6.15 4.95 -5.8 2.8 -5.45 1.05 -3.05 -0.7 -0.7 -1.05 2.3"/><path stroke="none" fill="url(#gradient20)" d="M-7.1 -3.75 L-3.1 -1.5 Q-0.65 0.05 2.15 -2.05 4.7 -4.0 7.7 -4.45 8.3 -4.75 7.45 -6.0 6.15 -8.35 4.5 -9.8 2.4 -11.75 -3.45 -10.8 -5.05 -10.4 -6.8 -7.45 -8.55 -4.5 -7.1 -3.75"/><path stroke="none" fill="url(#gradient21)" d="M-4.0 -2.1 Q-1.85 -0.5 -0.7 -0.2 0.85 -0.5 2.15 -2.15 0.9 -1.35 -1.2 -1.45 -3.1 -1.5 -4.0 -2.1"/><path fill="#fdfdfd" stroke="none" d="M-1.05 -0.2 L-0.65 -0.1 -0.2 -0.2 0.0 -0.45 -0.15 -0.7 -0.6 -0.8 -1.0 -0.7 -1.25 -0.45 -1.05 -0.2"/><path fill="#9b2d17" stroke="none" d="M-3.75 4.7 L-3.75 4.6 Q-3.9 3.6 -4.45 2.9 -4.95 2.2 -5.6 2.2 -6.25 2.2 -6.7 2.9 -7.05 3.6 -6.9 4.6 L-6.9 4.7 Q-5.0 6.35 -3.75 4.7"/><path fill="#7d1d13" stroke="none" d="M-6.9 4.7 L-6.3 6.3 Q-5.75 7.0 -5.1 7.0 -4.4 7.0 -4.05 6.3 -3.65 5.65 -3.75 4.7 -5.0 6.35 -6.9 4.7"/><path fill="none" stroke="#000000" stroke-width="0.5" stroke-opacity="0.286274509804" d="M-3.75 4.7 L-3.75 4.6 Q-3.9 3.6 -4.45 2.9 -4.95 2.2 -5.6 2.2 -6.25 2.2 -6.7 2.9 -7.05 3.6 -6.9 4.6 L-6.9 4.7 -6.3 6.3 Q-5.75 7.0 -5.1 7.0 -4.4 7.0 -4.05 6.3 -3.65 5.65 -3.75 4.7"/><path fill="#ffe353" stroke="none" d="M-5.25 3.0 L-4.95 3.15 -4.75 3.0 -4.7 2.65 -4.85 2.3 Q-4.95 2.15 -5.1 2.15 L-5.35 2.3 -5.4 2.65 -5.25 3.0"/></g><g id="c10"><g><use transform="matrix(1.0,0.0,0.0,1.0,0.0,0.0)" xlink:href="#c9"/></g></g><g id="c11"><g><use transform="matrix(-0.342895507812,-0.0228881835938,0.0,0.348770141602,4.6,-1.25)" xlink:href="#c8"/></g><g><use transform="matrix(1.0,0.0,0.0,1.0,-11.7,-5.5)" xlink:href="#c6"/></g><g><use transform="matrix(1.0,0.0,0.0,1.0,-7.85,-6.9)" xlink:href="#c4"/></g><g><use transform="matrix(1.0,0.0,0.0,1.0,0.3,-4.55)" xlink:href="#c10"/></g><g><use transform="matrix(1.0,0.0,0.0,1.0,6.05,-0.35)" xlink:href="#c2"/></g></g><g id="c12"><path fill="#000000" fill-opacity="0.00392156862745" d="M0.0 0.0 L60.0 0.0 60.0 60.0 0.0 60.0 0.0 0.0"/></g><g id="c13"><path fill="none" stroke="#000000" stroke-width="1.0" stroke-opacity="0.301960784314" d="M22.3 0.35 Q26.6 -1.0 28.5 3.05 L41.4 31.7 Q43.1 35.4 39.9 36.85 L38.15 37.65 19.65 43.65 Q17.05 44.5 15.35 43.3 14.2 42.55 13.5 40.9 L0.55 12.25 Q-0.6 9.75 0.6 8.25 1.15 7.55 2.2 7.05 2.85 6.6 3.8 6.3 L22.3 0.35"/><path fill="#300525" stroke="none" d="M25.55 0.9 Q26.9 1.6 27.8 3.55 L40.7 32.15 Q42.6 36.3 38.3 37.65 L23.3 42.5 13.15 21.4 4.6 20.9 0.7 12.25 Q-0.45 9.75 0.75 8.25 L29.8 9.75 25.55 0.9 M20.1 43.55 L19.8 43.65 Q17.15 44.45 15.5 43.3 L20.1 43.55"/><path fill="#630a4c" stroke="none" d="M23.3 42.5 L20.1 43.55 15.5 43.3 Q14.35 42.55 13.65 40.9 L4.6 20.9 13.15 21.4 23.3 42.5 M0.75 8.25 Q1.45 7.3 3.1 6.75 L21.65 0.8 25.55 0.9 29.8 9.75 0.75 8.25"/><path fill="none" stroke="#000000" stroke-width="0.5" stroke-opacity="0.301960784314" d="M25.55 0.9 Q26.9 1.6 27.8 3.55 L40.7 32.15 Q42.6 36.3 38.3 37.65 L23.3 42.5 20.1 43.55 19.8 43.65 Q17.15 44.45 15.5 43.3 14.35 42.55 13.65 40.9 L4.6 20.9 0.7 12.25 Q-0.45 9.75 0.75 8.25 1.45 7.3 3.1 6.75 L21.65 0.8 25.55 0.9"/><path fill="#9d147b" stroke="none" d="M14.2 40.5 L1.35 11.8 Q-0.5 7.75 3.8 6.35 L22.3 0.4 Q26.55 -1.0 28.45 3.1 L41.35 31.7 Q43.25 35.85 38.9 37.25 L20.4 43.2 Q16.1 44.55 14.2 40.5"/><path fill="none" stroke="#000000" stroke-width="0.5" stroke-opacity="0.301960784314" d="M14.2 40.5 L1.35 11.8 Q-0.5 7.75 3.8 6.35 L22.3 0.4 Q26.55 -1.0 28.45 3.1 L41.35 31.7 Q43.25 35.85 38.9 37.25 L20.4 43.2 Q16.1 44.55 14.2 40.5"/><path fill="#fcf2cf" stroke="none" d="M9.15 13.6 Q9.8 12.8 9.55 11.6 L9.1 10.55 22.05 6.35 Q24.9 5.45 26.25 7.85 L26.5 8.3 35.8 29.0 35.95 29.35 Q34.75 29.3 34.1 30.1 33.45 30.9 33.7 32.1 L34.0 32.9 20.65 37.2 Q18.8 37.8 17.65 37.0 16.8 36.4 16.3 35.2 L6.95 14.6 6.8 14.4 7.1 14.4 Q8.4 14.45 9.15 13.6"/><path fill="#c47fad" stroke="none" d="M8.25 23.65 L3.35 12.8 Q1.65 9.1 5.5 7.85 L22.25 2.5 Q26.05 1.25 27.75 4.95 L28.25 6.1 35.55 22.3 39.35 30.75 Q41.1 34.5 37.2 35.7 L20.45 41.1 Q16.8 42.25 15.2 39.0 L15.0 38.6 8.25 23.65 M9.15 13.6 Q8.4 14.45 7.1 14.4 L6.8 14.4 6.95 14.6 16.3 35.2 Q16.8 36.4 17.65 37.0 18.8 37.8 20.65 37.2 L34.0 32.9 33.7 32.1 Q33.45 30.9 34.1 30.1 34.75 29.3 35.95 29.35 L35.8 29.0 26.5 8.3 26.25 7.85 Q24.9 5.45 22.05 6.35 L9.1 10.55 9.55 11.6 Q9.8 12.8 9.15 13.6"/><path fill="none" stroke="#ffcc00" stroke-width="1.0" stroke-opacity="0.749019607843" d="M8.25 23.65 L3.35 12.8 Q1.65 9.1 5.5 7.85 L22.25 2.5 Q26.05 1.25 27.75 4.95 L28.25 6.1 M35.55 22.3 L39.35 30.75 Q41.1 34.5 37.2 35.7 L20.45 41.1 Q16.8 42.25 15.2 39.0 L15.0 38.6"/><path fill="none" stroke="#bf9900" stroke-width="1.0" stroke-opacity="0.749019607843" d="M28.25 6.1 L35.55 22.3 M15.0 38.6 L8.25 23.65"/><path fill="none" stroke="#f0b92b" stroke-width="0.5" d="M9.15 13.6 Q9.8 12.8 9.55 11.6 L9.1 10.55 22.05 6.35 Q24.9 5.45 26.25 7.85 L26.5 8.3 35.8 29.0 35.95 29.35 Q34.75 29.3 34.1 30.1 33.45 30.9 33.7 32.1 L34.0 32.9 20.65 37.2 Q18.8 37.8 17.65 37.0 16.8 36.4 16.3 35.2 L6.95 14.6 6.8 14.4 7.1 14.4 Q8.4 14.45 9.15 13.6"/></g><g id="c14"><path fill="#7fdbfe" stroke="none" d="M10.75 4.9 Q10.75 4.6 10.9 4.35 11.25 3.45 11.95 2.75 13.3 1.5 14.35 2.1 15.4 2.7 14.95 4.45 14.7 5.4 14.1 6.15 L13.75 6.5 Q13.1 7.15 12.35 7.35 L11.4 7.2 Q10.95 6.9 10.75 6.4 10.5 5.75 10.75 4.9 M7.5 5.9 Q7.0 5.85 6.6 5.5 6.05 5.0 5.8 4.15 L5.7 3.6 Q5.55 2.65 5.8 1.7 6.25 0.0 7.5 0.0 L7.6 0.0 Q8.85 0.0 9.3 1.7 9.55 2.65 9.4 3.6 L9.3 4.15 8.5 5.5 7.6 5.9 7.5 5.9 M4.35 4.9 Q4.6 5.75 4.35 6.4 L3.7 7.2 2.75 7.35 Q2.0 7.15 1.35 6.5 L1.0 6.15 Q0.4 5.4 0.15 4.45 -0.3 2.7 0.75 2.1 1.8 1.5 3.15 2.75 3.85 3.45 4.2 4.35 L4.35 4.9 M5.5 13.7 Q4.45 13.9 3.65 12.95 2.75 12.0 3.2 10.25 3.7 8.5 5.25 7.6 6.4 6.9 7.55 7.0 8.75 6.9 9.9 7.6 11.45 8.5 11.95 10.25 12.35 12.0 11.5 12.95 10.7 13.9 9.65 13.7 8.55 13.5 7.55 12.6 6.55 13.5 5.5 13.7"/></g><g id="c15"><g><use transform="matrix(1.0,0.0,0.0,1.0,0.0,0.0)" xlink:href="#c14"/></g></g><radialGradient gradientUnits="userSpaceOnUse" r="819.2" cx="0" cy="0" spreadMethod="pad" gradientTransform="matrix(0.0914459228516,0.0,0.0,0.0914459228516,0.6,3.4)" id="gradient22"><stop offset="0.0" stop-color="#ffffff"/><stop offset="1.0" stop-color="#ffffff" stop-opacity="0.0"/></radialGradient><g id="c16"><path stroke="none" fill="url(#gradient22)" d="M36.65 -54.65 Q60.05 -42.0 69.75 -17.95 80.55 8.9 68.0 34.1 55.45 59.35 26.8 68.2 -1.8 77.05 -29.7 64.3 -57.6 51.6 -68.45 24.75 -79.3 -2.05 -66.75 -27.25 L-66.7 -27.3 Q-54.1 -52.5 -25.5 -61.4 3.1 -70.2 31.0 -57.5 L36.65 -54.65"/></g><g id="c17"><g><use transform="matrix(1.0,0.0,0.0,1.0,0.0,0.0)" xlink:href="#c16"/></g></g><radialGradient gradientUnits="userSpaceOnUse" r="819.2" cx="0" cy="0" spreadMethod="pad" gradientTransform="matrix(0.209197998047,0.0,0.0,0.177108764648,67.15,107.2)" id="gradient23"><stop offset="0.356862745098" stop-color="#ffffff"/><stop offset="0.670588235294" stop-opacity="0.0"/></radialGradient><g id="c18"><path fill="none" stroke-linejoin="round" stroke-linecap="round" stroke="url(#gradient23)" stroke-width="0.5" d="M136.55 165.8 L68.6 106.0 68.4 106.0 118.25 201.5 M68.2 105.7 L68.25 105.8 68.25 105.75 68.2 105.7 0.0 45.7 M68.25 105.8 L68.3 105.85 68.3 105.8 68.25 105.75 49.95 0.05 M0.05 97.7 L68.15 105.95 68.25 105.85 68.25 105.8 M68.3 105.85 L68.25 105.85 68.3 106.0 68.3 105.85 68.3 105.8 68.35 105.8 68.3 105.8 86.6 18.35 M50.0 193.2 L68.3 106.0 68.15 105.95 18.25 151.55 M68.4 106.0 L68.3 106.0 86.55 211.5 M68.4 106.0 L68.3 105.85 M68.6 106.0 L68.35 105.8 118.25 60.15 M136.6 114.25 L68.6 106.0 M68.2 105.7 L18.25 10.05"/></g><g id="c19"><g><use transform="matrix(1.0,0.0,0.0,1.0,0.0,0.0)" xlink:href="#c18"/></g></g><g id="c20"><g><use transform="matrix(1.0,0.0,0.0,1.0,0.0,0.0)" xlink:href="#c13"/></g><g><use transform="matrix(0.238861083984,-0.0867004394531,0.10026550293,0.233917236328,34.25,31.15)" xlink:href="#c15"/></g><g><use transform="matrix(0.238861083984,-0.0867004394531,0.10026550293,0.233917236328,4.25,10.3)" xlink:href="#c15"/></g><g><use transform="matrix(0.141098022461,-0.0378112792969,0.111373901367,0.225646972656,20.25,20.65)" filter="url(#filter17)" xlink:href="#c17"/></g><g><use transform="matrix(-0.155029296875,0.0513153076172,0.0841827392578,0.147033691406,22.6,2.3)" filter="url(#filter18)" xlink:href="#c19"/></g><g><use transform="matrix(0.635818481445,-0.0437927246094,0.0437927246094,0.635818481445,21.9,23.95)" xlink:href="#c11"/></g><g><use transform="matrix(0.162948608398,-0.0436706542969,0.128631591797,0.260604858398,20.35,20.95)" filter="url(#filter20)" xlink:href="#c17"/></g></g><filter id="filter17"><feColorMatrix in="SourceGraphic" type="matrix" values="0.0 0.0 0.0 0.0 0.796875 0.0 0.0 0.0 0.0 0.59765625 0.0 0.0 0.0 0.0 0.19921875 0.0 0.0 0.0 1.0 0.0" result="cxform"/><feComposite operator="in" in2="SourceGraphic" result="color-xform"/></filter><filter id="filter18"><feColorMatrix in="SourceGraphic" type="matrix" values="0.0 0.0 0.0 0.0 0.99609375 0.0 0.0 0.0 0.0 0.99609375 0.0 0.0 0.0 0.0 0.99609375 0.0 0.0 0.0 1.0 0.0" result="cxform"/><feComposite operator="in" in2="SourceGraphic" result="color-xform"/></filter><filter id="filter20"><feColorMatrix in="SourceGraphic" type="matrix" values="1.0 0.0 0.0 0.0 0.0 0.0 1.0 0.0 0.0 0.0 0.0 0.0 1.0 0.0 0.0 0.0 0.0 0.0 0.23046875 0.0" result="cxform"/><feComposite operator="in" in2="SourceGraphic" result="color-xform"/></filter></defs><g><g><use transform="matrix(1.0,0.0,0.0,1.0,0.0,0.0)" xlink:href="#c12"/></g><g><use transform="matrix(1.15496826172,0.0,0.0,1.15496826172,5.85,3.95)" xlink:href="#c20"/></g></g></svg>