<?xml version='1.0' encoding='UTF-8'?>
<svg xmlns:xlink="http://www.w3.org/1999/xlink" xmlns="http://www.w3.org/2000/svg" version="1.1" width="60px" height="60px" viewBox="0.0 0.0 60.0 60.0"><defs><g id="c1"><path fill="#000000" fill-opacity="0.00392156862745" d="M0.0 0.0 L60.0 0.0 60.0 60.0 0.0 60.0 0.0 0.0"/></g><g id="c2"><path fill="none" stroke="#000000" stroke-width="1.0" stroke-opacity="0.301960784314" d="M22.3 0.35 Q26.6 -1.0 28.5 3.05 L41.4 31.7 Q43.1 35.4 39.9 36.85 L38.15 37.65 19.65 43.65 Q17.05 44.5 15.35 43.3 14.2 42.55 13.5 40.9 L0.55 12.25 Q-0.6 9.75 0.6 8.25 1.15 7.55 2.2 7.05 2.85 6.6 3.8 6.3 L22.3 0.35"/><path fill="#300525" stroke="none" d="M25.55 0.9 Q26.9 1.6 27.8 3.55 L40.7 32.15 Q42.6 36.3 38.3 37.65 L23.3 42.5 13.15 21.4 4.6 20.9 0.7 12.25 Q-0.45 9.75 0.75 8.25 L29.8 9.75 25.55 0.9 M20.1 43.55 L19.8 43.65 Q17.15 44.45 15.5 43.3 L20.1 43.55"/><path fill="#630a4c" stroke="none" d="M23.3 42.5 L20.1 43.55 15.5 43.3 Q14.35 42.55 13.65 40.9 L4.6 20.9 13.15 21.4 23.3 42.5 M0.75 8.25 Q1.45 7.3 3.1 6.75 L21.65 0.8 25.55 0.9 29.8 9.75 0.75 8.25"/><path fill="none" stroke="#000000" stroke-width="0.5" stroke-opacity="0.301960784314" d="M25.55 0.9 Q26.9 1.6 27.8 3.55 L40.7 32.15 Q42.6 36.3 38.3 37.65 L23.3 42.5 20.1 43.55 19.8 43.65 Q17.15 44.45 15.5 43.3 14.35 42.55 13.65 40.9 L4.6 20.9 0.7 12.25 Q-0.45 9.75 0.75 8.25 1.45 7.3 3.1 6.75 L21.65 0.8 25.55 0.9"/><path fill="#9d147b" stroke="none" d="M14.2 40.5 L1.35 11.8 Q-0.5 7.75 3.8 6.35 L22.3 0.4 Q26.55 -1.0 28.45 3.1 L41.35 31.7 Q43.25 35.85 38.9 37.25 L20.4 43.2 Q16.1 44.55 14.2 40.5"/><path fill="none" stroke="#000000" stroke-width="0.5" stroke-opacity="0.301960784314" d="M14.2 40.5 L1.35 11.8 Q-0.5 7.75 3.8 6.35 L22.3 0.4 Q26.55 -1.0 28.45 3.1 L41.35 31.7 Q43.25 35.85 38.9 37.25 L20.4 43.2 Q16.1 44.55 14.2 40.5"/><path fill="#fcf2cf" stroke="none" d="M9.15 13.6 Q9.8 12.8 9.55 11.6 L9.1 10.55 22.05 6.35 Q24.9 5.45 26.25 7.85 L26.5 8.3 35.8 29.0 35.95 29.35 Q34.75 29.3 34.1 30.1 33.45 30.9 33.7 32.1 L34.0 32.9 20.65 37.2 Q18.8 37.8 17.65 37.0 16.8 36.4 16.3 35.2 L6.95 14.6 6.8 14.4 7.1 14.4 Q8.4 14.45 9.15 13.6"/><path fill="#c47fad" stroke="none" d="M8.25 23.65 L3.35 12.8 Q1.65 9.1 5.5 7.85 L22.25 2.5 Q26.05 1.25 27.75 4.95 L28.25 6.1 35.55 22.3 39.35 30.75 Q41.1 34.5 37.2 35.7 L20.45 41.1 Q16.8 42.25 15.2 39.0 L15.0 38.6 8.25 23.65 M9.15 13.6 Q8.4 14.45 7.1 14.4 L6.8 14.4 6.95 14.6 16.3 35.2 Q16.8 36.4 17.65 37.0 18.8 37.8 20.65 37.2 L34.0 32.9 33.7 32.1 Q33.45 30.9 34.1 30.1 34.75 29.3 35.95 29.35 L35.8 29.0 26.5 8.3 26.25 7.85 Q24.9 5.45 22.05 6.35 L9.1 10.55 9.55 11.6 Q9.8 12.8 9.15 13.6"/><path fill="none" stroke="#ffcc00" stroke-width="1.0" stroke-opacity="0.749019607843" d="M8.25 23.65 L3.35 12.8 Q1.65 9.1 5.5 7.85 L22.25 2.5 Q26.05 1.25 27.75 4.95 L28.25 6.1 M35.55 22.3 L39.35 30.75 Q41.1 34.5 37.2 35.7 L20.45 41.1 Q16.8 42.25 15.2 39.0 L15.0 38.6"/><path fill="none" stroke="#bf9900" stroke-width="1.0" stroke-opacity="0.749019607843" d="M28.25 6.1 L35.55 22.3 M15.0 38.6 L8.25 23.65"/><path fill="none" stroke="#f0b92b" stroke-width="0.5" d="M9.15 13.6 Q9.8 12.8 9.55 11.6 L9.1 10.55 22.05 6.35 Q24.9 5.45 26.25 7.85 L26.5 8.3 35.8 29.0 35.95 29.35 Q34.75 29.3 34.1 30.1 33.45 30.9 33.7 32.1 L34.0 32.9 20.65 37.2 Q18.8 37.8 17.65 37.0 16.8 36.4 16.3 35.2 L6.95 14.6 6.8 14.4 7.1 14.4 Q8.4 14.45 9.15 13.6"/></g><g id="c3"><path fill="#7fdbfe" stroke="none" d="M10.75 4.9 Q10.75 4.6 10.9 4.35 11.25 3.45 11.95 2.75 13.3 1.5 14.35 2.1 15.4 2.7 14.95 4.45 14.7 5.4 14.1 6.15 L13.75 6.5 Q13.1 7.15 12.35 7.35 L11.4 7.2 Q10.95 6.9 10.75 6.4 10.5 5.75 10.75 4.9 M7.5 5.9 Q7.0 5.85 6.6 5.5 6.05 5.0 5.8 4.15 L5.7 3.6 Q5.55 2.65 5.8 1.7 6.25 0.0 7.5 0.0 L7.6 0.0 Q8.85 0.0 9.3 1.7 9.55 2.65 9.4 3.6 L9.3 4.15 8.5 5.5 7.6 5.9 7.5 5.9 M4.35 4.9 Q4.6 5.75 4.35 6.4 L3.7 7.2 2.75 7.35 Q2.0 7.15 1.35 6.5 L1.0 6.15 Q0.4 5.4 0.15 4.45 -0.3 2.7 0.75 2.1 1.8 1.5 3.15 2.75 3.85 3.45 4.2 4.35 L4.35 4.9 M5.5 13.7 Q4.45 13.9 3.65 12.95 2.75 12.0 3.2 10.25 3.7 8.5 5.25 7.6 6.4 6.9 7.55 7.0 8.75 6.9 9.9 7.6 11.45 8.5 11.95 10.25 12.35 12.0 11.5 12.95 10.7 13.9 9.65 13.7 8.55 13.5 7.55 12.6 6.55 13.5 5.5 13.7"/></g><g id="c4"><g><use transform="matrix(1.0,0.0,0.0,1.0,0.0,0.0)" xlink:href="#c3"/></g></g><radialGradient gradientUnits="userSpaceOnUse" r="819.2" cx="0" cy="0" spreadMethod="pad" gradientTransform="matrix(0.0914459228516,0.0,0.0,0.0914459228516,0.6,3.4)" id="gradient1"><stop offset="0.0" stop-color="#ffffff"/><stop offset="1.0" stop-color="#ffffff" stop-opacity="0.0"/></radialGradient><g id="c5"><path stroke="none" fill="url(#gradient1)" d="M36.65 -54.65 Q60.05 -42.0 69.75 -17.95 80.55 8.9 68.0 34.1 55.45 59.35 26.8 68.2 -1.8 77.05 -29.7 64.3 -57.6 51.6 -68.45 24.75 -79.3 -2.05 -66.75 -27.25 L-66.7 -27.3 Q-54.1 -52.5 -25.5 -61.4 3.1 -70.2 31.0 -57.5 L36.65 -54.65"/></g><g id="c6"><g><use transform="matrix(1.0,0.0,0.0,1.0,0.0,0.0)" xlink:href="#c5"/></g></g><radialGradient gradientUnits="userSpaceOnUse" r="819.2" cx="0" cy="0" spreadMethod="pad" gradientTransform="matrix(0.209197998047,0.0,0.0,0.177108764648,67.15,107.2)" id="gradient2"><stop offset="0.356862745098" stop-color="#ffffff"/><stop offset="0.670588235294" stop-opacity="0.0"/></radialGradient><g id="c7"><path fill="none" stroke-linejoin="round" stroke-linecap="round" stroke="url(#gradient2)" stroke-width="0.5" d="M136.55 165.8 L68.6 106.0 68.4 106.0 118.25 201.5 M68.2 105.7 L68.25 105.8 68.25 105.75 68.2 105.7 0.0 45.7 M68.25 105.8 L68.3 105.85 68.3 105.8 68.25 105.75 49.95 0.05 M0.05 97.7 L68.15 105.95 68.25 105.85 68.25 105.8 M68.3 105.85 L68.25 105.85 68.3 106.0 68.3 105.85 68.3 105.8 68.35 105.8 68.3 105.8 86.6 18.35 M50.0 193.2 L68.3 106.0 68.15 105.95 18.25 151.55 M68.4 106.0 L68.3 106.0 86.55 211.5 M68.4 106.0 L68.3 105.85 M68.6 106.0 L68.35 105.8 118.25 60.15 M136.6 114.25 L68.6 106.0 M68.2 105.7 L18.25 10.05"/></g><g id="c8"><g><use transform="matrix(1.0,0.0,0.0,1.0,0.0,0.0)" xlink:href="#c7"/></g></g><g id="c9"><path fill="#e6d2b9" stroke="none" d="M-2.6 -1.1 L-0.65 -1.3 Q1.85 -0.9 3.4 0.4 2.4 1.7 1.25 2.05 L1.2 0.35 1.1 -0.3 0.75 2.15 -0.35 2.05 Q-1.2 1.95 -2.35 -0.4 L-2.6 -1.1"/><path fill="#6c5b3c" stroke="none" d="M-2.6 -1.1 L-2.35 -0.4 Q-1.2 1.95 -0.35 2.05 L0.75 2.15 0.6 3.05 0.4 4.25 0.35 4.65 0.3 5.0 0.05 5.9 Q-0.75 9.55 -1.85 12.8 L-2.0 13.35 -2.1 13.5 -2.45 14.4 -2.55 14.65 -2.55 14.7 -2.65 14.95 -3.0 15.75 -4.3 18.15 -4.4 18.15 -5.1 18.05 -5.2 18.1 -6.0 17.95 Q-6.9 17.65 -6.95 16.5 L-6.95 16.25 -6.9 15.7 -7.1 15.35 -7.15 15.3 -6.35 14.15 -5.2 10.9 -5.0 10.25 Q-4.65 8.65 -4.65 6.85 -5.1 8.5 -7.1 11.2 -8.55 13.1 -10.55 14.7 L-10.55 14.75 -12.45 14.8 -11.1 13.7 Q-7.9 10.0 -6.3 4.3 L-5.75 2.15 -5.5 1.15 Q-4.3 -0.6 -2.6 -1.1 M1.25 2.05 Q2.4 1.7 3.4 0.4 5.2 1.85 5.75 4.45 L5.5 8.4 5.5 10.35 5.4 11.7 4.25 14.95 2.5 17.6 2.2 18.0 1.15 19.15 0.45 18.8 0.2 18.6 Q1.0 15.75 1.35 12.6 L1.5 9.8 1.45 5.9 1.35 4.25 1.25 3.2 1.25 2.05"/><path fill="#5b4624" stroke="none" d="M5.4 11.7 L4.35 18.85 Q2.85 20.1 0.25 19.9 L0.3 19.85 1.15 19.15 2.2 18.0 2.5 17.6 4.25 14.95 5.4 11.7 M-1.15 18.2 L-2.65 18.15 -4.3 18.15 -3.0 15.75 -2.65 14.95 -2.55 14.7 -2.55 14.65 -2.45 14.4 -2.1 13.5 -2.0 13.35 -1.85 12.8 Q-0.75 9.55 0.05 5.9 L0.3 5.0 0.35 4.65 0.4 4.25 0.6 3.05 0.75 2.15 1.1 2.1 Q0.8 11.8 -1.15 18.2 M-9.4 14.85 L-9.8 14.75 -10.55 14.7 Q-8.55 13.1 -7.1 11.2 -5.1 8.5 -4.65 6.85 -4.65 8.65 -5.0 10.25 -7.45 13.95 -9.4 14.85"/><path fill="#4a3d27" stroke="none" d="M0.2 18.6 Q-0.3 18.3 -1.15 18.2 0.8 11.8 1.1 2.1 L1.25 2.05 1.25 3.2 1.35 4.25 1.45 5.9 1.5 9.8 1.35 12.6 Q1.0 15.75 0.2 18.6 M-7.2 15.3 L-7.25 15.3 -9.4 14.85 Q-7.45 13.95 -5.0 10.25 L-5.2 10.9 -6.35 14.15 -7.15 15.3 -7.2 15.3"/><path fill="#685637" stroke="none" d="M-12.5 14.8 L-12.45 14.8 -12.5 14.8"/><path fill="#555ba0" stroke="none" d="M-7.1 15.35 L-7.2 15.3 -7.15 15.3 -7.1 15.35 M-9.8 14.75 L-10.55 14.75 -10.55 14.7 -9.8 14.75 M-12.45 14.8 L-12.6 14.85 -12.65 14.85 -12.55 14.8 -12.5 14.8 -12.45 14.8"/><path fill="#5c4a23" stroke="none" d="M0.75 2.15 L1.1 -0.3 1.2 0.35 1.25 2.05 1.1 2.1 0.75 2.15"/><path fill="#616161" stroke="none" d="M0.25 19.9 L0.2 19.9 0.3 19.85 0.25 19.9"/><path fill="none" stroke="#2d2100" stroke-width="0.5" stroke-opacity="0.501960784314" d="M5.75 4.45 L5.5 8.4 5.5 10.35 5.4 11.7 4.35 18.85 Q2.85 20.1 0.25 19.9 M0.3 19.85 L1.15 19.15 0.45 18.8 0.2 18.6 Q-0.3 18.3 -1.15 18.2 L-2.65 18.15 -4.3 18.15 -4.4 18.15 -5.1 18.05 -5.2 18.1 -6.0 17.95 Q-6.9 17.65 -6.95 16.5 L-6.95 16.25 -6.9 15.7 -7.1 15.35 M-7.2 15.3 L-7.25 15.3 -9.4 14.85 -9.8 14.75 M-10.55 14.75 L-12.45 14.8 -11.1 13.7 Q-7.9 10.0 -6.3 4.3 L-5.75 2.15 M-12.5 14.8 L-12.45 14.8 M-10.55 14.7 L-9.8 14.75"/><path fill="#57411c" stroke="none" d="M-1.0 -0.4 L-0.9 0.0 -0.7 0.15 -0.65 0.2 0.2 0.6 -0.4 -0.75 0.05 -1.05 0.55 -1.05 -0.2 -0.5 0.45 0.95 0.45 1.0 -1.05 0.3 -1.1 -0.45 -1.0 -0.4"/></g><g id="c10"><g><use transform="matrix(1.0,0.0,0.0,1.0,0.0,0.0)" xlink:href="#c9"/></g></g><g id="c11"><g><use transform="matrix(-1.0,0.0,0.0,1.0,0.0,0.0)" xlink:href="#c10"/></g></g><linearGradient gradientUnits="userSpaceOnUse" x1="-819.2" x2="819.2" spreadMethod="pad" gradientTransform="matrix(0.000213623046875,-0.006591796875,-0.00677490234375,-0.000869750976562,-6.55,6.25)" id="gradient3"><stop offset="0.0" stop-opacity="0.0"/><stop offset="0.239215686275" stop-opacity="0.392156862745"/><stop offset="0.788235294118" stop-opacity="0.372549019608"/><stop offset="0.901960784314" stop-opacity="0.0"/></linearGradient><linearGradient gradientUnits="userSpaceOnUse" x1="-819.2" x2="819.2" spreadMethod="pad" gradientTransform="matrix(-0.00230407714844,-0.000701904296875,-0.000869750976562,0.00474548339844,-3.3,7.8)" id="gradient4"><stop offset="0.0" stop-opacity="0.0"/><stop offset="0.239215686275" stop-opacity="0.392156862745"/><stop offset="0.788235294118" stop-opacity="0.372549019608"/><stop offset="0.901960784314" stop-opacity="0.0"/></linearGradient><linearGradient gradientUnits="userSpaceOnUse" x1="-819.2" x2="819.2" spreadMethod="pad" gradientTransform="matrix(-0.00473022460938,0.00462341308594,0.00900268554688,0.00581359863281,-1.95,9.55)" id="gradient5"><stop offset="0.0" stop-opacity="0.0"/><stop offset="0.239215686275" stop-opacity="0.392156862745"/><stop offset="0.788235294118" stop-opacity="0.372549019608"/><stop offset="0.901960784314" stop-opacity="0.0"/></linearGradient><g id="c12"><path fill="#685637" stroke="none" d="M-3.4 -1.35 L-2.7 -1.6 -2.8 -1.45 -3.4 -1.35"/><path fill="#6c5b3c" stroke="none" d="M-12.25 20.95 L-11.55 18.25 -10.4 11.9 Q-10.15 9.35 -8.05 3.15 L-5.45 -0.55 -3.4 -1.35 -2.8 -1.45 Q-6.05 1.65 -4.4 2.85 L-4.2 3.05 -3.65 3.55 -1.4 3.15 Q-0.75 2.95 -0.25 2.4 L0.35 1.9 Q0.9 1.85 1.55 2.35 L1.25 3.2 0.9 4.4 0.0 8.8 -0.85 25.15 Q-2.3 28.2 -5.0 28.6 L-5.05 24.7 -5.15 23.05 -5.25 22.0 -5.25 20.85 Q-3.9 20.45 -2.8 18.75 -1.35 16.55 -1.1 12.2 -0.8 7.85 -2.05 6.45 -3.3 5.1 -5.2 5.5 -7.15 5.9 -8.6 8.15 -9.95 10.4 -9.95 13.25 -9.85 16.05 -8.85 18.4 -7.7 20.75 -6.85 20.85 L-5.75 20.95 -5.9 21.85 -5.9 22.0 -5.9 22.1 -5.95 22.3 -6.1 23.05 -6.15 23.45 -6.2 23.8 -6.45 24.7 -7.35 28.45 -7.4 28.45 Q-9.9 27.75 -11.15 26.3 L-11.15 25.65 -11.3 26.1 Q-12.6 24.4 -12.4 21.75 L-12.25 20.95"/><path fill="#e6d2b9" stroke="none" d="M-5.75 20.95 L-6.85 20.85 Q-7.7 20.75 -8.85 18.4 -9.85 16.05 -9.95 13.25 -9.95 10.4 -8.6 8.15 -7.15 5.9 -5.2 5.5 -3.3 5.1 -2.05 6.45 -0.8 7.85 -1.1 12.2 -1.35 16.55 -2.8 18.75 -3.9 20.45 -5.25 20.85 L-5.3 19.15 -5.4 18.5 -5.75 20.95"/><path fill="#483a26" stroke="none" d="M-2.8 -1.45 Q-4.55 1.35 -4.2 3.05 L-4.4 2.85 Q-6.05 1.65 -2.8 -1.45"/><path fill="#5c4a23" stroke="none" d="M-5.75 20.95 L-5.4 18.5 -5.3 19.15 -5.25 20.85 -5.75 20.95"/><path fill="#4a3d27" stroke="none" d="M-5.25 20.85 L-5.25 22.0 -5.15 23.05 -5.05 24.7 -5.0 28.6 -5.95 28.65 -5.95 22.3 -5.9 22.1 -5.9 22.0 -5.9 21.85 -5.75 20.95 -5.25 20.85"/><path fill="#5b4624" stroke="none" d="M-7.35 28.45 L-6.45 24.7 -6.2 23.8 -6.15 23.45 -6.1 23.05 -5.95 22.3 -5.95 28.65 -7.35 28.45 M-11.3 26.1 L-11.15 25.65 -11.15 26.3 -11.3 26.1"/><path fill="none" stroke="#2d2100" stroke-width="0.5" stroke-opacity="0.501960784314" d="M-12.25 20.95 L-11.55 18.25 -10.4 11.9 Q-10.15 9.35 -8.05 3.15 L-5.45 -0.55 -3.4 -1.35 -2.8 -1.45 Q-4.55 1.35 -4.2 3.05 M-3.65 3.55 L-1.4 3.15 Q-0.75 2.95 -0.25 2.4 L0.35 1.9 Q0.9 1.85 1.55 2.35 L1.25 3.2 0.9 4.4 0.0 8.8 -0.85 25.15 -1.0 27.2"/><path fill="#cd0101" stroke="none" d="M-6.6 14.5 L-5.0 18.35 -5.05 13.95 -5.4 14.05 -5.35 14.0 Q-5.15 13.8 -5.3 13.55 L-5.5 13.2 -5.25 13.05 -6.75 9.2 -6.8 13.6 -6.45 13.5 -6.55 13.95 -6.25 14.3 -6.2 14.35 -6.6 14.5"/><path fill="#ff0000" stroke="none" d="M-5.85 7.4 L-5.75 7.65 -5.7 7.9 -6.0 9.8 -5.95 9.8 -4.3 8.6 -4.55 10.05 -4.6 10.3 -4.8 10.3 -4.85 10.3 -4.15 10.65 -4.15 10.6 -4.2 10.6 -4.45 10.4 -4.4 10.1 -4.15 8.55 -4.0 8.45 -3.8 8.45 -3.75 8.5 -3.75 8.45 -4.25 8.15 -5.75 9.3 -5.55 7.95 -5.5 7.7 -5.3 7.7 -5.25 7.7 -6.0 7.35 -5.85 7.4"/><path fill="#57411c" stroke="none" d="M-8.8 10.85 L-8.6 10.95 -8.05 11.2 -8.15 12.1 -8.6 11.9 -8.8 11.65 -8.85 11.35 -8.9 11.35 -9.0 12.15 -9.0 12.2 -8.9 12.05 -8.8 11.9 -8.6 12.05 -8.2 12.2 -8.3 13.1 -8.35 13.15 -8.5 13.15 -8.8 13.0 -9.0 12.8 -9.15 12.65 -9.35 12.25 -9.4 12.2 -9.3 12.85 -7.8 13.6 -7.8 13.55 -7.85 13.55 -7.85 13.5 -7.95 13.35 -7.95 13.05 -7.75 11.55 -7.65 11.3 -7.5 11.3 -7.45 11.3 -7.45 11.25 -9.0 10.6 -9.05 11.05 -9.0 11.15 -8.9 10.9 -8.8 10.85 M-7.3 17.5 L-7.25 17.55 -7.1 17.25 -7.0 17.25 -6.85 17.25 -6.1 17.6 -6.9 18.2 -6.3 19.55 -7.15 19.15 -7.2 19.1 -7.4 18.95 -7.5 18.55 -7.6 18.5 -7.55 19.25 -6.05 19.95 -6.05 19.9 -6.7 18.45 -5.75 17.75 -5.75 17.65 -7.2 16.95 -7.3 17.5 M-3.3 13.8 Q-3.05 13.6 -2.85 13.8 L-2.35 14.2 Q-2.25 14.55 -2.3 15.1 L-2.7 15.85 -3.15 15.85 -3.55 15.45 -3.6 14.5 Q-3.55 13.95 -3.3 13.8 M-3.95 14.3 L-3.75 15.35 -3.2 16.0 -2.4 16.0 Q-2.0 15.8 -2.0 15.25 L-2.1 14.55 Q-2.1 14.2 -2.35 13.95 L-2.85 13.6 -3.5 13.65 Q-3.85 13.8 -3.95 14.3"/><path fill="#4b340e" fill-opacity="0.501960784314" d="M-6.9 6.15 L-6.55 3.2 -6.4 2.5 Q-6.3 2.05 -5.0 0.65 -5.4 1.15 -5.4 2.85 L-4.25 4.5 Q-3.55 4.25 -0.95 4.55 L-6.1 9.55 -6.3 9.65 Q-7.1 9.5 -6.9 6.15 M-2.6 7.0 L-5.35 11.4 -7.3 14.85 -7.4 15.05 Q-7.75 15.8 -7.85 14.4 L-7.95 11.4 -6.95 4.55 -7.35 9.85 -7.2 10.45 Q-6.9 11.35 -6.35 10.8 L-2.05 6.1 -2.6 7.0"/><path fill="none" stroke-linejoin="round" stroke-linecap="round" stroke="url(#gradient3)" stroke-width="0.5" d="M-7.2 10.45 L-6.9 6.15"/><path fill="none" stroke-linejoin="round" stroke-linecap="round" stroke="url(#gradient4)" stroke-width="0.5" d="M-0.95 4.55 L-2.6 7.0"/><path fill="none" stroke-linejoin="round" stroke-linecap="round" stroke="url(#gradient5)" stroke-width="0.5" d="M0.5 4.2 Q-0.55 4.55 -1.15 5.45 -3.2 8.3 -4.05 14.6"/></g><g id="c13"><g><use transform="matrix(1.0,0.0,0.0,1.0,0.0,0.0)" xlink:href="#c12"/></g></g><g id="c14"><g><use transform="matrix(-1.0,0.0,0.0,1.0,0.0,0.0)" xlink:href="#c13"/></g></g><g id="c15"><g><use transform="matrix(1.0,0.0,0.0,1.0,7.85,20.2)" xlink:href="#c11"/></g><g><use transform="matrix(1.0,0.0,0.0,1.0,1.55,1.6)" xlink:href="#c14"/></g></g><g id="c16"><g><use transform="matrix(1.0,0.0,0.0,1.0,0.0,0.0)" xlink:href="#c2"/></g><g><use transform="matrix(0.238861083984,-0.0867004394531,0.10026550293,0.233917236328,34.25,31.15)" xlink:href="#c4"/></g><g><use transform="matrix(0.238861083984,-0.0867004394531,0.10026550293,0.233917236328,4.25,10.3)" xlink:href="#c4"/></g><g><use transform="matrix(0.141098022461,-0.0378112792969,0.111373901367,0.225646972656,20.25,20.65)" filter="url(#filter13)" xlink:href="#c6"/></g><g><use transform="matrix(-0.155029296875,0.0513153076172,0.0841827392578,0.147033691406,22.6,2.3)" filter="url(#filter14)" xlink:href="#c8"/></g><g><use transform="matrix(0.564926147461,-0.326141357422,0.326141357422,0.564926147461,10.1,12.85)" xlink:href="#c15"/></g><g><use transform="matrix(0.162948608398,-0.0436706542969,0.128631591797,0.260604858398,20.35,20.95)" filter="url(#filter16)" xlink:href="#c6"/></g></g><filter id="filter13"><feColorMatrix in="SourceGraphic" type="matrix" values="0.0 0.0 0.0 0.0 0.796875 0.0 0.0 0.0 0.0 0.59765625 0.0 0.0 0.0 0.0 0.19921875 0.0 0.0 0.0 1.0 0.0" result="cxform"/><feComposite operator="in" in2="SourceGraphic" result="color-xform"/></filter><filter id="filter14"><feColorMatrix in="SourceGraphic" type="matrix" values="0.0 0.0 0.0 0.0 0.99609375 0.0 0.0 0.0 0.0 0.99609375 0.0 0.0 0.0 0.0 0.99609375 0.0 0.0 0.0 1.0 0.0" result="cxform"/><feComposite operator="in" in2="SourceGraphic" result="color-xform"/></filter><filter id="filter16"><feColorMatrix in="SourceGraphic" type="matrix" values="1.0 0.0 0.0 0.0 0.0 0.0 1.0 0.0 0.0 0.0 0.0 0.0 1.0 0.0 0.0 0.0 0.0 0.0 0.23046875 0.0" result="cxform"/><feComposite operator="in" in2="SourceGraphic" result="color-xform"/></filter></defs><g><g><use transform="matrix(1.0,0.0,0.0,1.0,0.0,0.0)" xlink:href="#c1"/></g><g><use transform="matrix(1.15496826172,0.0,0.0,1.15496826172,5.85,3.95)" xlink:href="#c16"/></g></g></svg>