<?xml version="1.0" encoding="UTF-8" standalone="no"?>
<svg xmlns:xlink="http://www.w3.org/1999/xlink" height="60.0px" width="60.0px" xmlns="http://www.w3.org/2000/svg">
  <g transform="matrix(1.0, 0.0, 0.0, 1.0, 0.0, 0.0)">
    <use height="60.0" transform="matrix(1.0, 0.0, 0.0, 1.0, 0.0, 0.0)" width="60.0" xlink:href="#shape0"/>
    <use height="46.85" transform="matrix(1.155, 0.0, 0.0, 1.155, 5.1988, 1.2534)" width="43.0" xlink:href="#sprite0"/>
  </g>
  <defs>
    <g id="shape0" transform="matrix(1.0, 0.0, 0.0, 1.0, 0.0, 0.0)">
      <path d="M0.0 0.0 L60.0 0.0 60.0 60.0 0.0 60.0 0.0 0.0" fill="#000000" fill-opacity="0.003921569" fill-rule="evenodd" stroke="none"/>
    </g>
    <g id="sprite0" transform="matrix(1.0, 0.0, 0.0, 1.0, -5.8, -51.0)">
      <use height="45.0" transform="matrix(1.0, 0.0, 0.0, 1.0, 5.8, 52.85)" width="43.0" xlink:href="#sprite1"/>
      <use height="44.05" transform="matrix(1.0, 0.0, 0.0, 1.0, 6.4, 53.35)" width="41.9" xlink:href="#shape4"/>
      <use height="0.0" transform="matrix(1.0, 0.0, 0.0, 1.0, 6.45, 53.4)" width="0.0" xlink:href="#sprite5"/>
      <use height="39.95" transform="matrix(0.4892, 0.0, 0.0, 0.4892, 20.1255, 63.4255)" width="32.9" xlink:href="#sprite6"/>
      <use height="44.25" transform="matrix(1.0, 0.0, 0.0, 1.0, 6.3, 53.25)" width="42.1" xlink:href="#shape9"/>
      <clipPath id="clipPath0" transform="matrix(1.0, 0.0, 0.0, 1.0, 0.0, 0.0)">
        <path d="M7.05 61.6 Q7.5 60.95 8.45 60.5 9.1 60.05 10.1 59.7 L28.6 53.75 Q32.85 52.35 34.75 56.45 L47.65 85.05 Q49.25 88.5 46.5 90.05 45.8 90.65 44.6 91.0 L26.1 97.0 Q23.45 97.8 21.8 96.65 20.65 95.9 19.95 94.25 L7.0 65.6 Q5.85 63.1 7.05 61.6" fill="#a74646" fill-rule="evenodd" stroke="none"/>
        <path d="M7.05 61.6 Q7.5 60.95 8.45 60.5 9.1 60.05 10.1 59.7 L28.6 53.75 Q32.85 52.35 34.75 56.45 L47.65 85.05 Q49.25 88.5 46.5 90.05 45.8 90.65 44.6 91.0 L26.1 97.0 Q23.45 97.8 21.8 96.65 20.65 95.9 19.95 94.25 L7.0 65.6 Q5.85 63.1 7.05 61.6 Z" fill="none" stroke="url(#gradient12)" stroke-linecap="round" stroke-linejoin="round" stroke-width="0.05"/>
      </clipPath>
      <g clip-path="url(#clipPath0)">
        <use height="0.0" transform="matrix(1.0, 0.0, 0.0, 1.0, 9.65, 51.0)" width="0.0" xlink:href="#sprite10"/>
        <use height="0.0" transform="matrix(1.0, 0.0, 0.0, 1.0, 9.65, 51.0)" width="0.0" xlink:href="#sprite10"/>
        <use height="30.6" transform="matrix(1.0, 0.0, 0.0, 1.0, 14.7, 59.4)" width="27.15" xlink:href="#shape11"/>
      </g>
      <use height="0.0" transform="matrix(0.1411, -0.0378, 0.1114, 0.2256, 27.2, 74.05)" width="0.0" xlink:href="#sprite3"/>
    </g>
    <g id="sprite1" transform="matrix(1.0, 0.0, 0.0, 1.0, 0.5, 0.5)">
      <use height="47.0" transform="matrix(1.0, 0.0, 0.0, 1.0, -1.5, -1.5)" width="45.0" xlink:href="#shape1"/>
      <use height="13.75" transform="matrix(0.2389, -0.0867, 0.1003, 0.2339, 34.25, 31.15)" width="15.1" xlink:href="#sprite2"/>
      <use height="13.75" transform="matrix(0.2389, -0.0867, 0.1003, 0.2339, 4.25, 10.3)" width="15.1" xlink:href="#sprite2"/>
      <use height="0.0" transform="matrix(0.1411, -0.0378, 0.1114, 0.2256, 20.25, 20.65)" width="0.0" xlink:href="#sprite3"/>
      <use height="211.45" transform="matrix(-0.155, 0.0513, 0.0842, 0.147, 22.6042, 3.1574)" width="136.6" xlink:href="#sprite4"/>
    </g>
    <g id="shape1" transform="matrix(1.0, 0.0, 0.0, 1.0, 1.5, 1.5)">
      <path d="M22.3 0.35 Q26.6 -1.0 28.5 3.05 L41.4 31.7 Q43.1 35.4 39.9 36.85 L38.15 37.65 19.65 43.65 Q17.05 44.5 15.35 43.3 14.2 42.55 13.5 40.9 L0.55 12.25 Q-0.6 9.75 0.6 8.25 1.15 7.55 2.2 7.05 2.85 6.6 3.8 6.3 L22.3 0.35 Z" fill="none" stroke="#000000" stroke-linecap="round" stroke-linejoin="round" stroke-opacity="0.3019608" stroke-width="1.0"/>
      <path d="M0.75 8.25 L29.8 9.75 25.55 0.9 Q26.9 1.6 27.8 3.55 L40.7 32.15 Q42.6 36.3 38.3 37.65 L23.3 42.5 13.15 21.4 4.6 20.9 0.7 12.25 Q-0.45 9.75 0.75 8.25 M20.1 43.55 L19.8 43.65 Q17.15 44.45 15.5 43.3 L20.1 43.55" fill="#5b3c00" fill-rule="evenodd" stroke="none"/>
      <path d="M25.55 0.9 L29.8 9.75 0.75 8.25 Q1.45 7.3 3.1 6.75 L21.65 0.8 25.55 0.9 M4.6 20.9 L13.15 21.4 23.3 42.5 20.1 43.55 15.5 43.3 Q14.35 42.55 13.65 40.9 L4.6 20.9" fill="#724b00" fill-rule="evenodd" stroke="none"/>
      <path d="M0.75 8.25 Q-0.45 9.75 0.7 12.25 L4.6 20.9 13.65 40.9 Q14.35 42.55 15.5 43.3 17.15 44.45 19.8 43.65 L20.1 43.55 23.3 42.5 38.3 37.65 Q42.6 36.3 40.7 32.15 L27.8 3.55 Q26.9 1.6 25.55 0.9 L21.65 0.8 3.1 6.75 Q1.45 7.3 0.75 8.25 Z" fill="none" stroke="#000000" stroke-linecap="round" stroke-linejoin="round" stroke-opacity="0.3019608" stroke-width="0.05"/>
      <path d="M14.2 40.5 L1.35 11.8 Q-0.5 7.75 3.8 6.35 L22.3 0.4 Q26.55 -1.0 28.45 3.1 L41.35 31.7 Q43.25 35.85 38.9 37.25 L20.4 43.2 Q16.1 44.55 14.2 40.5" fill="#ffcc00" fill-rule="evenodd" stroke="none"/>
      <path d="M14.2 40.5 L1.35 11.8 Q-0.5 7.75 3.8 6.35 L22.3 0.4 Q26.55 -1.0 28.45 3.1 L41.35 31.7 Q43.25 35.85 38.9 37.25 L20.4 43.2 Q16.1 44.55 14.2 40.5 Z" fill="none" stroke="#000000" stroke-linecap="round" stroke-linejoin="round" stroke-opacity="0.3019608" stroke-width="0.05"/>
      <path d="M9.15 13.6 Q9.8 12.8 9.55 11.6 L9.1 10.55 22.05 6.35 Q24.9 5.45 26.25 7.85 L26.5 8.3 35.8 29.0 35.95 29.35 Q34.75 29.3 34.1 30.1 33.45 30.9 33.7 32.1 L34.0 32.9 20.65 37.2 Q18.8 37.8 17.65 37.0 16.8 36.4 16.3 35.2 L6.95 14.6 6.8 14.4 7.1 14.4 Q8.4 14.45 9.15 13.6" fill="#fcf2cf" fill-rule="evenodd" stroke="none"/>
      <path d="M28.25 6.1 L35.55 22.3 39.35 30.75 Q41.1 34.5 37.2 35.7 L20.45 41.1 Q16.8 42.25 15.2 39.0 L15.0 38.6 8.25 23.65 3.35 12.8 Q1.65 9.1 5.5 7.85 L22.25 2.5 Q26.05 1.25 27.75 4.95 L28.25 6.1 M9.15 13.6 Q8.4 14.45 7.1 14.4 L6.8 14.4 6.95 14.6 16.3 35.2 Q16.8 36.4 17.65 37.0 18.8 37.8 20.65 37.2 L34.0 32.9 33.7 32.1 Q33.45 30.9 34.1 30.1 34.75 29.3 35.95 29.35 L35.8 29.0 26.5 8.3 26.25 7.85 Q24.9 5.45 22.05 6.35 L9.1 10.55 9.55 11.6 Q9.8 12.8 9.15 13.6" fill="#996600" fill-rule="evenodd" stroke="none"/>
      <path d="M9.15 13.6 Q9.8 12.8 9.55 11.6 L9.1 10.55 22.05 6.35 Q24.9 5.45 26.25 7.85 L26.5 8.3 35.8 29.0 35.95 29.35 Q34.75 29.3 34.1 30.1 33.45 30.9 33.7 32.1 L34.0 32.9 20.65 37.2 Q18.8 37.8 17.65 37.0 16.8 36.4 16.3 35.2 L6.95 14.6 6.8 14.4 7.1 14.4 Q8.4 14.45 9.15 13.6" fill="none" stroke="#f0b92b" stroke-linecap="round" stroke-linejoin="round" stroke-width="0.05"/>
      <path d="M35.55 22.3 L39.35 30.75 Q41.1 34.5 37.2 35.7 L20.45 41.1 Q16.8 42.25 15.2 39.0 L15.0 38.6 M8.25 23.65 L3.35 12.8 Q1.65 9.1 5.5 7.85 L22.25 2.5 Q26.05 1.25 27.75 4.95 L28.25 6.1" fill="none" stroke="#fcf2cf" stroke-linecap="round" stroke-linejoin="round" stroke-width="1.0"/>
      <path d="M28.25 6.1 L35.55 22.3 M15.0 38.6 L8.25 23.65" fill="none" stroke="#ffaa00" stroke-linecap="round" stroke-linejoin="round" stroke-width="1.0"/>
    </g>
    <g id="sprite2" transform="matrix(1.0, 0.0, 0.0, 1.0, 0.0, 0.0)">
      <use height="13.75" transform="matrix(1.0, 0.0, 0.0, 1.0, 0.0, 0.0)" width="15.1" xlink:href="#shape2"/>
    </g>
    <g id="shape2" transform="matrix(1.0, 0.0, 0.0, 1.0, 0.0, 0.0)">
      <path d="M10.75 4.9 Q10.75 4.6 10.9 4.35 11.25 3.45 11.95 2.75 13.3 1.5 14.35 2.1 15.4 2.7 14.95 4.45 14.7 5.4 14.1 6.15 L13.75 6.5 Q13.1 7.15 12.35 7.35 L11.4 7.2 Q10.95 6.9 10.75 6.4 10.5 5.75 10.75 4.9 M7.5 5.9 Q7.0 5.85 6.6 5.5 6.05 5.0 5.8 4.15 L5.7 3.6 Q5.55 2.65 5.8 1.7 6.25 0.0 7.5 0.0 L7.6 0.0 Q8.85 0.0 9.3 1.7 9.55 2.65 9.4 3.6 L9.3 4.15 8.5 5.5 7.6 5.9 7.5 5.9 M4.35 4.9 Q4.6 5.75 4.35 6.4 L3.7 7.2 2.75 7.35 Q2.0 7.15 1.35 6.5 L1.0 6.15 Q0.4 5.4 0.15 4.45 -0.3 2.7 0.75 2.1 1.8 1.5 3.15 2.75 3.85 3.45 4.2 4.35 L4.35 4.9 M5.5 13.7 Q4.45 13.9 3.65 12.95 2.75 12.0 3.2 10.25 3.7 8.5 5.25 7.6 6.4 6.9 7.55 7.0 8.75 6.9 9.9 7.6 11.45 8.5 11.95 10.25 12.35 12.0 11.5 12.95 10.7 13.9 9.65 13.7 8.55 13.5 7.55 12.6 6.55 13.5 5.5 13.7" fill="#7fdbfe" fill-rule="evenodd" stroke="none"/>
    </g>
    <g id="sprite4" transform="matrix(1.0, 0.0, 0.0, 1.0, 0.0, -0.05)">
      <use height="211.55" transform="matrix(1.0, 0.0, 0.0, 1.0, -0.05, 0.0)" width="136.7" xlink:href="#shape3"/>
    </g>
    <g id="shape3" transform="matrix(1.0, 0.0, 0.0, 1.0, 0.05, 0.0)">
      <path d="M136.55 165.8 L68.6 106.0 68.4 106.0 118.25 201.5 M68.2 105.7 L68.25 105.8 68.25 105.75 68.2 105.7 0.0 45.7 M68.25 105.8 L68.3 105.85 68.3 105.8 68.25 105.75 49.95 0.05 M0.05 97.7 L68.15 105.95 68.25 105.85 68.25 105.8 M68.3 105.85 L68.25 105.85 68.3 106.0 68.3 105.85 68.3 105.8 68.35 105.8 68.3 105.8 86.6 18.35 M50.0 193.2 L68.3 106.0 68.15 105.95 18.25 151.55 M68.4 106.0 L68.3 106.0 86.55 211.5 M68.4 106.0 L68.3 105.85 M68.6 106.0 L68.35 105.8 118.25 60.15 M136.6 114.25 L68.6 106.0 M68.2 105.7 L18.25 10.05" fill="none" stroke="url(#gradient0)" stroke-linecap="round" stroke-linejoin="round" stroke-width="0.05"/>
    </g>
    <radialGradient cx="0" cy="0" gradientTransform="matrix(0.2092, 0.0, 0.0, 0.1771, 67.15, 107.2)" gradientUnits="userSpaceOnUse" id="gradient0" r="819.2" spreadMethod="pad">
      <stop offset="0.3568627450980392" stop-color="#ffffff"/>
      <stop offset="0.6705882352941176" stop-color="#000000" stop-opacity="0.0"/>
    </radialGradient>
    <g id="shape4" transform="matrix(1.0, 0.0, 0.0, 1.0, -6.4, -53.35)">
      <path d="M7.05 61.6 Q7.5 60.95 8.45 60.5 9.1 60.05 10.1 59.7 L28.6 53.75 Q32.85 52.35 34.75 56.45 L47.65 85.05 Q49.25 88.5 46.5 90.05 45.8 90.65 44.6 91.0 L26.1 97.0 Q23.45 97.8 21.8 96.65 20.65 95.9 19.95 94.25 L7.0 65.6 Q5.85 63.1 7.05 61.6 Z" fill="none" stroke="url(#gradient1)" stroke-linecap="round" stroke-linejoin="round" stroke-width="0.05"/>
    </g>
    <radialGradient cx="0" cy="0" gradientTransform="matrix(0.0255, 0.0, 0.0, 0.0268, 27.35, 75.35)" gradientUnits="userSpaceOnUse" id="gradient1" r="819.2" spreadMethod="pad">
      <stop offset="0.3568627450980392" stop-color="#ffffff"/>
      <stop offset="0.6705882352941176" stop-color="#000000" stop-opacity="0.0"/>
    </radialGradient>
    <g id="sprite6" transform="matrix(1.0, 0.0, 0.0, 1.0, 0.05, 11.6)">
      <use height="28.6" transform="matrix(1.0, 0.0, 0.0, 1.0, -0.15, -0.15)" width="33.1" xlink:href="#shape5"/>
      <use height="8.35" transform="matrix(0.6604, -0.3813, 0.3813, 0.6604, 8.9556, 9.8421)" width="11.45" xlink:href="#sprite7"/>
      <use height="32.7" transform="matrix(1.0, 0.0, 0.0, 1.0, 0.5, -11.6)" width="26.2" xlink:href="#sprite8"/>
      <use height="26.65" transform="matrix(1.0, 0.0, 0.0, 1.0, 0.45, 1.65)" width="32.35" xlink:href="#sprite9"/>
    </g>
    <g id="shape5" transform="matrix(1.0, 0.0, 0.0, 1.0, 0.15, 0.15)">
      <path d="M19.0 2.4 L20.7 1.6 Q23.1 0.4 25.45 2.65 L26.0 3.3 Q28.35 6.1 26.4 9.5 L25.15 11.3 Q26.55 6.15 23.4 3.45 21.2 2.3 19.0 2.4" fill="#fdfae8" fill-rule="evenodd" stroke="none"/>
      <path d="M15.6 3.85 L15.8 3.7 18.0 2.85 18.15 2.8 19.0 2.4 Q21.2 2.3 23.4 3.45 26.55 6.15 25.15 11.3 L24.85 11.75 23.25 13.4 14.45 15.45 Q10.5 15.9 9.7 13.7 9.25 11.7 11.3 8.45 13.2 5.4 15.6 3.85" fill="#fff5d6" fill-rule="evenodd" stroke="none"/>
      <path d="M6.45 9.4 L9.05 7.2 Q11.15 5.3 11.85 5.05 L14.45 4.2 14.75 4.1 15.6 3.85 Q13.2 5.4 11.3 8.45 9.25 11.7 9.7 13.7 10.5 15.9 14.45 15.45 L23.25 13.4 19.8 16.1 14.45 20.05 Q10.9 22.55 9.15 22.8 L9.05 22.85 Q4.85 23.45 2.7 20.35 L2.65 20.3 1.9 19.0 1.85 18.7 Q1.05 16.4 2.4 13.6 3.55 11.1 6.4 9.45 L6.45 9.4" fill="#f0e4bd" fill-rule="evenodd" stroke="none"/>
      <path d="M8.75 24.35 L8.55 24.4 Q3.75 25.1 1.35 21.6 L1.3 21.5 0.45 20.0 0.35 19.65 Q-0.55 17.0 1.0 13.75 2.05 11.4 4.5 9.7 L5.75 8.95 Q7.3 8.6 6.45 9.4 L6.4 9.45 Q3.55 11.1 2.4 13.6 1.05 16.4 1.85 18.7 L1.9 19.0 2.65 20.3 2.7 20.35 Q4.85 23.45 9.05 22.85 L9.15 22.8 Q11.15 22.85 8.75 24.35" fill="#ffeeab" fill-rule="evenodd" stroke="none"/>
      <path d="M27.1 1.65 L27.8 2.4 Q30.45 5.6 28.2 9.5 L26.6 11.95 24.5 14.15 Q22.85 15.65 20.65 17.15 L14.65 21.4 Q10.7 24.05 8.75 24.35 11.15 22.85 9.15 22.8 10.9 22.55 14.45 20.05 L19.8 16.1 23.25 13.4 24.85 11.75 25.15 11.3 26.4 9.5 Q28.35 6.1 26.0 3.3 L25.45 2.65 Q23.1 0.4 20.7 1.6 L19.0 2.4 18.15 2.8 21.05 0.75 21.45 0.55 Q24.45 -1.0 27.1 1.65" fill="#e8b36f" fill-rule="evenodd" stroke="none"/>
      <path d="M0.45 20.0 L1.35 22.6 Q1.55 23.65 2.05 24.55 L2.5 25.35 Q5.05 29.0 10.15 28.15 12.9 27.7 15.75 26.4 L19.4 23.6 Q22.5 20.9 23.2 20.45 28.85 16.65 31.6 12.2 34.25 7.8 31.05 4.4 L30.8 4.1 Q29.65 3.0 28.55 2.6 L27.1 1.65 Q24.45 -1.0 21.45 0.55 L21.05 0.75 18.15 2.8 18.0 2.85 15.8 3.7 15.6 3.85 14.75 4.1 14.45 4.2 11.85 5.05 Q11.15 5.3 9.05 7.2 L6.45 9.4 Q7.3 8.6 5.75 8.95 L4.5 9.7 Q2.05 11.4 1.0 13.75 -0.55 17.0 0.35 19.65 L0.45 20.0 M23.25 13.4 L19.8 16.1 14.45 20.05 Q10.9 22.55 9.15 22.8 L9.05 22.85 Q4.85 23.45 2.7 20.35 L2.65 20.3 1.9 19.0 1.85 18.7 Q1.05 16.4 2.4 13.6 3.55 11.1 6.4 9.45 L6.45 9.4" fill="none" stroke="#120e10" stroke-linecap="round" stroke-linejoin="round" stroke-opacity="0.3019608" stroke-width="0.1"/>
      <path d="M19.45 11.75 Q18.25 12.7 16.45 12.9 L13.35 12.5 Q12.15 11.9 12.15 10.8 12.15 9.65 13.35 8.7 14.65 7.8 16.45 7.55 18.25 7.35 19.45 7.95 20.75 8.6 20.75 9.75 20.75 10.85 19.45 11.75" fill="#120e10" fill-opacity="0.2509804" fill-rule="evenodd" stroke="none"/>
    </g>
    <g id="sprite7" transform="matrix(1.0, 0.0, 0.0, 1.0, 0.15, 0.25)">
      <use height="9.35" transform="matrix(1.0, 0.0, 0.0, 1.0, -0.65, -0.75)" width="12.45" xlink:href="#shape6"/>
    </g>
    <g id="shape6" transform="matrix(1.0, 0.0, 0.0, 1.0, 0.65, 0.75)">
      <path d="M0.9 1.9 L1.7 2.95 2.25 4.25 2.3 7.35 0.9 5.4 Q0.25 4.75 0.15 4.8 L0.1 4.9 0.05 4.35 0.4 3.55 0.5 2.25 0.9 1.9 M0.15 4.8 L0.4 3.55 0.15 4.8" fill="#fcf3d8" fill-rule="evenodd" stroke="none"/>
      <path d="M0.9 1.9 L1.1 1.75 1.7 2.95 0.9 1.9" fill="#b0a579" fill-rule="evenodd" stroke="none"/>
      <path d="M8.75 7.0 Q6.85 6.95 5.45 8.1 L5.8 5.9 7.95 5.55 8.75 7.0 M7.6 4.15 L6.15 1.5 6.55 1.6 8.6 3.05 7.85 4.45 7.6 4.15" fill="#c2b585" fill-rule="evenodd" stroke="none"/>
      <path d="M4.05 3.5 L4.65 3.05 6.7 2.95 7.6 4.15 7.85 4.45 7.5 4.75 4.9 4.1 4.25 3.85 4.05 3.5" fill="#453c2c" fill-rule="evenodd" stroke="none"/>
      <path d="M1.7 2.95 L1.1 1.75 Q2.75 0.5 4.9 0.0 L8.55 1.8 11.05 4.65 11.05 5.4 Q10.85 6.0 8.75 7.0 L7.95 5.55 5.8 5.9 5.85 5.5 2.45 4.05 1.7 2.95 M6.15 1.5 L3.75 1.55 3.3 1.95 4.05 3.5 4.25 3.85 4.9 4.1 7.5 4.75 7.85 4.45 8.6 3.05 6.55 1.6 6.15 1.5 M4.25 3.85 L4.95 4.55 4.25 3.85" fill="#9b8c5e" fill-rule="evenodd" stroke="none"/>
      <path d="M7.6 4.15 L6.7 2.95 4.65 3.05 4.05 3.5 3.3 1.95 3.75 1.55 6.15 1.5 7.6 4.15" fill="#7d704c" fill-rule="evenodd" stroke="none"/>
      <path d="M5.45 8.1 L2.3 7.35 2.25 4.25 1.7 2.95 2.45 4.05 5.85 5.5 5.8 5.9 5.45 8.1" fill="#faf0c0" fill-rule="evenodd" stroke="none"/>
      <path d="M1.1 1.75 L0.9 1.9 0.5 2.25 0.4 3.55 0.15 4.8 0.1 4.9 M1.7 2.95 L1.1 1.75 Q2.75 0.5 4.9 0.0 L8.55 1.8 11.05 4.65 11.05 5.4 M6.15 1.5 L3.75 1.55 3.3 1.95 4.05 3.5 4.25 3.85 4.9 4.1 7.5 4.75 7.85 4.45 8.6 3.05 M6.55 1.6 L6.15 1.5 M4.95 4.55 L4.25 3.85" fill="none" stroke="#382510" stroke-linecap="round" stroke-linejoin="round" stroke-opacity="0.3019608" stroke-width="0.5"/>
    </g>
    <g id="sprite8" transform="matrix(1.0, 0.0, 0.0, 1.0, 0.6, 0.55)">
      <use height="33.7" transform="matrix(1.0, 0.0, 0.0, 1.0, -1.1, -1.05)" width="27.2" xlink:href="#shape7"/>
    </g>
    <g id="shape7" transform="matrix(1.0, 0.0, 0.0, 1.0, 1.1, 1.05)">
      <path d="M5.2 13.3 Q6.0 13.85 6.15 14.7 6.4 16.1 5.75 17.15 L4.25 18.7 Q2.0 20.8 0.75 24.15 -0.5 27.55 -0.35 29.0 -0.2 30.4 2.05 31.05 L5.7 31.3 Q7.0 30.9 8.1 29.95 9.2 29.0 10.2 26.7 11.2 24.4 10.9 23.75 10.65 23.0 8.3 22.1 6.0 21.1 7.4 17.65 8.75 14.15 8.5 12.5 8.2 10.95 6.9 10.25 5.65 9.6 4.05 10.0 2.55 10.3 1.7 11.5 0.7 12.9 1.0 14.85 L1.65 16.0 Q2.55 17.05 3.6 17.05 4.8 17.15 5.4 16.0 5.9 15.05 5.75 14.4 L5.65 14.05 5.1 13.3 5.2 13.3" fill="url(#gradient2)" fill-rule="evenodd" stroke="none"/>
      <path d="M5.1 13.3 L5.65 14.05 5.75 14.4 Q5.9 15.05 5.4 16.0 4.8 17.15 3.6 17.05 2.55 17.05 1.65 16.0 L1.0 14.85 Q0.7 12.9 1.7 11.5 2.55 10.3 4.05 10.0 5.65 9.6 6.9 10.25 8.2 10.95 8.5 12.5 8.75 14.15 7.4 17.65 6.0 21.1 8.3 22.1 10.65 23.0 10.9 23.75 11.2 24.4 10.2 26.7 9.2 29.0 8.1 29.95 7.0 30.9 5.7 31.3 L2.05 31.05 Q-0.2 30.4 -0.35 29.0 -0.5 27.55 0.75 24.15 2.0 20.8 4.25 18.7 L5.75 17.15 Q6.4 16.1 6.15 14.7 6.0 13.85 5.2 13.3" fill="none" stroke="url(#gradient3)" stroke-linecap="round" stroke-linejoin="round" stroke-width="0.5"/>
      <path d="M5.2 13.3 L5.1 13.3 Z" fill="none" stroke="url(#gradient4)" stroke-linecap="round" stroke-linejoin="round" stroke-width="0.05"/>
      <path d="M5.15 13.35 Q3.5 12.15 3.25 14.4" fill="none" stroke="#000000" stroke-linecap="round" stroke-linejoin="round" stroke-opacity="0.05490196" stroke-width="0.5"/>
      <path d="M10.3 6.45 L9.4 7.45 9.3 7.95 Q9.15 8.85 9.85 10.15 10.7 11.7 12.35 11.65 13.9 11.6 15.1 10.15 15.9 9.2 16.0 8.65 16.45 6.0 15.1 4.0 13.8 2.4 11.55 1.9 9.45 1.35 7.7 2.2 5.8 3.15 5.4 5.3 5.05 7.55 6.95 12.3 8.95 17.05 8.1 18.95 7.2 20.85 5.3 21.8 3.4 22.7 2.35 26.2 1.3 29.65 3.95 28.75 6.65 27.85 8.95 28.15 11.25 28.4 13.85 26.25 16.4 24.1 16.85 23.95 17.25 23.75 18.0 21.55 18.7 19.3 14.2 15.85 9.7 12.3 9.3 11.7 8.4 10.25 8.75 8.35 8.95 7.15 10.05 6.4 L10.3 6.45" fill="url(#gradient5)" fill-rule="evenodd" stroke="none"/>
      <path d="M10.05 6.4 L10.3 6.45" fill="none" stroke="url(#gradient6)" stroke-linecap="round" stroke-linejoin="round" stroke-width="0.05"/>
      <path d="M10.3 6.45 L9.4 7.45 9.3 7.95 Q9.15 8.85 9.85 10.15 10.7 11.7 12.35 11.65 13.9 11.6 15.1 10.15 15.9 9.2 16.0 8.65 16.45 6.0 15.1 4.0 13.8 2.4 11.55 1.9 9.45 1.35 7.7 2.2 5.8 3.15 5.4 5.3 5.05 7.55 6.95 12.3 8.95 17.05 8.1 18.95 7.2 20.85 5.3 21.8 3.4 22.7 2.35 26.2 1.3 29.65 3.95 28.75 6.65 27.85 8.95 28.15 11.25 28.4 13.85 26.25 16.4 24.1 16.85 23.95 17.25 23.75 18.0 21.55 18.7 19.3 14.2 15.85 9.7 12.3 9.3 11.7 8.4 10.25 8.75 8.35 8.95 7.15 10.05 6.4 Z" fill="none" stroke="url(#gradient7)" stroke-linecap="round" stroke-linejoin="round" stroke-width="0.5"/>
      <path d="M10.2 6.5 Q12.45 4.9 12.9 8.0" fill="none" stroke="#000000" stroke-linecap="round" stroke-linejoin="round" stroke-opacity="0.05490196" stroke-width="0.5"/>
      <path d="M21.3 3.15 L21.7 4.05 21.8 4.45 Q21.85 5.1 21.4 5.85 20.75 6.6 19.7 6.25 18.75 5.9 18.1 4.75 L17.55 3.45 Q17.35 1.5 18.3 0.45 19.1 -0.45 20.55 -0.3 21.85 -0.25 23.05 0.75 24.1 1.8 24.2 3.3 24.4 4.95 23.1 7.9 21.7 10.75 21.8 13.25 21.9 15.75 24.6 18.8 27.3 21.85 20.4 24.4 13.45 26.9 16.95 27.8 20.45 28.7 10.8 31.2 1.15 33.7 5.55 27.55 9.95 21.35 13.4 17.2 L13.45 17.15 Q15.9 14.35 15.05 15.65 L15.85 14.5 Q19.8 11.9 21.0 9.05 22.25 6.2 22.1 4.8 22.05 3.95 21.4 3.15 L21.3 3.15 M15.05 15.65 L14.75 16.0 13.45 17.15 14.75 16.0 15.05 15.65" fill="url(#gradient8)" fill-rule="evenodd" stroke="none"/>
      <path d="M21.3 3.15 L21.7 4.05 21.8 4.45 Q21.85 5.1 21.4 5.85 20.75 6.6 19.7 6.25 18.75 5.9 18.1 4.75 L17.55 3.45 Q17.35 1.5 18.3 0.45 19.1 -0.45 20.55 -0.3 21.85 -0.25 23.05 0.75 24.1 1.8 24.2 3.3 24.4 4.95 23.1 7.9 21.7 10.75 21.8 13.25 21.9 15.75 24.6 18.8 27.3 21.85 20.4 24.4 13.45 26.9 16.95 27.8 20.45 28.7 10.8 31.2 1.15 33.7 5.55 27.55 9.95 21.35 13.4 17.2 L13.45 17.15 Q15.9 14.35 15.05 15.65 L15.85 14.5 Q19.8 11.9 21.0 9.05 22.25 6.2 22.1 4.8 22.05 3.95 21.4 3.15 M13.45 17.15 L14.75 16.0 15.05 15.65" fill="none" stroke="url(#gradient9)" stroke-linecap="round" stroke-linejoin="round" stroke-width="0.5"/>
      <path d="M21.4 3.15 L21.3 3.15 Z" fill="none" stroke="url(#gradient10)" stroke-linecap="round" stroke-linejoin="round" stroke-width="0.05"/>
      <path d="M21.15 3.05 Q19.75 1.4 19.4 3.5" fill="none" stroke="#000000" stroke-linecap="round" stroke-linejoin="round" stroke-opacity="0.05490196" stroke-width="0.5"/>
    </g>
    <linearGradient gradientTransform="matrix(5.0E-4, 0.0148, 0.007, -0.0022, 5.05, 15.6)" gradientUnits="userSpaceOnUse" id="gradient2" spreadMethod="pad" x1="-819.2" x2="819.2">
      <stop offset="0.0" stop-color="#fffffa" stop-opacity="0.827451"/>
      <stop offset="1.0" stop-color="#c8d8ce" stop-opacity="0.0"/>
    </linearGradient>
    <linearGradient gradientTransform="matrix(0.0012, 0.0066, -0.0075, -2.0E-4, 5.6, 18.05)" gradientUnits="userSpaceOnUse" id="gradient3" spreadMethod="pad" x1="-819.2" x2="819.2">
      <stop offset="0.0" stop-color="#000000" stop-opacity="0.101960786"/>
      <stop offset="1.0" stop-color="#000000" stop-opacity="0.0"/>
    </linearGradient>
    <linearGradient gradientTransform="matrix(0.0012, 0.0066, -0.0075, -2.0E-4, 5.6, 18.05)" gradientUnits="userSpaceOnUse" id="gradient4" spreadMethod="pad" x1="-819.2" x2="819.2">
      <stop offset="0.0" stop-color="#000000" stop-opacity="0.07058824"/>
      <stop offset="1.0" stop-color="#000000" stop-opacity="0.0"/>
    </linearGradient>
    <linearGradient gradientTransform="matrix(-0.002, 0.0115, 0.0068, -1.0E-4, 8.1, 11.05)" gradientUnits="userSpaceOnUse" id="gradient5" spreadMethod="pad" x1="-819.2" x2="819.2">
      <stop offset="0.0" stop-color="#fffffa" stop-opacity="0.827451"/>
      <stop offset="1.0" stop-color="#c8d8ce" stop-opacity="0.0"/>
    </linearGradient>
    <linearGradient gradientTransform="matrix(-0.0015, 0.0091, 0.0106, -1.0E-4, 9.75, 13.1)" gradientUnits="userSpaceOnUse" id="gradient6" spreadMethod="pad" x1="-819.2" x2="819.2">
      <stop offset="0.0" stop-color="#000000" stop-opacity="0.07058824"/>
      <stop offset="1.0" stop-color="#000000" stop-opacity="0.0"/>
    </linearGradient>
    <linearGradient gradientTransform="matrix(-0.0015, 0.0091, 0.0106, -1.0E-4, 9.75, 13.1)" gradientUnits="userSpaceOnUse" id="gradient7" spreadMethod="pad" x1="-819.2" x2="819.2">
      <stop offset="0.0" stop-color="#000000" stop-opacity="0.101960786"/>
      <stop offset="1.0" stop-color="#000000" stop-opacity="0.0"/>
    </linearGradient>
    <linearGradient gradientTransform="matrix(0.0049, 0.0171, -0.0045, -6.0E-4, 25.05, 19.05)" gradientUnits="userSpaceOnUse" id="gradient8" spreadMethod="pad" x1="-819.2" x2="819.2">
      <stop offset="0.0" stop-color="#fffffa" stop-opacity="0.65882355"/>
      <stop offset="1.0" stop-color="#c8d8ce" stop-opacity="0.0"/>
    </linearGradient>
    <linearGradient gradientTransform="matrix(7.0E-4, 0.0066, -0.0067, -0.0024, 22.4, 15.05)" gradientUnits="userSpaceOnUse" id="gradient9" spreadMethod="pad" x1="-819.2" x2="819.2">
      <stop offset="0.0" stop-color="#000000" stop-opacity="0.101960786"/>
      <stop offset="1.0" stop-color="#000000" stop-opacity="0.0"/>
    </linearGradient>
    <linearGradient gradientTransform="matrix(7.0E-4, 0.0066, -0.0067, -0.0024, 21.4, 7.9)" gradientUnits="userSpaceOnUse" id="gradient10" spreadMethod="pad" x1="-819.2" x2="819.2">
      <stop offset="0.0" stop-color="#000000" stop-opacity="0.07058824"/>
      <stop offset="1.0" stop-color="#000000" stop-opacity="0.0"/>
    </linearGradient>
    <g id="sprite9" transform="matrix(1.0, 0.0, 0.0, 1.0, 0.0, 0.0)">
      <use height="26.65" transform="matrix(1.0, 0.0, 0.0, 1.0, 0.0, 0.0)" width="32.35" xlink:href="#shape8"/>
    </g>
    <g id="shape8" transform="matrix(1.0, 0.0, 0.0, 1.0, 0.0, 0.0)">
      <path d="M24.05 12.5 Q24.4 13.75 23.65 15.65 L19.7 20.55 Q16.85 23.65 15.3 24.75 12.45 26.05 9.7 26.5 4.6 27.35 2.05 23.7 L1.6 22.9 Q1.1 22.0 0.9 20.95 L0.0 18.35 0.85 19.85 0.9 19.95 Q3.3 23.45 8.1 22.75 L8.3 22.7 Q10.25 22.4 14.2 19.75 L20.2 15.5 24.05 12.5" fill="url(#gradient11)" fill-rule="evenodd" stroke="none"/>
      <path d="M24.05 12.5 L26.15 10.3 27.75 7.85 Q30.0 3.95 27.35 0.75 L26.65 0.0 28.1 0.95 Q29.2 1.35 30.35 2.45 L30.6 2.75 Q33.8 6.15 31.15 10.55 28.4 15.0 22.75 18.8 L18.95 21.95 15.3 24.75 Q16.85 23.65 19.7 20.55 L23.65 15.65 Q24.4 13.75 24.05 12.5" fill="#350100" fill-rule="evenodd" stroke="none"/>
    </g>
    <radialGradient cx="0" cy="0" gradientTransform="matrix(0.0093, -0.003, 0.0114, 0.0289, 3.4, 24.05)" gradientUnits="userSpaceOnUse" id="gradient11" r="819.2" spreadMethod="pad">
      <stop offset="0.0" stop-color="#464200"/>
      <stop offset="1.0" stop-color="#423000"/>
    </radialGradient>
    <g id="shape9" transform="matrix(1.0, 0.0, 0.0, 1.0, -6.3, -53.25)">
      <path d="M7.05 61.6 Q7.5 60.95 8.45 60.5 9.1 60.05 10.1 59.7 L28.6 53.75 Q32.85 52.35 34.75 56.45 L47.65 85.05 Q49.25 88.5 46.5 90.05 45.8 90.65 44.6 91.0 L26.1 97.0 Q23.45 97.8 21.8 96.65 20.65 95.9 19.95 94.25 L7.0 65.6 Q5.85 63.1 7.05 61.6 Z" fill="none" stroke="#ffcc00" stroke-linecap="round" stroke-linejoin="round" stroke-width="0.1"/>
    </g>
    <radialGradient cx="0" cy="0" gradientTransform="matrix(0.0255, 0.0, 0.0, 0.0268, 27.35, 75.35)" gradientUnits="userSpaceOnUse" id="gradient12" r="819.2" spreadMethod="pad">
      <stop offset="0.3568627450980392" stop-color="#ffffff"/>
      <stop offset="0.6705882352941176" stop-color="#000000" stop-opacity="0.0"/>
    </radialGradient>
    <g id="shape11" transform="matrix(1.0, 0.0, 0.0, 1.0, -14.7, -59.4)">
      <path d="M33.85 83.75 L33.85 83.8 33.85 83.95 33.85 84.0 33.85 84.1 33.9 84.1 33.9 84.15 34.35 84.4 34.85 84.75 34.35 84.45 34.1 84.3 34.05 84.25 33.95 84.2 33.9 84.2 33.9 84.7 33.9 85.25 33.85 84.75 33.75 84.2 33.7 84.1 33.5 84.25 33.0 84.55 32.7 84.7 32.95 84.5 33.4 84.3 33.45 84.25 33.5 84.2 33.7 84.1 33.65 84.05 33.7 84.05 33.7 84.0 33.3 83.6 32.95 83.25 33.3 83.55 33.55 83.8 33.7 83.95 33.8 83.4 33.9 82.95 33.85 83.35 33.85 83.75 M34.4 83.9 L34.35 83.9 34.25 84.0 34.15 84.0 33.9 84.05 34.15 83.95 34.7 83.75 35.2 83.65 34.85 83.75 34.95 83.85 34.85 83.75 34.7 83.8 34.4 83.9 M36.75 85.45 L36.9 85.55 36.9 85.5 37.1 83.9 37.35 82.3 37.45 81.75 37.4 82.25 37.4 83.85 37.2 85.6 37.35 86.0 37.4 86.1 38.7 86.9 40.15 87.75 40.55 88.05 40.1 87.8 38.75 87.05 37.75 86.45 37.4 86.25 37.35 86.2 37.4 86.3 37.5 87.75 37.55 89.45 37.6 90.0 37.5 89.5 37.25 87.9 37.05 86.25 37.0 86.3 36.9 85.9 36.7 85.75 36.9 85.85 36.9 85.65 35.7 84.55 34.95 83.85 35.65 84.4 36.45 85.15 36.5 85.2 36.75 85.45 M36.1 86.45 L36.2 86.4 36.85 86.1 36.3 86.45 34.8 87.25 33.35 88.0 32.8 88.25 33.3 88.0 34.65 87.2 35.7 86.65 36.1 86.45 M41.85 84.45 L41.35 84.6 39.85 85.15 38.15 85.7 37.5 85.9 Q37.45 85.85 38.1 85.65 L39.7 85.1 41.3 84.6 41.85 84.45" fill="#fefd8d" fill-opacity="0.972549" fill-rule="evenodd" stroke="none"/>
      <path d="M33.85 83.75 L34.05 83.4 34.25 83.2 34.15 83.4 34.0 83.8 33.9 83.9 33.85 83.8 33.85 83.75 M34.1 84.3 L34.35 84.5 34.45 84.65 34.25 84.5 34.0 84.3 33.95 84.2 34.05 84.25 34.1 84.3 M33.4 84.3 L33.3 84.3 32.95 84.45 32.7 84.55 32.95 84.4 33.35 84.25 33.45 84.25 33.4 84.3 M33.55 83.8 L33.4 83.6 33.6 83.8 33.65 83.9 33.55 83.8 M34.4 83.9 L34.65 83.85 34.95 83.85 35.05 83.8 34.95 83.85 34.7 83.9 34.3 84.0 34.2 84.0 34.25 84.0 34.35 83.9 34.4 83.9 M33.6 84.3 L33.7 84.2 33.75 84.35 33.65 84.7 33.55 85.05 33.55 84.75 33.6 84.3 M37.65 85.15 L37.35 85.5 37.35 85.0 37.9 84.05 38.5 83.1 38.7 82.75 38.55 83.1 38.15 84.05 37.65 85.15 M36.75 85.45 L36.5 85.2 36.45 85.15 35.85 84.4 35.45 83.85 35.95 84.3 36.65 85.15 36.9 85.5 36.75 85.45 M37.4 86.3 L37.35 86.2 37.4 86.25 37.75 86.45 Q38.15 86.7 38.6 87.1 L39.3 87.75 38.5 87.15 37.6 86.5 37.4 86.3 M36.1 86.45 L35.7 86.65 34.7 87.0 33.8 87.3 34.7 86.95 35.75 86.5 36.1 86.45 M38.7 85.65 L38.25 85.7 38.7 85.55 39.75 85.35 40.7 85.2 41.05 85.15 40.75 85.25 39.8 85.45 38.7 85.65 M36.7 86.7 L36.95 86.25 37.0 86.75 36.65 87.8 36.3 88.85 36.15 89.25 36.25 88.85 36.4 87.85 Q36.5 87.1 36.7 86.7" fill="#fffd8f" fill-opacity="0.4" fill-rule="evenodd" stroke="none"/>
      <path d="M38.0 86.75 Q37.9 86.0 37.45 85.8 L36.9 85.85 Q36.75 86.1 36.9 86.5 37.1 87.0 37.65 87.3 L38.35 87.95 38.6 88.25 38.45 87.85 38.0 86.75" fill="#fffd8f" fill-opacity="0.39215687" fill-rule="evenodd" stroke="none"/>
      <path d="M38.0 86.25 L37.05 85.85 Q36.8 85.8 36.95 85.95 L37.55 86.35 38.35 86.6 Q38.8 86.65 39.05 86.85 L39.35 86.95 39.0 86.75 38.0 86.25" fill="#fffd8f" fill-opacity="0.39215687" fill-rule="evenodd" stroke="none"/>
      <path d="M36.4 84.8 Q36.35 85.55 36.75 85.85 L37.3 85.9 37.45 85.25 Q37.35 84.75 36.9 84.35 36.35 83.9 36.3 83.55 L36.1 83.25 36.2 83.65 36.4 84.8" fill="#fffd8f" fill-opacity="0.39215687" fill-rule="evenodd" stroke="none"/>
      <path d="M36.25 85.35 L37.1 85.95 37.2 85.8 36.75 85.3 35.95 84.9 Q35.55 84.75 35.3 84.6 L35.05 84.45 35.35 84.65 36.25 85.35" fill="#fffd8f" fill-opacity="0.39215687" fill-rule="evenodd" stroke="none"/>
      <path d="M38.75 85.2 Q38.0 85.45 37.85 85.65 37.7 85.85 37.85 85.8 L38.5 85.65 39.25 85.2 39.9 84.75 40.15 84.6 39.75 84.75 38.75 85.2" fill="#fffd8f" fill-opacity="0.39215687" fill-rule="evenodd" stroke="none"/>
      <path d="M35.75 87.0 L36.6 86.4 36.5 86.25 Q36.25 86.25 35.9 86.5 L35.25 87.1 34.7 87.65 Q34.4 87.8 34.45 87.85 L34.8 87.6 35.75 87.0" fill="#fffd8f" fill-opacity="0.39215687" fill-rule="evenodd" stroke="none"/>
      <path d="M34.1 84.35 L33.95 84.05 33.75 84.05 Q33.65 84.1 33.7 84.25 L34.0 84.55 34.2 84.75 34.3 84.85 34.2 84.75 34.1 84.35" fill="#fffd8f" fill-opacity="0.39215687" fill-rule="evenodd" stroke="none"/>
      <path d="M34.1 84.2 Q33.9 84.05 33.75 84.05 L33.75 84.1 33.95 84.2 34.2 84.3 34.5 84.4 34.55 84.4 34.45 84.4 34.1 84.2" fill="#fffd8f" fill-opacity="0.39215687" fill-rule="evenodd" stroke="none"/>
      <path d="M33.5 83.65 L33.65 84.05 33.85 84.05 33.9 83.85 33.65 83.55 33.5 83.25 33.45 83.15 33.5 83.25 33.5 83.65" fill="#fffd8f" fill-opacity="0.39215687" fill-rule="evenodd" stroke="none"/>
      <path d="M33.5 83.9 L33.75 84.05 33.8 84.0 33.65 83.85 33.35 83.7 33.2 83.6 33.05 83.55 33.15 83.6 33.5 83.9" fill="#fffd8f" fill-opacity="0.39215687" fill-rule="evenodd" stroke="none"/>
      <path d="M34.3 83.8 L34.05 83.95 34.05 84.0 34.25 83.95 34.55 83.8 Q34.6 83.7 34.7 83.7 L34.8 83.6 34.7 83.65 34.3 83.8" fill="#fffd8f" fill-opacity="0.39215687" fill-rule="evenodd" stroke="none"/>
      <path d="M33.3 84.45 L33.6 84.2 33.6 84.15 Q33.5 84.15 33.4 84.3 L33.15 84.45 32.95 84.65 32.85 84.75 33.0 84.6 33.3 84.45" fill="#fffd8f" fill-opacity="0.39215687" fill-rule="evenodd" stroke="none"/>
      <path d="M36.3 85.35 Q36.05 85.7 36.05 86.15 L36.5 86.9 37.3 87.15 38.05 86.75 38.25 85.9 37.85 85.2 37.05 84.95 36.3 85.35" fill="#ffffff" fill-rule="evenodd" stroke="none"/>
      <path d="M18.75 62.3 L18.65 62.35 18.2 62.45 18.6 62.25 19.85 61.9 21.0 61.5 21.4 61.35 21.05 61.5 19.9 61.9 18.75 62.3 M17.45 61.95 L17.7 62.2 17.75 62.2 17.7 62.15 17.85 61.05 18.05 59.85 18.15 59.4 18.1 59.8 18.05 61.0 18.0 62.25 18.1 62.6 19.15 63.2 20.0 63.75 19.15 63.3 18.5 62.95 18.4 62.85 18.15 62.7 18.1 62.7 18.15 62.75 18.2 63.85 18.2 64.9 18.0 64.0 17.85 62.8 17.8 62.8 17.75 62.45 17.6 62.3 17.7 62.35 17.7 62.3 16.85 61.5 15.9 60.65 15.65 60.35 15.95 60.65 16.8 61.4 17.45 61.95 M14.7 64.25 L15.05 64.05 16.1 63.45 17.25 62.85 17.7 62.65 17.3 62.95 16.2 63.45 15.1 64.05 14.7 64.25" fill="#fefd8d" fill-opacity="0.972549" fill-rule="evenodd" stroke="none"/>
      <path d="M18.75 62.3 L19.1 62.2 19.85 62.05 20.6 61.95 19.85 62.15 19.05 62.3 18.75 62.3 M17.45 61.95 L16.95 61.35 16.5 60.75 17.0 61.3 17.55 61.95 17.7 62.15 17.75 62.2 17.7 62.2 17.45 61.95 M18.5 62.95 L19.0 63.35 19.6 63.8 19.8 64.0 19.6 63.85 18.95 63.4 18.3 62.9 18.15 62.75 18.1 62.7 18.15 62.7 18.4 62.85 18.5 62.95 M18.3 61.9 L18.05 62.2 18.1 61.85 18.45 61.15 18.9 60.4 19.1 60.2 18.95 60.4 18.65 61.15 18.3 61.9 M16.9 62.9 L17.2 62.85 Q17.15 62.9 16.85 63.05 L16.15 63.3 15.45 63.55 15.2 63.6 15.45 63.5 16.1 63.25 Q16.6 63.0 16.9 62.9 M17.55 63.1 L17.75 62.75 17.8 63.1 17.6 63.95 17.25 64.7 17.15 64.95 17.2 64.7 17.4 63.9 Q17.4 63.4 17.55 63.1" fill="#fffd8f" fill-opacity="0.4" fill-rule="evenodd" stroke="none"/>
      <path d="M18.6 63.1 L18.15 62.4 17.7 62.45 17.75 62.95 18.3 63.55 Q18.75 63.8 18.8 64.0 L19.0 64.25 18.85 63.95 18.6 63.1" fill="#fffd8f" fill-opacity="0.39215687" fill-rule="evenodd" stroke="none"/>
      <path d="M18.55 62.7 Q18.05 62.4 17.9 62.4 17.7 62.4 17.8 62.5 L18.25 62.8 18.85 63.0 19.35 63.15 19.6 63.2 19.35 63.1 18.55 62.7" fill="#fffd8f" fill-opacity="0.39215687" fill-rule="evenodd" stroke="none"/>
      <path d="M17.3 61.7 Q17.35 62.3 17.55 62.45 L18.0 62.5 18.1 62.0 17.65 61.35 17.25 60.75 17.15 60.5 17.2 60.8 17.3 61.7" fill="#fffd8f" fill-opacity="0.39215687" fill-rule="evenodd" stroke="none"/>
      <path d="M17.25 62.1 L17.9 62.5 17.95 62.45 17.6 62.05 17.05 61.75 16.55 61.5 16.35 61.4 16.55 61.6 Q16.8 61.7 17.25 62.1" fill="#fffd8f" fill-opacity="0.39215687" fill-rule="evenodd" stroke="none"/>
      <path d="M19.05 61.9 L18.4 62.3 18.45 62.4 18.9 62.3 19.5 61.95 19.95 61.6 20.15 61.5 19.85 61.6 19.05 61.9" fill="#fffd8f" fill-opacity="0.39215687" fill-rule="evenodd" stroke="none"/>
      <path d="M16.9 63.3 L17.5 62.85 17.45 62.7 17.05 62.9 16.5 63.35 16.15 63.75 15.95 63.95 16.2 63.75 16.9 63.3" fill="#fffd8f" fill-opacity="0.39215687" fill-rule="evenodd" stroke="none"/>
      <path d="M17.4 62.1 Q17.15 62.35 17.2 62.65 L17.55 63.25 18.1 63.4 18.7 63.1 18.85 62.5 18.55 61.95 17.9 61.75 17.4 62.1" fill="#ffffff" fill-rule="evenodd" stroke="none"/>
      <path d="M33.55 83.9 L33.45 84.15 33.6 84.45 33.85 84.5 34.15 84.4 34.2 84.05 34.1 83.85 33.75 83.75 33.55 83.9" fill="#ffffff" fill-rule="evenodd" stroke="none"/>
    </g>
  </defs>
</svg>
