<?xml version='1.0' encoding='UTF-8'?>
<svg xmlns:xlink="http://www.w3.org/1999/xlink" xmlns="http://www.w3.org/2000/svg" version="1.1" width="60px" height="60px" viewBox="0.0 0.0 60.0 60.0"><defs><g id="c1"><path fill="#000000" fill-opacity="0.00392156862745" d="M0.0 0.0 L60.0 0.0 60.0 60.0 0.0 60.0 0.0 0.0"/></g><g id="c2"><path fill="none" stroke="#000000" stroke-width="1.0" stroke-opacity="0.301960784314" d="M22.3 0.35 Q26.6 -1.0 28.5 3.05 L41.4 31.7 Q43.1 35.4 39.9 36.85 L38.15 37.65 19.65 43.65 Q17.05 44.5 15.35 43.3 14.2 42.55 13.5 40.9 L0.55 12.25 Q-0.6 9.75 0.6 8.25 1.15 7.55 2.2 7.05 2.85 6.6 3.8 6.3 L22.3 0.35"/><path fill="#300525" stroke="none" d="M25.55 0.9 Q26.9 1.6 27.8 3.55 L40.7 32.15 Q42.6 36.3 38.3 37.65 L23.3 42.5 13.15 21.4 4.6 20.9 0.7 12.25 Q-0.45 9.75 0.75 8.25 L29.8 9.75 25.55 0.9 M20.1 43.55 L19.8 43.65 Q17.15 44.45 15.5 43.3 L20.1 43.55"/><path fill="#630a4c" stroke="none" d="M23.3 42.5 L20.1 43.55 15.5 43.3 Q14.35 42.55 13.65 40.9 L4.6 20.9 13.15 21.4 23.3 42.5 M0.75 8.25 Q1.45 7.3 3.1 6.75 L21.65 0.8 25.55 0.9 29.8 9.75 0.75 8.25"/><path fill="none" stroke="#000000" stroke-width="0.5" stroke-opacity="0.301960784314" d="M25.55 0.9 Q26.9 1.6 27.8 3.55 L40.7 32.15 Q42.6 36.3 38.3 37.65 L23.3 42.5 20.1 43.55 19.8 43.65 Q17.15 44.45 15.5 43.3 14.35 42.55 13.65 40.9 L4.6 20.9 0.7 12.25 Q-0.45 9.75 0.75 8.25 1.45 7.3 3.1 6.75 L21.65 0.8 25.55 0.9"/><path fill="#9d147b" stroke="none" d="M14.2 40.5 L1.35 11.8 Q-0.5 7.75 3.8 6.35 L22.3 0.4 Q26.55 -1.0 28.45 3.1 L41.35 31.7 Q43.25 35.85 38.9 37.25 L20.4 43.2 Q16.1 44.55 14.2 40.5"/><path fill="none" stroke="#000000" stroke-width="0.5" stroke-opacity="0.301960784314" d="M14.2 40.5 L1.35 11.8 Q-0.5 7.75 3.8 6.35 L22.3 0.4 Q26.55 -1.0 28.45 3.1 L41.35 31.7 Q43.25 35.85 38.9 37.25 L20.4 43.2 Q16.1 44.55 14.2 40.5"/><path fill="#fcf2cf" stroke="none" d="M9.15 13.6 Q9.8 12.8 9.55 11.6 L9.1 10.55 22.05 6.35 Q24.9 5.45 26.25 7.85 L26.5 8.3 35.8 29.0 35.95 29.35 Q34.75 29.3 34.1 30.1 33.45 30.9 33.7 32.1 L34.0 32.9 20.65 37.2 Q18.8 37.8 17.65 37.0 16.8 36.4 16.3 35.2 L6.95 14.6 6.8 14.4 7.1 14.4 Q8.4 14.45 9.15 13.6"/><path fill="#c47fad" stroke="none" d="M8.25 23.65 L3.35 12.8 Q1.65 9.1 5.5 7.85 L22.25 2.5 Q26.05 1.25 27.75 4.95 L28.25 6.1 35.55 22.3 39.35 30.75 Q41.1 34.5 37.2 35.7 L20.45 41.1 Q16.8 42.25 15.2 39.0 L15.0 38.6 8.25 23.65 M9.15 13.6 Q8.4 14.45 7.1 14.4 L6.8 14.4 6.95 14.6 16.3 35.2 Q16.8 36.4 17.65 37.0 18.8 37.8 20.65 37.2 L34.0 32.9 33.7 32.1 Q33.45 30.9 34.1 30.1 34.75 29.3 35.95 29.35 L35.8 29.0 26.5 8.3 26.25 7.85 Q24.9 5.45 22.05 6.35 L9.1 10.55 9.55 11.6 Q9.8 12.8 9.15 13.6"/><path fill="none" stroke="#ffcc00" stroke-width="1.0" stroke-opacity="0.749019607843" d="M8.25 23.65 L3.35 12.8 Q1.65 9.1 5.5 7.85 L22.25 2.5 Q26.05 1.25 27.75 4.95 L28.25 6.1 M35.55 22.3 L39.35 30.75 Q41.1 34.5 37.2 35.7 L20.45 41.1 Q16.8 42.25 15.2 39.0 L15.0 38.6"/><path fill="none" stroke="#bf9900" stroke-width="1.0" stroke-opacity="0.749019607843" d="M28.25 6.1 L35.55 22.3 M15.0 38.6 L8.25 23.65"/><path fill="none" stroke="#f0b92b" stroke-width="0.5" d="M9.15 13.6 Q9.8 12.8 9.55 11.6 L9.1 10.55 22.05 6.35 Q24.9 5.45 26.25 7.85 L26.5 8.3 35.8 29.0 35.95 29.35 Q34.75 29.3 34.1 30.1 33.45 30.9 33.7 32.1 L34.0 32.9 20.65 37.2 Q18.8 37.8 17.65 37.0 16.8 36.4 16.3 35.2 L6.95 14.6 6.8 14.4 7.1 14.4 Q8.4 14.45 9.15 13.6"/></g><g id="c3"><path fill="#7fdbfe" stroke="none" d="M10.75 4.9 Q10.75 4.6 10.9 4.35 11.25 3.45 11.95 2.75 13.3 1.5 14.35 2.1 15.4 2.7 14.95 4.45 14.7 5.4 14.1 6.15 L13.75 6.5 Q13.1 7.15 12.35 7.35 L11.4 7.2 Q10.95 6.9 10.75 6.4 10.5 5.75 10.75 4.9 M7.5 5.9 Q7.0 5.85 6.6 5.5 6.05 5.0 5.8 4.15 L5.7 3.6 Q5.55 2.65 5.8 1.7 6.25 0.0 7.5 0.0 L7.6 0.0 Q8.85 0.0 9.3 1.7 9.55 2.65 9.4 3.6 L9.3 4.15 8.5 5.5 7.6 5.9 7.5 5.9 M4.35 4.9 Q4.6 5.75 4.35 6.4 L3.7 7.2 2.75 7.35 Q2.0 7.15 1.35 6.5 L1.0 6.15 Q0.4 5.4 0.15 4.45 -0.3 2.7 0.75 2.1 1.8 1.5 3.15 2.75 3.85 3.45 4.2 4.35 L4.35 4.9 M5.5 13.7 Q4.45 13.9 3.65 12.95 2.75 12.0 3.2 10.25 3.7 8.5 5.25 7.6 6.4 6.9 7.55 7.0 8.75 6.9 9.9 7.6 11.45 8.5 11.95 10.25 12.35 12.0 11.5 12.95 10.7 13.9 9.65 13.7 8.55 13.5 7.55 12.6 6.55 13.5 5.5 13.7"/></g><g id="c4"><g><use transform="matrix(1.0,0.0,0.0,1.0,0.0,0.0)" xlink:href="#c3"/></g></g><radialGradient gradientUnits="userSpaceOnUse" r="819.2" cx="0" cy="0" spreadMethod="pad" gradientTransform="matrix(0.0914459228516,0.0,0.0,0.0914459228516,0.6,3.4)" id="gradient1"><stop offset="0.0" stop-color="#ffffff"/><stop offset="1.0" stop-color="#ffffff" stop-opacity="0.0"/></radialGradient><g id="c5"><path stroke="none" fill="url(#gradient1)" d="M36.65 -54.65 Q60.05 -42.0 69.75 -17.95 80.55 8.9 68.0 34.1 55.45 59.35 26.8 68.2 -1.8 77.05 -29.7 64.3 -57.6 51.6 -68.45 24.75 -79.3 -2.05 -66.75 -27.25 L-66.7 -27.3 Q-54.1 -52.5 -25.5 -61.4 3.1 -70.2 31.0 -57.5 L36.65 -54.65"/></g><g id="c6"><g><use transform="matrix(1.0,0.0,0.0,1.0,0.0,0.0)" xlink:href="#c5"/></g></g><radialGradient gradientUnits="userSpaceOnUse" r="819.2" cx="0" cy="0" spreadMethod="pad" gradientTransform="matrix(0.209197998047,0.0,0.0,0.177108764648,67.15,107.2)" id="gradient2"><stop offset="0.356862745098" stop-color="#ffffff"/><stop offset="0.670588235294" stop-opacity="0.0"/></radialGradient><g id="c7"><path fill="none" stroke-linejoin="round" stroke-linecap="round" stroke="url(#gradient2)" stroke-width="0.5" d="M136.55 165.8 L68.6 106.0 68.4 106.0 118.25 201.5 M68.2 105.7 L68.25 105.8 68.25 105.75 68.2 105.7 0.0 45.7 M68.25 105.8 L68.3 105.85 68.3 105.8 68.25 105.75 49.95 0.05 M0.05 97.7 L68.15 105.95 68.25 105.85 68.25 105.8 M68.3 105.85 L68.25 105.85 68.3 106.0 68.3 105.85 68.3 105.8 68.35 105.8 68.3 105.8 86.6 18.35 M50.0 193.2 L68.3 106.0 68.15 105.95 18.25 151.55 M68.4 106.0 L68.3 106.0 86.55 211.5 M68.4 106.0 L68.3 105.85 M68.6 106.0 L68.35 105.8 118.25 60.15 M136.6 114.25 L68.6 106.0 M68.2 105.7 L18.25 10.05"/></g><g id="c8"><g><use transform="matrix(1.0,0.0,0.0,1.0,0.0,0.0)" xlink:href="#c7"/></g></g><radialGradient gradientUnits="userSpaceOnUse" r="819.2" cx="0" cy="0" spreadMethod="pad" gradientTransform="matrix(0.00933837890625,-0.00300598144531,0.0113983154297,0.0288696289062,3.85,25.7)" id="gradient3"><stop offset="0.0" stop-color="#fedc56"/><stop offset="1.0" stop-color="#c6b024"/></radialGradient><g id="c9"><path fill="#fdfae8" stroke="none" d="M19.0 2.4 L20.7 1.6 Q23.1 0.4 25.45 2.65 L26.0 3.3 Q28.35 6.1 26.4 9.5 L25.15 11.3 Q26.55 6.15 23.4 3.45 21.2 2.3 19.0 2.4"/><path fill="#fff5d6" stroke="none" d="M15.6 3.85 L15.8 3.7 18.0 2.85 18.15 2.8 19.0 2.4 Q21.2 2.3 23.4 3.45 26.55 6.15 25.15 11.3 L24.85 11.75 23.25 13.4 14.45 15.45 Q10.5 15.9 9.7 13.7 9.25 11.7 11.3 8.45 13.2 5.4 15.6 3.85"/><path fill="#f0e4bd" stroke="none" d="M6.45 9.4 L9.05 7.2 Q11.15 5.3 11.85 5.05 L14.45 4.2 14.75 4.1 15.6 3.85 Q13.2 5.4 11.3 8.45 9.25 11.7 9.7 13.7 10.5 15.9 14.45 15.45 L23.25 13.4 19.8 16.1 14.45 20.05 Q10.9 22.55 9.15 22.8 L9.05 22.85 Q4.85 23.45 2.7 20.35 L2.65 20.3 1.9 19.0 1.85 18.7 Q1.05 16.4 2.4 13.6 3.55 11.1 6.4 9.45 L6.45 9.4"/><path fill="#ffeeab" stroke="none" d="M0.45 20.0 L0.35 19.65 Q-0.55 17.0 1.0 13.75 2.05 11.4 4.5 9.7 L5.75 8.95 Q7.3 8.6 6.45 9.4 L6.4 9.45 Q3.55 11.1 2.4 13.6 1.05 16.4 1.85 18.7 L1.9 19.0 2.65 20.3 2.7 20.35 Q4.85 23.45 9.05 22.85 L9.15 22.8 Q11.15 22.85 8.75 24.35 L8.55 24.4 Q3.75 25.1 1.35 21.6 L1.3 21.5 0.45 20.0"/><path stroke="none" fill="url(#gradient3)" d="M24.5 14.15 Q24.85 15.4 24.1 17.3 L20.15 22.2 15.75 26.4 Q12.9 27.7 10.15 28.15 5.05 29.0 2.5 25.35 L2.05 24.55 Q1.55 23.65 1.35 22.6 L0.45 20.0 1.3 21.5 1.35 21.6 Q3.75 25.1 8.55 24.4 L8.75 24.35 Q10.7 24.05 14.65 21.4 L20.65 17.15 Q22.85 15.65 24.5 14.15"/><path fill="#56a456" stroke="none" d="M27.1 1.65 L28.55 2.6 Q29.65 3.0 30.8 4.1 L31.05 4.4 Q34.25 7.8 31.6 12.2 28.85 16.65 23.2 20.45 22.5 20.9 19.4 23.6 L15.75 26.4 20.15 22.2 24.1 17.3 Q24.85 15.4 24.5 14.15 L26.6 11.95 28.2 9.5 Q30.45 5.6 27.8 2.4 L27.1 1.65"/><path fill="#e8b36f" stroke="none" d="M27.1 1.65 L27.8 2.4 Q30.45 5.6 28.2 9.5 L26.6 11.95 24.5 14.15 Q22.85 15.65 20.65 17.15 L14.65 21.4 Q10.7 24.05 8.75 24.35 11.15 22.85 9.15 22.8 10.9 22.55 14.45 20.05 L19.8 16.1 23.25 13.4 24.85 11.75 25.15 11.3 26.4 9.5 Q28.35 6.1 26.0 3.3 L25.45 2.65 Q23.1 0.4 20.7 1.6 L19.0 2.4 18.15 2.8 21.05 0.75 21.45 0.55 Q24.45 -1.0 27.1 1.65"/><path fill="none" stroke="#120e10" stroke-width="0.5" stroke-opacity="0.301960784314" d="M15.75 26.4 L19.4 23.6 Q22.5 20.9 23.2 20.45 28.85 16.65 31.6 12.2 34.25 7.8 31.05 4.4 L30.8 4.1 Q29.65 3.0 28.55 2.6 L27.1 1.65 M15.75 26.4 Q12.9 27.7 10.15 28.15 5.05 29.0 2.5 25.35 L2.05 24.55 Q1.55 23.65 1.35 22.6 L0.45 20.0 0.35 19.65 Q-0.55 17.0 1.0 13.75 2.05 11.4 4.5 9.7 L5.75 8.95 Q7.3 8.6 6.45 9.4 L9.05 7.2 Q11.15 5.3 11.85 5.05 L14.45 4.2 14.75 4.1 15.6 3.85 15.8 3.7 18.0 2.85 18.15 2.8 21.05 0.75 21.45 0.55 Q24.45 -1.0 27.1 1.65 M23.25 13.4 L19.8 16.1 14.45 20.05 Q10.9 22.55 9.15 22.8 L9.05 22.85 Q4.85 23.45 2.7 20.35 L2.65 20.3 1.9 19.0 1.85 18.7 Q1.05 16.4 2.4 13.6 3.55 11.1 6.4 9.45 L6.45 9.4"/><path fill="#120e10" fill-opacity="0.250980392157" d="M19.45 11.75 Q18.25 12.7 16.45 12.9 L13.35 12.5 Q12.15 11.9 12.15 10.8 12.15 9.65 13.35 8.7 14.65 7.8 16.45 7.55 18.25 7.35 19.45 7.95 20.75 8.6 20.75 9.75 20.75 10.85 19.45 11.75"/></g><g id="c10"><path fill="#fcf3d8" stroke="none" d="M0.9 1.9 L1.7 2.95 2.25 4.25 2.3 7.35 0.9 5.4 Q0.25 4.75 0.15 4.8 L0.1 4.9 0.05 4.35 0.4 3.55 0.5 2.25 0.9 1.9 M0.15 4.8 L0.4 3.55 0.15 4.8"/><path fill="#b0a579" stroke="none" d="M0.9 1.9 L1.1 1.75 1.7 2.95 0.9 1.9"/><path fill="#c2b585" stroke="none" d="M8.75 7.0 Q6.85 6.95 5.45 8.1 L5.8 5.9 7.95 5.55 8.75 7.0 M7.6 4.15 L6.15 1.5 6.55 1.6 8.6 3.05 7.85 4.45 7.6 4.15"/><path fill="#453c2c" stroke="none" d="M4.05 3.5 L4.65 3.05 6.7 2.95 7.6 4.15 7.85 4.45 7.5 4.75 4.9 4.1 4.25 3.85 4.05 3.5"/><path fill="#9b8c5e" stroke="none" d="M1.7 2.95 L1.1 1.75 Q2.75 0.5 4.9 0.0 L8.55 1.8 11.05 4.65 11.05 5.4 Q10.85 6.0 8.75 7.0 L7.95 5.55 5.8 5.9 5.85 5.5 2.45 4.05 1.7 2.95 M6.15 1.5 L3.75 1.55 3.3 1.95 4.05 3.5 4.25 3.85 4.9 4.1 7.5 4.75 7.85 4.45 8.6 3.05 6.55 1.6 6.15 1.5 M4.25 3.85 L4.95 4.55 4.25 3.85"/><path fill="#7d704c" stroke="none" d="M7.6 4.15 L6.7 2.95 4.65 3.05 4.05 3.5 3.3 1.95 3.75 1.55 6.15 1.5 7.6 4.15"/><path fill="#faf0c0" stroke="none" d="M5.45 8.1 L2.3 7.35 2.25 4.25 1.7 2.95 2.45 4.05 5.85 5.5 5.8 5.9 5.45 8.1"/><path fill="none" stroke="#382510" stroke-width="0.5" stroke-opacity="0.301960784314" d="M1.1 1.75 L0.9 1.9 M1.7 2.95 L1.1 1.75 Q2.75 0.5 4.9 0.0 L8.55 1.8 11.05 4.65 11.05 5.4 M0.15 4.8 L0.1 4.9 M0.4 3.55 L0.5 2.25 0.9 1.9 M0.4 3.55 L0.15 4.8 M6.15 1.5 L3.75 1.55 3.3 1.95 4.05 3.5 4.25 3.85 4.9 4.1 7.5 4.75 7.85 4.45 8.6 3.05 M6.55 1.6 L6.15 1.5 M4.95 4.55 L4.25 3.85"/></g><g id="c11"><g><use transform="matrix(1.0,0.0,0.0,1.0,0.0,0.0)" xlink:href="#c10"/></g></g><linearGradient gradientUnits="userSpaceOnUse" x1="-819.2" x2="819.2" spreadMethod="pad" gradientTransform="matrix(0.000518798828125,0.0148315429688,0.0069580078125,-0.00222778320312,5.05,15.6)" id="gradient4"><stop offset="0.0" stop-color="#fffffa"/><stop offset="1.0" stop-color="#c8d8ce" stop-opacity="0.0"/></linearGradient><linearGradient gradientUnits="userSpaceOnUse" x1="-819.2" x2="819.2" spreadMethod="pad" gradientTransform="matrix(0.00115966796875,0.00663757324219,-0.00752258300781,-0.000198364257812,5.6,18.05)" id="gradient5"><stop offset="0.0" stop-opacity="0.101960784314"/><stop offset="1.0" stop-opacity="0.0"/></linearGradient><linearGradient gradientUnits="userSpaceOnUse" x1="-819.2" x2="819.2" spreadMethod="pad" gradientTransform="matrix(0.00115966796875,0.00663757324219,-0.00752258300781,-0.000198364257812,5.6,18.05)" id="gradient6"><stop offset="0.0" stop-opacity="0.0705882352941"/><stop offset="1.0" stop-opacity="0.0"/></linearGradient><linearGradient gradientUnits="userSpaceOnUse" x1="-819.2" x2="819.2" spreadMethod="pad" gradientTransform="matrix(-0.001953125,0.0114898681641,0.00680541992188,-7.62939453125e-05,8.1,11.05)" id="gradient7"><stop offset="0.0" stop-color="#fffffa"/><stop offset="1.0" stop-color="#c8d8ce" stop-opacity="0.0"/></linearGradient><linearGradient gradientUnits="userSpaceOnUse" x1="-819.2" x2="819.2" spreadMethod="pad" gradientTransform="matrix(-0.00154113769531,0.00907897949219,0.0105895996094,-0.000106811523438,9.75,13.1)" id="gradient8"><stop offset="0.0" stop-opacity="0.0705882352941"/><stop offset="1.0" stop-opacity="0.0"/></linearGradient><linearGradient gradientUnits="userSpaceOnUse" x1="-819.2" x2="819.2" spreadMethod="pad" gradientTransform="matrix(-0.00154113769531,0.00907897949219,0.0105895996094,-0.000106811523438,9.75,13.1)" id="gradient9"><stop offset="0.0" stop-opacity="0.101960784314"/><stop offset="1.0" stop-opacity="0.0"/></linearGradient><linearGradient gradientUnits="userSpaceOnUse" x1="-819.2" x2="819.2" spreadMethod="pad" gradientTransform="matrix(0.00485229492188,0.0171356201172,-0.00450134277344,-0.000579833984375,25.05,19.05)" id="gradient10"><stop offset="0.0" stop-color="#fffffa" stop-opacity="0.8"/><stop offset="1.0" stop-color="#c8d8ce" stop-opacity="0.0"/></linearGradient><linearGradient gradientUnits="userSpaceOnUse" x1="-819.2" x2="819.2" spreadMethod="pad" gradientTransform="matrix(0.000701904296875,0.00663757324219,-0.00668334960938,-0.00242614746094,22.4,15.05)" id="gradient11"><stop offset="0.0" stop-opacity="0.101960784314"/><stop offset="1.0" stop-opacity="0.0"/></linearGradient><linearGradient gradientUnits="userSpaceOnUse" x1="-819.2" x2="819.2" spreadMethod="pad" gradientTransform="matrix(0.000701904296875,0.00663757324219,-0.00668334960938,-0.00242614746094,21.4,7.9)" id="gradient12"><stop offset="0.0" stop-opacity="0.0705882352941"/><stop offset="1.0" stop-opacity="0.0"/></linearGradient><g id="c12"><path stroke="none" fill="url(#gradient4)" d="M5.2 13.3 Q6.0 13.85 6.15 14.7 6.4 16.1 5.75 17.15 L4.25 18.7 Q2.0 20.8 0.75 24.15 -0.5 27.55 -0.35 29.0 -0.2 30.4 2.05 31.05 L5.7 31.3 Q7.0 30.9 8.1 29.95 9.2 29.0 10.2 26.7 11.2 24.4 10.9 23.75 10.65 23.0 8.3 22.1 6.0 21.1 7.4 17.65 8.75 14.15 8.5 12.5 8.2 10.95 6.9 10.25 5.65 9.6 4.05 10.0 2.55 10.3 1.7 11.5 0.7 12.9 1.0 14.85 L1.65 16.0 Q2.55 17.05 3.6 17.05 4.8 17.15 5.4 16.0 5.9 15.05 5.75 14.4 L5.65 14.05 5.1 13.3 5.2 13.3"/><path fill="none" stroke-linejoin="round" stroke-linecap="round" stroke="url(#gradient5)" stroke-width="0.5" d="M5.1 13.3 L5.65 14.05 5.75 14.4 Q5.9 15.05 5.4 16.0 4.8 17.15 3.6 17.05 2.55 17.05 1.65 16.0 L1.0 14.85 Q0.7 12.9 1.7 11.5 2.55 10.3 4.05 10.0 5.65 9.6 6.9 10.25 8.2 10.95 8.5 12.5 8.75 14.15 7.4 17.65 6.0 21.1 8.3 22.1 10.65 23.0 10.9 23.75 11.2 24.4 10.2 26.7 9.2 29.0 8.1 29.95 7.0 30.9 5.7 31.3 L2.05 31.05 Q-0.2 30.4 -0.35 29.0 -0.5 27.55 0.75 24.15 2.0 20.8 4.25 18.7 L5.75 17.15 Q6.4 16.1 6.15 14.7 6.0 13.85 5.2 13.3"/><path fill="none" stroke-linejoin="round" stroke-linecap="round" stroke="url(#gradient6)" stroke-width="0.5" d="M5.2 13.3 L5.1 13.3"/><path fill="none" stroke="#000000" stroke-width="0.5" stroke-opacity="0.0705882352941" d="M5.15 13.35 Q3.5 12.15 3.25 14.4"/><path stroke="none" fill="url(#gradient7)" d="M10.3 6.45 L9.4 7.45 9.3 7.95 Q9.15 8.85 9.85 10.15 10.7 11.7 12.35 11.65 13.9 11.6 15.1 10.15 15.9 9.2 16.0 8.65 16.45 6.0 15.1 4.0 13.8 2.4 11.55 1.9 9.45 1.35 7.7 2.2 5.8 3.15 5.4 5.3 5.05 7.55 6.95 12.3 8.95 17.05 8.1 18.95 7.2 20.85 5.3 21.8 3.4 22.7 2.35 26.2 1.3 29.65 3.95 28.75 6.65 27.85 8.95 28.15 11.25 28.4 13.85 26.25 16.4 24.1 16.85 23.95 17.25 23.75 18.0 21.55 18.7 19.3 14.2 15.85 9.7 12.3 9.3 11.7 8.4 10.25 8.75 8.35 8.95 7.15 10.05 6.4 L10.3 6.45"/><path fill="none" stroke-linejoin="round" stroke-linecap="round" stroke="url(#gradient8)" stroke-width="0.5" d="M10.05 6.4 L10.3 6.45"/><path fill="none" stroke-linejoin="round" stroke-linecap="round" stroke="url(#gradient9)" stroke-width="0.5" d="M10.3 6.45 L9.4 7.45 9.3 7.95 Q9.15 8.85 9.85 10.15 10.7 11.7 12.35 11.65 13.9 11.6 15.1 10.15 15.9 9.2 16.0 8.65 16.45 6.0 15.1 4.0 13.8 2.4 11.55 1.9 9.45 1.35 7.7 2.2 5.8 3.15 5.4 5.3 5.05 7.55 6.95 12.3 8.95 17.05 8.1 18.95 7.2 20.85 5.3 21.8 3.4 22.7 2.35 26.2 1.3 29.65 3.95 28.75 6.65 27.85 8.95 28.15 11.25 28.4 13.85 26.25 16.4 24.1 16.85 23.95 17.25 23.75 18.0 21.55 18.7 19.3 14.2 15.85 9.7 12.3 9.3 11.7 8.4 10.25 8.75 8.35 8.95 7.15 10.05 6.4"/><path fill="none" stroke="#000000" stroke-width="0.5" stroke-opacity="0.0705882352941" d="M10.2 6.5 Q12.45 4.9 12.9 8.0"/><path stroke="none" fill="url(#gradient10)" d="M21.3 3.15 L21.7 4.05 21.8 4.45 Q21.85 5.1 21.4 5.85 20.75 6.6 19.7 6.25 18.75 5.9 18.1 4.75 L17.55 3.45 Q17.35 1.5 18.3 0.45 19.1 -0.45 20.55 -0.3 21.85 -0.25 23.05 0.75 24.1 1.8 24.2 3.3 24.4 4.95 23.1 7.9 21.7 10.75 21.8 13.25 21.9 15.75 24.6 18.8 27.3 21.85 20.4 24.4 13.45 26.9 16.95 27.8 20.45 28.7 10.8 31.2 1.15 33.7 5.55 27.55 9.95 21.35 13.4 17.2 L13.45 17.15 Q15.9 14.35 15.05 15.65 L15.85 14.5 Q19.8 11.9 21.0 9.05 22.25 6.2 22.1 4.8 22.05 3.95 21.4 3.15 L21.3 3.15 M15.05 15.65 L14.75 16.0 13.45 17.15 14.75 16.0 15.05 15.65"/><path fill="none" stroke-linejoin="round" stroke-linecap="round" stroke="url(#gradient11)" stroke-width="0.5" d="M21.3 3.15 L21.7 4.05 21.8 4.45 Q21.85 5.1 21.4 5.85 20.75 6.6 19.7 6.25 18.75 5.9 18.1 4.75 L17.55 3.45 Q17.35 1.5 18.3 0.45 19.1 -0.45 20.55 -0.3 21.85 -0.25 23.05 0.75 24.1 1.8 24.2 3.3 24.4 4.95 23.1 7.9 21.7 10.75 21.8 13.25 21.9 15.75 24.6 18.8 27.3 21.85 20.4 24.4 13.45 26.9 16.95 27.8 20.45 28.7 10.8 31.2 1.15 33.7 5.55 27.55 9.95 21.35 13.4 17.2 L13.45 17.15 Q15.9 14.35 15.05 15.65 L15.85 14.5 Q19.8 11.9 21.0 9.05 22.25 6.2 22.1 4.8 22.05 3.95 21.4 3.15 M13.45 17.15 L14.75 16.0 15.05 15.65"/><path fill="none" stroke-linejoin="round" stroke-linecap="round" stroke="url(#gradient12)" stroke-width="0.5" d="M21.4 3.15 L21.3 3.15"/><path fill="none" stroke="#000000" stroke-width="0.5" stroke-opacity="0.0705882352941" d="M21.15 3.05 Q19.75 1.4 19.4 3.5"/></g><g id="c13"><g><use transform="matrix(1.0,0.0,0.0,1.0,0.0,0.0)" xlink:href="#c12"/></g></g><g id="c14"><g><use transform="matrix(1.0,0.0,0.0,1.0,0.0,0.0)" xlink:href="#c9"/></g><g><use transform="matrix(0.660446166992,-0.381301879883,0.381301879883,0.660446166992,9.15,9.95)" xlink:href="#c11"/></g><g><use transform="matrix(1.0,0.0,0.0,1.0,1.1,-11.05)" filter="url(#filter8)" xlink:href="#c13"/></g></g><filter id="filter8"><feColorMatrix in="SourceGraphic" type="matrix" values="1.0 0.0 0.0 0.0 0.0 0.0 1.0 0.0 0.0 0.0 0.0 0.0 1.0 0.0 0.0 0.0 0.0 0.0 0.828125 0.0" result="cxform"/><feComposite operator="in" in2="SourceGraphic" result="color-xform"/></filter><g id="c15"><g><use transform="matrix(1.0,0.0,0.0,1.0,0.0,0.0)" xlink:href="#c2"/></g><g><use transform="matrix(0.238861083984,-0.0867004394531,0.10026550293,0.233917236328,34.25,31.15)" xlink:href="#c4"/></g><g><use transform="matrix(0.238861083984,-0.0867004394531,0.10026550293,0.233917236328,4.25,10.3)" xlink:href="#c4"/></g><g><use transform="matrix(0.141098022461,-0.0378112792969,0.111373901367,0.225646972656,20.25,20.65)" filter="url(#filter12)" xlink:href="#c6"/></g><g><use transform="matrix(-0.155029296875,0.0513153076172,0.0841827392578,0.147033691406,22.6,2.3)" filter="url(#filter13)" xlink:href="#c8"/></g><g><use transform="matrix(0.476150512695,0.0,0.0,0.476150512695,14.25,16.15)" xlink:href="#c14"/></g><g><use transform="matrix(0.162948608398,-0.0436706542969,0.128631591797,0.260604858398,20.35,20.95)" filter="url(#filter15)" xlink:href="#c6"/></g></g><filter id="filter12"><feColorMatrix in="SourceGraphic" type="matrix" values="0.0 0.0 0.0 0.0 0.796875 0.0 0.0 0.0 0.0 0.59765625 0.0 0.0 0.0 0.0 0.19921875 0.0 0.0 0.0 1.0 0.0" result="cxform"/><feComposite operator="in" in2="SourceGraphic" result="color-xform"/></filter><filter id="filter13"><feColorMatrix in="SourceGraphic" type="matrix" values="0.0 0.0 0.0 0.0 0.99609375 0.0 0.0 0.0 0.0 0.99609375 0.0 0.0 0.0 0.0 0.99609375 0.0 0.0 0.0 1.0 0.0" result="cxform"/><feComposite operator="in" in2="SourceGraphic" result="color-xform"/></filter><filter id="filter15"><feColorMatrix in="SourceGraphic" type="matrix" values="1.0 0.0 0.0 0.0 0.0 0.0 1.0 0.0 0.0 0.0 0.0 0.0 1.0 0.0 0.0 0.0 0.0 0.0 0.23046875 0.0" result="cxform"/><feComposite operator="in" in2="SourceGraphic" result="color-xform"/></filter></defs><g><g><use transform="matrix(1.0,0.0,0.0,1.0,0.0,0.0)" xlink:href="#c1"/></g><g><use transform="matrix(1.15496826172,0.0,0.0,1.15496826172,5.85,3.95)" xlink:href="#c15"/></g></g></svg>