<?xml version='1.0' encoding='UTF-8'?>
<svg xmlns:xlink="http://www.w3.org/1999/xlink" xmlns="http://www.w3.org/2000/svg" version="1.1" width="60px" height="60px" viewBox="0.0 0.0 60.0 60.0"><defs><g id="c1"><path fill="#000000" fill-opacity="0.00392156862745" d="M0.0 0.0 L60.0 0.0 60.0 60.0 0.0 60.0 0.0 0.0"/></g><g id="c2"><path fill="none" stroke="#000000" stroke-width="1.0" stroke-opacity="0.301960784314" d="M22.3 0.35 Q26.6 -1.0 28.5 3.05 L41.4 31.7 Q43.1 35.4 39.9 36.85 L38.15 37.65 19.65 43.65 Q17.05 44.5 15.35 43.3 14.2 42.55 13.5 40.9 L0.55 12.25 Q-0.6 9.75 0.6 8.25 1.15 7.55 2.2 7.05 2.85 6.6 3.8 6.3 L22.3 0.35"/><path fill="#300525" stroke="none" d="M25.55 0.9 Q26.9 1.6 27.8 3.55 L40.7 32.15 Q42.6 36.3 38.3 37.65 L23.3 42.5 13.15 21.4 4.6 20.9 0.7 12.25 Q-0.45 9.75 0.75 8.25 L29.8 9.75 25.55 0.9 M20.1 43.55 L19.8 43.65 Q17.15 44.45 15.5 43.3 L20.1 43.55"/><path fill="#630a4c" stroke="none" d="M23.3 42.5 L20.1 43.55 15.5 43.3 Q14.35 42.55 13.65 40.9 L4.6 20.9 13.15 21.4 23.3 42.5 M0.75 8.25 Q1.45 7.3 3.1 6.75 L21.65 0.8 25.55 0.9 29.8 9.75 0.75 8.25"/><path fill="none" stroke="#000000" stroke-width="0.5" stroke-opacity="0.301960784314" d="M25.55 0.9 Q26.9 1.6 27.8 3.55 L40.7 32.15 Q42.6 36.3 38.3 37.65 L23.3 42.5 20.1 43.55 19.8 43.65 Q17.15 44.45 15.5 43.3 14.35 42.55 13.65 40.9 L4.6 20.9 0.7 12.25 Q-0.45 9.75 0.75 8.25 1.45 7.3 3.1 6.75 L21.65 0.8 25.55 0.9"/><path fill="#9d147b" stroke="none" d="M14.2 40.5 L1.35 11.8 Q-0.5 7.75 3.8 6.35 L22.3 0.4 Q26.55 -1.0 28.45 3.1 L41.35 31.7 Q43.25 35.85 38.9 37.25 L20.4 43.2 Q16.1 44.55 14.2 40.5"/><path fill="none" stroke="#000000" stroke-width="0.5" stroke-opacity="0.301960784314" d="M14.2 40.5 L1.35 11.8 Q-0.5 7.75 3.8 6.35 L22.3 0.4 Q26.55 -1.0 28.45 3.1 L41.35 31.7 Q43.25 35.85 38.9 37.25 L20.4 43.2 Q16.1 44.55 14.2 40.5"/><path fill="#fcf2cf" stroke="none" d="M9.15 13.6 Q9.8 12.8 9.55 11.6 L9.1 10.55 22.05 6.35 Q24.9 5.45 26.25 7.85 L26.5 8.3 35.8 29.0 35.95 29.35 Q34.75 29.3 34.1 30.1 33.45 30.9 33.7 32.1 L34.0 32.9 20.65 37.2 Q18.8 37.8 17.65 37.0 16.8 36.4 16.3 35.2 L6.95 14.6 6.8 14.4 7.1 14.4 Q8.4 14.45 9.15 13.6"/><path fill="#c47fad" stroke="none" d="M8.25 23.65 L3.35 12.8 Q1.65 9.1 5.5 7.85 L22.25 2.5 Q26.05 1.25 27.75 4.95 L28.25 6.1 35.55 22.3 39.35 30.75 Q41.1 34.5 37.2 35.7 L20.45 41.1 Q16.8 42.25 15.2 39.0 L15.0 38.6 8.25 23.65 M9.15 13.6 Q8.4 14.45 7.1 14.4 L6.8 14.4 6.95 14.6 16.3 35.2 Q16.8 36.4 17.65 37.0 18.8 37.8 20.65 37.2 L34.0 32.9 33.7 32.1 Q33.45 30.9 34.1 30.1 34.75 29.3 35.95 29.35 L35.8 29.0 26.5 8.3 26.25 7.85 Q24.9 5.45 22.05 6.35 L9.1 10.55 9.55 11.6 Q9.8 12.8 9.15 13.6"/><path fill="none" stroke="#ffcc00" stroke-width="1.0" stroke-opacity="0.749019607843" d="M8.25 23.65 L3.35 12.8 Q1.65 9.1 5.5 7.85 L22.25 2.5 Q26.05 1.25 27.75 4.95 L28.25 6.1 M35.55 22.3 L39.35 30.75 Q41.1 34.5 37.2 35.7 L20.45 41.1 Q16.8 42.25 15.2 39.0 L15.0 38.6"/><path fill="none" stroke="#bf9900" stroke-width="1.0" stroke-opacity="0.749019607843" d="M28.25 6.1 L35.55 22.3 M15.0 38.6 L8.25 23.65"/><path fill="none" stroke="#f0b92b" stroke-width="0.5" d="M9.15 13.6 Q9.8 12.8 9.55 11.6 L9.1 10.55 22.05 6.35 Q24.9 5.45 26.25 7.85 L26.5 8.3 35.8 29.0 35.95 29.35 Q34.75 29.3 34.1 30.1 33.45 30.9 33.7 32.1 L34.0 32.9 20.65 37.2 Q18.8 37.8 17.65 37.0 16.8 36.4 16.3 35.2 L6.95 14.6 6.8 14.4 7.1 14.4 Q8.4 14.45 9.15 13.6"/></g><g id="c3"><path fill="#7fdbfe" stroke="none" d="M10.75 4.9 Q10.75 4.6 10.9 4.35 11.25 3.45 11.95 2.75 13.3 1.5 14.35 2.1 15.4 2.7 14.95 4.45 14.7 5.4 14.1 6.15 L13.75 6.5 Q13.1 7.15 12.35 7.35 L11.4 7.2 Q10.95 6.9 10.75 6.4 10.5 5.75 10.75 4.9 M7.5 5.9 Q7.0 5.85 6.6 5.5 6.05 5.0 5.8 4.15 L5.7 3.6 Q5.55 2.65 5.8 1.7 6.25 0.0 7.5 0.0 L7.6 0.0 Q8.85 0.0 9.3 1.7 9.55 2.65 9.4 3.6 L9.3 4.15 8.5 5.5 7.6 5.9 7.5 5.9 M4.35 4.9 Q4.6 5.75 4.35 6.4 L3.7 7.2 2.75 7.35 Q2.0 7.15 1.35 6.5 L1.0 6.15 Q0.4 5.4 0.15 4.45 -0.3 2.7 0.75 2.1 1.8 1.5 3.15 2.75 3.85 3.45 4.2 4.35 L4.35 4.9 M5.5 13.7 Q4.45 13.9 3.65 12.95 2.75 12.0 3.2 10.25 3.7 8.5 5.25 7.6 6.4 6.9 7.55 7.0 8.75 6.9 9.9 7.6 11.45 8.5 11.95 10.25 12.35 12.0 11.5 12.95 10.7 13.9 9.65 13.7 8.55 13.5 7.55 12.6 6.55 13.5 5.5 13.7"/></g><g id="c4"><g><use transform="matrix(1.0,0.0,0.0,1.0,0.0,0.0)" xlink:href="#c3"/></g></g><radialGradient gradientUnits="userSpaceOnUse" r="819.2" cx="0" cy="0" spreadMethod="pad" gradientTransform="matrix(0.0914459228516,0.0,0.0,0.0914459228516,0.6,3.4)" id="gradient1"><stop offset="0.0" stop-color="#ffffff"/><stop offset="1.0" stop-color="#ffffff" stop-opacity="0.0"/></radialGradient><g id="c5"><path stroke="none" fill="url(#gradient1)" d="M36.65 -54.65 Q60.05 -42.0 69.75 -17.95 80.55 8.9 68.0 34.1 55.45 59.35 26.8 68.2 -1.8 77.05 -29.7 64.3 -57.6 51.6 -68.45 24.75 -79.3 -2.05 -66.75 -27.25 L-66.7 -27.3 Q-54.1 -52.5 -25.5 -61.4 3.1 -70.2 31.0 -57.5 L36.65 -54.65"/></g><g id="c6"><g><use transform="matrix(1.0,0.0,0.0,1.0,0.0,0.0)" xlink:href="#c5"/></g></g><radialGradient gradientUnits="userSpaceOnUse" r="819.2" cx="0" cy="0" spreadMethod="pad" gradientTransform="matrix(0.209197998047,0.0,0.0,0.177108764648,67.15,107.2)" id="gradient2"><stop offset="0.356862745098" stop-color="#ffffff"/><stop offset="0.670588235294" stop-opacity="0.0"/></radialGradient><g id="c7"><path fill="none" stroke-linejoin="round" stroke-linecap="round" stroke="url(#gradient2)" stroke-width="0.5" d="M136.55 165.8 L68.6 106.0 68.4 106.0 118.25 201.5 M68.2 105.7 L68.25 105.8 68.25 105.75 68.2 105.7 0.0 45.7 M68.25 105.8 L68.3 105.85 68.3 105.8 68.25 105.75 49.95 0.05 M0.05 97.7 L68.15 105.95 68.25 105.85 68.25 105.8 M68.3 105.85 L68.25 105.85 68.3 106.0 68.3 105.85 68.3 105.8 68.35 105.8 68.3 105.8 86.6 18.35 M50.0 193.2 L68.3 106.0 68.15 105.95 18.25 151.55 M68.4 106.0 L68.3 106.0 86.55 211.5 M68.4 106.0 L68.3 105.85 M68.6 106.0 L68.35 105.8 118.25 60.15 M136.6 114.25 L68.6 106.0 M68.2 105.7 L18.25 10.05"/></g><g id="c8"><g><use transform="matrix(1.0,0.0,0.0,1.0,0.0,0.0)" xlink:href="#c7"/></g></g><g id="c9"><path fill="#6b4b1d" stroke="none" d="M11.0 18.45 L11.75 18.1 22.25 22.55 21.95 23.15 15.75 20.65 Q11.95 19.1 11.0 18.45"/><path fill="#d19d50" stroke="none" d="M15.75 20.65 L21.95 23.15 21.65 23.85 10.95 19.85 10.7 19.2 Q12.95 19.6 15.75 20.65"/><path fill="#dfbb86" stroke="none" d="M11.0 18.45 Q11.95 19.1 15.75 20.65 12.95 19.6 10.7 19.2 L11.0 18.45"/><path fill="none" stroke="#000000" stroke-width="0.5" stroke-opacity="0.301960784314" d="M22.25 22.55 L11.75 18.1 11.0 18.45 M21.65 23.85 L10.95 19.85 10.7 19.2 11.0 18.45"/></g><g id="c10"><path fill="#54bcbc" stroke="none" d="M36.25 1.25 Q41.9 11.9 39.95 22.1 L32.5 18.65 26.5 19.2 32.75 4.8 33.75 2.75 32.75 4.8 33.65 2.75 33.75 2.75 36.25 1.25 M15.8 32.5 L8.6 33.4 7.8 33.5 3.2 33.75 1.8 25.2 15.8 32.5 M1.4 22.5 L0.3 15.8 20.85 7.7 18.2 12.6 13.65 20.65 10.1 21.15 6.7 21.65 6.0 21.8 5.95 21.8 4.8 21.95 1.4 22.5"/><path fill="#87efef" stroke="none" d="M30.35 28.95 Q25.6 30.55 20.65 31.6 L15.8 32.5 1.8 25.2 1.4 22.5 4.8 21.95 5.95 21.8 6.0 21.8 6.7 21.65 10.1 21.15 30.35 28.95 M32.75 4.8 L26.5 19.2 18.8 20.0 15.6 20.45 15.1 20.45 14.35 20.6 13.65 20.65 18.2 12.6 21.05 7.65 18.2 12.6 20.85 7.7 21.05 7.65 33.65 2.75 32.75 4.8"/><path fill="#bbf7f7" stroke="none" d="M36.25 1.2 L36.25 1.25 33.75 2.75 33.65 2.75 21.05 7.65 20.85 7.7 0.3 15.8 0.0 14.05 4.45 12.5 5.15 12.15 16.8 7.65 22.15 5.6 34.75 0.4 35.6 0.0 36.25 1.2 M34.75 0.4 L33.75 2.75 34.75 0.4 M22.15 5.6 L21.05 7.65 22.15 5.6"/><path fill="#6cc6c5" stroke="none" d="M39.95 22.1 L39.95 22.15 39.1 25.4 30.35 28.95 10.1 21.15 13.65 20.65 14.35 20.6 15.1 20.45 15.6 20.45 18.8 20.0 26.5 19.2 32.5 18.65 39.95 22.1"/><path fill="none" stroke="#ffffff" stroke-width="0.5" stroke-opacity="0.301960784314" d="M33.75 2.75 L32.75 4.8 26.5 19.2 32.5 18.65 39.95 22.1 M33.75 2.75 L34.75 0.4 M18.2 12.6 L21.05 7.65 22.15 5.6 M18.2 12.6 L13.65 20.65 14.35 20.6 15.1 20.45 15.6 20.45 18.8 20.0 26.5 19.2 M6.0 21.8 L6.7 21.65 10.1 21.15 13.65 20.65 M1.4 22.5 L4.8 21.95 M15.8 32.5 L1.8 25.2 M10.1 21.15 L30.35 28.95"/><path fill="none" stroke="#000000" stroke-width="0.5" stroke-opacity="0.301960784314" d="M36.25 1.25 Q41.9 11.9 39.95 22.1 M39.95 22.15 L39.1 25.4 30.35 28.95 Q25.6 30.55 20.65 31.6 L15.8 32.5 8.6 33.4 7.8 33.5 3.2 33.75 M0.0 14.05 L4.45 12.5 5.15 12.15 16.8 7.65 22.15 5.6 34.75 0.4 35.6 0.0 36.25 1.2"/><path fill="#ffffff" fill-opacity="0.301960784314" d="M33.85 17.75 Q31.2 18.6 28.4 17.3 25.6 15.95 24.2 13.2 22.85 10.55 23.7 8.05 24.55 5.6 27.15 4.65 29.8 3.9 32.6 5.25 35.4 6.55 36.8 9.2 38.15 12.0 37.3 14.45 36.45 16.95 33.85 17.75"/><path fill="#ffffff" fill-opacity="0.301960784314" d="M11.2 30.1 Q9.25 30.75 7.15 29.75 5.05 28.75 3.95 26.7 2.95 24.7 3.6 22.85 4.25 20.95 6.2 20.3 8.2 19.7 10.3 20.7 12.4 21.7 13.45 23.7 14.45 25.75 13.8 27.65 13.15 29.5 11.2 30.1"/></g><g id="c11"><g><use transform="matrix(1.0,0.0,0.0,1.0,0.0,0.0)" xlink:href="#c10"/></g></g><g id="c12"><path fill="#ff9900" stroke="none" d="M23.85 15.3 L23.95 15.55 24.7 15.95 Q25.15 16.0 25.5 15.65 25.9 15.35 25.95 14.8 26.05 14.35 25.75 13.95 L25.6 13.85 25.7 14.45 25.25 15.25 24.4 15.55 23.85 15.3"/><path fill="#ffff00" stroke="none" d="M25.6 13.85 L25.75 13.95 Q26.05 14.35 25.95 14.8 25.9 15.35 25.5 15.65 25.15 16.0 24.7 15.95 L23.95 15.55 23.85 15.3 Q23.75 15.05 23.8 14.7 23.85 14.2 24.2 13.85 24.6 13.55 25.0 13.6 25.35 13.6 25.6 13.85 M26.1 14.15 L25.9 13.85 25.35 13.4 25.1 13.4 Q24.55 13.35 24.1 13.75 23.7 14.1 23.6 14.65 L23.6 14.95 Q23.55 15.35 23.8 15.65 24.1 16.1 24.65 16.15 L25.65 15.8 25.9 15.5 26.15 14.85 26.1 14.15"/><path fill="#ffcc00" stroke="none" d="M23.85 15.3 L24.4 15.55 25.25 15.25 25.7 14.45 25.6 13.85 Q25.35 13.6 25.0 13.6 24.6 13.55 24.2 13.85 23.85 14.2 23.8 14.7 23.75 15.05 23.85 15.3"/><path fill="none" stroke="#000000" stroke-width="0.5" stroke-opacity="0.301960784314" d="M26.1 14.15 L26.15 14.85 25.9 15.5 25.65 15.8 24.65 16.15 Q24.1 16.1 23.8 15.65 23.55 15.35 23.6 14.95 L23.6 14.65 Q23.7 14.1 24.1 13.75 24.55 13.35 25.1 13.4 L25.35 13.4 25.9 13.85 26.1 14.15"/><path fill="#ffffff" fill-opacity="0.301960784314" d="M24.85 13.7 L25.05 13.8 25.1 13.9 25.15 14.0 25.05 14.3 24.7 14.65 24.25 14.7 24.05 14.55 24.0 14.5 24.0 14.4 24.05 14.1 24.4 13.75 24.85 13.7"/><path fill="#814307" stroke="none" d="M21.55 19.5 L21.95 19.7 Q24.65 17.6 24.85 15.95 L24.6 15.9 Q24.05 17.9 21.55 19.5"/><path fill="none" stroke="#000000" stroke-width="0.5" stroke-opacity="0.301960784314" d="M21.55 19.5 Q24.05 17.9 24.6 15.9 L24.85 15.95 Q24.65 17.6 21.95 19.7 L21.55 19.5"/><path fill="#ffff00" stroke="none" d="M22.4 19.6 L22.45 19.55 22.5 19.5 22.55 19.35 22.25 19.2 21.9 19.15 21.85 19.15 21.55 19.2 21.5 19.25 19.4 20.35 19.35 20.4 19.65 20.4 19.95 20.5 20.1 20.65 20.1 20.7 20.05 20.8 20.2 20.65 21.05 20.25 20.15 20.6 20.05 20.4 19.75 20.3 21.7 19.3 21.75 19.25 Q22.0 19.1 22.45 19.4 L22.4 19.6"/><path fill="#cc6b22" stroke="none" d="M22.4 19.6 L22.45 19.4 21.05 20.25 20.2 20.65 20.05 20.8 20.1 20.7 20.1 20.65 19.95 20.5 19.65 20.4 19.35 20.4 19.3 20.4 19.2 20.55 19.35 20.75 19.65 20.9 19.95 20.9 20.0 20.85 20.0 20.9 22.4 19.6 M19.45 20.45 L19.65 20.45 19.85 20.5 19.9 20.65 19.9 20.75 19.85 20.75 19.8 20.8 19.65 20.8 19.45 20.7 19.35 20.55 19.4 20.45 19.45 20.45"/><path fill="#f4a33c" stroke="none" d="M22.45 19.4 Q22.0 19.1 21.75 19.25 L21.7 19.3 19.75 20.3 20.05 20.4 20.15 20.6 21.05 20.25 22.45 19.4 M19.9 20.75 L19.7 20.8 19.5 20.7 19.4 20.55 19.45 20.45 19.4 20.45 19.35 20.55 19.45 20.7 19.65 20.8 19.8 20.8 19.85 20.75 19.9 20.75"/><path fill="#783f07" stroke="none" d="M19.9 20.75 L19.9 20.65 19.85 20.5 19.65 20.45 19.45 20.45 19.4 20.55 19.5 20.7 19.7 20.8 19.9 20.75"/><path fill="none" stroke="#000000" stroke-width="0.5" stroke-opacity="0.301960784314" d="M19.35 20.4 L19.4 20.35 21.5 19.25 21.55 19.2 21.85 19.15 21.9 19.15 22.25 19.2 22.55 19.35 22.5 19.5 22.45 19.55 22.4 19.6 M19.35 20.4 L19.3 20.4 19.2 20.55 19.35 20.75 19.65 20.9 19.95 20.9 20.0 20.9 22.4 19.6 M19.95 20.9 L20.0 20.85"/><path fill="#85adad" stroke="none" d="M19.75 16.85 L18.85 17.15 Q17.5 17.75 16.95 19.15 L16.45 19.65 16.2 19.85 Q15.35 20.4 15.1 21.45 L15.05 21.7 Q14.75 23.0 15.6 24.1 15.55 24.85 15.8 25.6 16.25 26.95 17.75 27.15 L19.0 27.65 Q20.25 28.35 21.65 28.5 L23.7 28.4 24.7 28.0 25.4 27.5 26.95 25.8 Q27.5 24.85 27.55 23.85 L27.45 23.15 27.15 21.25 26.2 18.85 Q25.5 17.5 24.1 17.05 22.8 16.6 21.4 16.65 L19.75 16.85 M15.3 24.15 Q14.3 22.9 14.75 21.35 15.0 20.3 15.85 19.65 L16.15 19.5 16.75 18.95 Q17.3 17.45 18.7 16.85 L19.65 16.5 21.4 16.3 24.25 16.7 Q25.7 17.25 26.5 18.6 27.15 19.8 27.45 21.15 L27.8 23.15 27.85 23.9 Q27.8 25.0 27.3 25.95 L25.65 27.75 24.9 28.25 23.85 28.75 21.65 28.8 Q20.2 28.65 18.9 27.9 L17.55 27.4 Q15.95 27.15 15.55 25.75 15.25 24.95 15.3 24.15 M20.45 19.8 L20.85 19.95 Q21.75 19.75 22.35 19.2 L22.7 18.45 Q22.25 17.3 20.95 17.6 L20.2 17.85 Q19.2 18.3 18.55 19.2 L18.55 19.5 Q19.65 19.0 20.45 19.8 M23.75 20.05 L24.5 20.2 Q25.3 20.0 24.95 19.15 24.4 18.4 23.65 19.25 23.25 19.7 23.75 20.05 M26.45 21.05 Q27.1 21.1 27.2 22.0 L27.4 23.7 Q27.5 25.05 26.5 25.9 26.1 26.3 25.55 26.2 24.95 26.1 25.3 25.35 25.9 24.25 25.4 23.25 L25.4 22.75 Q25.65 21.8 26.45 21.05 M20.5 17.05 L23.35 17.1 Q24.0 17.15 24.45 17.5 L25.5 18.2 25.9 19.4 26.0 20.35 Q25.8 21.5 24.95 22.25 L24.75 22.55 24.95 24.55 24.7 25.0 Q23.0 26.15 20.95 26.6 L18.9 26.75 Q16.9 26.5 16.65 24.6 L16.4 24.35 Q15.7 24.3 15.45 23.6 15.3 22.9 15.5 22.2 L15.15 22.05 15.1 21.7 Q15.25 20.6 16.25 20.15 L17.35 19.3 17.95 18.35 Q18.9 17.15 20.5 17.05 M20.15 21.85 Q19.3 20.45 17.75 20.65 L17.35 20.55 Q15.95 21.45 16.15 22.95 L16.5 23.2 16.95 23.15 Q17.0 23.9 17.65 24.25 L18.45 24.3 Q20.25 23.8 20.25 22.1 L20.15 21.85 M23.2 26.7 L23.55 26.45 23.95 26.1 24.55 26.3 24.65 27.05 24.35 27.45 Q23.2 27.95 23.2 26.7"/><path fill="#669999" stroke="none" d="M19.75 16.85 L21.4 16.65 Q22.8 16.6 24.1 17.05 25.5 17.5 26.2 18.85 L27.15 21.25 27.45 23.15 27.55 23.85 Q27.5 24.85 26.95 25.8 L25.4 27.5 24.7 28.0 23.7 28.4 21.65 28.5 Q20.25 28.35 19.0 27.65 L17.75 27.15 Q16.25 26.95 15.8 25.6 15.55 24.85 15.6 24.1 14.75 23.0 15.05 21.7 L15.1 21.45 Q15.35 20.4 16.2 19.85 L16.45 19.65 16.95 19.15 Q17.5 17.75 18.85 17.15 L19.75 16.85 M20.5 17.05 Q18.9 17.15 17.95 18.35 L17.35 19.3 16.25 20.15 Q15.25 20.6 15.1 21.7 L15.15 22.05 15.5 22.2 Q15.3 22.9 15.45 23.6 15.7 24.3 16.4 24.35 L16.65 24.6 Q16.9 26.5 18.9 26.75 L20.95 26.6 Q23.0 26.15 24.7 25.0 L24.95 24.55 24.75 22.55 24.95 22.25 Q25.8 21.5 26.0 20.35 L25.9 19.4 25.5 18.2 24.45 17.5 Q24.0 17.15 23.35 17.1 L20.5 17.05 M26.45 21.05 Q25.65 21.8 25.4 22.75 L25.4 23.25 Q25.9 24.25 25.3 25.35 24.95 26.1 25.55 26.2 26.1 26.3 26.5 25.9 27.5 25.05 27.4 23.7 L27.2 22.0 Q27.1 21.1 26.45 21.05 M23.2 26.7 Q23.2 27.95 24.35 27.45 L24.65 27.05 24.55 26.3 23.95 26.1 23.55 26.45 23.2 26.7"/><path fill="#adc9c8" stroke="none" d="M23.75 20.05 Q23.25 19.7 23.65 19.25 24.4 18.4 24.95 19.15 25.3 20.0 24.5 20.2 L23.75 20.05 M20.45 19.8 Q19.65 19.0 18.55 19.5 L18.55 19.2 Q19.2 18.3 20.2 17.85 L20.95 17.6 Q22.25 17.3 22.7 18.45 L22.35 19.2 Q21.75 19.75 20.85 19.95 L20.45 19.8 M20.15 21.85 L20.25 22.1 Q20.25 23.8 18.45 24.3 L17.65 24.25 Q17.0 23.9 16.95 23.15 L16.5 23.2 16.15 22.95 Q15.95 21.45 17.35 20.55 L17.75 20.65 Q19.3 20.45 20.15 21.85"/><path fill="none" stroke="#000000" stroke-width="0.5" stroke-opacity="0.301960784314" d="M15.3 24.15 Q14.3 22.9 14.75 21.35 15.0 20.3 15.85 19.65 L16.15 19.5 16.75 18.95 Q17.3 17.45 18.7 16.85 L19.65 16.5 21.4 16.3 24.25 16.7 Q25.7 17.25 26.5 18.6 27.15 19.8 27.45 21.15 L27.8 23.15 27.85 23.9 Q27.8 25.0 27.3 25.95 L25.65 27.75 24.9 28.25 23.85 28.75 21.65 28.8 Q20.2 28.65 18.9 27.9 L17.55 27.4 Q15.95 27.15 15.55 25.75 15.25 24.95 15.3 24.15"/><path fill="#ffcc00" stroke="none" d="M29.95 21.8 L29.65 21.35 Q29.6 21.0 29.9 20.65 30.2 20.4 30.7 20.3 L31.4 20.35 31.7 20.85 31.5 21.55 30.65 21.9 29.95 21.8"/><path fill="#ffff00" stroke="none" d="M31.85 20.65 L31.9 20.8 31.65 21.65 Q31.25 21.95 30.65 22.05 L30.4 22.1 29.6 21.85 Q29.1 21.6 29.0 21.15 28.95 20.7 29.3 20.35 L29.55 20.15 Q29.9 19.95 30.3 19.9 L31.0 19.95 31.35 20.15 31.85 20.65 M31.4 20.35 L31.25 20.25 30.25 20.05 29.45 20.45 Q29.2 20.75 29.25 21.15 L29.7 21.75 29.95 21.8 30.65 21.9 31.5 21.55 31.7 20.85 31.4 20.35"/><path fill="#ff9900" stroke="none" d="M29.95 21.8 L29.7 21.75 29.25 21.15 Q29.2 20.75 29.45 20.45 L30.25 20.05 31.25 20.25 31.4 20.35 30.7 20.3 Q30.2 20.4 29.9 20.65 29.6 21.0 29.65 21.35 L29.95 21.8"/><path fill="none" stroke="#000000" stroke-width="0.5" stroke-opacity="0.301960784314" d="M31.85 20.65 L31.35 20.15 31.0 19.95 30.3 19.9 Q29.9 19.95 29.55 20.15 L29.3 20.35 Q28.95 20.7 29.0 21.15 29.1 21.6 29.6 21.85 L30.4 22.1 30.65 22.05 Q31.25 21.95 31.65 21.65 L31.9 20.8 31.85 20.65"/><path fill="#ffffff" fill-opacity="0.301960784314" d="M31.6 20.9 L31.4 20.8 31.3 20.75 31.2 20.7 30.9 20.8 Q30.65 20.85 30.55 21.05 L30.55 21.4 30.7 21.55 30.8 21.6 30.9 21.6 31.2 21.55 31.55 21.25 31.6 20.9"/><path fill="#000000" fill-opacity="0.301960784314" d="M25.25 23.5 L24.95 23.65 24.7 23.0 25.25 23.5 M25.1 24.2 L25.45 23.85 Q25.55 24.25 25.05 25.0 L25.1 24.2"/><path fill="#814307" stroke="none" d="M24.95 23.65 L25.25 23.5 Q27.4 21.65 29.5 21.55 L29.6 21.7 Q27.25 22.1 25.45 23.85 L25.1 24.2 24.95 23.65"/><path fill="none" stroke="#000000" stroke-width="0.5" stroke-opacity="0.301960784314" d="M24.95 23.65 L25.25 23.5 M24.7 23.0 L24.95 23.65 25.1 24.2 25.45 23.85 Q27.25 22.1 29.6 21.7 L29.5 21.55 Q27.4 21.65 25.25 23.5 M24.7 23.0 L24.6 22.85 M25.05 25.0 L25.05 25.15 M25.1 24.2 L25.05 25.0"/></g><linearGradient gradientUnits="userSpaceOnUse" x1="-819.2" x2="819.2" spreadMethod="pad" gradientTransform="matrix(0.00468444824219,0.00978088378906,-0.00151062011719,0.000503540039062,19.4,14.2)" id="gradient3"><stop offset="0.0" stop-color="#fbf1bf" stop-opacity="0.121568627451"/><stop offset="0.725490196078" stop-color="#fbf1bf" stop-opacity="0.6"/><stop offset="1.0" stop-color="#fbf1bf" stop-opacity="0.0"/></linearGradient><linearGradient gradientUnits="userSpaceOnUse" x1="-819.2" x2="819.2" spreadMethod="pad" gradientTransform="matrix(0.00369262695312,0.0116424560547,-0.00300598144531,0.000839233398438,13.4,13.7)" id="gradient4"><stop offset="0.0" stop-color="#fbf1bf" stop-opacity="0.121568627451"/><stop offset="0.725490196078" stop-color="#fbf1bf" stop-opacity="0.6"/><stop offset="1.0" stop-color="#fbf1bf" stop-opacity="0.0"/></linearGradient><g id="c13"><path fill="#ffff00" stroke="none" d="M15.95 28.55 L15.9 29.1 15.5 29.45 14.95 29.35 14.55 28.9 14.45 28.7 Q14.35 28.3 14.5 28.0 14.55 27.65 14.9 27.6 15.15 27.5 15.45 27.75 L15.95 28.4 15.95 28.55 M14.7 29.3 L14.9 29.45 15.55 29.6 16.1 29.15 16.15 29.0 16.0 28.3 15.5 27.6 Q15.15 27.35 14.85 27.4 L14.65 27.5 14.35 27.9 Q14.25 28.15 14.3 28.45 L14.4 28.75 14.7 29.3"/><path fill="#ff9900" stroke="none" d="M14.55 28.9 L14.6 28.4 Q14.7 28.05 15.0 28.0 15.3 27.9 15.65 28.15 L15.95 28.55 15.95 28.4 15.45 27.75 Q15.15 27.5 14.9 27.6 14.55 27.65 14.5 28.0 14.35 28.3 14.45 28.7 L14.55 28.9"/><path fill="#ffcc00" stroke="none" d="M14.55 28.9 L14.95 29.35 15.5 29.45 15.9 29.1 15.95 28.55 15.65 28.15 Q15.3 27.9 15.0 28.0 14.7 28.05 14.6 28.4 L14.55 28.9"/><path fill="none" stroke="#000000" stroke-width="0.5" stroke-opacity="0.301960784314" d="M14.7 29.3 L14.4 28.75 14.3 28.45 Q14.25 28.15 14.35 27.9 L14.65 27.5 14.85 27.4 Q15.15 27.35 15.5 27.6 L16.0 28.3 16.15 29.0 16.1 29.15 15.55 29.6 14.9 29.45 14.7 29.3"/><path fill="#ffffff" fill-opacity="0.301960784314" d="M15.0 29.2 L14.9 29.0 14.85 28.95 14.85 28.85 14.95 28.7 Q15.05 28.55 15.25 28.55 L15.5 28.7 15.65 28.95 15.65 29.0 15.7 29.1 15.55 29.25 15.3 29.35 15.0 29.2"/><path fill="#814307" stroke="none" d="M18.1 26.05 Q16.3 26.7 15.95 28.1 L16.1 28.2 Q16.7 26.75 18.4 26.4 L18.75 26.3 18.3 26.0 18.1 26.05"/><path fill="#000000" fill-opacity="0.301960784314" d="M18.3 26.0 L17.75 25.5 18.1 26.05 18.3 26.0 M18.4 26.4 L19.4 26.6 18.75 26.3 18.4 26.4"/><path fill="none" stroke="#000000" stroke-width="0.5" stroke-opacity="0.301960784314" d="M18.3 26.0 L17.75 25.5 17.65 25.25 M18.1 26.05 Q16.3 26.7 15.95 28.1 L16.1 28.2 Q16.7 26.75 18.4 26.4 M19.4 26.6 L19.6 26.7 M18.75 26.3 L18.4 26.4 M18.1 26.05 L18.3 26.0 18.75 26.3 19.4 26.6"/><path stroke="none" fill="url(#gradient3)" d="M21.25 11.85 Q21.65 10.4 20.6 10.2 L19.2 10.35 18.95 10.8 18.85 11.5 Q19.1 13.35 20.15 13.95 21.1 14.55 21.55 15.45 21.95 16.4 21.5 18.3 21.1 20.2 22.0 21.4 23.45 23.15 25.3 21.3 L25.35 20.5 Q24.85 19.6 23.75 19.6 23.2 19.6 22.8 19.2 21.75 18.15 22.15 16.95 L22.35 16.4 Q22.9 13.9 21.4 13.6 19.9 13.3 19.7 13.0 19.5 12.7 19.45 12.25 20.9 12.95 21.25 11.85"/><path stroke="none" fill="url(#gradient4)" d="M17.95 10.5 Q19.35 8.65 17.5 8.5 15.75 8.3 14.9 8.9 L14.25 9.45 Q13.8 9.95 13.7 10.35 13.3 12.65 14.8 13.25 16.35 13.9 16.65 15.0 16.95 16.1 15.3 18.5 13.55 20.95 14.65 22.3 16.25 24.4 20.65 21.85 L21.05 20.8 Q20.65 19.75 18.65 19.85 17.6 19.95 17.15 19.5 15.7 18.35 17.05 16.75 L17.7 16.1 Q19.9 12.85 17.3 12.65 14.75 12.5 14.45 12.1 14.25 11.75 14.45 11.2 16.8 11.9 17.95 10.5"/></g><g id="c14"><path fill="#6b4b1d" stroke="none" d="M32.3 26.3 L31.6 26.65 26.0 24.4 26.6 23.95 32.3 26.3"/><path fill="#dab37a" stroke="none" d="M32.3 26.3 L32.35 26.5 32.4 26.9 31.75 27.25 31.6 26.65 32.3 26.3"/><path fill="#d19d50" stroke="none" d="M31.6 26.65 L31.75 27.25 26.05 25.1 26.0 24.4 31.6 26.65"/><path fill="none" stroke="#000000" stroke-width="0.5" stroke-opacity="0.301960784314" d="M31.75 27.25 L32.4 26.9 32.35 26.5 32.3 26.3 M31.75 27.25 L26.05 25.1 M26.6 23.95 L32.3 26.3"/></g><g id="c15"><g><use transform="matrix(1.0,0.0,0.0,1.0,0.0,0.0)" xlink:href="#c2"/></g><g><use transform="matrix(0.238861083984,-0.0867004394531,0.10026550293,0.233917236328,34.25,31.15)" xlink:href="#c4"/></g><g><use transform="matrix(0.238861083984,-0.0867004394531,0.10026550293,0.233917236328,4.25,10.3)" xlink:href="#c4"/></g><g><use transform="matrix(0.141098022461,-0.0378112792969,0.111373901367,0.225646972656,20.25,20.65)" filter="url(#filter8)" xlink:href="#c6"/></g><g><use transform="matrix(-0.155029296875,0.0513153076172,0.0841827392578,0.147033691406,22.6,2.3)" filter="url(#filter9)" xlink:href="#c8"/></g><g><use transform="matrix(1.0,0.0,0.0,1.0,0.0,0.0)" xlink:href="#c9"/></g><g><use transform="matrix(0.145095825195,-0.0491333007812,0.0491943359375,0.145233154297,21.5,18.6)" filter="url(#filter11)" xlink:href="#c11"/></g><g><use transform="matrix(1.0,0.0,0.0,1.0,0.0,0.0)" xlink:href="#c12"/></g><g><use transform="matrix(0.072265625,-0.0244750976562,0.0181732177734,0.0536804199219,20.35,20.2)" filter="url(#filter13)" xlink:href="#c6"/></g><g><use transform="matrix(1.0,0.0,0.0,1.0,0.0,0.0)" xlink:href="#c13"/></g><g><use transform="matrix(0.0424041748047,-0.0143432617188,0.0143432617188,0.0424346923828,22.75,24.85)" filter="url(#filter15)" xlink:href="#c6"/></g><g><use transform="matrix(1.0,0.0,0.0,1.0,0.0,0.0)" xlink:href="#c14"/></g><g><use transform="matrix(0.162948608398,-0.0436706542969,0.128631591797,0.260604858398,20.35,20.95)" filter="url(#filter17)" xlink:href="#c6"/></g></g><filter id="filter8"><feColorMatrix in="SourceGraphic" type="matrix" values="0.0 0.0 0.0 0.0 0.796875 0.0 0.0 0.0 0.0 0.59765625 0.0 0.0 0.0 0.0 0.19921875 0.0 0.0 0.0 1.0 0.0" result="cxform"/><feComposite operator="in" in2="SourceGraphic" result="color-xform"/></filter><filter id="filter9"><feColorMatrix in="SourceGraphic" type="matrix" values="0.0 0.0 0.0 0.0 0.99609375 0.0 0.0 0.0 0.0 0.99609375 0.0 0.0 0.0 0.0 0.99609375 0.0 0.0 0.0 1.0 0.0" result="cxform"/><feComposite operator="in" in2="SourceGraphic" result="color-xform"/></filter><filter id="filter11"><feColorMatrix in="SourceGraphic" type="matrix" values="0.609375 0.0 0.0 0.0 0.3125 0.0 0.609375 0.0 0.0 0.0 0.0 0.0 0.609375 0.0 0.0 0.0 0.0 0.0 1.0 0.0" result="cxform"/><feComposite operator="in" in2="SourceGraphic" result="color-xform"/></filter><filter id="filter13"><feColorMatrix in="SourceGraphic" type="matrix" values="1.0 0.0 0.0 0.0 0.0 0.0 1.0 0.0 0.0 0.0 0.0 0.0 1.0 0.0 0.0 0.0 0.0 0.0 0.421875 0.0" result="cxform"/><feComposite operator="in" in2="SourceGraphic" result="color-xform"/></filter><filter id="filter15"><feColorMatrix in="SourceGraphic" type="matrix" values="1.0 0.0 0.0 0.0 0.0 0.0 1.0 0.0 0.0 0.0 0.0 0.0 1.0 0.0 0.0 0.0 0.0 0.0 0.23046875 0.0" result="cxform"/><feComposite operator="in" in2="SourceGraphic" result="color-xform"/></filter><filter id="filter17"><feColorMatrix in="SourceGraphic" type="matrix" values="1.0 0.0 0.0 0.0 0.0 0.0 1.0 0.0 0.0 0.0 0.0 0.0 1.0 0.0 0.0 0.0 0.0 0.0 0.23046875 0.0" result="cxform"/><feComposite operator="in" in2="SourceGraphic" result="color-xform"/></filter></defs><g><g><use transform="matrix(1.0,0.0,0.0,1.0,0.0,0.0)" xlink:href="#c1"/></g><g><use transform="matrix(1.15496826172,0.0,0.0,1.15496826172,5.85,3.95)" xlink:href="#c15"/></g></g></svg>