<?xml version='1.0' encoding='UTF-8'?>
<svg xmlns:xlink="http://www.w3.org/1999/xlink" xmlns="http://www.w3.org/2000/svg" version="1.1" width="60px" height="60px" viewBox="0.0 0.0 60.0 60.0"><defs><g id="c1"><path fill="#000000" fill-opacity="0.00392156862745" d="M0.0 0.0 L60.0 0.0 60.0 60.0 0.0 60.0 0.0 0.0"/></g><g id="c2"><path fill="none" stroke="#000000" stroke-width="1.0" stroke-opacity="0.301960784314" d="M22.3 0.35 Q26.6 -1.0 28.5 3.05 L41.4 31.7 Q43.1 35.4 39.9 36.85 L38.15 37.65 19.65 43.65 Q17.05 44.5 15.35 43.3 14.2 42.55 13.5 40.9 L0.55 12.25 Q-0.6 9.75 0.6 8.25 1.15 7.55 2.2 7.05 2.85 6.6 3.8 6.3 L22.3 0.35"/><path fill="#300525" stroke="none" d="M25.55 0.9 Q26.9 1.6 27.8 3.55 L40.7 32.15 Q42.6 36.3 38.3 37.65 L23.3 42.5 13.15 21.4 4.6 20.9 0.7 12.25 Q-0.45 9.75 0.75 8.25 L29.8 9.75 25.55 0.9 M20.1 43.55 L19.8 43.65 Q17.15 44.45 15.5 43.3 L20.1 43.55"/><path fill="#630a4c" stroke="none" d="M23.3 42.5 L20.1 43.55 15.5 43.3 Q14.35 42.55 13.65 40.9 L4.6 20.9 13.15 21.4 23.3 42.5 M0.75 8.25 Q1.45 7.3 3.1 6.75 L21.65 0.8 25.55 0.9 29.8 9.75 0.75 8.25"/><path fill="none" stroke="#000000" stroke-width="0.5" stroke-opacity="0.301960784314" d="M25.55 0.9 Q26.9 1.6 27.8 3.55 L40.7 32.15 Q42.6 36.3 38.3 37.65 L23.3 42.5 20.1 43.55 19.8 43.65 Q17.15 44.45 15.5 43.3 14.35 42.55 13.65 40.9 L4.6 20.9 0.7 12.25 Q-0.45 9.75 0.75 8.25 1.45 7.3 3.1 6.75 L21.65 0.8 25.55 0.9"/><path fill="#9d147b" stroke="none" d="M14.2 40.5 L1.35 11.8 Q-0.5 7.75 3.8 6.35 L22.3 0.4 Q26.55 -1.0 28.45 3.1 L41.35 31.7 Q43.25 35.85 38.9 37.25 L20.4 43.2 Q16.1 44.55 14.2 40.5"/><path fill="none" stroke="#000000" stroke-width="0.5" stroke-opacity="0.301960784314" d="M14.2 40.5 L1.35 11.8 Q-0.5 7.75 3.8 6.35 L22.3 0.4 Q26.55 -1.0 28.45 3.1 L41.35 31.7 Q43.25 35.85 38.9 37.25 L20.4 43.2 Q16.1 44.55 14.2 40.5"/><path fill="#fcf2cf" stroke="none" d="M9.15 13.6 Q9.8 12.8 9.55 11.6 L9.1 10.55 22.05 6.35 Q24.9 5.45 26.25 7.85 L26.5 8.3 35.8 29.0 35.95 29.35 Q34.75 29.3 34.1 30.1 33.45 30.9 33.7 32.1 L34.0 32.9 20.65 37.2 Q18.8 37.8 17.65 37.0 16.8 36.4 16.3 35.2 L6.95 14.6 6.8 14.4 7.1 14.4 Q8.4 14.45 9.15 13.6"/><path fill="#c47fad" stroke="none" d="M8.25 23.65 L3.35 12.8 Q1.65 9.1 5.5 7.85 L22.25 2.5 Q26.05 1.25 27.75 4.95 L28.25 6.1 35.55 22.3 39.35 30.75 Q41.1 34.5 37.2 35.7 L20.45 41.1 Q16.8 42.25 15.2 39.0 L15.0 38.6 8.25 23.65 M9.15 13.6 Q8.4 14.45 7.1 14.4 L6.8 14.4 6.95 14.6 16.3 35.2 Q16.8 36.4 17.65 37.0 18.8 37.8 20.65 37.2 L34.0 32.9 33.7 32.1 Q33.45 30.9 34.1 30.1 34.75 29.3 35.95 29.35 L35.8 29.0 26.5 8.3 26.25 7.85 Q24.9 5.45 22.05 6.35 L9.1 10.55 9.55 11.6 Q9.8 12.8 9.15 13.6"/><path fill="none" stroke="#ffcc00" stroke-width="1.0" stroke-opacity="0.749019607843" d="M8.25 23.65 L3.35 12.8 Q1.65 9.1 5.5 7.85 L22.25 2.5 Q26.05 1.25 27.75 4.95 L28.25 6.1 M35.55 22.3 L39.35 30.75 Q41.1 34.5 37.2 35.7 L20.45 41.1 Q16.8 42.25 15.2 39.0 L15.0 38.6"/><path fill="none" stroke="#bf9900" stroke-width="1.0" stroke-opacity="0.749019607843" d="M28.25 6.1 L35.55 22.3 M15.0 38.6 L8.25 23.65"/><path fill="none" stroke="#f0b92b" stroke-width="0.5" d="M9.15 13.6 Q9.8 12.8 9.55 11.6 L9.1 10.55 22.05 6.35 Q24.9 5.45 26.25 7.85 L26.5 8.3 35.8 29.0 35.95 29.35 Q34.75 29.3 34.1 30.1 33.45 30.9 33.7 32.1 L34.0 32.9 20.65 37.2 Q18.8 37.8 17.65 37.0 16.8 36.4 16.3 35.2 L6.95 14.6 6.8 14.4 7.1 14.4 Q8.4 14.45 9.15 13.6"/></g><g id="c3"><path fill="#7fdbfe" stroke="none" d="M10.75 4.9 Q10.75 4.6 10.9 4.35 11.25 3.45 11.95 2.75 13.3 1.5 14.35 2.1 15.4 2.7 14.95 4.45 14.7 5.4 14.1 6.15 L13.75 6.5 Q13.1 7.15 12.35 7.35 L11.4 7.2 Q10.95 6.9 10.75 6.4 10.5 5.75 10.75 4.9 M7.5 5.9 Q7.0 5.85 6.6 5.5 6.05 5.0 5.8 4.15 L5.7 3.6 Q5.55 2.65 5.8 1.7 6.25 0.0 7.5 0.0 L7.6 0.0 Q8.85 0.0 9.3 1.7 9.55 2.65 9.4 3.6 L9.3 4.15 8.5 5.5 7.6 5.9 7.5 5.9 M4.35 4.9 Q4.6 5.75 4.35 6.4 L3.7 7.2 2.75 7.35 Q2.0 7.15 1.35 6.5 L1.0 6.15 Q0.4 5.4 0.15 4.45 -0.3 2.7 0.75 2.1 1.8 1.5 3.15 2.75 3.85 3.45 4.2 4.35 L4.35 4.9 M5.5 13.7 Q4.45 13.9 3.65 12.95 2.75 12.0 3.2 10.25 3.7 8.5 5.25 7.6 6.4 6.9 7.55 7.0 8.75 6.9 9.9 7.6 11.45 8.5 11.95 10.25 12.35 12.0 11.5 12.95 10.7 13.9 9.65 13.7 8.55 13.5 7.55 12.6 6.55 13.5 5.5 13.7"/></g><g id="c4"><g><use transform="matrix(1.0,0.0,0.0,1.0,0.0,0.0)" xlink:href="#c3"/></g></g><radialGradient gradientUnits="userSpaceOnUse" r="819.2" cx="0" cy="0" spreadMethod="pad" gradientTransform="matrix(0.0914459228516,0.0,0.0,0.0914459228516,0.6,3.4)" id="gradient1"><stop offset="0.0" stop-color="#ffffff"/><stop offset="1.0" stop-color="#ffffff" stop-opacity="0.0"/></radialGradient><g id="c5"><path stroke="none" fill="url(#gradient1)" d="M36.65 -54.65 Q60.05 -42.0 69.75 -17.95 80.55 8.9 68.0 34.1 55.45 59.35 26.8 68.2 -1.8 77.05 -29.7 64.3 -57.6 51.6 -68.45 24.75 -79.3 -2.05 -66.75 -27.25 L-66.7 -27.3 Q-54.1 -52.5 -25.5 -61.4 3.1 -70.2 31.0 -57.5 L36.65 -54.65"/></g><g id="c6"><g><use transform="matrix(1.0,0.0,0.0,1.0,0.0,0.0)" xlink:href="#c5"/></g></g><radialGradient gradientUnits="userSpaceOnUse" r="819.2" cx="0" cy="0" spreadMethod="pad" gradientTransform="matrix(0.209197998047,0.0,0.0,0.177108764648,67.15,107.2)" id="gradient2"><stop offset="0.356862745098" stop-color="#ffffff"/><stop offset="0.670588235294" stop-opacity="0.0"/></radialGradient><g id="c7"><path fill="none" stroke-linejoin="round" stroke-linecap="round" stroke="url(#gradient2)" stroke-width="0.5" d="M136.55 165.8 L68.6 106.0 68.4 106.0 118.25 201.5 M68.2 105.7 L68.25 105.8 68.25 105.75 68.2 105.7 0.0 45.7 M68.25 105.8 L68.3 105.85 68.3 105.8 68.25 105.75 49.95 0.05 M0.05 97.7 L68.15 105.95 68.25 105.85 68.25 105.8 M68.3 105.85 L68.25 105.85 68.3 106.0 68.3 105.85 68.3 105.8 68.35 105.8 68.3 105.8 86.6 18.35 M50.0 193.2 L68.3 106.0 68.15 105.95 18.25 151.55 M68.4 106.0 L68.3 106.0 86.55 211.5 M68.4 106.0 L68.3 105.85 M68.6 106.0 L68.35 105.8 118.25 60.15 M136.6 114.25 L68.6 106.0 M68.2 105.7 L18.25 10.05"/></g><g id="c8"><g><use transform="matrix(1.0,0.0,0.0,1.0,0.0,0.0)" xlink:href="#c7"/></g></g><linearGradient gradientUnits="userSpaceOnUse" x1="-819.2" x2="819.2" spreadMethod="pad" gradientTransform="matrix(0.00265502929688,0.000137329101562,0.00018310546875,-0.00341796875,25.1,17.5)" id="gradient3"><stop offset="0.0" stop-color="#ca8d02"/><stop offset="1.0" stop-color="#996601"/></linearGradient><linearGradient gradientUnits="userSpaceOnUse" x1="-819.2" x2="819.2" spreadMethod="pad" gradientTransform="matrix(-0.00157165527344,0.001708984375,0.00285339355469,0.00263977050781,16.25,21.2)" id="gradient4"><stop offset="0.0" stop-color="#8d4803"/><stop offset="1.0" stop-color="#5e2f01"/></linearGradient><linearGradient gradientUnits="userSpaceOnUse" x1="-819.2" x2="819.2" spreadMethod="pad" gradientTransform="matrix(-0.00346374511719,0.00224304199219,0.00155639648438,0.00239562988281,18.95,26.0)" id="gradient5"><stop offset="0.0392156862745" stop-color="#c2780b"/><stop offset="1.0" stop-color="#8a5508"/></linearGradient><g id="c9"><path fill="#fcde7b" stroke="none" d="M25.4 19.35 Q26.15 17.9 25.75 16.4 L25.75 16.3 25.35 15.4 Q24.45 14.0 23.25 13.75 L21.85 13.7 21.85 13.55 Q21.95 13.2 22.55 13.0 L24.05 13.15 Q25.05 13.45 25.75 14.25 26.45 15.1 26.6 15.65 26.95 16.6 26.85 17.7 L26.65 18.3 26.4 18.9 Q26.35 18.85 25.6 19.35 L25.4 19.35"/><path fill="#edca49" stroke="none" d="M22.55 13.0 Q21.95 13.2 21.85 13.55 L21.85 13.7 23.25 13.75 Q24.45 14.0 25.35 15.4 L25.75 16.3 25.75 16.4 Q26.15 17.9 25.4 19.35 25.2 19.35 25.15 19.05 25.1 18.8 25.2 18.6 L25.15 18.6 25.2 18.45 25.3 18.15 25.35 17.95 25.35 17.9 25.3 16.7 24.8 15.55 Q24.05 14.55 22.75 14.15 L22.1 14.15 21.7 14.25 19.45 14.7 Q19.6 13.95 20.45 13.35 L22.55 13.0"/><path stroke="none" fill="url(#gradient3)" d="M21.7 14.25 L22.1 14.15 22.75 14.15 Q24.05 14.55 24.8 15.55 L25.3 16.7 25.35 17.9 25.35 17.95 25.3 18.15 25.2 18.45 24.8 18.35 23.8 18.4 22.25 18.7 21.35 19.0 Q20.6 19.3 19.8 19.75 L19.55 19.4 20.55 18.85 21.2 18.5 21.2 18.55 Q22.5 17.95 23.6 17.9 L21.7 14.25"/><path fill="#fff12e" stroke="none" d="M25.4 19.35 L25.6 19.35 Q26.35 18.85 26.4 18.9 L25.55 20.3 24.55 21.5 Q22.8 23.2 20.05 24.4 L20.05 23.2 Q22.2 22.45 23.55 20.9 L24.7 19.4 25.2 18.45 25.15 18.6 25.2 18.6 Q25.1 18.8 25.15 19.05 25.2 19.35 25.4 19.35 M26.85 17.7 Q26.95 16.6 26.6 15.65 L27.5 17.15 27.5 18.25 27.35 18.55 26.85 17.7 M28.75 20.9 Q28.5 19.25 27.7 19.1 L27.85 18.6 27.85 17.8 29.15 19.95 29.15 20.05 29.15 21.0 29.1 21.05 29.0 21.3 28.75 20.9"/><path fill="#bb6906" stroke="none" d="M19.45 14.7 L21.7 14.25 23.6 17.9 Q22.5 17.95 21.2 18.55 L21.2 18.5 19.45 14.7"/><path fill="#ebb029" stroke="none" d="M26.65 18.3 L26.85 17.7 27.35 18.55 27.5 18.25 27.5 17.15 27.85 17.8 27.85 18.6 27.7 19.1 Q28.5 19.25 28.75 20.9 L28.2 22.25 Q27.4 21.75 27.05 20.35 L27.35 19.7 27.7 19.1 27.55 18.9 27.5 18.75 27.45 18.7 27.35 18.55 27.05 19.15 26.65 18.3 M25.8 21.2 L25.05 22.15 Q23.05 23.95 20.4 25.2 L20.05 24.4 Q22.8 23.2 24.55 21.5 L25.55 20.3 25.8 21.2 M24.8 23.2 L25.35 22.8 25.6 22.55 25.75 22.35 25.75 22.3 26.05 21.95 Q26.6 22.5 26.55 24.6 L25.45 25.7 23.6 26.8 Q21.7 27.05 22.7 25.15 L24.8 23.2 M29.4 21.95 L29.35 22.15 28.95 23.15 28.6 22.3 29.0 21.3 29.4 21.95 M27.75 25.15 L27.05 26.0 26.85 26.15 23.8 28.25 Q23.6 28.05 23.95 27.05 L26.65 25.05 26.7 25.0 27.5 24.1 27.75 25.15"/><path fill="#784a20" stroke="none" d="M28.75 20.9 L29.0 21.3 28.6 22.3 28.55 22.4 28.45 22.65 28.3 22.9 28.0 23.4 27.5 24.1 26.7 25.0 26.65 25.05 23.95 27.05 23.75 27.1 22.05 28.05 21.0 28.2 17.95 28.25 17.55 28.15 17.3 28.1 17.1 28.1 15.9 27.35 15.9 27.3 15.85 27.25 15.4 26.5 Q15.7 27.0 16.85 27.45 L17.35 27.6 20.7 27.95 20.85 27.95 21.65 27.75 23.6 26.8 25.45 25.7 26.55 24.6 28.2 22.25 28.75 20.9 M27.35 18.55 L27.45 18.7 27.5 18.75 27.55 18.9 27.7 19.1 27.35 19.7 27.05 20.35 26.65 21.1 26.05 21.95 25.75 22.3 25.75 22.35 25.6 22.55 25.35 22.8 24.8 23.2 20.65 25.85 19.7 26.0 Q18.05 26.3 16.35 26.05 L15.85 26.0 15.55 25.95 14.85 25.6 14.25 24.5 15.25 25.15 15.55 25.25 16.35 25.4 Q18.05 25.6 19.65 25.35 L20.4 25.2 Q23.05 23.95 25.05 22.15 L25.8 21.2 25.9 21.05 26.15 20.65 27.05 19.15 27.35 18.55"/><path fill="#ffcc00" stroke="none" d="M26.4 18.9 L26.65 18.3 27.05 19.15 26.15 20.65 25.9 21.05 25.8 21.2 25.55 20.3 26.4 18.9 M20.45 13.35 Q19.6 13.95 19.45 14.7 18.55 15.05 17.65 15.65 L16.45 16.55 15.9 17.2 14.6 19.4 14.45 20.2 14.45 20.4 14.4 20.35 14.35 20.6 14.15 20.85 Q13.5 21.35 13.3 20.7 L13.25 20.4 13.25 20.2 13.05 20.15 13.15 19.55 Q13.85 17.9 15.0 16.45 L15.5 15.9 Q17.45 14.3 19.35 13.6 L20.45 13.35 M27.05 20.35 Q27.4 21.75 28.2 22.25 L26.55 24.6 Q26.6 22.5 26.05 21.95 L26.65 21.1 27.05 20.35 M14.85 25.6 L15.55 25.95 15.85 26.0 Q17.05 26.9 16.85 27.45 15.7 27.0 15.4 26.5 L15.35 26.4 14.85 25.6 M28.95 23.15 L28.85 23.4 28.75 23.55 27.75 25.15 27.5 24.1 28.0 23.4 28.3 22.9 28.45 22.65 28.55 22.4 28.6 22.3 28.95 23.15 M18.3 29.05 L17.9 28.95 Q16.4 28.2 15.9 27.35 L17.1 28.1 17.3 28.1 17.55 28.15 18.3 29.05"/><path fill="#ffff2f" stroke="none" d="M29.0 21.3 L29.1 21.05 29.15 21.0 29.15 20.05 Q29.7 20.95 29.4 21.95 L29.0 21.3"/><path fill="#9c5105" stroke="none" d="M17.65 15.65 Q18.55 15.05 19.45 14.7 L21.2 18.5 20.55 18.85 19.55 19.4 18.45 20.15 16.7 16.95 17.65 15.65"/><path fill="#ca8d02" stroke="none" d="M17.65 15.65 L16.7 16.95 Q15.4 18.25 14.45 20.2 L14.6 19.4 15.9 17.2 16.45 16.55 17.65 15.65"/><path fill="#fbda59" stroke="none" d="M16.85 23.35 L20.05 23.2 20.05 24.4 16.15 24.6 16.1 24.6 Q14.25 24.15 13.55 23.25 L13.35 22.8 13.2 22.6 Q12.8 21.35 13.05 20.15 L13.25 20.2 13.25 20.4 13.3 20.7 Q13.5 21.35 14.15 20.85 L14.35 20.6 14.4 20.35 14.45 20.4 Q14.4 21.1 14.65 21.8 15.0 22.55 16.2 23.2 L16.25 23.2 16.3 23.3 16.85 23.35"/><path stroke="none" fill="url(#gradient4)" d="M19.8 19.75 L18.6 20.7 Q17.45 21.9 16.85 23.35 L16.3 23.3 16.25 23.2 16.2 23.2 Q15.0 22.55 14.65 21.8 14.4 21.1 14.45 20.4 L14.45 20.2 Q15.4 18.25 16.7 16.95 L18.45 20.15 19.55 19.4 19.8 19.75"/><path stroke="none" fill="url(#gradient5)" d="M15.85 26.0 L16.35 26.05 Q18.05 26.3 19.7 26.0 L20.65 25.85 24.8 23.2 22.7 25.15 Q21.7 27.05 23.6 26.8 L21.65 27.75 20.85 27.95 20.7 27.95 17.35 27.6 16.85 27.45 Q17.05 26.9 15.85 26.0 M23.8 28.25 L22.55 28.9 18.3 29.05 17.55 28.15 17.95 28.25 21.0 28.2 22.05 28.05 23.75 27.1 23.95 27.05 Q23.6 28.05 23.8 28.25"/><path fill="#ab6d0a" stroke="none" d="M20.4 25.2 L19.65 25.35 Q18.05 25.6 16.35 25.4 L15.55 25.25 15.25 25.15 14.25 24.5 13.55 23.25 Q14.25 24.15 16.1 24.6 L16.15 24.6 20.05 24.4 20.4 25.2"/><path fill="none" stroke="#000000" stroke-width="0.5" stroke-opacity="0.301960784314" d="M29.0 21.3 L29.1 21.05 M29.15 21.0 L29.15 20.05 M19.65 25.35 Q18.05 25.6 16.35 25.4 L15.55 25.25 15.25 25.15 14.25 24.5 M14.6 19.4 L14.45 20.2 14.45 20.4 Q14.4 21.1 14.65 21.8 15.0 22.55 16.2 23.2 L16.25 23.2 16.3 23.3 16.85 23.35 M17.55 28.15 L17.95 28.25 21.0 28.2 22.05 28.05 23.75 27.1 23.95 27.05 26.65 25.05 26.7 25.0 27.5 24.1 28.0 23.4 28.3 22.9 28.45 22.65 28.55 22.4 28.6 22.3 29.0 21.3 M15.9 27.35 L17.1 28.1 17.3 28.1 17.55 28.15"/><path fill="none" stroke="#000000" stroke-width="0.5" stroke-opacity="0.450980392157" d="M29.1 21.05 L29.15 21.0"/></g><radialGradient gradientUnits="userSpaceOnUse" r="819.2" cx="0" cy="0" spreadMethod="pad" gradientTransform="matrix(0.0219116210938,0.0106353759766,0.0,0.0219116210938,0.0,0.05)" id="gradient6"><stop offset="0.0" stop-color="#ffffff"/><stop offset="1.0" stop-color="#ffffff" stop-opacity="0.0"/></radialGradient><g id="c10"><path stroke="none" fill="url(#gradient6)" d="M12.2 -6.25 Q17.25 1.25 17.25 8.4 17.25 15.55 12.2 18.15 7.15 20.75 0.0 17.3 -7.15 13.8 -12.2 6.3 -17.25 -1.2 -17.25 -8.35 -17.25 -15.5 -12.2 -18.1 -7.15 -20.7 0.0 -17.2 7.15 -13.75 12.2 -6.25"/></g><g id="c11"><g><use transform="matrix(1.0,0.0,0.0,1.0,0.0,0.0)" xlink:href="#c10"/></g></g><g id="c12"><path fill="#fcf3d8" fill-opacity="0.792156862745" d="M25.8 18.95 L29.7 13.45 26.45 19.35 28.9 20.9 26.35 19.8 24.95 21.15 25.5 19.5 21.6 17.1 25.8 18.95"/><path fill="#fcf3d8" fill-opacity="0.301960784314" d="M27.3 18.35 L29.05 18.15 Q28.1 18.7 27.8 19.4 L27.8 20.4 Q27.55 21.05 26.95 21.3 26.2 21.65 25.55 21.3 L24.9 22.55 25.05 21.0 24.4 20.25 24.2 19.3 23.6 18.85 24.35 18.75 24.35 18.7 Q24.65 18.05 25.2 17.8 25.85 17.5 26.6 17.8 L27.3 18.35 M25.1 19.85 L25.65 20.35 26.35 20.4 26.75 19.95 26.75 19.2 26.2 18.65 25.5 18.6 Q25.15 18.8 25.1 19.15 24.95 19.55 25.1 19.85"/><path fill="#fcf3d8" fill-opacity="0.843137254902" d="M25.1 19.85 Q24.95 19.55 25.1 19.15 25.15 18.8 25.5 18.6 L26.2 18.65 26.75 19.2 26.75 19.95 26.35 20.4 25.65 20.35 25.1 19.85"/></g><g id="c13"><g><use transform="matrix(1.0,0.0,0.0,1.0,0.0,0.0)" xlink:href="#c2"/></g><g><use transform="matrix(0.238861083984,-0.0867004394531,0.10026550293,0.233917236328,34.25,31.15)" xlink:href="#c4"/></g><g><use transform="matrix(0.238861083984,-0.0867004394531,0.10026550293,0.233917236328,4.25,10.3)" xlink:href="#c4"/></g><g><use transform="matrix(0.141098022461,-0.0378112792969,0.111373901367,0.225646972656,20.25,20.65)" filter="url(#filter8)" xlink:href="#c6"/></g><g><use transform="matrix(-0.155029296875,0.0513153076172,0.0841827392578,0.147033691406,22.6,2.3)" filter="url(#filter9)" xlink:href="#c8"/></g><g><use transform="matrix(1.0,0.0,0.0,1.0,0.0,0.0)" xlink:href="#c9"/></g><g><use transform="matrix(-0.19352722168,0.177688598633,0.156967163086,0.0791015625,26.25,21.8)" filter="url(#filter11)" xlink:href="#c11"/></g><g><use transform="matrix(1.0,0.0,0.0,1.0,0.0,0.0)" xlink:href="#c12"/></g><g><use transform="matrix(0.162948608398,-0.0436706542969,0.128631591797,0.260604858398,20.35,20.95)" filter="url(#filter13)" xlink:href="#c6"/></g></g><filter id="filter8"><feColorMatrix in="SourceGraphic" type="matrix" values="0.0 0.0 0.0 0.0 0.796875 0.0 0.0 0.0 0.0 0.59765625 0.0 0.0 0.0 0.0 0.19921875 0.0 0.0 0.0 1.0 0.0" result="cxform"/><feComposite operator="in" in2="SourceGraphic" result="color-xform"/></filter><filter id="filter9"><feColorMatrix in="SourceGraphic" type="matrix" values="0.0 0.0 0.0 0.0 0.99609375 0.0 0.0 0.0 0.0 0.99609375 0.0 0.0 0.0 0.0 0.99609375 0.0 0.0 0.0 1.0 0.0" result="cxform"/><feComposite operator="in" in2="SourceGraphic" result="color-xform"/></filter><filter id="filter11"><feColorMatrix in="SourceGraphic" type="matrix" values="1.0 0.0 0.0 0.0 0.0 0.0 1.0 0.0 0.0 0.0 0.0 0.0 1.0 0.0 0.0 0.0 0.0 0.0 0.19140625 0.0" result="cxform"/><feComposite operator="in" in2="SourceGraphic" result="color-xform"/><feColorMatrix in="SourceGraphic" type="matrix" values="0.308599948883 0.609399914742 0.0819999948144 0.0 0.0 0.308600008488 0.609399974346 0.082000002265 0.0 0.0 0.308600008488 0.609399914742 0.0819999948144 0.0 0.0 0.0 0.0 0.0 1.0 0.0" result="color-matrix"/></filter><filter id="filter13"><feColorMatrix in="SourceGraphic" type="matrix" values="1.0 0.0 0.0 0.0 0.0 0.0 1.0 0.0 0.0 0.0 0.0 0.0 1.0 0.0 0.0 0.0 0.0 0.0 0.23046875 0.0" result="cxform"/><feComposite operator="in" in2="SourceGraphic" result="color-xform"/></filter></defs><g><g><use transform="matrix(1.0,0.0,0.0,1.0,0.0,0.0)" xlink:href="#c1"/></g><g><use transform="matrix(1.15496826172,0.0,0.0,1.15496826172,5.85,3.95)" xlink:href="#c13"/></g></g></svg>