<?xml version='1.0' encoding='UTF-8'?>
<svg xmlns:xlink="http://www.w3.org/1999/xlink" xmlns="http://www.w3.org/2000/svg" version="1.1" width="60px" height="60px" viewBox="0.0 0.0 60.0 60.0"><defs><g id="c1"><path fill="#000000" fill-opacity="0.00392156862745" d="M0.0 0.0 L60.0 0.0 60.0 60.0 0.0 60.0 0.0 0.0"/></g><g id="c2"><path fill="none" stroke="#000000" stroke-width="1.0" stroke-opacity="0.301960784314" d="M22.3 0.35 Q26.6 -1.0 28.5 3.05 L41.4 31.7 Q43.1 35.4 39.9 36.85 L38.15 37.65 19.65 43.65 Q17.05 44.5 15.35 43.3 14.2 42.55 13.5 40.9 L0.55 12.25 Q-0.6 9.75 0.6 8.25 1.15 7.55 2.2 7.05 2.85 6.6 3.8 6.3 L22.3 0.35"/><path fill="#300525" stroke="none" d="M25.55 0.9 Q26.9 1.6 27.8 3.55 L40.7 32.15 Q42.6 36.3 38.3 37.65 L23.3 42.5 13.15 21.4 4.6 20.9 0.7 12.25 Q-0.45 9.75 0.75 8.25 L29.8 9.75 25.55 0.9 M20.1 43.55 L19.8 43.65 Q17.15 44.45 15.5 43.3 L20.1 43.55"/><path fill="#630a4c" stroke="none" d="M23.3 42.5 L20.1 43.55 15.5 43.3 Q14.35 42.55 13.65 40.9 L4.6 20.9 13.15 21.4 23.3 42.5 M0.75 8.25 Q1.45 7.3 3.1 6.75 L21.65 0.8 25.55 0.9 29.8 9.75 0.75 8.25"/><path fill="none" stroke="#000000" stroke-width="0.5" stroke-opacity="0.301960784314" d="M25.55 0.9 Q26.9 1.6 27.8 3.55 L40.7 32.15 Q42.6 36.3 38.3 37.65 L23.3 42.5 20.1 43.55 19.8 43.65 Q17.15 44.45 15.5 43.3 14.35 42.55 13.65 40.9 L4.6 20.9 0.7 12.25 Q-0.45 9.75 0.75 8.25 1.45 7.3 3.1 6.75 L21.65 0.8 25.55 0.9"/><path fill="#9d147b" stroke="none" d="M14.2 40.5 L1.35 11.8 Q-0.5 7.75 3.8 6.35 L22.3 0.4 Q26.55 -1.0 28.45 3.1 L41.35 31.7 Q43.25 35.85 38.9 37.25 L20.4 43.2 Q16.1 44.55 14.2 40.5"/><path fill="none" stroke="#000000" stroke-width="0.5" stroke-opacity="0.301960784314" d="M14.2 40.5 L1.35 11.8 Q-0.5 7.75 3.8 6.35 L22.3 0.4 Q26.55 -1.0 28.45 3.1 L41.35 31.7 Q43.25 35.85 38.9 37.25 L20.4 43.2 Q16.1 44.55 14.2 40.5"/><path fill="#fcf2cf" stroke="none" d="M9.15 13.6 Q9.8 12.8 9.55 11.6 L9.1 10.55 22.05 6.35 Q24.9 5.45 26.25 7.85 L26.5 8.3 35.8 29.0 35.95 29.35 Q34.75 29.3 34.1 30.1 33.45 30.9 33.7 32.1 L34.0 32.9 20.65 37.2 Q18.8 37.8 17.65 37.0 16.8 36.4 16.3 35.2 L6.95 14.6 6.8 14.4 7.1 14.4 Q8.4 14.45 9.15 13.6"/><path fill="#c47fad" stroke="none" d="M8.25 23.65 L3.35 12.8 Q1.65 9.1 5.5 7.85 L22.25 2.5 Q26.05 1.25 27.75 4.95 L28.25 6.1 35.55 22.3 39.35 30.75 Q41.1 34.5 37.2 35.7 L20.45 41.1 Q16.8 42.25 15.2 39.0 L15.0 38.6 8.25 23.65 M9.15 13.6 Q8.4 14.45 7.1 14.4 L6.8 14.4 6.95 14.6 16.3 35.2 Q16.8 36.4 17.65 37.0 18.8 37.8 20.65 37.2 L34.0 32.9 33.7 32.1 Q33.45 30.9 34.1 30.1 34.75 29.3 35.95 29.35 L35.8 29.0 26.5 8.3 26.25 7.85 Q24.9 5.45 22.05 6.35 L9.1 10.55 9.55 11.6 Q9.8 12.8 9.15 13.6"/><path fill="none" stroke="#ffcc00" stroke-width="1.0" stroke-opacity="0.749019607843" d="M8.25 23.65 L3.35 12.8 Q1.65 9.1 5.5 7.85 L22.25 2.5 Q26.05 1.25 27.75 4.95 L28.25 6.1 M35.55 22.3 L39.35 30.75 Q41.1 34.5 37.2 35.7 L20.45 41.1 Q16.8 42.25 15.2 39.0 L15.0 38.6"/><path fill="none" stroke="#bf9900" stroke-width="1.0" stroke-opacity="0.749019607843" d="M28.25 6.1 L35.55 22.3 M15.0 38.6 L8.25 23.65"/><path fill="none" stroke="#f0b92b" stroke-width="0.5" d="M9.15 13.6 Q9.8 12.8 9.55 11.6 L9.1 10.55 22.05 6.35 Q24.9 5.45 26.25 7.85 L26.5 8.3 35.8 29.0 35.95 29.35 Q34.75 29.3 34.1 30.1 33.45 30.9 33.7 32.1 L34.0 32.9 20.65 37.2 Q18.8 37.8 17.65 37.0 16.8 36.4 16.3 35.2 L6.95 14.6 6.8 14.4 7.1 14.4 Q8.4 14.45 9.15 13.6"/></g><g id="c3"><path fill="#7fdbfe" stroke="none" d="M10.75 4.9 Q10.75 4.6 10.9 4.35 11.25 3.45 11.95 2.75 13.3 1.5 14.35 2.1 15.4 2.7 14.95 4.45 14.7 5.4 14.1 6.15 L13.75 6.5 Q13.1 7.15 12.35 7.35 L11.4 7.2 Q10.95 6.9 10.75 6.4 10.5 5.75 10.75 4.9 M7.5 5.9 Q7.0 5.85 6.6 5.5 6.05 5.0 5.8 4.15 L5.7 3.6 Q5.55 2.65 5.8 1.7 6.25 0.0 7.5 0.0 L7.6 0.0 Q8.85 0.0 9.3 1.7 9.55 2.65 9.4 3.6 L9.3 4.15 8.5 5.5 7.6 5.9 7.5 5.9 M4.35 4.9 Q4.6 5.75 4.35 6.4 L3.7 7.2 2.75 7.35 Q2.0 7.15 1.35 6.5 L1.0 6.15 Q0.4 5.4 0.15 4.45 -0.3 2.7 0.75 2.1 1.8 1.5 3.15 2.75 3.85 3.45 4.2 4.35 L4.35 4.9 M5.5 13.7 Q4.45 13.9 3.65 12.95 2.75 12.0 3.2 10.25 3.7 8.5 5.25 7.6 6.4 6.9 7.55 7.0 8.75 6.9 9.9 7.6 11.45 8.5 11.95 10.25 12.35 12.0 11.5 12.95 10.7 13.9 9.65 13.7 8.55 13.5 7.55 12.6 6.55 13.5 5.5 13.7"/></g><g id="c4"><g><use transform="matrix(1.0,0.0,0.0,1.0,0.0,0.0)" xlink:href="#c3"/></g></g><radialGradient gradientUnits="userSpaceOnUse" r="819.2" cx="0" cy="0" spreadMethod="pad" gradientTransform="matrix(0.0914459228516,0.0,0.0,0.0914459228516,0.6,3.4)" id="gradient1"><stop offset="0.0" stop-color="#ffffff"/><stop offset="1.0" stop-color="#ffffff" stop-opacity="0.0"/></radialGradient><g id="c5"><path stroke="none" fill="url(#gradient1)" d="M36.65 -54.65 Q60.05 -42.0 69.75 -17.95 80.55 8.9 68.0 34.1 55.45 59.35 26.8 68.2 -1.8 77.05 -29.7 64.3 -57.6 51.6 -68.45 24.75 -79.3 -2.05 -66.75 -27.25 L-66.7 -27.3 Q-54.1 -52.5 -25.5 -61.4 3.1 -70.2 31.0 -57.5 L36.65 -54.65"/></g><g id="c6"><g><use transform="matrix(1.0,0.0,0.0,1.0,0.0,0.0)" xlink:href="#c5"/></g></g><radialGradient gradientUnits="userSpaceOnUse" r="819.2" cx="0" cy="0" spreadMethod="pad" gradientTransform="matrix(0.209197998047,0.0,0.0,0.177108764648,67.15,107.2)" id="gradient2"><stop offset="0.356862745098" stop-color="#ffffff"/><stop offset="0.670588235294" stop-opacity="0.0"/></radialGradient><g id="c7"><path fill="none" stroke-linejoin="round" stroke-linecap="round" stroke="url(#gradient2)" stroke-width="0.5" d="M136.55 165.8 L68.6 106.0 68.4 106.0 118.25 201.5 M68.2 105.7 L68.25 105.8 68.25 105.75 68.2 105.7 0.0 45.7 M68.25 105.8 L68.3 105.85 68.3 105.8 68.25 105.75 49.95 0.05 M0.05 97.7 L68.15 105.95 68.25 105.85 68.25 105.8 M68.3 105.85 L68.25 105.85 68.3 106.0 68.3 105.85 68.3 105.8 68.35 105.8 68.3 105.8 86.6 18.35 M50.0 193.2 L68.3 106.0 68.15 105.95 18.25 151.55 M68.4 106.0 L68.3 106.0 86.55 211.5 M68.4 106.0 L68.3 105.85 M68.6 106.0 L68.35 105.8 118.25 60.15 M136.6 114.25 L68.6 106.0 M68.2 105.7 L18.25 10.05"/></g><g id="c8"><g><use transform="matrix(1.0,0.0,0.0,1.0,0.0,0.0)" xlink:href="#c7"/></g></g><g id="c9"><path fill="#c6c282" stroke="none" d="M0.65 -19.5 L-0.25 -19.45 -0.45 -19.05 0.1 -19.0 0.35 -19.0 0.65 -19.5 M-2.9 -18.7 L-3.95 -18.9 -5.9 -18.45 -5.95 -18.4 -6.05 -18.35 -6.35 -18.25 -5.55 -17.95 -2.9 -18.7 M-6.55 -18.45 L-7.25 -18.55 -7.35 -18.6 -7.75 -18.6 -7.8 -18.65 -9.05 -17.0 -7.85 -17.2 -6.55 -18.45 M-7.9 -14.35 L-7.7 -12.4 -7.6 -11.05 -6.65 -4.0 -5.6 -2.85 -6.6 -6.0 -7.3 -13.75 -7.65 -14.05 -7.9 -14.35 M4.4 -1.5 L4.45 -1.55 6.5 -3.65 7.4 -4.55 7.05 -7.45 7.05 -9.05 7.15 -12.05 7.15 -14.25 7.05 -14.15 6.4 -13.7 6.45 -12.8 6.5 -12.7 6.4 -12.8 6.35 -9.95 6.3 -9.95 6.4 -9.05 5.15 -11.35 3.95 -11.2 4.05 -8.6 4.3 -3.55 4.3 -3.5 4.35 -2.75 4.4 -1.5 M8.8 -17.2 L6.6 -18.85 5.65 -18.7 5.1 -18.65 7.45 -17.3 7.55 -17.25 8.8 -17.2 M5.75 -20.0 L3.5 -20.5 2.25 -19.9 4.8 -19.55 5.75 -20.0 M-2.05 -14.4 L-2.05 -14.35 -3.05 -14.45 -3.2 -14.5 -3.3 -14.55 -3.8 -13.8 -1.5 -13.35 -1.1 -13.9 -1.1 -14.0 -1.35 -14.15 -2.05 -14.4 M-4.1 -14.6 L-4.9 -14.5 -5.3 -13.8 -4.55 -13.9 -4.1 -14.6 M7.45 -16.6 L6.65 -17.2 5.3 -16.7 6.15 -15.75 7.7 -16.45 7.45 -16.6 M5.15 -16.0 L4.7 -16.45 4.5 -16.35 4.3 -16.25 3.7 -16.1 3.55 -15.95 4.55 -15.15 5.55 -15.6 5.15 -16.0 M5.75 -6.8 L6.5 -3.65 5.75 -6.8"/><path fill="#4e4532" stroke="none" d="M-0.45 -19.05 L-0.5 -17.7 -0.55 -16.95 -1.95 -16.7 -2.3 -17.4 -2.9 -18.7 -5.55 -17.95 -4.8 -15.95 -4.85 -15.95 -5.8 -17.35 -5.8 -17.45 -6.35 -18.25 -6.55 -18.45 -7.85 -17.2 -7.3 -16.4 -8.55 -16.35 -8.65 -16.2 -8.65 -15.55 -7.4 -15.6 -6.15 -13.75 -6.0 -14.0 -5.7 -13.3 -5.2 -12.4 -4.65 -11.6 -4.65 -12.05 -5.3 -13.8 -4.9 -14.5 -4.1 -14.6 -3.9 -14.15 -3.85 -14.1 -3.3 -14.55 -3.2 -14.5 -3.05 -14.45 -1.3 -15.2 -0.6 -15.2 -0.5 -15.3 0.1 -19.0 -0.45 -19.05"/><path fill="#787536" stroke="none" d="M-0.5 -17.7 L-2.3 -17.4 -1.95 -16.7 -0.55 -16.95 -0.5 -17.7 M-9.05 -17.0 L-8.55 -16.35 -7.3 -16.4 -7.85 -17.2 -9.05 -17.0 M-8.65 -15.55 L-7.9 -14.35 -7.65 -14.05 -7.3 -13.75 -7.1 -13.6 -7.3 -13.75 -6.6 -6.0 -5.6 -2.85 -5.05 -2.35 -4.2 -1.6 -4.1 -1.55 -0.35 -1.1 0.8 -2.1 0.55 -3.55 0.8 -2.1 4.3 -3.5 4.3 -3.55 0.55 -3.55 -0.65 -3.55 -0.35 -1.1 -0.65 -3.55 -4.1 -3.55 -4.2 -3.55 -4.2 -6.95 0.55 -8.45 3.75 -10.05 0.45 -10.05 -3.15 -10.05 -4.55 -10.65 -4.55 -10.85 -6.2 -11.7 -6.25 -11.75 -6.7 -12.95 -7.1 -13.6 -6.15 -13.75 -7.4 -15.6 -8.65 -15.55 M3.5 -2.55 L3.5 -2.0 4.4 -1.5 4.35 -2.75 3.5 -2.55 M7.45 -15.3 L8.8 -17.2 7.55 -17.25 7.45 -17.3 7.45 -16.6 7.7 -16.45 7.45 -15.3 M1.9 -18.85 L1.3 -18.65 0.95 -18.25 1.8 -18.45 1.9 -18.85 M0.65 -17.85 L0.65 -19.5 0.35 -19.0 0.65 -17.75 0.65 -17.85 M-4.85 -15.95 L-4.8 -15.95 -5.55 -17.95 -6.35 -18.25 -5.8 -17.45 -5.8 -17.35 -4.85 -15.95 M-1.1 -13.9 L-1.5 -13.35 -1.4 -13.2 -0.15 -11.65 -0.2 -11.9 -0.15 -12.45 -0.15 -12.55 -0.4 -13.2 -0.4 -13.25 -1.05 -14.0 -1.1 -13.9 M3.15 -12.95 L2.95 -12.75 1.9 -12.65 0.7 -12.35 0.05 -12.45 0.0 -11.8 0.7 -11.75 3.35 -12.05 3.65 -12.1 3.15 -12.95 M-6.2 -8.1 L-6.2 -11.7 -6.2 -8.1 M-4.5 -9.5 L-4.55 -10.65 -4.5 -9.5 M-4.2 -1.6 L-4.1 -3.55 -4.2 -1.6 M-5.05 -2.35 L-5.05 -5.0 -5.05 -2.35 M6.15 -15.75 L5.3 -16.7 5.15 -16.0 5.55 -15.6 5.6 -15.6 5.6 -15.55 5.4 -14.85 6.15 -15.75 M4.5 -16.35 L4.5 -16.4 4.5 -16.35"/><path fill="#2e393d" stroke="none" d="M-3.05 -14.45 L-2.05 -14.35 -2.05 -14.4 -1.35 -14.15 -1.05 -14.0 -0.4 -13.25 -0.35 -13.2 -0.4 -13.2 -0.15 -12.55 -0.15 -12.45 0.05 -12.45 0.7 -12.35 1.9 -12.65 2.95 -12.75 3.15 -12.95 3.05 -13.0 3.15 -13.4 3.05 -13.45 3.05 -13.5 3.15 -13.45 3.35 -14.65 1.4 -15.3 -0.6 -15.2 -1.3 -15.2 -3.05 -14.45"/><path fill="#363518" stroke="none" d="M2.25 -19.9 L2.2 -19.9 1.9 -18.85 1.8 -18.45 0.95 -18.25 0.65 -17.85 0.65 -17.75 0.35 -19.0 0.1 -19.0 -0.5 -15.3 -0.6 -15.2 1.4 -15.3 3.35 -14.65 3.45 -15.05 3.4 -15.1 3.45 -15.25 3.55 -15.95 3.7 -16.1 4.3 -16.25 4.5 -16.35 4.7 -16.45 5.15 -16.0 5.3 -16.7 6.65 -17.2 7.45 -16.6 7.45 -17.3 5.1 -18.65 4.6 -17.55 4.8 -19.55 2.25 -19.9 M4.5 -16.35 L4.5 -16.4 4.5 -16.35 M4.6 -17.55 L4.3 -16.25 4.6 -17.55"/><path fill="#daa854" stroke="none" d="M-5.95 -18.4 L-6.0 -18.45 -6.05 -18.35 -5.95 -18.4 M-1.1 -14.0 L-1.1 -13.9 -1.05 -14.0 -1.1 -14.0 M6.35 -9.95 L6.3 -10.05 6.3 -9.95 6.35 -9.95 M4.65 -12.55 L4.65 -12.6 4.6 -12.6 4.65 -12.55"/><path fill="#644520" stroke="none" d="M-1.35 -14.15 L-1.1 -14.0 -1.05 -14.0 -1.35 -14.15 M3.05 -13.45 L3.15 -13.4 3.15 -13.45 3.05 -13.45"/><path fill="#855e2a" stroke="none" d="M-0.4 -13.2 L-0.35 -13.2 -0.4 -13.25 -0.4 -13.2"/><path fill="#a09c49" stroke="none" d="M-4.1 -1.55 L-0.35 -0.95 0.8 -0.95 0.8 -1.8 0.8 -2.1 -0.35 -1.1 -4.1 -1.55 M5.65 -18.7 L5.75 -20.0 4.8 -19.55 4.6 -17.55 5.1 -18.65 5.65 -18.7 M-1.5 -13.35 L-3.8 -13.8 -4.05 -13.7 -4.1 -13.65 -4.15 -13.7 -4.55 -13.9 -5.3 -13.8 -4.65 -12.05 -4.65 -11.6 -5.2 -12.4 -6.2 -11.75 -6.25 -11.75 -6.2 -11.7 -6.2 -11.75 -6.2 -11.7 -4.55 -10.85 -4.55 -10.65 -3.15 -10.05 0.45 -10.05 0.45 -10.15 0.0 -11.8 -0.2 -11.9 -0.15 -11.65 -1.4 -13.2 -1.5 -13.35 M3.35 -14.65 L3.15 -13.45 3.15 -13.4 3.05 -13.0 3.15 -12.95 3.65 -12.1 3.75 -12.05 4.0 -13.15 4.05 -13.15 4.5 -14.9 4.55 -15.05 4.55 -15.15 3.55 -15.95 3.45 -15.25 3.4 -15.1 3.45 -15.05 3.35 -14.65 M-5.7 -13.3 L-6.0 -14.0 -6.15 -13.75 -7.1 -13.6 -6.7 -12.95 -5.7 -13.3 M-4.65 -11.6 L-4.55 -10.85 -4.65 -11.6 M-4.2 -3.55 L-4.1 -3.55 -0.65 -3.55 0.55 -3.55 0.1 -6.85 0.55 -7.85 0.55 -8.45 -4.2 -6.95 -4.2 -3.55 M-0.35 -1.1 L-0.35 -0.95 -0.35 -1.1 M-0.8 -4.7 L-0.65 -3.55 -0.8 -4.7 M3.65 -14.95 L3.6 -15.05 3.65 -15.05 3.65 -14.95"/><path fill="#6b6832" stroke="none" d="M-3.8 -13.8 L-3.3 -14.55 -3.85 -14.1 -3.9 -14.15 -4.1 -14.6 -4.55 -13.9 -4.15 -13.7 -4.1 -13.65 -4.05 -13.7 -3.8 -13.8 M0.05 -12.45 L-0.15 -12.45 -0.2 -11.9 0.0 -11.8 0.05 -12.45"/><path fill="#65622e" stroke="none" d="M-5.2 -12.4 L-5.7 -13.3 -6.7 -12.95 -6.25 -11.75 -6.2 -11.75 -5.2 -12.4"/><path fill="#875f2b" stroke="none" d="M-7.7 -12.4 L-7.9 -11.75 -7.6 -11.05 -7.7 -12.4"/><path fill="#c4964c" stroke="none" d="M5.6 -15.55 L5.6 -15.6 5.55 -15.6 5.6 -15.55 M4.0 -13.15 L4.1 -13.1 4.05 -13.15 4.0 -13.15"/><path fill="#b1ad54" stroke="none" d="M0.8 -1.8 L3.5 -2.55 4.35 -2.75 4.3 -3.5 0.8 -2.1 0.8 -1.8 M7.15 -14.25 L7.15 -14.3 7.45 -15.3 7.7 -16.45 6.15 -15.75 5.4 -14.85 5.6 -15.55 5.55 -15.6 4.55 -15.15 4.55 -15.05 4.5 -14.9 4.05 -13.15 4.1 -13.1 4.0 -13.15 3.75 -12.05 3.7 -12.05 3.95 -11.2 3.7 -12.05 3.65 -12.1 3.35 -12.05 0.7 -11.75 0.0 -11.8 0.45 -10.15 0.45 -10.05 3.75 -10.05 0.55 -8.45 0.55 -7.85 0.1 -6.85 0.55 -3.55 4.3 -3.55 4.05 -8.6 3.95 -11.2 5.15 -11.35 6.4 -9.05 6.3 -9.95 6.3 -10.05 6.35 -9.95 6.4 -12.8 6.45 -12.8 6.4 -13.7 7.05 -14.15 7.15 -14.25 M4.6 -12.6 L4.65 -12.6 4.65 -12.55 4.6 -12.6 M3.35 -12.05 L4.05 -8.6 3.35 -12.05"/><path fill="#b39039" stroke="none" d="M6.45 -12.8 L6.4 -12.8 6.5 -12.7 6.45 -12.8 M3.7 -12.05 L3.75 -12.05 3.65 -12.1 3.7 -12.05"/><path fill="#a67835" stroke="none" d="M3.15 -13.45 L3.05 -13.5 3.05 -13.45 3.15 -13.45"/><path fill="none" stroke="#000000" stroke-width="0.5" stroke-opacity="0.301960784314" d="M0.65 -19.5 L-0.25 -19.45 -0.45 -19.05 -0.5 -17.7 -2.3 -17.4 -2.9 -18.7 -3.95 -18.9 -5.9 -18.45 -5.95 -18.4 -6.05 -18.35 -6.35 -18.25 -6.55 -18.45 -7.25 -18.55 -7.35 -18.6 -7.75 -18.6 -7.8 -18.65 -9.05 -17.0 -8.55 -16.35 -8.65 -16.2 -8.65 -15.55 -7.9 -14.35 -7.7 -12.4 -7.6 -11.05 -6.65 -4.0 -5.6 -2.85 -5.05 -2.35 -4.2 -1.6 -4.1 -1.55 -0.35 -0.95 0.8 -0.95 M4.45 -1.55 L6.5 -3.65 7.4 -4.55 M7.05 -7.45 L7.05 -9.05 M7.15 -12.05 L7.15 -14.25 7.15 -14.3 7.45 -15.3 8.8 -17.2 6.6 -18.85 5.65 -18.7 5.75 -20.0 3.5 -20.5 2.25 -19.9 2.2 -19.9 1.9 -18.85 1.3 -18.65 0.95 -18.25 0.65 -17.85 0.65 -17.75 M-1.95 -16.7 L-2.3 -17.4 M-0.5 -17.7 L-0.55 -16.95 M-2.05 -14.4 L-1.35 -14.15 -1.1 -14.0 -1.05 -14.0 -1.35 -14.15 M0.05 -12.45 L-0.15 -12.45 M-0.4 -13.2 L-0.35 -13.2 -0.4 -13.25 -1.05 -14.0 M-5.3 -13.8 L-4.9 -14.5 -4.1 -14.6 -3.9 -14.15 -3.85 -14.1 M-5.3 -13.8 L-4.65 -12.05 -4.65 -11.6 M-4.15 -13.7 L-4.1 -13.65 -4.05 -13.7 M-6.35 -18.25 L-5.8 -17.45 -5.8 -17.35 -4.85 -15.95 M-7.1 -13.6 L-7.3 -13.75 M-7.65 -14.05 L-7.9 -14.35 M-6.2 -11.7 L-6.2 -8.1 M-6.2 -11.75 L-6.2 -11.7 M-4.55 -10.85 L-4.55 -10.65 -4.5 -9.5 M-4.55 -10.85 L-4.65 -11.6 M-4.2 -3.55 L-4.2 -6.95 M0.55 -7.85 L0.1 -6.85 0.55 -3.55 0.8 -2.1 0.8 -1.8 M-0.65 -3.55 L-0.8 -4.7 M-0.35 -0.95 L-0.35 -1.1 -0.65 -3.55 M-5.05 -5.0 L-5.05 -2.35 M-4.1 -3.55 L-4.2 -1.6 M5.65 -18.7 L5.1 -18.65 4.6 -17.55 M5.3 -16.7 L6.65 -17.2 7.45 -16.6 7.7 -16.45 7.45 -15.3 M5.3 -16.7 L5.15 -16.0 4.7 -16.45 4.5 -16.35 4.3 -16.25 4.6 -17.55 M3.7 -16.1 L4.3 -16.25 M7.05 -14.15 L7.15 -14.25 M6.4 -13.7 L6.45 -12.8 6.5 -12.7 M6.3 -10.05 L6.3 -9.95 M3.95 -11.2 L3.7 -12.05 M4.1 -13.1 L4.05 -13.15 M4.5 -14.9 L4.55 -15.05 M6.15 -15.75 L5.4 -14.85 M1.9 -18.85 L1.8 -18.45 0.95 -18.25 M4.65 -12.55 L4.6 -12.6 M3.15 -13.45 L3.05 -13.45 M0.0 -11.8 L0.05 -12.45 M0.0 -11.8 L-0.2 -11.9 M3.65 -12.1 L3.7 -12.05 M4.05 -8.6 L3.35 -12.05 M6.5 -3.65 L5.75 -6.8"/><path fill="#aaa080" stroke="none" d="M-6.1 -5.1 L-7.05 -5.6 -7.1 -5.65 Q-7.55 -5.75 -7.5 -4.75 -7.1 -3.85 -6.2 -3.3 -6.8 -4.25 -6.1 -5.1 M-0.2 -4.2 Q-1.4 -3.65 -1.35 -3.15 L-1.0 -2.65 0.4 -2.8 4.1 -3.35 Q4.5 -3.8 4.25 -4.6 L3.95 -5.1 Q2.25 -4.45 0.05 -4.2 L-0.2 -4.2 M5.0 -5.45 L5.25 -5.3 Q5.7 -4.7 5.55 -3.9 7.4 -4.7 7.75 -6.3 7.4 -7.4 7.05 -7.0 L6.75 -6.75 5.0 -5.45"/><path fill="#bb6906" stroke="none" d="M-0.2 -4.2 L-0.2 -4.25 -0.25 -4.25 -0.2 -4.2"/><path fill="#cd9f07" stroke="none" d="M-0.2 -4.25 L-0.2 -4.2 -0.1 -4.2 -0.2 -4.25"/><path fill="#71684a" stroke="none" d="M-6.1 -5.1 Q-6.8 -4.25 -6.2 -3.3 -4.5 -2.4 -1.0 -2.65 L-1.35 -3.15 Q-1.4 -3.65 -0.2 -4.2 L-0.25 -4.25 Q-3.65 -3.8 -6.1 -5.1"/><path fill="#e2dccb" stroke="none" d="M4.1 -3.35 L5.55 -3.9 Q5.7 -4.7 5.25 -5.3 L5.0 -5.45 3.95 -5.1 4.25 -4.6 Q4.5 -3.8 4.1 -3.35"/><path fill="none" stroke="#382510" stroke-width="0.5" stroke-opacity="0.501960784314" d="M-6.2 -3.3 Q-7.1 -3.85 -7.5 -4.75 -7.55 -5.75 -7.1 -5.65 M-1.0 -2.65 Q-4.5 -2.4 -6.2 -3.3 M4.1 -3.35 L0.4 -2.8 -1.0 -2.65 M5.55 -3.9 L4.1 -3.35 M5.55 -3.9 Q7.4 -4.7 7.75 -6.3 7.4 -7.4 7.05 -7.0 L6.75 -6.75"/><path fill="#aaa080" stroke="none" d="M-6.5 -11.55 L-7.45 -12.05 -7.5 -12.1 Q-7.95 -12.2 -7.9 -11.2 -7.5 -10.3 -6.6 -9.75 -7.2 -10.7 -6.5 -11.55 M3.55 -11.55 Q1.85 -10.9 -0.35 -10.65 L-0.6 -10.65 Q-1.8 -10.1 -1.75 -9.6 L-1.4 -9.1 0.0 -9.25 3.7 -9.8 Q4.1 -10.25 3.85 -11.05 L3.55 -11.55 M4.6 -11.9 L4.85 -11.75 Q5.3 -11.15 5.15 -10.35 7.0 -11.15 7.35 -12.75 7.0 -13.85 6.65 -13.45 L6.35 -13.2 4.6 -11.9"/><path fill="#cd9f07" stroke="none" d="M-0.6 -10.65 L-0.5 -10.65 -0.6 -10.7 -0.6 -10.65"/><path fill="#bb6906" stroke="none" d="M-0.6 -10.7 L-0.65 -10.7 -0.6 -10.65 -0.6 -10.7"/><path fill="#71684a" stroke="none" d="M-6.5 -11.55 Q-7.2 -10.7 -6.6 -9.75 -4.9 -8.85 -1.4 -9.1 L-1.75 -9.6 Q-1.8 -10.1 -0.6 -10.65 L-0.65 -10.7 Q-4.05 -10.25 -6.5 -11.55"/><path fill="#e2dccb" stroke="none" d="M3.7 -9.8 L5.15 -10.35 Q5.3 -11.15 4.85 -11.75 L4.6 -11.9 3.55 -11.55 3.85 -11.05 Q4.1 -10.25 3.7 -9.8"/><path fill="none" stroke="#382510" stroke-width="0.5" stroke-opacity="0.501960784314" d="M-6.6 -9.75 Q-7.5 -10.3 -7.9 -11.2 -7.95 -12.2 -7.5 -12.1 M-1.4 -9.1 Q-4.9 -8.85 -6.6 -9.75 M3.7 -9.8 L0.0 -9.25 -1.4 -9.1 M5.15 -10.35 L3.7 -9.8 M5.15 -10.35 Q7.0 -11.15 7.35 -12.75 7.0 -13.85 6.65 -13.45 L6.35 -13.2"/></g><g id="c10"><g><use transform="matrix(1.0,0.0,0.0,1.0,0.0,0.0)" xlink:href="#c9"/></g></g><g id="c11"><g><use transform="matrix(1.0,0.0,0.0,1.0,9.05,20.5)" xlink:href="#c10"/></g></g><g id="c12"><g><use transform="matrix(1.0,0.0,0.0,1.0,0.0,0.0)" xlink:href="#c2"/></g><g><use transform="matrix(0.238861083984,-0.0867004394531,0.10026550293,0.233917236328,34.25,31.15)" xlink:href="#c4"/></g><g><use transform="matrix(0.238861083984,-0.0867004394531,0.10026550293,0.233917236328,4.25,10.3)" xlink:href="#c4"/></g><g><use transform="matrix(0.141098022461,-0.0378112792969,0.111373901367,0.225646972656,20.25,20.65)" filter="url(#filter9)" xlink:href="#c6"/></g><g><use transform="matrix(-0.155029296875,0.0513153076172,0.0841827392578,0.147033691406,22.6,2.3)" filter="url(#filter10)" xlink:href="#c8"/></g><g><use transform="matrix(0.882553100586,-0.320434570312,0.320434570312,0.882553100586,9.9,15.35)" xlink:href="#c11"/></g><g><use transform="matrix(0.162948608398,-0.0436706542969,0.128631591797,0.260604858398,20.35,20.95)" filter="url(#filter12)" xlink:href="#c6"/></g></g><filter id="filter9"><feColorMatrix in="SourceGraphic" type="matrix" values="0.0 0.0 0.0 0.0 0.796875 0.0 0.0 0.0 0.0 0.59765625 0.0 0.0 0.0 0.0 0.19921875 0.0 0.0 0.0 1.0 0.0" result="cxform"/><feComposite operator="in" in2="SourceGraphic" result="color-xform"/></filter><filter id="filter10"><feColorMatrix in="SourceGraphic" type="matrix" values="0.0 0.0 0.0 0.0 0.99609375 0.0 0.0 0.0 0.0 0.99609375 0.0 0.0 0.0 0.0 0.99609375 0.0 0.0 0.0 1.0 0.0" result="cxform"/><feComposite operator="in" in2="SourceGraphic" result="color-xform"/></filter><filter id="filter12"><feColorMatrix in="SourceGraphic" type="matrix" values="1.0 0.0 0.0 0.0 0.0 0.0 1.0 0.0 0.0 0.0 0.0 0.0 1.0 0.0 0.0 0.0 0.0 0.0 0.23046875 0.0" result="cxform"/><feComposite operator="in" in2="SourceGraphic" result="color-xform"/></filter></defs><g><g><use transform="matrix(1.0,0.0,0.0,1.0,0.0,0.0)" xlink:href="#c1"/></g><g><use transform="matrix(1.15496826172,0.0,0.0,1.15496826172,5.85,3.95)" xlink:href="#c12"/></g></g></svg>