<?xml version="1.0" encoding="UTF-8" standalone="no"?>
<svg xmlns:xlink="http://www.w3.org/1999/xlink" height="60.0px" width="60.0px" xmlns="http://www.w3.org/2000/svg">
  <g transform="matrix(1.0, 0.0, 0.0, 1.0, 0.0, 0.0)">
    <use height="60.0" transform="matrix(1.0, 0.0, 0.0, 1.0, 0.0, 0.0)" width="60.0" xlink:href="#shape0"/>
    <use height="46.85" transform="matrix(1.155, 0.0, 0.0, 1.155, 5.1988, 1.2534)" width="43.0" xlink:href="#sprite0"/>
  </g>
  <defs>
    <g id="shape0" transform="matrix(1.0, 0.0, 0.0, 1.0, 0.0, 0.0)">
      <path d="M0.0 0.0 L60.0 0.0 60.0 60.0 0.0 60.0 0.0 0.0" fill="#000000" fill-opacity="0.003921569" fill-rule="evenodd" stroke="none"/>
    </g>
    <g id="sprite0" transform="matrix(1.0, 0.0, 0.0, 1.0, -5.8, -51.0)">
      <use height="45.0" transform="matrix(1.0, 0.0, 0.0, 1.0, 5.8, 52.85)" width="43.0" xlink:href="#sprite1"/>
      <use height="44.05" transform="matrix(1.0, 0.0, 0.0, 1.0, 6.4, 53.35)" width="41.9" xlink:href="#shape4"/>
      <use height="0.0" transform="matrix(1.0, 0.0, 0.0, 1.0, 6.45, 53.4)" width="0.0" xlink:href="#sprite5"/>
      <use height="16.05" transform="matrix(1.0, 0.0, 0.0, 1.0, 17.6, 65.85)" width="19.15" xlink:href="#shape5"/>
      <use height="0.0" transform="matrix(-0.0738, 0.0107, 0.0185, 0.0898, 24.4, 73.6)" width="0.0" xlink:href="#sprite6"/>
      <use height="81.5" transform="matrix(-0.0524, 0.0076, 0.0076, 0.0526, 23.25, 67.7)" width="81.5" xlink:href="#sprite7"/>
      <use height="81.5" transform="matrix(-0.0524, 0.0076, 0.0076, 0.0526, 34.05, 70.35)" width="81.5" xlink:href="#sprite7"/>
      <use height="6.4" transform="matrix(1.0, 0.0, 0.0, 1.0, 26.7, 78.3)" width="8.45" xlink:href="#shape7"/>
      <use height="0.0" transform="matrix(-0.0333, 0.0262, 0.0133, 0.015, 31.5, 81.05)" width="0.0" xlink:href="#sprite6"/>
      <use height="81.5" transform="matrix(-0.0377, 0.0055, 0.0055, 0.0379, 31.15, 80.9)" width="81.5" xlink:href="#sprite7"/>
      <use height="44.25" transform="matrix(1.0, 0.0, 0.0, 1.0, 6.3, 53.25)" width="42.1" xlink:href="#shape8"/>
      <clipPath id="clipPath0" transform="matrix(1.0, 0.0, 0.0, 1.0, 0.0, 0.0)">
        <path d="M7.05 61.6 Q7.5 60.95 8.45 60.5 9.1 60.05 10.1 59.7 L28.6 53.75 Q32.85 52.35 34.75 56.45 L47.65 85.05 Q49.25 88.5 46.5 90.05 45.8 90.65 44.6 91.0 L26.1 97.0 Q23.45 97.8 21.8 96.65 20.65 95.9 19.95 94.25 L7.0 65.6 Q5.85 63.1 7.05 61.6" fill="#a74646" fill-rule="evenodd" stroke="none"/>
        <path d="M7.05 61.6 Q7.5 60.95 8.45 60.5 9.1 60.05 10.1 59.7 L28.6 53.75 Q32.85 52.35 34.75 56.45 L47.65 85.05 Q49.25 88.5 46.5 90.05 45.8 90.65 44.6 91.0 L26.1 97.0 Q23.45 97.8 21.8 96.65 20.65 95.9 19.95 94.25 L7.0 65.6 Q5.85 63.1 7.05 61.6 Z" fill="none" stroke="url(#gradient3)" stroke-linecap="round" stroke-linejoin="round" stroke-width="0.05"/>
      </clipPath>
      <g clip-path="url(#clipPath0)">
        <use height="0.0" transform="matrix(1.0, 0.0, 0.0, 1.0, 9.65, 51.0)" width="0.0" xlink:href="#sprite9"/>
        <use height="0.0" transform="matrix(1.0, 0.0, 0.0, 1.0, 9.65, 51.0)" width="0.0" xlink:href="#sprite9"/>
        <use height="30.6" transform="matrix(1.0, 0.0, 0.0, 1.0, 14.7, 59.4)" width="27.15" xlink:href="#shape10"/>
      </g>
      <use height="0.0" transform="matrix(0.1411, -0.0378, 0.1114, 0.2256, 27.2, 74.05)" width="0.0" xlink:href="#sprite3"/>
    </g>
    <g id="sprite1" transform="matrix(1.0, 0.0, 0.0, 1.0, 0.5, 0.5)">
      <use height="47.0" transform="matrix(1.0, 0.0, 0.0, 1.0, -1.5, -1.5)" width="45.0" xlink:href="#shape1"/>
      <use height="13.75" transform="matrix(0.2389, -0.0867, 0.1003, 0.2339, 34.25, 31.15)" width="15.1" xlink:href="#sprite2"/>
      <use height="13.75" transform="matrix(0.2389, -0.0867, 0.1003, 0.2339, 4.25, 10.3)" width="15.1" xlink:href="#sprite2"/>
      <use height="0.0" transform="matrix(0.1411, -0.0378, 0.1114, 0.2256, 20.25, 20.65)" width="0.0" xlink:href="#sprite3"/>
      <use height="211.45" transform="matrix(-0.155, 0.0513, 0.0842, 0.147, 22.6042, 3.1574)" width="136.6" xlink:href="#sprite4"/>
    </g>
    <g id="shape1" transform="matrix(1.0, 0.0, 0.0, 1.0, 1.5, 1.5)">
      <path d="M22.3 0.35 Q26.6 -1.0 28.5 3.05 L41.4 31.7 Q43.1 35.4 39.9 36.85 L38.15 37.65 19.65 43.65 Q17.05 44.5 15.35 43.3 14.2 42.55 13.5 40.9 L0.55 12.25 Q-0.6 9.75 0.6 8.25 1.15 7.55 2.2 7.05 2.85 6.6 3.8 6.3 L22.3 0.35 Z" fill="none" stroke="#000000" stroke-linecap="round" stroke-linejoin="round" stroke-opacity="0.3019608" stroke-width="1.0"/>
      <path d="M0.75 8.25 L29.8 9.75 25.55 0.9 Q26.9 1.6 27.8 3.55 L40.7 32.15 Q42.6 36.3 38.3 37.65 L23.3 42.5 13.15 21.4 4.6 20.9 0.7 12.25 Q-0.45 9.75 0.75 8.25 M20.1 43.55 L19.8 43.65 Q17.15 44.45 15.5 43.3 L20.1 43.55" fill="#5b3c00" fill-rule="evenodd" stroke="none"/>
      <path d="M25.55 0.9 L29.8 9.75 0.75 8.25 Q1.45 7.3 3.1 6.75 L21.65 0.8 25.55 0.9 M4.6 20.9 L13.15 21.4 23.3 42.5 20.1 43.55 15.5 43.3 Q14.35 42.55 13.65 40.9 L4.6 20.9" fill="#724b00" fill-rule="evenodd" stroke="none"/>
      <path d="M0.75 8.25 Q-0.45 9.75 0.7 12.25 L4.6 20.9 13.65 40.9 Q14.35 42.55 15.5 43.3 17.15 44.45 19.8 43.65 L20.1 43.55 23.3 42.5 38.3 37.65 Q42.6 36.3 40.7 32.15 L27.8 3.55 Q26.9 1.6 25.55 0.9 L21.65 0.8 3.1 6.75 Q1.45 7.3 0.75 8.25 Z" fill="none" stroke="#000000" stroke-linecap="round" stroke-linejoin="round" stroke-opacity="0.3019608" stroke-width="0.05"/>
      <path d="M14.2 40.5 L1.35 11.8 Q-0.5 7.75 3.8 6.35 L22.3 0.4 Q26.55 -1.0 28.45 3.1 L41.35 31.7 Q43.25 35.85 38.9 37.25 L20.4 43.2 Q16.1 44.55 14.2 40.5" fill="#ffcc00" fill-rule="evenodd" stroke="none"/>
      <path d="M14.2 40.5 L1.35 11.8 Q-0.5 7.75 3.8 6.35 L22.3 0.4 Q26.55 -1.0 28.45 3.1 L41.35 31.7 Q43.25 35.85 38.9 37.25 L20.4 43.2 Q16.1 44.55 14.2 40.5 Z" fill="none" stroke="#000000" stroke-linecap="round" stroke-linejoin="round" stroke-opacity="0.3019608" stroke-width="0.05"/>
      <path d="M9.15 13.6 Q9.8 12.8 9.55 11.6 L9.1 10.55 22.05 6.35 Q24.9 5.45 26.25 7.85 L26.5 8.3 35.8 29.0 35.95 29.35 Q34.75 29.3 34.1 30.1 33.45 30.9 33.7 32.1 L34.0 32.9 20.65 37.2 Q18.8 37.8 17.65 37.0 16.8 36.4 16.3 35.2 L6.95 14.6 6.8 14.4 7.1 14.4 Q8.4 14.45 9.15 13.6" fill="#fcf2cf" fill-rule="evenodd" stroke="none"/>
      <path d="M28.25 6.1 L35.55 22.3 39.35 30.75 Q41.1 34.5 37.2 35.7 L20.45 41.1 Q16.8 42.25 15.2 39.0 L15.0 38.6 8.25 23.65 3.35 12.8 Q1.65 9.1 5.5 7.85 L22.25 2.5 Q26.05 1.25 27.75 4.95 L28.25 6.1 M9.15 13.6 Q8.4 14.45 7.1 14.4 L6.8 14.4 6.95 14.6 16.3 35.2 Q16.8 36.4 17.65 37.0 18.8 37.8 20.65 37.2 L34.0 32.9 33.7 32.1 Q33.45 30.9 34.1 30.1 34.75 29.3 35.95 29.35 L35.8 29.0 26.5 8.3 26.25 7.85 Q24.9 5.45 22.05 6.35 L9.1 10.55 9.55 11.6 Q9.8 12.8 9.15 13.6" fill="#996600" fill-rule="evenodd" stroke="none"/>
      <path d="M9.15 13.6 Q9.8 12.8 9.55 11.6 L9.1 10.55 22.05 6.35 Q24.9 5.45 26.25 7.85 L26.5 8.3 35.8 29.0 35.95 29.35 Q34.75 29.3 34.1 30.1 33.45 30.9 33.7 32.1 L34.0 32.9 20.65 37.2 Q18.8 37.8 17.65 37.0 16.8 36.4 16.3 35.2 L6.95 14.6 6.8 14.4 7.1 14.4 Q8.4 14.45 9.15 13.6" fill="none" stroke="#f0b92b" stroke-linecap="round" stroke-linejoin="round" stroke-width="0.05"/>
      <path d="M35.55 22.3 L39.35 30.75 Q41.1 34.5 37.2 35.7 L20.45 41.1 Q16.8 42.25 15.2 39.0 L15.0 38.6 M8.25 23.65 L3.35 12.8 Q1.65 9.1 5.5 7.85 L22.25 2.5 Q26.05 1.25 27.75 4.95 L28.25 6.1" fill="none" stroke="#fcf2cf" stroke-linecap="round" stroke-linejoin="round" stroke-width="1.0"/>
      <path d="M28.25 6.1 L35.55 22.3 M15.0 38.6 L8.25 23.65" fill="none" stroke="#ffaa00" stroke-linecap="round" stroke-linejoin="round" stroke-width="1.0"/>
    </g>
    <g id="sprite2" transform="matrix(1.0, 0.0, 0.0, 1.0, 0.0, 0.0)">
      <use height="13.75" transform="matrix(1.0, 0.0, 0.0, 1.0, 0.0, 0.0)" width="15.1" xlink:href="#shape2"/>
    </g>
    <g id="shape2" transform="matrix(1.0, 0.0, 0.0, 1.0, 0.0, 0.0)">
      <path d="M10.75 4.9 Q10.75 4.6 10.9 4.35 11.25 3.45 11.95 2.75 13.3 1.5 14.35 2.1 15.4 2.7 14.95 4.45 14.7 5.4 14.1 6.15 L13.75 6.5 Q13.1 7.15 12.35 7.35 L11.4 7.2 Q10.95 6.9 10.75 6.4 10.5 5.75 10.75 4.9 M7.5 5.9 Q7.0 5.85 6.6 5.5 6.05 5.0 5.8 4.15 L5.7 3.6 Q5.55 2.65 5.8 1.7 6.25 0.0 7.5 0.0 L7.6 0.0 Q8.85 0.0 9.3 1.7 9.55 2.65 9.4 3.6 L9.3 4.15 8.5 5.5 7.6 5.9 7.5 5.9 M4.35 4.9 Q4.6 5.75 4.35 6.4 L3.7 7.2 2.75 7.35 Q2.0 7.15 1.35 6.5 L1.0 6.15 Q0.4 5.4 0.15 4.45 -0.3 2.7 0.75 2.1 1.8 1.5 3.15 2.75 3.85 3.45 4.2 4.35 L4.35 4.9 M5.5 13.7 Q4.45 13.9 3.65 12.95 2.75 12.0 3.2 10.25 3.7 8.5 5.25 7.6 6.4 6.9 7.55 7.0 8.75 6.9 9.9 7.6 11.45 8.5 11.95 10.25 12.35 12.0 11.5 12.95 10.7 13.9 9.65 13.7 8.55 13.5 7.55 12.6 6.55 13.5 5.5 13.7" fill="#7fdbfe" fill-rule="evenodd" stroke="none"/>
    </g>
    <g id="sprite4" transform="matrix(1.0, 0.0, 0.0, 1.0, 0.0, -0.05)">
      <use height="211.55" transform="matrix(1.0, 0.0, 0.0, 1.0, -0.05, 0.0)" width="136.7" xlink:href="#shape3"/>
    </g>
    <g id="shape3" transform="matrix(1.0, 0.0, 0.0, 1.0, 0.05, 0.0)">
      <path d="M136.55 165.8 L68.6 106.0 68.4 106.0 118.25 201.5 M68.2 105.7 L68.25 105.8 68.25 105.75 68.2 105.7 0.0 45.7 M68.25 105.8 L68.3 105.85 68.3 105.8 68.25 105.75 49.95 0.05 M0.05 97.7 L68.15 105.95 68.25 105.85 68.25 105.8 M68.3 105.85 L68.25 105.85 68.3 106.0 68.3 105.85 68.3 105.8 68.35 105.8 68.3 105.8 86.6 18.35 M50.0 193.2 L68.3 106.0 68.15 105.95 18.25 151.55 M68.4 106.0 L68.3 106.0 86.55 211.5 M68.4 106.0 L68.3 105.85 M68.6 106.0 L68.35 105.8 118.25 60.15 M136.6 114.25 L68.6 106.0 M68.2 105.7 L18.25 10.05" fill="none" stroke="url(#gradient0)" stroke-linecap="round" stroke-linejoin="round" stroke-width="0.05"/>
    </g>
    <radialGradient cx="0" cy="0" gradientTransform="matrix(0.2092, 0.0, 0.0, 0.1771, 67.15, 107.2)" gradientUnits="userSpaceOnUse" id="gradient0" r="819.2" spreadMethod="pad">
      <stop offset="0.3568627450980392" stop-color="#ffffff"/>
      <stop offset="0.6705882352941176" stop-color="#000000" stop-opacity="0.0"/>
    </radialGradient>
    <g id="shape4" transform="matrix(1.0, 0.0, 0.0, 1.0, -6.4, -53.35)">
      <path d="M7.05 61.6 Q7.5 60.95 8.45 60.5 9.1 60.05 10.1 59.7 L28.6 53.75 Q32.85 52.35 34.75 56.45 L47.65 85.05 Q49.25 88.5 46.5 90.05 45.8 90.65 44.6 91.0 L26.1 97.0 Q23.45 97.8 21.8 96.65 20.65 95.9 19.95 94.25 L7.0 65.6 Q5.85 63.1 7.05 61.6 Z" fill="none" stroke="url(#gradient1)" stroke-linecap="round" stroke-linejoin="round" stroke-width="0.05"/>
    </g>
    <radialGradient cx="0" cy="0" gradientTransform="matrix(0.0255, 0.0, 0.0, 0.0268, 27.35, 75.35)" gradientUnits="userSpaceOnUse" id="gradient1" r="819.2" spreadMethod="pad">
      <stop offset="0.3568627450980392" stop-color="#ffffff"/>
      <stop offset="0.6705882352941176" stop-color="#000000" stop-opacity="0.0"/>
    </radialGradient>
    <g id="shape5" transform="matrix(1.0, 0.0, 0.0, 1.0, -17.6, -65.85)">
      <path d="M29.8 78.85 L30.35 79.3 30.8 80.05 30.9 80.2 31.1 80.65 31.15 81.1 31.2 81.0 31.45 81.1 31.35 80.65 31.35 80.45 31.15 80.1 30.6 79.35 29.8 78.85 M32.2 81.1 L32.5 80.3 32.35 80.4 32.15 79.8 31.45 78.65 31.15 78.35 Q30.65 78.05 30.4 78.6 L30.95 79.3 31.5 80.0 31.75 80.6 31.85 80.9 31.8 81.1 32.1 81.2 32.2 81.1 M31.85 80.9 L32.25 80.45 32.35 80.4 32.25 80.45 31.85 80.9" fill="#75d74a" fill-rule="evenodd" stroke="none"/>
      <path d="M31.45 81.1 L32.1 81.35 32.2 81.1 32.1 81.2 31.8 81.1 31.85 80.9 31.75 80.6 31.5 80.0 30.95 79.3 30.4 78.6 29.85 78.45 Q29.35 78.35 29.8 78.85 L30.6 79.35 31.15 80.1 31.35 80.45 31.35 80.65 31.45 81.1" fill="#339328" fill-rule="evenodd" stroke="none"/>
      <path d="M32.5 80.3 L32.55 80.2 32.4 79.95 32.35 79.75 32.2 79.35 31.7 78.65 31.6 78.55 31.35 78.25 30.6 78.15 30.45 78.2 30.4 78.6 Q30.65 78.05 31.15 78.35 L31.45 78.65 32.15 79.8 32.35 80.4 32.5 80.3" fill="#9ae17b" fill-rule="evenodd" stroke="none"/>
      <path d="M29.8 78.85 L30.35 79.3 30.8 80.05 30.9 80.2 31.1 80.65 31.15 81.1 M32.55 80.2 L32.4 79.95 32.35 79.75 32.2 79.35 31.7 78.65 31.6 78.55 31.35 78.25 M32.5 80.3 L32.35 80.4 32.25 80.45 31.85 80.9" fill="none" stroke="#000000" stroke-linecap="round" stroke-linejoin="round" stroke-opacity="0.3019608" stroke-width="0.30000000000000004"/>
      <path d="M21.25 69.45 Q21.25 69.05 21.4 68.7 L21.85 68.3 22.3 68.2 23.2 68.4 23.45 68.35 23.25 68.25 Q22.85 67.95 22.2 68.0 21.55 68.0 21.2 68.6 21.0 69.1 21.05 69.7 L21.25 69.45 M22.65 76.1 Q21.15 76.05 20.25 74.8 19.3 73.55 19.4 72.0 19.5 70.45 19.8 69.85 L20.0 69.65 Q21.75 67.35 24.6 66.9 L27.1 66.95 Q27.45 66.75 28.0 66.95 L28.95 67.35 28.0 66.95 Q27.45 66.75 27.1 66.95 26.85 67.15 27.05 67.6 L27.2 67.55 Q27.05 67.1 27.4 67.05 L28.55 67.3 28.95 67.35 29.25 67.55 29.55 67.8 30.1 68.4 30.8 69.1 31.15 69.05 29.95 67.9 29.7 67.7 29.25 67.4 Q27.05 66.0 24.4 66.35 21.35 66.75 19.55 69.25 L19.2 69.75 Q19.0 70.55 19.05 71.45 L19.1 72.5 19.1 72.6 19.1 72.75 Q19.5 74.15 20.1 74.9 L20.1 74.95 20.1 75.0 20.15 75.05 20.45 75.45 21.2 76.0 22.65 76.1 M34.2 70.95 L35.6 71.05 Q36.15 71.95 35.75 73.15 35.25 74.25 34.55 74.45 L34.4 74.55 33.95 74.6 33.5 74.35 33.3 74.15 33.2 73.9 Q33.0 73.3 33.2 72.55 33.3 71.8 33.8 71.25 L34.15 70.95 34.2 70.95 M34.25 75.4 Q35.75 75.1 36.25 73.15 36.55 71.2 35.45 70.4 L35.4 70.35 33.5 69.45 32.15 69.1 Q34.9 69.85 34.45 70.35 L33.95 70.4 Q33.05 71.05 32.8 72.3 32.65 73.85 33.1 74.5 33.6 75.15 34.45 75.0 35.3 74.55 35.9 73.4 L35.25 74.75 Q34.7 75.25 33.9 75.3 L34.25 75.4" fill="#d7f16b" fill-rule="evenodd" stroke="none"/>
      <path d="M21.85 68.3 L21.4 68.7 Q21.25 69.05 21.25 69.45 L21.75 68.95 21.85 68.3 M19.05 71.45 Q19.0 70.55 19.2 69.75 17.75 72.05 18.15 74.85 18.6 77.95 21.05 79.9 22.45 80.9 23.85 81.25 L26.6 81.4 27.9 81.15 29.35 80.5 30.05 80.05 31.1 79.0 31.3 78.75 Q31.85 78.25 32.25 77.2 L32.9 75.15 33.25 75.3 33.95 75.4 34.25 75.4 33.9 75.3 33.25 75.1 32.95 74.9 32.45 74.2 32.4 74.45 31.9 74.2 31.45 74.0 31.4 74.0 31.1 73.9 29.45 73.75 Q28.6 73.8 27.6 74.35 L27.95 74.3 30.85 74.2 31.25 74.3 Q29.0 74.85 28.0 77.1 27.55 78.55 28.65 78.5 L28.7 78.5 Q30.0 77.9 30.95 77.15 L32.55 75.2 32.35 75.85 32.15 76.35 31.8 77.15 31.05 78.5 30.7 78.9 29.8 79.55 29.45 79.8 Q29.2 79.9 28.9 80.05 L27.15 80.65 26.6 80.7 24.4 80.75 Q22.85 80.45 21.4 79.45 19.1 77.7 18.7 74.85 18.5 73.45 18.8 72.2 L19.05 71.45 M30.1 68.4 L29.55 67.8 29.25 67.55 28.95 67.35 28.55 67.3 29.25 67.8 29.35 67.8 29.55 68.1 29.8 68.3 30.25 69.15 30.4 69.1 30.2 68.6 30.1 68.4 M34.55 74.45 L34.95 74.15 Q35.45 73.65 35.55 72.85 35.75 72.05 35.5 71.45 35.3 70.9 34.75 70.8 35.5 71.85 35.1 73.1 L34.8 73.65 Q34.4 74.2 33.5 74.35 L33.95 74.6 34.4 74.55 34.55 74.45 M27.4 67.05 Q27.05 67.1 27.2 67.55 L27.5 67.45 27.4 67.05 M32.9 75.15 L32.8 75.15 32.5 74.95 32.45 75.0 31.85 74.55 31.25 74.3 31.85 74.55 32.45 75.0 32.5 74.95 32.8 75.15 32.9 75.15" fill="#75d74a" fill-rule="evenodd" stroke="none"/>
      <path d="M21.75 68.95 L21.25 69.45 21.3 69.9 21.45 70.25 22.1 70.95 Q22.7 71.4 23.3 71.3 23.9 71.2 24.0 70.65 L24.05 70.2 23.2 70.35 22.75 70.15 22.45 69.95 22.0 69.5 21.75 68.95 M34.75 70.8 L34.2 70.95 34.15 70.95 33.8 71.25 Q33.3 71.8 33.2 72.55 34.85 72.85 34.8 73.65 L35.1 73.1 Q35.5 71.85 34.75 70.8 M28.8 68.3 L28.6 68.25 28.4 68.1 27.5 67.45 27.2 67.55 27.4 67.85 27.7 68.3 29.2 69.3 30.25 69.15 29.8 68.3 Q29.55 68.55 28.8 68.3" fill="#206039" fill-rule="evenodd" stroke="none"/>
      <path d="M22.75 70.15 Q24.1 70.4 24.05 69.95 L23.85 69.5 23.85 69.4 23.2 68.4 Q22.35 68.55 21.75 68.95 L22.0 69.5 22.45 69.95 22.75 70.15 M20.1 74.95 L20.1 74.9 Q19.5 74.15 19.1 72.75 L19.1 72.6 19.1 72.5 19.05 71.45 18.8 72.2 Q18.5 73.45 18.7 74.85 19.1 77.7 21.4 79.45 22.85 80.45 24.4 80.75 L26.6 80.7 27.15 80.65 28.9 80.05 Q29.2 79.9 29.45 79.8 L29.8 79.55 30.7 78.9 31.05 78.5 31.8 77.15 31.5 77.45 30.2 78.5 Q29.45 79.05 28.05 79.45 L27.05 79.6 26.75 79.65 Q23.1 80.25 19.7 76.05 L19.4 75.55 Q19.05 74.4 19.15 74.25 19.2 73.75 20.1 74.95 M27.6 74.35 L27.35 74.65 Q27.5 74.95 28.1 74.65 29.2 74.1 30.85 74.2 L27.95 74.3 27.6 74.35 M33.5 74.35 Q34.4 74.2 34.8 73.65 34.85 72.85 33.2 72.55 33.0 73.3 33.2 73.9 L33.3 74.15 33.5 74.35 M29.55 68.1 L29.35 67.8 29.25 67.8 28.55 67.3 27.5 67.45 28.4 68.1 28.6 68.25 28.8 68.3 Q29.6 68.45 29.55 68.1" fill="#246c41" fill-rule="evenodd" stroke="none"/>
      <path d="M21.25 69.45 L21.05 69.7 21.15 69.9 21.3 70.25 22.05 71.15 Q22.7 71.6 23.4 71.5 24.1 71.4 24.25 70.75 24.35 70.2 24.05 69.45 L24.0 69.3 23.45 68.35 23.2 68.4 23.85 69.4 23.85 69.5 24.05 69.95 Q24.1 70.4 22.75 70.15 L23.2 70.35 24.05 70.2 24.0 70.65 Q23.9 71.2 23.3 71.3 22.7 71.4 22.1 70.95 L21.45 70.25 21.3 69.9 21.25 69.45 M22.65 76.1 L21.2 76.0 20.45 75.45 20.15 75.05 20.1 75.0 20.1 74.95 Q19.2 73.75 19.15 74.25 19.05 74.4 19.4 75.55 L19.7 76.05 Q23.1 80.25 26.75 79.65 L27.05 79.6 28.05 79.45 Q29.45 79.05 30.2 78.5 L31.5 77.45 31.8 77.15 32.15 76.35 32.35 75.85 32.3 75.9 30.85 77.35 30.65 77.55 28.7 78.5 28.65 78.5 Q27.55 78.55 28.0 77.1 29.0 74.85 31.25 74.3 L30.85 74.2 Q29.2 74.1 28.1 74.65 27.5 74.95 27.35 74.65 L27.6 74.35 Q28.6 73.8 29.45 73.75 L31.1 73.9 31.4 74.0 31.45 74.0 Q32.5 74.2 32.35 73.8 L32.35 72.45 Q32.45 71.45 33.25 70.65 32.3 71.45 30.45 71.15 L27.8 71.3 26.95 71.75 Q26.0 72.35 25.4 73.3 24.2 75.7 22.65 76.1 M27.05 67.6 L27.15 67.8 27.55 68.4 28.15 68.9 28.85 69.35 29.2 69.3 27.7 68.3 27.4 67.85 27.2 67.55 27.05 67.6 M29.55 68.1 Q29.6 68.45 28.8 68.3 29.55 68.55 29.8 68.3 L29.55 68.1" fill="#339328" fill-rule="evenodd" stroke="none"/>
      <path d="M21.05 69.7 Q21.0 69.1 21.2 68.6 21.55 68.0 22.2 68.0 22.85 67.95 23.25 68.25 L23.45 68.35 24.0 69.3 24.05 69.45 Q24.35 70.2 24.25 70.75 24.1 71.4 23.4 71.5 22.7 71.6 22.05 71.15 L21.3 70.25 21.15 69.9 21.05 69.7 M23.2 68.4 L22.3 68.2 21.85 68.3 21.75 68.95 Q22.35 68.55 23.2 68.4 M27.1 66.95 L24.6 66.9 Q21.75 67.35 20.0 69.65 L19.8 69.85 Q19.5 70.45 19.4 72.0 19.3 73.55 20.25 74.8 21.15 76.05 22.65 76.1 24.2 75.7 25.4 73.3 26.0 72.35 26.95 71.75 L27.8 71.3 30.45 71.15 Q32.3 71.45 33.25 70.65 32.45 71.45 32.35 72.45 L32.35 73.8 Q32.5 74.2 31.45 74.0 L31.9 74.2 32.4 74.45 32.45 74.2 32.95 74.9 33.25 75.1 33.9 75.3 Q34.7 75.25 35.25 74.75 L35.9 73.4 Q35.3 74.55 34.45 75.0 33.6 75.15 33.1 74.5 32.65 73.85 32.8 72.3 33.05 71.05 33.95 70.4 L34.45 70.35 Q34.9 69.85 32.15 69.1 L31.15 69.05 30.8 69.1 30.1 68.4 30.2 68.6 30.4 69.1 30.25 69.15 29.2 69.3 28.85 69.35 28.15 68.9 27.55 68.4 27.15 67.8 27.05 67.6 Q26.85 67.15 27.1 66.95 M27.6 69.85 L28.3 69.55 28.85 69.35 28.3 69.55 27.6 69.85 M28.7 78.5 L30.65 77.55 30.85 77.35 32.3 75.9 32.35 75.85 32.55 75.2 30.95 77.15 Q30.0 77.9 28.7 78.5 M34.75 70.8 Q35.3 70.9 35.5 71.45 35.75 72.05 35.55 72.85 35.45 73.65 34.95 74.15 L34.55 74.45 Q35.25 74.25 35.75 73.15 36.15 71.95 35.6 71.05 L34.2 70.95 34.75 70.8 M28.55 67.3 L27.4 67.05 27.5 67.45 28.55 67.3 M30.8 69.1 L30.4 69.1 30.8 69.1" fill="#9ae17b" fill-rule="evenodd" stroke="none"/>
      <path d="M21.05 69.7 Q21.0 69.1 21.2 68.6 21.55 68.0 22.2 68.0 22.85 67.95 23.25 68.25 L23.45 68.35 24.0 69.3 24.05 69.45 Q24.35 70.2 24.25 70.75 24.1 71.4 23.4 71.5 22.7 71.6 22.05 71.15 L21.3 70.25 21.15 69.9 21.05 69.7 M19.2 69.75 L19.55 69.25 Q21.35 66.75 24.4 66.35 27.05 66.0 29.25 67.4 L29.7 67.7 29.95 67.9 31.15 69.05 30.8 69.1 30.4 69.1 30.25 69.15 29.2 69.3 28.85 69.35 28.3 69.55 27.6 69.85 M30.1 68.4 L29.55 67.8 29.25 67.55 28.95 67.35 28.0 66.95 Q27.45 66.75 27.1 66.95 26.85 67.15 27.05 67.6 L27.15 67.8 27.55 68.4 28.15 68.9 28.85 69.35 M30.85 74.2 L31.25 74.3 31.85 74.55 32.45 75.0 32.5 74.95 32.8 75.15 32.9 75.15 32.25 77.2 Q31.85 78.25 31.3 78.75 L31.1 79.0 30.05 80.05 29.35 80.5 27.9 81.15 26.6 81.4 23.85 81.25 Q22.45 80.9 21.05 79.9 18.6 77.95 18.15 74.85 17.75 72.05 19.2 69.75 M34.75 70.8 L34.2 70.95 34.15 70.95 33.8 71.25 Q33.3 71.8 33.2 72.55 33.0 73.3 33.2 73.9 L33.3 74.15 33.5 74.35 M32.15 69.1 L33.5 69.45 35.4 70.35 35.45 70.4 Q36.55 71.2 36.25 73.15 35.75 75.1 34.25 75.4 L33.95 75.4 33.25 75.3 32.9 75.15 M32.15 69.1 L31.15 69.05 M30.1 68.4 L30.2 68.6 30.4 69.1 M30.85 74.2 L27.95 74.3" fill="none" stroke="#000000" stroke-linecap="round" stroke-linejoin="round" stroke-opacity="0.3019608" stroke-width="0.30000000000000004"/>
      <path d="M30.3 69.8 L30.85 69.85 31.4 69.6 31.6 69.3 31.3 69.0 30.75 69.0 Q30.4 69.05 30.2 69.2 L30.0 69.5 30.3 69.8" fill="#d7f16b" fill-rule="evenodd" stroke="none"/>
      <path d="M24.15 67.6 L25.05 67.7 25.85 67.35 26.15 66.9 25.75 66.5 24.85 66.45 24.05 66.75 Q23.7 67.0 23.75 67.25 L24.15 67.6" fill="#d7f16b" fill-rule="evenodd" stroke="none"/>
    </g>
    <g id="sprite7" transform="matrix(1.0, 0.0, 0.0, 1.0, 0.0, 0.0)">
      <use height="26.7" transform="matrix(0.0042, -1.3515, 1.3935, 0.02, 22.09, 56.0263)" width="26.7" xlink:href="#sprite8"/>
      <use height="26.7" transform="matrix(0.0095, -3.0486, 0.372, 0.0053, 36.507, 81.3775)" width="26.7" xlink:href="#sprite8"/>
      <use height="26.7" transform="matrix(3.0486, 0.0095, -0.0053, 0.372, 0.1225, 35.107)" width="26.7" xlink:href="#sprite8"/>
    </g>
    <g id="sprite8" transform="matrix(1.0, 0.0, 0.0, 1.0, 13.35, 13.35)">
      <use height="26.7" transform="matrix(1.0, 0.0, 0.0, 1.0, -13.35, -13.35)" width="26.7" xlink:href="#shape6"/>
    </g>
    <g id="shape6" transform="matrix(1.0, 0.0, 0.0, 1.0, 13.35, 13.35)">
      <path d="M9.3 -9.85 Q13.35 -5.8 13.35 0.0 13.35 5.8 9.3 9.3 5.8 13.35 0.0 13.35 -5.8 13.35 -9.85 9.3 -13.35 5.8 -13.35 0.0 -13.35 -5.8 -9.85 -9.85 -5.8 -13.35 0.0 -13.35 5.8 -13.35 9.3 -9.85" fill="url(#gradient2)" fill-rule="evenodd" stroke="none"/>
    </g>
    <radialGradient cx="0" cy="0" gradientTransform="matrix(0.0213, 0.0, 0.0, 0.0213, 0.0, 0.0)" gradientUnits="userSpaceOnUse" id="gradient2" r="819.2" spreadMethod="pad">
      <stop offset="0.19607843137254902" stop-color="#fee3bc" stop-opacity="0.5568628"/>
      <stop offset="0.5019607843137255" stop-color="#fee3bc" stop-opacity="0.08627451"/>
      <stop offset="0.7607843137254902" stop-color="#ffe3bd" stop-opacity="0.0"/>
    </radialGradient>
    <g id="shape7" transform="matrix(1.0, 0.0, 0.0, 1.0, -26.7, -78.3)">
      <path d="M27.35 80.5 L28.1 80.65 Q28.5 80.75 28.85 81.0 L29.0 81.1 29.4 81.45 29.7 81.75 29.65 81.65 29.9 81.65 29.6 81.25 29.5 81.15 29.15 80.9 Q28.75 80.65 28.35 80.55 L27.35 80.5 M30.6 81.3 L30.45 80.4 30.4 80.4 30.4 80.6 29.85 80.15 Q29.35 79.75 28.7 79.55 L28.3 79.4 Q27.7 79.4 27.75 80.0 L28.6 80.3 Q29.05 80.4 29.4 80.65 L29.95 81.0 30.2 81.3 30.25 81.45 30.5 81.35 30.6 81.3 M30.2 81.3 L30.35 80.65 30.4 80.6 30.35 80.65 30.2 81.3" fill="#75d74a" fill-rule="evenodd" stroke="none"/>
      <path d="M30.45 80.4 L30.45 80.35 30.2 80.1 30.05 80.0 29.7 79.75 28.95 79.35 28.75 79.3 28.4 79.25 Q27.85 79.1 27.7 79.45 L27.65 79.65 27.75 80.0 Q27.7 79.4 28.3 79.4 L28.7 79.55 Q29.35 79.75 29.85 80.15 L30.4 80.6 30.4 80.4 30.45 80.4" fill="#9ae17b" fill-rule="evenodd" stroke="none"/>
      <path d="M29.9 81.65 L30.6 81.55 30.6 81.3 30.5 81.35 30.25 81.45 30.2 81.3 29.95 81.0 29.4 80.65 Q29.05 80.4 28.6 80.3 L27.75 80.0 27.25 80.15 Q26.7 80.3 27.35 80.5 L28.35 80.55 Q28.75 80.65 29.15 80.9 L29.5 81.15 29.6 81.25 29.9 81.65" fill="#339328" fill-rule="evenodd" stroke="none"/>
      <path d="M27.35 80.5 L28.1 80.65 Q28.5 80.75 28.85 81.0 L29.0 81.1 29.4 81.45 29.7 81.75 M30.45 80.35 L30.2 80.1 30.05 80.0 29.7 79.75 28.95 79.35 28.75 79.3 28.4 79.25 M30.4 80.6 L30.35 80.65 30.2 81.3 M30.45 80.4 L30.4 80.4 30.4 80.6" fill="none" stroke="#000000" stroke-linecap="round" stroke-linejoin="round" stroke-opacity="0.3019608" stroke-width="0.30000000000000004"/>
      <path d="M32.95 80.0 L33.4 79.75 34.45 79.6 34.6 79.7 34.7 79.85 34.65 79.65 34.65 79.6 Q34.45 78.85 33.4 78.75 32.45 78.7 31.2 79.45 30.0 80.25 29.3 81.35 L29.2 81.45 Q28.6 82.55 28.8 83.3 28.95 83.95 29.6 84.15 L29.7 84.2 29.85 84.25 29.7 84.15 29.65 84.1 Q29.4 83.75 29.85 82.85 L30.85 81.65 31.45 81.1 31.5 81.05 Q32.2 80.35 32.95 80.0 M31.25 79.65 L32.8 78.95 Q33.95 78.8 34.25 79.3 L33.35 79.55 Q32.75 79.85 32.1 80.3 L31.35 80.95 30.65 81.6 30.2 82.1 Q29.85 82.0 29.7 81.5 L29.65 81.2 Q30.35 80.25 31.25 79.65 M28.95 82.7 L29.05 82.15 Q29.7 81.75 29.95 82.55 L29.75 82.8 29.4 83.55 29.4 83.95 Q29.1 83.9 28.95 83.4 L28.95 82.7" fill="#d7f16b" fill-rule="evenodd" stroke="none"/>
      <path d="M34.7 79.85 L34.6 79.7 34.45 79.6 33.4 79.75 32.95 80.0 Q32.5 80.9 32.35 81.75 L32.35 83.1 32.8 82.75 34.4 80.95 34.7 80.15 34.7 79.85 M31.5 81.05 L31.45 81.1 30.85 81.65 29.85 82.85 Q29.4 83.75 29.65 84.1 L29.7 84.15 29.85 84.25 30.0 84.2 30.05 84.25 30.1 84.25 30.85 84.05 31.55 83.7 31.65 81.7 31.5 81.05" fill="#246c41" fill-rule="evenodd" stroke="none"/>
      <path d="M32.1 80.3 Q32.75 79.85 33.35 79.55 L34.25 79.3 Q33.95 78.8 32.8 78.95 L31.25 79.65 Q31.2 80.2 32.1 80.3" fill="#9ae17b" fill-rule="evenodd" stroke="none"/>
      <path d="M31.25 79.65 Q30.35 80.25 29.65 81.2 L29.7 81.5 Q29.85 82.0 30.2 82.1 L30.65 81.6 31.35 80.95 32.1 80.3 Q31.2 80.2 31.25 79.65 M28.95 82.7 L28.95 83.4 Q29.1 83.9 29.4 83.95 L29.4 83.55 28.95 82.7" fill="#75d74a" fill-rule="evenodd" stroke="none"/>
      <path d="M32.95 80.0 Q32.2 80.35 31.5 81.05 L31.65 81.7 31.55 83.7 32.25 83.15 32.35 83.1 32.35 81.75 Q32.5 80.9 32.95 80.0" fill="#206039" fill-rule="evenodd" stroke="none"/>
      <path d="M29.4 83.55 L29.75 82.8 29.95 82.55 Q29.7 81.75 29.05 82.15 L28.95 82.7 29.4 83.55" fill="#339328" fill-rule="evenodd" stroke="none"/>
      <path d="M29.85 84.25 L29.7 84.2 29.6 84.15 Q28.95 83.95 28.8 83.3 28.6 82.55 29.2 81.45 L29.3 81.35 Q30.0 80.25 31.2 79.45 32.45 78.7 33.4 78.75 34.45 78.85 34.65 79.6 L34.65 79.65 34.7 79.85 34.7 80.15 34.4 80.95 32.8 82.75 32.35 83.1 32.25 83.15 31.55 83.7 30.85 84.05 30.1 84.25 30.05 84.25 30.0 84.2 29.85 84.25 30.05 84.25" fill="none" stroke="#000000" stroke-linecap="round" stroke-linejoin="round" stroke-opacity="0.3019608" stroke-width="0.30000000000000004"/>
    </g>
    <g id="shape8" transform="matrix(1.0, 0.0, 0.0, 1.0, -6.3, -53.25)">
      <path d="M7.05 61.6 Q7.5 60.95 8.45 60.5 9.1 60.05 10.1 59.7 L28.6 53.75 Q32.85 52.35 34.75 56.45 L47.65 85.05 Q49.25 88.5 46.5 90.05 45.8 90.65 44.6 91.0 L26.1 97.0 Q23.45 97.8 21.8 96.65 20.65 95.9 19.95 94.25 L7.0 65.6 Q5.85 63.1 7.05 61.6 Z" fill="none" stroke="#ffcc00" stroke-linecap="round" stroke-linejoin="round" stroke-width="0.1"/>
    </g>
    <radialGradient cx="0" cy="0" gradientTransform="matrix(0.0255, 0.0, 0.0, 0.0268, 27.35, 75.35)" gradientUnits="userSpaceOnUse" id="gradient3" r="819.2" spreadMethod="pad">
      <stop offset="0.3568627450980392" stop-color="#ffffff"/>
      <stop offset="0.6705882352941176" stop-color="#000000" stop-opacity="0.0"/>
    </radialGradient>
    <g id="shape10" transform="matrix(1.0, 0.0, 0.0, 1.0, -14.7, -59.4)">
      <path d="M33.85 83.75 L33.85 83.8 33.85 83.95 33.85 84.0 33.85 84.1 33.9 84.1 33.9 84.15 34.35 84.4 34.85 84.75 34.35 84.45 34.1 84.3 34.05 84.25 33.95 84.2 33.9 84.2 33.9 84.7 33.9 85.25 33.85 84.75 33.75 84.2 33.7 84.1 33.5 84.25 33.0 84.55 32.7 84.7 32.95 84.5 33.4 84.3 33.45 84.25 33.5 84.2 33.7 84.1 33.65 84.05 33.7 84.05 33.7 84.0 33.3 83.6 32.95 83.25 33.3 83.55 33.55 83.8 33.7 83.95 33.8 83.4 33.9 82.95 33.85 83.35 33.85 83.75 M34.4 83.9 L34.35 83.9 34.25 84.0 34.15 84.0 33.9 84.05 34.15 83.95 34.7 83.75 35.2 83.65 34.85 83.75 34.95 83.85 34.85 83.75 34.7 83.8 34.4 83.9 M36.75 85.45 L36.9 85.55 36.9 85.5 37.1 83.9 37.35 82.3 37.45 81.75 37.4 82.25 37.4 83.85 37.2 85.6 37.35 86.0 37.4 86.1 38.7 86.9 40.15 87.75 40.55 88.05 40.1 87.8 38.75 87.05 37.75 86.45 37.4 86.25 37.35 86.2 37.4 86.3 37.5 87.75 37.55 89.45 37.6 90.0 37.5 89.5 37.25 87.9 37.05 86.25 37.0 86.3 36.9 85.9 36.7 85.75 36.9 85.85 36.9 85.65 35.7 84.55 34.95 83.85 35.65 84.4 36.45 85.15 36.5 85.2 36.75 85.45 M36.1 86.45 L36.2 86.4 36.85 86.1 36.3 86.45 34.8 87.25 33.35 88.0 32.8 88.25 33.3 88.0 34.65 87.2 35.7 86.65 36.1 86.45 M41.85 84.45 L41.35 84.6 39.85 85.15 38.15 85.7 37.5 85.9 Q37.45 85.85 38.1 85.65 L39.7 85.1 41.3 84.6 41.85 84.45" fill="#fefd8d" fill-opacity="0.972549" fill-rule="evenodd" stroke="none"/>
      <path d="M33.85 83.75 L34.05 83.4 34.25 83.2 34.15 83.4 34.0 83.8 33.9 83.9 33.85 83.8 33.85 83.75 M34.1 84.3 L34.35 84.5 34.45 84.65 34.25 84.5 34.0 84.3 33.95 84.2 34.05 84.25 34.1 84.3 M33.4 84.3 L33.3 84.3 32.95 84.45 32.7 84.55 32.95 84.4 33.35 84.25 33.45 84.25 33.4 84.3 M33.55 83.8 L33.4 83.6 33.6 83.8 33.65 83.9 33.55 83.8 M34.4 83.9 L34.65 83.85 34.95 83.85 35.05 83.8 34.95 83.85 34.7 83.9 34.3 84.0 34.2 84.0 34.25 84.0 34.35 83.9 34.4 83.9 M33.6 84.3 L33.7 84.2 33.75 84.35 33.65 84.7 33.55 85.05 33.55 84.75 33.6 84.3 M37.65 85.15 L37.35 85.5 37.35 85.0 37.9 84.05 38.5 83.1 38.7 82.75 38.55 83.1 38.15 84.05 37.65 85.15 M36.75 85.45 L36.5 85.2 36.45 85.15 35.85 84.4 35.45 83.85 35.95 84.3 36.65 85.15 36.9 85.5 36.75 85.45 M37.4 86.3 L37.35 86.2 37.4 86.25 37.75 86.45 Q38.15 86.7 38.6 87.1 L39.3 87.75 38.5 87.15 37.6 86.5 37.4 86.3 M36.1 86.45 L35.7 86.65 34.7 87.0 33.8 87.3 34.7 86.95 35.75 86.5 36.1 86.45 M38.7 85.65 L38.25 85.7 38.7 85.55 39.75 85.35 40.7 85.2 41.05 85.15 40.75 85.25 39.8 85.45 38.7 85.65 M36.7 86.7 L36.95 86.25 37.0 86.75 36.65 87.8 36.3 88.85 36.15 89.25 36.25 88.85 36.4 87.85 Q36.5 87.1 36.7 86.7" fill="#fffd8f" fill-opacity="0.4" fill-rule="evenodd" stroke="none"/>
      <path d="M38.0 86.75 Q37.9 86.0 37.45 85.8 L36.9 85.85 Q36.75 86.1 36.9 86.5 37.1 87.0 37.65 87.3 L38.35 87.95 38.6 88.25 38.45 87.85 38.0 86.75" fill="#fffd8f" fill-opacity="0.39215687" fill-rule="evenodd" stroke="none"/>
      <path d="M38.0 86.25 L37.05 85.85 Q36.8 85.8 36.95 85.95 L37.55 86.35 38.35 86.6 Q38.8 86.65 39.05 86.85 L39.35 86.95 39.0 86.75 38.0 86.25" fill="#fffd8f" fill-opacity="0.39215687" fill-rule="evenodd" stroke="none"/>
      <path d="M36.4 84.8 Q36.35 85.55 36.75 85.85 L37.3 85.9 37.45 85.25 Q37.35 84.75 36.9 84.35 36.35 83.9 36.3 83.55 L36.1 83.25 36.2 83.65 36.4 84.8" fill="#fffd8f" fill-opacity="0.39215687" fill-rule="evenodd" stroke="none"/>
      <path d="M36.25 85.35 L37.1 85.95 37.2 85.8 36.75 85.3 35.95 84.9 Q35.55 84.75 35.3 84.6 L35.05 84.45 35.35 84.65 36.25 85.35" fill="#fffd8f" fill-opacity="0.39215687" fill-rule="evenodd" stroke="none"/>
      <path d="M38.75 85.2 Q38.0 85.45 37.85 85.65 37.7 85.85 37.85 85.8 L38.5 85.65 39.25 85.2 39.9 84.75 40.15 84.6 39.75 84.75 38.75 85.2" fill="#fffd8f" fill-opacity="0.39215687" fill-rule="evenodd" stroke="none"/>
      <path d="M35.75 87.0 L36.6 86.4 36.5 86.25 Q36.25 86.25 35.9 86.5 L35.25 87.1 34.7 87.65 Q34.4 87.8 34.45 87.85 L34.8 87.6 35.75 87.0" fill="#fffd8f" fill-opacity="0.39215687" fill-rule="evenodd" stroke="none"/>
      <path d="M34.1 84.35 L33.95 84.05 33.75 84.05 Q33.65 84.1 33.7 84.25 L34.0 84.55 34.2 84.75 34.3 84.85 34.2 84.75 34.1 84.35" fill="#fffd8f" fill-opacity="0.39215687" fill-rule="evenodd" stroke="none"/>
      <path d="M34.1 84.2 Q33.9 84.05 33.75 84.05 L33.75 84.1 33.95 84.2 34.2 84.3 34.5 84.4 34.55 84.4 34.45 84.4 34.1 84.2" fill="#fffd8f" fill-opacity="0.39215687" fill-rule="evenodd" stroke="none"/>
      <path d="M33.5 83.65 L33.65 84.05 33.85 84.05 33.9 83.85 33.65 83.55 33.5 83.25 33.45 83.15 33.5 83.25 33.5 83.65" fill="#fffd8f" fill-opacity="0.39215687" fill-rule="evenodd" stroke="none"/>
      <path d="M33.5 83.9 L33.75 84.05 33.8 84.0 33.65 83.85 33.35 83.7 33.2 83.6 33.05 83.55 33.15 83.6 33.5 83.9" fill="#fffd8f" fill-opacity="0.39215687" fill-rule="evenodd" stroke="none"/>
      <path d="M34.3 83.8 L34.05 83.95 34.05 84.0 34.25 83.95 34.55 83.8 Q34.6 83.7 34.7 83.7 L34.8 83.6 34.7 83.65 34.3 83.8" fill="#fffd8f" fill-opacity="0.39215687" fill-rule="evenodd" stroke="none"/>
      <path d="M33.3 84.45 L33.6 84.2 33.6 84.15 Q33.5 84.15 33.4 84.3 L33.15 84.45 32.95 84.65 32.85 84.75 33.0 84.6 33.3 84.45" fill="#fffd8f" fill-opacity="0.39215687" fill-rule="evenodd" stroke="none"/>
      <path d="M36.3 85.35 Q36.05 85.7 36.05 86.15 L36.5 86.9 37.3 87.15 38.05 86.75 38.25 85.9 37.85 85.2 37.05 84.95 36.3 85.35" fill="#ffffff" fill-rule="evenodd" stroke="none"/>
      <path d="M18.75 62.3 L18.65 62.35 18.2 62.45 18.6 62.25 19.85 61.9 21.0 61.5 21.4 61.35 21.05 61.5 19.9 61.9 18.75 62.3 M17.45 61.95 L17.7 62.2 17.75 62.2 17.7 62.15 17.85 61.05 18.05 59.85 18.15 59.4 18.1 59.8 18.05 61.0 18.0 62.25 18.1 62.6 19.15 63.2 20.0 63.75 19.15 63.3 18.5 62.95 18.4 62.85 18.15 62.7 18.1 62.7 18.15 62.75 18.2 63.85 18.2 64.9 18.0 64.0 17.85 62.8 17.8 62.8 17.75 62.45 17.6 62.3 17.7 62.35 17.7 62.3 16.85 61.5 15.9 60.65 15.65 60.35 15.95 60.65 16.8 61.4 17.45 61.95 M14.7 64.25 L15.05 64.05 16.1 63.45 17.25 62.85 17.7 62.65 17.3 62.95 16.2 63.45 15.1 64.05 14.7 64.25" fill="#fefd8d" fill-opacity="0.972549" fill-rule="evenodd" stroke="none"/>
      <path d="M18.75 62.3 L19.1 62.2 19.85 62.05 20.6 61.95 19.85 62.15 19.05 62.3 18.75 62.3 M17.45 61.95 L16.95 61.35 16.5 60.75 17.0 61.3 17.55 61.95 17.7 62.15 17.75 62.2 17.7 62.2 17.45 61.95 M18.5 62.95 L19.0 63.35 19.6 63.8 19.8 64.0 19.6 63.85 18.95 63.4 18.3 62.9 18.15 62.75 18.1 62.7 18.15 62.7 18.4 62.85 18.5 62.95 M18.3 61.9 L18.05 62.2 18.1 61.85 18.45 61.15 18.9 60.4 19.1 60.2 18.95 60.4 18.65 61.15 18.3 61.9 M16.9 62.9 L17.2 62.85 Q17.15 62.9 16.85 63.05 L16.15 63.3 15.45 63.55 15.2 63.6 15.45 63.5 16.1 63.25 Q16.6 63.0 16.9 62.9 M17.55 63.1 L17.75 62.75 17.8 63.1 17.6 63.95 17.25 64.7 17.15 64.95 17.2 64.7 17.4 63.9 Q17.4 63.4 17.55 63.1" fill="#fffd8f" fill-opacity="0.4" fill-rule="evenodd" stroke="none"/>
      <path d="M18.6 63.1 L18.15 62.4 17.7 62.45 17.75 62.95 18.3 63.55 Q18.75 63.8 18.8 64.0 L19.0 64.25 18.85 63.95 18.6 63.1" fill="#fffd8f" fill-opacity="0.39215687" fill-rule="evenodd" stroke="none"/>
      <path d="M18.55 62.7 Q18.05 62.4 17.9 62.4 17.7 62.4 17.8 62.5 L18.25 62.8 18.85 63.0 19.35 63.15 19.6 63.2 19.35 63.1 18.55 62.7" fill="#fffd8f" fill-opacity="0.39215687" fill-rule="evenodd" stroke="none"/>
      <path d="M17.3 61.7 Q17.35 62.3 17.55 62.45 L18.0 62.5 18.1 62.0 17.65 61.35 17.25 60.75 17.15 60.5 17.2 60.8 17.3 61.7" fill="#fffd8f" fill-opacity="0.39215687" fill-rule="evenodd" stroke="none"/>
      <path d="M17.25 62.1 L17.9 62.5 17.95 62.45 17.6 62.05 17.05 61.75 16.55 61.5 16.35 61.4 16.55 61.6 Q16.8 61.7 17.25 62.1" fill="#fffd8f" fill-opacity="0.39215687" fill-rule="evenodd" stroke="none"/>
      <path d="M19.05 61.9 L18.4 62.3 18.45 62.4 18.9 62.3 19.5 61.95 19.95 61.6 20.15 61.5 19.85 61.6 19.05 61.9" fill="#fffd8f" fill-opacity="0.39215687" fill-rule="evenodd" stroke="none"/>
      <path d="M16.9 63.3 L17.5 62.85 17.45 62.7 17.05 62.9 16.5 63.35 16.15 63.75 15.95 63.95 16.2 63.75 16.9 63.3" fill="#fffd8f" fill-opacity="0.39215687" fill-rule="evenodd" stroke="none"/>
      <path d="M17.4 62.1 Q17.15 62.35 17.2 62.65 L17.55 63.25 18.1 63.4 18.7 63.1 18.85 62.5 18.55 61.95 17.9 61.75 17.4 62.1" fill="#ffffff" fill-rule="evenodd" stroke="none"/>
      <path d="M33.55 83.9 L33.45 84.15 33.6 84.45 33.85 84.5 34.15 84.4 34.2 84.05 34.1 83.85 33.75 83.75 33.55 83.9" fill="#ffffff" fill-rule="evenodd" stroke="none"/>
    </g>
  </defs>
</svg>
