<?xml version='1.0' encoding='UTF-8'?>
<svg xmlns:xlink="http://www.w3.org/1999/xlink" xmlns="http://www.w3.org/2000/svg" version="1.1" width="60px" height="60px" viewBox="0.0 0.0 60.0 60.0"><defs><g id="c1"><path fill="#000000" fill-opacity="0.00392156862745" d="M0.0 0.0 L60.0 0.0 60.0 60.0 0.0 60.0 0.0 0.0"/></g><g id="c2"><path fill="none" stroke="#000000" stroke-width="1.0" stroke-opacity="0.301960784314" d="M22.3 0.35 Q26.6 -1.0 28.5 3.05 L41.4 31.7 Q43.1 35.4 39.9 36.85 L38.15 37.65 19.65 43.65 Q17.05 44.5 15.35 43.3 14.2 42.55 13.5 40.9 L0.55 12.25 Q-0.6 9.75 0.6 8.25 1.15 7.55 2.2 7.05 2.85 6.6 3.8 6.3 L22.3 0.35"/><path fill="#300525" stroke="none" d="M25.55 0.9 Q26.9 1.6 27.8 3.55 L40.7 32.15 Q42.6 36.3 38.3 37.65 L23.3 42.5 13.15 21.4 4.6 20.9 0.7 12.25 Q-0.45 9.75 0.75 8.25 L29.8 9.75 25.55 0.9 M20.1 43.55 L19.8 43.65 Q17.15 44.45 15.5 43.3 L20.1 43.55"/><path fill="#630a4c" stroke="none" d="M23.3 42.5 L20.1 43.55 15.5 43.3 Q14.35 42.55 13.65 40.9 L4.6 20.9 13.15 21.4 23.3 42.5 M0.75 8.25 Q1.45 7.3 3.1 6.75 L21.65 0.8 25.55 0.9 29.8 9.75 0.75 8.25"/><path fill="none" stroke="#000000" stroke-width="0.5" stroke-opacity="0.301960784314" d="M25.55 0.9 Q26.9 1.6 27.8 3.55 L40.7 32.15 Q42.6 36.3 38.3 37.65 L23.3 42.5 20.1 43.55 19.8 43.65 Q17.15 44.45 15.5 43.3 14.35 42.55 13.65 40.9 L4.6 20.9 0.7 12.25 Q-0.45 9.75 0.75 8.25 1.45 7.3 3.1 6.75 L21.65 0.8 25.55 0.9"/><path fill="#9d147b" stroke="none" d="M14.2 40.5 L1.35 11.8 Q-0.5 7.75 3.8 6.35 L22.3 0.4 Q26.55 -1.0 28.45 3.1 L41.35 31.7 Q43.25 35.85 38.9 37.25 L20.4 43.2 Q16.1 44.55 14.2 40.5"/><path fill="none" stroke="#000000" stroke-width="0.5" stroke-opacity="0.301960784314" d="M14.2 40.5 L1.35 11.8 Q-0.5 7.75 3.8 6.35 L22.3 0.4 Q26.55 -1.0 28.45 3.1 L41.35 31.7 Q43.25 35.85 38.9 37.25 L20.4 43.2 Q16.1 44.55 14.2 40.5"/><path fill="#fcf2cf" stroke="none" d="M9.15 13.6 Q9.8 12.8 9.55 11.6 L9.1 10.55 22.05 6.35 Q24.9 5.45 26.25 7.85 L26.5 8.3 35.8 29.0 35.95 29.35 Q34.75 29.3 34.1 30.1 33.45 30.9 33.7 32.1 L34.0 32.9 20.65 37.2 Q18.8 37.8 17.65 37.0 16.8 36.4 16.3 35.2 L6.95 14.6 6.8 14.4 7.1 14.4 Q8.4 14.45 9.15 13.6"/><path fill="#c47fad" stroke="none" d="M8.25 23.65 L3.35 12.8 Q1.65 9.1 5.5 7.85 L22.25 2.5 Q26.05 1.25 27.75 4.95 L28.25 6.1 35.55 22.3 39.35 30.75 Q41.1 34.5 37.2 35.7 L20.45 41.1 Q16.8 42.25 15.2 39.0 L15.0 38.6 8.25 23.65 M9.15 13.6 Q8.4 14.45 7.1 14.4 L6.8 14.4 6.95 14.6 16.3 35.2 Q16.8 36.4 17.65 37.0 18.8 37.8 20.65 37.2 L34.0 32.9 33.7 32.1 Q33.45 30.9 34.1 30.1 34.75 29.3 35.95 29.35 L35.8 29.0 26.5 8.3 26.25 7.85 Q24.9 5.45 22.05 6.35 L9.1 10.55 9.55 11.6 Q9.8 12.8 9.15 13.6"/><path fill="none" stroke="#ffcc00" stroke-width="1.0" stroke-opacity="0.749019607843" d="M8.25 23.65 L3.35 12.8 Q1.65 9.1 5.5 7.85 L22.25 2.5 Q26.05 1.25 27.75 4.95 L28.25 6.1 M35.55 22.3 L39.35 30.75 Q41.1 34.5 37.2 35.7 L20.45 41.1 Q16.8 42.25 15.2 39.0 L15.0 38.6"/><path fill="none" stroke="#bf9900" stroke-width="1.0" stroke-opacity="0.749019607843" d="M28.25 6.1 L35.55 22.3 M15.0 38.6 L8.25 23.65"/><path fill="none" stroke="#f0b92b" stroke-width="0.5" d="M9.15 13.6 Q9.8 12.8 9.55 11.6 L9.1 10.55 22.05 6.35 Q24.9 5.45 26.25 7.85 L26.5 8.3 35.8 29.0 35.95 29.35 Q34.75 29.3 34.1 30.1 33.45 30.9 33.7 32.1 L34.0 32.9 20.65 37.2 Q18.8 37.8 17.65 37.0 16.8 36.4 16.3 35.2 L6.95 14.6 6.8 14.4 7.1 14.4 Q8.4 14.45 9.15 13.6"/></g><g id="c3"><path fill="#7fdbfe" stroke="none" d="M10.75 4.9 Q10.75 4.6 10.9 4.35 11.25 3.45 11.95 2.75 13.3 1.5 14.35 2.1 15.4 2.7 14.95 4.45 14.7 5.4 14.1 6.15 L13.75 6.5 Q13.1 7.15 12.35 7.35 L11.4 7.2 Q10.95 6.9 10.75 6.4 10.5 5.75 10.75 4.9 M7.5 5.9 Q7.0 5.85 6.6 5.5 6.05 5.0 5.8 4.15 L5.7 3.6 Q5.55 2.65 5.8 1.7 6.25 0.0 7.5 0.0 L7.6 0.0 Q8.85 0.0 9.3 1.7 9.55 2.65 9.4 3.6 L9.3 4.15 8.5 5.5 7.6 5.9 7.5 5.9 M4.35 4.9 Q4.6 5.75 4.35 6.4 L3.7 7.2 2.75 7.35 Q2.0 7.15 1.35 6.5 L1.0 6.15 Q0.4 5.4 0.15 4.45 -0.3 2.7 0.75 2.1 1.8 1.5 3.15 2.75 3.85 3.45 4.2 4.35 L4.35 4.9 M5.5 13.7 Q4.45 13.9 3.65 12.95 2.75 12.0 3.2 10.25 3.7 8.5 5.25 7.6 6.4 6.9 7.55 7.0 8.75 6.9 9.9 7.6 11.45 8.5 11.95 10.25 12.35 12.0 11.5 12.95 10.7 13.9 9.65 13.7 8.55 13.5 7.55 12.6 6.55 13.5 5.5 13.7"/></g><g id="c4"><g><use transform="matrix(1.0,0.0,0.0,1.0,0.0,0.0)" xlink:href="#c3"/></g></g><radialGradient gradientUnits="userSpaceOnUse" r="819.2" cx="0" cy="0" spreadMethod="pad" gradientTransform="matrix(0.0914459228516,0.0,0.0,0.0914459228516,0.6,3.4)" id="gradient1"><stop offset="0.0" stop-color="#ffffff"/><stop offset="1.0" stop-color="#ffffff" stop-opacity="0.0"/></radialGradient><g id="c5"><path stroke="none" fill="url(#gradient1)" d="M36.65 -54.65 Q60.05 -42.0 69.75 -17.95 80.55 8.9 68.0 34.1 55.45 59.35 26.8 68.2 -1.8 77.05 -29.7 64.3 -57.6 51.6 -68.45 24.75 -79.3 -2.05 -66.75 -27.25 L-66.7 -27.3 Q-54.1 -52.5 -25.5 -61.4 3.1 -70.2 31.0 -57.5 L36.65 -54.65"/></g><g id="c6"><g><use transform="matrix(1.0,0.0,0.0,1.0,0.0,0.0)" xlink:href="#c5"/></g></g><radialGradient gradientUnits="userSpaceOnUse" r="819.2" cx="0" cy="0" spreadMethod="pad" gradientTransform="matrix(0.209197998047,0.0,0.0,0.177108764648,67.15,107.2)" id="gradient2"><stop offset="0.356862745098" stop-color="#ffffff"/><stop offset="0.670588235294" stop-opacity="0.0"/></radialGradient><g id="c7"><path fill="none" stroke-linejoin="round" stroke-linecap="round" stroke="url(#gradient2)" stroke-width="0.5" d="M136.55 165.8 L68.6 106.0 68.4 106.0 118.25 201.5 M68.2 105.7 L68.25 105.8 68.25 105.75 68.2 105.7 0.0 45.7 M68.25 105.8 L68.3 105.85 68.3 105.8 68.25 105.75 49.95 0.05 M0.05 97.7 L68.15 105.95 68.25 105.85 68.25 105.8 M68.3 105.85 L68.25 105.85 68.3 106.0 68.3 105.85 68.3 105.8 68.35 105.8 68.3 105.8 86.6 18.35 M50.0 193.2 L68.3 106.0 68.15 105.95 18.25 151.55 M68.4 106.0 L68.3 106.0 86.55 211.5 M68.4 106.0 L68.3 105.85 M68.6 106.0 L68.35 105.8 118.25 60.15 M136.6 114.25 L68.6 106.0 M68.2 105.7 L18.25 10.05"/></g><g id="c8"><g><use transform="matrix(1.0,0.0,0.0,1.0,0.0,0.0)" xlink:href="#c7"/></g></g><linearGradient gradientUnits="userSpaceOnUse" x1="-819.2" x2="819.2" spreadMethod="pad" gradientTransform="matrix(-0.00469970703125,0.00370788574219,0.00242614746094,0.00244140625,10.35,11.65)" id="gradient3"><stop offset="0.0" stop-color="#ffff99" stop-opacity="0.4"/><stop offset="1.0" stop-color="#ffff99" stop-opacity="0.0"/></linearGradient><linearGradient gradientUnits="userSpaceOnUse" x1="-819.2" x2="819.2" spreadMethod="pad" gradientTransform="matrix(-0.00469970703125,0.00370788574219,0.00242614746094,0.00244140625,11.5,12.0)" id="gradient4"><stop offset="0.0" stop-color="#ffff99" stop-opacity="0.4"/><stop offset="1.0" stop-color="#ffff99" stop-opacity="0.0"/></linearGradient><linearGradient gradientUnits="userSpaceOnUse" x1="-819.2" x2="819.2" spreadMethod="pad" gradientTransform="matrix(-0.00469970703125,0.00370788574219,0.00242614746094,0.00244140625,10.35,11.65)" id="gradient5"><stop offset="0.0" stop-color="#ffff99" stop-opacity="0.752941176471"/><stop offset="1.0" stop-color="#ffff99" stop-opacity="0.0"/></linearGradient><linearGradient gradientUnits="userSpaceOnUse" x1="-819.2" x2="819.2" spreadMethod="pad" gradientTransform="matrix(-0.00469970703125,0.00370788574219,0.00242614746094,0.00244140625,10.05,11.1)" id="gradient6"><stop offset="0.0" stop-color="#ffff99" stop-opacity="0.4"/><stop offset="1.0" stop-color="#ffff99" stop-opacity="0.0"/></linearGradient><linearGradient gradientUnits="userSpaceOnUse" x1="-819.2" x2="819.2" spreadMethod="pad" gradientTransform="matrix(-0.00469970703125,0.00370788574219,0.00242614746094,0.00244140625,7.5,12.9)" id="gradient7"><stop offset="0.0" stop-color="#ffff99" stop-opacity="0.752941176471"/><stop offset="1.0" stop-color="#ffff99" stop-opacity="0.0"/></linearGradient><linearGradient gradientUnits="userSpaceOnUse" x1="-819.2" x2="819.2" spreadMethod="pad" gradientTransform="matrix(-0.00469970703125,0.00370788574219,0.00242614746094,0.00244140625,7.5,12.9)" id="gradient8"><stop offset="0.0" stop-color="#ffff99" stop-opacity="0.4"/><stop offset="1.0" stop-color="#ffff99" stop-opacity="0.0"/></linearGradient><linearGradient gradientUnits="userSpaceOnUse" x1="-819.2" x2="819.2" spreadMethod="pad" gradientTransform="matrix(-0.00469970703125,0.00370788574219,0.00242614746094,0.00244140625,7.7,11.7)" id="gradient9"><stop offset="0.0" stop-color="#ffff99" stop-opacity="0.4"/><stop offset="1.0" stop-color="#ffff99" stop-opacity="0.0"/></linearGradient><linearGradient gradientUnits="userSpaceOnUse" x1="-819.2" x2="819.2" spreadMethod="pad" gradientTransform="matrix(-0.00469970703125,0.00370788574219,0.00242614746094,0.00244140625,3.5,9.9)" id="gradient10"><stop offset="0.0" stop-color="#ffff99" stop-opacity="0.43137254902"/><stop offset="1.0" stop-color="#ffff99" stop-opacity="0.0"/></linearGradient><linearGradient gradientUnits="userSpaceOnUse" x1="-819.2" x2="819.2" spreadMethod="pad" gradientTransform="matrix(-0.00469970703125,0.00370788574219,0.00242614746094,0.00244140625,6.35,8.65)" id="gradient11"><stop offset="0.0" stop-color="#ffff99" stop-opacity="0.2"/><stop offset="1.0" stop-color="#ffff99" stop-opacity="0.0"/></linearGradient><linearGradient gradientUnits="userSpaceOnUse" x1="-819.2" x2="819.2" spreadMethod="pad" gradientTransform="matrix(-0.00469970703125,0.00370788574219,0.00242614746094,0.00244140625,7.5,12.9)" id="gradient12"><stop offset="0.0" stop-color="#ffff99" stop-opacity="0.2"/><stop offset="1.0" stop-color="#ffff99" stop-opacity="0.0"/></linearGradient><linearGradient gradientUnits="userSpaceOnUse" x1="-819.2" x2="819.2" spreadMethod="pad" gradientTransform="matrix(-0.00469970703125,0.00370788574219,0.00242614746094,0.00244140625,10.35,11.65)" id="gradient13"><stop offset="0.0" stop-color="#ffff99" stop-opacity="0.2"/><stop offset="1.0" stop-color="#ffff99" stop-opacity="0.0"/></linearGradient><linearGradient gradientUnits="userSpaceOnUse" x1="-819.2" x2="819.2" spreadMethod="pad" gradientTransform="matrix(-0.00605773925781,0.00498962402344,0.003173828125,0.00341796875,12.2,21.5)" id="gradient14"><stop offset="0.0" stop-color="#ffff99" stop-opacity="0.752941176471"/><stop offset="1.0" stop-color="#ffff99" stop-opacity="0.0"/></linearGradient><linearGradient gradientUnits="userSpaceOnUse" x1="-819.2" x2="819.2" spreadMethod="pad" gradientTransform="matrix(-0.00605773925781,0.00498962402344,0.003173828125,0.00341796875,12.2,21.5)" id="gradient15"><stop offset="0.0" stop-color="#ffff99" stop-opacity="0.4"/><stop offset="1.0" stop-color="#ffff99" stop-opacity="0.0"/></linearGradient><linearGradient gradientUnits="userSpaceOnUse" x1="-819.2" x2="819.2" spreadMethod="pad" gradientTransform="matrix(-0.00605773925781,0.00498962402344,0.003173828125,0.00341796875,15.85,19.9)" id="gradient16"><stop offset="0.0" stop-color="#ffff99" stop-opacity="0.4"/><stop offset="1.0" stop-color="#ffff99" stop-opacity="0.0"/></linearGradient><linearGradient gradientUnits="userSpaceOnUse" x1="-819.2" x2="819.2" spreadMethod="pad" gradientTransform="matrix(-0.00605773925781,0.00498962402344,0.003173828125,0.00341796875,15.85,19.9)" id="gradient17"><stop offset="0.0" stop-color="#ffff99" stop-opacity="0.752941176471"/><stop offset="1.0" stop-color="#ffff99" stop-opacity="0.0"/></linearGradient><linearGradient gradientUnits="userSpaceOnUse" x1="-819.2" x2="819.2" spreadMethod="pad" gradientTransform="matrix(-0.00605773925781,0.00498962402344,0.003173828125,0.00341796875,7.1,17.4)" id="gradient18"><stop offset="0.0" stop-color="#ffff99" stop-opacity="0.43137254902"/><stop offset="1.0" stop-color="#ffff99" stop-opacity="0.0"/></linearGradient><linearGradient gradientUnits="userSpaceOnUse" x1="-819.2" x2="819.2" spreadMethod="pad" gradientTransform="matrix(-0.00605773925781,0.00498962402344,0.003173828125,0.00341796875,10.75,15.8)" id="gradient19"><stop offset="0.0" stop-color="#ffff99" stop-opacity="0.2"/><stop offset="1.0" stop-color="#ffff99" stop-opacity="0.0"/></linearGradient><linearGradient gradientUnits="userSpaceOnUse" x1="-819.2" x2="819.2" spreadMethod="pad" gradientTransform="matrix(-0.00605773925781,0.00498962402344,0.003173828125,0.00341796875,12.2,21.5)" id="gradient20"><stop offset="0.0" stop-color="#ffff99" stop-opacity="0.2"/><stop offset="1.0" stop-color="#ffff99" stop-opacity="0.0"/></linearGradient><linearGradient gradientUnits="userSpaceOnUse" x1="-819.2" x2="819.2" spreadMethod="pad" gradientTransform="matrix(-0.00605773925781,0.00498962402344,0.003173828125,0.00341796875,12.5,20.0)" id="gradient21"><stop offset="0.0" stop-color="#ffff99" stop-opacity="0.4"/><stop offset="1.0" stop-color="#ffff99" stop-opacity="0.0"/></linearGradient><linearGradient gradientUnits="userSpaceOnUse" x1="-819.2" x2="819.2" spreadMethod="pad" gradientTransform="matrix(-0.00605773925781,0.00498962402344,0.003173828125,0.00341796875,15.45,19.15)" id="gradient22"><stop offset="0.0" stop-color="#ffff99" stop-opacity="0.4"/><stop offset="1.0" stop-color="#ffff99" stop-opacity="0.0"/></linearGradient><linearGradient gradientUnits="userSpaceOnUse" x1="-819.2" x2="819.2" spreadMethod="pad" gradientTransform="matrix(-0.00605773925781,0.00498962402344,0.003173828125,0.00341796875,15.85,19.9)" id="gradient23"><stop offset="0.0" stop-color="#ffff99" stop-opacity="0.2"/><stop offset="1.0" stop-color="#ffff99" stop-opacity="0.0"/></linearGradient><linearGradient gradientUnits="userSpaceOnUse" x1="-819.2" x2="819.2" spreadMethod="pad" gradientTransform="matrix(-0.00605773925781,0.00498962402344,0.003173828125,0.00341796875,17.45,20.4)" id="gradient24"><stop offset="0.0" stop-color="#ffff99" stop-opacity="0.4"/><stop offset="1.0" stop-color="#ffff99" stop-opacity="0.0"/></linearGradient><linearGradient gradientUnits="userSpaceOnUse" x1="-819.2" x2="819.2" spreadMethod="pad" gradientTransform="matrix(-0.00791931152344,0.00473022460938,0.00308227539062,0.00286865234375,13.05,26.95)" id="gradient25"><stop offset="0.0" stop-color="#ffff99" stop-opacity="0.43137254902"/><stop offset="1.0" stop-color="#ffff99" stop-opacity="0.0"/></linearGradient><linearGradient gradientUnits="userSpaceOnUse" x1="-819.2" x2="819.2" spreadMethod="pad" gradientTransform="matrix(-0.00791931152344,0.00473022460938,0.00308227539062,0.00286865234375,18.4,30.35)" id="gradient26"><stop offset="0.0" stop-color="#ffff99" stop-opacity="0.2"/><stop offset="1.0" stop-color="#ffff99" stop-opacity="0.0"/></linearGradient><linearGradient gradientUnits="userSpaceOnUse" x1="-819.2" x2="819.2" spreadMethod="pad" gradientTransform="matrix(-0.00791931152344,0.00473022460938,0.00308227539062,0.00286865234375,22.9,28.75)" id="gradient27"><stop offset="0.0" stop-color="#ffff99" stop-opacity="0.4"/><stop offset="1.0" stop-color="#ffff99" stop-opacity="0.0"/></linearGradient><linearGradient gradientUnits="userSpaceOnUse" x1="-819.2" x2="819.2" spreadMethod="pad" gradientTransform="matrix(-0.00791931152344,0.00473022460938,0.00308227539062,0.00286865234375,22.9,28.75)" id="gradient28"><stop offset="0.0" stop-color="#ffff99" stop-opacity="0.752941176471"/><stop offset="1.0" stop-color="#ffff99" stop-opacity="0.0"/></linearGradient><linearGradient gradientUnits="userSpaceOnUse" x1="-819.2" x2="819.2" spreadMethod="pad" gradientTransform="matrix(-0.00791931152344,0.00473022460938,0.00308227539062,0.00286865234375,18.4,30.35)" id="gradient29"><stop offset="0.0" stop-color="#ffff99" stop-opacity="0.752941176471"/><stop offset="1.0" stop-color="#ffff99" stop-opacity="0.0"/></linearGradient><linearGradient gradientUnits="userSpaceOnUse" x1="-819.2" x2="819.2" spreadMethod="pad" gradientTransform="matrix(-0.00791931152344,0.00473022460938,0.00308227539062,0.00286865234375,18.4,30.35)" id="gradient30"><stop offset="0.0" stop-color="#ffff99" stop-opacity="0.4"/><stop offset="1.0" stop-color="#ffff99" stop-opacity="0.0"/></linearGradient><linearGradient gradientUnits="userSpaceOnUse" x1="-819.2" x2="819.2" spreadMethod="pad" gradientTransform="matrix(-0.00791931152344,0.00473022460938,0.00308227539062,0.00286865234375,18.95,28.95)" id="gradient31"><stop offset="0.0" stop-color="#ffff99" stop-opacity="0.4"/><stop offset="1.0" stop-color="#ffff99" stop-opacity="0.0"/></linearGradient><linearGradient gradientUnits="userSpaceOnUse" x1="-819.2" x2="819.2" spreadMethod="pad" gradientTransform="matrix(-0.00791931152344,0.00473022460938,0.00308227539062,0.00286865234375,22.55,28.0)" id="gradient32"><stop offset="0.0" stop-color="#ffff99" stop-opacity="0.4"/><stop offset="1.0" stop-color="#ffff99" stop-opacity="0.0"/></linearGradient><linearGradient gradientUnits="userSpaceOnUse" x1="-819.2" x2="819.2" spreadMethod="pad" gradientTransform="matrix(-0.00791931152344,0.00473022460938,0.00308227539062,0.00286865234375,17.65,25.25)" id="gradient33"><stop offset="0.0" stop-color="#ffff99" stop-opacity="0.2"/><stop offset="1.0" stop-color="#ffff99" stop-opacity="0.0"/></linearGradient><linearGradient gradientUnits="userSpaceOnUse" x1="-819.2" x2="819.2" spreadMethod="pad" gradientTransform="matrix(-0.00791931152344,0.00473022460938,0.00308227539062,0.00286865234375,22.9,28.75)" id="gradient34"><stop offset="0.0" stop-color="#ffff99" stop-opacity="0.2"/><stop offset="1.0" stop-color="#ffff99" stop-opacity="0.0"/></linearGradient><linearGradient gradientUnits="userSpaceOnUse" x1="-819.2" x2="819.2" spreadMethod="pad" gradientTransform="matrix(-0.00791931152344,0.00473022460938,0.00308227539062,0.00286865234375,24.7,29.1)" id="gradient35"><stop offset="0.0" stop-color="#ffff99" stop-opacity="0.4"/><stop offset="1.0" stop-color="#ffff99" stop-opacity="0.0"/></linearGradient><g id="c9"><path fill="#f29835" stroke="none" d="M41.15 38.05 L34.8 38.05 Q27.05 33.2 23.35 32.75 L20.95 32.25 Q20.1 29.2 16.7 22.4 12.0 16.75 9.5 14.35 11.5 12.2 17.85 10.9 5.0 9.85 2.9 6.9 L2.5 5.6 2.5 5.55 2.5 5.45 2.4 5.35 2.35 5.2 2.35 5.05 2.25 4.95 2.25 4.85 2.25 4.8 2.2 4.8 1.9 3.9 1.4 1.1 1.4 1.05 Q1.65 0.5 2.25 0.15 3.55 -0.75 11.6 4.6 L15.85 8.45 17.95 10.9 21.55 14.4 Q23.75 16.25 25.45 18.55 27.5 21.5 30.2 24.0 L30.3 24.2 31.3 24.2 Q32.05 24.2 33.7 25.45 35.0 26.6 41.15 38.05"/><path fill="#995810" stroke="none" d="M41.15 38.05 L41.35 38.45 Q41.8 39.35 41.35 39.9 41.0 40.35 39.75 40.3 L28.6 39.9 26.0 39.6 Q23.05 39.35 19.65 38.25 16.3 37.35 13.55 33.75 L13.45 33.65 12.6 32.75 Q8.75 28.6 6.2 23.45 L1.7 14.35 1.1 12.15 0.8 8.95 Q0.55 7.25 1.35 1.9 L1.35 1.65 1.4 1.2 1.4 1.1 1.4 1.05 1.4 1.1 1.9 3.9 2.2 4.8 2.25 4.8 2.25 4.85 2.25 4.95 2.35 5.05 2.35 5.2 2.4 5.35 2.45 5.55 2.5 5.55 2.5 5.6 2.9 6.9 Q6.5 17.5 9.6 23.25 L9.65 23.3 Q15.75 34.2 20.15 36.05 24.6 37.95 29.6 38.15 L34.8 38.05 41.15 38.05"/><path fill="#c77d2b" stroke="none" d="M34.8 38.05 L29.6 38.15 Q24.6 37.95 20.15 36.05 15.75 34.2 9.65 23.3 L9.6 23.25 Q6.5 17.5 2.9 6.9 5.0 9.85 17.85 10.9 11.5 12.2 9.5 14.35 12.0 16.75 16.7 22.4 20.1 29.2 20.95 32.25 L23.35 32.75 Q27.05 33.2 34.8 38.05"/><path fill="none" stroke="#000000" stroke-width="0.5" stroke-opacity="0.301960784314" d="M1.4 1.05 L1.4 1.1 1.4 1.2 1.35 1.65 1.35 1.9 Q0.55 7.25 0.8 8.95 L1.1 12.15 1.7 14.35 6.2 23.45 Q8.75 28.6 12.6 32.75 L13.45 33.65 13.55 33.75 Q16.3 37.35 19.65 38.25 23.05 39.35 26.0 39.6 L28.6 39.9 39.75 40.3 Q41.0 40.35 41.35 39.9 41.8 39.35 41.35 38.45 L41.15 38.05 M1.4 1.05 Q1.65 0.5 2.25 0.15 3.55 -0.75 11.6 4.6 L15.85 8.45 17.95 10.9 21.55 14.4 Q23.75 16.25 25.45 18.55 27.5 21.5 30.2 24.0 L30.3 24.2 31.3 24.2 Q32.05 24.2 33.7 25.45 35.0 26.6 41.15 38.05"/><path fill="none" stroke="#000000" stroke-width="1.5" stroke-opacity="0.301960784314" d="M2.35 5.05 L2.25 4.95 2.25 4.85 2.25 4.8 2.2 4.8 1.9 3.9"/><path fill="none" stroke="#000000" stroke-width="1.5" stroke-opacity="0.0901960784314" d="M2.9 6.9 L2.5 5.6"/><path fill="#cc802c" stroke="none" d="M4.55 8.55 Q6.9 7.3 8.7 6.6 L9.1 6.35 9.9 6.1 11.0 5.75 10.35 6.35 Q7.85 6.9 4.55 8.55 M12.65 5.5 L14.35 5.5 14.3 6.5 13.85 6.1 Q13.0 5.95 12.0 6.1 L12.65 5.5"/><path fill="#f29835" stroke="none" d="M11.0 5.75 L9.9 6.1 9.1 6.35 8.7 6.6 Q6.9 7.3 4.55 8.55 5.2 6.2 11.75 4.7 12.45 5.2 14.4 5.5 L14.35 5.5 12.65 5.5 11.15 5.5 11.0 5.75 M4.55 8.55 L9.65 7.8 10.4 7.45 14.95 7.25 15.8 7.3 Q16.65 7.6 17.75 10.45 10.75 10.7 4.55 8.55 M10.6 9.1 L9.25 8.55 9.65 7.8 9.25 8.55 10.6 9.1 M8.35 6.0 L9.1 6.35 8.35 6.0"/><path fill="#9e6322" stroke="none" d="M10.35 6.35 L11.0 5.75 11.15 5.5 12.65 5.5 12.0 6.1 10.35 6.35"/><path fill="#f2bc35" stroke="none" d="M4.55 8.55 Q7.85 6.9 10.35 6.35 L12.0 6.1 Q13.0 5.95 13.85 6.1 L14.3 6.5 14.95 7.25 10.4 7.45 9.65 7.8 4.55 8.55"/><path fill="none" stroke="#000000" stroke-width="0.5" stroke-opacity="0.301960784314" d="M11.0 5.75 L9.9 6.1 9.1 6.35 8.7 6.6 Q6.9 7.3 4.55 8.55 L9.65 7.8 10.4 7.45 14.95 7.25 14.3 6.5 13.85 6.1 M10.35 6.35 L11.0 5.75 11.15 5.5 12.65 5.5 14.35 5.5 14.4 5.5 Q12.45 5.2 11.75 4.7 M9.1 6.35 L8.35 6.0 M9.65 7.8 L9.25 8.55 10.6 9.1 M12.0 6.1 L12.65 5.5 M17.75 10.45 Q16.65 7.6 15.8 7.3 L14.95 7.25 M14.3 6.5 L14.35 5.5"/><path fill="none" stroke="#000000" stroke-width="0.5" stroke-opacity="0.101960784314" d="M14.05 6.45 L10.5 6.6"/><path fill="none" stroke="#000000" stroke-width="0.5" stroke-opacity="0.101960784314" d="M14.7 7.15 L11.15 7.3"/><path fill="none" stroke="#000000" stroke-width="0.5" stroke-opacity="0.101960784314" d="M5.85 8.3 L10.45 6.95"/><path stroke="none" fill="url(#gradient3)" d="M17.45 10.05 L17.3 9.8 17.05 9.8 15.75 8.9 16.95 8.95 17.2 9.35 17.25 9.4 17.7 10.25 17.45 10.05 M15.15 7.05 L15.05 7.05 14.7 7.1 15.1 7.1 15.15 7.1 15.15 7.25 15.1 7.35 15.1 7.65 15.1 7.7 13.75 7.25 13.8 7.2 13.6 7.2 14.3 7.05 15.2 7.0 15.15 7.05 M15.45 8.9 L12.75 9.65 12.5 8.95 12.7 8.9 13.6 9.1 15.45 8.9 M13.2 10.7 Q13.8 11.35 13.45 11.4 L13.4 11.4 13.5 11.3 13.2 10.7 M10.85 7.3 L11.0 7.3 11.0 7.4 11.15 7.6 10.85 7.45 10.8 7.35 10.85 7.3 M12.4 8.9 L12.1 8.55 13.05 8.85 13.6 8.9 13.25 8.9 12.4 8.9 M11.6 8.1 L11.55 8.05 11.25 7.6 11.5 7.7 11.6 7.75 Q11.5 7.9 11.55 8.0 L11.55 8.05 11.7 8.2 11.6 8.1"/><path stroke="none" fill="url(#gradient4)" d="M17.05 9.8 L17.3 9.8 17.45 10.05 17.6 10.45 17.5 10.5 17.0 10.45 Q16.6 9.6 17.05 9.8"/><path stroke="none" fill="url(#gradient5)" d="M16.95 8.95 L15.75 8.9 15.65 8.85 15.45 8.9 13.6 9.1 12.7 8.9 12.5 8.95 12.4 8.9 13.25 8.9 13.6 8.9 13.05 8.85 12.1 8.55 11.7 8.2 11.55 8.05 11.55 8.0 Q11.5 7.9 11.6 7.75 L11.5 7.7 11.25 7.6 11.55 8.05 10.85 7.45 11.15 7.6 11.0 7.4 11.0 7.3 11.1 7.3 11.35 7.3 11.6 7.3 11.7 7.25 13.6 7.2 13.8 7.2 13.75 7.25 15.1 7.7 15.1 7.65 15.1 7.35 15.15 7.25 15.15 7.1 16.0 7.35 16.45 8.1 17.0 8.95 16.95 8.95 M15.15 7.05 L15.2 7.0 Q16.2 6.95 15.15 7.05 M10.7 7.3 L10.85 7.3 10.8 7.35 10.7 7.3"/><path stroke="none" fill="url(#gradient6)" d="M15.75 8.9 L16.0 9.5 13.8 10.55 14.25 9.45 15.75 8.9"/><path stroke="none" fill="url(#gradient7)" d="M10.5 7.3 L10.7 7.3 10.8 7.35 10.85 7.45 11.55 8.05 11.6 8.1 11.6 8.15 11.7 8.2 12.1 8.55 11.75 8.3 12.2 8.9 12.4 8.9 12.5 8.95 11.65 9.3 10.6 8.9 10.5 8.85 10.5 7.3"/><path stroke="none" fill="url(#gradient8)" d="M12.75 9.65 L12.2 9.65 12.05 10.1 11.9 10.15 11.5 11.25 11.7 11.1 11.65 11.25 11.85 11.2 Q13.2 10.6 13.2 10.7 L13.5 11.3 13.4 11.4 11.8 11.3 11.65 11.25 11.5 11.25 7.85 11.35 8.35 9.0 9.3 8.55 9.35 9.2 10.3 10.15 10.0 8.7 10.5 7.3 10.5 8.85 10.6 8.9 11.65 9.3 12.5 8.95 12.75 9.65 M12.1 8.55 L12.4 8.9 12.2 8.9 11.75 8.3 12.1 8.55 M11.7 8.2 L11.6 8.15 11.6 8.1 11.7 8.2"/><path stroke="none" fill="url(#gradient9)" d="M12.05 10.1 L13.45 9.6 13.75 10.2 13.6 10.25 11.7 11.1 11.5 11.25 11.9 10.15 12.05 10.1"/><path stroke="none" fill="url(#gradient10)" d="M8.35 9.0 L9.25 8.4 9.35 8.5 9.3 8.55 8.35 9.0 M9.2 7.7 L9.25 7.7 Q9.1 7.8 8.7 8.65 L7.3 9.1 5.4 8.15 9.2 7.7"/><path stroke="none" fill="url(#gradient11)" d="M9.4 8.45 L9.45 8.4 9.6 8.5 9.35 8.45 9.4 8.45"/><path stroke="none" fill="url(#gradient12)" d="M12.2 12.55 L11.25 13.5 9.0 13.8 7.75 11.7 7.85 11.35 11.5 11.25 11.65 11.25 11.8 11.3 13.4 11.4 12.2 12.55"/><path stroke="none" fill="url(#gradient13)" d="M13.45 11.4 L14.1 12.3 12.2 12.55 13.4 11.4 13.45 11.4"/><path fill="#cc802c" stroke="none" d="M21.15 11.9 L21.2 11.9 21.15 13.25 20.5 12.65 18.1 12.55 18.95 11.85 21.15 11.9 M16.85 12.15 L16.0 12.95 Q12.8 13.6 8.55 15.7 11.55 14.1 13.9 13.25 L14.4 12.9 15.4 12.45 16.85 12.15"/><path fill="#f2bc35" stroke="none" d="M18.1 12.55 L20.5 12.65 21.15 13.25 21.8 14.1 16.15 14.4 15.1 14.8 8.55 15.7 Q12.8 13.6 16.0 12.95 L18.1 12.55"/><path fill="#f29835" stroke="none" d="M21.15 11.9 L18.95 11.85 17.05 11.75 16.85 12.1 16.85 12.15 15.4 12.45 14.4 12.9 13.9 13.25 Q11.55 14.1 8.55 15.7 9.4 12.65 17.75 10.7 L17.8 10.7 Q18.7 11.45 21.15 11.9 M21.8 14.1 L23.0 14.2 Q24.05 14.7 25.6 18.65 16.6 18.85 8.55 15.7 L15.1 14.8 16.15 14.4 21.8 14.1 M13.45 12.4 L14.4 12.9 13.45 12.4 M16.4 16.6 L14.6 15.85 15.1 14.8 14.6 15.85 16.4 16.6"/><path fill="#9e6322" stroke="none" d="M18.95 11.85 L18.1 12.55 16.0 12.95 16.85 12.15 16.85 12.1 17.05 11.75 18.95 11.85"/><path fill="none" stroke="#000000" stroke-width="0.5" stroke-opacity="0.301960784314" d="M21.15 13.25 L21.2 11.9 21.15 11.9 18.95 11.85 18.1 12.55 M20.5 12.65 L21.15 13.25 21.8 14.1 23.0 14.2 Q24.05 14.7 25.6 18.65 M17.8 10.7 Q18.7 11.45 21.15 11.9 M18.95 11.85 L17.05 11.75 16.85 12.1 16.85 12.15 16.0 12.95 M8.55 15.7 L15.1 14.8 16.15 14.4 21.8 14.1 M16.85 12.15 L15.4 12.45 14.4 12.9 13.9 13.25 Q11.55 14.1 8.55 15.7 M15.1 14.8 L14.6 15.85 16.4 16.6 M14.4 12.9 L13.45 12.4"/><path fill="none" stroke="#000000" stroke-width="0.5" stroke-opacity="0.101960784314" d="M20.7 13.1 L16.15 13.25"/><path fill="none" stroke="#000000" stroke-width="0.5" stroke-opacity="0.101960784314" d="M21.6 14.05 L17.0 14.15"/><path fill="none" stroke="#000000" stroke-width="0.5" stroke-opacity="0.101960784314" d="M10.15 15.45 L16.1 13.7"/><path stroke="none" fill="url(#gradient14)" d="M16.35 14.25 L16.35 14.2 15.9 14.2 15.9 16.3 16.05 16.35 17.35 17.0 18.5 16.5 18.35 16.4 18.1 16.45 17.55 15.7 17.9 15.95 17.45 15.5 17.3 15.45 17.3 15.4 17.3 15.3 16.35 14.4 16.25 14.4 16.3 14.3 16.25 14.25 16.35 14.25 M16.6 14.25 L16.7 14.25 17.15 14.25 17.35 14.25 17.15 14.25 16.6 14.25"/><path stroke="none" fill="url(#gradient15)" d="M16.35 14.2 L16.35 14.25 16.6 14.25 16.35 14.2 M16.3 14.3 L16.25 14.4 16.35 14.4 16.3 14.3 M17.3 15.3 L17.3 15.4 17.3 15.45 17.45 15.5 17.3 15.3 M17.9 15.95 L17.55 15.7 18.1 16.45 18.35 16.4 17.9 15.95 M18.5 16.5 L17.35 17.0 16.05 16.35 15.9 16.3 15.9 14.2 15.9 14.25 15.35 16.15 15.7 18.05 14.45 16.8 14.35 15.85 14.35 15.75 14.35 15.85 13.15 16.5 12.5 19.65 Q15.1 19.45 17.45 19.6 L17.55 19.45 17.2 19.55 17.75 18.15 17.9 18.1 18.1 17.35 18.9 17.5 18.5 16.5 M19.4 18.85 Q19.35 18.75 17.65 19.55 L17.45 19.6 17.6 19.65 19.65 19.85 19.75 19.75 19.4 18.85"/><path stroke="none" fill="url(#gradient16)" d="M16.6 14.25 L16.35 14.25 16.3 14.3 16.35 14.4 16.8 14.65 17.25 15.3 17.3 15.3 17.45 15.5 17.5 15.45 17.25 15.3 17.3 15.25 17.35 14.85 17.2 14.85 16.8 14.65 16.55 14.35 16.6 14.25 M20.0 14.1 L20.15 14.15 20.15 14.25 Q21.15 14.35 21.85 14.85 L21.9 14.85 21.85 14.45 21.9 14.3 21.9 14.1 21.85 14.1 21.35 14.1 Q19.7 14.2 21.75 14.05 L21.95 14.0 20.9 14.05 20.0 14.1 M24.25 16.65 L22.7 16.5 24.4 17.8 24.7 17.75 24.85 18.15 25.2 18.4 24.55 17.25 24.55 17.2 24.25 16.65 M22.25 16.5 L19.95 16.8 18.8 16.5 18.5 16.5 18.9 17.5 22.25 16.5 M19.8 19.85 Q20.15 19.8 19.4 18.85 L19.75 19.75 19.65 19.85 19.8 19.85 M18.35 16.4 L19.45 16.45 19.9 16.45 19.2 16.35 17.9 15.95 18.35 16.4"/><path stroke="none" fill="url(#gradient17)" d="M16.35 14.25 L16.25 14.25 16.3 14.3 16.35 14.25 M16.35 14.4 L17.3 15.3 17.25 15.3 16.8 14.65 16.35 14.4 M17.45 15.5 L17.9 15.95 19.2 16.35 19.9 16.45 19.45 16.45 18.35 16.4 18.5 16.5 18.8 16.5 19.95 16.8 22.25 16.5 22.55 16.45 22.7 16.5 24.25 16.65 24.3 16.65 23.6 15.4 23.05 14.4 21.9 14.1 21.9 14.3 21.85 14.45 21.9 14.85 21.85 14.85 Q21.15 14.35 20.15 14.25 L20.15 14.15 20.0 14.1 17.45 14.2 17.3 14.25 17.25 14.25 17.15 14.25 17.05 14.25 16.7 14.25 16.6 14.25 16.55 14.35 16.8 14.65 17.2 14.85 17.35 14.85 17.3 15.25 17.25 15.3 17.5 15.45 17.45 15.5 M17.15 14.25 L17.35 14.25 17.15 14.25"/><path stroke="none" fill="url(#gradient18)" d="M13.15 16.5 L14.35 15.85 14.35 15.75 14.35 15.85 14.45 15.8 14.35 15.75 13.15 16.5 M14.35 14.75 L14.3 14.75 9.3 15.35 11.8 16.6 13.6 16.05 Q14.1 14.85 14.35 14.75"/><path stroke="none" fill="url(#gradient19)" d="M14.65 15.7 L14.55 15.7 14.5 15.75 14.7 15.75 14.65 15.7"/><path stroke="none" fill="url(#gradient20)" d="M17.45 19.6 Q15.1 19.45 12.5 19.65 L12.45 20.1 13.95 23.05 16.95 22.65 18.15 21.4 19.65 19.85 17.6 19.65 17.45 19.6"/><path stroke="none" fill="url(#gradient21)" d="M17.9 18.1 L17.75 18.15 17.2 19.55 17.55 19.45 Q18.7 18.85 19.95 18.35 L20.1 18.25 19.75 17.35 19.7 17.35 17.9 18.1"/><path stroke="none" fill="url(#gradient22)" d="M22.7 16.5 L22.65 16.5 20.7 17.3 20.15 18.7 22.9 17.5 23.05 17.4 22.7 16.5"/><path stroke="none" fill="url(#gradient23)" d="M18.15 21.4 L20.6 21.05 19.8 19.85 19.65 19.85 18.15 21.4"/><path stroke="none" fill="url(#gradient24)" d="M24.4 17.8 Q23.7 17.5 24.35 18.65 L24.95 18.7 25.05 18.65 24.85 18.15 24.7 17.75 24.4 17.8"/><path fill="#cc802c" stroke="none" d="M29.7 21.1 L29.8 21.1 29.95 21.1 30.1 21.1 30.2 21.1 30.3 21.1 30.05 22.25 29.45 21.8 26.6 21.85 27.7 21.2 27.75 21.2 27.95 21.2 29.4 21.1 29.7 21.1 M25.2 21.5 L24.1 22.25 Q20.25 23.05 14.95 25.15 18.7 23.5 21.55 22.65 L22.35 22.35 23.5 21.9 25.2 21.5"/><path fill="#f29835" stroke="none" d="M29.7 21.1 L29.4 21.1 27.95 21.2 27.75 21.2 27.7 21.2 25.55 21.2 25.2 21.5 23.5 21.9 22.35 22.35 21.25 21.9 22.35 22.35 21.55 22.65 Q18.7 23.5 14.95 25.15 16.4 22.35 26.5 20.2 L26.6 20.2 Q27.35 20.8 29.7 21.1 M30.7 23.1 L32.0 23.05 Q33.2 23.45 34.3 26.85 23.8 27.5 14.95 25.15 L22.75 24.05 24.05 23.5 30.7 23.1 M23.9 25.55 L21.95 25.0 22.75 24.05 21.95 25.0 23.9 25.55"/><path fill="#f2bc35" stroke="none" d="M26.6 21.85 L29.45 21.8 30.05 22.25 Q30.3 22.85 30.7 23.1 L24.05 23.5 22.75 24.05 14.95 25.15 Q20.25 23.05 24.1 22.25 L26.6 21.85"/><path fill="#9e6322" stroke="none" d="M27.7 21.2 L26.6 21.85 24.1 22.25 25.2 21.5 25.55 21.2 27.7 21.2"/><path fill="none" stroke="#000000" stroke-width="0.5" stroke-opacity="0.301960784314" d="M30.05 22.25 L30.3 21.1 30.2 21.1 30.1 21.1 29.95 21.1 29.8 21.1 29.7 21.1 29.4 21.1 27.95 21.2 M27.7 21.2 L26.6 21.85 M29.45 21.8 L30.05 22.25 Q30.3 22.85 30.7 23.1 L32.0 23.05 Q33.2 23.45 34.3 26.85 M26.6 20.2 Q27.35 20.8 29.7 21.1 M27.7 21.2 L25.55 21.2 25.2 21.5 24.1 22.25 M22.35 22.35 L23.5 21.9 25.2 21.5 M22.35 22.35 L21.25 21.9 M14.95 25.15 Q18.7 23.5 21.55 22.65 L22.35 22.35 M22.75 24.05 L21.95 25.0 23.9 25.55 M30.7 23.1 L24.05 23.5 22.75 24.05 14.95 25.15"/><path fill="none" stroke="#000000" stroke-width="0.5" stroke-opacity="0.101960784314" d="M29.6 22.2 L24.3 22.6"/><path fill="none" stroke="#000000" stroke-width="0.5" stroke-opacity="0.101960784314" d="M30.5 23.0 L25.15 23.4"/><path fill="none" stroke="#000000" stroke-width="0.5" stroke-opacity="0.101960784314" d="M16.85 24.85 L24.15 23.0"/><path stroke="none" fill="url(#gradient25)" d="M18.85 25.8 L16.1 24.8 22.05 24.0 22.1 24.0 20.95 25.2 18.85 25.8 M20.45 25.6 L22.0 24.85 22.1 24.9 21.95 25.0 20.45 25.6"/><path stroke="none" fill="url(#gradient26)" d="M25.4 29.75 L23.75 30.95 20.25 31.4 19.0 28.9 19.15 28.5 24.95 28.2 25.15 28.2 27.5 28.25 25.4 29.75"/><path stroke="none" fill="url(#gradient27)" d="M24.55 23.4 L24.85 23.4 24.8 23.5 25.05 23.75 25.5 23.85 25.65 23.85 25.45 24.25 25.05 23.75 24.55 23.6 24.5 23.45 24.55 23.4 M28.8 23.05 L29.95 22.95 31.15 22.9 30.95 23.0 31.1 23.0 31.1 23.2 30.95 23.3 30.9 23.65 30.9 23.7 28.9 23.3 29.0 23.2 28.8 23.05 M33.4 25.2 L33.65 25.65 33.65 25.7 33.7 25.7 34.2 26.7 33.85 26.45 33.75 26.15 33.4 26.15 31.6 25.1 33.4 25.2 M31.1 25.1 L26.95 26.2 26.7 25.35 27.05 25.35 28.35 25.5 31.1 25.1 M27.4 27.45 Q28.05 28.2 27.65 28.25 L27.5 28.25 27.65 28.15 27.4 27.45 M26.1 24.9 L27.5 25.2 28.35 25.25 27.85 25.25 Q27.35 25.1 26.6 25.25 L26.1 24.9"/><path stroke="none" fill="url(#gradient28)" d="M24.4 23.4 L24.55 23.4 24.5 23.45 24.4 23.4 M24.85 23.4 L24.95 23.4 25.4 23.4 25.45 23.35 25.7 23.35 25.85 23.35 28.8 23.05 29.0 23.2 28.9 23.3 30.9 23.7 30.9 23.65 30.95 23.3 31.1 23.2 31.1 23.0 32.4 23.25 32.85 24.1 33.45 25.1 33.4 25.2 31.6 25.1 31.4 25.05 31.1 25.1 28.35 25.5 27.05 25.35 26.7 25.35 26.6 25.25 Q27.35 25.1 27.85 25.25 L28.35 25.25 27.5 25.2 26.1 24.9 25.65 24.45 25.5 24.3 24.55 23.6 25.05 23.75 25.45 24.25 25.65 23.85 25.5 23.85 25.05 23.75 24.8 23.5 24.85 23.4"/><path stroke="none" fill="url(#gradient29)" d="M24.05 23.4 L24.4 23.4 24.5 23.45 24.4 23.5 24.55 23.6 25.5 24.3 25.5 24.45 25.65 24.45 26.1 24.9 25.75 24.65 26.25 25.3 26.6 25.25 26.7 25.35 25.3 25.8 23.8 25.3 23.7 25.3 24.05 23.4"/><path stroke="none" fill="url(#gradient30)" d="M27.5 28.25 L25.15 28.2 24.95 28.2 19.15 28.5 20.45 25.6 21.95 25.0 21.9 25.8 23.2 26.9 23.0 25.2 24.05 23.4 23.7 25.3 23.8 25.3 25.3 25.8 26.7 25.35 26.95 26.2 26.05 26.1 25.7 26.8 25.6 26.85 24.65 28.15 25.05 28.0 24.95 28.2 25.25 28.1 Q27.35 27.35 27.4 27.45 L27.65 28.15 27.5 28.25 M25.5 24.3 L25.65 24.45 25.5 24.45 25.5 24.3 M26.6 25.25 L26.25 25.3 25.75 24.65 26.1 24.9 26.6 25.25 M24.5 23.45 L24.55 23.6 24.4 23.5 24.5 23.45"/><path stroke="none" fill="url(#gradient31)" d="M25.7 26.8 L27.95 26.05 28.25 26.85 28.15 26.9 25.05 28.0 24.65 28.15 25.6 26.85 25.7 26.8"/><path stroke="none" fill="url(#gradient32)" d="M31.6 25.1 L31.85 25.9 28.3 27.25 29.2 25.9 31.55 25.1 31.6 25.1"/><path stroke="none" fill="url(#gradient33)" d="M22.1 24.9 L22.25 24.8 22.35 24.85 22.4 24.9 22.1 24.9"/><path stroke="none" fill="url(#gradient34)" d="M25.4 29.75 L27.5 28.25 27.65 28.25 28.4 29.3 25.4 29.75"/><path stroke="none" fill="url(#gradient35)" d="M33.85 26.45 L33.95 26.9 33.8 26.95 33.15 27.0 Q32.65 26.0 33.4 26.15 L33.75 26.15 33.85 26.45"/></g><linearGradient gradientUnits="userSpaceOnUse" x1="-819.2" x2="819.2" spreadMethod="pad" gradientTransform="matrix(-0.00639343261719,0.000274658203125,0.002197265625,-0.0079345703125,1.45,10.35)" id="gradient36"><stop offset="0.0" stop-color="#ffff99" stop-opacity="0.752941176471"/><stop offset="1.0" stop-color="#ffff99" stop-opacity="0.0"/></linearGradient><linearGradient gradientUnits="userSpaceOnUse" x1="-819.2" x2="819.2" spreadMethod="pad" gradientTransform="matrix(-0.00639343261719,0.000274658203125,0.002197265625,-0.0079345703125,1.45,10.35)" id="gradient37"><stop offset="0.0" stop-color="#ffff99" stop-opacity="0.4"/><stop offset="1.0" stop-color="#ffff99" stop-opacity="0.0"/></linearGradient><linearGradient gradientUnits="userSpaceOnUse" x1="-819.2" x2="819.2" spreadMethod="pad" gradientTransform="matrix(-0.00639343261719,0.000274658203125,0.002197265625,-0.0079345703125,5.05,8.4)" id="gradient38"><stop offset="0.0" stop-color="#ffff99" stop-opacity="0.4"/><stop offset="1.0" stop-color="#ffff99" stop-opacity="0.0"/></linearGradient><linearGradient gradientUnits="userSpaceOnUse" x1="-819.2" x2="819.2" spreadMethod="pad" gradientTransform="matrix(-0.00639343261719,0.000274658203125,0.002197265625,-0.0079345703125,5.05,8.4)" id="gradient39"><stop offset="0.0" stop-color="#ffff99" stop-opacity="0.752941176471"/><stop offset="1.0" stop-color="#ffff99" stop-opacity="0.0"/></linearGradient><linearGradient gradientUnits="userSpaceOnUse" x1="-819.2" x2="819.2" spreadMethod="pad" gradientTransform="matrix(-0.00639343261719,0.000274658203125,0.002197265625,-0.0079345703125,-2.35,21.35)" id="gradient40"><stop offset="0.0" stop-color="#ffff99" stop-opacity="0.43137254902"/><stop offset="1.0" stop-color="#ffff99" stop-opacity="0.0"/></linearGradient><linearGradient gradientUnits="userSpaceOnUse" x1="-819.2" x2="819.2" spreadMethod="pad" gradientTransform="matrix(-0.00639343261719,0.000274658203125,0.002197265625,-0.0079345703125,1.2,19.35)" id="gradient41"><stop offset="0.0" stop-color="#ffff99" stop-opacity="0.2"/><stop offset="1.0" stop-color="#ffff99" stop-opacity="0.0"/></linearGradient><linearGradient gradientUnits="userSpaceOnUse" x1="-819.2" x2="819.2" spreadMethod="pad" gradientTransform="matrix(-0.00639343261719,0.000274658203125,0.002197265625,-0.0079345703125,1.45,10.35)" id="gradient42"><stop offset="0.0" stop-color="#ffff99" stop-opacity="0.2"/><stop offset="1.0" stop-color="#ffff99" stop-opacity="0.0"/></linearGradient><linearGradient gradientUnits="userSpaceOnUse" x1="-819.2" x2="819.2" spreadMethod="pad" gradientTransform="matrix(-0.00639343261719,0.000274658203125,0.002197265625,-0.0079345703125,2.0,12.0)" id="gradient43"><stop offset="0.0" stop-color="#ffff99" stop-opacity="0.4"/><stop offset="1.0" stop-color="#ffff99" stop-opacity="0.0"/></linearGradient><linearGradient gradientUnits="userSpaceOnUse" x1="-819.2" x2="819.2" spreadMethod="pad" gradientTransform="matrix(-0.00639343261719,0.000274658203125,0.002197265625,-0.0079345703125,4.8,9.8)" id="gradient44"><stop offset="0.0" stop-color="#ffff99" stop-opacity="0.4"/><stop offset="1.0" stop-color="#ffff99" stop-opacity="0.0"/></linearGradient><linearGradient gradientUnits="userSpaceOnUse" x1="-819.2" x2="819.2" spreadMethod="pad" gradientTransform="matrix(-0.00639343261719,0.000274658203125,0.002197265625,-0.0079345703125,5.05,8.4)" id="gradient45"><stop offset="0.0" stop-color="#ffff99" stop-opacity="0.2"/><stop offset="1.0" stop-color="#ffff99" stop-opacity="0.0"/></linearGradient><linearGradient gradientUnits="userSpaceOnUse" x1="-819.2" x2="819.2" spreadMethod="pad" gradientTransform="matrix(-0.00639343261719,0.000274658203125,0.002197265625,-0.0079345703125,6.35,6.05)" id="gradient46"><stop offset="0.0" stop-color="#ffff99" stop-opacity="0.4"/><stop offset="1.0" stop-color="#ffff99" stop-opacity="0.0"/></linearGradient><g id="c10"><path stroke="none" fill="url(#gradient36)" d="M6.5 15.2 L6.4 15.45 6.55 15.25 6.15 15.75 5.75 13.1 5.85 12.85 6.95 10.6 8.0 9.95 7.95 10.25 7.75 10.5 7.35 12.05 7.65 11.3 7.25 12.45 7.2 12.65 7.2 12.7 7.2 12.8 6.5 15.0 6.45 15.25 6.5 15.2 M6.8 15.0 L6.75 15.0 6.8 14.95 7.25 14.4 7.45 14.2 7.25 14.4 6.8 15.0"/><path stroke="none" fill="url(#gradient37)" d="M6.5 15.2 L6.45 15.25 6.5 15.0 6.5 15.2 M7.2 12.8 L7.2 12.7 7.2 12.65 7.25 12.45 7.2 12.8 M7.65 11.3 L7.35 12.05 7.75 10.5 7.95 10.25 7.65 11.3 M8.0 9.95 L6.95 10.6 5.85 12.85 5.75 13.1 6.15 15.75 6.1 15.8 5.25 13.95 5.25 11.0 4.35 14.05 4.45 15.3 4.5 15.55 4.45 15.3 3.3 15.85 2.1 12.55 6.55 7.1 6.6 7.3 6.3 7.45 7.1 8.7 7.2 8.6 7.5 9.3 8.2 8.3 8.0 9.95 M6.8 15.0 L6.55 15.25 6.75 15.0 6.8 15.0 M8.45 5.9 Q8.4 6.1 6.7 6.95 L6.55 7.1 6.65 6.9 8.45 4.35 8.6 4.4 8.45 5.9"/><path stroke="none" fill="url(#gradient38)" d="M6.75 15.0 L6.55 15.25 6.5 15.2 6.5 15.0 6.9 14.2 7.2 12.9 7.2 12.8 7.25 12.45 7.35 12.35 7.2 12.9 7.15 12.95 7.3 13.35 7.2 13.55 6.9 14.2 6.9 14.25 6.7 14.85 6.75 15.0 M9.85 11.45 L9.95 11.15 9.9 11.1 11.35 8.4 11.4 8.4 11.45 9.0 11.55 9.1 11.55 9.25 11.5 9.4 11.0 9.95 Q9.55 11.6 11.4 9.55 L11.65 9.35 11.65 9.4 10.65 10.55 9.85 11.45 M13.2 3.45 L11.8 5.3 13.1 1.8 13.35 1.5 13.45 0.85 13.7 0.1 13.35 2.3 13.35 2.4 13.2 3.45 M11.4 5.8 Q10.3 7.35 9.25 8.0 L8.3 9.65 8.0 9.95 8.2 8.3 11.4 5.8 M8.6 4.25 Q8.95 3.9 8.45 5.9 L8.6 4.4 8.45 4.35 8.6 4.25 M7.95 10.25 L8.9 9.0 9.35 8.45 8.7 9.4 7.65 11.3 7.95 10.25"/><path stroke="none" fill="url(#gradient39)" d="M6.55 15.25 L6.4 15.45 6.5 15.2 6.55 15.25 M6.5 15.0 L7.2 12.8 7.2 12.9 6.9 14.2 6.5 15.0 M7.25 12.45 L7.65 11.3 8.7 9.4 9.35 8.45 8.9 9.0 7.95 10.25 8.0 9.95 8.3 9.65 9.25 8.0 Q10.3 7.35 11.4 5.8 L11.65 5.6 11.8 5.3 13.2 3.45 13.2 3.4 12.85 5.7 12.5 7.65 11.55 9.25 11.55 9.1 11.45 9.0 11.4 8.4 11.35 8.4 9.9 11.1 9.95 11.15 9.85 11.45 7.55 14.1 7.4 14.2 7.4 14.25 7.25 14.4 7.15 14.5 6.8 14.95 6.75 15.0 6.7 14.85 6.9 14.25 6.9 14.2 7.2 13.55 7.3 13.35 7.15 12.95 7.2 12.9 7.35 12.35 7.25 12.45 M7.25 14.4 L7.45 14.2 7.25 14.4 M11.65 9.4 L11.65 9.35 Q12.8 8.05 11.65 9.4"/><path stroke="none" fill="url(#gradient40)" d="M3.3 15.85 L4.45 15.3 4.5 15.55 4.45 15.3 4.6 15.3 4.5 15.55 3.3 15.85 M4.65 16.85 L0.0 21.65 2.0 17.2 3.7 16.05 4.6 16.8 4.65 16.85"/><path stroke="none" fill="url(#gradient41)" d="M4.75 15.25 L4.6 15.35 4.75 15.05 4.75 15.25"/><path stroke="none" fill="url(#gradient42)" d="M6.55 7.1 L2.1 12.55 1.9 12.05 2.75 6.5 5.45 3.8 6.75 4.05 8.45 4.35 6.65 6.9 6.55 7.1"/><path stroke="none" fill="url(#gradient43)" d="M7.2 8.6 L7.1 8.7 6.3 7.45 6.6 7.3 9.0 6.0 9.15 6.0 9.0 7.5 7.2 8.6"/><path stroke="none" fill="url(#gradient44)" d="M11.8 5.3 L11.8 5.35 9.9 6.5 9.1 5.3 11.8 3.85 11.95 3.85 11.8 5.3"/><path stroke="none" fill="url(#gradient45)" d="M6.75 4.05 L9.05 1.8 8.6 4.25 8.45 4.35 6.75 4.05"/><path stroke="none" fill="url(#gradient46)" d="M13.1 1.8 Q12.55 2.9 12.9 0.75 L13.4 0.0 13.5 0.05 13.45 0.85 13.35 1.5 13.1 1.8"/></g><g id="c11"><g><use transform="matrix(1.0,0.0,0.0,1.0,0.0,0.0)" xlink:href="#c10"/></g></g><linearGradient gradientUnits="userSpaceOnUse" x1="-819.2" x2="819.2" spreadMethod="pad" gradientTransform="matrix(-0.002685546875,0.00251770019531,0.00556945800781,0.00103759765625,28.0,35.5)" id="gradient47"><stop offset="0.0" stop-color="#ffff99" stop-opacity="0.752941176471"/><stop offset="1.0" stop-color="#ffff99" stop-opacity="0.0"/></linearGradient><linearGradient gradientUnits="userSpaceOnUse" x1="-819.2" x2="819.2" spreadMethod="pad" gradientTransform="matrix(-0.002685546875,0.00251770019531,0.00556945800781,0.00103759765625,28.0,35.5)" id="gradient48"><stop offset="0.0" stop-color="#ffff99" stop-opacity="0.4"/><stop offset="1.0" stop-color="#ffff99" stop-opacity="0.0"/></linearGradient><linearGradient gradientUnits="userSpaceOnUse" x1="-819.2" x2="819.2" spreadMethod="pad" gradientTransform="matrix(-0.002685546875,0.00251770019531,0.00556945800781,0.00103759765625,30.6,34.55)" id="gradient49"><stop offset="0.0" stop-color="#ffff99" stop-opacity="0.4"/><stop offset="1.0" stop-color="#ffff99" stop-opacity="0.0"/></linearGradient><linearGradient gradientUnits="userSpaceOnUse" x1="-819.2" x2="819.2" spreadMethod="pad" gradientTransform="matrix(-0.002685546875,0.00251770019531,0.00556945800781,0.00103759765625,30.6,34.55)" id="gradient50"><stop offset="0.0" stop-color="#ffff99" stop-opacity="0.752941176471"/><stop offset="1.0" stop-color="#ffff99" stop-opacity="0.0"/></linearGradient><linearGradient gradientUnits="userSpaceOnUse" x1="-819.2" x2="819.2" spreadMethod="pad" gradientTransform="matrix(-0.002685546875,0.00251770019531,0.00556945800781,0.00103759765625,20.0,34.35)" id="gradient51"><stop offset="0.0" stop-color="#ffff99" stop-opacity="0.43137254902"/><stop offset="1.0" stop-color="#ffff99" stop-opacity="0.0"/></linearGradient><linearGradient gradientUnits="userSpaceOnUse" x1="-819.2" x2="819.2" spreadMethod="pad" gradientTransform="matrix(-0.002685546875,0.00251770019531,0.00556945800781,0.00103759765625,22.6,33.4)" id="gradient52"><stop offset="0.0" stop-color="#ffff99" stop-opacity="0.2"/><stop offset="1.0" stop-color="#ffff99" stop-opacity="0.0"/></linearGradient><linearGradient gradientUnits="userSpaceOnUse" x1="-819.2" x2="819.2" spreadMethod="pad" gradientTransform="matrix(-0.002685546875,0.00251770019531,0.00556945800781,0.00103759765625,28.0,35.5)" id="gradient53"><stop offset="0.0" stop-color="#ffff99" stop-opacity="0.2"/><stop offset="1.0" stop-color="#ffff99" stop-opacity="0.0"/></linearGradient><linearGradient gradientUnits="userSpaceOnUse" x1="-819.2" x2="819.2" spreadMethod="pad" gradientTransform="matrix(-0.002685546875,0.00251770019531,0.00556945800781,0.00103759765625,27.25,34.85)" id="gradient54"><stop offset="0.0" stop-color="#ffff99" stop-opacity="0.4"/><stop offset="1.0" stop-color="#ffff99" stop-opacity="0.0"/></linearGradient><linearGradient gradientUnits="userSpaceOnUse" x1="-819.2" x2="819.2" spreadMethod="pad" gradientTransform="matrix(-0.002685546875,0.00251770019531,0.00556945800781,0.00103759765625,29.65,34.25)" id="gradient55"><stop offset="0.0" stop-color="#ffff99" stop-opacity="0.4"/><stop offset="1.0" stop-color="#ffff99" stop-opacity="0.0"/></linearGradient><linearGradient gradientUnits="userSpaceOnUse" x1="-819.2" x2="819.2" spreadMethod="pad" gradientTransform="matrix(-0.002685546875,0.00251770019531,0.00556945800781,0.00103759765625,30.6,34.55)" id="gradient56"><stop offset="0.0" stop-color="#ffff99" stop-opacity="0.2"/><stop offset="1.0" stop-color="#ffff99" stop-opacity="0.0"/></linearGradient><linearGradient gradientUnits="userSpaceOnUse" x1="-819.2" x2="819.2" spreadMethod="pad" gradientTransform="matrix(-0.002685546875,0.00251770019531,0.00556945800781,0.00103759765625,32.5,34.55)" id="gradient57"><stop offset="0.0" stop-color="#ffff99" stop-opacity="0.4"/><stop offset="1.0" stop-color="#ffff99" stop-opacity="0.0"/></linearGradient><linearGradient gradientUnits="userSpaceOnUse" x1="-819.2" x2="819.2" spreadMethod="pad" gradientTransform="matrix(-0.00125122070312,0.00117492675781,0.00259399414062,0.00048828125,4.35,4.1)" id="gradient58"><stop offset="0.0" stop-color="#ffff99" stop-opacity="0.752941176471"/><stop offset="1.0" stop-color="#ffff99" stop-opacity="0.0"/></linearGradient><linearGradient gradientUnits="userSpaceOnUse" x1="-819.2" x2="819.2" spreadMethod="pad" gradientTransform="matrix(-0.00125122070312,0.00117492675781,0.00259399414062,0.00048828125,4.35,4.1)" id="gradient59"><stop offset="0.0" stop-color="#ffff99" stop-opacity="0.4"/><stop offset="1.0" stop-color="#ffff99" stop-opacity="0.0"/></linearGradient><linearGradient gradientUnits="userSpaceOnUse" x1="-819.2" x2="819.2" spreadMethod="pad" gradientTransform="matrix(-0.00125122070312,0.00117492675781,0.00259399414062,0.00048828125,5.6,3.65)" id="gradient60"><stop offset="0.0" stop-color="#ffff99" stop-opacity="0.4"/><stop offset="1.0" stop-color="#ffff99" stop-opacity="0.0"/></linearGradient><linearGradient gradientUnits="userSpaceOnUse" x1="-819.2" x2="819.2" spreadMethod="pad" gradientTransform="matrix(-0.00125122070312,0.00117492675781,0.00259399414062,0.00048828125,5.6,3.65)" id="gradient61"><stop offset="0.0" stop-color="#ffff99" stop-opacity="0.752941176471"/><stop offset="1.0" stop-color="#ffff99" stop-opacity="0.0"/></linearGradient><linearGradient gradientUnits="userSpaceOnUse" x1="-819.2" x2="819.2" spreadMethod="pad" gradientTransform="matrix(-0.00125122070312,0.00117492675781,0.00259399414062,0.00048828125,0.6,3.6)" id="gradient62"><stop offset="0.0" stop-color="#ffff99" stop-opacity="0.43137254902"/><stop offset="1.0" stop-color="#ffff99" stop-opacity="0.0"/></linearGradient><linearGradient gradientUnits="userSpaceOnUse" x1="-819.2" x2="819.2" spreadMethod="pad" gradientTransform="matrix(-0.00125122070312,0.00117492675781,0.00259399414062,0.00048828125,1.85,3.15)" id="gradient63"><stop offset="0.0" stop-color="#ffff99" stop-opacity="0.2"/><stop offset="1.0" stop-color="#ffff99" stop-opacity="0.0"/></linearGradient><linearGradient gradientUnits="userSpaceOnUse" x1="-819.2" x2="819.2" spreadMethod="pad" gradientTransform="matrix(-0.00125122070312,0.00117492675781,0.00259399414062,0.00048828125,4.35,4.1)" id="gradient64"><stop offset="0.0" stop-color="#ffff99" stop-opacity="0.2"/><stop offset="1.0" stop-color="#ffff99" stop-opacity="0.0"/></linearGradient><linearGradient gradientUnits="userSpaceOnUse" x1="-819.2" x2="819.2" spreadMethod="pad" gradientTransform="matrix(-0.00125122070312,0.00117492675781,0.00259399414062,0.00048828125,4.0,3.8)" id="gradient65"><stop offset="0.0" stop-color="#ffff99" stop-opacity="0.4"/><stop offset="1.0" stop-color="#ffff99" stop-opacity="0.0"/></linearGradient><linearGradient gradientUnits="userSpaceOnUse" x1="-819.2" x2="819.2" spreadMethod="pad" gradientTransform="matrix(-0.00125122070312,0.00117492675781,0.00259399414062,0.00048828125,5.15,3.55)" id="gradient66"><stop offset="0.0" stop-color="#ffff99" stop-opacity="0.4"/><stop offset="1.0" stop-color="#ffff99" stop-opacity="0.0"/></linearGradient><linearGradient gradientUnits="userSpaceOnUse" x1="-819.2" x2="819.2" spreadMethod="pad" gradientTransform="matrix(-0.00125122070312,0.00117492675781,0.00259399414062,0.00048828125,5.6,3.65)" id="gradient67"><stop offset="0.0" stop-color="#ffff99" stop-opacity="0.2"/><stop offset="1.0" stop-color="#ffff99" stop-opacity="0.0"/></linearGradient><linearGradient gradientUnits="userSpaceOnUse" x1="-819.2" x2="819.2" spreadMethod="pad" gradientTransform="matrix(-0.00125122070312,0.00117492675781,0.00259399414062,0.00048828125,6.45,3.7)" id="gradient68"><stop offset="0.0" stop-color="#ffff99" stop-opacity="0.4"/><stop offset="1.0" stop-color="#ffff99" stop-opacity="0.0"/></linearGradient><g id="c12"><path stroke="none" fill="url(#gradient47)" d="M27.1 32.3 L27.0 32.3 27.15 32.3 26.7 32.3 28.1 33.1 28.25 33.1 30.05 33.25 30.9 33.0 30.65 32.95 30.45 33.0 29.4 32.75 29.9 32.8 29.1 32.65 28.95 32.65 28.85 32.6 27.3 32.35 27.1 32.35 27.1 32.3 M27.35 32.25 L27.4 32.25 27.45 32.25 27.95 32.2 28.15 32.2 27.95 32.2 27.35 32.25"/><path stroke="none" fill="url(#gradient48)" d="M27.1 32.3 L27.1 32.35 27.3 32.35 27.1 32.3 M28.85 32.6 L28.95 32.65 29.1 32.65 28.85 32.6 M29.9 32.8 L29.4 32.75 30.45 33.0 30.65 32.95 29.9 32.8 M30.9 33.0 L30.05 33.25 28.25 33.1 28.1 33.1 26.7 32.3 26.65 32.3 27.4 33.1 29.2 33.85 27.0 33.45 26.3 33.1 26.2 33.05 26.3 33.1 25.55 33.45 27.0 34.75 32.0 34.3 31.85 34.2 31.7 34.25 31.25 33.7 31.35 33.65 31.05 33.3 31.9 33.3 30.9 33.0 M27.35 32.25 L27.15 32.3 27.4 32.25 27.35 32.25 M33.5 33.8 Q33.3 33.75 32.15 34.2 L32.0 34.3 32.15 34.25 34.35 34.15 34.4 34.1 33.5 33.8"/><path stroke="none" fill="url(#gradient49)" d="M27.4 32.25 L27.15 32.3 27.1 32.3 27.3 32.35 27.95 32.4 28.8 32.6 28.85 32.6 29.1 32.65 29.15 32.7 28.8 32.6 28.75 32.55 28.6 32.4 28.4 32.45 27.95 32.4 27.9 32.35 27.45 32.3 27.4 32.25 M30.7 31.85 L30.95 31.9 30.95 31.95 33.1 32.0 33.15 32.0 32.85 31.8 32.75 31.75 32.7 31.75 32.6 31.7 32.1 31.8 Q30.5 31.95 32.5 31.7 L32.65 31.7 32.65 31.65 31.55 31.8 30.7 31.85 M36.75 32.5 L35.15 32.6 37.7 32.95 38.0 32.85 38.4 33.05 39.0 33.1 37.55 32.65 37.45 32.7 36.75 32.5 M34.65 32.6 L32.55 32.95 31.2 32.9 30.9 33.0 31.9 33.3 34.65 32.6 M34.45 34.15 Q34.8 34.1 33.5 33.8 L34.4 34.1 34.35 34.15 34.45 34.15 M30.65 32.95 L31.8 32.85 32.3 32.8 31.45 32.85 29.9 32.8 30.65 32.95"/><path stroke="none" fill="url(#gradient50)" d="M27.15 32.3 L27.0 32.3 27.1 32.3 27.15 32.3 M27.3 32.35 L28.85 32.6 28.8 32.6 27.95 32.4 27.3 32.35 M29.1 32.65 L29.9 32.8 31.45 32.85 32.3 32.8 31.8 32.85 30.65 32.95 30.9 33.0 31.2 32.9 32.55 32.95 34.65 32.6 34.9 32.55 35.15 32.6 36.75 32.5 36.8 32.5 35.3 32.1 34.05 31.7 32.7 31.75 32.75 31.75 32.85 31.8 33.15 32.0 33.1 32.0 30.95 31.95 30.95 31.9 30.7 31.85 28.2 32.2 28.1 32.15 27.95 32.2 27.9 32.2 27.45 32.25 27.4 32.25 27.45 32.3 27.9 32.35 27.95 32.4 28.4 32.45 28.6 32.4 28.75 32.55 28.8 32.6 29.15 32.7 29.1 32.65 M27.95 32.2 L28.15 32.2 27.95 32.2 M32.65 31.65 L32.65 31.7 Q33.9 31.55 32.65 31.65"/><path stroke="none" fill="url(#gradient51)" d="M25.55 33.45 L26.3 33.1 26.2 33.05 26.3 33.1 26.3 33.05 26.2 33.05 25.55 33.45 M25.45 32.65 L20.8 33.35 24.2 33.6 25.55 33.25 Q25.3 32.75 25.45 32.65"/><path stroke="none" fill="url(#gradient52)" d="M26.45 33.0 L26.35 33.05 26.55 33.0 26.45 33.0"/><path stroke="none" fill="url(#gradient53)" d="M32.0 34.3 L27.0 34.75 27.2 34.95 30.85 35.95 33.5 35.5 33.9 34.95 34.35 34.15 32.15 34.25 32.0 34.3"/><path stroke="none" fill="url(#gradient54)" d="M31.35 33.65 L31.25 33.7 31.7 34.25 31.85 34.2 33.65 33.55 33.65 33.5 32.75 33.2 32.7 33.2 31.35 33.65"/><path stroke="none" fill="url(#gradient55)" d="M35.15 32.6 L35.1 32.6 33.65 33.05 34.1 33.65 36.05 32.95 36.05 32.9 35.15 32.6"/><path stroke="none" fill="url(#gradient56)" d="M33.9 34.95 L36.15 34.55 34.45 34.15 34.35 34.15 33.9 34.95"/><path stroke="none" fill="url(#gradient57)" d="M37.7 32.95 Q36.85 32.85 38.25 33.3 L38.85 33.25 38.9 33.15 38.4 33.05 38.0 32.85 37.7 32.95"/><path stroke="none" fill="url(#gradient58)" d="M3.95 2.6 L3.9 2.65 4.0 2.6 3.8 2.6 4.4 3.05 4.5 3.0 5.35 3.05 5.7 2.95 5.6 2.95 5.5 2.95 5.0 2.85 5.3 2.9 4.9 2.8 4.85 2.8 4.8 2.8 4.05 2.65 3.95 2.65 3.95 2.6 M4.1 2.6 L4.1 2.65 4.35 2.6 4.45 2.55 4.35 2.6 4.1 2.6"/><path stroke="none" fill="url(#gradient59)" d="M3.95 2.6 L3.95 2.65 4.05 2.65 3.95 2.6 M4.8 2.8 L4.85 2.8 4.9 2.8 4.8 2.8 M5.3 2.9 L5.0 2.85 5.5 2.95 5.6 2.95 5.3 2.9 M5.7 2.95 L5.35 3.05 4.5 3.0 4.4 3.05 3.8 2.6 3.75 2.65 4.1 3.0 4.9 3.35 3.9 3.15 3.55 3.0 3.5 3.0 3.55 3.0 3.25 3.2 3.9 3.8 6.25 3.6 6.2 3.55 6.1 3.55 5.9 3.3 5.95 3.25 5.8 3.1 6.25 3.1 5.7 2.95 M4.1 2.6 L4.0 2.6 4.1 2.6 M6.95 3.35 L6.3 3.5 6.25 3.6 6.3 3.55 7.35 3.5 7.4 3.45 6.95 3.35"/><path stroke="none" fill="url(#gradient60)" d="M4.1 2.6 L4.0 2.6 3.95 2.6 4.05 2.65 4.35 2.7 4.7 2.75 4.8 2.8 4.9 2.8 4.95 2.8 4.7 2.75 4.65 2.7 4.6 2.7 4.35 2.7 4.1 2.65 4.1 2.6 M5.65 2.4 L5.75 2.45 5.75 2.5 6.8 2.5 6.65 2.4 6.6 2.4 6.6 2.35 6.55 2.35 6.3 2.4 Q5.55 2.5 6.5 2.35 L6.55 2.35 6.05 2.4 5.65 2.4 M8.5 2.7 L7.7 2.8 8.9 2.9 9.05 2.9 9.25 3.0 9.5 3.0 8.8 2.8 8.8 2.85 8.5 2.7 M7.5 2.8 L6.5 2.95 5.85 2.95 5.7 2.95 6.25 3.1 7.5 2.8 M7.4 3.5 Q7.55 3.45 6.95 3.35 L7.4 3.45 7.35 3.5 7.4 3.5 M5.6 2.95 L6.15 2.85 6.4 2.85 5.95 2.9 5.3 2.9 5.6 2.95"/><path stroke="none" fill="url(#gradient61)" d="M4.0 2.6 L3.9 2.65 3.95 2.6 4.0 2.6 M4.05 2.65 L4.8 2.8 4.7 2.75 4.35 2.7 4.05 2.65 M4.9 2.8 L5.3 2.9 5.95 2.9 6.4 2.85 6.15 2.85 5.6 2.95 5.7 2.95 5.85 2.95 6.5 2.95 7.5 2.8 7.6 2.75 7.7 2.8 8.5 2.7 8.5 2.75 7.8 2.5 7.15 2.4 6.6 2.35 6.6 2.4 6.65 2.4 6.8 2.5 5.75 2.5 5.75 2.45 5.65 2.4 4.45 2.55 4.4 2.55 4.35 2.6 4.3 2.6 4.1 2.65 4.35 2.7 4.6 2.7 4.65 2.7 4.7 2.75 4.95 2.8 4.9 2.8 M4.1 2.6 L4.1 2.65 4.1 2.6 M4.35 2.6 L4.45 2.55 4.35 2.6"/><path stroke="none" fill="url(#gradient62)" d="M3.25 3.2 L3.55 3.0 3.5 3.0 3.55 3.0 3.6 3.0 3.5 3.0 3.25 3.2 M3.2 2.8 L1.0 3.1 2.6 3.25 3.25 3.1 3.2 2.8"/><path stroke="none" fill="url(#gradient63)" d="M3.65 2.95 L3.6 3.0 3.7 2.95 3.65 2.95"/><path stroke="none" fill="url(#gradient64)" d="M6.25 3.6 L3.9 3.8 4.05 3.9 5.7 4.35 6.95 4.15 7.1 3.85 7.35 3.5 6.3 3.55 6.25 3.6"/><path stroke="none" fill="url(#gradient65)" d="M5.95 3.25 L5.9 3.3 6.1 3.55 6.2 3.55 7.0 3.25 7.0 3.2 6.6 3.05 5.95 3.25"/><path stroke="none" fill="url(#gradient66)" d="M7.7 2.8 L7.0 3.0 7.25 3.3 Q7.65 3.1 8.1 2.95 L8.15 2.9 7.7 2.8"/><path stroke="none" fill="url(#gradient67)" d="M7.1 3.85 L8.2 3.7 7.4 3.5 7.35 3.5 7.1 3.85"/><path stroke="none" fill="url(#gradient68)" d="M8.9 2.9 Q8.5 2.9 9.15 3.1 L9.45 3.1 9.45 3.05 9.25 3.0 9.05 2.9 8.9 2.9"/></g><linearGradient gradientUnits="userSpaceOnUse" x1="-819.2" x2="819.2" spreadMethod="pad" gradientTransform="matrix(0.00355529785156,0.000823974609375,-0.00042724609375,-0.0050048828125,4.2,5.9)" id="gradient69"><stop offset="0.0" stop-color="#ffff99" stop-opacity="0.4"/><stop offset="1.0" stop-color="#ffff99" stop-opacity="0.0"/></linearGradient><linearGradient gradientUnits="userSpaceOnUse" x1="-819.2" x2="819.2" spreadMethod="pad" gradientTransform="matrix(0.00355529785156,0.000823974609375,-0.00042724609375,-0.0050048828125,3.7,4.35)" id="gradient70"><stop offset="0.0" stop-color="#ffff99" stop-opacity="0.4"/><stop offset="1.0" stop-color="#ffff99" stop-opacity="0.0"/></linearGradient><linearGradient gradientUnits="userSpaceOnUse" x1="-819.2" x2="819.2" spreadMethod="pad" gradientTransform="matrix(0.00355529785156,0.000823974609375,-0.00042724609375,-0.0050048828125,4.2,5.9)" id="gradient71"><stop offset="0.0" stop-color="#ffff99" stop-opacity="0.752941176471"/><stop offset="1.0" stop-color="#ffff99" stop-opacity="0.0"/></linearGradient><linearGradient gradientUnits="userSpaceOnUse" x1="-819.2" x2="819.2" spreadMethod="pad" gradientTransform="matrix(0.00355529785156,0.000823974609375,-0.00042724609375,-0.0050048828125,4.2,6.8)" id="gradient72"><stop offset="0.0" stop-color="#ffff99" stop-opacity="0.4"/><stop offset="1.0" stop-color="#ffff99" stop-opacity="0.0"/></linearGradient><linearGradient gradientUnits="userSpaceOnUse" x1="-819.2" x2="819.2" spreadMethod="pad" gradientTransform="matrix(0.00355529785156,0.000823974609375,-0.00042724609375,-0.0050048828125,6.05,7.5)" id="gradient73"><stop offset="0.0" stop-color="#ffff99" stop-opacity="0.2"/><stop offset="1.0" stop-color="#ffff99" stop-opacity="0.0"/></linearGradient><linearGradient gradientUnits="userSpaceOnUse" x1="-819.2" x2="819.2" spreadMethod="pad" gradientTransform="matrix(0.00355529785156,0.000823974609375,-0.00042724609375,-0.0050048828125,4.2,5.9)" id="gradient74"><stop offset="0.0" stop-color="#ffff99" stop-opacity="0.2"/><stop offset="1.0" stop-color="#ffff99" stop-opacity="0.0"/></linearGradient><linearGradient gradientUnits="userSpaceOnUse" x1="-819.2" x2="819.2" spreadMethod="pad" gradientTransform="matrix(0.00355529785156,0.000823974609375,-0.00042724609375,-0.0050048828125,6.05,7.5)" id="gradient75"><stop offset="0.0" stop-color="#ffff99" stop-opacity="0.4"/><stop offset="1.0" stop-color="#ffff99" stop-opacity="0.0"/></linearGradient><linearGradient gradientUnits="userSpaceOnUse" x1="-819.2" x2="819.2" spreadMethod="pad" gradientTransform="matrix(0.00355529785156,0.000823974609375,-0.00042724609375,-0.0050048828125,5.55,8.45)" id="gradient76"><stop offset="0.0" stop-color="#ffff99" stop-opacity="0.4"/><stop offset="1.0" stop-color="#ffff99" stop-opacity="0.0"/></linearGradient><linearGradient gradientUnits="userSpaceOnUse" x1="-819.2" x2="819.2" spreadMethod="pad" gradientTransform="matrix(0.00355529785156,0.000823974609375,-0.00042724609375,-0.0050048828125,6.05,7.5)" id="gradient77"><stop offset="0.0" stop-color="#ffff99" stop-opacity="0.752941176471"/><stop offset="1.0" stop-color="#ffff99" stop-opacity="0.0"/></linearGradient><linearGradient gradientUnits="userSpaceOnUse" x1="-819.2" x2="819.2" spreadMethod="pad" gradientTransform="matrix(0.00355529785156,0.000823974609375,-0.00042724609375,-0.0050048828125,7.0,14.5)" id="gradient78"><stop offset="0.0" stop-color="#ffff99" stop-opacity="0.43137254902"/><stop offset="1.0" stop-color="#ffff99" stop-opacity="0.0"/></linearGradient><linearGradient gradientUnits="userSpaceOnUse" x1="-819.2" x2="819.2" spreadMethod="pad" gradientTransform="matrix(0.00355529785156,0.000823974609375,-0.00042724609375,-0.0050048828125,5.25,13.0)" id="gradient79"><stop offset="0.0" stop-color="#ffff99" stop-opacity="0.2"/><stop offset="1.0" stop-color="#ffff99" stop-opacity="0.0"/></linearGradient><g id="c13"><path stroke="none" fill="url(#gradient69)" d="M0.2 0.5 L0.15 0.05 0.1 1.4 0.1 1.45 0.05 2.15 0.65 3.4 0.3 1.15 0.2 0.9 0.2 0.5 M0.45 5.8 L0.45 5.9 0.65 6.25 Q1.35 7.45 0.5 6.05 L0.35 5.85 0.35 5.9 0.8 6.7 1.15 7.35 1.15 7.15 1.2 7.1 0.6 5.35 0.5 5.7 0.45 5.7 0.45 5.8 M2.6 3.1 Q2.4 2.85 2.5 4.1 L2.55 3.2 2.65 3.2 2.6 3.1 M2.4 5.55 L0.85 3.75 Q1.3 4.8 1.85 5.3 L2.25 6.4 2.35 6.6 2.4 5.55 M2.4 6.8 L1.95 5.95 1.75 5.55 2.0 6.2 2.45 7.5 2.4 6.8 M2.5 8.2 L2.45 8.1 2.5 8.5 2.5 8.55 2.55 8.55 2.55 8.45 2.5 8.2 M2.7 9.8 L2.55 9.3 2.5 8.6 2.4 8.75 2.55 9.3 2.6 9.75 2.55 9.8 2.65 9.95 2.7 9.95 2.7 9.8"/><path stroke="none" fill="url(#gradient70)" d="M0.3 1.15 Q0.5 1.85 0.55 0.5 L0.3 0.0 0.25 0.05 0.2 0.5 0.2 0.9 0.3 1.15"/><path stroke="none" fill="url(#gradient71)" d="M0.05 2.15 L0.05 3.55 0.05 4.75 0.45 5.8 0.45 5.7 0.5 5.7 0.6 5.35 1.2 7.1 1.15 7.15 1.15 7.35 2.2 9.2 2.3 9.25 2.3 9.35 2.4 9.45 2.45 9.7 2.55 9.8 2.6 9.75 2.55 9.3 2.4 8.75 2.5 8.6 2.55 9.3 2.7 9.8 2.55 8.55 2.5 8.55 2.5 8.5 2.45 8.1 2.5 8.2 2.45 7.5 2.0 6.2 1.75 5.55 1.95 5.95 2.4 6.8 2.35 6.6 2.25 6.4 1.85 5.3 Q1.3 4.8 0.85 3.75 L0.75 3.6 0.65 3.45 0.65 3.4 0.05 2.15 M0.35 5.85 Q-0.15 4.95 0.35 5.9 L0.35 5.85 M2.65 9.95 L2.7 10.1 2.7 9.95 2.65 9.95"/><path stroke="none" fill="url(#gradient72)" d="M0.65 3.45 L1.65 4.35 2.2 3.7 0.8 2.55 0.75 2.5 0.65 3.4 0.65 3.45"/><path stroke="none" fill="url(#gradient73)" d="M5.4 8.85 L5.6 8.55 5.65 5.1 4.4 3.15 3.65 3.2 2.65 3.2 3.4 4.9 3.45 5.05 5.4 8.85"/><path stroke="none" fill="url(#gradient74)" d="M3.65 3.2 L2.55 1.6 2.6 3.1 2.65 3.2 3.65 3.2"/><path stroke="none" fill="url(#gradient75)" d="M2.5 9.75 L2.65 9.95 2.55 9.8 2.5 9.75 M2.85 10.35 L3.5 9.35 3.8 7.55 4.0 9.5 3.85 10.2 4.4 10.7 5.4 8.85 3.45 5.05 3.4 4.9 2.65 3.2 2.55 3.2 2.5 4.1 3.4 4.95 3.45 5.05 3.4 5.15 3.55 5.3 3.0 5.95 2.95 5.9 2.75 6.3 2.4 5.55 2.35 6.6 2.9 7.1 3.25 8.55 3.3 8.75 2.85 10.35 M2.4 6.8 L2.45 7.5 2.5 7.95 2.45 6.95 2.4 6.8 M2.55 8.45 L2.55 8.4 2.55 8.35 2.5 8.2 2.55 8.45 M2.7 9.95 L2.7 9.8 2.7 9.95"/><path stroke="none" fill="url(#gradient76)" d="M3.4 5.15 L2.2 4.15 2.1 4.1 2.05 5.05 2.95 5.9 3.0 5.95 3.55 5.3 3.4 5.15"/><path stroke="none" fill="url(#gradient77)" d="M2.3 9.35 L2.5 9.75 2.55 9.8 2.45 9.7 2.3 9.35 M2.7 10.1 L2.85 10.35 3.3 8.75 3.25 8.55 2.9 7.1 2.35 6.6 2.4 6.8 2.45 6.95 2.5 7.95 2.45 7.5 2.5 8.2 2.55 8.35 2.55 8.4 2.55 8.45 2.55 8.55 2.7 9.8 2.7 9.95 2.7 10.1"/><path stroke="none" fill="url(#gradient78)" d="M3.85 10.2 L3.75 10.2 3.75 10.35 4.4 10.7 3.85 10.2 M3.55 11.15 L5.7 14.55 5.0 11.65 4.15 10.75 3.6 11.1 3.55 11.15"/><path stroke="none" fill="url(#gradient79)" d="M3.7 10.25 L3.7 10.05 3.7 10.15 3.7 10.25"/></g><g id="c14"><g><use transform="matrix(1.0,0.0,0.0,1.0,0.0,0.0)" xlink:href="#c13"/></g></g><g id="c15"><g><use transform="matrix(1.0,0.0,0.0,1.0,0.0,0.0)" xlink:href="#c9"/></g><g><use transform="matrix(-0.497924804688,-0.0946197509766,-0.0879669189453,0.535598754883,11.15,15.9)" filter="url(#filter7)" xlink:href="#c11"/></g><g><use transform="matrix(1.0,0.0,0.0,1.0,0.0,0.0)" xlink:href="#c12"/></g><g><use transform="matrix(0.884979248047,0.0,0.0,0.885437011719,0.65,7.45)" filter="url(#filter9)" xlink:href="#c14"/></g><g><use transform="matrix(0.0860443115234,-0.0521087646484,0.1572265625,0.222259521484,16.5,18.65)" filter="url(#filter10)" xlink:href="#c6"/></g><g><use transform="matrix(0.06396484375,-0.0387420654297,0.10612487793,0.150009155273,22.3,20.75)" filter="url(#filter11)" xlink:href="#c6"/></g></g><filter id="filter7"><feColorMatrix in="SourceGraphic" type="matrix" values="1.0 0.0 0.0 0.0 0.0 0.0 1.0 0.0 0.0 0.0 0.0 0.0 1.0 0.0 0.0 0.0 0.0 0.0 0.359375 0.0" result="cxform"/><feComposite operator="in" in2="SourceGraphic" result="color-xform"/></filter><filter id="filter9"><feColorMatrix in="SourceGraphic" type="matrix" values="1.0 0.0 0.0 0.0 0.0 0.0 1.0 0.0 0.0 0.0 0.0 0.0 1.0 0.0 0.0 0.0 0.0 0.0 0.359375 0.0" result="cxform"/><feComposite operator="in" in2="SourceGraphic" result="color-xform"/></filter><filter id="filter10"><feColorMatrix in="SourceGraphic" type="matrix" values="1.0 0.0 0.0 0.0 0.0 0.0 1.0 0.0 0.0 0.0 0.0 0.0 1.0 0.0 0.0 0.0 0.0 0.0 0.2109375 0.0" result="cxform"/><feComposite operator="in" in2="SourceGraphic" result="color-xform"/></filter><filter id="filter11"><feColorMatrix in="SourceGraphic" type="matrix" values="1.0 0.0 0.0 0.0 0.0 0.0 1.0 0.0 0.0 0.0 0.0 0.0 1.0 0.0 0.0 0.0 0.0 0.0 0.2109375 0.0" result="cxform"/><feComposite operator="in" in2="SourceGraphic" result="color-xform"/></filter><g id="c16"><g><use transform="matrix(1.0,0.0,0.0,1.0,0.0,0.0)" xlink:href="#c2"/></g><g><use transform="matrix(0.238861083984,-0.0867004394531,0.10026550293,0.233917236328,34.25,31.15)" xlink:href="#c4"/></g><g><use transform="matrix(0.238861083984,-0.0867004394531,0.10026550293,0.233917236328,4.25,10.3)" xlink:href="#c4"/></g><g><use transform="matrix(0.141098022461,-0.0378112792969,0.111373901367,0.225646972656,20.25,20.65)" filter="url(#filter15)" xlink:href="#c6"/></g><g><use transform="matrix(-0.155029296875,0.0513153076172,0.0841827392578,0.147033691406,22.6,2.3)" filter="url(#filter16)" xlink:href="#c8"/></g><g><use transform="matrix(0.452270507812,-0.0835113525391,0.0835113525391,0.452270507812,11.3,13.3)" xlink:href="#c15"/></g><g><use transform="matrix(0.162948608398,-0.0436706542969,0.128631591797,0.260604858398,20.35,20.95)" filter="url(#filter18)" xlink:href="#c6"/></g></g><filter id="filter15"><feColorMatrix in="SourceGraphic" type="matrix" values="0.0 0.0 0.0 0.0 0.796875 0.0 0.0 0.0 0.0 0.59765625 0.0 0.0 0.0 0.0 0.19921875 0.0 0.0 0.0 1.0 0.0" result="cxform"/><feComposite operator="in" in2="SourceGraphic" result="color-xform"/></filter><filter id="filter16"><feColorMatrix in="SourceGraphic" type="matrix" values="0.0 0.0 0.0 0.0 0.99609375 0.0 0.0 0.0 0.0 0.99609375 0.0 0.0 0.0 0.0 0.99609375 0.0 0.0 0.0 1.0 0.0" result="cxform"/><feComposite operator="in" in2="SourceGraphic" result="color-xform"/></filter><filter id="filter18"><feColorMatrix in="SourceGraphic" type="matrix" values="1.0 0.0 0.0 0.0 0.0 0.0 1.0 0.0 0.0 0.0 0.0 0.0 1.0 0.0 0.0 0.0 0.0 0.0 0.23046875 0.0" result="cxform"/><feComposite operator="in" in2="SourceGraphic" result="color-xform"/></filter></defs><g><g><use transform="matrix(1.0,0.0,0.0,1.0,0.0,0.0)" xlink:href="#c1"/></g><g><use transform="matrix(1.15496826172,0.0,0.0,1.15496826172,5.85,3.95)" xlink:href="#c16"/></g></g></svg>