<?xml version='1.0' encoding='UTF-8'?>
<svg xmlns:xlink="http://www.w3.org/1999/xlink" xmlns="http://www.w3.org/2000/svg" version="1.1" width="60px" height="60px" viewBox="0.0 0.0 60.0 60.0"><defs><g id="c1"><path fill="#000000" fill-opacity="0.00392156862745" d="M0.0 0.0 L60.0 0.0 60.0 60.0 0.0 60.0 0.0 0.0"/></g><g id="c2"><path fill="none" stroke="#000000" stroke-width="1.0" stroke-opacity="0.301960784314" d="M22.3 0.35 Q26.6 -1.0 28.5 3.05 L41.4 31.7 Q43.1 35.4 39.9 36.85 L38.15 37.65 19.65 43.65 Q17.05 44.5 15.35 43.3 14.2 42.55 13.5 40.9 L0.55 12.25 Q-0.6 9.75 0.6 8.25 1.15 7.55 2.2 7.05 2.85 6.6 3.8 6.3 L22.3 0.35"/><path fill="#300525" stroke="none" d="M25.55 0.9 Q26.9 1.6 27.8 3.55 L40.7 32.15 Q42.6 36.3 38.3 37.65 L23.3 42.5 13.15 21.4 4.6 20.9 0.7 12.25 Q-0.45 9.75 0.75 8.25 L29.8 9.75 25.55 0.9 M20.1 43.55 L19.8 43.65 Q17.15 44.45 15.5 43.3 L20.1 43.55"/><path fill="#630a4c" stroke="none" d="M23.3 42.5 L20.1 43.55 15.5 43.3 Q14.35 42.55 13.65 40.9 L4.6 20.9 13.15 21.4 23.3 42.5 M0.75 8.25 Q1.45 7.3 3.1 6.75 L21.65 0.8 25.55 0.9 29.8 9.75 0.75 8.25"/><path fill="none" stroke="#000000" stroke-width="0.5" stroke-opacity="0.301960784314" d="M25.55 0.9 Q26.9 1.6 27.8 3.55 L40.7 32.15 Q42.6 36.3 38.3 37.65 L23.3 42.5 20.1 43.55 19.8 43.65 Q17.15 44.45 15.5 43.3 14.35 42.55 13.65 40.9 L4.6 20.9 0.7 12.25 Q-0.45 9.75 0.75 8.25 1.45 7.3 3.1 6.75 L21.65 0.8 25.55 0.9"/><path fill="#9d147b" stroke="none" d="M14.2 40.5 L1.35 11.8 Q-0.5 7.75 3.8 6.35 L22.3 0.4 Q26.55 -1.0 28.45 3.1 L41.35 31.7 Q43.25 35.85 38.9 37.25 L20.4 43.2 Q16.1 44.55 14.2 40.5"/><path fill="none" stroke="#000000" stroke-width="0.5" stroke-opacity="0.301960784314" d="M14.2 40.5 L1.35 11.8 Q-0.5 7.75 3.8 6.35 L22.3 0.4 Q26.55 -1.0 28.45 3.1 L41.35 31.7 Q43.25 35.85 38.9 37.25 L20.4 43.2 Q16.1 44.55 14.2 40.5"/><path fill="#fcf2cf" stroke="none" d="M9.15 13.6 Q9.8 12.8 9.55 11.6 L9.1 10.55 22.05 6.35 Q24.9 5.45 26.25 7.85 L26.5 8.3 35.8 29.0 35.95 29.35 Q34.75 29.3 34.1 30.1 33.45 30.9 33.7 32.1 L34.0 32.9 20.65 37.2 Q18.8 37.8 17.65 37.0 16.8 36.4 16.3 35.2 L6.95 14.6 6.8 14.4 7.1 14.4 Q8.4 14.45 9.15 13.6"/><path fill="#c47fad" stroke="none" d="M8.25 23.65 L3.35 12.8 Q1.65 9.1 5.5 7.85 L22.25 2.5 Q26.05 1.25 27.75 4.95 L28.25 6.1 35.55 22.3 39.35 30.75 Q41.1 34.5 37.2 35.7 L20.45 41.1 Q16.8 42.25 15.2 39.0 L15.0 38.6 8.25 23.65 M9.15 13.6 Q8.4 14.45 7.1 14.4 L6.8 14.4 6.95 14.6 16.3 35.2 Q16.8 36.4 17.65 37.0 18.8 37.8 20.65 37.2 L34.0 32.9 33.7 32.1 Q33.45 30.9 34.1 30.1 34.75 29.3 35.95 29.35 L35.8 29.0 26.5 8.3 26.25 7.85 Q24.9 5.45 22.05 6.35 L9.1 10.55 9.55 11.6 Q9.8 12.8 9.15 13.6"/><path fill="none" stroke="#ffcc00" stroke-width="1.0" stroke-opacity="0.749019607843" d="M8.25 23.65 L3.35 12.8 Q1.65 9.1 5.5 7.85 L22.25 2.5 Q26.05 1.25 27.75 4.95 L28.25 6.1 M35.55 22.3 L39.35 30.75 Q41.1 34.5 37.2 35.7 L20.45 41.1 Q16.8 42.25 15.2 39.0 L15.0 38.6"/><path fill="none" stroke="#bf9900" stroke-width="1.0" stroke-opacity="0.749019607843" d="M28.25 6.1 L35.55 22.3 M15.0 38.6 L8.25 23.65"/><path fill="none" stroke="#f0b92b" stroke-width="0.5" d="M9.15 13.6 Q9.8 12.8 9.55 11.6 L9.1 10.55 22.05 6.35 Q24.9 5.45 26.25 7.85 L26.5 8.3 35.8 29.0 35.95 29.35 Q34.75 29.3 34.1 30.1 33.45 30.9 33.7 32.1 L34.0 32.9 20.65 37.2 Q18.8 37.8 17.65 37.0 16.8 36.4 16.3 35.2 L6.95 14.6 6.8 14.4 7.1 14.4 Q8.4 14.45 9.15 13.6"/></g><g id="c3"><path fill="#7fdbfe" stroke="none" d="M10.75 4.9 Q10.75 4.6 10.9 4.35 11.25 3.45 11.95 2.75 13.3 1.5 14.35 2.1 15.4 2.7 14.95 4.45 14.7 5.4 14.1 6.15 L13.75 6.5 Q13.1 7.15 12.35 7.35 L11.4 7.2 Q10.95 6.9 10.75 6.4 10.5 5.75 10.75 4.9 M7.5 5.9 Q7.0 5.85 6.6 5.5 6.05 5.0 5.8 4.15 L5.7 3.6 Q5.55 2.65 5.8 1.7 6.25 0.0 7.5 0.0 L7.6 0.0 Q8.85 0.0 9.3 1.7 9.55 2.65 9.4 3.6 L9.3 4.15 8.5 5.5 7.6 5.9 7.5 5.9 M4.35 4.9 Q4.6 5.75 4.35 6.4 L3.7 7.2 2.75 7.35 Q2.0 7.15 1.35 6.5 L1.0 6.15 Q0.4 5.4 0.15 4.45 -0.3 2.7 0.75 2.1 1.8 1.5 3.15 2.75 3.85 3.45 4.2 4.35 L4.35 4.9 M5.5 13.7 Q4.45 13.9 3.65 12.95 2.75 12.0 3.2 10.25 3.7 8.5 5.25 7.6 6.4 6.9 7.55 7.0 8.75 6.9 9.9 7.6 11.45 8.5 11.95 10.25 12.35 12.0 11.5 12.95 10.7 13.9 9.65 13.7 8.55 13.5 7.55 12.6 6.55 13.5 5.5 13.7"/></g><g id="c4"><g><use transform="matrix(1.0,0.0,0.0,1.0,0.0,0.0)" xlink:href="#c3"/></g></g><radialGradient gradientUnits="userSpaceOnUse" r="819.2" cx="0" cy="0" spreadMethod="pad" gradientTransform="matrix(0.0914459228516,0.0,0.0,0.0914459228516,0.6,3.4)" id="gradient1"><stop offset="0.0" stop-color="#ffffff"/><stop offset="1.0" stop-color="#ffffff" stop-opacity="0.0"/></radialGradient><g id="c5"><path stroke="none" fill="url(#gradient1)" d="M36.65 -54.65 Q60.05 -42.0 69.75 -17.95 80.55 8.9 68.0 34.1 55.45 59.35 26.8 68.2 -1.8 77.05 -29.7 64.3 -57.6 51.6 -68.45 24.75 -79.3 -2.05 -66.75 -27.25 L-66.7 -27.3 Q-54.1 -52.5 -25.5 -61.4 3.1 -70.2 31.0 -57.5 L36.65 -54.65"/></g><g id="c6"><g><use transform="matrix(1.0,0.0,0.0,1.0,0.0,0.0)" xlink:href="#c5"/></g></g><radialGradient gradientUnits="userSpaceOnUse" r="819.2" cx="0" cy="0" spreadMethod="pad" gradientTransform="matrix(0.209197998047,0.0,0.0,0.177108764648,67.15,107.2)" id="gradient2"><stop offset="0.356862745098" stop-color="#ffffff"/><stop offset="0.670588235294" stop-opacity="0.0"/></radialGradient><g id="c7"><path fill="none" stroke-linejoin="round" stroke-linecap="round" stroke="url(#gradient2)" stroke-width="0.5" d="M136.55 165.8 L68.6 106.0 68.4 106.0 118.25 201.5 M68.2 105.7 L68.25 105.8 68.25 105.75 68.2 105.7 0.0 45.7 M68.25 105.8 L68.3 105.85 68.3 105.8 68.25 105.75 49.95 0.05 M0.05 97.7 L68.15 105.95 68.25 105.85 68.25 105.8 M68.3 105.85 L68.25 105.85 68.3 106.0 68.3 105.85 68.3 105.8 68.35 105.8 68.3 105.8 86.6 18.35 M50.0 193.2 L68.3 106.0 68.15 105.95 18.25 151.55 M68.4 106.0 L68.3 106.0 86.55 211.5 M68.4 106.0 L68.3 105.85 M68.6 106.0 L68.35 105.8 118.25 60.15 M136.6 114.25 L68.6 106.0 M68.2 105.7 L18.25 10.05"/></g><g id="c8"><g><use transform="matrix(1.0,0.0,0.0,1.0,0.0,0.0)" xlink:href="#c7"/></g></g><g id="c9"><path fill="#854413" stroke="none" d="M23.55 14.05 L22.85 15.1 23.85 14.1 Q23.5 14.6 23.55 15.1 L24.0 15.95 24.25 16.6 Q25.3 15.6 26.75 14.95 L26.95 14.5 25.3 15.4 25.05 14.65 Q24.45 15.1 24.3 15.6 23.8 14.55 24.5 13.8 L24.05 13.9 23.55 14.05 M24.4 16.3 Q24.75 15.65 25.3 15.4 24.75 15.65 24.4 16.3 M22.05 15.1 L21.75 14.65 Q21.4 15.05 21.55 15.7 L21.6 15.9 Q21.75 15.4 22.05 15.1"/><path fill="#a25618" stroke="none" d="M26.75 14.95 Q25.3 15.6 24.25 16.6 L24.0 15.95 23.55 15.1 Q23.5 14.6 23.85 14.1 L22.85 15.1 23.55 14.05 Q22.6 14.4 22.05 15.1 21.75 15.4 21.6 15.9 L21.55 15.7 Q21.4 15.05 21.75 14.65 L21.75 14.6 21.3 14.95 20.55 15.85 20.55 15.9 Q20.2 16.55 20.2 18.65 L26.85 18.8 28.1 16.35 Q28.3 15.15 27.15 14.1 L26.95 14.5 26.75 14.95 26.5 15.55 26.75 14.95 M21.55 16.0 L21.6 15.9 21.55 16.0"/><path fill="#945013" stroke="none" d="M21.75 14.65 L21.75 14.6 21.75 14.65"/><path fill="none" stroke="#000000" stroke-width="0.5" stroke-opacity="0.301960784314" d="M23.55 14.05 L24.05 13.9 24.5 13.8 Q23.8 14.55 24.3 15.6 24.45 15.1 25.05 14.65 L25.3 15.4 Q24.75 15.65 24.4 16.3 M22.05 15.1 L21.75 14.65 21.75 14.6 21.3 14.95 20.55 15.85 20.55 15.9 M28.1 16.35 Q28.3 15.15 27.15 14.1 L26.95 14.5 25.3 15.4 M21.6 15.9 L21.55 16.0 M22.05 15.1 Q21.75 15.4 21.6 15.9 M22.05 15.1 Q22.6 14.4 23.55 14.05 M26.95 14.5 L26.75 14.95 26.5 15.55"/><path fill="#d56d16" stroke="none" d="M26.6 15.15 Q25.85 16.25 25.85 17.05 L26.0 17.45 26.45 16.9 26.45 16.95 Q27.1 17.7 27.0 18.3 28.25 17.1 27.1 15.0 L26.55 15.9 26.6 15.15 M21.2 15.3 Q20.2 16.7 20.65 17.85 L21.25 17.55 21.2 15.3"/><path fill="#854413" stroke="none" d="M16.8 16.1 L17.9 16.65 16.5 16.35 Q17.05 16.55 17.3 17.05 L17.35 18.0 17.4 18.75 14.4 18.5 14.1 18.25 15.95 18.15 15.8 17.4 Q16.5 17.45 16.85 17.85 16.85 16.7 15.85 16.35 L16.2 16.25 16.8 16.1 M17.15 18.55 Q16.5 18.1 15.95 18.15 16.5 18.1 17.15 18.55 M18.6 16.25 L18.6 15.8 Q19.15 15.9 19.3 16.55 L19.35 16.75 18.6 16.25"/><path fill="#a25618" stroke="none" d="M14.4 18.5 L17.4 18.75 17.35 18.0 17.3 17.05 Q17.05 16.55 16.5 16.35 L17.9 16.65 16.8 16.1 18.6 16.25 19.35 16.75 19.3 16.55 Q19.15 15.9 18.6 15.8 L18.6 15.75 19.15 15.8 20.3 16.2 20.3 16.25 Q20.85 16.6 21.95 18.5 L16.3 21.95 13.95 20.4 Q13.25 19.5 13.7 17.95 L14.1 18.25 14.4 18.5 14.95 18.9 14.4 18.5 M19.5 16.85 L19.35 16.75 19.5 16.85"/><path fill="#945013" stroke="none" d="M18.6 15.8 L18.6 15.75 18.6 15.8"/><path fill="none" stroke="#000000" stroke-width="0.5" stroke-opacity="0.301960784314" d="M16.8 16.1 L16.2 16.25 15.85 16.35 Q16.85 16.7 16.85 17.85 16.5 17.45 15.8 17.4 L15.95 18.15 Q16.5 18.1 17.15 18.55 M18.6 16.25 L18.6 15.8 18.6 15.75 19.15 15.8 20.3 16.2 20.3 16.25 M13.95 20.4 Q13.25 19.5 13.7 17.95 L14.1 18.25 15.95 18.15 M19.35 16.75 L19.5 16.85 M18.6 16.25 L19.35 16.75 M18.6 16.25 L16.8 16.1 M14.1 18.25 L14.4 18.5 14.95 18.9"/><path fill="#d56d16" stroke="none" d="M19.45 16.05 Q20.95 16.75 21.2 18.0 L20.5 18.0 19.45 16.05 M14.65 18.6 Q15.9 19.2 16.3 19.9 L16.35 20.3 15.7 20.05 15.7 20.1 Q15.55 21.05 15.95 21.55 14.2 21.15 14.15 18.75 L15.1 19.25 14.65 18.6"/><path fill="#d56d16" stroke="none" d="M25.45 16.75 Q26.05 16.1 25.95 15.55 L24.95 16.7 24.8 17.25 25.45 16.75 M26.7 16.1 L26.7 16.15 Q25.75 16.8 25.9 17.15 L26.2 16.95 26.25 16.95 27.05 16.55 26.05 17.2 28.4 16.5 27.4 16.45 29.05 16.3 26.7 16.1 M14.0 19.35 L15.25 19.45 14.45 19.2 16.25 19.25 16.25 19.1 16.25 19.15 16.25 19.05 15.9 19.0 Q15.0 18.8 13.9 19.0 L14.0 19.35 M25.75 18.1 L25.7 18.1 25.85 18.2 25.75 18.1 25.85 18.2 26.3 18.35 26.15 18.45 26.35 18.75 26.9 18.75 27.45 18.55 26.5 18.4 28.25 18.35 Q26.9 17.55 25.75 18.1"/><path fill="#854413" stroke="none" d="M25.45 16.75 L26.1 16.4 Q26.25 16.0 25.95 15.55 26.05 16.1 25.45 16.75 M29.8 16.5 Q28.3 16.75 26.65 17.65 L28.2 18.05 29.35 16.8 29.8 16.5 M14.1 22.45 L12.3 23.2 11.65 23.55 11.65 23.75 12.15 23.55 13.9 23.45 14.05 22.6 14.1 22.45 M13.8 20.35 L14.35 20.2 13.3 19.95 Q13.4 20.45 13.8 20.35 M13.35 23.0 L12.15 23.55 13.35 23.0 M17.25 24.85 Q16.55 25.6 15.75 25.75 15.9 24.75 15.5 23.45 L14.95 24.15 Q15.55 25.5 15.2 26.65 L15.65 26.35 Q16.6 25.85 17.25 24.85 M29.25 20.85 L29.8 20.6 Q28.75 20.35 28.0 19.2 L27.5 19.25 Q28.2 20.5 29.25 20.85 M28.2 17.45 L29.35 16.8 28.2 17.45"/><path fill="#a25618" stroke="none" d="M26.1 16.4 L25.45 16.75 24.8 17.25 24.75 17.6 25.75 18.1 Q26.9 17.55 28.25 18.35 L26.5 18.4 27.45 18.55 26.9 18.75 26.35 18.75 26.4 19.0 Q26.7 20.05 25.65 21.15 L26.95 21.3 29.25 20.85 Q28.2 20.5 27.5 19.25 L28.0 19.2 29.7 19.15 Q29.25 18.4 28.2 18.05 L26.65 17.65 Q28.3 16.75 29.8 16.5 L29.05 16.3 27.4 16.45 28.4 16.5 26.05 17.2 27.05 16.55 26.25 16.95 26.2 16.95 25.9 17.15 Q25.75 16.8 26.7 16.15 L26.7 16.1 Q26.35 16.2 26.1 16.4 M25.55 17.8 L26.65 17.65 25.55 17.8 M16.65 19.2 L16.25 19.05 16.25 19.15 16.25 19.1 16.25 19.25 14.45 19.2 15.25 19.45 14.0 19.35 14.1 19.75 14.45 19.7 14.1 19.75 13.3 19.85 13.3 19.95 14.35 20.2 13.8 20.35 Q12.25 20.95 11.65 23.55 L12.3 23.2 14.1 22.45 14.3 21.95 15.0 21.1 14.3 21.95 14.1 22.45 14.05 22.6 13.9 23.45 14.0 25.5 14.95 24.15 15.5 23.45 Q15.9 24.75 15.75 25.75 16.55 25.6 17.25 24.85 L17.4 24.7 17.85 23.8 17.2 23.7 Q15.3 23.3 14.95 22.1 14.85 21.6 15.0 21.1 15.25 20.4 16.15 19.65 L16.65 19.2 M14.75 20.0 L14.35 20.2 14.75 20.0 M25.85 18.2 L26.15 18.45 26.3 18.35 25.85 18.2 M27.2 19.3 L27.5 19.25 27.2 19.3"/><path fill="none" stroke="#000000" stroke-width="0.5" stroke-opacity="0.2" d="M26.1 16.4 L25.45 16.75 M25.95 15.55 Q26.25 16.0 26.1 16.4 26.35 16.2 26.7 16.1 L29.05 16.3 29.8 16.5 M26.65 17.65 L25.55 17.8 M24.95 16.7 L25.95 15.55 M16.25 19.05 L16.65 19.2 M15.0 21.1 L14.3 21.95 14.1 22.45 14.05 22.6 13.9 23.45 12.15 23.55 13.35 23.0 M11.65 23.55 Q12.25 20.95 13.8 20.35 L14.35 20.2 14.75 20.0 M14.0 19.35 L13.9 19.0 Q15.0 18.8 15.9 19.0 L16.25 19.05 M14.1 19.75 L14.0 19.35 M14.1 19.75 L14.45 19.7 M13.3 19.95 L13.3 19.85 14.1 19.75 M14.95 24.15 L14.0 25.5 13.9 23.45 M12.15 23.55 L11.65 23.75 11.65 23.55 M15.1 21.05 L15.0 21.1 M17.4 24.7 L17.25 24.85 M15.5 23.45 L14.95 24.15 Q15.55 25.5 15.2 26.65 L15.65 26.35 Q16.6 25.85 17.25 24.85 M24.8 17.25 L25.45 16.75 M26.95 21.3 L29.25 20.85 29.8 20.6 Q28.75 20.35 28.0 19.2 L29.7 19.15 Q29.25 18.4 28.2 18.05 L29.35 16.8 29.8 16.5 M13.8 20.35 Q13.4 20.45 13.3 19.95 M27.5 19.25 L28.0 19.2 M27.5 19.25 L27.2 19.3 M29.35 16.8 L28.2 17.45 M28.2 18.05 L26.65 17.65"/><path fill="none" stroke="#000000" stroke-width="0.5" stroke-opacity="0.2" d="M16.65 19.2 L16.15 19.65 Q15.25 20.4 15.0 21.1 14.85 21.6 14.95 22.1 15.3 23.3 17.2 23.7 L17.85 23.8 M25.75 18.1 L24.75 17.6 M25.75 18.1 L25.85 18.2 26.15 18.45 26.35 18.75 26.4 19.0 Q26.7 20.05 25.65 21.15"/></g><g id="c10"><path fill="#b9a870" stroke="none" d="M31.75 17.35 L31.75 29.0 Q31.8 30.2 33.5 31.05 35.25 31.95 37.75 31.95 40.25 31.95 42.0 31.05 43.45 30.3 43.65 29.3 L43.7 29.0 43.7 28.1 43.7 19.55 43.7 17.35 Q43.65 18.55 42.0 19.4 L41.6 19.6 41.55 19.65 41.5 19.65 39.8 20.85 37.15 20.3 Q35.05 20.2 33.5 19.4 31.8 18.55 31.75 17.35"/><path fill="#f5e79f" stroke="none" d="M43.7 17.35 L43.7 17.25 Q43.65 16.05 42.0 15.2 L40.8 14.75 37.75 14.3 Q35.25 14.3 33.5 15.2 L33.45 15.25 33.4 15.25 33.35 15.3 33.3 15.3 33.25 15.35 33.2 15.35 33.15 15.4 32.9 15.55 Q31.75 16.3 31.75 17.3 L31.75 17.35 Q31.8 18.55 33.5 19.4 35.05 20.2 37.15 20.3 L37.2 20.3 41.4 19.7 41.5 19.65 41.6 19.6 42.0 19.4 Q43.65 18.55 43.7 17.35 M41.0 18.35 L40.6 18.55 Q39.4 19.15 37.7 19.15 L35.6 18.9 34.8 18.55 Q33.65 18.0 33.6 17.15 33.6 16.25 34.8 15.7 36.0 15.1 37.7 15.1 39.4 15.1 40.6 15.7 41.75 16.25 41.75 17.15 41.75 17.85 41.0 18.35"/><path fill="#94865a" stroke="none" d="M41.0 18.35 Q41.75 17.85 41.75 17.15 41.75 16.25 40.6 15.7 39.4 15.1 37.7 15.1 36.0 15.1 34.8 15.7 33.6 16.25 33.6 17.15 33.65 18.0 34.8 18.55 L35.6 18.9 37.7 19.15 Q39.4 19.15 40.6 18.55 L41.0 18.35"/><path fill="#fbf2d0" stroke="none" d="M41.6 19.6 L41.5 19.65 41.4 19.7 37.2 20.3 37.15 20.3 39.8 20.85 41.5 19.65 41.55 19.65 41.6 19.6"/><path fill="none" stroke="#000000" stroke-width="0.5" stroke-opacity="0.2" d="M43.7 17.35 L43.7 17.25 Q43.65 16.05 42.0 15.2 L40.8 14.75 37.75 14.3 Q35.25 14.3 33.5 15.2 L33.45 15.25 33.4 15.25 33.35 15.3 33.3 15.3 33.25 15.35 33.2 15.35 33.15 15.4 32.9 15.55 Q31.75 16.3 31.75 17.3 L31.75 17.35 31.75 29.0 Q31.8 30.2 33.5 31.05 35.25 31.95 37.75 31.95 40.25 31.95 42.0 31.05 43.45 30.3 43.65 29.3 L43.7 29.0 43.7 28.1 M43.7 19.55 L43.7 17.35 M41.0 18.35 Q41.75 17.85 41.75 17.15 41.75 16.25 40.6 15.7 39.4 15.1 37.7 15.1 36.0 15.1 34.8 15.7 33.6 16.25 33.6 17.15 33.65 18.0 34.8 18.55 L35.6 18.9 37.7 19.15 Q39.4 19.15 40.6 18.55 L41.0 18.35"/><path fill="#b9a870" stroke="none" d="M68.5 22.85 L68.5 34.5 Q68.45 35.7 66.75 36.55 65.0 37.45 62.5 37.45 60.0 37.45 58.25 36.55 56.8 35.8 56.6 34.8 L56.55 34.5 56.55 33.6 56.55 25.05 56.55 22.85 Q56.6 24.05 58.25 24.9 L58.65 25.1 58.7 25.15 58.75 25.15 60.45 26.35 63.1 25.8 Q65.2 25.7 66.75 24.9 68.45 24.05 68.5 22.85"/><path fill="#f5e79f" stroke="none" d="M56.55 22.85 L56.55 22.75 Q56.6 21.55 58.25 20.7 58.8 20.4 59.45 20.25 L62.5 19.8 Q65.0 19.8 66.75 20.7 L66.8 20.75 66.85 20.75 66.9 20.8 66.95 20.8 67.0 20.85 67.05 20.85 67.1 20.9 67.35 21.05 Q68.5 21.8 68.5 22.8 L68.5 22.85 Q68.45 24.05 66.75 24.9 65.2 25.7 63.1 25.8 L63.05 25.8 58.85 25.2 58.75 25.15 58.65 25.1 58.25 24.9 Q56.6 24.05 56.55 22.85 M58.5 22.65 Q58.5 23.35 59.25 23.85 L59.65 24.05 Q60.85 24.65 62.55 24.65 L64.65 24.4 65.45 24.05 Q66.6 23.5 66.65 22.65 66.65 21.75 65.45 21.2 64.25 20.6 62.55 20.6 60.85 20.6 59.65 21.2 58.5 21.75 58.5 22.65"/><path fill="#94865a" stroke="none" d="M58.5 22.65 Q58.5 21.75 59.65 21.2 60.85 20.6 62.55 20.6 64.25 20.6 65.45 21.2 66.65 21.75 66.65 22.65 66.6 23.5 65.45 24.05 L64.65 24.4 62.55 24.65 Q60.85 24.65 59.65 24.05 L59.25 23.85 Q58.5 23.35 58.5 22.65"/><path fill="#fbf2d0" stroke="none" d="M58.65 25.1 L58.75 25.15 58.85 25.2 63.05 25.8 63.1 25.8 60.45 26.35 58.75 25.15 58.7 25.15 58.65 25.1"/><path fill="none" stroke="#000000" stroke-width="0.5" stroke-opacity="0.2" d="M56.55 22.85 L56.55 22.75 Q56.6 21.55 58.25 20.7 58.8 20.4 59.45 20.25 L62.5 19.8 Q65.0 19.8 66.75 20.7 L66.8 20.75 66.85 20.75 66.9 20.8 66.95 20.8 67.0 20.85 67.05 20.85 67.1 20.9 67.35 21.05 Q68.5 21.8 68.5 22.8 L68.5 22.85 68.5 34.5 Q68.45 35.7 66.75 36.55 65.0 37.45 62.5 37.45 60.0 37.45 58.25 36.55 56.8 35.8 56.6 34.8 L56.55 34.5 56.55 33.6 M56.55 25.05 L56.55 22.85 M58.5 22.65 Q58.5 21.75 59.65 21.2 60.85 20.6 62.55 20.6 64.25 20.6 65.45 21.2 66.65 21.75 66.65 22.65 66.6 23.5 65.45 24.05 L64.65 24.4 62.55 24.65 Q60.85 24.65 59.65 24.05 L59.25 23.85 Q58.5 23.35 58.5 22.65"/><path fill="#b9a870" stroke="none" d="M4.45 22.65 L4.45 34.3 Q4.5 35.5 6.2 36.35 7.95 37.25 10.45 37.25 12.95 37.25 14.7 36.35 16.15 35.6 16.35 34.6 L16.4 34.3 16.4 33.4 16.4 24.85 16.4 22.65 Q16.35 23.85 14.7 24.7 L14.3 24.9 14.25 24.95 14.2 24.95 12.5 26.15 9.85 25.6 Q7.75 25.5 6.2 24.7 4.5 23.85 4.45 22.65"/><path fill="#f5e79f" stroke="none" d="M16.4 22.65 L16.4 22.55 Q16.35 21.35 14.7 20.5 14.15 20.2 13.5 20.05 L10.45 19.6 Q7.95 19.6 6.2 20.5 L6.15 20.55 6.1 20.55 6.05 20.6 6.0 20.6 5.95 20.65 5.9 20.65 5.85 20.7 5.6 20.85 Q4.45 21.6 4.45 22.6 L4.45 22.65 Q4.5 23.85 6.2 24.7 7.75 25.5 9.85 25.6 L9.9 25.6 14.1 25.0 14.2 24.95 14.3 24.9 14.7 24.7 Q16.35 23.85 16.4 22.65 M13.3 21.0 Q14.45 21.55 14.45 22.45 14.45 23.15 13.7 23.65 L13.3 23.85 Q12.1 24.45 10.4 24.45 L8.3 24.2 7.5 23.85 Q6.35 23.3 6.3 22.45 6.3 21.55 7.5 21.0 8.7 20.4 10.4 20.4 12.1 20.4 13.3 21.0"/><path fill="#94865a" stroke="none" d="M13.3 21.0 Q12.1 20.4 10.4 20.4 8.7 20.4 7.5 21.0 6.3 21.55 6.3 22.45 6.35 23.3 7.5 23.85 L8.3 24.2 10.4 24.45 Q12.1 24.45 13.3 23.85 L13.7 23.65 Q14.45 23.15 14.45 22.45 14.45 21.55 13.3 21.0"/><path fill="#fbf2d0" stroke="none" d="M14.3 24.9 L14.2 24.95 14.1 25.0 9.9 25.6 9.85 25.6 12.5 26.15 14.2 24.95 14.25 24.95 14.3 24.9"/><path fill="none" stroke="#000000" stroke-width="0.5" stroke-opacity="0.2" d="M16.4 22.65 L16.4 22.55 Q16.35 21.35 14.7 20.5 14.15 20.2 13.5 20.05 L10.45 19.6 Q7.95 19.6 6.2 20.5 L6.15 20.55 6.1 20.55 6.05 20.6 6.0 20.6 5.95 20.65 5.9 20.65 5.85 20.7 5.6 20.85 Q4.45 21.6 4.45 22.6 L4.45 22.65 4.45 34.3 Q4.5 35.5 6.2 36.35 7.95 37.25 10.45 37.25 12.95 37.25 14.7 36.35 16.15 35.6 16.35 34.6 L16.4 34.3 16.4 33.4 M16.4 24.85 L16.4 22.65 M13.3 21.0 Q12.1 20.4 10.4 20.4 8.7 20.4 7.5 21.0 6.3 21.55 6.3 22.45 6.35 23.3 7.5 23.85 L8.3 24.2 10.4 24.45 Q12.1 24.45 13.3 23.85 L13.7 23.65 Q14.45 23.15 14.45 22.45 14.45 21.55 13.3 21.0"/><path fill="#b9a870" stroke="none" d="M14.65 9.15 Q13.9 9.45 14.0 11.05 14.05 12.55 15.7 14.3 L16.35 14.9 16.4 14.95 Q17.65 15.9 19.35 16.3 18.9 17.25 17.75 17.9 14.3 19.9 14.15 21.35 L14.15 21.55 14.1 23.25 13.95 23.35 13.55 23.55 12.4 24.0 11.4 24.15 10.55 24.2 8.45 23.9 7.6 23.55 6.95 23.3 6.75 19.75 Q6.55 17.65 3.35 15.8 0.2 14.0 0.0 12.0 0.3 12.85 1.1 13.25 1.95 13.65 3.6 13.65 7.3 13.65 9.4 11.55 11.15 9.85 11.15 7.8 11.15 7.05 10.5 6.3 L9.7 5.7 Q12.1 6.45 12.7 10.65 13.65 9.25 14.65 9.15 M12.4 12.6 Q11.25 14.55 8.45 15.85 L12.15 15.95 13.5 16.6 Q11.55 14.7 12.3 12.85 L12.4 12.6"/><path fill="#94865a" stroke="none" d="M12.4 12.6 L12.3 12.85 Q11.55 14.7 13.5 16.6 L12.15 15.95 8.45 15.85 Q11.25 14.55 12.4 12.6"/><path fill="#c9b67a" stroke="none" d="M15.8 9.5 L15.05 9.4 Q14.75 9.45 14.6 9.75 14.35 10.05 14.4 10.95 14.5 11.9 15.25 12.7 L16.45 13.75 17.3 14.2 17.5 14.25 17.8 14.1 17.8 13.95 17.95 14.0 Q18.65 14.35 18.8 14.0 L18.85 13.25 18.8 13.05 18.55 12.5 18.95 13.15 Q19.95 15.0 19.35 16.3 17.65 15.9 16.4 14.95 L16.35 14.9 15.7 14.3 Q14.05 12.55 14.0 11.05 13.9 9.45 14.65 9.15 L15.5 9.35 15.8 9.5 M0.05 11.55 Q0.3 12.3 1.0 12.7 L3.35 13.1 Q6.8 13.1 8.75 11.1 10.35 9.55 10.35 7.7 10.35 6.95 9.7 6.25 L9.0 5.7 8.3 5.55 9.7 5.7 10.5 6.3 Q11.15 7.05 11.15 7.8 11.15 9.85 9.4 11.55 7.3 13.65 3.6 13.65 1.95 13.65 1.1 13.25 0.3 12.85 0.0 12.0 L0.05 11.55"/><path fill="#f5e7a0" stroke="none" d="M18.55 12.5 L18.8 13.05 18.85 13.25 18.8 14.0 Q18.65 14.35 17.95 14.0 L17.8 13.95 17.8 14.1 17.5 14.25 17.3 14.2 16.45 13.75 15.25 12.7 Q14.5 11.9 14.4 10.95 14.35 10.05 14.6 9.75 14.75 9.45 15.05 9.4 L15.8 9.5 16.0 9.55 Q16.8 10.1 17.65 11.35 L18.55 12.5 M8.3 5.55 L9.0 5.7 9.7 6.25 Q10.35 6.95 10.35 7.7 10.35 9.55 8.75 11.1 6.8 13.1 3.35 13.1 L1.0 12.7 Q0.3 12.3 0.05 11.55 0.25 9.35 4.35 6.95 5.35 6.45 6.2 6.1 L8.3 5.55"/><path fill="none" stroke="#000000" stroke-width="0.5" stroke-opacity="0.2" d="M18.55 12.5 L17.65 11.35 Q16.8 10.1 16.0 9.55 L15.8 9.5 15.5 9.35 14.65 9.15 M19.35 16.3 Q19.95 15.0 18.95 13.15 L18.55 12.5 M9.7 5.7 Q12.1 6.45 12.7 10.65 13.65 9.25 14.65 9.15 M8.3 5.55 L6.2 6.1 Q5.35 6.45 4.35 6.95 0.25 9.35 0.05 11.55 M9.7 5.7 L8.3 5.55 M14.1 23.25 L13.95 23.35 13.55 23.55 12.4 24.0 11.4 24.15 10.55 24.2 8.45 23.9 7.6 23.55 6.95 23.3 6.75 19.75 Q6.55 17.65 3.35 15.8 0.2 14.0 0.0 12.0 M14.15 21.55 L14.15 22.3 14.15 23.2 14.1 23.25 14.15 21.55 14.15 21.35 Q14.3 19.9 17.75 17.9 18.9 17.25 19.35 16.3"/><path fill="#b9a870" stroke="none" d="M63.45 5.7 Q61.05 6.45 60.45 10.65 59.5 9.25 58.5 9.15 59.25 9.45 59.15 11.05 59.1 12.55 57.45 14.3 L56.8 14.9 56.75 14.95 Q55.5 15.9 53.8 16.3 54.25 17.25 55.4 17.9 58.85 19.9 59.0 21.35 L59.0 21.55 59.05 23.25 59.2 23.35 59.6 23.55 60.75 24.0 61.75 24.15 62.6 24.2 64.7 23.9 65.55 23.55 66.2 23.3 66.4 19.75 Q66.6 17.65 69.8 15.8 72.95 14.0 73.15 12.0 L72.05 13.25 69.55 13.65 Q65.85 13.65 63.75 11.55 62.0 9.85 62.0 7.8 62.0 7.05 62.65 6.3 L63.45 5.7 M60.75 12.6 Q61.9 14.55 64.7 15.85 L61.0 15.95 59.65 16.6 Q61.6 14.7 60.85 12.85 L60.75 12.6"/><path fill="#94865a" stroke="none" d="M60.75 12.6 L60.85 12.85 Q61.6 14.7 59.65 16.6 L61.0 15.95 64.7 15.85 Q61.9 14.55 60.75 12.6"/><path fill="#c9b67a" stroke="none" d="M63.45 5.7 L62.65 6.3 Q62.0 7.05 62.0 7.8 62.0 9.85 63.75 11.55 65.85 13.65 69.55 13.65 L72.05 13.25 73.15 12.0 73.1 11.55 Q72.85 12.3 72.15 12.7 L69.8 13.1 Q66.35 13.1 64.4 11.1 62.8 9.55 62.8 7.7 62.8 6.95 63.45 6.25 L64.15 5.7 64.85 5.55 63.45 5.7 M53.8 16.3 Q55.5 15.9 56.75 14.95 L56.8 14.9 57.45 14.3 Q59.1 12.55 59.15 11.05 59.25 9.45 58.5 9.15 L57.65 9.35 57.35 9.5 58.1 9.4 58.55 9.75 58.75 10.95 Q58.65 11.9 57.9 12.7 L56.7 13.75 55.85 14.2 55.65 14.25 Q55.4 14.25 55.35 14.1 L55.35 13.95 55.2 14.0 Q54.5 14.35 54.35 14.0 L54.3 13.25 54.35 13.05 54.6 12.5 54.2 13.15 Q53.2 15.0 53.8 16.3"/><path fill="#f5e7a0" stroke="none" d="M57.35 9.5 L57.15 9.55 Q56.35 10.1 55.5 11.35 L54.6 12.5 54.35 13.05 54.3 13.25 54.35 14.0 Q54.5 14.35 55.2 14.0 L55.35 13.95 55.35 14.1 Q55.4 14.25 55.65 14.25 L55.85 14.2 56.7 13.75 57.9 12.7 Q58.65 11.9 58.75 10.95 L58.55 9.75 58.1 9.4 57.35 9.5 M64.85 5.55 L64.15 5.7 63.45 6.25 Q62.8 6.95 62.8 7.7 62.8 9.55 64.4 11.1 66.35 13.1 69.8 13.1 L72.15 12.7 Q72.85 12.3 73.1 11.55 72.9 9.35 68.8 6.95 L66.95 6.1 64.85 5.55"/><path fill="none" stroke="#000000" stroke-width="0.5" stroke-opacity="0.2" d="M58.5 9.15 Q59.5 9.25 60.45 10.65 61.05 6.45 63.45 5.7 L64.85 5.55 66.95 6.1 68.8 6.95 Q72.9 9.35 73.1 11.55 M73.15 12.0 Q72.95 14.0 69.8 15.8 66.6 17.65 66.4 19.75 L66.2 23.3 65.55 23.55 64.7 23.9 62.6 24.2 61.75 24.15 60.75 24.0 59.6 23.55 59.2 23.35 59.05 23.25 59.0 21.55 59.0 21.35 Q58.85 19.9 55.4 17.9 54.25 17.25 53.8 16.3 M58.5 9.15 L57.65 9.35 57.35 9.5 57.15 9.55 Q56.35 10.1 55.5 11.35 L54.6 12.5 54.2 13.15 Q53.2 15.0 53.8 16.3 M59.0 21.55 L59.0 22.3 59.0 23.2 59.05 23.25"/><path fill="#b9a870" stroke="none" d="M38.6 0.15 Q36.2 0.9 35.6 5.1 34.65 3.7 33.65 3.6 34.4 3.9 34.3 5.5 34.25 7.0 32.6 8.75 L31.95 9.35 31.9 9.4 Q30.65 10.35 28.95 10.75 29.4 11.7 30.55 12.35 34.0 14.35 34.15 15.8 L34.15 16.0 34.2 17.7 34.35 17.8 34.75 18.0 35.9 18.45 36.9 18.6 37.75 18.65 39.85 18.35 40.7 18.0 41.35 17.75 41.55 14.2 Q41.75 12.1 44.95 10.25 48.1 8.45 48.3 6.45 48.0 7.3 47.2 7.7 L44.7 8.1 Q41.0 8.1 38.9 6.0 37.15 4.3 37.15 2.25 37.15 1.5 37.8 0.75 38.15 0.35 38.6 0.15 M35.9 7.05 Q37.05 9.0 39.85 10.3 L36.15 10.4 34.8 11.05 Q36.75 9.15 36.0 7.3 L35.9 7.05"/><path fill="#94865a" stroke="none" d="M35.9 7.05 L36.0 7.3 Q36.75 9.15 34.8 11.05 L36.15 10.4 39.85 10.3 Q37.05 9.0 35.9 7.05"/><path fill="#c9b67a" stroke="none" d="M38.6 0.15 Q38.15 0.35 37.8 0.75 37.15 1.5 37.15 2.25 37.15 4.3 38.9 6.0 41.0 8.1 44.7 8.1 L47.2 7.7 Q48.0 7.3 48.3 6.45 L48.25 6.0 47.3 7.15 44.95 7.55 Q41.5 7.55 39.55 5.55 37.95 4.0 37.95 2.15 37.95 1.4 38.6 0.7 L39.3 0.15 40.0 0.0 38.6 0.15 M28.95 10.75 Q30.65 10.35 31.9 9.4 L31.95 9.35 32.6 8.75 Q34.25 7.0 34.3 5.5 34.4 3.9 33.65 3.6 L32.8 3.8 32.5 3.95 33.25 3.85 33.7 4.2 33.9 5.4 Q33.8 6.35 33.05 7.15 L31.85 8.2 31.0 8.65 30.8 8.7 30.5 8.55 30.5 8.4 30.35 8.45 Q29.65 8.8 29.5 8.45 L29.45 7.7 29.5 7.5 29.75 6.95 29.35 7.6 Q28.35 9.45 28.95 10.75"/><path fill="#f5e7a0" stroke="none" d="M32.5 3.95 L32.3 4.0 Q31.5 4.55 30.65 5.8 L29.75 6.95 29.5 7.5 29.45 7.7 29.5 8.45 Q29.65 8.8 30.35 8.45 L30.5 8.4 30.5 8.55 30.8 8.7 31.0 8.65 31.85 8.2 33.05 7.15 Q33.8 6.35 33.9 5.4 L33.7 4.2 33.25 3.85 32.5 3.95 M40.0 0.0 L39.3 0.15 38.6 0.7 Q37.95 1.4 37.95 2.15 37.95 4.0 39.55 5.55 41.5 7.55 44.95 7.55 L47.3 7.15 48.25 6.0 Q48.05 3.8 43.95 1.4 L42.1 0.55 40.0 0.0"/><path fill="none" stroke="#000000" stroke-width="0.5" stroke-opacity="0.2" d="M33.65 3.6 Q34.65 3.7 35.6 5.1 36.2 0.9 38.6 0.15 L40.0 0.0 42.1 0.55 43.95 1.4 Q48.05 3.8 48.25 6.0 M48.3 6.45 Q48.1 8.45 44.95 10.25 41.75 12.1 41.55 14.2 L41.35 17.75 40.7 18.0 39.85 18.35 37.75 18.65 36.9 18.6 35.9 18.45 34.75 18.0 34.35 17.8 34.2 17.7 34.15 16.0 34.15 15.8 Q34.0 14.35 30.55 12.35 29.4 11.7 28.95 10.75 M33.65 3.6 L32.8 3.8 32.5 3.95 32.3 4.0 Q31.5 4.55 30.65 5.8 L29.75 6.95 29.35 7.6 Q28.35 9.45 28.95 10.75 M34.15 16.0 L34.15 16.75 34.15 17.65 34.2 17.7"/></g><g id="c11"><g><use transform="matrix(1.0,0.0,0.0,1.0,0.0,0.0)" xlink:href="#c10"/></g></g><g id="c12"><path fill="#a25618" stroke="none" d="M28.9 20.25 L28.2 20.1 27.35 20.1 24.35 22.45 26.45 24.55 Q27.45 25.35 28.5 25.65 27.95 24.75 28.2 23.35 L28.6 23.65 29.95 24.65 Q30.1 23.75 29.5 22.9 29.1 22.0 28.5 21.5 30.4 21.9 31.7 22.7 L31.3 22.05 29.85 21.1 30.7 21.75 28.35 20.8 29.55 20.95 28.7 20.75 28.6 20.7 28.3 20.6 29.55 20.45 29.6 20.45 28.9 20.25 M27.55 20.95 Q28.1 21.15 28.5 21.5 28.1 21.15 27.55 20.95 M27.8 21.85 L27.55 21.3 Q28.75 21.6 29.35 23.1 L28.0 22.0 28.6 22.75 28.0 22.55 27.1 21.6 27.8 21.85 M28.2 23.35 L27.9 23.15 28.2 23.35"/><path fill="#d56d16" stroke="none" d="M28.2 20.1 Q29.05 20.0 29.4 19.5 L27.8 19.75 27.35 20.1 28.2 20.1 M31.3 22.05 Q30.45 20.85 29.6 20.45 L29.55 20.45 28.3 20.6 28.6 20.7 28.7 20.75 29.55 20.95 28.35 20.8 30.7 21.75 29.85 21.1 31.3 22.05 M27.8 21.85 L27.1 21.6 28.0 22.55 28.6 22.75 28.0 22.0 29.35 23.1 Q28.75 21.6 27.55 21.3 L27.8 21.85"/><path fill="#854413" stroke="none" d="M28.9 20.25 Q29.25 20.05 29.4 19.5 29.05 20.0 28.2 20.1 L28.9 20.25 M28.5 25.65 L29.15 25.8 Q28.45 24.9 28.6 23.65 L28.2 23.35 Q27.95 24.75 28.5 25.65 M29.5 22.9 L31.2 22.6 31.7 22.7 Q30.4 21.9 28.5 21.5 29.1 22.0 29.5 22.9 M29.85 22.35 L31.2 22.6 29.85 22.35"/><path fill="none" stroke="#000000" stroke-width="0.5" stroke-opacity="0.301960784314" d="M29.4 19.5 Q29.25 20.05 28.9 20.25 L28.2 20.1 27.35 20.1 M29.4 19.5 L27.8 19.75 M26.45 24.55 Q27.45 25.35 28.5 25.65 L29.15 25.8 Q28.45 24.9 28.6 23.65 L29.95 24.65 Q30.1 23.75 29.5 22.9 L31.2 22.6 31.7 22.7 31.3 22.05 Q30.45 20.85 29.6 20.45 L28.9 20.25 M28.5 21.5 Q28.1 21.15 27.55 20.95 M27.9 23.15 L28.2 23.35 28.6 23.65 M31.2 22.6 L29.85 22.35 M29.5 22.9 Q29.1 22.0 28.5 21.5"/><path fill="#a25618" stroke="none" d="M14.95 24.6 L14.75 25.0 14.95 24.6 M14.55 24.6 L14.3 24.85 14.55 24.6 M14.0 24.6 L14.3 24.85 13.75 25.4 13.8 25.5 Q14.35 25.55 14.75 25.0 L14.5 25.55 Q13.65 26.95 14.85 29.3 L15.1 28.6 16.0 26.9 16.1 27.1 16.5 27.85 17.9 29.3 17.75 27.65 17.75 26.8 19.4 28.4 Q19.9 27.8 20.0 26.75 L19.95 26.55 19.25 23.6 18.7 23.7 16.6 22.6 15.5 22.9 15.5 22.95 15.55 22.95 15.6 23.05 14.2 24.15 Q14.4 24.25 15.0 23.85 L14.0 24.6 M15.9 25.2 Q15.7 25.75 15.85 26.4 L16.0 26.9 15.85 26.4 Q15.7 25.75 15.9 25.2"/><path fill="#d56d16" stroke="none" d="M14.0 24.6 L15.0 23.85 Q14.4 24.25 14.2 24.15 L15.6 23.05 15.55 22.95 15.5 22.95 15.5 22.9 15.2 23.1 13.7 24.35 14.0 24.6"/><path fill="#854413" stroke="none" d="M20.0 26.75 Q19.9 27.8 19.4 28.4 L17.75 26.8 17.75 27.65 Q19.1 28.35 19.55 29.4 L19.75 28.95 Q20.1 27.95 20.0 26.75 M16.5 27.85 L16.1 27.1 16.0 26.9 15.1 28.6 14.85 29.3 14.95 29.5 15.2 29.0 16.5 27.85 M14.75 25.0 Q14.35 25.55 13.8 25.5 L14.5 25.55 14.75 25.0 M15.8 27.8 L15.2 29.0 15.8 27.8"/><path fill="none" stroke="#000000" stroke-width="0.5" stroke-opacity="0.301960784314" d="M14.3 24.85 L14.55 24.6 M14.75 25.0 L14.95 24.6 M13.8 25.5 L13.75 25.4 14.3 24.85 14.0 24.6 13.7 24.35 15.2 23.1 15.5 22.9 16.6 22.6 M19.95 26.55 L20.0 26.75 Q20.1 27.95 19.75 28.95 L19.55 29.4 Q19.1 28.35 17.75 27.65 L17.9 29.3 16.5 27.85 16.1 27.1 16.0 26.9 15.85 26.4 Q15.7 25.75 15.9 25.2 M17.75 26.8 L17.75 27.65 M13.8 25.5 L14.5 25.55 Q13.65 26.95 14.85 29.3 L14.95 29.5 15.2 29.0 16.5 27.85 M15.2 29.0 L15.8 27.8 M14.5 25.55 L14.75 25.0"/><path fill="#a25618" stroke="none" d="M26.3 27.4 L26.55 27.8 26.85 28.2 Q27.75 26.9 27.35 25.75 L25.7 23.55 19.2 25.0 Q19.55 27.1 20.05 27.65 L20.95 28.4 21.45 28.65 Q21.0 28.35 21.05 27.65 L21.05 27.45 21.65 28.2 Q22.3 28.75 23.3 28.9 L22.4 28.05 23.6 28.75 Q23.2 28.4 23.15 27.85 L23.45 26.95 23.55 26.2 Q24.75 27.0 26.3 27.4 L25.95 26.85 26.3 27.4 M21.05 27.45 L21.0 27.3 21.05 27.45"/><path fill="#854413" stroke="none" d="M24.8 27.2 L26.55 27.8 26.3 27.4 Q24.75 27.0 23.55 26.2 L23.45 26.95 23.15 27.85 Q23.2 28.4 23.6 28.75 L22.4 28.05 23.3 28.9 23.85 28.95 24.3 28.95 Q23.45 28.35 23.75 27.2 24.0 27.75 24.7 28.0 L24.8 27.2 23.75 26.5 24.8 27.2 M21.05 27.45 L21.05 27.65 Q21.0 28.35 21.45 28.65 L21.65 28.2 21.05 27.45"/><path fill="#945013" stroke="none" d="M21.45 28.65 L21.5 28.65 21.45 28.65"/><path fill="none" stroke="#000000" stroke-width="0.5" stroke-opacity="0.301960784314" d="M26.55 27.8 L24.8 27.2 23.75 26.5 M26.55 27.8 L26.3 27.4 25.95 26.85 M27.35 25.75 Q27.75 26.9 26.85 28.2 L26.55 27.8 M21.45 28.65 L20.95 28.4 20.05 27.65 M21.05 27.45 L21.65 28.2 21.45 28.65 21.5 28.65 21.45 28.65 M21.0 27.3 L21.05 27.45 M23.3 28.9 Q22.3 28.75 21.65 28.2 M24.8 27.2 L24.7 28.0 Q24.0 27.75 23.75 27.2 23.45 28.35 24.3 28.95 L23.85 28.95 23.3 28.9"/><path fill="#d56d16" stroke="none" d="M25.7 24.85 Q25.7 25.6 26.55 26.65 L26.45 25.95 27.05 26.8 Q28.1 24.65 26.75 23.55 26.9 24.15 26.35 24.95 L26.3 24.95 25.8 24.4 25.7 24.85 M27.6 23.3 L27.6 24.0 29.65 24.95 Q28.8 23.45 27.6 23.3"/><path fill="#000000" fill-opacity="0.152941176471" d="M19.35 17.75 Q17.45 18.45 16.15 19.6 14.7 20.85 14.8 22.0 L14.85 22.4 14.9 22.45 14.9 22.6 15.0 22.8 15.7 25.25 Q16.15 26.3 18.05 26.65 L22.85 26.35 Q25.5 25.65 27.15 24.2 28.75 22.75 28.45 21.45 L27.75 18.9 Q27.35 17.6 25.25 17.15 23.55 16.8 21.5 17.2 L20.45 17.4 19.35 17.75 M16.7 22.9 L16.8 22.8 Q18.4 20.95 21.15 20.25 23.9 19.5 26.2 20.3 L26.4 20.4 26.3 20.5 26.1 20.8 25.5 21.45 Q24.15 22.6 22.0 23.15 L18.1 23.4 17.15 23.15 16.9 23.05 16.85 23.0 16.7 22.9"/><path fill="#362f1f" stroke="none" d="M19.1 17.05 Q17.2 17.75 15.9 18.9 14.45 20.15 14.55 21.3 L14.6 21.7 14.65 21.75 14.65 21.9 14.75 22.1 15.45 24.55 Q15.9 25.6 17.8 25.95 L22.6 25.65 Q25.25 24.95 26.9 23.5 28.5 22.05 28.2 20.75 L27.5 18.2 Q27.1 16.9 25.0 16.45 23.3 16.1 21.25 16.5 L20.2 16.7 19.1 17.05 M16.45 22.2 L16.55 22.1 Q18.15 20.25 20.9 19.55 23.65 18.8 25.95 19.6 L26.15 19.7 26.05 19.8 25.85 20.1 25.25 20.75 Q23.9 21.9 21.75 22.45 L17.85 22.7 16.9 22.45 16.65 22.35 16.6 22.3 16.45 22.2"/><path fill="#f5e79f" stroke="none" d="M27.35 18.0 L27.3 17.85 Q26.9 16.55 24.8 16.1 23.1 15.75 21.15 16.15 L20.0 16.4 19.0 16.7 Q17.0 17.4 15.7 18.55 14.35 19.8 14.4 20.95 L14.45 21.35 14.45 21.4 14.5 21.55 14.6 21.75 Q14.9 22.35 15.75 22.75 L16.3 23.0 16.95 23.1 21.75 22.85 Q24.4 22.1 26.05 20.65 L26.5 20.25 26.85 19.8 Q27.4 19.0 27.4 18.25 L27.4 18.1 27.35 18.0 M15.65 21.15 L15.65 21.0 Q15.35 19.95 16.7 18.75 18.05 17.65 20.2 17.1 L24.1 16.8 Q25.85 17.1 26.15 18.15 L26.15 18.35 Q26.25 18.8 25.95 19.35 L25.85 19.45 25.9 19.45 25.7 19.75 25.05 20.4 Q23.7 21.55 21.55 22.15 L17.65 22.35 16.75 22.15 16.45 22.0 16.4 21.95 16.3 21.9 15.65 21.15 M14.45 21.4 L14.4 20.95 14.45 21.4"/><path fill="#b9a870" stroke="none" d="M14.65 22.0 L15.25 24.2 Q15.8 25.25 17.6 25.6 L22.4 25.35 Q25.05 24.6 26.7 23.15 28.3 21.7 28.0 20.4 L27.45 18.4 27.5 18.55 Q27.5 19.3 26.95 20.05 L26.6 20.5 26.1 20.95 Q24.45 22.4 21.8 23.15 L17.0 23.4 16.4 23.25 15.85 23.0 Q15.0 22.65 14.65 22.0 M27.45 18.25 L27.35 18.0 27.4 18.1 27.4 18.25 27.45 18.25 M15.65 21.15 Q15.5 20.1 16.75 19.0 18.1 17.85 20.25 17.3 L24.15 17.05 Q25.8 17.35 26.15 18.35 L26.15 18.15 Q25.85 17.1 24.1 16.8 L20.2 17.1 Q18.05 17.65 16.7 18.75 15.35 19.95 15.65 21.0 L15.65 21.15"/><path fill="#94865a" stroke="none" d="M26.15 18.35 Q25.8 17.35 24.15 17.05 L20.25 17.3 Q18.1 17.85 16.75 19.0 15.5 20.1 15.65 21.15 L16.3 21.9 16.4 21.75 Q18.0 19.9 20.7 19.2 23.45 18.45 25.75 19.25 L25.95 19.35 Q26.25 18.8 26.15 18.35"/><path fill="#c9b67a" stroke="none" d="M14.6 21.75 L14.65 22.0 Q15.0 22.65 15.85 23.0 L16.4 23.25 17.0 23.4 21.8 23.15 Q24.45 22.4 26.1 20.95 L26.6 20.5 26.95 20.05 Q27.5 19.3 27.5 18.55 L27.45 18.4 27.45 18.25 27.4 18.25 Q27.4 19.0 26.85 19.8 L26.5 20.25 26.05 20.65 Q24.4 22.1 21.75 22.85 L16.95 23.1 16.3 23.0 15.75 22.75 Q14.9 22.35 14.6 21.75"/><path fill="none" stroke="#000000" stroke-width="0.5" stroke-opacity="0.2" d="M27.35 18.0 L27.3 17.85 Q26.9 16.55 24.8 16.1 23.1 15.75 21.15 16.15 L20.0 16.4 19.0 16.7 Q17.0 17.4 15.7 18.55 14.35 19.8 14.4 20.95 L14.45 21.35 14.45 21.4 14.5 21.55 14.6 21.75 14.65 22.0 15.25 24.2 Q15.8 25.25 17.6 25.6 L22.4 25.35 Q25.05 24.6 26.7 23.15 28.3 21.7 28.0 20.4 L27.45 18.4 M27.45 18.25 L27.35 18.0 27.4 18.1 27.4 18.25 M15.65 21.15 L15.65 21.0 Q15.35 19.95 16.7 18.75 18.05 17.65 20.2 17.1 L24.1 16.8 Q25.85 17.1 26.15 18.15 L26.15 18.35 Q26.25 18.8 25.95 19.35 L25.75 19.25 Q23.45 18.45 20.7 19.2 18.0 19.9 16.4 21.75 L16.3 21.9 15.65 21.15 M14.4 20.95 L14.45 21.4 M16.3 21.9 L16.4 21.95 16.45 22.0 16.75 22.15 17.65 22.35 21.55 22.15 Q23.7 21.55 25.05 20.4 L25.7 19.75 25.9 19.45 25.85 19.45 25.95 19.35"/><path fill="#544834" fill-opacity="0.262745098039" d="M21.25 16.85 L21.4 16.85 21.25 16.85 M24.15 16.0 Q24.35 16.3 21.3 16.85 L21.65 17.0 Q22.65 17.65 22.35 18.9 L25.7 19.25 25.9 19.35 25.8 19.45 25.85 19.5 25.65 19.75 25.6 19.8 Q26.35 20.05 25.7 21.0 26.9 21.35 26.55 23.3 L26.7 23.15 Q28.3 21.7 27.95 20.4 L27.25 17.85 Q26.9 16.55 24.8 16.1 L24.15 16.0"/><path fill="#000000" fill-opacity="0.450980392157" d="M17.4 24.5 Q18.25 24.7 18.85 25.2 L20.65 24.6 18.75 24.6 17.4 24.5"/><path fill="#000000" fill-opacity="0.2" d="M14.35 23.7 L14.3 23.7 14.25 23.8 14.1 24.2 14.75 26.65 15.25 26.95 16.15 26.9 Q16.7 26.8 17.0 26.5 L17.25 26.05 17.25 26.0 16.6 23.55 Q16.55 23.3 16.15 23.25 L15.85 23.2 15.2 23.25 Q14.7 23.4 14.4 23.7 L14.35 23.7"/><path fill="#000000" fill-opacity="0.2" d="M29.05 19.75 L29.4 20.05 30.05 22.5 29.8 23.0 28.95 23.45 28.05 23.5 27.6 23.2 27.55 23.15 26.85 20.7 Q26.85 20.45 27.15 20.2 L27.4 20.05 27.95 19.8 28.9 19.7 28.9 19.75 28.95 19.75 29.05 19.75"/><path fill="#000000" fill-opacity="0.152941176471" d="M21.7 23.15 L22.0 23.45 22.65 25.9 22.45 26.4 21.8 26.8 21.1 26.75 Q20.8 26.7 20.7 26.5 L20.7 26.45 20.0 24.0 Q19.95 23.75 20.2 23.45 L20.35 23.35 Q20.55 23.2 20.8 23.15 L21.55 23.1 21.6 23.15 21.65 23.15 21.7 23.15"/><path fill="#000000" fill-opacity="0.2" d="M23.15 23.5 L23.5 23.8 24.15 26.25 23.9 26.75 23.05 27.2 22.15 27.25 21.7 26.95 21.65 26.9 20.95 24.45 21.25 23.95 21.5 23.8 22.05 23.55 23.0 23.45 23.0 23.5 23.05 23.5 23.15 23.5"/><path fill="#fbf2d0" stroke="none" d="M16.35 23.6 L16.3 23.6 16.3 23.65 16.35 23.6"/><path fill="#453e2e" stroke="none" d="M16.65 23.05 L16.65 23.0 Q16.6 22.75 16.2 22.7 L15.9 22.65 15.25 22.7 Q14.75 22.85 14.45 23.15 L14.4 23.15 14.35 23.15 14.3 23.25 14.15 23.65 14.15 23.7 14.65 24.0 15.45 24.0 16.3 23.6 16.35 23.6 16.4 23.55 16.65 23.05 M14.85 23.8 L14.55 23.55 Q14.5 23.35 14.7 23.2 L15.3 22.85 15.9 22.85 Q16.2 22.9 16.25 23.1 L16.15 23.4 16.05 23.45 15.5 23.7 15.05 23.8 14.85 23.8"/><path fill="#332f25" stroke="none" d="M14.15 23.7 L14.8 26.1 Q14.85 26.35 15.3 26.4 L16.2 26.35 Q16.75 26.25 17.05 25.95 L17.3 25.5 17.3 25.45 17.25 25.25 16.8 23.5 16.65 23.05 16.4 23.55 16.35 23.6 16.3 23.65 16.05 23.95 15.45 24.0 14.65 24.0 14.15 23.7"/><path fill="#71614a" stroke="none" d="M16.3 23.6 L15.45 24.0 16.05 23.95 16.3 23.65 16.3 23.6"/><path fill="#13110f" stroke="none" d="M14.85 23.8 L15.05 23.8 15.5 23.7 16.05 23.45 16.15 23.4 16.25 23.1 Q16.2 22.9 15.9 22.85 L15.3 22.85 14.7 23.2 Q14.5 23.35 14.55 23.55 L14.85 23.8"/><path fill="none" stroke="#000000" stroke-width="0.5" stroke-opacity="0.2" d="M16.65 23.05 L16.65 23.0 Q16.6 22.75 16.2 22.7 L15.9 22.65 15.25 22.7 Q14.75 22.85 14.45 23.15 L14.4 23.15 14.35 23.15 14.3 23.25 14.15 23.65 14.15 23.7 14.8 26.1 Q14.85 26.35 15.3 26.4 L16.2 26.35 Q16.75 26.25 17.05 25.95 L17.3 25.5 17.3 25.45 17.25 25.25 M16.8 23.5 L16.65 23.05 M14.85 23.8 L15.05 23.8 15.5 23.7 16.05 23.45 16.15 23.4 16.25 23.1 Q16.2 22.9 15.9 22.85 L15.3 22.85 14.7 23.2 Q14.5 23.35 14.55 23.55 L14.85 23.8"/><path fill="#fbf2d0" stroke="none" d="M27.1 20.55 L27.15 20.55 27.1 20.55"/><path fill="#453e2e" stroke="none" d="M26.55 20.15 L26.5 20.15 26.8 19.65 27.05 19.5 27.6 19.25 28.55 19.15 28.55 19.2 28.6 19.2 28.7 19.2 29.05 19.5 28.8 20.05 28.1 20.45 28.05 20.45 27.15 20.55 27.1 20.55 27.05 20.55 26.55 20.15 M27.1 19.7 Q26.9 19.85 26.95 20.05 L27.2 20.25 27.25 20.25 27.9 20.25 28.3 20.05 28.45 19.95 28.6 19.6 Q28.55 19.4 28.3 19.4 L27.65 19.4 Q27.3 19.5 27.1 19.7"/><path fill="#332f25" stroke="none" d="M29.05 19.5 L29.7 21.95 29.45 22.45 28.6 22.9 27.7 22.95 27.25 22.65 27.2 22.6 27.15 22.4 26.65 20.65 26.55 20.15 27.05 20.55 27.1 20.55 27.15 20.55 27.6 20.7 28.1 20.45 28.8 20.05 29.05 19.5"/><path fill="#71614a" stroke="none" d="M27.15 20.55 L28.05 20.45 28.1 20.45 27.6 20.7 27.15 20.55"/><path fill="#13110f" stroke="none" d="M27.1 19.7 Q27.3 19.5 27.65 19.4 L28.3 19.4 Q28.55 19.4 28.6 19.6 L28.45 19.95 28.3 20.05 27.9 20.25 27.25 20.25 27.2 20.25 26.95 20.05 Q26.9 19.85 27.1 19.7"/><path fill="none" stroke="#000000" stroke-width="0.5" stroke-opacity="0.2" d="M26.55 20.15 L26.5 20.15 26.8 19.65 27.05 19.5 27.6 19.25 28.55 19.15 28.55 19.2 28.6 19.2 28.7 19.2 29.05 19.5 29.7 21.95 29.45 22.45 28.6 22.9 27.7 22.95 27.25 22.65 27.2 22.6 27.15 22.4 M26.65 20.65 L26.55 20.15 M27.1 19.7 Q27.3 19.5 27.65 19.4 L28.3 19.4 Q28.55 19.4 28.6 19.6 L28.45 19.95 28.3 20.05 27.9 20.25 27.25 20.25 27.2 20.25 26.95 20.05 Q26.9 19.85 27.1 19.7"/><path fill="#fbf2d0" stroke="none" d="M21.4 24.4 L21.45 24.4 21.4 24.4"/><path fill="#453e2e" stroke="none" d="M20.85 24.0 L20.8 24.0 21.1 23.5 21.35 23.35 21.9 23.1 22.85 23.0 22.85 23.05 22.9 23.05 23.0 23.05 23.35 23.35 23.1 23.9 22.4 24.3 22.35 24.3 21.45 24.4 21.4 24.4 21.35 24.4 20.85 24.0 M21.4 23.55 Q21.2 23.7 21.25 23.9 L21.5 24.1 21.55 24.1 22.2 24.1 22.6 23.9 22.75 23.8 22.9 23.45 Q22.85 23.25 22.6 23.25 L21.95 23.25 Q21.6 23.35 21.4 23.55"/><path fill="#332f25" stroke="none" d="M23.35 23.35 L24.0 25.8 23.75 26.3 Q23.45 26.6 22.9 26.75 L22.0 26.8 21.55 26.5 21.5 26.45 21.45 26.25 20.95 24.5 20.85 24.0 21.35 24.4 21.4 24.4 21.45 24.4 21.9 24.55 22.4 24.3 23.1 23.9 23.35 23.35"/><path fill="#71614a" stroke="none" d="M21.45 24.4 L22.35 24.3 22.4 24.3 21.9 24.55 21.45 24.4"/><path fill="#13110f" stroke="none" d="M21.4 23.55 Q21.6 23.35 21.95 23.25 L22.6 23.25 Q22.85 23.25 22.9 23.45 L22.75 23.8 22.6 23.9 22.2 24.1 21.55 24.1 21.5 24.1 21.25 23.9 Q21.2 23.7 21.4 23.55"/><path fill="none" stroke="#000000" stroke-width="0.5" stroke-opacity="0.2" d="M20.85 24.0 L20.8 24.0 21.1 23.5 21.35 23.35 21.9 23.1 22.85 23.0 22.85 23.05 22.9 23.05 23.0 23.05 23.35 23.35 24.0 25.8 23.75 26.3 Q23.45 26.6 22.9 26.75 L22.0 26.8 21.55 26.5 21.5 26.45 21.45 26.25 M20.95 24.5 L20.85 24.0 M21.4 23.55 Q21.6 23.35 21.95 23.25 L22.6 23.25 Q22.85 23.25 22.9 23.45 L22.75 23.8 22.6 23.9 22.2 24.1 21.55 24.1 21.5 24.1 21.25 23.9 Q21.2 23.7 21.4 23.55"/><path fill="#b9a870" stroke="none" d="M27.05 16.25 Q26.6 16.5 26.7 17.4 L26.2 17.2 26.45 17.55 26.3 18.35 26.2 18.5 25.65 18.95 26.05 19.25 Q26.9 19.45 27.0 19.75 L27.0 19.8 27.1 20.15 27.15 20.1 27.25 20.15 27.55 20.2 27.75 20.15 27.9 20.15 28.35 19.9 28.45 19.8 28.6 19.75 28.45 18.95 Q28.4 18.5 28.95 18.0 L29.4 17.0 29.25 17.3 28.75 17.55 27.45 17.4 Q27.0 17.15 26.9 16.75 L26.9 16.4 27.05 16.25 M26.9 17.8 L27.9 18.25 27.15 18.45 26.85 18.7 Q27.15 18.2 26.9 17.9 L26.9 17.8"/><path fill="#94865a" stroke="none" d="M26.9 17.8 L26.9 17.9 Q27.15 18.2 26.85 18.7 L27.15 18.45 27.9 18.25 26.9 17.8"/><path fill="#c9b67a" stroke="none" d="M27.05 16.25 L26.9 16.4 26.9 16.75 Q27.0 17.15 27.45 17.4 L28.75 17.55 29.25 17.3 29.4 17.0 29.4 16.9 29.25 17.2 28.8 17.45 27.55 17.3 27.05 16.65 27.1 16.35 27.2 16.2 27.35 16.1 27.05 16.25 M25.65 18.95 L26.2 18.5 26.3 18.35 26.45 17.55 26.2 17.2 26.05 17.3 26.0 17.35 26.1 17.3 26.25 17.35 26.35 17.6 26.3 18.0 26.1 18.25 25.95 18.4 25.9 18.4 25.85 18.45 25.85 18.4 25.8 18.4 25.65 18.45 25.6 18.3 25.6 18.25 25.6 18.15 25.55 18.3 Q25.45 18.7 25.65 18.95"/><path fill="#f5e7a0" stroke="none" d="M26.0 17.35 L26.0 17.4 Q25.8 17.55 25.75 17.85 L25.6 18.15 25.6 18.25 25.6 18.3 25.65 18.45 25.8 18.4 25.85 18.4 25.85 18.45 25.9 18.4 25.95 18.4 26.1 18.25 26.3 18.0 26.35 17.6 26.25 17.35 26.1 17.3 26.0 17.35 M27.35 16.1 L27.2 16.2 27.1 16.35 27.05 16.65 27.55 17.3 28.8 17.45 29.25 17.2 29.4 16.9 Q29.2 16.45 28.25 16.2 L27.8 16.1 27.35 16.1"/><path fill="none" stroke="#000000" stroke-width="0.5" stroke-opacity="0.2" d="M26.2 17.2 L26.7 17.4 Q26.6 16.5 27.05 16.25 L27.35 16.1 27.8 16.1 28.25 16.2 Q29.2 16.45 29.4 16.9 M29.4 17.0 L28.95 18.0 Q28.4 18.5 28.45 18.95 L28.6 19.75 28.45 19.8 28.35 19.9 27.9 20.15 27.75 20.15 27.55 20.2 27.25 20.15 27.15 20.1 27.1 20.15 27.0 19.8 27.0 19.75 Q26.9 19.45 26.05 19.25 L25.65 18.95 M26.2 17.2 L26.05 17.3 26.0 17.35 26.0 17.4 Q25.8 17.55 25.75 17.85 L25.6 18.15 25.55 18.3 Q25.45 18.7 25.65 18.95 M27.0 19.8 L27.05 19.95 27.1 20.15"/><path fill="#000000" fill-opacity="0.301960784314" d="M18.0 18.95 L17.4 19.65 18.3 19.1 19.25 18.65 18.0 18.95"/></g><g id="c13"><path fill="#878c8f" stroke="none" d="M11.45 7.6 L11.0 7.75 10.2 7.8 8.9 5.2 Q7.6 3.25 5.8 2.2 L5.25 1.9 5.2 1.9 6.4 1.3 6.6 1.4 Q8.6 2.45 10.05 4.6 11.0 6.0 11.4 7.4 L11.45 7.6 M4.4 0.7 L3.15 1.3 2.65 1.35 2.4 1.35 2.15 1.45 1.85 1.6 2.7 1.05 Q3.4 0.7 4.3 0.7 L4.4 0.7"/><path fill="#4d5052" stroke="none" d="M10.2 7.8 L11.0 7.75 11.45 7.6 11.6 9.05 11.6 9.4 11.35 10.25 Q10.9 11.2 9.7 12.15 L9.2 12.45 10.0 11.6 10.15 11.3 10.45 9.65 10.2 7.8"/><path fill="#b1b8bd" stroke="none" d="M6.4 1.3 L5.2 1.9 5.25 1.9 5.8 2.2 Q7.6 3.25 8.9 5.2 L10.2 7.8 10.45 9.65 10.15 11.3 10.25 10.25 Q10.25 8.1 8.7 5.85 7.15 3.55 5.0 2.5 L4.4 2.25 1.45 2.2 1.35 2.3 1.3 2.3 Q0.65 2.65 0.25 3.25 L0.2 3.25 0.7 2.35 1.85 1.6 2.15 1.45 2.4 1.35 2.65 1.35 3.15 1.3 4.4 0.7 4.7 0.75 Q5.5 0.85 6.4 1.3"/><path fill="#6a6e70" stroke="none" d="M10.15 11.3 L10.0 11.6 9.2 12.45 8.9 12.55 9.2 12.45 8.95 12.55 8.9 12.55 8.5 12.75 8.85 12.6 8.8 12.65 Q7.3 13.35 5.25 12.35 L5.2 12.3 Q3.05 11.25 1.55 9.0 0.0 6.75 0.0 4.6 0.0 4.0 0.15 3.5 L0.2 3.25 0.25 3.25 Q0.65 2.65 1.3 2.3 L1.35 2.3 1.45 2.2 4.4 2.25 5.0 2.5 Q7.15 3.55 8.7 5.85 10.25 8.1 10.25 10.25 L10.15 11.3 M2.55 9.3 L3.65 10.55 Q5.35 12.15 7.05 12.25 9.25 12.35 9.6 10.35 L8.8 11.15 Q8.55 11.15 7.1 10.05 5.65 8.95 4.75 9.45 3.85 9.95 2.75 8.4 L2.1 7.3 1.75 6.55 Q1.25 5.5 1.0 3.45 0.25 6.5 2.55 9.3"/><path fill="#5d6163" stroke="none" d="M2.55 9.3 Q0.25 6.5 1.0 3.45 1.25 5.5 1.75 6.55 L2.1 7.3 2.75 8.4 Q3.85 9.95 4.75 9.45 5.65 8.95 7.1 10.05 8.55 11.15 8.8 11.15 L9.6 10.35 Q9.25 12.35 7.05 12.25 5.35 12.15 3.65 10.55 L2.55 9.3"/><path fill="none" stroke="#000000" stroke-width="0.5" stroke-opacity="0.301960784314" d="M11.45 7.6 L11.4 7.4 Q11.0 6.0 10.05 4.6 8.6 2.45 6.6 1.4 L6.4 1.3 M9.2 12.45 L9.7 12.15 Q10.9 11.2 11.35 10.25 L11.6 9.4 11.6 9.05 11.45 7.6 M1.85 1.6 L0.7 2.35 0.2 3.25 0.15 3.5 Q0.0 4.0 0.0 4.6 0.0 6.75 1.55 9.0 3.05 11.25 5.2 12.3 L5.25 12.35 Q7.3 13.35 8.8 12.65 M8.5 12.75 L8.9 12.55 9.2 12.45 M1.85 1.6 L2.7 1.05 Q3.4 0.7 4.3 0.7 L4.4 0.7 4.7 0.75 Q5.5 0.85 6.4 1.3"/></g><g id="c14"><g><use transform="matrix(1.0,0.0,0.0,1.0,0.0,0.0)" xlink:href="#c13"/></g></g><g id="c15"><path fill="#000000" fill-opacity="0.250980392157" d="M19.3 25.85 L19.65 25.5 19.65 24.95 19.3 24.55 18.75 24.55 18.35 24.95 18.35 25.45 18.75 25.9 19.3 25.85"/><path fill="#5e5b47" stroke="none" d="M18.35 24.5 L18.45 24.4 Q18.65 24.1 18.95 24.25 19.15 24.4 19.0 24.6 L18.85 24.55 Q18.5 24.4 18.35 24.55 L18.35 24.5 M18.45 24.95 L18.9 24.95 19.25 24.6 Q19.45 24.35 19.4 24.65 L19.2 25.15 18.85 25.35 Q18.65 25.35 18.4 25.15 L18.25 24.95 18.25 24.85 18.45 24.95 M18.35 25.25 L18.9 25.4 19.35 25.15 19.5 24.65 19.25 24.15 18.75 24.0 Q18.45 24.0 18.3 24.25 L18.1 24.8 18.35 25.25"/><path fill="#a19f8c" stroke="none" d="M18.35 24.55 Q18.5 24.4 18.85 24.55 L19.0 24.6 Q19.15 24.4 18.95 24.25 18.65 24.1 18.45 24.4 L18.35 24.5 18.35 24.55"/><path fill="#4f4c3c" stroke="none" d="M18.45 24.95 L18.25 24.85 18.25 24.95 18.4 25.15 Q18.65 25.35 18.85 25.35 L19.2 25.15 19.4 24.65 Q19.45 24.35 19.25 24.6 L18.9 24.95 18.45 24.95"/><path fill="#575342" stroke="none" d="M18.35 24.5 L18.35 24.55 18.35 24.5"/><path fill="none" stroke="#000000" stroke-width="0.5" stroke-opacity="0.301960784314" d="M18.35 25.25 L18.9 25.4 19.35 25.15 19.5 24.65 19.25 24.15 18.75 24.0 Q18.45 24.0 18.3 24.25 L18.1 24.8 18.35 25.25"/><path fill="#000000" fill-opacity="0.450980392157" d="M26.65 21.85 L25.8 23.15 23.9 23.55 25.6 22.65 26.65 21.85"/><path fill="#000000" fill-opacity="0.250980392157" d="M25.75 23.95 L25.25 23.9 25.0 23.4 25.1 22.9 Q25.3 22.6 25.55 22.6 L26.05 22.65 26.35 23.15 26.25 23.65 25.75 23.95"/><path fill="#5e5b47" stroke="none" d="M26.1 22.4 L25.95 22.3 Q25.65 22.1 25.45 22.3 25.25 22.5 25.45 22.7 L25.55 22.6 26.1 22.4 M26.25 23.15 L25.8 23.45 25.3 23.3 25.0 22.85 25.1 22.3 Q25.25 22.1 25.5 22.05 L26.0 22.15 26.3 22.65 26.25 23.15 M26.1 22.9 L25.65 23.0 25.15 22.8 Q24.95 22.55 25.05 22.85 L25.4 23.2 25.85 23.35 26.15 23.05 26.25 22.8 26.1 22.9"/><path fill="#a19f8c" stroke="none" d="M26.1 22.4 L25.55 22.6 25.45 22.7 Q25.25 22.5 25.45 22.3 25.65 22.1 25.95 22.3 L26.1 22.4"/><path fill="#4f4c3c" stroke="none" d="M26.1 22.9 L26.25 22.8 26.15 23.05 25.85 23.35 25.4 23.2 25.05 22.85 Q24.95 22.55 25.15 22.8 L25.65 23.0 26.1 22.9"/><path fill="none" stroke="#000000" stroke-width="0.5" stroke-opacity="0.301960784314" d="M26.25 23.15 L25.8 23.45 25.3 23.3 25.0 22.85 25.1 22.3 Q25.25 22.1 25.5 22.05 L26.0 22.15 26.3 22.65 26.25 23.15"/><path fill="#5e5b47" stroke="none" d="M14.5 25.0 L14.55 24.9 Q14.75 24.65 14.95 24.75 15.2 24.9 15.05 25.1 L14.95 25.0 14.5 25.0 M14.55 25.6 L14.9 25.7 15.35 25.55 15.4 25.1 15.25 24.75 Q15.05 24.55 14.85 24.6 L14.45 24.8 14.35 25.2 14.55 25.6 M14.6 25.35 L14.95 25.35 15.25 25.1 Q15.4 24.9 15.4 25.15 L15.2 25.5 14.9 25.65 14.55 25.5 14.4 25.35 14.45 25.3 14.6 25.35"/><path fill="#a19f8c" stroke="none" d="M14.5 25.0 L14.95 25.0 15.05 25.1 Q15.2 24.9 14.95 24.75 14.75 24.65 14.55 24.9 L14.5 25.0"/><path fill="#4f4c3c" stroke="none" d="M14.6 25.35 L14.45 25.3 14.4 25.35 14.55 25.5 14.9 25.65 15.2 25.5 15.4 25.15 Q15.4 24.9 15.25 25.1 L14.95 25.35 14.6 25.35"/><path fill="none" stroke="#000000" stroke-width="0.5" stroke-opacity="0.301960784314" d="M14.55 25.6 L14.9 25.7 15.35 25.55 15.4 25.1 15.25 24.75 Q15.05 24.55 14.85 24.6 L14.45 24.8 14.35 25.2 14.55 25.6"/><path fill="#5e5b47" stroke="none" d="M29.4 20.9 L29.3 20.85 28.9 20.95 Q28.8 21.15 29.0 21.3 L29.1 21.15 29.4 20.95 29.4 20.9 M29.5 21.3 L29.2 21.5 28.8 21.4 Q28.6 21.3 28.7 21.45 L29.1 21.7 29.45 21.7 29.65 21.35 29.7 21.2 29.65 21.15 29.5 21.3 M29.7 21.45 L29.4 21.75 28.95 21.75 28.65 21.5 28.6 21.05 28.9 20.75 29.35 20.75 29.65 21.05 29.7 21.45"/><path fill="#a19f8c" stroke="none" d="M29.4 20.95 L29.1 21.15 29.0 21.3 Q28.8 21.15 28.9 20.95 L29.3 20.85 29.4 20.9 29.4 20.95"/><path fill="#4f4c3c" stroke="none" d="M29.5 21.3 L29.65 21.15 29.7 21.2 29.65 21.35 29.45 21.7 29.1 21.7 28.7 21.45 Q28.6 21.3 28.8 21.4 L29.2 21.5 29.5 21.3"/><path fill="#575342" stroke="none" d="M29.4 20.9 L29.4 20.95 29.4 20.9"/><path fill="none" stroke="#000000" stroke-width="0.5" stroke-opacity="0.301960784314" d="M29.7 21.45 L29.4 21.75 28.95 21.75 28.65 21.5 28.6 21.05 28.9 20.75 29.35 20.75 29.65 21.05 29.7 21.45"/><path fill="#5e5b47" stroke="none" d="M23.0 25.25 L22.9 25.15 Q22.65 25.0 22.5 25.15 22.3 25.3 22.45 25.45 L22.55 25.35 23.0 25.25 M23.1 25.8 L22.75 26.05 22.3 25.95 22.1 25.6 22.2 25.15 Q22.3 24.95 22.55 24.9 L22.95 25.0 23.2 25.4 23.1 25.8 M23.0 25.6 L22.65 25.7 Q22.45 25.7 22.25 25.5 22.1 25.35 22.15 25.55 L22.4 25.85 22.8 25.95 23.05 25.7 23.1 25.55 23.1 25.5 23.0 25.6"/><path fill="#a19f8c" stroke="none" d="M23.0 25.25 L22.55 25.35 22.45 25.45 Q22.3 25.3 22.5 25.15 22.65 25.0 22.9 25.15 L23.0 25.25"/><path fill="#4f4c3c" stroke="none" d="M23.0 25.6 L23.1 25.5 23.1 25.55 23.05 25.7 22.8 25.95 22.4 25.85 22.15 25.55 Q22.1 25.35 22.25 25.5 22.45 25.7 22.65 25.7 L23.0 25.6"/><path fill="none" stroke="#000000" stroke-width="0.5" stroke-opacity="0.301960784314" d="M23.1 25.8 L22.75 26.05 22.3 25.95 22.1 25.6 22.2 25.15 Q22.3 24.95 22.55 24.9 L22.95 25.0 23.2 25.4 23.1 25.8"/><path fill="#b9a870" stroke="none" d="M15.5 20.3 Q15.35 20.4 15.45 20.75 L16.0 21.35 16.2 21.4 16.85 21.55 16.65 21.95 Q16.0 22.55 16.1 22.85 L16.1 22.9 16.2 23.25 16.15 23.3 16.05 23.35 15.85 23.5 15.65 23.55 15.5 23.65 15.05 23.7 14.85 23.7 14.7 23.65 14.45 22.95 Q14.3 22.5 13.55 22.3 12.8 22.1 12.6 21.7 L12.95 21.9 13.45 21.85 Q14.2 21.65 14.55 21.1 L14.7 20.25 14.5 19.9 14.25 19.85 Q14.8 19.9 15.2 20.7 L15.5 20.3 M15.2 21.1 Q15.1 21.65 14.6 22.05 L15.35 21.85 15.65 21.9 Q15.15 21.6 15.2 21.2 L15.2 21.1"/><path fill="#94865a" stroke="none" d="M15.2 21.1 L15.2 21.2 Q15.15 21.6 15.65 21.9 L15.35 21.85 14.6 22.05 Q15.1 21.65 15.2 21.1"/><path fill="#c9b67a" stroke="none" d="M15.8 20.35 L15.6 20.3 15.55 20.45 15.55 20.7 15.8 21.0 16.1 21.15 16.35 21.2 16.4 21.2 16.45 21.15 16.45 21.1 16.5 21.1 16.65 21.05 16.6 20.9 16.6 20.85 16.5 20.75 16.65 20.9 Q16.95 21.2 16.85 21.55 L16.2 21.4 16.0 21.35 15.45 20.75 Q15.35 20.4 15.5 20.3 L15.65 20.3 15.8 20.35 M12.6 21.6 L12.85 21.8 13.4 21.75 14.35 21.0 Q14.65 20.65 14.55 20.25 L14.3 19.95 14.1 19.9 13.95 19.9 14.25 19.85 14.5 19.9 14.7 20.25 14.55 21.1 Q14.2 21.65 13.45 21.85 L12.95 21.9 12.6 21.7 12.6 21.6"/><path fill="#f5e7a0" stroke="none" d="M16.5 20.75 L16.6 20.85 16.6 20.9 16.65 21.05 16.5 21.1 16.45 21.1 16.45 21.15 16.4 21.2 16.35 21.2 16.1 21.15 15.8 21.0 15.55 20.7 15.55 20.45 15.6 20.3 15.8 20.35 15.8 20.3 16.25 20.55 16.5 20.75 M13.95 19.9 L14.1 19.9 14.3 19.95 14.55 20.25 Q14.65 20.65 14.35 21.0 L13.4 21.75 12.85 21.8 12.6 21.6 Q12.5 21.15 13.25 20.4 L13.6 20.1 13.95 19.9"/><path fill="none" stroke="#000000" stroke-width="0.5" stroke-opacity="0.2" d="M16.5 20.75 L16.25 20.55 15.8 20.3 15.8 20.35 15.65 20.3 15.5 20.3 M16.85 21.55 Q16.95 21.2 16.65 20.9 L16.5 20.75 M14.25 19.85 Q14.8 19.9 15.2 20.7 L15.5 20.3 M13.95 19.9 L13.6 20.1 13.25 20.4 Q12.5 21.15 12.6 21.6 M14.25 19.85 L13.95 19.9 M16.2 23.25 L16.15 23.3 16.05 23.35 15.85 23.5 15.65 23.55 15.5 23.65 15.05 23.7 14.85 23.7 14.7 23.65 14.45 22.95 Q14.3 22.5 13.55 22.3 12.8 22.1 12.6 21.7 M16.1 22.9 L16.15 23.05 16.2 23.25 16.1 22.9 16.1 22.85 Q16.0 22.55 16.65 21.95 L16.85 21.55"/><path fill="#b9a870" stroke="none" d="M22.05 20.6 Q21.9 20.7 22.0 21.05 L22.55 21.65 22.75 21.7 23.4 21.85 23.2 22.25 Q22.55 22.85 22.65 23.15 L22.65 23.2 22.75 23.55 22.7 23.6 22.6 23.65 22.4 23.8 22.2 23.85 22.05 23.95 21.6 24.0 21.4 24.0 21.25 23.95 21.0 23.25 Q20.85 22.8 20.1 22.6 19.35 22.4 19.15 22.0 L19.5 22.2 20.0 22.15 Q20.75 21.95 21.1 21.4 L21.25 20.55 21.05 20.2 20.8 20.15 Q21.35 20.2 21.75 21.0 L22.05 20.6 M21.75 21.4 Q21.65 21.95 21.15 22.35 L21.9 22.15 22.2 22.2 Q21.7 21.9 21.75 21.5 L21.75 21.4"/><path fill="#94865a" stroke="none" d="M21.75 21.4 L21.75 21.5 Q21.7 21.9 22.2 22.2 L21.9 22.15 21.15 22.35 Q21.65 21.95 21.75 21.4"/><path fill="#c9b67a" stroke="none" d="M22.35 20.65 L22.15 20.6 Q22.05 20.65 22.1 20.75 L22.1 21.0 22.35 21.3 22.65 21.45 22.9 21.5 22.95 21.5 23.0 21.45 23.0 21.4 23.05 21.4 23.2 21.35 23.15 21.2 23.15 21.15 23.05 21.05 23.2 21.2 Q23.5 21.5 23.4 21.85 L22.75 21.7 22.55 21.65 22.0 21.05 Q21.9 20.7 22.05 20.6 L22.2 20.6 22.35 20.65 M19.15 21.9 L19.4 22.1 19.95 22.05 20.9 21.3 Q21.2 20.95 21.1 20.55 L20.85 20.25 20.65 20.2 20.5 20.2 20.8 20.15 21.05 20.2 21.25 20.55 21.1 21.4 Q20.75 21.95 20.0 22.15 L19.5 22.2 19.15 22.0 19.15 21.9"/><path fill="#f5e7a0" stroke="none" d="M23.05 21.05 L23.15 21.15 23.15 21.2 23.2 21.35 23.05 21.4 23.0 21.4 23.0 21.45 22.95 21.5 22.9 21.5 22.65 21.45 22.35 21.3 22.1 21.0 22.1 20.75 Q22.05 20.65 22.15 20.6 L22.35 20.65 22.35 20.6 Q22.55 20.65 22.8 20.85 L23.05 21.05 M20.5 20.2 L20.65 20.2 20.85 20.25 21.1 20.55 Q21.2 20.95 20.9 21.3 L19.95 22.05 19.4 22.1 19.15 21.9 Q19.05 21.45 19.8 20.7 L20.15 20.4 20.5 20.2"/><path fill="none" stroke="#000000" stroke-width="0.5" stroke-opacity="0.2" d="M23.05 21.05 L22.8 20.85 Q22.55 20.65 22.35 20.6 L22.35 20.65 22.2 20.6 22.05 20.6 M23.4 21.85 Q23.5 21.5 23.2 21.2 L23.05 21.05 M20.8 20.15 Q21.35 20.2 21.75 21.0 L22.05 20.6 M20.5 20.2 L20.15 20.4 19.8 20.7 Q19.05 21.45 19.15 21.9 M20.8 20.15 L20.5 20.2 M22.75 23.55 L22.7 23.6 22.6 23.65 22.4 23.8 22.2 23.85 22.05 23.95 21.6 24.0 21.4 24.0 21.25 23.95 21.0 23.25 Q20.85 22.8 20.1 22.6 19.35 22.4 19.15 22.0 M22.65 23.2 L22.7 23.35 22.75 23.55 22.65 23.2 22.65 23.15 Q22.55 22.85 23.2 22.25 L23.4 21.85"/></g><g id="c16"><g><use transform="matrix(1.0,0.0,0.0,1.0,0.0,0.0)" xlink:href="#c2"/></g><g><use transform="matrix(0.238861083984,-0.0867004394531,0.10026550293,0.233917236328,34.25,31.15)" xlink:href="#c4"/></g><g><use transform="matrix(0.238861083984,-0.0867004394531,0.10026550293,0.233917236328,4.25,10.3)" xlink:href="#c4"/></g><g><use transform="matrix(0.141098022461,-0.0378112792969,0.111373901367,0.225646972656,20.25,20.65)" filter="url(#filter9)" xlink:href="#c6"/></g><g><use transform="matrix(-0.155029296875,0.0513153076172,0.0841827392578,0.147033691406,22.6,2.3)" filter="url(#filter10)" xlink:href="#c8"/></g><g><use transform="matrix(1.0,0.0,0.0,1.0,0.0,0.0)" xlink:href="#c9"/></g><g><use transform="matrix(-0.20783996582,0.0556793212891,0.0556793212891,0.20783996582,26.85,10.7)" xlink:href="#c11"/></g><g><use transform="matrix(1.0,0.0,0.0,1.0,0.0,0.0)" xlink:href="#c12"/></g><g><use transform="matrix(0.0128784179688,-0.0744323730469,0.0528717041016,0.0328521728516,17.35,19.65)" filter="url(#filter14)" xlink:href="#c14"/></g><g><use transform="matrix(0.0111083984375,-0.0643615722656,0.0457000732422,0.0283966064453,18.4,18.95)" filter="url(#filter15)" xlink:href="#c14"/></g><g><use transform="matrix(1.0,0.0,0.0,1.0,0.0,0.0)" xlink:href="#c15"/></g><g><use transform="matrix(0.162948608398,-0.0436706542969,0.128631591797,0.260604858398,20.35,20.95)" filter="url(#filter17)" xlink:href="#c6"/></g></g><filter id="filter9"><feColorMatrix in="SourceGraphic" type="matrix" values="0.0 0.0 0.0 0.0 0.796875 0.0 0.0 0.0 0.0 0.59765625 0.0 0.0 0.0 0.0 0.19921875 0.0 0.0 0.0 1.0 0.0" result="cxform"/><feComposite operator="in" in2="SourceGraphic" result="color-xform"/></filter><filter id="filter10"><feColorMatrix in="SourceGraphic" type="matrix" values="0.0 0.0 0.0 0.0 0.99609375 0.0 0.0 0.0 0.0 0.99609375 0.0 0.0 0.0 0.0 0.99609375 0.0 0.0 0.0 1.0 0.0" result="cxform"/><feComposite operator="in" in2="SourceGraphic" result="color-xform"/></filter><filter id="filter14"><feColorMatrix in="SourceGraphic" type="matrix" values="0.8203125 0.0 0.0 0.0 0.0 0.0 0.8203125 0.0 0.0 0.0 0.0 0.0 0.8203125 0.0 0.0 0.0 0.0 0.0 1.0 0.0" result="cxform"/><feComposite operator="in" in2="SourceGraphic" result="color-xform"/></filter><filter id="filter15"><feColorMatrix in="SourceGraphic" type="matrix" values="0.8203125 0.0 0.0 0.0 0.0 0.0 0.8203125 0.0 0.0 0.0 0.0 0.0 0.8203125 0.0 0.0 0.0 0.0 0.0 1.0 0.0" result="cxform"/><feComposite operator="in" in2="SourceGraphic" result="color-xform"/></filter><filter id="filter17"><feColorMatrix in="SourceGraphic" type="matrix" values="1.0 0.0 0.0 0.0 0.0 0.0 1.0 0.0 0.0 0.0 0.0 0.0 1.0 0.0 0.0 0.0 0.0 0.0 0.23046875 0.0" result="cxform"/><feComposite operator="in" in2="SourceGraphic" result="color-xform"/></filter></defs><g><g><use transform="matrix(1.0,0.0,0.0,1.0,0.0,0.0)" xlink:href="#c1"/></g><g><use transform="matrix(1.15496826172,0.0,0.0,1.15496826172,5.85,3.95)" xlink:href="#c16"/></g></g></svg>