<?xml version='1.0' encoding='UTF-8'?>
<svg xmlns:xlink="http://www.w3.org/1999/xlink" xmlns="http://www.w3.org/2000/svg" version="1.1" width="60px" height="60px" viewBox="0.0 0.0 60.0 60.0"><defs><radialGradient gradientUnits="userSpaceOnUse" r="819.2" cx="0" cy="0" spreadMethod="pad" gradientTransform="matrix(-0.00418090820312,0.0,0.0,0.00209045410156,3.6,1.8)" id="gradient1"><stop offset="0.588235294118" stop-color="#0e171d" stop-opacity="0.501960784314"/><stop offset="1.0" stop-color="#101a24" stop-opacity="0.0"/></radialGradient><g id="c1"><path stroke="none" fill="url(#gradient1)" d="M6.15 3.05 L3.6 3.6 Q2.1 3.6 1.05 3.05 0.0 2.55 0.0 1.8 0.0 1.05 1.05 0.55 2.1 0.0 3.6 0.0 5.1 0.0 6.15 0.55 7.2 1.05 7.2 1.8 7.2 2.55 6.15 3.05"/></g><g id="c2"><g><use transform="matrix(1.0,0.0,0.0,1.0,0.0,0.0)" xlink:href="#c1"/></g></g><g id="c3"><path fill="#455a5b" stroke="none" d="M0.5 0.4 L0.45 0.0 1.05 0.35 1.7 0.1 1.65 0.45 1.65 0.5 1.7 0.5 1.85 0.55 2.25 0.8 1.65 0.85 1.7 1.15 1.05 0.95 0.45 1.25 0.5 0.85 0.0 0.65 0.5 0.5 0.55 0.5 0.5 0.4"/><path fill="#3b4102" stroke="none" d="M0.5 0.4 L0.55 0.5 0.5 0.5 0.5 0.4"/><path fill="none" stroke="#000000" stroke-width="0.5" stroke-opacity="0.301960784314" d="M0.5 0.5 L0.0 0.65 0.5 0.85 0.45 1.25 1.05 0.95 1.7 1.15 1.65 0.85 2.25 0.8 1.85 0.55 1.7 0.5 1.65 0.5 1.65 0.45 1.7 0.1 1.05 0.35 0.45 0.0 0.5 0.4 0.55 0.5 0.5 0.5"/></g><g id="c4"><g><use transform="matrix(1.0,0.0,0.0,1.0,0.0,0.0)" xlink:href="#c3"/></g></g><g id="c5"><path fill="#5b7576" stroke="none" d="M0.55 0.4 L0.5 0.0 1.1 0.3 1.8 0.1 1.75 0.4 1.7 0.45 1.75 0.45 1.9 0.55 2.35 0.75 1.75 0.8 1.8 1.15 1.1 0.9 0.5 1.25 0.55 0.85 0.0 0.6 0.55 0.45 0.6 0.45 0.55 0.4"/><path fill="#3b4102" stroke="none" d="M0.55 0.45 L0.55 0.4 0.6 0.45 0.55 0.45"/><path fill="none" stroke="#000000" stroke-width="0.5" stroke-opacity="0.301960784314" d="M0.55 0.4 L0.5 0.0 1.1 0.3 1.8 0.1 1.75 0.4 1.7 0.45 M1.75 0.45 L1.9 0.55 2.35 0.75 1.75 0.8 1.8 1.15 1.1 0.9 0.5 1.25 0.55 0.85 0.0 0.6 0.55 0.45 M0.55 0.4 L0.6 0.45 0.55 0.45"/></g><g id="c6"><g><use transform="matrix(1.0,0.0,0.0,1.0,0.0,0.0)" xlink:href="#c5"/></g></g><g id="c7"><path fill="#455a5b" stroke="none" d="M0.95 0.3 L1.15 0.7 Q1.35 1.25 1.15 1.8 L1.15 1.9 0.85 2.0 0.3 2.0 0.15 1.95 0.15 1.9 0.05 0.8 0.0 0.4 0.0 0.3 Q0.1 0.1 0.3 0.05 L0.6 0.0 0.75 0.05 0.8 0.05 0.85 0.1 0.95 0.3"/><path fill="none" stroke="#000000" stroke-width="0.5" stroke-opacity="0.301960784314" d="M1.15 1.8 Q1.35 1.25 1.15 0.7 L0.95 0.3 M0.05 0.8 L0.15 1.9"/></g><g id="c8"><g><use transform="matrix(1.0,0.0,0.0,1.0,0.0,0.0)" xlink:href="#c7"/></g></g><g id="c9"><path fill="#5b7576" stroke="none" d="M-0.25 -0.7 L-1.05 -2.75 Q-2.05 -4.65 -1.2 -5.05 -0.35 -5.45 0.5 -3.6 L1.6 -1.0 1.65 -0.3 Q0.3 0.45 -0.25 -0.7"/><path fill="none" stroke="#000000" stroke-width="0.5" stroke-opacity="0.301960784314" d="M1.65 -0.3 L1.6 -1.0 0.5 -3.6 Q-0.35 -5.45 -1.2 -5.05 -2.05 -4.65 -1.05 -2.75 L-0.25 -0.7"/></g><g id="c10"><g><use transform="matrix(1.0,0.0,0.0,1.0,0.0,0.0)" xlink:href="#c9"/></g></g><g id="c11"><path fill="#5b7576" stroke="none" d="M0.15 3.75 L0.15 3.6 -0.5 2.85 -0.65 2.7 0.7 2.65 1.25 1.35 1.25 1.25 1.1 -0.1 1.05 -0.2 2.1 0.55 Q2.45 1.05 2.6 0.85 L2.3 1.9 3.4 2.2 3.3 2.25 2.15 3.0 2.1 3.1 Q1.15 2.85 0.15 3.75 M3.65 4.05 L2.8 4.75 2.75 4.75 2.55 4.25 3.65 4.05 M2.65 4.85 L2.55 5.05 2.4 5.25 2.05 5.45 1.0 5.7 Q0.25 5.7 0.15 5.15 L0.0 4.35 0.0 4.05 Q0.6 3.9 0.7 4.85 2.1 5.1 2.65 4.85"/><path fill="#9cc0c2" stroke="none" d="M2.1 3.1 L2.15 3.2 2.45 3.65 2.5 3.8 3.65 4.05 2.55 4.25 2.75 4.75 2.7 4.8 2.65 4.85 Q2.1 5.1 0.7 4.85 0.6 3.9 0.0 4.05 L0.15 3.75 Q1.15 2.85 2.1 3.1"/><path fill="none" stroke="#000000" stroke-width="0.5" stroke-opacity="0.301960784314" d="M0.15 3.75 L0.15 3.6 -0.5 2.85 -0.65 2.7 0.7 2.65 1.25 1.35 1.25 1.25 1.1 -0.1 1.05 -0.2 2.1 0.55 M2.6 0.85 L2.3 1.9 3.4 2.2 3.3 2.25 2.15 3.0 2.1 3.1 2.15 3.2 2.45 3.65 2.5 3.8 3.65 4.05 2.8 4.75 2.75 4.75 2.7 4.8 2.65 4.85 2.55 5.05 2.4 5.25 2.05 5.45 1.0 5.7 Q0.25 5.7 0.15 5.15 L0.0 4.35 0.0 4.05 0.15 3.75"/><path fill="#bed2d3" stroke="none" d="M1.65 1.45 L1.2 2.55 Q0.75 3.35 0.75 3.8 0.75 4.25 0.55 4.3 0.3 4.3 0.2 4.15 0.1 3.95 0.6 2.9 L1.45 1.35 1.7 0.95 1.65 1.45"/></g><g id="c12"><g><use transform="matrix(1.0,0.0,0.0,1.0,0.0,0.0)" xlink:href="#c11"/></g></g><g id="c13"><path fill="#5b7576" stroke="none" d="M1.0 0.3 L0.85 0.25 0.5 0.3 Q0.35 0.45 0.35 0.7 L0.4 0.9 0.5 1.05 0.85 1.2 1.15 1.1 1.2 0.9 1.2 0.75 1.25 0.9 1.2 1.85 1.15 1.95 0.9 2.1 0.3 2.1 0.15 2.0 0.15 1.95 0.1 0.9 0.1 0.85 0.0 0.45 0.0 0.35 0.3 0.05 0.65 0.0 0.8 0.05 0.85 0.1 0.9 0.1 1.0 0.3"/><path fill="#bed2d3" stroke="none" d="M1.0 0.3 L1.2 0.75 1.2 0.9 1.15 1.1 0.85 1.2 0.5 1.05 0.4 0.9 0.35 0.7 Q0.35 0.45 0.5 0.3 L0.85 0.25 1.0 0.3"/><path fill="none" stroke="#000000" stroke-width="0.5" stroke-opacity="0.301960784314" d="M1.2 0.75 L1.0 0.3 M1.2 0.75 L1.25 0.9 1.2 1.85 M0.15 1.95 L0.1 0.9 0.1 0.85 M0.9 0.1 L1.0 0.3"/></g><g id="c14"><g><use transform="matrix(1.0,0.0,0.0,1.0,0.0,0.0)" xlink:href="#c13"/></g></g><g id="c15"><path fill="#79f7e4" stroke="none" d="M-2.9 -4.3 L-1.75 -4.3 -0.45 -4.15 1.1 -3.7 2.65 -2.95 3.35 -2.6 4.05 -2.2 Q6.05 -0.6 5.7 2.0 5.3 4.6 3.35 4.9 L2.95 4.9 -1.15 4.25 -2.1 2.45 Q-3.55 -0.85 -2.9 -4.3"/><path fill="#e7ffff" stroke="none" d="M-1.15 4.25 L-1.75 4.0 -2.1 3.85 -2.8 2.45 Q-5.85 -3.65 -3.05 -4.35 L-2.9 -4.3 Q-3.55 -0.85 -2.1 2.45 L-1.15 4.25"/><path fill="#fcffff" stroke="none" d="M-2.1 3.85 Q-2.7 3.45 -3.3 2.45 -4.55 0.25 -5.7 -4.9 -5.15 -4.5 -4.8 -4.45 L-3.05 -4.35 Q-5.85 -3.65 -2.8 2.45 L-2.1 3.85"/><path fill="none" stroke="#000000" stroke-width="0.5" stroke-opacity="0.301960784314" d="M-2.9 -4.3 L-1.75 -4.3 -0.45 -4.15 1.1 -3.7 2.65 -2.95 3.35 -2.6 4.05 -2.2 Q6.05 -0.6 5.7 2.0 5.3 4.6 3.35 4.9 L2.95 4.9 -1.15 4.25 -1.75 4.0 -2.1 3.85 Q-2.7 3.45 -3.3 2.45 -4.55 0.25 -5.7 -4.9 -5.15 -4.5 -4.8 -4.45 L-3.05 -4.35 -2.9 -4.3"/></g><g id="c16"><g><use transform="matrix(1.0,0.0,0.0,1.0,0.0,0.0)" xlink:href="#c15"/></g></g><g id="c17"><path fill="#55f4dd" stroke="none" d="M7.85 -3.3 Q9.1 -2.85 8.9 -1.55 9.55 -1.45 5.95 1.2 L1.1 4.15 -2.7 5.15 -2.8 5.15 -3.65 5.15 -7.65 5.0 -8.65 4.9 Q-9.6 4.75 -8.2 3.2 -3.35 0.35 -3.2 -3.75 L-3.2 -3.8 -3.1 -3.85 -3.1 -3.9 -3.2 -3.9 -3.3 -4.95 -3.35 -5.1 -3.3 -5.1 -3.25 -5.1 -0.65 -4.75 -0.55 -4.75 1.25 -4.2 Q2.0 -3.9 3.25 -3.75 L6.0 -3.6 6.1 -3.6 7.45 -3.45 7.85 -3.3"/><path fill="#04463d" stroke="none" d="M-3.2 -3.75 L-4.5 -3.65 -3.3 -4.95 -3.2 -3.9 -3.1 -3.9 -3.1 -3.85 -3.2 -3.8 -3.2 -3.75"/><path fill="none" stroke="#000000" stroke-width="0.5" stroke-opacity="0.301960784314" d="M1.1 4.15 Q3.3 3.2 6.05 1.2 9.65 -1.45 9.0 -1.55 9.2 -2.85 7.85 -3.3 M1.1 4.15 L-2.7 5.15 -2.8 5.15 -3.65 5.15 M-3.2 -3.75 L-4.5 -3.65 -3.3 -4.95 M-3.3 -5.1 L-3.25 -5.1 -0.65 -4.75 -0.55 -4.75 1.35 -4.2 3.25 -3.75 6.0 -3.6 6.1 -3.6 7.45 -3.45 7.85 -3.3 M-3.1 -3.9 L-3.1 -3.85"/></g><g id="c18"><g><use transform="matrix(1.0,0.0,0.0,1.0,0.0,0.0)" xlink:href="#c17"/></g></g><g id="c19"><path fill="#04463d" stroke="none" d="M6.9 -4.45 Q9.8 -2.5 9.8 0.2 9.8 2.85 6.9 4.7 4.05 6.5 0.0 6.45 -4.05 6.4 -6.95 4.5 -9.8 2.55 -9.8 -0.1 -9.8 -2.8 -6.95 -4.65 -4.05 -6.45 0.0 -6.4 4.05 -6.35 6.9 -4.45"/><path fill="none" stroke="#000000" stroke-width="0.5" stroke-opacity="0.301960784314" d="M6.9 -4.45 Q9.8 -2.5 9.8 0.2 9.8 2.85 6.9 4.7 4.05 6.5 0.0 6.45 -4.05 6.4 -6.95 4.5 -9.8 2.55 -9.8 -0.1 -9.8 -2.8 -6.95 -4.65 -4.05 -6.45 0.0 -6.4 4.05 -6.35 6.9 -4.45"/></g><g id="c20"><g><use transform="matrix(1.0,0.0,0.0,1.0,0.0,0.0)" xlink:href="#c19"/></g></g><g id="c21"><path fill="#fcffff" stroke="none" d="M5.05 -10.05 L4.95 -10.15 Q7.2 -8.95 8.1 -6.8 L1.35 -3.15 Q-0.4 -3.95 -2.0 -4.95 -5.45 -7.0 -7.8 -9.8 L-8.1 -10.2 Q-8.05 -12.45 -5.7 -13.0 -4.4 -12.65 -3.15 -11.9 -4.85 -12.25 -4.8 -11.35 L-4.85 -11.35 Q-6.2 -10.8 -5.45 -9.75 -3.0 -6.7 1.8 -4.75 L3.95 -6.05 4.75 -6.5 6.4 -7.6 Q6.5 -9.0 5.05 -10.05"/><path fill="#ddffff" stroke="none" d="M-3.15 -11.9 L-0.6 -9.9 Q0.4 -11.35 2.85 -11.65 4.55 -11.45 4.25 -9.9 L4.6 -8.85 4.75 -6.5 3.95 -6.05 3.65 -8.35 Q3.4 -9.75 2.35 -9.75 L0.85 -7.8 Q-1.85 -10.1 -4.8 -11.35 -4.85 -12.25 -3.15 -11.9 M0.15 -9.4 L-0.6 -9.9 0.15 -9.4"/><path fill="#55f4dd" stroke="none" d="M4.25 -9.9 L5.05 -10.05 Q6.5 -9.0 6.4 -7.6 L4.75 -6.5 4.6 -8.85 4.25 -9.9 M3.95 -6.05 L1.8 -4.75 Q-3.0 -6.7 -5.45 -9.75 -6.2 -10.8 -4.85 -11.35 L-4.8 -11.35 Q-1.85 -10.1 0.85 -7.8 L2.35 -9.75 Q3.4 -9.75 3.65 -8.35 L3.95 -6.05"/><path fill="#0cb69c" stroke="none" d="M8.1 -6.8 Q8.2 -3.5 6.95 -1.2 5.0 -0.15 1.5 0.0 -1.35 -0.15 -3.8 -1.55 L-4.6 -2.7 Q-1.35 -1.15 0.95 -2.0 -4.0 -3.9 -7.15 -7.7 L-7.8 -9.8 Q-5.45 -7.0 -2.0 -4.95 -0.4 -3.95 1.35 -3.15 L8.1 -6.8"/><path fill="#e7ffff" stroke="none" d="M-4.6 -2.7 Q-6.25 -5.2 -7.15 -7.7 -4.0 -3.9 0.95 -2.0 -1.35 -1.15 -4.6 -2.7"/><path fill="none" stroke="#000000" stroke-width="0.5" stroke-opacity="0.301960784314" d="M5.05 -10.05 L4.95 -10.15 Q7.2 -8.95 8.1 -6.8 8.2 -3.5 6.95 -1.2 5.0 -0.15 1.5 0.0 -1.35 -0.15 -3.8 -1.55 L-4.6 -2.7 Q-6.25 -5.2 -7.15 -7.7 L-7.8 -9.8 -8.1 -10.2 Q-8.05 -12.45 -5.7 -13.0 -4.4 -12.65 -3.15 -11.9 L-0.6 -9.9 Q0.4 -11.35 2.85 -11.65 4.55 -11.45 4.25 -9.9 L5.05 -10.05 Q6.5 -9.0 6.4 -7.6 L4.75 -6.5 3.95 -6.05 1.8 -4.75 Q-3.0 -6.7 -5.45 -9.75 -6.2 -10.8 -4.85 -11.35 L-4.8 -11.35 Q-1.85 -10.1 0.85 -7.8 L2.35 -9.75 Q3.4 -9.75 3.65 -8.35 L3.95 -6.05 M4.75 -6.5 L4.6 -8.85 4.25 -9.9 M-7.8 -9.8 Q-5.45 -7.0 -2.0 -4.95 -0.4 -3.95 1.35 -3.15 L8.1 -6.8 M-0.6 -9.9 L0.15 -9.4"/><path fill="#ffffff" stroke="none" d="M-1.1 -9.6 L-0.8 -9.8 -0.05 -10.0 0.3 -10.05 0.6 -10.05 1.05 -10.1 1.6 -10.0 Q5.05 -9.95 4.1 -8.25 L3.65 -7.85 Q2.9 -7.1 1.85 -7.2 L0.55 -7.6 0.1 -7.9 Q-0.85 -8.75 -1.1 -9.6 M1.25 -9.15 L0.45 -8.8 Q-0.2 -7.6 2.35 -7.95 3.3 -8.2 3.8 -8.65 L3.2 -9.55 1.6 -10.0 3.2 -9.55 3.8 -8.65 Q3.3 -8.2 2.35 -7.95 -0.2 -7.6 0.45 -8.8 L1.25 -9.15"/><path fill="#cdfcf5" stroke="none" d="M4.1 -8.25 L4.1 -8.05 4.05 -6.05 1.75 -4.55 Q0.8 -6.05 0.35 -7.05 L-0.1 -7.7 -0.35 -8.2 0.1 -7.9 0.55 -7.6 1.85 -7.2 Q2.9 -7.1 3.65 -7.85 L4.1 -8.25"/><path fill="#e7ffff" stroke="none" d="M1.75 -4.55 L1.8 -4.5 1.0 -5.1 0.85 -5.15 Q-0.25 -6.95 -1.0 -9.05 L-1.1 -9.6 Q-0.85 -8.75 0.1 -7.9 L-0.35 -8.2 -0.1 -7.7 0.35 -7.05 Q0.8 -6.05 1.75 -4.55"/><path fill="none" stroke="#000000" stroke-width="0.5" stroke-opacity="0.301960784314" d="M4.05 -6.05 L1.75 -4.55 M1.6 -10.0 L3.2 -9.55 3.8 -8.65 Q3.3 -8.2 2.35 -7.95 -0.2 -7.6 0.45 -8.8 L1.25 -9.15"/></g><g id="c22"><g><use transform="matrix(1.0,0.0,0.0,1.0,0.0,0.0)" xlink:href="#c21"/></g></g><g id="c23"><path fill="#fcffff" stroke="none" d="M3.0 -6.95 Q5.7 -5.75 9.5 -0.9 7.75 -0.15 6.3 -0.05 4.55 0.05 4.1 0.4 L3.3 0.8 Q2.9 0.75 3.7 -1.65 4.5 -4.1 3.35 -6.25 L3.0 -6.95"/><path fill="#79f7e4" stroke="none" d="M3.0 -6.95 L3.35 -6.25 Q4.5 -4.1 3.7 -1.65 2.9 0.75 3.3 0.8 L4.1 0.4 Q4.55 0.05 6.3 -0.05 7.75 -0.15 9.5 -0.9 L9.65 -0.7 8.15 -0.15 3.8 3.2 1.85 4.55 Q-0.8 6.25 -4.15 7.1 L-5.3 7.35 Q-8.85 7.75 -9.5 4.15 -10.1 0.5 -7.45 -2.1 L-6.9 -2.6 Q-3.6 -5.3 0.15 -7.0 L0.7 -7.3 3.0 -6.95"/><path fill="none" stroke="#000000" stroke-width="0.5" stroke-opacity="0.301960784314" d="M9.5 -0.9 Q5.7 -5.75 3.0 -6.95 M9.5 -0.9 L9.65 -0.7 8.15 -0.15 3.8 3.2 1.85 4.55 Q-0.8 6.25 -4.15 7.1 L-5.3 7.35 Q-8.85 7.75 -9.5 4.15 -10.1 0.5 -7.45 -2.1 L-6.9 -2.6 Q-3.6 -5.3 0.15 -7.0 L0.7 -7.3 3.0 -6.95"/></g><g id="c24"><g><use transform="matrix(1.0,0.0,0.0,1.0,0.0,0.0)" xlink:href="#c23"/></g></g><g id="c25"><path fill="#04463d" stroke="none" d="M6.35 -18.8 L5.65 -20.3 Q8.25 -20.7 8.45 -21.0 L8.5 -20.9 6.45 -18.85 6.5 -18.7 6.35 -18.8 6.45 -18.85 6.35 -18.8"/><path fill="#55f4dd" stroke="none" d="M6.45 -18.85 L8.5 -20.9 8.85 -17.05 10.05 -13.45 Q11.1 -10.2 8.7 -5.05 6.3 0.15 -0.75 0.0 -7.75 -0.15 -8.9 -4.15 -9.95 -8.1 -10.35 -11.85 -10.4 -13.35 -7.3 -13.9 -0.75 -12.45 6.35 -18.8 L6.5 -18.7 6.45 -18.85"/><path fill="none" stroke="#000000" stroke-width="0.5" stroke-opacity="0.301960784314" d="M8.5 -20.9 L8.45 -21.0 Q8.25 -20.7 5.65 -20.3 L6.35 -18.8 6.45 -18.85 8.5 -20.9 8.85 -17.05 10.05 -13.45 Q11.1 -10.2 8.7 -5.05 6.3 0.15 -0.75 0.0 -7.75 -0.15 -8.9 -4.15 -9.95 -8.1 -10.35 -11.85 -10.4 -13.35 -7.3 -13.9 -0.75 -12.45 6.35 -18.8 L6.5 -18.7 6.45 -18.85"/></g><g id="c26"><g><use transform="matrix(1.0,0.0,0.0,1.0,0.0,0.0)" xlink:href="#c25"/></g></g><g id="c27"><path fill="#79f7e4" stroke="none" d="M-5.6 -5.25 L-5.45 -5.35 -5.35 -5.45 -4.9 -5.65 Q-3.2 -6.55 -0.5 -7.25 L-0.2 -7.1 Q2.95 -5.9 9.1 1.1 8.3 1.05 7.8 1.45 L7.6 1.6 Q7.6 2.05 6.55 2.9 L6.7 2.4 Q6.7 1.6 5.1 2.0 L4.6 2.35 5.55 0.1 Q-1.95 1.5 -5.6 -5.25 M4.65 4.25 L4.5 4.35 3.0 5.5 Q0.9 6.9 -2.15 7.2 L-2.35 7.25 -2.55 7.25 Q0.45 6.85 2.15 5.85 L2.4 5.7 4.65 4.25 M7.6 1.6 L7.5 1.4 Q7.1 1.0 5.1 2.0 7.1 1.0 7.5 1.4 L7.6 1.6"/><path fill="#bbfaf1" stroke="none" d="M-2.85 7.25 L-3.15 7.25 -3.25 7.25 -3.4 7.25 1.95 2.5 Q-4.5 0.75 -6.4 -4.75 L-6.2 -4.85 -5.6 -5.25 Q-1.95 1.5 5.55 0.1 L4.6 2.35 4.5 2.4 1.2 4.4 0.15 5.1 -2.15 6.85 -2.85 7.25"/><path fill="#e7ffff" stroke="none" d="M6.55 2.9 L6.25 3.1 4.65 4.25 2.4 5.7 2.15 5.85 Q3.65 3.6 1.2 4.4 L4.5 2.4 4.6 2.35 5.1 2.0 Q6.7 1.6 6.7 2.4 L6.55 2.9 M-3.4 7.25 Q-6.35 7.05 -7.95 3.85 -1.1 4.0 -6.6 -3.05 L-7.35 -3.9 -6.85 -4.35 -6.4 -4.75 Q-4.5 0.75 1.95 2.5 L-3.4 7.25"/><path fill="#fcffff" stroke="none" d="M-2.55 7.25 L-2.95 7.3 -2.85 7.25 -2.15 6.85 0.15 5.1 1.2 4.4 Q3.65 3.6 2.15 5.85 0.45 6.85 -2.55 7.25 M-7.95 3.85 L-8.25 3.2 Q-9.95 -0.85 -8.1 -3.15 L-7.7 -3.65 -7.35 -3.9 -6.6 -3.05 Q-1.1 4.0 -7.95 3.85"/><path fill="none" stroke="#000000" stroke-width="0.5" stroke-opacity="0.301960784314" d="M-5.6 -5.25 L-5.45 -5.35 -5.35 -5.45 -4.9 -5.65 Q-3.2 -6.55 -0.5 -7.25 L-0.2 -7.1 Q2.95 -5.9 9.1 1.1 8.3 1.05 7.8 1.45 L7.6 1.6 Q7.6 2.05 6.55 2.9 L6.25 3.1 4.65 4.25 4.5 4.35 3.0 5.5 Q0.9 6.9 -2.15 7.2 L-2.35 7.25 -2.55 7.25 -2.95 7.3 -2.85 7.25 -3.15 7.25 -3.25 7.25 -3.4 7.25 Q-6.35 7.05 -7.95 3.85 L-8.25 3.2 Q-9.95 -0.85 -8.1 -3.15 L-7.7 -3.65 -7.35 -3.9 -6.85 -4.35 -6.4 -4.75 -6.2 -4.85 -5.6 -5.25 M4.6 2.35 L5.1 2.0 Q7.1 1.0 7.5 1.4 L7.6 1.6 M1.2 4.4 L0.15 5.1 -2.15 6.85 -2.85 7.25 M4.6 2.35 L4.5 2.4 1.2 4.4 M2.15 5.85 L2.4 5.7 4.65 4.25 M-2.55 7.25 Q0.45 6.85 2.15 5.85"/></g><g id="c28"><g><use transform="matrix(1.0,0.0,0.0,1.0,0.0,0.0)" xlink:href="#c27"/></g></g><g id="c29"><path fill="#e7ffff" stroke="none" d="M2.55 -3.75 L3.05 -3.5 Q5.4 -2.4 6.75 -0.95 L6.9 -0.7 Q-6.3 0.05 0.15 3.6 L-0.4 3.9 -1.25 4.15 Q-1.2 3.9 -1.5 3.7 L-2.55 3.05 Q-3.35 2.7 -4.5 2.1 L-5.7 1.45 Q-6.65 0.75 -7.1 -0.15 -1.4 0.3 2.55 -3.75"/><path fill="#fcffff" stroke="none" d="M0.15 3.6 Q-6.3 0.05 6.9 -0.7 L7.65 0.0 Q4.8 -0.8 1.9 2.4 L0.15 3.6"/><path fill="#55f4dd" stroke="none" d="M2.55 -3.75 Q-1.4 0.3 -7.1 -0.15 L-7.25 -0.35 -7.45 -1.0 -7.6 -1.5 Q-7.55 -3.05 -3.75 -3.75 0.25 -4.6 2.55 -3.75"/><path fill="none" stroke="#000000" stroke-width="0.5" stroke-opacity="0.301960784314" d="M6.9 -0.7 L6.75 -0.95 Q5.4 -2.4 3.05 -3.5 L2.55 -3.75 Q0.25 -4.6 -3.75 -3.75 -7.55 -3.05 -7.6 -1.5 L-7.45 -1.0 -7.25 -0.35 -7.1 -0.15 Q-6.65 0.75 -5.7 1.45 L-4.5 2.1 Q-3.35 2.7 -2.55 3.05 L-1.5 3.7 Q-1.2 3.9 -1.25 4.15 L-0.4 3.9 0.15 3.6 M6.9 -0.7 L7.65 0.0 Q4.8 -0.8 1.9 2.4 L0.15 3.6"/><path fill="#e7ffff" stroke="none" d="M-4.95 -0.4 L-4.35 -0.05 Q-2.45 0.55 -0.95 1.4 -3.2 1.4 -1.15 4.15 L-1.4 4.05 Q-3.55 3.1 -5.5 1.95 L-5.8 1.8 Q-6.8 -0.05 -4.95 -0.4"/><path fill="#79f7e4" stroke="none" d="M-5.8 1.8 Q-7.25 0.75 -7.1 -0.05 -6.9 -0.9 -4.95 -0.4 -6.8 -0.05 -5.8 1.8"/><path fill="#fcffff" stroke="none" d="M-0.95 1.4 L-0.55 1.8 Q-0.95 1.45 -1.35 2.35 -1.35 3.9 -0.6 4.25 L-1.15 4.15 Q-3.2 1.4 -0.95 1.4"/><path fill="none" stroke="#000000" stroke-width="0.5" stroke-opacity="0.301960784314" d="M-5.8 1.8 Q-7.25 0.75 -7.1 -0.05 -6.9 -0.9 -4.95 -0.4 L-4.35 -0.05 Q-2.45 0.55 -0.95 1.4 L-0.55 1.8 -0.3 2.05 M-0.55 1.8 Q-0.95 1.45 -1.35 2.35 -1.35 3.9 -0.6 4.25 L-1.15 4.15 -1.4 4.05 Q-3.55 3.1 -5.5 1.95 L-5.8 1.8"/></g><g id="c30"><g><use transform="matrix(1.0,0.0,0.0,1.0,0.0,0.0)" xlink:href="#c29"/></g></g><radialGradient gradientUnits="userSpaceOnUse" r="819.2" cx="0" cy="0" fx="28.8" fy="0" spreadMethod="pad" gradientTransform="matrix(0.0482330322266,0.0,0.0,0.0482330322266,2.85,-12.2)" id="gradient2"><stop offset="0.117647058824" stop-color="#ffffff"/><stop offset="0.176470588235" stop-color="#ffffff" stop-opacity="0.501960784314"/><stop offset="0.564705882353" stop-color="#ffffff" stop-opacity="0.0"/></radialGradient><g id="c31"><path fill="#79f7e4" stroke="none" d="M4.85 -15.3 L4.9 -15.3 7.25 -15.75 8.25 -15.55 Q10.4 -15.0 10.45 -13.65 10.35 -10.0 9.75 -6.2 L9.5 -5.05 Q8.6 -0.6 1.65 -0.05 -5.4 0.45 -8.25 -5.15 L-9.8 -9.05 Q-7.65 -5.1 -3.25 -4.7 -1.15 -3.7 4.85 -15.3"/><path fill="#cdfcf5" stroke="none" d="M3.85 -15.3 L4.85 -15.3 Q-1.15 -3.7 -3.25 -4.7 -7.65 -5.1 -9.8 -9.05 L-9.85 -9.1 Q-10.7 -12.1 -10.2 -14.4 L-10.0 -15.25 Q-8.35 -11.2 3.85 -15.3"/><path fill="#e1ffff" stroke="none" d="M-10.0 -15.25 L-9.25 -18.4 -9.15 -22.8 -7.95 -21.25 -7.15 -20.5 Q-1.3 -15.55 3.85 -15.3 -8.35 -11.2 -10.0 -15.25"/><path fill="#04463d" stroke="none" d="M-9.15 -22.8 Q-8.55 -22.15 -6.4 -21.65 L-7.15 -20.5 -7.95 -21.25 -9.15 -22.8"/><path fill="none" stroke="#000000" stroke-width="0.5" stroke-opacity="0.301960784314" d="M3.85 -15.3 L4.85 -15.3 4.9 -15.3 7.25 -15.75 8.25 -15.55 Q10.4 -15.0 10.45 -13.65 10.35 -10.0 9.75 -6.2 L9.5 -5.05 Q8.6 -0.6 1.65 -0.05 -5.4 0.45 -8.25 -5.15 L-9.8 -9.05 M-9.85 -9.1 Q-10.7 -12.1 -10.2 -14.4 L-10.0 -15.25 -9.25 -18.4 -9.15 -22.8 Q-8.55 -22.15 -6.4 -21.65 L-7.15 -20.5 Q-1.3 -15.55 3.85 -15.3 M-9.15 -22.8 L-7.95 -21.25 -7.15 -20.5"/><path stroke="none" fill="url(#gradient2)" d="M28.85 -12.2 Q28.85 -1.4 21.2 6.2 13.6 13.8 2.85 13.8 -7.95 13.8 -15.6 6.2 -23.15 -1.4 -23.15 -12.2 -23.15 -22.95 -15.6 -30.6 -7.95 -38.15 2.85 -38.15 13.6 -38.15 21.2 -30.6 28.85 -22.95 28.85 -12.2"/></g><g id="c32"><g><use transform="matrix(1.0,0.0,0.0,1.0,0.0,0.0)" xlink:href="#c31"/></g></g><g id="c33"><path fill="#e7ffff" stroke="none" d="M8.8 -17.5 L6.85 -19.85 Q0.35 -17.95 -8.15 -13.6 -5.6 -15.85 0.95 -19.3 L8.4 -22.0 Q7.75 -20.95 7.9 -20.3 L8.8 -17.5 M-9.8 -11.65 Q2.65 -8.25 10.05 -13.15 10.4 -10.15 8.8 -6.25 L8.15 -4.95 Q0.75 -0.9 -8.65 -2.35 L-9.0 -3.0 Q-10.45 -6.75 -9.9 -11.05 L-9.8 -11.65"/><path fill="#fcffff" stroke="none" d="M-8.15 -13.6 Q0.35 -17.95 6.85 -19.85 L8.8 -17.5 9.25 -16.25 9.55 -15.35 10.05 -13.15 Q2.65 -8.25 -9.8 -11.65 -9.45 -12.55 -8.15 -13.6"/><path fill="#79f7e4" stroke="none" d="M8.15 -4.95 Q5.75 -0.9 -0.45 -0.15 -6.9 0.6 -8.65 -2.35 0.75 -0.9 8.15 -4.95"/><path fill="none" stroke="#000000" stroke-width="0.5" stroke-opacity="0.301960784314" d="M8.8 -17.5 L7.9 -20.3 Q7.75 -20.95 8.4 -22.0 L0.95 -19.3 M10.05 -13.15 L9.55 -15.35 9.25 -16.25 M10.05 -13.15 Q10.4 -10.15 8.8 -6.25 L8.15 -4.95"/></g><g id="c34"><g><use transform="matrix(1.0,0.0,0.0,1.0,0.0,0.0)" xlink:href="#c33"/></g></g><radialGradient gradientUnits="userSpaceOnUse" r="819.2" cx="0" cy="0" fx="-67.2" fy="0" spreadMethod="pad" gradientTransform="matrix(0.00694274902344,0.00148010253906,-0.00161743164062,0.00631713867188,1.55,1.2)" id="gradient3"><stop offset="0.694117647059" stop-color="#fff4dd"/><stop offset="0.745098039216" stop-color="#d1b579"/></radialGradient><radialGradient gradientUnits="userSpaceOnUse" r="819.2" cx="0" cy="0" spreadMethod="pad" gradientTransform="matrix(0.00527954101562,0.00119018554688,-0.00067138671875,0.00541687011719,-1.9,2.0)" id="gradient4"><stop offset="0.43137254902" stop-color="#ffffff"/><stop offset="1.0" stop-color="#ffffff" stop-opacity="0.0"/></radialGradient><g id="c35"><path fill="#57514b" fill-opacity="0.6" d="M-0.15 -6.5 Q2.45 -6.5 4.3 -4.6 6.15 -2.7 6.2 0.05 6.25 2.8 4.45 4.65 2.7 6.5 0.1 6.5 -2.5 6.5 -4.35 4.65 -6.15 2.75 -6.2 0.0 -6.25 -2.75 -4.5 -4.6 -2.75 -6.5 -0.15 -6.5"/><path fill="#57514b" fill-opacity="0.6" d="M3.35 -2.95 Q4.7 -1.45 4.9 0.95 4.75 3.05 3.5 4.7 2.25 6.2 0.3 6.2 -1.7 6.2 -2.9 4.7 -4.4 3.05 -4.4 0.95 -4.45 -1.45 -3.05 -2.95 -1.9 -4.45 0.1 -4.45 2.05 -4.45 3.35 -2.95"/><path stroke="none" fill="url(#gradient3)" d="M3.1 -0.85 Q4.25 0.35 4.2 1.85 4.2 3.3 3.1 4.45 1.7 5.55 0.1 5.4 -1.55 5.4 -2.75 4.2 -4.15 3.0 -4.15 1.55 -4.15 0.05 -2.85 -1.05 -1.6 -2.15 0.1 -2.1 1.7 -2.05 3.1 -0.85"/><path fill="none" stroke="#000000" stroke-width="0.5" stroke-opacity="0.301960784314" d="M3.1 -0.85 Q4.25 0.35 4.2 1.85 4.2 3.3 3.1 4.45 1.7 5.55 0.1 5.4 -1.55 5.4 -2.75 4.2 -4.15 3.0 -4.15 1.55 -4.15 0.05 -2.85 -1.05 -1.6 -2.15 0.1 -2.1 1.7 -2.05 3.1 -0.85"/><path fill="#ffffff" stroke="none" d="M3.2 2.7 L2.95 2.8 2.7 2.65 2.65 2.35 2.7 2.0 Q2.8 1.9 2.95 1.9 L3.2 2.05 3.25 2.4 3.2 2.7"/><path fill="none" stroke="#000000" stroke-width="0.5" stroke-opacity="0.301960784314" d="M3.2 2.7 L2.95 2.8 2.7 2.65 2.65 2.35 2.7 2.0 Q2.8 1.9 2.95 1.9 L3.2 2.05 3.25 2.4 3.2 2.7"/><path stroke="none" fill="url(#gradient4)" d="M-1.3 -2.4 Q0.45 -2.0 1.55 -0.4 2.6 1.2 2.4 3.05 2.15 4.85 0.8 5.85 -0.7 6.8 -2.45 6.35 -4.25 5.95 -5.25 4.45 -6.4 2.85 -6.15 1.05 -5.95 -0.75 -4.45 -1.75 -3.1 -2.8 -1.3 -2.4"/></g><g id="c36"><g><use transform="matrix(1.0,0.0,0.0,1.0,0.0,0.0)" xlink:href="#c35"/></g></g><g id="c37"><path fill="#2e1f16" stroke="none" d="M0.6 -0.4 L0.0 0.0 -0.6 -0.4 -0.85 -1.35 -0.6 -2.3 Q-0.35 -2.7 0.0 -2.7 0.35 -2.7 0.6 -2.3 L0.85 -1.35 0.6 -0.4"/><path fill="none" stroke="#000000" stroke-width="0.5" stroke-opacity="0.301960784314" d="M0.6 -0.4 L0.0 0.0 -0.6 -0.4 -0.85 -1.35 -0.6 -2.3 Q-0.35 -2.7 0.0 -2.7 0.35 -2.7 0.6 -2.3 L0.85 -1.35 0.6 -0.4"/><path fill="#ffffff" stroke="none" d="M-0.25 -1.65 Q-0.35 -1.55 -0.45 -1.55 L-0.6 -1.7 -0.6 -2.0 -0.45 -2.3 -0.25 -2.35 -0.1 -2.25 -0.1 -1.9 -0.25 -1.65"/><path fill="none" stroke="#000000" stroke-width="0.5" stroke-opacity="0.301960784314" d="M-0.25 -1.65 Q-0.35 -1.55 -0.45 -1.55 L-0.6 -1.7 -0.6 -2.0 -0.45 -2.3 -0.25 -2.35 -0.1 -2.25 -0.1 -1.9 -0.25 -1.65"/></g><g id="c38"><g><use transform="matrix(1.0,0.0,0.0,1.0,0.0,0.0)" xlink:href="#c37"/></g></g><g id="c39"><g><use transform="matrix(1.0,0.0,0.0,1.0,-0.6,0.4)" xlink:href="#c38"/></g></g><radialGradient gradientUnits="userSpaceOnUse" r="819.2" cx="0" cy="0" spreadMethod="pad" gradientTransform="matrix(0.00418090820312,-0.000259399414062,-0.00067138671875,0.0064697265625,-0.7,1.1)" id="gradient5"><stop offset="0.694117647059" stop-color="#fff4dd"/><stop offset="0.745098039216" stop-color="#d1b579"/></radialGradient><radialGradient gradientUnits="userSpaceOnUse" r="819.2" cx="0" cy="0" spreadMethod="pad" gradientTransform="matrix(0.00291442871094,0.000732421875,-0.000579833984375,0.00416564941406,0.85,0.55)" id="gradient6"><stop offset="0.43137254902" stop-color="#ffffff"/><stop offset="1.0" stop-color="#ffffff" stop-opacity="0.0"/></radialGradient><g id="c40"><path fill="#57514b" fill-opacity="0.6" d="M0.85 -6.6 Q2.35 -6.5 3.15 -4.5 3.9 -2.55 3.55 0.25 3.2 3.05 1.95 4.9 0.65 6.75 -0.85 6.65 -2.35 6.5 -3.15 4.5 -3.9 2.5 -3.55 -0.3 -3.2 -3.1 -1.95 -4.9 -0.65 -6.75 0.85 -6.6"/><path fill="#57514b" fill-opacity="0.6" d="M0.45 -4.5 Q1.6 -4.4 2.05 -2.8 2.75 -1.25 2.4 1.2 2.15 3.35 1.1 4.95 0.25 6.45 -0.9 6.35 -2.05 6.3 -2.6 4.65 -3.15 2.95 -2.95 0.8 -2.55 -1.65 -1.65 -3.1 -0.7 -4.55 0.45 -4.5"/><path stroke="none" fill="url(#gradient5)" d="M0.2 -2.35 Q1.25 -2.35 1.8 -1.2 2.5 -0.1 2.3 1.45 2.1 2.95 1.1 4.15 0.25 5.35 -0.8 5.3 -1.8 5.4 -2.5 4.3 -3.05 3.1 -2.85 1.65 -2.65 0.05 -1.8 -1.1 -0.8 -2.3 0.2 -2.35"/><path fill="none" stroke="#000000" stroke-width="0.5" stroke-opacity="0.301960784314" d="M0.2 -2.35 Q-0.8 -2.3 -1.8 -1.1 -2.65 0.05 -2.85 1.65 -3.05 3.1 -2.5 4.3 -1.8 5.4 -0.8 5.3 0.25 5.35 1.1 4.15 2.1 2.95 2.3 1.45 2.5 -0.1 1.8 -1.2 1.25 -2.35 0.2 -2.35"/><path fill="#ffffff" stroke="none" d="M-2.25 3.95 Q-2.4 4.1 -2.5 4.05 L-2.65 3.9 -2.65 3.55 -2.6 3.2 -2.35 3.05 -2.2 3.25 -2.15 3.6 -2.25 3.95"/><path fill="none" stroke="#000000" stroke-width="0.5" stroke-opacity="0.301960784314" d="M-2.25 3.95 Q-2.4 4.1 -2.5 4.05 L-2.65 3.9 -2.65 3.55 -2.6 3.2 -2.35 3.05 -2.2 3.25 -2.15 3.6 -2.25 3.95"/><path stroke="none" fill="url(#gradient6)" d="M-0.45 -2.25 Q0.35 -3.15 1.35 -2.85 2.3 -2.6 2.85 -1.4 3.4 -0.25 3.15 1.15 2.95 2.55 2.2 3.4 1.35 4.15 0.35 3.9 -0.6 3.65 -1.1 2.55 -1.7 1.35 -1.5 -0.05 -1.3 -1.45 -0.45 -2.25"/></g><g id="c41"><g><use transform="matrix(1.0,0.0,0.0,1.0,0.0,0.0)" xlink:href="#c40"/></g></g><g id="c42"><path fill="#fcffff" stroke="none" d="M4.8 -4.5 L4.85 -4.4 5.4 -0.75 Q0.15 -3.45 -5.15 -2.65 L-4.3 -3.65 Q0.9 -5.5 4.8 -4.5"/><path fill="#e7ffff" stroke="none" d="M-5.15 -2.65 Q0.15 -3.45 5.4 -0.75 6.2 4.0 5.45 3.7 -0.2 -0.85 -6.2 -1.05 L-5.15 -2.65"/><path fill="#93f9ea" stroke="none" d="M5.4 -0.75 L4.85 -4.4 Q7.8 3.5 5.6 4.85 -0.3 1.75 -6.4 2.25 -6.8 0.55 -6.2 -1.05 -0.2 -0.85 5.45 3.7 6.2 4.0 5.4 -0.75"/><path fill="none" stroke="#000000" stroke-width="0.5" stroke-opacity="0.301960784314" d="M4.85 -4.4 L4.8 -4.5 M-4.3 -3.65 L-5.15 -2.65 M4.85 -4.4 Q7.8 3.5 5.6 4.85 -0.3 1.75 -6.4 2.25 -6.8 0.55 -6.2 -1.05 L-5.15 -2.65"/></g><g id="c43"><g><use transform="matrix(1.0,0.0,0.0,1.0,0.0,0.0)" xlink:href="#c42"/></g></g><g id="c44"><path fill="#fcffff" stroke="none" d="M1.7 -6.0 L2.25 -5.25 Q-0.65 -4.35 -3.15 0.2 L-3.25 -3.75 -3.2 -3.85 Q-1.3 -6.2 1.7 -6.0"/><path fill="#e7ffff" stroke="none" d="M-3.15 0.2 Q-0.65 -4.35 2.25 -5.25 L3.0 -3.95 Q-0.2 -1.75 -2.7 4.75 -3.05 5.35 -3.15 0.2"/><path fill="#93f9ea" stroke="none" d="M-3.25 -3.75 L-3.15 0.2 Q-3.05 5.35 -2.7 4.75 -0.2 -1.75 3.0 -3.95 3.5 -2.5 3.5 -0.6 0.15 0.85 -2.7 6.0 -4.0 5.35 -3.25 -3.75"/><path fill="none" stroke="#000000" stroke-width="0.5" stroke-opacity="0.301960784314" d="M2.25 -5.25 L1.7 -6.0 M-3.2 -3.85 L-3.25 -3.75 M2.25 -5.25 L3.0 -3.95 Q3.5 -2.5 3.5 -0.6 0.15 0.85 -2.7 6.0 -4.0 5.35 -3.25 -3.75"/></g><g id="c45"><g><use transform="matrix(1.0,0.0,0.0,1.0,0.0,0.0)" xlink:href="#c44"/></g></g><g id="c46"><g><use transform="matrix(-3.18151855469,0.0,-0.110565185547,3.18756103516,12.4,-6.5)" filter="url(#filter24)" xlink:href="#c2"/></g><g><use transform="matrix(1.82070922852,0.0,-0.364486694336,1.82070922852,1.35,-2.25)" xlink:href="#c4"/></g><g><use transform="matrix(1.77719116211,0.167434692383,-0.529937744141,1.81071472168,-4.95,-0.45)" xlink:href="#c6"/></g><g><use transform="matrix(1.82934570312,-0.64665222168,0.306335449219,1.69989013672,1.45,-4.25)" xlink:href="#c8"/></g><g><use transform="matrix(-0.977951049805,0.194076538086,0.228012084961,0.971206665039,-1.9,-9.35)" xlink:href="#c10"/></g><g><use transform="matrix(1.9296875,-0.941665649414,1.25354003906,1.34031677246,-8.05,-8.8)" xlink:href="#c12"/></g><g><use transform="matrix(-1.77719116211,-0.167434692383,-0.529937744141,1.81071472168,-0.95,-2.9)" xlink:href="#c14"/></g><g><use transform="matrix(1.0,0.0,0.0,1.0,-13.45,-23.05)" xlink:href="#c16"/></g><g><use transform="matrix(1.0,0.0,0.0,1.0,4.7,-27.85)" xlink:href="#c18"/></g><g><use transform="matrix(1.0,0.0,0.0,1.0,-2.45,-33.7)" xlink:href="#c20"/></g><g><use transform="matrix(1.0,0.0,0.0,1.0,-3.15,-29.6)" xlink:href="#c22"/></g><g><use transform="matrix(1.0,0.0,0.0,1.0,7.9,-21.3)" xlink:href="#c24"/></g><g><use transform="matrix(1.0,0.0,0.0,1.0,-0.9,-17.55)" xlink:href="#c26"/></g><g><use transform="matrix(1.0,0.0,0.0,1.0,-8.1,-15.45)" xlink:href="#c28"/></g><g><use transform="matrix(1.0,0.0,0.0,1.0,5.9,-12.75)" xlink:href="#c30"/></g><g><use transform="matrix(1.0,0.0,0.0,1.0,-4.45,-14.7)" xlink:href="#c32"/></g><g><use transform="matrix(1.0,0.0,0.0,1.0,1.2,-13.9)" xlink:href="#c34"/></g><g><use transform="matrix(1.0,0.0,0.0,1.0,-2.0,-21.1)" xlink:href="#c36"/></g><g><use transform="matrix(0.744186401367,0.255249023438,-0.196365356445,0.90901184082,0.5,-18.0)" xlink:href="#c39"/></g><g><use transform="matrix(1.0,0.0,0.0,1.0,8.0,-24.55)" xlink:href="#c41"/></g><g><use transform="matrix(0.595306396484,0.204193115234,-0.157089233398,0.727203369141,6.65,-20.45)" xlink:href="#c39"/></g><g><use transform="matrix(1.0,0.0,0.0,1.0,-2.1,-23.3)" xlink:href="#c43"/></g><g><use transform="matrix(1.0,0.0,0.0,1.0,7.7,-25.75)" xlink:href="#c45"/></g></g><filter id="filter24"><feColorMatrix in="SourceGraphic" type="matrix" values="1.0 0.0 0.0 0.0 0.0 0.0 1.0 0.0 0.0 0.0 0.0 0.0 1.0 0.0 0.0 0.0 0.0 0.0 0.5 0.0" result="cxform"/><feComposite operator="in" in2="SourceGraphic" result="color-xform"/></filter><g id="c47"><path fill="#000000" fill-opacity="0.00392156862745" d="M0.0 0.0 L60.0 0.0 60.0 60.0 0.0 60.0 0.0 0.0"/></g><g id="c48"><path fill="none" stroke="#000000" stroke-width="1.0" stroke-opacity="0.301960784314" d="M22.3 0.35 Q26.6 -1.0 28.5 3.05 L41.4 31.7 Q43.1 35.4 39.9 36.85 L38.15 37.65 19.65 43.65 Q17.05 44.5 15.35 43.3 14.2 42.55 13.5 40.9 L0.55 12.25 Q-0.6 9.75 0.6 8.25 1.15 7.55 2.2 7.05 2.85 6.6 3.8 6.3 L22.3 0.35"/><path fill="#300525" stroke="none" d="M25.55 0.9 Q26.9 1.6 27.8 3.55 L40.7 32.15 Q42.6 36.3 38.3 37.65 L23.3 42.5 13.15 21.4 4.6 20.9 0.7 12.25 Q-0.45 9.75 0.75 8.25 L29.8 9.75 25.55 0.9 M20.1 43.55 L19.8 43.65 Q17.15 44.45 15.5 43.3 L20.1 43.55"/><path fill="#630a4c" stroke="none" d="M23.3 42.5 L20.1 43.55 15.5 43.3 Q14.35 42.55 13.65 40.9 L4.6 20.9 13.15 21.4 23.3 42.5 M0.75 8.25 Q1.45 7.3 3.1 6.75 L21.65 0.8 25.55 0.9 29.8 9.75 0.75 8.25"/><path fill="none" stroke="#000000" stroke-width="0.5" stroke-opacity="0.301960784314" d="M25.55 0.9 Q26.9 1.6 27.8 3.55 L40.7 32.15 Q42.6 36.3 38.3 37.65 L23.3 42.5 20.1 43.55 19.8 43.65 Q17.15 44.45 15.5 43.3 14.35 42.55 13.65 40.9 L4.6 20.9 0.7 12.25 Q-0.45 9.75 0.75 8.25 1.45 7.3 3.1 6.75 L21.65 0.8 25.55 0.9"/><path fill="#9d147b" stroke="none" d="M14.2 40.5 L1.35 11.8 Q-0.5 7.75 3.8 6.35 L22.3 0.4 Q26.55 -1.0 28.45 3.1 L41.35 31.7 Q43.25 35.85 38.9 37.25 L20.4 43.2 Q16.1 44.55 14.2 40.5"/><path fill="none" stroke="#000000" stroke-width="0.5" stroke-opacity="0.301960784314" d="M14.2 40.5 L1.35 11.8 Q-0.5 7.75 3.8 6.35 L22.3 0.4 Q26.55 -1.0 28.45 3.1 L41.35 31.7 Q43.25 35.85 38.9 37.25 L20.4 43.2 Q16.1 44.55 14.2 40.5"/><path fill="#fcf2cf" stroke="none" d="M9.15 13.6 Q9.8 12.8 9.55 11.6 L9.1 10.55 22.05 6.35 Q24.9 5.45 26.25 7.85 L26.5 8.3 35.8 29.0 35.95 29.35 Q34.75 29.3 34.1 30.1 33.45 30.9 33.7 32.1 L34.0 32.9 20.65 37.2 Q18.8 37.8 17.65 37.0 16.8 36.4 16.3 35.2 L6.95 14.6 6.8 14.4 7.1 14.4 Q8.4 14.45 9.15 13.6"/><path fill="#c47fad" stroke="none" d="M8.25 23.65 L3.35 12.8 Q1.65 9.1 5.5 7.85 L22.25 2.5 Q26.05 1.25 27.75 4.95 L28.25 6.1 35.55 22.3 39.35 30.75 Q41.1 34.5 37.2 35.7 L20.45 41.1 Q16.8 42.25 15.2 39.0 L15.0 38.6 8.25 23.65 M9.15 13.6 Q8.4 14.45 7.1 14.4 L6.8 14.4 6.95 14.6 16.3 35.2 Q16.8 36.4 17.65 37.0 18.8 37.8 20.65 37.2 L34.0 32.9 33.7 32.1 Q33.45 30.9 34.1 30.1 34.75 29.3 35.95 29.35 L35.8 29.0 26.5 8.3 26.25 7.85 Q24.9 5.45 22.05 6.35 L9.1 10.55 9.55 11.6 Q9.8 12.8 9.15 13.6"/><path fill="none" stroke="#ffcc00" stroke-width="1.0" stroke-opacity="0.749019607843" d="M8.25 23.65 L3.35 12.8 Q1.65 9.1 5.5 7.85 L22.25 2.5 Q26.05 1.25 27.75 4.95 L28.25 6.1 M35.55 22.3 L39.35 30.75 Q41.1 34.5 37.2 35.7 L20.45 41.1 Q16.8 42.25 15.2 39.0 L15.0 38.6"/><path fill="none" stroke="#bf9900" stroke-width="1.0" stroke-opacity="0.749019607843" d="M28.25 6.1 L35.55 22.3 M15.0 38.6 L8.25 23.65"/><path fill="none" stroke="#f0b92b" stroke-width="0.5" d="M9.15 13.6 Q9.8 12.8 9.55 11.6 L9.1 10.55 22.05 6.35 Q24.9 5.45 26.25 7.85 L26.5 8.3 35.8 29.0 35.95 29.35 Q34.75 29.3 34.1 30.1 33.45 30.9 33.7 32.1 L34.0 32.9 20.65 37.2 Q18.8 37.8 17.65 37.0 16.8 36.4 16.3 35.2 L6.95 14.6 6.8 14.4 7.1 14.4 Q8.4 14.45 9.15 13.6"/></g><g id="c49"><path fill="#7fdbfe" stroke="none" d="M10.75 4.9 Q10.75 4.6 10.9 4.35 11.25 3.45 11.95 2.75 13.3 1.5 14.35 2.1 15.4 2.7 14.95 4.45 14.7 5.4 14.1 6.15 L13.75 6.5 Q13.1 7.15 12.35 7.35 L11.4 7.2 Q10.95 6.9 10.75 6.4 10.5 5.75 10.75 4.9 M7.5 5.9 Q7.0 5.85 6.6 5.5 6.05 5.0 5.8 4.15 L5.7 3.6 Q5.55 2.65 5.8 1.7 6.25 0.0 7.5 0.0 L7.6 0.0 Q8.85 0.0 9.3 1.7 9.55 2.65 9.4 3.6 L9.3 4.15 8.5 5.5 7.6 5.9 7.5 5.9 M4.35 4.9 Q4.6 5.75 4.35 6.4 L3.7 7.2 2.75 7.35 Q2.0 7.15 1.35 6.5 L1.0 6.15 Q0.4 5.4 0.15 4.45 -0.3 2.7 0.75 2.1 1.8 1.5 3.15 2.75 3.85 3.45 4.2 4.35 L4.35 4.9 M5.5 13.7 Q4.45 13.9 3.65 12.95 2.75 12.0 3.2 10.25 3.7 8.5 5.25 7.6 6.4 6.9 7.55 7.0 8.75 6.9 9.9 7.6 11.45 8.5 11.95 10.25 12.35 12.0 11.5 12.95 10.7 13.9 9.65 13.7 8.55 13.5 7.55 12.6 6.55 13.5 5.5 13.7"/></g><g id="c50"><g><use transform="matrix(1.0,0.0,0.0,1.0,0.0,0.0)" xlink:href="#c49"/></g></g><radialGradient gradientUnits="userSpaceOnUse" r="819.2" cx="0" cy="0" spreadMethod="pad" gradientTransform="matrix(0.0914459228516,0.0,0.0,0.0914459228516,0.6,3.4)" id="gradient7"><stop offset="0.0" stop-color="#ffffff"/><stop offset="1.0" stop-color="#ffffff" stop-opacity="0.0"/></radialGradient><g id="c51"><path stroke="none" fill="url(#gradient7)" d="M36.65 -54.65 Q60.05 -42.0 69.75 -17.95 80.55 8.9 68.0 34.1 55.45 59.35 26.8 68.2 -1.8 77.05 -29.7 64.3 -57.6 51.6 -68.45 24.75 -79.3 -2.05 -66.75 -27.25 L-66.7 -27.3 Q-54.1 -52.5 -25.5 -61.4 3.1 -70.2 31.0 -57.5 L36.65 -54.65"/></g><g id="c52"><g><use transform="matrix(1.0,0.0,0.0,1.0,0.0,0.0)" xlink:href="#c51"/></g></g><radialGradient gradientUnits="userSpaceOnUse" r="819.2" cx="0" cy="0" spreadMethod="pad" gradientTransform="matrix(0.209197998047,0.0,0.0,0.177108764648,67.15,107.2)" id="gradient8"><stop offset="0.356862745098" stop-color="#ffffff"/><stop offset="0.670588235294" stop-opacity="0.0"/></radialGradient><g id="c53"><path fill="none" stroke-linejoin="round" stroke-linecap="round" stroke="url(#gradient8)" stroke-width="0.5" d="M136.55 165.8 L68.6 106.0 68.4 106.0 118.25 201.5 M68.2 105.7 L68.25 105.8 68.25 105.75 68.2 105.7 0.0 45.7 M68.25 105.8 L68.3 105.85 68.3 105.8 68.25 105.75 49.95 0.05 M0.05 97.7 L68.15 105.95 68.25 105.85 68.25 105.8 M68.3 105.85 L68.25 105.85 68.3 106.0 68.3 105.85 68.3 105.8 68.35 105.8 68.3 105.8 86.6 18.35 M50.0 193.2 L68.3 106.0 68.15 105.95 18.25 151.55 M68.4 106.0 L68.3 106.0 86.55 211.5 M68.4 106.0 L68.3 105.85 M68.6 106.0 L68.35 105.8 118.25 60.15 M136.6 114.25 L68.6 106.0 M68.2 105.7 L18.25 10.05"/></g><g id="c54"><g><use transform="matrix(1.0,0.0,0.0,1.0,0.0,0.0)" xlink:href="#c53"/></g></g><g id="c55"><g><use transform="matrix(1.0,0.0,0.0,1.0,0.0,0.0)" xlink:href="#c48"/></g><g><use transform="matrix(0.238861083984,-0.0867004394531,0.10026550293,0.233917236328,34.25,31.15)" xlink:href="#c50"/></g><g><use transform="matrix(0.238861083984,-0.0867004394531,0.10026550293,0.233917236328,4.25,10.3)" xlink:href="#c50"/></g><g><use transform="matrix(0.141098022461,-0.0378112792969,0.111373901367,0.225646972656,20.25,20.65)" filter="url(#filter53)" xlink:href="#c52"/></g><g><use transform="matrix(-0.155029296875,0.0513153076172,0.0841827392578,0.147033691406,22.6,2.3)" filter="url(#filter54)" xlink:href="#c54"/></g><g><use transform="matrix(0.387344360352,-0.158569335938,0.158569335938,0.387344360352,25.5,29.25)" xlink:href="#c46"/></g><g><use transform="matrix(0.162948608398,-0.0436706542969,0.128631591797,0.260604858398,20.35,20.95)" filter="url(#filter56)" xlink:href="#c52"/></g></g><filter id="filter53"><feColorMatrix in="SourceGraphic" type="matrix" values="0.0 0.0 0.0 0.0 0.796875 0.0 0.0 0.0 0.0 0.59765625 0.0 0.0 0.0 0.0 0.19921875 0.0 0.0 0.0 1.0 0.0" result="cxform"/><feComposite operator="in" in2="SourceGraphic" result="color-xform"/></filter><filter id="filter54"><feColorMatrix in="SourceGraphic" type="matrix" values="0.0 0.0 0.0 0.0 0.99609375 0.0 0.0 0.0 0.0 0.99609375 0.0 0.0 0.0 0.0 0.99609375 0.0 0.0 0.0 1.0 0.0" result="cxform"/><feComposite operator="in" in2="SourceGraphic" result="color-xform"/></filter><filter id="filter56"><feColorMatrix in="SourceGraphic" type="matrix" values="1.0 0.0 0.0 0.0 0.0 0.0 1.0 0.0 0.0 0.0 0.0 0.0 1.0 0.0 0.0 0.0 0.0 0.0 0.23046875 0.0" result="cxform"/><feComposite operator="in" in2="SourceGraphic" result="color-xform"/></filter></defs><g><g><use transform="matrix(1.0,0.0,0.0,1.0,0.0,0.0)" xlink:href="#c47"/></g><g><use transform="matrix(1.15496826172,0.0,0.0,1.15496826172,5.85,3.95)" xlink:href="#c55"/></g></g></svg>