<?xml version="1.0" encoding="UTF-8" standalone="no"?>
<svg xmlns:xlink="http://www.w3.org/1999/xlink" height="60.0px" width="60.0px" xmlns="http://www.w3.org/2000/svg">
  <g transform="matrix(1.0, 0.0, 0.0, 1.0, 0.0, 0.0)">
    <use height="60.0" transform="matrix(1.0, 0.0, 0.0, 1.0, 0.0, 0.0)" width="60.0" xlink:href="#shape0"/>
    <use height="46.85" transform="matrix(1.1549, 0.0, 0.0, 1.1549, 4.7486, 1.851)" width="43.0" xlink:href="#sprite0"/>
  </g>
  <defs>
    <g id="shape0" transform="matrix(1.0, 0.0, 0.0, 1.0, 0.0, 0.0)">
      <path d="M0.0 0.0 L60.0 0.0 60.0 60.0 0.0 60.0 0.0 0.0" fill="#000000" fill-opacity="0.003921569" fill-rule="evenodd" stroke="none"/>
    </g>
    <g id="sprite0" transform="matrix(1.0, 0.0, 0.0, 1.0, -5.8, -51.0)">
      <use height="45.0" transform="matrix(1.0, 0.0, 0.0, 1.0, 5.8, 52.85)" width="43.0" xlink:href="#sprite1"/>
      <clipPath id="clipPath0" transform="matrix(1.0, 0.0, 0.0, 1.0, 0.0, 0.0)">
        <path d="M25.6 54.7 L28.6 53.75 Q32.85 52.35 34.75 56.45 L47.65 85.05 Q49.25 88.5 46.5 90.05 45.8 90.65 44.6 91.0 L42.65 91.65 42.45 91.5 Q41.45 90.75 40.3 90.25 L40.1 90.15 Q36.95 88.8 34.0 89.7 31.05 90.65 30.0 93.4 L29.9 93.6 Q29.55 94.6 29.55 95.65 L29.55 95.7 29.55 95.9 26.1 97.0 Q23.45 97.8 21.8 96.65 20.65 95.9 19.95 94.25 L7.0 65.6 Q5.85 63.1 7.05 61.6 7.5 60.95 8.45 60.5 9.1 60.05 10.1 59.7 L12.75 58.85 14.8 60.1 15.0 60.2 Q18.2 61.55 21.15 60.6 24.1 59.7 25.15 56.95 L25.2 56.75 25.6 54.7" fill="#00cc99" fill-opacity="0.003921569" fill-rule="evenodd" stroke="none"/>
      </clipPath>
      <g clip-path="url(#clipPath0)">
        <use height="0.0" transform="matrix(1.0, 0.0, 0.0, 1.0, 6.45, 53.4)" width="0.0" xlink:href="#sprite5"/>
      </g>
      <use height="21.2" transform="matrix(1.0, 0.0, 0.0, 1.0, 17.65, 64.4)" width="21.4" xlink:href="#sprite6"/>
      <clipPath id="clipPath1" transform="matrix(1.0, 0.0, 0.0, 1.0, 0.0, 0.0)">
        <path d="M25.6 54.7 L28.6 53.75 Q32.85 52.35 34.75 56.45 L47.65 85.05 Q49.25 88.5 46.5 90.05 45.8 90.65 44.6 91.0 L42.65 91.65 42.45 91.5 Q41.45 90.75 40.3 90.25 L40.1 90.15 Q36.95 88.8 34.0 89.7 31.05 90.65 30.0 93.4 L29.9 93.6 Q29.55 94.6 29.55 95.65 L29.55 95.7 29.55 95.9 26.1 97.0 Q23.45 97.8 21.8 96.65 20.65 95.9 19.95 94.25 L7.0 65.6 Q5.85 63.1 7.05 61.6 7.5 60.95 8.45 60.5 9.1 60.05 10.1 59.7 L12.75 58.85 14.8 60.1 15.0 60.2 Q18.2 61.55 21.15 60.6 24.1 59.7 25.15 56.95 L25.2 56.75 25.6 54.7" fill="#00cc99" fill-opacity="0.003921569" fill-rule="evenodd" stroke="none"/>
      </clipPath>
      <g clip-path="url(#clipPath1)">
        <use height="0.0" transform="matrix(1.0, 0.0, 0.0, 1.0, 9.65, 51.0)" width="0.0" xlink:href="#sprite13"/>
        <use height="0.0" transform="matrix(1.0, 0.0, 0.0, 1.0, 9.65, 51.0)" width="0.0" xlink:href="#sprite13"/>
        <use height="30.6" transform="matrix(1.0, 0.0, 0.0, 1.0, 14.7, 59.4)" width="27.15" xlink:href="#shape13"/>
      </g>
      <use height="0.0" transform="matrix(0.1411, -0.0378, 0.1114, 0.2256, 27.2, 74.05)" width="0.0" xlink:href="#sprite3"/>
    </g>
    <g id="sprite1" transform="matrix(1.0, 0.0, 0.0, 1.0, 0.5, 0.5)">
      <use height="47.0" transform="matrix(1.0, 0.0, 0.0, 1.0, -1.5, -1.5)" width="45.0" xlink:href="#shape1"/>
      <use height="13.75" transform="matrix(0.2389, -0.0867, 0.1003, 0.2339, 34.25, 31.15)" width="15.1" xlink:href="#sprite2"/>
      <use height="13.75" transform="matrix(0.2389, -0.0867, 0.1003, 0.2339, 4.25, 10.3)" width="15.1" xlink:href="#sprite2"/>
      <use height="0.0" transform="matrix(0.1209, -0.0324, 0.0955, 0.1934, 20.25, 20.65)" width="0.0" xlink:href="#sprite3"/>
      <use height="211.45" transform="matrix(-0.155, 0.0513, 0.0842, 0.147, 22.6042, 3.1574)" width="136.6" xlink:href="#sprite4"/>
    </g>
    <g id="shape1" transform="matrix(1.0, 0.0, 0.0, 1.0, 1.5, 1.5)">
      <path d="M28.5 3.05 L41.4 31.7 Q43.1 35.4 39.9 36.85 L38.15 37.65 36.3 38.25 36.15 38.15 34.0 36.9 33.8 36.8 Q30.65 35.45 27.7 36.35 24.75 37.3 23.7 40.05 L23.6 40.25 Q23.25 41.25 23.3 42.5 L19.65 43.65 Q17.05 44.5 15.35 43.3 14.2 42.55 13.5 40.9 L0.55 12.25 Q-0.6 9.75 0.6 8.25 1.15 7.55 2.2 7.05 2.85 6.6 3.8 6.3 L6.45 5.5 8.5 6.75 8.7 6.85 Q11.9 8.2 14.85 7.25 17.8 6.35 18.85 3.6 L18.9 3.4 19.3 1.35 22.3 0.35 Q26.6 -1.0 28.5 3.05 Z" fill="none" stroke="#000000" stroke-linecap="round" stroke-linejoin="round" stroke-opacity="0.24705882" stroke-width="1.0"/>
      <path d="M28.5 3.05 L41.4 31.7 Q43.1 35.4 39.9 36.85 L38.15 37.65 36.3 38.25 36.15 38.15 34.0 36.9 33.8 36.8 Q30.65 35.45 27.7 36.35 24.75 37.3 23.7 40.05 L23.6 40.25 Q23.25 41.25 23.3 42.5 L19.65 43.65 Q17.05 44.5 15.35 43.3 14.2 42.55 13.5 40.9 L0.55 12.25 Q-0.6 9.75 0.6 8.25 1.15 7.55 2.2 7.05 2.85 6.6 3.8 6.3 L6.45 5.5 8.5 6.75 8.7 6.85 Q11.9 8.2 14.85 7.25 17.8 6.35 18.85 3.6 L18.9 3.4 19.3 1.35 22.3 0.35 Q26.6 -1.0 28.5 3.05" fill="#986600" fill-rule="evenodd" stroke="none"/>
      <path d="M28.5 3.05 L41.4 31.7 Q43.1 35.4 39.9 36.85 L38.15 37.65 36.3 38.25 36.15 38.15 34.0 36.9 33.8 36.8 Q30.65 35.45 27.7 36.35 24.75 37.3 23.7 40.05 L23.6 40.25 Q23.25 41.25 23.3 42.5 L19.65 43.65 Q17.05 44.5 15.35 43.3 14.2 42.55 13.5 40.9 L0.55 12.25 Q-0.6 9.75 0.6 8.25 1.15 7.55 2.2 7.05 2.85 6.6 3.8 6.3 L6.45 5.5 8.5 6.75 8.7 6.85 Q11.9 8.2 14.85 7.25 17.8 6.35 18.85 3.6 L18.9 3.4 19.3 1.35 22.3 0.35 Q26.6 -1.0 28.5 3.05 Z" fill="none" stroke="#ffcc00" stroke-linecap="round" stroke-linejoin="round" stroke-width="0.1"/>
      <path d="M19.3 1.35 L22.3 0.4 Q26.55 -1.0 28.45 3.1 L41.35 31.7 Q42.95 35.15 40.2 36.7 L38.9 37.25 36.15 38.15 34.0 36.9 33.8 36.8 Q30.65 35.45 27.7 36.35 24.75 37.3 23.7 40.05 L23.6 40.25 Q23.25 41.25 23.25 42.3 L23.2 42.3 20.4 43.2 19.1 43.5 17.3 43.4 Q15.3 42.9 14.2 40.5 L5.45 20.95 1.35 11.8 Q0.4 9.65 1.1 8.3 1.45 7.65 2.15 7.15 2.8 6.7 3.8 6.35 L6.45 5.5 8.5 6.75 8.7 6.85 Q11.9 8.2 14.85 7.25 17.8 6.35 18.85 3.6 L18.9 3.4 19.3 1.35 M35.55 22.3 L28.25 6.1 27.75 4.95 Q26.05 1.25 21.6 2.85 20.8 5.65 18.85 7.6 17.0 9.45 14.2 9.8 11.45 9.95 9.0 8.8 L6.4 7.45 Q1.65 9.1 3.35 12.8 L8.25 23.65 15.0 38.6 15.2 39.0 Q16.8 42.25 20.45 41.1 L21.65 40.55 Q22.7 36.9 25.05 35.5 27.4 34.15 30.2 34.2 33.05 34.2 36.25 36.1 L37.2 35.7 Q41.1 34.5 39.35 30.75 L35.55 22.3" fill="#ffcc00" fill-rule="evenodd" stroke="none"/>
      <path d="M28.25 6.1 L35.55 22.3 39.35 30.75 Q41.1 34.5 37.2 35.7 L36.25 36.1 Q33.05 34.2 30.2 34.2 27.4 34.15 25.05 35.5 22.7 36.9 21.65 40.55 L20.45 41.1 Q16.8 42.25 15.2 39.0 L15.0 38.6 8.25 23.65 3.35 12.8 Q1.65 9.1 6.4 7.45 L9.0 8.8 Q11.45 9.95 14.2 9.8 17.0 9.45 18.85 7.6 20.8 5.65 21.6 2.85 26.05 1.25 27.75 4.95 L28.25 6.1 M34.0 32.9 L33.7 32.1 Q33.45 30.9 34.1 30.1 34.75 29.3 35.95 29.35 L35.8 29.0 26.5 8.3 26.25 7.85 Q24.9 5.45 22.05 6.35 19.75 11.1 14.85 11.65 11.45 11.85 9.1 10.55 L9.55 11.6 Q9.8 12.8 9.15 13.6 8.4 14.45 7.1 14.4 L6.8 14.4 6.95 14.6 16.3 35.2 Q16.8 36.4 17.65 37.0 18.8 37.8 19.8 37.35 21.8 33.7 25.95 32.3 30.35 30.8 34.0 32.9" fill="#996600" fill-rule="evenodd" stroke="none"/>
      <path d="M22.05 6.35 Q24.9 5.45 26.25 7.85 L26.5 8.3 35.8 29.0 35.95 29.35 Q34.75 29.3 34.1 30.1 33.45 30.9 33.7 32.1 L34.0 32.9 Q30.35 30.8 25.95 32.3 21.8 33.7 19.8 37.35 18.8 37.8 17.65 37.0 16.8 36.4 16.3 35.2 L6.95 14.6 6.8 14.4 7.1 14.4 Q8.4 14.45 9.15 13.6 9.8 12.8 9.55 11.6 L9.1 10.55 Q11.45 11.85 14.85 11.65 19.75 11.1 22.05 6.35" fill="#fcf2cf" fill-rule="evenodd" stroke="none"/>
      <path d="M23.25 42.35 L23.25 42.55 19.8 43.65 Q17.15 44.45 15.5 43.3 L17.3 43.4 19.1 43.5 20.4 43.2 23.2 42.3 23.25 42.35 M4.6 20.9 L0.7 12.25 Q-0.45 9.75 0.75 8.25 L1.1 8.3 Q0.4 9.65 1.35 11.8 L5.45 20.95 4.6 20.9" fill="#5b3c00" fill-rule="evenodd" stroke="none"/>
      <path d="M0.75 8.25 Q1.2 7.6 2.15 7.15 1.45 7.65 1.1 8.3 L0.75 8.25" fill="#630a4c" fill-rule="evenodd" stroke="none"/>
      <path d="M15.5 43.3 Q14.35 42.55 13.65 40.9 L4.6 20.9 5.45 20.95 14.2 40.5 Q15.3 42.9 17.3 43.4 L15.5 43.3" fill="#724b00" fill-rule="evenodd" stroke="none"/>
      <path d="M40.2 36.7 Q39.5 37.3 38.3 37.65 L36.35 38.3 36.15 38.15 38.9 37.25 40.2 36.7 M23.25 42.3 L23.25 42.35 23.2 42.3 23.25 42.3" fill="#300525" fill-rule="evenodd" stroke="none"/>
      <path d="M19.3 1.35 L22.3 0.4 Q26.55 -1.0 28.45 3.1 L41.35 31.7 Q42.95 35.15 40.2 36.7 39.5 37.3 38.3 37.65 L36.35 38.3 M23.25 42.55 L19.8 43.65 Q17.15 44.45 15.5 43.3 14.35 42.55 13.65 40.9 L4.6 20.9 0.7 12.25 Q-0.45 9.75 0.75 8.25 1.2 7.6 2.15 7.15 2.8 6.7 3.8 6.35 L6.45 5.5 M1.1 8.3 Q1.45 7.65 2.15 7.15 M5.45 20.95 L1.35 11.8 Q0.4 9.65 1.1 8.3 M23.2 42.3 L20.4 43.2 19.1 43.5 17.3 43.4 Q15.3 42.9 14.2 40.5 L5.45 20.95 M23.25 42.3 L23.2 42.3 M40.2 36.7 L38.9 37.25 36.15 38.15" fill="none" stroke="#000000" stroke-linecap="round" stroke-linejoin="round" stroke-opacity="0.3019608" stroke-width="0.05"/>
      <path d="M28.25 6.1 L35.55 22.3 M15.0 38.6 L8.25 23.65" fill="none" stroke="#ffaa00" stroke-linecap="round" stroke-linejoin="round" stroke-width="1.0"/>
      <path d="M35.55 22.3 L39.35 30.75 Q41.1 34.5 37.2 35.7 L36.25 36.1 Q33.05 34.2 30.2 34.2 27.4 34.15 25.05 35.5 22.7 36.9 21.65 40.55 L20.45 41.1 Q16.8 42.25 15.2 39.0 L15.0 38.6 M8.25 23.65 L3.35 12.8 Q1.65 9.1 6.4 7.45 L9.0 8.8 Q11.45 9.95 14.2 9.8 17.0 9.45 18.85 7.6 20.8 5.65 21.6 2.85 26.05 1.25 27.75 4.95 L28.25 6.1" fill="none" stroke="#fcf2cf" stroke-linecap="round" stroke-linejoin="round" stroke-width="1.0"/>
      <path d="M22.05 6.35 Q24.9 5.45 26.25 7.85 L26.5 8.3 35.8 29.0 35.95 29.35 Q34.75 29.3 34.1 30.1 33.45 30.9 33.7 32.1 L34.0 32.9 M19.8 37.35 Q18.8 37.8 17.65 37.0 16.8 36.4 16.3 35.2 L6.95 14.6 6.8 14.4 7.1 14.4 Q8.4 14.45 9.15 13.6 9.8 12.8 9.55 11.6 L9.1 10.55" fill="none" stroke="#f0b92b" stroke-linecap="round" stroke-linejoin="round" stroke-width="0.05"/>
      <path d="M34.0 32.9 Q30.35 30.8 25.95 32.3 21.8 33.7 19.8 37.35 M9.1 10.55 Q11.45 11.85 14.85 11.65 19.75 11.1 22.05 6.35" fill="none" stroke="#ffaa00" stroke-linecap="round" stroke-linejoin="round" stroke-opacity="0.7490196" stroke-width="0.05"/>
    </g>
    <g id="sprite2" transform="matrix(1.0, 0.0, 0.0, 1.0, 0.0, 0.0)">
      <use height="13.75" transform="matrix(1.0, 0.0, 0.0, 1.0, 0.0, 0.0)" width="15.1" xlink:href="#shape2"/>
    </g>
    <g id="shape2" transform="matrix(1.0, 0.0, 0.0, 1.0, 0.0, 0.0)">
      <path d="M10.75 4.9 Q10.75 4.6 10.9 4.35 11.25 3.45 11.95 2.75 13.3 1.5 14.35 2.1 15.4 2.7 14.95 4.45 14.7 5.4 14.1 6.15 L13.75 6.5 Q13.1 7.15 12.35 7.35 L11.4 7.2 Q10.95 6.9 10.75 6.4 10.5 5.75 10.75 4.9 M9.3 1.7 Q9.55 2.65 9.4 3.6 L9.3 4.15 8.5 5.5 7.6 5.9 7.5 5.9 Q7.0 5.85 6.6 5.5 6.05 5.0 5.8 4.15 L5.7 3.6 Q5.55 2.65 5.8 1.7 6.25 0.0 7.5 0.0 L7.6 0.0 Q8.85 0.0 9.3 1.7 M0.15 4.45 Q-0.3 2.7 0.75 2.1 1.8 1.5 3.15 2.75 3.85 3.45 4.2 4.35 L4.35 4.9 Q4.6 5.75 4.35 6.4 L3.7 7.2 2.75 7.35 Q2.0 7.15 1.35 6.5 L1.0 6.15 Q0.4 5.4 0.15 4.45 M7.55 7.0 Q8.75 6.9 9.9 7.6 11.45 8.5 11.95 10.25 12.35 12.0 11.5 12.95 10.7 13.9 9.65 13.7 8.55 13.5 7.55 12.6 6.55 13.5 5.5 13.7 4.45 13.9 3.65 12.95 2.75 12.0 3.2 10.25 3.7 8.5 5.25 7.6 6.4 6.9 7.55 7.0" fill="#7fdbfe" fill-rule="evenodd" stroke="none"/>
    </g>
    <g id="sprite4" transform="matrix(1.0, 0.0, 0.0, 1.0, 0.0, -0.05)">
      <use height="211.55" transform="matrix(1.0, 0.0, 0.0, 1.0, -0.05, 0.0)" width="136.7" xlink:href="#shape3"/>
    </g>
    <g id="shape3" transform="matrix(1.0, 0.0, 0.0, 1.0, 0.05, 0.0)">
      <path d="M136.55 165.8 L68.6 106.0 68.4 106.0 118.25 201.5 M68.3 105.8 L68.35 105.8 68.3 105.8 68.3 105.85 68.4 106.0 68.3 106.0 86.55 211.5 M68.3 105.8 L68.3 105.85 68.3 106.0 68.15 105.95 18.25 151.55 M68.3 105.85 L68.25 105.85 68.3 106.0 50.0 193.2 M68.25 105.85 L68.15 105.95 0.05 97.7 M68.3 105.85 L68.25 105.8 68.25 105.85 M68.25 105.8 L68.2 105.7 0.0 45.7 M68.3 105.8 L68.25 105.75 68.25 105.8 M68.25 105.75 L68.2 105.7 18.25 10.05 M68.6 106.0 L68.35 105.8 118.25 60.15 M86.6 18.35 L68.3 105.8 M136.6 114.25 L68.6 106.0 M68.25 105.75 L49.95 0.05" fill="none" stroke="url(#gradient0)" stroke-linecap="round" stroke-linejoin="round" stroke-width="0.05"/>
    </g>
    <radialGradient cx="0" cy="0" gradientTransform="matrix(0.2092, 0.0, 0.0, 0.1771, 67.15, 107.2)" gradientUnits="userSpaceOnUse" id="gradient0" r="819.2" spreadMethod="pad">
      <stop offset="0.3568627450980392" stop-color="#ffffff"/>
      <stop offset="0.6705882352941176" stop-color="#000000" stop-opacity="0.0"/>
    </radialGradient>
    <g id="sprite6" transform="matrix(1.0, 0.0, 0.0, 1.0, 2.2, 3.8)">
      <use height="32.95" transform="matrix(0.4237, -0.2131, 0.2131, 0.4237, -2.2158, 3.4409)" width="34.0" xlink:href="#sprite7"/>
    </g>
    <g id="sprite7" transform="matrix(1.0, 0.0, 0.0, 1.0, -0.9, -9.4)">
      <use height="20.95" transform="matrix(1.0, 0.0, 0.0, 1.0, 10.4, 9.4)" width="24.55" xlink:href="#shape5"/>
      <use height="18.0" transform="matrix(0.1556, 0.1556, 0.1472, -0.1472, 15.2321, 26.0557)" width="13.4" xlink:href="#sprite8"/>
      <use height="16.2" transform="matrix(1.0, 0.0, 0.0, 1.0, 1.9, 25.1)" width="15.95" xlink:href="#shape10"/>
      <use height="18.0" transform="matrix(0.2022, 0.2022, 0.2173, -0.2173, 0.9052, 39.6639)" width="13.4" xlink:href="#sprite8"/>
      <use height="8.35" transform="matrix(1.0, 0.0, 0.0, 1.0, 5.95, 29.2)" width="7.65" xlink:href="#sprite12"/>
      <use height="19.45" transform="matrix(1.0, 0.0, 0.0, 1.0, 11.25, 9.0)" width="22.8" xlink:href="#shape12"/>
    </g>
    <g id="shape5" transform="matrix(1.0, 0.0, 0.0, 1.0, -10.4, -9.4)">
      <path d="M30.5 10.25 L30.9 10.2 31.25 10.25 Q32.65 10.6 33.2 12.6 L34.65 17.9 Q35.2 19.9 34.55 22.3 33.95 24.8 32.5 26.3 L31.3 27.6 27.25 12.8 27.3 12.75 28.45 11.45 29.2 10.8 Q29.85 10.3 30.5 10.25 M30.75 28.2 L29.85 29.15 Q28.6 30.45 27.35 30.3 L26.95 30.25 Q25.7 29.9 25.15 27.95 L23.7 22.65 23.45 21.25 Q23.35 19.8 23.75 18.2 L23.95 17.5 24.0 17.4 24.1 17.1 Q24.75 15.4 25.8 14.3 L26.65 13.4 26.7 13.4 30.75 28.2" fill="#c2c2c2" fill-rule="evenodd" stroke="none"/>
      <path d="M29.2 10.8 L28.45 11.45 27.3 12.75 27.25 12.75 14.2 12.05 15.45 10.7 16.35 9.95 29.2 10.8 M11.0 16.6 L11.15 16.25 Q11.75 14.6 12.8 13.55 L13.65 12.65 13.8 12.65 26.65 13.4 25.8 14.3 Q24.75 15.4 24.1 17.1 L24.0 17.4 23.95 17.5 Q16.7 19.85 11.0 16.6" fill="#c4c4c4" fill-rule="evenodd" stroke="none"/>
      <path d="M27.3 12.75 L27.25 12.8 26.7 13.4 26.65 13.4 13.8 12.65 Q15.5 12.7 14.2 12.05 L27.25 12.75 27.3 12.75" fill="#666666" fill-rule="evenodd" stroke="none"/>
      <path d="M27.25 12.8 L31.3 27.6 30.75 28.2 26.7 13.4 27.25 12.8" fill="#424242" fill-rule="evenodd" stroke="none"/>
      <path d="M10.45 20.4 Q10.35 19.0 10.75 17.45 L11.0 16.6 Q16.7 19.85 23.95 17.5 L23.75 18.2 Q23.35 19.8 23.45 21.25 16.65 19.3 10.45 20.4" fill="#8c8c8c" fill-rule="evenodd" stroke="none"/>
      <path d="M26.95 30.25 L14.95 29.55 14.25 29.55 14.05 29.5 Q12.7 29.2 12.15 27.2 L10.7 21.9 10.45 20.4 Q16.65 19.3 23.45 21.25 L23.7 22.65 25.15 27.95 Q25.7 29.9 26.95 30.25" fill="#525252" fill-rule="evenodd" stroke="none"/>
      <path d="M30.5 10.25 Q29.85 10.3 29.2 10.8 L16.35 9.95 Q16.95 9.5 17.6 9.45 L18.2 9.5 18.25 9.5 30.5 10.25" fill="#b8b8b8" fill-rule="evenodd" stroke="none"/>
      <path d="M27.35 30.3 L27.05 30.25 26.95 30.25 27.35 30.3" fill="#000000" fill-rule="evenodd" stroke="none"/>
      <path d="M31.3 27.6 L32.5 26.3 Q33.95 24.8 34.55 22.3 35.2 19.9 34.65 17.9 L33.2 12.6 Q32.65 10.6 31.25 10.25 L30.9 10.2 30.5 10.25 18.25 9.5 18.2 9.5 17.6 9.45 Q16.95 9.5 16.35 9.95 L15.45 10.7 14.2 12.05 Q15.5 12.7 13.8 12.65 M31.3 27.6 L30.75 28.2 29.85 29.15 Q28.6 30.45 27.35 30.3 L26.95 30.25 14.95 29.55 14.25 29.55 14.05 29.5 Q12.7 29.2 12.15 27.2 L10.7 21.9 10.45 20.4 Q10.35 19.0 10.75 17.45 L11.0 16.6 11.15 16.25 Q11.75 14.6 12.8 13.55 L13.65 12.65" fill="none" stroke="#000000" stroke-linecap="round" stroke-linejoin="round" stroke-opacity="0.3019608" stroke-width="0.05"/>
      <path d="M30.5 10.25 Q29.85 10.3 29.2 10.8 L28.45 11.45 27.3 12.75 27.25 12.8 26.7 13.4 30.75 28.2 M13.65 12.65 L13.8 12.65 26.65 13.4 26.7 13.4 M26.65 13.4 L25.8 14.3 Q24.75 15.4 24.1 17.1 L24.0 17.4 23.95 17.5 23.75 18.2 Q23.35 19.8 23.45 21.25 L23.7 22.65 25.15 27.95 Q25.7 29.9 26.95 30.25" fill="none" stroke="#000000" stroke-linecap="round" stroke-linejoin="round" stroke-opacity="0.14901961" stroke-width="0.05"/>
      <path d="M23.7 22.65 L25.15 27.95 Q25.7 29.9 26.95 30.25 L14.95 29.55 14.25 29.55 14.05 29.5 Q12.7 29.2 12.15 27.2 L10.7 21.9 10.45 20.4 Q16.65 19.3 23.45 21.25 L23.7 22.65" fill="url(#gradient1)" fill-rule="evenodd" stroke="none"/>
    </g>
    <linearGradient gradientTransform="matrix(8.0E-4, 0.0049, -0.0077, 0.0012, 18.4, 25.65)" gradientUnits="userSpaceOnUse" id="gradient1" spreadMethod="pad" x1="-819.2" x2="819.2">
      <stop offset="0.0" stop-color="#000000" stop-opacity="0.0"/>
      <stop offset="1.0" stop-color="#000000" stop-opacity="0.43137255"/>
    </linearGradient>
    <g id="sprite8" transform="matrix(1.0, 0.0, 0.0, 1.0, 0.2, 0.25)">
      <use height="19.6" transform="matrix(1.0, 0.0, 0.0, 1.0, -1.0, -1.05)" width="15.0" xlink:href="#shape6"/>
      <use height="16.0" transform="matrix(1.0, 0.0, 0.0, 1.0, 6.6, 1.4)" width="5.45" xlink:href="#sprite9"/>
      <use height="10.9" transform="matrix(-0.3295, 0.0, 0.0, 0.8777, 10.05, 6.4)" width="9.8" xlink:href="#sprite10"/>
      <use height="34.25" transform="matrix(0.1488, 0.0, 0.0, 0.1488, 3.9, 9.65)" width="27.35" xlink:href="#sprite11"/>
    </g>
    <g id="shape6" transform="matrix(1.0, 0.0, 0.0, 1.0, 1.0, 1.05)">
      <path d="M1.5 1.0 L1.65 0.85 Q6.45 -1.0 10.8 1.05 L11.3 1.3 11.2 1.4 Q11.85 2.1 11.05 2.8 10.25 3.5 7.95 3.6 L8.15 3.15 8.1 3.1 Q2.35 3.3 1.4 1.35 L1.5 1.0" fill="url(#gradient2)" fill-rule="evenodd" stroke="none"/>
      <path d="M1.4 1.35 Q2.35 3.3 8.1 3.1 L8.15 3.15 7.95 3.6 7.25 3.75 Q0.95 3.35 1.4 1.35 M11.2 1.4 L11.3 1.3 11.35 1.35 11.2 1.4 M0.15 4.25 L0.05 2.9 Q1.2 5.0 5.65 5.25 L5.85 5.65 5.85 6.25 Q2.55 6.2 0.15 4.25" fill="#ffeb15" fill-rule="evenodd" stroke="none"/>
      <path d="M1.5 1.0 L1.4 1.35 Q0.95 3.35 7.25 3.75 L7.95 3.75 6.45 5.25 5.8 5.25 5.75 5.25 5.65 5.25 Q1.2 5.0 0.05 2.9 L0.0 2.55 1.5 1.0" fill="#fef5b4" fill-rule="evenodd" stroke="none"/>
      <path d="M6.6 17.55 Q3.05 17.5 0.7 14.65 L0.15 4.25 Q2.55 6.2 5.85 6.25 L6.6 17.55" fill="url(#gradient3)" fill-rule="evenodd" stroke="none"/>
      <path d="M7.95 3.6 Q10.25 3.5 11.05 2.8 11.85 2.1 11.2 1.4 L11.35 1.35 12.95 2.55 12.95 2.65 10.95 4.75 9.95 4.95 Q7.95 5.8 5.85 5.45 L5.85 5.65 5.65 5.25 5.75 5.25 5.8 5.25 6.45 5.25 7.95 3.75 7.25 3.75 7.95 3.6" fill="#f3d313" fill-rule="evenodd" stroke="none"/>
      <path d="M12.95 2.65 Q13.25 9.5 11.85 16.35 8.95 17.55 6.6 17.55 L5.85 6.25 5.85 5.65 5.85 5.45 Q7.95 5.8 9.95 4.95 L10.95 4.75 12.95 2.65" fill="#bd8700" fill-rule="evenodd" stroke="none"/>
      <path d="M11.3 1.3 L10.8 1.05 Q6.45 -1.0 1.65 0.85 L1.5 1.0 0.0 2.55 0.05 2.9 0.15 4.25 0.7 14.65 Q3.05 17.5 6.6 17.55 8.95 17.55 11.85 16.35 13.25 9.5 12.95 2.65 L12.95 2.55 11.35 1.35 11.2 1.4 Q11.85 2.1 11.05 2.8 10.25 3.5 7.95 3.6 L7.25 3.75 M11.3 1.3 L11.35 1.35 M1.65 0.85 L1.35 0.3" fill="none" stroke="#000000" stroke-linecap="round" stroke-linejoin="round" stroke-opacity="0.3019608" stroke-width="0.4"/>
      <path d="M3.55 16.6 L2.0 15.6 1.55 4.8 3.35 5.25 3.55 16.6" fill="url(#gradient4)" fill-rule="evenodd" stroke="none"/>
    </g>
    <radialGradient cx="0" cy="0" gradientTransform="matrix(1.0E-4, -0.0041, 0.0105, 3.0E-4, 2.65, 0.45)" gradientUnits="userSpaceOnUse" id="gradient2" r="819.2" spreadMethod="pad">
      <stop offset="0.00392156862745098" stop-color="#ffffff"/>
      <stop offset="0.9882352941176471" stop-color="#ffeb15"/>
    </radialGradient>
    <linearGradient gradientTransform="matrix(0.0039, 0.0, 0.0, 0.0081, 3.35, 10.9)" gradientUnits="userSpaceOnUse" id="gradient3" spreadMethod="pad" x1="-819.2" x2="819.2">
      <stop offset="0.0" stop-color="#ffeb15"/>
      <stop offset="1.0" stop-color="#dfa810"/>
    </linearGradient>
    <linearGradient gradientTransform="matrix(0.0012, 0.0, 0.0, 0.0072, 2.8, 10.7)" gradientUnits="userSpaceOnUse" id="gradient4" spreadMethod="pad" x1="-819.2" x2="819.2">
      <stop offset="0.0" stop-color="#ffffff" stop-opacity="0.87058824"/>
      <stop offset="0.9882352941176471" stop-color="#ffffff" stop-opacity="0.0"/>
    </linearGradient>
    <g id="sprite9" transform="matrix(1.0, 0.0, 0.0, 1.0, 0.0, 0.0)">
      <use height="16.0" transform="matrix(1.0, 0.0, 0.0, 1.0, 0.0, 0.0)" width="5.45" xlink:href="#shape7"/>
    </g>
    <g id="shape7" transform="matrix(1.0, 0.0, 0.0, 1.0, 0.0, 0.0)">
      <path d="M5.4 1.3 L5.4 1.7 Q5.7 8.35 4.45 15.2 L4.45 15.3 0.95 16.0 0.0 4.3 0.65 2.2 Q4.55 2.25 4.05 0.0 L5.4 1.3" fill="url(#gradient5)" fill-rule="evenodd" stroke="none"/>
    </g>
    <linearGradient gradientTransform="matrix(0.0033, 0.0, 0.0, 0.0098, 2.7, 8.0)" gradientUnits="userSpaceOnUse" id="gradient5" spreadMethod="pad" x1="-819.2" x2="819.2">
      <stop offset="0.0" stop-color="#000000" stop-opacity="0.0"/>
      <stop offset="1.0" stop-color="#000000" stop-opacity="0.3372549"/>
    </linearGradient>
    <g id="sprite10" transform="matrix(1.0, 0.0, 0.0, 1.0, 0.0, 0.0)">
      <use height="10.9" transform="matrix(1.0, 0.0, 0.0, 1.0, 0.0, 0.0)" width="9.8" xlink:href="#shape8"/>
    </g>
    <g id="shape8" transform="matrix(1.0, 0.0, 0.0, 1.0, 0.0, 0.0)">
      <path d="M9.75 5.25 L9.4 7.9 9.15 8.95 Q9.6 9.2 9.6 9.85 9.6 10.9 8.85 10.9 8.15 10.9 7.8 10.15 L7.8 10.1 6.75 9.85 6.2 9.9 Q4.8 9.9 3.45 8.6 3.3 9.1 2.85 9.1 2.3 9.1 0.0 5.45 L0.4 4.5 0.75 3.4 Q0.75 2.7 2.95 0.95 5.1 -0.75 5.15 0.65 5.55 0.7 5.55 1.95 L5.4 2.6 6.25 4.25 6.95 6.15 7.0 5.85 Q7.2 4.85 7.35 4.65 8.15 3.75 8.55 4.35 8.75 4.0 9.05 4.0 10.0 4.0 9.75 5.25" fill="#b17823" fill-opacity="0.44705883" fill-rule="evenodd" stroke="none"/>
    </g>
    <g id="sprite11" transform="matrix(1.0, 0.0, 0.0, 1.0, 0.0, 0.0)">
      <use height="34.25" transform="matrix(1.0, 0.0, 0.0, 1.0, 0.0, 0.0)" width="27.35" xlink:href="#shape9"/>
    </g>
    <g id="shape9" transform="matrix(1.0, 0.0, 0.0, 1.0, 0.0, 0.0)">
      <path d="M27.35 29.25 L20.45 34.25 3.9 24.4 0.0 1.45 6.25 4.1 10.7 0.0 26.4 7.6 27.35 29.25" fill="#333300" fill-opacity="0.08627451" fill-rule="evenodd" stroke="none"/>
    </g>
    <g id="shape10" transform="matrix(1.0, 0.0, 0.0, 1.0, -1.9, -25.1)">
      <path d="M13.0 31.35 L13.05 30.95 16.6 27.05 Q16.85 27.8 16.35 28.65 L13.0 31.35 M15.95 25.8 L16.25 26.2 12.9 29.7 12.8 29.45 15.95 25.8" fill="#87693c" fill-rule="evenodd" stroke="none"/>
      <path d="M16.35 28.65 Q16.85 27.8 16.6 27.05 L13.05 30.95 13.0 31.35 12.95 31.5 12.95 31.55 6.2 37.6 5.3 38.2 13.05 30.95 13.05 30.9 7.85 35.2 12.95 30.0 12.95 29.8 12.9 29.7 16.25 26.2 15.95 25.8 16.55 25.15 Q18.4 25.15 17.55 27.75 L15.55 29.65 16.35 28.65" fill="#69502f" fill-rule="evenodd" stroke="none"/>
      <path d="M13.0 31.35 L16.35 28.65 15.55 29.65 Q13.35 31.3 12.55 32.55 L12.9 31.65 12.95 31.55 12.95 31.5 13.0 31.35 M14.2 27.45 L14.55 27.1 15.95 25.8 12.8 29.45 12.5 29.8 2.85 38.65 5.9 35.6 14.2 27.45" fill="#d1b58c" fill-rule="evenodd" stroke="none"/>
      <path d="M12.9 29.7 L12.95 29.8 3.05 39.0 2.75 38.7 2.25 38.85 5.9 35.6 2.85 38.65 12.5 29.8 12.8 29.45 12.9 29.7" fill="#e9d9c9" fill-rule="evenodd" stroke="none"/>
      <path d="M12.95 29.8 L12.95 30.0 7.85 35.2 13.05 30.9 13.05 30.95 5.3 38.2 6.2 37.6 6.9 37.2 3.75 40.4 3.05 39.0 12.95 29.8" fill="#7d6239" fill-rule="evenodd" stroke="none"/>
      <path d="M6.2 37.6 L12.95 31.55 12.9 31.65 5.1 39.8 3.95 40.9 5.1 39.8 3.95 40.95 3.95 40.9 3.9 40.8 3.75 40.4 6.9 37.2 6.2 37.6" fill="#997846" fill-rule="evenodd" stroke="none"/>
      <path d="M12.9 31.65 L12.55 32.55 5.1 39.8 12.9 31.65 M3.95 40.9 L3.75 41.1 Q2.8 41.55 2.0 40.45 L2.0 40.3 Q3.0 40.75 3.9 40.8 L3.95 40.9" fill="#dcc2ab" fill-rule="evenodd" stroke="none"/>
      <path d="M2.25 38.85 L2.75 38.7 3.05 39.0 3.75 40.4 3.9 40.8 Q3.0 40.75 2.0 40.3 1.8 39.15 2.25 38.85" fill="#715833" fill-rule="evenodd" stroke="none"/>
      <path d="M15.55 29.65 L17.55 27.75 Q18.4 25.15 16.55 25.15 L15.95 25.8 14.55 27.1 M12.55 32.55 Q13.35 31.3 15.55 29.65 M5.1 39.8 L12.55 32.55 M2.25 38.85 L2.75 38.7 3.05 39.0 3.75 40.4 3.9 40.8 3.95 40.9 5.1 39.8 M3.95 40.9 L3.75 41.1 Q2.8 41.55 2.0 40.45 L2.0 40.3 Q1.8 39.15 2.25 38.85 L5.9 35.6 14.2 27.45 M3.95 40.95 L3.95 40.9" fill="none" stroke="#000000" stroke-linecap="round" stroke-linejoin="round" stroke-opacity="0.3019608" stroke-width="0.05"/>
      <path d="M3.9 38.4 L3.45 38.55 Q2.5 37.7 3.25 36.55 7.4 34.85 10.8 30.85 11.35 30.75 10.8 32.15 8.55 36.55 3.9 38.4" fill="url(#gradient6)" fill-rule="evenodd" stroke="none"/>
    </g>
    <radialGradient cx="0" cy="0" gradientTransform="matrix(0.0, 0.0038, 0.0035, -0.0021, 7.3, 35.3)" gradientUnits="userSpaceOnUse" id="gradient6" r="819.2" spreadMethod="pad">
      <stop offset="0.0" stop-color="#ffffff" stop-opacity="0.15294118"/>
      <stop offset="1.0" stop-color="#ffffff" stop-opacity="0.0"/>
    </radialGradient>
    <g id="sprite12" transform="matrix(1.0, 0.0, 0.0, 1.0, 0.0, 0.0)">
      <use height="8.45" transform="matrix(1.0, 0.0, 0.0, 1.0, -0.05, -0.05)" width="7.75" xlink:href="#shape11"/>
    </g>
    <g id="shape11" transform="matrix(1.0, 0.0, 0.0, 1.0, 0.05, 0.05)">
      <path d="M5.8 1.25 L6.85 1.75 6.65 1.15 7.2 1.2 Q7.65 1.95 7.45 2.7 L6.85 3.15 6.4 3.95 6.4 2.0 6.25 1.85 5.5 1.15 5.8 1.25 M3.75 1.8 L3.95 1.8 5.4 1.85 Q6.15 2.25 6.25 3.15 6.4 3.95 5.9 4.55 L5.4 4.6 5.8 4.05 Q5.8 1.9 3.95 2.25 L3.85 2.25 3.75 1.8" fill="#a10000" fill-rule="evenodd" stroke="none"/>
      <path d="M7.45 2.7 Q7.65 1.95 7.2 1.2 L6.65 1.15 6.85 1.75 5.8 1.25 5.35 0.8 7.05 0.85 7.65 1.45 7.5 2.65 7.45 2.7 M6.25 1.85 L6.4 2.0 6.4 3.95 6.05 4.55 5.9 4.55 Q6.4 3.95 6.25 3.15 6.15 2.25 5.4 1.85 L3.95 1.8 3.75 1.8 3.75 1.75 4.15 1.55 6.05 1.85 6.25 1.85" fill="#f92900" fill-rule="evenodd" stroke="none"/>
      <path d="M5.8 1.25 L5.5 1.15 6.25 1.85 6.05 1.85 4.15 1.55 4.65 1.2 5.65 0.1 6.55 0.0 Q7.6 0.35 7.65 1.45 L7.05 0.85 5.35 0.8 5.8 1.25" fill="#ff4400" fill-rule="evenodd" stroke="none"/>
      <path d="M6.4 3.95 L6.85 3.15 7.45 2.7 7.5 2.65 7.65 1.45 Q7.6 0.35 6.55 0.0 L5.65 0.1 4.65 1.2 4.15 1.55 3.75 1.75 3.75 1.8 3.85 2.25 3.95 2.25 Q5.8 1.9 5.8 4.05 L5.4 4.6 5.9 4.55 6.05 4.55 6.4 3.95 Z" fill="none" stroke="#660000" stroke-linecap="round" stroke-linejoin="round" stroke-opacity="0.3019608" stroke-width="0.05"/>
      <path d="M3.85 3.2 L4.9 3.7 4.7 3.1 5.25 3.15 Q5.7 3.9 5.5 4.65 L4.9 5.1 4.45 5.9 4.45 3.95 4.3 3.8 3.55 3.1 3.85 3.2 M1.8 3.75 L2.0 3.75 3.45 3.8 Q4.2 4.2 4.3 5.1 4.45 5.9 3.95 6.5 L3.45 6.55 3.85 6.0 Q3.85 3.85 2.0 4.2 L1.9 4.2 1.8 3.75" fill="#a10000" fill-rule="evenodd" stroke="none"/>
      <path d="M5.5 4.65 Q5.7 3.9 5.25 3.15 L4.7 3.1 4.9 3.7 3.85 3.2 3.4 2.75 5.1 2.8 5.7 3.4 5.55 4.6 5.5 4.65 M4.3 3.8 L4.45 3.95 4.45 5.9 4.1 6.5 3.95 6.5 Q4.45 5.9 4.3 5.1 4.2 4.2 3.45 3.8 L2.0 3.75 1.8 3.75 1.8 3.7 2.2 3.5 4.1 3.8 4.3 3.8" fill="#f92900" fill-rule="evenodd" stroke="none"/>
      <path d="M3.85 3.2 L3.55 3.1 4.3 3.8 4.1 3.8 2.2 3.5 2.7 3.15 3.7 2.05 4.6 1.95 Q5.65 2.3 5.7 3.4 L5.1 2.8 3.4 2.75 3.85 3.2" fill="#ff4400" fill-rule="evenodd" stroke="none"/>
      <path d="M4.45 5.9 L4.9 5.1 5.5 4.65 5.55 4.6 5.7 3.4 Q5.65 2.3 4.6 1.95 L3.7 2.05 2.7 3.15 2.2 3.5 1.8 3.7 1.8 3.75 1.9 4.2 2.0 4.2 Q3.85 3.85 3.85 6.0 L3.45 6.55 3.95 6.5 4.1 6.5 4.45 5.9 Z" fill="none" stroke="#660000" stroke-linecap="round" stroke-linejoin="round" stroke-opacity="0.3019608" stroke-width="0.05"/>
      <path d="M2.15 8.3 Q2.65 7.7 2.5 6.9 2.4 6.0 1.65 5.6 L0.2 5.55 0.0 5.55 0.0 5.5 0.4 5.3 2.3 5.6 2.5 5.6 2.65 5.75 2.65 7.7 2.3 8.3 2.15 8.3 M2.05 5.0 L1.6 4.55 3.3 4.6 3.9 5.2 3.75 6.4 3.7 6.45 Q3.9 5.7 3.45 4.95 L2.9 4.9 3.1 5.5 2.05 5.0" fill="#f92900" fill-rule="evenodd" stroke="none"/>
      <path d="M0.0 5.55 L0.2 5.55 1.65 5.6 Q2.4 6.0 2.5 6.9 2.65 7.7 2.15 8.3 L1.65 8.35 2.05 7.8 Q2.05 5.65 0.2 6.0 L0.1 6.0 0.0 5.55 M2.65 7.7 L2.65 5.75 2.5 5.6 1.75 4.9 2.05 5.0 3.1 5.5 2.9 4.9 3.45 4.95 Q3.9 5.7 3.7 6.45 L3.1 6.9 2.65 7.7" fill="#a10000" fill-rule="evenodd" stroke="none"/>
      <path d="M2.5 5.6 L2.3 5.6 0.4 5.3 0.9 4.95 1.9 3.85 2.8 3.75 Q3.85 4.1 3.9 5.2 L3.3 4.6 1.6 4.55 2.05 5.0 1.75 4.9 2.5 5.6" fill="#ff4400" fill-rule="evenodd" stroke="none"/>
      <path d="M2.15 8.3 L2.3 8.3 2.65 7.7 3.1 6.9 3.7 6.45 3.75 6.4 3.9 5.2 Q3.85 4.1 2.8 3.75 L1.9 3.85 0.9 4.95 0.4 5.3 0.0 5.5 0.0 5.55 0.1 6.0 0.2 6.0 Q2.05 5.65 2.05 7.8 L1.65 8.35 2.15 8.3 Z" fill="none" stroke="#660000" stroke-linecap="round" stroke-linejoin="round" stroke-opacity="0.3019608" stroke-width="0.05"/>
    </g>
    <g id="shape12" transform="matrix(1.0, 0.0, 0.0, 1.0, -11.25, -9.0)">
      <path d="M19.85 10.3 L19.65 10.5 19.05 11.15 18.2 11.4 Q17.7 11.5 17.5 11.1 17.3 10.8 17.6 10.4 L17.55 10.15 Q18.4 11.25 19.85 10.3" fill="#333333" fill-rule="evenodd" stroke="none"/>
      <path d="M17.55 10.15 Q17.8 9.95 18.2 9.7 18.8 9.35 19.1 9.55 19.5 9.5 19.65 9.8 L19.85 10.3 Q18.4 11.25 17.55 10.15" fill="url(#gradient7)" fill-rule="evenodd" stroke="none"/>
      <path d="M19.85 10.3 L19.65 10.5 19.05 11.15 18.2 11.4 Q17.7 11.5 17.5 11.1 17.3 10.8 17.6 10.4 L17.55 10.15 Q17.8 9.95 18.2 9.7 18.8 9.35 19.1 9.55 19.5 9.5 19.65 9.8 L19.85 10.3 Z" fill="none" stroke="#000000" stroke-linecap="round" stroke-linejoin="round" stroke-opacity="0.2509804" stroke-width="0.25"/>
      <path d="M28.05 10.7 L27.85 10.9 27.25 11.55 26.4 11.8 Q25.9 11.9 25.7 11.5 25.5 11.2 25.8 10.8 L25.75 10.55 Q26.6 11.65 28.05 10.7" fill="#333333" fill-rule="evenodd" stroke="none"/>
      <path d="M25.75 10.55 Q26.0 10.35 26.4 10.1 27.0 9.75 27.3 9.95 27.7 9.9 27.85 10.2 L28.05 10.7 Q26.6 11.65 25.75 10.55" fill="url(#gradient8)" fill-rule="evenodd" stroke="none"/>
      <path d="M28.05 10.7 L27.85 10.9 27.25 11.55 26.4 11.8 Q25.9 11.9 25.7 11.5 25.5 11.2 25.8 10.8 L25.75 10.55 Q26.0 10.35 26.4 10.1 27.0 9.75 27.3 9.95 27.7 9.9 27.85 10.2 L28.05 10.7 Z" fill="none" stroke="#000000" stroke-linecap="round" stroke-linejoin="round" stroke-opacity="0.2509804" stroke-width="0.25"/>
      <path d="M11.9 15.15 L12.55 14.7 Q13.15 14.35 13.45 14.55 13.85 14.5 14.0 14.8 L14.2 15.3 Q12.75 16.25 11.9 15.15" fill="url(#gradient9)" fill-rule="evenodd" stroke="none"/>
      <path d="M14.2 15.3 L14.0 15.5 13.4 16.15 12.55 16.4 Q12.05 16.5 11.85 16.1 11.65 15.8 11.95 15.4 L11.9 15.15 Q12.75 16.25 14.2 15.3" fill="#333333" fill-rule="evenodd" stroke="none"/>
      <path d="M11.9 15.15 L12.55 14.7 Q13.15 14.35 13.45 14.55 13.85 14.5 14.0 14.8 L14.2 15.3 14.0 15.5 13.4 16.15 12.55 16.4 Q12.05 16.5 11.85 16.1 11.65 15.8 11.95 15.4 L11.9 15.15 Z" fill="none" stroke="#000000" stroke-linecap="round" stroke-linejoin="round" stroke-opacity="0.2509804" stroke-width="0.25"/>
      <path d="M20.75 15.8 L21.4 15.35 22.3 15.2 Q22.7 15.15 22.85 15.45 L23.05 15.95 Q21.6 16.9 20.75 15.8" fill="url(#gradient10)" fill-rule="evenodd" stroke="none"/>
      <path d="M23.05 15.95 L22.85 16.15 22.25 16.8 21.4 17.05 Q20.9 17.15 20.7 16.75 20.5 16.45 20.8 16.05 L20.75 15.8 Q21.6 16.9 23.05 15.95" fill="#333333" fill-rule="evenodd" stroke="none"/>
      <path d="M20.75 15.8 L21.4 15.35 22.3 15.2 Q22.7 15.15 22.85 15.45 L23.05 15.95 22.85 16.15 22.25 16.8 21.4 17.05 Q20.9 17.15 20.7 16.75 20.5 16.45 20.8 16.05 L20.75 15.8 Z" fill="none" stroke="#000000" stroke-linecap="round" stroke-linejoin="round" stroke-opacity="0.2509804" stroke-width="0.25"/>
      <path d="M32.3 14.3 L33.45 18.4 Q33.9 19.95 33.35 21.85 32.9 23.8 31.8 24.95 L29.75 27.15 Q28.65 28.3 27.5 28.0 26.5 27.8 26.05 26.25 L24.9 22.15 Q24.5 20.55 24.95 18.65 25.45 16.8 26.55 15.65 L28.6 13.45 Q29.7 12.3 30.8 12.5 31.9 12.7 32.3 14.3" fill="#000000" fill-rule="evenodd" stroke="none"/>
      <path d="M26.95 22.15 L29.6 19.9 29.65 19.9 30.1 15.4 M29.65 19.9 L31.95 21.4" fill="none" stroke="#6bfadd" stroke-linecap="round" stroke-linejoin="round" stroke-width="0.4"/>
      <path d="M29.65 14.85 L29.55 14.45 29.6 14.0 29.9 13.4 Q30.1 13.25 30.35 13.4 L30.7 13.95 30.75 14.55 30.75 14.8 30.4 15.4 29.95 15.4 29.65 14.85" fill="#8c0000" fill-rule="evenodd" stroke="none"/>
      <path d="M30.9 21.3 L30.6 21.05 30.15 20.35 Q30.05 20.05 30.4 20.0 L31.15 20.2 31.7 20.45 32.15 20.85 32.7 21.55 32.45 21.9 31.65 21.7 30.9 21.3" fill="#c4fff2" fill-rule="evenodd" stroke="none"/>
      <path d="M32.75 21.0 L32.8 21.6 32.8 21.85 32.45 22.45 32.0 22.45 31.7 21.9 31.6 21.5 31.65 21.05 31.95 20.45 Q32.15 20.3 32.4 20.45 L32.75 21.0" fill="#f9ff00" fill-rule="evenodd" stroke="none"/>
      <path d="M28.95 20.3 L29.2 20.65 28.75 21.35 28.15 21.95 27.85 22.15 27.0 22.45 Q26.7 22.45 26.7 22.1 26.75 21.8 27.15 21.4 L27.55 20.95 28.05 20.6 Q28.55 20.3 28.95 20.3" fill="#c4fff2" fill-rule="evenodd" stroke="none"/>
      <path d="M26.75 21.4 Q26.95 21.25 27.2 21.4 L27.55 21.95 27.6 22.55 27.6 22.8 27.25 23.4 26.8 23.4 26.5 22.85 26.4 22.45 26.45 22.0 26.75 21.4" fill="#8c0000" fill-rule="evenodd" stroke="none"/>
      <path d="M26.6 20.95 Q26.9 20.7 27.25 20.95 27.6 21.15 27.75 21.75 L27.85 22.65 27.85 23.0 27.35 23.9 Q27.05 24.1 26.65 23.9 26.35 23.65 26.2 23.1 L26.05 22.5 26.15 21.85 Q26.2 21.25 26.6 20.95" fill="#f9ff00" fill-rule="evenodd" stroke="none"/>
      <path d="M29.4 19.15 L29.2 18.3 29.15 17.7 29.25 16.95 Q29.45 16.35 29.75 16.05 30.0 15.8 30.25 16.05 30.5 16.25 30.55 16.9 L30.45 17.85 30.4 18.25 29.9 19.15 Q29.7 19.4 29.4 19.15" fill="#c4fff2" fill-rule="evenodd" stroke="none"/>
      <path d="M29.4 13.95 Q29.45 13.35 29.85 13.05 30.15 12.8 30.5 13.05 30.85 13.25 31.0 13.85 L31.1 14.75 31.1 15.1 30.6 16.0 Q30.3 16.2 29.9 16.0 29.6 15.75 29.45 15.2 29.3 14.9 29.3 14.6 L29.4 13.95" fill="#f9ff00" fill-rule="evenodd" stroke="none"/>
    </g>
    <radialGradient cx="0" cy="0" gradientTransform="matrix(-7.0E-4, 5.0E-4, -4.0E-4, -4.0E-4, 18.45, 10.05)" gradientUnits="userSpaceOnUse" id="gradient7" r="819.2" spreadMethod="pad">
      <stop offset="0.0" stop-color="#cccccc"/>
      <stop offset="0.596078431372549" stop-color="#bebebe"/>
      <stop offset="1.0" stop-color="#6b6b6b"/>
    </radialGradient>
    <radialGradient cx="0" cy="0" gradientTransform="matrix(-7.0E-4, 5.0E-4, -4.0E-4, -4.0E-4, 26.65, 10.45)" gradientUnits="userSpaceOnUse" id="gradient8" r="819.2" spreadMethod="pad">
      <stop offset="0.0" stop-color="#cccccc"/>
      <stop offset="0.596078431372549" stop-color="#bebebe"/>
      <stop offset="1.0" stop-color="#6b6b6b"/>
    </radialGradient>
    <radialGradient cx="0" cy="0" gradientTransform="matrix(-7.0E-4, 5.0E-4, -4.0E-4, -4.0E-4, 12.8, 15.05)" gradientUnits="userSpaceOnUse" id="gradient9" r="819.2" spreadMethod="pad">
      <stop offset="0.0" stop-color="#cccccc"/>
      <stop offset="0.596078431372549" stop-color="#bebebe"/>
      <stop offset="1.0" stop-color="#6b6b6b"/>
    </radialGradient>
    <radialGradient cx="0" cy="0" gradientTransform="matrix(-7.0E-4, 5.0E-4, -4.0E-4, -4.0E-4, 21.65, 15.7)" gradientUnits="userSpaceOnUse" id="gradient10" r="819.2" spreadMethod="pad">
      <stop offset="0.0" stop-color="#cccccc"/>
      <stop offset="0.596078431372549" stop-color="#bebebe"/>
      <stop offset="1.0" stop-color="#6b6b6b"/>
    </radialGradient>
    <g id="shape13" transform="matrix(1.0, 0.0, 0.0, 1.0, -14.7, -59.4)">
      <path d="M33.85 83.75 L33.85 83.8 33.85 83.95 33.85 84.0 33.85 84.1 33.9 84.1 33.9 84.15 34.35 84.4 34.85 84.75 34.35 84.45 34.1 84.3 34.05 84.25 33.95 84.2 33.9 84.2 33.9 84.7 33.9 85.25 33.85 84.75 33.75 84.2 33.7 84.1 33.5 84.25 33.0 84.55 32.7 84.7 32.95 84.5 33.4 84.3 33.45 84.25 33.5 84.2 33.7 84.1 33.65 84.05 33.7 84.05 33.7 84.0 33.3 83.6 32.95 83.25 33.3 83.55 33.55 83.8 33.7 83.95 33.8 83.4 33.9 82.95 33.85 83.35 33.85 83.75 M34.25 84.0 L34.15 84.0 33.9 84.05 34.15 83.95 34.7 83.75 35.2 83.65 34.85 83.75 34.95 83.85 34.85 83.75 34.7 83.8 34.4 83.9 34.35 83.9 34.25 84.0 M34.95 83.85 L35.65 84.4 36.45 85.15 36.5 85.2 36.75 85.45 36.9 85.55 36.9 85.5 37.1 83.9 37.35 82.3 37.45 81.75 37.4 82.25 37.4 83.85 37.2 85.6 37.35 86.0 37.4 86.1 38.7 86.9 40.15 87.75 40.55 88.05 40.1 87.8 38.75 87.05 37.75 86.45 37.4 86.25 37.35 86.2 37.4 86.3 37.5 87.75 37.55 89.45 37.6 90.0 37.5 89.5 37.25 87.9 37.05 86.25 37.0 86.3 36.9 85.9 36.7 85.75 36.9 85.85 36.9 85.65 35.7 84.55 34.95 83.85 M35.7 86.65 L36.1 86.45 36.2 86.4 36.85 86.1 36.3 86.45 34.8 87.25 33.35 88.0 32.8 88.25 33.3 88.0 34.65 87.2 35.7 86.65 M38.1 85.65 L39.7 85.1 41.3 84.6 41.85 84.45 41.35 84.6 39.85 85.15 38.15 85.7 37.5 85.9 Q37.45 85.85 38.1 85.65" fill="#fefd8d" fill-opacity="0.972549" fill-rule="evenodd" stroke="none"/>
      <path d="M33.85 83.75 L34.05 83.4 34.25 83.2 34.15 83.4 34.0 83.8 33.9 83.9 33.85 83.8 33.85 83.75 M34.1 84.3 L34.35 84.5 34.45 84.65 34.25 84.5 34.0 84.3 33.95 84.2 34.05 84.25 34.1 84.3 M33.4 84.3 L33.3 84.3 32.95 84.45 32.7 84.55 32.95 84.4 33.35 84.25 33.45 84.25 33.4 84.3 M33.55 83.8 L33.4 83.6 33.6 83.8 33.65 83.9 33.55 83.8 M34.25 84.0 L34.35 83.9 34.4 83.9 34.65 83.85 34.95 83.85 35.05 83.8 34.95 83.85 34.7 83.9 34.3 84.0 34.2 84.0 34.25 84.0 M36.45 85.15 L35.85 84.4 35.45 83.85 35.95 84.3 36.65 85.15 36.9 85.5 36.75 85.45 36.5 85.2 36.45 85.15 M37.75 86.45 Q38.15 86.7 38.6 87.1 L39.3 87.75 38.5 87.15 37.6 86.5 37.4 86.3 37.35 86.2 37.4 86.25 37.75 86.45 M33.6 84.3 L33.7 84.2 33.75 84.35 33.65 84.7 33.55 85.05 33.55 84.75 33.6 84.3 M38.7 82.75 L38.55 83.1 38.15 84.05 37.65 85.15 37.35 85.5 37.35 85.0 37.9 84.05 38.5 83.1 38.7 82.75 M35.7 86.65 L34.7 87.0 33.8 87.3 34.7 86.95 35.75 86.5 36.1 86.45 35.7 86.65 M39.8 85.45 L38.7 85.65 38.25 85.7 38.7 85.55 39.75 85.35 40.7 85.2 41.05 85.15 40.75 85.25 39.8 85.45 M36.4 87.85 Q36.5 87.1 36.7 86.7 L36.95 86.25 37.0 86.75 36.65 87.8 36.3 88.85 36.15 89.25 36.25 88.85 36.4 87.85" fill="#fffd8f" fill-opacity="0.4" fill-rule="evenodd" stroke="none"/>
      <path d="M36.9 85.85 L37.45 85.8 Q37.9 86.0 38.0 86.75 L38.45 87.85 38.6 88.25 38.35 87.95 37.65 87.3 Q37.1 87.0 36.9 86.5 36.75 86.1 36.9 85.85" fill="#fffd8f" fill-opacity="0.39215687" fill-rule="evenodd" stroke="none"/>
      <path d="M36.95 85.95 Q36.8 85.8 37.05 85.85 L38.0 86.25 39.0 86.75 39.35 86.95 39.05 86.85 Q38.8 86.65 38.35 86.6 L37.55 86.35 36.95 85.95" fill="#fffd8f" fill-opacity="0.39215687" fill-rule="evenodd" stroke="none"/>
      <path d="M37.3 85.9 L36.75 85.85 Q36.35 85.55 36.4 84.8 L36.2 83.65 36.1 83.25 36.3 83.55 Q36.35 83.9 36.9 84.35 37.35 84.75 37.45 85.25 L37.3 85.9" fill="#fffd8f" fill-opacity="0.39215687" fill-rule="evenodd" stroke="none"/>
      <path d="M37.2 85.8 L37.1 85.95 36.25 85.35 35.35 84.65 35.05 84.45 35.3 84.6 Q35.55 84.75 35.95 84.9 L36.75 85.3 37.2 85.8" fill="#fffd8f" fill-opacity="0.39215687" fill-rule="evenodd" stroke="none"/>
      <path d="M37.85 85.8 Q37.7 85.85 37.85 85.65 38.0 85.45 38.75 85.2 L39.75 84.75 40.15 84.6 39.9 84.75 39.25 85.2 38.5 85.65 37.85 85.8" fill="#fffd8f" fill-opacity="0.39215687" fill-rule="evenodd" stroke="none"/>
      <path d="M36.5 86.25 L36.6 86.4 35.75 87.0 34.8 87.6 34.45 87.85 Q34.4 87.8 34.7 87.65 L35.25 87.1 35.9 86.5 Q36.25 86.25 36.5 86.25" fill="#fffd8f" fill-opacity="0.39215687" fill-rule="evenodd" stroke="none"/>
      <path d="M33.75 84.05 L33.95 84.05 34.1 84.35 34.2 84.75 34.0 84.55 33.7 84.25 Q33.65 84.1 33.75 84.05" fill="#fffd8f" fill-opacity="0.39215687" fill-rule="evenodd" stroke="none"/>
      <path d="M34.2 84.3 L33.95 84.2 33.75 84.1 33.75 84.05 Q33.9 84.05 34.1 84.2 L34.4 84.35 34.2 84.3" fill="#fffd8f" fill-opacity="0.39215687" fill-rule="evenodd" stroke="none"/>
      <path d="M33.85 84.05 L33.65 84.05 33.5 83.65 33.5 83.25 33.65 83.55 33.9 83.85 33.85 84.05" fill="#fffd8f" fill-opacity="0.39215687" fill-rule="evenodd" stroke="none"/>
      <path d="M33.8 84.0 L33.75 84.05 33.5 83.9 33.15 83.6 33.05 83.55 33.2 83.6 33.35 83.7 33.65 83.85 33.8 84.0" fill="#fffd8f" fill-opacity="0.39215687" fill-rule="evenodd" stroke="none"/>
      <path d="M34.05 84.0 L34.05 83.95 34.3 83.8 34.7 83.65 34.8 83.6 34.7 83.7 Q34.6 83.7 34.55 83.8 L34.25 83.95 34.05 84.0" fill="#fffd8f" fill-opacity="0.39215687" fill-rule="evenodd" stroke="none"/>
      <path d="M33.15 84.45 L33.4 84.3 Q33.5 84.15 33.6 84.15 L33.6 84.2 33.3 84.45 Q33.15 84.55 33.05 84.6 L33.15 84.45" fill="#fffd8f" fill-opacity="0.39215687" fill-rule="evenodd" stroke="none"/>
      <path d="M36.05 86.15 Q36.05 85.7 36.3 85.35 L37.05 84.95 37.85 85.2 38.25 85.9 38.05 86.75 37.3 87.15 36.5 86.9 36.05 86.15" fill="#ffffff" fill-rule="evenodd" stroke="none"/>
      <path d="M21.4 61.35 L21.05 61.5 19.9 61.9 18.75 62.3 18.65 62.35 18.2 62.45 18.6 62.25 19.85 61.9 21.0 61.5 21.4 61.35 M17.45 61.95 L17.7 62.2 17.75 62.2 17.7 62.15 17.85 61.05 18.05 59.85 18.15 59.4 18.1 59.8 18.05 61.0 18.0 62.25 18.1 62.6 19.15 63.2 20.0 63.75 19.15 63.3 18.5 62.95 18.4 62.85 18.15 62.7 18.1 62.7 18.15 62.75 18.2 63.85 18.2 64.9 18.0 64.0 17.85 62.8 17.8 62.8 17.75 62.45 17.6 62.3 17.7 62.35 17.7 62.3 16.85 61.5 15.9 60.65 15.65 60.35 15.95 60.65 16.8 61.4 17.45 61.95 M17.25 62.85 L17.7 62.65 17.3 62.95 16.2 63.45 15.1 64.05 14.7 64.25 15.05 64.05 16.1 63.45 17.25 62.85" fill="#fefd8d" fill-opacity="0.972549" fill-rule="evenodd" stroke="none"/>
      <path d="M17.45 61.95 L16.95 61.35 16.5 60.75 17.0 61.3 17.55 61.95 17.7 62.15 17.75 62.2 17.7 62.2 17.45 61.95 M18.5 62.95 L19.0 63.35 19.6 63.8 19.8 64.0 19.6 63.85 18.95 63.4 18.3 62.9 18.15 62.75 18.1 62.7 18.15 62.7 18.4 62.85 18.5 62.95 M19.1 62.2 L19.85 62.05 20.6 61.95 19.85 62.15 19.05 62.3 18.75 62.3 19.1 62.2 M18.95 60.4 L18.65 61.15 18.3 61.9 18.05 62.2 18.1 61.85 18.45 61.15 18.9 60.4 19.1 60.2 18.95 60.4 M17.75 62.75 L17.8 63.1 17.6 63.95 17.25 64.7 17.15 64.95 17.2 64.7 17.4 63.9 Q17.4 63.4 17.55 63.1 L17.75 62.75 M16.9 62.9 L17.2 62.85 Q17.15 62.9 16.85 63.05 L16.15 63.3 15.45 63.55 15.2 63.6 15.45 63.5 16.1 63.25 Q16.6 63.0 16.9 62.9" fill="#fffd8f" fill-opacity="0.4" fill-rule="evenodd" stroke="none"/>
      <path d="M17.7 62.45 L18.15 62.4 18.6 63.1 18.85 63.95 19.0 64.25 18.8 64.0 Q18.75 63.8 18.3 63.55 L17.75 62.95 17.7 62.45" fill="#fffd8f" fill-opacity="0.39215687" fill-rule="evenodd" stroke="none"/>
      <path d="M17.8 62.5 Q17.7 62.4 17.9 62.4 18.05 62.4 18.55 62.7 L19.35 63.1 19.6 63.2 19.35 63.15 18.85 63.0 18.25 62.8 17.8 62.5" fill="#fffd8f" fill-opacity="0.39215687" fill-rule="evenodd" stroke="none"/>
      <path d="M18.0 62.5 L17.55 62.45 Q17.35 62.3 17.3 61.7 L17.2 60.8 17.15 60.5 17.25 60.75 17.65 61.35 18.1 62.0 18.0 62.5" fill="#fffd8f" fill-opacity="0.39215687" fill-rule="evenodd" stroke="none"/>
      <path d="M17.95 62.45 L17.9 62.5 17.25 62.1 Q16.8 61.7 16.55 61.6 L16.35 61.4 16.55 61.5 17.05 61.75 17.6 62.05 17.95 62.45" fill="#fffd8f" fill-opacity="0.39215687" fill-rule="evenodd" stroke="none"/>
      <path d="M18.45 62.4 L18.4 62.3 19.05 61.9 19.85 61.6 20.15 61.5 19.95 61.6 19.5 61.95 18.9 62.3 18.45 62.4" fill="#fffd8f" fill-opacity="0.39215687" fill-rule="evenodd" stroke="none"/>
      <path d="M17.45 62.7 L17.5 62.85 16.9 63.3 16.2 63.75 15.95 63.95 16.15 63.75 16.5 63.35 17.05 62.9 17.45 62.7" fill="#fffd8f" fill-opacity="0.39215687" fill-rule="evenodd" stroke="none"/>
      <path d="M17.2 62.65 Q17.15 62.35 17.4 62.1 L17.9 61.75 18.55 61.95 18.85 62.5 18.7 63.1 18.1 63.4 17.55 63.25 17.2 62.65" fill="#ffffff" fill-rule="evenodd" stroke="none"/>
      <path d="M33.45 84.15 L33.55 83.9 33.75 83.75 34.1 83.85 34.2 84.05 34.15 84.4 33.85 84.5 33.6 84.45 33.45 84.15" fill="#ffffff" fill-rule="evenodd" stroke="none"/>
    </g>
  </defs>
</svg>
