<?xml version='1.0' encoding='UTF-8'?>
<svg xmlns:xlink="http://www.w3.org/1999/xlink" xmlns="http://www.w3.org/2000/svg" version="1.1" width="60px" height="60px" viewBox="0.0 0.0 60.0 60.0"><defs><g id="c1"><path fill="#000000" fill-opacity="0.00392156862745" d="M0.0 0.0 L60.0 0.0 60.0 60.0 0.0 60.0 0.0 0.0"/></g><g id="c2"><path fill="none" stroke="#000000" stroke-width="1.0" stroke-opacity="0.301960784314" d="M28.45 3.1 L41.35 31.7 Q42.95 35.15 40.2 36.7 39.5 37.3 38.3 37.65 L36.35 38.3 36.15 38.15 34.0 36.9 33.8 36.8 Q30.65 35.45 27.7 36.35 24.75 37.3 23.7 40.05 L23.6 40.25 Q23.25 41.25 23.25 42.3 L23.25 42.35 23.25 42.55 19.8 43.65 Q17.15 44.45 15.5 43.3 14.35 42.55 13.65 40.9 L0.7 12.25 Q-0.45 9.75 0.75 8.25 1.2 7.6 2.15 7.15 2.8 6.7 3.8 6.35 L6.45 5.5 8.5 6.75 8.7 6.85 Q11.9 8.2 14.85 7.25 17.8 6.35 18.85 3.6 L18.9 3.4 19.3 1.35 22.3 0.4 Q26.55 -1.0 28.45 3.1"/><path fill="#9d147b" stroke="none" d="M35.55 22.3 L28.25 6.1 27.75 4.95 Q26.05 1.25 21.6 2.85 20.8 5.65 18.85 7.6 17.0 9.45 14.2 9.8 11.45 9.95 9.0 8.8 L6.4 7.45 Q1.65 9.1 3.35 12.8 L8.25 23.65 15.0 38.6 15.2 39.0 Q16.8 42.25 20.45 41.1 L21.65 40.55 Q22.7 36.9 25.05 35.5 27.4 34.15 30.2 34.2 33.05 34.2 36.25 36.1 L37.2 35.7 Q41.1 34.5 39.35 30.75 L35.55 22.3 M19.3 1.35 L22.3 0.4 Q26.55 -1.0 28.45 3.1 L41.35 31.7 Q42.95 35.15 40.2 36.7 L38.9 37.25 36.15 38.15 34.0 36.9 33.8 36.8 Q30.65 35.45 27.7 36.35 24.75 37.3 23.7 40.05 L23.6 40.25 Q23.25 41.25 23.25 42.3 L23.2 42.3 20.4 43.2 19.1 43.5 17.3 43.4 Q15.3 42.9 14.2 40.5 L5.45 20.95 1.35 11.8 Q0.4 9.65 1.1 8.3 1.45 7.65 2.15 7.15 2.8 6.7 3.8 6.35 L6.45 5.5 8.5 6.75 8.7 6.85 Q11.9 8.2 14.85 7.25 17.8 6.35 18.85 3.6 L18.9 3.4 19.3 1.35"/><path fill="#c47fad" stroke="none" d="M28.25 6.1 L35.55 22.3 39.35 30.75 Q41.1 34.5 37.2 35.7 L36.25 36.1 Q33.05 34.2 30.2 34.2 27.4 34.15 25.05 35.5 22.7 36.9 21.65 40.55 L20.45 41.1 Q16.8 42.25 15.2 39.0 L15.0 38.6 8.25 23.65 3.35 12.8 Q1.65 9.1 6.4 7.45 L9.0 8.8 Q11.45 9.95 14.2 9.8 17.0 9.45 18.85 7.6 20.8 5.65 21.6 2.85 26.05 1.25 27.75 4.95 L28.25 6.1 M34.0 32.9 L33.7 32.1 Q33.45 30.9 34.1 30.1 34.75 29.3 35.95 29.35 L35.8 29.0 26.5 8.3 26.25 7.85 Q24.9 5.45 22.05 6.35 19.75 11.1 14.85 11.65 11.45 11.85 9.1 10.55 L9.55 11.6 Q9.8 12.8 9.15 13.6 8.4 14.45 7.1 14.4 L6.8 14.4 6.95 14.6 16.3 35.2 Q16.8 36.4 17.65 37.0 18.8 37.8 19.8 37.35 21.8 33.7 25.95 32.3 30.35 30.8 34.0 32.9"/><path fill="#fcf2cf" stroke="none" d="M22.05 6.35 Q24.9 5.45 26.25 7.85 L26.5 8.3 35.8 29.0 35.95 29.35 Q34.75 29.3 34.1 30.1 33.45 30.9 33.7 32.1 L34.0 32.9 Q30.35 30.8 25.95 32.3 21.8 33.7 19.8 37.35 18.8 37.8 17.65 37.0 16.8 36.4 16.3 35.2 L6.95 14.6 6.8 14.4 7.1 14.4 Q8.4 14.45 9.15 13.6 9.8 12.8 9.55 11.6 L9.1 10.55 Q11.45 11.85 14.85 11.65 19.75 11.1 22.05 6.35"/><path fill="#300525" stroke="none" d="M40.2 36.7 Q39.5 37.3 38.3 37.65 L36.35 38.3 36.15 38.15 38.9 37.25 40.2 36.7 M23.25 42.3 L23.25 42.35 23.2 42.3 23.25 42.3 M20.1 43.55 L19.8 43.65 Q17.15 44.45 15.5 43.3 L17.3 43.4 19.1 43.5 20.1 43.55 M4.6 20.9 L0.7 12.25 Q-0.45 9.75 0.75 8.25 L1.1 8.3 Q0.4 9.65 1.35 11.8 L5.45 20.95 4.6 20.9"/><path fill="#630a4c" stroke="none" d="M23.25 42.35 L23.25 42.55 20.1 43.55 19.1 43.5 20.4 43.2 23.2 42.3 23.25 42.35 M15.5 43.3 Q14.35 42.55 13.65 40.9 L4.6 20.9 5.45 20.95 14.2 40.5 Q15.3 42.9 17.3 43.4 L15.5 43.3 M0.75 8.25 Q1.2 7.6 2.15 7.15 1.45 7.65 1.1 8.3 L0.75 8.25"/><path fill="none" stroke="#bf9900" stroke-width="1.0" stroke-opacity="0.749019607843" d="M28.25 6.1 L35.55 22.3 M15.0 38.6 L8.25 23.65"/><path fill="none" stroke="#000000" stroke-width="0.5" stroke-opacity="0.301960784314" d="M19.3 1.35 L22.3 0.4 Q26.55 -1.0 28.45 3.1 L41.35 31.7 Q42.95 35.15 40.2 36.7 39.5 37.3 38.3 37.65 L36.35 38.3 M23.25 42.55 L20.1 43.55 19.8 43.65 Q17.15 44.45 15.5 43.3 14.35 42.55 13.65 40.9 L4.6 20.9 0.7 12.25 Q-0.45 9.75 0.75 8.25 1.2 7.6 2.15 7.15 2.8 6.7 3.8 6.35 L6.45 5.5 M1.1 8.3 Q1.45 7.65 2.15 7.15 M5.45 20.95 L1.35 11.8 Q0.4 9.65 1.1 8.3 M17.3 43.4 Q15.3 42.9 14.2 40.5 L5.45 20.95 M19.1 43.5 L17.3 43.4 M23.2 42.3 L20.4 43.2 19.1 43.5 M23.25 42.3 L23.2 42.3 M40.2 36.7 L38.9 37.25 36.15 38.15"/><path fill="none" stroke="#ffcc00" stroke-width="1.0" stroke-opacity="0.749019607843" d="M35.55 22.3 L39.35 30.75 Q41.1 34.5 37.2 35.7 L36.25 36.1 M21.65 40.55 L20.45 41.1 Q16.8 42.25 15.2 39.0 L15.0 38.6 M8.25 23.65 L3.35 12.8 Q1.65 9.1 6.4 7.45 M21.6 2.85 Q26.05 1.25 27.75 4.95 L28.25 6.1"/><path fill="none" stroke="#f0b92b" stroke-width="0.5" d="M22.05 6.35 Q24.9 5.45 26.25 7.85 L26.5 8.3 35.8 29.0 35.95 29.35 Q34.75 29.3 34.1 30.1 33.45 30.9 33.7 32.1 L34.0 32.9 M19.8 37.35 Q18.8 37.8 17.65 37.0 16.8 36.4 16.3 35.2 L6.95 14.6 6.8 14.4 7.1 14.4 Q8.4 14.45 9.15 13.6 9.8 12.8 9.55 11.6 L9.1 10.55"/><path fill="none" stroke="#ffaa00" stroke-width="1.0" stroke-opacity="0.749019607843" d="M36.25 36.1 Q33.05 34.2 30.2 34.2 27.4 34.15 25.05 35.5 22.7 36.9 21.65 40.55 M6.4 7.45 L9.0 8.8 Q11.45 9.95 14.2 9.8 17.0 9.45 18.85 7.6 20.8 5.65 21.6 2.85"/><path fill="none" stroke="#ffaa00" stroke-width="0.5" stroke-opacity="0.749019607843" d="M34.0 32.9 Q30.35 30.8 25.95 32.3 21.8 33.7 19.8 37.35 M9.1 10.55 Q11.45 11.85 14.85 11.65 19.75 11.1 22.05 6.35"/></g><g id="c3"><path fill="#7fdbfe" stroke="none" d="M10.75 4.9 Q10.75 4.6 10.9 4.35 11.25 3.45 11.95 2.75 13.3 1.5 14.35 2.1 15.4 2.7 14.95 4.45 14.7 5.4 14.1 6.15 L13.75 6.5 Q13.1 7.15 12.35 7.35 L11.4 7.2 Q10.95 6.9 10.75 6.4 10.5 5.75 10.75 4.9 M9.3 1.7 Q9.55 2.65 9.4 3.6 L9.3 4.15 8.5 5.5 7.6 5.9 7.5 5.9 Q7.0 5.85 6.6 5.5 6.05 5.0 5.8 4.15 L5.7 3.6 Q5.55 2.65 5.8 1.7 6.25 0.0 7.5 0.0 L7.6 0.0 Q8.85 0.0 9.3 1.7 M0.15 4.45 Q-0.3 2.7 0.75 2.1 1.8 1.5 3.15 2.75 3.85 3.45 4.2 4.35 L4.35 4.9 Q4.6 5.75 4.35 6.4 L3.7 7.2 2.75 7.35 Q2.0 7.15 1.35 6.5 L1.0 6.15 Q0.4 5.4 0.15 4.45 M7.55 7.0 Q8.75 6.9 9.9 7.6 11.45 8.5 11.95 10.25 12.35 12.0 11.5 12.95 10.7 13.9 9.65 13.7 8.55 13.5 7.55 12.6 6.55 13.5 5.5 13.7 4.45 13.9 3.65 12.95 2.75 12.0 3.2 10.25 3.7 8.5 5.25 7.6 6.4 6.9 7.55 7.0"/></g><g id="c4"><g><use transform="matrix(1.0,0.0,0.0,1.0,0.0,0.0)" xlink:href="#c3"/></g></g><radialGradient gradientUnits="userSpaceOnUse" r="819.2" cx="0" cy="0" spreadMethod="pad" gradientTransform="matrix(0.0914459228516,0.0,0.0,0.0914459228516,0.6,3.4)" id="gradient1"><stop offset="0.0" stop-color="#ffffff"/><stop offset="1.0" stop-color="#ffffff" stop-opacity="0.0"/></radialGradient><g id="c5"><path stroke="none" fill="url(#gradient1)" d="M36.65 -54.65 Q60.05 -42.0 69.75 -17.95 80.55 8.9 68.0 34.1 55.45 59.35 26.8 68.2 -1.8 77.05 -29.7 64.3 -57.6 51.6 -68.45 24.75 -79.3 -2.05 -66.75 -27.25 L-66.7 -27.3 Q-54.1 -52.5 -25.5 -61.4 3.1 -70.2 31.0 -57.5 L36.65 -54.65"/></g><g id="c6"><g><use transform="matrix(1.0,0.0,0.0,1.0,0.0,0.0)" xlink:href="#c5"/></g></g><radialGradient gradientUnits="userSpaceOnUse" r="819.2" cx="0" cy="0" spreadMethod="pad" gradientTransform="matrix(0.209197998047,0.0,0.0,0.177108764648,67.15,107.2)" id="gradient2"><stop offset="0.356862745098" stop-color="#ffffff"/><stop offset="0.670588235294" stop-opacity="0.0"/></radialGradient><g id="c7"><path fill="none" stroke-linejoin="round" stroke-linecap="round" stroke="url(#gradient2)" stroke-width="0.5" d="M136.55 165.8 L68.6 106.0 68.4 106.0 118.25 201.5 M68.3 105.8 L68.35 105.8 68.3 105.8 68.3 105.85 68.4 106.0 68.3 106.0 86.55 211.5 M68.3 105.8 L68.3 105.85 68.3 106.0 68.15 105.95 18.25 151.55 M68.3 105.85 L68.25 105.85 68.3 106.0 50.0 193.2 M68.25 105.85 L68.15 105.95 0.05 97.7 M68.3 105.85 L68.25 105.8 68.25 105.85 M68.25 105.8 L68.2 105.7 0.0 45.7 M68.3 105.8 L68.25 105.75 68.25 105.8 M68.25 105.75 L68.2 105.7 18.25 10.05 M68.6 106.0 L68.35 105.8 118.25 60.15 M86.6 18.35 L68.3 105.8 M136.6 114.25 L68.6 106.0 M68.25 105.75 L49.95 0.05"/></g><g id="c8"><g><use transform="matrix(1.0,0.0,0.0,1.0,0.0,0.0)" xlink:href="#c7"/></g></g><g id="c9"><g><use transform="matrix(1.0,0.0,0.0,1.0,0.0,0.0)" xlink:href="#c2"/></g><g><use transform="matrix(0.238861083984,-0.0867004394531,0.10026550293,0.233917236328,34.25,31.15)" xlink:href="#c4"/></g><g><use transform="matrix(0.238861083984,-0.0867004394531,0.10026550293,0.233917236328,4.25,10.3)" xlink:href="#c4"/></g><g><use transform="matrix(0.141098022461,-0.0378112792969,0.111373901367,0.225646972656,20.25,20.65)" filter="url(#filter7)" xlink:href="#c6"/></g><g><use transform="matrix(-0.155029296875,0.0513153076172,0.0841827392578,0.147033691406,22.6,3.15)" filter="url(#filter8)" xlink:href="#c8"/></g></g><filter id="filter7"><feColorMatrix in="SourceGraphic" type="matrix" values="0.0 0.0 0.0 0.0 0.796875 0.0 0.0 0.0 0.0 0.59765625 0.0 0.0 0.0 0.0 0.19921875 0.0 0.0 0.0 1.0 0.0" result="cxform"/><feComposite operator="in" in2="SourceGraphic" result="color-xform"/></filter><filter id="filter8"><feColorMatrix in="SourceGraphic" type="matrix" values="0.0 0.0 0.0 0.0 0.99609375 0.0 0.0 0.0 0.0 0.99609375 0.0 0.0 0.0 0.0 0.99609375 0.0 0.0 0.0 1.0 0.0" result="cxform"/><feComposite operator="in" in2="SourceGraphic" result="color-xform"/></filter><g id="c10"><path fill="#000000" stroke="none" d="M123.5 61.75 Q123.5 87.35 105.4 105.4 87.35 123.5 61.75 123.5 36.15 123.5 18.05 105.4 0.0 87.35 0.0 61.75 0.0 36.15 18.05 18.05 36.15 0.0 61.75 0.0 87.35 0.0 105.4 18.05 123.5 36.15 123.5 61.75"/></g><g id="c11"><g><use transform="matrix(1.0,0.0,0.0,1.0,0.0,0.0)" xlink:href="#c10"/></g></g><g id="c12"><path fill="#ba5e01" stroke="none" d="M46.8 10.7 L45.95 10.95 Q44.7 10.95 41.95 9.15 39.3 7.35 38.3 7.35 L38.25 7.35 38.25 7.45 Q38.15 8.7 36.05 8.75 L32.65 8.45 33.2 12.1 Q34.0 15.6 36.05 21.15 L33.65 21.0 33.65 20.95 29.9 5.95 32.6 5.5 32.65 6.15 32.65 6.55 34.8 6.75 34.8 6.15 34.75 5.3 37.75 5.3 46.35 10.25 46.8 10.7 M36.75 6.95 L34.8 6.75 36.75 6.95 M35.75 31.3 Q35.35 31.8 35.05 32.55 34.75 33.4 34.75 34.2 L34.8 35.05 35.15 36.35 Q35.3 36.85 36.9 38.4 36.9 39.4 37.9 42.7 38.9 46.15 39.0 47.85 L40.2 48.0 41.5 48.3 Q43.65 48.85 43.65 50.0 43.65 51.4 41.65 53.6 L40.75 54.5 Q38.1 57.1 37.2 57.4 L35.7 57.2 Q38.25 58.4 38.25 60.25 38.25 62.85 34.25 62.85 L31.95 62.25 33.1 63.9 Q33.65 65.1 33.65 66.05 33.65 68.45 30.65 70.85 26.45 74.2 18.7 74.2 L13.85 73.35 10.6 72.3 10.5 71.1 10.35 69.95 10.15 67.95 10.55 66.4 10.9 65.5 Q17.6 61.55 29.5 61.7 L26.8 61.2 Q29.25 58.35 34.0 57.1 32.35 57.0 30.75 57.15 31.15 55.3 32.3 53.6 33.95 51.1 37.15 48.85 L37.15 48.75 31.0 25.95 29.85 24.3 31.3 24.25 31.25 24.4 32.1 25.9 Q32.95 27.45 32.9 28.6 32.85 29.5 33.3 30.0 33.7 30.5 35.0 30.8 L35.75 31.3 M40.9 30.45 L40.75 31.7 Q40.15 31.7 38.2 30.5 36.1 29.25 35.15 29.1 L34.25 29.1 Q34.5 28.25 34.85 27.9 35.2 27.45 35.7 27.45 L38.75 27.95 Q40.9 28.7 40.9 30.45 M32.65 6.55 L31.9 6.45 32.65 6.55 M34.5 57.1 L34.0 57.1 34.5 57.1 M31.35 62.1 L29.5 61.7 31.35 62.1"/><path fill="#5c2e01" stroke="none" d="M38.3 7.35 Q39.3 7.35 41.95 9.15 44.7 10.95 45.95 10.95 L46.8 10.7 53.25 17.45 63.85 56.7 44.95 78.35 25.15 79.8 9.25 76.85 10.6 72.35 10.6 72.3 13.85 73.35 18.7 74.2 Q26.45 74.2 30.65 70.85 33.65 68.45 33.65 66.05 33.65 65.1 33.1 63.9 L31.95 62.25 34.25 62.85 Q38.25 62.85 38.25 60.25 38.25 58.4 35.7 57.2 L37.2 57.4 Q38.1 57.1 40.75 54.5 L41.65 53.6 Q43.65 51.4 43.65 50.0 43.65 48.85 41.5 48.3 L40.2 48.0 39.0 47.85 Q38.9 46.15 37.9 42.7 36.9 39.4 36.9 38.4 35.3 36.85 35.15 36.35 L34.8 35.05 34.75 34.2 Q34.75 33.4 35.05 32.55 35.35 31.8 35.75 31.3 L37.7 32.65 35.75 31.3 35.0 30.8 Q33.7 30.5 33.3 30.0 32.85 29.5 32.9 28.6 32.95 27.45 32.1 25.9 L31.25 24.4 31.3 24.25 31.6 23.95 33.95 23.6 36.1 23.8 36.9 23.95 36.9 23.45 36.05 21.15 Q34.0 15.6 33.2 12.1 L32.65 8.45 36.05 8.75 Q38.15 8.7 38.25 7.45 L38.3 7.35 M43.4 31.3 L43.25 32.5 43.4 31.3 M44.55 33.4 L43.9 32.9 43.25 32.5 43.05 34.2 44.0 35.1 44.1 35.25 44.45 35.9 Q44.85 36.95 44.35 37.65 43.9 38.35 42.8 38.35 41.7 38.35 40.65 37.65 39.65 36.95 39.25 35.9 L39.1 34.9 39.3 34.15 39.55 33.9 37.7 32.65 37.45 32.9 Q37.05 33.45 37.0 34.15 36.9 34.95 37.3 35.95 38.0 37.7 39.85 38.95 41.7 40.25 43.6 40.25 45.45 40.25 46.3 38.95 47.15 37.7 46.45 35.95 45.9 34.5 44.55 33.4 M38.25 57.55 L37.2 57.4 38.25 57.55 M43.05 34.2 L42.9 35.55 43.05 34.2 M40.9 30.45 Q40.9 28.7 38.75 27.95 L35.7 27.45 Q35.2 27.45 34.85 27.9 34.5 28.25 34.25 29.1 L35.15 29.1 Q36.1 29.25 38.2 30.5 40.15 31.7 40.75 31.7 L40.9 30.45 M40.65 64.85 L34.25 62.85 40.65 64.85 M39.55 33.9 L40.75 34.7 39.55 33.9"/><path fill="#976a02" stroke="none" d="M34.75 5.3 L34.8 6.15 34.8 6.75 32.65 6.55 32.65 6.15 32.6 5.5 32.0 4.05 34.35 3.6 34.75 5.3 M44.0 35.1 L43.05 34.2 43.25 32.5 43.9 32.9 44.55 33.4 44.0 35.1 M37.0 34.15 Q37.05 33.45 37.45 32.9 L37.7 32.65 39.55 33.9 39.3 34.15 39.1 34.9 37.0 34.15 M26.1 11.1 Q26.3 8.8 26.9 7.45 L27.5 8.55 28.25 9.2 28.95 12.3 Q27.3 12.15 26.1 11.1 M32.35 47.15 L33.0 47.75 34.05 49.45 32.1 50.55 31.5 49.65 30.6 49.05 32.35 47.15 M3.95 81.4 L3.9 80.7 4.05 79.5 6.4 75.35 Q8.3 72.25 10.35 69.95 L10.5 71.1 Q8.8 75.1 6.4 78.4 L3.95 81.4"/><path fill="#b88203" stroke="none" d="M44.0 35.1 L44.55 33.4 Q45.9 34.5 46.45 35.95 47.15 37.7 46.3 38.95 45.45 40.25 43.6 40.25 41.7 40.25 39.85 38.95 38.0 37.7 37.3 35.95 36.9 34.95 37.0 34.15 L39.1 34.9 39.25 35.9 Q39.65 36.95 40.65 37.65 41.7 38.35 42.8 38.35 43.9 38.35 44.35 37.65 44.85 36.95 44.45 35.9 L44.1 35.25 44.0 35.1 M23.9 6.15 Q24.5 5.8 25.25 3.65 26.15 1.1 29.1 1.1 L30.4 1.3 31.45 1.45 32.4 1.15 32.45 1.1 33.2 1.8 34.35 3.6 32.0 4.05 31.8 3.8 31.75 3.75 Q30.9 2.75 29.65 2.75 28.4 2.75 27.5 3.75 26.65 4.75 26.65 6.15 26.65 6.85 26.9 7.45 26.3 8.8 26.1 11.1 L25.5 10.5 Q23.9 8.7 23.9 6.15 M30.45 46.3 Q31.5 46.45 32.35 47.15 L30.6 49.05 29.7 48.9 Q28.65 48.9 27.9 49.65 27.15 50.4 27.15 51.45 27.15 52.5 27.9 53.25 L28.35 53.6 29.15 53.95 28.1 56.25 26.35 55.05 Q25.75 54.4 25.45 53.6 L25.15 52.75 25.75 52.85 26.65 52.85 26.4 51.45 Q26.4 49.75 27.65 48.2 L29.55 47.15 30.45 46.3 M0.05 80.1 L0.7 80.1 Q2.3 80.1 3.7 77.85 L5.0 75.35 6.4 73.3 7.0 72.4 Q8.65 69.8 8.65 68.85 L8.6 68.05 10.55 66.4 10.15 67.95 10.35 69.95 Q8.3 72.25 6.4 75.35 L4.05 79.5 3.9 80.7 3.95 81.4 3.8 81.55 3.5 81.85 Q-0.4 82.9 0.05 80.1"/><path fill="#e19e04" stroke="none" d="M32.45 1.1 L32.4 1.15 31.45 1.45 30.4 1.3 29.1 1.1 Q26.15 1.1 25.25 3.65 24.5 5.8 23.9 6.15 23.9 3.6 25.5 1.8 27.1 0.0 29.35 0.0 31.1 0.0 32.45 1.1 M25.15 52.75 L25.0 51.4 Q25.0 49.25 26.35 47.75 27.75 46.25 29.7 46.25 L30.45 46.3 29.55 47.15 27.65 48.2 Q26.4 49.75 26.4 51.45 L26.65 52.85 25.75 52.85 25.15 52.75 M8.6 68.05 L8.65 68.85 Q8.65 69.8 7.0 72.4 L6.4 73.3 5.0 75.35 3.7 77.85 Q2.3 80.1 0.7 80.1 L0.05 80.1 0.1 79.7 6.75 69.6 8.6 68.05"/><path fill="#666600" stroke="none" d="M29.9 5.95 L33.65 20.95 33.4 20.95 31.15 20.95 28.95 12.3 28.25 9.2 27.9 7.55 29.25 6.05 29.9 5.95 M27.15 24.35 L29.85 24.3 31.0 25.95 37.15 48.75 34.9 49.0 34.9 48.95 29.0 26.7 27.0 24.55 27.15 24.35"/><path fill="#a9a801" stroke="none" d="M29.85 24.3 L27.15 24.35 29.0 20.95 30.05 20.95 29.15 23.35 29.85 24.3 M34.9 49.0 L37.15 48.75 37.15 48.85 Q33.95 51.1 32.3 53.6 31.15 55.3 30.75 57.15 32.35 57.0 34.0 57.1 29.25 58.35 26.8 61.2 L29.5 61.7 Q17.6 61.55 10.9 65.5 12.1 62.6 15.0 60.3 L21.0 60.3 21.4 60.35 21.4 60.3 27.5 57.55 28.1 56.25 29.15 53.95 30.25 51.55 32.1 50.55 34.05 49.45 34.8 49.0 34.9 49.0 M21.4 60.35 L26.8 61.2 21.4 60.35 M30.75 57.15 L27.5 57.55 30.75 57.15"/><path fill="#e37302" stroke="none" d="M33.65 21.0 L36.05 21.15 36.9 23.45 36.9 23.95 36.1 23.8 33.95 23.6 31.6 23.95 31.3 24.25 29.85 24.3 29.15 23.35 30.05 20.95 31.15 20.95 33.4 20.95 33.65 21.0"/><path fill="#434201" stroke="none" d="M9.25 76.85 L25.15 79.8 44.95 78.35 39.25 84.85 23.0 85.45 13.0 83.7 11.6 79.6 9.25 76.85"/><path fill="none" stroke="#000000" stroke-width="0.5" stroke-opacity="0.4" d="M46.8 10.7 L46.35 10.25 37.75 5.3 34.75 5.3 34.8 6.15 34.8 6.75 36.75 6.95 M44.95 78.35 L63.85 56.7 53.25 17.45 46.8 10.7 M46.35 10.25 L48.65 11.55 M43.25 32.5 L43.4 31.3 M44.55 33.4 L43.9 32.9 43.25 32.5 43.05 34.2 44.0 35.1 M44.55 33.4 Q45.9 34.5 46.45 35.95 47.15 37.7 46.3 38.95 45.45 40.25 43.6 40.25 41.7 40.25 39.85 38.95 38.0 37.7 37.3 35.95 36.9 34.95 37.0 34.15 37.05 33.45 37.45 32.9 L37.7 32.65 35.75 31.3 35.0 30.8 M37.2 57.4 L38.25 57.55 M44.1 35.25 L44.45 35.9 Q44.85 36.95 44.35 37.65 43.9 38.35 42.8 38.35 41.7 38.35 40.65 37.65 39.65 36.95 39.25 35.9 L39.1 34.9 39.3 34.15 39.55 33.9 37.7 32.65 M42.9 35.55 L43.05 34.2 M32.45 1.1 Q31.1 0.0 29.35 0.0 27.1 0.0 25.5 1.8 23.9 3.6 23.9 6.15 23.9 8.7 25.5 10.5 L26.1 11.1 Q27.3 12.15 28.95 12.3 L31.15 20.95 33.4 20.95 33.65 20.95 M26.9 7.45 Q26.65 6.85 26.65 6.15 26.65 4.75 27.5 3.75 28.4 2.75 29.65 2.75 30.9 2.75 31.75 3.75 L31.8 3.8 M34.35 3.6 L33.2 1.8 32.45 1.1 M32.6 5.5 L32.65 6.15 32.65 6.55 34.8 6.75 M32.0 4.05 L32.6 5.5 29.9 5.95 33.65 20.95 M34.75 5.3 L34.35 3.6 M31.9 6.45 L32.65 6.55 M29.9 5.95 L29.25 6.05 27.9 7.55 28.25 9.2 28.95 12.3 M28.25 9.2 L27.5 8.55 26.9 7.45 M27.15 24.35 L27.0 24.55 29.0 26.7 34.9 48.95 M37.15 48.75 L31.0 25.95 29.85 24.3 29.15 23.35 30.05 20.95 29.0 20.95 27.15 24.35 M31.15 20.95 L30.05 20.95 M25.15 52.75 L25.0 51.4 Q25.0 49.25 26.35 47.75 27.75 46.25 29.7 46.25 L30.45 46.3 Q31.5 46.45 32.35 47.15 L33.0 47.75 34.05 49.45 34.8 49.0 34.9 48.95 M25.15 52.75 L25.45 53.6 Q25.75 54.4 26.35 55.05 L28.1 56.25 29.15 53.95 28.35 53.6 27.9 53.25 Q27.15 52.5 27.15 51.45 27.15 50.4 27.9 49.65 28.65 48.9 29.7 48.9 L30.6 49.05 31.5 49.65 32.1 50.55 34.05 49.45 M30.75 57.15 Q31.15 55.3 32.3 53.6 33.95 51.1 37.15 48.85 L37.15 48.75 M35.7 57.2 L37.2 57.4 M30.75 57.15 Q32.35 57.0 34.0 57.1 L34.5 57.1 M32.1 50.55 L30.25 51.55 29.15 53.95 M21.4 60.3 L21.0 60.3 21.4 60.35 M21.4 60.3 L27.5 57.55 28.1 56.25 M10.9 65.5 Q17.6 61.55 29.5 61.7 L26.8 61.2 21.4 60.35 M31.95 62.25 L34.25 62.85 40.65 64.85 M26.8 61.2 Q29.25 58.35 34.0 57.1 M27.5 57.55 L30.75 57.15 M29.5 61.7 L31.35 62.1 M0.05 80.1 Q-0.4 82.9 3.5 81.85 L3.8 81.55 M4.05 79.5 L6.4 75.35 Q8.3 72.25 10.35 69.95 L10.15 67.95 10.55 66.4 8.6 68.05 6.75 69.6 0.1 79.7 0.05 80.1 M10.5 71.1 L10.6 72.3 10.6 72.35 9.25 76.85 25.15 79.8 44.95 78.35 66.0 76.55 M10.9 65.5 L10.55 66.4 M10.35 69.95 L10.5 71.1 Q8.8 75.1 6.4 78.4 L3.95 81.4 M21.0 60.3 L15.0 60.3 Q12.1 62.6 10.9 65.5 M9.25 76.85 L11.6 79.6 13.0 83.7 23.0 85.45 39.25 84.85 44.95 78.35 M40.75 34.7 L39.55 33.9"/><path fill="none" stroke="#000000" stroke-width="0.5" stroke-opacity="0.4" d="M53.25 17.45 L63.85 56.7 39.25 84.85 23.0 85.45 13.0 83.7 11.6 79.6 9.25 76.85 10.6 72.35 10.6 72.3 10.5 71.1 Q8.8 75.1 6.4 78.4 L3.95 81.4 3.8 81.55 3.5 81.85 Q-0.4 82.9 0.05 80.1 L0.1 79.7 6.75 69.6 10.55 66.4 10.9 65.5 Q12.1 62.6 15.0 60.3 L21.0 60.3 21.4 60.35 21.4 60.3 27.5 57.55 28.1 56.25 26.35 55.05 Q25.75 54.4 25.45 53.6 L25.15 52.75 25.0 51.4 Q25.0 49.25 26.35 47.75 27.75 46.25 29.7 46.25 L30.45 46.3 Q31.5 46.45 32.35 47.15 L33.0 47.75 34.05 49.45 34.8 49.0 34.9 49.0 34.9 48.95 29.0 26.7 27.0 24.55 29.0 20.95 31.15 20.95 28.95 12.3 Q27.3 12.15 26.1 11.1 L25.5 10.5 Q23.9 8.7 23.9 6.15 23.9 3.6 25.5 1.8 27.1 0.0 29.35 0.0 31.1 0.0 32.45 1.1 L33.2 1.8 34.35 3.6 34.75 5.3 37.75 5.3 46.35 10.25 53.25 17.45 M31.8 3.8 L32.0 4.05 32.6 5.5 29.25 6.05 27.9 7.55 28.25 9.2 27.5 8.55 26.9 7.45 Q26.65 6.85 26.65 6.15 26.65 4.75 27.5 3.75 28.4 2.75 29.65 2.75 30.9 2.75 31.75 3.75 L31.8 3.8 M30.6 49.05 L31.5 49.65 32.1 50.55 30.25 51.55 29.15 53.95 28.35 53.6 27.9 53.25 Q27.15 52.5 27.15 51.45 27.15 50.4 27.9 49.65 28.65 48.9 29.7 48.9 L30.6 49.05"/></g><g id="c13"><g><use transform="matrix(1.0,0.0,0.0,1.0,0.0,0.0)" xlink:href="#c12"/></g></g><g id="c14"><path fill="#e37302" stroke="none" d="M70.35 7.9 L73.85 8.45 75.05 10.0 81.0 8.95 91.3 10.1 96.0 9.45 96.65 10.3 88.65 18.2 77.15 17.2 71.05 10.4 67.05 9.95 Q66.95 7.75 68.55 7.65 L70.35 7.9 M33.9 80.85 Q33.05 78.5 32.75 75.7 33.3 74.4 36.5 71.85 L39.1 69.35 Q40.7 68.7 45.0 68.4 49.0 62.3 53.9 57.55 56.15 55.35 58.6 53.45 L61.65 52.4 61.25 53.55 Q55.15 59.85 52.55 67.1 L47.8 68.05 47.0 68.3 47.05 68.5 Q37.75 70.9 39.75 80.85 35.75 80.1 34.0 76.45 34.45 81.3 37.4 85.7 L36.85 86.0 Q35.65 84.65 34.8 83.0 L33.9 80.85 M44.05 9.25 Q42.35 7.6 44.5 5.35 49.0 4.95 53.55 5.4 51.5 6.55 51.9 9.9 L44.05 9.25 M93.35 11.2 L92.05 12.35 93.35 11.2 M76.35 11.65 L78.75 14.75 83.1 15.7 88.25 15.7 92.05 12.35 89.1 12.35 80.65 10.85 76.35 11.65 75.05 10.0 76.35 11.65 M68.4 65.4 Q67.35 66.3 65.7 66.7 L67.9 66.8 69.5 67.4 Q70.05 69.0 66.5 68.85 74.55 76.25 58.25 81.6 L52.25 83.95 Q49.05 73.5 56.5 68.2 L58.15 68.25 Q58.35 67.15 59.95 66.65 L64.05 66.65 Q64.45 59.0 69.3 52.85 L71.85 52.95 68.25 55.55 Q66.4 58.5 66.25 61.45 66.5 64.4 68.4 65.4 M60.7 45.3 L57.5 44.45 55.6 45.3 55.6 41.95 53.25 40.8 54.25 38.55 55.35 37.8 59.35 39.1 Q59.85 42.25 60.7 45.3 M69.4 47.55 L68.6 45.5 67.8 41.9 77.85 45.2 80.75 45.3 80.15 48.65 80.1 48.8 75.25 49.7 69.4 47.55 M45.0 68.4 L46.4 68.35 47.0 68.3 46.4 68.35 45.0 68.4 M65.7 66.7 L64.05 66.65 65.7 66.7 M62.6 68.35 L58.15 68.25 62.6 68.35"/><path fill="#5c2e01" stroke="none" d="M96.65 10.3 L97.35 11.2 94.85 14.2 95.5 15.55 89.5 21.6 93.6 19.6 93.25 27.45 92.1 26.95 92.05 26.9 92.05 26.95 91.55 30.1 91.55 30.15 92.1 30.45 92.7 30.85 Q93.8 31.75 94.15 32.95 92.8 36.5 89.65 36.45 86.25 36.05 86.25 31.7 L86.35 29.95 Q86.3 28.1 85.85 26.55 84.9 26.75 84.05 27.1 82.7 27.65 81.55 28.6 78.8 30.95 78.8 34.2 78.8 37.4 81.45 39.65 L81.55 39.75 Q84.35 42.1 88.3 42.1 92.25 42.1 95.05 39.75 L95.15 39.8 94.4 43.85 94.4 46.35 96.5 48.95 97.0 53.2 97.8 52.1 101.9 55.35 103.05 60.25 102.15 60.25 101.35 59.35 101.2 58.95 100.1 55.95 99.05 55.2 Q97.9 58.15 100.2 61.95 L100.55 62.35 100.95 64.5 99.1 62.45 100.0 68.55 Q99.1 69.8 97.65 70.55 90.15 73.15 84.5 81.1 L82.4 84.3 Q81.1 88.75 78.0 90.45 72.0 91.7 62.5 92.0 65.65 87.65 69.5 85.2 73.15 81.8 75.05 78.1 73.2 79.6 71.1 79.7 61.9 82.3 54.9 87.55 L54.15 86.95 52.65 86.0 52.85 85.7 52.25 83.95 58.25 81.6 Q74.55 76.25 66.5 68.85 70.05 69.0 69.5 67.4 L67.9 66.8 65.7 66.7 Q67.35 66.3 68.4 65.4 L69.5 63.9 Q70.05 64.95 71.05 65.85 72.0 66.7 73.05 67.2 L73.55 67.4 Q73.5 68.1 73.6 68.8 L73.7 69.7 73.7 69.8 Q74.15 72.7 75.85 74.35 77.55 76.05 79.5 75.6 81.4 75.15 82.4 72.8 83.45 70.5 83.0 67.6 L82.45 65.6 Q84.45 63.55 84.45 60.75 84.45 57.75 82.15 55.65 L81.1 54.85 79.95 54.2 79.45 55.7 78.8 56.85 78.7 56.95 77.95 57.8 Q79.75 59.9 78.25 61.7 L77.15 61.75 Q75.25 62.2 74.25 64.45 L73.35 63.75 Q72.0 62.5 72.0 60.7 72.0 58.9 73.35 57.65 L74.35 56.95 74.15 58.05 Q75.85 60.2 76.75 57.45 79.0 53.4 80.1 48.8 L80.15 48.65 80.75 45.3 81.0 42.35 Q76.7 38.9 75.75 33.45 L67.6 32.15 Q68.0 26.75 67.45 21.35 L73.4 21.6 67.45 21.0 66.45 14.7 66.8 14.5 Q67.8 14.0 68.6 12.95 68.2 11.9 67.15 10.9 L67.05 9.95 71.05 10.4 77.15 17.2 88.65 18.2 96.65 10.3 M48.7 14.95 L44.5 9.6 44.05 9.25 51.9 9.9 52.1 11.05 Q52.85 17.55 55.35 19.35 51.2 18.25 50.25 16.95 L48.7 14.95 M89.1 12.35 L92.05 12.35 88.25 15.7 83.1 15.7 78.75 14.75 76.35 11.65 80.65 10.85 89.1 12.35 M85.75 20.6 L89.5 19.45 94.85 14.2 89.5 19.45 85.75 20.6 M91.15 24.2 Q88.55 22.45 85.9 23.45 L87.9 26.85 Q89.45 28.35 90.4 27.35 L91.15 24.3 91.15 24.2 M92.05 26.9 L92.0 26.7 Q91.95 25.5 91.15 24.3 91.95 25.5 92.0 26.7 L92.05 26.9 M91.0 31.75 L91.45 30.55 91.55 30.15 91.45 30.55 91.0 31.75 M84.9 24.45 L85.85 26.55 84.9 24.45 M98.0 54.45 L99.05 55.2 98.0 54.45 M53.6 84.6 L52.85 85.7 53.6 84.6 M79.2 72.75 L79.0 72.8 Q77.85 73.05 76.85 72.05 76.2 71.4 75.9 70.45 L75.7 69.7 Q78.1 70.0 80.15 69.2 L79.2 72.75 M69.65 15.2 L68.6 12.95 69.65 15.2 M58.4 27.8 L51.9 20.6 56.95 20.85 Q58.25 24.2 58.4 27.8 M40.0 82.0 L39.6 84.55 39.6 84.85 38.2 85.35 37.4 85.7 Q34.45 81.3 34.0 76.45 35.75 80.1 39.75 80.85 L40.0 82.0 M80.15 53.0 L80.0 54.05 79.95 54.2 80.0 54.05 80.15 53.0"/><path fill="#ba5e01" stroke="none" d="M95.5 15.55 L95.75 16.1 94.65 17.9 95.05 28.6 94.7 28.35 93.25 27.45 93.6 19.6 89.5 21.6 95.5 15.55 M95.75 39.1 L95.75 45.45 98.0 48.45 98.0 50.6 102.85 54.95 103.55 56.0 104.2 57.65 104.3 58.65 104.0 60.2 103.05 60.25 101.9 55.35 97.8 52.1 97.0 53.2 96.5 48.95 94.4 46.35 94.4 43.85 95.15 39.8 95.15 39.7 95.75 39.1 M100.95 64.5 L101.1 65.2 101.05 66.25 100.0 68.55 99.1 62.45 100.95 64.5 M33.45 88.55 Q32.9 85.65 33.9 80.85 L34.8 83.0 34.35 87.7 33.45 88.55 M53.9 57.55 L55.95 52.35 55.5 48.7 55.25 46.6 55.05 46.4 53.85 45.0 54.6 44.15 Q54.3 42.95 53.05 42.6 L52.9 42.8 52.25 43.55 51.85 44.0 Q51.1 43.0 52.7 40.15 52.3 38.05 53.25 33.45 51.6 25.0 47.9 19.35 47.15 18.55 48.7 14.95 L50.25 16.95 Q51.2 18.25 55.35 19.35 L56.4 19.6 56.95 20.85 51.9 20.6 58.4 27.8 58.4 29.2 Q58.5 34.3 59.35 39.1 L55.35 37.8 54.25 38.55 53.25 40.8 55.6 41.95 55.6 45.3 57.5 44.45 60.7 45.3 61.0 46.45 Q62.15 49.95 61.65 52.4 L58.6 53.45 Q56.15 55.35 53.9 57.55 M91.15 24.2 L91.15 24.3 90.4 27.35 Q89.45 28.35 87.9 26.85 L85.9 23.45 Q88.55 22.45 91.15 24.2 M94.65 17.9 L93.6 19.6 94.65 17.9 M98.0 50.6 L97.8 52.1 98.0 50.6 M69.5 63.9 L68.4 65.4 Q66.5 64.4 66.25 61.45 66.4 58.5 68.25 55.55 L71.85 52.95 69.3 52.85 69.6 52.45 Q70.1 50.0 69.4 47.55 L75.25 49.7 80.1 48.8 Q79.0 53.4 76.75 57.45 75.85 60.2 74.15 58.05 L74.35 56.95 Q74.5 55.45 74.05 53.95 L72.45 54.65 71.05 55.65 Q68.75 57.75 68.75 60.75 68.75 62.45 69.5 63.9 M67.8 41.9 Q67.15 37.8 67.5 33.35 L67.6 32.15 75.75 33.45 Q76.7 38.9 81.0 42.35 L80.75 45.3 77.85 45.2 67.8 41.9 M54.65 44.85 L54.6 44.15 54.65 44.85 M53.25 39.25 L52.7 40.15 53.25 39.25 M73.65 52.8 L74.05 53.95 73.65 52.8 M56.4 51.1 L55.95 52.35 56.4 51.1"/><path fill="#976a02" stroke="none" d="M54.05 100.7 Q50.15 103.45 44.7 103.45 39.15 103.45 35.25 100.6 33.55 99.4 32.6 97.95 33.4 97.65 33.75 96.6 36.4 100.65 42.35 101.35 47.2 101.95 51.6 99.7 L54.75 96.95 Q55.9 95.55 56.45 94.2 56.95 92.8 58.05 94.4 57.75 98.0 54.15 100.6 L54.05 100.7 M92.05 26.95 L92.1 26.95 93.25 27.45 94.7 28.35 93.85 29.7 Q95.7 31.55 94.05 35.5 L94.3 34.1 94.15 32.95 Q93.8 31.75 92.7 30.85 L92.1 30.45 91.55 30.15 91.55 30.1 92.05 26.95 M104.3 58.65 L104.2 57.65 106.6 59.1 110.1 63.1 Q110.9 64.45 109.9 64.7 L108.85 64.7 107.4 64.2 Q110.7 63.35 104.3 58.65 M73.7 69.7 L73.6 68.8 Q73.5 68.1 73.55 67.4 L75.5 67.9 75.6 69.3 75.7 69.7 75.9 70.45 73.75 69.75 73.7 69.7 M77.0 64.75 L77.65 64.5 78.8 64.55 Q79.3 64.75 79.8 65.25 L80.85 66.85 78.85 67.7 Q79.25 66.05 77.0 64.75 M81.1 54.85 L80.3 56.65 Q81.95 57.15 82.65 60.3 L81.4 63.7 80.75 63.0 80.7 62.95 Q81.35 61.95 81.35 60.7 81.35 58.9 79.95 57.65 L79.0 56.95 78.8 56.85 79.45 55.7 79.95 54.2 81.1 54.85 M66.8 14.5 Q66.95 13.6 66.75 12.75 66.5 11.65 65.65 10.55 L66.3 10.15 67.15 10.9 Q68.2 11.9 68.6 12.95 67.8 14.0 66.8 14.5 M52.25 43.55 L52.9 42.8 53.05 42.6 Q54.3 42.95 54.6 44.15 L53.85 45.0 52.25 43.55 M54.15 86.95 L53.35 88.45 Q54.6 90.05 55.05 91.85 54.55 94.55 52.65 94.55 L52.8 93.3 52.8 92.8 Q52.6 91.05 51.25 89.7 51.75 87.6 52.65 86.0 L54.15 86.95"/><path fill="#b88203" stroke="none" d="M95.05 28.6 Q97.8 30.95 97.8 34.2 97.8 37.0 95.75 39.1 L95.15 39.7 95.05 39.75 Q92.25 42.1 88.3 42.1 84.35 42.1 81.55 39.75 L81.45 39.65 Q83.35 39.9 83.0 37.7 81.45 36.45 81.85 33.6 82.55 30.8 85.0 29.35 L84.05 27.1 Q84.9 26.75 85.85 26.55 86.3 28.1 86.35 29.95 L84.85 30.85 Q83.25 32.2 83.25 34.1 83.25 36.0 84.85 37.35 86.45 38.7 88.75 38.7 91.05 38.7 92.7 37.35 L94.0 35.7 94.05 35.5 Q95.7 31.55 93.85 29.7 L94.7 28.35 95.05 28.6 M103.55 56.0 Q109.4 58.45 111.5 63.1 113.5 68.65 108.4 67.3 103.5 66.0 100.55 62.35 L100.2 61.95 Q97.9 58.15 99.05 55.2 L100.1 55.95 101.2 58.95 Q100.05 58.25 100.45 60.5 103.35 64.35 108.15 66.2 111.45 66.4 109.9 64.7 110.9 64.45 110.1 63.1 L106.6 59.1 104.2 57.65 103.55 56.0 M68.2 1.6 L68.7 2.2 Q70.35 4.4 70.35 7.5 L70.35 7.9 68.55 7.65 67.45 7.45 67.45 7.25 Q67.45 5.8 66.7 4.75 65.95 3.75 64.9 3.75 63.85 3.75 63.05 4.75 62.5 5.6 62.4 6.65 L62.35 7.25 62.4 8.0 Q61.25 9.35 62.4 11.55 64.4 13.9 66.75 12.75 66.95 13.6 66.8 14.5 L66.45 14.7 64.8 15.0 Q62.5 15.0 60.85 12.8 60.1 11.8 59.75 10.6 59.35 9.45 59.3 8.2 60.75 8.65 61.25 4.8 62.55 2.25 64.6 1.55 67.35 2.8 68.2 1.6 M81.1 54.85 L82.15 55.65 Q84.45 57.75 84.45 60.75 84.45 63.55 82.45 65.6 L83.0 67.6 Q83.45 70.5 82.4 72.8 81.4 75.15 79.5 75.6 77.55 76.05 75.85 74.35 74.15 72.7 73.7 69.8 L73.75 69.75 75.9 70.45 Q76.2 71.4 76.85 72.05 77.85 73.05 79.0 72.8 L79.2 72.75 Q80.2 72.4 80.75 71.15 81.4 69.75 81.15 68.0 L80.85 66.85 79.8 65.25 Q79.3 64.75 78.8 64.55 L77.65 64.5 77.0 64.75 76.7 65.0 76.65 65.0 75.35 64.85 76.65 65.0 76.7 65.0 77.0 64.75 Q79.25 66.05 78.85 67.7 L76.6 67.95 75.5 67.9 73.55 67.4 73.05 67.2 Q75.15 66.55 73.9 65.5 70.45 63.75 70.35 61.1 70.3 57.85 72.85 56.35 L72.45 54.65 74.05 53.95 Q74.5 55.45 74.35 56.95 L73.35 57.65 Q72.0 58.9 72.0 60.7 72.0 62.5 73.35 63.75 L74.25 64.45 75.35 64.85 Q75.95 62.8 78.25 63.35 L80.0 64.1 Q81.45 65.75 82.05 64.7 L82.45 65.6 82.05 64.7 81.4 63.7 82.65 60.3 Q81.95 57.15 80.3 56.65 L81.1 54.85 M57.85 92.1 L58.05 93.8 58.05 94.4 Q56.95 92.8 56.45 94.2 55.9 95.55 54.75 96.95 L51.6 99.7 Q47.2 101.95 42.35 101.35 36.4 100.65 33.75 96.6 34.2 95.2 33.85 92.45 35.35 88.7 38.0 87.2 L38.2 85.35 39.6 84.85 Q39.6 86.25 39.95 87.8 L39.35 88.05 38.0 88.85 Q36.85 89.7 36.25 90.65 35.45 91.85 35.45 93.3 35.45 95.9 38.0 97.75 L39.8 98.8 Q41.7 99.6 44.1 99.6 L44.5 99.6 Q47.9 99.5 50.25 97.75 52.0 96.5 52.55 94.85 L52.65 94.55 Q54.55 94.55 55.05 91.85 54.6 90.05 53.35 88.45 L54.15 86.95 54.9 87.55 Q57.3 89.55 57.85 92.1 M53.45 45.6 L53.85 45.0 55.05 46.4 Q53.4 53.4 51.05 55.35 L51.15 52.85 Q53.0 51.2 53.45 45.6"/><path fill="#3c1e00" stroke="none" d="M94.15 32.95 L94.3 34.1 94.05 35.5 94.0 35.7 92.7 37.35 Q91.05 38.7 88.75 38.7 86.45 38.7 84.85 37.35 83.25 36.0 83.25 34.1 83.25 32.2 84.85 30.85 L86.35 29.95 86.25 31.7 Q86.25 36.05 89.65 36.45 92.8 36.5 94.15 32.95 M80.85 66.85 L81.15 68.0 Q81.4 69.75 80.75 71.15 80.2 72.4 79.2 72.75 L80.15 69.2 Q78.1 70.0 75.7 69.7 L75.6 69.3 75.5 67.9 76.6 67.95 78.85 67.7 80.85 66.85 M80.7 62.95 Q79.5 61.8 78.25 61.7 79.75 59.9 77.95 57.8 L78.7 56.95 78.8 56.85 79.0 56.95 79.95 57.65 Q81.35 58.9 81.35 60.7 81.35 61.95 80.7 62.95 M62.5 92.0 L60.6 92.05 57.85 92.1 Q57.3 89.55 54.9 87.55 61.9 82.3 71.1 79.7 73.2 79.6 75.05 78.1 73.15 81.8 69.5 85.2 65.65 87.65 62.5 92.0 M39.95 87.8 L40.05 88.3 40.35 89.3 39.8 91.75 38.85 91.5 36.25 90.65 Q36.85 89.7 38.0 88.85 L39.35 88.05 39.95 87.8 M34.8 83.0 Q35.65 84.65 36.85 86.0 L35.25 86.95 34.35 87.7 34.8 83.0 M51.4 92.9 L50.85 91.45 51.25 89.7 Q52.6 91.05 52.8 92.8 L51.4 92.9"/><path fill="#e19e04" stroke="none" d="M32.6 97.95 Q31.35 96.05 31.35 93.8 31.35 90.85 33.45 88.55 L34.35 87.7 35.25 86.95 36.85 86.0 37.4 85.7 38.2 85.35 38.0 87.2 Q35.35 88.7 33.85 92.45 34.2 95.2 33.75 96.6 33.4 97.65 32.6 97.95 M55.5 48.7 Q53.25 56.6 51.0 57.35 48.6 57.15 48.65 54.85 48.1 48.95 51.85 44.0 L52.25 43.55 53.85 45.0 53.45 45.6 Q51.55 48.45 51.15 52.85 L51.05 55.35 Q53.4 53.4 55.05 46.4 L55.25 46.6 55.5 48.7 M59.35 6.25 Q59.6 3.95 60.85 2.2 62.5 0.0 64.8 0.0 66.75 0.0 68.2 1.6 67.35 2.8 64.6 1.55 62.55 2.25 61.25 4.8 60.75 8.65 59.3 8.2 L59.25 7.5 59.35 6.25 M84.05 27.1 L85.0 29.35 Q82.55 30.8 81.85 33.6 81.45 36.45 83.0 37.7 83.35 39.9 81.45 39.65 78.8 37.4 78.8 34.2 78.8 30.95 81.55 28.6 82.7 27.65 84.05 27.1 M107.4 64.2 L108.85 64.7 109.9 64.7 Q111.45 66.4 108.15 66.2 103.35 64.35 100.45 60.5 100.05 58.25 101.2 58.95 L101.35 59.35 102.15 60.25 Q104.65 63.0 107.4 64.2 M73.7 69.8 L73.7 69.7 73.75 69.75 73.7 69.8 M73.05 67.2 Q72.0 66.7 71.05 65.85 70.05 64.95 69.5 63.9 68.75 62.45 68.75 60.75 68.75 57.75 71.05 55.65 L72.45 54.65 72.85 56.35 Q70.3 57.85 70.35 61.1 70.45 63.75 73.9 65.5 75.15 66.55 73.05 67.2 M81.4 63.7 L82.05 64.7 Q81.45 65.75 80.0 64.1 L78.25 63.35 Q75.95 62.8 75.35 64.85 L74.25 64.45 Q75.25 62.2 77.15 61.75 L78.25 61.7 Q79.5 61.8 80.7 62.95 L80.75 63.0 81.4 63.7 M66.75 12.75 Q64.4 13.9 62.4 11.55 61.25 9.35 62.4 8.0 62.55 8.95 63.05 9.7 63.85 10.7 64.9 10.7 L65.65 10.55 Q66.5 11.65 66.75 12.75"/><path fill="#a95401" stroke="none" d="M95.05 39.75 L95.15 39.7 95.15 39.8 95.05 39.75 M67.45 21.35 L67.45 21.0 73.4 21.6 67.45 21.35"/><path fill="#a9a801" stroke="none" d="M101.05 66.25 L100.4 75.4 99.25 79.0 100.0 68.55 101.05 66.25 M67.15 10.9 L66.3 10.15 65.25 9.7 67.05 9.95 67.15 10.9 M59.35 39.1 L67.8 41.9 68.6 45.5 69.4 47.55 60.7 45.3 Q59.85 42.25 59.35 39.1 M61.65 52.4 L69.3 52.85 Q64.45 59.0 64.05 66.65 L59.95 66.65 52.55 67.1 Q55.15 59.85 61.25 53.55 L61.65 52.4 M39.75 80.85 Q37.75 70.9 47.05 68.5 L47.9 68.3 56.5 68.2 Q49.05 73.5 52.25 83.95 49.7 85.6 40.55 83.85 L40.0 82.0 39.75 80.85 M38.85 91.5 L39.8 91.75 Q44.7 93.0 50.2 92.9 L49.55 94.55 Q42.8 94.85 38.45 93.05 L38.85 91.5"/><path fill="#666600" stroke="none" d="M99.25 79.0 L99.1 79.45 96.55 81.6 97.15 74.45 Q95.95 73.65 94.75 76.95 L94.3 81.3 94.15 82.6 93.0 83.45 92.55 80.15 92.5 80.05 Q91.75 77.9 91.25 80.2 L90.7 82.95 90.4 84.35 87.25 87.7 85.35 92.75 85.9 86.2 Q84.15 86.1 83.75 89.95 L83.75 93.25 83.75 96.6 81.25 99.7 79.0 99.7 79.0 94.3 Q77.9 90.95 76.15 94.3 L76.15 100.15 56.9 100.8 Q60.4 98.2 60.65 93.9 L77.25 91.85 80.25 90.45 83.5 84.95 Q85.8 80.95 89.0 77.85 L84.5 81.1 Q90.15 73.15 97.65 70.55 99.1 69.8 100.0 68.55 L99.25 79.0 M53.55 5.4 L59.35 6.25 59.25 7.5 59.3 8.2 Q59.35 9.45 59.75 10.6 L51.9 9.9 Q51.5 6.55 53.55 5.4 M68.55 7.65 Q66.95 7.75 67.05 9.95 L65.25 9.7 66.3 10.15 65.65 10.55 64.9 10.7 Q63.85 10.7 63.05 9.7 62.55 8.95 62.4 8.0 L62.35 7.25 62.4 6.65 67.45 7.45 68.55 7.65 M52.25 83.95 L52.85 85.7 52.65 86.0 Q51.75 87.6 51.25 89.7 L50.85 91.45 51.4 92.9 50.2 92.9 Q44.7 93.0 39.8 91.75 L40.35 89.3 40.05 88.3 39.95 87.8 Q39.6 86.25 39.6 84.85 L39.6 84.55 40.0 82.0 40.55 83.85 Q49.7 85.6 52.25 83.95 M67.45 21.0 L67.45 21.35 56.95 20.85 56.4 19.6 58.5 20.05 67.45 21.0 M59.35 39.1 Q58.5 34.3 58.4 29.2 L58.4 27.8 61.4 31.1 67.6 32.15 67.5 33.35 Q67.15 37.8 67.8 41.9 L59.35 39.1 M60.7 45.3 L69.4 47.55 Q70.1 50.0 69.6 52.45 L69.3 52.85 61.65 52.4 Q62.15 49.95 61.0 46.45 L60.7 45.3 M40.75 90.5 L40.35 89.3 40.75 90.5 M56.5 68.2 L47.9 68.3 47.8 68.05 52.55 67.1 59.95 66.65 Q58.35 67.15 58.15 68.25 L56.5 68.2 M39.8 98.8 Q37.8 96.75 38.45 93.05 42.8 94.85 49.55 94.55 47.95 97.55 44.5 99.6 L44.1 99.6 Q41.7 99.6 39.8 98.8"/><path fill="#434201" stroke="none" d="M96.55 81.6 L94.3 81.3 94.75 76.95 Q95.95 73.65 97.15 74.45 L96.55 81.6 M93.0 83.45 L90.7 82.95 91.25 80.2 Q91.75 77.9 92.5 80.05 L92.55 80.15 93.0 83.45 M85.35 92.75 L83.75 93.25 83.75 89.95 Q84.15 86.1 85.9 86.2 L85.35 92.75 M79.0 99.7 Q78.7 98.1 77.5 98.35 76.2 98.45 76.15 100.15 L76.15 94.3 Q77.9 90.95 79.0 94.3 L79.0 99.7 M56.9 100.8 L54.15 100.7 54.15 100.6 Q57.75 98.0 58.05 94.4 L58.05 93.8 57.85 92.1 60.6 92.05 62.5 92.0 Q72.0 91.7 78.0 90.45 81.1 88.75 82.4 84.3 L84.5 81.1 89.0 77.85 Q85.8 80.95 83.5 84.95 L80.25 90.45 77.25 91.85 60.65 93.9 Q60.4 98.2 56.9 100.8 M59.75 10.6 Q60.1 11.8 60.85 12.8 62.5 15.0 64.8 15.0 L66.45 14.7 67.45 21.0 58.5 20.05 56.4 19.6 55.35 19.35 Q52.85 17.55 52.1 11.05 L51.9 9.9 59.75 10.6 M56.95 20.85 L67.45 21.35 Q68.0 26.75 67.6 32.15 L61.4 31.1 58.4 27.8 Q58.25 24.2 56.95 20.85 M36.25 90.65 L38.85 91.5 38.45 93.05 Q37.8 96.75 39.8 98.8 L38.0 97.75 Q35.45 95.9 35.45 93.3 35.45 91.85 36.25 90.65 M44.5 99.6 Q47.95 97.55 49.55 94.55 L50.2 92.9 51.4 92.9 52.8 92.8 52.8 93.3 52.65 94.55 52.55 94.85 Q52.0 96.5 50.25 97.75 47.9 99.5 44.5 99.6"/><path fill="none" stroke="#000000" stroke-width="0.5" stroke-opacity="0.4" d="M70.35 7.9 L73.85 8.45 75.05 10.0 81.0 8.95 91.3 10.1 96.0 9.45 96.65 10.3 97.35 11.2 94.85 14.2 95.5 15.55 95.75 16.1 94.65 17.9 95.05 28.6 Q97.8 30.95 97.8 34.2 97.8 37.0 95.75 39.1 L95.75 45.45 98.0 48.45 98.0 50.6 102.85 54.95 103.55 56.0 Q109.4 58.45 111.5 63.1 113.5 68.65 108.4 67.3 103.5 66.0 100.55 62.35 L100.95 64.5 101.1 65.2 101.05 66.25 100.4 75.4 99.25 79.0 99.1 79.45 96.55 81.6 94.3 81.3 94.15 82.6 93.0 83.45 90.7 82.95 90.4 84.35 87.25 87.7 85.35 92.75 83.75 93.25 83.75 96.6 81.25 99.7 79.0 99.7 Q78.7 98.1 77.5 98.35 76.2 98.45 76.15 100.15 L56.9 100.8 54.15 100.7 54.05 100.7 Q50.15 103.45 44.7 103.45 39.15 103.45 35.25 100.6 33.55 99.4 32.6 97.95 31.35 96.05 31.35 93.8 31.35 90.85 33.45 88.55 32.9 85.65 33.9 80.85 33.05 78.5 32.75 75.7 33.3 74.4 36.5 71.85 L39.1 69.35 Q40.7 68.7 45.0 68.4 49.0 62.3 53.9 57.55 L55.95 52.35 55.5 48.7 Q53.25 56.6 51.0 57.35 48.6 57.15 48.65 54.85 48.1 48.95 51.85 44.0 51.1 43.0 52.7 40.15 52.3 38.05 53.25 33.45 51.6 25.0 47.9 19.35 47.15 18.55 48.7 14.95 L44.5 9.6 44.05 9.25 Q42.35 7.6 44.5 5.35 49.0 4.95 53.55 5.4 L59.35 6.25 Q59.6 3.95 60.85 2.2 62.5 0.0 64.8 0.0 66.75 0.0 68.2 1.6 L68.7 2.2 Q70.35 4.4 70.35 7.5 L70.35 7.9 68.55 7.65 Q66.95 7.75 67.05 9.95 M92.05 12.35 L93.35 11.2 M76.35 11.65 L78.75 14.75 83.1 15.7 88.25 15.7 92.05 12.35 89.1 12.35 M76.35 11.65 L75.05 10.0 M94.85 14.2 L89.5 19.45 85.75 20.6 M93.6 19.6 L94.65 17.9 M92.1 26.95 L92.05 26.9 92.05 26.95 91.55 30.1 91.55 30.15 92.1 30.45 92.7 30.85 Q93.8 31.75 94.15 32.95 L94.3 34.1 94.05 35.5 M92.1 26.95 L93.25 27.45 94.7 28.35 95.05 28.6 M91.15 24.3 Q91.95 25.5 92.0 26.7 L92.05 26.9 M91.55 30.15 L91.45 30.55 91.0 31.75 M94.0 35.7 L92.7 37.35 Q91.05 38.7 88.75 38.7 86.45 38.7 84.85 37.35 83.25 36.0 83.25 34.1 83.25 32.2 84.85 30.85 L86.35 29.95 Q86.3 28.1 85.85 26.55 84.9 26.75 84.05 27.1 82.7 27.65 81.55 28.6 78.8 30.95 78.8 34.2 78.8 37.4 81.45 39.65 L81.55 39.75 Q84.35 42.1 88.3 42.1 92.25 42.1 95.05 39.75 L95.15 39.7 95.75 39.1 M97.8 52.1 L98.0 50.6 M85.85 26.55 L84.9 24.45 M104.2 57.65 L104.3 58.65 Q110.7 63.35 107.4 64.2 L108.85 64.7 M104.2 57.65 L103.55 56.0 M102.15 60.25 L103.05 60.25 104.0 60.2 104.3 58.65 M102.15 60.25 L101.35 59.35 101.2 58.95 100.1 55.95 99.05 55.2 Q97.9 58.15 100.2 61.95 L100.55 62.35 M102.15 60.25 Q104.65 63.0 107.4 64.2 M99.05 55.2 L98.0 54.45 M81.1 54.85 L82.15 55.65 Q84.45 57.75 84.45 60.75 84.45 63.55 82.45 65.6 L83.0 67.6 Q83.45 70.5 82.4 72.8 81.4 75.15 79.5 75.6 77.55 76.05 75.85 74.35 74.15 72.7 73.7 69.8 L73.7 69.7 73.6 68.8 Q73.5 68.1 73.55 67.4 L73.05 67.2 Q72.0 66.7 71.05 65.85 70.05 64.95 69.5 63.9 68.75 62.45 68.75 60.75 68.75 57.75 71.05 55.65 L72.45 54.65 74.05 53.95 73.65 52.8 M65.7 66.7 L67.9 66.8 M52.25 83.95 L52.85 85.7 53.6 84.6 M82.05 64.7 L82.45 65.6 M81.4 63.7 L82.05 64.7 M75.35 64.85 L76.65 65.0 76.7 65.0 77.0 64.75 77.65 64.5 78.8 64.55 Q79.3 64.75 79.8 65.25 L80.85 66.85 81.15 68.0 Q81.4 69.75 80.75 71.15 80.2 72.4 79.2 72.75 L79.0 72.8 Q77.85 73.05 76.85 72.05 76.2 71.4 75.9 70.45 L75.7 69.7 M84.5 81.1 Q90.15 73.15 97.65 70.55 99.1 69.8 100.0 68.55 L101.05 66.25 M81.4 63.7 L80.75 63.0 80.7 62.95 Q79.5 61.8 78.25 61.7 L77.15 61.75 Q75.25 62.2 74.25 64.45 L75.35 64.85 M93.0 83.45 L92.55 80.15 92.5 80.05 Q91.75 77.9 91.25 80.2 L90.7 82.95 M96.55 81.6 L97.15 74.45 Q95.95 73.65 94.75 76.95 L94.3 81.3 M84.5 81.1 L82.4 84.3 Q81.1 88.75 78.0 90.45 72.0 91.7 62.5 92.0 L60.6 92.05 57.85 92.1 58.05 93.8 58.05 94.4 Q57.75 98.0 54.15 100.6 L54.05 100.7 M85.35 92.75 L85.9 86.2 Q84.15 86.1 83.75 89.95 L83.75 93.25 M59.3 8.2 Q59.35 9.45 59.75 10.6 60.1 11.8 60.85 12.8 62.5 15.0 64.8 15.0 L66.45 14.7 66.8 14.5 Q67.8 14.0 68.6 12.95 68.2 11.9 67.15 10.9 L66.3 10.15 65.65 10.55 64.9 10.7 Q63.85 10.7 63.05 9.7 62.55 8.95 62.4 8.0 L62.35 7.25 62.4 6.65 Q62.5 5.6 63.05 4.75 63.85 3.75 64.9 3.75 65.95 3.75 66.7 4.75 67.45 5.8 67.45 7.25 L67.45 7.45 68.55 7.65 M67.15 10.9 L67.05 9.95 M65.25 9.7 L66.3 10.15 M62.4 6.65 L67.45 7.45 M67.45 21.0 L66.45 14.7 M67.45 21.35 L67.45 21.0 M58.5 20.05 L56.4 19.6 56.95 20.85 M68.6 12.95 L69.65 15.2 M51.9 9.9 Q51.5 6.55 53.55 5.4 M55.35 19.35 Q52.85 17.55 52.1 11.05 L51.9 9.9 M59.35 6.25 L59.25 7.5 59.3 8.2 M48.7 14.95 L50.25 16.95 Q51.2 18.25 55.35 19.35 L56.4 19.6 M58.4 27.8 Q58.25 24.2 56.95 20.85 M58.4 27.8 L58.4 29.2 Q58.5 34.3 59.35 39.1 59.85 42.25 60.7 45.3 L61.0 46.45 Q62.15 49.95 61.65 52.4 L61.25 53.55 Q55.15 59.85 52.55 67.1 L59.95 66.65 64.05 66.65 Q64.45 59.0 69.3 52.85 L69.6 52.45 Q70.1 50.0 69.4 47.55 L68.6 45.5 67.8 41.9 Q67.15 37.8 67.5 33.35 L67.6 32.15 Q68.0 26.75 67.45 21.35 M52.25 43.55 L52.9 42.8 53.05 42.6 Q54.3 42.95 54.6 44.15 L54.65 44.85 M52.7 40.15 L53.25 39.25 M53.85 45.0 L54.6 44.15 M53.85 45.0 L53.45 45.6 Q53.0 51.2 51.15 52.85 L51.05 55.35 M55.05 46.4 L53.85 45.0 M52.25 43.55 L51.85 44.0 M55.05 46.4 L55.25 46.6 55.5 48.7 M74.15 58.05 L74.35 56.95 73.35 57.65 Q72.0 58.9 72.0 60.7 72.0 62.5 73.35 63.75 L74.25 64.45 M34.8 83.0 L33.9 80.85 M40.0 82.0 L39.6 84.55 39.6 84.85 Q39.6 86.25 39.95 87.8 L40.05 88.3 40.35 89.3 40.75 90.5 M37.4 85.7 L38.2 85.35 39.6 84.85 M36.85 86.0 L37.4 85.7 M39.75 80.85 Q37.75 70.9 47.05 68.5 M47.0 68.3 L46.4 68.35 45.0 68.4 M39.75 80.85 L40.0 82.0 40.55 83.85 M52.25 83.95 Q49.05 73.5 56.5 68.2 L47.9 68.3 47.05 68.5 M36.85 86.0 Q35.65 84.65 34.8 83.0 M34.35 87.7 L35.25 86.95 36.85 86.0 M36.25 90.65 L38.85 91.5 39.8 91.75 40.35 89.3 M36.25 90.65 Q36.85 89.7 38.0 88.85 L39.35 88.05 39.95 87.8 M33.45 88.55 L34.35 87.7 M39.8 98.8 L38.0 97.75 Q35.45 95.9 35.45 93.3 35.45 91.85 36.25 90.65 M39.8 98.8 Q41.7 99.6 44.1 99.6 L44.5 99.6 M79.95 54.2 L80.0 54.05 80.15 53.0 M80.7 62.95 Q81.35 61.95 81.35 60.7 81.35 58.9 79.95 57.65 L79.0 56.95 78.8 56.85 78.7 56.95 77.95 57.8 M78.8 56.85 L79.45 55.7 79.95 54.2 81.1 54.85 M74.05 53.95 Q74.5 55.45 74.35 56.95 M64.05 66.65 L65.7 66.7 M78.85 67.7 L80.85 66.85 M75.5 67.9 L76.6 67.95 78.85 67.7 M73.55 67.4 L75.5 67.9 75.6 69.3 75.7 69.7 M55.95 52.35 L56.4 51.1 M58.6 53.45 Q56.15 55.35 53.9 57.55 M47.9 68.3 L47.0 68.3 47.8 68.05 52.55 67.1 M56.5 68.2 L58.15 68.25 Q58.35 67.15 59.95 66.65 M52.65 86.0 L52.85 85.7 M50.2 92.9 Q44.7 93.0 39.8 91.75 M54.9 87.55 L54.15 86.95 M52.65 94.55 L52.55 94.85 Q52.0 96.5 50.25 97.75 47.9 99.5 44.5 99.6 M51.25 89.7 L50.85 91.45 51.4 92.9 52.8 92.8 Q52.6 91.05 51.25 89.7 51.75 87.6 52.65 86.0 L54.15 86.95 M52.8 92.8 L52.8 93.3 52.65 94.55 M54.9 87.55 Q57.3 89.55 57.85 92.1 M50.2 92.9 L51.4 92.9 M71.1 79.7 Q61.9 82.3 54.9 87.55 M79.0 99.7 L79.0 94.3 Q77.9 90.95 76.15 94.3 L76.15 100.15 M58.15 68.25 L62.6 68.35 M53.45 45.6 Q51.55 48.45 51.15 52.85"/><path fill="none" stroke="#000000" stroke-width="0.5" stroke-opacity="0.4" d="M91.3 10.1 L96.0 9.45 97.35 11.2 94.85 14.2 95.75 16.1 94.65 17.9 95.05 28.6 Q97.8 30.95 97.8 34.2 97.8 37.0 95.75 39.1 L95.75 45.45 98.0 48.45 98.0 50.6 102.85 54.95 103.55 56.0 Q109.4 58.45 111.5 63.1 113.5 68.65 108.4 67.3 103.5 66.0 100.55 62.35 L101.1 65.2 100.4 75.4 99.1 79.45 96.55 81.6 94.3 81.3 94.15 82.6 93.0 83.45 90.7 82.95 90.4 84.35 87.25 87.7 85.35 92.75 83.75 93.25 83.75 96.6 81.25 99.7 79.0 99.7 Q78.7 98.1 77.5 98.35 76.2 98.45 76.15 100.15 L56.9 100.8 54.15 100.7 54.15 100.6 54.05 100.7 Q50.15 103.45 44.7 103.45 39.15 103.45 35.25 100.6 33.55 99.4 32.6 97.95 31.35 96.05 31.35 93.8 31.35 90.85 33.45 88.55 32.9 85.65 33.9 80.85 33.05 78.5 32.75 75.7 33.3 74.4 36.5 71.85 L39.1 69.35 Q40.7 68.7 45.0 68.4 49.0 62.3 53.9 57.55 L55.95 52.35 55.5 48.7 Q53.25 56.6 51.0 57.35 48.6 57.15 48.65 54.85 48.1 48.95 51.85 44.0 51.1 43.0 52.7 40.15 52.3 38.05 53.25 33.45 51.6 25.0 47.9 19.35 47.15 18.55 48.7 14.95 L44.5 9.6 44.05 9.25 Q42.35 7.6 44.5 5.35 49.0 4.95 53.55 5.4 L59.35 6.25 Q59.6 3.95 60.85 2.2 62.5 0.0 64.8 0.0 66.75 0.0 68.2 1.6 L68.7 2.2 Q70.35 4.4 70.35 7.5 L70.35 7.9 73.85 8.45 75.05 10.0 81.0 8.95 91.3 10.1 M104.3 58.65 Q110.7 63.35 107.4 64.2 104.65 63.0 102.15 60.25 L104.0 60.2 104.3 58.65 M64.9 3.75 Q65.95 3.75 66.7 4.75 67.45 5.8 67.45 7.25 L67.45 7.45 62.4 6.65 Q62.5 5.6 63.05 4.75 63.85 3.75 64.9 3.75 M53.45 45.6 Q51.55 48.45 51.15 52.85 53.0 51.2 53.45 45.6"/></g><g id="c15"><g><use transform="matrix(0.781372070312,0.0,0.0,0.254943847656,5.0,65.95)" filter="url(#filter11)" xlink:href="#c11"/></g><g><use transform="matrix(1.0,0.0,0.0,1.0,0.0,2.0)" filter="url(#filter12)" xlink:href="#c13"/></g><g><use transform="matrix(1.0,0.0,0.0,1.0,0.0,0.0)" xlink:href="#c14"/></g></g><filter id="filter11"><feColorMatrix in="SourceGraphic" type="matrix" values="1.0 0.0 0.0 0.0 0.0 0.0 1.0 0.0 0.0 0.0 0.0 0.0 1.0 0.0 0.0 0.0 0.0 0.0 0.3984375 0.0" result="cxform"/><feComposite operator="in" in2="SourceGraphic" result="color-xform"/></filter><filter id="filter12"><feColorMatrix in="SourceGraphic" type="matrix" values="0.71875 0.0 0.0 0.0 0.0 0.0 0.71875 0.0 0.0 0.0 0.0 0.0 0.71875 0.0 0.0 0.0 0.0 0.0 1.0 0.0" result="cxform"/><feComposite operator="in" in2="SourceGraphic" result="color-xform"/></filter><g id="c16"><g><use transform="matrix(0.150497436523,-0.0668640136719,0.0661926269531,0.148986816406,-3.75,3.25)" xlink:href="#c15"/></g></g><g id="c17"><g><use transform="matrix(1.0,0.0,0.0,1.0,6.3,53.35)" xlink:href="#c9"/></g><g><use transform="matrix(1.0,0.0,0.0,1.0,19.85,68.2)" xlink:href="#c16"/></g><g><use transform="matrix(0.141098022461,-0.0378112792969,0.111373901367,0.225646972656,27.2,74.05)" filter="url(#filter17)" xlink:href="#c6"/></g></g><filter id="filter17"><feColorMatrix in="SourceGraphic" type="matrix" values="1.0 0.0 0.0 0.0 0.0 0.0 1.0 0.0 0.0 0.0 0.0 0.0 1.0 0.0 0.0 0.0 0.0 0.0 0.23046875 0.0" result="cxform"/><feComposite operator="in" in2="SourceGraphic" result="color-xform"/></filter></defs><g><g><use transform="matrix(1.0,0.0,0.0,1.0,0.0,0.0)" xlink:href="#c1"/></g><g><use transform="matrix(1.15496826172,0.0,0.0,1.15496826172,-1.4,-57.4)" xlink:href="#c17"/></g></g></svg>