<?xml version='1.0' encoding='UTF-8'?>
<svg xmlns:xlink="http://www.w3.org/1999/xlink" xmlns="http://www.w3.org/2000/svg" version="1.1" width="60px" height="60px" viewBox="0.0 0.0 60.0 60.0"><defs><g id="c1"><path fill="#000000" fill-opacity="0.00392156862745" d="M0.0 0.0 L60.0 0.0 60.0 60.0 0.0 60.0 0.0 0.0"/></g><g id="c2"><path fill="none" stroke="#000000" stroke-width="1.0" stroke-opacity="0.301960784314" d="M28.45 3.1 L41.35 31.7 Q42.95 35.15 40.2 36.7 39.5 37.3 38.3 37.65 L36.35 38.3 36.15 38.15 34.0 36.9 33.8 36.8 Q30.65 35.45 27.7 36.35 24.75 37.3 23.7 40.05 L23.6 40.25 Q23.25 41.25 23.25 42.3 L23.25 42.35 23.25 42.55 19.8 43.65 Q17.15 44.45 15.5 43.3 14.35 42.55 13.65 40.9 L0.7 12.25 Q-0.45 9.75 0.75 8.25 1.2 7.6 2.15 7.15 2.8 6.7 3.8 6.35 L6.45 5.5 8.5 6.75 8.7 6.85 Q11.9 8.2 14.85 7.25 17.8 6.35 18.85 3.6 L18.9 3.4 19.3 1.35 22.3 0.4 Q26.55 -1.0 28.45 3.1"/><path fill="#9d147b" stroke="none" d="M35.55 22.3 L28.25 6.1 27.75 4.95 Q26.05 1.25 21.6 2.85 20.8 5.65 18.85 7.6 17.0 9.45 14.2 9.8 11.45 9.95 9.0 8.8 L6.4 7.45 Q1.65 9.1 3.35 12.8 L8.25 23.65 15.0 38.6 15.2 39.0 Q16.8 42.25 20.45 41.1 L21.65 40.55 Q22.7 36.9 25.05 35.5 27.4 34.15 30.2 34.2 33.05 34.2 36.25 36.1 L37.2 35.7 Q41.1 34.5 39.35 30.75 L35.55 22.3 M19.3 1.35 L22.3 0.4 Q26.55 -1.0 28.45 3.1 L41.35 31.7 Q42.95 35.15 40.2 36.7 L38.9 37.25 36.15 38.15 34.0 36.9 33.8 36.8 Q30.65 35.45 27.7 36.35 24.75 37.3 23.7 40.05 L23.6 40.25 Q23.25 41.25 23.25 42.3 L23.2 42.3 20.4 43.2 19.1 43.5 17.3 43.4 Q15.3 42.9 14.2 40.5 L5.45 20.95 1.35 11.8 Q0.4 9.65 1.1 8.3 1.45 7.65 2.15 7.15 2.8 6.7 3.8 6.35 L6.45 5.5 8.5 6.75 8.7 6.85 Q11.9 8.2 14.85 7.25 17.8 6.35 18.85 3.6 L18.9 3.4 19.3 1.35"/><path fill="#c47fad" stroke="none" d="M28.25 6.1 L35.55 22.3 39.35 30.75 Q41.1 34.5 37.2 35.7 L36.25 36.1 Q33.05 34.2 30.2 34.2 27.4 34.15 25.05 35.5 22.7 36.9 21.65 40.55 L20.45 41.1 Q16.8 42.25 15.2 39.0 L15.0 38.6 8.25 23.65 3.35 12.8 Q1.65 9.1 6.4 7.45 L9.0 8.8 Q11.45 9.95 14.2 9.8 17.0 9.45 18.85 7.6 20.8 5.65 21.6 2.85 26.05 1.25 27.75 4.95 L28.25 6.1 M34.0 32.9 L33.7 32.1 Q33.45 30.9 34.1 30.1 34.75 29.3 35.95 29.35 L35.8 29.0 26.5 8.3 26.25 7.85 Q24.9 5.45 22.05 6.35 19.75 11.1 14.85 11.65 11.45 11.85 9.1 10.55 L9.55 11.6 Q9.8 12.8 9.15 13.6 8.4 14.45 7.1 14.4 L6.8 14.4 6.95 14.6 16.3 35.2 Q16.8 36.4 17.65 37.0 18.8 37.8 19.8 37.35 21.8 33.7 25.95 32.3 30.35 30.8 34.0 32.9"/><path fill="#fcf2cf" stroke="none" d="M22.05 6.35 Q24.9 5.45 26.25 7.85 L26.5 8.3 35.8 29.0 35.95 29.35 Q34.75 29.3 34.1 30.1 33.45 30.9 33.7 32.1 L34.0 32.9 Q30.35 30.8 25.95 32.3 21.8 33.7 19.8 37.35 18.8 37.8 17.65 37.0 16.8 36.4 16.3 35.2 L6.95 14.6 6.8 14.4 7.1 14.4 Q8.4 14.45 9.15 13.6 9.8 12.8 9.55 11.6 L9.1 10.55 Q11.45 11.85 14.85 11.65 19.75 11.1 22.05 6.35"/><path fill="#300525" stroke="none" d="M40.2 36.7 Q39.5 37.3 38.3 37.65 L36.35 38.3 36.15 38.15 38.9 37.25 40.2 36.7 M23.25 42.3 L23.25 42.35 23.2 42.3 23.25 42.3 M20.1 43.55 L19.8 43.65 Q17.15 44.45 15.5 43.3 L17.3 43.4 19.1 43.5 20.1 43.55 M4.6 20.9 L0.7 12.25 Q-0.45 9.75 0.75 8.25 L1.1 8.3 Q0.4 9.65 1.35 11.8 L5.45 20.95 4.6 20.9"/><path fill="#630a4c" stroke="none" d="M23.25 42.35 L23.25 42.55 20.1 43.55 19.1 43.5 20.4 43.2 23.2 42.3 23.25 42.35 M15.5 43.3 Q14.35 42.55 13.65 40.9 L4.6 20.9 5.45 20.95 14.2 40.5 Q15.3 42.9 17.3 43.4 L15.5 43.3 M0.75 8.25 Q1.2 7.6 2.15 7.15 1.45 7.65 1.1 8.3 L0.75 8.25"/><path fill="none" stroke="#bf9900" stroke-width="1.0" stroke-opacity="0.749019607843" d="M28.25 6.1 L35.55 22.3 M15.0 38.6 L8.25 23.65"/><path fill="none" stroke="#000000" stroke-width="0.5" stroke-opacity="0.301960784314" d="M19.3 1.35 L22.3 0.4 Q26.55 -1.0 28.45 3.1 L41.35 31.7 Q42.95 35.15 40.2 36.7 39.5 37.3 38.3 37.65 L36.35 38.3 M23.25 42.55 L20.1 43.55 19.8 43.65 Q17.15 44.45 15.5 43.3 14.35 42.55 13.65 40.9 L4.6 20.9 0.7 12.25 Q-0.45 9.75 0.75 8.25 1.2 7.6 2.15 7.15 2.8 6.7 3.8 6.35 L6.45 5.5 M1.1 8.3 Q1.45 7.65 2.15 7.15 M5.45 20.95 L1.35 11.8 Q0.4 9.65 1.1 8.3 M17.3 43.4 Q15.3 42.9 14.2 40.5 L5.45 20.95 M19.1 43.5 L17.3 43.4 M23.2 42.3 L20.4 43.2 19.1 43.5 M23.25 42.3 L23.2 42.3 M40.2 36.7 L38.9 37.25 36.15 38.15"/><path fill="none" stroke="#ffcc00" stroke-width="1.0" stroke-opacity="0.749019607843" d="M35.55 22.3 L39.35 30.75 Q41.1 34.5 37.2 35.7 L36.25 36.1 M21.65 40.55 L20.45 41.1 Q16.8 42.25 15.2 39.0 L15.0 38.6 M8.25 23.65 L3.35 12.8 Q1.65 9.1 6.4 7.45 M21.6 2.85 Q26.05 1.25 27.75 4.95 L28.25 6.1"/><path fill="none" stroke="#f0b92b" stroke-width="0.5" d="M22.05 6.35 Q24.9 5.45 26.25 7.85 L26.5 8.3 35.8 29.0 35.95 29.35 Q34.75 29.3 34.1 30.1 33.45 30.9 33.7 32.1 L34.0 32.9 M19.8 37.35 Q18.8 37.8 17.65 37.0 16.8 36.4 16.3 35.2 L6.95 14.6 6.8 14.4 7.1 14.4 Q8.4 14.45 9.15 13.6 9.8 12.8 9.55 11.6 L9.1 10.55"/><path fill="none" stroke="#ffaa00" stroke-width="1.0" stroke-opacity="0.749019607843" d="M36.25 36.1 Q33.05 34.2 30.2 34.2 27.4 34.15 25.05 35.5 22.7 36.9 21.65 40.55 M6.4 7.45 L9.0 8.8 Q11.45 9.95 14.2 9.8 17.0 9.45 18.85 7.6 20.8 5.65 21.6 2.85"/><path fill="none" stroke="#ffaa00" stroke-width="0.5" stroke-opacity="0.749019607843" d="M34.0 32.9 Q30.35 30.8 25.95 32.3 21.8 33.7 19.8 37.35 M9.1 10.55 Q11.45 11.85 14.85 11.65 19.75 11.1 22.05 6.35"/></g><g id="c3"><path fill="#7fdbfe" stroke="none" d="M10.75 4.9 Q10.75 4.6 10.9 4.35 11.25 3.45 11.95 2.75 13.3 1.5 14.35 2.1 15.4 2.7 14.95 4.45 14.7 5.4 14.1 6.15 L13.75 6.5 Q13.1 7.15 12.35 7.35 L11.4 7.2 Q10.95 6.9 10.75 6.4 10.5 5.75 10.75 4.9 M9.3 1.7 Q9.55 2.65 9.4 3.6 L9.3 4.15 8.5 5.5 7.6 5.9 7.5 5.9 Q7.0 5.85 6.6 5.5 6.05 5.0 5.8 4.15 L5.7 3.6 Q5.55 2.65 5.8 1.7 6.25 0.0 7.5 0.0 L7.6 0.0 Q8.85 0.0 9.3 1.7 M0.15 4.45 Q-0.3 2.7 0.75 2.1 1.8 1.5 3.15 2.75 3.85 3.45 4.2 4.35 L4.35 4.9 Q4.6 5.75 4.35 6.4 L3.7 7.2 2.75 7.35 Q2.0 7.15 1.35 6.5 L1.0 6.15 Q0.4 5.4 0.15 4.45 M7.55 7.0 Q8.75 6.9 9.9 7.6 11.45 8.5 11.95 10.25 12.35 12.0 11.5 12.95 10.7 13.9 9.65 13.7 8.55 13.5 7.55 12.6 6.55 13.5 5.5 13.7 4.45 13.9 3.65 12.95 2.75 12.0 3.2 10.25 3.7 8.5 5.25 7.6 6.4 6.9 7.55 7.0"/></g><g id="c4"><g><use transform="matrix(1.0,0.0,0.0,1.0,0.0,0.0)" xlink:href="#c3"/></g></g><radialGradient gradientUnits="userSpaceOnUse" r="819.2" cx="0" cy="0" spreadMethod="pad" gradientTransform="matrix(0.0914459228516,0.0,0.0,0.0914459228516,0.6,3.4)" id="gradient1"><stop offset="0.0" stop-color="#ffffff"/><stop offset="1.0" stop-color="#ffffff" stop-opacity="0.0"/></radialGradient><g id="c5"><path stroke="none" fill="url(#gradient1)" d="M36.65 -54.65 Q60.05 -42.0 69.75 -17.95 80.55 8.9 68.0 34.1 55.45 59.35 26.8 68.2 -1.8 77.05 -29.7 64.3 -57.6 51.6 -68.45 24.75 -79.3 -2.05 -66.75 -27.25 L-66.7 -27.3 Q-54.1 -52.5 -25.5 -61.4 3.1 -70.2 31.0 -57.5 L36.65 -54.65"/></g><g id="c6"><g><use transform="matrix(1.0,0.0,0.0,1.0,0.0,0.0)" xlink:href="#c5"/></g></g><radialGradient gradientUnits="userSpaceOnUse" r="819.2" cx="0" cy="0" spreadMethod="pad" gradientTransform="matrix(0.209197998047,0.0,0.0,0.177108764648,67.15,107.2)" id="gradient2"><stop offset="0.356862745098" stop-color="#ffffff"/><stop offset="0.670588235294" stop-opacity="0.0"/></radialGradient><g id="c7"><path fill="none" stroke-linejoin="round" stroke-linecap="round" stroke="url(#gradient2)" stroke-width="0.5" d="M136.55 165.8 L68.6 106.0 68.4 106.0 118.25 201.5 M68.3 105.8 L68.35 105.8 68.3 105.8 68.3 105.85 68.4 106.0 68.3 106.0 86.55 211.5 M68.3 105.8 L68.3 105.85 68.3 106.0 68.15 105.95 18.25 151.55 M68.3 105.85 L68.25 105.85 68.3 106.0 50.0 193.2 M68.25 105.85 L68.15 105.95 0.05 97.7 M68.3 105.85 L68.25 105.8 68.25 105.85 M68.25 105.8 L68.2 105.7 0.0 45.7 M68.3 105.8 L68.25 105.75 68.25 105.8 M68.25 105.75 L68.2 105.7 18.25 10.05 M68.6 106.0 L68.35 105.8 118.25 60.15 M86.6 18.35 L68.3 105.8 M136.6 114.25 L68.6 106.0 M68.25 105.75 L49.95 0.05"/></g><g id="c8"><g><use transform="matrix(1.0,0.0,0.0,1.0,0.0,0.0)" xlink:href="#c7"/></g></g><g id="c9"><g><use transform="matrix(1.0,0.0,0.0,1.0,0.0,0.0)" xlink:href="#c2"/></g><g><use transform="matrix(0.238861083984,-0.0867004394531,0.10026550293,0.233917236328,34.25,31.15)" xlink:href="#c4"/></g><g><use transform="matrix(0.238861083984,-0.0867004394531,0.10026550293,0.233917236328,4.25,10.3)" xlink:href="#c4"/></g><g><use transform="matrix(0.141098022461,-0.0378112792969,0.111373901367,0.225646972656,20.25,20.65)" filter="url(#filter7)" xlink:href="#c6"/></g><g><use transform="matrix(-0.155029296875,0.0513153076172,0.0841827392578,0.147033691406,22.6,3.15)" filter="url(#filter8)" xlink:href="#c8"/></g></g><filter id="filter7"><feColorMatrix in="SourceGraphic" type="matrix" values="0.0 0.0 0.0 0.0 0.796875 0.0 0.0 0.0 0.0 0.59765625 0.0 0.0 0.0 0.0 0.19921875 0.0 0.0 0.0 1.0 0.0" result="cxform"/><feComposite operator="in" in2="SourceGraphic" result="color-xform"/></filter><filter id="filter8"><feColorMatrix in="SourceGraphic" type="matrix" values="0.0 0.0 0.0 0.0 0.99609375 0.0 0.0 0.0 0.0 0.99609375 0.0 0.0 0.0 0.0 0.99609375 0.0 0.0 0.0 1.0 0.0" result="cxform"/><feComposite operator="in" in2="SourceGraphic" result="color-xform"/></filter><g id="c10"><path fill="#ffffff" stroke="none" d="M11.3 6.5 Q11.25 6.0 10.85 5.7 L10.75 5.65 10.0 5.45 Q9.65 5.55 8.8 6.35 L8.75 6.3 8.2 6.0 5.7 4.7 3.15 3.2 2.5 2.9 1.75 2.3 1.65 2.2 1.6 1.4 Q1.55 0.75 1.15 0.5 L0.55 0.25 0.35 0.3 0.25 0.35 -0.7 1.2 -0.55 0.55 Q-0.25 0.15 0.3 0.0 L0.9 -0.05 Q1.55 0.25 1.8 0.8 L2.05 1.6 2.0 2.1 5.6 4.5 8.85 5.95 8.85 5.85 10.05 4.9 Q10.6 4.95 11.05 5.35 L11.3 5.7 11.3 6.5 M-0.15 2.15 L-1.2 1.9 -1.3 1.95 -1.65 2.05 -1.85 2.2 -2.1 2.35 -1.7 1.85 -0.95 1.5 -0.75 1.55 -0.3 1.65 -0.15 1.8 -0.15 2.15"/><path fill="#ccb7a2" stroke="none" d="M10.75 5.65 L10.85 5.7 Q11.25 6.0 11.3 6.5 L11.3 6.6 11.3 6.7 11.3 6.8 11.1 7.75 10.35 8.55 9.75 8.45 9.65 8.4 9.55 8.25 10.1 8.15 10.8 7.45 Q11.15 6.8 10.75 5.65 M-0.7 1.2 L0.25 0.35 -0.25 1.05 -0.25 1.65 -0.3 1.65 -0.75 1.55 -0.7 1.4 -0.7 1.2 M-0.15 1.7 L0.2 1.7 0.25 2.3 Q0.85 2.8 1.75 2.6 L1.2 2.85 Q0.5 3.1 0.0 2.65 L0.0 2.5 -0.15 2.3 -0.15 2.15 -0.15 1.8 -0.15 1.75 -0.15 1.7 M-1.3 1.95 L-1.6 2.35 -1.75 2.6 -1.85 3.4 -1.6 4.1 Q-1.3 4.4 -0.8 4.5 L0.0 4.15 0.5 3.4 0.8 3.85 1.0 3.7 1.65 4.05 1.7 4.2 1.9 4.3 2.1 4.25 2.15 4.4 2.45 4.55 2.65 4.4 2.7 4.7 3.0 4.85 3.2 4.55 3.2 4.6 3.25 4.95 3.65 5.15 3.45 4.8 Q5.0 5.8 6.65 6.6 L6.0 6.45 7.25 7.15 Q7.9 7.35 8.1 7.8 L8.15 8.15 7.95 8.95 Q7.8 9.3 8.0 9.6 L8.7 9.9 9.2 9.5 9.45 8.75 9.6 9.35 9.1 10.05 8.5 10.2 8.05 10.0 7.6 9.3 7.7 8.35 7.6 7.55 7.5 8.0 1.4 4.2 0.35 4.1 -0.5 4.7 -1.3 4.75 -1.85 4.35 -2.1 3.65 -2.1 2.9 -1.65 2.05 -1.3 1.95 M8.7 6.8 L8.05 6.65 4.35 4.5 8.7 6.8 M-0.9 2.4 L-0.9 2.45 -1.0 2.75 -0.9 2.8 -0.8 2.85 -0.85 2.85 -1.0 2.95 -0.75 3.05 -0.95 3.05 -1.0 3.1 -1.0 3.2 -1.0 3.3 -0.8 3.25 -0.85 3.4 -0.85 3.5 -0.8 3.45 -0.6 3.4 -0.55 3.5 -0.55 3.6 -0.2 3.45 -0.6 3.8 -1.25 3.4 -1.2 3.35 -1.05 2.65 -1.0 2.45 -0.9 2.4"/><path fill="#f3ebda" stroke="none" d="M11.3 6.5 L11.3 5.7 11.6 6.6 11.3 8.05 Q10.95 8.55 10.25 8.8 L9.7 8.85 9.65 9.65 9.4 10.05 9.3 10.2 8.5 10.5 Q8.05 10.45 7.9 10.25 L7.55 9.85 7.35 9.4 7.45 8.25 7.5 8.0 7.45 8.25 1.35 4.55 0.45 4.3 -0.35 4.9 -1.1 5.05 -1.85 4.65 -2.3 4.15 -2.35 3.15 -2.35 2.85 -2.1 2.35 -1.85 2.2 -1.65 2.05 -2.1 2.9 -2.1 3.65 -1.85 4.35 -1.3 4.75 -0.5 4.7 0.35 4.1 1.4 4.2 7.5 8.0 7.6 7.55 7.7 8.35 7.6 9.3 8.05 10.0 8.5 10.2 9.1 10.05 9.6 9.35 9.45 8.75 9.2 9.5 8.7 9.9 8.0 9.6 Q7.8 9.3 7.95 8.95 L8.15 8.15 8.1 7.8 Q7.9 7.35 7.25 7.15 L6.0 6.45 6.65 6.6 Q5.0 5.8 3.45 4.8 L3.65 5.15 3.25 4.95 3.2 4.6 3.2 4.55 3.0 4.85 2.7 4.7 2.65 4.4 2.45 4.55 2.15 4.4 2.1 4.25 1.9 4.3 1.7 4.2 1.65 4.05 1.0 3.7 0.8 3.85 0.5 3.4 0.0 4.15 -0.8 4.5 Q-1.3 4.4 -1.6 4.1 L-1.85 3.4 -1.75 2.6 -1.6 2.35 -1.3 1.95 -1.2 1.9 -0.15 2.15 -0.15 2.3 0.0 2.5 0.0 2.65 Q0.5 3.1 1.2 2.85 L1.75 2.6 Q0.85 2.8 0.25 2.3 L0.2 1.7 -0.15 1.7 -0.25 1.65 -0.25 1.05 0.25 0.35 0.35 0.3 0.55 0.25 1.15 0.5 Q1.55 0.75 1.6 1.4 L1.65 2.2 1.75 2.3 2.5 2.9 3.15 3.2 5.7 4.7 8.2 6.0 8.75 6.3 8.8 6.35 Q9.65 5.55 10.0 5.45 L10.75 5.65 Q11.15 6.8 10.8 7.45 L10.1 8.15 9.55 8.25 9.65 8.4 9.75 8.45 10.35 8.55 11.1 7.75 11.3 6.8 11.3 6.7 11.3 6.6 11.3 6.5 M9.75 8.45 L9.8 8.5 9.7 8.85 9.8 8.5 9.75 8.45 M8.7 6.8 L4.35 4.5 8.05 6.65 8.7 6.8 M-0.15 1.8 L-0.3 1.65 -0.25 1.65 -0.15 1.75 -0.15 1.8 M-0.85 2.35 L-0.85 2.25 -0.85 2.35 M-0.9 2.4 L-1.0 2.45 -1.05 2.65 -1.2 3.35 -1.25 3.4 -0.6 3.8 -0.2 3.45 -0.55 3.6 -0.55 3.5 -0.6 3.4 -0.8 3.45 -0.85 3.5 -0.85 3.4 -0.8 3.25 -1.0 3.3 -1.0 3.2 -1.0 3.1 -0.95 3.05 -0.75 3.05 -1.0 2.95 -0.85 2.85 -0.8 2.85 -0.9 2.8 -1.0 2.75 -0.9 2.45 -0.9 2.4"/><path fill="#e2c9a5" stroke="none" d="M-0.85 2.35 L-0.85 2.25 -0.85 2.35"/><path fill="none" stroke="#000000" stroke-width="0.5" stroke-opacity="0.301960784314" d="M11.3 5.7 L11.05 5.35 Q10.6 4.95 10.05 4.9 L8.85 5.85 8.85 5.95 5.6 4.5 2.0 2.1 2.05 1.6 1.8 0.8 Q1.55 0.25 0.9 -0.05 L0.3 0.0 Q-0.25 0.15 -0.55 0.55 L-0.7 1.2 M9.55 8.25 L9.65 8.4 9.75 8.45 M9.7 8.85 L10.25 8.8 Q10.95 8.55 11.3 8.05 L11.6 6.6 11.3 5.7 M7.5 8.0 L7.45 8.25 7.35 9.4 7.55 9.85 7.9 10.25 Q8.05 10.45 8.5 10.5 L9.3 10.2 9.4 10.05 9.65 9.65 9.7 8.85 9.8 8.5 9.75 8.45 M7.45 8.25 L1.35 4.55 0.45 4.3 -0.35 4.9 -1.1 5.05 -1.85 4.65 -2.3 4.15 -2.35 3.15 -2.35 2.85 -2.1 2.35 -1.7 1.85 -0.95 1.5 -0.75 1.55 -0.7 1.4 -0.7 1.2 M-0.25 1.65 L-0.3 1.65 -0.75 1.55"/></g><radialGradient gradientUnits="userSpaceOnUse" r="819.2" cx="0" cy="0" spreadMethod="pad" gradientTransform="matrix(0.0411834716797,0.0,0.0,0.0411834716797,0.6,3.4)" id="gradient3"><stop offset="0.0" stop-color="#ffffff"/><stop offset="1.0" stop-color="#ffffff" stop-opacity="0.0"/></radialGradient><g id="c11"><path stroke="none" fill="url(#gradient3)" d="M31.75 -6.25 Q36.65 5.85 31.0 17.2 25.35 28.6 12.4 32.55 -0.45 36.55 -13.05 30.8 -25.6 25.1 -30.5 13.0 -35.35 0.95 -29.7 -10.4 L-29.7 -10.45 Q-24.0 -21.8 -11.15 -25.8 1.75 -29.75 14.3 -24.05 L16.85 -22.75 Q27.4 -17.05 31.75 -6.25"/></g><g id="c12"><g><use transform="matrix(1.0,0.0,0.0,1.0,0.0,0.0)" xlink:href="#c11"/></g></g><g id="c13"><path fill="#ebefba" stroke="none" d="M4.25 8.5 Q2.5 8.5 1.25 7.25 0.0 6.0 0.0 4.25 0.0 2.5 1.25 1.25 2.5 0.0 4.25 0.0 6.0 0.0 7.25 1.25 8.5 2.5 8.5 4.25 8.5 6.0 7.25 7.25 6.0 8.5 4.25 8.5"/></g><g id="c14"><g><use transform="matrix(1.0,0.0,0.0,1.0,0.0,0.0)" xlink:href="#c13"/></g></g><g id="c15"><path fill="#ffff8a" stroke="none" d="M21.75 0.25 L21.95 1.4 14.6 8.9 8.1 15.4 Q5.0 18.4 0.0 21.25 L1.4 19.85 Q6.15 16.1 9.25 12.65 L15.25 5.6 Q18.2 2.1 20.85 0.0 L21.75 0.25"/></g><g id="c16"><g><use transform="matrix(1.0,0.0,0.0,1.0,0.0,0.0)" xlink:href="#c15"/></g></g><g id="c17"><path fill="#855525" stroke="none" d="M59.25 11.75 Q60.75 13.95 61.35 16.5 62.05 19.15 62.1 21.85 60.8 27.65 56.3 28.25 57.05 36.2 51.7 41.95 49.1 44.1 45.7 44.1 46.95 41.45 47.05 35.95 53.7 39.0 53.65 27.55 57.55 23.5 58.7 16.85 59.55 15.1 59.25 11.75 M59.55 29.9 Q60.15 30.6 60.15 31.2 L59.55 32.3 Q58.9 33.15 58.45 33.15 58.0 33.15 57.95 32.3 57.95 32.1 58.7 30.25 59.05 29.3 59.55 29.9 M58.25 35.2 L57.8 35.85 Q57.4 35.85 57.4 35.2 57.4 34.5 58.0 34.0 58.55 33.4 58.55 34.15 L58.25 35.2 M47.4 46.9 L47.05 47.15 46.75 47.05 46.65 46.7 Q46.65 46.4 47.15 46.2 47.6 45.9 47.6 46.55 L47.4 46.9 M46.65 48.25 L46.15 49.35 Q45.5 50.1 44.9 50.1 L44.6 50.05 44.55 49.7 Q44.55 48.75 45.65 47.75 46.65 46.7 46.65 48.25 M19.35 47.3 Q21.4 49.35 23.45 50.8 L25.2 47.85 Q27.65 52.15 30.55 54.0 36.0 55.1 40.5 51.2 43.1 47.15 43.3 41.95 L45.7 44.1 Q43.5 48.25 40.5 51.2 38.85 53.45 36.4 55.3 33.25 55.8 30.55 54.0 27.15 53.35 23.45 50.8 L20.95 53.25 Q22.85 56.45 20.7 58.5 16.7 60.55 16.1 56.05 11.9 56.15 8.6 54.3 10.95 53.75 13.45 50.85 17.2 50.05 19.35 47.3 M35.7 51.9 Q34.65 51.9 34.7 50.8 34.7 49.7 36.5 49.1 38.25 48.6 38.25 49.7 38.25 51.9 35.7 51.9 M35.0 52.3 L35.1 52.75 Q35.1 53.35 34.55 53.35 L34.2 53.25 34.2 52.9 34.3 52.4 35.0 52.3 M32.9 56.4 L32.6 57.0 31.7 57.3 Q31.1 57.3 31.1 56.55 31.1 56.05 32.1 55.8 32.9 55.7 32.9 56.4 M24.65 54.5 Q24.65 55.8 23.8 55.8 23.0 55.8 23.0 54.7 23.0 53.45 23.8 53.45 24.65 53.35 24.65 54.5 M23.5 58.0 Q23.0 58.0 23.0 57.5 23.0 57.1 23.5 57.1 23.95 57.0 23.95 57.5 23.95 58.0 23.5 58.0 M13.3 60.3 Q12.3 60.1 11.65 58.95 L11.65 58.85 12.15 57.75 12.3 57.5 13.55 57.3 Q14.25 57.3 14.85 57.75 15.4 58.25 15.4 58.95 15.4 59.6 14.85 59.95 14.25 60.55 13.3 60.3"/><path fill="#b57931" stroke="none" d="M0.45 47.55 L0.45 47.4 0.15 44.5 Q-0.2 41.2 0.25 37.5 0.7 32.7 2.15 27.55 L2.25 27.65 1.9 29.3 Q0.4 37.2 3.2 36.35 2.55 37.5 2.15 38.75 L3.3 39.6 Q1.45 42.9 1.5 45.95 L3.05 48.25 Q4.75 49.85 6.7 50.55 9.75 52.4 13.45 50.85 15.3 48.9 16.7 44.1 18.2 46.7 19.35 47.3 L22.15 43.8 Q38.65 48.05 42.85 28.25 50.15 30.95 53.65 27.55 L55.9 18.9 Q57.8 18.55 58.7 16.85 57.55 23.5 53.65 27.55 53.7 39.0 47.05 35.95 46.95 41.45 45.7 44.1 L43.3 41.95 Q43.1 47.15 40.5 51.2 36.0 55.1 30.55 54.0 27.65 52.15 25.2 47.85 L23.45 50.8 Q21.4 49.35 19.35 47.3 17.2 50.05 13.45 50.85 10.95 53.75 8.6 54.3 4.75 55.0 1.5 49.5 L0.45 47.55 M54.1 3.7 Q57.3 6.05 58.0 10.25 56.5 14.25 51.95 15.1 54.9 11.75 55.25 8.65 55.45 6.9 54.75 5.25 L54.1 3.7 M40.55 5.55 L40.6 5.55 40.55 5.6 40.3 5.8 40.25 5.7 40.55 5.55 M35.0 52.3 L34.3 52.4 34.2 52.9 34.2 53.25 34.55 53.35 Q35.1 53.35 35.1 52.75 L35.0 52.3 M35.7 51.9 Q38.25 51.9 38.25 49.7 38.25 48.6 36.5 49.1 34.7 49.7 34.7 50.8 34.65 51.9 35.7 51.9"/><path fill="#fad79f" stroke="none" d="M5.25 19.55 Q8.65 12.7 14.1 10.15 L16.6 8.85 17.05 8.8 Q17.4 8.45 17.75 8.45 L18.3 8.25 23.7 6.15 25.4 5.65 27.75 4.8 28.15 4.7 36.05 2.6 Q41.3 -1.05 49.1 1.15 51.95 2.0 53.9 3.6 L54.05 3.6 54.1 3.7 54.75 5.25 Q52.75 1.4 42.55 2.85 37.7 3.8 32.35 7.85 L35.0 4.2 28.1 6.75 28.1 6.6 20.05 9.05 20.75 8.9 Q18.0 10.0 15.55 11.05 19.2 9.7 28.75 14.1 15.2 10.95 12.95 12.3 7.25 16.2 5.25 19.55 M54.1 3.7 L53.9 3.6 54.1 3.7 M50.7 5.75 Q50.3 6.15 49.45 6.15 48.45 6.15 48.15 5.65 L48.1 5.25 Q48.1 4.2 49.6 3.95 51.1 3.9 51.1 4.9 51.1 5.4 50.7 5.75 M51.75 7.1 Q51.75 7.6 51.05 7.6 50.4 7.6 50.4 7.2 50.4 6.6 51.7 6.7 L51.75 7.1 M30.7 8.95 Q30.7 9.7 30.15 9.7 29.6 9.7 29.6 8.95 L29.7 8.8 30.15 8.65 30.7 8.8 30.7 8.95 M12.85 16.25 Q11.6 16.25 11.6 15.1 11.6 13.95 12.85 13.8 14.1 13.7 14.1 14.9 L13.65 15.85 Q13.3 16.25 12.85 16.25 M14.7 16.25 Q15.1 16.1 15.35 16.5 L14.9 17.05 14.5 16.95 14.45 16.6 Q14.45 16.25 14.7 16.25"/><path fill="#d07e2f" stroke="none" d="M2.35 27.1 Q3.5 22.85 5.25 19.55 7.25 16.2 12.95 12.3 15.2 10.95 28.75 14.1 19.2 9.7 15.55 11.05 18.0 10.0 20.75 8.9 L20.05 9.05 28.1 6.6 28.1 6.75 35.0 4.2 32.35 7.85 Q37.7 3.8 42.55 2.85 52.75 1.4 54.75 5.25 55.45 6.9 55.25 8.65 54.9 11.75 51.95 15.1 56.5 14.25 58.0 10.25 58.8 10.9 59.25 11.75 59.55 15.1 58.7 16.85 57.8 18.55 55.9 18.9 L53.65 27.55 Q50.15 30.95 42.85 28.25 38.65 48.05 22.15 43.8 L19.35 47.3 Q18.2 46.7 16.7 44.1 15.3 48.9 13.45 50.85 9.75 52.4 6.7 50.55 4.75 49.85 3.05 48.25 L1.5 45.95 Q1.45 42.9 3.3 39.6 L2.15 38.75 Q2.55 37.5 3.2 36.35 0.4 37.2 1.9 29.3 L2.25 27.65 2.35 27.1 M51.75 7.1 L51.7 6.7 Q50.4 6.6 50.4 7.2 50.4 7.6 51.05 7.6 51.75 7.6 51.75 7.1 M50.7 5.75 Q51.1 5.4 51.1 4.9 51.1 3.9 49.6 3.95 48.1 4.2 48.1 5.25 L48.15 5.65 Q48.45 6.15 49.45 6.15 50.3 6.15 50.7 5.75 M41.55 5.05 L40.55 5.55 40.25 5.7 40.3 5.8 40.3 5.85 39.65 6.4 39.7 6.45 38.25 7.95 41.55 5.05 M47.2 19.85 L47.7 20.0 48.65 19.55 49.1 18.8 Q49.1 17.9 48.1 18.3 47.2 18.8 47.2 19.4 L47.2 19.85 M41.15 26.6 L41.75 25.25 Q41.75 23.8 39.8 24.65 37.8 25.35 37.8 26.6 L37.95 27.2 Q38.25 27.7 39.3 27.7 40.35 27.7 41.15 26.6 M30.7 8.95 L30.7 8.8 30.15 8.65 29.7 8.8 29.6 8.95 Q29.6 9.7 30.15 9.7 30.7 9.7 30.7 8.95 M26.7 23.8 Q25.85 23.55 25.85 24.3 26.25 25.6 26.8 25.6 27.55 25.6 27.55 24.85 27.55 24.0 26.7 23.8 M14.7 16.25 Q14.45 16.25 14.45 16.6 L14.5 16.95 14.9 17.05 15.35 16.5 Q15.1 16.1 14.7 16.25 M12.85 16.25 Q13.3 16.25 13.65 15.85 L14.1 14.9 Q14.1 13.7 12.85 13.8 11.6 13.95 11.6 15.1 11.6 16.25 12.85 16.25 M16.35 35.85 Q15.95 35.85 15.95 36.45 15.95 36.8 16.25 36.95 L16.7 36.35 Q16.7 35.85 16.35 35.85 M18.8 34.6 L18.75 34.6 18.8 34.65 18.8 34.6 M7.95 27.1 L8.15 27.1 8.15 27.0 7.95 27.0 Q7.95 26.1 7.25 26.1 6.5 26.1 6.5 26.95 6.5 27.8 7.4 27.8 L7.85 27.55 7.95 27.1 M9.25 29.75 Q9.25 29.4 8.4 29.4 L8.4 30.1 8.8 30.25 9.1 30.1 9.25 29.75 M6.7 50.55 L6.75 48.9 6.7 49.0 6.7 50.55 M23.9 28.25 L24.75 27.8 25.25 27.2 Q25.25 26.5 24.0 26.3 22.85 26.0 22.85 27.45 22.85 28.25 23.9 28.25 M26.25 28.55 L26.25 28.15 26.25 27.8 Q25.4 27.55 25.4 28.25 L25.45 28.55 25.85 28.65 26.25 28.55 M36.9 28.05 L36.85 27.65 Q36.05 27.1 36.15 28.05 L36.2 28.45 36.5 28.55 36.85 28.45 36.9 28.05 M16.4 39.85 Q16.35 40.7 17.45 40.7 L20.05 39.35 Q20.05 38.65 19.4 38.15 18.8 37.5 18.15 37.9 16.4 38.9 16.4 39.85 M6.7 36.8 L6.65 36.55 Q5.8 36.65 5.8 37.4 L5.8 37.8 6.1 37.9 6.5 37.5 6.7 36.8 M2.25 29.15 Q2.25 29.5 2.55 29.8 3.0 30.25 3.7 30.25 4.35 30.25 5.05 29.75 L5.65 28.8 Q5.65 27.45 3.95 27.7 2.25 28.05 2.25 29.15"/><path fill="#e59000" stroke="none" d="M2.15 27.55 L2.35 27.1 2.25 27.65 2.15 27.55 M40.55 5.55 L41.55 5.05 Q40.9 5.4 40.3 5.85 L40.55 5.6 40.6 5.55 40.55 5.55 M6.7 50.55 L6.7 49.0 6.75 48.9 6.7 50.55"/><path fill="#e4c46c" stroke="none" d="M47.2 19.85 L47.2 19.4 Q47.2 18.8 48.1 18.3 49.1 17.9 49.1 18.8 L48.65 19.55 47.7 20.0 47.2 19.85 M41.15 26.6 Q40.35 27.7 39.3 27.7 38.25 27.7 37.95 27.2 L37.8 26.6 Q37.8 25.35 39.8 24.65 41.75 23.8 41.75 25.25 L41.15 26.6 M26.7 23.8 Q27.55 24.0 27.55 24.85 27.55 25.6 26.8 25.6 26.25 25.6 25.85 24.3 25.85 23.55 26.7 23.8 M16.35 35.85 Q16.7 35.85 16.7 36.35 L16.25 36.95 Q15.95 36.8 15.95 36.45 15.95 35.85 16.35 35.85 M7.95 27.1 L7.85 27.55 7.4 27.8 Q6.5 27.8 6.5 26.95 6.5 26.1 7.25 26.1 7.95 26.1 7.95 27.0 L7.95 27.1 M9.25 29.75 L9.1 30.1 8.8 30.25 8.4 30.1 8.4 29.4 Q9.25 29.4 9.25 29.75 M2.25 29.15 Q2.25 28.05 3.95 27.7 5.65 27.45 5.65 28.8 L5.05 29.75 Q4.35 30.25 3.7 30.25 3.0 30.25 2.55 29.8 2.25 29.5 2.25 29.15 M6.7 36.8 L6.5 37.5 6.1 37.9 5.8 37.8 5.8 37.4 Q5.8 36.65 6.65 36.55 L6.7 36.8 M16.4 39.85 Q16.4 38.9 18.15 37.9 18.8 37.5 19.4 38.15 20.05 38.65 20.05 39.35 L17.45 40.7 Q16.35 40.7 16.4 39.85 M36.9 28.05 L36.85 28.45 36.5 28.55 36.2 28.45 36.15 28.05 Q36.05 27.1 36.85 27.65 L36.9 28.05 M26.25 28.55 L25.85 28.65 25.45 28.55 25.4 28.25 Q25.4 27.55 26.25 27.8 L26.25 28.15 26.25 28.55 M23.9 28.25 Q22.85 28.25 22.85 27.45 22.85 26.0 24.0 26.3 25.25 26.5 25.25 27.2 L24.75 27.8 23.9 28.25"/><path fill="#64401c" stroke="none" d="M62.1 21.85 Q62.5 30.45 57.05 39.0 50.15 50.45 37.55 57.1 25.0 63.6 14.4 61.55 3.7 59.7 1.1 50.35 L0.45 47.55 1.5 49.5 Q4.75 55.0 8.6 54.3 11.9 56.15 16.1 56.05 16.7 60.55 20.7 58.5 22.85 56.45 20.95 53.25 L23.45 50.8 Q27.15 53.35 30.55 54.0 33.25 55.8 36.4 55.3 38.85 53.45 40.5 51.2 43.5 48.25 45.7 44.1 49.1 44.1 51.7 41.95 57.05 36.2 56.3 28.25 60.8 27.65 62.1 21.85 M39.7 6.45 L39.65 6.4 40.3 5.85 39.7 6.45 M58.25 35.2 L58.55 34.15 Q58.55 33.4 58.0 34.0 57.4 34.5 57.4 35.2 57.4 35.85 57.8 35.85 L58.25 35.2 M59.55 29.9 Q59.05 29.3 58.7 30.25 57.95 32.1 57.95 32.3 58.0 33.15 58.45 33.15 58.9 33.15 59.55 32.3 L60.15 31.2 Q60.15 30.6 59.55 29.9 M46.65 48.25 Q46.65 46.7 45.65 47.75 44.55 48.75 44.55 49.7 L44.6 50.05 44.9 50.1 Q45.5 50.1 46.15 49.35 L46.65 48.25 M47.4 46.9 L47.6 46.55 Q47.6 45.9 47.15 46.2 46.65 46.4 46.65 46.7 L46.75 47.05 47.05 47.15 47.4 46.9 M13.3 60.3 Q14.25 60.55 14.85 59.95 15.4 59.6 15.4 58.95 15.4 58.25 14.85 57.75 14.25 57.3 13.55 57.3 L12.3 57.5 12.15 57.75 11.65 58.85 11.65 58.95 Q12.3 60.1 13.3 60.3 M23.5 58.0 Q23.95 58.0 23.95 57.5 23.95 57.0 23.5 57.1 23.0 57.1 23.0 57.5 23.0 58.0 23.5 58.0 M24.65 54.5 Q24.65 53.35 23.8 53.45 23.0 53.45 23.0 54.7 23.0 55.8 23.8 55.8 24.65 55.8 24.65 54.5 M32.9 56.4 Q32.9 55.7 32.1 55.8 31.1 56.05 31.1 56.55 31.1 57.3 31.7 57.3 L32.6 57.0 32.9 56.4"/><path fill="#ca7902" stroke="none" d="M40.3 5.85 Q40.9 5.4 41.55 5.05 L38.25 7.95 39.7 6.45 40.3 5.85 M18.8 34.6 L18.8 34.65 18.75 34.6 18.8 34.6"/><path fill="#a86001" stroke="none" d="M40.55 5.6 L40.3 5.85 40.3 5.8 40.55 5.6"/><path fill="#f4ab45" stroke="none" d="M7.95 27.0 L8.15 27.0 8.15 27.1 7.95 27.1 7.95 27.0"/><path fill="none" stroke="#000000" stroke-width="0.5" stroke-opacity="0.4" d="M59.25 11.75 Q60.75 13.95 61.35 16.5 62.05 19.15 62.1 21.85 62.5 30.45 57.05 39.0 50.15 50.45 37.55 57.1 25.0 63.6 14.4 61.55 3.7 59.7 1.1 50.35 L0.45 47.55 0.45 47.4 0.15 44.5 Q-0.2 41.2 0.25 37.5 0.7 32.7 2.15 27.55 L2.35 27.1 Q3.5 22.85 5.25 19.55 8.65 12.7 14.1 10.15 L16.6 8.85 17.05 8.8 Q17.4 8.45 17.75 8.45 L18.3 8.25 23.7 6.15 25.4 5.65 27.75 4.8 28.15 4.7 36.05 2.6 Q41.3 -1.05 49.1 1.15 51.95 2.0 53.9 3.6 L54.1 3.7 Q57.3 6.05 58.0 10.25 58.8 10.9 59.25 11.75"/></g><g id="c18"><path fill="#ffffdd" fill-opacity="0.670588235294" d="M1.7 -4.3 L2.75 -4.6 4.1 -4.75 Q4.2 -4.6 4.25 -4.75 8.65 -5.35 5.0 -2.65 L3.9 -1.8 3.75 -2.1 2.75 -3.4 1.7 -4.3 M0.5 -1.8 L0.5 -0.7 0.4 -0.5 -0.9 0.5 -1.65 0.85 -4.7 0.45 Q-6.95 -0.1 -4.9 -1.65 -4.95 -2.05 -3.55 -2.55 L-3.0 -2.7 -2.85 -2.75 -0.3 -2.65 0.5 -1.8 M7.85 -1.1 Q5.15 -3.1 8.35 -2.7 8.4 -2.55 8.5 -2.7 L9.5 -2.55 10.5 -2.2 10.9 -1.3 Q10.45 -0.1 9.65 -0.2 8.95 -0.2 7.85 -1.1 M6.35 1.25 L9.3 1.15 9.65 1.95 Q9.2 2.95 6.15 3.5 L3.55 3.85 Q-0.55 4.0 4.2 2.0 L5.0 1.7 6.35 1.25 M-2.2 2.35 L-1.2 2.45 Q-0.5 2.5 -0.15 2.85 L0.2 3.75 Q-0.25 4.9 -1.05 4.85 -1.75 4.85 -2.85 3.95 -5.55 1.95 -2.35 2.35 L-2.2 2.35 M-6.95 1.4 L-6.55 2.35 Q-7.0 3.5 -7.8 3.4 -8.5 3.4 -9.6 2.5 -12.3 0.5 -9.1 0.9 L-8.95 0.9 -7.95 1.05 Q-7.25 1.1 -6.95 1.4"/><path fill="#ffffdd" stroke="none" d="M1.7 -4.3 L2.75 -3.4 3.75 -2.1 3.9 -1.8 Q4.75 0.35 1.8 -1.1 L1.3 -1.35 Q0.95 -1.45 0.5 -1.8 L-0.3 -2.65 Q-0.6 -3.15 -0.35 -3.65 L0.3 -4.45 1.7 -4.3"/></g><g id="c19"><g><use transform="matrix(1.0,0.0,0.0,1.0,0.0,0.0)" xlink:href="#c18"/></g></g><g id="c20"><path fill="#c8a258" stroke="none" d="M53.35 16.45 Q51.7 12.05 46.25 11.2 L44.4 9.95 Q43.85 7.25 40.95 4.1 40.2 5.9 40.45 9.1 34.85 5.55 28.15 7.8 28.6 10.0 36.4 13.0 29.8 11.15 21.95 9.9 L20.5 9.9 27.05 7.0 Q34.25 3.0 39.8 6.25 38.95 3.0 39.65 1.15 45.6 3.65 46.45 8.55 L49.9 9.65 Q58.35 14.55 57.25 18.9 55.85 17.55 53.35 16.45 M41.85 24.4 Q43.6 28.0 45.7 29.7 46.8 28.25 46.8 25.6 47.1 18.6 44.85 13.7 46.7 13.55 48.45 14.7 51.7 20.5 49.9 29.25 48.2 34.45 45.9 36.6 43.15 30.0 41.85 24.4"/><path fill="#e1cd9c" stroke="none" d="M36.4 13.0 Q28.6 10.0 28.15 7.8 34.85 5.55 40.45 9.1 40.2 5.9 40.95 4.1 43.85 7.25 44.4 9.95 L46.25 11.2 Q51.7 12.05 53.35 16.45 51.3 15.55 48.45 14.7 46.7 13.55 44.85 13.7 47.1 18.6 46.8 25.6 46.8 28.25 45.7 29.7 43.6 28.0 41.85 24.4 40.6 19.2 40.75 14.9 L39.05 13.8 37.0 13.15 36.4 13.0"/><path fill="none" stroke="#963807" stroke-width="0.5" stroke-opacity="0.301960784314" d="M36.4 13.0 L37.0 13.15 39.05 13.8 40.75 14.9 Q40.6 19.2 41.85 24.4 M48.45 14.7 Q51.3 15.55 53.35 16.45 55.85 17.55 57.25 18.9 58.35 14.55 49.9 9.65 L46.45 8.55 Q45.6 3.65 39.65 1.15 38.95 3.0 39.8 6.25 M27.05 7.0 L20.5 9.9 21.95 9.9 Q29.8 11.15 36.4 13.0 M48.45 14.7 Q51.7 20.5 49.9 29.25 48.2 34.45 45.9 36.6 43.15 30.0 41.85 24.4"/><path fill="#e1cd9c" stroke="none" d="M19.75 27.05 Q11.95 24.05 11.5 21.85 18.2 19.6 23.8 23.15 23.55 19.95 24.3 18.15 27.2 21.3 27.75 24.0 L29.6 25.25 Q35.05 26.1 36.7 30.5 34.65 29.6 31.8 28.75 30.05 27.6 28.2 27.75 30.45 32.65 30.15 39.65 30.15 42.3 29.05 43.75 26.95 42.05 25.2 38.45 23.95 33.25 24.1 28.95 L22.4 27.85 20.35 27.2 19.75 27.05"/><path fill="#c8a258" stroke="none" d="M36.7 30.5 Q35.05 26.1 29.6 25.25 L27.75 24.0 Q27.2 21.3 24.3 18.15 23.55 19.95 23.8 23.15 18.2 19.6 11.5 21.85 11.95 24.05 19.75 27.05 13.15 25.2 2.35 27.35 L3.4 24.15 9.1 19.95 Q17.6 17.05 23.15 20.3 22.3 17.05 23.0 15.2 28.95 17.7 29.8 22.6 L33.25 23.7 Q41.7 28.6 40.6 32.95 39.2 31.6 36.7 30.5 M25.2 38.45 Q26.95 42.05 29.05 43.75 30.15 42.3 30.15 39.65 30.45 32.65 28.2 27.75 30.05 27.6 31.8 28.75 35.05 34.55 33.25 43.3 31.55 48.5 29.25 50.65 26.5 44.05 25.2 38.45"/><path fill="none" stroke="#963807" stroke-width="0.5" stroke-opacity="0.301960784314" d="M19.75 27.05 L20.35 27.2 22.4 27.85 24.1 28.95 Q23.95 33.25 25.2 38.45 M31.8 28.75 Q34.65 29.6 36.7 30.5 39.2 31.6 40.6 32.95 41.7 28.6 33.25 23.7 L29.8 22.6 Q28.95 17.7 23.0 15.2 22.3 17.05 23.15 20.3 M9.1 19.95 L3.4 24.15 2.35 27.35 Q13.15 25.2 19.75 27.05 M31.8 28.75 Q35.05 34.55 33.25 43.3 31.55 48.5 29.25 50.65 26.5 44.05 25.2 38.45"/></g><g id="c21"><g><use transform="matrix(1.0,0.0,0.0,1.0,0.0,0.0)" xlink:href="#c17"/></g><g><use transform="matrix(1.11999511719,0.0,0.0,1.11999511719,41.0,5.45)" filter="url(#filter14)" xlink:href="#c19"/></g><g><use transform="matrix(1.0,0.0,0.0,1.0,0.0,0.0)" xlink:href="#c20"/></g></g><filter id="filter14"><feColorMatrix in="SourceGraphic" type="matrix" values="1.0 0.0 0.0 0.0 0.0 0.0 1.0 0.0 0.0 0.0 0.0 0.0 1.0 0.0 0.0 0.0 0.0 0.0 0.328125 0.0" result="cxform"/><feComposite operator="in" in2="SourceGraphic" result="color-xform"/></filter><g id="c22"><g><use transform="matrix(1.0,0.0,0.0,1.0,0.0,0.0)" xlink:href="#c11"/></g></g><g id="c23"><g><use transform="matrix(1.0,0.0,0.0,1.0,0.0,0.0)" xlink:href="#c10"/></g><g><use transform="matrix(-0.0537872314453,0.014404296875,0.0132904052734,0.0496215820312,0.15,2.1)" filter="url(#filter18)" xlink:href="#c12"/></g><g><use transform="matrix(-0.0537872314453,0.014404296875,0.0132904052734,0.0496215820312,9.7,6.55)" filter="url(#filter19)" xlink:href="#c12"/></g><g><use transform="matrix(-0.100738525391,0.190643310547,0.14372253418,0.0829772949219,10.05,4.95)" filter="url(#filter20)" xlink:href="#c14"/></g><g><use transform="matrix(-0.0683288574219,0.129333496094,0.14372253418,0.0829772949219,0.55,-0.1)" filter="url(#filter21)" xlink:href="#c14"/></g><g><use transform="matrix(-0.257141113281,0.0688934326172,0.0688934326172,0.257141113281,6.95,0.85)" filter="url(#filter22)" xlink:href="#c16"/></g><g><use transform="matrix(-0.210006713867,0.0562591552734,0.0567626953125,0.209869384766,14.2,-0.35)" filter="url(#filter23)" xlink:href="#c21"/></g><g><use transform="matrix(0.17301940918,0.0463256835938,-0.00332641601562,0.129119873047,9.7,6.0)" filter="url(#filter24)" xlink:href="#c22"/></g><g><use transform="matrix(0.143524169922,0.0131378173828,-0.00257873535156,0.101181030273,9.3,5.05)" filter="url(#filter25)" xlink:href="#c22"/></g></g><filter id="filter18"><feColorMatrix in="SourceGraphic" type="matrix" values="1.0 0.0 0.0 0.0 0.0 0.0 1.0 0.0 0.0 0.0 0.0 0.0 1.0 0.0 0.0 0.0 0.0 0.0 0.1484375 0.0" result="cxform"/><feComposite operator="in" in2="SourceGraphic" result="color-xform"/></filter><filter id="filter19"><feColorMatrix in="SourceGraphic" type="matrix" values="1.0 0.0 0.0 0.0 0.0 0.0 1.0 0.0 0.0 0.0 0.0 0.0 1.0 0.0 0.0 0.0 0.0 0.0 0.1484375 0.0" result="cxform"/><feComposite operator="in" in2="SourceGraphic" result="color-xform"/></filter><filter id="filter20"><feColorMatrix in="SourceGraphic" type="matrix" values="1.0 0.0 0.0 0.0 0.0 0.0 1.0 0.0 0.0 0.0 0.0 0.0 1.0 0.0 0.0 0.0 0.0 0.0 0.1484375 0.0" result="cxform"/><feComposite operator="in" in2="SourceGraphic" result="color-xform"/></filter><filter id="filter21"><feColorMatrix in="SourceGraphic" type="matrix" values="1.0 0.0 0.0 0.0 0.0 0.0 1.0 0.0 0.0 0.0 0.0 0.0 1.0 0.0 0.0 0.0 0.0 0.0 0.1484375 0.0" result="cxform"/><feComposite operator="in" in2="SourceGraphic" result="color-xform"/></filter><filter id="filter22"><feColorMatrix in="SourceGraphic" type="matrix" values="1.0 0.0 0.0 0.0 0.0 0.0 1.0 0.0 0.0 0.0 0.0 0.0 1.0 0.0 0.0 0.0 0.0 0.0 0.1484375 0.0" result="cxform"/><feComposite operator="in" in2="SourceGraphic" result="color-xform"/></filter><filter id="filter23"><feColorMatrix in="SourceGraphic" type="matrix" values="0.8671875 0.0 0.0 0.0 0.09375 0.0 0.8671875 0.0 0.0 0.02734375 0.0 0.0 0.8671875 0.0 0.0 0.0 0.0 0.0 1.0 0.0" result="cxform"/><feComposite operator="in" in2="SourceGraphic" result="color-xform"/></filter><filter id="filter24"><feColorMatrix in="SourceGraphic" type="matrix" values="0.0 0.0 0.0 0.0 0.99609375 0.0 0.0 0.0 0.0 0.8671875 0.0 0.0 0.0 0.0 0.30859375 0.0 0.0 0.0 0.37890625 0.0" result="cxform"/><feComposite operator="in" in2="SourceGraphic" result="color-xform"/></filter><filter id="filter25"><feColorMatrix in="SourceGraphic" type="matrix" values="0.0 0.0 0.0 0.0 0.99609375 0.0 0.0 0.0 0.0 0.8671875 0.0 0.0 0.0 0.0 0.30859375 0.0 0.0 0.0 0.37890625 0.0" result="cxform"/><feComposite operator="in" in2="SourceGraphic" result="color-xform"/></filter><g id="c24"><g><use transform="matrix(1.0,0.0,0.0,1.0,6.3,53.35)" xlink:href="#c9"/></g><g><use transform="matrix(1.0,0.0,0.0,1.0,19.85,68.2)" xlink:href="#c23"/></g><g><use transform="matrix(0.141098022461,-0.0378112792969,0.111373901367,0.225646972656,27.2,74.05)" filter="url(#filter28)" xlink:href="#c6"/></g></g><filter id="filter28"><feColorMatrix in="SourceGraphic" type="matrix" values="1.0 0.0 0.0 0.0 0.0 0.0 1.0 0.0 0.0 0.0 0.0 0.0 1.0 0.0 0.0 0.0 0.0 0.0 0.23046875 0.0" result="cxform"/><feComposite operator="in" in2="SourceGraphic" result="color-xform"/></filter></defs><g><g><use transform="matrix(1.0,0.0,0.0,1.0,0.0,0.0)" xlink:href="#c1"/></g><g><use transform="matrix(1.15496826172,0.0,0.0,1.15496826172,-1.4,-57.4)" xlink:href="#c24"/></g></g></svg>