<?xml version='1.0' encoding='UTF-8'?>
<svg xmlns:xlink="http://www.w3.org/1999/xlink" xmlns="http://www.w3.org/2000/svg" version="1.1" width="60px" height="60px" viewBox="0.0 0.0 60.0 60.0"><defs><g id="c1"><path fill="#000000" fill-opacity="0.00392156862745" d="M0.0 0.0 L60.0 0.0 60.0 60.0 0.0 60.0 0.0 0.0"/></g><g id="c2"><path fill="none" stroke="#000000" stroke-width="1.0" stroke-opacity="0.301960784314" d="M28.45 3.1 L41.35 31.7 Q42.95 35.15 40.2 36.7 39.5 37.3 38.3 37.65 L36.35 38.3 36.15 38.15 34.0 36.9 33.8 36.8 Q30.65 35.45 27.7 36.35 24.75 37.3 23.7 40.05 L23.6 40.25 Q23.25 41.25 23.25 42.3 L23.25 42.35 23.25 42.55 19.8 43.65 Q17.15 44.45 15.5 43.3 14.35 42.55 13.65 40.9 L0.7 12.25 Q-0.45 9.75 0.75 8.25 1.2 7.6 2.15 7.15 2.8 6.7 3.8 6.35 L6.45 5.5 8.5 6.75 8.7 6.85 Q11.9 8.2 14.85 7.25 17.8 6.35 18.85 3.6 L18.9 3.4 19.3 1.35 22.3 0.4 Q26.55 -1.0 28.45 3.1"/><path fill="#9d147b" stroke="none" d="M35.55 22.3 L28.25 6.1 27.75 4.95 Q26.05 1.25 21.6 2.85 20.8 5.65 18.85 7.6 17.0 9.45 14.2 9.8 11.45 9.95 9.0 8.8 L6.4 7.45 Q1.65 9.1 3.35 12.8 L8.25 23.65 15.0 38.6 15.2 39.0 Q16.8 42.25 20.45 41.1 L21.65 40.55 Q22.7 36.9 25.05 35.5 27.4 34.15 30.2 34.2 33.05 34.2 36.25 36.1 L37.2 35.7 Q41.1 34.5 39.35 30.75 L35.55 22.3 M19.3 1.35 L22.3 0.4 Q26.55 -1.0 28.45 3.1 L41.35 31.7 Q42.95 35.15 40.2 36.7 L38.9 37.25 36.15 38.15 34.0 36.9 33.8 36.8 Q30.65 35.45 27.7 36.35 24.75 37.3 23.7 40.05 L23.6 40.25 Q23.25 41.25 23.25 42.3 L23.2 42.3 20.4 43.2 19.1 43.5 17.3 43.4 Q15.3 42.9 14.2 40.5 L5.45 20.95 1.35 11.8 Q0.4 9.65 1.1 8.3 1.45 7.65 2.15 7.15 2.8 6.7 3.8 6.35 L6.45 5.5 8.5 6.75 8.7 6.85 Q11.9 8.2 14.85 7.25 17.8 6.35 18.85 3.6 L18.9 3.4 19.3 1.35"/><path fill="#c47fad" stroke="none" d="M28.25 6.1 L35.55 22.3 39.35 30.75 Q41.1 34.5 37.2 35.7 L36.25 36.1 Q33.05 34.2 30.2 34.2 27.4 34.15 25.05 35.5 22.7 36.9 21.65 40.55 L20.45 41.1 Q16.8 42.25 15.2 39.0 L15.0 38.6 8.25 23.65 3.35 12.8 Q1.65 9.1 6.4 7.45 L9.0 8.8 Q11.45 9.95 14.2 9.8 17.0 9.45 18.85 7.6 20.8 5.65 21.6 2.85 26.05 1.25 27.75 4.95 L28.25 6.1 M34.0 32.9 L33.7 32.1 Q33.45 30.9 34.1 30.1 34.75 29.3 35.95 29.35 L35.8 29.0 26.5 8.3 26.25 7.85 Q24.9 5.45 22.05 6.35 19.75 11.1 14.85 11.65 11.45 11.85 9.1 10.55 L9.55 11.6 Q9.8 12.8 9.15 13.6 8.4 14.45 7.1 14.4 L6.8 14.4 6.95 14.6 16.3 35.2 Q16.8 36.4 17.65 37.0 18.8 37.8 19.8 37.35 21.8 33.7 25.95 32.3 30.35 30.8 34.0 32.9"/><path fill="#fcf2cf" stroke="none" d="M22.05 6.35 Q24.9 5.45 26.25 7.85 L26.5 8.3 35.8 29.0 35.95 29.35 Q34.75 29.3 34.1 30.1 33.45 30.9 33.7 32.1 L34.0 32.9 Q30.35 30.8 25.95 32.3 21.8 33.7 19.8 37.35 18.8 37.8 17.65 37.0 16.8 36.4 16.3 35.2 L6.95 14.6 6.8 14.4 7.1 14.4 Q8.4 14.45 9.15 13.6 9.8 12.8 9.55 11.6 L9.1 10.55 Q11.45 11.85 14.85 11.65 19.75 11.1 22.05 6.35"/><path fill="#300525" stroke="none" d="M40.2 36.7 Q39.5 37.3 38.3 37.65 L36.35 38.3 36.15 38.15 38.9 37.25 40.2 36.7 M23.25 42.3 L23.25 42.35 23.2 42.3 23.25 42.3 M20.1 43.55 L19.8 43.65 Q17.15 44.45 15.5 43.3 L17.3 43.4 19.1 43.5 20.1 43.55 M4.6 20.9 L0.7 12.25 Q-0.45 9.75 0.75 8.25 L1.1 8.3 Q0.4 9.65 1.35 11.8 L5.45 20.95 4.6 20.9"/><path fill="#630a4c" stroke="none" d="M23.25 42.35 L23.25 42.55 20.1 43.55 19.1 43.5 20.4 43.2 23.2 42.3 23.25 42.35 M15.5 43.3 Q14.35 42.55 13.65 40.9 L4.6 20.9 5.45 20.95 14.2 40.5 Q15.3 42.9 17.3 43.4 L15.5 43.3 M0.75 8.25 Q1.2 7.6 2.15 7.15 1.45 7.65 1.1 8.3 L0.75 8.25"/><path fill="none" stroke="#bf9900" stroke-width="1.0" stroke-opacity="0.749019607843" d="M28.25 6.1 L35.55 22.3 M15.0 38.6 L8.25 23.65"/><path fill="none" stroke="#000000" stroke-width="0.5" stroke-opacity="0.301960784314" d="M19.3 1.35 L22.3 0.4 Q26.55 -1.0 28.45 3.1 L41.35 31.7 Q42.95 35.15 40.2 36.7 39.5 37.3 38.3 37.65 L36.35 38.3 M23.25 42.55 L20.1 43.55 19.8 43.65 Q17.15 44.45 15.5 43.3 14.35 42.55 13.65 40.9 L4.6 20.9 0.7 12.25 Q-0.45 9.75 0.75 8.25 1.2 7.6 2.15 7.15 2.8 6.7 3.8 6.35 L6.45 5.5 M1.1 8.3 Q1.45 7.65 2.15 7.15 M5.45 20.95 L1.35 11.8 Q0.4 9.65 1.1 8.3 M17.3 43.4 Q15.3 42.9 14.2 40.5 L5.45 20.95 M19.1 43.5 L17.3 43.4 M23.2 42.3 L20.4 43.2 19.1 43.5 M23.25 42.3 L23.2 42.3 M40.2 36.7 L38.9 37.25 36.15 38.15"/><path fill="none" stroke="#ffcc00" stroke-width="1.0" stroke-opacity="0.749019607843" d="M35.55 22.3 L39.35 30.75 Q41.1 34.5 37.2 35.7 L36.25 36.1 M21.65 40.55 L20.45 41.1 Q16.8 42.25 15.2 39.0 L15.0 38.6 M8.25 23.65 L3.35 12.8 Q1.65 9.1 6.4 7.45 M21.6 2.85 Q26.05 1.25 27.75 4.95 L28.25 6.1"/><path fill="none" stroke="#f0b92b" stroke-width="0.5" d="M22.05 6.35 Q24.9 5.45 26.25 7.85 L26.5 8.3 35.8 29.0 35.95 29.35 Q34.75 29.3 34.1 30.1 33.45 30.9 33.7 32.1 L34.0 32.9 M19.8 37.35 Q18.8 37.8 17.65 37.0 16.8 36.4 16.3 35.2 L6.95 14.6 6.8 14.4 7.1 14.4 Q8.4 14.45 9.15 13.6 9.8 12.8 9.55 11.6 L9.1 10.55"/><path fill="none" stroke="#ffaa00" stroke-width="1.0" stroke-opacity="0.749019607843" d="M36.25 36.1 Q33.05 34.2 30.2 34.2 27.4 34.15 25.05 35.5 22.7 36.9 21.65 40.55 M6.4 7.45 L9.0 8.8 Q11.45 9.95 14.2 9.8 17.0 9.45 18.85 7.6 20.8 5.65 21.6 2.85"/><path fill="none" stroke="#ffaa00" stroke-width="0.5" stroke-opacity="0.749019607843" d="M34.0 32.9 Q30.35 30.8 25.95 32.3 21.8 33.7 19.8 37.35 M9.1 10.55 Q11.45 11.85 14.85 11.65 19.75 11.1 22.05 6.35"/></g><g id="c3"><path fill="#7fdbfe" stroke="none" d="M10.75 4.9 Q10.75 4.6 10.9 4.35 11.25 3.45 11.95 2.75 13.3 1.5 14.35 2.1 15.4 2.7 14.95 4.45 14.7 5.4 14.1 6.15 L13.75 6.5 Q13.1 7.15 12.35 7.35 L11.4 7.2 Q10.95 6.9 10.75 6.4 10.5 5.75 10.75 4.9 M9.3 1.7 Q9.55 2.65 9.4 3.6 L9.3 4.15 8.5 5.5 7.6 5.9 7.5 5.9 Q7.0 5.85 6.6 5.5 6.05 5.0 5.8 4.15 L5.7 3.6 Q5.55 2.65 5.8 1.7 6.25 0.0 7.5 0.0 L7.6 0.0 Q8.85 0.0 9.3 1.7 M0.15 4.45 Q-0.3 2.7 0.75 2.1 1.8 1.5 3.15 2.75 3.85 3.45 4.2 4.35 L4.35 4.9 Q4.6 5.75 4.35 6.4 L3.7 7.2 2.75 7.35 Q2.0 7.15 1.35 6.5 L1.0 6.15 Q0.4 5.4 0.15 4.45 M7.55 7.0 Q8.75 6.9 9.9 7.6 11.45 8.5 11.95 10.25 12.35 12.0 11.5 12.95 10.7 13.9 9.65 13.7 8.55 13.5 7.55 12.6 6.55 13.5 5.5 13.7 4.45 13.9 3.65 12.95 2.75 12.0 3.2 10.25 3.7 8.5 5.25 7.6 6.4 6.9 7.55 7.0"/></g><g id="c4"><g><use transform="matrix(1.0,0.0,0.0,1.0,0.0,0.0)" xlink:href="#c3"/></g></g><radialGradient gradientUnits="userSpaceOnUse" r="819.2" cx="0" cy="0" spreadMethod="pad" gradientTransform="matrix(0.0914459228516,0.0,0.0,0.0914459228516,0.6,3.4)" id="gradient1"><stop offset="0.0" stop-color="#ffffff"/><stop offset="1.0" stop-color="#ffffff" stop-opacity="0.0"/></radialGradient><g id="c5"><path stroke="none" fill="url(#gradient1)" d="M36.65 -54.65 Q60.05 -42.0 69.75 -17.95 80.55 8.9 68.0 34.1 55.45 59.35 26.8 68.2 -1.8 77.05 -29.7 64.3 -57.6 51.6 -68.45 24.75 -79.3 -2.05 -66.75 -27.25 L-66.7 -27.3 Q-54.1 -52.5 -25.5 -61.4 3.1 -70.2 31.0 -57.5 L36.65 -54.65"/></g><g id="c6"><g><use transform="matrix(1.0,0.0,0.0,1.0,0.0,0.0)" xlink:href="#c5"/></g></g><radialGradient gradientUnits="userSpaceOnUse" r="819.2" cx="0" cy="0" spreadMethod="pad" gradientTransform="matrix(0.209197998047,0.0,0.0,0.177108764648,67.15,107.2)" id="gradient2"><stop offset="0.356862745098" stop-color="#ffffff"/><stop offset="0.670588235294" stop-opacity="0.0"/></radialGradient><g id="c7"><path fill="none" stroke-linejoin="round" stroke-linecap="round" stroke="url(#gradient2)" stroke-width="0.5" d="M136.55 165.8 L68.6 106.0 68.4 106.0 118.25 201.5 M68.3 105.8 L68.35 105.8 68.3 105.8 68.3 105.85 68.4 106.0 68.3 106.0 86.55 211.5 M68.3 105.8 L68.3 105.85 68.3 106.0 68.15 105.95 18.25 151.55 M68.3 105.85 L68.25 105.85 68.3 106.0 50.0 193.2 M68.25 105.85 L68.15 105.95 0.05 97.7 M68.3 105.85 L68.25 105.8 68.25 105.85 M68.25 105.8 L68.2 105.7 0.0 45.7 M68.3 105.8 L68.25 105.75 68.25 105.8 M68.25 105.75 L68.2 105.7 18.25 10.05 M68.6 106.0 L68.35 105.8 118.25 60.15 M86.6 18.35 L68.3 105.8 M136.6 114.25 L68.6 106.0 M68.25 105.75 L49.95 0.05"/></g><g id="c8"><g><use transform="matrix(1.0,0.0,0.0,1.0,0.0,0.0)" xlink:href="#c7"/></g></g><g id="c9"><g><use transform="matrix(1.0,0.0,0.0,1.0,0.0,0.0)" xlink:href="#c2"/></g><g><use transform="matrix(0.238861083984,-0.0867004394531,0.10026550293,0.233917236328,34.25,31.15)" xlink:href="#c4"/></g><g><use transform="matrix(0.238861083984,-0.0867004394531,0.10026550293,0.233917236328,4.25,10.3)" xlink:href="#c4"/></g><g><use transform="matrix(0.141098022461,-0.0378112792969,0.111373901367,0.225646972656,20.25,20.65)" filter="url(#filter7)" xlink:href="#c6"/></g><g><use transform="matrix(-0.155029296875,0.0513153076172,0.0841827392578,0.147033691406,22.6,3.15)" filter="url(#filter8)" xlink:href="#c8"/></g></g><filter id="filter7"><feColorMatrix in="SourceGraphic" type="matrix" values="0.0 0.0 0.0 0.0 0.796875 0.0 0.0 0.0 0.0 0.59765625 0.0 0.0 0.0 0.0 0.19921875 0.0 0.0 0.0 1.0 0.0" result="cxform"/><feComposite operator="in" in2="SourceGraphic" result="color-xform"/></filter><filter id="filter8"><feColorMatrix in="SourceGraphic" type="matrix" values="0.0 0.0 0.0 0.0 0.99609375 0.0 0.0 0.0 0.0 0.99609375 0.0 0.0 0.0 0.0 0.99609375 0.0 0.0 0.0 1.0 0.0" result="cxform"/><feComposite operator="in" in2="SourceGraphic" result="color-xform"/></filter><linearGradient gradientUnits="userSpaceOnUse" x1="-819.2" x2="819.2" spreadMethod="pad" gradientTransform="matrix(0.00981140136719,0.00794982910156,-0.00701904296875,0.0086669921875,7.7,5.05)" id="gradient3"><stop offset="0.0" stop-color="#fefd89"/><stop offset="1.0" stop-color="#fffa45"/></linearGradient><g id="c10"><path stroke="none" fill="url(#gradient3)" d="M8.0 -3.35 Q7.85 -3.15 8.1 -3.25 L8.25 -3.3 8.15 -3.45 8.0 -3.35 M9.55 -4.2 Q9.6 -3.95 10.0 -4.05 L10.3 -4.5 11.35 -4.8 10.45 -1.35 9.9 -1.2 9.55 -0.95 9.9 -1.2 10.45 -1.35 10.5 -1.4 10.65 -1.4 Q10.9 -0.9 10.55 -0.7 L10.55 -0.9 10.4 -0.9 10.35 -0.9 10.3 -0.85 10.35 -0.7 10.45 -0.65 10.3 -0.65 10.25 -0.7 10.2 -0.45 9.75 0.8 Q9.45 0.65 9.05 1.4 8.9 1.9 9.1 2.15 L7.55 3.55 7.45 4.0 7.45 4.05 7.1 4.25 7.05 4.45 7.4 4.4 6.6 7.9 Q6.45 7.55 6.3 8.4 L6.25 8.5 Q6.05 9.55 6.2 9.35 L4.95 14.6 4.75 15.45 Q3.6 18.0 5.1 12.2 4.4 13.85 4.75 12.45 L4.8 12.05 4.9 11.7 4.55 12.0 4.7 11.35 5.25 9.95 5.45 9.8 5.9 7.8 Q6.35 7.7 6.55 6.75 L6.55 6.35 7.15 3.45 7.05 2.9 7.95 2.25 6.9 1.7 7.15 1.6 7.45 1.15 7.55 1.0 7.45 0.8 7.25 0.75 7.35 -0.15 7.75 -0.4 8.1 -0.8 8.15 -1.0 8.1 -1.2 7.7 -1.3 7.25 -1.05 6.95 -0.6 6.7 -0.95 6.75 -1.25 7.2 -1.7 Q7.3 -2.3 7.05 -2.2 L7.1 -2.55 7.35 -3.2 Q8.55 -4.15 9.5 -4.15 L9.55 -4.2 M10.05 -0.85 L10.25 -0.7 10.05 -0.85 10.0 -0.85 9.95 -0.9 9.85 -1.0 9.95 -1.05 10.0 -1.05 10.05 -1.05 10.1 -0.9 10.05 -0.9 10.1 -0.85 10.05 -0.85 M8.7 -2.8 L8.7 -2.9 8.35 -3.05 7.9 -2.75 7.65 -2.65 7.55 -2.35 7.5 -1.95 7.6 -1.95 7.85 -1.9 Q8.05 -1.9 8.15 -2.05 8.3 -2.05 8.4 -2.15 L8.75 -2.6 8.7 -2.8 M10.5 -3.45 L10.5 -3.6 10.15 -3.75 9.7 -3.45 9.35 -3.05 9.35 -2.65 9.4 -2.65 9.65 -2.6 10.2 -2.8 10.5 -3.3 10.5 -3.45 M9.95 -1.6 L9.9 -1.75 9.5 -1.8 9.0 -1.6 8.75 -1.3 8.7 -1.2 8.7 -0.8 9.0 -0.75 9.2 -0.75 9.55 -0.95 9.55 -1.0 9.85 -1.4 9.95 -1.6"/><path fill="#bdad36" stroke="none" d="M8.0 -3.35 L8.15 -3.45 8.25 -3.3 8.1 -3.25 Q7.85 -3.15 8.0 -3.35 M10.3 -4.5 L10.0 -4.05 Q9.6 -3.95 9.55 -4.2 9.85 -4.1 10.3 -4.5 M7.05 -2.2 Q7.3 -2.3 7.2 -1.7 L6.75 -1.25 Q7.15 -1.75 7.05 -2.2 M6.55 6.35 L6.55 6.75 Q6.35 7.7 5.9 7.8 6.55 6.9 6.4 5.8 6.6 5.8 6.55 6.35 M7.4 4.4 L7.05 4.45 7.1 4.25 7.45 4.05 7.45 4.0 7.65 4.05 7.55 4.2 7.4 4.4 M10.3 -2.4 L10.2 -2.3 10.05 -2.4 10.25 -2.55 10.3 -2.4 M10.4 -1.25 L10.5 -1.2 10.5 -1.05 10.5 -1.0 10.4 -1.0 10.3 -1.05 10.3 -1.15 10.35 -1.25 10.4 -1.25 M9.75 0.8 L9.75 1.35 Q9.45 2.35 9.1 2.15 9.1 1.45 9.75 0.8 M6.65 1.3 L6.7 1.05 7.0 1.1 Q6.8 1.05 6.65 1.3 M6.2 0.35 L6.2 0.5 6.2 0.55 6.1 0.6 6.1 0.55 6.05 0.55 6.0 0.4 6.05 0.3 6.1 0.35 6.2 0.35 M5.75 0.6 L5.65 0.6 5.6 0.5 Q5.6 0.4 5.7 0.45 L5.7 0.4 5.85 0.5 5.8 0.55 5.8 0.65 5.75 0.6 M5.65 1.0 L5.55 1.0 5.45 0.95 5.45 0.85 5.45 0.8 5.55 0.8 5.6 0.85 5.65 0.9 5.65 1.0 M6.65 2.9 Q6.15 3.05 6.35 2.7 L6.7 2.45 Q7.1 2.4 6.85 2.7 L6.65 2.9"/><path fill="#ffd233" stroke="none" d="M6.95 -0.6 L7.25 -1.05 7.7 -1.3 8.1 -1.2 8.15 -1.0 Q7.4 -1.0 6.95 -0.2 L6.9 -0.25 6.95 -0.6 M7.25 0.75 L7.45 0.8 7.55 1.0 7.0 1.1 6.7 1.05 6.65 1.3 6.35 1.8 6.25 1.75 6.25 1.35 6.6 0.95 7.15 0.75 7.25 0.75 M4.55 12.0 L4.9 11.7 4.8 12.05 4.75 12.1 Q4.6 12.15 4.55 12.0 M4.95 14.6 L6.2 9.35 Q6.05 9.55 6.25 8.5 L6.3 8.4 Q6.45 7.55 6.6 7.9 L7.4 4.4 7.55 4.2 7.65 4.05 7.45 4.0 7.55 3.55 9.1 2.15 Q9.45 2.35 9.75 1.35 L9.75 0.8 10.2 -0.45 10.25 -0.7 10.3 -0.65 10.45 -0.65 10.35 -0.7 10.3 -0.85 10.35 -0.9 10.4 -0.9 10.55 -0.9 10.55 -0.7 Q10.9 -0.9 10.65 -1.4 L10.5 -1.4 10.45 -1.35 11.35 -4.8 Q11.8 -4.7 11.65 -4.35 L10.9 -1.3 10.95 -1.2 11.05 -0.65 10.7 -0.15 10.55 0.0 10.4 0.75 10.15 1.4 9.7 2.3 9.2 3.05 8.1 3.9 6.75 9.35 7.05 9.45 7.15 9.65 6.7 11.45 6.3 11.4 6.15 11.75 Q5.8 14.35 5.0 16.8 L4.8 17.55 Q4.75 17.85 5.1 18.0 L4.95 18.6 Q4.75 18.05 4.2 18.3 L4.95 14.6 M7.6 -1.95 L7.5 -1.95 7.55 -2.35 7.65 -2.65 7.9 -2.75 8.35 -3.05 8.7 -2.9 8.7 -2.8 Q8.25 -2.7 7.9 -2.4 L7.6 -1.95 M9.4 -2.65 L9.35 -2.65 9.35 -3.05 9.7 -3.45 10.15 -3.75 10.5 -3.6 10.5 -3.45 Q9.85 -3.45 9.4 -2.65 M8.7 -0.8 L8.7 -1.2 8.75 -1.3 9.0 -1.6 9.5 -1.8 9.9 -1.75 9.95 -1.6 Q9.3 -1.6 8.95 -1.05 L8.7 -0.8 M10.2 -0.45 Q10.45 -0.55 10.3 -0.65 10.45 -0.55 10.2 -0.45 M10.65 -1.4 L10.9 -1.3 10.65 -1.4 M8.05 1.2 L8.0 1.2 Q7.85 1.05 8.0 0.8 L8.3 0.4 8.8 0.15 9.1 0.25 9.2 0.4 Q8.4 0.45 8.05 1.2 M5.65 1.0 L5.85 0.95 5.75 0.9 5.75 0.8 5.8 0.7 5.9 0.8 5.95 0.9 5.95 0.95 6.0 0.95 6.2 0.7 6.05 1.3 6.0 1.55 5.9 1.5 5.75 1.45 5.45 1.25 5.65 1.0 M6.0 0.95 L6.05 1.3 6.0 0.95"/><path fill="#fffa45" stroke="none" d="M6.7 -0.95 L6.95 -0.6 6.9 -0.25 6.95 -0.2 7.3 -0.15 7.35 -0.15 7.25 0.75 7.15 0.75 6.6 0.95 6.25 1.35 6.25 1.75 6.35 1.8 6.7 1.85 6.85 1.75 6.9 1.7 7.95 2.25 7.05 2.9 7.15 3.45 6.55 6.35 Q6.6 5.8 6.4 5.8 L6.8 4.15 6.9 3.75 6.8 3.8 6.35 3.65 Q5.75 3.3 5.65 2.45 5.55 1.95 6.0 1.55 L6.05 1.3 6.2 0.7 6.0 0.95 5.95 0.95 5.95 0.9 5.9 0.8 5.8 0.7 5.75 0.8 5.75 0.9 5.85 0.95 5.65 1.0 5.65 0.9 5.6 0.85 5.55 0.8 5.45 0.8 5.45 0.85 5.45 0.95 5.55 1.0 5.65 1.0 5.45 1.25 5.3 0.8 5.65 0.3 6.15 0.1 6.25 0.05 6.4 0.1 Q6.4 -0.45 6.7 -0.95 M4.75 12.45 Q4.4 13.85 5.1 12.2 3.6 18.0 4.75 15.45 L4.95 14.6 4.2 18.3 2.75 18.85 Q2.55 18.65 2.95 18.35 L3.45 17.65 Q3.5 16.5 3.85 15.35 L4.0 14.9 4.25 14.2 4.35 13.7 4.75 12.45 M6.2 0.35 L6.1 0.35 6.05 0.3 6.0 0.4 6.05 0.55 6.1 0.55 6.1 0.6 6.2 0.55 6.2 0.5 6.2 0.35 M5.75 0.6 L5.8 0.65 5.8 0.55 5.85 0.5 5.7 0.4 5.7 0.45 Q5.6 0.4 5.6 0.5 L5.65 0.6 5.75 0.6 M6.5 0.55 Q6.3 0.55 6.2 0.7 6.3 0.55 6.5 0.55 M6.65 2.9 L6.85 2.7 Q7.1 2.4 6.7 2.45 L6.35 2.7 Q6.15 3.05 6.65 2.9"/><path fill="#775100" stroke="none" d="M9.1 2.15 Q8.9 1.9 9.05 1.4 9.45 0.65 9.75 0.8 9.1 1.45 9.1 2.15"/><path fill="#decd01" stroke="none" d="M6.35 3.65 L6.8 3.8 6.9 3.75 6.8 4.15 6.35 3.65"/><path fill="#c19f26" stroke="none" d="M6.7 11.45 L6.15 11.75 6.3 11.4 6.7 11.45"/><path fill="#956500" stroke="none" d="M2.65 19.15 L2.75 18.85 4.2 18.3 4.25 18.5 4.7 18.8 4.3 18.7 4.15 18.8 4.3 19.15 4.05 18.85 3.75 18.95 3.9 19.15 3.65 18.95 3.45 19.0 3.15 18.9 3.35 19.0 3.2 19.05 2.85 18.9 3.1 19.05 2.65 19.15"/><path fill="#5b3e00" stroke="none" d="M4.95 18.6 L4.85 19.15 4.55 19.45 2.95 19.55 2.65 19.15 3.1 19.05 2.85 18.9 3.2 19.05 3.35 19.0 3.15 18.9 3.45 19.0 3.65 18.95 3.9 19.15 3.75 18.95 4.05 18.85 4.3 19.15 4.15 18.8 4.3 18.7 4.7 18.8 4.25 18.5 4.2 18.3 Q4.75 18.05 4.95 18.6"/><path fill="none" stroke="#000000" stroke-width="0.5" stroke-opacity="0.298039215686" d="M9.55 -4.2 Q9.6 -3.95 10.0 -4.05 L10.3 -4.5 Q9.85 -4.1 9.55 -4.2 L9.5 -4.15 Q8.55 -4.15 7.35 -3.2 L7.1 -2.55 7.05 -2.2 Q7.3 -2.3 7.2 -1.7 L6.75 -1.25 6.7 -0.95 M8.15 -1.0 L8.1 -0.8 7.75 -0.4 7.35 -0.15 7.3 -0.15 6.95 -0.2 6.9 -0.25 6.95 -0.6 M7.25 0.75 L7.45 0.8 7.55 1.0 7.45 1.15 7.15 1.6 6.9 1.7 6.85 1.75 6.7 1.85 6.35 1.8 6.65 1.3 Q6.8 1.05 7.0 1.1 L7.55 1.0 M5.9 7.8 L5.45 9.8 5.25 9.95 4.7 11.35 4.55 12.0 M4.9 11.7 L4.8 12.05 4.75 12.45 M10.25 -0.7 L10.05 -0.85 M8.7 -2.8 L8.75 -2.6 8.4 -2.15 Q8.3 -2.05 8.15 -2.05 8.05 -1.9 7.85 -1.9 L7.6 -1.95 7.9 -2.4 Q8.25 -2.7 8.7 -2.8 M6.75 -1.25 Q7.15 -1.75 7.05 -2.2 M10.5 -3.45 L10.5 -3.3 10.2 -2.8 9.65 -2.6 9.4 -2.65 Q9.85 -3.45 10.5 -3.45 M9.95 -1.6 L9.85 -1.4 9.55 -1.0 9.55 -0.95 9.9 -1.2 10.45 -1.35 M11.35 -4.8 L10.3 -4.5 M9.55 -0.95 L9.2 -0.75 9.0 -0.75 8.7 -0.8 8.95 -1.05 Q9.3 -1.6 9.95 -1.6 M6.95 -0.2 Q7.4 -1.0 8.15 -1.0 M11.35 -4.8 Q11.8 -4.7 11.65 -4.35 L10.9 -1.3 10.95 -1.2 11.05 -0.65 10.7 -0.15 10.55 0.0 10.4 0.75 10.15 1.4 9.7 2.3 9.2 3.05 8.1 3.9 6.75 9.35 7.05 9.45 7.15 9.65 6.7 11.45 6.15 11.75 Q5.8 14.35 5.0 16.8 L4.8 17.55 Q4.75 17.85 5.1 18.0 L4.95 18.6 4.85 19.15 4.55 19.45 2.95 19.55 2.65 19.15 2.75 18.85 Q2.55 18.65 2.95 18.35 L3.45 17.65 Q3.5 16.5 3.85 15.35 L4.0 14.9 4.25 14.2 4.35 13.7 4.75 12.45 M10.65 -1.4 L10.5 -1.4 10.45 -1.35 M10.3 -0.65 Q10.45 -0.55 10.2 -0.45 M10.3 -0.65 L10.25 -0.7 M10.9 -1.3 L10.65 -1.4 M9.2 0.4 L9.15 0.65 8.8 1.0 8.3 1.3 8.05 1.2 M9.2 0.4 Q8.4 0.45 8.05 1.2 M5.45 1.25 L5.3 0.8 5.65 0.3 6.15 0.1 6.25 0.05 6.4 0.1 Q6.4 -0.45 6.7 -0.95 M6.0 0.95 L6.2 0.7 Q6.3 0.55 6.5 0.55 M6.0 1.55 L5.9 1.5 5.75 1.45 5.45 1.25 M6.05 1.3 L6.0 0.95 M6.05 1.3 L6.2 0.7 M6.35 3.65 Q5.75 3.3 5.65 2.45 5.55 1.95 6.0 1.55 L6.05 1.3 M6.35 3.65 L6.8 4.15 6.4 5.8 M4.8 12.05 L4.75 12.1 Q4.6 12.15 4.55 12.0 M5.9 7.8 Q6.55 6.9 6.4 5.8 M4.2 18.3 L2.75 18.85 M4.95 18.6 Q4.75 18.05 4.2 18.3"/></g><g id="c11"><g><use transform="matrix(1.0,0.0,0.0,1.0,0.0,0.0)" xlink:href="#c10"/></g></g><g id="c12"><g><use transform="matrix(1.0,0.0,0.0,1.0,6.3,53.35)" xlink:href="#c9"/></g><g><use transform="matrix(1.0,0.0,0.0,1.0,20.65,68.2)" xlink:href="#c11"/></g><g><use transform="matrix(0.141098022461,-0.0378112792969,0.111373901367,0.225646972656,27.2,74.05)" filter="url(#filter12)" xlink:href="#c6"/></g></g><filter id="filter12"><feColorMatrix in="SourceGraphic" type="matrix" values="1.0 0.0 0.0 0.0 0.0 0.0 1.0 0.0 0.0 0.0 0.0 0.0 1.0 0.0 0.0 0.0 0.0 0.0 0.23046875 0.0" result="cxform"/><feComposite operator="in" in2="SourceGraphic" result="color-xform"/></filter></defs><g><g><use transform="matrix(1.0,0.0,0.0,1.0,0.0,0.0)" xlink:href="#c1"/></g><g><use transform="matrix(1.15496826172,0.0,0.0,1.15496826172,-1.4,-57.4)" xlink:href="#c12"/></g></g></svg>