<?xml version='1.0' encoding='UTF-8'?>
<svg xmlns:xlink="http://www.w3.org/1999/xlink" xmlns="http://www.w3.org/2000/svg" version="1.1" width="60px" height="60px" viewBox="0.0 0.0 60.0 60.0"><defs><g id="c1"><path fill="#000000" fill-opacity="0.00392156862745" d="M0.0 0.0 L60.0 0.0 60.0 60.0 0.0 60.0 0.0 0.0"/></g><g id="c2"><path fill="none" stroke="#000000" stroke-width="1.0" stroke-opacity="0.301960784314" d="M28.45 3.1 L41.35 31.7 Q42.95 35.15 40.2 36.7 39.5 37.3 38.3 37.65 L36.35 38.3 36.15 38.15 34.0 36.9 33.8 36.8 Q30.65 35.45 27.7 36.35 24.75 37.3 23.7 40.05 L23.6 40.25 Q23.25 41.25 23.25 42.3 L23.25 42.35 23.25 42.55 19.8 43.65 Q17.15 44.45 15.5 43.3 14.35 42.55 13.65 40.9 L0.7 12.25 Q-0.45 9.75 0.75 8.25 1.2 7.6 2.15 7.15 2.8 6.7 3.8 6.35 L6.45 5.5 8.5 6.75 8.7 6.85 Q11.9 8.2 14.85 7.25 17.8 6.35 18.85 3.6 L18.9 3.4 19.3 1.35 22.3 0.4 Q26.55 -1.0 28.45 3.1"/><path fill="#9d147b" stroke="none" d="M35.55 22.3 L28.25 6.1 27.75 4.95 Q26.05 1.25 21.6 2.85 20.8 5.65 18.85 7.6 17.0 9.45 14.2 9.8 11.45 9.95 9.0 8.8 L6.4 7.45 Q1.65 9.1 3.35 12.8 L8.25 23.65 15.0 38.6 15.2 39.0 Q16.8 42.25 20.45 41.1 L21.65 40.55 Q22.7 36.9 25.05 35.5 27.4 34.15 30.2 34.2 33.05 34.2 36.25 36.1 L37.2 35.7 Q41.1 34.5 39.35 30.75 L35.55 22.3 M19.3 1.35 L22.3 0.4 Q26.55 -1.0 28.45 3.1 L41.35 31.7 Q42.95 35.15 40.2 36.7 L38.9 37.25 36.15 38.15 34.0 36.9 33.8 36.8 Q30.65 35.45 27.7 36.35 24.75 37.3 23.7 40.05 L23.6 40.25 Q23.25 41.25 23.25 42.3 L23.2 42.3 20.4 43.2 19.1 43.5 17.3 43.4 Q15.3 42.9 14.2 40.5 L5.45 20.95 1.35 11.8 Q0.4 9.65 1.1 8.3 1.45 7.65 2.15 7.15 2.8 6.7 3.8 6.35 L6.45 5.5 8.5 6.75 8.7 6.85 Q11.9 8.2 14.85 7.25 17.8 6.35 18.85 3.6 L18.9 3.4 19.3 1.35"/><path fill="#c47fad" stroke="none" d="M28.25 6.1 L35.55 22.3 39.35 30.75 Q41.1 34.5 37.2 35.7 L36.25 36.1 Q33.05 34.2 30.2 34.2 27.4 34.15 25.05 35.5 22.7 36.9 21.65 40.55 L20.45 41.1 Q16.8 42.25 15.2 39.0 L15.0 38.6 8.25 23.65 3.35 12.8 Q1.65 9.1 6.4 7.45 L9.0 8.8 Q11.45 9.95 14.2 9.8 17.0 9.45 18.85 7.6 20.8 5.65 21.6 2.85 26.05 1.25 27.75 4.95 L28.25 6.1 M34.0 32.9 L33.7 32.1 Q33.45 30.9 34.1 30.1 34.75 29.3 35.95 29.35 L35.8 29.0 26.5 8.3 26.25 7.85 Q24.9 5.45 22.05 6.35 19.75 11.1 14.85 11.65 11.45 11.85 9.1 10.55 L9.55 11.6 Q9.8 12.8 9.15 13.6 8.4 14.45 7.1 14.4 L6.8 14.4 6.95 14.6 16.3 35.2 Q16.8 36.4 17.65 37.0 18.8 37.8 19.8 37.35 21.8 33.7 25.95 32.3 30.35 30.8 34.0 32.9"/><path fill="#fcf2cf" stroke="none" d="M22.05 6.35 Q24.9 5.45 26.25 7.85 L26.5 8.3 35.8 29.0 35.95 29.35 Q34.75 29.3 34.1 30.1 33.45 30.9 33.7 32.1 L34.0 32.9 Q30.35 30.8 25.95 32.3 21.8 33.7 19.8 37.35 18.8 37.8 17.65 37.0 16.8 36.4 16.3 35.2 L6.95 14.6 6.8 14.4 7.1 14.4 Q8.4 14.45 9.15 13.6 9.8 12.8 9.55 11.6 L9.1 10.55 Q11.45 11.85 14.85 11.65 19.75 11.1 22.05 6.35"/><path fill="#300525" stroke="none" d="M40.2 36.7 Q39.5 37.3 38.3 37.65 L36.35 38.3 36.15 38.15 38.9 37.25 40.2 36.7 M23.25 42.3 L23.25 42.35 23.2 42.3 23.25 42.3 M20.1 43.55 L19.8 43.65 Q17.15 44.45 15.5 43.3 L17.3 43.4 19.1 43.5 20.1 43.55 M4.6 20.9 L0.7 12.25 Q-0.45 9.75 0.75 8.25 L1.1 8.3 Q0.4 9.65 1.35 11.8 L5.45 20.95 4.6 20.9"/><path fill="#630a4c" stroke="none" d="M23.25 42.35 L23.25 42.55 20.1 43.55 19.1 43.5 20.4 43.2 23.2 42.3 23.25 42.35 M15.5 43.3 Q14.35 42.55 13.65 40.9 L4.6 20.9 5.45 20.95 14.2 40.5 Q15.3 42.9 17.3 43.4 L15.5 43.3 M0.75 8.25 Q1.2 7.6 2.15 7.15 1.45 7.65 1.1 8.3 L0.75 8.25"/><path fill="none" stroke="#bf9900" stroke-width="1.0" stroke-opacity="0.749019607843" d="M28.25 6.1 L35.55 22.3 M15.0 38.6 L8.25 23.65"/><path fill="none" stroke="#000000" stroke-width="0.5" stroke-opacity="0.301960784314" d="M19.3 1.35 L22.3 0.4 Q26.55 -1.0 28.45 3.1 L41.35 31.7 Q42.95 35.15 40.2 36.7 39.5 37.3 38.3 37.65 L36.35 38.3 M23.25 42.55 L20.1 43.55 19.8 43.65 Q17.15 44.45 15.5 43.3 14.35 42.55 13.65 40.9 L4.6 20.9 0.7 12.25 Q-0.45 9.75 0.75 8.25 1.2 7.6 2.15 7.15 2.8 6.7 3.8 6.35 L6.45 5.5 M1.1 8.3 Q1.45 7.65 2.15 7.15 M5.45 20.95 L1.35 11.8 Q0.4 9.65 1.1 8.3 M17.3 43.4 Q15.3 42.9 14.2 40.5 L5.45 20.95 M19.1 43.5 L17.3 43.4 M23.2 42.3 L20.4 43.2 19.1 43.5 M23.25 42.3 L23.2 42.3 M40.2 36.7 L38.9 37.25 36.15 38.15"/><path fill="none" stroke="#ffcc00" stroke-width="1.0" stroke-opacity="0.749019607843" d="M35.55 22.3 L39.35 30.75 Q41.1 34.5 37.2 35.7 L36.25 36.1 M21.65 40.55 L20.45 41.1 Q16.8 42.25 15.2 39.0 L15.0 38.6 M8.25 23.65 L3.35 12.8 Q1.65 9.1 6.4 7.45 M21.6 2.85 Q26.05 1.25 27.75 4.95 L28.25 6.1"/><path fill="none" stroke="#f0b92b" stroke-width="0.5" d="M22.05 6.35 Q24.9 5.45 26.25 7.85 L26.5 8.3 35.8 29.0 35.95 29.35 Q34.75 29.3 34.1 30.1 33.45 30.9 33.7 32.1 L34.0 32.9 M19.8 37.35 Q18.8 37.8 17.65 37.0 16.8 36.4 16.3 35.2 L6.95 14.6 6.8 14.4 7.1 14.4 Q8.4 14.45 9.15 13.6 9.8 12.8 9.55 11.6 L9.1 10.55"/><path fill="none" stroke="#ffaa00" stroke-width="1.0" stroke-opacity="0.749019607843" d="M36.25 36.1 Q33.05 34.2 30.2 34.2 27.4 34.15 25.05 35.5 22.7 36.9 21.65 40.55 M6.4 7.45 L9.0 8.8 Q11.45 9.95 14.2 9.8 17.0 9.45 18.85 7.6 20.8 5.65 21.6 2.85"/><path fill="none" stroke="#ffaa00" stroke-width="0.5" stroke-opacity="0.749019607843" d="M34.0 32.9 Q30.35 30.8 25.95 32.3 21.8 33.7 19.8 37.35 M9.1 10.55 Q11.45 11.85 14.85 11.65 19.75 11.1 22.05 6.35"/></g><g id="c3"><path fill="#7fdbfe" stroke="none" d="M10.75 4.9 Q10.75 4.6 10.9 4.35 11.25 3.45 11.95 2.75 13.3 1.5 14.35 2.1 15.4 2.7 14.95 4.45 14.7 5.4 14.1 6.15 L13.75 6.5 Q13.1 7.15 12.35 7.35 L11.4 7.2 Q10.95 6.9 10.75 6.4 10.5 5.75 10.75 4.9 M9.3 1.7 Q9.55 2.65 9.4 3.6 L9.3 4.15 8.5 5.5 7.6 5.9 7.5 5.9 Q7.0 5.85 6.6 5.5 6.05 5.0 5.8 4.15 L5.7 3.6 Q5.55 2.65 5.8 1.7 6.25 0.0 7.5 0.0 L7.6 0.0 Q8.85 0.0 9.3 1.7 M0.15 4.45 Q-0.3 2.7 0.75 2.1 1.8 1.5 3.15 2.75 3.85 3.45 4.2 4.35 L4.35 4.9 Q4.6 5.75 4.35 6.4 L3.7 7.2 2.75 7.35 Q2.0 7.15 1.35 6.5 L1.0 6.15 Q0.4 5.4 0.15 4.45 M7.55 7.0 Q8.75 6.9 9.9 7.6 11.45 8.5 11.95 10.25 12.35 12.0 11.5 12.95 10.7 13.9 9.65 13.7 8.55 13.5 7.55 12.6 6.55 13.5 5.5 13.7 4.45 13.9 3.65 12.95 2.75 12.0 3.2 10.25 3.7 8.5 5.25 7.6 6.4 6.9 7.55 7.0"/></g><g id="c4"><g><use transform="matrix(1.0,0.0,0.0,1.0,0.0,0.0)" xlink:href="#c3"/></g></g><radialGradient gradientUnits="userSpaceOnUse" r="819.2" cx="0" cy="0" spreadMethod="pad" gradientTransform="matrix(0.0914459228516,0.0,0.0,0.0914459228516,0.6,3.4)" id="gradient1"><stop offset="0.0" stop-color="#ffffff"/><stop offset="1.0" stop-color="#ffffff" stop-opacity="0.0"/></radialGradient><g id="c5"><path stroke="none" fill="url(#gradient1)" d="M36.65 -54.65 Q60.05 -42.0 69.75 -17.95 80.55 8.9 68.0 34.1 55.45 59.35 26.8 68.2 -1.8 77.05 -29.7 64.3 -57.6 51.6 -68.45 24.75 -79.3 -2.05 -66.75 -27.25 L-66.7 -27.3 Q-54.1 -52.5 -25.5 -61.4 3.1 -70.2 31.0 -57.5 L36.65 -54.65"/></g><g id="c6"><g><use transform="matrix(1.0,0.0,0.0,1.0,0.0,0.0)" xlink:href="#c5"/></g></g><radialGradient gradientUnits="userSpaceOnUse" r="819.2" cx="0" cy="0" spreadMethod="pad" gradientTransform="matrix(0.209197998047,0.0,0.0,0.177108764648,67.15,107.2)" id="gradient2"><stop offset="0.356862745098" stop-color="#ffffff"/><stop offset="0.670588235294" stop-opacity="0.0"/></radialGradient><g id="c7"><path fill="none" stroke-linejoin="round" stroke-linecap="round" stroke="url(#gradient2)" stroke-width="0.5" d="M136.55 165.8 L68.6 106.0 68.4 106.0 118.25 201.5 M68.3 105.8 L68.35 105.8 68.3 105.8 68.3 105.85 68.4 106.0 68.3 106.0 86.55 211.5 M68.3 105.8 L68.3 105.85 68.3 106.0 68.15 105.95 18.25 151.55 M68.3 105.85 L68.25 105.85 68.3 106.0 50.0 193.2 M68.25 105.85 L68.15 105.95 0.05 97.7 M68.3 105.85 L68.25 105.8 68.25 105.85 M68.25 105.8 L68.2 105.7 0.0 45.7 M68.3 105.8 L68.25 105.75 68.25 105.8 M68.25 105.75 L68.2 105.7 18.25 10.05 M68.6 106.0 L68.35 105.8 118.25 60.15 M86.6 18.35 L68.3 105.8 M136.6 114.25 L68.6 106.0 M68.25 105.75 L49.95 0.05"/></g><g id="c8"><g><use transform="matrix(1.0,0.0,0.0,1.0,0.0,0.0)" xlink:href="#c7"/></g></g><g id="c9"><g><use transform="matrix(1.0,0.0,0.0,1.0,0.0,0.0)" xlink:href="#c2"/></g><g><use transform="matrix(0.238861083984,-0.0867004394531,0.10026550293,0.233917236328,34.25,31.15)" xlink:href="#c4"/></g><g><use transform="matrix(0.238861083984,-0.0867004394531,0.10026550293,0.233917236328,4.25,10.3)" xlink:href="#c4"/></g><g><use transform="matrix(0.141098022461,-0.0378112792969,0.111373901367,0.225646972656,20.25,20.65)" filter="url(#filter7)" xlink:href="#c6"/></g><g><use transform="matrix(-0.155029296875,0.0513153076172,0.0841827392578,0.147033691406,22.6,3.15)" filter="url(#filter8)" xlink:href="#c8"/></g></g><filter id="filter7"><feColorMatrix in="SourceGraphic" type="matrix" values="0.0 0.0 0.0 0.0 0.796875 0.0 0.0 0.0 0.0 0.59765625 0.0 0.0 0.0 0.0 0.19921875 0.0 0.0 0.0 1.0 0.0" result="cxform"/><feComposite operator="in" in2="SourceGraphic" result="color-xform"/></filter><filter id="filter8"><feColorMatrix in="SourceGraphic" type="matrix" values="0.0 0.0 0.0 0.0 0.99609375 0.0 0.0 0.0 0.0 0.99609375 0.0 0.0 0.0 0.0 0.99609375 0.0 0.0 0.0 1.0 0.0" result="cxform"/><feComposite operator="in" in2="SourceGraphic" result="color-xform"/></filter><g id="c10"><path fill="#000000" fill-opacity="0.301960784314" d="M44.5 35.8 Q42.8 36.65 40.35 36.65 37.95 36.65 36.25 35.8 34.5 34.9 34.5 33.7 34.5 32.5 36.25 31.65 37.95 30.8 40.35 30.8 42.8 30.8 44.5 31.65 46.2 32.5 46.2 33.7 46.2 34.9 44.5 35.8 M40.65 45.9 Q38.95 46.75 36.5 46.75 34.1 46.75 32.4 45.9 30.65 45.0 30.65 43.8 30.65 42.6 32.4 41.75 34.1 40.9 36.5 40.9 38.95 40.9 40.65 41.75 42.35 42.6 42.35 43.8 42.35 45.0 40.65 45.9"/></g><linearGradient gradientUnits="userSpaceOnUse" x1="-819.2" x2="819.2" spreadMethod="pad" gradientTransform="matrix(0.0,-0.015869140625,0.015869140625,0.0,13.0,13.0)" id="gradient3"><stop offset="0.0" stop-opacity="0.0"/><stop offset="1.0" stop-opacity="0.501960784314"/></linearGradient><g id="c11"><path stroke="none" fill="url(#gradient3)" d="M26.0 0.0 L26.0 26.0 0.0 26.0 0.0 0.0 26.0 0.0"/></g><g id="c12"><g><use transform="matrix(1.0,0.0,0.0,1.0,0.0,0.0)" xlink:href="#c11"/></g></g><g id="c13"><path fill="#bd8323" stroke="none" d="M1.9 8.35 L1.95 8.4 2.9 10.55 3.1 10.95 4.4 12.65 3.65 14.3 Q2.85 13.75 1.65 11.75 0.35 9.6 -0.35 7.1 L-0.4 6.6 1.6 7.1 1.9 8.35"/><path fill="#9e6d1d" stroke="none" d="M6.1 13.5 L7.0 14.15 7.55 14.45 Q9.75 15.5 11.15 15.0 L13.3 13.7 12.4 17.3 Q10.45 18.0 7.5 16.6 L5.55 15.3 6.1 13.5 M5.85 1.35 L3.65 2.25 Q2.25 3.05 2.1 5.2 L0.0 4.35 Q0.15 1.1 2.2 0.0 L5.85 1.35"/><path fill="#8e5902" stroke="none" d="M7.0 14.15 L12.05 11.65 12.25 11.95 8.85 14.4 13.25 13.65 13.3 13.7 11.15 15.0 Q9.75 15.5 7.55 14.45 L7.0 14.15 M4.0 4.95 L5.8 4.75 1.6 7.1 -0.4 6.6 4.0 4.95"/><path fill="#2b1c00" stroke="none" d="M10.45 8.95 L2.9 10.55 8.9 6.35 10.45 8.95 M8.25 5.35 L1.9 8.35 1.6 7.1 5.8 4.75 5.9 4.7 5.8 4.75 4.0 4.95 2.1 5.2 Q2.25 3.05 3.65 2.25 L5.85 1.35 8.25 5.35 M4.4 12.65 L8.75 11.15 8.8 11.1 6.55 13.1 3.65 14.3 4.4 12.65"/><path fill="#523701" stroke="none" d="M10.45 8.95 L12.05 11.65 7.0 14.15 6.1 13.5 6.55 13.1 8.8 11.1 8.75 11.15 4.4 12.65 3.1 10.95 2.9 10.55 1.95 8.4 1.9 8.35 8.25 5.35 8.9 6.35 2.9 10.55 10.45 8.95 M12.25 11.95 L13.25 13.65 8.85 14.4 12.25 11.95"/><path fill="none" stroke="#000000" stroke-width="0.5" stroke-opacity="0.301960784314" d="M12.05 11.65 L10.45 8.95 8.9 6.35 8.25 5.35 5.85 1.35 2.2 0.0 Q0.15 1.1 0.0 4.35 L2.1 5.2 4.0 4.95 -0.4 6.6 -0.35 7.1 Q0.35 9.6 1.65 11.75 2.85 13.75 3.65 14.3 L6.55 13.1 6.1 13.5 M8.8 11.1 L6.55 13.1 M12.05 11.65 L12.25 11.95 13.25 13.65 13.3 13.7 12.4 17.3 Q10.45 18.0 7.5 16.6 L5.55 15.3 6.1 13.5 M5.8 4.75 L5.9 4.7 5.8 4.75 4.0 4.95"/></g><g id="c14"><g><use transform="matrix(1.0,0.0,0.0,1.0,0.0,0.0)" xlink:href="#c13"/></g></g><g id="c15"><path fill="#8c5e02" stroke="none" d="M41.4 10.75 L41.5 12.1 41.4 13.0 Q41.15 14.4 40.25 15.1 26.2 21.15 13.0 28.7 13.9 28.0 14.15 26.6 L14.25 25.7 14.25 25.1 14.25 24.95 Q16.7 23.4 23.5 20.25 L25.6 19.2 28.1 17.55 27.8 17.45 26.8 17.7 25.9 17.95 25.6 17.8 27.1 16.45 Q28.35 15.3 29.0 15.1 L32.0 13.85 Q34.4 12.8 34.7 12.95 34.95 13.05 35.0 13.55 35.1 14.0 35.5 14.0 L38.1 12.5 Q40.0 11.3 41.4 10.75 M37.0 3.9 L37.0 5.7 29.65 7.6 37.0 3.9 M8.55 21.2 L9.1 21.55 9.6 22.15 9.95 23.0 10.0 23.5 10.0 23.7 9.7 24.25 9.45 24.4 8.55 24.25 7.55 23.3 Q7.15 22.65 7.15 22.05 7.15 21.35 7.55 21.15 L7.65 21.1 8.5 21.15 8.55 21.2"/><path fill="#b58016" stroke="none" d="M40.35 7.8 Q41.0 9.0 41.3 10.25 L41.4 10.75 Q40.0 11.3 38.1 12.5 L35.5 14.0 Q35.1 14.0 35.0 13.55 34.95 13.05 34.7 12.95 34.4 12.8 32.0 13.85 L29.0 15.1 Q28.35 15.3 27.1 16.45 L25.6 17.8 25.9 17.95 26.8 17.7 27.8 17.45 28.1 17.55 25.6 19.2 23.5 20.25 Q16.7 23.4 14.25 24.95 L14.05 23.85 13.75 22.8 Q15.35 22.25 17.45 21.3 20.65 19.9 20.65 19.3 L20.55 18.85 Q20.55 18.15 22.6 16.8 24.0 15.8 26.4 14.5 32.05 11.4 35.5 10.55 L35.15 11.45 35.15 11.55 37.65 9.65 Q39.2 8.4 40.35 7.8 M5.35 17.7 L5.65 17.55 8.35 17.7 8.55 17.85 Q9.5 18.35 10.3 18.95 L11.85 20.9 12.85 23.05 13.0 23.6 13.15 25.15 13.15 25.8 Q13.0 26.9 12.2 27.55 L11.4 28.0 Q10.3 28.35 8.55 27.55 6.6 26.6 5.35 24.55 4.1 22.45 4.1 20.55 4.1 18.35 5.35 17.7 M5.85 18.45 Q4.8 19.0 4.8 20.85 4.8 22.5 5.85 24.2 6.95 25.95 8.55 26.75 10.0 27.45 10.95 27.15 L11.6 26.75 Q12.3 26.2 12.4 25.3 L12.4 24.75 12.3 23.4 11.35 21.15 10.0 19.55 Q9.35 19.0 8.55 18.6 L8.4 18.45 6.15 18.35 5.85 18.45"/><path fill="#f2be73" stroke="none" d="M13.0 28.7 L12.0 29.2 Q10.6 29.7 8.4 28.65 6.15 27.45 4.5 24.95 2.9 22.45 2.9 20.0 2.9 17.35 4.5 16.45 L4.85 16.3 Q6.25 15.7 8.25 16.55 L8.4 16.65 8.55 16.75 8.8 16.9 Q9.15 16.7 9.65 16.45 L10.95 15.7 16.85 12.95 17.55 12.65 26.35 8.2 25.05 8.15 Q25.35 7.2 30.4 5.05 L35.5 3.0 35.55 3.0 35.65 3.05 37.0 3.9 29.65 7.6 37.0 5.7 38.6 5.3 38.75 5.45 37.0 6.05 36.85 6.05 Q35.5 6.1 32.5 7.75 L33.05 8.05 33.75 8.6 Q33.2 9.05 30.2 10.5 L26.25 12.25 25.55 12.45 20.0 14.3 19.95 14.2 19.65 14.35 19.45 14.55 18.85 15.2 16.85 16.85 12.3 19.85 12.15 19.9 12.2 19.95 12.55 20.45 13.75 22.8 14.05 23.85 14.25 24.95 14.25 25.1 14.25 25.7 14.15 26.6 Q13.9 28.0 13.0 28.7 M5.35 17.7 Q4.1 18.35 4.1 20.55 4.1 22.45 5.35 24.55 6.6 26.6 8.55 27.55 10.3 28.35 11.4 28.0 L12.2 27.55 Q13.0 26.9 13.15 25.8 L13.15 25.15 13.0 23.6 12.85 23.05 11.85 20.9 10.3 18.95 Q9.5 18.35 8.55 17.85 L8.35 17.7 5.65 17.55 5.35 17.7 M5.85 18.45 L6.15 18.35 8.4 18.45 8.55 18.6 Q9.35 19.0 10.0 19.55 L11.35 21.15 12.3 23.4 12.4 24.75 12.4 25.3 Q12.3 26.2 11.6 26.75 L10.95 27.15 Q10.0 27.45 8.55 26.75 6.95 25.95 5.85 24.2 4.8 22.5 4.8 20.85 4.8 19.0 5.85 18.45 M8.55 21.2 L8.5 21.15 7.65 21.1 7.55 21.15 Q7.15 21.35 7.15 22.05 7.15 22.65 7.55 23.3 L8.55 24.25 9.45 24.4 9.7 24.25 10.0 23.7 10.0 23.5 9.95 23.0 9.6 22.15 9.1 21.55 8.55 21.2"/><path fill="#d1a348" stroke="none" d="M4.85 16.3 Q19.3 9.6 32.1 2.75 L35.5 2.95 35.5 3.0 30.4 5.05 Q25.35 7.2 25.05 8.15 L26.35 8.2 17.55 12.65 16.85 12.95 10.95 15.7 9.65 16.45 Q9.15 16.7 8.8 16.9 L8.55 16.75 8.4 16.65 8.25 16.55 Q6.25 15.7 4.85 16.3 M38.75 5.45 L39.8 6.85 40.35 7.8 Q39.2 8.4 37.65 9.65 L35.15 11.55 35.15 11.45 35.5 10.55 Q32.05 11.4 26.4 14.5 24.0 15.8 22.6 16.8 20.55 18.15 20.55 18.85 L20.65 19.3 Q20.65 19.9 17.45 21.3 15.35 22.25 13.75 22.8 L12.55 20.45 12.2 19.95 12.3 19.85 16.85 16.85 18.85 15.2 19.45 14.55 19.65 14.35 19.95 14.2 20.0 14.3 25.55 12.45 26.25 12.25 30.2 10.5 Q33.2 9.05 33.75 8.6 L33.05 8.05 32.5 7.75 Q35.5 6.1 36.85 6.05 L37.0 6.05 38.75 5.45"/><path fill="none" stroke="#000000" stroke-width="1.0" stroke-opacity="0.301960784314" d="M40.35 7.8 Q41.0 9.0 41.3 10.25 L41.4 10.75 41.5 12.1 41.4 13.0 Q41.15 14.4 40.25 15.1 26.2 21.15 13.0 28.7 L12.0 29.2 Q10.6 29.7 8.4 28.65 6.15 27.45 4.5 24.95 2.9 22.45 2.9 20.0 2.9 17.35 4.5 16.45 L4.85 16.3 Q19.3 9.6 32.1 2.75 L35.5 2.95 35.55 3.0 35.65 3.05 37.0 3.9 37.0 5.7 38.6 5.3 38.75 5.45 39.8 6.85 40.35 7.8"/><path fill="none" stroke="#000000" stroke-width="0.5" stroke-opacity="0.301960784314" d="M37.0 3.9 L29.65 7.6 37.0 5.7"/></g><g id="c16"><g><use transform="matrix(1.0,0.0,0.0,1.0,0.0,0.0)" xlink:href="#c15"/></g></g><g id="c17"><path fill="#873a3a" stroke="none" d="M33.95 4.4 L31.9 5.65 31.4 5.9 33.95 4.4"/><path fill="#c97070" stroke="none" d="M16.1 26.25 L16.3 26.95 16.1 26.3 16.1 26.25"/><path fill="#421c1c" stroke="none" d="M16.3 26.95 L16.25 26.9 16.1 26.3 16.3 26.95"/><path fill="#703030" stroke="none" d="M15.3 21.35 L15.4 21.3 15.3 21.35"/><path fill="#220d0d" stroke="none" d="M16.25 26.9 L16.3 26.95 16.25 26.95 16.25 26.9"/><path fill="#523701" stroke="none" d="M46.1 4.9 L46.85 6.0 47.35 6.85 46.9 7.35 Q41.85 10.75 34.7 14.85 L25.75 19.75 37.15 16.25 16.3 26.95 16.1 26.25 15.55 24.5 32.05 13.55 19.55 19.25 15.4 21.3 15.3 21.35 15.15 21.15 15.05 20.95 14.15 19.8 14.1 19.7 13.8 19.4 Q18.7 17.05 31.75 11.3 L19.05 18.45 Q25.0 15.6 31.25 12.7 39.55 8.7 46.1 4.9 M4.9 16.15 Q15.8 11.7 24.7 7.15 31.45 3.65 37.05 0.15 L37.6 0.05 37.8 0.05 38.9 0.05 40.45 0.45 35.05 3.75 36.35 2.25 Q25.3 8.65 8.4 15.95 L6.6 15.75 5.1 16.1 4.9 16.15 M9.2 16.2 L24.45 11.25 12.35 18.05 12.3 18.05 11.5 17.45 10.55 16.85 10.35 16.7 9.95 16.5 9.7 16.4 9.2 16.2"/><path fill="#8e5902" stroke="none" d="M45.65 4.35 L46.1 4.9 Q39.55 8.7 31.25 12.7 25.0 15.6 19.05 18.45 L31.75 11.3 Q18.7 17.05 13.8 19.4 L12.95 18.55 12.35 18.05 24.45 11.25 9.2 16.2 9.15 16.2 8.4 15.95 Q25.3 8.65 36.35 2.25 L35.05 3.75 40.45 0.45 41.4 -0.1 41.8 0.1 42.2 0.3 45.7 2.9 34.45 8.75 45.65 4.35 M47.05 13.6 L48.95 14.65 35.75 19.15 47.05 13.6 M31.4 5.9 L31.9 5.65 33.95 4.4 31.4 5.9 M35.05 3.75 L33.95 4.4 35.05 3.75 M17.1 28.45 L22.5 25.95 18.35 29.15 17.1 28.45"/><path fill="#bd8323" stroke="none" d="M15.8 28.45 L14.35 27.75 14.35 27.2 14.15 25.9 Q13.8 24.5 13.05 23.1 L12.7 22.55 13.8 22.05 14.15 21.85 14.5 22.4 14.65 22.65 14.7 22.75 15.55 24.5 16.1 26.25 16.1 26.3 16.25 26.9 16.25 26.95 16.4 28.05 16.4 28.1 16.4 28.75 15.8 28.45"/><path fill="#9e6d1d" stroke="none" d="M16.25 32.85 L16.2 32.9 14.85 33.55 13.45 31.35 14.6 30.75 15.0 30.4 Q15.55 29.7 15.75 28.65 L15.8 28.45 16.4 28.75 17.1 28.45 18.35 29.15 Q17.25 32.0 16.25 32.85 M13.8 22.05 L13.45 21.55 12.2 20.2 10.85 19.2 10.0 18.7 9.85 18.6 Q8.75 18.15 7.85 18.15 L6.45 18.4 6.3 18.45 4.9 16.15 5.1 16.1 6.6 15.75 8.4 15.95 9.15 16.2 9.2 16.2 9.7 16.4 9.95 16.5 10.35 16.7 10.55 16.85 11.5 17.45 12.3 18.05 12.35 18.05 12.95 18.55 13.8 19.4 14.1 19.7 14.15 19.8 15.05 20.95 15.15 21.15 15.3 21.35 14.15 21.85 13.8 22.05"/><path fill="#2b1c00" stroke="none" d="M45.7 2.9 L45.65 4.35 34.45 8.75 45.7 2.9 M47.35 6.85 Q48.9 9.65 49.1 12.6 L47.05 13.6 35.75 19.15 48.95 14.65 Q48.7 16.2 47.5 17.3 30.45 24.05 18.2 31.75 L16.25 32.85 Q17.25 32.0 18.35 29.15 L22.5 25.95 17.1 28.45 16.4 28.75 16.4 28.1 16.4 28.05 16.25 26.95 16.3 26.95 37.15 16.25 25.75 19.75 34.7 14.85 Q41.85 10.75 46.9 7.35 L47.35 6.85 M15.4 21.3 L19.55 19.25 32.05 13.55 15.55 24.5 14.7 22.75 14.65 22.65 14.5 22.4 14.15 21.85 14.75 21.6 14.8 21.6 14.85 21.55 15.3 21.35 15.4 21.3 M28.1 23.3 L22.5 25.95 28.1 23.3"/><path fill="none" stroke="#000000" stroke-width="0.5" stroke-opacity="0.301960784314" d="M45.7 2.9 L45.65 4.35 46.1 4.9 46.85 6.0 47.35 6.85 Q48.9 9.65 49.1 12.6 L47.05 13.6 48.95 14.65 Q48.7 16.2 47.5 17.3 L47.3 17.45 Q34.75 22.45 18.2 31.75 L16.25 32.85 16.2 32.9 14.85 33.55 M15.0 30.4 Q15.55 29.7 15.75 28.65 L15.8 28.45 14.35 27.75 14.35 27.2 14.15 25.9 Q13.8 24.5 13.05 23.1 L12.7 22.55 13.8 22.05 13.45 21.55 12.2 20.2 10.85 19.2 10.0 18.7 9.85 18.6 Q8.75 18.15 7.85 18.15 L6.45 18.4 6.3 18.45 M4.9 16.15 L4.85 16.15 4.9 16.15 Q15.8 11.7 24.7 7.15 31.45 3.65 37.05 0.15 L37.6 0.05 37.8 0.05 38.9 0.05 40.45 0.45 41.4 -0.1 41.8 0.1 42.2 0.3 45.7 2.9 M34.45 8.75 L45.65 4.35 M31.4 5.9 L33.95 4.4 35.05 3.75 M40.45 0.45 L35.05 3.75 M15.3 21.35 L15.4 21.3 19.55 19.25 M14.15 21.85 L14.75 21.6 14.8 21.6 14.85 21.55 15.3 21.35 14.15 21.85 13.8 22.05 M16.4 28.75 L17.1 28.45 22.5 25.95 28.1 23.3 M15.8 28.45 L16.4 28.75 M18.35 29.15 L22.5 25.95 M47.05 13.6 L35.75 19.15 48.95 14.65"/></g><g id="c18"><g><use transform="matrix(1.0,0.0,0.0,1.0,0.0,0.0)" xlink:href="#c17"/></g></g><g id="c19"><path fill="#421400" stroke="none" d="M14.95 2.3 Q15.35 4.55 16.55 5.4 19.4 7.4 19.4 10.25 19.4 13.1 16.55 15.1 15.05 16.15 13.3 16.65 L11.5 17.0 11.45 16.9 Q12.5 16.55 12.95 15.95 13.35 15.45 13.35 14.75 13.35 14.05 12.95 13.35 L11.45 11.8 Q9.55 10.4 6.9 9.8 L2.3 9.9 1.35 10.4 Q0.4 11.05 0.4 12.1 L0.35 12.15 Q0.0 11.25 0.0 10.25 0.0 7.4 2.85 5.4 5.7 3.4 9.7 3.4 12.0 3.4 14.95 2.3 M14.15 4.9 Q13.25 3.9 10.35 3.9 8.3 3.9 5.9 4.7 2.9 5.65 2.9 7.05 2.9 8.45 6.95 7.85 10.8 7.25 16.2 9.0 15.05 5.9 14.15 4.9"/><path fill="#a3502f" stroke="none" d="M14.15 4.9 Q15.05 5.9 16.2 9.0 10.8 7.25 6.95 7.85 2.9 8.45 2.9 7.05 2.9 5.65 5.9 4.7 8.3 3.9 10.35 3.9 13.25 3.9 14.15 4.9"/><path fill="#e8e672" stroke="none" d="M2.0 14.8 Q0.5 13.55 0.4 12.3 L0.4 12.1 Q0.4 11.05 1.35 10.4 L2.3 9.9 6.9 9.8 Q9.55 10.4 11.45 11.8 L12.95 13.35 Q13.35 14.05 13.35 14.75 13.35 15.45 12.95 15.95 12.2 14.4 10.9 13.35 9.6 12.3 7.6 11.85 5.55 11.4 3.3 11.8 1.05 12.2 2.0 14.8"/><path fill="#2b1c00" stroke="none" d="M11.5 17.0 L11.0 17.05 11.45 16.9 11.5 17.0 M0.4 12.3 L0.35 12.15 0.4 12.1 0.4 12.3"/><path fill="#bfba59" stroke="none" d="M11.0 17.05 Q9.25 17.55 6.9 17.0 L6.05 16.8 5.55 16.65 Q3.7 16.05 2.3 15.0 L2.0 14.8 Q1.05 12.2 3.3 11.8 5.55 11.4 7.6 11.85 9.6 12.3 10.9 13.35 12.2 14.4 12.95 15.95 12.5 16.55 11.45 16.9 L11.0 17.05"/><path fill="none" stroke="#000000" stroke-width="0.5" stroke-opacity="0.301960784314" d="M14.95 2.3 Q15.35 4.55 16.55 5.4 19.4 7.4 19.4 10.25 19.4 13.1 16.55 15.1 15.05 16.15 13.3 16.65 L11.5 17.0 11.0 17.05 Q9.25 17.55 6.9 17.0 L6.05 16.8 M5.55 16.65 Q3.7 16.05 2.3 15.0 L2.0 14.8 Q0.5 13.55 0.4 12.3 L0.35 12.15 Q0.0 11.25 0.0 10.25 0.0 7.4 2.85 5.4 5.7 3.4 9.7 3.4 12.0 3.4 14.95 2.3 L14.95 0.4 M14.95 2.3 L16.8 0.0 M14.95 2.3 L16.9 2.3 M0.4 12.3 L0.4 12.1 Q0.4 11.05 1.35 10.4 L2.3 9.9 6.9 9.8 Q9.55 10.4 11.45 11.8 L12.95 13.35 Q13.35 14.05 13.35 14.75 13.35 15.45 12.95 15.95 12.5 16.55 11.45 16.9 L11.0 17.05"/></g><g id="c20"><g><use transform="matrix(1.0,0.0,0.0,1.0,0.0,0.0)" xlink:href="#c19"/></g></g><g id="c21"><path fill="#e8e672" stroke="none" d="M6.3 0.7 L9.4 0.6 10.2 1.75 Q10.85 3.05 11.25 5.25 11.55 7.05 12.55 7.9 13.4 8.65 14.8 8.7 17.75 8.7 16.75 10.35 15.75 11.1 14.6 11.45 15.55 9.8 12.25 9.2 10.85 8.95 10.2 8.2 9.2 7.05 9.55 4.95 9.9 2.6 9.45 1.6 L8.7 0.85 6.3 0.75 6.3 0.7"/><path fill="#96a419" stroke="none" d="M14.6 11.45 L12.55 11.7 10.9 11.55 8.7 13.25 8.7 10.6 7.4 9.55 6.95 9.05 1.9 10.65 5.9 7.45 Q5.45 6.45 5.35 5.3 L0.0 4.65 5.4 3.3 Q5.6 1.9 6.25 0.8 L6.3 0.75 8.7 0.85 9.45 1.6 Q9.9 2.6 9.55 4.95 9.2 7.05 10.2 8.2 10.85 8.95 12.25 9.2 15.55 9.8 14.6 11.45"/><path fill="#000000" fill-opacity="0.301960784314" d="M6.25 0.8 L6.3 0.7 6.3 0.75 6.25 0.8"/><path fill="none" stroke="#000000" stroke-width="0.5" stroke-opacity="0.301960784314" d="M6.3 0.7 L9.4 0.6 10.2 1.75 Q10.85 3.05 11.25 5.25 11.55 7.05 12.55 7.9 13.4 8.65 14.8 8.7 17.75 8.7 16.75 10.35 15.75 11.1 14.6 11.45 L12.55 11.7 10.9 11.55 8.7 13.25 8.7 10.6 7.4 9.55 6.95 9.05 1.9 10.65 5.9 7.45 Q5.45 6.45 5.35 5.3 L0.0 4.65 5.4 3.3 Q5.6 1.9 6.25 0.8"/></g><g id="c22"><g><use transform="matrix(1.0,0.0,0.0,1.0,0.0,0.0)" xlink:href="#c21"/></g></g><g id="c23"><g><use transform="matrix(1.0,0.0,0.0,1.0,0.0,0.0)" xlink:href="#c10"/></g><g><use transform="matrix(1.27586364746,-0.637924194336,0.266754150391,0.13493347168,9.25,42.7)" xlink:href="#c12"/></g><g><use transform="matrix(1.0,0.0,0.0,1.0,0.4,25.5)" xlink:href="#c14"/></g><g><use transform="matrix(1.0,0.0,0.0,1.0,0.85,10.3)" xlink:href="#c16"/></g><g><use transform="matrix(1.0,0.0,0.0,1.0,-2.0,9.2)" xlink:href="#c18"/></g><g><use transform="matrix(0.571594238281,0.0,0.0,0.571594238281,33.3,26.75)" xlink:href="#c20"/></g><g><use transform="matrix(-0.488220214844,0.0,0.0,0.488220214844,39.7,38.3)" xlink:href="#c20"/></g><g><use transform="matrix(0.301818847656,-0.495269775391,0.621002197266,0.513336181641,15.2,9.6)" xlink:href="#c20"/></g><g><use transform="matrix(-0.993499755859,0.0596313476562,0.0596313476562,0.993499755859,37.9,4.8)" filter="url(#filter23)" xlink:href="#c22"/></g><g><use transform="matrix(0.966430664062,0.245758056641,-0.245758056641,0.966430664062,12.1,3.5)" xlink:href="#c22"/></g></g><filter id="filter23"><feColorMatrix in="SourceGraphic" type="matrix" values="0.6171875 0.0 0.0 0.0 0.0625 0.0 0.6171875 0.0 0.0 0.04296875 0.0 0.0 0.6171875 0.0 0.0 0.0 0.0 0.0 1.0 0.0" result="cxform"/><feComposite operator="in" in2="SourceGraphic" result="color-xform"/></filter><g id="c24"><g><use transform="matrix(0.277160644531,-0.277160644531,0.277160644531,0.277160644531,-5.9,6.95)" xlink:href="#c23"/></g></g><g id="c25"><g><use transform="matrix(1.0,0.0,0.0,1.0,6.3,53.35)" xlink:href="#c9"/></g><g><use transform="matrix(1.0,0.0,0.0,1.0,19.85,68.2)" xlink:href="#c24"/></g><g><use transform="matrix(0.141098022461,-0.0378112792969,0.111373901367,0.225646972656,27.2,74.05)" filter="url(#filter28)" xlink:href="#c6"/></g></g><filter id="filter28"><feColorMatrix in="SourceGraphic" type="matrix" values="1.0 0.0 0.0 0.0 0.0 0.0 1.0 0.0 0.0 0.0 0.0 0.0 1.0 0.0 0.0 0.0 0.0 0.0 0.23046875 0.0" result="cxform"/><feComposite operator="in" in2="SourceGraphic" result="color-xform"/></filter></defs><g><g><use transform="matrix(1.0,0.0,0.0,1.0,0.0,0.0)" xlink:href="#c1"/></g><g><use transform="matrix(1.15496826172,0.0,0.0,1.15496826172,-1.4,-57.4)" xlink:href="#c25"/></g></g></svg>