<?xml version='1.0' encoding='UTF-8'?>
<svg xmlns:xlink="http://www.w3.org/1999/xlink" xmlns="http://www.w3.org/2000/svg" version="1.1" width="60px" height="60px" viewBox="0.0 0.0 60.0 60.0"><defs><g id="c1"><path fill="#000000" fill-opacity="0.00392156862745" d="M0.0 0.0 L60.0 0.0 60.0 60.0 0.0 60.0 0.0 0.0"/></g><g id="c2"><path fill="none" stroke="#000000" stroke-width="1.0" stroke-opacity="0.301960784314" d="M28.45 3.1 L41.35 31.7 Q42.95 35.15 40.2 36.7 39.5 37.3 38.3 37.65 L36.35 38.3 36.15 38.15 34.0 36.9 33.8 36.8 Q30.65 35.45 27.7 36.35 24.75 37.3 23.7 40.05 L23.6 40.25 Q23.25 41.25 23.25 42.3 L23.25 42.35 23.25 42.55 19.8 43.65 Q17.15 44.45 15.5 43.3 14.35 42.55 13.65 40.9 L0.7 12.25 Q-0.45 9.75 0.75 8.25 1.2 7.6 2.15 7.15 2.8 6.7 3.8 6.35 L6.45 5.5 8.5 6.75 8.7 6.85 Q11.9 8.2 14.85 7.25 17.8 6.35 18.85 3.6 L18.9 3.4 19.3 1.35 22.3 0.4 Q26.55 -1.0 28.45 3.1"/><path fill="#9d147b" stroke="none" d="M35.55 22.3 L28.25 6.1 27.75 4.95 Q26.05 1.25 21.6 2.85 20.8 5.65 18.85 7.6 17.0 9.45 14.2 9.8 11.45 9.95 9.0 8.8 L6.4 7.45 Q1.65 9.1 3.35 12.8 L8.25 23.65 15.0 38.6 15.2 39.0 Q16.8 42.25 20.45 41.1 L21.65 40.55 Q22.7 36.9 25.05 35.5 27.4 34.15 30.2 34.2 33.05 34.2 36.25 36.1 L37.2 35.7 Q41.1 34.5 39.35 30.75 L35.55 22.3 M19.3 1.35 L22.3 0.4 Q26.55 -1.0 28.45 3.1 L41.35 31.7 Q42.95 35.15 40.2 36.7 L38.9 37.25 36.15 38.15 34.0 36.9 33.8 36.8 Q30.65 35.45 27.7 36.35 24.75 37.3 23.7 40.05 L23.6 40.25 Q23.25 41.25 23.25 42.3 L23.2 42.3 20.4 43.2 19.1 43.5 17.3 43.4 Q15.3 42.9 14.2 40.5 L5.45 20.95 1.35 11.8 Q0.4 9.65 1.1 8.3 1.45 7.65 2.15 7.15 2.8 6.7 3.8 6.35 L6.45 5.5 8.5 6.75 8.7 6.85 Q11.9 8.2 14.85 7.25 17.8 6.35 18.85 3.6 L18.9 3.4 19.3 1.35"/><path fill="#c47fad" stroke="none" d="M28.25 6.1 L35.55 22.3 39.35 30.75 Q41.1 34.5 37.2 35.7 L36.25 36.1 Q33.05 34.2 30.2 34.2 27.4 34.15 25.05 35.5 22.7 36.9 21.65 40.55 L20.45 41.1 Q16.8 42.25 15.2 39.0 L15.0 38.6 8.25 23.65 3.35 12.8 Q1.65 9.1 6.4 7.45 L9.0 8.8 Q11.45 9.95 14.2 9.8 17.0 9.45 18.85 7.6 20.8 5.65 21.6 2.85 26.05 1.25 27.75 4.95 L28.25 6.1 M34.0 32.9 L33.7 32.1 Q33.45 30.9 34.1 30.1 34.75 29.3 35.95 29.35 L35.8 29.0 26.5 8.3 26.25 7.85 Q24.9 5.45 22.05 6.35 19.75 11.1 14.85 11.65 11.45 11.85 9.1 10.55 L9.55 11.6 Q9.8 12.8 9.15 13.6 8.4 14.45 7.1 14.4 L6.8 14.4 6.95 14.6 16.3 35.2 Q16.8 36.4 17.65 37.0 18.8 37.8 19.8 37.35 21.8 33.7 25.95 32.3 30.35 30.8 34.0 32.9"/><path fill="#fcf2cf" stroke="none" d="M22.05 6.35 Q24.9 5.45 26.25 7.85 L26.5 8.3 35.8 29.0 35.95 29.35 Q34.75 29.3 34.1 30.1 33.45 30.9 33.7 32.1 L34.0 32.9 Q30.35 30.8 25.95 32.3 21.8 33.7 19.8 37.35 18.8 37.8 17.65 37.0 16.8 36.4 16.3 35.2 L6.95 14.6 6.8 14.4 7.1 14.4 Q8.4 14.45 9.15 13.6 9.8 12.8 9.55 11.6 L9.1 10.55 Q11.45 11.85 14.85 11.65 19.75 11.1 22.05 6.35"/><path fill="#300525" stroke="none" d="M40.2 36.7 Q39.5 37.3 38.3 37.65 L36.35 38.3 36.15 38.15 38.9 37.25 40.2 36.7 M23.25 42.3 L23.25 42.35 23.2 42.3 23.25 42.3 M20.1 43.55 L19.8 43.65 Q17.15 44.45 15.5 43.3 L17.3 43.4 19.1 43.5 20.1 43.55 M4.6 20.9 L0.7 12.25 Q-0.45 9.75 0.75 8.25 L1.1 8.3 Q0.4 9.65 1.35 11.8 L5.45 20.95 4.6 20.9"/><path fill="#630a4c" stroke="none" d="M23.25 42.35 L23.25 42.55 20.1 43.55 19.1 43.5 20.4 43.2 23.2 42.3 23.25 42.35 M15.5 43.3 Q14.35 42.55 13.65 40.9 L4.6 20.9 5.45 20.95 14.2 40.5 Q15.3 42.9 17.3 43.4 L15.5 43.3 M0.75 8.25 Q1.2 7.6 2.15 7.15 1.45 7.65 1.1 8.3 L0.75 8.25"/><path fill="none" stroke="#bf9900" stroke-width="1.0" stroke-opacity="0.749019607843" d="M28.25 6.1 L35.55 22.3 M15.0 38.6 L8.25 23.65"/><path fill="none" stroke="#000000" stroke-width="0.5" stroke-opacity="0.301960784314" d="M19.3 1.35 L22.3 0.4 Q26.55 -1.0 28.45 3.1 L41.35 31.7 Q42.95 35.15 40.2 36.7 39.5 37.3 38.3 37.65 L36.35 38.3 M23.25 42.55 L20.1 43.55 19.8 43.65 Q17.15 44.45 15.5 43.3 14.35 42.55 13.65 40.9 L4.6 20.9 0.7 12.25 Q-0.45 9.75 0.75 8.25 1.2 7.6 2.15 7.15 2.8 6.7 3.8 6.35 L6.45 5.5 M1.1 8.3 Q1.45 7.65 2.15 7.15 M5.45 20.95 L1.35 11.8 Q0.4 9.65 1.1 8.3 M17.3 43.4 Q15.3 42.9 14.2 40.5 L5.45 20.95 M19.1 43.5 L17.3 43.4 M23.2 42.3 L20.4 43.2 19.1 43.5 M23.25 42.3 L23.2 42.3 M40.2 36.7 L38.9 37.25 36.15 38.15"/><path fill="none" stroke="#ffcc00" stroke-width="1.0" stroke-opacity="0.749019607843" d="M35.55 22.3 L39.35 30.75 Q41.1 34.5 37.2 35.7 L36.25 36.1 M21.65 40.55 L20.45 41.1 Q16.8 42.25 15.2 39.0 L15.0 38.6 M8.25 23.65 L3.35 12.8 Q1.65 9.1 6.4 7.45 M21.6 2.85 Q26.05 1.25 27.75 4.95 L28.25 6.1"/><path fill="none" stroke="#f0b92b" stroke-width="0.5" d="M22.05 6.35 Q24.9 5.45 26.25 7.85 L26.5 8.3 35.8 29.0 35.95 29.35 Q34.75 29.3 34.1 30.1 33.45 30.9 33.7 32.1 L34.0 32.9 M19.8 37.35 Q18.8 37.8 17.65 37.0 16.8 36.4 16.3 35.2 L6.95 14.6 6.8 14.4 7.1 14.4 Q8.4 14.45 9.15 13.6 9.8 12.8 9.55 11.6 L9.1 10.55"/><path fill="none" stroke="#ffaa00" stroke-width="1.0" stroke-opacity="0.749019607843" d="M36.25 36.1 Q33.05 34.2 30.2 34.2 27.4 34.15 25.05 35.5 22.7 36.9 21.65 40.55 M6.4 7.45 L9.0 8.8 Q11.45 9.95 14.2 9.8 17.0 9.45 18.85 7.6 20.8 5.65 21.6 2.85"/><path fill="none" stroke="#ffaa00" stroke-width="0.5" stroke-opacity="0.749019607843" d="M34.0 32.9 Q30.35 30.8 25.95 32.3 21.8 33.7 19.8 37.35 M9.1 10.55 Q11.45 11.85 14.85 11.65 19.75 11.1 22.05 6.35"/></g><g id="c3"><path fill="#7fdbfe" stroke="none" d="M10.75 4.9 Q10.75 4.6 10.9 4.35 11.25 3.45 11.95 2.75 13.3 1.5 14.35 2.1 15.4 2.7 14.95 4.45 14.7 5.4 14.1 6.15 L13.75 6.5 Q13.1 7.15 12.35 7.35 L11.4 7.2 Q10.95 6.9 10.75 6.4 10.5 5.75 10.75 4.9 M9.3 1.7 Q9.55 2.65 9.4 3.6 L9.3 4.15 8.5 5.5 7.6 5.9 7.5 5.9 Q7.0 5.85 6.6 5.5 6.05 5.0 5.8 4.15 L5.7 3.6 Q5.55 2.65 5.8 1.7 6.25 0.0 7.5 0.0 L7.6 0.0 Q8.85 0.0 9.3 1.7 M0.15 4.45 Q-0.3 2.7 0.75 2.1 1.8 1.5 3.15 2.75 3.85 3.45 4.2 4.35 L4.35 4.9 Q4.6 5.75 4.35 6.4 L3.7 7.2 2.75 7.35 Q2.0 7.15 1.35 6.5 L1.0 6.15 Q0.4 5.4 0.15 4.45 M7.55 7.0 Q8.75 6.9 9.9 7.6 11.45 8.5 11.95 10.25 12.35 12.0 11.5 12.95 10.7 13.9 9.65 13.7 8.55 13.5 7.55 12.6 6.55 13.5 5.5 13.7 4.45 13.9 3.65 12.95 2.75 12.0 3.2 10.25 3.7 8.5 5.25 7.6 6.4 6.9 7.55 7.0"/></g><g id="c4"><g><use transform="matrix(1.0,0.0,0.0,1.0,0.0,0.0)" xlink:href="#c3"/></g></g><radialGradient gradientUnits="userSpaceOnUse" r="819.2" cx="0" cy="0" spreadMethod="pad" gradientTransform="matrix(0.0914459228516,0.0,0.0,0.0914459228516,0.6,3.4)" id="gradient1"><stop offset="0.0" stop-color="#ffffff"/><stop offset="1.0" stop-color="#ffffff" stop-opacity="0.0"/></radialGradient><g id="c5"><path stroke="none" fill="url(#gradient1)" d="M36.65 -54.65 Q60.05 -42.0 69.75 -17.95 80.55 8.9 68.0 34.1 55.45 59.35 26.8 68.2 -1.8 77.05 -29.7 64.3 -57.6 51.6 -68.45 24.75 -79.3 -2.05 -66.75 -27.25 L-66.7 -27.3 Q-54.1 -52.5 -25.5 -61.4 3.1 -70.2 31.0 -57.5 L36.65 -54.65"/></g><g id="c6"><g><use transform="matrix(1.0,0.0,0.0,1.0,0.0,0.0)" xlink:href="#c5"/></g></g><radialGradient gradientUnits="userSpaceOnUse" r="819.2" cx="0" cy="0" spreadMethod="pad" gradientTransform="matrix(0.209197998047,0.0,0.0,0.177108764648,67.15,107.2)" id="gradient2"><stop offset="0.356862745098" stop-color="#ffffff"/><stop offset="0.670588235294" stop-opacity="0.0"/></radialGradient><g id="c7"><path fill="none" stroke-linejoin="round" stroke-linecap="round" stroke="url(#gradient2)" stroke-width="0.5" d="M136.55 165.8 L68.6 106.0 68.4 106.0 118.25 201.5 M68.3 105.8 L68.35 105.8 68.3 105.8 68.3 105.85 68.4 106.0 68.3 106.0 86.55 211.5 M68.3 105.8 L68.3 105.85 68.3 106.0 68.15 105.95 18.25 151.55 M68.3 105.85 L68.25 105.85 68.3 106.0 50.0 193.2 M68.25 105.85 L68.15 105.95 0.05 97.7 M68.3 105.85 L68.25 105.8 68.25 105.85 M68.25 105.8 L68.2 105.7 0.0 45.7 M68.3 105.8 L68.25 105.75 68.25 105.8 M68.25 105.75 L68.2 105.7 18.25 10.05 M68.6 106.0 L68.35 105.8 118.25 60.15 M86.6 18.35 L68.3 105.8 M136.6 114.25 L68.6 106.0 M68.25 105.75 L49.95 0.05"/></g><g id="c8"><g><use transform="matrix(1.0,0.0,0.0,1.0,0.0,0.0)" xlink:href="#c7"/></g></g><g id="c9"><g><use transform="matrix(1.0,0.0,0.0,1.0,0.0,0.0)" xlink:href="#c2"/></g><g><use transform="matrix(0.238861083984,-0.0867004394531,0.10026550293,0.233917236328,34.25,31.15)" xlink:href="#c4"/></g><g><use transform="matrix(0.238861083984,-0.0867004394531,0.10026550293,0.233917236328,4.25,10.3)" xlink:href="#c4"/></g><g><use transform="matrix(0.141098022461,-0.0378112792969,0.111373901367,0.225646972656,20.25,20.65)" filter="url(#filter7)" xlink:href="#c6"/></g><g><use transform="matrix(-0.155029296875,0.0513153076172,0.0841827392578,0.147033691406,22.6,3.15)" filter="url(#filter8)" xlink:href="#c8"/></g></g><filter id="filter7"><feColorMatrix in="SourceGraphic" type="matrix" values="0.0 0.0 0.0 0.0 0.796875 0.0 0.0 0.0 0.0 0.59765625 0.0 0.0 0.0 0.0 0.19921875 0.0 0.0 0.0 1.0 0.0" result="cxform"/><feComposite operator="in" in2="SourceGraphic" result="color-xform"/></filter><filter id="filter8"><feColorMatrix in="SourceGraphic" type="matrix" values="0.0 0.0 0.0 0.0 0.99609375 0.0 0.0 0.0 0.0 0.99609375 0.0 0.0 0.0 0.0 0.99609375 0.0 0.0 0.0 1.0 0.0" result="cxform"/><feComposite operator="in" in2="SourceGraphic" result="color-xform"/></filter><g id="c10"><path fill="#330000" stroke="none" d="M5.25 1.35 L5.1 1.6 Q2.7 5.15 1.45 4.1 0.75 3.6 1.8 2.0 L5.15 1.4 5.25 1.35"/><path fill="#805800" stroke="none" d="M1.8 2.0 Q0.75 3.6 1.45 4.1 2.7 5.15 5.1 1.6 L5.25 1.35 5.95 1.15 Q5.8 2.2 3.6 4.15 L3.45 4.25 Q2.3 5.1 0.6 4.6 L0.5 4.55 Q0.15 3.8 0.95 2.1 L1.8 2.0"/><path fill="#b88203" stroke="none" d="M5.25 1.35 L5.15 1.4 4.25 1.1 4.8 0.9 5.95 1.15 5.25 1.35"/><path fill="#650101" stroke="none" d="M5.15 1.4 L1.8 2.0 2.05 1.45 4.2 1.1 4.25 1.1 5.15 1.4"/><path fill="#fcc94b" stroke="none" d="M2.05 1.45 L1.8 2.0 0.95 2.1 0.55 1.5 2.05 1.45"/><path fill="#d49800" stroke="none" d="M0.55 1.5 L0.95 2.1 Q0.15 3.8 0.5 4.55 -0.55 3.7 0.55 1.5"/><path fill="none" stroke="#000000" stroke-width="0.5" stroke-opacity="0.301960784314" d="M5.25 1.35 L5.15 1.4 1.8 2.0 2.05 1.45 0.55 1.5 0.95 2.1 1.8 2.0 M5.95 1.15 L5.25 1.35 M2.05 1.45 L4.2 1.1 4.25 1.1 4.8 0.9 5.95 1.15 Q5.8 2.2 3.6 4.15 L3.45 4.25 Q2.3 5.1 0.6 4.6 L0.5 4.55 Q-0.55 3.7 0.55 1.5 M0.95 2.1 Q0.15 3.8 0.5 4.55 M5.15 1.4 L4.25 1.1"/><path fill="#804f00" stroke="none" d="M8.5 3.2 L9.75 3.9 12.15 5.05 13.75 5.65 14.05 5.75 14.55 5.95 14.65 6.05 14.9 6.2 Q15.8 7.0 15.8 7.85 L15.7 8.4 15.65 8.55 Q15.2 9.3 13.75 9.5 L13.4 9.55 13.2 9.55 12.7 9.6 10.7 9.35 10.1 9.15 9.5 8.85 10.0 8.55 12.05 9.1 12.35 9.1 13.75 8.75 13.8 8.75 Q14.5 8.35 14.5 7.85 14.5 7.25 13.75 6.75 L13.2 6.45 9.95 5.2 Q8.7 4.75 7.0 3.6 L6.9 3.5 Q5.25 2.4 3.95 2.4 L3.75 2.4 3.2 2.9 2.9 3.45 Q2.9 4.7 3.85 5.6 L4.6 6.2 5.15 6.45 7.2 7.3 8.15 7.7 8.8 8.0 8.25 8.25 6.65 7.45 6.5 7.35 5.0 6.6 3.3 5.55 3.25 5.55 2.95 5.3 Q1.95 4.25 1.75 3.4 L1.7 3.1 1.7 2.9 1.7 2.65 2.25 2.0 3.7 1.6 Q5.05 1.6 6.8 2.35 L8.4 3.15 8.5 3.2 M2.4 2.85 L3.4 2.45 3.75 2.4 3.4 2.45 2.4 2.85"/><path fill="#3d2100" stroke="none" d="M9.95 5.2 L13.2 6.45 13.75 6.75 Q14.5 7.25 14.5 7.85 14.5 8.35 13.8 8.75 L13.75 8.75 12.35 9.1 12.05 9.1 11.0 8.7 10.25 8.4 9.95 8.25 9.15 7.85 8.9 7.7 8.9 7.65 8.75 6.9 Q8.75 6.35 9.3 5.75 L9.95 5.2"/><path fill="#754000" stroke="none" d="M12.25 11.15 L12.15 11.2 12.0 11.3 12.5 10.65 13.0 10.2 Q13.3 9.95 13.75 9.9 L13.9 9.9 14.7 9.75 13.75 10.35 13.65 10.35 12.25 11.15"/><path fill="#543000" stroke="none" d="M15.65 8.55 L15.2 9.55 14.85 9.95 14.75 10.05 13.75 10.75 12.9 11.15 11.9 11.7 12.65 11.45 13.4 11.3 13.9 11.5 14.2 11.95 14.1 12.0 Q13.65 12.65 12.15 12.75 L9.7 12.65 9.15 12.45 8.85 12.3 9.3 9.1 9.35 8.9 9.4 8.8 8.25 8.25 8.8 8.0 9.0 8.1 9.55 8.35 9.7 8.45 10.0 8.55 9.5 8.85 10.1 9.15 10.7 9.35 12.7 9.6 13.2 9.55 13.4 9.55 13.75 9.5 Q15.2 9.3 15.65 8.55 M12.25 11.15 L13.65 10.35 13.75 10.35 14.7 9.75 13.9 9.9 13.75 9.9 Q13.3 9.95 13.0 10.2 L12.5 10.65 12.0 11.3 12.15 11.2 12.25 11.15"/><path fill="#2e1a00" stroke="none" d="M14.75 10.05 L14.3 11.55 14.2 11.95 13.9 11.5 13.4 11.3 12.65 11.45 11.9 11.7 12.9 11.15 13.75 10.75 14.75 10.05 M8.85 12.3 Q8.65 12.2 8.3 12.05 L7.9 11.8 7.3 11.5 6.9 11.35 7.45 10.75 Q8.25 9.65 8.25 8.35 L8.25 8.25 9.4 8.8 9.35 8.9 9.3 9.1 8.85 12.3 M1.6 6.35 L1.75 5.6 Q2.05 6.45 2.95 7.5 L2.2 7.0 1.6 6.35 M6.9 3.5 L6.6 3.8 Q6.1 4.3 6.1 5.35 L6.15 5.55 6.25 6.3 6.15 6.25 3.9 5.6 3.85 5.6 Q2.9 4.7 2.9 3.45 L3.2 2.9 3.75 2.4 3.95 2.4 Q5.25 2.4 6.9 3.5"/><path fill="#381e00" stroke="none" d="M6.25 6.3 L6.15 5.55 6.1 5.35 Q6.1 4.3 6.6 3.8 L6.9 3.5 7.0 3.6 Q8.7 4.75 9.95 5.2 L9.3 5.75 Q8.75 6.35 8.75 6.9 L8.9 7.65 8.85 7.65 7.8 7.1 6.3 6.35 6.25 6.3 M6.95 4.25 Q8.35 5.0 9.95 5.2 8.35 5.0 6.95 4.25"/><path fill="#482a00" stroke="none" d="M3.75 9.7 L2.65 8.9 Q1.5 7.7 1.5 6.75 L1.55 6.5 1.6 6.35 2.2 7.0 2.95 7.5 Q2.05 6.45 1.75 5.6 L1.65 5.1 1.75 3.4 Q1.95 4.25 2.95 5.3 L3.25 5.55 3.3 5.55 5.0 6.6 4.3 7.9 Q3.8 9.05 3.75 9.7"/><path fill="#5e3500" stroke="none" d="M6.9 11.35 L6.55 11.15 6.05 10.9 6.0 10.9 5.9 10.85 3.75 9.7 Q3.8 9.05 4.3 7.9 L5.0 6.6 6.5 7.35 6.65 7.45 8.25 8.25 8.25 8.35 Q8.25 9.65 7.45 10.75 L6.9 11.35"/><path fill="#99996f" stroke="none" d="M8.85 7.65 L8.9 7.65 8.9 7.7 8.85 7.65"/><path fill="none" stroke="#000000" stroke-width="0.5" stroke-opacity="0.301960784314" d="M8.5 3.2 L9.75 3.9 12.15 5.05 13.75 5.65 14.05 5.75 14.55 5.95 14.65 6.05 14.9 6.2 Q15.8 7.0 15.8 7.85 L15.7 8.4 15.65 8.55 15.2 9.55 14.85 9.95 14.75 10.05 14.3 11.55 14.2 11.95 M14.1 12.0 Q13.65 12.65 12.15 12.75 L9.7 12.65 9.15 12.45 8.85 12.3 Q8.65 12.2 8.3 12.05 L7.9 11.8 7.3 11.5 6.9 11.35 6.55 11.15 6.05 10.9 6.0 10.9 5.9 10.85 3.75 9.7 2.65 8.9 Q1.5 7.7 1.5 6.75 L1.55 6.5 1.6 6.35 1.75 5.6 1.65 5.1 1.75 3.4 1.7 3.1 1.7 2.9 1.7 2.65 2.25 2.0 3.7 1.6 Q5.05 1.6 6.8 2.35 L8.4 3.15 M9.95 5.2 L13.2 6.45 13.75 6.75 Q14.5 7.25 14.5 7.85 14.5 8.35 13.8 8.75 L13.75 8.75 12.35 9.1 12.05 9.1 10.0 8.55 9.7 8.45 9.55 8.35 9.0 8.1 8.8 8.0 8.15 7.7 7.2 7.3 5.15 6.45 4.6 6.2 3.85 5.6 3.9 5.6 6.15 6.25 6.25 6.3 6.3 6.35 7.8 7.1 8.85 7.65 8.9 7.7 9.15 7.85 9.95 8.25 10.25 8.4 11.0 8.7 12.05 9.1 M11.9 11.7 L12.9 11.15 13.75 10.75 14.75 10.05 M6.9 3.5 Q5.25 2.4 3.95 2.4 L3.75 2.4 3.2 2.9 2.9 3.45 Q2.9 4.7 3.85 5.6 M9.95 5.2 Q8.35 5.0 6.95 4.25 M6.9 3.5 L7.0 3.6 Q8.7 4.75 9.95 5.2 M3.75 2.4 L3.4 2.45 2.4 2.85 M1.75 5.6 Q2.05 6.45 2.95 7.5"/><path fill="none" stroke="#000000" stroke-width="0.5" stroke-opacity="0.152941176471" d="M11.7 9.55 L10.7 9.35 10.1 9.15 M15.65 8.55 Q15.2 9.3 13.75 9.5 M4.1 6.1 L3.3 5.55 3.25 5.55 2.95 5.3 2.6 4.9 M7.9 8.05 L6.65 7.45 6.5 7.35 6.1 7.15"/><path fill="#d49800" stroke="none" d="M8.5 9.15 L7.85 11.7 Q6.95 14.9 5.35 16.1 3.2 17.4 2.2 12.3 1.65 8.75 2.4 5.25 L2.5 4.85 2.5 4.8 2.55 4.85 2.7 5.25 2.7 5.35 Q2.1 8.4 2.6 11.5 3.35 16.85 5.25 15.2 6.75 13.0 7.3 11.1 L7.85 8.9 8.05 8.9 8.15 8.9 8.3 8.95 8.4 8.95 8.55 8.95 8.5 9.1 8.45 9.1 8.5 9.15 M2.55 4.85 L2.5 4.85 2.55 4.85"/><path fill="#fdd882" stroke="none" d="M2.55 4.85 L3.7 4.75 3.7 5.3 2.75 5.35 2.7 5.25 2.55 4.85"/><path fill="#700000" stroke="none" d="M3.7 5.3 Q5.25 7.35 8.85 6.7 L9.2 6.65 9.2 6.7 8.85 7.25 7.85 8.9 7.55 8.9 6.2 8.7 Q4.25 8.25 3.45 7.0 L2.75 5.35 3.7 5.3"/><path fill="#450000" stroke="none" d="M2.7 5.35 L2.75 5.35 3.45 7.0 Q4.25 8.25 6.2 8.7 L7.55 8.9 7.85 8.9 7.3 11.1 Q6.75 13.0 5.25 15.2 3.35 16.85 2.6 11.5 2.1 8.4 2.7 5.35"/><path fill="#730000" stroke="none" d="M2.7 5.25 L2.75 5.35 2.7 5.35 2.7 5.25"/><path fill="#fcc94b" stroke="none" d="M9.2 6.65 L9.2 6.6 9.7 8.45 8.95 8.05 8.55 8.95 8.4 8.95 8.3 8.95 8.15 8.9 8.05 8.9 7.85 8.9 8.85 7.25 9.2 6.7 9.2 6.65 M8.5 9.1 L8.5 9.15 8.45 9.1 8.5 9.1 M8.95 8.05 L9.1 7.65 8.95 8.05"/><path fill="none" stroke="#000000" stroke-width="0.5" stroke-opacity="0.301960784314" d="M8.5 9.15 L7.85 11.7 Q6.95 14.9 5.35 16.1 3.2 17.4 2.2 12.3 1.65 8.75 2.4 5.25 L2.5 4.85 2.5 4.8 2.55 4.85 3.7 4.75 3.7 5.3 Q5.25 7.35 8.85 6.7 L9.2 6.65 9.2 6.6 9.7 8.45 8.95 8.05 8.55 8.95 8.5 9.1 8.5 9.15 M2.75 5.35 L3.7 5.3 M2.7 5.25 L2.7 5.35 2.75 5.35 M7.55 8.9 L7.85 8.9 8.85 7.25 9.2 6.7 9.2 6.65 M2.5 4.85 L2.55 4.85 M7.85 8.9 L7.3 11.1 Q6.75 13.0 5.25 15.2 3.35 16.85 2.6 11.5 2.1 8.4 2.7 5.35 M9.1 7.65 L8.95 8.05"/><path fill="#fdd882" stroke="none" d="M4.5 16.0 L6.45 14.35 Q6.1 15.85 4.5 16.05 L4.5 16.0"/><path fill="#fdd882" stroke="none" d="M6.65 13.85 L6.6 13.85 Q6.3 13.55 6.7 13.35 L6.65 13.85"/><path fill="#5b4a24" stroke="none" d="M6.35 10.35 L6.6 9.85 6.45 9.2 6.05 8.8 5.65 8.9 Q5.4 9.05 5.4 9.35 L5.55 10.05 5.9 10.4 6.35 10.35"/><path fill="none" stroke="#000000" stroke-width="0.5" stroke-opacity="0.301960784314" d="M6.35 10.35 L6.6 9.85 6.45 9.2 6.05 8.8 5.65 8.9 Q5.4 9.05 5.4 9.35 L5.55 10.05 5.9 10.4 6.35 10.35"/><path fill="#000000" stroke="none" d="M6.4 10.25 L6.6 9.85 6.45 9.35 6.15 9.0 5.75 9.1 5.65 9.45 5.7 10.0 6.0 10.3 6.4 10.25"/><path fill="none" stroke="#000000" stroke-width="0.5" stroke-opacity="0.301960784314" d="M6.4 10.25 L6.6 9.85 6.45 9.35 6.15 9.0 5.75 9.1 5.65 9.45 5.7 10.0 6.0 10.3 6.4 10.25"/><path fill="#5b4a24" stroke="none" d="M2.8 8.45 L2.8 7.8 Q2.85 7.45 3.05 7.4 L3.5 7.5 3.85 8.0 3.9 8.65 3.6 9.05 3.15 9.0 2.8 8.45"/><path fill="none" stroke="#000000" stroke-width="0.5" stroke-opacity="0.301960784314" d="M2.8 8.45 L2.8 7.8 Q2.85 7.45 3.05 7.4 L3.5 7.5 3.85 8.0 3.9 8.65 3.6 9.05 3.15 9.0 2.8 8.45"/><path fill="#000000" stroke="none" d="M3.05 8.45 L3.0 7.95 3.2 7.6 3.55 7.65 3.85 8.05 3.9 8.6 3.7 8.9 3.3 8.85 3.05 8.45"/><path fill="none" stroke="#000000" stroke-width="0.5" stroke-opacity="0.301960784314" d="M3.05 8.45 L3.0 7.95 3.2 7.6 3.55 7.65 3.85 8.05 3.9 8.6 3.7 8.9 3.3 8.85 3.05 8.45"/><path fill="#5b4a24" stroke="none" d="M4.95 14.15 L4.85 13.45 5.1 13.1 5.55 13.15 5.9 13.7 6.0 14.3 5.75 14.75 5.3 14.7 4.95 14.15"/><path fill="none" stroke="#000000" stroke-width="0.5" stroke-opacity="0.301960784314" d="M4.95 14.15 L4.85 13.45 5.1 13.1 5.55 13.15 5.9 13.7 6.0 14.3 5.75 14.75 5.3 14.7 4.95 14.15"/><path fill="#000000" stroke="none" d="M5.0 14.25 L4.95 13.7 5.15 13.4 5.5 13.45 5.8 13.85 5.85 14.35 5.65 14.7 5.3 14.7 5.0 14.25"/><path fill="none" stroke="#000000" stroke-width="0.5" stroke-opacity="0.301960784314" d="M5.0 14.25 L4.95 13.7 5.15 13.4 5.5 13.45 5.8 13.85 5.85 14.35 5.65 14.7 5.3 14.7 5.0 14.25"/><path fill="#5b4a24" stroke="none" d="M2.95 13.05 L3.2 12.55 3.05 11.9 2.65 11.5 2.25 11.6 Q2.0 11.75 2.0 12.05 1.95 12.4 2.15 12.75 L2.5 13.1 2.95 13.05"/><path fill="none" stroke="#000000" stroke-width="0.5" stroke-opacity="0.301960784314" d="M2.95 13.05 L3.2 12.55 3.05 11.9 2.65 11.5 2.25 11.6 Q2.0 11.75 2.0 12.05 1.95 12.4 2.15 12.75 L2.5 13.1 2.95 13.05"/><path fill="#000000" stroke="none" d="M3.0 13.05 L3.2 12.65 3.05 12.15 2.75 11.8 2.35 11.9 2.25 12.25 2.3 12.8 2.6 13.1 3.0 13.05"/><path fill="none" stroke="#000000" stroke-width="0.5" stroke-opacity="0.301960784314" d="M3.0 13.05 L3.2 12.65 3.05 12.15 2.75 11.8 2.35 11.9 2.25 12.25 2.3 12.8 2.6 13.1 3.0 13.05"/><path fill="#2b2211" fill-opacity="0.301960784314" d="M3.6 9.65 L3.55 9.65 3.4 8.75 3.45 8.7 3.45 8.6 Q3.5 7.9 4.2 8.75 L4.25 9.15 Q4.65 9.65 4.5 10.15 4.95 10.95 4.85 11.5 L5.2 12.0 Q5.55 12.45 5.45 13.0 6.05 13.6 6.05 14.1 L6.15 14.3 6.05 14.4 5.85 14.65 5.25 14.2 5.05 13.85 5.15 13.9 4.75 13.55 4.5 12.95 4.4 12.65 4.35 12.65 Q3.85 11.95 3.85 11.25 L3.85 11.1 3.75 10.95 Q3.4 10.35 3.5 9.85 L3.6 9.65"/><path fill="#2b2211" fill-opacity="0.301960784314" d="M3.2 11.8 L3.15 11.85 Q2.85 12.05 2.8 12.4 L2.8 12.5 2.8 12.6 Q2.65 13.3 3.45 13.25 L3.65 12.9 4.15 12.25 4.9 11.4 Q4.9 11.35 5.3 11.25 L5.85 10.6 Q6.5 10.6 6.65 10.15 L6.8 10.05 6.75 9.95 6.65 9.55 6.0 9.45 5.75 9.5 5.85 9.55 5.35 9.6 Q5.15 9.6 4.95 9.75 L4.85 10.0 4.8 9.95 Q4.15 10.1 3.9 10.7 L3.9 10.85 3.75 10.9 Q3.25 11.15 3.2 11.65 L3.2 11.8"/><path fill="#b19741" stroke="none" d="M4.0 12.6 L4.3 13.1 4.7 13.5 4.5 13.05 4.85 13.6 5.35 13.6 4.95 12.9 Q4.8 12.9 5.1 13.5 L4.7 12.95 4.0 12.6 M3.0 8.4 Q2.9 8.8 3.1 9.25 L3.35 9.25 3.4 8.7 3.5 9.3 3.65 9.3 Q4.0 9.2 3.55 8.7 L3.2 8.55 3.2 9.0 3.0 8.4 M3.05 9.5 Q3.0 9.95 3.3 10.55 L3.75 10.65 3.6 9.75 3.95 10.75 4.1 10.75 Q4.25 10.35 3.8 9.8 L3.4 9.5 3.4 10.1 3.25 9.55 3.05 9.5 M3.4 10.9 Q3.45 11.6 3.95 12.3 L4.0 12.25 Q3.7 11.85 3.65 11.3 L4.15 12.35 4.25 12.35 4.85 12.45 Q4.8 11.85 4.3 11.3 4.15 11.15 3.95 11.15 L4.25 12.35 3.8 11.05 3.4 10.9"/><path fill="#7c642e" stroke="none" d="M3.95 12.3 L4.0 12.3 4.0 12.6 4.7 12.95 5.1 13.5 Q4.8 12.9 4.95 12.9 L5.35 13.6 4.85 13.6 4.5 13.05 4.7 13.5 4.6 13.45 4.8 13.8 5.35 14.3 5.6 14.05 5.7 13.9 5.55 13.75 Q5.6 13.25 5.0 12.6 L4.8 11.6 4.4 11.1 Q4.55 10.6 4.05 9.75 L3.8 8.8 3.8 8.35 Q3.1 7.55 2.95 8.25 L3.0 8.3 3.0 8.4 3.2 9.0 3.2 8.55 3.55 8.7 Q4.0 9.2 3.65 9.3 L3.5 9.3 3.4 8.7 3.35 9.25 3.1 9.25 3.1 9.3 3.05 9.5 3.25 9.55 3.4 10.1 3.4 9.5 3.8 9.8 Q4.25 10.35 4.1 10.75 L3.95 10.75 3.6 9.75 3.75 10.65 3.3 10.55 3.4 10.7 3.4 10.9 3.8 11.05 4.25 12.35 3.95 11.15 Q4.15 11.15 4.3 11.3 4.8 11.85 4.85 12.45 L4.25 12.35 4.15 12.35 3.65 11.3 Q3.7 11.85 4.0 12.25 L3.95 12.3 M4.05 9.75 Q3.5 9.35 3.1 9.3 3.5 9.35 4.05 9.75 M4.4 11.1 L3.4 10.7 4.4 11.1 M3.8 8.8 L3.0 8.3 3.8 8.8 M5.0 12.6 Q4.55 12.75 4.0 12.3 4.55 12.75 5.0 12.6 M5.55 13.75 Q5.2 14.0 4.6 13.45 5.2 14.0 5.55 13.75"/><path fill="none" stroke="#000000" stroke-width="0.5" stroke-opacity="0.301960784314" d="M3.95 12.3 L4.0 12.3 4.0 12.6 4.3 13.1 4.7 13.5 4.6 13.45 4.8 13.8 5.35 14.3 5.6 14.05 5.7 13.9 5.55 13.75 Q5.6 13.25 5.0 12.6 L4.8 11.6 4.4 11.1 Q4.55 10.6 4.05 9.75 L3.8 8.8 3.8 8.35 Q3.1 7.55 2.95 8.25 L3.0 8.3 3.0 8.4 Q2.9 8.8 3.1 9.25 L3.1 9.3 3.05 9.5 Q3.0 9.95 3.3 10.55 L3.4 10.7 3.4 10.9 Q3.45 11.6 3.95 12.3 M3.0 8.3 L3.8 8.8 M3.4 10.7 L4.4 11.1 M3.1 9.3 Q3.5 9.35 4.05 9.75 M4.6 13.45 Q5.2 14.0 5.55 13.75 M4.0 12.3 Q4.55 12.75 5.0 12.6"/><path fill="#b19741" stroke="none" d="M2.6 12.2 Q2.65 11.8 2.95 11.65 L3.2 11.9 3.1 12.35 3.35 11.95 3.5 12.05 Q3.7 12.45 3.2 12.4 L2.85 12.3 2.95 11.9 2.6 12.2 M3.0 11.4 Q3.05 10.95 3.45 10.75 L3.9 11.05 3.55 11.65 4.1 11.2 4.25 11.3 Q4.25 11.8 3.75 11.8 L3.25 11.65 3.45 11.2 3.15 11.5 3.0 11.4 M3.65 10.55 Q3.8 10.05 4.4 9.95 L4.45 10.0 3.9 10.4 Q4.4 10.05 4.65 10.1 L4.7 10.2 Q5.1 10.35 5.25 10.6 5.1 11.05 4.55 11.1 L4.15 10.9 4.7 10.2 Q4.2 10.6 4.05 10.75 L3.65 10.55 M4.6 9.8 Q4.75 9.6 4.95 9.6 L5.4 9.65 5.1 9.8 5.55 9.75 6.05 10.2 5.45 10.35 5.75 9.95 5.25 10.1 4.6 9.8"/><path fill="#7c642e" stroke="none" d="M5.4 9.65 L5.3 9.55 5.6 9.5 6.2 9.65 6.35 10.05 6.35 10.15 6.25 10.25 Q6.15 10.65 5.45 10.65 5.4 11.15 5.05 11.25 L4.6 11.3 Q4.55 11.8 3.95 12.05 3.9 12.55 3.5 12.65 L3.3 13.0 Q2.5 13.0 2.6 12.35 L2.6 12.3 2.6 12.2 2.95 11.9 2.85 12.3 3.2 12.4 Q3.7 12.45 3.5 12.05 L3.35 11.95 3.1 12.35 3.2 11.9 2.95 11.65 3.0 11.6 3.0 11.4 3.15 11.5 3.45 11.2 3.25 11.65 3.75 11.8 Q4.25 11.8 4.25 11.3 L4.1 11.2 3.55 11.65 3.9 11.05 3.45 10.75 3.6 10.7 3.65 10.55 4.05 10.75 Q4.2 10.6 4.7 10.2 L4.15 10.9 4.55 11.1 Q5.1 11.05 5.25 10.6 5.1 10.35 4.7 10.2 L4.65 10.1 Q4.4 10.05 3.9 10.4 L4.45 10.0 4.4 9.95 4.45 9.9 4.6 9.8 5.25 10.1 5.75 9.95 5.45 10.35 6.05 10.2 5.55 9.75 5.1 9.8 5.4 9.65 M5.45 10.65 L4.45 9.9 5.45 10.65 M6.25 10.25 Q5.95 9.7 5.3 9.55 5.95 9.7 6.25 10.25 M3.5 12.65 L2.6 12.3 3.5 12.65 M3.95 12.05 L3.0 11.6 3.95 12.05 M4.6 11.3 Q4.05 11.1 3.6 10.7 4.05 11.1 4.6 11.3"/><path fill="none" stroke="#000000" stroke-width="0.5" stroke-opacity="0.301960784314" d="M5.4 9.65 L5.3 9.55 5.6 9.5 6.2 9.65 6.35 10.05 6.35 10.15 6.25 10.25 Q6.15 10.65 5.45 10.65 5.4 11.15 5.05 11.25 L4.6 11.3 Q4.55 11.8 3.95 12.05 3.9 12.55 3.5 12.65 L3.3 13.0 Q2.5 13.0 2.6 12.35 L2.6 12.3 2.6 12.2 Q2.65 11.8 2.95 11.65 L3.0 11.6 3.0 11.4 Q3.05 10.95 3.45 10.75 L3.6 10.7 3.65 10.55 Q3.8 10.05 4.4 9.95 L4.45 9.9 4.6 9.8 Q4.75 9.6 4.95 9.6 L5.4 9.65 M4.45 9.9 L5.45 10.65 M3.6 10.7 Q4.05 11.1 4.6 11.3 M3.0 11.6 L3.95 12.05 M2.6 12.3 L3.5 12.65 M5.3 9.55 Q5.95 9.7 6.25 10.25"/><path fill="#fdd882" stroke="none" d="M13.9 7.1 L13.7 6.85 15.75 6.5 15.6 6.75 15.55 6.8 13.9 7.1 M10.1 8.95 L9.9 8.5 11.1 8.35 11.8 8.85 10.1 8.95"/><path fill="#d49800" stroke="none" d="M15.6 6.75 L15.75 6.5 15.75 6.45 15.8 6.5 16.0 6.7 Q17.85 8.55 17.7 10.55 17.55 14.15 14.0 13.05 L12.1 11.2 Q11.3 9.85 10.1 9.0 L10.1 8.95 11.8 8.85 11.85 8.85 11.85 8.9 11.8 8.85 11.85 8.9 11.95 9.0 Q12.75 9.7 13.35 10.75 L14.65 12.25 Q17.05 13.2 17.05 10.15 17.05 8.4 15.6 6.75 M15.8 6.5 L15.75 6.5 15.8 6.5"/><path fill="#450000" stroke="none" d="M15.55 6.8 L15.6 6.75 Q17.05 8.4 17.05 10.15 17.05 13.2 14.65 12.25 L13.35 10.75 Q12.75 9.7 11.95 9.0 L11.85 8.9 11.85 8.85 11.9 8.85 Q14.0 8.65 14.9 7.8 L15.55 6.8"/><path fill="#700000" stroke="none" d="M13.9 7.1 L15.55 6.8 14.9 7.8 Q14.0 8.65 11.9 8.85 L11.85 8.85 11.8 8.85 11.1 8.35 Q14.15 7.9 13.9 7.1"/><path fill="none" stroke="#000000" stroke-width="0.5" stroke-opacity="0.301960784314" d="M15.75 6.5 L13.7 6.85 13.9 7.1 15.55 6.8 15.6 6.75 M15.75 6.5 L15.75 6.45 15.8 6.5 16.0 6.7 Q17.85 8.55 17.7 10.55 17.55 14.15 14.0 13.05 L12.1 11.2 Q11.3 9.85 10.1 9.0 L10.1 8.95 9.9 8.5 11.1 8.35 Q14.15 7.9 13.9 7.1 M11.85 8.9 L11.85 8.85 11.8 8.85 11.85 8.9 11.95 9.0 Q12.75 9.7 13.35 10.75 L14.65 12.25 Q17.05 13.2 17.05 10.15 17.05 8.4 15.6 6.75 M11.8 8.85 L11.1 8.35 M15.75 6.5 L15.8 6.5"/><path fill="#fcc94b" stroke="none" d="M15.75 12.7 L15.8 12.75 Q14.25 13.35 12.95 11.85 12.05 10.8 12.1 9.85 13.4 12.1 15.75 12.7"/><path fill="#fcc94b" stroke="none" d="M17.25 11.8 L17.2 11.8 Q17.0 11.1 17.45 10.25 L17.45 10.2 Q17.85 11.0 17.25 11.8"/><path fill="#d49800" stroke="none" d="M14.7 10.4 Q15.2 10.8 15.8 12.15 L16.05 9.75 16.95 8.7 15.4 8.8 14.45 7.75 14.45 9.0 Q14.4 9.55 13.05 10.2 L14.7 10.4"/><path fill="#730000" stroke="none" d="M15.4 10.6 L15.05 10.45 14.85 10.05 14.95 9.6 Q15.05 9.45 15.25 9.45 L15.6 9.6 15.8 10.0 15.7 10.4 15.4 10.6"/><path fill="none" stroke="#000000" stroke-width="0.5" stroke-opacity="0.301960784314" d="M15.4 10.6 L15.7 10.4 15.8 10.0 15.6 9.6 15.25 9.45 Q15.05 9.45 14.95 9.6 L14.85 10.05 15.05 10.45 15.4 10.6"/><path fill="#c90000" stroke="none" d="M15.3 10.25 Q14.7 10.1 15.2 9.65 L15.25 9.65 Q15.45 9.85 15.3 10.25"/><path fill="#fcc94b" stroke="none" d="M14.55 9.7 L14.5 9.7 14.85 8.55 14.9 8.55 Q15.2 9.3 14.55 9.7"/><path fill="#fcc94b" stroke="none" d="M16.55 9.2 L16.6 9.2 Q15.85 9.75 15.75 9.1 L16.55 9.2"/><path fill="#b88203" stroke="none" d="M5.15 1.35 L6.0 1.2 5.45 2.7 5.15 2.7 5.15 1.35"/><path fill="#700000" stroke="none" d="M5.15 1.35 L5.15 2.7 Q4.1 2.65 3.4 3.05 L1.85 1.95 Q3.4 1.25 5.15 1.35"/><path fill="#fcc94b" stroke="none" d="M3.4 3.05 L2.9 3.45 0.95 2.1 1.85 1.95 3.4 3.05"/><path fill="none" stroke="#000000" stroke-width="0.5" stroke-opacity="0.301960784314" d="M5.15 1.35 L5.15 2.7 5.45 2.7 6.0 1.2 M0.95 2.1 L2.9 3.45 3.4 3.05 1.85 1.95 M3.4 3.05 Q4.1 2.65 5.15 2.7"/><path fill="#cbc3a2" stroke="none" d="M12.3 4.25 L12.5 4.3 12.75 4.9 12.75 4.95 12.55 6.3 11.85 7.65 11.75 7.7 11.3 8.1 11.1 8.1 11.05 8.1 11.0 8.05 10.95 8.05 10.9 8.0 Q10.7 7.9 10.7 7.4 L10.65 7.35 10.65 7.25 10.65 6.8 10.9 6.05 11.2 5.25 11.5 4.85 11.6 4.7 11.65 4.65 Q11.95 4.35 12.2 4.3 L12.25 4.3 12.3 4.25 M12.4 5.5 L12.35 5.45 12.4 5.4 Q12.35 5.0 12.1 4.95 L11.95 5.0 11.65 5.25 11.2 6.1 11.05 6.95 11.15 7.3 11.3 7.4 11.35 7.4 11.75 7.25 11.8 7.1 11.85 7.05 12.3 6.25 12.4 5.5 M10.65 7.9 L10.9 8.05 10.95 8.05 8.35 16.4 8.3 16.45 8.2 16.45 8.15 16.35 10.65 7.9"/><path fill="#f5ebc4" stroke="none" d="M12.25 4.3 L12.2 4.3 Q11.95 4.35 11.65 4.65 L11.6 4.7 11.5 4.85 11.15 4.8 11.25 4.7 11.5 4.4 Q11.8 4.2 12.05 4.25 L12.25 4.3"/><path fill="#e3dab5" stroke="none" d="M11.5 4.85 L11.2 5.25 10.9 6.05 10.65 6.8 10.65 7.25 10.3 7.2 10.55 6.0 Q10.8 5.25 11.15 4.8 L11.5 4.85"/><path fill="#696454" stroke="none" d="M12.05 5.4 L12.05 5.3 11.95 5.0 12.1 4.95 Q12.35 5.0 12.4 5.4 L12.35 5.45 12.4 5.5 12.05 5.4 M11.15 7.3 L11.4 7.1 11.75 7.25 11.35 7.4 11.3 7.4 11.15 7.3"/><path fill="#857f6a" stroke="none" d="M12.05 5.4 L12.4 5.5 12.3 6.25 11.85 7.05 11.8 7.1 11.75 7.25 11.4 7.1 11.45 7.05 11.45 7.0 11.85 6.2 12.05 5.4"/><path fill="#c2ba9b" stroke="none" d="M10.65 7.25 L10.65 7.35 10.7 7.4 Q10.7 7.9 10.9 8.0 L10.9 8.05 10.65 7.9 10.6 7.8 10.55 7.6 10.45 7.85 10.3 7.35 10.3 7.25 10.3 7.2 10.65 7.25"/><path fill="#fbf4e1" stroke="none" d="M10.95 8.05 L11.0 8.05 11.05 8.1 11.1 8.1 8.35 16.35 8.35 16.4 10.95 8.05"/><path fill="#f7edc5" stroke="none" d="M11.1 8.1 L11.3 8.1 8.5 16.2 8.35 16.35 11.1 8.1"/><path fill="#aba488" stroke="none" d="M10.45 7.85 L10.55 7.6 10.6 7.8 10.65 7.9 8.15 16.35 8.1 16.15 10.45 7.85"/><path fill="none" stroke="#000000" stroke-width="0.5" stroke-opacity="0.301960784314" d="M12.3 4.25 L12.5 4.3 12.4 4.25 12.3 4.25 12.25 4.3 12.2 4.3 Q11.95 4.35 11.65 4.65 L11.6 4.7 11.5 4.85 11.2 5.25 10.9 6.05 10.65 6.8 10.65 7.25 10.65 7.35 10.7 7.4 Q10.7 7.9 10.9 8.0 L10.95 8.05 11.0 8.05 11.05 8.1 11.1 8.1 11.3 8.1 11.75 7.7 11.85 7.65 12.55 6.3 12.75 4.95 12.75 4.9 12.5 4.3 M11.15 4.8 L11.25 4.7 11.5 4.4 Q11.8 4.2 12.05 4.25 L12.25 4.3 M10.3 7.2 L10.55 6.0 Q10.8 5.25 11.15 4.8 M11.95 5.0 L12.05 5.3 12.05 5.4 M12.4 5.5 L12.35 5.45 12.4 5.4 Q12.35 5.0 12.1 4.95 L11.95 5.0 11.65 5.25 11.2 6.1 11.05 6.95 11.15 7.3 11.4 7.1 11.45 7.05 11.45 7.0 11.85 6.2 12.05 5.4 M11.75 7.25 L11.8 7.1 11.85 7.05 12.3 6.25 12.4 5.5 M11.75 7.25 L11.35 7.4 11.3 7.4 11.15 7.3 M10.3 7.2 L10.3 7.25 10.3 7.35 10.45 7.85 10.55 7.6 10.6 7.8 M10.65 7.9 L10.9 8.05 10.95 8.05 M8.35 16.4 L8.35 16.35 M8.15 16.35 L8.1 16.15 10.45 7.85 M11.3 8.1 L8.5 16.2 8.35 16.35 M8.35 16.4 L8.3 16.45 8.2 16.45"/><path fill="#543000" stroke="none" d="M9.45 9.95 Q9.85 10.45 10.7 10.45 L10.85 10.45 10.6 11.8 10.3 11.85 Q9.45 11.85 9.0 11.3 L9.45 9.95"/><path fill="none" stroke="#000000" stroke-width="0.5" stroke-opacity="0.301960784314" d="M9.45 9.95 Q9.85 10.45 10.7 10.45 L10.85 10.45 M10.6 11.8 L10.3 11.85 Q9.45 11.85 9.0 11.3"/></g><g id="c11"><g><use transform="matrix(1.0,0.0,0.0,1.0,0.0,0.0)" xlink:href="#c10"/></g></g><g id="c12"><g><use transform="matrix(1.0,0.0,0.0,1.0,6.3,53.35)" xlink:href="#c9"/></g><g><use transform="matrix(1.0,0.0,0.0,1.0,19.85,68.2)" xlink:href="#c11"/></g><g><use transform="matrix(0.141098022461,-0.0378112792969,0.111373901367,0.225646972656,27.2,74.05)" filter="url(#filter12)" xlink:href="#c6"/></g></g><filter id="filter12"><feColorMatrix in="SourceGraphic" type="matrix" values="1.0 0.0 0.0 0.0 0.0 0.0 1.0 0.0 0.0 0.0 0.0 0.0 1.0 0.0 0.0 0.0 0.0 0.0 0.23046875 0.0" result="cxform"/><feComposite operator="in" in2="SourceGraphic" result="color-xform"/></filter></defs><g><g><use transform="matrix(1.0,0.0,0.0,1.0,0.0,0.0)" xlink:href="#c1"/></g><g><use transform="matrix(1.15496826172,0.0,0.0,1.15496826172,-1.4,-57.4)" xlink:href="#c12"/></g></g></svg>