<?xml version="1.0" encoding="UTF-8" standalone="no"?>
<svg xmlns:xlink="http://www.w3.org/1999/xlink" height="60.0px" width="60.0px" xmlns="http://www.w3.org/2000/svg">
  <g transform="matrix(1.0, 0.0, 0.0, 1.0, 0.0, 0.0)">
    <use height="60.0" transform="matrix(1.0, 0.0, 0.0, 1.0, 0.0, 0.0)" width="60.0" xlink:href="#shape0"/>
    <use height="46.85" transform="matrix(1.1549, 0.0, 0.0, 1.1549, 4.7486, 1.851)" width="43.0" xlink:href="#sprite0"/>
  </g>
  <defs>
    <g id="shape0" transform="matrix(1.0, 0.0, 0.0, 1.0, 0.0, 0.0)">
      <path d="M0.0 0.0 L60.0 0.0 60.0 60.0 0.0 60.0 0.0 0.0" fill="#000000" fill-opacity="0.003921569" fill-rule="evenodd" stroke="none"/>
    </g>
    <g id="sprite0" transform="matrix(1.0, 0.0, 0.0, 1.0, -5.8, -51.0)">
      <use height="45.0" transform="matrix(1.0, 0.0, 0.0, 1.0, 5.8, 52.85)" width="43.0" xlink:href="#sprite1"/>
      <clipPath id="clipPath0" transform="matrix(1.0, 0.0, 0.0, 1.0, 0.0, 0.0)">
        <path d="M25.6 54.7 L28.6 53.75 Q32.85 52.35 34.75 56.45 L47.65 85.05 Q49.25 88.5 46.5 90.05 45.8 90.65 44.6 91.0 L42.65 91.65 42.45 91.5 Q41.45 90.75 40.3 90.25 L40.1 90.15 Q36.95 88.8 34.0 89.7 31.05 90.65 30.0 93.4 L29.9 93.6 Q29.55 94.6 29.55 95.65 L29.55 95.7 29.55 95.9 26.1 97.0 Q23.45 97.8 21.8 96.65 20.65 95.9 19.95 94.25 L7.0 65.6 Q5.85 63.1 7.05 61.6 7.5 60.95 8.45 60.5 9.1 60.05 10.1 59.7 L12.75 58.85 14.8 60.1 15.0 60.2 Q18.2 61.55 21.15 60.6 24.1 59.7 25.15 56.95 L25.2 56.75 25.6 54.7" fill="#00cc99" fill-opacity="0.003921569" fill-rule="evenodd" stroke="none"/>
      </clipPath>
      <g clip-path="url(#clipPath0)">
        <use height="0.0" transform="matrix(1.0, 0.0, 0.0, 1.0, 6.45, 53.4)" width="0.0" xlink:href="#sprite5"/>
      </g>
      <use height="66.55" transform="matrix(0.3131, 0.0, 0.0, 0.3131, 20.0976, 64.0846)" width="55.6" xlink:href="#sprite6"/>
      <clipPath id="clipPath1" transform="matrix(1.0, 0.0, 0.0, 1.0, 0.0, 0.0)">
        <path d="M25.6 54.7 L28.6 53.75 Q32.85 52.35 34.75 56.45 L47.65 85.05 Q49.25 88.5 46.5 90.05 45.8 90.65 44.6 91.0 L42.65 91.65 42.45 91.5 Q41.45 90.75 40.3 90.25 L40.1 90.15 Q36.95 88.8 34.0 89.7 31.05 90.65 30.0 93.4 L29.9 93.6 Q29.55 94.6 29.55 95.65 L29.55 95.7 29.55 95.9 26.1 97.0 Q23.45 97.8 21.8 96.65 20.65 95.9 19.95 94.25 L7.0 65.6 Q5.85 63.1 7.05 61.6 7.5 60.95 8.45 60.5 9.1 60.05 10.1 59.7 L12.75 58.85 14.8 60.1 15.0 60.2 Q18.2 61.55 21.15 60.6 24.1 59.7 25.15 56.95 L25.2 56.75 25.6 54.7" fill="#00cc99" fill-opacity="0.003921569" fill-rule="evenodd" stroke="none"/>
      </clipPath>
      <g clip-path="url(#clipPath1)">
        <use height="0.0" transform="matrix(1.0, 0.0, 0.0, 1.0, 9.65, 51.0)" width="0.0" xlink:href="#sprite7"/>
        <use height="0.0" transform="matrix(1.0, 0.0, 0.0, 1.0, 9.65, 51.0)" width="0.0" xlink:href="#sprite7"/>
        <use height="30.6" transform="matrix(1.0, 0.0, 0.0, 1.0, 14.7, 59.4)" width="27.15" xlink:href="#shape35"/>
      </g>
      <use height="0.0" transform="matrix(0.1411, -0.0378, 0.1114, 0.2256, 27.2, 74.05)" width="0.0" xlink:href="#sprite3"/>
    </g>
    <g id="sprite1" transform="matrix(1.0, 0.0, 0.0, 1.0, 0.5, 0.5)">
      <use height="53.0" transform="matrix(1.0, 0.0, 0.0, 1.0, -4.5, -4.5)" width="51.0" xlink:href="#shape1"/>
      <use height="13.75" transform="matrix(0.2389, -0.0867, 0.1003, 0.2339, 34.25, 31.15)" width="15.1" xlink:href="#sprite2"/>
      <use height="13.75" transform="matrix(0.2389, -0.0867, 0.1003, 0.2339, 4.25, 10.3)" width="15.1" xlink:href="#sprite2"/>
      <use height="0.0" transform="matrix(0.1209, -0.0324, 0.0955, 0.1934, 20.25, 20.65)" width="0.0" xlink:href="#sprite3"/>
      <use height="211.45" transform="matrix(-0.155, 0.0513, 0.0842, 0.147, 22.6042, 3.1574)" width="136.6" xlink:href="#sprite4"/>
    </g>
    <g id="shape1" transform="matrix(1.0, 0.0, 0.0, 1.0, 4.5, 4.5)">
      <path d="M22.3 0.35 Q26.6 -1.0 28.5 3.05 L41.4 31.7 Q43.1 35.4 39.9 36.85 L38.15 37.65 36.3 38.25 36.15 38.15 34.0 36.9 33.8 36.8 Q30.65 35.45 27.7 36.35 24.75 37.3 23.7 40.05 L23.6 40.25 Q23.25 41.25 23.3 42.5 L19.65 43.65 Q17.05 44.5 15.35 43.3 14.2 42.55 13.5 40.9 L0.55 12.25 Q-0.6 9.75 0.6 8.25 1.15 7.55 2.2 7.05 2.85 6.6 3.8 6.3 L6.45 5.5 8.5 6.75 8.7 6.85 Q11.9 8.2 14.85 7.25 17.8 6.35 18.85 3.6 L18.9 3.4 19.3 1.35 22.3 0.35 Z" fill="none" stroke="#000000" stroke-linecap="round" stroke-linejoin="round" stroke-opacity="0.24705882" stroke-width="1.0"/>
      <path d="M22.3 0.35 Q26.6 -1.0 28.5 3.05 L41.4 31.7 Q43.1 35.4 39.9 36.85 L38.15 37.65 36.3 38.25 36.15 38.15 34.0 36.9 33.8 36.8 Q30.65 35.45 27.7 36.35 24.75 37.3 23.7 40.05 L23.6 40.25 Q23.25 41.25 23.3 42.5 L19.65 43.65 Q17.05 44.5 15.35 43.3 14.2 42.55 13.5 40.9 L0.55 12.25 Q-0.6 9.75 0.6 8.25 1.15 7.55 2.2 7.05 2.85 6.6 3.8 6.3 L6.45 5.5 8.5 6.75 8.7 6.85 Q11.9 8.2 14.85 7.25 17.8 6.35 18.85 3.6 L18.9 3.4 19.3 1.35 22.3 0.35" fill="#986600" fill-rule="evenodd" stroke="none"/>
      <path d="M22.3 0.35 Q26.6 -1.0 28.5 3.05 L41.4 31.7 Q43.1 35.4 39.9 36.85 L38.15 37.65 36.3 38.25 36.15 38.15 34.0 36.9 33.8 36.8 Q30.65 35.45 27.7 36.35 24.75 37.3 23.7 40.05 L23.6 40.25 Q23.25 41.25 23.3 42.5 L19.65 43.65 Q17.05 44.5 15.35 43.3 14.2 42.55 13.5 40.9 L0.55 12.25 Q-0.6 9.75 0.6 8.25 1.15 7.55 2.2 7.05 2.85 6.6 3.8 6.3 L6.45 5.5 8.5 6.75 8.7 6.85 Q11.9 8.2 14.85 7.25 17.8 6.35 18.85 3.6 L18.9 3.4 19.3 1.35 22.3 0.35 Z" fill="none" stroke="#ffcc00" stroke-linecap="round" stroke-linejoin="round" stroke-width="0.1"/>
      <path d="M19.3 1.35 L22.3 0.4 Q26.55 -1.0 28.45 3.1 L41.35 31.7 Q42.95 35.15 40.2 36.7 L38.9 37.25 36.15 38.15 34.0 36.9 33.8 36.8 Q30.65 35.45 27.7 36.35 24.75 37.3 23.7 40.05 L23.6 40.25 Q23.25 41.25 23.25 42.3 L23.2 42.3 20.4 43.2 19.1 43.5 17.3 43.4 Q15.3 42.9 14.2 40.5 L5.45 20.95 1.35 11.8 Q0.4 9.65 1.1 8.3 1.45 7.65 2.15 7.15 2.8 6.7 3.8 6.35 L6.45 5.5 8.5 6.75 8.7 6.85 Q11.9 8.2 14.85 7.25 17.8 6.35 18.85 3.6 L18.9 3.4 19.3 1.35 M35.55 22.3 L28.25 6.1 27.75 4.95 Q26.05 1.25 21.6 2.85 20.8 5.65 18.85 7.6 17.0 9.45 14.2 9.8 11.45 9.95 9.0 8.8 L6.4 7.45 Q1.65 9.1 3.35 12.8 L8.25 23.65 15.0 38.6 15.2 39.0 Q16.8 42.25 20.45 41.1 L21.65 40.55 Q22.7 36.9 25.05 35.5 27.4 34.15 30.2 34.2 33.05 34.2 36.25 36.1 L37.2 35.7 Q41.1 34.5 39.35 30.75 L35.55 22.3" fill="#ffcc00" fill-rule="evenodd" stroke="none"/>
      <path d="M28.25 6.1 L35.55 22.3 39.35 30.75 Q41.1 34.5 37.2 35.7 L36.25 36.1 Q33.05 34.2 30.2 34.2 27.4 34.15 25.05 35.5 22.7 36.9 21.65 40.55 L20.45 41.1 Q16.8 42.25 15.2 39.0 L15.0 38.6 8.25 23.65 3.35 12.8 Q1.65 9.1 6.4 7.45 L9.0 8.8 Q11.45 9.95 14.2 9.8 17.0 9.45 18.85 7.6 20.8 5.65 21.6 2.85 26.05 1.25 27.75 4.95 L28.25 6.1 M34.0 32.9 L33.7 32.1 Q33.45 30.9 34.1 30.1 34.75 29.3 35.95 29.35 L35.8 29.0 26.5 8.3 26.25 7.85 Q24.9 5.45 22.05 6.35 19.75 11.1 14.85 11.65 11.45 11.85 9.1 10.55 L9.55 11.6 Q9.8 12.8 9.15 13.6 8.4 14.45 7.1 14.4 L6.8 14.4 6.95 14.6 16.3 35.2 Q16.8 36.4 17.65 37.0 18.8 37.8 19.8 37.35 21.8 33.7 25.95 32.3 30.35 30.8 34.0 32.9" fill="#996600" fill-rule="evenodd" stroke="none"/>
      <path d="M22.05 6.35 Q24.9 5.45 26.25 7.85 L26.5 8.3 35.8 29.0 35.95 29.35 Q34.75 29.3 34.1 30.1 33.45 30.9 33.7 32.1 L34.0 32.9 Q30.35 30.8 25.95 32.3 21.8 33.7 19.8 37.35 18.8 37.8 17.65 37.0 16.8 36.4 16.3 35.2 L6.95 14.6 6.8 14.4 7.1 14.4 Q8.4 14.45 9.15 13.6 9.8 12.8 9.55 11.6 L9.1 10.55 Q11.45 11.85 14.85 11.65 19.75 11.1 22.05 6.35" fill="#fcf2cf" fill-rule="evenodd" stroke="none"/>
      <path d="M23.25 42.35 L23.25 42.55 19.8 43.65 Q17.15 44.45 15.5 43.3 L17.3 43.4 19.1 43.5 20.4 43.2 23.2 42.3 23.25 42.35 M4.6 20.9 L0.7 12.25 Q-0.45 9.75 0.75 8.25 L1.1 8.3 Q0.4 9.65 1.35 11.8 L5.45 20.95 4.6 20.9" fill="#5b3c00" fill-rule="evenodd" stroke="none"/>
      <path d="M0.75 8.25 Q1.2 7.6 2.15 7.15 1.45 7.65 1.1 8.3 L0.75 8.25" fill="#630a4c" fill-rule="evenodd" stroke="none"/>
      <path d="M15.5 43.3 Q14.35 42.55 13.65 40.9 L4.6 20.9 5.45 20.95 14.2 40.5 Q15.3 42.9 17.3 43.4 L15.5 43.3" fill="#724b00" fill-rule="evenodd" stroke="none"/>
      <path d="M40.2 36.7 Q39.5 37.3 38.3 37.65 L36.35 38.3 36.15 38.15 38.9 37.25 40.2 36.7 M23.25 42.3 L23.25 42.35 23.2 42.3 23.25 42.3" fill="#300525" fill-rule="evenodd" stroke="none"/>
      <path d="M19.3 1.35 L22.3 0.4 Q26.55 -1.0 28.45 3.1 L41.35 31.7 Q42.95 35.15 40.2 36.7 39.5 37.3 38.3 37.65 L36.35 38.3 M23.25 42.55 L19.8 43.65 Q17.15 44.45 15.5 43.3 14.35 42.55 13.65 40.9 L4.6 20.9 0.7 12.25 Q-0.45 9.75 0.75 8.25 1.2 7.6 2.15 7.15 2.8 6.7 3.8 6.35 L6.45 5.5 M1.1 8.3 Q1.45 7.65 2.15 7.15 M5.45 20.95 L1.35 11.8 Q0.4 9.65 1.1 8.3 M23.2 42.3 L20.4 43.2 19.1 43.5 17.3 43.4 Q15.3 42.9 14.2 40.5 L5.45 20.95 M23.25 42.3 L23.2 42.3 M40.2 36.7 L38.9 37.25 36.15 38.15" fill="none" stroke="#000000" stroke-linecap="round" stroke-linejoin="round" stroke-opacity="0.3019608" stroke-width="0.05"/>
      <path d="M28.25 6.1 L35.55 22.3 M15.0 38.6 L8.25 23.65" fill="none" stroke="#ffaa00" stroke-linecap="round" stroke-linejoin="round" stroke-width="1.0"/>
      <path d="M35.55 22.3 L39.35 30.75 Q41.1 34.5 37.2 35.7 L36.25 36.1 Q33.05 34.2 30.2 34.2 27.4 34.15 25.05 35.5 22.7 36.9 21.65 40.55 L20.45 41.1 Q16.8 42.25 15.2 39.0 L15.0 38.6 M8.25 23.65 L3.35 12.8 Q1.65 9.1 6.4 7.45 L9.0 8.8 Q11.45 9.95 14.2 9.8 17.0 9.45 18.85 7.6 20.8 5.65 21.6 2.85 26.05 1.25 27.75 4.95 L28.25 6.1" fill="none" stroke="#fcf2cf" stroke-linecap="round" stroke-linejoin="round" stroke-width="1.0"/>
      <path d="M22.05 6.35 Q24.9 5.45 26.25 7.85 L26.5 8.3 35.8 29.0 35.95 29.35 Q34.75 29.3 34.1 30.1 33.45 30.9 33.7 32.1 L34.0 32.9 M19.8 37.35 Q18.8 37.8 17.65 37.0 16.8 36.4 16.3 35.2 L6.95 14.6 6.8 14.4 7.1 14.4 Q8.4 14.45 9.15 13.6 9.8 12.8 9.55 11.6 L9.1 10.55" fill="none" stroke="#f0b92b" stroke-linecap="round" stroke-linejoin="round" stroke-width="0.05"/>
      <path d="M34.0 32.9 Q30.35 30.8 25.95 32.3 21.8 33.7 19.8 37.35 M9.1 10.55 Q11.45 11.85 14.85 11.65 19.75 11.1 22.05 6.35" fill="none" stroke="#ffaa00" stroke-linecap="round" stroke-linejoin="round" stroke-opacity="0.7490196" stroke-width="0.05"/>
    </g>
    <g id="sprite2" transform="matrix(1.0, 0.0, 0.0, 1.0, 0.0, 0.0)">
      <use height="13.75" transform="matrix(1.0, 0.0, 0.0, 1.0, 0.0, 0.0)" width="15.1" xlink:href="#shape2"/>
    </g>
    <g id="shape2" transform="matrix(1.0, 0.0, 0.0, 1.0, 0.0, 0.0)">
      <path d="M10.75 4.9 Q10.75 4.6 10.9 4.35 11.25 3.45 11.95 2.75 13.3 1.5 14.35 2.1 15.4 2.7 14.95 4.45 14.7 5.4 14.1 6.15 L13.75 6.5 Q13.1 7.15 12.35 7.35 L11.4 7.2 Q10.95 6.9 10.75 6.4 10.5 5.75 10.75 4.9 M7.5 5.9 Q7.0 5.85 6.6 5.5 6.05 5.0 5.8 4.15 L5.7 3.6 Q5.55 2.65 5.8 1.7 6.25 0.0 7.5 0.0 L7.6 0.0 Q8.85 0.0 9.3 1.7 9.55 2.65 9.4 3.6 L9.3 4.15 8.5 5.5 7.6 5.9 7.5 5.9 M4.35 4.9 Q4.6 5.75 4.35 6.4 L3.7 7.2 2.75 7.35 Q2.0 7.15 1.35 6.5 L1.0 6.15 Q0.4 5.4 0.15 4.45 -0.3 2.7 0.75 2.1 1.8 1.5 3.15 2.75 3.85 3.45 4.2 4.35 L4.35 4.9 M5.5 13.7 Q4.45 13.9 3.65 12.95 2.75 12.0 3.2 10.25 3.7 8.5 5.25 7.6 6.4 6.9 7.55 7.0 8.75 6.9 9.9 7.6 11.45 8.5 11.95 10.25 12.35 12.0 11.5 12.95 10.7 13.9 9.65 13.7 8.55 13.5 7.55 12.6 6.55 13.5 5.5 13.7" fill="#7fdbfe" fill-rule="evenodd" stroke="none"/>
    </g>
    <g id="sprite4" transform="matrix(1.0, 0.0, 0.0, 1.0, 0.0, -0.05)">
      <use height="211.85" transform="matrix(1.0, 0.0, 0.0, 1.0, -0.2, -0.15)" width="137.0" xlink:href="#shape3"/>
    </g>
    <g id="shape3" transform="matrix(1.0, 0.0, 0.0, 1.0, 0.2, 0.15)">
      <path d="M136.55 165.8 L68.6 106.0 68.4 106.0 118.25 201.5 M68.3 105.8 L68.35 105.8 68.3 105.8 68.3 105.85 68.4 106.0 68.3 106.0 86.55 211.5 M68.3 105.8 L68.3 105.85 68.3 106.0 68.15 105.95 18.25 151.55 M68.3 105.85 L68.25 105.85 68.3 106.0 50.0 193.2 M68.25 105.85 L68.15 105.95 0.05 97.7 M68.3 105.85 L68.25 105.8 68.25 105.85 M68.25 105.8 L68.2 105.7 0.0 45.7 M68.3 105.8 L68.25 105.75 68.25 105.8 M68.25 105.75 L68.2 105.7 18.25 10.05 M68.6 106.0 L68.35 105.8 118.25 60.15 M86.6 18.35 L68.3 105.8 M136.6 114.25 L68.6 106.0 M68.25 105.75 L49.95 0.05" fill="none" stroke="url(#gradient0)" stroke-linecap="round" stroke-linejoin="round" stroke-width="0.05"/>
    </g>
    <radialGradient cx="0" cy="0" gradientTransform="matrix(0.2092, 0.0, 0.0, 0.1771, 67.15, 107.2)" gradientUnits="userSpaceOnUse" id="gradient0" r="819.2" spreadMethod="pad">
      <stop offset="0.3568627450980392" stop-color="#ffffff"/>
      <stop offset="0.6705882352941176" stop-color="#000000" stop-opacity="0.0"/>
    </radialGradient>
    <g id="sprite6" transform="matrix(1.0, 0.0, 0.0, 1.0, 31.15, 53.55)">
      <use height="25.7" transform="matrix(1.0, 0.0, 0.0, 1.0, -15.45, -12.7)" width="39.9" xlink:href="#shape5"/>
      <use height="9.7" transform="matrix(1.0, 0.0, 0.0, 1.0, -31.15, 0.25)" width="19.35" xlink:href="#shape6"/>
      <use height="4.0" transform="matrix(1.0, 0.0, 0.0, 1.0, -4.35, -4.3)" width="4.75" xlink:href="#shape7"/>
      <use height="5.3" transform="matrix(1.0, 0.0, 0.0, 1.0, -5.45, -7.25)" width="5.2" xlink:href="#shape8"/>
      <use height="12.75" transform="matrix(1.0, 0.0, 0.0, 1.0, -7.15, -16.3)" width="13.95" xlink:href="#shape9"/>
      <use height="4.6" transform="matrix(1.0, 0.0, 0.0, 1.0, 11.3, 0.85)" width="3.5" xlink:href="#shape10"/>
      <use height="7.2" transform="matrix(1.0, 0.0, 0.0, 1.0, 11.0, -3.85)" width="4.55" xlink:href="#shape11"/>
      <use height="6.25" transform="matrix(1.0, 0.0, 0.0, 1.0, 10.3, -2.8)" width="6.7" xlink:href="#shape12"/>
      <use height="12.7" transform="matrix(1.0, 0.0, 0.0, 1.0, 6.7, -11.6)" width="9.5" xlink:href="#shape13"/>
      <use height="19.0" transform="matrix(1.0, 0.0, 0.0, 1.0, -0.85, -23.65)" width="16.1" xlink:href="#shape14"/>
      <use height="8.95" transform="matrix(1.0, 0.0, 0.0, 1.0, -0.75, -13.25)" width="15.55" xlink:href="#shape15"/>
      <use height="20.35" transform="matrix(1.0, 0.0, 0.0, 1.0, -31.25, -13.25)" width="19.9" xlink:href="#shape16"/>
      <use height="3.9" transform="matrix(1.0, 0.0, 0.0, 1.0, -21.2, -4.15)" width="3.25" xlink:href="#shape17"/>
      <use height="12.0" transform="matrix(1.0, 0.0, 0.0, 1.0, -10.4, -30.45)" width="10.7" xlink:href="#shape18"/>
      <use height="11.8" transform="matrix(1.0, 0.0, 0.0, 1.0, -11.85, -22.6)" width="8.6" xlink:href="#shape19"/>
      <use height="10.6" transform="matrix(1.0, 0.0, 0.0, 1.0, -13.95, -19.75)" width="10.55" xlink:href="#shape20"/>
      <use height="13.95" transform="matrix(-0.3771, 1.0425, 1.0425, 0.3771, -9.7831, -10.2339)" width="4.9" xlink:href="#shape21"/>
      <use height="5.35" transform="matrix(-0.8333, 0.5524, -0.5524, -0.8333, -7.2952, -6.3021)" width="13.5" xlink:href="#shape22"/>
      <use height="5.35" transform="matrix(-0.1987, -0.9798, -0.9798, 0.1987, 7.3857, 9.3562)" width="13.5" xlink:href="#shape23"/>
      <use height="10.4" transform="matrix(1.0, 0.0, 0.0, 1.0, -13.7, -13.75)" width="8.7" xlink:href="#shape24"/>
      <use height="13.7" transform="matrix(1.0, 0.0, 0.0, 1.0, -9.4, -34.4)" width="12.9" xlink:href="#shape25"/>
      <use height="22.7" transform="matrix(1.0, 0.0, 0.0, 1.0, -5.05, -34.4)" width="22.95" xlink:href="#shape26"/>
      <use height="12.95" transform="matrix(1.0, 0.0, 0.0, 1.0, -6.7, -29.4)" width="9.75" xlink:href="#shape27"/>
      <use height="12.95" transform="matrix(1.0, 0.0, 0.0, 1.0, -1.2, -25.65)" width="13.3" xlink:href="#shape28"/>
      <use height="17.35" transform="matrix(1.0, 0.0, 0.0, 1.0, 8.7, -29.15)" width="10.5" xlink:href="#shape29"/>
      <use height="12.95" transform="matrix(1.0, 0.0, 0.0, 1.0, 1.6, -16.5)" width="16.25" xlink:href="#shape30"/>
      <use height="11.35" transform="matrix(1.0, 0.0, 0.0, 1.0, -1.8, -13.15)" width="11.85" xlink:href="#shape31"/>
      <use height="8.65" transform="matrix(1.0, 0.0, 0.0, 1.0, -6.65, -8.85)" width="10.75" xlink:href="#shape32"/>
      <use height="16.6" transform="matrix(1.0, 0.0, 0.0, 1.0, -4.2, -33.3)" width="16.6" xlink:href="#shape33"/>
      <use height="35.55" transform="matrix(1.0, 0.0, 0.0, 1.0, -14.5, -53.75)" width="29.05" xlink:href="#shape34"/>
    </g>
    <g id="shape5" transform="matrix(1.0, 0.0, 0.0, 1.0, 0.0, 0.0)">
      <path d="M36.65 11.85 Q41.15 17.2 39.45 21.2 37.7 25.25 30.75 25.65 23.85 26.05 15.75 22.6 7.7 19.15 3.2 13.85 -1.25 8.55 0.5 4.55 2.2 0.5 9.1 0.05 16.05 -0.35 24.15 3.15 32.2 6.6 36.65 11.85" fill="url(#gradient1)" fill-rule="evenodd" stroke="none"/>
    </g>
    <radialGradient cx="0" cy="0" gradientTransform="matrix(0.0249, 0.0107, -0.0053, 0.0125, 19.9, 12.85)" gradientUnits="userSpaceOnUse" id="gradient1" r="819.2" spreadMethod="pad">
      <stop offset="0.34509803921568627" stop-color="#071c18" stop-opacity="0.4392157"/>
      <stop offset="0.9725490196078431" stop-color="#033c49" stop-opacity="0.0"/>
    </radialGradient>
    <g id="shape6" transform="matrix(1.0, 0.0, 0.0, 1.0, 0.0, 0.0)">
      <path d="M16.5 1.4 Q19.35 2.85 19.35 4.85 19.35 6.85 16.5 8.25 13.7 9.7 9.7 9.7 5.65 9.7 2.8 8.25 0.0 6.85 0.0 4.85 0.0 2.85 2.8 1.4 5.65 0.0 9.7 0.0 13.7 0.0 16.5 1.4" fill="url(#gradient2)" fill-rule="evenodd" stroke="none"/>
    </g>
    <radialGradient cx="0" cy="0" gradientTransform="matrix(0.0124, 0.0, 0.0, 0.0062, 9.7, 4.8)" gradientUnits="userSpaceOnUse" id="gradient2" r="819.2" spreadMethod="pad">
      <stop offset="0.43137254901960786" stop-color="#071c18" stop-opacity="0.4392157"/>
      <stop offset="0.9725490196078431" stop-color="#033c49" stop-opacity="0.0"/>
    </radialGradient>
    <g id="shape7" transform="matrix(1.0, 0.0, 0.0, 1.0, 0.2, 0.2)">
      <path d="M3.15 0.0 L0.9 0.8 0.0 2.5 0.4 2.8 0.1 3.3 0.75 3.6 3.4 2.8 4.35 1.35 3.15 0.0" fill="#745a34" fill-rule="evenodd" stroke="none"/>
      <path d="M3.15 0.0 L4.35 1.35 3.4 2.8 0.75 3.6 0.1 3.3 0.4 2.8 0.0 2.5 0.9 0.8 3.15 0.0 Z" fill="none" stroke="#000000" stroke-linecap="round" stroke-linejoin="round" stroke-opacity="0.29803923" stroke-width="0.05"/>
    </g>
    <g id="shape8" transform="matrix(1.0, 0.0, 0.0, 1.0, 0.2, 0.2)">
      <path d="M4.8 3.7 L4.05 4.9 2.2 4.9 1.65 4.45 0.45 1.7 0.65 2.05 2.85 0.4 3.55 0.65 4.8 3.7" fill="#664f2e" fill-rule="evenodd" stroke="none"/>
      <path d="M1.65 4.45 L0.45 1.7 0.65 2.05 2.85 0.4 3.55 0.65 4.8 3.7" fill="none" stroke="#000000" stroke-linecap="round" stroke-linejoin="round" stroke-opacity="0.29803923" stroke-width="0.05"/>
      <path d="M2.45 0.55 Q2.05 -0.05 1.1 0.0 0.55 0.3 0.45 1.1 L0.45 1.6 0.15 2.6 Q-0.15 3.25 0.15 4.4 0.95 4.45 1.55 4.0 2.05 4.85 3.05 4.9 L3.55 3.45 4.25 3.45 3.9 3.1 4.15 3.0 Q4.45 3.0 4.8 2.6 4.45 1.9 4.1 1.7 L3.35 1.25 4.25 0.6 2.45 0.55" fill="#121516" fill-rule="evenodd" stroke="none"/>
      <path d="M2.45 0.55 L4.25 0.6 3.35 1.25 4.1 1.7 Q4.45 1.9 4.8 2.6 4.45 3.0 4.15 3.0 L3.9 3.1 4.25 3.45 3.55 3.45 3.05 4.9 Q2.05 4.85 1.55 4.0 0.95 4.45 0.15 4.4 -0.15 3.25 0.15 2.6 L0.45 1.6 0.45 1.1 Q0.55 0.3 1.1 0.0 2.05 -0.05 2.45 0.55 Z" fill="none" stroke="#000000" stroke-linecap="round" stroke-linejoin="round" stroke-opacity="0.4" stroke-width="0.05"/>
    </g>
    <g id="shape9" transform="matrix(1.0, 0.0, 0.0, 1.0, 0.2, 0.2)">
      <path d="M5.6 11.9 L1.55 12.3 0.45 11.85 Q0.05 11.45 0.0 10.9 -0.1 10.15 0.45 9.05 3.15 4.85 6.75 2.25 L8.55 1.1 9.8 0.0 12.45 2.5 Q13.45 3.25 13.55 4.3 L13.55 4.95 Q12.35 7.4 8.7 9.95 L5.6 11.9" fill="#1e2123" fill-rule="evenodd" stroke="none"/>
      <path d="M5.6 11.9 L8.7 9.95 Q12.35 7.4 13.55 4.95 L13.55 4.3 Q13.45 3.25 12.45 2.5 L9.8 0.0 8.55 1.1 6.75 2.25 Q3.15 4.85 0.45 9.05 -0.1 10.15 0.0 10.9 0.05 11.45 0.45 11.85 L1.55 12.3 5.6 11.9 Z" fill="none" stroke="#000000" stroke-linecap="round" stroke-linejoin="round" stroke-opacity="0.4" stroke-width="0.05"/>
      <path d="M5.25 9.95 L2.4 10.25 1.65 9.9 Q1.35 9.65 1.35 9.25 1.25 8.7 1.65 7.95 3.5 5.0 6.1 3.15 L7.3 2.35 8.25 1.6 10.1 3.35 Q10.8 3.9 10.85 4.6 L10.85 5.1 Q10.0 6.8 7.45 8.6 L5.25 9.95" fill="#242b2d" fill-rule="evenodd" stroke="none"/>
    </g>
    <g id="shape10" transform="matrix(1.0, 0.0, 0.0, 1.0, 0.2, 0.2)">
      <path d="M2.75 0.8 Q3.4 2.15 2.85 3.9 L1.95 3.7 1.5 4.2 0.85 3.6 0.05 2.5 0.0 0.8 1.0 0.0 2.75 0.8" fill="#806237" fill-rule="evenodd" stroke="none"/>
      <path d="M2.75 0.8 L1.0 0.0 0.0 0.8 0.05 2.5 0.85 3.6 1.5 4.2 1.95 3.7 2.85 3.9 Q3.4 2.15 2.75 0.8 Z" fill="none" stroke="#000000" stroke-linecap="round" stroke-linejoin="round" stroke-opacity="0.29803923" stroke-width="0.05"/>
    </g>
    <g id="shape11" transform="matrix(1.0, 0.0, 0.0, 1.0, 0.2, 0.2)">
      <path d="M0.6 6.0 L0.0 3.4 0.3 1.15 2.15 0.0 4.15 1.55 3.0 6.1 2.1 6.8 Q1.3 6.5 0.6 6.0" fill="#745a34" fill-rule="evenodd" stroke="none"/>
      <path d="M3.0 6.1 L4.15 1.55 2.15 0.0 0.3 1.15 0.0 3.4 0.6 6.0" fill="none" stroke="#000000" stroke-linecap="round" stroke-linejoin="round" stroke-opacity="0.29803923" stroke-width="0.05"/>
    </g>
    <g id="shape12" transform="matrix(1.0, 0.0, 0.0, 1.0, 0.2, 0.2)">
      <path d="M5.1 1.95 L5.95 3.45 4.75 3.7 5.0 4.4 Q4.5 4.1 4.35 4.15 4.15 5.4 3.65 5.85 2.4 5.7 1.9 4.45 1.1 4.95 0.1 4.75 -0.15 3.25 0.2 2.45 1.15 0.25 3.3 0.05 4.45 -0.25 6.3 1.65 5.3 2.15 5.1 1.95 L4.95 1.85 5.0 1.8 4.9 1.7 4.95 1.85 5.1 1.95" fill="#1e2123" fill-rule="evenodd" stroke="none"/>
      <path d="M5.1 1.95 L5.95 3.45 4.75 3.7 5.0 4.4 Q4.5 4.1 4.35 4.15 4.15 5.4 3.65 5.85 2.4 5.7 1.9 4.45 1.1 4.95 0.1 4.75 -0.15 3.25 0.2 2.45 1.15 0.25 3.3 0.05 4.45 -0.25 6.3 1.65 5.3 2.15 5.1 1.95 L4.95 1.85 4.9 1.7 5.0 1.8 4.95 1.85" fill="none" stroke="#000000" stroke-linecap="round" stroke-linejoin="round" stroke-opacity="0.4" stroke-width="0.05"/>
    </g>
    <g id="shape13" transform="matrix(1.0, 0.0, 0.0, 1.0, 0.2, 0.2)">
      <path d="M0.0 2.0 Q0.4 3.6 1.95 7.7 3.55 11.8 6.15 12.3 8.5 12.2 9.05 10.25 9.6 8.3 5.9 1.75 2.6 -0.55 0.0 2.0" fill="#262b2d" fill-rule="evenodd" stroke="none"/>
      <path d="M0.0 2.0 Q0.4 3.6 1.95 7.7 3.55 11.8 6.15 12.3 8.5 12.2 9.05 10.25 9.6 8.3 5.9 1.75" fill="none" stroke="#000000" stroke-linecap="round" stroke-linejoin="round" stroke-opacity="0.4" stroke-width="0.05"/>
      <path d="M0.45 1.15 Q0.8 2.55 2.1 6.05 3.45 9.55 5.7 10.0 7.7 9.9 8.15 8.25 8.6 6.55 5.45 0.95 2.65 -1.0 0.45 1.15" fill="#30363a" fill-rule="evenodd" stroke="none"/>
    </g>
    <g id="shape14" transform="matrix(1.0, 0.0, 0.0, 1.0, 0.2, 0.2)">
      <path d="M8.85 17.65 L6.9 18.6 4.6 18.0 2.75 15.05 0.4 13.15 0.0 7.75 0.55 2.15 6.1 0.0 7.0 0.0 8.85 17.65" fill="#7c6037" fill-rule="evenodd" stroke="none"/>
      <path d="M7.0 0.0 L6.1 0.0 0.55 2.15 0.0 7.75 0.4 13.15 2.75 15.05 4.6 18.0 6.9 18.6 8.85 17.65" fill="none" stroke="#000000" stroke-linecap="round" stroke-linejoin="round" stroke-opacity="0.29803923" stroke-width="0.05"/>
      <path d="M6.95 17.95 L7.05 17.9 14.1 17.05 15.7 9.55 15.15 3.7 10.0 0.05 6.95 0.05 6.95 17.95" fill="#7c6037" fill-rule="evenodd" stroke="none"/>
      <path d="M6.95 17.95 L7.05 17.9 14.1 17.05 15.7 9.55 15.15 3.7 10.0 0.05 6.95 0.05" fill="none" stroke="#000000" stroke-linecap="round" stroke-linejoin="round" stroke-opacity="0.29803923" stroke-width="0.05"/>
      <path d="M3.2 13.55 L3.95 12.35 3.5 11.35" fill="none" stroke="#000000" stroke-linecap="round" stroke-linejoin="round" stroke-opacity="0.4" stroke-width="0.05"/>
    </g>
    <g id="shape15" transform="matrix(1.0, 0.0, 0.0, 1.0, 0.2, 0.2)">
      <path d="M1.8 5.6 L0.6 3.75 0.5 3.65 0.3 3.2 0.05 2.4 0.0 2.1 0.0 0.0 Q1.35 3.0 3.7 5.0 10.4 5.3 14.85 3.6 L15.15 6.8 14.1 6.8 10.15 7.35 8.75 7.65 Q6.75 8.55 5.4 8.55 L4.95 8.5 Q3.65 8.35 2.9 7.25 L1.8 5.6" fill="#343b3f" fill-rule="evenodd" stroke="none"/>
      <path d="M0.0 0.0 Q1.35 3.0 3.7 5.0 10.4 5.3 14.85 3.6 L15.15 6.8 14.1 6.8 M10.15 7.35 L8.75 7.65 Q6.75 8.55 5.4 8.55 L4.95 8.5 Q3.65 8.35 2.9 7.25 L1.8 5.6" fill="none" stroke="#000000" stroke-linecap="round" stroke-linejoin="round" stroke-opacity="0.4" stroke-width="0.05"/>
    </g>
    <g id="shape16" transform="matrix(1.0, 0.0, 0.0, 1.0, 0.2, 0.2)">
      <path d="M18.3 5.15 Q18.1 7.1 16.95 8.9 13.4 11.6 8.35 11.6 4.25 10.55 2.9 8.75 0.6 5.6 3.1 2.7 5.9 0.0 9.75 0.0 13.8 0.0 16.65 2.95 17.65 3.95 18.3 5.15" fill="url(#gradient3)" fill-rule="evenodd" stroke="none"/>
      <path d="M3.1 2.7 Q0.6 5.6 2.9 8.75 4.25 10.55 8.35 11.6 13.4 11.6 16.95 8.9 18.1 7.1 18.3 5.15 19.5 7.25 19.5 9.9 L16.4 14.65 16.4 15.85 12.8 18.3 Q6.55 17.95 3.75 16.2 0.8 13.2 0.0 9.5 0.15 5.7 2.85 2.95 L3.1 2.7" fill="#40514e" fill-rule="evenodd" stroke="none"/>
      <path d="M0.0 9.5 Q0.8 13.2 3.75 16.2 6.55 17.95 12.8 18.3 L16.4 15.85 16.4 14.65 19.5 9.9 19.5 10.0 Q19.5 14.1 16.65 17.05 13.8 19.95 9.75 19.95 5.7 19.95 2.85 17.05 0.0 14.1 0.0 10.0 L0.0 9.5" fill="#2e3a38" fill-rule="evenodd" stroke="none"/>
      <path d="M18.3 5.15 Q17.65 3.95 16.65 2.95 13.8 0.0 9.75 0.0 5.9 0.0 3.1 2.7 L2.85 2.95 Q0.15 5.7 0.0 9.5 L0.0 10.0 Q0.0 14.1 2.85 17.05 5.7 19.95 9.75 19.95 13.8 19.95 16.65 17.05 19.5 14.1 19.5 10.0 L19.5 9.9 Q19.5 7.25 18.3 5.15 Z" fill="none" stroke="#000000" stroke-linecap="round" stroke-linejoin="round" stroke-opacity="0.29803923" stroke-width="0.05"/>
      <path d="M10.9 2.85 L10.65 2.25 9.95 1.85 9.2 1.8 Q8.85 1.95 8.85 2.25 8.8 2.55 9.05 2.85 L9.75 3.3 10.5 3.3 10.9 2.85" fill="#b7d2d4" fill-rule="evenodd" stroke="none"/>
      <path d="M4.15 11.95 L1.3 9.75 1.3 11.75 2.5 12.15 3.7 13.6 6.8 12.75 4.15 11.95" fill="#535f5c" fill-opacity="0.29803923" fill-rule="evenodd" stroke="none"/>
    </g>
    <radialGradient cx="0" cy="0" gradientTransform="matrix(0.0117, 0.0, 0.0, 0.0117, 9.95, 2.45)" gradientUnits="userSpaceOnUse" id="gradient3" r="819.2" spreadMethod="pad">
      <stop offset="0.17254901960784313" stop-color="#7d8e8e"/>
      <stop offset="0.3137254901960784" stop-color="#6f7d7c"/>
      <stop offset="0.7372549019607844" stop-color="#717f7d"/>
      <stop offset="0.9098039215686274" stop-color="#4b6161"/>
    </radialGradient>
    <g id="shape17" transform="matrix(1.0, 0.0, 0.0, 1.0, 0.2, 0.2)">
      <path d="M0.05 0.75 L2.05 0.8 2.55 0.5 Q3.2 1.65 2.4 3.05 L0.3 3.5 Q-0.2 2.95 0.3 2.45 L1.4 2.25 Q1.65 1.7 1.3 1.15 L0.3 1.1 0.05 0.75" fill="#2e3a38" fill-rule="evenodd" stroke="none"/>
      <path d="M2.55 0.5 L2.05 0.8 0.05 0.75 Q-0.1 0.35 0.3 0.0 L2.3 0.15 2.55 0.5" fill="#7d8e8e" fill-rule="evenodd" stroke="none"/>
      <path d="M0.05 0.75 L0.3 1.1 1.3 1.15 Q1.65 1.7 1.4 2.25 L0.3 2.45 Q-0.2 2.95 0.3 3.5 L2.4 3.05 Q3.2 1.65 2.55 0.5 L2.3 0.15 0.3 0.0 Q-0.1 0.35 0.05 0.75 Z" fill="none" stroke="#000000" stroke-linecap="round" stroke-linejoin="round" stroke-opacity="0.3019608" stroke-width="0.05"/>
    </g>
    <g id="shape18" transform="matrix(1.0, 0.0, 0.0, 1.0, 0.2, 0.2)">
      <path d="M0.0 9.2 Q0.0 7.0 1.0 5.4 0.8 1.7 2.65 0.0 4.75 0.0 7.25 1.2 L7.9 1.55 Q10.05 3.4 10.3 5.75 L7.7 8.9 5.85 10.85 5.45 11.6 Q4.25 11.65 3.0 11.0 1.15 10.35 0.0 9.2" fill="#7f6238" fill-rule="evenodd" stroke="none"/>
      <path d="M5.45 11.6 L5.85 10.85 7.7 8.9 10.3 5.75 Q10.05 3.4 7.9 1.55 L7.25 1.2 Q4.75 0.0 2.65 0.0 0.8 1.7 1.0 5.4 0.0 7.0 0.0 9.2" fill="none" stroke="#000000" stroke-linecap="round" stroke-linejoin="round" stroke-opacity="0.4" stroke-width="0.05"/>
    </g>
    <g id="shape19" transform="matrix(1.0, 0.0, 0.0, 1.0, 4.3, 5.9)">
      <path d="M-3.95 4.4 L-3.95 4.0 Q-4.35 -1.25 -3.7 -2.95 -3.0 -4.8 -1.85 -5.6 L-0.9 -5.5 Q1.65 -5.3 2.8 -4.0 L2.9 -3.9 3.3 -3.4 Q4.25 -2.05 4.1 -0.4 L0.05 5.3 -3.95 4.4" fill="#9a704b" fill-rule="evenodd" stroke="none"/>
      <path d="M-0.9 -5.5 L-1.85 -5.6 Q-3.0 -4.8 -3.7 -2.95 -4.35 -1.25 -3.95 4.0 L-3.95 4.4 M0.05 5.3 L4.1 -0.4 Q4.25 -2.05 3.3 -3.4 L2.9 -3.9 2.8 -4.0" fill="none" stroke="#000000" stroke-linecap="round" stroke-linejoin="round" stroke-opacity="0.4" stroke-width="0.05"/>
      <path d="M-0.7 -5.65 Q1.4 -5.45 2.35 -4.45 L2.35 -4.35 2.75 -3.9 Q3.55 -2.8 3.4 -1.45 L0.65 2.7 0.5 4.1 -3.35 4.2 -3.2 2.15 Q-3.55 -2.15 -3.0 -3.55 -2.45 -5.1 -1.5 -5.7 L-0.7 -5.65" fill="#b18a53" fill-rule="evenodd" stroke="none"/>
      <path d="M-2.5 -4.7 Q-1.25 -5.75 0.85 -3.35 L-3.8 -2.85 -3.7 -3.0 -3.25 -3.85 -2.5 -4.7" fill="#851b19" fill-rule="evenodd" stroke="none"/>
      <path d="M3.8 -2.55 L3.95 -0.3 Q3.2 0.9 1.35 0.1 3.1 -1.3 3.8 -2.55" fill="#9f2927" fill-rule="evenodd" stroke="none"/>
      <path d="M-2.55 4.75 L-1.85 1.05 Q-0.15 2.9 1.8 2.1 L0.7 4.75 0.3 5.7 Q-1.85 5.7 -2.55 4.75" fill="#272424" fill-rule="evenodd" stroke="none"/>
    </g>
    <g id="shape20" transform="matrix(1.0, 0.0, 0.0, 1.0, 5.3, 5.3)">
      <path d="M-3.5 -4.0 Q-2.15 -4.8 -0.3 -5.1 L-1.3 -1.05 -4.5 -0.15 -3.5 -4.0" fill="url(#gradient4)" fill-rule="evenodd" stroke="none"/>
      <path d="M5.05 -0.95 L4.6 1.05 3.0 4.25 -2.15 5.1 -5.1 2.8 -5.1 0.4 -4.5 -0.15 -1.3 -1.05 1.6 0.1 3.6 2.3 5.05 -0.95" fill="#3c4946" fill-rule="evenodd" stroke="none"/>
      <path d="M-4.5 -0.15 L-5.1 0.4 -3.5 -4.0 -4.5 -0.15" fill="#404f4b" fill-rule="evenodd" stroke="none"/>
      <path d="M3.2 -3.85 Q4.9 -1.95 5.05 -0.95 L3.6 2.3 1.6 0.1 3.2 -3.85" fill="#72807c" fill-rule="evenodd" stroke="none"/>
      <path d="M-0.3 -5.1 Q2.1 -4.6 3.2 -3.85 L1.6 0.1 -1.3 -1.05 -0.3 -5.1" fill="#abc2c1" fill-rule="evenodd" stroke="none"/>
      <path d="M-3.5 -4.0 Q-2.15 -4.8 -0.3 -5.1 2.1 -4.6 3.2 -3.85 4.9 -1.95 5.05 -0.95 L4.6 1.05 3.0 4.25 -2.15 5.1 -2.3 5.1 M-5.1 0.4 L-5.1 2.8 -2.15 5.1 M-3.5 -4.0 L-5.1 0.4" fill="none" stroke="#000000" stroke-linecap="round" stroke-linejoin="round" stroke-opacity="0.29803923" stroke-width="0.05"/>
      <path d="M-3.9 2.85 L-2.85 0.5 -0.75 0.4 Q0.5 0.8 1.1 2.4 1.7 3.95 -1.15 4.3 -4.0 4.65 -3.85 2.85 L-3.9 2.85" fill="#851b19" fill-rule="evenodd" stroke="none"/>
      <path d="M-3.9 2.85 L-2.85 0.5 -0.75 0.4 Q0.5 0.8 1.1 2.4 1.7 3.95 -1.15 4.3 -4.0 4.65 -3.85 2.85 L-3.9 2.85 Z" fill="none" stroke="#000000" stroke-linecap="round" stroke-linejoin="round" stroke-opacity="0.4" stroke-width="0.05"/>
    </g>
    <linearGradient gradientTransform="matrix(-0.0014, -2.0E-4, 4.0E-4, -0.0027, -3.2, -3.25)" gradientUnits="userSpaceOnUse" id="gradient4" spreadMethod="pad" x1="-819.2" x2="819.2">
      <stop offset="0.0" stop-color="#6e7c7a"/>
      <stop offset="1.0" stop-color="#394745"/>
    </linearGradient>
    <g id="shape21" transform="matrix(1.0, 0.0, 0.0, 1.0, 0.2, 0.2)">
      <path d="M2.15 9.8 L1.85 10.1 Q1.9 11.2 2.3 12.15 L2.05 13.5 1.65 13.35 Q0.75 11.6 0.75 9.4 L1.6 8.75 2.15 9.8" fill="#8fa0a5" fill-rule="evenodd" stroke="none"/>
      <path d="M2.15 9.8 L1.6 8.75 Q2.55 8.25 3.5 8.75 4.75 10.9 4.45 12.7 3.35 13.8 2.05 13.5 L2.3 12.15 Q2.9 12.35 3.4 11.9 3.45 10.85 2.9 9.85 L2.15 9.8" fill="#747c7e" fill-rule="evenodd" stroke="none"/>
      <path d="M2.3 12.15 Q1.9 11.2 1.85 10.1 L2.15 9.8 2.9 9.85 Q3.45 10.85 3.4 11.9 2.9 12.35 2.3 12.15 M1.6 8.75 L0.75 9.4 Q0.75 11.6 1.65 13.35 L2.05 13.5 Q3.35 13.8 4.45 12.7 4.75 10.9 3.5 8.75 2.55 8.25 1.6 8.75" fill="none" stroke="#000000" stroke-linecap="round" stroke-linejoin="round" stroke-opacity="0.3019608" stroke-width="0.05"/>
      <path d="M1.45 3.9 L1.1 4.15 Q0.95 5.2 1.3 6.25 L0.8 7.55 0.45 7.4 Q-0.25 5.55 0.1 3.35 0.55 2.95 1.0 2.8 L1.45 3.9" fill="#8fa0a5" fill-rule="evenodd" stroke="none"/>
      <path d="M1.45 3.9 L1.0 2.8 Q2.0 2.4 2.95 3.05 3.85 5.35 3.3 7.1 2.05 8.05 0.8 7.55 L1.3 6.25 2.35 6.15 Q2.6 5.15 2.2 4.05 1.85 3.7 1.45 3.9" fill="#747c7e" fill-rule="evenodd" stroke="none"/>
      <path d="M1.3 6.25 Q0.95 5.2 1.1 4.15 L1.45 3.9 Q1.85 3.7 2.2 4.05 2.6 5.15 2.35 6.15 L1.3 6.25 M1.0 2.8 Q0.55 2.95 0.1 3.35 -0.25 5.55 0.45 7.4 L0.8 7.55 Q2.05 8.05 3.3 7.1 3.85 5.35 2.95 3.05 2.0 2.4 1.0 2.8" fill="none" stroke="#000000" stroke-linecap="round" stroke-linejoin="round" stroke-opacity="0.3019608" stroke-width="0.05"/>
      <path d="M2.95 8.75 L2.5 6.0 Q2.3 5.6 1.7 5.7 1.2 5.8 1.2 6.35 L1.5 8.25 1.7 8.45 2.2 8.8 2.45 8.85 2.9 8.8 2.95 8.75" fill="#8fa0a5" fill-rule="evenodd" stroke="none"/>
      <path d="M1.5 8.25 L1.8 9.8 2.2 10.2 2.55 10.25 Q3.0 10.1 3.1 9.6 L2.95 8.75 2.9 8.8 2.45 8.85 2.2 8.8 1.7 8.45 1.5 8.25" fill="#747c7e" fill-rule="evenodd" stroke="none"/>
      <path d="M2.95 8.75 L2.5 6.0 Q2.3 5.6 1.7 5.7 1.2 5.8 1.2 6.35 L1.5 8.25 1.8 9.8 2.2 10.2 2.55 10.25 Q3.0 10.1 3.1 9.6 L2.95 8.75 Z" fill="none" stroke="#000000" stroke-linecap="round" stroke-linejoin="round" stroke-opacity="0.3019608" stroke-width="0.05"/>
      <path d="M2.2 3.05 L1.65 0.35 Q1.4 -0.1 0.85 0.0 0.35 0.15 0.3 0.7 L0.7 2.6 0.95 2.8 Q1.15 3.0 1.45 3.05 L1.7 3.1 2.15 3.1 2.2 3.05" fill="#8fa0a5" fill-rule="evenodd" stroke="none"/>
      <path d="M0.7 2.6 L1.1 4.1 1.45 4.5 1.8 4.5 2.4 3.9 2.2 3.05 2.15 3.1 1.7 3.1 1.45 3.05 Q1.15 3.0 0.95 2.8 L0.7 2.6" fill="#747c7e" fill-rule="evenodd" stroke="none"/>
      <path d="M2.2 3.05 L1.65 0.35 Q1.4 -0.1 0.85 0.0 0.35 0.15 0.3 0.7 L0.7 2.6 1.1 4.1 1.45 4.5 1.8 4.5 2.4 3.9 2.2 3.05 Z" fill="none" stroke="#000000" stroke-linecap="round" stroke-linejoin="round" stroke-opacity="0.3019608" stroke-width="0.05"/>
    </g>
    <g id="shape22" transform="matrix(1.0, 0.0, 0.0, 1.0, 0.2, 0.25)">
      <path d="M1.4 3.4 L1.75 3.65 Q2.8 3.35 3.6 2.7 L5.0 2.6 4.95 3.0 Q3.5 4.35 1.35 4.9 L0.5 4.2 1.4 3.4" fill="#8fa0a5" fill-rule="evenodd" stroke="none"/>
      <path d="M1.4 3.4 L0.5 4.2 Q-0.2 3.4 0.05 2.3 1.8 0.6 3.6 0.45 5.0 1.25 5.0 2.6 L3.6 2.7 Q3.65 2.0 3.1 1.65 2.1 1.85 1.25 2.65 1.1 3.1 1.4 3.4" fill="#747c7e" fill-rule="evenodd" stroke="none"/>
      <path d="M3.6 2.7 Q2.8 3.35 1.75 3.65 L1.4 3.4 Q1.1 3.1 1.25 2.65 2.1 1.85 3.1 1.65 3.65 2.0 3.6 2.7 M0.5 4.2 L1.35 4.9 Q3.5 4.35 4.95 3.0 L5.0 2.6 Q5.0 1.25 3.6 0.45 1.8 0.6 0.05 2.3 -0.2 3.4 0.5 4.2" fill="none" stroke="#000000" stroke-linecap="round" stroke-linejoin="round" stroke-opacity="0.3019608" stroke-width="0.05"/>
      <path d="M9.0 2.3 L10.25 2.95 10.0 3.3 5.9 3.1 5.55 2.1 6.7 1.85 6.7 1.8 6.9 2.2 9.0 2.3" fill="#8fa0a5" fill-rule="evenodd" stroke="none"/>
      <path d="M10.25 2.95 L9.0 2.3 Q9.35 1.75 9.1 1.2 L6.95 1.1 Q6.55 1.45 6.7 1.8 L6.7 1.85 5.55 2.1 Q5.3 1.05 6.05 0.2 L10.1 0.4 Q10.9 1.8 10.25 2.95" fill="#747c7e" fill-rule="evenodd" stroke="none"/>
      <path d="M9.0 2.3 L6.9 2.2 6.7 1.8 Q6.55 1.45 6.95 1.1 L9.1 1.2 Q9.35 1.75 9.0 2.3 M5.55 2.1 L5.9 3.1 10.0 3.3 10.25 2.95 Q10.9 1.8 10.1 0.4 L6.05 0.2 Q5.3 1.05 5.55 2.1" fill="none" stroke="#000000" stroke-linecap="round" stroke-linejoin="round" stroke-opacity="0.3019608" stroke-width="0.05"/>
      <path d="M4.35 2.7 L7.1 2.45 Q7.6 2.25 7.55 1.7 7.45 1.15 6.9 1.1 L4.95 1.3 4.75 1.45 4.4 2.0 4.35 2.2 4.35 2.65 4.35 2.7" fill="#8fa0a5" fill-rule="evenodd" stroke="none"/>
      <path d="M4.95 1.3 L3.4 1.45 3.0 1.8 Q2.9 1.95 2.95 2.15 3.0 2.65 3.5 2.85 L4.35 2.7 4.35 2.65 4.35 2.2 4.4 2.0 4.75 1.45 4.95 1.3" fill="#747c7e" fill-rule="evenodd" stroke="none"/>
      <path d="M4.35 2.7 L7.1 2.45 Q7.6 2.25 7.55 1.7 7.45 1.15 6.9 1.1 L4.95 1.3 3.4 1.45 3.0 1.8 Q2.9 1.95 2.95 2.15 3.0 2.65 3.5 2.85 L4.35 2.7 Z" fill="none" stroke="#000000" stroke-linecap="round" stroke-linejoin="round" stroke-opacity="0.3019608" stroke-width="0.05"/>
      <path d="M9.75 2.65 L12.25 3.75 13.0 3.35 Q13.25 2.85 12.75 2.5 L10.95 1.75 10.7 1.75 Q10.4 1.8 10.15 2.0 L10.0 2.15 9.75 2.6 9.75 2.65" fill="#8fa0a5" fill-rule="evenodd" stroke="none"/>
      <path d="M10.95 1.75 L9.5 1.1 9.0 1.15 8.75 1.45 Q8.6 1.9 8.95 2.25 L9.75 2.65 9.75 2.6 10.0 2.15 10.15 2.0 Q10.4 1.8 10.7 1.75 L10.95 1.75" fill="#747c7e" fill-rule="evenodd" stroke="none"/>
      <path d="M9.75 2.65 L12.25 3.75 13.0 3.35 Q13.25 2.85 12.75 2.5 L10.95 1.75 9.5 1.1 9.0 1.15 8.75 1.45 Q8.6 1.9 8.95 2.25 L9.75 2.65 Z" fill="none" stroke="#000000" stroke-linecap="round" stroke-linejoin="round" stroke-opacity="0.3019608" stroke-width="0.05"/>
    </g>
    <g id="shape23" transform="matrix(1.0, 0.0, 0.0, 1.0, 0.2, 0.2)">
      <path d="M0.0 2.8 L1.4 2.7 Q1.35 3.4 1.9 3.75 L3.75 2.75 Q3.9 2.3 3.6 2.0 L4.5 1.2 Q5.2 2.0 4.95 3.1 3.2 4.8 1.4 4.95 0.0 4.15 0.0 2.8" fill="#747c7e" fill-rule="evenodd" stroke="none"/>
      <path d="M1.4 2.7 L0.0 2.8 0.05 2.4 Q1.5 1.05 3.65 0.5 L4.5 1.2 3.6 2.0 3.25 1.75 Q2.2 2.05 1.4 2.7" fill="#8fa0a5" fill-rule="evenodd" stroke="none"/>
      <path d="M1.4 2.7 Q2.2 2.05 3.25 1.75 L3.6 2.0 Q3.9 2.3 3.75 2.75 L1.9 3.75 Q1.35 3.4 1.4 2.7 M4.5 1.2 L3.65 0.5 Q1.5 1.05 0.05 2.4 L0.0 2.8 Q0.0 4.15 1.4 4.95 3.2 4.8 4.95 3.1 5.2 2.0 4.5 1.2" fill="none" stroke="#000000" stroke-linecap="round" stroke-linejoin="round" stroke-opacity="0.3019608" stroke-width="0.05"/>
      <path d="M9.4 1.7 L9.4 1.65 10.55 1.4 Q10.8 2.45 10.05 3.3 L6.0 3.1 Q5.2 1.7 5.85 0.55 L7.1 1.2 Q6.75 1.75 7.0 2.3 L9.15 2.4 Q9.55 2.05 9.4 1.7" fill="#747c7e" fill-rule="evenodd" stroke="none"/>
      <path d="M9.4 1.7 L9.2 1.3 7.1 1.2 5.85 0.55 6.1 0.2 10.2 0.4 10.55 1.4 9.4 1.65 9.4 1.7" fill="#8fa0a5" fill-rule="evenodd" stroke="none"/>
      <path d="M7.1 1.2 L9.2 1.3 9.4 1.7 Q9.55 2.05 9.15 2.4 L7.0 2.3 Q6.75 1.75 7.1 1.2 M10.55 1.4 L10.2 0.4 6.1 0.2 5.85 0.55 Q5.2 1.7 6.0 3.1 L10.05 3.3 Q10.8 2.45 10.55 1.4" fill="none" stroke="#000000" stroke-linecap="round" stroke-linejoin="round" stroke-opacity="0.3019608" stroke-width="0.05"/>
      <path d="M4.95 1.3 L3.4 1.45 3.0 1.8 Q2.9 1.95 2.95 2.15 3.0 2.65 3.5 2.85 L4.35 2.7 4.35 2.65 4.35 2.2 4.4 2.0 4.75 1.45 4.95 1.3" fill="#747c7e" fill-rule="evenodd" stroke="none"/>
      <path d="M4.35 2.7 L7.1 2.45 Q7.6 2.25 7.55 1.7 7.45 1.15 6.9 1.1 L4.95 1.3 4.75 1.45 4.4 2.0 4.35 2.2 4.35 2.65 4.35 2.7" fill="#8fa0a5" fill-rule="evenodd" stroke="none"/>
      <path d="M4.35 2.7 L7.1 2.45 Q7.6 2.25 7.55 1.7 7.45 1.15 6.9 1.1 L4.95 1.3 3.4 1.45 3.0 1.8 Q2.9 1.95 2.95 2.15 3.0 2.65 3.5 2.85 L4.35 2.7 Z" fill="none" stroke="#000000" stroke-linecap="round" stroke-linejoin="round" stroke-opacity="0.3019608" stroke-width="0.05"/>
      <path d="M10.95 1.75 L9.5 1.1 9.0 1.15 8.75 1.45 Q8.6 1.9 8.95 2.25 L9.75 2.65 9.75 2.6 10.0 2.15 10.15 2.0 Q10.4 1.8 10.7 1.75 L10.95 1.75" fill="#747c7e" fill-rule="evenodd" stroke="none"/>
      <path d="M9.75 2.65 L12.25 3.75 13.0 3.35 Q13.25 2.85 12.75 2.5 L10.95 1.75 10.7 1.75 Q10.4 1.8 10.15 2.0 L10.0 2.15 9.75 2.6 9.75 2.65" fill="#8fa0a5" fill-rule="evenodd" stroke="none"/>
      <path d="M9.75 2.65 L12.25 3.75 13.0 3.35 Q13.25 2.85 12.75 2.5 L10.95 1.75 9.5 1.1 9.0 1.15 8.75 1.45 Q8.6 1.9 8.95 2.25 L9.75 2.65 Z" fill="none" stroke="#000000" stroke-linecap="round" stroke-linejoin="round" stroke-opacity="0.3019608" stroke-width="0.05"/>
    </g>
    <g id="shape24" transform="matrix(1.0, 0.0, 0.0, 1.0, 0.2, 0.2)">
      <path d="M6.4 5.15 L6.4 1.2 7.8 2.65 8.3 4.0 8.3 5.3 Q6.7 4.55 6.4 5.15" fill="#701311" fill-rule="evenodd" stroke="none"/>
      <path d="M6.4 5.15 Q6.7 4.55 8.3 5.3 L8.3 4.0 7.8 2.65 6.4 1.2 6.4 5.15 Z" fill="none" stroke="#000000" stroke-linecap="round" stroke-linejoin="round" stroke-opacity="0.29803923" stroke-width="0.05"/>
      <path d="M1.95 5.8 L0.75 7.45 0.0 7.3 0.15 6.2 1.95 5.8" fill="#c43330" fill-rule="evenodd" stroke="none"/>
      <path d="M0.0 7.3 L0.75 7.45 1.95 5.8 3.05 8.0 1.95 8.55 0.0 7.3" fill="#851b19" fill-rule="evenodd" stroke="none"/>
      <path d="M1.95 5.8 L0.15 6.2 0.0 7.3 1.95 8.55 3.05 8.0 1.95 5.8 Z" fill="none" stroke="#000000" stroke-linecap="round" stroke-linejoin="round" stroke-opacity="0.29803923" stroke-width="0.05"/>
      <path d="M3.2 6.7 L3.1 6.35 1.15 6.95 1.45 7.85 2.25 8.0 3.2 6.7" fill="#c43330" fill-rule="evenodd" stroke="none"/>
      <path d="M1.45 7.85 L3.05 9.05 3.95 7.2 3.2 6.7 2.25 8.0 1.45 7.85" fill="#851b19" fill-rule="evenodd" stroke="none"/>
      <path d="M1.45 7.85 L3.05 9.05 M3.95 7.2 L3.2 6.7 3.1 6.35 1.15 6.95 1.45 7.85 Z" fill="none" stroke="#000000" stroke-linecap="round" stroke-linejoin="round" stroke-opacity="0.29803923" stroke-width="0.05"/>
      <path d="M6.7 8.1 L7.0 8.95 6.95 9.6 6.0 10.0 4.15 9.35 3.35 8.6 4.9 6.35 6.7 8.1" fill="#851b19" fill-rule="evenodd" stroke="none"/>
      <path d="M6.7 8.1 L4.9 6.35 3.35 8.6 4.15 9.35 6.0 10.0 6.95 9.6" fill="none" stroke="#000000" stroke-linecap="round" stroke-linejoin="round" stroke-opacity="0.29803923" stroke-width="0.05"/>
      <path d="M1.85 0.75 L2.4 0.2 3.95 0.0 Q4.9 0.3 5.6 1.05 6.0 2.75 5.45 5.7 L5.4 5.75 4.25 6.65 1.4 7.7 0.15 6.1 0.5 2.55 1.85 0.75" fill="#c43330" fill-rule="evenodd" stroke="none"/>
      <path d="M5.45 5.7 Q6.0 2.75 5.6 1.05 L5.35 0.35 6.65 1.6 6.8 2.8 6.65 4.6 6.1 5.05 5.45 5.7" fill="#851b19" fill-rule="evenodd" stroke="none"/>
      <path d="M1.85 0.75 L0.5 2.55 0.15 6.1 M4.25 6.65 L5.4 5.75 5.45 5.7 6.1 5.05 M5.35 0.35 L6.65 1.6 6.8 2.8" fill="none" stroke="#000000" stroke-linecap="round" stroke-linejoin="round" stroke-opacity="0.29803923" stroke-width="0.05"/>
      <path d="M2.85 6.65 L2.9 8.35 3.7 9.3 5.05 8.05 5.15 6.2 2.85 6.65" fill="#c43330" fill-rule="evenodd" stroke="none"/>
      <path d="M3.7 9.3 L4.85 9.4 5.5 8.4 5.8 6.7 5.9 6.15 5.15 6.2 5.05 8.05 3.7 9.3" fill="#851b19" fill-rule="evenodd" stroke="none"/>
      <path d="M2.85 6.65 L2.9 8.35 3.7 9.3 4.85 9.4 M5.8 6.7 L5.9 6.15" fill="none" stroke="#000000" stroke-linecap="round" stroke-linejoin="round" stroke-opacity="0.29803923" stroke-width="0.05"/>
      <path d="M5.65 4.05 L5.65 5.15 4.95 6.8 2.9 6.85 2.45 5.9 5.65 4.05" fill="#c43330" fill-rule="evenodd" stroke="none"/>
      <path d="M5.65 4.05 L6.65 4.45 5.75 6.7 4.95 6.8 5.65 5.15 5.65 4.05" fill="#851b19" fill-rule="evenodd" stroke="none"/>
      <path d="M5.75 6.7 L6.65 4.45 M2.45 5.9 L2.9 6.85" fill="none" stroke="#000000" stroke-linecap="round" stroke-linejoin="round" stroke-opacity="0.29803923" stroke-width="0.05"/>
    </g>
    <g id="shape25" transform="matrix(1.0, 0.0, 0.0, 1.0, 0.2, 0.2)">
      <path d="M0.1 8.85 Q-0.15 6.4 0.3 4.75 L0.55 3.85 0.65 3.65 Q0.9 3.0 1.3 2.75 2.8 0.6 5.4 0.0 9.05 0.85 12.0 2.35 12.6 4.25 12.45 6.1 12.35 7.9 11.65 9.5 L11.2 10.45 9.15 13.05 6.0 13.3 2.1 11.8 Q0.65 10.0 0.1 8.85" fill="#936b46" fill-rule="evenodd" stroke="none"/>
      <path d="M6.0 13.3 L9.15 13.05 11.2 10.45 11.65 9.5 Q12.35 7.9 12.45 6.1 12.6 4.25 12.0 2.35 9.05 0.85 5.4 0.0 2.8 0.6 1.3 2.75 0.9 3.0 0.65 3.65 L0.55 3.85 0.3 4.75 Q-0.15 6.4 0.1 8.85" fill="none" stroke="#000000" stroke-linecap="round" stroke-linejoin="round" stroke-opacity="0.4" stroke-width="0.05"/>
      <path d="M1.3 2.75 Q2.85 0.55 5.45 0.0 9.1 0.85 12.1 2.35 L12.5 4.45 9.4 7.1 3.5 6.1 1.3 2.75" fill="#ad8447" fill-rule="evenodd" stroke="none"/>
      <path d="M12.5 4.45 L12.1 2.35 Q9.1 0.85 5.45 0.0 2.85 0.55 1.3 2.75" fill="none" stroke="#000000" stroke-linecap="round" stroke-linejoin="round" stroke-opacity="0.4" stroke-width="0.05"/>
    </g>
    <g id="shape26" transform="matrix(1.0, 0.0, 0.0, 1.0, 0.2, 0.2)">
      <path d="M22.4 7.95 Q22.7 10.45 22.4 13.35 L19.7 19.8 17.7 21.1 13.05 22.3 8.2 20.9 Q6.1 20.1 4.15 19.0 L1.9 17.75 Q-0.3 13.0 0.05 5.8 L0.05 5.6 Q4.75 11.05 13.05 13.35 19.2 11.75 22.4 7.95" fill="#896a3e" fill-rule="evenodd" stroke="none"/>
      <path d="M0.05 5.6 L0.05 5.05 3.4 0.95 3.95 0.85 7.9 0.0 Q17.95 3.2 22.4 7.95 19.2 11.75 13.05 13.35 4.75 11.05 0.05 5.6" fill="#aa8246" fill-rule="evenodd" stroke="none"/>
      <path d="M3.95 0.85 L7.9 0.0 Q17.95 3.2 22.4 7.95 22.7 10.45 22.4 13.35 L19.7 19.8 17.7 21.1 M4.15 19.0 L1.9 17.75 Q-0.3 13.0 0.05 5.8" fill="none" stroke="#000000" stroke-linecap="round" stroke-linejoin="round" stroke-opacity="0.4" stroke-width="0.05"/>
    </g>
    <g id="shape27" transform="matrix(1.0, 0.0, 0.0, 1.0, 0.2, 0.2)">
      <path d="M8.7 4.25 L9.35 8.5 7.6 10.95 Q6.45 12.1 5.15 12.55 2.65 11.45 1.2 10.0 0.35 7.9 0.0 6.0 0.55 2.95 1.75 0.0 5.65 0.15 8.7 4.25" fill="#a57848" fill-rule="evenodd" stroke="none"/>
      <path d="M1.75 0.0 Q0.55 2.95 0.0 6.0 0.35 7.9 1.2 10.0 2.65 11.45 5.15 12.55 6.45 12.1 7.6 10.95 L9.35 8.5 8.7 4.25" fill="none" stroke="#000000" stroke-linecap="round" stroke-linejoin="round" stroke-opacity="0.29803923" stroke-width="0.05"/>
      <path d="M2.2 0.25 Q5.6 0.4 8.25 3.95 L8.85 7.7 7.3 9.85 Q6.3 10.85 5.15 11.25 2.95 10.3 1.7 9.0 0.95 7.15 0.65 5.5 1.1 2.85 2.2 0.25" fill="#b2884d" fill-rule="evenodd" stroke="none"/>
      <path d="M0.8 3.15 L2.6 5.05 4.85 3.0 Q3.75 5.6 3.7 6.25 L5.5 8.55 Q4.4 8.45 2.95 7.25 L2.0 7.95 1.3 8.65 Q1.2 7.15 2.05 5.8 1.35 5.1 0.8 3.15" fill="#9a6e52" fill-rule="evenodd" stroke="none"/>
    </g>
    <g id="shape28" transform="matrix(1.0, 0.0, 0.0, 1.0, 0.2, 0.2)">
      <path d="M11.75 4.25 L12.9 8.5 10.65 10.95 Q9.1 12.1 7.35 12.55 3.9 11.45 1.9 9.95 0.6 7.9 0.0 6.0 0.65 3.0 2.1 0.0 7.45 0.2 11.75 4.25" fill="#a07442" fill-rule="evenodd" stroke="none"/>
      <path d="M2.1 0.0 Q0.65 3.0 0.0 6.0 0.6 7.9 1.9 9.95 3.9 11.45 7.35 12.55 9.1 12.1 10.65 10.95 L12.9 8.5 11.75 4.25" fill="none" stroke="#000000" stroke-linecap="round" stroke-linejoin="round" stroke-opacity="0.29803923" stroke-width="0.05"/>
      <path d="M2.7 2.0 Q6.95 2.15 10.4 5.35 11.05 7.1 11.3 8.75 L9.5 10.7 Q8.3 11.6 6.9 11.95 4.15 11.1 2.55 9.9 1.55 8.25 1.05 6.75 1.55 4.35 2.7 2.0" fill="#bf9250" fill-rule="evenodd" stroke="none"/>
      <path d="M6.6 11.9 Q5.35 9.9 4.8 7.6 L6.8 6.75 7.55 8.6 9.05 7.55 10.0 9.95 6.6 11.9" fill="#9f2927" fill-rule="evenodd" stroke="none"/>
    </g>
    <g id="shape29" transform="matrix(1.0, 0.0, 0.0, 1.0, 0.2, 0.2)">
      <path d="M2.7 13.8 L2.15 12.75 Q1.5 11.25 1.65 9.5 1.8 7.25 4.3 6.3 L5.0 6.15 6.75 6.05 9.6 6.45 Q10.7 8.55 9.35 11.7 L6.4 14.45 2.7 13.8" fill="#a37e49" fill-rule="evenodd" stroke="none"/>
      <path d="M9.35 11.7 Q9.8 13.45 9.1 15.35 L8.45 16.95 3.35 15.85 3.25 15.05 2.7 13.8 6.4 14.45 9.35 11.7" fill="#936b46" fill-rule="evenodd" stroke="none"/>
      <path d="M2.7 13.8 L2.15 12.75 Q1.5 11.25 1.65 9.5 1.8 7.25 4.3 6.3 L5.0 6.15 6.75 6.05 9.6 6.45 Q10.7 8.55 9.35 11.7 9.8 13.45 9.1 15.35 L8.45 16.95 3.35 15.85 3.25 15.05 2.7 13.8 Z" fill="none" stroke="#000000" stroke-linecap="round" stroke-linejoin="round" stroke-opacity="0.4" stroke-width="0.05"/>
      <path d="M4.6 0.15 Q6.0 0.35 7.5 1.1 L7.6 1.15 Q9.3 2.6 9.7 4.8 L9.9 5.45 9.9 5.65 9.9 5.7 9.9 5.8 9.8 6.6 Q9.65 7.9 8.75 9.55 8.0 10.15 6.45 10.8 L2.75 10.85 0.9 9.4 Q0.0 7.65 0.0 5.9 0.0 4.4 0.7 3.0 L0.8 2.65 0.8 2.6 1.1 1.9 1.4 1.25 1.65 0.9 2.2 0.1 Q3.2 -0.1 4.25 0.1 L4.6 0.15" fill="url(#gradient5)" fill-rule="evenodd" stroke="none"/>
      <path d="M4.6 0.15 Q6.0 0.35 7.5 1.1 L7.6 1.15 Q9.3 2.6 9.7 4.8 L9.9 5.45 9.9 5.65 9.9 5.7 9.9 5.8 9.8 6.6 Q9.65 7.9 8.75 9.55 M2.75 10.85 L0.9 9.4 Q0.0 7.65 0.0 5.9 0.0 4.4 0.7 3.0" fill="none" stroke="#000000" stroke-linecap="round" stroke-linejoin="round" stroke-opacity="0.4" stroke-width="0.05"/>
      <path d="M9.05 12.3 Q8.15 13.8 6.3 11.8 9.6 10.65 9.9 9.15 L9.85 10.0 9.6 11.1 9.05 12.3" fill="#9f2927" fill-rule="evenodd" stroke="none"/>
      <path d="M5.2 1.0 Q6.7 2.8 7.35 4.55 6.6 7.1 5.35 8.25 6.95 4.55 5.2 1.0" fill="#a87a70" fill-rule="evenodd" stroke="none"/>
      <path d="M5.2 1.0 Q6.95 4.55 5.35 8.25 6.05 5.05 5.2 1.0" fill="#91685e" fill-rule="evenodd" stroke="none"/>
    </g>
    <radialGradient cx="0" cy="0" gradientTransform="matrix(-0.0092, 0.0016, 2.0E-4, 0.0096, 5.15, 1.7)" gradientUnits="userSpaceOnUse" id="gradient5" r="819.2" spreadMethod="pad">
      <stop offset="0.4980392156862745" stop-color="#eeb86c"/>
      <stop offset="1.0" stop-color="#b18950"/>
    </radialGradient>
    <g id="shape30" transform="matrix(1.0, 0.0, 0.0, 1.0, 0.2, 0.2)">
      <path d="M14.3 1.1 Q15.35 2.05 15.85 4.0 15.1 5.55 12.85 7.2 10.85 8.8 4.05 11.1 L0.8 12.55 0.0 7.85 2.1 6.9 7.9 0.85 9.6 0.2 11.95 0.05 12.7 0.2 Q13.65 0.45 14.3 1.1" fill="url(#gradient6)" fill-rule="evenodd" stroke="none"/>
      <path d="M14.3 1.1 Q15.35 2.05 15.85 4.0 15.1 5.55 12.85 7.2 10.85 8.8 4.05 11.1 L0.8 12.55 0.0 7.85 2.1 6.9 7.9 0.85 9.6 0.2" fill="none" stroke="#000000" stroke-linecap="round" stroke-linejoin="round" stroke-opacity="0.4" stroke-width="0.05"/>
      <path d="M3.9 6.35 L4.35 6.1 4.3 6.85 Q4.35 8.7 5.9 9.5 L3.2 10.45 2.25 10.75 Q0.8 9.15 1.1 7.95 L3.9 6.35 4.3 6.85 3.9 6.35" fill="#272424" fill-rule="evenodd" stroke="none"/>
      <path d="M7.1 10.15 Q6.7 9.25 6.95 7.25 7.45 7.6 8.1 7.75 L12.6 7.45 Q8.85 9.6 7.1 10.15" fill="#9f2927" fill-rule="evenodd" stroke="none"/>
      <path d="M3.5 5.9 L5.0 3.95 Q6.7 3.45 8.1 3.95 7.1 5.95 8.1 7.75 7.45 7.6 6.95 7.25 6.7 9.25 7.1 10.15 L4.3 6.85 4.35 6.1 3.9 6.35 3.5 5.9 M9.3 0.7 Q10.9 0.7 10.45 5.15 7.8 1.4 6.55 2.25 L7.2 1.6 8.2 1.0 9.3 0.7" fill="#c43330" fill-rule="evenodd" stroke="none"/>
      <path d="M3.5 5.9 L3.9 6.35 4.3 6.85" fill="none" stroke="#000000" stroke-linecap="round" stroke-linejoin="round" stroke-opacity="0.4" stroke-width="0.05"/>
      <path d="M13.15 6.9 Q13.9 3.6 11.7 0.8 13.25 1.45 13.95 2.6 14.7 3.8 13.15 6.9" fill="#9a7156" fill-rule="evenodd" stroke="none"/>
    </g>
    <radialGradient cx="0" cy="0" gradientTransform="matrix(-0.0024, -0.0029, -0.0074, 0.0063, 6.5, 3.95)" gradientUnits="userSpaceOnUse" id="gradient6" r="819.2" spreadMethod="pad">
      <stop offset="0.5882352941176471" stop-color="#eeb86c"/>
      <stop offset="1.0" stop-color="#b18950"/>
    </radialGradient>
    <g id="shape31" transform="matrix(1.0, 0.0, 0.0, 1.0, 0.2, 0.2)">
      <path d="M3.45 3.4 L0.25 3.5 Q2.3 1.55 6.2 0.0 L8.55 0.4 3.45 3.4 M6.75 6.2 L5.95 4.55 10.6 2.05 11.3 3.55 6.75 6.2" fill="#6e7c7a" fill-rule="evenodd" stroke="none"/>
      <path d="M5.95 4.55 L3.45 3.4 8.55 0.4 10.6 2.05 5.95 4.55" fill="#a8bebc" fill-rule="evenodd" stroke="none"/>
      <path d="M0.25 3.5 L3.45 3.4 5.95 4.55 6.75 6.2 7.0 9.15 6.45 10.9 3.35 10.8 0.75 8.8 Q0.0 7.2 0.0 5.5 L0.25 3.5" fill="#333f3d" fill-rule="evenodd" stroke="none"/>
      <path d="M6.45 10.9 L7.0 9.15 11.45 5.8 10.65 8.05 6.45 10.9" fill="#4e5655" fill-rule="evenodd" stroke="none"/>
      <path d="M7.0 9.15 L6.75 6.2 11.3 3.55 11.45 5.8 7.0 9.15" fill="url(#gradient7)" fill-rule="evenodd" stroke="none"/>
      <path d="M8.55 0.4 L6.2 0.0 Q2.3 1.55 0.25 3.5 M10.6 2.05 L8.55 0.4 M11.3 3.55 L10.6 2.05 M11.45 5.8 L11.3 3.55 M6.45 10.9 L10.65 8.05 11.45 5.8" fill="none" stroke="#000000" stroke-linecap="round" stroke-linejoin="round" stroke-opacity="0.29803923" stroke-width="0.05"/>
      <path d="M0.25 3.5 L0.0 5.5 Q0.0 7.2 0.75 8.8 L3.35 10.8 6.45 10.9" fill="none" stroke="#000000" stroke-linecap="round" stroke-linejoin="round" stroke-opacity="0.3019608" stroke-width="0.05"/>
      <path d="M0.8 7.1 Q0.75 4.65 2.7 4.6 4.15 4.7 4.9 5.35 5.85 6.15 5.5 7.95 5.05 9.65 4.25 9.65 2.05 9.6 0.8 7.1" fill="#851b19" fill-rule="evenodd" stroke="none"/>
      <path d="M0.8 7.1 Q0.75 4.65 2.7 4.6 4.15 4.7 4.9 5.35 5.85 6.15 5.5 7.95 5.05 9.65 4.25 9.65 2.05 9.6 0.8 7.1 Z" fill="none" stroke="#000000" stroke-linecap="round" stroke-linejoin="round" stroke-opacity="0.4" stroke-width="0.05"/>
    </g>
    <linearGradient gradientTransform="matrix(6.0E-4, 0.0011, -0.0033, 0.0019, 9.25, 5.8)" gradientUnits="userSpaceOnUse" id="gradient7" spreadMethod="pad" x1="-819.2" x2="819.2">
      <stop offset="0.0" stop-color="#6e7c7a"/>
      <stop offset="1.0" stop-color="#394745"/>
    </linearGradient>
    <g id="shape32" transform="matrix(1.0, 0.0, 0.0, 1.0, 0.2, 0.2)">
      <path d="M5.8 6.95 L6.6 8.1 6.05 8.25 4.85 7.35 5.8 6.95" fill="#701311" fill-rule="evenodd" stroke="none"/>
      <path d="M5.8 6.95 L4.85 7.35 6.05 8.25 6.6 8.1 5.8 6.95 Z" fill="none" stroke="#000000" stroke-linecap="round" stroke-linejoin="round" stroke-opacity="0.29803923" stroke-width="0.05"/>
      <path d="M2.9 0.7 L4.85 0.75 7.2 0.0 8.65 0.45 9.15 0.65 10.2 2.45 10.35 3.15 Q9.65 4.45 7.85 5.4 L6.75 5.9 4.1 4.1 3.15 3.1 2.9 0.7" fill="#c43330" fill-rule="evenodd" stroke="none"/>
      <path d="M10.35 3.15 Q10.25 4.55 9.6 5.6 L7.5 6.75 5.65 6.85 3.0 5.45 2.35 3.3 2.9 0.7 3.15 3.1 4.1 4.1 6.75 5.9 7.85 5.4 Q9.65 4.45 10.35 3.15" fill="#851b19" fill-rule="evenodd" stroke="none"/>
      <path d="M2.9 0.7 L4.85 0.75 7.2 0.0 8.65 0.45 M10.2 2.45 L10.35 3.15 Q10.25 4.55 9.6 5.6 L7.5 6.75 5.65 6.85 3.0 5.45 2.35 3.3 2.9 0.7 Z" fill="none" stroke="#000000" stroke-linecap="round" stroke-linejoin="round" stroke-opacity="0.29803923" stroke-width="0.05"/>
      <path d="M1.35 3.1 L2.2 3.45 3.25 4.85 3.6 6.3 2.4 6.45 0.55 5.35 0.4 3.9 1.35 3.1" fill="#701311" fill-rule="evenodd" stroke="none"/>
      <path d="M1.35 3.1 L0.4 3.9 0.55 5.35 2.4 6.45 3.6 6.3 3.25 4.85 2.2 3.45 1.35 3.1 Z" fill="none" stroke="#000000" stroke-linecap="round" stroke-linejoin="round" stroke-opacity="0.29803923" stroke-width="0.05"/>
      <path d="M4.05 3.05 L3.5 3.25 1.3 4.5 0.45 4.05 0.3 3.3 1.85 2.0 2.9 0.6 4.05 3.05" fill="#bc302d" fill-rule="evenodd" stroke="none"/>
      <path d="M0.3 3.3 L0.45 4.05 1.3 4.5 3.5 3.25 4.05 3.05 4.25 4.3 3.4 4.45 2.55 4.9 Q2.05 5.2 1.6 5.45 L1.0 5.35 0.6 5.3 0.0 4.55 0.3 3.3" fill="#851b19" fill-rule="evenodd" stroke="none"/>
      <path d="M2.9 0.6 L1.85 2.0 0.3 3.3 0.0 4.55 0.6 5.3 1.0 5.35 M2.55 4.9 L3.4 4.45 4.25 4.3" fill="none" stroke="#000000" stroke-linecap="round" stroke-linejoin="round" stroke-opacity="0.29803923" stroke-width="0.05"/>
      <path d="M4.5 4.65 L2.85 4.85 2.55 3.85 Q4.75 2.0 4.5 4.65" fill="#bc302d" fill-rule="evenodd" stroke="none"/>
      <path d="M4.5 4.65 L4.75 5.05 3.65 7.45 2.9 7.1 2.5 6.5 2.5 4.8 2.4 4.2 2.55 3.85 2.85 4.85 4.5 4.65" fill="#851b19" fill-rule="evenodd" stroke="none"/>
      <path d="M3.65 7.45 L4.75 5.05 5.1 5.85 4.5 7.15 3.65 7.45" fill="#701311" fill-rule="evenodd" stroke="none"/>
      <path d="M2.55 3.85 L2.4 4.2 2.5 4.8 2.5 6.5 2.9 7.1 3.65 7.45 4.5 7.15 5.1 5.85" fill="none" stroke="#000000" stroke-linecap="round" stroke-linejoin="round" stroke-opacity="0.29803923" stroke-width="0.05"/>
      <path d="M7.3 5.6 L6.35 6.0 5.45 5.95 4.55 5.15 4.25 4.25 7.3 5.6" fill="#bc302d" fill-rule="evenodd" stroke="none"/>
      <path d="M7.3 5.6 L7.45 5.65 7.6 6.4 6.65 6.55 6.35 7.2 6.15 8.2 5.3 8.15 4.7 7.4 4.4 5.55 4.05 5.0 4.25 4.25 4.55 5.15 5.45 5.95 6.35 6.0 7.3 5.6" fill="#851b19" fill-rule="evenodd" stroke="none"/>
      <path d="M4.25 4.25 L4.05 5.0 4.4 5.55 4.7 7.4 5.3 8.15 6.15 8.2 M6.35 7.2 L6.65 6.55 7.6 6.4" fill="none" stroke="#000000" stroke-linecap="round" stroke-linejoin="round" stroke-opacity="0.29803923" stroke-width="0.05"/>
    </g>
    <g id="shape33" transform="matrix(1.0, 0.0, 0.0, 1.0, 0.2, 0.2)">
      <path d="M8.5 6.9 L8.5 5.85 13.6 5.85 13.15 6.9 8.5 6.9" fill="url(#gradient8)" fill-rule="evenodd" stroke="none"/>
      <path d="M12.15 13.25 Q8.9 14.4 4.65 14.6 2.35 13.15 0.7 10.9 0.1 8.8 0.0 6.75 L0.2 7.9 Q2.05 10.1 4.35 11.5 8.8 11.8 11.95 10.55 L12.15 13.25" fill="#2e3c3d" fill-rule="evenodd" stroke="none"/>
      <path d="M11.95 10.55 Q14.9 7.9 15.65 6.2 L15.95 3.55 Q16.4 6.35 16.05 9.05 15.2 10.95 12.15 13.25 L11.95 10.55" fill="#3a4b4c" fill-rule="evenodd" stroke="none"/>
      <path d="M0.75 4.3 Q2.15 2.15 4.45 0.0 L8.95 0.0 Q12.9 1.0 15.95 3.55 L15.65 6.2 Q14.9 7.9 11.95 10.55 L0.75 4.3" fill="#566666" fill-rule="evenodd" stroke="none"/>
      <path d="M0.75 4.3 L11.95 10.55 Q8.8 11.8 4.35 11.5 2.05 10.1 0.2 7.9 L0.0 6.75 0.75 4.3" fill="#5f7272" fill-rule="evenodd" stroke="none"/>
      <path d="M15.95 3.55 Q12.9 1.0 8.95 0.0 L4.45 0.0 Q2.15 2.15 0.75 4.3 L0.0 6.75 0.2 7.9 M15.95 3.55 Q16.4 6.35 16.05 9.05 15.2 10.95 12.15 13.25 8.9 14.4 4.65 14.6 2.35 13.15 0.7 10.9 0.1 8.8 0.0 6.75" fill="none" stroke="#000000" stroke-linecap="round" stroke-linejoin="round" stroke-opacity="0.29803923" stroke-width="0.05"/>
      <path d="M3.55 14.05 Q4.6 13.4 5.05 12.45 5.75 12.6 6.35 13.05 5.6 14.35 3.7 15.45 L3.55 14.05" fill="#6b7c7c" fill-rule="evenodd" stroke="none"/>
      <path d="M3.7 15.45 Q5.6 14.35 6.35 13.05 L6.5 14.05 Q5.8 15.35 3.8 16.2 L3.7 15.45" fill="#2e3c3d" fill-rule="evenodd" stroke="none"/>
      <path d="M6.35 13.05 Q5.75 12.6 5.05 12.45 4.6 13.4 3.55 14.05 M6.35 13.05 L6.5 14.05 Q5.8 15.35 3.8 16.2" fill="none" stroke="#000000" stroke-linecap="round" stroke-linejoin="round" stroke-opacity="0.29803923" stroke-width="0.05"/>
      <path d="M2.3 13.5 L1.85 12.9 2.6 11.65 2.7 12.7 2.3 13.5 M0.2 14.05 Q1.65 15.15 3.75 15.4 L3.8 16.2 Q2.1 16.0 0.6 15.05 L0.2 14.05" fill="#2e3c3d" fill-rule="evenodd" stroke="none"/>
      <path d="M1.85 12.9 Q0.65 12.85 0.2 14.05 0.25 12.8 1.6 11.05 L2.6 11.65 1.85 12.9" fill="#6b7c7c" fill-rule="evenodd" stroke="none"/>
      <path d="M2.3 13.5 L2.9 13.8 4.0 13.85 3.75 15.4 Q1.65 15.15 0.2 14.05 0.65 12.85 1.85 12.9 L2.3 13.5" fill="#748787" fill-rule="evenodd" stroke="none"/>
      <path d="M4.0 13.85 L2.9 13.8 2.3 13.5 2.7 12.7 2.6 11.65 1.6 11.05 Q0.25 12.8 0.2 14.05 L0.6 15.05 Q2.1 16.0 3.8 16.2" fill="none" stroke="#000000" stroke-linecap="round" stroke-linejoin="round" stroke-opacity="0.29803923" stroke-width="0.05"/>
      <path d="M3.15 14.2 L2.85 14.45 2.2 14.5 1.65 14.25 1.35 13.95 Q1.4 13.8 1.7 13.75 L2.3 13.7 Q2.65 13.75 2.9 13.95 L3.15 14.2" fill="#b7d2d4" fill-rule="evenodd" stroke="none"/>
      <path d="M5.4 10.95 L5.0 11.25 4.25 11.2 3.45 11.0 3.2 10.6 3.55 10.3 4.35 10.25 5.1 10.55 5.4 10.95" fill="#b7d2d4" fill-rule="evenodd" stroke="none"/>
    </g>
    <radialGradient cx="0" cy="0" gradientTransform="matrix(-0.013, 0.003, -6.0E-4, 0.0116, 4.5, 5.5)" gradientUnits="userSpaceOnUse" id="gradient8" r="819.2" spreadMethod="pad">
      <stop offset="0.6470588235294118" stop-color="#211d16" stop-opacity="0.53333336"/>
      <stop offset="0.9450980392156862" stop-color="#ad6229" stop-opacity="0.0"/>
    </radialGradient>
    <g id="shape34" transform="matrix(1.0, 0.0, 0.0, 1.0, 0.2, 0.2)">
      <path d="M22.6 19.8 Q22.3 19.1 22.75 18.45 L23.05 17.95 25.55 16.25 Q26.8 15.3 27.1 15.55 L27.1 16.1 26.6 17.5 25.1 19.85 23.35 20.8 Q22.7 20.7 22.6 19.8 M23.55 19.85 Q24.15 19.7 24.4 19.35 L24.65 18.7 Q24.75 17.65 25.55 16.9 24.75 17.65 24.65 18.7 L24.4 19.35 Q24.15 19.7 23.55 19.85" fill="#937142" fill-rule="evenodd" stroke="none"/>
      <path d="M23.35 20.8 L25.1 19.85 26.6 17.5 27.1 16.1 27.1 15.55 Q26.8 15.3 25.55 16.25 L23.05 17.95 22.75 18.45 Q22.3 19.1 22.6 19.8" fill="none" stroke="#000000" stroke-linecap="round" stroke-linejoin="round" stroke-opacity="0.4" stroke-width="0.05"/>
      <path d="M25.55 16.9 Q24.75 17.65 24.65 18.7 L24.4 19.35 Q24.15 19.7 23.55 19.85" fill="none" stroke="#000000" stroke-linecap="round" stroke-linejoin="round" stroke-opacity="0.2" stroke-width="0.05"/>
      <path d="M26.7 28.5 L23.1 27.4 24.85 28.95 24.95 29.2 25.7 30.35 26.55 31.8 26.2 31.75 23.75 30.8 23.0 30.3 23.35 31.75 23.05 34.0 22.75 33.85 20.05 32.05 19.4 31.25 18.6 34.0 18.55 34.05 17.7 35.15 17.55 35.1 16.4 33.6 15.95 31.1 16.05 28.85 15.5 28.85 14.7 31.1 12.2 31.95 Q11.95 29.95 13.0 27.55 L13.35 26.2 13.55 26.25 Q20.5 24.55 21.85 24.75 L22.0 24.85 22.8 25.25 24.15 26.3 24.7 26.7 26.7 28.5" fill="#cee2e8" fill-rule="evenodd" stroke="none"/>
      <path d="M24.95 29.2 L24.85 28.95 23.1 27.4 26.7 28.5 25.2 29.5 24.95 29.2 M12.2 31.95 L14.7 31.1 15.5 28.85 16.05 28.85 15.95 31.1 16.4 33.6 Q15.85 32.75 15.6 31.9 L12.2 31.95 M18.6 34.0 L19.4 31.25 20.05 32.05 22.75 33.85 Q21.05 33.3 19.5 32.2 L18.65 33.85 18.6 34.0 M23.35 31.75 L23.0 30.3 23.75 30.8 26.2 31.75 25.85 31.85 23.35 31.4 23.35 31.75" fill="#a9c1c9" fill-rule="evenodd" stroke="none"/>
      <path d="M26.7 28.5 L24.7 26.7 24.15 26.3 22.8 25.25 22.0 24.85 21.85 24.75 Q20.5 24.55 13.55 26.25 L13.35 26.2 M13.0 27.55 Q11.95 29.95 12.2 31.95 L15.6 31.9 Q15.85 32.75 16.4 33.6 L17.55 35.1 M17.7 35.15 L18.55 34.05 18.6 34.0 18.65 33.85 19.5 32.2 Q21.05 33.3 22.75 33.85 L23.05 34.0 23.35 31.75 23.35 31.4 25.85 31.85 26.2 31.75 26.55 31.8 25.7 30.35 25.2 29.5 26.7 28.5 M24.95 29.2 L25.2 29.5" fill="none" stroke="#000000" stroke-linecap="round" stroke-linejoin="round" stroke-opacity="0.3019608" stroke-width="0.05"/>
      <path d="M18.45 9.95 Q22.4 11.35 23.7 13.25 24.95 15.4 25.0 17.0 25.2 18.8 24.5 20.45 L23.95 22.3 23.1 24.7 Q22.65 26.15 22.55 27.5 21.8 27.45 21.05 28.05 L20.75 28.3 19.2 29.35 Q18.6 29.75 17.1 28.95 L15.5 28.15 12.3 25.75 11.25 24.7 10.2 23.05 Q9.5 22.1 9.95 18.55 8.7 14.3 11.65 11.35 14.65 8.45 18.45 9.95" fill="#f4bd6e" fill-rule="evenodd" stroke="none"/>
      <path d="M18.45 9.95 Q14.65 8.45 11.65 11.35 8.7 14.3 9.95 18.55 9.5 22.1 10.2 23.05 L11.25 24.7 12.3 25.75 15.5 28.15 17.1 28.95 Q18.6 29.75 19.2 29.35 L20.75 28.3 21.05 28.05 Q21.8 27.45 22.55 27.5 22.65 26.15 23.1 24.7 L23.95 22.3 24.5 20.45 Q25.2 18.8 25.0 17.0 24.95 15.4 23.7 13.25 22.4 11.35 18.45 9.95 Z" fill="none" stroke="#000000" stroke-linecap="round" stroke-linejoin="round" stroke-opacity="0.4" stroke-width="0.05"/>
      <path d="M22.55 27.45 Q21.85 30.1 21.1 30.8 19.85 30.5 18.75 29.95 L18.0 29.55 15.65 28.2 Q20.35 26.15 22.55 27.45" fill="#eeb86c" fill-rule="evenodd" stroke="none"/>
      <path d="M22.55 27.45 Q21.85 30.1 21.1 30.8 19.85 30.5 18.75 29.95 L18.0 29.55 15.65 28.2" fill="none" stroke="#000000" stroke-linecap="round" stroke-linejoin="round" stroke-opacity="0.3019608" stroke-width="0.05"/>
      <path d="M13.3 29.15 Q13.7 28.2 12.15 25.45 13.4 26.45 14.8 27.0 L15.4 27.2 16.35 28.5 16.8 27.85 Q17.65 28.35 17.95 28.7 19.5 29.95 20.8 29.8 L21.9 28.2 22.2 26.35 22.6 26.9 Q22.75 25.3 23.0 24.45 23.0 25.8 23.3 26.35 L23.0 30.45 20.5 31.65 14.8 29.15 13.3 29.15" fill="#d8edf3" fill-rule="evenodd" stroke="none"/>
      <path d="M23.3 26.35 Q23.0 25.8 23.0 24.45 22.75 25.3 22.6 26.9 L22.2 26.35 21.9 28.2 20.8 29.8 Q19.5 29.95 17.95 28.7 17.65 28.35 16.8 27.85 L16.35 28.5 15.4 27.2 14.8 27.0 Q13.4 26.45 12.15 25.45 13.7 28.2 13.3 29.15" fill="none" stroke="#000000" stroke-linecap="round" stroke-linejoin="round" stroke-opacity="0.3019608" stroke-width="0.05"/>
      <path d="M23.55 15.35 Q23.1 18.25 22.25 18.85 21.4 19.5 13.95 21.95 L10.0 23.45 Q8.55 20.55 8.45 18.5 8.2 15.2 10.2 12.45 12.2 9.7 15.45 9.25 18.65 8.75 21.3 10.6 23.95 12.45 23.55 15.35" fill="#a9c1c9" fill-rule="evenodd" stroke="none"/>
      <path d="M23.8 22.3 Q24.4 22.65 24.35 23.3 24.3 23.85 23.3 25.0 L22.6 25.8 Q22.55 25.1 23.8 22.3" fill="#f4bd6e" fill-rule="evenodd" stroke="none"/>
      <path d="M23.8 22.3 Q24.4 22.65 24.35 23.3 24.3 23.85 23.3 25.0 L22.6 25.8" fill="none" stroke="#000000" stroke-linecap="round" stroke-linejoin="round" stroke-opacity="0.3019608" stroke-width="0.05"/>
      <path d="M21.9 20.6 Q22.45 19.7 23.05 19.5 23.65 19.3 23.9 20.0 24.25 20.65 24.0 21.9 23.85 23.15 23.3 24.1 22.8 25.05 22.2 25.3 21.6 25.4 21.3 24.75 21.0 24.0 21.2 22.75 21.35 21.55 21.9 20.6" fill="url(#gradient9)" fill-rule="evenodd" stroke="none"/>
      <path d="M14.85 22.7 Q15.65 21.7 16.9 21.45 18.15 21.15 19.2 21.8 20.2 22.35 20.35 23.55 20.5 24.75 19.65 25.75 18.9 26.75 17.65 27.05 16.4 27.25 15.4 26.7 14.35 25.95 14.25 24.8 14.05 23.65 14.85 22.7" fill="url(#gradient10)" fill-rule="evenodd" stroke="none"/>
      <path d="M22.45 23.25 Q22.65 22.4 22.2 21.9 21.75 21.5 21.0 21.55 20.25 21.7 19.55 22.35 18.85 22.95 18.7 23.8 18.5 24.6 18.95 25.15 19.45 25.65 20.15 25.5 20.95 25.4 21.6 24.7 22.3 24.05 22.45 23.25" fill="url(#gradient11)" fill-rule="evenodd" stroke="none"/>
      <path d="M15.6 20.9 Q17.8 19.65 20.3 19.15 L24.3 19.05 Q25.75 19.6 25.2 20.9 24.7 22.2 22.4 23.45 20.45 24.7 17.85 25.3 15.4 25.75 13.95 25.25 12.45 24.65 13.1 23.4 13.55 22.1 15.6 20.9" fill="url(#gradient12)" fill-rule="evenodd" stroke="none"/>
      <path d="M15.05 24.0 L15.15 23.6 15.45 22.7 16.55 21.85 Q17.1 21.5 17.6 21.4 L18.7 21.45 18.85 21.55 19.35 21.9 19.55 22.55 Q19.75 22.95 19.55 23.95 L19.55 24.0 15.05 24.0" fill="#c9c3c3" fill-rule="evenodd" stroke="none"/>
      <path d="M19.55 24.0 L19.3 25.2 18.9 25.8 Q18.7 26.1 17.75 26.3 L16.05 26.25 15.2 25.6 15.0 24.75 15.05 24.0 19.55 24.0" fill="#ffffff" fill-rule="evenodd" stroke="none"/>
      <path d="M15.05 24.0 L15.15 23.6 15.45 22.7 16.55 21.85 Q17.1 21.5 17.6 21.4 L18.7 21.45 18.85 21.55 19.35 21.9 M17.75 26.3 L16.05 26.25 15.2 25.6 15.0 24.75 15.05 24.0 Z" fill="none" stroke="#000000" stroke-linecap="round" stroke-linejoin="round" stroke-opacity="0.3019608" stroke-width="0.05"/>
      <path d="M21.25 20.7 L21.55 20.2 21.6 19.9 22.05 19.35 22.65 19.35 23.05 19.8 23.25 20.55 23.3 21.7 23.2 22.55 23.3 21.35 21.3 23.8 21.25 23.5 21.2 22.9 21.15 22.55 21.15 21.6 21.25 20.7" fill="#c9c3c3" fill-rule="evenodd" stroke="none"/>
      <path d="M21.25 23.5 L21.3 23.8 23.3 21.35 23.2 22.55 23.2 22.6 22.8 23.7 22.05 24.7 21.45 24.65 21.35 24.15 21.25 23.5" fill="#ffffff" fill-rule="evenodd" stroke="none"/>
      <path d="M23.2 22.55 L23.3 21.7 23.25 20.55 23.05 19.8 22.65 19.35 22.05 19.35 21.6 19.9 21.55 20.2 21.25 20.7 M23.2 22.55 L23.2 22.6 22.8 23.7 22.05 24.7" fill="none" stroke="#000000" stroke-linecap="round" stroke-linejoin="round" stroke-opacity="0.3019608" stroke-width="0.05"/>
      <path d="M14.3 23.35 Q13.95 23.05 16.2 21.2 L17.0 21.2 17.25 21.1 17.3 21.05 17.35 21.25 18.6 21.35 19.55 22.0 Q19.95 22.35 19.7 23.85 L19.4 23.8 17.35 23.4 15.85 23.25 14.3 23.35" fill="#a6804b" fill-rule="evenodd" stroke="none"/>
      <path d="M19.4 23.8 L17.35 23.4 M15.85 23.25 L14.3 23.35" fill="none" stroke="#000000" stroke-linecap="round" stroke-linejoin="round" stroke-opacity="0.49803922" stroke-width="0.05"/>
      <path d="M17.35 23.4 L15.85 23.25" fill="none" stroke="#000000" stroke-linecap="round" stroke-linejoin="round" stroke-opacity="0.49803922" stroke-width="0.05"/>
      <path d="M21.2 23.6 Q20.6 23.55 20.8 21.7 21.15 20.5 22.05 19.75 L23.3 18.8 Q24.4 18.65 24.15 20.1 23.6 20.4 22.5 21.75 L21.2 23.6" fill="#a6804b" fill-rule="evenodd" stroke="none"/>
      <path d="M24.15 20.1 Q23.6 20.4 22.5 21.75 L21.2 23.6" fill="none" stroke="#000000" stroke-linecap="round" stroke-linejoin="round" stroke-opacity="0.7019608" stroke-width="0.05"/>
      <path d="M21.0 28.4 L21.1 28.4 21.25 28.55 21.15 28.7 20.9 28.85 20.8 28.65 20.65 28.55 20.8 28.45 21.0 28.4" fill="#94682d" fill-opacity="0.3019608" fill-rule="evenodd" stroke="none"/>
      <path d="M21.15 28.15 L20.65 27.95 M20.4 28.0 L18.75 28.95" fill="none" stroke="#000000" stroke-linecap="round" stroke-linejoin="round" stroke-opacity="0.4" stroke-width="0.05"/>
      <path d="M5.25 23.5 L6.6 23.3 8.7 23.8 8.15 24.3 Q7.9 24.65 8.65 25.15 9.35 25.75 10.05 25.7 L10.85 25.45 10.85 25.4 10.8 25.4 10.7 25.3 10.45 24.7 11.3 25.05 11.4 25.15 Q11.9 23.35 11.15 22.95 L11.6 22.95 13.15 22.75 13.1 25.4 Q10.75 26.6 8.55 26.0 6.35 25.4 5.25 23.5 M11.75 25.35 L10.85 25.4 11.75 25.35" fill="#dfac65" fill-rule="evenodd" stroke="none"/>
      <path d="M6.6 23.3 L5.25 23.5 Q5.35 23.15 5.9 22.95 8.45 22.7 11.15 22.95 11.9 23.35 11.4 25.15 L11.3 25.05 10.45 24.7 Q9.9 24.2 8.9 23.8 L8.8 23.8 8.7 23.8 6.6 23.3" fill="#efb86c" fill-rule="evenodd" stroke="none"/>
      <path d="M10.45 24.7 L10.7 25.3 10.8 25.4 10.85 25.4 10.85 25.45 10.05 25.7 Q9.35 25.75 8.65 25.15 7.9 24.65 8.15 24.3 L8.7 23.8 8.8 23.8 8.9 23.8 Q8.5 24.3 8.8 24.55 8.5 24.3 8.9 23.8 9.9 24.2 10.45 24.7" fill="#a6804b" fill-rule="evenodd" stroke="none"/>
      <path d="M5.25 23.5 Q6.35 25.4 8.55 26.0 10.75 26.6 13.1 25.4 M13.15 22.75 L11.6 22.95 11.15 22.95 Q8.45 22.7 5.9 22.95 5.35 23.15 5.25 23.5" fill="none" stroke="#000000" stroke-linecap="round" stroke-linejoin="round" stroke-opacity="0.3019608" stroke-width="0.05"/>
      <path d="M10.45 24.7 L10.7 25.3 10.8 25.4 10.85 25.4 11.75 25.35 M8.9 23.8 L8.8 23.8 M10.45 24.7 Q9.9 24.2 8.9 23.8 M8.7 23.8 L6.6 23.3" fill="none" stroke="#000000" stroke-linecap="round" stroke-linejoin="round" stroke-opacity="0.09803922" stroke-width="0.05"/>
      <path d="M8.9 23.8 Q8.5 24.3 8.8 24.55" fill="none" stroke="#000000" stroke-linecap="round" stroke-linejoin="round" stroke-opacity="0.15294118" stroke-width="0.05"/>
      <path d="M9.85 22.8 Q10.5 21.05 13.1 21.65 13.35 24.6 13.1 25.8 11.65 23.45 9.85 22.8" fill="#a9c1c9" fill-rule="evenodd" stroke="none"/>
      <path d="M9.85 22.8 Q11.65 23.45 13.1 25.8 13.35 24.6 13.1 21.65" fill="none" stroke="#000000" stroke-linecap="round" stroke-linejoin="round" stroke-opacity="0.3019608" stroke-width="0.05"/>
      <path d="M13.95 25.6 L16.2 27.25 16.2 27.7 15.7 27.65 Q14.35 27.35 14.05 26.85 13.65 26.35 13.95 25.6" fill="#f4bd6e" fill-rule="evenodd" stroke="none"/>
      <path d="M13.95 25.6 Q13.65 26.35 14.05 26.85 14.35 27.35 15.7 27.65 L16.2 27.7" fill="none" stroke="#000000" stroke-linecap="round" stroke-linejoin="round" stroke-opacity="0.3019608" stroke-width="0.05"/>
      <path d="M19.3 14.2 L19.05 13.45 Q19.05 13.1 19.2 13.05 19.3 13.0 19.5 13.25 L19.95 13.9 20.2 14.65 20.15 15.05 Q20.0 15.1 19.75 14.85 L19.3 14.2" fill="#3e311d" fill-rule="evenodd" stroke="none"/>
      <path d="M19.3 14.2 L19.05 13.45 Q19.05 13.1 19.2 13.05 19.3 13.0 19.5 13.25 L19.95 13.9 20.2 14.65 20.15 15.05 Q20.0 15.1 19.75 14.85 L19.3 14.2 Z" fill="none" stroke="#000000" stroke-linecap="round" stroke-linejoin="round" stroke-opacity="0.3019608" stroke-width="0.05"/>
      <path d="M22.95 20.05 L23.35 20.05 23.25 19.6 22.8 19.1 22.15 18.8 21.75 18.9 Q21.65 19.0 21.85 19.25 L22.3 19.75 22.95 20.05" fill="#3e311d" fill-rule="evenodd" stroke="none"/>
      <path d="M14.6 22.2 L11.65 22.45" fill="none" stroke="#000000" stroke-linecap="round" stroke-linejoin="round" stroke-opacity="0.2" stroke-width="0.05"/>
      <path d="M13.7 20.3 Q12.5 20.8 11.5 21.8" fill="none" stroke="#000000" stroke-linecap="round" stroke-linejoin="round" stroke-opacity="0.2" stroke-width="0.05"/>
      <path d="M9.85 10.35 L15.05 6.2 Q15.75 3.75 19.55 1.35 20.4 4.65 20.2 7.15 L25.25 13.1 25.25 14.9 25.4 15.5 25.45 16.15 25.5 16.3 25.45 16.65 25.35 17.25 24.9 18.4 18.6 18.25 18.55 18.4 17.85 18.05 18.25 19.0 16.1 17.85 14.85 19.35 13.65 18.2 12.3 19.8 11.75 19.4 9.45 20.75 7.1 19.7 6.0 18.45 Q6.05 16.3 6.9 14.3 L7.8 12.75 8.2 12.15 8.3 11.95 8.45 11.85 9.85 10.4 9.9 10.4 9.85 10.35 M25.25 14.9 Q24.7 13.4 23.2 11.55 24.7 13.4 25.25 14.9" fill="#c0d9e3" fill-rule="evenodd" stroke="none"/>
      <path d="M9.85 10.4 L9.85 10.35 9.9 10.4 9.85 10.4" fill="#d2d2d1" fill-rule="evenodd" stroke="none"/>
      <path d="M9.85 10.35 L15.05 6.2 Q15.75 3.75 19.55 1.35 20.4 4.65 20.2 7.15 L25.25 13.1 25.25 14.9 25.4 15.5 25.45 16.15 25.5 16.3 25.45 16.65 25.35 17.25 24.9 18.4 M18.25 19.0 L16.1 17.85 14.85 19.35 13.65 18.2 12.3 19.8 11.75 19.4 9.45 20.75 7.1 19.7 6.0 18.45 Q6.05 16.3 6.9 14.3 L7.8 12.75 8.2 12.15 8.3 11.95 8.45 11.85 9.85 10.4 9.85 10.35 M23.2 11.55 Q24.7 13.4 25.25 14.9" fill="none" stroke="#000000" stroke-linecap="round" stroke-linejoin="round" stroke-opacity="0.3019608" stroke-width="0.05"/>
      <path d="M23.8 12.25 L21.95 15.4 Q19.95 12.15 16.05 10.5 19.2 8.0 21.6 7.0 20.1 8.55 23.8 12.25" fill="#c0d9e3" fill-rule="evenodd" stroke="none"/>
      <path d="M21.6 7.0 Q25.9 5.15 28.0 7.85 26.65 7.85 23.8 12.25 20.1 8.55 21.6 7.0" fill="#b1ccd4" fill-rule="evenodd" stroke="none"/>
      <path d="M23.8 12.25 L21.95 15.4 M16.05 10.5 Q19.2 8.0 21.6 7.0 25.9 5.15 28.0 7.85 26.65 7.85 23.8 12.25 Z" fill="none" stroke="#000000" stroke-linecap="round" stroke-linejoin="round" stroke-opacity="0.2" stroke-width="0.05"/>
      <path d="M24.8 15.75 L22.1 14.9 Q25.85 11.05 22.1 9.35 L24.65 9.35 Q27.6 9.65 28.65 11.65 27.65 12.1 24.8 15.75" fill="#b1ccd4" fill-rule="evenodd" stroke="none"/>
      <path d="M24.8 15.75 Q27.65 12.1 28.65 11.65 27.6 9.65 24.65 9.35" fill="none" stroke="#000000" stroke-linecap="round" stroke-linejoin="round" stroke-opacity="0.2" stroke-width="0.05"/>
      <path d="M23.9 9.2 Q26.55 9.45 27.5 11.2 26.6 11.65 24.1 14.9 L21.65 14.15 Q19.55 10.65 21.65 9.2 L23.9 9.2" fill="#dce6ed" fill-rule="evenodd" stroke="none"/>
      <path d="M10.05 7.65 L10.5 6.65 11.8 4.4 Q13.15 2.75 15.0 1.35 L14.2 3.5 Q16.65 0.95 18.6 0.0 L18.5 2.05 17.55 6.85 17.7 6.8 17.5 7.25 17.5 7.6 16.6 10.85 16.15 13.35 16.1 13.25 14.15 14.15 11.0 13.45 10.7 12.2 Q9.8 10.55 10.05 7.65" fill="#c0d9e3" fill-rule="evenodd" stroke="none"/>
      <path d="M18.5 2.05 L18.6 0.0 Q16.65 0.95 14.2 3.5 L15.0 1.35 Q13.15 2.75 11.8 4.4 L10.5 6.65 10.05 7.65" fill="none" stroke="#000000" stroke-linecap="round" stroke-linejoin="round" stroke-opacity="0.3019608" stroke-width="0.05"/>
      <path d="M17.9 3.55 Q18.5 5.95 18.35 7.8 L17.15 9.0 Q14.95 11.8 12.75 9.0 L11.0 8.2 11.3 7.5 Q12.1 5.95 12.25 5.85 13.25 4.65 14.55 3.6 L14.0 5.2 Q15.8 3.35 17.2 2.65 L17.15 4.05 17.9 3.55" fill="#eaf5fc" fill-rule="evenodd" stroke="none"/>
      <path d="M19.4 12.05 Q27.4 14.55 26.9 21.3 25.65 19.05 23.2 17.6 20.8 16.2 17.3 15.5 L17.05 15.15 Q16.15 13.55 19.4 12.05" fill="#c0d9e3" fill-rule="evenodd" stroke="none"/>
      <path d="M19.4 12.05 Q27.4 14.55 26.9 21.3 25.65 19.05 23.2 17.6" fill="none" stroke="#000000" stroke-linecap="round" stroke-linejoin="round" stroke-opacity="0.2" stroke-width="0.05"/>
      <path d="M5.95 8.65 L8.9 8.7 Q8.8 18.4 3.75 22.15 6.4 16.9 5.95 8.65" fill="#a9c1c9" fill-rule="evenodd" stroke="none"/>
      <path d="M8.9 8.7 Q8.8 18.4 3.75 22.15 6.4 16.9 5.95 8.65" fill="none" stroke="#000000" stroke-linecap="round" stroke-linejoin="round" stroke-opacity="0.2" stroke-width="0.05"/>
      <path d="M9.8 10.65 Q9.15 18.05 2.5 18.35 6.15 15.65 6.0 9.1 7.45 7.65 9.8 10.65" fill="#b8ad88" fill-rule="evenodd" stroke="none"/>
      <path d="M9.8 10.65 Q9.15 18.05 2.5 18.35 6.15 15.65 6.0 9.1" fill="none" stroke="#000000" stroke-linecap="round" stroke-linejoin="round" stroke-opacity="0.2" stroke-width="0.05"/>
      <path d="M8.65 13.6 Q7.5 6.85 8.65 1.3 L9.1 1.8 Q8.8 6.95 10.4 12.8 L8.65 13.6" fill="#c0d9e3" fill-rule="evenodd" stroke="none"/>
      <path d="M8.65 13.6 Q7.5 6.85 8.65 1.3 L9.1 1.8 Q8.8 6.95 10.4 12.8" fill="none" stroke="#000000" stroke-linecap="round" stroke-linejoin="round" stroke-opacity="0.3019608" stroke-width="0.05"/>
      <path d="M23.55 11.0 Q25.6 11.55 26.8 13.1 L27.55 14.55 24.8 14.45 21.6 13.85 Q19.2 13.2 19.95 12.6 22.7 13.4 25.45 13.4 L26.1 13.35 Q25.35 11.95 23.55 11.0" fill="#c0d9e3" fill-rule="evenodd" stroke="none"/>
      <path d="M19.95 12.6 L18.45 11.9 21.0 11.1 23.55 11.0 Q25.35 11.95 26.1 13.35 L25.45 13.4 Q22.7 13.4 19.95 12.6" fill="#f5fcff" fill-rule="evenodd" stroke="none"/>
      <path d="M23.55 11.0 Q25.6 11.55 26.8 13.1 L27.55 14.55 24.8 14.45" fill="none" stroke="#000000" stroke-linecap="round" stroke-linejoin="round" stroke-opacity="0.2" stroke-width="0.05"/>
      <path d="M5.0 15.95 L2.5 16.8 0.85 16.9 Q0.9 14.6 4.15 12.8 1.95 12.25 1.7 11.9 3.35 11.1 5.6 11.4 L6.95 10.25 7.0 10.4 7.15 10.8 Q8.7 11.2 9.3 10.45 L9.45 10.2 8.85 12.8 6.6 14.9 6.05 15.3 5.0 15.95 M7.7 11.55 L7.85 11.6 7.8 11.45 7.7 11.55" fill="#a9c1c9" fill-rule="evenodd" stroke="none"/>
      <path d="M5.6 11.4 Q3.35 11.1 1.7 11.9 1.95 12.25 4.15 12.8 0.9 14.6 0.85 16.9 L2.5 16.8 5.0 15.95 M8.85 12.8 L9.45 10.2" fill="none" stroke="#000000" stroke-linecap="round" stroke-linejoin="round" stroke-opacity="0.2" stroke-width="0.05"/>
      <path d="M1.3 16.3 Q1.35 14.6 3.55 13.25 L7.4 13.25 5.85 14.75 5.4 15.05 4.55 15.55 2.6 16.25 1.3 16.3" fill="#b7ced8" fill-rule="evenodd" stroke="none"/>
      <path d="M6.35 11.35 Q8.95 13.5 10.0 16.25 L7.4 16.2 5.75 14.9 5.1 14.5 Q3.2 13.7 2.0 12.4 3.7 13.45 6.1 14.1 5.75 12.3 4.7 10.55 L5.55 10.8 6.35 11.35" fill="#c0d9e3" fill-rule="evenodd" stroke="none"/>
      <path d="M2.0 12.4 L0.0 10.75 4.7 10.55 Q5.75 12.3 6.1 14.1 3.7 13.45 2.0 12.4" fill="#e1ebf2" fill-rule="evenodd" stroke="none"/>
      <path d="M5.1 14.5 Q3.2 13.7 2.0 12.4 L0.0 10.75 4.7 10.55 5.55 10.8 6.35 11.35" fill="none" stroke="#000000" stroke-linecap="round" stroke-linejoin="round" stroke-opacity="0.3019608" stroke-width="0.05"/>
      <path d="M5.2 8.95 Q6.3 11.65 8.75 12.5 L7.95 9.6 7.45 6.25 8.85 9.1 Q9.55 10.15 10.3 10.8 11.4 13.5 11.2 14.75 L10.2 15.4 9.35 15.45 Q8.3 15.25 7.1 13.8 L7.15 13.7 Q5.45 12.05 5.2 8.95" fill="#c0d9e3" fill-rule="evenodd" stroke="none"/>
      <path d="M5.2 8.95 Q5.05 6.75 6.45 3.35 L7.45 6.25 7.95 9.6 8.75 12.5 Q6.3 11.65 5.2 8.95" fill="#f5fcff" fill-rule="evenodd" stroke="none"/>
      <path d="M7.45 6.25 L6.45 3.35 Q5.05 6.75 5.2 8.95 5.45 12.05 7.15 13.7" fill="none" stroke="#000000" stroke-linecap="round" stroke-linejoin="round" stroke-opacity="0.2" stroke-width="0.05"/>
      <path d="M16.15 7.1 Q16.85 6.0 18.2 4.75 19.45 3.6 21.7 2.8 L23.05 2.65 Q19.95 3.85 18.45 6.5 L17.45 8.3 17.1 8.9 15.75 8.9 Q15.8 8.0 16.15 7.1" fill="#f5fcff" fill-rule="evenodd" stroke="none"/>
      <path d="M16.15 7.1 Q16.85 6.0 18.2 4.75 19.45 3.6 21.7 2.8 L23.05 2.65 Q19.95 3.85 18.45 6.5 L17.45 8.3" fill="none" stroke="#000000" stroke-linecap="round" stroke-linejoin="round" stroke-opacity="0.3019608" stroke-width="0.05"/>
      <path d="M9.5 12.85 Q8.25 8.65 9.65 4.6 9.4 8.8 10.95 12.55 L9.5 12.85" fill="#c0d9e3" fill-rule="evenodd" stroke="none"/>
      <path d="M9.75 4.55 Q16.3 10.3 14.9 13.15 13.65 16.15 10.95 12.55 9.4 8.8 9.65 4.6 L9.75 4.55" fill="#f5fcff" fill-rule="evenodd" stroke="none"/>
      <path d="M9.65 4.6 L9.65 4.55 9.75 4.55 9.65 4.6" fill="#d2d2d1" fill-rule="evenodd" stroke="none"/>
      <path d="M9.5 12.85 Q8.25 8.65 9.65 4.6 L9.65 4.55 9.75 4.55 Q16.3 10.3 14.9 13.15" fill="none" stroke="#000000" stroke-linecap="round" stroke-linejoin="round" stroke-opacity="0.3019608" stroke-width="0.05"/>
      <path d="M4.65 15.9 Q10.15 13.2 7.55 17.15 6.45 19.4 2.35 18.7 3.3 17.05 4.65 15.9" fill="#c0d9e3" fill-rule="evenodd" stroke="none"/>
      <path d="M7.55 17.15 Q6.45 19.4 2.35 18.7 3.3 17.05 4.65 15.9" fill="none" stroke="#000000" stroke-linecap="round" stroke-linejoin="round" stroke-opacity="0.3019608" stroke-width="0.05"/>
      <path d="M21.85 9.15 Q21.0 9.8 19.85 9.85 L19.1 10.0 Q14.5 10.7 19.45 6.45 21.4 5.5 23.7 5.2 23.25 8.0 21.85 9.15" fill="#c0d9e3" fill-rule="evenodd" stroke="none"/>
      <path d="M21.85 9.15 Q23.25 8.0 23.7 5.2 21.4 5.5 19.45 6.45" fill="none" stroke="#000000" stroke-linecap="round" stroke-linejoin="round" stroke-opacity="0.3019608" stroke-width="0.05"/>
      <path d="M4.9 15.7 Q9.75 13.35 7.45 16.8 6.45 18.8 2.9 18.2 3.7 16.7 4.9 15.7" fill="#e1ebf2" fill-rule="evenodd" stroke="none"/>
      <path d="M19.25 6.55 Q21.0 5.7 23.0 5.45 22.6 7.95 21.35 8.95 L19.6 9.6 18.95 9.7 Q14.9 10.3 19.25 6.55" fill="#f5fcff" fill-rule="evenodd" stroke="none"/>
      <path d="M21.2 22.95 Q16.5 24.1 10.8 22.9 11.45 18.5 13.0 15.75 L14.1 15.75 14.45 13.8 Q16.4 11.7 19.25 11.25 25.35 11.6 25.1 18.65 24.15 21.45 21.2 22.95" fill="#262c30" fill-rule="evenodd" stroke="none"/>
      <path d="M21.2 22.95 Q24.15 21.45 25.1 18.65 25.35 11.6 19.25 11.25 16.4 11.7 14.45 13.8 L14.1 15.75 13.0 15.75 Q11.45 18.5 10.8 22.9 16.5 24.1 21.2 22.95 Z" fill="none" stroke="#000000" stroke-linecap="round" stroke-linejoin="round" stroke-opacity="0.29803923" stroke-width="0.05"/>
      <path d="M21.05 20.95 Q17.5 21.85 13.2 20.95 13.7 17.65 14.9 15.55 L15.75 15.9 15.95 14.1 Q17.4 12.5 19.6 12.15 24.2 12.4 24.0 17.75 23.3 19.85 21.05 20.95" fill="#343b3f" fill-rule="evenodd" stroke="none"/>
      <path d="M22.95 17.95 Q22.95 19.6 22.15 20.75 21.35 21.9 20.2 21.9 19.05 21.9 18.3 20.75 17.5 19.6 17.5 17.95 17.5 16.3 18.3 15.1 19.05 13.95 20.2 13.95 21.35 13.95 22.15 15.1 22.95 16.3 22.95 17.95" fill="#e7603b" fill-rule="evenodd" stroke="none"/>
      <path d="M16.9 20.85 L17.05 21.4 17.6 21.35 18.2 20.8 18.6 20.0 18.45 19.5 Q18.25 19.35 17.9 19.5 L17.25 20.1 16.9 20.85" fill="#858482" fill-rule="evenodd" stroke="none"/>
      <path d="M19.55 14.85 Q19.8 15.15 20.0 15.1 L20.35 14.6 20.25 13.8 19.85 13.0 Q19.55 12.75 19.3 12.85 19.1 12.9 19.05 13.25 L19.1 14.15 19.55 14.85" fill="#858482" fill-rule="evenodd" stroke="none"/>
      <path d="M23.35 19.85 Q23.75 19.9 23.85 19.65 L23.7 19.1 23.1 18.6 22.25 18.35 21.75 18.55 Q21.65 18.8 21.9 19.1 L22.55 19.65 23.35 19.85" fill="#858482" fill-rule="evenodd" stroke="none"/>
      <path d="M6.45 18.55 Q6.25 20.8 7.1 22.45 L7.65 21.85 Q9.45 19.35 10.5 16.25 11.55 16.0 10.7 18.65 10.3 20.05 9.15 22.0 L7.4 24.5 6.4 22.9 Q5.6 20.75 6.45 18.55" fill="#c0d9e3" fill-rule="evenodd" stroke="none"/>
      <path d="M6.45 18.55 Q6.95 17.25 8.4 15.75 9.95 14.35 10.75 14.45 L10.5 16.25 Q9.45 19.35 7.65 21.85 L7.1 22.45 Q6.25 20.8 6.45 18.55" fill="#f5fcff" fill-rule="evenodd" stroke="none"/>
      <path d="M9.15 22.0 L7.4 24.5 6.4 22.9 Q5.6 20.75 6.45 18.55" fill="none" stroke="#000000" stroke-linecap="round" stroke-linejoin="round" stroke-opacity="0.2" stroke-width="0.05"/>
      <path d="M9.6 18.7 L10.05 21.35 Q11.55 18.1 12.15 15.3 L12.25 17.1 Q11.8 20.95 9.9 24.3 L9.7 20.8 9.6 18.7" fill="#c0d9e3" fill-rule="evenodd" stroke="none"/>
      <path d="M9.6 18.7 L9.55 17.85 Q9.3 17.6 9.95 16.25 L9.95 16.2 Q10.35 15.05 10.9 14.65 L11.4 14.45 12.1 14.6 12.15 15.3 Q11.55 18.1 10.05 21.35 L9.6 18.7" fill="#f5fcff" fill-rule="evenodd" stroke="none"/>
      <path d="M12.15 15.3 L12.1 14.6 M9.7 20.8 L9.9 24.3 Q11.8 20.95 12.25 17.1 L12.15 15.3 Z" fill="none" stroke="#000000" stroke-linecap="round" stroke-linejoin="round" stroke-opacity="0.2" stroke-width="0.05"/>
    </g>
    <radialGradient cx="0" cy="0" gradientTransform="matrix(-0.002, 5.0E-4, -6.0E-4, 0.004, 22.55, 22.3)" gradientUnits="userSpaceOnUse" id="gradient9" r="819.2" spreadMethod="pad">
      <stop offset="0.6470588235294118" stop-color="#b7a17e" stop-opacity="0.53333336"/>
      <stop offset="0.9450980392156862" stop-color="#ad6229" stop-opacity="0.0"/>
    </radialGradient>
    <radialGradient cx="0" cy="0" gradientTransform="matrix(-0.0042, 8.0E-4, 5.0E-4, 0.0038, 17.2, 24.15)" gradientUnits="userSpaceOnUse" id="gradient10" r="819.2" spreadMethod="pad">
      <stop offset="0.6470588235294118" stop-color="#b7a17e" stop-opacity="0.53333336"/>
      <stop offset="0.9450980392156862" stop-color="#ad6229" stop-opacity="0.0"/>
    </radialGradient>
    <radialGradient cx="0" cy="0" gradientTransform="matrix(-0.0026, 4.0E-4, -6.0E-4, 0.0027, 20.55, 23.5)" gradientUnits="userSpaceOnUse" id="gradient11" r="819.2" spreadMethod="pad">
      <stop offset="0.3058823529411765" stop-color="#ad6829" stop-opacity="0.6117647"/>
      <stop offset="0.9450980392156862" stop-color="#ad6229" stop-opacity="0.0"/>
    </radialGradient>
    <radialGradient cx="0" cy="0" gradientTransform="matrix(-0.0084, 0.0017, -0.0017, 0.0042, 19.0, 22.15)" gradientUnits="userSpaceOnUse" id="gradient12" r="819.2" spreadMethod="pad">
      <stop offset="0.6470588235294118" stop-color="#544a39" stop-opacity="0.53333336"/>
      <stop offset="0.9450980392156862" stop-color="#ad6229" stop-opacity="0.0"/>
    </radialGradient>
    <g id="shape35" transform="matrix(1.0, 0.0, 0.0, 1.0, -14.7, -59.4)">
      <path d="M33.85 83.75 L33.85 83.8 33.85 83.95 33.85 84.0 33.85 84.1 33.9 84.1 33.9 84.15 34.35 84.4 34.85 84.75 34.35 84.45 34.1 84.3 34.05 84.25 33.95 84.2 33.9 84.2 33.9 84.7 33.9 85.25 33.85 84.75 33.75 84.2 33.7 84.1 33.5 84.25 33.0 84.55 32.7 84.7 32.95 84.5 33.4 84.3 33.45 84.25 33.5 84.2 33.7 84.1 33.65 84.05 33.7 84.05 33.7 84.0 33.3 83.6 32.95 83.25 33.3 83.55 33.55 83.8 33.7 83.95 33.8 83.4 33.9 82.95 33.85 83.35 33.85 83.75 M34.4 83.9 L34.35 83.9 34.25 84.0 34.15 84.0 33.9 84.05 34.15 83.95 34.7 83.75 35.2 83.65 34.85 83.75 34.95 83.85 34.85 83.75 34.7 83.8 34.4 83.9 M36.75 85.45 L36.9 85.55 36.9 85.5 37.1 83.9 37.35 82.3 37.45 81.75 37.4 82.25 37.4 83.85 37.2 85.6 37.35 86.0 37.4 86.1 38.7 86.9 40.15 87.75 40.55 88.05 40.1 87.8 38.75 87.05 37.75 86.45 37.4 86.25 37.35 86.2 37.4 86.3 37.5 87.75 37.55 89.45 37.6 90.0 37.5 89.5 37.25 87.9 37.05 86.25 37.0 86.3 36.9 85.9 36.7 85.75 36.9 85.85 36.9 85.65 35.7 84.55 34.95 83.85 35.65 84.4 36.45 85.15 36.5 85.2 36.75 85.45 M36.1 86.45 L36.2 86.4 36.85 86.1 36.3 86.45 34.8 87.25 33.35 88.0 32.8 88.25 33.3 88.0 34.65 87.2 35.7 86.65 36.1 86.45 M41.85 84.45 L41.35 84.6 39.85 85.15 38.15 85.7 37.5 85.9 Q37.45 85.85 38.1 85.65 L39.7 85.1 41.3 84.6 41.85 84.45" fill="#fefd8d" fill-opacity="0.972549" fill-rule="evenodd" stroke="none"/>
      <path d="M33.85 83.75 L34.05 83.4 34.25 83.2 34.15 83.4 34.0 83.8 33.9 83.9 33.85 83.8 33.85 83.75 M34.1 84.3 L34.35 84.5 34.45 84.65 34.25 84.5 34.0 84.3 33.95 84.2 34.05 84.25 34.1 84.3 M33.4 84.3 L33.3 84.3 32.95 84.45 32.7 84.55 32.95 84.4 33.35 84.25 33.45 84.25 33.4 84.3 M33.55 83.8 L33.4 83.6 33.6 83.8 33.65 83.9 33.55 83.8 M34.4 83.9 L34.65 83.85 34.95 83.85 35.05 83.8 34.95 83.85 34.7 83.9 34.3 84.0 34.2 84.0 34.25 84.0 34.35 83.9 34.4 83.9 M33.6 84.3 L33.7 84.2 33.75 84.35 33.65 84.7 33.55 85.05 33.55 84.75 33.6 84.3 M37.65 85.15 L37.35 85.5 37.35 85.0 37.9 84.05 38.5 83.1 38.7 82.75 38.55 83.1 38.15 84.05 37.65 85.15 M36.75 85.45 L36.5 85.2 36.45 85.15 35.85 84.4 35.45 83.85 35.95 84.3 36.65 85.15 36.9 85.5 36.75 85.45 M37.4 86.3 L37.35 86.2 37.4 86.25 37.75 86.45 Q38.15 86.7 38.6 87.1 L39.3 87.75 38.5 87.15 37.6 86.5 37.4 86.3 M36.1 86.45 L35.7 86.65 34.7 87.0 33.8 87.3 34.7 86.95 35.75 86.5 36.1 86.45 M38.7 85.65 L38.25 85.7 38.7 85.55 39.75 85.35 40.7 85.2 41.05 85.15 40.75 85.25 39.8 85.45 38.7 85.65 M36.7 86.7 L36.95 86.25 37.0 86.75 36.65 87.8 36.3 88.85 36.15 89.25 36.25 88.85 36.4 87.85 Q36.5 87.1 36.7 86.7" fill="#fffd8f" fill-opacity="0.4" fill-rule="evenodd" stroke="none"/>
      <path d="M38.0 86.75 Q37.9 86.0 37.45 85.8 L36.9 85.85 Q36.75 86.1 36.9 86.5 37.1 87.0 37.65 87.3 L38.35 87.95 38.6 88.25 38.45 87.85 38.0 86.75" fill="#fffd8f" fill-opacity="0.39215687" fill-rule="evenodd" stroke="none"/>
      <path d="M38.0 86.25 L37.05 85.85 Q36.8 85.8 36.95 85.95 L37.55 86.35 38.35 86.6 Q38.8 86.65 39.05 86.85 L39.35 86.95 39.0 86.75 38.0 86.25" fill="#fffd8f" fill-opacity="0.39215687" fill-rule="evenodd" stroke="none"/>
      <path d="M36.4 84.8 Q36.35 85.55 36.75 85.85 L37.3 85.9 37.45 85.25 Q37.35 84.75 36.9 84.35 36.35 83.9 36.3 83.55 L36.1 83.25 36.2 83.65 36.4 84.8" fill="#fffd8f" fill-opacity="0.39215687" fill-rule="evenodd" stroke="none"/>
      <path d="M36.25 85.35 L37.1 85.95 37.2 85.8 36.75 85.3 35.95 84.9 Q35.55 84.75 35.3 84.6 L35.05 84.45 35.35 84.65 36.25 85.35" fill="#fffd8f" fill-opacity="0.39215687" fill-rule="evenodd" stroke="none"/>
      <path d="M38.75 85.2 Q38.0 85.45 37.85 85.65 37.7 85.85 37.85 85.8 L38.5 85.65 39.25 85.2 39.9 84.75 40.15 84.6 39.75 84.75 38.75 85.2" fill="#fffd8f" fill-opacity="0.39215687" fill-rule="evenodd" stroke="none"/>
      <path d="M35.75 87.0 L36.6 86.4 36.5 86.25 Q36.25 86.25 35.9 86.5 L35.25 87.1 34.7 87.65 Q34.4 87.8 34.45 87.85 L34.8 87.6 35.75 87.0" fill="#fffd8f" fill-opacity="0.39215687" fill-rule="evenodd" stroke="none"/>
      <path d="M34.1 84.35 L33.95 84.05 33.75 84.05 Q33.65 84.1 33.7 84.25 L34.0 84.55 34.2 84.75 34.3 84.85 34.2 84.75 34.1 84.35" fill="#fffd8f" fill-opacity="0.39215687" fill-rule="evenodd" stroke="none"/>
      <path d="M34.1 84.2 Q33.9 84.05 33.75 84.05 L33.75 84.1 33.95 84.2 34.2 84.3 34.5 84.4 34.55 84.4 34.45 84.4 34.1 84.2" fill="#fffd8f" fill-opacity="0.39215687" fill-rule="evenodd" stroke="none"/>
      <path d="M33.5 83.65 L33.65 84.05 33.85 84.05 33.9 83.85 33.65 83.55 33.5 83.25 33.45 83.15 33.5 83.25 33.5 83.65" fill="#fffd8f" fill-opacity="0.39215687" fill-rule="evenodd" stroke="none"/>
      <path d="M33.5 83.9 L33.75 84.05 33.8 84.0 33.65 83.85 33.35 83.7 33.2 83.6 33.05 83.55 33.15 83.6 33.5 83.9" fill="#fffd8f" fill-opacity="0.39215687" fill-rule="evenodd" stroke="none"/>
      <path d="M34.3 83.8 L34.05 83.95 34.05 84.0 34.25 83.95 34.55 83.8 Q34.6 83.7 34.7 83.7 L34.8 83.6 34.7 83.65 34.3 83.8" fill="#fffd8f" fill-opacity="0.39215687" fill-rule="evenodd" stroke="none"/>
      <path d="M33.3 84.45 L33.6 84.2 33.6 84.15 Q33.5 84.15 33.4 84.3 L33.15 84.45 32.95 84.65 32.85 84.75 33.0 84.6 33.3 84.45" fill="#fffd8f" fill-opacity="0.39215687" fill-rule="evenodd" stroke="none"/>
      <path d="M36.3 85.35 Q36.05 85.7 36.05 86.15 L36.5 86.9 37.3 87.15 38.05 86.75 38.25 85.9 37.85 85.2 37.05 84.95 36.3 85.35" fill="#ffffff" fill-rule="evenodd" stroke="none"/>
      <path d="M18.75 62.3 L18.65 62.35 18.2 62.45 18.6 62.25 19.85 61.9 21.0 61.5 21.4 61.35 21.05 61.5 19.9 61.9 18.75 62.3 M17.45 61.95 L17.7 62.2 17.75 62.2 17.7 62.15 17.85 61.05 18.05 59.85 18.15 59.4 18.1 59.8 18.05 61.0 18.0 62.25 18.1 62.6 19.15 63.2 20.0 63.75 19.15 63.3 18.5 62.95 18.4 62.85 18.15 62.7 18.1 62.7 18.15 62.75 18.2 63.85 18.2 64.9 18.0 64.0 17.85 62.8 17.8 62.8 17.75 62.45 17.6 62.3 17.7 62.35 17.7 62.3 16.85 61.5 15.9 60.65 15.65 60.35 15.95 60.65 16.8 61.4 17.45 61.95 M14.7 64.25 L15.05 64.05 16.1 63.45 17.25 62.85 17.7 62.65 17.3 62.95 16.2 63.45 15.1 64.05 14.7 64.25" fill="#fefd8d" fill-opacity="0.972549" fill-rule="evenodd" stroke="none"/>
      <path d="M18.75 62.3 L19.1 62.2 19.85 62.05 20.6 61.95 19.85 62.15 19.05 62.3 18.75 62.3 M17.45 61.95 L16.95 61.35 16.5 60.75 17.0 61.3 17.55 61.95 17.7 62.15 17.75 62.2 17.7 62.2 17.45 61.95 M18.5 62.95 L19.0 63.35 19.6 63.8 19.8 64.0 19.6 63.85 18.95 63.4 18.3 62.9 18.15 62.75 18.1 62.7 18.15 62.7 18.4 62.85 18.5 62.95 M18.3 61.9 L18.05 62.2 18.1 61.85 18.45 61.15 18.9 60.4 19.1 60.2 18.95 60.4 18.65 61.15 18.3 61.9 M16.9 62.9 L17.2 62.85 Q17.15 62.9 16.85 63.05 L16.15 63.3 15.45 63.55 15.2 63.6 15.45 63.5 16.1 63.25 Q16.6 63.0 16.9 62.9 M17.55 63.1 L17.75 62.75 17.8 63.1 17.6 63.95 17.25 64.7 17.15 64.95 17.2 64.7 17.4 63.9 Q17.4 63.4 17.55 63.1" fill="#fffd8f" fill-opacity="0.4" fill-rule="evenodd" stroke="none"/>
      <path d="M18.6 63.1 L18.15 62.4 17.7 62.45 17.75 62.95 18.3 63.55 Q18.75 63.8 18.8 64.0 L19.0 64.25 18.85 63.95 18.6 63.1" fill="#fffd8f" fill-opacity="0.39215687" fill-rule="evenodd" stroke="none"/>
      <path d="M18.55 62.7 Q18.05 62.4 17.9 62.4 17.7 62.4 17.8 62.5 L18.25 62.8 18.85 63.0 19.35 63.15 19.6 63.2 19.35 63.1 18.55 62.7" fill="#fffd8f" fill-opacity="0.39215687" fill-rule="evenodd" stroke="none"/>
      <path d="M17.3 61.7 Q17.35 62.3 17.55 62.45 L18.0 62.5 18.1 62.0 17.65 61.35 17.25 60.75 17.15 60.5 17.2 60.8 17.3 61.7" fill="#fffd8f" fill-opacity="0.39215687" fill-rule="evenodd" stroke="none"/>
      <path d="M17.25 62.1 L17.9 62.5 17.95 62.45 17.6 62.05 17.05 61.75 16.55 61.5 16.35 61.4 16.55 61.6 Q16.8 61.7 17.25 62.1" fill="#fffd8f" fill-opacity="0.39215687" fill-rule="evenodd" stroke="none"/>
      <path d="M19.05 61.9 L18.4 62.3 18.45 62.4 18.9 62.3 19.5 61.95 19.95 61.6 20.15 61.5 19.85 61.6 19.05 61.9" fill="#fffd8f" fill-opacity="0.39215687" fill-rule="evenodd" stroke="none"/>
      <path d="M16.9 63.3 L17.5 62.85 17.45 62.7 17.05 62.9 16.5 63.35 16.15 63.75 15.95 63.95 16.2 63.75 16.9 63.3" fill="#fffd8f" fill-opacity="0.39215687" fill-rule="evenodd" stroke="none"/>
      <path d="M17.4 62.1 Q17.15 62.35 17.2 62.65 L17.55 63.25 18.1 63.4 18.7 63.1 18.85 62.5 18.55 61.95 17.9 61.75 17.4 62.1" fill="#ffffff" fill-rule="evenodd" stroke="none"/>
      <path d="M33.55 83.9 L33.45 84.15 33.6 84.45 33.85 84.5 34.15 84.4 34.2 84.05 34.1 83.85 33.75 83.75 33.55 83.9" fill="#ffffff" fill-rule="evenodd" stroke="none"/>
    </g>
  </defs>
</svg>
