<?xml version='1.0' encoding='UTF-8'?>
<svg xmlns:xlink="http://www.w3.org/1999/xlink" xmlns="http://www.w3.org/2000/svg" version="1.1" width="60px" height="60px" viewBox="0.0 0.0 60.0 60.0"><defs><g id="c1"><path fill="#258c70" fill-opacity="0.498039215686" d="M3.4 3.35 L2.1 3.05 0.75 2.5 Q-1.05 1.15 -2.35 -0.35 L-3.5 -1.9 -3.75 -3.0 -3.75 -3.35 Q-2.6 -1.75 -0.95 -0.45 L2.1 1.1 3.25 2.25 3.65 3.05 3.4 3.35"/></g><g id="c2"><g><use transform="matrix(1.0,0.0,0.0,1.0,0.0,0.0)" xlink:href="#c1"/></g></g><g id="c3"><path fill="#8ae7d0" fill-opacity="0.498039215686" d="M-7.6 5.0 Q-24.55 -0.6 -24.2 -11.6 -23.0 -14.3 -20.85 -15.65 -17.8 -17.65 -14.15 -17.9 -9.0 -16.05 -13.0 -13.4 -17.45 -11.3 -14.15 -4.25 -10.9 -0.5 -6.0 2.45 0.4 4.55 8.4 5.65 L8.5 5.7 8.6 5.7 8.75 5.75 Q25.9 7.95 24.1 16.45 23.95 17.65 22.3 17.95 20.9 17.65 20.55 16.55 22.75 9.65 8.6 7.9 L8.55 7.85 Q-0.25 6.7 -7.55 5.05 L-7.6 5.0"/><path fill="#5ce5ce" fill-opacity="0.498039215686" d="M-14.15 -17.9 Q-11.0 -18.2 -7.4 -17.2 -5.8 -15.75 -7.4 -14.4 L-7.55 -14.3 Q-11.0 -14.3 -13.0 -13.4 -9.0 -16.05 -14.15 -17.9"/><path fill="#8ae7d0" stroke="none" d="M8.6 5.7 L8.75 5.7 8.75 5.75 8.6 5.7"/><path fill="none" stroke="#000000" stroke-width="0.5" stroke-opacity="0.301960784314" d="M-7.6 5.0 Q-24.55 -0.6 -24.2 -11.6 -23.0 -14.3 -20.85 -15.65 -17.8 -17.65 -14.15 -17.9 -11.0 -18.2 -7.4 -17.2 M-7.55 -14.3 Q-11.0 -14.3 -13.0 -13.4 -17.45 -11.3 -14.15 -4.25 -10.9 -0.5 -6.0 2.45 0.4 4.55 8.4 5.65 L8.5 5.7 8.6 5.7 8.75 5.7 M8.75 5.75 Q25.9 7.95 24.1 16.45 23.95 17.65 22.3 17.95 20.9 17.65 20.55 16.55 22.75 9.65 8.6 7.9 M8.55 7.85 Q-0.25 6.7 -7.55 5.05 M8.6 5.7 L8.75 5.75"/></g><linearGradient gradientUnits="userSpaceOnUse" x1="-819.2" x2="819.2" spreadMethod="pad" gradientTransform="matrix(0.0,0.00541687011719,0.004150390625,0.0,-17.0,-7.55)" id="gradient1"><stop offset="0.0" stop-color="#67b493"/><stop offset="1.0" stop-color="#67b493" stop-opacity="0.0"/></linearGradient><g id="c4"><path stroke="none" fill="url(#gradient1)" d="M-13.45 -15.85 Q-13.05 -15.25 -13.6 -14.55 -14.0 -14.1 -14.7 -13.65 -16.6 -12.15 -16.8 -11.2 -18.15 -6.65 -14.7 -2.3 -21.5 -8.45 -19.85 -12.4 L-18.8 -13.85 Q-17.55 -15.25 -15.95 -16.0 L-13.45 -15.85"/></g><g id="c5"><path fill="#d4fffa" fill-opacity="0.8" d="M-19.35 -15.35 Q-19.15 -14.95 -19.4 -14.5 L-19.8 -14.0 -20.15 -13.75 -20.95 -12.55 Q-21.25 -10.5 -19.55 -5.85 -22.3 -10.7 -21.75 -13.2 L-21.35 -14.1 -20.25 -15.45 -19.35 -15.35"/></g><g id="c6"><path fill="#0f6d5a" fill-opacity="0.4" d="M22.85 14.3 Q22.55 14.5 22.3 14.15 L22.0 13.65 21.75 12.2 Q21.7 11.55 21.15 11.0 L21.8 11.15 22.4 11.75 23.15 13.1 Q23.2 13.9 22.85 14.3"/></g><g id="c7"><path fill="#278773" fill-opacity="0.498039215686" d="M-13.95 -0.25 L-13.9 -0.45 -13.35 -0.5 -12.95 -0.3 -11.3 0.3 -7.5 2.55 Q-5.7 3.55 -3.65 4.1 L-4.85 4.35 -5.9 4.1 -6.9 3.9 -11.15 2.05 -11.9 1.55 Q-13.4 0.5 -13.95 -0.25"/></g><g id="c8"><path fill="#cbf1eb" fill-opacity="0.8" d="M22.95 15.9 L22.9 15.95 22.4 16.25 21.9 16.1 Q21.65 15.85 21.7 15.55 21.75 15.15 22.05 14.9 22.35 14.6 22.6 14.65 22.9 14.6 23.15 14.85 L23.3 15.35 22.95 15.9"/></g><g id="c9"><path fill="#d4fffa" fill-opacity="0.8" d="M11.15 6.7 L5.1 6.15 2.9 5.35 11.15 6.7"/></g><g id="c10"><g><use transform="matrix(1.0,0.0,0.0,1.0,0.0,0.0)" xlink:href="#c3"/></g><g><use transform="matrix(1.0,0.0,0.0,1.0,0.0,0.0)" xlink:href="#c4"/></g><g><use transform="matrix(1.0,0.0,0.0,1.0,0.0,0.0)" xlink:href="#c5"/></g><g><use transform="matrix(1.0,0.0,0.0,1.0,0.0,0.0)" xlink:href="#c6"/></g><g><use transform="matrix(1.0,0.0,0.0,1.0,0.0,0.0)" xlink:href="#c7"/></g><g><use transform="matrix(1.0,0.0,0.0,1.0,0.0,0.0)" xlink:href="#c8"/></g><g><use transform="matrix(1.0,0.0,0.0,1.0,0.0,0.0)" xlink:href="#c9"/></g></g><g id="c11"><path fill="#4dc1af" fill-opacity="0.498039215686" d="M-13.85 -5.1 Q-11.75 -6.25 -13.6 -8.1 2.85 -5.1 13.7 5.8 L13.7 5.95 Q14.1 8.3 11.45 8.1 L11.3 8.1 5.8 3.0 Q0.3 -2.05 -13.85 -5.1"/><path fill="none" stroke="#000000" stroke-width="0.5" stroke-opacity="0.301960784314" d="M-13.6 -8.1 Q2.85 -5.1 13.7 5.8 L13.7 5.95 M11.45 8.1 L11.3 8.1 5.8 3.0 Q0.3 -2.05 -13.85 -5.1"/></g><g id="c12"><g><use transform="matrix(1.0,0.0,0.0,1.0,0.0,0.0)" xlink:href="#c11"/></g></g><g id="c13"><path fill="#8ae8d8" fill-opacity="0.8" d="M-4.35 -32.25 L-0.65 -33.2 Q4.35 -32.9 8.5 -30.4 14.05 -25.55 14.8 -20.4 13.9 -15.35 7.55 -18.25 L0.55 -23.05 0.4 -23.1 Q-2.7 -23.95 -4.25 -25.25 -5.85 -26.55 -5.9 -28.25 -6.0 -30.0 -4.35 -32.25"/><path fill="#5be4cd" fill-opacity="0.8" d="M0.4 -23.1 Q-3.7 -23.65 -6.25 -22.65 L-6.3 -22.65 Q-13.05 -22.95 -10.75 -28.3 L-9.75 -29.15 Q-7.05 -31.3 -4.35 -32.25 -6.0 -30.0 -5.9 -28.25 -5.85 -26.55 -4.25 -25.25 -2.7 -23.95 0.4 -23.1"/><path fill="#52ceb8" fill-opacity="0.498039215686" d="M-6.25 -22.65 Q-11.4 -15.95 -3.7 -5.9 L-3.65 -5.65 -4.0 -6.05 Q-4.8 -6.5 -5.3 -6.5 -6.1 -6.5 -6.1 -5.3 L-5.7 -3.2 Q-14.3 -13.2 -13.95 -20.75 -13.8 -26.3 -9.75 -29.15 L-10.75 -28.3 Q-13.05 -22.95 -6.3 -22.65 L-6.25 -22.65"/><path fill="#5fffe4" fill-opacity="0.6" d="M-3.65 -5.65 Q3.8 3.25 8.15 13.65 L8.3 13.7 8.3 14.05 Q8.1 19.4 6.2 19.4 4.8 19.4 2.4 16.5 L2.35 16.4 Q2.1 8.4 -5.65 -3.15 L-5.7 -3.2 -6.1 -5.3 Q-6.1 -6.5 -5.3 -6.5 -4.8 -6.5 -4.0 -6.05 L-3.65 -5.65"/><path fill="#5ce5ce" fill-opacity="0.498039215686" d="M8.3 14.05 Q8.8 16.65 8.8 19.2 8.7 34.85 -5.65 33.0 -11.75 32.15 -14.75 27.95 -11.65 28.8 -12.3 25.75 -11.15 26.8 -6.75 27.8 0.95 27.25 2.4 16.7 L2.4 16.5 Q4.8 19.4 6.2 19.4 8.1 19.4 8.3 14.05"/><path fill="none" stroke="#000000" stroke-width="0.5" stroke-opacity="0.301960784314" d="M-4.35 -32.25 L-0.65 -33.2 Q4.35 -32.9 8.5 -30.4 14.05 -25.55 14.8 -20.4 13.9 -15.35 7.55 -18.25 L0.55 -23.05 0.4 -23.1 Q-3.7 -23.65 -6.25 -22.65 -11.4 -15.95 -3.7 -5.9 L-3.65 -5.65 Q3.8 3.25 8.15 13.65 M8.3 14.05 Q8.8 16.65 8.8 19.2 8.7 34.85 -5.65 33.0 -11.75 32.15 -14.75 27.95 M-12.3 25.75 Q-11.15 26.8 -6.75 27.8 0.95 27.25 2.4 16.7 M2.35 16.4 Q2.1 8.4 -5.65 -3.15 M-5.7 -3.2 Q-14.3 -13.2 -13.95 -20.75 -13.8 -26.3 -9.75 -29.15 -7.05 -31.3 -4.35 -32.25 M-10.75 -28.3 L-9.75 -29.15 M-6.25 -22.65 L-6.3 -22.65 M-3.65 -5.65 L-4.0 -6.05"/></g><g id="c14"><path fill="#15695b" fill-opacity="0.6" d="M-11.2 -14.75 Q-12.15 -16.25 -12.35 -18.8 -12.2 -22.25 -10.2 -24.25 L-8.6 -24.35 Q-9.65 -22.9 -10.05 -20.65 L-9.45 -17.75 -9.5 -16.35 Q-9.95 -13.65 -11.2 -14.75"/></g><linearGradient gradientUnits="userSpaceOnUse" x1="-819.2" x2="819.2" spreadMethod="pad" gradientTransform="matrix(-0.00685119628906,-0.00363159179688,-0.00215148925781,0.00408935546875,2.55,-27.45)" id="gradient2"><stop offset="0.121568627451" stop-color="#53bca7"/><stop offset="1.0" stop-color="#53bca7" stop-opacity="0.0274509803922"/></linearGradient><g id="c15"><path stroke="none" fill="url(#gradient2)" d="M11.7 -22.75 Q11.1 -19.2 6.55 -21.2 L4.7 -22.5 1.7 -26.65 Q-1.95 -28.3 -5.65 -27.7 -4.45 -30.0 -2.85 -30.7 3.0 -32.15 8.05 -29.05 11.2 -25.95 11.7 -22.75"/></g><g id="c16"><path fill="#ffffff" fill-opacity="0.8" d="M3.1 -28.5 L2.2 -29.35 2.1 -29.5 2.05 -29.9 2.1 -29.95 2.8 -30.05 Q3.3 -30.0 3.9 -29.55 L4.8 -28.75 Q5.15 -28.3 4.9 -28.05 4.7 -27.85 4.1 -28.05 3.6 -28.1 3.15 -28.45 L3.1 -28.5"/></g><g id="c17"><path fill="#d4fffa" fill-opacity="0.498039215686" d="M4.6 9.95 Q4.9 9.4 5.6 9.8 L6.0 10.35 Q7.35 13.5 7.75 16.65 7.7 20.2 6.5 25.5 L6.9 20.6 6.95 20.35 Q7.0 16.25 5.3 12.2 L4.85 11.4 4.6 9.95"/></g><g id="c18"><path fill="#ffffff" fill-opacity="0.6" d="M13.35 -20.05 Q12.85 -20.5 12.55 -21.25 L12.35 -22.1 12.35 -22.7 11.7 -24.7 Q10.1 -27.15 5.25 -31.1 L5.25 -31.35 Q11.15 -27.5 12.95 -24.35 L13.6 -22.9 Q14.15 -21.55 14.15 -20.55 14.0 -19.85 13.35 -20.05"/></g><g id="c19"><path fill="#1d7b64" fill-opacity="0.498039215686" d="M-1.9 -1.4 Q-0.65 -0.7 0.95 1.8 2.2 4.2 2.4 5.5 L2.6 7.45 2.4 10.25 Q2.05 7.95 0.85 5.95 L-1.8 1.5 -2.45 -0.3 Q-2.7 -1.55 -1.9 -1.4"/></g><linearGradient gradientUnits="userSpaceOnUse" x1="-819.2" x2="819.2" spreadMethod="pad" gradientTransform="matrix(-0.00578308105469,0.00447082519531,0.00247192382812,0.00318908691406,-0.25,26.2)" id="gradient3"><stop offset="0.0" stop-color="#429e84"/><stop offset="1.0" stop-color="#429e84" stop-opacity="0.0"/></linearGradient><g id="c20"><path stroke="none" fill="url(#gradient3)" d="M5.6 18.35 Q6.6 19.6 6.4 22.25 5.7 24.7 4.05 26.7 L3.8 27.05 Q1.4 29.8 -2.2 30.4 L-7.6 29.85 Q-2.05 30.0 0.8 26.25 1.2 25.75 1.3 24.4 L2.8 20.85 2.85 20.65 3.7 18.9 Q4.55 17.9 5.6 18.35"/></g><g id="c21"><g><use transform="matrix(1.0,0.0,0.0,1.0,0.0,0.0)" xlink:href="#c13"/></g><g><use transform="matrix(1.0,0.0,0.0,1.0,0.0,0.0)" xlink:href="#c14"/></g><g><use transform="matrix(1.0,0.0,0.0,1.0,0.0,0.0)" xlink:href="#c15"/></g><g><use transform="matrix(1.0,0.0,0.0,1.0,0.0,0.0)" xlink:href="#c16"/></g><g><use transform="matrix(1.0,0.0,0.0,1.0,0.0,0.0)" xlink:href="#c17"/></g><g><use transform="matrix(1.0,0.0,0.0,1.0,0.0,0.0)" xlink:href="#c18"/></g><g><use transform="matrix(1.0,0.0,0.0,1.0,0.0,0.0)" xlink:href="#c19"/></g><g><use transform="matrix(1.0,0.0,0.0,1.0,0.0,0.0)" xlink:href="#c20"/></g></g><g id="c22"><path fill="#140300" stroke="none" d="M1.05 -0.95 Q2.1 -0.6 2.55 -0.05 L1.75 0.25 -0.8 0.85 -1.75 0.95 -2.6 0.8 -2.15 0.2 Q-0.7 -0.65 1.05 -0.95"/><path fill="none" stroke="#000000" stroke-width="0.5" stroke-opacity="0.298039215686" d="M1.05 -0.95 Q-0.7 -0.65 -2.15 0.2 L-2.6 0.8 -1.75 0.95 -0.8 0.85 1.75 0.25 2.55 -0.05 Q2.1 -0.6 1.05 -0.95"/></g><g id="c23"><g><use transform="matrix(1.0,0.0,0.0,1.0,0.0,0.0)" xlink:href="#c22"/></g></g><g id="c24"><path fill="#b0fffe" stroke="none" d="M1.95 -0.1 L1.45 0.5 -1.4 0.65 -2.0 0.2 0.3 -0.75 1.95 -0.1"/></g><g id="c25"><g><use transform="matrix(1.0,0.0,0.0,1.0,0.0,0.0)" xlink:href="#c24"/></g></g><g id="c26"><path fill="#87bfbf" stroke="none" d="M0.6 -0.6 L0.7 -0.45 0.8 0.3 0.75 0.65 Q-0.1 1.0 -0.8 0.65 L-0.6 -0.3 -0.25 -0.7 0.6 -0.6"/><path fill="none" stroke="#000000" stroke-width="0.5" stroke-opacity="0.498039215686" d="M0.75 0.65 L0.8 0.3 0.7 -0.45 0.6 -0.6 M-0.25 -0.7 L-0.6 -0.3 -0.8 0.65"/></g><g id="c27"><g><use transform="matrix(1.0,0.0,0.0,1.0,0.0,0.0)" xlink:href="#c26"/></g></g><g id="c28"><path fill="#140300" stroke="none" d="M0.35 -1.25 L1.4 -0.95 1.2 0.15 Q0.6 0.35 0.25 0.65 -0.4 1.3 -1.4 1.2 -1.05 0.2 0.35 -1.25"/><path fill="none" stroke="#000000" stroke-width="0.5" stroke-opacity="0.298039215686" d="M0.35 -1.25 Q-1.05 0.2 -1.4 1.2 -0.4 1.3 0.25 0.65 0.6 0.35 1.2 0.15 L1.4 -0.95 0.35 -1.25"/></g><g id="c29"><g><use transform="matrix(1.0,0.0,0.0,1.0,0.0,0.0)" xlink:href="#c28"/></g></g><g id="c30"><path fill="#b0fffe" stroke="none" d="M0.4 -1.15 L0.95 -1.05 1.05 -0.8 1.05 -0.45 Q0.5 0.6 -0.35 1.05 L-0.7 1.1 -0.75 1.1 -1.05 0.85 0.4 -1.15"/></g><g id="c31"><g><use transform="matrix(1.0,0.0,0.0,1.0,0.0,0.0)" xlink:href="#c30"/></g></g><g id="c32"><path fill="#87bfbf" stroke="none" d="M0.3 -0.95 L0.45 -0.65 0.5 0.2 0.5 0.45 -0.35 0.95 -0.4 0.4 -0.4 -0.15 0.3 -0.95"/><path fill="none" stroke="#000000" stroke-width="0.5" stroke-opacity="0.498039215686" d="M0.5 0.45 L0.5 0.2 0.45 -0.65 0.3 -0.95 M-0.4 -0.15 L-0.4 0.4 -0.35 0.95"/></g><g id="c33"><g><use transform="matrix(1.0,0.0,0.0,1.0,0.0,0.0)" xlink:href="#c32"/></g></g><g id="c34"><path fill="#000000" fill-opacity="0.00392156862745" d="M0.0 0.0 L60.0 0.0 60.0 60.0 0.0 60.0 0.0 0.0"/></g><g id="c35"><path fill="none" stroke="#000000" stroke-width="1.0" stroke-opacity="0.301960784314" d="M0.7 12.25 Q-0.45 9.75 0.75 8.25 1.2 7.6 2.15 7.15 2.8 6.7 3.8 6.35 L6.45 5.5 8.5 6.75 8.7 6.85 Q11.9 8.2 14.85 7.25 17.8 6.35 18.85 3.6 L18.9 3.4 19.3 1.35 22.3 0.4 Q26.55 -1.0 28.45 3.1 L41.35 31.7 Q42.95 35.15 40.2 36.7 39.5 37.3 38.3 37.65 L36.35 38.3 36.15 38.15 34.0 36.9 33.8 36.8 Q30.65 35.45 27.7 36.35 24.75 37.3 23.7 40.05 L23.6 40.25 Q23.25 41.25 23.25 42.3 L23.25 42.35 23.25 42.55 19.8 43.65 Q17.15 44.45 15.5 43.3 14.35 42.55 13.65 40.9 L0.7 12.25"/><path fill="#9d147b" stroke="none" d="M35.55 22.3 L28.25 6.1 27.75 4.95 Q26.05 1.25 21.6 2.85 20.8 5.65 18.85 7.6 17.0 9.45 14.2 9.8 11.45 9.95 9.0 8.8 L6.4 7.45 Q1.65 9.1 3.35 12.8 L8.25 23.65 15.0 38.6 15.2 39.0 Q16.8 42.25 20.45 41.1 L21.65 40.55 Q22.7 36.9 25.05 35.5 27.4 34.15 30.2 34.2 33.05 34.2 36.25 36.1 L37.2 35.7 Q41.1 34.5 39.35 30.75 L35.55 22.3 M19.3 1.35 L22.3 0.4 Q26.55 -1.0 28.45 3.1 L41.35 31.7 Q42.95 35.15 40.2 36.7 L38.9 37.25 36.15 38.15 34.0 36.9 33.8 36.8 Q30.65 35.45 27.7 36.35 24.75 37.3 23.7 40.05 L23.6 40.25 Q23.25 41.25 23.25 42.3 L23.2 42.3 20.4 43.2 19.1 43.5 17.3 43.4 Q15.3 42.9 14.2 40.5 L5.45 20.95 1.35 11.8 Q0.4 9.65 1.1 8.3 1.45 7.65 2.15 7.15 2.8 6.7 3.8 6.35 L6.45 5.5 8.5 6.75 8.7 6.85 Q11.9 8.2 14.85 7.25 17.8 6.35 18.85 3.6 L18.9 3.4 19.3 1.35"/><path fill="#c47fad" stroke="none" d="M28.25 6.1 L35.55 22.3 39.35 30.75 Q41.1 34.5 37.2 35.7 L36.25 36.1 Q33.05 34.2 30.2 34.2 27.4 34.15 25.05 35.5 22.7 36.9 21.65 40.55 L20.45 41.1 Q16.8 42.25 15.2 39.0 L15.0 38.6 8.25 23.65 3.35 12.8 Q1.65 9.1 6.4 7.45 L9.0 8.8 Q11.45 9.95 14.2 9.8 17.0 9.45 18.85 7.6 20.8 5.65 21.6 2.85 26.05 1.25 27.75 4.95 L28.25 6.1 M34.0 32.9 L33.7 32.1 Q33.45 30.9 34.1 30.1 34.75 29.3 35.95 29.35 L35.8 29.0 26.5 8.3 26.25 7.85 Q24.9 5.45 22.05 6.35 19.75 11.1 14.85 11.65 11.45 11.85 9.1 10.55 L9.55 11.6 Q9.8 12.8 9.15 13.6 8.4 14.45 7.1 14.4 L6.8 14.4 6.95 14.6 16.3 35.2 Q16.8 36.4 17.65 37.0 18.8 37.8 19.8 37.35 21.8 33.7 25.95 32.3 30.35 30.8 34.0 32.9"/><path fill="#fcf2cf" stroke="none" d="M22.05 6.35 Q24.9 5.45 26.25 7.85 L26.5 8.3 35.8 29.0 35.95 29.35 Q34.75 29.3 34.1 30.1 33.45 30.9 33.7 32.1 L34.0 32.9 Q30.35 30.8 25.95 32.3 21.8 33.7 19.8 37.35 18.8 37.8 17.65 37.0 16.8 36.4 16.3 35.2 L6.95 14.6 6.8 14.4 7.1 14.4 Q8.4 14.45 9.15 13.6 9.8 12.8 9.55 11.6 L9.1 10.55 Q11.45 11.85 14.85 11.65 19.75 11.1 22.05 6.35"/><path fill="#300525" stroke="none" d="M40.2 36.7 Q39.5 37.3 38.3 37.65 L36.35 38.3 36.15 38.15 38.9 37.25 40.2 36.7 M23.25 42.3 L23.25 42.35 23.2 42.3 23.25 42.3 M20.1 43.55 L19.8 43.65 Q17.15 44.45 15.5 43.3 L17.3 43.4 19.1 43.5 20.1 43.55 M4.6 20.9 L0.7 12.25 Q-0.45 9.75 0.75 8.25 L1.1 8.3 Q0.4 9.65 1.35 11.8 L5.45 20.95 4.6 20.9"/><path fill="#630a4c" stroke="none" d="M23.25 42.35 L23.25 42.55 20.1 43.55 19.1 43.5 20.4 43.2 23.2 42.3 23.25 42.35 M15.5 43.3 Q14.35 42.55 13.65 40.9 L4.6 20.9 5.45 20.95 14.2 40.5 Q15.3 42.9 17.3 43.4 L15.5 43.3 M0.75 8.25 Q1.2 7.6 2.15 7.15 1.45 7.65 1.1 8.3 L0.75 8.25"/><path fill="none" stroke="#bf9900" stroke-width="1.0" stroke-opacity="0.749019607843" d="M28.25 6.1 L35.55 22.3 M15.0 38.6 L8.25 23.65"/><path fill="none" stroke="#000000" stroke-width="0.5" stroke-opacity="0.301960784314" d="M19.3 1.35 L22.3 0.4 Q26.55 -1.0 28.45 3.1 L41.35 31.7 Q42.95 35.15 40.2 36.7 39.5 37.3 38.3 37.65 L36.35 38.3 M23.25 42.55 L20.1 43.55 19.8 43.65 Q17.15 44.45 15.5 43.3 14.35 42.55 13.65 40.9 L4.6 20.9 0.7 12.25 Q-0.45 9.75 0.75 8.25 1.2 7.6 2.15 7.15 2.8 6.7 3.8 6.35 L6.45 5.5 M1.1 8.3 Q1.45 7.65 2.15 7.15 M5.45 20.95 L1.35 11.8 Q0.4 9.65 1.1 8.3 M17.3 43.4 Q15.3 42.9 14.2 40.5 L5.45 20.95 M19.1 43.5 L17.3 43.4 M23.2 42.3 L20.4 43.2 19.1 43.5 M23.25 42.3 L23.2 42.3 M40.2 36.7 L38.9 37.25 36.15 38.15"/><path fill="none" stroke="#ffcc00" stroke-width="1.0" stroke-opacity="0.749019607843" d="M35.55 22.3 L39.35 30.75 Q41.1 34.5 37.2 35.7 L36.25 36.1 M21.65 40.55 L20.45 41.1 Q16.8 42.25 15.2 39.0 L15.0 38.6 M8.25 23.65 L3.35 12.8 Q1.65 9.1 6.4 7.45 M21.6 2.85 Q26.05 1.25 27.75 4.95 L28.25 6.1"/><path fill="none" stroke="#f0b92b" stroke-width="0.5" d="M22.05 6.35 Q24.9 5.45 26.25 7.85 L26.5 8.3 35.8 29.0 35.95 29.35 Q34.75 29.3 34.1 30.1 33.45 30.9 33.7 32.1 L34.0 32.9 M19.8 37.35 Q18.8 37.8 17.65 37.0 16.8 36.4 16.3 35.2 L6.95 14.6 6.8 14.4 7.1 14.4 Q8.4 14.45 9.15 13.6 9.8 12.8 9.55 11.6 L9.1 10.55"/><path fill="none" stroke="#ffaa00" stroke-width="1.0" stroke-opacity="0.749019607843" d="M36.25 36.1 Q33.05 34.2 30.2 34.2 27.4 34.15 25.05 35.5 22.7 36.9 21.65 40.55 M6.4 7.45 L9.0 8.8 Q11.45 9.95 14.2 9.8 17.0 9.45 18.85 7.6 20.8 5.65 21.6 2.85"/><path fill="none" stroke="#ffaa00" stroke-width="0.5" stroke-opacity="0.749019607843" d="M34.0 32.9 Q30.35 30.8 25.95 32.3 21.8 33.7 19.8 37.35 M9.1 10.55 Q11.45 11.85 14.85 11.65 19.75 11.1 22.05 6.35"/></g><g id="c36"><path fill="#7fdbfe" stroke="none" d="M10.75 4.9 Q10.75 4.6 10.9 4.35 11.25 3.45 11.95 2.75 13.3 1.5 14.35 2.1 15.4 2.7 14.95 4.45 14.7 5.4 14.1 6.15 L13.75 6.5 Q13.1 7.15 12.35 7.35 L11.4 7.2 Q10.95 6.9 10.75 6.4 10.5 5.75 10.75 4.9 M7.5 5.9 Q7.0 5.85 6.6 5.5 6.05 5.0 5.8 4.15 L5.7 3.6 Q5.55 2.65 5.8 1.7 6.25 0.0 7.5 0.0 L7.6 0.0 Q8.85 0.0 9.3 1.7 9.55 2.65 9.4 3.6 L9.3 4.15 8.5 5.5 7.6 5.9 7.5 5.9 M4.35 4.9 Q4.6 5.75 4.35 6.4 L3.7 7.2 2.75 7.35 Q2.0 7.15 1.35 6.5 L1.0 6.15 Q0.4 5.4 0.15 4.45 -0.3 2.7 0.75 2.1 1.8 1.5 3.15 2.75 3.85 3.45 4.2 4.35 L4.35 4.9 M5.5 13.7 Q4.45 13.9 3.65 12.95 2.75 12.0 3.2 10.25 3.7 8.5 5.25 7.6 6.4 6.9 7.55 7.0 8.75 6.9 9.9 7.6 11.45 8.5 11.95 10.25 12.35 12.0 11.5 12.95 10.7 13.9 9.65 13.7 8.55 13.5 7.55 12.6 6.55 13.5 5.5 13.7"/></g><g id="c37"><g><use transform="matrix(1.0,0.0,0.0,1.0,0.0,0.0)" xlink:href="#c36"/></g></g><radialGradient gradientUnits="userSpaceOnUse" r="819.2" cx="0" cy="0" spreadMethod="pad" gradientTransform="matrix(0.0914459228516,0.0,0.0,0.0914459228516,0.6,3.4)" id="gradient4"><stop offset="0.0" stop-color="#ffffff"/><stop offset="1.0" stop-color="#ffffff" stop-opacity="0.0"/></radialGradient><g id="c38"><path stroke="none" fill="url(#gradient4)" d="M36.65 -54.65 Q60.05 -42.0 69.75 -17.95 80.55 8.9 68.0 34.1 55.45 59.35 26.8 68.2 -1.8 77.05 -29.7 64.3 -57.6 51.6 -68.45 24.75 -79.3 -2.05 -66.75 -27.25 L-66.7 -27.3 Q-54.1 -52.5 -25.5 -61.4 3.1 -70.2 31.0 -57.5 L36.65 -54.65"/></g><g id="c39"><g><use transform="matrix(1.0,0.0,0.0,1.0,0.0,0.0)" xlink:href="#c38"/></g></g><radialGradient gradientUnits="userSpaceOnUse" r="819.2" cx="0" cy="0" spreadMethod="pad" gradientTransform="matrix(0.209197998047,0.0,0.0,0.177108764648,67.15,107.2)" id="gradient5"><stop offset="0.356862745098" stop-color="#ffffff"/><stop offset="0.670588235294" stop-opacity="0.0"/></radialGradient><g id="c40"><path fill="none" stroke-linejoin="round" stroke-linecap="round" stroke="url(#gradient5)" stroke-width="0.5" d="M136.55 165.8 L68.6 106.0 68.4 106.0 118.25 201.5 M68.3 105.8 L68.35 105.8 68.3 105.8 68.3 105.85 68.4 106.0 68.3 106.0 86.55 211.5 M68.3 105.8 L68.3 105.85 68.3 106.0 68.15 105.95 18.25 151.55 M68.3 105.85 L68.25 105.85 68.3 106.0 50.0 193.2 M68.25 105.85 L68.15 105.95 0.05 97.7 M68.3 105.85 L68.25 105.8 68.25 105.85 M68.25 105.8 L68.2 105.7 0.0 45.7 M68.3 105.8 L68.25 105.75 68.25 105.8 M68.25 105.75 L68.2 105.7 18.25 10.05 M68.6 106.0 L68.35 105.8 118.25 60.15 M86.6 18.35 L68.3 105.8 M136.6 114.25 L68.6 106.0 M68.25 105.75 L49.95 0.05"/></g><g id="c41"><g><use transform="matrix(1.0,0.0,0.0,1.0,0.0,0.0)" xlink:href="#c40"/></g></g><g id="c42"><g><use transform="matrix(1.0,0.0,0.0,1.0,0.0,0.0)" xlink:href="#c35"/></g><g><use transform="matrix(0.238861083984,-0.0867004394531,0.10026550293,0.233917236328,34.25,31.15)" xlink:href="#c37"/></g><g><use transform="matrix(0.238861083984,-0.0867004394531,0.10026550293,0.233917236328,4.25,10.3)" xlink:href="#c37"/></g><g><use transform="matrix(0.141098022461,-0.0378112792969,0.111373901367,0.225646972656,20.25,20.65)" filter="url(#filter30)" xlink:href="#c39"/></g><g><use transform="matrix(-0.155029296875,0.0513153076172,0.0841827392578,0.147033691406,22.6,3.15)" filter="url(#filter31)" xlink:href="#c41"/></g></g><filter id="filter30"><feColorMatrix in="SourceGraphic" type="matrix" values="0.0 0.0 0.0 0.0 0.796875 0.0 0.0 0.0 0.0 0.59765625 0.0 0.0 0.0 0.0 0.19921875 0.0 0.0 0.0 1.0 0.0" result="cxform"/><feComposite operator="in" in2="SourceGraphic" result="color-xform"/></filter><filter id="filter31"><feColorMatrix in="SourceGraphic" type="matrix" values="0.0 0.0 0.0 0.0 0.99609375 0.0 0.0 0.0 0.0 0.99609375 0.0 0.0 0.0 0.0 0.99609375 0.0 0.0 0.0 1.0 0.0" result="cxform"/><feComposite operator="in" in2="SourceGraphic" result="color-xform"/></filter><radialGradient gradientUnits="userSpaceOnUse" r="819.2" cx="0" cy="0" spreadMethod="pad" gradientTransform="matrix(0.0203247070312,-0.00131225585938,0.00209045410156,0.0109252929688,-0.05,-0.05)" id="gradient6"><stop offset="0.576470588235" stop-color="#071c18" stop-opacity="0.439215686275"/><stop offset="0.972549019608" stop-color="#033c49" stop-opacity="0.0"/></radialGradient><g id="c43"><path stroke="none" fill="url(#gradient6)" d="M9.95 -6.8 Q15.1 -4.55 15.85 -0.95 16.5 2.6 12.25 5.4 8.1 8.25 1.55 8.7 -5.05 9.15 -10.3 6.95 -15.4 4.7 -16.05 1.15 -16.8 -2.4 -12.55 -5.25 -8.4 -8.1 -1.85 -8.55 4.75 -8.95 9.95 -6.8"/></g><g id="c44"><path fill="#00686b" fill-opacity="0.6" d="M-11.5 5.35 L-11.0 5.15 -11.25 3.9 Q-12.05 -1.05 -8.95 -6.15 -6.75 -10.95 -5.6 -15.55 -2.9 -17.65 0.1 -17.65 2.85 -17.65 5.05 -15.9 L4.7 -13.35 Q4.0 -6.45 6.55 -1.1 L7.3 0.35 Q8.55 -1.2 11.3 -2.55 16.65 -3.25 18.5 0.8 18.95 1.8 19.2 3.15 18.15 8.15 13.3 8.9 10.0 8.55 7.9 7.1 L5.95 6.3 Q-1.45 7.7 -5.85 13.05 L-5.9 13.1 -5.95 13.15 -6.3 13.6 Q-6.35 14.05 -6.95 14.6 -8.95 16.45 -12.35 17.55 L-14.0 17.65 Q-17.8 17.4 -19.25 13.95 -18.9 8.15 -11.5 5.35 M-5.85 13.05 L-5.9 13.05 -5.9 13.1 Q-6.05 13.1 -6.2 13.25 L-6.3 13.6 -6.2 13.25 Q-6.05 13.1 -5.9 13.1 L-5.9 13.05 -5.85 13.05"/><path fill="none" stroke="#000000" stroke-width="0.5" stroke-opacity="0.301960784314" d="M18.5 0.8 Q18.95 1.8 19.2 3.15 18.15 8.15 13.3 8.9 10.0 8.55 7.9 7.1 L5.95 6.3 Q-1.45 7.7 -5.85 13.05 L-5.9 13.1 -5.95 13.15 M-6.3 13.6 Q-6.35 14.05 -6.95 14.6 -8.95 16.45 -12.35 17.55 L-14.0 17.65 Q-17.8 17.4 -19.25 13.95 -18.9 8.15 -11.5 5.35 M-6.3 13.6 L-6.2 13.25 Q-6.05 13.1 -5.9 13.1 L-5.9 13.05 -5.85 13.05"/><path fill="#00413c" fill-opacity="0.498039215686" d="M-14.75 14.6 Q-14.2 14.05 -13.7 14.15 L-13.3 14.25 Q-12.75 14.75 -13.3 15.6 L-14.15 16.15 -14.15 16.2 -14.25 16.25 -14.55 16.3 -14.8 16.3 -14.9 16.25 -15.75 16.0 -16.45 15.65 Q-17.0 15.05 -17.15 14.25 -16.1 15.1 -15.05 14.75 L-15.0 14.8 -14.8 14.6 -14.75 14.6"/><path fill="#00444d" fill-opacity="0.4" d="M15.4 5.4 L13.95 6.25 Q12.55 6.3 11.55 5.35 11.3 5.0 11.3 4.4 12.0 4.95 12.9 5.05 L14.0 4.55 14.55 4.5 Q15.7 4.65 15.4 5.4"/></g><g id="c45"><path fill="#00878a" fill-opacity="0.498039215686" d="M-1.9 -9.25 Q-1.4 -4.45 0.6 -1.25 L1.05 -0.55 Q2.55 -1.25 4.6 -1.6 9.55 -0.7 10.2 3.4 9.7 5.7 8.45 6.9 4.35 7.95 0.6 6.3 L-1.5 2.15 -1.55 1.95 Q-4.5 -4.9 -5.4 -10.55 -3.25 -10.5 -1.9 -9.25"/><path fill="#00484a" fill-opacity="0.6" d="M10.2 3.4 L10.15 6.55 Q9.2 8.35 7.8 9.35 6.1 10.55 3.9 10.55 L2.65 10.5 2.15 10.5 Q-0.05 10.3 -2.35 8.45 -3.25 7.65 -4.45 6.95 -6.6 5.7 -9.7 4.6 -10.75 -2.55 -9.7 -9.7 -8.25 -10.25 -7.0 -10.4 L-5.4 -10.55 Q-4.5 -4.9 -1.55 1.95 L-1.5 2.15 0.6 6.3 Q4.35 7.95 8.45 6.9 9.7 5.7 10.2 3.4"/><path fill="none" stroke="#000000" stroke-width="0.5" stroke-opacity="0.301960784314" d="M-1.9 -9.25 Q-1.4 -4.45 0.6 -1.25 L1.05 -0.55 Q2.55 -1.25 4.6 -1.6 9.55 -0.7 10.2 3.4 L10.15 6.55 Q9.2 8.35 7.8 9.35"/><path fill="#3fd9d7" fill-opacity="0.498039215686" d="M0.5 2.35 L0.25 1.65 Q0.65 1.05 1.3 0.6 2.2 -0.05 3.65 -0.35 L4.55 -0.45 7.25 -0.05 Q8.65 0.9 8.7 1.95 8.7 3.05 7.0 4.35 L4.65 4.8 4.3 4.8 Q2.9 4.8 1.55 4.1 L0.5 2.35"/></g><g id="c46"><path fill="#03a3a0" fill-opacity="0.498039215686" d="M-1.9 1.0 L-0.8 -0.35 0.25 -2.15 1.75 -2.65 1.95 -2.15 Q0.6 -0.9 -0.15 0.5 L-0.4 1.9 -1.1 2.65 -1.9 1.0"/><path fill="none" stroke="#000000" stroke-width="0.5" stroke-opacity="0.301960784314" d="M-1.1 2.65 L-0.4 1.9 -0.15 0.5 Q0.6 -0.9 1.95 -2.15 L1.75 -2.65 0.25 -2.15 -0.8 -0.35 -1.9 1.0"/></g><g id="c47"><path fill="#01706d" fill-opacity="0.498039215686" d="M-1.45 2.15 L-1.1 1.35 -0.45 -1.05 1.05 -2.15 1.45 -1.6 Q0.3 0.3 -0.1 2.15 L-1.45 2.15"/><path fill="none" stroke="#000000" stroke-width="0.5" stroke-opacity="0.301960784314" d="M-0.1 2.15 Q0.3 0.3 1.45 -1.6 L1.05 -2.15 -0.45 -1.05 -1.1 1.35 -1.45 2.15"/></g><g id="c48"><path fill="#0a8a87" fill-opacity="0.498039215686" d="M0.3 -2.7 L2.35 -1.45 2.45 -0.25 2.35 0.6 0.1 2.6 -0.65 2.85 Q-1.1 2.35 -1.15 1.6 L-2.15 1.1 -2.45 0.0 -1.05 -2.4 -0.05 -2.9 0.3 -2.7 M-0.75 0.65 L-1.15 1.6 -0.75 0.65"/><path fill="none" stroke="#000000" stroke-width="0.5" stroke-opacity="0.301960784314" d="M0.3 -2.7 L-0.05 -2.9 -1.05 -2.4 -2.45 0.0 -2.15 1.1 -1.15 1.6 -0.75 0.65 M-1.15 1.6 Q-1.1 2.35 -0.65 2.85 L0.1 2.6 2.35 0.6 2.45 -0.25"/></g><g id="c49"><path fill="#1aded9" fill-opacity="0.498039215686" d="M-1.9 0.95 L-0.8 -0.35 0.3 -2.2 1.7 -2.65 1.95 -2.2 Q0.55 -0.85 0.15 0.85 L-0.4 1.9 -1.1 2.6 -1.9 0.95"/><path fill="none" stroke="#000000" stroke-width="0.5" stroke-opacity="0.301960784314" d="M-1.1 2.6 L-0.4 1.9 0.15 0.85 Q0.55 -0.85 1.95 -2.2 L1.7 -2.65 0.3 -2.2 -0.8 -0.35 -1.9 0.95"/></g><g id="c50"><path fill="#2afff9" fill-opacity="0.498039215686" d="M0.15 1.85 L-0.25 0.9 -0.85 0.2 -1.0 -0.4 -0.7 -1.85 -0.35 -1.9 -0.15 -1.15 1.0 1.3 0.95 1.75 0.15 1.85"/><path fill="none" stroke="#000000" stroke-width="0.5" stroke-opacity="0.301960784314" d="M0.95 1.75 L1.0 1.3 -0.15 -1.15 -0.35 -1.9 -0.7 -1.85 -1.0 -0.4 -0.85 0.2 -0.25 0.9 0.15 1.85"/></g><g id="c51"><path fill="#14aaa8" fill-opacity="0.498039215686" d="M-0.7 2.95 L-1.0 1.95 -1.0 0.6 Q-0.6 -0.2 -0.95 -1.0 L-1.15 -2.55 -1.05 -2.9 -0.65 -3.0 Q0.05 -2.55 0.25 -2.1 0.2 -1.0 0.65 -0.25 L1.0 0.55 1.05 0.75 1.15 2.1 0.45 2.7 -0.1 2.9 -0.7 2.95"/><path fill="none" stroke="#000000" stroke-width="0.5" stroke-opacity="0.301960784314" d="M-0.7 2.95 L-1.0 1.95 -1.0 0.6 Q-0.6 -0.2 -0.95 -1.0 L-1.15 -2.55 -1.05 -2.9 -0.65 -3.0 Q0.05 -2.55 0.25 -2.1 0.2 -1.0 0.65 -0.25 L1.0 0.55"/></g><g id="c52"><path fill="#cbf1eb" fill-opacity="0.498039215686" d="M-0.5 0.15 L-1.1 -1.05 Q-1.35 -1.65 -1.05 -1.65 L-0.4 -1.4 0.55 -0.35 1.15 0.95 Q1.35 1.55 1.1 1.6 0.85 1.65 0.35 1.15 L-0.45 0.25 -0.5 0.15"/></g><g id="c53"><path fill="#004a49" fill-opacity="0.498039215686" d="M5.0 -1.65 L6.65 -2.0 Q7.55 -0.3 7.45 1.15 L5.75 2.15 -2.85 3.05 Q-5.6 2.25 -7.25 0.8 -7.5 -0.45 -7.35 -1.75 -6.45 -2.6 -5.1 -3.05 L-2.2 -2.9 0.9 -1.6 Q3.05 -1.1 5.0 -1.65"/><path fill="none" stroke="#000000" stroke-width="0.5" stroke-opacity="0.301960784314" d="M5.0 -1.65 Q3.05 -1.1 0.9 -1.6 L-2.2 -2.9 -5.1 -3.05 Q-6.45 -2.6 -7.35 -1.75 -7.5 -0.45 -7.25 0.8 -5.6 2.25 -2.85 3.05 L5.75 2.15 7.45 1.15 Q7.55 -0.3 6.65 -2.0 L5.0 -1.65"/><path fill="#1bbdbf" fill-opacity="0.498039215686" d="M3.55 -0.4 Q5.35 -0.1 5.3 0.95 L4.15 1.55 -1.6 2.2 Q-3.35 1.6 -4.5 0.7 L-4.55 -1.0 Q-4.0 -1.6 -3.05 -1.85 L-1.2 -1.75 0.9 -0.9 3.55 -0.4"/><path fill="#035e54" fill-opacity="0.498039215686" d="M-0.1 1.35 L-1.65 1.4 -2.1 1.3 Q-3.35 0.7 -3.7 -0.05 -3.85 -0.85 -2.85 -0.85 L-2.3 -0.7 Q-1.6 -0.5 -1.25 0.15 L-0.8 0.35 1.4 0.9 -0.1 1.35"/><path fill="#d4fffa" fill-opacity="0.498039215686" d="M0.95 -0.15 L-0.45 -1.5 Q0.95 -0.8 2.15 -0.65 L2.2 -0.65 3.35 -1.0 3.75 -0.95 Q4.5 -0.65 4.15 -0.1 3.6 0.4 2.55 0.4 L2.15 0.35 0.95 -0.15"/></g><g id="c54"><path fill="#0e8886" fill-opacity="0.498039215686" d="M1.1 -4.85 L2.0 -1.0 3.9 3.9 2.45 5.95 0.4 5.95 -1.35 3.2 -3.9 -4.3 -2.1 -5.95 1.1 -4.85"/><path fill="none" stroke="#000000" stroke-width="0.5" stroke-opacity="0.301960784314" d="M3.9 3.9 L2.0 -1.0 1.1 -4.85 M-3.9 -4.3 L-1.35 3.2 0.4 5.95"/></g><g id="c55"><path fill="#30a09d" fill-opacity="0.498039215686" d="M-2.1 -2.35 L0.75 -2.95 Q2.05 -2.8 2.8 -2.15 3.75 0.15 3.35 2.0 2.0 2.6 0.8 2.8 L0.5 2.85 Q-1.6 2.7 -2.8 2.0 -2.85 1.65 -3.05 1.35 L-3.3 -1.3 -3.3 -1.85 -2.1 -2.35"/><path fill="none" stroke="#000000" stroke-width="0.5" stroke-opacity="0.301960784314" d="M3.35 2.0 Q3.75 0.15 2.8 -2.15 2.05 -2.8 0.75 -2.95 L-2.1 -2.35"/><path fill="#a1fcff" fill-opacity="0.298039215686" d="M2.25 -0.65 Q1.7 -1.2 1.05 -1.25 L0.95 -1.25 0.45 -0.9 0.25 -0.95 Q-0.25 -1.15 -0.1 -1.65 L0.75 -2.1 1.65 -1.7 2.0 -1.4 2.25 -0.65"/></g><g id="c56"><path fill="#168381" fill-opacity="0.498039215686" d="M-1.15 2.25 Q-3.7 1.2 -3.4 0.15 L-3.7 -1.0 Q-3.7 -1.85 -2.65 -2.1 L-0.8 -2.2 Q2.25 -1.15 3.75 0.5 3.2 1.7 -0.15 1.75 -0.9 1.9 -1.15 2.25"/><path fill="none" stroke="#000000" stroke-width="0.5" stroke-opacity="0.301960784314" d="M-1.15 2.25 Q-0.9 1.9 -0.15 1.75 3.2 1.7 3.75 0.5 2.25 -1.15 -0.8 -2.2 L-2.65 -2.1"/></g><g id="c57"><path fill="#0d6967" fill-opacity="0.498039215686" d="M-7.45 -3.0 Q-8.2 -6.05 -8.15 -9.6 L-7.0 -13.45 Q-5.45 -15.75 -3.15 -17.85 -1.2 -18.8 1.5 -19.4 L5.4 -18.5 7.6 -15.95 Q8.15 -13.95 8.2 -11.95 7.9 -6.55 6.7 -1.7 5.25 5.1 5.35 12.2 5.55 14.55 6.4 16.35 4.95 18.1 2.4 19.2 L-5.6 18.3 Q-7.7 16.8 -8.1 15.15 -6.8 12.9 -6.3 11.15 -6.1 7.15 -6.6 3.55 L-7.45 -2.95 -7.45 -3.0"/><path fill="none" stroke="#000000" stroke-width="0.5" stroke-opacity="0.301960784314" d="M-7.45 -3.0 Q-8.2 -6.05 -8.15 -9.6 L-7.0 -13.45 Q-5.45 -15.75 -3.15 -17.85 -1.2 -18.8 1.5 -19.4 L5.4 -18.5 7.6 -15.95 Q8.15 -13.95 8.2 -11.95 7.9 -6.55 6.7 -1.7 5.25 5.1 5.35 12.2 5.55 14.55 6.4 16.35 M-8.1 15.15 Q-6.8 12.9 -6.3 11.15 -6.1 7.15 -6.6 3.55 L-7.45 -2.95"/><path fill="#6edbde" fill-opacity="0.698039215686" d="M-6.8 -5.8 L-7.15 -7.85 -7.2 -9.5 -6.1 -12.25 Q-4.8 -13.95 -2.8 -15.5 L1.25 -16.7 4.75 -16.2 6.65 -14.45 Q7.2 -13.05 7.2 -11.6 7.0 -8.6 6.3 -5.8 0.05 1.05 -6.8 -5.8"/><path fill="#57b9bf" fill-opacity="0.698039215686" d="M6.3 -5.8 L5.9 -4.4 4.45 1.55 3.75 11.45 Q-1.25 15.05 -4.9 9.75 -4.8 7.7 -4.95 5.85 L-5.05 4.45 -6.55 -4.75 -6.55 -4.8 -6.8 -5.8 Q0.05 1.05 6.3 -5.8"/><path fill="#2fe0e2" fill-opacity="0.298039215686" d="M3.75 11.45 L3.75 12.95 5.25 16.75 Q5.2 18.05 2.4 19.35 L1.7 19.4 -3.9 18.95 Q-7.8 17.7 -6.85 14.3 L-6.4 13.9 Q-5.3 11.95 -4.95 10.5 L-4.9 9.75 Q-1.25 15.05 3.75 11.45"/><path fill="#038077" fill-opacity="0.4" d="M-4.95 -4.95 Q-5.1 -8.6 -4.6 -10.85 -3.4 -14.25 -1.8 -14.8 -0.05 -14.75 -0.15 -11.85 -0.25 -10.95 -0.5 -10.25 -1.1 -8.35 -2.45 -7.75 L-2.5 -7.6 Q-3.55 -3.5 -2.7 0.95 -3.9 0.15 -4.6 -2.15 -5.0 -3.35 -4.95 -4.95"/><path fill="#d4fffa" fill-opacity="0.498039215686" d="M4.3 -13.75 L4.25 -14.3 Q4.25 -15.35 5.1 -15.25 5.9 -14.9 6.45 -13.55 L6.5 -13.05 6.5 -11.45 5.6 -9.2 Q5.75 -11.1 5.3 -12.6 L5.25 -12.65 Q4.6 -13.0 4.3 -13.75"/><path fill="#026b63" fill-opacity="0.4" d="M0.55 0.1 Q1.05 -1.3 1.8 -2.4 3.1 -4.45 4.55 -4.8 2.35 -0.8 2.2 3.4 L2.45 5.8 Q2.7 8.05 2.9 8.5 3.0 8.75 3.1 8.5 2.3 10.85 0.75 10.45 -0.55 9.5 -0.8 5.9 -0.65 3.65 0.55 0.1"/></g><g id="c58"><path fill="#168381" fill-opacity="0.498039215686" d="M1.5 -1.5 L2.45 -1.85 3.0 0.1 2.15 1.2 0.35 1.75 -1.4 1.8 Q-4.95 -0.35 -0.95 -1.85 0.1 -1.25 1.5 -1.5"/><path fill="none" stroke="#000000" stroke-width="0.5" stroke-opacity="0.301960784314" d="M0.35 1.75 L-1.4 1.8 Q-4.95 -0.35 -0.95 -1.85 0.1 -1.25 1.5 -1.5"/><path fill="#026b6b" fill-opacity="0.298039215686" d="M-1.3 1.2 Q-4.2 -0.55 -0.9 -1.8 0.1 -1.3 0.8 -1.15 1.1 0.0 -0.1 1.2 -0.45 0.95 -1.3 1.2"/><path fill="#d4fffa" fill-opacity="0.4" d="M-1.2 -0.75 L-1.05 -1.0 -0.8 -1.15 -0.5 -1.05 -0.4 -0.75 -0.5 -0.5 Q-0.65 -0.35 -0.8 -0.35 -0.95 -0.35 -1.1 -0.5 L-1.2 -0.75"/></g><g id="c59"><path fill="#168381" fill-opacity="0.498039215686" d="M5.15 -2.1 Q3.35 -1.15 3.9 -0.15 5.25 0.45 5.5 1.3 5.1 2.65 1.75 3.4 -2.05 3.7 -5.15 1.9 -5.5 1.65 -5.5 1.25 -5.45 0.75 -4.8 0.05 -2.9 -1.3 -5.2 -2.1 0.05 -4.8 5.15 -2.1"/><path fill="none" stroke="#000000" stroke-width="0.5" stroke-opacity="0.301960784314" d="M5.15 -2.1 Q3.35 -1.15 3.9 -0.15 5.25 0.45 5.5 1.3 5.1 2.65 1.75 3.4 -2.05 3.7 -5.15 1.9 -5.5 1.65 -5.5 1.25 -5.45 0.75 -4.8 0.05 -2.9 -1.3 -5.2 -2.1"/><path fill="#1ba9aa" fill-opacity="0.498039215686" d="M3.45 -0.2 Q4.65 0.35 4.9 1.1 4.55 2.3 1.55 3.05 -1.8 3.2 -4.55 1.65 L-4.85 1.05 Q-4.85 0.65 -4.25 0.0 L-4.0 -0.2 Q-0.2 -1.0 3.45 -0.2"/><path fill="#005f56" fill-opacity="0.498039215686" d="M-0.25 2.4 L-1.3 2.2 -2.35 1.45 0.9 1.8 0.95 1.8 Q1.3 1.4 2.05 1.35 L2.65 1.3 Q3.75 1.45 3.7 1.95 3.4 2.4 2.0 2.6 L-0.25 2.4"/><path fill="#d4fffa" fill-opacity="0.498039215686" d="M0.9 1.1 L1.05 0.95 1.3 0.9 1.6 0.95 1.75 1.1 1.6 1.25 1.3 1.3 1.0 1.25 0.9 1.1"/></g><g id="c60"><path fill="#168381" fill-opacity="0.498039215686" d="M3.5 0.2 L1.75 0.5 2.1 1.55 Q2.1 3.05 -0.7 3.0 -3.6 2.35 -4.95 0.8 -4.45 -0.45 -1.3 -0.8 -0.5 -1.2 -0.6 -1.7 -0.6 -1.95 -0.95 -2.2 4.6 -4.2 4.9 -0.8 L3.5 0.2"/><path fill="none" stroke="#000000" stroke-width="0.5" stroke-opacity="0.301960784314" d="M-0.6 -1.7 Q-0.5 -1.2 -1.3 -0.8 -4.45 -0.45 -4.95 0.8 -3.6 2.35 -0.7 3.0 2.1 3.05 2.1 1.55 L1.75 0.5 3.5 0.2"/><path fill="#1ba9aa" fill-opacity="0.4" d="M-3.85 0.45 Q-3.5 -0.5 -1.15 -0.75 L1.45 0.1 1.3 0.2 1.55 1.05 Q1.55 2.2 -0.6 2.2 -2.8 1.65 -3.85 0.45"/><path fill="#d4fffa" fill-opacity="0.498039215686" d="M-1.45 0.7 L-1.3 0.45 -1.05 0.3 -0.75 0.4 -0.65 0.7 -0.75 0.95 -1.05 1.1 -1.35 0.95 -1.45 0.7"/><path fill="#076a60" fill-opacity="0.498039215686" d="M-2.2 1.8 L-2.85 1.45 -3.45 0.75 -1.35 1.6 -1.3 1.6 -0.5 1.5 -0.1 1.6 Q0.65 1.85 0.45 2.2 L-0.7 2.3 -2.2 1.8"/></g><g id="c61"><path fill="#168381" fill-opacity="0.498039215686" d="M0.8 -1.3 L1.15 -1.15 Q4.35 -0.8 4.85 0.45 3.45 2.05 0.55 2.7 -2.2 2.75 -2.2 1.25 L-1.9 0.15 -3.35 -0.1 Q-5.3 -1.45 -4.6 -2.15 -3.85 -2.9 -1.9 -2.65 L0.3 -1.7 0.8 -1.3"/><path fill="none" stroke="#000000" stroke-width="0.5" stroke-opacity="0.301960784314" d="M0.8 -1.3 L1.15 -1.15 Q4.35 -0.8 4.85 0.45 3.45 2.05 0.55 2.7 -2.2 2.75 -2.2 1.25 L-1.9 0.15 -3.35 -0.1"/><path fill="#1ba9aa" fill-opacity="0.4" d="M1.1 -1.05 Q3.85 -0.8 4.25 0.35 3.1 1.7 0.6 2.25 -1.8 2.25 -1.8 1.0 L-1.6 0.2 Q-0.7 -0.6 1.1 -1.05"/><path fill="#d4fffa" fill-opacity="0.498039215686" d="M1.8 0.25 L1.95 0.0 2.2 -0.15 2.5 -0.05 2.6 0.25 2.5 0.5 2.2 0.65 1.9 0.5 1.8 0.25"/><path fill="#055f56" fill-opacity="0.498039215686" d="M1.8 1.95 L1.1 2.1 0.3 1.9 Q1.4 1.75 2.3 1.25 L2.35 1.25 2.9 0.75 3.2 0.55 4.0 0.65 3.2 1.45 1.8 1.95"/></g><g id="c62"><path fill="#037773" fill-opacity="0.498039215686" d="M5.0 -3.2 L5.0 -0.1 4.4 2.95 Q3.7 4.15 2.3 4.75 -0.5 5.2 -2.7 4.7 L-4.85 2.4 Q-4.2 0.6 -4.4 -0.9 L-4.4 -1.2 -2.05 -4.35 -1.25 -4.5 2.6 -5.1 Q4.35 -4.15 5.0 -3.2"/><path fill="none" stroke="#000000" stroke-width="0.5" stroke-opacity="0.301960784314" d="M5.0 -3.2 L5.0 -0.1 4.4 2.95 M-4.85 2.4 Q-4.2 0.6 -4.4 -0.9"/><path fill="#a1fcff" fill-opacity="0.349019607843" d="M4.25 0.15 L3.8 2.15 Q3.3 2.95 2.25 3.4 L-1.8 2.85 -3.0 1.65 Q-2.6 0.8 -2.8 -0.2 L-1.0 -2.35 2.4 -2.95 Q3.8 -2.5 4.25 -1.85 L4.25 0.15"/><path fill="#00746b" fill-opacity="0.498039215686" d="M-1.6 -0.4 L-1.2 -0.95 -0.45 -1.2 0.1 -1.15 Q-0.6 -0.4 -0.3 0.7 L-0.3 0.75 0.6 1.6 0.65 1.85 0.7 2.0 Q0.6 2.55 -0.1 2.55 L-0.4 2.45 Q-1.25 2.25 -1.8 1.15 L-1.9 0.75 -1.6 -0.4"/><path fill="#ffffff" fill-opacity="0.6" d="M2.45 -1.4 L2.4 -1.65 Q2.35 -2.05 2.75 -2.05 L3.25 -1.35 3.3 -1.15 3.4 -0.5 2.9 0.45 Q3.05 -0.35 2.8 -0.95 L2.45 -1.4"/></g><g id="c63"><path fill="#39bdba" fill-opacity="0.498039215686" d="M-3.65 -6.6 L0.7 -6.6 Q2.75 -5.55 3.75 -4.4 5.8 -1.4 6.65 1.55 L6.9 3.35 6.4 4.75 6.3 4.95 6.15 5.25 4.55 5.8 3.85 6.0 2.35 6.25 0.4 6.5 -1.0 6.6 -1.05 6.6 Q-3.4 5.0 -5.2 2.6 -6.5 -0.45 -6.9 -3.4 -5.65 -5.0 -3.65 -6.6"/><path fill="none" stroke="#000000" stroke-width="0.5" stroke-opacity="0.301960784314" d="M3.75 -4.4 Q5.8 -1.4 6.65 1.55 L6.9 3.35 6.4 4.75 M-1.05 6.6 Q-3.4 5.0 -5.2 2.6 -6.5 -0.45 -6.9 -3.4 -5.65 -5.0 -3.65 -6.6"/></g><g id="c64"><path fill="#39dade" fill-opacity="0.498039215686" d="M-1.5 -3.35 Q1.25 -3.3 3.15 -1.3 L3.35 -0.75 Q3.05 1.85 2.15 2.65 0.75 3.3 -1.05 3.35 -2.55 1.85 -3.3 0.0 -3.0 -2.1 -1.5 -3.35"/><path fill="none" stroke="#000000" stroke-width="0.5" stroke-opacity="0.301960784314" d="M-1.5 -3.35 Q1.25 -3.3 3.15 -1.3 L3.35 -0.75 Q3.05 1.85 2.15 2.65 0.75 3.3 -1.05 3.35 -2.55 1.85 -3.3 0.0"/><path fill="#07746b" fill-opacity="0.498039215686" d="M-0.4 2.15 L-0.95 1.9 -1.2 1.3 -1.2 0.65 0.7 0.8 0.75 0.8 1.55 -0.05 1.7 -0.15 1.8 -0.2 2.1 0.1 2.1 0.4 2.1 0.5 2.05 0.7 0.85 2.0 0.6 2.1 0.35 2.15 -0.15 2.15 -0.4 2.15"/></g><g id="c65"><path fill="#39dade" fill-opacity="0.498039215686" d="M0.15 -3.55 Q2.45 -2.7 3.5 -0.9 3.6 1.5 2.65 2.7 1.3 3.5 -0.5 3.6 -2.8 2.5 -3.45 0.6 -3.6 -1.1 -3.15 -2.45 -1.55 -3.6 0.15 -3.55"/><path fill="none" stroke="#000000" stroke-width="0.5" stroke-opacity="0.301960784314" d="M0.15 -3.55 Q2.45 -2.7 3.5 -0.9 3.6 1.5 2.65 2.7 1.3 3.5 -0.5 3.6 -2.8 2.5 -3.45 0.6 -3.6 -1.1 -3.15 -2.45"/><path fill="#07746b" fill-opacity="0.498039215686" d="M-1.0 1.75 L-1.5 1.25 -1.6 0.6 -1.35 0.1 Q-0.7 0.95 0.55 0.95 L0.6 0.95 Q1.65 0.8 1.8 0.45 L2.1 0.45 2.25 0.5 Q2.8 0.75 2.65 1.35 L2.6 1.5 Q2.0 2.2 0.7 2.4 L0.25 2.3 -1.0 1.75"/></g><g id="c66"><path fill="#a1fcff" fill-opacity="0.698039215686" d="M4.25 -0.7 Q4.35 0.35 3.75 1.05 3.15 1.75 1.45 2.4 0.0 3.1 -2.4 3.0 -3.9 2.25 -4.25 0.8 L-4.2 0.2 -3.7 -1.9 Q-2.9 -3.05 -1.55 -3.0 2.15 -2.8 4.25 -0.7"/><path fill="#ffffff" fill-opacity="0.698039215686" d="M-3.65 1.1 L-3.4 0.65 -2.85 0.45 -2.25 0.6 Q-1.95 0.75 -1.95 1.05 L-2.2 1.5 Q-2.45 1.7 -2.8 1.7 L-3.4 1.5 -3.65 1.15 -3.65 1.1"/><path fill="#ffffff" fill-opacity="0.698039215686" d="M1.35 -1.1 L1.6 -1.55 2.15 -1.7 2.75 -1.55 3.05 -1.15 2.8 -0.7 2.2 -0.5 Q1.85 -0.5 1.6 -0.7 L1.35 -1.05 1.35 -1.1"/></g><g id="c67"><path fill="#32e9ef" fill-opacity="0.498039215686" d="M-3.0 0.1 Q-2.9 -0.9 -2.1 -1.9 -1.3 -2.9 -0.1 -2.8 1.1 -2.75 2.1 -2.05 3.0 -1.45 3.0 -0.15 3.0 1.1 2.15 1.95 1.25 2.85 -0.05 2.85 -1.3 2.85 -2.2 1.95 -3.1 1.1 -3.0 0.1"/><path fill="none" stroke="#000000" stroke-width="0.5" stroke-opacity="0.301960784314" d="M-3.0 0.1 Q-3.1 1.1 -2.2 1.95 -1.3 2.85 -0.05 2.85 1.25 2.85 2.15 1.95 3.0 1.1 3.0 -0.15 3.0 -1.45 2.1 -2.05 1.1 -2.75 -0.1 -2.8 -1.3 -2.9 -2.1 -1.9 -2.9 -0.9 -3.0 0.1"/><path fill="#8efffe" fill-opacity="0.498039215686" d="M-2.2 -0.95 Q-2.1 -1.55 -1.45 -2.1 -0.85 -2.7 0.1 -2.7 L1.8 -2.25 Q2.55 -1.9 2.55 -1.15 2.55 -0.4 1.85 0.1 1.1 0.65 0.15 0.65 -0.85 0.65 -1.5 0.1 -2.25 -0.4 -2.2 -0.95"/><path fill="#ffffff" fill-opacity="0.6" d="M-0.35 -1.5 L-0.2 -1.9 0.2 -2.05 0.6 -1.9 0.85 -1.55 Q0.85 -1.25 0.65 -1.1 L0.2 -0.9 -0.2 -1.1 -0.35 -1.5"/><path fill="#0c5b66" fill-opacity="0.498039215686" d="M-1.4 0.05 L-1.25 -0.55 Q-0.65 0.25 0.65 0.1 1.4 -0.1 1.7 -1.2 2.25 -0.8 2.25 -0.05 2.25 0.7 1.7 1.2 1.1 1.75 0.35 1.75 -0.35 1.75 -0.95 1.2 -1.45 0.7 -1.4 0.05"/></g><g id="c68"><path fill="#32e9ef" fill-opacity="0.498039215686" d="M-1.45 0.15 L-1.0 -0.85 Q-0.6 -1.35 -0.05 -1.3 L1.05 -0.95 1.5 -0.05 Q1.5 0.6 1.05 1.05 0.65 1.45 0.0 1.45 -0.6 1.45 -1.05 1.05 -1.55 0.6 -1.45 0.15"/><path fill="none" stroke="#000000" stroke-width="0.5" stroke-opacity="0.301960784314" d="M-1.45 0.15 Q-1.55 0.6 -1.05 1.05 -0.6 1.45 0.0 1.45 0.65 1.45 1.05 1.05 1.5 0.6 1.5 -0.05 L1.05 -0.95 -0.05 -1.3 Q-0.6 -1.35 -1.0 -0.85 L-1.45 0.15"/><path fill="#ffffff" fill-opacity="0.698039215686" d="M-0.75 -0.4 L-0.55 -0.65 Q-0.45 -0.85 -0.2 -0.85 L0.15 -0.7 0.3 -0.4 0.15 -0.05 -0.2 0.1 -0.55 -0.05 -0.75 -0.4"/><path fill="#2a99a9" fill-opacity="0.8" d="M-0.65 0.55 L-0.75 0.2 0.3 0.3 0.65 -0.45 1.0 -0.05 0.95 0.7 0.4 1.1 -0.35 1.0 -0.65 0.55"/></g><g id="c69"><path fill="#88dfc9" fill-opacity="0.498039215686" d="M-1.4 0.0 L-1.0 -0.95 Q-0.6 -1.4 -0.05 -1.35 L0.95 -1.0 Q1.4 -0.75 1.4 -0.15 1.4 0.45 0.95 0.85 0.55 1.25 0.0 1.25 -0.6 1.25 -1.05 0.85 L-1.4 0.0"/><path fill="none" stroke="#000000" stroke-width="0.5" stroke-opacity="0.301960784314" d="M-1.4 0.0 L-1.05 0.85 Q-0.6 1.25 0.0 1.25 0.55 1.25 0.95 0.85 1.4 0.45 1.4 -0.15 1.4 -0.75 0.95 -1.0 L-0.05 -1.35 Q-0.6 -1.4 -1.0 -0.95 L-1.4 0.0"/><path fill="#d4fffa" fill-opacity="0.8" d="M-0.45 -0.5 L-0.3 -0.8 0.0 -0.95 0.35 -0.85 0.45 -0.5 0.35 -0.2 0.0 -0.05 -0.35 -0.2 -0.45 -0.5"/><path fill="#127963" fill-opacity="0.498039215686" d="M-0.65 0.15 L-0.6 -0.15 0.25 0.2 Q0.6 0.05 0.8 -0.45 L1.0 0.05 0.8 0.7 0.15 0.95 -0.4 0.7 -0.65 0.15"/></g><g id="c70"><path fill="#23c2c1" fill-opacity="0.6" d="M2.05 -5.15 L4.35 -4.65 5.65 -2.75 4.95 -0.85 -0.9 4.15 -1.85 5.2 Q-5.7 5.6 -5.5 3.45 L-4.0 1.65 -0.9 -3.3 2.05 -5.15"/><path fill="none" stroke="#000000" stroke-width="0.5" stroke-opacity="0.301960784314" d="M2.05 -5.15 L-0.9 -3.3 -4.0 1.65 -5.5 3.45 M-1.85 5.2 L-0.9 4.15 4.95 -0.85 5.65 -2.75"/><path fill="#7bfcff" fill-opacity="0.4" d="M-0.3 -2.9 L1.75 -4.15 3.35 -3.85 4.3 -2.5 3.8 -1.15 -0.3 2.35 -1.55 3.7 Q-3.35 4.0 -4.3 3.05 L-2.5 0.55 -0.3 -2.9"/><path fill="#ffffff" fill-opacity="0.498039215686" d="M1.45 -2.65 Q0.95 -2.25 0.55 -2.15 L0.5 -2.1 Q-0.55 -1.3 -1.1 -0.3 L-0.55 -1.65 0.3 -2.65 0.65 -2.95 1.95 -3.7 Q2.3 -3.6 1.8 -2.95 L1.45 -2.65"/><path fill="#07746b" fill-opacity="0.498039215686" d="M1.0 -0.7 L1.4 -1.2 Q2.25 -1.95 2.45 -1.45 L1.4 0.4 0.95 0.85 -0.35 2.05 -2.25 2.8 Q-0.9 2.0 0.25 0.65 L0.3 0.55 1.0 -0.7"/></g><g id="c71"><path fill="#0abbb8" fill-opacity="0.498039215686" d="M1.4 0.2 L0.0 0.65 -1.45 1.35 -1.75 0.95 -0.8 -0.35 0.6 -0.75 1.4 -1.35 Q2.15 -0.55 1.4 0.2"/><path fill="none" stroke="#000000" stroke-width="0.5" stroke-opacity="0.301960784314" d="M1.4 -1.35 L0.6 -0.75 -0.8 -0.35 -1.75 0.95 -1.45 1.35 0.0 0.65 1.4 0.2"/></g><g id="c72"><path fill="#0abbb8" fill-opacity="0.498039215686" d="M-0.4 -1.0 L-0.1 -1.45 Q0.95 -2.3 1.3 -1.45 L-0.65 1.9 -1.3 1.6 -1.1 0.0 -0.4 -1.0"/><path fill="none" stroke="#000000" stroke-width="0.5" stroke-opacity="0.301960784314" d="M-0.4 -1.0 L-1.1 0.0 -1.3 1.6 -0.65 1.9 1.3 -1.45"/></g><g id="c73"><path fill="#0abbb8" fill-opacity="0.498039215686" d="M0.25 -2.1 L0.3 -2.1 Q0.65 -2.4 1.15 -2.5 2.35 -2.55 2.75 -1.8 L2.75 -0.8 1.5 1.25 1.25 1.95 1.15 2.0 -1.5 1.95 Q-2.45 1.25 -2.75 0.4 L-1.8 -2.35 -0.7 -2.35 0.25 -2.1 M0.05 -0.25 L-0.15 -1.4 0.05 -0.25"/><path fill="none" stroke="#000000" stroke-width="0.5" stroke-opacity="0.301960784314" d="M1.25 1.95 L1.5 1.25 2.75 -0.8 2.75 -1.8 Q2.35 -2.55 1.15 -2.5 0.65 -2.4 0.3 -2.1 L0.25 -2.1 M-0.15 -1.4 L0.05 -0.25"/><path fill="#91fff6" fill-opacity="0.498039215686" d="M1.3 -2.2 Q2.05 -2.15 2.45 -1.65 L2.45 -1.0 2.0 -0.6 1.0 -0.55 Q0.7 -0.55 0.55 -0.7 0.35 -1.0 0.4 -1.4 L0.7 -1.85 1.3 -2.2"/><path fill="#91fff6" fill-opacity="0.498039215686" d="M0.3 1.1 L1.05 0.3 1.15 0.45 1.25 0.6 1.2 1.15 0.8 1.95 0.65 2.05 0.4 2.45 0.15 2.35 0.1 2.25 0.1 1.8 0.3 1.1"/><path fill="#91fff6" fill-opacity="0.498039215686" d="M-2.0 -0.35 L-0.95 -0.7 -0.95 -0.5 -0.9 -0.35 -1.25 0.1 -2.0 0.6 -2.15 0.7 -2.6 0.85 -2.75 0.65 -2.75 0.55 -2.55 0.1 -2.0 -0.35"/><path fill="#d4fffa" fill-opacity="0.8" d="M0.9 -1.65 L1.05 -1.9 1.3 -2.05 1.6 -1.95 1.75 -1.65 1.6 -1.4 Q1.5 -1.25 1.3 -1.25 1.15 -1.25 1.0 -1.4 L0.9 -1.65"/></g><g id="c74"><path fill="#0abbb8" fill-opacity="0.498039215686" d="M-2.3 0.2 L-2.15 -0.15 -0.75 -1.35 1.3 -1.65 Q2.0 -1.35 2.35 -0.4 L2.55 -0.1 1.9 1.1 1.45 1.45 0.2 1.55 0.1 1.55 -0.2 1.15 -0.4 0.6 -1.2 0.6 -2.4 0.55 -2.3 0.2"/><path fill="none" stroke="#000000" stroke-width="0.5" stroke-opacity="0.301960784314" d="M2.35 -0.4 Q2.0 -1.35 1.3 -1.65 L-0.75 -1.35 -2.15 -0.15 -2.3 0.2 M-1.2 0.6 L-0.4 0.6 -0.2 1.15"/><path fill="#0abbb8" fill-opacity="0.498039215686" d="M-2.25 0.55 Q-1.2 0.15 -0.9 0.55 L-1.1 1.15 Q-1.7 1.65 -2.55 1.55 L-2.55 1.15 -2.25 0.55"/><path fill="none" stroke="#000000" stroke-width="0.5" stroke-opacity="0.301960784314" d="M-0.9 0.55 L-1.1 1.15 Q-1.7 1.65 -2.55 1.55 L-2.55 1.15 -2.25 0.55"/><path fill="#91fff6" fill-opacity="0.498039215686" d="M1.0 -1.4 Q1.75 -1.35 2.15 -0.85 L2.15 -0.2 1.7 0.2 0.7 0.25 0.25 0.1 0.1 -0.6 0.4 -1.05 1.0 -1.4"/><path fill="#d4fffa" fill-opacity="0.8" d="M0.7 -0.7 L0.85 -0.95 1.1 -1.1 1.4 -1.0 1.55 -0.7 1.4 -0.45 Q1.3 -0.3 1.1 -0.3 0.95 -0.3 0.8 -0.45 L0.7 -0.7"/></g><g id="c75"><path fill="#0abbb8" fill-opacity="0.498039215686" d="M0.35 -1.8 Q1.95 -2.1 2.4 -1.0 L1.3 0.45 -1.15 1.95 -1.75 1.45 -1.95 1.5 -2.4 1.05 -1.3 -0.75 Q-0.45 -1.25 0.35 -1.8"/><path fill="none" stroke="#000000" stroke-width="0.5" stroke-opacity="0.301960784314" d="M0.35 -1.8 Q-0.45 -1.25 -1.3 -0.75 L-2.4 1.05 -1.95 1.5 -1.75 1.45 -1.15 1.95 1.3 0.45 2.4 -1.0"/><path fill="#91fff6" fill-opacity="0.498039215686" d="M0.35 -1.4 Q1.6 -2.05 2.25 -1.9 L2.35 -1.65 2.35 -1.3 1.75 -0.5 Q1.1 0.0 0.35 0.4 L0.1 0.55 -0.7 0.85 -1.0 0.45 -0.95 0.3 -0.55 -0.45 0.35 -1.4"/></g><g id="c76"><path fill="#23c2c1" fill-opacity="0.6" d="M0.15 -3.95 Q2.0 -3.85 3.2 -1.3 3.45 0.2 3.2 1.7 2.9 2.7 1.95 3.75 L-1.25 4.1 Q-2.15 3.95 -2.75 3.35 -3.3 1.75 -3.15 -0.1 L-2.25 -2.35 Q-1.45 -3.25 0.15 -3.95"/><path fill="none" stroke="#000000" stroke-width="0.5" stroke-opacity="0.301960784314" d="M0.15 -3.95 Q-1.45 -3.25 -2.25 -2.35 L-3.15 -0.1 Q-3.3 1.75 -2.75 3.35 M1.95 3.75 Q2.9 2.7 3.2 1.7 3.45 0.2 3.2 -1.3"/><path fill="#a1fcff" fill-opacity="0.6" d="M-0.35 -2.85 Q1.5 -2.75 2.4 -0.9 L2.45 0.15 2.4 1.25 1.35 2.8 -0.7 2.95 -1.1 2.95 -2.25 2.45 -2.55 0.5 -2.55 0.0 -1.85 -1.6 -0.35 -2.85"/><path fill="#07746b" fill-opacity="0.498039215686" d="M0.3 -2.2 Q-0.55 -1.3 -0.55 -0.3 L-0.55 -0.25 Q-0.1 0.1 -0.05 0.6 L-0.1 1.0 Q-0.4 1.65 -1.15 1.4 -1.7 1.1 -1.85 0.1 L-1.3 -1.2 -0.85 -1.8 Q-0.3 -2.2 0.3 -2.2"/><path fill="#ffffff" fill-opacity="0.6" d="M0.0 -1.05 L0.3 -1.65 Q0.55 -2.0 0.9 -1.95 L1.6 -1.7 1.95 -1.15 1.65 -0.45 0.95 -0.2 Q0.55 -0.2 0.3 -0.45 0.0 -0.75 0.0 -1.05"/></g><g id="c77"><path fill="#23c2c1" fill-opacity="0.6" d="M-1.7 -4.45 L1.35 -5.45 3.3 -3.95 1.8 3.1 0.95 5.5 -1.55 5.5 -3.3 3.65 -2.1 -0.85 -1.7 -4.45"/><path fill="none" stroke="#000000" stroke-width="0.5" stroke-opacity="0.301960784314" d="M3.3 -3.95 L1.8 3.1 0.95 5.5 M-3.3 3.65 L-2.1 -0.85 -1.7 -4.45"/><path fill="#7bfcff" fill-opacity="0.498039215686" d="M2.3 -1.7 L1.2 2.45 0.55 3.9 -1.25 3.95 Q-2.4 3.6 -2.5 2.75 L-1.6 0.05 -1.4 -2.05 Q-0.25 -3.0 0.85 -2.65 2.35 -2.3 2.3 -1.7"/><path fill="#07746b" fill-opacity="0.498039215686" d="M0.7 -0.1 L0.85 -0.7 Q1.15 -1.45 1.4 -1.3 L1.6 -1.3 1.55 0.5 1.4 1.05 0.8 2.45 -0.45 3.75 Q0.35 2.55 0.75 1.1 L0.75 1.05 Q0.55 0.55 0.7 -0.1"/><path fill="#ffffff" fill-opacity="0.6" d="M-1.25 1.25 L-1.15 0.65 -0.85 0.15 -0.6 0.25 -0.5 0.8 -0.65 1.45 -1.0 1.85 -1.15 1.7 -1.3 1.25 -1.25 1.25"/></g><g id="c78"><path fill="#005451" fill-opacity="0.498039215686" d="M-2.8 1.8 Q-2.2 -0.45 -2.8 -2.75 L-0.75 -3.75 1.85 -2.35 Q1.75 0.15 2.85 2.65 1.8 3.55 -0.65 3.8 -2.3 3.0 -2.8 1.8"/><path fill="none" stroke="#000000" stroke-width="0.5" stroke-opacity="0.301960784314" d="M2.85 2.65 Q1.75 0.15 1.85 -2.35 L-0.75 -3.75 -2.8 -2.75 Q-2.2 -0.45 -2.8 1.8"/><path fill="#00312c" fill-opacity="0.498039215686" d="M1.25 1.7 Q0.45 0.95 -0.4 1.3 L-0.5 1.3 -1.15 2.15 -1.45 2.25 Q-2.1 2.1 -1.9 1.15 -1.7 0.3 -0.9 -0.1 L0.25 0.1 Q0.55 0.15 0.85 0.45 L1.25 1.7"/></g><linearGradient gradientUnits="userSpaceOnUse" x1="-819.2" x2="819.2" spreadMethod="pad" gradientTransform="matrix(-0.000473022460938,-0.00239562988281,-0.00218200683594,0.00042724609375,-0.95,-3.8)" id="gradient7"><stop offset="0.0" stop-color="#6d0019"/><stop offset="0.952941176471" stop-color="#cd4312"/></linearGradient><g id="c79"><path stroke="none" fill="url(#gradient7)" d="M-1.7 3.25 Q-2.55 0.35 -2.35 -3.5 L-1.2 -5.75 Q-1.55 -0.4 0.8 2.9 L2.35 4.8 Q2.35 5.5 1.5 5.7 L0.75 5.35 -1.7 3.25"/><path fill="none" stroke="#000000" stroke-width="0.5" stroke-opacity="0.301960784314" d="M-1.7 3.25 Q-2.55 0.35 -2.35 -3.5 L-1.2 -5.75 Q-1.55 -0.4 0.8 2.9 L2.35 4.8 Q2.35 5.5 1.5 5.7 L0.75 5.35 -1.7 3.25"/><path fill="#25030b" fill-opacity="0.498039215686" d="M-1.0 2.4 Q-1.6 0.65 -1.7 -1.1 L-1.4 -2.1 Q-1.15 0.0 -0.2 1.95 L0.75 3.55 0.5 3.75 -1.0 2.4"/><path fill="#ff8c4f" fill-opacity="0.498039215686" d="M-1.75 -0.7 L-1.65 -3.05 -1.3 -3.7 Q-1.5 -2.25 -1.25 -0.85 L-0.9 0.2 -1.1 0.35 -1.75 -0.7"/></g><linearGradient gradientUnits="userSpaceOnUse" x1="-819.2" x2="819.2" spreadMethod="pad" gradientTransform="matrix(-0.000457763671875,-0.00434875488281,-0.0023193359375,0.000259399414062,-0.05,-3.45)" id="gradient8"><stop offset="0.0" stop-color="#4c000d"/><stop offset="0.952941176471" stop-color="#cd4312"/></linearGradient><g id="c80"><path stroke="none" fill="url(#gradient8)" d="M-1.4 4.0 L-1.55 2.25 Q-1.8 -0.6 -1.4 -3.55 -1.0 -4.8 -0.05 -5.7 -0.5 -1.15 1.1 3.0 L1.65 5.2 0.25 5.65 -1.4 4.0"/><path fill="none" stroke="#000000" stroke-width="0.5" stroke-opacity="0.301960784314" d="M-1.4 4.0 L-1.55 2.25 Q-1.8 -0.6 -1.4 -3.55 -1.0 -4.8 -0.05 -5.7 -0.5 -1.15 1.1 3.0 L1.65 5.2 0.25 5.65 -1.4 4.0"/><path fill="#000000" fill-opacity="0.498039215686" d="M-0.6 2.6 Q-1.0 0.8 -1.0 -0.95 L-0.6 -2.0 Q-0.55 0.2 0.25 2.2 L1.1 3.9 0.75 4.05 -0.6 2.6"/><path fill="#ff8c4f" fill-opacity="0.498039215686" d="M-0.7 -2.95 L-0.3 -3.6 Q-0.5 -2.25 -0.3 0.3 L-0.85 -0.85 -0.7 -2.95"/></g><linearGradient gradientUnits="userSpaceOnUse" x1="-819.2" x2="819.2" spreadMethod="pad" gradientTransform="matrix(-0.000335693359375,-0.00434875488281,-0.00270080566406,0.000198364257812,-1.15,-1.7)" id="gradient9"><stop offset="0.0" stop-color="#6b0018"/><stop offset="0.952941176471" stop-color="#cd4312"/></linearGradient><g id="c81"><path stroke="none" fill="url(#gradient9)" d="M1.55 3.9 L-0.15 5.5 -1.55 4.75 -1.0 3.25 Q0.25 -1.05 -0.6 -5.55 0.4 -4.75 0.95 -3.6 1.8 0.15 1.55 3.9"/><path fill="none" stroke="#000000" stroke-width="0.5" stroke-opacity="0.301960784314" d="M1.55 3.9 Q1.8 0.15 0.95 -3.6 0.4 -4.75 -0.6 -5.55 0.25 -1.05 -1.0 3.25 L-1.55 4.75 -0.15 5.5 1.55 3.9"/><path fill="#25030b" fill-opacity="0.498039215686" d="M1.2 1.85 L0.15 3.5 -0.2 3.4 0.35 1.65 Q0.75 -0.5 0.4 -2.65 L1.0 -1.75 Q1.3 0.0 1.2 1.85"/><path fill="#ff8c4f" fill-opacity="0.498039215686" d="M1.25 -0.6 L0.75 0.45 0.55 0.4 0.7 -0.75 0.35 -3.55 0.75 -2.95 1.25 -0.6"/></g><g id="c82"><path fill="#23a6a2" fill-opacity="0.698039215686" d="M7.1 -3.55 Q7.55 -1.9 7.45 -0.4 L6.95 2.6 7.0 4.35 Q6.6 5.35 5.7 6.35 L4.25 8.1 2.85 8.45 -1.7 7.2 -4.0 5.7 Q-6.1 3.15 -7.35 -0.15 -7.7 -2.6 -6.85 -5.4 -5.3 -7.35 -1.55 -8.5 2.0 -8.3 3.95 -7.45 6.2 -5.5 7.1 -3.55"/><path fill="none" stroke="#000000" stroke-width="0.5" stroke-opacity="0.301960784314" d="M7.1 -3.55 Q7.55 -1.9 7.45 -0.4 L6.95 2.6 7.0 4.35 Q6.6 5.35 5.7 6.35 L4.25 8.1 2.85 8.45 -1.7 7.2 -4.0 5.7"/><path fill="#c2fdff" fill-opacity="0.6" d="M6.6 0.6 L6.6 1.0 6.15 3.25 6.1 4.6 5.05 6.05 3.95 7.3 2.85 7.55 -0.45 6.7 -2.1 5.65 -3.1 3.2 Q-4.0 0.05 2.15 2.3 L2.95 2.35 Q5.45 1.7 6.6 0.45 L6.6 0.6"/></g><g id="c83"><path fill="none" stroke="#000000" stroke-width="0.5" stroke-opacity="0.498039215686" d="M0.6 -0.15 L0.2 -0.3 -0.6 0.25"/></g><g id="c84"><path fill="#d4fffa" fill-opacity="0.8" d="M0.2 1.5 L-0.1 -0.15 -0.5 -0.7 -0.55 -1.0 Q-0.55 -1.6 -0.1 -1.55 L0.5 -0.7 0.55 -0.45 0.5 0.45 0.35 1.0 0.2 1.5"/></g><g id="c85"><path fill="#d4fffa" fill-opacity="0.8" d="M0.25 1.7 L-0.3 1.1 -0.45 0.5 -0.55 -0.75 Q-0.35 -1.5 0.0 -1.7 0.4 -1.7 0.5 -1.1 L0.45 -0.75 0.05 -0.15 0.05 -0.1 Q-0.1 0.75 0.25 1.7"/></g><g id="c86"><path fill="#32e9ef" fill-opacity="0.498039215686" d="M-8.3 4.3 Q-8.4 0.65 -7.4 -1.75 -6.4 -3.25 -4.0 -4.45 L0.55 -5.15 Q3.55 -4.65 6.05 -3.35 7.4 -1.9 8.05 -0.5 L8.25 0.9 Q5.75 1.85 2.75 4.3 L-2.85 5.1 -8.3 4.3"/><path fill="none" stroke="#000000" stroke-width="0.5" stroke-opacity="0.301960784314" d="M-2.85 5.1 L2.75 4.3 Q5.75 1.85 8.25 0.9 L8.05 -0.5 Q7.4 -1.9 6.05 -3.35 3.55 -4.65 0.55 -5.15 L-4.0 -4.45 Q-6.4 -3.25 -7.4 -1.75 -8.4 0.65 -8.3 4.3"/></g><linearGradient gradientUnits="userSpaceOnUse" x1="-819.2" x2="819.2" spreadMethod="pad" gradientTransform="matrix(-6.103515625e-05,-0.00289916992188,-0.00157165527344,3.0517578125e-05,-6.7,-0.3)" id="gradient10"><stop offset="0.0" stop-color="#b80a33"/><stop offset="0.952941176471" stop-color="#ea5520"/></linearGradient><linearGradient gradientUnits="userSpaceOnUse" x1="-819.2" x2="819.2" spreadMethod="pad" gradientTransform="matrix(0.000411987304688,-0.00224304199219,-0.00230407714844,-0.00042724609375,5.8,-0.8)" id="gradient11"><stop offset="0.0" stop-color="#98042a"/><stop offset="0.952941176471" stop-color="#ea5520"/></linearGradient><g id="c87"><path fill="#7a001e" stroke="none" d="M-5.55 4.6 L-2.4 5.2 1.1 4.7 3.5 3.25 4.2 2.5 5.55 2.9 Q4.2 5.2 1.7 7.55 L-2.65 6.45 -5.55 6.2 -5.55 4.6"/><path fill="none" stroke="#000000" stroke-width="0.5" stroke-opacity="0.301960784314" d="M-5.55 4.6 L-2.4 5.2 1.1 4.7 3.5 3.25 4.2 2.5 5.55 2.9 Q4.2 5.2 1.7 7.55 L-2.65 6.45 -5.55 6.2"/><path fill="#98042a" stroke="none" d="M-5.45 2.0 L-3.5 5.3 -4.4 5.6 -7.25 3.25 -6.0 1.15 -5.45 2.0"/><path fill="none" stroke="#000000" stroke-width="0.5" stroke-opacity="0.301960784314" d="M-5.45 2.0 L-3.5 5.3 -4.4 5.6 -7.25 3.25 -6.0 1.15 -5.45 2.0"/><path stroke="none" fill="url(#gradient10)" d="M-6.95 3.4 L-7.9 1.0 Q-8.15 -0.85 -7.55 -3.25 L-6.8 -4.9 Q-6.65 -1.35 -5.6 1.05 L-5.4 2.1 -5.25 3.2 -6.95 3.4"/><path fill="none" stroke="#000000" stroke-width="0.5" stroke-opacity="0.301960784314" d="M-6.95 3.4 L-7.9 1.0 Q-8.15 -0.85 -7.55 -3.25 L-6.8 -4.9 Q-6.65 -1.35 -5.6 1.05 L-5.4 2.1"/><path fill="#6b0018" fill-opacity="0.8" d="M-7.05 2.6 Q-7.65 0.85 -7.75 -0.9 L-7.45 -1.9 Q-7.2 0.2 -6.25 2.15 L-5.3 3.75 -5.55 3.95 -7.05 2.6"/><path fill="#ff8c4f" stroke="none" d="M-7.8 -1.0 L-7.45 -3.4 -7.05 -4.0 Q-7.4 -2.6 -7.25 -1.2 L-7.05 -0.05 -7.25 0.0 -7.8 -1.0"/><path stroke="none" fill="url(#gradient11)" d="M7.35 1.45 L3.8 4.4 2.9 4.15 4.85 0.85 Q6.8 -3.25 6.6 -7.55 7.5 -6.75 7.85 -5.65 8.15 -2.1 7.35 1.45"/><path fill="none" stroke="#000000" stroke-width="0.5" stroke-opacity="0.301960784314" d="M7.35 1.45 Q8.15 -2.1 7.85 -5.65 7.5 -6.75 6.6 -7.55 6.8 -3.25 4.85 0.85 L2.9 4.15 3.8 4.4 7.35 1.45"/><path fill="#6b0018" fill-opacity="0.8" d="M7.1 0.8 L5.8 2.3 5.5 2.2 6.25 0.45 Q7.0 -1.55 7.0 -3.7 L7.4 -2.75 Q7.45 -1.0 7.1 0.8"/><path fill="#ff8c4f" stroke="none" d="M7.65 -3.2 L6.95 -2.15 6.8 -2.2 7.1 -3.3 Q7.35 -4.65 7.15 -5.95 L7.45 -5.4 7.65 -3.2"/></g><g id="c88"><path fill="#35f7ff" fill-opacity="0.698039215686" d="M0.55 -2.3 L1.15 -0.3 1.4 0.85 Q1.05 1.9 0.05 2.3 L-0.55 2.5 -1.25 0.5 -1.35 -0.05 Q-1.4 -2.05 -0.55 -2.4 L-0.3 -2.45 -0.1 -2.45 0.55 -2.3"/><path fill="none" stroke="#000000" stroke-width="0.5" stroke-opacity="0.301960784314" d="M0.55 -2.3 L1.15 -0.3 1.4 0.85 Q1.05 1.9 0.05 2.3 L-0.55 2.5 -1.25 0.5 -1.35 -0.05"/></g><g id="c89"><path fill="#35f7ff" fill-opacity="0.698039215686" d="M1.75 -0.7 L1.8 -0.15 1.7 2.0 0.2 2.25 Q-0.85 2.2 -1.65 1.7 L-1.85 0.5 -1.85 -1.55 Q-0.9 -2.35 -0.15 -2.3 1.0 -2.35 1.75 -0.7"/><path fill="none" stroke="#000000" stroke-width="0.5" stroke-opacity="0.301960784314" d="M-1.85 -1.55 L-1.85 0.5 -1.65 1.7 Q-0.85 2.2 0.2 2.25 L1.7 2.0 1.8 -0.15 1.75 -0.7"/></g><g id="c90"><path fill="#35f7ff" fill-opacity="0.698039215686" d="M-1.95 -0.45 Q-1.45 -2.35 -0.1 -2.35 0.6 -2.35 1.6 -1.8 L2.0 0.3 2.0 1.4 1.3 2.35 0.8 2.35 -1.35 2.2 Q-1.8 1.1 -1.9 0.0 L-1.95 -0.45"/><path fill="none" stroke="#000000" stroke-width="0.5" stroke-opacity="0.301960784314" d="M1.6 -1.8 L2.0 0.3 2.0 1.4 1.3 2.35 0.8 2.35 -1.35 2.2 Q-1.8 1.1 -1.9 0.0 L-1.95 -0.45"/></g><g id="c91"><path fill="#41fbff" fill-opacity="0.498039215686" d="M10.8 -12.0 L10.35 -8.65 8.55 -3.45 6.75 0.6 6.75 0.85 6.3 3.0 5.75 4.6 5.15 6.3 3.65 9.2 Q2.6 10.75 -2.15 12.6 L-2.35 12.65 -3.7 12.8 Q-9.15 13.0 -10.8 7.75 -9.7 -1.45 -0.1 -3.6 L-0.05 -3.6 Q4.45 -6.85 5.55 -12.8 L10.8 -12.0"/><path fill="none" stroke="#000000" stroke-width="0.5" stroke-opacity="0.301960784314" d="M8.55 -3.45 L10.35 -8.65 10.8 -12.0 M5.55 -12.8 Q4.45 -6.85 -0.05 -3.6 M-0.1 -3.6 Q-9.7 -1.45 -10.8 7.75 -9.15 13.0 -3.7 12.8 L-2.35 12.65"/><path fill="#affffe" fill-opacity="0.6" d="M4.7 2.65 Q3.4 5.95 2.2 7.25 -0.8 9.6 -4.65 9.7 -7.55 9.05 -8.05 6.8 L-7.6 4.3 Q-7.3 1.75 -4.0 0.25 -1.95 -2.45 1.95 -3.6 L2.05 -3.6 Q4.45 -6.0 6.1 -11.6 L8.2 -11.65 Q9.15 -11.35 9.9 -10.35 L8.45 -5.95 6.35 -1.8 5.35 -0.15 4.7 2.65"/><path fill="#07746b" fill-opacity="0.298039215686" d="M3.55 -3.65 Q3.35 -3.9 3.3 -4.25 4.5 -5.2 5.9 -8.15 L6.25 -9.7 Q6.35 -10.35 7.35 -10.95 7.75 -10.95 7.95 -10.35 L7.9 -10.0 Q7.7 -8.55 6.85 -6.9 6.0 -5.25 5.0 -4.25 3.95 -3.25 3.55 -3.65"/><path fill="#ffffff" fill-opacity="0.6" d="M0.3 -0.7 L1.1 -1.65 1.95 -2.1 2.35 -1.7 2.05 -0.85 1.25 0.2 Q0.75 0.55 0.4 0.55 0.05 0.55 0.05 0.2 L0.3 -0.6 0.3 -0.7"/><path fill="#35afbf" fill-opacity="0.498039215686" d="M-0.95 1.2 Q-2.5 3.2 -1.85 5.1 L-1.85 5.2 Q-0.45 5.55 -0.05 6.45 L0.1 7.2 Q-0.2 8.5 -2.05 8.45 -3.7 8.1 -4.6 6.5 -4.8 5.45 -4.2 3.75 -4.05 3.05 -3.45 2.55 -2.4 1.5 -0.95 1.2"/><path fill="#ffffff" fill-opacity="0.6" d="M-7.55 2.7 Q-8.15 4.45 -7.9 6.3 L-7.9 6.4 Q-7.35 6.9 -7.15 7.85 L-7.1 8.55 Q-7.25 9.75 -8.0 9.5 -8.65 8.95 -9.05 7.3 L-9.05 6.7 -8.85 4.75 Q-8.5 3.65 -7.55 2.7"/><path fill="#ffffff" fill-opacity="0.6" d="M7.95 -7.75 L8.1 -8.15 Q8.5 -8.8 8.65 -8.5 L8.45 -7.2 8.3 -6.85 7.75 -5.85 6.75 -4.95 7.8 -6.85 7.8 -6.9 7.95 -7.75"/></g><g id="c92"><path fill="#85fffe" fill-opacity="0.8" d="M-0.1 -3.15 Q1.65 -2.9 3.05 -2.25 4.75 -0.85 4.7 0.85 3.8 2.1 1.3 2.85 L0.65 2.9 -2.2 2.75 Q-4.0 1.85 -5.0 0.3 L-4.75 -0.8 Q-4.8 -1.85 -3.7 -2.7 L-0.1 -3.15"/><path fill="#ffffff" fill-opacity="0.698039215686" d="M3.85 -0.35 L3.35 -0.85 Q3.15 -1.1 3.3 -1.3 L3.7 -1.45 4.35 -1.3 4.85 -0.75 4.9 -0.3 4.45 -0.1 Q4.1 -0.15 3.85 -0.35"/><path fill="#ffffff" fill-opacity="0.698039215686" d="M-4.9 -1.15 L-4.65 -1.7 Q-4.4 -2.0 -4.1 -1.95 L-3.5 -1.75 Q-3.2 -1.6 -3.2 -1.25 -3.2 -0.9 -3.45 -0.65 -3.7 -0.4 -4.05 -0.4 L-4.65 -0.65 -4.9 -1.15"/><path fill="#006674" fill-opacity="0.349019607843" d="M3.9 1.8 Q3.5 2.5 2.25 2.95 0.45 3.4 -1.1 2.65 -1.55 2.45 -1.7 1.85 L0.6 2.05 1.85 1.35 2.55 1.15 Q4.05 1.0 3.9 1.8"/></g><g id="c93"><path fill="#45a8a7" fill-opacity="0.8" d="M-0.1 -0.9 L-0.05 -0.75 0.45 -0.1 0.05 0.85 -0.45 0.4 Q0.4 0.35 -0.4 -0.9 L-0.1 -0.9"/><path fill="none" stroke="#000000" stroke-width="0.5" stroke-opacity="0.298039215686" d="M0.05 0.85 L0.45 -0.1 -0.05 -0.75 -0.1 -0.9"/></g><g id="c94"><g><use transform="matrix(1.00466918945,0.0,0.0,1.00466918945,0.85,1.2)" xlink:href="#c43"/></g><g><use transform="matrix(1.00463867188,0.0,0.0,1.00463867188,-0.6,-21.4)" xlink:href="#c11"/></g><g><use transform="matrix(1.14846801758,0.0,0.0,1.14846801758,-2.65,-55.75)" xlink:href="#c44"/></g><g><use transform="matrix(1.14846801758,0.0,0.0,1.14846801758,9.2,-64.7)" xlink:href="#c45"/></g><g><use transform="matrix(1.14849853516,0.0,0.0,1.14849853516,23.7,-51.45)" xlink:href="#c46"/></g><g><use transform="matrix(1.14849853516,0.0,0.0,1.14849853516,21.75,-52.9)" xlink:href="#c47"/></g><g><use transform="matrix(1.14849853516,0.0,0.0,1.14849853516,20.65,-47.65)" xlink:href="#c48"/></g><g><use transform="matrix(1.14849853516,0.0,0.0,1.14849853516,23.65,-49.75)" xlink:href="#c49"/></g><g><use transform="matrix(1.14849853516,0.0,0.0,1.14849853516,22.45,-48.85)" xlink:href="#c50"/></g><g><use transform="matrix(1.14849853516,0.0,0.0,1.14849853516,19.15,-49.75)" xlink:href="#c51"/></g><g><use transform="matrix(1.14849853516,0.0,0.0,1.14849853516,19.35,-48.1)" xlink:href="#c52"/></g><g><use transform="matrix(1.00463867188,0.0,0.0,1.00463867188,12.85,-45.45)" xlink:href="#c53"/></g><g><use transform="matrix(1.00463867188,0.0,0.0,1.00463867188,5.1,-51.5)" xlink:href="#c54"/></g><g><use transform="matrix(1.00463867188,0.0,0.0,1.00463867188,2.65,-57.9)" xlink:href="#c55"/></g><g><use transform="matrix(1.14849853516,0.0,0.0,1.14849853516,10.2,-2.8)" xlink:href="#c56"/></g><g><use transform="matrix(1.14849853516,0.0,0.0,1.14849853516,0.65,-21.65)" xlink:href="#c57"/></g><g><use transform="matrix(1.14849853516,0.0,0.0,1.14849853516,-10.05,-2.8)" xlink:href="#c58"/></g><g><use transform="matrix(1.14849853516,0.0,0.0,1.14849853516,-0.45,3.2)" xlink:href="#c59"/></g><g><use transform="matrix(1.14849853516,0.0,0.0,1.14849853516,-9.25,1.05)" xlink:href="#c60"/></g><g><use transform="matrix(1.14849853516,0.0,0.0,1.14849853516,8.55,1.25)" xlink:href="#c61"/></g><g><use transform="matrix(1.00463867188,0.0,0.0,1.00463867188,2.7,-44.7)" xlink:href="#c62"/></g><g><use transform="matrix(1.14846801758,0.0,0.0,1.14846801758,0.15,-52.5)" xlink:href="#c63"/></g><g><use transform="matrix(1.14846801758,0.0,0.0,1.14846801758,5.95,-53.45)" xlink:href="#c64"/></g><g><use transform="matrix(1.14846801758,0.0,0.0,1.14846801758,0.85,-51.3)" xlink:href="#c65"/></g><g><use transform="matrix(1.14846801758,0.0,0.0,1.14846801758,3.5,-53.65)" xlink:href="#c66"/></g><g><use transform="matrix(1.00463867188,0.0,0.0,1.00463867188,-22.9,-68.5)" xlink:href="#c67"/></g><g><use transform="matrix(1.00463867188,0.0,0.0,1.00463867188,-17.85,-85.65)" xlink:href="#c68"/></g><g><use transform="matrix(1.00463867188,0.0,0.0,1.00463867188,13.8,9.55)" xlink:href="#c69"/></g><g><use transform="matrix(1.00463867188,0.0,0.0,1.00463867188,-12.5,-38.8)" xlink:href="#c70"/></g><g><use transform="matrix(1.14849853516,0.0,0.0,1.14849853516,-21.45,-30.75)" xlink:href="#c71"/></g><g><use transform="matrix(1.14849853516,0.0,0.0,1.14849853516,-17.5,-27.85)" xlink:href="#c72"/></g><g><use transform="matrix(1.14849853516,0.0,0.0,1.14849853516,-17.3,-31.6)" xlink:href="#c73"/></g><g><use transform="matrix(1.14849853516,0.0,0.0,1.14849853516,-19.6,-33.85)" xlink:href="#c74"/></g><g><use transform="matrix(1.14849853516,0.0,0.0,1.14849853516,-20.45,-28.3)" xlink:href="#c75"/></g><g><use transform="matrix(1.00463867188,0.0,0.0,1.00463867188,-6.65,-53.65)" xlink:href="#c76"/></g><g><use transform="matrix(1.00463867188,0.0,0.0,1.00463867188,-7.9,-46.85)" xlink:href="#c77"/></g><g><use transform="matrix(1.00463867188,0.0,0.0,1.00463867188,-6.7,-12.15)" xlink:href="#c3"/></g><g><use transform="matrix(1.00463867188,0.0,0.0,1.00463867188,-6.7,-12.15)" xlink:href="#c4"/></g><g><use transform="matrix(1.00463867188,0.0,0.0,1.00463867188,-6.7,-12.15)" xlink:href="#c5"/></g><g><use transform="matrix(1.00463867188,0.0,0.0,1.00463867188,-6.7,-12.15)" xlink:href="#c6"/></g><g><use transform="matrix(1.00463867188,0.0,0.0,1.00463867188,-6.7,-12.15)" xlink:href="#c7"/></g><g><use transform="matrix(1.00463867188,0.0,0.0,1.00463867188,-6.7,-12.15)" xlink:href="#c8"/></g><g><use transform="matrix(1.00463867188,0.0,0.0,1.00463867188,-6.7,-12.15)" xlink:href="#c9"/></g><g><use transform="matrix(1.00463867188,0.0,0.0,1.00463867188,-1.25,-61.0)" xlink:href="#c78"/></g><g><use transform="matrix(1.14849853516,0.0,0.0,1.14849853516,-11.05,-79.85)" xlink:href="#c79"/></g><g><use transform="matrix(1.14849853516,0.0,0.0,1.14849853516,-5.25,-84.35)" xlink:href="#c80"/></g><g><use transform="matrix(1.14849853516,0.0,0.0,1.14849853516,2.75,-82.8)" xlink:href="#c81"/></g><g><use transform="matrix(1.14849853516,0.0,0.0,1.14849853516,-1.55,-70.4)" xlink:href="#c82"/></g><g><use transform="matrix(1.14849853516,0.0,0.0,1.14849853516,3.3,-63.15)" xlink:href="#c83"/></g><g><use transform="matrix(1.14849853516,0.0,0.0,1.14849853516,5.65,-67.05)" xlink:href="#c84"/></g><g><use transform="matrix(1.14849853516,0.0,0.0,1.14849853516,5.3,-69.5)" xlink:href="#c28"/></g><g><use transform="matrix(1.14849853516,0.0,0.0,1.14849853516,4.85,-68.85)" xlink:href="#c30"/></g><g><use transform="matrix(1.14849853516,0.0,0.0,1.14849853516,4.5,-68.6)" xlink:href="#c32"/></g><g><use transform="matrix(1.14849853516,0.0,0.0,1.14849853516,-2.3,-64.15)" xlink:href="#c85"/></g><g><use transform="matrix(1.14849853516,0.0,0.0,1.14849853516,-1.25,-66.95)" xlink:href="#c22"/></g><g><use transform="matrix(1.14849853516,0.0,0.0,1.14849853516,-1.15,-66.65)" xlink:href="#c24"/></g><g><use transform="matrix(1.14849853516,0.0,0.0,1.14849853516,-1.1,-66.65)" xlink:href="#c26"/></g><g><use transform="matrix(1.14849853516,0.0,0.0,1.14849853516,-2.25,-75.95)" xlink:href="#c86"/></g><g><use transform="matrix(1.14849853516,0.0,0.0,1.14849853516,0.4,-76.95)" xlink:href="#c87"/></g><g><use transform="matrix(1.14849853516,0.0,0.0,1.14849853516,4.75,-74.85)" xlink:href="#c88"/></g><g><use transform="matrix(1.14849853516,0.0,0.0,1.14849853516,-2.25,-72.85)" xlink:href="#c89"/></g><g><use transform="matrix(1.14849853516,0.0,0.0,1.14849853516,1.8,-72.85)" xlink:href="#c90"/></g><g><use transform="matrix(1.14849853516,0.0,0.0,1.14849853516,-18.0,-56.4)" xlink:href="#c91"/></g><g><use transform="matrix(1.14849853516,0.0,0.0,1.14849853516,-0.6,-77.1)" xlink:href="#c92"/></g><g><use transform="matrix(1.14849853516,0.0,0.0,1.14849853516,3.45,-65.4)" xlink:href="#c93"/></g><g><use transform="matrix(1.00463867188,0.0,0.0,1.00463867188,25.45,-41.5)" xlink:href="#c13"/></g><g><use transform="matrix(1.00463867188,0.0,0.0,1.00463867188,25.45,-41.5)" xlink:href="#c14"/></g><g><use transform="matrix(1.00463867188,0.0,0.0,1.00463867188,25.45,-41.5)" xlink:href="#c15"/></g><g><use transform="matrix(1.00463867188,0.0,0.0,1.00463867188,25.45,-41.5)" xlink:href="#c16"/></g><g><use transform="matrix(1.00463867188,0.0,0.0,1.00463867188,25.45,-41.5)" xlink:href="#c17"/></g><g><use transform="matrix(1.00463867188,0.0,0.0,1.00463867188,25.45,-41.5)" xlink:href="#c18"/></g><g><use transform="matrix(1.00463867188,0.0,0.0,1.00463867188,25.45,-41.5)" xlink:href="#c19"/></g><g><use transform="matrix(1.00463867188,0.0,0.0,1.00463867188,25.45,-41.5)" xlink:href="#c20"/></g><g><use transform="matrix(1.00463867188,0.0,0.0,1.00463867188,11.75,-15.3)" xlink:href="#c1"/></g></g><g id="c95"><g><use transform="matrix(1.0,0.0,0.0,1.0,6.3,53.35)" xlink:href="#c42"/></g><g><use transform="matrix(0.206802368164,-0.0391845703125,0.0391845703125,0.206802368164,28.6,83.8)" xlink:href="#c94"/></g><g><use transform="matrix(0.141098022461,-0.0378112792969,0.111373901367,0.225646972656,27.2,74.05)" filter="url(#filter108)" xlink:href="#c39"/></g></g><filter id="filter108"><feColorMatrix in="SourceGraphic" type="matrix" values="1.0 0.0 0.0 0.0 0.0 0.0 1.0 0.0 0.0 0.0 0.0 0.0 1.0 0.0 0.0 0.0 0.0 0.0 0.23046875 0.0" result="cxform"/><feComposite operator="in" in2="SourceGraphic" result="color-xform"/></filter></defs><g><g><use transform="matrix(1.0,0.0,0.0,1.0,0.0,0.0)" xlink:href="#c34"/></g><g><use transform="matrix(1.15496826172,0.0,0.0,1.15496826172,-1.4,-57.4)" xlink:href="#c95"/></g></g></svg>