<?xml version='1.0' encoding='UTF-8'?>
<svg xmlns:xlink="http://www.w3.org/1999/xlink" xmlns="http://www.w3.org/2000/svg" version="1.1" width="60px" height="60px" viewBox="0.0 0.0 60.0 60.0"><defs><g id="c1"><path fill="#000000" fill-opacity="0.00392156862745" d="M0.0 0.0 L60.0 0.0 60.0 60.0 0.0 60.0 0.0 0.0"/></g><g id="c2"><path fill="#006699" stroke="none" d="M31.5 39.85 L19.8 43.65 Q17.15 44.45 15.5 43.3 14.35 42.55 13.65 40.9 L1.7 14.45 1.6 14.3 1.2 13.45 -0.75 9.05 Q-2.05 6.2 -0.3 4.75 0.3 4.25 1.2 3.9 L5.5 2.25 Q8.95 0.95 10.65 4.15 L22.3 0.4 Q26.55 -1.0 28.45 3.1 L40.55 29.95 40.9 30.7 42.95 35.15 Q43.95 37.35 43.15 38.7 42.5 39.7 40.95 40.25 L36.65 41.8 35.1 42.2 Q32.75 42.3 31.5 39.85"/><path fill="none" stroke="#000000" stroke-width="1.0" stroke-opacity="0.298039215686" d="M31.5 39.85 L19.8 43.65 Q17.15 44.45 15.5 43.3 14.35 42.55 13.65 40.9 L1.7 14.45 1.6 14.3 1.2 13.45 -0.75 9.05 Q-2.05 6.2 -0.3 4.75 0.3 4.25 1.2 3.9 L5.5 2.25 Q8.95 0.95 10.65 4.15 L22.3 0.4 Q26.55 -1.0 28.45 3.1 L40.55 29.95 40.9 30.7 42.95 35.15 Q43.95 37.35 43.15 38.7 42.5 39.7 40.95 40.25 L36.65 41.8 35.1 42.2 Q32.75 42.3 31.5 39.85"/><path fill="#300525" stroke="none" d="M0.75 8.25 L29.8 9.75 25.55 0.9 Q26.9 1.6 27.8 3.55 L40.7 32.15 Q42.6 36.3 38.3 37.65 L23.3 42.5 13.15 21.4 4.6 20.9 0.7 12.25 Q-0.45 9.75 0.75 8.25 M20.1 43.55 L19.8 43.65 Q17.15 44.45 15.5 43.3 L20.1 43.55"/><path fill="#630a4c" stroke="none" d="M25.55 0.9 L29.8 9.75 0.75 8.25 Q1.45 7.3 3.1 6.75 L21.65 0.8 25.55 0.9 M4.6 20.9 L13.15 21.4 23.3 42.5 20.1 43.55 15.5 43.3 Q14.35 42.55 13.65 40.9 L4.6 20.9"/><path fill="none" stroke="#000000" stroke-width="0.5" stroke-opacity="0.301960784314" d="M0.75 8.25 Q-0.45 9.75 0.7 12.25 L4.6 20.9 M23.3 42.5 L38.3 37.65 Q42.6 36.3 40.7 32.15 L27.8 3.55 Q26.9 1.6 25.55 0.9 L21.65 0.8 3.1 6.75 Q1.45 7.3 0.75 8.25 M20.1 43.55 L19.8 43.65 Q17.15 44.45 15.5 43.3 14.35 42.55 13.65 40.9 L4.6 20.9 M20.1 43.55 L23.3 42.5"/><path fill="#9d147b" stroke="none" d="M14.2 40.5 L1.35 11.8 Q-0.5 7.75 3.8 6.35 L22.3 0.4 Q26.55 -1.0 28.45 3.1 L41.35 31.7 Q43.25 35.85 38.9 37.25 L20.4 43.2 Q16.1 44.55 14.2 40.5"/><path fill="none" stroke="#000000" stroke-width="0.5" stroke-opacity="0.301960784314" d="M14.2 40.5 L1.35 11.8 Q-0.5 7.75 3.8 6.35 L22.3 0.4 Q26.55 -1.0 28.45 3.1 L41.35 31.7 Q43.25 35.85 38.9 37.25 L20.4 43.2 Q16.1 44.55 14.2 40.5"/><path fill="#9d147b" stroke="none" d="M31.4 39.65 L31.3 39.45 31.25 39.4 29.25 34.95 Q27.55 31.2 31.25 29.85 L35.6 28.25 Q38.8 27.1 40.5 29.85 L40.9 30.7 42.95 35.15 Q43.95 37.35 43.15 38.7 42.5 39.45 41.2 39.9 L36.9 41.45 34.85 41.85 Q32.9 41.7 31.75 39.5 L31.4 39.65"/><path fill="#630a4c" stroke="none" d="M43.15 38.7 Q42.5 39.7 40.95 40.25 L36.65 41.8 35.1 42.2 Q32.75 42.3 31.45 39.8 L31.4 39.65 31.75 39.5 Q32.9 41.7 34.85 41.85 L36.9 41.45 41.2 39.9 Q42.5 39.45 43.15 38.7"/><path fill="none" stroke="#003333" stroke-width="0.5" stroke-opacity="0.509803921569" d="M43.15 38.7 Q42.5 39.7 40.95 40.25 L36.65 41.8 35.1 42.2 Q32.75 42.3 31.45 39.8 L31.4 39.65 30.3 40.0 31.4 39.65 M40.5 29.85 L40.9 30.7 42.95 35.15 Q43.95 37.35 43.15 38.7 42.5 39.45 41.2 39.9 L36.9 41.45 34.85 41.85 Q32.9 41.7 31.75 39.5 L31.4 39.65"/><path fill="#9d147b" stroke="none" d="M10.65 4.2 L10.85 4.6 12.85 9.05 Q14.5 12.8 10.8 14.15 L6.5 15.8 Q4.5 16.6 3.1 15.8 L1.75 12.85 -0.2 8.45 Q-1.25 6.15 -0.3 4.75 0.3 4.25 1.2 3.9 L5.5 2.25 Q9.0 0.95 10.65 4.2"/><path fill="#300525" stroke="none" d="M-0.3 4.75 Q-1.25 6.15 -0.2 8.45 L1.75 12.85 3.1 15.8 Q2.25 15.35 1.6 14.3 L1.2 13.45 -0.75 9.05 Q-2.05 6.2 -0.3 4.75"/><path fill="none" stroke="#003333" stroke-width="0.5" stroke-opacity="0.509803921569" d="M3.1 15.8 L6.45 23.15 M-0.3 4.75 Q0.3 4.25 1.2 3.9 L5.5 2.25 Q9.0 0.95 10.65 4.2 M3.1 15.8 L1.75 12.85 -0.2 8.45 Q-1.25 6.15 -0.3 4.75 -2.05 6.2 -0.75 9.05 L1.2 13.45 1.6 14.3"/><path fill="#fcf2cf" stroke="none" d="M9.15 13.6 Q9.8 12.8 9.55 11.6 L9.1 10.55 22.05 6.35 Q24.9 5.45 26.25 7.85 L26.5 8.3 35.8 29.0 35.95 29.35 Q34.75 29.3 34.1 30.1 33.45 30.9 33.7 32.1 L34.0 32.9 20.65 37.2 Q18.8 37.8 17.65 37.0 16.8 36.4 16.3 35.2 L6.95 14.6 6.8 14.4 7.1 14.4 Q8.4 14.45 9.15 13.6"/><path fill="#c47fad" stroke="none" d="M9.15 13.6 Q8.4 14.45 7.1 14.4 L6.8 14.4 6.95 14.6 16.3 35.2 Q16.8 36.4 17.65 37.0 18.8 37.8 20.65 37.2 L34.0 32.9 33.7 32.1 Q33.45 30.9 34.1 30.1 34.75 29.3 35.95 29.35 L35.8 29.0 26.5 8.3 26.25 7.85 Q24.9 5.45 22.05 6.35 L9.1 10.55 9.55 11.6 Q9.8 12.8 9.15 13.6 M28.25 6.1 L35.55 22.3 39.35 30.75 Q41.1 34.5 37.2 35.7 L20.45 41.1 Q16.8 42.25 15.2 39.0 L15.0 38.6 8.25 23.65 3.35 12.8 Q1.65 9.1 5.5 7.85 L22.25 2.5 Q26.05 1.25 27.75 4.95 L28.25 6.1"/><path fill="none" stroke="#ffcc00" stroke-width="1.0" stroke-opacity="0.749019607843" d="M35.55 22.3 L39.35 30.75 Q41.1 34.5 37.2 35.7 L20.45 41.1 Q16.8 42.25 15.2 39.0 L15.0 38.6 M8.25 23.65 L3.35 12.8 Q1.65 9.1 5.5 7.85 L22.25 2.5 Q26.05 1.25 27.75 4.95 L28.25 6.1"/><path fill="none" stroke="#bf9900" stroke-width="1.0" stroke-opacity="0.749019607843" d="M28.25 6.1 L35.55 22.3 M15.0 38.6 L8.25 23.65"/><path fill="none" stroke="#f0b92b" stroke-width="0.5" d="M9.15 13.6 Q9.8 12.8 9.55 11.6 L9.1 10.55 22.05 6.35 Q24.9 5.45 26.25 7.85 L26.5 8.3 35.8 29.0 35.95 29.35 Q34.75 29.3 34.1 30.1 33.45 30.9 33.7 32.1 L34.0 32.9 20.65 37.2 Q18.8 37.8 17.65 37.0 16.8 36.4 16.3 35.2 L6.95 14.6 6.8 14.4 7.1 14.4 Q8.4 14.45 9.15 13.6"/></g><g id="c3"><path fill="#7fdbfe" stroke="none" d="M10.75 4.9 Q10.75 4.6 10.9 4.35 11.25 3.45 11.95 2.75 13.3 1.5 14.35 2.1 15.4 2.7 14.95 4.45 14.7 5.4 14.1 6.15 L13.75 6.5 Q13.1 7.15 12.35 7.35 L11.4 7.2 Q10.95 6.9 10.75 6.4 10.5 5.75 10.75 4.9 M7.5 5.9 Q7.0 5.85 6.6 5.5 6.05 5.0 5.8 4.15 L5.7 3.6 Q5.55 2.65 5.8 1.7 6.25 0.0 7.5 0.0 L7.6 0.0 Q8.85 0.0 9.3 1.7 9.55 2.65 9.4 3.6 L9.3 4.15 8.5 5.5 7.6 5.9 7.5 5.9 M4.35 4.9 Q4.6 5.75 4.35 6.4 L3.7 7.2 2.75 7.35 Q2.0 7.15 1.35 6.5 L1.0 6.15 Q0.4 5.4 0.15 4.45 -0.3 2.7 0.75 2.1 1.8 1.5 3.15 2.75 3.85 3.45 4.2 4.35 L4.35 4.9 M5.5 13.7 Q4.45 13.9 3.65 12.95 2.75 12.0 3.2 10.25 3.7 8.5 5.25 7.6 6.4 6.9 7.55 7.0 8.75 6.9 9.9 7.6 11.45 8.5 11.95 10.25 12.35 12.0 11.5 12.95 10.7 13.9 9.65 13.7 8.55 13.5 7.55 12.6 6.55 13.5 5.5 13.7"/></g><g id="c4"><g><use transform="matrix(1.0,0.0,0.0,1.0,0.0,0.0)" xlink:href="#c3"/></g></g><radialGradient gradientUnits="userSpaceOnUse" r="819.2" cx="0" cy="0" spreadMethod="pad" gradientTransform="matrix(0.0914459228516,0.0,0.0,0.0914459228516,0.6,3.4)" id="gradient1"><stop offset="0.0" stop-color="#ffffff"/><stop offset="1.0" stop-color="#ffffff" stop-opacity="0.0"/></radialGradient><g id="c5"><path stroke="none" fill="url(#gradient1)" d="M36.65 -54.65 Q60.05 -42.0 69.75 -17.95 80.55 8.9 68.0 34.1 55.45 59.35 26.8 68.2 -1.8 77.05 -29.7 64.3 -57.6 51.6 -68.45 24.75 -79.3 -2.05 -66.75 -27.25 L-66.7 -27.3 Q-54.1 -52.5 -25.5 -61.4 3.1 -70.2 31.0 -57.5 L36.65 -54.65"/></g><g id="c6"><g><use transform="matrix(1.0,0.0,0.0,1.0,0.0,0.0)" xlink:href="#c5"/></g></g><radialGradient gradientUnits="userSpaceOnUse" r="819.2" cx="0" cy="0" spreadMethod="pad" gradientTransform="matrix(0.209197998047,0.0,0.0,0.177108764648,67.15,107.2)" id="gradient2"><stop offset="0.356862745098" stop-color="#ffffff"/><stop offset="0.670588235294" stop-opacity="0.0"/></radialGradient><g id="c7"><path fill="none" stroke-linejoin="round" stroke-linecap="round" stroke="url(#gradient2)" stroke-width="0.5" d="M136.55 165.8 L68.6 106.0 68.4 106.0 118.25 201.5 M68.3 105.8 L68.35 105.8 68.3 105.8 68.3 105.85 68.4 106.0 68.3 106.0 86.55 211.5 M68.3 105.8 L68.3 105.85 68.3 106.0 68.15 105.95 18.25 151.55 M68.3 105.85 L68.25 105.85 68.3 106.0 50.0 193.2 M68.25 105.85 L68.15 105.95 0.05 97.7 M68.3 105.85 L68.25 105.8 68.25 105.85 M68.25 105.8 L68.2 105.7 0.0 45.7 M68.3 105.8 L68.25 105.75 68.25 105.8 M68.25 105.75 L68.2 105.7 18.25 10.05 M68.6 106.0 L68.35 105.8 118.25 60.15 M86.6 18.35 L68.3 105.8 M136.6 114.25 L68.6 106.0 M68.25 105.75 L49.95 0.05"/></g><g id="c8"><g><use transform="matrix(1.0,0.0,0.0,1.0,0.0,0.0)" xlink:href="#c7"/></g></g><g id="c9"><g><use transform="matrix(1.0,0.0,0.0,1.0,0.0,0.0)" xlink:href="#c2"/></g><g><use transform="matrix(0.238861083984,-0.0867004394531,0.10026550293,0.233917236328,34.25,31.15)" xlink:href="#c4"/></g><g><use transform="matrix(0.238861083984,-0.0867004394531,0.10026550293,0.233917236328,4.25,10.3)" xlink:href="#c4"/></g><g><use transform="matrix(0.141098022461,-0.0378112792969,0.111373901367,0.225646972656,20.25,20.65)" filter="url(#filter7)" xlink:href="#c6"/></g><g><use transform="matrix(-0.155029296875,0.0513153076172,0.0841827392578,0.147033691406,22.6,3.15)" filter="url(#filter8)" xlink:href="#c8"/></g></g><filter id="filter7"><feColorMatrix in="SourceGraphic" type="matrix" values="0.0 0.0 0.0 0.0 0.796875 0.0 0.0 0.0 0.0 0.59765625 0.0 0.0 0.0 0.0 0.19921875 0.0 0.0 0.0 1.0 0.0" result="cxform"/><feComposite operator="in" in2="SourceGraphic" result="color-xform"/></filter><filter id="filter8"><feColorMatrix in="SourceGraphic" type="matrix" values="0.0 0.0 0.0 0.0 0.99609375 0.0 0.0 0.0 0.0 0.99609375 0.0 0.0 0.0 0.0 0.99609375 0.0 0.0 0.0 1.0 0.0" result="cxform"/><feComposite operator="in" in2="SourceGraphic" result="color-xform"/></filter><radialGradient gradientUnits="userSpaceOnUse" r="819.2" cx="0" cy="0" spreadMethod="pad" gradientTransform="matrix(0.00689697265625,0.0,0.000473022460938,0.00689697265625,18.0,34.35)" id="gradient3"><stop offset="0.317647058824" stop-color="#b84200"/><stop offset="1.0" stop-color="#eeab11"/></radialGradient><radialGradient gradientUnits="userSpaceOnUse" r="819.2" cx="0" cy="0" spreadMethod="pad" gradientTransform="matrix(0.0042724609375,0.0,0.000289916992188,0.0042724609375,16.2,34.5)" id="gradient4"><stop offset="0.317647058824" stop-color="#b84200"/><stop offset="1.0" stop-color="#eeab11"/></radialGradient><radialGradient gradientUnits="userSpaceOnUse" r="819.2" cx="0" cy="0" spreadMethod="pad" gradientTransform="matrix(0.00689697265625,-0.000595092773438,0.00079345703125,0.00682067871094,22.05,35.0)" id="gradient5"><stop offset="0.317647058824" stop-color="#b84200"/><stop offset="1.0" stop-color="#eeab11"/></radialGradient><radialGradient gradientUnits="userSpaceOnUse" r="819.2" cx="0" cy="0" spreadMethod="pad" gradientTransform="matrix(0.0042724609375,-0.0003662109375,0.000473022460938,0.00422668457031,20.3,35.3)" id="gradient6"><stop offset="0.317647058824" stop-color="#b84200"/><stop offset="1.0" stop-color="#eeab11"/></radialGradient><radialGradient gradientUnits="userSpaceOnUse" r="819.2" cx="0" cy="0" spreadMethod="pad" gradientTransform="matrix(0.00648498535156,0.0,0.0,0.00648498535156,27.75,8.1)" id="gradient7"><stop offset="0.317647058824" stop-color="#b84200"/><stop offset="1.0" stop-color="#eeab11"/></radialGradient><radialGradient gradientUnits="userSpaceOnUse" r="819.2" cx="0" cy="0" spreadMethod="pad" gradientTransform="matrix(0.00634765625,0.0,0.0,0.00634765625,28.55,12.0)" id="gradient8"><stop offset="0.317647058824" stop-color="#b84200"/><stop offset="1.0" stop-color="#eeab11"/></radialGradient><radialGradient gradientUnits="userSpaceOnUse" r="819.2" cx="0" cy="0" spreadMethod="pad" gradientTransform="matrix(0.00677490234375,0.0,0.0,0.00677490234375,26.0,12.0)" id="gradient9"><stop offset="0.317647058824" stop-color="#b84200"/><stop offset="1.0" stop-color="#eeab11"/></radialGradient><g id="c10"><path fill="none" stroke="#000000" stroke-width="1.0" stroke-opacity="0.301960784314" d="M40.75 28.25 L40.6 28.55 40.7 29.25 43.25 30.85 Q46.65 33.35 46.65 36.6 L46.65 36.85 46.65 37.15 46.6 37.4 46.65 37.4 Q46.65 41.85 40.35 44.95 34.1 48.1 25.25 48.1 18.15 48.1 12.75 46.1 L12.65 46.05 11.95 45.8 10.1 44.95 Q3.85 41.85 3.85 37.4 L3.9 37.4 3.9 37.15 3.9 37.1 3.85 36.6 Q3.85 32.3 9.85 29.2 L10.0 28.2 9.95 27.95 Q9.85 27.0 10.25 26.5 L10.6 26.1 10.75 25.6 Q11.85 22.5 14.2 19.75 L14.8 19.15 14.8 19.1 14.9 19.0 Q17.8 15.95 21.35 14.6 L22.2 14.05 Q22.4 13.5 23.3 13.05 23.9 12.75 24.6 12.6 L24.7 11.5 23.95 11.15 Q23.0 10.55 23.0 9.65 23.0 8.8 23.95 8.2 24.75 7.6 26.0 5.05 L26.25 4.4 Q27.55 7.55 28.5 8.2 29.45 8.8 29.45 9.65 L29.45 9.85 29.35 10.15 28.5 11.15 27.65 11.55 27.75 12.2 27.8 12.3 27.8 12.35 27.85 12.6 29.2 13.05 29.7 13.4 30.3 14.15 30.35 14.45 30.35 14.5 30.25 15.1 30.9 15.4 Q33.85 16.95 36.3 19.75 L37.65 21.5 38.3 22.55 38.3 22.6 39.65 25.3 39.75 25.6 40.4 27.7 40.45 27.85 40.75 28.15 40.75 28.25"/><path fill="#e8dba4" stroke="none" d="M34.1 26.85 Q37.15 27.55 39.8 28.8 L40.35 29.05 43.25 30.85 Q46.65 33.35 46.65 36.6 L46.65 36.85 46.65 37.15 46.6 37.4 Q46.1 41.3 40.35 44.15 34.1 47.3 25.25 47.3 18.05 47.3 12.55 45.25 L12.45 45.2 12.55 45.05 15.85 41.45 18.3 41.8 24.95 42.2 Q29.3 42.2 32.8 40.75 36.3 39.3 37.2 38.2 38.35 36.85 38.35 34.35 38.25 32.75 37.45 30.9 L37.4 30.8 Q36.25 28.2 34.1 26.85 M42.25 42.35 Q44.85 40.75 45.6 38.15 46.35 35.45 44.55 33.1 45.1 38.15 39.6 41.5 34.05 44.8 26.15 45.3 L16.75 45.75 19.0 46.2 23.6 46.7 29.3 46.5 34.6 45.7 38.2 44.55 42.25 42.35 M15.1 44.85 L15.05 45.1 15.05 45.2 15.15 44.85 15.1 44.85 M15.95 45.8 L15.7 45.9 15.85 45.9 15.95 45.8"/><path fill="#fff5cf" stroke="none" d="M42.25 42.35 L38.2 44.55 34.6 45.7 29.3 46.5 23.6 46.7 19.0 46.2 16.75 45.75 26.15 45.3 Q34.05 44.8 39.6 41.5 45.1 38.15 44.55 33.1 46.35 35.45 45.6 38.15 44.85 40.75 42.25 42.35 M15.1 44.85 L15.15 44.85 15.05 45.2 15.05 45.1 15.1 44.85 M15.95 45.8 L15.85 45.9 15.7 45.9 15.95 45.8"/><path fill="#d4c796" stroke="none" d="M46.6 37.4 L46.65 37.4 Q46.65 41.85 40.35 44.95 34.1 48.1 25.25 48.1 18.15 48.1 12.75 46.1 L12.65 46.05 12.65 45.95 12.55 45.25 Q18.05 47.3 25.25 47.3 34.1 47.3 40.35 44.15 46.1 41.3 46.6 37.4"/><path fill="#bfad6c" stroke="none" d="M3.9 37.4 L3.9 37.15 3.9 37.1 3.85 36.6 Q3.85 32.2 10.1 29.05 L10.75 28.75 Q16.85 25.9 25.25 25.9 L32.3 26.45 34.1 26.85 Q36.25 28.2 37.4 30.8 L37.45 30.9 Q38.25 32.75 38.35 34.35 38.35 36.85 37.2 38.2 36.3 39.3 32.8 40.75 29.3 42.2 24.95 42.2 L18.3 41.8 15.85 41.45 12.55 45.05 12.45 45.2 10.1 44.15 Q4.4 41.3 3.9 37.4"/><path fill="#ab9759" stroke="none" d="M12.65 46.05 L11.95 45.8 10.1 44.95 Q3.85 41.85 3.85 37.4 L3.9 37.4 Q4.4 41.3 10.1 44.15 L12.45 45.2 12.55 45.25 12.65 45.95 12.65 46.05"/><path fill="none" stroke="#000000" stroke-width="0.5" stroke-opacity="0.301960784314" d="M46.6 37.4 L46.65 37.4 Q46.65 41.85 40.35 44.95 34.1 48.1 25.25 48.1 18.15 48.1 12.75 46.1 L12.65 46.05 11.95 45.8 10.1 44.95 Q3.85 41.85 3.85 37.4 L3.9 37.4 3.9 37.15 3.9 37.1 3.85 36.6 Q3.85 32.2 10.1 29.05 L10.75 28.75 Q16.85 25.9 25.25 25.9 L32.3 26.45 34.1 26.85 Q37.15 27.55 39.8 28.8 L40.35 29.05 43.25 30.85 Q46.65 33.35 46.65 36.6 L46.65 36.85 46.65 37.15 46.6 37.4"/><path fill="#ad9056" stroke="none" d="M40.6 28.55 L40.7 29.35 40.85 31.3 40.85 33.3 40.85 33.5 40.85 33.9 40.7 34.7 Q40.2 36.35 38.35 37.75 L38.0 35.1 37.65 32.7 38.25 32.2 Q39.85 30.7 40.3 28.4 L40.6 28.55 M35.3 39.45 L32.9 40.3 32.85 40.3 30.7 40.85 29.7 41.0 28.2 41.2 26.7 41.3 25.25 41.3 25.1 41.3 23.6 41.25 23.3 41.25 21.55 41.1 20.55 40.95 20.35 40.9 19.7 40.8 19.5 40.75 18.05 40.45 16.55 40.0 16.35 39.9 15.5 39.6 15.3 39.5 14.2 39.0 13.8 38.8 13.7 38.75 12.6 38.1 11.9 37.55 11.0 36.75 10.6 36.25 Q10.1 35.55 9.9 34.85 L9.8 34.4 9.7 33.9 9.65 33.55 9.65 33.5 9.65 33.3 9.65 32.1 10.7 32.65 10.95 32.75 11.8 33.15 12.3 33.35 12.9 33.6 13.1 33.7 13.95 34.0 14.5 34.15 14.7 34.2 14.95 34.25 15.5 34.4 16.95 34.65 17.15 34.65 18.55 34.8 19.25 34.8 19.35 34.85 19.35 34.8 19.5 34.8 20.15 34.8 20.8 34.8 20.95 34.8 22.35 34.55 22.4 34.55 24.15 33.95 24.25 33.9 24.45 33.95 24.55 34.0 26.5 34.4 27.0 34.45 28.95 34.6 29.8 34.6 30.5 34.6 31.8 34.55 33.45 34.3 33.8 34.25 34.65 34.1 34.8 35.3 34.85 35.8 34.95 36.7 35.3 39.45"/><path fill="#a17749" stroke="none" d="M40.45 27.85 L40.75 28.15 40.75 28.25 40.6 28.55 40.3 28.4 39.65 28.0 Q38.5 27.2 37.2 25.55 L36.3 24.45 35.9 23.9 Q35.7 23.4 36.05 23.5 L36.7 24.25 37.2 24.85 Q38.55 26.6 39.75 27.4 L40.4 27.8 40.45 27.85 M30.7 26.15 L30.5 26.75 30.4 27.05 30.3 27.35 29.7 28.75 29.45 29.15 28.55 30.45 27.65 31.45 26.7 32.35 26.45 32.5 25.5 33.2 25.05 33.45 Q24.9 33.55 24.8 33.6 L24.25 33.9 24.15 33.95 22.4 34.55 22.35 34.55 Q21.55 34.4 22.05 33.75 L22.2 33.7 22.9 33.5 23.05 33.45 23.15 33.45 25.6 32.05 26.05 31.7 26.1 31.7 27.8 30.1 28.85 28.75 29.55 27.6 29.7 27.2 29.95 26.55 30.0 26.45 30.1 26.1 Q30.5 25.5 30.7 26.15"/><path fill="#bfad6c" stroke="none" d="M37.9 39.8 L35.3 39.45 34.95 36.7 34.85 35.8 34.8 35.3 34.65 34.1 34.6 33.9 34.55 33.4 34.45 32.9 34.3 32.3 33.8 30.05 33.75 29.95 33.4 28.55 33.15 27.65 32.75 26.45 32.7 26.25 32.15 24.75 31.65 23.5 31.25 22.65 31.25 22.7 30.9 21.85 29.85 19.95 Q27.45 16.05 25.05 14.7 L24.5 14.45 23.2 14.0 21.35 14.6 Q22.15 13.8 25.1 13.0 L27.55 14.45 Q29.7 15.9 31.35 18.65 L33.55 22.45 33.8 23.0 34.2 23.95 35.35 26.9 35.75 28.2 36.2 29.75 36.9 32.75 37.0 33.1 37.15 33.9 37.55 37.15 37.9 39.8 M10.6 26.1 L10.75 25.6 Q11.85 22.5 14.2 19.75 L14.8 19.15 14.85 19.15 Q13.95 21.1 13.95 23.15 13.95 28.15 19.1 31.5 L19.75 31.9 Q20.95 32.6 22.25 33.15 L22.9 33.4 22.9 33.5 22.2 33.7 22.05 33.75 21.7 33.85 20.65 34.0 19.8 34.0 19.35 34.0 18.35 33.95 18.3 33.95 17.95 33.95 15.4 33.65 14.6 33.45 13.6 33.2 13.55 33.15 13.2 32.8 12.55 32.1 11.45 30.4 11.4 30.3 Q10.55 28.6 10.55 26.85 L10.6 26.1"/><path fill="#e8dba4" stroke="none" d="M14.8 19.15 L14.8 19.1 14.9 19.0 Q17.8 15.95 21.35 14.6 L23.2 14.0 24.5 14.45 25.05 14.7 Q27.45 16.05 29.85 19.95 L30.9 21.85 30.7 23.85 30.45 25.0 30.1 26.1 30.0 26.45 29.95 26.55 29.7 27.2 29.55 27.6 28.85 28.75 27.8 30.1 26.1 31.7 26.05 31.7 25.6 32.05 23.15 33.45 23.05 33.45 22.9 33.4 22.25 33.15 Q20.95 32.6 19.75 31.9 L19.1 31.5 Q13.95 28.15 13.95 23.15 13.95 21.1 14.85 19.15 L14.8 19.15 M29.3 14.65 L30.9 15.4 Q33.85 16.95 36.3 19.75 L37.65 21.5 38.3 22.55 38.3 22.6 39.65 25.3 39.75 25.6 40.4 27.7 40.45 27.85 40.4 27.8 39.75 27.4 Q38.55 26.6 37.2 24.85 L36.7 24.25 36.05 23.5 35.05 22.3 34.55 21.7 34.1 21.25 33.9 20.85 33.85 20.75 32.65 18.7 30.75 16.15 29.3 14.65 M20.35 21.0 L21.75 19.2 21.8 18.6 Q21.05 19.15 19.45 21.05 17.85 22.95 17.85 23.3 L17.9 23.45 18.3 23.7 20.35 21.0 M34.7 22.65 L34.7 22.6 34.75 22.65 34.7 22.65 M16.75 20.75 L17.55 19.25 19.05 17.65 20.5 16.1 Q18.3 17.05 16.85 18.85 15.45 20.55 15.45 22.05 L15.5 22.2 16.75 20.75 M17.6 21.25 L17.75 21.5 21.9 16.5 Q20.7 16.7 19.15 18.5 17.6 20.25 17.6 21.25 M22.75 29.1 L22.55 28.9 21.75 29.45 20.95 30.2 Q21.45 30.5 22.75 29.1 M23.5 29.5 Q21.95 30.65 21.95 30.9 L22.25 31.2 Q23.4 30.6 24.35 29.65 L25.7 28.15 Q25.1 28.3 23.5 29.5 M28.0 27.5 L27.95 27.35 27.9 27.4 24.55 30.7 23.05 32.0 23.1 32.25 23.4 32.3 Q24.65 32.3 26.4 30.2 28.0 28.25 28.0 27.5"/><path fill="#d4c796" stroke="none" d="M20.35 21.0 L18.3 23.7 17.9 23.45 17.85 23.3 Q17.85 22.95 19.45 21.05 21.05 19.15 21.8 18.6 L21.75 19.2 20.35 21.0 M22.9 33.4 L23.05 33.45 22.9 33.5 22.9 33.4 M17.6 21.25 Q17.6 20.25 19.15 18.5 20.7 16.7 21.9 16.5 L17.75 21.5 17.6 21.25 M16.75 20.75 L15.5 22.2 15.45 22.05 Q15.45 20.55 16.85 18.85 18.3 17.05 20.5 16.1 L19.05 17.65 17.55 19.25 16.75 20.75 M28.0 27.5 Q28.0 28.25 26.4 30.2 24.65 32.3 23.4 32.3 L23.1 32.25 23.05 32.0 24.55 30.7 27.9 27.4 27.95 27.35 28.0 27.5 M23.5 29.5 Q25.1 28.3 25.7 28.15 L24.35 29.65 Q23.4 30.6 22.25 31.2 L21.95 30.9 Q21.95 30.65 23.5 29.5 M22.75 29.1 Q21.45 30.5 20.95 30.2 L21.75 29.45 22.55 28.9 22.75 29.1"/><path fill="#fff5cf" stroke="none" d="M38.35 37.75 L37.9 39.8 37.55 37.15 37.15 33.9 37.0 33.1 36.9 32.75 36.2 29.75 35.75 28.2 35.35 26.9 34.2 23.95 33.8 23.0 33.55 22.45 31.35 18.65 Q29.7 15.9 27.55 14.45 L25.1 13.0 Q28.5 14.0 29.3 14.65 L30.75 16.15 32.65 18.7 33.85 20.75 33.9 20.85 34.1 21.25 34.7 22.55 34.7 22.6 34.7 22.65 34.8 22.8 36.1 26.25 36.7 28.4 37.55 31.9 37.6 32.2 37.65 32.7 38.0 35.1 38.35 37.75"/><path fill="#d6b46f" stroke="none" d="M35.9 23.9 L36.3 24.45 37.2 25.55 Q38.5 27.2 39.65 28.0 L40.3 28.4 Q39.85 30.7 38.25 32.2 L37.65 32.7 37.6 32.2 37.55 31.9 36.7 28.4 36.1 26.25 34.8 22.8 34.7 22.65 34.75 22.65 35.9 23.9 M31.25 22.7 L31.25 22.65 31.65 23.5 32.15 24.75 32.7 26.25 32.75 26.45 33.15 27.65 33.4 28.55 33.75 29.95 33.8 30.05 34.3 32.3 34.45 32.9 34.55 33.4 34.6 33.9 34.65 34.1 33.8 34.25 33.45 34.3 31.8 34.55 30.5 34.6 29.8 34.6 28.95 34.6 27.0 34.45 26.5 34.4 24.55 34.0 24.45 33.95 24.25 33.9 24.8 33.6 Q24.9 33.55 25.05 33.45 L25.5 33.2 26.45 32.5 26.7 32.35 27.65 31.45 28.55 30.45 29.45 29.15 29.7 28.75 30.3 27.35 30.4 27.05 30.5 26.75 30.7 26.15 30.95 25.25 31.15 24.15 31.25 22.7"/><path fill="#80572a" stroke="none" d="M9.65 32.1 L9.4 31.85 Q9.2 31.55 9.65 31.35 L9.75 31.4 10.65 31.95 11.75 32.45 12.2 32.65 13.55 33.15 13.6 33.2 14.6 33.45 15.4 33.65 17.95 33.95 18.3 33.95 18.35 33.95 19.35 34.0 19.8 34.0 20.65 34.0 21.7 33.85 22.05 33.75 Q21.55 34.4 22.35 34.55 L20.95 34.8 20.8 34.8 20.15 34.8 19.5 34.8 19.35 34.8 19.35 34.85 19.25 34.8 18.55 34.8 17.15 34.65 16.95 34.65 15.5 34.4 14.95 34.25 14.7 34.2 14.5 34.15 13.95 34.0 13.1 33.7 12.9 33.6 12.3 33.35 11.8 33.15 10.95 32.75 10.7 32.65 9.65 32.1 M36.05 23.5 Q35.7 23.4 35.9 23.9 L34.75 22.65 34.7 22.5 34.7 22.55 34.1 21.25 34.55 21.7 35.05 22.3 36.05 23.5 M30.9 21.85 L31.25 22.7 31.15 24.15 30.95 25.25 30.7 26.15 Q30.5 25.5 30.1 26.1 L30.45 25.0 30.7 23.85 30.9 21.85"/><path fill="#472d0f" stroke="none" d="M10.0 28.2 L9.95 27.95 Q9.85 27.0 10.25 26.5 L10.6 26.1 10.55 26.85 Q10.55 28.6 11.4 30.3 L11.45 30.4 12.55 32.1 13.2 32.8 13.55 33.15 12.2 32.65 11.95 32.35 Q11.25 31.55 10.8 30.6 10.2 29.4 10.0 28.2"/><path fill="#a18243" stroke="none" d="M9.65 31.35 L9.65 31.3 Q9.7 29.7 10.0 28.2 10.2 29.4 10.8 30.6 11.25 31.55 11.95 32.35 L12.2 32.65 11.75 32.45 10.65 31.95 9.75 31.4 9.65 31.35"/><path fill="none" stroke="#000000" stroke-width="0.5" stroke-opacity="0.301960784314" d="M40.45 27.85 L40.75 28.15 40.75 28.25 40.6 28.55 40.7 29.35 40.85 31.3 40.85 33.3 40.85 33.5 40.85 33.9 40.7 34.7 M15.3 39.5 L14.2 39.0 13.8 38.8 13.7 38.75 12.6 38.1 11.9 37.55 11.0 36.75 10.6 36.25 Q10.1 35.55 9.9 34.85 L9.8 34.4 9.7 33.9 9.65 33.55 9.65 33.5 9.65 33.3 9.65 32.1 9.4 31.85 Q9.2 31.55 9.65 31.35 L9.65 31.3 Q9.7 29.7 10.0 28.2 L9.95 27.95 Q9.85 27.0 10.25 26.5 L10.6 26.1 10.75 25.6 Q11.85 22.5 14.2 19.75 L14.8 19.15 14.8 19.1 14.9 19.0 Q17.8 15.95 21.35 14.6 22.15 13.8 25.1 13.0 28.5 14.0 29.3 14.65 L30.9 15.4 Q33.85 16.95 36.3 19.75 L37.65 21.5 38.3 22.55 38.3 22.6 39.65 25.3 39.75 25.6 40.4 27.7 40.45 27.85"/><path fill="none" stroke="#000000" stroke-width="0.5" stroke-opacity="0.152941176471" d="M40.45 27.85 L40.4 27.8 39.75 27.4 Q38.55 26.6 37.2 24.85 L36.7 24.25 36.05 23.5 M30.9 21.85 L29.85 19.95 Q27.45 16.05 25.05 14.7 L24.5 14.45 23.2 14.0 21.35 14.6 M34.1 21.25 L33.9 20.85 33.85 20.75 32.65 18.7 30.75 16.15 29.3 14.65 M31.25 22.7 L31.25 22.65 31.65 23.5 32.15 24.75 32.7 26.25 32.75 26.45 33.15 27.65 33.4 28.55 33.75 29.95 33.8 30.05 34.3 32.3 34.45 32.9 34.55 33.4 34.6 33.9 34.65 34.1 34.8 35.3 34.85 35.8 34.95 36.7 35.3 39.45 M30.9 21.85 L31.25 22.7 M30.1 26.1 L30.45 25.0 30.7 23.85 30.9 21.85 M37.65 32.7 L37.6 32.2 37.55 31.9 36.7 28.4 36.1 26.25 34.8 22.8 34.7 22.65 M34.7 22.55 L34.1 21.25 34.55 21.7 35.05 22.3 36.05 23.5 M23.05 33.45 L23.15 33.45 25.6 32.05 26.05 31.7 26.1 31.7 27.8 30.1 28.85 28.75 29.55 27.6 29.7 27.2 29.95 26.55 30.0 26.45 30.1 26.1 M10.6 26.1 L10.55 26.85 Q10.55 28.6 11.4 30.3 L11.45 30.4 12.55 32.1 13.2 32.8 13.55 33.15 12.2 32.65 11.75 32.45 10.65 31.95 9.75 31.4 9.65 31.35 M13.6 33.2 L14.6 33.45 15.4 33.65 17.95 33.95 18.3 33.95 18.35 33.95 19.35 34.0 19.8 34.0 20.65 34.0 21.7 33.85 22.05 33.75 22.2 33.7 22.9 33.5 M38.35 37.75 L38.0 35.1 37.65 32.7"/><path fill="none" stroke="#6b2405" stroke-width="0.5" stroke-opacity="0.121568627451" d="M13.55 33.15 L13.6 33.2"/><path fill="#eeab11" stroke="none" d="M17.35 36.0 L17.35 35.9 Q17.2 35.45 16.4 35.65 15.5 35.85 15.55 36.6 L15.65 36.85 Q17.35 36.25 17.35 36.0 M15.75 38.7 L15.55 38.4 Q15.2 37.9 15.2 37.35 15.1 36.55 15.6 36.0 16.0 35.4 16.7 35.4 17.15 35.4 17.55 35.7 L17.6 35.75 17.95 36.3 18.1 37.05 Q18.15 37.8 17.75 38.4 17.3 38.95 16.65 38.95 L15.75 38.7"/><path fill="#ffd812" stroke="none" d="M17.35 36.0 Q17.35 36.25 15.65 36.85 L15.55 36.6 Q15.5 35.85 16.4 35.65 17.2 35.45 17.35 35.9 L17.35 36.0 M16.9 35.85 Q16.8 35.65 16.55 35.65 16.2 35.65 16.25 35.95 L16.25 36.05 16.6 36.3 16.95 35.95 16.9 35.85"/><path fill="#ffff99" stroke="none" d="M16.9 35.85 L16.95 35.95 16.6 36.3 16.25 36.05 16.25 35.95 Q16.2 35.65 16.55 35.65 16.8 35.65 16.9 35.85"/><path stroke="none" fill="url(#gradient3)" d="M17.6 35.75 L17.9 36.0 18.3 36.7 18.45 37.35 Q18.5 38.1 18.05 38.7 17.6 39.25 16.95 39.25 16.25 39.25 15.75 38.7 L16.65 38.95 Q17.3 38.95 17.75 38.4 18.15 37.8 18.1 37.05 L17.95 36.3 17.6 35.75"/><path fill="#000000" fill-opacity="0.301960784314" d="M18.3 36.7 L18.65 37.8 Q18.7 38.55 18.3 39.15 17.85 39.7 17.2 39.7 16.5 39.7 16.0 39.15 L15.65 38.7 15.75 38.7 Q16.25 39.25 16.95 39.25 17.6 39.25 18.05 38.7 18.5 38.1 18.45 37.35 L18.3 36.7"/><path fill="none" stroke="#000000" stroke-width="0.5" stroke-opacity="0.301960784314" d="M15.75 38.7 L15.55 38.4 Q15.2 37.9 15.2 37.35 15.1 36.55 15.6 36.0 16.0 35.4 16.7 35.4 17.15 35.4 17.55 35.7 L17.6 35.75 17.9 36.0 18.3 36.7 18.45 37.35 Q18.5 38.1 18.05 38.7 17.6 39.25 16.95 39.25 16.25 39.25 15.75 38.7"/><path stroke="none" fill="url(#gradient4)" d="M16.4 37.95 L16.4 38.0 16.1 37.8 15.9 37.25 Q15.85 36.9 16.05 36.65 16.2 36.4 16.5 36.4 L16.8 36.5 16.8 36.55 Q16.5 36.55 16.3 36.8 16.1 37.05 16.15 37.4 L16.4 37.95"/><path fill="#29241b" stroke="none" d="M16.4 37.95 L16.15 37.4 Q16.1 37.05 16.3 36.8 16.5 36.55 16.8 36.55 L16.95 36.6 17.0 36.65 17.25 37.25 17.05 37.8 16.65 38.05 16.5 38.05 16.4 37.95"/><path fill="#eeab11" stroke="none" d="M20.05 39.55 L19.8 39.25 Q19.45 38.8 19.4 38.25 19.3 37.5 19.75 36.9 20.1 36.25 20.8 36.2 L21.7 36.4 21.75 36.45 22.1 37.0 22.3 37.7 Q22.4 38.45 22.0 39.05 21.6 39.65 20.95 39.7 L20.05 39.55 M21.5 36.65 Q21.3 36.2 20.55 36.45 19.65 36.75 19.75 37.5 L19.85 37.75 21.5 36.75 21.5 36.65"/><path fill="#000000" fill-opacity="0.301960784314" d="M22.45 37.35 L22.9 38.4 Q23.0 39.15 22.6 39.8 22.15 40.35 21.5 40.45 20.8 40.5 20.3 40.0 L19.95 39.55 20.05 39.55 Q20.55 40.05 21.25 40.0 21.9 39.95 22.35 39.35 22.75 38.7 22.65 37.95 L22.45 37.35"/><path fill="#ffd812" stroke="none" d="M21.5 36.65 L21.5 36.75 19.85 37.75 19.75 37.5 Q19.65 36.75 20.55 36.45 21.3 36.2 21.5 36.65 M21.05 36.65 L20.7 36.45 Q20.35 36.5 20.4 36.8 L20.4 36.9 20.75 37.1 21.1 36.75 21.05 36.65"/><path fill="#ffff99" stroke="none" d="M21.05 36.65 L21.1 36.75 20.75 37.1 20.4 36.9 20.4 36.8 Q20.35 36.5 20.7 36.45 L21.05 36.65"/><path stroke="none" fill="url(#gradient5)" d="M20.05 39.55 L20.95 39.7 Q21.6 39.65 22.0 39.05 22.4 38.45 22.3 37.7 L22.1 37.0 21.75 36.45 22.05 36.7 22.45 37.35 22.65 37.95 Q22.75 38.7 22.35 39.35 21.9 39.95 21.25 40.0 20.55 40.05 20.05 39.55"/><path fill="none" stroke="#000000" stroke-width="0.5" stroke-opacity="0.301960784314" d="M21.75 36.45 L21.7 36.4 20.8 36.2 Q20.1 36.25 19.75 36.9 19.3 37.5 19.4 38.25 19.45 38.8 19.8 39.25 L20.05 39.55 Q20.55 40.05 21.25 40.0 21.9 39.95 22.35 39.35 22.75 38.7 22.65 37.95 L22.45 37.35 M21.75 36.45 L22.05 36.7 22.45 37.35"/><path fill="#29241b" stroke="none" d="M20.95 37.35 L21.1 37.35 21.2 37.4 21.45 37.95 21.3 38.5 Q21.15 38.8 20.9 38.8 L20.75 38.8 20.65 38.7 20.35 38.2 Q20.3 37.85 20.5 37.6 20.65 37.35 20.95 37.35"/><path stroke="none" fill="url(#gradient6)" d="M20.65 38.7 L20.65 38.75 20.35 38.6 20.1 38.05 Q20.05 37.7 20.25 37.5 20.4 37.2 20.7 37.2 L21.0 37.25 20.95 37.35 Q20.65 37.35 20.5 37.6 20.3 37.85 20.35 38.2 L20.65 38.7"/><path stroke="none" fill="url(#gradient7)" d="M24.7 11.5 L23.95 11.15 Q23.0 10.55 23.0 9.65 23.0 8.8 23.95 8.2 24.75 7.6 26.0 5.05 L26.25 4.4 Q26.45 6.8 25.9 8.45 25.55 8.6 25.15 9.2 24.7 9.8 25.15 10.25 25.55 10.7 26.8 10.95 L28.55 10.85 29.35 10.15 28.5 11.15 27.65 11.55 26.35 11.7 26.2 11.7 24.7 11.5"/><path fill="#eeab11" stroke="none" d="M26.25 4.4 Q27.55 7.55 28.5 8.2 29.45 8.8 29.45 9.65 L29.45 9.85 29.35 10.15 28.55 10.85 26.8 10.95 Q25.55 10.7 25.15 10.25 24.7 9.8 25.15 9.2 25.55 8.6 25.9 8.45 26.45 6.8 26.25 4.4 M26.8 10.5 L28.8 10.25 Q29.35 9.65 28.95 8.85 28.55 8.05 27.15 8.4 25.7 8.75 25.55 9.5 25.45 10.2 26.8 10.5 M28.2 13.75 L28.2 13.85 28.15 13.95 27.65 14.3 26.2 14.5 25.65 14.5 Q25.55 13.65 25.85 13.05 26.2 12.3 27.05 12.3 L27.65 12.45 28.15 13.3 28.2 13.6 28.2 13.75"/><path fill="#ffd812" stroke="none" d="M29.45 15.35 L28.85 15.35 28.1 15.9 26.8 16.05 Q24.25 16.05 24.25 15.15 24.25 14.3 25.65 14.5 L26.2 14.5 27.65 14.3 28.15 13.95 28.2 13.85 28.2 13.75 Q28.3 13.1 28.6 13.05 L29.6 13.45 Q30.3 14.0 29.95 14.7 L29.45 15.35 M26.8 10.5 Q25.45 10.2 25.55 9.5 25.7 8.75 27.15 8.4 28.55 8.05 28.95 8.85 29.35 9.65 28.8 10.25 L26.8 10.5"/><path stroke="none" fill="url(#gradient8)" d="M27.65 11.55 L27.75 12.2 27.8 12.3 27.8 12.35 27.85 12.6 28.15 13.3 27.65 12.45 27.05 12.3 Q26.2 12.3 25.85 13.05 25.55 13.65 25.65 14.5 L24.8 14.3 Q24.25 14.0 24.25 13.6 L24.25 13.4 24.6 12.6 24.7 11.5 26.2 11.7 26.35 11.7 27.65 11.55"/><path stroke="none" fill="url(#gradient9)" d="M27.85 12.6 L29.2 13.05 29.7 13.4 30.3 14.15 30.35 14.45 30.35 14.5 30.1 15.35 29.45 15.35 29.95 14.7 Q30.3 14.0 29.6 13.45 L28.6 13.05 Q28.3 13.1 28.2 13.75 L28.2 13.6 28.15 13.3 27.85 12.6 M22.15 14.1 Q22.35 13.5 23.3 13.05 23.9 12.75 24.6 12.6 L24.25 13.4 24.25 13.6 Q24.25 14.0 24.8 14.3 L25.65 14.5 Q24.25 14.3 24.25 15.15 24.25 16.05 26.8 16.05 L28.1 15.9 27.3 16.5 27.1 16.55 26.2 16.55 23.3 16.0 Q22.05 15.4 22.05 14.5 L22.15 14.1"/><path fill="#852811" fill-opacity="0.301960784314" d="M28.85 15.35 L28.85 15.4 27.85 17.1 25.25 17.4 22.3 17.0 Q20.75 16.55 20.75 15.55 20.75 14.85 22.15 14.1 L22.05 14.5 Q22.05 15.4 23.3 16.0 L26.2 16.55 27.1 16.55 27.3 16.5 28.1 15.9 28.85 15.35"/><path fill="none" stroke="#000000" stroke-width="0.5" stroke-opacity="0.301960784314" d="M24.7 11.5 L23.95 11.15 Q23.0 10.55 23.0 9.65 23.0 8.8 23.95 8.2 24.75 7.6 26.0 5.05 L26.25 4.4 Q27.55 7.55 28.5 8.2 29.45 8.8 29.45 9.65 L29.45 9.85 29.35 10.15 28.5 11.15 27.65 11.55 27.75 12.2 27.8 12.3 27.8 12.35 27.85 12.6 29.2 13.05 29.7 13.4 30.3 14.15 30.35 14.45 30.35 14.5 30.1 15.35 29.45 15.35 28.85 15.35 M22.15 14.1 Q22.35 13.5 23.3 13.05 23.9 12.75 24.6 12.6 L24.7 11.5 M28.15 13.3 L27.85 12.6 M28.1 15.9 L28.85 15.35 M28.1 15.9 L27.3 16.5 27.1 16.55 26.2 16.55 23.3 16.0 Q22.05 15.4 22.05 14.5 L22.15 14.1 M24.25 13.6 L24.25 13.4 24.6 12.6"/><path fill="#ffff99" stroke="none" d="M26.75 8.6 Q27.05 8.4 27.5 8.35 L28.25 8.4 28.55 8.75 28.35 9.15 27.6 9.4 26.85 9.35 26.55 9.05 Q26.5 8.8 26.75 8.6"/><path fill="#ffff99" stroke="none" d="M28.65 15.25 L28.0 15.5 27.2 15.6 26.85 15.25 27.05 14.85 Q27.3 14.6 27.75 14.5 L28.5 14.5 28.8 14.75 28.65 15.25"/><path fill="#fff5cf" fill-opacity="0.521568627451" d="M25.15 19.25 Q25.85 20.85 25.0 22.75 24.15 24.6 22.25 25.65 20.3 26.75 18.45 26.4 16.65 26.05 15.95 24.45 15.25 22.9 16.05 21.0 16.9 19.15 18.85 18.05 20.75 17.0 22.6 17.35 24.45 17.7 25.15 19.25"/></g><g id="c11"><path fill="#ffffff" stroke="none" d="M46.65 36.6 L46.65 36.85 46.65 37.15 46.6 37.4 46.65 37.4 Q46.65 41.85 40.35 44.95 34.1 48.1 25.25 48.1 18.15 48.1 12.75 46.1 L12.65 46.05 11.95 45.8 10.1 44.95 Q3.85 41.85 3.85 37.4 L3.9 37.4 3.9 37.15 3.9 37.1 3.85 36.6 Q3.85 32.3 9.85 29.2 L10.0 28.2 9.95 27.95 Q9.85 27.0 10.25 26.5 L10.6 26.1 10.75 25.6 Q11.85 22.5 14.2 19.75 L14.8 19.15 14.8 19.1 14.9 19.0 Q17.8 15.95 21.35 14.6 L22.2 14.05 Q22.4 13.5 23.3 13.05 23.9 12.75 24.6 12.6 L24.7 11.5 23.95 11.15 Q23.0 10.55 23.0 9.65 23.0 8.8 23.95 8.2 24.75 7.6 26.0 5.05 L26.25 4.4 Q27.55 7.55 28.5 8.2 29.45 8.8 29.45 9.65 L29.45 9.85 29.35 10.15 28.5 11.15 27.65 11.55 27.75 12.2 27.8 12.3 27.8 12.35 27.85 12.6 29.2 13.05 29.7 13.4 30.3 14.15 30.35 14.45 30.35 14.5 30.25 15.1 30.9 15.4 Q33.85 16.95 36.3 19.75 L37.65 21.5 38.3 22.55 38.3 22.6 39.65 25.3 39.75 25.6 40.4 27.7 40.45 27.85 40.75 28.15 40.75 28.25 40.6 28.55 40.7 29.25 43.25 30.85 Q46.65 33.35 46.65 36.6"/></g><radialGradient gradientUnits="userSpaceOnUse" r="819.2" cx="0" cy="0" spreadMethod="pad" gradientTransform="matrix(0.0244140625,0.0,0.0,0.0244140625,18.85,18.85)" id="gradient10"><stop offset="0.0" stop-color="#ffffcc"/><stop offset="1.0" stop-color="#ffffcc" stop-opacity="0.0"/></radialGradient><g id="c12"><path stroke="none" fill="url(#gradient10)" d="M32.15 32.15 Q26.65 37.7 18.85 37.7 11.05 37.7 5.5 32.15 0.0 26.65 0.0 18.85 0.0 11.05 5.5 5.5 11.05 0.0 18.85 0.0 26.65 0.0 32.15 5.5 37.7 11.05 37.7 18.85 37.7 26.65 32.15 32.15"/></g><g id="c13"><g><use transform="matrix(1.0,0.0,0.0,1.0,0.0,0.0)" xlink:href="#c12"/></g></g><g id="c14"><g><use transform="matrix(1.0,0.0,0.0,1.0,0.0,0.0)" xlink:href="#c10"/></g><mask id="mask11"><use transform="matrix(1.0,0.0,0.0,1.0,0.0,0.0)" xlink:href="#c11"/></mask><g mask="url(#mask11)"><use transform="matrix(1.08703613281,0.0,0.0143432617188,1.0,7.0,7.2)" filter="url(#filter12)" xlink:href="#c13"/></g></g><filter id="filter12"><feColorMatrix in="SourceGraphic" type="matrix" values="1.0 0.0 0.0 0.0 0.0 0.0 1.0 0.0 0.0 0.0 0.0 0.0 1.0 0.0 0.0 0.0 0.0 0.0 0.6484375 0.0" result="cxform"/><feComposite operator="in" in2="SourceGraphic" result="color-xform"/></filter><g id="c15"><g><use transform="matrix(2.74395751953,0.0,0.0,2.74395751953,-10.55,-12.05)" xlink:href="#c14"/></g></g><g id="c16"><g><use transform="matrix(1.0,0.0,0.0,1.0,6.3,53.35)" xlink:href="#c9"/></g><g><use transform="matrix(-0.146041870117,0.0488891601562,0.0616760253906,0.140441894531,33.05,63.95)" xlink:href="#c15"/></g><g><use transform="matrix(0.141098022461,-0.0378112792969,0.111373901367,0.225646972656,27.2,74.05)" filter="url(#filter16)" xlink:href="#c6"/></g></g><filter id="filter16"><feColorMatrix in="SourceGraphic" type="matrix" values="1.0 0.0 0.0 0.0 0.0 0.0 1.0 0.0 0.0 0.0 0.0 0.0 1.0 0.0 0.0 0.0 0.0 0.0 0.23046875 0.0" result="cxform"/><feComposite operator="in" in2="SourceGraphic" result="color-xform"/></filter></defs><g><g><use transform="matrix(1.0,0.0,0.0,1.0,0.0,0.0)" xlink:href="#c1"/></g><g><use transform="matrix(1.15496826172,0.0,0.0,1.15496826172,-1.5,-57.15)" xlink:href="#c16"/></g></g></svg>