<?xml version='1.0' encoding='UTF-8'?>
<svg xmlns:xlink="http://www.w3.org/1999/xlink" xmlns="http://www.w3.org/2000/svg" version="1.1" width="66px" height="70px" viewBox="-5.60268373827 -9.75766691347 65.6026837383 69.7576669135"><defs><g id="c1"><path fill="#000000" fill-opacity="0.00392156862745" d="M0.0 0.0 L60.0 0.0 60.0 60.0 0.0 60.0 0.0 0.0"/><path fill="none" stroke="#000000" stroke-width="1.0" stroke-opacity="0.301960784314" d="M3.45 20.1 L15.85 22.45 22.7 12.85 28.0 20.85 32.75 18.65 36.45 26.75 41.75 20.85 44.2 25.4 50.15 25.4"/></g><g id="c2"><path fill="#ffffff" stroke="none" d="M4.7 21.8 L14.7 23.8 20.5 15.85 25.05 22.45 29.0 20.55 32.0 27.3 36.5 22.45 38.55 26.3 46.15 26.3 50.05 30.85 50.05 49.65 7.5 49.65 3.9 22.15 4.7 21.8"/></g><g id="c3"><path fill="#006699" stroke="none" d="M31.5 39.85 L19.8 43.65 Q17.15 44.45 15.5 43.3 14.35 42.55 13.65 40.9 L1.7 14.45 1.6 14.3 1.2 13.45 -0.75 9.05 Q-2.05 6.2 -0.3 4.75 0.3 4.25 1.2 3.9 L5.5 2.25 Q8.95 0.95 10.65 4.15 L22.3 0.4 Q26.55 -1.0 28.45 3.1 L40.55 29.95 40.9 30.7 42.95 35.15 Q43.95 37.35 43.15 38.7 42.5 39.7 40.95 40.25 L36.65 41.8 35.1 42.2 Q32.75 42.3 31.5 39.85"/><path fill="none" stroke="#000000" stroke-width="1.0" stroke-opacity="0.298039215686" d="M31.5 39.85 L19.8 43.65 Q17.15 44.45 15.5 43.3 14.35 42.55 13.65 40.9 L1.7 14.45 1.6 14.3 1.2 13.45 -0.75 9.05 Q-2.05 6.2 -0.3 4.75 0.3 4.25 1.2 3.9 L5.5 2.25 Q8.95 0.95 10.65 4.15 L22.3 0.4 Q26.55 -1.0 28.45 3.1 L40.55 29.95 40.9 30.7 42.95 35.15 Q43.95 37.35 43.15 38.7 42.5 39.7 40.95 40.25 L36.65 41.8 35.1 42.2 Q32.75 42.3 31.5 39.85"/><path fill="#300525" stroke="none" d="M0.75 8.25 L29.8 9.75 25.55 0.9 Q26.9 1.6 27.8 3.55 L40.7 32.15 Q42.6 36.3 38.3 37.65 L23.3 42.5 13.15 21.4 4.6 20.9 0.7 12.25 Q-0.45 9.75 0.75 8.25 M20.1 43.55 L19.8 43.65 Q17.15 44.45 15.5 43.3 L20.1 43.55"/><path fill="#630a4c" stroke="none" d="M25.55 0.9 L29.8 9.75 0.75 8.25 Q1.45 7.3 3.1 6.75 L21.65 0.8 25.55 0.9 M4.6 20.9 L13.15 21.4 23.3 42.5 20.1 43.55 15.5 43.3 Q14.35 42.55 13.65 40.9 L4.6 20.9"/><path fill="none" stroke="#000000" stroke-width="0.5" stroke-opacity="0.301960784314" d="M0.75 8.25 Q-0.45 9.75 0.7 12.25 L4.6 20.9 M23.3 42.5 L38.3 37.65 Q42.6 36.3 40.7 32.15 L27.8 3.55 Q26.9 1.6 25.55 0.9 L21.65 0.8 3.1 6.75 Q1.45 7.3 0.75 8.25 M20.1 43.55 L19.8 43.65 Q17.15 44.45 15.5 43.3 14.35 42.55 13.65 40.9 L4.6 20.9 M20.1 43.55 L23.3 42.5"/><path fill="#9d147b" stroke="none" d="M14.2 40.5 L1.35 11.8 Q-0.5 7.75 3.8 6.35 L22.3 0.4 Q26.55 -1.0 28.45 3.1 L41.35 31.7 Q43.25 35.85 38.9 37.25 L20.4 43.2 Q16.1 44.55 14.2 40.5"/><path fill="none" stroke="#000000" stroke-width="0.5" stroke-opacity="0.301960784314" d="M14.2 40.5 L1.35 11.8 Q-0.5 7.75 3.8 6.35 L22.3 0.4 Q26.55 -1.0 28.45 3.1 L41.35 31.7 Q43.25 35.85 38.9 37.25 L20.4 43.2 Q16.1 44.55 14.2 40.5"/><path fill="#9d147b" stroke="none" d="M31.4 39.65 L31.3 39.45 31.25 39.4 29.25 34.95 Q27.55 31.2 31.25 29.85 L35.6 28.25 Q38.8 27.1 40.5 29.85 L40.9 30.7 42.95 35.15 Q43.95 37.35 43.15 38.7 42.5 39.45 41.2 39.9 L36.9 41.45 34.85 41.85 Q32.9 41.7 31.75 39.5 L31.4 39.65"/><path fill="#630a4c" stroke="none" d="M43.15 38.7 Q42.5 39.7 40.95 40.25 L36.65 41.8 35.1 42.2 Q32.75 42.3 31.45 39.8 L31.4 39.65 31.75 39.5 Q32.9 41.7 34.85 41.85 L36.9 41.45 41.2 39.9 Q42.5 39.45 43.15 38.7"/><path fill="none" stroke="#003333" stroke-width="0.5" stroke-opacity="0.509803921569" d="M43.15 38.7 Q42.5 39.7 40.95 40.25 L36.65 41.8 35.1 42.2 Q32.75 42.3 31.45 39.8 L31.4 39.65 30.3 40.0 31.4 39.65 M40.5 29.85 L40.9 30.7 42.95 35.15 Q43.95 37.35 43.15 38.7 42.5 39.45 41.2 39.9 L36.9 41.45 34.85 41.85 Q32.9 41.7 31.75 39.5 L31.4 39.65"/><path fill="#9d147b" stroke="none" d="M10.65 4.2 L10.85 4.6 12.85 9.05 Q14.5 12.8 10.8 14.15 L6.5 15.8 Q4.5 16.6 3.1 15.8 L1.75 12.85 -0.2 8.45 Q-1.25 6.15 -0.3 4.75 0.3 4.25 1.2 3.9 L5.5 2.25 Q9.0 0.95 10.65 4.2"/><path fill="#300525" stroke="none" d="M1.6 14.3 L1.2 13.45 -0.75 9.05 Q-2.05 6.2 -0.3 4.75 -1.25 6.15 -0.2 8.45 L1.75 12.85 3.1 15.8 Q2.25 15.35 1.6 14.3"/><path fill="none" stroke="#003333" stroke-width="0.5" stroke-opacity="0.509803921569" d="M3.1 15.8 L6.45 23.15 M-0.3 4.75 Q0.3 4.25 1.2 3.9 L5.5 2.25 Q9.0 0.95 10.65 4.2 M1.6 14.3 L1.2 13.45 -0.75 9.05 Q-2.05 6.2 -0.3 4.75 -1.25 6.15 -0.2 8.45 L1.75 12.85 3.1 15.8"/><path fill="#fcf2cf" stroke="none" d="M9.15 13.6 Q9.8 12.8 9.55 11.6 L9.1 10.55 22.05 6.35 Q24.9 5.45 26.25 7.85 L26.5 8.3 35.8 29.0 35.95 29.35 Q34.75 29.3 34.1 30.1 33.45 30.9 33.7 32.1 L34.0 32.9 20.65 37.2 Q18.8 37.8 17.65 37.0 16.8 36.4 16.3 35.2 L6.95 14.6 6.8 14.4 7.1 14.4 Q8.4 14.45 9.15 13.6"/><path fill="#c47fad" stroke="none" d="M8.25 23.65 L3.35 12.8 Q1.65 9.1 5.5 7.85 L22.25 2.5 Q26.05 1.25 27.75 4.95 L28.25 6.1 35.55 22.3 39.35 30.75 Q41.1 34.5 37.2 35.7 L20.45 41.1 Q16.8 42.25 15.2 39.0 L15.0 38.6 8.25 23.65 M9.15 13.6 Q8.4 14.45 7.1 14.4 L6.8 14.4 6.95 14.6 16.3 35.2 Q16.8 36.4 17.65 37.0 18.8 37.8 20.65 37.2 L34.0 32.9 33.7 32.1 Q33.45 30.9 34.1 30.1 34.75 29.3 35.95 29.35 L35.8 29.0 26.5 8.3 26.25 7.85 Q24.9 5.45 22.05 6.35 L9.1 10.55 9.55 11.6 Q9.8 12.8 9.15 13.6"/><path fill="none" stroke="#ffcc00" stroke-width="1.0" stroke-opacity="0.749019607843" d="M8.25 23.65 L3.35 12.8 Q1.65 9.1 5.5 7.85 L22.25 2.5 Q26.05 1.25 27.75 4.95 L28.25 6.1 M35.55 22.3 L39.35 30.75 Q41.1 34.5 37.2 35.7 L20.45 41.1 Q16.8 42.25 15.2 39.0 L15.0 38.6"/><path fill="none" stroke="#bf9900" stroke-width="1.0" stroke-opacity="0.749019607843" d="M28.25 6.1 L35.55 22.3 M15.0 38.6 L8.25 23.65"/><path fill="none" stroke="#f0b92b" stroke-width="0.5" d="M9.15 13.6 Q9.8 12.8 9.55 11.6 L9.1 10.55 22.05 6.35 Q24.9 5.45 26.25 7.85 L26.5 8.3 35.8 29.0 35.95 29.35 Q34.75 29.3 34.1 30.1 33.45 30.9 33.7 32.1 L34.0 32.9 20.65 37.2 Q18.8 37.8 17.65 37.0 16.8 36.4 16.3 35.2 L6.95 14.6 6.8 14.4 7.1 14.4 Q8.4 14.45 9.15 13.6"/></g><g id="c4"><path fill="#7fdbfe" stroke="none" d="M10.75 4.9 Q10.75 4.6 10.9 4.35 11.25 3.45 11.95 2.75 13.3 1.5 14.35 2.1 15.4 2.7 14.95 4.45 14.7 5.4 14.1 6.15 L13.75 6.5 Q13.1 7.15 12.35 7.35 L11.4 7.2 Q10.95 6.9 10.75 6.4 10.5 5.75 10.75 4.9 M7.5 5.9 Q7.0 5.85 6.6 5.5 6.05 5.0 5.8 4.15 L5.7 3.6 Q5.55 2.65 5.8 1.7 6.25 0.0 7.5 0.0 L7.6 0.0 Q8.85 0.0 9.3 1.7 9.55 2.65 9.4 3.6 L9.3 4.15 8.5 5.5 7.6 5.9 7.5 5.9 M4.35 4.9 Q4.6 5.75 4.35 6.4 L3.7 7.2 2.75 7.35 Q2.0 7.15 1.35 6.5 L1.0 6.15 Q0.4 5.4 0.15 4.45 -0.3 2.7 0.75 2.1 1.8 1.5 3.15 2.75 3.85 3.45 4.2 4.35 L4.35 4.9 M5.5 13.7 Q4.45 13.9 3.65 12.95 2.75 12.0 3.2 10.25 3.7 8.5 5.25 7.6 6.4 6.9 7.55 7.0 8.75 6.9 9.9 7.6 11.45 8.5 11.95 10.25 12.35 12.0 11.5 12.95 10.7 13.9 9.65 13.7 8.55 13.5 7.55 12.6 6.55 13.5 5.5 13.7"/></g><g id="c5"><g><use transform="matrix(1.0,0.0,0.0,1.0,0.0,0.0)" xlink:href="#c4"/></g></g><radialGradient gradientUnits="userSpaceOnUse" r="819.2" cx="0" cy="0" spreadMethod="pad" gradientTransform="matrix(0.0914459228516,0.0,0.0,0.0914459228516,0.6,3.4)" id="gradient1"><stop offset="0.0" stop-color="#ffffff"/><stop offset="1.0" stop-color="#ffffff" stop-opacity="0.0"/></radialGradient><g id="c6"><path stroke="none" fill="url(#gradient1)" d="M36.65 -54.65 Q60.05 -42.0 69.75 -17.95 80.55 8.9 68.0 34.1 55.45 59.35 26.8 68.2 -1.8 77.05 -29.7 64.3 -57.6 51.6 -68.45 24.75 -79.3 -2.05 -66.75 -27.25 L-66.7 -27.3 Q-54.1 -52.5 -25.5 -61.4 3.1 -70.2 31.0 -57.5 L36.65 -54.65"/></g><g id="c7"><g><use transform="matrix(1.0,0.0,0.0,1.0,0.0,0.0)" xlink:href="#c6"/></g></g><radialGradient gradientUnits="userSpaceOnUse" r="819.2" cx="0" cy="0" spreadMethod="pad" gradientTransform="matrix(0.209197998047,0.0,0.0,0.177108764648,67.15,107.2)" id="gradient2"><stop offset="0.356862745098" stop-color="#ffffff"/><stop offset="0.670588235294" stop-opacity="0.0"/></radialGradient><g id="c8"><path fill="none" stroke-linejoin="round" stroke-linecap="round" stroke="url(#gradient2)" stroke-width="0.5" d="M136.55 165.8 L68.6 106.0 68.4 106.0 118.25 201.5 M68.2 105.7 L68.25 105.8 68.25 105.75 68.2 105.7 0.0 45.7 M68.25 105.8 L68.3 105.85 68.3 105.8 68.25 105.75 49.95 0.05 M0.05 97.7 L68.15 105.95 68.25 105.85 68.25 105.8 M68.3 105.85 L68.25 105.85 68.3 106.0 68.3 105.85 68.3 105.8 68.35 105.8 68.3 105.8 86.6 18.35 M50.0 193.2 L68.3 106.0 68.15 105.95 18.25 151.55 M68.4 106.0 L68.3 106.0 86.55 211.5 M68.4 106.0 L68.3 105.85 M68.6 106.0 L68.35 105.8 118.25 60.15 M136.6 114.25 L68.6 106.0 M68.2 105.7 L18.25 10.05"/></g><g id="c9"><g><use transform="matrix(1.0,0.0,0.0,1.0,0.0,0.0)" xlink:href="#c8"/></g></g><g id="c10"><g><use transform="matrix(1.0,0.0,0.0,1.0,0.0,0.0)" xlink:href="#c3"/></g><g><use transform="matrix(0.238861083984,-0.0867004394531,0.10026550293,0.233917236328,34.25,31.15)" xlink:href="#c5"/></g><g><use transform="matrix(0.238861083984,-0.0867004394531,0.10026550293,0.233917236328,4.25,10.3)" xlink:href="#c5"/></g><g><use transform="matrix(0.141098022461,-0.0378112792969,0.111373901367,0.225646972656,20.25,20.65)" filter="url(#filter7)" xlink:href="#c7"/></g><g><use transform="matrix(-0.155029296875,0.0513153076172,0.0841827392578,0.147033691406,22.6,3.15)" filter="url(#filter8)" xlink:href="#c9"/></g></g><filter id="filter7"><feColorMatrix in="SourceGraphic" type="matrix" values="0.0 0.0 0.0 0.0 0.796875 0.0 0.0 0.0 0.0 0.59765625 0.0 0.0 0.0 0.0 0.19921875 0.0 0.0 0.0 1.0 0.0" result="cxform"/><feComposite operator="in" in2="SourceGraphic" result="color-xform"/></filter><filter id="filter8"><feColorMatrix in="SourceGraphic" type="matrix" values="0.0 0.0 0.0 0.0 0.99609375 0.0 0.0 0.0 0.0 0.99609375 0.0 0.0 0.0 0.0 0.99609375 0.0 0.0 0.0 1.0 0.0" result="cxform"/><feComposite operator="in" in2="SourceGraphic" result="color-xform"/></filter><linearGradient gradientUnits="userSpaceOnUse" x1="-819.2" x2="819.2" spreadMethod="pad" gradientTransform="matrix(0.0437316894531,0.0,0.0,0.0233154296875,60.45,50.85)" id="gradient3"><stop offset="0.0" stop-color="#2388a3"/><stop offset="0.501960784314" stop-color="#43bcd9"/><stop offset="1.0" stop-color="#2386a1"/></linearGradient><g id="c11"><path stroke="none" fill="url(#gradient3)" d="M33.15 35.4 L33.45 35.25 Q42.85 27.8 54.55 39.2 61.75 58.2 74.4 58.2 88.5 54.85 99.05 58.2 109.9 64.7 103.95 68.2 103.25 68.65 102.4 68.9 99.75 70.05 95.25 70.75 L75.4 68.35 65.95 66.95 Q50.35 63.85 42.15 56.4 33.45 48.35 33.15 35.4"/><path fill="#29a6bf" stroke="none" d="M29.35 105.95 Q26.4 103.7 27.65 88.35 L27.8 76.25 31.75 67.8 Q19.1 69.6 4.3 63.15 14.45 56.4 33.15 49.65 L33.15 35.4 Q33.45 48.35 42.15 56.4 50.35 63.85 65.95 66.95 64.55 73.85 67.25 80.9 71.75 86.35 67.25 88.9 46.55 81.15 38.65 67.1 28.25 91.15 29.35 105.95"/><path fill="#1f7a8f" stroke="none" d="M102.4 68.9 Q94.7 76.95 81.45 80.45 88.2 90.75 86.65 104.55 80.6 107.2 55.1 91.85 45.0 103.7 29.35 105.95 28.25 91.15 38.65 67.1 46.55 81.15 67.25 88.9 71.75 86.35 67.25 80.9 64.55 73.85 65.95 66.95 L75.4 68.35 95.25 70.75 Q99.75 70.05 102.4 68.9 M27.8 76.25 Q13.6 72.15 4.3 63.15 19.1 69.6 31.75 67.8 L27.8 76.25"/><path fill="#feedab" stroke="none" d="M53.55 52.6 Q54.0 53.0 55.7 53.3 L55.8 53.7 55.55 54.0 54.55 54.4 Q54.4 54.7 55.1 56.55 L54.7 56.8 54.0 55.95 Q53.55 55.4 51.6 55.55 L50.9 55.55 50.75 55.1 Q51.3 55.0 51.75 54.55 52.75 54.0 52.75 52.3 L53.55 52.6 M61.3 63.7 L60.2 64.15 Q58.8 64.15 58.8 62.7 58.8 61.45 60.45 61.45 62.15 61.45 62.15 62.6 62.15 63.15 61.3 63.7 M64.7 58.2 Q64.7 58.9 63.85 58.9 63.0 58.9 63.0 58.5 L63.0 57.95 Q63.0 57.25 63.7 57.25 64.7 57.25 64.7 58.2 M72.15 63.55 L71.6 64.85 Q70.75 64.85 70.75 63.7 L70.9 63.15 72.0 63.15 72.15 63.55 M42.3 41.05 L41.45 40.6 41.45 39.35 Q42.05 38.95 42.45 39.65 L42.75 40.9 42.3 41.05 M35.4 59.35 Q34.85 58.9 34.85 58.2 37.8 58.2 37.8 59.2 37.8 59.75 36.25 60.45 35.7 60.45 35.4 59.35 M48.5 50.5 L47.95 52.0 Q47.4 51.6 47.4 51.05 47.4 49.9 48.35 50.2 L48.5 50.5 M46.8 58.9 Q47.65 58.9 47.65 59.65 47.65 60.45 47.1 60.45 46.1 60.45 46.1 59.5 L46.25 58.9 46.8 58.9 M44.55 66.5 Q44.7 66.65 44.3 66.65 L43.15 65.95 Q43.45 65.1 44.15 65.4 44.7 65.7 44.7 66.1 L44.55 66.5 M48.35 71.15 L48.5 71.6 47.8 72.45 47.25 72.3 47.25 71.45 Q47.65 71.05 48.35 71.15 M36.1 67.65 L35.7 67.95 Q34.3 67.5 34.0 66.5 35.15 65.7 36.0 66.1 L37.4 67.35 37.4 68.5 36.95 68.65 36.55 68.5 36.1 67.65 36.1 67.1 36.0 67.1 36.1 67.65 M41.9 75.65 L41.75 76.65 Q40.9 76.65 40.9 75.95 L41.05 75.55 41.9 75.65 M26.55 68.2 Q26.55 69.05 25.85 69.05 25.15 69.05 25.4 68.35 25.15 68.75 24.55 68.75 24.0 68.75 24.0 68.5 L24.0 68.2 24.3 67.25 24.45 67.1 Q26.55 67.65 26.55 68.2 M48.1 81.85 L48.2 82.3 47.65 83.0 46.95 83.25 Q46.4 83.25 46.1 82.85 L45.95 82.45 Q45.95 82.15 46.55 81.85 L48.1 81.85 M42.15 89.05 L42.05 89.35 41.75 89.45 41.35 89.2 41.75 88.6 Q42.3 88.75 42.15 89.05 M41.9 93.25 Q41.9 93.7 41.35 93.95 L40.9 93.7 Q40.9 93.15 41.45 93.0 L41.9 93.25 M32.05 99.9 L31.9 100.15 31.6 100.3 31.2 100.05 31.6 99.45 Q32.2 99.6 32.05 99.9 M94.8 65.8 L94.55 65.8 Q93.7 65.8 93.7 65.1 L93.95 64.4 Q94.95 64.7 94.95 65.25 L94.8 65.8 M76.1 69.05 L76.65 69.2 76.8 69.5 Q76.8 70.05 76.1 70.05 L75.55 69.75 76.1 69.05 M65.95 65.1 L65.7 65.25 Q65.1 65.25 65.1 64.25 L65.25 63.7 Q66.1 63.85 66.1 64.4 L65.95 65.1 M68.9 69.9 L68.5 70.3 68.2 70.3 68.05 70.45 Q67.95 70.75 67.65 70.75 L67.1 70.45 66.4 70.45 65.95 69.9 66.95 69.6 66.95 69.5 Q66.95 68.9 67.35 68.65 L67.95 69.5 67.95 69.6 68.75 69.5 68.9 69.9 M68.05 76.5 Q67.95 77.1 67.5 77.1 67.1 76.8 66.25 76.8 L66.1 76.25 Q66.1 75.25 68.05 76.5 M53.3 65.95 Q53.55 65.25 54.4 64.95 55.4 64.55 55.4 65.7 L54.55 66.65 53.3 65.95 M54.55 69.05 Q54.55 68.2 56.4 68.2 58.1 68.2 58.1 69.05 58.1 69.5 57.35 69.9 56.65 70.3 56.25 70.3 55.0 70.3 54.7 69.6 L54.55 69.05 M57.25 74.4 Q57.25 72.3 59.35 72.6 61.45 72.85 61.45 74.7 61.45 76.25 60.2 76.25 58.9 76.25 57.95 75.4 57.25 74.7 57.25 74.4 M55.55 76.95 L55.4 77.35 Q55.4 77.5 55.0 77.5 54.4 77.5 54.3 77.2 L54.3 76.8 Q54.3 75.95 55.4 76.4 L55.55 76.95 M59.5 84.4 Q58.35 84.4 58.35 83.85 58.35 82.85 59.75 82.7 60.45 83.0 60.45 84.0 L60.35 84.25 59.5 84.4 M57.8 89.2 Q58.35 89.2 59.35 89.9 59.5 90.45 58.65 90.45 L57.65 90.05 57.65 89.35 57.8 89.2 M73.85 90.45 Q73.3 90.45 73.3 90.15 L73.3 89.75 Q73.3 89.05 74.0 89.05 74.7 89.05 74.7 89.6 74.7 90.45 73.85 90.45"/><path fill="#ff0000" fill-opacity="0.101960784314" d="M87.05 15.15 Q86.5 16.55 87.5 18.4 L88.6 19.95 91.0 22.2 91.15 22.2 Q93.95 24.0 96.1 24.45 98.35 24.7 99.2 24.0 L99.3 23.75 101.3 25.15 100.85 25.85 96.8 26.1 Q95.1 25.85 93.0 25.0 L90.3 23.15 Q88.35 21.9 86.95 20.35 L85.55 18.1 Q84.25 15.85 84.95 14.0 L85.1 13.9 87.05 15.15"/><path fill="#00e6ca" fill-opacity="0.2" d="M84.95 14.0 Q84.25 15.85 85.55 18.1 L86.95 20.35 Q78.75 23.3 80.75 29.8 75.8 31.05 73.3 37.8 73.0 38.35 70.75 39.8 67.25 39.65 68.05 35.4 69.9 35.85 71.6 33.15 L84.95 14.0 M38.8 13.75 Q46.25 19.1 49.9 25.55 52.15 29.35 53.85 36.7 49.75 39.9 50.75 50.9 45.95 44.3 44.0 47.5 32.45 69.5 40.75 83.85 L40.6 84.0 42.75 85.8 42.85 85.8 43.0 85.95 Q38.5 100.45 26.7 109.3 24.3 97.75 26.7 79.6 33.3 76.4 34.55 70.05 17.1 71.3 0.35 62.6 6.85 56.55 18.1 52.0 24.0 49.75 30.5 47.8 L31.45 39.05 Q31.9 28.35 38.8 13.75"/><path fill="#009599" fill-opacity="0.4" d="M86.95 20.35 Q88.35 21.9 90.3 23.15 L93.0 25.0 Q95.5 32.9 88.2 34.55 86.25 40.35 78.35 43.85 L74.25 43.0 Q79.05 48.5 82.7 54.0 86.35 59.35 71.05 52.6 94.1 66.25 67.1 72.0 85.95 85.65 76.65 93.95 58.8 96.1 43.0 85.95 L42.85 85.8 42.75 85.8 40.6 84.0 40.75 83.85 Q32.45 69.5 44.0 47.5 45.95 44.3 50.75 50.9 49.75 39.9 53.85 36.7 52.15 29.35 49.9 25.55 46.25 19.1 38.8 13.75 L50.6 20.75 61.05 27.55 Q64.85 30.2 66.4 32.9 L67.95 35.4 68.05 35.4 Q67.25 39.65 70.75 39.8 73.0 38.35 73.3 37.8 75.8 31.05 80.75 29.8 78.75 23.3 86.95 20.35"/><path fill="#006661" fill-opacity="0.6" d="M93.0 25.0 Q95.1 25.85 96.8 26.1 L100.85 25.85 84.8 43.15 Q84.95 44.0 88.35 45.85 L96.2 49.75 Q108.45 56.55 113.7 65.4 102.85 76.1 95.5 78.65 L86.65 81.15 Q91.7 95.4 89.45 110.0 78.35 107.5 67.25 103.1 57.8 99.3 56.4 97.75 42.6 105.35 26.85 110.0 L26.7 109.75 26.7 109.3 Q38.5 100.45 43.0 85.95 58.8 96.1 76.65 93.95 85.95 85.65 67.1 72.0 94.1 66.25 71.05 52.6 86.35 59.35 82.7 54.0 79.05 48.5 74.25 43.0 L78.35 43.85 Q86.25 40.35 88.2 34.55 95.5 32.9 93.0 25.0 M83.4 44.7 L84.8 43.15 83.4 44.7 M26.7 79.6 L15.55 75.25 Q7.7 71.6 -0.05 63.0 L0.35 62.6 Q17.1 71.3 34.55 70.05 33.3 76.4 26.7 79.6"/><path fill="none" stroke="#000000" stroke-width="0.5" stroke-opacity="0.250980392157" d="M99.3 23.75 L99.2 24.0 Q98.35 24.7 96.1 24.45 93.95 24.0 91.15 22.2 L91.0 22.2 88.6 19.95 87.5 18.4 Q86.5 16.55 87.05 15.15 M85.1 13.9 L84.95 14.0 71.6 33.15 Q69.9 35.85 68.05 35.4 L67.95 35.4 66.4 32.9 Q64.85 30.2 61.05 27.55 L50.6 20.75 38.8 13.75 M100.85 25.85 L101.3 25.15 M84.8 43.15 L83.4 44.7 M100.85 25.85 L84.8 43.15 Q84.95 44.0 88.35 45.85 L96.2 49.75 Q108.45 56.55 113.7 65.4 102.85 76.1 95.5 78.65 L86.65 81.15 Q91.7 95.4 89.45 110.0 78.35 107.5 67.25 103.1 57.8 99.3 56.4 97.75 42.6 105.35 26.85 110.0 L26.7 109.75 M26.7 109.3 Q24.3 97.75 26.7 79.6 L15.55 75.25 Q7.7 71.6 -0.05 63.0 L0.35 62.6 Q6.85 56.55 18.1 52.0 24.0 49.75 30.5 47.8 L31.45 39.05 Q31.9 28.35 38.8 13.75"/><path fill="none" stroke="#ffffff" stroke-width="0.5" stroke-opacity="0.250980392157" d="M84.95 14.0 Q84.25 15.85 85.55 18.1 L86.95 20.35 Q88.35 21.9 90.3 23.15 L93.0 25.0 Q95.1 25.85 96.8 26.1 L100.85 25.85"/><path fill="none" stroke="#000000" stroke-width="0.5" stroke-opacity="0.250980392157" d="M40.75 83.85 L40.6 84.0 M74.25 43.0 L78.35 43.85"/></g><g id="c12"><path fill="#990000" fill-opacity="0.4" d="M4.55 -2.15 L4.55 -2.0 Q4.45 -1.3 3.2 -0.65 2.05 0.0 0.05 0.0 L0.05 -4.6 Q2.05 -4.6 3.2 -3.9 4.55 -3.25 4.55 -2.35 L4.55 -2.15"/><path fill="#ff0000" fill-opacity="0.101960784314" d="M4.55 -2.15 L4.55 -2.35 Q4.55 -3.25 3.2 -3.9 2.05 -4.6 0.05 -4.6 L-0.05 -4.6 Q-1.95 -4.6 -3.25 -3.9 -4.6 -3.25 -4.6 -2.15 L-6.05 -2.1 -6.05 -2.2 Q-6.05 -3.4 -4.25 -4.3 -2.55 -5.2 0.0 -5.2 2.7 -5.2 4.25 -4.3 6.05 -3.4 6.05 -2.2 L4.55 -2.15"/><path fill="#660000" fill-opacity="0.6" d="M0.05 -4.6 L0.05 0.0 -0.05 0.0 -2.05 -0.2 -3.25 -0.65 Q-4.35 -1.2 -4.6 -2.15 -4.6 -3.25 -3.25 -3.9 -1.95 -4.6 -0.05 -4.6 L0.05 -4.6"/><path fill="none" stroke="#000000" stroke-width="0.5" stroke-opacity="0.250980392157" d="M-6.05 -2.1 L-6.05 -2.2 Q-6.05 -3.4 -4.25 -4.3 -2.55 -5.2 0.0 -5.2 2.7 -5.2 4.25 -4.3 6.05 -3.4 6.05 -2.2"/></g><g id="c13"><g><use transform="matrix(1.0,0.0,0.0,1.0,0.0,0.0)" xlink:href="#c12"/></g></g><g id="c14"><path fill="#ffb50d" stroke="none" d="M75.25 26.65 L72.35 24.75 72.4 24.65 Q73.9 22.85 78.0 23.45 82.15 24.2 86.6 27.2 91.1 30.15 93.25 33.55 95.3 37.05 93.85 39.0 L93.8 39.05 93.5 39.45 90.4 37.4 90.45 37.3 90.8 37.0 Q91.9 35.5 90.45 33.0 88.8 30.5 85.6 28.35 82.35 26.25 79.4 25.7 76.45 25.2 75.3 26.55 L75.25 26.65"/><path fill="#b07c08" stroke="none" d="M75.25 26.65 L75.3 26.55 Q76.45 25.2 79.4 25.7 82.35 26.25 85.6 28.35 88.8 30.5 90.45 33.0 91.9 35.5 90.8 37.0 L90.45 37.3 90.4 37.4 89.65 37.85 Q88.55 38.15 86.85 37.85 83.75 37.3 80.55 35.15 77.3 33.05 75.8 30.55 74.9 29.1 74.9 28.05 74.85 27.2 75.25 26.65"/><path fill="none" stroke="#000000" stroke-width="0.5" stroke-opacity="0.250980392157" d="M93.5 39.45 L93.8 39.05 93.85 39.0 Q95.3 37.05 93.25 33.55 91.1 30.15 86.6 27.2 82.15 24.2 78.0 23.45 73.9 22.85 72.4 24.65 L72.35 24.75"/></g><radialGradient gradientUnits="userSpaceOnUse" r="819.2" cx="0" cy="0" spreadMethod="pad" gradientTransform="matrix(0.00685119628906,0.00042724609375,-0.00042724609375,0.00685119628906,-0.25,-7.5)" id="gradient4"><stop offset="0.0" stop-color="#ffffff"/><stop offset="1.0" stop-color="#ffffff" stop-opacity="0.0"/></radialGradient><g id="c15"><path stroke="none" fill="url(#gradient4)" d="M3.4 -1.4 Q2.0 0.0 0.0 0.0 -2.0 0.0 -3.4 -1.4 -4.8 -2.8 -4.8 -4.8 -4.8 -6.8 -3.4 -8.2 -2.0 -9.6 0.0 -9.6 2.0 -9.6 3.4 -8.2 4.8 -6.8 4.8 -4.8 4.8 -2.8 3.4 -1.4"/></g><g id="c16"><g><use transform="matrix(1.0,0.0,0.0,1.0,0.0,0.0)" xlink:href="#c15"/></g></g><g id="c17"><path fill="#382510" fill-opacity="0.301960784314" d="M83.1 41.3 Q83.7 45.45 81.8 48.35 79.9 51.25 76.5 51.25 73.1 51.25 70.3 48.35 67.5 45.45 66.9 41.3 66.3 37.15 68.2 34.2 70.1 31.3 73.5 31.3 76.9 31.3 79.7 34.2 82.5 37.15 83.1 41.3"/></g><g id="c18"><path fill="#ffb50d" stroke="none" d="M71.55 24.15 L74.35 26.05 Q73.95 26.6 73.95 27.35 74.0 28.5 74.9 29.9 76.4 32.45 79.65 34.6 82.85 36.75 85.95 37.2 87.6 37.5 88.8 37.2 L89.4 36.8 92.6 38.9 92.45 38.9 Q91.95 39.35 91.3 39.6 L90.45 39.75 90.05 39.75 89.65 39.85 89.85 39.75 88.1 38.9 85.95 39.35 85.9 39.4 Q82.4 38.35 78.8 35.95 L78.5 35.75 76.35 34.2 74.7 32.7 74.35 32.45 74.1 32.1 73.65 29.7 71.1 27.25 71.0 26.8 71.0 26.1 Q70.85 25.05 71.45 24.3 L71.55 24.15"/><path fill="#805a06" stroke="none" d="M92.45 38.9 Q91.9 42.85 89.3 44.05 L83.95 44.25 82.4 44.0 85.4 43.75 Q85.9 43.5 84.3 42.9 80.2 41.1 78.6 38.55 77.1 36.4 78.5 35.75 L78.8 35.95 Q82.4 38.35 85.9 39.4 L85.95 39.35 87.5 40.4 89.65 39.85 90.05 39.75 90.45 39.75 91.3 39.6 Q91.95 39.35 92.45 38.9"/><path fill="#feda89" stroke="none" d="M89.65 39.85 L87.5 40.4 85.95 39.35 88.1 38.9 89.85 39.75 89.65 39.85"/><path fill="#b37f09" stroke="none" d="M82.4 44.0 L81.55 43.75 Q75.4 39.7 75.15 38.3 74.9 36.75 71.95 33.05 69.15 29.55 71.1 28.1 L71.4 30.7 74.1 32.25 74.1 32.1 74.35 32.45 74.7 32.7 76.35 34.2 78.5 35.75 Q77.1 36.4 78.6 38.55 80.2 41.1 84.3 42.9 85.9 43.5 85.4 43.75 L82.4 44.0"/><path fill="#ffff2f" stroke="none" d="M71.1 28.1 Q71.4 28.5 71.1 27.25 L73.65 29.7 74.1 32.1 74.1 32.25 71.4 30.7 71.1 28.1"/><path fill="#e8a40b" stroke="none" d="M81.55 43.75 Q78.5 42.8 75.35 40.65 70.85 37.7 68.6 34.35 66.35 30.8 67.2 28.65 67.55 25.55 71.45 24.3 70.85 25.05 71.0 26.1 L71.0 26.8 71.1 27.25 Q71.4 28.5 71.1 28.1 69.15 29.55 71.95 33.05 74.9 36.75 75.15 38.3 75.4 39.7 81.55 43.75"/><path fill="none" stroke="#000000" stroke-width="0.5" stroke-opacity="0.250980392157" d="M92.6 38.9 L92.45 38.9 Q91.9 42.85 89.3 44.05 L83.95 44.25 82.4 44.0 81.55 43.75 Q78.5 42.8 75.35 40.65 70.85 37.7 68.6 34.35 66.35 30.8 67.2 28.65 67.55 25.55 71.45 24.3 L71.55 24.15"/></g><linearGradient gradientUnits="userSpaceOnUse" x1="-819.2" x2="819.2" spreadMethod="pad" gradientTransform="matrix(0.00836181640625,0.0,0.0,0.00857543945312,6.9,12.2)" id="gradient5"><stop offset="0.149019607843" stop-color="#c2a561"/><stop offset="0.572549019608" stop-color="#927b47"/></linearGradient><linearGradient gradientUnits="userSpaceOnUse" x1="-819.2" x2="819.2" spreadMethod="pad" gradientTransform="matrix(-0.00624084472656,0.00358581542969,-0.00286865234375,-0.00498962402344,16.05,12.5)" id="gradient6"><stop offset="0.149019607843" stop-color="#c2a561"/><stop offset="0.572549019608" stop-color="#927b47"/></linearGradient><g id="c19"><path fill="#e6c497" stroke="none" d="M17.45 2.25 L17.35 2.3 16.55 1.65 17.45 2.25 M3.1 1.25 L2.75 1.45 2.75 1.4 3.1 1.25"/><path fill="#806c53" stroke="none" d="M18.75 5.45 L18.8 5.4 18.8 5.45 18.75 5.45"/><path fill="#e0c585" stroke="none" d="M16.55 1.65 L17.35 2.3 Q18.0 3.0 18.15 3.8 L18.15 4.15 18.15 4.35 18.1 4.75 18.05 4.8 Q17.65 6.2 15.6 7.25 L13.45 8.05 9.5 8.5 Q6.85 8.5 4.7 7.8 L4.65 7.8 3.35 7.25 1.45 5.85 Q2.65 4.55 4.85 3.55 L0.85 4.45 0.85 4.4 0.8 4.2 0.8 4.15 0.8 3.95 Q0.95 2.55 2.75 1.45 L3.1 1.25 3.35 1.1 Q5.4 0.05 8.15 -0.15 8.55 2.5 10.5 0.95 L10.55 -0.15 Q13.45 0.0 15.6 1.1 L16.55 1.65"/><path stroke="none" fill="url(#gradient5)" d="M0.05 5.2 Q0.3 6.85 2.75 8.1 L4.2 8.7 4.25 8.7 Q6.55 9.45 9.45 9.45 L13.75 8.95 Q13.3 11.45 13.15 15.95 12.95 19.85 13.1 22.4 L9.55 22.7 5.3 22.25 4.35 21.95 4.3 21.95 2.85 21.35 0.65 19.65 0.6 13.35 0.05 5.2"/><path stroke="none" fill="url(#gradient6)" d="M13.75 8.95 L16.1 8.1 Q18.3 6.95 18.75 5.45 L18.8 5.45 18.4 15.1 18.4 19.65 Q17.6 20.6 16.2 21.35 L13.85 22.2 13.1 22.4 Q12.95 19.85 13.15 15.95 13.3 11.45 13.75 8.95"/><path fill="#d8ca7c" stroke="none" d="M2.75 1.45 L2.7 1.45 2.75 1.4 2.75 1.45"/><path fill="#ac9c46" stroke="none" d="M17.35 2.3 L17.45 2.25 17.95 2.7 Q18.7 3.45 18.85 4.35 L18.85 4.7 18.85 4.95 18.8 5.4 18.75 5.45 Q18.3 6.95 16.1 8.1 L13.75 8.95 9.45 9.45 Q6.55 9.45 4.25 8.7 L4.2 8.7 2.75 8.1 Q0.3 6.85 0.05 5.2 L0.05 5.0 0.0 4.8 0.0 4.7 0.0 4.5 Q0.15 2.7 2.7 1.45 L2.75 1.45 Q0.95 2.55 0.8 3.95 L0.8 4.15 0.8 4.2 0.85 4.4 0.85 4.45 4.85 3.55 Q2.65 4.55 1.45 5.85 L3.35 7.25 4.65 7.8 4.7 7.8 Q6.85 8.5 9.5 8.5 L13.45 8.05 15.6 7.25 Q17.65 6.2 18.05 4.8 L18.1 4.75 18.15 4.35 18.15 4.15 18.15 3.8 Q18.0 3.0 17.35 2.3 M10.55 -0.15 L10.5 0.95 Q8.55 2.5 8.15 -0.15 L9.2 0.4 10.55 -0.15"/><path fill="none" stroke="#000000" stroke-width="0.5" stroke-opacity="0.250980392157" d="M17.45 2.25 L16.55 1.65 15.6 1.1 Q13.45 0.0 10.55 -0.15 L9.2 0.4 8.15 -0.15 Q5.4 0.05 3.35 1.1 L3.1 1.25 2.75 1.4 2.7 1.45 Q0.15 2.7 0.0 4.5 L0.0 4.7 0.0 4.8 0.05 5.0 0.05 5.2 M18.8 5.4 L18.85 4.95 18.85 4.7 18.85 4.35 Q18.7 3.45 17.95 2.7 L17.45 2.25 M18.8 5.45 L18.8 5.4 M18.8 5.45 L18.4 15.1 18.4 19.65 M0.65 19.65 L0.6 13.35 0.05 5.2"/><path fill="#927b47" stroke="none" d="M17.05 9.9 Q17.35 9.4 17.55 9.45 L17.85 10.05 Q18.05 10.75 17.85 11.4 17.6 12.4 17.2 12.7 L16.85 12.75 16.75 12.3 16.65 11.8 16.65 11.65 16.65 10.85 17.05 9.9 M1.3 13.7 Q1.3 13.5 1.65 13.4 L1.8 13.3 2.15 13.6 Q2.15 14.1 1.65 14.1 1.3 14.1 1.3 13.7 M2.95 14.75 L3.35 14.6 Q3.85 14.6 3.85 15.15 L3.6 15.65 3.1 15.9 Q2.35 15.9 2.35 15.15 2.35 14.6 2.65 14.6 L2.95 14.75 M2.65 11.55 L3.45 11.4 Q4.4 11.4 4.4 12.5 L4.05 13.2 3.2 13.5 2.6 13.25 2.2 12.8 Q2.05 11.9 2.65 11.55"/><path fill="#ac9c46" stroke="none" d="M11.6 4.0 Q11.6 3.75 12.0 3.6 L12.25 3.55 Q12.9 3.55 13.2 3.85 13.0 4.25 12.3 4.25 L11.65 4.2 11.6 4.0 M12.85 1.8 L13.05 2.1 12.3 2.3 11.95 2.2 12.0 1.95 Q12.1 1.8 12.3 1.8 L12.5 1.8 12.85 1.8 M16.8 5.2 L16.35 5.7 14.9 6.05 Q13.6 6.05 13.45 5.4 L13.45 5.3 14.15 5.0 15.6 4.65 Q16.8 4.65 16.8 5.2 M15.75 3.0 L15.5 3.35 14.65 3.55 14.05 3.4 13.6 2.9 13.65 2.85 Q13.7 2.7 14.1 2.45 L14.75 2.25 15.35 2.45 15.75 3.0 M11.95 6.35 L10.85 6.95 8.95 7.2 Q7.4 7.2 7.4 6.7 L7.85 6.2 7.9 6.15 8.55 5.65 9.75 5.5 11.35 5.9 11.95 6.35"/><path fill="#77653c" stroke="none" d="M13.85 11.95 Q14.0 11.8 14.15 11.75 L14.2 11.7 14.7 11.5 15.35 11.65 15.7 12.05 15.4 12.5 14.55 12.85 Q13.9 12.85 13.7 12.55 L13.6 12.2 13.85 11.95 M15.6 9.9 L15.8 9.9 Q16.1 9.9 16.4 10.2 L15.75 10.75 Q15.4 10.75 15.4 10.35 L15.55 9.95 15.6 9.9 M15.65 13.55 L15.7 13.5 15.75 13.5 15.85 13.55 16.0 13.6 Q16.2 13.65 16.2 13.85 L16.0 14.15 Q15.75 14.35 15.5 14.35 L15.2 14.3 15.2 13.95 15.65 13.55 M17.95 14.7 Q18.3 14.85 18.3 15.3 L17.65 16.45 Q16.95 17.05 16.3 17.05 15.3 17.05 15.3 16.1 15.3 15.65 15.75 15.25 16.35 14.75 17.25 14.65 L17.6 14.6 17.95 14.7"/></g><g id="c20"><g><use transform="matrix(1.0,0.0,0.0,1.0,0.0,0.0)" xlink:href="#c19"/></g></g><g id="c21"><path fill="#fcf3d8" stroke="none" d="M54.35 34.5 L64.5 27.05 55.95 35.9 58.8 44.6 53.35 38.75 37.7 50.6 51.65 36.35 37.1 8.85 54.35 34.5"/><path fill="#fcf3d8" stroke="none" d="M57.3 35.15 Q58.45 36.3 58.45 38.0 58.45 39.7 57.2 41.0 56.2 42.1 54.35 42.25 52.75 42.1 51.5 41.0 50.2 39.7 50.2 38.15 50.2 36.4 51.5 35.15 52.75 34.0 54.45 34.0 56.05 34.0 57.3 35.15"/><path fill="#fcf3d8" fill-opacity="0.301960784314" d="M57.3 35.15 Q56.05 34.0 54.45 34.0 52.75 34.0 51.5 35.15 50.2 36.4 50.2 38.15 50.2 39.7 51.5 41.0 52.75 42.1 54.35 42.25 56.2 42.1 57.2 41.0 58.45 39.7 58.45 38.0 58.45 36.3 57.3 35.15 M57.2 29.75 Q59.15 30.3 60.75 31.85 63.0 34.3 63.0 37.55 63.0 41.15 60.6 43.4 L64.3 48.7 58.75 44.85 Q57.05 45.85 54.75 45.95 52.5 45.95 50.75 44.95 L48.05 46.7 48.9 43.4 48.65 43.25 Q46.65 40.85 46.5 37.7 46.65 34.3 48.9 31.85 50.5 30.45 52.2 29.85 54.35 28.0 54.2 22.05 54.6 27.15 57.2 29.75"/></g><linearGradient gradientUnits="userSpaceOnUse" x1="-819.2" x2="819.2" spreadMethod="pad" gradientTransform="matrix(-0.0140991210938,-0.00807189941406,0.0126953125,-0.0221557617188,19.5,14.0)" id="gradient7"><stop offset="0.0" stop-color="#2efff6" stop-opacity="0.380392156863"/><stop offset="1.0" stop-color="#ffffff" stop-opacity="0.423529411765"/></linearGradient><g id="c22"><path stroke="none" fill="url(#gradient7)" d="M37.15 9.15 Q22.8 24.05 4.95 28.95 2.55 28.75 1.35 27.45 -0.45 25.4 0.15 22.15 0.75 18.8 3.8 15.5 7.6 9.65 14.0 6.4 24.7 1.8 32.2 0.0 L37.15 0.0 Q42.35 3.7 37.15 9.15"/></g><g id="c23"><g><use transform="matrix(1.0,0.0,0.0,1.0,0.0,0.0)" xlink:href="#c22"/></g></g><g id="c24"><g><use transform="matrix(1.0,0.0,0.0,1.0,0.0,0.0)" xlink:href="#c11"/></g><g><use transform="matrix(1.32218933105,0.943878173828,-0.999053955078,1.24928283691,90.45,21.4)" xlink:href="#c13"/></g><g><use transform="matrix(1.0,0.0,0.0,1.0,0.0,0.0)" xlink:href="#c14"/></g><g><use transform="matrix(3.49603271484,0.610900878906,-0.496536254883,2.5365447998,52.85,54.35)" xlink:href="#c16"/></g><g><use transform="matrix(1.0,0.0,0.0,1.0,0.0,0.0)" xlink:href="#c17"/></g><g><use transform="matrix(1.9169921875,-2.44184875488,0.803817749023,0.563339233398,82.55,31.85)" xlink:href="#c16"/></g><g><use transform="matrix(1.0,0.0,0.0,1.0,0.0,0.0)" xlink:href="#c18"/></g><g><use transform="matrix(1.00682067871,0.701644897461,-0.701644897461,1.00682067871,86.35,5.35)" xlink:href="#c20"/></g><g><use transform="matrix(1.0,0.0,0.0,1.0,0.0,0.0)" xlink:href="#c21"/></g><g><use transform="matrix(0.541427612305,0.578811645508,-0.534515380859,0.449569702148,89.3,39.6)" filter="url(#filter22)" xlink:href="#c23"/></g><g><use transform="matrix(0.409317016602,0.4375,-0.404067993164,0.339752197266,91.15,42.55)" filter="url(#filter23)" xlink:href="#c23"/></g><g><use transform="matrix(0.283126831055,0.302597045898,-0.279556274414,0.235015869141,93.1,46.35)" filter="url(#filter24)" xlink:href="#c23"/></g><g><use transform="matrix(0.775283813477,0.158828735352,-0.175933837891,0.674789428711,7.65,46.2)" filter="url(#filter25)" xlink:href="#c23"/></g><g><use transform="matrix(0.586074829102,0.120071411133,-0.132965087891,0.510116577148,10.9,47.6)" filter="url(#filter26)" xlink:href="#c23"/></g><g><use transform="matrix(0.405364990234,0.0830078125,-0.0920715332031,0.35285949707,14.7,49.6)" filter="url(#filter27)" xlink:href="#c23"/></g><g><use transform="matrix(0.448928833008,-0.456146240234,0.655853271484,0.498901367188,17.2,89.15)" filter="url(#filter28)" xlink:href="#c23"/></g><g><use transform="matrix(0.339279174805,-0.344787597656,0.495681762695,0.377227783203,20.05,88.0)" filter="url(#filter29)" xlink:href="#c23"/></g><g><use transform="matrix(0.234710693359,-0.238494873047,0.34294128418,0.260955810547,23.3,86.2)" filter="url(#filter30)" xlink:href="#c23"/></g><g><use transform="matrix(-0.709213256836,-0.0478057861328,-0.176742553711,0.897994995117,64.25,16.8)" filter="url(#filter31)" xlink:href="#c23"/></g><g><use transform="matrix(-0.536056518555,-0.0361328125,-0.133575439453,0.678787231445,60.85,17.75)" filter="url(#filter32)" xlink:href="#c23"/></g><g><use transform="matrix(-0.37077331543,-0.0249481201172,-0.0923614501953,0.46955871582,56.95,18.6)" filter="url(#filter33)" xlink:href="#c23"/></g></g><filter id="filter22"><feColorMatrix in="SourceGraphic" type="matrix" values="1.0 0.0 0.0 0.0 0.0 0.0 1.0 0.0 0.0 0.0 0.0 0.0 1.0 0.0 0.0 0.0 0.0 0.0 0.19921875 0.0" result="cxform"/><feComposite operator="in" in2="SourceGraphic" result="color-xform"/></filter><filter id="filter23"><feColorMatrix in="SourceGraphic" type="matrix" values="1.0 0.0 0.0 0.0 0.0 0.0 1.0 0.0 0.0 0.0 0.0 0.0 1.0 0.0 0.0 0.0 0.0 0.0 0.19921875 0.0" result="cxform"/><feComposite operator="in" in2="SourceGraphic" result="color-xform"/></filter><filter id="filter24"><feColorMatrix in="SourceGraphic" type="matrix" values="1.0 0.0 0.0 0.0 0.0 0.0 1.0 0.0 0.0 0.0 0.0 0.0 1.0 0.0 0.0 0.0 0.0 0.0 0.1015625 0.0" result="cxform"/><feComposite operator="in" in2="SourceGraphic" result="color-xform"/></filter><filter id="filter25"><feColorMatrix in="SourceGraphic" type="matrix" values="1.0 0.0 0.0 0.0 0.0 0.0 1.0 0.0 0.0 0.0 0.0 0.0 1.0 0.0 0.0 0.0 0.0 0.0 0.19921875 0.0" result="cxform"/><feComposite operator="in" in2="SourceGraphic" result="color-xform"/></filter><filter id="filter26"><feColorMatrix in="SourceGraphic" type="matrix" values="1.0 0.0 0.0 0.0 0.0 0.0 1.0 0.0 0.0 0.0 0.0 0.0 1.0 0.0 0.0 0.0 0.0 0.0 0.19921875 0.0" result="cxform"/><feComposite operator="in" in2="SourceGraphic" result="color-xform"/></filter><filter id="filter27"><feColorMatrix in="SourceGraphic" type="matrix" values="1.0 0.0 0.0 0.0 0.0 0.0 1.0 0.0 0.0 0.0 0.0 0.0 1.0 0.0 0.0 0.0 0.0 0.0 0.1015625 0.0" result="cxform"/><feComposite operator="in" in2="SourceGraphic" result="color-xform"/></filter><filter id="filter28"><feColorMatrix in="SourceGraphic" type="matrix" values="1.0 0.0 0.0 0.0 0.0 0.0 1.0 0.0 0.0 0.0 0.0 0.0 1.0 0.0 0.0 0.0 0.0 0.0 0.19921875 0.0" result="cxform"/><feComposite operator="in" in2="SourceGraphic" result="color-xform"/></filter><filter id="filter29"><feColorMatrix in="SourceGraphic" type="matrix" values="1.0 0.0 0.0 0.0 0.0 0.0 1.0 0.0 0.0 0.0 0.0 0.0 1.0 0.0 0.0 0.0 0.0 0.0 0.19921875 0.0" result="cxform"/><feComposite operator="in" in2="SourceGraphic" result="color-xform"/></filter><filter id="filter30"><feColorMatrix in="SourceGraphic" type="matrix" values="1.0 0.0 0.0 0.0 0.0 0.0 1.0 0.0 0.0 0.0 0.0 0.0 1.0 0.0 0.0 0.0 0.0 0.0 0.1015625 0.0" result="cxform"/><feComposite operator="in" in2="SourceGraphic" result="color-xform"/></filter><filter id="filter31"><feColorMatrix in="SourceGraphic" type="matrix" values="1.0 0.0 0.0 0.0 0.0 0.0 1.0 0.0 0.0 0.0 0.0 0.0 1.0 0.0 0.0 0.0 0.0 0.0 0.19921875 0.0" result="cxform"/><feComposite operator="in" in2="SourceGraphic" result="color-xform"/></filter><filter id="filter32"><feColorMatrix in="SourceGraphic" type="matrix" values="1.0 0.0 0.0 0.0 0.0 0.0 1.0 0.0 0.0 0.0 0.0 0.0 1.0 0.0 0.0 0.0 0.0 0.0 0.19921875 0.0" result="cxform"/><feComposite operator="in" in2="SourceGraphic" result="color-xform"/></filter><filter id="filter33"><feColorMatrix in="SourceGraphic" type="matrix" values="1.0 0.0 0.0 0.0 0.0 0.0 1.0 0.0 0.0 0.0 0.0 0.0 1.0 0.0 0.0 0.0 0.0 0.0 0.1015625 0.0" result="cxform"/><feComposite operator="in" in2="SourceGraphic" result="color-xform"/></filter><g id="c25"><g><use transform="matrix(1.0,0.0,0.0,1.0,6.3,53.35)" xlink:href="#c10"/></g><g><use transform="matrix(-0.146041870117,0.0488891601562,0.0616760253906,0.140441894531,33.05,63.95)" xlink:href="#c24"/></g><g><use transform="matrix(0.141098022461,-0.0378112792969,0.111373901367,0.225646972656,27.2,74.05)" filter="url(#filter36)" xlink:href="#c7"/></g></g><filter id="filter36"><feColorMatrix in="SourceGraphic" type="matrix" values="1.0 0.0 0.0 0.0 0.0 0.0 1.0 0.0 0.0 0.0 0.0 0.0 1.0 0.0 0.0 0.0 0.0 0.0 0.23046875 0.0" result="cxform"/><feComposite operator="in" in2="SourceGraphic" result="color-xform"/></filter><g id="c26"><mask id="mask2"><use transform="matrix(1.0,0.0,0.0,1.0,0.0,0.0)" xlink:href="#c2"/></mask><g mask="url(#mask2)"><use transform="matrix(1.15496826172,0.0,0.0,1.15496826172,-8.05,-63.65)" xlink:href="#c25"/></g></g></defs><g><g><use transform="matrix(1.0,0.0,0.0,1.0,0.0,0.0)" xlink:href="#c1"/></g><g><use transform="matrix(1.19459533691,0.0,0.0,1.19459533691,-1.85,-5.95)" xlink:href="#c26"/></g></g></svg>