<?xml version='1.0' encoding='UTF-8'?>
<svg xmlns:xlink="http://www.w3.org/1999/xlink" xmlns="http://www.w3.org/2000/svg" version="1.1" width="60px" height="60px" viewBox="0.0 0.0 60.0 60.0"><defs><g id="c1"><path fill="#000000" fill-opacity="0.00392156862745" d="M0.0 0.0 L60.0 0.0 60.0 60.0 0.0 60.0 0.0 0.0"/></g><g id="c2"><path fill="none" stroke="#000000" stroke-width="1.0" stroke-opacity="0.301960784314" d="M0.7 12.25 Q-0.45 9.75 0.75 8.25 1.2 7.6 2.15 7.15 2.8 6.7 3.8 6.35 L17.5 1.95 30.2 7.0 41.35 31.7 Q42.95 35.15 40.2 36.7 39.5 37.3 38.3 37.65 L19.8 43.65 Q17.15 44.45 15.5 43.3 14.35 42.55 13.65 40.9 L0.7 12.25"/><path fill="#9d147b" stroke="none" d="M35.55 22.3 L31.5 13.2 29.75 9.2 16.95 4.25 5.5 7.85 Q1.65 9.1 3.35 12.8 L8.25 23.65 15.0 38.6 15.2 39.0 Q16.8 42.25 20.45 41.1 L37.2 35.7 Q41.1 34.5 39.35 30.75 L35.55 22.3 M2.15 7.15 Q2.8 6.7 3.8 6.35 L17.5 1.95 30.2 7.0 41.35 31.7 Q42.95 35.15 40.2 36.7 L38.9 37.25 23.2 42.3 20.4 43.2 19.1 43.5 17.3 43.4 Q15.3 42.9 14.2 40.5 L5.45 20.95 1.35 11.8 Q0.4 9.65 1.1 8.3 1.45 7.65 2.15 7.15"/><path fill="#c47fad" stroke="none" d="M31.5 13.2 L35.55 22.3 39.35 30.75 Q41.1 34.5 37.2 35.7 L20.45 41.1 Q16.8 42.25 15.2 39.0 L15.0 38.6 8.25 23.65 3.35 12.8 Q1.65 9.1 5.5 7.85 L16.95 4.25 29.75 9.2 31.5 13.2 M18.5 7.45 L9.1 10.55 9.55 11.6 Q9.8 12.8 9.15 13.6 8.4 14.45 7.1 14.4 L6.8 14.4 6.95 14.6 16.3 35.2 Q16.8 36.4 17.65 37.0 18.8 37.8 20.65 37.2 L34.0 32.9 33.7 32.1 Q33.45 30.9 34.1 30.1 34.75 29.3 35.95 29.35 L35.8 29.0 27.75 10.95 18.5 7.45"/><path fill="#630a4c" stroke="none" d="M0.75 8.25 Q1.2 7.6 2.15 7.15 1.45 7.65 1.1 8.3 L0.75 8.25 M23.3 42.5 L20.1 43.55 19.1 43.5 20.4 43.2 23.2 42.3 23.3 42.5 M15.5 43.3 Q14.35 42.55 13.65 40.9 L4.6 20.9 5.45 20.95 14.2 40.5 Q15.3 42.9 17.3 43.4 L15.5 43.3"/><path fill="#300525" stroke="none" d="M4.6 20.9 L0.7 12.25 Q-0.45 9.75 0.75 8.25 L1.1 8.3 Q0.4 9.65 1.35 11.8 L5.45 20.95 4.6 20.9 M40.2 36.7 Q39.5 37.3 38.3 37.65 L23.3 42.5 23.2 42.3 38.9 37.25 40.2 36.7 M20.1 43.55 L19.8 43.65 Q17.15 44.45 15.5 43.3 L17.3 43.4 19.1 43.5 20.1 43.55"/><path fill="#fcf2cf" stroke="none" d="M27.75 10.95 L35.8 29.0 35.95 29.35 Q34.75 29.3 34.1 30.1 33.45 30.9 33.7 32.1 L34.0 32.9 20.65 37.2 Q18.8 37.8 17.65 37.0 16.8 36.4 16.3 35.2 L6.95 14.6 6.8 14.4 7.1 14.4 Q8.4 14.45 9.15 13.6 9.8 12.8 9.55 11.6 L9.1 10.55 18.5 7.45 27.75 10.95"/><path fill="none" stroke="#bf9900" stroke-width="1.0" stroke-opacity="0.749019607843" d="M31.5 13.2 L35.55 22.3 M15.0 38.6 L8.25 23.65"/><path fill="none" stroke="#ffcc00" stroke-width="1.0" stroke-opacity="0.749019607843" d="M35.55 22.3 L39.35 30.75 Q41.1 34.5 37.2 35.7 L20.45 41.1 Q16.8 42.25 15.2 39.0 L15.0 38.6 M8.25 23.65 L3.35 12.8 Q1.65 9.1 5.5 7.85 L16.95 4.25 29.75 9.2 31.5 13.2"/><path fill="none" stroke="#000000" stroke-width="0.5" stroke-opacity="0.301960784314" d="M4.6 20.9 L0.7 12.25 Q-0.45 9.75 0.75 8.25 1.2 7.6 2.15 7.15 2.8 6.7 3.8 6.35 L17.5 1.95 M30.2 7.0 L41.35 31.7 Q42.95 35.15 40.2 36.7 39.5 37.3 38.3 37.65 L23.3 42.5 20.1 43.55 19.8 43.65 Q17.15 44.45 15.5 43.3 14.35 42.55 13.65 40.9 L4.6 20.9 M5.45 20.95 L1.35 11.8 Q0.4 9.65 1.1 8.3 1.45 7.65 2.15 7.15 M19.1 43.5 L17.3 43.4 Q15.3 42.9 14.2 40.5 L5.45 20.95 M23.2 42.3 L20.4 43.2 19.1 43.5 M40.2 36.7 L38.9 37.25 23.2 42.3"/><path fill="none" stroke="#f0b92b" stroke-width="0.5" d="M27.75 10.95 L35.8 29.0 35.95 29.35 Q34.75 29.3 34.1 30.1 33.45 30.9 33.7 32.1 L34.0 32.9 20.65 37.2 Q18.8 37.8 17.65 37.0 16.8 36.4 16.3 35.2 L6.95 14.6 6.8 14.4 7.1 14.4 Q8.4 14.45 9.15 13.6 9.8 12.8 9.55 11.6 L9.1 10.55 18.5 7.45"/><path fill="none" stroke="#ffcc00" stroke-width="0.5" stroke-opacity="0.749019607843" d="M18.5 7.45 L27.75 10.95"/></g><g id="c3"><path fill="#7fdbfe" stroke="none" d="M10.75 4.9 Q10.75 4.6 10.9 4.35 11.25 3.45 11.95 2.75 13.3 1.5 14.35 2.1 15.4 2.7 14.95 4.45 14.7 5.4 14.1 6.15 L13.75 6.5 Q13.1 7.15 12.35 7.35 L11.4 7.2 Q10.95 6.9 10.75 6.4 10.5 5.75 10.75 4.9 M7.5 5.9 Q7.0 5.85 6.6 5.5 6.05 5.0 5.8 4.15 L5.7 3.6 Q5.55 2.65 5.8 1.7 6.25 0.0 7.5 0.0 L7.6 0.0 Q8.85 0.0 9.3 1.7 9.55 2.65 9.4 3.6 L9.3 4.15 8.5 5.5 7.6 5.9 7.5 5.9 M4.35 4.9 Q4.6 5.75 4.35 6.4 L3.7 7.2 2.75 7.35 Q2.0 7.15 1.35 6.5 L1.0 6.15 Q0.4 5.4 0.15 4.45 -0.3 2.7 0.75 2.1 1.8 1.5 3.15 2.75 3.85 3.45 4.2 4.35 L4.35 4.9 M5.5 13.7 Q4.45 13.9 3.65 12.95 2.75 12.0 3.2 10.25 3.7 8.5 5.25 7.6 6.4 6.9 7.55 7.0 8.75 6.9 9.9 7.6 11.45 8.5 11.95 10.25 12.35 12.0 11.5 12.95 10.7 13.9 9.65 13.7 8.55 13.5 7.55 12.6 6.55 13.5 5.5 13.7"/></g><g id="c4"><g><use transform="matrix(1.0,0.0,0.0,1.0,0.0,0.0)" xlink:href="#c3"/></g></g><radialGradient gradientUnits="userSpaceOnUse" r="819.2" cx="0" cy="0" spreadMethod="pad" gradientTransform="matrix(0.0914459228516,0.0,0.0,0.0914459228516,0.6,3.4)" id="gradient1"><stop offset="0.0" stop-color="#ffffff"/><stop offset="1.0" stop-color="#ffffff" stop-opacity="0.0"/></radialGradient><g id="c5"><path stroke="none" fill="url(#gradient1)" d="M36.65 -54.65 Q60.05 -42.0 69.75 -17.95 80.55 8.9 68.0 34.1 55.45 59.35 26.8 68.2 -1.8 77.05 -29.7 64.3 -57.6 51.6 -68.45 24.75 -79.3 -2.05 -66.75 -27.25 L-66.7 -27.3 Q-54.1 -52.5 -25.5 -61.4 3.1 -70.2 31.0 -57.5 L36.65 -54.65"/></g><g id="c6"><g><use transform="matrix(1.0,0.0,0.0,1.0,0.0,0.0)" xlink:href="#c5"/></g></g><radialGradient gradientUnits="userSpaceOnUse" r="819.2" cx="0" cy="0" spreadMethod="pad" gradientTransform="matrix(0.209197998047,0.0,0.0,0.177108764648,67.15,107.2)" id="gradient2"><stop offset="0.356862745098" stop-color="#ffffff"/><stop offset="0.670588235294" stop-opacity="0.0"/></radialGradient><g id="c7"><path fill="none" stroke-linejoin="round" stroke-linecap="round" stroke="url(#gradient2)" stroke-width="0.5" d="M136.55 165.8 L68.6 106.0 68.4 106.0 118.25 201.5 M68.3 105.8 L68.35 105.8 68.3 105.8 68.3 105.85 68.4 106.0 68.3 106.0 86.55 211.5 M68.3 105.8 L68.3 105.85 68.3 106.0 68.15 105.95 18.25 151.55 M68.3 105.85 L68.25 105.85 68.3 106.0 50.0 193.2 M68.25 105.85 L68.15 105.95 0.05 97.7 M68.3 105.85 L68.25 105.8 68.25 105.85 M68.25 105.8 L68.2 105.7 0.0 45.7 M68.3 105.8 L68.25 105.75 68.25 105.8 M68.25 105.75 L68.2 105.7 18.25 10.05 M68.6 106.0 L68.35 105.8 118.25 60.15 M86.6 18.35 L68.3 105.8 M136.6 114.25 L68.6 106.0 M68.25 105.75 L49.95 0.05"/></g><g id="c8"><g><use transform="matrix(1.0,0.0,0.0,1.0,0.0,0.0)" xlink:href="#c7"/></g></g><g id="c9"><g><use transform="matrix(1.0,0.0,0.0,1.0,0.0,0.0)" xlink:href="#c2"/></g><g><use transform="matrix(0.238861083984,-0.0867004394531,0.10026550293,0.233917236328,34.25,31.15)" xlink:href="#c4"/></g><g><use transform="matrix(0.238861083984,-0.0867004394531,0.10026550293,0.233917236328,4.25,10.3)" xlink:href="#c4"/></g><g><use transform="matrix(0.141098022461,-0.0378112792969,0.111373901367,0.225646972656,20.25,20.65)" filter="url(#filter7)" xlink:href="#c6"/></g><g><use transform="matrix(-0.155029296875,0.0513153076172,0.0841827392578,0.147033691406,22.6,3.15)" filter="url(#filter8)" xlink:href="#c8"/></g></g><filter id="filter7"><feColorMatrix in="SourceGraphic" type="matrix" values="0.0 0.0 0.0 0.0 0.796875 0.0 0.0 0.0 0.0 0.59765625 0.0 0.0 0.0 0.0 0.19921875 0.0 0.0 0.0 1.0 0.0" result="cxform"/><feComposite operator="in" in2="SourceGraphic" result="color-xform"/></filter><filter id="filter8"><feColorMatrix in="SourceGraphic" type="matrix" values="0.0 0.0 0.0 0.0 0.99609375 0.0 0.0 0.0 0.0 0.99609375 0.0 0.0 0.0 0.0 0.99609375 0.0 0.0 0.0 1.0 0.0" result="cxform"/><feComposite operator="in" in2="SourceGraphic" result="color-xform"/></filter><g id="c10"><path fill="#696141" stroke="none" d="M21.95 80.45 L22.2 80.4 22.7 80.6 22.6 80.6 22.15 80.95 22.15 81.0 22.15 80.95 22.05 81.05 21.75 80.75 21.95 80.45 M23.45 83.25 L23.1 83.55 23.0 83.55 Q22.6 83.6 22.2 83.15 L22.6 83.3 22.7 83.0 23.25 83.3 23.45 83.25"/><path fill="#bfb072" stroke="none" d="M23.1 83.55 L22.85 83.65 Q22.45 83.65 22.05 83.2 21.65 82.75 21.55 82.1 21.4 81.45 21.55 81.0 L21.55 80.95 Q21.65 80.55 21.95 80.45 L21.75 80.75 21.7 80.9 21.65 81.15 Q21.55 81.5 21.6 81.8 L21.7 82.05 22.2 83.15 Q22.6 83.6 23.0 83.55 L23.1 83.55"/><path fill="#5f5a3a" stroke="none" d="M22.7 80.6 L22.9 80.7 23.3 81.0 23.75 81.9 23.7 82.85 23.6 83.05 23.45 83.25 23.25 83.3 22.7 83.0 22.6 83.3 22.2 83.15 21.7 82.05 21.6 81.8 Q21.55 81.5 21.65 81.15 L21.7 80.9 21.75 80.75 22.05 81.05 22.15 80.95 22.15 81.0 22.15 80.95 22.6 80.6 22.7 80.6"/><path fill="none" stroke="#000000" stroke-width="0.5" stroke-opacity="0.301960784314" d="M21.95 80.45 L22.2 80.4 22.7 80.6 22.9 80.7 23.3 81.0 23.75 81.9 23.7 82.85 23.6 83.05 23.45 83.25 23.1 83.55 22.85 83.65 Q22.45 83.65 22.05 83.2 21.65 82.75 21.55 82.1 21.4 81.45 21.55 81.0 L21.55 80.95 Q21.65 80.55 21.95 80.45"/><path fill="#696141" stroke="none" d="M20.25 72.65 L20.25 72.75 20.65 72.65 20.7 72.25 20.65 72.05 20.5 71.45 20.35 71.2 Q20.0 71.15 19.6 71.7 L19.15 72.2 19.55 72.75 19.9 72.95 20.25 72.65 M21.15 71.45 L21.4 71.95 21.6 72.45 21.75 71.8 21.7 71.45 21.6 70.95 20.8 71.05 21.15 71.45 M23.0 78.6 Q22.55 78.4 22.35 77.7 L22.25 77.2 23.35 76.15 24.9 77.0 Q24.4 77.2 24.75 78.0 24.75 78.25 24.9 78.5 L24.15 78.5 23.0 78.6 M23.4 71.85 L22.3 72.85 19.85 73.15 19.55 73.0 19.5 72.95 18.75 72.45 Q19.9 70.65 21.55 70.7 L21.85 70.65 Q22.55 70.75 23.05 71.3 L23.15 71.4 23.2 71.4 23.4 71.85 M32.0 80.15 L32.25 80.25 32.5 80.4 31.7 82.35 32.2 82.3 32.35 82.4 31.85 82.45 31.75 82.9 30.95 82.9 31.0 82.9 30.2 82.45 Q32.25 81.7 32.0 80.15 M32.55 80.05 L31.3 79.45 30.9 79.35 30.25 79.15 Q32.0 78.95 32.95 76.6 L33.0 76.5 33.15 75.5 Q33.35 74.1 32.7 73.4 L33.5 73.7 33.95 73.85 33.9 74.2 33.9 74.35 33.8 74.75 33.7 75.15 33.8 74.75 33.9 74.35 33.9 74.2 33.95 73.85 33.95 73.25 34.1 73.5 34.35 74.1 34.85 74.55 34.6 75.95 34.25 75.45 Q34.0 75.1 33.7 75.15 L33.55 75.95 32.9 78.7 32.55 80.05 M28.95 66.0 L29.05 66.05 29.2 66.1 Q30.7 66.5 31.8 67.6 L32.3 68.25 33.2 69.95 33.3 70.1 Q33.7 71.4 33.7 73.05 33.65 73.5 32.8 72.95 L32.75 72.95 32.75 72.9 32.65 72.85 31.4 72.05 32.0 71.3 32.05 71.1 32.05 69.75 31.7 68.85 31.25 68.05 30.5 67.05 Q29.95 66.55 29.25 66.15 L28.95 66.0 M34.85 71.45 L34.9 73.45 34.6 73.45 34.65 71.5 34.55 70.95 34.85 71.45 M34.05 77.5 L33.8 78.45 33.7 78.65 33.55 78.05 33.8 77.1 33.8 77.15 34.05 77.5 M27.95 82.9 L26.0 82.95 25.9 82.3 Q25.6 81.85 24.65 81.7 L26.55 81.75 27.4 81.9 Q27.15 82.1 27.4 82.45 L27.95 82.9 M24.2 71.55 L24.25 71.4 Q24.7 70.7 25.35 70.3 L25.45 70.2 26.25 69.9 27.1 69.8 Q27.95 69.95 28.55 70.35 L29.3 71.15 29.35 71.35 29.4 71.5 28.75 72.15 28.75 72.35 25.25 72.35 Q24.9 72.65 25.1 73.15 L25.3 73.65 Q25.75 74.65 25.1 74.75 24.65 74.55 24.35 73.85 L24.0 73.0 Q23.95 71.8 24.35 71.65 L24.2 71.55 M26.0 71.25 L25.65 70.3 25.1 70.65 26.2 71.95 26.1 71.4 26.0 71.25 M27.75 70.25 L27.25 70.1 27.15 71.8 27.75 70.25 M27.95 70.3 L27.55 71.5 28.3 70.45 27.95 70.3 M31.85 82.45 L31.7 82.35 31.85 82.45"/><path fill="#5f5a3a" stroke="none" d="M20.25 72.65 L19.9 72.95 19.55 72.75 19.15 72.2 19.6 71.7 20.15 72.45 20.2 72.65 20.25 72.65 M21.15 71.45 L20.8 71.05 21.6 70.95 21.7 71.45 21.75 71.8 21.6 72.45 21.4 71.95 21.15 71.45 M22.25 77.2 L23.2 76.0 23.3 75.85 23.45 75.95 23.9 76.2 24.9 77.0 23.35 76.15 22.25 77.2 M35.15 73.55 L35.35 74.05 34.75 77.55 34.65 77.45 34.55 77.05 35.15 73.55 M33.7 78.65 L33.35 80.0 32.35 82.4 32.2 82.3 33.45 78.55 33.55 78.05 33.7 78.65 M26.0 71.25 L26.1 71.4 26.2 71.95 25.1 70.65 25.65 70.3 26.0 71.25 M29.25 72.25 L29.0 72.2 Q29.0 71.85 29.5 71.8 L30.95 72.25 32.7 72.95 33.1 73.2 33.3 73.3 33.35 73.35 33.5 73.5 33.95 73.85 33.5 73.7 32.7 73.4 32.05 73.15 30.75 72.7 30.6 72.65 30.55 72.6 29.25 72.25 M27.95 70.3 L28.3 70.45 27.55 71.5 27.95 70.3"/><path fill="#49432e" stroke="none" d="M19.6 71.7 Q20.0 71.15 20.35 71.2 L20.5 71.45 20.65 72.05 20.7 72.25 20.65 72.65 20.25 72.75 20.25 72.65 20.2 72.65 20.15 72.45 19.6 71.7 M22.05 78.75 L23.0 78.6 24.15 78.5 24.9 78.5 26.4 78.55 27.65 78.65 29.65 79.0 29.85 79.05 30.2 79.1 30.25 79.15 30.9 79.35 31.3 79.45 32.55 80.05 32.5 80.4 32.25 80.25 32.0 80.15 30.6 79.55 30.5 79.5 30.05 79.4 29.95 79.35 29.6 79.25 27.8 78.9 23.9 78.75 23.2 78.85 21.45 79.2 21.1 79.3 21.2 79.6 20.8 79.2 20.9 79.05 21.75 78.8 22.05 78.75 M34.75 77.55 L34.05 77.5 33.8 77.15 33.85 77.15 34.4 77.15 34.65 77.45 34.75 77.55 M30.95 82.9 L27.95 82.9 27.4 82.45 Q27.15 82.1 27.4 81.9 L27.8 81.95 31.0 82.9 30.95 82.9 M26.0 82.95 L23.25 82.95 Q22.45 82.35 22.85 82.15 L24.65 81.7 Q25.6 81.85 25.9 82.3 L26.0 82.95 M27.75 70.25 L27.15 71.8 27.25 70.1 27.75 70.25"/><path fill="#d0c586" stroke="none" d="M19.85 73.15 Q19.7 73.95 20.1 75.45 L20.15 75.7 Q20.3 76.5 20.6 76.95 20.9 77.6 21.35 77.85 L21.8 78.25 Q22.2 78.55 22.05 78.75 L21.75 78.8 20.9 79.05 20.8 79.2 Q20.1 77.5 19.8 75.85 L19.6 73.45 19.55 73.0 19.85 73.15 M23.2 76.0 L22.5 76.25 22.75 75.2 23.2 74.1 23.45 73.55 23.45 73.5 23.4 71.85 23.2 71.4 23.15 71.4 23.05 71.3 Q22.55 70.75 21.85 70.65 L21.55 70.7 Q19.9 70.65 18.75 72.45 18.8 71.85 19.85 71.0 21.0 67.8 23.3 66.55 L23.4 66.5 Q23.8 66.25 24.3 66.1 L24.8 65.95 25.9 65.75 27.5 65.6 28.45 65.6 28.95 65.7 29.45 65.75 Q30.45 66.05 31.2 66.5 31.65 67.1 31.35 67.0 30.35 66.4 29.2 66.05 L29.2 66.1 29.05 66.05 28.95 66.0 28.3 65.9 Q29.55 66.8 29.5 67.6 29.1 66.75 28.6 66.5 L27.05 66.15 25.45 66.25 24.45 66.45 23.5 66.85 Q21.9 67.7 21.05 69.15 L20.5 70.45 22.1 70.35 Q22.55 70.55 23.0 70.9 L23.25 71.15 23.3 71.2 23.45 71.45 Q23.75 71.9 23.65 72.65 L24.55 74.6 Q25.15 75.4 26.4 75.05 27.5 74.8 28.35 73.55 L27.85 74.35 27.8 74.4 Q27.05 75.35 25.8 75.4 L24.95 75.2 24.85 75.15 24.4 74.7 24.05 74.05 23.9 73.55 23.65 73.2 23.45 75.95 23.3 75.85 23.2 76.0 M21.2 79.6 L21.1 79.3 21.45 79.2 21.85 80.65 22.4 82.0 23.7 81.6 23.85 81.5 24.1 81.5 26.75 81.55 26.95 81.6 27.8 80.75 28.0 80.25 Q28.15 79.65 27.8 78.9 L29.6 79.25 29.95 79.35 30.05 79.4 30.5 79.5 30.6 79.55 Q29.15 80.3 29.4 82.1 L30.2 82.45 31.0 82.9 27.8 81.95 27.4 81.9 26.55 81.75 24.65 81.7 22.85 82.15 Q22.45 82.35 23.25 82.95 L23.1 82.95 22.1 82.15 22.05 82.15 21.2 79.6 M26.05 67.55 L26.4 67.6 Q27.55 68.55 26.15 69.05 25.7 69.05 25.3 69.5 L25.15 69.7 23.95 70.35 23.65 70.4 22.25 70.1 22.1 69.9 Q21.6 68.45 23.9 67.6 L24.15 67.5 24.4 67.55 26.05 67.55 M29.4 71.5 L29.35 71.35 29.3 71.15 28.55 70.35 Q27.95 69.95 27.1 69.8 L26.25 69.9 25.45 70.2 25.35 70.3 Q24.7 70.7 24.25 71.4 L24.2 71.55 24.25 71.45 24.7 70.55 25.3 69.95 Q25.8 69.5 26.5 69.45 L27.1 69.55 28.65 70.1 28.75 70.15 29.5 70.9 29.6 71.15 30.0 71.4 30.75 71.7 31.15 71.9 31.4 72.05 32.65 72.85 32.75 72.9 32.7 72.95 31.1 72.15 29.4 71.5"/><path fill="#bfb072" stroke="none" d="M19.85 73.15 L20.05 74.2 20.4 75.1 Q20.9 76.1 21.75 75.95 L22.8 74.85 23.2 74.1 22.75 75.2 22.5 76.25 23.2 76.0 22.25 77.2 22.35 77.7 Q22.55 78.4 23.0 78.6 L22.05 78.75 Q22.2 78.55 21.8 78.25 L21.35 77.85 Q20.9 77.6 20.6 76.95 20.3 76.5 20.15 75.7 L20.1 75.45 Q19.7 73.95 19.85 73.15 M23.2 78.85 L23.9 78.75 27.8 78.9 Q28.15 79.65 28.0 80.25 L27.8 80.75 26.95 81.6 26.75 81.55 24.1 81.5 23.85 81.5 23.7 81.6 Q22.3 81.4 22.15 80.65 L22.05 80.45 Q21.7 79.3 23.2 78.85 M26.4 78.55 L24.9 78.5 Q24.75 78.25 24.75 78.0 24.4 77.2 24.9 77.0 26.3 77.3 25.4 76.25 L24.75 75.4 24.4 74.7 24.85 75.15 24.95 75.25 Q25.55 75.8 26.3 75.65 27.3 75.4 28.0 74.6 L28.2 74.35 28.85 72.55 Q28.9 72.25 29.25 72.25 L30.55 72.6 29.0 72.65 28.35 74.7 28.15 74.95 27.05 76.5 Q25.7 78.2 26.4 78.55 M28.35 73.55 Q27.5 74.8 26.4 75.05 25.15 75.4 24.55 74.6 L23.65 72.65 Q23.75 71.9 23.45 71.45 L23.3 71.2 23.25 71.15 23.0 70.9 Q22.55 70.55 22.1 70.35 L20.5 70.45 21.05 69.15 Q21.9 67.7 23.5 66.85 L24.45 66.45 25.45 66.25 27.05 66.15 28.6 66.5 Q29.1 66.75 29.5 67.6 29.5 68.05 29.1 68.5 28.3 69.4 28.65 70.1 L27.1 69.55 26.5 69.45 Q25.8 69.5 25.3 69.95 L24.7 70.55 24.25 71.45 24.2 71.55 24.35 71.65 Q23.95 71.8 24.0 73.0 L24.35 73.85 Q24.65 74.55 25.1 74.75 25.75 74.65 25.3 73.65 L25.1 73.15 Q24.9 72.65 25.25 72.35 L28.75 72.35 28.35 73.55 M29.2 66.1 L29.2 66.05 Q30.35 66.4 31.35 67.0 31.65 67.1 31.2 66.5 L32.1 67.3 32.4 67.7 32.6 67.95 33.5 69.9 Q34.05 71.6 33.95 73.25 L33.95 73.85 33.5 73.5 33.35 73.35 33.3 73.3 33.1 73.2 32.8 72.95 Q33.65 73.5 33.7 73.05 33.7 71.4 33.3 70.1 L33.2 69.95 32.3 68.25 31.8 67.6 Q30.7 66.5 29.2 66.1 M29.45 65.75 L28.95 65.7 28.45 65.6 27.85 65.05 Q27.4 64.75 27.0 64.7 L26.95 64.65 26.65 64.8 Q25.0 65.45 24.3 66.1 23.8 66.25 23.4 66.5 24.45 65.45 26.1 64.75 L27.0 64.35 27.7 63.95 28.1 64.15 28.45 64.35 29.9 65.0 Q31.65 65.65 32.75 66.8 L33.2 67.35 33.55 67.85 34.1 69.3 34.55 70.95 34.65 71.5 34.6 73.45 34.5 71.9 34.2 70.1 34.0 69.45 33.1 67.5 32.55 66.9 31.7 66.2 Q30.55 65.4 28.85 64.75 28.65 65.1 29.45 65.75 M35.0 73.5 L35.15 73.55 34.55 77.05 34.65 77.45 34.4 77.15 33.85 77.15 Q34.35 77.1 34.45 76.9 L34.6 75.95 34.85 74.55 35.0 73.5 M26.05 67.55 L24.4 67.55 24.15 67.5 23.9 67.6 Q21.6 68.45 22.1 69.9 L22.25 70.1 23.65 70.4 23.95 70.35 25.15 69.7 25.3 69.5 Q25.7 69.05 26.15 69.05 27.55 68.55 26.4 67.6 L26.05 67.55"/><path fill="#a89e64" stroke="none" d="M23.2 74.1 L22.8 74.85 21.75 75.95 Q20.9 76.1 20.4 75.1 L20.05 74.2 19.85 73.15 22.3 72.85 23.4 71.85 23.45 73.5 23.45 73.55 23.2 74.1 M21.45 79.2 L23.2 78.85 Q21.7 79.3 22.05 80.45 L22.15 80.65 Q22.3 81.4 23.7 81.6 L22.4 82.0 21.85 80.65 21.45 79.2 M30.6 79.55 L32.0 80.15 Q32.25 81.7 30.2 82.45 L29.4 82.1 Q29.15 80.3 30.6 79.55 M32.5 80.4 L32.55 80.05 32.9 78.7 33.55 75.95 33.7 75.15 Q34.0 75.1 34.25 75.45 L34.6 75.95 34.45 76.9 Q34.35 77.1 33.85 77.15 L33.8 77.1 33.55 78.05 33.45 78.55 32.2 82.3 31.7 82.35 32.5 80.4 M29.65 79.0 L27.65 78.65 26.4 78.55 Q25.7 78.2 27.05 76.5 L28.15 74.95 28.35 74.7 29.0 72.65 30.55 72.6 30.6 72.65 30.75 72.7 32.05 73.15 Q29.15 72.9 28.4 75.35 L28.15 76.55 Q28.0 77.9 29.65 79.0 M23.45 75.95 L23.65 73.2 23.9 73.55 24.05 74.05 24.4 74.7 24.75 75.4 25.4 76.25 Q26.3 77.3 24.9 77.0 L23.9 76.2 23.45 75.95 M24.85 75.15 L24.95 75.2 25.8 75.4 Q27.05 75.35 27.8 74.4 L27.85 74.35 28.35 73.55 28.75 72.35 28.75 72.15 29.4 71.5 31.1 72.15 32.7 72.95 32.75 72.9 32.75 72.95 32.8 72.95 33.1 73.2 32.7 72.95 30.95 72.25 29.5 71.8 Q29.0 71.85 29.0 72.2 L29.25 72.25 Q28.9 72.25 28.85 72.55 L28.2 74.35 28.0 74.6 Q27.3 75.4 26.3 75.65 25.55 75.8 24.95 75.25 L24.85 75.15 M29.5 67.6 Q29.55 66.8 28.3 65.9 L28.95 66.0 29.25 66.15 Q29.95 66.55 30.5 67.05 30.15 67.05 29.9 67.3 L29.5 68.3 29.5 69.5 29.85 70.55 30.75 71.7 30.0 71.4 29.6 71.15 29.5 70.9 28.75 70.15 28.65 70.1 Q28.3 69.4 29.1 68.5 29.5 68.05 29.5 67.6 M31.2 66.5 Q30.45 66.05 29.45 65.75 28.65 65.1 28.85 64.75 30.55 65.4 31.7 66.2 L32.55 66.9 33.1 67.5 34.0 69.45 34.2 70.1 34.5 71.9 34.6 73.45 34.9 73.45 35.0 73.5 34.85 74.55 34.35 74.1 34.1 73.5 33.95 73.25 Q34.05 71.6 33.5 69.9 L32.6 67.95 32.4 67.7 32.1 67.3 31.2 66.5 M28.45 65.6 L27.5 65.6 25.9 65.75 24.8 65.95 24.3 66.1 Q25.0 65.45 26.65 64.8 L26.95 64.65 27.0 64.7 Q27.4 64.75 27.85 65.05 L28.45 65.6 M33.55 67.85 L33.9 68.45 34.25 69.25 34.75 71.05 34.85 71.45 34.55 70.95 34.1 69.3 33.55 67.85 M28.75 72.15 L29.0 72.2 28.75 72.15"/><path fill="#968e5a" stroke="none" d="M30.25 79.15 L30.2 79.1 29.85 79.05 29.65 79.0 Q28.0 77.9 28.15 76.55 L28.4 75.35 Q29.15 72.9 32.05 73.15 L32.7 73.4 Q33.35 74.1 33.15 75.5 L33.0 76.5 32.95 76.6 Q32.0 78.95 30.25 79.15 M31.4 72.05 L31.15 71.9 30.75 71.7 29.85 70.55 29.5 69.5 29.5 68.3 29.9 67.3 Q30.15 67.05 30.5 67.05 L31.25 68.05 31.7 68.85 32.05 69.75 32.05 71.1 32.0 71.3 31.4 72.05"/><path fill="#1a4d2e" stroke="none" d="M33.8 77.1 L33.85 77.15 33.8 77.15 33.8 77.1"/><path fill="none" stroke="#000000" stroke-width="0.5" stroke-opacity="0.301960784314" d="M19.85 73.15 L19.55 73.0 19.6 73.45 19.8 75.85 Q20.1 77.5 20.8 79.2 M19.55 73.0 L19.5 72.95 19.55 73.0 M23.4 66.5 L23.3 66.55 Q21.0 67.8 19.85 71.0 18.8 71.85 18.75 72.45 L19.5 72.95 M21.2 79.6 L20.8 79.2 M21.2 79.6 L21.1 79.3 21.45 79.2 23.2 78.85 23.9 78.75 27.8 78.9 29.6 79.25 29.95 79.35 30.05 79.4 30.5 79.5 30.6 79.55 32.0 80.15 32.25 80.25 32.5 80.4 32.55 80.05 M31.2 66.5 Q30.45 66.05 29.45 65.75 L28.95 65.7 28.45 65.6 27.5 65.6 25.9 65.75 24.8 65.95 24.3 66.1 Q23.8 66.25 23.4 66.5 24.45 65.45 26.1 64.75 L27.0 64.35 27.7 63.95 28.1 64.15 28.45 64.35 29.9 65.0 Q31.65 65.65 32.75 66.8 L33.2 67.35 33.55 67.85 33.9 68.45 34.25 69.25 34.75 71.05 34.85 71.45 34.9 73.45 35.0 73.5 35.15 73.55 35.35 74.05 34.75 77.55 34.05 77.5 33.8 78.45 33.7 78.65 33.35 80.0 32.35 82.4 31.85 82.45 31.75 82.9 30.95 82.9 27.95 82.9 26.0 82.95 23.25 82.95 23.1 82.95 22.1 82.15 22.05 82.15 21.2 79.6 M24.9 77.0 L23.35 76.15 22.25 77.2 M25.25 72.35 L28.75 72.35 28.75 72.15 M29.25 72.25 L29.0 72.2 28.75 72.15 M30.55 72.6 L29.25 72.25 M32.05 73.15 L30.75 72.7 30.6 72.65 30.55 72.6 M31.2 66.5 L32.1 67.3 32.4 67.7 32.6 67.95 33.5 69.9 Q34.05 71.6 33.95 73.25 M34.6 73.45 L34.9 73.45 M32.05 73.15 L32.7 73.4 33.5 73.7 33.95 73.85 33.95 73.25 M33.7 75.15 L33.8 74.75 33.9 74.35 33.9 74.2 33.95 73.85 M33.7 75.15 L33.55 75.95 32.9 78.7 32.55 80.05 M31.7 82.35 L31.85 82.45 M31.7 82.35 L32.5 80.4"/><path fill="#d0c586" stroke="none" d="M20.1 72.45 L20.4 72.15 20.55 72.05 21.1 71.85 21.55 71.85 21.8 71.9 22.35 72.3 22.5 72.5 Q22.9 73.1 22.75 73.8 22.65 74.5 22.15 74.9 L21.6 75.2 20.95 75.2 20.4 74.95 20.0 74.55 19.95 74.4 Q19.65 73.85 19.75 73.25 19.85 72.8 20.1 72.45 M27.9 73.8 L27.3 74.3 26.75 74.45 26.7 74.45 26.1 74.35 25.55 74.05 25.5 74.05 Q25.05 73.55 24.95 72.9 24.9 72.2 25.35 71.65 L25.9 71.2 26.5 71.05 26.6 71.05 27.2 71.1 27.75 71.4 27.8 71.45 Q28.25 71.9 28.3 72.55 28.35 73.25 27.9 73.8"/><path fill="#bfb072" stroke="none" d="M22.0 78.3 L21.9 77.9 22.65 77.7 23.8 77.5 25.0 77.6 25.15 77.75 23.6 77.65 23.2 78.05 22.6 78.15 22.7 77.75 22.05 77.95 22.0 78.3 M25.3 79.05 L25.4 79.25 25.45 79.4 22.25 79.7 22.2 79.55 22.35 79.3 22.4 79.45 25.25 79.25 25.3 79.05"/><path fill="#a89e64" stroke="none" d="M25.15 77.75 L25.15 78.05 24.55 77.95 23.2 78.05 23.6 77.65 25.15 77.75 M25.45 79.4 L25.45 79.55 22.3 79.85 22.25 79.7 25.45 79.4 M22.0 78.4 L22.0 78.3 22.05 77.95 22.7 77.75 22.6 78.15 22.15 78.2 22.0 78.4"/><path fill="#423e28" stroke="none" d="M25.2 78.3 L25.3 79.05 25.25 79.25 22.4 79.45 22.35 79.3 22.2 78.5 22.2 78.4 22.4 78.35 23.2 78.2 25.1 78.15 25.2 78.3"/><path fill="#696141" stroke="none" d="M25.15 78.05 L25.2 78.3 25.1 78.15 23.2 78.2 22.4 78.35 22.2 78.4 22.2 78.5 22.0 78.4 22.15 78.2 22.6 78.15 23.2 78.05 24.55 77.95 25.15 78.05 M25.45 79.55 L25.35 79.75 24.8 79.8 23.5 79.85 Q22.75 79.9 23.2 81.0 22.8 80.75 22.5 80.0 L22.3 79.85 25.45 79.55"/><path fill="none" stroke="#000000" stroke-width="0.5" stroke-opacity="0.301960784314" d="M20.1 72.45 L20.4 72.15 20.55 72.05 21.1 71.85 21.55 71.85 21.8 71.9 22.35 72.3 22.5 72.5 Q22.9 73.1 22.75 73.8 22.65 74.5 22.15 74.9 L21.6 75.2 20.95 75.2 20.4 74.95 20.0 74.55 19.95 74.4 Q19.65 73.85 19.75 73.25 19.85 72.8 20.1 72.45 M22.0 78.3 L21.9 77.9 22.65 77.7 23.8 77.5 25.0 77.6 25.15 77.75 25.15 78.05 25.2 78.3 25.3 79.05 25.4 79.25 25.45 79.4 25.45 79.55 25.35 79.75 M22.3 79.85 L22.25 79.7 22.2 79.55 22.35 79.3 22.2 78.5 22.0 78.4 22.0 78.3 M22.35 79.3 L22.4 79.45 25.25 79.25 25.3 79.05 M25.2 78.3 L25.1 78.15 23.2 78.2 22.4 78.35 22.2 78.4 22.2 78.5 M27.9 73.8 L27.3 74.3 26.75 74.45 26.7 74.45 26.1 74.35 25.55 74.05 25.5 74.05 Q25.05 73.55 24.95 72.9 24.9 72.2 25.35 71.65 L25.9 71.2 26.5 71.05 26.6 71.05 27.2 71.1 27.75 71.4 27.8 71.45 Q28.25 71.9 28.3 72.55 28.35 73.25 27.9 73.8"/></g><g id="c11"><g><use transform="matrix(1.0,0.0,0.0,1.0,0.0,0.0)" xlink:href="#c5"/></g></g><g id="c12"><path fill="#696141" stroke="none" d="M25.0 82.15 L25.9 82.05 26.75 82.0 Q25.6 83.1 26.35 84.15 L25.25 84.3 24.7 84.35 Q25.25 83.4 25.0 82.15 M30.2 82.25 L31.45 82.6 Q31.7 84.05 31.15 84.75 L29.65 84.4 29.0 84.25 Q28.55 83.45 30.2 82.25"/><path fill="#a89e64" stroke="none" d="M31.45 82.6 Q32.05 82.75 32.0 83.8 L31.85 85.2 Q31.8 85.0 31.15 84.75 31.7 84.05 31.45 82.6 M23.1 82.65 L23.95 82.35 Q22.4 83.2 23.4 84.8 L23.0 84.95 Q22.7 83.7 23.1 82.65"/><path fill="#bfb072" stroke="none" d="M25.0 82.15 Q25.25 83.4 24.7 84.35 L25.25 84.3 26.35 84.15 Q25.6 83.1 26.75 82.0 L28.8 82.05 Q29.2 82.85 27.75 84.15 L29.0 84.25 29.65 84.4 31.15 84.75 Q31.8 85.0 31.85 85.2 L31.75 85.4 Q31.6 84.85 29.6 84.5 L28.95 84.35 27.8 84.3 25.75 84.4 25.35 84.45 Q23.15 84.8 22.85 85.5 L22.7 85.25 23.0 84.95 23.4 84.8 Q22.4 83.2 23.95 82.35 L25.0 82.15"/><path fill="#5f5a3a" stroke="none" d="M31.75 85.4 Q31.3 85.85 29.1 86.15 L27.8 84.3 28.95 84.35 29.6 84.5 Q31.6 84.85 31.75 85.4 M27.45 86.2 L24.85 86.05 Q23.25 85.9 22.85 85.5 23.15 84.8 25.35 84.45 L25.75 84.4 Q27.15 85.15 27.45 86.2"/><path fill="#d0c586" stroke="none" d="M28.8 82.05 L30.2 82.25 Q28.55 83.45 29.0 84.25 L27.75 84.15 Q29.2 82.85 28.8 82.05 M22.7 85.25 L22.75 83.05 23.1 82.65 Q22.7 83.7 23.0 84.95 L22.7 85.25"/><path fill="#49432e" stroke="none" d="M29.1 86.15 L28.2 86.2 27.45 86.2 Q27.15 85.15 25.75 84.4 L27.8 84.3 29.1 86.15"/><path fill="none" stroke="#000000" stroke-width="0.5" stroke-opacity="0.301960784314" d="M26.75 82.0 L25.9 82.05 25.0 82.15 M26.75 82.0 L28.8 82.05 30.2 82.25 31.45 82.6 Q32.05 82.75 32.0 83.8 L31.85 85.2 31.75 85.4 Q31.3 85.85 29.1 86.15 L28.2 86.2 27.45 86.2 24.85 86.05 Q23.25 85.9 22.85 85.5 L22.7 85.25 22.75 83.05 23.1 82.65 23.95 82.35 25.0 82.15"/><path fill="#696141" stroke="none" d="M33.15 79.75 L33.55 79.65 33.75 79.7 34.1 80.1 34.05 80.1 33.5 80.2 33.4 80.15 33.3 80.15 Q33.15 80.05 33.15 79.75 M32.8 82.85 L32.7 82.75 Q32.35 82.6 32.35 82.0 L32.55 82.3 Q32.8 82.35 32.8 82.2 32.9 82.55 33.15 82.7 L33.25 82.8 32.8 82.85"/><path fill="#bfb072" stroke="none" d="M33.55 79.65 L33.15 79.75 33.05 79.8 32.85 80.0 32.55 80.55 32.45 80.8 Q32.25 81.45 32.3 82.0 L32.35 82.0 Q32.35 82.6 32.7 82.75 L32.8 82.85 32.55 82.8 32.15 81.95 Q32.05 81.4 32.3 80.75 32.55 80.15 32.9 79.85 L33.55 79.65"/><path fill="#a89e64" stroke="none" d="M32.55 80.55 L32.85 80.0 33.05 79.8 33.15 79.75 Q33.15 80.05 33.3 80.15 L33.4 80.15 33.5 80.2 34.05 80.1 34.1 80.1 34.2 80.25 33.55 80.3 33.5 80.3 33.1 80.9 33.05 81.0 32.95 81.95 32.95 82.1 33.25 82.55 33.55 82.7 33.25 82.8 33.15 82.7 Q32.9 82.55 32.8 82.2 L32.8 82.05 Q32.75 81.55 32.95 81.0 L33.0 80.85 32.9 80.6 32.8 80.4 Q32.7 80.4 32.55 80.55"/><path fill="#5f5a3a" stroke="none" d="M32.35 82.0 L32.3 82.0 Q32.25 81.45 32.45 80.8 L32.55 80.55 Q32.7 80.4 32.8 80.4 L32.9 80.6 33.0 80.85 32.95 81.0 Q32.75 81.55 32.8 82.05 L32.8 82.2 Q32.8 82.35 32.55 82.3 L32.35 82.0 M34.2 80.25 L34.35 80.75 34.25 81.8 33.7 82.6 33.55 82.7 33.25 82.55 32.95 82.1 32.95 81.95 33.05 81.0 33.1 80.9 33.5 80.3 33.55 80.3 34.2 80.25"/><path fill="none" stroke="#000000" stroke-width="0.5" stroke-opacity="0.301960784314" d="M33.55 79.65 L32.9 79.85 Q32.55 80.15 32.3 80.75 32.05 81.4 32.15 81.95 L32.55 82.8 32.8 82.85 M34.1 80.1 L33.75 79.7 33.55 79.65 M34.1 80.1 L34.2 80.25 34.35 80.75 34.25 81.8 33.7 82.6 33.55 82.7 33.25 82.8 32.8 82.85"/></g><g id="c13"><path fill="#000000" fill-opacity="0.2" d="M67.1 47.3 Q60.05 84.7 45.15 118.0 L67.1 47.3"/><path fill="none" stroke="#000000" stroke-width="0.5" stroke-opacity="0.301960784314" d="M72.8 0.4 Q71.4 24.6 67.1 47.3 60.05 84.7 45.15 118.0 L45.0 118.3 Q39.4 130.85 24.25 156.55 M47.2 54.0 Q48.65 56.75 43.75 69.05 26.65 113.65 20.4 117.6 17.55 109.85 28.1 81.45 38.25 56.05 47.2 54.0 M48.0 24.8 Q34.25 59.6 13.6 90.6 7.15 100.3 0.0 109.6 M66.8 0.0 Q53.65 80.05 13.6 143.35 L12.4 145.2 M67.1 47.3 L45.15 118.0"/></g><g id="c14"><g><use transform="matrix(1.0,0.0,0.0,1.0,0.0,0.0)" xlink:href="#c13"/></g></g><g id="c15"><g><use transform="matrix(1.0,0.0,0.0,1.0,6.3,53.35)" xlink:href="#c9"/></g><g><use transform="matrix(1.0,0.0,0.0,1.0,0.0,0.0)" xlink:href="#c10"/></g><g><use transform="matrix(0.0181274414062,-0.00334167480469,0.000259399414062,0.0215301513672,26.65,72.5)" filter="url(#filter13)" xlink:href="#c11"/></g><g><use transform="matrix(0.0181274414062,-0.00334167480469,0.00363159179688,0.0209197998047,21.2,73.35)" filter="url(#filter14)" xlink:href="#c11"/></g><g><use transform="matrix(1.0,0.0,0.0,1.0,0.0,0.0)" xlink:href="#c12"/></g><g><use transform="matrix(-0.0691528320312,-0.119659423828,-0.0873870849609,0.0512542724609,38.0,78.2)" filter="url(#filter16)" xlink:href="#c14"/></g><g><use transform="matrix(-0.0540161132812,-0.118927001953,-0.0665130615234,0.0440063476562,31.8,72.75)" filter="url(#filter17)" xlink:href="#c14"/></g><g><use transform="matrix(0.0663604736328,-0.0113525390625,0.0187377929688,0.117324829102,27.6,75.5)" filter="url(#filter18)" xlink:href="#c11"/></g><g><use transform="matrix(0.141098022461,-0.0378112792969,0.111373901367,0.225646972656,27.2,74.05)" filter="url(#filter19)" xlink:href="#c6"/></g></g><filter id="filter13"><feColorMatrix in="SourceGraphic" type="matrix" values="1.0 0.0 0.0 0.0 0.0 0.0 1.0 0.0 0.0 0.0 0.0 0.0 1.0 0.0 0.0 0.0 0.0 0.0 0.33984375 0.0" result="cxform"/><feComposite operator="in" in2="SourceGraphic" result="color-xform"/></filter><filter id="filter14"><feColorMatrix in="SourceGraphic" type="matrix" values="1.0 0.0 0.0 0.0 0.0 0.0 1.0 0.0 0.0 0.0 0.0 0.0 1.0 0.0 0.0 0.0 0.0 0.0 0.33984375 0.0" result="cxform"/><feComposite operator="in" in2="SourceGraphic" result="color-xform"/></filter><filter id="filter16"><feColorMatrix in="SourceGraphic" type="matrix" values="1.0 0.0 0.0 0.0 0.0 0.0 1.0 0.0 0.0 0.0 0.0 0.0 1.0 0.0 0.0 0.0 0.0 0.0 0.2890625 0.0" result="cxform"/><feComposite operator="in" in2="SourceGraphic" result="color-xform"/></filter><filter id="filter17"><feColorMatrix in="SourceGraphic" type="matrix" values="1.0 0.0 0.0 0.0 0.0 0.0 1.0 0.0 0.0 0.0 0.0 0.0 1.0 0.0 0.0 0.0 0.0 0.0 0.2890625 0.0" result="cxform"/><feComposite operator="in" in2="SourceGraphic" result="color-xform"/></filter><filter id="filter18"><feColorMatrix in="SourceGraphic" type="matrix" values="0.0 0.0 0.0 0.0 0.3984375 0.0 0.0 0.0 0.0 0.59765625 0.0 0.0 0.0 0.0 0.3984375 0.0 0.0 0.0 0.12890625 0.0" result="cxform"/><feComposite operator="in" in2="SourceGraphic" result="color-xform"/></filter><filter id="filter19"><feColorMatrix in="SourceGraphic" type="matrix" values="1.0 0.0 0.0 0.0 0.0 0.0 1.0 0.0 0.0 0.0 0.0 0.0 1.0 0.0 0.0 0.0 0.0 0.0 0.23046875 0.0" result="cxform"/><feComposite operator="in" in2="SourceGraphic" result="color-xform"/></filter></defs><g><g><use transform="matrix(1.0,0.0,0.0,1.0,0.0,0.0)" xlink:href="#c1"/></g><g><use transform="matrix(1.15496826172,0.0,0.0,1.15496826172,-1.55,-56.9)" xlink:href="#c15"/></g></g></svg>