<?xml version='1.0' encoding='UTF-8'?>
<svg xmlns:xlink="http://www.w3.org/1999/xlink" xmlns="http://www.w3.org/2000/svg" version="1.1" width="60px" height="60px" viewBox="0.0 0.0 60.0 60.0"><defs><g id="c1"><path fill="#000000" fill-opacity="0.00392156862745" d="M0.0 0.0 L60.0 0.0 60.0 60.0 0.0 60.0 0.0 0.0"/></g><g id="c2"><path fill="none" stroke="#000000" stroke-width="1.0" stroke-opacity="0.301960784314" d="M0.7 12.25 Q-0.45 9.75 0.75 8.25 1.2 7.6 2.15 7.15 2.8 6.7 3.8 6.35 L17.5 1.95 30.2 7.0 41.35 31.7 Q42.95 35.15 40.2 36.7 39.5 37.3 38.3 37.65 L19.8 43.65 Q17.15 44.45 15.5 43.3 14.35 42.55 13.65 40.9 L0.7 12.25"/><path fill="#9d147b" stroke="none" d="M35.55 22.3 L31.5 13.2 29.75 9.2 16.95 4.25 5.5 7.85 Q1.65 9.1 3.35 12.8 L8.25 23.65 15.0 38.6 15.2 39.0 Q16.8 42.25 20.45 41.1 L37.2 35.7 Q41.1 34.5 39.35 30.75 L35.55 22.3 M2.15 7.15 Q2.8 6.7 3.8 6.35 L17.5 1.95 30.2 7.0 41.35 31.7 Q42.95 35.15 40.2 36.7 L38.9 37.25 23.2 42.3 20.4 43.2 19.1 43.5 17.3 43.4 Q15.3 42.9 14.2 40.5 L5.45 20.95 1.35 11.8 Q0.4 9.65 1.1 8.3 1.45 7.65 2.15 7.15"/><path fill="#c47fad" stroke="none" d="M31.5 13.2 L35.55 22.3 39.35 30.75 Q41.1 34.5 37.2 35.7 L20.45 41.1 Q16.8 42.25 15.2 39.0 L15.0 38.6 8.25 23.65 3.35 12.8 Q1.65 9.1 5.5 7.85 L16.95 4.25 29.75 9.2 31.5 13.2 M18.5 7.45 L9.1 10.55 9.55 11.6 Q9.8 12.8 9.15 13.6 8.4 14.45 7.1 14.4 L6.8 14.4 6.95 14.6 16.3 35.2 Q16.8 36.4 17.65 37.0 18.8 37.8 20.65 37.2 L34.0 32.9 33.7 32.1 Q33.45 30.9 34.1 30.1 34.75 29.3 35.95 29.35 L35.8 29.0 27.75 10.95 18.5 7.45"/><path fill="#630a4c" stroke="none" d="M0.75 8.25 Q1.2 7.6 2.15 7.15 1.45 7.65 1.1 8.3 L0.75 8.25 M23.3 42.5 L20.1 43.55 19.1 43.5 20.4 43.2 23.2 42.3 23.3 42.5 M15.5 43.3 Q14.35 42.55 13.65 40.9 L4.6 20.9 5.45 20.95 14.2 40.5 Q15.3 42.9 17.3 43.4 L15.5 43.3"/><path fill="#300525" stroke="none" d="M4.6 20.9 L0.7 12.25 Q-0.45 9.75 0.75 8.25 L1.1 8.3 Q0.4 9.65 1.35 11.8 L5.45 20.95 4.6 20.9 M40.2 36.7 Q39.5 37.3 38.3 37.65 L23.3 42.5 23.2 42.3 38.9 37.25 40.2 36.7 M20.1 43.55 L19.8 43.65 Q17.15 44.45 15.5 43.3 L17.3 43.4 19.1 43.5 20.1 43.55"/><path fill="#fcf2cf" stroke="none" d="M27.75 10.95 L35.8 29.0 35.95 29.35 Q34.75 29.3 34.1 30.1 33.45 30.9 33.7 32.1 L34.0 32.9 20.65 37.2 Q18.8 37.8 17.65 37.0 16.8 36.4 16.3 35.2 L6.95 14.6 6.8 14.4 7.1 14.4 Q8.4 14.45 9.15 13.6 9.8 12.8 9.55 11.6 L9.1 10.55 18.5 7.45 27.75 10.95"/><path fill="none" stroke="#bf9900" stroke-width="1.0" stroke-opacity="0.749019607843" d="M31.5 13.2 L35.55 22.3 M15.0 38.6 L8.25 23.65"/><path fill="none" stroke="#ffcc00" stroke-width="1.0" stroke-opacity="0.749019607843" d="M35.55 22.3 L39.35 30.75 Q41.1 34.5 37.2 35.7 L20.45 41.1 Q16.8 42.25 15.2 39.0 L15.0 38.6 M8.25 23.65 L3.35 12.8 Q1.65 9.1 5.5 7.85 L16.95 4.25 29.75 9.2 31.5 13.2"/><path fill="none" stroke="#000000" stroke-width="0.5" stroke-opacity="0.301960784314" d="M4.6 20.9 L0.7 12.25 Q-0.45 9.75 0.75 8.25 1.2 7.6 2.15 7.15 2.8 6.7 3.8 6.35 L17.5 1.95 M30.2 7.0 L41.35 31.7 Q42.95 35.15 40.2 36.7 39.5 37.3 38.3 37.65 L23.3 42.5 20.1 43.55 19.8 43.65 Q17.15 44.45 15.5 43.3 14.35 42.55 13.65 40.9 L4.6 20.9 M5.45 20.95 L1.35 11.8 Q0.4 9.65 1.1 8.3 1.45 7.65 2.15 7.15 M19.1 43.5 L17.3 43.4 Q15.3 42.9 14.2 40.5 L5.45 20.95 M23.2 42.3 L20.4 43.2 19.1 43.5 M40.2 36.7 L38.9 37.25 23.2 42.3"/><path fill="none" stroke="#f0b92b" stroke-width="0.5" d="M27.75 10.95 L35.8 29.0 35.95 29.35 Q34.75 29.3 34.1 30.1 33.45 30.9 33.7 32.1 L34.0 32.9 20.65 37.2 Q18.8 37.8 17.65 37.0 16.8 36.4 16.3 35.2 L6.95 14.6 6.8 14.4 7.1 14.4 Q8.4 14.45 9.15 13.6 9.8 12.8 9.55 11.6 L9.1 10.55 18.5 7.45"/><path fill="none" stroke="#ffcc00" stroke-width="0.5" stroke-opacity="0.749019607843" d="M18.5 7.45 L27.75 10.95"/></g><g id="c3"><path fill="#7fdbfe" stroke="none" d="M10.75 4.9 Q10.75 4.6 10.9 4.35 11.25 3.45 11.95 2.75 13.3 1.5 14.35 2.1 15.4 2.7 14.95 4.45 14.7 5.4 14.1 6.15 L13.75 6.5 Q13.1 7.15 12.35 7.35 L11.4 7.2 Q10.95 6.9 10.75 6.4 10.5 5.75 10.75 4.9 M7.5 5.9 Q7.0 5.85 6.6 5.5 6.05 5.0 5.8 4.15 L5.7 3.6 Q5.55 2.65 5.8 1.7 6.25 0.0 7.5 0.0 L7.6 0.0 Q8.85 0.0 9.3 1.7 9.55 2.65 9.4 3.6 L9.3 4.15 8.5 5.5 7.6 5.9 7.5 5.9 M4.35 4.9 Q4.6 5.75 4.35 6.4 L3.7 7.2 2.75 7.35 Q2.0 7.15 1.35 6.5 L1.0 6.15 Q0.4 5.4 0.15 4.45 -0.3 2.7 0.75 2.1 1.8 1.5 3.15 2.75 3.85 3.45 4.2 4.35 L4.35 4.9 M5.5 13.7 Q4.45 13.9 3.65 12.95 2.75 12.0 3.2 10.25 3.7 8.5 5.25 7.6 6.4 6.9 7.55 7.0 8.75 6.9 9.9 7.6 11.45 8.5 11.95 10.25 12.35 12.0 11.5 12.95 10.7 13.9 9.65 13.7 8.55 13.5 7.55 12.6 6.55 13.5 5.5 13.7"/></g><g id="c4"><g><use transform="matrix(1.0,0.0,0.0,1.0,0.0,0.0)" xlink:href="#c3"/></g></g><radialGradient gradientUnits="userSpaceOnUse" r="819.2" cx="0" cy="0" spreadMethod="pad" gradientTransform="matrix(0.0914459228516,0.0,0.0,0.0914459228516,0.6,3.4)" id="gradient1"><stop offset="0.0" stop-color="#ffffff"/><stop offset="1.0" stop-color="#ffffff" stop-opacity="0.0"/></radialGradient><g id="c5"><path stroke="none" fill="url(#gradient1)" d="M36.65 -54.65 Q60.05 -42.0 69.75 -17.95 80.55 8.9 68.0 34.1 55.45 59.35 26.8 68.2 -1.8 77.05 -29.7 64.3 -57.6 51.6 -68.45 24.75 -79.3 -2.05 -66.75 -27.25 L-66.7 -27.3 Q-54.1 -52.5 -25.5 -61.4 3.1 -70.2 31.0 -57.5 L36.65 -54.65"/></g><g id="c6"><g><use transform="matrix(1.0,0.0,0.0,1.0,0.0,0.0)" xlink:href="#c5"/></g></g><radialGradient gradientUnits="userSpaceOnUse" r="819.2" cx="0" cy="0" spreadMethod="pad" gradientTransform="matrix(0.209197998047,0.0,0.0,0.177108764648,67.15,107.2)" id="gradient2"><stop offset="0.356862745098" stop-color="#ffffff"/><stop offset="0.670588235294" stop-opacity="0.0"/></radialGradient><g id="c7"><path fill="none" stroke-linejoin="round" stroke-linecap="round" stroke="url(#gradient2)" stroke-width="0.5" d="M136.55 165.8 L68.6 106.0 68.4 106.0 118.25 201.5 M68.3 105.8 L68.35 105.8 68.3 105.8 68.3 105.85 68.4 106.0 68.3 106.0 86.55 211.5 M68.3 105.8 L68.3 105.85 68.3 106.0 68.15 105.95 18.25 151.55 M68.3 105.85 L68.25 105.85 68.3 106.0 50.0 193.2 M68.25 105.85 L68.15 105.95 0.05 97.7 M68.3 105.85 L68.25 105.8 68.25 105.85 M68.25 105.8 L68.2 105.7 0.0 45.7 M68.3 105.8 L68.25 105.75 68.25 105.8 M68.25 105.75 L68.2 105.7 18.25 10.05 M68.6 106.0 L68.35 105.8 118.25 60.15 M86.6 18.35 L68.3 105.8 M136.6 114.25 L68.6 106.0 M68.25 105.75 L49.95 0.05"/></g><g id="c8"><g><use transform="matrix(1.0,0.0,0.0,1.0,0.0,0.0)" xlink:href="#c7"/></g></g><g id="c9"><g><use transform="matrix(1.0,0.0,0.0,1.0,0.0,0.0)" xlink:href="#c2"/></g><g><use transform="matrix(0.238861083984,-0.0867004394531,0.10026550293,0.233917236328,34.25,31.15)" xlink:href="#c4"/></g><g><use transform="matrix(0.238861083984,-0.0867004394531,0.10026550293,0.233917236328,4.25,10.3)" xlink:href="#c4"/></g><g><use transform="matrix(0.141098022461,-0.0378112792969,0.111373901367,0.225646972656,20.25,20.65)" filter="url(#filter7)" xlink:href="#c6"/></g><g><use transform="matrix(-0.155029296875,0.0513153076172,0.0841827392578,0.147033691406,22.6,3.15)" filter="url(#filter8)" xlink:href="#c8"/></g></g><filter id="filter7"><feColorMatrix in="SourceGraphic" type="matrix" values="0.0 0.0 0.0 0.0 0.796875 0.0 0.0 0.0 0.0 0.59765625 0.0 0.0 0.0 0.0 0.19921875 0.0 0.0 0.0 1.0 0.0" result="cxform"/><feComposite operator="in" in2="SourceGraphic" result="color-xform"/></filter><filter id="filter8"><feColorMatrix in="SourceGraphic" type="matrix" values="0.0 0.0 0.0 0.0 0.99609375 0.0 0.0 0.0 0.0 0.99609375 0.0 0.0 0.0 0.0 0.99609375 0.0 0.0 0.0 1.0 0.0" result="cxform"/><feComposite operator="in" in2="SourceGraphic" result="color-xform"/></filter><g id="c10"><path fill="#d47a0c" stroke="none" d="M19.85 65.15 Q21.1 64.1 22.8 64.25 24.5 64.4 25.55 65.7 26.6 67.0 26.45 68.65 26.25 70.35 25.0 71.4 23.7 72.5 22.0 72.3 20.35 72.15 19.25 70.85 18.2 69.55 18.35 67.9 18.55 66.2 19.85 65.15"/><path fill="none" stroke="#382510" stroke-width="0.5" stroke-opacity="0.301960784314" d="M19.85 65.15 Q18.55 66.2 18.35 67.9 18.2 69.55 19.25 70.85 20.35 72.15 22.0 72.3 23.7 72.5 25.0 71.4 26.25 70.35 26.45 68.65 26.6 67.0 25.55 65.7 24.5 64.4 22.8 64.25 21.1 64.1 19.85 65.15"/><path fill="#d47a0c" stroke="none" d="M19.7 65.35 Q18.7 66.2 18.55 67.6 18.4 68.95 19.25 70.05 20.2 71.1 21.6 71.2 22.95 71.35 24.0 70.5 25.05 69.6 25.2 68.25 25.35 66.85 24.45 65.8 23.55 64.7 22.2 64.55 20.8 64.45 19.7 65.35"/><path fill="#efcf00" stroke="none" d="M18.95 66.9 Q18.85 68.05 19.8 69.0 20.7 69.9 22.2 70.05 23.65 70.2 24.8 69.45 25.9 68.7 26.0 67.55 26.15 66.35 25.15 65.4 24.2 64.45 22.75 64.35 21.3 64.2 20.2 64.95 19.1 65.7 18.95 66.9"/><path fill="#ffff2f" stroke="none" d="M20.75 66.4 L21.85 66.5 22.8 66.1 23.15 65.4 Q23.1 65.0 22.6 64.75 L21.6 64.65 20.55 65.05 Q20.2 65.4 20.25 65.8 L20.75 66.4"/><path fill="#ffff99" stroke="none" d="M21.9 67.05 Q21.55 67.3 21.25 67.05 L20.8 66.5 Q20.75 66.05 21.0 65.6 L21.6 64.9 22.3 64.85 22.7 65.45 22.55 66.35 21.9 67.05"/><path fill="#ffff99" stroke="none" d="M20.3 65.75 L19.95 65.75 19.65 66.1 19.6 66.55 19.75 66.8 20.1 66.8 20.4 66.45 20.45 66.05 20.3 65.75"/><path fill="#ffff98" fill-opacity="0.301960784314" d="M18.95 67.55 Q19.05 68.35 19.75 68.7 L21.35 68.45 22.8 67.2 Q23.35 66.3 23.25 65.5 23.15 64.7 22.45 64.45 L20.85 64.65 Q20.0 65.1 19.4 65.95 18.85 66.85 18.95 67.55"/><path fill="none" stroke="#382510" stroke-width="0.5" stroke-opacity="0.301960784314" d="M18.2 74.65 L17.95 74.4 Q17.55 74.0 17.7 73.15 L18.15 71.8 18.35 71.55 19.25 70.1 20.25 68.9 21.75 67.4 21.9 67.3 Q22.85 66.45 23.9 65.7 L24.8 65.15 24.8 65.1 25.95 64.55 26.3 64.4 Q27.25 64.0 28.15 63.95 28.8 63.95 29.2 64.35 L29.25 64.45 29.3 64.55 Q29.75 64.4 30.25 64.55 30.8 64.7 31.15 65.2 L31.2 65.3 31.35 66.35 31.3 66.45 31.15 66.85 31.05 67.05 30.75 67.3 32.05 69.6 32.1 69.75 32.15 69.85 Q32.5 70.5 31.7 71.9 30.8 73.5 28.95 75.2 L27.05 76.65 25.35 77.6 Q23.95 78.2 23.3 77.85 L23.2 77.75 23.1 77.7 23.05 77.7 22.6 77.4 22.45 77.5 22.35 77.65 21.85 77.95 21.75 78.0 21.65 78.05 21.35 78.05 20.8 77.9 20.4 77.55 20.15 77.1 20.1 76.8 20.1 75.85 19.25 75.3 Q18.65 75.2 18.4 74.9 L18.3 74.8 18.2 74.65 18.2 74.55 18.05 73.8 18.15 73.55 18.15 73.45 18.35 73.2 18.6 72.95 18.8 72.75 20.0 72.5 21.05 72.5 21.3 72.45 21.2 72.0 21.2 71.95 21.15 71.9 21.05 71.7 21.2 71.2 Q21.4 70.95 21.75 70.95 L22.4 71.05 22.65 71.3 22.7 71.15 22.85 70.7 22.75 70.3 22.3 69.55 22.0 68.9 22.0 68.65 22.05 68.3 Q22.1 68.05 22.3 67.9 L22.4 67.8 Q22.8 67.4 23.4 67.35 L23.65 67.3 Q24.4 67.35 24.75 67.75 L25.0 68.25 25.25 68.75 25.4 68.8 25.65 68.85 25.95 68.8 Q26.7 68.65 27.1 69.1 L27.2 69.3 27.45 70.05 27.25 70.9 27.2 70.95 27.05 71.1 27.05 71.15 26.15 72.05 25.7 72.4 24.65 73.55 24.05 74.3 23.4 75.35 23.25 75.7 M29.3 64.55 L29.1 64.65 29.0 64.7 28.9 64.75 28.35 65.6 Q28.25 66.0 28.3 66.35 L28.4 66.65 M28.2 66.4 L27.85 66.55 27.75 66.65 27.7 66.8 27.7 66.9 28.2 66.4 28.3 66.35 M27.7 66.9 L27.7 66.95 27.75 67.1 28.2 67.9 28.25 67.9 28.55 68.1 28.65 68.15 28.9 68.25 29.0 68.3 29.05 68.3 29.45 67.85 29.45 68.15 29.05 68.3 M29.7 67.6 L29.95 67.6 30.6 67.4 30.75 67.3 M21.15 71.9 L21.2 71.7 21.35 71.4 Q21.5 71.15 21.8 71.1 L22.35 71.3 22.55 71.45 22.65 71.3 M22.55 71.45 L22.65 71.75 Q22.75 72.55 23.4 72.6 L23.7 72.7 23.85 72.5 24.2 72.2 24.25 72.15 25.25 71.45 25.6 71.35 25.7 71.4 26.2 71.4 26.75 71.3 26.8 71.25 26.9 71.2 27.05 71.15 M21.3 72.45 L21.4 72.9 Q21.8 73.7 22.65 73.95 L22.8 74.0 23.3 74.05 23.7 74.0 23.8 73.95 23.8 73.9 23.85 73.85 24.05 73.35 24.05 73.15 23.9 72.9 23.85 72.85 23.7 72.7 M23.8 73.95 L24.15 73.75 24.2 73.25 23.9 72.9 M32.1 69.75 L32.0 69.6 Q31.55 69.15 30.55 69.4 30.15 69.5 29.7 69.7 L28.45 70.3 M24.3 68.85 L25.4 68.8 M19.25 75.3 L19.3 75.3 19.8 75.5 20.1 75.75 20.05 75.1 M20.1 75.75 L20.1 75.85 M22.6 77.4 L22.8 77.1 22.8 77.05 22.75 76.2 22.45 75.3 22.2 74.7 22.2 74.65 22.1 74.8 Q21.8 75.35 21.75 75.85 M22.4 74.3 L22.2 74.6 22.2 74.65 M23.05 77.7 L23.05 77.65 22.8 77.1"/><path fill="none" stroke="#382510" stroke-width="1.0" stroke-opacity="0.301960784314" d="M22.65 68.3 Q22.45 68.4 22.4 68.65 22.25 69.45 23.0 69.6 23.1 69.25 22.85 68.85 22.8 68.75 22.9 68.6 23.25 67.9 22.65 68.3 M22.95 71.95 L23.0 71.95 Q23.45 71.4 23.05 70.9 22.75 71.45 22.95 71.95 M30.75 70.8 L30.2 70.55 29.2 70.85 Q27.9 71.3 26.6 72.5 L25.5 73.55 24.6 74.9 Q23.9 76.05 24.35 76.5 L24.45 76.55 24.5 76.65 26.0 76.45 Q27.0 76.05 28.15 75.15 L28.6 74.75 28.9 74.45 28.95 74.4 30.55 72.4 30.8 71.85 M25.7 70.55 Q25.85 71.15 26.45 71.1 L26.85 71.05 Q27.2 70.6 26.45 70.55 L25.8 70.45 25.7 70.55 M18.75 74.05 Q18.45 74.4 18.75 74.75 19.1 75.15 19.65 75.05 19.75 74.65 19.15 74.45 18.9 74.4 18.9 74.15 18.9 73.9 18.75 74.05 M19.0 73.35 L19.1 73.4 Q19.45 72.9 19.0 73.3 18.85 73.35 19.0 73.35 M20.5 76.6 Q20.45 78.05 22.0 77.7 22.2 77.25 21.4 77.15 L21.1 76.95 Q20.95 76.55 20.55 76.5 L20.5 76.6"/><path fill="#cbc4b4" stroke="none" d="M17.65 73.2 Q17.5 74.05 17.9 74.45 L18.15 74.7 23.0 77.75 23.0 77.7 Q22.6 77.25 22.85 76.4 L17.65 73.2 M21.85 67.35 L25.65 72.45 26.1 72.1 27.4 71.05 27.75 70.8 23.75 65.85 21.85 67.35 M24.0 74.35 L19.2 70.15 18.3 71.6 18.1 71.85 23.2 75.75 23.35 75.4 24.0 74.35"/><path fill="#dfd9cd" stroke="none" d="M21.85 67.35 L21.7 67.45 20.2 68.95 19.2 70.15 24.0 74.35 24.6 73.65 25.65 72.45 21.85 67.35 M30.5 69.45 L29.65 69.75 28.4 70.35 28.25 70.45 27.8 70.75 27.8 70.8 Q27.15 71.25 26.5 71.85 L25.0 73.35 24.45 74.1 23.75 75.15 23.55 75.45 23.3 76.15 Q23.0 77.0 23.4 77.45 L23.5 77.5 23.55 77.55 23.65 77.6 25.7 77.35 27.0 76.7 28.9 75.25 Q30.75 73.6 31.65 71.95 32.45 70.55 32.1 69.9 L32.05 69.8 31.95 69.7 Q31.5 69.2 30.5 69.45"/><path fill="#fefefe" stroke="none" d="M17.65 73.2 L22.85 76.4 Q22.6 77.25 23.0 77.7 L23.05 77.75 23.15 77.8 23.25 77.9 25.3 77.65 27.0 76.7 25.7 77.35 23.65 77.6 23.55 77.55 23.5 77.5 23.4 77.45 Q23.0 77.0 23.3 76.15 L23.55 75.45 23.75 75.15 24.45 74.1 25.0 73.35 26.5 71.85 Q27.15 71.25 27.8 70.8 L27.8 70.75 28.25 70.45 28.4 70.35 24.75 65.2 23.85 65.8 23.75 65.85 27.75 70.8 27.4 71.05 26.1 72.1 25.65 72.45 24.6 73.65 24.0 74.35 23.35 75.4 23.2 75.75 18.1 71.85 17.65 73.2 M27.75 70.8 L27.8 70.75 27.75 70.8 M22.85 76.4 L23.2 75.75 22.85 76.4"/><path fill="#71684a" stroke="none" d="M24.75 65.15 Q28.0 66.2 30.5 69.45 31.5 69.2 31.95 69.7 L32.0 69.65 29.35 64.75 29.2 64.5 29.15 64.4 26.25 64.45 24.75 65.15"/><path fill="#aaa080" stroke="none" d="M24.75 65.15 L24.75 65.2 28.4 70.35 29.65 69.75 30.5 69.45 Q28.0 66.2 24.75 65.15"/><path fill="none" stroke="#382510" stroke-width="0.5" stroke-opacity="0.4" d="M18.15 74.7 L17.9 74.45 Q17.5 74.05 17.65 73.2 M19.2 70.15 L20.2 68.95 21.7 67.45 21.85 67.35 M19.2 70.15 L18.3 71.6 18.1 71.85 17.65 73.2 M24.75 65.2 L23.85 65.8 23.75 65.85 21.85 67.35 M24.75 65.15 L26.25 64.45 29.15 64.4 29.2 64.5 29.35 64.75"/><path fill="none" stroke="#382510" stroke-width="0.5" stroke-opacity="0.223529411765" d="M22.85 76.4 Q22.6 77.25 23.0 77.7 M23.0 77.75 L18.15 74.7 M25.65 72.45 L24.6 73.65 24.0 74.35 23.35 75.4 23.2 75.75 22.85 76.4 M24.75 65.2 L24.75 65.15 M30.5 69.45 L29.65 69.75 28.4 70.35 28.25 70.45 27.8 70.75 27.75 70.8 27.4 71.05 26.1 72.1 25.65 72.45 M29.35 64.75 L32.0 69.65 M31.95 69.7 Q31.5 69.2 30.5 69.45 M27.0 76.7 L25.3 77.65 23.25 77.9 23.15 77.8 23.05 77.75 23.0 77.7 M27.0 76.7 L28.9 75.25 Q30.75 73.6 31.65 71.95 32.45 70.55 32.1 69.9 L32.05 69.8 32.0 69.65 M32.05 69.8 L31.95 69.7"/><path fill="#71684a" stroke="none" d="M25.5 73.55 L25.55 73.6 28.05 75.1 28.1 75.15 28.55 74.75 28.9 74.45 28.9 74.4 30.55 72.35 Q31.1 71.35 30.85 70.85 L30.8 70.8 30.75 70.7 29.15 70.8 Q27.85 71.3 26.55 72.45 L26.45 72.6 25.5 73.55"/><path fill="#635b41" stroke="none" d="M28.1 75.15 L28.05 75.1 25.55 73.6 25.5 73.55 24.55 74.85 Q23.9 76.05 24.3 76.5 L24.4 76.55 24.5 76.6 26.0 76.45 28.1 75.15"/><path fill="#fefefe" stroke="none" d="M26.55 72.45 Q27.85 71.3 29.15 70.8 L30.75 70.7 30.8 70.8 30.85 70.85 Q31.1 71.35 30.55 72.35 L28.9 74.4 28.95 74.45 30.9 72.05 Q31.45 71.05 31.2 70.55 L31.15 70.5 31.1 70.4 29.45 70.45 Q28.2 71.0 26.9 72.15 L26.55 72.45"/><path fill="none" stroke="#382510" stroke-width="0.5" stroke-opacity="0.223529411765" d="M25.5 73.55 L26.45 72.6 M26.55 72.45 Q27.85 71.3 29.15 70.8 L30.75 70.7 30.8 70.8 30.85 70.85 Q31.1 71.35 30.55 72.35 L28.9 74.4 28.9 74.45 28.55 74.75 28.1 75.15 26.0 76.45 24.5 76.6 24.4 76.55 24.3 76.5 Q23.9 76.05 24.55 74.85 L25.5 73.55"/><path fill="#543a01" stroke="none" d="M21.7 71.0 Q21.3 71.05 21.15 71.3 20.95 71.55 21.05 71.9 L21.4 72.45 22.1 72.6 22.65 72.25 22.75 71.65 22.35 71.1 21.7 71.0"/><path fill="none" stroke="#382510" stroke-width="0.5" stroke-opacity="0.223529411765" d="M21.7 71.0 Q21.3 71.05 21.15 71.3 20.95 71.55 21.05 71.9 L21.4 72.45 22.1 72.6 22.65 72.25 22.75 71.65 22.35 71.1 21.7 71.0"/><path fill="#543a01" stroke="none" d="M23.25 72.55 L22.8 72.65 Q22.65 72.9 22.75 73.2 L23.1 73.75 23.65 74.05 24.1 73.8 24.15 73.3 23.8 72.75 23.25 72.55"/><path fill="none" stroke="#382510" stroke-width="0.5" stroke-opacity="0.223529411765" d="M23.25 72.55 L22.8 72.65 Q22.65 72.9 22.75 73.2 L23.1 73.75 23.65 74.05 24.1 73.8 24.15 73.3 23.8 72.75 23.25 72.55"/></g><g id="c11"><path fill="#8f6900" stroke="none" d="M2.55 -0.75 L2.65 -0.75 5.15 -0.35 5.85 -0.5 Q6.45 -1.1 6.9 -1.2 L7.95 -1.5 8.35 -1.45 8.7 -1.4 9.05 -1.3 9.1 -1.25 9.15 -1.25 9.2 -1.2 Q9.9 -0.8 10.35 0.15 10.8 1.35 10.6 2.2 10.25 3.55 8.3 4.05 L7.75 4.3 7.65 4.55 7.65 5.6 7.65 6.8 Q7.35 7.9 6.05 8.65 4.65 9.35 3.35 9.0 2.7 8.85 2.2 8.3 L1.8 7.75 1.6 7.25 Q1.25 6.45 1.5 5.8 1.8 5.1 1.65 4.05 L1.65 3.95 1.65 3.85 1.55 3.7 1.4 3.25 0.75 2.5 Q-0.15 1.8 -1.3 1.5 L-2.05 1.35 -2.75 1.45 Q-4.3 1.7 -5.4 2.55 -6.45 3.35 -7.8 3.2 L-7.85 3.2 -8.4 3.1 -9.1 2.85 -9.65 2.55 -9.75 2.4 -10.1 2.05 Q-10.65 1.4 -10.65 0.5 L-10.6 0.0 -10.55 -0.25 Q-10.4 -1.0 -9.25 -1.85 L-8.5 -2.65 -8.2 -3.35 -8.25 -3.55 -9.2 -5.25 -9.4 -5.9 -9.35 -6.95 -8.9 -8.0 -8.1 -8.75 -7.5 -9.0 -7.35 -9.0 -7.3 -9.0 -7.1 -9.05 -5.85 -8.9 -5.6 -8.85 Q-4.8 -8.65 -4.5 -8.3 L-3.8 -6.7 -3.65 -4.8 Q-3.6 -3.6 -3.35 -3.25 L-2.7 -2.9 -2.35 -2.75 -0.3 -1.8 1.55 -1.0 2.55 -0.75"/></g><g id="c12"><g><use transform="matrix(1.0,0.0,0.0,1.0,0.0,0.0)" xlink:href="#c11"/></g></g><g id="c13"><path fill="#dbac18" stroke="none" d="M23.8 72.6 L24.2 72.25 24.25 72.25 Q24.85 71.65 25.25 71.5 L25.55 71.35 26.2 71.45 26.7 71.35 Q25.7 71.6 24.85 70.45 L24.35 71.75 23.8 72.6 M22.45 77.6 L22.55 77.45 22.5 77.45 22.45 77.6"/><path fill="#ffcf2b" stroke="none" d="M23.8 72.6 L24.35 71.75 24.85 70.45 Q25.7 71.6 26.7 71.35 L26.9 71.25 27.0 71.15 27.15 71.0 27.2 71.0 27.2 70.9 27.15 70.25 Q26.9 69.8 25.85 69.85 24.8 69.85 24.25 68.9 L24.2 68.85 23.95 68.45 24.3 68.55 24.35 68.45 Q24.6 68.45 24.05 68.0 23.5 67.5 22.85 67.7 22.25 67.9 22.0 68.4 L22.0 68.7 22.0 68.95 Q22.0 69.4 22.25 69.6 L22.7 70.35 22.75 70.4 22.75 70.55 22.8 70.75 22.85 70.75 22.65 71.7 21.7 72.65 Q21.05 73.2 21.05 73.65 L20.95 73.35 Q20.7 72.8 20.05 72.65 L18.8 72.8 18.75 72.85 18.55 73.0 18.3 73.25 18.15 73.55 18.15 73.6 18.05 73.85 Q17.95 74.25 18.15 74.65 L18.25 74.85 18.35 74.95 Q18.6 75.25 19.25 75.35 L19.8 75.5 20.05 75.15 20.05 75.75 20.1 75.85 20.1 76.85 20.15 77.1 20.35 77.6 20.8 77.95 21.3 78.1 21.6 78.1 21.7 78.05 21.85 78.0 22.35 77.7 22.45 77.6 22.5 77.45 Q22.8 77.05 22.5 76.5 L22.15 75.95 Q22.0 75.75 21.8 75.8 L21.75 75.85 Q21.75 75.4 22.05 74.85 L22.2 74.6 22.35 74.35 22.45 74.2 23.15 73.35 23.8 72.6"/><path fill="#b88614" stroke="none" d="M27.2 70.9 L27.4 70.1 Q27.3 69.45 27.0 69.15 26.55 68.65 25.6 68.9 L25.35 68.85 25.25 68.75 25.0 68.3 24.75 67.8 Q24.35 67.4 23.65 67.4 22.85 67.35 22.35 67.8 22.1 68.05 22.0 68.4 22.25 67.9 22.85 67.7 23.5 67.5 24.05 68.0 24.6 68.45 24.35 68.45 L24.3 68.55 23.95 68.45 24.2 68.85 24.25 68.9 Q24.8 69.85 25.85 69.85 26.9 69.8 27.15 70.25 L27.2 70.9 M22.8 70.75 L22.65 71.2 22.05 72.1 21.7 72.35 21.4 72.45 20.0 72.6 Q19.35 72.45 18.8 72.8 L20.05 72.65 Q20.7 72.8 20.95 73.35 L21.05 73.65 Q21.05 73.2 21.7 72.65 L22.65 71.7 22.85 70.75 22.8 70.75 M19.8 75.5 L20.05 75.75 20.05 75.15 19.8 75.5 M22.55 77.45 L22.8 77.1 22.75 76.25 22.4 75.4 22.2 74.6 22.05 74.85 Q21.75 75.4 21.75 75.85 L21.8 75.8 Q22.0 75.75 22.15 75.95 L22.5 76.5 Q22.8 77.05 22.5 77.45 L22.55 77.45 M25.35 68.85 L24.25 68.9 25.35 68.85"/><path fill="none" stroke="#000000" stroke-width="0.5" stroke-opacity="0.301960784314" d="M26.7 71.35 L26.2 71.45 25.55 71.35 25.25 71.5 Q24.85 71.65 24.25 72.25 L24.2 72.25 23.8 72.6 M26.7 71.35 L26.9 71.25 27.0 71.15 27.15 71.0 27.2 71.0 27.2 70.9 27.4 70.1 Q27.3 69.45 27.0 69.15 26.55 68.65 25.6 68.9 L25.35 68.85 25.25 68.75 25.0 68.3 24.75 67.8 Q24.35 67.4 23.65 67.4 22.85 67.35 22.35 67.8 22.1 68.05 22.0 68.4 L22.0 68.7 22.0 68.95 Q22.0 69.4 22.25 69.6 L22.7 70.35 22.75 70.4 22.75 70.55 22.8 70.75 22.65 71.2 22.05 72.1 21.7 72.35 21.4 72.45 20.0 72.6 Q19.35 72.45 18.8 72.8 M18.75 72.85 L18.55 73.0 18.3 73.25 18.15 73.55 18.15 73.6 18.05 73.85 Q17.95 74.25 18.15 74.65 L18.25 74.85 18.35 74.95 Q18.6 75.25 19.25 75.35 L19.8 75.5 20.05 75.75 20.1 75.85 20.1 76.85 20.15 77.1 20.35 77.6 20.8 77.95 21.3 78.1 M21.6 78.1 L21.7 78.05 21.85 78.0 22.35 77.7 22.45 77.6 22.55 77.45 22.8 77.1 22.75 76.25 22.4 75.4 22.2 74.6 22.35 74.35 22.45 74.2 23.15 73.35 23.8 72.6 M24.25 68.9 L25.35 68.85 M20.05 75.75 L20.05 75.15 M22.2 74.6 L22.05 74.85 Q21.75 75.4 21.75 75.85"/><path fill="#ffffff" stroke="none" d="M21.35 77.2 L21.05 77.0 Q20.85 76.55 20.5 76.55 20.45 76.5 20.4 76.6 20.35 78.05 21.95 77.7 22.15 77.3 21.35 77.2"/><path fill="none" stroke="#010101" stroke-width="0.5" stroke-opacity="0.0" d="M21.35 77.2 L21.05 77.0 Q20.85 76.55 20.5 76.55 20.45 76.5 20.4 76.6 20.35 78.05 21.95 77.7 22.15 77.3 21.35 77.2"/><path fill="#ffffff" stroke="none" d="M19.1 74.55 L18.85 74.15 Q18.85 73.9 18.7 74.1 18.4 74.45 18.75 74.8 19.05 75.2 19.6 75.1 19.7 74.75 19.1 74.55"/><path fill="none" stroke="#010101" stroke-width="0.5" stroke-opacity="0.0" d="M19.1 74.55 L18.85 74.15 Q18.85 73.9 18.7 74.1 18.4 74.45 18.75 74.8 19.05 75.2 19.6 75.1 19.7 74.75 19.1 74.55"/><path fill="#ffffff" stroke="none" d="M18.95 73.35 L19.0 73.4 19.05 73.45 Q19.45 73.0 18.95 73.35"/><path fill="none" stroke="#010101" stroke-width="0.5" stroke-opacity="0.0" d="M18.95 73.35 L19.0 73.4 19.05 73.45 Q19.45 73.0 18.95 73.35"/><path fill="#ffffff" stroke="none" d="M26.45 70.6 L25.75 70.5 25.7 70.6 Q25.85 71.2 26.45 71.1 L26.8 71.1 Q27.15 70.6 26.45 70.6"/><path fill="none" stroke="#010101" stroke-width="0.5" stroke-opacity="0.0" d="M26.45 70.6 L25.75 70.5 25.7 70.6 Q25.85 71.2 26.45 71.1 L26.8 71.1 Q27.15 70.6 26.45 70.6"/><path fill="#ffffff" stroke="none" d="M22.85 68.85 L22.85 68.65 Q23.25 67.95 22.6 68.35 L22.35 68.65 Q22.2 69.5 22.95 69.7 L22.85 68.85"/><path fill="none" stroke="#010101" stroke-width="0.5" stroke-opacity="0.0" d="M22.85 68.85 L22.85 68.65 Q23.25 67.95 22.6 68.35 L22.35 68.65 Q22.2 69.5 22.95 69.7 L22.85 68.85"/><path fill="#ffffff" stroke="none" d="M23.05 70.95 L23.0 70.95 Q22.75 71.5 22.95 72.0 L23.0 72.0 Q23.4 71.45 23.05 70.95"/><path fill="none" stroke="#010101" stroke-width="0.5" stroke-opacity="0.0" d="M23.05 70.95 L23.0 70.95 Q22.75 71.5 22.95 72.0 L23.0 72.0 Q23.4 71.45 23.05 70.95"/><path fill="#b88614" stroke="none" d="M24.05 73.25 L23.9 72.95 23.4 72.65 Q22.7 72.6 22.65 71.8 L22.3 71.35 21.75 71.15 Q21.45 71.2 21.25 71.45 L21.15 71.75 21.4 71.55 Q21.95 71.25 22.3 71.75 L22.7 72.55 23.45 72.9 24.05 73.25"/><path fill="#ffcf2b" stroke="none" d="M24.05 73.25 L23.45 72.9 22.7 72.55 22.3 71.75 Q21.95 71.25 21.4 71.55 L21.15 71.75 21.15 72.0 Q21.4 74.0 23.25 74.1 L23.8 73.95 23.85 73.9 24.05 73.4 24.05 73.25"/><path fill="none" stroke="#382510" stroke-width="0.5" stroke-opacity="0.223529411765" d="M21.15 71.75 L21.25 71.45 Q21.45 71.2 21.75 71.15 L22.3 71.35 22.65 71.8 Q22.7 72.6 23.4 72.65 L23.9 72.95 24.05 73.25 M21.15 71.75 L21.15 72.0 Q21.4 74.0 23.25 74.1 L23.8 73.95 23.85 73.9 24.05 73.4 24.05 73.25"/><path fill="#ffffff" stroke="none" d="M22.8 73.4 L22.5 73.2 21.95 72.65 21.85 72.75 Q22.05 74.05 23.4 73.95 23.65 73.45 22.8 73.4"/><path fill="#ffffff" fill-opacity="0.301960784314" d="M21.3 73.65 L21.45 73.9 21.35 74.2 21.1 74.3 20.85 74.2 20.7 73.95 20.75 73.7 21.0 73.6 21.3 73.65 M20.95 73.3 L20.75 73.05 20.75 73.3 20.45 73.5 20.3 73.8 19.75 73.9 20.3 74.0 20.65 74.5 21.2 74.65 21.5 74.55 22.25 74.85 21.8 74.25 21.85 73.95 21.5 73.5 21.0 73.3 20.95 73.3"/><path fill="#ffffff" stroke="none" d="M21.3 73.65 L21.0 73.6 20.75 73.7 20.7 73.95 20.85 74.2 21.1 74.3 21.35 74.2 21.45 73.9 21.3 73.65"/><path fill="#ffffff" stroke="none" d="M21.0 73.8 L20.25 73.75 21.05 74.15 21.2 75.1 21.25 74.1 24.05 74.5 21.25 73.8 20.95 72.2 21.0 73.8"/><path fill="#ffcf2b" stroke="none" d="M27.65 67.0 L27.7 67.25 28.15 68.0 28.15 67.95 29.05 67.05 28.95 67.05 28.75 66.75 28.6 66.4 Q28.55 66.15 28.65 66.0 L28.15 66.5 27.65 66.95 27.65 67.0 M28.5 68.2 L28.55 68.25 28.85 68.35 28.95 68.4 29.0 68.35 29.5 67.85 29.5 67.8 29.95 67.3 29.55 67.35 29.35 67.3 28.5 68.2"/><path fill="#ffffff" stroke="none" d="M28.15 67.95 L28.5 68.2 29.35 67.3 29.3 67.25 29.05 67.05 28.15 67.95"/><path fill="#432f01" stroke="none" d="M29.0 68.35 L29.35 68.25 29.5 68.0 29.55 67.85 29.5 67.85 29.0 68.35 M27.65 66.85 L27.6 66.9 27.65 67.0 27.65 66.95 28.15 66.5 27.75 66.7 27.65 66.85"/><path fill="#b98900" stroke="none" d="M29.95 67.3 L30.0 67.3 30.05 67.25 30.1 66.75 29.7 66.2 29.65 66.1 29.45 65.95 29.1 65.85 28.65 65.95 28.65 66.0 Q28.55 66.15 28.6 66.4 L28.75 66.75 28.95 67.05 29.05 67.05 29.3 67.25 29.35 67.3 29.55 67.35 29.95 67.3"/><path fill="#332200" fill-opacity="0.301960784314" d="M29.45 65.95 L28.65 64.35 Q28.3 64.1 27.9 64.0 L27.65 66.85 27.75 66.7 28.15 66.5 28.65 66.0 28.65 65.95 29.1 65.85 29.45 65.95"/><path fill="none" stroke="#000000" stroke-width="0.5" stroke-opacity="0.301960784314" d="M27.65 67.0 L27.7 67.25 28.15 68.0 28.15 67.95 28.5 68.2 28.55 68.25 28.85 68.35 28.95 68.4 29.0 68.35 29.35 68.25 29.5 68.0 M29.55 67.85 L29.5 67.85 29.5 67.8 29.95 67.3 30.0 67.3 30.05 67.25 30.1 66.75 29.7 66.2 29.65 66.1 29.45 65.95 29.1 65.85 28.65 65.95 28.65 66.0 Q28.55 66.15 28.6 66.4 L28.75 66.75 28.95 67.05 29.05 67.05 29.3 67.25 29.35 67.3 29.55 67.35 29.95 67.3 M27.65 66.85 L27.6 66.9 27.65 67.0 27.65 66.95 28.15 66.5 28.65 66.0 M29.0 68.35 L29.5 67.85 M28.15 66.5 L27.75 66.7 27.65 66.85"/></g><g id="c14"><path fill="#ffcc33" stroke="none" d="M0.95 -1.35 L1.95 -0.75 2.55 0.1 2.65 0.5 2.75 1.2 2.75 1.4 Q2.7 2.4 2.0 3.1 L1.95 3.15 1.85 3.3 Q1.05 3.95 0.0 3.95 -1.15 3.95 -1.95 3.15 L-2.0 3.1 Q-2.75 2.3 -2.75 1.2 -2.75 0.25 -2.15 -0.5 L-1.95 -0.75 -1.9 -0.75 -1.65 -0.95 -1.45 -1.05 -0.8 -1.35 -0.35 -1.45 0.0 -1.5 0.95 -1.35 M0.35 -0.8 L0.35 -0.85 0.15 -1.15 -0.3 -1.3 -0.7 -1.15 -0.9 -0.8 -0.7 -0.4 -0.4 -0.25 -0.3 -0.25 Q0.0 -0.25 0.15 -0.4 L0.35 -0.8 M0.55 -1.15 L0.6 -1.05 Q1.4 0.1 0.2 0.9 L0.05 0.95 -0.05 1.0 Q-1.45 1.7 -2.3 0.5 -2.6 1.6 -2.1 2.45 -1.2 3.75 0.4 3.6 1.2 3.5 1.7 3.1 L1.85 2.95 2.45 1.7 2.5 1.35 2.55 0.8 2.4 0.2 2.4 0.15 Q1.7 -0.75 0.65 -1.1 L0.55 -1.15"/><path fill="#b98900" stroke="none" d="M0.55 -1.15 L0.65 -1.1 Q1.7 -0.75 2.4 0.15 L2.4 0.2 2.55 0.8 2.5 1.35 2.45 1.7 1.85 2.95 1.7 3.1 Q1.2 3.5 0.4 3.6 -1.2 3.75 -2.1 2.45 -2.6 1.6 -2.3 0.5 -1.45 1.7 -0.05 1.0 L0.05 0.95 0.2 0.9 Q1.4 0.1 0.6 -1.05 L0.55 -1.15"/><path fill="#ffffff" stroke="none" d="M0.35 -0.8 L0.15 -0.4 Q0.0 -0.25 -0.3 -0.25 L-0.4 -0.25 -0.7 -0.4 -0.9 -0.8 -0.7 -1.15 -0.3 -1.3 0.15 -1.15 0.35 -0.85 0.35 -0.8"/><path fill="none" stroke="#000000" stroke-width="0.5" stroke-opacity="0.4" d="M0.95 -1.35 L0.0 -1.5 -0.35 -1.45 -0.8 -1.35 -1.45 -1.05 -1.65 -0.95 -1.9 -0.75 -1.95 -0.75 -2.15 -0.5 Q-2.75 0.25 -2.75 1.2 -2.75 2.3 -2.0 3.1 L-1.95 3.15 Q-1.15 3.95 0.0 3.95 1.05 3.95 1.85 3.3"/><path fill="none" stroke="#000000" stroke-width="0.5" stroke-opacity="0.301960784314" d="M2.0 3.1 Q2.7 2.4 2.75 1.4 L2.75 1.2 2.65 0.5 2.55 0.1 1.95 -0.75 0.95 -1.35"/><path fill="none" stroke="#000000" stroke-width="0.5" stroke-opacity="0.552941176471" d="M1.85 3.3 L1.95 3.15 2.0 3.1"/><path fill="#ffffff" fill-opacity="0.301960784314" d="M-0.4 0.35 L-0.4 0.8 -0.7 0.5 -1.2 0.5 -1.65 0.25 -2.45 0.6 -1.85 0.0 -1.85 -0.8 -1.35 -1.55 -0.8 -1.75 Q-0.35 -2.0 -0.15 -2.65 L-0.2 -1.6 0.1 -1.25 Q0.3 -0.85 0.1 -0.4 0.0 0.05 -0.4 0.35 M-0.35 -0.45 Q-0.25 -0.65 -0.3 -0.85 L-0.65 -1.05 -1.05 -1.0 -1.3 -0.65 -1.3 -0.2 -1.05 0.0 -0.6 -0.05 -0.35 -0.45"/><path fill="#ffffff" stroke="none" d="M-0.35 -0.45 L-0.6 -0.05 -1.05 0.0 -1.3 -0.2 -1.3 -0.65 -1.05 -1.0 -0.65 -1.05 -0.3 -0.85 Q-0.25 -0.65 -0.35 -0.45"/><path fill="#ffffff" stroke="none" d="M-0.8 -0.3 L-1.7 0.4 -0.95 -0.75 -1.6 -2.1 -0.75 -0.85 2.45 -3.85 -0.5 -0.55 0.55 1.75 -0.8 -0.3"/></g><g id="c15"><g><use transform="matrix(1.0,0.0,0.0,1.0,0.0,0.0)" xlink:href="#c14"/></g></g><g id="c16"><path fill="#c4911a" stroke="none" d="M30.85 83.35 L32.5 83.8 33.75 84.95 30.95 84.7 30.35 83.75 30.85 83.35 M30.85 81.35 L30.8 81.35 29.15 80.95 28.35 79.9 28.8 79.3 29.65 79.75 30.85 81.35"/><path fill="#9a7016" stroke="none" d="M30.85 83.35 L32.5 81.75 32.85 81.95 34.9 84.75 34.55 85.0 34.05 85.3 33.75 84.95 32.5 83.8 30.85 83.35 M30.1 78.25 L31.75 80.45 31.8 80.6 31.55 80.8 31.5 80.8 30.85 81.35 29.65 79.75 28.8 79.3 29.9 78.35 30.1 78.25"/><path fill="#ffcc00" stroke="none" d="M33.75 84.95 L34.05 85.3 32.45 86.05 31.95 85.85 30.95 84.7 33.75 84.95 M30.8 81.35 L29.95 81.6 29.55 81.5 29.15 80.95 30.8 81.35"/><path fill="none" stroke="#382510" stroke-width="0.5" stroke-opacity="0.301960784314" d="M32.85 81.95 L32.5 81.75 30.85 83.35 M34.05 85.3 L34.55 85.0 34.9 84.75 M31.8 80.6 L31.55 80.8 M31.5 80.8 L30.85 81.35 30.8 81.35 29.95 81.6 29.55 81.5 29.15 80.95 28.35 79.9 28.8 79.3 29.9 78.35 30.1 78.25 M30.95 84.7 L31.95 85.85 32.45 86.05 34.05 85.3 M30.95 84.7 L30.35 83.75 30.85 83.35"/><path fill="#c4911a" stroke="none" d="M27.4 72.75 Q28.3 72.0 29.3 72.25 L29.7 72.7 29.55 74.65 29.4 76.7 36.65 85.35 35.45 86.35 31.6 81.85 29.3 79.15 Q27.8 77.2 27.85 75.35 L27.4 72.75"/><path fill="#ffcc00" stroke="none" d="M29.7 72.7 L31.45 74.8 38.05 82.55 38.35 83.9 36.65 85.35 29.4 76.7 29.55 74.65 29.7 72.7"/><path fill="#9a7016" stroke="none" d="M29.3 79.15 L27.6 77.1 26.85 76.2 26.1 75.3 26.05 75.05 Q25.75 73.8 27.4 72.75 L27.85 75.35 Q27.8 77.2 29.3 79.15"/><path fill="none" stroke="#382510" stroke-width="0.5" stroke-opacity="0.301960784314" d="M27.4 72.75 Q28.3 72.0 29.3 72.25 M26.05 75.05 Q25.75 73.8 27.4 72.75"/><path fill="none" stroke="#382510" stroke-width="0.5" stroke-opacity="0.301960784314" d="M29.3 72.25 L29.7 72.7 31.45 74.8 38.05 82.55 38.35 83.9 36.65 85.35 35.45 86.35 31.6 81.85 29.3 79.15 27.6 77.1 26.85 76.2 26.1 75.3 26.05 75.05"/><path fill="#fefd9a" fill-opacity="0.6" d="M34.0 78.25 L32.85 76.9 31.85 77.75 33.0 79.1 34.0 78.25 M35.35 81.9 L36.4 83.1 37.4 82.25 36.35 81.05 35.35 81.9"/><path fill="#fefd9a" stroke="none" d="M33.0 79.1 L35.35 81.9 36.35 81.05 34.0 78.25 33.0 79.1"/><path fill="#fcf3d8" fill-opacity="0.301960784314" d="M34.25 80.5 Q33.95 80.1 34.0 79.6 34.0 79.15 34.4 78.8 34.6 78.6 34.9 78.55 35.35 78.2 35.45 77.5 35.35 78.35 35.65 78.65 L36.1 79.0 Q36.45 79.35 36.4 79.8 L36.0 80.6 36.0 80.65 36.05 81.1 35.7 80.8 35.1 80.95 34.5 80.75 33.7 81.25 34.25 80.5 M34.65 79.75 L34.75 80.15 35.2 80.4 35.6 80.25 35.8 79.85 35.7 79.4 35.3 79.2 Q35.05 79.2 34.9 79.35 34.65 79.45 34.65 79.75"/><path fill="#fcf3d8" stroke="none" d="M34.65 79.75 Q34.65 79.45 34.9 79.35 35.05 79.2 35.3 79.2 L35.7 79.4 35.8 79.85 35.6 80.25 35.2 80.4 34.75 80.15 34.65 79.75"/><path fill="#fcf3d8" stroke="none" d="M35.2 79.35 L33.85 78.2 35.0 79.55 34.45 80.8 35.3 80.05 37.45 81.9 35.6 79.7 38.05 75.9 35.2 79.35"/></g><g id="c17"><g><use transform="matrix(1.0,0.0,0.0,1.0,6.3,53.35)" xlink:href="#c9"/></g><g><use transform="matrix(1.0,0.0,0.0,1.0,0.0,0.0)" xlink:href="#c10"/></g><g><use transform="matrix(0.450927734375,-0.191375732422,-0.191375732422,-0.450927734375,23.55,72.1)" filter="url(#filter13)" xlink:href="#c12"/></g><g><use transform="matrix(1.0,0.0,0.0,1.0,0.0,0.0)" xlink:href="#c13"/></g><g><use transform="matrix(0.545150756836,0.152282714844,0.152282714844,-0.545150756836,29.55,66.8)" xlink:href="#c15"/></g><g><use transform="matrix(1.0,0.0,0.0,1.0,0.0,0.0)" xlink:href="#c16"/></g><g><use transform="matrix(0.141098022461,-0.0378112792969,0.111373901367,0.225646972656,27.2,74.05)" filter="url(#filter17)" xlink:href="#c6"/></g></g><filter id="filter13"><feColorMatrix in="SourceGraphic" type="matrix" values="1.0 0.0 0.0 0.0 0.0 0.0 1.0 0.0 0.0 0.0 0.0 0.0 1.0 0.0 0.0 0.0 0.0 0.0 0.44921875 0.0" result="cxform"/><feComposite operator="in" in2="SourceGraphic" result="color-xform"/></filter><filter id="filter17"><feColorMatrix in="SourceGraphic" type="matrix" values="1.0 0.0 0.0 0.0 0.0 0.0 1.0 0.0 0.0 0.0 0.0 0.0 1.0 0.0 0.0 0.0 0.0 0.0 0.23046875 0.0" result="cxform"/><feComposite operator="in" in2="SourceGraphic" result="color-xform"/></filter></defs><g><g><use transform="matrix(1.0,0.0,0.0,1.0,0.0,0.0)" xlink:href="#c1"/></g><g><use transform="matrix(1.15496826172,0.0,0.0,1.15496826172,-1.55,-56.9)" xlink:href="#c17"/></g></g></svg>