<?xml version='1.0' encoding='UTF-8'?>
<svg xmlns:xlink="http://www.w3.org/1999/xlink" xmlns="http://www.w3.org/2000/svg" version="1.1" width="60px" height="60px" viewBox="0.0 0.0 60.0 60.0"><defs><g id="c1"><path fill="#000000" fill-opacity="0.00392156862745" d="M0.0 0.0 L60.0 0.0 60.0 60.0 0.0 60.0 0.0 0.0"/></g><g id="c2"><path fill="none" stroke="#000000" stroke-width="1.0" stroke-opacity="0.301960784314" d="M0.7 12.25 Q-0.45 9.75 0.75 8.25 1.2 7.6 2.15 7.15 2.8 6.7 3.8 6.35 L17.5 1.95 30.2 7.0 41.35 31.7 Q42.95 35.15 40.2 36.7 39.5 37.3 38.3 37.65 L19.8 43.65 Q17.15 44.45 15.5 43.3 14.35 42.55 13.65 40.9 L0.7 12.25"/><path fill="#9d147b" stroke="none" d="M35.55 22.3 L31.5 13.2 29.75 9.2 16.95 4.25 5.5 7.85 Q1.65 9.1 3.35 12.8 L8.25 23.65 15.0 38.6 15.2 39.0 Q16.8 42.25 20.45 41.1 L37.2 35.7 Q41.1 34.5 39.35 30.75 L35.55 22.3 M2.15 7.15 Q2.8 6.7 3.8 6.35 L17.5 1.95 30.2 7.0 41.35 31.7 Q42.95 35.15 40.2 36.7 L38.9 37.25 23.2 42.3 20.4 43.2 19.1 43.5 17.3 43.4 Q15.3 42.9 14.2 40.5 L5.45 20.95 1.35 11.8 Q0.4 9.65 1.1 8.3 1.45 7.65 2.15 7.15"/><path fill="#c47fad" stroke="none" d="M31.5 13.2 L35.55 22.3 39.35 30.75 Q41.1 34.5 37.2 35.7 L20.45 41.1 Q16.8 42.25 15.2 39.0 L15.0 38.6 8.25 23.65 3.35 12.8 Q1.65 9.1 5.5 7.85 L16.95 4.25 29.75 9.2 31.5 13.2 M18.5 7.45 L9.1 10.55 9.55 11.6 Q9.8 12.8 9.15 13.6 8.4 14.45 7.1 14.4 L6.8 14.4 6.95 14.6 16.3 35.2 Q16.8 36.4 17.65 37.0 18.8 37.8 20.65 37.2 L34.0 32.9 33.7 32.1 Q33.45 30.9 34.1 30.1 34.75 29.3 35.95 29.35 L35.8 29.0 27.75 10.95 18.5 7.45"/><path fill="#630a4c" stroke="none" d="M0.75 8.25 Q1.2 7.6 2.15 7.15 1.45 7.65 1.1 8.3 L0.75 8.25 M23.3 42.5 L20.1 43.55 19.1 43.5 20.4 43.2 23.2 42.3 23.3 42.5 M15.5 43.3 Q14.35 42.55 13.65 40.9 L4.6 20.9 5.45 20.95 14.2 40.5 Q15.3 42.9 17.3 43.4 L15.5 43.3"/><path fill="#300525" stroke="none" d="M4.6 20.9 L0.7 12.25 Q-0.45 9.75 0.75 8.25 L1.1 8.3 Q0.4 9.65 1.35 11.8 L5.45 20.95 4.6 20.9 M40.2 36.7 Q39.5 37.3 38.3 37.65 L23.3 42.5 23.2 42.3 38.9 37.25 40.2 36.7 M20.1 43.55 L19.8 43.65 Q17.15 44.45 15.5 43.3 L17.3 43.4 19.1 43.5 20.1 43.55"/><path fill="#fcf2cf" stroke="none" d="M27.75 10.95 L35.8 29.0 35.95 29.35 Q34.75 29.3 34.1 30.1 33.45 30.9 33.7 32.1 L34.0 32.9 20.65 37.2 Q18.8 37.8 17.65 37.0 16.8 36.4 16.3 35.2 L6.95 14.6 6.8 14.4 7.1 14.4 Q8.4 14.45 9.15 13.6 9.8 12.8 9.55 11.6 L9.1 10.55 18.5 7.45 27.75 10.95"/><path fill="none" stroke="#bf9900" stroke-width="1.0" stroke-opacity="0.749019607843" d="M31.5 13.2 L35.55 22.3 M15.0 38.6 L8.25 23.65"/><path fill="none" stroke="#ffcc00" stroke-width="1.0" stroke-opacity="0.749019607843" d="M35.55 22.3 L39.35 30.75 Q41.1 34.5 37.2 35.7 L20.45 41.1 Q16.8 42.25 15.2 39.0 L15.0 38.6 M8.25 23.65 L3.35 12.8 Q1.65 9.1 5.5 7.85 L16.95 4.25 29.75 9.2 31.5 13.2"/><path fill="none" stroke="#000000" stroke-width="0.5" stroke-opacity="0.301960784314" d="M4.6 20.9 L0.7 12.25 Q-0.45 9.75 0.75 8.25 1.2 7.6 2.15 7.15 2.8 6.7 3.8 6.35 L17.5 1.95 M30.2 7.0 L41.35 31.7 Q42.95 35.15 40.2 36.7 39.5 37.3 38.3 37.65 L23.3 42.5 20.1 43.55 19.8 43.65 Q17.15 44.45 15.5 43.3 14.35 42.55 13.65 40.9 L4.6 20.9 M5.45 20.95 L1.35 11.8 Q0.4 9.65 1.1 8.3 1.45 7.65 2.15 7.15 M19.1 43.5 L17.3 43.4 Q15.3 42.9 14.2 40.5 L5.45 20.95 M23.2 42.3 L20.4 43.2 19.1 43.5 M40.2 36.7 L38.9 37.25 23.2 42.3"/><path fill="none" stroke="#f0b92b" stroke-width="0.5" d="M27.75 10.95 L35.8 29.0 35.95 29.35 Q34.75 29.3 34.1 30.1 33.45 30.9 33.7 32.1 L34.0 32.9 20.65 37.2 Q18.8 37.8 17.65 37.0 16.8 36.4 16.3 35.2 L6.95 14.6 6.8 14.4 7.1 14.4 Q8.4 14.45 9.15 13.6 9.8 12.8 9.55 11.6 L9.1 10.55 18.5 7.45"/><path fill="none" stroke="#ffcc00" stroke-width="0.5" stroke-opacity="0.749019607843" d="M18.5 7.45 L27.75 10.95"/></g><g id="c3"><path fill="#7fdbfe" stroke="none" d="M10.75 4.9 Q10.75 4.6 10.9 4.35 11.25 3.45 11.95 2.75 13.3 1.5 14.35 2.1 15.4 2.7 14.95 4.45 14.7 5.4 14.1 6.15 L13.75 6.5 Q13.1 7.15 12.35 7.35 L11.4 7.2 Q10.95 6.9 10.75 6.4 10.5 5.75 10.75 4.9 M7.5 5.9 Q7.0 5.85 6.6 5.5 6.05 5.0 5.8 4.15 L5.7 3.6 Q5.55 2.65 5.8 1.7 6.25 0.0 7.5 0.0 L7.6 0.0 Q8.85 0.0 9.3 1.7 9.55 2.65 9.4 3.6 L9.3 4.15 8.5 5.5 7.6 5.9 7.5 5.9 M4.35 4.9 Q4.6 5.75 4.35 6.4 L3.7 7.2 2.75 7.35 Q2.0 7.15 1.35 6.5 L1.0 6.15 Q0.4 5.4 0.15 4.45 -0.3 2.7 0.75 2.1 1.8 1.5 3.15 2.75 3.85 3.45 4.2 4.35 L4.35 4.9 M5.5 13.7 Q4.45 13.9 3.65 12.95 2.75 12.0 3.2 10.25 3.7 8.5 5.25 7.6 6.4 6.9 7.55 7.0 8.75 6.9 9.9 7.6 11.45 8.5 11.95 10.25 12.35 12.0 11.5 12.95 10.7 13.9 9.65 13.7 8.55 13.5 7.55 12.6 6.55 13.5 5.5 13.7"/></g><g id="c4"><g><use transform="matrix(1.0,0.0,0.0,1.0,0.0,0.0)" xlink:href="#c3"/></g></g><radialGradient gradientUnits="userSpaceOnUse" r="819.2" cx="0" cy="0" spreadMethod="pad" gradientTransform="matrix(0.0914459228516,0.0,0.0,0.0914459228516,0.6,3.4)" id="gradient1"><stop offset="0.0" stop-color="#ffffff"/><stop offset="1.0" stop-color="#ffffff" stop-opacity="0.0"/></radialGradient><g id="c5"><path stroke="none" fill="url(#gradient1)" d="M36.65 -54.65 Q60.05 -42.0 69.75 -17.95 80.55 8.9 68.0 34.1 55.45 59.35 26.8 68.2 -1.8 77.05 -29.7 64.3 -57.6 51.6 -68.45 24.75 -79.3 -2.05 -66.75 -27.25 L-66.7 -27.3 Q-54.1 -52.5 -25.5 -61.4 3.1 -70.2 31.0 -57.5 L36.65 -54.65"/></g><g id="c6"><g><use transform="matrix(1.0,0.0,0.0,1.0,0.0,0.0)" xlink:href="#c5"/></g></g><radialGradient gradientUnits="userSpaceOnUse" r="819.2" cx="0" cy="0" spreadMethod="pad" gradientTransform="matrix(0.209197998047,0.0,0.0,0.177108764648,67.15,107.2)" id="gradient2"><stop offset="0.356862745098" stop-color="#ffffff"/><stop offset="0.670588235294" stop-opacity="0.0"/></radialGradient><g id="c7"><path fill="none" stroke-linejoin="round" stroke-linecap="round" stroke="url(#gradient2)" stroke-width="0.5" d="M136.55 165.8 L68.6 106.0 68.4 106.0 118.25 201.5 M68.3 105.8 L68.35 105.8 68.3 105.8 68.3 105.85 68.4 106.0 68.3 106.0 86.55 211.5 M68.3 105.8 L68.3 105.85 68.3 106.0 68.15 105.95 18.25 151.55 M68.3 105.85 L68.25 105.85 68.3 106.0 50.0 193.2 M68.25 105.85 L68.15 105.95 0.05 97.7 M68.3 105.85 L68.25 105.8 68.25 105.85 M68.25 105.8 L68.2 105.7 0.0 45.7 M68.3 105.8 L68.25 105.75 68.25 105.8 M68.25 105.75 L68.2 105.7 18.25 10.05 M68.6 106.0 L68.35 105.8 118.25 60.15 M86.6 18.35 L68.3 105.8 M136.6 114.25 L68.6 106.0 M68.25 105.75 L49.95 0.05"/></g><g id="c8"><g><use transform="matrix(1.0,0.0,0.0,1.0,0.0,0.0)" xlink:href="#c7"/></g></g><g id="c9"><g><use transform="matrix(1.0,0.0,0.0,1.0,0.0,0.0)" xlink:href="#c2"/></g><g><use transform="matrix(0.238861083984,-0.0867004394531,0.10026550293,0.233917236328,34.25,31.15)" xlink:href="#c4"/></g><g><use transform="matrix(0.238861083984,-0.0867004394531,0.10026550293,0.233917236328,4.25,10.3)" xlink:href="#c4"/></g><g><use transform="matrix(0.141098022461,-0.0378112792969,0.111373901367,0.225646972656,20.25,20.65)" filter="url(#filter7)" xlink:href="#c6"/></g><g><use transform="matrix(-0.155029296875,0.0513153076172,0.0841827392578,0.147033691406,22.6,3.15)" filter="url(#filter8)" xlink:href="#c8"/></g></g><filter id="filter7"><feColorMatrix in="SourceGraphic" type="matrix" values="0.0 0.0 0.0 0.0 0.796875 0.0 0.0 0.0 0.0 0.59765625 0.0 0.0 0.0 0.0 0.19921875 0.0 0.0 0.0 1.0 0.0" result="cxform"/><feComposite operator="in" in2="SourceGraphic" result="color-xform"/></filter><filter id="filter8"><feColorMatrix in="SourceGraphic" type="matrix" values="0.0 0.0 0.0 0.0 0.99609375 0.0 0.0 0.0 0.0 0.99609375 0.0 0.0 0.0 0.0 0.99609375 0.0 0.0 0.0 1.0 0.0" result="cxform"/><feComposite operator="in" in2="SourceGraphic" result="color-xform"/></filter><linearGradient gradientUnits="userSpaceOnUse" x1="-819.2" x2="819.2" spreadMethod="pad" gradientTransform="matrix(0.00981140136719,-0.00262451171875,0.00192260742188,0.0072021484375,28.85,78.7)" id="gradient3"><stop offset="0.313725490196" stop-color="#689aca"/><stop offset="0.839215686275" stop-color="#33576f"/><stop offset="1.0" stop-color="#5d91b4"/></linearGradient><radialGradient gradientUnits="userSpaceOnUse" r="819.2" cx="0" cy="0" spreadMethod="pad" gradientTransform="matrix(0.0110626220703,0.0,0.0,0.0110626220703,26.45,73.35)" id="gradient4"><stop offset="0.0" stop-color="#eef7f7"/><stop offset="0.741176470588" stop-color="#97cbdc"/></radialGradient><linearGradient gradientUnits="userSpaceOnUse" x1="-819.2" x2="819.2" spreadMethod="pad" gradientTransform="matrix(0.00418090820312,0.0,0.0,0.00360107421875,31.6,82.2)" id="gradient5"><stop offset="0.313725490196" stop-color="#689aca"/><stop offset="0.839215686275" stop-color="#33576f"/><stop offset="1.0" stop-color="#5d91b4"/></linearGradient><g id="c10"><path stroke="none" fill="url(#gradient3)" d="M34.8 70.85 L35.6 72.0 Q36.45 73.55 36.0 76.25 L35.85 76.95 35.15 79.3 Q31.7 84.7 28.25 85.25 26.5 85.25 24.85 84.5 L23.55 83.85 23.05 83.55 Q19.05 80.45 21.25 75.55 20.7 80.0 24.2 81.05 31.05 82.4 33.6 78.7 36.0 74.2 34.8 70.85"/><path stroke="none" fill="url(#gradient4)" d="M21.25 75.55 L22.75 72.85 Q26.0 69.0 31.2 68.9 33.35 69.1 34.8 70.85 36.0 74.2 33.6 78.7 31.05 82.4 24.2 81.05 20.7 80.0 21.25 75.55 M29.95 71.85 L29.3 71.1 Q28.8 70.9 28.25 71.1 27.75 71.3 27.55 71.75 27.3 72.25 27.5 72.75 27.7 73.3 28.15 73.5 L29.2 73.55 29.9 72.85 29.95 71.85"/><path fill="#fcf3d8" stroke="none" d="M29.95 71.85 L29.9 72.85 29.2 73.55 28.15 73.5 Q27.7 73.3 27.5 72.75 27.3 72.25 27.55 71.75 27.75 71.3 28.25 71.1 28.8 70.9 29.3 71.1 L29.95 71.85"/><path stroke="none" fill="url(#gradient5)" d="M35.15 79.3 Q34.2 81.6 32.45 83.6 31.2 85.1 28.7 85.25 L28.25 85.25 Q31.7 84.7 35.15 79.3"/></g><radialGradient gradientUnits="userSpaceOnUse" r="819.2" cx="0" cy="0" spreadMethod="pad" gradientTransform="matrix(0.0870208740234,0.0,0.0,0.0870208740234,-10.45,-47.0)" id="gradient6"><stop offset="0.0" stop-color="#70fff9"/><stop offset="1.0" stop-color="#1f4947"/></radialGradient><g id="c11"><path stroke="none" fill="url(#gradient6)" d="M24.75 -44.8 Q27.6 -39.6 26.05 -30.4 L25.55 -28.0 Q24.7 -23.95 23.15 -20.15 20.0 -12.3 14.15 -5.55 9.8 -0.5 1.3 -0.05 L-0.15 0.0 Q-6.0 -0.05 -11.75 -2.55 -13.95 -3.5 -16.1 -4.75 L-17.85 -5.85 Q-31.3 -16.15 -23.95 -32.75 -22.1 -37.1 -18.75 -41.95 -7.75 -55.05 9.8 -55.45 17.15 -54.7 22.05 -48.8 23.5 -47.0 24.75 -44.8"/></g><g id="c12"><g><use transform="matrix(1.0,0.0,0.0,1.0,0.0,0.0)" xlink:href="#c11"/></g></g><g id="c13"><path fill="#fcf3d8" fill-opacity="0.301960784314" d="M1.6 14.1 Q0.65 13.1 0.6 11.65 0.6 10.2 1.6 9.2 2.25 8.55 3.1 8.35 4.2 7.2 4.35 5.1 4.25 7.6 5.2 8.4 5.95 8.65 6.5 9.25 7.55 10.25 7.6 11.7 7.55 13.0 6.65 14.05 L6.55 14.15 6.95 15.45 5.8 14.75 Q5.05 15.15 4.1 15.15 3.2 15.1 2.4 14.7 L0.1 16.3 1.6 14.1 M2.55 11.85 Q2.55 12.5 3.05 13.05 3.55 13.55 4.25 13.55 4.95 13.55 5.45 13.05 6.0 12.55 6.0 11.9 6.0 11.15 5.5 10.65 5.0 10.1 4.25 10.1 3.55 10.1 3.05 10.6 2.55 11.1 2.55 11.85"/><path fill="#fcf3d8" stroke="none" d="M2.55 11.85 Q2.55 11.1 3.05 10.6 3.55 10.1 4.25 10.1 5.0 10.1 5.5 10.65 6.0 11.15 6.0 11.9 6.0 12.55 5.45 13.05 4.95 13.55 4.25 13.55 3.55 13.55 3.05 13.05 2.55 12.5 2.55 11.85"/><path fill="#fcf3d8" stroke="none" d="M4.25 10.8 L7.65 7.55 Q6.1 9.2 5.4 11.55 L11.25 17.55 4.65 12.6 2.4 15.05 3.6 11.4 0.0 7.65 4.25 10.8"/></g><g id="c14"><g><use transform="matrix(1.0,0.0,0.0,1.0,0.0,0.0)" xlink:href="#c13"/></g></g><linearGradient gradientUnits="userSpaceOnUse" x1="-819.2" x2="819.2" spreadMethod="pad" gradientTransform="matrix(-0.0113525390625,0.0113525390625,-0.00263977050781,-0.00263977050781,-12.15,-2.45)" id="gradient7"><stop offset="0.0" stop-opacity="0.0"/><stop offset="1.0"/></linearGradient><g id="c15"><path fill="#66cccc" stroke="none" d="M6.1 -1.75 Q5.85 -0.6 3.85 -0.2 L-0.6 -0.3 Q-3.1 -0.85 -4.75 -2.05 -6.35 -3.25 -6.1 -4.4 -5.85 -5.55 -3.9 -5.95 L0.6 -5.8 Q3.1 -5.25 4.7 -4.1 6.35 -2.9 6.1 -1.75"/><path fill="none" stroke-linejoin="round" stroke-linecap="round" stroke="url(#gradient7)" stroke-width="0.5" d="M6.1 -1.75 Q6.35 -2.9 4.7 -4.1 3.1 -5.25 0.6 -5.8 L-3.9 -5.95 Q-5.85 -5.55 -6.1 -4.4 -6.35 -3.25 -4.75 -2.05 -3.1 -0.85 -0.6 -0.3 L3.85 -0.2 Q5.85 -0.6 6.1 -1.75"/></g><g id="c16"><g><use transform="matrix(1.0,0.0,0.0,1.0,0.0,0.0)" xlink:href="#c15"/></g></g><g id="c17"><path fill="none" stroke="#28332a" stroke-width="0.5" stroke-opacity="0.101960784314" d="M23.1 72.7 L29.05 69.0 31.5 68.7 Q32.6 68.8 33.5 69.3 L35.1 70.65 35.9 71.85 Q36.75 73.4 36.3 76.1 L36.15 76.8 35.45 79.15 Q34.5 81.45 32.8 83.45 31.5 84.9 29.0 85.05 L28.6 85.05 28.55 85.05 Q26.85 85.05 25.15 84.3 L23.85 83.65 23.75 83.6 23.35 83.35 22.25 82.3 20.75 78.65 Q20.75 77.1 21.55 75.4 22.1 74.1 23.1 72.7"/></g><g id="c18"><g><use transform="matrix(1.0,0.0,0.0,1.0,6.3,53.35)" xlink:href="#c9"/></g><g><use transform="matrix(1.0,0.0,0.0,1.0,0.0,0.0)" xlink:href="#c10"/></g><g><use transform="matrix(0.295074462891,0.0,0.0,0.295074462891,28.3,85.15)" filter="url(#filter14)" xlink:href="#c12"/></g><g><use transform="matrix(0.431381225586,0.115539550781,-0.115539550781,0.431381225586,23.4,66.5)" filter="url(#filter15)" xlink:href="#c14"/></g><g><use transform="matrix(0.300720214844,0.0805358886719,0.140853881836,-0.525756835938,30.4,70.3)" xlink:href="#c16"/></g><g><use transform="matrix(0.201126098633,-0.116104125977,-0.203002929688,-0.351654052734,22.25,75.4)" xlink:href="#c16"/></g><g><use transform="matrix(0.415466308594,0.0,0.0,-0.726303100586,30.9,75.25)" xlink:href="#c16"/></g><g><use transform="matrix(0.0804901123047,-0.13948059082,-0.243865966797,-0.140777587891,26.2,78.6)" xlink:href="#c16"/></g><g><use transform="matrix(0.22998046875,0.136138916016,0.146118164062,-0.417098999023,27.95,81.8)" xlink:href="#c16"/></g><g><use transform="matrix(1.0,0.0,0.0,1.0,0.0,0.0)" xlink:href="#c17"/></g><g><use transform="matrix(0.141098022461,-0.0378112792969,0.111373901367,0.225646972656,27.2,74.05)" filter="url(#filter22)" xlink:href="#c6"/></g></g><filter id="filter14"><feColorMatrix in="SourceGraphic" type="matrix" values="1.0 0.0 0.0 0.0 0.0 0.0 1.0 0.0 0.0 0.0 0.0 0.0 1.0 0.0 0.0 0.0 0.0 0.0 0.58984375 0.0" result="cxform"/><feComposite operator="in" in2="SourceGraphic" result="color-xform"/></filter><filter id="filter15"><feColorMatrix in="SourceGraphic" type="matrix" values="0.0 0.0 0.0 0.0 0.99609375 0.0 0.0 0.0 0.0 0.99609375 0.0 0.0 0.0 0.0 0.765625 0.0 0.0 0.0 1.0 0.0" result="cxform"/><feComposite operator="in" in2="SourceGraphic" result="color-xform"/></filter><filter id="filter22"><feColorMatrix in="SourceGraphic" type="matrix" values="1.0 0.0 0.0 0.0 0.0 0.0 1.0 0.0 0.0 0.0 0.0 0.0 1.0 0.0 0.0 0.0 0.0 0.0 0.23046875 0.0" result="cxform"/><feComposite operator="in" in2="SourceGraphic" result="color-xform"/></filter></defs><g><g><use transform="matrix(1.0,0.0,0.0,1.0,0.0,0.0)" xlink:href="#c1"/></g><g><use transform="matrix(1.15496826172,0.0,0.0,1.15496826172,-1.55,-56.9)" xlink:href="#c18"/></g></g></svg>