<?xml version='1.0' encoding='UTF-8'?>
<svg xmlns:xlink="http://www.w3.org/1999/xlink" xmlns="http://www.w3.org/2000/svg" version="1.1" width="60px" height="60px" viewBox="0.0 0.0 60.0 60.0"><defs><g id="c1"><path fill="#000000" fill-opacity="0.00392156862745" d="M0.0 0.0 L60.0 0.0 60.0 60.0 0.0 60.0 0.0 0.0"/></g><g id="c2"><path fill="none" stroke="#000000" stroke-width="1.0" stroke-opacity="0.301960784314" d="M0.7 12.25 Q-0.45 9.75 0.75 8.25 1.2 7.6 2.15 7.15 2.8 6.7 3.8 6.35 L17.5 1.95 30.2 7.0 41.35 31.7 Q42.95 35.15 40.2 36.7 39.5 37.3 38.3 37.65 L19.8 43.65 Q17.15 44.45 15.5 43.3 14.35 42.55 13.65 40.9 L0.7 12.25"/><path fill="#9d147b" stroke="none" d="M35.55 22.3 L31.5 13.2 29.75 9.2 16.95 4.25 5.5 7.85 Q1.65 9.1 3.35 12.8 L8.25 23.65 15.0 38.6 15.2 39.0 Q16.8 42.25 20.45 41.1 L37.2 35.7 Q41.1 34.5 39.35 30.75 L35.55 22.3 M2.15 7.15 Q2.8 6.7 3.8 6.35 L17.5 1.95 30.2 7.0 41.35 31.7 Q42.95 35.15 40.2 36.7 L38.9 37.25 23.2 42.3 20.4 43.2 19.1 43.5 17.3 43.4 Q15.3 42.9 14.2 40.5 L5.45 20.95 1.35 11.8 Q0.4 9.65 1.1 8.3 1.45 7.65 2.15 7.15"/><path fill="#c47fad" stroke="none" d="M31.5 13.2 L35.55 22.3 39.35 30.75 Q41.1 34.5 37.2 35.7 L20.45 41.1 Q16.8 42.25 15.2 39.0 L15.0 38.6 8.25 23.65 3.35 12.8 Q1.65 9.1 5.5 7.85 L16.95 4.25 29.75 9.2 31.5 13.2 M18.5 7.45 L9.1 10.55 9.55 11.6 Q9.8 12.8 9.15 13.6 8.4 14.45 7.1 14.4 L6.8 14.4 6.95 14.6 16.3 35.2 Q16.8 36.4 17.65 37.0 18.8 37.8 20.65 37.2 L34.0 32.9 33.7 32.1 Q33.45 30.9 34.1 30.1 34.75 29.3 35.95 29.35 L35.8 29.0 27.75 10.95 18.5 7.45"/><path fill="#630a4c" stroke="none" d="M0.75 8.25 Q1.2 7.6 2.15 7.15 1.45 7.65 1.1 8.3 L0.75 8.25 M23.3 42.5 L20.1 43.55 19.1 43.5 20.4 43.2 23.2 42.3 23.3 42.5 M15.5 43.3 Q14.35 42.55 13.65 40.9 L4.6 20.9 5.45 20.95 14.2 40.5 Q15.3 42.9 17.3 43.4 L15.5 43.3"/><path fill="#300525" stroke="none" d="M4.6 20.9 L0.7 12.25 Q-0.45 9.75 0.75 8.25 L1.1 8.3 Q0.4 9.65 1.35 11.8 L5.45 20.95 4.6 20.9 M40.2 36.7 Q39.5 37.3 38.3 37.65 L23.3 42.5 23.2 42.3 38.9 37.25 40.2 36.7 M20.1 43.55 L19.8 43.65 Q17.15 44.45 15.5 43.3 L17.3 43.4 19.1 43.5 20.1 43.55"/><path fill="#fcf2cf" stroke="none" d="M27.75 10.95 L35.8 29.0 35.95 29.35 Q34.75 29.3 34.1 30.1 33.45 30.9 33.7 32.1 L34.0 32.9 20.65 37.2 Q18.8 37.8 17.65 37.0 16.8 36.4 16.3 35.2 L6.95 14.6 6.8 14.4 7.1 14.4 Q8.4 14.45 9.15 13.6 9.8 12.8 9.55 11.6 L9.1 10.55 18.5 7.45 27.75 10.95"/><path fill="none" stroke="#bf9900" stroke-width="1.0" stroke-opacity="0.749019607843" d="M31.5 13.2 L35.55 22.3 M15.0 38.6 L8.25 23.65"/><path fill="none" stroke="#ffcc00" stroke-width="1.0" stroke-opacity="0.749019607843" d="M35.55 22.3 L39.35 30.75 Q41.1 34.5 37.2 35.7 L20.45 41.1 Q16.8 42.25 15.2 39.0 L15.0 38.6 M8.25 23.65 L3.35 12.8 Q1.65 9.1 5.5 7.85 L16.95 4.25 29.75 9.2 31.5 13.2"/><path fill="none" stroke="#000000" stroke-width="0.5" stroke-opacity="0.301960784314" d="M4.6 20.9 L0.7 12.25 Q-0.45 9.75 0.75 8.25 1.2 7.6 2.15 7.15 2.8 6.7 3.8 6.35 L17.5 1.95 M30.2 7.0 L41.35 31.7 Q42.95 35.15 40.2 36.7 39.5 37.3 38.3 37.65 L23.3 42.5 20.1 43.55 19.8 43.65 Q17.15 44.45 15.5 43.3 14.35 42.55 13.65 40.9 L4.6 20.9 M5.45 20.95 L1.35 11.8 Q0.4 9.65 1.1 8.3 1.45 7.65 2.15 7.15 M19.1 43.5 L17.3 43.4 Q15.3 42.9 14.2 40.5 L5.45 20.95 M23.2 42.3 L20.4 43.2 19.1 43.5 M40.2 36.7 L38.9 37.25 23.2 42.3"/><path fill="none" stroke="#f0b92b" stroke-width="0.5" d="M27.75 10.95 L35.8 29.0 35.95 29.35 Q34.75 29.3 34.1 30.1 33.45 30.9 33.7 32.1 L34.0 32.9 20.65 37.2 Q18.8 37.8 17.65 37.0 16.8 36.4 16.3 35.2 L6.95 14.6 6.8 14.4 7.1 14.4 Q8.4 14.45 9.15 13.6 9.8 12.8 9.55 11.6 L9.1 10.55 18.5 7.45"/><path fill="none" stroke="#ffcc00" stroke-width="0.5" stroke-opacity="0.749019607843" d="M18.5 7.45 L27.75 10.95"/></g><g id="c3"><path fill="#7fdbfe" stroke="none" d="M10.75 4.9 Q10.75 4.6 10.9 4.35 11.25 3.45 11.95 2.75 13.3 1.5 14.35 2.1 15.4 2.7 14.95 4.45 14.7 5.4 14.1 6.15 L13.75 6.5 Q13.1 7.15 12.35 7.35 L11.4 7.2 Q10.95 6.9 10.75 6.4 10.5 5.75 10.75 4.9 M7.5 5.9 Q7.0 5.85 6.6 5.5 6.05 5.0 5.8 4.15 L5.7 3.6 Q5.55 2.65 5.8 1.7 6.25 0.0 7.5 0.0 L7.6 0.0 Q8.85 0.0 9.3 1.7 9.55 2.65 9.4 3.6 L9.3 4.15 8.5 5.5 7.6 5.9 7.5 5.9 M4.35 4.9 Q4.6 5.75 4.35 6.4 L3.7 7.2 2.75 7.35 Q2.0 7.15 1.35 6.5 L1.0 6.15 Q0.4 5.4 0.15 4.45 -0.3 2.7 0.75 2.1 1.8 1.5 3.15 2.75 3.85 3.45 4.2 4.35 L4.35 4.9 M5.5 13.7 Q4.45 13.9 3.65 12.95 2.75 12.0 3.2 10.25 3.7 8.5 5.25 7.6 6.4 6.9 7.55 7.0 8.75 6.9 9.9 7.6 11.45 8.5 11.95 10.25 12.35 12.0 11.5 12.95 10.7 13.9 9.65 13.7 8.55 13.5 7.55 12.6 6.55 13.5 5.5 13.7"/></g><g id="c4"><g><use transform="matrix(1.0,0.0,0.0,1.0,0.0,0.0)" xlink:href="#c3"/></g></g><radialGradient gradientUnits="userSpaceOnUse" r="819.2" cx="0" cy="0" spreadMethod="pad" gradientTransform="matrix(0.0914459228516,0.0,0.0,0.0914459228516,0.6,3.4)" id="gradient1"><stop offset="0.0" stop-color="#ffffff"/><stop offset="1.0" stop-color="#ffffff" stop-opacity="0.0"/></radialGradient><g id="c5"><path stroke="none" fill="url(#gradient1)" d="M36.65 -54.65 Q60.05 -42.0 69.75 -17.95 80.55 8.9 68.0 34.1 55.45 59.35 26.8 68.2 -1.8 77.05 -29.7 64.3 -57.6 51.6 -68.45 24.75 -79.3 -2.05 -66.75 -27.25 L-66.7 -27.3 Q-54.1 -52.5 -25.5 -61.4 3.1 -70.2 31.0 -57.5 L36.65 -54.65"/></g><g id="c6"><g><use transform="matrix(1.0,0.0,0.0,1.0,0.0,0.0)" xlink:href="#c5"/></g></g><radialGradient gradientUnits="userSpaceOnUse" r="819.2" cx="0" cy="0" spreadMethod="pad" gradientTransform="matrix(0.209197998047,0.0,0.0,0.177108764648,67.15,107.2)" id="gradient2"><stop offset="0.356862745098" stop-color="#ffffff"/><stop offset="0.670588235294" stop-opacity="0.0"/></radialGradient><g id="c7"><path fill="none" stroke-linejoin="round" stroke-linecap="round" stroke="url(#gradient2)" stroke-width="0.5" d="M136.55 165.8 L68.6 106.0 68.4 106.0 118.25 201.5 M68.3 105.8 L68.35 105.8 68.3 105.8 68.3 105.85 68.4 106.0 68.3 106.0 86.55 211.5 M68.3 105.8 L68.3 105.85 68.3 106.0 68.15 105.95 18.25 151.55 M68.3 105.85 L68.25 105.85 68.3 106.0 50.0 193.2 M68.25 105.85 L68.15 105.95 0.05 97.7 M68.3 105.85 L68.25 105.8 68.25 105.85 M68.25 105.8 L68.2 105.7 0.0 45.7 M68.3 105.8 L68.25 105.75 68.25 105.8 M68.25 105.75 L68.2 105.7 18.25 10.05 M68.6 106.0 L68.35 105.8 118.25 60.15 M86.6 18.35 L68.3 105.8 M136.6 114.25 L68.6 106.0 M68.25 105.75 L49.95 0.05"/></g><g id="c8"><g><use transform="matrix(1.0,0.0,0.0,1.0,0.0,0.0)" xlink:href="#c7"/></g></g><g id="c9"><g><use transform="matrix(1.0,0.0,0.0,1.0,0.0,0.0)" xlink:href="#c2"/></g><g><use transform="matrix(0.238861083984,-0.0867004394531,0.10026550293,0.233917236328,34.25,31.15)" xlink:href="#c4"/></g><g><use transform="matrix(0.238861083984,-0.0867004394531,0.10026550293,0.233917236328,4.25,10.3)" xlink:href="#c4"/></g><g><use transform="matrix(0.141098022461,-0.0378112792969,0.111373901367,0.225646972656,20.25,20.65)" filter="url(#filter7)" xlink:href="#c6"/></g><g><use transform="matrix(-0.155029296875,0.0513153076172,0.0841827392578,0.147033691406,22.6,3.15)" filter="url(#filter8)" xlink:href="#c8"/></g></g><filter id="filter7"><feColorMatrix in="SourceGraphic" type="matrix" values="0.0 0.0 0.0 0.0 0.796875 0.0 0.0 0.0 0.0 0.59765625 0.0 0.0 0.0 0.0 0.19921875 0.0 0.0 0.0 1.0 0.0" result="cxform"/><feComposite operator="in" in2="SourceGraphic" result="color-xform"/></filter><filter id="filter8"><feColorMatrix in="SourceGraphic" type="matrix" values="0.0 0.0 0.0 0.0 0.99609375 0.0 0.0 0.0 0.0 0.99609375 0.0 0.0 0.0 0.0 0.99609375 0.0 0.0 0.0 1.0 0.0" result="cxform"/><feComposite operator="in" in2="SourceGraphic" result="color-xform"/></filter><g id="c10"><path fill="#644520" stroke="none" d="M13.55 -20.05 L13.1 -20.05 11.35 -21.8 11.25 -21.8 10.55 -22.6 9.95 -22.6 9.95 -22.65 8.75 -23.05 8.65 -23.4 9.95 -23.35 10.55 -23.3 10.55 -23.6 12.0 -22.85 13.55 -20.05 M10.75 -17.8 L10.45 -17.9 9.55 -20.3 8.8 -20.4 8.85 -20.65 Q7.85 -21.05 6.85 -21.55 L7.0 -21.15 6.55 -21.05 6.45 -21.0 5.65 -20.85 5.55 -20.55 5.65 -20.85 6.8 -19.85 7.35 -19.35 6.85 -18.35 8.35 -18.4 8.45 -18.15 8.45 -17.7 8.5 -17.35 7.1 -17.35 6.05 -15.3 4.65 -17.65 3.5 -16.7 3.7 -18.1 1.25 -18.85 0.7 -17.8 -0.3 -17.8 -0.4 -17.95 -0.45 -18.05 -0.85 -18.2 -1.3 -18.4 -1.9 -18.2 -2.0 -19.45 Q-2.15 -19.3 -2.35 -19.2 L-2.4 -18.65 -3.5 -19.55 -4.15 -19.4 -4.2 -18.65 -4.85 -20.75 -7.2 -20.15 -7.5 -19.25 -7.85 -20.7 -6.5 -21.6 -6.5 -21.65 -5.0 -22.0 -4.85 -22.0 -4.35 -20.7 -4.15 -20.15 -3.15 -19.95 -2.75 -19.5 -2.7 -19.45 -2.55 -21.0 -1.65 -21.1 -1.35 -19.45 -1.2 -18.55 0.55 -18.3 0.85 -19.15 1.35 -20.85 4.5 -20.2 4.05 -17.9 4.05 -17.85 3.95 -17.55 4.05 -17.65 4.9 -19.45 4.9 -19.6 5.55 -20.55 5.1 -20.65 5.05 -20.8 5.4 -21.55 5.9 -22.15 6.05 -22.2 6.05 -21.65 6.35 -21.65 6.45 -21.0 6.35 -21.65 6.05 -21.65 6.05 -22.2 5.9 -22.15 5.4 -21.55 5.05 -20.8 4.95 -20.75 4.9 -20.75 4.2 -20.9 Q4.2 -21.5 4.6 -22.05 5.25 -22.6 6.0 -22.6 L6.1 -23.0 6.3 -23.8 Q6.7 -24.2 7.4 -24.2 L7.9 -24.3 8.2 -23.9 7.4 -24.1 7.4 -24.2 7.4 -24.1 7.65 -23.2 7.65 -23.1 7.55 -23.05 9.4 -22.2 9.5 -22.45 10.45 -21.15 10.75 -17.8 M6.0 -22.6 L6.05 -22.2 6.0 -22.6 M9.95 -23.35 L9.95 -22.65 9.95 -23.35 M6.35 -21.65 L6.8 -21.6 6.85 -21.55 6.8 -21.6 6.35 -21.65 M-8.1 -20.15 L-7.4 -18.8 -6.7 -17.65 -8.1 -19.1 -9.45 -18.75 -9.85 -18.1 -10.35 -17.7 -10.7 -18.2 -8.1 -20.15 M-2.15 -15.95 L-2.1 -15.9 -2.8 -15.55 -2.9 -15.7 -2.15 -15.95 M-5.4 -16.55 L-5.25 -16.45 -5.25 -16.35 -5.4 -15.9 -5.6 -15.85 -5.65 -16.05 -5.4 -16.55 M-6.7 -14.7 L-6.7 -14.65 Q-7.0 -13.8 -6.75 -13.2 L-6.65 -12.95 -6.1 -13.35 -6.65 -12.7 -6.65 -12.65 -7.15 -12.8 -7.65 -13.25 -6.7 -14.7 M-3.45 -17.05 L-3.0 -17.2 -2.95 -15.8 -3.45 -17.05"/><path fill="#a67835" stroke="none" d="M11.0 -23.95 Q11.75 -24.6 12.55 -23.65 L13.95 -20.1 13.55 -20.05 12.0 -22.85 10.55 -23.6 11.0 -23.95 M11.25 -21.8 L11.1 -17.7 10.75 -17.8 10.45 -21.15 9.5 -22.45 9.4 -22.2 7.55 -23.05 7.65 -23.1 7.65 -23.2 7.4 -24.1 8.2 -23.9 8.65 -23.7 8.65 -23.4 8.75 -23.05 9.95 -22.65 9.95 -22.6 10.55 -22.6 11.25 -21.8 M0.85 1.5 L-0.8 1.85 -0.65 0.6 0.0 -2.7 0.1 -4.6 -0.5 -5.9 -1.2 -7.1 -1.35 -9.9 -0.2 -10.8 1.9 -11.15 2.05 -12.05 1.35 -12.05 1.35 -12.3 0.15 -12.3 0.0 -12.45 0.0 -12.5 0.4 -13.3 0.3 -13.9 0.45 -14.1 1.5 -14.4 3.05 -14.85 3.4 -14.65 3.45 -14.65 3.55 -14.7 4.0 -15.0 4.9 -15.0 4.8 -14.65 4.7 -14.35 4.4 -12.75 4.4 -12.2 4.95 -13.15 5.0 -13.2 6.25 -12.5 4.4 -11.2 4.55 -9.5 2.25 -8.75 Q1.65 -8.6 1.15 -7.95 L0.7 -7.4 Q0.1 -6.3 0.1 -5.0 L0.1 -4.6 Q0.25 -3.55 0.85 -3.0 1.5 -2.35 2.5 -2.65 L3.2 -2.8 2.85 0.25 1.1 1.15 0.85 1.5 M-8.9 -6.9 L-9.05 -8.0 -8.2 -9.35 -8.2 -8.15 -7.15 -11.1 -5.95 -10.9 Q-6.95 -8.15 -8.0 -7.3 L-8.05 -7.35 Q-8.35 -6.7 -8.9 -6.9 M-11.1 -8.95 L-11.05 -9.25 -10.0 -11.2 -9.8 -12.3 -9.6 -12.7 -9.55 -11.75 -8.85 -12.6 -8.35 -13.55 -7.65 -13.25 -8.05 -13.75 Q-8.0 -14.4 -7.55 -14.95 L-6.7 -14.7 -7.65 -13.25 -7.15 -12.8 -8.45 -10.25 -9.15 -9.25 -10.55 -7.8 -10.75 -8.4 -10.05 -9.9 -11.1 -8.95 M-9.95 -14.55 L-9.9 -14.6 -9.9 -14.55 -9.95 -14.55 M-9.1 -21.8 L-6.45 -22.55 -5.0 -22.0 -6.5 -21.65 -8.45 -21.65 -8.3 -21.4 -9.1 -21.8 M-4.35 -20.7 L-3.6 -20.45 -3.15 -19.95 -4.15 -20.15 -4.35 -20.7 M-1.35 -19.45 L0.85 -19.15 0.55 -18.3 -1.2 -18.55 -1.35 -19.45 M5.9 -14.95 L7.1 -14.85 6.65 -14.0 5.4 -14.4 5.7 -15.3 5.9 -14.95 M4.4 -12.2 L4.4 -11.2 4.4 -12.2 M4.95 -3.45 L5.25 -0.2 4.3 -0.6 4.15 -3.2 4.95 -3.45 M-10.0 -11.2 L-9.55 -11.75 -10.0 -11.2 M-3.05 -17.65 L-2.9 -17.6 -1.15 -17.2 0.7 -14.6 0.85 -14.55 0.3 -14.55 -0.1 -14.8 -1.95 -16.0 -2.05 -15.9 -2.15 -15.95 -2.9 -15.7 -2.8 -15.55 -3.1 -15.45 -3.45 -16.0 -4.9 -16.15 -4.9 -16.25 -5.15 -16.15 -5.4 -15.9 -5.25 -16.35 -3.45 -17.05 -2.95 -15.8 -3.0 -17.2 -3.05 -17.65 M-2.2 -13.0 L-2.55 -12.9 -4.45 -14.05 -4.95 -13.9 -4.95 -13.85 -5.3 -13.75 -4.95 -13.9 -5.3 -13.75 -6.1 -13.4 Q-6.2 -13.3 -6.4 -13.3 -6.6 -13.2 -6.75 -13.2 -7.0 -13.8 -6.7 -14.65 L-6.65 -14.7 -6.5 -14.9 -5.45 -15.3 -5.45 -15.35 -5.45 -15.4 -5.5 -15.55 -5.0 -15.5 -4.9 -15.4 -3.95 -15.25 -2.2 -13.0 M-4.95 -13.15 L-4.75 -13.05 -3.5 -12.95 -3.75 -12.05 -5.5 -12.15 -4.95 -13.15 M-5.8 -16.75 L-5.4 -16.55 -5.65 -16.05 -5.8 -16.75"/><path fill="#855e2a" stroke="none" d="M8.8 -19.3 L8.35 -18.4 6.85 -18.35 7.35 -19.35 8.8 -19.3 M8.5 -17.35 L7.85 -15.8 8.1 -8.4 6.85 -1.4 5.2 0.45 5.25 -0.2 4.95 -3.45 5.25 -3.55 Q6.2 -3.85 6.8 -5.05 L7.3 -6.3 7.45 -6.7 7.45 -7.35 7.4 -7.45 7.25 -8.55 7.25 -8.65 6.85 -9.3 6.7 -9.4 Q6.05 -10.05 5.15 -9.75 L4.55 -9.5 4.4 -11.2 6.25 -12.5 6.65 -14.0 7.1 -14.85 5.9 -14.95 6.05 -15.3 7.1 -17.35 8.5 -17.35 M-2.75 -19.5 L-3.05 -21.6 -2.55 -21.0 -2.7 -19.45 -2.75 -19.5 M7.9 -24.3 L9.3 -24.4 9.65 -23.9 11.0 -23.95 10.55 -23.6 10.55 -23.3 9.95 -23.35 8.65 -23.4 8.65 -23.7 8.2 -23.9 7.9 -24.3 M7.85 -15.8 L7.1 -14.85 7.85 -15.8 M5.55 -20.55 L4.9 -19.6 4.9 -19.45 4.05 -17.65 3.95 -17.55 4.05 -17.85 4.05 -17.9 4.5 -20.2 5.55 -20.55 M3.05 -14.85 L2.4 -15.75 3.15 -15.25 3.4 -14.65 3.05 -14.85 M0.3 -13.9 L-0.9 -11.95 -0.95 -12.15 -1.15 -12.15 Q-1.1 -12.5 -1.2 -12.85 L-1.15 -12.95 -0.1 -14.8 0.45 -14.1 0.3 -13.9 M-7.0 -17.35 L-7.05 -17.35 -7.05 -17.4 -7.0 -17.35 M-3.5 -12.95 L-2.0 -12.65 -1.2 -12.85 Q-1.1 -12.5 -1.15 -12.15 L-1.9 -11.9 -3.75 -12.05 -3.5 -12.95"/><path fill="#daa854" stroke="none" d="M7.0 -21.15 L7.1 -21.2 8.8 -19.3 7.35 -19.35 6.8 -19.85 5.65 -20.85 6.45 -21.0 6.55 -21.05 7.0 -21.15 M-4.75 1.15 L-5.5 0.45 -6.15 -3.35 -6.2 -0.05 Q-8.15 -2.05 -8.7 -4.4 L-8.75 -6.1 -8.9 -6.9 Q-8.35 -6.7 -8.05 -7.35 L-8.0 -7.3 Q-6.95 -8.15 -5.95 -10.9 L-5.75 -10.9 -5.35 -6.0 -4.75 1.15 M-9.05 -8.0 L-9.6 -7.55 -10.0 -7.35 -10.85 -7.5 -11.25 -8.25 -11.15 -8.75 -11.1 -8.95 -10.05 -9.9 -10.75 -8.4 -10.55 -7.8 -9.15 -9.25 -8.45 -10.25 -7.15 -12.8 -6.65 -12.65 -6.65 -12.7 -6.65 -12.65 -7.85 -10.35 -8.2 -9.35 -9.05 -8.0 M-9.6 -12.7 L-9.95 -14.55 -9.9 -14.55 -9.8 -14.4 -8.9 -13.85 -8.85 -12.6 -9.55 -11.75 -9.6 -12.7 M-12.35 -18.05 L-9.85 -20.3 -8.75 -20.25 -8.1 -20.15 -10.7 -18.2 -12.35 -18.05 M-3.05 -21.6 L-1.95 -21.6 -1.65 -21.1 -2.55 -21.0 -3.05 -21.6 M1.35 -20.85 L2.55 -21.2 4.2 -20.9 4.9 -20.75 4.95 -20.75 5.05 -20.8 5.1 -20.65 5.55 -20.55 4.5 -20.2 1.35 -20.85 M5.1 -20.65 L4.9 -20.75 5.1 -20.65 M3.3 -15.85 L4.25 -15.8 4.9 -15.0 4.0 -15.0 3.3 -15.85 M1.0 -15.4 L2.3 -15.7 2.4 -15.75 3.05 -14.85 1.5 -14.4 1.2 -14.9 1.5 -14.4 0.45 -14.1 -0.1 -14.8 0.3 -14.55 0.85 -14.55 0.7 -14.6 1.2 -14.9 1.0 -15.4 M-5.9 -17.0 L-6.05 -17.0 -4.65 -17.6 -4.0 -17.35 -5.25 -16.35 -5.25 -16.45 -5.4 -16.55 -5.8 -16.75 -5.9 -17.0 M-7.55 -14.95 L-6.85 -15.6 -6.45 -15.9 -5.9 -15.75 -5.85 -15.75 -5.9 -15.7 -6.5 -14.9 -6.65 -14.7 -6.7 -14.65 -6.7 -14.7 -7.55 -14.95 M-4.9 -16.15 L-5.15 -16.15 -4.9 -16.25 -4.9 -16.15"/><path fill="#492f14" stroke="none" d="M0.0 -17.15 L1.1 -16.75 1.15 -15.9 1.85 -16.6 3.25 -15.5 3.15 -15.25 2.4 -15.75 2.3 -15.7 1.0 -15.4 0.0 -17.15 M4.7 -14.35 L4.95 -13.15 4.4 -12.2 4.4 -12.75 4.7 -14.35 M-2.15 -15.95 L-2.05 -15.9 -1.95 -16.0 -0.1 -14.8 -1.15 -12.95 -1.2 -12.85 -2.0 -12.65 -3.5 -12.95 -4.75 -13.05 -4.95 -13.15 -4.9 -13.25 -4.95 -13.85 -4.95 -13.9 -4.45 -14.05 -2.55 -12.9 -2.2 -13.0 -1.8 -13.05 -3.1 -15.45 -2.8 -15.55 -2.1 -15.9 -2.15 -15.95"/><path fill="#5e3c1a" stroke="none" d="M6.05 -15.3 L5.9 -14.95 5.7 -15.3 5.4 -14.4 5.0 -13.2 4.95 -13.15 4.7 -14.35 4.8 -14.65 4.9 -15.0 4.25 -15.8 3.3 -15.85 3.25 -15.5 1.85 -16.6 1.15 -15.9 1.1 -16.75 0.0 -17.15 -0.3 -17.8 0.7 -17.8 1.25 -18.85 3.7 -18.1 3.5 -16.7 4.65 -17.65 6.05 -15.3 M-7.5 -19.25 L-7.2 -20.15 -4.85 -20.75 -4.2 -18.65 -4.15 -19.4 -3.5 -19.55 -2.4 -18.65 -2.35 -19.2 Q-2.15 -19.3 -2.0 -19.45 L-1.9 -18.2 -2.15 -18.2 -2.45 -18.1 -2.65 -17.9 -2.55 -18.1 -2.9 -17.9 -3.45 -17.7 -4.0 -17.35 -4.65 -17.6 -6.05 -17.0 -6.8 -17.3 -7.0 -17.35 -7.05 -17.4 -7.05 -17.35 -7.35 -17.45 -7.75 -16.9 -8.0 -17.7 -9.7 -18.25 -9.85 -18.1 -9.45 -18.75 -8.1 -19.1 -6.7 -17.65 -7.4 -18.8 -7.5 -19.25"/><path fill="#774f26" stroke="none" d="M3.25 -15.5 L3.3 -15.85 4.0 -15.0 3.55 -14.7 3.45 -14.65 3.4 -14.65 3.15 -15.25 3.25 -15.5 M5.0 -13.2 L5.4 -14.4 6.65 -14.0 6.25 -12.5 5.0 -13.2"/><path fill="#a89536" stroke="none" d="M5.2 0.45 L0.85 1.5 1.1 1.15 2.85 0.25 3.2 -2.8 4.15 -3.2 4.3 -0.6 5.25 -0.2 5.2 0.45 M-0.9 -11.95 L1.35 -12.05 2.05 -12.05 1.9 -11.15 -0.2 -10.8 -1.35 -9.9 -1.15 -12.15 -0.95 -12.15 -0.9 -11.95"/><path fill="#998831" stroke="none" d="M0.3 -13.9 L0.4 -13.3 0.0 -12.5 0.0 -12.45 0.15 -12.3 1.35 -12.3 1.35 -12.05 -0.9 -11.95 0.3 -13.9"/><path fill="#c98a2e" stroke="none" d="M-1.95 1.65 L-4.05 1.35 -4.15 -0.7 Q-2.75 -1.4 -2.65 -10.65 L-2.15 -10.45 -1.85 -7.5 -1.3 -7.15 Q-2.5 -4.5 -1.95 1.65 M-6.5 -21.65 L-6.5 -21.6 -7.85 -20.7 -8.3 -21.4 -8.45 -21.65 -6.5 -21.65"/><path fill="#6d4723" stroke="none" d="M-10.35 -15.85 L-12.35 -18.05 -10.7 -18.2 -10.35 -17.7 -10.85 -17.2 -10.35 -15.85 M-8.75 -20.25 L-9.1 -21.8 -8.3 -21.4 -7.85 -20.7 -7.5 -19.25 -7.4 -18.8 -8.1 -20.15 -8.75 -20.25"/><path fill="#e0b574" stroke="none" d="M-10.85 -17.2 L-10.35 -17.7 -9.85 -18.1 -9.7 -18.25 -8.0 -17.7 -8.95 -16.55 -10.85 -17.2 M-8.25 -16.3 L-7.75 -16.9 -7.35 -17.45 -7.05 -17.35 -7.0 -17.35 -6.8 -17.3 -6.05 -17.0 -5.9 -17.0 -6.95 -15.8 -8.25 -16.3"/><path fill="#b77e3c" stroke="none" d="M-8.95 -16.55 L-8.0 -17.7 -7.75 -16.9 -8.25 -16.3 -7.9 -15.5 -8.95 -16.55 M-6.95 -15.8 L-5.9 -17.0 -5.8 -16.75 -5.65 -16.05 -5.6 -15.85 -5.9 -15.7 -5.85 -15.75 -5.9 -15.75 -6.45 -15.9 -6.85 -15.6 -6.95 -15.8 M-4.95 -13.85 L-4.9 -13.25 -4.95 -13.15 -5.5 -12.15 -5.55 -12.05 -6.1 -13.4 -5.3 -13.75 -4.95 -13.85"/><path fill="#c4964c" stroke="none" d="M-5.5 0.45 Q-5.65 -0.05 -6.2 -0.05 L-6.15 -3.35 -5.5 0.45 M-9.9 -14.6 L-10.35 -15.85 -10.85 -17.2 -8.95 -16.55 -7.9 -15.5 -8.25 -16.3 -6.95 -15.8 -6.85 -15.6 -7.55 -14.95 Q-8.0 -14.4 -8.05 -13.75 L-7.65 -13.25 -8.35 -13.55 -8.9 -13.85 -9.8 -14.4 -9.9 -14.55 -9.9 -14.6 M-6.65 -12.7 L-6.1 -13.35 -6.65 -12.95 -6.75 -13.2 Q-6.6 -13.2 -6.4 -13.3 -6.2 -13.3 -6.1 -13.4 L-5.55 -12.05 -6.65 -12.7"/><path fill="#94752f" stroke="none" d="M-0.5 -5.9 L0.1 -4.6 0.0 -2.7 -0.65 0.6 -0.5 -5.9 M-8.9 -13.85 L-8.35 -13.55 -8.85 -12.6 -8.9 -13.85 M-5.95 -10.9 L-7.15 -11.1 -8.2 -8.15 -8.2 -9.35 -7.85 -10.35 -6.65 -12.65 -6.65 -12.7 -5.55 -12.05 -5.75 -10.9 -5.95 -10.9"/><path fill="#e3bc82" stroke="none" d="M-0.3 -17.8 L0.0 -17.15 1.0 -15.4 1.2 -14.9 0.7 -14.6 -1.15 -17.2 -2.9 -17.6 -3.05 -17.65 -2.65 -17.9 -2.45 -18.1 -2.15 -18.2 -1.9 -18.2 -1.3 -18.4 -0.85 -18.2 -0.45 -18.05 -0.4 -17.95 -0.3 -17.8 M-2.55 -18.1 L-2.65 -17.9 -3.05 -17.65 -3.0 -17.2 -3.45 -17.05 -5.25 -16.35 -4.0 -17.35 -3.45 -17.7 -2.9 -17.9 -2.55 -18.1 M-3.1 -15.45 L-1.8 -13.05 -2.2 -13.0 -3.95 -15.25 -4.9 -15.4 -5.0 -15.5 -5.5 -15.55 -5.45 -15.4 -5.45 -15.35 -5.45 -15.3 -6.5 -14.9 -5.9 -15.7 -5.6 -15.85 -5.4 -15.9 -5.15 -16.15 -4.9 -16.15 -3.45 -16.0 -3.1 -15.45"/><path fill="#b37f39" stroke="none" d="M-0.8 1.85 L-1.95 1.65 Q-2.5 -4.5 -1.3 -7.15 L-1.2 -7.1 -0.5 -5.9 -0.65 0.6 -0.8 1.85 M-6.2 -0.05 L-8.75 -2.35 -8.7 -4.4 Q-8.15 -2.05 -6.2 -0.05 M-5.5 -12.15 L-3.75 -12.05 -3.5 -10.95 -2.65 -10.65 Q-2.75 -1.4 -4.15 -0.7 L-4.45 -4.45 -5.35 -6.0 -5.75 -10.9 -5.55 -12.05 -5.5 -12.15"/><path fill="#b39039" stroke="none" d="M-4.05 1.35 L-4.75 1.15 -5.35 -6.0 -4.45 -4.45 -4.15 -0.7 -4.05 1.35 M-1.35 -9.9 L-1.2 -7.1 -1.3 -7.15 -1.85 -7.5 -2.15 -10.45 -2.65 -10.65 -3.5 -10.95 -3.75 -12.05 -1.9 -11.9 -1.15 -12.15 -1.35 -9.9"/><path fill="#56441d" stroke="none" d="M8.1 -8.4 L7.9 -2.9 6.85 -1.4 8.1 -8.4"/><path fill="none" stroke="#382510" stroke-width="0.5" stroke-opacity="0.501960784314" d="M11.0 -23.95 Q11.75 -24.6 12.55 -23.65 L13.95 -20.1 13.55 -20.05 13.1 -20.05 11.35 -21.8 11.25 -21.8 11.1 -17.7 10.75 -17.8 M10.45 -17.9 L9.55 -20.3 8.8 -20.4 8.85 -20.65 Q7.85 -21.05 6.85 -21.55 M7.0 -21.15 L7.1 -21.2 8.8 -19.3 8.35 -18.4 8.45 -18.15 8.45 -17.7 8.5 -17.35 7.85 -15.8 8.1 -8.4 7.9 -2.9 6.85 -1.4 5.2 0.45 0.85 1.5 -0.8 1.85 -1.95 1.65 -4.05 1.35 -4.75 1.15 -5.5 0.45 M-6.2 -0.05 L-8.75 -2.35 -8.7 -4.4 -8.75 -6.1 -8.9 -6.9 -9.05 -8.0 -9.6 -7.55 -10.0 -7.35 -10.85 -7.5 -11.25 -8.25 -11.15 -8.75 -11.1 -8.95 -11.05 -9.25 -10.0 -11.2 -9.8 -12.3 -9.6 -12.7 -9.95 -14.55 M-9.9 -14.6 L-10.35 -15.85 -12.35 -18.05 -9.85 -20.3 -8.75 -20.25 -9.1 -21.8 -6.45 -22.55 -5.0 -22.0 -4.85 -22.0 -4.35 -20.7 -3.6 -20.45 -3.15 -19.95 -2.75 -19.5 -3.05 -21.6 -1.95 -21.6 -1.65 -21.1 -1.35 -19.45 0.85 -19.15 1.35 -20.85 2.55 -21.2 4.2 -20.9 Q4.2 -21.5 4.6 -22.05 5.25 -22.6 6.0 -22.6 L6.1 -23.0 6.3 -23.8 Q6.7 -24.2 7.4 -24.2 L7.9 -24.3 9.3 -24.4 9.65 -23.9 11.0 -23.95"/><path fill="none" stroke="#52341b" stroke-width="0.5" stroke-opacity="0.6" d="M-9.95 -14.55 L-9.9 -14.6 M11.0 -23.95 L10.55 -23.6 M6.45 -21.0 L6.35 -21.65 6.05 -21.65 6.05 -22.2 5.9 -22.15 5.4 -21.55 5.05 -20.8 M5.1 -20.65 L5.55 -20.55 5.65 -20.85 6.45 -21.0 6.55 -21.05 7.0 -21.15 M6.05 -22.2 L6.0 -22.6 M7.4 -24.2 L7.4 -24.1 8.2 -23.9 8.65 -23.7 8.65 -23.4 M7.65 -23.2 L7.65 -23.1 7.55 -23.05 M6.85 -21.55 L6.8 -21.6 6.35 -21.65 M9.95 -22.65 L9.95 -23.35 M11.25 -21.8 L10.55 -22.6 9.95 -22.6 9.95 -22.65 8.75 -23.05 8.65 -23.4 M7.1 -14.85 L7.85 -15.8 M4.95 -20.75 L5.05 -20.8 M4.2 -20.9 L4.9 -20.75 5.1 -20.65 M4.05 -17.65 L4.9 -19.45 4.9 -19.6 5.55 -20.55 M-0.3 -17.8 L0.0 -17.15 1.0 -15.4 1.2 -14.9 1.5 -14.4 M3.25 -15.5 L3.3 -15.85 4.25 -15.8 4.9 -15.0 4.8 -14.65 M2.4 -15.75 L2.3 -15.7 1.0 -15.4 M3.05 -14.85 L2.4 -15.75 M3.15 -15.25 L3.25 -15.5 M3.4 -14.65 L3.45 -14.65 3.55 -14.7 M4.4 -12.2 L4.4 -12.75 4.7 -14.35 M-1.9 -18.2 L-1.3 -18.4 -0.85 -18.2 -0.45 -18.05 -0.4 -17.95 -0.3 -17.8 M-8.75 -20.25 L-8.1 -20.15 -7.4 -18.8 -6.7 -17.65 M-10.35 -17.7 L-10.85 -17.2 -10.35 -15.85 M-8.0 -17.7 L-9.7 -18.25 -9.85 -18.1 -10.35 -17.7 M-7.75 -16.9 L-8.0 -17.7 M-5.9 -17.0 L-6.05 -17.0 -6.8 -17.3 -7.0 -17.35 -7.05 -17.35 -7.35 -17.45 -7.75 -16.9 M-9.9 -14.55 L-9.9 -14.6 M-9.9 -14.55 L-9.8 -14.4 M-7.65 -13.25 L-8.05 -13.75 Q-8.0 -14.4 -7.55 -14.95 L-6.85 -15.6 -6.45 -15.9 -5.9 -15.75 -5.85 -15.75 -5.9 -15.7 -6.5 -14.9 M-9.55 -11.75 L-9.6 -12.7 M-8.95 -16.55 L-7.9 -15.5 M-2.75 -19.5 L-2.7 -19.45 M-2.65 -17.9 L-2.45 -18.1 -2.15 -18.2 -1.9 -18.2 M-2.9 -17.9 L-2.55 -18.1 M-3.05 -17.65 L-2.65 -17.9 M-0.1 -14.8 L-1.95 -16.0 -2.05 -15.9 -2.15 -15.95 -2.9 -15.7 -2.8 -15.55 -3.1 -15.45 -1.8 -13.05 M-2.55 -12.9 L-4.45 -14.05 -4.95 -13.9 -5.3 -13.75 -4.95 -13.85 M-0.1 -14.8 L0.3 -14.55 M-1.35 -19.45 L-1.2 -18.55 M0.55 -18.3 L0.85 -19.15 M-4.35 -20.7 L-4.15 -20.15 -3.15 -19.95 M-5.25 -16.45 L-5.25 -16.35 M-4.0 -17.35 L-4.65 -17.6 -6.05 -17.0 M-3.45 -17.7 L-4.0 -17.35 M-5.15 -16.15 L-4.9 -16.15 -3.45 -16.0 -3.1 -15.45 M-4.9 -16.25 L-5.15 -16.15 -5.4 -15.9 -5.6 -15.85 -5.9 -15.7 M-5.45 -15.35 L-5.45 -15.4 M-6.7 -14.65 L-6.7 -14.7 M-7.65 -13.25 L-7.15 -12.8 -6.65 -12.65 -6.65 -12.7 -6.1 -13.35 M-6.65 -14.7 L-6.5 -14.9 M-6.4 -13.3 Q-6.2 -13.3 -6.1 -13.4 L-5.3 -13.75 M-3.45 -17.05 L-2.95 -15.8"/><path fill="none" stroke="#775f26" stroke-width="0.5" d="M2.05 -12.05 L1.9 -11.15 M4.55 -9.5 L4.4 -11.2 4.4 -12.2 M4.95 -3.45 L5.25 -0.2 M-1.2 -12.85 L-1.15 -12.95 M-1.15 -12.15 Q-1.1 -12.5 -1.2 -12.85 M-1.15 -12.15 L-0.95 -12.15"/><path fill="none" stroke="#785025" stroke-width="0.5" stroke-opacity="0.6" d="M-8.85 -12.6 L-9.55 -11.75 -10.0 -11.2 M-8.35 -13.55 L-8.85 -12.6 M-8.2 -9.35 L-9.05 -8.0 M-6.65 -12.7 L-6.65 -12.65 -7.85 -10.35 -8.2 -9.35"/><path fill="none" stroke="#b37f39" stroke-width="0.5" d="M-8.85 -12.6 L-8.9 -13.85"/><path fill="none" stroke="#4f3619" stroke-width="0.5" d="M5.25 -0.2 L5.2 0.45"/><path fill="#534226" stroke="none" d="M6.2 -9.7 L6.7 -9.4 6.85 -9.3 7.25 -8.65 7.25 -8.55 7.4 -7.45 7.45 -7.3 7.45 -6.7 6.85 -7.6 6.85 -7.75 6.8 -7.85 6.65 -8.9 6.65 -9.0 6.2 -9.7"/><path fill="#635230" fill-opacity="0.23137254902" d="M6.2 -9.7 L6.65 -9.0 6.65 -8.9 6.8 -7.85 6.85 -7.75 6.85 -7.6 6.85 -7.1 6.8 -6.7 6.3 -5.35 5.35 -4.3 5.25 -4.25 4.8 -3.9 4.65 -3.9 4.4 -3.8 2.1 -3.05 1.85 -3.0 Q1.3 -2.85 0.8 -3.0 0.2 -3.6 0.1 -4.6 L0.1 -5.0 Q0.05 -6.3 0.7 -7.4 L1.1 -7.95 Q1.65 -8.6 2.25 -8.75 L3.3 -9.05 3.85 -9.25 5.15 -9.75 6.15 -9.75 6.2 -9.7"/><path fill="#64431c" stroke="none" d="M6.85 -7.6 L7.45 -6.7 7.3 -6.3 6.8 -5.0 6.25 -4.15 6.15 -4.6 5.35 -4.25 5.35 -4.3 6.3 -5.35 6.8 -6.7 6.85 -7.1 6.85 -7.6"/><path fill="#382510" fill-opacity="0.301960784314" d="M3.85 -9.25 L3.3 -9.05 3.2 -10.8 3.85 -9.25"/><path fill="#b37f39" stroke="none" d="M6.25 -4.15 L5.9 -3.85 5.4 -3.65 5.4 -3.6 5.35 -3.55 5.05 -3.8 4.4 -3.8 4.65 -3.9 4.8 -3.9 5.25 -4.25 5.35 -4.3 5.35 -4.25 6.15 -4.6 6.25 -4.15 M0.8 -3.0 Q1.3 -2.85 1.85 -3.0 L2.1 -3.05 1.95 -2.7 2.55 -2.65 2.45 -2.65 1.8 -2.5 Q1.25 -2.55 0.8 -3.0"/><path fill="#daa854" stroke="none" d="M2.1 -3.05 L4.4 -3.8 5.05 -3.8 5.35 -3.55 5.2 -3.55 2.55 -2.65 1.95 -2.7 2.1 -3.05"/><path fill="none" stroke="#382510" stroke-width="0.5" stroke-opacity="0.501960784314" d="M3.2 -10.8 L3.15 -11.45 M7.45 -6.7 L7.45 -7.3 7.4 -7.45 7.25 -8.55 7.25 -8.65 6.85 -9.3 6.7 -9.4 6.2 -9.7 6.65 -9.0 6.65 -8.9 6.8 -7.85 6.85 -7.75 6.85 -7.6 M7.45 -6.7 L7.3 -6.3 6.8 -5.0 6.25 -4.15 5.9 -3.85 6.1 -2.9 M6.2 -9.7 L6.15 -9.75 5.15 -9.75 3.85 -9.25 3.3 -9.05 2.25 -8.75 Q1.65 -8.6 1.1 -7.95 L0.7 -7.4 Q0.05 -6.3 0.1 -5.0 L0.1 -4.6 Q0.2 -3.6 0.8 -3.0 1.3 -2.85 1.85 -3.0 L2.1 -3.05 4.4 -3.8 4.65 -3.9 4.8 -3.9 5.25 -4.25 5.35 -4.3 6.3 -5.35 6.8 -6.7 6.85 -7.1 6.85 -7.6 M5.4 -3.6 L5.4 -3.65 5.9 -3.85 M2.55 -2.65 L2.45 -2.65 2.35 -0.7 M0.8 -3.0 Q1.25 -2.55 1.8 -2.5 L2.45 -2.65 M3.3 -9.05 L3.2 -10.8"/><path fill="none" stroke="#382510" stroke-width="0.5" stroke-opacity="0.2" d="M-5.55 -12.05 L-5.75 -10.8 -5.45 -5.9 M-7.5 -4.75 L-8.25 -8.05 -8.25 -9.2 M-0.7 0.65 L-0.6 -5.8 -1.25 -7.0"/></g><g id="c11"><g><use transform="matrix(1.0,0.0,0.0,1.0,0.0,0.0)" xlink:href="#c10"/></g></g><g id="c12"><g><use transform="matrix(1.0,0.0,0.0,1.0,12.35,24.4)" xlink:href="#c11"/></g></g><g id="c13"><g><use transform="matrix(1.0,0.0,0.0,1.0,6.3,53.35)" xlink:href="#c9"/></g><g><use transform="matrix(-0.722702026367,0.218292236328,0.218292236328,0.722702026367,34.2,64.35)" xlink:href="#c12"/></g><g><use transform="matrix(0.141098022461,-0.0378112792969,0.111373901367,0.225646972656,27.2,74.05)" filter="url(#filter13)" xlink:href="#c6"/></g></g><filter id="filter13"><feColorMatrix in="SourceGraphic" type="matrix" values="1.0 0.0 0.0 0.0 0.0 0.0 1.0 0.0 0.0 0.0 0.0 0.0 1.0 0.0 0.0 0.0 0.0 0.0 0.23046875 0.0" result="cxform"/><feComposite operator="in" in2="SourceGraphic" result="color-xform"/></filter></defs><g><g><use transform="matrix(1.0,0.0,0.0,1.0,0.0,0.0)" xlink:href="#c1"/></g><g><use transform="matrix(1.15496826172,0.0,0.0,1.15496826172,-1.55,-56.9)" xlink:href="#c13"/></g></g></svg>