<?xml version='1.0' encoding='UTF-8'?>
<svg xmlns:xlink="http://www.w3.org/1999/xlink" xmlns="http://www.w3.org/2000/svg" version="1.1" width="60px" height="60px" viewBox="0.0 0.0 60.0 60.0"><defs><g id="c1"><path fill="#000000" fill-opacity="0.00392156862745" d="M0.0 0.0 L60.0 0.0 60.0 60.0 0.0 60.0 0.0 0.0"/></g><g id="c2"><path fill="none" stroke="#000000" stroke-width="1.0" stroke-opacity="0.301960784314" d="M0.7 12.25 Q-0.45 9.75 0.75 8.25 1.2 7.6 2.15 7.15 2.8 6.7 3.8 6.35 L17.5 1.95 30.2 7.0 41.35 31.7 Q42.95 35.15 40.2 36.7 39.5 37.3 38.3 37.65 L19.8 43.65 Q17.15 44.45 15.5 43.3 14.35 42.55 13.65 40.9 L0.7 12.25"/><path fill="#9d147b" stroke="none" d="M35.55 22.3 L31.5 13.2 29.75 9.2 16.95 4.25 5.5 7.85 Q1.65 9.1 3.35 12.8 L8.25 23.65 15.0 38.6 15.2 39.0 Q16.8 42.25 20.45 41.1 L37.2 35.7 Q41.1 34.5 39.35 30.75 L35.55 22.3 M2.15 7.15 Q2.8 6.7 3.8 6.35 L17.5 1.95 30.2 7.0 41.35 31.7 Q42.95 35.15 40.2 36.7 L38.9 37.25 23.2 42.3 20.4 43.2 19.1 43.5 17.3 43.4 Q15.3 42.9 14.2 40.5 L5.45 20.95 1.35 11.8 Q0.4 9.65 1.1 8.3 1.45 7.65 2.15 7.15"/><path fill="#c47fad" stroke="none" d="M31.5 13.2 L35.55 22.3 39.35 30.75 Q41.1 34.5 37.2 35.7 L20.45 41.1 Q16.8 42.25 15.2 39.0 L15.0 38.6 8.25 23.65 3.35 12.8 Q1.65 9.1 5.5 7.85 L16.95 4.25 29.75 9.2 31.5 13.2 M18.5 7.45 L9.1 10.55 9.55 11.6 Q9.8 12.8 9.15 13.6 8.4 14.45 7.1 14.4 L6.8 14.4 6.95 14.6 16.3 35.2 Q16.8 36.4 17.65 37.0 18.8 37.8 20.65 37.2 L34.0 32.9 33.7 32.1 Q33.45 30.9 34.1 30.1 34.75 29.3 35.95 29.35 L35.8 29.0 27.75 10.95 18.5 7.45"/><path fill="#630a4c" stroke="none" d="M0.75 8.25 Q1.2 7.6 2.15 7.15 1.45 7.65 1.1 8.3 L0.75 8.25 M23.3 42.5 L20.1 43.55 19.1 43.5 20.4 43.2 23.2 42.3 23.3 42.5 M15.5 43.3 Q14.35 42.55 13.65 40.9 L4.6 20.9 5.45 20.95 14.2 40.5 Q15.3 42.9 17.3 43.4 L15.5 43.3"/><path fill="#300525" stroke="none" d="M4.6 20.9 L0.7 12.25 Q-0.45 9.75 0.75 8.25 L1.1 8.3 Q0.4 9.65 1.35 11.8 L5.45 20.95 4.6 20.9 M40.2 36.7 Q39.5 37.3 38.3 37.65 L23.3 42.5 23.2 42.3 38.9 37.25 40.2 36.7 M20.1 43.55 L19.8 43.65 Q17.15 44.45 15.5 43.3 L17.3 43.4 19.1 43.5 20.1 43.55"/><path fill="#fcf2cf" stroke="none" d="M27.75 10.95 L35.8 29.0 35.95 29.35 Q34.75 29.3 34.1 30.1 33.45 30.9 33.7 32.1 L34.0 32.9 20.65 37.2 Q18.8 37.8 17.65 37.0 16.8 36.4 16.3 35.2 L6.95 14.6 6.8 14.4 7.1 14.4 Q8.4 14.45 9.15 13.6 9.8 12.8 9.55 11.6 L9.1 10.55 18.5 7.45 27.75 10.95"/><path fill="none" stroke="#bf9900" stroke-width="1.0" stroke-opacity="0.749019607843" d="M31.5 13.2 L35.55 22.3 M15.0 38.6 L8.25 23.65"/><path fill="none" stroke="#ffcc00" stroke-width="1.0" stroke-opacity="0.749019607843" d="M35.55 22.3 L39.35 30.75 Q41.1 34.5 37.2 35.7 L20.45 41.1 Q16.8 42.25 15.2 39.0 L15.0 38.6 M8.25 23.65 L3.35 12.8 Q1.65 9.1 5.5 7.85 L16.95 4.25 29.75 9.2 31.5 13.2"/><path fill="none" stroke="#000000" stroke-width="0.5" stroke-opacity="0.301960784314" d="M4.6 20.9 L0.7 12.25 Q-0.45 9.75 0.75 8.25 1.2 7.6 2.15 7.15 2.8 6.7 3.8 6.35 L17.5 1.95 M30.2 7.0 L41.35 31.7 Q42.95 35.15 40.2 36.7 39.5 37.3 38.3 37.65 L23.3 42.5 20.1 43.55 19.8 43.65 Q17.15 44.45 15.5 43.3 14.35 42.55 13.65 40.9 L4.6 20.9 M5.45 20.95 L1.35 11.8 Q0.4 9.65 1.1 8.3 1.45 7.65 2.15 7.15 M19.1 43.5 L17.3 43.4 Q15.3 42.9 14.2 40.5 L5.45 20.95 M23.2 42.3 L20.4 43.2 19.1 43.5 M40.2 36.7 L38.9 37.25 23.2 42.3"/><path fill="none" stroke="#f0b92b" stroke-width="0.5" d="M27.75 10.95 L35.8 29.0 35.95 29.35 Q34.75 29.3 34.1 30.1 33.45 30.9 33.7 32.1 L34.0 32.9 20.65 37.2 Q18.8 37.8 17.65 37.0 16.8 36.4 16.3 35.2 L6.95 14.6 6.8 14.4 7.1 14.4 Q8.4 14.45 9.15 13.6 9.8 12.8 9.55 11.6 L9.1 10.55 18.5 7.45"/><path fill="none" stroke="#ffcc00" stroke-width="0.5" stroke-opacity="0.749019607843" d="M18.5 7.45 L27.75 10.95"/></g><g id="c3"><path fill="#7fdbfe" stroke="none" d="M10.75 4.9 Q10.75 4.6 10.9 4.35 11.25 3.45 11.95 2.75 13.3 1.5 14.35 2.1 15.4 2.7 14.95 4.45 14.7 5.4 14.1 6.15 L13.75 6.5 Q13.1 7.15 12.35 7.35 L11.4 7.2 Q10.95 6.9 10.75 6.4 10.5 5.75 10.75 4.9 M7.5 5.9 Q7.0 5.85 6.6 5.5 6.05 5.0 5.8 4.15 L5.7 3.6 Q5.55 2.65 5.8 1.7 6.25 0.0 7.5 0.0 L7.6 0.0 Q8.85 0.0 9.3 1.7 9.55 2.65 9.4 3.6 L9.3 4.15 8.5 5.5 7.6 5.9 7.5 5.9 M4.35 4.9 Q4.6 5.75 4.35 6.4 L3.7 7.2 2.75 7.35 Q2.0 7.15 1.35 6.5 L1.0 6.15 Q0.4 5.4 0.15 4.45 -0.3 2.7 0.75 2.1 1.8 1.5 3.15 2.75 3.85 3.45 4.2 4.35 L4.35 4.9 M5.5 13.7 Q4.45 13.9 3.65 12.95 2.75 12.0 3.2 10.25 3.7 8.5 5.25 7.6 6.4 6.9 7.55 7.0 8.75 6.9 9.9 7.6 11.45 8.5 11.95 10.25 12.35 12.0 11.5 12.95 10.7 13.9 9.65 13.7 8.55 13.5 7.55 12.6 6.55 13.5 5.5 13.7"/></g><g id="c4"><g><use transform="matrix(1.0,0.0,0.0,1.0,0.0,0.0)" xlink:href="#c3"/></g></g><radialGradient gradientUnits="userSpaceOnUse" r="819.2" cx="0" cy="0" spreadMethod="pad" gradientTransform="matrix(0.0914459228516,0.0,0.0,0.0914459228516,0.6,3.4)" id="gradient1"><stop offset="0.0" stop-color="#ffffff"/><stop offset="1.0" stop-color="#ffffff" stop-opacity="0.0"/></radialGradient><g id="c5"><path stroke="none" fill="url(#gradient1)" d="M36.65 -54.65 Q60.05 -42.0 69.75 -17.95 80.55 8.9 68.0 34.1 55.45 59.35 26.8 68.2 -1.8 77.05 -29.7 64.3 -57.6 51.6 -68.45 24.75 -79.3 -2.05 -66.75 -27.25 L-66.7 -27.3 Q-54.1 -52.5 -25.5 -61.4 3.1 -70.2 31.0 -57.5 L36.65 -54.65"/></g><g id="c6"><g><use transform="matrix(1.0,0.0,0.0,1.0,0.0,0.0)" xlink:href="#c5"/></g></g><radialGradient gradientUnits="userSpaceOnUse" r="819.2" cx="0" cy="0" spreadMethod="pad" gradientTransform="matrix(0.209197998047,0.0,0.0,0.177108764648,67.15,107.2)" id="gradient2"><stop offset="0.356862745098" stop-color="#ffffff"/><stop offset="0.670588235294" stop-opacity="0.0"/></radialGradient><g id="c7"><path fill="none" stroke-linejoin="round" stroke-linecap="round" stroke="url(#gradient2)" stroke-width="0.5" d="M136.55 165.8 L68.6 106.0 68.4 106.0 118.25 201.5 M68.3 105.8 L68.35 105.8 68.3 105.8 68.3 105.85 68.4 106.0 68.3 106.0 86.55 211.5 M68.3 105.8 L68.3 105.85 68.3 106.0 68.15 105.95 18.25 151.55 M68.3 105.85 L68.25 105.85 68.3 106.0 50.0 193.2 M68.25 105.85 L68.15 105.95 0.05 97.7 M68.3 105.85 L68.25 105.8 68.25 105.85 M68.25 105.8 L68.2 105.7 0.0 45.7 M68.3 105.8 L68.25 105.75 68.25 105.8 M68.25 105.75 L68.2 105.7 18.25 10.05 M68.6 106.0 L68.35 105.8 118.25 60.15 M86.6 18.35 L68.3 105.8 M136.6 114.25 L68.6 106.0 M68.25 105.75 L49.95 0.05"/></g><g id="c8"><g><use transform="matrix(1.0,0.0,0.0,1.0,0.0,0.0)" xlink:href="#c7"/></g></g><g id="c9"><g><use transform="matrix(1.0,0.0,0.0,1.0,0.0,0.0)" xlink:href="#c2"/></g><g><use transform="matrix(0.238861083984,-0.0867004394531,0.10026550293,0.233917236328,34.25,31.15)" xlink:href="#c4"/></g><g><use transform="matrix(0.238861083984,-0.0867004394531,0.10026550293,0.233917236328,4.25,10.3)" xlink:href="#c4"/></g><g><use transform="matrix(0.141098022461,-0.0378112792969,0.111373901367,0.225646972656,20.25,20.65)" filter="url(#filter7)" xlink:href="#c6"/></g><g><use transform="matrix(-0.155029296875,0.0513153076172,0.0841827392578,0.147033691406,22.6,3.15)" filter="url(#filter8)" xlink:href="#c8"/></g></g><filter id="filter7"><feColorMatrix in="SourceGraphic" type="matrix" values="0.0 0.0 0.0 0.0 0.796875 0.0 0.0 0.0 0.0 0.59765625 0.0 0.0 0.0 0.0 0.19921875 0.0 0.0 0.0 1.0 0.0" result="cxform"/><feComposite operator="in" in2="SourceGraphic" result="color-xform"/></filter><filter id="filter8"><feColorMatrix in="SourceGraphic" type="matrix" values="0.0 0.0 0.0 0.0 0.99609375 0.0 0.0 0.0 0.0 0.99609375 0.0 0.0 0.0 0.0 0.99609375 0.0 0.0 0.0 1.0 0.0" result="cxform"/><feComposite operator="in" in2="SourceGraphic" result="color-xform"/></filter><g id="c10"><path fill="#563f29" stroke="none" d="M30.3 69.85 Q30.5 69.25 30.15 68.8 29.7 68.15 28.65 67.6 L28.45 67.55 28.45 67.5 27.45 67.1 26.85 66.9 26.35 66.7 25.45 66.4 24.8 66.25 23.7 66.1 22.65 66.05 21.0 66.05 20.95 66.05 17.95 66.4 Q16.95 66.7 16.85 67.3 L16.85 67.35 16.8 67.4 16.8 67.45 Q16.8 68.05 18.5 69.0 L19.65 69.55 21.5 70.3 22.65 70.7 24.7 71.4 32.9 74.15 34.15 74.7 35.25 75.2 36.15 75.7 Q36.75 76.1 37.15 76.45 L37.7 77.25 37.7 77.5 37.55 78.1 37.2 78.4 37.15 78.5 36.4 79.05 34.95 79.5 34.85 79.5 34.3 79.6 33.7 79.7 32.25 79.8 30.75 79.8 29.6 79.7 29.55 79.7 28.1 79.5 27.85 79.5 27.55 79.4 26.75 79.25 24.75 78.75 23.4 78.2 22.0 77.55 21.7 77.35 21.2 76.95 20.55 76.35 20.35 76.1 20.25 76.0 20.2 75.95 20.1 75.65 Q19.7 74.95 19.75 74.4 19.85 73.5 20.9 72.85 L21.55 72.5 22.2 72.2 23.35 71.85 22.9 71.45 22.85 71.45 22.8 71.45 21.85 71.85 Q21.0 72.15 20.4 72.55 19.2 73.35 19.1 74.25 L19.05 74.3 Q18.9 75.1 19.2 75.85 L19.5 76.6 20.55 77.7 21.15 78.15 21.9 78.6 22.85 79.05 23.85 79.5 26.0 80.1 27.4 80.35 27.45 80.4 29.05 80.65 30.55 80.8 32.35 80.8 33.55 80.7 33.75 80.7 34.45 80.6 35.25 80.45 36.8 79.95 38.05 78.9 38.3 78.15 38.35 77.95 Q38.45 77.15 37.7 76.3 L36.75 75.45 35.7 74.8 35.1 74.55 34.6 74.25 33.6 73.85 33.25 73.7 32.2 73.25 31.85 73.15 30.35 72.6 29.95 72.45 28.35 71.9 27.8 71.75 27.3 71.6 27.0 71.45 26.8 71.4 25.05 70.85 23.25 70.25 21.8 69.8 20.55 69.3 20.25 69.2 18.9 68.6 Q17.75 68.0 17.75 67.6 17.55 67.05 18.4 66.8 L20.55 66.6 20.7 66.6 22.2 66.55 24.45 66.75 25.35 66.95 26.45 67.25 28.05 67.9 28.4 68.05 Q29.35 68.5 29.7 68.85 30.15 69.3 29.4 69.65 L29.35 69.65 28.65 69.95 28.5 70.0 28.1 70.15 27.35 70.35 27.25 70.35 26.4 70.55 Q27.0 70.7 27.05 71.05 L28.0 70.9 28.55 70.75 29.45 70.5 Q30.2 70.2 30.3 69.85"/><path fill="#2e1f16" stroke="none" d="M30.3 69.85 Q30.2 70.2 29.45 70.5 L28.55 70.75 28.0 70.9 27.05 71.05 Q27.0 70.7 26.4 70.55 L25.05 70.85 26.8 71.4 28.0 71.2 28.35 71.1 29.45 70.65 Q30.3 70.25 30.3 69.85 M29.4 69.65 Q30.15 69.3 29.7 68.85 29.35 68.5 28.4 68.05 L28.05 67.9 26.45 67.25 25.35 66.95 24.45 66.75 22.2 66.55 20.7 66.6 20.55 66.6 18.4 66.8 Q17.55 67.05 17.75 67.6 17.85 67.35 18.35 67.2 L20.35 67.05 20.95 67.0 22.0 67.05 23.55 67.1 24.65 67.2 25.4 67.45 26.05 67.65 26.25 67.75 Q27.15 68.0 27.85 68.35 L28.05 68.45 Q28.95 68.85 29.25 69.25 L29.4 69.65 M23.35 71.85 L22.2 72.2 21.55 72.5 20.9 72.85 Q19.85 73.5 19.75 74.4 19.7 74.95 20.1 75.65 L20.2 75.95 20.1 75.65 19.9 74.7 19.95 74.6 19.95 74.45 Q20.15 73.8 21.05 73.3 21.5 72.95 22.3 72.65 L23.4 72.3 23.35 71.85 M37.2 78.4 L37.55 78.1 37.7 77.5 37.7 77.25 37.15 76.45 Q36.75 76.1 36.15 75.7 L35.25 75.2 34.15 74.7 32.9 74.15 24.7 71.4 22.65 70.7 21.5 70.3 19.65 69.55 18.5 69.0 Q16.8 68.05 16.8 67.45 16.55 68.35 18.3 69.35 L19.55 70.0 20.2 70.25 21.35 70.65 22.55 71.1 23.1 71.3 23.25 71.3 24.9 71.9 24.95 71.9 25.05 71.9 26.55 72.4 27.5 72.65 27.9 72.8 29.3 73.3 Q30.35 73.6 31.2 73.95 L32.9 74.6 34.0 75.1 34.75 75.4 34.75 75.45 35.1 75.65 35.85 76.1 36.9 76.8 37.35 77.45 37.4 78.0 37.2 78.4"/><path fill="#26130a" stroke="none" d="M22.85 71.45 L22.9 71.45 23.35 71.85 23.4 72.3 24.9 71.9 23.25 71.3 22.85 71.45"/><path fill="#b8b8a3" stroke="none" d="M24.95 71.9 L24.9 71.9 24.95 71.9"/><path fill="#ff9900" stroke="none" d="M18.0 66.35 L18.05 66.45 18.1 66.5 18.2 66.45 18.2 66.35 18.2 66.25 18.1 66.25 18.05 66.25 18.0 66.35 M18.75 67.15 L18.8 67.2 18.85 67.25 18.95 67.2 18.95 67.15 18.95 67.05 18.85 67.0 18.8 67.05 18.75 67.15 M16.7 67.4 L16.75 67.5 16.8 67.55 16.9 67.5 16.95 67.4 16.9 67.3 16.8 67.3 16.75 67.3 16.7 67.4 M19.55 66.1 L19.6 66.15 19.7 66.2 19.75 66.15 19.8 66.1 19.75 66.0 19.7 65.95 19.6 66.0 19.55 66.1 M20.35 67.05 L20.4 67.1 20.45 67.15 20.55 67.1 20.55 67.05 20.55 66.95 20.45 66.9 20.4 66.95 20.35 67.05 M19.05 68.7 L19.1 68.8 19.15 68.85 19.25 68.8 19.25 68.7 19.25 68.6 19.15 68.6 19.1 68.6 19.05 68.7 M20.45 69.3 L20.5 69.4 20.55 69.45 20.65 69.4 20.65 69.3 20.65 69.25 20.55 69.2 20.5 69.25 20.45 69.3 M20.2 70.3 L20.2 70.35 20.3 70.4 20.4 70.35 20.4 70.3 20.4 70.2 20.3 70.15 20.2 70.2 20.2 70.3 M18.7 69.65 L18.75 69.75 18.8 69.8 18.9 69.75 18.9 69.65 18.95 69.55 18.85 69.55 18.8 69.55 18.7 69.65 M17.35 68.8 L17.4 68.85 17.45 68.9 17.55 68.85 17.55 68.8 17.55 68.7 17.45 68.65 17.4 68.7 17.35 68.8 M17.75 67.9 L17.75 67.95 17.85 68.0 17.95 67.95 17.95 67.9 17.95 67.8 17.85 67.75 17.75 67.8 17.75 67.9 M20.45 72.45 L20.5 72.55 20.55 72.6 20.65 72.55 20.7 72.45 20.65 72.35 20.55 72.35 20.5 72.35 20.45 72.45 M19.3 73.45 L19.35 73.5 19.4 73.55 19.5 73.5 19.5 73.45 19.5 73.35 19.4 73.35 19.35 73.35 19.3 73.45 M18.85 75.1 L18.9 75.2 18.95 75.25 19.05 75.2 19.1 75.1 19.05 75.0 18.95 75.0 18.9 75.0 18.85 75.1 M20.25 73.85 L20.3 73.9 20.35 73.95 20.45 73.9 20.45 73.85 20.45 73.75 20.35 73.7 20.3 73.75 20.25 73.85 M19.95 75.55 L20.0 75.6 20.05 75.65 20.15 75.6 20.2 75.55 20.15 75.45 20.05 75.4 20.0 75.45 19.95 75.55 M19.55 76.75 L19.6 76.8 19.65 76.85 19.75 76.8 19.75 76.75 19.75 76.65 19.65 76.6 19.6 76.65 19.55 76.75 M20.65 77.85 L20.7 77.95 20.75 78.0 20.85 77.95 20.85 77.85 20.85 77.75 20.75 77.75 20.7 77.75 20.65 77.85 M27.4 67.1 L27.45 67.2 27.5 67.2 27.6 67.2 27.6 67.1 27.6 67.0 27.5 67.0 27.45 67.0 27.4 67.1 M25.8 66.55 L25.85 66.65 25.9 66.7 26.0 66.65 26.05 66.55 26.05 66.5 25.95 66.45 25.9 66.5 25.8 66.55 M28.75 67.75 L28.8 67.85 28.9 67.9 28.95 67.85 29.0 67.75 28.95 67.65 28.9 67.65 28.8 67.65 28.75 67.75 M28.0 68.5 L28.05 68.55 28.1 68.6 28.2 68.55 28.2 68.5 28.2 68.4 28.1 68.35 28.05 68.4 28.0 68.5 M30.0 68.8 L30.05 68.85 30.15 68.9 30.25 68.85 30.25 68.8 30.25 68.7 30.15 68.65 30.05 68.7 30.0 68.8 M29.3 69.5 L29.35 69.55 29.4 69.6 29.5 69.55 29.5 69.5 29.5 69.4 29.4 69.35 29.35 69.4 29.3 69.5 M29.9 70.35 L29.95 70.4 30.0 70.45 30.1 70.4 30.15 70.35 30.1 70.25 30.0 70.2 29.95 70.25 29.9 70.35 M27.95 70.15 L28.0 70.2 28.05 70.25 28.15 70.2 28.2 70.15 28.15 70.05 28.05 70.0 28.0 70.05 27.95 70.15 M26.55 67.9 L26.6 67.95 26.7 68.0 26.75 67.95 26.8 67.9 26.75 67.8 26.7 67.75 26.6 67.8 26.55 67.9 M26.3 70.55 L26.35 70.6 26.4 70.65 26.5 70.6 26.55 70.55 26.5 70.45 26.4 70.45 26.35 70.45 26.3 70.55 M21.25 66.05 L21.3 66.1 21.35 66.15 21.45 66.1 21.45 66.05 21.45 65.95 21.35 65.9 21.3 65.95 21.25 66.05 M22.8 66.05 L22.85 66.15 22.9 66.2 23.0 66.15 23.05 66.05 23.0 65.95 22.9 65.95 22.85 65.95 22.8 66.05 M21.9 67.05 L21.95 67.1 22.0 67.15 22.1 67.1 22.1 67.05 22.1 66.95 22.0 66.9 21.95 66.95 21.9 67.05 M24.3 66.2 L24.35 66.3 24.45 66.35 24.5 66.3 24.55 66.2 24.5 66.1 24.45 66.1 24.35 66.1 24.3 66.2 M25.05 67.35 L25.1 67.45 25.2 67.5 25.3 67.45 25.3 67.35 25.3 67.25 25.2 67.25 25.1 67.25 25.05 67.35 M23.45 67.1 L23.5 67.2 23.55 67.2 23.65 67.2 23.65 67.1 23.65 67.0 23.55 67.0 23.5 67.0 23.45 67.1 M23.75 70.5 L23.8 70.55 23.85 70.6 23.95 70.55 23.95 70.5 23.95 70.4 23.85 70.35 23.8 70.4 23.75 70.5 M22.05 69.9 L22.1 69.95 22.15 70.0 22.25 69.95 22.3 69.9 22.25 69.8 22.15 69.8 22.1 69.8 22.05 69.9 M31.45 73.05 L31.5 73.1 31.55 73.15 31.65 73.1 31.65 73.05 31.65 72.95 31.55 72.9 31.5 72.95 31.45 73.05 M32.95 73.6 L33.0 73.65 33.05 73.7 33.15 73.65 33.15 73.6 33.15 73.5 33.05 73.45 33.0 73.5 32.95 73.6 M33.05 74.7 L33.1 74.75 33.15 74.8 33.25 74.75 33.3 74.7 33.25 74.6 33.15 74.6 33.1 74.6 33.05 74.7 M34.5 74.25 L34.55 74.35 34.55 74.4 34.7 74.35 34.75 74.25 34.7 74.15 34.6 74.15 34.55 74.15 34.5 74.25 M34.65 75.45 L34.7 75.5 34.75 75.55 34.85 75.5 34.85 75.45 34.85 75.35 34.75 75.35 34.7 75.35 34.65 75.45 M31.6 74.1 L31.65 74.2 31.7 74.25 31.8 74.2 31.8 74.1 31.8 74.05 31.7 74.0 31.65 74.05 31.6 74.1 M37.2 75.95 L37.25 76.0 37.3 76.05 37.4 76.0 37.4 75.95 37.45 75.85 37.35 75.8 37.3 75.85 37.2 75.95 M35.9 75.0 L35.95 75.1 36.05 75.15 36.15 75.1 36.15 75.0 36.15 74.9 36.05 74.9 35.95 74.9 35.9 75.0 M36.05 76.25 L36.1 76.35 36.15 76.4 36.25 76.35 36.25 76.25 36.25 76.15 36.15 76.15 36.1 76.15 36.05 76.25 M36.45 78.95 L36.5 79.0 36.55 79.05 36.65 79.0 36.65 78.95 36.65 78.85 36.55 78.8 36.5 78.85 36.45 78.95 M34.95 79.5 L35.0 79.55 35.05 79.6 35.15 79.55 35.2 79.5 35.15 79.4 35.05 79.4 35.0 79.4 34.95 79.5 M37.2 77.45 L37.2 77.5 37.25 77.55 37.35 77.5 37.45 77.45 37.4 77.35 37.3 77.3 37.25 77.35 37.2 77.45 M38.2 77.35 L38.25 77.4 38.35 77.45 38.4 77.4 38.45 77.35 38.4 77.25 38.35 77.2 38.25 77.25 38.2 77.35 M37.9 78.95 L37.95 79.05 38.0 79.1 38.1 79.05 38.15 78.95 38.1 78.85 38.05 78.85 37.95 78.85 37.9 78.95 M34.9 80.5 L34.95 80.55 35.05 80.6 35.15 80.55 35.15 80.5 35.15 80.4 35.05 80.35 34.95 80.4 34.9 80.5 M36.55 80.0 L36.6 80.05 36.65 80.1 36.75 80.05 36.75 80.0 36.75 79.9 36.65 79.85 36.6 79.9 36.55 80.0 M33.3 79.75 L33.35 79.8 33.45 79.85 33.5 79.8 33.55 79.75 33.5 79.65 33.45 79.6 33.35 79.65 33.3 79.75 M33.2 80.75 L33.2 80.8 33.3 80.85 33.4 80.8 33.4 80.75 33.45 80.65 33.35 80.6 33.25 80.65 33.2 80.75 M30.2 79.75 L30.25 79.85 30.3 79.9 30.4 79.85 30.45 79.75 30.4 79.65 30.3 79.65 30.25 79.65 30.2 79.75 M29.85 80.75 L29.9 80.8 29.95 80.85 30.05 80.8 30.1 80.75 30.1 80.65 30.0 80.6 29.95 80.65 29.85 80.75 M31.75 79.8 L31.8 79.9 31.85 79.95 31.95 79.9 32.0 79.8 31.95 79.7 31.85 79.7 31.8 79.7 31.75 79.8 M31.5 80.8 L31.55 80.85 31.65 80.9 31.75 80.85 31.75 80.8 31.75 80.7 31.65 80.7 31.55 80.7 31.5 80.8 M21.7 70.8 L21.75 70.9 21.85 70.95 21.9 70.9 21.95 70.8 21.9 70.7 21.85 70.7 21.75 70.7 21.7 70.8 M21.9 71.8 L21.95 71.85 22.05 71.9 22.1 71.85 22.15 71.8 22.1 71.7 22.05 71.65 21.95 71.7 21.9 71.8 M23.15 71.3 L23.2 71.4 23.25 71.45 23.35 71.4 23.35 71.3 23.35 71.25 23.3 71.2 23.2 71.25 23.15 71.3 M21.55 72.9 L21.6 73.0 21.7 73.05 21.75 73.0 21.8 72.9 21.75 72.8 21.7 72.8 21.6 72.8 21.55 72.9 M25.25 72.0 L25.3 72.05 25.4 72.1 25.45 72.05 25.5 72.0 25.45 71.9 25.4 71.9 25.3 71.9 25.25 72.0 M23.25 72.3 L23.3 72.4 23.4 72.45 23.45 72.4 23.5 72.3 23.45 72.2 23.4 72.2 23.3 72.2 23.25 72.3 M26.85 71.45 L26.9 71.55 27.0 71.6 27.1 71.55 27.1 71.45 27.1 71.35 27.0 71.35 26.9 71.35 26.85 71.45 M26.8 72.5 L26.85 72.55 26.9 72.6 27.0 72.55 27.05 72.5 27.0 72.4 26.9 72.35 26.85 72.4 26.8 72.5 M28.25 71.1 L28.3 71.15 28.4 71.2 28.5 71.15 28.5 71.1 28.5 71.0 28.4 70.95 28.3 71.0 28.25 71.1 M28.4 71.95 L28.45 72.0 28.5 72.05 28.6 72.0 28.65 71.95 28.6 71.85 28.5 71.85 28.45 71.85 28.4 71.95 M29.9 72.5 L29.95 72.55 30.05 72.6 30.15 72.55 30.15 72.5 30.15 72.4 30.05 72.35 29.95 72.4 29.9 72.5 M29.95 73.5 L30.0 73.6 30.1 73.65 30.15 73.6 30.2 73.5 30.15 73.4 30.1 73.4 30.0 73.4 29.95 73.5 M28.4 73.0 L28.45 73.1 28.5 73.15 28.6 73.1 28.6 73.0 28.6 72.9 28.5 72.9 28.45 72.9 28.4 73.0 M27.15 79.35 L27.2 79.45 27.25 79.5 27.35 79.45 27.4 79.35 27.35 79.25 27.25 79.25 27.2 79.25 27.15 79.35 M25.55 79.0 L25.6 79.05 25.65 79.1 25.8 79.05 25.8 79.0 25.8 78.9 25.7 78.85 25.6 78.9 25.55 79.0 M28.65 79.6 L28.7 79.7 28.75 79.75 28.85 79.7 28.85 79.6 28.85 79.5 28.75 79.5 28.7 79.5 28.65 79.6 M28.25 80.55 L28.3 80.6 28.35 80.65 28.5 80.6 28.5 80.55 28.5 80.45 28.4 80.4 28.3 80.45 28.25 80.55 M26.65 80.25 L26.7 80.35 26.8 80.4 26.85 80.35 26.9 80.25 26.85 80.15 26.8 80.15 26.7 80.15 26.65 80.25 M20.95 76.85 L21.0 76.9 21.1 76.95 21.15 76.9 21.2 76.85 21.15 76.75 21.1 76.75 21.0 76.75 20.95 76.85 M22.4 77.8 L22.45 77.9 22.5 77.95 22.6 77.9 22.6 77.8 22.6 77.7 22.5 77.7 22.45 77.7 22.4 77.8 M22.05 78.75 L22.1 78.8 22.15 78.85 22.25 78.8 22.3 78.75 22.25 78.65 22.15 78.6 22.1 78.65 22.05 78.75 M23.95 78.5 L24.0 78.55 24.05 78.6 24.15 78.55 24.15 78.5 24.15 78.4 24.05 78.35 24.0 78.4 23.95 78.5 M23.5 79.4 L23.55 79.45 23.65 79.5 23.75 79.45 23.75 79.4 23.75 79.3 23.65 79.25 23.55 79.3 23.5 79.4 M25.05 79.9 L25.1 79.95 25.15 80.0 25.25 79.95 25.3 79.9 25.25 79.8 25.15 79.75 25.1 79.8 25.05 79.9"/><path fill="#bfa66a" stroke="none" d="M35.3 80.95 L35.05 80.65 34.4 79.7 34.3 79.55 34.15 79.8 35.15 81.2 35.3 80.95"/><path fill="#d4c59c" stroke="none" d="M39.8 81.35 L35.3 80.95 35.15 81.2 39.65 81.6 39.8 81.35"/><path fill="#ebe2cf" stroke="none" d="M39.8 81.35 L37.25 80.0 37.65 78.4 34.3 79.55 34.4 79.7 37.15 78.85 36.85 80.05 38.65 81.0 35.05 80.65 35.3 80.95 39.8 81.35"/><path fill="#3399ff" stroke="none" d="M35.05 80.65 L38.65 81.0 36.85 80.05 37.15 78.85 34.4 79.7 35.05 80.65"/><path fill="#ebe2cf" stroke="none" d="M33.35 81.95 L33.1 82.0 35.0 85.35 35.65 84.1 35.75 83.85 38.75 84.65 34.9 81.7 34.55 81.75 37.6 84.05 35.75 83.45 35.0 84.6 33.35 81.95"/><path fill="#bfa66a" stroke="none" d="M33.1 82.0 L32.85 82.25 34.8 85.65 35.0 85.35 33.1 82.0 M35.65 84.1 L38.6 84.95 38.75 84.65 35.75 83.85 35.65 84.1"/><path fill="#3399ff" stroke="none" d="M34.55 81.75 L33.35 81.95 35.0 84.6 35.75 83.45 37.6 84.05 34.55 81.75"/><path fill="#3399ff" stroke="none" d="M32.55 81.3 L31.9 80.25 28.45 79.75 30.05 80.7 29.35 81.9 32.55 81.3"/><path fill="#ebe2cf" stroke="none" d="M31.9 80.25 L31.8 80.1 26.95 79.3 29.6 80.8 28.9 82.35 32.7 81.55 32.55 81.3 29.35 81.9 30.05 80.7 28.45 79.75 31.9 80.25"/><path fill="#d4c59c" stroke="none" d="M28.7 82.55 L32.5 81.8 32.7 81.55 28.9 82.35 28.7 82.55"/><path fill="#a78a47" stroke="none" d="M29.35 81.05 L28.7 82.55 28.9 82.35 29.6 80.8 29.35 81.05"/><path fill="#bfa66a" stroke="none" d="M26.95 79.3 L26.95 79.7 29.35 81.05 29.6 80.8 26.95 79.3"/><path fill="#bfa66a" stroke="none" d="M32.1 75.7 L31.9 75.9 31.4 76.95 31.45 76.95 32.1 75.7 M29.15 76.25 L29.1 76.6 31.8 78.95 32.0 78.7 29.15 76.25"/><path fill="#ebe2cf" stroke="none" d="M32.1 75.7 L31.45 76.95 31.4 76.95 29.15 76.25 32.0 78.7 32.25 78.65 30.1 76.75 31.65 77.25 32.1 76.3 33.15 78.45 33.4 78.45 32.1 75.7"/><path fill="#d4c59c" stroke="none" d="M31.8 78.95 L33.25 78.65 33.4 78.45 33.15 78.45 32.25 78.65 32.0 78.7 31.8 78.95"/><path fill="#3399ff" stroke="none" d="M32.25 78.65 L33.15 78.45 32.1 76.3 31.65 77.25 30.1 76.75 32.25 78.65"/><path fill="#e48c0a" stroke="none" d="M35.2 77.75 L35.0 77.65 Q33.65 76.85 32.35 77.0 30.85 77.15 30.35 78.2 30.05 78.8 30.1 79.5 30.15 79.2 30.45 79.2 L30.65 79.25 30.8 78.45 Q31.3 77.7 32.4 77.6 33.55 77.45 34.7 78.15 L34.85 78.2 35.2 77.75 M30.3 80.35 L30.4 80.5 Q31.0 81.8 32.35 82.5 L32.45 82.55 32.65 82.7 Q32.95 82.65 32.9 82.15 L32.65 82.05 Q31.45 81.35 30.95 80.25 L30.8 80.05 30.7 79.95 Q30.4 80.0 30.3 80.35"/><path fill="#b46f07" stroke="none" d="M35.2 77.75 L34.85 78.2 Q35.95 78.9 36.5 79.9 37.0 80.95 36.6 81.7 36.15 82.45 35.05 82.6 L33.15 82.25 32.9 82.15 Q32.95 82.65 32.65 82.7 L33.15 82.9 35.1 83.15 Q36.55 83.0 37.05 82.0 37.6 80.95 37.0 79.65 36.4 78.5 35.2 77.75"/><path fill="#ffcc00" stroke="none" d="M30.65 79.25 L30.45 79.2 Q30.15 79.2 30.1 79.5 L30.3 80.35 Q30.4 80.0 30.7 79.95 L30.8 80.05 30.65 79.3 30.65 79.25"/><path fill="#f5b426" stroke="none" d="M32.55 77.05 Q31.2 77.2 30.75 78.05 30.3 78.95 30.85 80.15 31.4 81.3 32.65 82.05 33.95 82.75 35.25 82.6 36.5 82.45 37.0 81.6 37.45 80.7 36.9 79.55 36.35 78.4 35.05 77.65 33.75 76.9 32.55 77.05"/><path fill="#392302" stroke="none" d="M31.05 80.1 Q31.55 81.2 32.7 81.85 33.9 82.5 35.05 82.35 36.2 82.2 36.6 81.45 37.1 80.6 36.55 79.55 36.05 78.5 34.85 77.85 33.7 77.15 32.55 77.25 31.4 77.4 31.0 78.25 30.55 79.0 31.05 80.1"/><path fill="#563f29" stroke="none" d="M31.3 80.5 Q31.9 81.45 33.05 82.05 34.15 82.65 35.2 82.5 36.3 82.3 36.6 81.4 36.95 80.55 36.25 79.45 35.65 78.5 34.55 77.9 33.4 77.35 32.4 77.5 31.25 77.65 30.95 78.6 30.65 79.5 31.25 80.55 L31.3 80.5 M35.7 79.85 L35.7 79.8 Q36.2 80.6 36.0 81.2 L35.95 81.2 Q35.8 81.75 35.1 81.85 34.3 81.95 33.3 81.45 L31.8 80.15 Q31.35 79.4 31.55 78.8 31.75 78.25 32.5 78.2 33.3 78.05 34.2 78.55 35.2 79.05 35.7 79.85"/><path fill="#ff9900" stroke="none" d="M31.3 80.5 L31.25 80.55 31.3 80.5"/><path fill="#027bf4" stroke="none" d="M32.1 78.7 L32.05 78.7 Q31.9 79.25 32.3 79.85 L32.5 80.15 Q32.3 79.8 32.4 79.4 L32.4 79.35 33.1 78.8 Q33.65 78.75 34.3 79.05 L35.25 79.95 Q35.6 80.45 35.45 80.9 L35.35 81.1 35.3 81.2 35.15 81.3 35.75 81.05 35.75 81.0 Q35.95 80.45 35.55 79.8 L34.3 78.7 Q33.45 78.25 32.75 78.35 L32.1 78.7"/><path fill="#3399ff" stroke="none" d="M32.5 80.15 L33.55 81.0 35.1 81.3 35.15 81.3 35.3 81.2 35.35 81.1 35.45 80.9 Q35.6 80.45 35.25 79.95 L34.3 79.05 Q33.65 78.75 33.1 78.8 L32.4 79.35 32.4 79.4 Q32.3 79.8 32.5 80.15"/><path fill="#ecbd02" stroke="none" d="M35.75 81.05 L35.75 81.0 35.75 81.05"/><path fill="#ab6907" stroke="none" d="M35.75 81.0 L35.85 80.9 35.95 80.65 Q36.2 80.05 35.75 79.4 35.3 78.65 34.5 78.25 L32.95 77.95 Q32.25 78.1 32.1 78.6 L32.1 78.7 32.75 78.35 Q33.45 78.25 34.3 78.7 L35.55 79.8 Q35.95 80.45 35.75 81.0"/><path fill="#ffcc00" stroke="none" d="M35.75 81.0 L35.75 81.05 35.15 81.3 35.1 81.3 33.55 81.0 32.5 80.15 32.3 79.85 Q31.9 79.25 32.05 78.7 L32.1 78.7 32.1 78.6 Q32.25 78.1 32.95 77.95 L34.5 78.25 Q35.3 78.65 35.75 79.4 36.2 80.05 35.95 80.65 L35.85 80.9 35.75 81.0 M36.5 81.15 Q36.75 80.4 36.15 79.5 35.6 78.6 34.55 78.05 33.5 77.5 32.55 77.65 31.65 77.8 31.45 78.5 31.15 79.25 31.75 80.15 32.3 81.05 33.35 81.6 34.4 82.15 35.35 82.0 36.25 81.85 36.5 81.15"/><path fill="#473a1f" stroke="none" d="M33.55 79.4 L32.5 78.8 33.3 79.75 32.95 80.35 33.9 80.35 34.7 81.25 34.5 80.35 35.4 80.35 34.3 79.75 33.95 78.8 33.55 79.4"/><path fill="#ebe2cf" stroke="none" d="M35.65 80.3 L34.6 79.75 34.25 78.8 33.8 79.35 32.75 78.8 33.6 79.75 33.2 80.3 34.1 80.35 34.95 81.25 34.75 80.35 35.65 80.3"/></g><linearGradient gradientUnits="userSpaceOnUse" x1="-819.2" x2="819.2" spreadMethod="pad" gradientTransform="matrix(-0.0015869140625,-0.00593566894531,0.00762939453125,-0.00204467773438,0.55,3.1)" id="gradient3"><stop offset="0.0" stop-color="#392302"/><stop offset="1.0" stop-color="#382202" stop-opacity="0.0"/></linearGradient><g id="c11"><path stroke="none" fill="url(#gradient3)" d="M3.2 -6.45 L3.25 -6.45 Q6.4 -6.1 7.5 -3.95 8.15 -2.7 7.9 -1.3 7.8 -0.45 7.3 0.55 L7.1 0.9 7.15 0.9 Q5.8 3.5 2.75 5.05 L2.55 5.15 2.15 5.35 1.05 5.85 Q-1.15 6.6 -3.25 6.4 -6.3 6.1 -7.4 3.95 -8.55 1.85 -7.1 -0.95 -5.75 -3.3 -3.05 -4.9 L-2.65 -5.05 Q0.35 -6.7 3.2 -6.45"/></g><g id="c12"><g><use transform="matrix(1.0,0.0,0.0,1.0,0.0,0.0)" xlink:href="#c11"/></g></g><radialGradient gradientUnits="userSpaceOnUse" r="819.2" cx="0" cy="0" spreadMethod="pad" gradientTransform="matrix(0.0018310546875,0.0,0.0,0.0018310546875,0.0,0.0)" id="gradient4"><stop offset="0.0" stop-color="#fee3bc"/><stop offset="0.537254901961" stop-color="#ffe3bd" stop-opacity="0.0"/></radialGradient><g id="c13"><path stroke="none" fill="url(#gradient4)" d="M0.8 0.8 Q0.5 1.15 0.0 1.15 -0.5 1.15 -0.85 0.8 L-1.15 0.0 -0.85 -0.85 Q-0.5 -1.15 0.0 -1.15 L0.8 -0.85 1.15 0.0 Q1.15 0.5 0.8 0.8"/></g><g id="c14"><g><use transform="matrix(1.0,0.0,0.0,1.0,0.0,0.0)" xlink:href="#c13"/></g></g><g id="c15"><g><use transform="matrix(0.565216064453,0.0,0.0,0.565216064453,-0.05,-0.1)" xlink:href="#c14"/></g></g><g id="c16"><g><use transform="matrix(9.9174041748,3.14834594727,0.0,0.779739379883,0.5,0.4)" xlink:href="#c15"/></g><g><use transform="matrix(-1.66168212891,-10.2576599121,0.594268798828,-0.972961425781,0.15,-0.6)" xlink:href="#c15"/></g></g><g id="c17"><g><use transform="matrix(1.0,0.0,0.0,1.0,6.3,53.35)" xlink:href="#c9"/></g><g><use transform="matrix(1.0,0.0,0.0,1.0,0.0,0.0)" xlink:href="#c10"/></g><g><use transform="matrix(-0.458770751953,0.0,-0.0153503417969,0.482330322266,33.7,80.15)" xlink:href="#c12"/></g><g><use transform="matrix(-0.571243286133,-1.50845336914,-0.921340942383,0.401702880859,35.85,78.8)" xlink:href="#c16"/></g><g><use transform="matrix(-2.77839660645,-4.44183349609,-2.96365356445,1.29209899902,34.45,78.5)" xlink:href="#c15"/></g><g><use transform="matrix(0.141098022461,-0.0378112792969,0.111373901367,0.225646972656,27.2,74.05)" filter="url(#filter19)" xlink:href="#c6"/></g></g><filter id="filter19"><feColorMatrix in="SourceGraphic" type="matrix" values="1.0 0.0 0.0 0.0 0.0 0.0 1.0 0.0 0.0 0.0 0.0 0.0 1.0 0.0 0.0 0.0 0.0 0.0 0.23046875 0.0" result="cxform"/><feComposite operator="in" in2="SourceGraphic" result="color-xform"/></filter></defs><g><g><use transform="matrix(1.0,0.0,0.0,1.0,0.0,0.0)" xlink:href="#c1"/></g><g><use transform="matrix(1.15496826172,0.0,0.0,1.15496826172,-1.55,-56.9)" xlink:href="#c17"/></g></g></svg>