<?xml version='1.0' encoding='UTF-8'?>
<svg xmlns:xlink="http://www.w3.org/1999/xlink" xmlns="http://www.w3.org/2000/svg" version="1.1" width="60px" height="60px" viewBox="0.0 0.0 60.0 60.0"><defs><g id="c1"><path fill="#000000" fill-opacity="0.00392156862745" d="M0.0 0.0 L60.0 0.0 60.0 60.0 0.0 60.0 0.0 0.0"/></g><g id="c2"><path fill="none" stroke="#000000" stroke-width="1.0" stroke-opacity="0.301960784314" d="M0.7 12.25 Q-0.45 9.75 0.75 8.25 1.2 7.6 2.15 7.15 2.8 6.7 3.8 6.35 L17.5 1.95 30.2 7.0 41.35 31.7 Q42.95 35.15 40.2 36.7 39.5 37.3 38.3 37.65 L19.8 43.65 Q17.15 44.45 15.5 43.3 14.35 42.55 13.65 40.9 L0.7 12.25"/><path fill="#9d147b" stroke="none" d="M35.55 22.3 L31.5 13.2 29.75 9.2 16.95 4.25 5.5 7.85 Q1.65 9.1 3.35 12.8 L8.25 23.65 15.0 38.6 15.2 39.0 Q16.8 42.25 20.45 41.1 L37.2 35.7 Q41.1 34.5 39.35 30.75 L35.55 22.3 M2.15 7.15 Q2.8 6.7 3.8 6.35 L17.5 1.95 30.2 7.0 41.35 31.7 Q42.95 35.15 40.2 36.7 L38.9 37.25 23.2 42.3 20.4 43.2 19.1 43.5 17.3 43.4 Q15.3 42.9 14.2 40.5 L5.45 20.95 1.35 11.8 Q0.4 9.65 1.1 8.3 1.45 7.65 2.15 7.15"/><path fill="#c47fad" stroke="none" d="M31.5 13.2 L35.55 22.3 39.35 30.75 Q41.1 34.5 37.2 35.7 L20.45 41.1 Q16.8 42.25 15.2 39.0 L15.0 38.6 8.25 23.65 3.35 12.8 Q1.65 9.1 5.5 7.85 L16.95 4.25 29.75 9.2 31.5 13.2 M18.5 7.45 L9.1 10.55 9.55 11.6 Q9.8 12.8 9.15 13.6 8.4 14.45 7.1 14.4 L6.8 14.4 6.95 14.6 16.3 35.2 Q16.8 36.4 17.65 37.0 18.8 37.8 20.65 37.2 L34.0 32.9 33.7 32.1 Q33.45 30.9 34.1 30.1 34.75 29.3 35.95 29.35 L35.8 29.0 27.75 10.95 18.5 7.45"/><path fill="#630a4c" stroke="none" d="M0.75 8.25 Q1.2 7.6 2.15 7.15 1.45 7.65 1.1 8.3 L0.75 8.25 M23.3 42.5 L20.1 43.55 19.1 43.5 20.4 43.2 23.2 42.3 23.3 42.5 M15.5 43.3 Q14.35 42.55 13.65 40.9 L4.6 20.9 5.45 20.95 14.2 40.5 Q15.3 42.9 17.3 43.4 L15.5 43.3"/><path fill="#300525" stroke="none" d="M4.6 20.9 L0.7 12.25 Q-0.45 9.75 0.75 8.25 L1.1 8.3 Q0.4 9.65 1.35 11.8 L5.45 20.95 4.6 20.9 M40.2 36.7 Q39.5 37.3 38.3 37.65 L23.3 42.5 23.2 42.3 38.9 37.25 40.2 36.7 M20.1 43.55 L19.8 43.65 Q17.15 44.45 15.5 43.3 L17.3 43.4 19.1 43.5 20.1 43.55"/><path fill="#fcf2cf" stroke="none" d="M27.75 10.95 L35.8 29.0 35.95 29.35 Q34.75 29.3 34.1 30.1 33.45 30.9 33.7 32.1 L34.0 32.9 20.65 37.2 Q18.8 37.8 17.65 37.0 16.8 36.4 16.3 35.2 L6.95 14.6 6.8 14.4 7.1 14.4 Q8.4 14.45 9.15 13.6 9.8 12.8 9.55 11.6 L9.1 10.55 18.5 7.45 27.75 10.95"/><path fill="none" stroke="#bf9900" stroke-width="1.0" stroke-opacity="0.749019607843" d="M31.5 13.2 L35.55 22.3 M15.0 38.6 L8.25 23.65"/><path fill="none" stroke="#ffcc00" stroke-width="1.0" stroke-opacity="0.749019607843" d="M35.55 22.3 L39.35 30.75 Q41.1 34.5 37.2 35.7 L20.45 41.1 Q16.8 42.25 15.2 39.0 L15.0 38.6 M8.25 23.65 L3.35 12.8 Q1.65 9.1 5.5 7.85 L16.95 4.25 29.75 9.2 31.5 13.2"/><path fill="none" stroke="#000000" stroke-width="0.5" stroke-opacity="0.301960784314" d="M4.6 20.9 L0.7 12.25 Q-0.45 9.75 0.75 8.25 1.2 7.6 2.15 7.15 2.8 6.7 3.8 6.35 L17.5 1.95 M30.2 7.0 L41.35 31.7 Q42.95 35.15 40.2 36.7 39.5 37.3 38.3 37.65 L23.3 42.5 20.1 43.55 19.8 43.65 Q17.15 44.45 15.5 43.3 14.35 42.55 13.65 40.9 L4.6 20.9 M5.45 20.95 L1.35 11.8 Q0.4 9.65 1.1 8.3 1.45 7.65 2.15 7.15 M19.1 43.5 L17.3 43.4 Q15.3 42.9 14.2 40.5 L5.45 20.95 M23.2 42.3 L20.4 43.2 19.1 43.5 M40.2 36.7 L38.9 37.25 23.2 42.3"/><path fill="none" stroke="#f0b92b" stroke-width="0.5" d="M27.75 10.95 L35.8 29.0 35.95 29.35 Q34.75 29.3 34.1 30.1 33.45 30.9 33.7 32.1 L34.0 32.9 20.65 37.2 Q18.8 37.8 17.65 37.0 16.8 36.4 16.3 35.2 L6.95 14.6 6.8 14.4 7.1 14.4 Q8.4 14.45 9.15 13.6 9.8 12.8 9.55 11.6 L9.1 10.55 18.5 7.45"/><path fill="none" stroke="#ffcc00" stroke-width="0.5" stroke-opacity="0.749019607843" d="M18.5 7.45 L27.75 10.95"/></g><g id="c3"><path fill="#7fdbfe" stroke="none" d="M10.75 4.9 Q10.75 4.6 10.9 4.35 11.25 3.45 11.95 2.75 13.3 1.5 14.35 2.1 15.4 2.7 14.95 4.45 14.7 5.4 14.1 6.15 L13.75 6.5 Q13.1 7.15 12.35 7.35 L11.4 7.2 Q10.95 6.9 10.75 6.4 10.5 5.75 10.75 4.9 M7.5 5.9 Q7.0 5.85 6.6 5.5 6.05 5.0 5.8 4.15 L5.7 3.6 Q5.55 2.65 5.8 1.7 6.25 0.0 7.5 0.0 L7.6 0.0 Q8.85 0.0 9.3 1.7 9.55 2.65 9.4 3.6 L9.3 4.15 8.5 5.5 7.6 5.9 7.5 5.9 M4.35 4.9 Q4.6 5.75 4.35 6.4 L3.7 7.2 2.75 7.35 Q2.0 7.15 1.35 6.5 L1.0 6.15 Q0.4 5.4 0.15 4.45 -0.3 2.7 0.75 2.1 1.8 1.5 3.15 2.75 3.85 3.45 4.2 4.35 L4.35 4.9 M5.5 13.7 Q4.45 13.9 3.65 12.95 2.75 12.0 3.2 10.25 3.7 8.5 5.25 7.6 6.4 6.9 7.55 7.0 8.75 6.9 9.9 7.6 11.45 8.5 11.95 10.25 12.35 12.0 11.5 12.95 10.7 13.9 9.65 13.7 8.55 13.5 7.55 12.6 6.55 13.5 5.5 13.7"/></g><g id="c4"><g><use transform="matrix(1.0,0.0,0.0,1.0,0.0,0.0)" xlink:href="#c3"/></g></g><radialGradient gradientUnits="userSpaceOnUse" r="819.2" cx="0" cy="0" spreadMethod="pad" gradientTransform="matrix(0.0914459228516,0.0,0.0,0.0914459228516,0.6,3.4)" id="gradient1"><stop offset="0.0" stop-color="#ffffff"/><stop offset="1.0" stop-color="#ffffff" stop-opacity="0.0"/></radialGradient><g id="c5"><path stroke="none" fill="url(#gradient1)" d="M36.65 -54.65 Q60.05 -42.0 69.75 -17.95 80.55 8.9 68.0 34.1 55.45 59.35 26.8 68.2 -1.8 77.05 -29.7 64.3 -57.6 51.6 -68.45 24.75 -79.3 -2.05 -66.75 -27.25 L-66.7 -27.3 Q-54.1 -52.5 -25.5 -61.4 3.1 -70.2 31.0 -57.5 L36.65 -54.65"/></g><g id="c6"><g><use transform="matrix(1.0,0.0,0.0,1.0,0.0,0.0)" xlink:href="#c5"/></g></g><radialGradient gradientUnits="userSpaceOnUse" r="819.2" cx="0" cy="0" spreadMethod="pad" gradientTransform="matrix(0.209197998047,0.0,0.0,0.177108764648,67.15,107.2)" id="gradient2"><stop offset="0.356862745098" stop-color="#ffffff"/><stop offset="0.670588235294" stop-opacity="0.0"/></radialGradient><g id="c7"><path fill="none" stroke-linejoin="round" stroke-linecap="round" stroke="url(#gradient2)" stroke-width="0.5" d="M136.55 165.8 L68.6 106.0 68.4 106.0 118.25 201.5 M68.3 105.8 L68.35 105.8 68.3 105.8 68.3 105.85 68.4 106.0 68.3 106.0 86.55 211.5 M68.3 105.8 L68.3 105.85 68.3 106.0 68.15 105.95 18.25 151.55 M68.3 105.85 L68.25 105.85 68.3 106.0 50.0 193.2 M68.25 105.85 L68.15 105.95 0.05 97.7 M68.3 105.85 L68.25 105.8 68.25 105.85 M68.25 105.8 L68.2 105.7 0.0 45.7 M68.3 105.8 L68.25 105.75 68.25 105.8 M68.25 105.75 L68.2 105.7 18.25 10.05 M68.6 106.0 L68.35 105.8 118.25 60.15 M86.6 18.35 L68.3 105.8 M136.6 114.25 L68.6 106.0 M68.25 105.75 L49.95 0.05"/></g><g id="c8"><g><use transform="matrix(1.0,0.0,0.0,1.0,0.0,0.0)" xlink:href="#c7"/></g></g><g id="c9"><g><use transform="matrix(1.0,0.0,0.0,1.0,0.0,0.0)" xlink:href="#c2"/></g><g><use transform="matrix(0.238861083984,-0.0867004394531,0.10026550293,0.233917236328,34.25,31.15)" xlink:href="#c4"/></g><g><use transform="matrix(0.238861083984,-0.0867004394531,0.10026550293,0.233917236328,4.25,10.3)" xlink:href="#c4"/></g><g><use transform="matrix(0.141098022461,-0.0378112792969,0.111373901367,0.225646972656,20.25,20.65)" filter="url(#filter7)" xlink:href="#c6"/></g><g><use transform="matrix(-0.155029296875,0.0513153076172,0.0841827392578,0.147033691406,22.6,3.15)" filter="url(#filter8)" xlink:href="#c8"/></g></g><filter id="filter7"><feColorMatrix in="SourceGraphic" type="matrix" values="0.0 0.0 0.0 0.0 0.796875 0.0 0.0 0.0 0.0 0.59765625 0.0 0.0 0.0 0.0 0.19921875 0.0 0.0 0.0 1.0 0.0" result="cxform"/><feComposite operator="in" in2="SourceGraphic" result="color-xform"/></filter><filter id="filter8"><feColorMatrix in="SourceGraphic" type="matrix" values="0.0 0.0 0.0 0.0 0.99609375 0.0 0.0 0.0 0.0 0.99609375 0.0 0.0 0.0 0.0 0.99609375 0.0 0.0 0.0 1.0 0.0" result="cxform"/><feComposite operator="in" in2="SourceGraphic" result="color-xform"/></filter><linearGradient gradientUnits="userSpaceOnUse" x1="-819.2" x2="819.2" spreadMethod="pad" gradientTransform="matrix(-0.00187683105469,0.00302124023438,0.00193786621094,0.00120544433594,25.6,68.8)" id="gradient3"><stop offset="0.0" stop-color="#fcf7e7"/><stop offset="0.509803921569" stop-color="#e7dda9"/></linearGradient><g id="c10"><path fill="#9e9153" stroke="none" d="M23.25 74.05 L23.25 73.85 Q23.3 72.9 23.85 72.0 23.7 73.0 23.85 74.5 L23.25 74.25 23.25 74.05"/><path fill="#bcb069" stroke="none" d="M23.85 74.5 Q23.7 73.0 23.85 72.0 L24.4 71.2 24.4 71.15 24.85 70.75 25.2 70.4 25.4 70.25 25.45 70.25 Q26.2 69.65 27.1 69.4 29.2 69.45 28.6 71.2 28.0 72.95 24.95 74.35 L27.5 74.5 Q28.75 74.25 29.35 73.7 L28.2 75.05 Q26.75 76.3 27.1 77.0 31.15 82.4 36.5 79.25 35.25 81.45 33.85 82.8 L33.75 82.9 Q32.95 83.35 32.15 83.6 L31.75 83.75 Q26.5 81.35 24.35 76.6 L23.85 74.5"/><path fill="#eee5bd" stroke="none" d="M27.1 69.4 L28.45 69.25 Q30.55 69.3 31.25 69.95 L31.35 70.0 31.35 70.05 Q35.7 72.15 37.3 76.3 L37.35 76.4 Q37.9 77.05 37.55 78.25 L37.4 78.6 37.25 79.05 Q36.65 80.35 35.3 81.65 L35.15 81.8 33.85 82.8 Q35.25 81.45 36.5 79.25 31.15 82.4 27.1 77.0 26.75 76.3 28.2 75.05 L29.35 73.7 Q28.75 74.25 27.5 74.5 L24.95 74.35 Q28.0 72.95 28.6 71.2 29.2 69.45 27.1 69.4"/><path fill="#e7dda9" stroke="none" d="M23.25 74.25 L23.85 74.5 24.35 76.6 Q26.5 81.35 31.75 83.75 30.5 84.0 29.85 83.35 L27.25 81.6 27.0 81.35 Q25.15 79.65 23.95 77.1 L23.9 77.05 23.8 76.9 Q23.5 76.5 23.35 75.95 L23.25 74.25"/><path fill="none" stroke="#000000" stroke-width="0.5" stroke-opacity="0.301960784314" d="M23.85 72.0 Q23.3 72.9 23.25 73.85 L23.25 74.05 M23.85 72.0 L24.4 71.2 24.4 71.15 24.85 70.75 25.2 70.4 25.4 70.25 25.45 70.25 Q26.2 69.65 27.1 69.4 L28.45 69.25 Q30.55 69.3 31.25 69.95 L31.35 70.0 31.35 70.05 Q35.7 72.15 37.3 76.3 L37.35 76.4 Q37.9 77.05 37.55 78.25 L37.4 78.6 37.25 79.05 Q36.65 80.35 35.3 81.65 L35.15 81.8 33.85 82.8 33.75 82.9 Q32.95 83.35 32.15 83.6 L31.75 83.75 Q30.5 84.0 29.85 83.35 L27.25 81.6 27.0 81.35 Q25.15 79.65 23.95 77.1 L23.9 77.05 23.8 76.9 Q23.5 76.5 23.35 75.95 L23.25 74.25"/><path fill="#b7aa64" stroke="none" d="M38.65 78.3 L38.5 78.05 38.4 77.9 38.1 77.4 37.8 77.05 37.25 76.7 37.55 77.55 37.3 78.7 37.3 78.75 37.1 79.2 35.8 81.0 35.7 81.15 35.5 81.35 35.35 81.5 Q34.35 82.45 33.3 82.95 L33.15 83.0 32.5 83.25 31.6 83.45 31.25 83.45 31.2 83.4 30.4 83.05 31.05 83.9 31.65 84.35 Q31.95 84.7 32.45 84.8 L32.95 84.8 33.75 84.6 33.95 84.55 34.1 84.5 34.6 84.3 35.0 84.1 34.3 83.85 Q38.15 81.7 38.65 78.3"/><path fill="#e6c65e" stroke="none" d="M38.55 80.1 L38.6 80.05 38.55 80.1"/><path fill="#fbf1bf" stroke="none" d="M35.0 84.1 L35.45 83.8 35.9 83.45 36.65 82.85 Q38.05 81.5 38.55 80.1 L38.6 80.05 38.6 80.0 Q38.95 78.95 38.65 78.3 38.15 81.7 34.3 83.85 L35.0 84.1"/><path fill="#405425" stroke="none" d="M35.5 81.35 L35.35 81.5 35.5 81.35"/><path fill="none" stroke="#000000" stroke-width="0.5" stroke-opacity="0.301960784314" d="M38.65 78.3 L38.5 78.05 38.4 77.9 38.1 77.4 37.8 77.05 37.25 76.7 37.55 77.55 37.3 78.7 37.3 78.75 37.1 79.2 35.8 81.0 35.7 81.15 35.5 81.35 35.35 81.5 Q34.35 82.45 33.3 82.95 L33.15 83.0 32.5 83.25 31.6 83.45 31.25 83.45 31.2 83.4 30.4 83.05 31.05 83.9 31.65 84.35 Q31.95 84.7 32.45 84.8 L32.95 84.8 33.75 84.6 33.95 84.55 M34.1 84.5 L34.6 84.3 35.0 84.1 35.45 83.8 35.9 83.45 36.65 82.85 Q38.05 81.5 38.55 80.1 L38.6 80.05 38.6 80.0 Q38.95 78.95 38.65 78.3"/><path fill="#b19741" stroke="none" d="M21.6 76.3 L22.45 77.1 Q23.05 72.7 24.25 72.45 22.65 70.6 21.6 76.3"/><path fill="none" stroke="#000000" stroke-width="0.5" stroke-opacity="0.301960784314" d="M21.6 76.3 Q22.65 70.6 24.25 72.45 23.05 72.7 22.45 77.1 L21.6 76.3"/><path fill="#7a7c40" stroke="none" d="M21.1 77.0 L21.65 77.45 22.45 77.35 22.85 76.75 22.8 76.0 22.2 75.55 21.45 75.65 20.95 76.25 Q20.85 76.6 21.1 77.0 M22.3 75.7 Q22.6 75.75 22.7 75.95 L22.75 76.45 22.45 76.85 21.95 76.95 21.6 76.6 21.55 76.1 21.8 75.75 22.3 75.7"/><path fill="#9ca64e" stroke="none" d="M22.6 76.35 L22.4 76.4 22.25 76.25 22.2 76.05 22.35 75.95 22.5 75.9 22.7 76.0 22.7 76.2 22.6 76.35 M22.3 75.7 L21.8 75.75 21.55 76.1 21.6 76.6 21.95 76.95 22.45 76.85 22.75 76.45 22.7 75.95 Q22.6 75.75 22.3 75.7"/><path fill="#ffff6d" stroke="none" d="M22.6 76.35 L22.7 76.2 22.7 76.0 22.5 75.9 22.35 75.95 22.2 76.05 22.25 76.25 22.4 76.4 22.6 76.35"/><path fill="none" stroke="#000000" stroke-width="0.5" stroke-opacity="0.301960784314" d="M21.1 77.0 L21.65 77.45 22.45 77.35 22.85 76.75 22.8 76.0 22.2 75.55 21.45 75.65 20.95 76.25 Q20.85 76.6 21.1 77.0"/><path fill="#6d0556" stroke="none" d="M19.3 78.3 Q19.2 78.75 19.25 79.35 L20.6 79.05 Q20.95 80.2 22.0 81.3 L22.15 80.3 Q21.3 79.7 20.9 77.4 L19.3 78.3 M22.7 79.25 L23.05 78.75 24.25 78.85 24.25 78.75 22.85 77.85 22.7 79.25"/><path fill="#f30ec1" stroke="none" d="M19.3 78.3 L20.9 77.4 Q21.3 79.7 22.15 80.3 L22.7 79.25 22.85 77.85 24.25 78.75 Q24.2 77.35 22.05 76.5 L20.35 77.1 Q19.5 77.45 19.3 78.3"/><path fill="none" stroke="#000000" stroke-width="0.5" stroke-opacity="0.301960784314" d="M22.15 80.3 L22.0 81.3 Q20.95 80.2 20.6 79.05 L19.25 79.35 Q19.2 78.75 19.3 78.3 M22.15 80.3 L22.7 79.25 23.05 78.75 24.25 78.85 24.25 78.75 Q24.2 77.35 22.05 76.5 L20.35 77.1 Q19.5 77.45 19.3 78.3"/><path fill="#d9e43b" stroke="none" d="M37.25 75.25 L37.55 75.7 37.95 76.25 38.05 76.45 Q38.7 77.25 38.15 78.7 L38.15 78.85 38.1 78.85 38.1 78.9 Q37.5 80.55 35.85 82.1 L35.0 82.8 34.45 83.25 34.45 83.05 Q34.15 81.45 36.3 79.4 L36.7 79.05 36.85 78.6 37.05 77.7 Q37.45 75.9 37.25 75.25 M30.85 84.3 L30.05 83.95 29.95 83.85 29.25 83.3 28.45 82.3 29.45 82.75 30.85 84.3"/><path fill="#b3c855" stroke="none" d="M34.45 83.25 L33.95 83.55 Q33.25 82.4 34.35 80.55 L34.35 80.5 34.5 80.4 34.55 80.3 34.7 80.1 34.85 80.0 36.4 77.8 36.6 77.3 36.6 77.25 36.9 75.85 36.6 74.9 37.25 75.25 Q37.45 75.9 37.05 77.7 L36.85 78.6 36.7 79.05 36.3 79.4 Q34.15 81.45 34.45 83.05 L34.45 83.25 M31.55 84.4 L30.9 84.35 30.85 84.3 29.45 82.75 29.55 82.75 29.95 82.8 Q31.45 83.9 31.55 84.4"/><path fill="#e6c65e" stroke="none" d="M38.15 78.85 L38.1 78.9 38.1 78.85 38.15 78.85"/><path fill="#8c9545" stroke="none" d="M33.95 83.55 L33.45 83.8 32.9 84.05 32.7 84.15 32.5 84.15 31.55 84.4 Q31.45 83.9 29.95 82.8 L30.95 82.55 31.75 82.25 31.95 82.2 34.35 80.5 34.35 80.55 Q33.25 82.4 33.95 83.55"/><path fill="none" stroke="#000000" stroke-width="0.5" stroke-opacity="0.301960784314" d="M37.25 75.25 L37.55 75.7 37.95 76.25 38.05 76.45 Q38.7 77.25 38.15 78.7 L38.15 78.85 38.1 78.9 Q37.5 80.55 35.85 82.1 L35.0 82.8 34.45 83.25 33.95 83.55 33.45 83.8 32.9 84.05 M32.7 84.15 L32.5 84.15 31.55 84.4 30.9 84.35 30.85 84.3 30.05 83.95 29.95 83.85 29.25 83.3 28.45 82.3 29.45 82.75 29.55 82.75 29.95 82.8 30.95 82.55 31.75 82.25 31.95 82.2 34.35 80.5 34.5 80.4 34.55 80.3 34.7 80.1 34.85 80.0 36.4 77.8 36.6 77.3 36.6 77.25 36.9 75.85 36.6 74.9 37.25 75.25"/><path fill="none" stroke="#382510" stroke-width="0.5" stroke-opacity="0.152941176471" d="M38.15 78.7 Q37.35 78.35 36.3 79.4 34.15 81.45 34.45 83.05 L34.45 83.25 M37.9 76.15 Q38.1 78.25 36.9 77.7 L36.35 77.85 M31.8 82.25 Q31.2 82.7 31.35 82.85 L32.2 84.05 M32.25 84.1 L32.9 84.1"/><path fill="#9e087e" stroke="none" d="M27.5 68.3 L27.15 68.1 27.3 68.6 27.15 69.45 27.0 69.8 26.15 71.0 26.05 71.1 25.95 71.25 25.85 71.35 25.8 71.4 Q25.2 72.45 25.6 73.1 L25.9 72.9 25.9 72.85 Q25.7 71.9 27.0 70.7 L27.2 70.5 27.3 70.25 27.4 69.7 Q27.65 68.65 27.5 68.3 M23.25 72.65 L23.05 72.65 23.0 72.65 23.8 73.55 23.85 73.6 24.2 73.6 23.25 72.65"/><path fill="#f30ec1" stroke="none" d="M23.0 72.65 Q22.65 72.6 22.45 72.4 L22.9 72.95 23.3 73.3 23.35 73.35 23.8 73.55 23.0 72.65 M25.9 72.9 L26.2 72.7 26.7 72.25 Q27.65 71.35 28.0 70.4 L28.0 70.35 28.05 70.3 Q28.35 69.45 28.0 68.95 L27.95 68.85 27.75 68.55 27.5 68.3 Q27.65 68.65 27.4 69.7 L27.3 70.25 27.2 70.5 27.0 70.7 Q25.7 71.9 25.9 72.85 L25.9 72.9"/><path fill="#b3c855" stroke="none" d="M25.85 71.35 L25.8 71.35 25.8 71.4 25.85 71.35 M23.05 72.65 L23.0 72.65 23.05 72.65"/><path fill="#405425" stroke="none" d="M25.95 71.25 L25.85 71.35 25.95 71.25"/><path fill="#6d0556" stroke="none" d="M25.8 71.4 L24.45 72.35 24.35 72.4 23.85 72.55 23.25 72.65 24.2 73.6 24.75 73.45 24.9 73.45 25.0 73.4 25.3 73.25 25.6 73.1 Q25.2 72.45 25.8 71.4"/><path fill="#d9e43b" stroke="none" d="M23.8 73.55 L23.85 73.6 23.8 73.55"/><path fill="none" stroke="#382510" stroke-width="0.8" stroke-opacity="0.301960784314" d="M27.5 68.3 L27.15 68.1 27.3 68.6 27.15 69.45 27.0 69.8 26.15 71.0 26.05 71.1 25.95 71.25 25.85 71.35 25.8 71.4 24.45 72.35 24.35 72.4 23.85 72.55 23.25 72.65 23.05 72.65 23.0 72.65 Q22.65 72.6 22.45 72.4 L22.9 72.95 23.3 73.3 23.35 73.35 23.8 73.55 23.85 73.6 24.2 73.6 24.75 73.45 24.9 73.45 M25.0 73.4 L25.3 73.25 25.6 73.1 25.9 72.9 26.2 72.7 26.7 72.25 Q27.65 71.35 28.0 70.4 L28.0 70.35 28.05 70.3 Q28.35 69.45 28.0 68.95 L27.95 68.85 27.75 68.55 27.5 68.3"/><path fill="none" stroke="#382510" stroke-width="0.5" stroke-opacity="0.152941176471" d="M28.25 70.1 Q27.75 69.8 27.15 70.45 25.9 71.65 26.05 72.55 L26.1 72.7 M28.1 68.6 Q28.15 69.75 27.5 69.45 L27.15 69.55 M24.5 72.1 L24.25 72.45 24.75 73.15 M24.8 73.15 L25.15 73.15"/><path fill="#c3b770" stroke="none" d="M20.05 70.8 Q20.35 71.55 21.45 72.35 22.65 73.2 23.4 72.95 21.45 72.3 20.85 71.15 L20.65 71.15 20.05 70.8 M26.95 70.35 L27.5 69.25 27.55 69.1 27.6 69.0 27.7 68.6 Q27.2 69.95 25.7 70.8 24.5 71.45 23.95 71.3 L23.85 71.25 23.25 70.8 23.25 70.3 22.55 70.75 23.0 71.4 23.6 71.9 24.15 71.95 24.85 71.7 26.95 70.35"/><path fill="#d4ca81" stroke="none" d="M25.25 65.3 L25.2 65.25 25.15 65.2 23.55 65.05 Q22.4 65.4 21.25 66.45 20.15 67.55 19.75 68.7 L19.55 69.55 19.75 70.25 19.85 70.4 19.85 70.45 20.05 70.55 21.55 70.6 22.4 70.2 23.35 69.6 23.6 69.35 23.8 69.15 23.85 69.15 24.4 68.65 25.35 66.95 25.45 66.75 25.45 66.7 Q25.7 65.8 25.25 65.3 M20.55 69.8 L20.55 69.75 20.45 69.7 Q20.25 69.45 20.3 69.1 20.3 68.8 20.45 68.4 20.65 67.75 21.2 67.15 L21.6 66.7 21.7 66.65 22.1 66.35 23.4 65.6 24.65 65.75 24.65 65.8 24.7 65.85 Q25.05 66.2 24.8 66.95 L24.8 67.1 24.05 68.4 23.65 68.75 23.55 68.8 23.3 69.05 22.5 69.65 21.85 69.9 20.7 69.85 20.55 69.8"/><path fill="#9e9153" stroke="none" d="M20.55 69.8 L20.7 69.85 21.85 69.9 22.5 69.65 23.3 69.05 23.55 68.8 23.65 68.75 24.05 68.4 24.8 67.1 24.8 66.95 Q25.05 66.2 24.7 65.85 L24.65 65.8 24.65 65.75 23.4 65.6 22.1 66.35 21.7 66.65 21.6 66.7 21.2 67.15 Q20.65 67.75 20.45 68.4 20.3 68.8 20.3 69.1 20.25 69.45 20.45 69.7 L20.55 69.75 20.55 69.8"/><path fill="#fbf6e3" stroke="none" d="M20.05 70.8 L20.65 71.15 20.85 71.15 Q21.95 71.15 22.55 70.75 L23.25 70.3 Q24.55 69.25 25.1 68.05 L25.2 68.0 25.25 67.95 Q25.75 67.0 25.85 66.05 L25.55 65.4 25.25 65.3 Q25.7 65.8 25.45 66.7 L25.45 66.75 25.35 66.95 24.4 68.65 23.85 69.15 23.8 69.15 23.6 69.35 23.35 69.6 22.4 70.2 21.55 70.6 20.05 70.55 19.85 70.45 20.05 70.8"/><path stroke="none" fill="url(#gradient3)" d="M27.7 68.6 L27.65 68.55 Q27.75 68.0 27.45 67.6 L27.4 67.55 Q26.95 66.1 25.55 65.4 L25.85 66.05 Q25.75 67.0 25.25 67.95 L25.2 68.0 25.1 68.05 Q24.55 69.25 23.25 70.3 L23.25 70.8 23.85 71.25 23.95 71.3 Q24.5 71.45 25.7 70.8 27.2 69.95 27.7 68.6"/><path fill="#b4a761" stroke="none" d="M20.85 71.15 Q21.45 72.3 23.4 72.95 L23.7 72.9 24.55 72.5 25.6 71.8 25.95 71.45 26.95 70.35 24.85 71.7 24.15 71.95 23.6 71.9 23.0 71.4 22.55 70.75 Q21.95 71.15 20.85 71.15"/><path fill="none" stroke="#000000" stroke-width="0.5" stroke-opacity="0.301960784314" d="M23.4 72.95 Q22.65 73.2 21.45 72.35 20.35 71.55 20.05 70.8 M23.4 72.95 L23.7 72.9 24.55 72.5 25.6 71.8 25.95 71.45 26.95 70.35 27.5 69.25 27.55 69.1 27.6 69.0 27.7 68.6 M27.65 68.55 Q27.75 68.0 27.45 67.6 L27.4 67.55 Q26.95 66.1 25.55 65.4 L25.25 65.3 25.2 65.25 25.15 65.2 23.55 65.05 Q22.4 65.4 21.25 66.45 20.15 67.55 19.75 68.7 L19.55 69.55 19.75 70.25 19.85 70.4 19.85 70.45 20.05 70.8"/><path fill="none" stroke="#000000" stroke-width="0.5" stroke-opacity="0.301960784314" d="M20.55 69.8 L20.7 69.85 21.85 69.9 22.5 69.65 23.3 69.05 23.55 68.8 23.65 68.75 24.05 68.4 24.8 67.1 24.8 66.95 Q25.05 66.2 24.7 65.85 L24.65 65.8 24.65 65.75 23.4 65.6 22.1 66.35 21.7 66.65 21.6 66.7 21.2 67.15 Q20.65 67.75 20.45 68.4 20.3 68.8 20.3 69.1 20.25 69.45 20.45 69.7 L20.55 69.75 20.55 69.8"/><path fill="#382510" fill-opacity="0.301960784314" d="M20.85 70.55 Q21.7 70.5 22.6 69.85 23.45 69.25 23.8 68.45 24.15 67.65 23.8 67.2 23.45 66.7 22.6 66.75 L20.9 67.2 Q20.05 67.5 19.65 68.55 19.25 69.6 19.6 70.15 20.0 70.65 20.85 70.55"/><path fill="#fcf3d8" fill-opacity="0.301960784314" d="M30.45 71.5 L30.45 71.15 Q30.5 70.95 30.75 70.95 L31.2 71.0 31.55 71.25 31.6 71.65 31.3 71.85 30.85 71.85 Q30.6 71.75 30.45 71.5 M29.8 70.95 Q29.65 71.3 29.85 71.7 L30.6 72.3 31.2 72.45 32.15 73.25 Q31.7 72.55 31.9 72.25 L32.15 71.95 Q32.35 71.6 32.1 71.2 31.85 70.85 31.4 70.65 L31.35 70.6 31.25 70.2 31.0 70.55 30.4 70.5 29.95 70.75 28.95 70.45 29.8 70.95"/><path fill="#fcf3d8" stroke="none" d="M30.45 71.5 Q30.6 71.75 30.85 71.85 L31.3 71.85 31.6 71.65 31.55 71.25 31.2 71.0 30.75 70.95 Q30.5 70.95 30.45 71.15 L30.45 71.5"/><path fill="#fcf3d8" fill-opacity="0.301960784314" d="M25.4 66.45 Q25.6 66.45 25.75 66.65 L25.9 66.95 25.75 67.35 25.4 67.5 25.05 67.35 24.9 67.0 25.05 66.6 25.4 66.45 M26.1 66.3 L26.2 65.9 25.85 66.15 25.35 66.0 24.85 66.15 24.2 65.65 24.65 66.3 Q24.35 66.6 24.35 67.05 24.3 67.45 24.6 67.75 L25.05 68.0 25.45 68.95 Q25.45 68.25 25.7 68.0 L26.1 67.75 26.4 67.05 26.1 66.35 26.1 66.3"/><path fill="#fcf3d8" stroke="none" d="M25.4 66.45 L25.05 66.6 24.9 67.0 25.05 67.35 25.4 67.5 25.75 67.35 25.9 66.95 25.75 66.65 Q25.6 66.45 25.4 66.45"/><path fill="#959f49" stroke="none" d="M19.45 65.2 L19.7 65.4 Q20.4 65.35 19.95 64.75 L19.85 65.05 19.45 65.2 M19.35 66.7 L19.45 66.55 19.45 66.35 19.25 66.35 19.1 66.45 19.0 66.6 19.05 66.8 19.15 66.8 19.35 66.7 M19.45 65.95 L19.4 66.0 19.4 66.1 19.6 66.0 19.65 65.9 19.6 65.9 19.5 65.9 19.45 65.95 M20.1 66.25 L20.05 66.2 19.9 66.2 19.85 66.25 19.7 66.45 19.95 66.4 20.1 66.25 M20.7 66.15 L20.45 66.55 20.45 66.75 20.75 66.65 21.15 66.35 21.4 65.95 21.2 65.95 20.95 65.95 20.7 66.15 M19.95 66.8 L19.75 66.9 19.4 67.1 Q19.15 67.3 19.25 67.4 L19.45 67.45 19.8 67.25 19.95 66.85 19.95 66.8 M23.55 66.35 L23.55 66.2 23.25 66.05 23.05 66.15 Q22.85 66.35 23.05 66.55 L23.25 66.6 23.5 66.5 23.55 66.35 M23.9 66.2 L23.8 66.2 23.75 66.2 23.75 66.35 23.9 66.35 23.9 66.2 M23.95 66.7 L23.8 66.65 23.75 66.7 23.65 66.75 23.7 67.0 23.8 67.05 23.95 67.0 23.95 66.7"/><path fill="#d9e43b" stroke="none" d="M19.95 64.75 Q20.4 65.35 19.7 65.4 L19.45 65.2 18.7 66.4 18.65 66.65 18.6 66.7 18.6 66.75 18.6 66.8 18.6 66.95 18.7 67.4 18.8 67.45 18.8 67.5 18.9 67.6 Q19.25 67.8 19.9 67.6 L20.45 67.35 21.3 66.7 22.15 65.65 22.3 65.3 22.4 64.7 21.3 64.85 22.3 64.3 22.25 64.25 22.25 64.2 22.2 64.2 21.35 64.05 21.2 64.1 21.15 64.1 Q20.55 64.25 19.95 64.75 M20.7 66.15 L20.95 65.95 21.2 65.95 21.4 65.95 21.15 66.35 20.75 66.65 20.45 66.75 20.45 66.55 20.7 66.15 M20.1 66.25 L19.95 66.4 19.7 66.45 19.85 66.25 19.9 66.2 20.05 66.2 20.1 66.25 M19.45 65.95 L19.5 65.9 19.6 65.9 19.65 65.9 19.6 66.0 19.4 66.1 19.4 66.0 19.45 65.95 M19.35 66.7 L19.15 66.8 19.05 66.8 19.0 66.6 19.1 66.45 19.25 66.35 19.45 66.35 19.45 66.55 19.35 66.7 M24.1 67.95 L24.2 67.7 24.4 67.3 24.55 66.55 22.55 64.3 Q22.8 64.65 22.6 65.4 L22.4 65.75 22.1 66.2 22.1 66.25 22.3 66.0 24.1 67.95 M19.95 66.8 L19.95 66.85 19.8 67.25 19.45 67.45 19.25 67.4 Q19.15 67.3 19.4 67.1 L19.75 66.9 19.95 66.8 M23.95 66.7 L23.95 67.0 23.8 67.05 23.7 67.0 23.65 66.75 23.75 66.7 23.8 66.65 23.95 66.7 M23.9 66.2 L23.9 66.35 23.75 66.35 23.75 66.2 23.8 66.2 23.9 66.2 M23.55 66.35 L23.5 66.5 23.25 66.6 23.05 66.55 Q22.85 66.35 23.05 66.15 L23.25 66.05 23.55 66.2 23.55 66.35"/><path fill="#e6c497" stroke="none" d="M18.6 66.95 L18.6 66.8 18.55 66.95 18.6 66.95"/><path fill="#7f8340" stroke="none" d="M21.35 64.05 L22.2 64.2 22.25 64.2 22.25 64.25 22.3 64.3 21.3 64.85 22.4 64.7 22.3 65.3 22.15 65.65 21.3 66.7 20.45 67.35 19.9 67.6 Q19.25 67.8 18.9 67.6 L18.8 67.5 18.8 67.45 18.7 67.4 18.6 66.95 18.55 66.95 18.55 67.15 18.7 67.65 18.75 67.7 18.8 67.75 18.9 67.85 Q19.25 68.05 19.95 67.85 L20.55 67.6 21.5 66.9 22.1 66.2 22.4 65.75 22.6 65.4 Q22.8 64.65 22.55 64.3 L22.55 64.25 22.5 64.2 22.5 64.15 22.45 64.15 21.35 64.05"/><path fill="#7e823f" stroke="none" d="M18.9 67.85 L20.15 68.95 20.8 69.65 20.8 69.5 20.85 69.45 20.9 69.4 21.35 69.2 21.55 69.3 Q21.75 69.5 21.55 69.7 L21.2 69.8 20.9 69.75 21.0 69.9 21.75 69.8 22.4 69.55 22.6 69.45 20.55 67.6 19.95 67.85 Q19.25 68.05 18.9 67.85 M20.35 68.15 L20.4 68.1 20.5 68.2 20.5 68.35 20.25 68.35 20.35 68.15 M20.55 68.7 L20.6 68.8 20.65 68.9 20.6 69.0 20.2 68.85 19.95 68.6 19.9 68.4 20.1 68.4 20.35 68.5 20.5 68.65 20.55 68.7 M20.75 68.4 L20.85 68.3 20.95 68.2 21.0 68.25 21.1 68.2 21.2 68.2 21.25 68.3 21.1 68.5 20.9 68.6 20.75 68.55 20.75 68.4 M21.05 68.85 L21.2 68.85 21.25 68.9 21.2 69.0 21.1 69.05 21.0 69.0 21.0 68.95 21.0 68.9 21.0 68.85 21.05 68.85"/><path fill="#615b36" stroke="none" d="M20.8 69.65 L20.85 69.7 20.9 69.75 21.2 69.8 21.55 69.7 Q21.75 69.5 21.55 69.3 L21.35 69.2 20.9 69.4 20.85 69.45 20.8 69.5 20.8 69.65 M20.75 68.4 L20.75 68.55 20.9 68.6 21.1 68.5 21.25 68.3 21.2 68.2 21.1 68.2 21.0 68.25 20.95 68.2 20.85 68.3 20.75 68.4 M20.55 68.7 L20.5 68.65 20.35 68.5 20.1 68.4 19.9 68.4 19.95 68.6 20.2 68.85 20.6 69.0 20.65 68.9 20.6 68.8 20.55 68.7 M20.35 68.15 L20.25 68.35 20.5 68.35 20.5 68.2 20.4 68.1 20.35 68.15 M21.05 68.85 L21.0 68.85 21.0 68.9 21.0 68.95 21.0 69.0 21.1 69.05 21.2 69.0 21.25 68.9 21.2 68.85 21.05 68.85"/><path fill="#abbd52" stroke="none" d="M22.6 69.45 L23.35 68.8 24.0 68.05 24.1 67.95 22.3 66.0 22.1 66.25 22.1 66.2 21.5 66.9 20.55 67.6 22.6 69.45"/><path fill="none" stroke="#000000" stroke-width="0.5" stroke-opacity="0.301960784314" d="M19.45 65.2 L19.85 65.05 19.95 64.75 Q20.55 64.25 21.15 64.1 L21.2 64.1 21.35 64.05 M18.6 66.8 L18.6 66.75 18.6 66.7 18.65 66.65 18.7 66.4 19.45 65.2 M18.55 66.95 L18.6 66.8 M18.9 67.85 L18.8 67.75 18.75 67.7 18.7 67.65 18.55 67.15 18.55 66.95 M18.9 67.85 L20.15 68.95 20.8 69.65 M20.9 69.75 L21.0 69.9 M24.55 66.55 L22.55 64.3 22.55 64.25 22.5 64.2 22.5 64.15 22.45 64.15 21.35 64.05"/></g><g id="c11"><g><use transform="matrix(1.0,0.0,0.0,1.0,0.0,0.0)" xlink:href="#c5"/></g></g><g id="c12"><path fill="#000000" fill-opacity="0.2" d="M28.3 72.05 Q27.0 72.95 26.65 74.5 26.3 76.25 27.35 77.85 28.4 79.4 30.35 79.9 L33.45 79.7 33.8 79.5 Q35.15 78.7 35.65 77.35 L35.8 76.8 Q36.05 75.6 35.65 74.8 L34.9 74.5 35.55 74.5 35.1 73.5 Q34.05 71.9 32.15 71.4 30.25 70.95 28.65 71.85 L28.3 72.05"/><path fill="#f9f7f4" stroke="none" d="M35.85 77.1 L36.0 76.5 Q36.2 75.6 35.95 74.75 L35.05 74.6 35.75 74.05 35.3 73.2 Q34.4 71.9 33.05 71.35 L32.5 71.5 31.3 70.95 31.3 71.45 30.65 71.0 Q29.7 71.05 28.8 71.55 L28.5 71.75 Q29.0 73.65 30.5 75.3 32.85 78.05 35.85 77.1"/><path fill="#ece7df" stroke="none" d="M28.5 71.75 Q27.15 72.65 26.8 74.2 26.45 75.95 27.5 77.55 28.6 79.1 30.5 79.6 L33.6 79.4 34.0 79.2 Q35.35 78.45 35.85 77.1 32.85 78.05 30.5 75.3 29.0 73.65 28.5 71.75"/><path fill="none" stroke="#000000" stroke-width="0.5" stroke-opacity="0.101960784314" d="M35.85 77.1 L36.0 76.5 Q36.2 75.6 35.95 74.75 L35.05 74.6 35.75 74.05 35.3 73.2 Q34.4 71.9 33.05 71.35 L32.5 71.5 31.3 70.95 31.3 71.45 30.65 71.0 Q29.7 71.05 28.8 71.55 L28.5 71.75 Q27.15 72.65 26.8 74.2 26.45 75.95 27.5 77.55 28.6 79.1 30.5 79.6 L33.6 79.4 34.0 79.2 Q35.35 78.45 35.85 77.1"/><path fill="#6a7112" stroke="none" d="M32.05 78.9 L32.3 79.0 Q32.1 78.4 32.4 77.85 32.75 77.15 33.75 76.5 L33.4 76.6 32.3 77.35 Q31.35 78.25 32.05 78.9"/><path fill="#cfce49" stroke="none" d="M32.05 78.9 Q31.35 78.25 32.3 77.35 32.2 77.3 32.15 77.45 L31.75 77.85 Q31.6 78.15 31.75 78.6 L32.05 78.9"/><path fill="#a2a12b" stroke="none" d="M32.3 77.35 L33.4 76.6 31.85 77.3 Q30.7 78.25 31.75 78.6 31.6 78.15 31.75 77.85 L32.15 77.45 Q32.2 77.3 32.3 77.35"/><path fill="none" stroke="#000000" stroke-width="0.5" stroke-opacity="0.301960784314" d="M33.4 76.6 L33.75 76.5 Q32.75 77.15 32.4 77.85 32.1 78.4 32.3 79.0 L32.05 78.9 M33.4 76.6 L31.85 77.3 Q30.7 78.25 31.75 78.6 L32.05 78.9"/><path fill="#494914" stroke="none" d="M29.75 76.2 L29.75 75.95 29.8 75.85 30.25 75.35 29.95 75.15 29.65 75.5 29.5 75.7 29.45 75.95 29.45 76.25 29.55 76.25 29.65 76.25 29.7 76.25 29.75 76.2 M34.7 76.65 L34.7 76.6 34.55 76.7 34.65 76.95 34.7 76.65"/><path fill="#858517" stroke="none" d="M29.65 76.25 L29.55 76.25 29.65 76.5 Q29.7 76.8 30.05 77.1 L32.05 76.9 30.75 77.1 30.6 77.1 30.35 77.05 30.25 76.95 Q29.85 76.8 29.65 76.25"/><path fill="#6a7112" stroke="none" d="M29.75 76.2 L29.7 76.25 29.65 76.25 Q29.85 76.8 30.25 76.95 L30.35 77.05 30.6 77.1 30.75 77.1 31.65 76.9 Q32.25 76.5 33.15 76.4 L34.5 76.6 34.7 76.5 33.0 76.15 32.35 76.3 32.0 76.45 Q31.85 76.45 31.15 76.8 30.5 77.15 29.9 76.5 L29.75 76.2"/><path fill="#5d601b" stroke="none" d="M32.05 76.9 L32.2 76.85 32.6 76.7 32.85 76.65 32.95 76.65 Q33.95 76.6 34.65 77.05 34.35 76.8 34.5 76.6 L33.15 76.4 Q32.25 76.5 31.65 76.9 L30.75 77.1 32.05 76.9"/><path fill="#99982b" stroke="none" d="M34.65 77.05 Q34.95 76.85 34.75 76.55 L34.7 76.5 34.5 76.6 Q34.35 76.8 34.65 77.05 M34.7 76.65 L34.65 76.95 34.55 76.7 34.7 76.6 34.7 76.65"/><path fill="#a2a12b" stroke="none" d="M29.55 76.25 L29.45 76.25 29.65 76.8 30.05 77.1 Q29.7 76.8 29.65 76.5 L29.55 76.25"/><path fill="none" stroke="#000000" stroke-width="0.5" stroke-opacity="0.301960784314" d="M29.45 76.25 L29.45 75.95 29.5 75.7 29.65 75.5 29.95 75.15 30.25 75.35 29.8 75.85 29.75 75.95 29.75 76.2 M29.45 76.25 L29.65 76.8 30.05 77.1 32.05 76.9 32.2 76.85 32.6 76.7 32.85 76.65 32.95 76.65 Q33.95 76.6 34.65 77.05 34.95 76.85 34.75 76.55 L34.7 76.5 33.0 76.15 32.35 76.3 32.0 76.45 Q31.85 76.45 31.15 76.8 30.5 77.15 29.9 76.5 L29.75 76.2"/><path fill="#a2a12b" stroke="none" d="M29.35 74.95 Q28.95 75.15 28.75 75.8 L28.85 75.85 29.35 75.8 29.65 75.4 29.35 74.95"/><path fill="#6a7112" stroke="none" d="M28.85 75.85 L29.85 75.95 Q30.35 75.15 29.6 74.8 L29.35 74.95 29.65 75.4 29.35 75.8 28.85 75.85"/><path fill="none" stroke="#000000" stroke-width="0.5" stroke-opacity="0.301960784314" d="M29.35 74.95 Q28.95 75.15 28.75 75.8 L28.85 75.85 29.85 75.95 Q30.35 75.15 29.6 74.8 L29.35 74.95"/><path fill="#a2a12b" stroke="none" d="M29.35 74.3 L28.3 73.9 28.35 73.9 28.75 74.4 Q29.05 74.55 29.2 74.65 L29.35 74.3"/><path fill="#6a7112" stroke="none" d="M28.35 73.9 Q28.45 74.3 29.1 74.95 30.0 75.3 29.55 74.5 L29.35 74.3 29.2 74.65 Q29.05 74.55 28.75 74.4 L28.35 73.9"/><path fill="none" stroke="#000000" stroke-width="0.5" stroke-opacity="0.301960784314" d="M29.35 74.3 L28.3 73.9 28.35 73.9 Q28.45 74.3 29.1 74.95 30.0 75.3 29.55 74.5 L29.35 74.3"/><path fill="#a2a12b" stroke="none" d="M29.8 76.0 L30.2 76.45 30.25 76.45 30.3 76.05 30.1 75.85 29.8 76.0"/><path fill="#6a7112" stroke="none" d="M30.25 76.45 L30.4 75.65 Q30.1 75.3 29.85 75.8 L29.8 76.0 30.1 75.85 30.3 76.05 30.25 76.45"/><path fill="none" stroke="#000000" stroke-width="0.5" stroke-opacity="0.301960784314" d="M29.8 76.0 L30.2 76.45 30.25 76.45 30.4 75.65 Q30.1 75.3 29.85 75.8 L29.8 76.0"/><path fill="#a2a12b" stroke="none" d="M29.9 74.1 L29.45 73.4 29.45 73.5 29.45 74.05 29.6 74.3 29.9 74.1"/><path fill="#6a7112" stroke="none" d="M29.45 73.5 L29.35 74.5 Q29.75 75.05 29.95 74.3 L29.9 74.1 29.6 74.3 29.45 74.05 29.45 73.5"/><path fill="none" stroke="#000000" stroke-width="0.5" stroke-opacity="0.301960784314" d="M29.9 74.1 L29.45 73.4 29.45 73.5 29.35 74.5 Q29.75 75.05 29.95 74.3 L29.9 74.1"/><path fill="#61760a" stroke="none" d="M29.9 73.65 L29.95 73.75 29.95 73.9 Q29.45 74.3 29.4 74.85 L29.4 75.1 29.4 75.25 Q29.2 74.75 29.4 74.25 L29.9 73.65"/><path fill="#ccef3a" stroke="none" d="M29.95 73.9 L29.95 73.75 29.9 73.65 29.85 73.55 29.8 73.45 Q29.6 72.9 29.0 72.7 29.65 72.25 30.4 72.45 L30.5 72.45 Q30.8 72.5 31.0 72.7 L31.9 73.2 32.2 73.2 Q33.05 73.25 33.6 73.9 L33.85 74.7 33.75 74.7 33.3 74.35 Q32.75 74.0 32.15 74.0 31.95 73.9 32.05 73.85 L32.95 73.8 31.9 73.6 31.55 73.5 31.4 73.3 30.7 72.7 30.6 73.0 Q30.25 72.7 29.6 72.65 30.2 72.8 30.35 73.05 L30.4 73.05 30.4 73.15 30.5 73.3 30.45 73.35 30.35 73.55 30.1 73.55 30.1 73.8 29.95 74.15 29.85 74.45 29.8 74.6 29.55 74.75 29.7 74.55 29.95 73.9 M31.15 72.05 L31.05 71.7 31.0 71.6 Q31.85 71.95 32.15 72.8 L32.2 72.9 31.5 72.95 31.15 72.05 M32.05 75.35 L31.7 76.05 31.55 76.15 31.5 76.05 31.5 75.8 31.5 75.75 Q31.35 74.75 30.6 74.55 31.0 74.5 31.6 74.8 L31.9 74.75 31.95 74.75 32.2 74.85 32.1 75.2 32.05 75.35"/><path fill="#8dad0e" stroke="none" d="M29.4 75.1 L29.4 74.85 Q29.45 74.3 29.95 73.9 L29.7 74.55 29.55 74.75 29.8 74.6 29.85 74.45 29.95 74.15 30.1 73.8 30.1 73.55 30.35 73.55 30.45 73.35 30.5 73.3 30.4 73.15 30.4 73.05 30.75 73.3 30.6 73.0 30.7 72.7 31.4 73.3 31.2 73.25 30.8 73.3 30.8 73.35 30.75 73.35 30.6 73.55 30.6 73.6 30.55 73.65 30.6 73.7 Q30.6 74.0 31.15 74.4 31.45 74.6 31.7 74.6 L31.8 74.55 31.95 74.5 32.05 74.4 32.1 74.1 32.15 74.0 Q32.75 74.0 33.3 74.35 L33.75 74.7 33.3 74.6 32.9 74.65 32.35 74.8 32.2 74.85 32.35 74.8 32.9 74.65 33.05 74.75 32.4 74.95 Q33.0 75.3 33.0 76.0 L32.05 75.35 32.1 75.2 32.2 74.85 31.95 74.75 31.9 74.75 31.6 74.8 Q31.0 74.5 30.6 74.55 L29.9 74.7 29.5 74.85 29.4 75.1 M32.2 73.2 L31.9 73.2 31.0 72.7 31.15 72.05 31.5 72.95 32.2 72.9 32.2 73.2 M31.45 75.85 L31.1 76.05 Q30.6 76.3 30.05 76.05 L29.7 75.8 Q30.65 76.35 31.45 75.8 L31.45 75.85"/><path fill="#bbe412" stroke="none" d="M29.9 73.65 L29.4 74.25 Q29.2 74.75 29.4 75.25 L29.4 75.4 29.4 75.55 29.3 75.3 Q29.1 74.8 29.3 74.25 29.5 73.8 29.85 73.55 L29.9 73.65 M30.4 73.05 L30.35 73.05 Q30.2 72.8 29.6 72.65 30.25 72.7 30.6 73.0 L30.75 73.3 30.4 73.05 M31.9 73.6 L32.95 73.8 32.05 73.85 31.75 73.8 31.8 73.8 31.9 73.6 M33.05 74.75 L33.15 74.95 Q33.35 75.55 33.05 76.1 L33.0 76.05 33.0 76.0 Q33.0 75.3 32.4 74.95 L33.05 74.75"/><path fill="#4e5f07" stroke="none" d="M29.4 75.25 L29.4 75.1 29.5 74.85 29.9 74.7 30.6 74.55 Q31.35 74.75 31.5 75.75 L31.5 75.8 31.5 76.05 31.45 75.85 31.45 75.8 Q30.65 76.35 29.7 75.8 L29.45 75.55 29.4 75.55 29.4 75.4 29.4 75.25 M31.4 73.3 L31.55 73.5 31.9 73.6 31.8 73.8 31.75 73.8 32.05 73.85 Q31.95 73.9 32.15 74.0 L32.1 74.1 32.05 74.4 31.95 74.5 31.8 74.55 31.8 74.35 31.85 74.25 31.75 74.05 31.3 73.6 30.9 73.55 30.85 73.55 30.65 73.6 30.55 73.65 30.6 73.6 30.6 73.55 30.75 73.35 30.8 73.35 30.8 73.3 31.2 73.25 31.4 73.3 M30.7 75.35 L31.05 75.4 31.45 75.8 31.05 75.4 30.7 75.35"/><path fill="#dc0ab3" stroke="none" d="M30.55 73.65 L30.65 73.6 30.85 73.55 30.9 73.55 31.3 73.6 31.75 74.05 31.85 74.25 31.8 74.35 31.8 74.55 31.7 74.6 31.7 74.4 31.65 74.4 31.45 74.45 31.45 74.4 31.7 74.2 31.7 74.15 31.65 74.1 Q31.45 73.65 31.0 73.65 30.75 73.85 31.2 74.25 L31.1 74.2 30.85 73.8 30.8 73.7 30.6 73.7 30.55 73.65"/><path fill="#620450" stroke="none" d="M30.6 73.7 L30.8 73.7 30.85 73.8 31.1 74.2 31.2 74.25 31.45 74.4 31.45 74.45 31.65 74.4 31.7 74.4 31.7 74.6 Q31.45 74.6 31.15 74.4 30.6 74.0 30.6 73.7"/><path fill="#930677" stroke="none" d="M31.2 74.25 Q30.75 73.85 31.0 73.65 31.45 73.65 31.65 74.1 L31.7 74.15 31.7 74.2 31.45 74.4 31.2 74.25"/><path fill="none" stroke="#000000" stroke-width="0.5" stroke-opacity="0.301960784314" d="M29.95 73.9 L29.95 73.75 29.9 73.65 M29.95 73.9 L29.7 74.55 M33.75 74.7 L33.85 74.7 33.6 73.9 Q33.05 73.25 32.2 73.2 L31.9 73.2 31.0 72.7 Q30.8 72.5 30.5 72.45 L30.4 72.45 Q29.65 72.25 29.0 72.7 29.6 72.9 29.8 73.45 L29.85 73.55 29.9 73.65 M31.0 72.7 L31.15 72.05 31.05 71.7 31.0 71.6 Q31.85 71.95 32.15 72.8 L32.2 72.9 32.2 73.2 M30.8 73.3 L30.8 73.35 30.75 73.35 30.6 73.55 30.6 73.6 30.55 73.65 30.65 73.6 30.85 73.55 30.9 73.55 31.3 73.6 31.75 74.05 31.85 74.25 31.8 74.35 31.8 74.55 31.95 74.5 32.05 74.4 M31.7 74.6 L31.8 74.55 M30.55 73.65 L30.6 73.7 Q30.6 74.0 31.15 74.4 31.45 74.6 31.7 74.6 M33.0 76.0 L33.0 76.05 33.05 76.1 Q33.35 75.55 33.15 74.95 L33.05 74.75 32.9 74.65 33.3 74.6 33.75 74.7 M33.0 76.0 L32.05 75.35 31.7 76.05 31.55 76.15 31.5 76.05 31.45 75.85 31.1 76.05 Q30.6 76.3 30.05 76.05 L29.7 75.8 29.45 75.55 M29.4 75.55 L29.3 75.3 Q29.1 74.8 29.3 74.25 29.5 73.8 29.85 73.55 M32.9 74.65 L32.35 74.8 32.2 74.85 32.1 75.2 32.05 75.35 M31.45 75.8 L31.05 75.4 30.7 75.35 M31.45 75.85 L31.45 75.8"/><path fill="#dc0ab3" stroke="none" d="M31.05 73.75 L31.15 73.85 31.3 73.9 31.4 73.85 31.35 73.75 31.25 73.65 31.15 73.65 31.05 73.7 31.05 73.75"/></g><g id="c13"><g><use transform="matrix(1.0,0.0,0.0,1.0,6.3,53.35)" xlink:href="#c9"/></g><g><use transform="matrix(1.0,0.0,0.0,1.0,0.0,0.0)" xlink:href="#c10"/></g><g><use transform="matrix(-0.0628509521484,-0.0366363525391,0.0,0.0628509521484,31.6,73.95)" xlink:href="#c11"/></g><g><use transform="matrix(1.0,0.0,0.0,1.0,0.0,0.0)" xlink:href="#c12"/></g><g><use transform="matrix(-0.00515747070312,0.0137939453125,0.0118103027344,0.00459289550781,30.15,74.55)" filter="url(#filter14)" xlink:href="#c11"/></g><g><use transform="matrix(-0.00349426269531,0.00933837890625,0.0213623046875,0.00833129882812,31.4,73.5)" filter="url(#filter15)" xlink:href="#c11"/></g><g><use transform="matrix(0.00407409667969,0.00296020507812,0.00627136230469,-0.00862121582031,31.95,77.8)" filter="url(#filter16)" xlink:href="#c11"/></g><g><use transform="matrix(0.000244140625,0.00155639648438,0.00836181640625,-0.00117492675781,32.65,76.3)" filter="url(#filter17)" xlink:href="#c11"/></g><g><use transform="matrix(0.141098022461,-0.0378112792969,0.111373901367,0.225646972656,27.2,74.05)" filter="url(#filter18)" xlink:href="#c6"/></g></g><filter id="filter14"><feColorMatrix in="SourceGraphic" type="matrix" values="0.0 0.0 0.0 0.0 0.99609375 0.0 0.0 0.0 0.0 0.19921875 0.0 0.0 0.0 0.0 0.59765625 0.0 0.0 0.0 0.12890625 0.0" result="cxform"/><feComposite operator="in" in2="SourceGraphic" result="color-xform"/></filter><filter id="filter15"><feColorMatrix in="SourceGraphic" type="matrix" values="0.0 0.0 0.0 0.0 0.99609375 0.0 0.0 0.0 0.0 0.19921875 0.0 0.0 0.0 0.0 0.59765625 0.0 0.0 0.0 0.12890625 0.0" result="cxform"/><feComposite operator="in" in2="SourceGraphic" result="color-xform"/></filter><filter id="filter16"><feColorMatrix in="SourceGraphic" type="matrix" values="0.0 0.0 0.0 0.0 0.99609375 0.0 0.0 0.0 0.0 0.19921875 0.0 0.0 0.0 0.0 0.59765625 0.0 0.0 0.0 0.12890625 0.0" result="cxform"/><feComposite operator="in" in2="SourceGraphic" result="color-xform"/></filter><filter id="filter17"><feColorMatrix in="SourceGraphic" type="matrix" values="0.0 0.0 0.0 0.0 0.99609375 0.0 0.0 0.0 0.0 0.99609375 0.0 0.0 0.0 0.0 0.0 0.0 0.0 0.0 0.0703125 0.0" result="cxform"/><feComposite operator="in" in2="SourceGraphic" result="color-xform"/></filter><filter id="filter18"><feColorMatrix in="SourceGraphic" type="matrix" values="1.0 0.0 0.0 0.0 0.0 0.0 1.0 0.0 0.0 0.0 0.0 0.0 1.0 0.0 0.0 0.0 0.0 0.0 0.23046875 0.0" result="cxform"/><feComposite operator="in" in2="SourceGraphic" result="color-xform"/></filter></defs><g><g><use transform="matrix(1.0,0.0,0.0,1.0,0.0,0.0)" xlink:href="#c1"/></g><g><use transform="matrix(1.15496826172,0.0,0.0,1.15496826172,-1.55,-56.9)" xlink:href="#c13"/></g></g></svg>