<?xml version='1.0' encoding='UTF-8'?>
<svg xmlns:xlink="http://www.w3.org/1999/xlink" xmlns="http://www.w3.org/2000/svg" version="1.1" width="60px" height="60px" viewBox="0.0 0.0 60.0 60.0"><defs><g id="c1"><path fill="#000000" fill-opacity="0.00392156862745" d="M0.0 0.0 L60.0 0.0 60.0 60.0 0.0 60.0 0.0 0.0"/></g><g id="c2"><path fill="none" stroke="#000000" stroke-width="1.0" stroke-opacity="0.301960784314" d="M0.7 12.25 Q-0.45 9.75 0.75 8.25 1.2 7.6 2.15 7.15 2.8 6.7 3.8 6.35 L17.5 1.95 30.2 7.0 41.35 31.7 Q42.95 35.15 40.2 36.7 39.5 37.3 38.3 37.65 L19.8 43.65 Q17.15 44.45 15.5 43.3 14.35 42.55 13.65 40.9 L0.7 12.25"/><path fill="#9d147b" stroke="none" d="M35.55 22.3 L31.5 13.2 29.75 9.2 16.95 4.25 5.5 7.85 Q1.65 9.1 3.35 12.8 L8.25 23.65 15.0 38.6 15.2 39.0 Q16.8 42.25 20.45 41.1 L37.2 35.7 Q41.1 34.5 39.35 30.75 L35.55 22.3 M2.15 7.15 Q2.8 6.7 3.8 6.35 L17.5 1.95 30.2 7.0 41.35 31.7 Q42.95 35.15 40.2 36.7 L38.9 37.25 23.2 42.3 20.4 43.2 19.1 43.5 17.3 43.4 Q15.3 42.9 14.2 40.5 L5.45 20.95 1.35 11.8 Q0.4 9.65 1.1 8.3 1.45 7.65 2.15 7.15"/><path fill="#c47fad" stroke="none" d="M31.5 13.2 L35.55 22.3 39.35 30.75 Q41.1 34.5 37.2 35.7 L20.45 41.1 Q16.8 42.25 15.2 39.0 L15.0 38.6 8.25 23.65 3.35 12.8 Q1.65 9.1 5.5 7.85 L16.95 4.25 29.75 9.2 31.5 13.2 M18.5 7.45 L9.1 10.55 9.55 11.6 Q9.8 12.8 9.15 13.6 8.4 14.45 7.1 14.4 L6.8 14.4 6.95 14.6 16.3 35.2 Q16.8 36.4 17.65 37.0 18.8 37.8 20.65 37.2 L34.0 32.9 33.7 32.1 Q33.45 30.9 34.1 30.1 34.75 29.3 35.95 29.35 L35.8 29.0 27.75 10.95 18.5 7.45"/><path fill="#630a4c" stroke="none" d="M0.75 8.25 Q1.2 7.6 2.15 7.15 1.45 7.65 1.1 8.3 L0.75 8.25 M23.3 42.5 L20.1 43.55 19.1 43.5 20.4 43.2 23.2 42.3 23.3 42.5 M15.5 43.3 Q14.35 42.55 13.65 40.9 L4.6 20.9 5.45 20.95 14.2 40.5 Q15.3 42.9 17.3 43.4 L15.5 43.3"/><path fill="#300525" stroke="none" d="M4.6 20.9 L0.7 12.25 Q-0.45 9.75 0.75 8.25 L1.1 8.3 Q0.4 9.65 1.35 11.8 L5.45 20.95 4.6 20.9 M40.2 36.7 Q39.5 37.3 38.3 37.65 L23.3 42.5 23.2 42.3 38.9 37.25 40.2 36.7 M20.1 43.55 L19.8 43.65 Q17.15 44.45 15.5 43.3 L17.3 43.4 19.1 43.5 20.1 43.55"/><path fill="#fcf2cf" stroke="none" d="M27.75 10.95 L35.8 29.0 35.95 29.35 Q34.75 29.3 34.1 30.1 33.45 30.9 33.7 32.1 L34.0 32.9 20.65 37.2 Q18.8 37.8 17.65 37.0 16.8 36.4 16.3 35.2 L6.95 14.6 6.8 14.4 7.1 14.4 Q8.4 14.45 9.15 13.6 9.8 12.8 9.55 11.6 L9.1 10.55 18.5 7.45 27.75 10.95"/><path fill="none" stroke="#bf9900" stroke-width="1.0" stroke-opacity="0.749019607843" d="M31.5 13.2 L35.55 22.3 M15.0 38.6 L8.25 23.65"/><path fill="none" stroke="#ffcc00" stroke-width="1.0" stroke-opacity="0.749019607843" d="M35.55 22.3 L39.35 30.75 Q41.1 34.5 37.2 35.7 L20.45 41.1 Q16.8 42.25 15.2 39.0 L15.0 38.6 M8.25 23.65 L3.35 12.8 Q1.65 9.1 5.5 7.85 L16.95 4.25 29.75 9.2 31.5 13.2"/><path fill="none" stroke="#000000" stroke-width="0.5" stroke-opacity="0.301960784314" d="M4.6 20.9 L0.7 12.25 Q-0.45 9.75 0.75 8.25 1.2 7.6 2.15 7.15 2.8 6.7 3.8 6.35 L17.5 1.95 M30.2 7.0 L41.35 31.7 Q42.95 35.15 40.2 36.7 39.5 37.3 38.3 37.65 L23.3 42.5 20.1 43.55 19.8 43.65 Q17.15 44.45 15.5 43.3 14.35 42.55 13.65 40.9 L4.6 20.9 M5.45 20.95 L1.35 11.8 Q0.4 9.65 1.1 8.3 1.45 7.65 2.15 7.15 M19.1 43.5 L17.3 43.4 Q15.3 42.9 14.2 40.5 L5.45 20.95 M23.2 42.3 L20.4 43.2 19.1 43.5 M40.2 36.7 L38.9 37.25 23.2 42.3"/><path fill="none" stroke="#f0b92b" stroke-width="0.5" d="M27.75 10.95 L35.8 29.0 35.95 29.35 Q34.75 29.3 34.1 30.1 33.45 30.9 33.7 32.1 L34.0 32.9 20.65 37.2 Q18.8 37.8 17.65 37.0 16.8 36.4 16.3 35.2 L6.95 14.6 6.8 14.4 7.1 14.4 Q8.4 14.45 9.15 13.6 9.8 12.8 9.55 11.6 L9.1 10.55 18.5 7.45"/><path fill="none" stroke="#ffcc00" stroke-width="0.5" stroke-opacity="0.749019607843" d="M18.5 7.45 L27.75 10.95"/></g><g id="c3"><path fill="#7fdbfe" stroke="none" d="M10.75 4.9 Q10.75 4.6 10.9 4.35 11.25 3.45 11.95 2.75 13.3 1.5 14.35 2.1 15.4 2.7 14.95 4.45 14.7 5.4 14.1 6.15 L13.75 6.5 Q13.1 7.15 12.35 7.35 L11.4 7.2 Q10.95 6.9 10.75 6.4 10.5 5.75 10.75 4.9 M7.5 5.9 Q7.0 5.85 6.6 5.5 6.05 5.0 5.8 4.15 L5.7 3.6 Q5.55 2.65 5.8 1.7 6.25 0.0 7.5 0.0 L7.6 0.0 Q8.85 0.0 9.3 1.7 9.55 2.65 9.4 3.6 L9.3 4.15 8.5 5.5 7.6 5.9 7.5 5.9 M4.35 4.9 Q4.6 5.75 4.35 6.4 L3.7 7.2 2.75 7.35 Q2.0 7.15 1.35 6.5 L1.0 6.15 Q0.4 5.4 0.15 4.45 -0.3 2.7 0.75 2.1 1.8 1.5 3.15 2.75 3.85 3.45 4.2 4.35 L4.35 4.9 M5.5 13.7 Q4.45 13.9 3.65 12.95 2.75 12.0 3.2 10.25 3.7 8.5 5.25 7.6 6.4 6.9 7.55 7.0 8.75 6.9 9.9 7.6 11.45 8.5 11.95 10.25 12.35 12.0 11.5 12.95 10.7 13.9 9.65 13.7 8.55 13.5 7.55 12.6 6.55 13.5 5.5 13.7"/></g><g id="c4"><g><use transform="matrix(1.0,0.0,0.0,1.0,0.0,0.0)" xlink:href="#c3"/></g></g><radialGradient gradientUnits="userSpaceOnUse" r="819.2" cx="0" cy="0" spreadMethod="pad" gradientTransform="matrix(0.0914459228516,0.0,0.0,0.0914459228516,0.6,3.4)" id="gradient1"><stop offset="0.0" stop-color="#ffffff"/><stop offset="1.0" stop-color="#ffffff" stop-opacity="0.0"/></radialGradient><g id="c5"><path stroke="none" fill="url(#gradient1)" d="M36.65 -54.65 Q60.05 -42.0 69.75 -17.95 80.55 8.9 68.0 34.1 55.45 59.35 26.8 68.2 -1.8 77.05 -29.7 64.3 -57.6 51.6 -68.45 24.75 -79.3 -2.05 -66.75 -27.25 L-66.7 -27.3 Q-54.1 -52.5 -25.5 -61.4 3.1 -70.2 31.0 -57.5 L36.65 -54.65"/></g><g id="c6"><g><use transform="matrix(1.0,0.0,0.0,1.0,0.0,0.0)" xlink:href="#c5"/></g></g><radialGradient gradientUnits="userSpaceOnUse" r="819.2" cx="0" cy="0" spreadMethod="pad" gradientTransform="matrix(0.209197998047,0.0,0.0,0.177108764648,67.15,107.2)" id="gradient2"><stop offset="0.356862745098" stop-color="#ffffff"/><stop offset="0.670588235294" stop-opacity="0.0"/></radialGradient><g id="c7"><path fill="none" stroke-linejoin="round" stroke-linecap="round" stroke="url(#gradient2)" stroke-width="0.5" d="M136.55 165.8 L68.6 106.0 68.4 106.0 118.25 201.5 M68.3 105.8 L68.35 105.8 68.3 105.8 68.3 105.85 68.4 106.0 68.3 106.0 86.55 211.5 M68.3 105.8 L68.3 105.85 68.3 106.0 68.15 105.95 18.25 151.55 M68.3 105.85 L68.25 105.85 68.3 106.0 50.0 193.2 M68.25 105.85 L68.15 105.95 0.05 97.7 M68.3 105.85 L68.25 105.8 68.25 105.85 M68.25 105.8 L68.2 105.7 0.0 45.7 M68.3 105.8 L68.25 105.75 68.25 105.8 M68.25 105.75 L68.2 105.7 18.25 10.05 M68.6 106.0 L68.35 105.8 118.25 60.15 M86.6 18.35 L68.3 105.8 M136.6 114.25 L68.6 106.0 M68.25 105.75 L49.95 0.05"/></g><g id="c8"><g><use transform="matrix(1.0,0.0,0.0,1.0,0.0,0.0)" xlink:href="#c7"/></g></g><g id="c9"><g><use transform="matrix(1.0,0.0,0.0,1.0,0.0,0.0)" xlink:href="#c2"/></g><g><use transform="matrix(0.238861083984,-0.0867004394531,0.10026550293,0.233917236328,34.25,31.15)" xlink:href="#c4"/></g><g><use transform="matrix(0.238861083984,-0.0867004394531,0.10026550293,0.233917236328,4.25,10.3)" xlink:href="#c4"/></g><g><use transform="matrix(0.141098022461,-0.0378112792969,0.111373901367,0.225646972656,20.25,20.65)" filter="url(#filter7)" xlink:href="#c6"/></g><g><use transform="matrix(-0.155029296875,0.0513153076172,0.0841827392578,0.147033691406,22.6,3.15)" filter="url(#filter8)" xlink:href="#c8"/></g></g><filter id="filter7"><feColorMatrix in="SourceGraphic" type="matrix" values="0.0 0.0 0.0 0.0 0.796875 0.0 0.0 0.0 0.0 0.59765625 0.0 0.0 0.0 0.0 0.19921875 0.0 0.0 0.0 1.0 0.0" result="cxform"/><feComposite operator="in" in2="SourceGraphic" result="color-xform"/></filter><filter id="filter8"><feColorMatrix in="SourceGraphic" type="matrix" values="0.0 0.0 0.0 0.0 0.99609375 0.0 0.0 0.0 0.0 0.99609375 0.0 0.0 0.0 0.0 0.99609375 0.0 0.0 0.0 1.0 0.0" result="cxform"/><feComposite operator="in" in2="SourceGraphic" result="color-xform"/></filter><g id="c10"><path fill="#d1d1d1" stroke="none" d="M30.8 70.0 L30.65 69.95 31.55 72.25 Q32.65 74.25 34.0 75.4 L34.9 73.7 Q32.55 72.5 30.8 70.0"/><path fill="#ffffff" stroke="none" d="M34.9 73.7 L35.3 73.1 Q33.45 70.95 30.8 70.0 32.55 72.5 34.9 73.7"/><path fill="none" stroke="#000000" stroke-width="0.5" stroke-opacity="0.152941176471" d="M30.65 69.95 L31.55 72.25 Q32.65 74.25 34.0 75.4 M35.3 73.1 Q33.45 70.95 30.8 70.0"/><path fill="#ffffff" stroke="none" d="M33.05 65.7 L33.15 66.9 Q33.4 69.65 35.2 74.55 35.6 75.7 35.3 76.1 34.8 76.65 34.25 75.95 L34.8 75.85 Q35.1 75.65 34.95 75.2 L34.55 74.6 34.4 74.55 Q33.75 74.2 33.55 74.85 33.35 75.3 33.8 76.1 34.25 77.0 34.95 77.3 35.5 77.6 35.9 77.3 L36.45 76.4 36.55 75.55 36.55 75.35 36.2 72.25 Q35.3 68.5 33.05 65.7 L33.05 65.65 33.05 65.7"/><path fill="#ebebeb" stroke="none" d="M34.8 75.85 L34.25 75.95 Q34.8 76.65 35.3 76.1 35.6 75.7 35.2 74.55 33.4 69.65 33.15 66.9 L33.05 65.7 33.1 68.85 Q33.35 72.3 34.4 74.55 L34.55 74.6 34.95 75.2 Q35.1 75.65 34.8 75.85"/><path fill="none" stroke="#000000" stroke-width="0.5" stroke-opacity="0.152941176471" d="M33.05 65.7 Q35.3 68.5 36.2 72.25 L36.55 75.35 36.55 75.55 36.45 76.4 35.9 77.3 Q35.5 77.6 34.95 77.3 34.25 77.0 33.8 76.1 33.35 75.3 33.55 74.85 33.75 74.2 34.4 74.55 L34.55 74.6 34.95 75.2 Q35.1 75.65 34.8 75.85 M33.05 65.7 L33.05 65.65 33.05 65.7 M34.4 74.55 Q33.35 72.3 33.1 68.85 L33.05 65.7"/></g><linearGradient gradientUnits="userSpaceOnUse" x1="-819.2" x2="819.2" spreadMethod="pad" gradientTransform="matrix(0.0945434570312,0.0,0.0,0.0838928222656,100.8,222.75)" id="gradient3"><stop offset="0.0" stop-color="#3a4a4f"/><stop offset="1.0" stop-color="#d9dedb"/></linearGradient><linearGradient gradientUnits="userSpaceOnUse" x1="-819.2" x2="819.2" spreadMethod="pad" gradientTransform="matrix(-0.122100830078,-0.0544891357422,0.0411987304688,-0.0923614501953,117.25,153.7)" id="gradient4"><stop offset="0.0" stop-color="#5c7a0e"/><stop offset="1.0" stop-color="#86c40b"/></linearGradient><linearGradient gradientUnits="userSpaceOnUse" x1="-819.2" x2="819.2" spreadMethod="pad" gradientTransform="matrix(-0.122100830078,-0.0544891357422,0.0411987304688,-0.0923614501953,117.25,153.7)" id="gradient5"><stop offset="0.0" stop-color="#66ccff"/><stop offset="0.878431372549" stop-color="#ffffff"/></linearGradient><g id="c11"><path stroke="none" fill="url(#gradient3)" d="M122.3 237.75 L164.0 241.05 117.3 238.75 122.3 237.75"/><path fill="#bbc3cb" stroke="none" d="M145.2 289.2 L144.55 289.35 141.15 290.0 145.1 289.05 144.55 289.35 145.1 289.05 145.2 289.2"/><path stroke="none" fill="url(#gradient4)" d="M212.25 107.05 L213.65 108.75 213.35 109.15 212.0 107.1 212.25 107.05 212.0 107.1 210.95 105.6 212.25 107.05 M147.2 166.15 L147.65 166.7 147.2 166.4 147.2 166.15"/><path fill="#47660a" stroke="none" d="M141.15 290.0 L139.7 290.25 140.8 289.55 141.15 290.0 M160.6 185.8 L162.25 188.85 160.4 185.95 160.6 185.8 M197.55 263.7 L197.1 263.9 197.5 263.55 197.55 263.7"/><path fill="#5e870d" stroke="none" d="M86.55 280.35 L90.05 281.55 86.3 280.7 86.55 280.35"/><path fill="#648f0e" stroke="none" d="M86.55 280.35 L86.3 280.7 83.05 279.0 86.55 280.35"/><path fill="#395708" stroke="none" d="M172.95 238.5 L173.1 238.45 172.95 238.6 172.95 238.5"/><path fill="#6fa60d" stroke="none" d="M101.55 63.75 L105.75 63.5 104.65 63.7 101.55 63.75 M130.1 62.45 L134.3 62.3 134.25 62.8 130.1 62.45"/><path fill="#3b5e08" stroke="none" d="M55.35 155.05 L55.5 155.05 55.4 155.25 55.5 155.05 56.25 154.8 74.4 149.05 60.35 154.05 55.5 156.35 55.4 155.25 55.35 155.05 M68.7 196.4 L68.85 196.75 68.65 196.4 68.7 196.4 M112.0 236.7 L122.3 237.75 117.3 238.75 112.0 236.7"/><path fill="#375408" stroke="none" d="M155.9 286.3 L155.05 286.55 155.0 286.55 155.65 285.55 155.9 286.3"/><path fill="#324d07" stroke="none" d="M132.8 291.6 L124.85 292.25 123.25 292.05 132.8 291.6 M55.3 155.1 L55.35 155.05 55.4 155.25 55.3 155.1 M152.55 280.2 L152.6 280.2 150.25 282.45 Q150.75 281.2 152.55 280.2 M173.25 238.95 L172.95 238.6 173.1 238.45 173.25 238.95"/><path fill="#9ae0fe" stroke="none" d="M161.7 117.75 Q172.85 117.8 184.05 120.4 190.35 121.9 196.15 124.2 187.2 130.5 177.65 135.6 157.85 146.25 137.35 155.6 142.0 160.05 146.15 164.9 L146.2 165.0 147.2 166.15 147.2 166.4 147.65 166.7 Q154.95 175.6 160.6 185.8 L160.4 185.95 Q157.4 181.35 153.75 177.2 147.85 170.5 140.85 164.95 L125.35 155.5 104.6 136.15 118.75 131.0 Q132.25 126.3 146.15 122.05 153.9 119.75 161.7 117.75 M146.15 164.9 L145.3 165.4 146.15 164.9"/><path fill="#70d3fe" stroke="none" d="M195.25 85.2 Q200.0 89.15 204.25 93.75 214.9 105.2 222.05 119.15 L230.75 141.25 Q235.65 153.85 237.65 169.65 239.6 185.4 236.0 204.3 232.3 223.2 223.55 237.85 214.75 252.5 200.85 262.5 194.45 267.6 187.6 271.8 174.65 279.9 160.3 284.85 L162.55 281.5 Q167.6 273.3 170.7 264.1 175.55 249.65 174.65 234.5 174.25 227.35 173.0 220.45 170.0 203.95 162.25 188.85 L160.6 185.8 Q154.95 175.6 147.65 166.7 L147.2 166.15 146.2 165.0 146.15 164.9 Q142.0 160.05 137.35 155.6 157.85 146.25 177.65 135.6 187.2 130.5 196.15 124.2 190.35 121.9 184.05 120.4 172.85 117.8 161.7 117.75 206.4 106.65 195.25 85.2 M139.7 290.25 L139.55 290.35 132.8 291.6 123.25 292.05 107.55 291.5 Q91.4 289.8 76.55 283.05 61.15 276.1 48.15 265.1 35.7 254.65 26.45 241.4 16.95 227.85 12.45 211.8 10.4 204.5 10.1 196.75 L11.55 199.85 17.75 181.0 Q25.8 174.25 34.45 168.1 40.2 164.05 46.2 160.45 L40.1 165.65 Q33.6 170.7 24.3 188.6 15.55 205.1 19.6 213.85 20.45 231.6 31.75 242.6 43.05 253.55 54.15 262.25 60.6 267.25 67.7 271.4 L78.2 276.9 83.05 279.0 86.3 280.7 90.05 281.55 Q98.1 284.25 107.15 286.05 L114.0 287.1 121.55 288.85 123.45 287.75 Q131.85 287.9 152.55 280.2 150.75 281.2 150.25 282.45 L146.5 285.6 Q143.65 287.75 140.8 289.55 L139.7 290.25 M212.0 107.1 L213.35 109.15 213.65 108.75 212.25 107.05 210.95 105.6 212.0 107.1 M60.35 154.05 Q60.35 177.55 68.7 196.4 L68.65 196.4 Q57.65 177.8 55.5 156.35 L60.35 154.05 M164.0 241.05 L172.95 238.5 172.95 238.6 Q167.25 244.6 148.0 243.65 128.5 242.65 117.3 238.75 L164.0 241.05 M56.25 154.8 L71.2 147.9 104.6 136.15 125.35 155.5 78.5 148.5 78.15 148.3 74.4 149.05 56.25 154.8 M69.15 278.05 L67.7 271.4 69.15 278.05 M197.55 263.7 L197.5 263.55 197.1 263.9 197.55 263.7"/><path fill="#2dbffd" stroke="none" d="M160.3 284.85 L155.9 286.3 155.65 285.55 155.0 286.55 155.05 286.55 145.2 289.2 145.1 289.05 141.15 290.0 140.8 289.55 Q143.65 287.75 146.5 285.6 L150.25 282.45 152.6 280.2 154.3 278.5 Q158.65 273.95 162.05 268.95 167.7 260.5 170.75 250.65 L172.95 240.6 173.25 238.95 173.35 238.45 Q174.1 229.35 173.0 220.45 174.25 227.35 174.65 234.5 175.55 249.65 170.7 264.1 167.6 273.3 162.55 281.5 L160.3 284.85 M162.05 268.95 L155.65 285.55 162.05 268.95 M155.65 285.55 L162.55 281.5 155.65 285.55"/><path fill="#0177a9" stroke="none" d="M67.7 271.4 Q60.6 267.25 54.15 262.25 43.05 253.55 31.75 242.6 20.45 231.6 19.6 213.85 15.55 205.1 24.3 188.6 33.6 170.7 40.1 165.65 L46.2 160.45 47.4 159.35 Q47.55 159.1 48.0 158.9 51.35 156.55 55.3 155.1 L55.4 155.25 55.5 156.35 Q57.65 177.8 68.65 196.4 L68.85 196.75 Q75.25 207.5 83.6 216.55 95.75 229.8 112.0 236.7 L117.3 238.75 Q128.5 242.65 148.0 243.65 167.25 244.6 172.95 238.6 L173.25 238.95 172.95 240.6 170.75 250.65 Q167.7 260.5 162.05 268.95 158.65 273.95 154.3 278.5 L152.6 280.2 152.55 280.2 Q131.85 287.9 123.45 287.75 L121.55 288.85 114.0 287.1 107.15 286.05 Q98.1 284.25 90.05 281.55 L86.55 280.35 83.05 279.0 78.2 276.9 67.7 271.4"/><path stroke="none" fill="url(#gradient5)" d="M134.3 62.3 L143.45 62.95 Q161.25 65.05 177.15 73.2 186.95 78.25 195.25 85.2 206.4 106.65 161.7 117.75 153.9 119.75 146.15 122.05 132.25 126.3 118.75 131.0 L104.6 136.15 71.2 147.9 56.25 154.8 55.5 155.05 55.35 155.05 55.3 155.1 Q51.35 156.55 48.0 158.9 47.55 159.1 47.4 159.35 L46.2 160.45 Q40.2 164.05 34.45 168.1 25.8 174.25 17.75 181.0 L11.55 199.85 10.1 196.75 10.05 196.7 9.35 189.65 Q7.95 174.3 10.45 159.3 13.45 141.35 22.2 125.65 30.65 110.6 42.7 98.2 54.65 85.95 69.45 77.3 72.95 75.2 76.6 73.4 L78.7 73.1 Q81.15 72.45 82.6 70.5 L83.3 70.2 Q92.15 66.3 101.55 63.75 L104.65 63.7 105.75 63.5 Q112.25 62.3 118.85 62.1 L129.0 62.35 130.1 62.45 134.25 62.8 134.3 62.3 M56.15 153.85 L55.5 155.05 56.15 153.85 M57.1 153.2 L71.2 147.9 57.1 153.2"/><path fill="none" stroke="#000000" stroke-width="0.5" stroke-opacity="0.152941176471" d="M134.3 62.3 L143.45 62.95 Q161.25 65.05 177.15 73.2 186.95 78.25 195.25 85.2 200.0 89.15 204.25 93.75 214.9 105.2 222.05 119.15 L230.75 141.25 Q235.65 153.85 237.65 169.65 239.6 185.4 236.0 204.3 232.3 223.2 223.55 237.85 214.75 252.5 200.85 262.5 194.45 267.6 187.6 271.8 174.65 279.9 160.3 284.85 L155.9 286.3 155.05 286.55 145.2 289.2 144.55 289.35 141.15 290.0 139.7 290.25 M123.25 292.05 L107.55 291.5 Q91.4 289.8 76.55 283.05 61.15 276.1 48.15 265.1 35.7 254.65 26.45 241.4 16.95 227.85 12.45 211.8 10.4 204.5 10.1 196.75 L10.05 196.7 9.35 189.65 Q7.95 174.3 10.45 159.3 13.45 141.35 22.2 125.65 30.65 110.6 42.7 98.2 54.65 85.95 69.45 77.3 72.95 75.2 76.6 73.4 M82.6 70.5 L83.3 70.2 Q92.15 66.3 101.55 63.75 L105.75 63.5 M130.1 62.45 L134.3 62.3 M104.65 63.7 L101.55 63.75 M55.35 155.05 L55.5 155.05 56.15 153.85 M78.5 148.5 L74.4 149.05 60.35 154.05 Q60.35 177.55 68.7 196.4 L68.85 196.75 M112.0 236.7 L122.3 237.75 164.0 241.05 172.95 238.5 173.1 238.45 173.35 238.45 Q174.1 229.35 173.0 220.45 M55.4 155.25 L55.5 156.35 60.35 154.05 M55.4 155.25 L55.35 155.05 M55.4 155.25 L55.5 155.05 56.25 154.8 74.4 149.05 78.15 148.3 M78.5 148.5 L125.35 155.5 M160.4 185.95 Q157.4 181.35 153.75 177.2 147.85 170.5 140.85 164.95 L125.35 155.5 M86.3 280.7 L90.05 281.55 M114.0 287.1 L121.55 288.85 M172.95 240.6 L173.25 238.95 173.35 238.45 M117.3 238.75 L164.0 241.05 M83.05 279.0 L86.3 280.7 M145.1 289.05 L144.55 289.35 M145.1 289.05 L141.15 290.0 M155.65 285.55 L155.0 286.55 M155.65 285.55 L162.05 268.95 M162.55 281.5 L155.65 285.55 M162.25 188.85 L160.4 185.95"/><path fill="none" stroke="#000000" stroke-width="0.5" stroke-opacity="0.301960784314" d="M212.25 107.05 L212.0 107.1 M71.2 147.9 L57.1 153.2 M104.6 136.15 L71.2 147.9 M161.7 117.75 Q153.9 119.75 146.15 122.05 132.25 126.3 118.75 131.0 L104.6 136.15 M145.3 165.4 L146.15 164.9 M67.7 271.4 L69.15 278.05"/><path fill="none" stroke="#000000" stroke-width="0.5" stroke-opacity="0.0823529411765" d="M210.95 105.6 L212.25 107.05"/><path fill="none" stroke="#000000" stroke-width="0.5" stroke-opacity="0.301960784314" d="M171.05 115.0 Q194.45 110.25 213.45 111.0"/><path fill="none" stroke="#000000" stroke-width="0.5" stroke-opacity="0.2" d="M172.2 216.05 Q242.5 180.4 229.5 140.2"/><path fill="none" stroke="#000000" stroke-width="0.5" stroke-opacity="0.2" d="M174.2 242.6 Q222.25 236.4 236.2 199.7"/><path fill="none" stroke="#000000" stroke-width="0.5" stroke-opacity="0.2" d="M39.5 165.8 Q22.95 120.2 45.85 94.25"/></g><g id="c12"><g><use transform="matrix(1.0,0.0,0.0,1.0,0.0,0.0)" xlink:href="#c11"/></g></g><radialGradient gradientUnits="userSpaceOnUse" r="819.2" cx="0" cy="0" spreadMethod="pad" gradientTransform="matrix(-0.00579833984375,-0.00079345703125,0.00048828125,0.00341796875,29.65,72.2)" id="gradient6"><stop offset="0.0" stop-color="#ffffde" stop-opacity="0.890196078431"/><stop offset="0.411764705882" stop-color="#ffffcc" stop-opacity="0.0"/></radialGradient><radialGradient gradientUnits="userSpaceOnUse" r="819.2" cx="0" cy="0" spreadMethod="pad" gradientTransform="matrix(-0.00233459472656,0.00222778320312,0.00164794921875,0.000946044921875,26.25,74.65)" id="gradient7"><stop offset="0.0" stop-color="#ffffde" stop-opacity="0.890196078431"/><stop offset="0.411764705882" stop-color="#ffffcc" stop-opacity="0.0"/></radialGradient><radialGradient gradientUnits="userSpaceOnUse" r="819.2" cx="0" cy="0" spreadMethod="pad" gradientTransform="matrix(-0.000900268554688,0.00309753417969,0.00190734863281,0.0,34.65,81.55)" id="gradient8"><stop offset="0.0" stop-color="#ffffde" stop-opacity="0.890196078431"/><stop offset="0.411764705882" stop-color="#ffffcc" stop-opacity="0.0"/></radialGradient><radialGradient gradientUnits="userSpaceOnUse" r="819.2" cx="0" cy="0" spreadMethod="pad" gradientTransform="matrix(-0.00257873535156,-0.00131225585938,-0.00103759765625,0.00199890136719,29.05,81.8)" id="gradient9"><stop offset="0.0" stop-color="#ffffde" stop-opacity="0.890196078431"/><stop offset="0.411764705882" stop-color="#ffffcc" stop-opacity="0.0"/></radialGradient><radialGradient gradientUnits="userSpaceOnUse" r="819.2" cx="0" cy="0" spreadMethod="pad" gradientTransform="matrix(-0.00257873535156,-0.00131225585938,-0.00103759765625,0.00199890136719,33.9,75.05)" id="gradient10"><stop offset="0.0" stop-color="#ffffde" stop-opacity="0.890196078431"/><stop offset="0.411764705882" stop-color="#ffffcc" stop-opacity="0.0"/></radialGradient><radialGradient gradientUnits="userSpaceOnUse" r="819.2" cx="0" cy="0" spreadMethod="pad" gradientTransform="matrix(-0.00257873535156,-0.00131225585938,-0.00103759765625,0.00199890136719,25.75,83.45)" id="gradient11"><stop offset="0.0" stop-color="#ffffde" stop-opacity="0.890196078431"/><stop offset="0.411764705882" stop-color="#ffffcc" stop-opacity="0.0"/></radialGradient><radialGradient gradientUnits="userSpaceOnUse" r="819.2" cx="0" cy="0" spreadMethod="pad" gradientTransform="matrix(-0.00126647949219,-0.000640869140625,-0.000503540039062,0.0009765625,25.65,81.95)" id="gradient12"><stop offset="0.0" stop-color="#ffffde" stop-opacity="0.890196078431"/><stop offset="0.411764705882" stop-color="#ffffcc" stop-opacity="0.0"/></radialGradient><radialGradient gradientUnits="userSpaceOnUse" r="819.2" cx="0" cy="0" spreadMethod="pad" gradientTransform="matrix(-0.00126647949219,-0.000640869140625,-0.000503540039062,0.0009765625,24.35,82.65)" id="gradient13"><stop offset="0.0" stop-color="#ffffde" stop-opacity="0.890196078431"/><stop offset="0.411764705882" stop-color="#ffffcc" stop-opacity="0.0"/></radialGradient><radialGradient gradientUnits="userSpaceOnUse" r="819.2" cx="0" cy="0" spreadMethod="pad" gradientTransform="matrix(-0.00126647949219,-0.000640869140625,-0.000503540039062,0.0009765625,28.25,75.25)" id="gradient14"><stop offset="0.0" stop-color="#ffffde" stop-opacity="0.890196078431"/><stop offset="0.411764705882" stop-color="#ffffcc" stop-opacity="0.0"/></radialGradient><g id="c13"><path fill="#ffffff" stroke="none" d="M19.3 78.95 L20.65 79.4 22.9 79.8 23.95 79.65 23.95 78.25 Q21.75 77.85 19.3 78.95 L19.25 78.95 19.3 79.0 19.3 78.95"/><path fill="#d1d1d1" stroke="none" d="M23.95 79.65 L22.9 79.8 20.65 79.4 19.3 78.95 19.3 79.0 20.85 80.05 Q22.5 80.85 23.95 80.8 L23.95 79.65"/><path fill="none" stroke="#000000" stroke-width="0.5" stroke-opacity="0.152941176471" d="M19.3 78.95 Q21.75 77.85 23.95 78.25 M23.95 80.8 Q22.5 80.85 20.85 80.05 L19.3 79.0 M19.3 78.95 L19.25 78.95 19.3 79.0"/><path fill="#d1d1d1" stroke="none" d="M17.35 75.25 L17.2 75.25 19.15 77.15 Q21.1 78.75 22.85 79.35 L22.85 77.2 Q20.15 77.0 17.35 75.25"/><path fill="#ffffff" stroke="none" d="M22.85 77.2 L22.9 76.45 Q20.25 75.05 17.35 75.25 20.15 77.0 22.85 77.2"/><path fill="none" stroke="#000000" stroke-width="0.5" stroke-opacity="0.152941176471" d="M17.2 75.25 L19.15 77.15 Q21.1 78.75 22.85 79.35 M22.9 76.45 Q20.25 75.05 17.35 75.25"/><path fill="#ffffff" stroke="none" d="M17.3 69.8 L17.95 71.0 Q19.55 73.75 23.5 77.95 24.45 78.95 24.4 79.55 24.2 80.3 23.35 79.85 L23.8 79.45 Q24.05 79.2 23.6 78.8 L22.95 78.35 22.8 78.3 Q22.05 78.25 22.2 79.0 22.25 79.55 23.05 80.2 23.85 80.9 24.65 80.95 25.3 81.0 25.5 80.45 L25.6 79.35 25.25 78.4 25.2 78.25 23.35 75.2 Q20.7 71.7 17.3 69.8 L17.25 69.75 17.3 69.8"/><path fill="#ebebeb" stroke="none" d="M23.8 79.45 L23.35 79.85 Q24.2 80.3 24.4 79.55 24.45 78.95 23.5 77.95 19.55 73.75 17.95 71.0 L17.3 69.8 18.85 73.05 Q20.8 76.45 22.8 78.3 L22.95 78.35 23.6 78.8 Q24.05 79.2 23.8 79.45"/><path fill="none" stroke="#000000" stroke-width="0.5" stroke-opacity="0.152941176471" d="M17.3 69.8 Q20.7 71.7 23.35 75.2 L25.2 78.25 25.25 78.4 25.6 79.35 25.5 80.45 Q25.3 81.0 24.65 80.95 23.85 80.9 23.05 80.2 22.25 79.55 22.2 79.0 22.05 78.25 22.8 78.3 L22.95 78.35 23.6 78.8 Q24.05 79.2 23.8 79.45 M17.3 69.8 L17.25 69.75 17.3 69.8 M22.8 78.3 Q20.8 76.45 18.85 73.05 L17.3 69.8"/><path fill="#ffffff" stroke="none" d="M29.25 72.3 L29.5 72.55 29.85 72.5 30.05 72.5 30.1 72.4 30.25 72.15 29.9 71.85 29.75 71.8 29.6 71.8 29.5 71.8 29.25 72.3"/><path stroke="none" fill="url(#gradient6)" d="M27.25 73.4 Q28.4 74.2 29.95 74.45 L32.5 74.2 Q33.45 73.7 33.35 72.8 33.2 71.85 32.05 71.1 30.85 70.3 29.3 70.1 L26.85 70.35 Q25.8 70.85 26.0 71.75 26.1 72.7 27.25 73.4"/><path fill="#ffffff" stroke="none" d="M26.1 74.95 L26.25 74.95 26.35 74.75 26.45 74.7 26.4 74.65 26.4 74.5 26.1 74.5 26.0 74.55 26.0 74.65 25.95 74.7 26.1 74.95"/><path stroke="none" fill="url(#gradient7)" d="M25.95 76.1 L27.35 75.3 Q27.95 74.7 28.05 74.1 28.2 73.55 27.75 73.25 27.3 73.05 26.55 73.25 25.8 73.5 25.2 74.1 24.6 74.65 24.45 75.25 24.35 75.85 24.8 76.1 25.2 76.35 25.95 76.1"/><path fill="#ffffff" stroke="none" d="M34.6 81.8 L34.7 81.75 34.75 81.55 34.7 81.45 34.7 81.35 34.6 81.3 34.4 81.45 34.35 81.55 34.3 81.6 34.35 81.7 34.6 81.8"/><path stroke="none" fill="url(#gradient8)" d="M35.1 83.0 L35.9 81.55 Q36.1 80.75 35.9 80.2 35.75 79.6 35.25 79.6 34.75 79.6 34.2 80.2 33.7 80.75 33.45 81.6 33.2 82.4 33.4 82.95 33.6 83.55 34.1 83.55 34.65 83.55 35.1 83.0"/><path fill="#ffffff" stroke="none" d="M28.85 81.8 L28.85 82.0 29.05 82.05 29.15 82.05 29.2 82.05 29.35 81.9 29.35 81.65 29.25 81.6 29.25 81.65 29.15 81.6 28.85 81.8"/><path stroke="none" fill="url(#gradient9)" d="M27.4 82.1 Q27.75 82.75 28.45 83.1 L29.75 83.3 Q30.4 83.15 30.7 82.65 30.95 82.1 30.7 81.5 30.4 80.85 29.75 80.55 29.05 80.2 28.4 80.3 27.7 80.45 27.4 81.0 27.15 81.5 27.4 82.1"/><path fill="#ffffff" stroke="none" d="M33.75 74.95 L33.75 75.15 33.95 75.2 34.05 75.2 34.1 75.2 34.25 75.05 34.25 74.8 34.15 74.75 34.15 74.8 34.05 74.75 33.75 74.95"/><path stroke="none" fill="url(#gradient10)" d="M32.25 75.35 Q32.6 76.0 33.3 76.35 L34.6 76.55 Q35.25 76.4 35.55 75.9 35.8 75.35 35.55 74.75 35.25 74.1 34.6 73.8 L33.25 73.55 32.25 74.25 Q32.0 74.75 32.25 75.35"/><path fill="#ffffff" stroke="none" d="M25.5 83.35 L25.5 83.55 25.7 83.6 25.8 83.6 25.85 83.6 26.0 83.45 26.0 83.2 25.9 83.15 25.9 83.2 25.8 83.15 25.5 83.35"/><path stroke="none" fill="url(#gradient11)" d="M24.1 83.75 Q24.45 84.4 25.15 84.75 L26.45 84.95 27.4 84.3 Q27.65 83.75 27.4 83.15 27.1 82.5 26.45 82.2 L25.1 81.95 24.1 82.65 Q23.85 83.15 24.1 83.75"/><path fill="#ffffff" stroke="none" d="M25.55 81.95 L25.55 82.05 25.65 82.05 25.7 82.1 25.8 82.0 25.75 81.9 25.75 81.85 25.7 81.9 25.7 81.85 25.55 81.95"/><path stroke="none" fill="url(#gradient12)" d="M24.8 82.15 L25.3 82.6 26.0 82.7 26.5 82.35 26.45 81.85 25.95 81.3 25.35 81.2 24.85 81.55 Q24.7 81.8 24.8 82.15"/><path fill="#ffffff" stroke="none" d="M24.3 82.6 L24.3 82.7 24.4 82.7 24.45 82.75 24.55 82.65 24.5 82.55 24.5 82.5 24.45 82.55 24.45 82.5 24.3 82.6"/><path stroke="none" fill="url(#gradient13)" d="M23.5 82.85 L24.0 83.3 24.7 83.4 25.2 83.05 25.15 82.55 24.65 82.0 24.05 81.9 23.55 82.25 Q23.4 82.5 23.5 82.85"/><path fill="#ffffff" stroke="none" d="M28.1 75.25 L28.1 75.35 28.2 75.35 28.25 75.4 28.35 75.3 28.3 75.2 28.3 75.15 28.25 75.2 28.25 75.15 28.1 75.25"/><path stroke="none" fill="url(#gradient14)" d="M27.4 75.45 L27.9 75.9 28.6 76.0 29.1 75.65 29.05 75.15 28.55 74.6 27.95 74.5 27.45 74.85 Q27.3 75.1 27.4 75.45"/></g><g id="c14"><g><use transform="matrix(1.0,0.0,0.0,1.0,6.3,53.35)" xlink:href="#c9"/></g><g><use transform="matrix(1.0,0.0,0.0,1.0,0.0,0.0)" xlink:href="#c10"/></g><g><use transform="matrix(-0.0576171875,0.0209808349609,0.0209808349609,0.0576171875,32.65,64.7)" xlink:href="#c12"/></g><g><use transform="matrix(1.0,0.0,0.0,1.0,0.0,0.0)" xlink:href="#c13"/></g><g><use transform="matrix(0.141098022461,-0.0378112792969,0.111373901367,0.225646972656,27.2,74.05)" filter="url(#filter14)" xlink:href="#c6"/></g></g><filter id="filter14"><feColorMatrix in="SourceGraphic" type="matrix" values="1.0 0.0 0.0 0.0 0.0 0.0 1.0 0.0 0.0 0.0 0.0 0.0 1.0 0.0 0.0 0.0 0.0 0.0 0.23046875 0.0" result="cxform"/><feComposite operator="in" in2="SourceGraphic" result="color-xform"/></filter></defs><g><g><use transform="matrix(1.0,0.0,0.0,1.0,0.0,0.0)" xlink:href="#c1"/></g><g><use transform="matrix(1.15496826172,0.0,0.0,1.15496826172,-1.55,-56.9)" xlink:href="#c14"/></g></g></svg>