<?xml version='1.0' encoding='UTF-8'?>
<svg xmlns:xlink="http://www.w3.org/1999/xlink" xmlns="http://www.w3.org/2000/svg" version="1.1" width="60px" height="60px" viewBox="0.0 0.0 60.0 60.0"><defs><g id="c1"><path fill="#000000" fill-opacity="0.00392156862745" d="M0.0 0.0 L60.0 0.0 60.0 60.0 0.0 60.0 0.0 0.0"/></g><g id="c2"><path fill="none" stroke="#000000" stroke-width="1.0" stroke-opacity="0.301960784314" d="M3.8 6.35 L17.5 1.95 30.2 7.0 41.35 31.7 Q42.95 35.15 40.2 36.7 39.5 37.3 38.3 37.65 L19.8 43.65 Q17.15 44.45 15.5 43.3 14.35 42.55 13.65 40.9 L0.7 12.25 Q-0.45 9.75 0.75 8.25 1.2 7.6 2.15 7.15 2.8 6.7 3.8 6.35"/><path fill="#ffcc00" stroke="none" d="M35.55 22.3 L31.45 13.25 29.75 9.2 29.65 9.15 29.75 9.2 31.45 13.25 29.65 9.15 26.25 7.85 16.95 4.2 5.5 7.85 Q1.65 9.1 3.35 12.8 L8.25 23.65 15.0 38.6 15.2 39.0 Q16.8 42.25 20.45 41.1 L37.2 35.7 Q41.1 34.5 39.35 30.75 L35.55 22.3 M1.1 8.3 Q1.45 7.65 2.15 7.15 2.8 6.7 3.8 6.35 L17.5 1.95 30.2 7.0 41.35 31.7 Q42.95 35.15 40.2 36.7 L38.9 37.25 23.2 42.3 20.4 43.2 19.1 43.5 17.3 43.4 Q15.3 42.9 14.2 40.5 L5.45 20.95 1.35 11.8 Q0.4 9.65 1.1 8.3"/><path fill="#996600" stroke="none" d="M31.45 13.25 L35.55 22.3 39.35 30.75 Q41.1 34.5 37.2 35.7 L20.45 41.1 Q16.8 42.25 15.2 39.0 L15.0 38.6 8.25 23.65 3.35 12.8 Q1.65 9.1 5.5 7.85 L16.95 4.2 26.25 7.85 29.65 9.15 31.45 13.25 M26.5 8.3 L26.25 7.85 26.5 8.3 M18.6 7.5 L9.1 10.55 9.55 11.6 Q9.8 12.8 9.15 13.6 8.4 14.45 7.1 14.4 L6.8 14.4 6.95 14.6 16.3 35.2 Q16.8 36.4 17.65 37.0 18.8 37.8 20.65 37.2 L34.0 32.9 33.7 32.1 Q33.45 30.9 34.1 30.1 34.75 29.3 35.95 29.35 L35.8 29.0 27.7 10.95 18.6 7.5"/><path fill="#5b3c00" stroke="none" d="M0.75 8.25 L1.1 8.3 Q0.4 9.65 1.35 11.8 L5.45 20.95 4.6 20.9 0.7 12.25 Q-0.45 9.75 0.75 8.25 M17.3 43.4 L19.1 43.5 20.1 43.55 19.8 43.65 Q17.15 44.45 15.5 43.3 L17.3 43.4"/><path fill="#724b00" stroke="none" d="M2.15 7.15 Q1.45 7.65 1.1 8.3 L0.75 8.25 Q1.2 7.6 2.15 7.15 M5.45 20.95 L14.2 40.5 Q15.3 42.9 17.3 43.4 L15.5 43.3 Q14.35 42.55 13.65 40.9 L4.6 20.9 5.45 20.95 M19.1 43.5 L20.4 43.2 23.2 42.3 23.3 42.5 20.1 43.55 19.1 43.5"/><path fill="#fcf2cf" stroke="none" d="M27.7 10.95 L35.8 29.0 35.95 29.35 Q34.75 29.3 34.1 30.1 33.45 30.9 33.7 32.1 L34.0 32.9 20.65 37.2 Q18.8 37.8 17.65 37.0 16.8 36.4 16.3 35.2 L6.95 14.6 6.8 14.4 7.1 14.4 Q8.4 14.45 9.15 13.6 9.8 12.8 9.55 11.6 L9.1 10.55 18.6 7.5 27.7 10.95"/><path fill="#1c1200" stroke="none" d="M23.2 42.3 L38.9 37.25 40.2 36.7 Q39.5 37.3 38.3 37.65 L23.3 42.5 23.2 42.3"/><path fill="none" stroke="#ffaa00" stroke-width="1.0" d="M31.45 13.25 L35.55 22.3 M15.0 38.6 L8.25 23.65 M31.45 13.25 L29.65 9.15"/><path fill="none" stroke="#fcf2cf" stroke-width="1.0" d="M35.55 22.3 L39.35 30.75 Q41.1 34.5 37.2 35.7 L20.45 41.1 Q16.8 42.25 15.2 39.0 L15.0 38.6 M8.25 23.65 L3.35 12.8 Q1.65 9.1 5.5 7.85 L16.95 4.2 26.25 7.85 29.65 9.15 29.75 9.2 31.45 13.25"/><path fill="none" stroke="#f0b92b" stroke-width="0.5" d="M26.25 7.85 L26.5 8.3 M27.7 10.95 L35.8 29.0 35.95 29.35 Q34.75 29.3 34.1 30.1 33.45 30.9 33.7 32.1 L34.0 32.9 20.65 37.2 Q18.8 37.8 17.65 37.0 16.8 36.4 16.3 35.2 L6.95 14.6 6.8 14.4 7.1 14.4 Q8.4 14.45 9.15 13.6 9.8 12.8 9.55 11.6 L9.1 10.55 18.6 7.5"/><path fill="none" stroke="#000000" stroke-width="0.5" stroke-opacity="0.301960784314" d="M1.1 8.3 Q1.45 7.65 2.15 7.15 1.2 7.6 0.75 8.25 M1.1 8.3 Q0.4 9.65 1.35 11.8 L5.45 20.95 14.2 40.5 Q15.3 42.9 17.3 43.4 L19.1 43.5 20.4 43.2 23.2 42.3 38.9 37.25 40.2 36.7 Q42.95 35.15 41.35 31.7 L30.2 7.0 M17.5 1.95 L3.8 6.35 Q2.8 6.7 2.15 7.15 M4.6 20.9 L0.7 12.25 Q-0.45 9.75 0.75 8.25 M4.6 20.9 L13.65 40.9 Q14.35 42.55 15.5 43.3 M20.1 43.55 L19.8 43.65 Q17.15 44.45 15.5 43.3 M20.1 43.55 L23.3 42.5 M40.2 36.7 Q39.5 37.3 38.3 37.65 L23.3 42.5"/><path fill="none" stroke="#ffcc00" stroke-width="0.5" stroke-opacity="0.749019607843" d="M18.6 7.5 L27.7 10.95"/></g><g id="c3"><path fill="#7fdbfe" stroke="none" d="M10.75 4.9 Q10.75 4.6 10.9 4.35 11.25 3.45 11.95 2.75 13.3 1.5 14.35 2.1 15.4 2.7 14.95 4.45 14.7 5.4 14.1 6.15 L13.75 6.5 Q13.1 7.15 12.35 7.35 L11.4 7.2 Q10.95 6.9 10.75 6.4 10.5 5.75 10.75 4.9 M7.5 5.9 Q7.0 5.85 6.6 5.5 6.05 5.0 5.8 4.15 L5.7 3.6 Q5.55 2.65 5.8 1.7 6.25 0.0 7.5 0.0 L7.6 0.0 Q8.85 0.0 9.3 1.7 9.55 2.65 9.4 3.6 L9.3 4.15 8.5 5.5 7.6 5.9 7.5 5.9 M4.35 4.9 Q4.6 5.75 4.35 6.4 L3.7 7.2 2.75 7.35 Q2.0 7.15 1.35 6.5 L1.0 6.15 Q0.4 5.4 0.15 4.45 -0.3 2.7 0.75 2.1 1.8 1.5 3.15 2.75 3.85 3.45 4.2 4.35 L4.35 4.9 M5.5 13.7 Q4.45 13.9 3.65 12.95 2.75 12.0 3.2 10.25 3.7 8.5 5.25 7.6 6.4 6.9 7.55 7.0 8.75 6.9 9.9 7.6 11.45 8.5 11.95 10.25 12.35 12.0 11.5 12.95 10.7 13.9 9.65 13.7 8.55 13.5 7.55 12.6 6.55 13.5 5.5 13.7"/></g><g id="c4"><g><use transform="matrix(1.0,0.0,0.0,1.0,0.0,0.0)" xlink:href="#c3"/></g></g><radialGradient gradientUnits="userSpaceOnUse" r="819.2" cx="0" cy="0" spreadMethod="pad" gradientTransform="matrix(0.0914459228516,0.0,0.0,0.0914459228516,0.6,3.4)" id="gradient1"><stop offset="0.0" stop-color="#ffffff"/><stop offset="1.0" stop-color="#ffffff" stop-opacity="0.0"/></radialGradient><g id="c5"><path stroke="none" fill="url(#gradient1)" d="M36.65 -54.65 Q60.05 -42.0 69.75 -17.95 80.55 8.9 68.0 34.1 55.45 59.35 26.8 68.2 -1.8 77.05 -29.7 64.3 -57.6 51.6 -68.45 24.75 -79.3 -2.05 -66.75 -27.25 L-66.7 -27.3 Q-54.1 -52.5 -25.5 -61.4 3.1 -70.2 31.0 -57.5 L36.65 -54.65"/></g><g id="c6"><g><use transform="matrix(1.0,0.0,0.0,1.0,0.0,0.0)" xlink:href="#c5"/></g></g><radialGradient gradientUnits="userSpaceOnUse" r="819.2" cx="0" cy="0" spreadMethod="pad" gradientTransform="matrix(0.209197998047,0.0,0.0,0.177108764648,67.15,107.2)" id="gradient2"><stop offset="0.356862745098" stop-color="#ffffff"/><stop offset="0.670588235294" stop-opacity="0.0"/></radialGradient><g id="c7"><path fill="none" stroke-linejoin="round" stroke-linecap="round" stroke="url(#gradient2)" stroke-width="0.5" d="M136.55 165.8 L68.6 106.0 68.4 106.0 118.25 201.5 M68.2 105.7 L68.25 105.8 68.25 105.75 68.2 105.7 0.0 45.7 M68.25 105.8 L68.3 105.85 68.3 105.8 68.25 105.75 49.95 0.05 M0.05 97.7 L68.15 105.95 68.25 105.85 68.25 105.8 M68.3 105.85 L68.25 105.85 68.3 106.0 68.3 105.85 68.3 105.8 68.35 105.8 68.3 105.8 86.6 18.35 M50.0 193.2 L68.3 106.0 68.15 105.95 18.25 151.55 M68.4 106.0 L68.3 106.0 86.55 211.5 M68.4 106.0 L68.3 105.85 M68.6 106.0 L68.35 105.8 118.25 60.15 M136.6 114.25 L68.6 106.0 M68.2 105.7 L18.25 10.05"/></g><g id="c8"><g><use transform="matrix(1.0,0.0,0.0,1.0,0.0,0.0)" xlink:href="#c7"/></g></g><g id="c9"><g><use transform="matrix(1.0,0.0,0.0,1.0,0.0,0.0)" xlink:href="#c2"/></g><g><use transform="matrix(0.238861083984,-0.0867004394531,0.10026550293,0.233917236328,34.25,31.15)" xlink:href="#c4"/></g><g><use transform="matrix(0.238861083984,-0.0867004394531,0.10026550293,0.233917236328,4.25,10.3)" xlink:href="#c4"/></g><g><use transform="matrix(0.141098022461,-0.0378112792969,0.111373901367,0.225646972656,20.25,20.65)" filter="url(#filter7)" xlink:href="#c6"/></g><g><use transform="matrix(-0.155029296875,0.0513153076172,0.0841827392578,0.147033691406,22.6,3.15)" filter="url(#filter8)" xlink:href="#c8"/></g></g><filter id="filter7"><feColorMatrix in="SourceGraphic" type="matrix" values="0.0 0.0 0.0 0.0 0.796875 0.0 0.0 0.0 0.0 0.59765625 0.0 0.0 0.0 0.0 0.19921875 0.0 0.0 0.0 1.0 0.0" result="cxform"/><feComposite operator="in" in2="SourceGraphic" result="color-xform"/></filter><filter id="filter8"><feColorMatrix in="SourceGraphic" type="matrix" values="0.0 0.0 0.0 0.0 0.99609375 0.0 0.0 0.0 0.0 0.99609375 0.0 0.0 0.0 0.0 0.99609375 0.0 0.0 0.0 1.0 0.0" result="cxform"/><feComposite operator="in" in2="SourceGraphic" result="color-xform"/></filter><g id="c10"><path fill="#ffffff" stroke="none" d="M46.35 90.05 L45.05 90.6 26.55 96.55 25.95 96.75 25.25 96.85 23.45 96.75 Q21.45 96.25 20.35 93.85 L7.5 65.15 Q6.55 63.0 7.25 61.65 7.6 61.0 8.3 60.5 8.95 60.05 9.95 59.7 L23.65 55.3 36.35 60.35 47.5 85.05 Q49.1 88.5 46.35 90.05"/></g><linearGradient gradientUnits="userSpaceOnUse" x1="-819.2" x2="819.2" spreadMethod="pad" gradientTransform="matrix(0.0255126953125,0.0,0.0,0.0268249511719,20.9,21.95)" id="gradient3"><stop offset="0.0" stop-color="#f90013"/><stop offset="0.160784313725" stop-color="#ff99ff"/><stop offset="0.462745098039" stop-color="#66ffff"/><stop offset="0.721568627451" stop-color="#ff9900"/><stop offset="1.0" stop-color="#33ff00"/></linearGradient><g id="c11"><path stroke="none" fill="url(#gradient3)" d="M0.6 8.2 Q1.05 7.55 2.0 7.1 2.65 6.65 3.65 6.3 L22.15 0.35 Q26.4 -1.05 28.3 3.05 L41.2 31.65 Q42.8 35.1 40.05 36.65 39.35 37.25 38.15 37.6 L19.65 43.6 Q17.0 44.4 15.35 43.25 14.2 42.5 13.5 40.85 L0.55 12.2 Q-0.6 9.7 0.6 8.2"/></g><g id="c12"><g><use transform="matrix(1.0,0.0,0.0,1.0,0.0,0.0)" xlink:href="#c11"/></g></g><linearGradient gradientUnits="userSpaceOnUse" x1="-819.2" x2="819.2" spreadMethod="pad" gradientTransform="matrix(-0.0144805908203,-0.0120239257812,-0.00576782226562,0.00715637207031,23.4,71.8)" id="gradient4"><stop offset="0.0" stop-color="#f8ebcf"/><stop offset="0.180392156863" stop-color="#d3f1f8"/><stop offset="0.360784313725" stop-color="#74a596"/><stop offset="0.580392156863" stop-color="#2dbffd"/><stop offset="0.647058823529" stop-color="#bbebf7"/><stop offset="0.988235294118" stop-color="#c8ac80"/></linearGradient><g id="c13"><path fill="#e7f4f5" stroke="none" d="M17.2 70.5 L17.95 69.6 Q20.1 67.35 23.1 66.85 L24.75 66.75 Q27.35 66.75 29.7 67.9 30.9 68.45 32.05 69.25 L32.4 69.55 Q36.0 72.35 37.1 76.25 38.0 79.5 36.75 81.95 L36.5 82.45 36.35 82.65 36.25 82.75 36.2 82.85 36.15 82.9 36.15 82.95 36.1 83.0 36.0 83.05 35.1 84.05 Q33.6 85.4 31.35 85.7 L29.95 85.8 28.3 85.55 Q27.4 85.15 26.85 84.4 26.1 83.3 25.9 81.5 L25.8 80.25 25.65 78.85 Q25.05 75.3 21.85 74.05 L21.8 74.05 21.15 73.8 20.45 73.6 Q16.5 72.75 17.2 70.5 M21.2 73.35 Q22.75 73.8 23.4 74.25 25.8 75.95 26.1 78.65 L26.2 80.75 Q28.45 77.8 29.65 68.25 27.35 67.15 24.85 67.15 L22.85 67.35 Q20.25 67.9 18.35 69.9 17.7 70.6 17.7 71.5 17.7 72.35 19.35 72.85 L21.2 73.35 M26.7 70.7 L26.9 70.6 Q27.3 70.2 27.25 69.7 27.05 68.9 26.35 68.45 25.65 68.0 24.8 68.0 24.0 68.0 23.55 68.45 23.2 68.8 23.2 69.2 L23.25 69.5 23.75 70.3 24.1 70.6 25.65 71.0 26.7 70.7 M24.75 67.65 Q25.7 67.65 26.55 68.2 27.35 68.75 27.55 69.7 27.6 70.3 27.1 70.7 L26.9 70.95 25.6 71.25 Q24.65 71.25 23.85 70.7 L23.4 70.4 22.9 69.45 22.85 69.05 Q22.85 68.55 23.25 68.2 23.8 67.65 24.75 67.65 M31.95 70.5 L31.75 72.05 31.45 73.9 31.05 76.1 30.55 78.45 29.95 80.75 29.3 82.8 28.7 84.55 28.5 85.05 29.75 85.35 30.3 85.4 Q31.5 85.05 32.35 81.0 33.55 71.65 32.25 69.9 L32.2 69.8 32.0 69.7 31.95 70.5 M35.75 82.75 L35.75 82.7 Q37.7 80.0 36.7 76.25 35.95 73.35 33.65 71.15 33.55 77.1 32.0 85.2 33.6 84.8 34.8 83.75 L35.7 82.8 35.75 82.75"/><path fill="#bce3e9" stroke="none" d="M22.85 67.35 L24.85 67.15 Q27.35 67.15 29.65 68.25 28.45 77.8 26.2 80.75 L26.1 78.65 Q25.8 75.95 23.4 74.25 22.75 73.8 21.2 73.35 L21.25 72.55 21.45 71.4 21.7 70.25 22.1 69.1 22.85 67.35 M24.75 67.65 Q23.8 67.65 23.25 68.2 22.85 68.55 22.85 69.05 L22.9 69.45 23.4 70.4 23.85 70.7 Q24.65 71.25 25.6 71.25 L26.9 70.95 27.1 70.7 Q27.6 70.3 27.55 69.7 27.35 68.75 26.55 68.2 25.7 67.65 24.75 67.65"/><path fill="#705632" stroke="none" d="M21.85 74.05 Q25.05 75.3 25.65 78.85 L24.95 79.5 Q24.35 76.25 21.7 75.15 L21.8 74.7 21.85 74.05 M23.2 69.2 Q23.2 68.8 23.55 68.45 24.0 68.0 24.8 68.0 25.65 68.0 26.35 68.45 27.05 68.9 27.25 69.7 27.3 70.2 26.9 70.6 L26.7 70.7 Q26.5 69.8 25.8 69.35 25.1 68.9 24.3 68.9 23.65 68.9 23.2 69.2"/><path fill="#c3c3ab" stroke="none" d="M22.85 67.35 L22.1 69.1 21.7 70.25 21.45 71.4 21.25 72.55 21.2 73.35 19.35 72.85 Q17.7 72.35 17.7 71.5 17.7 70.6 18.35 69.9 20.25 67.9 22.85 67.35"/><path fill="#8e6f3e" stroke="none" d="M17.2 70.5 Q16.5 72.75 20.45 73.6 L21.15 73.8 21.8 74.05 21.85 74.05 21.8 74.7 21.7 75.15 21.15 74.9 20.6 74.75 Q16.1 73.7 17.2 70.5 M25.65 78.85 L25.8 80.25 25.9 81.5 Q26.1 83.3 26.85 84.4 27.4 85.15 28.3 85.55 L29.95 85.8 31.35 85.7 29.1 86.0 28.15 85.9 Q26.4 85.4 25.45 82.6 L25.15 81.35 24.95 79.5 25.65 78.85"/><path fill="#93d5db" stroke="none" d="M35.75 82.75 L35.7 82.8 34.8 83.75 Q33.6 84.8 32.0 85.2 33.55 77.1 33.65 71.15 35.95 73.35 36.7 76.25 37.7 80.0 35.75 82.7 L35.75 82.75 M31.95 70.5 L32.0 69.7 32.2 69.8 32.25 69.9 Q33.55 71.65 32.35 81.0 31.5 85.05 30.3 85.4 L29.75 85.35 28.5 85.05 28.7 84.55 29.3 82.8 29.95 80.75 30.55 78.45 31.05 76.1 31.45 73.9 31.75 72.05 31.95 70.5"/><path stroke="none" fill="url(#gradient4)" d="M31.35 85.7 Q33.6 85.4 35.1 84.05 L33.75 85.05 Q32.7 85.65 31.35 85.7"/><path fill="none" stroke="#000000" stroke-width="0.5" stroke-opacity="0.301960784314" d="M36.2 82.85 L36.25 82.75 36.35 82.65 36.5 82.45 36.75 81.95 Q38.0 79.5 37.1 76.25 36.0 72.35 32.4 69.55 L32.05 69.25 Q30.9 68.45 29.7 67.9 27.35 66.75 24.75 66.75 L23.1 66.85 Q20.1 67.35 17.95 69.6 L17.2 70.5 Q16.5 72.75 20.45 73.6 L21.15 73.8 21.8 74.05 21.85 74.05 Q25.05 75.3 25.65 78.85 L25.8 80.25 25.9 81.5 Q26.1 83.3 26.85 84.4 27.4 85.15 28.3 85.55 L29.95 85.8 31.35 85.7 Q33.6 85.4 35.1 84.05 L36.0 83.05 36.1 83.0 36.15 82.95 M36.2 82.85 L36.15 82.95 M24.95 79.5 Q24.35 76.25 21.7 75.15 L21.15 74.9 20.6 74.75 Q16.1 73.7 17.2 70.5 M24.95 79.5 L25.15 81.35 25.45 82.6 Q26.4 85.4 28.15 85.9 L29.1 86.0 31.35 85.7"/><path fill="none" stroke="#000000" stroke-width="0.5" stroke-opacity="0.301960784314" d="M23.2 69.2 Q23.2 68.8 23.55 68.45 24.0 68.0 24.8 68.0 25.65 68.0 26.35 68.45 27.05 68.9 27.25 69.7 27.3 70.2 26.9 70.6 L26.7 70.7 25.65 71.0 24.1 70.6 23.75 70.3 23.25 69.5 23.2 69.2 Q23.65 68.9 24.3 68.9 25.1 68.9 25.8 69.35 26.5 69.8 26.7 70.7"/></g><g id="c14"><g><use transform="matrix(1.0,0.0,0.0,1.0,0.0,0.0)" xlink:href="#c5"/></g></g><radialGradient gradientUnits="userSpaceOnUse" r="819.2" cx="0" cy="0" spreadMethod="pad" gradientTransform="matrix(0.0212554931641,0.0,0.0,0.0212554931641,0.0,0.0)" id="gradient5"><stop offset="0.196078431373" stop-color="#fee3bc"/><stop offset="0.501960784314" stop-color="#fee3bc" stop-opacity="0.160784313725"/><stop offset="0.760784313725" stop-color="#ffe3bd" stop-opacity="0.0"/></radialGradient><g id="c15"><path stroke="none" fill="url(#gradient5)" d="M9.3 -9.85 Q13.35 -5.8 13.35 0.0 13.35 5.8 9.3 9.3 5.8 13.35 0.0 13.35 -5.8 13.35 -9.85 9.3 -13.35 5.8 -13.35 0.0 -13.35 -5.8 -9.85 -9.85 -5.8 -13.35 0.0 -13.35 5.8 -13.35 9.3 -9.85"/></g><g id="c16"><g><use transform="matrix(1.0,0.0,0.0,1.0,0.0,0.0)" xlink:href="#c15"/></g></g><g id="c17"><g><use transform="matrix(0.00422668457031,-1.35153198242,1.39352416992,0.0199737548828,40.75,38.25)" xlink:href="#c16"/></g><g><use transform="matrix(0.00953674316406,-3.04858398438,0.371963500977,0.00532531738281,41.6,40.75)" filter="url(#filter13)" xlink:href="#c16"/></g><g><use transform="matrix(3.04858398438,0.00953674316406,-0.00532531738281,0.371963500977,40.75,36.7)" filter="url(#filter14)" xlink:href="#c16"/></g></g><filter id="filter13"><feColorMatrix in="SourceGraphic" type="matrix" values="1.0 0.0 0.0 0.0 0.0 0.0 1.0 0.0 0.0 0.0 0.0 0.0 1.0 0.0 0.0 0.0 0.0 0.0 0.71875 0.0" result="cxform"/><feComposite operator="in" in2="SourceGraphic" result="color-xform"/></filter><filter id="filter14"><feColorMatrix in="SourceGraphic" type="matrix" values="1.0 0.0 0.0 0.0 0.0 0.0 1.0 0.0 0.0 0.0 0.0 0.0 1.0 0.0 0.0 0.0 0.0 0.0 0.71875 0.0" result="cxform"/><feComposite operator="in" in2="SourceGraphic" result="color-xform"/></filter><g id="c18"><path fill="#ffffff" stroke="none" d="M2.05 22.35 Q2.7 18.1 4.45 14.75 6.2 11.3 9.9 10.05 13.55 8.85 15.15 5.45 16.05 3.55 14.55 0.85 L13.4 0.0 Q8.6 1.1 6.0 3.9 3.45 6.8 1.85 9.8 0.2 12.8 0.05 15.65 -0.2 18.6 0.85 24.1 L2.05 22.35"/></g><g id="c19"><g><use transform="matrix(1.0,0.0,0.0,1.0,0.0,0.0)" xlink:href="#c18"/></g></g><g id="c20"><path fill="none" stroke="#ffcc00" stroke-width="0.5" d="M36.35 60.35 L47.65 85.05 Q49.25 88.5 46.5 90.05 45.8 90.65 44.6 91.0 L26.1 97.0 Q23.45 97.8 21.8 96.65 20.65 95.9 19.95 94.25 L7.0 65.6 Q5.85 63.1 7.05 61.6 7.5 60.95 8.45 60.5 9.1 60.05 10.1 59.7 L23.8 55.3"/><path fill="none" stroke="#ffcc00" stroke-width="0.5" d="M36.35 60.35 L23.8 55.3"/></g><g id="c21"><path fill="#ffffff" stroke="none" d="M46.35 90.05 L45.05 90.6 26.55 96.55 25.95 96.75 25.25 96.85 23.45 96.75 Q21.45 96.25 20.35 93.85 L7.5 65.15 Q6.55 63.0 7.25 61.65 7.6 61.0 8.3 60.5 8.95 60.05 9.95 59.7 L23.65 55.3 36.35 60.35 47.5 85.05 Q49.1 88.5 46.35 90.05"/><path fill="#ffffff" stroke="#000000" stroke-width="0.5" stroke-opacity="0.298039215686" d="M46.35 90.05 L45.05 90.6 26.55 96.55 25.95 96.75 25.25 96.85 23.45 96.75 Q21.45 96.25 20.35 93.85 L7.5 65.15 Q6.55 63.0 7.25 61.65 7.6 61.0 8.3 60.5 8.95 60.05 9.95 59.7 L23.65 55.3 36.35 60.35 47.5 85.05 Q49.1 88.5 46.35 90.05"/></g><linearGradient gradientUnits="userSpaceOnUse" x1="-819.2" x2="819.2" spreadMethod="pad" gradientTransform="matrix(-0.00735473632812,0.0306396484375,-0.0266723632812,-0.0176086425781,34.25,44.6)" id="gradient6"><stop offset="0.0" stop-opacity="0.337254901961"/><stop offset="1.0" stop-opacity="0.0"/></linearGradient><linearGradient gradientUnits="userSpaceOnUse" x1="-819.2" x2="819.2" spreadMethod="pad" gradientTransform="matrix(-0.0125732421875,0.0358276367188,-0.0249176025391,-0.0237579345703,24.2,32.05)" id="gradient7"><stop offset="0.0" stop-opacity="0.337254901961"/><stop offset="1.0" stop-opacity="0.0"/></linearGradient><linearGradient gradientUnits="userSpaceOnUse" x1="-819.2" x2="819.2" spreadMethod="pad" gradientTransform="matrix(-0.00982666015625,0.0313873291016,-0.0181274414062,-0.0154724121094,4.1,17.85)" id="gradient8"><stop offset="0.0" stop-opacity="0.337254901961"/><stop offset="1.0" stop-opacity="0.0"/></linearGradient><linearGradient gradientUnits="userSpaceOnUse" x1="-819.2" x2="819.2" spreadMethod="pad" gradientTransform="matrix(0.0,0.0410766601562,-0.0333709716797,-0.0151062011719,15.9,32.85)" id="gradient9"><stop offset="0.0" stop-opacity="0.337254901961"/><stop offset="1.0" stop-opacity="0.0"/></linearGradient><g id="c22"><path stroke="none" fill="url(#gradient6)" d="M36.8 7.0 L36.8 44.6 31.7 44.6 31.7 7.0 36.8 7.0"/><path stroke="none" fill="url(#gradient7)" d="M26.45 7.0 L26.45 44.6 21.35 44.6 21.35 7.0 26.45 7.0"/><path stroke="none" fill="url(#gradient8)" d="M5.1 7.0 L5.1 44.6 0.0 44.6 0.0 7.0 5.1 7.0"/><path stroke="none" fill="url(#gradient9)" d="M15.65 7.0 L15.0 44.6 9.35 44.6 9.6 7.0 15.65 7.0"/></g><g id="c23"><g><use transform="matrix(1.0,0.0,0.0,1.0,0.0,0.0)" xlink:href="#c22"/></g></g><g id="c24"><path fill="#fefd8d" fill-opacity="0.972549019608" d="M33.85 83.75 L33.85 83.8 33.85 83.95 33.85 84.0 33.85 84.1 33.9 84.1 33.9 84.15 34.35 84.4 34.85 84.75 34.35 84.45 34.1 84.3 34.05 84.25 33.95 84.2 33.9 84.2 33.9 84.7 33.9 85.25 33.85 84.75 33.75 84.2 33.7 84.1 33.5 84.25 33.0 84.55 32.7 84.7 32.95 84.5 33.4 84.3 33.45 84.25 33.5 84.2 33.7 84.1 33.65 84.05 33.7 84.05 33.7 84.0 33.3 83.6 32.95 83.25 33.3 83.55 33.55 83.8 33.7 83.95 33.8 83.4 33.9 82.95 33.85 83.35 33.85 83.75 M34.4 83.9 L34.35 83.9 34.25 84.0 34.15 84.0 33.9 84.05 34.15 83.95 34.7 83.75 35.2 83.65 34.85 83.75 34.95 83.85 34.85 83.75 34.7 83.8 34.4 83.9 M36.75 85.45 L36.9 85.55 36.9 85.5 37.1 83.9 37.35 82.3 37.45 81.75 37.4 82.25 37.4 83.85 37.2 85.6 37.35 86.0 37.4 86.1 38.7 86.9 40.15 87.75 40.55 88.05 40.1 87.8 38.75 87.05 37.75 86.45 37.4 86.25 37.35 86.2 37.4 86.3 37.5 87.75 37.55 89.45 37.6 90.0 37.5 89.5 37.25 87.9 37.05 86.25 37.0 86.3 36.9 85.9 36.7 85.75 36.9 85.85 36.9 85.65 35.7 84.55 34.95 83.85 35.65 84.4 36.45 85.15 36.5 85.2 36.75 85.45 M35.7 86.65 L36.1 86.45 36.2 86.4 36.85 86.1 36.3 86.45 34.8 87.25 33.35 88.0 32.8 88.25 33.3 88.0 34.65 87.2 35.7 86.65 M41.85 84.45 L41.35 84.6 39.85 85.15 38.15 85.7 37.5 85.9 Q37.45 85.85 38.1 85.65 L39.7 85.1 41.3 84.6 41.85 84.45"/><path fill="#fffd8f" fill-opacity="0.4" d="M33.85 83.75 L34.05 83.4 34.25 83.2 34.15 83.4 34.0 83.8 33.9 83.9 33.85 83.8 33.85 83.75 M34.1 84.3 L34.35 84.5 34.45 84.65 34.25 84.5 34.0 84.3 33.95 84.2 34.05 84.25 34.1 84.3 M33.4 84.3 L33.3 84.3 32.95 84.45 32.7 84.55 32.95 84.4 33.35 84.25 33.45 84.25 33.4 84.3 M33.55 83.8 L33.4 83.6 33.6 83.8 33.65 83.9 33.55 83.8 M34.4 83.9 L34.65 83.85 34.95 83.85 35.05 83.8 34.95 83.85 34.7 83.9 34.3 84.0 34.2 84.0 34.25 84.0 34.35 83.9 34.4 83.9 M33.6 84.3 L33.7 84.2 33.75 84.35 33.65 84.7 33.55 85.05 33.55 84.75 33.6 84.3 M37.65 85.15 L37.35 85.5 37.35 85.0 37.9 84.05 38.5 83.1 38.7 82.75 38.55 83.1 38.15 84.05 37.65 85.15 M36.75 85.45 L36.5 85.2 36.45 85.15 35.85 84.4 35.45 83.85 35.95 84.3 36.65 85.15 36.9 85.5 36.75 85.45 M37.4 86.3 L37.35 86.2 37.4 86.25 37.75 86.45 Q38.15 86.7 38.6 87.1 L39.3 87.75 38.5 87.15 37.6 86.5 37.4 86.3 M35.7 86.65 L34.7 87.0 33.8 87.3 34.7 86.95 35.75 86.5 36.1 86.45 35.7 86.65 M38.7 85.65 L38.25 85.7 38.7 85.55 39.75 85.35 40.7 85.2 41.05 85.15 40.75 85.25 39.8 85.45 38.7 85.65 M36.7 86.7 L36.95 86.25 37.0 86.75 36.65 87.8 36.3 88.85 36.15 89.25 36.25 88.85 36.4 87.85 Q36.5 87.1 36.7 86.7"/><path fill="#fffd8f" fill-opacity="0.392156862745" d="M38.0 86.75 Q37.9 86.0 37.45 85.8 L36.9 85.85 Q36.75 86.1 36.9 86.5 37.1 87.0 37.65 87.3 L38.35 87.95 38.6 88.25 38.45 87.85 38.0 86.75"/><path fill="#fffd8f" fill-opacity="0.392156862745" d="M38.0 86.25 L37.05 85.85 Q36.8 85.8 36.95 85.95 L37.55 86.35 38.35 86.6 Q38.8 86.65 39.05 86.85 L39.35 86.95 39.0 86.75 38.0 86.25"/><path fill="#fffd8f" fill-opacity="0.392156862745" d="M36.4 84.8 Q36.35 85.55 36.75 85.85 L37.3 85.9 37.45 85.25 Q37.35 84.75 36.9 84.35 36.35 83.9 36.3 83.55 L36.1 83.25 36.2 83.65 36.4 84.8"/><path fill="#fffd8f" fill-opacity="0.392156862745" d="M36.25 85.35 L37.1 85.95 37.2 85.8 36.75 85.3 35.95 84.9 Q35.55 84.75 35.3 84.6 L35.05 84.45 35.35 84.65 36.25 85.35"/><path fill="#fffd8f" fill-opacity="0.392156862745" d="M38.75 85.2 Q38.0 85.45 37.85 85.65 37.7 85.85 37.85 85.8 L38.5 85.65 39.25 85.2 39.9 84.75 40.15 84.6 39.75 84.75 38.75 85.2"/><path fill="#fffd8f" fill-opacity="0.392156862745" d="M35.75 87.0 L36.6 86.4 36.5 86.25 Q36.25 86.25 35.9 86.5 L35.25 87.1 34.7 87.65 Q34.4 87.8 34.45 87.85 L34.8 87.6 35.75 87.0"/><path fill="#fffd8f" fill-opacity="0.392156862745" d="M34.1 84.35 L33.95 84.05 33.75 84.05 Q33.65 84.1 33.7 84.25 L34.0 84.55 34.2 84.75 34.3 84.85 34.2 84.75 34.1 84.35"/><path fill="#fffd8f" fill-opacity="0.392156862745" d="M34.1 84.2 Q33.9 84.05 33.75 84.05 L33.75 84.1 33.95 84.2 34.2 84.3 34.5 84.4 34.55 84.4 34.45 84.4 34.1 84.2"/><path fill="#fffd8f" fill-opacity="0.392156862745" d="M33.5 83.65 L33.65 84.05 33.85 84.05 33.9 83.85 33.65 83.55 33.5 83.25 33.45 83.15 33.5 83.25 33.5 83.65"/><path fill="#fffd8f" fill-opacity="0.392156862745" d="M33.5 83.9 L33.75 84.05 33.8 84.0 33.65 83.85 33.35 83.7 33.2 83.6 33.05 83.55 33.15 83.6 33.5 83.9"/><path fill="#fffd8f" fill-opacity="0.392156862745" d="M34.3 83.8 L34.05 83.95 34.05 84.0 34.25 83.95 34.55 83.8 Q34.6 83.7 34.7 83.7 L34.8 83.6 34.7 83.65 34.3 83.8"/><path fill="#fffd8f" fill-opacity="0.392156862745" d="M33.3 84.45 L33.6 84.2 33.6 84.15 Q33.5 84.15 33.4 84.3 L33.15 84.45 32.95 84.65 32.85 84.75 33.0 84.6 33.3 84.45"/><path fill="#ffffff" stroke="none" d="M36.3 85.35 Q36.05 85.7 36.05 86.15 L36.5 86.9 37.3 87.15 38.05 86.75 38.25 85.9 37.85 85.2 37.05 84.95 36.3 85.35"/><path fill="#fefd8d" fill-opacity="0.972549019608" d="M18.75 62.3 L18.65 62.35 18.2 62.45 18.6 62.25 19.85 61.9 21.0 61.5 21.4 61.35 21.05 61.5 19.9 61.9 18.75 62.3 M17.45 61.95 L17.7 62.2 17.75 62.2 17.7 62.15 17.85 61.05 18.05 59.85 18.15 59.4 18.1 59.8 18.05 61.0 18.0 62.25 18.1 62.6 19.15 63.2 20.0 63.75 19.15 63.3 18.5 62.95 18.4 62.85 18.15 62.7 18.1 62.7 18.15 62.75 18.2 63.85 18.2 64.9 18.0 64.0 17.85 62.8 17.8 62.8 17.75 62.45 17.6 62.3 17.7 62.35 17.7 62.3 16.85 61.5 15.9 60.65 15.65 60.35 15.95 60.65 16.8 61.4 17.45 61.95 M14.7 64.25 L15.05 64.05 16.1 63.45 17.25 62.85 17.7 62.65 17.3 62.95 16.2 63.45 15.1 64.05 14.7 64.25"/><path fill="#fffd8f" fill-opacity="0.4" d="M18.75 62.3 L19.1 62.2 19.85 62.05 20.6 61.95 19.85 62.15 19.05 62.3 18.75 62.3 M17.45 61.95 L16.95 61.35 16.5 60.75 17.0 61.3 17.55 61.95 17.7 62.15 17.75 62.2 17.7 62.2 17.45 61.95 M18.5 62.95 L19.0 63.35 19.6 63.8 19.8 64.0 19.6 63.85 18.95 63.4 18.3 62.9 18.15 62.75 18.1 62.7 18.15 62.7 18.4 62.85 18.5 62.95 M18.3 61.9 L18.05 62.2 18.1 61.85 18.45 61.15 18.9 60.4 19.1 60.2 18.95 60.4 18.65 61.15 18.3 61.9 M16.9 62.9 L17.2 62.85 Q17.15 62.9 16.85 63.05 L16.15 63.3 15.45 63.55 15.2 63.6 15.45 63.5 16.1 63.25 Q16.6 63.0 16.9 62.9 M17.55 63.1 L17.75 62.75 17.8 63.1 17.6 63.95 17.25 64.7 17.15 64.95 17.2 64.7 17.4 63.9 Q17.4 63.4 17.55 63.1"/><path fill="#fffd8f" fill-opacity="0.392156862745" d="M18.6 63.1 L18.15 62.4 17.7 62.45 17.75 62.95 18.3 63.55 Q18.75 63.8 18.8 64.0 L19.0 64.25 18.85 63.95 18.6 63.1"/><path fill="#fffd8f" fill-opacity="0.392156862745" d="M18.55 62.7 Q18.05 62.4 17.9 62.4 17.7 62.4 17.8 62.5 L18.25 62.8 18.85 63.0 19.35 63.15 19.6 63.2 19.35 63.1 18.55 62.7"/><path fill="#fffd8f" fill-opacity="0.392156862745" d="M17.3 61.7 Q17.35 62.3 17.55 62.45 L18.0 62.5 18.1 62.0 17.65 61.35 17.25 60.75 17.15 60.5 17.2 60.8 17.3 61.7"/><path fill="#fffd8f" fill-opacity="0.392156862745" d="M17.25 62.1 L17.9 62.5 17.95 62.45 17.6 62.05 17.05 61.75 16.55 61.5 16.35 61.4 16.55 61.6 Q16.8 61.7 17.25 62.1"/><path fill="#fffd8f" fill-opacity="0.392156862745" d="M19.05 61.9 L18.4 62.3 18.45 62.4 18.9 62.3 19.5 61.95 19.95 61.6 20.15 61.5 19.85 61.6 19.05 61.9"/><path fill="#fffd8f" fill-opacity="0.392156862745" d="M16.9 63.3 L17.5 62.85 17.45 62.7 17.05 62.9 16.5 63.35 16.15 63.75 15.95 63.95 16.2 63.75 16.9 63.3"/><path fill="#ffffff" stroke="none" d="M17.4 62.1 Q17.15 62.35 17.2 62.65 L17.55 63.25 18.1 63.4 18.7 63.1 18.85 62.5 18.55 61.95 17.9 61.75 17.4 62.1"/><path fill="#ffffff" stroke="none" d="M33.55 83.9 L33.45 84.15 33.6 84.45 33.85 84.5 34.15 84.4 34.2 84.05 34.1 83.85 33.75 83.75 33.55 83.9"/></g><g id="c25"><g><use transform="matrix(1.0,0.0,0.0,1.0,6.3,53.35)" xlink:href="#c9"/></g><mask id="mask10"><use transform="matrix(1.0,0.0,0.0,1.0,0.0,0.0)" xlink:href="#c10"/></mask><g mask="url(#mask10)"><use transform="matrix(1.0,0.0,0.0,1.0,6.45,53.4)" xlink:href="#c12"/></g><g><use transform="matrix(1.0,0.0,0.0,1.0,0.0,0.0)" xlink:href="#c13"/></g><g><use transform="matrix(0.0691070556641,-0.00157165527344,-0.00613403320312,-0.104873657227,30.9,77.85)" filter="url(#filter21)" xlink:href="#c14"/></g><g><use transform="matrix(-0.0863342285156,0.0,0.0,0.0865020751953,25.15,70.25)" xlink:href="#c17"/></g><g><use transform="matrix(-0.519607543945,0.0,0.0,0.520111083984,36.6,69.2)" filter="url(#filter23)" xlink:href="#c19"/></g><g><use transform="matrix(1.0,0.0,0.0,1.0,0.0,0.0)" xlink:href="#c20"/></g><mask id="mask21"><use transform="matrix(1.0,0.0,0.0,1.0,0.0,0.0)" xlink:href="#c21"/></mask><g mask="url(#mask21)"><use transform="matrix(1.0,0.0,0.0,1.0,9.65,51.0)" filter="url(#filter26)" xlink:href="#c23"/></g><g mask="url(#mask21)"><use transform="matrix(1.0,0.0,0.0,1.0,9.65,51.0)" filter="url(#filter27)" xlink:href="#c23"/></g><g mask="url(#mask21)"><use transform="matrix(1.0,0.0,0.0,1.0,0.0,0.0)" xlink:href="#c24"/></g><g><use transform="matrix(0.141098022461,-0.0378112792969,0.111373901367,0.225646972656,27.2,74.05)" filter="url(#filter29)" xlink:href="#c6"/></g></g><filter id="filter21"><feColorMatrix in="SourceGraphic" type="matrix" values="1.0 0.0 0.0 0.0 0.0 0.0 1.0 0.0 0.0 0.0 0.0 0.0 1.0 0.0 0.0 0.0 0.0 0.0 0.28125 0.0" result="cxform"/><feComposite operator="in" in2="SourceGraphic" result="color-xform"/></filter><filter id="filter23"><feColorMatrix in="SourceGraphic" type="matrix" values="1.0 0.0 0.0 0.0 0.0 0.0 1.0 0.0 0.0 0.0 0.0 0.0 1.0 0.0 0.0 0.0 0.0 0.0 0.5703125 0.0" result="cxform"/><feComposite operator="in" in2="SourceGraphic" result="color-xform"/></filter><filter id="filter26"><feColorMatrix in="SourceGraphic" type="matrix" values="0.0 0.0 0.0 0.0 0.99609375 0.0 0.0 0.0 0.0 0.99609375 0.0 0.0 0.0 0.0 0.99609375 0.0 0.0 0.0 1.0 0.0" result="cxform"/><feComposite operator="in" in2="SourceGraphic" result="color-xform"/></filter><filter id="filter27"><feColorMatrix in="SourceGraphic" type="matrix" values="0.0 0.0 0.0 0.0 0.99609375 0.0 0.0 0.0 0.0 0.99609375 0.0 0.0 0.0 0.0 0.99609375 0.0 0.0 0.0 1.0 0.0" result="cxform"/><feComposite operator="in" in2="SourceGraphic" result="color-xform"/></filter><filter id="filter29"><feColorMatrix in="SourceGraphic" type="matrix" values="1.0 0.0 0.0 0.0 0.0 0.0 1.0 0.0 0.0 0.0 0.0 0.0 1.0 0.0 0.0 0.0 0.0 0.0 0.23046875 0.0" result="cxform"/><feComposite operator="in" in2="SourceGraphic" result="color-xform"/></filter></defs><g><g><use transform="matrix(1.0,0.0,0.0,1.0,0.0,0.0)" xlink:href="#c1"/></g><g><use transform="matrix(1.15492248535,0.0,0.0,1.15492248535,-1.55,-57.7)" xlink:href="#c25"/></g></g></svg>