<?xml version='1.0' encoding='UTF-8'?>
<svg xmlns:xlink="http://www.w3.org/1999/xlink" xmlns="http://www.w3.org/2000/svg" version="1.1" width="60px" height="60px" viewBox="0.0 0.0 60.0 60.0"><defs><g id="c1"><path fill="#000000" fill-opacity="0.00392156862745" d="M0.0 0.0 L60.0 0.0 60.0 60.0 0.0 60.0 0.0 0.0"/></g><g id="c2"><path fill="none" stroke="#000000" stroke-width="1.0" stroke-opacity="0.301960784314" d="M0.7 12.25 Q-0.45 9.75 0.75 8.25 1.2 7.6 2.15 7.15 2.8 6.7 3.8 6.35 L17.5 1.95 30.2 7.0 41.35 31.7 Q42.95 35.15 40.2 36.7 39.5 37.3 38.3 37.65 L19.8 43.65 Q17.15 44.45 15.5 43.3 14.35 42.55 13.65 40.9 L0.7 12.25"/><path fill="#9d147b" stroke="none" d="M35.55 22.3 L31.5 13.2 29.75 9.2 16.95 4.25 5.5 7.85 Q1.65 9.1 3.35 12.8 L8.25 23.65 15.0 38.6 15.2 39.0 Q16.8 42.25 20.45 41.1 L37.2 35.7 Q41.1 34.5 39.35 30.75 L35.55 22.3 M2.15 7.15 Q2.8 6.7 3.8 6.35 L17.5 1.95 30.2 7.0 41.35 31.7 Q42.95 35.15 40.2 36.7 L38.9 37.25 23.2 42.3 20.4 43.2 19.1 43.5 17.3 43.4 Q15.3 42.9 14.2 40.5 L5.45 20.95 1.35 11.8 Q0.4 9.65 1.1 8.3 1.45 7.65 2.15 7.15"/><path fill="#c47fad" stroke="none" d="M31.5 13.2 L35.55 22.3 39.35 30.75 Q41.1 34.5 37.2 35.7 L20.45 41.1 Q16.8 42.25 15.2 39.0 L15.0 38.6 8.25 23.65 3.35 12.8 Q1.65 9.1 5.5 7.85 L16.95 4.25 29.75 9.2 31.5 13.2 M18.5 7.45 L9.1 10.55 9.55 11.6 Q9.8 12.8 9.15 13.6 8.4 14.45 7.1 14.4 L6.8 14.4 6.95 14.6 16.3 35.2 Q16.8 36.4 17.65 37.0 18.8 37.8 20.65 37.2 L34.0 32.9 33.7 32.1 Q33.45 30.9 34.1 30.1 34.75 29.3 35.95 29.35 L35.8 29.0 27.75 10.95 18.5 7.45"/><path fill="#630a4c" stroke="none" d="M0.75 8.25 Q1.2 7.6 2.15 7.15 1.45 7.65 1.1 8.3 L0.75 8.25 M23.3 42.5 L20.1 43.55 19.1 43.5 20.4 43.2 23.2 42.3 23.3 42.5 M15.5 43.3 Q14.35 42.55 13.65 40.9 L4.6 20.9 5.45 20.95 14.2 40.5 Q15.3 42.9 17.3 43.4 L15.5 43.3"/><path fill="#300525" stroke="none" d="M4.6 20.9 L0.7 12.25 Q-0.45 9.75 0.75 8.25 L1.1 8.3 Q0.4 9.65 1.35 11.8 L5.45 20.95 4.6 20.9 M40.2 36.7 Q39.5 37.3 38.3 37.65 L23.3 42.5 23.2 42.3 38.9 37.25 40.2 36.7 M20.1 43.55 L19.8 43.65 Q17.15 44.45 15.5 43.3 L17.3 43.4 19.1 43.5 20.1 43.55"/><path fill="#fcf2cf" stroke="none" d="M27.75 10.95 L35.8 29.0 35.95 29.35 Q34.75 29.3 34.1 30.1 33.45 30.9 33.7 32.1 L34.0 32.9 20.65 37.2 Q18.8 37.8 17.65 37.0 16.8 36.4 16.3 35.2 L6.95 14.6 6.8 14.4 7.1 14.4 Q8.4 14.45 9.15 13.6 9.8 12.8 9.55 11.6 L9.1 10.55 18.5 7.45 27.75 10.95"/><path fill="none" stroke="#bf9900" stroke-width="1.0" stroke-opacity="0.749019607843" d="M31.5 13.2 L35.55 22.3 M15.0 38.6 L8.25 23.65"/><path fill="none" stroke="#ffcc00" stroke-width="1.0" stroke-opacity="0.749019607843" d="M35.55 22.3 L39.35 30.75 Q41.1 34.5 37.2 35.7 L20.45 41.1 Q16.8 42.25 15.2 39.0 L15.0 38.6 M8.25 23.65 L3.35 12.8 Q1.65 9.1 5.5 7.85 L16.95 4.25 29.75 9.2 31.5 13.2"/><path fill="none" stroke="#000000" stroke-width="0.5" stroke-opacity="0.301960784314" d="M4.6 20.9 L0.7 12.25 Q-0.45 9.75 0.75 8.25 1.2 7.6 2.15 7.15 2.8 6.7 3.8 6.35 L17.5 1.95 M30.2 7.0 L41.35 31.7 Q42.95 35.15 40.2 36.7 39.5 37.3 38.3 37.65 L23.3 42.5 20.1 43.55 19.8 43.65 Q17.15 44.45 15.5 43.3 14.35 42.55 13.65 40.9 L4.6 20.9 M5.45 20.95 L1.35 11.8 Q0.4 9.65 1.1 8.3 1.45 7.65 2.15 7.15 M19.1 43.5 L17.3 43.4 Q15.3 42.9 14.2 40.5 L5.45 20.95 M23.2 42.3 L20.4 43.2 19.1 43.5 M40.2 36.7 L38.9 37.25 23.2 42.3"/><path fill="none" stroke="#f0b92b" stroke-width="0.5" d="M27.75 10.95 L35.8 29.0 35.95 29.35 Q34.75 29.3 34.1 30.1 33.45 30.9 33.7 32.1 L34.0 32.9 20.65 37.2 Q18.8 37.8 17.65 37.0 16.8 36.4 16.3 35.2 L6.95 14.6 6.8 14.4 7.1 14.4 Q8.4 14.45 9.15 13.6 9.8 12.8 9.55 11.6 L9.1 10.55 18.5 7.45"/><path fill="none" stroke="#ffcc00" stroke-width="0.5" stroke-opacity="0.749019607843" d="M18.5 7.45 L27.75 10.95"/></g><g id="c3"><path fill="#7fdbfe" stroke="none" d="M10.75 4.9 Q10.75 4.6 10.9 4.35 11.25 3.45 11.95 2.75 13.3 1.5 14.35 2.1 15.4 2.7 14.95 4.45 14.7 5.4 14.1 6.15 L13.75 6.5 Q13.1 7.15 12.35 7.35 L11.4 7.2 Q10.95 6.9 10.75 6.4 10.5 5.75 10.75 4.9 M7.5 5.9 Q7.0 5.85 6.6 5.5 6.05 5.0 5.8 4.15 L5.7 3.6 Q5.55 2.65 5.8 1.7 6.25 0.0 7.5 0.0 L7.6 0.0 Q8.85 0.0 9.3 1.7 9.55 2.65 9.4 3.6 L9.3 4.15 8.5 5.5 7.6 5.9 7.5 5.9 M4.35 4.9 Q4.6 5.75 4.35 6.4 L3.7 7.2 2.75 7.35 Q2.0 7.15 1.35 6.5 L1.0 6.15 Q0.4 5.4 0.15 4.45 -0.3 2.7 0.75 2.1 1.8 1.5 3.15 2.75 3.85 3.45 4.2 4.35 L4.35 4.9 M5.5 13.7 Q4.45 13.9 3.65 12.95 2.75 12.0 3.2 10.25 3.7 8.5 5.25 7.6 6.4 6.9 7.55 7.0 8.75 6.9 9.9 7.6 11.45 8.5 11.95 10.25 12.35 12.0 11.5 12.95 10.7 13.9 9.65 13.7 8.55 13.5 7.55 12.6 6.55 13.5 5.5 13.7"/></g><g id="c4"><g><use transform="matrix(1.0,0.0,0.0,1.0,0.0,0.0)" xlink:href="#c3"/></g></g><radialGradient gradientUnits="userSpaceOnUse" r="819.2" cx="0" cy="0" spreadMethod="pad" gradientTransform="matrix(0.0914459228516,0.0,0.0,0.0914459228516,0.6,3.4)" id="gradient1"><stop offset="0.0" stop-color="#ffffff"/><stop offset="1.0" stop-color="#ffffff" stop-opacity="0.0"/></radialGradient><g id="c5"><path stroke="none" fill="url(#gradient1)" d="M36.65 -54.65 Q60.05 -42.0 69.75 -17.95 80.55 8.9 68.0 34.1 55.45 59.35 26.8 68.2 -1.8 77.05 -29.7 64.3 -57.6 51.6 -68.45 24.75 -79.3 -2.05 -66.75 -27.25 L-66.7 -27.3 Q-54.1 -52.5 -25.5 -61.4 3.1 -70.2 31.0 -57.5 L36.65 -54.65"/></g><g id="c6"><g><use transform="matrix(1.0,0.0,0.0,1.0,0.0,0.0)" xlink:href="#c5"/></g></g><radialGradient gradientUnits="userSpaceOnUse" r="819.2" cx="0" cy="0" spreadMethod="pad" gradientTransform="matrix(0.209197998047,0.0,0.0,0.177108764648,67.15,107.2)" id="gradient2"><stop offset="0.356862745098" stop-color="#ffffff"/><stop offset="0.670588235294" stop-opacity="0.0"/></radialGradient><g id="c7"><path fill="none" stroke-linejoin="round" stroke-linecap="round" stroke="url(#gradient2)" stroke-width="0.5" d="M136.55 165.8 L68.6 106.0 68.4 106.0 118.25 201.5 M68.3 105.8 L68.35 105.8 68.3 105.8 68.3 105.85 68.4 106.0 68.3 106.0 86.55 211.5 M68.3 105.8 L68.3 105.85 68.3 106.0 68.15 105.95 18.25 151.55 M68.3 105.85 L68.25 105.85 68.3 106.0 50.0 193.2 M68.25 105.85 L68.15 105.95 0.05 97.7 M68.3 105.85 L68.25 105.8 68.25 105.85 M68.25 105.8 L68.2 105.7 0.0 45.7 M68.3 105.8 L68.25 105.75 68.25 105.8 M68.25 105.75 L68.2 105.7 18.25 10.05 M68.6 106.0 L68.35 105.8 118.25 60.15 M86.6 18.35 L68.3 105.8 M136.6 114.25 L68.6 106.0 M68.25 105.75 L49.95 0.05"/></g><g id="c8"><g><use transform="matrix(1.0,0.0,0.0,1.0,0.0,0.0)" xlink:href="#c7"/></g></g><g id="c9"><g><use transform="matrix(1.0,0.0,0.0,1.0,0.0,0.0)" xlink:href="#c2"/></g><g><use transform="matrix(0.238861083984,-0.0867004394531,0.10026550293,0.233917236328,34.25,31.15)" xlink:href="#c4"/></g><g><use transform="matrix(0.238861083984,-0.0867004394531,0.10026550293,0.233917236328,4.25,10.3)" xlink:href="#c4"/></g><g><use transform="matrix(0.141098022461,-0.0378112792969,0.111373901367,0.225646972656,20.25,20.65)" filter="url(#filter7)" xlink:href="#c6"/></g><g><use transform="matrix(-0.155029296875,0.0513153076172,0.0841827392578,0.147033691406,22.6,3.15)" filter="url(#filter8)" xlink:href="#c8"/></g></g><filter id="filter7"><feColorMatrix in="SourceGraphic" type="matrix" values="0.0 0.0 0.0 0.0 0.796875 0.0 0.0 0.0 0.0 0.59765625 0.0 0.0 0.0 0.0 0.19921875 0.0 0.0 0.0 1.0 0.0" result="cxform"/><feComposite operator="in" in2="SourceGraphic" result="color-xform"/></filter><filter id="filter8"><feColorMatrix in="SourceGraphic" type="matrix" values="0.0 0.0 0.0 0.0 0.99609375 0.0 0.0 0.0 0.0 0.99609375 0.0 0.0 0.0 0.0 0.99609375 0.0 0.0 0.0 1.0 0.0" result="cxform"/><feComposite operator="in" in2="SourceGraphic" result="color-xform"/></filter><g id="c10"><path fill="#f7f8d0" stroke="none" d="M19.9 74.3 L19.65 73.95 Q20.95 73.3 21.85 72.1 L22.35 71.5 22.85 71.35 23.65 71.95 Q22.1 72.05 21.1 73.45 20.75 74.2 19.9 74.3"/><path fill="#e0dfa7" stroke="none" d="M19.9 74.3 Q20.75 74.2 21.1 73.45 22.1 72.05 23.65 71.95 L23.95 72.55 24.25 73.25 22.8 75.25 22.4 75.5 Q21.2 75.8 20.2 74.65 L19.9 74.3"/><path fill="none" stroke="#000000" stroke-width="0.5" stroke-opacity="0.301960784314" d="M23.65 71.95 L22.85 71.35 22.35 71.5 21.85 72.1 Q20.95 73.3 19.65 73.95 L19.9 74.3 M23.65 71.95 L23.95 72.55 24.25 73.25 22.8 75.25 22.4 75.5 Q21.2 75.8 20.2 74.65 L19.9 74.3"/><path fill="#f7f8d0" stroke="none" d="M20.85 69.8 L20.6 69.95 20.85 69.8 M20.6 69.95 Q20.2 70.25 20.85 70.35 L22.35 70.6 24.05 71.25 24.1 71.7 22.0 72.0 Q20.5 71.8 19.05 70.3 L18.75 69.35 21.9 69.25 22.75 69.15 Q23.05 69.15 23.35 69.4 23.75 69.7 23.95 70.5 22.2 69.45 20.6 69.95"/><path fill="#e0dfa7" stroke="none" d="M24.05 71.25 L22.35 70.6 20.85 70.35 Q20.2 70.25 20.6 69.95 22.2 69.45 23.95 70.5 L24.05 71.25 M19.05 70.3 Q20.5 71.8 22.0 72.0 L24.1 71.7 24.15 72.05 Q22.85 72.75 21.8 72.8 L21.2 72.75 Q19.75 72.15 19.05 70.3"/><path fill="none" stroke="#000000" stroke-width="0.5" stroke-opacity="0.301960784314" d="M20.6 69.95 L20.85 69.8 M24.05 71.25 L22.35 70.6 20.85 70.35 Q20.2 70.25 20.6 69.95 M23.95 70.5 Q23.75 69.7 23.35 69.4 23.05 69.15 22.75 69.15 L21.9 69.25 18.75 69.35 19.05 70.3 Q19.75 72.15 21.2 72.75 L21.8 72.8 Q22.85 72.75 24.15 72.05 L24.1 71.7 24.05 71.25 23.95 70.5"/><path fill="#f7f8d0" stroke="none" d="M23.9 73.3 L23.45 73.25 Q22.9 72.7 23.2 72.15 L23.25 72.1 23.8 72.5 Q24.1 72.9 23.9 73.3 M23.45 71.7 Q23.1 71.25 23.5 70.85 24.0 70.7 24.2 71.35 L24.35 71.7 Q24.55 72.75 23.85 72.3 L23.75 72.2 23.45 71.7"/><path fill="#e0dfa7" stroke="none" d="M23.25 72.1 L23.45 71.7 23.75 72.2 23.85 72.3 Q24.55 72.75 24.35 71.7 L24.2 71.35 Q24.0 70.7 23.5 70.85 L23.7 70.65 Q24.25 70.25 25.2 71.1 25.4 72.5 24.5 72.95 L23.9 73.3 Q24.1 72.9 23.8 72.5 L23.25 72.1"/><path fill="none" stroke="#000000" stroke-width="0.5" stroke-opacity="0.301960784314" d="M23.9 73.3 L23.45 73.25 Q22.9 72.7 23.2 72.15 L23.25 72.1 23.45 71.7 Q23.1 71.25 23.5 70.85 L23.7 70.65 Q24.25 70.25 25.2 71.1 25.4 72.5 24.5 72.95 L23.9 73.3 M23.75 72.2 L23.45 71.7"/><path fill="#000000" fill-opacity="0.301960784314" d="M22.5 81.7 L23.0 81.5 22.85 81.25 23.95 81.15 25.05 81.8 25.45 82.55 25.25 82.7 25.2 83.15 24.75 82.85 24.85 83.35 23.7 82.95 22.3 82.25 22.85 81.9 22.5 81.7"/><path fill="#a59c52" stroke="none" d="M22.15 84.1 Q24.3 82.8 24.35 81.5 L25.0 81.95 25.15 82.55 Q24.55 83.55 22.5 84.15 L21.85 84.35 22.15 84.1"/><path fill="#d5d0aa" stroke="none" d="M23.3 81.45 L21.95 83.85 23.1 83.25 22.15 84.1 21.85 84.35 21.65 84.1 Q21.9 83.1 23.0 81.65 L23.3 81.45"/><path fill="#beb87a" stroke="none" d="M22.15 84.1 L23.1 83.25 21.95 83.85 23.3 81.45 24.35 81.5 Q24.3 82.8 22.15 84.1"/><path fill="none" stroke="#000000" stroke-width="0.5" stroke-opacity="0.301960784314" d="M23.0 81.65 Q21.9 83.1 21.65 84.1 L21.85 84.35 22.5 84.15 Q24.55 83.55 25.15 82.55 L25.0 81.95"/><path fill="#6f7e2c" stroke="none" d="M23.35 81.6 L23.2 81.55 Q22.95 80.9 23.6 78.55 24.5 75.35 25.55 72.55 27.05 68.75 28.3 68.45 29.15 69.25 26.95 75.05 24.75 80.9 23.35 81.6 M35.7 70.95 L34.15 70.3 35.9 70.75 35.7 70.95"/><path fill="#bfd661" stroke="none" d="M28.3 68.45 L28.2 68.35 Q26.9 68.4 25.3 72.5 24.25 75.3 23.35 78.55 22.65 80.9 22.95 81.5 L23.3 81.65 23.35 81.6 Q24.75 80.9 26.95 75.05 29.15 69.25 28.3 68.45 M28.8 67.2 Q30.65 67.95 27.9 75.0 25.15 81.95 22.95 82.6 L22.35 82.45 Q21.8 81.75 22.5 79.1 23.4 75.3 24.7 72.0 26.6 67.25 28.8 67.2"/><path fill="#d1eb94" stroke="none" d="M23.35 81.6 L23.3 81.65 22.95 81.5 Q22.65 80.9 23.35 78.55 24.25 75.3 25.3 72.5 26.9 68.4 28.2 68.35 L28.3 68.45 Q27.05 68.75 25.55 72.55 24.5 75.35 23.6 78.55 22.95 80.9 23.2 81.55 L23.35 81.6 M29.5 70.7 L28.1 75.0 Q25.4 81.95 23.15 82.7 L22.95 82.6 Q25.15 81.95 27.9 75.0 30.65 67.95 28.8 67.2 L28.9 67.2 29.0 67.25 29.2 67.3 Q30.15 67.95 29.5 70.7"/><path fill="#abc24d" stroke="none" d="M23.15 82.7 Q25.4 81.95 28.1 75.0 L29.5 70.7 Q35.8 72.3 33.4 81.35 31.35 84.75 28.9 85.15 L25.8 83.4 23.15 82.7"/><path fill="#899d37" stroke="none" d="M29.5 70.7 Q30.15 67.95 29.2 67.3 L32.1 68.4 Q34.5 68.5 35.2 69.2 L35.9 70.75 34.15 70.3 35.7 70.95 36.05 71.15 Q36.5 73.55 35.35 77.3 L33.4 81.35 Q35.8 72.3 29.5 70.7"/><path fill="none" stroke="#000000" stroke-width="0.5" stroke-opacity="0.301960784314" d="M29.0 67.25 L28.9 67.2 28.8 67.2 Q26.6 67.25 24.7 72.0 23.4 75.3 22.5 79.1 21.8 81.75 22.35 82.45 L22.95 82.6 23.15 82.7 25.8 83.4 28.9 85.15 Q31.35 84.75 33.4 81.35 L35.35 77.3 Q36.5 73.55 36.05 71.15 L35.7 70.95 35.9 70.75 35.2 69.2 Q34.5 68.5 32.1 68.4 L29.2 67.3 M34.15 70.3 L35.7 70.95"/><path fill="none" stroke="#000000" stroke-width="0.5" stroke-opacity="0.301960784314" d="M22.75 78.95 Q23.0 78.2 23.65 78.05 L25.45 78.6 M31.0 72.2 L29.2 71.45 Q28.6 71.5 28.15 71.95 M24.55 76.65 L26.05 77.25 M25.25 79.3 Q25.15 80.0 25.55 80.3 27.1 81.0 28.0 81.15 M29.5 83.55 L31.25 84.15 M27.75 83.4 L30.45 84.65 M32.05 71.2 Q34.25 71.8 36.3 72.9 M30.6 74.25 L33.5 75.25 M31.25 75.25 Q33.65 75.95 35.55 77.15"/><path fill="#000000" fill-opacity="0.301960784314" d="M24.75 81.95 L25.2 81.45 24.9 81.2 26.25 80.8 28.15 81.35 29.15 82.15 29.0 82.35 29.25 82.95 28.4 82.7 29.0 83.3 27.2 83.1 24.9 82.55 25.35 82.0 24.75 81.95"/><path fill="#a59c52" stroke="none" d="M26.1 85.0 Q27.85 82.8 27.0 81.2 L28.2 81.55 28.7 82.2 Q28.7 83.65 26.55 84.9 L25.85 85.3 26.1 85.0"/><path fill="#d5d0aa" stroke="none" d="M25.65 81.4 L25.5 84.65 26.65 83.65 26.1 85.0 25.85 85.3 Q25.55 85.35 25.4 85.1 25.0 83.75 25.35 81.65 L25.65 81.4"/><path fill="#beb87a" stroke="none" d="M26.1 85.0 L26.65 83.65 25.5 84.65 25.65 81.4 27.0 81.2 Q27.85 82.8 26.1 85.0"/><path fill="none" stroke="#000000" stroke-width="0.5" stroke-opacity="0.301960784314" d="M25.35 81.65 Q25.0 83.75 25.4 85.1 25.55 85.35 25.85 85.3 L26.55 84.9 Q28.7 83.65 28.7 82.2 L28.2 81.55"/><path fill="#000000" fill-opacity="0.301960784314" d="M31.5 80.85 L31.2 81.1 31.1 80.6 30.85 80.7 31.2 79.75 32.3 78.95 33.2 78.8 33.25 79.0 33.7 79.2 33.2 79.45 33.75 79.5 32.9 80.35 31.6 81.35 31.5 80.85"/><path fill="#beb87a" stroke="none" d="M31.75 79.45 Q33.0 79.85 33.5 81.9 L33.0 80.9 33.1 82.1 31.25 80.35 Q31.3 79.85 31.75 79.45"/><path fill="#d5d0aa" stroke="none" d="M33.5 81.9 L33.55 82.25 33.25 82.4 31.25 80.65 31.25 80.35 33.1 82.1 33.0 80.9 33.5 81.9"/><path fill="#a59c52" stroke="none" d="M32.45 79.0 L33.05 79.05 Q33.8 79.8 33.65 81.6 L33.55 82.25 33.5 81.9 Q33.0 79.85 31.75 79.45 L32.45 79.0"/><path fill="none" stroke="#000000" stroke-width="0.5" stroke-opacity="0.301960784314" d="M33.55 82.25 L33.65 81.6 Q33.8 79.8 33.05 79.05 L32.45 79.0 M33.55 82.25 L33.25 82.4 31.25 80.65"/><path fill="#000000" fill-opacity="0.301960784314" d="M29.65 68.75 L29.85 69.35 29.55 69.45 30.6 70.3 32.5 70.6 33.7 70.25 33.7 69.95 34.15 69.5 33.3 69.45 34.05 69.1 32.4 68.55 30.05 68.2 30.2 68.9 29.65 68.75"/><path fill="#a59c52" stroke="none" d="M32.2 66.45 Q32.8 69.1 31.4 70.3 L32.65 70.45 33.4 70.0 Q33.9 68.65 32.55 66.75 L32.05 66.05 32.2 66.45"/><path fill="#d5d0aa" stroke="none" d="M30.25 69.6 L31.5 66.5 32.1 67.9 32.2 66.45 32.05 66.05 31.6 66.05 Q30.65 67.15 30.05 69.25 L30.25 69.6"/><path fill="#beb87a" stroke="none" d="M32.2 66.45 L32.1 67.9 31.5 66.5 30.25 69.6 Q30.55 70.05 31.4 70.3 32.8 69.1 32.2 66.45"/><path fill="none" stroke="#000000" stroke-width="0.5" stroke-opacity="0.301960784314" d="M30.05 69.25 Q30.65 67.15 31.6 66.05 L32.05 66.05 32.55 66.75 Q33.9 68.65 33.4 70.0 L32.65 70.45"/><path fill="#000000" fill-opacity="0.301960784314" d="M31.65 74.4 L31.45 74.8 31.5 74.95 30.7 75.4 29.45 75.6 28.6 75.15 28.8 75.05 28.55 74.7 28.95 74.65 28.75 74.2 Q29.1 73.7 30.0 73.55 31.05 73.55 31.55 74.1 L31.1 74.45 31.65 74.4"/><path fill="#a59c52" stroke="none" d="M28.95 72.7 Q30.1 74.0 29.55 75.0 L30.35 74.75 30.7 74.35 Q30.7 73.55 29.25 72.75 L28.75 72.45 28.95 72.7"/><path fill="#d5d0aa" stroke="none" d="M28.6 74.85 L28.55 72.85 29.3 73.5 28.95 72.7 28.75 72.45 Q28.55 72.45 28.45 72.6 28.2 73.45 28.4 74.75 L28.6 74.85"/><path fill="#beb87a" stroke="none" d="M28.95 72.7 L29.3 73.5 28.55 72.85 28.6 74.85 29.55 75.0 Q30.1 74.0 28.95 72.7"/><path fill="none" stroke="#000000" stroke-width="0.5" stroke-opacity="0.301960784314" d="M28.4 74.75 Q28.2 73.45 28.45 72.6 28.55 72.45 28.75 72.45 L29.25 72.75 Q30.7 73.55 30.7 74.35 L30.35 74.75"/><path fill="#e0dfa7" stroke="none" d="M25.8 68.6 L25.9 68.4 26.75 68.3 26.2 69.05 Q26.1 69.5 26.65 70.25 L27.3 70.75 28.2 71.2 27.95 72.1 26.9 71.5 26.85 71.45 25.75 70.0 Q25.5 69.2 25.8 68.6 M27.65 73.0 L27.45 73.65 27.25 74.15 26.3 73.75 Q27.2 73.85 27.05 73.3 L26.4 72.5 26.3 72.4 25.8 71.55 26.35 72.2 27.65 73.0 M26.2 69.05 L26.3 68.7 26.2 69.05 M25.15 70.95 Q24.8 71.65 24.55 71.25 L25.25 70.55 25.15 70.95"/><path fill="#f7f8d0" stroke="none" d="M27.95 72.1 L27.65 73.0 26.35 72.2 25.8 71.55 26.3 72.4 26.4 72.5 27.05 73.3 Q27.2 73.85 26.3 73.75 25.1 73.2 24.35 72.2 24.0 71.5 24.3 71.15 L24.75 70.7 25.3 69.9 Q25.5 69.1 25.8 68.6 25.5 69.2 25.75 70.0 L26.85 71.45 26.9 71.5 27.95 72.1 M25.15 70.95 L25.1 71.1 25.1 71.2 25.1 71.1 25.15 70.95 25.25 70.55 24.55 71.25 Q24.8 71.65 25.15 70.95 M25.3 69.9 L25.25 70.55 25.3 69.9"/><path fill="none" stroke="#000000" stroke-width="0.5" stroke-opacity="0.301960784314" d="M25.8 68.6 L25.9 68.4 26.75 68.3 26.2 69.05 Q26.1 69.5 26.65 70.25 L27.3 70.75 28.2 71.2 27.95 72.1 27.65 73.0 27.45 73.65 27.25 74.15 26.3 73.75 Q25.1 73.2 24.35 72.2 24.0 71.5 24.3 71.15 L24.75 70.7 25.3 69.9 Q25.5 69.1 25.8 68.6 M26.3 68.7 L26.2 69.05 M25.1 71.2 L25.1 71.1 25.15 70.95 25.25 70.55 25.3 69.9"/></g><g id="c11"><g><use transform="matrix(1.0,0.0,0.0,1.0,0.0,0.0)" xlink:href="#c5"/></g></g><g id="c12"><g><use transform="matrix(1.0,0.0,0.0,1.0,6.3,53.35)" xlink:href="#c9"/></g><g><use transform="matrix(1.0,0.0,0.0,1.0,0.0,0.0)" xlink:href="#c10"/></g><g><use transform="matrix(0.0739288330078,-0.0406036376953,0.0207366943359,0.0849914550781,28.4,75.85)" filter="url(#filter12)" xlink:href="#c11"/></g><g><use transform="matrix(0.141098022461,-0.0378112792969,0.111373901367,0.225646972656,27.2,74.05)" filter="url(#filter13)" xlink:href="#c6"/></g></g><filter id="filter12"><feColorMatrix in="SourceGraphic" type="matrix" values="0.0 0.0 0.0 0.0 0.99609375 0.0 0.0 0.0 0.0 0.99609375 0.0 0.0 0.0 0.0 0.59375 0.0 0.0 0.0 0.109375 0.0" result="cxform"/><feComposite operator="in" in2="SourceGraphic" result="color-xform"/></filter><filter id="filter13"><feColorMatrix in="SourceGraphic" type="matrix" values="1.0 0.0 0.0 0.0 0.0 0.0 1.0 0.0 0.0 0.0 0.0 0.0 1.0 0.0 0.0 0.0 0.0 0.0 0.23046875 0.0" result="cxform"/><feComposite operator="in" in2="SourceGraphic" result="color-xform"/></filter></defs><g><g><use transform="matrix(1.0,0.0,0.0,1.0,0.0,0.0)" xlink:href="#c1"/></g><g><use transform="matrix(1.15496826172,0.0,0.0,1.15496826172,-1.55,-56.9)" xlink:href="#c12"/></g></g></svg>