<?xml version='1.0' encoding='UTF-8'?>
<svg xmlns:xlink="http://www.w3.org/1999/xlink" xmlns="http://www.w3.org/2000/svg" version="1.1" width="60px" height="60px" viewBox="0.0 0.0 60.0 60.0"><defs><g id="c1"><path fill="#000000" fill-opacity="0.00392156862745" d="M0.0 0.0 L60.0 0.0 60.0 60.0 0.0 60.0 0.0 0.0"/></g><g id="c2"><path fill="none" stroke="#000000" stroke-width="1.0" stroke-opacity="0.301960784314" d="M0.7 12.25 Q-0.45 9.75 0.75 8.25 1.2 7.6 2.15 7.15 2.8 6.7 3.8 6.35 L17.5 1.95 30.2 7.0 41.35 31.7 Q42.95 35.15 40.2 36.7 39.5 37.3 38.3 37.65 L19.8 43.65 Q17.15 44.45 15.5 43.3 14.35 42.55 13.65 40.9 L0.7 12.25"/><path fill="#9d147b" stroke="none" d="M35.55 22.3 L31.5 13.2 29.75 9.2 16.95 4.25 5.5 7.85 Q1.65 9.1 3.35 12.8 L8.25 23.65 15.0 38.6 15.2 39.0 Q16.8 42.25 20.45 41.1 L37.2 35.7 Q41.1 34.5 39.35 30.75 L35.55 22.3 M2.15 7.15 Q2.8 6.7 3.8 6.35 L17.5 1.95 30.2 7.0 41.35 31.7 Q42.95 35.15 40.2 36.7 L38.9 37.25 23.2 42.3 20.4 43.2 19.1 43.5 17.3 43.4 Q15.3 42.9 14.2 40.5 L5.45 20.95 1.35 11.8 Q0.4 9.65 1.1 8.3 1.45 7.65 2.15 7.15"/><path fill="#c47fad" stroke="none" d="M31.5 13.2 L35.55 22.3 39.35 30.75 Q41.1 34.5 37.2 35.7 L20.45 41.1 Q16.8 42.25 15.2 39.0 L15.0 38.6 8.25 23.65 3.35 12.8 Q1.65 9.1 5.5 7.85 L16.95 4.25 29.75 9.2 31.5 13.2 M18.5 7.45 L9.1 10.55 9.55 11.6 Q9.8 12.8 9.15 13.6 8.4 14.45 7.1 14.4 L6.8 14.4 6.95 14.6 16.3 35.2 Q16.8 36.4 17.65 37.0 18.8 37.8 20.65 37.2 L34.0 32.9 33.7 32.1 Q33.45 30.9 34.1 30.1 34.75 29.3 35.95 29.35 L35.8 29.0 27.75 10.95 18.5 7.45"/><path fill="#630a4c" stroke="none" d="M0.75 8.25 Q1.2 7.6 2.15 7.15 1.45 7.65 1.1 8.3 L0.75 8.25 M23.3 42.5 L20.1 43.55 19.1 43.5 20.4 43.2 23.2 42.3 23.3 42.5 M15.5 43.3 Q14.35 42.55 13.65 40.9 L4.6 20.9 5.45 20.95 14.2 40.5 Q15.3 42.9 17.3 43.4 L15.5 43.3"/><path fill="#300525" stroke="none" d="M4.6 20.9 L0.7 12.25 Q-0.45 9.75 0.75 8.25 L1.1 8.3 Q0.4 9.65 1.35 11.8 L5.45 20.95 4.6 20.9 M40.2 36.7 Q39.5 37.3 38.3 37.65 L23.3 42.5 23.2 42.3 38.9 37.25 40.2 36.7 M20.1 43.55 L19.8 43.65 Q17.15 44.45 15.5 43.3 L17.3 43.4 19.1 43.5 20.1 43.55"/><path fill="#fcf2cf" stroke="none" d="M27.75 10.95 L35.8 29.0 35.95 29.35 Q34.75 29.3 34.1 30.1 33.45 30.9 33.7 32.1 L34.0 32.9 20.65 37.2 Q18.8 37.8 17.65 37.0 16.8 36.4 16.3 35.2 L6.95 14.6 6.8 14.4 7.1 14.4 Q8.4 14.45 9.15 13.6 9.8 12.8 9.55 11.6 L9.1 10.55 18.5 7.45 27.75 10.95"/><path fill="none" stroke="#bf9900" stroke-width="1.0" stroke-opacity="0.749019607843" d="M31.5 13.2 L35.55 22.3 M15.0 38.6 L8.25 23.65"/><path fill="none" stroke="#ffcc00" stroke-width="1.0" stroke-opacity="0.749019607843" d="M35.55 22.3 L39.35 30.75 Q41.1 34.5 37.2 35.7 L20.45 41.1 Q16.8 42.25 15.2 39.0 L15.0 38.6 M8.25 23.65 L3.35 12.8 Q1.65 9.1 5.5 7.85 L16.95 4.25 29.75 9.2 31.5 13.2"/><path fill="none" stroke="#000000" stroke-width="0.5" stroke-opacity="0.301960784314" d="M4.6 20.9 L0.7 12.25 Q-0.45 9.75 0.75 8.25 1.2 7.6 2.15 7.15 2.8 6.7 3.8 6.35 L17.5 1.95 M30.2 7.0 L41.35 31.7 Q42.95 35.15 40.2 36.7 39.5 37.3 38.3 37.65 L23.3 42.5 20.1 43.55 19.8 43.65 Q17.15 44.45 15.5 43.3 14.35 42.55 13.65 40.9 L4.6 20.9 M5.45 20.95 L1.35 11.8 Q0.4 9.65 1.1 8.3 1.45 7.65 2.15 7.15 M19.1 43.5 L17.3 43.4 Q15.3 42.9 14.2 40.5 L5.45 20.95 M23.2 42.3 L20.4 43.2 19.1 43.5 M40.2 36.7 L38.9 37.25 23.2 42.3"/><path fill="none" stroke="#f0b92b" stroke-width="0.5" d="M27.75 10.95 L35.8 29.0 35.95 29.35 Q34.75 29.3 34.1 30.1 33.45 30.9 33.7 32.1 L34.0 32.9 20.65 37.2 Q18.8 37.8 17.65 37.0 16.8 36.4 16.3 35.2 L6.95 14.6 6.8 14.4 7.1 14.4 Q8.4 14.45 9.15 13.6 9.8 12.8 9.55 11.6 L9.1 10.55 18.5 7.45"/><path fill="none" stroke="#ffcc00" stroke-width="0.5" stroke-opacity="0.749019607843" d="M18.5 7.45 L27.75 10.95"/></g><g id="c3"><path fill="#7fdbfe" stroke="none" d="M10.75 4.9 Q10.75 4.6 10.9 4.35 11.25 3.45 11.95 2.75 13.3 1.5 14.35 2.1 15.4 2.7 14.95 4.45 14.7 5.4 14.1 6.15 L13.75 6.5 Q13.1 7.15 12.35 7.35 L11.4 7.2 Q10.95 6.9 10.75 6.4 10.5 5.75 10.75 4.9 M7.5 5.9 Q7.0 5.85 6.6 5.5 6.05 5.0 5.8 4.15 L5.7 3.6 Q5.55 2.65 5.8 1.7 6.25 0.0 7.5 0.0 L7.6 0.0 Q8.85 0.0 9.3 1.7 9.55 2.65 9.4 3.6 L9.3 4.15 8.5 5.5 7.6 5.9 7.5 5.9 M4.35 4.9 Q4.6 5.75 4.35 6.4 L3.7 7.2 2.75 7.35 Q2.0 7.15 1.35 6.5 L1.0 6.15 Q0.4 5.4 0.15 4.45 -0.3 2.7 0.75 2.1 1.8 1.5 3.15 2.75 3.85 3.45 4.2 4.35 L4.35 4.9 M5.5 13.7 Q4.45 13.9 3.65 12.95 2.75 12.0 3.2 10.25 3.7 8.5 5.25 7.6 6.4 6.9 7.55 7.0 8.75 6.9 9.9 7.6 11.45 8.5 11.95 10.25 12.35 12.0 11.5 12.95 10.7 13.9 9.65 13.7 8.55 13.5 7.55 12.6 6.55 13.5 5.5 13.7"/></g><g id="c4"><g><use transform="matrix(1.0,0.0,0.0,1.0,0.0,0.0)" xlink:href="#c3"/></g></g><radialGradient gradientUnits="userSpaceOnUse" r="819.2" cx="0" cy="0" spreadMethod="pad" gradientTransform="matrix(0.0914459228516,0.0,0.0,0.0914459228516,0.6,3.4)" id="gradient1"><stop offset="0.0" stop-color="#ffffff"/><stop offset="1.0" stop-color="#ffffff" stop-opacity="0.0"/></radialGradient><g id="c5"><path stroke="none" fill="url(#gradient1)" d="M36.65 -54.65 Q60.05 -42.0 69.75 -17.95 80.55 8.9 68.0 34.1 55.45 59.35 26.8 68.2 -1.8 77.05 -29.7 64.3 -57.6 51.6 -68.45 24.75 -79.3 -2.05 -66.75 -27.25 L-66.7 -27.3 Q-54.1 -52.5 -25.5 -61.4 3.1 -70.2 31.0 -57.5 L36.65 -54.65"/></g><g id="c6"><g><use transform="matrix(1.0,0.0,0.0,1.0,0.0,0.0)" xlink:href="#c5"/></g></g><radialGradient gradientUnits="userSpaceOnUse" r="819.2" cx="0" cy="0" spreadMethod="pad" gradientTransform="matrix(0.209197998047,0.0,0.0,0.177108764648,67.15,107.2)" id="gradient2"><stop offset="0.356862745098" stop-color="#ffffff"/><stop offset="0.670588235294" stop-opacity="0.0"/></radialGradient><g id="c7"><path fill="none" stroke-linejoin="round" stroke-linecap="round" stroke="url(#gradient2)" stroke-width="0.5" d="M136.55 165.8 L68.6 106.0 68.4 106.0 118.25 201.5 M68.3 105.8 L68.35 105.8 68.3 105.8 68.3 105.85 68.4 106.0 68.3 106.0 86.55 211.5 M68.3 105.8 L68.3 105.85 68.3 106.0 68.15 105.95 18.25 151.55 M68.3 105.85 L68.25 105.85 68.3 106.0 50.0 193.2 M68.25 105.85 L68.15 105.95 0.05 97.7 M68.3 105.85 L68.25 105.8 68.25 105.85 M68.25 105.8 L68.2 105.7 0.0 45.7 M68.3 105.8 L68.25 105.75 68.25 105.8 M68.25 105.75 L68.2 105.7 18.25 10.05 M68.6 106.0 L68.35 105.8 118.25 60.15 M86.6 18.35 L68.3 105.8 M136.6 114.25 L68.6 106.0 M68.25 105.75 L49.95 0.05"/></g><g id="c8"><g><use transform="matrix(1.0,0.0,0.0,1.0,0.0,0.0)" xlink:href="#c7"/></g></g><g id="c9"><g><use transform="matrix(1.0,0.0,0.0,1.0,0.0,0.0)" xlink:href="#c2"/></g><g><use transform="matrix(0.238861083984,-0.0867004394531,0.10026550293,0.233917236328,34.25,31.15)" xlink:href="#c4"/></g><g><use transform="matrix(0.238861083984,-0.0867004394531,0.10026550293,0.233917236328,4.25,10.3)" xlink:href="#c4"/></g><g><use transform="matrix(0.141098022461,-0.0378112792969,0.111373901367,0.225646972656,20.25,20.65)" filter="url(#filter7)" xlink:href="#c6"/></g><g><use transform="matrix(-0.155029296875,0.0513153076172,0.0841827392578,0.147033691406,22.6,3.15)" filter="url(#filter8)" xlink:href="#c8"/></g></g><filter id="filter7"><feColorMatrix in="SourceGraphic" type="matrix" values="0.0 0.0 0.0 0.0 0.796875 0.0 0.0 0.0 0.0 0.59765625 0.0 0.0 0.0 0.0 0.19921875 0.0 0.0 0.0 1.0 0.0" result="cxform"/><feComposite operator="in" in2="SourceGraphic" result="color-xform"/></filter><filter id="filter8"><feColorMatrix in="SourceGraphic" type="matrix" values="0.0 0.0 0.0 0.0 0.99609375 0.0 0.0 0.0 0.0 0.99609375 0.0 0.0 0.0 0.0 0.99609375 0.0 0.0 0.0 1.0 0.0" result="cxform"/><feComposite operator="in" in2="SourceGraphic" result="color-xform"/></filter><g id="c10"><path fill="#a9ba32" stroke="none" d="M28.95 76.9 Q29.05 74.95 27.5 69.45 29.7 73.7 28.95 76.9"/><path fill="none" stroke="#000000" stroke-width="0.5" stroke-opacity="0.301960784314" d="M28.95 76.9 Q29.05 74.95 27.5 69.45 29.7 73.7 28.95 76.9"/><path fill="#a9ba32" stroke="none" d="M29.9 75.25 Q26.5 73.45 18.6 72.6 23.65 71.0 29.9 75.25"/><path fill="none" stroke="#000000" stroke-width="0.5" stroke-opacity="0.301960784314" d="M29.9 75.25 Q26.5 73.45 18.6 72.6 23.65 71.0 29.9 75.25"/><path fill="#a9ba32" stroke="none" d="M24.7 70.6 L24.45 71.15 23.95 70.95 22.8 69.6 24.7 70.6 M26.75 73.5 L26.7 73.25 27.05 73.2 27.35 73.2 28.25 73.35 28.7 73.45 29.85 74.8 29.35 75.45 27.35 73.2 Q29.0 75.2 29.25 76.05 L29.4 76.95 28.95 76.1 28.9 76.05 Q28.2 74.9 26.75 73.5"/><path fill="#a98d4e" stroke="none" d="M22.8 69.6 L23.95 70.95 23.9 70.95 21.2 68.85 22.8 69.6"/><path fill="#ae9b51" stroke="none" d="M23.95 70.95 L24.45 71.15 24.7 70.6 Q27.2 72.05 28.7 73.45 L28.25 73.35 27.35 73.2 27.05 73.2 26.7 73.25 26.75 73.5 23.9 70.95 23.95 70.95"/><path fill="#6b7326" stroke="none" d="M28.95 76.1 L29.4 76.95 Q29.45 77.9 27.7 80.05 29.3 76.8 28.95 76.1"/><path fill="#8e992b" stroke="none" d="M29.25 76.05 Q29.0 75.2 27.35 73.2 L29.35 75.45 29.25 76.05"/><path fill="none" stroke="#000000" stroke-width="0.5" stroke-opacity="0.301960784314" d="M24.7 70.6 L22.8 69.6 21.2 68.85 23.9 70.95 26.75 73.5 Q28.2 74.9 28.9 76.05 L28.95 76.1 29.4 76.95 Q29.45 77.9 27.7 80.05 29.3 76.8 28.95 76.1 M28.7 73.45 Q27.2 72.05 24.7 70.6 M29.4 76.95 L29.25 76.05 29.35 75.45 29.85 74.8 28.7 73.45"/><path fill="#8e992b" stroke="none" d="M25.35 74.2 L25.55 74.2 26.25 74.35 27.2 74.65 29.05 75.7 28.7 75.65 28.75 75.8 29.2 76.0 29.65 76.6 29.55 76.2 29.85 76.95 Q29.4 76.05 27.7 76.15 L27.2 76.2 26.3 76.2 25.9 75.75 26.05 75.75 26.85 75.75 27.85 75.75 27.3 75.65 25.7 75.5 25.6 75.35 Q25.15 74.7 25.3 74.3 L25.35 74.2 M24.9 75.5 L24.95 75.55 25.0 75.75 24.8 75.7 23.65 75.6 19.2 75.2 24.45 75.4 24.5 75.4 24.6 75.45 24.9 75.5"/><path fill="#e1e173" stroke="none" d="M25.35 74.2 L25.3 74.3 Q25.15 74.7 25.6 75.35 L25.7 75.5 25.6 75.5 25.65 75.5 25.55 75.55 24.9 75.5 24.85 75.35 23.85 74.2 23.9 74.2 24.3 74.15 25.35 74.2 M25.9 75.75 L26.3 76.2 25.85 76.2 25.05 76.25 25.0 75.75 25.55 75.75 25.65 75.75 25.9 75.75"/><path fill="#838c26" stroke="none" d="M25.7 75.5 L27.3 75.65 27.85 75.75 26.85 75.75 26.05 75.75 25.9 75.75 25.75 75.55 25.7 75.5 M29.55 76.2 L29.65 76.6 29.2 76.0 28.75 75.8 28.7 75.65 29.05 75.7 29.15 75.75 29.55 76.2"/><path fill="#a9ba32" stroke="none" d="M23.85 74.2 L24.85 75.35 24.9 75.5 25.55 75.55 25.65 75.5 25.6 75.5 25.7 75.5 25.75 75.55 25.9 75.75 25.65 75.75 25.55 75.75 25.0 75.75 25.05 76.25 Q22.4 76.25 17.35 75.05 L18.9 74.85 19.0 74.85 19.1 74.8 20.0 74.7 23.85 74.2 M24.9 75.5 L24.6 75.45 24.5 75.4 24.45 75.4 19.2 75.2 23.65 75.6 24.8 75.7 25.0 75.75 24.95 75.55 24.9 75.5"/><path fill="none" stroke="#000000" stroke-width="0.5" stroke-opacity="0.301960784314" d="M29.05 75.7 L27.2 74.65 26.25 74.35 25.55 74.2 25.35 74.2 24.3 74.15 23.9 74.2 23.85 74.2 20.0 74.7 19.1 74.8 19.0 74.85 18.9 74.85 17.35 75.05 Q22.4 76.25 25.05 76.25 L25.85 76.2 26.3 76.2 27.2 76.2 27.7 76.15 Q29.4 76.05 29.85 76.95 L29.55 76.2 M29.05 75.7 L29.15 75.75 29.55 76.2"/><path fill="#c4b322" stroke="none" d="M36.25 76.5 Q36.7 76.5 36.55 75.8 36.35 75.1 35.75 75.35 35.25 76.05 36.25 76.5 M37.0 73.45 Q37.7 74.6 37.7 76.05 L37.7 76.65 Q37.5 77.35 36.85 77.85 32.3 80.95 26.7 82.5 26.25 82.55 26.05 81.95 25.65 79.2 24.5 76.5 L23.75 74.9 Q24.2 75.1 24.7 76.15 25.2 77.85 26.0 78.2 27.0 78.3 27.45 77.6 27.9 76.95 28.4 77.5 L29.35 78.4 Q29.8 78.8 30.3 78.8 31.5 78.95 31.8 77.75 32.05 76.65 33.1 76.9 L33.75 77.0 Q34.6 77.2 34.85 76.3 35.0 75.6 35.3 75.0 L35.4 74.95 Q37.05 75.1 37.0 73.45 M25.1 82.6 L24.75 82.7 Q23.8 82.85 22.35 82.2 L22.15 82.1 Q21.3 81.65 20.75 81.05 21.9 81.95 22.75 82.0 23.45 82.5 24.7 82.45 L25.0 82.35 25.1 82.6 M24.35 80.6 L23.1 77.3 Q22.75 76.8 22.2 77.1 21.2 77.6 21.1 78.4 21.0 79.25 21.9 80.1 22.75 80.3 22.9 79.55 22.9 78.6 22.45 78.6 22.0 78.8 22.25 79.45 L22.1 79.35 21.9 79.1 21.9 78.6 22.1 78.4 Q22.85 77.95 23.1 78.75 23.6 80.4 22.25 80.45 21.7 80.5 21.4 80.1 19.95 77.95 22.25 76.75 23.0 76.35 23.4 77.2 L24.5 80.05 24.35 80.6 M28.35 78.45 L27.6 78.45 Q27.15 78.55 27.1 79.55 27.0 80.55 28.25 80.9 28.55 80.9 28.65 80.7 29.5 79.3 28.35 78.45"/><path fill="#9f921c" stroke="none" d="M36.25 76.5 Q35.25 76.05 35.75 75.35 36.35 75.1 36.55 75.8 36.7 76.5 36.25 76.5 M23.55 74.45 L24.75 74.2 Q27.1 73.75 29.25 72.75 L31.2 71.85 32.0 71.45 33.3 71.1 Q34.35 71.05 35.4 71.75 L36.55 72.8 36.95 73.3 37.0 73.45 Q37.05 75.1 35.4 74.95 L35.3 75.0 Q35.0 75.6 34.85 76.3 34.6 77.2 33.75 77.0 L33.1 76.9 Q32.05 76.65 31.8 77.75 31.5 78.95 30.3 78.8 29.8 78.8 29.35 78.4 L28.4 77.5 Q27.9 76.95 27.45 77.6 27.0 78.3 26.0 78.2 25.2 77.85 24.7 76.15 24.2 75.1 23.75 74.9 L23.55 74.45 M37.7 76.65 Q37.5 78.55 35.7 79.65 L31.9 81.8 Q29.45 83.05 26.8 83.55 L26.4 83.6 Q25.7 83.6 25.3 83.1 26.05 83.4 26.15 82.65 L26.05 81.95 Q26.25 82.55 26.7 82.5 32.3 80.95 36.85 77.85 37.5 77.35 37.7 76.65 M24.35 80.6 L24.5 80.05 25.0 82.3 25.0 82.35 24.7 82.45 Q23.45 82.5 22.75 82.0 L23.35 81.95 Q24.1 81.65 24.35 80.6 M28.35 78.45 Q29.5 79.3 28.65 80.7 28.55 80.9 28.25 80.9 27.0 80.55 27.1 79.55 27.15 78.55 27.6 78.45 L28.35 78.45"/><path fill="#dfd04a" stroke="none" d="M25.3 83.1 L25.1 82.6 25.0 82.35 25.0 82.3 24.5 80.05 23.4 77.2 Q23.0 76.35 22.25 76.75 19.95 77.95 21.4 80.1 21.7 80.5 22.25 80.45 23.6 80.4 23.1 78.75 22.85 77.95 22.1 78.4 L21.9 78.6 21.9 79.1 22.1 79.35 22.25 79.45 Q22.0 78.8 22.45 78.6 22.9 78.6 22.9 79.55 22.75 80.3 21.9 80.1 21.0 79.25 21.1 78.4 21.2 77.6 22.2 77.1 22.75 76.8 23.1 77.3 L24.35 80.6 Q24.1 81.65 23.35 81.95 L22.75 82.0 Q21.9 81.95 20.75 81.05 19.85 79.95 19.95 78.15 20.0 76.45 20.95 75.55 21.7 74.75 23.1 74.5 L23.55 74.45 23.75 74.9 24.5 76.5 Q25.65 79.2 26.05 81.95 L26.15 82.65 Q26.05 83.4 25.3 83.1"/><path fill="none" stroke="#000000" stroke-width="0.5" stroke-opacity="0.301960784314" d="M23.55 74.45 L24.75 74.2 Q27.1 73.75 29.25 72.75 L31.2 71.85 32.0 71.45 33.3 71.1 Q34.35 71.05 35.4 71.75 L36.55 72.8 36.95 73.3 37.0 73.45 Q37.7 74.6 37.7 76.05 L37.7 76.65 Q37.5 78.55 35.7 79.65 L31.9 81.8 Q29.45 83.05 26.8 83.55 L26.4 83.6 Q25.7 83.6 25.3 83.1 L25.1 82.6 24.75 82.7 Q23.8 82.85 22.35 82.2 L22.15 82.1 Q21.3 81.65 20.75 81.05 19.85 79.95 19.95 78.15 20.0 76.45 20.95 75.55 21.7 74.75 23.1 74.5 L23.55 74.45 M24.5 80.05 L23.4 77.2 Q23.0 76.35 22.25 76.75 19.95 77.95 21.4 80.1 21.7 80.5 22.25 80.45 23.6 80.4 23.1 78.75 22.85 77.95 22.1 78.4 L21.9 78.6 21.9 79.1 22.1 79.35 22.25 79.45 M25.0 82.35 L25.0 82.3 24.5 80.05 M25.1 82.6 L25.0 82.35"/><path fill="#8e992b" stroke="none" d="M24.35 74.7 L24.2 74.85 24.35 74.85 24.65 74.7 25.4 74.7 25.05 74.65 25.75 74.75 Q24.8 74.65 24.3 75.45 L24.1 75.7 23.8 76.05 23.25 76.1 23.35 76.05 23.65 75.7 24.0 75.25 23.7 75.45 22.95 76.15 22.85 76.15 21.75 75.9 21.7 75.85 21.8 75.75 22.15 75.5 22.8 75.2 24.35 74.7 M22.65 76.45 L22.75 76.5 22.95 76.5 22.85 76.6 22.25 77.05 20.3 78.9 22.4 76.65 22.5 76.65 22.55 76.55 22.65 76.45"/><path fill="#838c26" stroke="none" d="M25.05 74.65 L25.4 74.7 24.65 74.7 24.35 74.85 24.2 74.85 24.35 74.7 24.45 74.7 24.45 74.65 25.05 74.65 M22.95 76.15 L23.7 75.45 24.0 75.25 23.65 75.7 23.35 76.05 23.25 76.1 23.05 76.15 22.95 76.15"/><path fill="#e1e173" stroke="none" d="M21.7 75.85 L21.75 75.9 22.85 76.15 22.95 76.15 22.9 76.2 22.95 76.15 22.95 76.2 22.65 76.45 22.55 76.45 21.15 76.55 21.15 76.5 21.3 76.3 21.7 75.85 M23.25 76.1 L23.8 76.05 23.65 76.3 23.35 76.65 22.95 76.5 23.15 76.25 23.25 76.1"/><path fill="#a9ba32" stroke="none" d="M22.95 76.15 L23.05 76.15 23.25 76.1 23.15 76.25 22.95 76.5 22.75 76.5 22.65 76.45 22.95 76.2 22.95 76.15 22.9 76.2 22.95 76.15 M21.15 76.55 L22.55 76.45 22.65 76.45 22.55 76.55 22.5 76.65 22.4 76.65 20.3 78.9 22.25 77.05 22.85 76.6 22.95 76.5 23.35 76.65 Q22.4 77.8 19.5 79.65 L19.9 78.9 19.9 78.85 19.95 78.85 20.15 78.4 21.15 76.55"/><path fill="none" stroke="#000000" stroke-width="0.5" stroke-opacity="0.301960784314" d="M24.35 74.7 L22.8 75.2 22.15 75.5 21.8 75.75 21.7 75.85 21.3 76.3 21.15 76.5 21.15 76.55 M23.8 76.05 L24.1 75.7 24.3 75.45 Q24.8 74.65 25.75 74.75 L25.05 74.65 24.45 74.65 24.45 74.7 24.35 74.7 M23.35 76.65 L23.65 76.3 23.8 76.05 M23.35 76.65 Q22.4 77.8 19.5 79.65 L19.9 78.9 19.9 78.85 19.95 78.85 20.15 78.4 21.15 76.55"/><path fill="#ffde4f" stroke="none" d="M36.3 73.25 Q36.7 72.3 36.2 71.75 34.8 70.5 33.7 70.6 33.95 70.85 33.8 71.2 33.35 72.3 30.5 73.25 L28.8 73.8 28.0 74.05 24.35 74.4 Q23.4 74.3 23.45 74.05 L23.65 73.7 Q23.0 73.75 22.25 74.35 L23.85 74.5 24.3 74.75 25.05 75.4 Q24.3 74.8 23.45 74.55 L23.05 74.45 Q22.45 74.35 21.8 74.75 L21.55 74.95 21.75 74.55 Q22.7 73.55 24.0 73.4 L24.85 73.25 25.9 73.1 28.0 72.5 28.35 72.35 30.75 71.25 Q31.9 70.7 33.15 70.45 L33.2 70.45 Q34.4 70.25 35.45 70.85 L36.0 71.3 Q36.5 71.7 36.7 72.25 L36.65 72.5 36.3 73.25 M35.6 75.4 L35.85 75.1 36.05 75.1 36.1 75.1 36.15 75.15 36.25 75.3 36.25 75.55 36.0 75.25 Q35.85 75.25 35.75 75.45 L35.75 75.5 35.9 75.7 35.7 75.6 35.65 75.45 35.6 75.4 M28.75 78.95 L28.7 78.8 Q28.5 78.1 28.05 78.05 L28.0 78.05 Q27.5 78.05 27.35 78.65 27.3 79.1 27.7 79.45 L28.1 79.75 27.85 79.7 27.7 79.65 27.4 79.4 27.25 79.2 27.15 78.8 27.15 78.7 Q27.25 78.2 27.55 78.05 27.7 77.9 27.9 77.9 L28.05 77.85 28.2 77.9 28.6 78.25 28.7 78.45 28.75 78.45 28.75 78.6 28.75 78.85 28.75 78.95"/><path fill="#f4a33c" stroke="none" d="M25.05 75.4 L24.3 74.75 23.85 74.5 22.25 74.35 Q23.0 73.75 23.65 73.7 L23.45 74.05 Q23.4 74.3 24.35 74.4 L28.0 74.05 28.8 73.8 30.5 73.25 Q33.35 72.3 33.8 71.2 33.95 70.85 33.7 70.6 34.8 70.5 36.2 71.75 36.7 72.3 36.3 73.25 L35.6 73.55 35.1 73.5 34.95 73.45 Q34.5 73.3 34.35 73.7 L34.25 73.95 34.05 74.7 33.9 74.95 Q33.25 75.55 32.35 74.95 31.8 74.75 31.35 75.5 L30.85 76.6 Q30.65 76.85 30.35 76.9 L29.25 76.45 28.7 76.0 28.4 75.85 27.95 75.8 27.4 76.0 Q26.45 77.05 25.25 75.6 L25.15 75.5 25.05 75.4 M36.65 72.5 L36.7 72.25 36.8 72.55 36.75 73.3 36.2 74.0 35.75 74.2 35.55 74.2 35.05 74.05 34.85 74.1 Q34.7 74.3 34.7 74.6 L34.75 75.05 34.3 76.1 33.65 76.4 Q33.0 76.4 32.65 75.95 L32.4 75.75 Q32.05 75.65 31.9 75.95 31.65 76.3 31.65 77.1 31.65 77.85 31.05 78.15 L30.0 78.25 29.05 77.5 29.0 77.45 28.3 76.65 28.25 76.6 27.9 76.6 27.75 76.8 27.1 77.45 26.65 77.65 26.0 77.5 24.9 76.35 24.75 76.15 Q25.9 77.45 26.55 77.35 27.2 77.25 27.5 76.75 27.9 76.2 28.2 76.35 L29.1 77.2 29.1 77.3 Q29.9 78.4 31.05 77.9 31.55 77.55 31.45 76.8 31.5 75.85 31.95 75.5 32.3 75.3 32.75 75.8 L34.15 75.9 Q34.65 75.35 34.55 74.45 34.55 73.95 34.8 73.85 L35.35 73.95 35.4 74.0 Q36.15 74.1 36.6 73.35 L36.65 72.5 M36.15 75.15 L36.45 75.55 36.5 75.75 36.45 75.85 36.3 76.05 36.2 76.1 Q35.5 75.85 35.6 75.45 L35.6 75.4 35.65 75.45 35.7 75.6 36.05 75.9 36.35 75.8 36.35 75.5 36.25 75.3 36.15 75.15 M35.9 75.7 L35.75 75.5 35.75 75.45 Q35.85 75.25 36.0 75.25 L36.25 75.55 36.2 75.65 36.15 75.65 36.1 75.7 36.05 75.7 35.9 75.7 M28.1 79.75 L27.7 79.45 Q27.3 79.1 27.35 78.65 27.5 78.05 28.0 78.05 L28.05 78.05 Q28.5 78.1 28.7 78.8 L28.75 78.95 28.55 79.55 28.5 79.7 28.2 79.75 28.1 79.75 M28.75 78.85 L28.75 78.6 28.75 78.45 28.75 78.55 Q29.1 79.2 28.55 80.15 L28.35 80.3 28.1 80.3 27.85 80.3 27.6 80.2 Q27.1 80.0 27.1 79.4 L27.1 79.25 27.15 78.85 27.15 78.8 27.25 79.2 Q27.15 79.6 27.45 79.9 27.85 80.25 28.35 80.1 L28.4 80.05 28.7 79.5 28.75 78.85"/><path fill="#cc6b22" stroke="none" d="M36.3 73.25 L36.65 72.5 36.6 73.35 Q36.15 74.1 35.4 74.0 L35.35 73.95 34.8 73.85 Q34.55 73.95 34.55 74.45 34.65 75.35 34.15 75.9 L32.75 75.8 Q32.3 75.3 31.95 75.5 31.5 75.85 31.45 76.8 31.55 77.55 31.05 77.9 29.9 78.4 29.1 77.3 L29.1 77.2 28.2 76.35 Q27.9 76.2 27.5 76.75 27.2 77.25 26.55 77.35 25.9 77.45 24.75 76.15 24.3 75.5 23.6 75.15 L21.45 75.1 21.55 74.95 21.8 74.75 Q22.45 74.35 23.05 74.45 L23.45 74.55 Q24.3 74.8 25.05 75.4 L25.15 75.5 25.25 75.6 Q26.45 77.05 27.4 76.0 L27.95 75.8 28.4 75.85 28.7 76.0 29.25 76.45 30.35 76.9 Q30.65 76.85 30.85 76.6 L31.35 75.5 Q31.8 74.75 32.35 74.95 33.25 75.55 33.9 74.95 L34.05 74.7 34.25 73.95 34.35 73.7 Q34.5 73.3 34.95 73.45 L35.1 73.5 35.6 73.55 36.3 73.25 M35.7 75.6 L35.9 75.7 36.05 75.7 36.1 75.7 36.15 75.65 36.2 75.65 36.25 75.55 36.25 75.3 36.35 75.5 36.35 75.8 36.05 75.9 35.7 75.6 M28.75 78.95 L28.75 78.85 28.7 79.5 28.4 80.05 28.35 80.1 Q27.85 80.25 27.45 79.9 27.15 79.6 27.25 79.2 L27.4 79.4 27.7 79.65 27.85 79.7 28.1 79.75 28.2 79.75 28.5 79.7 28.55 79.55 28.75 78.95"/><path fill="none" stroke="#000000" stroke-width="0.5" stroke-opacity="0.301960784314" d="M36.7 72.25 Q36.5 71.7 36.0 71.3 L35.45 70.85 Q34.4 70.25 33.2 70.45 L33.15 70.45 Q31.9 70.7 30.75 71.25 L28.35 72.35 28.0 72.5 25.9 73.1 24.85 73.25 24.0 73.4 Q22.7 73.55 21.75 74.55 L21.55 74.95 21.45 75.1 23.6 75.15 Q24.3 75.5 24.75 76.15 L24.9 76.35 26.0 77.5 26.65 77.65 27.1 77.45 27.75 76.8 27.9 76.6 28.25 76.6 28.3 76.65 29.0 77.45 29.05 77.5 30.0 78.25 31.05 78.15 Q31.65 77.85 31.65 77.1 31.65 76.3 31.9 75.95 32.05 75.65 32.4 75.75 L32.65 75.95 Q33.0 76.4 33.65 76.4 L34.3 76.1 34.75 75.05 34.7 74.6 Q34.7 74.3 34.85 74.1 L35.05 74.05 35.55 74.2 35.75 74.2 36.2 74.0 36.75 73.3 36.8 72.55 36.7 72.25 M35.6 75.4 L35.85 75.1 36.05 75.1 36.1 75.1 36.15 75.15 36.45 75.55 36.5 75.75 36.45 75.85 36.3 76.05 36.2 76.1 Q35.5 75.85 35.6 75.45 L35.6 75.4 M28.75 78.45 L28.7 78.45 28.6 78.25 28.2 77.9 28.05 77.85 27.9 77.9 Q27.7 77.9 27.55 78.05 27.25 78.2 27.15 78.7 L27.15 78.8 M28.75 78.45 L28.75 78.55 Q29.1 79.2 28.55 80.15 L28.35 80.3 28.1 80.3 27.85 80.3 27.6 80.2 Q27.1 80.0 27.1 79.4 L27.1 79.25 27.15 78.85 27.15 78.8"/></g><g id="c11"><g><use transform="matrix(1.0,0.0,0.0,1.0,0.0,0.0)" xlink:href="#c5"/></g></g><g id="c12"><path fill="#ffff1a" stroke="none" d="M25.9 73.25 L26.0 73.0 26.35 72.9 26.5 72.95 Q26.65 73.4 26.0 73.4 L25.95 73.4 25.9 73.25"/><path fill="#eeee00" stroke="none" d="M26.5 72.95 L26.65 73.0 26.75 73.25 26.6 73.4 26.3 73.45 26.0 73.4 Q26.65 73.4 26.5 72.95"/><path fill="none" stroke="#000000" stroke-width="0.5" stroke-opacity="0.301960784314" d="M25.9 73.25 L26.0 73.0 26.35 72.9 26.5 72.95 26.65 73.0 26.75 73.25 26.6 73.4 26.3 73.45 26.0 73.4 25.95 73.4 25.9 73.25"/><path fill="#69f00f" stroke="none" d="M25.55 74.85 L25.4 75.0 25.1 75.05 24.8 75.0 Q25.45 75.0 25.3 74.55 L25.4 74.6 25.55 74.85"/><path fill="#8cf347" stroke="none" d="M24.8 75.0 L24.65 74.85 Q24.65 74.7 24.8 74.6 L25.15 74.5 25.3 74.55 Q25.45 75.0 24.8 75.0"/><path fill="none" stroke="#000000" stroke-width="0.5" stroke-opacity="0.301960784314" d="M25.55 74.85 L25.4 75.0 25.1 75.05 24.8 75.0 24.65 74.85 Q24.65 74.7 24.8 74.6 L25.15 74.5 25.3 74.55 25.4 74.6 25.55 74.85"/><path fill="#12a2b1" stroke="none" d="M27.65 72.85 L27.8 72.95 28.0 73.35 27.8 73.6 27.3 73.7 26.9 73.6 Q27.9 73.55 27.65 72.85"/><path fill="#16cde0" stroke="none" d="M26.65 73.35 L26.85 72.95 27.35 72.8 27.65 72.85 Q27.9 73.55 26.9 73.6 L26.85 73.6 26.65 73.35"/><path fill="none" stroke="#000000" stroke-width="0.5" stroke-opacity="0.301960784314" d="M26.65 73.35 L26.85 72.95 27.35 72.8 27.65 72.85 27.8 72.95 28.0 73.35 27.8 73.6 27.3 73.7 26.9 73.6 26.85 73.6 26.65 73.35"/><path fill="#ffff1a" stroke="none" d="M28.75 72.4 L29.0 72.05 Q29.15 71.9 29.4 71.9 L29.65 71.95 Q29.85 72.55 28.95 72.6 L28.75 72.4"/><path fill="#eeee00" stroke="none" d="M29.65 71.95 L29.8 72.05 29.95 72.4 29.75 72.6 29.35 72.65 28.95 72.6 Q29.85 72.55 29.65 71.95"/><path fill="none" stroke="#000000" stroke-width="0.5" stroke-opacity="0.301960784314" d="M28.75 72.4 L29.0 72.05 Q29.15 71.9 29.4 71.9 L29.65 71.95 29.8 72.05 29.95 72.4 29.75 72.6 29.35 72.65 28.95 72.6 28.75 72.4"/><path fill="#b61636" stroke="none" d="M30.6 73.55 L30.75 73.6 30.8 73.85 30.7 74.0 30.35 74.05 30.1 74.0 Q30.75 74.0 30.6 73.55"/><path fill="#d51a40" stroke="none" d="M30.1 74.0 L30.05 74.0 29.95 73.85 30.1 73.6 30.4 73.5 30.6 73.55 Q30.75 74.0 30.1 74.0"/><path fill="none" stroke="#000000" stroke-width="0.5" stroke-opacity="0.301960784314" d="M30.6 73.55 L30.75 73.6 30.8 73.85 30.7 74.0 30.35 74.05 30.1 74.0 30.05 74.0 29.95 73.85 30.1 73.6 30.4 73.5 30.6 73.55"/><path fill="#03b827" stroke="none" d="M32.5 72.85 L32.65 72.95 32.8 73.25 32.65 73.45 32.25 73.5 31.9 73.45 Q32.7 73.4 32.5 72.85"/><path fill="#04f233" stroke="none" d="M31.7 73.25 Q31.7 73.05 31.85 72.95 L32.3 72.8 32.5 72.85 Q32.7 73.4 31.9 73.45 L31.85 73.45 31.7 73.25"/><path fill="none" stroke="#000000" stroke-width="0.5" stroke-opacity="0.301960784314" d="M31.7 73.25 Q31.7 73.05 31.85 72.95 L32.3 72.8 32.5 72.85 32.65 72.95 32.8 73.25 32.65 73.45 32.25 73.5 31.9 73.45 31.85 73.45 31.7 73.25"/><path fill="#04f233" stroke="none" d="M26.5 74.6 L26.4 74.45 26.5 74.25 26.75 74.15 26.9 74.15 Q27.1 74.55 26.5 74.6"/><path fill="#03b827" stroke="none" d="M26.9 74.15 L27.05 74.25 27.15 74.45 27.05 74.6 26.75 74.65 26.5 74.6 Q27.1 74.55 26.9 74.15"/><path fill="none" stroke="#000000" stroke-width="0.5" stroke-opacity="0.301960784314" d="M26.9 74.15 L27.05 74.25 27.15 74.45 27.05 74.6 26.75 74.65 26.5 74.6 26.4 74.45 26.5 74.25 26.75 74.15 26.9 74.15"/><path fill="#16cde0" stroke="none" d="M29.4 74.5 L29.35 74.5 29.2 74.35 29.2 74.3 29.35 74.0 29.8 73.9 29.95 73.9 Q30.2 74.45 29.4 74.5"/><path fill="#12a2b1" stroke="none" d="M29.95 73.9 L30.15 74.0 30.3 74.3 30.3 74.35 30.15 74.5 29.75 74.55 29.4 74.5 Q30.2 74.45 29.95 73.9"/><path fill="none" stroke="#000000" stroke-width="0.5" stroke-opacity="0.301960784314" d="M29.95 73.9 L30.15 74.0 30.3 74.3 M30.3 74.35 L30.15 74.5 29.75 74.55 29.4 74.5 29.35 74.5 29.2 74.35 M29.2 74.3 L29.35 74.0 29.8 73.9 29.95 73.9"/><path fill="#ffff1a" stroke="none" d="M32.4 72.15 L32.5 71.9 32.85 71.8 33.0 71.85 Q33.15 72.3 32.5 72.3 L32.45 72.3 32.4 72.15"/><path fill="#eeee00" stroke="none" d="M33.0 71.85 L33.15 71.9 33.25 72.15 33.1 72.3 32.8 72.35 32.5 72.3 Q33.15 72.3 33.0 71.85"/><path fill="none" stroke="#000000" stroke-width="0.5" stroke-opacity="0.301960784314" d="M32.4 72.15 L32.5 71.9 32.85 71.8 33.0 71.85 33.15 71.9 33.25 72.15 33.1 72.3 32.8 72.35 32.5 72.3 32.45 72.3 32.4 72.15"/><path fill="#d51a40" stroke="none" d="M25.95 75.3 L25.95 75.25 26.1 75.05 26.35 74.95 26.5 74.95 Q26.65 75.4 26.05 75.4 L25.95 75.3"/><path fill="#b61636" stroke="none" d="M26.5 74.95 L26.65 75.05 26.75 75.25 26.75 75.3 26.6 75.4 26.3 75.45 26.05 75.4 Q26.65 75.4 26.5 74.95"/><path fill="none" stroke="#000000" stroke-width="0.5" stroke-opacity="0.301960784314" d="M25.95 75.25 L26.1 75.05 26.35 74.95 26.5 74.95 26.65 75.05 26.75 75.25 M26.75 75.3 L26.6 75.4 26.3 75.45 26.05 75.4 25.95 75.3"/><path fill="#d51a40" stroke="none" d="M31.9 72.1 L32.0 71.95 32.2 71.85 32.3 71.9 32.0 72.2 31.95 72.15 31.9 72.1"/><path fill="#b61636" stroke="none" d="M32.3 71.9 L32.4 71.95 32.45 72.1 32.35 72.15 32.15 72.2 32.0 72.2 32.3 71.9"/><path fill="none" stroke="#000000" stroke-width="0.5" stroke-opacity="0.301960784314" d="M31.9 72.1 L32.0 71.95 32.2 71.85 32.3 71.9 32.4 71.95 32.45 72.1 32.35 72.15 32.15 72.2 32.0 72.2 31.95 72.15 31.9 72.1"/><path fill="#d51a40" stroke="none" d="M33.2 73.1 L33.3 72.95 33.5 72.85 33.6 72.9 33.3 73.2 33.25 73.15 33.2 73.1"/><path fill="#b61636" stroke="none" d="M33.6 72.9 L33.7 72.95 33.75 73.1 33.65 73.15 33.45 73.2 33.3 73.2 33.6 72.9"/><path fill="none" stroke="#000000" stroke-width="0.5" stroke-opacity="0.301960784314" d="M33.2 73.1 L33.3 72.95 33.5 72.85 33.6 72.9 33.7 72.95 33.75 73.1 33.65 73.15 33.45 73.2 33.3 73.2 33.25 73.15 33.2 73.1"/><path fill="#ffff1a" stroke="none" d="M31.35 74.25 L31.4 74.05 31.6 74.0 31.7 74.0 Q31.85 74.3 31.45 74.35 L31.4 74.3 31.35 74.25"/><path fill="#eeee00" stroke="none" d="M31.7 74.0 L31.8 74.05 31.9 74.25 31.8 74.3 31.6 74.35 31.45 74.35 Q31.85 74.3 31.7 74.0"/><path fill="none" stroke="#000000" stroke-width="0.5" stroke-opacity="0.301960784314" d="M31.35 74.25 L31.4 74.05 31.6 74.0 31.7 74.0 31.8 74.05 31.9 74.25 31.8 74.3 31.6 74.35 31.45 74.35 31.4 74.3 31.35 74.25"/><path fill="#69f00f" stroke="none" d="M34.25 71.7 L34.2 71.75 34.0 71.8 33.85 71.8 Q34.2 71.75 34.1 71.5 L34.2 71.55 34.25 71.7"/><path fill="#8cf347" stroke="none" d="M33.85 71.8 L33.85 71.75 33.8 71.7 33.85 71.55 34.0 71.5 34.1 71.5 Q34.2 71.75 33.85 71.8"/><path fill="none" stroke="#000000" stroke-width="0.5" stroke-opacity="0.301960784314" d="M34.25 71.7 L34.2 71.75 34.0 71.8 33.85 71.8 33.85 71.75 33.8 71.7 33.85 71.55 34.0 71.5 34.1 71.5 34.2 71.55 34.25 71.7"/><path fill="#69f00f" stroke="none" d="M29.4 73.15 L29.35 73.2 29.15 73.25 29.0 73.25 29.25 72.95 29.35 73.0 29.4 73.15"/><path fill="#8cf347" stroke="none" d="M29.0 73.25 L29.0 73.2 28.95 73.15 29.0 73.0 29.15 72.95 29.25 72.95 29.0 73.25"/><path fill="none" stroke="#000000" stroke-width="0.5" stroke-opacity="0.301960784314" d="M29.4 73.15 L29.35 73.2 29.15 73.25 29.0 73.25 29.0 73.2 28.95 73.15 29.0 73.0 29.15 72.95 29.25 72.95 29.35 73.0 29.4 73.15"/><path fill="#12a2b1" stroke="none" d="M25.5 74.8 L25.55 74.8 25.6 74.9 25.5 74.95 25.4 75.0 25.25 74.95 25.5 74.8"/><path fill="#16cde0" stroke="none" d="M25.25 74.9 L25.3 74.8 25.45 74.8 25.5 74.8 25.25 74.95 25.25 74.9"/><path fill="none" stroke="#000000" stroke-width="0.5" stroke-opacity="0.301960784314" d="M25.25 74.9 L25.3 74.8 25.45 74.8 25.5 74.8 25.55 74.8 25.6 74.9 25.5 74.95 25.4 75.0 25.25 74.95 25.25 74.9"/></g><g id="c13"><g><use transform="matrix(1.0,0.0,0.0,1.0,6.3,53.35)" xlink:href="#c9"/></g><g><use transform="matrix(1.0,0.0,0.0,1.0,0.0,0.0)" xlink:href="#c10"/></g><g><use transform="matrix(0.0978698730469,-0.0330047607422,0.0222320556641,0.0569915771484,28.3,76.5)" filter="url(#filter12)" xlink:href="#c11"/></g><g><use transform="matrix(1.0,0.0,0.0,1.0,0.0,0.0)" xlink:href="#c12"/></g><g><use transform="matrix(0.141098022461,-0.0378112792969,0.111373901367,0.225646972656,27.2,74.05)" filter="url(#filter14)" xlink:href="#c6"/></g></g><filter id="filter12"><feColorMatrix in="SourceGraphic" type="matrix" values="0.0 0.0 0.0 0.0 0.99609375 0.0 0.0 0.0 0.0 0.796875 0.0 0.0 0.0 0.0 0.0 0.0 0.0 0.0 0.140625 0.0" result="cxform"/><feComposite operator="in" in2="SourceGraphic" result="color-xform"/></filter><filter id="filter14"><feColorMatrix in="SourceGraphic" type="matrix" values="1.0 0.0 0.0 0.0 0.0 0.0 1.0 0.0 0.0 0.0 0.0 0.0 1.0 0.0 0.0 0.0 0.0 0.0 0.23046875 0.0" result="cxform"/><feComposite operator="in" in2="SourceGraphic" result="color-xform"/></filter></defs><g><g><use transform="matrix(1.0,0.0,0.0,1.0,0.0,0.0)" xlink:href="#c1"/></g><g><use transform="matrix(1.15496826172,0.0,0.0,1.15496826172,-1.55,-56.9)" xlink:href="#c13"/></g></g></svg>