<?xml version='1.0' encoding='UTF-8'?>
<svg xmlns:xlink="http://www.w3.org/1999/xlink" xmlns="http://www.w3.org/2000/svg" version="1.1" width="60px" height="60px" viewBox="0.0 0.0 60.0 60.0"><defs><g id="c1"><path fill="#000000" fill-opacity="0.00392156862745" d="M0.0 0.0 L60.0 0.0 60.0 60.0 0.0 60.0 0.0 0.0"/></g><g id="c2"><path fill="none" stroke="#000000" stroke-width="1.0" stroke-opacity="0.301960784314" d="M0.7 12.25 Q-0.45 9.75 0.75 8.25 1.2 7.6 2.15 7.15 2.8 6.7 3.8 6.35 L17.5 1.95 30.2 7.0 41.35 31.7 Q42.95 35.15 40.2 36.7 39.5 37.3 38.3 37.65 L19.8 43.65 Q17.15 44.45 15.5 43.3 14.35 42.55 13.65 40.9 L0.7 12.25"/><path fill="#9d147b" stroke="none" d="M35.55 22.3 L31.5 13.2 29.75 9.2 16.95 4.25 5.5 7.85 Q1.65 9.1 3.35 12.8 L8.25 23.65 15.0 38.6 15.2 39.0 Q16.8 42.25 20.45 41.1 L37.2 35.7 Q41.1 34.5 39.35 30.75 L35.55 22.3 M2.15 7.15 Q2.8 6.7 3.8 6.35 L17.5 1.95 30.2 7.0 41.35 31.7 Q42.95 35.15 40.2 36.7 L38.9 37.25 23.2 42.3 20.4 43.2 19.1 43.5 17.3 43.4 Q15.3 42.9 14.2 40.5 L5.45 20.95 1.35 11.8 Q0.4 9.65 1.1 8.3 1.45 7.65 2.15 7.15"/><path fill="#c47fad" stroke="none" d="M31.5 13.2 L35.55 22.3 39.35 30.75 Q41.1 34.5 37.2 35.7 L20.45 41.1 Q16.8 42.25 15.2 39.0 L15.0 38.6 8.25 23.65 3.35 12.8 Q1.65 9.1 5.5 7.85 L16.95 4.25 29.75 9.2 31.5 13.2 M18.5 7.45 L9.1 10.55 9.55 11.6 Q9.8 12.8 9.15 13.6 8.4 14.45 7.1 14.4 L6.8 14.4 6.95 14.6 16.3 35.2 Q16.8 36.4 17.65 37.0 18.8 37.8 20.65 37.2 L34.0 32.9 33.7 32.1 Q33.45 30.9 34.1 30.1 34.75 29.3 35.95 29.35 L35.8 29.0 27.75 10.95 18.5 7.45"/><path fill="#630a4c" stroke="none" d="M0.75 8.25 Q1.2 7.6 2.15 7.15 1.45 7.65 1.1 8.3 L0.75 8.25 M23.3 42.5 L20.1 43.55 19.1 43.5 20.4 43.2 23.2 42.3 23.3 42.5 M15.5 43.3 Q14.35 42.55 13.65 40.9 L4.6 20.9 5.45 20.95 14.2 40.5 Q15.3 42.9 17.3 43.4 L15.5 43.3"/><path fill="#300525" stroke="none" d="M4.6 20.9 L0.7 12.25 Q-0.45 9.75 0.75 8.25 L1.1 8.3 Q0.4 9.65 1.35 11.8 L5.45 20.95 4.6 20.9 M40.2 36.7 Q39.5 37.3 38.3 37.65 L23.3 42.5 23.2 42.3 38.9 37.25 40.2 36.7 M20.1 43.55 L19.8 43.65 Q17.15 44.45 15.5 43.3 L17.3 43.4 19.1 43.5 20.1 43.55"/><path fill="#fcf2cf" stroke="none" d="M27.75 10.95 L35.8 29.0 35.95 29.35 Q34.75 29.3 34.1 30.1 33.45 30.9 33.7 32.1 L34.0 32.9 20.65 37.2 Q18.8 37.8 17.65 37.0 16.8 36.4 16.3 35.2 L6.95 14.6 6.8 14.4 7.1 14.4 Q8.4 14.45 9.15 13.6 9.8 12.8 9.55 11.6 L9.1 10.55 18.5 7.45 27.75 10.95"/><path fill="none" stroke="#bf9900" stroke-width="1.0" stroke-opacity="0.749019607843" d="M31.5 13.2 L35.55 22.3 M15.0 38.6 L8.25 23.65"/><path fill="none" stroke="#ffcc00" stroke-width="1.0" stroke-opacity="0.749019607843" d="M35.55 22.3 L39.35 30.75 Q41.1 34.5 37.2 35.7 L20.45 41.1 Q16.8 42.25 15.2 39.0 L15.0 38.6 M8.25 23.65 L3.35 12.8 Q1.65 9.1 5.5 7.85 L16.95 4.25 29.75 9.2 31.5 13.2"/><path fill="none" stroke="#000000" stroke-width="0.5" stroke-opacity="0.301960784314" d="M4.6 20.9 L0.7 12.25 Q-0.45 9.75 0.75 8.25 1.2 7.6 2.15 7.15 2.8 6.7 3.8 6.35 L17.5 1.95 M30.2 7.0 L41.35 31.7 Q42.95 35.15 40.2 36.7 39.5 37.3 38.3 37.65 L23.3 42.5 20.1 43.55 19.8 43.65 Q17.15 44.45 15.5 43.3 14.35 42.55 13.65 40.9 L4.6 20.9 M5.45 20.95 L1.35 11.8 Q0.4 9.65 1.1 8.3 1.45 7.65 2.15 7.15 M19.1 43.5 L17.3 43.4 Q15.3 42.9 14.2 40.5 L5.45 20.95 M23.2 42.3 L20.4 43.2 19.1 43.5 M40.2 36.7 L38.9 37.25 23.2 42.3"/><path fill="none" stroke="#f0b92b" stroke-width="0.5" d="M27.75 10.95 L35.8 29.0 35.95 29.35 Q34.75 29.3 34.1 30.1 33.45 30.9 33.7 32.1 L34.0 32.9 20.65 37.2 Q18.8 37.8 17.65 37.0 16.8 36.4 16.3 35.2 L6.95 14.6 6.8 14.4 7.1 14.4 Q8.4 14.45 9.15 13.6 9.8 12.8 9.55 11.6 L9.1 10.55 18.5 7.45"/><path fill="none" stroke="#ffcc00" stroke-width="0.5" stroke-opacity="0.749019607843" d="M18.5 7.45 L27.75 10.95"/></g><g id="c3"><path fill="#7fdbfe" stroke="none" d="M10.75 4.9 Q10.75 4.6 10.9 4.35 11.25 3.45 11.95 2.75 13.3 1.5 14.35 2.1 15.4 2.7 14.95 4.45 14.7 5.4 14.1 6.15 L13.75 6.5 Q13.1 7.15 12.35 7.35 L11.4 7.2 Q10.95 6.9 10.75 6.4 10.5 5.75 10.75 4.9 M7.5 5.9 Q7.0 5.85 6.6 5.5 6.05 5.0 5.8 4.15 L5.7 3.6 Q5.55 2.65 5.8 1.7 6.25 0.0 7.5 0.0 L7.6 0.0 Q8.85 0.0 9.3 1.7 9.55 2.65 9.4 3.6 L9.3 4.15 8.5 5.5 7.6 5.9 7.5 5.9 M4.35 4.9 Q4.6 5.75 4.35 6.4 L3.7 7.2 2.75 7.35 Q2.0 7.15 1.35 6.5 L1.0 6.15 Q0.4 5.4 0.15 4.45 -0.3 2.7 0.75 2.1 1.8 1.5 3.15 2.75 3.85 3.45 4.2 4.35 L4.35 4.9 M5.5 13.7 Q4.45 13.9 3.65 12.95 2.75 12.0 3.2 10.25 3.7 8.5 5.25 7.6 6.4 6.9 7.55 7.0 8.75 6.9 9.9 7.6 11.45 8.5 11.95 10.25 12.35 12.0 11.5 12.95 10.7 13.9 9.65 13.7 8.55 13.5 7.55 12.6 6.55 13.5 5.5 13.7"/></g><g id="c4"><g><use transform="matrix(1.0,0.0,0.0,1.0,0.0,0.0)" xlink:href="#c3"/></g></g><radialGradient gradientUnits="userSpaceOnUse" r="819.2" cx="0" cy="0" spreadMethod="pad" gradientTransform="matrix(0.0914459228516,0.0,0.0,0.0914459228516,0.6,3.4)" id="gradient1"><stop offset="0.0" stop-color="#ffffff"/><stop offset="1.0" stop-color="#ffffff" stop-opacity="0.0"/></radialGradient><g id="c5"><path stroke="none" fill="url(#gradient1)" d="M36.65 -54.65 Q60.05 -42.0 69.75 -17.95 80.55 8.9 68.0 34.1 55.45 59.35 26.8 68.2 -1.8 77.05 -29.7 64.3 -57.6 51.6 -68.45 24.75 -79.3 -2.05 -66.75 -27.25 L-66.7 -27.3 Q-54.1 -52.5 -25.5 -61.4 3.1 -70.2 31.0 -57.5 L36.65 -54.65"/></g><g id="c6"><g><use transform="matrix(1.0,0.0,0.0,1.0,0.0,0.0)" xlink:href="#c5"/></g></g><radialGradient gradientUnits="userSpaceOnUse" r="819.2" cx="0" cy="0" spreadMethod="pad" gradientTransform="matrix(0.209197998047,0.0,0.0,0.177108764648,67.15,107.2)" id="gradient2"><stop offset="0.356862745098" stop-color="#ffffff"/><stop offset="0.670588235294" stop-opacity="0.0"/></radialGradient><g id="c7"><path fill="none" stroke-linejoin="round" stroke-linecap="round" stroke="url(#gradient2)" stroke-width="0.5" d="M136.55 165.8 L68.6 106.0 68.4 106.0 118.25 201.5 M68.3 105.8 L68.35 105.8 68.3 105.8 68.3 105.85 68.4 106.0 68.3 106.0 86.55 211.5 M68.3 105.8 L68.3 105.85 68.3 106.0 68.15 105.95 18.25 151.55 M68.3 105.85 L68.25 105.85 68.3 106.0 50.0 193.2 M68.25 105.85 L68.15 105.95 0.05 97.7 M68.3 105.85 L68.25 105.8 68.25 105.85 M68.25 105.8 L68.2 105.7 0.0 45.7 M68.3 105.8 L68.25 105.75 68.25 105.8 M68.25 105.75 L68.2 105.7 18.25 10.05 M68.6 106.0 L68.35 105.8 118.25 60.15 M86.6 18.35 L68.3 105.8 M136.6 114.25 L68.6 106.0 M68.25 105.75 L49.95 0.05"/></g><g id="c8"><g><use transform="matrix(1.0,0.0,0.0,1.0,0.0,0.0)" xlink:href="#c7"/></g></g><g id="c9"><g><use transform="matrix(1.0,0.0,0.0,1.0,0.0,0.0)" xlink:href="#c2"/></g><g><use transform="matrix(0.238861083984,-0.0867004394531,0.10026550293,0.233917236328,34.25,31.15)" xlink:href="#c4"/></g><g><use transform="matrix(0.238861083984,-0.0867004394531,0.10026550293,0.233917236328,4.25,10.3)" xlink:href="#c4"/></g><g><use transform="matrix(0.141098022461,-0.0378112792969,0.111373901367,0.225646972656,20.25,20.65)" filter="url(#filter7)" xlink:href="#c6"/></g><g><use transform="matrix(-0.155029296875,0.0513153076172,0.0841827392578,0.147033691406,22.6,3.15)" filter="url(#filter8)" xlink:href="#c8"/></g></g><filter id="filter7"><feColorMatrix in="SourceGraphic" type="matrix" values="0.0 0.0 0.0 0.0 0.796875 0.0 0.0 0.0 0.0 0.59765625 0.0 0.0 0.0 0.0 0.19921875 0.0 0.0 0.0 1.0 0.0" result="cxform"/><feComposite operator="in" in2="SourceGraphic" result="color-xform"/></filter><filter id="filter8"><feColorMatrix in="SourceGraphic" type="matrix" values="0.0 0.0 0.0 0.0 0.99609375 0.0 0.0 0.0 0.0 0.99609375 0.0 0.0 0.0 0.0 0.99609375 0.0 0.0 0.0 1.0 0.0" result="cxform"/><feComposite operator="in" in2="SourceGraphic" result="color-xform"/></filter><linearGradient gradientUnits="userSpaceOnUse" x1="-819.2" x2="819.2" spreadMethod="pad" gradientTransform="matrix(-0.0115661621094,0.000885009765625,-0.000473022460938,-0.00624084472656,10.7,7.6)" id="gradient3"><stop offset="0.0" stop-color="#3c3122"/><stop offset="1.0"/></linearGradient><radialGradient gradientUnits="userSpaceOnUse" r="819.2" cx="0" cy="0" spreadMethod="pad" gradientTransform="matrix(0.0123138427734,0.0,0.0,0.00872802734375,12.2,-2.35)" id="gradient4"><stop offset="0.0" stop-color="#cc3300"/><stop offset="1.0" stop-color="#4a1100"/></radialGradient><radialGradient gradientUnits="userSpaceOnUse" r="819.2" cx="0" cy="0" spreadMethod="pad" gradientTransform="matrix(0.00993347167969,-9.1552734375e-05,9.1552734375e-05,0.00993347167969,-18.95,-1.75)" id="gradient5"><stop offset="0.0" stop-color="#ffffff"/><stop offset="1.0" stop-color="#bbbbbb"/></radialGradient><g id="c10"><path fill="#564a32" stroke="none" d="M2.5 -0.3 L2.55 -0.75 Q2.85 -2.1 5.35 -3.15 8.5 -4.5 13.25 -4.6 18.05 -4.75 21.6 -3.6 23.4 -3.0 24.35 -2.25 L25.25 -1.25 25.35 -1.05 25.4 -0.85 25.35 -0.85 25.3 -0.5 24.7 0.6 22.45 2.05 21.0 2.6 16.45 3.5 16.3 3.5 16.05 3.55 14.45 3.6 13.15 3.7 13.05 3.7 12.1 3.65 6.4 2.9 5.8 2.7 Q4.05 2.0 3.25 1.2 L3.15 1.1 3.0 0.9 2.5 -0.05 2.5 -0.3 M-25.5 6.95 L-25.5 6.9 Q-25.4 4.8 -21.55 3.1 L-21.15 2.95 Q-16.9 1.25 -10.55 1.1 L-7.35 1.1 -7.25 1.1 -5.15 1.25 Q-1.8 1.6 1.05 2.5 L2.25 2.95 2.3 2.95 2.65 3.1 Q4.9 4.05 5.85 5.25 L6.1 5.65 6.3 6.1 6.4 6.6 6.45 6.7 6.4 6.9 6.0 7.9 5.95 7.95 Q5.05 9.25 2.4 10.4 -0.75 11.75 -5.15 12.25 L-8.55 12.45 -17.9 11.6 -20.15 11.0 Q-24.05 9.75 -25.1 8.0 L-25.4 7.25 -25.5 6.95"/><path fill="#4d422c" stroke="none" d="M2.5 -0.3 L2.5 -0.05 3.0 0.9 3.15 1.1 3.25 1.2 Q4.05 2.0 5.8 2.7 L6.4 2.9 6.55 2.95 12.4 3.9 13.35 3.95 13.45 3.95 14.75 3.9 16.3 3.85 13.45 4.3 13.35 4.3 11.55 4.7 Q9.2 5.3 7.85 6.15 6.9 6.75 6.45 7.4 L6.45 6.7 6.4 6.6 6.3 6.1 6.1 5.65 5.85 5.25 Q4.9 4.05 2.65 3.1 L2.3 2.95 2.25 2.95 1.05 2.5 Q-1.8 1.6 -5.15 1.25 L-2.2 1.25 -1.95 1.25 Q0.4 1.1 1.6 0.5 L2.2 0.1 2.25 0.05 2.5 -0.3"/><path fill="#917045" stroke="none" d="M6.4 2.9 L12.1 3.65 13.05 3.7 13.15 3.7 14.45 3.6 16.05 3.55 16.3 3.5 16.45 3.5 21.0 2.6 22.45 2.05 24.7 0.6 25.3 -0.5 25.35 -0.85 25.4 -0.85 25.45 -0.65 25.5 -0.45 25.45 -0.05 24.9 1.05 Q24.2 1.8 22.65 2.45 L21.2 3.0 16.7 3.8 16.55 3.8 16.3 3.85 14.75 3.9 13.45 3.95 13.35 3.95 12.4 3.9 6.55 2.95 6.4 2.9 M23.2 6.85 L22.6 7.1 21.15 7.65 Q19.15 8.25 16.65 8.45 L16.5 8.45 16.25 8.5 13.5 8.95 13.5 7.15 16.3 6.7 16.55 6.65 16.7 6.65 21.2 5.85 22.65 5.3 23.2 5.05 23.2 6.85 M1.7 15.9 Q-0.45 16.7 -3.1 17.1 L-5.1 17.4 -8.55 17.6 -16.15 17.1 -17.9 16.75 -18.85 16.55 -18.85 14.7 -17.85 14.95 -16.1 15.3 -8.5 15.8 -5.05 15.6 -3.05 15.3 Q-0.45 14.9 1.7 14.1 L1.7 15.9 M-25.45 7.45 L-25.45 7.3 -25.5 7.1 -25.5 6.95 -25.4 7.25 -25.1 8.0 Q-24.05 9.75 -20.15 11.0 L-17.9 11.6 -8.55 12.45 -5.15 12.25 Q-0.75 11.75 2.4 10.4 5.05 9.25 5.95 7.95 L6.0 7.9 6.4 6.9 6.45 6.7 6.45 7.4 6.05 8.4 6.0 8.45 Q5.1 9.75 2.45 10.9 -0.7 12.25 -5.1 12.75 L-8.5 12.95 -17.85 12.1 -20.05 11.5 Q-24.0 10.25 -25.05 8.5 L-25.45 7.45"/><path stroke="none" fill="url(#gradient3)" d="M25.45 -0.05 L25.5 2.2 25.5 2.8 25.45 3.1 Q25.0 4.15 23.2 5.05 L22.65 5.3 21.2 5.85 21.2 3.0 22.65 2.45 Q24.2 1.8 24.9 1.05 L25.45 -0.05"/><path fill="#85653f" stroke="none" d="M25.45 3.1 L25.45 4.6 Q25.25 5.85 23.2 6.85 L23.2 5.05 Q25.0 4.15 25.45 3.1 M6.45 11.95 L6.35 12.55 6.0 13.1 Q5.1 14.4 2.45 15.55 L1.7 15.9 1.7 14.1 2.5 13.75 Q5.15 12.6 6.05 11.3 L6.4 10.6 6.45 10.4 6.45 11.95"/><path fill="#30271b" stroke="none" d="M21.2 3.0 L21.2 5.85 16.7 6.65 16.55 6.65 16.3 6.7 13.5 7.15 13.45 7.15 13.45 4.3 16.3 3.85 16.55 3.8 16.7 3.8 21.2 3.0"/><path fill="#221c13" stroke="none" d="M6.45 7.4 Q6.9 6.75 7.85 6.15 9.2 5.3 11.55 4.7 L13.35 4.3 13.45 4.3 13.45 7.15 13.35 7.15 11.55 7.55 Q7.6 8.6 6.45 10.25 L6.45 7.4"/><path fill="#6b5033" stroke="none" d="M13.5 8.95 L13.4 8.95 13.3 8.95 11.5 9.35 Q7.55 10.4 6.45 12.05 L6.45 11.95 6.45 10.4 6.45 10.25 Q7.6 8.6 11.55 7.55 L13.35 7.15 13.45 7.15 13.5 7.15 13.5 8.95"/><path fill="#2b2218" stroke="none" d="M6.45 10.25 L6.45 10.4 6.4 10.6 6.05 11.3 Q5.15 12.6 2.5 13.75 L1.7 14.1 Q-0.45 14.9 -3.05 15.3 L-5.05 15.6 -5.1 12.75 Q-0.7 12.25 2.45 10.9 5.1 9.75 6.0 8.45 L6.05 8.4 6.45 7.4 6.45 10.25"/><path fill="#3c3122" stroke="none" d="M-25.45 10.15 L-25.45 10.0 -25.45 9.7 -25.5 7.45 -25.45 7.45 -25.05 8.5 Q-24.0 10.25 -20.05 11.5 L-17.85 12.1 -17.85 14.95 -18.85 14.7 -20.05 14.35 Q-25.0 12.75 -25.45 10.3 L-25.45 10.2 -25.45 10.15"/><path fill="#33291d" stroke="none" d="M-17.85 12.1 L-8.5 12.95 -5.1 12.75 -5.05 15.6 -8.5 15.8 -16.1 15.3 -17.85 14.95 -17.85 12.1"/><path fill="#a67e4f" stroke="none" d="M-18.85 16.55 L-20.1 16.15 Q-25.05 14.55 -25.45 12.1 L-25.45 11.95 -25.5 10.2 -25.45 10.15 -25.45 10.2 -25.45 10.3 Q-25.0 12.75 -20.05 14.35 L-18.85 14.7 -18.85 16.55"/><path fill="none" stroke="#000000" stroke-width="0.5" stroke-opacity="0.101960784314" d="M25.4 -0.85 L25.35 -1.05 25.25 -1.25 24.35 -2.25 Q23.4 -3.0 21.6 -3.6 18.05 -4.75 13.25 -4.6 8.5 -4.5 5.35 -3.15 2.85 -2.1 2.55 -0.75 L2.5 -0.3 2.5 -0.05 3.0 0.9 3.15 1.1 3.25 1.2 Q4.05 2.0 5.8 2.7 L6.4 2.9 12.1 3.65 13.05 3.7 13.15 3.7 14.45 3.6 16.05 3.55 16.3 3.5 16.45 3.5 21.0 2.6 22.45 2.05 24.7 0.6 25.3 -0.5 25.35 -0.85 25.4 -0.85 M-25.5 6.95 L-25.5 6.9 Q-25.4 4.8 -21.55 3.1 L-21.15 2.95 Q-16.9 1.25 -10.55 1.1 L-7.35 1.1 -7.25 1.1 -5.15 1.25 -2.2 1.25 -1.95 1.25 Q0.4 1.1 1.6 0.5 L2.2 0.1 2.25 0.05 2.5 -0.3 M6.45 7.4 Q6.9 6.75 7.85 6.15 9.2 5.3 11.55 4.7 L13.35 4.3 13.45 4.3 16.3 3.85 14.75 3.9 13.45 3.95 13.35 3.95 12.4 3.9 6.55 2.95 6.4 2.9 M-5.15 1.25 Q-1.8 1.6 1.05 2.5 L2.25 2.95 2.3 2.95 2.65 3.1 Q4.9 4.05 5.85 5.25 L6.1 5.65 6.3 6.1 6.4 6.6 6.45 6.7 6.45 7.4 M6.45 6.7 L6.4 6.9 6.0 7.9 5.95 7.95 Q5.05 9.25 2.4 10.4 -0.75 11.75 -5.15 12.25 L-8.55 12.45 -17.9 11.6 -20.15 11.0 Q-24.05 9.75 -25.1 8.0 L-25.4 7.25 -25.5 6.95"/><path fill="none" stroke="#000000" stroke-width="0.5" stroke-opacity="0.2" d="M25.45 -0.05 L25.5 2.2 25.5 2.8 25.45 3.1 25.45 4.6 Q25.25 5.85 23.2 6.85 L22.6 7.1 21.15 7.65 Q19.15 8.25 16.65 8.45 L16.5 8.45 16.25 8.5 13.5 8.95 13.4 8.95 13.3 8.95 11.5 9.35 Q7.55 10.4 6.45 12.05 L6.45 11.95 6.35 12.55 6.0 13.1 Q5.1 14.4 2.45 15.55 L1.7 15.9 Q-0.45 16.7 -3.1 17.1 L-5.1 17.4 -8.55 17.6 -16.15 17.1 -17.9 16.75 -18.85 16.55 -20.1 16.15 Q-25.05 14.55 -25.45 12.1 L-25.45 11.95 -25.5 10.2 -25.45 10.15 -25.45 10.0 -25.45 9.7 -25.5 7.45 -25.45 7.45"/><path fill="#ffffff" stroke="none" d="M-15.9 -2.15 L-15.85 -2.15 -15.8 -2.15 -15.1 -2.45 -9.05 -2.25 Q-6.6 -1.35 -4.4 0.6 -3.6 3.45 -5.65 5.45 -8.7 8.35 -17.55 8.65 L-21.55 8.05 Q-25.35 6.95 -24.35 4.3 L-23.2 2.7 Q-21.2 0.15 -15.9 -2.15"/><path fill="#beb07c" stroke="none" d="M-15.9 -2.15 L-15.5 -2.35 -15.8 -2.15 -15.85 -2.15 -15.9 -2.15"/><path fill="#ababab" stroke="none" d="M-4.4 0.6 L-3.9 1.05 Q-1.9 3.0 -0.25 5.75 1.3 8.3 2.2 11.05 L-1.85 12.15 -3.45 12.3 -3.5 12.3 Q-6.3 12.55 -9.75 12.4 L-16.45 11.7 Q-22.15 10.65 -24.4 8.85 -25.2 8.1 -25.45 7.3 L-25.45 6.75 -25.45 6.45 Q-25.3 5.7 -24.35 4.3 -25.35 6.95 -21.55 8.05 L-17.55 8.65 Q-8.7 8.35 -5.65 5.45 -3.6 3.45 -4.4 0.6"/><path fill="#757575" stroke="none" d="M2.2 11.05 L2.25 11.2 2.25 12.0 -1.85 13.15 -3.45 13.3 -3.5 13.3 Q-6.3 13.55 -9.75 13.4 L-16.45 12.7 Q-22.15 11.65 -24.4 9.85 -25.2 9.1 -25.45 8.3 L-25.5 7.3 -25.45 7.3 Q-25.2 8.1 -24.4 8.85 -22.15 10.65 -16.45 11.7 L-9.75 12.4 Q-6.3 12.55 -3.5 12.3 L-3.45 12.3 -1.85 12.15 2.2 11.05"/><path fill="#7e1a01" stroke="none" d="M-25.5 7.3 L-25.5 7.25 -25.45 7.3 -25.5 7.3"/><path fill="#674d32" stroke="none" d="M-25.5 7.25 L-25.45 6.75 -25.45 7.3 -25.5 7.25"/><path fill="none" stroke="#000000" stroke-width="0.5" stroke-opacity="0.2" d="M-15.8 -2.15 L-15.5 -2.35 -15.9 -2.15 M-15.85 -2.15 L-15.8 -2.15 -15.1 -2.45 -9.05 -2.25 Q-6.6 -1.35 -4.4 0.6 L-3.9 1.05 Q-1.9 3.0 -0.25 5.75 1.3 8.3 2.2 11.05 M-25.45 6.75 L-25.45 6.45 Q-25.3 5.7 -24.35 4.3 L-23.2 2.7 Q-21.2 0.15 -15.9 -2.15"/><path fill="#32251b" stroke="none" d="M6.05 0.1 L5.85 -0.4 5.85 -0.55 5.9 -0.9 Q6.1 -1.85 7.9 -2.6 10.15 -3.6 13.55 -3.65 17.0 -3.75 19.55 -2.95 L21.5 -1.95 22.15 -1.25 22.25 -1.1 22.25 -0.95 22.2 -0.7 22.2 -0.65 22.05 -0.3 21.8 -0.55 21.15 -1.1 Q18.2 -3.3 14.25 -3.3 9.85 -3.3 6.7 -0.55 L6.05 0.1"/><path fill="#330a00" stroke="none" d="M21.15 -1.1 L21.8 -0.55 22.05 -0.3 21.9 -0.1 21.75 0.1 20.15 1.1 19.1 1.5 16.75 2.15 16.4 2.2 15.3 2.25 14.4 2.25 13.5 2.3 13.4 2.3 12.75 2.25 8.65 1.75 8.2 1.6 8.05 1.55 17.8 1.25 Q21.45 -0.15 21.15 -1.1"/><path stroke="none" fill="url(#gradient4)" d="M6.05 0.1 L6.7 -0.55 Q9.85 -3.3 14.25 -3.3 18.2 -3.3 21.15 -1.1 21.45 -0.15 17.8 1.25 L8.05 1.55 7.8 1.45 6.4 0.5 6.3 0.45 6.2 0.3 6.1 0.15 6.05 0.1"/><path fill="#cc3300" stroke="none" d="M18.15 -0.3 Q17.0 0.45 14.9 0.7 L11.05 0.6 Q9.25 0.25 8.8 -0.55 8.4 -1.35 9.55 -2.15 10.75 -2.9 12.85 -3.15 L16.7 -3.05 Q18.5 -2.7 18.95 -1.9 19.35 -1.1 18.15 -0.3"/><path fill="#e6e6e6" stroke="none" d="M13.5 7.2 L16.3 6.75 16.55 6.7 16.7 6.7 17.15 6.65 21.2 5.9 21.35 5.85 22.65 5.35 23.2 5.1 23.2 6.9 22.6 7.15 21.15 7.7 17.15 8.45 16.65 8.5 16.5 8.5 16.25 8.55 13.5 9.0 13.5 7.2 M1.7 15.95 Q-0.45 16.75 -3.1 17.15 L-5.1 17.45 -8.55 17.65 -16.15 17.15 -17.9 16.8 -18.85 16.6 -18.85 14.75 -17.85 15.0 -16.1 15.35 -8.5 15.85 -5.05 15.65 -3.05 15.35 Q-0.45 14.95 1.7 14.15 L1.7 15.95"/><path fill="#cccccc" stroke="none" d="M23.2 5.1 Q25.0 4.2 25.45 3.15 L25.45 4.65 Q25.25 5.75 23.65 6.7 L23.2 6.9 23.2 5.1 M6.45 12.0 L6.35 12.6 6.0 13.15 Q5.1 14.45 2.45 15.6 L1.7 15.95 1.7 14.15 2.5 13.8 Q5.15 12.65 6.05 11.35 L6.4 10.65 6.45 10.45 6.45 12.0"/><path fill="#a67e4f" stroke="none" d="M-25.5 10.4 L-25.5 10.25 -25.45 10.2 -25.45 10.25 -25.45 10.35 -25.5 10.4"/><path fill="#ffffff" stroke="none" d="M-18.85 16.6 L-20.1 16.2 Q-25.05 14.6 -25.45 12.15 L-25.45 12.0 -25.5 10.4 -25.45 10.35 Q-25.0 12.8 -20.05 14.4 L-18.85 14.75 -18.85 16.6"/><path fill="#999999" stroke="none" d="M13.5 9.0 L13.4 9.0 13.3 9.0 11.5 9.4 Q7.55 10.45 6.45 12.1 L6.45 12.0 6.45 10.45 6.45 10.3 Q7.6 8.65 11.55 7.6 L13.35 7.2 13.45 7.2 13.5 7.2 13.5 9.0"/><path fill="none" stroke="#000000" stroke-width="0.5" stroke-opacity="0.2" d="M25.45 3.15 L25.45 4.65 Q25.25 5.75 23.65 6.7 L23.2 6.9 22.6 7.15 21.15 7.7 17.15 8.45 16.65 8.5 16.5 8.5 16.25 8.55 13.5 9.0 13.4 9.0 13.3 9.0 11.5 9.4 Q7.55 10.45 6.45 12.1 L6.45 12.0 6.35 12.6 6.0 13.15 Q5.1 14.45 2.45 15.6 L1.7 15.95 Q-0.45 16.75 -3.1 17.15 L-5.1 17.45 -8.55 17.65 -16.15 17.15 -17.9 16.8 -18.85 16.6 -20.1 16.2 Q-25.05 14.6 -25.45 12.15 L-25.45 12.0 -25.5 10.4 -25.5 10.25 -25.45 10.2"/><path stroke="none" fill="url(#gradient5)" d="M-23.5 6.15 L-23.55 5.9 -23.6 5.75 -23.7 5.15 -23.75 4.2 Q-23.8 1.3 -21.75 -0.8 -19.65 -2.85 -16.7 -2.9 L-16.15 -2.85 -15.35 -2.75 -15.2 -2.7 -15.15 -2.7 -14.75 -2.65 -13.55 -2.15 Q-12.25 -1.15 -12.15 0.65 L-12.15 1.55 Q-12.2 2.55 -12.7 3.55 L-13.25 4.5 Q-14.6 6.55 -17.0 7.45 L-21.4 7.75 Q-22.65 7.3 -23.35 6.35 L-23.45 6.25 -23.45 6.2 -23.5 6.15"/><path fill="#362b1f" stroke="none" d="M-11.05 -0.2 L-10.95 -0.1 -10.2 0.9 -9.95 1.6 Q-9.45 3.65 -11.1 5.85 -12.7 8.0 -15.55 9.1 -18.35 10.2 -20.6 9.6 -22.4 9.05 -23.05 7.7 L-23.1 7.6 -23.1 7.55 -23.2 7.3 -23.35 6.9 -23.55 6.05 -23.55 6.0 -23.5 6.15 -23.45 6.2 -23.45 6.25 -23.35 6.6 -23.2 6.85 -23.2 6.9 -23.15 7.0 Q-22.55 8.3 -20.85 8.8 -18.7 9.45 -15.95 8.35 -13.2 7.3 -11.6 5.2 -10.0 3.1 -10.45 1.15 L-10.65 0.45 -10.9 0.0 -11.05 -0.2"/><path fill="#a3a3a3" stroke="none" d="M-14.75 -2.65 Q-13.1 -2.25 -11.75 -0.9 L-11.6 -0.75 -11.05 -0.2 -10.9 0.0 -10.65 0.45 -10.45 1.15 Q-10.0 3.1 -11.6 5.2 -13.2 7.3 -15.95 8.35 -18.7 9.45 -20.85 8.8 -22.55 8.3 -23.15 7.0 L-23.2 6.9 -23.2 6.85 -23.35 6.6 -23.45 6.25 -23.35 6.35 Q-22.65 7.3 -21.4 7.75 L-17.0 7.45 Q-14.6 6.55 -13.25 4.5 L-12.7 3.55 Q-12.2 2.55 -12.15 1.55 L-12.15 0.65 Q-12.25 -1.15 -13.55 -2.15 L-14.75 -2.65"/><path fill="#ffffff" fill-opacity="0.501960784314" d="M-15.55 -2.7 Q-14.2 -2.1 -14.2 -0.75 -14.2 0.65 -15.5 1.95 -16.75 3.35 -18.65 4.0 -20.5 4.55 -21.85 3.95 -23.1 3.45 -23.1 2.05 -23.15 0.7 -21.9 -0.7 -20.55 -2.0 -18.7 -2.55 L-15.55 -2.7"/><path fill="#b83636" stroke="none" d="M-22.15 2.4 Q-21.4 1.85 -20.6 1.9 -19.75 2.1 -19.3 2.8 -18.75 3.5 -18.9 4.5 -18.95 5.55 -19.55 6.05 -20.15 6.5 -21.0 6.45 -21.85 6.35 -22.4 5.55 -22.95 4.85 -23.0 4.05 -23.1 3.25 -22.15 2.4"/><path fill="#ffffff" stroke="none" d="M-22.5 2.8 L-22.75 3.2 -23.15 3.3 -23.45 3.15 -23.45 2.7 -23.15 2.35 Q-22.95 2.2 -22.8 2.2 -22.55 2.2 -22.5 2.4 L-22.5 2.8"/><path fill="none" stroke="#000000" stroke-width="0.5" stroke-opacity="0.2" d="M-15.35 -2.75 L-15.2 -2.7 -14.75 -2.65 Q-13.1 -2.25 -11.75 -0.9 L-11.6 -0.75 -11.05 -0.2 -10.95 -0.1 -10.2 0.9 -9.95 1.6 Q-9.45 3.65 -11.1 5.85 -12.7 8.0 -15.55 9.1 -18.35 10.2 -20.6 9.6 -22.4 9.05 -23.05 7.7 L-23.1 7.6 -23.1 7.55 -23.2 7.3 -23.35 6.9 -23.55 6.05 -23.55 6.0 -23.5 6.15 -23.55 5.9 -23.6 5.75 -23.7 5.15 -23.75 4.2 Q-23.75 1.95 -22.55 0.2 L-21.9 -0.7 -21.0 -1.4 Q-19.65 -2.5 -17.9 -2.8 L-16.05 -2.85 -15.35 -2.75"/><path fill="#ffffff" stroke="none" d="M-18.15 5.2 L-18.7 5.65 -19.6 5.5 Q-19.9 5.35 -20.0 4.85 L-19.9 4.05 -19.25 3.6 -18.5 3.7 Q-18.1 3.9 -18.0 4.35 L-18.15 5.2"/><path fill="#ffffff" fill-opacity="0.4" d="M-2.0 9.25 L-1.4 9.05 -0.7 9.2 -0.4 9.7 -0.75 10.1 -1.35 10.3 -2.0 10.2 -2.3 9.75 -2.0 9.25"/><path fill="#ffffff" fill-opacity="0.6" d="M0.1 9.35 L0.45 9.35 0.8 9.6 0.85 9.9 0.65 10.05 0.3 10.0 -0.05 9.85 -0.1 9.55 0.1 9.35"/><path fill="#ffffff" stroke="none" d="M-2.85 -2.5 L-2.9 -2.55 Q-3.95 -3.8 -3.45 -5.85 -2.7 -9.1 1.6 -12.4 L3.75 -13.85 3.9 -13.95 5.5 -14.9 Q8.15 -16.3 11.15 -17.1 14.95 -18.1 17.7 -17.8 L19.65 -17.25 19.8 -17.2 20.65 -16.8 21.35 -16.15 22.05 -15.0 Q22.3 -14.35 22.15 -13.6 L22.05 -12.75 Q21.45 -10.4 18.9 -7.85 L17.0 -6.25 Q13.35 -3.4 9.0 -2.05 L8.75 -1.9 7.4 -1.5 Q2.7 -0.25 -0.35 -1.1 L-0.75 -1.25 -1.05 -1.4 -1.2 -1.45 -2.1 -1.95 -2.85 -2.55 -2.85 -2.5 M20.65 -13.05 L20.6 -14.0 20.55 -14.35 19.9 -15.35 19.25 -15.95 18.55 -16.25 18.4 -16.35 16.6 -16.8 Q14.25 -17.1 10.85 -16.2 8.2 -15.5 5.8 -14.25 L4.45 -13.4 4.3 -13.35 2.4 -12.0 2.35 -12.0 Q-1.45 -9.1 -2.1 -6.2 L-2.25 -4.7 Q-2.15 -3.9 -1.65 -3.25 -1.0 -2.65 0.0 -2.25 L0.3 -2.15 0.7 -2.0 7.55 -2.35 8.7 -2.7 8.9 -2.85 Q12.8 -4.05 16.0 -6.55 19.85 -9.5 20.5 -12.35 L20.65 -13.05"/><path fill="#999999" stroke="none" d="M2.4 -12.0 L4.3 -13.35 4.45 -13.4 5.8 -14.25 Q8.2 -15.5 10.85 -16.2 14.25 -17.1 16.6 -16.8 L18.4 -16.35 18.55 -16.25 19.25 -15.95 19.9 -15.35 20.55 -14.35 20.6 -14.0 20.65 -13.05 20.4 -13.2 15.1 -13.5 Q12.45 -13.3 9.8 -12.45 L8.2 -11.85 5.8 -10.75 3.7 -9.6 2.4 -12.0"/><path fill="#bfbfbf" stroke="none" d="M22.05 -15.0 L23.45 -12.85 23.35 -12.85 23.55 -12.75 24.45 -11.25 24.45 -11.15 24.5 -11.0 Q24.6 -10.0 24.0 -8.7 L23.45 -7.9 21.15 -5.4 18.9 -7.85 Q21.45 -10.4 22.05 -12.75 L22.15 -13.6 Q22.3 -14.35 22.05 -15.0"/><path fill="#cccccc" stroke="none" d="M21.15 -5.4 Q19.2 -3.75 16.15 -2.25 11.75 -0.05 7.3 0.65 L7.05 0.7 5.7 0.85 Q1.55 1.25 -0.7 0.25 L-2.85 -2.5 -2.85 -2.55 -2.1 -1.95 -1.2 -1.45 -1.05 -1.4 -0.75 -1.25 -0.35 -1.1 Q2.7 -0.25 7.4 -1.5 L8.75 -1.9 9.0 -2.05 Q13.35 -3.4 17.0 -6.25 L18.9 -7.85 21.15 -5.4"/><path fill="#8c8c8c" stroke="none" d="M-1.65 -3.25 Q-2.15 -3.9 -2.25 -4.7 L-2.1 -6.2 Q-1.45 -9.1 2.35 -12.0 L2.4 -12.0 3.7 -9.6 Q0.75 -7.9 -0.7 -5.75 -1.6 -4.4 -1.65 -3.25"/><path fill="none" stroke="#000000" stroke-width="0.5" stroke-opacity="0.2" d="M-2.85 -2.5 L-2.9 -2.55 Q-3.95 -3.8 -3.45 -5.85 -2.7 -9.1 1.6 -12.4 L3.75 -13.85 3.9 -13.95 5.5 -14.9 Q8.15 -16.3 11.15 -17.1 14.95 -18.1 17.7 -17.8 L19.65 -17.25 19.8 -17.2 20.65 -16.8 21.35 -16.15 22.05 -15.0 23.45 -12.85 23.35 -12.85 23.55 -12.75 24.45 -11.25 24.45 -11.15 24.5 -11.0 Q24.6 -10.0 24.0 -8.7 L23.45 -7.9 21.15 -5.4 Q19.2 -3.75 16.15 -2.25 11.75 -0.05 7.3 0.65 L7.05 0.7 5.7 0.85 Q1.55 1.25 -0.7 0.25 L-2.85 -2.5 -2.85 -2.55 M20.65 -13.05 L20.5 -12.35 Q19.85 -9.5 16.0 -6.55 12.8 -4.05 8.9 -2.85 L8.7 -2.7 7.55 -2.35 0.7 -2.0 0.3 -2.15 0.0 -2.25 Q-1.0 -2.65 -1.65 -3.25 -1.6 -4.4 -0.7 -5.75 0.75 -7.9 3.7 -9.6 L5.8 -10.75 8.2 -11.85 9.8 -12.45 Q12.45 -13.3 15.1 -13.5 L20.4 -13.2 20.65 -13.05"/><path fill="#cc3300" stroke="none" d="M-8.25 -1.8 L-10.45 -2.6 -9.4 -3.45 -11.55 -2.7 -12.25 -2.7 Q-11.95 -3.15 -10.8 -3.6 L-10.05 -3.85 -6.85 -4.85 -4.85 -5.7 Q-4.2 -6.2 -3.25 -6.4 L-3.05 -6.45 -2.15 -6.45 -2.15 -6.4 -1.55 -6.25 -1.45 -5.95 Q-1.45 -5.5 -2.05 -5.2 -2.7 -4.95 -2.15 -5.15 L-3.15 -4.75 -7.8 -3.25 -6.6 -3.45 -0.9 -4.45 -0.25 -4.6 -0.25 -4.65 -0.15 -4.6 0.1 -4.6 0.35 -4.55 1.3 -4.1 Q1.9 -3.5 1.85 -2.25 L1.45 -3.25 Q1.2 -3.6 0.7 -3.65 L0.45 -3.65 -1.0 -3.15 -1.7 -2.65 -2.3 -2.35 Q-4.75 -0.85 -5.95 -0.5 L-5.9 -0.5 -4.6 0.5 -4.7 0.5 -7.4 -1.35 -4.95 -2.65 -3.85 -2.95 -5.15 -2.65 -8.25 -1.8"/><path fill="#a02001" stroke="none" d="M-8.25 -1.8 L-5.15 -2.65 -3.85 -2.95 -4.95 -2.65 -7.4 -1.35 -7.55 -1.45 -8.25 -1.8 M-4.6 0.5 L-5.9 -0.5 -5.95 -0.5 Q-4.75 -0.85 -2.3 -2.35 L-1.7 -2.65 -1.0 -3.15 0.45 -3.65 0.7 -3.65 Q1.2 -3.6 1.45 -3.25 L1.85 -2.25 1.8 -1.7 1.15 -1.85 0.7 -2.6 0.35 -2.5 0.0 -2.2 -0.35 -2.05 -2.25 -1.15 Q-3.7 -0.5 -4.55 0.55 L-4.6 0.5 M-0.25 -4.65 L-0.25 -4.6 -0.9 -4.45 -6.6 -3.45 -7.8 -3.25 -3.15 -4.75 -2.15 -5.15 Q-2.7 -4.95 -2.05 -5.2 -1.45 -5.5 -1.45 -5.95 L-1.55 -6.25 -1.35 -6.15 -1.2 -6.0 -1.2 -5.95 -1.1 -5.75 -1.05 -5.65 -0.25 -4.65 M-11.55 -2.7 L-9.4 -3.45 -10.45 -2.6 -10.8 -2.7 -11.55 -2.7"/><path fill="#330a00" stroke="none" d="M1.15 -1.85 L0.0 -2.2 0.35 -2.5 0.7 -2.6 1.15 -1.85"/><path fill="none" stroke="#000000" stroke-width="0.5" stroke-opacity="0.2" d="M1.85 -2.25 Q1.9 -3.5 1.3 -4.1 L0.35 -4.55 0.1 -4.6 -0.15 -4.6 -0.25 -4.65 -1.05 -5.65 -1.1 -5.75 -1.2 -5.95 -1.2 -6.0 -1.35 -6.15 -1.55 -6.25 -2.15 -6.4 -2.15 -6.45 -3.05 -6.45 -3.25 -6.4 Q-4.2 -6.2 -4.85 -5.7 L-6.85 -4.85 -10.05 -3.85 -10.8 -3.6 Q-11.95 -3.15 -12.25 -2.7 M1.15 -1.85 L0.0 -2.2"/><path fill="#000000" fill-opacity="0.301960784314" d="M-8.25 -1.8 L-10.45 -2.6 -10.8 -2.7 -12.15 -2.8 Q-11.85 -3.2 -10.8 -3.6 -9.0 -3.6 -7.65 -2.55 -6.35 -1.5 -4.5 -1.85 L-1.5 -2.55 Q-0.4 -2.95 0.7 -3.65 L1.3 -4.1 Q1.9 -3.5 1.85 -2.25 L1.8 -1.7 1.15 -1.85 0.7 -2.6 0.35 -2.5 0.0 -2.2 -0.35 -2.05 -2.25 -1.15 Q-3.7 -0.5 -4.55 0.55 L-4.6 0.5 -4.7 0.5 -7.4 -1.35 -7.55 -1.45 -8.25 -1.8"/></g><g id="c11"><g><use transform="matrix(1.0,0.0,0.0,1.0,0.0,0.0)" xlink:href="#c10"/></g></g><linearGradient gradientUnits="userSpaceOnUse" x1="-819.2" x2="819.2" spreadMethod="pad" gradientTransform="matrix(0.00350952148438,0.00489807128906,-0.00180053710938,0.00157165527344,3.55,9.65)" id="gradient8"><stop offset="0.0" stop-color="#b83636"/><stop offset="1.0" stop-color="#4a1414"/></linearGradient><linearGradient gradientUnits="userSpaceOnUse" x1="-819.2" x2="819.2" spreadMethod="pad" gradientTransform="matrix(0.0106048583984,0.0010986328125,-0.00042724609375,0.00531005859375,9.15,16.05)" id="gradient9"><stop offset="0.0" stop-color="#b83636"/><stop offset="1.0" stop-color="#4a1414"/></linearGradient><g id="c12"><path fill="#917045" stroke="none" d="M25.4 -0.85 L25.45 -0.65 25.5 -0.45 25.45 -0.05 24.9 1.05 Q24.2 1.8 22.65 2.45 L21.2 3.0 16.7 3.8 16.55 3.8 16.3 3.85 14.75 3.9 13.45 3.95 13.35 3.95 12.4 3.9 6.55 2.95 6.4 2.9 12.1 3.65 13.05 3.7 13.15 3.7 14.45 3.6 16.05 3.55 16.3 3.5 16.45 3.5 21.0 2.6 22.45 2.05 24.7 0.6 25.3 -0.5 25.35 -0.85 25.4 -0.85 M23.2 6.85 L22.6 7.1 21.15 7.65 Q19.15 8.25 16.65 8.45 L16.5 8.45 16.25 8.5 13.5 8.95 13.5 7.15 16.3 6.7 16.55 6.65 16.7 6.65 21.2 5.85 22.65 5.3 23.2 5.05 23.2 6.85 M1.7 15.9 Q-0.45 16.7 -3.1 17.1 L-5.1 17.4 -8.55 17.6 -16.15 17.1 -17.9 16.75 -18.85 16.55 -18.85 14.7 -17.85 14.95 -16.1 15.3 -8.5 15.8 -5.05 15.6 -3.05 15.3 Q-0.45 14.9 1.7 14.1 L1.7 15.9 M-25.45 7.45 L-25.45 7.3 -25.5 7.1 -25.5 6.95 -25.4 7.25 -25.1 8.0 Q-24.05 9.75 -20.15 11.0 L-17.9 11.6 -8.55 12.45 -5.15 12.25 Q-0.75 11.75 2.4 10.4 5.05 9.25 5.95 7.95 L6.0 7.9 6.4 6.9 6.45 6.7 6.45 7.4 6.05 8.4 6.0 8.45 Q5.1 9.75 2.45 10.9 -0.7 12.25 -5.1 12.75 L-8.5 12.95 -17.85 12.1 -20.05 11.5 Q-24.0 10.25 -25.05 8.5 L-25.45 7.45"/><path fill="#564a32" stroke="none" d="M2.5 -0.3 L2.55 -0.75 Q2.85 -2.1 5.35 -3.15 8.5 -4.5 13.25 -4.6 18.05 -4.75 21.6 -3.6 23.4 -3.0 24.35 -2.25 L25.25 -1.25 25.35 -1.05 25.4 -0.85 25.35 -0.85 25.3 -0.5 24.7 0.6 22.45 2.05 21.0 2.6 16.45 3.5 16.3 3.5 16.05 3.55 14.45 3.6 13.15 3.7 13.05 3.7 12.1 3.65 6.4 2.9 5.8 2.7 Q4.05 2.0 3.25 1.2 L3.15 1.1 3.0 0.9 2.5 -0.05 2.5 -0.3 M-25.5 6.95 L-25.5 6.9 Q-25.4 4.8 -21.55 3.1 L-21.15 2.95 Q-16.9 1.25 -10.55 1.1 L-7.35 1.1 -7.25 1.1 -5.15 1.25 Q-1.8 1.6 1.05 2.5 L2.25 2.95 2.3 2.95 2.65 3.1 Q4.9 4.05 5.85 5.25 L6.1 5.65 6.3 6.1 6.4 6.6 6.45 6.7 6.4 6.9 6.0 7.9 5.95 7.95 Q5.05 9.25 2.4 10.4 -0.75 11.75 -5.15 12.25 L-8.55 12.45 -17.9 11.6 -20.15 11.0 Q-24.05 9.75 -25.1 8.0 L-25.4 7.25 -25.5 6.95"/><path stroke="none" fill="url(#gradient3)" d="M25.45 -0.05 L25.5 2.2 25.5 2.8 25.45 3.1 Q25.0 4.15 23.2 5.05 L22.65 5.3 21.2 5.85 21.2 3.0 22.65 2.45 Q24.2 1.8 24.9 1.05 L25.45 -0.05"/><path fill="#85653f" stroke="none" d="M25.45 3.1 L25.45 4.6 Q25.25 5.85 23.2 6.85 L23.2 5.05 Q25.0 4.15 25.45 3.1 M6.45 11.95 L6.35 12.55 6.0 13.1 Q5.1 14.4 2.45 15.55 L1.7 15.9 1.7 14.1 2.5 13.75 Q5.15 12.6 6.05 11.3 L6.4 10.6 6.45 10.4 6.45 11.95"/><path fill="#30271b" stroke="none" d="M21.2 3.0 L21.2 5.85 16.7 6.65 16.55 6.65 16.3 6.7 13.5 7.15 13.45 7.15 13.45 4.3 16.3 3.85 16.55 3.8 16.7 3.8 21.2 3.0"/><path fill="#3c3122" stroke="none" d="M-25.45 10.15 L-25.45 10.0 -25.45 9.7 -25.5 7.45 -25.45 7.45 -25.05 8.5 Q-24.0 10.25 -20.05 11.5 L-17.85 12.1 -17.85 14.95 -18.85 14.7 -20.05 14.35 Q-25.0 12.75 -25.45 10.3 L-25.45 10.2 -25.45 10.15"/><path fill="#a67e4f" stroke="none" d="M-18.85 16.55 L-20.1 16.15 Q-25.05 14.55 -25.45 12.1 L-25.45 11.95 -25.5 10.2 -25.45 10.15 -25.45 10.2 -25.45 10.3 Q-25.0 12.75 -20.05 14.35 L-18.85 14.7 -18.85 16.55"/><path fill="#221c13" stroke="none" d="M6.45 7.4 Q6.9 6.75 7.85 6.15 9.2 5.3 11.55 4.7 L13.35 4.3 13.45 4.3 13.45 7.15 13.35 7.15 11.55 7.55 Q7.6 8.6 6.45 10.25 L6.45 7.4"/><path fill="#4d422c" stroke="none" d="M-5.15 1.25 L-2.2 1.25 -1.95 1.25 Q0.4 1.1 1.6 0.5 L2.2 0.1 2.25 0.05 2.5 -0.3 2.5 -0.05 3.0 0.9 3.15 1.1 3.25 1.2 Q4.05 2.0 5.8 2.7 L6.4 2.9 6.55 2.95 12.4 3.9 13.35 3.95 13.45 3.95 14.75 3.9 16.3 3.85 13.45 4.3 13.35 4.3 11.55 4.7 Q9.2 5.3 7.85 6.15 6.9 6.75 6.45 7.4 L6.45 6.7 6.4 6.6 6.3 6.1 6.1 5.65 5.85 5.25 Q4.9 4.05 2.65 3.1 L2.3 2.95 2.25 2.95 1.05 2.5 Q-1.8 1.6 -5.15 1.25"/><path fill="#6b5033" stroke="none" d="M13.5 8.95 L13.4 8.95 13.3 8.95 11.5 9.35 Q7.55 10.4 6.45 12.05 L6.45 11.95 6.45 10.4 6.45 10.25 Q7.6 8.6 11.55 7.55 L13.35 7.15 13.45 7.15 13.5 7.15 13.5 8.95"/><path fill="#2b2218" stroke="none" d="M-5.1 12.75 Q-0.7 12.25 2.45 10.9 5.1 9.75 6.0 8.45 L6.05 8.4 6.45 7.4 6.45 10.25 6.45 10.4 6.4 10.6 6.05 11.3 Q5.15 12.6 2.5 13.75 L1.7 14.1 Q-0.45 14.9 -3.05 15.3 L-5.05 15.6 -5.1 12.75"/><path fill="#33291d" stroke="none" d="M-17.85 12.1 L-8.5 12.95 -5.1 12.75 -5.05 15.6 -8.5 15.8 -16.1 15.3 -17.85 14.95 -17.85 12.1"/><path fill="none" stroke="#000000" stroke-width="0.5" stroke-opacity="0.101960784314" d="M2.5 -0.3 L2.55 -0.75 Q2.85 -2.1 5.35 -3.15 8.5 -4.5 13.25 -4.6 18.05 -4.75 21.6 -3.6 23.4 -3.0 24.35 -2.25 L25.25 -1.25 25.35 -1.05 25.4 -0.85 M-25.5 6.95 L-25.5 6.9 Q-25.4 4.8 -21.55 3.1 L-21.15 2.95 Q-16.9 1.25 -10.55 1.1 L-7.35 1.1 -7.25 1.1 -5.15 1.25 -2.2 1.25 -1.95 1.25 Q0.4 1.1 1.6 0.5 L2.2 0.1 2.25 0.05 2.5 -0.3 2.5 -0.05 3.0 0.9 3.15 1.1 3.25 1.2 Q4.05 2.0 5.8 2.7 L6.4 2.9 12.1 3.65 13.05 3.7 13.15 3.7 14.45 3.6 16.05 3.55 16.3 3.5 16.45 3.5 21.0 2.6 22.45 2.05 24.7 0.6 25.3 -0.5 25.35 -0.85 25.4 -0.85 M6.45 6.7 L6.4 6.9 6.0 7.9 5.95 7.95 Q5.05 9.25 2.4 10.4 -0.75 11.75 -5.15 12.25 L-8.55 12.45 -17.9 11.6 -20.15 11.0 Q-24.05 9.75 -25.1 8.0 L-25.4 7.25 -25.5 6.95 M6.45 7.4 L6.45 6.7 6.4 6.6 6.3 6.1 6.1 5.65 5.85 5.25 Q4.9 4.05 2.65 3.1 L2.3 2.95 2.25 2.95 1.05 2.5 Q-1.8 1.6 -5.15 1.25 M6.4 2.9 L6.55 2.95 12.4 3.9 13.35 3.95 13.45 3.95 14.75 3.9 16.3 3.85 M13.45 4.3 L13.35 4.3 11.55 4.7 Q9.2 5.3 7.85 6.15 6.9 6.75 6.45 7.4 M13.45 4.3 L16.3 3.85"/><path fill="none" stroke="#000000" stroke-width="0.5" stroke-opacity="0.2" d="M25.45 -0.05 L25.5 2.2 25.5 2.8 25.45 3.1 25.45 4.6 Q25.25 5.85 23.2 6.85 L22.6 7.1 21.15 7.65 Q19.15 8.25 16.65 8.45 L16.5 8.45 16.25 8.5 13.5 8.95 13.4 8.95 13.3 8.95 11.5 9.35 Q7.55 10.4 6.45 12.05 L6.45 11.95 6.35 12.55 6.0 13.1 Q5.1 14.4 2.45 15.55 L1.7 15.9 Q-0.45 16.7 -3.1 17.1 L-5.1 17.4 -8.55 17.6 -16.15 17.1 -17.9 16.75 -18.85 16.55 -20.1 16.15 Q-25.05 14.55 -25.45 12.1 L-25.45 11.95 -25.5 10.2 -25.45 10.15 -25.45 10.0 -25.45 9.7 -25.5 7.45 -25.45 7.45"/><path fill="#beb07c" stroke="none" d="M-15.8 -2.15 L-15.85 -2.15 -15.9 -2.15 -15.5 -2.35 -15.8 -2.15"/><path fill="#ffffff" stroke="none" d="M-15.8 -2.15 L-15.1 -2.45 -9.05 -2.25 Q-6.6 -1.35 -4.4 0.6 -3.6 3.45 -5.65 5.45 -8.7 8.35 -17.55 8.65 L-21.55 8.05 Q-25.35 6.95 -24.35 4.3 L-23.2 2.7 Q-21.2 0.15 -15.9 -2.15 L-15.85 -2.15 -15.8 -2.15"/><path fill="#949494" stroke="none" d="M2.2 11.05 L2.25 11.2 2.25 12.0 -1.85 13.15 -3.45 13.3 -3.5 13.3 Q-6.3 13.55 -9.75 13.4 L-16.45 12.7 Q-22.15 11.65 -24.4 9.85 -25.2 9.1 -25.45 8.3 L-25.5 7.3 -25.45 7.3 Q-25.2 8.1 -24.4 8.85 -22.15 10.65 -16.45 11.7 L-9.75 12.4 Q-6.3 12.55 -3.5 12.3 L-3.45 12.3 -1.85 12.15 2.2 11.05"/><path fill="#b8b8b8" stroke="none" d="M-24.35 4.3 Q-25.35 6.95 -21.55 8.05 L-17.55 8.65 Q-8.7 8.35 -5.65 5.45 -3.6 3.45 -4.4 0.6 L-3.9 1.05 Q-1.9 3.0 -0.25 5.75 1.3 8.3 2.2 11.05 L-1.85 12.15 -3.45 12.3 -3.5 12.3 Q-6.3 12.55 -9.75 12.4 L-16.45 11.7 Q-22.15 10.65 -24.4 8.85 -25.2 8.1 -25.45 7.3 L-25.45 6.75 -25.45 6.45 Q-25.3 5.7 -24.35 4.3"/><path fill="#7e1a01" stroke="none" d="M-25.5 7.3 L-25.5 7.25 -25.45 7.3 -25.5 7.3"/><path fill="#674d32" stroke="none" d="M-25.5 7.25 L-25.45 6.75 -25.45 7.3 -25.5 7.25"/><path fill="none" stroke="#000000" stroke-width="0.5" stroke-opacity="0.2" d="M-4.4 0.6 Q-6.6 -1.35 -9.05 -2.25 L-15.1 -2.45 -15.8 -2.15 -15.85 -2.15 M-15.9 -2.15 Q-21.2 0.15 -23.2 2.7 L-24.35 4.3 M-4.4 0.6 L-3.9 1.05 Q-1.9 3.0 -0.25 5.75 1.3 8.3 2.2 11.05 M-25.45 6.75 L-25.45 6.45 Q-25.3 5.7 -24.35 4.3 M-15.8 -2.15 L-15.5 -2.35 -15.9 -2.15"/><path fill="#32251b" stroke="none" d="M22.05 -0.3 L21.8 -0.55 21.15 -1.1 Q18.2 -3.3 14.25 -3.3 9.85 -3.3 6.7 -0.55 L6.05 0.1 5.85 -0.4 5.85 -0.55 5.9 -0.9 Q6.1 -1.85 7.9 -2.6 10.15 -3.6 13.55 -3.65 17.0 -3.75 19.55 -2.95 L21.5 -1.95 22.15 -1.25 22.25 -1.1 22.25 -0.95 22.2 -0.7 22.2 -0.65 22.05 -0.3"/><path fill="#330a00" stroke="none" d="M21.15 -1.1 L21.8 -0.55 22.05 -0.3 21.9 -0.1 21.75 0.1 20.15 1.1 19.1 1.5 16.75 2.15 16.4 2.2 15.3 2.25 14.4 2.25 13.5 2.3 13.4 2.3 12.75 2.25 8.65 1.75 8.2 1.6 8.05 1.55 17.8 1.25 Q21.45 -0.15 21.15 -1.1"/><path stroke="none" fill="url(#gradient4)" d="M6.05 0.1 L6.7 -0.55 Q9.85 -3.3 14.25 -3.3 18.2 -3.3 21.15 -1.1 21.45 -0.15 17.8 1.25 L8.05 1.55 7.8 1.45 6.4 0.5 6.3 0.45 6.2 0.3 6.1 0.15 6.05 0.1"/><path fill="#cc3300" stroke="none" d="M18.15 -0.3 Q17.0 0.45 14.9 0.7 L11.05 0.6 Q9.25 0.25 8.8 -0.55 8.4 -1.35 9.55 -2.15 10.75 -2.9 12.85 -3.15 L16.7 -3.05 Q18.5 -2.7 18.95 -1.9 19.35 -1.1 18.15 -0.3"/><path fill="#e6e6e6" stroke="none" d="M13.5 7.2 L16.3 6.75 16.55 6.7 16.7 6.7 17.15 6.65 21.2 5.9 21.35 5.85 22.65 5.35 23.2 5.1 23.2 6.9 22.6 7.15 21.15 7.7 17.15 8.45 16.65 8.5 16.5 8.5 16.25 8.55 13.5 9.0 13.5 7.2 M1.7 15.95 Q-0.45 16.75 -3.1 17.15 L-5.1 17.45 -8.55 17.65 -16.15 17.15 -17.9 16.8 -18.85 16.6 -18.85 14.75 -17.85 15.0 -16.1 15.35 -8.5 15.85 -5.05 15.65 -3.05 15.35 Q-0.45 14.95 1.7 14.15 L1.7 15.95"/><path fill="#cccccc" stroke="none" d="M23.2 5.1 Q25.0 4.2 25.45 3.15 L25.45 4.65 Q25.25 5.75 23.65 6.7 L23.2 6.9 23.2 5.1 M6.45 12.0 L6.35 12.6 6.0 13.15 Q5.1 14.45 2.45 15.6 L1.7 15.95 1.7 14.15 2.5 13.8 Q5.15 12.65 6.05 11.35 L6.4 10.65 6.45 10.45 6.45 12.0"/><path fill="#a67e4f" stroke="none" d="M-25.5 10.4 L-25.5 10.25 -25.45 10.2 -25.45 10.25 -25.45 10.35 -25.5 10.4"/><path fill="#ffffff" stroke="none" d="M-18.85 16.6 L-20.1 16.2 Q-25.05 14.6 -25.45 12.15 L-25.45 12.0 -25.5 10.4 -25.45 10.35 Q-25.0 12.8 -20.05 14.4 L-18.85 14.75 -18.85 16.6"/><path fill="#999999" stroke="none" d="M13.5 9.0 L13.4 9.0 13.3 9.0 11.5 9.4 Q7.55 10.45 6.45 12.1 L6.45 12.0 6.45 10.45 6.45 10.3 Q7.6 8.65 11.55 7.6 L13.35 7.2 13.45 7.2 13.5 7.2 13.5 9.0"/><path fill="none" stroke="#000000" stroke-width="0.5" stroke-opacity="0.2" d="M25.45 3.15 L25.45 4.65 Q25.25 5.75 23.65 6.7 L23.2 6.9 22.6 7.15 21.15 7.7 17.15 8.45 16.65 8.5 16.5 8.5 16.25 8.55 13.5 9.0 13.4 9.0 13.3 9.0 11.5 9.4 Q7.55 10.45 6.45 12.1 L6.45 12.0 6.35 12.6 6.0 13.15 Q5.1 14.45 2.45 15.6 L1.7 15.95 Q-0.45 16.75 -3.1 17.15 L-5.1 17.45 -8.55 17.65 -16.15 17.15 -17.9 16.8 -18.85 16.6 -20.1 16.2 Q-25.05 14.6 -25.45 12.15 L-25.45 12.0 -25.5 10.4 -25.5 10.25 -25.45 10.2"/><path fill="#d16969" stroke="none" d="M3.05 8.4 L3.25 8.35 3.6 8.3 4.15 8.3 Q5.55 8.4 7.0 9.2 L7.2 9.35 8.6 10.4 8.75 10.55 8.85 10.65 9.25 11.0 9.55 11.3 9.6 11.35 10.15 12.0 10.35 12.3 10.85 13.1 11.0 13.45 Q11.15 14.1 10.85 14.7 L9.65 15.9 8.0 16.6 7.15 16.65 6.95 16.65 6.85 16.65 Q5.9 16.6 4.35 15.8 L2.5 14.4 2.3 14.2 2.3 14.25 0.85 13.15 -1.0 12.1 Q-2.1 11.4 -2.1 10.3 L-2.05 10.05 -2.0 10.05 -1.9 9.8 -1.9 9.65 -1.85 9.6 -1.45 9.45 -0.9 9.3 1.35 9.15 Q2.75 9.35 4.3 10.3 6.05 11.35 7.15 12.65 6.65 11.6 4.85 10.3 L3.15 9.15 Q2.2 8.75 3.05 8.4"/><path stroke="none" fill="url(#gradient8)" d="M3.05 8.4 Q2.2 8.75 3.15 9.15 L4.85 10.3 Q6.65 11.6 7.15 12.65 6.05 11.35 4.3 10.3 2.75 9.35 1.35 9.15 L1.75 8.85 Q2.35 8.5 3.05 8.4"/><path stroke="none" fill="url(#gradient9)" d="M-1.85 9.6 L-1.9 9.65 -1.9 9.8 -2.0 10.05 -2.05 10.05 -2.1 10.3 Q-2.1 11.4 -1.0 12.1 L0.85 13.15 2.3 14.25 2.3 14.2 2.5 14.4 4.35 15.8 Q5.9 16.6 6.85 16.65 L6.95 16.65 7.15 16.65 8.0 16.6 9.65 15.9 10.85 14.7 Q11.15 14.1 11.0 13.45 L11.2 14.15 11.2 14.25 11.35 15.1 Q11.2 15.25 11.2 15.7 L10.7 16.75 9.65 17.55 8.4 18.0 6.15 18.4 Q4.8 18.45 2.6 16.55 L2.5 16.45 1.8 15.8 1.3 15.35 -0.5 13.65 Q-1.8 12.6 -2.7 12.5 L-3.0 12.45 -3.15 12.45 -3.75 12.55 -4.45 12.8 -5.4 13.45 -5.85 14.05 -6.2 14.05 -5.55 12.95 -5.35 12.7 -5.25 12.6 -4.6 11.75 Q-3.35 10.25 -1.95 9.65 L-1.85 9.6"/><path fill="#4a1414" stroke="none" d="M1.3 15.35 L-0.9 13.7 -0.95 13.7 -2.4 14.15 -5.85 14.05 -5.4 13.45 -4.45 12.8 -3.75 12.55 -3.15 12.45 -3.0 12.45 -2.7 12.5 Q-1.8 12.6 -0.5 13.65 L-0.95 13.7 -0.5 13.65 1.3 15.35"/><path fill="#000000" stroke="none" d="M-6.2 14.05 L-11.75 13.65 -15.9 12.9 -15.4 12.95 -11.1 13.2 -5.25 12.6 -5.35 12.7 -5.55 12.95 -6.2 14.05"/><path fill="none" stroke="#000000" stroke-width="0.5" stroke-opacity="0.301960784314" d="M11.0 13.45 L10.85 13.1 10.35 12.3 10.15 12.0 9.6 11.35 9.55 11.3 9.25 11.0 8.85 10.65 8.75 10.55 8.6 10.4 7.2 9.35 7.0 9.2 Q5.55 8.4 4.15 8.3 L3.6 8.3 3.25 8.35 3.05 8.4 Q2.35 8.5 1.75 8.85 L1.35 9.15 -0.9 9.3 -1.45 9.45 -1.85 9.6 M11.0 13.45 L11.2 14.15 11.2 14.25 11.35 15.1 Q11.2 15.25 11.2 15.7 L10.7 16.75 9.65 17.55 8.4 18.0 6.15 18.4 Q4.8 18.45 2.6 16.55 M2.5 16.45 L1.8 15.8 1.3 15.35 -0.9 13.7 -0.95 13.7 -2.4 14.15 -5.85 14.05 -6.2 14.05 M-5.25 12.6 L-4.6 11.75 Q-3.35 10.25 -1.95 9.65 L-1.85 9.6 M-0.95 13.7 L-0.5 13.65 M-5.25 12.6 L-5.35 12.7 -5.55 12.95 -6.2 14.05"/><path fill="#000000" fill-opacity="0.301960784314" d="M-0.95 13.7 L-0.9 13.7 1.3 15.35 1.75 15.8 2.5 16.45 Q0.45 17.35 -1.6 17.7 L-3.6 18.0 -6.2 14.05 -5.85 14.05 -2.4 14.15 -0.95 13.7"/><path stroke="none" fill="url(#gradient5)" d="M-14.75 -2.65 L-13.55 -2.15 Q-12.25 -1.15 -12.15 0.65 L-12.15 1.55 Q-12.2 2.55 -12.7 3.55 L-13.25 4.5 Q-14.6 6.55 -17.0 7.45 L-21.4 7.75 Q-22.65 7.3 -23.35 6.35 L-23.45 6.25 -23.45 6.2 -23.5 6.15 -23.55 5.9 -23.6 5.75 -23.7 5.15 -23.75 4.2 Q-23.8 1.3 -21.75 -0.8 -19.65 -2.85 -16.7 -2.9 L-16.15 -2.85 -15.35 -2.75 -15.2 -2.7 -15.15 -2.7 -14.75 -2.65"/><path fill="#aeaeae" stroke="none" d="M-14.75 -2.65 L-15.15 -2.7 -15.2 -2.7 -14.75 -2.65"/><path fill="#a3a3a3" stroke="none" d="M-23.45 6.25 L-23.35 6.35 Q-22.65 7.3 -21.4 7.75 L-17.0 7.45 Q-14.6 6.55 -13.25 4.5 L-12.7 3.55 Q-12.2 2.55 -12.15 1.55 L-12.15 0.65 Q-12.25 -1.15 -13.55 -2.15 L-14.75 -2.65 Q-13.1 -2.25 -11.75 -0.9 L-11.6 -0.75 -11.05 -0.2 -10.9 0.0 -10.65 0.45 -10.45 1.15 Q-10.0 3.1 -11.6 5.2 -13.2 7.3 -15.95 8.35 -18.7 9.45 -20.85 8.8 -22.55 8.3 -23.15 7.0 L-23.2 6.9 -23.2 6.85 -23.35 6.6 -23.45 6.25"/><path fill="#362b1f" stroke="none" d="M-23.45 6.25 L-23.35 6.6 -23.2 6.85 -23.2 6.9 -23.15 7.0 Q-22.55 8.3 -20.85 8.8 -18.7 9.45 -15.95 8.35 -13.2 7.3 -11.6 5.2 -10.0 3.1 -10.45 1.15 L-10.65 0.45 -10.9 0.0 -11.05 -0.2 -10.95 -0.1 -10.2 0.9 -9.95 1.6 Q-9.45 3.65 -11.1 5.85 -12.7 8.0 -15.55 9.1 -18.35 10.2 -20.6 9.6 -22.4 9.05 -23.05 7.7 L-23.1 7.6 -23.1 7.55 -23.2 7.3 -23.35 6.9 -23.55 6.05 -23.55 6.0 -23.5 6.15 -23.45 6.2 -23.45 6.25"/><path fill="#ffffff" fill-opacity="0.501960784314" d="M-15.55 -2.7 Q-14.2 -2.1 -14.2 -0.75 -14.2 0.65 -15.5 1.95 -16.75 3.35 -18.65 4.0 -20.5 4.55 -21.85 3.95 -23.1 3.45 -23.1 2.05 -23.15 0.7 -21.9 -0.7 -20.55 -2.0 -18.7 -2.55 L-15.55 -2.7"/><path fill="#b83636" stroke="none" d="M-18.0 -2.1 Q-17.3 -1.9 -17.05 -1.35 -16.8 -0.8 -17.25 -0.15 -17.55 0.5 -18.4 0.9 -19.2 1.35 -19.9 1.2 -20.6 1.1 -20.85 0.5 -21.1 0.0 -20.65 -0.7 L-19.5 -1.75 -18.0 -2.1"/><path fill="#ffffff" stroke="none" d="M-14.95 -0.05 L-15.95 0.8 -17.1 1.0 Q-17.7 0.9 -17.95 0.4 -18.15 0.0 -17.8 -0.6 L-16.85 -1.4 -15.65 -1.6 -14.85 -1.05 Q-14.65 -0.6 -14.95 -0.05"/><path fill="#ffffff" stroke="none" d="M-22.5 2.8 L-22.75 3.2 -23.15 3.3 -23.45 3.15 -23.45 2.7 -23.15 2.35 Q-22.95 2.2 -22.8 2.2 -22.55 2.2 -22.5 2.4 L-22.5 2.8"/><path fill="none" stroke="#000000" stroke-width="0.5" stroke-opacity="0.2" d="M-15.35 -2.75 L-15.2 -2.7 -14.75 -2.65 Q-13.1 -2.25 -11.75 -0.9 L-11.6 -0.75 -11.05 -0.2 -10.95 -0.1 -10.2 0.9 -9.95 1.6 Q-9.45 3.65 -11.1 5.85 -12.7 8.0 -15.55 9.1 -18.35 10.2 -20.6 9.6 -22.4 9.05 -23.05 7.7 L-23.1 7.6 -23.1 7.55 -23.2 7.3 -23.35 6.9 -23.55 6.05 -23.55 6.0 -23.5 6.15 -23.55 5.9 -23.6 5.75 -23.7 5.15 -23.75 4.2 Q-23.75 1.95 -22.55 0.2 L-21.9 -0.7 -21.0 -1.4 Q-19.65 -2.5 -17.9 -2.8 L-16.05 -2.85 -15.35 -2.75"/><path fill="#ffffff" fill-opacity="0.4" d="M-2.0 9.25 L-1.4 9.05 -0.7 9.2 -0.4 9.7 -0.75 10.1 -1.35 10.3 -2.0 10.2 -2.3 9.75 -2.0 9.25"/><path fill="#ffffff" fill-opacity="0.6" d="M0.1 9.35 L0.45 9.35 0.8 9.6 0.85 9.9 0.65 10.05 0.3 10.0 -0.05 9.85 -0.1 9.55 0.1 9.35"/><path fill="#ffffff" stroke="none" d="M-2.85 -2.5 L-2.9 -2.55 Q-3.95 -3.8 -3.45 -5.85 -2.7 -9.1 1.6 -12.4 L3.75 -13.85 3.9 -13.95 5.5 -14.9 Q8.15 -16.3 11.15 -17.1 14.95 -18.1 17.7 -17.8 L19.65 -17.25 19.8 -17.2 20.65 -16.8 21.35 -16.15 22.05 -15.0 Q22.3 -14.35 22.15 -13.6 L22.05 -12.75 Q21.45 -10.4 18.9 -7.85 L17.0 -6.25 Q13.35 -3.4 9.0 -2.05 L8.75 -1.9 7.4 -1.5 Q2.7 -0.25 -0.35 -1.1 L-0.75 -1.25 -1.05 -1.4 -1.2 -1.45 -2.1 -1.95 -2.85 -2.55 -2.85 -2.5 M20.65 -13.05 L20.6 -14.0 20.55 -14.35 19.9 -15.35 19.25 -15.95 18.55 -16.25 18.4 -16.35 16.6 -16.8 Q14.25 -17.1 10.85 -16.2 8.2 -15.5 5.8 -14.25 L4.45 -13.4 4.3 -13.35 2.4 -12.0 2.35 -12.0 Q-1.45 -9.1 -2.1 -6.2 L-2.25 -4.7 Q-2.15 -3.9 -1.65 -3.25 -1.0 -2.65 0.0 -2.25 L0.3 -2.15 0.7 -2.0 7.55 -2.35 8.7 -2.7 8.9 -2.85 Q12.8 -4.05 16.0 -6.55 19.85 -9.5 20.5 -12.35 L20.65 -13.05"/><path fill="#999999" stroke="none" d="M2.4 -12.0 L4.3 -13.35 4.45 -13.4 5.8 -14.25 Q8.2 -15.5 10.85 -16.2 14.25 -17.1 16.6 -16.8 L18.4 -16.35 18.55 -16.25 19.25 -15.95 19.9 -15.35 20.55 -14.35 20.6 -14.0 20.65 -13.05 20.4 -13.2 15.1 -13.5 Q12.45 -13.3 9.8 -12.45 L8.2 -11.85 5.8 -10.75 3.7 -9.6 2.4 -12.0"/><path fill="#bfbfbf" stroke="none" d="M22.05 -15.0 L23.45 -12.85 23.35 -12.85 23.55 -12.75 24.45 -11.25 24.45 -11.15 24.5 -11.0 Q24.6 -10.0 24.0 -8.7 L23.45 -7.9 21.15 -5.4 18.9 -7.85 Q21.45 -10.4 22.05 -12.75 L22.15 -13.6 Q22.3 -14.35 22.05 -15.0"/><path fill="#cccccc" stroke="none" d="M21.15 -5.4 Q19.2 -3.75 16.15 -2.25 11.75 -0.05 7.3 0.65 L7.05 0.7 5.7 0.85 Q1.55 1.25 -0.7 0.25 L-2.85 -2.5 -2.85 -2.55 -2.1 -1.95 -1.2 -1.45 -1.05 -1.4 -0.75 -1.25 -0.35 -1.1 Q2.7 -0.25 7.4 -1.5 L8.75 -1.9 9.0 -2.05 Q13.35 -3.4 17.0 -6.25 L18.9 -7.85 21.15 -5.4"/><path fill="#8c8c8c" stroke="none" d="M-1.65 -3.25 Q-2.15 -3.9 -2.25 -4.7 L-2.1 -6.2 Q-1.45 -9.1 2.35 -12.0 L2.4 -12.0 3.7 -9.6 Q0.75 -7.9 -0.7 -5.75 -1.6 -4.4 -1.65 -3.25"/><path fill="none" stroke="#000000" stroke-width="0.5" stroke-opacity="0.2" d="M-2.85 -2.5 L-2.9 -2.55 Q-3.95 -3.8 -3.45 -5.85 -2.7 -9.1 1.6 -12.4 L3.75 -13.85 3.9 -13.95 5.5 -14.9 Q8.15 -16.3 11.15 -17.1 14.95 -18.1 17.7 -17.8 L19.65 -17.25 19.8 -17.2 20.65 -16.8 21.35 -16.15 22.05 -15.0 23.45 -12.85 23.35 -12.85 23.55 -12.75 24.45 -11.25 24.45 -11.15 24.5 -11.0 Q24.6 -10.0 24.0 -8.7 L23.45 -7.9 21.15 -5.4 Q19.2 -3.75 16.15 -2.25 11.75 -0.05 7.3 0.65 L7.05 0.7 5.7 0.85 Q1.55 1.25 -0.7 0.25 L-2.85 -2.5 -2.85 -2.55 M20.65 -13.05 L20.5 -12.35 Q19.85 -9.5 16.0 -6.55 12.8 -4.05 8.9 -2.85 L8.7 -2.7 7.55 -2.35 0.7 -2.0 0.3 -2.15 0.0 -2.25 Q-1.0 -2.65 -1.65 -3.25 -1.6 -4.4 -0.7 -5.75 0.75 -7.9 3.7 -9.6 L5.8 -10.75 8.2 -11.85 9.8 -12.45 Q12.45 -13.3 15.1 -13.5 L20.4 -13.2 20.65 -13.05"/><path fill="#cc3300" stroke="none" d="M-8.25 -1.8 L-10.45 -2.6 -9.4 -3.45 -11.55 -2.7 -12.25 -2.7 Q-11.95 -3.15 -10.8 -3.6 L-10.05 -3.85 -6.85 -4.85 -4.85 -5.7 Q-4.2 -6.2 -3.25 -6.4 L-3.05 -6.45 -2.15 -6.45 -2.15 -6.4 -1.55 -6.25 -1.45 -5.95 Q-1.45 -5.5 -2.05 -5.2 -2.7 -4.95 -2.15 -5.15 L-3.15 -4.75 -7.8 -3.25 -6.6 -3.45 -0.9 -4.45 -0.25 -4.6 -0.25 -4.65 -0.15 -4.6 0.1 -4.6 0.35 -4.55 1.3 -4.1 Q1.9 -3.5 1.85 -2.25 L1.45 -3.25 Q1.2 -3.6 0.7 -3.65 L0.45 -3.65 -1.0 -3.15 -1.7 -2.65 -2.3 -2.35 Q-4.75 -0.85 -5.95 -0.5 L-5.9 -0.5 -4.6 0.5 -4.7 0.5 -7.4 -1.35 -4.95 -2.65 -3.85 -2.95 -5.15 -2.65 -8.25 -1.8"/><path fill="#a02001" stroke="none" d="M-8.25 -1.8 L-5.15 -2.65 -3.85 -2.95 -4.95 -2.65 -7.4 -1.35 -7.55 -1.45 -8.25 -1.8 M-4.6 0.5 L-5.9 -0.5 -5.95 -0.5 Q-4.75 -0.85 -2.3 -2.35 L-1.7 -2.65 -1.0 -3.15 0.45 -3.65 0.7 -3.65 Q1.2 -3.6 1.45 -3.25 L1.85 -2.25 1.8 -1.7 1.15 -1.85 0.7 -2.6 0.35 -2.5 0.0 -2.2 -0.35 -2.05 -2.25 -1.15 Q-3.7 -0.5 -4.55 0.55 L-4.6 0.5 M-0.25 -4.65 L-0.25 -4.6 -0.9 -4.45 -6.6 -3.45 -7.8 -3.25 -3.15 -4.75 -2.15 -5.15 Q-2.7 -4.95 -2.05 -5.2 -1.45 -5.5 -1.45 -5.95 L-1.55 -6.25 -1.35 -6.15 -1.2 -6.0 -1.2 -5.95 -1.1 -5.75 -1.05 -5.65 -0.25 -4.65 M-11.55 -2.7 L-9.4 -3.45 -10.45 -2.6 -10.8 -2.7 -11.55 -2.7"/><path fill="#330a00" stroke="none" d="M1.15 -1.85 L0.0 -2.2 0.35 -2.5 0.7 -2.6 1.15 -1.85"/><path fill="none" stroke="#000000" stroke-width="0.5" stroke-opacity="0.2" d="M1.85 -2.25 Q1.9 -3.5 1.3 -4.1 L0.35 -4.55 0.1 -4.6 -0.15 -4.6 -0.25 -4.65 -1.05 -5.65 -1.1 -5.75 -1.2 -5.95 -1.2 -6.0 -1.35 -6.15 -1.55 -6.25 -2.15 -6.4 -2.15 -6.45 -3.05 -6.45 -3.25 -6.4 Q-4.2 -6.2 -4.85 -5.7 L-6.85 -4.85 -10.05 -3.85 -10.8 -3.6 Q-11.95 -3.15 -12.25 -2.7 M1.15 -1.85 L0.0 -2.2"/><path fill="#000000" fill-opacity="0.301960784314" d="M-8.25 -1.8 L-10.45 -2.6 -10.8 -2.7 -12.15 -2.8 Q-11.85 -3.2 -10.8 -3.6 -9.0 -3.6 -7.65 -2.55 -6.35 -1.5 -4.5 -1.85 L-1.5 -2.55 Q-0.4 -2.95 0.7 -3.65 L1.3 -4.1 Q1.9 -3.5 1.85 -2.25 L1.8 -1.7 1.15 -1.85 0.7 -2.6 0.35 -2.5 0.0 -2.2 -0.35 -2.05 -2.25 -1.15 Q-3.7 -0.5 -4.55 0.55 L-4.6 0.5 -4.7 0.5 -7.4 -1.35 -7.55 -1.45 -8.25 -1.8"/></g><g id="c13"><g><use transform="matrix(1.0,0.0,0.0,1.0,0.0,0.0)" xlink:href="#c12"/></g></g><g id="c14"><g><use transform="matrix(1.0,0.0,0.0,1.0,6.3,53.35)" xlink:href="#c9"/></g><g><use transform="matrix(0.280212402344,0.124786376953,-0.142501831055,0.302810668945,25.85,72.6)" filter="url(#filter12)" xlink:href="#c11"/></g><g><use transform="matrix(0.290451049805,0.148727416992,-0.158081054688,0.29541015625,29.7,77.0)" xlink:href="#c13"/></g><g><use transform="matrix(0.141098022461,-0.0378112792969,0.111373901367,0.225646972656,27.2,74.05)" filter="url(#filter14)" xlink:href="#c6"/></g></g><filter id="filter12"><feColorMatrix in="SourceGraphic" type="matrix" values="0.69921875 0.0 0.0 0.0 0.0 0.0 0.69921875 0.0 0.0 0.0 0.0 0.0 0.69921875 0.0 0.0 0.0 0.0 0.0 1.0 0.0" result="cxform"/><feComposite operator="in" in2="SourceGraphic" result="color-xform"/></filter><filter id="filter14"><feColorMatrix in="SourceGraphic" type="matrix" values="1.0 0.0 0.0 0.0 0.0 0.0 1.0 0.0 0.0 0.0 0.0 0.0 1.0 0.0 0.0 0.0 0.0 0.0 0.23046875 0.0" result="cxform"/><feComposite operator="in" in2="SourceGraphic" result="color-xform"/></filter></defs><g><g><use transform="matrix(1.0,0.0,0.0,1.0,0.0,0.0)" xlink:href="#c1"/></g><g><use transform="matrix(1.15496826172,0.0,0.0,1.15496826172,-1.55,-56.9)" xlink:href="#c14"/></g></g></svg>