<?xml version='1.0' encoding='UTF-8'?>
<svg xmlns:xlink="http://www.w3.org/1999/xlink" xmlns="http://www.w3.org/2000/svg" version="1.1" width="60px" height="60px" viewBox="0.0 0.0 60.0 60.0"><defs><g id="c1"><path fill="#000000" fill-opacity="0.00392156862745" d="M0.0 0.0 L60.0 0.0 60.0 60.0 0.0 60.0 0.0 0.0"/></g><g id="c2"><path fill="none" stroke="#000000" stroke-width="1.0" stroke-opacity="0.301960784314" d="M0.7 12.25 Q-0.45 9.75 0.75 8.25 1.2 7.6 2.15 7.15 2.8 6.7 3.8 6.35 L17.5 1.95 30.2 7.0 41.35 31.7 Q42.95 35.15 40.2 36.7 39.5 37.3 38.3 37.65 L19.8 43.65 Q17.15 44.45 15.5 43.3 14.35 42.55 13.65 40.9 L0.7 12.25"/><path fill="#9d147b" stroke="none" d="M35.55 22.3 L31.5 13.2 29.75 9.2 16.95 4.25 5.5 7.85 Q1.65 9.1 3.35 12.8 L8.25 23.65 15.0 38.6 15.2 39.0 Q16.8 42.25 20.45 41.1 L37.2 35.7 Q41.1 34.5 39.35 30.75 L35.55 22.3 M2.15 7.15 Q2.8 6.7 3.8 6.35 L17.5 1.95 30.2 7.0 41.35 31.7 Q42.95 35.15 40.2 36.7 L38.9 37.25 23.2 42.3 20.4 43.2 19.1 43.5 17.3 43.4 Q15.3 42.9 14.2 40.5 L5.45 20.95 1.35 11.8 Q0.4 9.65 1.1 8.3 1.45 7.65 2.15 7.15"/><path fill="#c47fad" stroke="none" d="M31.5 13.2 L35.55 22.3 39.35 30.75 Q41.1 34.5 37.2 35.7 L20.45 41.1 Q16.8 42.25 15.2 39.0 L15.0 38.6 8.25 23.65 3.35 12.8 Q1.65 9.1 5.5 7.85 L16.95 4.25 29.75 9.2 31.5 13.2 M18.5 7.45 L9.1 10.55 9.55 11.6 Q9.8 12.8 9.15 13.6 8.4 14.45 7.1 14.4 L6.8 14.4 6.95 14.6 16.3 35.2 Q16.8 36.4 17.65 37.0 18.8 37.8 20.65 37.2 L34.0 32.9 33.7 32.1 Q33.45 30.9 34.1 30.1 34.75 29.3 35.95 29.35 L35.8 29.0 27.75 10.95 18.5 7.45"/><path fill="#630a4c" stroke="none" d="M0.75 8.25 Q1.2 7.6 2.15 7.15 1.45 7.65 1.1 8.3 L0.75 8.25 M23.3 42.5 L20.1 43.55 19.1 43.5 20.4 43.2 23.2 42.3 23.3 42.5 M15.5 43.3 Q14.35 42.55 13.65 40.9 L4.6 20.9 5.45 20.95 14.2 40.5 Q15.3 42.9 17.3 43.4 L15.5 43.3"/><path fill="#300525" stroke="none" d="M4.6 20.9 L0.7 12.25 Q-0.45 9.75 0.75 8.25 L1.1 8.3 Q0.4 9.65 1.35 11.8 L5.45 20.95 4.6 20.9 M40.2 36.7 Q39.5 37.3 38.3 37.65 L23.3 42.5 23.2 42.3 38.9 37.25 40.2 36.7 M20.1 43.55 L19.8 43.65 Q17.15 44.45 15.5 43.3 L17.3 43.4 19.1 43.5 20.1 43.55"/><path fill="#fcf2cf" stroke="none" d="M27.75 10.95 L35.8 29.0 35.95 29.35 Q34.75 29.3 34.1 30.1 33.45 30.9 33.7 32.1 L34.0 32.9 20.65 37.2 Q18.8 37.8 17.65 37.0 16.8 36.4 16.3 35.2 L6.95 14.6 6.8 14.4 7.1 14.4 Q8.4 14.45 9.15 13.6 9.8 12.8 9.55 11.6 L9.1 10.55 18.5 7.45 27.75 10.95"/><path fill="none" stroke="#bf9900" stroke-width="1.0" stroke-opacity="0.749019607843" d="M31.5 13.2 L35.55 22.3 M15.0 38.6 L8.25 23.65"/><path fill="none" stroke="#ffcc00" stroke-width="1.0" stroke-opacity="0.749019607843" d="M35.55 22.3 L39.35 30.75 Q41.1 34.5 37.2 35.7 L20.45 41.1 Q16.8 42.25 15.2 39.0 L15.0 38.6 M8.25 23.65 L3.35 12.8 Q1.65 9.1 5.5 7.85 L16.95 4.25 29.75 9.2 31.5 13.2"/><path fill="none" stroke="#000000" stroke-width="0.5" stroke-opacity="0.301960784314" d="M4.6 20.9 L0.7 12.25 Q-0.45 9.75 0.75 8.25 1.2 7.6 2.15 7.15 2.8 6.7 3.8 6.35 L17.5 1.95 M30.2 7.0 L41.35 31.7 Q42.95 35.15 40.2 36.7 39.5 37.3 38.3 37.65 L23.3 42.5 20.1 43.55 19.8 43.65 Q17.15 44.45 15.5 43.3 14.35 42.55 13.65 40.9 L4.6 20.9 M5.45 20.95 L1.35 11.8 Q0.4 9.65 1.1 8.3 1.45 7.65 2.15 7.15 M19.1 43.5 L17.3 43.4 Q15.3 42.9 14.2 40.5 L5.45 20.95 M23.2 42.3 L20.4 43.2 19.1 43.5 M40.2 36.7 L38.9 37.25 23.2 42.3"/><path fill="none" stroke="#f0b92b" stroke-width="0.5" d="M27.75 10.95 L35.8 29.0 35.95 29.35 Q34.75 29.3 34.1 30.1 33.45 30.9 33.7 32.1 L34.0 32.9 20.65 37.2 Q18.8 37.8 17.65 37.0 16.8 36.4 16.3 35.2 L6.95 14.6 6.8 14.4 7.1 14.4 Q8.4 14.45 9.15 13.6 9.8 12.8 9.55 11.6 L9.1 10.55 18.5 7.45"/><path fill="none" stroke="#ffcc00" stroke-width="0.5" stroke-opacity="0.749019607843" d="M18.5 7.45 L27.75 10.95"/></g><g id="c3"><path fill="#7fdbfe" stroke="none" d="M10.75 4.9 Q10.75 4.6 10.9 4.35 11.25 3.45 11.95 2.75 13.3 1.5 14.35 2.1 15.4 2.7 14.95 4.45 14.7 5.4 14.1 6.15 L13.75 6.5 Q13.1 7.15 12.35 7.35 L11.4 7.2 Q10.95 6.9 10.75 6.4 10.5 5.75 10.75 4.9 M7.5 5.9 Q7.0 5.85 6.6 5.5 6.05 5.0 5.8 4.15 L5.7 3.6 Q5.55 2.65 5.8 1.7 6.25 0.0 7.5 0.0 L7.6 0.0 Q8.85 0.0 9.3 1.7 9.55 2.65 9.4 3.6 L9.3 4.15 8.5 5.5 7.6 5.9 7.5 5.9 M4.35 4.9 Q4.6 5.75 4.35 6.4 L3.7 7.2 2.75 7.35 Q2.0 7.15 1.35 6.5 L1.0 6.15 Q0.4 5.4 0.15 4.45 -0.3 2.7 0.75 2.1 1.8 1.5 3.15 2.75 3.85 3.45 4.2 4.35 L4.35 4.9 M5.5 13.7 Q4.45 13.9 3.65 12.95 2.75 12.0 3.2 10.25 3.7 8.5 5.25 7.6 6.4 6.9 7.55 7.0 8.75 6.9 9.9 7.6 11.45 8.5 11.95 10.25 12.35 12.0 11.5 12.95 10.7 13.9 9.65 13.7 8.55 13.5 7.55 12.6 6.55 13.5 5.5 13.7"/></g><g id="c4"><g><use transform="matrix(1.0,0.0,0.0,1.0,0.0,0.0)" xlink:href="#c3"/></g></g><radialGradient gradientUnits="userSpaceOnUse" r="819.2" cx="0" cy="0" spreadMethod="pad" gradientTransform="matrix(0.0914459228516,0.0,0.0,0.0914459228516,0.6,3.4)" id="gradient1"><stop offset="0.0" stop-color="#ffffff"/><stop offset="1.0" stop-color="#ffffff" stop-opacity="0.0"/></radialGradient><g id="c5"><path stroke="none" fill="url(#gradient1)" d="M36.65 -54.65 Q60.05 -42.0 69.75 -17.95 80.55 8.9 68.0 34.1 55.45 59.35 26.8 68.2 -1.8 77.05 -29.7 64.3 -57.6 51.6 -68.45 24.75 -79.3 -2.05 -66.75 -27.25 L-66.7 -27.3 Q-54.1 -52.5 -25.5 -61.4 3.1 -70.2 31.0 -57.5 L36.65 -54.65"/></g><g id="c6"><g><use transform="matrix(1.0,0.0,0.0,1.0,0.0,0.0)" xlink:href="#c5"/></g></g><radialGradient gradientUnits="userSpaceOnUse" r="819.2" cx="0" cy="0" spreadMethod="pad" gradientTransform="matrix(0.209197998047,0.0,0.0,0.177108764648,67.15,107.2)" id="gradient2"><stop offset="0.356862745098" stop-color="#ffffff"/><stop offset="0.670588235294" stop-opacity="0.0"/></radialGradient><g id="c7"><path fill="none" stroke-linejoin="round" stroke-linecap="round" stroke="url(#gradient2)" stroke-width="0.5" d="M136.55 165.8 L68.6 106.0 68.4 106.0 118.25 201.5 M68.3 105.8 L68.35 105.8 68.3 105.8 68.3 105.85 68.4 106.0 68.3 106.0 86.55 211.5 M68.3 105.8 L68.3 105.85 68.3 106.0 68.15 105.95 18.25 151.55 M68.3 105.85 L68.25 105.85 68.3 106.0 50.0 193.2 M68.25 105.85 L68.15 105.95 0.05 97.7 M68.3 105.85 L68.25 105.8 68.25 105.85 M68.25 105.8 L68.2 105.7 0.0 45.7 M68.3 105.8 L68.25 105.75 68.25 105.8 M68.25 105.75 L68.2 105.7 18.25 10.05 M68.6 106.0 L68.35 105.8 118.25 60.15 M86.6 18.35 L68.3 105.8 M136.6 114.25 L68.6 106.0 M68.25 105.75 L49.95 0.05"/></g><g id="c8"><g><use transform="matrix(1.0,0.0,0.0,1.0,0.0,0.0)" xlink:href="#c7"/></g></g><g id="c9"><g><use transform="matrix(1.0,0.0,0.0,1.0,0.0,0.0)" xlink:href="#c2"/></g><g><use transform="matrix(0.238861083984,-0.0867004394531,0.10026550293,0.233917236328,34.25,31.15)" xlink:href="#c4"/></g><g><use transform="matrix(0.238861083984,-0.0867004394531,0.10026550293,0.233917236328,4.25,10.3)" xlink:href="#c4"/></g><g><use transform="matrix(0.141098022461,-0.0378112792969,0.111373901367,0.225646972656,20.25,20.65)" filter="url(#filter7)" xlink:href="#c6"/></g><g><use transform="matrix(-0.155029296875,0.0513153076172,0.0841827392578,0.147033691406,22.6,3.15)" filter="url(#filter8)" xlink:href="#c8"/></g></g><filter id="filter7"><feColorMatrix in="SourceGraphic" type="matrix" values="0.0 0.0 0.0 0.0 0.796875 0.0 0.0 0.0 0.0 0.59765625 0.0 0.0 0.0 0.0 0.19921875 0.0 0.0 0.0 1.0 0.0" result="cxform"/><feComposite operator="in" in2="SourceGraphic" result="color-xform"/></filter><filter id="filter8"><feColorMatrix in="SourceGraphic" type="matrix" values="0.0 0.0 0.0 0.0 0.99609375 0.0 0.0 0.0 0.0 0.99609375 0.0 0.0 0.0 0.0 0.99609375 0.0 0.0 0.0 1.0 0.0" result="cxform"/><feComposite operator="in" in2="SourceGraphic" result="color-xform"/></filter><g id="c10"><path fill="#993300" stroke="none" d="M5.6 -8.8 L6.25 -8.2 7.75 -4.85 Q9.5 -0.7 10.55 2.65 L11.25 5.9 Q10.85 8.8 10.15 10.8 L9.8 10.45 9.45 10.4 9.8 10.8 10.05 11.15 9.65 12.1 8.8 10.45 Q8.15 9.65 7.65 9.4 L7.3 9.2 7.7 9.75 8.5 11.05 Q8.85 11.85 9.0 13.1 L6.85 14.95 6.75 15.0 3.9 15.45 2.6 15.1 Q1.3 14.05 0.15 12.65 L-1.9 9.45 -1.85 9.15 -1.5 7.9 -1.1 6.9 -1.8 7.65 -2.35 8.45 -3.5 5.7 -4.75 1.55 -5.0 0.5 -5.3 -0.65 -5.8 -3.35 -6.1 -5.2 -5.1 -7.5 -4.95 -7.25 -4.75 -7.25 -4.75 -7.3 -4.65 -7.75 -4.65 -8.2 Q-3.55 -9.9 -2.0 -10.7 -0.05 -8.95 0.95 -5.2 L1.5 -3.25 1.2 -3.35 Q1.0 -3.4 0.95 -3.25 L0.7 -2.8 0.75 -1.6 0.9 -1.15 0.75 -1.1 0.65 -1.0 0.65 -0.45 Q0.6 0.05 0.85 0.7 L1.2 1.55 1.05 1.85 1.15 2.55 1.4 3.35 1.8 3.65 2.0 3.3 2.0 3.25 2.0 2.55 1.7 1.8 1.75 1.25 1.75 1.15 1.55 0.1 1.4 -0.3 Q1.65 0.0 1.95 0.0 2.25 0.0 2.45 -0.55 L2.4 -0.6 2.45 -0.95 Q2.9 0.0 3.45 0.5 4.4 1.25 5.7 0.8 L5.9 1.2 6.15 1.35 6.25 1.15 6.25 1.1 6.35 1.1 6.25 0.6 6.25 0.55 Q6.5 0.3 6.85 0.15 L7.55 -0.6 7.6 -0.7 Q8.5 -2.4 6.95 -5.85 L5.6 -8.8 M10.45 6.45 L10.5 6.45 10.4 5.95 10.25 5.45 10.05 5.3 9.95 5.35 9.9 5.5 Q9.8 5.7 9.85 6.0 L10.1 6.55 10.35 6.7 10.45 6.5 10.45 6.45 M9.0 4.2 L8.85 3.15 8.45 2.25 8.05 2.0 7.95 2.1 7.95 2.6 8.1 3.75 8.25 4.25 8.0 4.35 7.75 4.8 7.8 5.95 Q7.9 6.6 8.3 7.05 8.6 7.55 8.95 7.5 L9.45 6.95 9.4 6.9 9.35 5.85 8.95 4.8 9.0 4.3 9.0 4.2 M5.1 3.85 L5.15 3.85 5.05 3.35 4.85 2.85 4.65 2.65 4.55 2.7 4.5 2.9 4.5 3.4 4.75 3.95 Q4.8 4.1 5.0 4.05 L5.1 3.9 5.1 3.85 M3.1 2.75 L3.05 2.0 2.8 1.25 Q2.5 0.9 2.35 0.95 L2.3 1.0 2.15 1.3 2.25 2.05 2.5 2.85 2.9 3.15 3.1 2.8 3.1 2.75 M5.35 6.9 Q5.05 6.95 4.9 7.35 4.6 7.9 4.65 9.0 4.75 10.0 5.2 10.95 L5.6 11.6 5.55 11.75 5.55 12.25 5.8 12.75 6.05 12.9 6.15 12.7 6.15 12.65 6.2 12.65 6.1 12.2 6.05 12.0 Q6.5 12.1 6.8 11.55 L6.8 11.45 7.0 9.9 6.5 7.95 5.65 6.95 5.35 6.9 M3.75 8.8 L3.7 8.95 3.7 9.45 3.95 10.0 4.2 10.15 4.3 9.95 4.3 9.9 4.35 9.9 4.25 9.4 4.05 8.95 3.85 8.75 3.75 8.8 M1.75 10.5 L1.55 9.5 1.2 8.55 Q0.9 8.15 0.75 8.35 L0.65 8.45 0.65 8.95 0.85 10.05 1.1 10.75 1.05 10.75 0.95 10.8 0.9 11.0 0.9 11.45 1.15 12.0 Q1.2 12.15 1.4 12.15 L1.5 11.95 1.5 11.9 1.55 11.9 1.45 11.4 1.35 11.05 Q1.45 11.25 1.65 11.2 L1.75 10.6 1.75 10.5 M-2.55 -7.45 L-2.95 -7.0 Q-3.3 -6.4 -3.15 -5.3 -3.15 -4.25 -2.65 -3.3 L-2.75 -3.3 -3.05 -3.2 -3.25 -2.75 -3.2 -1.55 -2.65 -0.4 Q-2.35 0.1 -1.95 0.05 -1.65 0.05 -1.5 -0.5 L-1.55 -0.55 -1.6 -1.65 -1.75 -2.1 Q-1.2 -1.95 -0.95 -2.55 L-0.95 -2.65 Q-0.7 -3.25 -0.8 -4.3 -0.9 -5.4 -1.3 -6.35 -1.7 -7.2 -2.2 -7.4 L-2.55 -7.45 M-0.8 4.65 L-0.75 4.65 -0.85 4.2 -1.05 3.7 -1.25 3.5 -1.35 3.55 -1.4 3.75 -1.45 4.25 -1.2 4.75 -0.9 4.9 -0.8 4.7 -0.8 4.65"/><path fill="#ffffff" stroke="none" d="M-5.0 -7.7 L-4.65 -8.2 -4.65 -7.75 -4.75 -7.3 -4.85 -7.35 -5.0 -7.7 M0.65 -11.4 L2.0 -11.05 2.0 -10.95 2.0 -9.85 1.85 -9.7 1.15 -10.25 0.65 -11.4 M6.25 0.55 L6.25 0.6 6.35 1.1 6.25 1.1 6.2 1.15 5.95 0.95 5.85 0.75 5.8 0.45 5.75 0.0 5.75 -0.05 5.85 -0.1 6.05 0.1 6.15 0.25 6.25 0.55 M2.45 -0.95 L2.4 -0.6 2.25 -0.5 Q1.9 -0.5 1.5 -1.0 1.2 -1.45 1.05 -2.1 0.85 -2.8 0.95 -3.25 1.0 -3.4 1.2 -3.35 L1.5 -3.25 1.85 -2.9 2.35 -1.7 2.45 -0.95 M1.4 -0.3 L1.55 0.1 1.75 1.15 1.65 1.3 1.35 1.05 0.9 0.1 0.65 -1.0 0.75 -1.1 0.9 -1.15 1.15 -0.85 1.4 -0.3 M1.7 1.8 L2.0 2.55 2.0 3.25 1.9 3.25 1.55 3.0 1.25 2.3 1.25 1.65 1.25 1.6 1.2 1.55 1.25 1.55 1.3 1.5 1.7 1.8 M3.3 -5.85 L3.15 -5.7 Q2.9 -5.55 2.6 -5.85 2.25 -6.1 2.1 -6.75 L1.95 -7.85 2.1 -8.1 2.7 -7.95 3.2 -7.05 3.3 -5.85 M4.6 -5.6 L4.65 -5.65 5.05 -5.35 5.35 -4.6 5.4 -3.8 5.3 -3.8 Q5.05 -3.8 4.95 -4.1 4.7 -4.4 4.65 -4.85 L4.6 -5.6 M4.95 -2.2 L5.0 -2.35 Q5.15 -2.6 5.35 -2.25 L5.9 -1.5 6.3 -0.6 6.2 -0.4 5.85 -0.45 Q5.5 -0.7 5.3 -1.2 L4.95 -2.2 M7.05 -2.0 L7.15 -2.05 7.35 -1.85 7.55 -1.35 7.65 -0.85 7.6 -0.85 7.55 -0.8 7.3 -1.0 7.1 -1.5 7.05 -2.0 M9.95 5.35 L10.05 5.3 10.25 5.45 10.4 5.95 10.5 6.45 10.45 6.45 10.4 6.5 10.15 6.3 9.95 5.8 9.95 5.35 M7.95 2.1 L8.05 2.0 8.45 2.25 8.85 3.15 9.0 4.2 8.9 4.35 8.6 4.1 8.15 3.15 7.95 2.1 M8.95 4.8 L9.35 5.85 9.4 6.9 9.25 7.0 8.55 6.55 8.1 5.45 Q7.9 4.8 8.0 4.35 L8.25 4.25 8.9 4.7 8.95 4.8 M4.55 2.7 L4.65 2.65 4.85 2.85 5.05 3.35 5.15 3.85 5.1 3.85 5.05 3.9 4.8 3.7 4.6 3.2 4.55 2.7 M2.3 1.0 L2.35 0.95 Q2.5 0.9 2.8 1.25 L3.05 2.0 3.1 2.75 3.0 2.75 2.65 2.5 2.35 1.75 2.3 1.0 M6.15 12.65 L6.1 12.7 5.85 12.5 5.65 12.05 5.65 11.65 5.65 11.55 5.75 11.5 5.95 11.7 6.05 12.0 6.1 12.2 6.2 12.65 6.15 12.65 M6.8 11.45 L6.55 11.45 Q6.1 11.2 5.65 10.4 5.25 9.55 5.2 8.5 5.1 7.45 5.35 6.9 L5.65 6.95 6.5 7.95 7.0 9.9 6.8 11.45 M4.3 9.9 L4.25 9.95 4.0 9.75 3.8 9.25 3.75 8.8 3.85 8.75 4.05 8.95 4.25 9.4 4.35 9.9 4.3 9.9 M0.65 8.45 L0.75 8.35 Q0.9 8.15 1.2 8.55 L1.55 9.5 1.75 10.5 1.65 10.65 1.35 10.4 0.9 9.5 0.65 8.45 M1.35 11.05 L1.45 11.4 1.55 11.9 1.5 11.9 1.45 11.95 1.2 11.75 1.0 11.25 0.95 10.8 1.05 10.75 1.1 10.75 1.25 10.95 1.35 11.05 M5.65 8.75 Q5.7 8.9 5.9 8.9 L6.0 8.7 6.0 8.65 5.95 8.7 5.7 8.5 5.5 8.0 5.45 7.55 5.4 7.75 5.4 8.2 5.65 8.75 M-2.65 -3.3 Q-2.4 -3.25 -2.1 -2.85 L-1.75 -2.1 -1.6 -1.65 -1.55 -0.55 -1.7 -0.45 -2.4 -0.95 -2.9 -2.05 -3.05 -3.2 -2.75 -3.3 -2.65 -3.3 M-0.95 -2.65 L-1.2 -2.7 -2.15 -3.75 -2.65 -5.8 -2.55 -7.45 -2.2 -7.4 Q-1.7 -7.2 -1.3 -6.35 -0.9 -5.4 -0.8 -4.3 -0.7 -3.25 -0.95 -2.65 M-1.35 3.55 L-1.25 3.5 -1.05 3.7 -0.85 4.2 -0.75 4.65 -0.8 4.65 -0.85 4.7 -1.1 4.5 -1.3 4.05 -1.35 3.55"/><path fill="#cc4400" stroke="none" d="M-2.0 -10.7 Q-0.95 -11.25 0.3 -11.4 L0.35 -10.9 Q0.5 -10.15 0.9 -9.7 1.2 -9.2 1.6 -9.2 1.9 -9.2 2.05 -9.75 L2.0 -9.85 2.0 -10.95 2.0 -11.05 Q3.7 -10.45 5.6 -8.8 L6.95 -5.85 Q8.5 -2.4 7.6 -0.7 L7.6 -0.8 7.6 -0.85 7.65 -0.85 7.55 -1.35 7.35 -1.85 7.15 -2.05 7.05 -2.0 7.0 -1.8 7.0 -1.3 7.25 -0.75 Q7.3 -0.55 7.5 -0.6 L7.55 -0.6 6.85 0.15 Q6.5 0.3 6.25 0.55 L6.15 0.25 6.25 0.2 6.25 -0.45 6.3 -0.6 5.9 -1.5 5.35 -2.25 Q5.15 -2.6 5.0 -2.35 L4.95 -2.2 4.95 -1.65 5.35 -0.6 5.7 0.0 5.7 0.15 Q5.6 0.35 5.65 0.65 L5.7 0.8 Q4.4 1.25 3.45 0.5 2.9 0.0 2.45 -0.95 L2.35 -1.7 1.85 -2.9 1.5 -3.25 0.95 -5.2 Q-0.05 -8.95 -2.0 -10.7 M1.95 -7.85 Q1.8 -7.7 1.8 -7.25 1.7 -6.65 1.9 -6.05 2.1 -5.4 2.4 -5.1 L3.0 -5.0 Q3.25 -5.2 3.3 -5.8 L3.3 -5.85 3.2 -7.05 2.7 -7.95 2.1 -8.1 1.95 -7.85 M5.4 -3.8 L5.35 -4.6 5.05 -5.35 4.65 -5.65 4.6 -5.6 4.45 -5.3 Q4.35 -5.0 4.55 -4.55 4.6 -4.1 4.8 -3.75 L5.2 -3.4 5.4 -3.75 5.4 -3.8"/><path fill="#f5e1cf" stroke="none" d="M-5.1 -7.5 L-5.0 -7.7 -4.85 -7.35 -4.75 -7.3 -4.75 -7.25 -4.95 -7.25 -5.1 -7.5 M0.3 -11.4 L0.65 -11.45 0.65 -11.4 1.15 -10.25 1.85 -9.7 2.0 -9.85 2.05 -9.75 Q1.9 -9.2 1.6 -9.2 1.2 -9.2 0.9 -9.7 0.5 -10.15 0.35 -10.9 L0.3 -11.4 M7.6 -0.7 L7.55 -0.6 7.5 -0.6 Q7.3 -0.55 7.25 -0.75 L7.0 -1.3 7.0 -1.8 7.05 -2.0 7.1 -1.5 7.3 -1.0 7.55 -0.8 7.6 -0.85 7.6 -0.8 7.6 -0.7 M6.25 1.1 L6.25 1.15 6.15 1.35 5.9 1.2 5.7 0.8 5.65 0.65 Q5.6 0.35 5.7 0.15 L5.7 0.0 5.35 -0.6 4.95 -1.65 4.95 -2.2 5.3 -1.2 Q5.5 -0.7 5.85 -0.45 L6.2 -0.4 6.3 -0.6 6.25 -0.45 6.25 0.2 6.15 0.25 6.05 0.1 5.85 -0.1 5.75 -0.05 5.75 0.0 5.8 0.45 5.85 0.75 5.95 0.95 6.2 1.15 6.25 1.1 M2.4 -0.6 L2.45 -0.55 Q2.25 0.0 1.95 0.0 1.65 0.0 1.4 -0.3 L1.15 -0.85 0.9 -1.15 0.75 -1.6 0.7 -2.8 0.95 -3.25 Q0.85 -2.8 1.05 -2.1 1.2 -1.45 1.5 -1.0 1.9 -0.5 2.25 -0.5 L2.4 -0.6 M1.75 1.15 L1.75 1.25 1.7 1.8 1.3 1.5 1.25 1.55 1.2 1.55 1.25 1.6 1.25 1.65 1.25 2.3 1.55 3.0 1.9 3.25 2.0 3.25 2.0 3.3 1.8 3.65 1.4 3.35 1.15 2.55 1.05 1.85 1.2 1.55 0.85 0.7 Q0.6 0.05 0.65 -0.45 L0.65 -1.0 0.9 0.1 1.35 1.05 1.65 1.3 1.75 1.15 M3.3 -5.85 L3.3 -5.8 Q3.25 -5.2 3.0 -5.0 L2.4 -5.1 Q2.1 -5.4 1.9 -6.05 1.7 -6.65 1.8 -7.25 1.8 -7.7 1.95 -7.85 L2.1 -6.75 Q2.25 -6.1 2.6 -5.85 2.9 -5.55 3.15 -5.7 L3.3 -5.85 M4.6 -5.6 L4.65 -4.85 Q4.7 -4.4 4.95 -4.1 5.05 -3.8 5.3 -3.8 L5.4 -3.8 5.4 -3.75 5.2 -3.4 4.8 -3.75 Q4.6 -4.1 4.55 -4.55 4.35 -5.0 4.45 -5.3 L4.6 -5.6 M9.95 5.35 L9.95 5.8 10.15 6.3 10.4 6.5 10.45 6.45 10.45 6.5 10.35 6.7 10.1 6.55 9.85 6.0 Q9.8 5.7 9.9 5.5 L9.95 5.35 M7.95 2.1 L8.15 3.15 8.6 4.1 8.9 4.35 9.0 4.2 9.0 4.3 8.95 4.8 8.9 4.7 8.25 4.25 8.1 3.75 7.95 2.6 7.95 2.1 M9.4 6.9 L9.45 6.95 8.95 7.5 Q8.6 7.55 8.3 7.05 7.9 6.6 7.8 5.95 L7.75 4.8 8.0 4.35 Q7.9 4.8 8.1 5.45 L8.55 6.55 9.25 7.0 9.4 6.9 M4.55 2.7 L4.6 3.2 4.8 3.7 5.05 3.9 5.1 3.85 5.1 3.9 5.0 4.05 Q4.8 4.1 4.75 3.95 L4.5 3.4 4.5 2.9 4.55 2.7 M2.3 1.0 L2.35 1.75 2.65 2.5 3.0 2.75 3.1 2.75 3.1 2.8 2.9 3.15 2.5 2.85 2.25 2.05 2.15 1.3 2.3 1.0 M6.15 12.65 L6.15 12.7 6.05 12.9 5.8 12.75 5.55 12.25 5.55 11.75 5.6 11.6 5.2 10.95 Q4.75 10.0 4.65 9.0 4.6 7.9 4.9 7.35 5.05 6.95 5.35 6.9 5.1 7.45 5.2 8.5 5.25 9.55 5.65 10.4 6.1 11.2 6.55 11.45 L6.8 11.45 6.8 11.55 Q6.5 12.1 6.05 12.0 L5.95 11.7 5.75 11.5 5.65 11.55 5.65 11.65 5.65 12.05 5.85 12.5 6.1 12.7 6.15 12.65 M4.3 9.9 L4.3 9.95 4.2 10.15 3.95 10.0 3.7 9.45 3.7 8.95 3.75 8.8 3.8 9.25 4.0 9.75 4.25 9.95 4.3 9.9 M0.65 8.45 L0.9 9.5 1.35 10.4 1.65 10.65 1.75 10.5 1.75 10.6 1.65 11.2 Q1.45 11.25 1.35 11.05 L1.25 10.95 1.1 10.75 0.85 10.05 0.65 8.95 0.65 8.45 M1.5 11.9 L1.5 11.95 1.4 12.15 Q1.2 12.15 1.15 12.0 L0.9 11.45 0.9 11.0 0.95 10.8 1.0 11.25 1.2 11.75 1.45 11.95 1.5 11.9 M5.65 8.75 L5.4 8.2 5.4 7.75 5.45 7.55 5.5 8.0 5.7 8.5 5.95 8.7 6.0 8.65 6.0 8.7 5.9 8.9 Q5.7 8.9 5.65 8.75 M-2.65 -3.3 Q-3.15 -4.25 -3.15 -5.3 -3.3 -6.4 -2.95 -7.0 L-2.55 -7.45 -2.65 -5.8 -2.15 -3.75 -1.2 -2.7 -0.95 -2.65 -0.95 -2.55 Q-1.2 -1.95 -1.75 -2.1 L-2.1 -2.85 Q-2.4 -3.25 -2.65 -3.3 M-3.05 -3.2 L-2.9 -2.05 -2.4 -0.95 -1.7 -0.45 -1.55 -0.55 -1.5 -0.5 Q-1.65 0.05 -1.95 0.05 -2.35 0.1 -2.65 -0.4 L-3.2 -1.55 -3.25 -2.75 -3.05 -3.2 M-1.35 3.55 L-1.3 4.05 -1.1 4.5 -0.85 4.7 -0.8 4.65 -0.8 4.7 -0.9 4.9 -1.2 4.75 -1.45 4.25 -1.4 3.75 -1.35 3.55"/><path fill="#651f01" stroke="none" d="M11.25 5.9 L11.4 7.2 11.3 7.9 10.6 11.2 10.5 11.5 10.15 10.8 Q10.85 8.8 11.25 5.9 M10.15 11.6 L10.25 12.15 9.85 13.0 9.65 12.1 10.05 11.15 10.15 11.6 M9.05 13.55 L9.1 14.25 8.8 14.7 Q7.05 17.25 5.2 17.3 L4.25 17.2 3.95 17.1 Q2.8 16.6 1.8 15.75 L-0.2 13.7 -0.55 13.25 -2.05 10.9 -1.95 9.75 -1.9 9.45 0.15 12.65 Q1.3 14.05 2.6 15.1 L3.9 15.45 6.75 15.0 6.85 14.95 9.0 13.1 9.05 13.55 M-6.1 -5.15 L-6.15 -5.65 -6.1 -5.2 -5.8 -3.35 -5.3 -0.65 -5.0 0.5 -4.75 1.55 -3.5 5.7 -2.35 8.45 -2.7 9.6 -4.05 6.35 -4.1 6.2 Q-4.9 4.4 -5.35 1.95 L-5.7 -0.4 -6.0 -3.3 -6.1 -5.05 -6.1 -5.15"/><path fill="#361200" stroke="none" d="M10.5 11.5 L10.15 11.6 10.05 11.15 9.8 10.8 9.45 10.4 9.8 10.45 10.15 10.8 10.5 11.5 M9.85 13.0 Q9.45 13.8 9.05 13.55 L9.0 13.1 Q8.85 11.85 8.5 11.05 L7.7 9.75 7.3 9.2 7.65 9.4 Q8.15 9.65 8.8 10.45 L9.65 12.1 9.85 13.0 M-1.9 9.45 L-1.95 9.75 Q-2.15 9.95 -2.5 9.75 L-2.7 9.6 -2.35 8.45 -1.8 7.65 -1.1 6.9 -1.5 7.9 -1.85 9.15 -1.9 9.45"/><path fill="#c2772c" stroke="none" d="M3.95 17.1 L3.35 17.2 2.6 17.2 1.4 16.05 1.8 15.75 Q2.8 16.6 3.95 17.1 M-5.7 -0.4 L-5.35 1.95 -5.45 2.05 -5.9 -0.25 -5.7 -0.4 M-4.1 6.2 L-4.05 6.35 -2.7 9.6 -2.5 9.75 -2.95 10.3 Q-4.15 8.8 -4.5 6.5 L-4.1 6.2"/><path fill="#d4a274" stroke="none" d="M-0.55 13.25 L-0.2 13.7 1.8 15.75 1.4 16.05 Q-0.2 15.55 -1.15 13.7 L-0.55 13.25 M-5.35 1.95 Q-4.9 4.4 -4.1 6.2 L-4.5 6.5 Q-5.25 4.75 -5.3 3.45 L-5.45 2.05 -5.35 1.95"/><path fill="#eb9136" stroke="none" d="M2.6 17.2 L1.25 16.85 0.55 16.5 1.4 16.05 2.6 17.2 M-3.6 10.95 L-3.9 10.75 -5.0 7.15 -4.5 6.5 Q-4.15 8.8 -2.95 10.3 L-3.6 10.95 M-5.85 2.7 Q-6.3 1.45 -6.15 0.1 L-5.9 -0.25 -5.45 2.05 -5.85 2.7"/><path fill="#f2ba84" stroke="none" d="M0.55 16.5 Q-0.95 16.05 -1.8 14.0 L-1.15 13.7 Q-0.2 15.55 1.4 16.05 L0.55 16.5 M-5.0 7.15 Q-5.75 5.15 -5.85 2.7 L-5.45 2.05 -5.3 3.45 Q-5.25 4.75 -4.5 6.5 L-5.0 7.15"/><path fill="#b05d11" stroke="none" d="M-6.5 -3.95 L-6.25 -4.8 -6.1 -5.15 -6.1 -5.05 -6.0 -3.3 -6.35 -3.15 -6.0 -3.3 -5.7 -0.4 -5.9 -0.25 -6.35 -3.15 -6.5 -3.95 M-1.95 9.75 L-2.05 10.9 -0.55 13.25 -1.15 13.7 Q-2.6 13.0 -2.95 10.3 L-2.5 9.75 Q-2.15 9.95 -1.95 9.75"/><path fill="#d47315" stroke="none" d="M-1.8 14.0 Q-3.05 13.3 -3.6 10.95 L-2.95 10.3 Q-2.6 13.0 -1.15 13.7 L-1.8 14.0 M-6.15 0.1 Q-6.55 -1.5 -6.35 -3.15 L-6.6 -3.35 -6.6 -3.55 -6.6 -4.6 -6.5 -3.95 -6.35 -3.15 -5.9 -0.25 -6.15 0.1"/><path fill="none" stroke="#000000" stroke-width="0.5" stroke-opacity="0.4" d="M6.25 -8.2 L7.75 -4.85 Q9.5 -0.7 10.55 2.65 L11.25 5.9 11.4 7.2 11.3 7.9 10.6 11.2 10.5 11.5 10.15 11.6 10.25 12.15 9.85 13.0 Q9.45 13.8 9.05 13.55 L9.1 14.25 8.8 14.7 Q7.05 17.25 5.2 17.3 L4.25 17.2 3.95 17.1 3.35 17.2 2.6 17.2 1.25 16.85 0.55 16.5 Q-0.95 16.05 -1.8 14.0 -3.05 13.3 -3.6 10.95 L-3.9 10.75 -5.0 7.15 Q-5.75 5.15 -5.85 2.7 -6.3 1.45 -6.15 0.1 -6.55 -1.5 -6.35 -3.15 L-6.6 -3.35 -6.6 -3.55 M10.15 10.8 L10.5 11.5 M10.05 11.15 L9.8 10.8 9.45 10.4 9.8 10.45 10.15 10.8 M10.05 11.15 L10.15 11.6 M9.0 13.1 Q8.85 11.85 8.5 11.05 L7.7 9.75 7.3 9.2 7.65 9.4 Q8.15 9.65 8.8 10.45 L9.65 12.1 9.85 13.0 M9.05 13.55 L9.0 13.1 M-1.9 9.45 L-1.95 9.75 -2.05 10.9 -0.55 13.25 -0.2 13.7 1.8 15.75 Q2.8 16.6 3.95 17.1 M1.8 15.75 L1.4 16.05 0.55 16.5 M-6.0 -3.3 L-6.1 -5.05 -6.1 -5.15 M-2.35 8.45 L-1.8 7.65 -1.1 6.9 -1.5 7.9 -1.85 9.15 -1.9 9.45 M-6.35 -3.15 L-6.0 -3.3 -5.7 -0.4 -5.35 1.95 Q-4.9 4.4 -4.1 6.2 L-4.05 6.35 -2.7 9.6 -2.35 8.45 M-5.7 -0.4 L-5.9 -0.25 -6.15 0.1 M-5.45 2.05 L-5.35 1.95 M-5.45 2.05 L-5.85 2.7 M-4.5 6.5 L-4.1 6.2 M-5.0 7.15 L-4.5 6.5 M-2.95 10.3 L-2.5 9.75 -2.7 9.6 M-3.6 10.95 L-2.95 10.3 M-1.15 13.7 L-0.55 13.25 M-2.5 9.75 Q-2.15 9.95 -1.95 9.75 M-1.15 13.7 L-1.8 14.0"/></g><g id="c11"><g><use transform="matrix(1.0,0.0,0.0,1.0,0.0,0.0)" xlink:href="#c10"/></g></g><g id="c12"><path fill="#ffffff" stroke="none" d="M10.2 8.95 L10.1 8.95 Q9.9 9.0 9.75 8.7 L9.45 7.9 9.4 7.15 9.45 7.1 9.85 7.4 10.15 8.2 10.2 8.95 M11.2 22.55 L11.3 22.5 11.5 22.7 11.7 23.2 11.8 23.7 11.75 23.7 11.7 23.75 11.6 23.7 11.45 23.55 11.25 23.05 11.2 22.55 M1.9 12.55 L1.8 12.5 1.65 12.1 1.6 11.45 1.7 11.0 1.75 11.0 1.95 11.5 2.0 12.1 1.9 12.55 M7.2 7.25 Q7.25 7.15 7.45 7.15 7.75 7.15 8.1 7.65 L8.65 8.9 8.65 10.0 8.5 10.15 Q8.2 10.1 7.8 9.6 L7.3 8.45 Q7.1 7.75 7.2 7.25 M8.6 12.0 L8.75 11.75 Q9.0 11.55 9.35 11.9 L9.85 12.8 9.95 14.0 9.8 14.15 9.25 14.0 8.75 13.1 8.6 12.0 M12.9 20.4 L12.9 20.45 13.0 20.95 12.9 20.95 12.85 21.0 12.6 20.8 12.5 20.6 12.45 20.3 12.4 19.85 12.4 19.8 12.5 19.75 12.7 19.95 12.8 20.1 12.9 20.4 M9.1 18.9 L9.05 19.25 8.9 19.35 8.15 18.85 7.7 17.75 Q7.5 17.05 7.6 16.6 L7.85 16.5 8.15 16.6 8.5 16.95 9.0 18.15 9.1 18.9 M8.05 19.55 L8.2 19.95 8.4 21.0 8.3 21.15 8.0 20.9 Q7.7 20.55 7.55 19.95 L7.3 18.85 7.4 18.75 7.55 18.7 7.8 19.0 8.05 19.55 M8.35 21.65 L8.65 22.4 8.65 23.1 8.55 23.1 8.2 22.85 7.9 22.15 7.9 21.5 7.9 21.45 7.9 21.4 7.95 21.35 8.35 21.65 M5.7 17.2 L5.45 17.15 4.5 16.1 Q4.1 15.15 4.0 14.05 3.9 13.0 4.1 12.4 L4.45 12.45 Q4.95 12.65 5.35 13.5 L5.85 15.55 Q5.95 16.6 5.7 17.2 M4.0 16.55 L4.55 17.0 4.9 17.75 5.05 18.2 5.1 19.3 4.95 19.4 4.25 18.9 3.75 17.8 3.6 16.65 3.9 16.55 4.0 16.55 M9.75 22.6 L9.65 22.6 9.3 22.35 9.0 21.6 8.95 20.85 9.0 20.8 9.45 21.1 9.7 21.85 9.75 22.6 M11.25 14.25 L11.3 14.2 11.7 14.5 12.0 15.25 12.05 16.05 11.95 16.05 11.6 15.75 11.3 15.0 11.25 14.25 M11.6 17.65 L11.65 17.5 Q11.8 17.25 12.0 17.6 L12.55 18.35 12.95 19.25 12.85 19.45 12.5 19.4 11.95 18.65 11.6 17.65 M14.25 19.0 L14.2 19.05 13.95 18.85 13.75 18.35 13.7 17.85 13.8 17.8 14.0 18.0 14.2 18.5 14.3 19.0 14.25 19.0"/><path fill="#cc4400" stroke="none" d="M9.4 7.15 L9.25 7.45 Q9.15 7.75 9.35 8.25 L9.6 9.05 10.0 9.35 10.2 9.0 10.2 8.95 10.15 8.2 9.85 7.4 9.45 7.1 9.4 7.15 M8.65 10.0 L8.65 8.9 8.1 7.65 Q7.75 7.15 7.45 7.15 7.25 7.15 7.2 7.25 L6.95 7.7 7.0 8.95 7.55 10.15 8.25 10.65 8.7 10.1 8.65 10.0 M9.95 14.0 L9.85 12.8 9.35 11.9 Q9.0 11.55 8.75 11.75 L8.6 12.0 Q8.45 12.15 8.45 12.6 8.35 13.2 8.55 13.8 L9.05 14.75 9.65 14.85 9.95 14.05 9.95 14.0 M8.15 16.6 L7.6 14.65 Q6.35 10.05 3.75 8.45 1.15 6.75 2.75 4.45 4.4 2.05 6.15 2.95 7.9 3.75 9.7 6.55 11.55 9.35 13.6 14.0 15.6 18.5 13.5 20.0 13.15 20.15 12.9 20.4 L12.8 20.1 12.9 20.05 12.9 19.4 12.95 19.25 12.55 18.35 12.0 17.6 Q11.8 17.25 11.65 17.5 L11.6 17.65 11.6 18.2 12.0 19.25 12.35 19.85 12.35 20.0 Q12.25 20.2 12.3 20.5 L12.35 20.65 Q11.05 21.1 10.1 20.35 9.55 19.85 9.1 18.9 L9.0 18.15 8.5 16.95 8.15 16.6 M12.05 16.05 L12.0 15.25 11.7 14.5 11.3 14.2 11.25 14.25 11.1 14.55 Q11.0 14.85 11.2 15.3 L11.45 16.1 11.85 16.45 12.05 16.1 12.05 16.05 M13.7 17.85 L13.65 18.05 13.65 18.55 13.9 19.1 Q13.95 19.3 14.15 19.25 L14.25 19.05 14.25 19.0 14.3 19.0 14.2 18.5 14.0 18.0 13.8 17.8 13.7 17.85"/><path fill="#f5e1cf" stroke="none" d="M10.2 8.95 L10.2 9.0 10.0 9.35 9.6 9.05 9.35 8.25 Q9.15 7.75 9.25 7.45 L9.4 7.15 9.45 7.9 9.75 8.7 Q9.9 9.0 10.1 8.95 L10.2 8.95 M11.35 23.75 L11.15 23.25 11.15 22.75 11.2 22.55 11.25 23.05 11.45 23.55 11.6 23.7 11.7 23.75 11.75 23.7 11.75 23.75 11.65 23.9 Q11.45 23.95 11.4 23.8 L11.35 23.75 M1.7 11.0 L1.6 11.45 1.65 12.1 1.8 12.5 1.9 12.55 1.9 12.6 1.7 12.6 1.5 12.25 1.5 11.6 Q1.45 11.25 1.55 11.1 1.6 11.0 1.7 11.0 M7.2 7.25 Q7.1 7.75 7.3 8.45 L7.8 9.6 Q8.2 10.1 8.5 10.15 L8.65 10.0 8.7 10.1 8.25 10.65 7.55 10.15 7.0 8.95 6.95 7.7 7.2 7.25 M8.6 12.0 L8.75 13.1 9.25 14.0 9.8 14.15 9.95 14.0 9.95 14.05 9.65 14.85 9.05 14.75 8.55 13.8 Q8.35 13.2 8.45 12.6 8.45 12.15 8.6 12.0 M12.9 20.95 L12.9 21.0 12.8 21.2 12.55 21.05 12.35 20.65 12.3 20.5 Q12.25 20.2 12.35 20.0 L12.35 19.85 12.0 19.25 11.6 18.2 11.6 17.65 11.95 18.65 12.5 19.4 12.85 19.45 12.95 19.25 12.9 19.4 12.9 20.05 12.8 20.1 12.7 19.95 12.5 19.75 12.4 19.8 12.4 19.85 12.45 20.3 12.5 20.6 12.6 20.8 12.85 21.0 12.9 20.95 M9.05 19.25 L9.1 19.3 8.6 19.85 8.05 19.55 7.8 19.0 7.55 18.7 7.4 18.25 7.35 17.05 7.6 16.6 Q7.5 17.05 7.7 17.75 L8.15 18.85 8.9 19.35 9.05 19.25 M8.4 21.0 L8.4 21.1 8.35 21.65 7.95 21.35 7.9 21.4 7.9 21.45 7.9 21.5 7.9 22.15 8.2 22.85 8.55 23.1 8.65 23.1 8.65 23.15 8.45 23.5 8.05 23.2 7.8 22.4 7.7 21.7 Q7.7 21.5 7.85 21.4 7.6 21.05 7.5 20.55 7.25 19.9 7.3 19.4 L7.3 18.85 7.55 19.95 Q7.7 20.55 8.0 20.9 L8.3 21.15 8.4 21.0 M5.7 17.2 L5.7 17.3 Q5.45 17.9 4.9 17.75 L4.55 17.0 4.0 16.55 Q3.5 15.6 3.5 14.55 3.35 13.45 3.7 12.85 L4.1 12.4 Q3.9 13.0 4.0 14.05 4.1 15.15 4.5 16.1 L5.45 17.15 5.7 17.2 M5.1 19.3 L5.15 19.35 4.7 19.9 4.0 19.45 3.45 18.3 3.4 17.1 3.6 16.65 3.75 17.8 4.25 18.9 4.95 19.4 5.1 19.3 M8.95 20.85 L9.0 21.6 9.3 22.35 9.65 22.6 9.75 22.6 9.75 22.65 9.55 23.0 9.15 22.7 8.9 21.9 8.8 21.15 8.95 20.85 M11.25 14.25 L11.3 15.0 11.6 15.75 11.95 16.05 12.05 16.05 12.05 16.1 11.85 16.45 11.45 16.1 11.2 15.3 Q11.0 14.85 11.1 14.55 L11.25 14.25 M14.25 19.0 L14.25 19.05 14.15 19.25 Q13.95 19.3 13.9 19.1 L13.65 18.55 13.65 18.05 13.7 17.85 13.75 18.35 13.95 18.85 14.2 19.05 14.25 19.0"/><path fill="#993300" stroke="none" d="M0.45 8.5 L0.45 8.05 Q0.85 4.15 3.2 2.65 4.15 1.85 5.2 1.95 6.5 1.95 7.8 3.2 9.0 4.25 10.85 7.75 12.65 10.9 14.4 15.0 L15.9 18.8 Q14.5 23.2 11.75 23.7 L11.8 23.7 11.7 23.2 11.5 22.7 11.3 22.5 11.2 22.55 11.15 22.75 11.15 23.25 11.35 23.75 5.55 23.45 5.4 23.35 5.3 23.35 Q3.55 22.85 2.0 21.85 L1.9 21.4 1.65 20.35 1.35 19.2 0.85 16.5 Q0.6 15.35 0.5 14.2 L0.45 13.9 0.4 11.6 0.4 10.0 0.45 8.5 M1.7 11.0 Q1.6 11.0 1.55 11.1 1.45 11.25 1.5 11.6 L1.5 12.25 1.7 12.6 1.9 12.6 1.9 12.55 2.0 12.1 1.95 11.5 1.75 11.0 1.7 11.0 M12.9 20.4 Q13.15 20.15 13.5 20.0 15.6 18.5 13.6 14.0 11.55 9.35 9.7 6.55 7.9 3.75 6.15 2.95 4.4 2.05 2.75 4.45 1.15 6.75 3.75 8.45 6.35 10.05 7.6 14.65 L8.15 16.6 7.85 16.5 7.6 16.6 7.35 17.05 7.4 18.25 7.55 18.7 7.4 18.75 7.3 18.85 7.3 19.4 Q7.25 19.9 7.5 20.55 7.6 21.05 7.85 21.4 7.7 21.5 7.7 21.7 L7.8 22.4 8.05 23.2 8.45 23.5 8.65 23.15 8.65 23.1 8.65 22.4 8.35 21.65 8.4 21.1 8.4 21.0 8.2 19.95 8.05 19.55 8.6 19.85 9.1 19.3 9.05 19.25 9.1 18.9 Q9.55 19.85 10.1 20.35 11.05 21.1 12.35 20.65 L12.55 21.05 12.8 21.2 12.9 21.0 12.9 20.95 13.0 20.95 12.9 20.45 12.9 20.4 M4.9 17.75 Q5.45 17.9 5.7 17.3 L5.7 17.2 Q5.95 16.6 5.85 15.55 L5.35 13.5 Q4.95 12.65 4.45 12.45 L4.1 12.4 3.7 12.85 Q3.35 13.45 3.5 14.55 3.5 15.6 4.0 16.55 L3.9 16.55 3.6 16.65 3.4 17.1 3.45 18.3 4.0 19.45 4.7 19.9 5.15 19.35 5.1 19.3 5.05 18.2 4.9 17.75 M9.75 22.6 L9.7 21.85 9.45 21.1 9.0 20.8 8.95 20.85 8.8 21.15 8.9 21.9 9.15 22.7 9.55 23.0 9.75 22.65 9.75 22.6"/><path fill="#b05d11" stroke="none" d="M0.45 8.5 L0.4 10.0 0.4 11.6 0.1 11.9 0.15 10.75 0.35 8.35 0.45 8.5 M0.45 13.9 L0.5 14.2 0.55 14.8 0.65 16.55 Q0.4 16.6 0.3 16.7 0.4 16.6 0.65 16.55 L0.95 19.45 0.75 19.6 0.3 16.7 0.05 15.25 0.05 14.05 0.45 13.9"/><path fill="#c2772c" stroke="none" d="M0.4 11.6 L0.45 13.9 0.05 14.05 0.1 11.9 0.4 11.6 M0.75 19.6 L0.95 19.45 1.25 21.35 1.05 21.2 0.75 19.6"/><path fill="#651f01" stroke="none" d="M0.5 14.2 Q0.6 15.35 0.85 16.5 L1.35 19.2 1.65 20.35 1.9 21.4 2.0 21.85 1.25 21.35 0.95 19.45 0.65 16.55 0.55 14.8 0.5 14.2"/><path fill="#d47315" stroke="none" d="M0.05 15.25 L0.3 16.7 0.05 16.5 0.05 15.25 M0.3 16.7 L0.75 19.6 Q0.45 19.7 0.5 19.95 0.1 18.35 0.3 16.7"/><path fill="#eb9136" stroke="none" d="M0.5 19.95 Q0.45 19.7 0.75 19.6 L1.05 21.2 0.45 20.75 0.5 19.95"/><path fill="none" stroke="#000000" stroke-width="0.5" stroke-opacity="0.4" d="M15.9 18.8 L14.4 15.0 Q12.65 10.9 10.85 7.75 9.0 4.25 7.8 3.2 6.5 1.95 5.2 1.95 4.15 1.85 3.2 2.65 0.85 4.15 0.45 8.05 L0.45 8.5 0.4 10.0 0.4 11.6 0.45 13.9 0.5 14.2 M0.45 8.5 L0.35 8.35 0.15 10.75 0.1 11.9 0.4 11.6 M0.05 14.05 L0.45 13.9 M0.05 14.05 L0.05 15.25 0.05 16.5 0.3 16.7 Q0.4 16.6 0.65 16.55 L0.55 14.8 0.5 14.2 M0.75 19.6 L0.95 19.45 0.65 16.55 M0.75 19.6 Q0.45 19.7 0.5 19.95 L0.45 20.75 M1.25 21.35 L0.95 19.45 M0.3 16.7 Q0.1 18.35 0.5 19.95 M0.1 11.9 L0.05 14.05"/><path fill="#6c3a0b" stroke="none" d="M5.45 5.9 L5.45 6.1 5.3 6.6 3.85 6.65 4.0 5.9 3.85 6.65 1.95 6.65 1.95 5.5 2.1 5.55 4.0 5.9 4.9 5.9 5.45 5.9 M6.7 6.2 L6.95 5.45 8.1 4.85 7.45 6.65 7.25 7.0 6.75 7.45 7.15 6.05 6.7 6.2"/><path fill="#7b430d" stroke="none" d="M5.3 6.6 L5.45 6.1 5.45 5.9 6.95 5.45 6.7 6.2 5.3 6.6 M7.25 7.0 L7.45 6.65 8.1 4.85 8.35 4.55 8.8 4.2 8.8 4.25 Q8.1 6.2 7.5 6.75 L7.25 7.0 M0.35 4.95 L0.45 5.95 -0.95 5.25 -1.05 3.95 0.35 4.95 M-2.2 4.45 Q-2.3 3.95 -2.75 3.4 -3.15 2.9 -2.85 0.25 -2.75 2.2 -2.25 2.85 L-2.25 3.55 -2.05 4.5 -2.2 4.45"/><path fill="#d47315" stroke="none" d="M5.3 6.6 L6.7 6.2 6.7 6.45 6.05 7.9 6.7 6.45 6.7 6.2 7.15 6.05 6.75 7.45 6.05 7.9 4.6 8.55 5.3 6.6 M0.45 5.95 Q0.6 7.2 1.2 8.2 L-0.45 6.95 -0.95 5.25 0.45 5.95 M-1.8 5.15 L-2.2 4.45 -2.05 4.5 -1.8 5.15"/><path fill="#aa5e11" stroke="none" d="M1.95 5.5 L1.95 6.65 0.45 5.95 0.35 4.95 1.95 5.5 M-2.25 2.85 L-2.0 3.2 Q-1.55 3.05 -1.3 3.8 L-1.05 3.95 -0.95 5.25 -2.05 4.5 -2.25 3.55 -2.25 2.85"/><path fill="#f2ba84" stroke="none" d="M1.95 6.65 L3.85 6.65 3.6 8.75 3.5 8.75 2.45 8.55 Q1.95 7.85 1.95 6.65 M-0.45 6.95 L-1.7 5.35 -1.8 5.2 -1.8 5.15 -2.05 4.5 -0.95 5.25 -0.45 6.95"/><path fill="#eb9136" stroke="none" d="M3.85 6.65 L5.3 6.6 4.6 8.55 4.15 8.7 3.9 8.75 3.6 8.75 3.85 6.65 M0.45 5.95 L1.95 6.65 Q1.95 7.85 2.45 8.55 L1.2 8.2 Q0.6 7.2 0.45 5.95"/><path fill="none" stroke="#000000" stroke-width="0.5" stroke-opacity="0.4" d="M5.45 5.9 L5.45 6.1 5.3 6.6 4.6 8.55 6.05 7.9 6.7 6.45 6.7 6.2 6.95 5.45 M4.0 5.9 L3.85 6.65 3.6 8.75 3.9 8.75 4.15 8.7 4.6 8.55 M6.75 7.45 L7.25 7.0 7.45 6.65 8.1 4.85 M7.25 7.0 L7.5 6.75 Q8.1 6.2 8.8 4.25 L8.55 5.6 M1.95 5.5 L1.95 6.65 Q1.95 7.85 2.45 8.55 L3.5 8.75 3.6 8.75 M0.35 4.95 L0.45 5.95 Q0.6 7.2 1.2 8.2 L2.45 8.55 M1.2 8.2 L-0.45 6.95 -1.7 5.35 -1.8 5.2 -1.8 5.15 -2.2 4.45 Q-2.3 3.95 -2.75 3.4 -3.15 2.9 -2.85 0.25 M6.05 7.9 L6.75 7.45 M-2.05 4.5 L-2.25 3.55 -2.25 2.85 M-1.8 5.15 L-2.05 4.5 M-0.95 5.25 L-1.05 3.95 M-0.95 5.25 L-0.45 6.95"/><path fill="#993300" stroke="none" d="M-2.7 0.0 L-2.55 -0.25 Q-2.35 -0.4 -0.85 0.3 0.75 0.95 1.85 0.6 2.9 0.3 2.95 -0.25 L2.9 -1.05 Q1.9 -3.2 5.65 -0.8 9.3 1.6 9.05 3.4 7.6 5.45 6.2 6.1 L3.0 6.2 Q1.15 5.7 0.75 5.2 L-0.55 3.9 -0.3 3.55 0.0 3.1 -0.6 3.8 -1.5 2.75 Q-2.15 1.9 -2.7 0.0"/><path fill="#651f01" stroke="none" d="M-2.7 0.0 Q-2.15 1.9 -1.5 2.75 L-0.6 3.8 -0.8 4.75 -0.8 5.65 -1.1 5.3 -1.9 4.1 -2.35 3.1 -2.35 2.95 -2.8 1.35 -2.85 0.55 -2.7 0.0 M-0.55 3.9 L0.75 5.2 Q1.15 5.7 3.0 6.2 L6.2 6.1 Q7.6 5.45 9.05 3.4 L9.05 4.1 8.3 5.4 8.1 5.7 7.1 6.55 5.85 7.3 5.35 7.4 4.55 7.65 2.9 7.5 2.8 7.5 1.35 7.05 0.05 6.3 -0.2 6.15 -0.2 6.05 -0.5 5.15 -0.55 3.9"/><path fill="#000000" stroke="none" d="M-0.6 3.8 L0.0 3.1 -0.3 3.55 -0.55 3.9 -0.5 5.15 -0.2 6.05 Q-0.45 5.4 -0.8 5.65 L-0.8 4.75 -0.6 3.8"/><path fill="none" stroke="#000000" stroke-width="0.5" stroke-opacity="0.4" d="M9.05 3.4 Q9.3 1.6 5.65 -0.8 1.9 -3.2 2.9 -1.05 L2.95 -0.25 Q2.9 0.3 1.85 0.6 0.75 0.95 -0.85 0.3 -2.35 -0.4 -2.55 -0.25 L-2.7 0.0 Q-2.15 1.9 -1.5 2.75 L-0.6 3.8 0.0 3.1 -0.3 3.55 -0.55 3.9 0.75 5.2 Q1.15 5.7 3.0 6.2 L6.2 6.1 Q7.6 5.45 9.05 3.4 L9.05 4.1 8.3 5.4 8.1 5.7 7.1 6.55 5.85 7.3 5.35 7.4 4.55 7.65 2.9 7.5 2.8 7.5 1.35 7.05 0.05 6.3 -0.2 6.15 -0.2 6.05 Q-0.45 5.4 -0.8 5.65 L-1.1 5.3 -1.9 4.1 -2.35 3.1 -2.35 2.95 -2.8 1.35 -2.85 0.55 -2.7 0.0 M-0.55 3.9 L-0.5 5.15 -0.2 6.05 M-0.8 5.65 L-0.8 4.75 -0.6 3.8"/></g><g id="c13"><path fill="#ffffff" stroke="none" d="M2.25 0.85 Q4.1 0.0 6.7 0.0 9.5 0.0 11.45 1.0 13.4 2.0 13.4 3.4 L13.15 4.35 Q11.3 5.2 8.7 5.2 5.9 5.2 3.95 4.2 2.0 3.2 2.0 1.8 2.0 1.3 2.25 0.85"/><path fill="#f5e1cf" stroke="none" d="M13.15 4.35 Q12.7 5.15 11.45 5.8 9.5 6.8 6.7 6.8 3.9 6.8 1.95 5.8 0.0 4.8 0.0 3.4 0.0 2.0 1.95 1.0 L2.25 0.85 Q2.0 1.3 2.0 1.8 2.0 3.2 3.95 4.2 5.9 5.2 8.7 5.2 11.3 5.2 13.15 4.35"/></g><g id="c14"><g><use transform="matrix(1.0,0.0,0.0,1.0,0.0,0.0)" xlink:href="#c13"/></g></g><g id="c15"><g><use transform="matrix(1.0,0.0,0.0,1.0,0.0,0.0)" xlink:href="#c12"/></g><g><use transform="matrix(-0.09521484375,-0.0305633544922,-0.0348663330078,0.173950195312,0.1,0.95)" xlink:href="#c14"/></g><g><use transform="matrix(-0.150756835938,0.0230102539062,-0.0135803222656,0.262588500977,2.3,2.2)" xlink:href="#c14"/></g><g><use transform="matrix(-0.0663299560547,0.0100708007812,-0.00486755371094,0.0940093994141,7.0,0.8)" xlink:href="#c14"/></g><g><use transform="matrix(-0.140762329102,0.021484375,-0.00932312011719,0.179733276367,6.05,3.8)" filter="url(#filter15)" xlink:href="#c14"/></g><g><use transform="matrix(-0.0663299560547,0.0100708007812,-0.00486755371094,0.0940093994141,3.5,2.85)" xlink:href="#c14"/></g><g><use transform="matrix(-0.101013183594,0.015380859375,-0.00907897949219,0.175888061523,4.75,-1.3)" xlink:href="#c14"/></g><g><use transform="matrix(-0.150756835938,0.0230102539062,-0.0135803222656,0.262588500977,7.7,1.35)" xlink:href="#c14"/></g><g><use transform="matrix(-0.0625457763672,-0.0200500488281,-0.0186157226562,0.0929870605469,-1.15,0.05)" xlink:href="#c14"/></g><g><use transform="matrix(-0.0663299560547,0.0100708007812,-0.00486755371094,0.0940093994141,3.25,0.75)" xlink:href="#c14"/></g><g><use transform="matrix(-0.0663299560547,0.0100708007812,-0.00486755371094,0.0940093994141,4.45,0.8)" xlink:href="#c14"/></g></g><filter id="filter15"><feColorMatrix in="SourceGraphic" type="matrix" values="0.921875 0.0 0.0 0.0 0.0 0.0 0.921875 0.0 0.0 0.0 0.0 0.0 0.921875 0.0 0.0 0.0 0.0 0.0 1.0 0.0" result="cxform"/><feComposite operator="in" in2="SourceGraphic" result="color-xform"/></filter><g id="c16"><g><use transform="matrix(1.0,0.0,0.0,1.0,9.3,20.65)" xlink:href="#c11"/></g><g><use transform="matrix(1.0,0.0,0.0,1.0,3.0,2.05)" xlink:href="#c15"/></g></g><g id="c17"><g><use transform="matrix(1.0,0.0,0.0,1.0,6.3,53.35)" xlink:href="#c9"/></g><g><use transform="matrix(0.682327270508,-0.201919555664,0.203872680664,0.688919067383,16.85,64.2)" xlink:href="#c16"/></g><g><use transform="matrix(0.141098022461,-0.0378112792969,0.111373901367,0.225646972656,27.2,74.05)" filter="url(#filter26)" xlink:href="#c6"/></g></g><filter id="filter26"><feColorMatrix in="SourceGraphic" type="matrix" values="1.0 0.0 0.0 0.0 0.0 0.0 1.0 0.0 0.0 0.0 0.0 0.0 1.0 0.0 0.0 0.0 0.0 0.0 0.23046875 0.0" result="cxform"/><feComposite operator="in" in2="SourceGraphic" result="color-xform"/></filter></defs><g><g><use transform="matrix(1.0,0.0,0.0,1.0,0.0,0.0)" xlink:href="#c1"/></g><g><use transform="matrix(1.15496826172,0.0,0.0,1.15496826172,-1.55,-56.9)" xlink:href="#c17"/></g></g></svg>