<?xml version='1.0' encoding='UTF-8'?>
<svg xmlns:xlink="http://www.w3.org/1999/xlink" xmlns="http://www.w3.org/2000/svg" version="1.1" width="60px" height="60px" viewBox="0.0 0.0 60.0 60.0"><defs><g id="c1"><path fill="#000000" fill-opacity="0.00392156862745" d="M0.0 0.0 L60.0 0.0 60.0 60.0 0.0 60.0 0.0 0.0"/></g><g id="c2"><path fill="none" stroke="#000000" stroke-width="1.0" stroke-opacity="0.301960784314" d="M0.7 12.25 Q-0.45 9.75 0.75 8.25 1.2 7.6 2.15 7.15 2.8 6.7 3.8 6.35 L17.5 1.95 30.2 7.0 41.35 31.7 Q42.95 35.15 40.2 36.7 39.5 37.3 38.3 37.65 L19.8 43.65 Q17.15 44.45 15.5 43.3 14.35 42.55 13.65 40.9 L0.7 12.25"/><path fill="#9d147b" stroke="none" d="M35.55 22.3 L31.5 13.2 29.75 9.2 16.95 4.25 5.5 7.85 Q1.65 9.1 3.35 12.8 L8.25 23.65 15.0 38.6 15.2 39.0 Q16.8 42.25 20.45 41.1 L37.2 35.7 Q41.1 34.5 39.35 30.75 L35.55 22.3 M2.15 7.15 Q2.8 6.7 3.8 6.35 L17.5 1.95 30.2 7.0 41.35 31.7 Q42.95 35.15 40.2 36.7 L38.9 37.25 23.2 42.3 20.4 43.2 19.1 43.5 17.3 43.4 Q15.3 42.9 14.2 40.5 L5.45 20.95 1.35 11.8 Q0.4 9.65 1.1 8.3 1.45 7.65 2.15 7.15"/><path fill="#c47fad" stroke="none" d="M31.5 13.2 L35.55 22.3 39.35 30.75 Q41.1 34.5 37.2 35.7 L20.45 41.1 Q16.8 42.25 15.2 39.0 L15.0 38.6 8.25 23.65 3.35 12.8 Q1.65 9.1 5.5 7.85 L16.95 4.25 29.75 9.2 31.5 13.2 M18.5 7.45 L9.1 10.55 9.55 11.6 Q9.8 12.8 9.15 13.6 8.4 14.45 7.1 14.4 L6.8 14.4 6.95 14.6 16.3 35.2 Q16.8 36.4 17.65 37.0 18.8 37.8 20.65 37.2 L34.0 32.9 33.7 32.1 Q33.45 30.9 34.1 30.1 34.75 29.3 35.95 29.35 L35.8 29.0 27.75 10.95 18.5 7.45"/><path fill="#630a4c" stroke="none" d="M0.75 8.25 Q1.2 7.6 2.15 7.15 1.45 7.65 1.1 8.3 L0.75 8.25 M23.3 42.5 L20.1 43.55 19.1 43.5 20.4 43.2 23.2 42.3 23.3 42.5 M15.5 43.3 Q14.35 42.55 13.65 40.9 L4.6 20.9 5.45 20.95 14.2 40.5 Q15.3 42.9 17.3 43.4 L15.5 43.3"/><path fill="#300525" stroke="none" d="M4.6 20.9 L0.7 12.25 Q-0.45 9.75 0.75 8.25 L1.1 8.3 Q0.4 9.65 1.35 11.8 L5.45 20.95 4.6 20.9 M40.2 36.7 Q39.5 37.3 38.3 37.65 L23.3 42.5 23.2 42.3 38.9 37.25 40.2 36.7 M20.1 43.55 L19.8 43.65 Q17.15 44.45 15.5 43.3 L17.3 43.4 19.1 43.5 20.1 43.55"/><path fill="#fcf2cf" stroke="none" d="M27.75 10.95 L35.8 29.0 35.95 29.35 Q34.75 29.3 34.1 30.1 33.45 30.9 33.7 32.1 L34.0 32.9 20.65 37.2 Q18.8 37.8 17.65 37.0 16.8 36.4 16.3 35.2 L6.95 14.6 6.8 14.4 7.1 14.4 Q8.4 14.45 9.15 13.6 9.8 12.8 9.55 11.6 L9.1 10.55 18.5 7.45 27.75 10.95"/><path fill="none" stroke="#bf9900" stroke-width="1.0" stroke-opacity="0.749019607843" d="M31.5 13.2 L35.55 22.3 M15.0 38.6 L8.25 23.65"/><path fill="none" stroke="#ffcc00" stroke-width="1.0" stroke-opacity="0.749019607843" d="M35.55 22.3 L39.35 30.75 Q41.1 34.5 37.2 35.7 L20.45 41.1 Q16.8 42.25 15.2 39.0 L15.0 38.6 M8.25 23.65 L3.35 12.8 Q1.65 9.1 5.5 7.85 L16.95 4.25 29.75 9.2 31.5 13.2"/><path fill="none" stroke="#000000" stroke-width="0.5" stroke-opacity="0.301960784314" d="M4.6 20.9 L0.7 12.25 Q-0.45 9.75 0.75 8.25 1.2 7.6 2.15 7.15 2.8 6.7 3.8 6.35 L17.5 1.95 M30.2 7.0 L41.35 31.7 Q42.95 35.15 40.2 36.7 39.5 37.3 38.3 37.65 L23.3 42.5 20.1 43.55 19.8 43.65 Q17.15 44.45 15.5 43.3 14.35 42.55 13.65 40.9 L4.6 20.9 M5.45 20.95 L1.35 11.8 Q0.4 9.65 1.1 8.3 1.45 7.65 2.15 7.15 M19.1 43.5 L17.3 43.4 Q15.3 42.9 14.2 40.5 L5.45 20.95 M23.2 42.3 L20.4 43.2 19.1 43.5 M40.2 36.7 L38.9 37.25 23.2 42.3"/><path fill="none" stroke="#f0b92b" stroke-width="0.5" d="M27.75 10.95 L35.8 29.0 35.95 29.35 Q34.75 29.3 34.1 30.1 33.45 30.9 33.7 32.1 L34.0 32.9 20.65 37.2 Q18.8 37.8 17.65 37.0 16.8 36.4 16.3 35.2 L6.95 14.6 6.8 14.4 7.1 14.4 Q8.4 14.45 9.15 13.6 9.8 12.8 9.55 11.6 L9.1 10.55 18.5 7.45"/><path fill="none" stroke="#ffcc00" stroke-width="0.5" stroke-opacity="0.749019607843" d="M18.5 7.45 L27.75 10.95"/></g><g id="c3"><path fill="#7fdbfe" stroke="none" d="M10.75 4.9 Q10.75 4.6 10.9 4.35 11.25 3.45 11.95 2.75 13.3 1.5 14.35 2.1 15.4 2.7 14.95 4.45 14.7 5.4 14.1 6.15 L13.75 6.5 Q13.1 7.15 12.35 7.35 L11.4 7.2 Q10.95 6.9 10.75 6.4 10.5 5.75 10.75 4.9 M7.5 5.9 Q7.0 5.85 6.6 5.5 6.05 5.0 5.8 4.15 L5.7 3.6 Q5.55 2.65 5.8 1.7 6.25 0.0 7.5 0.0 L7.6 0.0 Q8.85 0.0 9.3 1.7 9.55 2.65 9.4 3.6 L9.3 4.15 8.5 5.5 7.6 5.9 7.5 5.9 M4.35 4.9 Q4.6 5.75 4.35 6.4 L3.7 7.2 2.75 7.35 Q2.0 7.15 1.35 6.5 L1.0 6.15 Q0.4 5.4 0.15 4.45 -0.3 2.7 0.75 2.1 1.8 1.5 3.15 2.75 3.85 3.45 4.2 4.35 L4.35 4.9 M5.5 13.7 Q4.45 13.9 3.65 12.95 2.75 12.0 3.2 10.25 3.7 8.5 5.25 7.6 6.4 6.9 7.55 7.0 8.75 6.9 9.9 7.6 11.45 8.5 11.95 10.25 12.35 12.0 11.5 12.95 10.7 13.9 9.65 13.7 8.55 13.5 7.55 12.6 6.55 13.5 5.5 13.7"/></g><g id="c4"><g><use transform="matrix(1.0,0.0,0.0,1.0,0.0,0.0)" xlink:href="#c3"/></g></g><radialGradient gradientUnits="userSpaceOnUse" r="819.2" cx="0" cy="0" spreadMethod="pad" gradientTransform="matrix(0.0914459228516,0.0,0.0,0.0914459228516,0.6,3.4)" id="gradient1"><stop offset="0.0" stop-color="#ffffff"/><stop offset="1.0" stop-color="#ffffff" stop-opacity="0.0"/></radialGradient><g id="c5"><path stroke="none" fill="url(#gradient1)" d="M36.65 -54.65 Q60.05 -42.0 69.75 -17.95 80.55 8.9 68.0 34.1 55.45 59.35 26.8 68.2 -1.8 77.05 -29.7 64.3 -57.6 51.6 -68.45 24.75 -79.3 -2.05 -66.75 -27.25 L-66.7 -27.3 Q-54.1 -52.5 -25.5 -61.4 3.1 -70.2 31.0 -57.5 L36.65 -54.65"/></g><g id="c6"><g><use transform="matrix(1.0,0.0,0.0,1.0,0.0,0.0)" xlink:href="#c5"/></g></g><radialGradient gradientUnits="userSpaceOnUse" r="819.2" cx="0" cy="0" spreadMethod="pad" gradientTransform="matrix(0.209197998047,0.0,0.0,0.177108764648,67.15,107.2)" id="gradient2"><stop offset="0.356862745098" stop-color="#ffffff"/><stop offset="0.670588235294" stop-opacity="0.0"/></radialGradient><g id="c7"><path fill="none" stroke-linejoin="round" stroke-linecap="round" stroke="url(#gradient2)" stroke-width="0.5" d="M136.55 165.8 L68.6 106.0 68.4 106.0 118.25 201.5 M68.3 105.8 L68.35 105.8 68.3 105.8 68.3 105.85 68.4 106.0 68.3 106.0 86.55 211.5 M68.3 105.8 L68.3 105.85 68.3 106.0 68.15 105.95 18.25 151.55 M68.3 105.85 L68.25 105.85 68.3 106.0 50.0 193.2 M68.25 105.85 L68.15 105.95 0.05 97.7 M68.3 105.85 L68.25 105.8 68.25 105.85 M68.25 105.8 L68.2 105.7 0.0 45.7 M68.3 105.8 L68.25 105.75 68.25 105.8 M68.25 105.75 L68.2 105.7 18.25 10.05 M68.6 106.0 L68.35 105.8 118.25 60.15 M86.6 18.35 L68.3 105.8 M136.6 114.25 L68.6 106.0 M68.25 105.75 L49.95 0.05"/></g><g id="c8"><g><use transform="matrix(1.0,0.0,0.0,1.0,0.0,0.0)" xlink:href="#c7"/></g></g><g id="c9"><g><use transform="matrix(1.0,0.0,0.0,1.0,0.0,0.0)" xlink:href="#c2"/></g><g><use transform="matrix(0.238861083984,-0.0867004394531,0.10026550293,0.233917236328,34.25,31.15)" xlink:href="#c4"/></g><g><use transform="matrix(0.238861083984,-0.0867004394531,0.10026550293,0.233917236328,4.25,10.3)" xlink:href="#c4"/></g><g><use transform="matrix(0.141098022461,-0.0378112792969,0.111373901367,0.225646972656,20.25,20.65)" filter="url(#filter7)" xlink:href="#c6"/></g><g><use transform="matrix(-0.155029296875,0.0513153076172,0.0841827392578,0.147033691406,22.6,3.15)" filter="url(#filter8)" xlink:href="#c8"/></g></g><filter id="filter7"><feColorMatrix in="SourceGraphic" type="matrix" values="0.0 0.0 0.0 0.0 0.796875 0.0 0.0 0.0 0.0 0.59765625 0.0 0.0 0.0 0.0 0.19921875 0.0 0.0 0.0 1.0 0.0" result="cxform"/><feComposite operator="in" in2="SourceGraphic" result="color-xform"/></filter><filter id="filter8"><feColorMatrix in="SourceGraphic" type="matrix" values="0.0 0.0 0.0 0.0 0.99609375 0.0 0.0 0.0 0.0 0.99609375 0.0 0.0 0.0 0.0 0.99609375 0.0 0.0 0.0 1.0 0.0" result="cxform"/><feComposite operator="in" in2="SourceGraphic" result="color-xform"/></filter><linearGradient gradientUnits="userSpaceOnUse" x1="-819.2" x2="819.2" spreadMethod="pad" gradientTransform="matrix(0.0,0.0,0.0,0.0,145.85,35.4)" id="gradient3"><stop offset="0.0156862745098" stop-color="#eae08c"/><stop offset="1.0" stop-color="#e4d081"/></linearGradient><linearGradient gradientUnits="userSpaceOnUse" x1="-819.2" x2="819.2" spreadMethod="pad" gradientTransform="matrix(0.0,0.0,0.0,0.0,145.85,35.4)" id="gradient4"><stop offset="0.0" stop-color="#f2dcc8"/><stop offset="0.0156862745098" stop-color="#f4efc6"/><stop offset="1.0" stop-color="#f0e4b9"/></linearGradient><linearGradient gradientUnits="userSpaceOnUse" x1="-819.2" x2="819.2" spreadMethod="pad" gradientTransform="matrix(-0.00384521484375,-0.000106811523438,-6.103515625e-05,0.00283813476562,31.5,76.6)" id="gradient5"><stop offset="0.0156862745098" stop-color="#eae08c"/><stop offset="1.0" stop-color="#e4d081"/></linearGradient><linearGradient gradientUnits="userSpaceOnUse" x1="-819.2" x2="819.2" spreadMethod="pad" gradientTransform="matrix(0.0010986328125,0.00810241699219,-0.0020751953125,0.0,27.0,70.2)" id="gradient6"><stop offset="0.0" stop-color="#fbf1bf" stop-opacity="0.121568627451"/><stop offset="0.725490196078" stop-color="#fbf1bf" stop-opacity="0.6"/><stop offset="1.0" stop-color="#fbf1bf" stop-opacity="0.0"/></linearGradient><linearGradient gradientUnits="userSpaceOnUse" x1="-819.2" x2="819.2" spreadMethod="pad" gradientTransform="matrix(-0.000640869140625,0.00460815429688,0.000717163085938,0.0,25.85,72.5)" id="gradient7"><stop offset="0.0" stop-color="#fbf1bf" stop-opacity="0.121568627451"/><stop offset="0.725490196078" stop-color="#fbf1bf" stop-opacity="0.6"/><stop offset="1.0" stop-color="#fbf1bf" stop-opacity="0.0"/></linearGradient><g id="c10"><path fill="#737373" stroke="none" d="M27.55 73.75 L19.75 77.75 23.0 82.45 25.3 82.0 27.55 73.75"/><path fill="#aeaeae" stroke="none" d="M34.8 71.95 L33.75 70.55 33.1 72.05 33.65 72.0 33.75 72.0 34.8 71.95 M32.4 70.6 L29.95 72.25 31.75 72.15 32.4 70.6 M32.6 76.3 L34.6 78.7 34.75 76.85 35.25 75.95 35.3 73.95 34.05 75.1 32.6 76.3"/><path fill="#eeeeee" stroke="none" d="M35.7 79.95 L36.6 76.55 36.9 73.2 36.05 73.3 35.3 73.95 35.25 75.95 34.75 76.85 34.6 78.7 35.7 79.95 M35.15 72.35 L34.8 71.95 33.75 72.0 33.65 72.0 32.35 76.05 32.6 76.3 34.05 75.1 35.15 72.35 M33.75 70.55 L33.35 69.9 32.4 70.6 31.75 72.15 33.1 72.05 33.75 70.55"/><path fill="#888888" stroke="none" d="M25.3 82.0 L30.65 82.0 31.55 75.2 29.5 72.7 27.55 73.75 25.3 82.0 M31.85 81.25 L34.6 80.7 34.6 78.7 32.6 76.3 32.35 76.05 31.85 75.55 31.85 81.25"/><path fill="#dddddd" stroke="none" d="M36.6 76.55 L37.5 73.15 36.9 73.2 36.6 76.55 M36.05 73.3 L35.15 72.35 34.05 75.1 35.3 73.95 36.05 73.3 M29.95 72.25 L29.5 72.7 31.55 75.2 31.85 75.55 32.35 76.05 33.65 72.0 33.1 72.05 31.75 72.15 29.95 72.25"/><path fill="#b7b7b7" stroke="none" d="M30.65 82.0 L31.85 81.25 31.85 75.55 31.55 75.2 30.65 82.0 M34.6 80.7 L35.7 79.95 34.6 78.7 34.6 80.7"/><path fill="none" stroke="#000000" stroke-width="0.5" stroke-opacity="0.301960784314" d="M27.55 73.75 L19.75 77.75 23.0 82.45 25.3 82.0 30.65 82.0 31.85 81.25 34.6 80.7 35.7 79.95 36.6 76.55 37.5 73.15 36.9 73.2 36.05 73.3 35.15 72.35 34.8 71.95 33.75 70.55 33.35 69.9 32.4 70.6 29.95 72.25 29.5 72.7 27.55 73.75 M31.75 72.15 L29.95 72.25 M29.5 72.7 L31.55 75.2 M31.75 72.15 L33.1 72.05 33.65 72.0 M32.35 76.05 L31.85 75.55 31.55 75.2 M32.35 76.05 L32.6 76.3 34.6 78.7 35.7 79.95 M34.8 71.95 L33.75 72.0 M36.05 73.3 L35.3 73.95 34.05 75.1 32.6 76.3"/><path fill="#77ba00" stroke="none" d="M30.6 72.65 L30.5 72.65 30.2 72.0 30.1 71.65 30.3 71.9 30.6 72.3 30.75 72.7 30.6 71.25 Q30.55 70.9 30.65 70.55 L30.85 71.35 30.95 71.75 30.85 71.35 30.65 70.55 30.65 70.5 30.7 70.35 30.75 70.35 30.85 70.6 30.95 71.35 30.95 71.75 31.0 72.05 31.05 72.25 31.15 72.5 31.25 71.95 31.3 71.6 31.35 71.6 31.55 71.8 31.6 71.6 31.75 71.4 31.75 71.15 31.8 71.1 31.95 71.05 31.95 71.4 32.05 71.5 32.05 70.8 32.15 71.2 32.25 71.45 31.9 71.9 31.8 72.0 31.35 72.35 31.25 72.45 31.1 72.6 31.25 72.45 31.35 72.35 31.8 72.0 31.9 71.9 32.25 71.45 32.3 71.65 32.55 71.35 32.2 72.05 31.95 72.3 32.05 72.35 32.3 72.2 32.35 72.2 32.15 72.4 32.15 72.35 32.15 72.45 32.4 72.45 32.6 72.35 33.35 72.25 33.0 72.4 32.4 72.7 31.55 72.65 31.55 72.7 32.2 73.1 32.6 73.25 32.6 73.3 32.7 73.4 32.45 73.45 32.2 73.3 31.6 73.05 Q31.15 72.85 31.1 72.6 L31.05 72.65 31.0 72.6 30.95 72.7 30.9 72.7 30.7 73.15 30.3 73.65 30.75 72.9 30.6 72.65 M31.0 72.05 L31.1 72.55 31.1 72.6 31.1 72.55 31.0 72.05"/><path fill="#537601" stroke="none" d="M30.3 73.65 L30.7 73.15 30.9 72.7 30.95 72.7 31.0 72.6 31.05 72.65 31.05 72.7 30.35 73.7 31.05 72.7 31.05 72.65 31.2 72.8 31.65 73.15 32.1 73.4 32.45 73.5 32.45 73.45 32.5 73.55 32.75 73.65 32.75 73.7 31.65 73.6 30.95 73.05 30.4 73.7 30.35 73.7 30.25 73.65 30.3 73.65 M31.0 72.05 L30.95 71.75 30.95 71.35 30.85 70.6 30.75 70.35 30.8 70.35 31.15 71.0 31.2 71.6 31.3 71.3 31.35 71.25 Q31.4 71.05 31.6 70.9 L31.7 70.85 31.65 71.35 31.75 71.15 31.75 71.4 31.6 71.6 31.55 71.8 31.35 71.6 31.3 71.6 31.25 71.95 31.15 72.5 31.05 72.25 31.0 72.05 M32.05 70.8 L32.0 70.35 32.25 70.65 32.3 71.35 Q32.45 70.6 32.95 69.95 L33.05 69.9 33.05 69.85 33.05 69.8 32.85 71.0 32.4 71.95 32.55 71.75 32.75 71.55 32.85 71.55 32.85 71.65 32.85 71.7 32.8 71.8 32.85 71.8 32.8 71.8 32.7 71.95 32.35 72.45 32.6 72.35 32.4 72.45 32.15 72.45 32.15 72.35 32.15 72.4 32.35 72.2 32.3 72.2 32.05 72.35 31.95 72.3 32.2 72.05 32.55 71.35 32.3 71.65 32.25 71.45 32.15 71.2 32.05 70.8 M33.35 72.25 L33.25 72.75 32.05 72.9 32.6 73.25 32.2 73.1 31.55 72.7 31.55 72.65 32.4 72.7 33.0 72.4 33.35 72.25 M32.7 73.4 L32.75 73.65 32.5 73.55 32.45 73.45 32.7 73.4 M31.05 72.25 L31.2 71.7 31.15 71.6 31.2 71.6 31.15 71.6 31.2 71.7 31.05 72.25 M32.25 71.45 L32.65 70.8 32.95 69.95 32.65 70.8 32.25 71.45 M31.6 71.6 L31.6 71.45 31.65 71.35 31.6 71.45 31.6 71.6 M32.4 71.95 L32.2 72.05 32.4 71.95"/><path fill="#669900" stroke="none" d="M31.05 72.65 L31.1 72.6 Q31.15 72.85 31.6 73.05 L32.2 73.3 32.45 73.45 32.45 73.5 32.1 73.4 31.65 73.15 31.2 72.8 31.05 72.65"/><path fill="none" stroke="#33261a" stroke-width="0.5" stroke-opacity="0.152941176471" d="M30.6 72.65 L30.75 72.9 30.3 73.65 M31.05 72.65 L31.1 72.6 31.1 72.55 31.0 72.05 30.95 71.75 30.85 71.35 30.65 70.55 Q30.55 70.9 30.6 71.25 L30.75 72.7 30.6 72.3 30.3 71.9 30.1 71.65 30.2 72.0 30.5 72.65 M30.75 70.35 L30.8 70.35 31.15 71.0 31.2 71.6 31.3 71.3 31.35 71.25 Q31.4 71.05 31.6 70.9 L31.7 70.85 31.65 71.35 31.75 71.15 31.8 71.1 31.95 71.05 31.95 71.4 32.05 71.5 32.05 70.8 32.0 70.35 32.25 70.65 32.3 71.35 Q32.45 70.6 32.95 69.95 L33.05 69.9 33.05 69.85 33.05 69.8 32.85 71.0 32.4 71.95 32.55 71.75 32.75 71.55 32.85 71.55 32.85 71.65 M32.85 71.7 L32.8 71.8 32.85 71.8 32.8 71.8 32.7 71.95 32.35 72.45 32.6 72.35 33.35 72.25 33.25 72.75 32.05 72.9 32.6 73.25 32.6 73.3 32.7 73.4 32.75 73.65 32.75 73.7 31.65 73.6 30.95 73.05 30.4 73.7 30.45 73.7 30.35 73.7 30.25 73.65 30.3 73.65 M31.2 71.6 L31.15 71.6 31.2 71.7 31.05 72.25 M30.75 70.35 L30.7 70.35 30.65 70.5 30.65 70.55 M30.4 73.7 L30.35 73.7 31.05 72.7 31.05 72.65 M32.45 73.45 L32.2 73.3 31.6 73.05 Q31.15 72.85 31.1 72.6 L31.25 72.45 31.35 72.35 31.8 72.0 31.9 71.9 32.25 71.45 M32.45 73.45 L32.5 73.55 32.75 73.65 M31.65 71.35 L31.6 71.45 31.6 71.6 M32.95 69.95 L32.65 70.8 32.25 71.45 M32.2 72.05 L32.4 71.95"/><path fill="#bf8605" stroke="none" d="M19.3 75.45 L19.05 77.1 23.5 82.35 23.5 81.2 22.85 79.45 21.1 77.05 19.3 75.45"/><path fill="#fdcf1c" stroke="none" d="M19.3 75.45 L21.1 77.05 19.8 75.05 19.3 75.45 M22.85 79.45 L23.5 81.2 23.8 80.8 Q30.3 80.75 34.65 77.9 34.95 78.25 34.55 79.65 L35.05 79.35 35.2 77.7 34.45 76.85 34.35 77.6 Q28.8 80.65 24.25 80.55 L22.85 79.45"/><path fill="#eebe00" stroke="none" d="M21.1 77.05 L22.85 79.45 24.25 80.55 Q28.8 80.65 34.35 77.6 L34.45 76.85 31.5 74.85 19.8 75.05 21.1 77.05"/><path fill="#d49f06" stroke="none" d="M23.5 81.2 L23.5 82.35 Q29.2 82.8 34.55 79.65 34.95 78.25 34.65 77.9 30.3 80.75 23.8 80.8 L23.5 81.2"/><path fill="none" stroke="#000000" stroke-width="0.5" stroke-opacity="0.301960784314" d="M23.5 82.35 L19.05 77.1 19.3 75.45 M23.5 82.35 Q29.2 82.8 34.55 79.65 L35.05 79.35 35.2 77.7 34.45 76.85 31.5 74.85 19.8 75.05 19.3 75.45"/><path fill="#f7e083" stroke="none" d="M32.0 74.1 L32.2 73.75 32.65 73.2 34.05 72.7 33.35 73.6 32.0 74.1"/><path fill="#e7a223" stroke="none" d="M34.05 72.7 L34.45 73.45 34.6 73.85 34.6 73.95 34.55 74.05 33.9 74.85 33.35 73.6 34.05 72.7"/><path fill="#df8127" stroke="none" d="M33.9 74.85 L32.5 75.2 32.4 74.9 32.0 74.1 33.35 73.6 33.9 74.85"/><path fill="none" stroke="#000000" stroke-width="1.5" stroke-opacity="0.152941176471" d="M32.0 74.1 L32.2 73.75 32.65 73.2 34.05 72.7 34.45 73.45 34.6 73.85 34.6 73.95 34.55 74.05 33.9 74.85 32.5 75.2 32.4 74.9 32.0 74.1 33.35 73.6 34.05 72.7 M34.6 73.85 L34.6 73.95 M33.35 73.6 L33.9 74.85"/><path fill="#f7e083" stroke="none" d="M33.45 74.45 L34.6 74.35 35.25 75.4 34.05 75.55 33.45 74.45"/><path fill="#b86a1d" stroke="none" d="M33.45 74.45 L34.05 75.55 33.6 76.5 32.9 75.55 33.45 74.45"/><path fill="#df8127" stroke="none" d="M34.05 75.55 L35.25 75.4 34.4 76.4 33.6 76.5 34.05 75.55"/><path fill="none" stroke="#000000" stroke-width="1.5" stroke-opacity="0.152941176471" d="M35.25 75.4 L34.6 74.35 33.45 74.45 34.05 75.55 35.25 75.4 34.4 76.4 33.6 76.5 32.9 75.55 33.45 74.45 M33.6 76.5 L34.05 75.55"/><path fill="#fbf7ea" stroke="none" d="M20.35 71.95 Q21.1 72.4 21.85 73.2 L23.75 75.4 Q24.45 74.8 25.65 75.1 L24.1 72.65 26.4 74.95 27.1 74.8 Q28.4 74.55 30.3 74.8 30.25 74.35 30.95 74.0 L32.6 73.8 32.8 73.8 32.0 72.95 28.0 70.8 26.35 71.05 28.0 72.75 26.3 71.65 25.45 71.15 20.35 71.95"/><path stroke="none" fill="url(#gradient3)" d="M20.35 71.95 L20.25 75.4 21.35 76.8 21.65 77.15 22.85 77.15 22.15 77.7 22.8 78.3 23.0 78.45 24.1 79.6 Q24.35 78.05 23.75 75.4 L21.85 73.2 Q21.1 72.4 20.35 71.95 M26.35 71.05 L26.3 71.65 28.0 72.75 26.35 71.05"/><path stroke="none" fill="url(#gradient4)" d="M23.75 75.4 Q24.35 78.05 24.1 79.6 L27.2 79.3 27.25 78.7 27.9 79.15 31.0 78.35 30.3 74.8 Q28.4 74.55 27.1 74.8 L26.4 74.95 26.35 78.05 25.65 75.1 Q24.45 74.8 23.75 75.4"/><path fill="#e0c86b" stroke="none" d="M26.4 74.95 L24.1 72.65 25.65 75.1 26.35 78.05 26.4 74.95"/><path stroke="none" fill="url(#gradient5)" d="M31.0 78.35 Q32.1 77.25 33.75 77.25 L32.8 73.8 32.6 73.8 30.95 74.0 Q30.25 74.35 30.3 74.8 L31.0 78.35"/><path fill="none" stroke="#000000" stroke-width="0.5" stroke-opacity="0.211764705882" d="M24.1 79.6 L23.0 78.45 22.8 78.3 22.15 77.7 22.85 77.15 21.65 77.15 21.35 76.8 20.25 75.4 20.35 71.95 M24.1 79.6 L27.2 79.3 27.25 78.7 27.9 79.15 31.0 78.35 Q32.1 77.25 33.75 77.25 L32.8 73.8 32.0 72.95 28.0 70.8 26.35 71.05 26.3 71.65 25.45 71.15 20.35 71.95"/><path fill="none" stroke="#ffffff" stroke-width="0.5" stroke-opacity="0.501960784314" d="M28.95 71.65 Q29.1 73.65 30.85 74.75 31.7 75.45 33.0 74.45 M23.8 72.05 Q23.85 73.4 22.0 73.65 L20.45 73.1 M25.3 71.75 Q27.65 73.7 27.25 75.25 27.05 77.6 26.45 79.75 M22.95 78.65 Q23.75 78.0 23.4 76.6 22.1 74.1 20.45 73.85 M33.45 76.15 Q31.7 75.8 30.95 77.55 29.25 77.4 28.8 79.3 M20.4 75.25 Q21.8 75.55 21.5 77.2"/><path fill="#f7e083" stroke="none" d="M21.95 76.35 L20.75 76.25 20.0 77.35 21.25 77.5 21.95 76.35"/><path fill="#df8127" stroke="none" d="M21.25 77.5 L20.0 77.35 20.9 78.4 21.75 78.5 21.25 77.5"/><path fill="#b86a1d" stroke="none" d="M21.95 76.35 L21.25 77.5 21.75 78.5 22.5 77.5 21.95 76.35"/><path fill="none" stroke="#000000" stroke-width="1.5" stroke-opacity="0.152941176471" d="M20.0 77.35 L20.75 76.25 21.95 76.35 21.25 77.5 20.0 77.35 20.9 78.4 21.75 78.5 22.5 77.5 21.95 76.35 M21.75 78.5 L21.25 77.5"/><path fill="#6f6f6f" stroke="none" d="M16.75 73.5 L17.45 73.1 17.15 71.75 16.75 73.5"/><path fill="#a2a2a2" stroke="none" d="M17.45 73.1 L16.75 73.5 18.05 77.15 19.1 78.35 18.15 73.8 17.45 73.1 M20.45 78.2 L20.85 81.0 22.9 82.45 21.8 79.45 20.45 78.2"/><path fill="#dddddd" stroke="none" d="M18.9 74.6 L19.35 77.1 19.55 77.3 19.8 76.05 18.9 74.6 M20.0 77.75 L20.45 78.2 21.8 79.45 20.3 76.9 20.0 77.75"/><path fill="#b7b7b7" stroke="none" d="M18.15 73.8 L19.1 78.35 20.85 81.0 20.45 78.2 20.0 77.75 19.55 77.3 19.35 77.1 18.9 74.6 18.15 73.8"/><path fill="#eaeaea" stroke="none" d="M19.8 76.05 L19.55 77.3 20.0 77.75 20.3 76.9 19.8 76.05"/><path fill="none" stroke="#000000" stroke-width="0.5" stroke-opacity="0.301960784314" d="M17.45 73.1 L16.75 73.5 17.15 71.75 17.45 73.1 18.15 73.8 18.9 74.6 19.8 76.05 M19.1 78.35 L18.05 77.15 16.75 73.5 M19.55 77.3 L19.35 77.1 18.9 74.6 M19.55 77.3 L20.0 77.75 20.45 78.2 M20.85 81.0 L19.1 78.35 M20.3 76.9 L19.8 76.05 M21.8 79.45 L20.45 78.2 M20.3 76.9 L21.8 79.45 22.9 82.45 20.85 81.0"/><path fill="#77ba00" stroke="none" d="M25.9 72.75 L25.95 72.75 25.75 72.1 25.65 71.8 25.6 72.15 25.6 72.5 25.7 72.85 24.8 71.7 24.3 71.2 24.65 71.9 24.9 72.2 24.65 71.9 24.3 71.2 24.25 71.1 24.1 71.05 24.05 71.0 24.15 71.25 24.55 71.9 24.9 72.2 25.05 72.45 25.05 72.6 25.2 72.8 24.65 72.4 24.4 72.15 24.35 72.15 24.3 72.45 24.15 72.25 23.8 72.15 23.55 71.95 23.5 71.95 23.3 71.95 23.55 72.2 23.6 72.35 23.55 72.35 23.05 71.75 23.2 72.15 23.35 72.4 24.05 72.6 24.2 72.65 24.9 72.8 25.05 72.85 25.3 72.9 25.05 72.85 24.9 72.8 24.2 72.65 24.05 72.6 23.35 72.4 23.4 72.5 22.9 72.35 23.85 72.8 24.25 72.95 24.15 72.95 23.85 72.95 23.8 73.0 24.05 73.05 24.1 73.05 24.15 73.05 23.9 73.15 23.65 73.15 22.75 73.35 23.25 73.35 24.05 73.35 24.9 73.1 24.9 73.15 24.55 73.65 24.3 73.85 24.3 73.9 24.3 74.05 24.55 74.0 24.75 73.8 25.1 73.45 25.3 72.9 25.45 72.95 25.45 72.9 25.55 72.9 25.6 72.95 26.15 73.2 26.9 73.45 25.9 73.0 25.9 72.75 M25.05 72.45 L25.25 72.85 25.3 72.9 25.25 72.85 25.05 72.45"/><path fill="#537601" stroke="none" d="M26.9 73.45 L26.15 73.2 25.6 72.95 25.55 72.9 25.45 72.9 25.45 72.95 26.85 73.55 25.45 72.95 25.4 73.15 25.15 73.5 24.85 73.8 24.65 74.0 24.55 74.0 24.5 74.1 24.4 74.25 24.45 74.25 Q25.1 74.2 25.5 73.85 L25.8 73.2 26.8 73.5 26.85 73.55 26.9 73.55 26.9 73.45 M25.05 72.45 L24.9 72.2 24.55 71.9 24.15 71.25 24.05 71.0 24.05 71.05 24.1 71.65 24.5 72.15 24.1 71.9 24.05 71.95 23.55 71.75 23.35 71.7 23.8 72.1 23.6 71.95 23.55 71.95 23.8 72.15 24.15 72.25 24.3 72.45 24.35 72.15 24.4 72.15 24.65 72.4 25.2 72.8 25.05 72.6 25.05 72.45 M23.05 71.75 L22.75 71.4 Q22.6 71.6 22.7 71.75 L23.15 72.35 Q22.5 71.75 21.5 71.4 L21.35 71.35 21.3 71.35 21.25 71.35 22.4 72.2 23.5 72.8 23.25 72.7 22.85 72.65 22.8 72.65 22.85 72.7 22.9 72.75 23.0 72.75 22.95 72.8 23.0 72.85 23.15 72.9 23.9 73.1 23.65 73.15 23.9 73.15 24.15 73.05 24.1 73.05 24.05 73.05 23.8 73.0 23.85 72.95 24.15 72.95 24.25 72.95 23.85 72.8 22.9 72.35 23.4 72.5 23.35 72.4 23.2 72.15 23.05 71.75 M22.75 73.35 L23.2 73.65 24.55 73.45 24.3 73.85 24.55 73.65 24.9 73.15 24.9 73.1 24.05 73.35 23.25 73.35 22.75 73.35 M24.3 74.05 L24.4 74.25 24.5 74.1 24.55 74.0 24.3 74.05 M25.05 72.6 L24.55 72.2 24.5 72.15 24.55 72.2 25.05 72.6 M23.35 72.4 L22.45 71.95 21.5 71.4 22.45 71.95 23.35 72.4 M24.15 72.25 L24.0 72.15 23.95 72.1 23.8 72.1 23.95 72.1 24.0 72.15 24.15 72.25 M23.5 72.8 L23.85 72.8 23.5 72.8"/><path fill="#669900" stroke="none" d="M25.45 72.95 L25.3 72.9 25.1 73.45 24.75 73.8 24.55 74.0 24.65 74.0 24.85 73.8 25.15 73.5 25.4 73.15 25.45 72.95"/><path fill="none" stroke="#33261a" stroke-width="0.5" stroke-opacity="0.152941176471" d="M25.9 72.75 L25.9 73.0 26.9 73.45 M25.45 72.95 L25.3 72.9 25.25 72.85 25.05 72.45 24.9 72.2 24.65 71.9 24.3 71.2 24.8 71.7 25.7 72.85 25.6 72.5 25.6 72.15 25.65 71.8 25.75 72.1 25.95 72.75 M24.05 71.0 L24.05 71.05 24.1 71.65 24.5 72.15 24.1 71.9 24.05 71.95 23.55 71.75 23.35 71.7 23.8 72.1 23.6 71.95 23.55 71.95 23.5 71.95 23.3 71.95 23.55 72.2 23.6 72.35 23.55 72.35 23.05 71.75 22.75 71.4 Q22.6 71.6 22.7 71.75 L23.15 72.35 Q22.5 71.75 21.5 71.4 L21.35 71.35 21.3 71.35 21.25 71.35 22.4 72.2 23.5 72.8 23.25 72.7 22.85 72.65 22.8 72.65 22.85 72.7 M22.9 72.75 L23.0 72.75 22.95 72.8 23.0 72.85 23.15 72.9 23.9 73.1 23.65 73.15 22.75 73.35 23.2 73.65 24.55 73.45 24.3 73.85 24.3 73.9 24.3 74.05 24.4 74.25 24.45 74.25 Q25.1 74.2 25.5 73.85 L25.8 73.2 26.8 73.5 26.85 73.55 26.9 73.55 26.9 73.45 M24.5 72.15 L24.55 72.2 25.05 72.6 M24.05 71.0 L24.1 71.05 24.25 71.1 24.3 71.2 M26.8 73.5 L26.85 73.55 25.45 72.95 M24.55 74.0 L24.75 73.8 25.1 73.45 25.3 72.9 25.05 72.85 24.9 72.8 24.2 72.65 24.05 72.6 23.35 72.4 M24.55 74.0 L24.5 74.1 24.4 74.25 M23.8 72.1 L23.95 72.1 24.0 72.15 24.15 72.25 M21.5 71.4 L22.45 71.95 23.35 72.4 M23.85 72.8 L23.5 72.8"/><path stroke="none" fill="url(#gradient6)" d="M28.45 74.0 Q28.3 73.35 29.05 72.8 L29.55 72.45 Q31.35 70.8 29.65 70.25 28.0 69.65 27.85 69.35 L27.95 68.75 Q29.4 69.65 30.3 68.95 31.45 68.0 30.3 67.6 L28.5 67.4 Q28.3 67.45 28.0 67.65 L27.55 68.1 Q27.05 69.5 27.95 70.15 28.9 70.85 28.95 71.6 29.05 72.35 27.65 73.6 L26.9 74.5 Q26.5 75.25 26.8 75.9 27.2 76.65 28.05 76.9 L28.45 76.95 29.1 77.0 29.85 76.9 30.8 76.7 31.2 76.1 31.1 75.9 31.0 75.7 30.55 75.35 30.45 75.3 30.2 75.2 29.95 75.1 29.75 75.05 Q29.05 74.95 28.75 74.55 L28.45 74.0"/><path fill="none" stroke="#fbf1bf" stroke-width="0.5" stroke-opacity="0.701960784314" d="M28.45 74.0 Q28.3 73.35 29.05 72.8 L29.55 72.45 Q31.35 70.8 29.65 70.25 28.0 69.65 27.85 69.35 L27.95 68.75 Q29.4 69.65 30.3 68.95 31.45 68.0 30.3 67.6 L28.5 67.4 Q28.3 67.45 28.0 67.65 L27.55 68.1 Q27.05 69.5 27.95 70.15 28.9 70.85 28.95 71.6 29.05 72.35 27.65 73.6 L26.9 74.5"/><path stroke="none" fill="url(#gradient7)" d="M24.75 71.85 Q24.4 71.3 24.8 71.05 L25.45 70.95 25.6 71.1 25.75 71.35 Q25.9 72.15 25.55 72.5 L25.1 73.35 Q25.05 73.75 25.55 74.5 26.0 75.2 25.75 75.8 25.4 76.7 24.3 76.25 L24.2 75.9 Q24.25 75.45 24.8 75.3 L25.1 75.0 Q25.45 74.45 25.1 74.0 L24.9 73.85 Q24.35 72.9 24.9 72.55 L25.6 72.05 25.6 71.75 24.75 71.85"/></g><g id="c11"><g><use transform="matrix(1.0,0.0,0.0,1.0,0.0,0.0)" xlink:href="#c5"/></g></g><g id="c12"><g><use transform="matrix(1.0,0.0,0.0,1.0,6.3,53.35)" xlink:href="#c9"/></g><g><use transform="matrix(1.0,0.0,0.0,1.0,0.0,0.0)" xlink:href="#c10"/></g><g><use transform="matrix(-0.0721282958984,0.0,0.0,0.0483856201172,27.45,73.6)" filter="url(#filter12)" xlink:href="#c11"/></g><g><use transform="matrix(-0.0333557128906,-0.0382232666016,-0.00729370117188,0.0273590087891,20.2,77.45)" filter="url(#filter13)" xlink:href="#c11"/></g><g><use transform="matrix(-0.0663604736328,0.0130462646484,0.0199890136719,0.02001953125,30.65,79.9)" filter="url(#filter14)" xlink:href="#c11"/></g><g><use transform="matrix(-0.0271148681641,0.00531005859375,0.0126495361328,0.0365447998047,34.4,74.2)" filter="url(#filter15)" xlink:href="#c11"/></g><g><use transform="matrix(0.141098022461,-0.0378112792969,0.111373901367,0.225646972656,27.2,74.05)" filter="url(#filter16)" xlink:href="#c6"/></g></g><filter id="filter12"><feColorMatrix in="SourceGraphic" type="matrix" values="1.0 0.0 0.0 0.0 0.0 0.0 1.0 0.0 0.0 0.0 0.0 0.0 1.0 0.0 0.0 0.0 0.0 0.0 0.1015625 0.0" result="cxform"/><feComposite operator="in" in2="SourceGraphic" result="color-xform"/></filter><filter id="filter13"><feColorMatrix in="SourceGraphic" type="matrix" values="1.0 0.0 0.0 0.0 0.0 0.0 1.0 0.0 0.0 0.0 0.0 0.0 1.0 0.0 0.0 0.0 0.0 0.0 0.26953125 0.0" result="cxform"/><feComposite operator="in" in2="SourceGraphic" result="color-xform"/></filter><filter id="filter14"><feColorMatrix in="SourceGraphic" type="matrix" values="1.0 0.0 0.0 0.0 0.0 0.0 1.0 0.0 0.0 0.0 0.0 0.0 1.0 0.0 0.0 0.0 0.0 0.0 0.26953125 0.0" result="cxform"/><feComposite operator="in" in2="SourceGraphic" result="color-xform"/></filter><filter id="filter15"><feColorMatrix in="SourceGraphic" type="matrix" values="1.0 0.0 0.0 0.0 0.0 0.0 1.0 0.0 0.0 0.0 0.0 0.0 1.0 0.0 0.0 0.0 0.0 0.0 0.26953125 0.0" result="cxform"/><feComposite operator="in" in2="SourceGraphic" result="color-xform"/></filter><filter id="filter16"><feColorMatrix in="SourceGraphic" type="matrix" values="1.0 0.0 0.0 0.0 0.0 0.0 1.0 0.0 0.0 0.0 0.0 0.0 1.0 0.0 0.0 0.0 0.0 0.0 0.23046875 0.0" result="cxform"/><feComposite operator="in" in2="SourceGraphic" result="color-xform"/></filter></defs><g><g><use transform="matrix(1.0,0.0,0.0,1.0,0.0,0.0)" xlink:href="#c1"/></g><g><use transform="matrix(1.15496826172,0.0,0.0,1.15496826172,-1.55,-56.9)" xlink:href="#c12"/></g></g></svg>