<?xml version='1.0' encoding='UTF-8'?>
<svg xmlns:xlink="http://www.w3.org/1999/xlink" xmlns="http://www.w3.org/2000/svg" version="1.1" width="60px" height="60px" viewBox="0.0 0.0 60.0 60.0"><defs><g id="c1"><path fill="#000000" fill-opacity="0.00392156862745" d="M0.0 0.0 L60.0 0.0 60.0 60.0 0.0 60.0 0.0 0.0"/></g><g id="c2"><path fill="none" stroke="#000000" stroke-width="1.0" stroke-opacity="0.301960784314" d="M0.7 12.25 Q-0.45 9.75 0.75 8.25 1.2 7.6 2.15 7.15 2.8 6.7 3.8 6.35 L17.5 1.95 30.2 7.0 41.35 31.7 Q42.95 35.15 40.2 36.7 39.5 37.3 38.3 37.65 L19.8 43.65 Q17.15 44.45 15.5 43.3 14.35 42.55 13.65 40.9 L0.7 12.25"/><path fill="#9d147b" stroke="none" d="M35.55 22.3 L31.5 13.2 29.75 9.2 16.95 4.25 5.5 7.85 Q1.65 9.1 3.35 12.8 L8.25 23.65 15.0 38.6 15.2 39.0 Q16.8 42.25 20.45 41.1 L37.2 35.7 Q41.1 34.5 39.35 30.75 L35.55 22.3 M2.15 7.15 Q2.8 6.7 3.8 6.35 L17.5 1.95 30.2 7.0 41.35 31.7 Q42.95 35.15 40.2 36.7 L38.9 37.25 23.2 42.3 20.4 43.2 19.1 43.5 17.3 43.4 Q15.3 42.9 14.2 40.5 L5.45 20.95 1.35 11.8 Q0.4 9.65 1.1 8.3 1.45 7.65 2.15 7.15"/><path fill="#c47fad" stroke="none" d="M31.5 13.2 L35.55 22.3 39.35 30.75 Q41.1 34.5 37.2 35.7 L20.45 41.1 Q16.8 42.25 15.2 39.0 L15.0 38.6 8.25 23.65 3.35 12.8 Q1.65 9.1 5.5 7.85 L16.95 4.25 29.75 9.2 31.5 13.2 M18.5 7.45 L9.1 10.55 9.55 11.6 Q9.8 12.8 9.15 13.6 8.4 14.45 7.1 14.4 L6.8 14.4 6.95 14.6 16.3 35.2 Q16.8 36.4 17.65 37.0 18.8 37.8 20.65 37.2 L34.0 32.9 33.7 32.1 Q33.45 30.9 34.1 30.1 34.75 29.3 35.95 29.35 L35.8 29.0 27.75 10.95 18.5 7.45"/><path fill="#630a4c" stroke="none" d="M0.75 8.25 Q1.2 7.6 2.15 7.15 1.45 7.65 1.1 8.3 L0.75 8.25 M23.3 42.5 L20.1 43.55 19.1 43.5 20.4 43.2 23.2 42.3 23.3 42.5 M15.5 43.3 Q14.35 42.55 13.65 40.9 L4.6 20.9 5.45 20.95 14.2 40.5 Q15.3 42.9 17.3 43.4 L15.5 43.3"/><path fill="#300525" stroke="none" d="M4.6 20.9 L0.7 12.25 Q-0.45 9.75 0.75 8.25 L1.1 8.3 Q0.4 9.65 1.35 11.8 L5.45 20.95 4.6 20.9 M40.2 36.7 Q39.5 37.3 38.3 37.65 L23.3 42.5 23.2 42.3 38.9 37.25 40.2 36.7 M20.1 43.55 L19.8 43.65 Q17.15 44.45 15.5 43.3 L17.3 43.4 19.1 43.5 20.1 43.55"/><path fill="#fcf2cf" stroke="none" d="M27.75 10.95 L35.8 29.0 35.95 29.35 Q34.75 29.3 34.1 30.1 33.45 30.9 33.7 32.1 L34.0 32.9 20.65 37.2 Q18.8 37.8 17.65 37.0 16.8 36.4 16.3 35.2 L6.95 14.6 6.8 14.4 7.1 14.4 Q8.4 14.45 9.15 13.6 9.8 12.8 9.55 11.6 L9.1 10.55 18.5 7.45 27.75 10.95"/><path fill="none" stroke="#bf9900" stroke-width="1.0" stroke-opacity="0.749019607843" d="M31.5 13.2 L35.55 22.3 M15.0 38.6 L8.25 23.65"/><path fill="none" stroke="#ffcc00" stroke-width="1.0" stroke-opacity="0.749019607843" d="M35.55 22.3 L39.35 30.75 Q41.1 34.5 37.2 35.7 L20.45 41.1 Q16.8 42.25 15.2 39.0 L15.0 38.6 M8.25 23.65 L3.35 12.8 Q1.65 9.1 5.5 7.85 L16.95 4.25 29.75 9.2 31.5 13.2"/><path fill="none" stroke="#000000" stroke-width="0.5" stroke-opacity="0.301960784314" d="M4.6 20.9 L0.7 12.25 Q-0.45 9.75 0.75 8.25 1.2 7.6 2.15 7.15 2.8 6.7 3.8 6.35 L17.5 1.95 M30.2 7.0 L41.35 31.7 Q42.95 35.15 40.2 36.7 39.5 37.3 38.3 37.65 L23.3 42.5 20.1 43.55 19.8 43.65 Q17.15 44.45 15.5 43.3 14.35 42.55 13.65 40.9 L4.6 20.9 M5.45 20.95 L1.35 11.8 Q0.4 9.65 1.1 8.3 1.45 7.65 2.15 7.15 M19.1 43.5 L17.3 43.4 Q15.3 42.9 14.2 40.5 L5.45 20.95 M23.2 42.3 L20.4 43.2 19.1 43.5 M40.2 36.7 L38.9 37.25 23.2 42.3"/><path fill="none" stroke="#f0b92b" stroke-width="0.5" d="M27.75 10.95 L35.8 29.0 35.95 29.35 Q34.75 29.3 34.1 30.1 33.45 30.9 33.7 32.1 L34.0 32.9 20.65 37.2 Q18.8 37.8 17.65 37.0 16.8 36.4 16.3 35.2 L6.95 14.6 6.8 14.4 7.1 14.4 Q8.4 14.45 9.15 13.6 9.8 12.8 9.55 11.6 L9.1 10.55 18.5 7.45"/><path fill="none" stroke="#ffcc00" stroke-width="0.5" stroke-opacity="0.749019607843" d="M18.5 7.45 L27.75 10.95"/></g><g id="c3"><path fill="#7fdbfe" stroke="none" d="M10.75 4.9 Q10.75 4.6 10.9 4.35 11.25 3.45 11.95 2.75 13.3 1.5 14.35 2.1 15.4 2.7 14.95 4.45 14.7 5.4 14.1 6.15 L13.75 6.5 Q13.1 7.15 12.35 7.35 L11.4 7.2 Q10.95 6.9 10.75 6.4 10.5 5.75 10.75 4.9 M7.5 5.9 Q7.0 5.85 6.6 5.5 6.05 5.0 5.8 4.15 L5.7 3.6 Q5.55 2.65 5.8 1.7 6.25 0.0 7.5 0.0 L7.6 0.0 Q8.85 0.0 9.3 1.7 9.55 2.65 9.4 3.6 L9.3 4.15 8.5 5.5 7.6 5.9 7.5 5.9 M4.35 4.9 Q4.6 5.75 4.35 6.4 L3.7 7.2 2.75 7.35 Q2.0 7.15 1.35 6.5 L1.0 6.15 Q0.4 5.4 0.15 4.45 -0.3 2.7 0.75 2.1 1.8 1.5 3.15 2.75 3.85 3.45 4.2 4.35 L4.35 4.9 M5.5 13.7 Q4.45 13.9 3.65 12.95 2.75 12.0 3.2 10.25 3.7 8.5 5.25 7.6 6.4 6.9 7.55 7.0 8.75 6.9 9.9 7.6 11.45 8.5 11.95 10.25 12.35 12.0 11.5 12.95 10.7 13.9 9.65 13.7 8.55 13.5 7.55 12.6 6.55 13.5 5.5 13.7"/></g><g id="c4"><g><use transform="matrix(1.0,0.0,0.0,1.0,0.0,0.0)" xlink:href="#c3"/></g></g><radialGradient gradientUnits="userSpaceOnUse" r="819.2" cx="0" cy="0" spreadMethod="pad" gradientTransform="matrix(0.0914459228516,0.0,0.0,0.0914459228516,0.6,3.4)" id="gradient1"><stop offset="0.0" stop-color="#ffffff"/><stop offset="1.0" stop-color="#ffffff" stop-opacity="0.0"/></radialGradient><g id="c5"><path stroke="none" fill="url(#gradient1)" d="M36.65 -54.65 Q60.05 -42.0 69.75 -17.95 80.55 8.9 68.0 34.1 55.45 59.35 26.8 68.2 -1.8 77.05 -29.7 64.3 -57.6 51.6 -68.45 24.75 -79.3 -2.05 -66.75 -27.25 L-66.7 -27.3 Q-54.1 -52.5 -25.5 -61.4 3.1 -70.2 31.0 -57.5 L36.65 -54.65"/></g><g id="c6"><g><use transform="matrix(1.0,0.0,0.0,1.0,0.0,0.0)" xlink:href="#c5"/></g></g><radialGradient gradientUnits="userSpaceOnUse" r="819.2" cx="0" cy="0" spreadMethod="pad" gradientTransform="matrix(0.209197998047,0.0,0.0,0.177108764648,67.15,107.2)" id="gradient2"><stop offset="0.356862745098" stop-color="#ffffff"/><stop offset="0.670588235294" stop-opacity="0.0"/></radialGradient><g id="c7"><path fill="none" stroke-linejoin="round" stroke-linecap="round" stroke="url(#gradient2)" stroke-width="0.5" d="M136.55 165.8 L68.6 106.0 68.4 106.0 118.25 201.5 M68.3 105.8 L68.35 105.8 68.3 105.8 68.3 105.85 68.4 106.0 68.3 106.0 86.55 211.5 M68.3 105.8 L68.3 105.85 68.3 106.0 68.15 105.95 18.25 151.55 M68.3 105.85 L68.25 105.85 68.3 106.0 50.0 193.2 M68.25 105.85 L68.15 105.95 0.05 97.7 M68.3 105.85 L68.25 105.8 68.25 105.85 M68.25 105.8 L68.2 105.7 0.0 45.7 M68.3 105.8 L68.25 105.75 68.25 105.8 M68.25 105.75 L68.2 105.7 18.25 10.05 M68.6 106.0 L68.35 105.8 118.25 60.15 M86.6 18.35 L68.3 105.8 M136.6 114.25 L68.6 106.0 M68.25 105.75 L49.95 0.05"/></g><g id="c8"><g><use transform="matrix(1.0,0.0,0.0,1.0,0.0,0.0)" xlink:href="#c7"/></g></g><g id="c9"><g><use transform="matrix(1.0,0.0,0.0,1.0,0.0,0.0)" xlink:href="#c2"/></g><g><use transform="matrix(0.238861083984,-0.0867004394531,0.10026550293,0.233917236328,34.25,31.15)" xlink:href="#c4"/></g><g><use transform="matrix(0.238861083984,-0.0867004394531,0.10026550293,0.233917236328,4.25,10.3)" xlink:href="#c4"/></g><g><use transform="matrix(0.141098022461,-0.0378112792969,0.111373901367,0.225646972656,20.25,20.65)" filter="url(#filter7)" xlink:href="#c6"/></g><g><use transform="matrix(-0.155029296875,0.0513153076172,0.0841827392578,0.147033691406,22.6,3.15)" filter="url(#filter8)" xlink:href="#c8"/></g></g><filter id="filter7"><feColorMatrix in="SourceGraphic" type="matrix" values="0.0 0.0 0.0 0.0 0.796875 0.0 0.0 0.0 0.0 0.59765625 0.0 0.0 0.0 0.0 0.19921875 0.0 0.0 0.0 1.0 0.0" result="cxform"/><feComposite operator="in" in2="SourceGraphic" result="color-xform"/></filter><filter id="filter8"><feColorMatrix in="SourceGraphic" type="matrix" values="0.0 0.0 0.0 0.0 0.99609375 0.0 0.0 0.0 0.0 0.99609375 0.0 0.0 0.0 0.0 0.99609375 0.0 0.0 0.0 1.0 0.0" result="cxform"/><feComposite operator="in" in2="SourceGraphic" result="color-xform"/></filter><g id="c10"><path fill="#ffffff" fill-opacity="0.2" d="M61.1 6.75 L62.85 6.15 Q68.95 4.65 80.4 11.9 85.3 15.65 83.65 17.95 73.2 17.6 65.85 18.95 L65.8 18.95 Q65.4 25.25 63.15 24.8 60.5 23.85 59.3 20.65 56.55 21.6 54.35 23.0 55.1 28.5 53.45 28.6 51.85 28.45 50.6 27.1 L50.1 26.55 Q43.4 32.85 40.95 34.05 L40.75 34.1 40.4 34.3 40.45 34.95 38.6 36.2 37.95 37.25 37.55 37.0 36.85 38.15 36.6 38.35 36.45 38.7 36.35 39.55 35.7 39.45 34.9 40.25 34.35 40.95 34.4 41.55 33.65 42.3 33.55 42.5 33.85 43.55 Q32.9 46.15 27.2 53.7 L27.8 54.1 Q29.35 55.1 29.75 56.7 29.9 58.35 24.0 58.4 22.85 60.7 22.2 63.6 25.7 64.35 27.05 66.85 27.8 69.0 21.25 70.3 L21.25 70.35 Q20.8 77.8 22.55 88.1 20.35 90.05 15.75 85.75 6.65 75.4 7.4 69.15 L7.85 67.35 Q11.6 51.5 23.6 39.25 L28.5 39.4 29.15 37.8 29.2 37.2 30.3 36.0 30.45 35.75 30.45 35.7 30.95 34.25 31.45 34.3 32.1 33.35 32.75 31.9 33.3 32.05 33.8 31.5 35.4 29.75 36.05 29.85 36.2 29.75 Q35.15 27.5 35.35 25.0 45.9 12.25 61.1 6.75"/></g><g id="c11"><path fill="#125887" stroke="none" d="M37.3 32.1 L36.05 30.75 35.55 30.2 35.9 29.95 36.05 29.85 35.9 29.95 35.55 30.2 36.05 30.75 37.3 32.1 38.4 33.35 34.85 34.85 33.15 32.3 33.3 32.05 33.15 32.3 34.85 34.85 35.45 35.5 33.5 37.4 32.25 36.65 31.9 36.15 31.2 34.75 31.45 34.3 31.2 34.75 31.9 36.15 32.25 36.65 33.5 37.4 33.9 37.6 34.2 37.7 33.85 38.4 33.1 37.75 31.1 40.0 31.05 40.0 Q29.9 39.35 29.45 38.3 L29.15 37.8 29.45 38.3 Q29.9 39.35 31.05 40.0 L31.1 40.0 31.4 40.25 30.25 42.4 Q28.6 41.25 28.15 40.05 L29.15 37.8 29.2 37.2 30.3 36.0 30.45 35.75 30.45 35.7 30.95 34.25 31.45 34.3 32.1 33.35 32.75 31.9 33.3 32.05 33.8 31.5 35.4 29.75 36.05 29.85 36.55 29.5 37.1 29.3 Q38.4 30.15 39.55 31.25 L38.2 32.7 37.85 32.15 37.6 31.8 37.3 32.1 M36.55 29.5 L37.6 31.8 36.55 29.5 M32.25 36.65 L33.1 37.75 32.25 36.65"/><path fill="#0d4062" stroke="none" d="M37.3 32.1 L37.6 31.8 37.85 32.15 38.2 32.7 39.55 31.25 40.1 31.8 41.3 33.15 Q41.05 33.9 40.4 34.3 L40.45 34.95 38.6 36.2 37.95 37.25 37.55 37.0 36.85 38.15 36.6 38.35 36.45 38.7 36.35 39.55 35.7 39.45 34.9 40.25 34.35 40.95 34.4 41.55 33.65 42.3 33.05 43.4 31.35 43.15 30.25 42.4 31.4 40.25 Q32.4 40.9 34.05 41.25 L34.35 40.95 34.05 41.25 Q32.4 40.9 31.4 40.25 L31.1 40.0 33.1 37.75 33.85 38.4 34.2 37.7 33.9 37.6 33.5 37.4 35.45 35.5 34.85 34.85 38.4 33.35 37.3 32.1 M38.2 32.7 L38.85 33.75 38.4 33.35 38.85 33.75 38.2 32.7 M40.4 34.3 L39.9 34.55 38.85 33.75 39.9 34.55 40.4 34.3 M37.55 37.0 L37.3 36.9 36.6 36.45 35.45 35.5 36.6 36.45 37.3 36.9 37.55 37.0 M35.7 39.45 L34.65 38.9 34.3 38.7 33.85 38.4 34.3 38.7 34.65 38.9 35.7 39.45 M36.6 38.35 L34.2 37.7 36.6 38.35"/><path fill="none" stroke="#000000" stroke-width="0.5" stroke-opacity="0.301960784314" d="M36.05 29.85 L35.9 29.95 35.55 30.2 36.05 30.75 37.3 32.1 M37.6 31.8 L36.55 29.5 36.05 29.85 35.4 29.75 33.8 31.5 33.3 32.05 33.15 32.3 34.85 34.85 M38.4 33.35 L37.3 32.1 M36.55 29.5 L37.1 29.3 Q38.4 30.15 39.55 31.25 L40.1 31.8 41.3 33.15 Q41.05 33.9 40.4 34.3 L40.45 34.95 38.6 36.2 37.95 37.25 37.55 37.0 36.85 38.15 36.6 38.35 36.45 38.7 36.35 39.55 35.7 39.45 34.9 40.25 34.35 40.95 34.4 41.55 33.65 42.3 33.05 43.4 31.35 43.15 30.25 42.4 Q28.6 41.25 28.15 40.05 L29.15 37.8 29.2 37.2 30.3 36.0 30.45 35.75 30.45 35.7 30.95 34.25 31.45 34.3 32.1 33.35 32.75 31.9 33.3 32.05 M31.45 34.3 L31.2 34.75 31.9 36.15 32.25 36.65 33.5 37.4 M35.45 35.5 L34.85 34.85 M38.4 33.35 L38.85 33.75 38.2 32.7 37.85 32.15 37.6 31.8 M35.45 35.5 L36.6 36.45 37.3 36.9 37.55 37.0 M38.85 33.75 L39.9 34.55 40.4 34.3 M29.15 37.8 L29.45 38.3 Q29.9 39.35 31.05 40.0 L31.1 40.0 31.4 40.25 Q32.4 40.9 34.05 41.25 L34.35 40.95 M33.1 37.75 L32.25 36.65 M33.1 37.75 L33.85 38.4 34.3 38.7 34.65 38.9 35.7 39.45 M34.2 37.7 L33.9 37.6 33.5 37.4 M34.2 37.7 L36.6 38.35"/><path fill="#2f5556" stroke="none" d="M36.4 28.05 Q36.1 26.9 36.05 25.6 45.8 13.45 60.45 8.05 L63.85 6.9 67.8 7.2 67.15 7.3 Q66.55 7.5 66.4 7.95 66.3 8.45 66.7 8.95 67.15 9.4 67.85 9.55 L69.25 9.6 69.95 8.9 Q70.1 8.45 69.7 7.95 L69.25 7.55 Q74.45 9.05 81.15 13.8 L82.15 14.65 Q79.3 13.55 76.4 13.1 76.75 13.5 76.75 14.05 76.75 14.8 76.0 15.3 75.3 15.85 74.3 15.85 73.3 15.85 72.55 15.3 71.85 14.8 71.85 14.05 71.85 13.3 72.55 12.75 L68.55 12.95 Q61.95 13.8 56.1 16.5 51.0 18.8 46.45 22.5 40.6 27.65 36.4 28.05 M53.9 27.05 L52.85 26.2 Q52.95 26.6 52.7 26.8 52.45 27.0 52.0 26.8 L51.25 26.2 51.15 26.05 50.75 25.3 Q50.7 24.8 50.95 24.6 L51.55 24.65 50.25 22.15 51.45 21.3 Q52.5 21.05 53.45 21.55 L53.55 21.6 Q54.2 25.05 53.9 27.05 M61.1 17.55 L62.75 17.05 Q64.9 17.3 65.15 17.9 65.1 22.6 63.95 23.85 L62.25 22.2 61.7 22.1 60.95 21.5 60.45 20.6 Q60.4 20.1 60.65 19.9 60.9 19.7 61.25 19.9 60.95 18.9 60.95 17.7 L61.1 17.55"/><path fill="#3f7373" stroke="none" d="M82.15 14.65 L81.15 13.8 Q74.45 9.05 69.25 7.55 L69.7 7.95 Q70.1 8.45 69.95 8.9 L69.25 9.6 67.85 9.55 Q67.15 9.4 66.7 8.95 66.3 8.45 66.4 7.95 66.55 7.5 67.15 7.3 L67.8 7.2 63.85 6.9 60.45 8.05 Q45.8 13.45 36.05 25.6 36.1 26.9 36.4 28.05 37.25 31.25 40.25 33.2 44.1 31.35 49.7 26.0 L48.8 24.4 Q48.8 23.1 50.25 22.15 49.4 23.45 49.65 24.3 50.2 25.55 50.95 26.4 52.05 27.65 53.65 28.0 L53.9 27.05 Q54.2 25.05 53.55 21.6 L53.45 21.55 Q52.5 21.05 51.45 21.3 53.3 20.5 53.85 20.8 L54.05 21.0 54.25 22.2 Q56.45 20.6 59.05 19.8 L58.9 19.2 Q58.95 18.75 59.25 18.5 59.8 17.8 60.9 17.6 L60.95 17.7 Q59.65 18.6 59.6 19.55 61.05 23.8 63.65 24.1 L63.95 23.85 Q65.1 22.6 65.15 17.9 64.9 17.3 62.75 17.05 65.75 16.9 65.85 17.6 L65.85 18.15 Q76.85 16.35 83.15 17.0 83.65 16.05 82.15 14.65 M65.85 18.95 L65.85 18.15 65.85 18.95 65.8 18.95 Q65.4 25.25 63.15 24.8 60.5 23.85 59.3 20.65 56.55 21.6 54.35 23.0 55.1 28.5 53.45 28.6 51.85 28.45 50.6 27.1 L50.1 26.55 Q43.4 32.85 40.95 34.05 39.05 34.25 37.1 31.35 35.1 28.4 35.35 25.0 45.9 12.25 61.1 6.75 L62.85 6.15 Q68.95 4.65 80.4 11.9 85.3 15.65 83.65 17.95 73.2 17.6 65.85 18.95 M49.7 26.0 L50.1 26.55 49.7 26.0 M54.25 22.2 L54.35 23.0 54.25 22.2 M59.3 20.65 L59.05 19.8 59.3 20.65"/><path fill="#1e3535" stroke="none" d="M36.4 28.05 Q40.6 27.65 46.45 22.5 51.0 18.8 56.1 16.5 61.95 13.8 68.55 12.95 L72.55 12.75 Q71.85 13.3 71.85 14.05 71.85 14.8 72.55 15.3 73.3 15.85 74.3 15.85 75.3 15.85 76.0 15.3 76.75 14.8 76.75 14.05 76.75 13.5 76.4 13.1 79.3 13.55 82.15 14.65 83.65 16.05 83.15 17.0 76.85 16.35 65.85 18.15 L65.85 17.6 Q65.75 16.9 62.75 17.05 L61.1 17.55 60.9 17.6 Q59.8 17.8 59.25 18.5 58.95 18.75 58.9 19.2 L59.05 19.8 Q56.45 20.6 54.25 22.2 L54.05 21.0 53.85 20.8 Q53.3 20.5 51.45 21.3 L50.25 22.15 51.55 24.65 50.95 24.6 Q50.7 24.8 50.75 25.3 L51.15 26.05 51.25 26.2 52.0 26.8 Q52.45 27.0 52.7 26.8 52.95 26.6 52.85 26.2 L53.9 27.05 53.65 28.0 Q52.05 27.65 50.95 26.4 50.2 25.55 49.65 24.3 49.4 23.45 50.25 22.15 48.8 23.1 48.8 24.4 L49.7 26.0 Q44.1 31.35 40.25 33.2 37.25 31.25 36.4 28.05 M60.95 17.7 Q60.95 18.9 61.25 19.9 60.9 19.7 60.65 19.9 60.4 20.1 60.45 20.6 L60.95 21.5 61.7 22.1 62.25 22.2 63.95 23.85 63.65 24.1 Q61.05 23.8 59.6 19.55 59.65 18.6 60.95 17.7"/><path fill="#7aaf95" stroke="none" d="M60.9 17.6 L61.1 17.55 60.95 17.7 60.9 17.6"/><path fill="none" stroke="#ffffff" stroke-width="0.5" stroke-opacity="0.301960784314" d="M65.85 18.95 Q73.2 17.6 83.65 17.95 85.3 15.65 80.4 11.9 68.95 4.65 62.85 6.15 L61.1 6.75 Q45.9 12.25 35.35 25.0 35.1 28.4 37.1 31.35 39.05 34.25 40.95 34.05 43.4 32.85 50.1 26.55 M65.85 18.95 L65.8 18.95 Q65.4 25.25 63.15 24.8 60.5 23.85 59.3 20.65 56.55 21.6 54.35 23.0 55.1 28.5 53.45 28.6 51.85 28.45 50.6 27.1 L50.1 26.55"/><path fill="none" stroke="#ffffff" stroke-width="0.5" stroke-opacity="0.301960784314" d="M65.85 18.15 L65.85 18.95 M50.1 26.55 L49.7 26.0 M50.25 22.15 Q48.8 23.1 48.8 24.4 L49.7 26.0 M51.45 21.3 Q53.3 20.5 53.85 20.8 L54.05 21.0 54.25 22.2 M59.05 19.8 L58.9 19.2 Q58.95 18.75 59.25 18.5 59.8 17.8 60.9 17.6 M62.75 17.05 Q65.75 16.9 65.85 17.6 L65.85 18.15 M54.35 23.0 L54.25 22.2 M59.05 19.8 L59.3 20.65"/><path fill="#fbf0c8" stroke="none" d="M49.55 18.7 L50.6 18.05 Q56.65 14.5 62.2 13.25 L73.1 11.45 75.5 10.8 Q79.35 12.4 81.65 15.0 71.25 11.8 61.7 15.15 48.6 19.95 39.1 31.5 38.3 30.6 38.15 29.95 44.0 23.7 49.55 18.7 M39.1 22.65 Q39.25 23.65 40.25 23.65 L40.3 23.65 36.75 27.1 36.25 25.75 39.1 22.65"/><path fill="#fefcf8" stroke="none" d="M75.5 10.8 L73.1 11.45 62.2 13.25 Q56.65 14.5 50.6 18.05 L49.55 18.7 52.55 16.0 Q46.65 17.95 40.3 23.65 L40.25 23.65 Q39.25 23.65 39.1 22.65 45.25 16.2 51.3 12.95 58.7 8.9 64.35 8.3 71.0 8.9 75.5 10.8 M61.8 10.95 Q58.0 11.95 55.55 13.95 59.95 12.45 64.3 12.4 68.6 12.3 69.65 11.2 L61.8 10.95"/><path fill="#000000" fill-opacity="0.2" d="M67.25 11.6 L68.05 11.4 68.8 11.6 69.15 12.05 68.8 12.5 68.05 12.7 67.25 12.5 66.95 12.05 67.25 11.6 M71.95 14.85 Q71.4 15.25 70.6 15.25 69.8 15.25 69.2 14.85 68.65 14.45 68.65 13.9 68.65 13.35 69.2 12.95 L70.6 12.55 Q71.4 12.55 71.95 12.95 72.55 13.35 72.55 13.9 72.55 14.45 71.95 14.85 M67.6 16.0 L66.6 16.25 65.6 16.0 Q65.2 15.75 65.2 15.4 65.2 15.05 65.6 14.8 L66.6 14.55 67.6 14.8 Q68.0 15.05 68.0 15.4 68.0 15.75 67.6 16.0 M64.75 14.35 L64.3 14.45 63.85 14.35 63.65 14.1 63.85 13.85 64.3 13.75 64.75 13.85 64.95 14.1 64.75 14.35"/><path fill="#000000" fill-opacity="0.2" d="M52.9 11.95 Q53.15 11.65 53.55 11.5 L54.4 11.4 54.85 11.75 54.7 12.25 54.05 12.75 53.2 12.8 52.75 12.5 Q52.65 12.25 52.9 11.95 M55.05 17.55 Q55.55 17.0 56.3 16.7 L57.7 16.6 Q58.45 16.75 58.65 17.25 58.85 17.75 58.4 18.4 L57.2 19.2 55.75 19.35 Q55.1 19.15 54.9 18.65 54.7 18.15 55.05 17.55 M49.95 21.3 L49.05 21.9 48.05 22.0 Q47.55 21.95 47.4 21.6 47.3 21.3 47.6 20.9 47.9 20.5 48.5 20.3 L49.5 20.2 Q49.95 20.3 50.05 20.6 50.2 20.95 49.95 21.3 M46.6 20.8 L46.25 21.0 45.75 21.15 45.45 20.95 45.6 20.65 46.0 20.35 46.45 20.3 46.7 20.5 46.6 20.8 M52.0 22.3 L52.75 22.35 Q53.2 22.6 53.45 23.2 L53.7 24.15 Q53.65 24.65 53.4 24.75 L52.7 24.8 51.95 24.0 Q51.65 23.4 51.7 23.0 51.7 22.5 52.0 22.3 M62.6 17.85 Q62.75 17.45 63.1 17.55 63.35 17.55 63.6 17.85 L63.8 18.8 63.6 19.55 Q63.35 19.95 63.1 19.85 62.75 19.95 62.5 19.7 62.35 19.3 62.35 18.65 62.35 18.15 62.6 17.85 M64.85 20.1 L64.95 20.85 64.75 21.5 Q64.55 21.8 64.35 21.75 64.15 21.8 64.05 21.6 63.85 21.3 63.8 20.8 63.85 20.3 64.0 20.15 64.2 19.8 64.45 19.85 L64.85 20.1 M42.8 28.9 Q43.55 28.85 43.9 29.3 44.2 29.7 43.95 30.45 L43.0 31.5 Q42.4 32.0 41.65 32.05 40.95 32.0 40.65 31.6 40.35 31.15 40.45 30.45 40.85 29.85 41.5 29.35 42.15 28.85 42.8 28.9"/></g><g id="c12"><g><use transform="matrix(1.0,0.0,0.0,1.0,0.0,0.0)" xlink:href="#c5"/></g></g><g id="c13"><path fill="#2f5556" stroke="none" d="M26.9 39.9 L24.3 39.85 Q12.8 51.2 9.1 66.5 8.65 68.2 8.35 70.05 8.4 71.85 9.15 73.9 L9.15 73.2 Q9.3 72.6 9.8 72.4 L10.85 72.55 11.6 73.6 Q11.9 74.35 11.85 75.0 11.75 75.65 11.25 75.8 L10.2 75.7 9.7 75.3 Q12.0 80.25 17.85 86.2 L18.85 87.1 Q17.3 84.4 16.5 81.6 16.95 81.9 17.55 81.85 18.35 81.75 18.75 80.9 19.25 80.15 19.1 79.15 19.0 78.15 18.3 77.45 17.7 76.85 16.9 76.95 16.1 77.05 15.6 77.8 15.25 75.85 15.3 73.85 15.35 67.15 17.35 61.0 19.15 55.6 22.4 50.6 27.05 44.1 26.9 39.9 M18.85 67.5 Q19.4 69.65 20.05 69.8 24.95 69.1 26.15 67.75 25.25 66.85 24.2 66.3 L24.0 65.75 23.25 65.1 22.25 64.75 Q21.75 64.8 21.55 65.05 21.35 65.3 21.65 65.6 20.55 65.45 19.25 65.6 L19.15 65.8 18.85 67.5 M28.2 57.35 L27.15 56.45 Q27.55 56.5 27.75 56.2 L27.7 55.5 26.95 54.85 26.75 54.75 25.9 54.45 Q25.4 54.5 25.2 54.75 25.0 55.05 25.3 55.35 L22.55 54.4 21.8 55.7 Q21.7 56.8 22.3 57.7 L22.4 57.8 28.2 57.35"/><path fill="#3f7373" stroke="none" d="M18.85 87.1 L17.85 86.2 Q12.0 80.25 9.7 75.3 L10.2 75.7 11.25 75.8 Q11.75 75.65 11.85 75.0 11.9 74.35 11.6 73.6 L10.85 72.55 9.8 72.4 Q9.3 72.6 9.15 73.2 L9.15 73.9 Q8.4 71.85 8.35 70.05 8.65 68.2 9.1 66.5 12.8 51.2 24.3 39.85 L26.9 39.9 Q30.4 40.3 32.85 42.95 31.4 47.05 26.55 53.35 L27.15 53.65 26.55 53.35 24.7 52.7 Q23.35 52.85 22.55 54.4 23.8 53.4 24.7 53.55 26.1 53.9 27.1 54.5 28.55 55.45 29.15 57.0 L28.2 57.35 22.4 57.8 22.3 57.7 Q21.7 56.8 21.8 55.7 21.2 57.7 21.6 58.2 L21.85 58.35 23.15 58.4 Q21.7 60.75 21.25 63.5 L20.6 63.4 19.9 63.85 Q19.25 64.5 19.15 65.6 L19.25 65.6 Q20.05 64.25 21.05 64.05 25.7 64.85 26.35 67.45 L26.15 67.75 Q24.95 69.1 20.05 69.8 19.4 69.65 18.85 67.5 19.1 70.55 19.8 70.55 L20.4 70.45 Q19.95 81.6 21.5 87.7 20.55 88.35 18.85 87.1 M21.25 70.35 L20.4 70.45 21.25 70.35 21.25 70.3 Q27.8 69.0 27.05 66.85 25.7 64.35 22.15 63.6 L21.25 63.5 22.15 63.6 Q22.8 60.75 24.0 58.4 29.85 58.35 29.7 56.7 29.35 55.1 27.8 54.05 L27.15 53.65 Q32.9 46.15 33.8 43.55 33.75 41.65 30.45 40.1 27.1 38.55 23.6 39.25 11.6 51.5 7.8 67.3 L7.4 69.15 Q6.6 75.4 15.75 85.75 20.3 90.05 22.55 88.1 20.75 77.8 21.25 70.35 M23.15 58.4 L24.0 58.4 23.15 58.4"/><path fill="#1e3535" stroke="none" d="M26.9 39.9 Q27.05 44.1 22.4 50.6 19.15 55.6 17.35 61.0 15.35 67.15 15.3 73.85 15.25 75.85 15.6 77.8 16.1 77.05 16.9 76.95 17.7 76.85 18.3 77.45 19.0 78.15 19.1 79.15 19.25 80.15 18.75 80.9 18.35 81.75 17.55 81.85 16.95 81.9 16.5 81.6 17.3 84.4 18.85 87.1 20.55 88.35 21.5 87.7 19.95 81.6 20.4 70.45 L19.8 70.55 Q19.1 70.55 18.85 67.5 L19.15 65.8 19.15 65.6 Q19.25 64.5 19.9 63.85 L20.6 63.4 21.25 63.5 Q21.7 60.75 23.15 58.4 L21.85 58.35 21.6 58.2 Q21.2 57.7 21.8 55.7 L22.55 54.4 25.3 55.35 Q25.0 55.05 25.2 54.75 25.4 54.5 25.9 54.45 L26.75 54.75 26.95 54.85 27.7 55.5 27.75 56.2 Q27.55 56.5 27.15 56.45 L28.2 57.35 29.15 57.0 Q28.55 55.45 27.1 54.5 26.1 53.9 24.7 53.55 23.8 53.4 22.55 54.4 23.35 52.85 24.7 52.7 L26.55 53.35 Q31.4 47.05 32.85 42.95 30.4 40.3 26.9 39.9 M26.15 67.75 L26.35 67.45 Q25.7 64.85 21.05 64.05 20.05 64.25 19.25 65.6 20.55 65.45 21.65 65.6 21.35 65.3 21.55 65.05 21.75 64.8 22.25 64.75 L23.25 65.1 24.0 65.75 24.2 66.3 Q25.25 66.85 26.15 67.75"/><path fill="#7aaf95" stroke="none" d="M19.25 65.6 L19.15 65.6 19.15 65.8 19.25 65.6"/><path fill="none" stroke="#ffffff" stroke-width="0.5" stroke-opacity="0.301960784314" d="M20.4 70.45 L21.25 70.35 M27.15 53.65 L26.55 53.35 M20.4 70.45 L19.8 70.55 Q19.1 70.55 18.85 67.5 M19.15 65.6 Q19.25 64.5 19.9 63.85 L20.6 63.4 21.25 63.5 22.15 63.6 M22.55 54.4 Q23.35 52.85 24.7 52.7 L26.55 53.35 M21.8 55.7 Q21.2 57.7 21.6 58.2 L21.85 58.35 23.15 58.4 M24.0 58.4 L23.15 58.4"/><path fill="none" stroke="#ffffff" stroke-width="0.5" stroke-opacity="0.301960784314" d="M21.25 70.35 Q20.75 77.8 22.55 88.1 20.3 90.05 15.75 85.75 6.6 75.4 7.4 69.15 L7.8 67.3 Q11.6 51.5 23.6 39.25 27.1 38.55 30.45 40.1 33.75 41.65 33.8 43.55 32.9 46.15 27.15 53.65 M22.15 63.6 Q25.7 64.35 27.05 66.85 27.8 69.0 21.25 70.3 L21.25 70.35 M22.15 63.6 Q22.8 60.75 24.0 58.4 29.85 58.35 29.7 56.7 29.35 55.1 27.8 54.05 L27.15 53.65"/><path fill="#fbf0c8" stroke="none" d="M13.95 81.05 Q16.15 84.6 19.2 86.55 14.45 76.7 16.7 66.75 20.05 53.1 30.9 42.1 29.8 41.4 29.15 41.35 23.35 48.05 18.8 54.25 L18.3 55.3 Q15.35 61.8 14.75 67.5 14.45 70.15 14.3 78.55 L13.95 81.05 M22.8 44.35 L25.95 40.35 24.45 40.05 21.6 43.35 Q22.65 43.3 22.8 44.3 L22.8 44.35"/><path fill="#fefcf8" stroke="none" d="M13.95 81.05 L14.3 78.55 Q14.45 70.15 14.75 67.5 15.35 61.8 18.3 55.3 L18.8 54.25 16.4 57.55 Q17.65 51.45 22.8 44.35 L22.8 44.3 Q22.65 43.3 21.6 43.35 15.65 50.3 13.05 56.75 9.75 64.65 9.85 70.35 11.4 76.85 13.95 81.05 M14.65 60.8 Q13.65 65.4 14.15 69.7 14.6 74.0 13.6 75.2 12.55 76.35 12.3 67.4 12.85 63.55 14.65 60.8"/><path fill="#000000" fill-opacity="0.2" d="M13.85 72.8 Q13.65 73.15 13.7 73.6 13.75 74.05 14.05 74.3 L14.55 74.6 15.0 74.2 15.1 73.4 14.8 72.7 Q14.5 72.4 14.25 72.45 L13.85 72.8 M17.85 77.0 Q18.2 76.4 18.1 75.6 18.0 74.8 17.5 74.25 17.05 73.75 16.45 73.85 15.85 73.9 15.5 74.5 15.2 75.2 15.3 76.0 15.4 76.8 15.85 77.25 16.35 77.8 16.95 77.75 17.55 77.65 17.85 77.0 M18.5 72.5 L18.6 71.5 18.25 70.55 Q17.95 70.2 17.55 70.25 17.2 70.3 17.0 70.7 16.8 71.15 16.85 71.75 L17.25 72.65 Q17.55 73.05 17.9 73.0 18.3 72.95 18.5 72.5 M16.35 69.95 L16.45 69.45 16.25 69.05 16.0 68.85 15.75 69.1 15.7 69.55 15.85 70.0 16.15 70.15 16.35 69.95"/><path fill="#000000" fill-opacity="0.2" d="M12.2 58.5 L11.8 59.2 Q11.65 59.65 11.8 60.05 L12.2 60.45 12.75 60.25 13.15 59.5 13.15 58.65 12.75 58.25 Q12.45 58.2 12.2 58.5 M18.35 59.85 Q17.85 60.35 17.6 61.15 17.4 62.0 17.7 62.6 17.95 63.3 18.5 63.45 19.05 63.55 19.65 63.0 20.15 62.55 20.35 61.7 20.55 60.9 20.3 60.25 20.05 59.65 19.45 59.55 18.95 59.4 18.35 59.85 M21.6 54.25 L22.15 53.3 22.1 52.25 Q22.0 51.8 21.55 51.7 21.25 51.6 20.9 52.0 20.5 52.35 20.35 52.95 20.25 53.55 20.4 53.95 20.55 54.4 20.85 54.4 L21.6 54.25 M20.65 51.0 L20.8 50.6 20.9 50.1 20.65 49.8 20.35 50.0 Q20.15 50.2 20.1 50.45 L20.1 50.9 20.35 51.15 20.65 51.0 M22.95 56.15 Q22.8 56.45 23.1 56.85 L24.05 57.45 25.1 57.55 Q25.6 57.45 25.65 57.2 25.9 56.85 25.65 56.5 25.25 56.05 24.7 55.85 L23.65 55.75 Q23.1 55.8 22.95 56.15 M19.7 67.25 Q19.25 67.45 19.4 67.8 L19.8 68.25 20.85 68.3 21.55 68.0 21.85 67.45 Q21.9 67.1 21.55 66.9 L20.45 66.9 Q19.95 66.95 19.7 67.25 M22.3 69.2 L23.15 69.2 Q23.5 69.15 23.75 68.9 L23.95 68.45 Q24.05 68.25 23.75 68.2 L22.95 68.05 Q22.4 68.15 22.25 68.35 21.95 68.6 22.0 68.8 L22.3 69.2 M28.65 46.1 Q28.7 46.85 29.2 47.15 L30.4 47.05 31.4 45.95 Q31.85 45.3 31.8 44.5 L31.2 43.6 29.95 43.55 28.95 44.75 Q28.55 45.45 28.65 46.1"/></g><g id="c14"><mask id="mask10"><use transform="matrix(1.0,0.0,0.0,1.0,0.0,0.0)" xlink:href="#c10"/></mask><g mask="url(#mask10)"><use transform="matrix(1.0,0.0,0.0,1.0,0.0,0.0)" xlink:href="#c11"/></g><g mask="url(#mask10)"><use transform="matrix(0.288772583008,-0.0354614257812,0.0188140869141,0.104385375977,59.5,12.65)" xlink:href="#c12"/></g><g mask="url(#mask10)"><use transform="matrix(1.0,0.0,0.0,1.0,0.0,0.0)" xlink:href="#c13"/></g><g mask="url(#mask10)"><use transform="matrix(-0.106140136719,0.269424438477,0.108093261719,0.0295715332031,17.35,55.7)" xlink:href="#c12"/></g></g><g id="c15"><path fill="#755b83" fill-opacity="0.372549019608" d="M35.1 83.0 L34.9 82.8 34.9 82.65 34.9 82.6 35.15 82.65 35.2 82.75 35.1 83.0 M34.85 84.55 L35.05 84.65 35.1 84.95 34.95 85.25 34.75 85.05 34.75 84.85 34.85 84.85 34.9 84.7 34.85 84.55 M34.5 85.9 L34.7 86.15 34.55 86.45 34.4 86.05 34.5 85.95 34.5 85.9 M18.0 66.9 L18.0 66.85 18.8 66.9 18.9 67.0 18.65 66.9 18.55 66.95 18.2 66.9 18.0 66.9 M19.45 66.95 L19.4 66.9 Q19.55 66.6 20.0 66.9 L20.0 66.95 19.85 66.85 19.75 66.85 19.75 66.9 19.5 66.9 19.45 66.95 M34.9 82.65 L34.9 82.7 34.9 82.65"/><path fill="#9c88aa" stroke="none" d="M33.05 81.9 L33.0 82.0 33.2 82.45 33.6 83.1 33.65 83.2 34.75 84.55 34.85 84.55 34.9 84.7 34.85 84.85 34.75 84.85 34.55 84.7 34.4 84.6 Q34.25 84.6 34.2 84.7 L34.25 84.85 34.2 85.0 34.2 85.15 34.3 85.35 34.05 84.8 34.05 84.75 33.85 84.05 33.25 82.95 33.05 82.6 32.65 81.85 32.45 81.45 32.3 81.15 32.25 80.95 31.85 80.45 31.45 80.0 31.0 79.55 30.55 79.1 30.4 78.75 30.05 78.5 29.75 78.2 29.75 78.15 29.85 78.15 28.6 76.7 27.1 75.25 26.4 74.55 25.75 73.8 24.75 72.95 24.75 72.9 24.5 73.0 24.3 72.9 24.2 72.8 24.15 72.75 24.15 72.65 Q24.2 72.45 24.45 72.45 L24.3 72.4 24.25 72.35 23.9 71.9 23.8 71.85 23.15 71.3 22.55 70.7 22.4 70.6 22.35 70.5 22.3 70.45 21.15 69.35 20.5 68.8 19.45 67.95 19.1 67.7 18.55 66.95 18.65 66.9 18.9 67.0 19.0 67.25 19.4 67.65 20.3 68.45 20.45 68.55 20.55 68.55 20.55 68.5 20.3 67.85 20.1 67.6 19.75 66.95 19.75 66.9 19.75 66.85 19.85 66.85 20.0 66.95 20.25 67.5 20.8 68.3 20.7 68.4 20.8 68.7 20.85 68.8 21.05 68.95 21.05 68.85 21.25 69.1 21.5 69.25 21.6 69.25 21.6 69.2 21.8 69.45 26.4 74.15 26.35 74.2 26.6 74.55 26.9 74.75 26.95 74.75 28.7 76.55 32.85 81.0 33.7 81.7 33.8 81.75 34.85 82.55 34.9 82.6 34.9 82.65 34.85 82.65 34.15 82.2 33.8 81.85 33.75 81.85 33.35 81.65 33.1 81.75 33.05 81.9 M32.05 81.5 L31.95 81.4 31.8 81.2 31.8 81.1 31.8 80.9 31.7 80.8 31.9 80.95 31.95 81.0 32.05 81.35 32.05 81.5 M32.8 81.15 L32.75 81.05 32.6 81.0 32.55 81.0 32.7 81.15 32.75 81.15 32.9 81.35 32.85 81.3 32.8 81.15 M24.6 72.6 L24.65 72.65 24.7 72.7 24.65 72.65 24.6 72.6"/><path fill="#755b83" stroke="none" d="M34.9 82.8 L33.6 81.95 33.4 81.85 33.05 81.9 33.1 81.75 33.35 81.65 33.75 81.85 33.8 81.85 34.15 82.2 34.85 82.65 34.9 82.65 34.9 82.7 34.9 82.65 34.9 82.8 M34.75 85.05 L34.45 84.9 34.25 84.85 34.2 84.7 Q34.25 84.6 34.4 84.6 L34.55 84.7 34.75 84.85 34.75 85.05 M34.3 85.35 L34.45 85.85 34.5 85.9 34.5 85.95 34.4 86.05 34.0 85.1 33.85 84.8 33.05 83.2 32.85 82.8 32.2 81.8 32.05 81.5 32.05 81.35 31.95 81.0 31.9 80.95 31.7 80.8 31.8 80.9 31.8 81.1 31.8 81.2 31.55 80.8 27.9 76.35 26.2 74.55 24.95 73.25 24.7 73.0 24.65 73.05 24.35 73.1 24.3 73.1 24.1 73.0 24.1 72.95 24.0 72.8 23.95 72.65 24.1 72.45 24.05 72.4 22.15 70.55 20.35 68.9 19.0 67.75 18.0 66.9 18.2 66.9 18.55 66.95 19.1 67.7 19.45 67.95 20.5 68.8 21.15 69.35 22.3 70.45 22.35 70.5 22.4 70.6 22.55 70.7 23.15 71.3 23.8 71.85 23.9 71.9 24.25 72.35 24.3 72.4 24.45 72.45 Q24.2 72.45 24.15 72.65 L24.15 72.75 24.2 72.8 24.3 72.9 24.5 73.0 24.75 72.9 24.75 72.95 25.75 73.8 26.4 74.55 27.1 75.25 28.6 76.7 29.85 78.15 29.75 78.15 29.75 78.2 30.05 78.5 30.4 78.75 30.55 79.1 31.0 79.55 31.45 80.0 31.85 80.45 32.25 80.95 32.3 81.15 32.45 81.45 32.65 81.85 33.05 82.6 33.25 82.95 33.85 84.05 34.05 84.75 34.05 84.8 34.3 85.35 M20.45 68.55 L20.45 68.5 20.0 67.55 19.45 66.95 19.5 66.9 19.75 66.9 19.75 66.95 20.1 67.6 20.3 67.85 20.55 68.5 20.55 68.55 20.45 68.55 M24.1 72.45 L24.2 72.4 24.3 72.4 24.2 72.4 24.1 72.45"/><path fill="#b9abc2" stroke="none" d="M20.8 68.3 L21.05 68.6 21.6 69.2 21.6 69.25 21.5 69.25 21.25 69.1 21.05 68.85 21.05 68.95 20.85 68.8 20.8 68.7 20.7 68.4 20.8 68.3 M26.4 74.15 L26.75 74.55 26.95 74.75 26.9 74.75 26.6 74.55 26.35 74.2 26.4 74.15 M32.8 81.15 L32.85 81.3 32.9 81.35 32.75 81.15 32.7 81.15 32.55 81.0 32.6 81.0 32.75 81.05 32.8 81.15"/><path fill="none" stroke="#ffffff" stroke-width="0.5" stroke-opacity="0.301960784314" d="M35.1 83.0 L34.9 82.8 33.6 81.95 33.4 81.85 33.05 81.9 M33.0 82.0 L33.2 82.45 33.6 83.1 33.65 83.2 34.75 84.55 M34.85 84.55 L35.05 84.65 M34.95 85.25 L34.75 85.05 34.45 84.9 34.25 84.85 34.2 85.0 34.2 85.15 34.3 85.35 34.45 85.85 M34.5 85.9 L34.7 86.15 M34.55 86.45 L34.4 86.05 34.0 85.1 33.85 84.8 33.05 83.2 32.85 82.8 32.2 81.8 32.05 81.5 31.95 81.4 31.8 81.2 31.55 80.8 27.9 76.35 26.2 74.55 24.95 73.25 24.7 73.0 24.65 73.05 24.35 73.1 24.3 73.1 24.1 73.0 24.1 72.95 24.0 72.8 23.95 72.65 24.1 72.45 24.05 72.4 22.15 70.55 20.35 68.9 19.0 67.75 18.0 66.9 18.0 66.85 M18.8 66.9 L18.9 67.0 M19.0 67.25 L19.4 67.65 20.3 68.45 20.45 68.55 20.45 68.5 20.0 67.55 19.45 66.95 19.4 66.9 M20.0 66.9 L20.0 66.95 20.25 67.5 20.8 68.3 21.05 68.6 21.6 69.2 21.8 69.45 26.4 74.15 26.75 74.55 26.95 74.75 28.7 76.55 32.85 81.0 33.7 81.7 33.8 81.75 34.85 82.55 34.9 82.6 35.15 82.65 M24.3 72.4 L24.45 72.45 M24.3 72.4 L24.2 72.4 24.1 72.45 M24.7 72.7 L24.65 72.65 24.6 72.6"/></g><g id="c16"><g><use transform="matrix(1.0,0.0,0.0,1.0,6.3,53.35)" xlink:href="#c9"/></g><g><use transform="matrix(-0.0299682617188,0.263885498047,-0.262130737305,-0.0460662841797,41.6,65.15)" xlink:href="#c14"/></g><g><use transform="matrix(1.0,0.0,0.0,1.0,0.0,0.0)" xlink:href="#c15"/></g><g><use transform="matrix(0.141098022461,-0.0378112792969,0.111373901367,0.225646972656,27.2,74.05)" filter="url(#filter18)" xlink:href="#c6"/></g></g><filter id="filter18"><feColorMatrix in="SourceGraphic" type="matrix" values="1.0 0.0 0.0 0.0 0.0 0.0 1.0 0.0 0.0 0.0 0.0 0.0 1.0 0.0 0.0 0.0 0.0 0.0 0.23046875 0.0" result="cxform"/><feComposite operator="in" in2="SourceGraphic" result="color-xform"/></filter></defs><g><g><use transform="matrix(1.0,0.0,0.0,1.0,0.0,0.0)" xlink:href="#c1"/></g><g><use transform="matrix(1.15496826172,0.0,0.0,1.15496826172,-1.55,-56.9)" xlink:href="#c16"/></g></g></svg>