<?xml version='1.0' encoding='UTF-8'?>
<svg xmlns:xlink="http://www.w3.org/1999/xlink" xmlns="http://www.w3.org/2000/svg" version="1.1" width="60px" height="60px" viewBox="0.0 0.0 60.0 60.0"><defs><g id="c1"/><g id="c2"><path fill="#000000" fill-opacity="0.00392156862745" d="M0.0 0.0 L60.0 0.0 60.0 60.0 0.0 60.0 0.0 0.0"/></g><g id="c3"><path fill="none" stroke="#000000" stroke-width="1.0" stroke-opacity="0.301960784314" d="M0.7 12.25 Q-0.45 9.75 0.75 8.25 1.2 7.6 2.15 7.15 2.8 6.7 3.8 6.35 L17.5 1.95 30.2 7.0 41.35 31.7 Q42.95 35.15 40.2 36.7 39.5 37.3 38.3 37.65 L19.8 43.65 Q17.15 44.45 15.5 43.3 14.35 42.55 13.65 40.9 L0.7 12.25"/><path fill="#9d147b" stroke="none" d="M35.55 22.3 L31.5 13.2 29.75 9.2 16.95 4.25 5.5 7.85 Q1.65 9.1 3.35 12.8 L8.25 23.65 15.0 38.6 15.2 39.0 Q16.8 42.25 20.45 41.1 L37.2 35.7 Q41.1 34.5 39.35 30.75 L35.55 22.3 M2.15 7.15 Q2.8 6.7 3.8 6.35 L17.5 1.95 30.2 7.0 41.35 31.7 Q42.95 35.15 40.2 36.7 L38.9 37.25 23.2 42.3 20.4 43.2 19.1 43.5 17.3 43.4 Q15.3 42.9 14.2 40.5 L5.45 20.95 1.35 11.8 Q0.4 9.65 1.1 8.3 1.45 7.65 2.15 7.15"/><path fill="#c47fad" stroke="none" d="M31.5 13.2 L35.55 22.3 39.35 30.75 Q41.1 34.5 37.2 35.7 L20.45 41.1 Q16.8 42.25 15.2 39.0 L15.0 38.6 8.25 23.65 3.35 12.8 Q1.65 9.1 5.5 7.85 L16.95 4.25 29.75 9.2 31.5 13.2 M18.5 7.45 L9.1 10.55 9.55 11.6 Q9.8 12.8 9.15 13.6 8.4 14.45 7.1 14.4 L6.8 14.4 6.95 14.6 16.3 35.2 Q16.8 36.4 17.65 37.0 18.8 37.8 20.65 37.2 L34.0 32.9 33.7 32.1 Q33.45 30.9 34.1 30.1 34.75 29.3 35.95 29.35 L35.8 29.0 27.75 10.95 18.5 7.45"/><path fill="#630a4c" stroke="none" d="M0.75 8.25 Q1.2 7.6 2.15 7.15 1.45 7.65 1.1 8.3 L0.75 8.25 M23.3 42.5 L20.1 43.55 19.1 43.5 20.4 43.2 23.2 42.3 23.3 42.5 M15.5 43.3 Q14.35 42.55 13.65 40.9 L4.6 20.9 5.45 20.95 14.2 40.5 Q15.3 42.9 17.3 43.4 L15.5 43.3"/><path fill="#300525" stroke="none" d="M4.6 20.9 L0.7 12.25 Q-0.45 9.75 0.75 8.25 L1.1 8.3 Q0.4 9.65 1.35 11.8 L5.45 20.95 4.6 20.9 M40.2 36.7 Q39.5 37.3 38.3 37.65 L23.3 42.5 23.2 42.3 38.9 37.25 40.2 36.7 M20.1 43.55 L19.8 43.65 Q17.15 44.45 15.5 43.3 L17.3 43.4 19.1 43.5 20.1 43.55"/><path fill="#fcf2cf" stroke="none" d="M27.75 10.95 L35.8 29.0 35.95 29.35 Q34.75 29.3 34.1 30.1 33.45 30.9 33.7 32.1 L34.0 32.9 20.65 37.2 Q18.8 37.8 17.65 37.0 16.8 36.4 16.3 35.2 L6.95 14.6 6.8 14.4 7.1 14.4 Q8.4 14.45 9.15 13.6 9.8 12.8 9.55 11.6 L9.1 10.55 18.5 7.45 27.75 10.95"/><path fill="none" stroke="#bf9900" stroke-width="1.0" stroke-opacity="0.749019607843" d="M31.5 13.2 L35.55 22.3 M15.0 38.6 L8.25 23.65"/><path fill="none" stroke="#ffcc00" stroke-width="1.0" stroke-opacity="0.749019607843" d="M35.55 22.3 L39.35 30.75 Q41.1 34.5 37.2 35.7 L20.45 41.1 Q16.8 42.25 15.2 39.0 L15.0 38.6 M8.25 23.65 L3.35 12.8 Q1.65 9.1 5.5 7.85 L16.95 4.25 29.75 9.2 31.5 13.2"/><path fill="none" stroke="#000000" stroke-width="0.5" stroke-opacity="0.301960784314" d="M4.6 20.9 L0.7 12.25 Q-0.45 9.75 0.75 8.25 1.2 7.6 2.15 7.15 2.8 6.7 3.8 6.35 L17.5 1.95 M30.2 7.0 L41.35 31.7 Q42.95 35.15 40.2 36.7 39.5 37.3 38.3 37.65 L23.3 42.5 20.1 43.55 19.8 43.65 Q17.15 44.45 15.5 43.3 14.35 42.55 13.65 40.9 L4.6 20.9 M5.45 20.95 L1.35 11.8 Q0.4 9.65 1.1 8.3 1.45 7.65 2.15 7.15 M19.1 43.5 L17.3 43.4 Q15.3 42.9 14.2 40.5 L5.45 20.95 M23.2 42.3 L20.4 43.2 19.1 43.5 M40.2 36.7 L38.9 37.25 23.2 42.3"/><path fill="none" stroke="#f0b92b" stroke-width="0.5" d="M27.75 10.95 L35.8 29.0 35.95 29.35 Q34.75 29.3 34.1 30.1 33.45 30.9 33.7 32.1 L34.0 32.9 20.65 37.2 Q18.8 37.8 17.65 37.0 16.8 36.4 16.3 35.2 L6.95 14.6 6.8 14.4 7.1 14.4 Q8.4 14.45 9.15 13.6 9.8 12.8 9.55 11.6 L9.1 10.55 18.5 7.45"/><path fill="none" stroke="#ffcc00" stroke-width="0.5" stroke-opacity="0.749019607843" d="M18.5 7.45 L27.75 10.95"/></g><g id="c4"><path fill="#7fdbfe" stroke="none" d="M10.75 4.9 Q10.75 4.6 10.9 4.35 11.25 3.45 11.95 2.75 13.3 1.5 14.35 2.1 15.4 2.7 14.95 4.45 14.7 5.4 14.1 6.15 L13.75 6.5 Q13.1 7.15 12.35 7.35 L11.4 7.2 Q10.95 6.9 10.75 6.4 10.5 5.75 10.75 4.9 M7.5 5.9 Q7.0 5.85 6.6 5.5 6.05 5.0 5.8 4.15 L5.7 3.6 Q5.55 2.65 5.8 1.7 6.25 0.0 7.5 0.0 L7.6 0.0 Q8.85 0.0 9.3 1.7 9.55 2.65 9.4 3.6 L9.3 4.15 8.5 5.5 7.6 5.9 7.5 5.9 M4.35 4.9 Q4.6 5.75 4.35 6.4 L3.7 7.2 2.75 7.35 Q2.0 7.15 1.35 6.5 L1.0 6.15 Q0.4 5.4 0.15 4.45 -0.3 2.7 0.75 2.1 1.8 1.5 3.15 2.75 3.85 3.45 4.2 4.35 L4.35 4.9 M5.5 13.7 Q4.45 13.9 3.65 12.95 2.75 12.0 3.2 10.25 3.7 8.5 5.25 7.6 6.4 6.9 7.55 7.0 8.75 6.9 9.9 7.6 11.45 8.5 11.95 10.25 12.35 12.0 11.5 12.95 10.7 13.9 9.65 13.7 8.55 13.5 7.55 12.6 6.55 13.5 5.5 13.7"/></g><g id="c5"><g><use transform="matrix(1.0,0.0,0.0,1.0,0.0,0.0)" xlink:href="#c4"/></g></g><radialGradient gradientUnits="userSpaceOnUse" r="819.2" cx="0" cy="0" spreadMethod="pad" gradientTransform="matrix(0.0914459228516,0.0,0.0,0.0914459228516,0.6,3.4)" id="gradient1"><stop offset="0.0" stop-color="#ffffff"/><stop offset="1.0" stop-color="#ffffff" stop-opacity="0.0"/></radialGradient><g id="c6"><path stroke="none" fill="url(#gradient1)" d="M36.65 -54.65 Q60.05 -42.0 69.75 -17.95 80.55 8.9 68.0 34.1 55.45 59.35 26.8 68.2 -1.8 77.05 -29.7 64.3 -57.6 51.6 -68.45 24.75 -79.3 -2.05 -66.75 -27.25 L-66.7 -27.3 Q-54.1 -52.5 -25.5 -61.4 3.1 -70.2 31.0 -57.5 L36.65 -54.65"/></g><g id="c7"><g><use transform="matrix(1.0,0.0,0.0,1.0,0.0,0.0)" xlink:href="#c6"/></g></g><radialGradient gradientUnits="userSpaceOnUse" r="819.2" cx="0" cy="0" spreadMethod="pad" gradientTransform="matrix(0.209197998047,0.0,0.0,0.177108764648,67.15,107.2)" id="gradient2"><stop offset="0.356862745098" stop-color="#ffffff"/><stop offset="0.670588235294" stop-opacity="0.0"/></radialGradient><g id="c8"><path fill="none" stroke-linejoin="round" stroke-linecap="round" stroke="url(#gradient2)" stroke-width="0.5" d="M136.55 165.8 L68.6 106.0 68.4 106.0 118.25 201.5 M68.3 105.8 L68.35 105.8 68.3 105.8 68.3 105.85 68.4 106.0 68.3 106.0 86.55 211.5 M68.3 105.8 L68.3 105.85 68.3 106.0 68.15 105.95 18.25 151.55 M68.3 105.85 L68.25 105.85 68.3 106.0 50.0 193.2 M68.25 105.85 L68.15 105.95 0.05 97.7 M68.3 105.85 L68.25 105.8 68.25 105.85 M68.25 105.8 L68.2 105.7 0.0 45.7 M68.3 105.8 L68.25 105.75 68.25 105.8 M68.25 105.75 L68.2 105.7 18.25 10.05 M68.6 106.0 L68.35 105.8 118.25 60.15 M86.6 18.35 L68.3 105.8 M136.6 114.25 L68.6 106.0 M68.25 105.75 L49.95 0.05"/></g><g id="c9"><g><use transform="matrix(1.0,0.0,0.0,1.0,0.0,0.0)" xlink:href="#c8"/></g></g><g id="c10"><g><use transform="matrix(1.0,0.0,0.0,1.0,0.0,0.0)" xlink:href="#c3"/></g><g><use transform="matrix(0.238861083984,-0.0867004394531,0.10026550293,0.233917236328,34.25,31.15)" xlink:href="#c5"/></g><g><use transform="matrix(0.238861083984,-0.0867004394531,0.10026550293,0.233917236328,4.25,10.3)" xlink:href="#c5"/></g><g><use transform="matrix(0.141098022461,-0.0378112792969,0.111373901367,0.225646972656,20.25,20.65)" filter="url(#filter7)" xlink:href="#c7"/></g><g><use transform="matrix(-0.155029296875,0.0513153076172,0.0841827392578,0.147033691406,22.6,3.15)" filter="url(#filter8)" xlink:href="#c9"/></g></g><filter id="filter7"><feColorMatrix in="SourceGraphic" type="matrix" values="0.0 0.0 0.0 0.0 0.796875 0.0 0.0 0.0 0.0 0.59765625 0.0 0.0 0.0 0.0 0.19921875 0.0 0.0 0.0 1.0 0.0" result="cxform"/><feComposite operator="in" in2="SourceGraphic" result="color-xform"/></filter><filter id="filter8"><feColorMatrix in="SourceGraphic" type="matrix" values="0.0 0.0 0.0 0.0 0.99609375 0.0 0.0 0.0 0.0 0.99609375 0.0 0.0 0.0 0.0 0.99609375 0.0 0.0 0.0 1.0 0.0" result="cxform"/><feComposite operator="in" in2="SourceGraphic" result="color-xform"/></filter><radialGradient gradientUnits="userSpaceOnUse" r="819.2" cx="0" cy="0" spreadMethod="pad" gradientTransform="matrix(-0.0198822021484,0.0,0.0,0.00994873046875,0.0,0.0)" id="gradient3"><stop offset="0.333333333333" stop-color="#0e171d"/><stop offset="1.0" stop-color="#101a24" stop-opacity="0.0"/></radialGradient><g id="c11"><path stroke="none" fill="url(#gradient3)" d="M0.0 -8.5 Q7.05 -8.55 12.1 -6.05 17.05 -3.55 17.05 0.0 17.05 3.55 12.1 6.05 7.05 8.55 0.0 8.55 -7.05 8.55 -12.0 6.05 -17.05 3.55 -17.05 0.0 -17.05 -3.55 -12.0 -6.05 -7.05 -8.55 0.0 -8.5"/></g><g id="c12"><g><use transform="matrix(1.0,0.0,0.0,1.0,0.0,0.0)" xlink:href="#c11"/></g></g><g id="c13"><path fill="#af6a03" stroke="none" d="M3.95 1.4 L3.45 1.85 2.85 2.1 2.2 2.35 0.0 2.4 -1.05 2.15 Q-2.1 1.8 -2.95 1.15 -4.25 0.2 -4.2 -0.8 -4.15 -1.9 -2.55 -2.25 L0.7 -2.35 1.55 -2.15 -0.15 -1.8 -0.4 -1.75 -1.35 0.35 -1.45 0.85 Q1.05 2.05 3.95 1.4"/><path fill="#d08515" stroke="none" d="M3.95 1.4 Q1.05 2.05 -1.45 0.85 L-1.35 0.35 -0.4 -1.75 -0.15 -1.8 1.55 -2.15 3.35 -1.25 3.65 -1.0 Q4.4 -0.25 4.3 0.55 L4.3 0.65 4.25 1.0 3.95 1.4 M1.35 -1.1 Q3.6 -0.5 4.25 1.0 3.6 -0.5 1.35 -1.1"/><path fill="none" stroke="#59120d" stroke-width="0.5" stroke-opacity="0.411764705882" d="M1.55 -2.15 L0.7 -2.35 -2.55 -2.25 Q-4.15 -1.9 -4.2 -0.8 -4.25 0.2 -2.95 1.15 -2.1 1.8 -1.05 2.15 L0.0 2.4 2.2 2.35 2.85 2.1 3.45 1.85 3.95 1.4 M1.55 -2.15 L3.35 -1.25 3.65 -1.0 Q4.4 -0.25 4.3 0.55 L4.3 0.65 4.25 1.0 3.95 1.4"/><path fill="none" stroke="#59110d" stroke-width="0.5" stroke-opacity="0.2" d="M4.25 1.0 Q3.6 -0.5 1.35 -1.1"/></g><g id="c14"><g><use transform="matrix(1.0,0.0,0.0,1.0,0.0,0.0)" xlink:href="#c13"/></g></g><g id="c15"><path fill="#d08515" stroke="none" d="M1.45 -0.85 L0.25 -0.6 0.15 -0.15 -0.05 0.45 1.45 0.75 2.55 -0.1 1.7 -0.75 2.3 -0.45 2.55 -0.15 3.3 0.85 2.45 2.15 2.15 2.4 Q0.35 2.75 -0.15 1.95 L-0.2 1.75 -1.15 2.2 -2.8 1.75 Q-3.35 1.05 -3.35 0.2 L-3.25 -0.5 0.0 -1.55 1.45 -0.85 M-2.6 -0.25 L-2.8 0.35 -1.3 0.65 -0.2 -0.2 -1.05 -0.85 -1.25 -0.95 -2.5 -0.7 -2.6 -0.25 M-0.2 1.15 L-0.2 1.75 -0.2 1.15"/><path fill="#af6a03" stroke="none" d="M1.7 -0.75 L1.45 -0.85 0.0 -1.55 -3.25 -0.5 -2.3 -1.9 Q-1.25 -2.9 0.2 -3.0 1.65 -3.05 2.55 -2.0 3.35 -0.95 3.35 0.2 L3.3 0.85 2.55 -0.15 2.3 -0.45 1.7 -0.75 M2.15 2.4 Q1.25 3.0 0.1 3.0 L-0.15 1.95 0.1 3.0 0.0 3.0 -1.85 2.55 -2.35 2.15 -2.8 1.75 -1.15 2.2 -0.2 1.75 -0.15 1.95 Q0.35 2.75 2.15 2.4"/><path fill="#ecab13" stroke="none" d="M1.45 -0.85 L1.7 -0.75 2.55 -0.1 1.45 0.75 -0.05 0.45 0.15 -0.15 0.25 -0.6 1.45 -0.85 M-2.6 -0.25 L-2.5 -0.7 -1.25 -0.95 -1.05 -0.85 -0.2 -0.2 -1.3 0.65 -2.8 0.35 -2.6 -0.25"/><path fill="none" stroke="#59120d" stroke-width="0.5" stroke-opacity="0.411764705882" d="M3.3 0.85 L3.35 0.2 Q3.35 -0.95 2.55 -2.0 1.65 -3.05 0.2 -3.0 -1.25 -2.9 -2.3 -1.9 L-3.25 -0.5 M2.15 2.4 L2.45 2.15 3.3 0.85 M0.1 3.0 Q1.25 3.0 2.15 2.4 M0.1 3.0 L0.0 3.0 -1.85 2.55 -2.35 2.15 -2.8 1.75 Q-3.35 1.05 -3.35 0.2 L-3.25 -0.5 M-0.15 1.95 L-0.2 1.75"/><path fill="none" stroke="#59110d" stroke-width="0.5" stroke-opacity="0.2" d="M-0.15 1.95 L0.1 3.0 M-0.2 1.75 L-0.2 1.15"/></g><g id="c16"><g><use transform="matrix(1.0,0.0,0.0,1.0,0.0,0.0)" xlink:href="#c15"/></g></g><g id="c17"><path fill="#fefd89" stroke="none" d="M-0.15 -4.1 Q0.55 -4.0 1.05 -2.9 1.5 -1.85 1.2 -0.55 0.9 0.7 0.3 1.25 L0.1 1.45 -0.2 1.7 -0.5 1.95 -1.75 1.7 -2.2 1.3 -2.65 0.4 -2.75 0.0 Q-2.9 -1.2 -2.2 -2.35 L-1.8 -2.95 Q-1.25 -3.65 -0.45 -4.0 L-0.15 -4.1"/><path fill="#e4c445" stroke="none" d="M-0.15 -4.1 L1.5 -3.95 Q2.4 -3.45 2.55 -2.25 2.65 -1.1 2.0 0.1 L0.8 1.4 0.2 1.75 -0.15 1.85 -0.5 1.95 -0.2 1.7 0.1 1.45 0.3 1.25 Q0.9 0.7 1.2 -0.55 1.5 -1.85 1.05 -2.9 0.55 -4.0 -0.15 -4.1"/><path fill="#99721b" fill-opacity="0.2" d="M-0.15 1.85 L0.2 1.75 0.8 1.4 0.9 1.4 1.75 2.1 1.8 2.95 -0.75 3.95 Q-2.25 3.25 -3.8 2.6 L-3.7 0.7 -3.35 0.55 -3.35 0.6 -3.3 2.0 -3.2 2.05 -0.85 3.2 0.25 2.8 -0.15 1.85"/><path fill="#99721b" fill-opacity="0.572549019608" d="M-0.5 1.95 L-0.15 1.85 0.25 2.8 -0.85 3.2 -3.2 2.05 -3.3 2.0 -3.35 0.6 -2.65 0.4 -2.2 1.3 -1.75 1.7 -0.5 1.95"/><path fill="#886c00" fill-opacity="0.690196078431" d="M-1.1 -3.4 L-1.2 -3.25 -1.35 -3.15 Q-1.45 -3.15 -1.55 -3.25 L-1.45 -3.05 -1.55 -2.9 -1.7 -2.8 -1.75 -2.8 -1.75 -2.7 -1.85 -2.55 -1.95 -2.45 -1.95 -2.35 -2.05 -2.2 -2.2 -2.1 -2.4 -2.2 -2.45 -2.35 -2.4 -2.55 -2.2 -2.6 -2.25 -2.7 -2.2 -2.9 -2.0 -2.95 -1.9 -2.95 -1.95 -3.05 -1.9 -3.25 -1.7 -3.3 -1.55 -3.25 -1.6 -3.4 -1.55 -3.6 -1.35 -3.65 -1.2 -3.6 -1.1 -3.4 M0.2 -4.1 L0.1 -3.95 -0.05 -3.85 -0.2 -3.9 -0.3 -3.85 -0.45 -3.75 Q-0.55 -3.75 -0.65 -3.85 L-0.7 -4.0 -0.65 -4.2 -0.45 -4.25 -0.3 -4.2 -0.25 -4.3 -0.05 -4.35 0.1 -4.3 0.2 -4.1 M-0.65 -3.75 L-0.75 -3.6 -0.9 -3.5 -1.1 -3.6 -1.15 -3.75 -1.1 -3.95 -0.9 -4.0 -0.75 -3.95 -0.65 -3.75 M-2.2 -1.9 L-2.3 -1.75 -2.45 -1.65 Q-2.55 -1.65 -2.65 -1.75 L-2.7 -1.9 -2.65 -2.1 -2.45 -2.15 -2.3 -2.1 -2.2 -1.9 M-2.35 -1.4 L-2.45 -1.25 -2.6 -1.15 -2.8 -1.25 -2.85 -1.4 -2.8 -1.6 -2.6 -1.65 -2.45 -1.6 -2.35 -1.4 M-2.45 -0.9 L-2.55 -0.75 -2.7 -0.65 -2.6 -0.6 -2.5 -0.4 -2.6 -0.25 -2.75 -0.15 -2.6 -0.1 -2.5 0.1 -2.6 0.25 -2.75 0.35 -2.95 0.25 -3.0 0.1 -2.95 -0.1 -2.75 -0.15 Q-2.85 -0.15 -2.95 -0.25 L-3.0 -0.4 -2.95 -0.6 -2.75 -0.65 -2.7 -0.65 -2.9 -0.75 -2.95 -0.9 -2.9 -1.1 -2.7 -1.15 -2.55 -1.1 -2.45 -0.9 M2.05 -3.75 L1.95 -3.6 1.8 -3.5 1.6 -3.6 1.55 -3.75 1.55 -3.8 1.4 -3.7 1.2 -3.8 1.15 -3.95 1.15 -4.05 1.1 -4.0 0.95 -3.9 Q0.85 -3.9 0.75 -4.0 L0.7 -4.15 0.7 -4.2 0.6 -4.05 0.45 -3.95 Q0.35 -3.95 0.25 -4.05 L0.2 -4.2 0.25 -4.4 0.45 -4.45 0.6 -4.4 0.7 -4.2 0.75 -4.35 0.95 -4.4 1.1 -4.35 1.2 -4.15 1.4 -4.2 1.55 -4.15 1.65 -3.95 1.8 -4.0 1.95 -3.95 2.05 -3.75 M2.4 -3.35 L2.3 -3.2 2.15 -3.1 Q2.05 -3.1 1.95 -3.2 L1.9 -3.35 1.95 -3.55 2.15 -3.6 2.3 -3.55 2.4 -3.35 M2.7 -1.0 L2.6 -0.85 2.45 -0.75 Q2.35 -0.75 2.25 -0.85 L2.2 -1.0 2.25 -1.2 2.4 -1.25 2.35 -1.3 2.3 -1.45 2.35 -1.65 2.55 -1.7 Q2.45 -1.7 2.35 -1.8 L2.3 -1.95 2.35 -2.15 2.55 -2.2 Q2.45 -2.2 2.35 -2.3 L2.3 -2.45 2.35 -2.65 2.2 -2.75 2.15 -2.9 2.2 -3.1 2.4 -3.15 2.55 -3.1 2.65 -2.9 2.55 -2.75 2.55 -2.7 2.7 -2.65 2.8 -2.45 2.7 -2.3 2.55 -2.2 2.7 -2.15 2.8 -1.95 2.7 -1.8 2.55 -1.7 2.7 -1.65 2.8 -1.45 2.7 -1.3 2.6 -1.2 2.7 -1.0 M2.55 -0.5 L2.45 -0.35 2.3 -0.25 2.1 -0.35 2.05 -0.5 2.1 -0.7 2.3 -0.75 2.45 -0.7 2.55 -0.5 M1.8 0.7 L1.7 0.85 1.55 0.95 1.35 0.85 1.3 0.7 1.35 0.5 1.55 0.45 1.7 0.5 1.65 0.45 1.6 0.3 1.65 0.1 1.85 0.05 1.85 0.0 1.9 -0.2 2.1 -0.25 2.25 -0.2 2.35 0.0 2.25 0.15 2.1 0.25 2.1 0.3 2.0 0.45 1.85 0.55 1.7 0.5 1.8 0.7 M-0.35 2.1 L-0.5 2.2 -0.7 2.1 -0.75 1.95 -0.85 2.1 -1.0 2.2 -1.2 2.1 -1.25 1.95 -1.2 1.75 -1.0 1.7 -0.85 1.75 -0.75 1.95 -0.7 1.75 -0.5 1.7 -0.35 1.75 -0.3 1.8 -0.25 1.65 -0.05 1.6 0.1 1.65 0.15 1.75 0.15 1.65 0.2 1.45 0.4 1.4 0.45 1.4 0.5 1.25 0.7 1.2 0.85 1.25 0.9 1.3 0.85 1.15 0.9 0.95 1.1 0.9 1.25 0.95 1.35 1.15 1.25 1.3 1.1 1.4 0.9 1.3 0.95 1.45 0.85 1.6 0.7 1.7 0.65 1.7 0.55 1.8 0.4 1.9 0.2 1.8 0.2 1.85 0.1 2.0 -0.05 2.1 -0.25 2.0 -0.35 2.1 M-2.35 0.6 L-2.45 0.75 -2.5 0.8 -2.4 0.8 -2.25 0.85 -2.15 1.05 -2.2 1.15 -2.1 1.15 -1.95 1.2 -1.85 1.4 -1.95 1.55 -2.1 1.65 -2.3 1.55 -2.35 1.4 -2.3 1.3 -2.4 1.3 -2.6 1.2 -2.65 1.05 -2.6 0.85 -2.8 0.75 -2.85 0.6 -2.8 0.4 -2.6 0.35 -2.45 0.4 -2.35 0.6 M-1.3 1.8 L-1.4 1.95 -1.55 2.05 -1.75 1.95 -1.8 1.8 -1.75 1.6 -1.55 1.55 -1.4 1.6 -1.3 1.8"/></g><g id="c18"><g><use transform="matrix(1.0,0.0,0.0,1.0,0.0,0.0)" xlink:href="#c17"/></g></g><g id="c19"><path fill="#fefd89" stroke="none" d="M-7.1 -5.7 L-6.4 -6.45 Q-4.55 -8.35 -2.05 -8.9 L0.0 -9.1 Q3.75 -9.15 6.45 -6.45 8.25 -4.65 8.85 -2.3 L9.1 0.0 Q9.1 2.45 8.0 4.45 L5.15 5.85 Q3.05 6.7 -0.45 5.3 -3.95 3.9 -5.85 0.35 -7.8 -3.25 -7.1 -5.7"/><path fill="#e4c445" stroke="none" d="M-7.1 -5.7 Q-7.8 -3.25 -5.85 0.35 -3.95 3.9 -0.45 5.3 3.05 6.7 5.15 5.85 L8.0 4.45 6.45 6.4 Q3.75 9.05 0.0 9.05 -3.75 9.05 -6.4 6.4 -9.1 3.75 -9.05 0.0 -9.1 -3.3 -7.1 -5.7"/><path fill="#886c00" fill-opacity="0.690196078431" d="M6.35 -7.0 L6.2 -6.65 Q6.05 -6.5 5.85 -6.5 5.65 -6.5 5.5 -6.65 5.35 -6.8 5.35 -7.0 L5.5 -7.35 5.85 -7.5 6.2 -7.35 6.35 -7.0 M0.8 -9.1 L0.65 -8.75 0.3 -8.6 Q0.1 -8.6 -0.05 -8.75 L-0.2 -9.1 -0.05 -9.45 Q0.1 -9.6 0.3 -9.6 L0.65 -9.45 0.8 -9.1 M2.85 -8.85 L2.7 -8.5 2.35 -8.35 2.0 -8.5 1.85 -8.85 2.0 -9.2 2.35 -9.35 2.7 -9.2 2.85 -8.85 M4.75 -8.1 L4.6 -7.75 Q4.45 -7.6 4.25 -7.6 L3.9 -7.75 3.75 -8.1 3.9 -8.45 4.25 -8.6 4.6 -8.45 4.75 -8.1 M7.8 -5.45 L7.65 -5.1 7.3 -4.95 Q7.1 -4.95 6.95 -5.1 L6.8 -5.45 6.95 -5.8 7.3 -5.95 7.65 -5.8 7.8 -5.45 M8.85 -3.65 L8.7 -3.3 8.35 -3.15 Q8.15 -3.15 8.0 -3.3 L7.85 -3.65 8.0 -4.0 8.35 -4.15 8.7 -4.0 8.85 -3.65 M9.45 -1.7 L9.3 -1.35 8.95 -1.2 Q8.75 -1.2 8.6 -1.35 L8.45 -1.7 8.6 -2.05 8.95 -2.2 9.3 -2.05 9.45 -1.7 M9.6 0.4 L9.45 0.75 9.1 0.9 8.75 0.75 8.6 0.4 8.75 0.05 9.1 -0.1 9.45 0.05 9.6 0.4 M9.3 2.5 L9.15 2.85 8.8 3.0 8.45 2.85 8.3 2.5 8.45 2.15 8.8 2.0 9.15 2.15 9.3 2.5 M7.7 5.55 L7.55 5.9 7.2 6.05 6.85 5.9 6.7 5.55 6.85 5.2 Q7.0 5.05 7.2 5.05 L7.55 5.2 7.7 5.55 M8.5 4.45 L8.35 4.8 8.0 4.95 7.65 4.8 7.5 4.45 7.65 4.1 Q7.8 3.95 8.0 3.95 L8.35 4.1 8.5 4.45 M4.7 8.05 L4.55 8.4 4.2 8.55 3.85 8.4 3.7 8.05 Q3.7 7.85 3.85 7.7 4.0 7.55 4.2 7.55 L4.55 7.7 4.7 8.05 M2.7 8.8 L2.55 9.15 2.2 9.3 1.85 9.15 1.7 8.8 1.85 8.45 Q2.0 8.3 2.2 8.3 L2.55 8.45 2.7 8.8 M0.7 9.05 L0.55 9.4 0.2 9.55 -0.15 9.4 -0.3 9.05 -0.15 8.7 Q0.0 8.55 0.2 8.55 L0.55 8.7 0.7 9.05 M6.2 7.05 L6.05 7.4 5.7 7.55 5.35 7.4 5.2 7.05 Q5.2 6.85 5.35 6.7 5.5 6.55 5.7 6.55 L6.05 6.7 6.2 7.05 M-1.1 -9.0 L-1.25 -8.65 Q-1.4 -8.5 -1.6 -8.5 L-1.95 -8.65 -2.1 -9.0 -1.95 -9.35 -1.6 -9.5 -1.25 -9.35 -1.1 -9.0 M-2.95 -8.5 L-3.1 -8.15 Q-3.25 -8.0 -3.45 -8.0 L-3.8 -8.15 -3.95 -8.5 -3.8 -8.85 -3.45 -9.0 Q-3.25 -9.0 -3.1 -8.85 L-2.95 -8.5 M-4.75 -7.45 Q-4.75 -7.25 -4.9 -7.1 -5.05 -6.95 -5.25 -6.95 L-5.6 -7.1 -5.75 -7.45 -5.6 -7.8 -5.25 -7.95 -4.9 -7.8 -4.75 -7.45 M-6.5 -5.8 L-6.65 -5.45 Q-6.8 -5.3 -7.0 -5.3 L-7.35 -5.45 -7.5 -5.8 -7.35 -6.15 -7.0 -6.3 -6.65 -6.15 -6.5 -5.8 M-7.6 -4.25 Q-7.6 -4.05 -7.75 -3.9 -7.9 -3.75 -8.1 -3.75 -8.3 -3.75 -8.45 -3.9 L-8.6 -4.25 -8.45 -4.6 -8.1 -4.75 -7.75 -4.6 -7.6 -4.25 M-8.3 -2.2 L-8.45 -1.85 -8.8 -1.7 -9.15 -1.85 -9.3 -2.2 -9.15 -2.55 -8.8 -2.7 -8.45 -2.55 -8.3 -2.2 M-8.55 -0.1 L-8.7 0.25 -9.05 0.4 -9.4 0.25 -9.55 -0.1 -9.4 -0.45 -9.05 -0.6 -8.7 -0.45 -8.55 -0.1 M-8.4 1.9 L-8.55 2.25 -8.9 2.4 -9.25 2.25 -9.4 1.9 -9.25 1.55 Q-9.1 1.4 -8.9 1.4 -8.7 1.4 -8.55 1.55 L-8.4 1.9 M-7.75 3.8 L-7.9 4.15 -8.25 4.3 -8.6 4.15 -8.75 3.8 -8.6 3.45 -8.25 3.3 Q-8.05 3.3 -7.9 3.45 L-7.75 3.8 M-6.7 5.5 L-6.85 5.85 -7.2 6.0 -7.55 5.85 -7.7 5.5 -7.55 5.15 -7.2 5.0 Q-7.0 5.0 -6.85 5.15 L-6.7 5.5 M-5.05 7.15 L-5.2 7.5 Q-5.35 7.65 -5.55 7.65 L-5.9 7.5 -6.05 7.15 -5.9 6.8 -5.55 6.65 Q-5.35 6.65 -5.2 6.8 L-5.05 7.15 M-1.35 8.85 L-1.5 9.2 -1.85 9.35 -2.2 9.2 -2.35 8.85 -2.2 8.5 Q-2.05 8.35 -1.85 8.35 -1.65 8.35 -1.5 8.5 -1.35 8.65 -1.35 8.85 M-3.35 8.2 L-3.5 8.55 -3.85 8.7 -4.2 8.55 -4.35 8.2 -4.2 7.85 -3.85 7.7 Q-3.65 7.7 -3.5 7.85 L-3.35 8.2"/></g><g id="c20"><g><use transform="matrix(1.0,0.0,0.0,1.0,0.0,0.0)" xlink:href="#c19"/></g></g><g id="c21"><path fill="#fefd89" stroke="none" d="M1.75 -2.15 L2.3 -1.3 2.4 -0.7 Q2.4 -0.05 2.0 0.5 L1.65 0.65 1.25 0.8 1.0 0.85 -1.0 0.75 Q-2.3 0.35 -2.95 -0.6 -3.65 -1.55 -3.4 -2.2 L-3.15 -2.4 Q-2.5 -2.9 -1.6 -3.05 L-0.85 -3.1 Q0.5 -3.1 1.45 -2.4 L1.75 -2.15"/><path fill="#99721b" fill-opacity="0.572549019608" d="M1.75 -2.15 L2.25 -2.65 3.45 -1.9 3.45 -1.75 3.25 0.85 2.35 1.55 1.75 0.8 2.0 0.5 Q2.4 -0.05 2.4 -0.7 L2.3 -1.3 1.75 -2.15"/><path fill="#99721b" fill-opacity="0.2" d="M1.75 0.8 L2.35 1.55 3.25 0.85 3.45 -1.75 3.45 -1.9 2.25 -2.65 2.2 -2.65 2.55 -2.85 4.2 -2.05 3.85 1.3 1.8 2.95 1.7 3.0 1.05 2.5 0.85 1.45 0.9 1.35 1.45 1.0 1.75 0.8"/><path fill="#e4c445" stroke="none" d="M2.0 0.5 L1.75 0.8 1.45 1.0 0.9 1.35 -0.85 1.75 Q-2.25 1.7 -3.15 1.0 -4.15 0.3 -4.1 -0.7 -4.15 -1.55 -3.4 -2.2 -3.65 -1.55 -2.95 -0.6 -2.3 0.35 -1.0 0.75 L1.0 0.85 1.25 0.8 1.65 0.65 2.0 0.5"/><path fill="#886c00" fill-opacity="0.690196078431" d="M0.7 -2.9 L0.6 -2.75 0.45 -2.65 Q0.35 -2.65 0.25 -2.75 L0.2 -2.9 0.25 -3.1 0.45 -3.15 0.6 -3.1 0.7 -2.9 M1.1 -2.55 L0.95 -2.45 Q0.85 -2.45 0.75 -2.55 L0.7 -2.7 0.75 -2.9 0.95 -2.95 1.1 -2.9 1.2 -2.7 1.35 -2.75 1.5 -2.7 1.6 -2.5 1.5 -2.35 1.35 -2.25 Q1.25 -2.25 1.15 -2.35 L1.1 -2.5 1.1 -2.55 M2.0 -2.15 L1.9 -2.0 1.75 -1.9 Q1.65 -1.9 1.55 -2.0 L1.5 -2.15 1.55 -2.35 1.75 -2.4 1.9 -2.35 2.0 -2.15 M2.4 -1.6 L2.3 -1.45 2.45 -1.4 2.55 -1.2 2.45 -1.05 2.3 -0.95 2.1 -1.05 2.05 -1.2 2.1 -1.35 1.95 -1.45 1.9 -1.6 1.95 -1.8 2.15 -1.85 2.3 -1.8 2.4 -1.6 M-0.4 -2.95 L-0.55 -2.85 Q-0.65 -2.85 -0.75 -2.95 L-0.8 -3.1 -0.75 -3.3 -0.55 -3.35 -0.4 -3.3 -0.3 -3.1 -0.25 -3.25 -0.05 -3.3 0.1 -3.25 0.2 -3.05 0.1 -2.9 -0.05 -2.8 Q-0.15 -2.8 -0.25 -2.9 L-0.3 -3.05 -0.3 -3.1 -0.4 -2.95 M2.65 -0.7 L2.55 -0.55 2.4 -0.45 2.5 -0.4 2.6 -0.2 2.5 -0.05 2.4 0.05 2.45 0.2 2.35 0.35 2.25 0.45 2.25 0.5 2.15 0.65 2.0 0.75 2.0 0.8 1.9 0.95 1.75 1.05 1.7 1.05 1.6 1.15 1.45 1.25 1.3 1.2 1.3 1.25 1.2 1.4 1.05 1.5 0.85 1.4 0.85 1.45 0.75 1.6 0.6 1.7 0.4 1.6 0.35 1.45 0.4 1.25 0.6 1.2 0.75 1.25 0.8 1.35 0.8 1.25 0.85 1.05 1.05 1.0 1.2 1.05 1.2 1.0 1.25 0.8 1.45 0.75 1.5 0.75 1.55 0.6 1.75 0.55 1.75 0.5 1.8 0.3 1.95 0.25 1.95 0.2 2.0 0.0 2.15 -0.05 2.1 -0.2 2.15 -0.4 2.35 -0.45 2.4 -0.45 2.2 -0.55 2.15 -0.7 2.2 -0.9 2.4 -0.95 2.55 -0.9 2.65 -0.7 M0.35 1.6 L0.25 1.75 0.1 1.85 -0.1 1.75 -0.15 1.6 -0.1 1.4 0.1 1.35 0.25 1.4 0.35 1.6 M-2.1 -2.85 L-2.2 -2.7 -2.35 -2.6 Q-2.45 -2.6 -2.55 -2.7 L-2.6 -2.85 -2.55 -3.05 -2.35 -3.1 -2.2 -3.05 -2.15 -3.0 -2.1 -3.2 -1.9 -3.25 -1.75 -3.2 -1.7 -3.15 -1.7 -3.25 -1.5 -3.3 -1.35 -3.25 -1.3 -3.2 -1.3 -3.3 -1.1 -3.35 -0.95 -3.3 -0.85 -3.1 -0.95 -2.95 -1.1 -2.85 -1.3 -2.95 -1.35 -2.9 -1.5 -2.8 -1.7 -2.9 -1.75 -2.85 -1.9 -2.75 -2.1 -2.85 M-3.55 -1.75 L-3.65 -1.6 -3.8 -1.5 -4.0 -1.6 -4.05 -1.75 -4.0 -1.95 -3.8 -2.0 -3.75 -2.2 -3.55 -2.25 -3.5 -2.25 -3.5 -2.3 -3.45 -2.5 -3.25 -2.55 -3.15 -2.5 -3.15 -2.6 -3.1 -2.8 -2.9 -2.85 -2.75 -2.8 -2.65 -2.6 -2.75 -2.45 -2.9 -2.35 -3.0 -2.35 -3.0 -2.3 -3.1 -2.15 -3.25 -2.05 -3.3 -2.05 -3.3 -2.0 -3.4 -1.85 -3.55 -1.75 M-3.85 -0.4 L-3.95 -0.25 -4.1 -0.15 -4.3 -0.25 -4.35 -0.4 -4.3 -0.6 -4.2 -0.6 -4.3 -0.7 -4.35 -0.85 -4.3 -1.05 -4.15 -1.1 -4.25 -1.15 -4.3 -1.3 -4.25 -1.5 -4.05 -1.55 -3.9 -1.5 -3.8 -1.3 -3.9 -1.15 -3.95 -1.05 -3.85 -0.85 -3.95 -0.7 -4.0 -0.6 -3.95 -0.6 -3.85 -0.4 M-2.0 1.5 L-2.1 1.65 -2.25 1.75 -2.45 1.65 -2.5 1.5 -2.5 1.4 -2.55 1.45 -2.7 1.55 -2.9 1.45 -2.95 1.35 -3.0 1.35 -3.2 1.25 -3.25 1.1 -3.35 1.1 -3.55 1.0 -3.6 0.85 -3.6 0.8 -3.65 0.8 -3.85 0.7 -3.9 0.55 -3.85 0.4 -3.95 0.4 -4.15 0.3 -4.2 0.15 -4.15 -0.05 -3.95 -0.1 -3.8 -0.05 -3.7 0.15 -3.8 0.3 -3.8 0.35 -3.65 0.3 -3.5 0.35 -3.4 0.55 -3.4 0.6 -3.35 0.6 -3.2 0.65 -3.1 0.85 -3.1 0.9 -3.0 0.85 -2.85 0.9 -2.75 1.05 -2.7 1.05 -2.55 1.1 -2.45 1.3 -2.25 1.25 -2.1 1.3 -2.0 1.5 M-0.15 1.7 L-0.25 1.85 -0.4 1.95 -0.6 1.85 -0.7 1.9 -0.85 2.0 -1.05 1.9 -1.1 1.8 -1.15 1.85 -1.3 1.95 -1.5 1.85 -1.55 1.75 -1.6 1.8 -1.75 1.9 -1.95 1.8 -2.0 1.65 -1.95 1.45 -1.75 1.4 -1.6 1.45 -1.5 1.55 -1.5 1.5 -1.3 1.45 -1.15 1.5 -1.05 1.6 -1.05 1.55 -0.85 1.5 -0.7 1.55 -0.65 1.65 -0.6 1.5 -0.4 1.45 -0.25 1.5 -0.15 1.7"/></g><g id="c22"><g><use transform="matrix(1.0,0.0,0.0,1.0,0.0,0.0)" xlink:href="#c21"/></g></g><g id="c23"><path fill="#fefd89" stroke="none" d="M3.85 -2.0 L-3.8 1.95 3.8 1.3 3.85 -2.0"/><path fill="none" stroke="#876a00" stroke-width="0.5" stroke-opacity="0.4" d="M3.85 -2.0 L3.8 1.3 -3.8 1.95"/></g><g id="c24"><g><use transform="matrix(1.0,0.0,0.0,1.0,0.0,0.0)" xlink:href="#c23"/></g></g><g id="c25"><path fill="#ffffff" stroke="none" d="M4.6 -5.6 L4.65 -5.6 Q5.25 -5.6 5.65 -4.4 6.05 -3.15 6.05 -1.4 L5.9 0.4 5.65 1.55 Q5.25 2.75 4.65 2.75 4.1 2.75 3.75 1.7 L3.7 1.55 3.6 1.4 3.4 0.25 Q3.25 -0.5 3.25 -1.4 L3.35 -2.75 Q3.45 -3.7 3.7 -4.4 4.05 -5.55 4.6 -5.6 M3.95 -1.05 L4.0 -1.05 4.15 -0.9 4.2 -0.65 4.15 -0.35 4.0 -0.25 Q3.85 -0.25 3.8 -0.35 L3.8 -0.4 3.75 0.25 Q3.7 0.95 3.95 1.45 4.1 2.0 4.4 2.0 L4.9 1.45 5.1 0.25 4.9 -1.0 Q4.7 -1.5 4.4 -1.45 4.15 -1.5 3.95 -1.05 M2.15 -2.2 L3.1 -0.1 3.15 1.4 3.15 1.75 3.05 2.2 3.05 2.3 2.4 3.75 2.3 3.85 Q-1.3 4.9 -3.65 3.45 L-3.75 3.4 Q-5.3 1.95 -4.7 -0.2 L-3.75 -2.3 Q-2.5 -3.3 -0.65 -3.55 L0.95 -3.2 2.15 -2.2 M1.5 0.75 L1.4 1.05 1.2 1.15 0.95 1.05 0.9 0.95 0.8 1.65 Q0.8 2.35 1.1 2.85 1.4 3.4 1.8 3.4 2.2 3.4 2.55 2.85 L2.8 1.65 2.55 0.4 Q2.2 -0.1 1.8 -0.05 1.4 -0.1 1.15 0.35 L1.2 0.35 Q1.3 0.35 1.4 0.5 L1.5 0.75"/><path fill="#e7e2d3" stroke="none" d="M-3.75 -2.3 L-4.7 -0.2 Q-5.3 1.95 -3.75 3.4 L-3.65 3.45 Q-1.3 4.9 2.3 3.85 L1.85 4.3 Q0.55 5.5 -1.1 5.55 L-3.7 5.3 Q-5.7 4.6 -5.95 2.5 L-5.9 0.95 -5.9 0.9 -5.05 -0.9 -4.6 -1.5 -3.75 -2.3"/><path fill="#252016" stroke="none" d="M3.95 -1.05 Q4.15 -1.5 4.4 -1.45 4.7 -1.5 4.9 -1.0 L5.1 0.25 4.9 1.45 4.4 2.0 Q4.1 2.0 3.95 1.45 3.7 0.95 3.75 0.25 L3.8 -0.4 3.8 -0.35 Q3.85 -0.25 4.0 -0.25 L4.15 -0.35 4.2 -0.65 4.15 -0.9 4.0 -1.05 3.95 -1.05 M1.5 0.75 L1.4 0.5 Q1.3 0.35 1.2 0.35 L1.15 0.35 Q1.4 -0.1 1.8 -0.05 2.2 -0.1 2.55 0.4 L2.8 1.65 2.55 2.85 Q2.2 3.4 1.8 3.4 1.4 3.4 1.1 2.85 0.8 2.35 0.8 1.65 L0.9 0.95 0.95 1.05 1.2 1.15 1.4 1.05 1.5 0.75"/><path fill="none" stroke="#876a00" stroke-width="0.5" stroke-opacity="0.4" d="M5.9 0.4 L6.05 -1.4 Q6.05 -3.15 5.65 -4.4 5.25 -5.6 4.65 -5.6 L4.6 -5.6 M3.35 -2.75 L3.25 -1.4 Q3.25 -0.5 3.4 0.25 M3.1 -0.1 L2.15 -2.2 M-5.05 -0.9 L-5.9 0.9 M-5.9 0.95 L-5.95 2.5 Q-5.7 4.6 -3.7 5.3"/><path fill="none" stroke="#876700" stroke-width="0.5" stroke-opacity="0.572549019608" d="M4.6 -5.6 Q4.05 -5.55 3.7 -4.4 3.45 -3.7 3.35 -2.75"/><path fill="none" stroke="#876700" stroke-width="0.5" stroke-opacity="0.541176470588" d="M2.15 -2.2 L0.95 -3.2 -0.65 -3.55 Q-2.5 -3.3 -3.75 -2.3 L-4.6 -1.5 -5.05 -0.9"/></g><g id="c26"><g><use transform="matrix(1.0,0.0,0.0,1.0,0.0,0.0)" xlink:href="#c25"/></g></g><g id="c27"><path fill="#fefd89" stroke="none" d="M2.35 -5.7 L3.55 -4.75 Q2.45 -0.5 3.4 4.25 L2.05 4.7 1.55 3.55 Q1.25 -1.65 2.35 -5.7 M-0.05 5.55 L-2.0 4.85 -1.95 4.25 Q-1.9 3.3 -2.0 2.4 -4.0 0.0 -5.35 -2.55 L-4.65 -2.75 -2.45 0.5 -3.25 -1.4 -2.1 -1.8 Q-0.95 0.25 -0.4 2.6 L-0.25 3.55 -0.05 5.55 M-2.45 0.5 L-2.0 2.4 -2.45 0.5"/><path fill="#eddd63" stroke="none" d="M2.35 -5.7 Q1.25 -1.65 1.55 3.55 L2.05 4.7 2.1 4.85 -0.05 5.55 -0.25 3.55 -0.4 2.6 Q-0.95 0.25 -2.1 -1.8 -1.0 -0.8 -0.05 0.7 0.85 -3.45 2.35 -5.7 M-1.95 4.25 Q-4.5 0.25 -5.35 -2.55 -4.0 0.0 -2.0 2.4 -1.9 3.3 -1.95 4.25 M1.55 3.55 L-0.05 0.7 1.55 3.55"/><path fill="none" stroke="#876a00" stroke-width="0.5" stroke-opacity="0.4" d="M3.4 4.25 Q2.45 -0.5 3.55 -4.75 L2.35 -5.7 M1.55 3.55 L2.05 4.7 2.1 4.85 M-2.0 4.85 L-1.95 4.25 Q-4.5 0.25 -5.35 -2.55 L-4.65 -2.75 -2.45 0.5 -3.25 -1.4 -2.1 -1.8 Q-1.0 -0.8 -0.05 0.7 0.85 -3.45 2.35 -5.7 M-2.0 2.4 L-2.45 0.5 M-1.95 4.25 Q-1.9 3.3 -2.0 2.4 M-0.05 0.7 L1.55 3.55"/></g><g id="c28"><g><use transform="matrix(1.0,0.0,0.0,1.0,0.0,0.0)" xlink:href="#c27"/></g></g><g id="c29"><g><use transform="matrix(1.0,0.0,0.0,1.0,0.3,-0.45)" filter="url(#filter18)" xlink:href="#c12"/></g><g><use transform="matrix(1.0,0.0,0.0,1.0,3.6,-2.15)" xlink:href="#c14"/></g><g><use transform="matrix(1.0,0.0,0.0,1.0,-3.5,0.1)" xlink:href="#c16"/></g><g><use transform="matrix(1.0,0.0,0.0,1.0,7.15,-13.8)" xlink:href="#c18"/></g><g><use transform="matrix(1.0,0.0,0.0,1.0,0.6,-9.8)" xlink:href="#c20"/></g><g><use transform="matrix(1.0,0.0,0.0,1.0,-8.95,-6.25)" xlink:href="#c22"/></g><g><use transform="matrix(1.0,0.0,0.0,1.0,4.65,-3.3)" xlink:href="#c24"/></g><g><use transform="matrix(1.0,0.0,0.0,1.0,3.55,-8.45)" xlink:href="#c26"/></g><g><use transform="matrix(1.0,0.0,0.0,1.0,-1.25,-22.1)" xlink:href="#c28"/></g><g><use transform="matrix(1.0,0.0,0.0,1.0,0.0,0.0)" xlink:href="#c1"/></g></g><filter id="filter18"><feColorMatrix in="SourceGraphic" type="matrix" values="1.0 0.0 0.0 0.0 0.0 0.0 1.0 0.0 0.0 0.0 0.0 0.0 1.0 0.0 0.0 0.0 0.0 0.0 0.25 0.0" result="cxform"/><feComposite operator="in" in2="SourceGraphic" result="color-xform"/></filter><g id="c30"><g><use transform="matrix(1.0,0.0,0.0,1.0,6.3,53.35)" xlink:href="#c10"/></g><g><use transform="matrix(0.723114013672,-0.120727539062,0.120727539062,0.723114013672,30.3,84.1)" xlink:href="#c29"/></g><g><use transform="matrix(0.141098022461,-0.0378112792969,0.111373901367,0.225646972656,27.2,74.05)" filter="url(#filter30)" xlink:href="#c7"/></g></g><filter id="filter30"><feColorMatrix in="SourceGraphic" type="matrix" values="1.0 0.0 0.0 0.0 0.0 0.0 1.0 0.0 0.0 0.0 0.0 0.0 1.0 0.0 0.0 0.0 0.0 0.0 0.23046875 0.0" result="cxform"/><feComposite operator="in" in2="SourceGraphic" result="color-xform"/></filter></defs><g><g><use transform="matrix(1.0,0.0,0.0,1.0,0.0,0.0)" xlink:href="#c2"/></g><g><use transform="matrix(1.15496826172,0.0,0.0,1.15496826172,-1.55,-56.9)" xlink:href="#c30"/></g></g></svg>