<?xml version='1.0' encoding='UTF-8'?>
<svg xmlns:xlink="http://www.w3.org/1999/xlink" xmlns="http://www.w3.org/2000/svg" version="1.1" width="60px" height="60px" viewBox="0.0 0.0 60.0 60.0"><defs><g id="c1"><path fill="#000000" fill-opacity="0.00392156862745" d="M0.0 0.0 L60.0 0.0 60.0 60.0 0.0 60.0 0.0 0.0"/></g><g id="c2"><path fill="none" stroke="#000000" stroke-width="1.0" stroke-opacity="0.301960784314" d="M0.7 12.25 Q-0.45 9.75 0.75 8.25 1.2 7.6 2.15 7.15 2.8 6.7 3.8 6.35 L17.5 1.95 30.2 7.0 41.35 31.7 Q42.95 35.15 40.2 36.7 39.5 37.3 38.3 37.65 L19.8 43.65 Q17.15 44.45 15.5 43.3 14.35 42.55 13.65 40.9 L0.7 12.25"/><path fill="#9d147b" stroke="none" d="M35.55 22.3 L31.5 13.2 29.75 9.2 16.95 4.25 5.5 7.85 Q1.65 9.1 3.35 12.8 L8.25 23.65 15.0 38.6 15.2 39.0 Q16.8 42.25 20.45 41.1 L37.2 35.7 Q41.1 34.5 39.35 30.75 L35.55 22.3 M2.15 7.15 Q2.8 6.7 3.8 6.35 L17.5 1.95 30.2 7.0 41.35 31.7 Q42.95 35.15 40.2 36.7 L38.9 37.25 23.2 42.3 20.4 43.2 19.1 43.5 17.3 43.4 Q15.3 42.9 14.2 40.5 L5.45 20.95 1.35 11.8 Q0.4 9.65 1.1 8.3 1.45 7.65 2.15 7.15"/><path fill="#c47fad" stroke="none" d="M31.5 13.2 L35.55 22.3 39.35 30.75 Q41.1 34.5 37.2 35.7 L20.45 41.1 Q16.8 42.25 15.2 39.0 L15.0 38.6 8.25 23.65 3.35 12.8 Q1.65 9.1 5.5 7.85 L16.95 4.25 29.75 9.2 31.5 13.2 M18.5 7.45 L9.1 10.55 9.55 11.6 Q9.8 12.8 9.15 13.6 8.4 14.45 7.1 14.4 L6.8 14.4 6.95 14.6 16.3 35.2 Q16.8 36.4 17.65 37.0 18.8 37.8 20.65 37.2 L34.0 32.9 33.7 32.1 Q33.45 30.9 34.1 30.1 34.75 29.3 35.95 29.35 L35.8 29.0 27.75 10.95 18.5 7.45"/><path fill="#630a4c" stroke="none" d="M0.75 8.25 Q1.2 7.6 2.15 7.15 1.45 7.65 1.1 8.3 L0.75 8.25 M23.3 42.5 L20.1 43.55 19.1 43.5 20.4 43.2 23.2 42.3 23.3 42.5 M15.5 43.3 Q14.35 42.55 13.65 40.9 L4.6 20.9 5.45 20.95 14.2 40.5 Q15.3 42.9 17.3 43.4 L15.5 43.3"/><path fill="#300525" stroke="none" d="M4.6 20.9 L0.7 12.25 Q-0.45 9.75 0.75 8.25 L1.1 8.3 Q0.4 9.65 1.35 11.8 L5.45 20.95 4.6 20.9 M40.2 36.7 Q39.5 37.3 38.3 37.65 L23.3 42.5 23.2 42.3 38.9 37.25 40.2 36.7 M20.1 43.55 L19.8 43.65 Q17.15 44.45 15.5 43.3 L17.3 43.4 19.1 43.5 20.1 43.55"/><path fill="#fcf2cf" stroke="none" d="M27.75 10.95 L35.8 29.0 35.95 29.35 Q34.75 29.3 34.1 30.1 33.45 30.9 33.7 32.1 L34.0 32.9 20.65 37.2 Q18.8 37.8 17.65 37.0 16.8 36.4 16.3 35.2 L6.95 14.6 6.8 14.4 7.1 14.4 Q8.4 14.45 9.15 13.6 9.8 12.8 9.55 11.6 L9.1 10.55 18.5 7.45 27.75 10.95"/><path fill="none" stroke="#bf9900" stroke-width="1.0" stroke-opacity="0.749019607843" d="M31.5 13.2 L35.55 22.3 M15.0 38.6 L8.25 23.65"/><path fill="none" stroke="#ffcc00" stroke-width="1.0" stroke-opacity="0.749019607843" d="M35.55 22.3 L39.35 30.75 Q41.1 34.5 37.2 35.7 L20.45 41.1 Q16.8 42.25 15.2 39.0 L15.0 38.6 M8.25 23.65 L3.35 12.8 Q1.65 9.1 5.5 7.85 L16.95 4.25 29.75 9.2 31.5 13.2"/><path fill="none" stroke="#000000" stroke-width="0.5" stroke-opacity="0.301960784314" d="M4.6 20.9 L0.7 12.25 Q-0.45 9.75 0.75 8.25 1.2 7.6 2.15 7.15 2.8 6.7 3.8 6.35 L17.5 1.95 M30.2 7.0 L41.35 31.7 Q42.95 35.15 40.2 36.7 39.5 37.3 38.3 37.65 L23.3 42.5 20.1 43.55 19.8 43.65 Q17.15 44.45 15.5 43.3 14.35 42.55 13.65 40.9 L4.6 20.9 M5.45 20.95 L1.35 11.8 Q0.4 9.65 1.1 8.3 1.45 7.65 2.15 7.15 M19.1 43.5 L17.3 43.4 Q15.3 42.9 14.2 40.5 L5.45 20.95 M23.2 42.3 L20.4 43.2 19.1 43.5 M40.2 36.7 L38.9 37.25 23.2 42.3"/><path fill="none" stroke="#f0b92b" stroke-width="0.5" d="M27.75 10.95 L35.8 29.0 35.95 29.35 Q34.75 29.3 34.1 30.1 33.45 30.9 33.7 32.1 L34.0 32.9 20.65 37.2 Q18.8 37.8 17.65 37.0 16.8 36.4 16.3 35.2 L6.95 14.6 6.8 14.4 7.1 14.4 Q8.4 14.45 9.15 13.6 9.8 12.8 9.55 11.6 L9.1 10.55 18.5 7.45"/><path fill="none" stroke="#ffcc00" stroke-width="0.5" stroke-opacity="0.749019607843" d="M18.5 7.45 L27.75 10.95"/></g><g id="c3"><path fill="#7fdbfe" stroke="none" d="M10.75 4.9 Q10.75 4.6 10.9 4.35 11.25 3.45 11.95 2.75 13.3 1.5 14.35 2.1 15.4 2.7 14.95 4.45 14.7 5.4 14.1 6.15 L13.75 6.5 Q13.1 7.15 12.35 7.35 L11.4 7.2 Q10.95 6.9 10.75 6.4 10.5 5.75 10.75 4.9 M7.5 5.9 Q7.0 5.85 6.6 5.5 6.05 5.0 5.8 4.15 L5.7 3.6 Q5.55 2.65 5.8 1.7 6.25 0.0 7.5 0.0 L7.6 0.0 Q8.85 0.0 9.3 1.7 9.55 2.65 9.4 3.6 L9.3 4.15 8.5 5.5 7.6 5.9 7.5 5.9 M4.35 4.9 Q4.6 5.75 4.35 6.4 L3.7 7.2 2.75 7.35 Q2.0 7.15 1.35 6.5 L1.0 6.15 Q0.4 5.4 0.15 4.45 -0.3 2.7 0.75 2.1 1.8 1.5 3.15 2.75 3.85 3.45 4.2 4.35 L4.35 4.9 M5.5 13.7 Q4.45 13.9 3.65 12.95 2.75 12.0 3.2 10.25 3.7 8.5 5.25 7.6 6.4 6.9 7.55 7.0 8.75 6.9 9.9 7.6 11.45 8.5 11.95 10.25 12.35 12.0 11.5 12.95 10.7 13.9 9.65 13.7 8.55 13.5 7.55 12.6 6.55 13.5 5.5 13.7"/></g><g id="c4"><g><use transform="matrix(1.0,0.0,0.0,1.0,0.0,0.0)" xlink:href="#c3"/></g></g><radialGradient gradientUnits="userSpaceOnUse" r="819.2" cx="0" cy="0" spreadMethod="pad" gradientTransform="matrix(0.0914459228516,0.0,0.0,0.0914459228516,0.6,3.4)" id="gradient1"><stop offset="0.0" stop-color="#ffffff"/><stop offset="1.0" stop-color="#ffffff" stop-opacity="0.0"/></radialGradient><g id="c5"><path stroke="none" fill="url(#gradient1)" d="M36.65 -54.65 Q60.05 -42.0 69.75 -17.95 80.55 8.9 68.0 34.1 55.45 59.35 26.8 68.2 -1.8 77.05 -29.7 64.3 -57.6 51.6 -68.45 24.75 -79.3 -2.05 -66.75 -27.25 L-66.7 -27.3 Q-54.1 -52.5 -25.5 -61.4 3.1 -70.2 31.0 -57.5 L36.65 -54.65"/></g><g id="c6"><g><use transform="matrix(1.0,0.0,0.0,1.0,0.0,0.0)" xlink:href="#c5"/></g></g><radialGradient gradientUnits="userSpaceOnUse" r="819.2" cx="0" cy="0" spreadMethod="pad" gradientTransform="matrix(0.209197998047,0.0,0.0,0.177108764648,67.15,107.2)" id="gradient2"><stop offset="0.356862745098" stop-color="#ffffff"/><stop offset="0.670588235294" stop-opacity="0.0"/></radialGradient><g id="c7"><path fill="none" stroke-linejoin="round" stroke-linecap="round" stroke="url(#gradient2)" stroke-width="0.5" d="M136.55 165.8 L68.6 106.0 68.4 106.0 118.25 201.5 M68.3 105.8 L68.35 105.8 68.3 105.8 68.3 105.85 68.4 106.0 68.3 106.0 86.55 211.5 M68.3 105.8 L68.3 105.85 68.3 106.0 68.15 105.95 18.25 151.55 M68.3 105.85 L68.25 105.85 68.3 106.0 50.0 193.2 M68.25 105.85 L68.15 105.95 0.05 97.7 M68.3 105.85 L68.25 105.8 68.25 105.85 M68.25 105.8 L68.2 105.7 0.0 45.7 M68.3 105.8 L68.25 105.75 68.25 105.8 M68.25 105.75 L68.2 105.7 18.25 10.05 M68.6 106.0 L68.35 105.8 118.25 60.15 M86.6 18.35 L68.3 105.8 M136.6 114.25 L68.6 106.0 M68.25 105.75 L49.95 0.05"/></g><g id="c8"><g><use transform="matrix(1.0,0.0,0.0,1.0,0.0,0.0)" xlink:href="#c7"/></g></g><g id="c9"><g><use transform="matrix(1.0,0.0,0.0,1.0,0.0,0.0)" xlink:href="#c2"/></g><g><use transform="matrix(0.238861083984,-0.0867004394531,0.10026550293,0.233917236328,34.25,31.15)" xlink:href="#c4"/></g><g><use transform="matrix(0.238861083984,-0.0867004394531,0.10026550293,0.233917236328,4.25,10.3)" xlink:href="#c4"/></g><g><use transform="matrix(0.141098022461,-0.0378112792969,0.111373901367,0.225646972656,20.25,20.65)" filter="url(#filter7)" xlink:href="#c6"/></g><g><use transform="matrix(-0.155029296875,0.0513153076172,0.0841827392578,0.147033691406,22.6,3.15)" filter="url(#filter8)" xlink:href="#c8"/></g></g><filter id="filter7"><feColorMatrix in="SourceGraphic" type="matrix" values="0.0 0.0 0.0 0.0 0.796875 0.0 0.0 0.0 0.0 0.59765625 0.0 0.0 0.0 0.0 0.19921875 0.0 0.0 0.0 1.0 0.0" result="cxform"/><feComposite operator="in" in2="SourceGraphic" result="color-xform"/></filter><filter id="filter8"><feColorMatrix in="SourceGraphic" type="matrix" values="0.0 0.0 0.0 0.0 0.99609375 0.0 0.0 0.0 0.0 0.99609375 0.0 0.0 0.0 0.0 0.99609375 0.0 0.0 0.0 1.0 0.0" result="cxform"/><feComposite operator="in" in2="SourceGraphic" result="color-xform"/></filter><radialGradient gradientUnits="userSpaceOnUse" r="819.2" cx="0" cy="0" spreadMethod="pad" gradientTransform="matrix(0.00212097167969,-0.00131225585938,0.001220703125,0.00254821777344,35.55,81.2)" id="gradient3"><stop offset="0.0" stop-color="#ffffff" stop-opacity="0.411764705882"/><stop offset="1.0" stop-color="#ffffff" stop-opacity="0.0"/></radialGradient><radialGradient gradientUnits="userSpaceOnUse" r="819.2" cx="0" cy="0" spreadMethod="pad" gradientTransform="matrix(0.0018310546875,-0.000946044921875,0.000823974609375,0.00218200683594,25.4,82.35)" id="gradient4"><stop offset="0.0" stop-color="#ffffff" stop-opacity="0.411764705882"/><stop offset="1.0" stop-color="#ffffff" stop-opacity="0.0"/></radialGradient><g id="c10"><path fill="#1f1f1f" stroke="none" d="M36.25 86.75 L35.65 86.9 35.5 86.9 Q35.0 86.9 34.8 86.5 34.6 86.2 34.8 85.65 L35.6 84.95 Q36.05 84.6 36.6 84.6 L36.8 84.7 Q35.35 86.2 35.9 86.6 36.0 86.75 36.25 86.75"/><path fill="#393939" stroke="none" d="M36.25 86.75 Q36.0 86.75 35.9 86.6 36.6 85.35 37.4 85.35 L37.25 85.85 36.55 86.65 36.3 86.75 36.25 86.75"/><path fill="#aeaeae" stroke="none" d="M35.9 86.6 Q35.35 86.2 36.8 84.7 L37.3 85.05 37.4 85.35 Q36.6 85.35 35.9 86.6"/><path fill="none" stroke="#000000" stroke-width="0.5" stroke-opacity="0.301960784314" d="M36.8 84.7 L36.6 84.6 Q36.05 84.6 35.6 84.95 L34.8 85.65 Q34.6 86.2 34.8 86.5 35.0 86.9 35.5 86.9 L35.65 86.9 36.25 86.75 M36.8 84.7 L37.3 85.05 37.4 85.35 37.25 85.85 36.55 86.65 36.3 86.75"/><path fill="#393939" stroke="none" d="M35.9 80.2 L36.0 80.4 33.7 81.8 33.75 82.0 34.15 82.75 33.4 83.2 32.9 82.0 33.65 81.5 34.35 81.1 34.35 81.05 34.4 81.1 34.45 81.05 35.9 80.2 M36.4 82.2 L36.45 82.4 34.55 83.7 35.15 84.95 34.8 85.15 34.65 85.25 34.0 84.35 33.7 83.8 33.8 83.75 33.8 83.7 34.45 83.35 34.95 83.05 35.0 82.95 35.05 82.95 36.25 82.25 36.3 82.2 36.4 82.2 M32.95 77.55 L34.15 76.85 34.4 77.3 Q33.3 77.7 33.1 78.05 L33.05 78.2 33.0 79.05 32.3 79.45 32.2 78.0 32.95 77.55 M35.2 78.5 L35.35 78.75 Q33.9 79.4 33.35 80.0 L33.5 80.85 32.7 81.3 32.4 80.05 32.5 80.1 32.5 80.05 33.3 79.6 33.8 79.3 33.85 79.2 35.2 78.5"/><path fill="#95a6a0" stroke="none" d="M35.9 80.2 L34.45 81.05 34.4 81.1 34.35 81.05 34.35 81.1 33.65 81.5 33.4 81.25 36.0 80.0 35.9 80.2 M36.45 82.1 L36.4 82.2 36.3 82.2 36.25 82.25 35.05 82.95 35.0 82.95 34.95 83.05 34.45 83.35 34.2 83.2 36.45 82.1 M35.35 78.3 L35.2 78.5 33.85 79.2 33.8 79.3 33.3 79.6 33.05 79.35 35.35 78.3"/><path fill="#ffffff" stroke="none" d="M36.25 81.5 L36.4 81.5 36.55 81.75 36.55 82.0 36.45 82.1 34.2 83.2 Q34.1 83.05 34.15 82.75 L34.7 82.4 34.75 82.4 36.2 81.55 36.25 81.5 M36.0 80.0 L33.4 81.25 33.5 80.85 34.15 80.5 34.15 80.45 Q34.95 80.05 35.7 79.6 L35.85 79.6 36.0 79.75 36.0 80.0 M34.9 77.95 L34.95 77.85 35.15 77.85 35.3 78.05 35.35 78.3 33.05 79.35 33.15 79.0 33.55 78.7 33.6 78.7 34.9 77.95"/><path fill="#6c806c" stroke="none" d="M36.5 84.15 L36.75 84.05 36.8 84.05 37.0 84.7 36.95 84.75 35.65 85.55 Q35.4 85.45 35.45 84.75 L36.5 84.15 M33.55 76.35 L34.05 76.05 34.1 76.05 34.3 76.75 34.25 76.75 34.15 76.85 32.95 77.55 Q32.55 77.45 32.85 76.75 L33.0 76.65 33.55 76.35 33.0 76.65 32.7 76.1 33.1 75.9 33.45 76.1 33.55 76.35 M33.4 76.55 L33.15 76.75 33.15 77.0 33.3 77.15 33.55 77.05 33.75 76.9 33.75 76.65 33.65 76.45 33.4 76.55 M35.8 84.95 L36.0 85.1 36.25 85.05 36.45 84.8 36.45 84.6 36.3 84.45 36.05 84.5 35.85 84.7 35.8 84.95"/><path fill="#4a5a49" stroke="none" d="M35.65 85.55 L34.9 86.0 Q34.7 85.75 34.8 85.15 L35.15 84.95 35.45 84.75 Q35.4 85.45 35.65 85.55 M33.0 76.65 L32.85 76.75 Q32.55 77.45 32.95 77.55 L32.2 78.0 Q32.0 77.75 32.15 77.15 L32.3 77.1 32.85 76.75 32.3 77.1 32.2 76.85 32.0 76.5 32.7 76.1 33.0 76.65 M33.45 76.1 L33.1 75.9 33.4 75.7 33.45 76.1"/><path fill="#d6dbd6" stroke="none" d="M33.4 76.55 L33.65 76.45 33.75 76.65 33.75 76.9 33.55 77.05 33.3 77.15 33.15 77.0 33.15 76.75 33.4 76.55 M35.8 84.95 L35.85 84.7 36.05 84.5 36.3 84.45 36.45 84.6 36.45 84.8 36.25 85.05 36.0 85.1 35.8 84.95"/><path fill="#bcc4bb" stroke="none" d="M34.9 86.0 L34.8 86.05 34.65 86.1 Q34.4 85.8 34.45 85.35 L34.55 85.35 34.65 85.25 34.8 85.15 Q34.7 85.75 34.9 86.0 M32.15 77.15 Q32.0 77.75 32.2 78.0 L32.05 78.05 31.95 78.05 Q31.7 77.85 31.75 77.4 L31.85 77.35 32.15 77.15"/><path fill="#acbfb9" stroke="none" d="M33.65 81.5 L32.9 82.0 32.75 81.95 32.6 81.75 32.6 81.5 32.7 81.3 33.5 80.85 33.4 81.25 33.65 81.5 M33.4 83.2 L34.15 82.75 Q34.1 83.05 34.2 83.2 L34.45 83.35 33.8 83.7 33.8 83.75 33.7 83.8 33.6 83.8 33.4 83.8 33.25 83.7 33.2 83.5 33.25 83.4 33.35 83.2 33.4 83.2 M32.3 79.45 L33.0 79.05 33.15 79.0 33.05 79.35 33.3 79.6 32.5 80.05 32.5 80.1 32.4 80.05 32.35 80.05 32.2 79.85 32.15 79.65 32.25 79.5 32.3 79.45"/><path fill="#604767" stroke="none" d="M34.15 82.75 L33.75 82.0 33.7 81.8 36.0 80.4 36.25 81.5 36.2 81.55 34.75 82.4 34.7 82.4 34.15 82.75 M36.45 82.4 L36.55 82.85 36.5 84.15 35.45 84.75 35.15 84.95 34.55 83.7 36.45 82.4 M35.7 79.6 Q34.95 80.05 34.15 80.45 L34.15 80.5 33.5 80.85 33.35 80.0 Q33.9 79.4 35.35 78.75 L35.7 79.6 M34.4 77.3 L34.9 77.95 33.6 78.7 33.55 78.7 33.15 79.0 33.0 79.05 33.05 78.2 33.1 78.05 Q33.3 77.7 34.4 77.3"/><path fill="none" stroke="#000000" stroke-width="0.5" stroke-opacity="0.301960784314" d="M36.0 80.4 L35.9 80.2 36.0 80.0 36.0 79.75 35.85 79.6 35.7 79.6 M32.9 82.0 L33.4 83.2 M36.0 80.4 L36.25 81.5 36.4 81.5 36.55 81.75 36.55 82.0 36.45 82.1 36.4 82.2 36.45 82.4 36.55 82.85 36.5 84.15 36.75 84.05 36.8 84.05 37.0 84.7 36.95 84.75 35.65 85.55 34.9 86.0 34.8 86.05 34.65 86.1 Q34.4 85.8 34.45 85.35 L34.55 85.35 34.65 85.25 34.0 84.35 33.7 83.8 M33.6 83.8 L33.4 83.8 33.25 83.7 33.2 83.5 33.25 83.4 33.35 83.2 33.4 83.2 M34.15 76.85 L34.25 76.75 34.3 76.75 34.1 76.05 34.05 76.05 33.55 76.35 33.0 76.65 32.85 76.75 32.3 77.1 32.15 77.15 31.85 77.35 31.75 77.4 Q31.7 77.85 31.95 78.05 L32.05 78.05 32.2 78.0 32.3 79.45 32.25 79.5 32.15 79.65 32.2 79.85 32.35 80.05 32.4 80.05 32.5 80.1 32.5 80.05 M32.95 77.55 L34.15 76.85 34.4 77.3 34.9 77.95 M34.95 77.85 L35.15 77.85 35.3 78.05 35.35 78.3 35.2 78.5 35.35 78.75 35.7 79.6 M33.55 76.35 L33.45 76.1 33.4 75.7 M32.2 78.0 L32.95 77.55 M32.0 76.5 L32.2 76.85 32.3 77.1 M33.8 83.7 L33.8 83.75 M36.2 81.55 L36.25 81.5 M32.7 81.3 L32.6 81.5 32.6 81.75 32.75 81.95 32.9 82.0 M34.8 85.15 L34.65 85.25 M35.15 84.95 L34.8 85.15 M32.7 81.3 L32.4 80.05 M36.3 82.2 L36.25 82.25 M36.5 84.15 L35.45 84.75 35.15 84.95"/><path stroke="none" fill="url(#gradient3)" d="M34.5 77.9 L34.75 78.15 Q37.0 81.3 36.05 84.0 35.65 84.85 35.35 84.5 35.2 81.25 33.3 78.5 33.4 77.7 34.5 77.9"/><path fill="#acd1d2" stroke="none" d="M27.65 66.8 L27.6 66.75 Q27.35 67.1 29.45 69.45 30.55 70.75 30.8 70.6 30.15 69.05 29.2 68.0 L28.9 67.4 Q31.6 70.7 32.95 74.25 31.95 74.0 31.45 73.25 L30.65 71.95 Q29.9 70.25 28.85 69.1 L25.95 66.4 25.55 66.0 25.25 65.6 Q25.3 65.45 25.55 65.45 27.2 66.15 27.65 66.8 M30.75 71.65 L31.8 72.8 Q31.6 71.3 31.0 71.05 L30.75 71.65"/><path fill="#426c75" stroke="none" d="M27.65 66.8 Q27.2 66.15 25.55 65.45 26.15 65.35 27.55 65.9 L28.9 67.4 29.2 68.0 27.85 66.9 27.65 66.8 M25.55 66.0 L25.95 66.4 28.85 69.1 Q29.9 70.25 30.65 71.95 L30.85 72.6 31.05 73.85 Q30.5 72.0 29.45 70.25 28.5 68.95 26.95 67.8 L23.5 65.35 23.95 65.35 Q24.75 65.3 25.2 65.7 L25.55 66.0"/><path fill="#ffffff" stroke="none" d="M25.55 65.45 Q25.3 65.45 25.25 65.6 L27.6 65.65 28.3 66.4 28.85 67.05 28.9 67.1 Q30.9 69.3 33.35 74.35 L32.95 74.25 Q31.6 70.7 28.9 67.4 L27.55 65.9 Q26.15 65.35 25.55 65.45"/><path fill="#79acb3" stroke="none" d="M29.2 68.0 Q30.15 69.05 30.8 70.6 30.55 70.75 29.45 69.45 27.35 67.1 27.6 66.75 L27.65 66.8 27.85 66.9 29.2 68.0 M30.75 71.65 L31.0 71.05 Q31.6 71.3 31.8 72.8 L30.75 71.65"/><path fill="#e9f2f3" stroke="none" d="M25.25 65.6 L25.55 66.0 25.2 65.7 Q24.75 65.3 23.95 65.35 L23.5 65.35 Q22.7 65.45 23.85 66.35 L21.75 65.5 Q25.35 64.3 27.2 64.6 27.75 64.65 29.0 66.1 L29.25 66.45 Q30.55 68.1 31.55 70.1 33.4 73.9 34.05 74.45 L33.35 74.35 Q30.9 69.3 28.9 67.1 L28.85 67.05 28.3 66.4 27.6 65.65 25.25 65.6"/><path fill="#62a3ac" stroke="none" d="M31.1 75.95 Q31.3 75.7 30.65 73.5 29.95 71.25 28.5 69.55 27.05 67.85 23.85 66.35 22.7 65.45 23.5 65.35 L26.95 67.8 Q28.5 68.95 29.45 70.25 30.5 72.0 31.05 73.85 L31.15 75.95 31.1 75.95"/><path fill="#c4b4cb" stroke="none" d="M30.65 71.95 L31.45 73.25 Q31.95 74.0 32.95 74.25 L33.35 74.35 34.05 74.45 35.5 74.35 35.5 74.2 35.8 74.4 34.35 74.65 34.1 74.7 34.05 74.65 33.9 74.5 33.25 74.45 33.1 74.55 32.5 74.45 32.4 74.45 32.4 74.35 32.55 74.4 31.4 73.6 30.85 72.6 30.65 71.95 M35.65 73.4 L36.65 73.3 Q37.35 73.75 37.5 74.35 L37.4 74.7 37.0 74.05 36.95 73.75 36.4 73.45 36.2 73.6 35.65 73.55 35.65 73.4"/><path fill="#604767" stroke="none" d="M27.7 76.15 Q27.4 75.45 28.65 75.75 L28.7 75.9 28.5 75.75 Q28.15 75.65 28.15 75.9 L28.25 76.05 28.35 76.0 28.6 76.25 28.8 76.15 28.7 76.45 28.9 76.5 29.1 76.55 29.7 76.6 30.4 76.5 30.95 76.3 31.1 75.95 31.15 75.95 31.05 73.85 30.85 72.6 31.4 73.6 32.55 74.4 32.4 74.35 32.4 74.45 32.5 74.45 33.1 74.55 33.1 74.6 33.2 74.7 33.8 74.8 34.1 74.8 34.15 74.75 34.1 74.7 34.35 74.65 35.8 74.4 37.05 74.6 Q35.85 74.15 35.65 73.55 L36.2 73.6 36.2 73.65 36.35 73.95 Q36.6 74.2 36.9 74.25 L37.0 74.2 37.0 74.05 37.4 74.7 35.9 74.65 34.15 74.95 31.85 76.2 Q30.9 77.0 29.65 76.95 28.8 77.1 27.7 76.15 M33.85 74.95 L32.8 74.65 32.55 74.55 32.85 75.25 33.05 75.45 33.85 74.95 M32.4 75.05 L32.4 74.95 32.35 74.6 32.15 74.35 31.95 74.3 31.7 74.1 31.8 74.35 31.7 74.6 31.7 74.95 31.95 75.2 32.1 75.25 32.4 75.8 32.7 75.6 32.4 75.05 M31.8 75.25 L31.6 74.8 31.65 75.25 31.6 75.4 31.65 75.4 31.75 75.85 31.6 76.15 32.1 75.9 31.95 75.75 31.8 75.25"/><path fill="#e1dce7" stroke="none" d="M33.1 74.55 L33.25 74.45 33.9 74.5 34.05 74.65 34.1 74.7 34.15 74.75 34.1 74.8 33.8 74.8 33.2 74.7 33.1 74.6 33.1 74.55 M37.0 74.05 L37.0 74.2 36.9 74.25 Q36.6 74.2 36.35 73.95 L36.2 73.65 36.2 73.6 36.4 73.45 36.95 73.75 37.0 74.05 M28.8 76.15 L28.6 76.25 28.35 76.0 28.25 76.05 28.15 75.9 Q28.15 75.65 28.5 75.75 L28.7 75.9 28.85 76.05 28.8 76.15"/><path fill="#36283b" stroke="none" d="M35.5 74.2 Q35.4 73.75 35.6 73.45 L35.65 73.4 35.65 73.55 Q35.85 74.15 37.05 74.6 L35.8 74.4 35.5 74.2 M37.5 74.35 L37.55 75.15 35.9 75.2 35.25 75.15 34.3 75.35 34.25 75.4 34.2 75.4 33.8 75.65 32.25 76.45 31.85 76.7 30.6 77.2 29.0 77.35 28.5 77.2 27.7 76.15 Q28.8 77.1 29.65 76.95 30.9 77.0 31.85 76.2 L34.15 74.95 35.9 74.65 37.4 74.7 37.5 74.35 M28.65 75.75 L28.9 75.8 Q29.6 76.4 28.85 76.45 L28.9 76.5 28.7 76.45 28.8 76.15 28.85 76.05 28.7 75.9 28.65 75.75"/><path fill="#c2c105" stroke="none" d="M33.85 74.95 L33.05 75.45 32.85 75.25 32.55 74.55 32.8 74.65 33.85 74.95 M31.95 74.3 L32.2 74.6 32.4 75.05 32.7 75.6 32.4 75.8 32.1 75.25 31.8 74.35 31.7 74.1 31.95 74.3 M31.8 75.25 L31.65 75.25 31.6 74.8 31.8 75.25 31.95 75.75 32.1 75.9 31.6 76.15 31.75 75.85 31.65 75.4 31.8 75.25"/><path fill="#000000" stroke="none" d="M31.95 74.3 L32.15 74.35 32.35 74.6 32.4 74.95 32.4 75.05 32.2 74.6 31.95 74.3 M32.1 75.25 L31.95 75.2 31.7 74.95 31.7 74.6 31.8 74.35 32.1 75.25"/><path fill="none" stroke="#000000" stroke-width="0.5" stroke-opacity="0.301960784314" d="M30.65 71.95 L31.45 73.25 Q31.95 74.0 32.95 74.25 M23.85 66.35 L21.75 65.5 Q25.35 64.3 27.2 64.6 27.75 64.65 29.0 66.1 L29.25 66.45 Q30.55 68.1 31.55 70.1 33.4 73.9 34.05 74.45 L35.5 74.35 35.5 74.2 Q35.4 73.75 35.6 73.45 L35.65 73.4 36.65 73.3 Q37.35 73.75 37.5 74.35 L37.55 75.15 35.9 75.2 35.25 75.15 34.3 75.35 34.25 75.4 34.2 75.4 33.8 75.65 M32.25 76.45 L31.85 76.7 30.6 77.2 29.0 77.35 28.5 77.2 27.7 76.15 Q27.4 75.45 28.65 75.75 L28.9 75.8 Q29.6 76.4 28.85 76.45 L28.9 76.5 29.1 76.55 29.7 76.6 30.4 76.5 30.95 76.3 31.1 75.95 Q31.3 75.7 30.65 73.5 29.95 71.25 28.5 69.55 27.05 67.85 23.85 66.35 M33.35 74.35 L34.05 74.45 M31.05 73.85 L30.85 72.6 30.65 71.95 M33.35 74.35 L32.95 74.25 M31.05 73.85 L31.15 75.95 31.1 75.95"/><path fill="none" stroke="#ffffff" stroke-width="0.5" stroke-opacity="0.2" d="M25.95 66.4 L28.85 69.1 Q29.9 70.25 30.65 71.95"/><path fill="#1f1f1f" stroke="none" d="M25.35 86.85 L25.75 87.05 25.7 87.1 25.15 87.15 25.05 87.1 Q24.65 87.05 24.5 86.75 24.35 86.45 24.6 86.05 24.8 85.75 25.25 85.5 L26.1 85.35 26.3 85.4 Q25.0 86.55 25.35 86.85"/><path fill="#aeaeae" stroke="none" d="M26.7 86.0 Q26.05 85.9 25.35 86.85 25.0 86.55 26.3 85.4 L26.65 85.7 26.7 86.0"/><path fill="#393939" stroke="none" d="M26.7 86.0 L26.6 86.35 25.9 86.95 25.75 87.05 25.35 86.85 Q26.05 85.9 26.7 86.0"/><path fill="none" stroke="#000000" stroke-width="0.5" stroke-opacity="0.301960784314" d="M25.75 87.05 L25.9 86.95 26.6 86.35 26.7 86.0 M25.7 87.1 L25.15 87.15 25.05 87.1 Q24.65 87.05 24.5 86.75 24.35 86.45 24.6 86.05 24.8 85.75 25.25 85.5 L26.1 85.35 26.3 85.4 26.65 85.7 26.7 86.0"/><path fill="#393939" stroke="none" d="M25.4 80.15 L25.45 80.4 Q24.25 80.85 23.75 81.3 L23.85 82.0 23.15 82.35 23.0 81.25 23.05 81.3 23.7 81.0 24.15 80.7 24.2 80.7 24.25 80.65 25.35 80.15 25.4 80.15 M25.85 81.65 L25.9 81.8 23.95 82.8 23.95 83.0 24.2 83.6 23.6 83.95 23.25 82.85 23.9 82.5 24.5 82.25 24.55 82.25 25.85 81.65 M26.15 83.3 L26.15 83.5 Q24.85 84.1 24.5 84.45 L24.9 85.5 24.6 85.65 24.5 85.7 23.95 84.9 23.75 84.4 24.35 84.1 24.9 83.9 24.95 83.85 26.0 83.35 26.0 83.3 26.1 83.3 26.15 83.3 M24.65 78.75 L24.8 79.1 Q23.9 79.4 23.7 79.7 L23.6 79.8 23.5 80.5 22.9 80.75 22.95 79.55 23.6 79.25 24.65 78.75"/><path fill="#95a6a0" stroke="none" d="M25.4 80.15 L25.35 80.15 24.25 80.65 24.2 80.7 24.15 80.7 23.7 81.0 23.6 80.7 25.5 80.0 25.4 80.15 M25.95 81.5 L25.85 81.65 24.55 82.25 24.5 82.25 23.9 82.5 23.75 82.35 25.95 81.5 M26.2 83.25 L26.15 83.3 26.1 83.3 26.2 83.25 M24.35 84.1 L24.25 84.0 26.0 83.35 24.95 83.85 24.9 83.9 24.35 84.1"/><path fill="#ffffff" stroke="none" d="M25.7 81.1 L25.85 81.1 26.0 81.3 25.95 81.5 23.75 82.35 23.85 82.0 25.7 81.1 M26.05 82.75 L26.15 82.8 26.3 82.9 26.25 83.15 26.2 83.25 26.1 83.3 26.0 83.3 26.0 83.35 24.25 84.0 24.2 83.6 24.7 83.35 24.75 83.35 26.0 82.75 26.05 82.75 M25.5 80.0 L23.6 80.7 Q23.55 80.6 23.65 80.45 L24.05 80.2 24.05 80.25 25.2 79.7 25.25 79.65 25.3 79.6 25.4 79.65 25.45 79.8 25.5 80.0"/><path fill="#bcc4bb" stroke="none" d="M24.6 86.3 L24.55 86.35 24.45 86.4 Q24.2 86.15 24.3 85.8 L24.35 85.75 24.5 85.7 24.6 85.65 24.6 86.3 M22.95 79.55 L22.8 79.6 22.75 79.65 22.6 79.05 23.0 78.85 Q22.8 79.4 22.95 79.55"/><path fill="#6c806c" stroke="none" d="M26.1 84.95 L26.25 84.85 26.3 84.8 Q26.55 85.05 26.45 85.4 L26.4 85.45 Q25.85 85.75 25.25 86.0 25.05 85.95 25.2 85.4 L25.7 85.15 26.1 84.95 M23.5 78.05 L23.8 77.9 24.15 78.05 24.2 78.3 24.6 78.1 24.65 78.05 24.8 78.65 24.75 78.7 24.65 78.75 23.6 79.25 Q23.25 79.15 23.55 78.6 L23.75 78.5 23.5 78.05 M24.0 78.45 L23.85 78.6 23.8 78.85 23.9 78.95 24.1 78.9 24.3 78.7 24.35 78.55 24.2 78.4 24.0 78.45 M23.75 78.5 L24.2 78.3 23.75 78.5 M25.4 85.55 L25.55 85.65 25.75 85.65 26.0 85.5 25.95 85.3 25.9 85.15 25.7 85.15 25.5 85.35 25.4 85.55"/><path fill="#4a5a49" stroke="none" d="M25.25 86.0 L24.6 86.3 24.6 85.65 24.9 85.5 25.2 85.4 Q25.05 85.95 25.25 86.0 M22.95 79.55 Q22.8 79.4 23.0 78.85 L23.1 78.8 23.05 78.6 22.9 78.3 23.5 78.05 23.75 78.5 23.55 78.6 Q23.25 79.15 23.6 79.25 L22.95 79.55 M23.8 77.9 L24.15 77.75 24.15 78.05 23.8 77.9 M23.1 78.8 L23.55 78.6 23.1 78.8"/><path fill="#d6dbd6" stroke="none" d="M24.0 78.45 L24.2 78.4 24.35 78.55 24.3 78.7 24.1 78.9 23.9 78.95 23.8 78.85 23.85 78.6 24.0 78.45 M25.4 85.55 L25.5 85.35 25.7 85.15 25.9 85.15 25.95 85.3 26.0 85.5 25.75 85.65 25.55 85.65 25.4 85.55"/><path fill="#604767" stroke="none" d="M23.85 82.0 L23.75 81.3 Q24.25 80.85 25.45 80.4 L25.7 81.1 23.85 82.0 M25.9 81.8 L26.05 82.75 26.0 82.75 24.75 83.35 24.7 83.35 24.2 83.6 23.95 83.0 23.95 82.8 25.9 81.8 M26.15 83.5 L26.2 83.85 26.1 84.95 25.7 85.15 25.2 85.4 24.9 85.5 24.5 84.45 Q24.85 84.1 26.15 83.5 M25.2 79.7 L24.05 80.25 24.05 80.2 23.65 80.45 23.5 80.5 23.6 79.8 23.7 79.7 Q23.9 79.4 24.8 79.1 L25.2 79.7"/><path fill="#acbfb9" stroke="none" d="M23.7 81.0 L23.05 81.3 23.0 81.25 22.95 81.25 22.8 81.1 22.85 80.95 22.85 80.85 22.9 80.8 22.9 80.75 23.5 80.5 23.65 80.45 Q23.55 80.6 23.6 80.7 L23.7 81.0 M23.15 82.35 L23.85 82.0 23.75 82.35 23.9 82.5 23.25 82.85 23.1 82.85 23.0 82.45 23.15 82.35 M23.75 84.4 L23.7 84.45 23.55 84.4 23.4 84.3 23.45 84.15 23.45 84.1 23.55 83.95 23.6 83.95 24.2 83.6 24.25 84.0 24.35 84.1 23.75 84.4"/><path fill="none" stroke="#000000" stroke-width="0.5" stroke-opacity="0.301960784314" d="M25.45 80.4 L25.4 80.15 25.35 80.15 M23.05 81.3 L23.0 81.25 23.15 82.35 M25.45 80.4 L25.7 81.1 25.85 81.1 26.0 81.3 25.95 81.5 25.85 81.65 25.9 81.8 26.05 82.75 26.15 82.8 26.3 82.9 26.25 83.15 26.2 83.25 26.15 83.3 26.15 83.5 26.2 83.85 26.1 84.95 26.25 84.85 26.3 84.8 Q26.55 85.05 26.45 85.4 L26.4 85.45 Q25.85 85.75 25.25 86.0 L24.6 86.3 24.55 86.35 24.45 86.4 Q24.2 86.15 24.3 85.8 L24.35 85.75 24.5 85.7 23.95 84.9 23.75 84.4 M23.7 84.45 L23.55 84.4 23.4 84.3 23.45 84.15 23.45 84.1 23.55 83.95 23.6 83.95 23.25 82.85 23.1 82.85 23.0 82.45 23.15 82.35 M25.4 80.15 L25.5 80.0 25.45 79.8 25.4 79.65 25.3 79.6 25.25 79.65 M23.0 78.85 L22.6 79.05 22.75 79.65 22.8 79.6 22.95 79.55 23.6 79.25 24.65 78.75 24.8 79.1 25.2 79.7 M23.0 78.85 L23.1 78.8 23.05 78.6 22.9 78.3 M24.15 77.75 L24.15 78.05 24.2 78.3 24.6 78.1 24.65 78.05 24.8 78.65 24.75 78.7 24.65 78.75 M23.75 78.5 L23.55 78.6 23.1 78.8 M24.2 78.3 L23.75 78.5 M22.9 80.75 L22.9 80.8 22.85 80.85 22.85 80.95 22.8 81.1 22.95 81.25 23.0 81.25 M26.0 82.75 L26.05 82.75 M25.2 85.4 L24.9 85.5 24.6 85.65 24.5 85.7 M25.2 85.4 L25.7 85.15 26.1 84.95 M22.95 79.55 L22.9 80.75"/><path fill="none" stroke="#000000" stroke-width="0.5" stroke-opacity="0.301960784314" d="M26.0 83.3 L26.0 83.35"/><path stroke="none" fill="url(#gradient4)" d="M24.8 79.6 L25.0 79.85 Q26.65 82.55 25.6 84.75 25.25 85.4 25.05 85.05 25.15 82.4 23.75 80.0 23.85 79.35 24.8 79.6"/><path fill="#acd1d2" stroke="none" d="M21.15 71.2 L21.0 70.7 Q22.95 73.5 23.85 76.55 23.05 76.25 22.65 75.65 L22.1 74.45 20.85 72.05 18.6 69.6 18.3 69.25 18.1 68.9 Q18.15 68.75 18.35 68.75 19.65 69.5 19.95 70.05 19.7 70.3 21.25 72.35 22.05 73.5 22.3 73.4 L21.15 71.2 M22.2 74.25 L23.0 75.3 Q22.95 74.05 22.45 73.8 L22.2 74.25"/><path fill="#426c75" stroke="none" d="M21.0 70.7 L21.15 71.2 20.15 70.15 19.95 70.05 Q19.65 69.5 18.35 68.75 18.8 68.75 20.0 69.3 L21.0 70.7 M18.3 69.25 L18.6 69.6 20.85 72.05 22.1 74.45 22.2 75.1 22.3 76.1 Q21.95 74.5 21.25 73.0 20.55 71.85 19.35 70.85 L16.65 68.55 17.05 68.55 Q17.7 68.6 18.05 69.0 L18.3 69.25"/><path fill="#79acb3" stroke="none" d="M21.15 71.2 L22.3 73.4 Q22.05 73.5 21.25 72.35 19.7 70.3 19.95 70.05 L20.15 70.15 21.15 71.2 M22.2 74.25 L22.45 73.8 Q22.95 74.05 23.0 75.3 L22.2 74.25"/><path fill="#e9f2f3" stroke="none" d="M18.1 68.9 L18.3 69.25 18.05 69.0 Q17.7 68.6 17.05 68.55 L16.65 68.55 Q16.0 68.65 16.95 69.35 L15.2 68.6 19.75 68.25 Q20.2 68.3 21.1 69.6 L21.3 69.85 22.95 73.05 Q24.2 76.3 24.75 76.75 L24.15 76.7 Q22.45 72.3 20.95 70.35 L21.0 70.35 20.5 69.75 20.05 69.1 Q17.8 68.25 18.1 68.9"/><path fill="#ffffff" stroke="none" d="M18.35 68.75 Q18.15 68.75 18.1 68.9 17.8 68.25 20.05 69.1 L20.5 69.75 21.0 70.35 20.95 70.35 Q22.45 72.3 24.15 76.7 L23.85 76.55 Q22.95 73.5 21.0 70.7 L20.0 69.3 Q18.8 68.75 18.35 68.75"/><path fill="#62a3ac" stroke="none" d="M22.2 77.8 L22.25 77.8 22.2 77.85 22.2 77.8 M22.25 77.7 L21.95 75.75 Q21.6 73.9 20.45 72.4 19.4 70.85 16.95 69.35 16.0 68.65 16.65 68.55 L19.35 70.85 Q20.55 71.85 21.25 73.0 21.95 74.5 22.3 76.1 L22.25 77.7"/><path fill="#36283b" stroke="none" d="M25.95 76.7 Q25.85 76.25 26.05 76.1 L26.1 76.05 26.1 76.15 Q26.2 76.65 27.15 77.1 L26.15 76.9 25.95 76.7 M27.6 76.95 L27.5 77.6 26.2 77.55 25.65 77.4 24.85 77.55 24.8 77.55 24.4 77.75 23.1 78.3 22.75 78.45 21.65 78.8 20.35 78.85 20.0 78.65 19.4 77.8 Q20.2 78.6 20.95 78.5 21.95 78.65 22.8 78.1 L24.75 77.2 26.15 77.05 Q27.1 77.85 27.45 77.25 L27.6 76.95 M20.2 77.45 L20.4 77.55 Q20.9 78.1 20.35 78.1 L20.15 78.0 20.3 77.85 20.3 77.75 20.25 77.55 20.2 77.45 M26.2 77.55 L26.3 77.6 26.2 77.5 26.2 77.55"/><path fill="#604767" stroke="none" d="M19.4 77.8 Q19.15 77.1 20.2 77.45 L20.25 77.55 20.05 77.5 Q19.75 77.4 19.75 77.6 L19.8 77.7 19.9 77.65 20.15 77.85 20.3 77.85 20.15 78.0 20.35 78.1 20.5 78.2 21.55 78.2 22.0 78.1 22.2 77.8 22.2 77.85 22.25 77.8 22.25 77.7 22.3 76.1 22.2 75.1 22.6 75.9 Q22.9 76.35 23.45 76.6 L23.35 76.6 23.4 76.65 23.45 76.65 23.95 76.8 24.0 76.9 24.45 77.05 24.75 77.05 24.8 77.0 24.75 76.95 24.95 77.0 26.15 76.9 27.15 77.1 Q26.2 76.65 26.1 76.15 L26.55 76.25 26.65 76.5 27.05 76.8 27.15 76.75 27.15 76.7 27.2 76.65 27.45 77.25 Q27.1 77.85 26.15 77.05 L24.75 77.2 22.8 78.1 Q21.95 78.65 20.95 78.5 20.2 78.6 19.4 77.8 M26.2 77.55 L26.2 77.5 26.3 77.6 26.2 77.55 M22.95 76.5 L22.8 76.35 22.85 76.55 22.75 76.75 22.75 77.05 22.95 77.25 23.1 77.3 23.25 77.75 23.55 77.65 23.3 77.15 23.35 77.1 23.3 76.8 23.15 76.55 22.95 76.5 M22.75 77.3 L22.85 77.25 22.8 77.25 22.65 76.9 22.65 77.3 22.65 77.4 22.7 77.75 22.6 78.05 23.0 77.8 22.9 77.7 22.75 77.3 M24.5 77.2 L23.7 76.85 23.5 76.7 23.75 77.55 24.5 77.2"/><path fill="#e1dce7" stroke="none" d="M20.3 77.85 L20.15 77.85 19.9 77.65 19.8 77.7 19.75 77.6 Q19.75 77.4 20.05 77.5 L20.25 77.55 20.3 77.75 20.3 77.85 M26.55 76.25 Q26.55 76.1 26.7 76.1 L27.1 76.4 27.2 76.65 27.15 76.7 27.15 76.75 27.05 76.8 26.65 76.5 26.55 76.25 M24.75 76.95 L24.8 77.0 24.75 77.05 24.45 77.05 24.0 76.9 23.95 76.8 24.0 76.7 24.55 76.8 24.7 76.95 24.75 76.95"/><path fill="#c4b4cb" stroke="none" d="M22.1 74.45 L22.65 75.65 Q23.05 76.25 23.85 76.55 L24.15 76.7 24.75 76.75 25.9 76.8 25.95 76.7 26.15 76.9 24.95 77.0 24.75 76.95 24.7 76.95 24.55 76.8 24.0 76.7 23.95 76.8 23.45 76.65 23.4 76.65 23.35 76.6 23.45 76.6 Q22.9 76.35 22.6 75.9 L22.2 75.1 22.1 74.45 M26.1 76.05 Q26.35 75.85 27.0 76.05 27.5 76.4 27.6 76.95 L27.45 77.25 27.2 76.65 27.1 76.4 26.7 76.1 Q26.55 76.1 26.55 76.25 L26.1 76.15 26.1 76.05"/><path fill="#c2c105" stroke="none" d="M22.85 76.55 L22.8 76.35 22.95 76.5 23.15 76.8 23.3 77.15 23.55 77.65 23.25 77.75 23.1 77.3 22.85 76.55 M22.75 77.3 L22.9 77.7 23.0 77.8 22.6 78.05 22.7 77.75 22.65 77.4 22.75 77.3 M22.65 77.3 L22.65 76.9 22.8 77.25 22.65 77.3 M24.5 77.2 L23.75 77.55 23.5 76.7 23.7 76.85 24.5 77.2"/><path fill="#000000" stroke="none" d="M22.85 76.55 L23.1 77.3 22.95 77.25 22.75 77.05 22.75 76.75 22.85 76.55 M23.3 77.15 L23.15 76.8 22.95 76.5 23.15 76.55 23.3 76.8 23.35 77.1 23.3 77.15"/><path fill="none" stroke="#000000" stroke-width="0.5" stroke-opacity="0.301960784314" d="M22.1 74.45 L22.65 75.65 Q23.05 76.25 23.85 76.55 M16.95 69.35 L15.2 68.6 19.75 68.25 Q20.2 68.3 21.1 69.6 L21.3 69.85 22.95 73.05 Q24.2 76.3 24.75 76.75 L25.9 76.8 25.95 76.7 Q25.85 76.25 26.05 76.1 L26.1 76.05 Q26.35 75.85 27.0 76.05 27.5 76.4 27.6 76.95 L27.5 77.6 26.2 77.55 25.65 77.4 24.85 77.55 24.8 77.55 24.4 77.75 M23.1 78.3 L22.75 78.45 21.65 78.8 20.35 78.85 20.0 78.65 19.4 77.8 Q19.15 77.1 20.2 77.45 L20.4 77.55 Q20.9 78.1 20.35 78.1 L20.5 78.2 21.55 78.2 22.0 78.1 22.2 77.8 22.25 77.8 22.25 77.7 21.95 75.75 Q21.6 73.9 20.45 72.4 19.4 70.85 16.95 69.35 M24.15 76.7 L24.75 76.75 M22.3 76.1 L22.2 75.1 22.1 74.45 M26.2 77.55 L26.3 77.6 26.2 77.5 26.2 77.55 M24.15 76.7 L23.85 76.55 M22.25 77.8 L22.2 77.85 22.2 77.8 M22.3 76.1 L22.25 77.7"/><path fill="none" stroke="#ffffff" stroke-width="0.5" stroke-opacity="0.2" d="M18.6 69.6 L20.85 72.05 22.1 74.45"/></g><g id="c11"><g><use transform="matrix(1.0,0.0,0.0,1.0,6.3,53.35)" xlink:href="#c9"/></g><g><use transform="matrix(1.0,0.0,0.0,1.0,0.0,0.0)" xlink:href="#c10"/></g><g><use transform="matrix(0.141098022461,-0.0378112792969,0.111373901367,0.225646972656,27.2,74.05)" filter="url(#filter11)" xlink:href="#c6"/></g></g><filter id="filter11"><feColorMatrix in="SourceGraphic" type="matrix" values="1.0 0.0 0.0 0.0 0.0 0.0 1.0 0.0 0.0 0.0 0.0 0.0 1.0 0.0 0.0 0.0 0.0 0.0 0.23046875 0.0" result="cxform"/><feComposite operator="in" in2="SourceGraphic" result="color-xform"/></filter></defs><g><g><use transform="matrix(1.0,0.0,0.0,1.0,0.0,0.0)" xlink:href="#c1"/></g><g><use transform="matrix(1.15496826172,0.0,0.0,1.15496826172,-1.55,-56.9)" xlink:href="#c11"/></g></g></svg>