<?xml version='1.0' encoding='UTF-8'?>
<svg xmlns:xlink="http://www.w3.org/1999/xlink" xmlns="http://www.w3.org/2000/svg" version="1.1" width="60px" height="60px" viewBox="0.0 0.0 60.0 60.0"><defs><g id="c1"><path fill="#000000" fill-opacity="0.00392156862745" d="M0.0 0.0 L60.0 0.0 60.0 60.0 0.0 60.0 0.0 0.0"/></g><g id="c2"><path fill="none" stroke="#000000" stroke-width="1.0" stroke-opacity="0.301960784314" d="M0.7 12.25 Q-0.45 9.75 0.75 8.25 1.2 7.6 2.15 7.15 2.8 6.7 3.8 6.35 L17.5 1.95 30.2 7.0 41.35 31.7 Q42.95 35.15 40.2 36.7 39.5 37.3 38.3 37.65 L19.8 43.65 Q17.15 44.45 15.5 43.3 14.35 42.55 13.65 40.9 L0.7 12.25"/><path fill="#9d147b" stroke="none" d="M35.55 22.3 L31.5 13.2 29.75 9.2 16.95 4.25 5.5 7.85 Q1.65 9.1 3.35 12.8 L8.25 23.65 15.0 38.6 15.2 39.0 Q16.8 42.25 20.45 41.1 L37.2 35.7 Q41.1 34.5 39.35 30.75 L35.55 22.3 M2.15 7.15 Q2.8 6.7 3.8 6.35 L17.5 1.95 30.2 7.0 41.35 31.7 Q42.95 35.15 40.2 36.7 L38.9 37.25 23.2 42.3 20.4 43.2 19.1 43.5 17.3 43.4 Q15.3 42.9 14.2 40.5 L5.45 20.95 1.35 11.8 Q0.4 9.65 1.1 8.3 1.45 7.65 2.15 7.15"/><path fill="#c47fad" stroke="none" d="M31.5 13.2 L35.55 22.3 39.35 30.75 Q41.1 34.5 37.2 35.7 L20.45 41.1 Q16.8 42.25 15.2 39.0 L15.0 38.6 8.25 23.65 3.35 12.8 Q1.65 9.1 5.5 7.85 L16.95 4.25 29.75 9.2 31.5 13.2 M18.5 7.45 L9.1 10.55 9.55 11.6 Q9.8 12.8 9.15 13.6 8.4 14.45 7.1 14.4 L6.8 14.4 6.95 14.6 16.3 35.2 Q16.8 36.4 17.65 37.0 18.8 37.8 20.65 37.2 L34.0 32.9 33.7 32.1 Q33.45 30.9 34.1 30.1 34.75 29.3 35.95 29.35 L35.8 29.0 27.75 10.95 18.5 7.45"/><path fill="#630a4c" stroke="none" d="M0.75 8.25 Q1.2 7.6 2.15 7.15 1.45 7.65 1.1 8.3 L0.75 8.25 M23.3 42.5 L20.1 43.55 19.1 43.5 20.4 43.2 23.2 42.3 23.3 42.5 M15.5 43.3 Q14.35 42.55 13.65 40.9 L4.6 20.9 5.45 20.95 14.2 40.5 Q15.3 42.9 17.3 43.4 L15.5 43.3"/><path fill="#300525" stroke="none" d="M4.6 20.9 L0.7 12.25 Q-0.45 9.75 0.75 8.25 L1.1 8.3 Q0.4 9.65 1.35 11.8 L5.45 20.95 4.6 20.9 M40.2 36.7 Q39.5 37.3 38.3 37.65 L23.3 42.5 23.2 42.3 38.9 37.25 40.2 36.7 M20.1 43.55 L19.8 43.65 Q17.15 44.45 15.5 43.3 L17.3 43.4 19.1 43.5 20.1 43.55"/><path fill="#fcf2cf" stroke="none" d="M27.75 10.95 L35.8 29.0 35.95 29.35 Q34.75 29.3 34.1 30.1 33.45 30.9 33.7 32.1 L34.0 32.9 20.65 37.2 Q18.8 37.8 17.65 37.0 16.8 36.4 16.3 35.2 L6.95 14.6 6.8 14.4 7.1 14.4 Q8.4 14.45 9.15 13.6 9.8 12.8 9.55 11.6 L9.1 10.55 18.5 7.45 27.75 10.95"/><path fill="none" stroke="#bf9900" stroke-width="1.0" stroke-opacity="0.749019607843" d="M31.5 13.2 L35.55 22.3 M15.0 38.6 L8.25 23.65"/><path fill="none" stroke="#ffcc00" stroke-width="1.0" stroke-opacity="0.749019607843" d="M35.55 22.3 L39.35 30.75 Q41.1 34.5 37.2 35.7 L20.45 41.1 Q16.8 42.25 15.2 39.0 L15.0 38.6 M8.25 23.65 L3.35 12.8 Q1.65 9.1 5.5 7.85 L16.95 4.25 29.75 9.2 31.5 13.2"/><path fill="none" stroke="#000000" stroke-width="0.5" stroke-opacity="0.301960784314" d="M4.6 20.9 L0.7 12.25 Q-0.45 9.75 0.75 8.25 1.2 7.6 2.15 7.15 2.8 6.7 3.8 6.35 L17.5 1.95 M30.2 7.0 L41.35 31.7 Q42.95 35.15 40.2 36.7 39.5 37.3 38.3 37.65 L23.3 42.5 20.1 43.55 19.8 43.65 Q17.15 44.45 15.5 43.3 14.35 42.55 13.65 40.9 L4.6 20.9 M5.45 20.95 L1.35 11.8 Q0.4 9.65 1.1 8.3 1.45 7.65 2.15 7.15 M19.1 43.5 L17.3 43.4 Q15.3 42.9 14.2 40.5 L5.45 20.95 M23.2 42.3 L20.4 43.2 19.1 43.5 M40.2 36.7 L38.9 37.25 23.2 42.3"/><path fill="none" stroke="#f0b92b" stroke-width="0.5" d="M27.75 10.95 L35.8 29.0 35.95 29.35 Q34.75 29.3 34.1 30.1 33.45 30.9 33.7 32.1 L34.0 32.9 20.65 37.2 Q18.8 37.8 17.65 37.0 16.8 36.4 16.3 35.2 L6.95 14.6 6.8 14.4 7.1 14.4 Q8.4 14.45 9.15 13.6 9.8 12.8 9.55 11.6 L9.1 10.55 18.5 7.45"/><path fill="none" stroke="#ffcc00" stroke-width="0.5" stroke-opacity="0.749019607843" d="M18.5 7.45 L27.75 10.95"/></g><g id="c3"><path fill="#7fdbfe" stroke="none" d="M10.75 4.9 Q10.75 4.6 10.9 4.35 11.25 3.45 11.95 2.75 13.3 1.5 14.35 2.1 15.4 2.7 14.95 4.45 14.7 5.4 14.1 6.15 L13.75 6.5 Q13.1 7.15 12.35 7.35 L11.4 7.2 Q10.95 6.9 10.75 6.4 10.5 5.75 10.75 4.9 M7.5 5.9 Q7.0 5.85 6.6 5.5 6.05 5.0 5.8 4.15 L5.7 3.6 Q5.55 2.65 5.8 1.7 6.25 0.0 7.5 0.0 L7.6 0.0 Q8.85 0.0 9.3 1.7 9.55 2.65 9.4 3.6 L9.3 4.15 8.5 5.5 7.6 5.9 7.5 5.9 M4.35 4.9 Q4.6 5.75 4.35 6.4 L3.7 7.2 2.75 7.35 Q2.0 7.15 1.35 6.5 L1.0 6.15 Q0.4 5.4 0.15 4.45 -0.3 2.7 0.75 2.1 1.8 1.5 3.15 2.75 3.85 3.45 4.2 4.35 L4.35 4.9 M5.5 13.7 Q4.45 13.9 3.65 12.95 2.75 12.0 3.2 10.25 3.7 8.5 5.25 7.6 6.4 6.9 7.55 7.0 8.75 6.9 9.9 7.6 11.45 8.5 11.95 10.25 12.35 12.0 11.5 12.95 10.7 13.9 9.65 13.7 8.55 13.5 7.55 12.6 6.55 13.5 5.5 13.7"/></g><g id="c4"><g><use transform="matrix(1.0,0.0,0.0,1.0,0.0,0.0)" xlink:href="#c3"/></g></g><radialGradient gradientUnits="userSpaceOnUse" r="819.2" cx="0" cy="0" spreadMethod="pad" gradientTransform="matrix(0.0914459228516,0.0,0.0,0.0914459228516,0.6,3.4)" id="gradient1"><stop offset="0.0" stop-color="#ffffff"/><stop offset="1.0" stop-color="#ffffff" stop-opacity="0.0"/></radialGradient><g id="c5"><path stroke="none" fill="url(#gradient1)" d="M36.65 -54.65 Q60.05 -42.0 69.75 -17.95 80.55 8.9 68.0 34.1 55.45 59.35 26.8 68.2 -1.8 77.05 -29.7 64.3 -57.6 51.6 -68.45 24.75 -79.3 -2.05 -66.75 -27.25 L-66.7 -27.3 Q-54.1 -52.5 -25.5 -61.4 3.1 -70.2 31.0 -57.5 L36.65 -54.65"/></g><g id="c6"><g><use transform="matrix(1.0,0.0,0.0,1.0,0.0,0.0)" xlink:href="#c5"/></g></g><radialGradient gradientUnits="userSpaceOnUse" r="819.2" cx="0" cy="0" spreadMethod="pad" gradientTransform="matrix(0.209197998047,0.0,0.0,0.177108764648,67.15,107.2)" id="gradient2"><stop offset="0.356862745098" stop-color="#ffffff"/><stop offset="0.670588235294" stop-opacity="0.0"/></radialGradient><g id="c7"><path fill="none" stroke-linejoin="round" stroke-linecap="round" stroke="url(#gradient2)" stroke-width="0.5" d="M136.55 165.8 L68.6 106.0 68.4 106.0 118.25 201.5 M68.3 105.8 L68.35 105.8 68.3 105.8 68.3 105.85 68.4 106.0 68.3 106.0 86.55 211.5 M68.3 105.8 L68.3 105.85 68.3 106.0 68.15 105.95 18.25 151.55 M68.3 105.85 L68.25 105.85 68.3 106.0 50.0 193.2 M68.25 105.85 L68.15 105.95 0.05 97.7 M68.3 105.85 L68.25 105.8 68.25 105.85 M68.25 105.8 L68.2 105.7 0.0 45.7 M68.3 105.8 L68.25 105.75 68.25 105.8 M68.25 105.75 L68.2 105.7 18.25 10.05 M68.6 106.0 L68.35 105.8 118.25 60.15 M86.6 18.35 L68.3 105.8 M136.6 114.25 L68.6 106.0 M68.25 105.75 L49.95 0.05"/></g><g id="c8"><g><use transform="matrix(1.0,0.0,0.0,1.0,0.0,0.0)" xlink:href="#c7"/></g></g><g id="c9"><g><use transform="matrix(1.0,0.0,0.0,1.0,0.0,0.0)" xlink:href="#c2"/></g><g><use transform="matrix(0.238861083984,-0.0867004394531,0.10026550293,0.233917236328,34.25,31.15)" xlink:href="#c4"/></g><g><use transform="matrix(0.238861083984,-0.0867004394531,0.10026550293,0.233917236328,4.25,10.3)" xlink:href="#c4"/></g><g><use transform="matrix(0.141098022461,-0.0378112792969,0.111373901367,0.225646972656,20.25,20.65)" filter="url(#filter7)" xlink:href="#c6"/></g><g><use transform="matrix(-0.155029296875,0.0513153076172,0.0841827392578,0.147033691406,22.6,3.15)" filter="url(#filter8)" xlink:href="#c8"/></g></g><filter id="filter7"><feColorMatrix in="SourceGraphic" type="matrix" values="0.0 0.0 0.0 0.0 0.796875 0.0 0.0 0.0 0.0 0.59765625 0.0 0.0 0.0 0.0 0.19921875 0.0 0.0 0.0 1.0 0.0" result="cxform"/><feComposite operator="in" in2="SourceGraphic" result="color-xform"/></filter><filter id="filter8"><feColorMatrix in="SourceGraphic" type="matrix" values="0.0 0.0 0.0 0.0 0.99609375 0.0 0.0 0.0 0.0 0.99609375 0.0 0.0 0.0 0.0 0.99609375 0.0 0.0 0.0 1.0 0.0" result="cxform"/><feComposite operator="in" in2="SourceGraphic" result="color-xform"/></filter><g id="c10"><path fill="#532013" stroke="none" d="M24.75 71.5 L24.7 71.5 24.55 71.6 24.3 71.95 24.2 72.35 24.25 72.6 24.35 72.65 24.4 72.65 24.2 73.3 24.15 73.3 24.05 73.25 23.95 72.65 24.2 71.85 24.6 71.15 24.9 70.95 24.75 71.5"/><path fill="#000000" stroke="none" d="M24.4 72.65 L24.35 72.65 24.25 72.6 24.2 72.35 24.3 71.95 24.55 71.6 24.7 71.5 24.75 71.5 24.4 72.65"/><path fill="none" stroke="#000000" stroke-width="0.5" stroke-opacity="0.329411764706" d="M24.9 70.95 L24.6 71.15 24.2 71.85 23.95 72.65 24.05 73.25 24.15 73.3"/><path fill="#482e1e" stroke="none" d="M36.1 84.7 L36.05 84.7 36.05 84.2 36.55 83.35 37.25 82.75 37.8 82.6 37.85 82.7 37.75 83.15 37.25 83.95 36.55 84.6 36.5 84.6 36.55 84.6 37.25 83.95 37.75 83.15 37.85 82.7 39.0 83.7 39.15 83.8 39.05 84.25 38.55 85.05 37.85 85.7 37.35 85.8 37.3 85.7 37.25 85.65 37.9 85.5 38.45 84.95 38.85 84.35 38.9 83.95 37.85 83.1 37.9 83.15 37.8 83.45 37.4 84.05 36.85 84.6 36.5 84.6 36.1 84.7 M36.45 84.2 L36.65 84.15 37.05 83.8 37.3 83.4 37.35 83.2 37.35 83.15 37.1 83.2 36.75 83.5 36.45 83.95 36.45 84.2"/><path fill="#674329" stroke="none" d="M36.1 84.7 L36.5 84.6 36.85 84.6 37.4 84.05 37.8 83.45 37.9 83.15 37.85 83.1 38.9 83.95 38.85 84.35 38.45 84.95 37.9 85.5 37.25 85.65 36.1 84.7"/><path fill="#000000" stroke="none" d="M36.45 84.2 L36.45 83.95 36.75 83.5 37.1 83.2 37.35 83.15 37.35 83.2 37.3 83.4 37.05 83.8 36.65 84.15 36.45 84.2"/><path fill="none" stroke="#000000" stroke-width="0.5" stroke-opacity="0.329411764706" d="M37.85 82.7 L37.8 82.6 37.25 82.75 36.55 83.35 36.05 84.2 36.05 84.7 36.1 84.7 36.5 84.6 36.55 84.6 37.25 83.95 37.75 83.15 37.85 82.7 39.0 83.7 39.1 83.7 39.15 83.8 39.05 84.25 38.55 85.05 37.85 85.7 37.35 85.8 M37.3 85.7 L37.25 85.65 36.1 84.7 M39.15 83.8 L39.0 83.7"/><path fill="#4a2f1d" stroke="none" d="M36.95 83.5 L36.65 83.8 36.15 83.3 36.4 82.95 36.2 82.15 37.0 83.05 36.95 83.45 36.95 83.5 M35.6 82.8 L35.35 82.6 35.55 82.2 35.45 81.4 35.9 81.95 35.75 82.35 35.6 82.8 M26.75 73.45 L27.2 73.95 27.1 74.25 26.9 74.85 26.75 74.7 26.95 74.05 26.75 73.45 M27.65 74.2 L27.95 74.6 27.9 74.9 27.65 75.45 27.55 75.35 27.7 74.75 27.65 74.2 M28.3 74.75 L28.65 75.25 28.55 75.65 28.35 76.05 28.25 75.95 28.45 75.5 28.3 74.75 M29.0 75.4 L29.4 75.95 29.25 76.45 29.05 76.75 28.9 76.65 29.1 76.3 29.0 75.4 M29.75 76.1 L30.1 76.6 29.95 77.2 29.75 77.45 29.65 77.3 29.75 77.05 29.75 76.1 M30.45 76.8 L30.8 77.25 30.65 77.9 30.55 78.05 30.5 78.15 30.45 78.05 30.55 77.8 Q30.75 77.3 30.45 76.8 M31.0 77.4 L31.55 77.95 31.35 78.55 31.25 78.75 31.05 78.65 31.2 78.4 Q31.4 77.9 31.0 77.4 M31.85 78.15 L32.25 78.7 32.1 79.15 31.95 79.4 31.85 79.3 31.95 79.05 Q32.1 78.7 31.85 78.15 M32.5 78.75 L32.95 79.25 32.85 79.75 32.7 80.15 32.55 80.0 32.7 79.65 32.5 78.75 M33.15 79.35 L33.7 79.95 33.65 80.4 33.4 80.8 33.2 80.65 33.5 80.3 Q33.65 79.85 33.15 79.35 M34.0 80.1 L34.4 80.65 34.35 81.05 34.15 81.45 34.0 81.35 34.15 80.9 34.0 80.1 M34.8 80.8 L35.2 81.3 35.05 81.7 34.9 82.15 34.75 82.0 34.9 81.55 34.8 80.8 M26.5 73.25 L26.4 73.6 26.15 74.15 26.05 74.0 26.2 73.35 26.05 72.7 26.5 73.25 M24.55 71.3 Q24.95 71.45 25.0 71.9 L25.0 72.0 24.7 72.75 24.55 72.65 24.7 71.85 24.55 71.3 M25.4 72.05 L25.75 72.6 25.7 72.75 25.45 73.4 25.35 73.25 25.55 72.5 25.4 72.05"/><path fill="#674329" stroke="none" d="M36.2 82.15 L36.4 82.95 36.15 83.3 35.6 82.8 35.75 82.35 35.9 81.95 36.2 82.15 M35.35 82.6 L34.9 82.15 35.05 81.7 35.2 81.3 35.45 81.4 35.55 82.2 35.35 82.6 M26.5 73.25 L26.75 73.45 26.95 74.05 26.75 74.7 26.15 74.15 26.4 73.6 26.5 73.25 M27.2 73.95 L27.65 74.2 27.7 74.75 27.55 75.35 26.9 74.85 27.1 74.25 27.2 73.95 M27.95 74.6 L28.3 74.75 28.45 75.5 28.25 75.95 27.65 75.45 27.9 74.9 27.95 74.6 M28.65 75.25 L29.0 75.4 29.1 76.3 28.9 76.65 28.35 76.05 28.55 75.65 28.65 75.25 M29.4 75.95 L29.75 76.1 29.75 77.05 29.65 77.3 29.05 76.75 29.25 76.45 29.4 75.95 M30.1 76.6 L30.45 76.8 Q30.75 77.3 30.55 77.8 L30.45 78.05 29.75 77.45 29.95 77.2 30.1 76.6 M30.8 77.25 L31.0 77.4 Q31.4 77.9 31.2 78.4 L31.05 78.65 30.55 78.15 30.5 78.15 30.55 78.05 30.65 77.9 30.8 77.25 M31.55 77.95 L31.85 78.15 Q32.1 78.7 31.95 79.05 L31.85 79.3 31.25 78.75 31.35 78.55 31.55 77.95 M32.25 78.7 L32.5 78.75 32.7 79.65 32.55 80.0 31.95 79.4 32.1 79.15 32.25 78.7 M32.95 79.25 L33.15 79.35 Q33.65 79.85 33.5 80.3 L33.2 80.65 32.7 80.15 32.85 79.75 32.95 79.25 M33.7 79.95 L34.0 80.1 34.15 80.9 34.0 81.35 33.4 80.8 33.65 80.4 33.7 79.95 M34.4 80.65 Q34.6 80.65 34.8 80.8 L34.9 81.55 34.75 82.0 34.15 81.45 34.35 81.05 34.4 80.65 M23.6 71.8 L23.75 71.7 23.8 71.55 24.0 71.0 24.3 71.2 24.5 71.25 24.55 71.3 24.7 71.85 24.55 72.65 24.05 72.1 24.3 71.35 24.3 71.2 24.3 71.35 24.05 72.1 23.6 71.8 M25.0 71.9 L25.4 72.05 25.55 72.5 25.35 73.25 24.7 72.75 25.0 72.0 25.0 71.9 M25.75 72.6 L25.95 72.7 26.05 72.7 26.2 73.35 26.05 74.0 25.45 73.4 25.7 72.75 25.75 72.6 M23.55 70.75 L23.6 70.75 23.75 70.8 23.8 70.8 23.75 70.8 23.75 70.95 23.5 71.45 23.45 71.55 23.45 71.6 23.25 71.45 23.2 71.35 23.25 71.35 23.4 71.0 23.55 70.75 M23.6 70.75 L23.25 71.45 23.6 70.75"/><path fill="#000000" stroke="none" d="M36.15 83.3 L36.65 83.8 36.95 83.5 36.45 84.2 34.7 82.55 34.9 82.15 34.7 82.55 23.4 72.15 23.6 71.8 24.05 72.1 24.55 72.65 24.7 72.75 25.35 73.25 25.45 73.4 26.05 74.0 26.15 74.15 26.75 74.7 26.9 74.85 27.55 75.35 27.65 75.45 28.25 75.95 28.35 76.05 28.9 76.65 29.05 76.75 29.65 77.3 29.75 77.45 30.45 78.05 30.5 78.15 30.55 78.15 31.05 78.65 31.25 78.75 31.85 79.3 31.95 79.4 32.55 80.0 32.7 80.15 33.2 80.65 33.4 80.8 34.0 81.35 34.15 81.45 34.75 82.0 34.9 82.15 35.35 82.6 35.6 82.8 36.15 83.3 M23.45 71.6 L23.2 71.95 22.9 71.65 22.95 71.5 23.15 71.15 23.35 70.6 23.35 70.5 23.55 70.6 23.55 70.75 23.4 71.0 23.25 71.35 23.2 71.35 23.25 71.45 23.45 71.6"/><path fill="none" stroke="#000000" stroke-width="0.5" stroke-opacity="0.329411764706" d="M36.95 83.5 L36.95 83.45 37.0 83.05 36.2 82.15 M34.9 82.15 L34.7 82.55 M26.5 73.25 L26.75 73.45 27.2 73.95 27.65 74.2 27.95 74.6 M28.3 74.75 L28.65 75.25 29.0 75.4 29.4 75.95 29.75 76.1 30.1 76.6 30.45 76.8 30.8 77.25 31.0 77.4 31.55 77.95 31.85 78.15 32.25 78.7 M33.15 79.35 L33.7 79.95 34.0 80.1 34.4 80.65 Q34.6 80.65 34.8 80.8 L35.2 81.3 35.45 81.4 35.9 81.95 36.2 82.15 M27.65 75.45 L27.9 74.9 27.95 74.6 M26.9 74.85 L27.1 74.25 27.2 73.95 M28.35 76.05 L28.55 75.65 28.65 75.25 M29.05 76.75 L29.25 76.45 29.4 75.95 M26.5 73.25 L26.4 73.6 26.15 74.15 M25.0 71.9 L25.4 72.05 25.75 72.6 25.95 72.7 26.05 72.7 26.5 73.25 M24.3 71.2 L24.3 71.35 24.05 72.1 M24.7 72.75 L25.0 72.0 25.0 71.9 M25.45 73.4 L25.7 72.75 25.75 72.6 M23.25 71.45 L23.6 70.75 M31.25 78.75 L31.35 78.55 31.55 77.95 M31.95 79.4 L32.1 79.15 32.25 78.7 M32.7 80.15 L32.85 79.75 32.95 79.25 M33.4 80.8 L33.65 80.4 33.7 79.95 M34.9 82.15 L35.05 81.7 35.2 81.3 M34.15 81.45 L34.35 81.05 34.4 80.65 M35.6 82.8 L35.75 82.35 35.9 81.95 M30.5 78.15 L30.55 78.05 30.65 77.9 30.8 77.25 M29.75 77.45 L29.95 77.2 30.1 76.6"/><path fill="#996b0f" stroke="none" d="M24.0 72.05 L23.9 72.15 23.6 72.4 23.45 72.5 23.3 72.6 22.95 72.65 Q22.7 72.55 23.1 72.2 L23.15 72.2 23.5 72.25 23.65 72.2 23.85 72.15 24.0 72.05"/><path fill="#ad7910" stroke="none" d="M24.0 72.05 L23.85 72.15 23.65 72.2 23.5 72.25 23.15 72.2 23.25 72.2 23.3 72.15 23.4 72.1 23.6 71.85 23.65 71.8 24.15 71.5 24.25 71.35 24.4 71.25 24.35 71.45 24.1 71.95 24.0 72.05"/><path fill="#cc951a" stroke="none" d="M23.65 71.8 L23.7 71.75 23.95 71.3 24.0 71.15 24.0 71.1 24.2 70.8 24.4 70.8 24.45 71.15 24.4 71.25 24.25 71.35 24.15 71.5 23.65 71.8"/><path fill="#bd8812" stroke="none" d="M24.4 70.8 L24.2 70.8 24.0 71.1 24.0 71.15 23.65 71.0 23.7 70.85 23.75 70.8 24.3 70.7 24.35 70.75 24.4 70.8"/><path fill="none" stroke="#21150b" stroke-width="0.5" stroke-opacity="0.43137254902" d="M23.3 72.6 L23.45 72.5 23.6 72.4 23.9 72.15 24.0 72.05 24.1 71.95 24.35 71.45 24.4 71.25 24.45 71.15 24.4 70.8 24.35 70.75 24.3 70.7 23.75 70.8 23.7 70.85 23.65 71.0 24.0 71.15 23.95 71.3 23.7 71.75 23.65 71.8 23.6 71.85 23.4 72.1 23.3 72.15 23.25 72.2 23.15 72.2"/><path fill="none" stroke="#21140a" stroke-width="0.5" stroke-opacity="0.211764705882" d="M24.0 72.05 L23.85 72.15 23.65 72.2 23.5 72.25 23.15 72.2 M23.65 71.8 L24.15 71.5 24.25 71.35 24.4 71.25 M24.4 70.8 L24.2 70.8 24.0 71.1 24.0 71.15"/><path fill="#482e1e" stroke="none" d="M21.45 71.4 L21.35 71.35 Q21.2 71.25 21.35 70.85 L21.85 69.95 22.55 69.15 Q22.95 68.8 23.1 68.9 L23.1 69.0 23.0 69.45 22.5 70.4 21.8 71.15 21.8 71.2 21.8 71.15 22.5 70.4 23.0 69.45 23.1 69.0 24.2 69.8 24.35 69.9 24.25 70.35 23.75 71.25 23.05 72.05 22.6 72.25 22.6 72.2 22.5 72.15 23.1 71.9 23.65 71.25 24.05 70.5 24.1 70.15 23.1 69.45 23.15 69.45 23.05 69.8 22.65 70.55 22.1 71.2 21.8 71.2 21.45 71.4 M21.75 70.8 L21.95 70.75 22.35 70.3 22.6 69.85 22.6 69.6 22.6 69.55 22.35 69.65 22.0 70.1 21.7 70.55 21.7 70.8 21.75 70.8"/><path fill="#674329" stroke="none" d="M21.45 71.4 L21.8 71.2 22.1 71.2 22.65 70.55 23.05 69.8 23.15 69.45 23.1 69.45 24.1 70.15 24.05 70.5 23.65 71.25 23.1 71.9 22.5 72.15 21.45 71.4"/><path fill="#000000" stroke="none" d="M21.7 70.8 L21.7 70.55 22.0 70.1 22.35 69.65 22.6 69.55 22.6 69.6 22.6 69.85 22.35 70.3 21.95 70.75 21.75 70.8 21.7 70.8"/><path fill="none" stroke="#000000" stroke-width="0.5" stroke-opacity="0.329411764706" d="M23.1 69.0 L23.1 68.9 Q22.95 68.8 22.55 69.15 L21.85 69.95 21.35 70.85 Q21.2 71.25 21.35 71.35 L21.45 71.4 21.8 71.2 21.8 71.15 22.5 70.4 23.0 69.45 23.1 69.0 24.2 69.8 24.35 69.8 24.35 69.9 24.25 70.35 23.75 71.25 23.05 72.05 22.6 72.25 M22.6 72.2 L22.5 72.15 21.45 71.4 M21.75 70.8 L21.7 70.8 M24.35 69.9 L24.2 69.8"/><path fill="#532013" stroke="none" d="M24.35 72.8 L24.15 73.4 24.4 73.2 24.8 72.55 25.0 71.7 25.05 71.65 25.0 71.7 24.8 72.55 24.4 73.2 24.15 73.4 25.15 74.45 25.25 74.5 25.5 74.35 25.9 73.7 26.1 72.85 26.05 72.35 26.0 72.3 25.95 72.2 26.0 72.9 25.8 73.6 25.5 74.1 25.25 74.2 24.4 73.35 24.6 73.2 24.9 72.7 25.15 72.0 25.05 71.65 25.0 71.25 24.95 71.2 24.9 71.15 24.75 71.7 24.75 72.0 24.65 72.4 24.45 72.7 24.35 72.8"/><path fill="#000000" stroke="none" d="M24.35 72.8 L24.45 72.7 24.65 72.4 24.75 72.0 24.75 71.7 24.35 72.8"/><path fill="#762d1b" stroke="none" d="M25.0 71.25 L25.05 71.65 25.15 72.0 24.9 72.7 24.6 73.2 24.4 73.35 25.25 74.2 25.5 74.1 25.8 73.6 26.0 72.9 25.95 72.2 25.0 71.25"/><path fill="none" stroke="#000000" stroke-width="0.5" stroke-opacity="0.329411764706" d="M24.9 71.15 L24.95 71.2 25.0 71.25 25.05 71.65 25.0 71.7 24.8 72.55 24.4 73.2 24.15 73.4 25.15 74.45 25.25 74.5 25.5 74.35 25.9 73.7 26.1 72.85 26.05 72.35 M26.0 72.3 L25.95 72.2 25.0 71.25"/><path fill="#f2ebc1" stroke="none" d="M22.0 69.05 L18.95 66.5 16.9 64.75 16.8 64.65 18.9 66.1 18.95 66.5 19.05 66.25 20.85 67.45 21.05 67.8 21.15 67.6 21.75 68.0 22.0 69.05"/><path fill="#b9ac79" stroke="none" d="M22.1 69.75 L21.75 70.35 21.55 70.1 22.0 69.05 22.1 69.65 22.1 69.75 M18.95 68.3 L18.95 68.2 19.2 67.75 19.0 68.45 18.9 68.5 18.95 68.3"/><path fill="#9b8c53" stroke="none" d="M22.0 69.05 L21.55 70.1 21.75 70.35 22.1 69.75 Q22.2 70.5 21.75 70.5 L21.4 70.2 22.0 69.05"/><path fill="#e6e0b8" stroke="none" d="M16.9 64.75 L18.95 66.5 22.0 69.05 21.4 70.2 20.85 71.45 20.8 71.45 20.8 71.4 19.05 68.55 19.0 68.45 19.2 67.75 18.95 68.2 18.95 68.3 16.9 64.75"/><path fill="#c9c196" stroke="none" d="M16.9 64.75 L18.95 68.3 18.9 68.5 19.0 68.45 19.05 68.55 20.8 71.4 20.0 70.7 18.9 68.5 16.9 64.75"/><path fill="none" stroke="#000000" stroke-width="0.5" stroke-opacity="0.329411764706" d="M22.1 69.75 L22.1 69.65 22.0 69.05 21.75 68.0 21.15 67.6 21.05 67.8 20.85 67.45 19.05 66.25 18.95 66.5 M18.95 68.3 L18.95 68.2 19.2 67.75 19.0 68.45 19.05 68.55 M20.8 71.4 L20.8 71.45 20.85 71.45 21.4 70.2 22.0 69.05 M16.9 64.75 L16.8 64.65 18.9 66.1 18.95 66.5 M18.9 68.5 L16.9 64.75 M18.9 68.5 L18.95 68.3 M18.9 68.5 L19.0 68.45 M20.8 71.4 L20.0 70.7 18.9 68.5 M22.1 69.75 Q22.2 70.5 21.75 70.5 L21.4 70.2"/><path fill="none" stroke="#ffffff" stroke-width="0.5" d="M22.0 69.05 L18.95 66.5 16.9 64.75"/></g><g id="c11"><g><use transform="matrix(1.0,0.0,0.0,1.0,6.3,53.35)" xlink:href="#c9"/></g><g><use transform="matrix(1.0,0.0,0.0,1.0,0.0,0.0)" xlink:href="#c10"/></g><g><use transform="matrix(0.141098022461,-0.0378112792969,0.111373901367,0.225646972656,27.2,74.05)" filter="url(#filter11)" xlink:href="#c6"/></g></g><filter id="filter11"><feColorMatrix in="SourceGraphic" type="matrix" values="1.0 0.0 0.0 0.0 0.0 0.0 1.0 0.0 0.0 0.0 0.0 0.0 1.0 0.0 0.0 0.0 0.0 0.0 0.23046875 0.0" result="cxform"/><feComposite operator="in" in2="SourceGraphic" result="color-xform"/></filter></defs><g><g><use transform="matrix(1.0,0.0,0.0,1.0,0.0,0.0)" xlink:href="#c1"/></g><g><use transform="matrix(1.15496826172,0.0,0.0,1.15496826172,-1.55,-56.9)" xlink:href="#c11"/></g></g></svg>