<?xml version='1.0' encoding='UTF-8'?>
<svg xmlns:xlink="http://www.w3.org/1999/xlink" xmlns="http://www.w3.org/2000/svg" version="1.1" width="60px" height="60px" viewBox="0.0 0.0 60.0 60.0"><defs><g id="c1"><path fill="#000000" fill-opacity="0.00392156862745" d="M0.0 0.0 L60.0 0.0 60.0 60.0 0.0 60.0 0.0 0.0"/></g><g id="c2"><path fill="none" stroke="#000000" stroke-width="1.0" stroke-opacity="0.301960784314" d="M0.7 12.25 Q-0.45 9.75 0.75 8.25 1.2 7.6 2.15 7.15 2.8 6.7 3.8 6.35 L17.5 1.95 30.2 7.0 41.35 31.7 Q42.95 35.15 40.2 36.7 39.5 37.3 38.3 37.65 L25.5 41.8 25.45 41.75 24.55 42.0 11.85 37.0 0.7 12.25"/><path fill="#9d147b" stroke="none" d="M35.55 22.3 L31.5 13.2 29.75 9.2 16.95 4.25 5.5 7.85 Q1.65 9.1 3.35 12.8 L8.25 23.65 13.1 34.35 25.8 39.4 37.2 35.7 Q41.1 34.5 39.35 30.75 L35.55 22.3 M5.45 20.95 L1.35 11.8 Q0.4 9.65 1.1 8.3 1.45 7.65 2.15 7.15 2.8 6.7 3.8 6.35 L17.5 1.95 30.2 7.0 41.35 31.7 Q42.95 35.15 40.2 36.7 L38.9 37.25 25.2 41.65 12.5 36.65 5.45 20.95"/><path fill="#c47fad" stroke="none" d="M31.5 13.2 L35.55 22.3 39.35 30.75 Q41.1 34.5 37.2 35.7 L25.8 39.4 13.1 34.35 8.25 23.65 3.35 12.8 Q1.65 9.1 5.5 7.85 L16.95 4.25 29.75 9.2 31.5 13.2 M18.5 7.45 L9.1 10.55 9.55 11.6 Q9.8 12.8 9.15 13.6 8.4 14.45 7.1 14.4 L6.8 14.4 6.95 14.6 15.2 32.75 23.85 36.2 34.0 32.9 33.7 32.1 Q33.45 30.9 34.1 30.1 34.75 29.3 35.95 29.35 L35.8 29.0 27.75 10.95 18.5 7.45"/><path fill="#fcf2cf" stroke="none" d="M27.75 10.95 L35.8 29.0 35.95 29.35 Q34.75 29.3 34.1 30.1 33.45 30.9 33.7 32.1 L34.0 32.9 23.85 36.2 15.2 32.75 6.95 14.6 6.8 14.4 7.1 14.4 Q8.4 14.45 9.15 13.6 9.8 12.8 9.55 11.6 L9.1 10.55 18.5 7.45 27.75 10.95"/><path fill="#630a4c" stroke="none" d="M1.1 8.3 L0.75 8.25 Q1.2 7.6 2.15 7.15 1.45 7.65 1.1 8.3 M4.6 20.9 L5.45 20.95 12.5 36.65 11.55 36.25 11.25 35.55 4.6 20.9"/><path fill="#300525" stroke="none" d="M1.1 8.3 Q0.4 9.65 1.35 11.8 L5.45 20.95 4.6 20.9 0.7 12.25 Q-0.45 9.75 0.75 8.25 L1.1 8.3 M12.5 36.65 L25.2 41.65 38.9 37.25 40.2 36.7 Q39.5 37.3 38.3 37.65 L25.5 41.8 25.45 41.75 24.55 42.0 11.85 37.0 11.55 36.25 12.5 36.65"/><path fill="none" stroke="#bf9900" stroke-width="1.0" stroke-opacity="0.749019607843" d="M31.5 13.2 L35.55 22.3 M13.1 34.35 L8.25 23.65"/><path fill="none" stroke="#ffcc00" stroke-width="1.0" stroke-opacity="0.749019607843" d="M35.55 22.3 L39.35 30.75 Q41.1 34.5 37.2 35.7 L25.8 39.4 M8.25 23.65 L3.35 12.8 Q1.65 9.1 5.5 7.85 L16.95 4.25 29.75 9.2 31.5 13.2"/><path fill="none" stroke="#f0b92b" stroke-width="0.5" d="M27.75 10.95 L35.8 29.0 35.95 29.35 Q34.75 29.3 34.1 30.1 33.45 30.9 33.7 32.1 L34.0 32.9 23.85 36.2 15.2 32.75 6.95 14.6 6.8 14.4 7.1 14.4 Q8.4 14.45 9.15 13.6 9.8 12.8 9.55 11.6 L9.1 10.55 18.5 7.45"/><path fill="none" stroke="#000000" stroke-width="0.5" stroke-opacity="0.301960784314" d="M5.45 20.95 L1.35 11.8 Q0.4 9.65 1.1 8.3 M0.75 8.25 Q-0.45 9.75 0.7 12.25 L4.6 20.9 M5.45 20.95 L12.5 36.65 M25.2 41.65 L38.9 37.25 40.2 36.7 Q42.95 35.15 41.35 31.7 L30.2 7.0 M17.5 1.95 L3.8 6.35 Q2.8 6.7 2.15 7.15 1.45 7.65 1.1 8.3 M0.75 8.25 Q1.2 7.6 2.15 7.15 M11.25 35.55 L4.6 20.9 M25.5 41.8 L38.3 37.65 Q39.5 37.3 40.2 36.7"/><path fill="none" stroke="#ffcc00" stroke-width="0.5" stroke-opacity="0.749019607843" d="M18.5 7.45 L27.75 10.95"/><path fill="none" stroke="#f0b92b" stroke-width="1.0" stroke-opacity="0.749019607843" d="M25.8 39.4 L13.1 34.35"/><path fill="none" stroke="#432f2f" stroke-width="0.5" d="M12.5 36.65 L25.2 41.65"/></g><g id="c3"><path fill="#7fdbfe" stroke="none" d="M10.75 4.9 Q10.75 4.6 10.9 4.35 11.25 3.45 11.95 2.75 13.3 1.5 14.35 2.1 15.4 2.7 14.95 4.45 14.7 5.4 14.1 6.15 L13.75 6.5 Q13.1 7.15 12.35 7.35 L11.4 7.2 Q10.95 6.9 10.75 6.4 10.5 5.75 10.75 4.9 M7.5 5.9 Q7.0 5.85 6.6 5.5 6.05 5.0 5.8 4.15 L5.7 3.6 Q5.55 2.65 5.8 1.7 6.25 0.0 7.5 0.0 L7.6 0.0 Q8.85 0.0 9.3 1.7 9.55 2.65 9.4 3.6 L9.3 4.15 8.5 5.5 7.6 5.9 7.5 5.9 M4.35 4.9 Q4.6 5.75 4.35 6.4 L3.7 7.2 2.75 7.35 Q2.0 7.15 1.35 6.5 L1.0 6.15 Q0.4 5.4 0.15 4.45 -0.3 2.7 0.75 2.1 1.8 1.5 3.15 2.75 3.85 3.45 4.2 4.35 L4.35 4.9 M5.5 13.7 Q4.45 13.9 3.65 12.95 2.75 12.0 3.2 10.25 3.7 8.5 5.25 7.6 6.4 6.9 7.55 7.0 8.75 6.9 9.9 7.6 11.45 8.5 11.95 10.25 12.35 12.0 11.5 12.95 10.7 13.9 9.65 13.7 8.55 13.5 7.55 12.6 6.55 13.5 5.5 13.7"/></g><g id="c4"><g><use transform="matrix(1.0,0.0,0.0,1.0,0.0,0.0)" xlink:href="#c3"/></g></g><radialGradient gradientUnits="userSpaceOnUse" r="819.2" cx="0" cy="0" spreadMethod="pad" gradientTransform="matrix(0.0914459228516,0.0,0.0,0.0914459228516,0.6,3.4)" id="gradient1"><stop offset="0.0" stop-color="#ffffff"/><stop offset="1.0" stop-color="#ffffff" stop-opacity="0.0"/></radialGradient><g id="c5"><path stroke="none" fill="url(#gradient1)" d="M36.65 -54.65 Q60.05 -42.0 69.75 -17.95 80.55 8.9 68.0 34.1 55.45 59.35 26.8 68.2 -1.8 77.05 -29.7 64.3 -57.6 51.6 -68.45 24.75 -79.3 -2.05 -66.75 -27.25 L-66.7 -27.3 Q-54.1 -52.5 -25.5 -61.4 3.1 -70.2 31.0 -57.5 L36.65 -54.65"/></g><g id="c6"><g><use transform="matrix(1.0,0.0,0.0,1.0,0.0,0.0)" xlink:href="#c5"/></g></g><radialGradient gradientUnits="userSpaceOnUse" r="819.2" cx="0" cy="0" spreadMethod="pad" gradientTransform="matrix(0.209197998047,0.0,0.0,0.177108764648,67.15,107.2)" id="gradient2"><stop offset="0.356862745098" stop-color="#ffffff"/><stop offset="0.670588235294" stop-opacity="0.0"/></radialGradient><g id="c7"><path fill="none" stroke-linejoin="round" stroke-linecap="round" stroke="url(#gradient2)" stroke-width="0.5" d="M136.55 165.8 L68.6 106.0 68.4 106.0 118.25 201.5 M68.3 105.8 L68.35 105.8 68.3 105.8 68.3 105.85 68.4 106.0 68.3 106.0 86.55 211.5 M68.3 105.8 L68.3 105.85 68.3 106.0 68.15 105.95 18.25 151.55 M68.3 105.85 L68.25 105.85 68.3 106.0 50.0 193.2 M68.25 105.85 L68.15 105.95 0.05 97.7 M68.3 105.85 L68.25 105.8 68.25 105.85 M68.25 105.8 L68.2 105.7 0.0 45.7 M68.3 105.8 L68.25 105.75 68.25 105.8 M68.25 105.75 L68.2 105.7 18.25 10.05 M68.6 106.0 L68.35 105.8 118.25 60.15 M86.6 18.35 L68.3 105.8 M136.6 114.25 L68.6 106.0 M68.25 105.75 L49.95 0.05"/></g><g id="c8"><g><use transform="matrix(1.0,0.0,0.0,1.0,0.0,0.0)" xlink:href="#c7"/></g></g><g id="c9"><g><use transform="matrix(1.0,0.0,0.0,1.0,0.0,0.0)" xlink:href="#c2"/></g><g><use transform="matrix(0.238861083984,-0.0867004394531,0.10026550293,0.233917236328,34.25,31.15)" xlink:href="#c4"/></g><g><use transform="matrix(0.238861083984,-0.0867004394531,0.10026550293,0.233917236328,4.25,10.3)" xlink:href="#c4"/></g><g><use transform="matrix(0.141098022461,-0.0378112792969,0.111373901367,0.225646972656,20.25,20.65)" filter="url(#filter7)" xlink:href="#c6"/></g><g><use transform="matrix(-0.155029296875,0.0513153076172,0.0841827392578,0.147033691406,22.6,3.15)" filter="url(#filter8)" xlink:href="#c8"/></g></g><filter id="filter7"><feColorMatrix in="SourceGraphic" type="matrix" values="0.0 0.0 0.0 0.0 0.796875 0.0 0.0 0.0 0.0 0.59765625 0.0 0.0 0.0 0.0 0.19921875 0.0 0.0 0.0 1.0 0.0" result="cxform"/><feComposite operator="in" in2="SourceGraphic" result="color-xform"/></filter><filter id="filter8"><feColorMatrix in="SourceGraphic" type="matrix" values="0.0 0.0 0.0 0.0 0.99609375 0.0 0.0 0.0 0.0 0.99609375 0.0 0.0 0.0 0.0 0.99609375 0.0 0.0 0.0 1.0 0.0" result="cxform"/><feComposite operator="in" in2="SourceGraphic" result="color-xform"/></filter><g id="c10"><path fill="#a67b54" stroke="none" d="M31.25 21.0 Q29.3 22.0 27.2 23.9 L26.5 24.45 Q24.15 26.65 22.55 28.85 L21.55 30.35 Q20.1 32.7 20.3 33.95 L20.35 34.05 20.4 34.2 20.4 34.25 20.4 34.3 20.5 34.4 20.5 34.5 20.75 34.7 20.9 34.85 21.2 35.05 21.25 35.0 Q21.1 34.25 21.6 33.15 L21.65 33.1 Q23.05 29.65 26.7 26.3 30.25 23.0 32.85 21.7 L31.95 21.15 31.7 21.05 31.25 21.0"/><path fill="#6b4f36" stroke="none" d="M32.85 21.7 Q30.25 23.0 26.7 26.3 23.05 29.65 21.65 33.1 L21.6 33.15 Q21.1 34.25 21.25 35.0 L21.25 35.05 21.35 35.1 21.4 35.1 22.05 35.25 23.15 34.95 23.15 35.0 24.4 34.5 24.55 34.4 25.65 33.9 25.7 33.9 Q26.7 32.35 28.1 30.9 L28.4 30.55 29.05 29.85 29.3 29.65 29.35 29.65 29.4 29.6 29.4 29.5 29.55 29.45 30.1 28.85 33.45 26.2 34.6 25.5 34.5 24.5 34.5 24.45 Q34.2 22.65 32.85 21.7"/><path fill="#e0af7f" stroke="none" d="M29.75 37.05 L30.2 36.75 31.25 36.1 31.6 35.8 31.8 35.65 32.95 34.8 34.15 33.7 34.3 33.6 37.0 30.85 37.15 30.65 37.35 30.35 38.55 28.75 38.65 28.6 38.8 28.35 38.9 28.15 39.7 26.7 39.85 26.45 40.3 24.5 40.3 24.35 40.3 24.3 40.25 24.2 40.25 24.1 40.2 23.9 40.1 23.85 39.95 23.4 39.9 23.35 39.85 23.3 39.6 22.7 Q38.85 21.55 37.35 20.55 L37.05 20.4 37.0 20.3 36.9 20.25 36.55 20.05 36.45 20.0 36.65 20.15 36.7 20.15 36.8 20.35 36.95 20.5 37.05 20.75 37.15 21.0 Q37.3 21.9 36.7 23.25 L36.65 23.4 36.6 23.45 35.85 24.95 35.7 25.1 35.55 25.35 35.45 25.55 34.4 27.0 34.25 27.2 31.2 30.35 31.05 30.55 29.8 31.6 28.7 32.5 28.5 32.65 28.45 32.7 28.15 32.95 28.1 32.95 27.7 33.25 27.7 33.3 27.65 33.3 Q26.9 35.7 27.95 36.45 L28.0 36.45 28.45 36.75 29.55 37.05 29.75 37.05 M36.35 29.75 L36.3 29.75 36.35 29.75"/><path fill="#ffd3ab" stroke="none" d="M20.45 34.55 L20.7 35.1 20.75 35.1 20.9 35.25 21.05 35.4 21.35 35.6 21.4 35.65 21.45 35.6 22.2 35.7 23.05 35.55 23.25 35.5 24.5 35.0 24.7 34.9 25.85 34.35 26.1 34.15 27.15 33.6 27.35 33.5 27.35 33.45 27.45 33.4 27.65 33.3 27.7 33.3 27.7 33.25 28.1 32.95 28.15 32.95 28.45 32.7 28.5 32.65 28.7 32.5 29.8 31.6 31.05 30.55 31.2 30.35 34.25 27.2 34.4 27.0 35.45 25.55 35.55 25.35 35.7 25.1 35.85 24.95 36.6 23.45 36.65 23.4 36.7 23.25 Q37.3 21.9 37.15 21.0 L37.05 20.75 36.95 20.5 36.8 20.35 36.7 20.15 36.65 20.15 36.45 20.0 36.5 20.05 36.5 20.1 36.75 20.6 36.8 20.6 36.85 20.85 36.85 21.05 Q36.9 21.85 36.4 23.0 L36.35 23.2 36.3 23.35 35.8 24.25 35.6 24.7 35.4 24.85 35.25 25.1 35.15 25.25 34.75 25.85 34.6 26.1 34.0 26.9 31.0 30.0 30.9 30.15 29.65 31.2 28.55 32.05 28.3 32.25 28.25 32.3 27.95 32.5 28.0 32.55 27.8 32.6 27.7 32.7 27.5 32.85 27.45 32.85 27.45 32.9 27.4 32.95 27.35 32.9 27.0 33.1 26.95 33.15 26.5 33.45 25.75 33.8 25.7 33.9 25.65 33.9 24.55 34.4 24.4 34.5 23.15 35.0 23.1 35.0 23.0 35.0 22.95 35.05 22.9 35.05 22.05 35.25 21.4 35.1 21.35 35.1 21.25 35.05 21.2 35.05 20.9 34.85 20.5 34.5 20.45 34.55"/><path fill="#2e1905" stroke="none" d="M21.65 33.1 L21.6 33.15 21.65 33.1 M23.15 35.0 L23.15 34.95 23.1 35.0 23.15 35.0"/><path fill="#472809" stroke="none" d="M20.35 34.05 L20.35 34.15 20.4 34.2 20.35 34.05"/><path fill="#d4a32a" stroke="none" d="M20.4 34.3 L20.5 34.4 20.45 34.5 20.45 34.55 20.5 34.5 20.5 34.4 20.4 34.3 M36.45 20.0 L36.4 20.0 36.5 20.05 36.45 20.0 M36.35 29.75 L36.3 29.75 36.35 29.75"/><path fill="#402f1f" stroke="none" d="M36.85 20.85 L36.75 20.8 Q35.75 20.45 34.05 21.15 L33.55 21.4 33.05 21.6 32.85 21.7 Q34.2 22.65 34.5 24.45 L34.5 24.5 34.6 25.5 Q34.95 25.25 35.25 25.1 L35.4 24.85 35.6 24.7 35.8 24.25 36.25 23.3 36.3 23.25 36.35 23.2 36.4 23.0 Q36.9 21.85 36.85 21.05 L36.85 20.85"/><path fill="#75573b" stroke="none" d="M36.4 20.0 L36.3 19.9 33.85 19.8 32.65 20.2 31.25 21.0 31.7 21.05 31.95 21.15 32.85 21.7 33.05 21.6 33.55 21.4 34.05 21.15 Q35.75 20.45 36.75 20.8 L36.85 20.85 36.8 20.6 36.75 20.6 36.5 20.1 36.5 20.05 36.4 20.0"/><path fill="#331c06" stroke="none" d="M36.25 23.3 L35.8 24.25 36.3 23.35 36.25 23.3"/><path fill="#9e653f" stroke="none" d="M36.35 23.2 L36.3 23.25 36.25 23.3 36.3 23.35 36.35 23.2"/><path fill="#704316" stroke="none" d="M20.9 34.85 L20.75 34.7 20.5 34.5 20.9 34.85 M23.15 34.95 L22.05 35.25 22.9 35.05 22.95 35.05 23.0 35.0 23.15 34.95 M27.95 32.45 L27.6 32.75 27.55 32.8 27.5 32.85 27.7 32.7 27.8 32.6 28.0 32.55 27.95 32.45 28.0 32.55 27.95 32.5 27.95 32.45 M27.0 33.1 L26.95 33.1 26.55 33.4 26.5 33.45 26.0 33.65 25.75 33.8 26.5 33.45 26.95 33.15 27.0 33.1 M27.6 32.75 L27.7 32.7 27.6 32.75"/><path fill="#3b2107" stroke="none" d="M21.25 35.0 L21.2 35.05 21.25 35.05 21.25 35.0"/><path fill="#a67348" stroke="none" d="M20.75 35.1 L20.75 35.2 21.35 36.1 22.6 37.55 22.75 37.65 22.95 37.75 22.9 37.8 23.6 38.25 24.05 38.5 24.4 38.7 26.35 38.6 28.9 37.55 29.4 37.25 29.75 37.05 29.55 37.05 28.45 36.75 28.0 36.45 27.95 36.45 Q26.9 35.7 27.65 33.3 L27.45 33.4 27.35 33.45 27.35 33.5 27.15 33.6 26.1 34.15 25.85 34.35 24.7 34.9 24.5 35.0 23.25 35.5 23.05 35.55 22.2 35.7 21.45 35.6 21.4 35.65 21.35 35.6 21.05 35.4 20.9 35.25 20.75 35.1"/><path fill="#6b3c0d" stroke="none" d="M23.0 35.0 L23.1 35.0 23.15 34.95 23.0 35.0"/><path fill="#bf8f26" stroke="none" d="M22.75 37.65 L22.9 37.8 22.95 37.75 22.75 37.65"/><path fill="#593511" stroke="none" d="M27.7 33.3 L27.65 33.3 27.7 33.3"/><path fill="#8a521b" stroke="none" d="M28.25 32.3 L27.95 32.45 27.95 32.5 28.25 32.3"/><path fill="none" stroke="#000000" stroke-width="0.5" stroke-opacity="0.301960784314" d="M31.25 21.0 Q29.3 22.0 27.2 23.9 L26.5 24.45 Q24.15 26.65 22.55 28.85 L21.55 30.35 Q20.1 32.7 20.3 33.95 M20.35 34.05 L20.35 34.15 20.4 34.2 20.4 34.25 20.4 34.3 20.5 34.4 20.45 34.5 20.45 34.55 20.7 35.1 20.75 35.1 20.75 35.2 21.35 36.1 22.6 37.55 M22.75 37.65 L22.9 37.8 23.6 38.25 24.05 38.5 24.4 38.7 26.35 38.6 28.9 37.55 29.4 37.25 29.75 37.05 30.2 36.75 31.25 36.1 31.6 35.8 31.8 35.65 32.95 34.8 34.15 33.7 34.3 33.6 37.0 30.85 37.15 30.65 37.35 30.35 38.55 28.75 38.65 28.6 38.8 28.35 38.9 28.15 39.7 26.7 39.85 26.45 40.3 24.5 40.3 24.35 40.3 24.3 40.25 24.2 40.25 24.1 40.2 23.9 40.1 23.85 39.95 23.4 39.9 23.35 39.85 23.3 39.6 22.7 Q38.85 21.55 37.35 20.55 M36.9 20.25 L36.55 20.05 36.45 20.0 M36.4 20.0 L36.3 19.9 33.85 19.8 32.65 20.2 31.25 21.0 M21.2 35.05 L20.9 34.85 20.75 34.7 20.5 34.5 20.9 34.85 M34.6 25.5 L33.45 26.2 30.1 28.85 29.55 29.45 29.4 29.5 29.4 29.6 29.35 29.65 29.3 29.65 29.05 29.85 28.4 30.55 28.1 30.9 Q26.7 32.35 25.7 33.9 L25.65 33.9 24.55 34.4 24.4 34.5 23.15 35.0 M22.05 35.25 L21.4 35.1 21.35 35.1 21.25 35.05 M35.25 25.1 L35.15 25.25 34.75 25.85 34.6 26.1 34.0 26.9 31.0 30.0 30.9 30.15 29.65 31.2 28.55 32.05 28.3 32.25 28.25 32.3 27.95 32.5 28.0 32.55 27.8 32.6 27.7 32.7 27.6 32.75 27.55 32.8 27.5 32.85 27.45 32.85 27.45 32.9 27.4 32.95 27.35 32.9 27.0 33.1 26.95 33.1 26.55 33.4 26.5 33.45 26.0 33.65 25.75 33.8 25.7 33.9 M36.5 20.05 L36.4 20.0 M20.4 34.2 L20.35 34.05 M36.85 20.85 L36.85 21.05 Q36.9 21.85 36.4 23.0 L36.35 23.2 36.3 23.25 36.25 23.3 35.8 24.25 M35.6 24.7 L35.4 24.85 35.25 25.1 Q34.95 25.25 34.6 25.5 M36.85 20.85 L36.8 20.6 36.75 20.6 36.5 20.1 36.5 20.05 M36.25 23.3 L36.3 23.35 36.35 23.2 M21.2 35.05 L21.25 35.05 M22.05 35.25 L22.9 35.05 22.95 35.05 23.0 35.0 23.1 35.0 23.15 35.0 M26.5 33.45 L26.95 33.15 27.0 33.1 M25.75 33.8 L26.5 33.45"/><path fill="none" stroke="#704316" stroke-width="0.5" stroke-opacity="0.662745098039" d="M32.85 21.7 Q30.25 23.0 26.7 26.3 23.05 29.65 21.65 33.1 L21.6 33.15 Q21.1 34.25 21.25 35.0 M21.25 35.05 L21.25 35.0 M32.85 21.7 L33.05 21.6 33.55 21.4 34.05 21.15 Q35.75 20.45 36.75 20.8 L36.85 20.85"/><path fill="none" stroke="#ff0000" stroke-width="0.5" d="M27.95 32.45 L28.0 32.55"/><path fill="none" stroke="#faf1eb" stroke-width="0.5" stroke-opacity="0.513725490196" d="M39.75 22.6 Q40.15 25.85 34.4 32.5 31.35 35.35 28.85 36.85"/><path fill="none" stroke="#faf1eb" stroke-width="0.5" stroke-opacity="0.352941176471" d="M28.85 36.85 Q25.7 38.7 23.35 38.25"/><path fill="none" stroke="#faf1eb" stroke-width="0.5" stroke-opacity="0.352941176471" d="M27.15 35.1 Q24.0 36.95 21.65 36.5"/><path fill="none" stroke="#faf1eb" stroke-width="0.5" stroke-opacity="0.513725490196" d="M38.05 20.95 Q38.45 24.1 32.7 30.8 29.65 33.7 27.15 35.1"/><path fill="#b5804f" stroke="none" d="M27.55 33.7 Q27.4 33.9 27.9 35.15 28.4 36.5 30.25 37.7 L31.85 36.15 Q31.9 34.45 29.0 32.35 L27.55 33.7"/><path fill="#e0af7f" stroke="none" d="M30.25 37.7 Q28.4 36.5 27.9 35.15 27.4 33.9 27.55 33.7 L27.5 33.75 Q25.8 36.2 24.7 40.95 L24.75 41.85 25.3 42.3 27.8 41.05 Q28.8 39.35 30.25 37.7"/><path fill="#fed8b4" stroke="none" d="M24.7 40.95 Q25.8 36.2 27.5 33.75 25.7 35.8 24.65 37.85 L24.7 40.95"/><path fill="none" stroke="#382510" stroke-width="0.5" stroke-opacity="0.301960784314" d="M30.25 37.7 Q28.8 39.35 27.8 41.05 L25.3 42.3 24.75 41.85 24.7 40.95 M27.5 33.75 L27.55 33.7 29.0 32.35 M31.85 36.15 L30.25 37.7 M27.5 33.75 Q25.7 35.8 24.65 37.85 L24.7 40.95"/><path fill="none" stroke="#faf1eb" stroke-width="0.5" stroke-opacity="0.513725490196" d="M29.9 32.9 Q26.65 35.7 24.75 40.3"/><path fill="none" stroke="#faf1eb" stroke-width="0.5" stroke-opacity="0.513725490196" d="M31.8 35.15 Q28.2 37.75 26.05 42.1"/><path fill="#000000" fill-opacity="0.450980392157" d="M29.3 24.1 Q28.5 23.55 27.6 23.75 L27.3 23.85 27.2 23.9 26.5 24.45 26.0 25.0 Q25.6 25.65 25.8 26.6 L25.85 26.75 25.8 26.75 25.35 27.15 25.25 27.15 24.8 27.65 23.65 27.45 22.55 28.85 21.65 30.25 21.7 30.7 Q21.85 31.45 22.25 31.9 L22.7 32.25 22.7 32.2 23.0 32.45 22.95 32.5 Q23.05 33.35 23.5 34.2 L23.7 34.55 23.85 34.75 24.4 34.5 24.5 34.45 25.65 33.9 Q26.7 32.35 28.05 30.9 L28.4 30.55 29.05 29.85 29.35 29.65 29.4 29.6 29.5 29.45 30.05 28.9 Q31.15 27.95 32.15 27.2 31.5 26.2 30.45 25.9 L30.35 25.55 Q30.2 24.6 29.35 24.15 L29.3 24.1"/><path fill="#fffbe8" stroke="none" d="M38.05 30.2 Q38.1 28.8 37.35 27.75 L37.35 27.7 Q36.65 26.65 35.45 26.3 L35.4 25.9 Q35.3 25.0 34.4 24.55 33.6 24.0 32.7 24.2 32.05 24.3 31.6 24.7 L31.15 25.25 Q30.7 26.0 30.9 27.0 L30.9 27.2 30.4 27.55 30.35 27.6 29.9 28.05 28.15 28.0 Q27.35 28.35 26.9 29.35 L26.7 30.0 26.8 31.15 Q27.0 32.2 27.75 32.65 L28.05 32.8 28.05 32.9 Q28.1 33.75 28.5 34.55 L28.8 34.95 Q29.6 36.1 30.85 36.45 L32.0 36.6 31.95 36.6 Q34.0 36.65 35.7 35.1 L37.2 33.4 37.9 31.55 38.05 30.2 M28.6 30.0 L28.8 29.7 28.45 30.35 Q28.45 30.2 28.6 30.0"/><path fill="#ece8d7" stroke="none" d="M28.6 30.0 Q28.45 30.2 28.45 30.35 L28.8 29.7 28.6 30.0"/><path fill="none" stroke="#000000" stroke-width="0.5" stroke-opacity="0.152941176471" d="M30.85 36.45 Q29.6 36.1 28.8 34.95 L28.5 34.55 Q28.1 33.75 28.05 32.9 L28.05 32.8 27.75 32.65 Q27.0 32.2 26.8 31.15 L26.7 30.0 26.9 29.35 Q27.35 28.35 28.15 28.0 L29.9 28.05 30.35 27.6 30.4 27.55 30.9 27.2 30.9 27.0 Q30.7 26.0 31.15 25.25 L31.6 24.7 Q32.05 24.3 32.7 24.2 33.6 24.0 34.4 24.55 35.3 25.0 35.4 25.9 L35.45 26.3 Q36.65 26.65 37.35 27.7 L37.35 27.75 Q38.1 28.8 38.05 30.2"/><path fill="none" stroke="#000000" stroke-width="0.5" stroke-opacity="0.250980392157" d="M38.05 30.2 L37.9 31.55 37.2 33.4 35.7 35.1 Q34.0 36.65 31.95 36.6 L32.0 36.6 30.85 36.45"/><path fill="#0b3c49" stroke="none" d="M30.25 29.65 L30.1 30.95 29.3 31.75 Q28.75 32.0 28.3 31.75 27.85 31.45 27.7 30.8 27.6 30.2 27.85 29.55 28.15 28.9 28.65 28.7 L29.6 28.75 30.25 29.65"/><path fill="none" stroke="#000000" stroke-width="0.5" stroke-opacity="0.352941176471" d="M30.25 29.65 L30.1 30.95 29.3 31.75 Q28.75 32.0 28.3 31.75 27.85 31.45 27.7 30.8 27.6 30.2 27.85 29.55 28.15 28.9 28.65 28.7 L29.6 28.75 30.25 29.65"/><path fill="#0b3c49" stroke="none" d="M32.5 27.7 L33.6 27.9 34.5 27.25 Q34.9 26.75 34.75 26.15 34.65 25.55 34.1 25.25 L33.05 25.05 Q32.45 25.2 32.1 25.7 31.75 26.2 31.85 26.8 32.0 27.4 32.5 27.7"/><path fill="none" stroke="#000000" stroke-width="0.5" stroke-opacity="0.352941176471" d="M32.5 27.7 L33.6 27.9 34.5 27.25 Q34.9 26.75 34.75 26.15 34.65 25.55 34.1 25.25 L33.05 25.05 Q32.45 25.2 32.1 25.7 31.75 26.2 31.85 26.8 32.0 27.4 32.5 27.7"/><path fill="#ece8d7" stroke="none" d="M34.15 27.05 Q32.5 27.05 31.05 28.35 29.6 29.65 29.15 31.45 28.75 33.3 29.6 34.6 30.45 35.9 32.1 35.85 33.75 35.85 35.2 34.55 36.65 33.25 37.1 31.45 37.55 29.65 36.7 28.35 35.85 27.05 34.15 27.05"/><path fill="none" stroke="#000000" stroke-width="0.5" stroke-opacity="0.352941176471" d="M34.15 27.05 Q32.5 27.05 31.05 28.35 29.6 29.65 29.15 31.45 28.75 33.3 29.6 34.6 30.45 35.9 32.1 35.85 33.75 35.85 35.2 34.55 36.65 33.25 37.1 31.45 37.55 29.65 36.7 28.35 35.85 27.05 34.15 27.05"/><path fill="#0b3c49" stroke="none" d="M31.1 35.15 L32.5 34.9 Q33.4 34.6 33.55 33.7 33.7 32.85 33.3 32.1 32.85 31.4 32.1 31.2 31.35 31.0 30.7 31.45 30.1 31.95 29.85 32.8 29.75 33.65 30.15 34.4 L31.1 35.15"/><path fill="#0b3c49" stroke="none" d="M37.1 29.95 L36.5 31.45 Q36.0 32.35 35.25 32.35 34.5 32.3 34.0 31.6 33.5 30.95 33.5 30.05 33.55 29.15 34.1 28.55 34.7 28.0 35.4 28.0 36.2 28.05 36.7 28.75 37.2 29.4 37.1 29.95"/><path fill="#031317" fill-opacity="0.6" d="M35.05 29.6 Q34.8 29.8 34.8 30.15 L35.0 30.8 35.5 31.2 35.85 31.2 36.05 31.1 36.2 30.9 36.25 30.5 36.05 29.85 35.55 29.45 35.05 29.6"/><path fill="#ece8d7" stroke="none" d="M35.25 30.85 L35.65 30.8 35.8 30.4 35.55 29.9 35.2 29.5 34.8 29.6 34.65 29.95 34.85 30.5 35.25 30.85"/><path fill="#031317" fill-opacity="0.6" d="M31.55 32.6 L32.1 32.45 32.6 32.9 32.8 33.5 32.75 33.9 32.55 34.1 32.4 34.2 32.05 34.2 Q31.75 34.15 31.55 33.85 L31.35 33.15 31.55 32.6"/><path fill="#ece8d7" stroke="none" d="M32.25 33.6 L32.15 33.95 31.7 34.05 31.35 33.65 31.1 33.15 31.3 32.75 31.65 32.7 32.05 33.05 32.25 33.6"/><path fill="none" stroke="#000000" stroke-width="0.5" stroke-opacity="0.352941176471" d="M35.55 32.85 Q35.25 34.45 34.25 32.9 35.25 34.45 33.85 34.35"/><path fill="#cc5178" stroke="none" d="M33.85 32.8 L34.15 32.7 34.25 32.45 34.15 32.15 33.9 31.9 Q33.75 31.85 33.85 32.3 L33.5 32.25 33.65 32.6 33.85 32.8"/><path fill="#4d2c0f" stroke="none" d="M39.05 22.05 L38.7 21.75 38.5 21.7 Q38.4 21.75 38.45 21.95 L38.65 22.4 39.05 22.65 39.3 22.75 39.3 22.5 39.05 22.05 M37.25 25.85 Q37.15 26.05 37.2 26.3 L37.5 26.8 37.95 26.85 Q38.25 26.8 38.35 26.55 L38.35 26.0 38.1 25.6 37.6 25.55 37.25 25.85 M39.1 24.4 L39.35 24.1 39.2 23.65 38.8 23.3 38.4 23.3 38.2 23.65 38.4 24.15 38.75 24.4 39.1 24.4 M27.75 37.75 L28.2 37.9 28.55 37.55 28.55 37.05 28.3 36.65 27.85 36.6 27.5 36.85 Q27.4 37.1 27.45 37.35 L27.75 37.75 M26.55 38.45 L26.2 38.7 26.2 39.2 26.45 39.6 26.9 39.7 27.3 39.35 27.35 38.9 27.05 38.45 26.55 38.45"/></g><filter id="filter12"><feColorMatrix in="SourceGraphic" type="matrix" values="1.0 0.0 0.0 0.0 0.0 0.0 1.0 0.0 0.0 0.0 0.0 0.0 1.0 0.0 0.0 0.0 0.0 0.0 0.23046875 0.0" result="cxform"/><feComposite operator="in" in2="SourceGraphic" result="color-xform"/></filter></defs><g><g><use transform="matrix(1.0,0.0,0.0,1.0,0.0,0.0)" xlink:href="#c1"/></g><g><use transform="matrix(1.15496826172,0.0,0.0,1.15496826172,5.85,4.8)" xlink:href="#c9"/></g><g><use transform="matrix(1.0,0.0,0.0,1.0,0.0,0.0)" xlink:href="#c10"/></g><g><use transform="matrix(0.162948608398,-0.0436706542969,0.128631591797,0.260604858398,30.0,28.7)" filter="url(#filter12)" xlink:href="#c6"/></g></g></svg>