<?xml version='1.0' encoding='UTF-8'?>
<svg xmlns:xlink="http://www.w3.org/1999/xlink" xmlns="http://www.w3.org/2000/svg" version="1.1" width="60px" height="60px" viewBox="0.0 0.0 60.0 60.0"><defs><g id="c1"><path fill="#000000" fill-opacity="0.00392156862745" d="M0.0 0.0 L60.0 0.0 60.0 60.0 0.0 60.0 0.0 0.0"/></g><g id="c2"><path fill="none" stroke="#000000" stroke-width="1.0" stroke-opacity="0.301960784314" d="M0.7 12.25 Q-0.45 9.75 0.75 8.25 1.2 7.6 2.15 7.15 2.8 6.7 3.8 6.35 L17.5 1.95 30.2 7.0 41.35 31.7 Q42.95 35.15 40.2 36.7 39.5 37.3 38.3 37.65 L25.5 41.8 25.45 41.75 24.55 42.0 11.85 37.0 0.7 12.25"/><path fill="#9d147b" stroke="none" d="M35.55 22.3 L31.5 13.2 29.75 9.2 16.95 4.25 5.5 7.85 Q1.65 9.1 3.35 12.8 L8.25 23.65 13.1 34.35 25.8 39.4 37.2 35.7 Q41.1 34.5 39.35 30.75 L35.55 22.3 M5.45 20.95 L1.35 11.8 Q0.4 9.65 1.1 8.3 1.45 7.65 2.15 7.15 2.8 6.7 3.8 6.35 L17.5 1.95 30.2 7.0 41.35 31.7 Q42.95 35.15 40.2 36.7 L38.9 37.25 25.2 41.65 12.5 36.65 5.45 20.95"/><path fill="#c47fad" stroke="none" d="M31.5 13.2 L35.55 22.3 39.35 30.75 Q41.1 34.5 37.2 35.7 L25.8 39.4 13.1 34.35 8.25 23.65 3.35 12.8 Q1.65 9.1 5.5 7.85 L16.95 4.25 29.75 9.2 31.5 13.2 M18.5 7.45 L9.1 10.55 9.55 11.6 Q9.8 12.8 9.15 13.6 8.4 14.45 7.1 14.4 L6.8 14.4 6.95 14.6 15.2 32.75 23.85 36.2 34.0 32.9 33.7 32.1 Q33.45 30.9 34.1 30.1 34.75 29.3 35.95 29.35 L35.8 29.0 27.75 10.95 18.5 7.45"/><path fill="#fcf2cf" stroke="none" d="M27.75 10.95 L35.8 29.0 35.95 29.35 Q34.75 29.3 34.1 30.1 33.45 30.9 33.7 32.1 L34.0 32.9 23.85 36.2 15.2 32.75 6.95 14.6 6.8 14.4 7.1 14.4 Q8.4 14.45 9.15 13.6 9.8 12.8 9.55 11.6 L9.1 10.55 18.5 7.45 27.75 10.95"/><path fill="#630a4c" stroke="none" d="M1.1 8.3 L0.75 8.25 Q1.2 7.6 2.15 7.15 1.45 7.65 1.1 8.3 M4.6 20.9 L5.45 20.95 12.5 36.65 11.55 36.25 11.25 35.55 4.6 20.9"/><path fill="#300525" stroke="none" d="M1.1 8.3 Q0.4 9.65 1.35 11.8 L5.45 20.95 4.6 20.9 0.7 12.25 Q-0.45 9.75 0.75 8.25 L1.1 8.3 M12.5 36.65 L25.2 41.65 38.9 37.25 40.2 36.7 Q39.5 37.3 38.3 37.65 L25.5 41.8 25.45 41.75 24.55 42.0 11.85 37.0 11.55 36.25 12.5 36.65"/><path fill="none" stroke="#bf9900" stroke-width="1.0" stroke-opacity="0.749019607843" d="M31.5 13.2 L35.55 22.3 M13.1 34.35 L8.25 23.65"/><path fill="none" stroke="#ffcc00" stroke-width="1.0" stroke-opacity="0.749019607843" d="M35.55 22.3 L39.35 30.75 Q41.1 34.5 37.2 35.7 L25.8 39.4 M8.25 23.65 L3.35 12.8 Q1.65 9.1 5.5 7.85 L16.95 4.25 29.75 9.2 31.5 13.2"/><path fill="none" stroke="#f0b92b" stroke-width="0.5" d="M27.75 10.95 L35.8 29.0 35.95 29.35 Q34.75 29.3 34.1 30.1 33.45 30.9 33.7 32.1 L34.0 32.9 23.85 36.2 15.2 32.75 6.95 14.6 6.8 14.4 7.1 14.4 Q8.4 14.45 9.15 13.6 9.8 12.8 9.55 11.6 L9.1 10.55 18.5 7.45"/><path fill="none" stroke="#000000" stroke-width="0.5" stroke-opacity="0.301960784314" d="M5.45 20.95 L1.35 11.8 Q0.4 9.65 1.1 8.3 M0.75 8.25 Q-0.45 9.75 0.7 12.25 L4.6 20.9 M5.45 20.95 L12.5 36.65 M25.2 41.65 L38.9 37.25 40.2 36.7 Q42.95 35.15 41.35 31.7 L30.2 7.0 M17.5 1.95 L3.8 6.35 Q2.8 6.7 2.15 7.15 1.45 7.65 1.1 8.3 M0.75 8.25 Q1.2 7.6 2.15 7.15 M11.25 35.55 L4.6 20.9 M25.5 41.8 L38.3 37.65 Q39.5 37.3 40.2 36.7"/><path fill="none" stroke="#ffcc00" stroke-width="0.5" stroke-opacity="0.749019607843" d="M18.5 7.45 L27.75 10.95"/><path fill="none" stroke="#f0b92b" stroke-width="1.0" stroke-opacity="0.749019607843" d="M25.8 39.4 L13.1 34.35"/><path fill="none" stroke="#432f2f" stroke-width="0.5" d="M12.5 36.65 L25.2 41.65"/></g><g id="c3"><path fill="#7fdbfe" stroke="none" d="M10.75 4.9 Q10.75 4.6 10.9 4.35 11.25 3.45 11.95 2.75 13.3 1.5 14.35 2.1 15.4 2.7 14.95 4.45 14.7 5.4 14.1 6.15 L13.75 6.5 Q13.1 7.15 12.35 7.35 L11.4 7.2 Q10.95 6.9 10.75 6.4 10.5 5.75 10.75 4.9 M7.5 5.9 Q7.0 5.85 6.6 5.5 6.05 5.0 5.8 4.15 L5.7 3.6 Q5.55 2.65 5.8 1.7 6.25 0.0 7.5 0.0 L7.6 0.0 Q8.85 0.0 9.3 1.7 9.55 2.65 9.4 3.6 L9.3 4.15 8.5 5.5 7.6 5.9 7.5 5.9 M4.35 4.9 Q4.6 5.75 4.35 6.4 L3.7 7.2 2.75 7.35 Q2.0 7.15 1.35 6.5 L1.0 6.15 Q0.4 5.4 0.15 4.45 -0.3 2.7 0.75 2.1 1.8 1.5 3.15 2.75 3.85 3.45 4.2 4.35 L4.35 4.9 M5.5 13.7 Q4.45 13.9 3.65 12.95 2.75 12.0 3.2 10.25 3.7 8.5 5.25 7.6 6.4 6.9 7.55 7.0 8.75 6.9 9.9 7.6 11.45 8.5 11.95 10.25 12.35 12.0 11.5 12.95 10.7 13.9 9.65 13.7 8.55 13.5 7.55 12.6 6.55 13.5 5.5 13.7"/></g><g id="c4"><g><use transform="matrix(1.0,0.0,0.0,1.0,0.0,0.0)" xlink:href="#c3"/></g></g><radialGradient gradientUnits="userSpaceOnUse" r="819.2" cx="0" cy="0" spreadMethod="pad" gradientTransform="matrix(0.0914459228516,0.0,0.0,0.0914459228516,0.6,3.4)" id="gradient1"><stop offset="0.0" stop-color="#ffffff"/><stop offset="1.0" stop-color="#ffffff" stop-opacity="0.0"/></radialGradient><g id="c5"><path stroke="none" fill="url(#gradient1)" d="M36.65 -54.65 Q60.05 -42.0 69.75 -17.95 80.55 8.9 68.0 34.1 55.45 59.35 26.8 68.2 -1.8 77.05 -29.7 64.3 -57.6 51.6 -68.45 24.75 -79.3 -2.05 -66.75 -27.25 L-66.7 -27.3 Q-54.1 -52.5 -25.5 -61.4 3.1 -70.2 31.0 -57.5 L36.65 -54.65"/></g><g id="c6"><g><use transform="matrix(1.0,0.0,0.0,1.0,0.0,0.0)" xlink:href="#c5"/></g></g><radialGradient gradientUnits="userSpaceOnUse" r="819.2" cx="0" cy="0" spreadMethod="pad" gradientTransform="matrix(0.209197998047,0.0,0.0,0.177108764648,67.15,107.2)" id="gradient2"><stop offset="0.356862745098" stop-color="#ffffff"/><stop offset="0.670588235294" stop-opacity="0.0"/></radialGradient><g id="c7"><path fill="none" stroke-linejoin="round" stroke-linecap="round" stroke="url(#gradient2)" stroke-width="0.5" d="M136.55 165.8 L68.6 106.0 68.4 106.0 118.25 201.5 M68.3 105.8 L68.35 105.8 68.3 105.8 68.3 105.85 68.4 106.0 68.3 106.0 86.55 211.5 M68.3 105.8 L68.3 105.85 68.3 106.0 68.15 105.95 18.25 151.55 M68.3 105.85 L68.25 105.85 68.3 106.0 50.0 193.2 M68.25 105.85 L68.15 105.95 0.05 97.7 M68.3 105.85 L68.25 105.8 68.25 105.85 M68.25 105.8 L68.2 105.7 0.0 45.7 M68.3 105.8 L68.25 105.75 68.25 105.8 M68.25 105.75 L68.2 105.7 18.25 10.05 M68.6 106.0 L68.35 105.8 118.25 60.15 M86.6 18.35 L68.3 105.8 M136.6 114.25 L68.6 106.0 M68.25 105.75 L49.95 0.05"/></g><g id="c8"><g><use transform="matrix(1.0,0.0,0.0,1.0,0.0,0.0)" xlink:href="#c7"/></g></g><g id="c9"><g><use transform="matrix(1.0,0.0,0.0,1.0,0.0,0.0)" xlink:href="#c2"/></g><g><use transform="matrix(0.238861083984,-0.0867004394531,0.10026550293,0.233917236328,34.25,31.15)" xlink:href="#c4"/></g><g><use transform="matrix(0.238861083984,-0.0867004394531,0.10026550293,0.233917236328,4.25,10.3)" xlink:href="#c4"/></g><g><use transform="matrix(0.141098022461,-0.0378112792969,0.111373901367,0.225646972656,20.25,20.65)" filter="url(#filter7)" xlink:href="#c6"/></g><g><use transform="matrix(-0.155029296875,0.0513153076172,0.0841827392578,0.147033691406,22.6,3.15)" filter="url(#filter8)" xlink:href="#c8"/></g></g><filter id="filter7"><feColorMatrix in="SourceGraphic" type="matrix" values="0.0 0.0 0.0 0.0 0.796875 0.0 0.0 0.0 0.0 0.59765625 0.0 0.0 0.0 0.0 0.19921875 0.0 0.0 0.0 1.0 0.0" result="cxform"/><feComposite operator="in" in2="SourceGraphic" result="color-xform"/></filter><filter id="filter8"><feColorMatrix in="SourceGraphic" type="matrix" values="0.0 0.0 0.0 0.0 0.99609375 0.0 0.0 0.0 0.0 0.99609375 0.0 0.0 0.0 0.0 0.99609375 0.0 0.0 0.0 1.0 0.0" result="cxform"/><feComposite operator="in" in2="SourceGraphic" result="color-xform"/></filter><linearGradient gradientUnits="userSpaceOnUse" x1="-819.2" x2="819.2" spreadMethod="pad" gradientTransform="matrix(-0.00370788574219,-0.0165863037109,-0.00128173828125,0.000198364257812,1.75,-24.65)" id="gradient3"><stop offset="0.117647058824" stop-color="#6c4b15"/><stop offset="1.0" stop-color="#856125"/></linearGradient><g id="c10"><path fill="#000000" fill-opacity="0.152941176471" d="M0.45 -11.55 L0.45 -11.8 1.4 -12.05 0.45 -11.55 M0.4 -10.6 L0.45 -10.85 0.55 -10.9 0.8 -10.5 0.5 -10.65 0.4 -10.6"/><path fill="#978e24" stroke="none" d="M0.45 -11.8 L0.45 -11.55 Q-0.05 -11.25 0.45 -10.85 L0.4 -10.6 0.5 -10.45 Q-1.25 -9.55 -2.9 -8.9 L-3.4 -10.2 -3.5 -10.45 Q-3.65 -11.35 -3.35 -11.65 L-3.25 -11.7 Q-0.55 -12.05 0.4 -12.75 L0.45 -11.8"/><path fill="#696316" stroke="none" d="M-3.35 -11.65 Q-3.65 -11.35 -3.5 -10.45 L-3.4 -10.2 -2.9 -8.9 Q-5.4 -8.3 -7.25 -9.3 L-7.55 -11.8 -3.35 -11.65"/><path fill="none" stroke="#000000" stroke-width="0.5" stroke-opacity="0.152941176471" d="M3.4 -10.15 Q3.95 -9.8 4.6 -9.7 M0.45 -11.8 L0.45 -11.55 M1.4 -12.05 L0.45 -11.8 0.4 -12.75 Q-0.55 -12.05 -3.25 -11.7 L-3.35 -11.65 M-2.9 -8.9 Q-1.25 -9.55 0.5 -10.45 L0.4 -10.6 0.45 -10.85 Q-0.05 -11.25 0.45 -11.55 M2.75 -12.55 Q2.0 -12.15 1.4 -12.05 M1.45 -10.4 L2.05 -10.3 M-2.9 -8.9 Q-5.4 -8.3 -7.25 -9.3 L-7.55 -11.8 -3.35 -11.65"/><path fill="#d6882a" stroke="none" d="M-4.9 -10.2 L-4.9 -10.65 -4.9 -10.7 -6.3 -10.95 -6.3 -10.75 -6.25 -10.65 Q-6.05 -10.65 -6.2 -10.55 L-6.2 -10.5 -4.9 -10.2"/><path fill="#96551b" stroke="none" d="M-4.9 -10.65 L-4.9 -10.2 -4.85 -10.2 -3.35 -10.3 -3.4 -10.75 -4.9 -10.65"/><path fill="#000000" fill-opacity="0.152941176471" d="M-6.25 -10.65 L-6.3 -10.75 -6.65 -10.8 -6.25 -10.65"/><path fill="none" stroke="#000000" stroke-width="0.5" stroke-opacity="0.152941176471" d="M-4.9 -10.2 L-6.2 -10.5 -6.2 -10.55 Q-6.05 -10.65 -6.25 -10.65 L-6.3 -10.75 -6.3 -10.95 -4.9 -10.7 -4.9 -10.65 -3.4 -10.75 -3.35 -10.3 -4.85 -10.2 -4.9 -10.2 M-6.65 -10.8 L-6.3 -10.75 M-7.15 -10.45 L-7.55 -10.35 M-6.65 -10.8 L-7.15 -10.9"/><path fill="#d6882a" stroke="none" d="M-4.6 -9.65 L-4.6 -9.7 -6.0 -9.95 -6.0 -9.75 -5.95 -9.65 Q-5.75 -9.65 -5.9 -9.55 L-5.9 -9.5 -4.6 -9.2 -4.6 -9.65"/><path fill="#000000" fill-opacity="0.152941176471" d="M-6.0 -9.75 L-6.35 -9.8 -5.95 -9.65 -6.0 -9.75"/><path fill="#96551b" stroke="none" d="M-4.6 -9.2 L-4.55 -9.2 -3.05 -9.3 -3.1 -9.75 -4.6 -9.65 -4.6 -9.2"/><path fill="none" stroke="#000000" stroke-width="0.5" stroke-opacity="0.152941176471" d="M-4.6 -9.65 L-4.6 -9.7 -6.0 -9.95 -6.0 -9.75 -6.35 -9.8 -6.85 -9.9 M-6.85 -9.45 L-7.25 -9.35 M-6.0 -9.75 L-5.95 -9.65 Q-5.75 -9.65 -5.9 -9.55 L-5.9 -9.5 -4.6 -9.2 -4.55 -9.2 -3.05 -9.3 -3.1 -9.75 -4.6 -9.65"/><path fill="#b8a992" stroke="none" d="M7.2 -8.3 L7.75 -9.5 7.4 -8.25 7.25 -8.05 7.2 -8.3 7.25 -8.05 6.15 -6.95 5.95 -7.1 Q6.6 -7.35 7.2 -8.3"/><path fill="#825f25" stroke="none" d="M7.75 -9.5 Q7.6 -8.45 7.8 -8.0 L7.45 -7.55 7.3 -7.3 7.05 -7.0 6.9 -6.5 6.05 -5.55 5.95 -7.1 6.15 -6.95 7.25 -8.05 7.4 -8.25 7.75 -9.5 M7.3 -7.3 L7.25 -8.05 7.3 -7.3 M7.45 -7.55 L7.4 -8.25 7.45 -7.55"/><path fill="#af7d32" stroke="none" d="M7.75 -9.5 L7.75 -9.6 7.75 -9.5"/><path fill="none" stroke="#332720" stroke-width="0.5" stroke-opacity="0.450980392157" d="M7.75 -9.5 L7.75 -9.6 7.75 -9.5 Q7.6 -8.45 7.8 -8.0 M7.45 -7.55 L7.55 -6.95 M7.75 -9.5 L7.2 -8.3 7.25 -8.05 7.3 -7.3 M6.05 -5.55 L5.95 -7.1 Q6.6 -7.35 7.2 -8.3 M7.4 -8.25 L7.45 -7.55"/><path fill="#6c4b15" stroke="none" d="M-0.4 -42.05 L-1.35 -40.7 -0.95 -38.15 Q-0.7 -38.25 -0.4 -38.4 2.5 -28.3 3.75 -10.9 L-1.95 -37.7 -2.1 -37.7 -2.75 -37.35 Q0.35 -25.6 3.85 -8.15 L3.8 -9.9 3.9 -10.25 Q3.25 -26.05 0.95 -36.5 L-0.4 -42.05 M3.3 -3.0 Q3.9 -2.25 4.05 -0.6 L5.15 0.5 5.0 -2.5 4.65 -4.15 3.3 -3.0"/><path stroke="none" fill="url(#gradient3)" d="M-1.95 -37.7 L3.75 -10.9 Q2.5 -28.3 -0.4 -38.4 -0.7 -38.25 -0.95 -38.15 L-1.35 -37.95 -1.8 -37.75 -1.95 -37.7 M-1.35 -37.95 Q-0.3 -36.05 0.4 -30.6 -0.3 -36.05 -1.35 -37.95"/><path fill="#a28452" stroke="none" d="M3.85 -8.15 Q0.35 -25.6 -2.75 -37.35 L-3.5 -40.0 -4.85 -38.6 -1.2 -25.4 -5.65 -37.65 -5.75 -37.65 -7.5 -36.0 -2.45 -23.8 3.15 -6.35 -3.35 -23.65 -9.15 -34.15 -10.0 -33.4 Q-6.9 -27.35 -4.0 -20.75 -1.35 -14.8 1.1 -8.45 L2.25 -5.4 4.2 -6.8 4.05 -7.3 3.85 -8.15 M-5.35 -21.65 L-6.25 -20.3 -4.25 -20.4 -5.35 -21.65 M-4.7 -16.45 L-5.7 -14.95 -4.1 -14.9 -4.7 -16.45"/><path fill="#a19270" stroke="none" d="M-5.7 -37.75 L-5.65 -37.65 -5.6 -37.65 -5.6 -37.75 -5.7 -37.75 M5.0 -2.5 L5.75 -2.8 Q4.95 -2.55 4.45 -21.0 L4.5 -7.3 3.95 -9.25 4.05 -7.3 4.2 -6.8 4.35 -5.75 4.65 -4.15 5.0 -2.5"/><path fill="#856125" stroke="none" d="M-7.5 -36.0 Q-7.85 -34.35 -9.15 -34.15 L-3.35 -23.65 3.15 -6.35 -2.45 -23.8 -7.5 -36.0 M-5.6 -37.65 L-5.65 -37.65 -1.2 -25.4 -4.85 -38.6 Q-5.05 -37.25 -5.6 -37.65 M-4.25 -20.4 L-4.4 -20.2 -3.7 -14.15 -0.5 -8.1 0.45 -8.35 -4.25 -20.4"/><path fill="#ccbd9b" stroke="none" d="M-5.7 -37.75 L-5.75 -37.65 -5.65 -37.65 -5.7 -37.75"/><path fill="#6c4913" stroke="none" d="M-10.0 -33.4 L-10.1 -31.6 -5.35 -21.65 -4.25 -20.4 -4.0 -20.75 -4.25 -20.4 0.45 -8.35 -0.5 -8.1 0.95 -5.1 2.25 -5.4 1.1 -8.45 Q-1.35 -14.8 -4.0 -20.75 -6.9 -27.35 -10.0 -33.4 M6.25 -7.05 L6.75 -7.85 6.65 -11.45 6.1 -10.7 6.25 -7.05 M0.45 -8.35 L1.1 -8.45 0.45 -8.35"/><path fill="#c1ab79" stroke="none" d="M-6.25 -20.3 L-6.35 -19.95 -5.6 -18.7 -4.4 -20.2 -4.25 -20.4 -6.25 -20.3 M-5.7 -14.95 L-6.1 -14.4 -5.75 -13.4 -4.1 -14.9 -5.7 -14.95 M5.75 -2.8 L5.85 -2.8 6.4 -3.0 6.25 -7.05 6.1 -10.7 5.05 -35.75 4.9 -38.05 3.55 -39.1 4.45 -21.0 Q4.95 -2.55 5.75 -2.8"/><path fill="#94763a" stroke="none" d="M-0.55 -4.45 L1.25 -4.7 0.95 -5.1 -0.5 -8.1 -3.7 -14.15 -4.1 -14.9 -5.75 -13.4 -0.55 -4.45"/><path fill="#987944" stroke="none" d="M-5.6 -18.7 L-4.7 -16.45 -4.1 -14.9 -3.7 -14.15 -4.4 -20.2 -5.6 -18.7"/><path fill="#6b511e" stroke="none" d="M-5.75 -13.4 L-5.6 -12.45 -1.15 -4.45 -0.55 -4.45 -5.75 -13.4"/><path fill="#aa8f62" stroke="none" d="M0.95 -36.5 Q3.25 -26.05 3.9 -10.25 L3.95 -9.25 4.5 -7.3 4.45 -21.0 3.55 -39.1 3.4 -39.2 3.05 -39.4 Q0.6 -41.15 0.95 -36.5"/><path fill="#684711" stroke="none" d="M6.75 -7.85 L6.95 -8.0 7.15 -26.4 Q6.8 -25.85 6.55 -26.8 L6.65 -11.45 6.75 -7.85"/><path fill="#95723a" stroke="none" d="M6.55 -26.8 L6.5 -34.7 5.05 -35.75 6.1 -10.7 6.65 -11.45 6.55 -26.8"/><path fill="#856123" stroke="none" d="M6.95 -8.0 L7.15 -8.1 8.45 -25.5 7.15 -26.4 6.95 -8.0"/><path fill="#d3cb89" stroke="none" d="M-0.4 -42.05 L0.95 -36.5 Q0.6 -41.15 3.05 -39.4 L-0.4 -42.05"/><path fill="#826f57" stroke="none" d="M3.9 -10.25 L3.8 -9.9 3.85 -8.15 4.05 -7.3 3.95 -9.25 3.9 -10.25"/><path fill="#4e3410" stroke="none" d="M2.25 -5.4 L3.3 -3.0 4.65 -4.15 4.35 -5.75 4.2 -6.8 2.25 -5.4"/><path fill="none" stroke="#000000" stroke-width="0.5" stroke-opacity="0.321568627451" d="M-0.95 -38.15 L-1.35 -40.7 -0.4 -42.05 M-2.75 -37.35 L-2.1 -37.7 -1.95 -37.7 M-1.35 -37.95 L-1.8 -37.75 -1.95 -37.7 M-4.85 -38.6 L-3.5 -40.0 -2.75 -37.35 M-5.75 -37.65 L-5.7 -37.75 M-5.75 -37.65 L-7.5 -36.0 Q-7.85 -34.35 -9.15 -34.15 L-10.0 -33.4 -10.1 -31.6 -5.35 -21.65 -6.25 -20.3 -6.35 -19.95 -5.6 -18.7 -4.7 -16.45 -5.7 -14.95 -6.1 -14.4 -5.75 -13.4 -5.6 -12.45 -1.15 -4.45 -0.55 -4.45 M2.25 -5.4 L3.3 -3.0 Q3.9 -2.25 4.05 -0.6 L5.15 0.5 M6.95 -8.0 L7.15 -8.1 8.45 -25.5 7.15 -26.4 M6.55 -26.8 L6.5 -34.7 5.05 -35.75 4.9 -38.05 3.55 -39.1 M3.05 -39.4 L-0.4 -42.05 M-4.85 -38.6 Q-5.05 -37.25 -5.6 -37.65"/><path fill="none" stroke="#332720" stroke-width="0.5" stroke-opacity="0.152941176471" d="M3.9 -10.25 L3.8 -9.9 3.85 -8.15 M-0.4 -38.4 Q-0.7 -38.25 -0.95 -38.15 M-0.55 -4.45 L1.25 -4.7 0.95 -5.1 2.25 -5.4 1.1 -8.45 0.45 -8.35 -0.5 -8.1 0.95 -5.1 M5.15 0.5 L5.0 -2.5 5.75 -2.8 5.85 -2.8 6.4 -3.0 6.25 -7.05 6.75 -7.85 6.95 -8.0 M7.15 -26.4 Q6.8 -25.85 6.55 -26.8 M3.4 -39.2 L3.05 -39.4 M-5.6 -37.65 L-5.6 -37.75 -5.7 -37.75 M-4.25 -20.4 L-4.4 -20.2 -5.6 -18.7 M-4.0 -20.75 L-4.25 -20.4 M-4.7 -16.45 L-4.1 -14.9 -5.75 -13.4 -0.55 -4.45 M6.75 -7.85 L6.65 -11.45 6.1 -10.7 6.25 -7.05"/><path fill="none" stroke="#000000" stroke-width="0.5" stroke-opacity="0.172549019608" d="M-0.95 -38.15 L-1.35 -37.95 M0.4 -30.6 Q-0.3 -36.05 -1.35 -37.95"/><path fill="none" stroke="#eee1c4" stroke-width="0.5" stroke-opacity="0.690196078431" d="M-4.1 -14.9 L-3.7 -14.15 -0.5 -8.1 M6.65 -11.45 L6.55 -26.8 M6.1 -10.7 L5.05 -35.75"/><path fill="none" stroke="#d2b660" stroke-width="0.5" stroke-opacity="0.690196078431" d="M4.05 -7.3 L4.2 -6.8 4.35 -5.75 4.65 -4.15 5.0 -2.5"/><path fill="#6d4e15" stroke="none" d="M-1.3 -7.35 L0.45 -7.35 0.5 -7.55 0.95 -8.45 Q1.6 -8.1 2.2 -7.8 L3.75 -8.5 3.8 -8.3 3.6 -7.75 3.8 -7.75 3.95 -5.35 2.9 -6.5 3.45 -4.8 0.95 -4.5 -1.1 -6.95 -1.3 -7.35 M1.55 -7.55 L1.7 -7.9 1.55 -7.55 M2.8 -7.7 L2.75 -7.45 2.7 -7.3 2.7 -7.25 2.7 -7.2 2.8 -6.9 2.9 -6.5 2.8 -6.9 2.7 -7.2 2.7 -7.25 2.7 -7.3 2.75 -7.45 2.8 -7.7 M1.7 -7.9 L1.7 -7.95 1.7 -7.9"/><path fill="none" stroke="#000000" stroke-width="0.5" stroke-opacity="0.450980392157" d="M-1.3 -7.35 L-1.1 -6.95 0.95 -4.5 3.45 -4.8 2.9 -6.5 2.8 -6.9 2.7 -7.2 2.7 -7.25 2.7 -7.3 2.75 -7.45 2.8 -7.7 M1.7 -7.9 L1.55 -7.55 M2.9 -6.5 L3.95 -5.35"/><path fill="#2b1100" stroke="none" d="M3.75 -5.4 Q4.4 -6.25 3.65 -8.45 L3.1 -8.5 2.45 -8.6 2.35 -8.6 0.9 -9.0 -0.45 -9.15 -0.6 -9.15 -1.05 -8.45 Q-1.4 -7.75 -0.05 -5.7 1.3 -5.1 2.65 -5.2 L3.75 -5.4"/><path fill="none" stroke="#332720" stroke-width="0.5" d="M3.75 -5.4 Q4.4 -6.25 3.65 -8.45 L3.1 -8.5 2.45 -8.6 2.35 -8.6 0.9 -9.0 -0.45 -9.15 -0.6 -9.15 -1.05 -8.45 Q-1.4 -7.75 -0.05 -5.7 1.3 -5.1 2.65 -5.2 L3.75 -5.4 3.7 -4.6"/><path fill="#a88859" stroke="none" d="M4.2 -9.8 L4.6 -7.95 4.9 -6.9 3.85 -6.8 3.55 -6.8 3.5 -7.3 4.3 -7.2 Q3.85 -8.6 3.65 -10.05 L4.2 -9.8 M2.85 -6.85 L1.35 -7.25 1.2 -7.7 2.85 -7.2 2.85 -6.85 M0.95 -7.35 L0.35 -7.55 -0.65 -7.9 -0.7 -8.95 -0.85 -9.8 0.5 -9.7 0.5 -10.4 0.65 -10.4 0.95 -8.5 0.95 -8.25 0.95 -7.35 M0.6 -9.3 L0.2 -9.45 -0.35 -9.35 -0.3 -8.15 0.8 -7.85 0.6 -9.3"/><path fill="#c0aa8b" stroke="none" d="M0.65 -10.4 L1.25 -10.3 2.55 -10.25 2.85 -9.5 3.65 -10.05 Q3.85 -8.6 4.3 -7.2 L3.5 -7.3 3.3 -7.95 3.25 -7.3 3.0 -7.35 2.8 -7.85 2.85 -7.2 1.2 -7.7 1.05 -8.25 0.95 -8.5 0.65 -10.4 M0.6 -9.3 L0.8 -7.85 -0.3 -8.15 -0.35 -9.35 0.2 -9.45 0.6 -9.3 M3.15 -9.0 Q3.05 -8.7 3.3 -7.95 3.05 -8.7 3.15 -9.0"/><path fill="#51391c" stroke="none" d="M1.05 -8.25 L0.95 -8.25 0.95 -8.5 1.05 -8.25"/><path fill="#998d6f" stroke="none" d="M1.35 -7.25 L0.95 -7.35 0.95 -8.25 1.05 -8.25 1.2 -7.7 1.35 -7.25"/><path fill="#7e6024" stroke="none" d="M3.55 -6.8 L2.85 -6.85 2.85 -7.2 2.8 -7.85 3.0 -7.35 3.25 -7.3 3.3 -7.95 3.5 -7.3 3.55 -6.8"/><path fill="none" stroke="#332720" stroke-width="0.5" stroke-opacity="0.450980392157" d="M4.2 -9.8 L4.6 -7.95 4.9 -6.9 3.85 -6.8 3.55 -6.8 2.85 -6.85 1.35 -7.25 0.95 -7.35 0.35 -7.55 -0.65 -7.9 -0.7 -8.95 -0.85 -9.8 -1.0 -10.35 M0.95 -8.25 L0.95 -7.35 M3.5 -7.3 L3.3 -7.95 Q3.05 -8.7 3.15 -9.0 M3.55 -6.8 L3.5 -7.3"/><path fill="#2b1100" stroke="none" d="M5.95 -9.6 L6.2 -6.3 Q7.25 -7.3 8.0 -8.8 L8.05 -8.95 7.0 -11.0 6.6 -10.45 5.95 -9.6"/><path fill="none" stroke="#332720" stroke-width="0.5" d="M6.2 -6.3 Q7.25 -7.3 8.0 -8.8 L8.05 -8.95 7.0 -11.0 6.6 -10.45 5.95 -9.6"/><path fill="#c0aa8b" stroke="none" d="M8.1 -11.9 L8.7 -11.5 8.15 -10.3 7.6 -9.35 7.5 -9.25 Q7.1 -9.6 6.95 -10.35 L8.1 -11.9 M7.45 -9.15 L6.75 -7.8 Q6.2 -8.05 5.85 -8.75 L5.65 -9.35 6.7 -10.4 6.8 -10.15 Q7.05 -9.45 7.45 -9.15 M7.8 -10.85 L8.15 -10.3 7.8 -10.85"/><path fill="#ab8f60" stroke="none" d="M7.5 -9.25 L7.45 -9.15 Q7.05 -9.45 6.8 -10.15 L6.7 -10.4 6.4 -10.95 6.7 -10.4 5.65 -9.35 5.45 -10.15 6.4 -10.95 6.15 -11.55 6.9 -12.3 Q7.05 -11.75 7.2 -11.85 L7.75 -12.65 8.1 -11.9 6.95 -10.35 Q7.1 -9.6 7.5 -9.25"/><path fill="none" stroke="#332720" stroke-width="0.5" stroke-opacity="0.450980392157" d="M8.1 -11.9 L8.7 -11.5 8.15 -10.3 7.6 -9.35 7.5 -9.25 7.45 -9.15 6.75 -7.8 Q6.2 -8.05 5.85 -8.75 L5.65 -9.35 5.45 -10.15 M7.75 -12.65 L8.1 -11.9 M6.7 -10.4 L6.8 -10.15 Q7.05 -9.45 7.45 -9.15 M6.4 -10.95 L6.7 -10.4 M8.15 -10.3 L7.8 -10.85"/><path fill="#a8a819" fill-opacity="0.352941176471" d="M-0.7 -19.05 L0.45 -19.4 -0.25 -21.7 Q0.0 -19.4 -0.7 -19.05"/><path fill="none" stroke="#332720" stroke-width="0.5" stroke-opacity="0.301960784314" d="M3.55 -39.05 L4.0 -33.8 M1.85 -40.2 L2.25 -37.75 M5.3 -2.6 L5.2 -3.8"/><path fill="none" stroke="#332720" stroke-width="0.5" stroke-opacity="0.2" d="M-1.85 -27.5 L-0.9 -24.0 M1.15 -24.8 L1.05 -26.25 M-7.55 -35.8 L-6.05 -32.05 M1.15 -17.4 L3.35 -10.15 Q1.45 -18.4 1.15 -24.5 M-1.0 -9.7 Q-1.9 -12.65 -2.75 -14.35 M0.75 -13.2 L0.2 -14.65 M1.75 -10.15 L0.95 -12.35 M-0.25 -21.7 L0.45 -19.4 -0.7 -19.05 M0.45 -19.4 L0.8 -18.05 M-3.45 -15.5 Q-4.05 -16.5 -4.6 -16.75"/><path fill="#c1ab79" stroke="none" d="M5.25 -4.65 L5.75 -2.0 6.15 0.0 6.35 0.0 6.35 -6.0 Q6.2 -5.35 5.25 -4.65"/><path fill="#a28452" stroke="none" d="M5.75 -2.0 L5.25 -4.65 Q4.75 -4.85 4.3 -6.15 L5.1 0.45 5.6 0.2 5.75 -2.0 5.6 0.2 6.15 0.0 5.75 -2.0"/><path fill="none" stroke="#000000" stroke-width="0.5" stroke-opacity="0.2" d="M5.6 0.2 L5.1 0.45 M6.35 -6.0 L6.35 0.0 6.15 0.0 M5.6 0.2 L6.15 0.0"/><path fill="none" stroke="#453d27" stroke-width="0.5" stroke-opacity="0.2" d="M5.75 -2.0 L5.6 0.2"/><path fill="#634e1d" stroke="none" d="M6.3 -9.8 L6.1 -25.25 5.55 -10.5 6.3 -9.8"/><path fill="#d6882a" stroke="none" d="M3.85 -28.7 L3.85 -28.75 5.65 -27.95 5.55 -27.75 5.45 -27.6 Q5.2 -27.8 5.35 -27.55 L5.3 -27.5 3.6 -28.2 3.85 -28.7"/><path fill="#000000" fill-opacity="0.152941176471" d="M5.55 -27.75 L6.0 -27.5 5.45 -27.6 5.55 -27.75"/><path fill="#96551b" stroke="none" d="M3.6 -28.2 L3.55 -28.25 Q2.4 -28.85 1.8 -29.6 L2.1 -30.1 Q2.7 -29.4 3.85 -28.7 L3.6 -28.2"/><path fill="none" stroke="#000000" stroke-width="0.5" stroke-opacity="0.152941176471" d="M3.85 -28.7 L3.85 -28.75 5.65 -27.95 5.55 -27.75 6.0 -27.5 6.65 -27.2 M5.55 -27.75 L5.45 -27.6 Q5.2 -27.8 5.35 -27.55 L5.3 -27.5 3.6 -28.2 3.55 -28.25 Q2.4 -28.85 1.8 -29.6 L2.1 -30.1 Q2.7 -29.4 3.85 -28.7 M6.35 -26.7 L6.8 -26.25"/><path fill="#d6882a" stroke="none" d="M3.75 -28.65 L3.7 -28.7 5.15 -29.85 5.3 -29.6 5.3 -29.4 Q5.05 -29.3 5.35 -29.25 L5.35 -29.2 4.1 -28.1 3.75 -28.65"/><path fill="#000000" fill-opacity="0.152941176471" d="M5.3 -29.6 L5.65 -29.8 5.3 -29.4 5.3 -29.6"/><path fill="#96551b" stroke="none" d="M4.1 -28.1 L4.05 -28.1 Q3.15 -27.55 2.25 -27.45 L1.95 -28.0 Q2.75 -28.15 3.75 -28.65 L4.1 -28.1"/><path fill="none" stroke="#000000" stroke-width="0.5" stroke-opacity="0.152941176471" d="M3.75 -28.65 L3.7 -28.7 5.15 -29.85 5.3 -29.6 5.65 -29.8 6.15 -30.2 M5.3 -29.6 L5.3 -29.4 Q5.05 -29.3 5.35 -29.25 L5.35 -29.2 4.1 -28.1 4.05 -28.1 Q3.15 -27.55 2.25 -27.45 L1.95 -28.0 Q2.75 -28.15 3.75 -28.65 M6.5 -29.65 L7.05 -29.75"/><path fill="#000000" fill-opacity="0.152941176471" d="M6.75 -15.4 L7.15 -15.45 6.7 -15.25 6.75 -15.4"/><path fill="#d6882a" stroke="none" d="M6.75 -15.4 L6.7 -15.25 Q6.5 -15.25 6.65 -15.15 L6.65 -15.05 5.3 -14.65 5.3 -15.25 5.3 -15.35 6.75 -15.65 6.75 -15.4"/><path fill="#96551b" stroke="none" d="M5.3 -14.65 L5.25 -14.65 3.65 -14.8 3.7 -15.4 5.3 -15.25 5.3 -14.65"/><path fill="none" stroke="#000000" stroke-width="0.5" stroke-opacity="0.152941176471" d="M7.15 -15.45 L6.75 -15.4 6.7 -15.25 Q6.5 -15.25 6.65 -15.15 L6.65 -15.05 5.3 -14.65 5.25 -14.65 3.65 -14.8 3.7 -15.4 5.3 -15.25 5.3 -15.35 6.75 -15.65 6.75 -15.4 M7.15 -15.45 L7.7 -15.6 M7.7 -15.0 L8.1 -14.85"/><path fill="#d6882a" stroke="none" d="M-1.45 -11.9 L-1.45 -12.0 -2.55 -11.75 -2.5 -11.45 -2.5 -11.35 Q-2.35 -11.4 -2.45 -11.2 L-2.45 -11.15 -1.4 -11.25 -1.45 -11.9"/><path fill="#000000" fill-opacity="0.152941176471" d="M-2.5 -11.45 L-2.85 -11.35 -2.5 -11.35 -2.5 -11.45"/><path fill="#96551b" stroke="none" d="M-1.4 -11.25 L-1.4 -11.3 -0.25 -12.1 -0.35 -12.7 Q-0.8 -12.25 -1.45 -11.9 L-1.4 -11.25"/><path fill="none" stroke="#000000" stroke-width="0.5" stroke-opacity="0.152941176471" d="M-1.45 -11.9 L-1.45 -12.0 -2.55 -11.75 -2.5 -11.45 -2.85 -11.35 -3.2 -11.3 M-2.5 -11.45 L-2.5 -11.35 Q-2.35 -11.4 -2.45 -11.2 L-2.45 -11.15 -1.4 -11.25 -1.4 -11.3 -0.25 -12.1 -0.35 -12.7 Q-0.8 -12.25 -1.45 -11.9 M-3.1 -10.65 L-3.4 -10.3"/></g><g id="c11"><g><use transform="matrix(1.0,0.0,0.0,1.0,0.0,0.0)" xlink:href="#c10"/></g></g><g id="c12"><g><use transform="matrix(1.0,0.0,0.0,1.0,10.1,42.05)" xlink:href="#c11"/></g></g><filter id="filter14"><feColorMatrix in="SourceGraphic" type="matrix" values="1.0 0.0 0.0 0.0 0.0 0.0 1.0 0.0 0.0 0.0 0.0 0.0 1.0 0.0 0.0 0.0 0.0 0.0 0.23046875 0.0" result="cxform"/><feComposite operator="in" in2="SourceGraphic" result="color-xform"/></filter></defs><g><g><use transform="matrix(1.0,0.0,0.0,1.0,0.0,0.0)" xlink:href="#c1"/></g><g><use transform="matrix(1.15496826172,0.0,0.0,1.15496826172,5.85,4.8)" xlink:href="#c9"/></g><g><use transform="matrix(0.676406860352,-0.322357177734,0.322357177734,0.676406860352,16.8,18.8)" xlink:href="#c12"/></g><g><use transform="matrix(0.162948608398,-0.0436706542969,0.128631591797,0.260604858398,30.0,28.7)" filter="url(#filter14)" xlink:href="#c6"/></g></g></svg>