<?xml version='1.0' encoding='UTF-8'?>
<svg xmlns:xlink="http://www.w3.org/1999/xlink" xmlns="http://www.w3.org/2000/svg" version="1.1" width="60px" height="60px" viewBox="0.0 0.0 60.0 60.0"><defs><g id="c1"><path fill="#000000" fill-opacity="0.00392156862745" d="M0.0 0.0 L60.0 0.0 60.0 60.0 0.0 60.0 0.0 0.0"/></g><g id="c2"><path fill="none" stroke="#000000" stroke-width="1.0" stroke-opacity="0.301960784314" d="M0.7 12.25 Q-0.45 9.75 0.75 8.25 1.2 7.6 2.15 7.15 2.8 6.7 3.8 6.35 L17.5 1.95 30.2 7.0 41.35 31.7 Q42.95 35.15 40.2 36.7 39.5 37.3 38.3 37.65 L25.5 41.8 25.45 41.75 24.55 42.0 11.85 37.0 0.7 12.25"/><path fill="#9d147b" stroke="none" d="M35.55 22.3 L31.5 13.2 29.75 9.2 16.95 4.25 5.5 7.85 Q1.65 9.1 3.35 12.8 L8.25 23.65 13.1 34.35 25.8 39.4 37.2 35.7 Q41.1 34.5 39.35 30.75 L35.55 22.3 M5.45 20.95 L1.35 11.8 Q0.4 9.65 1.1 8.3 1.45 7.65 2.15 7.15 2.8 6.7 3.8 6.35 L17.5 1.95 30.2 7.0 41.35 31.7 Q42.95 35.15 40.2 36.7 L38.9 37.25 25.2 41.65 12.5 36.65 5.45 20.95"/><path fill="#c47fad" stroke="none" d="M31.5 13.2 L35.55 22.3 39.35 30.75 Q41.1 34.5 37.2 35.7 L25.8 39.4 13.1 34.35 8.25 23.65 3.35 12.8 Q1.65 9.1 5.5 7.85 L16.95 4.25 29.75 9.2 31.5 13.2 M18.5 7.45 L9.1 10.55 9.55 11.6 Q9.8 12.8 9.15 13.6 8.4 14.45 7.1 14.4 L6.8 14.4 6.95 14.6 15.2 32.75 23.85 36.2 34.0 32.9 33.7 32.1 Q33.45 30.9 34.1 30.1 34.75 29.3 35.95 29.35 L35.8 29.0 27.75 10.95 18.5 7.45"/><path fill="#fcf2cf" stroke="none" d="M27.75 10.95 L35.8 29.0 35.95 29.35 Q34.75 29.3 34.1 30.1 33.45 30.9 33.7 32.1 L34.0 32.9 23.85 36.2 15.2 32.75 6.95 14.6 6.8 14.4 7.1 14.4 Q8.4 14.45 9.15 13.6 9.8 12.8 9.55 11.6 L9.1 10.55 18.5 7.45 27.75 10.95"/><path fill="#630a4c" stroke="none" d="M1.1 8.3 L0.75 8.25 Q1.2 7.6 2.15 7.15 1.45 7.65 1.1 8.3 M4.6 20.9 L5.45 20.95 12.5 36.65 11.55 36.25 11.25 35.55 4.6 20.9"/><path fill="#300525" stroke="none" d="M1.1 8.3 Q0.4 9.65 1.35 11.8 L5.45 20.95 4.6 20.9 0.7 12.25 Q-0.45 9.75 0.75 8.25 L1.1 8.3 M12.5 36.65 L25.2 41.65 38.9 37.25 40.2 36.7 Q39.5 37.3 38.3 37.65 L25.5 41.8 25.45 41.75 24.55 42.0 11.85 37.0 11.55 36.25 12.5 36.65"/><path fill="none" stroke="#bf9900" stroke-width="1.0" stroke-opacity="0.749019607843" d="M31.5 13.2 L35.55 22.3 M13.1 34.35 L8.25 23.65"/><path fill="none" stroke="#ffcc00" stroke-width="1.0" stroke-opacity="0.749019607843" d="M35.55 22.3 L39.35 30.75 Q41.1 34.5 37.2 35.7 L25.8 39.4 M8.25 23.65 L3.35 12.8 Q1.65 9.1 5.5 7.85 L16.95 4.25 29.75 9.2 31.5 13.2"/><path fill="none" stroke="#f0b92b" stroke-width="0.5" d="M27.75 10.95 L35.8 29.0 35.95 29.35 Q34.75 29.3 34.1 30.1 33.45 30.9 33.7 32.1 L34.0 32.9 23.85 36.2 15.2 32.75 6.95 14.6 6.8 14.4 7.1 14.4 Q8.4 14.45 9.15 13.6 9.8 12.8 9.55 11.6 L9.1 10.55 18.5 7.45"/><path fill="none" stroke="#000000" stroke-width="0.5" stroke-opacity="0.301960784314" d="M5.45 20.95 L1.35 11.8 Q0.4 9.65 1.1 8.3 M0.75 8.25 Q-0.45 9.75 0.7 12.25 L4.6 20.9 M5.45 20.95 L12.5 36.65 M25.2 41.65 L38.9 37.25 40.2 36.7 Q42.95 35.15 41.35 31.7 L30.2 7.0 M17.5 1.95 L3.8 6.35 Q2.8 6.7 2.15 7.15 1.45 7.65 1.1 8.3 M0.75 8.25 Q1.2 7.6 2.15 7.15 M11.25 35.55 L4.6 20.9 M25.5 41.8 L38.3 37.65 Q39.5 37.3 40.2 36.7"/><path fill="none" stroke="#ffcc00" stroke-width="0.5" stroke-opacity="0.749019607843" d="M18.5 7.45 L27.75 10.95"/><path fill="none" stroke="#f0b92b" stroke-width="1.0" stroke-opacity="0.749019607843" d="M25.8 39.4 L13.1 34.35"/><path fill="none" stroke="#432f2f" stroke-width="0.5" d="M12.5 36.65 L25.2 41.65"/></g><g id="c3"><path fill="#7fdbfe" stroke="none" d="M10.75 4.9 Q10.75 4.6 10.9 4.35 11.25 3.45 11.95 2.75 13.3 1.5 14.35 2.1 15.4 2.7 14.95 4.45 14.7 5.4 14.1 6.15 L13.75 6.5 Q13.1 7.15 12.35 7.35 L11.4 7.2 Q10.95 6.9 10.75 6.4 10.5 5.75 10.75 4.9 M7.5 5.9 Q7.0 5.85 6.6 5.5 6.05 5.0 5.8 4.15 L5.7 3.6 Q5.55 2.65 5.8 1.7 6.25 0.0 7.5 0.0 L7.6 0.0 Q8.85 0.0 9.3 1.7 9.55 2.65 9.4 3.6 L9.3 4.15 8.5 5.5 7.6 5.9 7.5 5.9 M4.35 4.9 Q4.6 5.75 4.35 6.4 L3.7 7.2 2.75 7.35 Q2.0 7.15 1.35 6.5 L1.0 6.15 Q0.4 5.4 0.15 4.45 -0.3 2.7 0.75 2.1 1.8 1.5 3.15 2.75 3.85 3.45 4.2 4.35 L4.35 4.9 M5.5 13.7 Q4.45 13.9 3.65 12.95 2.75 12.0 3.2 10.25 3.7 8.5 5.25 7.6 6.4 6.9 7.55 7.0 8.75 6.9 9.9 7.6 11.45 8.5 11.95 10.25 12.35 12.0 11.5 12.95 10.7 13.9 9.65 13.7 8.55 13.5 7.55 12.6 6.55 13.5 5.5 13.7"/></g><g id="c4"><g><use transform="matrix(1.0,0.0,0.0,1.0,0.0,0.0)" xlink:href="#c3"/></g></g><radialGradient gradientUnits="userSpaceOnUse" r="819.2" cx="0" cy="0" spreadMethod="pad" gradientTransform="matrix(0.0914459228516,0.0,0.0,0.0914459228516,0.6,3.4)" id="gradient1"><stop offset="0.0" stop-color="#ffffff"/><stop offset="1.0" stop-color="#ffffff" stop-opacity="0.0"/></radialGradient><g id="c5"><path stroke="none" fill="url(#gradient1)" d="M36.65 -54.65 Q60.05 -42.0 69.75 -17.95 80.55 8.9 68.0 34.1 55.45 59.35 26.8 68.2 -1.8 77.05 -29.7 64.3 -57.6 51.6 -68.45 24.75 -79.3 -2.05 -66.75 -27.25 L-66.7 -27.3 Q-54.1 -52.5 -25.5 -61.4 3.1 -70.2 31.0 -57.5 L36.65 -54.65"/></g><g id="c6"><g><use transform="matrix(1.0,0.0,0.0,1.0,0.0,0.0)" xlink:href="#c5"/></g></g><radialGradient gradientUnits="userSpaceOnUse" r="819.2" cx="0" cy="0" spreadMethod="pad" gradientTransform="matrix(0.209197998047,0.0,0.0,0.177108764648,67.15,107.2)" id="gradient2"><stop offset="0.356862745098" stop-color="#ffffff"/><stop offset="0.670588235294" stop-opacity="0.0"/></radialGradient><g id="c7"><path fill="none" stroke-linejoin="round" stroke-linecap="round" stroke="url(#gradient2)" stroke-width="0.5" d="M136.55 165.8 L68.6 106.0 68.4 106.0 118.25 201.5 M68.3 105.8 L68.35 105.8 68.3 105.8 68.3 105.85 68.4 106.0 68.3 106.0 86.55 211.5 M68.3 105.8 L68.3 105.85 68.3 106.0 68.15 105.95 18.25 151.55 M68.3 105.85 L68.25 105.85 68.3 106.0 50.0 193.2 M68.25 105.85 L68.15 105.95 0.05 97.7 M68.3 105.85 L68.25 105.8 68.25 105.85 M68.25 105.8 L68.2 105.7 0.0 45.7 M68.3 105.8 L68.25 105.75 68.25 105.8 M68.25 105.75 L68.2 105.7 18.25 10.05 M68.6 106.0 L68.35 105.8 118.25 60.15 M86.6 18.35 L68.3 105.8 M136.6 114.25 L68.6 106.0 M68.25 105.75 L49.95 0.05"/></g><g id="c8"><g><use transform="matrix(1.0,0.0,0.0,1.0,0.0,0.0)" xlink:href="#c7"/></g></g><g id="c9"><g><use transform="matrix(1.0,0.0,0.0,1.0,0.0,0.0)" xlink:href="#c2"/></g><g><use transform="matrix(0.238861083984,-0.0867004394531,0.10026550293,0.233917236328,34.25,31.15)" xlink:href="#c4"/></g><g><use transform="matrix(0.238861083984,-0.0867004394531,0.10026550293,0.233917236328,4.25,10.3)" xlink:href="#c4"/></g><g><use transform="matrix(0.141098022461,-0.0378112792969,0.111373901367,0.225646972656,20.25,20.65)" filter="url(#filter7)" xlink:href="#c6"/></g><g><use transform="matrix(-0.155029296875,0.0513153076172,0.0841827392578,0.147033691406,22.6,3.15)" filter="url(#filter8)" xlink:href="#c8"/></g></g><filter id="filter7"><feColorMatrix in="SourceGraphic" type="matrix" values="0.0 0.0 0.0 0.0 0.796875 0.0 0.0 0.0 0.0 0.59765625 0.0 0.0 0.0 0.0 0.19921875 0.0 0.0 0.0 1.0 0.0" result="cxform"/><feComposite operator="in" in2="SourceGraphic" result="color-xform"/></filter><filter id="filter8"><feColorMatrix in="SourceGraphic" type="matrix" values="0.0 0.0 0.0 0.0 0.99609375 0.0 0.0 0.0 0.0 0.99609375 0.0 0.0 0.0 0.0 0.99609375 0.0 0.0 0.0 1.0 0.0" result="cxform"/><feComposite operator="in" in2="SourceGraphic" result="color-xform"/></filter><g id="c10"><path fill="#b29b79" fill-opacity="0.501960784314" d="M-1.9 -9.25 L-6.3 -1.35 -7.7 0.55 -7.95 0.8 -10.8 4.55 -11.1 4.7 -10.8 4.55 -7.95 0.8 -7.7 0.55 -6.3 -1.35 -1.9 -9.25 M-8.0 6.75 L-9.4 9.75 -9.5 9.85 Q-10.5 9.35 -11.0 8.3 L-11.2 8.1 -12.15 6.2 -12.4 5.6 -12.4 5.25 Q-12.65 3.9 -11.7 2.2 L-10.7 0.35 -9.2 -2.2 -6.85 -5.25 -6.8 -5.4 -3.65 -8.7 Q-2.0 -9.5 -0.1 -10.95 L-3.65 -3.1 -4.25 -1.8 -5.6 1.25 -8.0 6.75 -7.95 0.8 -8.0 6.75"/><path fill="none" stroke="#ffffff" stroke-width="0.5" stroke-opacity="0.501960784314" d="M-8.0 6.75 L-5.6 1.25 -4.25 -1.8 -3.65 -3.1 -0.1 -10.95 Q-2.0 -9.5 -3.65 -8.7 L-6.8 -5.4 -6.85 -5.25 -9.2 -2.2 -10.7 0.35 -11.7 2.2 Q-12.65 3.9 -12.4 5.25 L-12.4 5.6 -12.15 6.2 -11.2 8.1 -11.0 8.3 Q-10.5 9.35 -9.5 9.85 L-9.4 9.75 -8.0 6.75"/><path fill="none" stroke="#2d4806" stroke-width="0.5" stroke-opacity="0.2" d="M-11.1 4.7 L-10.8 4.55 -7.95 0.8 -7.7 0.55 -6.3 -1.35 -1.9 -9.25 M-8.0 6.75 L-7.95 0.8"/><path fill="#b29b79" fill-opacity="0.501960784314" d="M3.2 -5.5 L3.2 -1.05 3.15 -0.8 2.75 3.0 2.0 5.9 1.5 7.9 Q1.05 9.75 -0.1 10.55 L-0.3 10.85 -0.9 11.05 -2.9 11.8 -3.15 11.8 -5.35 11.9 -5.35 11.8 -4.3 8.65 -2.2 3.05 -1.15 -0.15 -0.65 -1.45 2.2 -9.55 3.2 -5.5 M-0.65 9.25 L-0.75 8.95 -0.2 4.35 -4.3 8.65 -0.2 4.35 -0.25 4.0 0.1 1.6 2.3 -7.1 0.1 1.6 -0.25 4.0 -0.2 4.35 -0.75 8.95 -0.65 9.25"/><path fill="none" stroke="#ffffff" stroke-width="0.5" stroke-opacity="0.501960784314" d="M3.2 -5.5 L3.2 -1.05 3.15 -0.8 2.75 3.0 2.0 5.9 1.5 7.9 Q1.05 9.75 -0.1 10.55 L-0.3 10.85 -0.9 11.05 -2.9 11.8 -3.15 11.8 -5.35 11.9 -5.35 11.8 -4.3 8.65 -2.2 3.05 -1.15 -0.15 -0.65 -1.45 2.2 -9.55 3.2 -5.5"/><path fill="none" stroke="#2d4806" stroke-width="0.5" stroke-opacity="0.2" d="M-4.3 8.65 L-0.2 4.35 -0.25 4.0 0.1 1.6 2.3 -7.1 M-0.2 4.35 L-0.75 8.95 -0.65 9.25"/></g><g id="c11"><g><use transform="matrix(1.0,0.0,0.0,1.0,0.0,0.0)" xlink:href="#c10"/></g></g><g id="c12"><g><use transform="matrix(-1.0,0.0,0.0,1.0,0.0,0.0)" xlink:href="#c11"/></g></g><g id="c13"><path fill="#ffffff" stroke="none" d="M-4.1 1.15 L-5.55 -0.1 -8.0 2.5 Q-9.95 4.85 -10.95 7.85 L-9.45 7.4 -4.1 1.15"/><path fill="#707070" stroke="none" d="M-1.95 2.2 L-3.0 1.75 Q-3.35 1.5 -3.75 1.35 L-4.1 1.15 -9.45 7.4 -10.95 7.85 -8.45 9.65 -8.0 9.9 -7.9 10.0 -5.9 10.4 -4.8 10.5 -2.25 6.6 -1.95 2.2"/><path fill="#1a140d" stroke="none" d="M-1.05 12.95 L-0.95 12.95 -0.6 12.85 Q0.9 12.1 0.8 9.2 L0.4 3.05 Q0.0 5.55 -0.55 7.75 -1.15 10.4 -2.1 13.05 L-1.05 12.95"/><path fill="#333333" stroke="none" d="M-10.95 7.85 L-11.2 8.6 -10.8 9.35 -10.8 9.45 Q-10.15 10.8 -6.7 11.95 -3.1 13.15 -2.1 13.05 -1.15 10.4 -0.55 7.75 0.0 5.55 0.4 3.05 L-1.95 2.2 -2.25 6.6 -4.8 10.5 -5.9 10.4 -7.9 10.0 -8.0 9.9 -8.45 9.65 -10.95 7.85"/><path fill="#382510" fill-opacity="0.250980392157" d="M-10.8 9.45 Q-10.95 10.1 -10.35 11.5 -8.1 14.45 -2.7 14.2 -1.85 14.1 -1.05 12.95 L-2.1 13.05 Q-3.1 13.15 -6.7 11.95 -10.15 10.8 -10.8 9.45"/><path fill="none" stroke="#382510" stroke-width="0.5" stroke-opacity="0.301960784314" d="M-1.95 2.2 L-3.0 1.75 Q-3.35 1.5 -3.75 1.35 L-4.1 1.15 -5.55 -0.1 -8.0 2.5 Q-9.95 4.85 -10.95 7.85 L-11.2 8.6 -10.8 9.35 -10.8 9.45 Q-10.15 10.8 -6.7 11.95 -3.1 13.15 -2.1 13.05 L-1.05 12.95 -0.95 12.95 -0.6 12.85 Q0.9 12.1 0.8 9.2 L0.4 3.05 -1.95 2.2"/><path fill="#333333" stroke="none" d="M-7.2 1.55 Q-7.8 1.65 -8.1 2.2 -8.55 2.8 -8.4 3.4 -8.3 3.95 -7.7 4.25 -7.2 4.65 -6.6 4.55 -6.0 4.4 -5.65 3.85 -5.3 3.35 -5.4 2.8 -5.55 2.2 -6.05 1.8 -6.6 1.4 -7.2 1.55 M-10.1 7.4 Q-10.65 7.5 -11.05 8.0 -11.45 8.6 -11.3 9.2 L-10.65 10.05 Q-10.1 10.5 -9.55 10.4 -8.95 10.3 -8.6 9.65 -8.2 9.2 -8.3 8.6 -8.45 8.0 -9.0 7.6 L-10.1 7.4 M-3.7 5.45 Q-3.6 6.05 -3.0 6.35 -2.45 6.8 -1.9 6.65 -1.3 6.55 -0.95 5.95 -0.6 5.5 -0.7 4.9 -0.8 4.35 -1.35 3.85 L-2.5 3.65 Q-3.05 3.8 -3.4 4.25 -3.8 4.9 -3.7 5.45 M-6.1 9.75 Q-6.5 10.35 -6.35 10.95 -6.25 11.55 -5.65 11.85 -5.2 12.25 -4.6 12.15 L-3.6 11.4 Q-3.25 10.95 -3.35 10.35 -3.5 9.75 -4.05 9.3 L-5.15 9.15 Q-5.75 9.25 -6.1 9.75"/><path fill="#64431c" stroke="none" d="M-7.85 1.7 Q-7.55 2.6 -6.45 3.55 L-4.7 4.55 -3.5 5.1 -3.15 5.2 -0.8 5.6 -0.6 4.45 -2.55 3.9 -3.5 3.5 -4.05 3.25 -6.6 1.65 Q-7.4 1.05 -7.55 1.25 L-7.85 1.7"/><path fill="none" stroke="#382510" stroke-width="0.5" stroke-opacity="0.301960784314" d="M-7.85 1.7 Q-7.55 2.6 -6.45 3.55 L-4.7 4.55 -3.5 5.1 -3.15 5.2 -0.8 5.6 -0.6 4.45 -2.55 3.9 -3.5 3.5 -4.05 3.25 -6.6 1.65 Q-7.4 1.05 -7.55 1.25 L-7.85 1.7"/><path fill="#64431c" stroke="none" d="M-10.8 7.35 Q-10.5 8.15 -9.4 9.1 L-7.75 10.1 -6.6 10.6 -6.3 10.7 -4.05 11.1 -3.8 9.95 -5.7 9.4 -6.65 9.05 -7.15 8.8 -9.55 7.3 Q-10.3 6.75 -10.45 6.9 L-10.8 7.35"/><path fill="none" stroke="#382510" stroke-width="0.5" stroke-opacity="0.301960784314" d="M-10.8 7.35 Q-10.5 8.15 -9.4 9.1 L-7.75 10.1 -6.6 10.6 -6.3 10.7 -4.05 11.1 -3.8 9.95 -5.7 9.4 -6.65 9.05 -7.15 8.8 -9.55 7.3 Q-10.3 6.75 -10.45 6.9 L-10.8 7.35"/><path fill="#989898" stroke="none" d="M-6.6 0.55 Q-7.2 0.45 -7.7 0.9 -8.2 1.3 -8.3 1.95 L-8.05 2.85 -7.85 3.1 -6.8 3.7 Q-6.1 3.65 -5.65 3.25 -5.15 2.8 -5.1 2.15 -5.1 1.5 -5.5 1.05 L-6.0 0.55 -6.6 0.55 M-11.1 8.15 L-10.85 9.1 -10.7 9.35 Q-10.25 9.8 -9.65 9.85 -8.95 9.9 -8.45 9.45 -8.0 9.0 -7.95 8.4 -7.9 7.7 -8.35 7.2 L-8.85 6.8 -9.4 6.7 Q-10.05 6.65 -10.55 7.05 -11.05 7.45 -11.1 8.15 M-3.9 8.55 L-4.45 8.5 Q-5.15 8.45 -5.65 8.85 -6.1 9.2 -6.2 9.9 L-5.9 10.85 -5.75 11.05 -4.65 11.65 Q-4.0 11.65 -3.55 11.2 -3.05 10.75 -3.05 10.1 -2.95 9.45 -3.4 9.0 L-3.9 8.55 M-1.5 3.05 Q-2.25 2.95 -2.75 3.4 -3.2 3.8 -3.25 4.45 L-3.05 5.4 -2.9 5.6 -1.8 6.25 Q-1.1 6.2 -0.6 5.8 -0.2 5.4 -0.1 4.7 -0.05 4.05 -0.5 3.55 L-1.0 3.1 -1.5 3.05"/><path fill="none" stroke="#382510" stroke-width="0.5" stroke-opacity="0.301960784314" d="M-6.6 0.55 Q-7.2 0.45 -7.7 0.9 -8.2 1.3 -8.3 1.95 L-8.05 2.85 -7.85 3.1 -6.8 3.7 Q-6.1 3.65 -5.65 3.25 -5.15 2.8 -5.1 2.15 -5.1 1.5 -5.5 1.05 L-6.0 0.55 -6.6 0.55 M-11.1 8.15 L-10.85 9.1 -10.7 9.35 Q-10.25 9.8 -9.65 9.85 -8.95 9.9 -8.45 9.45 -8.0 9.0 -7.95 8.4 -7.9 7.7 -8.35 7.2 L-8.85 6.8 -9.4 6.7 Q-10.05 6.65 -10.55 7.05 -11.05 7.45 -11.1 8.15 M-3.9 8.55 L-4.45 8.5 Q-5.15 8.45 -5.65 8.85 -6.1 9.2 -6.2 9.9 L-5.9 10.85 -5.75 11.05 -4.65 11.65 Q-4.0 11.65 -3.55 11.2 -3.05 10.75 -3.05 10.1 -2.95 9.45 -3.4 9.0 L-3.9 8.55 M-1.5 3.05 Q-2.25 2.95 -2.75 3.4 -3.2 3.8 -3.25 4.45 L-3.05 5.4 -2.9 5.6 -1.8 6.25 Q-1.1 6.2 -0.6 5.8 -0.2 5.4 -0.1 4.7 -0.05 4.05 -0.5 3.55 L-1.0 3.1 -1.5 3.05"/><path fill="#c4c4c4" stroke="none" d="M-5.3 1.55 L-5.6 1.05 -6.15 0.95 Q-6.45 1.0 -6.6 1.25 L-6.7 1.8 -6.4 2.25 -5.85 2.35 -5.4 2.05 -5.3 1.55 M-9.4 7.4 L-9.5 7.95 -9.2 8.35 -8.65 8.5 -8.2 8.15 -8.1 7.7 -8.4 7.2 -8.95 7.1 Q-9.25 7.15 -9.4 7.4 M-4.55 9.2 L-4.7 9.75 -4.4 10.15 Q-4.15 10.4 -3.9 10.35 L-3.45 10.0 -3.3 9.5 -3.6 9.05 -4.15 8.95 -4.55 9.2 M-1.65 3.6 L-1.8 4.15 -1.5 4.6 -1.0 4.75 -0.55 4.45 -0.4 3.9 -0.7 3.45 -1.25 3.35 -1.65 3.6"/></g><g id="c14"><path fill="#b29b79" fill-opacity="0.301960784314" d="M17.15 7.0 L20.55 9.75 23.0 11.7 17.15 12.3 13.95 10.3 11.8 8.45 17.15 7.0 M25.0 25.05 L24.95 25.05 21.35 21.45 17.45 12.45 21.0 14.65 25.0 25.05"/><path fill="#b29b79" fill-opacity="0.701960784314" d="M17.15 7.0 L11.8 8.45 13.95 10.3 17.15 12.3 17.45 12.45 21.35 21.45 14.8 14.85 11.15 11.15 9.7 9.7 9.7 6.65 7.4 4.75 11.9 3.65 12.35 3.9 17.15 7.0 M25.85 15.9 L26.0 16.45 26.1 17.55 26.15 21.15 26.1 21.6 Q26.05 23.7 25.0 25.05 L21.0 14.65 23.4 16.05 23.8 16.1 25.85 15.9 M11.8 8.45 L9.7 6.65 11.8 8.45"/><path fill="#b29b79" fill-opacity="0.501960784314" d="M17.15 12.3 L23.0 11.7 Q25.25 13.85 25.85 15.9 L23.8 16.1 23.4 16.05 21.0 14.65 17.45 12.45 17.15 12.3 M9.7 9.7 L0.25 0.15 6.05 1.05 Q9.05 2.05 11.9 3.65 L7.4 4.75 9.7 6.65 9.7 9.7 M7.4 4.75 L3.6 1.5 7.4 4.75"/><path fill="none" stroke="#ffffff" stroke-width="0.5" stroke-opacity="0.301960784314" d="M23.0 11.7 L20.55 9.75 17.15 7.0 M23.0 11.7 Q25.25 13.85 25.85 15.9 L26.0 16.45 26.1 17.55 26.15 21.15 26.1 21.6 Q26.05 23.7 25.0 25.05 L24.95 25.05 21.35 21.45 14.8 14.85 11.15 11.15 9.7 9.7 0.25 0.15 6.05 1.05 Q9.05 2.05 11.9 3.65 L12.35 3.9 17.15 7.0"/><path fill="none" stroke="#2d4806" stroke-width="0.5" stroke-opacity="0.2" d="M11.8 8.45 L13.95 10.3 17.15 12.3 17.45 12.45 21.0 14.65 23.4 16.05 23.8 16.1 M3.6 1.5 L7.4 4.75 M9.7 6.65 L7.4 4.75 M9.7 6.65 L11.8 8.45 M17.45 12.45 L21.35 21.45"/></g><g id="c15"><g><use transform="matrix(1.0,0.0,0.0,1.0,0.0,0.0)" xlink:href="#c14"/></g></g><g id="c16"><path fill="#e2e4d6" fill-opacity="0.501960784314" d="M-15.25 10.85 Q-15.3 10.4 -15.65 10.2 L-16.5 10.05 -17.15 10.45 Q-17.45 10.75 -17.4 11.2 L-16.95 11.8 -16.2 11.9 -15.45 11.55 Q-15.2 11.2 -15.25 10.85"/><path fill="#e2e4d6" fill-opacity="0.301960784314" d="M-21.25 15.4 Q-21.7 15.95 -21.55 16.7 -21.45 17.4 -20.85 17.8 L-19.65 18.0 Q-18.9 17.9 -18.5 17.3 -18.1 16.7 -18.2 16.0 -18.35 15.25 -18.95 14.9 -19.45 14.55 -20.2 14.65 -20.9 14.75 -21.25 15.4"/><path fill="#e2e4d6" stroke="none" d="M-11.45 7.0 L-11.75 6.6 -12.4 6.55 -12.95 6.8 -13.15 7.3 -12.8 7.75 -12.15 7.8 -11.6 7.55 -11.45 7.0"/><path fill="#e2e4d6" fill-opacity="0.301960784314" d="M-1.2 28.3 Q-1.65 28.85 -1.5 29.6 -1.4 30.3 -0.8 30.7 L0.4 30.9 1.55 30.2 Q1.95 29.6 1.85 28.9 1.7 28.15 1.1 27.8 0.6 27.45 -0.15 27.55 -0.85 27.65 -1.2 28.3"/><path fill="#e2e4d6" fill-opacity="0.501960784314" d="M2.8 21.55 L2.4 20.9 1.55 20.75 Q1.15 20.85 0.9 21.15 0.6 21.45 0.65 21.9 L1.1 22.5 1.85 22.6 Q2.35 22.55 2.6 22.25 L2.8 21.55"/><path fill="#e2e4d6" stroke="none" d="M2.2 14.0 L1.9 13.6 1.25 13.55 Q0.9 13.6 0.7 13.8 0.45 14.05 0.5 14.3 L0.85 14.75 1.5 14.8 2.05 14.55 2.2 14.0"/></g><g id="c17"><g><use transform="matrix(1.0,0.0,0.0,1.0,0.0,0.0)" xlink:href="#c13"/></g><g><use transform="matrix(-0.753860473633,0.136795043945,0.160049438477,0.720108032227,-5.75,3.5)" xlink:href="#c15"/></g><g><use transform="matrix(0.567749023438,0.759460449219,-0.793563842773,0.37565612793,-1.55,5.8)" xlink:href="#c15"/></g><g><use transform="matrix(1.0,0.0,0.0,1.0,0.0,0.0)" xlink:href="#c16"/></g></g><g id="c18"><g><use transform="matrix(-1.0,0.0,0.0,1.0,0.0,0.0)" xlink:href="#c17"/></g></g><g id="c19"><g><use transform="matrix(1.0,0.0,0.0,1.0,19.5,18.7)" xlink:href="#c12"/></g><g><use transform="matrix(1.0,0.0,0.0,1.0,13.2,0.1)" xlink:href="#c18"/></g></g><filter id="filter22"><feColorMatrix in="SourceGraphic" type="matrix" values="1.0 0.0 0.0 0.0 0.0 0.0 1.0 0.0 0.0 0.0 0.0 0.0 1.0 0.0 0.0 0.0 0.0 0.0 0.23046875 0.0" result="cxform"/><feComposite operator="in" in2="SourceGraphic" result="color-xform"/></filter></defs><g><g><use transform="matrix(1.0,0.0,0.0,1.0,0.0,0.0)" xlink:href="#c1"/></g><g><use transform="matrix(1.15496826172,0.0,0.0,1.15496826172,5.85,4.8)" xlink:href="#c9"/></g><g><use transform="matrix(0.66064453125,-0.381378173828,0.381378173828,0.66064453125,9.65,27.4)" xlink:href="#c19"/></g><g><use transform="matrix(0.162948608398,-0.0436706542969,0.128631591797,0.260604858398,30.0,28.7)" filter="url(#filter22)" xlink:href="#c6"/></g></g></svg>