<?xml version='1.0' encoding='UTF-8'?>
<svg xmlns:xlink="http://www.w3.org/1999/xlink" xmlns="http://www.w3.org/2000/svg" version="1.1" width="60px" height="60px" viewBox="0.0 0.0 60.0 60.0"><defs><g id="c1"><path fill="#000000" fill-opacity="0.00392156862745" d="M0.0 0.0 L60.0 0.0 60.0 60.0 0.0 60.0 0.0 0.0"/></g><g id="c2"><path fill="none" stroke="#000000" stroke-width="1.0" stroke-opacity="0.301960784314" d="M0.7 12.25 Q-0.45 9.75 0.75 8.25 1.2 7.6 2.15 7.15 2.8 6.7 3.8 6.35 L17.5 1.95 30.2 7.0 41.35 31.7 Q42.95 35.15 40.2 36.7 39.5 37.3 38.3 37.65 L25.5 41.8 25.45 41.75 24.55 42.0 11.85 37.0 0.7 12.25"/><path fill="#9d147b" stroke="none" d="M35.55 22.3 L31.5 13.2 29.75 9.2 16.95 4.25 5.5 7.85 Q1.65 9.1 3.35 12.8 L8.25 23.65 13.1 34.35 25.8 39.4 37.2 35.7 Q41.1 34.5 39.35 30.75 L35.55 22.3 M5.45 20.95 L1.35 11.8 Q0.4 9.65 1.1 8.3 1.45 7.65 2.15 7.15 2.8 6.7 3.8 6.35 L17.5 1.95 30.2 7.0 41.35 31.7 Q42.95 35.15 40.2 36.7 L38.9 37.25 25.2 41.65 12.5 36.65 5.45 20.95"/><path fill="#c47fad" stroke="none" d="M31.5 13.2 L35.55 22.3 39.35 30.75 Q41.1 34.5 37.2 35.7 L25.8 39.4 13.1 34.35 8.25 23.65 3.35 12.8 Q1.65 9.1 5.5 7.85 L16.95 4.25 29.75 9.2 31.5 13.2 M18.5 7.45 L9.1 10.55 9.55 11.6 Q9.8 12.8 9.15 13.6 8.4 14.45 7.1 14.4 L6.8 14.4 6.95 14.6 15.2 32.75 23.85 36.2 34.0 32.9 33.7 32.1 Q33.45 30.9 34.1 30.1 34.75 29.3 35.95 29.35 L35.8 29.0 27.75 10.95 18.5 7.45"/><path fill="#fcf2cf" stroke="none" d="M27.75 10.95 L35.8 29.0 35.95 29.35 Q34.75 29.3 34.1 30.1 33.45 30.9 33.7 32.1 L34.0 32.9 23.85 36.2 15.2 32.75 6.95 14.6 6.8 14.4 7.1 14.4 Q8.4 14.45 9.15 13.6 9.8 12.8 9.55 11.6 L9.1 10.55 18.5 7.45 27.75 10.95"/><path fill="#630a4c" stroke="none" d="M1.1 8.3 L0.75 8.25 Q1.2 7.6 2.15 7.15 1.45 7.65 1.1 8.3 M4.6 20.9 L5.45 20.95 12.5 36.65 11.55 36.25 11.25 35.55 4.6 20.9"/><path fill="#300525" stroke="none" d="M1.1 8.3 Q0.4 9.65 1.35 11.8 L5.45 20.95 4.6 20.9 0.7 12.25 Q-0.45 9.75 0.75 8.25 L1.1 8.3 M12.5 36.65 L25.2 41.65 38.9 37.25 40.2 36.7 Q39.5 37.3 38.3 37.65 L25.5 41.8 25.45 41.75 24.55 42.0 11.85 37.0 11.55 36.25 12.5 36.65"/><path fill="none" stroke="#bf9900" stroke-width="1.0" stroke-opacity="0.749019607843" d="M31.5 13.2 L35.55 22.3 M13.1 34.35 L8.25 23.65"/><path fill="none" stroke="#ffcc00" stroke-width="1.0" stroke-opacity="0.749019607843" d="M35.55 22.3 L39.35 30.75 Q41.1 34.5 37.2 35.7 L25.8 39.4 M8.25 23.65 L3.35 12.8 Q1.65 9.1 5.5 7.85 L16.95 4.25 29.75 9.2 31.5 13.2"/><path fill="none" stroke="#f0b92b" stroke-width="0.5" d="M27.75 10.95 L35.8 29.0 35.95 29.35 Q34.75 29.3 34.1 30.1 33.45 30.9 33.7 32.1 L34.0 32.9 23.85 36.2 15.2 32.75 6.95 14.6 6.8 14.4 7.1 14.4 Q8.4 14.45 9.15 13.6 9.8 12.8 9.55 11.6 L9.1 10.55 18.5 7.45"/><path fill="none" stroke="#000000" stroke-width="0.5" stroke-opacity="0.301960784314" d="M5.45 20.95 L1.35 11.8 Q0.4 9.65 1.1 8.3 M0.75 8.25 Q-0.45 9.75 0.7 12.25 L4.6 20.9 M5.45 20.95 L12.5 36.65 M25.2 41.65 L38.9 37.25 40.2 36.7 Q42.95 35.15 41.35 31.7 L30.2 7.0 M17.5 1.95 L3.8 6.35 Q2.8 6.7 2.15 7.15 1.45 7.65 1.1 8.3 M0.75 8.25 Q1.2 7.6 2.15 7.15 M11.25 35.55 L4.6 20.9 M25.5 41.8 L38.3 37.65 Q39.5 37.3 40.2 36.7"/><path fill="none" stroke="#ffcc00" stroke-width="0.5" stroke-opacity="0.749019607843" d="M18.5 7.45 L27.75 10.95"/><path fill="none" stroke="#f0b92b" stroke-width="1.0" stroke-opacity="0.749019607843" d="M25.8 39.4 L13.1 34.35"/><path fill="none" stroke="#432f2f" stroke-width="0.5" d="M12.5 36.65 L25.2 41.65"/></g><g id="c3"><path fill="#7fdbfe" stroke="none" d="M10.75 4.9 Q10.75 4.6 10.9 4.35 11.25 3.45 11.95 2.75 13.3 1.5 14.35 2.1 15.4 2.7 14.95 4.45 14.7 5.4 14.1 6.15 L13.75 6.5 Q13.1 7.15 12.35 7.35 L11.4 7.2 Q10.95 6.9 10.75 6.4 10.5 5.75 10.75 4.9 M7.5 5.9 Q7.0 5.85 6.6 5.5 6.05 5.0 5.8 4.15 L5.7 3.6 Q5.55 2.65 5.8 1.7 6.25 0.0 7.5 0.0 L7.6 0.0 Q8.85 0.0 9.3 1.7 9.55 2.65 9.4 3.6 L9.3 4.15 8.5 5.5 7.6 5.9 7.5 5.9 M4.35 4.9 Q4.6 5.75 4.35 6.4 L3.7 7.2 2.75 7.35 Q2.0 7.15 1.35 6.5 L1.0 6.15 Q0.4 5.4 0.15 4.45 -0.3 2.7 0.75 2.1 1.8 1.5 3.15 2.75 3.85 3.45 4.2 4.35 L4.35 4.9 M5.5 13.7 Q4.45 13.9 3.65 12.95 2.75 12.0 3.2 10.25 3.7 8.5 5.25 7.6 6.4 6.9 7.55 7.0 8.75 6.9 9.9 7.6 11.45 8.5 11.95 10.25 12.35 12.0 11.5 12.95 10.7 13.9 9.65 13.7 8.55 13.5 7.55 12.6 6.55 13.5 5.5 13.7"/></g><g id="c4"><g><use transform="matrix(1.0,0.0,0.0,1.0,0.0,0.0)" xlink:href="#c3"/></g></g><radialGradient gradientUnits="userSpaceOnUse" r="819.2" cx="0" cy="0" spreadMethod="pad" gradientTransform="matrix(0.0914459228516,0.0,0.0,0.0914459228516,0.6,3.4)" id="gradient1"><stop offset="0.0" stop-color="#ffffff"/><stop offset="1.0" stop-color="#ffffff" stop-opacity="0.0"/></radialGradient><g id="c5"><path stroke="none" fill="url(#gradient1)" d="M36.65 -54.65 Q60.05 -42.0 69.75 -17.95 80.55 8.9 68.0 34.1 55.45 59.35 26.8 68.2 -1.8 77.05 -29.7 64.3 -57.6 51.6 -68.45 24.75 -79.3 -2.05 -66.75 -27.25 L-66.7 -27.3 Q-54.1 -52.5 -25.5 -61.4 3.1 -70.2 31.0 -57.5 L36.65 -54.65"/></g><g id="c6"><g><use transform="matrix(1.0,0.0,0.0,1.0,0.0,0.0)" xlink:href="#c5"/></g></g><radialGradient gradientUnits="userSpaceOnUse" r="819.2" cx="0" cy="0" spreadMethod="pad" gradientTransform="matrix(0.209197998047,0.0,0.0,0.177108764648,67.15,107.2)" id="gradient2"><stop offset="0.356862745098" stop-color="#ffffff"/><stop offset="0.670588235294" stop-opacity="0.0"/></radialGradient><g id="c7"><path fill="none" stroke-linejoin="round" stroke-linecap="round" stroke="url(#gradient2)" stroke-width="0.5" d="M136.55 165.8 L68.6 106.0 68.4 106.0 118.25 201.5 M68.3 105.8 L68.35 105.8 68.3 105.8 68.3 105.85 68.4 106.0 68.3 106.0 86.55 211.5 M68.3 105.8 L68.3 105.85 68.3 106.0 68.15 105.95 18.25 151.55 M68.3 105.85 L68.25 105.85 68.3 106.0 50.0 193.2 M68.25 105.85 L68.15 105.95 0.05 97.7 M68.3 105.85 L68.25 105.8 68.25 105.85 M68.25 105.8 L68.2 105.7 0.0 45.7 M68.3 105.8 L68.25 105.75 68.25 105.8 M68.25 105.75 L68.2 105.7 18.25 10.05 M68.6 106.0 L68.35 105.8 118.25 60.15 M86.6 18.35 L68.3 105.8 M136.6 114.25 L68.6 106.0 M68.25 105.75 L49.95 0.05"/></g><g id="c8"><g><use transform="matrix(1.0,0.0,0.0,1.0,0.0,0.0)" xlink:href="#c7"/></g></g><g id="c9"><g><use transform="matrix(1.0,0.0,0.0,1.0,0.0,0.0)" xlink:href="#c2"/></g><g><use transform="matrix(0.238861083984,-0.0867004394531,0.10026550293,0.233917236328,34.25,31.15)" xlink:href="#c4"/></g><g><use transform="matrix(0.238861083984,-0.0867004394531,0.10026550293,0.233917236328,4.25,10.3)" xlink:href="#c4"/></g><g><use transform="matrix(0.141098022461,-0.0378112792969,0.111373901367,0.225646972656,20.25,20.65)" filter="url(#filter7)" xlink:href="#c6"/></g><g><use transform="matrix(-0.155029296875,0.0513153076172,0.0841827392578,0.147033691406,22.6,3.15)" filter="url(#filter8)" xlink:href="#c8"/></g></g><filter id="filter7"><feColorMatrix in="SourceGraphic" type="matrix" values="0.0 0.0 0.0 0.0 0.796875 0.0 0.0 0.0 0.0 0.59765625 0.0 0.0 0.0 0.0 0.19921875 0.0 0.0 0.0 1.0 0.0" result="cxform"/><feComposite operator="in" in2="SourceGraphic" result="color-xform"/></filter><filter id="filter8"><feColorMatrix in="SourceGraphic" type="matrix" values="0.0 0.0 0.0 0.0 0.99609375 0.0 0.0 0.0 0.0 0.99609375 0.0 0.0 0.0 0.0 0.99609375 0.0 0.0 0.0 1.0 0.0" result="cxform"/><feComposite operator="in" in2="SourceGraphic" result="color-xform"/></filter><linearGradient gradientUnits="userSpaceOnUse" x1="-819.2" x2="819.2" spreadMethod="pad" gradientTransform="matrix(0.00358581542969,0.0015869140625,0.00309753417969,-0.00761413574219,24.2,23.05)" id="gradient3"><stop offset="0.0" stop-color="#235c69"/><stop offset="1.0" stop-color="#0c373f"/></linearGradient><g id="c10"><path fill="#524025" stroke="none" d="M35.2 36.25 L35.85 36.45 36.95 37.5 37.45 37.0 37.45 36.95 37.6 36.75 37.55 36.65 36.05 35.25 35.9 35.4 35.2 36.25 M38.6 37.6 L38.3 37.6 37.25 39.0 38.6 39.1 39.7 39.75 39.95 39.95 40.3 39.7 40.5 39.4 38.6 37.6"/><path fill="#685231" stroke="none" d="M36.95 37.5 L35.85 36.45 35.2 36.25 35.0 36.75 35.65 37.45 36.95 37.5 M37.25 39.0 L36.95 39.4 37.55 40.0 39.7 39.75 38.6 39.1 37.25 39.0"/><path fill="#756846" stroke="none" d="M36.95 37.5 L35.65 37.45 36.05 37.8 36.4 37.85 36.95 37.5 M37.55 40.0 L38.45 40.7 38.85 40.75 39.95 39.95 39.7 39.75 37.55 40.0"/><path fill="none" stroke="#382510" stroke-width="1.0" stroke-opacity="0.301960784314" d="M35.2 36.25 L35.9 35.4 36.05 35.25 M37.6 36.75 L37.45 36.95 M37.45 37.0 L36.95 37.5 36.4 37.85 36.05 37.8 35.65 37.45 35.0 36.75 35.2 36.25 M38.6 37.6 L38.3 37.6 37.25 39.0 36.95 39.4 37.55 40.0 38.45 40.7 38.85 40.75 39.95 39.95 40.3 39.7 40.5 39.4"/><path fill="#000000" stroke="none" d="M35.6 36.1 Q34.2 34.9 33.95 33.5 L33.9 31.9 34.65 30.9 32.9 29.5 30.45 31.7 32.65 33.55 32.65 33.7 34.05 34.85 35.6 36.1"/><path fill="#362818" stroke="none" d="M34.65 30.9 L33.9 31.9 33.95 33.5 Q34.2 34.9 35.6 36.1 L37.7 37.75 41.2 40.6 41.95 39.65 35.3 34.3 35.0 31.25 34.8 31.05 34.65 30.9"/><path fill="#594128" stroke="none" d="M35.0 31.25 L35.3 34.3 41.95 39.65 43.05 38.35 42.6 37.35 35.0 31.25"/><path fill="none" stroke="#382510" stroke-width="1.0" stroke-opacity="0.301960784314" d="M35.6 36.1 L34.05 34.85 32.65 33.7 32.65 33.55 30.45 31.7 32.9 29.5 34.65 30.9 M34.8 31.05 L35.0 31.25 42.6 37.35 43.05 38.35 41.95 39.65 41.2 40.6 37.7 37.75 35.6 36.1"/><path fill="#87704e" fill-opacity="0.690196078431" d="M38.35 35.55 L39.0 34.8 37.95 33.95 37.35 34.7 38.35 35.55 M41.2 36.5 L40.55 37.3 41.5 38.0 42.05 37.25 41.2 36.5"/><path fill="#86704d" stroke="none" d="M39.0 34.8 L38.35 35.55 40.55 37.3 41.2 36.5 39.0 34.8"/><path fill="#ffc361" stroke="none" d="M33.8 31.05 Q33.3 31.0 32.7 30.05 L32.05 31.1 32.05 31.2 Q32.9 31.6 33.05 32.15 L33.2 32.05 33.8 31.05"/><path fill="#de702c" stroke="none" d="M32.05 31.2 L30.95 31.95 30.15 32.0 31.2 32.95 32.0 32.85 33.05 32.15 Q32.9 31.6 32.05 31.2"/><path fill="none" stroke="#382510" stroke-width="0.7" stroke-opacity="0.250980392157" d="M30.15 32.0 L30.05 31.9 Q29.75 31.55 29.9 31.0 30.05 30.35 30.6 29.8 31.05 29.15 31.65 28.9 L32.55 28.95 32.6 29.0 32.65 29.1 33.7 29.95 Q33.95 30.25 33.8 30.85 L33.8 31.05 M30.15 32.0 L31.2 32.95 32.0 32.85 33.05 32.15 33.2 32.05 33.8 31.05"/><path fill="#b05923" stroke="none" d="M31.4 27.25 L31.35 27.2 30.25 27.15 Q29.5 27.45 28.9 28.2 28.2 28.95 28.0 29.75 27.8 30.5 28.2 30.85 L28.35 30.95 29.35 30.9 30.65 30.0 30.75 29.9 31.55 28.55 31.55 28.35 Q31.75 27.6 31.4 27.25"/><path fill="#ffe39c" stroke="none" d="M31.55 28.55 L30.75 29.9 30.65 30.0 Q31.75 30.5 31.95 31.2 L32.1 31.1 32.85 29.8 Q32.25 29.8 31.55 28.55"/><path fill="#ff8533" stroke="none" d="M31.4 27.25 Q31.75 27.6 31.55 28.35 L31.55 28.55 Q32.25 29.8 32.85 29.8 L32.95 29.55 Q33.15 28.75 32.75 28.4 L31.4 27.25 M30.65 30.0 L29.35 30.9 28.35 30.95 29.65 32.1 Q30.1 32.35 30.7 32.1 L31.95 31.2 Q31.75 30.5 30.65 30.0"/><path fill="none" stroke="#382510" stroke-width="0.7" stroke-opacity="0.250980392157" d="M28.35 30.95 L28.2 30.85 Q27.8 30.5 28.0 29.75 28.2 28.95 28.9 28.2 29.5 27.45 30.25 27.15 L31.35 27.2 31.4 27.25 M28.35 30.95 L29.65 32.1 Q30.1 32.35 30.7 32.1 L31.95 31.2 32.1 31.1 32.85 29.8 32.95 29.55 Q33.15 28.75 32.75 28.4 L31.4 27.25"/><path fill="#34515c" stroke="none" d="M27.3 27.35 Q26.65 28.1 26.5 28.9 26.35 29.65 26.75 30.0 L26.9 30.05 28.35 31.2 29.35 31.1 30.55 30.15 30.7 30.0 31.4 28.7 31.45 28.45 Q31.6 27.65 31.2 27.3 L29.7 26.2 28.6 26.25 Q27.9 26.55 27.3 27.35"/><path fill="none" stroke="#382510" stroke-width="0.7" stroke-opacity="0.250980392157" d="M27.3 27.35 Q27.9 26.55 28.6 26.25 L29.7 26.2 31.2 27.3 Q31.6 27.65 31.45 28.45 L31.4 28.7 30.7 30.0 30.55 30.15 29.35 31.1 28.35 31.2 26.9 30.05 26.75 30.0 Q26.35 29.65 26.5 28.9 26.65 28.1 27.3 27.35"/><path fill="#ff8533" stroke="none" d="M33.05 23.9 L32.6 23.2 30.45 22.25 29.25 22.8 29.75 22.65 28.65 23.75 28.5 23.65 28.2 23.25 28.05 23.3 28.0 23.3 28.65 24.2 30.05 22.6 29.0 24.2 30.3 22.55 30.8 22.7 30.95 22.8 32.65 23.3 32.25 23.75 32.25 24.35 33.05 23.9 M25.25 16.2 L24.8 16.1 24.4 16.55 24.7 18.5 25.2 20.45 24.5 17.1 24.85 16.25 25.25 16.2 M21.95 18.35 L21.7 18.8 22.9 18.15 24.8 21.2 23.4 18.6 22.9 17.85 21.95 18.35 M20.45 19.95 L20.25 20.25 20.95 19.6 25.35 25.15 23.1 22.15 20.95 19.4 20.45 19.95 M17.95 24.65 L17.8 26.35 18.25 23.5 18.9 24.4 18.3 22.5 19.45 23.35 18.55 22.45 18.25 22.25 18.2 22.15 18.2 22.25 17.95 24.65 M26.5 26.9 L26.05 26.95 25.3 27.65 25.2 27.8 26.55 27.05 27.45 27.8 27.55 27.7 26.85 27.05 26.5 26.9 M26.9 22.55 L26.65 23.25 26.5 24.05 25.5 25.25 25.4 25.3 25.2 25.65 25.15 25.7 26.7 24.2 26.9 22.55 M25.95 18.4 L26.8 18.9 27.15 21.2 26.95 18.7 25.95 18.4 M28.9 24.25 L28.75 24.4 31.7 25.9 32.15 25.6 28.95 24.35 28.9 24.25"/><path fill="#362818" stroke="none" d="M29.7 20.8 L29.1 20.2 28.2 23.25 28.5 23.65 29.7 20.8 M21.7 18.8 L22.05 19.5 25.4 25.2 25.35 25.15 20.95 19.6 20.25 20.25 20.15 20.35 20.75 20.8 24.25 24.35 25.4 25.3 25.5 25.25 26.3 24.15 24.8 21.2 22.9 18.15 21.7 18.8 M17.8 26.35 L18.7 26.75 20.25 27.4 21.8 25.25 19.45 23.35 18.3 22.5 18.9 24.4 18.25 23.5 17.8 26.35 M20.4 27.4 L21.2 27.75 23.15 26.9 24.75 27.8 24.9 27.2 24.5 26.95 21.9 25.35 20.4 27.4 M26.5 26.9 L26.85 27.05 27.7 27.55 27.55 27.7 27.45 27.8 26.55 27.05 26.15 27.6 26.4 27.9 25.8 28.6 25.35 28.6 24.95 29.05 25.65 29.45 25.9 29.3 27.45 27.8 25.9 29.3 29.0 27.9 30.65 28.05 31.0 28.1 33.05 23.9 32.25 24.35 32.25 23.75 31.55 23.2 30.4 22.9 28.95 24.35 32.15 25.6 31.7 25.9 30.7 25.5 29.9 26.15 30.45 27.35 29.55 26.15 30.55 25.45 28.6 24.65 27.65 24.4 26.7 24.4 25.15 25.7 26.1 26.8 26.2 26.75 26.5 26.9 M27.3 21.25 L27.05 21.9 28.0 23.3 28.6 20.95 27.7 20.3 27.3 21.25 M27.05 22.05 L26.9 22.55 26.7 24.2 27.6 24.4 28.25 24.5 27.05 22.05 M25.2 20.45 L26.45 22.45 27.15 21.2 26.8 18.9 25.95 18.4 24.85 16.25 24.5 17.1 25.2 20.45 M31.0 28.1 L30.45 27.35 31.0 28.1 M32.25 24.35 L32.15 25.6 32.25 24.35"/><path fill="#000000" stroke="none" d="M18.7 26.75 L18.65 27.1 18.55 27.9 Q23.05 29.6 27.55 31.4 L29.0 31.15 31.35 28.65 33.05 23.9 31.0 28.1 30.65 28.05 29.0 27.9 25.9 29.3 25.65 29.45 24.95 29.05 25.35 28.6 25.8 28.6 26.4 27.9 26.15 27.6 26.55 27.05 25.2 27.8 24.95 28.2 24.7 28.1 23.0 27.55 21.3 27.75 21.2 27.75 20.4 27.4 21.9 25.35 22.45 25.3 24.5 26.95 24.9 27.2 26.05 26.85 26.1 26.8 25.15 25.7 25.15 25.65 25.2 25.65 25.4 25.3 24.25 24.35 20.3 21.45 19.8 22.1 19.5 22.5 22.2 25.05 21.8 25.25 20.25 27.4 18.7 26.75 M28.9 20.4 L28.9 20.0 28.6 20.95 28.0 23.3 28.05 23.3 28.9 20.4 M27.6 19.3 L27.6 18.95 27.15 21.2 26.5 23.85 26.65 23.25 26.9 22.55 27.05 22.05 27.05 21.9 27.3 21.25 27.6 19.3 M22.05 19.5 Q21.3 19.2 20.95 19.2 L23.1 22.15 25.35 25.15 25.4 25.2 22.05 19.5 M18.65 27.1 L21.3 27.75 18.65 27.1 M27.6 24.4 L27.65 24.4 28.6 24.65 27.05 22.05 28.25 24.5 27.6 24.4"/><path fill="#780101" stroke="none" d="M21.2 27.75 L21.3 27.75 23.0 27.55 23.05 27.3 21.2 27.75 M27.65 24.4 L27.6 24.4 26.7 24.2 25.15 25.7 26.7 24.4 27.65 24.4 M27.7 20.3 L27.6 19.3 27.3 21.25 27.7 20.3"/><path fill="#4f3a23" stroke="none" d="M30.6 20.95 L30.05 20.5 29.25 22.75 29.25 22.8 30.45 22.25 30.6 20.95 M23.05 27.3 L23.0 27.55 24.7 28.1 24.95 28.2 25.2 27.8 25.3 27.65 26.05 26.85 24.9 27.2 24.75 27.8 24.8 27.9 24.7 28.1 24.8 27.9 23.05 27.3 M30.55 25.45 L29.55 26.15 30.45 27.35 29.9 26.15 30.7 25.5 30.55 25.45"/><path fill="#fecfc5" stroke="none" d="M24.8 16.1 L24.2 16.6 24.7 18.5 24.4 16.55 24.8 16.1 M22.9 17.6 L21.95 18.35 22.9 17.85 23.4 18.6 22.9 17.6 M20.95 19.2 L20.45 19.95 20.95 19.4 23.1 22.15 20.95 19.2 M18.15 21.95 L17.95 24.65 18.2 22.25 18.2 22.15 18.25 22.25 18.55 22.45 18.15 21.95 M25.3 27.65 L26.05 26.95 26.5 26.9 26.2 26.75 26.05 26.85 25.3 27.65 M26.85 27.05 L27.55 27.7 27.7 27.55 26.85 27.05 M29.0 24.2 L30.05 22.6 28.65 24.2 28.0 23.3 27.05 21.9 27.05 22.05 28.6 24.65 30.55 25.45 30.7 25.5 31.7 25.9 28.75 24.4 28.9 24.25 29.0 24.2 M26.65 23.25 L26.5 23.85 26.3 24.15 25.5 25.25 26.5 24.05 26.65 23.25"/><path fill="#1b140c" stroke="none" d="M32.6 23.2 L32.0 22.25 30.6 20.95 30.45 22.25 32.6 23.2 M29.75 20.9 L29.7 20.8 28.5 23.65 28.65 23.75 29.75 20.9 M29.1 20.2 L28.9 20.4 28.05 23.3 28.2 23.25 29.1 20.2 M28.9 20.0 L27.9 18.95 27.6 19.3 27.7 20.3 28.6 20.95 28.9 20.0 M27.6 18.95 L25.25 16.2 24.85 16.25 25.95 18.4 26.95 18.7 27.15 21.2 27.6 18.95 M24.2 16.6 L23.95 17.65 25.5 22.05 23.8 17.65 22.9 17.6 23.4 18.6 24.8 21.2 26.3 24.15 26.5 23.85 27.15 21.2 26.45 22.45 25.2 20.45 24.7 18.5 24.2 16.6 M20.75 20.8 L20.3 21.45 24.25 24.35 20.75 20.8 M19.8 22.1 L19.05 21.4 18.15 21.95 18.55 22.45 19.45 23.35 21.8 25.25 22.2 25.05 19.5 22.5 19.8 22.1 M21.2 27.75 L23.05 27.3 24.8 27.9 24.75 27.8 23.15 26.9 21.2 27.75 M21.9 25.35 L24.5 26.95 22.45 25.3 21.9 25.35 M30.95 22.8 L30.8 22.7 30.3 22.55 29.0 24.2 28.9 24.25 28.95 24.35 30.4 22.9 31.55 23.2 30.95 22.8"/><path fill="#030d0e" stroke="none" d="M23.95 17.65 L23.8 17.65 25.5 22.05 23.95 17.65"/><path fill="#d1f1f1" stroke="none" d="M25.2 25.65 L25.15 25.65 25.15 25.7 25.2 25.65"/><path stroke="none" fill="url(#gradient3)" d="M26.05 26.85 L26.2 26.75 26.1 26.8 26.05 26.85"/><path fill="#020606" stroke="none" d="M30.05 20.5 L29.75 20.9 28.65 23.75 29.75 22.65 29.25 22.8 29.2 22.75 29.25 22.75 30.05 20.5"/><path fill="#184b56" stroke="none" d="M29.25 22.75 L29.2 22.75 29.25 22.8 29.25 22.75"/><path fill="#010707" stroke="none" d="M32.25 23.75 L32.65 23.3 30.95 22.8 31.55 23.2 32.25 23.75"/><path fill="none" stroke="#ffa004" stroke-width="0.5" stroke-opacity="0.301960784314" d="M18.7 26.75 L18.65 27.1 18.55 27.9 Q23.05 29.6 27.55 31.4 M27.6 19.3 L27.6 18.95 25.25 16.2 24.8 16.1 24.2 16.6 23.95 17.65 23.8 17.65 22.9 17.6 21.95 18.35 M22.05 19.5 Q21.3 19.2 20.95 19.2 L20.45 19.95 20.25 20.25 M20.15 20.35 L20.75 20.8 20.3 21.45 19.8 22.1 19.05 21.4 18.15 21.95 17.95 24.65 17.8 26.35 M19.5 22.5 L19.8 22.1 M27.15 21.2 L27.6 18.95 M27.7 20.3 L27.6 19.3"/><path fill="none" stroke="#ffa004" stroke-width="0.5" stroke-opacity="0.301960784314" d="M27.55 31.4 L29.0 31.15 31.35 28.65 33.05 23.9 32.6 23.2 32.0 22.25 30.6 20.95 30.05 20.5 29.75 20.9 29.7 20.8 29.1 20.2 28.9 20.4 28.9 20.0 27.9 18.95 27.6 19.3 27.3 21.25 27.7 20.3 28.6 20.95 28.9 20.0 M20.25 20.25 L20.15 20.35 M20.25 27.4 L21.8 25.25 22.2 25.05 M21.3 27.75 L18.65 27.1 M21.2 27.75 L23.05 27.3 23.0 27.55 21.3 27.75 M21.9 25.35 L20.4 27.4 M26.5 26.9 L26.85 27.05 27.7 27.55 27.55 27.7 27.45 27.8 26.55 27.05 25.2 27.8 25.3 27.65 26.05 26.85 26.2 26.75 26.5 26.9 M24.8 27.9 L24.75 27.8 24.9 27.2 26.05 26.85 26.1 26.8 26.2 26.75 M25.9 29.3 L25.65 29.45 24.95 29.05 25.35 28.6 25.8 28.6 26.4 27.9 26.15 27.6 26.55 27.05 M24.7 28.1 L24.8 27.9 23.05 27.3 M24.5 26.95 L24.9 27.2 M25.2 27.8 L24.95 28.2 M21.9 25.35 L24.5 26.95 M22.45 25.3 L21.9 25.35 M27.45 27.8 L25.9 29.3 29.0 27.9 30.65 28.05 31.0 28.1 33.05 23.9 32.25 24.35 32.25 23.75 32.65 23.3 30.95 22.8 30.8 22.7 M30.3 22.55 L29.0 24.2 M28.0 23.3 L28.05 23.3 28.2 23.25 28.5 23.65 28.65 23.75 29.75 22.65 29.25 22.8 30.45 22.25 32.6 23.2 M19.45 23.35 L18.3 22.5 18.9 24.4 18.25 23.5 17.8 26.35 M27.3 21.25 L27.05 21.9 27.05 22.05 26.9 22.55 26.65 23.25 26.5 23.85 26.3 24.15 25.5 25.25 25.4 25.3 24.25 24.35 M27.6 24.4 L27.65 24.4 26.7 24.4 25.15 25.7 26.7 24.2 27.6 24.4 M27.05 21.9 L28.0 23.3 28.6 20.95 M25.15 25.7 L25.15 25.65 25.2 25.65 25.15 25.7 26.1 26.8 M25.4 25.3 L25.2 25.65 M26.9 22.55 L26.7 24.2 M30.45 22.25 L30.6 20.95 M28.6 24.65 L30.55 25.45 29.55 26.15 30.45 27.35 31.0 28.1 M28.9 24.25 L28.75 24.4 M31.7 25.9 L30.7 25.5 30.55 25.45 M28.6 24.65 L27.05 22.05 M28.95 24.35 L28.9 24.25 29.0 24.2 M29.25 22.75 L29.2 22.75 29.25 22.8 29.25 22.75 30.05 20.5 M28.95 24.35 L32.15 25.6 31.7 25.9 M30.95 22.8 L31.55 23.2 32.25 23.75 M32.15 25.6 L32.25 24.35 M30.45 27.35 L29.9 26.15 30.7 25.5 M27.65 24.4 L28.6 24.65 M28.2 23.25 L29.1 20.2 M28.65 23.75 L29.75 20.9 M28.5 23.65 L29.7 20.8 M28.05 23.3 L28.9 20.4 M25.4 25.2 L22.05 19.5"/><path fill="#ffdb9f" fill-opacity="0.4" d="M19.95 25.35 L18.55 22.75 20.2 25.95 20.3 24.95 21.0 25.65 20.25 27.4 21.8 25.25 19.95 24.6 Q20.2 25.0 19.95 25.35"/><path fill="#ffdb9f" fill-opacity="0.4" d="M22.6 18.3 L22.9 19.45 22.15 18.95 Q25.25 24.8 23.55 22.0 L25.45 25.3 22.6 19.35 24.4 22.45 22.8 18.2 22.6 18.3"/><path fill="#ffdb9f" fill-opacity="0.4" d="M27.45 24.65 L28.75 25.2 26.1 24.95 Q28.1 25.9 29.8 27.45 31.45 29.0 29.1 26.45 L27.7 25.45 29.95 25.5 Q27.95 24.85 27.9 24.55 L27.45 24.4 27.45 24.65"/><path fill="#524025" stroke="none" d="M27.5 30.6 L27.6 30.55 Q29.1 30.4 30.25 29.7 31.5 28.95 32.05 26.4 32.95 29.0 30.15 31.05 27.65 31.25 27.5 30.6"/><path fill="#756846" stroke="none" d="M27.5 30.6 Q27.65 31.25 30.15 31.05 28.75 32.1 27.15 31.9 25.55 31.7 24.6 30.05 25.9 30.7 27.5 30.6"/><path fill="none" stroke="#382510" stroke-width="0.5" stroke-opacity="0.501960784314" d="M30.15 31.05 Q32.95 29.0 32.05 26.4 31.5 28.95 30.25 29.7 29.1 30.4 27.6 30.55 L27.5 30.6 M30.15 31.05 Q28.75 32.1 27.15 31.9 25.55 31.7 24.6 30.05 25.9 30.7 27.5 30.6"/></g><radialGradient gradientUnits="userSpaceOnUse" r="819.2" cx="0" cy="0" spreadMethod="pad" gradientTransform="matrix(0.0150604248047,0.0,0.0,0.0150604248047,0.0,0.0)" id="gradient4"><stop offset="0.0" stop-color="#ff9e00" stop-opacity="0.560784313725"/><stop offset="1.0" stop-color="#e6ff00" stop-opacity="0.0"/></radialGradient><g id="c11"><path fill="#ffffff" stroke="none" d="M2.25 -33.35 L2.4 -33.8 2.8 -33.95 3.25 -33.8 3.4 -33.35 3.25 -32.95 2.8 -32.8 Q2.55 -32.8 2.4 -32.95 L2.25 -33.35 M-5.55 -16.15 Q-5.9 -16.5 -5.85 -16.95 -5.9 -17.45 -5.55 -17.8 -5.2 -18.15 -4.7 -18.15 -4.2 -18.15 -3.85 -17.8 -3.55 -17.45 -3.55 -16.95 -3.55 -16.5 -3.85 -16.15 -4.2 -15.8 -4.7 -15.8 -5.2 -15.8 -5.55 -16.15"/><path stroke="none" fill="url(#gradient4)" d="M1.8 -1.8 Q1.05 -2.55 0.0 -2.55 -1.05 -2.55 -1.8 -1.8 -2.55 -1.05 -2.55 0.0 -2.55 1.05 -1.8 1.8 -1.05 2.55 0.0 2.55 1.05 2.55 1.8 1.8 2.55 1.05 2.55 0.0 2.55 -1.05 1.8 -1.8 M9.0 -9.0 Q12.75 -5.25 12.75 0.0 12.75 5.25 9.0 9.0 5.25 12.75 0.0 12.75 -5.25 12.75 -9.0 9.0 -12.75 5.25 -12.75 0.0 -12.75 -5.25 -9.0 -9.0 -5.25 -12.75 0.0 -12.75 5.25 -12.75 9.0 -9.0"/><path fill="#ffffff" stroke="none" d="M3.6 -3.6 Q5.1 -2.1 5.1 0.0 5.1 2.1 3.6 3.6 2.1 5.1 0.0 5.1 -2.1 5.1 -3.6 3.6 -5.1 2.1 -5.1 0.0 -5.1 -2.1 -3.6 -3.6 -2.1 -5.1 0.0 -5.1 2.1 -5.1 3.6 -3.6"/></g><g id="c12"><g><use transform="matrix(1.0,0.0,0.0,1.0,0.0,0.0)" xlink:href="#c11"/></g></g><g id="c13"><g><use transform="matrix(1.0,0.0,0.0,1.0,0.0,0.0)" xlink:href="#c12"/></g><g><use transform="matrix(-0.501907348633,0.501907348633,-0.501907348633,-0.501907348633,21.1,-35.2)" xlink:href="#c12"/></g><g><use transform="matrix(0.42431640625,0.0,0.0,0.42431640625,24.65,-5.9)" xlink:href="#c12"/></g></g><filter id="filter17"><feColorMatrix in="SourceGraphic" type="matrix" values="1.0 0.0 0.0 0.0 0.0 0.0 1.0 0.0 0.0 0.0 0.0 0.0 1.0 0.0 0.0 0.0 0.0 0.0 0.23046875 0.0" result="cxform"/><feComposite operator="in" in2="SourceGraphic" result="color-xform"/></filter></defs><g><g><use transform="matrix(1.0,0.0,0.0,1.0,0.0,0.0)" xlink:href="#c1"/></g><g><use transform="matrix(1.15496826172,0.0,0.0,1.15496826172,5.85,4.8)" xlink:href="#c9"/></g><g><use transform="matrix(1.0,0.0,0.0,1.0,0.0,0.0)" xlink:href="#c10"/></g><g><use transform="matrix(0.0964965820312,-0.106643676758,-0.0926055908203,-0.0864562988281,21.8,23.35)" xlink:href="#c13"/></g><g><use transform="matrix(0.162948608398,-0.0436706542969,0.128631591797,0.260604858398,30.0,28.7)" filter="url(#filter17)" xlink:href="#c6"/></g></g></svg>