<?xml version='1.0' encoding='UTF-8'?>
<svg xmlns:xlink="http://www.w3.org/1999/xlink" xmlns="http://www.w3.org/2000/svg" version="1.1" width="60px" height="60px" viewBox="0.0 0.0 60.0 60.0"><defs><g id="c1"><path fill="#000000" fill-opacity="0.00392156862745" d="M0.0 0.0 L60.0 0.0 60.0 60.0 0.0 60.0 0.0 0.0"/></g><g id="c2"><path fill="none" stroke="#000000" stroke-width="1.0" stroke-opacity="0.301960784314" d="M0.7 12.25 Q-0.45 9.75 0.75 8.25 1.2 7.6 2.15 7.15 2.8 6.7 3.8 6.35 L17.5 1.95 30.2 7.0 41.35 31.7 Q42.95 35.15 40.2 36.7 39.5 37.3 38.3 37.65 L19.8 43.65 Q17.15 44.45 15.5 43.3 14.35 42.55 13.65 40.9 L0.7 12.25"/><path fill="#9d147b" stroke="none" d="M35.55 22.3 L31.5 13.2 29.75 9.2 16.95 4.25 5.5 7.85 Q1.65 9.1 3.35 12.8 L8.25 23.65 15.0 38.6 15.2 39.0 Q16.8 42.25 20.45 41.1 L37.2 35.7 Q41.1 34.5 39.35 30.75 L35.55 22.3 M2.15 7.15 Q2.8 6.7 3.8 6.35 L17.5 1.95 30.2 7.0 41.35 31.7 Q42.95 35.15 40.2 36.7 L38.9 37.25 23.2 42.3 20.4 43.2 19.1 43.5 17.3 43.4 Q15.3 42.9 14.2 40.5 L5.45 20.95 1.35 11.8 Q0.4 9.65 1.1 8.3 1.45 7.65 2.15 7.15"/><path fill="#c47fad" stroke="none" d="M31.5 13.2 L35.55 22.3 39.35 30.75 Q41.1 34.5 37.2 35.7 L20.45 41.1 Q16.8 42.25 15.2 39.0 L15.0 38.6 8.25 23.65 3.35 12.8 Q1.65 9.1 5.5 7.85 L16.95 4.25 29.75 9.2 31.5 13.2 M18.5 7.45 L9.1 10.55 9.55 11.6 Q9.8 12.8 9.15 13.6 8.4 14.45 7.1 14.4 L6.8 14.4 6.95 14.6 16.3 35.2 Q16.8 36.4 17.65 37.0 18.8 37.8 20.65 37.2 L34.0 32.9 33.7 32.1 Q33.45 30.9 34.1 30.1 34.75 29.3 35.95 29.35 L35.8 29.0 27.75 10.95 18.5 7.45"/><path fill="#630a4c" stroke="none" d="M0.75 8.25 Q1.2 7.6 2.15 7.15 1.45 7.65 1.1 8.3 L0.75 8.25 M23.3 42.5 L20.1 43.55 19.1 43.5 20.4 43.2 23.2 42.3 23.3 42.5 M15.5 43.3 Q14.35 42.55 13.65 40.9 L4.6 20.9 5.45 20.95 14.2 40.5 Q15.3 42.9 17.3 43.4 L15.5 43.3"/><path fill="#300525" stroke="none" d="M4.6 20.9 L0.7 12.25 Q-0.45 9.75 0.75 8.25 L1.1 8.3 Q0.4 9.65 1.35 11.8 L5.45 20.95 4.6 20.9 M40.2 36.7 Q39.5 37.3 38.3 37.65 L23.3 42.5 23.2 42.3 38.9 37.25 40.2 36.7 M20.1 43.55 L19.8 43.65 Q17.15 44.45 15.5 43.3 L17.3 43.4 19.1 43.5 20.1 43.55"/><path fill="#fcf2cf" stroke="none" d="M27.75 10.95 L35.8 29.0 35.95 29.35 Q34.75 29.3 34.1 30.1 33.45 30.9 33.7 32.1 L34.0 32.9 20.65 37.2 Q18.8 37.8 17.65 37.0 16.8 36.4 16.3 35.2 L6.95 14.6 6.8 14.4 7.1 14.4 Q8.4 14.45 9.15 13.6 9.8 12.8 9.55 11.6 L9.1 10.55 18.5 7.45 27.75 10.95"/><path fill="none" stroke="#bf9900" stroke-width="1.0" stroke-opacity="0.749019607843" d="M31.5 13.2 L35.55 22.3 M15.0 38.6 L8.25 23.65"/><path fill="none" stroke="#ffcc00" stroke-width="1.0" stroke-opacity="0.749019607843" d="M35.55 22.3 L39.35 30.75 Q41.1 34.5 37.2 35.7 L20.45 41.1 Q16.8 42.25 15.2 39.0 L15.0 38.6 M8.25 23.65 L3.35 12.8 Q1.65 9.1 5.5 7.85 L16.95 4.25 29.75 9.2 31.5 13.2"/><path fill="none" stroke="#000000" stroke-width="0.5" stroke-opacity="0.301960784314" d="M4.6 20.9 L0.7 12.25 Q-0.45 9.75 0.75 8.25 1.2 7.6 2.15 7.15 2.8 6.7 3.8 6.35 L17.5 1.95 M30.2 7.0 L41.35 31.7 Q42.95 35.15 40.2 36.7 39.5 37.3 38.3 37.65 L23.3 42.5 20.1 43.55 19.8 43.65 Q17.15 44.45 15.5 43.3 14.35 42.55 13.65 40.9 L4.6 20.9 M5.45 20.95 L1.35 11.8 Q0.4 9.65 1.1 8.3 1.45 7.65 2.15 7.15 M19.1 43.5 L17.3 43.4 Q15.3 42.9 14.2 40.5 L5.45 20.95 M23.2 42.3 L20.4 43.2 19.1 43.5 M40.2 36.7 L38.9 37.25 23.2 42.3"/><path fill="none" stroke="#f0b92b" stroke-width="0.5" d="M27.75 10.95 L35.8 29.0 35.95 29.35 Q34.75 29.3 34.1 30.1 33.45 30.9 33.7 32.1 L34.0 32.9 20.65 37.2 Q18.8 37.8 17.65 37.0 16.8 36.4 16.3 35.2 L6.95 14.6 6.8 14.4 7.1 14.4 Q8.4 14.45 9.15 13.6 9.8 12.8 9.55 11.6 L9.1 10.55 18.5 7.45"/><path fill="none" stroke="#ffcc00" stroke-width="0.5" stroke-opacity="0.749019607843" d="M18.5 7.45 L27.75 10.95"/></g><g id="c3"><path fill="#7fdbfe" stroke="none" d="M10.75 4.9 Q10.75 4.6 10.9 4.35 11.25 3.45 11.95 2.75 13.3 1.5 14.35 2.1 15.4 2.7 14.95 4.45 14.7 5.4 14.1 6.15 L13.75 6.5 Q13.1 7.15 12.35 7.35 L11.4 7.2 Q10.95 6.9 10.75 6.4 10.5 5.75 10.75 4.9 M7.5 5.9 Q7.0 5.85 6.6 5.5 6.05 5.0 5.8 4.15 L5.7 3.6 Q5.55 2.65 5.8 1.7 6.25 0.0 7.5 0.0 L7.6 0.0 Q8.85 0.0 9.3 1.7 9.55 2.65 9.4 3.6 L9.3 4.15 8.5 5.5 7.6 5.9 7.5 5.9 M4.35 4.9 Q4.6 5.75 4.35 6.4 L3.7 7.2 2.75 7.35 Q2.0 7.15 1.35 6.5 L1.0 6.15 Q0.4 5.4 0.15 4.45 -0.3 2.7 0.75 2.1 1.8 1.5 3.15 2.75 3.85 3.45 4.2 4.35 L4.35 4.9 M5.5 13.7 Q4.45 13.9 3.65 12.95 2.75 12.0 3.2 10.25 3.7 8.5 5.25 7.6 6.4 6.9 7.55 7.0 8.75 6.9 9.9 7.6 11.45 8.5 11.95 10.25 12.35 12.0 11.5 12.95 10.7 13.9 9.65 13.7 8.55 13.5 7.55 12.6 6.55 13.5 5.5 13.7"/></g><g id="c4"><g><use transform="matrix(1.0,0.0,0.0,1.0,0.0,0.0)" xlink:href="#c3"/></g></g><radialGradient gradientUnits="userSpaceOnUse" r="819.2" cx="0" cy="0" spreadMethod="pad" gradientTransform="matrix(0.0914459228516,0.0,0.0,0.0914459228516,0.6,3.4)" id="gradient1"><stop offset="0.0" stop-color="#ffffff"/><stop offset="1.0" stop-color="#ffffff" stop-opacity="0.0"/></radialGradient><g id="c5"><path stroke="none" fill="url(#gradient1)" d="M36.65 -54.65 Q60.05 -42.0 69.75 -17.95 80.55 8.9 68.0 34.1 55.45 59.35 26.8 68.2 -1.8 77.05 -29.7 64.3 -57.6 51.6 -68.45 24.75 -79.3 -2.05 -66.75 -27.25 L-66.7 -27.3 Q-54.1 -52.5 -25.5 -61.4 3.1 -70.2 31.0 -57.5 L36.65 -54.65"/></g><g id="c6"><g><use transform="matrix(1.0,0.0,0.0,1.0,0.0,0.0)" xlink:href="#c5"/></g></g><radialGradient gradientUnits="userSpaceOnUse" r="819.2" cx="0" cy="0" spreadMethod="pad" gradientTransform="matrix(0.209197998047,0.0,0.0,0.177108764648,67.15,107.2)" id="gradient2"><stop offset="0.356862745098" stop-color="#ffffff"/><stop offset="0.670588235294" stop-opacity="0.0"/></radialGradient><g id="c7"><path fill="none" stroke-linejoin="round" stroke-linecap="round" stroke="url(#gradient2)" stroke-width="0.5" d="M136.55 165.8 L68.6 106.0 68.4 106.0 118.25 201.5 M68.3 105.8 L68.35 105.8 68.3 105.8 68.3 105.85 68.4 106.0 68.3 106.0 86.55 211.5 M68.3 105.8 L68.3 105.85 68.3 106.0 68.15 105.95 18.25 151.55 M68.3 105.85 L68.25 105.85 68.3 106.0 50.0 193.2 M68.25 105.85 L68.15 105.95 0.05 97.7 M68.3 105.85 L68.25 105.8 68.25 105.85 M68.25 105.8 L68.2 105.7 0.0 45.7 M68.3 105.8 L68.25 105.75 68.25 105.8 M68.25 105.75 L68.2 105.7 18.25 10.05 M68.6 106.0 L68.35 105.8 118.25 60.15 M86.6 18.35 L68.3 105.8 M136.6 114.25 L68.6 106.0 M68.25 105.75 L49.95 0.05"/></g><g id="c8"><g><use transform="matrix(1.0,0.0,0.0,1.0,0.0,0.0)" xlink:href="#c7"/></g></g><g id="c9"><g><use transform="matrix(1.0,0.0,0.0,1.0,0.0,0.0)" xlink:href="#c2"/></g><g><use transform="matrix(0.238861083984,-0.0867004394531,0.10026550293,0.233917236328,34.25,31.15)" xlink:href="#c4"/></g><g><use transform="matrix(0.238861083984,-0.0867004394531,0.10026550293,0.233917236328,4.25,10.3)" xlink:href="#c4"/></g><g><use transform="matrix(0.141098022461,-0.0378112792969,0.111373901367,0.225646972656,20.25,20.65)" filter="url(#filter7)" xlink:href="#c6"/></g><g><use transform="matrix(-0.155029296875,0.0513153076172,0.0841827392578,0.147033691406,22.6,3.15)" filter="url(#filter8)" xlink:href="#c8"/></g></g><filter id="filter7"><feColorMatrix in="SourceGraphic" type="matrix" values="0.0 0.0 0.0 0.0 0.796875 0.0 0.0 0.0 0.0 0.59765625 0.0 0.0 0.0 0.0 0.19921875 0.0 0.0 0.0 1.0 0.0" result="cxform"/><feComposite operator="in" in2="SourceGraphic" result="color-xform"/></filter><filter id="filter8"><feColorMatrix in="SourceGraphic" type="matrix" values="0.0 0.0 0.0 0.0 0.99609375 0.0 0.0 0.0 0.0 0.99609375 0.0 0.0 0.0 0.0 0.99609375 0.0 0.0 0.0 1.0 0.0" result="cxform"/><feComposite operator="in" in2="SourceGraphic" result="color-xform"/></filter><radialGradient gradientUnits="userSpaceOnUse" r="819.2" cx="0" cy="0" spreadMethod="pad" gradientTransform="matrix(0.0134735107422,0.0,0.0,0.0134735107422,0.0,0.0)" id="gradient3"><stop offset="0.333333333333" stop-color="#0e171d"/><stop offset="1.0" stop-color="#101a24" stop-opacity="0.0"/></radialGradient><g id="c10"><path stroke="none" fill="url(#gradient3)" d="M8.15 -8.2 Q11.6 -4.8 11.6 0.0 11.6 4.8 8.15 8.15 4.8 11.6 0.0 11.6 -4.8 11.6 -8.2 8.15 -11.6 4.8 -11.6 0.0 -11.6 -4.8 -8.2 -8.2 -4.8 -11.6 0.0 -11.6 4.8 -11.6 8.15 -8.2"/></g><g id="c11"><g><use transform="matrix(1.0,0.0,0.0,1.0,0.0,0.0)" xlink:href="#c10"/></g></g><g id="c12"><path fill="#ded9c3" stroke="none" d="M4.55 -10.95 Q5.0 -1.2 3.9 8.85 L3.35 9.6 Q-1.9 15.0 -2.55 -7.0 L-2.5 -7.15 Q1.05 -11.65 4.55 -10.95"/><path fill="#c2bdaa" stroke="none" d="M-2.55 -7.0 Q-1.9 15.0 3.35 9.6 1.15 12.35 -1.85 10.0 -3.3 4.75 -4.65 -3.9 L-2.55 -7.0"/><path fill="none" stroke="#000000" stroke-width="0.5" stroke-opacity="0.301960784314" d="M3.35 9.6 L3.9 8.85 Q5.0 -1.2 4.55 -10.95 M3.35 9.6 Q1.15 12.35 -1.85 10.0 -3.3 4.75 -4.65 -3.9"/></g><g id="c13"><g><use transform="matrix(1.0,0.0,0.0,1.0,0.0,0.0)" xlink:href="#c12"/></g></g><g id="c14"><path fill="#322d23" stroke="none" d="M-5.0 -10.4 Q5.05 -13.35 7.7 -13.85 11.8 -14.6 21.2 -11.15 13.0 -2.95 21.1 0.45 L20.55 0.85 Q8.3 9.8 -3.7 12.4 L-3.75 12.4 -3.85 12.15 -3.75 12.4 -3.85 12.35 -3.85 12.15 -4.0 11.15 -1.45 10.8 -1.45 11.25 Q2.15 11.05 4.8 9.55 L4.65 8.9 Q6.3 8.75 8.3 7.45 9.55 7.1 10.95 6.2 L10.9 5.9 Q12.1 5.55 13.5 4.65 L13.4 4.2 Q16.1 3.6 18.15 2.05 17.05 -2.7 14.45 -2.8 L14.4 -2.75 14.2 -2.45 Q12.8 -0.3 12.65 2.7 L11.55 1.8 11.4 1.75 11.35 1.75 10.75 2.4 Q10.45 0.95 7.55 0.65 4.25 0.35 -0.3 1.7 -2.75 2.45 -4.8 3.45 -5.3 -3.45 -5.0 -10.4 M4.6 8.6 L4.6 8.85 4.55 8.6 4.6 8.6"/><path fill="#ebe4bd" stroke="none" d="M10.75 2.4 L11.35 1.75 11.4 1.75 10.8 2.5 Q10.35 3.25 10.2 4.4 L10.7 5.35 Q11.85 5.1 13.2 4.3 L13.2 4.25 12.65 2.9 11.55 1.8 12.65 2.7 Q12.8 -0.3 14.2 -2.45 12.85 -0.2 12.95 3.15 L13.1 3.4 Q15.55 2.9 17.4 1.45 16.5 -2.65 14.4 -2.75 L14.45 -2.8 Q17.05 -2.7 18.15 2.05 16.1 3.6 13.4 4.2 L13.5 4.65 Q12.1 5.55 10.9 5.9 L10.95 6.2 Q9.55 7.1 8.3 7.45 6.3 8.75 4.65 8.9 L4.8 9.55 Q2.15 11.05 -1.45 11.25 L-1.45 10.8 Q-1.55 7.05 0.35 4.65 -1.25 6.8 -1.05 10.35 L0.75 10.15 Q2.5 9.75 3.9 8.9 L3.95 8.85 Q2.95 4.7 0.6 4.4 L0.6 4.35 Q3.25 4.65 4.55 8.6 L4.6 8.85 4.6 8.6 Q4.7 5.8 6.15 4.55 L6.2 4.55 Q4.95 5.6 4.95 8.25 L5.4 8.2 7.25 7.55 8.0 7.1 7.95 6.95 7.65 6.05 7.45 5.7 6.35 4.6 Q7.0 4.9 7.5 5.55 7.85 4.1 8.8 3.3 L8.85 3.3 Q7.9 4.1 7.7 5.85 L8.15 6.9 10.35 6.05 10.65 5.85 10.55 5.4 10.2 4.6 10.0 4.25 Q9.6 3.65 9.0 3.35 9.6 3.6 10.0 4.15 10.25 3.1 10.75 2.4 M10.9 5.9 L10.7 5.35 10.9 5.9 M8.3 7.45 L8.15 6.9 8.3 7.45 M12.95 3.15 L12.65 2.7 12.95 3.15 M13.4 4.2 L13.1 3.4 13.4 4.2 M4.65 8.9 L4.6 8.9 4.6 8.85 4.6 8.9 4.65 8.9 M7.7 5.85 L7.5 5.55 7.7 5.85 M10.2 4.4 L10.0 4.15 10.2 4.4"/><path fill="#fbf1bf" stroke="none" d="M11.4 1.75 L11.55 1.8 12.65 2.9 13.2 4.25 13.2 4.3 Q11.85 5.1 10.7 5.35 L10.2 4.4 Q10.35 3.25 10.8 2.5 L11.4 1.75 M14.2 -2.45 L14.4 -2.75 Q16.5 -2.65 17.4 1.45 15.55 2.9 13.1 3.4 L12.95 3.15 Q12.85 -0.2 14.2 -2.45 M9.0 3.35 Q9.6 3.65 10.0 4.25 L10.2 4.6 10.55 5.4 10.65 5.85 10.35 6.05 8.15 6.9 7.7 5.85 Q7.9 4.1 8.85 3.3 L9.0 3.35 M6.2 4.55 L6.35 4.6 7.45 5.7 7.65 6.05 7.95 6.95 8.0 7.1 7.25 7.55 5.4 8.2 4.95 8.25 Q4.95 5.6 6.2 4.55 M0.35 4.65 L0.6 4.4 Q2.95 4.7 3.95 8.85 L3.9 8.9 Q2.5 9.75 0.75 10.15 L-1.05 10.35 Q-1.25 6.8 0.35 4.65"/><path fill="#ded9c3" stroke="none" d="M-3.75 12.4 L-3.7 12.4 Q8.3 9.8 20.55 0.85 L21.1 0.45 Q23.35 0.2 21.0 2.75 8.45 11.3 -3.45 14.0 L-3.75 12.4"/><path fill="#851d13" stroke="none" d="M-4.8 3.45 Q-2.75 2.45 -0.3 1.7 4.25 0.35 7.55 0.65 10.45 0.95 10.75 2.4 10.25 3.1 10.0 4.15 9.6 3.6 9.0 3.35 L8.85 3.3 8.8 3.3 Q7.85 4.1 7.5 5.55 7.0 4.9 6.35 4.6 L6.2 4.55 6.15 4.55 Q4.7 5.8 4.6 8.6 L4.55 8.6 Q3.25 4.65 0.6 4.35 L0.6 4.4 0.35 4.65 Q-1.55 7.05 -1.45 10.8 L-4.0 11.15 -4.8 3.45"/><path fill="#c2bdaa" stroke="none" d="M-5.0 -10.4 Q-5.3 -3.45 -4.8 3.45 L-4.0 11.15 -3.85 12.15 -3.85 12.35 -3.75 12.4 -3.45 14.0 -3.65 14.0 -3.7 14.0 Q-20.35 7.75 -22.2 3.5 -21.05 -2.7 -19.05 -6.45 -14.4 -15.2 -5.0 -10.4"/><path fill="none" stroke="#000000" stroke-width="0.5" stroke-opacity="0.301960784314" d="M21.1 0.45 Q13.0 -2.95 21.2 -11.15 11.8 -14.6 7.7 -13.85 5.05 -13.35 -5.0 -10.4 -5.3 -3.45 -4.8 3.45 L-4.0 11.15 -3.85 12.15 -3.75 12.4 -3.7 12.4 Q8.3 9.8 20.55 0.85 L21.1 0.45 Q23.35 0.2 21.0 2.75 8.45 11.3 -3.45 14.0 L-3.65 14.0 -3.7 14.0 Q-20.35 7.75 -22.2 3.5 M10.75 2.4 L11.35 1.75 11.4 1.75 11.55 1.8 12.65 2.7 Q12.8 -0.3 14.2 -2.45 L14.4 -2.75 14.45 -2.8 Q17.05 -2.7 18.15 2.05 16.1 3.6 13.4 4.2 L13.5 4.65 Q12.1 5.55 10.9 5.9 L10.95 6.2 Q9.55 7.1 8.3 7.45 6.3 8.75 4.65 8.9 L4.8 9.55 Q2.15 11.05 -1.45 11.25 L-1.45 10.8 Q-1.55 7.05 0.35 4.65 L0.6 4.4 0.6 4.35 Q3.25 4.65 4.55 8.6 L4.6 8.85 4.6 8.9 4.65 8.9 M10.2 4.4 L10.7 5.35 10.9 5.9 M9.0 3.35 L8.85 3.3 M7.7 5.85 L8.15 6.9 8.3 7.45 M12.95 3.15 L13.1 3.4 13.4 4.2 M12.65 2.7 L12.95 3.15 M6.2 4.55 L6.15 4.55 Q4.7 5.8 4.6 8.6 L4.6 8.85 M6.35 4.6 L6.2 4.55 M6.35 4.6 Q7.0 4.9 7.5 5.55 7.85 4.1 8.8 3.3 L8.85 3.3 M10.0 4.15 Q9.6 3.6 9.0 3.35 M7.5 5.55 L7.7 5.85 M10.0 4.15 Q10.25 3.1 10.75 2.4 M10.0 4.15 L10.2 4.4 M-3.75 12.4 L-3.85 12.35 -3.85 12.15"/><path fill="none" stroke="#000000" stroke-width="0.5" stroke-opacity="0.301960784314" d="M-4.8 3.45 Q-2.75 2.45 -0.3 1.7 4.25 0.35 7.55 0.65 10.45 0.95 10.75 2.4 M-1.45 10.8 L-4.0 11.15 M4.55 8.6 L4.6 8.6 M3.9 8.9 L3.95 8.85"/></g><g id="c15"><g><use transform="matrix(1.0,0.0,0.0,1.0,0.0,0.0)" xlink:href="#c14"/></g></g><g id="c16"><path fill="#241706" stroke="none" d="M4.7 -1.35 Q-5.25 7.1 -4.65 0.5 -4.25 5.0 3.6 -3.35 L4.55 -2.45 4.7 -1.35"/><path fill="none" stroke="#000000" stroke-width="0.5" stroke-opacity="0.101960784314" d="M4.7 -1.35 Q-5.25 7.1 -4.65 0.5 -4.25 5.0 3.6 -3.35 L4.55 -2.45 4.7 -1.35"/></g><g id="c17"><g><use transform="matrix(1.0,0.0,0.0,1.0,0.0,0.0)" xlink:href="#c16"/></g></g><g id="c18"><path fill="#fcf7de" stroke="none" d="M-17.6 -8.9 Q-12.3 -1.05 -12.7 -6.8 -13.75 -16.85 -9.1 -18.0 -4.4 -17.85 -2.8 -13.2 L-0.35 -5.75 Q0.3 -3.4 0.6 -3.85 7.1 -5.35 6.0 -12.45 L14.75 -5.2 Q1.4 0.3 -0.8 -2.45 -5.55 -16.7 -8.6 -16.45 -13.35 -15.55 -12.4 -5.45 -12.2 -2.6 -13.3 -2.95 -15.1 -4.1 -17.6 -8.9"/><path fill="#c2bdaa" stroke="none" d="M-17.6 -8.9 Q-15.1 -4.1 -13.3 -2.95 -12.2 -2.6 -12.4 -5.45 -13.35 -15.55 -8.6 -16.45 -5.55 -16.7 -0.8 -2.45 1.4 0.3 14.75 -5.2 20.7 12.2 14.15 18.05 1.95 10.95 1.15 8.4 L-0.95 4.25 -2.0 1.65 -2.3 0.85 Q-3.65 -2.8 -5.8 -6.25 -8.25 -10.3 -10.05 -3.55 -11.4 1.7 -15.3 -4.75 L-17.6 -8.9"/><path fill="none" stroke="#000000" stroke-width="0.5" stroke-opacity="0.301960784314" d="M6.0 -12.45 Q7.1 -5.35 0.6 -3.85 0.3 -3.4 -0.35 -5.75 L-2.8 -13.2 Q-4.4 -17.85 -9.1 -18.0 -13.75 -16.85 -12.7 -6.8 -12.3 -1.05 -17.6 -8.9 L-15.3 -4.75 Q-11.4 1.7 -10.05 -3.55 -8.25 -10.3 -5.8 -6.25 -3.65 -2.8 -2.3 0.85 L-2.0 1.65 -0.95 4.25 1.15 8.4 Q1.95 10.95 14.15 18.05"/></g><g id="c19"><g><use transform="matrix(1.0,0.0,0.0,1.0,0.0,0.0)" xlink:href="#c18"/></g></g><g id="c20"><path fill="#ebe4bd" stroke="none" d="M15.3 21.4 Q16.1 20.25 16.45 18.8 L16.55 18.4 16.7 15.55 15.55 15.8 14.95 15.95 Q13.75 16.25 12.7 16.85 L10.95 17.1 12.7 16.85 13.2 16.8 Q13.3 18.75 12.9 20.4 13.75 21.6 15.05 21.7 13.75 21.65 12.8 20.75 12.35 22.25 11.4 23.45 12.3 22.2 12.65 20.55 L12.7 20.1 12.8 17.75 11.8 17.85 11.2 17.95 Q9.3 18.3 7.8 19.25 8.1 20.5 8.55 21.45 L9.2 21.35 9.2 22.55 9.2 22.9 9.2 22.55 Q10.05 23.6 11.2 23.75 L11.15 23.75 Q10.05 23.6 9.2 22.9 9.1 27.15 7.4 30.05 9.0 27.15 8.85 22.55 5.95 22.8 3.8 24.55 4.8 30.0 7.2 30.4 L7.15 30.45 Q4.2 29.95 2.9 23.65 5.15 21.95 8.1 21.5 7.4 20.3 6.95 18.55 8.7 17.55 10.95 17.1 L10.85 16.85 Q12.55 15.7 14.7 15.1 L17.1 14.6 17.1 14.9 17.1 14.6 14.7 15.1 Q17.35 13.45 20.95 13.0 L20.95 14.75 20.75 16.05 20.95 14.75 23.65 14.25 Q23.85 19.55 21.85 22.95 23.45 20.05 23.3 15.45 21.95 15.55 20.75 16.05 20.35 18.15 19.15 19.75 20.25 18.2 20.5 16.15 L20.6 14.9 20.55 14.0 Q18.7 14.2 17.1 14.9 17.15 16.9 16.7 18.6 17.35 19.65 18.35 19.95 L18.75 20.05 18.9 20.05 Q19.9 23.0 21.65 23.3 L21.6 23.35 Q19.6 23.0 18.35 19.95 17.35 19.75 16.6 18.95 L15.3 21.4 M16.7 18.6 L16.6 18.95 16.7 18.6 M18.75 20.05 L18.35 19.95 18.75 20.05 M12.9 20.4 L12.8 20.75 12.9 20.4 M8.1 21.5 L8.55 21.45 8.1 21.5"/><path fill="#fbf1bf" stroke="none" d="M12.7 16.85 Q13.75 16.25 14.95 15.95 L15.55 15.8 16.7 15.55 16.55 18.4 16.45 18.8 Q16.1 20.25 15.3 21.4 L15.1 21.7 15.05 21.7 Q13.75 21.6 12.9 20.4 13.3 18.75 13.2 16.8 L12.7 16.85 M16.7 18.6 Q17.15 16.9 17.1 14.9 18.7 14.2 20.55 14.0 L20.6 14.9 20.5 16.15 Q20.25 18.2 19.15 19.75 20.35 18.15 20.75 16.05 21.95 15.55 23.3 15.45 23.45 20.05 21.85 22.95 L21.65 23.3 Q19.9 23.0 18.9 20.05 L18.75 20.05 18.35 19.95 Q17.35 19.65 16.7 18.6 M19.15 19.75 L18.95 20.05 18.9 20.05 18.95 20.05 19.15 19.75 M8.55 21.45 Q8.1 20.5 7.8 19.25 9.3 18.3 11.2 17.95 L11.8 17.85 12.8 17.75 12.7 20.1 12.65 20.55 Q12.3 22.2 11.4 23.45 L11.2 23.75 Q10.05 23.6 9.2 22.55 L9.2 21.35 8.55 21.45 M7.4 30.05 L7.2 30.4 Q4.8 30.0 3.8 24.55 5.95 22.8 8.85 22.55 9.0 27.15 7.4 30.05"/><path fill="none" stroke="#000000" stroke-width="0.5" stroke-opacity="0.301960784314" d="M15.3 21.4 L16.6 18.95 16.7 18.6 Q17.15 16.9 17.1 14.9 L17.1 14.6 14.7 15.1 Q12.55 15.7 10.85 16.85 L10.95 17.1 12.7 16.85 13.2 16.8 Q13.3 18.75 12.9 20.4 M15.05 21.7 L15.1 21.7 15.3 21.4 M20.75 16.05 L20.95 14.75 20.95 13.0 Q17.35 13.45 14.7 15.1 M19.15 19.75 Q20.35 18.15 20.75 16.05 M21.85 22.95 Q23.85 19.55 23.65 14.25 L20.95 14.75 M18.75 20.05 L18.9 20.05 18.95 20.05 19.15 19.75 M18.35 19.95 L18.75 20.05 M21.65 23.3 L21.6 23.35 Q19.6 23.0 18.35 19.95 17.35 19.75 16.6 18.95 M21.65 23.3 L21.85 22.95 M11.4 23.45 Q12.35 22.25 12.8 20.75 L12.9 20.4 M7.2 30.4 L7.15 30.45 Q4.2 29.95 2.9 23.65 5.15 21.95 8.1 21.5 7.4 20.3 6.95 18.55 8.7 17.55 10.95 17.1 M9.2 22.9 L9.2 22.55 9.2 21.35 8.55 21.45 8.1 21.5 M11.4 23.45 L11.2 23.75 11.15 23.75 Q10.05 23.6 9.2 22.9 9.1 27.15 7.4 30.05 L7.2 30.4 M12.8 20.75 Q13.75 21.65 15.05 21.7"/><path fill="#fcf7de" stroke="none" d="M-18.85 -24.35 L-18.85 -24.4 -18.65 -24.7 Q-13.3 -31.1 -4.15 -33.1 5.6 -35.25 13.85 -32.05 15.9 -31.3 17.55 -30.25 L19.35 -28.95 Q21.35 -27.35 22.6 -25.3 L22.9 -24.7 23.35 -23.75 23.2 -22.65 Q22.5 -19.0 16.4 -15.6 10.25 -12.2 -0.7 -9.9 L-2.45 -9.6 Q-8.05 -8.7 -11.85 -9.6 -14.55 -10.25 -16.35 -11.8 -21.1 -15.95 -21.0 -18.9 -20.9 -21.85 -18.85 -24.35"/><path fill="#ded9c3" stroke="none" d="M25.1 -15.05 L25.2 -13.65 24.6 -6.35 24.55 -5.35 24.55 -6.25 Q23.85 -7.65 21.85 -7.15 14.15 4.2 -2.75 3.85 L-3.7 4.2 Q-7.55 5.8 -8.1 9.75 L-8.6 7.75 -9.3 2.85 -9.2 -0.15 -2.9 -0.4 -2.8 -0.55 Q2.9 -10.85 9.9 -3.7 11.5 -3.1 12.7 -5.3 16.2 -16.85 22.85 -12.0 L25.1 -15.05 M23.8 12.6 Q24.2 13.85 24.9 15.0 26.95 18.3 25.2 18.45 L23.25 19.35 23.2 19.35 23.25 19.3 Q26.1 17.15 23.65 16.7 L23.3 16.65 20.65 16.6 20.45 16.6 20.15 16.6 16.9 17.7 16.65 17.8 15.6 18.15 Q14.6 18.5 13.1 19.5 L12.75 19.75 9.2 22.35 8.85 22.65 6.1 24.95 4.25 26.55 3.85 26.9 -1.1 31.0 -1.25 31.05 Q-1.25 27.5 -2.9 23.75 L-2.95 23.65 Q3.3 22.4 7.1 19.1 L8.35 17.9 Q10.2 15.85 11.35 13.15 12.45 11.4 15.65 12.7 17.15 13.3 19.1 13.35 L20.95 13.25 23.8 12.75 23.8 12.6 M-1.25 31.15 L-1.2 31.15 -1.25 31.2 -1.25 31.15"/><path fill="#f5f0d7" stroke="none" d="M24.05 -21.65 L24.1 -21.5 24.4 -20.2 25.1 -15.05 22.85 -12.0 Q16.2 -16.85 12.7 -5.3 11.5 -3.1 9.9 -3.7 2.9 -10.85 -2.8 -0.55 L-2.9 -0.4 -9.2 -0.15 -13.3 -1.4 Q-15.2 -2.0 -17.3 -3.3 L-17.55 -3.45 -19.5 -4.75 -19.8 -5.0 Q-23.0 -7.35 -23.6 -9.85 -24.3 -12.45 -23.65 -14.95 L-23.6 -15.1 -23.35 -15.85 -23.3 -16.2 Q-22.5 -19.75 -19.5 -23.65 L-18.85 -24.35 Q-20.9 -21.85 -21.0 -18.9 -21.1 -15.95 -16.35 -11.8 -14.55 -10.25 -11.85 -9.6 -8.05 -8.7 -2.45 -9.6 L-0.7 -9.9 Q10.25 -12.2 16.4 -15.6 22.5 -19.0 23.2 -22.65 L23.35 -23.75 24.05 -21.65"/><path fill="#c2bdaa" stroke="none" d="M24.55 -5.35 L24.55 -5.05 24.45 -3.75 24.25 -0.75 24.15 0.9 23.95 1.5 Q23.8 1.85 23.35 6.75 23.0 10.0 23.8 12.6 L23.8 12.75 20.95 13.25 19.1 13.35 Q17.15 13.3 15.65 12.7 12.45 11.4 11.35 13.15 10.2 15.85 8.35 17.9 L7.1 19.1 Q3.3 22.4 -2.95 23.65 L-2.9 23.75 Q-1.25 27.5 -1.25 31.05 L-1.25 31.15 -1.25 31.2 -1.2 31.15 -1.15 31.25 Q-4.15 33.05 -8.2 33.8 -12.45 34.1 -14.65 33.75 L-17.0 33.35 -24.1 28.6 -25.95 12.05 -25.95 9.5 -25.55 6.8 -25.6 6.75 -24.95 -7.2 Q-24.85 -3.95 -23.05 -1.0 -21.55 1.55 -18.8 3.85 -15.9 6.3 -11.65 8.5 L-8.15 10.2 -8.0 10.25 -8.1 9.75 Q-7.55 5.8 -3.7 4.2 L-2.75 3.85 Q14.15 4.2 21.85 -7.15 23.85 -7.65 24.55 -6.25 L24.55 -5.35"/><path fill="#d6d1bb" stroke="none" d="M-24.95 -7.2 L-24.9 -8.85 -24.7 -10.1 -23.65 -14.95 Q-24.3 -12.45 -23.6 -9.85 -23.0 -7.35 -19.8 -5.0 L-19.5 -4.75 -17.55 -3.45 -17.3 -3.3 Q-15.2 -2.0 -13.3 -1.4 L-9.2 -0.15 -9.3 2.85 -8.6 7.75 -8.1 9.75 -8.0 10.25 -8.15 10.2 -11.65 8.5 Q-15.9 6.3 -18.8 3.85 -21.55 1.55 -23.05 -1.0 -24.85 -3.95 -24.95 -7.2"/><path fill="#322d23" stroke="none" d="M23.25 19.3 L23.65 16.7 Q26.1 17.15 23.25 19.3"/><path fill="none" stroke="#000000" stroke-width="0.5" stroke-opacity="0.301960784314" d="M-18.85 -24.35 L-18.85 -24.4 -18.65 -24.7 Q-13.3 -31.1 -4.15 -33.1 5.6 -35.25 13.85 -32.05 15.9 -31.3 17.55 -30.25 L19.35 -28.95 Q21.35 -27.35 22.6 -25.3 M23.35 -23.75 L23.9 -22.15 24.05 -21.65 M25.2 -13.65 L24.6 -6.35 24.55 -5.35 24.55 -5.05 24.45 -3.75 M-24.95 -7.2 L-24.9 -8.85 -24.7 -10.1 -23.65 -14.95 -23.6 -15.1 -23.35 -15.85 -23.3 -16.2 Q-22.5 -19.75 -19.5 -23.65 L-18.85 -24.35"/><path fill="none" stroke="#000000" stroke-width="0.5" stroke-opacity="0.301960784314" d="M22.6 -25.3 L22.9 -24.7 23.35 -23.75 M24.05 -21.65 L24.1 -21.5 24.4 -20.2 25.1 -15.05 25.2 -13.65 M23.8 12.6 Q24.2 13.85 24.9 15.0 26.95 18.3 25.2 18.45 L23.25 19.35 M23.65 16.7 L23.3 16.65 20.65 16.6 20.45 16.6 20.15 16.6 16.9 17.7 16.65 17.8 15.6 18.15 Q14.6 18.5 13.1 19.5 L12.75 19.75 9.2 22.35 8.85 22.65 6.1 24.95 4.25 26.55 3.85 26.9 -1.1 31.0 M-1.2 31.15 L-1.15 31.25 Q-4.15 33.05 -8.2 33.8 -12.45 34.1 -14.65 33.75 L-17.0 33.35 -24.1 28.6 M-25.95 9.5 L-25.55 6.8 -25.6 6.75 -24.95 -7.2 M23.25 19.3 Q26.1 17.15 23.65 16.7"/><path fill="none" stroke="#000000" stroke-width="0.5" stroke-opacity="0.101960784314" d="M23.35 -23.75 L24.05 -21.65"/><path fill="none" stroke="#000000" stroke-width="0.5" stroke-opacity="0.301960784314" d="M-3.3 0.35 Q1.5 -9.0 7.5 -5.55"/><path fill="none" stroke="#000000" stroke-width="0.5" stroke-opacity="0.301960784314" d="M13.55 -7.95 Q17.1 -14.9 21.85 -12.6"/></g><g id="c21"><g><use transform="matrix(1.0,0.0,0.0,1.0,0.0,0.0)" xlink:href="#c20"/></g></g><g id="c22"><path fill="#ded9c3" stroke="none" d="M-4.55 -10.95 Q-1.05 -11.65 2.5 -7.15 L2.55 -7.0 Q1.9 15.0 -3.35 9.6 L-3.9 8.85 Q-5.0 -1.2 -4.55 -10.95"/><path fill="#c2bdaa" stroke="none" d="M2.55 -7.0 L4.65 -3.9 Q3.3 4.7 1.85 10.0 -1.15 12.35 -3.35 9.6 1.9 15.0 2.55 -7.0"/><path fill="none" stroke="#000000" stroke-width="0.5" stroke-opacity="0.301960784314" d="M4.65 -3.9 Q3.3 4.7 1.85 10.0 -1.15 12.35 -3.35 9.6 L-3.9 8.85 Q-5.0 -1.2 -4.55 -10.95"/></g><g id="c23"><g><use transform="matrix(1.0,0.0,0.0,1.0,0.0,0.0)" xlink:href="#c22"/></g></g><g id="c24"><path fill="#331e09" stroke="none" d="M4.1 2.05 Q2.8 5.0 0.5 6.3 -1.85 7.55 -3.45 6.75 -5.1 5.95 -5.2 3.45 -5.35 0.9 -3.9 -1.9 -2.5 -4.7 -0.3 -6.15 1.85 -7.55 3.45 -6.75 5.1 -6.0 5.2 -3.45 5.35 -0.9 4.1 2.05"/></g><g id="c25"><g><use transform="matrix(1.0,0.0,0.0,1.0,0.0,0.0)" xlink:href="#c24"/></g></g><radialGradient gradientUnits="userSpaceOnUse" r="819.2" cx="0" cy="0" spreadMethod="pad" gradientTransform="matrix(-0.00643920898438,0.00299072265625,0.00141906738281,0.00909423828125,-0.5,0.25)" id="gradient4"><stop offset="0.709803921569" stop-color="#fbf1bf"/><stop offset="0.772549019608" stop-color="#d8ca7c"/></radialGradient><g id="c26"><path stroke="none" fill="url(#gradient4)" d="M-4.05 -3.55 Q-5.2 -1.2 -4.75 1.5 -4.35 4.2 -2.6 5.6 -0.95 7.1 1.1 6.4 3.05 5.8 4.15 3.45 5.3 1.1 4.85 -1.6 4.45 -4.3 2.75 -5.75 1.05 -7.15 -0.95 -6.55 -2.95 -5.85 -4.05 -3.55"/><path fill="none" stroke="#000000" stroke-width="0.5" stroke-opacity="0.301960784314" d="M-4.05 -3.55 Q-5.2 -1.2 -4.75 1.5 -4.35 4.2 -2.6 5.6 -0.95 7.1 1.1 6.4 3.05 5.8 4.15 3.45 5.3 1.1 4.85 -1.6 4.45 -4.3 2.75 -5.75 1.05 -7.15 -0.95 -6.55 -2.95 -5.85 -4.05 -3.55"/><path fill="#000000" stroke="none" d="M-2.75 4.8 L-1.95 4.85 -1.25 4.1 Q-1.05 3.55 -1.15 3.0 -1.25 2.5 -1.65 2.25 -2.05 2.05 -2.45 2.25 L-3.15 2.9 Q-3.4 3.45 -3.25 4.0 -3.2 4.55 -2.75 4.8"/><path fill="none" stroke="#6f5122" stroke-width="0.5" d="M-2.75 4.8 L-1.95 4.85 -1.25 4.1 Q-1.05 3.55 -1.15 3.0 -1.25 2.5 -1.65 2.25 -2.05 2.05 -2.45 2.25 L-3.15 2.9 Q-3.4 3.45 -3.25 4.0 -3.2 4.55 -2.75 4.8"/><path fill="#ffffff" stroke="none" d="M-1.7 3.2 L-1.3 3.2 -0.9 2.85 -0.85 2.3 -1.15 1.85 -1.55 1.8 -1.95 2.25 -2.0 2.85 -1.7 3.2"/></g><g id="c27"><g><use transform="matrix(1.0,0.0,0.0,1.0,0.0,0.0)" xlink:href="#c26"/></g></g><g id="c28"><path fill="#f5f0d7" stroke="none" d="M4.7 -6.9 Q4.0 -7.65 3.05 -7.95 -1.0 -7.7 -4.4 -3.7 -6.0 -1.7 -6.15 0.0 L-5.85 4.1 -5.2 6.3 Q-0.6 -3.95 4.7 -6.9"/><path fill="#ded9c3" stroke="none" d="M-5.2 6.3 L-4.2 7.95 Q-0.3 0.5 6.15 -3.3 5.85 -5.75 4.7 -6.9 -0.6 -3.95 -5.2 6.3"/><path fill="none" stroke="#000000" stroke-width="0.5" stroke-opacity="0.301960784314" d="M4.7 -6.9 Q4.0 -7.65 3.05 -7.95 M-6.15 0.0 L-5.85 4.1 -5.2 6.3 -4.2 7.95 Q-0.3 0.5 6.15 -3.3 5.85 -5.75 4.7 -6.9"/></g><g id="c29"><g><use transform="matrix(1.0,0.0,0.0,1.0,0.0,0.0)" xlink:href="#c28"/></g></g><g id="c30"><path fill="#331e09" stroke="none" d="M5.5 -4.9 Q7.8 -3.45 7.8 -0.95 7.8 1.55 5.5 3.6 3.25 5.6 0.05 6.0 -3.2 6.4 -5.45 4.95 -7.75 3.45 -7.75 0.95 -7.75 -1.55 -5.45 -3.55 -3.2 -5.6 0.05 -6.0 3.25 -6.4 5.5 -4.9"/></g><g id="c31"><g><use transform="matrix(1.0,0.0,0.0,1.0,0.0,0.0)" xlink:href="#c30"/></g></g><radialGradient gradientUnits="userSpaceOnUse" r="819.2" cx="0" cy="0" spreadMethod="pad" gradientTransform="matrix(0.00894165039062,-0.00260925292969,0.0,0.0101013183594,0.85,-0.15)" id="gradient5"><stop offset="0.709803921569" stop-color="#fbf1bf"/><stop offset="0.772549019608" stop-color="#d8ca7c"/></radialGradient><g id="c32"><path stroke="none" fill="url(#gradient5)" d="M4.6 -6.95 Q6.55 -5.55 6.55 -2.55 6.55 0.45 4.6 3.25 2.75 6.15 0.0 7.2 -2.7 8.3 -4.6 6.95 -6.5 5.6 -6.5 2.6 -6.5 -0.4 -4.6 -3.25 -2.7 -6.1 0.0 -7.2 2.75 -8.25 4.6 -6.95"/><path fill="none" stroke="#000000" stroke-width="0.5" stroke-opacity="0.301960784314" d="M4.6 -6.95 Q6.55 -5.55 6.55 -2.55 6.55 0.45 4.6 3.25 2.75 6.15 0.0 7.2 -2.7 8.3 -4.6 6.95 -6.5 5.6 -6.5 2.6 -6.5 -0.4 -4.6 -3.25 -2.7 -6.1 0.0 -7.2 2.75 -8.25 4.6 -6.95"/><path fill="#000000" stroke="none" d="M4.55 2.2 L3.55 2.95 2.5 2.8 Q2.1 2.5 2.15 1.85 2.15 1.25 2.6 0.7 L3.7 -0.05 4.7 0.05 Q5.15 0.4 5.1 1.0 L4.55 2.2"/><path fill="none" stroke="#6f5122" stroke-width="0.5" d="M4.55 2.2 L3.55 2.95 2.5 2.8 Q2.1 2.5 2.15 1.85 2.15 1.25 2.6 0.7 L3.7 -0.05 4.7 0.05 Q5.15 0.4 5.1 1.0 L4.55 2.2"/><path fill="#ffffff" stroke="none" d="M2.85 1.65 L2.3 2.05 1.75 1.95 Q1.5 1.85 1.55 1.5 1.55 1.2 1.8 0.85 2.05 0.55 2.4 0.45 L2.95 0.55 3.15 1.05 2.85 1.65"/></g><g id="c33"><g><use transform="matrix(1.0,0.0,0.0,1.0,0.0,0.0)" xlink:href="#c32"/></g></g><g id="c34"><path fill="#f5f0d7" stroke="none" d="M-7.3 0.3 Q-6.65 -1.05 -5.45 -2.3 -0.3 -6.15 4.85 -5.7 7.3 -5.35 7.85 -3.85 8.4 -1.65 8.4 0.4 L8.05 3.15 8.0 3.2 Q0.0 -2.1 -7.3 0.3"/><path fill="#ded9c3" stroke="none" d="M8.05 3.15 L7.1 5.8 Q0.6 2.45 -8.35 5.25 -8.55 2.65 -7.3 0.3 0.0 -2.1 8.0 3.2 L8.05 3.15"/><path fill="none" stroke="#000000" stroke-width="0.5" stroke-opacity="0.301960784314" d="M-7.3 0.3 Q-6.65 -1.05 -5.45 -2.3 M7.85 -3.85 Q8.4 -1.65 8.4 0.4 L8.05 3.15 7.1 5.8 Q0.6 2.45 -8.35 5.25 -8.55 2.65 -7.3 0.3 M8.0 3.2 L8.05 3.15"/></g><g id="c35"><g><use transform="matrix(1.0,0.0,0.0,1.0,0.0,0.0)" xlink:href="#c34"/></g></g><radialGradient gradientUnits="userSpaceOnUse" r="819.2" cx="0" cy="0" spreadMethod="pad" gradientTransform="matrix(0.0336761474609,-0.00382995605469,0.0013427734375,0.0333404541016,0.05,-0.1)" id="gradient6"><stop offset="0.160784313725" stop-color="#ffffff" stop-opacity="0.2"/><stop offset="0.705882352941" stop-color="#d9fcd6" stop-opacity="0.6"/><stop offset="1.0" stop-color="#d9fcd8" stop-opacity="0.0"/></radialGradient><g id="c36"><path stroke="none" fill="url(#gradient6)" d="M-27.25 3.05 Q-27.7 -8.05 -20.1 -16.9 -12.35 -25.75 -1.0 -27.05 10.2 -28.3 18.45 -21.25 26.85 -14.25 27.3 -3.2 27.75 8.05 19.95 16.9 12.35 25.75 1.15 27.0 -10.15 28.3 -18.55 21.25 -26.8 14.25 -27.25 3.05"/></g><g id="c37"><g><use transform="matrix(1.0,0.0,0.0,1.0,0.0,0.0)" xlink:href="#c36"/></g></g><g id="c38"><path fill="#ffffff" stroke="none" d="M0.35 5.95 L-2.7 11.35 -2.7 21.95 3.45 18.3 3.45 7.7 0.35 5.95 M3.75 7.05 L3.75 18.85 -3.05 22.9 -3.05 11.15 0.35 5.05 3.75 7.05"/><path fill="#fbf1bf" stroke="none" d="M0.35 5.95 L3.45 7.7 3.45 18.3 -2.7 21.95 -2.7 11.35 0.35 5.95"/><path fill="none" stroke="#000000" stroke-width="0.5" stroke-opacity="0.301960784314" d="M3.75 7.05 L3.75 18.85 -3.05 22.9 -3.05 11.15 0.35 5.05 3.75 7.05"/><path fill="#000000" stroke="none" d="M-1.8 13.7 L-1.8 12.8 2.75 9.5 2.75 10.4 -1.8 13.7"/><path fill="#000000" stroke="none" d="M0.85 9.65 Q1.05 13.5 2.35 16.35 L1.85 17.05 Q0.7 15.2 0.45 12.55 -0.15 16.25 -1.4 20.5 L-1.9 20.5 Q-0.15 14.3 0.3 9.05 L0.8 9.0 0.75 9.8 0.85 9.65 M2.95 14.25 Q2.25 14.3 1.85 13.4 L2.05 12.65 Q2.45 13.15 3.5 12.95 L2.95 14.25"/></g><radialGradient gradientUnits="userSpaceOnUse" r="819.2" cx="0" cy="0" spreadMethod="pad" gradientTransform="matrix(0.0574035644531,-0.00161743164062,0.00228881835938,0.0570526123047,0.05,-0.1)" id="gradient7"><stop offset="0.160784313725" stop-color="#ffffff" stop-opacity="0.2"/><stop offset="0.705882352941" stop-color="#d9fcd6" stop-opacity="0.6"/><stop offset="1.0" stop-color="#d9fcd8" stop-opacity="0.0"/></radialGradient><g id="c40"><path stroke="none" fill="url(#gradient7)" d="M46.5 -1.4 Q47.25 17.8 34.0 31.75 21.0 45.7 1.9 46.25 -17.35 46.8 -31.7 33.6 -45.75 20.4 -46.5 1.2 -47.25 -17.75 -34.3 -31.7 -21.1 -45.65 -1.75 -46.2 17.35 -46.7 31.35 -33.55 45.7 -20.35 46.5 -1.4"/></g><g id="c41"><g><use transform="matrix(1.0,0.0,0.0,1.0,0.0,0.0)" xlink:href="#c40"/></g></g><g id="c42"><g><use transform="matrix(-1.92962646484,-0.0274353027344,0.0,0.969039916992,0.0,0.0)" filter="url(#filter24)" xlink:href="#c11"/></g><g><use transform="matrix(1.0,0.0,0.0,1.0,22.55,-38.85)" xlink:href="#c13"/></g><g><use transform="matrix(1.0,0.0,0.0,1.0,6.65,-41.95)" xlink:href="#c15"/></g><g><use transform="matrix(-0.735000610352,0.570343017578,0.457458496094,0.870956420898,30.2,-44.7)" xlink:href="#c17"/></g><g><use transform="matrix(1.0,0.0,0.0,1.0,-26.85,-44.9)" xlink:href="#c19"/></g><g><use transform="matrix(1.0,0.0,0.0,1.0,3.8,-60.25)" xlink:href="#c21"/></g><g><use transform="matrix(1.0,0.0,0.0,1.0,-3.65,-24.7)" xlink:href="#c23"/></g><g><use transform="matrix(1.0,0.0,0.0,1.0,1.45,-33.25)" xlink:href="#c17"/></g><g><use transform="matrix(1.0,0.0,0.0,1.0,23.0,-55.5)" xlink:href="#c25"/></g><g><use transform="matrix(1.0,0.0,0.0,1.0,22.25,-56.6)" xlink:href="#c27"/></g><g><use transform="matrix(1.0,0.0,0.0,1.0,22.2,-59.35)" xlink:href="#c29"/></g><g><use transform="matrix(1.0,0.0,0.0,1.0,6.25,-48.1)" xlink:href="#c31"/></g><g><use transform="matrix(1.0,0.0,0.0,1.0,7.7,-50.5)" xlink:href="#c33"/></g><g><use transform="matrix(1.0,0.0,0.0,1.0,6.9,-54.6)" xlink:href="#c35"/></g><g><use transform="matrix(1.0,0.0,0.0,1.0,6.95,-77.15)" xlink:href="#c37"/></g><g><use transform="matrix(1.0,0.0,0.0,1.0,14.65,-87.55)" xlink:href="#c38"/></g><g><use transform="matrix(0.394744873047,-0.15446472168,0.0,1.0,14.3,-65.05)" xlink:href="#c39"/></g><g><use transform="matrix(1.0,0.0,0.0,1.0,0.0,-52.1)" xlink:href="#c41"/></g></g><filter id="filter24"><feColorMatrix in="SourceGraphic" type="matrix" values="1.0 0.0 0.0 0.0 0.0 0.0 1.0 0.0 0.0 0.0 0.0 0.0 1.0 0.0 0.0 0.0 0.0 0.0 0.21875 0.0" result="cxform"/><feComposite operator="in" in2="SourceGraphic" result="color-xform"/></filter><g id="c43"><g><use transform="matrix(1.0,0.0,0.0,1.0,6.3,53.35)" xlink:href="#c9"/></g><g><use transform="matrix(0.194198608398,-0.0482635498047,0.0482635498047,0.194198608398,30.75,85.95)" xlink:href="#c42"/></g><g><use transform="matrix(0.141098022461,-0.0378112792969,0.111373901367,0.225646972656,27.2,74.05)" filter="url(#filter44)" xlink:href="#c6"/></g></g><filter id="filter44"><feColorMatrix in="SourceGraphic" type="matrix" values="1.0 0.0 0.0 0.0 0.0 0.0 1.0 0.0 0.0 0.0 0.0 0.0 1.0 0.0 0.0 0.0 0.0 0.0 0.23046875 0.0" result="cxform"/><feComposite operator="in" in2="SourceGraphic" result="color-xform"/></filter></defs><g><g><use transform="matrix(1.0,0.0,0.0,1.0,0.0,0.0)" xlink:href="#c1"/></g><g><use transform="matrix(1.15496826172,0.0,0.0,1.15496826172,-1.55,-56.9)" xlink:href="#c43"/></g></g></svg>