<?xml version='1.0' encoding='UTF-8'?>
<svg xmlns:xlink="http://www.w3.org/1999/xlink" xmlns="http://www.w3.org/2000/svg" version="1.1" width="60px" height="60px" viewBox="0.0 0.0 60.0 60.0"><defs><g id="c1"><path fill="#000000" fill-opacity="0.00392156862745" d="M0.0 0.0 L60.0 0.0 60.0 60.0 0.0 60.0 0.0 0.0"/></g><g id="c2"><path fill="none" stroke="#000000" stroke-width="1.0" stroke-opacity="0.301960784314" d="M0.7 12.25 Q-0.45 9.75 0.75 8.25 1.2 7.6 2.15 7.15 2.8 6.7 3.8 6.35 L17.5 1.95 30.2 7.0 41.35 31.7 Q42.95 35.15 40.2 36.7 39.5 37.3 38.3 37.65 L25.5 41.8 25.45 41.75 24.55 42.0 11.85 37.0 0.7 12.25"/><path fill="#9d147b" stroke="none" d="M35.55 22.3 L31.5 13.2 29.75 9.2 16.95 4.25 5.5 7.85 Q1.65 9.1 3.35 12.8 L8.25 23.65 13.1 34.35 25.8 39.4 37.2 35.7 Q41.1 34.5 39.35 30.75 L35.55 22.3 M5.45 20.95 L1.35 11.8 Q0.4 9.65 1.1 8.3 1.45 7.65 2.15 7.15 2.8 6.7 3.8 6.35 L17.5 1.95 30.2 7.0 41.35 31.7 Q42.95 35.15 40.2 36.7 L38.9 37.25 25.2 41.65 12.5 36.65 5.45 20.95"/><path fill="#c47fad" stroke="none" d="M31.5 13.2 L35.55 22.3 39.35 30.75 Q41.1 34.5 37.2 35.7 L25.8 39.4 13.1 34.35 8.25 23.65 3.35 12.8 Q1.65 9.1 5.5 7.85 L16.95 4.25 29.75 9.2 31.5 13.2 M18.5 7.45 L9.1 10.55 9.55 11.6 Q9.8 12.8 9.15 13.6 8.4 14.45 7.1 14.4 L6.8 14.4 6.95 14.6 15.2 32.75 23.85 36.2 34.0 32.9 33.7 32.1 Q33.45 30.9 34.1 30.1 34.75 29.3 35.95 29.35 L35.8 29.0 27.75 10.95 18.5 7.45"/><path fill="#fcf2cf" stroke="none" d="M27.75 10.95 L35.8 29.0 35.95 29.35 Q34.75 29.3 34.1 30.1 33.45 30.9 33.7 32.1 L34.0 32.9 23.85 36.2 15.2 32.75 6.95 14.6 6.8 14.4 7.1 14.4 Q8.4 14.45 9.15 13.6 9.8 12.8 9.55 11.6 L9.1 10.55 18.5 7.45 27.75 10.95"/><path fill="#630a4c" stroke="none" d="M1.1 8.3 L0.75 8.25 Q1.2 7.6 2.15 7.15 1.45 7.65 1.1 8.3 M4.6 20.9 L5.45 20.95 12.5 36.65 11.55 36.25 11.25 35.55 4.6 20.9"/><path fill="#300525" stroke="none" d="M1.1 8.3 Q0.4 9.65 1.35 11.8 L5.45 20.95 4.6 20.9 0.7 12.25 Q-0.45 9.75 0.75 8.25 L1.1 8.3 M12.5 36.65 L25.2 41.65 38.9 37.25 40.2 36.7 Q39.5 37.3 38.3 37.65 L25.5 41.8 25.45 41.75 24.55 42.0 11.85 37.0 11.55 36.25 12.5 36.65"/><path fill="none" stroke="#bf9900" stroke-width="1.0" stroke-opacity="0.749019607843" d="M31.5 13.2 L35.55 22.3 M13.1 34.35 L8.25 23.65"/><path fill="none" stroke="#ffcc00" stroke-width="1.0" stroke-opacity="0.749019607843" d="M35.55 22.3 L39.35 30.75 Q41.1 34.5 37.2 35.7 L25.8 39.4 M8.25 23.65 L3.35 12.8 Q1.65 9.1 5.5 7.85 L16.95 4.25 29.75 9.2 31.5 13.2"/><path fill="none" stroke="#f0b92b" stroke-width="0.5" d="M27.75 10.95 L35.8 29.0 35.95 29.35 Q34.75 29.3 34.1 30.1 33.45 30.9 33.7 32.1 L34.0 32.9 23.85 36.2 15.2 32.75 6.95 14.6 6.8 14.4 7.1 14.4 Q8.4 14.45 9.15 13.6 9.8 12.8 9.55 11.6 L9.1 10.55 18.5 7.45"/><path fill="none" stroke="#000000" stroke-width="0.5" stroke-opacity="0.301960784314" d="M5.45 20.95 L1.35 11.8 Q0.4 9.65 1.1 8.3 M0.75 8.25 Q-0.45 9.75 0.7 12.25 L4.6 20.9 M5.45 20.95 L12.5 36.65 M25.2 41.65 L38.9 37.25 40.2 36.7 Q42.95 35.15 41.35 31.7 L30.2 7.0 M17.5 1.95 L3.8 6.35 Q2.8 6.7 2.15 7.15 1.45 7.65 1.1 8.3 M0.75 8.25 Q1.2 7.6 2.15 7.15 M11.25 35.55 L4.6 20.9 M25.5 41.8 L38.3 37.65 Q39.5 37.3 40.2 36.7"/><path fill="none" stroke="#ffcc00" stroke-width="0.5" stroke-opacity="0.749019607843" d="M18.5 7.45 L27.75 10.95"/><path fill="none" stroke="#f0b92b" stroke-width="1.0" stroke-opacity="0.749019607843" d="M25.8 39.4 L13.1 34.35"/><path fill="none" stroke="#432f2f" stroke-width="0.5" d="M12.5 36.65 L25.2 41.65"/></g><g id="c3"><path fill="#7fdbfe" stroke="none" d="M10.75 4.9 Q10.75 4.6 10.9 4.35 11.25 3.45 11.95 2.75 13.3 1.5 14.35 2.1 15.4 2.7 14.95 4.45 14.7 5.4 14.1 6.15 L13.75 6.5 Q13.1 7.15 12.35 7.35 L11.4 7.2 Q10.95 6.9 10.75 6.4 10.5 5.75 10.75 4.9 M7.5 5.9 Q7.0 5.85 6.6 5.5 6.05 5.0 5.8 4.15 L5.7 3.6 Q5.55 2.65 5.8 1.7 6.25 0.0 7.5 0.0 L7.6 0.0 Q8.85 0.0 9.3 1.7 9.55 2.65 9.4 3.6 L9.3 4.15 8.5 5.5 7.6 5.9 7.5 5.9 M4.35 4.9 Q4.6 5.75 4.35 6.4 L3.7 7.2 2.75 7.35 Q2.0 7.15 1.35 6.5 L1.0 6.15 Q0.4 5.4 0.15 4.45 -0.3 2.7 0.75 2.1 1.8 1.5 3.15 2.75 3.85 3.45 4.2 4.35 L4.35 4.9 M5.5 13.7 Q4.45 13.9 3.65 12.95 2.75 12.0 3.2 10.25 3.7 8.5 5.25 7.6 6.4 6.9 7.55 7.0 8.75 6.9 9.9 7.6 11.45 8.5 11.95 10.25 12.35 12.0 11.5 12.95 10.7 13.9 9.65 13.7 8.55 13.5 7.55 12.6 6.55 13.5 5.5 13.7"/></g><g id="c4"><g><use transform="matrix(1.0,0.0,0.0,1.0,0.0,0.0)" xlink:href="#c3"/></g></g><radialGradient gradientUnits="userSpaceOnUse" r="819.2" cx="0" cy="0" spreadMethod="pad" gradientTransform="matrix(0.0914459228516,0.0,0.0,0.0914459228516,0.6,3.4)" id="gradient1"><stop offset="0.0" stop-color="#ffffff"/><stop offset="1.0" stop-color="#ffffff" stop-opacity="0.0"/></radialGradient><g id="c5"><path stroke="none" fill="url(#gradient1)" d="M36.65 -54.65 Q60.05 -42.0 69.75 -17.95 80.55 8.9 68.0 34.1 55.45 59.35 26.8 68.2 -1.8 77.05 -29.7 64.3 -57.6 51.6 -68.45 24.75 -79.3 -2.05 -66.75 -27.25 L-66.7 -27.3 Q-54.1 -52.5 -25.5 -61.4 3.1 -70.2 31.0 -57.5 L36.65 -54.65"/></g><g id="c6"><g><use transform="matrix(1.0,0.0,0.0,1.0,0.0,0.0)" xlink:href="#c5"/></g></g><radialGradient gradientUnits="userSpaceOnUse" r="819.2" cx="0" cy="0" spreadMethod="pad" gradientTransform="matrix(0.209197998047,0.0,0.0,0.177108764648,67.15,107.2)" id="gradient2"><stop offset="0.356862745098" stop-color="#ffffff"/><stop offset="0.670588235294" stop-opacity="0.0"/></radialGradient><g id="c7"><path fill="none" stroke-linejoin="round" stroke-linecap="round" stroke="url(#gradient2)" stroke-width="0.5" d="M136.55 165.8 L68.6 106.0 68.4 106.0 118.25 201.5 M68.3 105.8 L68.35 105.8 68.3 105.8 68.3 105.85 68.4 106.0 68.3 106.0 86.55 211.5 M68.3 105.8 L68.3 105.85 68.3 106.0 68.15 105.95 18.25 151.55 M68.3 105.85 L68.25 105.85 68.3 106.0 50.0 193.2 M68.25 105.85 L68.15 105.95 0.05 97.7 M68.3 105.85 L68.25 105.8 68.25 105.85 M68.25 105.8 L68.2 105.7 0.0 45.7 M68.3 105.8 L68.25 105.75 68.25 105.8 M68.25 105.75 L68.2 105.7 18.25 10.05 M68.6 106.0 L68.35 105.8 118.25 60.15 M86.6 18.35 L68.3 105.8 M136.6 114.25 L68.6 106.0 M68.25 105.75 L49.95 0.05"/></g><g id="c8"><g><use transform="matrix(1.0,0.0,0.0,1.0,0.0,0.0)" xlink:href="#c7"/></g></g><g id="c9"><g><use transform="matrix(1.0,0.0,0.0,1.0,0.0,0.0)" xlink:href="#c2"/></g><g><use transform="matrix(0.238861083984,-0.0867004394531,0.10026550293,0.233917236328,34.25,31.15)" xlink:href="#c4"/></g><g><use transform="matrix(0.238861083984,-0.0867004394531,0.10026550293,0.233917236328,4.25,10.3)" xlink:href="#c4"/></g><g><use transform="matrix(0.141098022461,-0.0378112792969,0.111373901367,0.225646972656,20.25,20.65)" filter="url(#filter7)" xlink:href="#c6"/></g><g><use transform="matrix(-0.155029296875,0.0513153076172,0.0841827392578,0.147033691406,22.6,3.15)" filter="url(#filter8)" xlink:href="#c8"/></g></g><filter id="filter7"><feColorMatrix in="SourceGraphic" type="matrix" values="0.0 0.0 0.0 0.0 0.796875 0.0 0.0 0.0 0.0 0.59765625 0.0 0.0 0.0 0.0 0.19921875 0.0 0.0 0.0 1.0 0.0" result="cxform"/><feComposite operator="in" in2="SourceGraphic" result="color-xform"/></filter><filter id="filter8"><feColorMatrix in="SourceGraphic" type="matrix" values="0.0 0.0 0.0 0.0 0.99609375 0.0 0.0 0.0 0.0 0.99609375 0.0 0.0 0.0 0.0 0.99609375 0.0 0.0 0.0 1.0 0.0" result="cxform"/><feComposite operator="in" in2="SourceGraphic" result="color-xform"/></filter><g id="c10"><path fill="#dede02" stroke="none" d="M17.8 22.5 L18.4 22.5 21.3 22.8 22.25 23.0 22.5 23.3 19.55 23.4 18.95 23.35 18.45 23.4 17.8 22.5"/><path fill="#919101" stroke="none" d="M18.45 23.4 L18.95 23.35 19.55 23.4 22.5 23.3 22.6 23.65 21.65 23.5 20.55 23.65 Q19.7 23.8 19.0 24.35 18.2 24.8 17.65 25.4 L17.65 24.7 17.7 24.0 Q17.85 23.6 18.3 23.4 L18.45 23.4"/><path fill="#c0c001" stroke="none" d="M22.6 23.65 L22.55 23.8 Q22.5 24.55 22.05 24.9 L21.1 26.0 Q20.65 26.7 19.15 26.45 L17.7 25.7 17.65 25.4 Q18.2 24.8 19.0 24.35 19.7 23.8 20.55 23.65 L21.65 23.5 22.6 23.65"/><path fill="#fafa02" stroke="none" d="M17.8 22.5 L18.45 23.4 18.3 23.4 Q17.85 23.6 17.7 24.0 L17.65 24.7 17.65 25.4 17.7 25.7 17.6 25.5 Q17.15 25.0 16.85 24.25 16.25 22.55 17.8 22.5"/><path fill="none" stroke="#000000" stroke-width="0.5" stroke-opacity="0.301960784314" d="M22.5 23.3 L22.25 23.0 21.3 22.8 18.4 22.5 17.8 22.5 M22.5 23.3 L22.6 23.65 22.55 23.8 Q22.5 24.55 22.05 24.9 L21.1 26.0 Q20.65 26.7 19.15 26.45 L17.7 25.7 17.6 25.5 Q17.15 25.0 16.85 24.25 16.25 22.55 17.8 22.5"/><path fill="#454500" stroke="none" d="M22.85 22.1 Q22.75 21.8 22.8 21.2 22.8 20.3 23.15 19.65 23.75 18.5 24.85 18.65 L25.45 18.75 25.45 19.3 Q24.7 19.3 24.1 19.95 23.45 20.75 23.35 21.65 23.35 22.05 23.5 22.45 L22.95 22.25 22.9 22.25 22.85 22.1"/><path fill="#919100" stroke="none" d="M22.85 22.1 L22.5 21.5 22.1 20.35 Q21.8 19.7 22.5 18.8 23.2 17.8 24.6 18.15 25.3 18.3 25.45 18.75 L24.85 18.65 Q23.75 18.5 23.15 19.65 22.8 20.3 22.8 21.2 22.75 21.8 22.85 22.1"/><path fill="#666600" stroke="none" d="M25.45 19.3 L25.1 19.95 24.0 21.8 23.55 22.35 23.5 22.45 Q23.35 22.05 23.35 21.65 23.45 20.75 24.1 19.95 24.7 19.3 25.45 19.3"/><path fill="none" stroke="#000000" stroke-width="0.5" stroke-opacity="0.301960784314" d="M25.45 18.75 Q25.3 18.3 24.6 18.15 23.2 17.8 22.5 18.8 21.8 19.7 22.1 20.35 L22.5 21.5 22.85 22.1 M25.45 18.75 L25.45 19.3 25.1 19.95 24.0 21.8 23.55 22.35 23.5 22.45 22.95 22.25"/><path fill="#d9ab00" stroke="none" d="M22.85 29.35 L22.8 28.45 Q22.6 27.15 23.1 26.05 L23.6 25.25 24.4 24.4 24.75 24.1 25.2 23.75 25.55 23.5 26.65 22.8 23.9 21.1 Q25.1 20.3 26.55 20.15 L26.75 20.15 27.05 20.1 Q28.65 20.2 30.95 21.85 L31.9 22.65 33.05 23.7 Q34.5 25.15 35.85 27.25 L35.8 27.25 Q34.7 28.5 33.1 28.8 L30.1 25.75 27.25 23.3 25.4 24.6 24.55 25.55 24.25 25.95 23.9 26.7 Q23.25 28.25 23.65 30.15 L22.85 29.35 M29.35 33.75 L28.55 33.45 Q27.9 30.25 31.95 28.5 L31.75 28.75 30.55 29.9 29.85 30.85 29.5 31.6 29.2 32.8 29.25 33.2 29.45 33.8 29.35 33.75 M30.95 21.85 L29.9 21.65 30.95 21.85 M28.1 22.0 L28.0 22.1 28.1 22.0"/><path fill="#ffcc00" stroke="none" d="M22.85 29.35 Q21.3 27.55 21.35 26.0 21.3 24.4 22.15 23.1 L22.15 23.05 22.85 22.05 22.95 21.9 23.6 21.3 23.9 21.1 26.65 22.8 25.55 23.5 25.2 23.75 24.75 24.1 24.4 24.4 23.6 25.25 23.1 26.05 Q22.6 27.15 22.8 28.45 L22.85 29.35 M33.1 28.8 L30.55 33.25 Q30.15 33.3 30.25 34.15 L30.2 34.0 29.4 33.85 29.45 33.8 29.25 33.2 29.2 32.8 29.5 31.6 29.85 30.85 30.55 29.9 31.75 28.75 31.4 29.15 32.05 28.5 31.95 28.5 Q27.9 30.25 28.55 33.45 26.45 32.55 24.5 30.95 L23.65 30.15 Q23.25 28.25 23.9 26.7 L24.25 25.95 24.55 25.55 25.4 24.6 27.25 23.3 30.1 25.75 33.1 28.8"/><path fill="#ffa004" stroke="none" d="M29.4 33.85 L29.4 33.8 29.35 33.75 29.45 33.8 29.4 33.85"/><path fill="#a64706" stroke="none" d="M35.85 27.25 L35.85 27.3 35.8 27.25 35.85 27.25"/><path fill="none" stroke="#000000" stroke-width="0.5" stroke-opacity="0.301960784314" d="M23.9 21.1 L23.6 21.3 22.95 21.9 22.85 22.05 22.15 23.05 22.15 23.1 Q21.3 24.4 21.35 26.0 21.3 27.55 22.85 29.35 M23.9 21.1 Q25.1 20.3 26.55 20.15 L26.75 20.15 27.05 20.1 Q28.65 20.2 30.95 21.85 L31.9 22.65 33.05 23.7 Q34.5 25.15 35.85 27.25 L35.85 27.3 35.8 27.25 M30.2 34.0 L29.4 33.85 29.4 33.8 29.35 33.75 28.55 33.45 Q26.45 32.55 24.5 30.95 L23.65 30.15 22.85 29.35"/><path fill="none" stroke="#a65505" stroke-width="0.7" stroke-opacity="0.301960784314" d="M22.85 29.35 L22.8 28.45 Q22.6 27.15 23.1 26.05 M23.6 25.25 L24.4 24.4 M25.2 23.75 L25.55 23.5 26.65 22.8 M29.9 21.65 L30.95 21.85 M28.0 22.1 L28.1 22.0 M29.2 32.8 L29.25 33.2 29.45 33.8 M29.85 30.85 L29.5 31.6 M31.75 28.75 L30.55 29.9"/><path fill="none" stroke="#a65505" stroke-width="1.0" stroke-opacity="0.301960784314" d="M29.45 33.8 L29.4 33.85"/></g><g id="c11"><path fill="#ffc43c" stroke="none" d="M28.9 -1.5 Q30.5 -2.05 30.5 -3.15 L32.25 -3.05 32.7 -2.15 Q33.35 0.05 33.35 4.35 33.35 10.9 30.5 16.45 L28.4 19.4 Q26.7 21.55 26.15 22.5 L24.85 25.5 Q24.15 27.25 22.75 28.3 L21.3 28.3 21.25 28.1 22.2 25.85 21.75 24.25 24.75 20.2 Q27.7 16.35 27.7 13.65 27.7 12.45 26.95 11.2 L26.15 9.95 27.25 8.25 Q28.3 6.5 28.3 5.2 28.3 3.85 27.95 2.8 L27.5 3.05 27.3 3.05 Q27.5 2.05 24.05 1.35 L19.4 0.5 24.4 -0.55 28.9 -1.5 M22.2 27.85 L22.2 27.9 22.3 27.9 22.2 27.85"/><path fill="#ffc33d" fill-opacity="0.6" d="M6.95 -2.05 L7.15 -2.6 7.7 -3.05 9.45 -0.45 Q10.55 1.45 10.4 2.15 L10.05 2.45 7.75 1.85 7.45 1.95 Q8.1 2.5 9.0 4.4 9.9 6.25 9.8 6.75 9.7 7.25 9.0 7.15 L7.35 6.6 6.5 6.7 8.45 9.45 Q9.95 11.5 9.85 12.1 9.7 12.7 8.8 12.4 6.7 11.75 4.45 11.45 L4.25 11.55 6.3 15.25 Q8.05 18.6 8.0 19.0 7.9 19.3 7.55 19.25 L4.85 18.85 Q7.6 22.1 7.5 22.5 L7.15 22.95 5.0 22.6 Q5.25 23.8 5.85 25.25 6.15 25.95 6.0 27.1 L5.85 27.8 Q5.6 28.3 4.75 28.05 3.3 27.65 3.2 27.15 L3.0 24.75 Q2.4 22.25 2.5 21.7 L2.65 21.65 3.95 21.25 Q3.65 20.15 2.6 18.5 2.05 17.5 2.25 16.45 2.3 16.0 2.6 15.95 L4.0 15.6 3.05 12.7 Q2.45 10.3 2.55 9.65 2.65 9.2 2.95 9.15 L4.8 9.2 3.45 6.75 Q2.9 5.55 3.15 4.45 3.3 3.5 4.9 3.55 6.45 3.5 6.55 3.0 L5.8 0.9 Q5.85 0.55 6.25 0.65 L8.0 0.55 8.05 0.55 Q7.6 -0.05 7.25 -0.9 6.9 -1.7 6.95 -2.05 M7.25 1.35 L7.2 1.3 7.2 1.35 7.25 1.35"/></g><g id="c12"><g><use transform="matrix(1.0,0.0,0.0,1.0,0.0,0.0)" xlink:href="#c11"/></g></g><g id="c13"><path fill="#ba9200" stroke="none" d="M35.5 27.0 L35.8 27.3 Q36.05 27.7 35.9 28.5 L35.8 28.8 35.15 30.2 32.35 33.5 30.25 34.0 30.1 33.1 30.15 32.8 32.5 29.4 32.8 29.2 32.9 29.05 33.1 28.8 Q34.4 27.4 35.5 27.0"/><path fill="none" stroke="#000000" stroke-width="0.5" stroke-opacity="0.301960784314" d="M35.5 27.0 L35.8 27.3 Q36.05 27.7 35.9 28.5 L35.8 28.8 35.15 30.2 32.35 33.5 30.25 34.0 M30.1 33.1 L30.15 32.8"/><path fill="none" stroke="#000000" stroke-width="0.5" stroke-opacity="0.152941176471" d="M30.25 34.0 L30.1 33.1 M32.9 29.05 L33.1 28.8 Q34.4 27.4 35.5 27.0"/><path fill="none" stroke="#ffffff" stroke-width="0.5" d="M30.15 32.8 L32.5 29.4 32.8 29.2 32.9 29.05"/><path fill="#755c00" stroke="none" d="M33.25 29.9 L33.3 29.9 33.3 29.85 33.4 29.75 34.75 28.75 34.95 28.9 35.0 29.5 34.9 29.75 34.6 30.5 33.0 32.35 31.85 32.7 31.7 32.1 31.8 31.9 33.15 30.1 33.25 29.9"/><path fill="none" stroke="#000000" stroke-width="0.5" stroke-opacity="0.301960784314" d="M33.25 29.9 L33.3 29.9 33.3 29.85 33.4 29.75 34.75 28.75 34.95 28.9 35.0 29.5 34.9 29.75 34.6 30.5 33.0 32.35 31.85 32.7 31.7 32.1 31.8 31.9 33.15 30.1 33.25 29.9"/><path fill="#ffcc00" stroke="none" d="M35.0 35.95 L35.7 35.0 36.2 34.4 36.65 34.75 Q36.05 35.35 35.6 36.1 L35.0 35.95 M39.35 36.9 L41.05 38.3 Q40.0 38.3 39.1 38.75 L40.4 40.75 Q39.4 41.7 38.15 42.1 L36.75 42.4 36.4 42.4 35.95 42.25 Q37.2 39.6 39.1 38.75 L38.45 37.95 39.35 36.9 M37.2 38.75 L34.9 41.6 Q33.65 39.65 35.2 36.8 L35.6 36.1 36.15 36.35 Q37.2 36.85 38.1 37.65 L37.2 38.75"/><path fill="#fee378" stroke="none" d="M35.0 35.95 L35.6 36.1 35.2 36.8 Q33.65 39.65 34.9 41.6 L34.85 41.55 Q33.7 40.65 33.95 38.7 34.15 37.3 35.0 35.95 M35.95 42.25 L35.25 41.9 37.6 39.0 38.45 37.95 39.1 38.75 Q37.2 39.6 35.95 42.25"/><path fill="#d9ab00" stroke="none" d="M35.6 36.1 Q36.05 35.35 36.65 34.75 L39.0 36.6 38.1 37.65 38.45 37.95 37.6 39.0 Q37.75 38.4 37.2 38.75 L38.1 37.65 Q37.2 36.85 36.15 36.35 L35.6 36.1 M41.05 38.3 L41.95 39.05 41.45 39.7 40.4 40.75 39.1 38.75 Q40.0 38.3 41.05 38.3"/><path fill="#9e7c00" stroke="none" d="M39.0 36.6 L39.35 36.9 38.45 37.95 38.1 37.65 39.0 36.6"/><path fill="none" stroke="#000000" stroke-width="0.5" stroke-opacity="0.301960784314" d="M36.65 34.75 L36.2 34.4 35.7 35.0 35.0 35.95 M36.65 34.75 L39.0 36.6 39.35 36.9 41.05 38.3 41.95 39.05 41.45 39.7 40.4 40.75 Q39.4 41.7 38.15 42.1 L36.75 42.4 36.4 42.4 35.95 42.25 35.25 41.9 37.6 39.0 Q37.75 38.4 37.2 38.75 L34.9 41.6 34.85 41.55 Q33.7 40.65 33.95 38.7 34.15 37.3 35.0 35.95"/><path fill="#d9ab00" stroke="none" d="M32.95 32.05 L32.05 31.35 32.1 31.2 32.8 30.2 33.65 30.9 33.85 30.7 33.95 30.55 34.05 30.55 34.0 30.45 34.15 30.4 34.35 30.2 34.45 30.15 43.45 37.5 43.9 38.3 43.7 38.95 43.6 39.2 43.45 39.35 43.25 39.5 43.05 39.0 Q42.9 38.5 40.05 36.15 L33.65 30.9 33.0 31.95 32.95 32.05"/><path fill="#fee378" stroke="none" d="M32.95 32.05 L33.0 31.95 33.65 30.9 40.05 36.15 Q42.9 38.5 43.05 39.0 L43.25 39.5 43.0 39.6 42.85 39.6 42.8 39.65 42.7 39.65 42.45 39.65 41.95 39.35 41.5 39.0 36.2 34.65 32.95 32.05"/><path fill="#b58e00" stroke="none" d="M33.65 30.9 L32.8 30.2 33.0 30.0 33.05 29.85 33.15 29.8 33.15 29.75 33.25 29.65 33.45 29.5 33.55 29.4 34.45 30.15 34.35 30.2 34.15 30.4 34.0 30.45 34.05 30.55 33.95 30.55 33.85 30.7 33.65 30.9"/><path fill="none" stroke="#000000" stroke-width="0.5" stroke-opacity="0.301960784314" d="M32.05 31.35 L32.95 32.05 36.2 34.65 M34.45 30.15 L33.55 29.4 M41.5 39.0 L41.95 39.35 42.45 39.65 42.7 39.65 42.8 39.65 42.85 39.6 43.0 39.6 43.25 39.5 43.45 39.35 43.6 39.2 43.7 38.95 43.9 38.3 43.45 37.5 34.45 30.15"/><path fill="none" stroke="#000000" stroke-width="0.5" stroke-opacity="0.101960784314" d="M36.2 34.65 L41.5 39.0"/></g><g id="c14"><path fill="#ccbc4d" stroke="none" d="M0.45 -2.0 L0.75 -1.55 1.05 0.0 0.75 1.55 0.7 1.65 Q-0.3 2.0 -0.1 1.05 L-0.05 0.9 0.15 -0.1 -0.05 -1.1 -0.05 -1.15 Q0.0 -1.9 0.45 -2.0"/><path fill="#998c3d" stroke="none" d="M-0.75 -1.45 L-0.75 -1.55 Q-0.45 -2.2 0.0 -2.2 L0.45 -2.0 Q0.0 -1.9 -0.05 -1.15 -0.25 -1.55 -0.55 -1.55 L-0.75 -1.45 M0.7 1.65 L0.0 2.2 Q-0.45 2.2 -0.75 1.55 L-0.9 1.15 -0.55 1.35 -0.1 1.05 Q-0.3 2.0 0.7 1.65"/><path fill="#403a19" stroke="none" d="M-0.9 1.15 L-1.05 0.0 -0.75 -1.45 -0.55 -1.55 Q-0.25 -1.55 -0.05 -1.15 L-0.05 -1.1 0.15 -0.1 -0.05 0.9 -0.1 1.05 -0.55 1.35 -0.9 1.15"/><path fill="none" stroke="#000000" stroke-width="0.5" stroke-opacity="0.2" d="M-0.75 -1.45 L-0.75 -1.55 Q-0.45 -2.2 0.0 -2.2 L0.45 -2.0 0.75 -1.55 1.05 0.0 0.75 1.55 0.7 1.65 M-0.9 1.15 L-1.05 0.0 -0.75 -1.45 -0.55 -1.55 Q-0.25 -1.55 -0.05 -1.15 M-0.05 -1.1 L0.15 -0.1 -0.05 0.9 -0.1 1.05 -0.55 1.35 -0.9 1.15"/><path fill="none" stroke="#ffffff" stroke-width="0.5" stroke-opacity="0.721568627451" d="M0.7 1.65 L0.0 2.2 Q-0.45 2.2 -0.75 1.55 L-0.9 1.15"/></g><g id="c15"><g><use transform="matrix(1.0,0.0,0.0,1.0,0.0,0.0)" xlink:href="#c14"/></g></g><g id="c16"><path fill="none" stroke="#ffffff" stroke-width="1.0" d="M22.55 23.95 L22.2 25.5 Q22.1 27.8 23.85 29.15"/><path fill="none" stroke="#ffffff" stroke-width="1.0" d="M24.8 30.0 L25.4 30.5"/><path fill="none" stroke="#ffffff" stroke-width="1.0" stroke-opacity="0.6" d="M30.2 32.65 L33.1 28.8"/><path fill="none" stroke="#ffffff" stroke-width="1.0" stroke-opacity="0.6" d="M33.95 28.0 L34.9 27.3"/><path fill="none" stroke="#ffffff" stroke-width="1.0" d="M39.35 36.35 L35.9 33.55"/><path fill="none" stroke="#ffffff" stroke-width="1.0" d="M34.4 38.55 Q34.65 37.4 35.5 36.25 M34.3 40.05 L34.3 39.85"/><path fill="none" stroke="#ffffff" stroke-width="1.0" stroke-opacity="0.6" d="M37.25 41.9 L38.2 41.6 Q39.3 41.15 40.0 40.3"/><path fill="none" stroke="#ffffff" stroke-width="1.0" d="M40.0 37.0 L40.25 37.2"/></g><filter id="filter14"><feColorMatrix in="SourceGraphic" type="matrix" values="1.0 0.0 0.0 0.0 0.0 0.0 1.0 0.0 0.0 0.0 0.0 0.0 1.0 0.0 0.0 0.0 0.0 0.0 0.08984375 0.0" result="cxform"/><feComposite operator="in" in2="SourceGraphic" result="color-xform"/></filter><filter id="filter20"><feColorMatrix in="SourceGraphic" type="matrix" values="1.0 0.0 0.0 0.0 0.0 0.0 1.0 0.0 0.0 0.0 0.0 0.0 1.0 0.0 0.0 0.0 0.0 0.0 0.23046875 0.0" result="cxform"/><feComposite operator="in" in2="SourceGraphic" result="color-xform"/></filter></defs><g><g><use transform="matrix(1.0,0.0,0.0,1.0,0.0,0.0)" xlink:href="#c1"/></g><g><use transform="matrix(1.15496826172,0.0,0.0,1.15496826172,5.85,4.8)" xlink:href="#c9"/></g><g><use transform="matrix(1.0,0.0,0.0,1.0,0.0,0.0)" xlink:href="#c10"/></g><g><use transform="matrix(0.16162109375,-0.250793457031,0.301696777344,0.1875,21.4,28.6)" filter="url(#filter14)" xlink:href="#c12"/></g><g><use transform="matrix(1.0,0.0,0.0,1.0,0.0,0.0)" xlink:href="#c13"/></g><g><use transform="matrix(0.496994018555,-0.60627746582,0.371322631836,0.30436706543,35.3,32.75)" xlink:href="#c15"/></g><g><use transform="matrix(0.30436706543,-0.371322631836,0.371322631836,0.30436706543,38.75,34.95)" xlink:href="#c15"/></g><g><use transform="matrix(-0.496994018555,0.60627746582,0.371322631836,0.30436706543,40.95,37.9)" xlink:href="#c15"/></g><g><use transform="matrix(1.0,0.0,0.0,1.0,0.0,0.0)" xlink:href="#c16"/></g><g><use transform="matrix(0.162948608398,-0.0436706542969,0.128631591797,0.260604858398,30.0,28.7)" filter="url(#filter20)" xlink:href="#c6"/></g></g></svg>