<?xml version='1.0' encoding='UTF-8'?>
<svg xmlns:xlink="http://www.w3.org/1999/xlink" xmlns="http://www.w3.org/2000/svg" version="1.1" width="60px" height="60px" viewBox="0.0 0.0 60.0 60.0"><defs><g id="c1"><path fill="#000000" fill-opacity="0.00392156862745" d="M0.0 0.0 L60.0 0.0 60.0 60.0 0.0 60.0 0.0 0.0"/></g><g id="c2"><path fill="none" stroke="#000000" stroke-width="1.0" stroke-opacity="0.301960784314" d="M0.7 12.25 Q-0.45 9.75 0.75 8.25 1.2 7.6 2.15 7.15 2.8 6.7 3.8 6.35 L17.5 1.95 30.2 7.0 41.35 31.7 Q42.95 35.15 40.2 36.7 39.5 37.3 38.3 37.65 L25.5 41.8 25.45 41.75 24.55 42.0 11.85 37.0 0.7 12.25"/><path fill="#9d147b" stroke="none" d="M35.55 22.3 L31.5 13.2 29.75 9.2 16.95 4.25 5.5 7.85 Q1.65 9.1 3.35 12.8 L8.25 23.65 13.1 34.35 25.8 39.4 37.2 35.7 Q41.1 34.5 39.35 30.75 L35.55 22.3 M5.45 20.95 L1.35 11.8 Q0.4 9.65 1.1 8.3 1.45 7.65 2.15 7.15 2.8 6.7 3.8 6.35 L17.5 1.95 30.2 7.0 41.35 31.7 Q42.95 35.15 40.2 36.7 L38.9 37.25 25.2 41.65 12.5 36.65 5.45 20.95"/><path fill="#c47fad" stroke="none" d="M31.5 13.2 L35.55 22.3 39.35 30.75 Q41.1 34.5 37.2 35.7 L25.8 39.4 13.1 34.35 8.25 23.65 3.35 12.8 Q1.65 9.1 5.5 7.85 L16.95 4.25 29.75 9.2 31.5 13.2 M18.5 7.45 L9.1 10.55 9.55 11.6 Q9.8 12.8 9.15 13.6 8.4 14.45 7.1 14.4 L6.8 14.4 6.95 14.6 15.2 32.75 23.85 36.2 34.0 32.9 33.7 32.1 Q33.45 30.9 34.1 30.1 34.75 29.3 35.95 29.35 L35.8 29.0 27.75 10.95 18.5 7.45"/><path fill="#fcf2cf" stroke="none" d="M27.75 10.95 L35.8 29.0 35.95 29.35 Q34.75 29.3 34.1 30.1 33.45 30.9 33.7 32.1 L34.0 32.9 23.85 36.2 15.2 32.75 6.95 14.6 6.8 14.4 7.1 14.4 Q8.4 14.45 9.15 13.6 9.8 12.8 9.55 11.6 L9.1 10.55 18.5 7.45 27.75 10.95"/><path fill="#630a4c" stroke="none" d="M1.1 8.3 L0.75 8.25 Q1.2 7.6 2.15 7.15 1.45 7.65 1.1 8.3 M4.6 20.9 L5.45 20.95 12.5 36.65 11.55 36.25 11.25 35.55 4.6 20.9"/><path fill="#300525" stroke="none" d="M1.1 8.3 Q0.4 9.65 1.35 11.8 L5.45 20.95 4.6 20.9 0.7 12.25 Q-0.45 9.75 0.75 8.25 L1.1 8.3 M12.5 36.65 L25.2 41.65 38.9 37.25 40.2 36.7 Q39.5 37.3 38.3 37.65 L25.5 41.8 25.45 41.75 24.55 42.0 11.85 37.0 11.55 36.25 12.5 36.65"/><path fill="none" stroke="#bf9900" stroke-width="1.0" stroke-opacity="0.749019607843" d="M31.5 13.2 L35.55 22.3 M13.1 34.35 L8.25 23.65"/><path fill="none" stroke="#ffcc00" stroke-width="1.0" stroke-opacity="0.749019607843" d="M35.55 22.3 L39.35 30.75 Q41.1 34.5 37.2 35.7 L25.8 39.4 M8.25 23.65 L3.35 12.8 Q1.65 9.1 5.5 7.85 L16.95 4.25 29.75 9.2 31.5 13.2"/><path fill="none" stroke="#f0b92b" stroke-width="0.5" d="M27.75 10.95 L35.8 29.0 35.95 29.35 Q34.75 29.3 34.1 30.1 33.45 30.9 33.7 32.1 L34.0 32.9 23.85 36.2 15.2 32.75 6.95 14.6 6.8 14.4 7.1 14.4 Q8.4 14.45 9.15 13.6 9.8 12.8 9.55 11.6 L9.1 10.55 18.5 7.45"/><path fill="none" stroke="#000000" stroke-width="0.5" stroke-opacity="0.301960784314" d="M5.45 20.95 L1.35 11.8 Q0.4 9.65 1.1 8.3 M0.75 8.25 Q-0.45 9.75 0.7 12.25 L4.6 20.9 M5.45 20.95 L12.5 36.65 M25.2 41.65 L38.9 37.25 40.2 36.7 Q42.95 35.15 41.35 31.7 L30.2 7.0 M17.5 1.95 L3.8 6.35 Q2.8 6.7 2.15 7.15 1.45 7.65 1.1 8.3 M0.75 8.25 Q1.2 7.6 2.15 7.15 M11.25 35.55 L4.6 20.9 M25.5 41.8 L38.3 37.65 Q39.5 37.3 40.2 36.7"/><path fill="none" stroke="#ffcc00" stroke-width="0.5" stroke-opacity="0.749019607843" d="M18.5 7.45 L27.75 10.95"/><path fill="none" stroke="#f0b92b" stroke-width="1.0" stroke-opacity="0.749019607843" d="M25.8 39.4 L13.1 34.35"/><path fill="none" stroke="#432f2f" stroke-width="0.5" d="M12.5 36.65 L25.2 41.65"/></g><g id="c3"><path fill="#7fdbfe" stroke="none" d="M10.75 4.9 Q10.75 4.6 10.9 4.35 11.25 3.45 11.95 2.75 13.3 1.5 14.35 2.1 15.4 2.7 14.95 4.45 14.7 5.4 14.1 6.15 L13.75 6.5 Q13.1 7.15 12.35 7.35 L11.4 7.2 Q10.95 6.9 10.75 6.4 10.5 5.75 10.75 4.9 M7.5 5.9 Q7.0 5.85 6.6 5.5 6.05 5.0 5.8 4.15 L5.7 3.6 Q5.55 2.65 5.8 1.7 6.25 0.0 7.5 0.0 L7.6 0.0 Q8.85 0.0 9.3 1.7 9.55 2.65 9.4 3.6 L9.3 4.15 8.5 5.5 7.6 5.9 7.5 5.9 M4.35 4.9 Q4.6 5.75 4.35 6.4 L3.7 7.2 2.75 7.35 Q2.0 7.15 1.35 6.5 L1.0 6.15 Q0.4 5.4 0.15 4.45 -0.3 2.7 0.75 2.1 1.8 1.5 3.15 2.75 3.85 3.45 4.2 4.35 L4.35 4.9 M5.5 13.7 Q4.45 13.9 3.65 12.95 2.75 12.0 3.2 10.25 3.7 8.5 5.25 7.6 6.4 6.9 7.55 7.0 8.75 6.9 9.9 7.6 11.45 8.5 11.95 10.25 12.35 12.0 11.5 12.95 10.7 13.9 9.65 13.7 8.55 13.5 7.55 12.6 6.55 13.5 5.5 13.7"/></g><g id="c4"><g><use transform="matrix(1.0,0.0,0.0,1.0,0.0,0.0)" xlink:href="#c3"/></g></g><radialGradient gradientUnits="userSpaceOnUse" r="819.2" cx="0" cy="0" spreadMethod="pad" gradientTransform="matrix(0.0914459228516,0.0,0.0,0.0914459228516,0.6,3.4)" id="gradient1"><stop offset="0.0" stop-color="#ffffff"/><stop offset="1.0" stop-color="#ffffff" stop-opacity="0.0"/></radialGradient><g id="c5"><path stroke="none" fill="url(#gradient1)" d="M36.65 -54.65 Q60.05 -42.0 69.75 -17.95 80.55 8.9 68.0 34.1 55.45 59.35 26.8 68.2 -1.8 77.05 -29.7 64.3 -57.6 51.6 -68.45 24.75 -79.3 -2.05 -66.75 -27.25 L-66.7 -27.3 Q-54.1 -52.5 -25.5 -61.4 3.1 -70.2 31.0 -57.5 L36.65 -54.65"/></g><g id="c6"><g><use transform="matrix(1.0,0.0,0.0,1.0,0.0,0.0)" xlink:href="#c5"/></g></g><radialGradient gradientUnits="userSpaceOnUse" r="819.2" cx="0" cy="0" spreadMethod="pad" gradientTransform="matrix(0.209197998047,0.0,0.0,0.177108764648,67.15,107.2)" id="gradient2"><stop offset="0.356862745098" stop-color="#ffffff"/><stop offset="0.670588235294" stop-opacity="0.0"/></radialGradient><g id="c7"><path fill="none" stroke-linejoin="round" stroke-linecap="round" stroke="url(#gradient2)" stroke-width="0.5" d="M136.55 165.8 L68.6 106.0 68.4 106.0 118.25 201.5 M68.3 105.8 L68.35 105.8 68.3 105.8 68.3 105.85 68.4 106.0 68.3 106.0 86.55 211.5 M68.3 105.8 L68.3 105.85 68.3 106.0 68.15 105.95 18.25 151.55 M68.3 105.85 L68.25 105.85 68.3 106.0 50.0 193.2 M68.25 105.85 L68.15 105.95 0.05 97.7 M68.3 105.85 L68.25 105.8 68.25 105.85 M68.25 105.8 L68.2 105.7 0.0 45.7 M68.3 105.8 L68.25 105.75 68.25 105.8 M68.25 105.75 L68.2 105.7 18.25 10.05 M68.6 106.0 L68.35 105.8 118.25 60.15 M86.6 18.35 L68.3 105.8 M136.6 114.25 L68.6 106.0 M68.25 105.75 L49.95 0.05"/></g><g id="c8"><g><use transform="matrix(1.0,0.0,0.0,1.0,0.0,0.0)" xlink:href="#c7"/></g></g><g id="c9"><g><use transform="matrix(1.0,0.0,0.0,1.0,0.0,0.0)" xlink:href="#c2"/></g><g><use transform="matrix(0.238861083984,-0.0867004394531,0.10026550293,0.233917236328,34.25,31.15)" xlink:href="#c4"/></g><g><use transform="matrix(0.238861083984,-0.0867004394531,0.10026550293,0.233917236328,4.25,10.3)" xlink:href="#c4"/></g><g><use transform="matrix(0.141098022461,-0.0378112792969,0.111373901367,0.225646972656,20.25,20.65)" filter="url(#filter7)" xlink:href="#c6"/></g><g><use transform="matrix(-0.155029296875,0.0513153076172,0.0841827392578,0.147033691406,22.6,3.15)" filter="url(#filter8)" xlink:href="#c8"/></g></g><filter id="filter7"><feColorMatrix in="SourceGraphic" type="matrix" values="0.0 0.0 0.0 0.0 0.796875 0.0 0.0 0.0 0.0 0.59765625 0.0 0.0 0.0 0.0 0.19921875 0.0 0.0 0.0 1.0 0.0" result="cxform"/><feComposite operator="in" in2="SourceGraphic" result="color-xform"/></filter><filter id="filter8"><feColorMatrix in="SourceGraphic" type="matrix" values="0.0 0.0 0.0 0.0 0.99609375 0.0 0.0 0.0 0.0 0.99609375 0.0 0.0 0.0 0.0 0.99609375 0.0 0.0 0.0 1.0 0.0" result="cxform"/><feComposite operator="in" in2="SourceGraphic" result="color-xform"/></filter><g id="c10"><path fill="#1b2c36" stroke="none" d="M23.3 25.5 Q25.2 24.0 28.05 23.3 30.95 22.55 33.1 22.6 35.25 22.65 36.95 23.5 38.65 24.35 39.15 25.1 L39.8 26.1 39.85 27.6 Q39.65 28.25 38.85 27.7 39.6 29.15 38.6 29.4 L36.9 29.75 35.9 29.75 35.1 29.7 35.05 29.8 Q35.2 30.2 34.55 30.7 33.85 31.25 33.15 31.35 L31.25 31.05 Q30.05 30.65 30.2 30.1 29.5 31.35 28.8 31.65 L27.05 31.9 Q25.95 31.8 25.25 31.3 24.6 30.8 24.5 29.95 L22.7 29.75 Q21.6 29.4 22.1 27.9 22.65 26.35 23.3 25.5 M25.0 26.1 L28.7 26.2 Q26.3 28.0 25.8 30.6 28.15 28.65 30.75 27.05 L36.6 28.75 Q35.2 26.45 32.35 25.5 L35.8 24.25 Q32.7 23.85 30.55 24.95 27.8 24.7 25.0 26.1 M21.5 32.5 L21.45 32.25 21.5 32.4 21.55 32.4 21.55 32.45 21.6 32.55 21.6 32.6 21.65 32.75 21.6 32.65 21.6 32.6 21.6 32.5 21.5 32.45 21.55 32.45 21.5 32.45 21.5 32.5 M21.55 32.4 L21.5 32.4 21.55 32.4 M21.55 32.45 L21.6 32.5 21.55 32.45 21.5 32.45 21.5 32.4 21.5 32.45 21.55 32.45 M21.6 32.55 L21.6 32.5 21.6 32.55"/><path fill="#192b35" stroke="none" d="M40.95 29.75 L40.9 29.85 40.35 30.6 Q40.1 31.45 38.35 31.0 38.05 36.15 36.1 31.45 35.9 35.6 34.15 33.8 L33.6 33.15 Q32.15 35.2 28.9 35.1 25.65 35.05 24.7 33.0 L24.65 33.15 Q23.05 36.9 21.65 32.75 L21.6 32.6 21.6 32.55 21.55 32.45 21.55 32.4 21.5 32.4 21.45 32.25 21.5 32.5 21.6 32.55 21.6 32.75 21.85 33.65 21.9 33.7 21.9 33.75 21.9 33.8 21.9 33.95 Q20.8 34.4 20.8 32.05 20.9 32.55 21.15 32.85 L21.25 32.85 21.3 30.8 21.4 30.8 22.0 32.3 Q22.5 33.4 23.35 33.25 23.75 33.2 23.95 32.95 L24.35 32.25 24.3 32.15 24.2 31.55 Q26.05 33.95 27.55 34.1 L29.9 34.2 Q30.8 34.2 31.9 33.55 L33.35 32.1 33.35 32.05 33.35 32.0 34.3 33.45 34.95 33.5 Q35.45 33.45 35.8 32.3 L36.0 31.1 37.4 32.85 37.85 31.4 38.0 29.85 38.75 30.2 39.7 30.45 Q40.45 30.3 40.95 29.75 M24.35 32.25 L24.65 33.15 24.35 32.25 M34.15 33.8 L33.7 32.8 33.35 32.05 33.7 32.8 34.15 33.8"/><path fill="#1f333f" stroke="none" d="M39.8 26.1 Q40.75 27.2 40.85 28.25 L40.95 29.75 Q40.45 30.3 39.7 30.45 L38.75 30.2 38.0 29.85 37.85 31.4 37.4 32.85 36.0 31.1 35.8 32.3 Q35.45 33.45 34.95 33.5 L34.3 33.45 33.35 32.0 33.35 32.05 33.35 32.0 33.35 32.05 33.35 32.1 31.9 33.55 Q30.8 34.2 29.9 34.2 L27.55 34.1 Q26.05 33.95 24.2 31.55 L24.3 32.15 24.35 32.25 23.95 32.95 Q23.75 33.2 23.35 33.25 22.5 33.4 22.0 32.3 L21.4 30.8 21.3 30.8 21.25 32.85 21.15 32.85 Q20.9 32.55 20.8 32.05 L20.75 31.1 Q20.9 27.75 22.9 25.85 L23.3 25.5 Q22.65 26.35 22.1 27.9 21.6 29.4 22.7 29.75 L24.5 29.95 Q24.6 30.8 25.25 31.3 25.95 31.8 27.05 31.9 L28.8 31.65 Q29.5 31.35 30.2 30.1 30.05 30.65 31.25 31.05 L33.15 31.35 Q33.85 31.25 34.55 30.7 35.2 30.2 35.05 29.8 L35.1 29.7 35.9 29.75 36.9 29.75 38.6 29.4 Q39.6 29.15 38.85 27.7 39.65 28.25 39.85 27.6 L39.8 26.1"/><path fill="#0e161c" stroke="none" d="M40.35 30.6 Q40.4 33.3 39.75 34.8 39.05 36.3 36.75 37.25 34.45 38.25 33.05 38.5 L29.4 38.95 Q27.05 39.1 24.75 37.8 22.9 36.8 21.9 33.8 L21.9 33.75 21.9 33.7 21.85 33.65 21.6 32.75 21.6 32.55 21.5 32.5 21.5 32.45 21.6 32.5 21.5 32.5 21.6 32.5 21.6 32.55 21.6 32.6 21.6 32.55 21.6 32.6 21.6 32.65 21.9 33.7 21.6 32.65 21.65 32.75 Q23.05 36.9 24.65 33.15 L24.7 33.0 Q25.65 35.05 28.9 35.1 32.15 35.2 33.6 33.15 L34.15 33.8 Q35.9 35.6 36.1 31.45 38.05 36.15 38.35 31.0 40.1 31.45 40.35 30.6 M24.85 33.65 L24.65 33.15 24.85 33.65"/><path fill="#33454b" stroke="none" d="M25.0 26.1 Q27.8 24.7 30.55 24.95 32.7 23.85 35.8 24.25 L32.35 25.5 Q35.2 26.45 36.6 28.75 L30.75 27.05 Q28.15 28.65 25.8 30.6 26.3 28.0 28.7 26.2 L25.0 26.1"/><path fill="none" stroke="#000000" stroke-width="0.5" stroke-opacity="0.298039215686" d="M23.3 25.5 Q25.2 24.0 28.05 23.3 30.95 22.55 33.1 22.6 35.25 22.65 36.95 23.5 38.65 24.35 39.15 25.1 L39.8 26.1 Q40.75 27.2 40.85 28.25 L40.95 29.75 40.9 29.85 40.35 30.6 Q40.4 33.3 39.75 34.8 39.05 36.3 36.75 37.25 34.45 38.25 33.05 38.5 L29.4 38.95 Q27.05 39.1 24.75 37.8 22.9 36.8 21.9 33.8 L21.9 33.95 Q20.8 34.4 20.8 32.05 L20.75 31.1 Q20.9 27.75 22.9 25.85 L23.3 25.5 M40.35 30.6 Q40.1 31.45 38.35 31.0 38.05 36.15 36.1 31.45 35.9 35.6 34.15 33.8 L33.6 33.15 Q32.15 35.2 28.9 35.1 25.65 35.05 24.7 33.0 L24.65 33.15 24.85 33.65 M21.4 30.8 L21.3 30.8 M21.25 32.85 L21.15 32.85 M21.5 32.5 L21.45 32.25 21.5 32.4 21.55 32.4 21.55 32.45 21.6 32.55 21.6 32.6 21.65 32.75 Q23.05 36.9 24.65 33.15 L24.35 32.25 24.3 32.15 24.2 31.55 M21.5 32.4 L21.55 32.4 M21.55 32.45 L21.5 32.45 21.6 32.5 21.55 32.45 M21.5 32.5 L21.5 32.45 21.5 32.4 M21.5 32.45 L21.55 32.45 M21.6 32.5 L21.5 32.5 21.6 32.55 21.6 32.5 21.6 32.55 21.6 32.75 21.85 33.65 21.9 33.7 21.6 32.65 21.65 32.75 21.6 32.65 21.6 32.6 21.6 32.55 21.6 32.6 21.6 32.5 M21.9 33.8 L21.9 33.75 21.9 33.7 M33.35 32.05 L33.35 32.0 33.35 32.05 33.7 32.8 34.15 33.8"/><path fill="none" stroke="#000000" stroke-width="0.5" stroke-opacity="0.298039215686" d="M25.0 26.1 L28.7 26.2 Q26.3 28.0 25.8 30.6 28.15 28.65 30.75 27.05 L36.6 28.75 Q35.2 26.45 32.35 25.5 L35.8 24.25 Q32.7 23.85 30.55 24.95 27.8 24.7 25.0 26.1"/></g><filter id="filter12"><feColorMatrix in="SourceGraphic" type="matrix" values="1.0 0.0 0.0 0.0 0.0 0.0 1.0 0.0 0.0 0.0 0.0 0.0 1.0 0.0 0.0 0.0 0.0 0.0 0.23046875 0.0" result="cxform"/><feComposite operator="in" in2="SourceGraphic" result="color-xform"/></filter></defs><g><g><use transform="matrix(1.0,0.0,0.0,1.0,0.0,0.0)" xlink:href="#c1"/></g><g><use transform="matrix(1.15496826172,0.0,0.0,1.15496826172,5.85,4.8)" xlink:href="#c9"/></g><g><use transform="matrix(1.0,0.0,0.0,1.0,0.0,0.0)" xlink:href="#c10"/></g><g><use transform="matrix(0.162948608398,-0.0436706542969,0.128631591797,0.260604858398,30.0,28.7)" filter="url(#filter12)" xlink:href="#c6"/></g></g></svg>