<?xml version='1.0' encoding='UTF-8'?>
<svg xmlns:xlink="http://www.w3.org/1999/xlink" xmlns="http://www.w3.org/2000/svg" version="1.1" width="60px" height="60px" viewBox="0.0 0.0 60.0 60.0"><defs><g id="c1"><path fill="#000000" fill-opacity="0.00392156862745" d="M0.0 0.0 L60.0 0.0 60.0 60.0 0.0 60.0 0.0 0.0"/></g><g id="c2"><path fill="none" stroke="#000000" stroke-width="1.0" stroke-opacity="0.301960784314" d="M0.7 12.25 Q-0.45 9.75 0.75 8.25 1.2 7.6 2.15 7.15 2.8 6.7 3.8 6.35 L17.5 1.95 30.2 7.0 41.35 31.7 Q42.95 35.15 40.2 36.7 39.5 37.3 38.3 37.65 L25.5 41.8 25.45 41.75 24.55 42.0 11.85 37.0 0.7 12.25"/><path fill="#9d147b" stroke="none" d="M35.55 22.3 L31.5 13.2 29.75 9.2 16.95 4.25 5.5 7.85 Q1.65 9.1 3.35 12.8 L8.25 23.65 13.1 34.35 25.8 39.4 37.2 35.7 Q41.1 34.5 39.35 30.75 L35.55 22.3 M5.45 20.95 L1.35 11.8 Q0.4 9.65 1.1 8.3 1.45 7.65 2.15 7.15 2.8 6.7 3.8 6.35 L17.5 1.95 30.2 7.0 41.35 31.7 Q42.95 35.15 40.2 36.7 L38.9 37.25 25.2 41.65 12.5 36.65 5.45 20.95"/><path fill="#c47fad" stroke="none" d="M31.5 13.2 L35.55 22.3 39.35 30.75 Q41.1 34.5 37.2 35.7 L25.8 39.4 13.1 34.35 8.25 23.65 3.35 12.8 Q1.65 9.1 5.5 7.85 L16.95 4.25 29.75 9.2 31.5 13.2 M18.5 7.45 L9.1 10.55 9.55 11.6 Q9.8 12.8 9.15 13.6 8.4 14.45 7.1 14.4 L6.8 14.4 6.95 14.6 15.2 32.75 23.85 36.2 34.0 32.9 33.7 32.1 Q33.45 30.9 34.1 30.1 34.75 29.3 35.95 29.35 L35.8 29.0 27.75 10.95 18.5 7.45"/><path fill="#fcf2cf" stroke="none" d="M27.75 10.95 L35.8 29.0 35.95 29.35 Q34.75 29.3 34.1 30.1 33.45 30.9 33.7 32.1 L34.0 32.9 23.85 36.2 15.2 32.75 6.95 14.6 6.8 14.4 7.1 14.4 Q8.4 14.45 9.15 13.6 9.8 12.8 9.55 11.6 L9.1 10.55 18.5 7.45 27.75 10.95"/><path fill="#630a4c" stroke="none" d="M1.1 8.3 L0.75 8.25 Q1.2 7.6 2.15 7.15 1.45 7.65 1.1 8.3 M4.6 20.9 L5.45 20.95 12.5 36.65 11.55 36.25 11.25 35.55 4.6 20.9"/><path fill="#300525" stroke="none" d="M1.1 8.3 Q0.4 9.65 1.35 11.8 L5.45 20.95 4.6 20.9 0.7 12.25 Q-0.45 9.75 0.75 8.25 L1.1 8.3 M12.5 36.65 L25.2 41.65 38.9 37.25 40.2 36.7 Q39.5 37.3 38.3 37.65 L25.5 41.8 25.45 41.75 24.55 42.0 11.85 37.0 11.55 36.25 12.5 36.65"/><path fill="none" stroke="#bf9900" stroke-width="1.0" stroke-opacity="0.749019607843" d="M31.5 13.2 L35.55 22.3 M13.1 34.35 L8.25 23.65"/><path fill="none" stroke="#ffcc00" stroke-width="1.0" stroke-opacity="0.749019607843" d="M35.55 22.3 L39.35 30.75 Q41.1 34.5 37.2 35.7 L25.8 39.4 M8.25 23.65 L3.35 12.8 Q1.65 9.1 5.5 7.85 L16.95 4.25 29.75 9.2 31.5 13.2"/><path fill="none" stroke="#f0b92b" stroke-width="0.5" d="M27.75 10.95 L35.8 29.0 35.95 29.35 Q34.75 29.3 34.1 30.1 33.45 30.9 33.7 32.1 L34.0 32.9 23.85 36.2 15.2 32.75 6.95 14.6 6.8 14.4 7.1 14.4 Q8.4 14.45 9.15 13.6 9.8 12.8 9.55 11.6 L9.1 10.55 18.5 7.45"/><path fill="none" stroke="#000000" stroke-width="0.5" stroke-opacity="0.301960784314" d="M5.45 20.95 L1.35 11.8 Q0.4 9.65 1.1 8.3 M0.75 8.25 Q-0.45 9.75 0.7 12.25 L4.6 20.9 M5.45 20.95 L12.5 36.65 M25.2 41.65 L38.9 37.25 40.2 36.7 Q42.95 35.15 41.35 31.7 L30.2 7.0 M17.5 1.95 L3.8 6.35 Q2.8 6.7 2.15 7.15 1.45 7.65 1.1 8.3 M0.75 8.25 Q1.2 7.6 2.15 7.15 M11.25 35.55 L4.6 20.9 M25.5 41.8 L38.3 37.65 Q39.5 37.3 40.2 36.7"/><path fill="none" stroke="#ffcc00" stroke-width="0.5" stroke-opacity="0.749019607843" d="M18.5 7.45 L27.75 10.95"/><path fill="none" stroke="#f0b92b" stroke-width="1.0" stroke-opacity="0.749019607843" d="M25.8 39.4 L13.1 34.35"/><path fill="none" stroke="#432f2f" stroke-width="0.5" d="M12.5 36.65 L25.2 41.65"/></g><g id="c3"><path fill="#7fdbfe" stroke="none" d="M10.75 4.9 Q10.75 4.6 10.9 4.35 11.25 3.45 11.95 2.75 13.3 1.5 14.35 2.1 15.4 2.7 14.95 4.45 14.7 5.4 14.1 6.15 L13.75 6.5 Q13.1 7.15 12.35 7.35 L11.4 7.2 Q10.95 6.9 10.75 6.4 10.5 5.75 10.75 4.9 M7.5 5.9 Q7.0 5.85 6.6 5.5 6.05 5.0 5.8 4.15 L5.7 3.6 Q5.55 2.65 5.8 1.7 6.25 0.0 7.5 0.0 L7.6 0.0 Q8.85 0.0 9.3 1.7 9.55 2.65 9.4 3.6 L9.3 4.15 8.5 5.5 7.6 5.9 7.5 5.9 M4.35 4.9 Q4.6 5.75 4.35 6.4 L3.7 7.2 2.75 7.35 Q2.0 7.15 1.35 6.5 L1.0 6.15 Q0.4 5.4 0.15 4.45 -0.3 2.7 0.75 2.1 1.8 1.5 3.15 2.75 3.85 3.45 4.2 4.35 L4.35 4.9 M5.5 13.7 Q4.45 13.9 3.65 12.95 2.75 12.0 3.2 10.25 3.7 8.5 5.25 7.6 6.4 6.9 7.55 7.0 8.75 6.9 9.9 7.6 11.45 8.5 11.95 10.25 12.35 12.0 11.5 12.95 10.7 13.9 9.65 13.7 8.55 13.5 7.55 12.6 6.55 13.5 5.5 13.7"/></g><g id="c4"><g><use transform="matrix(1.0,0.0,0.0,1.0,0.0,0.0)" xlink:href="#c3"/></g></g><radialGradient gradientUnits="userSpaceOnUse" r="819.2" cx="0" cy="0" spreadMethod="pad" gradientTransform="matrix(0.0914459228516,0.0,0.0,0.0914459228516,0.6,3.4)" id="gradient1"><stop offset="0.0" stop-color="#ffffff"/><stop offset="1.0" stop-color="#ffffff" stop-opacity="0.0"/></radialGradient><g id="c5"><path stroke="none" fill="url(#gradient1)" d="M36.65 -54.65 Q60.05 -42.0 69.75 -17.95 80.55 8.9 68.0 34.1 55.45 59.35 26.8 68.2 -1.8 77.05 -29.7 64.3 -57.6 51.6 -68.45 24.75 -79.3 -2.05 -66.75 -27.25 L-66.7 -27.3 Q-54.1 -52.5 -25.5 -61.4 3.1 -70.2 31.0 -57.5 L36.65 -54.65"/></g><g id="c6"><g><use transform="matrix(1.0,0.0,0.0,1.0,0.0,0.0)" xlink:href="#c5"/></g></g><radialGradient gradientUnits="userSpaceOnUse" r="819.2" cx="0" cy="0" spreadMethod="pad" gradientTransform="matrix(0.209197998047,0.0,0.0,0.177108764648,67.15,107.2)" id="gradient2"><stop offset="0.356862745098" stop-color="#ffffff"/><stop offset="0.670588235294" stop-opacity="0.0"/></radialGradient><g id="c7"><path fill="none" stroke-linejoin="round" stroke-linecap="round" stroke="url(#gradient2)" stroke-width="0.5" d="M136.55 165.8 L68.6 106.0 68.4 106.0 118.25 201.5 M68.3 105.8 L68.35 105.8 68.3 105.8 68.3 105.85 68.4 106.0 68.3 106.0 86.55 211.5 M68.3 105.8 L68.3 105.85 68.3 106.0 68.15 105.95 18.25 151.55 M68.3 105.85 L68.25 105.85 68.3 106.0 50.0 193.2 M68.25 105.85 L68.15 105.95 0.05 97.7 M68.3 105.85 L68.25 105.8 68.25 105.85 M68.25 105.8 L68.2 105.7 0.0 45.7 M68.3 105.8 L68.25 105.75 68.25 105.8 M68.25 105.75 L68.2 105.7 18.25 10.05 M68.6 106.0 L68.35 105.8 118.25 60.15 M86.6 18.35 L68.3 105.8 M136.6 114.25 L68.6 106.0 M68.25 105.75 L49.95 0.05"/></g><g id="c8"><g><use transform="matrix(1.0,0.0,0.0,1.0,0.0,0.0)" xlink:href="#c7"/></g></g><g id="c9"><g><use transform="matrix(1.0,0.0,0.0,1.0,0.0,0.0)" xlink:href="#c2"/></g><g><use transform="matrix(0.238861083984,-0.0867004394531,0.10026550293,0.233917236328,34.25,31.15)" xlink:href="#c4"/></g><g><use transform="matrix(0.238861083984,-0.0867004394531,0.10026550293,0.233917236328,4.25,10.3)" xlink:href="#c4"/></g><g><use transform="matrix(0.141098022461,-0.0378112792969,0.111373901367,0.225646972656,20.25,20.65)" filter="url(#filter7)" xlink:href="#c6"/></g><g><use transform="matrix(-0.155029296875,0.0513153076172,0.0841827392578,0.147033691406,22.6,3.15)" filter="url(#filter8)" xlink:href="#c8"/></g></g><filter id="filter7"><feColorMatrix in="SourceGraphic" type="matrix" values="0.0 0.0 0.0 0.0 0.796875 0.0 0.0 0.0 0.0 0.59765625 0.0 0.0 0.0 0.0 0.19921875 0.0 0.0 0.0 1.0 0.0" result="cxform"/><feComposite operator="in" in2="SourceGraphic" result="color-xform"/></filter><filter id="filter8"><feColorMatrix in="SourceGraphic" type="matrix" values="0.0 0.0 0.0 0.0 0.99609375 0.0 0.0 0.0 0.0 0.99609375 0.0 0.0 0.0 0.0 0.99609375 0.0 0.0 0.0 1.0 0.0" result="cxform"/><feComposite operator="in" in2="SourceGraphic" result="color-xform"/></filter><g id="c10"><path fill="#ffba2e" fill-opacity="0.0" d="M52.0 0.0 L52.0 52.0 0.0 52.0 0.0 0.0 52.0 0.0"/></g><g id="c11"><g><use transform="matrix(1.0,0.0,0.0,1.0,0.0,0.0)" xlink:href="#c10"/></g></g><g id="c12"><path fill="#fbf1bf" stroke="none" d="M27.85 5.35 L28.6 6.15 28.7 6.25 26.7 6.4 Q24.75 6.75 22.85 7.95 22.9 7.15 23.25 6.45 25.75 4.8 27.85 5.35 M27.45 4.6 L26.35 4.8 Q25.05 4.9 23.25 6.15 23.3 5.2 23.7 4.4 25.3 3.55 26.8 3.8 L27.35 4.5 27.45 4.6 M26.5 3.35 Q24.9 3.35 23.75 4.25 23.85 3.5 24.25 2.55 24.75 1.5 25.6 2.35 L26.5 3.35"/><path fill="#e8deb0" stroke="none" d="M27.85 5.35 Q25.75 4.8 23.25 6.45 L23.25 6.15 Q25.05 4.9 26.35 4.8 L27.45 4.6 27.85 5.35 M22.85 7.95 Q24.75 6.75 26.7 6.4 L28.7 6.25 28.75 6.25 29.05 6.75 Q24.85 7.1 22.85 8.25 L22.85 7.95 M26.8 3.8 Q25.3 3.55 23.7 4.4 L23.75 4.25 Q24.9 3.35 26.5 3.35 L26.8 3.8"/><path fill="#ccc39b" stroke="none" d="M22.85 8.25 Q24.85 7.1 29.05 6.75 29.75 7.05 29.75 7.9 26.1 11.65 22.75 10.0 22.55 8.9 22.85 8.25"/><path fill="none" stroke="#000000" stroke-width="0.5" stroke-opacity="0.301960784314" d="M28.6 6.15 L27.85 5.35 Q25.75 4.8 23.25 6.45 22.9 7.15 22.85 7.95 L22.85 8.25 Q24.85 7.1 29.05 6.75 L28.75 6.25 M23.25 6.15 L23.25 6.45 M27.85 5.35 L27.45 4.6 27.35 4.5 26.8 3.8 Q25.3 3.55 23.7 4.4 23.3 5.2 23.25 6.15 M26.8 3.8 L26.5 3.35 25.6 2.35 Q24.75 1.5 24.25 2.55 23.85 3.5 23.75 4.25 L23.7 4.4 M22.85 8.25 Q22.55 8.9 22.75 10.0 26.1 11.65 29.75 7.9 29.75 7.05 29.05 6.75"/><path fill="#ffffff" stroke="none" d="M23.95 4.05 L24.5 2.65 Q24.85 2.15 25.1 2.4 25.7 3.0 25.8 3.7 25.4 3.1 23.95 4.05"/><path fill="#ffffff" stroke="none" d="M26.4 5.2 L24.65 5.45 Q23.7 5.95 23.7 5.1 24.45 4.1 26.55 4.15 L26.4 5.2"/><path fill="#771861" stroke="none" d="M39.65 14.25 L40.2 15.55 Q41.75 20.15 39.65 24.5 38.85 26.2 37.65 27.45 35.75 29.45 32.95 30.35 28.3 31.95 24.0 29.85 19.65 27.7 18.1 23.15 17.55 21.45 17.5 19.8 L17.5 19.15 17.7 19.65 19.0 21.6 20.35 23.0 22.85 24.6 Q27.15 26.65 31.65 25.05 33.35 24.5 34.75 23.65 L34.8 23.6 Q37.05 21.95 38.4 19.25 39.6 16.8 39.65 14.25 M37.65 27.45 L37.6 27.35 Q36.95 25.5 34.8 23.7 L34.8 23.6 34.8 23.7 Q36.95 25.5 37.6 27.35 L37.65 27.45 M17.7 19.65 L17.5 19.8 17.7 19.65 M34.8 23.7 L34.75 23.65 34.8 23.7"/><path fill="#aa3161" stroke="none" d="M17.5 19.15 Q17.5 16.7 18.7 14.25 20.8 9.9 25.4 8.3 29.95 6.75 34.3 8.9 38.0 10.7 39.65 14.25 39.6 16.8 38.4 19.25 37.05 21.95 34.8 23.6 L34.9 21.25 34.75 20.6 Q34.3 20.1 33.0 21.15 L32.4 21.65 32.4 21.7 Q32.25 21.7 32.2 21.8 L33.7 22.8 33.8 22.9 34.75 23.65 Q33.35 24.5 31.65 25.05 27.15 26.65 22.85 24.6 L20.35 23.0 19.0 21.6 17.7 19.65 18.25 19.4 18.7 19.25 18.25 19.4 17.7 19.65 17.5 19.15 M38.15 14.65 L37.55 13.05 Q35.85 10.35 33.55 9.2 31.6 8.25 28.4 8.5 24.55 8.7 23.4 11.0 22.95 11.9 23.35 13.1 23.9 14.95 26.5 16.2 29.0 17.45 33.8 17.4 L36.75 17.0 Q37.35 16.75 37.85 15.7 L38.15 14.65 M21.1 22.45 L21.4 22.7 22.9 21.45 Q23.8 20.35 24.3 18.95 L23.25 18.8 20.55 18.8 20.45 18.9 20.45 18.8 19.75 18.9 19.7 18.95 18.7 19.25 18.95 19.9 Q19.2 20.6 19.4 20.6 L19.5 20.6 20.45 18.9 20.65 20.7 Q20.8 21.95 21.1 22.45 M24.3 18.95 L25.55 19.15 Q29.15 19.95 32.15 21.8 L32.2 21.8 32.15 21.8 Q29.15 19.95 25.55 19.15 L24.3 18.95 M20.55 18.8 L20.45 18.8 20.55 18.8 M32.4 21.7 L32.15 21.8 32.4 21.7"/><path fill="#dc4b62" stroke="none" d="M38.15 14.65 L37.85 15.7 Q37.35 16.75 36.75 17.0 L33.8 17.4 Q29.0 17.45 26.5 16.2 23.9 14.95 23.35 13.1 22.95 11.9 23.4 11.0 24.55 8.7 28.4 8.5 31.6 8.25 33.55 9.2 35.85 10.35 37.55 13.05 L38.15 14.65"/><path fill="#d6c993" stroke="none" d="M23.25 18.8 L24.3 18.95 Q23.8 20.35 22.9 21.45 L21.4 22.7 21.1 22.45 22.25 21.3 Q23.3 20.15 23.3 19.3 L23.25 18.8 M20.45 18.9 L19.5 20.6 19.7 19.15 19.7 18.95 19.75 18.9 20.45 18.8 20.45 18.9 M34.75 23.65 L33.8 22.9 34.15 22.55 34.75 20.6 34.9 21.25 34.8 23.6 34.75 23.65"/><path fill="#fbf1bf" stroke="none" d="M23.25 18.8 L23.3 19.3 Q23.3 20.15 22.25 21.3 L21.1 22.45 Q20.8 21.95 20.65 20.7 L20.45 18.9 20.55 18.8 23.25 18.8 M19.5 20.6 L19.4 20.6 Q19.2 20.6 18.95 19.9 L18.7 19.25 19.7 18.95 19.7 19.15 19.5 20.6 M33.8 22.9 L33.7 22.8 32.2 21.8 Q32.25 21.7 32.4 21.7 L32.4 21.65 33.0 21.15 Q34.3 20.1 34.75 20.6 L34.15 22.55 33.8 22.9"/><path fill="none" stroke="#000000" stroke-width="0.5" stroke-opacity="0.301960784314" d="M34.8 23.6 L34.8 23.7 Q36.95 25.5 37.6 27.35 L37.65 27.45 M21.1 22.45 L21.4 22.7 22.9 21.45 Q23.8 20.35 24.3 18.95 L23.25 18.8 20.55 18.8 20.45 18.9 20.45 18.8 19.75 18.9 M21.1 22.45 Q20.8 21.95 20.65 20.7 L20.45 18.9 19.5 20.6 19.4 20.6 Q19.2 20.6 18.95 19.9 L18.7 19.25 18.25 19.4 17.7 19.65 M34.75 23.65 L33.8 22.9 33.7 22.8 32.2 21.8 32.15 21.8 Q29.15 19.95 25.55 19.15 L24.3 18.95 M20.45 18.8 L20.55 18.8 M18.7 19.25 L19.7 18.95 M17.5 19.8 L17.7 19.65 M34.75 20.6 L34.9 21.25 34.8 23.6 M34.75 23.65 L34.8 23.7 M34.75 20.6 Q34.3 20.1 33.0 21.15 L32.4 21.65 32.4 21.7 Q32.25 21.7 32.2 21.8 M32.15 21.8 L32.4 21.7"/><path fill="#6a8068" stroke="none" d="M21.8 27.75 Q20.75 26.95 20.05 25.8 L20.55 25.6 21.0 25.5 22.8 27.5 22.85 27.5 23.0 27.7 22.45 27.8 22.05 27.9 21.8 27.75 M24.2 27.55 L24.3 27.35 24.75 26.35 25.35 26.7 26.55 27.25 25.2 28.0 25.1 28.1 24.85 28.2 24.4 28.05 24.1 27.9 24.05 27.9 24.2 27.55 M26.25 28.9 L26.55 28.85 27.85 28.5 28.55 29.65 26.7 29.85 26.25 29.85 25.85 29.8 25.6 28.95 26.25 28.9"/><path fill="#e8deb0" stroke="none" d="M22.8 27.5 L23.4 27.45 22.9 27.5 22.85 27.5 22.8 27.5 M21.6 28.0 L21.8 27.75 22.05 27.9 21.6 28.0"/><path fill="#fbf1bf" stroke="none" d="M22.9 27.5 L24.2 27.55 24.05 27.9 24.1 27.9 24.4 28.05 21.9 30.8 20.3 32.6 18.85 34.05 13.5 36.25 Q10.85 37.75 10.85 40.2 10.85 41.65 12.05 42.85 L13.25 43.65 15.95 44.75 16.2 45.1 16.0 45.45 Q14.05 45.2 12.05 44.4 9.15 43.1 8.2 41.55 L8.4 41.5 Q9.0 41.25 9.0 40.0 L8.95 38.95 8.85 38.95 8.5 39.75 Q8.15 40.1 7.75 40.1 L5.15 39.7 5.2 39.45 5.95 37.1 6.65 37.0 7.65 37.15 8.95 37.5 Q9.95 36.1 11.55 35.05 L11.5 35.0 13.0 34.4 15.1 33.35 13.6 33.0 Q12.5 33.0 11.2 32.45 L9.45 31.45 9.65 31.0 11.45 30.6 14.45 30.15 16.35 33.15 Q18.9 32.0 21.6 28.0 L22.05 27.9 22.45 27.8 23.0 27.7 22.85 27.5 22.9 27.5 M8.95 48.4 L8.75 48.25 7.85 47.55 7.25 47.05 7.25 46.85 8.25 45.85 9.2 44.85 9.5 45.0 Q10.9 45.85 10.9 46.35 L10.0 47.55 8.95 48.4 M19.1 33.25 L21.2 30.9 19.8 31.9 18.45 33.0 16.5 33.9 14.4 34.55 12.35 35.45 Q11.15 36.1 10.8 36.5 L10.1 37.65 9.55 38.85 9.75 39.2 Q11.2 36.3 15.55 35.15 17.6 34.6 19.1 33.25 M11.2 31.85 Q11.85 31.85 11.85 31.4 11.85 30.75 11.1 30.8 10.35 30.85 10.35 31.35 10.35 31.85 11.2 31.85 M8.1 46.8 L8.15 47.1 8.7 47.3 Q9.35 47.3 9.35 46.75 9.35 46.25 8.75 46.2 8.1 46.15 8.1 46.8 M6.6 38.5 Q7.3 38.5 7.3 37.85 7.3 37.25 6.7 37.25 6.05 37.25 6.05 37.9 L6.1 38.2 Q6.2 38.5 6.6 38.5"/><path fill="#d6c993" stroke="none" d="M25.2 28.0 L25.5 28.2 26.25 28.9 25.6 28.95 25.85 29.8 26.25 29.85 26.15 30.1 26.05 30.25 Q21.15 37.2 19.0 36.75 12.35 37.65 12.5 40.65 12.5 42.85 13.25 43.65 L12.05 42.85 Q10.85 41.65 10.85 40.2 10.85 37.75 13.5 36.25 L18.85 34.05 20.3 32.6 21.9 30.8 24.4 28.05 24.85 28.2 25.1 28.1 25.2 28.0 M16.0 45.45 L15.7 45.85 14.35 48.0 13.9 47.85 12.45 47.2 10.7 49.45 10.6 49.5 8.95 48.4 10.0 47.55 10.9 46.35 Q10.9 45.85 9.5 45.0 L9.2 44.85 9.2 44.8 8.1 43.15 7.65 41.85 7.0 41.8 6.1 41.7 5.55 41.7 5.2 41.7 4.8 40.95 5.15 39.7 7.75 40.1 Q8.15 40.1 8.5 39.75 L8.85 38.95 8.95 38.95 9.0 40.0 Q9.0 41.25 8.4 41.5 L8.2 41.55 Q9.15 43.1 12.05 44.4 14.05 45.2 16.0 45.45 M11.5 35.0 L9.4 31.6 9.45 31.45 11.2 32.45 Q12.5 33.0 13.6 33.0 L15.1 33.35 13.0 34.4 11.5 35.0"/><path fill="#ffffff" stroke="none" d="M19.1 33.25 Q17.6 34.6 15.55 35.15 11.2 36.3 9.75 39.2 L9.55 38.85 10.1 37.65 10.8 36.5 Q11.15 36.1 12.35 35.45 L14.4 34.55 16.5 33.9 18.45 33.0 19.8 31.9 21.2 30.9 19.1 33.25 M11.2 31.85 Q10.35 31.85 10.35 31.35 10.35 30.85 11.1 30.8 11.85 30.75 11.85 31.4 11.85 31.85 11.2 31.85 M6.6 38.5 Q6.2 38.5 6.1 38.2 L6.05 37.9 Q6.05 37.25 6.7 37.25 7.3 37.25 7.3 37.85 7.3 38.5 6.6 38.5 M8.1 46.8 Q8.1 46.15 8.75 46.2 9.35 46.25 9.35 46.75 9.35 47.3 8.7 47.3 L8.15 47.1 8.1 46.8"/><path fill="none" stroke="#000000" stroke-width="0.5" stroke-opacity="0.301960784314" d="M21.8 27.75 Q20.75 26.95 20.05 25.8 L20.55 25.6 21.0 25.5 22.8 27.5 M22.9 27.5 L24.2 27.55 24.3 27.35 24.75 26.35 25.35 26.7 26.55 27.25 25.2 28.0 25.5 28.2 26.25 28.9 26.55 28.85 27.85 28.5 28.55 29.65 26.7 29.85 26.25 29.85 26.15 30.1 26.05 30.25 Q21.15 37.2 19.0 36.75 12.35 37.65 12.5 40.65 12.5 42.85 13.25 43.65 L15.95 44.75 16.2 45.1 16.0 45.45 15.7 45.85 14.35 48.0 13.9 47.85 12.45 47.2 10.7 49.45 10.6 49.5 8.95 48.4 8.75 48.25 7.85 47.55 7.25 47.05 7.25 46.85 8.25 45.85 9.2 44.85 9.2 44.8 8.1 43.15 7.65 41.85 7.0 41.8 6.1 41.7 5.55 41.7 5.2 41.7 4.8 40.95 5.15 39.7 5.2 39.45 5.95 37.1 6.65 37.0 7.65 37.15 8.95 37.5 Q9.95 36.1 11.55 35.05 L11.5 35.0 9.4 31.6 9.45 31.45 9.65 31.0 11.45 30.6 14.45 30.15 16.35 33.15 Q18.9 32.0 21.6 28.0 L21.8 27.75 22.05 27.9 22.45 27.8 23.0 27.7 22.85 27.5 22.8 27.5 M24.2 27.55 L24.05 27.9 24.1 27.9 24.4 28.05 24.85 28.2 25.1 28.1 25.2 28.0 M26.25 29.85 L25.85 29.8 25.6 28.95 26.25 28.9"/><path fill="#fbf1bf" stroke="none" d="M42.8 15.8 Q42.0 17.3 42.45 19.4 42.7 20.85 43.7 20.8 L42.35 21.1 Q40.65 17.6 42.45 15.7 L42.8 15.8"/><path fill="#e8deb0" stroke="none" d="M42.8 15.8 Q44.15 15.95 45.3 16.6 44.15 15.95 42.8 15.8 L42.45 15.7 Q41.55 15.05 40.45 14.85 L39.95 14.8 Q39.15 14.25 37.5 14.25 33.9 17.8 37.95 22.75 39.2 23.0 39.9 22.2 L40.65 21.95 40.9 21.85 42.35 21.1 43.7 20.8 Q42.7 20.85 42.45 19.4 42.0 17.3 42.8 15.8 M44.95 20.2 L43.7 20.8 44.95 20.2 45.75 20.0 47.45 19.2 Q49.0 18.45 47.75 17.7 46.55 17.0 45.4 16.7 L45.3 16.6 Q44.0 17.85 44.95 20.2"/><path fill="none" stroke="#000000" stroke-width="0.5" stroke-opacity="0.301960784314" d="M45.3 16.6 Q44.15 15.95 42.8 15.8 L42.45 15.7 Q40.65 17.6 42.35 21.1 L43.7 20.8 44.95 20.2 Q44.0 17.85 45.3 16.6 L45.4 16.7 Q46.55 17.0 47.75 17.7 49.0 18.45 47.45 19.2 L45.75 20.0 44.95 20.2 M40.9 21.85 L42.35 21.1 M39.95 14.8 Q39.15 14.25 37.5 14.25 33.9 17.8 37.95 22.75 39.2 23.0 39.9 22.2 37.45 16.7 39.95 14.8 L40.45 14.85 Q41.55 15.05 42.45 15.7 M40.65 21.95 L39.9 22.2"/><path fill="#ffffff" stroke="none" d="M45.55 19.2 Q45.05 18.35 45.75 17.05 L47.55 18.0 Q48.15 18.5 47.7 18.7 46.55 19.3 45.55 19.2"/><path fill="#ffffff" stroke="none" d="M42.8 19.7 Q42.0 18.4 42.9 16.2 43.9 16.4 44.75 16.95 44.05 17.8 43.95 18.95 43.9 20.15 42.8 19.7"/><path fill="#db4a5b" fill-opacity="0.6" d="M26.3 19.0 Q24.95 18.2 24.8 16.6 24.8 14.85 25.75 13.25 26.9 11.6 28.4 11.05 30.05 10.4 31.4 11.25 32.75 12.0 32.75 13.8 33.0 15.3 32.05 17.0 30.9 18.6 29.15 19.3 27.65 19.9 26.3 19.0"/><path fill="#000000" stroke="none" d="M28.1 17.35 Q27.25 17.7 26.45 17.35 25.65 16.85 25.45 15.9 25.3 14.9 25.85 13.9 26.35 12.95 27.25 12.55 L29.0 12.65 Q29.8 13.0 29.9 14.0 30.2 14.95 29.65 15.95 29.15 16.95 28.1 17.35"/><path fill="none" stroke="#000000" stroke-width="0.5" stroke-opacity="0.301960784314" d="M28.1 17.35 Q27.25 17.7 26.45 17.35 25.65 16.85 25.45 15.9 25.3 14.9 25.85 13.9 26.35 12.95 27.25 12.55 L29.0 12.65 Q29.8 13.0 29.9 14.0 30.2 14.95 29.65 15.95 29.15 16.95 28.1 17.35"/><path fill="#fbf1bf" stroke="none" d="M28.15 17.05 Q27.5 17.35 26.9 17.05 26.3 16.7 26.15 16.0 26.05 15.25 26.45 14.5 26.85 13.8 27.45 13.55 28.15 13.2 28.75 13.55 29.4 13.85 29.45 14.55 29.7 15.25 29.3 16.0 L28.15 17.05"/><path fill="none" stroke="#000000" stroke-width="0.5" stroke-opacity="0.301960784314" d="M28.15 17.05 Q27.5 17.35 26.9 17.05 26.3 16.7 26.15 16.0 26.05 15.25 26.45 14.5 26.85 13.8 27.45 13.55 28.15 13.2 28.75 13.55 29.4 13.85 29.45 14.55 29.7 15.25 29.3 16.0 L28.15 17.05"/><path fill="#ffffff" stroke="none" d="M29.35 16.05 L28.6 16.1 28.0 15.4 Q27.75 14.9 27.85 14.35 27.95 13.85 28.3 13.6 28.65 13.4 29.05 13.6 L29.65 14.25 29.75 15.3 29.35 16.05"/><path fill="#db4a5b" fill-opacity="0.6" d="M22.7 16.5 L20.5 16.35 Q19.7 15.65 20.05 14.2 20.55 12.7 21.95 11.2 23.4 9.75 24.75 9.25 L27.15 9.3 Q27.95 10.05 27.4 11.55 27.15 12.9 25.8 14.35 24.35 15.85 22.7 16.5"/><path fill="#000000" stroke="none" d="M22.2 15.1 Q21.4 15.4 20.85 15.1 20.4 14.7 20.5 13.9 20.65 13.05 21.4 12.15 22.15 11.3 23.05 10.9 23.95 10.5 24.4 10.9 24.95 11.25 24.75 12.15 24.65 12.95 23.9 13.8 L22.2 15.1"/><path fill="none" stroke="#000000" stroke-width="0.5" stroke-opacity="0.301960784314" d="M22.2 15.1 Q21.4 15.4 20.85 15.1 20.4 14.7 20.5 13.9 20.65 13.05 21.4 12.15 22.15 11.3 23.05 10.9 23.95 10.5 24.4 10.9 24.95 11.25 24.75 12.15 24.65 12.95 23.9 13.8 L22.2 15.1"/><path fill="#fbf1bf" stroke="none" d="M22.35 14.9 Q21.75 15.15 21.35 14.9 20.95 14.6 21.05 14.0 21.25 13.35 21.8 12.7 22.35 12.05 22.9 11.8 23.6 11.5 24.0 11.8 24.4 12.05 24.2 12.7 L23.55 13.95 22.35 14.9"/><path fill="none" stroke="#000000" stroke-width="0.5" stroke-opacity="0.301960784314" d="M22.35 14.9 Q21.75 15.15 21.35 14.9 20.95 14.6 21.05 14.0 21.25 13.35 21.8 12.7 22.35 12.05 22.9 11.8 23.6 11.5 24.0 11.8 24.4 12.05 24.2 12.7 L23.55 13.95 22.35 14.9"/><path fill="#ffffff" stroke="none" d="M23.6 14.0 L22.9 14.05 22.55 13.5 Q22.45 13.05 22.7 12.55 22.9 12.1 23.3 11.95 L23.95 11.9 24.35 12.45 24.2 13.3 23.6 14.0"/></g><g id="c13"><g><use transform="matrix(1.0,0.0,0.0,1.0,0.0,0.0)" xlink:href="#c11"/></g><g><use transform="matrix(1.0,0.0,0.0,1.0,0.0,0.0)" xlink:href="#c12"/></g></g><filter id="filter15"><feColorMatrix in="SourceGraphic" type="matrix" values="1.0 0.0 0.0 0.0 0.0 0.0 1.0 0.0 0.0 0.0 0.0 0.0 1.0 0.0 0.0 0.0 0.0 0.0 0.23046875 0.0" result="cxform"/><feComposite operator="in" in2="SourceGraphic" result="color-xform"/></filter></defs><g><g><use transform="matrix(1.0,0.0,0.0,1.0,0.0,0.0)" xlink:href="#c1"/></g><g><use transform="matrix(1.15496826172,0.0,0.0,1.15496826172,5.85,4.8)" xlink:href="#c9"/></g><g><use transform="matrix(-0.587814331055,0.0,0.0,0.587814331055,44.6,14.25)" xlink:href="#c13"/></g><g><use transform="matrix(0.162948608398,-0.0436706542969,0.128631591797,0.260604858398,30.0,28.7)" filter="url(#filter15)" xlink:href="#c6"/></g></g></svg>