<?xml version='1.0' encoding='UTF-8'?>
<svg xmlns:xlink="http://www.w3.org/1999/xlink" xmlns="http://www.w3.org/2000/svg" version="1.1" width="60px" height="60px" viewBox="0.0 0.0 60.0 60.0"><defs><g id="c1"><path fill="#000000" fill-opacity="0.00392156862745" d="M0.0 0.0 L60.0 0.0 60.0 60.0 0.0 60.0 0.0 0.0"/></g><g id="c2"><path fill="none" stroke="#000000" stroke-width="1.0" stroke-opacity="0.301960784314" d="M0.7 12.25 Q-0.45 9.75 0.75 8.25 1.2 7.6 2.15 7.15 2.8 6.7 3.8 6.35 L17.5 1.95 30.2 7.0 41.35 31.7 Q42.95 35.15 40.2 36.7 39.5 37.3 38.3 37.65 L25.5 41.8 25.45 41.75 24.55 42.0 11.85 37.0 0.7 12.25"/><path fill="#9d147b" stroke="none" d="M35.55 22.3 L31.5 13.2 29.75 9.2 16.95 4.25 5.5 7.85 Q1.65 9.1 3.35 12.8 L8.25 23.65 13.1 34.35 25.8 39.4 37.2 35.7 Q41.1 34.5 39.35 30.75 L35.55 22.3 M5.45 20.95 L1.35 11.8 Q0.4 9.65 1.1 8.3 1.45 7.65 2.15 7.15 2.8 6.7 3.8 6.35 L17.5 1.95 30.2 7.0 41.35 31.7 Q42.95 35.15 40.2 36.7 L38.9 37.25 25.2 41.65 12.5 36.65 5.45 20.95"/><path fill="#c47fad" stroke="none" d="M31.5 13.2 L35.55 22.3 39.35 30.75 Q41.1 34.5 37.2 35.7 L25.8 39.4 13.1 34.35 8.25 23.65 3.35 12.8 Q1.65 9.1 5.5 7.85 L16.95 4.25 29.75 9.2 31.5 13.2 M18.5 7.45 L9.1 10.55 9.55 11.6 Q9.8 12.8 9.15 13.6 8.4 14.45 7.1 14.4 L6.8 14.4 6.95 14.6 15.2 32.75 23.85 36.2 34.0 32.9 33.7 32.1 Q33.45 30.9 34.1 30.1 34.75 29.3 35.95 29.35 L35.8 29.0 27.75 10.95 18.5 7.45"/><path fill="#fcf2cf" stroke="none" d="M27.75 10.95 L35.8 29.0 35.95 29.35 Q34.75 29.3 34.1 30.1 33.45 30.9 33.7 32.1 L34.0 32.9 23.85 36.2 15.2 32.75 6.95 14.6 6.8 14.4 7.1 14.4 Q8.4 14.45 9.15 13.6 9.8 12.8 9.55 11.6 L9.1 10.55 18.5 7.45 27.75 10.95"/><path fill="#630a4c" stroke="none" d="M1.1 8.3 L0.75 8.25 Q1.2 7.6 2.15 7.15 1.45 7.65 1.1 8.3 M4.6 20.9 L5.45 20.95 12.5 36.65 11.55 36.25 11.25 35.55 4.6 20.9"/><path fill="#300525" stroke="none" d="M1.1 8.3 Q0.4 9.65 1.35 11.8 L5.45 20.95 4.6 20.9 0.7 12.25 Q-0.45 9.75 0.75 8.25 L1.1 8.3 M12.5 36.65 L25.2 41.65 38.9 37.25 40.2 36.7 Q39.5 37.3 38.3 37.65 L25.5 41.8 25.45 41.75 24.55 42.0 11.85 37.0 11.55 36.25 12.5 36.65"/><path fill="none" stroke="#bf9900" stroke-width="1.0" stroke-opacity="0.749019607843" d="M31.5 13.2 L35.55 22.3 M13.1 34.35 L8.25 23.65"/><path fill="none" stroke="#ffcc00" stroke-width="1.0" stroke-opacity="0.749019607843" d="M35.55 22.3 L39.35 30.75 Q41.1 34.5 37.2 35.7 L25.8 39.4 M8.25 23.65 L3.35 12.8 Q1.65 9.1 5.5 7.85 L16.95 4.25 29.75 9.2 31.5 13.2"/><path fill="none" stroke="#f0b92b" stroke-width="0.5" d="M27.75 10.95 L35.8 29.0 35.95 29.35 Q34.75 29.3 34.1 30.1 33.45 30.9 33.7 32.1 L34.0 32.9 23.85 36.2 15.2 32.75 6.95 14.6 6.8 14.4 7.1 14.4 Q8.4 14.45 9.15 13.6 9.8 12.8 9.55 11.6 L9.1 10.55 18.5 7.45"/><path fill="none" stroke="#000000" stroke-width="0.5" stroke-opacity="0.301960784314" d="M5.45 20.95 L1.35 11.8 Q0.4 9.65 1.1 8.3 M0.75 8.25 Q-0.45 9.75 0.7 12.25 L4.6 20.9 M5.45 20.95 L12.5 36.65 M25.2 41.65 L38.9 37.25 40.2 36.7 Q42.95 35.15 41.35 31.7 L30.2 7.0 M17.5 1.95 L3.8 6.35 Q2.8 6.7 2.15 7.15 1.45 7.65 1.1 8.3 M0.75 8.25 Q1.2 7.6 2.15 7.15 M11.25 35.55 L4.6 20.9 M25.5 41.8 L38.3 37.65 Q39.5 37.3 40.2 36.7"/><path fill="none" stroke="#ffcc00" stroke-width="0.5" stroke-opacity="0.749019607843" d="M18.5 7.45 L27.75 10.95"/><path fill="none" stroke="#f0b92b" stroke-width="1.0" stroke-opacity="0.749019607843" d="M25.8 39.4 L13.1 34.35"/><path fill="none" stroke="#432f2f" stroke-width="0.5" d="M12.5 36.65 L25.2 41.65"/></g><g id="c3"><path fill="#7fdbfe" stroke="none" d="M10.75 4.9 Q10.75 4.6 10.9 4.35 11.25 3.45 11.95 2.75 13.3 1.5 14.35 2.1 15.4 2.7 14.95 4.45 14.7 5.4 14.1 6.15 L13.75 6.5 Q13.1 7.15 12.35 7.35 L11.4 7.2 Q10.95 6.9 10.75 6.4 10.5 5.75 10.75 4.9 M7.5 5.9 Q7.0 5.85 6.6 5.5 6.05 5.0 5.8 4.15 L5.7 3.6 Q5.55 2.65 5.8 1.7 6.25 0.0 7.5 0.0 L7.6 0.0 Q8.85 0.0 9.3 1.7 9.55 2.65 9.4 3.6 L9.3 4.15 8.5 5.5 7.6 5.9 7.5 5.9 M4.35 4.9 Q4.6 5.75 4.35 6.4 L3.7 7.2 2.75 7.35 Q2.0 7.15 1.35 6.5 L1.0 6.15 Q0.4 5.4 0.15 4.45 -0.3 2.7 0.75 2.1 1.8 1.5 3.15 2.75 3.85 3.45 4.2 4.35 L4.35 4.9 M5.5 13.7 Q4.45 13.9 3.65 12.95 2.75 12.0 3.2 10.25 3.7 8.5 5.25 7.6 6.4 6.9 7.55 7.0 8.75 6.9 9.9 7.6 11.45 8.5 11.95 10.25 12.35 12.0 11.5 12.95 10.7 13.9 9.65 13.7 8.55 13.5 7.55 12.6 6.55 13.5 5.5 13.7"/></g><g id="c4"><g><use transform="matrix(1.0,0.0,0.0,1.0,0.0,0.0)" xlink:href="#c3"/></g></g><radialGradient gradientUnits="userSpaceOnUse" r="819.2" cx="0" cy="0" spreadMethod="pad" gradientTransform="matrix(0.0914459228516,0.0,0.0,0.0914459228516,0.6,3.4)" id="gradient1"><stop offset="0.0" stop-color="#ffffff"/><stop offset="1.0" stop-color="#ffffff" stop-opacity="0.0"/></radialGradient><g id="c5"><path stroke="none" fill="url(#gradient1)" d="M36.65 -54.65 Q60.05 -42.0 69.75 -17.95 80.55 8.9 68.0 34.1 55.45 59.35 26.8 68.2 -1.8 77.05 -29.7 64.3 -57.6 51.6 -68.45 24.75 -79.3 -2.05 -66.75 -27.25 L-66.7 -27.3 Q-54.1 -52.5 -25.5 -61.4 3.1 -70.2 31.0 -57.5 L36.65 -54.65"/></g><g id="c6"><g><use transform="matrix(1.0,0.0,0.0,1.0,0.0,0.0)" xlink:href="#c5"/></g></g><radialGradient gradientUnits="userSpaceOnUse" r="819.2" cx="0" cy="0" spreadMethod="pad" gradientTransform="matrix(0.209197998047,0.0,0.0,0.177108764648,67.15,107.2)" id="gradient2"><stop offset="0.356862745098" stop-color="#ffffff"/><stop offset="0.670588235294" stop-opacity="0.0"/></radialGradient><g id="c7"><path fill="none" stroke-linejoin="round" stroke-linecap="round" stroke="url(#gradient2)" stroke-width="0.5" d="M136.55 165.8 L68.6 106.0 68.4 106.0 118.25 201.5 M68.3 105.8 L68.35 105.8 68.3 105.8 68.3 105.85 68.4 106.0 68.3 106.0 86.55 211.5 M68.3 105.8 L68.3 105.85 68.3 106.0 68.15 105.95 18.25 151.55 M68.3 105.85 L68.25 105.85 68.3 106.0 50.0 193.2 M68.25 105.85 L68.15 105.95 0.05 97.7 M68.3 105.85 L68.25 105.8 68.25 105.85 M68.25 105.8 L68.2 105.7 0.0 45.7 M68.3 105.8 L68.25 105.75 68.25 105.8 M68.25 105.75 L68.2 105.7 18.25 10.05 M68.6 106.0 L68.35 105.8 118.25 60.15 M86.6 18.35 L68.3 105.8 M136.6 114.25 L68.6 106.0 M68.25 105.75 L49.95 0.05"/></g><g id="c8"><g><use transform="matrix(1.0,0.0,0.0,1.0,0.0,0.0)" xlink:href="#c7"/></g></g><g id="c9"><g><use transform="matrix(1.0,0.0,0.0,1.0,0.0,0.0)" xlink:href="#c2"/></g><g><use transform="matrix(0.238861083984,-0.0867004394531,0.10026550293,0.233917236328,34.25,31.15)" xlink:href="#c4"/></g><g><use transform="matrix(0.238861083984,-0.0867004394531,0.10026550293,0.233917236328,4.25,10.3)" xlink:href="#c4"/></g><g><use transform="matrix(0.141098022461,-0.0378112792969,0.111373901367,0.225646972656,20.25,20.65)" filter="url(#filter7)" xlink:href="#c6"/></g><g><use transform="matrix(-0.155029296875,0.0513153076172,0.0841827392578,0.147033691406,22.6,3.15)" filter="url(#filter8)" xlink:href="#c8"/></g></g><filter id="filter7"><feColorMatrix in="SourceGraphic" type="matrix" values="0.0 0.0 0.0 0.0 0.796875 0.0 0.0 0.0 0.0 0.59765625 0.0 0.0 0.0 0.0 0.19921875 0.0 0.0 0.0 1.0 0.0" result="cxform"/><feComposite operator="in" in2="SourceGraphic" result="color-xform"/></filter><filter id="filter8"><feColorMatrix in="SourceGraphic" type="matrix" values="0.0 0.0 0.0 0.0 0.99609375 0.0 0.0 0.0 0.0 0.99609375 0.0 0.0 0.0 0.0 0.99609375 0.0 0.0 0.0 1.0 0.0" result="cxform"/><feComposite operator="in" in2="SourceGraphic" result="color-xform"/></filter><radialGradient gradientUnits="userSpaceOnUse" r="819.2" cx="0" cy="0" spreadMethod="pad" gradientTransform="matrix(0.000411987304688,-0.0035400390625,0.00309753417969,0.000534057617188,26.1,30.15)" id="gradient3"><stop offset="0.00392156862745" stop-color="#e0fafc"/><stop offset="1.0" stop-color="#e5dcdc" stop-opacity="0.0"/></radialGradient><radialGradient gradientUnits="userSpaceOnUse" r="819.2" cx="0" cy="0" spreadMethod="pad" gradientTransform="matrix(0.00944519042969,-0.00865173339844,0.00880432128906,0.0101623535156,30.0,29.65)" id="gradient4"><stop offset="0.329411764706" stop-color="#ffb01e"/><stop offset="0.78431372549" stop-color="#a3480a"/><stop offset="0.992156862745" stop-color="#d37e14"/></radialGradient><g id="c10"><path stroke="none" fill="url(#gradient3)" d="M24.7 27.9 Q25.5 27.25 26.5 27.4 27.5 27.6 28.1 28.5 28.7 29.45 28.6 30.55 28.45 31.65 27.65 32.3 26.85 33.0 25.85 32.8 24.85 32.65 24.25 31.7 23.65 30.8 23.8 29.7 23.9 28.6 24.7 27.9"/><path fill="#fc6d02" stroke="none" d="M29.0 38.25 L27.55 37.3 27.2 37.05 26.95 36.75 26.35 36.1 26.25 35.9 25.8 35.4 25.1 33.85 25.1 33.65 Q24.75 32.85 24.7 31.95 L24.65 30.05 Q24.85 28.25 25.8 26.7 L26.1 26.15 26.25 26.0 26.35 25.85 27.15 24.9 27.7 25.1 27.8 24.45 Q28.5 23.8 29.35 23.45 L33.2 28.0 36.05 25.65 35.6 28.45 35.75 29.05 35.9 29.0 36.35 30.55 35.95 30.75 35.6 32.1 35.45 32.4 35.75 33.45 34.75 33.75 34.25 33.85 34.35 34.0 Q32.4 37.25 29.0 38.25 M30.65 35.6 L30.45 35.65 Q28.8 36.45 27.5 36.3 L26.55 36.05 26.35 36.0 26.25 35.9 26.35 36.0 26.55 36.05 27.5 36.3 Q28.8 36.45 30.45 35.65 L30.65 35.6"/><path stroke="none" fill="url(#gradient4)" d="M27.15 24.9 L27.8 24.45 27.7 25.1 27.15 24.9 M34.35 34.0 L34.25 33.85 34.75 33.75 34.35 34.0 M35.9 29.0 L35.75 29.05 35.6 28.45 35.9 29.0"/><path fill="#d45702" stroke="none" d="M36.05 25.65 L36.05 25.7 Q38.8 25.95 39.55 27.75 L40.05 29.3 40.0 29.3 Q40.35 30.9 40.3 32.0 L40.05 33.85 39.05 35.8 37.55 37.55 36.3 38.35 34.45 39.05 Q33.15 39.45 31.05 39.05 L30.75 39.0 29.0 38.25 Q32.4 37.25 34.35 34.0 L34.75 33.75 35.75 33.45 35.45 32.4 35.6 32.1 35.95 30.75 36.35 30.55 35.9 29.0 35.6 28.45 36.05 25.65 M38.95 34.9 L38.15 35.95 37.65 36.5 Q35.25 39.05 31.05 39.05 35.25 39.05 37.65 36.5 L38.15 35.95 38.95 34.9 M40.0 29.3 Q40.3 31.05 39.9 32.65 L39.6 33.45 39.9 32.65 Q40.3 31.05 40.0 29.3"/><path fill="none" stroke="#382510" stroke-width="0.5" stroke-opacity="0.301960784314" d="M29.0 38.25 L27.55 37.3 27.2 37.05 26.95 36.75 26.35 36.1 26.25 35.9 25.8 35.4 25.1 33.85 25.1 33.65 Q24.75 32.85 24.7 31.95 L24.65 30.05 Q24.85 28.25 25.8 26.7 L26.1 26.15 26.25 26.0 26.35 25.85 27.15 24.9 27.8 24.45 Q28.5 23.8 29.35 23.45 M40.05 29.3 L40.0 29.3 Q40.35 30.9 40.3 32.0 L40.05 33.85 39.05 35.8 37.55 37.55 36.3 38.35 34.45 39.05 Q33.15 39.45 31.05 39.05 L30.75 39.0 29.0 38.25 M39.6 33.45 L39.9 32.65 Q40.3 31.05 40.0 29.3 M31.05 39.05 Q35.25 39.05 37.65 36.5 L38.15 35.95 38.95 34.9 M26.25 35.9 L26.35 36.0 26.55 36.05 27.5 36.3 Q28.8 36.45 30.45 35.65 L30.65 35.6"/></g><radialGradient gradientUnits="userSpaceOnUse" r="819.2" cx="0" cy="0" spreadMethod="pad" gradientTransform="matrix(0.102233886719,0.0,0.0,0.102233886719,0.0,0.0)" id="gradient5"><stop offset="0.505882352941" stop-color="#e8e2b5"/><stop offset="1.0" stop-color="#e6d080" stop-opacity="0.0"/></radialGradient><g id="c11"><path stroke="none" fill="url(#gradient5)" d="M58.35 -58.35 Q82.5 -34.2 82.5 0.0 82.5 34.25 58.35 58.35 34.25 82.5 0.0 82.5 -34.2 82.5 -58.35 58.35 -82.5 34.25 -82.5 0.0 -82.5 -34.2 -58.35 -58.35 -34.2 -82.5 0.0 -82.5 34.25 -82.5 58.35 -58.35"/></g><g id="c12"><g><use transform="matrix(1.0,0.0,0.0,1.0,0.0,0.0)" xlink:href="#c11"/></g></g><radialGradient gradientUnits="userSpaceOnUse" r="819.2" cx="0" cy="0" spreadMethod="pad" gradientTransform="matrix(0.005859375,-0.0048828125,0.00581359863281,0.00697326660156,33.55,30.2)" id="gradient6"><stop offset="0.0705882352941" stop-color="#f07315"/><stop offset="1.0" stop-color="#ffa004"/></radialGradient><linearGradient gradientUnits="userSpaceOnUse" x1="-819.2" x2="819.2" spreadMethod="pad" gradientTransform="matrix(-0.00259399414062,0.000137329101562,0.0,0.00222778320312,24.6,23.65)" id="gradient7"><stop offset="0.0823529411765" stop-color="#827d20"/><stop offset="1.0" stop-color="#a6a329"/></linearGradient><g id="c13"><path fill="#febb56" stroke="none" d="M40.95 31.55 Q40.9 34.65 38.75 36.45 36.6 38.25 33.55 37.65 31.9 37.4 30.55 36.5 L28.4 34.6 Q26.25 32.0 26.25 28.9 26.3 25.85 28.45 24.05 30.6 22.25 33.65 22.8 36.65 23.3 38.8 25.9 40.85 28.35 40.95 31.35 L40.9 31.35 40.95 31.55 M40.2 31.35 Q40.2 28.6 38.3 26.35 36.4 24.05 33.6 23.55 30.9 23.05 28.95 24.65 27.85 25.55 27.5 26.65 27.05 27.85 27.0 29.05 27.05 31.85 28.95 34.15 29.85 35.25 30.95 35.9 32.15 36.65 33.55 36.9 36.25 37.4 38.2 35.8 39.9 34.4 40.15 32.1 L40.15 31.4 40.2 31.35 40.55 31.4 40.2 31.35 M40.45 32.15 L40.15 32.1 40.45 32.15 M32.75 29.6 L32.7 29.65 31.55 31.05 33.0 30.9 33.8 32.7 34.2 30.7 36.3 30.7 34.5 29.7 35.05 28.1 33.45 29.05 31.7 27.75 32.75 29.6 M34.75 27.8 L35.0 27.3 34.75 27.8 M35.0 27.3 L35.85 28.15 Q36.8 29.3 36.85 30.7 L36.8 30.95 36.55 30.95 36.8 30.95 Q36.75 31.85 36.25 32.55 L35.65 32.1 36.25 32.55 35.85 32.9 Q34.9 33.7 33.5 33.45 32.5 33.3 31.7 32.6 L31.9 32.3 31.7 32.6 31.15 32.1 Q30.2 30.9 30.2 29.5 L30.25 29.15 30.45 28.2 31.15 27.35 Q32.15 26.55 33.55 26.75 34.35 26.85 35.0 27.3 M30.95 29.3 L30.25 29.15 30.95 29.3 M30.85 28.35 L30.45 28.2 30.85 28.35 M30.75 36.2 L30.95 35.9 30.75 36.2"/><path stroke="none" fill="url(#gradient6)" d="M30.95 35.9 Q29.85 35.25 28.95 34.15 27.05 31.85 27.0 29.05 27.05 27.85 27.5 26.65 27.85 25.55 28.95 24.65 30.9 23.05 33.6 23.55 36.4 24.05 38.3 26.35 40.2 28.6 40.2 31.35 L40.15 31.4 40.15 32.1 Q39.9 34.4 38.2 35.8 36.25 37.4 33.55 36.9 32.15 36.65 30.95 35.9 L32.05 34.25 30.95 35.9 M36.8 30.95 L36.85 30.7 Q36.8 29.3 35.85 28.15 L35.0 27.3 Q34.35 26.85 33.55 26.75 32.15 26.55 31.15 27.35 L30.45 28.2 30.25 29.15 30.2 29.5 Q30.2 30.9 31.15 32.1 L31.7 32.6 Q32.5 33.3 33.5 33.45 34.9 33.7 35.85 32.9 L36.25 32.55 Q36.75 31.85 36.8 30.95 L40.2 31.35 36.8 30.95 M35.25 26.75 L35.0 27.3 35.25 26.75 M28.85 28.9 L30.25 29.15 28.85 28.9 M27.5 26.65 L30.45 28.2 27.5 26.65 M30.7 33.95 L31.7 32.6 30.7 33.95 M37.25 33.25 L36.25 32.55 37.25 33.25 M40.15 32.1 L38.55 31.85 40.15 32.1"/><path fill="#7ab2ba" stroke="none" d="M40.95 31.35 L40.95 31.55 40.9 31.35 40.95 31.35"/><path fill="#ad841f" stroke="none" d="M32.75 29.6 L31.7 27.75 33.45 29.05 35.05 28.1 34.5 29.7 36.3 30.7 34.2 30.7 33.8 32.7 33.0 30.9 31.55 31.05 32.7 29.65 32.75 29.6"/><path fill="none" stroke="#000000" stroke-width="0.5" stroke-opacity="0.250980392157" d="M40.95 31.55 Q40.9 34.65 38.75 36.45 36.6 38.25 33.55 37.65 31.9 37.4 30.55 36.5 L28.4 34.6 Q26.25 32.0 26.25 28.9 26.3 25.85 28.45 24.05 30.6 22.25 33.65 22.8 36.65 23.3 38.8 25.9 40.85 28.35 40.95 31.35 L40.95 31.55"/><path fill="none" stroke="#000000" stroke-width="1.5" stroke-opacity="0.152941176471" d="M40.2 31.35 L40.55 31.4 M40.15 32.1 L40.45 32.15 M35.0 27.3 L34.75 27.8 M36.8 30.95 L40.2 31.35 M35.0 27.3 L35.25 26.75 M30.25 29.15 L28.85 28.9 M30.45 28.2 L27.5 26.65 M30.45 28.2 L30.85 28.35 M30.25 29.15 L30.95 29.3 M31.7 32.6 L30.7 33.95 M31.9 32.3 L31.7 32.6 M36.55 30.95 L36.8 30.95 M36.25 32.55 L37.25 33.25 M35.65 32.1 L36.25 32.55 M30.95 35.9 L30.75 36.2 M38.55 31.85 L40.15 32.1 M32.05 34.25 L30.95 35.9"/><path fill="#c2bf21" stroke="none" d="M23.6 22.2 Q22.3 21.05 22.5 19.3 22.55 18.75 23.05 18.45 23.5 18.1 23.95 17.9 L23.95 18.0 24.2 19.45 Q24.4 20.55 25.45 22.05 L27.5 24.75 27.85 25.15 27.8 25.25 27.75 25.4 27.65 25.25 27.65 25.2 27.35 24.85 26.05 23.75 24.9 23.1 24.7 22.95 23.6 22.2 M24.35 32.7 L24.3 32.7 22.55 32.4 Q21.15 31.6 21.0 30.0 L20.95 29.65 Q20.95 28.15 22.0 27.1 22.75 26.2 23.9 25.7 L25.15 25.6 23.8 26.5 25.15 25.6 Q26.6 25.45 27.4 25.6 L27.6 25.6 27.7 25.65 27.65 25.65 27.3 25.7 Q25.6 25.95 23.8 26.5 22.3 27.8 22.35 29.2 22.3 30.85 24.35 32.7 M24.95 22.75 L24.9 23.1 24.95 22.75"/><path stroke="none" fill="url(#gradient7)" d="M20.6 24.45 L20.8 23.75 Q21.75 22.05 23.6 22.2 L24.7 22.95 24.9 23.1 26.05 23.75 27.35 24.85 27.65 25.2 27.65 25.25 27.7 25.25 27.75 25.4 27.6 25.6 27.05 25.15 Q23.95 23.05 20.6 24.45"/><path fill="#9e9a18" stroke="none" d="M23.9 25.7 L22.7 25.8 Q21.8 26.15 21.1 25.55 20.45 25.05 20.6 24.45 23.95 23.05 27.05 25.15 L27.6 25.6 27.4 25.6 Q26.6 25.45 25.15 25.6 L23.9 25.7"/><path fill="#d7d527" stroke="none" d="M23.95 17.9 Q25.0 17.5 26.15 18.15 27.6 19.05 27.5 20.9 L27.3 23.6 27.55 24.35 27.7 24.4 27.75 24.5 27.5 24.7 27.8 24.55 28.1 24.65 27.9 25.2 27.85 25.15 27.5 24.75 25.45 22.05 Q24.4 20.55 24.2 19.45 L23.95 18.0 23.95 17.9 M26.15 31.25 L26.05 31.55 25.45 32.15 24.75 32.6 24.35 32.7 Q22.3 30.85 22.35 29.2 22.3 27.8 23.8 26.5 25.6 25.95 27.3 25.7 L27.65 25.65 26.85 26.45 Q25.95 27.3 26.2 28.7 L26.25 30.15 26.15 31.05 26.15 31.25"/><path fill="#4d290c" fill-opacity="0.4" d="M27.7 24.4 Q29.15 22.15 31.65 22.85 32.35 24.15 30.8 24.85 29.25 25.5 28.15 25.2 L27.8 26.15 Q28.1 28.65 27.3 29.95 L26.3 31.3 26.1 31.4 26.15 31.25 26.15 31.05 26.25 30.15 26.2 28.7 Q25.95 27.3 26.85 26.45 L27.65 25.65 27.7 25.65 27.75 25.4 27.8 25.25 27.9 25.2 28.1 24.65 27.8 24.55 28.45 24.25 28.8 24.0 27.75 24.5 27.7 24.4"/><path fill="#d2d035" stroke="none" d="M27.85 25.15 L27.9 25.2 27.8 25.25 27.85 25.15"/><path fill="none" stroke="#000000" stroke-width="0.5" stroke-opacity="0.250980392157" d="M23.6 22.2 Q22.3 21.05 22.5 19.3 22.55 18.75 23.05 18.45 23.5 18.1 23.95 17.9 25.0 17.5 26.15 18.15 27.6 19.05 27.5 20.9 L27.3 23.6 27.55 24.35 M26.15 31.25 L26.05 31.55 25.45 32.15 24.75 32.6 24.35 32.7 M24.3 32.7 L22.55 32.4 Q21.15 31.6 21.0 30.0 L20.95 29.65 Q20.95 28.15 22.0 27.1 22.75 26.2 23.9 25.7 L22.7 25.8 Q21.8 26.15 21.1 25.55 20.45 25.05 20.6 24.45 L20.8 23.75 Q21.75 22.05 23.6 22.2 M26.85 26.45 Q25.95 27.3 26.2 28.7 L26.25 30.15 26.15 31.05 26.15 31.25"/><path fill="none" stroke="#000000" stroke-width="0.5" stroke-opacity="0.121568627451" d="M24.35 32.7 L24.3 32.7 M23.6 22.2 L24.7 22.95 24.9 23.1 24.95 22.75 M23.8 26.5 L25.15 25.6 23.9 25.7 M27.65 25.65 L27.7 25.65 27.6 25.6 27.4 25.6 Q26.6 25.45 25.15 25.6 M23.8 26.5 Q22.3 27.8 22.35 29.2 22.3 30.85 24.35 32.7 M23.95 18.0 L24.2 19.45 Q24.4 20.55 25.45 22.05 L27.5 24.75 27.85 25.15 27.9 25.2 28.1 24.65 M27.65 25.25 L27.65 25.2 27.35 24.85 26.05 23.75 24.9 23.1 M27.85 25.15 L27.8 25.25 27.75 25.4 27.7 25.65 M27.75 25.4 L27.6 25.6 27.05 25.15 M27.65 25.25 L27.7 25.25 27.75 25.4 27.65 25.25 M27.65 25.65 L26.85 26.45"/><path fill="#979417" stroke="none" d="M31.65 19.8 Q30.05 19.95 28.85 21.0 27.35 22.35 27.25 24.4 L27.5 24.8 27.55 24.85 27.95 24.05 Q28.35 23.6 28.95 23.55 L30.4 23.0 Q32.2 21.8 31.65 19.8"/><path fill="#a8a11b" stroke="none" d="M31.65 19.8 Q30.25 18.5 28.65 19.95 27.15 21.25 27.05 23.2 L27.05 23.95 27.25 24.4 Q27.35 22.35 28.85 21.0 30.05 19.95 31.65 19.8"/><path fill="none" stroke="#000000" stroke-width="0.5" stroke-opacity="0.121568627451" d="M31.65 19.8 Q30.05 19.95 28.85 21.0 27.35 22.35 27.25 24.4 L27.05 23.95 M27.95 24.05 L27.55 24.85 27.5 24.8 27.25 24.4"/><path fill="none" stroke="#000000" stroke-width="0.5" stroke-opacity="0.250980392157" d="M27.05 23.95 L27.05 23.2 Q27.15 21.25 28.65 19.95 30.25 18.5 31.65 19.8 32.2 21.8 30.4 23.0 L28.95 23.55 Q28.35 23.6 27.95 24.05"/></g><radialGradient gradientUnits="userSpaceOnUse" r="819.2" cx="0" cy="0" spreadMethod="pad" gradientTransform="matrix(0.0405883789062,0.0,0.0,0.0405883789062,0.0,0.0)" id="gradient8"><stop offset="0.0" stop-color="#fff5a5"/><stop offset="1.0" stop-color="#f5ad4e" stop-opacity="0.0"/></radialGradient><g id="c14"><path stroke="none" fill="url(#gradient8)" d="M22.95 -23.0 Q32.5 -13.45 32.5 0.0 32.5 13.45 22.95 22.95 13.45 32.5 0.0 32.5 -13.45 32.5 -23.0 22.95 -32.5 13.45 -32.5 0.0 -32.5 -13.45 -23.0 -23.0 -13.45 -32.5 0.0 -32.5 13.45 -32.5 22.95 -23.0"/></g><g id="c15"><g><use transform="matrix(1.0,0.0,0.0,1.0,0.0,0.0)" xlink:href="#c14"/></g></g><filter id="filter14"><feColorMatrix in="SourceGraphic" type="matrix" values="0.0 0.0 0.0 0.0 0.75390625 0.0 0.0 0.0 0.0 0.37890625 0.0 0.0 0.0 0.0 0.0 0.0 0.0 0.0 0.359375 0.0" result="cxform"/><feComposite operator="in" in2="SourceGraphic" result="color-xform"/></filter><filter id="filter15"><feColorMatrix in="SourceGraphic" type="matrix" values="0.0 0.0 0.0 0.0 0.75390625 0.0 0.0 0.0 0.0 0.37890625 0.0 0.0 0.0 0.0 0.0 0.0 0.0 0.0 0.359375 0.0" result="cxform"/><feComposite operator="in" in2="SourceGraphic" result="color-xform"/></filter><filter id="filter16"><feColorMatrix in="SourceGraphic" type="matrix" values="1.0 0.0 0.0 0.0 0.0 0.0 1.0 0.0 0.0 0.0 0.0 0.0 1.0 0.0 0.0 0.0 0.0 0.0 0.0390625 0.0" result="cxform"/><feComposite operator="in" in2="SourceGraphic" result="color-xform"/></filter><filter id="filter17"><feColorMatrix in="SourceGraphic" type="matrix" values="0.0 0.0 0.0 0.0 0.99609375 0.0 0.0 0.0 0.0 0.625 0.0 0.0 0.0 0.0 0.015625 0.0 0.0 0.0 0.48046875 0.0" result="cxform"/><feComposite operator="in" in2="SourceGraphic" result="color-xform"/></filter><filter id="filter18"><feColorMatrix in="SourceGraphic" type="matrix" values="0.0 0.0 0.0 0.0 0.99609375 0.0 0.0 0.0 0.0 0.625 0.0 0.0 0.0 0.0 0.015625 0.0 0.0 0.0 0.48046875 0.0" result="cxform"/><feComposite operator="in" in2="SourceGraphic" result="color-xform"/></filter><filter id="filter20"><feColorMatrix in="SourceGraphic" type="matrix" values="1.0 0.0 0.0 0.0 0.0 0.0 1.0 0.0 0.0 0.0 0.0 0.0 1.0 0.0 0.0 0.0 0.0 0.0 0.19921875 0.0" result="cxform"/><feComposite operator="in" in2="SourceGraphic" result="color-xform"/></filter><filter id="filter21"><feColorMatrix in="SourceGraphic" type="matrix" values="1.0 0.0 0.0 0.0 0.0 0.0 1.0 0.0 0.0 0.0 0.0 0.0 1.0 0.0 0.0 0.0 0.0 0.0 0.23046875 0.0" result="cxform"/><feComposite operator="in" in2="SourceGraphic" result="color-xform"/></filter></defs><g><g><use transform="matrix(1.0,0.0,0.0,1.0,0.0,0.0)" xlink:href="#c1"/></g><g><use transform="matrix(1.15496826172,0.0,0.0,1.15496826172,5.85,4.8)" xlink:href="#c9"/></g><g><use transform="matrix(1.0,0.0,0.0,1.0,0.0,0.0)" xlink:href="#c10"/></g><g><use transform="matrix(-0.0212707519531,0.00341796875,0.003662109375,-0.0167694091797,34.0,37.35)" filter="url(#filter14)" xlink:href="#c12"/></g><g><use transform="matrix(-0.0193176269531,-0.00961303710938,0.00869750976562,-0.00933837890625,30.0,37.35)" filter="url(#filter15)" xlink:href="#c12"/></g><g><use transform="matrix(0.0116882324219,0.00682067871094,-0.00875854492188,0.0426635742188,26.65,29.25)" filter="url(#filter16)" xlink:href="#c12"/></g><g><use transform="matrix(-0.0196228027344,0.00701904296875,-0.000518798828125,-0.0132904052734,29.25,24.9)" filter="url(#filter17)" xlink:href="#c12"/></g><g><use transform="matrix(-0.0208282470703,-0.00421142578125,0.00593566894531,-0.0114593505859,33.35,23.9)" filter="url(#filter18)" xlink:href="#c12"/></g><g><use transform="matrix(1.0,0.0,0.0,1.0,0.0,0.0)" xlink:href="#c13"/></g><g><use transform="matrix(-0.0967864990234,-0.13053894043,0.148376464844,-0.0759887695312,32.0,27.05)" filter="url(#filter20)" xlink:href="#c15"/></g><g><use transform="matrix(0.162948608398,-0.0436706542969,0.128631591797,0.260604858398,30.0,28.7)" filter="url(#filter21)" xlink:href="#c6"/></g></g></svg>