<?xml version='1.0' encoding='UTF-8'?>
<svg xmlns:xlink="http://www.w3.org/1999/xlink" xmlns="http://www.w3.org/2000/svg" version="1.1" width="60px" height="60px" viewBox="0.0 0.0 60.0 60.0"><defs><g id="c1"><path fill="#000000" fill-opacity="0.00392156862745" d="M0.0 0.0 L60.0 0.0 60.0 60.0 0.0 60.0 0.0 0.0"/></g><g id="c2"><path fill="none" stroke="#000000" stroke-width="1.0" stroke-opacity="0.301960784314" d="M0.7 12.25 Q-0.45 9.75 0.75 8.25 1.2 7.6 2.15 7.15 2.8 6.7 3.8 6.35 L17.5 1.95 30.2 7.0 41.35 31.7 Q42.95 35.15 40.2 36.7 39.5 37.3 38.3 37.65 L25.5 41.8 25.45 41.75 24.55 42.0 11.85 37.0 0.7 12.25"/><path fill="#9d147b" stroke="none" d="M35.55 22.3 L31.5 13.2 29.75 9.2 16.95 4.25 5.5 7.85 Q1.65 9.1 3.35 12.8 L8.25 23.65 13.1 34.35 25.8 39.4 37.2 35.7 Q41.1 34.5 39.35 30.75 L35.55 22.3 M5.45 20.95 L1.35 11.8 Q0.4 9.65 1.1 8.3 1.45 7.65 2.15 7.15 2.8 6.7 3.8 6.35 L17.5 1.95 30.2 7.0 41.35 31.7 Q42.95 35.15 40.2 36.7 L38.9 37.25 25.2 41.65 12.5 36.65 5.45 20.95"/><path fill="#c47fad" stroke="none" d="M31.5 13.2 L35.55 22.3 39.35 30.75 Q41.1 34.5 37.2 35.7 L25.8 39.4 13.1 34.35 8.25 23.65 3.35 12.8 Q1.65 9.1 5.5 7.85 L16.95 4.25 29.75 9.2 31.5 13.2 M18.5 7.45 L9.1 10.55 9.55 11.6 Q9.8 12.8 9.15 13.6 8.4 14.45 7.1 14.4 L6.8 14.4 6.95 14.6 15.2 32.75 23.85 36.2 34.0 32.9 33.7 32.1 Q33.45 30.9 34.1 30.1 34.75 29.3 35.95 29.35 L35.8 29.0 27.75 10.95 18.5 7.45"/><path fill="#fcf2cf" stroke="none" d="M27.75 10.95 L35.8 29.0 35.95 29.35 Q34.75 29.3 34.1 30.1 33.45 30.9 33.7 32.1 L34.0 32.9 23.85 36.2 15.2 32.75 6.95 14.6 6.8 14.4 7.1 14.4 Q8.4 14.45 9.15 13.6 9.8 12.8 9.55 11.6 L9.1 10.55 18.5 7.45 27.75 10.95"/><path fill="#630a4c" stroke="none" d="M1.1 8.3 L0.75 8.25 Q1.2 7.6 2.15 7.15 1.45 7.65 1.1 8.3 M4.6 20.9 L5.45 20.95 12.5 36.65 11.55 36.25 11.25 35.55 4.6 20.9"/><path fill="#300525" stroke="none" d="M1.1 8.3 Q0.4 9.65 1.35 11.8 L5.45 20.95 4.6 20.9 0.7 12.25 Q-0.45 9.75 0.75 8.25 L1.1 8.3 M12.5 36.65 L25.2 41.65 38.9 37.25 40.2 36.7 Q39.5 37.3 38.3 37.65 L25.5 41.8 25.45 41.75 24.55 42.0 11.85 37.0 11.55 36.25 12.5 36.65"/><path fill="none" stroke="#bf9900" stroke-width="1.0" stroke-opacity="0.749019607843" d="M31.5 13.2 L35.55 22.3 M13.1 34.35 L8.25 23.65"/><path fill="none" stroke="#ffcc00" stroke-width="1.0" stroke-opacity="0.749019607843" d="M35.55 22.3 L39.35 30.75 Q41.1 34.5 37.2 35.7 L25.8 39.4 M8.25 23.65 L3.35 12.8 Q1.65 9.1 5.5 7.85 L16.95 4.25 29.75 9.2 31.5 13.2"/><path fill="none" stroke="#f0b92b" stroke-width="0.5" d="M27.75 10.95 L35.8 29.0 35.95 29.35 Q34.75 29.3 34.1 30.1 33.45 30.9 33.7 32.1 L34.0 32.9 23.85 36.2 15.2 32.75 6.95 14.6 6.8 14.4 7.1 14.4 Q8.4 14.45 9.15 13.6 9.8 12.8 9.55 11.6 L9.1 10.55 18.5 7.45"/><path fill="none" stroke="#000000" stroke-width="0.5" stroke-opacity="0.301960784314" d="M5.45 20.95 L1.35 11.8 Q0.4 9.65 1.1 8.3 M0.75 8.25 Q-0.45 9.75 0.7 12.25 L4.6 20.9 M5.45 20.95 L12.5 36.65 M25.2 41.65 L38.9 37.25 40.2 36.7 Q42.95 35.15 41.35 31.7 L30.2 7.0 M17.5 1.95 L3.8 6.35 Q2.8 6.7 2.15 7.15 1.45 7.65 1.1 8.3 M0.75 8.25 Q1.2 7.6 2.15 7.15 M11.25 35.55 L4.6 20.9 M25.5 41.8 L38.3 37.65 Q39.5 37.3 40.2 36.7"/><path fill="none" stroke="#ffcc00" stroke-width="0.5" stroke-opacity="0.749019607843" d="M18.5 7.45 L27.75 10.95"/><path fill="none" stroke="#f0b92b" stroke-width="1.0" stroke-opacity="0.749019607843" d="M25.8 39.4 L13.1 34.35"/><path fill="none" stroke="#432f2f" stroke-width="0.5" d="M12.5 36.65 L25.2 41.65"/></g><g id="c3"><path fill="#7fdbfe" stroke="none" d="M10.75 4.9 Q10.75 4.6 10.9 4.35 11.25 3.45 11.95 2.75 13.3 1.5 14.35 2.1 15.4 2.7 14.95 4.45 14.7 5.4 14.1 6.15 L13.75 6.5 Q13.1 7.15 12.35 7.35 L11.4 7.2 Q10.95 6.9 10.75 6.4 10.5 5.75 10.75 4.9 M7.5 5.9 Q7.0 5.85 6.6 5.5 6.05 5.0 5.8 4.15 L5.7 3.6 Q5.55 2.65 5.8 1.7 6.25 0.0 7.5 0.0 L7.6 0.0 Q8.85 0.0 9.3 1.7 9.55 2.65 9.4 3.6 L9.3 4.15 8.5 5.5 7.6 5.9 7.5 5.9 M4.35 4.9 Q4.6 5.75 4.35 6.4 L3.7 7.2 2.75 7.35 Q2.0 7.15 1.35 6.5 L1.0 6.15 Q0.4 5.4 0.15 4.45 -0.3 2.7 0.75 2.1 1.8 1.5 3.15 2.75 3.85 3.45 4.2 4.35 L4.35 4.9 M5.5 13.7 Q4.45 13.9 3.65 12.95 2.75 12.0 3.2 10.25 3.7 8.5 5.25 7.6 6.4 6.9 7.55 7.0 8.75 6.9 9.9 7.6 11.45 8.5 11.95 10.25 12.35 12.0 11.5 12.95 10.7 13.9 9.65 13.7 8.55 13.5 7.55 12.6 6.55 13.5 5.5 13.7"/></g><g id="c4"><g><use transform="matrix(1.0,0.0,0.0,1.0,0.0,0.0)" xlink:href="#c3"/></g></g><radialGradient gradientUnits="userSpaceOnUse" r="819.2" cx="0" cy="0" spreadMethod="pad" gradientTransform="matrix(0.0914459228516,0.0,0.0,0.0914459228516,0.6,3.4)" id="gradient1"><stop offset="0.0" stop-color="#ffffff"/><stop offset="1.0" stop-color="#ffffff" stop-opacity="0.0"/></radialGradient><g id="c5"><path stroke="none" fill="url(#gradient1)" d="M36.65 -54.65 Q60.05 -42.0 69.75 -17.95 80.55 8.9 68.0 34.1 55.45 59.35 26.8 68.2 -1.8 77.05 -29.7 64.3 -57.6 51.6 -68.45 24.75 -79.3 -2.05 -66.75 -27.25 L-66.7 -27.3 Q-54.1 -52.5 -25.5 -61.4 3.1 -70.2 31.0 -57.5 L36.65 -54.65"/></g><g id="c6"><g><use transform="matrix(1.0,0.0,0.0,1.0,0.0,0.0)" xlink:href="#c5"/></g></g><radialGradient gradientUnits="userSpaceOnUse" r="819.2" cx="0" cy="0" spreadMethod="pad" gradientTransform="matrix(0.209197998047,0.0,0.0,0.177108764648,67.15,107.2)" id="gradient2"><stop offset="0.356862745098" stop-color="#ffffff"/><stop offset="0.670588235294" stop-opacity="0.0"/></radialGradient><g id="c7"><path fill="none" stroke-linejoin="round" stroke-linecap="round" stroke="url(#gradient2)" stroke-width="0.5" d="M136.55 165.8 L68.6 106.0 68.4 106.0 118.25 201.5 M68.3 105.8 L68.35 105.8 68.3 105.8 68.3 105.85 68.4 106.0 68.3 106.0 86.55 211.5 M68.3 105.8 L68.3 105.85 68.3 106.0 68.15 105.95 18.25 151.55 M68.3 105.85 L68.25 105.85 68.3 106.0 50.0 193.2 M68.25 105.85 L68.15 105.95 0.05 97.7 M68.3 105.85 L68.25 105.8 68.25 105.85 M68.25 105.8 L68.2 105.7 0.0 45.7 M68.3 105.8 L68.25 105.75 68.25 105.8 M68.25 105.75 L68.2 105.7 18.25 10.05 M68.6 106.0 L68.35 105.8 118.25 60.15 M86.6 18.35 L68.3 105.8 M136.6 114.25 L68.6 106.0 M68.25 105.75 L49.95 0.05"/></g><g id="c8"><g><use transform="matrix(1.0,0.0,0.0,1.0,0.0,0.0)" xlink:href="#c7"/></g></g><g id="c9"><g><use transform="matrix(1.0,0.0,0.0,1.0,0.0,0.0)" xlink:href="#c2"/></g><g><use transform="matrix(0.238861083984,-0.0867004394531,0.10026550293,0.233917236328,34.25,31.15)" xlink:href="#c4"/></g><g><use transform="matrix(0.238861083984,-0.0867004394531,0.10026550293,0.233917236328,4.25,10.3)" xlink:href="#c4"/></g><g><use transform="matrix(0.141098022461,-0.0378112792969,0.111373901367,0.225646972656,20.25,20.65)" filter="url(#filter7)" xlink:href="#c6"/></g><g><use transform="matrix(-0.155029296875,0.0513153076172,0.0841827392578,0.147033691406,22.6,3.15)" filter="url(#filter8)" xlink:href="#c8"/></g></g><filter id="filter7"><feColorMatrix in="SourceGraphic" type="matrix" values="0.0 0.0 0.0 0.0 0.796875 0.0 0.0 0.0 0.0 0.59765625 0.0 0.0 0.0 0.0 0.19921875 0.0 0.0 0.0 1.0 0.0" result="cxform"/><feComposite operator="in" in2="SourceGraphic" result="color-xform"/></filter><filter id="filter8"><feColorMatrix in="SourceGraphic" type="matrix" values="0.0 0.0 0.0 0.0 0.99609375 0.0 0.0 0.0 0.0 0.99609375 0.0 0.0 0.0 0.0 0.99609375 0.0 0.0 0.0 1.0 0.0" result="cxform"/><feComposite operator="in" in2="SourceGraphic" result="color-xform"/></filter><g id="c10"><path fill="#5c3b1e" stroke="none" d="M21.05 24.5 L21.1 24.0 21.25 23.55 19.6 25.7 19.55 25.8 19.45 26.25 19.35 26.65 21.05 24.5 M23.85 23.5 L24.05 23.6 25.65 24.15 27.3 24.8 27.3 24.75 26.75 23.95 25.3 21.75 23.85 23.5 M27.3 33.1 Q26.0 35.75 26.65 37.5 L28.35 35.3 Q27.7 33.55 28.9 30.85 L27.3 33.1"/><path fill="#a87b4f" stroke="none" d="M21.45 25.55 L21.45 25.45 22.65 25.0 Q23.3 24.7 24.0 24.55 L25.65 24.15 24.05 23.6 23.85 23.5 23.45 23.35 22.95 23.25 Q21.55 23.05 21.25 23.55 L21.1 24.0 21.05 24.5 Q21.05 25.0 21.35 25.45 L21.45 25.55 M37.95 35.5 L37.9 35.25 36.9 33.3 33.45 32.75 Q32.6 32.35 32.45 31.8 L32.5 31.35 Q32.9 30.55 33.65 30.0 L32.15 28.1 31.55 26.9 31.05 26.95 30.3 27.1 Q26.6 27.7 22.65 28.85 L22.45 29.4 Q22.35 31.15 23.5 31.7 25.1 32.4 28.9 30.85 L32.15 28.1 28.9 30.85 Q27.7 33.55 28.35 35.3 L34.8 34.95 37.95 35.5 M39.35 28.7 L39.55 28.35 Q40.35 27.55 40.45 27.0 L40.2 26.9 35.85 26.35 35.5 26.45 34.7 26.55 33.05 26.7 32.9 26.7 31.55 26.9 32.15 28.1 33.65 30.0 Q35.25 28.75 38.85 28.7 L39.1 28.7 39.35 28.7 M34.8 24.0 L35.0 23.15 33.2 23.2 29.25 22.8 28.65 22.65 25.3 21.75 26.75 23.95 30.05 23.7 33.35 23.85 34.8 24.0"/><path fill="#402912" stroke="none" d="M22.65 25.0 L21.45 25.45 21.45 25.55 19.65 27.65 20.4 27.7 21.7 25.95 Q22.1 25.35 22.65 25.0 M37.9 35.25 L38.75 35.4 39.7 35.3 40.15 35.1 41.75 32.9 41.4 33.1 40.45 33.2 39.85 33.15 Q38.25 32.85 35.4 31.6 36.25 32.3 36.9 33.3 L37.9 35.25 M40.2 26.9 L40.5 26.4 Q38.35 26.25 35.85 26.35 L40.2 26.9"/><path fill="#6e471f" stroke="none" d="M23.45 23.35 L23.85 23.5 25.3 21.75 25.25 21.45 25.05 20.85 23.3 22.9 23.45 23.35 M20.65 28.8 L21.95 29.85 22.65 28.85 Q22.9 28.2 23.7 27.65 L22.35 26.65 20.65 28.8 M21.8 33.9 Q23.3 34.6 27.3 33.1 L28.9 30.85 Q25.1 32.4 23.5 31.7 L21.8 33.9 M28.3 39.05 L29.7 38.95 31.4 37.5 Q32.5 38.65 34.15 39.35 L36.05 39.2 36.35 38.8 37.75 36.95 36.05 37.2 35.85 37.05 Q34.1 36.4 33.05 35.3 L31.4 36.7 29.9 36.8 Q27.7 37.85 28.3 39.05 M33.05 35.3 L31.4 37.5 33.05 35.3"/><path fill="#97bd2f" stroke="none" d="M21.75 30.1 L21.0 31.0 20.9 31.3 21.75 30.1 M27.35 24.8 L27.3 24.75 27.3 24.8 27.35 24.8"/><path fill="#a8754f" stroke="none" d="M22.65 25.0 Q22.1 25.35 21.7 25.95 L22.35 26.65 23.7 27.65 Q22.9 28.2 22.65 28.85 26.6 27.7 30.3 27.1 L31.05 26.95 31.55 26.9 32.9 26.7 33.05 26.7 34.35 25.4 34.15 25.5 34.8 24.0 33.35 23.85 30.05 23.7 26.75 23.95 27.3 24.75 27.35 24.8 27.3 24.8 25.65 24.15 24.0 24.55 Q23.3 24.7 22.65 25.0 M40.5 26.4 L40.45 26.25 Q40.1 24.35 37.9 24.35 36.1 24.6 34.35 25.4 L33.05 26.7 34.7 26.55 35.5 26.45 35.85 26.35 Q38.35 26.25 40.5 26.4 M35.0 23.15 Q35.25 21.8 34.8 20.95 34.1 19.0 31.7 19.8 L30.0 21.1 27.35 19.45 26.85 19.2 25.75 19.15 25.1 19.5 Q24.75 19.95 25.05 20.85 L25.25 21.45 25.3 21.75 28.65 22.65 29.25 22.8 33.2 23.2 35.0 23.15 M27.35 24.8 Q28.95 26.1 31.05 26.95 28.95 26.1 27.35 24.8"/><path fill="#9e7e4a" stroke="none" d="M41.75 32.9 L42.1 32.55 Q42.0 30.55 39.6 29.1 L39.35 28.7 39.1 28.7 38.85 28.7 Q35.25 28.75 33.65 30.0 32.9 30.55 32.5 31.35 L32.45 31.8 Q32.6 32.35 33.45 32.75 L36.9 33.3 Q36.25 32.3 35.4 31.6 38.25 32.85 39.85 33.15 L40.45 33.2 41.4 33.1 41.75 32.9 M35.4 31.6 L33.65 30.0 35.4 31.6"/><path fill="#a16e4b" stroke="none" d="M37.75 36.95 L37.9 36.85 Q38.2 36.4 38.0 35.6 L37.95 35.5 34.8 34.95 28.35 35.3 Q28.6 36.05 29.35 36.55 L29.9 36.8 31.4 36.7 33.05 35.3 Q34.1 36.4 35.85 37.05 L36.05 37.2 37.75 36.95"/><path fill="#9c632b" stroke="none" d="M20.9 31.3 L20.85 31.6 Q20.7 33.4 21.8 33.9 L23.5 31.7 Q22.35 31.15 22.45 29.4 L22.65 28.85 21.95 29.85 22.0 29.85 21.75 30.1 20.9 31.3"/><path fill="#805123" stroke="none" d="M21.7 25.95 L20.4 27.7 19.95 28.1 20.65 28.8 22.35 26.65 21.7 25.95 M19.65 27.65 L21.45 25.55 21.35 25.45 Q21.05 25.0 21.05 24.5 L19.35 26.65 19.65 27.65 M26.65 37.5 Q26.95 38.25 27.65 38.85 L28.3 39.05 Q27.7 37.85 29.9 36.8 L29.35 36.55 Q28.6 36.05 28.35 35.3 L26.65 37.5 M25.1 19.5 L23.4 21.7 Q23.15 22.1 23.3 22.9 L25.05 20.85 Q24.75 19.95 25.1 19.5"/><path fill="none" stroke="#36220f" stroke-width="0.5" stroke-opacity="0.301960784314" d="M22.65 25.0 Q22.1 25.35 21.7 25.95 L20.4 27.7 19.65 27.65 21.45 25.55 M21.25 23.55 L19.6 25.7 19.55 25.8 19.45 26.25 19.35 26.65 19.65 27.65 M20.4 27.7 L19.95 28.1 20.65 28.8 21.95 29.85 21.75 30.1 20.9 31.3 20.85 31.6 Q20.7 33.4 21.8 33.9 23.3 34.6 27.3 33.1 26.0 35.75 26.65 37.5 26.95 38.25 27.65 38.85 L28.3 39.05 29.7 38.95 31.4 37.5 Q32.5 38.65 34.15 39.35 L36.05 39.2 36.35 38.8 37.75 36.95 37.9 36.85 Q38.2 36.4 38.0 35.6 L37.95 35.5 M37.9 35.25 L38.75 35.4 39.7 35.3 40.15 35.1 41.75 32.9 42.1 32.55 Q42.0 30.55 39.6 29.1 L39.35 28.7 39.55 28.35 Q40.35 27.55 40.45 27.0 L40.2 26.9 40.5 26.4 40.45 26.25 Q40.1 24.35 37.9 24.35 36.1 24.6 34.35 25.4 M35.0 23.15 Q35.25 21.8 34.8 20.95 34.1 19.0 31.7 19.8 L30.0 21.1 27.35 19.45 26.85 19.2 25.75 19.15 25.1 19.5 23.4 21.7 Q23.15 22.1 23.3 22.9 L23.45 23.35 M22.65 28.85 Q22.9 28.2 23.7 27.65 L22.35 26.65 21.7 25.95 M27.35 24.8 L27.3 24.8 25.65 24.15 M35.85 26.35 L40.2 26.9 M22.65 28.85 L21.95 29.85 M28.9 30.85 L27.3 33.1 M35.4 31.6 Q36.25 32.3 36.9 33.3 M28.35 35.3 L26.65 37.5 M29.9 36.8 L29.35 36.55 Q28.6 36.05 28.35 35.3 M37.75 36.95 L36.05 37.2 35.85 37.05 Q34.1 36.4 33.05 35.3 L31.4 36.7 29.9 36.8 M23.85 23.5 L25.3 21.75 25.25 21.45 25.05 20.85 Q24.75 19.95 25.1 19.5 M35.4 31.6 Q38.25 32.85 39.85 33.15 L40.45 33.2 41.4 33.1 41.75 32.9 M40.5 26.4 Q38.35 26.25 35.85 26.35 M31.4 37.5 L33.05 35.3"/><path fill="none" stroke="#8f4701" stroke-width="0.5" stroke-opacity="0.250980392157" d="M21.45 25.55 L21.45 25.45 22.65 25.0 M21.45 25.55 L21.35 25.45 Q21.05 25.0 21.05 24.5 L21.1 24.0 21.25 23.55 Q21.55 23.05 22.95 23.25 L23.45 23.35 23.85 23.5 24.05 23.6 25.65 24.15 24.0 24.55 Q23.3 24.7 22.65 25.0 M37.95 35.5 L37.9 35.25 M34.35 25.4 L34.15 25.5 34.8 24.0 M22.65 28.85 L22.45 29.4 Q22.35 31.15 23.5 31.7 M27.3 24.75 L27.35 24.8 M27.3 24.75 L26.75 23.95 30.05 23.7 33.35 23.85 34.8 24.0 M33.05 26.7 L34.35 25.4 M33.05 26.7 L32.9 26.7 31.55 26.9 31.05 26.95 Q28.95 26.1 27.35 24.8 M33.05 26.7 L34.7 26.55 35.5 26.45 35.85 26.35 M33.65 30.0 L32.15 28.1 31.55 26.9 M31.05 26.95 L30.3 27.1 Q26.6 27.7 22.65 28.85 M36.9 33.3 L33.45 32.75 Q32.6 32.35 32.45 31.8 L32.5 31.35 Q32.9 30.55 33.65 30.0 L35.4 31.6 M36.9 33.3 L37.9 35.25 M32.15 28.1 L28.9 30.85 Q25.1 32.4 23.5 31.7 M28.35 35.3 L34.8 34.95 37.95 35.5 M28.9 30.85 Q27.7 33.55 28.35 35.3 M25.3 21.75 L28.65 22.65 29.25 22.8 33.2 23.2 35.0 23.15 M39.35 28.7 L39.1 28.7 38.85 28.7 Q35.25 28.75 33.65 30.0"/><path fill="none" stroke="#cc6600" stroke-width="0.5" stroke-opacity="0.152941176471" d="M34.8 24.0 L35.0 23.15 M25.3 21.75 L26.75 23.95"/><path fill="#759138" stroke="none" d="M25.65 24.15 L24.0 24.55 Q23.3 24.7 22.65 25.0 L21.85 25.75 23.85 27.45 23.65 27.65 23.7 27.65 23.05 28.25 22.7 28.75 26.55 27.75 26.05 28.0 30.3 27.1 31.05 26.95 31.55 26.9 32.9 26.7 33.05 26.7 34.7 26.55 35.5 26.45 35.85 26.35 38.85 26.35 40.5 26.4 40.45 26.25 40.45 26.2 Q40.05 24.35 37.9 24.35 36.1 24.6 34.35 25.4 L34.15 25.5 34.8 24.0 33.35 23.85 30.05 23.7 27.05 23.95 27.45 24.55 27.5 24.6 27.45 24.6 27.1 24.5 27.3 24.75 27.35 24.8 27.3 24.8 25.65 24.15 M36.1 31.9 L39.85 33.15 40.45 33.2 41.4 33.1 41.75 32.9 42.05 32.7 41.9 32.7 41.55 32.9 40.6 32.95 40.0 32.9 Q38.4 32.65 35.55 31.4 L36.1 31.9 M27.35 24.8 Q28.95 26.1 31.05 26.95 28.95 26.1 27.35 24.8 M33.05 26.7 L34.35 25.4 33.05 26.7"/><path fill="#5e782e" stroke="none" d="M26.05 28.0 L23.85 28.75 23.9 28.8 23.65 29.0 23.6 28.9 23.65 28.85 Q23.1 28.95 22.6 29.2 22.25 33.25 29.1 30.65 L28.9 30.85 28.75 31.1 28.9 31.0 32.15 28.1 31.55 26.9 31.05 26.95 30.3 27.1 26.05 28.0 M23.15 29.35 L23.0 29.3 23.25 29.0 23.4 29.15 23.25 29.35 23.15 29.35 M28.9 31.0 L28.9 30.85 28.9 31.0"/><path fill="#658232" stroke="none" d="M28.35 35.3 Q28.6 36.05 29.35 36.55 L31.4 36.7 33.05 35.3 Q34.1 36.4 35.85 37.05 L36.05 37.2 37.75 36.95 37.9 36.85 38.0 36.7 Q38.2 36.3 38.0 35.6 L37.95 35.5 34.8 34.95 28.55 35.25 28.35 35.3 M35.0 23.15 L35.0 23.1 32.35 23.1 34.4 22.7 34.4 22.65 34.4 22.5 34.6 22.65 35.1 22.4 34.8 20.95 Q34.1 19.0 31.7 19.8 L30.0 21.1 27.35 19.45 26.85 19.2 25.75 19.15 Q25.5 19.2 25.2 19.45 24.95 19.95 25.3 21.0 L27.9 22.45 28.65 22.65 29.25 22.8 31.3 23.1 31.45 23.1 33.2 23.2 35.0 23.15 M34.6 22.2 L34.6 22.1 34.95 22.2 34.75 22.45 34.6 22.2"/><path fill="#7e9138" stroke="none" d="M28.75 31.1 L28.4 32.2 28.35 32.5 28.15 33.35 Q28.0 34.4 28.35 35.3 L28.55 35.25 34.8 34.95 37.95 35.5 36.1 35.1 37.25 35.1 37.3 34.85 37.55 34.95 37.45 35.15 37.85 35.15 37.75 34.9 37.65 34.8 36.9 33.3 33.45 32.75 Q32.6 32.35 32.45 31.8 L32.5 31.35 Q32.9 30.55 33.65 30.0 35.25 28.75 38.85 28.7 L39.1 28.7 39.35 28.7 39.55 28.35 40.1 27.7 40.45 27.0 40.2 26.9 35.85 26.35 35.5 26.45 34.7 26.55 33.05 26.7 32.9 26.7 31.55 26.9 32.15 28.1 33.65 30.0 32.15 28.1 28.9 31.0 28.75 31.1 M28.4 32.2 L28.9 31.0 28.4 32.2"/><path fill="#8da640" stroke="none" d="M21.35 23.5 L21.25 23.85 Q21.0 24.45 21.55 25.25 L21.6 25.3 21.6 25.25 22.8 24.75 22.45 25.05 22.65 25.0 Q23.3 24.7 24.0 24.55 L25.65 24.15 24.05 23.6 23.85 23.5 23.45 23.35 21.35 23.5 M36.9 33.3 Q36.25 32.3 35.4 31.6 L36.1 31.9 35.55 31.4 Q38.4 32.65 40.0 32.9 L40.6 32.95 41.55 32.9 41.9 32.7 42.05 32.7 42.1 32.55 Q42.0 30.55 39.6 29.1 L39.35 28.7 39.1 28.7 38.85 28.7 Q35.25 28.75 33.65 30.0 32.9 30.55 32.5 31.35 L32.45 31.8 Q32.6 32.35 33.45 32.75 L36.9 33.3 M34.8 24.0 L35.0 23.15 33.2 23.2 31.45 23.1 31.3 23.1 29.25 22.8 28.65 22.65 27.9 22.45 26.9 22.2 26.7 22.35 26.65 22.2 26.65 22.15 26.35 22.05 26.3 22.1 26.2 22.15 26.1 22.05 26.1 22.0 25.65 21.85 26.9 23.75 27.05 23.95 30.05 23.7 33.35 23.85 34.8 24.0 M35.4 31.6 L33.65 30.0 35.4 31.6"/><path fill="#a8cc4f" stroke="none" d="M22.45 25.05 L22.8 24.75 21.6 25.25 21.6 25.3 21.55 25.25 Q21.0 24.45 21.25 23.85 L21.35 23.5 21.25 23.55 21.1 24.0 Q20.85 24.65 21.35 25.45 L21.45 25.55 21.45 25.45 22.45 25.05 M23.65 27.65 L23.85 27.45 21.85 25.75 21.7 25.95 23.65 27.65 M22.6 29.2 L22.5 29.25 22.45 29.4 Q22.1 33.5 28.9 30.85 L29.1 30.65 Q22.25 33.25 22.6 29.2 M25.2 19.45 L25.1 19.5 Q24.75 19.95 25.0 20.85 L25.3 21.0 Q24.95 19.95 25.2 19.45 M25.65 21.85 L25.6 21.85 25.35 21.8 26.75 23.95 27.1 24.5 27.45 24.6 27.5 24.6 27.45 24.55 27.05 23.95 26.9 23.75 25.65 21.85 M26.75 23.95 L27.05 23.95 26.75 23.95"/><path fill="none" stroke="#3c4f1e" stroke-width="0.5" stroke-opacity="0.2" d="M22.45 25.05 L21.45 25.45 M21.45 25.55 L21.35 25.45 Q20.85 24.65 21.1 24.0 L21.25 23.55 21.35 23.5 23.45 23.35 23.85 23.5 24.05 23.6 25.65 24.15 24.0 24.55 Q23.3 24.7 22.65 25.0 L22.45 25.05 M21.45 25.55 L21.45 25.45 M23.65 27.65 L21.7 25.95 21.85 25.75 22.65 25.0 M23.65 27.65 L23.7 27.65 23.05 28.25 22.7 28.75 M22.5 29.25 L22.45 29.4 Q22.1 33.5 28.9 30.85 L28.75 31.1 28.9 31.0 32.15 28.1 31.55 26.9 31.05 26.95 Q28.95 26.1 27.35 24.8 L27.3 24.8 25.65 24.15 M28.4 32.2 L28.35 32.5 28.15 33.35 Q28.0 34.4 28.35 35.3 28.6 36.05 29.35 36.55 L31.4 36.7 33.05 35.3 Q34.1 36.4 35.85 37.05 L36.05 37.2 37.75 36.95 37.9 36.85 38.0 36.7 Q38.2 36.3 38.0 35.6 L37.95 35.5 M37.85 35.15 L37.75 34.9 M37.65 34.8 L36.9 33.3 Q36.25 32.3 35.4 31.6 L36.1 31.9 39.85 33.15 40.45 33.2 41.4 33.1 41.75 32.9 42.05 32.7 42.1 32.55 Q42.0 30.55 39.6 29.1 L39.35 28.7 39.55 28.35 40.1 27.7 40.45 27.0 40.2 26.9 35.85 26.35 38.85 26.35 40.5 26.4 40.45 26.25 40.45 26.2 Q40.05 24.35 37.9 24.35 36.1 24.6 34.35 25.4 L34.15 25.5 34.8 24.0 35.0 23.15 35.0 23.1 M35.1 22.4 L34.8 20.95 Q34.1 19.0 31.7 19.8 L30.0 21.1 27.35 19.45 26.85 19.2 25.75 19.15 Q25.5 19.2 25.2 19.45 L25.1 19.5 Q24.75 19.95 25.0 20.85 M27.9 22.45 L26.9 22.2 M26.65 22.15 L26.35 22.05 M26.1 22.0 L25.65 21.85 25.6 21.85 M25.35 21.8 L26.75 23.95 27.1 24.5 27.3 24.75 27.35 24.8 M33.05 26.7 L32.9 26.7 31.55 26.9 M33.05 26.7 L34.7 26.55 35.5 26.45 35.85 26.35 M34.35 25.4 L33.05 26.7 M33.65 30.0 L32.15 28.1 M26.05 28.0 L30.3 27.1 31.05 26.95 M28.9 31.0 L28.4 32.2 M28.9 30.85 L28.9 31.0 M33.65 30.0 Q32.9 30.55 32.5 31.35 L32.45 31.8 Q32.6 32.35 33.45 32.75 L36.9 33.3 M28.35 35.3 L28.55 35.25 34.8 34.95 37.95 35.5 M27.05 23.95 L26.75 23.95 M35.0 23.15 L33.2 23.2 31.45 23.1 31.3 23.1 29.25 22.8 28.65 22.65 27.9 22.45 M34.8 24.0 L33.35 23.85 30.05 23.7 27.05 23.95 M39.35 28.7 L39.1 28.7 38.85 28.7 Q35.25 28.75 33.65 30.0 L35.4 31.6"/><path fill="#003300" fill-opacity="0.101960784314" d="M32.05 19.55 L31.7 19.65 30.0 21.0 27.35 19.3 27.15 19.2 26.85 19.1 25.8 19.0 Q25.45 19.1 25.15 19.35 L25.05 19.35 Q24.8 19.8 24.95 20.75 L27.9 22.35 26.85 22.15 26.65 22.2 26.6 22.1 26.6 22.0 26.3 21.95 26.25 22.0 26.15 22.1 26.05 21.95 26.05 21.9 25.6 21.75 25.55 21.75 25.3 21.7 26.75 23.85 27.05 24.35 27.3 24.7 27.35 24.75 27.3 24.75 24.05 23.45 23.8 23.4 23.4 23.3 21.3 23.35 Q21.2 23.35 21.15 23.45 L21.05 23.95 Q20.8 24.6 21.3 25.4 L21.35 25.45 21.35 25.4 22.4 24.95 22.6 24.85 21.8 25.6 21.65 25.85 23.65 27.55 23.7 27.55 23.0 28.15 22.7 28.65 24.6 28.2 24.8 28.35 25.45 28.65 25.9 28.85 26.4 28.55 26.6 28.45 26.6 28.2 Q26.7 27.6 27.25 27.65 L27.55 27.8 27.7 28.25 27.65 28.3 28.15 28.7 27.95 29.0 27.95 29.15 Q27.8 29.95 28.2 30.8 L28.35 31.05 28.6 31.4 Q29.1 32.05 29.6 32.1 L30.2 31.85 Q30.7 31.7 30.75 31.55 L30.95 31.15 31.0 30.95 31.25 30.6 31.6 30.35 31.75 30.2 31.85 30.0 31.85 29.75 31.7 29.6 31.45 29.5 31.1 29.6 31.15 30.05 30.85 30.45 30.55 30.55 30.15 30.4 30.0 30.85 29.95 30.9 29.9 31.0 29.7 31.1 29.5 30.85 29.45 30.65 29.45 30.1 29.5 29.85 29.45 29.9 29.1 29.95 Q28.55 29.95 28.7 29.35 L28.75 29.2 29.1 28.8 29.85 27.7 30.55 26.5 30.5 25.95 30.35 25.85 30.15 26.1 29.8 26.15 Q29.3 26.15 29.35 25.7 28.95 25.6 29.05 25.1 29.2 24.6 29.65 24.6 L29.65 24.45 29.6 24.4 29.65 24.3 30.25 23.85 30.7 23.8 31.0 23.85 31.1 23.85 31.25 23.9 31.45 23.95 Q31.25 23.7 31.35 23.2 31.6 22.3 32.45 22.35 L32.7 22.4 33.1 22.3 33.35 22.45 33.55 22.75 34.05 22.55 34.25 22.7 34.3 22.7 34.45 22.65 34.4 22.6 34.4 22.4 34.65 22.5 35.1 22.3 34.8 20.85 34.55 20.3 Q33.8 19.1 32.05 19.55 L32.05 19.6 32.05 19.55 M24.4 24.65 L24.4 24.6 24.4 24.65 M28.15 26.05 L28.4 26.2 Q28.7 26.35 28.6 26.75 L28.3 27.2 27.85 27.3 Q27.3 27.3 27.45 26.7 L27.75 26.2 Q27.95 26.05 28.15 26.05 M30.9 23.5 L30.95 23.35 31.05 23.3 31.15 23.3 31.2 23.35 31.2 23.45 31.15 23.55 31.1 23.55 31.0 23.6 30.9 23.5 M29.55 23.8 L29.4 23.85 29.35 23.75 29.35 23.65 29.5 23.6 29.6 23.6 29.6 23.7 29.6 23.8 29.55 23.8 M32.85 30.75 Q32.5 30.75 32.35 31.05 L32.35 31.15 Q32.25 31.6 32.7 31.6 L32.9 31.55 33.2 31.2 33.2 31.1 33.05 30.85 32.85 30.75 M34.35 31.15 Q34.2 31.5 34.35 31.8 L34.85 32.1 Q34.25 32.95 34.65 33.6 L35.25 34.25 35.85 34.5 Q36.75 34.55 37.35 33.9 L36.95 33.3 35.8 31.9 35.65 31.95 Q35.35 31.95 35.35 31.65 35.4 31.35 35.75 31.35 L35.95 31.35 36.05 31.6 35.95 31.75 36.1 31.9 38.0 32.55 39.9 33.1 40.5 33.1 41.4 33.05 41.8 32.9 42.1 32.6 42.1 32.45 Q42.05 30.45 39.65 29.0 L39.6 28.95 39.4 28.7 39.6 28.35 39.6 28.3 40.2 27.6 40.5 26.95 40.3 26.75 39.55 26.6 35.9 26.3 38.9 26.25 39.45 26.25 40.55 26.3 40.55 26.1 40.55 26.05 Q40.15 24.35 38.25 24.3 L37.95 24.3 35.1 25.0 35.55 25.35 35.5 25.45 Q34.8 26.4 35.3 27.0 L36.15 27.95 37.15 28.3 37.4 28.3 37.05 28.95 36.95 29.35 37.0 29.65 36.95 29.6 Q36.45 29.55 36.05 29.9 L35.8 30.3 35.7 30.3 Q34.75 30.2 34.35 31.15 M37.85 30.35 L37.6 30.4 Q37.1 30.35 37.2 29.9 37.3 29.4 37.85 29.45 L38.1 29.55 38.2 29.9 37.95 30.3 38.15 30.35 38.2 30.35 38.25 30.6 Q38.15 31.0 37.65 31.1 L37.85 30.6 37.85 30.35 M34.75 27.35 Q34.2 27.3 34.1 27.8 34.05 28.35 34.55 28.4 35.0 28.4 35.1 27.85 L35.0 27.4 34.75 27.35 M34.15 23.7 L34.55 23.65 34.8 23.75 34.85 23.75 35.05 23.05 35.05 23.0 34.45 23.0 34.4 23.15 34.1 23.55 34.05 23.6 34.15 23.7 M38.6 27.7 L38.65 27.7 38.6 27.7"/><path fill="#000000" fill-opacity="0.250980392157" d="M34.85 26.5 Q33.95 26.05 33.05 26.05 L32.95 26.05 Q31.9 26.15 31.4 26.8 30.9 27.4 31.2 28.2 31.45 29.05 32.4 29.55 L32.7 29.65 34.4 29.95 Q35.45 29.85 35.95 29.25 36.45 28.6 36.15 27.8 35.9 27.1 35.05 26.65 L34.85 26.5"/><path fill="#86540b" stroke="none" d="M31.75 29.15 L32.0 29.15 Q33.0 29.2 33.4 28.65 33.95 28.0 33.65 27.15 33.45 26.35 32.6 25.75 L32.45 25.6 32.15 25.35 32.05 25.35 Q31.05 25.3 30.5 25.9 30.0 26.5 30.3 27.4 30.55 28.3 31.45 29.0 L31.75 29.15"/><path fill="#472d05" stroke="none" d="M32.15 25.35 L32.45 25.6 32.6 25.75 Q33.45 26.35 33.65 27.15 33.95 28.0 33.4 28.65 33.0 29.2 32.0 29.15 L31.75 29.15 33.4 29.65 Q34.4 29.7 34.85 29.15 35.4 28.55 35.1 27.7 34.85 26.9 34.1 26.25 L33.85 26.1 Q33.05 25.45 32.15 25.35"/><path fill="none" stroke="#000000" stroke-width="0.5" stroke-opacity="0.2" d="M32.15 25.35 Q33.05 25.45 33.85 26.1 L34.1 26.25 Q34.85 26.9 35.1 27.7 35.4 28.55 34.85 29.15 34.4 29.7 33.4 29.65 L31.75 29.15 31.45 29.0 Q30.55 28.3 30.3 27.4 30.0 26.5 30.5 25.9 31.05 25.3 32.05 25.35 L32.15 25.35"/><path fill="#f3bb69" stroke="none" d="M31.1 27.35 L31.05 26.9 30.9 26.7 30.65 26.65 30.6 26.95 30.6 27.3 30.8 27.55 31.0 27.55 31.1 27.35"/><path fill="#86540b" stroke="none" d="M34.6 24.95 L34.6 24.9 34.45 24.85 34.25 24.85 33.95 24.9 33.95 24.95 32.0 25.95 Q31.85 26.0 31.75 26.15 31.45 26.5 31.6 27.05 L32.15 27.85 32.85 27.85 33.6 26.85 34.4 25.55 34.6 24.95 M32.2 26.15 L33.05 25.65 Q33.25 25.65 33.1 25.95 L32.4 26.6 Q31.6 26.6 32.2 26.15"/><path fill="#472d05" stroke="none" d="M34.6 24.95 L34.4 25.55 33.6 26.85 32.85 27.85 32.15 27.85 32.3 27.95 32.7 28.2 33.45 28.35 33.9 28.3 34.3 28.05 34.4 27.65 34.4 27.5 34.65 25.25 34.6 24.95"/><path fill="#f3bb69" stroke="none" d="M32.2 26.15 Q31.6 26.6 32.4 26.6 L33.1 25.95 Q33.25 25.65 33.05 25.65 L32.2 26.15"/><path fill="none" stroke="#000000" stroke-width="0.5" stroke-opacity="0.2" d="M32.15 27.85 L31.6 27.05 Q31.45 26.5 31.75 26.15 31.85 26.0 32.0 25.95 L33.95 24.95 33.95 24.9 34.25 24.85 34.45 24.85 34.6 24.9 34.6 24.95 M32.15 27.85 L32.3 27.95 32.7 28.2 33.45 28.35 33.9 28.3 34.3 28.05 34.4 27.65 34.4 27.5 34.65 25.25 34.6 24.95"/><path fill="#5f3c07" fill-opacity="0.501960784314" d="M29.85 34.2 Q29.85 34.55 30.0 34.75 L30.4 35.0 30.9 34.85 31.2 34.4 31.1 33.85 30.7 33.6 30.15 33.8 29.85 34.2"/><path fill="#472d05" stroke="none" d="M30.75 34.0 Q30.6 33.75 30.25 33.75 30.0 33.75 29.75 33.9 L29.45 34.35 29.6 34.9 Q29.7 35.1 30.0 35.1 L30.5 34.95 30.8 34.5 30.75 34.0"/><path fill="none" stroke="#5f3c07" stroke-width="0.5" stroke-opacity="0.501960784314" d="M30.75 34.0 L30.8 34.5 30.5 34.95 30.0 35.1 Q29.7 35.1 29.6 34.9 L29.45 34.35 29.75 33.9 Q30.0 33.75 30.25 33.75 30.6 33.75 30.75 34.0"/><path fill="#86540b" stroke="none" d="M30.6 34.05 L30.65 34.4 30.5 34.7 30.15 34.8 Q29.95 34.8 29.85 34.65 L29.8 34.45 29.9 34.4 30.05 34.2 30.05 34.05 30.35 33.95 30.6 34.05"/><path fill="#f3bb69" stroke="none" d="M29.9 34.2 L29.9 34.35 29.75 34.55 29.65 34.6 29.6 34.5 29.6 34.35 29.65 34.15 29.8 34.05 29.9 34.2"/><path fill="#5f3c07" fill-opacity="0.501960784314" d="M35.35 34.55 L35.5 35.1 35.9 35.35 36.4 35.2 36.7 34.75 36.6 34.2 36.2 33.95 35.65 34.15 35.35 34.55"/><path fill="#472d05" stroke="none" d="M36.2 34.3 Q36.05 34.05 35.7 34.05 L35.2 34.2 34.9 34.65 35.05 35.2 Q35.15 35.4 35.45 35.4 L35.95 35.25 36.25 34.8 36.2 34.3"/><path fill="none" stroke="#5f3c07" stroke-width="0.5" stroke-opacity="0.501960784314" d="M36.2 34.3 L36.25 34.8 35.95 35.25 35.45 35.4 Q35.15 35.4 35.05 35.2 L34.9 34.65 35.2 34.2 35.7 34.05 Q36.05 34.05 36.2 34.3"/><path fill="#86540b" stroke="none" d="M36.1 34.3 L36.15 34.65 36.0 34.95 35.65 35.05 Q35.45 35.05 35.35 34.9 L35.3 34.7 35.4 34.65 35.55 34.45 35.55 34.3 35.85 34.2 36.1 34.3"/><path fill="#f3bb69" stroke="none" d="M35.55 34.4 L35.55 34.55 35.4 34.75 35.3 34.8 35.25 34.7 35.25 34.55 35.3 34.35 35.45 34.25 35.55 34.4"/><path fill="#5f3c07" fill-opacity="0.501960784314" d="M39.15 31.05 Q39.15 31.4 39.3 31.6 L39.7 31.85 40.2 31.7 40.5 31.25 40.4 30.7 40.0 30.45 39.45 30.65 39.15 31.05"/><path fill="#472d05" stroke="none" d="M40.0 30.8 Q39.85 30.55 39.5 30.55 39.25 30.55 39.0 30.7 L38.7 31.15 38.85 31.7 Q38.95 31.9 39.25 31.9 L39.75 31.75 40.05 31.3 40.0 30.8"/><path fill="none" stroke="#5f3c07" stroke-width="0.5" stroke-opacity="0.501960784314" d="M40.0 30.8 L40.05 31.3 39.75 31.75 39.25 31.9 Q38.95 31.9 38.85 31.7 L38.7 31.15 39.0 30.7 Q39.25 30.55 39.5 30.55 39.85 30.55 40.0 30.8"/><path fill="#86540b" stroke="none" d="M39.85 30.85 L39.9 31.2 39.75 31.5 39.4 31.6 39.1 31.45 39.05 31.25 39.15 31.2 39.3 31.0 39.3 30.85 39.6 30.75 39.85 30.85"/><path fill="#f3bb69" stroke="none" d="M39.25 31.0 L39.25 31.15 39.1 31.35 39.0 31.4 38.95 31.3 38.95 31.15 39.0 30.95 39.15 30.85 39.25 31.0"/><path fill="#5f3c07" fill-opacity="0.501960784314" d="M37.9 25.7 Q37.9 26.05 38.05 26.25 L38.45 26.5 38.95 26.35 39.25 25.9 39.15 25.35 38.75 25.1 Q38.45 25.1 38.2 25.3 L37.9 25.7"/><path fill="#472d05" stroke="none" d="M38.8 25.4 Q38.65 25.15 38.3 25.15 38.05 25.15 37.8 25.3 L37.5 25.75 37.65 26.3 Q37.75 26.5 38.05 26.5 L38.55 26.35 38.85 25.9 38.8 25.4"/><path fill="none" stroke="#5f3c07" stroke-width="0.5" stroke-opacity="0.501960784314" d="M38.8 25.4 L38.85 25.9 38.55 26.35 38.05 26.5 Q37.75 26.5 37.65 26.3 L37.5 25.75 37.8 25.3 Q38.05 25.15 38.3 25.15 38.65 25.15 38.8 25.4"/><path fill="#86540b" stroke="none" d="M38.65 25.4 L38.7 25.75 38.55 26.05 38.2 26.15 37.9 26.0 37.85 25.8 37.95 25.75 38.1 25.55 38.1 25.4 38.4 25.3 38.65 25.4"/><path fill="#f3bb69" stroke="none" d="M38.15 25.5 L38.15 25.65 38.0 25.85 37.9 25.9 37.85 25.8 37.85 25.65 37.9 25.45 38.05 25.35 38.15 25.5"/><path fill="#5f3c07" fill-opacity="0.501960784314" d="M32.85 21.05 L33.0 21.6 33.4 21.85 33.9 21.7 34.2 21.25 34.1 20.7 Q33.95 20.5 33.7 20.45 L33.15 20.65 32.85 21.05"/><path fill="#472d05" stroke="none" d="M33.95 20.6 Q33.8 20.35 33.45 20.35 L32.95 20.5 32.65 20.95 32.8 21.5 Q32.9 21.7 33.2 21.7 L33.7 21.55 34.0 21.1 33.95 20.6"/><path fill="none" stroke="#5f3c07" stroke-width="0.5" stroke-opacity="0.501960784314" d="M33.95 20.6 L34.0 21.1 33.7 21.55 33.2 21.7 Q32.9 21.7 32.8 21.5 L32.65 20.95 32.95 20.5 33.45 20.35 Q33.8 20.35 33.95 20.6"/><path fill="#86540b" stroke="none" d="M33.65 20.75 L33.7 21.1 33.55 21.4 33.2 21.5 32.9 21.35 32.85 21.15 32.95 21.1 33.1 20.9 33.1 20.75 33.4 20.65 33.65 20.75"/><path fill="#f3bb69" stroke="none" d="M33.0 20.8 L33.0 20.95 32.85 21.15 32.75 21.2 32.7 21.1 32.7 20.95 32.75 20.75 32.9 20.65 33.0 20.8"/><path fill="#5f3c07" fill-opacity="0.501960784314" d="M26.65 20.65 L26.8 21.2 27.2 21.45 27.7 21.3 28.0 20.85 27.9 20.3 27.5 20.05 26.95 20.25 26.65 20.65"/><path fill="#472d05" stroke="none" d="M27.6 20.2 Q27.45 19.95 27.1 19.95 26.85 19.95 26.6 20.1 L26.3 20.55 26.45 21.1 Q26.55 21.3 26.85 21.3 L27.35 21.15 27.65 20.7 27.6 20.2"/><path fill="none" stroke="#5f3c07" stroke-width="0.5" stroke-opacity="0.501960784314" d="M27.6 20.2 L27.65 20.7 27.35 21.15 26.85 21.3 Q26.55 21.3 26.45 21.1 L26.3 20.55 26.6 20.1 Q26.85 19.95 27.1 19.95 27.45 19.95 27.6 20.2"/><path fill="#86540b" stroke="none" d="M27.35 20.4 L27.4 20.75 27.25 21.05 26.9 21.15 26.6 21.0 26.55 20.8 26.65 20.75 26.8 20.55 26.8 20.4 27.1 20.3 27.35 20.4"/><path fill="#f3bb69" stroke="none" d="M26.9 20.45 L26.9 20.6 26.75 20.8 26.65 20.85 26.6 20.75 26.6 20.6 26.65 20.4 26.8 20.3 26.9 20.45"/><path fill="#5f3c07" fill-opacity="0.501960784314" d="M22.45 24.35 L22.6 24.9 Q22.75 25.15 23.0 25.15 L23.5 25.0 23.8 24.55 23.7 24.0 Q23.55 23.8 23.3 23.75 L22.75 23.95 22.45 24.35"/><path fill="#472d05" stroke="none" d="M23.4 24.1 Q23.25 23.85 22.9 23.85 L22.4 24.0 22.1 24.45 22.25 25.0 Q22.35 25.2 22.65 25.2 L23.15 25.05 23.45 24.6 23.4 24.1"/><path fill="none" stroke="#5f3c07" stroke-width="0.5" stroke-opacity="0.501960784314" d="M23.4 24.1 L23.45 24.6 23.15 25.05 22.65 25.2 Q22.35 25.2 22.25 25.0 L22.1 24.45 22.4 24.0 22.9 23.85 Q23.25 23.85 23.4 24.1"/><path fill="#86540b" stroke="none" d="M23.1 24.25 L23.15 24.6 23.0 24.9 22.65 25.0 Q22.45 25.0 22.35 24.85 L22.3 24.65 22.4 24.6 22.55 24.4 22.55 24.25 22.85 24.15 23.1 24.25"/><path fill="#f3bb69" stroke="none" d="M22.6 24.2 L22.6 24.35 22.45 24.55 22.35 24.6 22.3 24.5 22.3 24.35 22.35 24.15 22.5 24.05 22.6 24.2"/><path fill="#5f3c07" fill-opacity="0.501960784314" d="M23.7 29.8 L23.85 30.35 24.25 30.6 24.75 30.45 25.05 30.0 24.95 29.45 Q24.8 29.25 24.55 29.2 24.25 29.2 24.0 29.4 L23.7 29.8"/><path fill="#472d05" stroke="none" d="M24.7 29.55 Q24.55 29.3 24.2 29.3 L23.7 29.45 23.4 29.9 23.55 30.45 Q23.65 30.65 23.95 30.65 L24.45 30.5 24.75 30.05 24.7 29.55"/><path fill="none" stroke="#5f3c07" stroke-width="0.5" stroke-opacity="0.501960784314" d="M24.7 29.55 L24.75 30.05 24.45 30.5 23.95 30.65 Q23.65 30.65 23.55 30.45 L23.4 29.9 23.7 29.45 24.2 29.3 Q24.55 29.3 24.7 29.55"/><path fill="#86540b" stroke="none" d="M24.45 29.5 L24.5 29.85 24.35 30.15 24.0 30.25 23.7 30.1 23.65 29.9 23.75 29.85 23.9 29.65 23.9 29.5 24.2 29.4 24.45 29.5"/><path fill="#f3bb69" stroke="none" d="M24.0 29.7 L24.0 29.85 23.85 30.05 23.75 30.1 23.7 30.0 23.7 29.85 23.75 29.65 23.9 29.55 24.0 29.7"/></g><filter id="filter12"><feColorMatrix in="SourceGraphic" type="matrix" values="1.0 0.0 0.0 0.0 0.0 0.0 1.0 0.0 0.0 0.0 0.0 0.0 1.0 0.0 0.0 0.0 0.0 0.0 0.23046875 0.0" result="cxform"/><feComposite operator="in" in2="SourceGraphic" result="color-xform"/></filter></defs><g><g><use transform="matrix(1.0,0.0,0.0,1.0,0.0,0.0)" xlink:href="#c1"/></g><g><use transform="matrix(1.15496826172,0.0,0.0,1.15496826172,5.85,4.8)" xlink:href="#c9"/></g><g><use transform="matrix(1.0,0.0,0.0,1.0,0.0,0.0)" xlink:href="#c10"/></g><g><use transform="matrix(0.162948608398,-0.0436706542969,0.128631591797,0.260604858398,30.0,28.7)" filter="url(#filter12)" xlink:href="#c6"/></g></g></svg>