<?xml version='1.0' encoding='UTF-8'?>
<svg xmlns:xlink="http://www.w3.org/1999/xlink" xmlns="http://www.w3.org/2000/svg" version="1.1" width="60px" height="60px" viewBox="0.0 0.0 60.0 60.0"><defs><g id="c1"><path fill="#000000" fill-opacity="0.00392156862745" d="M0.0 0.0 L60.0 0.0 60.0 60.0 0.0 60.0 0.0 0.0"/></g><g id="c2"><path fill="none" stroke="#000000" stroke-width="1.0" stroke-opacity="0.301960784314" d="M0.7 12.25 Q-0.45 9.75 0.75 8.25 1.2 7.6 2.15 7.15 2.8 6.7 3.8 6.35 L17.5 1.95 30.2 7.0 41.35 31.7 Q42.95 35.15 40.2 36.7 39.5 37.3 38.3 37.65 L25.5 41.8 25.45 41.75 24.55 42.0 11.85 37.0 0.7 12.25"/><path fill="#9d147b" stroke="none" d="M35.55 22.3 L31.5 13.2 29.75 9.2 16.95 4.25 5.5 7.85 Q1.65 9.1 3.35 12.8 L8.25 23.65 13.1 34.35 25.8 39.4 37.2 35.7 Q41.1 34.5 39.35 30.75 L35.55 22.3 M5.45 20.95 L1.35 11.8 Q0.4 9.65 1.1 8.3 1.45 7.65 2.15 7.15 2.8 6.7 3.8 6.35 L17.5 1.95 30.2 7.0 41.35 31.7 Q42.95 35.15 40.2 36.7 L38.9 37.25 25.2 41.65 12.5 36.65 5.45 20.95"/><path fill="#c47fad" stroke="none" d="M31.5 13.2 L35.55 22.3 39.35 30.75 Q41.1 34.5 37.2 35.7 L25.8 39.4 13.1 34.35 8.25 23.65 3.35 12.8 Q1.65 9.1 5.5 7.85 L16.95 4.25 29.75 9.2 31.5 13.2 M18.5 7.45 L9.1 10.55 9.55 11.6 Q9.8 12.8 9.15 13.6 8.4 14.45 7.1 14.4 L6.8 14.4 6.95 14.6 15.2 32.75 23.85 36.2 34.0 32.9 33.7 32.1 Q33.45 30.9 34.1 30.1 34.75 29.3 35.95 29.35 L35.8 29.0 27.75 10.95 18.5 7.45"/><path fill="#fcf2cf" stroke="none" d="M27.75 10.95 L35.8 29.0 35.95 29.35 Q34.75 29.3 34.1 30.1 33.45 30.9 33.7 32.1 L34.0 32.9 23.85 36.2 15.2 32.75 6.95 14.6 6.8 14.4 7.1 14.4 Q8.4 14.45 9.15 13.6 9.8 12.8 9.55 11.6 L9.1 10.55 18.5 7.45 27.75 10.95"/><path fill="#630a4c" stroke="none" d="M1.1 8.3 L0.75 8.25 Q1.2 7.6 2.15 7.15 1.45 7.65 1.1 8.3 M4.6 20.9 L5.45 20.95 12.5 36.65 11.55 36.25 11.25 35.55 4.6 20.9"/><path fill="#300525" stroke="none" d="M1.1 8.3 Q0.4 9.65 1.35 11.8 L5.45 20.95 4.6 20.9 0.7 12.25 Q-0.45 9.75 0.75 8.25 L1.1 8.3 M12.5 36.65 L25.2 41.65 38.9 37.25 40.2 36.7 Q39.5 37.3 38.3 37.65 L25.5 41.8 25.45 41.75 24.55 42.0 11.85 37.0 11.55 36.25 12.5 36.65"/><path fill="none" stroke="#bf9900" stroke-width="1.0" stroke-opacity="0.749019607843" d="M31.5 13.2 L35.55 22.3 M13.1 34.35 L8.25 23.65"/><path fill="none" stroke="#ffcc00" stroke-width="1.0" stroke-opacity="0.749019607843" d="M35.55 22.3 L39.35 30.75 Q41.1 34.5 37.2 35.7 L25.8 39.4 M8.25 23.65 L3.35 12.8 Q1.65 9.1 5.5 7.85 L16.95 4.25 29.75 9.2 31.5 13.2"/><path fill="none" stroke="#f0b92b" stroke-width="0.5" d="M27.75 10.95 L35.8 29.0 35.95 29.35 Q34.75 29.3 34.1 30.1 33.45 30.9 33.7 32.1 L34.0 32.9 23.85 36.2 15.2 32.75 6.95 14.6 6.8 14.4 7.1 14.4 Q8.4 14.45 9.15 13.6 9.8 12.8 9.55 11.6 L9.1 10.55 18.5 7.45"/><path fill="none" stroke="#000000" stroke-width="0.5" stroke-opacity="0.301960784314" d="M5.45 20.95 L1.35 11.8 Q0.4 9.65 1.1 8.3 M0.75 8.25 Q-0.45 9.75 0.7 12.25 L4.6 20.9 M5.45 20.95 L12.5 36.65 M25.2 41.65 L38.9 37.25 40.2 36.7 Q42.95 35.15 41.35 31.7 L30.2 7.0 M17.5 1.95 L3.8 6.35 Q2.8 6.7 2.15 7.15 1.45 7.65 1.1 8.3 M0.75 8.25 Q1.2 7.6 2.15 7.15 M11.25 35.55 L4.6 20.9 M25.5 41.8 L38.3 37.65 Q39.5 37.3 40.2 36.7"/><path fill="none" stroke="#ffcc00" stroke-width="0.5" stroke-opacity="0.749019607843" d="M18.5 7.45 L27.75 10.95"/><path fill="none" stroke="#f0b92b" stroke-width="1.0" stroke-opacity="0.749019607843" d="M25.8 39.4 L13.1 34.35"/><path fill="none" stroke="#432f2f" stroke-width="0.5" d="M12.5 36.65 L25.2 41.65"/></g><g id="c3"><path fill="#7fdbfe" stroke="none" d="M10.75 4.9 Q10.75 4.6 10.9 4.35 11.25 3.45 11.95 2.75 13.3 1.5 14.35 2.1 15.4 2.7 14.95 4.45 14.7 5.4 14.1 6.15 L13.75 6.5 Q13.1 7.15 12.35 7.35 L11.4 7.2 Q10.95 6.9 10.75 6.4 10.5 5.75 10.75 4.9 M7.5 5.9 Q7.0 5.85 6.6 5.5 6.05 5.0 5.8 4.15 L5.7 3.6 Q5.55 2.65 5.8 1.7 6.25 0.0 7.5 0.0 L7.6 0.0 Q8.85 0.0 9.3 1.7 9.55 2.65 9.4 3.6 L9.3 4.15 8.5 5.5 7.6 5.9 7.5 5.9 M4.35 4.9 Q4.6 5.75 4.35 6.4 L3.7 7.2 2.75 7.35 Q2.0 7.15 1.35 6.5 L1.0 6.15 Q0.4 5.4 0.15 4.45 -0.3 2.7 0.75 2.1 1.8 1.5 3.15 2.75 3.85 3.45 4.2 4.35 L4.35 4.9 M5.5 13.7 Q4.45 13.9 3.65 12.95 2.75 12.0 3.2 10.25 3.7 8.5 5.25 7.6 6.4 6.9 7.55 7.0 8.75 6.9 9.9 7.6 11.45 8.5 11.95 10.25 12.35 12.0 11.5 12.95 10.7 13.9 9.65 13.7 8.55 13.5 7.55 12.6 6.55 13.5 5.5 13.7"/></g><g id="c4"><g><use transform="matrix(1.0,0.0,0.0,1.0,0.0,0.0)" xlink:href="#c3"/></g></g><radialGradient gradientUnits="userSpaceOnUse" r="819.2" cx="0" cy="0" spreadMethod="pad" gradientTransform="matrix(0.0914459228516,0.0,0.0,0.0914459228516,0.6,3.4)" id="gradient1"><stop offset="0.0" stop-color="#ffffff"/><stop offset="1.0" stop-color="#ffffff" stop-opacity="0.0"/></radialGradient><g id="c5"><path stroke="none" fill="url(#gradient1)" d="M36.65 -54.65 Q60.05 -42.0 69.75 -17.95 80.55 8.9 68.0 34.1 55.45 59.35 26.8 68.2 -1.8 77.05 -29.7 64.3 -57.6 51.6 -68.45 24.75 -79.3 -2.05 -66.75 -27.25 L-66.7 -27.3 Q-54.1 -52.5 -25.5 -61.4 3.1 -70.2 31.0 -57.5 L36.65 -54.65"/></g><g id="c6"><g><use transform="matrix(1.0,0.0,0.0,1.0,0.0,0.0)" xlink:href="#c5"/></g></g><radialGradient gradientUnits="userSpaceOnUse" r="819.2" cx="0" cy="0" spreadMethod="pad" gradientTransform="matrix(0.209197998047,0.0,0.0,0.177108764648,67.15,107.2)" id="gradient2"><stop offset="0.356862745098" stop-color="#ffffff"/><stop offset="0.670588235294" stop-opacity="0.0"/></radialGradient><g id="c7"><path fill="none" stroke-linejoin="round" stroke-linecap="round" stroke="url(#gradient2)" stroke-width="0.5" d="M136.55 165.8 L68.6 106.0 68.4 106.0 118.25 201.5 M68.3 105.8 L68.35 105.8 68.3 105.8 68.3 105.85 68.4 106.0 68.3 106.0 86.55 211.5 M68.3 105.8 L68.3 105.85 68.3 106.0 68.15 105.95 18.25 151.55 M68.3 105.85 L68.25 105.85 68.3 106.0 50.0 193.2 M68.25 105.85 L68.15 105.95 0.05 97.7 M68.3 105.85 L68.25 105.8 68.25 105.85 M68.25 105.8 L68.2 105.7 0.0 45.7 M68.3 105.8 L68.25 105.75 68.25 105.8 M68.25 105.75 L68.2 105.7 18.25 10.05 M68.6 106.0 L68.35 105.8 118.25 60.15 M86.6 18.35 L68.3 105.8 M136.6 114.25 L68.6 106.0 M68.25 105.75 L49.95 0.05"/></g><g id="c8"><g><use transform="matrix(1.0,0.0,0.0,1.0,0.0,0.0)" xlink:href="#c7"/></g></g><g id="c9"><g><use transform="matrix(1.0,0.0,0.0,1.0,0.0,0.0)" xlink:href="#c2"/></g><g><use transform="matrix(0.238861083984,-0.0867004394531,0.10026550293,0.233917236328,34.25,31.15)" xlink:href="#c4"/></g><g><use transform="matrix(0.238861083984,-0.0867004394531,0.10026550293,0.233917236328,4.25,10.3)" xlink:href="#c4"/></g><g><use transform="matrix(0.141098022461,-0.0378112792969,0.111373901367,0.225646972656,20.25,20.65)" filter="url(#filter7)" xlink:href="#c6"/></g><g><use transform="matrix(-0.155029296875,0.0513153076172,0.0841827392578,0.147033691406,22.6,3.15)" filter="url(#filter8)" xlink:href="#c8"/></g></g><filter id="filter7"><feColorMatrix in="SourceGraphic" type="matrix" values="0.0 0.0 0.0 0.0 0.796875 0.0 0.0 0.0 0.0 0.59765625 0.0 0.0 0.0 0.0 0.19921875 0.0 0.0 0.0 1.0 0.0" result="cxform"/><feComposite operator="in" in2="SourceGraphic" result="color-xform"/></filter><filter id="filter8"><feColorMatrix in="SourceGraphic" type="matrix" values="0.0 0.0 0.0 0.0 0.99609375 0.0 0.0 0.0 0.0 0.99609375 0.0 0.0 0.0 0.0 0.99609375 0.0 0.0 0.0 1.0 0.0" result="cxform"/><feComposite operator="in" in2="SourceGraphic" result="color-xform"/></filter><linearGradient gradientUnits="userSpaceOnUse" x1="-819.2" x2="819.2" spreadMethod="pad" gradientTransform="matrix(0.004150390625,-0.00422668457031,0.00175476074219,0.00173950195312,24.95,29.25)" id="gradient3"><stop offset="0.0" stop-color="#949494"/><stop offset="1.0" stop-color="#777777"/></linearGradient><linearGradient gradientUnits="userSpaceOnUse" x1="-819.2" x2="819.2" spreadMethod="pad" gradientTransform="matrix(0.00862121582031,-0.00604248046875,0.00498962402344,0.00712585449219,31.6,32.5)" id="gradient4"><stop offset="0.0" stop-color="#c5d1d8"/><stop offset="1.0" stop-color="#7a8996"/></linearGradient><linearGradient gradientUnits="userSpaceOnUse" x1="-819.2" x2="819.2" spreadMethod="pad" gradientTransform="matrix(-0.0104217529297,-0.00289916992188,-0.00149536132812,0.00546264648438,17.2,23.1)" id="gradient5"><stop offset="0.0" stop-color="#f85656"/><stop offset="0.0549019607843" stop-color="#fa7272"/><stop offset="1.0" stop-color="#faafb0" stop-opacity="0.0"/></linearGradient><g id="c10"><path stroke="none" fill="url(#gradient3)" d="M24.55 31.05 Q22.5 31.9 24.25 28.3 26.25 25.5 28.25 24.75 L29.3 24.7 Q29.6 24.95 29.25 25.65 26.3 30.05 26.05 28.05 26.3 30.05 29.25 25.65 29.6 24.95 29.3 24.7 L28.25 24.75 Q26.25 25.5 24.25 28.3 22.5 31.9 24.55 31.05 23.55 32.3 22.95 34.1 L22.8 32.1 Q22.85 28.65 25.4 26.05 L25.45 25.95 27.2 24.6 Q28.85 23.55 30.9 23.35 L31.4 23.4 32.4 23.4 32.35 23.5 Q31.55 23.75 31.0 24.45 L30.3 26.45 28.9 28.35 Q27.3 29.95 24.55 31.05"/><path stroke="none" fill="url(#gradient4)" d="M24.55 31.05 Q27.3 29.95 28.9 28.35 L30.3 26.45 31.0 24.45 Q31.55 23.75 32.35 23.5 L32.65 23.4 Q35.25 23.65 37.2 25.5 39.6 27.85 39.5 31.35 39.45 34.8 36.95 37.35 34.4 39.95 31.0 40.05 27.5 40.25 25.1 37.9 23.45 36.3 22.95 34.1 23.55 32.3 24.55 31.05 M24.5 36.4 Q25.45 37.75 27.1 38.0 25.65 36.75 24.95 35.7 24.3 34.5 24.35 33.2 23.55 34.95 24.5 36.4 M27.75 33.9 L28.4 34.75 Q29.45 35.8 31.0 35.65 32.65 35.45 33.9 34.2 L34.55 33.35 35.2 31.4 Q35.3 29.8 34.25 28.75 L33.25 28.05 32.65 28.1 Q30.8 28.3 29.4 29.8 27.9 31.25 27.8 33.1 27.7 33.5 27.75 33.9"/><path fill="#444444" stroke="none" d="M32.35 23.5 L32.4 23.4 32.65 23.4 32.35 23.5"/><path fill="#dddddd" stroke="none" d="M24.5 36.4 Q23.55 34.95 24.35 33.2 24.3 34.5 24.95 35.7 25.65 36.75 27.1 38.0 25.45 37.75 24.5 36.4"/><path fill="none" stroke="#000000" stroke-width="0.5" stroke-opacity="0.2" d="M26.05 28.05 Q26.3 30.05 29.25 25.65 29.6 24.95 29.3 24.7 L28.25 24.75 Q26.25 25.5 24.25 28.3 22.5 31.9 24.55 31.05 27.3 29.95 28.9 28.35 L30.3 26.45 31.0 24.45 M32.4 23.4 L31.4 23.4 30.9 23.35 Q28.85 23.55 27.2 24.6 L25.45 25.95 25.4 26.05 Q22.85 28.65 22.8 32.1 L22.95 34.1 M32.65 23.4 L32.4 23.4 M32.65 23.4 Q35.25 23.65 37.2 25.5 39.6 27.85 39.5 31.35 39.45 34.8 36.95 37.35 34.4 39.95 31.0 40.05 27.5 40.25 25.1 37.9 23.45 36.3 22.95 34.1"/><path fill="#ad4830" stroke="none" d="M29.45 35.35 Q29.75 36.2 32.2 37.15 L32.0 37.15 Q30.15 37.35 28.9 36.2 27.95 35.2 27.8 33.85 L28.4 34.75 28.5 34.8 29.45 35.35"/><path fill="#c45334" stroke="none" d="M29.45 35.35 L31.05 35.55 31.95 35.4 Q33.0 36.35 34.85 36.0 33.65 36.95 32.2 37.15 29.75 36.2 29.45 35.35"/><path fill="#f67373" stroke="none" d="M34.6 33.3 Q35.15 32.4 35.2 31.3 35.35 29.7 34.3 28.75 L33.2 28.0 Q34.8 28.05 35.8 29.1 37.15 30.4 36.9 32.5 L36.4 34.15 Q36.1 32.95 34.6 33.3"/><path fill="#f45757" stroke="none" d="M34.85 36.0 Q33.0 36.35 31.95 35.4 33.0 35.05 33.85 34.15 L34.6 33.3 Q36.1 32.95 36.4 34.15 L35.35 35.5 34.85 36.0"/><path fill="none" stroke="#000000" stroke-width="0.5" stroke-opacity="0.2" d="M31.95 35.4 L31.05 35.55 29.45 35.35 M31.95 35.4 Q33.0 35.05 33.85 34.15 L34.6 33.3 Q35.15 32.4 35.2 31.3 35.35 29.7 34.3 28.75 L33.2 28.0 32.7 28.05 Q30.85 28.25 29.4 29.65 27.95 31.2 27.8 33.1 L27.8 33.85 28.4 34.75 28.5 34.8 29.45 35.35"/><path fill="#666666" stroke="none" d="M29.05 23.6 Q30.65 23.05 32.8 23.0 L32.75 23.75 Q31.2 24.1 30.85 25.85 29.9 29.2 24.6 31.6 23.85 31.85 23.9 33.2 L23.3 33.35 23.75 31.2 Q27.5 29.65 29.45 26.95 31.35 23.4 29.05 23.6"/><path fill="#cccccc" stroke="none" d="M29.05 23.6 Q31.35 23.4 29.45 26.95 27.5 29.65 23.75 31.2 L23.3 33.35 23.1 33.35 23.85 29.4 Q26.1 25.75 29.0 23.6 L29.05 23.6"/><path fill="#eaeaea" stroke="none" d="M23.1 33.35 L22.7 33.4 Q22.2 31.05 23.5 28.25 24.35 26.7 26.6 24.9 27.6 24.05 29.0 23.6 26.1 25.75 23.85 29.4 L23.1 33.35"/><path fill="none" stroke="#000000" stroke-width="0.5" stroke-opacity="0.2" d="M23.3 33.35 L23.9 33.2 Q23.85 31.85 24.6 31.6 29.9 29.2 30.85 25.85 31.2 24.1 32.75 23.75 L32.8 23.0 Q30.65 23.05 29.05 23.6 M23.3 33.35 L23.1 33.35 22.7 33.4 Q22.2 31.05 23.5 28.25 24.35 26.7 26.6 24.9 27.6 24.05 29.0 23.6"/><path stroke="none" fill="url(#gradient5)" d="M28.15 22.1 Q29.05 23.35 29.15 24.7 29.15 26.35 27.55 28.0 L25.65 29.45 22.85 29.5 21.3 28.7 21.05 28.35 Q20.3 27.6 20.05 26.65 19.9 26.1 19.9 25.45 L19.95 25.2 Q20.0 23.9 20.7 22.85 L21.1 22.25 21.45 21.95 21.6 21.8 Q21.9 21.45 22.3 21.25 23.3 20.65 24.5 20.55 L24.75 20.5 Q26.15 20.5 27.25 21.25 L27.85 21.85 28.15 22.1"/><path fill="none" stroke="#000000" stroke-width="0.5" stroke-opacity="0.2" d="M28.15 22.1 L27.85 21.85 27.25 21.25 Q26.15 20.5 24.75 20.5 L24.5 20.55 Q23.3 20.65 22.3 21.25 21.9 21.45 21.6 21.8 L21.45 21.95 21.1 22.25 20.7 22.85 Q20.0 23.9 19.95 25.2 L19.9 25.45 Q19.9 26.1 20.05 26.65 20.3 27.6 21.05 28.35 L21.3 28.7 22.85 29.5 25.65 29.45 27.55 28.0 Q29.15 26.35 29.15 24.7 29.05 23.35 28.15 22.1"/><path fill="#4b0101" fill-opacity="0.2" d="M30.55 23.4 Q31.7 23.9 31.7 25.3 31.75 26.65 30.6 28.05 29.4 29.45 27.75 30.05 L24.9 30.2 Q23.75 29.65 23.75 28.25 23.75 26.9 24.9 25.55 26.1 24.1 27.75 23.5 L30.55 23.4"/><path fill="#fc1b1b" stroke="none" d="M24.05 22.35 L24.15 22.8 23.9 23.2 23.45 23.3 23.05 23.05 22.95 22.6 23.2 22.2 23.65 22.1 24.05 22.35"/><path fill="#fc1b1b" stroke="none" d="M25.05 26.55 Q25.35 26.95 25.25 27.4 L24.8 28.1 23.95 28.3 23.25 27.85 Q23.0 27.5 23.05 27.0 L23.55 26.3 Q23.95 26.05 24.35 26.1 24.8 26.2 25.05 26.55"/><path fill="#780101" stroke="none" d="M26.95 22.9 L27.0 23.1 26.9 23.35 26.65 23.4 26.4 23.3 Q26.3 23.15 26.35 23.0 L26.5 22.8 26.7 22.7 26.95 22.9"/><path fill="#fddfdf" stroke="none" d="M23.0 25.4 L22.45 26.3 Q21.95 26.65 21.3 26.6 L20.4 25.95 Q20.05 25.45 20.1 24.9 20.25 24.25 20.75 23.9 21.25 23.55 21.8 23.7 22.45 23.75 22.8 24.25 23.15 24.75 23.0 25.4"/><path fill="none" stroke="#000000" stroke-width="0.5" stroke-opacity="0.2" d="M25.25 28.7 Q26.9 27.95 27.75 26.65 28.65 25.25 28.2 23.8"/></g><filter id="filter12"><feColorMatrix in="SourceGraphic" type="matrix" values="1.0 0.0 0.0 0.0 0.0 0.0 1.0 0.0 0.0 0.0 0.0 0.0 1.0 0.0 0.0 0.0 0.0 0.0 0.23046875 0.0" result="cxform"/><feComposite operator="in" in2="SourceGraphic" result="color-xform"/></filter></defs><g><g><use transform="matrix(1.0,0.0,0.0,1.0,0.0,0.0)" xlink:href="#c1"/></g><g><use transform="matrix(1.15496826172,0.0,0.0,1.15496826172,5.85,4.8)" xlink:href="#c9"/></g><g><use transform="matrix(1.0,0.0,0.0,1.0,0.0,0.0)" xlink:href="#c10"/></g><g><use transform="matrix(0.162948608398,-0.0436706542969,0.128631591797,0.260604858398,30.0,28.7)" filter="url(#filter12)" xlink:href="#c6"/></g></g></svg>