<?xml version='1.0' encoding='UTF-8'?>
<svg xmlns:xlink="http://www.w3.org/1999/xlink" xmlns="http://www.w3.org/2000/svg" version="1.1" width="60px" height="60px" viewBox="0.0 0.0 60.0 60.0"><defs><g id="c1"><path fill="#000000" fill-opacity="0.00392156862745" d="M0.0 0.0 L60.0 0.0 60.0 60.0 0.0 60.0 0.0 0.0"/></g><g id="c2"><path fill="none" stroke="#000000" stroke-width="1.0" stroke-opacity="0.301960784314" d="M0.7 12.25 Q-0.45 9.75 0.75 8.25 1.2 7.6 2.15 7.15 2.8 6.7 3.8 6.35 L17.5 1.95 30.2 7.0 41.35 31.7 Q42.95 35.15 40.2 36.7 39.5 37.3 38.3 37.65 L25.5 41.8 25.45 41.75 24.55 42.0 11.85 37.0 0.7 12.25"/><path fill="#9d147b" stroke="none" d="M35.55 22.3 L31.5 13.2 29.75 9.2 16.95 4.25 5.5 7.85 Q1.65 9.1 3.35 12.8 L8.25 23.65 13.1 34.35 25.8 39.4 37.2 35.7 Q41.1 34.5 39.35 30.75 L35.55 22.3 M5.45 20.95 L1.35 11.8 Q0.4 9.65 1.1 8.3 1.45 7.65 2.15 7.15 2.8 6.7 3.8 6.35 L17.5 1.95 30.2 7.0 41.35 31.7 Q42.95 35.15 40.2 36.7 L38.9 37.25 25.2 41.65 12.5 36.65 5.45 20.95"/><path fill="#c47fad" stroke="none" d="M31.5 13.2 L35.55 22.3 39.35 30.75 Q41.1 34.5 37.2 35.7 L25.8 39.4 13.1 34.35 8.25 23.65 3.35 12.8 Q1.65 9.1 5.5 7.85 L16.95 4.25 29.75 9.2 31.5 13.2 M18.5 7.45 L9.1 10.55 9.55 11.6 Q9.8 12.8 9.15 13.6 8.4 14.45 7.1 14.4 L6.8 14.4 6.95 14.6 15.2 32.75 23.85 36.2 34.0 32.9 33.7 32.1 Q33.45 30.9 34.1 30.1 34.75 29.3 35.95 29.35 L35.8 29.0 27.75 10.95 18.5 7.45"/><path fill="#fcf2cf" stroke="none" d="M27.75 10.95 L35.8 29.0 35.95 29.35 Q34.75 29.3 34.1 30.1 33.45 30.9 33.7 32.1 L34.0 32.9 23.85 36.2 15.2 32.75 6.95 14.6 6.8 14.4 7.1 14.4 Q8.4 14.45 9.15 13.6 9.8 12.8 9.55 11.6 L9.1 10.55 18.5 7.45 27.75 10.95"/><path fill="#630a4c" stroke="none" d="M1.1 8.3 L0.75 8.25 Q1.2 7.6 2.15 7.15 1.45 7.65 1.1 8.3 M4.6 20.9 L5.45 20.95 12.5 36.65 11.55 36.25 11.25 35.55 4.6 20.9"/><path fill="#300525" stroke="none" d="M1.1 8.3 Q0.4 9.65 1.35 11.8 L5.45 20.95 4.6 20.9 0.7 12.25 Q-0.45 9.75 0.75 8.25 L1.1 8.3 M12.5 36.65 L25.2 41.65 38.9 37.25 40.2 36.7 Q39.5 37.3 38.3 37.65 L25.5 41.8 25.45 41.75 24.55 42.0 11.85 37.0 11.55 36.25 12.5 36.65"/><path fill="none" stroke="#bf9900" stroke-width="1.0" stroke-opacity="0.749019607843" d="M31.5 13.2 L35.55 22.3 M13.1 34.35 L8.25 23.65"/><path fill="none" stroke="#ffcc00" stroke-width="1.0" stroke-opacity="0.749019607843" d="M35.55 22.3 L39.35 30.75 Q41.1 34.5 37.2 35.7 L25.8 39.4 M8.25 23.65 L3.35 12.8 Q1.65 9.1 5.5 7.85 L16.95 4.25 29.75 9.2 31.5 13.2"/><path fill="none" stroke="#f0b92b" stroke-width="0.5" d="M27.75 10.95 L35.8 29.0 35.95 29.35 Q34.75 29.3 34.1 30.1 33.45 30.9 33.7 32.1 L34.0 32.9 23.85 36.2 15.2 32.75 6.95 14.6 6.8 14.4 7.1 14.4 Q8.4 14.45 9.15 13.6 9.8 12.8 9.55 11.6 L9.1 10.55 18.5 7.45"/><path fill="none" stroke="#000000" stroke-width="0.5" stroke-opacity="0.301960784314" d="M5.45 20.95 L1.35 11.8 Q0.4 9.65 1.1 8.3 M0.75 8.25 Q-0.45 9.75 0.7 12.25 L4.6 20.9 M5.45 20.95 L12.5 36.65 M25.2 41.65 L38.9 37.25 40.2 36.7 Q42.95 35.15 41.35 31.7 L30.2 7.0 M17.5 1.95 L3.8 6.35 Q2.8 6.7 2.15 7.15 1.45 7.65 1.1 8.3 M0.75 8.25 Q1.2 7.6 2.15 7.15 M11.25 35.55 L4.6 20.9 M25.5 41.8 L38.3 37.65 Q39.5 37.3 40.2 36.7"/><path fill="none" stroke="#ffcc00" stroke-width="0.5" stroke-opacity="0.749019607843" d="M18.5 7.45 L27.75 10.95"/><path fill="none" stroke="#f0b92b" stroke-width="1.0" stroke-opacity="0.749019607843" d="M25.8 39.4 L13.1 34.35"/><path fill="none" stroke="#432f2f" stroke-width="0.5" d="M12.5 36.65 L25.2 41.65"/></g><g id="c3"><path fill="#7fdbfe" stroke="none" d="M10.75 4.9 Q10.75 4.6 10.9 4.35 11.25 3.45 11.95 2.75 13.3 1.5 14.35 2.1 15.4 2.7 14.95 4.45 14.7 5.4 14.1 6.15 L13.75 6.5 Q13.1 7.15 12.35 7.35 L11.4 7.2 Q10.95 6.9 10.75 6.4 10.5 5.75 10.75 4.9 M7.5 5.9 Q7.0 5.85 6.6 5.5 6.05 5.0 5.8 4.15 L5.7 3.6 Q5.55 2.65 5.8 1.7 6.25 0.0 7.5 0.0 L7.6 0.0 Q8.85 0.0 9.3 1.7 9.55 2.65 9.4 3.6 L9.3 4.15 8.5 5.5 7.6 5.9 7.5 5.9 M4.35 4.9 Q4.6 5.75 4.35 6.4 L3.7 7.2 2.75 7.35 Q2.0 7.15 1.35 6.5 L1.0 6.15 Q0.4 5.4 0.15 4.45 -0.3 2.7 0.75 2.1 1.8 1.5 3.15 2.75 3.85 3.45 4.2 4.35 L4.35 4.9 M5.5 13.7 Q4.45 13.9 3.65 12.95 2.75 12.0 3.2 10.25 3.7 8.5 5.25 7.6 6.4 6.9 7.55 7.0 8.75 6.9 9.9 7.6 11.45 8.5 11.95 10.25 12.35 12.0 11.5 12.95 10.7 13.9 9.65 13.7 8.55 13.5 7.55 12.6 6.55 13.5 5.5 13.7"/></g><g id="c4"><g><use transform="matrix(1.0,0.0,0.0,1.0,0.0,0.0)" xlink:href="#c3"/></g></g><radialGradient gradientUnits="userSpaceOnUse" r="819.2" cx="0" cy="0" spreadMethod="pad" gradientTransform="matrix(0.0914459228516,0.0,0.0,0.0914459228516,0.6,3.4)" id="gradient1"><stop offset="0.0" stop-color="#ffffff"/><stop offset="1.0" stop-color="#ffffff" stop-opacity="0.0"/></radialGradient><g id="c5"><path stroke="none" fill="url(#gradient1)" d="M36.65 -54.65 Q60.05 -42.0 69.75 -17.95 80.55 8.9 68.0 34.1 55.45 59.35 26.8 68.2 -1.8 77.05 -29.7 64.3 -57.6 51.6 -68.45 24.75 -79.3 -2.05 -66.75 -27.25 L-66.7 -27.3 Q-54.1 -52.5 -25.5 -61.4 3.1 -70.2 31.0 -57.5 L36.65 -54.65"/></g><g id="c6"><g><use transform="matrix(1.0,0.0,0.0,1.0,0.0,0.0)" xlink:href="#c5"/></g></g><radialGradient gradientUnits="userSpaceOnUse" r="819.2" cx="0" cy="0" spreadMethod="pad" gradientTransform="matrix(0.209197998047,0.0,0.0,0.177108764648,67.15,107.2)" id="gradient2"><stop offset="0.356862745098" stop-color="#ffffff"/><stop offset="0.670588235294" stop-opacity="0.0"/></radialGradient><g id="c7"><path fill="none" stroke-linejoin="round" stroke-linecap="round" stroke="url(#gradient2)" stroke-width="0.5" d="M136.55 165.8 L68.6 106.0 68.4 106.0 118.25 201.5 M68.3 105.8 L68.35 105.8 68.3 105.8 68.3 105.85 68.4 106.0 68.3 106.0 86.55 211.5 M68.3 105.8 L68.3 105.85 68.3 106.0 68.15 105.95 18.25 151.55 M68.3 105.85 L68.25 105.85 68.3 106.0 50.0 193.2 M68.25 105.85 L68.15 105.95 0.05 97.7 M68.3 105.85 L68.25 105.8 68.25 105.85 M68.25 105.8 L68.2 105.7 0.0 45.7 M68.3 105.8 L68.25 105.75 68.25 105.8 M68.25 105.75 L68.2 105.7 18.25 10.05 M68.6 106.0 L68.35 105.8 118.25 60.15 M86.6 18.35 L68.3 105.8 M136.6 114.25 L68.6 106.0 M68.25 105.75 L49.95 0.05"/></g><g id="c8"><g><use transform="matrix(1.0,0.0,0.0,1.0,0.0,0.0)" xlink:href="#c7"/></g></g><g id="c9"><g><use transform="matrix(1.0,0.0,0.0,1.0,0.0,0.0)" xlink:href="#c2"/></g><g><use transform="matrix(0.238861083984,-0.0867004394531,0.10026550293,0.233917236328,34.25,31.15)" xlink:href="#c4"/></g><g><use transform="matrix(0.238861083984,-0.0867004394531,0.10026550293,0.233917236328,4.25,10.3)" xlink:href="#c4"/></g><g><use transform="matrix(0.141098022461,-0.0378112792969,0.111373901367,0.225646972656,20.25,20.65)" filter="url(#filter7)" xlink:href="#c6"/></g><g><use transform="matrix(-0.155029296875,0.0513153076172,0.0841827392578,0.147033691406,22.6,3.15)" filter="url(#filter8)" xlink:href="#c8"/></g></g><filter id="filter7"><feColorMatrix in="SourceGraphic" type="matrix" values="0.0 0.0 0.0 0.0 0.796875 0.0 0.0 0.0 0.0 0.59765625 0.0 0.0 0.0 0.0 0.19921875 0.0 0.0 0.0 1.0 0.0" result="cxform"/><feComposite operator="in" in2="SourceGraphic" result="color-xform"/></filter><filter id="filter8"><feColorMatrix in="SourceGraphic" type="matrix" values="0.0 0.0 0.0 0.0 0.99609375 0.0 0.0 0.0 0.0 0.99609375 0.0 0.0 0.0 0.0 0.99609375 0.0 0.0 0.0 1.0 0.0" result="cxform"/><feComposite operator="in" in2="SourceGraphic" result="color-xform"/></filter><radialGradient gradientUnits="userSpaceOnUse" r="819.2" cx="0" cy="0" spreadMethod="pad" gradientTransform="matrix(-0.0157165527344,0.000885009765625,-0.000640869140625,0.0110168457031,-0.35,-4.45)" id="gradient3"><stop offset="0.0" stop-color="#261e25"/><stop offset="1.0" stop-color="#171317"/></radialGradient><g id="c10"><path stroke="none" fill="url(#gradient3)" d="M6.8 4.9 L9.25 2.8 9.7 2.1 10.05 0.65 Q10.45 -2.05 9.1 -4.75 7.95 -7.45 0.65 -7.85 -6.3 -7.15 -8.9 -4.2 -11.45 -1.3 -8.85 3.7 -6.2 8.75 -0.75 7.65 4.65 6.6 6.8 4.9"/><path fill="none" stroke="#e7f0f0" stroke-width="0.5" stroke-opacity="0.301960784314" d="M6.8 4.9 L9.25 2.8 9.7 2.1 10.05 0.65 Q10.45 -2.05 9.1 -4.75 7.95 -7.45 0.65 -7.85 -6.3 -7.15 -8.9 -4.2 -11.45 -1.3 -8.85 3.7 -6.2 8.75 -0.75 7.65"/></g><g id="c11"><g><use transform="matrix(1.0,0.0,0.0,1.0,0.0,0.0)" xlink:href="#c10"/></g></g><g id="c12"><path fill="#130f12" stroke="none" d="M-5.5 0.35 Q-3.65 3.65 -3.5 8.3 -3.3 12.95 2.05 6.15 7.4 -0.7 7.25 -4.65 7.15 -8.6 5.55 -9.35 4.0 -10.15 1.0 -10.15 -2.05 -10.15 -4.55 -9.15 -7.0 -8.15 -7.2 -5.55 -7.35 -3.0 -5.5 0.35"/><path fill="none" stroke="#86eeee" stroke-width="0.5" stroke-opacity="0.301960784314" d="M-5.5 0.35 Q-3.65 3.65 -3.5 8.3 -3.3 12.95 2.05 6.15 7.4 -0.7 7.25 -4.65 7.15 -8.6 5.55 -9.35 4.0 -10.15 1.0 -10.15 -2.05 -10.15 -4.55 -9.15 -7.0 -8.15 -7.2 -5.55 -7.35 -3.0 -5.5 0.35"/></g><g id="c13"><g><use transform="matrix(1.0,0.0,0.0,1.0,0.0,0.0)" xlink:href="#c12"/></g></g><g id="c14"><path fill="#130f12" stroke="none" d="M-8.05 -2.05 L-6.55 6.3 Q3.2 9.5 7.35 3.2 L8.1 -7.4 Q0.85 -6.55 -2.85 -4.75 -6.8 -3.25 -8.05 -2.05"/><path fill="none" stroke="#e7f0f0" stroke-width="0.5" stroke-opacity="0.301960784314" d="M-8.05 -2.05 L-6.55 6.3 M7.35 3.2 L8.1 -7.4"/><path fill="#231c22" stroke="none" d="M6.5 -2.05 Q7.4 -4.6 6.7 -5.6 3.25 -7.2 -4.3 -2.3 -5.85 0.75 -1.8 1.45 -0.45 3.55 -0.9 5.85 5.0 6.05 6.5 2.25 L6.5 -2.05"/></g><g id="c15"><g><use transform="matrix(1.0,0.0,0.0,1.0,0.0,0.0)" xlink:href="#c14"/></g></g><g id="c16"><path fill="#261e25" stroke="none" d="M-4.15 0.15 Q-6.05 2.6 -6.7 6.2 6.4 7.4 6.65 3.15 4.95 2.45 3.65 0.3 L2.95 -1.25 2.35 -2.65 Q2.4 -1.0 -2.65 -1.55 -2.85 -0.95 -4.15 0.15 L-3.6 3.55 -3.35 4.25 -3.6 3.55 -4.15 0.15"/><path fill="#130f13" stroke="none" d="M-5.75 -5.85 L-4.15 0.15 Q-2.85 -0.95 -2.65 -1.55 2.4 -1.0 2.35 -2.65 L2.25 -3.05 Q-1.75 -8.0 -5.75 -5.85"/><path fill="none" stroke="#86eeee" stroke-width="0.5" stroke-opacity="0.301960784314" d="M-5.75 -5.85 L-4.15 0.15 Q-6.05 2.6 -6.7 6.2 M6.65 3.15 Q4.95 2.45 3.65 0.3 L2.95 -1.25 2.35 -2.65 2.25 -3.05 M-4.15 0.15 L-3.6 3.55 -3.35 4.25"/></g><g id="c17"><g><use transform="matrix(1.0,0.0,0.0,1.0,0.0,0.0)" xlink:href="#c16"/></g></g><g id="c18"><path fill="#342933" stroke="none" d="M5.95 11.4 Q1.6 5.85 1.5 -12.7 L1.3 -12.35 Q-1.95 -0.1 -0.3 12.4 2.85 13.15 5.95 11.4"/><path fill="#261e25" stroke="none" d="M1.3 -12.35 Q-5.25 1.45 -5.95 9.05 -3.0 11.7 -0.3 12.4 -1.95 -0.1 1.3 -12.35"/><path fill="none" stroke="#86eeee" stroke-width="0.5" stroke-opacity="0.301960784314" d="M5.95 11.4 Q1.6 5.85 1.5 -12.7 L1.3 -12.35 Q-5.25 1.45 -5.95 9.05"/></g><g id="c19"><g><use transform="matrix(1.0,0.0,0.0,1.0,0.0,0.0)" xlink:href="#c18"/></g></g><g id="c20"><path fill="#342933" stroke="none" d="M10.15 -5.8 Q9.1 -7.9 6.55 -9.75 L5.8 -10.4 Q0.85 -12.55 -3.15 -11.95 -5.8 -11.45 -7.35 -10.45 -8.0 -4.75 1.2 -4.2 7.65 -3.3 10.15 -5.8"/><path fill="#261e25" stroke="none" d="M-7.35 -10.45 Q-9.8 -9.35 -10.8 -6.3 -11.1 -0.1 -5.55 6.55 L0.05 9.05 1.15 9.4 7.95 11.25 10.8 12.1 Q8.15 8.5 8.9 4.45 L10.3 -2.0 Q10.85 -4.45 10.15 -5.8 7.65 -3.3 1.2 -4.2 -8.0 -4.75 -7.35 -10.45"/><path fill="none" stroke="#86eeee" stroke-width="0.5" stroke-opacity="0.301960784314" d="M10.15 -5.8 Q9.1 -7.9 6.55 -9.75 L5.8 -10.4 Q0.85 -12.55 -3.15 -11.95 -5.8 -11.45 -7.35 -10.45 -9.8 -9.35 -10.8 -6.3 -11.1 -0.1 -5.55 6.55 M0.05 9.05 L1.15 9.4 7.95 11.25 10.8 12.1 Q8.15 8.5 8.9 4.45 L10.3 -2.0 Q10.85 -4.45 10.15 -5.8"/><path fill="#ffccff" stroke="none" d="M8.1 -6.2 Q7.65 -7.1 6.45 -7.85 L3.7 -8.4 Q2.3 -8.4 1.65 -7.85 0.9 -7.1 1.35 -6.2 1.8 -5.3 3.15 -4.65 4.4 -3.95 5.8 -3.95 7.1 -3.95 7.95 -4.65 8.55 -5.3 8.1 -6.2 M2.9 -6.25 Q2.6 -6.75 3.1 -7.1 3.4 -7.5 4.2 -7.5 4.95 -7.5 5.65 -7.1 L6.65 -6.25 Q6.9 -5.75 6.45 -5.4 6.1 -5.05 5.35 -5.05 4.6 -5.05 3.9 -5.4 3.1 -5.75 2.9 -6.25"/></g><g id="c21"><g><use transform="matrix(1.0,0.0,0.0,1.0,0.0,0.0)" xlink:href="#c20"/></g></g><g id="c22"><path fill="#342933" stroke="none" d="M10.25 10.65 Q11.8 6.15 10.6 5.2 -2.2 -1.9 -11.1 -13.3 -2.2 4.35 10.25 10.65"/><path fill="#261e25" stroke="none" d="M10.25 10.65 Q-2.2 4.35 -11.1 -13.3 -5.5 8.9 1.9 13.25 7.65 12.75 10.25 10.65"/><path fill="none" stroke="#86eeee" stroke-width="0.5" stroke-opacity="0.301960784314" d="M-11.1 -13.3 Q-2.2 -1.9 10.6 5.2 M1.9 13.25 Q-5.5 8.9 -11.1 -13.3"/></g><g id="c23"><g><use transform="matrix(1.0,0.0,0.0,1.0,0.0,0.0)" xlink:href="#c22"/></g></g><g id="c24"><path fill="#a6ffb2" stroke="none" d="M-1.55 1.75 Q-1.25 -1.6 0.55 -3.0 2.25 -3.8 1.0 1.1 -0.45 4.7 -1.55 1.75"/><path fill="none" stroke="#ffffff" stroke-width="3.0" stroke-opacity="0.301960784314" d="M-1.55 1.75 Q-1.25 -1.6 0.55 -3.0 2.25 -3.8 1.0 1.1 -0.45 4.7 -1.55 1.75"/></g><g id="c25"><g><use transform="matrix(1.0,0.0,0.0,1.0,0.0,0.0)" xlink:href="#c24"/></g></g><g id="c26"><path fill="#a6ffb2" stroke="none" d="M3.0 1.9 Q3.7 -1.45 -0.1 -2.95 -3.9 -3.8 -2.9 1.1 -0.85 4.75 3.0 1.9"/><path fill="none" stroke="#ffffff" stroke-width="3.0" stroke-opacity="0.301960784314" d="M3.0 1.9 Q3.7 -1.45 -0.1 -2.95 -3.9 -3.8 -2.9 1.1 -0.85 4.75 3.0 1.9"/></g><g id="c27"><g><use transform="matrix(1.0,0.0,0.0,1.0,0.0,0.0)" xlink:href="#c26"/></g></g><g id="c28"><path fill="#130f12" stroke="none" d="M-3.2 -6.6 L3.0 -2.4 3.2 6.55 -3.0 2.35 -3.2 -6.6"/><path fill="none" stroke="#86eeee" stroke-width="0.5" stroke-opacity="0.301960784314" d="M-3.2 -6.6 L3.0 -2.4 3.2 6.55 -3.0 2.35 -3.2 -6.6"/></g><g id="c29"><g><use transform="matrix(1.0,0.0,0.0,1.0,0.0,0.0)" xlink:href="#c28"/></g></g><g id="c30"><path fill="#130f12" stroke="none" d="M2.8 -3.75 L-5.5 -6.05 -2.7 3.75 5.6 6.05 2.8 -3.75"/><path fill="none" stroke="#86eeee" stroke-width="0.5" stroke-opacity="0.301960784314" d="M2.8 -3.75 L-5.5 -6.05 -2.7 3.75 5.6 6.05 2.8 -3.75"/></g><g id="c31"><g><use transform="matrix(1.0,0.0,0.0,1.0,0.0,0.0)" xlink:href="#c30"/></g></g><g id="c32"><path fill="#130f12" stroke="none" d="M-2.8 -6.3 L5.6 -3.5 2.8 6.3 -5.6 3.5 -2.8 -6.3"/><path fill="none" stroke="#86eeee" stroke-width="0.5" stroke-opacity="0.301960784314" d="M-2.8 -6.3 L5.6 -3.5 2.8 6.3 -5.6 3.5 -2.8 -6.3"/></g><g id="c33"><g><use transform="matrix(1.0,0.0,0.0,1.0,0.0,0.0)" xlink:href="#c32"/></g></g><g id="c34"><path fill="#130f12" stroke="none" d="M-3.25 -6.1 L3.95 -3.7 3.2 6.0 -4.0 3.6 -3.25 -6.1"/><path fill="none" stroke="#86eeee" stroke-width="0.5" stroke-opacity="0.301960784314" d="M-3.25 -6.1 L3.95 -3.7 3.2 6.0 -4.0 3.6 -3.25 -6.1"/></g><g id="c35"><g><use transform="matrix(1.0,0.0,0.0,1.0,0.0,0.0)" xlink:href="#c34"/></g></g><g id="c36"><path fill="#130f12" stroke="none" d="M-2.1 -3.25 L3.0 -2.7 2.1 3.3 -3.0 2.75 -2.1 -3.25"/><path fill="none" stroke="#86eeee" stroke-width="0.5" stroke-opacity="0.301960784314" d="M-2.1 -3.25 L3.0 -2.7 2.1 3.3 -3.0 2.75 -2.1 -3.25"/></g><g id="c37"><g><use transform="matrix(1.0,0.0,0.0,1.0,0.0,0.0)" xlink:href="#c36"/></g></g><g id="c38"><path fill="#130f12" stroke="none" d="M-3.8 -5.25 L2.75 -3.05 3.8 5.25 -2.75 3.05 -3.8 -5.25"/><path fill="none" stroke="#86eeee" stroke-width="0.5" stroke-opacity="0.301960784314" d="M-3.8 -5.25 L2.75 -3.05 3.8 5.25 -2.75 3.05 -3.8 -5.25"/></g><g id="c39"><g><use transform="matrix(1.0,0.0,0.0,1.0,0.0,0.0)" xlink:href="#c38"/></g></g><g id="c40"><path fill="#130f12" stroke="none" d="M-3.2 -3.65 L4.15 -5.35 3.25 3.65 -4.1 5.35 -3.2 -3.65"/><path fill="none" stroke="#86eeee" stroke-width="0.5" stroke-opacity="0.301960784314" d="M-3.2 -3.65 L4.15 -5.35 3.25 3.65 -4.1 5.35 -3.2 -3.65"/><path fill="#ffccff" stroke="none" d="M-1.9 -0.15 Q-1.6 -1.25 -0.8 -2.15 0.05 -2.8 0.85 -2.65 1.65 -2.5 2.0 -1.65 2.4 -0.55 2.05 0.6 1.75 1.8 0.9 2.55 0.1 3.3 -0.7 3.15 -1.5 3.0 -1.95 2.05 -2.2 1.05 -1.9 -0.15 M1.15 0.35 Q1.35 -0.3 1.1 -0.8 L0.45 -1.45 Q0.0 -1.55 -0.4 -1.05 L-1.05 0.0 Q-1.25 0.65 -1.0 1.15 L-0.4 1.75 Q0.05 1.85 0.55 1.4 1.0 1.05 1.15 0.35"/></g><g id="c41"><g><use transform="matrix(1.0,0.0,0.0,1.0,0.0,0.0)" xlink:href="#c40"/></g></g><g id="c42"><path fill="#130f12" stroke="none" d="M2.75 -2.6 L-3.65 -5.0 -2.75 2.65 3.65 5.05 2.75 -2.6"/><path fill="none" stroke="#86eeee" stroke-width="0.5" stroke-opacity="0.301960784314" d="M2.75 -2.6 L-3.65 -5.0 -2.75 2.65 3.65 5.05 2.75 -2.6"/></g><g id="c43"><g><use transform="matrix(1.0,0.0,0.0,1.0,0.0,0.0)" xlink:href="#c42"/></g></g><g id="c44"><path fill="#130f12" stroke="none" d="M-2.3 -3.45 L2.55 -1.85 2.3 3.5 -2.55 1.9 -2.3 -3.45"/><path fill="none" stroke="#86eeee" stroke-width="0.5" stroke-opacity="0.301960784314" d="M-2.3 -3.45 L2.55 -1.85 2.3 3.5 -2.55 1.9 -2.3 -3.45"/></g><g id="c45"><g><use transform="matrix(1.0,0.0,0.0,1.0,0.0,0.0)" xlink:href="#c44"/></g></g><g id="c46"><path fill="#130f12" stroke="none" d="M5.0 -8.65 L3.95 5.65 -5.0 8.65 -3.95 -5.65 5.0 -8.65"/><path fill="none" stroke="#86eeee" stroke-width="0.5" stroke-opacity="0.301960784314" d="M5.0 -8.65 L-3.95 -5.65 -5.0 8.65 3.95 5.65 5.0 -8.65"/></g><g id="c47"><g><use transform="matrix(1.0,0.0,0.0,1.0,0.0,0.0)" xlink:href="#c46"/></g></g><g id="c48"><path fill="#130f12" stroke="none" d="M-2.3 -4.75 L3.05 -5.85 2.3 4.8 -3.05 5.9 -2.3 -4.75"/><path fill="none" stroke="#86eeee" stroke-width="0.5" stroke-opacity="0.301960784314" d="M-2.3 -4.75 L3.05 -5.85 2.3 4.8 -3.05 5.9 -2.3 -4.75"/></g><g id="c49"><g><use transform="matrix(1.0,0.0,0.0,1.0,0.0,0.0)" xlink:href="#c48"/></g></g><g id="c50"><path fill="#130f12" stroke="none" d="M5.2 -8.05 L4.5 5.8 -5.2 8.1 -4.5 -5.75 5.2 -8.05"/><path fill="none" stroke="#86eeee" stroke-width="0.5" stroke-opacity="0.301960784314" d="M5.2 -8.05 L4.5 5.8 -5.2 8.1 -4.5 -5.75 5.2 -8.05"/><path fill="#ffccff" stroke="none" d="M-1.75 -0.15 Q-1.5 -1.65 -0.7 -2.8 0.2 -3.7 1.0 -3.55 1.8 -3.4 2.1 -2.3 2.5 -0.95 2.2 0.6 1.85 2.15 1.0 3.1 0.15 4.15 -0.65 4.0 -1.45 3.85 -1.85 2.6 -2.1 1.4 -1.75 -0.15 M1.3 0.3 Q1.45 -0.55 1.2 -1.2 1.05 -1.9 0.6 -1.95 0.15 -2.05 -0.3 -1.45 L-0.9 -0.05 Q-1.15 0.8 -0.9 1.45 -0.75 2.15 -0.3 2.2 0.15 2.3 0.65 1.7 L1.3 0.3"/></g><g id="c51"><g><use transform="matrix(1.0,0.0,0.0,1.0,0.0,0.0)" xlink:href="#c50"/></g></g><g id="c52"><path fill="#130f12" stroke="none" d="M-2.15 -3.45 L2.6 -1.85 2.15 3.5 -2.6 1.9 -2.15 -3.45"/><path fill="none" stroke="#86eeee" stroke-width="0.5" stroke-opacity="0.301960784314" d="M-2.15 -3.45 L2.6 -1.85 2.15 3.5 -2.6 1.9 -2.15 -3.45"/></g><g id="c53"><g><use transform="matrix(1.0,0.0,0.0,1.0,0.0,0.0)" xlink:href="#c52"/></g></g><g id="c54"><path fill="#130f12" stroke="none" d="M-2.3 -4.75 L3.05 -5.85 2.3 4.8 -3.05 5.9 -2.3 -4.75"/><path fill="none" stroke="#86eeee" stroke-width="0.5" stroke-opacity="0.301960784314" d="M-2.3 -4.75 L3.05 -5.85 2.3 4.8 -3.05 5.9 -2.3 -4.75"/></g><g id="c55"><g><use transform="matrix(1.0,0.0,0.0,1.0,0.0,0.0)" xlink:href="#c54"/></g></g><g id="c56"><path fill="#130f12" stroke="none" d="M-2.3 -4.75 L3.05 -5.85 2.3 4.8 -3.05 5.9 -2.3 -4.75"/><path fill="none" stroke="#86eeee" stroke-width="0.5" stroke-opacity="0.301960784314" d="M-2.3 -4.75 L3.05 -5.85 2.3 4.8 -3.05 5.9 -2.3 -4.75"/></g><g id="c57"><g><use transform="matrix(1.0,0.0,0.0,1.0,0.0,0.0)" xlink:href="#c56"/></g></g><g id="c58"><path fill="#130f12" stroke="none" d="M-2.3 -4.75 L3.05 -5.85 2.3 4.8 -3.05 5.9 -2.3 -4.75"/><path fill="none" stroke="#86eeee" stroke-width="0.5" stroke-opacity="0.301960784314" d="M-2.3 -4.75 L3.05 -5.85 2.3 4.8 -3.05 5.9 -2.3 -4.75"/></g><g id="c59"><g><use transform="matrix(1.0,0.0,0.0,1.0,0.0,0.0)" xlink:href="#c58"/></g></g><g id="c60"><path fill="#130f12" stroke="none" d="M-3.75 -6.65 L4.7 -3.8 3.75 6.65 -4.7 3.8 -3.75 -6.65"/><path fill="none" stroke="#86eeee" stroke-width="0.5" stroke-opacity="0.301960784314" d="M-3.75 -6.65 L4.7 -3.8 3.75 6.65 -4.7 3.8 -3.75 -6.65"/></g><g id="c61"><g><use transform="matrix(1.0,0.0,0.0,1.0,0.0,0.0)" xlink:href="#c60"/></g></g><g id="c62"><path fill="#130f12" stroke="none" d="M-0.85 -5.65 L7.55 -2.85 0.85 5.65 -7.55 2.85 -0.85 -5.65"/><path fill="none" stroke="#86eeee" stroke-width="0.5" stroke-opacity="0.301960784314" d="M-0.85 -5.65 L7.55 -2.85 0.85 5.65 -7.55 2.85 -0.85 -5.65"/></g><g id="c63"><g><use transform="matrix(1.0,0.0,0.0,1.0,0.0,0.0)" xlink:href="#c62"/></g></g><g id="c64"><path fill="#130f12" stroke="none" d="M-2.15 -3.5 L2.6 -1.9 2.15 3.45 -2.6 1.85 -2.15 -3.5"/><path fill="none" stroke="#86eeee" stroke-width="0.5" stroke-opacity="0.301960784314" d="M-2.15 -3.5 L2.6 -1.9 2.15 3.45 -2.6 1.85 -2.15 -3.5"/></g><g id="c65"><g><use transform="matrix(1.0,0.0,0.0,1.0,0.0,0.0)" xlink:href="#c64"/></g></g><g id="c66"><path fill="#130f12" stroke="none" d="M5.2 -4.75 L4.5 8.65 -5.2 4.7 -4.5 -8.7 5.2 -4.75"/><path fill="none" stroke="#86eeee" stroke-width="0.5" stroke-opacity="0.301960784314" d="M5.2 -4.75 L4.5 8.65 -5.2 4.7 -4.5 -8.7 5.2 -4.75"/><path fill="#ffccff" stroke="none" d="M-1.75 -1.4 Q-1.5 -2.65 -0.7 -3.3 0.2 -3.6 1.0 -2.95 1.8 -2.25 2.1 -0.95 2.5 0.6 2.2 1.9 1.85 3.25 1.0 3.65 L-0.65 3.55 Q-1.45 2.9 -1.85 1.35 -2.1 0.0 -1.75 -1.4 M1.3 1.1 Q1.45 0.35 1.2 -0.4 L0.6 -1.6 -0.3 -1.65 Q-0.75 -1.5 -0.9 -0.7 -1.15 0.0 -0.9 0.8 -0.75 1.6 -0.3 2.0 L0.65 2.05 1.3 1.1"/></g><g id="c67"><g><use transform="matrix(1.0,0.0,0.0,1.0,0.0,0.0)" xlink:href="#c66"/></g></g><g id="c68"><path fill="#130f12" stroke="none" d="M1.4 -1.15 L4.1 4.0 -1.35 1.15 -4.05 -4.0 1.4 -1.15"/><path fill="none" stroke="#86eeee" stroke-width="0.5" stroke-opacity="0.301960784314" d="M1.4 -1.15 L4.1 4.0 -1.35 1.15 -4.05 -4.0 1.4 -1.15"/></g><g id="c69"><g><use transform="matrix(1.0,0.0,0.0,1.0,0.0,0.0)" xlink:href="#c68"/></g></g><g id="c70"><path fill="#130f12" stroke="none" d="M2.6 -6.65 L-3.2 -3.8 -2.55 6.65 3.25 3.8 2.6 -6.65"/><path fill="none" stroke="#86eeee" stroke-width="0.5" stroke-opacity="0.301960784314" d="M2.6 -6.65 L-3.2 -3.8 -2.55 6.65 3.25 3.8 2.6 -6.65"/></g><g id="c71"><g><use transform="matrix(1.0,0.0,0.0,1.0,0.0,0.0)" xlink:href="#c70"/></g></g><g id="c72"><path fill="#130f12" stroke="none" d="M1.5 -3.5 L-1.8 -1.9 -1.5 3.45 1.8 1.85 1.5 -3.5"/><path fill="none" stroke="#86eeee" stroke-width="0.5" stroke-opacity="0.301960784314" d="M1.5 -3.5 L-1.8 -1.9 -1.5 3.45 1.8 1.85 1.5 -3.5"/></g><g id="c73"><g><use transform="matrix(1.0,0.0,0.0,1.0,0.0,0.0)" xlink:href="#c72"/></g></g><g id="c74"><path fill="#130f12" stroke="none" d="M-2.3 -2.95 L2.6 -2.4 2.35 2.95 -2.55 2.4 -2.3 -2.95"/><path fill="none" stroke="#86eeee" stroke-width="0.5" stroke-opacity="0.301960784314" d="M-2.3 -2.95 L2.6 -2.4 2.35 2.95 -2.55 2.4 -2.3 -2.95"/></g><g id="c75"><g><use transform="matrix(1.0,0.0,0.0,1.0,0.0,0.0)" xlink:href="#c74"/></g></g><g id="c76"><path fill="#130f12" stroke="none" d="M3.7 5.25 L-2.8 3.05 -3.7 -5.25 2.8 -3.05 3.7 5.25"/><path fill="none" stroke="#86eeee" stroke-width="0.5" stroke-opacity="0.301960784314" d="M3.7 5.25 L-2.8 3.05 -3.7 -5.25 2.8 -3.05 3.7 5.25"/><path fill="#ffccff" stroke="none" d="M-1.15 1.15 L-1.45 -1.65 0.9 -0.9 1.2 1.9 -1.15 1.15 M1.55 -1.55 L-2.35 -2.8 -1.85 1.85 2.05 3.1 1.55 -1.55"/></g><g id="c77"><g><use transform="matrix(1.0,0.0,0.0,1.0,0.0,0.0)" xlink:href="#c76"/></g></g><g id="c78"><path fill="#130f12" stroke="none" d="M7.05 6.0 L-5.4 10.5 -7.0 -5.95 5.4 -10.5 7.05 6.0"/><path fill="none" stroke="#86eeee" stroke-width="0.5" stroke-opacity="0.301960784314" d="M7.05 6.0 L-5.4 10.5 -7.0 -5.95 5.4 -10.5 7.05 6.0"/><path fill="#ffccff" stroke="none" d="M3.35 2.85 L-1.9 5.15 0.2 -2.6 3.35 2.85 M5.05 3.55 L-0.15 -5.45 -3.55 7.35 5.05 3.55"/></g><g id="c79"><g><use transform="matrix(1.0,0.0,0.0,1.0,0.0,0.0)" xlink:href="#c78"/></g></g><g id="c80"><g><use transform="matrix(1.0,0.0,0.0,1.0,29.5,54.15)" xlink:href="#c11"/></g><g><use transform="matrix(1.0,0.0,0.0,1.0,31.2,71.6)" xlink:href="#c13"/></g><g><use transform="matrix(1.0,0.0,0.0,1.0,31.25,62.7)" xlink:href="#c15"/></g><g><use transform="matrix(1.0,0.0,0.0,1.0,28.95,44.4)" xlink:href="#c17"/></g><g><use transform="matrix(1.0,0.0,0.0,1.0,30.15,12.7)" xlink:href="#c19"/></g><g><use transform="matrix(1.0,0.0,0.0,1.0,28.9,33.05)" xlink:href="#c21"/></g><g><use transform="matrix(1.0,0.0,0.0,1.0,17.3,18.0)" xlink:href="#c23"/></g><g><use transform="matrix(1.0,0.0,0.0,1.0,37.4,34.05)" xlink:href="#c25"/></g><g><use transform="matrix(1.0,0.0,0.0,1.0,29.15,36.05)" xlink:href="#c27"/></g><g><use transform="matrix(1.0,0.0,0.0,1.0,46.8,48.4)" xlink:href="#c29"/></g><g><use transform="matrix(1.0,0.0,0.0,1.0,42.45,24.05)" xlink:href="#c31"/></g><g><use transform="matrix(1.0,0.0,0.0,1.0,8.55,32.9)" xlink:href="#c33"/></g><g><use transform="matrix(1.0,0.0,0.0,1.0,6.8,27.0)" xlink:href="#c35"/></g><g><use transform="matrix(1.0,0.0,0.0,1.0,16.9,79.05)" xlink:href="#c37"/></g><g><use transform="matrix(1.0,0.0,0.0,1.0,17.35,68.05)" xlink:href="#c39"/></g><g><use transform="matrix(1.0,0.0,0.0,1.0,30.25,83.4)" xlink:href="#c41"/></g><g><use transform="matrix(1.0,0.0,0.0,1.0,21.0,90.9)" xlink:href="#c43"/></g><g><use transform="matrix(1.0,0.0,0.0,1.0,21.35,57.1)" xlink:href="#c45"/></g><g><use transform="matrix(1.0,0.0,0.0,1.0,42.15,69.65)" xlink:href="#c47"/></g><g><use transform="matrix(1.0,0.0,0.0,1.0,33.6,98.3)" xlink:href="#c49"/></g><g><use transform="matrix(1.0,0.0,0.0,1.0,34.7,58.7)" xlink:href="#c51"/></g><g><use transform="matrix(1.0,0.0,0.0,1.0,24.15,96.35)" xlink:href="#c53"/></g><g><use transform="matrix(1.0,0.0,0.0,1.0,30.95,105.7)" xlink:href="#c55"/></g><g><use transform="matrix(1.0,0.0,0.0,1.0,29.85,67.6)" xlink:href="#c57"/></g><g><use transform="matrix(1.0,0.0,0.0,1.0,45.0,76.45)" xlink:href="#c59"/></g><g><use transform="matrix(1.0,0.0,0.0,1.0,4.7,59.65)" xlink:href="#c61"/></g><g><use transform="matrix(1.0,0.0,0.0,1.0,19.5,7.35)" xlink:href="#c63"/></g><g><use transform="matrix(1.0,0.0,0.0,1.0,9.05,55.75)" xlink:href="#c65"/></g><g><use transform="matrix(1.0,0.0,0.0,1.0,19.1,41.9)" xlink:href="#c67"/></g><g><use transform="matrix(1.0,0.0,0.0,1.0,38.3,9.2)" xlink:href="#c69"/></g><g><use transform="matrix(1.0,0.0,0.0,1.0,56.4,39.6)" xlink:href="#c71"/></g><g><use transform="matrix(1.0,0.0,0.0,1.0,53.4,35.7)" xlink:href="#c73"/></g><g><use transform="matrix(1.0,0.0,0.0,1.0,33.4,43.35)" xlink:href="#c75"/></g><g><use transform="matrix(1.0,0.0,0.0,1.0,9.0,50.5)" xlink:href="#c77"/></g><g><use transform="matrix(1.0,0.0,0.0,1.0,52.6,57.6)" xlink:href="#c79"/></g></g><filter id="filter82"><feColorMatrix in="SourceGraphic" type="matrix" values="1.0 0.0 0.0 0.0 0.0 0.0 1.0 0.0 0.0 0.0 0.0 0.0 1.0 0.0 0.0 0.0 0.0 0.0 0.23046875 0.0" result="cxform"/><feComposite operator="in" in2="SourceGraphic" result="color-xform"/></filter></defs><g><g><use transform="matrix(1.0,0.0,0.0,1.0,0.0,0.0)" xlink:href="#c1"/></g><g><use transform="matrix(1.15496826172,0.0,0.0,1.15496826172,5.85,4.8)" xlink:href="#c9"/></g><g><use transform="matrix(0.270660400391,-0.0931091308594,0.0931091308594,0.270660400391,17.5,17.5)" xlink:href="#c80"/></g><g><use transform="matrix(0.162948608398,-0.0436706542969,0.128631591797,0.260604858398,30.0,28.7)" filter="url(#filter82)" xlink:href="#c6"/></g></g></svg>