<?xml version='1.0' encoding='UTF-8'?>
<svg xmlns:xlink="http://www.w3.org/1999/xlink" xmlns="http://www.w3.org/2000/svg" version="1.1" width="60px" height="60px" viewBox="0.0 0.0 60.0 60.0"><defs><g id="c1"><path fill="#000000" fill-opacity="0.00392156862745" d="M0.0 0.0 L60.0 0.0 60.0 60.0 0.0 60.0 0.0 0.0"/></g><g id="c2"><path fill="#006699" stroke="none" d="M31.5 39.85 L19.8 43.65 Q17.15 44.45 15.5 43.3 14.35 42.55 13.65 40.9 L1.7 14.45 1.6 14.3 1.2 13.45 -0.75 9.05 Q-2.05 6.2 -0.3 4.75 0.3 4.25 1.2 3.9 L5.5 2.25 Q8.95 0.95 10.65 4.15 L22.3 0.4 Q26.55 -1.0 28.45 3.1 L40.55 29.95 40.9 30.7 42.95 35.15 Q43.95 37.35 43.15 38.7 42.5 39.7 40.95 40.25 L36.65 41.8 35.1 42.2 Q32.75 42.3 31.5 39.85"/><path fill="none" stroke="#000000" stroke-width="1.0" stroke-opacity="0.298039215686" d="M31.5 39.85 L19.8 43.65 Q17.15 44.45 15.5 43.3 14.35 42.55 13.65 40.9 L1.7 14.45 1.6 14.3 1.2 13.45 -0.75 9.05 Q-2.05 6.2 -0.3 4.75 0.3 4.25 1.2 3.9 L5.5 2.25 Q8.95 0.95 10.65 4.15 L22.3 0.4 Q26.55 -1.0 28.45 3.1 L40.55 29.95 40.9 30.7 42.95 35.15 Q43.95 37.35 43.15 38.7 42.5 39.7 40.95 40.25 L36.65 41.8 35.1 42.2 Q32.75 42.3 31.5 39.85"/><path fill="#300525" stroke="none" d="M0.75 8.25 L29.8 9.75 25.55 0.9 Q26.9 1.6 27.8 3.55 L40.7 32.15 Q42.6 36.3 38.3 37.65 L23.3 42.5 13.15 21.4 4.6 20.9 0.7 12.25 Q-0.45 9.75 0.75 8.25 M20.1 43.55 L19.8 43.65 Q17.15 44.45 15.5 43.3 L20.1 43.55"/><path fill="#630a4c" stroke="none" d="M25.55 0.9 L29.8 9.75 0.75 8.25 Q1.45 7.3 3.1 6.75 L21.65 0.8 25.55 0.9 M4.6 20.9 L13.15 21.4 23.3 42.5 20.1 43.55 15.5 43.3 Q14.35 42.55 13.65 40.9 L4.6 20.9"/><path fill="none" stroke="#000000" stroke-width="0.5" stroke-opacity="0.301960784314" d="M0.75 8.25 Q-0.45 9.75 0.7 12.25 L4.6 20.9 M23.3 42.5 L38.3 37.65 Q42.6 36.3 40.7 32.15 L27.8 3.55 Q26.9 1.6 25.55 0.9 L21.65 0.8 3.1 6.75 Q1.45 7.3 0.75 8.25 M20.1 43.55 L19.8 43.65 Q17.15 44.45 15.5 43.3 14.35 42.55 13.65 40.9 L4.6 20.9 M20.1 43.55 L23.3 42.5"/><path fill="#9d147b" stroke="none" d="M14.2 40.5 L1.35 11.8 Q-0.5 7.75 3.8 6.35 L22.3 0.4 Q26.55 -1.0 28.45 3.1 L41.35 31.7 Q43.25 35.85 38.9 37.25 L20.4 43.2 Q16.1 44.55 14.2 40.5"/><path fill="none" stroke="#000000" stroke-width="0.5" stroke-opacity="0.301960784314" d="M14.2 40.5 L1.35 11.8 Q-0.5 7.75 3.8 6.35 L22.3 0.4 Q26.55 -1.0 28.45 3.1 L41.35 31.7 Q43.25 35.85 38.9 37.25 L20.4 43.2 Q16.1 44.55 14.2 40.5"/><path fill="#9d147b" stroke="none" d="M31.4 39.65 L31.3 39.45 31.25 39.4 29.25 34.95 Q27.55 31.2 31.25 29.85 L35.6 28.25 Q38.8 27.1 40.5 29.85 L40.9 30.7 42.95 35.15 Q43.95 37.35 43.15 38.7 42.5 39.45 41.2 39.9 L36.9 41.45 34.85 41.85 Q32.9 41.7 31.75 39.5 L31.4 39.65"/><path fill="#630a4c" stroke="none" d="M43.15 38.7 Q42.5 39.7 40.95 40.25 L36.65 41.8 35.1 42.2 Q32.75 42.3 31.45 39.8 L31.4 39.65 31.75 39.5 Q32.9 41.7 34.85 41.85 L36.9 41.45 41.2 39.9 Q42.5 39.45 43.15 38.7"/><path fill="none" stroke="#003333" stroke-width="0.5" stroke-opacity="0.509803921569" d="M43.15 38.7 Q42.5 39.7 40.95 40.25 L36.65 41.8 35.1 42.2 Q32.75 42.3 31.45 39.8 L31.4 39.65 30.3 40.0 31.4 39.65 M40.5 29.85 L40.9 30.7 42.95 35.15 Q43.95 37.35 43.15 38.7 42.5 39.45 41.2 39.9 L36.9 41.45 34.85 41.85 Q32.9 41.7 31.75 39.5 L31.4 39.65"/><path fill="#9d147b" stroke="none" d="M10.65 4.2 L10.85 4.6 12.85 9.05 Q14.5 12.8 10.8 14.15 L6.5 15.8 Q4.5 16.6 3.1 15.8 L1.75 12.85 -0.2 8.45 Q-1.25 6.15 -0.3 4.75 0.3 4.25 1.2 3.9 L5.5 2.25 Q9.0 0.95 10.65 4.2"/><path fill="#300525" stroke="none" d="M-0.3 4.75 Q-1.25 6.15 -0.2 8.45 L1.75 12.85 3.1 15.8 Q2.25 15.35 1.6 14.3 L1.2 13.45 -0.75 9.05 Q-2.05 6.2 -0.3 4.75"/><path fill="none" stroke="#003333" stroke-width="0.5" stroke-opacity="0.509803921569" d="M3.1 15.8 L6.45 23.15 M-0.3 4.75 Q0.3 4.25 1.2 3.9 L5.5 2.25 Q9.0 0.95 10.65 4.2 M3.1 15.8 L1.75 12.85 -0.2 8.45 Q-1.25 6.15 -0.3 4.75 -2.05 6.2 -0.75 9.05 L1.2 13.45 1.6 14.3"/><path fill="#fcf2cf" stroke="none" d="M9.15 13.6 Q9.8 12.8 9.55 11.6 L9.1 10.55 22.05 6.35 Q24.9 5.45 26.25 7.85 L26.5 8.3 35.8 29.0 35.95 29.35 Q34.75 29.3 34.1 30.1 33.45 30.9 33.7 32.1 L34.0 32.9 20.65 37.2 Q18.8 37.8 17.65 37.0 16.8 36.4 16.3 35.2 L6.95 14.6 6.8 14.4 7.1 14.4 Q8.4 14.45 9.15 13.6"/><path fill="#c47fad" stroke="none" d="M9.15 13.6 Q8.4 14.45 7.1 14.4 L6.8 14.4 6.95 14.6 16.3 35.2 Q16.8 36.4 17.65 37.0 18.8 37.8 20.65 37.2 L34.0 32.9 33.7 32.1 Q33.45 30.9 34.1 30.1 34.75 29.3 35.95 29.35 L35.8 29.0 26.5 8.3 26.25 7.85 Q24.9 5.45 22.05 6.35 L9.1 10.55 9.55 11.6 Q9.8 12.8 9.15 13.6 M28.25 6.1 L35.55 22.3 39.35 30.75 Q41.1 34.5 37.2 35.7 L20.45 41.1 Q16.8 42.25 15.2 39.0 L15.0 38.6 8.25 23.65 3.35 12.8 Q1.65 9.1 5.5 7.85 L22.25 2.5 Q26.05 1.25 27.75 4.95 L28.25 6.1"/><path fill="none" stroke="#ffcc00" stroke-width="1.0" stroke-opacity="0.749019607843" d="M35.55 22.3 L39.35 30.75 Q41.1 34.5 37.2 35.7 L20.45 41.1 Q16.8 42.25 15.2 39.0 L15.0 38.6 M8.25 23.65 L3.35 12.8 Q1.65 9.1 5.5 7.85 L22.25 2.5 Q26.05 1.25 27.75 4.95 L28.25 6.1"/><path fill="none" stroke="#bf9900" stroke-width="1.0" stroke-opacity="0.749019607843" d="M28.25 6.1 L35.55 22.3 M15.0 38.6 L8.25 23.65"/><path fill="none" stroke="#f0b92b" stroke-width="0.5" d="M9.15 13.6 Q9.8 12.8 9.55 11.6 L9.1 10.55 22.05 6.35 Q24.9 5.45 26.25 7.85 L26.5 8.3 35.8 29.0 35.95 29.35 Q34.75 29.3 34.1 30.1 33.45 30.9 33.7 32.1 L34.0 32.9 20.65 37.2 Q18.8 37.8 17.65 37.0 16.8 36.4 16.3 35.2 L6.95 14.6 6.8 14.4 7.1 14.4 Q8.4 14.45 9.15 13.6"/></g><g id="c3"><path fill="#7fdbfe" stroke="none" d="M10.75 4.9 Q10.75 4.6 10.9 4.35 11.25 3.45 11.95 2.75 13.3 1.5 14.35 2.1 15.4 2.7 14.95 4.45 14.7 5.4 14.1 6.15 L13.75 6.5 Q13.1 7.15 12.35 7.35 L11.4 7.2 Q10.95 6.9 10.75 6.4 10.5 5.75 10.75 4.9 M7.5 5.9 Q7.0 5.85 6.6 5.5 6.05 5.0 5.8 4.15 L5.7 3.6 Q5.55 2.65 5.8 1.7 6.25 0.0 7.5 0.0 L7.6 0.0 Q8.85 0.0 9.3 1.7 9.55 2.65 9.4 3.6 L9.3 4.15 8.5 5.5 7.6 5.9 7.5 5.9 M4.35 4.9 Q4.6 5.75 4.35 6.4 L3.7 7.2 2.75 7.35 Q2.0 7.15 1.35 6.5 L1.0 6.15 Q0.4 5.4 0.15 4.45 -0.3 2.7 0.75 2.1 1.8 1.5 3.15 2.75 3.85 3.45 4.2 4.35 L4.35 4.9 M5.5 13.7 Q4.45 13.9 3.65 12.95 2.75 12.0 3.2 10.25 3.7 8.5 5.25 7.6 6.4 6.9 7.55 7.0 8.75 6.9 9.9 7.6 11.45 8.5 11.95 10.25 12.35 12.0 11.5 12.95 10.7 13.9 9.65 13.7 8.55 13.5 7.55 12.6 6.55 13.5 5.5 13.7"/></g><g id="c4"><g><use transform="matrix(1.0,0.0,0.0,1.0,0.0,0.0)" xlink:href="#c3"/></g></g><radialGradient gradientUnits="userSpaceOnUse" r="819.2" cx="0" cy="0" spreadMethod="pad" gradientTransform="matrix(0.0914459228516,0.0,0.0,0.0914459228516,0.6,3.4)" id="gradient1"><stop offset="0.0" stop-color="#ffffff"/><stop offset="1.0" stop-color="#ffffff" stop-opacity="0.0"/></radialGradient><g id="c5"><path stroke="none" fill="url(#gradient1)" d="M36.65 -54.65 Q60.05 -42.0 69.75 -17.95 80.55 8.9 68.0 34.1 55.45 59.35 26.8 68.2 -1.8 77.05 -29.7 64.3 -57.6 51.6 -68.45 24.75 -79.3 -2.05 -66.75 -27.25 L-66.7 -27.3 Q-54.1 -52.5 -25.5 -61.4 3.1 -70.2 31.0 -57.5 L36.65 -54.65"/></g><g id="c6"><g><use transform="matrix(1.0,0.0,0.0,1.0,0.0,0.0)" xlink:href="#c5"/></g></g><radialGradient gradientUnits="userSpaceOnUse" r="819.2" cx="0" cy="0" spreadMethod="pad" gradientTransform="matrix(0.209197998047,0.0,0.0,0.177108764648,67.15,107.2)" id="gradient2"><stop offset="0.356862745098" stop-color="#ffffff"/><stop offset="0.670588235294" stop-opacity="0.0"/></radialGradient><g id="c7"><path fill="none" stroke-linejoin="round" stroke-linecap="round" stroke="url(#gradient2)" stroke-width="0.5" d="M136.55 165.8 L68.6 106.0 68.4 106.0 118.25 201.5 M68.3 105.8 L68.35 105.8 68.3 105.8 68.3 105.85 68.4 106.0 68.3 106.0 86.55 211.5 M68.3 105.8 L68.3 105.85 68.3 106.0 68.15 105.95 18.25 151.55 M68.3 105.85 L68.25 105.85 68.3 106.0 50.0 193.2 M68.25 105.85 L68.15 105.95 0.05 97.7 M68.3 105.85 L68.25 105.8 68.25 105.85 M68.25 105.8 L68.2 105.7 0.0 45.7 M68.3 105.8 L68.25 105.75 68.25 105.8 M68.25 105.75 L68.2 105.7 18.25 10.05 M68.6 106.0 L68.35 105.8 118.25 60.15 M86.6 18.35 L68.3 105.8 M136.6 114.25 L68.6 106.0 M68.25 105.75 L49.95 0.05"/></g><g id="c8"><g><use transform="matrix(1.0,0.0,0.0,1.0,0.0,0.0)" xlink:href="#c7"/></g></g><g id="c9"><g><use transform="matrix(1.0,0.0,0.0,1.0,0.0,0.0)" xlink:href="#c2"/></g><g><use transform="matrix(0.238861083984,-0.0867004394531,0.10026550293,0.233917236328,34.25,31.15)" xlink:href="#c4"/></g><g><use transform="matrix(0.238861083984,-0.0867004394531,0.10026550293,0.233917236328,4.25,10.3)" xlink:href="#c4"/></g><g><use transform="matrix(0.141098022461,-0.0378112792969,0.111373901367,0.225646972656,20.25,20.65)" filter="url(#filter7)" xlink:href="#c6"/></g><g><use transform="matrix(-0.155029296875,0.0513153076172,0.0841827392578,0.147033691406,22.6,3.15)" filter="url(#filter8)" xlink:href="#c8"/></g></g><filter id="filter7"><feColorMatrix in="SourceGraphic" type="matrix" values="0.0 0.0 0.0 0.0 0.796875 0.0 0.0 0.0 0.0 0.59765625 0.0 0.0 0.0 0.0 0.19921875 0.0 0.0 0.0 1.0 0.0" result="cxform"/><feComposite operator="in" in2="SourceGraphic" result="color-xform"/></filter><filter id="filter8"><feColorMatrix in="SourceGraphic" type="matrix" values="0.0 0.0 0.0 0.0 0.99609375 0.0 0.0 0.0 0.0 0.99609375 0.0 0.0 0.0 0.0 0.99609375 0.0 0.0 0.0 1.0 0.0" result="cxform"/><feComposite operator="in" in2="SourceGraphic" result="color-xform"/></filter><g id="c10"><path fill="#000000" fill-opacity="0.2" d="M14.35 73.65 L113.65 69.25 122.95 76.1 Q88.35 91.8 63.25 113.8 26.7 89.8 -3.3 76.1 L14.35 73.65"/><path fill="none" stroke="#382510" stroke-width="0.5" stroke-opacity="0.2" d="M123.9 68.95 L88.2 90.0 Q77.3 98.55 65.6 103.2 L58.95 107.1 33.15 92.3 Q27.4 91.45 21.55 85.6 7.95 75.3 -4.75 71.4 L12.75 61.85 Q24.95 58.65 34.65 51.7 L41.35 45.1 Q43.7 42.9 46.4 39.2 L50.3 33.7 Q53.2 29.55 54.7 27.85 55.55 26.75 56.05 26.5 57.65 25.4 58.85 25.4 59.7 25.65 62.5 27.0 64.6 28.1 68.9 31.4 L78.9 39.6 79.3 40.1 Q82.7 43.15 89.45 51.55 L90.65 53.15 Q93.2 54.5 96.05 55.85 109.85 62.95 123.9 68.95"/></g><g id="c11"><path fill="#c2b9ab" stroke="none" d="M8.4 12.15 Q15.45 10.3 20.7 5.8 L33.8 15.45 Q15.9 16.55 8.4 12.15 M48.25 9.3 Q54.9 12.7 61.6 15.55 L60.75 16.1 60.65 16.15 61.6 15.55 60.65 16.15 Q44.1 18.4 36.8 16.1 39.05 12.05 48.25 9.3"/><path fill="#e2dccb" stroke="none" d="M59.55 16.8 L44.55 25.6 Q35.45 23.1 28.05 20.35 24.05 24.0 33.7 31.95 L30.55 33.8 18.2 26.75 24.05 20.75 Q27.3 17.35 12.6 23.5 6.1 18.6 0.0 16.7 L8.4 12.15 Q15.9 16.55 33.8 15.45 L20.7 5.8 21.15 5.45 31.35 0.0 Q39.8 5.0 48.25 9.3 39.05 12.05 36.8 16.1 44.1 18.4 60.65 16.15 L60.75 16.1 59.55 16.8 60.65 16.15 59.55 16.8"/><path fill="#dbd1bd" stroke="none" d="M44.55 25.6 Q39.3 29.7 33.7 31.95 24.05 24.0 28.05 20.35 35.45 23.1 44.55 25.6 M18.2 26.75 Q15.4 26.3 12.6 23.5 27.3 17.35 24.05 20.75 L18.2 26.75"/><path fill="none" stroke="#000000" stroke-width="1.0" stroke-opacity="0.301960784314" d="M59.55 16.8 L44.55 25.6 Q39.3 29.7 33.7 31.95 L30.55 33.8 18.2 26.75 Q15.4 26.3 12.6 23.5 6.1 18.6 0.0 16.7 L8.4 12.15 Q15.45 10.3 20.7 5.8 L21.15 5.45 31.35 0.0 Q39.8 5.0 48.25 9.3 54.9 12.7 61.6 15.55 L60.65 16.15 M59.55 16.8 L60.65 16.15"/><path fill="#382510" fill-opacity="0.301960784314" d="M49.95 10.65 Q56.3 13.1 56.3 16.45 56.3 19.85 49.95 22.2 43.65 24.65 34.7 24.65 25.8 24.65 19.5 22.2 13.15 19.85 13.15 16.45 13.15 13.1 19.5 10.65 25.8 8.3 34.7 8.3 43.65 8.3 49.95 10.65"/></g><g id="c12"><g><use transform="matrix(1.0,0.0,0.0,1.0,0.0,0.0)" xlink:href="#c11"/></g></g><g id="c13"><path fill="#75754f" stroke="none" d="M85.6 60.05 Q84.5 64.85 94.45 68.05 102.75 68.9 113.4 65.7 L114.55 64.2 Q107.75 66.45 102.4 67.0 89.4 68.35 85.6 60.05"/><path fill="#a4a475" stroke="none" d="M96.35 62.8 L90.05 62.4 Q87.4 61.55 85.35 59.1 L85.6 60.05 Q89.4 68.35 102.4 67.0 103.4 65.8 102.55 64.95 L96.45 65.4 101.55 64.3 Q99.95 63.35 96.35 62.8"/><path fill="#999966" stroke="none" d="M114.55 64.2 L111.15 62.2 110.1 61.1 107.55 59.75 Q101.65 62.4 96.35 62.8 99.95 63.35 101.55 64.3 L96.45 65.4 102.55 64.95 Q103.4 65.8 102.4 67.0 107.75 66.45 114.55 64.2"/><path fill="none" stroke="#000000" stroke-width="0.5" stroke-opacity="0.301960784314" d="M96.35 62.8 L90.05 62.4 Q87.4 61.55 85.35 59.1 L85.6 60.05 Q84.5 64.85 94.45 68.05 102.75 68.9 113.4 65.7 L114.55 64.2 111.15 62.2 110.1 61.1 107.55 59.75 Q101.65 62.4 96.35 62.8"/><path fill="#75754f" stroke="none" d="M34.45 59.25 Q30.65 57.35 31.6 50.1 33.65 45.0 39.4 40.7 L40.9 40.8 Q37.05 43.5 34.95 46.15 29.75 52.7 34.45 59.25"/><path fill="#a4a475" stroke="none" d="M36.0 51.8 Q34.75 53.45 34.25 55.5 34.0 57.45 35.1 59.9 L34.45 59.25 Q29.75 52.7 34.95 46.15 36.1 46.25 36.45 47.15 L34.2 50.35 36.6 48.05 Q36.75 49.45 36.0 51.8"/><path fill="#999966" stroke="none" d="M40.9 40.8 L41.25 43.8 41.65 44.95 41.8 47.1 Q38.0 49.0 36.0 51.8 36.75 49.45 36.6 48.05 L34.2 50.35 36.45 47.15 Q36.1 46.25 34.95 46.15 37.05 43.5 40.9 40.8"/><path fill="none" stroke="#000000" stroke-width="0.5" stroke-opacity="0.301960784314" d="M36.0 51.8 Q34.75 53.45 34.25 55.5 34.0 57.45 35.1 59.9 L34.45 59.25 Q30.65 57.35 31.6 50.1 33.65 45.0 39.4 40.7 L40.9 40.8 41.25 43.8 41.65 44.95 41.8 47.1 Q38.0 49.0 36.0 51.8"/><path fill="#e2dccb" stroke="none" d="M35.05 75.65 L34.8 74.9 32.85 75.15 29.05 75.75 Q24.4 76.85 21.95 76.5 18.15 76.15 17.45 75.65 16.35 75.05 17.9 72.85 18.9 71.35 22.8 68.65 25.4 67.1 24.05 66.6 21.7 66.0 18.9 64.75 L19.25 63.3 Q20.25 61.7 22.8 60.6 25.85 59.4 30.9 55.2 L32.85 53.75 41.4 45.7 Q43.7 43.5 46.4 39.8 L50.2 34.3 54.75 28.45 55.95 27.1 Q57.65 26.0 58.75 26.0 59.75 26.25 62.45 27.6 64.65 28.7 68.8 32.0 L78.8 40.2 79.3 40.65 Q82.75 43.75 89.45 52.15 L93.25 57.05 92.75 57.8 Q92.05 58.4 90.8 57.4 L88.5 55.7 Q81.65 47.25 75.9 42.0 64.4 31.35 65.25 43.95 L65.35 43.95 66.35 54.75 65.6 57.8 Q65.25 59.85 64.25 61.7 L61.6 66.1 Q56.95 72.1 49.35 74.3 L41.75 74.9 37.25 74.65 36.0 74.9 35.05 75.65"/><path fill="#b9ae9a" stroke="none" d="M93.25 57.05 Q93.75 57.4 93.85 57.8 L97.05 61.7 97.4 62.05 101.1 64.5 Q104.0 66.25 105.95 67.8 108.8 70.0 109.25 72.1 109.65 73.95 107.45 75.15 105.95 76.0 102.65 76.4 99.25 76.6 97.4 77.5 95.95 78.1 93.5 79.9 91.65 81.25 89.1 81.75 86.65 82.25 78.8 81.65 L68.05 81.15 55.95 82.35 44.2 82.75 Q40.2 82.15 36.25 81.0 33.8 80.3 32.85 79.7 L32.0 78.8 Q31.75 77.85 32.7 77.1 L32.85 77.1 35.05 75.65 36.0 74.9 37.25 74.65 41.75 74.9 49.35 74.3 Q56.95 72.1 61.6 66.1 L64.25 61.7 Q65.25 59.85 65.6 57.8 L66.35 54.75 65.35 43.95 65.25 43.95 Q64.4 31.35 75.9 42.0 81.65 47.25 88.5 55.7 L90.8 57.4 Q92.05 58.4 92.75 57.8 L93.25 57.05"/><path fill="#6a6a6a" fill-opacity="0.250980392157" d="M48.75 34.8 Q48.1 33.6 49.1 33.1 49.35 32.95 49.6 32.95 49.7 31.85 50.55 30.9 L51.45 30.15 Q50.95 29.15 52.4 28.45 53.65 27.85 54.5 28.05 L54.25 27.85 Q52.9 25.4 54.95 23.9 57.05 22.45 58.25 24.9 59.5 27.35 57.65 28.8 56.45 29.65 55.45 29.15 56.05 30.65 54.85 31.5 L54.25 31.85 Q55.45 33.95 53.0 35.3 50.8 36.4 49.95 35.3 49.2 35.8 48.75 34.8 M43.5 45.2 Q41.65 46.15 41.15 44.85 40.55 43.6 41.75 42.15 42.4 41.4 43.1 41.65 42.5 40.55 43.85 39.8 45.05 39.2 45.9 39.8 L45.7 39.45 Q44.95 38.1 46.15 37.25 47.25 36.4 47.9 37.75 48.6 39.2 47.5 39.95 46.9 40.55 46.3 40.2 L46.4 40.3 Q47.25 41.75 46.05 42.65 45.2 43.1 44.2 42.65 45.2 44.2 43.5 45.2 M62.55 24.4 Q63.3 26.1 61.8 27.2 60.35 28.45 59.4 26.6 58.5 24.65 60.1 23.65 61.8 22.7 62.55 24.4 M65.5 27.7 L65.75 28.05 Q66.85 27.95 67.55 29.05 67.95 29.65 67.95 30.25 L68.3 29.9 Q70.25 28.45 71.5 30.9 72.2 32.25 71.85 33.2 L72.45 32.7 Q74.15 31.75 74.9 33.45 75.4 34.55 75.05 35.4 76.25 33.95 77.45 35.8 78.8 37.6 76.85 38.7 74.9 39.8 74.3 38.35 73.8 37.25 74.55 36.0 L74.15 36.25 Q72.7 37.5 71.75 35.65 71.35 34.7 71.5 33.95 L70.75 34.7 Q68.9 36.0 67.55 33.7 66.85 32.5 67.1 31.6 66.0 32.25 64.75 31.25 L64.65 31.25 Q62.2 32.6 61.45 30.9 60.7 29.15 62.3 27.2 63.9 25.4 65.5 27.7 M80.65 40.2 Q81.4 41.3 80.4 41.9 79.45 42.65 78.45 41.5 77.35 40.55 78.7 39.8 80.05 39.1 80.65 40.2 M24.4 62.2 Q23.05 63.15 21.35 61.6 19.75 60.0 21.85 58.9 22.55 58.5 23.2 58.5 23.3 57.55 24.15 56.95 25.25 56.2 26.1 56.55 26.35 55.6 27.45 55.0 29.4 53.9 30.5 55.45 30.25 54.5 31.0 53.4 30.65 52.15 32.35 51.2 34.9 49.85 36.25 51.9 37.5 54.1 35.65 55.35 34.8 55.95 33.95 55.85 L33.2 56.3 31.0 56.45 Q31.6 58.5 29.8 60.1 28.45 61.1 27.45 60.5 L26.6 61.45 24.9 61.8 24.4 62.2 M25.5 65.25 Q26.35 67.1 25.0 68.05 23.55 69.05 22.7 67.35 L22.55 66.95 22.2 67.2 Q20.75 68.3 19.9 66.45 L19.9 66.35 Q18.15 66.85 17.55 65.5 16.95 63.9 18.4 62.05 20.0 60.25 21.45 62.45 L21.95 63.4 Q22.45 63.55 22.8 64.4 L22.95 64.75 23.2 64.5 Q24.65 63.55 25.5 65.25 M20.6 73.2 Q19.0 74.05 18.55 72.85 18.05 71.75 19.0 70.5 17.55 69.15 19.4 68.05 21.2 67.1 22.2 68.65 23.05 70.25 21.85 71.1 L21.6 71.35 Q21.95 72.45 20.6 73.2 M36.4 73.55 L36.75 74.4 Q37.25 75.4 36.25 76.15 35.05 76.85 34.2 75.75 L33.8 75.15 Q33.2 73.8 34.45 72.95 35.65 72.0 36.4 73.55 M32.35 74.9 Q32.6 75.5 32.45 76.0 L32.7 76.25 Q33.95 77.85 32.45 79.05 30.9 80.15 29.8 78.45 L29.4 77.6 28.9 77.85 Q26.95 78.95 26.35 77.5 25.75 76.15 26.95 74.55 28.3 73.1 29.55 74.9 L30.05 75.75 30.25 75.65 Q30.15 74.9 30.9 74.55 31.85 73.95 32.35 74.9 M25.4 75.65 Q26.35 77.35 24.9 78.35 23.55 79.3 21.85 77.7 20.25 76.15 22.3 75.05 24.4 73.95 25.4 75.65 M38.6 80.65 Q39.55 82.5 38.1 83.25 36.5 83.85 35.65 82.5 35.3 81.75 35.4 81.25 34.2 82.15 33.1 80.55 32.0 79.05 33.45 78.35 35.05 77.7 35.9 79.05 L36.25 79.9 Q37.6 78.95 38.6 80.65 M18.05 73.2 Q18.65 74.4 17.55 75.3 16.55 76.0 15.95 74.65 15.35 73.45 16.45 72.7 17.55 72.1 18.05 73.2 M20.5 75.5 Q21.0 76.6 20.1 77.25 19.25 77.95 18.65 76.85 18.05 75.75 19.0 75.05 19.9 74.4 20.5 75.5 M99.6 62.45 L100.1 63.4 Q100.2 63.05 100.6 62.8 101.8 61.8 102.65 63.4 L102.9 63.9 103.05 63.8 Q105.1 62.8 106.35 64.65 107.05 65.85 106.6 66.85 107.8 66.0 109.05 67.45 110.15 68.9 109.15 70.0 109.9 69.9 110.35 70.75 111.35 72.0 110.0 72.85 108.55 73.7 107.55 72.6 106.7 71.6 107.7 70.75 106.8 70.75 106.1 69.65 105.35 68.55 105.7 67.7 104.0 68.9 102.4 66.85 L101.95 65.85 Q100.6 66.25 100.0 65.0 L99.75 64.5 99.0 65.15 Q97.3 66.1 96.05 64.65 94.85 63.15 96.65 62.05 98.4 60.95 99.6 62.45 M94.85 56.95 L95.2 57.55 96.05 58.15 Q96.9 59.15 95.95 60.0 94.95 60.7 94.35 59.75 92.75 60.6 91.4 58.75 90.05 56.95 91.9 56.1 93.75 55.35 94.85 56.95 M108.55 73.95 Q109.5 75.75 107.9 76.5 106.8 77.0 106.1 76.5 L105.25 77.5 Q103.65 78.45 102.3 76.6 100.95 74.8 102.8 73.95 104.15 73.3 105.25 74.2 105.35 73.7 105.95 73.2 107.55 72.0 108.55 73.95 M101.1 75.75 Q102.2 77.1 100.85 78.1 99.6 78.95 98.75 77.95 L98.65 77.95 96.9 77.85 Q96.2 76.85 97.15 76.25 97.75 75.9 98.15 76.0 98.25 75.5 98.75 75.3 100.0 74.3 101.1 75.75 M94.85 78.95 Q95.45 80.05 94.45 80.4 93.6 80.8 93.15 80.05 92.65 79.2 93.5 78.6 94.35 77.95 94.85 78.95 M88.5 81.65 Q89.7 83.1 88.25 84.2 86.75 85.3 85.8 83.7 84.7 82.15 86.05 81.0 87.25 80.05 88.5 81.65 M93.5 80.9 Q94.45 82.5 93.0 83.6 91.4 84.55 90.05 82.75 88.7 80.9 90.55 80.05 92.4 79.3 93.5 80.9 M84.95 80.15 Q86.05 81.75 84.3 82.85 L81.75 82.75 Q80.4 83.1 79.8 81.9 79.05 80.65 80.4 79.7 L82.1 79.8 Q83.7 78.7 84.95 80.15 M39.3 74.05 Q37.25 74.9 36.25 73.1 35.15 71.25 37.0 69.9 L37.5 69.65 Q36.75 67.95 38.6 67.2 39.55 66.7 40.4 66.85 40.55 66.35 41.15 65.85 41.65 65.5 42.15 65.5 42.0 64.4 43.35 63.55 44.7 62.7 45.8 63.05 44.7 61.2 46.55 59.85 47.25 59.25 48.0 59.4 L48.75 59.6 49.0 59.85 Q48.85 59.25 49.35 58.9 49.6 58.65 49.95 58.5 L50.45 58.4 50.55 58.4 Q49.6 56.55 51.05 55.45 52.55 54.25 54.0 56.1 55.45 57.9 53.75 59.15 L53.0 59.6 Q53.75 61.1 52.4 62.05 52.15 62.2 52.05 62.3 50.95 62.7 50.1 61.8 50.35 63.3 48.85 64.05 L47.75 64.25 47.4 64.25 Q48.5 66.1 46.4 67.35 45.7 67.8 45.05 67.95 45.3 69.05 44.1 70.0 43.35 70.5 42.6 70.65 L41.65 71.6 40.55 72.1 Q40.65 73.45 39.3 74.05 M40.65 46.4 Q41.15 47.4 40.2 48.15 39.3 48.85 38.85 47.75 38.2 46.55 39.2 46.05 40.2 45.45 40.65 46.4 M38.1 48.5 Q38.85 50.1 37.6 51.05 36.4 51.9 35.55 50.45 34.55 48.85 35.9 47.9 37.25 46.9 38.1 48.5 M49.45 81.5 Q50.45 83.1 49.0 84.2 47.4 85.2 46.05 83.35 L45.9 83.25 45.2 83.95 42.4 83.85 Q41.05 84.35 40.05 83.1 38.85 81.65 40.65 80.55 41.4 80.05 42.0 80.05 L42.25 79.8 Q43.85 78.6 45.45 80.55 L45.9 81.15 46.55 80.65 Q48.35 79.9 49.45 81.5 M59.0 80.8 Q60.25 82.35 58.75 83.6 57.8 84.35 56.95 83.85 L56.05 84.7 Q54.35 85.65 53.15 84.2 51.8 84.55 51.05 83.35 50.2 81.9 51.65 80.8 53.0 79.8 54.0 81.5 54.85 81.0 55.7 81.25 55.85 80.8 56.3 80.3 57.65 79.2 59.0 80.8 M77.95 80.3 Q79.2 82.25 77.35 83.6 75.4 84.95 73.8 82.6 L73.55 82.35 73.3 82.5 Q71.95 83.45 71.0 82.0 L70.85 81.9 Q70.65 82.0 70.4 82.25 68.65 83.25 67.45 81.75 L67.2 81.4 66.35 82.0 Q65.25 82.5 64.5 82.0 64.4 82.75 63.55 83.35 61.95 84.45 60.5 82.5 59.15 80.65 61.1 79.8 L63.55 79.9 Q63.65 79.2 64.4 78.7 66.0 77.5 66.95 79.45 L67.2 79.9 68.05 79.2 Q69.75 78.1 71.0 79.55 L71.1 79.45 Q72.35 78.45 73.55 79.9 73.8 79.55 74.4 79.3 76.75 78.35 77.95 80.3"/><path fill="#fcf3d8" stroke="none" d="M56.15 33.9 L57.4 34.75 Q57.8 35.5 57.6 36.3 57.4 37.15 56.65 37.55 L55.1 37.65 Q54.25 37.45 53.95 36.75 53.55 36.1 53.75 35.25 53.95 34.45 54.7 33.9 55.3 33.7 56.15 33.9 M60.35 56.7 L59.7 56.8 59.2 56.35 Q58.95 56.05 59.05 55.75 59.2 55.3 59.5 55.2 L60.1 55.1 Q60.55 55.2 60.65 55.55 L60.75 56.15 60.35 56.7 M46.95 43.5 Q48.0 42.9 49.15 43.2 50.4 43.5 51.05 44.65 51.65 45.8 51.35 46.95 51.05 48.1 50.0 48.75 L47.6 49.05 Q46.45 48.75 45.9 47.6 45.3 46.55 45.6 45.4 45.9 44.25 46.95 43.5"/><path fill="#a4a475" stroke="none" d="M81.55 81.15 L87.85 80.75 Q90.5 79.9 92.55 77.45 L92.3 78.4 Q88.5 86.7 75.5 85.35 74.5 84.15 75.35 83.3 L81.45 83.75 76.35 82.65 Q77.95 81.7 81.55 81.15"/><path fill="#75754f" stroke="none" d="M92.3 78.4 Q93.4 83.2 83.45 86.4 75.15 87.25 64.5 84.05 L63.35 82.55 Q70.15 84.8 75.5 85.35 88.5 86.7 92.3 78.4"/><path fill="#999966" stroke="none" d="M63.35 82.55 L66.75 80.55 67.8 79.45 70.35 78.1 Q76.25 80.75 81.55 81.15 77.95 81.7 76.35 82.65 L81.45 83.75 75.35 83.3 Q74.5 84.15 75.5 85.35 70.15 84.8 63.35 82.55"/><path fill="none" stroke="#000000" stroke-width="0.5" stroke-opacity="0.301960784314" d="M92.3 78.4 Q93.4 83.2 83.45 86.4 75.15 87.25 64.5 84.05 L63.35 82.55 66.75 80.55 67.8 79.45 70.35 78.1 Q76.25 80.75 81.55 81.15 L87.85 80.75 Q90.5 79.9 92.55 77.45 L92.3 78.4"/><path fill="#b9ae9a" stroke="none" d="M75.0 83.5 L75.15 83.75 76.1 85.0 76.2 85.1 77.35 85.95 78.8 87.0 Q79.65 87.75 79.8 88.4 79.9 89.0 79.25 89.4 78.8 89.7 77.8 89.8 L76.2 90.15 75.05 90.95 73.7 91.55 Q72.95 91.75 70.65 91.55 L67.4 91.35 63.75 91.8 60.15 91.9 57.8 91.35 56.75 90.9 56.5 90.6 Q56.4 90.3 56.7 90.05 L56.75 90.05 57.4 89.55 57.7 89.3 58.05 89.25 59.45 89.3 61.7 89.1 Q64.0 88.45 65.4 86.45 L66.2 85.0 66.65 83.75 66.85 82.75 66.55 79.2 Q66.25 75.1 69.7 78.55 71.5 80.3 73.55 83.05 L74.2 83.6 Q74.6 83.95 74.8 83.75 L75.0 83.5"/><path fill="#e2dccb" stroke="none" d="M75.0 83.5 L74.8 83.75 Q74.6 83.95 74.2 83.6 L73.55 83.05 Q71.5 80.3 69.7 78.55 66.25 75.1 66.55 79.2 L66.85 82.75 66.65 83.75 66.2 85.0 65.4 86.45 Q64.0 88.45 61.7 89.1 L59.45 89.3 58.05 89.25 57.7 89.3 57.4 89.55 57.35 89.3 56.75 89.4 55.6 89.65 53.45 89.85 52.1 89.6 Q51.75 89.4 52.25 88.65 L53.7 87.3 Q54.5 86.75 54.1 86.6 L52.55 86.0 52.65 85.55 Q52.95 85.0 53.7 84.7 L56.15 82.9 56.75 82.45 59.3 79.8 60.85 77.85 62.0 76.1 63.35 74.15 63.75 73.75 64.6 73.35 65.7 73.85 67.6 75.3 70.65 78.0 70.75 78.15 73.8 81.9 75.0 83.5"/><path fill="#6a6a6a" fill-opacity="0.250980392157" d="M64.45 72.95 L64.55 73.45 64.7 73.3 65.35 73.4 65.4 73.4 Q65.95 73.0 66.3 73.5 L66.4 74.05 66.7 74.3 66.55 74.8 Q66.3 74.95 66.1 74.6 L66.05 74.5 Q65.65 74.8 65.25 74.25 L65.1 74.0 65.05 74.05 Q64.6 74.35 64.4 73.95 L64.4 73.6 64.25 73.75 Q63.75 74.0 63.45 73.5 63.15 72.95 63.65 72.7 64.15 72.5 64.45 72.95 M78.85 89.75 L78.15 89.65 Q77.9 89.25 78.3 88.95 L78.85 88.9 Q78.8 88.55 79.15 88.45 L79.3 88.35 79.25 88.3 Q79.1 88.05 79.25 87.9 L78.8 87.6 Q78.55 87.1 78.9 86.85 79.3 86.55 79.65 87.0 79.95 87.5 79.5 87.8 L79.45 87.8 79.65 88.05 79.65 88.45 79.85 88.75 Q80.1 89.3 79.75 89.6 79.4 89.85 79.1 89.4 L78.85 89.75 M78.65 86.3 Q78.9 86.8 78.5 87.05 L77.8 86.9 77.65 86.5 Q77.4 86.6 77.1 86.15 L77.05 86.2 Q76.75 86.4 76.4 85.85 76.1 85.3 76.45 85.0 76.85 84.75 77.1 85.35 L77.15 85.45 77.25 85.35 Q77.7 85.1 77.9 85.65 L78.0 86.15 Q78.4 85.85 78.65 86.3 M77.25 89.45 L77.35 89.7 77.5 89.5 Q77.9 89.25 78.2 89.7 78.5 90.15 78.05 90.4 77.65 90.7 77.4 90.25 L77.2 90.5 Q76.8 90.7 76.4 90.05 76.0 89.4 76.45 89.05 76.9 88.7 77.25 89.45 M68.75 75.35 L68.8 75.6 Q69.15 75.45 69.35 75.8 L69.5 76.2 Q69.8 76.15 70.0 76.5 L70.05 76.95 Q70.5 76.75 70.75 77.15 71.05 77.55 70.6 77.8 70.15 78.05 69.9 77.6 L69.8 77.3 Q69.4 77.5 69.1 77.0 L69.0 76.8 Q68.7 76.9 68.45 76.5 L68.3 76.3 Q67.65 76.75 67.45 76.2 67.25 75.6 67.85 75.25 L68.75 75.35 M67.65 74.8 Q67.9 75.15 67.5 75.4 67.05 75.65 66.8 75.2 66.55 74.75 66.95 74.6 67.4 74.4 67.65 74.8 M76.3 84.35 Q76.7 84.9 76.15 85.25 75.65 85.6 75.35 85.05 L75.25 84.5 74.9 84.3 Q74.65 84.05 75.0 83.75 L75.55 83.85 75.65 84.1 Q76.0 83.95 76.3 84.35 M76.15 89.95 Q76.35 90.4 76.1 90.6 75.85 90.8 75.6 90.35 75.3 89.95 75.65 89.75 76.0 89.55 76.15 89.95 M63.15 75.3 L62.5 75.2 Q62.2 74.8 62.65 74.5 L62.9 74.4 Q62.9 74.15 63.2 74.05 63.65 73.85 63.9 74.3 64.1 74.8 63.7 75.05 L63.35 75.1 63.15 75.3 M61.65 76.9 Q61.25 77.15 61.0 76.75 60.75 76.3 61.2 76.1 L61.75 76.2 61.7 76.2 Q61.55 75.7 62.05 75.45 L62.7 75.5 Q62.95 75.9 62.4 76.25 L61.85 76.4 Q62.05 76.7 61.65 76.9 M61.45 77.4 Q61.6 77.85 61.25 78.05 60.9 78.25 60.7 77.8 60.4 77.4 60.85 77.15 61.25 77.0 61.45 77.4 M58.4 80.9 Q58.65 81.25 58.3 81.55 L57.65 81.45 Q57.35 81.05 57.75 80.8 L58.2 80.7 58.1 80.6 Q57.95 80.2 58.3 80.05 L58.65 80.05 Q58.55 79.8 58.9 79.65 L59.1 79.65 Q58.9 79.05 59.5 78.75 L60.0 78.6 60.15 78.35 60.7 78.4 Q60.85 78.65 60.6 78.9 L60.4 79.0 Q60.45 79.35 59.95 79.75 L59.6 79.9 Q59.8 80.25 59.4 80.5 L58.9 80.45 58.65 80.85 58.4 80.9 M57.45 81.7 Q57.65 82.0 57.2 82.3 L56.55 82.25 Q56.4 81.85 56.85 81.6 L57.45 81.7 M56.75 82.7 Q57.0 83.05 56.65 83.3 56.25 83.5 56.05 83.1 55.8 82.7 56.15 82.55 56.55 82.35 56.75 82.7 M53.8 85.05 L53.2 85.0 Q53.05 84.6 53.45 84.35 L54.1 84.4 Q53.95 84.1 54.3 83.95 L54.55 83.85 Q54.45 83.45 54.8 83.25 55.3 83.05 55.5 83.5 55.75 84.05 55.3 84.25 L55.05 84.35 54.8 84.7 Q54.45 84.95 54.2 84.6 L54.15 84.5 53.8 85.05 M52.95 85.75 Q53.2 86.4 52.7 86.65 52.15 86.95 51.85 86.3 51.5 85.7 52.1 85.45 L52.2 85.4 Q52.05 85.05 52.4 84.9 52.75 84.75 52.95 85.1 53.2 85.4 52.85 85.6 L52.95 85.75 M54.4 86.5 Q54.6 86.85 54.05 87.25 53.45 87.65 53.25 87.25 L53.1 87.05 Q52.85 86.65 53.25 86.4 L53.75 86.3 54.4 86.5 M52.75 88.45 Q52.4 88.65 52.2 88.25 51.95 87.8 52.35 87.65 L52.5 87.6 Q52.4 87.35 52.7 87.2 53.1 87.05 53.35 87.4 53.6 87.8 53.2 88.0 L52.95 88.1 52.75 88.45 M53.8 89.7 Q54.05 90.05 53.65 90.25 53.25 90.5 53.05 90.1 L52.75 90.4 Q52.2 90.75 52.05 90.3 51.95 90.05 52.1 89.85 51.8 89.95 51.55 89.65 51.25 89.2 51.65 88.95 52.1 88.65 52.35 89.05 L52.35 89.55 53.05 89.65 53.2 89.5 Q53.55 89.35 53.8 89.7 M58.05 89.2 Q58.35 89.85 58.0 90.05 57.65 90.25 57.3 89.75 L57.2 89.75 Q57.35 89.95 57.1 90.1 56.85 90.25 56.75 90.0 L56.7 89.85 56.55 89.95 55.8 89.9 55.6 90.1 Q55.25 90.4 54.95 90.0 54.65 89.6 55.05 89.3 L55.75 89.4 55.75 89.45 56.1 89.05 56.7 88.95 Q56.7 88.7 57.0 88.6 57.55 88.35 57.85 88.85 L57.9 88.95 58.05 89.2 M54.7 89.75 L54.55 90.2 Q54.3 90.4 54.1 90.05 53.95 89.65 54.25 89.5 54.55 89.4 54.7 89.75 M59.3 87.7 Q59.55 88.15 59.15 88.4 L58.7 88.45 58.45 88.9 Q58.1 89.2 57.75 88.55 57.35 87.95 57.85 87.7 L58.45 87.8 58.6 87.6 Q59.05 87.25 59.3 87.7 M61.1 86.1 Q60.85 86.3 60.65 86.1 60.8 86.55 60.55 86.7 60.25 86.85 60.0 86.4 59.7 85.95 60.0 85.65 L60.4 85.75 60.4 85.65 Q60.25 85.25 60.6 85.1 L60.85 85.0 61.0 84.8 Q61.0 84.5 61.35 84.25 L61.55 84.15 61.7 84.0 62.1 83.95 62.25 83.75 62.45 83.65 Q62.35 83.3 62.65 83.05 63.05 82.75 63.3 83.4 63.65 84.05 63.3 84.3 L63.1 84.35 62.85 84.7 62.5 84.85 62.15 85.4 62.0 85.5 61.8 85.75 61.3 85.85 61.1 86.1 M60.0 86.75 Q60.35 87.25 59.9 87.6 59.4 87.9 59.1 87.35 58.8 86.85 59.25 86.55 59.65 86.25 60.0 86.75 M64.35 91.75 L63.7 91.65 Q63.4 91.25 63.85 90.95 64.2 90.65 64.5 91.1 L64.6 91.0 Q65.2 90.7 65.45 91.35 65.7 92.0 65.3 92.3 64.9 92.65 64.5 91.95 L64.4 91.75 64.35 91.75 M63.5 91.55 Q63.85 92.0 63.4 92.3 63.0 92.6 62.7 92.1 62.45 91.65 62.8 91.4 63.2 91.15 63.5 91.55 M62.45 91.65 Q62.7 92.2 62.45 92.4 62.15 92.55 61.85 92.1 61.6 91.65 61.9 91.35 62.2 91.15 62.45 91.65 M61.55 91.75 Q61.7 92.2 61.45 92.4 61.15 92.65 60.85 92.2 60.6 91.7 60.95 91.5 61.35 91.3 61.55 91.75 M56.95 90.3 L57.1 90.75 57.1 90.7 Q57.65 90.45 57.95 91.05 L58.15 90.7 Q58.7 90.3 59.05 91.15 59.4 91.05 59.65 91.4 L59.8 91.75 59.9 91.6 60.35 91.65 Q60.55 92.0 60.3 92.15 60.05 92.3 59.85 92.05 L59.75 91.95 59.55 92.2 59.05 92.25 59.0 92.3 Q58.55 92.55 58.1 91.8 L58.05 91.65 57.8 92.0 Q57.4 92.35 57.0 91.65 L56.85 91.15 Q56.4 91.35 56.1 90.95 55.75 90.55 56.2 90.15 56.7 89.85 56.95 90.3 M75.55 90.6 Q75.75 90.95 75.45 91.15 L74.9 91.05 Q74.65 90.75 75.0 90.5 L75.55 90.6 M73.75 92.0 Q73.55 92.15 73.3 91.8 73.05 91.4 73.35 91.25 73.6 91.05 73.8 91.4 L74.05 91.05 Q74.55 90.65 74.95 91.25 75.4 91.85 74.8 92.25 74.2 92.65 73.85 92.0 L73.85 91.95 73.75 92.0 M71.0 91.9 Q70.65 92.15 70.4 91.8 70.2 91.4 70.5 91.15 70.7 91.0 70.9 91.15 L71.15 90.85 Q71.7 90.4 72.1 91.05 L72.15 91.15 Q72.7 90.9 73.0 91.5 73.3 92.2 72.85 92.55 72.45 92.95 71.95 92.2 L71.85 92.0 71.05 91.9 71.0 91.9 M70.05 91.2 Q70.35 91.85 70.0 92.1 69.65 92.3 69.3 91.75 68.95 91.15 69.35 90.85 69.75 90.55 70.05 91.2 M66.35 91.95 Q66.05 92.1 65.8 91.65 65.5 91.2 65.8 90.9 66.15 90.7 66.4 91.25 66.4 91.0 66.55 90.85 66.95 90.6 67.25 91.05 L67.35 91.15 67.5 91.0 68.05 91.05 Q68.0 90.8 68.3 90.65 68.75 90.4 69.0 90.9 69.2 91.45 68.85 91.75 68.55 92.05 68.15 91.45 L68.15 91.4 67.95 91.65 67.4 91.55 67.35 91.5 67.15 91.75 Q66.75 92.05 66.5 91.6 L66.35 91.95"/><path fill="#999966" stroke="none" d="M54.65 13.85 L59.05 12.75 Q61.35 21.1 66.15 24.85 61.85 23.75 59.15 24.4 L62.85 29.3 57.2 25.1 Q55.25 26.2 54.75 28.8 50.1 24.75 46.2 16.9 L52.2 15.1 54.65 17.55 57.2 20.1 54.65 13.85"/><path fill="#75754f" stroke="none" d="M54.65 17.55 L54.65 13.85 57.2 20.1 54.65 17.55 M80.55 26.1 Q77.4 31.7 70.8 33.9 66.75 35.25 61.35 35.25 51.95 32.1 45.45 20.1 L46.2 16.9 Q50.1 24.75 54.75 28.8 65.9 38.7 80.55 26.1"/><path fill="#a4a475" stroke="none" d="M66.15 24.85 Q69.05 27.05 73.0 27.7 76.75 27.7 81.9 24.5 L80.55 26.1 Q65.9 38.7 54.75 28.8 55.25 26.2 57.2 25.1 L62.85 29.3 59.15 24.4 Q61.85 23.75 66.15 24.85"/><path fill="#000000" fill-opacity="0.301960784314" d="M70.8 33.9 L72.35 37.6 Q65.05 36.6 61.35 35.25 66.75 35.25 70.8 33.9"/><path fill="none" stroke="#000000" stroke-width="0.5" stroke-opacity="0.301960784314" d="M54.65 17.55 L54.65 13.85 59.05 12.75 Q61.35 21.1 66.15 24.85 69.05 27.05 73.0 27.7 76.75 27.7 81.9 24.5 L80.55 26.1 Q77.4 31.7 70.8 33.9 66.75 35.25 61.35 35.25 51.95 32.1 45.45 20.1 L46.2 16.9 52.2 15.1 54.65 17.55 57.2 20.1"/><path fill="#999966" stroke="none" d="M81.05 47.75 Q85.2 44.3 87.4 38.7 L91.2 38.35 88.75 42.75 91.1 40.55 93.15 38.55 98.3 38.2 Q94.75 44.05 90.6 47.6 90.35 46.15 88.65 45.9 L83.75 49.8 87.05 45.9 Q84.7 46.15 81.05 47.75"/><path fill="#a4a475" stroke="none" d="M81.05 47.75 Q84.7 46.15 87.05 45.9 L83.75 49.8 88.65 45.9 Q90.35 46.15 90.6 47.6 86.05 51.55 81.05 52.9 L79.35 48.95 81.05 47.75"/><path fill="#75754f" stroke="none" d="M90.6 47.6 Q94.75 44.05 98.3 38.2 L98.9 40.05 Q93.05 48.7 85.2 52.9 L84.7 53.1 Q83.6 53.35 82.5 53.75 L81.05 52.9 Q86.05 51.55 90.6 47.6 M91.1 40.55 L88.75 42.75 91.2 38.35 91.1 40.55"/><path fill="#000000" fill-opacity="0.301960784314" d="M85.2 52.9 L86.45 56.55 82.5 53.75 Q83.6 53.35 84.7 53.1 L85.2 52.9"/><path fill="none" stroke="#000000" stroke-width="0.5" stroke-opacity="0.301960784314" d="M91.2 38.35 L87.4 38.7 Q85.2 44.3 81.05 47.75 M98.3 38.2 L93.15 38.55 91.1 40.55 88.75 42.75 M91.2 38.35 L91.1 40.55 M85.2 52.9 Q93.05 48.7 98.9 40.05 L98.3 38.2 M86.45 56.55 L82.5 53.75 81.05 52.9 79.35 48.95 78.85 47.25 M82.5 53.75 Q83.6 53.35 84.7 53.1 L85.2 52.9 M79.35 48.95 L81.05 47.75"/><path fill="#a4a475" stroke="none" d="M43.3 77.55 Q45.85 79.55 49.25 80.85 52.5 81.75 56.8 80.9 L55.7 81.6 Q43.5 86.05 33.65 77.3 33.95 75.9 35.65 75.65 L40.6 79.5 37.3 75.65 Q39.6 75.85 43.3 77.55"/><path fill="#999966" stroke="none" d="M25.95 68.05 L31.05 68.3 33.2 70.35 35.5 72.55 33.1 68.1 36.85 68.4 Q39.05 74.1 43.3 77.55 39.6 75.85 37.3 75.65 L40.6 79.5 35.65 75.65 Q33.95 75.9 33.65 77.3 29.55 73.75 25.95 68.05"/><path fill="#75754f" stroke="none" d="M55.7 81.6 Q51.6 86.1 39.5 82.9 31.35 78.75 25.45 69.85 L25.95 68.05 Q29.55 73.75 33.65 77.3 43.5 86.05 55.7 81.6 M33.2 70.35 L33.1 68.1 35.5 72.55 33.2 70.35"/><path fill="none" stroke="#000000" stroke-width="0.5" stroke-opacity="0.301960784314" d="M43.3 77.55 Q45.85 79.55 49.25 80.85 52.5 81.75 56.8 80.9 L55.7 81.6 Q51.6 86.1 39.5 82.9 31.35 78.75 25.45 69.85 L25.95 68.05 31.05 68.3 33.2 70.35 33.1 68.1 36.85 68.4 Q39.05 74.1 43.3 77.55 M35.5 72.55 L33.2 70.35"/><path fill="#75754f" stroke="none" d="M43.25 77.3 Q44.35 82.1 34.4 85.3 26.1 86.15 15.45 82.95 L14.3 81.45 Q21.1 83.7 26.45 84.25 39.45 85.6 43.25 77.3"/><path fill="#a4a475" stroke="none" d="M32.5 80.05 L38.8 79.65 Q41.45 78.8 43.5 76.35 L43.25 77.3 Q39.45 85.6 26.45 84.25 25.45 83.05 26.3 82.2 L32.4 82.65 27.3 81.55 Q28.9 80.6 32.5 80.05"/><path fill="#999966" stroke="none" d="M14.3 81.45 L17.7 79.45 18.75 78.35 21.3 77.0 Q27.2 79.65 32.5 80.05 28.9 80.6 27.3 81.55 L32.4 82.65 26.3 82.2 Q25.45 83.05 26.45 84.25 21.1 83.7 14.3 81.45"/><path fill="none" stroke="#000000" stroke-width="0.5" stroke-opacity="0.301960784314" d="M32.5 80.05 L38.8 79.65 Q41.45 78.8 43.5 76.35 L43.25 77.3 Q44.35 82.1 34.4 85.3 26.1 86.15 15.45 82.95 L14.3 81.45 17.7 79.45 18.75 78.35 21.3 77.0 Q27.2 79.65 32.5 80.05"/><path fill="#a4a475" stroke="none" d="M81.6 86.8 Q79.6 86.45 77.75 85.4 76.2 84.2 75.25 81.65 L75.3 82.55 Q76.55 90.55 84.85 91.45 85.6 90.65 85.2 89.75 L81.35 89.05 84.7 89.0 Q83.85 87.9 81.6 86.8"/><path fill="#75754f" stroke="none" d="M75.3 82.55 Q73.95 86.6 79.7 91.1 84.8 93.2 91.9 92.2 L92.8 91.1 84.85 91.45 Q76.55 90.55 75.3 82.55"/><path fill="#999966" stroke="none" d="M92.8 91.1 L91.0 88.75 90.45 87.6 89.05 86.0 Q85.0 87.35 81.6 86.8 83.85 87.9 84.7 89.0 L81.35 89.05 85.2 89.75 Q85.6 90.65 84.85 91.45 L92.8 91.1"/><path fill="none" stroke="#000000" stroke-width="0.5" stroke-opacity="0.301960784314" d="M75.3 82.55 Q73.95 86.6 79.7 91.1 84.8 93.2 91.9 92.2 L92.8 91.1 91.0 88.75 90.45 87.6 89.05 86.0 Q85.0 87.35 81.6 86.8 79.6 86.45 77.75 85.4 76.2 84.2 75.25 81.65 L75.3 82.55"/><path fill="#75754f" stroke="none" d="M50.0 54.7 L47.2 54.1 Q39.0 52.9 35.7 60.2 35.45 55.95 42.15 53.1 45.95 52.65 50.35 53.85 L50.0 54.7"/><path fill="#999966" stroke="none" d="M42.9 57.75 Q45.35 57.3 46.3 56.4 L43.15 55.45 47.2 55.8 Q47.8 55.1 47.2 54.1 L50.0 54.7 49.25 56.8 46.3 58.65 Q45.1 58.15 43.9 57.9 L42.9 57.75"/><path fill="#a4a475" stroke="none" d="M47.2 54.1 Q47.8 55.1 47.2 55.8 L43.15 55.45 46.3 56.4 Q45.35 57.3 42.9 57.75 40.8 57.5 38.85 58.15 36.9 58.85 35.45 61.05 L35.7 60.2 Q39.0 52.9 47.2 54.1"/><path fill="#000000" fill-opacity="0.301960784314" d="M43.9 57.9 Q45.1 58.15 46.3 58.65 L41.65 61.45 43.9 57.9"/><path fill="none" stroke="#000000" stroke-width="0.5" stroke-opacity="0.301960784314" d="M42.9 57.75 L43.9 57.9 Q45.1 58.15 46.3 58.65 L49.25 56.8 50.0 54.7 50.35 53.85 Q45.95 52.65 42.15 53.1 35.45 55.95 35.7 60.2 L35.45 61.05 Q36.9 58.85 38.85 58.15 40.8 57.5 42.9 57.75 M50.35 53.85 L50.7 52.65 M41.65 61.45 L46.3 58.65"/></g><g id="c14"><g><use transform="matrix(1.0,0.0,0.0,1.0,0.0,0.0)" xlink:href="#c10"/></g><g><use transform="matrix(2.08847045898,0.0,0.0,2.08847045898,-5.1,35.8)" filter="url(#filter11)" xlink:href="#c12"/></g><g><use transform="matrix(1.0,0.0,0.0,1.0,0.0,0.0)" xlink:href="#c13"/></g></g><filter id="filter11"><feColorMatrix in="SourceGraphic" type="matrix" values="0.69921875 0.0 0.0 0.0 0.14453125 0.0 0.69921875 0.0 0.0 0.0859375 0.0 0.0 0.69921875 0.0 0.171875 0.0 0.0 0.0 1.0 0.0" result="cxform"/><feComposite operator="in" in2="SourceGraphic" result="color-xform"/></filter><g id="c15"><g><use transform="matrix(1.0,0.0,0.0,1.0,6.3,53.35)" xlink:href="#c9"/></g><g><use transform="matrix(-0.146041870117,0.0488891601562,0.0616760253906,0.140441894531,33.05,63.95)" xlink:href="#c14"/></g><g><use transform="matrix(0.141098022461,-0.0378112792969,0.111373901367,0.225646972656,27.2,74.05)" filter="url(#filter15)" xlink:href="#c6"/></g></g><filter id="filter15"><feColorMatrix in="SourceGraphic" type="matrix" values="1.0 0.0 0.0 0.0 0.0 0.0 1.0 0.0 0.0 0.0 0.0 0.0 1.0 0.0 0.0 0.0 0.0 0.0 0.23046875 0.0" result="cxform"/><feComposite operator="in" in2="SourceGraphic" result="color-xform"/></filter></defs><g><g><use transform="matrix(1.0,0.0,0.0,1.0,0.0,0.0)" xlink:href="#c1"/></g><g><use transform="matrix(1.15496826172,0.0,0.0,1.15496826172,-1.5,-57.15)" xlink:href="#c15"/></g></g></svg>