<?xml version='1.0' encoding='UTF-8'?>
<svg xmlns:xlink="http://www.w3.org/1999/xlink" xmlns="http://www.w3.org/2000/svg" version="1.1" width="60px" height="60px" viewBox="0.0 0.0 60.0 60.0"><defs><g id="c1"><path fill="#000000" fill-opacity="0.00392156862745" d="M0.0 0.0 L60.0 0.0 60.0 60.0 0.0 60.0 0.0 0.0"/></g><g id="c2"><path fill="#006699" stroke="none" d="M31.5 39.85 L19.8 43.65 Q17.15 44.45 15.5 43.3 14.35 42.55 13.65 40.9 L1.7 14.45 1.6 14.3 1.2 13.45 -0.75 9.05 Q-2.05 6.2 -0.3 4.75 0.3 4.25 1.2 3.9 L5.5 2.25 Q8.95 0.95 10.65 4.15 L22.3 0.4 Q26.55 -1.0 28.45 3.1 L40.55 29.95 40.9 30.7 42.95 35.15 Q43.95 37.35 43.15 38.7 42.5 39.7 40.95 40.25 L36.65 41.8 35.1 42.2 Q32.75 42.3 31.5 39.85"/><path fill="none" stroke="#000000" stroke-width="1.0" stroke-opacity="0.298039215686" d="M31.5 39.85 L19.8 43.65 Q17.15 44.45 15.5 43.3 14.35 42.55 13.65 40.9 L1.7 14.45 1.6 14.3 1.2 13.45 -0.75 9.05 Q-2.05 6.2 -0.3 4.75 0.3 4.25 1.2 3.9 L5.5 2.25 Q8.95 0.95 10.65 4.15 L22.3 0.4 Q26.55 -1.0 28.45 3.1 L40.55 29.95 40.9 30.7 42.95 35.15 Q43.95 37.35 43.15 38.7 42.5 39.7 40.95 40.25 L36.65 41.8 35.1 42.2 Q32.75 42.3 31.5 39.85"/><path fill="#300525" stroke="none" d="M0.75 8.25 L29.8 9.75 25.55 0.9 Q26.9 1.6 27.8 3.55 L40.7 32.15 Q42.6 36.3 38.3 37.65 L23.3 42.5 13.15 21.4 4.6 20.9 0.7 12.25 Q-0.45 9.75 0.75 8.25 M20.1 43.55 L19.8 43.65 Q17.15 44.45 15.5 43.3 L20.1 43.55"/><path fill="#630a4c" stroke="none" d="M25.55 0.9 L29.8 9.75 0.75 8.25 Q1.45 7.3 3.1 6.75 L21.65 0.8 25.55 0.9 M4.6 20.9 L13.15 21.4 23.3 42.5 20.1 43.55 15.5 43.3 Q14.35 42.55 13.65 40.9 L4.6 20.9"/><path fill="none" stroke="#000000" stroke-width="0.5" stroke-opacity="0.301960784314" d="M0.75 8.25 Q-0.45 9.75 0.7 12.25 L4.6 20.9 M23.3 42.5 L38.3 37.65 Q42.6 36.3 40.7 32.15 L27.8 3.55 Q26.9 1.6 25.55 0.9 L21.65 0.8 3.1 6.75 Q1.45 7.3 0.75 8.25 M20.1 43.55 L19.8 43.65 Q17.15 44.45 15.5 43.3 14.35 42.55 13.65 40.9 L4.6 20.9 M20.1 43.55 L23.3 42.5"/><path fill="#9d147b" stroke="none" d="M14.2 40.5 L1.35 11.8 Q-0.5 7.75 3.8 6.35 L22.3 0.4 Q26.55 -1.0 28.45 3.1 L41.35 31.7 Q43.25 35.85 38.9 37.25 L20.4 43.2 Q16.1 44.55 14.2 40.5"/><path fill="none" stroke="#000000" stroke-width="0.5" stroke-opacity="0.301960784314" d="M14.2 40.5 L1.35 11.8 Q-0.5 7.75 3.8 6.35 L22.3 0.4 Q26.55 -1.0 28.45 3.1 L41.35 31.7 Q43.25 35.85 38.9 37.25 L20.4 43.2 Q16.1 44.55 14.2 40.5"/><path fill="#9d147b" stroke="none" d="M31.4 39.65 L31.3 39.45 31.25 39.4 29.25 34.95 Q27.55 31.2 31.25 29.85 L35.6 28.25 Q38.8 27.1 40.5 29.85 L40.9 30.7 42.95 35.15 Q43.95 37.35 43.15 38.7 42.5 39.45 41.2 39.9 L36.9 41.45 34.85 41.85 Q32.9 41.7 31.75 39.5 L31.4 39.65"/><path fill="#630a4c" stroke="none" d="M43.15 38.7 Q42.5 39.7 40.95 40.25 L36.65 41.8 35.1 42.2 Q32.75 42.3 31.45 39.8 L31.4 39.65 31.75 39.5 Q32.9 41.7 34.85 41.85 L36.9 41.45 41.2 39.9 Q42.5 39.45 43.15 38.7"/><path fill="none" stroke="#003333" stroke-width="0.5" stroke-opacity="0.509803921569" d="M43.15 38.7 Q42.5 39.7 40.95 40.25 L36.65 41.8 35.1 42.2 Q32.75 42.3 31.45 39.8 L31.4 39.65 30.3 40.0 31.4 39.65 M40.5 29.85 L40.9 30.7 42.95 35.15 Q43.95 37.35 43.15 38.7 42.5 39.45 41.2 39.9 L36.9 41.45 34.85 41.85 Q32.9 41.7 31.75 39.5 L31.4 39.65"/><path fill="#9d147b" stroke="none" d="M10.65 4.2 L10.85 4.6 12.85 9.05 Q14.5 12.8 10.8 14.15 L6.5 15.8 Q4.5 16.6 3.1 15.8 L1.75 12.85 -0.2 8.45 Q-1.25 6.15 -0.3 4.75 0.3 4.25 1.2 3.9 L5.5 2.25 Q9.0 0.95 10.65 4.2"/><path fill="#300525" stroke="none" d="M-0.3 4.75 Q-1.25 6.15 -0.2 8.45 L1.75 12.85 3.1 15.8 Q2.25 15.35 1.6 14.3 L1.2 13.45 -0.75 9.05 Q-2.05 6.2 -0.3 4.75"/><path fill="none" stroke="#003333" stroke-width="0.5" stroke-opacity="0.509803921569" d="M3.1 15.8 L6.45 23.15 M-0.3 4.75 Q0.3 4.25 1.2 3.9 L5.5 2.25 Q9.0 0.95 10.65 4.2 M3.1 15.8 L1.75 12.85 -0.2 8.45 Q-1.25 6.15 -0.3 4.75 -2.05 6.2 -0.75 9.05 L1.2 13.45 1.6 14.3"/><path fill="#fcf2cf" stroke="none" d="M9.15 13.6 Q9.8 12.8 9.55 11.6 L9.1 10.55 22.05 6.35 Q24.9 5.45 26.25 7.85 L26.5 8.3 35.8 29.0 35.95 29.35 Q34.75 29.3 34.1 30.1 33.45 30.9 33.7 32.1 L34.0 32.9 20.65 37.2 Q18.8 37.8 17.65 37.0 16.8 36.4 16.3 35.2 L6.95 14.6 6.8 14.4 7.1 14.4 Q8.4 14.45 9.15 13.6"/><path fill="#c47fad" stroke="none" d="M9.15 13.6 Q8.4 14.45 7.1 14.4 L6.8 14.4 6.95 14.6 16.3 35.2 Q16.8 36.4 17.65 37.0 18.8 37.8 20.65 37.2 L34.0 32.9 33.7 32.1 Q33.45 30.9 34.1 30.1 34.75 29.3 35.95 29.35 L35.8 29.0 26.5 8.3 26.25 7.85 Q24.9 5.45 22.05 6.35 L9.1 10.55 9.55 11.6 Q9.8 12.8 9.15 13.6 M28.25 6.1 L35.55 22.3 39.35 30.75 Q41.1 34.5 37.2 35.7 L20.45 41.1 Q16.8 42.25 15.2 39.0 L15.0 38.6 8.25 23.65 3.35 12.8 Q1.65 9.1 5.5 7.85 L22.25 2.5 Q26.05 1.25 27.75 4.95 L28.25 6.1"/><path fill="none" stroke="#ffcc00" stroke-width="1.0" stroke-opacity="0.749019607843" d="M35.55 22.3 L39.35 30.75 Q41.1 34.5 37.2 35.7 L20.45 41.1 Q16.8 42.25 15.2 39.0 L15.0 38.6 M8.25 23.65 L3.35 12.8 Q1.65 9.1 5.5 7.85 L22.25 2.5 Q26.05 1.25 27.75 4.95 L28.25 6.1"/><path fill="none" stroke="#bf9900" stroke-width="1.0" stroke-opacity="0.749019607843" d="M28.25 6.1 L35.55 22.3 M15.0 38.6 L8.25 23.65"/><path fill="none" stroke="#f0b92b" stroke-width="0.5" d="M9.15 13.6 Q9.8 12.8 9.55 11.6 L9.1 10.55 22.05 6.35 Q24.9 5.45 26.25 7.85 L26.5 8.3 35.8 29.0 35.95 29.35 Q34.75 29.3 34.1 30.1 33.45 30.9 33.7 32.1 L34.0 32.9 20.65 37.2 Q18.8 37.8 17.65 37.0 16.8 36.4 16.3 35.2 L6.95 14.6 6.8 14.4 7.1 14.4 Q8.4 14.45 9.15 13.6"/></g><g id="c3"><path fill="#7fdbfe" stroke="none" d="M10.75 4.9 Q10.75 4.6 10.9 4.35 11.25 3.45 11.95 2.75 13.3 1.5 14.35 2.1 15.4 2.7 14.95 4.45 14.7 5.4 14.1 6.15 L13.75 6.5 Q13.1 7.15 12.35 7.35 L11.4 7.2 Q10.95 6.9 10.75 6.4 10.5 5.75 10.75 4.9 M7.5 5.9 Q7.0 5.85 6.6 5.5 6.05 5.0 5.8 4.15 L5.7 3.6 Q5.55 2.65 5.8 1.7 6.25 0.0 7.5 0.0 L7.6 0.0 Q8.85 0.0 9.3 1.7 9.55 2.65 9.4 3.6 L9.3 4.15 8.5 5.5 7.6 5.9 7.5 5.9 M4.35 4.9 Q4.6 5.75 4.35 6.4 L3.7 7.2 2.75 7.35 Q2.0 7.15 1.35 6.5 L1.0 6.15 Q0.4 5.4 0.15 4.45 -0.3 2.7 0.75 2.1 1.8 1.5 3.15 2.75 3.85 3.45 4.2 4.35 L4.35 4.9 M5.5 13.7 Q4.45 13.9 3.65 12.95 2.75 12.0 3.2 10.25 3.7 8.5 5.25 7.6 6.4 6.9 7.55 7.0 8.75 6.9 9.9 7.6 11.45 8.5 11.95 10.25 12.35 12.0 11.5 12.95 10.7 13.9 9.65 13.7 8.55 13.5 7.55 12.6 6.55 13.5 5.5 13.7"/></g><g id="c4"><g><use transform="matrix(1.0,0.0,0.0,1.0,0.0,0.0)" xlink:href="#c3"/></g></g><radialGradient gradientUnits="userSpaceOnUse" r="819.2" cx="0" cy="0" spreadMethod="pad" gradientTransform="matrix(0.0914459228516,0.0,0.0,0.0914459228516,0.6,3.4)" id="gradient1"><stop offset="0.0" stop-color="#ffffff"/><stop offset="1.0" stop-color="#ffffff" stop-opacity="0.0"/></radialGradient><g id="c5"><path stroke="none" fill="url(#gradient1)" d="M36.65 -54.65 Q60.05 -42.0 69.75 -17.95 80.55 8.9 68.0 34.1 55.45 59.35 26.8 68.2 -1.8 77.05 -29.7 64.3 -57.6 51.6 -68.45 24.75 -79.3 -2.05 -66.75 -27.25 L-66.7 -27.3 Q-54.1 -52.5 -25.5 -61.4 3.1 -70.2 31.0 -57.5 L36.65 -54.65"/></g><g id="c6"><g><use transform="matrix(1.0,0.0,0.0,1.0,0.0,0.0)" xlink:href="#c5"/></g></g><radialGradient gradientUnits="userSpaceOnUse" r="819.2" cx="0" cy="0" spreadMethod="pad" gradientTransform="matrix(0.209197998047,0.0,0.0,0.177108764648,67.15,107.2)" id="gradient2"><stop offset="0.356862745098" stop-color="#ffffff"/><stop offset="0.670588235294" stop-opacity="0.0"/></radialGradient><g id="c7"><path fill="none" stroke-linejoin="round" stroke-linecap="round" stroke="url(#gradient2)" stroke-width="0.5" d="M136.55 165.8 L68.6 106.0 68.4 106.0 118.25 201.5 M68.3 105.8 L68.35 105.8 68.3 105.8 68.3 105.85 68.4 106.0 68.3 106.0 86.55 211.5 M68.3 105.8 L68.3 105.85 68.3 106.0 68.15 105.95 18.25 151.55 M68.3 105.85 L68.25 105.85 68.3 106.0 50.0 193.2 M68.25 105.85 L68.15 105.95 0.05 97.7 M68.3 105.85 L68.25 105.8 68.25 105.85 M68.25 105.8 L68.2 105.7 0.0 45.7 M68.3 105.8 L68.25 105.75 68.25 105.8 M68.25 105.75 L68.2 105.7 18.25 10.05 M68.6 106.0 L68.35 105.8 118.25 60.15 M86.6 18.35 L68.3 105.8 M136.6 114.25 L68.6 106.0 M68.25 105.75 L49.95 0.05"/></g><g id="c8"><g><use transform="matrix(1.0,0.0,0.0,1.0,0.0,0.0)" xlink:href="#c7"/></g></g><g id="c9"><g><use transform="matrix(1.0,0.0,0.0,1.0,0.0,0.0)" xlink:href="#c2"/></g><g><use transform="matrix(0.238861083984,-0.0867004394531,0.10026550293,0.233917236328,34.25,31.15)" xlink:href="#c4"/></g><g><use transform="matrix(0.238861083984,-0.0867004394531,0.10026550293,0.233917236328,4.25,10.3)" xlink:href="#c4"/></g><g><use transform="matrix(0.141098022461,-0.0378112792969,0.111373901367,0.225646972656,20.25,20.65)" filter="url(#filter7)" xlink:href="#c6"/></g><g><use transform="matrix(-0.155029296875,0.0513153076172,0.0841827392578,0.147033691406,22.6,3.15)" filter="url(#filter8)" xlink:href="#c8"/></g></g><filter id="filter7"><feColorMatrix in="SourceGraphic" type="matrix" values="0.0 0.0 0.0 0.0 0.796875 0.0 0.0 0.0 0.0 0.59765625 0.0 0.0 0.0 0.0 0.19921875 0.0 0.0 0.0 1.0 0.0" result="cxform"/><feComposite operator="in" in2="SourceGraphic" result="color-xform"/></filter><filter id="filter8"><feColorMatrix in="SourceGraphic" type="matrix" values="0.0 0.0 0.0 0.0 0.99609375 0.0 0.0 0.0 0.0 0.99609375 0.0 0.0 0.0 0.0 0.99609375 0.0 0.0 0.0 1.0 0.0" result="cxform"/><feComposite operator="in" in2="SourceGraphic" result="color-xform"/></filter><g id="c10"><path fill="#ffcc00" stroke="none" d="M63.4 68.8 L63.2 69.15 62.85 69.55 63.4 68.8 M23.75 114.65 L23.7 114.6 21.2 113.55 57.0 68.35 59.55 69.45 23.75 114.65"/><path fill="#ff6600" stroke="none" d="M48.7 58.1 L48.85 57.95 48.9 57.85 Q49.85 56.65 52.55 57.5 55.3 58.4 58.25 60.7 61.2 63.05 62.65 65.5 63.9 67.65 63.4 68.8 L62.85 69.55 59.55 69.45 57.0 68.35 21.2 113.55 Q19.65 112.75 18.0 111.4 L16.75 110.45 52.6 65.2 Q50.6 63.35 49.45 61.45 48.15 59.3 48.7 58.1"/><path fill="#ff9900" stroke="none" d="M62.85 69.55 L26.95 114.75 26.9 114.8 26.75 114.8 25.5 115.0 23.75 114.65 59.55 69.45 62.85 69.55 M16.75 110.45 Q14.75 108.6 13.6 106.6 12.15 104.15 13.05 103.0 L48.7 58.1 Q48.15 59.3 49.45 61.45 50.6 63.35 52.6 65.2 L16.75 110.45"/><path fill="none" stroke="#000000" stroke-width="0.5" stroke-opacity="0.301960784314" d="M48.7 58.1 L48.85 57.95 48.9 57.85 Q49.85 56.65 52.55 57.5 55.3 58.4 58.25 60.7 61.2 63.05 62.65 65.5 63.9 67.65 63.4 68.8 L63.2 69.15 62.85 69.55 26.95 114.75 26.9 114.8 26.75 114.8 25.5 115.0 23.75 114.65 23.7 114.6 21.2 113.55 Q19.65 112.75 18.0 111.4 L16.75 110.45 Q14.75 108.6 13.6 106.6 12.15 104.15 13.05 103.0 L48.7 58.1 M63.4 68.8 L62.85 69.55"/><path fill="#e10404" stroke="none" d="M42.15 88.2 L35.1 97.25 34.45 96.95 31.25 94.8 30.0 93.85 29.85 93.7 29.8 93.65 36.95 84.65 37.15 84.85 38.4 85.8 41.6 87.95 42.15 88.2"/><path fill="#ad0404" stroke="none" d="M42.15 88.2 L44.05 89.0 47.35 89.1 40.25 98.1 36.95 97.95 Q36.0 97.7 35.1 97.25 L42.15 88.2 M36.95 84.65 L29.8 93.65 Q27.95 91.8 26.85 89.95 25.5 87.75 25.9 86.35 L26.0 86.15 33.45 77.35 Q32.5 78.55 33.95 81.0 35.05 82.85 36.95 84.65"/><path fill="none" stroke="#000000" stroke-width="0.5" stroke-opacity="0.301960784314" d="M47.35 89.1 L44.05 89.0 42.15 88.2 41.6 87.95 38.4 85.8 37.15 84.85 36.95 84.65 Q35.05 82.85 33.95 81.0 32.5 78.55 33.45 77.35 M35.1 97.25 Q36.0 97.7 36.95 97.95 L40.25 98.1 M29.85 93.7 L30.0 93.85 31.25 94.8 34.45 96.95 35.1 97.25 M25.9 86.35 Q25.5 87.75 26.85 89.95 27.95 91.8 29.8 93.65"/><path fill="#3b1d05" stroke="none" d="M48.15 49.65 L48.5 49.1 Q51.35 45.5 56.7 45.55 62.15 45.65 66.9 49.45 71.7 53.2 72.95 58.4 74.0 62.4 72.5 65.6 69.5 65.35 66.65 64.5 63.3 63.5 60.3 61.6 61.15 66.8 55.6 68.65 L53.0 66.95 50.8 64.85 Q55.2 64.65 56.95 59.3 52.35 55.55 48.15 49.65"/><path fill="#8f4202" stroke="none" d="M50.8 64.85 Q47.9 61.75 46.9 57.9 45.7 53.05 48.15 49.65 52.35 55.55 56.95 59.3 55.2 64.65 50.8 64.85 M72.5 65.6 L71.45 67.3 Q68.6 70.9 63.15 70.75 L61.75 70.7 Q61.9 66.65 66.65 64.5 69.5 65.35 72.5 65.6"/><path fill="#b06323" stroke="none" d="M61.75 70.7 Q58.55 70.35 55.6 68.65 61.15 66.8 60.3 61.6 63.3 63.5 66.65 64.5 61.9 66.65 61.75 70.7"/><path fill="none" stroke="#000000" stroke-width="0.5" stroke-opacity="0.301960784314" d="M50.8 64.85 Q47.9 61.75 46.9 57.9 45.7 53.05 48.15 49.65 L48.5 49.1 Q51.35 45.5 56.7 45.55 62.15 45.65 66.9 49.45 71.7 53.2 72.95 58.4 74.0 62.4 72.5 65.6 L71.45 67.3 Q68.6 70.9 63.15 70.75 L61.75 70.7 Q58.55 70.35 55.6 68.65 L53.0 66.95 50.8 64.85"/><path fill="#e10404" stroke="none" d="M103.2 44.2 Q114.55 55.6 122.45 68.9 L114.95 67.45 Q110.45 64.75 105.0 60.4 99.25 55.85 97.9 54.3 94.9 51.0 96.05 48.7 L96.5 48.05 Q98.15 45.95 102.2 44.5 L103.2 44.2 M39.8 1.6 Q53.8 6.8 65.45 14.1 L65.4 14.55 Q65.15 17.6 64.0 19.1 L63.8 19.35 Q61.3 22.4 58.15 21.9 55.4 21.5 51.05 18.1 45.55 13.75 40.25 2.6 L39.8 1.6"/><path fill="#ad0404" stroke="none" d="M103.2 44.2 L102.2 44.5 Q98.15 45.95 96.5 48.05 L96.05 48.7 Q94.9 51.0 97.9 54.3 99.25 55.85 105.0 60.4 110.45 64.75 114.95 67.45 93.65 63.7 70.45 65.1 57.3 59.85 50.0 48.9 46.6 25.25 35.45 -0.05 L39.8 1.6 40.25 2.6 Q45.55 13.75 51.05 18.1 55.4 21.5 58.15 21.9 61.3 22.4 63.8 19.35 L64.0 19.1 Q65.15 17.6 65.4 14.55 L65.45 14.1 70.6 17.45 96.5 37.95 97.55 38.9 103.2 44.2"/><path fill="#fbf0c8" stroke="none" d="M68.8 23.95 Q68.65 24.65 68.75 25.5 68.95 28.1 70.9 29.65 71.9 30.45 73.05 30.75 L75.4 30.8 Q78.0 30.35 79.75 28.15 80.7 26.95 81.05 25.7 L84.05 26.95 88.45 27.6 Q94.0 27.7 97.85 24.6 101.8 21.7 101.7 17.1 101.6 12.65 97.5 9.4 93.4 6.1 87.9 6.0 82.3 5.9 78.5 8.85 74.55 11.9 74.65 16.45 L74.7 16.55 Q72.15 17.0 70.45 19.15 68.85 21.15 68.9 23.65 L68.8 23.95 M59.0 20.9 L59.05 20.85 Q60.2 19.95 62.0 20.25 63.45 16.35 66.2 12.9 72.55 4.9 82.2 3.4 91.95 1.95 99.35 7.85 104.8 12.15 106.6 18.5 106.3 24.55 103.1 29.1 L100.7 31.9 97.55 35.35 97.5 34.5 Q97.4 31.85 95.45 30.3 93.5 28.75 90.85 29.2 88.3 29.7 86.55 31.9 L86.2 32.4 Q85.05 33.95 84.9 35.8 84.6 36.9 84.7 38.15 84.9 40.75 86.85 42.3 87.85 43.1 89.05 43.4 L86.65 45.3 Q86.15 44.2 85.1 43.35 84.1 42.55 82.5 42.05 80.4 38.6 76.6 37.35 73.95 33.95 70.1 32.1 68.1 29.9 65.4 28.4 L62.3 29.0 56.4 35.55 52.3 42.75 55.55 50.15 52.75 47.5 51.3 43.55 Q51.95 39.25 53.85 35.05 55.25 31.85 57.3 28.6 61.4 28.6 63.3 27.15 L63.6 26.85 62.7 26.25 Q59.15 23.75 58.8 21.1 L59.0 20.9 M97.65 45.75 L97.2 46.05 Q97.45 49.95 93.9 51.8 L93.7 51.9 93.65 51.85 Q90.5 49.6 89.8 48.0 89.2 46.4 90.55 45.35 L91.15 45.4 92.15 45.35 97.65 45.75 M81.3 43.35 L75.5 50.7 77.1 51.1 79.25 51.3 80.1 51.2 Q83.85 50.75 87.1 47.4 L87.3 47.75 82.1 55.4 82.0 55.55 81.1 55.15 82.0 55.55 76.5 61.05 76.4 61.05 Q75.3 62.05 73.3 61.95 L70.3 61.2 70.0 61.1 Q59.3 57.85 55.75 50.3 L56.8 51.0 56.0 49.8 Q63.45 53.25 67.25 47.85 L68.1 46.45 68.95 47.1 69.75 46.1 68.95 47.1 68.1 46.45 62.35 41.45 63.2 40.35 Q68.1 43.95 72.5 41.05 74.05 40.0 75.45 38.2 L75.7 38.55 69.75 46.1 Q73.0 46.9 75.75 46.0 78.6 45.05 80.9 42.5 L81.3 43.35 M55.9 49.6 Q53.85 46.25 53.35 42.65 L53.45 42.55 Q56.45 48.2 60.85 41.75 L61.5 40.7 62.35 41.45 55.9 49.6 M69.25 58.55 Q72.4 59.7 75.05 59.25 76.5 58.95 77.85 58.15 79.6 57.0 81.1 55.15 L78.6 53.65 75.55 51.75 74.95 51.35 74.05 50.8 74.95 51.35 75.5 50.7 74.95 51.35 69.25 58.55 68.5 59.45 Q71.3 60.5 74.05 60.8 L76.4 61.05 74.05 60.8 Q71.3 60.5 68.5 59.45 L69.25 58.55 M74.4 32.8 L77.2 34.35 78.9 32.2 74.4 32.8 M81.75 34.25 L80.05 36.4 82.05 39.35 81.75 34.25 M62.35 55.45 Q68.05 58.7 72.55 53.05 L72.85 52.7 74.05 50.8 68.95 47.1 62.35 55.45 61.9 56.0 Q64.9 58.1 68.5 59.45 64.9 58.1 61.9 56.0 L62.35 55.45 M61.9 56.0 L60.85 55.2 Q58.55 53.35 56.8 51.0 58.55 53.35 60.85 55.2 L61.9 56.0"/><path fill="#fefcf8" stroke="none" d="M74.7 16.55 L74.65 16.45 Q74.55 11.9 78.5 8.85 82.3 5.9 87.9 6.0 93.4 6.1 97.5 9.4 101.6 12.65 101.7 17.1 101.8 21.7 97.85 24.6 94.0 27.7 88.45 27.6 L84.05 26.95 81.05 25.7 Q80.7 26.95 79.75 28.15 78.0 30.35 75.4 30.8 L73.05 30.75 Q71.9 30.45 70.9 29.65 68.95 28.1 68.75 25.5 68.65 24.65 68.8 23.95 L68.9 23.95 Q69.1 26.6 71.0 28.15 72.95 29.65 75.55 29.2 78.15 28.75 79.9 26.6 L80.65 25.45 81.35 23.65 81.45 21.75 Q81.3 19.1 79.35 17.6 77.45 16.05 74.8 16.5 L74.7 16.55 M97.25 36.9 Q97.15 38.95 95.7 40.8 93.95 43.0 91.35 43.45 L90.45 43.55 89.05 43.4 Q87.85 43.1 86.85 42.3 84.9 40.75 84.7 38.15 84.6 36.9 84.9 35.8 L84.95 36.65 Q85.15 39.3 87.1 40.85 88.35 41.85 89.85 42.0 L90.6 42.05 91.6 41.95 Q94.2 41.5 95.95 39.35 96.9 38.15 97.25 36.9 M81.3 43.35 Q83.1 43.7 84.35 44.5 L85.95 45.75 87.05 47.25 87.1 47.4 Q83.85 50.75 80.1 51.2 L79.25 51.3 77.1 51.1 75.5 50.7 81.3 43.35 M56.0 49.8 L55.9 49.6 62.35 41.45 68.1 46.45 67.25 47.85 Q63.45 53.25 56.0 49.8 M53.45 42.55 L57.2 36.35 61.45 40.65 61.5 40.7 60.85 41.75 Q56.45 48.2 53.45 42.55 M68.75 33.4 Q73.0 34.25 75.45 38.2 74.05 40.0 72.5 41.05 68.1 43.95 63.2 40.35 L68.75 33.4 M75.7 38.55 Q79.1 39.5 80.9 42.5 78.6 45.05 75.75 46.0 73.0 46.9 69.75 46.1 L75.7 38.55 M81.1 55.15 Q79.6 57.0 77.85 58.15 76.5 58.95 75.05 59.25 72.4 59.7 69.25 58.55 L74.95 51.35 75.55 51.75 78.6 53.65 81.1 55.15 M74.05 50.8 L72.85 52.7 72.55 53.05 Q68.05 58.7 62.35 55.45 L68.95 47.1 74.05 50.8"/><path fill="#e6d795" stroke="none" d="M106.6 18.5 Q107.3 20.8 107.55 23.45 108.35 33.3 102.0 41.3 L100.05 43.5 97.65 45.75 92.15 45.35 91.15 45.4 90.55 45.35 Q89.2 46.4 89.8 48.0 90.5 49.6 93.65 51.85 L93.7 51.9 Q92.0 52.75 89.45 53.1 84.75 57.9 80.6 60.8 78.35 62.35 76.15 63.4 L76.15 63.45 72.5 63.25 Q58.75 61.85 52.75 47.5 L55.55 50.15 52.3 42.75 56.4 35.55 62.3 29.0 65.4 28.4 Q68.1 29.9 70.1 32.1 73.95 33.95 76.6 37.35 80.4 38.6 82.5 42.05 84.1 42.55 85.1 43.35 86.15 44.2 86.65 45.3 L89.05 43.4 90.45 43.55 91.35 43.45 Q93.95 43.0 95.7 40.8 97.15 38.95 97.25 36.9 L97.55 35.35 100.7 31.9 103.1 29.1 Q106.3 24.55 106.6 18.5 M57.3 28.6 Q57.0 22.9 58.8 21.1 59.15 23.75 62.7 26.25 L63.6 26.85 63.3 27.15 Q61.4 28.6 57.3 28.6 M87.05 47.25 L85.95 45.75 84.35 44.5 Q83.1 43.7 81.3 43.35 L80.9 42.5 Q79.1 39.5 75.7 38.55 L75.45 38.2 Q73.0 34.25 68.75 33.4 L68.15 32.3 68.1 32.15 Q66.8 30.35 65.05 29.75 L63.7 29.5 57.8 35.65 57.2 36.35 53.45 42.55 53.35 42.65 Q53.85 46.25 55.9 49.6 L56.0 49.8 56.8 51.0 55.75 50.3 Q59.3 57.85 70.0 61.1 L70.3 61.2 73.3 61.95 Q75.3 62.05 76.4 61.05 L76.5 61.05 82.0 55.55 82.1 55.4 87.3 47.75 87.1 47.4 87.05 47.25"/><path fill="#000000" stroke="none" d="M68.9 23.65 Q68.85 21.15 70.45 19.15 72.15 17.0 74.7 16.55 L74.8 16.5 Q77.45 16.05 79.35 17.6 81.3 19.1 81.45 21.75 L81.35 23.65 80.65 25.45 79.9 26.6 Q78.15 28.75 75.55 29.2 72.95 29.65 71.0 28.15 69.1 26.6 68.9 23.95 L68.9 23.65 M97.55 35.35 L97.25 36.9 Q96.9 38.15 95.95 39.35 94.2 41.5 91.6 41.95 L90.6 42.05 89.85 42.0 Q88.35 41.85 87.1 40.85 85.15 39.3 84.95 36.65 L84.9 35.8 Q85.05 33.95 86.2 32.4 L86.55 31.9 Q88.3 29.7 90.85 29.2 93.5 28.75 95.45 30.3 97.4 31.85 97.5 34.5 L97.55 35.35"/><path fill="#ffde4f" stroke="none" d="M57.8 35.65 L63.7 29.5 65.05 29.75 Q66.8 30.35 68.1 32.15 L68.15 32.3 67.35 33.35 Q62.25 39.75 57.8 35.65"/><path fill="#f4a33c" stroke="none" d="M57.2 36.35 L57.8 35.65 Q62.25 39.75 67.35 33.35 L68.15 32.3 68.75 33.4 63.2 40.35 62.35 41.45 61.5 40.7 61.45 40.65 57.2 36.35 M74.4 32.8 L78.9 32.2 77.2 34.35 74.4 32.8 M81.75 34.25 L82.05 39.35 80.05 36.4 81.75 34.25"/><path fill="none" stroke="#000000" stroke-width="0.5" stroke-opacity="0.301960784314" d="M68.9 23.65 Q68.85 21.15 70.45 19.15 72.15 17.0 74.7 16.55 L74.8 16.5 Q77.45 16.05 79.35 17.6 81.3 19.1 81.45 21.75 L81.35 23.65 80.65 25.45 79.9 26.6 Q78.15 28.75 75.55 29.2 72.95 29.65 71.0 28.15 69.1 26.6 68.9 23.95 L68.9 23.65 M59.0 20.9 L59.05 20.85 Q60.2 19.95 62.0 20.25 63.45 16.35 66.2 12.9 72.55 4.9 82.2 3.4 91.95 1.95 99.35 7.85 104.8 12.15 106.6 18.5 107.3 20.8 107.55 23.45 108.35 33.3 102.0 41.3 L100.05 43.5 97.65 45.75 97.2 46.05 Q97.45 49.95 93.9 51.8 M93.7 51.9 Q92.0 52.75 89.45 53.1 84.75 57.9 80.6 60.8 78.35 62.35 76.15 63.4 L76.15 63.45 72.5 63.25 Q58.75 61.85 52.75 47.5 L51.3 43.55 Q51.95 39.25 53.85 35.05 55.25 31.85 57.3 28.6 57.0 22.9 58.8 21.1 M97.55 35.35 L97.25 36.9 Q96.9 38.15 95.95 39.35 94.2 41.5 91.6 41.95 L90.6 42.05 89.85 42.0 Q88.35 41.85 87.1 40.85 85.15 39.3 84.95 36.65 L84.9 35.8 Q85.05 33.95 86.2 32.4 L86.55 31.9 Q88.3 29.7 90.85 29.2 93.5 28.75 95.45 30.3 97.4 31.85 97.5 34.5 L97.55 35.35 M87.05 47.25 L85.95 45.75 84.35 44.5 Q83.1 43.7 81.3 43.35 L75.5 50.7 M82.0 55.55 L82.1 55.4 87.3 47.75 87.1 47.4 M81.1 55.15 L82.0 55.55 76.5 61.05 76.4 61.05 M56.8 51.0 L56.0 49.8 55.9 49.6 Q53.85 46.25 53.35 42.65 L53.45 42.55 57.2 36.35 57.8 35.65 63.7 29.5 65.05 29.75 Q66.8 30.35 68.1 32.15 M68.15 32.3 L68.75 33.4 Q73.0 34.25 75.45 38.2 L75.7 38.55 Q79.1 39.5 80.9 42.5 L81.3 43.35 M69.25 58.55 L68.5 59.45 Q71.3 60.5 74.05 60.8 L76.4 61.05 M74.95 51.35 L75.55 51.75 78.6 53.65 81.1 55.15 M68.1 46.45 L68.95 47.1 69.75 46.1 75.7 38.55 M62.35 55.45 L61.9 56.0 Q64.9 58.1 68.5 59.45 M74.05 50.8 L74.95 51.35 75.5 50.7 M68.95 47.1 L74.05 50.8 M61.5 40.7 L62.35 41.45 63.2 40.35 68.75 33.4 M57.2 36.35 L61.45 40.65 M56.8 51.0 Q58.55 53.35 60.85 55.2 L61.9 56.0 M62.35 41.45 L68.1 46.45 M62.35 55.45 L68.95 47.1 M74.95 51.35 L69.25 58.55 M55.9 49.6 L62.35 41.45"/><path fill="#e10404" stroke="none" d="M90.9 5.55 Q89.3 8.2 87.7 8.55 86.7 8.7 85.7 8.1 L84.2 2.85 Q86.9 0.3 91.15 3.35 L90.9 5.55 M94.2 13.4 L93.2 12.6 96.65 5.15 Q100.65 5.25 102.25 7.35 99.5 12.05 95.35 13.2 L94.2 13.4 M108.6 19.25 L106.3 19.75 Q102.6 20.2 98.95 18.3 L98.75 18.05 106.15 15.05 Q108.55 17.15 108.6 19.25 M68.0 14.95 Q69.4 12.95 72.0 11.3 L72.5 11.1 Q75.5 9.45 77.9 9.85 85.3 10.75 87.85 17.05 90.35 20.2 95.9 22.3 100.7 24.1 102.95 28.75 L103.45 30.1 Q104.55 33.0 103.55 35.85 101.75 34.75 101.85 32.15 L101.4 30.9 Q99.25 26.4 94.0 24.15 89.55 22.55 86.3 19.05 83.7 14.1 78.7 11.6 75.6 11.75 72.5 12.85 70.25 13.6 68.0 14.95 M95.65 39.75 L95.95 39.35 96.1 39.1 98.4 39.6 Q98.3 40.75 95.65 39.75 M97.55 35.0 L97.5 34.5 97.4 33.5 99.2 34.1 100.0 33.9 Q100.5 35.2 98.5 35.1 L97.55 35.0 M73.6 14.25 Q73.35 15.45 74.3 16.6 L74.4 16.65 74.4 16.7 74.1 16.7 72.55 16.05 Q71.8 15.5 71.65 14.55 L73.6 14.25"/><path fill="#ad0404" stroke="none" d="M85.7 8.1 Q86.7 8.7 87.7 8.55 89.3 8.2 90.9 5.55 L90.15 11.4 86.35 10.35 85.7 8.1 M94.2 13.4 L95.35 13.2 Q99.5 12.05 102.25 7.35 103.1 8.3 103.35 9.85 L96.8 15.45 94.2 13.4 M98.95 18.3 Q102.6 20.2 106.3 19.75 L108.6 19.25 Q108.65 20.35 108.0 21.55 L100.45 21.35 98.95 18.3 M68.0 14.95 Q70.25 13.6 72.5 12.85 75.6 11.75 78.7 11.6 83.7 14.1 86.3 19.05 89.55 22.55 94.0 24.15 99.25 26.4 101.4 30.9 L101.85 32.15 Q101.75 34.75 103.55 35.85 L103.5 36.05 Q102.5 38.45 100.0 40.7 L97.9 42.2 97.35 42.1 96.5 41.8 94.8 40.7 94.7 40.6 95.65 39.75 Q98.3 40.75 98.4 39.6 L99.6 37.1 Q98.4 37.0 97.6 36.45 L97.45 36.3 97.55 35.35 97.55 35.0 98.5 35.1 Q100.5 35.2 100.0 33.9 L99.9 33.0 99.6 31.45 Q97.4 27.25 92.95 25.85 86.65 23.7 83.35 18.25 81.4 14.45 76.85 13.85 L74.4 14.0 73.6 14.25 71.65 14.55 Q71.8 15.5 72.55 16.05 L74.1 16.7 Q73.0 16.9 72.2 17.55 71.0 17.0 70.7 15.65 69.6 16.5 68.65 17.8 69.0 19.15 69.9 19.95 L69.15 21.55 Q67.85 21.0 66.8 19.7 66.45 19.4 66.35 18.5 66.75 16.65 68.0 14.95"/><path fill="#ffff00" stroke="none" d="M21.05 111.85 Q20.3 111.25 20.4 110.95 L21.35 110.8 Q22.15 111.05 23.25 111.65 24.3 112.2 25.05 112.85 L25.65 113.85 24.75 113.9 22.8 113.15 21.05 111.85"/><path fill="#ff9900" stroke="none" d="M21.95 74.4 L23.05 76.0 22.9 77.5 22.75 78.3 14.75 85.05 11.35 81.0 18.2 71.45 21.95 74.4 M16.5 95.25 L27.25 84.75 30.7 87.65 17.2 104.7 9.2 102.5 12.0 99.7 13.2 99.7 Q14.75 99.55 15.7 98.3 16.7 97.1 16.55 95.5 L16.5 95.25 M2.55 95.3 L0.1 93.35 3.05 91.05 7.2 87.9 10.85 88.25 2.55 95.3"/><path fill="#ffcc00" stroke="none" d="M23.05 76.0 L21.95 74.4 18.8 71.1 18.1 68.35 18.1 67.5 22.3 72.15 23.05 76.0 M22.75 78.3 L22.9 77.5 28.45 82.7 Q28.4 83.1 28.5 83.4 28.85 85.0 30.7 87.65 L27.25 84.75 16.5 95.25 Q16.35 94.05 15.5 93.3 L25.75 83.5 22.45 80.65 22.75 78.3 M9.2 102.5 L6.8 101.85 6.8 101.75 10.05 98.55 10.5 99.05 Q11.2 99.55 12.0 99.7 L9.2 102.5 M7.0 85.05 L14.35 85.8 14.75 88.7 12.8 88.45 7.9 87.2 7.0 85.05"/><path fill="#ffff00" stroke="none" d="M21.95 74.4 L18.2 71.45 11.35 81.0 10.75 80.3 17.55 71.2 18.1 68.35 18.8 71.1 21.95 74.4 M6.45 84.9 L7.0 85.05 7.9 87.2 12.8 88.45 10.85 88.25 7.2 87.9 3.05 91.05 6.95 87.0 6.45 84.9"/><path fill="#a34100" stroke="none" d="M18.1 67.5 L18.1 68.35 17.55 71.2 10.75 80.3 10.4 77.25 18.1 67.5 M15.5 93.3 Q16.35 94.05 16.5 95.25 L16.55 95.5 Q16.7 97.1 15.7 98.3 14.75 99.55 13.2 99.7 L12.0 99.7 Q11.2 99.55 10.5 99.05 L10.05 98.55 Q9.3 97.75 9.2 96.5 9.15 96.1 9.25 95.65 L9.3 95.7 Q10.5 96.65 12.0 96.4 L12.35 96.4 Q13.65 96.1 14.5 95.0 L15.2 93.6 15.3 93.1 15.5 93.3 M0.1 93.35 L-0.15 90.05 6.45 84.9 6.95 87.0 3.05 91.05 0.1 93.35 M14.35 85.8 L15.5 85.95 18.15 89.05 14.75 88.7 14.35 85.8"/><path fill="#ff6600" stroke="none" d="M14.75 85.05 L22.75 78.3 22.45 80.65 25.75 83.5 15.5 93.3 15.3 93.1 15.25 93.1 Q14.1 92.15 12.55 92.3 11.05 92.6 10.05 93.8 9.35 94.7 9.25 95.65 9.15 96.1 9.2 96.5 9.3 97.75 10.05 98.55 L6.8 101.75 6.45 98.35 2.55 95.3 10.85 88.25 12.8 88.45 14.75 88.7 18.15 89.05 15.5 85.95 14.75 85.05"/><path fill="none" stroke="#000000" stroke-width="0.5" stroke-opacity="0.301960784314" d="M11.35 81.0 L14.75 85.05 M22.9 77.5 L23.05 76.0 22.3 72.15 18.1 67.5 10.4 77.25 10.75 80.3 11.35 81.0 M30.7 87.65 Q28.85 85.0 28.5 83.4 28.4 83.1 28.45 82.7 L22.9 77.5 M30.7 87.65 L17.2 104.7 9.2 102.5 6.8 101.85 6.8 101.75 6.45 98.35 2.55 95.3 0.1 93.35 -0.15 90.05 6.45 84.9 7.0 85.05 14.35 85.8 15.5 85.95 14.75 85.05 M15.5 85.95 L18.15 89.05 M15.3 93.1 L15.2 93.6 14.5 95.0 Q13.65 96.1 12.35 96.4 L12.0 96.4 Q10.5 96.65 9.3 95.7 L9.25 95.65 Q9.35 94.7 10.05 93.8 11.05 92.6 12.55 92.3 14.1 92.15 15.25 93.1 L15.3 93.1"/><path fill="#ffff00" stroke="none" d="M22.7 81.95 Q22.25 81.1 22.6 80.7 22.9 80.25 23.8 80.5 L25.6 81.5 27.0 83.0 Q27.4 83.8 27.1 84.25 26.75 84.65 25.9 84.45 24.95 84.2 24.05 83.5 23.1 82.75 22.7 81.95"/><path fill="none" stroke="#000000" stroke-width="1.0" stroke-opacity="0.301960784314" d="M96.9 4.9 L96.6 5.6 Q94.05 4.15 91.35 3.55 L91.4 3.1 Q87.1 0.1 84.4 2.6 L84.45 2.95 82.4 3.2 Q72.75 4.65 66.4 12.7 L65.4 14.0 Q53.8 6.85 39.95 1.6 37.85 0.75 35.65 0.05 46.4 24.5 49.95 47.4 L48.55 48.85 48.25 49.4 Q45.8 52.75 47.0 57.6 L47.5 59.3 28.75 82.55 23.25 77.3 23.4 75.95 22.65 72.1 18.5 67.45 10.75 77.2 11.1 80.2 15.9 85.85 7.35 84.95 7.2 84.95 6.8 84.85 0.2 90.0 0.45 93.25 6.85 98.2 7.15 101.65 7.1 101.7 12.65 103.25 Q12.3 104.35 13.5 106.45 14.65 108.4 16.65 110.25 L17.85 111.2 21.05 113.4 23.6 114.4 23.65 114.45 25.4 114.8 26.7 114.6 26.75 114.6 40.0 98.0 40.1 97.9 61.8 70.45 63.25 70.5 Q68.65 70.6 71.5 67.0 L72.55 65.35 72.7 65.1 Q94.8 63.9 115.15 67.5 L122.65 68.95 Q114.75 55.6 103.35 44.25 L101.3 42.2 102.2 41.1 Q108.55 33.05 107.7 23.25 L107.45 21.3 108.2 21.3 Q108.85 20.1 108.85 19.0 108.8 16.9 106.35 14.85 106.0 15.05 105.6 15.2 104.4 12.6 102.55 10.55 L103.55 9.6 Q103.3 8.1 102.45 7.15 100.85 5.05 96.9 4.9 M15.65 92.95 L15.6 93.5 14.85 94.95 Q14.0 96.0 12.7 96.25 L12.35 96.35 Q10.85 96.55 9.7 95.6 L9.6 95.55 Q9.75 94.55 10.45 93.65 11.4 92.45 12.9 92.2 14.45 92.0 15.65 92.95"/><path fill="#ffffff" fill-opacity="0.301960784314" d="M39.45 97.2 L36.9 84.9 35.65 96.1 29.0 100.2 36.75 100.55 36.9 110.05 39.45 100.75 44.65 98.35 39.45 97.2"/><path fill="#ffffff" fill-opacity="0.772549019608" d="M37.5 97.05 L31.65 92.9 35.65 98.1 34.75 102.5 37.8 99.6 41.65 103.55 38.95 98.65 39.9 95.5 37.5 97.05"/></g><g id="c11"><g><use transform="matrix(1.0,0.0,0.0,1.0,0.0,0.0)" xlink:href="#c10"/></g></g><g id="c12"><g><use transform="matrix(1.0,0.0,0.0,1.0,6.3,53.35)" xlink:href="#c9"/></g><g><use transform="matrix(-0.146041870117,0.0488891601562,0.0616760253906,0.140441894531,33.05,63.95)" xlink:href="#c11"/></g><g><use transform="matrix(0.141098022461,-0.0378112792969,0.111373901367,0.225646972656,27.2,74.05)" filter="url(#filter12)" xlink:href="#c6"/></g></g><filter id="filter12"><feColorMatrix in="SourceGraphic" type="matrix" values="1.0 0.0 0.0 0.0 0.0 0.0 1.0 0.0 0.0 0.0 0.0 0.0 1.0 0.0 0.0 0.0 0.0 0.0 0.23046875 0.0" result="cxform"/><feComposite operator="in" in2="SourceGraphic" result="color-xform"/></filter></defs><g><g><use transform="matrix(1.0,0.0,0.0,1.0,0.0,0.0)" xlink:href="#c1"/></g><g><use transform="matrix(1.15496826172,0.0,0.0,1.15496826172,-1.5,-57.15)" xlink:href="#c12"/></g></g></svg>