<?xml version='1.0' encoding='UTF-8'?>
<svg xmlns:xlink="http://www.w3.org/1999/xlink" xmlns="http://www.w3.org/2000/svg" version="1.1" width="60px" height="60px" viewBox="0.0 0.0 60.0 60.0"><defs><g id="c1"><path fill="#000000" fill-opacity="0.00392156862745" d="M0.0 0.0 L60.0 0.0 60.0 60.0 0.0 60.0 0.0 0.0"/></g><g id="c2"><path fill="#006699" stroke="none" d="M31.5 39.85 L19.8 43.65 Q17.15 44.45 15.5 43.3 14.35 42.55 13.65 40.9 L1.7 14.45 1.6 14.3 1.2 13.45 -0.75 9.05 Q-2.05 6.2 -0.3 4.75 0.3 4.25 1.2 3.9 L5.5 2.25 Q8.95 0.95 10.65 4.15 L22.3 0.4 Q26.55 -1.0 28.45 3.1 L40.55 29.95 40.9 30.7 42.95 35.15 Q43.95 37.35 43.15 38.7 42.5 39.7 40.95 40.25 L36.65 41.8 35.1 42.2 Q32.75 42.3 31.5 39.85"/><path fill="none" stroke="#000000" stroke-width="1.0" stroke-opacity="0.298039215686" d="M31.5 39.85 L19.8 43.65 Q17.15 44.45 15.5 43.3 14.35 42.55 13.65 40.9 L1.7 14.45 1.6 14.3 1.2 13.45 -0.75 9.05 Q-2.05 6.2 -0.3 4.75 0.3 4.25 1.2 3.9 L5.5 2.25 Q8.95 0.95 10.65 4.15 L22.3 0.4 Q26.55 -1.0 28.45 3.1 L40.55 29.95 40.9 30.7 42.95 35.15 Q43.95 37.35 43.15 38.7 42.5 39.7 40.95 40.25 L36.65 41.8 35.1 42.2 Q32.75 42.3 31.5 39.85"/><path fill="#300525" stroke="none" d="M0.75 8.25 L29.8 9.75 25.55 0.9 Q26.9 1.6 27.8 3.55 L40.7 32.15 Q42.6 36.3 38.3 37.65 L23.3 42.5 13.15 21.4 4.6 20.9 0.7 12.25 Q-0.45 9.75 0.75 8.25 M20.1 43.55 L19.8 43.65 Q17.15 44.45 15.5 43.3 L20.1 43.55"/><path fill="#630a4c" stroke="none" d="M25.55 0.9 L29.8 9.75 0.75 8.25 Q1.45 7.3 3.1 6.75 L21.65 0.8 25.55 0.9 M4.6 20.9 L13.15 21.4 23.3 42.5 20.1 43.55 15.5 43.3 Q14.35 42.55 13.65 40.9 L4.6 20.9"/><path fill="none" stroke="#000000" stroke-width="0.5" stroke-opacity="0.301960784314" d="M0.75 8.25 Q-0.45 9.75 0.7 12.25 L4.6 20.9 M23.3 42.5 L38.3 37.65 Q42.6 36.3 40.7 32.15 L27.8 3.55 Q26.9 1.6 25.55 0.9 L21.65 0.8 3.1 6.75 Q1.45 7.3 0.75 8.25 M20.1 43.55 L19.8 43.65 Q17.15 44.45 15.5 43.3 14.35 42.55 13.65 40.9 L4.6 20.9 M20.1 43.55 L23.3 42.5"/><path fill="#9d147b" stroke="none" d="M14.2 40.5 L1.35 11.8 Q-0.5 7.75 3.8 6.35 L22.3 0.4 Q26.55 -1.0 28.45 3.1 L41.35 31.7 Q43.25 35.85 38.9 37.25 L20.4 43.2 Q16.1 44.55 14.2 40.5"/><path fill="none" stroke="#000000" stroke-width="0.5" stroke-opacity="0.301960784314" d="M14.2 40.5 L1.35 11.8 Q-0.5 7.75 3.8 6.35 L22.3 0.4 Q26.55 -1.0 28.45 3.1 L41.35 31.7 Q43.25 35.85 38.9 37.25 L20.4 43.2 Q16.1 44.55 14.2 40.5"/><path fill="#9d147b" stroke="none" d="M31.4 39.65 L31.3 39.45 31.25 39.4 29.25 34.95 Q27.55 31.2 31.25 29.85 L35.6 28.25 Q38.8 27.1 40.5 29.85 L40.9 30.7 42.95 35.15 Q43.95 37.35 43.15 38.7 42.5 39.45 41.2 39.9 L36.9 41.45 34.85 41.85 Q32.9 41.7 31.75 39.5 L31.4 39.65"/><path fill="#630a4c" stroke="none" d="M43.15 38.7 Q42.5 39.7 40.95 40.25 L36.65 41.8 35.1 42.2 Q32.75 42.3 31.45 39.8 L31.4 39.65 31.75 39.5 Q32.9 41.7 34.85 41.85 L36.9 41.45 41.2 39.9 Q42.5 39.45 43.15 38.7"/><path fill="none" stroke="#003333" stroke-width="0.5" stroke-opacity="0.509803921569" d="M43.15 38.7 Q42.5 39.7 40.95 40.25 L36.65 41.8 35.1 42.2 Q32.75 42.3 31.45 39.8 L31.4 39.65 30.3 40.0 31.4 39.65 M40.5 29.85 L40.9 30.7 42.95 35.15 Q43.95 37.35 43.15 38.7 42.5 39.45 41.2 39.9 L36.9 41.45 34.85 41.85 Q32.9 41.7 31.75 39.5 L31.4 39.65"/><path fill="#9d147b" stroke="none" d="M10.65 4.2 L10.85 4.6 12.85 9.05 Q14.5 12.8 10.8 14.15 L6.5 15.8 Q4.5 16.6 3.1 15.8 L1.75 12.85 -0.2 8.45 Q-1.25 6.15 -0.3 4.75 0.3 4.25 1.2 3.9 L5.5 2.25 Q9.0 0.95 10.65 4.2"/><path fill="#300525" stroke="none" d="M-0.3 4.75 Q-1.25 6.15 -0.2 8.45 L1.75 12.85 3.1 15.8 Q2.25 15.35 1.6 14.3 L1.2 13.45 -0.75 9.05 Q-2.05 6.2 -0.3 4.75"/><path fill="none" stroke="#003333" stroke-width="0.5" stroke-opacity="0.509803921569" d="M3.1 15.8 L6.45 23.15 M-0.3 4.75 Q0.3 4.25 1.2 3.9 L5.5 2.25 Q9.0 0.95 10.65 4.2 M3.1 15.8 L1.75 12.85 -0.2 8.45 Q-1.25 6.15 -0.3 4.75 -2.05 6.2 -0.75 9.05 L1.2 13.45 1.6 14.3"/><path fill="#fcf2cf" stroke="none" d="M9.15 13.6 Q9.8 12.8 9.55 11.6 L9.1 10.55 22.05 6.35 Q24.9 5.45 26.25 7.85 L26.5 8.3 35.8 29.0 35.95 29.35 Q34.75 29.3 34.1 30.1 33.45 30.9 33.7 32.1 L34.0 32.9 20.65 37.2 Q18.8 37.8 17.65 37.0 16.8 36.4 16.3 35.2 L6.95 14.6 6.8 14.4 7.1 14.4 Q8.4 14.45 9.15 13.6"/><path fill="#c47fad" stroke="none" d="M9.15 13.6 Q8.4 14.45 7.1 14.4 L6.8 14.4 6.95 14.6 16.3 35.2 Q16.8 36.4 17.65 37.0 18.8 37.8 20.65 37.2 L34.0 32.9 33.7 32.1 Q33.45 30.9 34.1 30.1 34.75 29.3 35.95 29.35 L35.8 29.0 26.5 8.3 26.25 7.85 Q24.9 5.45 22.05 6.35 L9.1 10.55 9.55 11.6 Q9.8 12.8 9.15 13.6 M28.25 6.1 L35.55 22.3 39.35 30.75 Q41.1 34.5 37.2 35.7 L20.45 41.1 Q16.8 42.25 15.2 39.0 L15.0 38.6 8.25 23.65 3.35 12.8 Q1.65 9.1 5.5 7.85 L22.25 2.5 Q26.05 1.25 27.75 4.95 L28.25 6.1"/><path fill="none" stroke="#ffcc00" stroke-width="1.0" stroke-opacity="0.749019607843" d="M35.55 22.3 L39.35 30.75 Q41.1 34.5 37.2 35.7 L20.45 41.1 Q16.8 42.25 15.2 39.0 L15.0 38.6 M8.25 23.65 L3.35 12.8 Q1.65 9.1 5.5 7.85 L22.25 2.5 Q26.05 1.25 27.75 4.95 L28.25 6.1"/><path fill="none" stroke="#bf9900" stroke-width="1.0" stroke-opacity="0.749019607843" d="M28.25 6.1 L35.55 22.3 M15.0 38.6 L8.25 23.65"/><path fill="none" stroke="#f0b92b" stroke-width="0.5" d="M9.15 13.6 Q9.8 12.8 9.55 11.6 L9.1 10.55 22.05 6.35 Q24.9 5.45 26.25 7.85 L26.5 8.3 35.8 29.0 35.95 29.35 Q34.75 29.3 34.1 30.1 33.45 30.9 33.7 32.1 L34.0 32.9 20.65 37.2 Q18.8 37.8 17.65 37.0 16.8 36.4 16.3 35.2 L6.95 14.6 6.8 14.4 7.1 14.4 Q8.4 14.45 9.15 13.6"/></g><g id="c3"><path fill="#7fdbfe" stroke="none" d="M10.75 4.9 Q10.75 4.6 10.9 4.35 11.25 3.45 11.95 2.75 13.3 1.5 14.35 2.1 15.4 2.7 14.95 4.45 14.7 5.4 14.1 6.15 L13.75 6.5 Q13.1 7.15 12.35 7.35 L11.4 7.2 Q10.95 6.9 10.75 6.4 10.5 5.75 10.75 4.9 M7.5 5.9 Q7.0 5.85 6.6 5.5 6.05 5.0 5.8 4.15 L5.7 3.6 Q5.55 2.65 5.8 1.7 6.25 0.0 7.5 0.0 L7.6 0.0 Q8.85 0.0 9.3 1.7 9.55 2.65 9.4 3.6 L9.3 4.15 8.5 5.5 7.6 5.9 7.5 5.9 M4.35 4.9 Q4.6 5.75 4.35 6.4 L3.7 7.2 2.75 7.35 Q2.0 7.15 1.35 6.5 L1.0 6.15 Q0.4 5.4 0.15 4.45 -0.3 2.7 0.75 2.1 1.8 1.5 3.15 2.75 3.85 3.45 4.2 4.35 L4.35 4.9 M5.5 13.7 Q4.45 13.9 3.65 12.95 2.75 12.0 3.2 10.25 3.7 8.5 5.25 7.6 6.4 6.9 7.55 7.0 8.75 6.9 9.9 7.6 11.45 8.5 11.95 10.25 12.35 12.0 11.5 12.95 10.7 13.9 9.65 13.7 8.55 13.5 7.55 12.6 6.55 13.5 5.5 13.7"/></g><g id="c4"><g><use transform="matrix(1.0,0.0,0.0,1.0,0.0,0.0)" xlink:href="#c3"/></g></g><radialGradient gradientUnits="userSpaceOnUse" r="819.2" cx="0" cy="0" spreadMethod="pad" gradientTransform="matrix(0.0914459228516,0.0,0.0,0.0914459228516,0.6,3.4)" id="gradient1"><stop offset="0.0" stop-color="#ffffff"/><stop offset="1.0" stop-color="#ffffff" stop-opacity="0.0"/></radialGradient><g id="c5"><path stroke="none" fill="url(#gradient1)" d="M36.65 -54.65 Q60.05 -42.0 69.75 -17.95 80.55 8.9 68.0 34.1 55.45 59.35 26.8 68.2 -1.8 77.05 -29.7 64.3 -57.6 51.6 -68.45 24.75 -79.3 -2.05 -66.75 -27.25 L-66.7 -27.3 Q-54.1 -52.5 -25.5 -61.4 3.1 -70.2 31.0 -57.5 L36.65 -54.65"/></g><g id="c6"><g><use transform="matrix(1.0,0.0,0.0,1.0,0.0,0.0)" xlink:href="#c5"/></g></g><radialGradient gradientUnits="userSpaceOnUse" r="819.2" cx="0" cy="0" spreadMethod="pad" gradientTransform="matrix(0.209197998047,0.0,0.0,0.177108764648,67.15,107.2)" id="gradient2"><stop offset="0.356862745098" stop-color="#ffffff"/><stop offset="0.670588235294" stop-opacity="0.0"/></radialGradient><g id="c7"><path fill="none" stroke-linejoin="round" stroke-linecap="round" stroke="url(#gradient2)" stroke-width="0.5" d="M136.55 165.8 L68.6 106.0 68.4 106.0 118.25 201.5 M68.3 105.8 L68.35 105.8 68.3 105.8 68.3 105.85 68.4 106.0 68.3 106.0 86.55 211.5 M68.3 105.8 L68.3 105.85 68.3 106.0 68.15 105.95 18.25 151.55 M68.3 105.85 L68.25 105.85 68.3 106.0 50.0 193.2 M68.25 105.85 L68.15 105.95 0.05 97.7 M68.3 105.85 L68.25 105.8 68.25 105.85 M68.25 105.8 L68.2 105.7 0.0 45.7 M68.3 105.8 L68.25 105.75 68.25 105.8 M68.25 105.75 L68.2 105.7 18.25 10.05 M68.6 106.0 L68.35 105.8 118.25 60.15 M86.6 18.35 L68.3 105.8 M136.6 114.25 L68.6 106.0 M68.25 105.75 L49.95 0.05"/></g><g id="c8"><g><use transform="matrix(1.0,0.0,0.0,1.0,0.0,0.0)" xlink:href="#c7"/></g></g><g id="c9"><g><use transform="matrix(1.0,0.0,0.0,1.0,0.0,0.0)" xlink:href="#c2"/></g><g><use transform="matrix(0.238861083984,-0.0867004394531,0.10026550293,0.233917236328,34.25,31.15)" xlink:href="#c4"/></g><g><use transform="matrix(0.238861083984,-0.0867004394531,0.10026550293,0.233917236328,4.25,10.3)" xlink:href="#c4"/></g><g><use transform="matrix(0.141098022461,-0.0378112792969,0.111373901367,0.225646972656,20.25,20.65)" filter="url(#filter7)" xlink:href="#c6"/></g><g><use transform="matrix(-0.155029296875,0.0513153076172,0.0841827392578,0.147033691406,22.6,3.15)" filter="url(#filter8)" xlink:href="#c8"/></g></g><filter id="filter7"><feColorMatrix in="SourceGraphic" type="matrix" values="0.0 0.0 0.0 0.0 0.796875 0.0 0.0 0.0 0.0 0.59765625 0.0 0.0 0.0 0.0 0.19921875 0.0 0.0 0.0 1.0 0.0" result="cxform"/><feComposite operator="in" in2="SourceGraphic" result="color-xform"/></filter><filter id="filter8"><feColorMatrix in="SourceGraphic" type="matrix" values="0.0 0.0 0.0 0.0 0.99609375 0.0 0.0 0.0 0.0 0.99609375 0.0 0.0 0.0 0.0 0.99609375 0.0 0.0 0.0 1.0 0.0" result="cxform"/><feComposite operator="in" in2="SourceGraphic" result="color-xform"/></filter><g id="c10"><path fill="#1e4811" stroke="none" d="M45.1 32.95 L45.4 26.4 47.3 18.85 49.2 15.7 53.75 10.15 58.6 9.7 60.75 12.45 61.5 17.6 60.0 24.25 55.65 33.1 49.95 35.6 45.4 35.5 45.55 35.2 Q49.3 30.4 50.1 30.05 L50.85 30.15 Q53.35 31.5 55.45 29.5 52.6 30.05 50.15 28.55 L50.8 27.3 Q51.35 26.9 52.05 27.0 55.0 26.85 57.25 23.55 54.85 26.2 52.3 25.4 53.45 22.05 56.0 21.35 L54.9 21.3 55.3 20.95 59.65 13.35 55.0 19.3 54.55 18.95 54.2 18.15 54.15 20.8 53.0 22.5 52.6 16.65 Q51.9 20.0 52.0 23.35 L51.65 24.2 49.35 27.4 49.45 27.2 49.1 23.65 48.95 23.6 49.2 21.3 Q49.5 18.3 49.2 15.7 L49.05 16.3 49.05 17.55 48.65 18.8 48.4 21.4 Q48.1 25.05 49.05 28.2 L47.85 29.55 47.8 29.45 45.1 32.95"/><path fill="#638549" stroke="none" d="M45.4 35.5 L45.5 35.1 45.1 32.95 47.8 29.45 47.85 29.55 49.05 28.2 Q48.1 25.05 48.4 21.4 L48.65 18.8 49.05 17.55 49.05 16.3 49.2 15.7 Q49.5 18.3 49.2 21.3 L48.95 23.6 49.1 23.65 49.45 27.2 49.35 27.4 51.65 24.2 52.0 23.35 Q51.9 20.0 52.6 16.65 L53.0 22.5 54.15 20.8 54.2 18.15 54.55 18.95 55.0 19.3 59.65 13.35 55.3 20.95 54.9 21.3 56.0 21.35 Q53.45 22.05 52.3 25.4 54.85 26.2 57.25 23.55 55.0 26.85 52.05 27.0 51.35 26.9 50.8 27.3 L50.15 28.55 Q52.6 30.05 55.45 29.5 53.35 31.5 50.85 30.15 L50.1 30.05 Q49.3 30.4 45.55 35.2 L45.4 35.5"/><path fill="none" stroke="#000000" stroke-width="0.5" stroke-opacity="0.4" d="M45.1 32.95 L45.4 26.4 47.3 18.85 49.2 15.7 53.75 10.15 58.6 9.7 60.75 12.45 61.5 17.6 60.0 24.25 55.65 33.1 49.95 35.6 45.4 35.5 M47.8 29.45 L47.85 29.55"/><path fill="#1e4811" stroke="none" d="M38.3 44.1 L34.2 43.85 34.25 43.85 32.65 43.8 Q31.7 41.6 29.45 39.8 28.65 39.15 27.75 38.65 L26.9 38.1 Q26.55 37.65 26.1 37.5 L25.65 37.25 28.95 37.8 34.5 40.7 38.3 44.1 M39.55 45.6 L35.85 48.45 29.95 50.5 27.2 50.05 21.7 48.3 16.95 45.55 14.65 42.35 14.9 39.55 19.0 37.0 25.25 37.2 25.65 37.25 Q26.9 38.85 28.75 40.25 L30.1 41.35 30.15 41.55 31.8 43.65 31.8 43.7 28.35 43.35 27.65 43.0 Q25.85 41.1 23.45 39.8 L26.3 43.2 24.45 42.95 22.95 41.6 23.05 42.2 22.95 42.6 16.1 42.15 23.65 43.7 24.05 43.75 23.4 44.4 28.5 44.25 Q26.9 46.3 23.55 46.3 27.0 46.7 29.45 45.0 30.0 44.65 30.7 44.45 L31.85 44.75 Q30.8 47.1 28.2 48.4 30.85 48.25 32.15 46.1 32.3 45.75 32.85 45.55 33.65 45.25 39.25 45.55 L39.55 45.6"/><path fill="#638549" stroke="none" d="M34.2 43.85 L38.3 44.1 39.2 45.55 39.55 45.6 39.25 45.55 Q33.65 45.25 32.85 45.55 32.3 45.75 32.15 46.1 30.85 48.25 28.2 48.4 30.8 47.1 31.85 44.75 L30.7 44.45 Q30.0 44.65 29.45 45.0 27.0 46.7 23.55 46.3 26.9 46.3 28.5 44.25 L23.4 44.4 24.05 43.75 23.65 43.7 16.1 42.15 22.95 42.6 23.05 42.2 22.95 41.6 24.45 42.95 26.3 43.2 23.45 39.8 Q25.85 41.1 27.65 43.0 L28.35 43.35 31.8 43.7 31.8 43.65 30.15 41.55 30.1 41.35 28.75 40.25 Q26.9 38.85 25.65 37.25 L26.1 37.5 Q26.55 37.65 26.9 38.1 L27.75 38.65 Q28.65 39.15 29.45 39.8 31.7 41.6 32.65 43.8 L34.25 43.85 34.2 43.85"/><path fill="none" stroke="#000000" stroke-width="0.5" stroke-opacity="0.4" d="M38.3 44.1 L34.5 40.7 28.95 37.8 25.65 37.25 M34.25 43.85 L34.2 43.85 M39.55 45.6 L35.85 48.45 29.95 50.5 27.2 50.05 21.7 48.3 16.95 45.55 14.65 42.35 14.9 39.55 19.0 37.0 25.25 37.2 25.65 37.25"/><path fill="#1e4811" stroke="none" d="M46.7 15.15 L46.4 14.55 39.75 5.7 30.4 2.9 24.95 5.65 21.65 12.45 21.95 22.15 24.9 31.75 27.15 36.05 34.85 40.6 37.5 41.95 46.9 43.85 46.6 43.45 Q41.0 35.3 39.45 34.5 38.6 34.05 37.7 34.15 32.35 34.85 29.05 31.25 34.35 33.3 39.95 32.3 L39.1 30.25 Q38.0 29.55 36.7 29.25 30.85 27.65 27.7 22.45 31.45 27.1 37.0 27.0 35.9 22.0 30.95 20.1 L33.05 20.25 32.65 19.7 Q29.55 13.75 27.0 7.45 30.3 12.7 33.8 17.55 L34.7 17.2 35.7 16.35 34.8 19.95 36.45 22.7 Q37.75 18.85 39.55 15.0 39.85 19.8 38.35 24.45 L38.5 25.75 41.8 30.95 41.9 30.85 Q42.7 28.6 43.95 26.2 L44.15 26.0 44.7 22.85 Q45.1 18.7 46.7 15.2 L46.7 15.15 M48.35 40.45 L48.4 40.45 50.35 31.35 49.4 20.35 46.75 15.2 46.75 16.15 Q46.95 16.95 46.45 17.9 L46.55 19.7 46.25 23.35 Q45.55 28.5 42.55 32.25 L44.15 34.5 48.35 40.45 M36.9 13.85 L37.15 14.45 Q37.05 15.4 36.05 15.25 35.8 15.25 35.7 15.05 L35.5 14.85 Q35.4 14.7 35.45 14.45 L35.5 14.15 35.6 13.95 35.85 13.7 35.9 13.7 36.5 13.65 36.9 13.85"/><path fill="#638549" stroke="none" d="M46.9 43.85 L46.75 43.25 48.35 40.45 44.15 34.5 42.55 32.25 Q45.55 28.5 46.25 23.35 L46.55 19.7 46.45 17.9 Q46.95 16.95 46.75 16.15 L46.75 15.2 46.7 15.2 Q45.1 18.7 44.7 22.85 L44.15 26.0 43.95 26.2 Q42.7 28.6 41.9 30.85 L41.8 30.95 38.5 25.75 38.35 24.45 Q39.85 19.8 39.55 15.0 37.75 18.85 36.45 22.7 L34.8 19.95 35.7 16.35 34.7 17.2 33.8 17.55 Q30.3 12.7 27.0 7.45 29.55 13.75 32.65 19.7 L33.05 20.25 30.95 20.1 Q35.9 22.0 37.0 27.0 31.45 27.1 27.7 22.45 30.85 27.65 36.7 29.25 38.0 29.55 39.1 30.25 L39.95 32.3 Q34.35 33.3 29.05 31.25 32.35 34.85 37.7 34.15 38.6 34.05 39.45 34.5 41.0 35.3 46.6 43.45 L46.9 43.85 M36.9 13.85 L36.5 13.65 35.9 13.7 35.85 13.7 35.6 13.95 35.5 14.15 35.45 14.45 Q35.4 14.7 35.5 14.85 L35.7 15.05 Q35.8 15.25 36.05 15.25 37.05 15.4 37.15 14.45 L36.9 13.85"/><path fill="none" stroke="#000000" stroke-width="0.5" stroke-opacity="0.4" d="M46.7 15.15 L46.4 14.55 39.75 5.7 30.4 2.9 24.95 5.65 21.65 12.45 21.95 22.15 24.9 31.75 27.15 36.05 34.85 40.6 37.5 41.95 46.9 43.85 M48.35 40.45 L48.4 40.45 50.35 31.35 49.4 20.35 46.75 15.2"/><path fill="#6d562f" stroke="none" d="M74.0 10.85 L88.15 -4.0 101.4 4.35 103.85 2.5 112.1 7.55 109.65 9.85 109.5 10.15 108.75 10.3 Q85.65 17.05 51.9 46.4 39.9 58.05 28.05 66.45 L18.85 72.35 Q12.6 75.95 6.55 78.55 3.4 76.55 3.25 72.65 L30.65 50.55 Q36.3 50.15 41.05 47.7 45.7 45.35 52.45 39.3 L74.0 10.85 M113.4 33.25 L111.65 34.95 Q93.45 52.75 74.25 73.65 62.15 78.55 50.3 90.4 44.4 96.2 38.3 104.55 L32.55 101.65 Q31.8 98.65 45.95 82.75 L49.3 77.7 Q50.9 74.25 41.05 85.2 L38.2 88.4 27.05 97.2 17.7 93.6 15.2 91.4 28.05 80.0 29.8 78.7 Q52.6 58.5 79.3 37.55 97.8 25.15 114.85 23.7 L69.8 66.9 Q93.3 47.25 113.25 32.95 L113.4 33.25 M70.25 55.6 L64.0 62.25 70.25 55.6"/><path fill="#c1b98f" stroke="none" d="M109.5 10.15 L109.65 9.85 109.8 10.15 109.5 10.15"/><path fill="#b3894d" stroke="none" d="M74.0 10.85 L52.45 39.3 Q45.7 45.35 41.05 47.7 36.3 50.15 30.65 50.55 55.5 30.35 74.0 10.85 M6.55 78.55 Q12.6 75.95 18.85 72.35 L28.05 66.45 Q39.9 58.05 51.9 46.4 85.65 17.05 108.75 10.3 L109.5 10.15 109.8 10.15 109.95 10.0 112.1 11.45 Q116.7 14.35 121.2 17.05 L114.85 23.7 Q97.8 25.15 79.3 37.55 52.6 58.5 29.8 78.7 L28.05 80.0 15.2 91.4 10.45 87.65 12.5 85.5 13.2 84.65 13.35 84.65 29.8 70.2 13.35 84.65 13.2 84.65 6.55 78.55 M113.7 41.2 L113.7 45.35 111.65 34.95 113.4 33.25 113.7 32.65 113.7 41.2 M38.3 104.55 Q44.4 96.2 50.3 90.4 62.15 78.55 74.25 73.65 L56.2 93.75 52.6 98.35 Q48.7 102.1 44.1 105.15 L42.95 105.55 38.3 104.55"/><path fill="#6c6c38" stroke="none" d="M109.95 10.0 L109.8 10.15 109.65 9.85 109.95 10.0 M113.25 32.95 Q113.4 32.65 113.7 32.65 L113.4 33.25 113.25 32.95"/><path fill="#47361f" stroke="none" d="M109.65 9.85 L112.1 7.55 112.1 11.45 109.95 10.0 109.65 9.85 M121.2 17.05 L121.2 25.3 119.6 35.7 113.7 41.2 113.7 32.65 Q113.4 32.65 113.25 32.95 93.3 47.25 69.8 66.9 L114.85 23.7 121.2 17.05 M113.7 45.35 Q98.25 58.95 84.5 73.1 L61.4 97.35 Q52.05 107.6 43.1 119.4 L43.35 115.4 Q46.25 107.9 52.6 98.35 L56.2 93.75 74.25 73.65 Q93.45 52.75 111.65 34.95 L113.7 45.35 M49.3 77.7 L45.95 82.75 Q31.8 98.65 32.55 101.65 L30.25 104.4 28.05 107.15 28.35 104.4 28.95 98.8 49.3 77.7"/><path fill="#edc892" fill-opacity="0.901960784314" d="M3.25 72.65 Q3.4 76.55 6.55 78.55 L5.7 78.85 4.85 79.45 5.7 78.85 6.55 78.55 13.2 84.65 12.35 85.35 4.85 79.45 2.35 78.15 2.95 82.75 2.65 82.75 0.2 76.55 3.25 72.65 M17.7 93.6 L27.05 97.2 38.2 88.4 41.05 85.2 Q50.9 74.25 49.3 77.7 L28.95 98.8 28.35 104.4 26.9 100.8 17.7 93.6 M32.55 101.65 L38.3 104.55 37.45 105.4 38.3 104.55 42.95 105.55 44.1 105.15 Q48.7 102.1 52.6 98.35 46.25 107.9 43.35 115.4 41.5 108.15 38.2 106.0 L37.45 105.4 32.55 101.65"/><path fill="#e6b769" stroke="none" d="M43.1 119.4 L42.05 118.7 38.75 116.25 34.15 107.0 30.25 104.4 32.55 101.65 37.45 105.4 38.2 106.0 Q41.5 108.15 43.35 115.4 L43.1 119.4 M10.45 95.75 L6.4 92.85 3.55 85.2 3.1 84.05 2.95 82.75 2.35 78.15 4.85 79.45 12.35 85.35 12.5 85.5 10.45 87.65 15.2 91.4 17.7 93.6 26.9 100.8 28.35 104.4 17.1 95.75 10.45 95.75"/><path fill="#d6a0a0" stroke="none" d="M3.1 84.05 L2.65 82.75 2.95 82.75 3.1 84.05"/><path fill="#939672" stroke="none" d="M42.05 118.7 L38.75 116.4 38.75 116.25 42.05 118.7"/><path fill="#7d8061" stroke="none" d="M38.75 116.4 L36.0 114.35 38.75 116.25 38.75 116.4"/><path fill="#d6a85d" stroke="none" d="M36.0 114.35 L10.45 95.75 17.1 95.75 28.35 104.4 28.05 107.15 30.25 104.4 34.15 107.0 38.75 116.25 36.0 114.35"/><path fill="none" stroke="#000000" stroke-width="0.5" stroke-opacity="0.301960784314" d="M112.1 7.55 L103.85 2.5 101.4 4.35 88.15 -4.0 74.0 10.85 Q55.5 30.35 30.65 50.55 L3.25 72.65 M112.1 7.55 L112.1 11.45 Q116.7 14.35 121.2 17.05 L121.2 25.3 119.6 35.7 113.7 41.2 113.7 45.35 Q98.25 58.95 84.5 73.1 L61.4 97.35 Q52.05 107.6 43.1 119.4 L42.05 118.7 M36.0 114.35 L10.45 95.75 6.4 92.85 3.55 85.2 M2.65 82.75 L0.2 76.55 3.25 72.65 M113.7 32.65 L113.7 41.2 M28.35 104.4 L28.95 98.8 M38.75 116.25 L42.05 118.7 M38.75 116.25 L36.0 114.35 M28.35 104.4 L28.05 107.15"/><path fill="none" stroke="#382510" stroke-width="0.5" stroke-opacity="0.152941176471" d="M74.0 10.85 L52.45 39.3 Q45.7 45.35 41.05 47.7 36.3 50.15 30.65 50.55 M6.55 78.55 Q12.6 75.95 18.85 72.35 L28.05 66.45 Q39.9 58.05 51.9 46.4 85.65 17.05 108.75 10.3 M109.95 10.0 L109.8 10.15 109.5 10.15 M114.85 23.7 Q97.8 25.15 79.3 37.55 52.6 58.5 29.8 78.7 L28.05 80.0 15.2 91.4 M38.3 104.55 Q44.4 96.2 50.3 90.4 62.15 78.55 74.25 73.65 M4.85 79.45 L5.7 78.85 6.55 78.55 M37.45 105.4 L38.3 104.55"/><path fill="none" stroke="#382510" stroke-width="0.7" stroke-opacity="0.301960784314" d="M112.1 11.45 L109.95 10.0 109.65 9.85 M13.2 84.65 L13.35 84.65 29.8 70.2 M13.2 84.65 L12.5 85.5 10.45 87.65 M12.35 85.35 L12.5 85.5 M28.95 98.8 L49.3 77.7 M13.2 84.65 L12.35 85.35 M64.0 62.25 L70.25 55.6"/></g><g id="c11"><g><use transform="matrix(1.0,0.0,0.0,1.0,0.0,0.0)" xlink:href="#c5"/></g></g><g id="c12"><path fill="#1e4811" stroke="none" d="M45.1 32.95 L45.4 26.4 47.3 18.85 49.2 15.7 53.75 10.15 58.6 9.7 60.75 12.45 61.5 17.6 60.0 24.25 55.65 33.1 49.95 35.6 45.4 35.5 45.55 35.2 Q49.3 30.4 50.1 30.05 L50.85 30.15 Q53.35 31.5 55.45 29.5 52.6 30.05 50.15 28.55 L50.8 27.3 Q51.35 26.9 52.05 27.0 55.0 26.85 57.25 23.55 54.85 26.2 52.3 25.4 53.45 22.05 56.0 21.35 L54.9 21.3 55.3 20.95 59.65 13.35 55.0 19.3 54.55 18.95 54.2 18.15 54.15 20.8 53.0 22.5 52.6 16.65 Q51.9 20.0 52.0 23.35 L51.65 24.2 49.35 27.4 49.45 27.2 49.1 23.65 48.95 23.6 49.2 21.3 Q49.5 18.3 49.2 15.7 L49.05 16.3 49.05 17.55 48.65 18.8 48.4 21.4 Q48.1 25.05 49.05 28.2 L47.85 29.55 47.8 29.45 45.1 32.95"/><path fill="#638549" stroke="none" d="M45.4 35.5 L45.5 35.1 45.1 32.95 47.8 29.45 47.85 29.55 49.05 28.2 Q48.1 25.05 48.4 21.4 L48.65 18.8 49.05 17.55 49.05 16.3 49.2 15.7 Q49.5 18.3 49.2 21.3 L48.95 23.6 49.1 23.65 49.45 27.2 49.35 27.4 51.65 24.2 52.0 23.35 Q51.9 20.0 52.6 16.65 L53.0 22.5 54.15 20.8 54.2 18.15 54.55 18.95 55.0 19.3 59.65 13.35 55.3 20.95 54.9 21.3 56.0 21.35 Q53.45 22.05 52.3 25.4 54.85 26.2 57.25 23.55 55.0 26.85 52.05 27.0 51.35 26.9 50.8 27.3 L50.15 28.55 Q52.6 30.05 55.45 29.5 53.35 31.5 50.85 30.15 L50.1 30.05 Q49.3 30.4 45.55 35.2 L45.4 35.5"/><path fill="none" stroke="#000000" stroke-width="0.5" stroke-opacity="0.4" d="M45.1 32.95 L45.4 26.4 47.3 18.85 49.2 15.7 53.75 10.15 58.6 9.7 60.75 12.45 61.5 17.6 60.0 24.25 55.65 33.1 49.95 35.6 45.4 35.5 M47.8 29.45 L47.85 29.55"/><path fill="#1e4811" stroke="none" d="M34.25 43.85 L32.65 43.8 Q31.7 41.6 29.45 39.8 28.65 39.15 27.75 38.65 L26.9 38.1 Q26.55 37.65 26.1 37.5 L25.65 37.25 Q26.9 38.85 28.75 40.25 L30.1 41.35 30.15 41.55 31.8 43.65 31.8 43.7 28.35 43.35 27.65 43.0 Q25.85 41.1 23.45 39.8 L26.3 43.2 24.45 42.95 22.95 41.6 23.05 42.2 22.95 42.6 16.1 42.15 23.65 43.7 24.05 43.75 23.4 44.4 28.5 44.25 Q26.9 46.3 23.55 46.3 27.0 46.7 29.45 45.0 30.0 44.65 30.7 44.45 L31.85 44.75 Q30.8 47.1 28.2 48.4 30.85 48.25 32.15 46.1 32.3 45.75 32.85 45.55 33.65 45.25 39.25 45.55 L39.55 45.6 35.85 48.45 29.95 50.5 27.2 50.05 21.7 48.3 16.95 45.55 14.65 42.35 14.9 39.55 19.0 37.0 25.25 37.2 25.65 37.25 28.95 37.8 34.5 40.7 38.3 44.1 34.2 43.85 34.25 43.85"/><path fill="#638549" stroke="none" d="M39.55 45.6 L39.25 45.55 Q33.65 45.25 32.85 45.55 32.3 45.75 32.15 46.1 30.85 48.25 28.2 48.4 30.8 47.1 31.85 44.75 L30.7 44.45 Q30.0 44.65 29.45 45.0 27.0 46.7 23.55 46.3 26.9 46.3 28.5 44.25 L23.4 44.4 24.05 43.75 23.65 43.7 16.1 42.15 22.95 42.6 23.05 42.2 22.95 41.6 24.45 42.95 26.3 43.2 23.45 39.8 Q25.85 41.1 27.65 43.0 L28.35 43.35 31.8 43.7 31.8 43.65 30.15 41.55 30.1 41.35 28.75 40.25 Q26.9 38.85 25.65 37.25 L26.1 37.5 Q26.55 37.65 26.9 38.1 L27.75 38.65 Q28.65 39.15 29.45 39.8 31.7 41.6 32.65 43.8 L34.25 43.85 34.2 43.85 38.3 44.1 39.2 45.55 39.55 45.6"/><path fill="none" stroke="#000000" stroke-width="0.5" stroke-opacity="0.4" d="M34.2 43.85 L34.25 43.85 M39.55 45.6 L35.85 48.45 29.95 50.5 27.2 50.05 21.7 48.3 16.95 45.55 14.65 42.35 14.9 39.55 19.0 37.0 25.25 37.2 25.65 37.25 28.95 37.8 34.5 40.7 38.3 44.1"/><path fill="#1e4811" stroke="none" d="M46.7 15.15 L46.4 14.55 39.75 5.7 30.4 2.9 24.95 5.65 21.65 12.45 21.95 22.15 24.9 31.75 27.15 36.05 34.85 40.6 37.5 41.95 46.9 43.85 46.6 43.45 Q41.0 35.3 39.45 34.5 38.6 34.05 37.7 34.15 32.35 34.85 29.05 31.25 34.35 33.3 39.95 32.3 L39.1 30.25 Q38.0 29.55 36.7 29.25 30.85 27.65 27.7 22.45 31.45 27.1 37.0 27.0 35.9 22.0 30.95 20.1 L33.05 20.25 32.65 19.7 Q29.55 13.75 27.0 7.45 30.3 12.7 33.8 17.55 L34.7 17.2 35.7 16.35 34.8 19.95 36.45 22.7 Q37.75 18.85 39.55 15.0 39.85 19.8 38.35 24.45 L38.5 25.75 41.8 30.95 41.9 30.85 Q42.7 28.6 43.95 26.2 L44.15 26.0 44.7 22.85 Q45.1 18.7 46.7 15.2 L46.7 15.15 M48.35 40.45 L48.4 40.45 50.35 31.35 49.4 20.35 46.75 15.2 46.75 16.15 Q46.95 16.95 46.45 17.9 L46.55 19.7 46.25 23.35 Q45.55 28.5 42.55 32.25 L44.15 34.5 48.35 40.45 M36.9 13.85 L37.15 14.45 Q37.05 15.4 36.05 15.25 35.8 15.25 35.7 15.05 L35.5 14.85 Q35.4 14.7 35.45 14.45 L35.5 14.15 35.6 13.95 35.85 13.7 35.9 13.7 36.5 13.65 36.9 13.85"/><path fill="#638549" stroke="none" d="M46.9 43.85 L46.75 43.25 48.35 40.45 44.15 34.5 42.55 32.25 Q45.55 28.5 46.25 23.35 L46.55 19.7 46.45 17.9 Q46.95 16.95 46.75 16.15 L46.75 15.2 46.7 15.2 Q45.1 18.7 44.7 22.85 L44.15 26.0 43.95 26.2 Q42.7 28.6 41.9 30.85 L41.8 30.95 38.5 25.75 38.35 24.45 Q39.85 19.8 39.55 15.0 37.75 18.85 36.45 22.7 L34.8 19.95 35.7 16.35 34.7 17.2 33.8 17.55 Q30.3 12.7 27.0 7.45 29.55 13.75 32.65 19.7 L33.05 20.25 30.95 20.1 Q35.9 22.0 37.0 27.0 31.45 27.1 27.7 22.45 30.85 27.65 36.7 29.25 38.0 29.55 39.1 30.25 L39.95 32.3 Q34.35 33.3 29.05 31.25 32.35 34.85 37.7 34.15 38.6 34.05 39.45 34.5 41.0 35.3 46.6 43.45 L46.9 43.85 M36.9 13.85 L36.5 13.65 35.9 13.7 35.85 13.7 35.6 13.95 35.5 14.15 35.45 14.45 Q35.4 14.7 35.5 14.85 L35.7 15.05 Q35.8 15.25 36.05 15.25 37.05 15.4 37.15 14.45 L36.9 13.85"/><path fill="none" stroke="#000000" stroke-width="0.5" stroke-opacity="0.4" d="M46.7 15.15 L46.4 14.55 39.75 5.7 30.4 2.9 24.95 5.65 21.65 12.45 21.95 22.15 24.9 31.75 27.15 36.05 34.85 40.6 37.5 41.95 46.9 43.85 M48.35 40.45 L48.4 40.45 50.35 31.35 49.4 20.35 46.75 15.2"/><path fill="#6d562f" stroke="none" d="M74.0 10.85 L88.15 -4.0 101.4 4.35 103.85 2.5 112.1 7.55 109.65 9.85 109.5 10.15 108.75 10.3 Q85.65 17.05 51.9 46.4 39.9 58.05 28.05 66.45 L18.85 72.35 Q12.6 75.95 6.55 78.55 3.4 76.55 3.25 72.65 L30.65 50.55 Q36.3 50.15 41.05 47.7 45.7 45.35 52.45 39.3 L74.0 10.85 M113.4 33.25 L111.65 34.95 Q93.45 52.75 74.25 73.65 62.15 78.55 50.3 90.4 44.4 96.2 38.3 104.55 L32.55 101.65 Q31.8 98.65 45.95 82.75 L49.3 77.7 Q50.9 74.25 41.05 85.2 L38.2 88.4 27.05 97.2 17.7 93.6 15.2 91.4 28.05 80.0 29.8 78.7 Q52.6 58.5 79.3 37.55 97.8 25.15 114.85 23.7 L69.8 66.9 Q93.3 47.25 113.25 32.95 L113.4 33.25 M70.25 55.6 L64.0 62.25 70.25 55.6"/><path fill="#c1b98f" stroke="none" d="M109.5 10.15 L109.65 9.85 109.8 10.15 109.5 10.15"/><path fill="#b3894d" stroke="none" d="M74.0 10.85 L52.45 39.3 Q45.7 45.35 41.05 47.7 36.3 50.15 30.65 50.55 55.5 30.35 74.0 10.85 M6.55 78.55 Q12.6 75.95 18.85 72.35 L28.05 66.45 Q39.9 58.05 51.9 46.4 85.65 17.05 108.75 10.3 L109.5 10.15 109.8 10.15 109.95 10.0 112.1 11.45 Q116.7 14.35 121.2 17.05 L114.85 23.7 Q97.8 25.15 79.3 37.55 52.6 58.5 29.8 78.7 L28.05 80.0 15.2 91.4 10.45 87.65 12.5 85.5 13.2 84.65 13.35 84.65 29.8 70.2 13.35 84.65 13.2 84.65 6.55 78.55 M113.7 41.2 L113.7 45.35 111.65 34.95 113.4 33.25 113.7 32.65 113.7 41.2 M38.3 104.55 Q44.4 96.2 50.3 90.4 62.15 78.55 74.25 73.65 L56.2 93.75 52.6 98.35 Q48.7 102.1 44.1 105.15 L42.95 105.55 38.3 104.55"/><path fill="#6c6c38" stroke="none" d="M109.95 10.0 L109.8 10.15 109.65 9.85 109.95 10.0 M113.25 32.95 Q113.4 32.65 113.7 32.65 L113.4 33.25 113.25 32.95"/><path fill="#47361f" stroke="none" d="M109.65 9.85 L112.1 7.55 112.1 11.45 109.95 10.0 109.65 9.85 M121.2 17.05 L121.2 25.3 119.6 35.7 113.7 41.2 113.7 32.65 Q113.4 32.65 113.25 32.95 93.3 47.25 69.8 66.9 L114.85 23.7 121.2 17.05 M113.7 45.35 Q98.25 58.95 84.5 73.1 L61.4 97.35 Q52.05 107.6 43.1 119.4 L43.35 115.4 Q46.25 107.9 52.6 98.35 L56.2 93.75 74.25 73.65 Q93.45 52.75 111.65 34.95 L113.7 45.35 M49.3 77.7 L45.95 82.75 Q31.8 98.65 32.55 101.65 L30.25 104.4 28.05 107.15 28.35 104.4 28.95 98.8 49.3 77.7"/><path fill="#edc892" fill-opacity="0.901960784314" d="M3.25 72.65 Q3.4 76.55 6.55 78.55 L5.7 78.85 4.85 79.45 5.7 78.85 6.55 78.55 13.2 84.65 12.35 85.35 4.85 79.45 2.35 78.15 2.95 82.75 2.65 82.75 0.2 76.55 3.25 72.65 M17.7 93.6 L27.05 97.2 38.2 88.4 41.05 85.2 Q50.9 74.25 49.3 77.7 L28.95 98.8 28.35 104.4 26.9 100.8 17.7 93.6 M32.55 101.65 L38.3 104.55 37.45 105.4 38.3 104.55 42.95 105.55 44.1 105.15 Q48.7 102.1 52.6 98.35 46.25 107.9 43.35 115.4 41.5 108.15 38.2 106.0 L37.45 105.4 32.55 101.65"/><path fill="#e6b769" stroke="none" d="M43.1 119.4 L42.05 118.7 38.75 116.25 34.15 107.0 30.25 104.4 32.55 101.65 37.45 105.4 38.2 106.0 Q41.5 108.15 43.35 115.4 L43.1 119.4 M10.45 95.75 L6.4 92.85 3.55 85.2 3.1 84.05 2.95 82.75 2.35 78.15 4.85 79.45 12.35 85.35 12.5 85.5 10.45 87.65 15.2 91.4 17.7 93.6 26.9 100.8 28.35 104.4 17.1 95.75 10.45 95.75"/><path fill="#d6a0a0" stroke="none" d="M3.1 84.05 L2.65 82.75 2.95 82.75 3.1 84.05"/><path fill="#939672" stroke="none" d="M42.05 118.7 L38.75 116.4 38.75 116.25 42.05 118.7"/><path fill="#7d8061" stroke="none" d="M38.75 116.4 L36.0 114.35 38.75 116.25 38.75 116.4"/><path fill="#d6a85d" stroke="none" d="M36.0 114.35 L10.45 95.75 17.1 95.75 28.35 104.4 28.05 107.15 30.25 104.4 34.15 107.0 38.75 116.25 36.0 114.35"/><path fill="none" stroke="#000000" stroke-width="0.5" stroke-opacity="0.301960784314" d="M112.1 7.55 L103.85 2.5 101.4 4.35 88.15 -4.0 74.0 10.85 Q55.5 30.35 30.65 50.55 L3.25 72.65 M112.1 7.55 L112.1 11.45 Q116.7 14.35 121.2 17.05 L121.2 25.3 119.6 35.7 113.7 41.2 113.7 45.35 Q98.25 58.95 84.5 73.1 L61.4 97.35 Q52.05 107.6 43.1 119.4 L42.05 118.7 M36.0 114.35 L10.45 95.75 6.4 92.85 3.55 85.2 M2.65 82.75 L0.2 76.55 3.25 72.65 M113.7 32.65 L113.7 41.2 M38.75 116.25 L42.05 118.7 M28.35 104.4 L28.95 98.8 M38.75 116.25 L36.0 114.35 M28.35 104.4 L28.05 107.15"/><path fill="none" stroke="#382510" stroke-width="0.5" stroke-opacity="0.152941176471" d="M74.0 10.85 L52.45 39.3 Q45.7 45.35 41.05 47.7 36.3 50.15 30.65 50.55 M6.55 78.55 Q12.6 75.95 18.85 72.35 L28.05 66.45 Q39.9 58.05 51.9 46.4 85.65 17.05 108.75 10.3 M109.95 10.0 L109.8 10.15 109.5 10.15 M114.85 23.7 Q97.8 25.15 79.3 37.55 52.6 58.5 29.8 78.7 L28.05 80.0 15.2 91.4 M38.3 104.55 Q44.4 96.2 50.3 90.4 62.15 78.55 74.25 73.65 M4.85 79.45 L5.7 78.85 6.55 78.55 M37.45 105.4 L38.3 104.55"/><path fill="none" stroke="#382510" stroke-width="0.7" stroke-opacity="0.301960784314" d="M112.1 11.45 L109.95 10.0 109.65 9.85 M13.2 84.65 L13.35 84.65 29.8 70.2 M13.2 84.65 L12.5 85.5 10.45 87.65 M12.35 85.35 L12.5 85.5 M28.95 98.8 L49.3 77.7 M13.2 84.65 L12.35 85.35 M64.0 62.25 L70.25 55.6"/></g><g id="c13"><g><use transform="matrix(1.0,0.0,0.0,1.0,0.0,0.0)" xlink:href="#c10"/></g><g><use transform="matrix(0.548873901367,-0.548751831055,0.249282836914,0.168258666992,63.55,48.4)" filter="url(#filter11)" xlink:href="#c11"/></g><g><use transform="matrix(1.0,0.0,0.0,1.0,0.0,0.0)" xlink:href="#c12"/></g><g><use transform="matrix(0.548873901367,-0.548751831055,0.249282836914,0.168258666992,63.55,48.4)" filter="url(#filter13)" xlink:href="#c11"/></g></g><filter id="filter11"><feColorMatrix in="SourceGraphic" type="matrix" values="0.0 0.0 0.0 0.0 0.796875 0.0 0.0 0.0 0.0 0.3984375 0.0 0.0 0.0 0.0 0.0 0.0 0.0 0.0 0.23828125 0.0" result="cxform"/><feComposite operator="in" in2="SourceGraphic" result="color-xform"/></filter><filter id="filter13"><feColorMatrix in="SourceGraphic" type="matrix" values="0.0 0.0 0.0 0.0 0.796875 0.0 0.0 0.0 0.0 0.3984375 0.0 0.0 0.0 0.0 0.0 0.0 0.0 0.0 0.23828125 0.0" result="cxform"/><feComposite operator="in" in2="SourceGraphic" result="color-xform"/></filter><g id="c14"><g><use transform="matrix(1.0,0.0,0.0,1.0,6.3,53.35)" xlink:href="#c9"/></g><g><use transform="matrix(-0.146041870117,0.0488891601562,0.0616760253906,0.140441894531,33.05,63.95)" xlink:href="#c13"/></g><g><use transform="matrix(0.141098022461,-0.0378112792969,0.111373901367,0.225646972656,27.2,74.05)" filter="url(#filter16)" xlink:href="#c6"/></g></g><filter id="filter16"><feColorMatrix in="SourceGraphic" type="matrix" values="1.0 0.0 0.0 0.0 0.0 0.0 1.0 0.0 0.0 0.0 0.0 0.0 1.0 0.0 0.0 0.0 0.0 0.0 0.23046875 0.0" result="cxform"/><feComposite operator="in" in2="SourceGraphic" result="color-xform"/></filter></defs><g><g><use transform="matrix(1.0,0.0,0.0,1.0,0.0,0.0)" xlink:href="#c1"/></g><g><use transform="matrix(1.15496826172,0.0,0.0,1.15496826172,-1.5,-57.15)" xlink:href="#c14"/></g></g></svg>