<?xml version='1.0' encoding='UTF-8'?>
<svg xmlns:xlink="http://www.w3.org/1999/xlink" xmlns="http://www.w3.org/2000/svg" version="1.1" width="60px" height="60px" viewBox="0.0 0.0 60.0 60.0"><defs><g id="c1"><path fill="#1f0806" stroke="none" d="M-5.05 0.45 Q-4.3 3.15 -3.1 4.6 1.55 6.55 5.2 2.1 5.15 -2.4 2.7 -5.0 3.9 -2.4 3.55 0.1 0.85 2.0 -1.9 2.3 -3.7 1.7 -5.05 0.45"/><path fill="#4a1f1b" stroke="none" d="M2.7 -5.0 Q-2.6 -5.9 -5.2 -2.4 L-5.05 0.45 Q-3.7 1.7 -1.9 2.3 0.85 2.0 3.55 0.1 3.9 -2.4 2.7 -5.0"/><path fill="none" stroke="#000000" stroke-width="0.5" stroke-opacity="0.298039215686" d="M-5.05 0.45 Q-4.3 3.15 -3.1 4.6 1.55 6.55 5.2 2.1 5.15 -2.4 2.7 -5.0 -2.6 -5.9 -5.2 -2.4 L-5.05 0.45"/><path fill="#642923" stroke="none" d="M3.2 -0.85 Q3.2 -3.3 1.6 -4.7 -1.8 -5.2 -3.5 -3.3 L-3.4 -1.75 Q-2.9 -0.25 -2.1 0.55 0.85 1.6 3.2 -0.85"/><path fill="#ffd902" stroke="none" d="M2.3 1.95 L2.85 0.35 Q1.25 -3.0 -1.75 -3.2 -3.65 -2.9 -3.45 -1.25 -3.4 -0.5 -2.2 0.15 -0.75 0.4 -0.2 -0.1 L-1.1 -0.95 -2.0 -0.85 Q-2.85 -1.95 -1.65 -2.05 0.1 -1.65 1.1 0.4 L0.95 1.7 2.3 1.95"/><path fill="#fe8f06" stroke="none" d="M2.3 1.95 L0.95 1.7 0.7 2.5 Q-0.5 3.3 -1.45 2.85 L-2.25 2.35 -2.7 2.75 Q-2.05 3.8 -0.65 4.15 0.55 4.4 1.3 3.55 L2.3 1.95"/><path fill="none" stroke="#ffb600" stroke-width="0.5" stroke-opacity="0.298039215686" d="M0.95 1.7 L1.1 0.4 Q0.1 -1.65 -1.65 -2.05 -2.85 -1.95 -2.0 -0.85 L-1.1 -0.95 -0.2 -0.1 Q-0.75 0.4 -2.2 0.15 -3.4 -0.5 -3.45 -1.25 -3.65 -2.9 -1.75 -3.2 1.25 -3.0 2.85 0.35 L2.3 1.95 0.95 1.7 0.7 2.5 Q-0.5 3.3 -1.45 2.85 L-2.25 2.35 -2.7 2.75 Q-2.05 3.8 -0.65 4.15 0.55 4.4 1.3 3.55 L2.3 1.95"/></g><g id="c2"><g><use transform="matrix(1.0,0.0,0.0,1.0,0.0,0.0)" xlink:href="#c1"/></g></g><g id="c3"><path fill="#4b1f1b" stroke="none" d="M2.8 -5.2 L0.75 -5.3 Q-3.2 -5.15 -5.35 -2.2 L-5.35 -1.55 -5.2 0.6 Q-3.8 1.8 -2.0 2.3 0.9 1.85 3.7 -0.15 4.05 -2.7 2.8 -5.2"/><path fill="#230a08" stroke="none" d="M-5.2 0.6 Q-4.85 2.95 -3.65 4.9 L-0.85 5.25 Q2.7 5.1 5.4 1.75 5.35 -2.7 2.8 -5.2 4.05 -2.7 3.7 -0.15 0.9 1.85 -2.0 2.3 -3.8 1.8 -5.2 0.6"/><path fill="none" stroke="#000000" stroke-width="0.5" stroke-opacity="0.298039215686" d="M2.8 -5.2 L0.75 -5.3 Q-3.2 -5.15 -5.35 -2.2 L-5.35 -1.55 -5.2 0.6 Q-4.85 2.95 -3.65 4.9 L-0.85 5.25 Q2.7 5.1 5.4 1.75 5.35 -2.7 2.8 -5.2"/><path fill="#642923" stroke="none" d="M3.2 -2.3 Q2.9 -4.1 1.4 -5.1 L0.35 -5.1 Q-1.65 -5.05 -2.55 -3.9 L-2.5 -3.6 -2.2 -2.75 Q-1.85 -1.85 -1.1 -1.05 L0.3 -0.9 Q2.1 -1.0 3.2 -2.3"/><path fill="#fbcc23" stroke="none" d="M2.15 -1.05 L1.25 -1.9 Q0.35 -3.6 0.95 -4.2 1.65 -4.3 1.95 -3.3 L1.45 -3.3 1.55 -2.5 Q2.2 -2.25 2.75 -2.7 2.9 -3.3 2.5 -3.9 1.4 -5.1 0.25 -5.1 -1.2 -4.45 0.25 -1.75 L1.4 -0.85 2.15 -1.05"/><path fill="#fe8f06" stroke="none" d="M1.4 -0.85 L3.3 0.45 4.75 0.55 Q3.5 0.1 2.15 -1.05 L1.4 -0.85"/><path fill="none" stroke="#ffb600" stroke-width="0.5" stroke-opacity="0.298039215686" d="M2.15 -1.05 L1.25 -1.9 Q0.35 -3.6 0.95 -4.2 1.65 -4.3 1.95 -3.3 L1.45 -3.3 1.55 -2.5 Q2.2 -2.25 2.75 -2.7 2.9 -3.3 2.5 -3.9 1.4 -5.1 0.25 -5.1 -1.2 -4.45 0.25 -1.75 L1.4 -0.85 3.3 0.45 4.75 0.55 Q3.5 0.1 2.15 -1.05 L1.4 -0.85"/></g><g id="c4"><g><use transform="matrix(1.0,0.0,0.0,1.0,0.0,0.0)" xlink:href="#c3"/></g></g><g id="c5"><path fill="#ca5c06" stroke="none" d="M-5.75 0.8 Q-2.75 2.85 0.8 3.4 3.4 3.05 5.75 1.7 2.9 1.4 1.65 0.35 2.5 -0.45 2.8 -2.95 1.6 -1.5 -0.7 -1.4 -3.8 -2.15 -4.9 -3.45 L-5.75 0.8"/><path fill="none" stroke="#000000" stroke-width="0.5" stroke-opacity="0.298039215686" d="M-5.75 0.8 Q-2.75 2.85 0.8 3.4 3.4 3.05 5.75 1.7 2.9 1.4 1.65 0.35 2.5 -0.45 2.8 -2.95 1.6 -1.5 -0.7 -1.4 -3.8 -2.15 -4.9 -3.45 L-5.75 0.8"/><path fill="#230a08" stroke="none" d="M-4.35 0.3 L-0.65 2.0 Q1.6 2.1 2.4 1.6 L0.4 0.35 Q1.0 -0.2 1.15 -1.0 0.25 -0.55 -1.35 -0.6 -3.2 -1.3 -3.95 -2.2 L-4.35 0.3"/></g><g id="c6"><g><use transform="matrix(1.0,0.0,0.0,1.0,0.0,0.0)" xlink:href="#c5"/></g></g><g id="c7"><path fill="#286066" stroke="none" d="M0.65 0.8 L-2.6 0.3 -3.75 -3.1 -5.1 -3.95 -5.9 -2.1 -3.2 0.5 3.85 4.65 5.9 3.85 4.85 2.45 5.55 1.05 2.05 1.85 0.65 0.8"/><path fill="#4ba5af" stroke="none" d="M0.65 0.8 L2.05 1.85 5.55 1.05 3.45 0.2 0.65 0.8"/><path fill="none" stroke="#000000" stroke-width="0.5" stroke-opacity="0.298039215686" d="M5.55 1.05 L4.85 2.45 5.9 3.85 3.85 4.65 -3.2 0.5 -5.9 -2.1 -5.1 -3.95 -3.75 -3.1 M5.55 1.05 L3.45 0.2"/><path fill="#64d4e0" stroke="none" d="M-2.65 -4.6 L-1.7 -1.7 -0.25 -0.6 Q2.9 -0.9 3.35 -2.2 L1.45 -1.8 0.9 -3.8 -1.3 -3.15 -2.6 -4.65 -2.65 -4.6"/><path fill="#4ba5af" stroke="none" d="M-4.1 -2.95 L-3.65 0.0 0.45 1.05 3.5 0.3 3.5 -2.25 3.35 -2.2 Q2.9 -0.9 -0.25 -0.6 L-1.7 -1.7 -2.65 -4.6 -4.1 -2.95"/><path fill="none" stroke="#000000" stroke-width="0.5" stroke-opacity="0.298039215686" d="M-4.1 -2.95 L-2.65 -4.6 M3.35 -2.2 L3.5 -2.25 3.5 0.3 M3.35 -2.2 L1.45 -1.8 0.9 -3.8 -1.3 -3.15 -2.6 -4.65 -2.65 -4.6"/><path fill="none" stroke="#000000" stroke-width="0.5" stroke-opacity="0.4" d="M0.45 1.05 L-3.65 0.0"/></g><g id="c8"><g><use transform="matrix(1.0,0.0,0.0,1.0,0.0,0.0)" xlink:href="#c7"/></g></g><g id="c9"><path fill="#a0372f" stroke="none" d="M-0.75 -2.1 L-1.45 2.2 Q-1.15 2.65 -0.35 2.75 0.75 2.2 1.35 1.0 1.6 -0.25 1.45 -1.9 L0.25 -2.75 Q-0.45 -2.6 -0.75 -2.1"/><path fill="none" stroke="#000000" stroke-width="0.5" stroke-opacity="0.298039215686" d="M-0.75 -2.1 Q-0.45 -2.6 0.25 -2.75 L1.45 -1.9 Q1.6 -0.25 1.35 1.0 0.75 2.2 -0.35 2.75 -1.15 2.65 -1.45 2.2 L-0.75 -2.1"/></g><g id="c10"><g><use transform="matrix(1.0,0.0,0.0,1.0,0.0,0.0)" xlink:href="#c9"/></g></g><g id="c11"><path fill="#826f6d" stroke="none" d="M-10.0 -2.85 L-8.75 1.95 -6.8 5.2 -1.3 8.45 5.0 9.65 6.8 7.65 -10.0 -2.85"/><path fill="#e5d6c2" stroke="none" d="M6.8 7.65 L8.65 5.55 9.65 -0.1 Q9.75 -0.55 8.85 -4.65 L5.8 -8.5 0.95 -10.55 Q-3.2 -10.1 -6.65 -8.95 -8.6 -6.8 -10.0 -2.85 L6.8 7.65"/><path fill="none" stroke="#000000" stroke-width="0.5" stroke-opacity="0.298039215686" d="M-10.0 -2.85 L-8.75 1.95 -6.8 5.2 -1.3 8.45 M5.0 9.65 L6.8 7.65 8.65 5.55 M8.85 -4.65 L5.8 -8.5 0.95 -10.55 Q-3.2 -10.1 -6.65 -8.95 -8.6 -6.8 -10.0 -2.85"/><path fill="#b6a99d" stroke="none" d="M2.2 -6.8 L0.55 -6.8 -3.95 -2.7 -5.0 1.05 Q-4.55 4.55 -2.75 7.9 L-0.15 9.55 4.9 10.95 Q1.55 9.9 -1.15 7.9 -2.5 5.9 -3.35 0.9 -1.8 0.25 -0.5 -2.5 L2.2 -6.8"/><path fill="#f3f1d2" stroke="none" d="M2.2 -6.8 L-0.5 -2.5 Q-1.8 0.25 -3.35 0.9 -2.5 5.9 -1.15 7.9 1.55 9.9 4.9 10.95 5.8 11.0 6.5 10.55 L8.1 8.6 9.55 6.4 9.5 4.35 10.05 1.05 Q10.1 -0.65 9.6 -3.05 L6.15 -6.8 2.2 -6.8"/><path fill="none" stroke="#000000" stroke-width="0.5" stroke-opacity="0.298039215686" d="M4.9 10.95 L-0.15 9.55 -2.75 7.9 M9.6 -3.05 Q10.1 -0.65 10.05 1.05 L9.5 4.35 9.55 6.4 8.1 8.6 6.5 10.55 Q5.8 11.0 4.9 10.95"/><path fill="#fffde0" stroke="none" d="M-1.6 1.65 L-1.6 0.65 0.9 1.2 0.55 -0.1 3.4 0.85 2.45 -0.75 5.1 0.7 6.1 -2.65 6.35 -0.6 7.15 -3.15 7.75 -1.4 8.45 -2.5 8.7 -1.45 9.55 -3.0 Q9.25 -4.95 7.9 -6.5 L6.3 -8.05 3.45 -9.15 4.35 -8.6 0.8 -9.6 1.6 -8.3 -1.0 -8.9 -0.3 -7.7 -3.5 -8.35 -2.2 -6.5 -5.4 -7.55 -4.95 -5.8 -5.25 -1.25 -5.4 -1.2 -4.6 0.5 -1.6 1.65"/><path fill="#e8e1cb" stroke="none" d="M-1.7 -10.8 L-4.4 -10.0 Q-5.7 -9.0 -4.1 -8.8 -3.8 -9.8 -1.7 -10.8"/><path fill="#f4f2d7" stroke="none" d="M1.8 -10.75 Q0.15 -11.0 -1.7 -10.8 -3.8 -9.8 -4.1 -8.8 L-3.1 -7.95 Q-1.7 -10.8 1.8 -10.75"/><path fill="#fcfade" stroke="none" d="M-3.1 -7.95 L-3.4 -5.1 Q3.6 -9.6 6.4 -8.3 5.1 -9.55 3.6 -10.2 L1.8 -10.75 Q-1.7 -10.8 -3.1 -7.95"/><path fill="#fffde0" stroke="none" d="M-3.4 -5.1 L1.8 -3.15 0.95 -1.85 Q7.85 -2.55 9.0 -4.55 L7.7 -6.7 7.65 -6.8 6.4 -8.3 Q3.6 -9.6 -3.4 -5.1 M1.8 -3.15 Q7.0 -7.15 7.65 -6.8 7.0 -7.15 1.8 -3.15"/><path fill="none" stroke="#000000" stroke-width="0.5" stroke-opacity="0.149019607843" d="M-3.1 -7.95 Q-1.7 -10.8 1.8 -10.75 M-1.7 -10.8 Q-3.8 -9.8 -4.1 -8.8 M7.65 -6.8 Q7.0 -7.15 1.8 -3.15 M6.4 -8.3 Q3.6 -9.6 -3.4 -5.1"/><path fill="none" stroke="#000000" stroke-width="0.5" stroke-opacity="0.298039215686" d="M-3.1 -7.95 L-3.4 -5.1 1.8 -3.15 0.95 -1.85 M7.7 -6.7 L7.65 -6.8 6.4 -8.3 Q5.1 -9.55 3.6 -10.2 L1.8 -10.75 Q0.15 -11.0 -1.7 -10.8 L-4.4 -10.0 Q-5.7 -9.0 -4.1 -8.8 L-3.1 -7.95"/><path fill="#fcfade" stroke="none" d="M-6.8 -5.0 L-5.45 -3.25 Q-1.35 -8.45 3.65 -4.3 2.85 -5.9 1.65 -7.0 L0.1 -8.1 Q-3.7 -9.35 -6.8 -5.0"/><path fill="#f4f2d7" stroke="none" d="M-7.4 -6.2 L-6.8 -5.0 Q-3.7 -9.35 0.1 -8.1 -1.35 -8.9 -3.2 -9.25 -6.55 -8.95 -7.4 -6.2"/><path fill="#e8e1cb" stroke="none" d="M-3.2 -9.25 L-6.0 -9.4 Q-8.75 -8.6 -7.4 -6.2 -6.55 -8.95 -3.2 -9.25"/><path fill="#fffde0" stroke="none" d="M-5.45 -3.25 L-4.4 -1.15 Q0.2 -1.2 4.4 -2.4 L3.65 -4.3 Q-1.35 -8.45 -5.45 -3.25"/><path fill="none" stroke="#000000" stroke-width="0.5" stroke-opacity="0.149019607843" d="M-3.2 -9.25 L-6.0 -9.4 Q-8.75 -8.6 -7.4 -6.2 L-6.8 -5.0 -5.45 -3.25 -4.4 -1.15 M4.4 -2.4 L3.65 -4.3 Q2.85 -5.9 1.65 -7.0 L0.1 -8.1 Q-1.35 -8.9 -3.2 -9.25 -6.55 -8.95 -7.4 -6.2 M0.1 -8.1 Q-3.7 -9.35 -6.8 -5.0 M3.65 -4.3 Q-1.35 -8.45 -5.45 -3.25"/><path fill="#ffffff" fill-opacity="0.498039215686" d="M7.4 -3.75 L7.6 -2.95 8.2 -4.05 7.4 -5.8 7.0 -4.8 5.5 -7.05 6.05 -4.95 3.85 -6.4 4.1 -3.05 1.25 -4.45 2.15 -2.8 0.25 -3.35 0.95 -2.2 -1.8 -1.6 0.3 -0.75 0.3 -1.45 2.1 -1.1 1.8 -2.0 3.85 -1.35 3.15 -2.5 5.0 -1.45 5.75 -3.8 5.95 -2.4 6.5 -4.2 6.95 -2.95 7.4 -3.75"/></g><g id="c12"><g><use transform="matrix(1.0,0.0,0.0,1.0,0.0,0.0)" xlink:href="#c11"/></g></g><g id="c13"><path fill="#b6a99d" stroke="none" d="M1.35 6.5 L2.3 5.3 3.5 4.85 3.9 3.15 5.15 2.3 4.55 0.8 5.1 -0.2 Q4.5 -0.55 3.95 -0.95 L4.1 -2.25 2.95 -2.9 2.25 -4.45 1.25 -4.25 0.15 -5.2 -0.65 -4.3 -2.05 -4.8 -1.95 -3.5 -3.15 -4.45 -2.2 -2.0 -3.7 -1.25 -2.85 1.35 -3.7 4.25 -2.1 4.8 0.1 5.75 1.35 6.5"/><path fill="#64d4e0" stroke="none" d="M2.8 -4.05 L2.8 -4.25 1.4 -4.55 0.35 -6.5 -0.75 -5.65 -2.15 -6.5 -2.95 -4.65 -1.95 -1.85 2.8 -4.05"/><path fill="#4ba5af" stroke="none" d="M4.6 2.1 L3.75 0.15 4.2 -1.65 2.8 -2.15 2.8 -4.05 -1.95 -1.85 -2.95 -4.65 -4.55 -4.65 -3.55 -2.2 0.7 1.55 4.6 2.1"/><path fill="#286066" stroke="none" d="M-3.55 -2.2 L-5.2 -1.45 -4.25 1.15 -5.2 4.05 -3.4 4.6 -2.95 6.2 -0.95 5.55 Q-0.3 5.95 0.4 6.3 L1.45 5.1 2.8 4.65 3.25 2.9 4.6 2.1 0.7 1.55 -3.55 -2.2"/><path fill="none" stroke="#000000" stroke-width="0.5" stroke-opacity="0.298039215686" d="M-3.55 -2.2 L-5.2 -1.45 -4.25 1.15 -5.2 4.05 -3.4 4.6 -2.95 6.2 -0.95 5.55 Q-0.3 5.95 0.4 6.3 L1.45 5.1 2.8 4.65 3.25 2.9 4.6 2.1 3.75 0.15 4.2 -1.65 2.8 -2.15 2.8 -4.05 2.8 -4.25 1.4 -4.55 0.35 -6.5 -0.75 -5.65 -2.15 -6.5 -2.95 -4.65 -4.55 -4.65 -3.55 -2.2"/></g><g id="c14"><g><use transform="matrix(1.0,0.0,0.0,1.0,0.0,0.0)" xlink:href="#c13"/></g></g><g id="c15"><path fill="#c64b3e" stroke="none" d="M0.85 -2.4 L-1.0 -2.8 -2.45 -1.45 Q-2.3 0.4 -1.6 1.25 L1.3 2.8 Q2.15 2.75 2.45 2.1 L0.85 -2.4"/><path fill="none" stroke="#000000" stroke-width="0.5" stroke-opacity="0.298039215686" d="M0.85 -2.4 L-1.0 -2.8 -2.45 -1.45 Q-2.3 0.4 -1.6 1.25 L1.3 2.8 Q2.15 2.75 2.45 2.1 L0.85 -2.4"/><path fill="#aa4136" stroke="none" d="M0.6 -1.15 L-0.7 -1.4 -1.7 -0.5 Q-1.6 0.8 -1.15 1.45 -0.2 2.15 0.9 2.5 1.55 2.5 1.75 2.0 L0.6 -1.15"/></g><g id="c16"><g><use transform="matrix(1.0,0.0,0.0,1.0,0.0,0.0)" xlink:href="#c15"/></g></g><g id="c17"><path fill="#d15045" stroke="none" d="M1.9 6.2 L3.0 4.8 4.4 0.8 Q2.9 0.0 1.1 0.0 -0.95 1.1 -1.95 3.0 L-0.2 5.25 Q0.85 6.2 1.9 6.2"/><path fill="none" stroke="#000000" stroke-width="0.5" stroke-opacity="0.4" d="M1.9 6.2 Q0.85 6.2 -0.2 5.25 L-1.95 3.0 Q-0.95 1.1 1.1 0.0 2.9 0.0 4.4 0.8 L3.0 4.8 1.9 6.2"/><path fill="#d15045" stroke="none" d="M4.3 0.9 Q5.3 -0.25 5.55 -1.3 L6.0 -3.55 6.0 -3.8 Q5.65 -5.25 4.55 -6.2 3.7 -6.2 3.25 -5.8 L2.5 -4.7 1.45 -2.7 Q0.7 -2.1 -0.4 -2.45 L0.5 0.0 4.3 0.9"/><path fill="none" stroke="#000000" stroke-width="0.5" stroke-opacity="0.4" d="M4.3 0.9 Q5.3 -0.25 5.55 -1.3 L6.0 -3.55 6.0 -3.8 Q5.65 -5.25 4.55 -6.2 3.7 -6.2 3.25 -5.8 L2.5 -4.7 1.45 -2.7 Q0.7 -2.1 -0.4 -2.45"/><path fill="#ffffff" stroke="none" d="M2.5 3.8 L2.1 3.75 1.15 4.05 Q1.1 4.65 1.6 4.8 2.2 4.75 2.45 4.2 L2.5 3.8"/><path fill="none" stroke="#000000" stroke-width="0.5" stroke-opacity="0.0470588235294" d="M2.5 3.8 L2.1 3.75 1.15 4.05 Q1.1 4.65 1.6 4.8 2.2 4.75 2.45 4.2 L2.5 3.8"/><path fill="#a0372f" stroke="none" d="M2.8 1.75 L2.3 1.3 1.65 2.2 Q1.9 2.4 2.3 2.45 L2.8 1.75 M2.55 1.75 L2.6 1.9 2.55 1.75 M2.0 2.1 L2.15 1.85 2.0 2.1"/><path fill="none" stroke="#000000" stroke-width="0.5" stroke-opacity="0.298039215686" d="M2.8 1.75 L2.3 1.3 1.65 2.2 Q1.9 2.4 2.3 2.45 L2.8 1.75 M2.15 1.85 L2.0 2.1 M2.6 1.9 L2.55 1.75"/><path fill="#d15045" stroke="none" d="M-2.2 2.9 L-1.3 3.0 0.6 1.0 0.6 0.85 0.7 -0.5 0.6 -2.2 -1.7 -3.2 -3.1 -3.4 -4.55 -3.0 Q-5.75 -1.7 -5.95 0.35 -5.7 1.4 -4.2 2.6 L-2.2 2.9"/><path fill="none" stroke="#000000" stroke-width="0.5" stroke-opacity="0.4" d="M-2.2 2.9 L-4.2 2.6 Q-5.7 1.4 -5.95 0.35 -5.75 -1.7 -4.55 -3.0 L-3.1 -3.4 -1.7 -3.2 0.6 -2.2"/><path fill="#a0372f" stroke="none" d="M-0.45 -0.1 Q-0.45 -1.0 -1.55 -1.6 L-4.25 -1.15 Q-4.85 -0.5 -4.9 0.1 L-2.45 1.1 Q-1.15 0.6 -0.45 -0.1"/><path fill="#a0372f" stroke="none" d="M3.25 -0.8 Q2.65 -0.95 3.4 -2.95 1.7 -0.5 1.7 -2.8 0.1 -1.0 -0.7 -0.45 -0.35 0.2 -0.85 0.9 L1.75 1.0 Q2.85 0.1 3.25 -0.8"/><path fill="#140300" stroke="none" d="M4.35 -4.6 Q2.75 -3.15 2.4 -1.6 2.45 1.0 3.5 -0.2 4.65 -1.45 5.3 -1.35 L5.5 -3.2 4.35 -4.6"/><path fill="none" stroke="#000000" stroke-width="0.5" stroke-opacity="0.298039215686" d="M4.35 -4.6 Q2.75 -3.15 2.4 -1.6 2.45 1.0 3.5 -0.2 4.65 -1.45 5.3 -1.35 L5.5 -3.2 4.35 -4.6"/><path fill="#fdffa5" stroke="none" d="M4.25 -3.4 Q2.85 -1.9 2.5 -0.35 L2.85 0.35 2.95 0.5 3.3 0.6 Q4.35 0.45 5.0 -1.3 L5.0 -2.15 4.9 -2.65 4.25 -3.4"/><path fill="#fff9b4" stroke="none" d="M3.15 -1.5 L3.1 -0.5 3.25 0.55 3.4 0.55 4.15 0.05 4.15 -0.35 4.15 -0.8 4.1 -1.95 3.9 -2.6 3.75 -2.65 Q3.5 -2.6 3.15 -1.5"/><path fill="none" stroke="#000000" stroke-width="0.5" stroke-opacity="0.498039215686" d="M3.15 -1.5 L3.1 -0.5 3.25 0.55 3.4 0.55 4.15 0.05 4.15 -0.35 4.15 -0.8 4.1 -1.95 3.9 -2.6 3.75 -2.65 Q3.5 -2.6 3.15 -1.5"/><path fill="#140300" stroke="none" d="M-1.45 -1.5 L-4.3 -0.75 -5.05 0.7 -4.1 1.6 -3.0 1.5 Q-1.5 1.3 -0.2 0.55 L0.4 0.55 Q-0.5 -1.05 -1.45 -1.5"/><path fill="none" stroke="#000000" stroke-width="0.5" stroke-opacity="0.298039215686" d="M-1.45 -1.5 L-4.3 -0.75 -5.05 0.7 -4.1 1.6 -3.0 1.5 Q-1.5 1.3 -0.2 0.55 L0.4 0.55 Q-0.5 -1.05 -1.45 -1.5"/><path fill="#fdffa5" stroke="none" d="M0.05 0.55 L-1.8 -0.85 Q-3.25 -0.4 -4.4 0.8 L-3.65 1.6 -0.55 1.5 0.05 0.55"/><path fill="#fff9b4" stroke="none" d="M-1.9 -0.7 Q-2.4 -0.6 -2.6 0.1 L-2.75 1.7 -1.0 1.65 -0.95 1.2 Q-0.9 0.3 -1.1 -0.2 -1.3 -0.8 -1.9 -0.7"/><path fill="none" stroke="#000000" stroke-width="0.5" stroke-opacity="0.498039215686" d="M-1.9 -0.7 Q-2.4 -0.6 -2.6 0.1 L-2.75 1.7 -1.0 1.65 -0.95 1.2 Q-0.9 0.3 -1.1 -0.2 -1.3 -0.8 -1.9 -0.7"/><path fill="#d15045" stroke="none" d="M-5.35 -1.05 Q-1.85 -1.35 0.45 -0.3 L0.9 -0.4 Q1.5 -1.6 1.2 -2.4 L-3.55 -2.7 -5.35 -1.05"/><path fill="none" stroke="#000000" stroke-width="0.5" stroke-opacity="0.4" d="M-5.35 -1.05 Q-1.85 -1.35 0.45 -0.3 L0.9 -0.4 Q1.5 -1.6 1.2 -2.4"/></g><g id="c18"><g><use transform="matrix(1.0,0.0,0.0,1.0,0.0,0.0)" xlink:href="#c17"/></g></g><g id="c19"><path fill="#ca5c06" stroke="none" d="M3.2 2.3 Q4.95 0.15 5.6 -2.5 L1.0 -4.6 Q0.6 -2.85 -0.55 -1.05 L3.2 2.3"/><path fill="#ffbc17" stroke="none" d="M3.2 2.3 L-0.55 -1.05 -0.95 -0.45 Q-3.15 1.1 -5.65 0.85 -3.15 2.25 -0.55 1.8 -2.0 3.7 -4.25 4.4 -1.15 5.1 1.8 3.8 L3.2 2.3"/><path fill="none" stroke="#000000" stroke-width="0.5" stroke-opacity="0.298039215686" d="M-0.55 -1.05 Q0.6 -2.85 1.0 -4.6 L5.6 -2.5 Q4.95 0.15 3.2 2.3 M-0.55 -1.05 L-0.95 -0.45 Q-3.15 1.1 -5.65 0.85 -3.15 2.25 -0.55 1.8 -2.0 3.7 -4.25 4.4 -1.15 5.1 1.8 3.8 L3.2 2.3"/><path fill="#160503" stroke="none" d="M0.4 -1.05 Q1.85 -0.3 3.35 0.35 4.15 -1.15 4.3 -2.95 L1.25 -4.0 Q1.1 -2.55 0.4 -1.05"/><path fill="#6d2f29" stroke="none" d="M3.35 0.35 Q1.85 -0.3 0.4 -1.05 L0.35 -0.95 Q-0.6 0.65 -1.4 0.7 -0.2 0.95 0.75 0.7 L-0.35 2.95 Q0.65 2.95 2.45 1.75 L3.35 0.35"/><path fill="none" stroke="#ffb600" stroke-width="0.5" stroke-opacity="0.298039215686" d="M0.4 -1.05 Q1.1 -2.55 1.25 -4.0 L4.3 -2.95 Q4.15 -1.15 3.35 0.35 L2.45 1.75 Q0.65 2.95 -0.35 2.95 L0.75 0.7 Q-0.2 0.95 -1.4 0.7 -0.6 0.65 0.35 -0.95 L0.4 -1.05"/></g><g id="c20"><g><use transform="matrix(1.0,0.0,0.0,1.0,0.0,0.0)" xlink:href="#c19"/></g></g><g id="c21"><g><use transform="matrix(1.0,0.0,0.0,1.0,11.8,-2.25)" xlink:href="#c6"/></g><g><use transform="matrix(1.0,0.0,0.0,1.0,6.5,-8.2)" xlink:href="#c4"/></g><g><use transform="matrix(1.0,0.0,0.0,1.0,5.2,-6.1)" xlink:href="#c8"/></g><g><use transform="matrix(1.0,0.0,0.0,1.0,10.55,3.45)" xlink:href="#c10"/></g><g><use transform="matrix(1.0,0.0,0.0,1.0,0.75,2.5)" xlink:href="#c12"/></g><g><use transform="matrix(1.0,0.0,0.0,1.0,-5.3,-0.6)" xlink:href="#c14"/></g><g><use transform="matrix(1.0,0.0,0.0,1.0,-3.95,8.2)" xlink:href="#c16"/></g><g><use transform="matrix(1.0,0.0,0.0,1.0,4.85,7.3)" xlink:href="#c18"/></g><g><use transform="matrix(1.0,0.0,0.0,1.0,-11.9,5.95)" xlink:href="#c20"/></g><g><use transform="matrix(1.0,0.0,0.0,1.0,-8.0,-0.45)" xlink:href="#c2"/></g></g><g id="c22"><path fill="#210500" stroke="none" d="M-1.15 10.65 L-1.1 10.65 2.0 9.85 3.35 7.55 4.8 -0.35 Q4.45 -5.55 3.0 -9.5 L-1.05 -10.65 -4.05 -6.3 Q-4.75 -3.95 -4.85 -1.4 L-3.85 3.05 -3.9 3.15 -1.15 10.65"/><path fill="none" stroke="#000000" stroke-width="0.5" stroke-opacity="0.298039215686" d="M-3.9 3.15 L-3.85 3.05 -4.85 -1.4 Q-4.75 -3.95 -4.05 -6.3 L-1.05 -10.65 3.0 -9.5 Q4.45 -5.55 4.8 -0.35 L3.35 7.55 2.0 9.85 -1.1 10.65 -1.15 10.65"/><path fill="#4d130d" stroke="none" d="M2.55 8.45 L3.5 3.7 Q1.95 -0.55 -0.2 -3.15 L-1.4 -4.45 -3.6 -2.4 -3.6 -2.35 -3.55 -1.15 Q-3.45 1.85 -2.85 4.95 -2.65 6.85 -1.65 8.85 L1.15 9.75 2.55 8.45"/></g><g id="c23"><g><use transform="matrix(1.0,0.0,0.0,1.0,0.0,0.0)" xlink:href="#c22"/></g></g><g id="c24"><path fill="#300905" stroke="none" d="M9.2 6.8 L10.2 5.4 Q10.0 2.9 8.9 0.35 L1.6 -5.8 -3.9 -8.0 -8.85 -7.4 Q-10.35 -4.15 -10.2 -0.95 -8.15 1.35 -5.3 3.55 L1.0 6.5 Q2.7 7.25 3.45 8.05 L5.95 8.05 8.8 7.4 9.2 6.8"/><path fill="none" stroke="#000000" stroke-width="0.5" stroke-opacity="0.298039215686" d="M5.95 8.05 L3.45 8.05 Q2.7 7.25 1.0 6.5 L-5.3 3.55 Q-8.15 1.35 -10.2 -0.95 -10.35 -4.15 -8.85 -7.4 L-3.9 -8.0 1.6 -5.8 8.9 0.35 Q10.0 2.9 10.2 5.4 L9.2 6.8"/><path fill="#621911" stroke="none" d="M-1.25 -5.85 L-4.9 -5.4 Q-5.95 -3.0 -5.85 -0.65 L-2.3 2.6 2.35 4.75 Q3.55 5.3 4.1 5.9 L8.0 5.4 9.0 3.95 Q8.9 2.15 8.1 0.25 L5.95 -1.4 2.8 -4.2 -1.25 -5.85"/></g><g id="c25"><g><use transform="matrix(1.0,0.0,0.0,1.0,0.0,0.0)" xlink:href="#c24"/></g></g><g id="c26"><path fill="#123742" stroke="none" d="M-2.9 -2.0 L-5.45 -2.5 -6.7 -1.65 -6.5 0.3 -1.85 1.85 -0.8 -1.95 -2.9 -2.0"/><path fill="none" stroke="#000000" stroke-width="0.5" stroke-opacity="0.298039215686" d="M-2.9 -2.0 L-5.45 -2.5 -6.7 -1.65 -6.5 0.3 -1.85 1.85 -0.8 -1.95 -2.9 -2.0"/><path fill="#b52100" stroke="none" d="M-0.35 2.45 L1.05 -2.1 -3.65 -2.7 Q-5.9 -0.85 -4.35 1.5 L-0.35 2.45"/><path fill="none" stroke="#000000" stroke-width="0.5" stroke-opacity="0.298039215686" d="M-0.35 2.45 L-4.35 1.5 Q-5.9 -0.85 -3.65 -2.7 L1.05 -2.1 -0.35 2.45"/><path fill="#1e0501" stroke="none" d="M5.55 2.4 Q5.7 -1.25 4.45 -4.8 L-1.4 -5.2 Q-3.5 -1.25 -2.8 2.9 -1.3 4.6 2.3 5.4 4.75 4.15 5.55 2.4"/><path fill="none" stroke="#000000" stroke-width="0.5" stroke-opacity="0.298039215686" d="M5.55 2.4 Q4.75 4.15 2.3 5.4 -1.3 4.6 -2.8 2.9 -3.5 -1.25 -1.4 -5.2 L4.45 -4.8 Q5.7 -1.25 5.55 2.4"/><path fill="#380400" stroke="none" d="M5.25 1.95 Q5.4 -1.1 4.35 -4.05 L-0.5 -4.3 Q-2.2 -1.1 -1.7 2.4 -0.4 3.75 2.55 4.4 4.65 3.4 5.25 1.95"/><path fill="#210500" stroke="none" d="M1.2 -3.35 L0.85 -2.55 Q0.25 -0.75 0.7 1.05 L1.15 2.55 3.95 4.15 6.7 1.85 Q6.85 -0.85 6.05 -3.35 L4.25 -4.65 1.2 -3.35"/><path fill="none" stroke="#000000" stroke-width="0.5" stroke-opacity="0.298039215686" d="M0.85 -2.55 L1.2 -3.35"/></g><g id="c27"><g><use transform="matrix(1.0,0.0,0.0,1.0,0.0,0.0)" xlink:href="#c26"/></g></g><g id="c28"><path fill="#123742" stroke="none" d="M1.85 -0.7 L1.75 -2.55 -2.45 -1.5 0.2 4.65 0.1 5.7 1.25 7.7 3.4 7.3 3.55 5.7 3.0 4.7 1.85 -0.7"/><path fill="none" stroke="#000000" stroke-width="0.5" stroke-opacity="0.0980392156863" d="M1.85 -0.7 L3.0 4.7 3.55 5.7 3.4 7.3 1.25 7.7 0.1 5.7 0.2 4.65 -2.45 -1.5 1.75 -2.55 1.85 -0.7"/><path fill="#bc4100" stroke="none" d="M2.65 1.1 L-1.3 1.6 -0.15 5.45 Q2.1 6.6 3.4 4.55 L2.65 1.1"/><path fill="none" stroke="#000000" stroke-width="0.5" stroke-opacity="0.0980392156863" d="M2.65 1.1 L3.4 4.55 Q2.1 6.6 -0.15 5.45 L-1.3 1.6 2.65 1.1"/><path fill="#230703" stroke="none" d="M-5.9 -4.25 Q-6.7 -0.5 -6.1 2.1 -1.35 4.7 3.95 3.25 6.6 1.0 6.3 -3.55 3.9 -6.3 0.35 -7.7 -3.55 -6.65 -5.9 -4.25"/><path fill="none" stroke="#000000" stroke-width="0.5" stroke-opacity="0.298039215686" d="M-5.9 -4.25 Q-6.7 -0.5 -6.1 2.1 -1.35 4.7 3.95 3.25 6.6 1.0 6.3 -3.55 3.9 -6.3 0.35 -7.7 -3.55 -6.65 -5.9 -4.25"/><path fill="#4d0808" stroke="none" d="M-5.4 -3.35 Q-5.9 -1.3 -5.4 0.7 -1.15 2.7 3.55 1.5 5.85 -0.3 5.6 -3.8 3.45 -6.0 0.35 -7.0 -2.85 -6.05 -5.4 -3.35"/></g><g id="c29"><g><use transform="matrix(1.0,0.0,0.0,1.0,0.0,0.0)" xlink:href="#c28"/></g></g><g id="c30"><path fill="#660d26" stroke="none" d="M0.6 -2.45 L1.3 -1.35 1.15 -0.55 1.1 -0.45 Q1.6 0.65 2.45 1.35 L3.15 1.45 3.4 0.9 2.85 -0.4 2.85 -2.2 1.6 -4.3 -0.25 -5.75 -0.25 -3.7 0.6 -2.45"/><path fill="none" stroke="#000000" stroke-width="0.5" stroke-opacity="0.298039215686" d="M0.6 -2.45 L1.3 -1.35 1.15 -0.55 1.1 -0.45 Q1.6 0.65 2.45 1.35 L3.15 1.45 3.4 0.9 2.85 -0.4 2.85 -2.2 1.6 -4.3 -0.25 -5.75"/><path fill="#660d26" stroke="none" d="M0.75 -4.65 L1.25 -3.9 1.75 -1.05 1.75 -0.75 1.75 1.8 3.8 3.55 3.45 4.55 2.15 4.9 0.55 3.65 0.95 5.1 -1.4 5.9 -2.7 5.35 -3.8 1.9 -2.5 -1.8 -2.9 -3.75 -1.9 -5.9 -0.1 -5.85 0.75 -4.65"/><path fill="none" stroke="#000000" stroke-width="0.5" stroke-opacity="0.298039215686" d="M1.75 -0.75 L1.75 1.8 3.8 3.55 3.45 4.55 2.15 4.9 0.55 3.65 0.95 5.1 -1.4 5.9 -2.7 5.35 -3.8 1.9 -2.5 -1.8 -2.9 -3.75 -1.9 -5.9 -0.1 -5.85 0.75 -4.65"/><path fill="#871929" stroke="none" d="M-0.3 -1.15 L-1.9 -1.15 -2.8 1.4 -2.0 3.85 -1.1 4.25 0.6 3.7 0.3 2.65 1.5 3.55 2.4 3.3 2.4 2.95 1.2 1.3 -0.3 -1.15"/></g><g id="c31"><g><use transform="matrix(1.0,0.0,0.0,1.0,0.0,0.0)" xlink:href="#c30"/></g></g><g id="c32"><path fill="#701120" stroke="none" d="M-2.3 -0.25 L-1.7 1.5 -2.55 2.95 -1.25 5.0 0.6 6.0 1.35 5.55 0.45 3.75 1.0 3.75 2.3 5.3 3.7 5.05 4.5 3.05 0.0 -6.0 -2.6 -5.15 -3.6 -1.0 -2.3 -0.25 -2.1 -0.9 -2.3 -0.25"/><path fill="none" stroke="#000000" stroke-width="0.5" stroke-opacity="0.298039215686" d="M-2.3 -0.25 L-3.6 -1.0 -2.6 -5.15 0.0 -6.0 4.5 3.05 3.7 5.05 2.3 5.3 1.0 3.75 0.45 3.75 1.35 5.55 0.6 6.0 -1.25 5.0 -2.55 2.95 -1.7 1.5 -2.3 -0.25 -2.1 -0.9"/><path fill="#a33131" stroke="none" d="M0.5 -2.6 Q-0.4 -3.6 -2.3 -1.0 -1.35 1.0 -1.95 2.45 L-0.15 4.75 0.7 4.4 0.0 3.1 1.05 3.1 2.1 4.4 3.3 4.4 3.9 2.15 0.5 -2.6"/><path fill="#701120" stroke="none" d="M-1.75 -0.95 L-1.25 -2.4 -2.2 -3.7 -2.65 -3.5 -3.15 -3.25 Q-4.3 -1.05 -4.45 -0.25 L-3.4 1.6 -3.6 2.95 -3.2 3.45 -2.55 3.15 Q-1.9 2.3 -1.75 1.1 L-1.8 1.0 -2.15 0.3 -1.75 -0.95"/><path fill="none" stroke="#000000" stroke-width="0.5" stroke-opacity="0.298039215686" d="M-1.75 -0.95 L-2.15 0.3 -1.8 1.0 -1.75 1.1 Q-1.9 2.3 -2.55 3.15 L-3.2 3.45 -3.6 2.95 -3.4 1.6 -4.45 -0.25 Q-4.3 -1.05 -3.15 -3.25 L-2.65 -3.5"/><path fill="#a33131" stroke="none" d="M-3.1 -2.2 L-4.1 0.05 -3.3 1.45 -3.5 2.45 -3.15 2.8 -2.7 2.6 Q-2.2 2.0 -2.05 1.1 L-2.1 1.0 -2.35 0.45 -2.1 -0.4 -0.8 -0.3 -0.7 -1.6 -2.4 -2.5 -3.1 -2.2"/></g><g id="c33"><g><use transform="matrix(1.0,0.0,0.0,1.0,0.0,0.0)" xlink:href="#c32"/></g></g><radialGradient gradientUnits="userSpaceOnUse" r="819.2" cx="0" cy="0" spreadMethod="pad" gradientTransform="matrix(-0.0439910888672,-0.0131072998047,-0.00819396972656,0.0175323486328,0.05,0.0)" id="gradient1"><stop offset="0.458823529412" stop-color="#071c18" stop-opacity="0.439215686275"/><stop offset="0.972549019608" stop-color="#033c49" stop-opacity="0.0"/></radialGradient><g id="c34"><path stroke="none" fill="url(#gradient1)" d="M-19.7 -16.95 Q-7.8 -18.0 6.4 -13.75 20.65 -9.5 28.95 -2.4 37.05 4.6 34.4 10.3 31.75 15.95 19.85 17.0 7.8 18.0 -6.4 13.75 -20.65 9.5 -28.8 2.5 -37.1 -4.55 -34.45 -10.25 -31.75 -15.95 -19.7 -16.95"/></g><g id="c35"><g><use transform="matrix(1.0,0.0,0.0,1.0,0.0,0.0)" xlink:href="#c34"/></g></g><g id="c36"><path fill="#958c72" stroke="none" d="M-3.85 3.45 Q-4.45 6.25 -2.65 10.2 L-0.7 9.35 Q-2.0 7.05 -1.6 3.45 L-3.85 3.45"/><path fill="#716854" stroke="none" d="M-2.65 10.2 Q0.05 14.05 3.65 15.95 6.0 17.15 8.75 17.55 10.0 17.1 10.4 16.2 10.7 15.55 10.45 14.6 3.4 15.4 -0.7 9.35 L-2.65 10.2"/><path fill="none" stroke="#000000" stroke-width="0.5" stroke-opacity="0.2" d="M-3.85 3.45 Q-4.45 6.25 -2.65 10.2 0.05 14.05 3.65 15.95 6.0 17.15 8.75 17.55 10.0 17.1 10.4 16.2 10.7 15.55 10.45 14.6 3.4 15.4 -0.7 9.35 -2.0 7.05 -1.6 3.45"/><path fill="#d1ccb5" stroke="none" d="M0.95 -7.75 L-0.55 -8.25 Q-3.4 -2.65 -4.0 4.55 L-3.2 5.4 Q-2.3 -1.45 0.95 -7.75"/><path fill="#958c72" stroke="none" d="M-3.2 5.4 Q-3.3 6.45 -2.45 6.45 L-1.65 6.45 Q-0.9 -1.0 2.2 -7.3 L0.95 -7.75 Q-2.3 -1.45 -3.2 5.4"/><path fill="none" stroke="#000000" stroke-width="0.5" stroke-opacity="0.2" d="M0.95 -7.75 L-0.55 -8.25 Q-3.4 -2.65 -4.0 4.55 M-1.65 6.45 Q-0.9 -1.0 2.2 -7.3 L0.95 -7.75"/><path fill="#e2e2c4" stroke="none" d="M-5.8 -6.6 L-6.55 -7.2 Q-8.2 -7.4 -8.9 -7.95 -9.55 -8.2 -10.15 -7.95 -10.65 -7.3 -10.6 -6.5 -9.5 -5.8 -7.95 -5.6 -6.7 -5.65 -5.8 -6.6"/><path fill="#847b65" stroke="none" d="M-10.6 -6.5 Q-10.3 -5.45 -9.2 -4.7 -6.45 -3.7 -4.5 -5.55 L-5.8 -6.6 Q-6.7 -5.65 -7.95 -5.6 -9.5 -5.8 -10.6 -6.5"/><path fill="none" stroke="#000000" stroke-width="0.5" stroke-opacity="0.298039215686" d="M-10.6 -6.5 Q-10.3 -5.45 -9.2 -4.7 -6.45 -3.7 -4.5 -5.55 L-5.8 -6.6 -6.55 -7.2 Q-8.2 -7.4 -8.9 -7.95 -9.55 -8.2 -10.15 -7.95 -10.65 -7.3 -10.6 -6.5"/><path fill="#f2f2d3" stroke="none" d="M1.65 -16.0 Q0.6 -17.1 -1.6 -17.5 -4.2 -17.85 -6.4 -15.4 L-7.15 -14.35 -5.05 -14.3 Q-4.2 -14.9 -3.05 -14.75 -1.45 -14.5 -0.9 -13.45 L-0.7 -13.3 Q0.35 -10.6 -0.7 -8.05 -0.4 -6.95 0.4 -6.8 3.4 -12.85 1.65 -16.0"/><path fill="#d1ccb5" stroke="none" d="M-5.05 -14.3 L-7.15 -14.35 Q-8.3 -12.45 -7.45 -10.55 -6.4 -8.2 -6.85 -7.2 L-6.45 -6.05 Q-5.35 -7.05 -5.8 -8.75 -6.75 -12.35 -5.7 -13.65 L-5.05 -14.3"/><path fill="#958c72" stroke="none" d="M1.65 -16.0 Q3.4 -12.85 0.4 -6.8 L2.15 -7.15 Q3.1 -9.4 3.2 -11.8 3.4 -13.6 1.95 -15.75 L1.65 -16.0 M-0.9 -13.45 Q-1.45 -14.5 -3.05 -14.75 -4.2 -14.9 -5.05 -14.3 L-5.7 -13.65 Q-6.75 -12.35 -5.8 -8.75 -5.35 -7.05 -6.45 -6.05 -5.6 -5.25 -4.45 -5.5 -3.45 -7.45 -4.2 -9.65 -4.7 -11.55 -4.3 -13.3 L-2.8 -14.2 Q-1.8 -14.35 -0.9 -13.45"/><path fill="none" stroke="#000000" stroke-width="0.5" stroke-opacity="0.298039215686" d="M-7.15 -14.35 L-6.4 -15.4 Q-4.2 -17.85 -1.6 -17.5 0.6 -17.1 1.65 -16.0 L1.95 -15.75 Q3.4 -13.6 3.2 -11.8 3.1 -9.4 2.15 -7.15 M-0.7 -8.05 Q0.35 -10.6 -0.7 -13.3 M-7.15 -14.35 Q-8.3 -12.45 -7.45 -10.55 -6.4 -8.2 -6.85 -7.2 M-4.45 -5.5 Q-3.45 -7.45 -4.2 -9.65 -4.7 -11.55 -4.3 -13.3 L-2.8 -14.2 Q-1.8 -14.35 -0.9 -13.45"/></g><g id="c37"><g><use transform="matrix(1.0,0.0,0.0,1.0,0.0,0.0)" xlink:href="#c36"/></g></g><g id="c38"><path fill="#265668" stroke="none" d="M3.0 4.1 L4.4 3.0 Q3.35 0.9 1.85 -0.95 L1.9 1.05 3.0 4.1"/><path fill="#1c414f" stroke="none" d="M1.9 1.05 L0.85 2.15 1.85 3.8 3.0 4.1 1.9 1.05"/><path fill="none" stroke="#000000" stroke-width="0.5" stroke-opacity="0.298039215686" d="M3.0 4.1 L4.4 3.0 Q3.35 0.9 1.85 -0.95 L1.9 1.05 0.85 2.15 1.85 3.8 3.0 4.1"/><path fill="#b7ab8e" stroke="none" d="M2.55 2.35 Q3.05 1.35 2.3 -0.65 L2.0 -1.0 1.85 -1.15 -0.9 -3.8 -2.3 -4.05 -3.4 -4.15 -0.05 -0.7 2.1 1.05 2.55 2.35"/><path fill="#998976" stroke="none" d="M-3.4 -4.15 Q-4.05 -3.6 -4.3 -2.75 L-4.4 -1.3 -3.85 -0.6 -3.3 0.0 -1.9 1.2 1.4 2.6 2.55 2.35 2.1 1.05 -0.05 -0.7 -3.4 -4.15"/><path fill="none" stroke="#000000" stroke-width="0.5" stroke-opacity="0.2" d="M2.55 2.35 Q3.05 1.35 2.3 -0.65 L2.0 -1.0 1.85 -1.15 -0.9 -3.8 -2.3 -4.05 -3.4 -4.15 Q-4.05 -3.6 -4.3 -2.75 L-4.4 -1.3 -3.85 -0.6 -3.3 0.0 -1.9 1.2 1.4 2.6 2.55 2.35"/></g><g id="c39"><g><use transform="matrix(1.0,0.0,0.0,1.0,0.0,0.0)" xlink:href="#c38"/></g></g><g id="c40"><path fill="#822424" stroke="none" d="M-10.2 3.0 L-12.2 3.1 -13.1 4.6 -12.65 6.95 Q-11.75 7.65 -10.7 7.8 -9.3 7.4 -7.4 6.4 L-8.0 3.4 -10.2 3.0"/><path fill="none" stroke="#000000" stroke-width="0.5" stroke-opacity="0.2" d="M-10.2 3.0 L-12.2 3.1 -13.1 4.6 -12.65 6.95 Q-11.75 7.65 -10.7 7.8 -9.3 7.4 -7.4 6.4 L-8.0 3.4 -10.2 3.0"/><path fill="#232e33" stroke="none" d="M-8.05 3.3 L-16.95 4.5 -17.45 5.05 -16.4 6.65 -7.85 6.25 -8.05 3.3"/><path fill="none" stroke="#000000" stroke-width="0.5" stroke-opacity="0.298039215686" d="M-8.05 3.3 L-16.95 4.5 -17.45 5.05 -16.4 6.65 -7.85 6.25 -8.05 3.3"/><path fill="#822424" stroke="none" d="M-9.5 6.75 L-9.9 7.75 -9.3 8.8 -8.35 7.85 -7.6 6.45 Q-8.05 5.25 -9.5 6.75"/><path fill="none" stroke="#000000" stroke-width="0.5" stroke-opacity="0.2" d="M-9.3 8.8 L-8.35 7.85 -7.6 6.45 Q-8.05 5.25 -9.5 6.75"/><path fill="#822424" stroke="none" d="M-8.05 3.4 Q-8.55 2.6 -9.7 2.45 L-10.6 2.75 Q-11.05 3.6 -10.55 4.1 L-10.05 3.6 -9.35 3.9 -9.65 4.9 -8.4 4.45 -8.05 3.4"/><path fill="none" stroke="#000000" stroke-width="0.5" stroke-opacity="0.2" d="M-8.05 3.4 Q-8.55 2.6 -9.7 2.45 L-10.6 2.75 Q-11.05 3.6 -10.55 4.1 L-10.05 3.6 M-9.65 4.9 L-8.4 4.45"/><path fill="#b23737" stroke="none" d="M-11.25 3.7 L-12.0 4.15 -12.4 4.85 -12.1 5.15 -9.7 4.95 -9.2 4.65 -9.35 3.9 -10.05 3.6 -11.25 3.7"/><path fill="none" stroke="#000000" stroke-width="0.5" stroke-opacity="0.2" d="M-11.25 3.7 L-12.0 4.15 -12.4 4.85 -12.1 5.15 -9.7 4.95 -9.2 4.65"/><path fill="#b23737" stroke="none" d="M-11.95 7.1 L-12.05 6.55 -12.5 5.5 Q-12.75 5.35 -13.05 5.5 L-13.05 5.9 -13.2 7.0 -13.05 7.8 -12.45 8.35 Q-11.9 8.0 -11.65 7.5 L-11.7 7.5 -11.95 7.1"/><path fill="none" stroke="#000000" stroke-width="0.5" stroke-opacity="0.2" d="M-11.7 7.5 L-11.65 7.5 Q-11.9 8.0 -12.45 8.35 L-13.05 7.8 -13.2 7.0 -13.05 5.9 -13.05 5.5 Q-12.75 5.35 -12.5 5.5 L-12.05 6.55 -11.95 7.1"/><path fill="#992d2d" stroke="none" d="M-11.45 6.85 L-11.7 6.05 -11.9 6.8 -11.3 8.25 -10.9 7.85 -11.45 6.85"/><path fill="#b23737" stroke="none" d="M-11.7 6.05 L-11.45 6.85 -10.9 7.85 -9.65 7.85 -10.05 5.7 -10.65 4.85 -11.35 5.0 -11.55 5.2 -11.7 6.05 -11.55 5.2 -12.1 5.4 -12.9 6.65 -13.05 7.5 -12.3 8.2 -11.3 8.25 -11.9 6.8 -11.7 6.05"/><path fill="none" stroke="#000000" stroke-width="0.5" stroke-opacity="0.0470588235294" d="M-11.7 6.05 L-11.45 6.85 M-11.7 6.05 L-11.55 5.2"/><path fill="none" stroke="#000000" stroke-width="0.5" stroke-opacity="0.2" d="M-10.9 7.85 L-11.3 8.25 -12.3 8.2 -13.05 7.5 -12.9 6.65 -12.1 5.4 -11.55 5.2 -11.35 5.0 -10.65 4.85 -10.05 5.7 -9.65 7.85 -10.9 7.85"/><path fill="#b23737" stroke="none" d="M-8.8 7.45 L-8.95 6.4 -9.3 5.55 -10.1 5.35 -10.15 7.3 -10.05 8.5 -9.15 8.9 -8.8 7.45"/><path fill="none" stroke="#000000" stroke-width="0.5" stroke-opacity="0.2" d="M-9.15 8.9 L-10.05 8.5 -10.15 7.3 -10.1 5.35 -9.3 5.55 -8.95 6.4 -8.8 7.45"/><path fill="#dc6407" stroke="none" d="M-9.65 4.2 Q-9.65 5.7 -8.85 6.7 -8.05 7.75 -6.9 7.75 -5.75 7.75 -4.95 6.7 -4.15 5.7 -4.15 4.2 -4.15 2.75 -4.95 1.7 -5.75 0.7 -6.9 0.7 -8.05 0.7 -8.85 1.7 -9.65 2.75 -9.65 4.2"/><path fill="none" stroke="#000000" stroke-width="0.5" stroke-opacity="0.298039215686" d="M-9.65 4.2 Q-9.65 5.7 -8.85 6.7 -8.05 7.75 -6.9 7.75 -5.75 7.75 -4.95 6.7 -4.15 5.7 -4.15 4.2 -4.15 2.75 -4.95 1.7 -5.75 0.7 -6.9 0.7 -8.05 0.7 -8.85 1.7 -9.65 2.75 -9.65 4.2"/><path fill="#ffb617" stroke="none" d="M-9.55 4.25 Q-9.55 5.55 -8.85 6.45 -8.1 7.4 -7.1 7.4 -6.1 7.4 -5.35 6.45 -4.65 5.55 -4.65 4.25 -4.65 2.9 -5.35 2.0 -6.1 1.05 -7.1 1.05 -8.1 1.05 -8.85 2.0 -9.55 2.9 -9.55 4.25"/><path fill="#ffe717" stroke="none" d="M-9.6 3.9 L-9.1 4.35 -8.0 4.5 -6.85 4.35 -6.35 3.9 Q-6.35 3.65 -6.85 3.5 L-8.0 3.3 -9.1 3.5 -9.6 3.9"/><path fill="#bc4100" stroke="none" d="M-7.95 4.2 Q-7.95 5.55 -7.4 6.5 -6.85 7.45 -6.15 7.45 -5.4 7.45 -4.85 6.5 -4.35 5.55 -4.35 4.2 -4.35 2.9 -4.85 1.95 -5.4 1.0 -6.15 1.0 -6.85 1.0 -7.4 1.95 -7.95 2.9 -7.95 4.2"/><path fill="#647776" stroke="none" d="M8.5 -1.55 L7.15 -0.95 8.5 -1.55 M15.4 -7.3 Q11.1 -4.05 6.8 -1.8 L4.95 -0.9 5.0 0.05 7.15 -0.95 8.3 1.55 Q9.3 -1.0 11.3 -2.25 12.3 -1.95 13.45 -2.25 15.1 -4.75 15.4 -7.3"/><path fill="#a1b9b7" stroke="none" d="M15.4 -7.3 Q15.1 -4.75 13.45 -2.25 12.3 -1.95 11.3 -2.25 9.3 -1.0 8.3 1.55 L8.5 1.95 12.0 0.4 14.4 -2.6 16.05 -7.8 15.4 -7.3 M-6.75 5.0 L-6.6 5.4 3.15 3.85 5.25 2.9 5.1 1.35 Q4.1 2.0 3.75 3.3 2.5 3.85 0.95 2.85 -1.25 2.9 -2.5 4.45 -3.65 4.85 -4.15 3.9 -5.65 3.55 -6.75 5.0"/><path fill="#fcfdfd" stroke="none" d="M-6.6 5.4 L-6.4 5.85 Q5.05 4.65 12.9 0.8 17.2 -3.45 17.45 -8.9 L16.05 -7.8 14.4 -2.6 12.0 0.4 8.5 1.95 8.3 1.55 Q7.3 1.9 5.75 1.0 L5.1 1.35 5.25 2.9 3.15 3.85 -6.6 5.4"/><path fill="#8ba09e" stroke="none" d="M8.3 1.55 L7.15 -0.95 5.0 0.05 5.1 1.35 5.75 1.0 Q7.3 1.9 8.3 1.55"/><path fill="#576867" stroke="none" d="M5.0 0.05 L4.95 -0.9 Q-0.95 1.9 -6.8 2.75 L-7.1 4.1 -6.75 5.0 Q-5.65 3.55 -4.15 3.9 -3.65 4.85 -2.5 4.45 -1.25 2.9 0.95 2.85 2.5 3.85 3.75 3.3 4.1 2.0 5.1 1.35 L5.0 0.05 4.35 0.3 5.0 0.05"/><path fill="none" stroke="#000000" stroke-width="0.5" stroke-opacity="0.298039215686" d="M4.95 -0.9 L6.8 -1.8 Q11.1 -4.05 15.4 -7.3 M4.95 -0.9 Q-0.95 1.9 -6.8 2.75 L-7.1 4.1 -6.75 5.0 -6.6 5.4 -6.4 5.85 Q5.05 4.65 12.9 0.8 17.2 -3.45 17.45 -8.9 L16.05 -7.8 15.4 -7.3"/><path fill="none" stroke="#000000" stroke-width="0.5" stroke-opacity="0.0470588235294" d="M7.15 -0.95 L8.5 -1.55 M7.15 -0.95 L5.0 0.05 4.35 0.3"/></g><g id="c41"><g><use transform="matrix(1.0,0.0,0.0,1.0,0.0,0.0)" xlink:href="#c40"/></g></g><g id="c42"><path fill="#dc6407" stroke="none" d="M5.45 2.2 Q5.9 -0.15 5.6 -1.9 L3.9 -3.65 1.35 -3.65 -0.1 -0.25 5.45 2.2"/><path fill="#c94600" stroke="none" d="M5.45 2.2 L-0.1 -0.25 -1.0 1.95 -0.65 4.8 0.8 6.1 Q4.0 4.3 5.45 2.2"/><path fill="none" stroke="#000000" stroke-width="0.5" stroke-opacity="0.298039215686" d="M-0.1 -0.25 L1.35 -3.65 3.9 -3.65 5.6 -1.9 Q5.9 -0.15 5.45 2.2 M-0.1 -0.25 L-1.0 1.95 -0.65 4.8 0.8 6.1 Q4.0 4.3 5.45 2.2"/><path fill="#330600" stroke="none" d="M-2.15 -1.85 Q-2.95 -0.35 -2.85 1.3 -1.9 2.95 -0.4 4.5 1.8 3.7 3.2 1.7 L-2.15 -1.85"/><path fill="#511109" stroke="none" d="M-2.15 -1.85 L3.2 1.7 3.2 1.65 Q3.7 -0.7 3.25 -3.05 L-0.8 -3.7 -2.15 -1.85"/><path fill="none" stroke="#000000" stroke-width="0.5" stroke-opacity="0.298039215686" d="M3.2 1.7 Q1.8 3.7 -0.4 4.5 -1.9 2.95 -2.85 1.3 -2.95 -0.35 -2.15 -1.85 M3.2 1.7 L3.2 1.65 Q3.7 -0.7 3.25 -3.05 L-0.8 -3.7 -2.15 -1.85"/><path fill="#330600" stroke="none" d="M1.8 -2.5 Q1.0 -4.7 -1.1 -6.15 L-4.9 -5.55 -5.65 -2.85 Q-3.9 -0.3 -1.9 0.8 L0.85 0.45 1.8 -2.5"/><path fill="none" stroke="#000000" stroke-width="0.5" stroke-opacity="0.298039215686" d="M-1.9 0.8 Q-3.9 -0.3 -5.65 -2.85 L-4.9 -5.55 -1.1 -6.15 Q1.0 -4.7 1.8 -2.5"/></g><g id="c43"><g><use transform="matrix(1.0,0.0,0.0,1.0,0.0,0.0)" xlink:href="#c42"/></g></g><g id="c44"><path fill="#6f1a12" stroke="none" d="M4.2 -4.5 L1.7 -3.55 -1.4 -0.65 -3.55 3.15 -3.65 3.95 2.35 3.95 4.2 -4.5"/><path fill="none" stroke="#000000" stroke-width="0.5" stroke-opacity="0.298039215686" d="M-3.65 3.95 L-3.55 3.15 -1.4 -0.65 1.7 -3.55 4.2 -4.5"/><path fill="#af4201" stroke="none" d="M2.3 -3.3 L1.55 -4.2 Q0.5 -1.15 -1.8 1.45 L-4.25 3.25 -3.8 4.35 0.95 -0.45 2.3 -3.3"/><path fill="#8c1d00" stroke="none" d="M2.3 -3.3 L0.95 -0.45 -3.8 4.35 -3.7 4.5 -2.05 4.5 Q1.15 1.65 3.2 -2.15 L2.3 -3.3"/><path fill="none" stroke="#000000" stroke-width="0.5" stroke-opacity="0.298039215686" d="M-3.8 4.35 L-4.25 3.25 -1.8 1.45 Q0.5 -1.15 1.55 -4.2 L2.3 -3.3 M-3.8 4.35 L-3.7 4.5 -2.05 4.5 Q1.15 1.65 3.2 -2.15 L2.3 -3.3"/></g><g id="c45"><g><use transform="matrix(1.0,0.0,0.0,1.0,0.0,0.0)" xlink:href="#c44"/></g></g><g id="c46"><path fill="#998976" stroke="none" d="M-3.8 -4.65 L-1.55 -5.75 3.6 -6.35 Q5.9 -5.7 7.1 -4.5 6.75 -0.3 4.25 1.3 L1.1 1.3 -0.05 -1.4 Q-1.4 -3.65 -3.8 -4.65"/><path fill="#510707" stroke="none" d="M0.8 4.6 L0.15 6.0 -5.05 6.55 Q-6.85 5.4 -7.65 3.7 -7.45 0.35 -6.6 -3.05 L-3.8 -4.65 Q-1.4 -3.65 -0.05 -1.4 L-3.55 0.85 -3.55 3.5 0.8 4.6"/><path fill="#6e1b12" stroke="none" d="M7.1 -4.5 L7.5 0.1 Q4.3 2.9 0.8 4.6 L-3.55 3.5 -3.55 0.85 -0.05 -1.4 1.1 1.3 4.25 1.3 Q6.75 -0.3 7.1 -4.5"/><path fill="none" stroke="#000000" stroke-width="0.5" stroke-opacity="0.298039215686" d="M-3.8 -4.65 L-1.55 -5.75 3.6 -6.35 Q5.9 -5.7 7.1 -4.5 L7.5 0.1 Q4.3 2.9 0.8 4.6 L0.15 6.0 -5.05 6.55 Q-6.85 5.4 -7.65 3.7 -7.45 0.35 -6.6 -3.05 L-3.8 -4.65"/><path fill="#ce5c02" stroke="none" d="M6.2 -5.55 L3.55 -6.5 1.0 -6.35 4.0 -5.55 6.2 -5.55"/><path fill="#dd6507" stroke="none" d="M6.2 -5.55 L4.0 -5.55 Q5.15 -4.0 5.7 -2.4 L5.25 0.0 2.15 1.25 2.25 3.7 Q5.1 2.35 7.6 0.1 L7.6 -1.75 Q7.2 -3.7 6.2 -5.55"/><path fill="none" stroke="#000000" stroke-width="0.5" stroke-opacity="0.298039215686" d="M4.0 -5.55 L1.0 -6.35 3.55 -6.5 6.2 -5.55 M4.0 -5.55 Q5.15 -4.0 5.7 -2.4 L5.25 0.0 2.15 1.25 2.25 3.7 Q5.1 2.35 7.6 0.1 L7.6 -1.75 Q7.2 -3.7 6.2 -5.55"/><path fill="#da6407" stroke="none" d="M1.75 -6.2 L1.2 -6.55 -2.4 -5.65 -4.05 -5.1 -2.1 -4.05 -1.1 -1.5 0.85 -3.0 -0.55 -4.8 -1.2 -5.1 1.75 -6.2 M0.45 2.6 L0.65 4.55 2.45 3.65 3.05 1.5 Q1.8 2.4 0.45 2.6"/><path fill="#feb516" stroke="none" d="M-1.1 -1.5 L0.45 2.6 Q1.8 2.4 3.05 1.5 2.3 -0.85 0.85 -3.0 L-1.1 -1.5"/><path fill="none" stroke="#000000" stroke-width="0.5" stroke-opacity="0.298039215686" d="M1.2 -6.55 L-2.4 -5.65 -4.05 -5.1 -2.1 -4.05 -1.1 -1.5 0.45 2.6 0.65 4.55 2.45 3.65 3.05 1.5 Q2.3 -0.85 0.85 -3.0 L-0.55 -4.8 -1.2 -5.1 1.75 -6.2"/></g><g id="c47"><g><use transform="matrix(1.0,0.0,0.0,1.0,0.0,0.0)" xlink:href="#c46"/></g></g><g id="c48"><path fill="#72615f" stroke="none" d="M-3.0 -0.3 L-3.4 0.0 Q-3.0 1.4 -2.15 2.6 L-0.8 2.85 -0.25 2.8 Q0.6 2.15 1.85 1.6 -0.8 0.9 -3.0 -0.3"/><path fill="#6b5b59" stroke="none" d="M-3.0 -0.3 Q-0.8 0.9 1.85 1.6 L3.45 0.95 2.15 -2.05 -0.75 -2.9 Q-1.95 -1.2 -3.0 -0.3"/><path fill="none" stroke="#000000" stroke-width="0.5" stroke-opacity="0.298039215686" d="M-3.4 0.0 L-3.0 -0.3 Q-1.95 -1.2 -0.75 -2.9 L2.15 -2.05 3.45 0.95 1.85 1.6 Q0.6 2.15 -0.25 2.8"/></g><g id="c49"><g><use transform="matrix(1.0,0.0,0.0,1.0,0.0,0.0)" xlink:href="#c48"/></g></g><g id="c50"><path fill="#54100a" stroke="none" d="M7.25 -2.85 L6.9 -4.15 4.6 -6.0 1.95 -6.0 0.5 -7.45 -0.35 -8.2 -3.2 -7.25 -8.15 -8.6 -7.75 -5.45 Q-4.8 -4.4 -1.3 -4.35 L0.5 -5.85 Q1.2 -6.4 1.85 -5.6 L2.35 -4.4 2.35 -4.3 2.45 -3.95 2.45 -5.25 3.3 -5.25 Q5.65 -4.5 7.25 -2.85"/><path fill="#962422" stroke="none" d="M-7.75 -5.45 L-7.55 -4.05 -6.25 -1.75 -0.15 -1.1 0.65 -2.25 0.5 -2.9 0.45 -3.2 0.6 -2.95 2.35 -4.4 1.85 -5.6 Q1.2 -6.4 0.5 -5.85 L-1.3 -4.35 Q-4.8 -4.4 -7.75 -5.45"/><path fill="#4c0d06" stroke="none" d="M-6.25 -1.75 L-2.1 5.4 3.2 6.3 6.55 4.15 7.6 -0.4 6.15 0.45 Q5.05 2.55 2.6 4.2 L1.7 3.75 Q1.1 2.0 1.0 0.45 L0.65 -2.25 -0.15 -1.1 -6.25 -1.75"/><path fill="#aa2c2a" stroke="none" d="M7.6 -0.4 L7.7 -0.85 7.25 -2.85 Q5.65 -4.5 3.3 -5.25 L2.45 -5.25 2.45 -3.95 2.35 -4.3 2.35 -4.4 0.6 -2.95 2.3 0.3 6.15 0.45 7.6 -0.4"/><path fill="#7c1a12" stroke="none" d="M0.65 -2.25 L1.0 0.45 Q1.1 2.0 1.7 3.75 L2.6 4.2 Q5.05 2.55 6.15 0.45 L2.3 0.3 0.6 -2.95 0.45 -3.2 0.5 -2.9 0.65 -2.25"/><path fill="none" stroke="#000000" stroke-width="0.5" stroke-opacity="0.298039215686" d="M-6.25 -1.75 L-2.1 5.4 3.2 6.3 6.55 4.15 7.6 -0.4 7.7 -0.85 7.25 -2.85 6.9 -4.15 4.6 -6.0 1.95 -6.0 0.5 -7.45 -0.35 -8.2 -3.2 -7.25 -8.15 -8.6 -7.75 -5.45 -7.55 -4.05 -6.25 -1.75"/><path fill="#911d1b" stroke="none" d="M-5.65 -0.3 L-1.5 4.8 -0.7 4.8 0.4 2.6 Q1.05 0.45 1.3 -1.7 L1.5 -3.2 0.5 -3.2 0.15 -2.65 Q-0.35 -1.0 -1.45 0.55 -3.35 -0.45 -4.55 -2.1 -5.75 -2.6 -5.65 -0.3"/><path fill="#6f1a12" stroke="none" d="M-4.55 -2.1 Q-3.35 -0.45 -1.45 0.55 -0.35 -1.0 0.15 -2.65 -0.95 -1.75 -4.55 -2.1"/><path fill="none" stroke="#000000" stroke-width="0.5" stroke-opacity="0.298039215686" d="M1.3 -1.7 Q1.05 0.45 0.4 2.6 L-0.7 4.8 -1.5 4.8 -5.65 -0.3"/><path fill="#aa2c2a" stroke="none" d="M1.15 -2.0 L1.9 -3.9 0.55 -3.0 0.2 -2.6 Q-0.3 -1.25 -1.3 0.15 -2.9 -0.25 -3.9 -1.2 L-4.2 -1.25 Q-4.85 -1.15 -4.95 0.3 L-1.5 3.3 -0.75 3.15 0.25 1.3 1.15 -2.0"/><path fill="#de6608" stroke="none" d="M-6.6 -4.4 L-6.95 -6.9 -8.55 -6.9 -8.75 -4.75 -8.65 -4.6 -6.6 -4.4"/><path fill="#fcb417" stroke="none" d="M-8.65 -4.6 Q-7.55 -0.9 -5.2 2.7 L-4.35 4.0 -3.15 2.4 -3.55 1.75 Q-5.5 -1.25 -6.6 -4.3 L-6.6 -4.4 -8.65 -4.6"/><path fill="#e47b0b" stroke="none" d="M-4.35 4.0 L-2.05 6.7 -0.85 5.3 -0.9 5.25 -3.15 2.4 -4.35 4.0 M4.05 8.6 Q5.75 7.15 6.9 5.5 5.65 4.5 5.05 3.15 L3.4 5.4 4.05 8.6"/><path fill="#c94b03" stroke="none" d="M-2.05 6.7 L-1.95 6.8 Q0.65 8.35 4.05 8.6 L3.4 5.4 -0.85 5.3 -2.05 6.7"/><path fill="#ffb517" stroke="none" d="M6.9 5.5 L7.8 4.05 Q8.45 1.55 8.7 -1.05 L6.85 -1.65 Q6.45 0.8 5.05 3.15 5.65 4.5 6.9 5.5"/><path fill="#e6810b" stroke="none" d="M8.7 -1.05 L8.25 -4.0 7.2 -5.4 Q6.4 -5.95 5.0 -5.8 L6.15 -4.8 Q6.85 -3.15 6.85 -1.65 L8.7 -1.05"/><path fill="none" stroke="#000000" stroke-width="0.5" stroke-opacity="0.298039215686" d="M-6.6 -4.4 L-6.95 -6.9 -8.55 -6.9 -8.75 -4.75 -8.65 -4.6 Q-7.55 -0.9 -5.2 2.7 L-4.35 4.0 -2.05 6.7 -1.95 6.8 Q0.65 8.35 4.05 8.6 5.75 7.15 6.9 5.5 L7.8 4.05 Q8.45 1.55 8.7 -1.05 L8.25 -4.0 7.2 -5.4 Q6.4 -5.95 5.0 -5.8 L6.15 -4.8 Q6.85 -3.15 6.85 -1.65 6.45 0.8 5.05 3.15 L3.4 5.4 -0.85 5.3 -0.9 5.25 -3.15 2.4 -3.55 1.75 Q-5.5 -1.25 -6.6 -4.3 L-6.6 -4.4"/></g><g id="c51"><g><use transform="matrix(1.0,0.0,0.0,1.0,0.0,0.0)" xlink:href="#c50"/></g></g><g id="c52"><path fill="#1f5163" stroke="none" d="M-3.0 -2.55 L-3.8 -4.0 -4.65 -3.55 -4.65 -2.45 Q-5.5 -2.45 -5.65 -1.2 -5.35 0.3 -4.7 1.6 L-4.3 1.9 Q-1.2 3.9 2.25 3.95 5.0 3.05 5.6 1.05 L5.6 0.35 4.9 0.0 4.9 -0.75 4.25 -1.05 Q3.4 -0.2 1.1 -0.25 L0.55 -0.45 Q1.15 0.15 1.35 0.85 L-1.45 0.75 -1.4 0.75 Q1.6 2.55 3.85 1.45 4.35 1.95 3.75 2.6 2.6 3.3 1.25 2.95 L1.15 2.95 Q-2.0 2.5 -4.3 0.65 -4.8 -0.75 -4.0 -1.35 -4.2 -3.0 -3.0 -2.55 M-4.65 -2.45 L-4.0 -1.35 -4.65 -2.45 M2.8 1.1 Q4.3 0.85 4.9 0.0 4.3 0.85 2.8 1.1"/><path fill="#408d96" stroke="none" d="M-3.05 -0.05 L-4.0 -1.35 Q-4.8 -0.75 -4.3 0.65 -2.0 2.5 1.15 2.95 L1.25 2.95 Q2.6 3.3 3.75 2.6 4.35 1.95 3.85 1.45 1.6 2.55 -1.4 0.75 L-3.05 -0.05"/><path fill="#4ba5af" stroke="none" d="M0.55 -0.45 Q-1.9 -1.4 -3.0 -2.55 -4.2 -3.0 -4.0 -1.35 L-3.05 -0.05 -1.4 0.75 -1.45 0.75 1.35 0.85 Q1.15 0.15 0.55 -0.45"/><path fill="none" stroke="#000000" stroke-width="0.5" stroke-opacity="0.298039215686" d="M-3.0 -2.55 L-3.8 -4.0 -4.65 -3.55 -4.65 -2.45 Q-5.5 -2.45 -5.65 -1.2 -5.35 0.3 -4.7 1.6 L-4.3 1.9 Q-1.2 3.9 2.25 3.95 5.0 3.05 5.6 1.05 L5.6 0.35 4.9 0.0 4.9 -0.75 4.25 -1.05 Q3.4 -0.2 1.1 -0.25 L0.55 -0.45 Q-1.9 -1.4 -3.0 -2.55 M-4.0 -1.35 L-4.65 -2.45 M-4.0 -1.35 L-3.05 -0.05 M4.9 0.0 Q4.3 0.85 2.8 1.1"/></g><g id="c53"><g><use transform="matrix(1.0,0.0,0.0,1.0,0.0,0.0)" xlink:href="#c52"/></g></g><g id="c54"><path fill="#232e33" stroke="none" d="M2.65 -9.7 L3.6 -18.7 3.2 -19.3 1.35 -18.65 -0.3 -10.2 2.65 -9.7"/><path fill="none" stroke="#000000" stroke-width="0.5" stroke-opacity="0.298039215686" d="M2.65 -9.7 L3.6 -18.7 3.2 -19.3 1.35 -18.65 -0.3 -10.2 2.65 -9.7"/><path fill="#b23737" stroke="none" d="M1.65 -10.7 L2.95 -9.8 2.95 -9.1 3.3 -8.5 4.3 -9.65 4.3 -11.7 4.75 -13.65 3.8 -15.6 1.05 -15.3 -0.15 -15.3 -1.15 -14.0 -1.05 -13.2 -1.4 -12.8 -1.15 -12.3 -0.95 -12.65 -0.4 -12.65 -0.95 -12.65 -1.15 -12.3 -1.4 -11.95 -2.55 -11.65 -2.55 -10.75 -1.35 -8.95 -0.3 -9.35 -0.7 -10.5 -0.2 -10.7 1.65 -10.7 2.3 -10.7 1.65 -10.7 M-0.75 -13.55 L-1.05 -13.2 -0.75 -13.55 M-1.2 -10.3 L-0.7 -10.5 -1.2 -10.3"/><path fill="none" stroke="#000000" stroke-width="0.5" stroke-opacity="0.298039215686" d="M-1.05 -13.2 L-1.15 -14.0 -0.15 -15.3 1.05 -15.3 3.8 -15.6 4.75 -13.65 4.3 -11.7 4.3 -9.65 3.3 -8.5 2.95 -9.1 2.95 -9.8 1.65 -10.7 2.3 -10.7 M-1.15 -12.3 L-0.95 -12.65 -0.4 -12.65 M-1.15 -12.3 L-1.4 -12.8 -1.05 -13.2 -0.75 -13.55 M-0.7 -10.5 L-0.3 -9.35 -1.35 -8.95 -2.55 -10.75 -2.55 -11.65 -1.4 -11.95 -1.15 -12.3 M1.65 -10.7 L-0.2 -10.7 -0.7 -10.5 -1.2 -10.3"/><path fill="#cd4e42" stroke="none" d="M-0.45 -13.3 L-0.7 -12.95 -0.45 -12.55 -0.65 -12.25 -1.65 -11.8 -1.65 -10.95 0.8 -11.55 4.1 -11.35 4.1 -12.05 4.45 -13.7 3.65 -15.3 1.35 -15.1 0.35 -15.1 -0.5 -13.95 -0.45 -13.3"/><path fill="#fe8f06" stroke="none" d="M-2.9 -8.5 Q-2.9 -7.4 -1.85 -6.6 -0.8 -5.85 0.7 -5.85 2.15 -5.85 3.25 -6.6 4.3 -7.4 4.3 -8.5 4.3 -9.6 3.25 -10.35 2.15 -11.15 0.7 -11.15 -0.8 -11.15 -1.85 -10.35 -2.9 -9.6 -2.9 -8.5"/><path fill="none" stroke="#000000" stroke-width="0.5" stroke-opacity="0.298039215686" d="M-2.9 -8.5 Q-2.9 -7.4 -1.85 -6.6 -0.8 -5.85 0.7 -5.85 2.15 -5.85 3.25 -6.6 4.3 -7.4 4.3 -8.5 4.3 -9.6 3.25 -10.35 2.15 -11.15 0.7 -11.15 -0.8 -11.15 -1.85 -10.35 -2.9 -9.6 -2.9 -8.5"/><path fill="#fdb616" stroke="none" d="M-1.95 -9.1 Q-1.95 -8.25 -1.15 -7.65 -0.35 -7.05 0.8 -7.05 1.9 -7.05 2.7 -7.65 3.5 -8.25 3.5 -9.1 3.5 -10.0 2.7 -10.6 1.9 -11.2 0.8 -11.2 -0.35 -11.2 -1.15 -10.6 -1.95 -10.0 -1.95 -9.1"/><path fill="#ffe717" stroke="none" d="M0.05 -10.25 Q0.05 -9.95 0.3 -9.75 0.5 -9.55 0.85 -9.55 L1.35 -9.75 1.6 -10.25 1.35 -10.8 0.85 -11.0 0.3 -10.8 0.05 -10.25"/><path fill="#af4201" stroke="none" d="M-2.5 -7.7 Q-2.5 -6.95 -1.6 -6.4 -0.7 -5.85 0.5 -5.85 1.75 -5.85 2.65 -6.4 3.5 -6.95 3.5 -7.7 3.5 -8.45 2.65 -9.0 1.75 -9.55 0.5 -9.55 -0.7 -9.55 -1.6 -9.0 -2.5 -8.45 -2.5 -7.7"/><path fill="#394847" stroke="none" d="M1.8 -8.05 L1.45 -8.5 -0.3 -8.05 Q-4.25 1.45 -4.35 11.4 -2.6 17.25 1.5 19.3 -2.25 7.45 1.8 -8.05"/><path fill="none" stroke="#000000" stroke-width="0.5" stroke-opacity="0.298039215686" d="M1.8 -8.05 Q-2.25 7.45 1.5 19.3 -2.6 17.25 -4.35 11.4 -4.25 1.45 -0.3 -8.05 L1.45 -8.5 1.8 -8.05"/><path fill="#a4bcbc" stroke="none" d="M-1.65 1.05 Q-2.2 0.15 -1.65 -0.7 -0.95 -1.45 -0.75 -2.3 -0.6 -3.05 -0.85 -3.75 -1.1 -4.9 -0.65 -5.25 0.6 -6.6 -0.3 -8.5 L-0.7 -8.5 -1.35 -6.8 -1.15 -6.5 Q-2.25 -3.1 -2.8 0.45 L-1.65 1.05 M-0.25 15.75 Q-1.35 14.15 -1.75 11.65 -2.95 10.5 -2.55 8.75 -1.95 8.05 -2.1 6.5 -2.9 5.3 -2.1 3.95 L-1.55 2.7 -3.15 3.3 Q-3.85 7.1 -3.85 10.9 -2.35 13.8 -0.25 15.75"/><path fill="#f6f9f9" stroke="none" d="M-1.65 1.05 L-2.8 0.45 Q-2.25 -3.1 -1.15 -6.5 L-1.35 -6.8 Q-4.7 1.9 -4.75 10.95 -3.0 16.85 1.45 19.3 L0.7 16.85 -0.25 15.75 Q-2.35 13.8 -3.85 10.9 -3.85 7.1 -3.15 3.3 L-1.55 2.7 Q-1.35 1.8 -1.65 1.05"/><path fill="#647776" stroke="none" d="M-0.3 -8.5 Q0.6 -6.6 -0.65 -5.25 -1.1 -4.9 -0.85 -3.75 -0.6 -3.05 -0.75 -2.3 -0.95 -1.45 -1.65 -0.7 -2.2 0.15 -1.65 1.05 -1.35 1.8 -1.55 2.7 L-2.1 3.95 Q-2.9 5.3 -2.1 6.5 -1.95 8.05 -2.55 8.75 -2.95 10.5 -1.75 11.65 -1.35 14.15 -0.25 15.75 L0.7 16.85 Q-2.25 5.45 1.4 -8.5 L-0.3 -8.5"/><path fill="none" stroke="#000000" stroke-width="0.5" stroke-opacity="0.298039215686" d="M-1.35 -6.8 L-0.7 -8.5 -0.3 -8.5 1.4 -8.5 M0.7 16.85 L1.45 19.3 Q-3.0 16.85 -4.75 10.95 -4.7 1.9 -1.35 -6.8"/></g><g id="c55"><g><use transform="matrix(1.0,0.0,0.0,1.0,0.0,0.0)" xlink:href="#c54"/></g></g><g id="c56"><path fill="#af4201" stroke="none" d="M2.2 5.6 Q2.95 -3.0 -1.95 -5.6 L-2.3 -4.5 Q-2.35 -0.35 -1.2 3.85 0.2 5.4 2.2 5.6"/><path fill="none" stroke="#000000" stroke-width="0.5" stroke-opacity="0.298039215686" d="M2.2 5.6 Q0.2 5.4 -1.2 3.85 -2.35 -0.35 -2.3 -4.5 L-1.95 -5.6 Q2.95 -3.0 2.2 5.6"/></g><g id="c57"><g><use transform="matrix(1.0,0.0,0.0,1.0,0.0,0.0)" xlink:href="#c56"/></g></g><g id="c58"><path fill="#b7ab8e" stroke="none" d="M0.75 2.7 L1.6 1.85 4.2 -2.15 4.2 -5.6 2.45 -6.45 0.25 -6.0 0.15 -5.75 Q1.7 -4.4 2.15 -1.55 L1.55 0.1 -0.65 3.0 0.75 2.7"/><path fill="#f3f3d4" stroke="none" d="M-0.65 3.0 L1.55 0.1 2.15 -1.55 Q1.7 -4.4 0.15 -5.75 L-0.55 -4.1 -2.2 -1.0 -2.8 1.35 Q-1.95 2.9 -0.65 3.0"/><path fill="#265668" stroke="none" d="M0.75 2.7 L-0.65 3.0 -3.3 6.4 Q-2.45 6.5 -1.5 6.0 L-1.5 5.1 0.75 2.7"/><path fill="#3e8e98" stroke="none" d="M-2.8 1.35 L-3.4 3.7 -4.2 4.45 Q-4.35 5.55 -3.3 6.4 L-0.65 3.0 Q-1.95 2.9 -2.8 1.35"/><path fill="none" stroke="#000000" stroke-width="0.5" stroke-opacity="0.298039215686" d="M0.15 -5.75 L0.25 -6.0 2.45 -6.45 4.2 -5.6 4.2 -2.15 1.6 1.85 0.75 2.7 -0.65 3.0 Q-1.95 2.9 -2.8 1.35 L-3.4 3.7 -4.2 4.45 Q-4.35 5.55 -3.3 6.4 -2.45 6.5 -1.5 6.0 L-1.5 5.1 0.75 2.7 M0.15 -5.75 L-0.55 -4.1 -2.2 -1.0 -2.8 1.35"/></g><g id="c59"><g><use transform="matrix(1.0,0.0,0.0,1.0,0.0,0.0)" xlink:href="#c58"/></g></g><g id="c60"><path fill="#681811" stroke="none" d="M6.65 -0.5 L7.8 -1.55 8.1 -3.9 4.9 -6.5 Q1.7 -6.0 -0.6 -4.35 L1.45 0.2 3.15 0.55 Q4.95 0.7 6.65 -0.5"/><path fill="none" stroke="#000000" stroke-width="0.5" stroke-opacity="0.298039215686" d="M6.65 -0.5 L7.8 -1.55 8.1 -3.9 4.9 -6.5 Q1.7 -6.0 -0.6 -4.35 L1.45 0.2 3.15 0.55"/><path fill="#6f1913" stroke="none" d="M1.95 -3.8 Q-0.5 -4.7 -3.25 -5.05 L-7.0 -4.5 -4.45 -1.9 -2.5 6.0 Q-0.5 4.1 0.55 1.95 2.75 2.1 3.2 -1.25 L1.95 -3.8"/><path fill="none" stroke="#000000" stroke-width="0.5" stroke-opacity="0.298039215686" d="M1.95 -3.8 Q-0.5 -4.7 -3.25 -5.05 L-7.0 -4.5 -4.45 -1.9 -2.5 6.0 Q-0.5 4.1 0.55 1.95 2.75 2.1 3.2 -1.25 L1.95 -3.8"/><path fill="#bb3c30" stroke="none" d="M-0.2 -4.6 Q-1.6 -2.35 1.2 -0.5 3.35 -0.65 6.0 -2.05 L6.85 -4.0 Q7.45 -5.4 3.95 -6.5 1.55 -6.1 -0.2 -4.6"/><path fill="#d44436" stroke="none" d="M-5.25 -3.6 L-3.4 1.45 Q-1.9 1.4 -0.25 0.25 0.3 -1.4 0.35 -3.05 L-0.6 -4.5 -6.5 -4.9 -5.25 -3.6"/><path fill="#ffd902" stroke="none" d="M-2.25 -0.6 Q-3.45 -2.85 -6.1 -5.15 L-8.1 -4.75 Q-6.0 -2.55 -4.85 0.1 L-2.25 -0.6"/><path fill="#fe8f06" stroke="none" d="M-4.85 0.1 Q-4.0 3.45 -4.0 6.5 -2.95 6.6 -1.95 5.85 -1.7 3.1 -2.25 -0.6 L-4.85 0.1"/><path fill="none" stroke="#000000" stroke-width="0.5" stroke-opacity="0.298039215686" d="M-4.85 0.1 Q-4.0 3.45 -4.0 6.5 -2.95 6.6 -1.95 5.85 -1.7 3.1 -2.25 -0.6 -3.45 -2.85 -6.1 -5.15 L-8.1 -4.75 Q-6.0 -2.55 -4.85 0.1"/></g><g id="c61"><g><use transform="matrix(1.0,0.0,0.0,1.0,0.0,0.0)" xlink:href="#c60"/></g></g><g id="c62"><g><use transform="matrix(1.14999389648,0.0,0.0,1.14999389648,-0.05,-0.05)" xlink:href="#c35"/></g><g><use transform="matrix(1.14999389648,0.0,0.0,1.14999389648,21.65,2.0)" xlink:href="#c33"/></g><g><use transform="matrix(1.14999389648,0.0,0.0,1.14999389648,-19.8,-11.95)" xlink:href="#c31"/></g><g><use transform="matrix(1.14999389648,0.0,0.0,1.14999389648,-19.55,-46.9)" xlink:href="#c37"/></g><g><use transform="matrix(1.14999389648,0.0,0.0,1.14999389648,18.6,-9.8)" xlink:href="#c29"/></g><g><use transform="matrix(1.14999389648,0.0,0.0,1.14999389648,-12.5,-14.0)" xlink:href="#c27"/></g><g><use transform="matrix(1.14999389648,0.0,0.0,1.14999389648,18.0,-35.85)" xlink:href="#c39"/></g><g><use transform="matrix(1.14999389648,0.0,0.0,1.14999389648,33.6,-35.5)" xlink:href="#c41"/></g><g><use transform="matrix(1.14999389648,0.0,0.0,1.14999389648,9.35,-40.4)" xlink:href="#c43"/></g><g><use transform="matrix(1.14999389648,0.0,0.0,1.14999389648,8.9,-22.1)" xlink:href="#c25"/></g><g><use transform="matrix(1.14999389648,0.0,0.0,1.14999389648,-6.65,-21.5)" xlink:href="#c23"/></g><g><use transform="matrix(1.14999389648,0.0,0.0,1.14999389648,-10.55,-29.35)" xlink:href="#c45"/></g><g><use transform="matrix(1.14999389648,0.0,0.0,1.14999389648,1.6,-41.1)" xlink:href="#c47"/></g><g><use transform="matrix(1.14999389648,0.0,0.0,1.14999389648,6.65,-45.75)" xlink:href="#c49"/></g><g><use transform="matrix(1.14999389648,0.0,0.0,1.14999389648,2.4,-24.2)" xlink:href="#c51"/></g><g><use transform="matrix(1.14999389648,0.0,0.0,1.14999389648,-2.55,-34.45)" xlink:href="#c53"/></g><g><use transform="matrix(1.14999389648,0.0,0.0,1.14999389648,-24.8,-14.2)" xlink:href="#c55"/></g><g><use transform="matrix(1.14999389648,0.0,0.0,1.14999389648,-15.5,-40.95)" xlink:href="#c57"/></g><g><use transform="matrix(1.14999389648,0.0,0.0,1.14999389648,-17.75,-36.45)" xlink:href="#c59"/></g><g><use transform="matrix(1.14999389648,0.0,0.0,1.14999389648,-8.65,-41.9)" xlink:href="#c61"/></g><g><use transform="matrix(1.14999389648,0.0,0.0,1.14999389648,6.4,-57.9)" xlink:href="#c21"/></g></g><g id="c63"><path fill="#000000" fill-opacity="0.00392156862745" d="M0.0 0.0 L60.0 0.0 60.0 60.0 0.0 60.0 0.0 0.0"/></g><g id="c64"><path fill="none" stroke="#000000" stroke-width="1.0" stroke-opacity="0.301960784314" d="M0.7 12.25 Q-0.45 9.75 0.75 8.25 1.2 7.6 2.15 7.15 2.8 6.7 3.8 6.35 L17.5 1.95 30.2 7.0 41.35 31.7 Q42.95 35.15 40.2 36.7 39.5 37.3 38.3 37.65 L25.5 41.8 25.45 41.75 24.55 42.0 11.85 37.0 0.7 12.25"/><path fill="#9d147b" stroke="none" d="M35.55 22.3 L31.5 13.2 29.75 9.2 16.95 4.25 5.5 7.85 Q1.65 9.1 3.35 12.8 L8.25 23.65 13.1 34.35 25.8 39.4 37.2 35.7 Q41.1 34.5 39.35 30.75 L35.55 22.3 M5.45 20.95 L1.35 11.8 Q0.4 9.65 1.1 8.3 1.45 7.65 2.15 7.15 2.8 6.7 3.8 6.35 L17.5 1.95 30.2 7.0 41.35 31.7 Q42.95 35.15 40.2 36.7 L38.9 37.25 25.2 41.65 12.5 36.65 5.45 20.95"/><path fill="#c47fad" stroke="none" d="M31.5 13.2 L35.55 22.3 39.35 30.75 Q41.1 34.5 37.2 35.7 L25.8 39.4 13.1 34.35 8.25 23.65 3.35 12.8 Q1.65 9.1 5.5 7.85 L16.95 4.25 29.75 9.2 31.5 13.2 M18.5 7.45 L9.1 10.55 9.55 11.6 Q9.8 12.8 9.15 13.6 8.4 14.45 7.1 14.4 L6.8 14.4 6.95 14.6 15.2 32.75 23.85 36.2 34.0 32.9 33.7 32.1 Q33.45 30.9 34.1 30.1 34.75 29.3 35.95 29.35 L35.8 29.0 27.75 10.95 18.5 7.45"/><path fill="#fcf2cf" stroke="none" d="M27.75 10.95 L35.8 29.0 35.95 29.35 Q34.75 29.3 34.1 30.1 33.45 30.9 33.7 32.1 L34.0 32.9 23.85 36.2 15.2 32.75 6.95 14.6 6.8 14.4 7.1 14.4 Q8.4 14.45 9.15 13.6 9.8 12.8 9.55 11.6 L9.1 10.55 18.5 7.45 27.75 10.95"/><path fill="#630a4c" stroke="none" d="M1.1 8.3 L0.75 8.25 Q1.2 7.6 2.15 7.15 1.45 7.65 1.1 8.3 M4.6 20.9 L5.45 20.95 12.5 36.65 11.55 36.25 11.25 35.55 4.6 20.9"/><path fill="#300525" stroke="none" d="M1.1 8.3 Q0.4 9.65 1.35 11.8 L5.45 20.95 4.6 20.9 0.7 12.25 Q-0.45 9.75 0.75 8.25 L1.1 8.3 M12.5 36.65 L25.2 41.65 38.9 37.25 40.2 36.7 Q39.5 37.3 38.3 37.65 L25.5 41.8 25.45 41.75 24.55 42.0 11.85 37.0 11.55 36.25 12.5 36.65"/><path fill="none" stroke="#bf9900" stroke-width="1.0" stroke-opacity="0.749019607843" d="M31.5 13.2 L35.55 22.3 M13.1 34.35 L8.25 23.65"/><path fill="none" stroke="#ffcc00" stroke-width="1.0" stroke-opacity="0.749019607843" d="M35.55 22.3 L39.35 30.75 Q41.1 34.5 37.2 35.7 L25.8 39.4 M8.25 23.65 L3.35 12.8 Q1.65 9.1 5.5 7.85 L16.95 4.25 29.75 9.2 31.5 13.2"/><path fill="none" stroke="#f0b92b" stroke-width="0.5" d="M27.75 10.95 L35.8 29.0 35.95 29.35 Q34.75 29.3 34.1 30.1 33.45 30.9 33.7 32.1 L34.0 32.9 23.85 36.2 15.2 32.75 6.95 14.6 6.8 14.4 7.1 14.4 Q8.4 14.45 9.15 13.6 9.8 12.8 9.55 11.6 L9.1 10.55 18.5 7.45"/><path fill="none" stroke="#000000" stroke-width="0.5" stroke-opacity="0.301960784314" d="M5.45 20.95 L1.35 11.8 Q0.4 9.65 1.1 8.3 M0.75 8.25 Q-0.45 9.75 0.7 12.25 L4.6 20.9 M5.45 20.95 L12.5 36.65 M25.2 41.65 L38.9 37.25 40.2 36.7 Q42.95 35.15 41.35 31.7 L30.2 7.0 M17.5 1.95 L3.8 6.35 Q2.8 6.7 2.15 7.15 1.45 7.65 1.1 8.3 M0.75 8.25 Q1.2 7.6 2.15 7.15 M11.25 35.55 L4.6 20.9 M25.5 41.8 L38.3 37.65 Q39.5 37.3 40.2 36.7"/><path fill="none" stroke="#ffcc00" stroke-width="0.5" stroke-opacity="0.749019607843" d="M18.5 7.45 L27.75 10.95"/><path fill="none" stroke="#f0b92b" stroke-width="1.0" stroke-opacity="0.749019607843" d="M25.8 39.4 L13.1 34.35"/><path fill="none" stroke="#432f2f" stroke-width="0.5" d="M12.5 36.65 L25.2 41.65"/></g><g id="c65"><path fill="#7fdbfe" stroke="none" d="M10.75 4.9 Q10.75 4.6 10.9 4.35 11.25 3.45 11.95 2.75 13.3 1.5 14.35 2.1 15.4 2.7 14.95 4.45 14.7 5.4 14.1 6.15 L13.75 6.5 Q13.1 7.15 12.35 7.35 L11.4 7.2 Q10.95 6.9 10.75 6.4 10.5 5.75 10.75 4.9 M7.5 5.9 Q7.0 5.85 6.6 5.5 6.05 5.0 5.8 4.15 L5.7 3.6 Q5.55 2.65 5.8 1.7 6.25 0.0 7.5 0.0 L7.6 0.0 Q8.85 0.0 9.3 1.7 9.55 2.65 9.4 3.6 L9.3 4.15 8.5 5.5 7.6 5.9 7.5 5.9 M4.35 4.9 Q4.6 5.75 4.35 6.4 L3.7 7.2 2.75 7.35 Q2.0 7.15 1.35 6.5 L1.0 6.15 Q0.4 5.4 0.15 4.45 -0.3 2.7 0.75 2.1 1.8 1.5 3.15 2.75 3.85 3.45 4.2 4.35 L4.35 4.9 M5.5 13.7 Q4.45 13.9 3.65 12.95 2.75 12.0 3.2 10.25 3.7 8.5 5.25 7.6 6.4 6.9 7.55 7.0 8.75 6.9 9.9 7.6 11.45 8.5 11.95 10.25 12.35 12.0 11.5 12.95 10.7 13.9 9.65 13.7 8.55 13.5 7.55 12.6 6.55 13.5 5.5 13.7"/></g><g id="c66"><g><use transform="matrix(1.0,0.0,0.0,1.0,0.0,0.0)" xlink:href="#c65"/></g></g><radialGradient gradientUnits="userSpaceOnUse" r="819.2" cx="0" cy="0" spreadMethod="pad" gradientTransform="matrix(0.0914459228516,0.0,0.0,0.0914459228516,0.6,3.4)" id="gradient2"><stop offset="0.0" stop-color="#ffffff"/><stop offset="1.0" stop-color="#ffffff" stop-opacity="0.0"/></radialGradient><g id="c67"><path stroke="none" fill="url(#gradient2)" d="M36.65 -54.65 Q60.05 -42.0 69.75 -17.95 80.55 8.9 68.0 34.1 55.45 59.35 26.8 68.2 -1.8 77.05 -29.7 64.3 -57.6 51.6 -68.45 24.75 -79.3 -2.05 -66.75 -27.25 L-66.7 -27.3 Q-54.1 -52.5 -25.5 -61.4 3.1 -70.2 31.0 -57.5 L36.65 -54.65"/></g><g id="c68"><g><use transform="matrix(1.0,0.0,0.0,1.0,0.0,0.0)" xlink:href="#c67"/></g></g><radialGradient gradientUnits="userSpaceOnUse" r="819.2" cx="0" cy="0" spreadMethod="pad" gradientTransform="matrix(0.209197998047,0.0,0.0,0.177108764648,67.15,107.2)" id="gradient3"><stop offset="0.356862745098" stop-color="#ffffff"/><stop offset="0.670588235294" stop-opacity="0.0"/></radialGradient><g id="c69"><path fill="none" stroke-linejoin="round" stroke-linecap="round" stroke="url(#gradient3)" stroke-width="0.5" d="M136.55 165.8 L68.6 106.0 68.4 106.0 118.25 201.5 M68.3 105.8 L68.35 105.8 68.3 105.8 68.3 105.85 68.4 106.0 68.3 106.0 86.55 211.5 M68.3 105.8 L68.3 105.85 68.3 106.0 68.15 105.95 18.25 151.55 M68.3 105.85 L68.25 105.85 68.3 106.0 50.0 193.2 M68.25 105.85 L68.15 105.95 0.05 97.7 M68.3 105.85 L68.25 105.8 68.25 105.85 M68.25 105.8 L68.2 105.7 0.0 45.7 M68.3 105.8 L68.25 105.75 68.25 105.8 M68.25 105.75 L68.2 105.7 18.25 10.05 M68.6 106.0 L68.35 105.8 118.25 60.15 M86.6 18.35 L68.3 105.8 M136.6 114.25 L68.6 106.0 M68.25 105.75 L49.95 0.05"/></g><g id="c70"><g><use transform="matrix(1.0,0.0,0.0,1.0,0.0,0.0)" xlink:href="#c69"/></g></g><g id="c71"><g><use transform="matrix(1.0,0.0,0.0,1.0,0.0,0.0)" xlink:href="#c64"/></g><g><use transform="matrix(0.238861083984,-0.0867004394531,0.10026550293,0.233917236328,34.25,31.15)" xlink:href="#c66"/></g><g><use transform="matrix(0.238861083984,-0.0867004394531,0.10026550293,0.233917236328,4.25,10.3)" xlink:href="#c66"/></g><g><use transform="matrix(0.141098022461,-0.0378112792969,0.111373901367,0.225646972656,20.25,20.65)" filter="url(#filter68)" xlink:href="#c68"/></g><g><use transform="matrix(-0.155029296875,0.0513153076172,0.0841827392578,0.147033691406,22.6,3.15)" filter="url(#filter69)" xlink:href="#c70"/></g></g><filter id="filter68"><feColorMatrix in="SourceGraphic" type="matrix" values="0.0 0.0 0.0 0.0 0.796875 0.0 0.0 0.0 0.0 0.59765625 0.0 0.0 0.0 0.0 0.19921875 0.0 0.0 0.0 1.0 0.0" result="cxform"/><feComposite operator="in" in2="SourceGraphic" result="color-xform"/></filter><filter id="filter69"><feColorMatrix in="SourceGraphic" type="matrix" values="0.0 0.0 0.0 0.0 0.99609375 0.0 0.0 0.0 0.0 0.99609375 0.0 0.0 0.0 0.0 0.99609375 0.0 0.0 0.0 1.0 0.0" result="cxform"/><feComposite operator="in" in2="SourceGraphic" result="color-xform"/></filter><filter id="filter73"><feColorMatrix in="SourceGraphic" type="matrix" values="1.0 0.0 0.0 0.0 0.0 0.0 1.0 0.0 0.0 0.0 0.0 0.0 1.0 0.0 0.0 0.0 0.0 0.0 0.23046875 0.0" result="cxform"/><feComposite operator="in" in2="SourceGraphic" result="color-xform"/></filter></defs><g><g><use transform="matrix(1.0,0.0,0.0,1.0,0.0,0.0)" xlink:href="#c63"/></g><g><use transform="matrix(1.15496826172,0.0,0.0,1.15496826172,5.85,4.8)" xlink:href="#c71"/></g><g><use transform="matrix(0.247802734375,-0.0577392578125,0.0577392578125,0.247802734375,30.45,37.05)" xlink:href="#c62"/></g><g><use transform="matrix(0.162948608398,-0.0436706542969,0.128631591797,0.260604858398,30.0,28.7)" filter="url(#filter73)" xlink:href="#c68"/></g></g></svg>