<?xml version='1.0' encoding='UTF-8'?>
<svg xmlns:xlink="http://www.w3.org/1999/xlink" xmlns="http://www.w3.org/2000/svg" version="1.1" width="60px" height="60px" viewBox="0.0 0.0 60.0 60.0"><defs><radialGradient gradientUnits="userSpaceOnUse" r="819.2" cx="0" cy="0" spreadMethod="pad" gradientTransform="matrix(0.01904296875,0.000167846679688,-0.00079345703125,0.01904296875,29.9,17.9)" id="gradient1"><stop offset="0.298039215686" stop-color="#9a7d64"/><stop offset="0.345098039216" stop-color="#9b7e64"/><stop offset="0.917647058824" stop-color="#775e4d"/></radialGradient><radialGradient gradientUnits="userSpaceOnUse" r="819.2" cx="0" cy="0" spreadMethod="pad" gradientTransform="matrix(0.0156555175781,0.000137329101562,-0.000640869140625,0.0156555175781,30.15,19.05)" id="gradient2"><stop offset="0.258823529412" stop-color="#e0df0e"/><stop offset="0.850980392157" stop-color="#c0c02e"/></radialGradient><g id="c1"><path fill="#673c10" stroke="none" d="M24.85 41.45 Q18.35 39.9 16.05 37.75 13.35 35.05 12.9 31.1 14.3 23.95 19.7 21.1 24.2 21.1 26.6 23.0 29.75 24.9 30.95 27.85 32.6 32.2 32.15 36.8 32.15 41.25 24.85 41.45"/><path fill="none" stroke="#000000" stroke-width="0.5" stroke-opacity="0.301960784314" d="M24.85 41.45 Q18.35 39.9 16.05 37.75 13.35 35.05 12.9 31.1 14.3 23.95 19.7 21.1 24.2 21.1 26.6 23.0 29.75 24.9 30.95 27.85 32.6 32.2 32.15 36.8"/><path fill="#70543a" stroke="none" d="M36.75 19.45 L43.2 25.0 43.25 25.05 40.2 34.0 Q42.35 25.45 38.15 30.3 38.75 24.85 36.75 19.45"/><path fill="#54412c" stroke="none" d="M3.35 23.7 L3.35 23.65 3.45 23.65 3.35 23.7 3.45 23.65 3.35 23.75 3.35 23.7 M15.55 5.25 Q17.8 2.5 20.6 0.0 24.05 1.6 24.95 4.45 L25.1 5.05 29.3 13.1 36.75 19.45 Q38.75 24.85 38.15 30.3 42.35 25.45 40.2 34.0 26.1 37.65 14.45 35.15 7.5 31.65 3.5 27.4 L4.95 25.25 Q9.6 24.55 10.6 28.55 L14.4 20.0 Q17.75 12.7 20.5 8.8 22.65 5.4 21.3 1.95 17.8 2.9 15.55 5.25 M25.1 5.05 L24.8 4.65 24.95 4.45 24.8 4.65 25.1 5.05"/><path fill="#74533f" stroke="none" d="M15.55 5.25 Q17.8 2.9 21.3 1.95 22.65 5.4 20.5 8.8 17.75 12.7 14.4 20.0 6.35 31.1 9.2 16.05 11.35 10.5 15.25 5.65 L15.55 5.25"/><path fill="#3e2f20" stroke="none" d="M43.25 25.05 Q43.7 31.45 39.75 36.95 27.55 40.15 14.25 37.6 4.05 32.5 0.0 26.7 1.45 24.95 3.35 23.7 L3.35 23.75 3.45 23.65 6.1 21.35 Q5.95 18.7 9.2 16.05 6.35 31.1 14.4 20.0 L10.6 28.55 Q9.6 24.55 4.95 25.25 L3.5 27.4 Q7.5 31.65 14.45 35.15 26.1 37.65 40.2 34.0 L43.25 25.05"/><path fill="none" stroke="#000000" stroke-width="0.5" stroke-opacity="0.301960784314" d="M36.75 19.45 L43.2 25.0 43.25 25.05 Q43.7 31.45 39.75 36.95 27.55 40.15 14.25 37.6 4.05 32.5 0.0 26.7 1.45 24.95 3.35 23.7 L3.45 23.65 3.35 23.75 M3.35 23.65 L3.45 23.65 6.1 21.35 Q5.95 18.7 9.2 16.05 L8.8 15.8 M15.55 5.25 Q17.8 2.5 20.6 0.0 24.05 1.6 24.95 4.45 L25.1 5.05 29.3 13.1 36.75 19.45 M24.95 4.45 L24.8 4.65 25.1 5.05 M9.2 16.05 Q11.35 10.5 15.25 5.65 L15.55 5.25"/><path fill="#b38877" stroke="none" d="M14.75 9.2 Q17.4 5.8 18.4 5.35 15.55 10.45 12.7 14.35 12.1 14.1 12.1 13.5 12.1 12.65 14.75 9.2"/><path stroke="none" fill="url(#gradient1)" d="M38.5 31.95 Q21.95 32.55 15.15 29.45 12.05 27.05 11.6 24.95 12.55 22.55 14.85 20.55 14.8 12.6 23.2 6.85 27.25 8.35 30.65 11.05 34.15 13.85 36.85 18.0 38.9 21.05 40.2 24.65 41.05 28.7 38.5 31.95"/><path fill="none" stroke="#000000" stroke-width="0.5" stroke-opacity="0.301960784314" d="M38.5 31.95 Q21.95 32.55 15.15 29.45 12.05 27.05 11.6 24.95 12.55 22.55 14.85 20.55 14.8 12.6 23.2 6.85 27.25 8.35 30.65 11.05 34.15 13.85 36.85 18.0 38.9 21.05 40.2 24.65 41.05 28.7 38.5 31.95"/><path stroke="none" fill="url(#gradient2)" d="M22.8 8.6 L25.9 10.2 Q27.75 10.2 30.95 11.7 34.15 13.25 36.15 17.15 38.2 21.05 37.7 23.15 37.25 25.2 37.6 24.75 L38.5 30.45 34.9 29.2 32.35 29.95 Q30.2 30.5 27.5 29.2 24.75 27.85 23.45 25.8 L15.9 26.8 20.25 20.8 Q19.05 18.85 20.0 15.8 20.95 12.75 22.65 11.35 L22.8 8.6 M30.25 16.3 L24.6 13.5 Q23.7 14.5 23.45 16.25 23.25 18.25 24.15 19.05 L29.25 19.1 27.1 24.5 Q27.25 25.15 28.95 26.05 31.4 27.45 33.4 26.55 L33.45 26.5 31.6 20.6 35.8 24.05 Q35.6 23.6 35.7 22.75 35.95 20.3 34.9 17.9 L32.85 17.9 33.0 15.1 30.3 13.1 Q28.7 12.3 28.4 12.35 L30.25 16.3"/><path fill="none" stroke="#000000" stroke-width="0.5" stroke-opacity="0.152941176471" d="M22.8 8.6 L25.9 10.2 Q27.75 10.2 30.95 11.7 34.15 13.25 36.15 17.15 38.2 21.05 37.7 23.15 37.25 25.2 37.6 24.75 L38.5 30.45 34.9 29.2 32.35 29.95 Q30.2 30.5 27.5 29.2 24.75 27.85 23.45 25.8 L15.9 26.8 20.25 20.8 Q19.05 18.85 20.0 15.8 20.95 12.75 22.65 11.35 L22.8 8.6 M30.25 16.3 L28.4 12.35 Q28.7 12.3 30.3 13.1 L33.0 15.1 32.85 17.9 34.9 17.9 Q35.95 20.3 35.7 22.75 35.6 23.6 35.8 24.05 L31.6 20.6 33.45 26.5 33.4 26.55 Q31.4 27.45 28.95 26.05 27.25 25.15 27.1 24.5 L29.25 19.1 24.15 19.05 Q23.25 18.25 23.45 16.25 23.7 14.5 24.6 13.5 L30.25 16.3"/><path fill="none" stroke="#f9e79f" stroke-width="0.5" stroke-opacity="0.6" d="M23.9 10.35 L26.6 11.7 Q28.15 11.7 30.9 12.95 33.65 14.25 35.35 17.45 37.15 20.7 36.7 22.4 36.3 24.1 36.6 23.75 L37.4 28.5 34.25 27.45 32.1 28.1 Q30.25 28.55 27.95 27.5 25.6 26.35 24.45 24.65 L18.05 25.45 21.75 20.5 Q20.7 18.85 21.5 16.35 22.35 13.8 23.8 12.65 L23.9 10.35"/></g><g id="c2"><g><use transform="matrix(1.0,0.0,0.0,1.0,0.0,0.0)" xlink:href="#c1"/></g></g><g id="c3"><path fill="#8a5322" stroke="none" d="M11.5 21.0 Q5.55 19.3 2.85 15.1 1.5 11.35 2.35 7.05 5.3 1.3 11.05 0.0 17.75 6.45 20.15 14.35 19.6 21.65 11.5 21.0"/><path fill="none" stroke="#000000" stroke-width="0.5" stroke-opacity="0.301960784314" d="M11.5 21.0 Q19.6 21.65 20.15 14.35 17.75 6.45 11.05 0.0 5.3 1.3 2.35 7.05 1.5 11.35 2.85 15.1 5.55 19.3 11.5 21.0"/><path fill="#542f12" stroke="none" d="M17.65 11.2 Q18.1 6.9 21.75 4.35 28.1 13.45 19.85 15.9 16.05 24.75 7.9 23.8 -0.3 22.9 0.0 16.0 2.7 13.85 6.85 18.15 12.45 11.15 17.65 11.2"/><path fill="none" stroke="#000000" stroke-width="0.5" stroke-opacity="0.301960784314" d="M17.65 11.2 Q12.45 11.15 6.85 18.15 2.7 13.85 0.0 16.0 -0.3 22.9 7.9 23.8 16.05 24.75 19.85 15.9 28.1 13.45 21.75 4.35 18.1 6.9 17.65 11.2"/><path fill="#edb45f" stroke="none" d="M18.65 9.75 Q23.25 11.7 25.25 16.5 L24.65 18.8 Q18.65 26.75 6.8 18.15 L6.75 18.15 6.75 18.1 Q9.55 14.35 13.5 11.95 15.5 10.0 18.65 9.75"/><path fill="#432b1b" stroke="none" d="M6.75 18.15 L6.8 18.15 Q18.65 26.75 24.65 18.8 23.0 24.6 19.3 31.1 L18.6 33.3 18.45 33.2 Q17.85 30.15 17.0 28.6 13.05 29.55 11.15 31.65 10.35 34.85 14.2 37.3 11.05 36.4 9.6 34.5 L9.3 28.8 Q6.4 25.6 5.1 20.6 5.85 19.3 6.75 18.15"/><path fill="#74481d" stroke="none" d="M18.6 33.3 Q17.3 35.65 14.3 37.15 L14.2 37.3 Q10.35 34.85 11.15 31.65 13.05 29.55 17.0 28.6 17.85 30.15 18.45 33.2 L18.6 33.3"/><path fill="none" stroke="#000000" stroke-width="0.5" stroke-opacity="0.301960784314" d="M24.65 18.8 L25.25 16.5 Q23.25 11.7 18.65 9.75 M13.5 11.95 Q9.55 14.35 6.75 18.1 L6.75 18.15 M6.8 18.15 Q18.65 26.75 24.65 18.8 23.0 24.6 19.3 31.1 L18.6 33.3 M9.6 34.5 L9.3 28.8 Q6.4 25.6 5.1 20.6 5.85 19.3 6.75 18.15"/><path fill="#542f12" stroke="none" d="M21.35 10.15 L24.35 10.45 24.3 10.55 Q22.05 12.8 22.8 13.95 24.0 15.25 26.5 14.85 L28.6 12.4 Q28.75 14.8 26.0 16.95 L25.8 17.0 Q23.6 15.5 20.45 15.65 21.85 13.5 21.95 11.4 L21.35 10.15 M22.15 13.85 Q22.35 12.55 21.95 11.4 22.35 12.55 22.15 13.85 M25.8 23.45 Q20.1 23.85 17.8 22.35 17.0 26.15 11.75 29.85 L15.7 24.45 Q15.1 22.55 15.55 20.7 L17.8 22.35 Q18.5 19.05 17.9 17.05 L17.05 16.1 17.0 16.05 17.0 16.0 Q17.2 14.5 17.7 13.15 17.45 15.95 19.15 17.0 17.35 19.3 19.4 20.7 21.4 22.55 25.8 23.45 M7.8 25.55 Q7.6 24.95 7.55 24.35 3.55 25.55 0.15 24.25 L1.6 21.25 1.15 23.6 Q3.7 24.35 7.6 21.7 L5.55 19.75 Q5.0 18.8 4.75 17.8 4.45 16.45 4.85 15.0 L5.0 15.0 5.0 15.05 Q5.95 18.25 8.5 20.05 L10.5 20.8 Q10.25 20.95 9.95 21.2 7.5 23.2 7.9 25.5 L7.8 25.55 M12.85 17.75 L14.05 13.95 13.7 17.6 Q13.95 18.95 14.55 19.8 L12.9 17.9 12.85 17.75"/><path fill="#885522" stroke="none" d="M24.35 10.45 Q26.55 10.55 28.6 12.2 L28.6 12.4 26.5 14.85 Q24.0 15.25 22.8 13.95 22.05 12.8 24.3 10.55 L24.35 10.45 M1.6 21.25 L1.7 21.15 Q3.1 18.9 4.75 17.8 5.0 18.8 5.55 19.75 L7.6 21.7 Q3.7 24.35 1.15 23.6 L1.6 21.25"/><path fill="#a46628" stroke="none" d="M21.35 10.15 L21.95 11.4 Q21.85 13.5 20.45 15.65 23.6 15.5 25.8 17.0 L26.0 16.95 Q27.15 20.05 26.25 23.45 L25.8 23.45 Q21.4 22.55 19.4 20.7 17.35 19.3 19.15 17.0 17.45 15.95 17.7 13.15 L19.6 7.15 21.35 10.15 M11.75 29.85 Q8.6 28.1 7.8 25.55 L7.9 25.5 Q7.5 23.2 9.95 21.2 10.25 20.95 10.5 20.8 L8.5 20.05 Q5.95 18.25 5.0 15.05 L5.05 15.0 Q9.05 15.2 12.8 17.95 L12.9 17.9 14.55 19.8 Q13.95 18.95 13.7 17.6 L14.05 13.95 16.95 16.15 17.05 16.1 17.9 17.05 Q18.5 19.05 17.8 22.35 L15.55 20.7 Q15.1 22.55 15.7 24.45 L11.75 29.85"/><path fill="none" stroke="#000000" stroke-width="0.5" stroke-opacity="0.301960784314" d="M24.35 10.45 L21.35 10.15 21.95 11.4 Q22.35 12.55 22.15 13.85 M28.6 12.4 L28.6 12.2 Q26.55 10.55 24.35 10.45 M28.6 12.4 Q28.75 14.8 26.0 16.95 27.15 20.05 26.25 23.45 L25.8 23.45 Q20.1 23.85 17.8 22.35 17.0 26.15 11.75 29.85 8.6 28.1 7.8 25.55 7.6 24.95 7.55 24.35 3.55 25.55 0.15 24.25 L1.6 21.25 1.7 21.15 Q3.1 18.9 4.75 17.8 4.45 16.45 4.85 15.0 L5.0 15.0 5.05 15.0 Q9.05 15.2 12.8 17.95 L12.85 17.75 14.05 13.95 16.95 16.15 17.0 16.05 17.0 16.0 Q17.2 14.5 17.7 13.15 L19.6 7.15 21.35 10.15 M5.0 15.0 L5.0 15.05 M5.55 19.75 Q5.0 18.8 4.75 17.8 M17.0 16.05 L17.05 16.1 17.9 17.05 M12.9 17.9 L12.85 17.75"/></g><g id="c4"><g><use transform="matrix(1.0,0.0,0.0,1.0,0.0,0.0)" xlink:href="#c3"/></g></g><g id="c5"><path fill="#74481d" stroke="none" d="M3.65 4.3 Q6.95 6.25 7.9 7.95 6.6 9.4 4.0 9.95 1.65 9.7 0.0 6.95 0.95 4.75 3.65 4.3"/><path fill="none" stroke="#000000" stroke-width="0.5" stroke-opacity="0.301960784314" d="M4.0 9.95 Q1.65 9.7 0.0 6.95 0.95 4.75 3.65 4.3"/><path fill="#74481d" stroke="none" d="M3.9 9.95 Q6.05 8.3 8.3 8.7 10.5 9.95 10.45 12.55 9.95 15.0 7.4 15.85 4.9 13.65 3.9 9.95"/><path fill="none" stroke="#000000" stroke-width="0.5" stroke-opacity="0.301960784314" d="M10.45 12.55 Q9.95 15.0 7.4 15.85 4.9 13.65 3.9 9.95"/><path fill="#432b1b" stroke="none" d="M4.05 4.6 L7.05 2.85 6.95 0.25 Q10.6 -0.5 14.25 1.0 15.85 4.8 14.45 7.45 13.45 10.35 11.0 12.05 L10.9 12.15 10.8 12.15 10.15 12.55 Q4.65 12.15 4.05 4.6"/><path fill="none" stroke="#000000" stroke-width="0.5" stroke-opacity="0.301960784314" d="M4.05 4.6 L7.05 2.85 6.95 0.25 Q10.6 -0.5 14.25 1.0 15.85 4.8 14.45 7.45 13.45 10.35 11.0 12.05 L10.9 12.15 10.8 12.15 10.15 12.55"/></g><g id="c6"><g><use transform="matrix(1.0,0.0,0.0,1.0,0.0,0.0)" xlink:href="#c5"/></g></g><g id="c7"><path fill="#5f3c18" stroke="none" d="M111.55 5.25 Q112.0 8.05 111.9 11.4 L111.15 9.75 110.8 9.2 111.55 5.25 M107.05 1.9 L111.05 3.1 111.35 4.3 Q110.8 3.7 107.85 2.35 L107.0 2.05 107.05 1.9"/><path fill="#775e4d" stroke="none" d="M111.4 4.4 L111.55 5.25 110.8 9.2 Q109.1 6.6 105.7 5.7 L100.5 5.9 Q97.6 5.45 94.15 5.85 93.25 6.2 92.3 6.8 L96.05 1.7 107.0 2.05 107.85 2.35 Q110.8 3.7 111.35 4.3 L111.35 4.35 111.4 4.4 M74.3 39.1 Q77.8 24.95 83.0 12.95 L84.35 12.9 Q85.75 12.6 87.75 11.35 L85.25 17.35 Q83.05 20.35 80.45 24.85 L78.15 29.2 Q75.6 34.4 74.3 39.1 M72.75 47.1 Q72.95 44.95 74.0 43.45 78.1 34.05 81.6 26.9 L76.0 41.9 77.7 41.75 Q78.15 46.1 77.0 47.4 L75.45 46.0 72.75 47.1"/><path fill="#54412c" stroke="none" d="M111.9 11.4 L111.75 14.5 109.1 17.95 Q109.95 16.6 110.6 14.6 111.85 11.35 111.15 9.75 L111.9 11.4 M107.9 19.35 Q104.95 22.9 102.85 24.3 L102.05 15.05 105.4 16.85 Q106.55 15.0 106.85 9.65 102.15 7.3 95.3 7.25 L94.65 7.25 Q90.95 9.6 88.65 13.1 L88.25 14.05 Q86.75 15.25 85.25 17.35 L87.75 11.35 88.8 10.7 92.3 6.8 Q93.25 6.2 94.15 5.85 97.6 5.45 100.5 5.9 104.3 6.5 107.35 8.5 108.65 10.85 107.1 15.45 L103.65 19.8 105.4 16.85 103.65 19.8 Q106.1 20.95 107.9 19.35 M96.85 0.2 Q102.15 0.65 107.05 1.9 L107.0 2.05 96.05 1.7 96.8 0.45 96.85 0.2 M95.3 7.25 Q97.8 6.3 100.5 5.9 97.8 6.3 95.3 7.25"/><path fill="#74533f" stroke="none" d="M109.1 17.95 L107.9 19.35 Q106.1 20.95 103.65 19.8 L107.1 15.45 Q108.65 10.85 107.35 8.5 104.3 6.5 100.5 5.9 L105.7 5.7 Q109.1 6.6 110.8 9.2 L111.15 9.75 Q111.85 11.35 110.6 14.6 109.95 16.6 109.1 17.95 M83.0 12.95 Q84.75 8.9 86.7 5.15 89.5 2.05 93.55 0.0 L96.85 0.2 96.8 0.45 96.05 1.7 92.3 6.8 88.8 10.7 87.75 11.35 Q85.75 12.6 84.35 12.9 L83.0 12.95 M85.25 17.35 L81.6 26.9 Q78.1 34.05 74.0 43.45 72.95 44.95 72.75 47.1 L72.7 47.1 Q70.9 44.55 73.0 40.55 L73.05 40.55 74.95 40.25 Q76.25 34.9 78.15 29.2 L80.45 24.85 Q83.05 20.35 85.25 17.35"/><path fill="#433223" stroke="none" d="M88.25 14.05 Q82.85 26.1 79.4 38.9 80.3 46.0 77.6 53.1 75.45 52.3 74.2 48.85 L72.75 49.3 70.55 49.95 68.7 45.4 69.0 40.25 74.25 39.3 74.3 39.1 Q75.6 34.4 78.15 29.2 76.25 34.9 74.95 40.25 L73.05 40.55 73.0 40.55 Q70.9 44.55 72.7 47.1 L72.75 47.1 75.45 46.0 77.0 47.4 Q78.15 46.1 77.7 41.75 L76.0 41.9 81.6 26.9 85.25 17.35 Q86.75 15.25 88.25 14.05 M86.25 17.8 L81.6 26.9 86.25 17.8 M72.75 49.3 L72.75 47.1 72.75 49.3 M74.2 48.85 L75.9 48.3 74.2 48.85"/><path fill="none" stroke="#000000" stroke-width="0.5" stroke-opacity="0.301960784314" d="M111.4 4.4 L111.55 5.25 Q112.0 8.05 111.9 11.4 L111.75 14.5 109.1 17.95 107.9 19.35 Q104.95 22.9 102.85 24.3 L102.05 15.05 105.4 16.85 Q106.55 15.0 106.85 9.65 102.15 7.3 95.3 7.25 L94.65 7.25 Q90.95 9.6 88.65 13.1 L88.25 14.05 Q82.85 26.1 79.4 38.9 80.3 46.0 77.6 53.1 75.45 52.3 74.2 48.85 L72.75 49.3 70.55 49.95 68.7 45.4 69.0 40.25 74.25 39.3 74.3 39.1 Q77.8 24.95 83.0 12.95 84.75 8.9 86.7 5.15 89.5 2.05 93.55 0.0 L96.85 0.2 Q102.15 0.65 107.05 1.9 L111.05 3.1 111.35 4.3 111.4 4.4 M105.4 16.85 L103.65 19.8 M73.05 40.55 L73.0 40.55 M75.9 48.3 L74.2 48.85"/><path fill="none" stroke="#000000" stroke-width="0.5" stroke-opacity="0.152941176471" d="M96.05 1.7 L92.3 6.8 M100.5 5.9 L105.7 5.7 Q109.1 6.6 110.8 9.2 M111.15 9.75 L110.8 9.2 M111.15 9.75 L111.9 11.4 M100.5 5.9 Q97.8 6.3 95.3 7.25 M96.05 1.7 L96.8 0.45 M87.75 11.35 L88.8 10.7 92.3 6.8 M83.0 12.95 L84.35 12.9 Q85.75 12.6 87.75 11.35 M85.25 17.35 Q86.75 15.25 88.25 14.05 M81.6 26.9 L86.25 17.8 M85.25 17.35 Q83.05 20.35 80.45 24.85 L78.15 29.2 Q75.6 34.4 74.3 39.1 M72.75 47.1 Q72.95 44.95 74.0 43.45 78.1 34.05 81.6 26.9 M72.75 47.1 L72.75 49.3"/><path fill="#a8a81c" stroke="none" d="M103.0 6.0 L106.15 6.0 Q109.2 6.95 110.9 9.2 111.2 11.85 110.9 14.55 106.55 21.35 104.05 21.55 109.35 15.85 109.75 13.3 109.75 8.65 107.1 7.9 105.0 6.6 103.0 6.0 M96.45 1.75 L92.6 6.8 90.85 8.75 89.45 10.2 89.1 10.6 88.05 11.2 86.1 12.2 Q88.1 8.85 90.95 5.9 86.8 6.35 84.65 12.7 L84.6 12.7 Q86.05 6.35 89.95 4.2 L93.35 2.65 96.45 1.75 M78.1 29.3 L78.3 28.9 80.65 24.65 82.85 20.95 Q78.1 30.4 74.3 42.6 L74.05 43.15 Q73.15 44.35 72.85 46.0 71.75 45.7 71.7 43.55 73.05 45.3 74.85 39.5 76.45 33.9 78.1 29.3"/><path fill="#cdcc20" stroke="none" d="M96.45 1.75 Q103.6 0.4 110.15 5.15 110.7 7.15 110.9 9.2 109.2 6.95 106.15 6.0 L103.0 6.0 Q96.2 3.65 90.85 8.75 L92.6 6.8 96.45 1.75 M84.6 12.7 L84.65 12.7 84.5 13.3 84.6 12.7 M86.1 12.2 L88.05 11.2 89.1 10.6 89.45 10.2 Q87.75 12.2 86.2 15.0 84.5 17.8 82.85 20.95 L80.65 24.65 78.3 28.9 78.1 29.3 Q81.3 20.35 84.7 15.0 L86.1 12.2 M74.3 42.6 L74.05 43.3 Q78.2 38.3 78.85 40.7 78.95 46.2 76.5 49.7 77.45 45.65 76.4 44.55 74.0 46.35 72.85 46.0 73.15 44.35 74.05 43.15 L74.3 42.6"/><path fill="none" stroke="#000000" stroke-width="0.5" stroke-opacity="0.152941176471" d="M110.9 9.2 L111.25 9.65 111.6 10.2 112.35 11.95 M110.9 9.2 Q109.2 6.95 106.15 6.0 L103.0 6.0 100.9 6.1 Q98.2 6.4 95.6 7.35 M96.45 1.75 L92.6 6.8 90.85 8.75 M97.2 0.5 L96.45 1.75 M84.6 12.7 L84.65 12.7 M86.1 12.2 L88.05 11.2 89.1 10.6 89.45 10.2 90.85 8.75 M84.6 12.7 L83.3 12.75 M82.85 20.95 L85.5 17.2 Q87.0 15.15 88.5 13.95 M86.1 12.2 L84.65 12.7 M74.3 42.6 Q78.3 33.6 81.75 26.7 84.3 21.6 86.55 17.7 M78.1 29.3 L78.3 28.9 80.65 24.65 82.85 20.95 M72.85 46.0 L72.75 46.8 72.75 49.0 M72.85 46.0 Q73.15 44.35 74.05 43.15 L74.3 42.6 M78.1 29.3 Q75.65 34.25 74.35 38.75"/><path fill="#54412c" stroke="none" d="M66.1 39.8 L66.0 40.3 Q64.95 45.8 65.85 49.9 67.0 58.65 68.6 62.5 L68.9 63.15 Q70.5 54.2 70.05 46.65 69.1 41.2 66.25 39.75 L66.1 39.8 M68.5 69.75 Q64.4 56.35 62.0 41.1 63.1 37.25 67.25 35.6 70.25 39.45 71.55 46.0 71.55 57.85 68.65 69.7 L68.5 69.75"/><path fill="#7b624f" stroke="none" d="M66.1 39.8 L66.25 39.75 Q69.1 41.2 70.05 46.65 70.5 54.2 68.9 63.15 L68.6 62.5 Q67.0 58.65 65.85 49.9 64.95 45.8 66.0 40.3 L66.1 39.8"/><path fill="none" stroke="#000000" stroke-width="0.5" stroke-opacity="0.301960784314" d="M68.65 69.7 Q71.55 57.85 71.55 46.0 70.25 39.45 67.25 35.6 63.1 37.25 62.0 41.1 64.4 56.35 68.5 69.75"/><path fill="#542f12" stroke="none" d="M49.65 61.65 Q47.15 58.2 49.75 56.25 L66.7 45.2 Q69.4 47.9 65.85 50.8 L49.65 61.65"/><path fill="none" stroke="#000000" stroke-width="0.5" stroke-opacity="0.301960784314" d="M49.65 61.65 L65.85 50.8 Q69.4 47.9 66.7 45.2 L49.75 56.25 Q47.15 58.2 49.65 61.65"/><path fill="#433223" stroke="none" d="M33.95 57.45 Q37.4 58.6 39.75 60.85 L39.85 60.9 44.4 55.3 46.0 59.1 45.65 65.2 42.35 68.75 Q42.25 73.15 40.7 76.45 36.6 73.95 35.45 67.0 29.25 60.7 21.7 57.4 23.2 56.6 25.0 56.45 L30.5 59.8 39.05 65.25 37.6 67.25 Q38.4 71.4 39.7 71.05 L40.6 67.95 43.1 65.55 43.15 65.5 Q43.95 61.15 41.15 60.5 L39.5 62.6 Q37.05 59.85 33.95 57.45 M40.85 70.45 L42.35 68.75 40.85 70.45"/><path fill="#775e4d" stroke="none" d="M39.75 60.85 Q37.4 58.6 33.95 57.45 L30.9 56.75 25.0 56.45 21.35 54.55 24.55 51.65 21.95 50.5 21.3 50.2 Q17.6 49.15 14.05 53.75 L13.55 54.35 12.0 56.85 16.45 56.4 Q15.5 57.05 14.6 57.9 11.7 61.8 9.45 65.75 7.25 68.6 5.1 72.0 2.55 76.9 1.8 81.15 0.55 79.8 0.2 78.8 L0.1 77.85 0.1 77.8 Q0.35 76.6 2.45 71.9 L3.1 70.6 3.0 70.55 Q6.65 63.5 10.95 56.6 L13.6 52.4 Q17.45 49.1 20.65 48.15 23.2 48.9 25.7 50.1 33.1 53.55 39.75 60.85 M43.1 65.55 L40.6 67.95 39.7 71.05 Q38.4 71.4 37.6 67.25 L39.05 65.25 30.5 59.8 Q35.25 61.4 41.1 64.1 42.4 64.0 43.1 65.55"/><path fill="#74533f" stroke="none" d="M1.8 81.15 Q2.55 76.9 5.1 72.0 7.25 68.6 9.45 65.75 6.45 71.0 4.5 76.35 4.05 79.85 6.5 81.85 L10.5 81.1 Q8.8 85.05 6.85 86.0 L5.5 86.3 Q4.45 86.2 3.4 85.35 1.5 84.2 1.65 82.05 L1.8 81.15 M16.45 56.4 L12.0 56.85 13.55 54.35 14.05 53.75 Q17.6 49.15 21.3 50.2 L21.95 50.5 24.55 51.65 21.35 54.55 20.35 55.3 16.45 56.4 M25.0 56.45 L30.9 56.75 33.95 57.45 Q37.05 59.85 39.5 62.6 L41.15 60.5 Q43.95 61.15 43.15 65.5 L43.1 65.55 Q42.4 64.0 41.1 64.1 35.25 61.4 30.5 59.8 L25.0 56.45"/><path fill="#54412c" stroke="none" d="M9.45 65.75 Q11.7 61.8 14.6 57.9 15.5 57.05 16.45 56.4 L20.35 55.3 21.35 54.55 25.0 56.45 Q23.2 56.6 21.7 57.4 L21.1 57.1 Q18.25 57.05 14.6 59.7 L14.15 60.45 Q8.45 68.95 5.2 76.7 6.8 80.75 8.25 80.8 L10.55 75.25 12.3 83.85 Q10.25 85.25 6.85 86.0 8.8 85.05 10.5 81.1 L8.25 80.8 10.5 81.1 6.5 81.85 Q4.05 79.85 4.5 76.35 6.45 71.0 9.45 65.75 M5.5 86.3 L2.45 86.7 1.5 84.35 1.65 82.05 Q1.5 84.2 3.4 85.35 4.45 86.2 5.5 86.3"/><path fill="#5f3c18" stroke="none" d="M3.0 70.55 L3.1 70.6 2.45 71.9 Q0.35 76.6 0.1 77.8 L0.0 76.5 3.0 70.55 M0.2 78.8 Q0.55 79.8 1.8 81.15 L1.65 82.05 1.5 84.35 Q0.55 81.65 0.2 78.8"/><path fill="none" stroke="#000000" stroke-width="0.5" stroke-opacity="0.301960784314" d="M39.75 60.85 Q33.1 53.55 25.7 50.1 23.2 48.9 20.65 48.15 17.45 49.1 13.6 52.4 L10.95 56.6 Q6.65 63.5 3.0 70.55 L0.0 76.5 0.1 77.8 M0.1 77.85 L0.2 78.8 M21.7 57.4 Q29.25 60.7 35.45 67.0 36.6 73.95 40.7 76.45 42.25 73.15 42.35 68.75 L40.85 70.45 M42.35 68.75 L45.65 65.2 46.0 59.1 44.4 55.3 39.85 60.9 39.75 60.85 M8.25 80.8 Q6.8 80.75 5.2 76.7 8.45 68.95 14.15 60.45 L14.6 59.7 Q18.25 57.05 21.1 57.1 L21.7 57.4 M6.85 86.0 Q10.25 85.25 12.3 83.85 L10.55 75.25 8.25 80.8 10.5 81.1 M6.85 86.0 L5.5 86.3 2.45 86.7 1.5 84.35 Q0.55 81.65 0.2 78.8"/><path fill="#735b48" stroke="none" d="M45.65 62.25 Q45.45 56.05 48.35 50.25 L48.55 50.15 48.55 50.1 Q51.25 53.1 51.15 58.25 52.0 68.35 50.85 74.35 46.9 69.35 45.65 62.25"/><path fill="#54412c" stroke="none" d="M45.65 62.25 Q46.9 69.35 50.85 74.35 52.0 68.35 51.15 58.25 51.25 53.1 48.55 50.1 L48.55 50.15 48.35 50.25 Q45.45 56.05 45.65 62.25 M52.2 80.15 Q47.0 73.55 44.15 63.55 43.75 56.45 45.4 49.6 49.3 45.95 51.15 47.9 52.65 63.7 52.35 80.0 L52.2 80.15"/><path fill="none" stroke="#000000" stroke-width="0.5" stroke-opacity="0.301960784314" d="M52.2 80.15 Q47.0 73.55 44.15 63.55 43.75 56.45 45.4 49.6 49.3 45.95 51.15 47.9 52.65 63.7 52.35 80.0"/><path fill="#a8a81c" stroke="none" d="M34.2 57.55 Q36.75 59.35 39.5 62.05 42.5 64.7 43.1 61.65 43.65 63.5 42.85 65.05 42.15 64.05 41.1 64.1 L40.75 63.95 Q34.5 58.4 28.1 56.4 L30.9 56.75 33.95 57.45 34.2 57.55 M23.2 53.1 L21.35 54.55 20.35 55.3 19.95 55.4 18.45 55.85 16.45 56.4 12.0 56.85 14.8 53.85 18.0 51.05 Q21.8 48.1 24.6 51.65 L24.55 51.65 24.55 51.7 Q21.15 49.05 17.6 53.65 20.75 52.65 23.2 53.1 M2.0 80.35 Q2.8 76.45 5.1 72.0 L7.7 68.2 Q6.2 71.1 4.8 74.7 2.8 78.55 3.95 82.35 5.0 83.95 10.8 82.35 8.7 85.15 3.35 84.75 2.45 82.9 2.0 80.35"/><path fill="#cdcc20" stroke="none" d="M34.2 57.55 L33.95 57.45 30.9 56.75 28.1 56.4 23.85 55.45 Q21.85 55.0 19.95 55.4 L20.35 55.3 21.35 54.55 23.2 53.1 25.1 53.65 Q29.25 54.0 34.2 57.55 M40.75 63.95 L41.1 64.1 Q42.15 64.05 42.85 65.05 41.95 66.75 39.5 68.1 38.9 70.3 40.75 72.5 37.85 72.5 36.5 67.9 36.45 65.15 41.1 64.3 L40.75 63.95 M24.6 51.65 L24.85 52.0 24.55 51.7 24.55 51.65 24.6 51.65 M12.0 56.85 L16.45 56.4 18.45 55.85 Q12.7 58.1 7.7 68.2 L5.1 72.0 Q2.8 76.45 2.0 80.35 1.65 78.45 1.55 76.15 5.75 64.3 12.0 56.85"/><path fill="none" stroke="#000000" stroke-width="0.5" stroke-opacity="0.152941176471" d="M39.75 60.85 Q37.5 58.7 34.2 57.55 L33.95 57.45 30.9 56.75 28.1 56.4 25.0 56.45 Q23.2 56.6 21.7 57.4 M42.85 65.05 L43.1 65.55 43.65 67.4 M40.75 63.95 L41.1 64.1 Q42.15 64.05 42.85 65.05 M40.75 63.95 Q35.15 61.35 30.5 59.8 27.1 58.65 24.3 58.05 M23.2 53.1 L21.35 54.55 20.35 55.3 19.95 55.4 M24.55 51.7 L23.2 53.1 M24.6 51.65 L24.55 51.65 24.55 51.7 M25.7 50.1 L24.6 51.65 M12.0 56.85 L16.45 56.4 18.45 55.85 19.95 55.4 M12.0 56.85 L11.05 56.7 M7.7 68.2 L5.1 72.0 Q2.8 76.45 2.0 80.35 L1.8 81.15 1.65 82.05 1.5 84.35 M14.15 60.45 Q11.75 62.8 9.45 65.75 L7.7 68.2"/></g><g id="c8"><g><use transform="matrix(1.0,0.0,0.0,1.0,0.0,0.0)" xlink:href="#c7"/></g></g><g id="c9"><path fill="#542f12" stroke="none" d="M26.4 10.65 L27.85 12.75 Q32.15 13.2 33.6 9.4 L33.35 6.55 37.5 4.55 36.85 10.2 Q40.3 11.5 41.9 15.1 39.95 16.45 37.1 15.4 38.75 17.2 39.75 19.85 L39.7 19.95 Q37.5 16.1 32.9 14.05 30.35 15.85 30.0 19.85 31.55 24.0 34.65 26.25 L35.45 23.55 Q35.85 26.0 35.05 27.75 31.35 26.95 30.15 24.45 30.05 22.05 29.25 19.7 L26.95 17.25 Q24.05 19.0 23.0 21.5 24.1 25.1 27.5 27.8 23.65 26.75 22.25 22.95 21.5 24.8 20.55 26.25 18.95 22.4 14.95 20.0 12.3 20.55 11.05 23.6 10.4 20.85 10.65 17.65 7.35 21.15 2.35 20.4 8.25 18.95 10.95 14.6 9.9 10.5 6.65 9.65 L7.55 7.8 Q5.9 5.5 3.7 6.45 4.2 5.9 4.75 5.75 2.05 3.5 2.0 0.3 4.15 -0.9 6.45 2.65 L6.55 2.65 Q6.7 5.05 8.05 6.95 9.65 6.2 9.75 3.95 L9.8 6.35 10.2 4.3 Q10.35 10.55 13.9 13.65 16.25 11.85 17.2 7.35 L17.85 9.5 Q18.05 8.65 18.4 7.95 19.1 11.4 22.2 13.3 25.45 12.7 26.4 10.65 M3.95 13.65 Q1.15 13.25 0.1 10.95 L0.2 10.9 Q2.9 11.8 5.45 10.55 L4.9 11.5 5.05 11.55 3.95 13.65 M37.1 15.4 L34.65 13.35 37.1 15.4"/><path fill="#885522" stroke="none" d="M39.7 19.95 Q38.3 21.4 34.25 19.6 35.15 21.75 35.45 23.55 L34.65 26.25 Q31.55 24.0 30.0 19.85 30.35 15.85 32.9 14.05 37.5 16.1 39.7 19.95 M30.15 24.45 Q30.2 26.25 29.6 28.1 L27.5 27.8 Q24.1 25.1 23.0 21.5 24.05 19.0 26.95 17.25 L29.25 19.7 Q30.05 22.05 30.15 24.45 M20.55 26.25 Q18.45 29.45 15.25 30.8 12.1 27.7 11.05 23.6 12.3 20.55 14.95 20.0 18.95 22.4 20.55 26.25 M2.35 20.4 Q2.5 16.95 3.95 13.65 L5.05 11.55 4.9 11.5 5.45 10.55 Q2.9 11.8 0.2 10.9 L0.1 10.95 0.0 10.7 Q1.3 7.4 3.7 6.45 5.9 5.5 7.55 7.8 L6.65 9.65 Q9.9 10.5 10.95 14.6 8.25 18.95 2.35 20.4 M6.55 1.35 L6.6 1.3 Q7.0 0.5 8.35 0.15 9.45 1.95 9.75 3.95 9.65 6.2 8.05 6.95 6.7 5.05 6.55 2.65 L6.55 1.35 M10.2 4.3 Q11.05 1.45 13.2 0.2 15.75 3.2 17.2 7.35 16.25 11.85 13.9 13.65 10.35 10.55 10.2 4.3 M18.4 7.95 Q19.1 6.6 20.95 5.6 23.95 7.5 26.4 10.65 25.45 12.7 22.2 13.3 19.1 11.4 18.4 7.95"/><path fill="none" stroke="#000000" stroke-width="0.5" stroke-opacity="0.301960784314" d="M26.4 10.65 L27.85 12.75 Q32.15 13.2 33.6 9.4 L33.35 6.55 37.5 4.55 36.85 10.2 Q40.3 11.5 41.9 15.1 39.95 16.45 37.1 15.4 38.75 17.2 39.75 19.85 L39.7 19.95 Q38.3 21.4 34.25 19.6 35.15 21.75 35.45 23.55 35.85 26.0 35.05 27.75 31.35 26.95 30.15 24.45 30.2 26.25 29.6 28.1 L27.5 27.8 Q23.65 26.75 22.25 22.95 21.5 24.8 20.55 26.25 18.45 29.45 15.25 30.8 12.1 27.7 11.05 23.6 10.4 20.85 10.65 17.65 7.35 21.15 2.35 20.4 2.5 16.95 3.95 13.65 1.15 13.25 0.1 10.95 L0.0 10.7 Q1.3 7.4 3.7 6.45 4.2 5.9 4.75 5.75 2.05 3.5 2.0 0.3 4.15 -0.9 6.45 2.65 6.3 1.9 6.55 1.35 M6.6 1.3 Q7.0 0.5 8.35 0.15 9.45 1.95 9.75 3.95 L9.8 6.35 10.2 4.3 Q11.05 1.45 13.2 0.2 15.75 3.2 17.2 7.35 L17.85 9.5 Q18.05 8.65 18.4 7.95 19.1 6.6 20.95 5.6 23.95 7.5 26.4 10.65 M29.25 19.7 Q30.05 22.05 30.15 24.45 M34.65 13.35 L37.1 15.4 M3.95 13.65 L5.05 11.55"/><path fill="#3e2f20" stroke="none" d="M6.7 6.7 Q9.5 11.1 14.5 13.65 L30.35 14.6 31.6 14.5 Q26.5 18.8 14.05 19.4 6.75 13.7 6.7 6.7"/><path fill="none" stroke="#000000" stroke-width="0.5" stroke-opacity="0.301960784314" d="M6.7 6.7 Q6.75 13.7 14.05 19.4 26.5 18.8 31.6 14.5 L30.35 14.6 14.5 13.65 Q9.5 11.1 6.7 6.7"/></g><g id="c10"><g><use transform="matrix(1.0,0.0,0.0,1.0,0.0,0.0)" xlink:href="#c9"/></g></g><g id="c11"><path fill="#5e571c" stroke="none" d="M7.35 19.3 Q2.25 14.65 0.3 9.6 -0.65 4.9 1.5 0.95 L1.6 0.75 1.75 0.7 Q7.35 -1.8 13.1 4.8 14.45 9.15 15.35 16.25 15.4 16.7 14.8 17.0 12.75 14.45 9.55 14.65 7.35 16.95 7.35 19.3"/><path fill="#a5a527" stroke="none" d="M7.35 19.3 Q7.35 16.95 9.55 14.65 12.75 14.45 14.8 17.0 L14.9 20.45 Q14.0 26.55 9.95 21.45 L7.35 19.3"/><path fill="none" stroke="#000000" stroke-width="0.5" stroke-opacity="0.301960784314" d="M15.35 16.25 Q14.45 9.15 13.1 4.8 7.35 -1.8 1.75 0.7 L1.6 0.75 1.5 0.95 Q-0.65 4.9 0.3 9.6 2.25 14.65 7.35 19.3 L9.95 21.45 Q14.0 26.55 14.9 20.45 L14.8 17.0"/><path fill="none" stroke="#000000" stroke-width="0.5" stroke-opacity="0.152941176471" d="M7.35 19.3 Q7.35 16.95 9.55 14.65 12.75 14.45 14.8 17.0 15.4 16.7 15.35 16.25"/></g><g id="c12"><g><use transform="matrix(1.0,0.0,0.0,1.0,0.0,0.0)" xlink:href="#c11"/></g></g><g id="c13"><path fill="#626925" stroke="none" d="M13.25 6.3 L11.65 17.55 Q6.65 17.05 5.85 10.3 L2.2 6.5 Q1.8 4.05 4.5 1.6 L4.6 1.5 Q6.7 -0.85 9.1 0.5 12.3 2.5 13.25 6.3"/><path fill="none" stroke="#000000" stroke-width="0.5" stroke-opacity="0.301960784314" d="M13.25 6.3 Q12.3 2.5 9.1 0.5 6.7 -0.85 4.6 1.5 L4.5 1.6 Q1.8 4.05 2.2 6.5 L5.85 10.3 Q6.65 17.05 11.65 17.55 L13.25 6.3"/><path fill="#433223" stroke="none" d="M10.35 4.9 L10.05 4.05 Q13.4 4.05 15.25 6.05 15.25 8.8 14.55 10.55 L16.3 11.5 Q15.25 16.7 11.6 19.35 4.75 18.75 2.0 15.1 1.45 13.85 2.95 11.9 1.1 10.35 0.0 8.7 0.15 5.75 2.65 5.2 L4.85 9.15 3.05 8.15 2.95 8.3 Q1.7 8.9 3.2 10.9 5.45 13.1 11.35 14.3 13.95 11.15 14.15 7.3 12.45 4.5 10.35 4.9 M5.95 14.1 L2.95 11.9 5.95 14.1 M13.3 13.5 L14.55 10.55 13.3 13.5"/><path fill="#76644b" stroke="none" d="M10.35 4.9 Q12.45 4.5 14.15 7.3 13.95 11.15 11.35 14.3 5.45 13.1 3.2 10.9 1.7 8.9 2.95 8.3 L3.05 8.15 4.85 9.15 Q6.0 11.2 9.75 11.9 L9.85 12.0 Q11.75 10.4 11.6 8.1 L10.35 4.9"/><path fill="none" stroke="#000000" stroke-width="0.5" stroke-opacity="0.301960784314" d="M14.55 10.55 Q15.25 8.8 15.25 6.05 13.4 4.05 10.05 4.05 L10.35 4.9 11.6 8.1 Q11.75 10.4 9.85 12.0 M3.05 8.15 L4.85 9.15 2.65 5.2 Q0.15 5.75 0.0 8.7 1.1 10.35 2.95 11.9 L5.95 14.1 M9.75 11.9 Q6.0 11.2 4.85 9.15 M2.95 11.9 Q1.45 13.85 2.0 15.1 4.75 18.75 11.6 19.35 15.25 16.7 16.3 11.5 L14.55 10.55 13.3 13.5"/></g><g id="c14"><g><use transform="matrix(1.0,0.0,0.0,1.0,0.0,0.0)" xlink:href="#c13"/></g></g><g id="c15"><path fill="#76644b" stroke="none" d="M13.0 8.0 L13.1 8.1 Q12.85 13.95 9.65 16.45 3.45 15.0 1.05 12.4 L1.15 12.3 Q1.65 9.1 4.95 5.95 8.85 5.45 12.9 7.9 L13.0 8.0"/><path fill="#54412c" stroke="none" d="M1.05 12.4 L0.05 11.0 Q-0.35 9.0 2.1 4.8 L0.65 0.7 0.8 0.65 Q3.5 -0.6 7.3 0.65 L8.85 4.4 Q11.45 6.05 12.9 7.9 8.85 5.45 4.95 5.95 1.65 9.1 1.15 12.3 L1.05 12.4"/><path fill="none" stroke="#000000" stroke-width="0.5" stroke-opacity="0.301960784314" d="M13.0 8.0 L13.1 8.1 Q12.85 13.95 9.65 16.45 3.45 15.0 1.05 12.4 L0.05 11.0 Q-0.35 9.0 2.1 4.8 L0.65 0.7 0.6 0.45 M12.9 7.9 Q11.45 6.05 8.85 4.4 L7.3 0.65 Q3.5 -0.6 0.8 0.65"/></g><g id="c16"><g><use transform="matrix(1.0,0.0,0.0,1.0,0.0,0.0)" xlink:href="#c15"/></g></g><g id="c17"><path fill="#5e571c" stroke="none" d="M11.0 22.2 Q8.2 16.45 4.1 13.7 1.55 14.2 1.3 16.1 L1.1 16.15 0.2 13.1 Q-0.65 6.65 2.05 0.25 6.55 -1.05 11.65 4.45 14.1 8.7 14.25 12.9 13.9 17.4 11.2 21.95 L11.0 22.2"/><path fill="#626925" stroke="none" d="M1.1 16.15 L1.3 16.1 Q1.55 14.2 4.1 13.7 8.2 16.45 11.0 22.2 L10.95 22.2 Q8.4 24.55 4.75 23.75 2.55 20.05 1.1 16.15"/><path fill="none" stroke="#000000" stroke-width="0.5" stroke-opacity="0.301960784314" d="M11.0 22.2 L11.2 21.95 Q13.9 17.4 14.25 12.9 14.1 8.7 11.65 4.45 6.55 -1.05 2.05 0.25 -0.65 6.65 0.2 13.1 L1.1 16.15 Q2.55 20.05 4.75 23.75"/></g><g id="c18"><g><use transform="matrix(1.0,0.0,0.0,1.0,0.0,0.0)" xlink:href="#c17"/></g></g><g id="c19"><path fill="#5e571c" stroke="none" d="M7.5 17.7 L4.9 4.0 5.35 1.95 Q5.6 0.05 8.7 0.0 12.7 0.6 14.75 4.25 L11.7 17.7 Q9.15 19.8 7.5 17.7"/><path fill="none" stroke="#000000" stroke-width="0.5" stroke-opacity="0.301960784314" d="M7.5 17.7 L4.9 4.0 5.35 1.95 Q5.6 0.05 8.7 0.0 12.7 0.6 14.75 4.25 L11.7 17.7 Q9.15 19.8 7.5 17.7"/><path fill="#604731" stroke="none" d="M13.25 8.25 Q14.75 7.8 16.45 9.65 L15.8 12.05 Q13.65 13.95 10.0 14.45 5.55 13.75 1.9 10.85 2.0 9.85 3.85 8.05 L5.7 8.05 6.35 11.45 11.7 12.85 13.4 9.65 13.25 8.25"/><path fill="#433223" stroke="none" d="M13.25 8.25 L13.1 6.55 Q16.05 6.95 17.85 10.05 17.3 12.7 14.5 13.85 L17.55 15.5 Q15.9 18.0 10.5 19.7 5.35 19.15 2.65 16.9 2.15 14.95 4.15 13.85 1.25 12.6 0.0 10.65 1.65 6.9 5.2 5.45 L5.7 8.05 3.85 8.05 Q2.0 9.85 1.9 10.85 5.55 13.75 10.0 14.45 13.65 13.95 15.8 12.05 L16.45 9.65 Q14.75 7.8 13.25 8.25 M7.25 14.85 L4.15 13.85 7.25 14.85 M13.25 14.3 L14.5 13.85 13.25 14.3"/><path fill="none" stroke="#000000" stroke-width="0.5" stroke-opacity="0.301960784314" d="M14.5 13.85 Q17.3 12.7 17.85 10.05 16.05 6.95 13.1 6.55 L13.25 8.25 13.4 9.65 11.7 12.85 6.35 11.45 5.7 8.05 5.2 5.45 Q1.65 6.9 0.0 10.65 1.25 12.6 4.15 13.85 L7.25 14.85 M14.5 13.85 L17.55 15.5 Q15.9 18.0 10.5 19.7 5.35 19.15 2.65 16.9 2.15 14.95 4.15 13.85 M14.5 13.85 L13.25 14.3"/></g><g id="c20"><g><use transform="matrix(1.0,0.0,0.0,1.0,0.0,0.0)" xlink:href="#c19"/></g></g><g id="c21"><path fill="#433223" stroke="none" d="M2.25 7.05 Q3.35 5.55 4.95 4.15 L10.35 5.35 12.25 4.35 12.25 2.15 Q14.55 -2.1 17.7 2.15 L19.6 7.95 18.1 9.35 13.1 9.35 Q13.3 11.5 11.2 12.95 L8.75 12.95 8.8 12.75 Q12.2 9.25 8.95 5.95 4.75 4.75 2.25 7.05"/><path fill="#604731" stroke="none" d="M2.25 7.05 Q4.75 4.75 8.95 5.95 12.2 9.25 8.8 12.75 L8.75 12.95 Q3.75 12.75 0.0 11.15 0.7 9.05 2.25 7.05"/><path fill="none" stroke="#000000" stroke-width="0.5" stroke-opacity="0.301960784314" d="M8.75 12.95 L11.2 12.95 Q13.3 11.5 13.1 9.35 L18.1 9.35 19.6 7.95 17.7 2.15 Q14.55 -2.1 12.25 2.15 L12.25 4.35 10.35 5.35 4.95 4.15 Q3.35 5.55 2.25 7.05 M8.75 12.95 Q3.75 12.75 0.0 11.15 0.7 9.05 2.25 7.05"/></g><g id="c22"><g><use transform="matrix(1.0,0.0,0.0,1.0,0.0,0.0)" xlink:href="#c21"/></g></g><g id="c23"><path fill="#fd8c1c" stroke="none" d="M3.2 6.75 Q2.4 6.5 1.55 5.35 0.65 4.15 0.25 2.8 -0.15 1.4 0.15 0.6 0.45 -0.2 1.3 0.1 2.1 0.35 3.0 1.55 3.85 2.7 4.25 4.05 4.6 5.4 4.3 6.2 4.0 7.0 3.2 6.75"/><path fill="none" stroke="#000000" stroke-width="0.5" stroke-opacity="0.301960784314" d="M3.2 6.75 Q4.0 7.0 4.3 6.2 4.6 5.4 4.25 4.05 3.85 2.7 3.0 1.55 2.1 0.35 1.3 0.1 0.45 -0.2 0.15 0.6 -0.15 1.4 0.25 2.8 0.65 4.15 1.55 5.35 2.4 6.5 3.2 6.75"/></g><g id="c24"><g><use transform="matrix(1.0,0.0,0.0,1.0,0.0,0.0)" xlink:href="#c23"/></g></g><g id="c25"><path fill="#fd8c1c" stroke="none" d="M1.1 1.4 Q2.25 0.65 3.85 0.25 L6.6 0.05 Q7.75 0.35 7.75 1.1 7.75 1.9 6.6 2.65 5.45 3.5 3.85 3.9 L1.1 4.0 Q0.0 3.8 0.0 3.0 0.0 2.25 1.1 1.4"/><path fill="none" stroke="#000000" stroke-width="0.5" stroke-opacity="0.301960784314" d="M1.1 1.4 Q2.25 0.65 3.85 0.25 L6.6 0.05 Q7.75 0.35 7.75 1.1 7.75 1.9 6.6 2.65 5.45 3.5 3.85 3.9 L1.1 4.0 Q0.0 3.8 0.0 3.0 0.0 2.25 1.1 1.4"/></g><g id="c26"><g><use transform="matrix(1.0,0.0,0.0,1.0,0.0,0.0)" xlink:href="#c25"/></g></g><g id="c27"><path fill="#fd8c1c" stroke="none" d="M0.05 5.7 L0.0 5.65 Q0.45 2.8 3.95 0.1 L4.1 0.0 Q7.8 -0.25 10.75 3.0 12.0 5.7 11.55 8.45 9.7 11.8 4.9 13.65 5.1 10.4 4.75 6.45 4.6 4.8 3.7 2.8 1.5 3.1 0.05 5.7"/><path fill="#ae4315" stroke="none" d="M0.05 5.7 Q1.5 3.1 3.7 2.8 4.6 4.8 4.75 6.45 2.65 7.3 0.05 5.7"/><path fill="none" stroke="#000000" stroke-width="0.5" stroke-opacity="0.301960784314" d="M4.75 6.45 Q5.1 10.4 4.9 13.65 9.7 11.8 11.55 8.45 12.0 5.7 10.75 3.0 7.8 -0.25 4.1 0.0 L3.95 0.1 Q0.45 2.8 0.0 5.65 L0.05 5.7 M3.7 2.8 Q4.6 4.8 4.75 6.45 2.65 7.3 0.05 5.7"/></g><g id="c28"><g><use transform="matrix(1.0,0.0,0.0,1.0,0.0,0.0)" xlink:href="#c27"/></g></g><g id="c29"><path fill="#851d08" stroke="none" d="M25.1 6.15 Q25.3 9.0 22.65 11.8 L17.7 15.45 13.35 16.05 Q24.75 11.4 19.5 9.1 22.95 8.2 25.1 6.15 22.95 8.2 19.5 9.1 L19.3 9.0 Q23.55 6.6 21.9 5.8 L18.65 5.8 Q20.45 11.75 12.8 14.05 12.15 8.45 10.35 4.9 21.5 5.85 27.75 2.6 L25.1 6.15 M4.4 13.85 Q2.35 12.4 0.2 10.1 L0.2 7.65 Q-0.5 5.0 1.2 3.1 0.3 1.55 1.2 0.0 2.9 2.25 6.3 3.5 2.55 4.65 1.0 6.65 L0.95 6.7 Q1.15 10.25 4.4 13.85"/><path fill="#c93f1d" stroke="none" d="M19.5 9.1 Q24.75 11.4 13.35 16.05 7.55 18.0 4.4 13.85 1.15 10.25 0.95 6.7 L1.0 6.65 Q2.55 4.65 6.3 3.5 L10.35 4.9 Q12.15 8.45 12.8 14.05 20.45 11.75 18.65 5.8 L21.9 5.8 Q23.55 6.6 19.3 9.0 L19.5 9.1"/><path fill="none" stroke="#000000" stroke-width="0.5" stroke-opacity="0.301960784314" d="M13.35 16.05 L17.7 15.45 22.65 11.8 Q25.3 9.0 25.1 6.15 22.95 8.2 19.5 9.1 M13.35 16.05 Q7.55 18.0 4.4 13.85 2.35 12.4 0.2 10.1 L0.2 7.65 Q-0.5 5.0 1.2 3.1 0.3 1.55 1.2 0.0 2.9 2.25 6.3 3.5 L10.35 4.9 Q21.5 5.85 27.75 2.6 L25.1 6.15"/></g><g id="c30"><g><use transform="matrix(1.0,0.0,0.0,1.0,0.0,0.0)" xlink:href="#c29"/></g></g><g id="c31"><path fill="#f38525" stroke="none" d="M10.95 6.15 L11.55 8.05 11.85 10.2 Q12.1 14.6 7.7 18.9 3.1 19.6 1.2 16.9 4.05 17.4 6.15 15.9 8.0 14.55 7.5 12.15 7.0 9.75 6.45 9.25 6.15 1.65 10.95 6.15"/><path fill="#c55810" stroke="none" d="M0.7 4.25 L0.7 4.2 Q-0.35 0.45 6.25 0.0 L7.9 1.55 Q9.95 3.7 10.95 6.15 6.15 1.65 6.45 9.25 3.9 5.75 0.7 4.25"/><path fill="#a5490e" stroke="none" d="M1.2 16.9 L1.05 16.65 Q3.45 16.0 4.25 13.25 4.3 9.65 0.05 8.25 -0.25 5.75 0.7 4.25 3.9 5.75 6.45 9.25 7.0 9.75 7.5 12.15 8.0 14.55 6.15 15.9 4.05 17.4 1.2 16.9"/><path fill="none" stroke="#000000" stroke-width="0.5" stroke-opacity="0.301960784314" d="M11.55 8.05 L11.85 10.2 Q12.1 14.6 7.7 18.9 3.1 19.6 1.2 16.9 L1.05 16.65 Q3.45 16.0 4.25 13.25 4.3 9.65 0.05 8.25 -0.25 5.75 0.7 4.25 L0.7 4.2"/></g><g id="c32"><g><use transform="matrix(1.0,0.0,0.0,1.0,0.0,0.0)" xlink:href="#c31"/></g></g><g id="c33"><path fill="#a76525" stroke="none" d="M23.2 21.05 L26.7 16.75 30.7 15.55 30.8 15.4 Q32.55 16.2 34.95 11.95 L33.9 15.15 Q30.2 20.45 23.45 22.8 L23.2 21.05"/><path fill="#edb45f" stroke="none" d="M30.7 15.55 L26.7 16.75 23.2 21.05 22.9 19.15 23.9 14.75 Q29.2 11.5 34.95 11.95 32.55 16.2 30.8 15.4 L30.7 15.55"/><path fill="none" stroke="#000000" stroke-width="0.5" stroke-opacity="0.301960784314" d="M30.7 15.55 L26.7 16.75 23.2 21.05 23.45 22.8 Q30.2 20.45 33.9 15.15 L34.95 11.95 M23.2 21.05 L22.9 19.15 23.9 14.75 Q29.2 11.5 34.95 11.95"/><path fill="#673c10" stroke="none" d="M23.6 20.85 L22.45 16.15 20.8 18.8 20.15 19.55 Q18.65 21.15 15.65 21.7 11.5 19.45 10.25 17.2 L6.3 18.55 Q4.05 17.4 4.15 15.25 L2.2 16.2 2.15 16.15 Q2.35 14.75 3.9 14.2 L4.35 10.4 4.45 10.4 Q12.45 1.15 24.45 9.55 L24.7 15.65 23.6 20.85"/><path fill="#a76525" stroke="none" d="M20.15 19.55 L20.8 18.8 22.45 16.15 23.6 20.85 21.75 29.75 Q20.85 32.95 17.6 35.95 L13.1 35.75 10.95 35.1 11.0 34.9 17.0 34.9 Q20.05 30.85 19.95 26.25 L17.3 27.75 18.0 24.95 Q20.8 24.8 21.5 22.6 21.8 21.1 20.15 19.55 M4.15 32.6 L4.1 32.55 Q6.15 32.95 7.35 30.4 8.1 33.3 10.2 34.85 8.2 34.0 7.05 32.65 L4.15 32.6 M7.15 26.5 Q5.5 24.25 8.75 24.4 11.3 25.7 11.7 27.65 8.6 28.3 7.15 26.5"/><path fill="#edb45f" stroke="none" d="M2.2 16.2 L4.15 15.25 Q4.05 17.4 6.3 18.55 L10.25 17.2 Q11.5 19.45 15.65 21.7 18.65 21.15 20.15 19.55 21.8 21.1 21.5 22.6 20.8 24.8 18.0 24.95 L17.3 27.75 19.95 26.25 Q20.05 30.85 17.0 34.9 L11.0 34.9 10.95 35.1 10.2 34.85 Q8.1 33.3 7.35 30.4 6.15 32.95 4.1 32.55 L4.15 32.6 4.1 32.6 4.05 32.55 Q1.65 31.7 0.45 30.0 -0.35 27.9 0.3 25.85 L3.25 20.2 Q2.25 18.2 2.15 16.2 L2.2 16.2 M3.6 20.9 L3.25 20.2 3.6 20.9 M7.15 26.5 Q8.6 28.3 11.7 27.65 11.3 25.7 8.75 24.4 5.5 24.25 7.15 26.5"/><path fill="none" stroke="#000000" stroke-width="0.5" stroke-opacity="0.301960784314" d="M23.6 20.85 L24.7 15.65 24.45 9.55 Q12.45 1.15 4.45 10.4 M4.35 10.4 L3.9 14.2 Q2.35 14.75 2.15 16.15 M10.95 35.1 L13.1 35.75 17.6 35.95 Q20.85 32.95 21.75 29.75 L23.6 20.85 M3.25 20.2 L3.6 20.9 M2.15 16.2 Q2.25 18.2 3.25 20.2 L0.3 25.85 Q-0.35 27.9 0.45 30.0 1.65 31.7 4.05 32.55 L4.1 32.6 4.15 32.6 7.05 32.65 Q8.2 34.0 10.2 34.85 L10.95 35.1"/><path fill="none" stroke="#000000" stroke-width="0.5" stroke-opacity="0.301960784314" d="M20.35 19.85 Q22.0 21.5 21.8 23.1 20.75 24.7 18.3 25.3 L17.35 28.2"/><path fill="#c8ac81" stroke="none" d="M14.15 13.15 Q18.15 13.15 20.45 15.3 20.25 17.5 17.05 19.15 15.4 19.25 13.7 18.5 12.75 17.7 12.8 16.25 12.6 14.4 14.15 13.15"/><path fill="none" stroke="#000000" stroke-width="0.5" stroke-opacity="0.301960784314" d="M14.15 13.15 Q12.6 14.4 12.8 16.25 12.75 17.7 13.7 18.5 15.4 19.25 17.05 19.15 20.25 17.5 20.45 15.3 18.15 13.15 14.15 13.15"/><path fill="#000000" stroke="none" d="M15.95 17.3 Q15.55 17.7 15.0 17.7 14.5 17.7 14.1 17.3 13.75 16.9 13.75 16.35 13.75 15.85 14.1 15.45 14.5 15.1 15.0 15.1 15.55 15.1 15.95 15.45 16.3 15.85 16.3 16.4 L15.95 17.3"/><path fill="none" stroke="#000000" stroke-width="0.5" stroke-opacity="0.152941176471" d="M15.95 17.3 Q15.55 17.7 15.0 17.7 14.5 17.7 14.1 17.3 13.75 16.9 13.75 16.35 13.75 15.85 14.1 15.45 14.5 15.1 15.0 15.1 15.55 15.1 15.95 15.45 16.3 15.85 16.3 16.4 L15.95 17.3"/><path fill="#ffffff" stroke="none" d="M18.4 17.1 L17.35 17.45 16.3 17.4 Q15.85 17.25 15.85 16.95 15.85 16.65 16.3 16.35 L17.35 15.95 18.4 16.05 18.85 16.45 18.4 17.1"/><path fill="#c8ac81" stroke="none" d="M8.2 12.7 Q9.05 14.0 8.8 15.95 8.25 17.25 7.15 17.0 4.85 15.2 5.15 13.15 5.0 11.45 6.05 10.1 7.4 10.9 8.2 12.7"/><path fill="none" stroke="#000000" stroke-width="0.5" stroke-opacity="0.301960784314" d="M8.2 12.7 Q9.05 14.0 8.8 15.95 8.25 17.25 7.15 17.0 4.85 15.2 5.15 13.15 5.0 11.45 6.05 10.1 7.4 10.9 8.2 12.7"/><path fill="#000000" stroke="none" d="M9.1 14.95 Q8.7 15.35 8.15 15.35 7.65 15.35 7.25 14.95 6.9 14.55 6.9 14.0 6.9 13.5 7.25 13.1 7.65 12.75 8.15 12.75 8.7 12.75 9.1 13.1 9.45 13.5 9.45 14.05 L9.1 14.95"/><path fill="none" stroke="#000000" stroke-width="0.5" stroke-opacity="0.152941176471" d="M9.1 14.95 Q8.7 15.35 8.15 15.35 7.65 15.35 7.25 14.95 6.9 14.55 6.9 14.0 6.9 13.5 7.25 13.1 7.65 12.75 8.15 12.75 8.7 12.75 9.1 13.1 9.45 13.5 9.45 14.05 L9.1 14.95"/><path fill="#ffffff" stroke="none" d="M6.3 15.4 L5.75 14.75 Q5.55 14.3 5.65 14.0 5.7 13.65 5.95 13.6 L6.55 13.75 7.0 14.4 7.2 15.15 6.85 15.6 6.3 15.4"/><path fill="#d17436" stroke="none" d="M11.1 21.15 L8.95 20.65 Q7.75 18.3 8.4 15.7 L10.1 14.3 Q11.45 14.35 12.25 15.45 L12.8 18.95 Q12.7 20.55 11.1 21.15"/><path fill="none" stroke="#000000" stroke-width="0.5" stroke-opacity="0.301960784314" d="M11.1 21.15 L8.95 20.65 Q7.75 18.3 8.4 15.7 L10.1 14.3 Q11.45 14.35 12.25 15.45 L12.8 18.95 Q12.7 20.55 11.1 21.15"/><path fill="none" stroke="#000000" stroke-width="0.5" stroke-opacity="0.301960784314" d="M9.2 23.4 Q11.5 24.25 13.8 26.65 M5.85 22.8 L7.8 22.95"/></g><g id="c34"><g><use transform="matrix(1.0,0.0,0.0,1.0,0.0,0.0)" xlink:href="#c33"/></g></g><g id="c35"><path fill="#c55810" stroke="none" d="M4.55 2.7 L4.65 2.8 Q8.7 2.4 7.45 8.0 6.75 9.1 5.9 9.5 5.25 6.25 2.25 5.6 1.75 2.9 4.55 2.7"/><path fill="#fd8c1c" stroke="none" d="M10.7 2.3 Q16.8 5.05 13.85 13.25 10.95 18.9 4.65 17.65 -2.55 14.2 1.4 8.0 4.0 10.4 5.9 9.5 6.75 9.1 7.45 8.0 8.7 2.4 4.65 2.8 L4.55 2.7 Q5.95 -1.05 8.2 0.45 10.4 2.0 10.7 2.3"/><path fill="none" stroke="#000000" stroke-width="0.5" stroke-opacity="0.301960784314" d="M5.9 9.5 Q4.0 10.4 1.4 8.0 -2.55 14.2 4.65 17.65 10.95 18.9 13.85 13.25 16.8 5.05 10.7 2.3 M7.45 8.0 Q6.75 9.1 5.9 9.5 5.25 6.25 2.25 5.6"/></g><g id="c36"><g><use transform="matrix(1.0,0.0,0.0,1.0,0.0,0.0)" xlink:href="#c35"/></g></g><g id="c37"><path fill="#a5490e" stroke="none" d="M11.15 7.05 L11.05 7.35 Q11.0 10.6 9.0 10.95 6.9 9.95 7.0 5.95 L4.65 6.8 Q5.95 4.1 8.2 4.25 L8.35 4.25 8.85 4.3 Q10.5 4.6 11.15 7.05"/><path fill="#fd8c1c" stroke="none" d="M11.15 7.05 Q10.5 4.6 8.85 4.3 L8.35 4.25 8.2 4.25 Q5.95 4.1 4.65 6.8 3.65 8.7 3.2 12.15 -0.25 10.9 0.0 5.95 0.0 2.05 3.45 0.4 6.35 -0.95 9.4 2.1 12.2 4.4 11.15 7.05"/><path fill="none" stroke="#000000" stroke-width="0.5" stroke-opacity="0.301960784314" d="M11.05 7.35 L11.15 7.05 M8.85 4.3 L8.35 4.25 M8.2 4.25 Q5.95 4.1 4.65 6.8 L7.0 5.95 M9.4 2.1 Q6.35 -0.95 3.45 0.4 0.0 2.05 0.0 5.95 -0.25 10.9 3.2 12.15 3.65 8.7 4.65 6.8"/><path fill="none" stroke="#000000" stroke-width="0.5" stroke-opacity="0.152941176471" d="M8.35 4.25 L8.2 4.25"/></g><g id="c38"><g><use transform="matrix(1.0,0.0,0.0,1.0,0.0,0.0)" xlink:href="#c37"/></g></g><g id="c39"><path fill="#fd8c1c" stroke="none" d="M22.55 3.2 Q24.2 8.0 22.3 11.2 16.65 16.15 10.95 15.6 0.65 14.5 0.4 6.95 L0.65 6.25 Q5.7 1.25 11.55 0.2 15.5 1.65 10.95 5.7 12.05 4.85 13.15 4.4 L13.25 4.35 13.4 4.3 15.5 3.15 15.9 2.9 Q18.8 1.7 21.4 2.5 L22.55 3.2 M8.8 7.75 Q9.9 6.55 10.95 5.7 9.9 6.55 8.8 7.75"/><path fill="#c55810" stroke="none" d="M0.4 6.95 Q0.65 14.5 10.95 15.6 16.65 16.15 22.3 11.2 24.2 8.0 22.55 3.2 26.6 5.8 27.75 9.35 29.05 10.45 28.05 12.9 27.2 16.45 24.7 17.3 16.6 23.1 7.0 22.5 2.25 19.4 1.55 14.9 -0.75 11.1 0.4 6.95"/><path fill="#b7460b" stroke="none" d="M15.5 3.15 L13.4 4.3 13.25 4.35 13.15 4.4 Q12.05 4.85 10.95 5.7 15.5 1.65 11.55 0.2 L12.8 0.0 Q15.35 1.2 15.5 3.1 L15.5 3.15"/><path fill="none" stroke="#000000" stroke-width="0.5" stroke-opacity="0.301960784314" d="M22.55 3.2 L21.4 2.5 Q18.8 1.7 15.9 2.9 M13.4 4.3 L13.25 4.35 M13.15 4.4 Q12.05 4.85 10.95 5.7 9.9 6.55 8.8 7.75 M22.55 3.2 Q26.6 5.8 27.75 9.35 29.05 10.45 28.05 12.9 M7.0 22.5 Q2.25 19.4 1.55 14.9 -0.75 11.1 0.4 6.95 L0.65 6.25 Q5.7 1.25 11.55 0.2 L12.8 0.0 Q15.35 1.2 15.5 3.1 L15.9 2.9"/><path fill="none" stroke="#000000" stroke-width="0.5" stroke-opacity="0.152941176471" d="M15.9 2.9 L15.5 3.15 M13.25 4.35 L13.15 4.4"/></g><g id="c40"><g><use transform="matrix(1.0,0.0,0.0,1.0,0.0,0.0)" xlink:href="#c39"/></g></g><g id="c41"><path fill="#fd8c1c" stroke="none" d="M9.85 14.05 Q7.95 16.4 3.7 15.8 -0.35 11.9 0.05 7.85 0.55 2.55 6.35 0.15 L6.4 0.0 7.2 0.15 7.15 0.3 Q2.85 3.0 1.55 7.95 1.1 11.75 4.55 14.75 7.2 15.3 9.8 13.95 L9.85 14.05"/><path fill="#933811" stroke="none" d="M9.8 13.95 Q7.2 15.3 4.55 14.75 1.1 11.75 1.55 7.95 2.85 3.0 7.15 0.3 L7.25 0.15 Q12.15 1.25 10.2 5.15 5.95 6.4 7.15 10.65 7.8 13.15 10.05 13.75 L9.85 14.0 9.8 13.95"/><path fill="none" stroke="#000000" stroke-width="0.5" stroke-opacity="0.301960784314" d="M6.35 0.15 Q0.55 2.55 0.05 7.85 -0.35 11.9 3.7 15.8 7.95 16.4 9.85 14.05 M7.2 0.15 L6.4 0.0 M7.25 0.15 L7.2 0.15 M7.25 0.15 Q12.15 1.25 10.2 5.15 5.95 6.4 7.15 10.65 7.8 13.15 10.05 13.75 L9.85 14.0 9.85 14.05"/></g><g id="c42"><g><use transform="matrix(1.0,0.0,0.0,1.0,0.0,0.0)" xlink:href="#c41"/></g></g><g id="c43"><path fill="#c55810" stroke="none" d="M6.9 0.0 L7.3 0.0 7.45 0.0 Q13.45 2.15 13.35 7.65 12.5 10.25 10.15 9.9 10.35 11.4 9.9 13.25 7.6 15.5 3.1 14.9 1.4 12.5 0.65 10.1 1.4 11.55 4.3 12.25 8.05 10.45 8.1 6.25 L8.2 6.15 7.9 5.8 5.15 8.2 Q3.95 9.2 3.5 7.25 3.55 3.6 6.9 0.0 M9.9 10.05 L10.15 9.9 Q9.85 7.7 8.2 6.15 9.85 7.7 10.15 9.9 L9.9 10.05"/><path fill="#fd8c1c" stroke="none" d="M0.65 10.1 L0.3 8.9 Q-0.15 6.9 0.05 4.8 3.5 0.3 6.9 0.0 3.55 3.6 3.5 7.25 3.95 9.2 5.15 8.2 L7.9 5.8 8.2 6.15 8.1 6.25 Q8.05 10.45 4.3 12.25 1.4 11.55 0.65 10.1"/><path fill="none" stroke="#000000" stroke-width="0.5" stroke-opacity="0.301960784314" d="M6.9 0.0 L7.3 0.0 7.45 0.0 Q13.45 2.15 13.35 7.65 12.5 10.25 10.15 9.9 10.35 11.4 9.9 13.25 7.6 15.5 3.1 14.9 1.4 12.5 0.65 10.1 M0.3 8.9 Q-0.15 6.9 0.05 4.8 3.5 0.3 6.9 0.0 M3.5 7.25 Q3.95 9.2 5.15 8.2 L7.9 5.8 8.2 6.15 Q9.85 7.7 10.15 9.9 L9.9 10.05"/></g><g id="c44"><g><use transform="matrix(1.0,0.0,0.0,1.0,0.0,0.0)" xlink:href="#c43"/></g></g><g id="c45"><path fill="#fd8c1c" stroke="none" d="M23.05 3.8 Q24.9 4.9 25.4 10.9 L25.4 11.0 25.4 11.05 Q24.05 17.1 20.3 15.9 14.85 13.65 15.45 12.5 15.45 3.25 18.3 2.25 20.65 1.3 23.05 3.8 M25.15 20.65 L26.1 20.95 Q28.55 20.15 29.15 16.6 L29.3 16.6 29.35 16.65 Q35.45 21.7 29.35 26.75 22.6 27.5 22.5 25.35 20.4 21.9 25.1 20.75 L25.15 20.65"/><path fill="#a5490e" stroke="none" d="M23.05 3.8 Q20.65 1.3 18.3 2.25 15.45 3.25 15.45 12.5 14.85 13.65 20.3 15.9 24.05 17.1 25.4 11.05 24.95 14.85 23.1 17.75 22.05 19.5 25.15 20.65 L25.1 20.75 Q20.4 21.9 22.5 25.35 22.6 27.5 29.35 26.75 35.45 21.7 29.35 16.65 34.3 19.15 33.55 24.0 32.55 30.8 24.5 31.2 L21.3 30.0 Q19.5 35.8 11.25 36.0 3.0 33.4 0.0 25.75 1.75 7.75 14.25 0.45 16.3 -0.45 20.1 0.45 22.3 1.85 23.05 3.8"/><path fill="none" stroke="#000000" stroke-width="0.5" stroke-opacity="0.301960784314" d="M25.4 11.05 L25.4 11.0 25.4 10.9 Q24.9 4.9 23.05 3.8 M25.4 11.05 Q24.95 14.85 23.1 17.75 22.05 19.5 25.15 20.65 L26.1 20.95 Q28.55 20.15 29.15 16.6 L29.15 16.55 29.3 16.6 M29.35 16.65 Q34.3 19.15 33.55 24.0 32.55 30.8 24.5 31.2 L21.3 30.0 Q19.5 35.8 11.25 36.0 3.0 33.4 0.0 25.75 1.75 7.75 14.25 0.45 16.3 -0.45 20.1 0.45 22.3 1.85 23.05 3.8"/></g><g id="c46"><g><use transform="matrix(1.0,0.0,0.0,1.0,0.0,0.0)" xlink:href="#c45"/></g></g><g id="c47"><path fill="#edb45f" stroke="none" d="M12.9 2.8 Q14.95 4.9 15.95 8.45 14.2 13.35 12.5 15.5 9.9 14.0 9.8 9.6 L10.25 6.85 12.9 2.8 M7.25 0.0 L10.1 0.8 5.95 4.3 Q2.5 7.2 0.85 10.7 L0.3 11.95 Q1.15 4.1 7.25 0.0 M9.8 9.6 Q9.65 12.1 7.9 13.65 6.45 13.4 5.7 11.65 5.15 9.1 8.3 6.4 L9.8 9.6"/><path fill="#a5a527" stroke="none" d="M12.9 2.8 L10.25 6.85 9.8 9.6 Q9.9 14.0 12.5 15.5 7.75 16.0 3.65 14.9 0.35 12.8 0.85 10.7 2.5 7.2 5.95 4.3 L10.1 0.8 Q11.7 1.55 12.9 2.8 M9.8 9.6 L8.3 6.4 Q5.15 9.1 5.7 11.65 6.45 13.4 7.9 13.65 9.65 12.1 9.8 9.6"/><path fill="#5e571c" stroke="none" d="M12.5 15.5 L11.45 16.5 Q6.55 17.85 2.45 16.7 0.6 15.45 0.2 13.1 L0.3 11.95 0.85 10.7 Q0.35 12.8 3.65 14.9 7.75 16.0 12.5 15.5"/><path fill="none" stroke="#000000" stroke-width="0.5" stroke-opacity="0.152941176471" d="M12.9 2.8 L10.25 6.85 9.8 9.6 Q9.9 14.0 12.5 15.5 7.75 16.0 3.65 14.9 0.35 12.8 0.85 10.7 2.5 7.2 5.95 4.3 L10.1 0.8 M0.3 11.95 L0.0 12.25 M0.3 11.95 L0.85 10.7 M9.8 9.6 Q9.65 12.1 7.9 13.65 6.45 13.4 5.7 11.65 5.15 9.1 8.3 6.4 L9.8 9.6"/><path fill="none" stroke="#000000" stroke-width="0.5" stroke-opacity="0.301960784314" d="M12.5 15.5 L11.45 16.5 Q6.55 17.85 2.45 16.7 0.6 15.45 0.2 13.1 L0.3 11.95 M7.25 0.0 Q1.15 4.1 0.3 11.95"/></g><g id="c48"><g><use transform="matrix(1.0,0.0,0.0,1.0,0.0,0.0)" xlink:href="#c47"/></g></g><g id="c49"><path fill="#483522" stroke="none" d="M7.45 17.6 L11.9 21.6 Q7.1 27.75 0.0 32.45 1.0 24.25 7.35 17.55 L7.45 17.6"/><path fill="none" stroke="#000000" stroke-width="0.5" stroke-opacity="0.301960784314" d="M7.45 17.6 L11.9 21.6 Q7.1 27.75 0.0 32.45 1.0 24.25 7.35 17.55"/><path fill="#edb45f" stroke="none" d="M31.9 9.8 L32.7 11.8 Q33.1 15.6 31.9 18.95 L29.3 20.85 Q27.65 18.95 28.7 15.8 29.15 14.35 29.85 13.0 30.7 11.35 31.9 9.8 M11.35 15.2 Q12.05 11.5 15.85 7.75 21.45 6.05 26.6 6.95 L24.65 10.0 Q18.5 11.2 12.3 16.05 L11.35 15.2"/><path fill="#626925" stroke="none" d="M26.6 6.95 L27.2 7.05 Q30.5 7.65 31.9 9.8 30.7 11.35 29.85 13.0 29.35 10.3 22.4 14.75 23.3 12.35 24.65 10.0 L26.6 6.95"/><path fill="#a5a527" stroke="none" d="M11.25 15.85 L11.35 15.25 11.35 15.2 12.3 16.05 Q16.3 19.15 22.05 15.8 L22.4 14.85 22.4 14.75 Q29.35 10.3 29.85 13.0 29.15 14.35 28.7 15.8 27.65 18.95 29.3 20.85 L29.1 21.0 Q27.1 22.4 21.45 22.4 14.65 19.5 11.25 15.85"/><path fill="#5e571c" stroke="none" d="M30.5 21.9 L29.1 23.85 Q27.25 25.35 24.1 25.05 14.05 23.05 11.2 16.8 L11.25 15.85 Q14.65 19.5 21.45 22.4 27.1 22.4 29.1 21.0 L29.3 20.85 30.5 21.9"/><path fill="#a76525" stroke="none" d="M31.9 18.95 L30.5 21.9 29.3 20.85 31.9 18.95 M22.4 14.75 L22.4 14.85 22.05 15.8 Q16.3 19.15 12.3 16.05 18.5 11.2 24.65 10.0 23.3 12.35 22.4 14.75"/><path fill="none" stroke="#000000" stroke-width="0.5" stroke-opacity="0.152941176471" d="M31.9 9.8 Q30.7 11.35 29.85 13.0 29.15 14.35 28.7 15.8 27.65 18.95 29.3 20.85 M24.65 10.0 L26.6 6.95 M12.3 16.05 Q16.3 19.15 22.05 15.8 L22.4 14.85 22.4 14.75 Q23.3 12.35 24.65 10.0 M12.3 16.05 L11.35 15.2 M30.5 21.9 L29.3 20.85"/><path fill="none" stroke="#000000" stroke-width="0.5" stroke-opacity="0.301960784314" d="M31.9 18.95 L30.5 21.9 29.1 23.85 Q27.25 25.35 24.1 25.05 14.05 23.05 11.2 16.8 M26.6 6.95 L27.2 7.05 Q30.5 7.65 31.9 9.8"/><path fill="#76644b" stroke="none" d="M33.8 6.65 Q32.0 7.2 30.3 8.0 20.8 12.5 13.45 19.7 10.3 18.45 11.25 13.95 17.25 8.2 25.1 3.2 27.15 2.15 29.2 1.45 40.65 1.5 33.8 6.65"/><path fill="#483522" stroke="none" d="M33.8 6.65 Q40.65 1.5 29.2 1.45 33.4 0.0 37.45 0.0 41.9 2.3 43.8 5.35 38.6 5.1 33.8 6.65"/><path fill="#54412c" stroke="none" d="M11.25 13.95 Q10.3 18.45 13.45 19.7 L11.15 22.1 Q5.4 23.3 7.1 18.15 L11.25 13.95"/><path fill="none" stroke="#000000" stroke-width="0.5" stroke-opacity="0.301960784314" d="M13.45 19.7 Q20.8 12.5 30.3 8.0 32.0 7.2 33.8 6.65 38.6 5.1 43.8 5.35 41.9 2.3 37.45 0.0 33.4 0.0 29.2 1.45 27.15 2.15 25.1 3.2 17.25 8.2 11.25 13.95 M13.45 19.7 L11.15 22.1 M7.1 18.15 L11.25 13.95"/></g><g id="c50"><g><use transform="matrix(1.0,0.0,0.0,1.0,0.0,0.0)" xlink:href="#c49"/></g></g><g id="c51"><path fill="none" stroke="#000000" stroke-width="0.5" stroke-opacity="0.301960784314" d="M5.85 40.9 L8.45 39.3 Q11.45 39.2 12.25 41.2 14.1 44.75 19.1 47.5"/><path fill="#8a5322" stroke="none" d="M41.9 19.7 Q45.25 21.85 47.25 25.4 46.25 33.5 43.9 38.95 L43.85 39.1 Q37.1 50.05 33.0 39.25 L29.95 38.75 Q31.05 32.6 34.55 26.45 37.0 22.15 41.9 19.7 M32.75 20.3 Q29.6 10.75 20.3 6.35 16.3 9.25 12.9 15.3 13.3 12.75 14.35 9.7 16.4 3.75 21.3 0.1 27.8 -0.55 32.35 2.7 37.95 9.35 38.0 17.6 L37.8 17.6 Q35.25 18.4 32.75 20.3 M26.75 43.85 Q23.75 42.75 23.75 41.65 26.65 39.85 29.6 40.65 30.5 41.75 28.2 42.85 L32.8 43.7 31.3 45.55 Q28.7 44.4 26.75 43.85"/><path fill="#a76525" stroke="none" d="M12.9 15.3 Q16.3 9.25 20.3 6.35 29.6 10.75 32.75 20.3 30.15 22.25 27.55 25.4 23.3 31.4 21.95 36.65 15.35 34.45 9.8 30.95 10.15 26.0 12.65 19.6 12.5 17.75 12.85 15.6 L12.9 15.3"/><path fill="#626925" stroke="none" d="M43.85 39.1 Q39.85 48.15 32.15 49.95 15.0 51.6 2.85 41.9 -0.65 40.0 0.2 36.4 L0.25 36.1 Q0.65 34.4 1.15 33.55 1.6 32.75 2.1 32.7 L2.65 28.65 Q3.55 29.8 4.6 30.45 6.85 31.9 9.8 30.95 15.35 34.45 21.95 36.65 23.3 31.4 27.55 25.4 30.15 22.25 32.75 20.3 35.25 18.4 37.8 17.6 L38.0 17.6 38.0 17.8 Q40.1 18.55 41.9 19.7 37.0 22.15 34.55 26.45 31.05 32.6 29.95 38.75 L33.0 39.25 Q37.1 50.05 43.85 39.1 M26.75 43.85 Q24.25 43.1 21.5 42.7 15.7 39.25 10.65 34.25 6.15 34.65 3.85 36.45 3.2 36.4 1.7 35.35 1.0 37.4 2.6 39.45 6.55 39.1 10.05 37.5 15.85 43.85 23.1 47.9 29.6 48.45 32.15 45.9 L31.3 45.55 32.8 43.7 28.2 42.85 Q30.5 41.75 29.6 40.65 26.65 39.85 23.75 41.65 23.75 42.75 26.75 43.85"/><path fill="#a5a527" stroke="none" d="M14.35 9.7 Q13.3 12.75 12.9 15.3 L12.85 15.6 Q12.5 17.75 12.65 19.6 10.15 26.0 9.8 30.95 6.85 31.9 4.6 30.45 5.5 24.85 9.85 19.2 11.0 13.65 14.35 9.7 M2.6 39.45 Q1.0 37.4 1.7 35.35 3.2 36.4 3.85 36.45 6.15 34.65 10.65 34.25 15.7 39.25 21.5 42.7 24.25 43.1 26.75 43.85 23.45 44.35 22.55 45.9 25.3 47.4 28.4 47.1 L31.3 45.55 32.15 45.9 Q29.6 48.45 23.1 47.9 15.85 43.85 10.05 37.5 6.55 39.1 2.6 39.45 L2.6 38.25 2.6 39.45"/><path fill="#dda655" stroke="none" d="M2.65 28.65 Q3.5 24.4 5.45 20.2 4.2 18.2 5.45 15.55 9.15 10.8 14.35 9.7 11.0 13.65 9.85 19.2 5.5 24.85 4.6 30.45 3.55 29.8 2.65 28.65 M31.3 45.55 L28.4 47.1 Q25.3 47.4 22.55 45.9 23.45 44.35 26.75 43.85 28.7 44.4 31.3 45.55"/><path fill="none" stroke="#000000" stroke-width="0.5" stroke-opacity="0.152941176471" d="M43.9 38.95 L43.85 39.1 M0.25 36.1 L0.0 35.85 M32.75 20.3 Q35.25 18.4 37.8 17.6 M14.35 9.7 Q13.3 12.75 12.9 15.3 L12.85 15.6 Q12.5 17.75 12.65 19.6 10.15 26.0 9.8 30.95 15.35 34.45 21.95 36.65 23.3 31.4 27.55 25.4 30.15 22.25 32.75 20.3 M41.9 19.7 Q37.0 22.15 34.55 26.45 31.05 32.6 29.95 38.75 L33.0 39.25 Q37.1 50.05 43.85 39.1 M14.35 9.7 Q11.0 13.65 9.85 19.2 5.5 24.85 4.6 30.45 6.85 31.9 9.8 30.95 M2.65 28.65 Q3.55 29.8 4.6 30.45 M26.75 43.85 Q24.25 43.1 21.5 42.7 15.7 39.25 10.65 34.25 6.15 34.65 3.85 36.45 3.2 36.4 1.7 35.35 1.0 37.4 2.6 39.45 L2.6 38.25 M2.6 39.45 Q6.55 39.1 10.05 37.5 15.85 43.85 23.1 47.9 29.6 48.45 32.15 45.9 L31.3 45.55 28.4 47.1 Q25.3 47.4 22.55 45.9 23.45 44.35 26.75 43.85 23.75 42.75 23.75 41.65 26.65 39.85 29.6 40.65 30.5 41.75 28.2 42.85 L32.8 43.7 31.3 45.55 Q28.7 44.4 26.75 43.85"/><path fill="none" stroke="#000000" stroke-width="0.5" stroke-opacity="0.301960784314" d="M41.9 19.7 Q45.25 21.85 47.25 25.4 46.25 33.5 43.9 38.95 M43.85 39.1 Q39.85 48.15 32.15 49.95 M2.85 41.9 Q-0.65 40.0 0.2 36.4 L0.25 36.1 Q0.65 34.4 1.15 33.55 1.6 32.75 2.1 32.7 L2.65 28.65 Q3.5 24.4 5.45 20.2 4.2 18.2 5.45 15.55 9.15 10.8 14.35 9.7 M38.0 17.6 Q37.95 9.35 32.35 2.7 27.8 -0.55 21.3 0.1 16.4 3.75 14.35 9.7 M38.0 17.6 L38.0 17.8 Q40.1 18.55 41.9 19.7"/><path fill="none" stroke="#000000" stroke-width="0.5" stroke-opacity="0.301960784314" d="M18.9 21.65 Q19.7 19.7 21.5 19.4 L23.7 21.0 Q28.85 20.2 33.15 21.6"/><path fill="none" stroke="#000000" stroke-width="0.5" stroke-opacity="0.301960784314" d="M10.05 13.4 Q12.55 14.0 14.25 17.0 L15.7 16.2 Q17.2 18.85 16.5 20.8"/></g><g id="c52"><g><use transform="matrix(1.0,0.0,0.0,1.0,0.0,0.0)" xlink:href="#c51"/></g></g><g id="c53"><path fill="#5e571c" stroke="none" d="M0.05 15.35 L0.05 13.8 Q2.05 -0.3 14.5 0.0 35.75 6.05 36.85 16.75 36.85 20.85 31.55 23.0 L33.2 26.0 Q32.75 30.95 26.8 32.8 9.65 33.45 1.9 24.0 -0.2 19.65 0.05 15.35"/><path fill="none" stroke="#000000" stroke-width="0.5" stroke-opacity="0.301960784314" d="M0.05 15.35 Q-0.2 19.65 1.9 24.0 9.65 33.45 26.8 32.8 32.75 30.95 33.2 26.0 L31.55 23.0 Q36.85 20.85 36.85 16.75 35.75 6.05 14.5 0.0 2.05 -0.3 0.05 13.8 L0.05 15.35"/></g><g id="c54"><g><use transform="matrix(1.0,0.0,0.0,1.0,0.0,0.0)" xlink:href="#c53"/></g></g><g id="c55"><path fill="#42230f" stroke="none" d="M30.25 8.25 Q31.3 14.75 22.95 15.05 14.7 15.35 10.0 6.85 1.4 3.85 7.0 -4.25 11.0 -1.6 11.8 2.5 17.15 2.8 23.55 9.75 27.35 6.05 30.25 8.25"/><path fill="none" stroke="#000000" stroke-width="0.5" stroke-opacity="0.301960784314" d="M30.25 8.25 Q31.3 14.75 22.95 15.05 14.7 15.35 10.0 6.85 1.4 3.85 7.0 -4.25 11.0 -1.6 11.8 2.5 17.15 2.8 23.55 9.75 27.35 6.05 30.25 8.25"/><path fill="#824e1f" stroke="none" d="M24.15 11.75 L24.05 11.75 Q10.7 15.75 5.9 6.8 L5.75 4.55 Q8.55 0.95 13.55 0.55 16.7 1.75 18.4 4.15 21.95 7.45 24.15 11.75"/><path fill="#432b1b" stroke="none" d="M24.05 11.75 L24.15 11.75 25.4 14.45 Q23.2 18.55 19.75 20.5 L18.5 25.5 Q16.7 26.75 13.4 26.55 L13.3 26.4 Q10.5 24.15 9.65 21.65 9.25 20.55 9.2 19.45 6.65 12.45 5.9 6.8 10.7 15.75 24.05 11.75"/><path fill="none" stroke="#000000" stroke-width="0.5" stroke-opacity="0.301960784314" d="M24.15 11.75 Q21.95 7.45 18.4 4.15 M13.55 0.55 Q8.55 0.95 5.75 4.55 L5.9 6.8 Q10.7 15.75 24.05 11.75 M13.4 26.55 Q16.7 26.75 18.5 25.5 L19.75 20.5 Q23.2 18.55 25.4 14.45 L24.15 11.75 M13.3 26.4 Q10.5 24.15 9.65 21.65 9.25 20.55 9.2 19.45 6.65 12.45 5.9 6.8"/><path fill="#542f12" stroke="none" d="M24.35 6.85 Q23.7 9.85 21.3 11.35 L21.2 11.4 Q18.4 11.9 15.65 10.4 L16.6 9.0 16.75 9.1 Q20.25 6.7 24.3 6.8 L24.35 6.85 M24.85 9.5 Q26.65 10.65 28.3 12.8 L28.4 12.95 29.1 15.2 Q26.55 15.7 23.2 13.3 L24.3 11.3 24.85 9.5 M22.55 16.6 Q21.9 18.95 18.95 20.35 L14.4 15.0 Q15.95 11.6 19.9 12.35 22.65 14.4 22.4 16.55 L22.55 16.6 M3.95 13.4 L3.5 13.3 Q2.25 10.05 3.1 7.25 L3.3 7.3 Q5.45 6.0 7.5 6.8 10.4 9.3 10.2 11.2 8.35 12.8 3.95 13.4 M0.05 2.75 L0.0 2.5 Q1.95 1.15 4.2 1.15 L4.2 1.25 Q6.75 3.65 6.15 4.6 5.0 5.75 2.4 5.2 L0.05 2.75 M7.2 1.15 L8.4 0.0 Q10.25 2.0 11.3 4.25 11.8 7.0 9.95 7.8 7.1 4.9 6.7 2.3 L7.2 1.15 M12.25 7.1 L15.0 5.2 15.75 8.75 Q15.5 10.75 11.85 10.6 11.35 9.5 11.35 7.9 L12.15 7.0 12.25 7.1"/><path fill="#452510" stroke="none" d="M15.65 10.4 Q18.4 11.9 21.2 11.4 L21.3 11.35 Q23.7 9.85 24.35 6.85 L24.5 6.85 Q24.95 8.2 24.85 9.5 L24.3 11.3 23.2 13.3 Q26.55 15.7 29.1 15.2 L28.4 12.95 30.25 15.9 Q26.8 16.9 22.65 15.5 L22.55 16.6 22.4 16.55 Q22.65 14.4 19.9 12.35 15.95 11.6 14.4 15.0 L18.95 20.35 Q13.2 16.55 12.05 12.9 9.8 14.1 3.95 13.4 8.35 12.8 10.2 11.2 10.4 9.3 7.5 6.8 5.45 6.0 3.3 7.3 L3.1 7.25 Q0.15 5.0 0.05 2.75 L2.4 5.2 Q5.0 5.75 6.15 4.6 6.75 3.65 4.2 1.25 L4.2 1.15 7.2 1.15 6.7 2.3 Q7.1 4.9 9.95 7.8 11.8 7.0 11.3 4.25 L12.25 6.9 12.25 7.0 12.15 7.0 11.35 7.9 Q11.35 9.5 11.85 10.6 15.5 10.75 15.75 8.75 L15.0 5.2 16.65 8.9 16.6 9.0 15.65 10.4 15.4 10.35 15.65 10.4 M6.8 4.6 Q6.5 3.3 6.7 2.3 6.5 3.3 6.8 4.6"/><path fill="none" stroke="#000000" stroke-width="0.5" stroke-opacity="0.301960784314" d="M24.35 6.85 L24.3 6.8 Q20.25 6.7 16.75 9.1 M16.6 9.0 L15.65 10.4 15.4 10.35 M24.35 6.85 L24.5 6.85 Q24.95 8.2 24.85 9.5 26.65 10.65 28.3 12.8 L28.4 12.95 30.25 15.9 Q26.8 16.9 22.65 15.5 L22.55 16.6 Q21.9 18.95 18.95 20.35 13.2 16.55 12.05 12.9 9.8 14.1 3.95 13.4 L3.5 13.3 Q2.25 10.05 3.1 7.25 0.15 5.0 0.05 2.75 L0.0 2.5 Q1.95 1.15 4.2 1.15 L7.2 1.15 8.4 0.0 Q10.25 2.0 11.3 4.25 L12.25 6.9 12.25 7.0 12.25 7.1 15.0 5.2 16.65 8.9 16.75 9.1 M24.85 9.5 L24.3 11.3 23.2 13.3 M12.15 7.0 L12.25 7.0 M11.35 7.9 L12.15 7.0 M16.65 8.9 L16.6 9.0 M7.2 1.15 L6.7 2.3 Q6.5 3.3 6.8 4.6"/></g><g id="c56"><g><use transform="matrix(1.0,0.0,0.0,1.0,0.0,0.0)" xlink:href="#c55"/></g></g><g id="c57"><path fill="#673c10" stroke="none" d="M22.2 16.4 Q23.5 20.5 22.5 24.0 20.15 27.7 14.25 28.95 6.05 29.0 4.75 22.1 6.5 14.8 12.6 9.1 18.65 10.8 22.2 16.4"/><path fill="none" stroke="#000000" stroke-width="0.5" stroke-opacity="0.301960784314" d="M22.2 16.4 Q23.5 20.5 22.5 24.0 20.15 27.7 14.25 28.95 6.05 29.0 4.75 22.1 6.5 14.8 12.6 9.1 18.65 10.8 22.2 16.4"/><path fill="#8a5322" stroke="none" d="M11.0 14.0 Q10.1 9.65 11.4 5.7 12.3 3.05 15.3 1.35 17.55 -0.25 22.15 0.05 28.0 3.15 30.05 10.0 30.0 13.65 27.5 16.1 25.45 17.95 18.9 18.95 11.45 18.2 11.0 14.0"/><path fill="none" stroke="#000000" stroke-width="0.5" stroke-opacity="0.301960784314" d="M18.9 18.95 Q25.45 17.95 27.5 16.1 30.0 13.65 30.05 10.0 28.0 3.15 22.15 0.05 17.55 -0.25 15.3 1.35 12.3 3.05 11.4 5.7 10.1 9.65 11.0 14.0"/></g><g id="c58"><g><use transform="matrix(1.0,0.0,0.0,1.0,0.0,0.0)" xlink:href="#c57"/></g></g><g id="c59"><path fill="#74481d" stroke="none" d="M8.6 12.1 Q8.1 14.35 5.45 15.3 3.55 13.9 3.45 11.2 5.55 8.45 7.25 7.9 8.4 9.45 8.6 12.1"/><path fill="none" stroke="#000000" stroke-width="0.5" stroke-opacity="0.301960784314" d="M8.6 12.1 Q8.1 14.35 5.45 15.3 3.55 13.9 3.45 11.2"/><path fill="#74481d" stroke="none" d="M11.65 6.45 Q13.85 7.45 14.35 10.1 12.1 12.05 8.6 12.2 7.3 9.7 7.9 7.7 9.3 5.8 11.65 6.45"/><path fill="none" stroke="#000000" stroke-width="0.5" stroke-opacity="0.301960784314" d="M11.65 6.45 Q13.85 7.45 14.35 10.1 12.1 12.05 8.6 12.2"/><path fill="#432b1b" stroke="none" d="M3.65 10.85 L2.4 7.6 0.05 7.1 Q-0.25 3.45 1.55 0.2 5.15 -0.55 7.45 1.45 10.0 3.05 11.25 5.8 L11.3 5.9 11.4 6.05 11.65 6.7 Q10.65 12.0 3.65 10.85"/><path fill="none" stroke="#000000" stroke-width="0.5" stroke-opacity="0.301960784314" d="M3.65 10.85 L2.4 7.6 0.05 7.1 Q-0.25 3.45 1.55 0.2 5.15 -0.55 7.45 1.45 10.0 3.05 11.25 5.8 L11.3 5.9 11.4 6.05 11.65 6.7"/></g><g id="c60"><g><use transform="matrix(1.0,0.0,0.0,1.0,0.0,0.0)" xlink:href="#c59"/></g></g><radialGradient gradientUnits="userSpaceOnUse" r="819.2" cx="0" cy="0" spreadMethod="pad" gradientTransform="matrix(-0.04833984375,-0.00114440917969,0.0,0.0278778076172,38.1,22.0)" id="gradient3"><stop offset="0.203921568627" stop-opacity="0.6"/><stop offset="1.0" stop-color="#323112" stop-opacity="0.0"/></radialGradient><g id="c61"><path stroke="none" fill="url(#gradient3)" d="M76.25 22.9 Q76.25 32.0 65.1 38.15 53.9 44.35 38.1 44.0 22.3 43.6 11.15 36.9 0.0 30.2 0.0 21.05 0.0 11.95 11.15 5.75 22.3 -0.4 38.1 0.0 53.9 0.35 65.1 7.05 76.25 13.75 76.25 22.9"/></g><g id="c62"><g><use transform="matrix(1.0,0.0,0.0,1.0,0.0,0.0)" xlink:href="#c61"/></g></g><g id="c63"><g><use transform="matrix(-1.0,0.0,0.0,1.0,37.55,-21.85)" xlink:href="#c62"/></g><g><use transform="matrix(-1.0,0.0,0.0,1.0,32.75,-49.85)" xlink:href="#c60"/></g><g><use transform="matrix(-1.0,0.0,0.0,1.0,34.8,-86.65)" xlink:href="#c58"/></g><g><use transform="matrix(-1.0,0.0,0.0,1.0,40.4,-70.4)" xlink:href="#c56"/></g><g><use transform="matrix(-1.0,0.0,0.0,1.0,18.5,-66.7)" xlink:href="#c54"/></g><g><use transform="matrix(-1.0,0.0,0.0,1.0,21.25,-93.05)" xlink:href="#c52"/></g><g><use transform="matrix(-1.0,0.0,0.0,1.0,19.3,-76.9)" xlink:href="#c50"/></g><g><use transform="matrix(-1.0,0.0,0.0,1.0,21.55,-77.6)" xlink:href="#c48"/></g><g><use transform="matrix(-1.0,0.0,0.0,1.0,-2.3,-111.9)" xlink:href="#c46"/></g><g><use transform="matrix(-0.997909545898,-0.0646209716797,-0.0646209716797,0.997909545898,18.15,-96.8)" xlink:href="#c44"/></g><g><use transform="matrix(-1.0,0.0,0.0,1.0,12.7,-106.9)" xlink:href="#c42"/></g><g><use transform="matrix(-1.0,0.0,0.0,1.0,7.3,-123.6)" xlink:href="#c40"/></g><g><use transform="matrix(-1.0,0.0,0.0,1.0,14.55,-116.75)" xlink:href="#c38"/></g><g><use transform="matrix(-1.0,0.0,0.0,1.0,-11.45,-94.1)" xlink:href="#c36"/></g><g><use transform="matrix(-1.0,0.0,0.0,1.0,11.3,-110.6)" xlink:href="#c34"/></g><g><use transform="matrix(-1.0,0.0,0.0,1.0,-8.5,-105.0)" xlink:href="#c32"/></g><g><use transform="matrix(-1.0,0.0,0.0,1.0,8.65,-110.75)" xlink:href="#c30"/></g><g><use transform="matrix(-1.0,0.0,0.0,1.0,0.2,-111.8)" xlink:href="#c28"/></g><g><use transform="matrix(-1.0,0.0,0.0,1.0,-0.8,-98.25)" xlink:href="#c26"/></g><g><use transform="matrix(-1.0,0.0,0.0,1.0,7.0,-103.05)" xlink:href="#c24"/></g><g><use transform="matrix(-1.0,0.0,0.0,1.0,24.05,-12.4)" xlink:href="#c22"/></g><g><use transform="matrix(-1.0,0.0,0.0,1.0,18.4,-26.75)" xlink:href="#c20"/></g><g><use transform="matrix(-1.0,0.0,0.0,1.0,16.85,-43.65)" xlink:href="#c18"/></g><g><use transform="matrix(-1.0,0.0,0.0,1.0,-10.55,-1.2)" xlink:href="#c16"/></g><g><use transform="matrix(-1.0,0.0,0.0,1.0,-6.05,-16.55)" xlink:href="#c14"/></g><g><use transform="matrix(-1.0,0.0,0.0,1.0,-0.25,-34.35)" xlink:href="#c12"/></g><g><use transform="matrix(-1.0,0.0,0.0,1.0,21.7,-50.65)" xlink:href="#c10"/></g><g><use transform="matrix(-1.0,0.0,0.0,1.0,25.55,-76.3)" xlink:href="#c8"/></g><g><use transform="matrix(-1.0,0.0,0.0,1.0,-24.45,-30.95)" xlink:href="#c6"/></g><g><use transform="matrix(-1.0,0.0,0.0,1.0,-21.4,-61.0)" xlink:href="#c4"/></g><g><use transform="matrix(-1.0,0.0,0.0,1.0,-2.1,-92.6)" xlink:href="#c2"/></g></g><g id="c64"><path fill="#000000" fill-opacity="0.00392156862745" d="M0.0 0.0 L60.0 0.0 60.0 60.0 0.0 60.0 0.0 0.0"/></g><g id="c65"><path fill="none" stroke="#000000" stroke-width="1.0" stroke-opacity="0.301960784314" d="M0.7 12.25 Q-0.45 9.75 0.75 8.25 1.2 7.6 2.15 7.15 2.8 6.7 3.8 6.35 L17.5 1.95 30.2 7.0 41.35 31.7 Q42.95 35.15 40.2 36.7 39.5 37.3 38.3 37.65 L25.5 41.8 25.45 41.75 24.55 42.0 11.85 37.0 0.7 12.25"/><path fill="#9d147b" stroke="none" d="M35.55 22.3 L31.5 13.2 29.75 9.2 16.95 4.25 5.5 7.85 Q1.65 9.1 3.35 12.8 L8.25 23.65 13.1 34.35 25.8 39.4 37.2 35.7 Q41.1 34.5 39.35 30.75 L35.55 22.3 M5.45 20.95 L1.35 11.8 Q0.4 9.65 1.1 8.3 1.45 7.65 2.15 7.15 2.8 6.7 3.8 6.35 L17.5 1.95 30.2 7.0 41.35 31.7 Q42.95 35.15 40.2 36.7 L38.9 37.25 25.2 41.65 12.5 36.65 5.45 20.95"/><path fill="#c47fad" stroke="none" d="M31.5 13.2 L35.55 22.3 39.35 30.75 Q41.1 34.5 37.2 35.7 L25.8 39.4 13.1 34.35 8.25 23.65 3.35 12.8 Q1.65 9.1 5.5 7.85 L16.95 4.25 29.75 9.2 31.5 13.2 M18.5 7.45 L9.1 10.55 9.55 11.6 Q9.8 12.8 9.15 13.6 8.4 14.45 7.1 14.4 L6.8 14.4 6.95 14.6 15.2 32.75 23.85 36.2 34.0 32.9 33.7 32.1 Q33.45 30.9 34.1 30.1 34.75 29.3 35.95 29.35 L35.8 29.0 27.75 10.95 18.5 7.45"/><path fill="#fcf2cf" stroke="none" d="M27.75 10.95 L35.8 29.0 35.95 29.35 Q34.75 29.3 34.1 30.1 33.45 30.9 33.7 32.1 L34.0 32.9 23.85 36.2 15.2 32.75 6.95 14.6 6.8 14.4 7.1 14.4 Q8.4 14.45 9.15 13.6 9.8 12.8 9.55 11.6 L9.1 10.55 18.5 7.45 27.75 10.95"/><path fill="#630a4c" stroke="none" d="M1.1 8.3 L0.75 8.25 Q1.2 7.6 2.15 7.15 1.45 7.65 1.1 8.3 M4.6 20.9 L5.45 20.95 12.5 36.65 11.55 36.25 11.25 35.55 4.6 20.9"/><path fill="#300525" stroke="none" d="M1.1 8.3 Q0.4 9.65 1.35 11.8 L5.45 20.95 4.6 20.9 0.7 12.25 Q-0.45 9.75 0.75 8.25 L1.1 8.3 M12.5 36.65 L25.2 41.65 38.9 37.25 40.2 36.7 Q39.5 37.3 38.3 37.65 L25.5 41.8 25.45 41.75 24.55 42.0 11.85 37.0 11.55 36.25 12.5 36.65"/><path fill="none" stroke="#bf9900" stroke-width="1.0" stroke-opacity="0.749019607843" d="M31.5 13.2 L35.55 22.3 M13.1 34.35 L8.25 23.65"/><path fill="none" stroke="#ffcc00" stroke-width="1.0" stroke-opacity="0.749019607843" d="M35.55 22.3 L39.35 30.75 Q41.1 34.5 37.2 35.7 L25.8 39.4 M8.25 23.65 L3.35 12.8 Q1.65 9.1 5.5 7.85 L16.95 4.25 29.75 9.2 31.5 13.2"/><path fill="none" stroke="#f0b92b" stroke-width="0.5" d="M27.75 10.95 L35.8 29.0 35.95 29.35 Q34.75 29.3 34.1 30.1 33.45 30.9 33.7 32.1 L34.0 32.9 23.85 36.2 15.2 32.75 6.95 14.6 6.8 14.4 7.1 14.4 Q8.4 14.45 9.15 13.6 9.8 12.8 9.55 11.6 L9.1 10.55 18.5 7.45"/><path fill="none" stroke="#000000" stroke-width="0.5" stroke-opacity="0.301960784314" d="M5.45 20.95 L1.35 11.8 Q0.4 9.65 1.1 8.3 M0.75 8.25 Q-0.45 9.75 0.7 12.25 L4.6 20.9 M5.45 20.95 L12.5 36.65 M25.2 41.65 L38.9 37.25 40.2 36.7 Q42.95 35.15 41.35 31.7 L30.2 7.0 M17.5 1.95 L3.8 6.35 Q2.8 6.7 2.15 7.15 1.45 7.65 1.1 8.3 M0.75 8.25 Q1.2 7.6 2.15 7.15 M11.25 35.55 L4.6 20.9 M25.5 41.8 L38.3 37.65 Q39.5 37.3 40.2 36.7"/><path fill="none" stroke="#ffcc00" stroke-width="0.5" stroke-opacity="0.749019607843" d="M18.5 7.45 L27.75 10.95"/><path fill="none" stroke="#f0b92b" stroke-width="1.0" stroke-opacity="0.749019607843" d="M25.8 39.4 L13.1 34.35"/><path fill="none" stroke="#432f2f" stroke-width="0.5" d="M12.5 36.65 L25.2 41.65"/></g><g id="c66"><path fill="#7fdbfe" stroke="none" d="M10.75 4.9 Q10.75 4.6 10.9 4.35 11.25 3.45 11.95 2.75 13.3 1.5 14.35 2.1 15.4 2.7 14.95 4.45 14.7 5.4 14.1 6.15 L13.75 6.5 Q13.1 7.15 12.35 7.35 L11.4 7.2 Q10.95 6.9 10.75 6.4 10.5 5.75 10.75 4.9 M7.5 5.9 Q7.0 5.85 6.6 5.5 6.05 5.0 5.8 4.15 L5.7 3.6 Q5.55 2.65 5.8 1.7 6.25 0.0 7.5 0.0 L7.6 0.0 Q8.85 0.0 9.3 1.7 9.55 2.65 9.4 3.6 L9.3 4.15 8.5 5.5 7.6 5.9 7.5 5.9 M4.35 4.9 Q4.6 5.75 4.35 6.4 L3.7 7.2 2.75 7.35 Q2.0 7.15 1.35 6.5 L1.0 6.15 Q0.4 5.4 0.15 4.45 -0.3 2.7 0.75 2.1 1.8 1.5 3.15 2.75 3.85 3.45 4.2 4.35 L4.35 4.9 M5.5 13.7 Q4.45 13.9 3.65 12.95 2.75 12.0 3.2 10.25 3.7 8.5 5.25 7.6 6.4 6.9 7.55 7.0 8.75 6.9 9.9 7.6 11.45 8.5 11.95 10.25 12.35 12.0 11.5 12.95 10.7 13.9 9.65 13.7 8.55 13.5 7.55 12.6 6.55 13.5 5.5 13.7"/></g><g id="c67"><g><use transform="matrix(1.0,0.0,0.0,1.0,0.0,0.0)" xlink:href="#c66"/></g></g><radialGradient gradientUnits="userSpaceOnUse" r="819.2" cx="0" cy="0" spreadMethod="pad" gradientTransform="matrix(0.0914459228516,0.0,0.0,0.0914459228516,0.6,3.4)" id="gradient4"><stop offset="0.0" stop-color="#ffffff"/><stop offset="1.0" stop-color="#ffffff" stop-opacity="0.0"/></radialGradient><g id="c68"><path stroke="none" fill="url(#gradient4)" d="M36.65 -54.65 Q60.05 -42.0 69.75 -17.95 80.55 8.9 68.0 34.1 55.45 59.35 26.8 68.2 -1.8 77.05 -29.7 64.3 -57.6 51.6 -68.45 24.75 -79.3 -2.05 -66.75 -27.25 L-66.7 -27.3 Q-54.1 -52.5 -25.5 -61.4 3.1 -70.2 31.0 -57.5 L36.65 -54.65"/></g><g id="c69"><g><use transform="matrix(1.0,0.0,0.0,1.0,0.0,0.0)" xlink:href="#c68"/></g></g><radialGradient gradientUnits="userSpaceOnUse" r="819.2" cx="0" cy="0" spreadMethod="pad" gradientTransform="matrix(0.209197998047,0.0,0.0,0.177108764648,67.15,107.2)" id="gradient5"><stop offset="0.356862745098" stop-color="#ffffff"/><stop offset="0.670588235294" stop-opacity="0.0"/></radialGradient><g id="c70"><path fill="none" stroke-linejoin="round" stroke-linecap="round" stroke="url(#gradient5)" stroke-width="0.5" d="M136.55 165.8 L68.6 106.0 68.4 106.0 118.25 201.5 M68.3 105.8 L68.35 105.8 68.3 105.8 68.3 105.85 68.4 106.0 68.3 106.0 86.55 211.5 M68.3 105.8 L68.3 105.85 68.3 106.0 68.15 105.95 18.25 151.55 M68.3 105.85 L68.25 105.85 68.3 106.0 50.0 193.2 M68.25 105.85 L68.15 105.95 0.05 97.7 M68.3 105.85 L68.25 105.8 68.25 105.85 M68.25 105.8 L68.2 105.7 0.0 45.7 M68.3 105.8 L68.25 105.75 68.25 105.8 M68.25 105.75 L68.2 105.7 18.25 10.05 M68.6 106.0 L68.35 105.8 118.25 60.15 M86.6 18.35 L68.3 105.8 M136.6 114.25 L68.6 106.0 M68.25 105.75 L49.95 0.05"/></g><g id="c71"><g><use transform="matrix(1.0,0.0,0.0,1.0,0.0,0.0)" xlink:href="#c70"/></g></g><g id="c72"><g><use transform="matrix(1.0,0.0,0.0,1.0,0.0,0.0)" xlink:href="#c65"/></g><g><use transform="matrix(0.238861083984,-0.0867004394531,0.10026550293,0.233917236328,34.25,31.15)" xlink:href="#c67"/></g><g><use transform="matrix(0.238861083984,-0.0867004394531,0.10026550293,0.233917236328,4.25,10.3)" xlink:href="#c67"/></g><g><use transform="matrix(0.141098022461,-0.0378112792969,0.111373901367,0.225646972656,20.25,20.65)" filter="url(#filter69)" xlink:href="#c69"/></g><g><use transform="matrix(-0.155029296875,0.0513153076172,0.0841827392578,0.147033691406,22.6,3.15)" filter="url(#filter70)" xlink:href="#c71"/></g></g><filter id="filter69"><feColorMatrix in="SourceGraphic" type="matrix" values="0.0 0.0 0.0 0.0 0.796875 0.0 0.0 0.0 0.0 0.59765625 0.0 0.0 0.0 0.0 0.19921875 0.0 0.0 0.0 1.0 0.0" result="cxform"/><feComposite operator="in" in2="SourceGraphic" result="color-xform"/></filter><filter id="filter70"><feColorMatrix in="SourceGraphic" type="matrix" values="0.0 0.0 0.0 0.0 0.99609375 0.0 0.0 0.0 0.0 0.99609375 0.0 0.0 0.0 0.0 0.99609375 0.0 0.0 0.0 1.0 0.0" result="cxform"/><feComposite operator="in" in2="SourceGraphic" result="color-xform"/></filter><filter id="filter74"><feColorMatrix in="SourceGraphic" type="matrix" values="1.0 0.0 0.0 0.0 0.0 0.0 1.0 0.0 0.0 0.0 0.0 0.0 1.0 0.0 0.0 0.0 0.0 0.0 0.23046875 0.0" result="cxform"/><feComposite operator="in" in2="SourceGraphic" result="color-xform"/></filter></defs><g><g><use transform="matrix(1.0,0.0,0.0,1.0,0.0,0.0)" xlink:href="#c64"/></g><g><use transform="matrix(1.15496826172,0.0,0.0,1.15496826172,5.85,4.8)" xlink:href="#c72"/></g><g><use transform="matrix(0.157562255859,-0.0655212402344,0.0655212402344,0.157562255859,37.55,36.7)" xlink:href="#c63"/></g><g><use transform="matrix(0.162948608398,-0.0436706542969,0.128631591797,0.260604858398,30.0,28.7)" filter="url(#filter74)" xlink:href="#c69"/></g></g></svg>