<?xml version='1.0' encoding='UTF-8'?>
<svg xmlns:xlink="http://www.w3.org/1999/xlink" xmlns="http://www.w3.org/2000/svg" version="1.1" width="60px" height="60px" viewBox="0.0 0.0 60.0 60.0"><defs><g id="c1"><path fill="#000000" fill-opacity="0.00392156862745" d="M0.0 0.0 L60.0 0.0 60.0 60.0 0.0 60.0 0.0 0.0"/></g><g id="c2"><path fill="#006699" stroke="none" d="M31.5 39.85 L19.8 43.65 Q17.15 44.45 15.5 43.3 14.35 42.55 13.65 40.9 L1.7 14.45 1.6 14.3 1.2 13.45 -0.75 9.05 Q-2.05 6.2 -0.3 4.75 0.3 4.25 1.2 3.9 L5.5 2.25 Q8.95 0.95 10.65 4.15 L22.3 0.4 Q26.55 -1.0 28.45 3.1 L40.55 29.95 40.9 30.7 42.95 35.15 Q43.95 37.35 43.15 38.7 42.5 39.7 40.95 40.25 L36.65 41.8 35.1 42.2 Q32.75 42.3 31.5 39.85"/><path fill="none" stroke="#000000" stroke-width="1.0" stroke-opacity="0.298039215686" d="M31.5 39.85 L19.8 43.65 Q17.15 44.45 15.5 43.3 14.35 42.55 13.65 40.9 L1.7 14.45 1.6 14.3 1.2 13.45 -0.75 9.05 Q-2.05 6.2 -0.3 4.75 0.3 4.25 1.2 3.9 L5.5 2.25 Q8.95 0.95 10.65 4.15 L22.3 0.4 Q26.55 -1.0 28.45 3.1 L40.55 29.95 40.9 30.7 42.95 35.15 Q43.95 37.35 43.15 38.7 42.5 39.7 40.95 40.25 L36.65 41.8 35.1 42.2 Q32.75 42.3 31.5 39.85"/><path fill="#300525" stroke="none" d="M0.75 8.25 L29.8 9.75 25.55 0.9 Q26.9 1.6 27.8 3.55 L40.7 32.15 Q42.6 36.3 38.3 37.65 L23.3 42.5 13.15 21.4 4.6 20.9 0.7 12.25 Q-0.45 9.75 0.75 8.25 M20.1 43.55 L19.8 43.65 Q17.15 44.45 15.5 43.3 L20.1 43.55"/><path fill="#630a4c" stroke="none" d="M25.55 0.9 L29.8 9.75 0.75 8.25 Q1.45 7.3 3.1 6.75 L21.65 0.8 25.55 0.9 M4.6 20.9 L13.15 21.4 23.3 42.5 20.1 43.55 15.5 43.3 Q14.35 42.55 13.65 40.9 L4.6 20.9"/><path fill="none" stroke="#000000" stroke-width="0.5" stroke-opacity="0.301960784314" d="M0.75 8.25 Q-0.45 9.75 0.7 12.25 L4.6 20.9 M23.3 42.5 L38.3 37.65 Q42.6 36.3 40.7 32.15 L27.8 3.55 Q26.9 1.6 25.55 0.9 L21.65 0.8 3.1 6.75 Q1.45 7.3 0.75 8.25 M20.1 43.55 L19.8 43.65 Q17.15 44.45 15.5 43.3 14.35 42.55 13.65 40.9 L4.6 20.9 M20.1 43.55 L23.3 42.5"/><path fill="#9d147b" stroke="none" d="M14.2 40.5 L1.35 11.8 Q-0.5 7.75 3.8 6.35 L22.3 0.4 Q26.55 -1.0 28.45 3.1 L41.35 31.7 Q43.25 35.85 38.9 37.25 L20.4 43.2 Q16.1 44.55 14.2 40.5"/><path fill="none" stroke="#000000" stroke-width="0.5" stroke-opacity="0.301960784314" d="M14.2 40.5 L1.35 11.8 Q-0.5 7.75 3.8 6.35 L22.3 0.4 Q26.55 -1.0 28.45 3.1 L41.35 31.7 Q43.25 35.85 38.9 37.25 L20.4 43.2 Q16.1 44.55 14.2 40.5"/><path fill="#9d147b" stroke="none" d="M31.4 39.65 L31.3 39.45 31.25 39.4 29.25 34.95 Q27.55 31.2 31.25 29.85 L35.6 28.25 Q38.8 27.1 40.5 29.85 L40.9 30.7 42.95 35.15 Q43.95 37.35 43.15 38.7 42.5 39.45 41.2 39.9 L36.9 41.45 34.85 41.85 Q32.9 41.7 31.75 39.5 L31.4 39.65"/><path fill="#630a4c" stroke="none" d="M43.15 38.7 Q42.5 39.7 40.95 40.25 L36.65 41.8 35.1 42.2 Q32.75 42.3 31.45 39.8 L31.4 39.65 31.75 39.5 Q32.9 41.7 34.85 41.85 L36.9 41.45 41.2 39.9 Q42.5 39.45 43.15 38.7"/><path fill="none" stroke="#003333" stroke-width="0.5" stroke-opacity="0.509803921569" d="M43.15 38.7 Q42.5 39.7 40.95 40.25 L36.65 41.8 35.1 42.2 Q32.75 42.3 31.45 39.8 L31.4 39.65 30.3 40.0 31.4 39.65 M40.5 29.85 L40.9 30.7 42.95 35.15 Q43.95 37.35 43.15 38.7 42.5 39.45 41.2 39.9 L36.9 41.45 34.85 41.85 Q32.9 41.7 31.75 39.5 L31.4 39.65"/><path fill="#9d147b" stroke="none" d="M10.65 4.2 L10.85 4.6 12.85 9.05 Q14.5 12.8 10.8 14.15 L6.5 15.8 Q4.5 16.6 3.1 15.8 L1.75 12.85 -0.2 8.45 Q-1.25 6.15 -0.3 4.75 0.3 4.25 1.2 3.9 L5.5 2.25 Q9.0 0.95 10.65 4.2"/><path fill="#300525" stroke="none" d="M-0.3 4.75 Q-1.25 6.15 -0.2 8.45 L1.75 12.85 3.1 15.8 Q2.25 15.35 1.6 14.3 L1.2 13.45 -0.75 9.05 Q-2.05 6.2 -0.3 4.75"/><path fill="none" stroke="#003333" stroke-width="0.5" stroke-opacity="0.509803921569" d="M3.1 15.8 L6.45 23.15 M-0.3 4.75 Q0.3 4.25 1.2 3.9 L5.5 2.25 Q9.0 0.95 10.65 4.2 M3.1 15.8 L1.75 12.85 -0.2 8.45 Q-1.25 6.15 -0.3 4.75 -2.05 6.2 -0.75 9.05 L1.2 13.45 1.6 14.3"/><path fill="#fcf2cf" stroke="none" d="M9.15 13.6 Q9.8 12.8 9.55 11.6 L9.1 10.55 22.05 6.35 Q24.9 5.45 26.25 7.85 L26.5 8.3 35.8 29.0 35.95 29.35 Q34.75 29.3 34.1 30.1 33.45 30.9 33.7 32.1 L34.0 32.9 20.65 37.2 Q18.8 37.8 17.65 37.0 16.8 36.4 16.3 35.2 L6.95 14.6 6.8 14.4 7.1 14.4 Q8.4 14.45 9.15 13.6"/><path fill="#c47fad" stroke="none" d="M9.15 13.6 Q8.4 14.45 7.1 14.4 L6.8 14.4 6.95 14.6 16.3 35.2 Q16.8 36.4 17.65 37.0 18.8 37.8 20.65 37.2 L34.0 32.9 33.7 32.1 Q33.45 30.9 34.1 30.1 34.75 29.3 35.95 29.35 L35.8 29.0 26.5 8.3 26.25 7.85 Q24.9 5.45 22.05 6.35 L9.1 10.55 9.55 11.6 Q9.8 12.8 9.15 13.6 M28.25 6.1 L35.55 22.3 39.35 30.75 Q41.1 34.5 37.2 35.7 L20.45 41.1 Q16.8 42.25 15.2 39.0 L15.0 38.6 8.25 23.65 3.35 12.8 Q1.65 9.1 5.5 7.85 L22.25 2.5 Q26.05 1.25 27.75 4.95 L28.25 6.1"/><path fill="none" stroke="#ffcc00" stroke-width="1.0" stroke-opacity="0.749019607843" d="M35.55 22.3 L39.35 30.75 Q41.1 34.5 37.2 35.7 L20.45 41.1 Q16.8 42.25 15.2 39.0 L15.0 38.6 M8.25 23.65 L3.35 12.8 Q1.65 9.1 5.5 7.85 L22.25 2.5 Q26.05 1.25 27.75 4.95 L28.25 6.1"/><path fill="none" stroke="#bf9900" stroke-width="1.0" stroke-opacity="0.749019607843" d="M28.25 6.1 L35.55 22.3 M15.0 38.6 L8.25 23.65"/><path fill="none" stroke="#f0b92b" stroke-width="0.5" d="M9.15 13.6 Q9.8 12.8 9.55 11.6 L9.1 10.55 22.05 6.35 Q24.9 5.45 26.25 7.85 L26.5 8.3 35.8 29.0 35.95 29.35 Q34.75 29.3 34.1 30.1 33.45 30.9 33.7 32.1 L34.0 32.9 20.65 37.2 Q18.8 37.8 17.65 37.0 16.8 36.4 16.3 35.2 L6.95 14.6 6.8 14.4 7.1 14.4 Q8.4 14.45 9.15 13.6"/></g><g id="c3"><path fill="#7fdbfe" stroke="none" d="M10.75 4.9 Q10.75 4.6 10.9 4.35 11.25 3.45 11.95 2.75 13.3 1.5 14.35 2.1 15.4 2.7 14.95 4.45 14.7 5.4 14.1 6.15 L13.75 6.5 Q13.1 7.15 12.35 7.35 L11.4 7.2 Q10.95 6.9 10.75 6.4 10.5 5.75 10.75 4.9 M7.5 5.9 Q7.0 5.85 6.6 5.5 6.05 5.0 5.8 4.15 L5.7 3.6 Q5.55 2.65 5.8 1.7 6.25 0.0 7.5 0.0 L7.6 0.0 Q8.85 0.0 9.3 1.7 9.55 2.65 9.4 3.6 L9.3 4.15 8.5 5.5 7.6 5.9 7.5 5.9 M4.35 4.9 Q4.6 5.75 4.35 6.4 L3.7 7.2 2.75 7.35 Q2.0 7.15 1.35 6.5 L1.0 6.15 Q0.4 5.4 0.15 4.45 -0.3 2.7 0.75 2.1 1.8 1.5 3.15 2.75 3.85 3.45 4.2 4.35 L4.35 4.9 M5.5 13.7 Q4.45 13.9 3.65 12.95 2.75 12.0 3.2 10.25 3.7 8.5 5.25 7.6 6.4 6.9 7.55 7.0 8.75 6.9 9.9 7.6 11.45 8.5 11.95 10.25 12.35 12.0 11.5 12.95 10.7 13.9 9.65 13.7 8.55 13.5 7.55 12.6 6.55 13.5 5.5 13.7"/></g><g id="c4"><g><use transform="matrix(1.0,0.0,0.0,1.0,0.0,0.0)" xlink:href="#c3"/></g></g><radialGradient gradientUnits="userSpaceOnUse" r="819.2" cx="0" cy="0" spreadMethod="pad" gradientTransform="matrix(0.0914459228516,0.0,0.0,0.0914459228516,0.6,3.4)" id="gradient1"><stop offset="0.0" stop-color="#ffffff"/><stop offset="1.0" stop-color="#ffffff" stop-opacity="0.0"/></radialGradient><g id="c5"><path stroke="none" fill="url(#gradient1)" d="M36.65 -54.65 Q60.05 -42.0 69.75 -17.95 80.55 8.9 68.0 34.1 55.45 59.35 26.8 68.2 -1.8 77.05 -29.7 64.3 -57.6 51.6 -68.45 24.75 -79.3 -2.05 -66.75 -27.25 L-66.7 -27.3 Q-54.1 -52.5 -25.5 -61.4 3.1 -70.2 31.0 -57.5 L36.65 -54.65"/></g><g id="c6"><g><use transform="matrix(1.0,0.0,0.0,1.0,0.0,0.0)" xlink:href="#c5"/></g></g><radialGradient gradientUnits="userSpaceOnUse" r="819.2" cx="0" cy="0" spreadMethod="pad" gradientTransform="matrix(0.209197998047,0.0,0.0,0.177108764648,67.15,107.2)" id="gradient2"><stop offset="0.356862745098" stop-color="#ffffff"/><stop offset="0.670588235294" stop-opacity="0.0"/></radialGradient><g id="c7"><path fill="none" stroke-linejoin="round" stroke-linecap="round" stroke="url(#gradient2)" stroke-width="0.5" d="M136.55 165.8 L68.6 106.0 68.4 106.0 118.25 201.5 M68.3 105.8 L68.35 105.8 68.3 105.8 68.3 105.85 68.4 106.0 68.3 106.0 86.55 211.5 M68.3 105.8 L68.3 105.85 68.3 106.0 68.15 105.95 18.25 151.55 M68.3 105.85 L68.25 105.85 68.3 106.0 50.0 193.2 M68.25 105.85 L68.15 105.95 0.05 97.7 M68.3 105.85 L68.25 105.8 68.25 105.85 M68.25 105.8 L68.2 105.7 0.0 45.7 M68.3 105.8 L68.25 105.75 68.25 105.8 M68.25 105.75 L68.2 105.7 18.25 10.05 M68.6 106.0 L68.35 105.8 118.25 60.15 M86.6 18.35 L68.3 105.8 M136.6 114.25 L68.6 106.0 M68.25 105.75 L49.95 0.05"/></g><g id="c8"><g><use transform="matrix(1.0,0.0,0.0,1.0,0.0,0.0)" xlink:href="#c7"/></g></g><g id="c9"><g><use transform="matrix(1.0,0.0,0.0,1.0,0.0,0.0)" xlink:href="#c2"/></g><g><use transform="matrix(0.238861083984,-0.0867004394531,0.10026550293,0.233917236328,34.25,31.15)" xlink:href="#c4"/></g><g><use transform="matrix(0.238861083984,-0.0867004394531,0.10026550293,0.233917236328,4.25,10.3)" xlink:href="#c4"/></g><g><use transform="matrix(0.141098022461,-0.0378112792969,0.111373901367,0.225646972656,20.25,20.65)" filter="url(#filter7)" xlink:href="#c6"/></g><g><use transform="matrix(-0.155029296875,0.0513153076172,0.0841827392578,0.147033691406,22.6,3.15)" filter="url(#filter8)" xlink:href="#c8"/></g></g><filter id="filter7"><feColorMatrix in="SourceGraphic" type="matrix" values="0.0 0.0 0.0 0.0 0.796875 0.0 0.0 0.0 0.0 0.59765625 0.0 0.0 0.0 0.0 0.19921875 0.0 0.0 0.0 1.0 0.0" result="cxform"/><feComposite operator="in" in2="SourceGraphic" result="color-xform"/></filter><filter id="filter8"><feColorMatrix in="SourceGraphic" type="matrix" values="0.0 0.0 0.0 0.0 0.99609375 0.0 0.0 0.0 0.0 0.99609375 0.0 0.0 0.0 0.0 0.99609375 0.0 0.0 0.0 1.0 0.0" result="cxform"/><feComposite operator="in" in2="SourceGraphic" result="color-xform"/></filter><g id="c10"><path fill="#a20909" stroke="none" d="M2.4 2.75 L3.05 2.2 5.1 0.0 6.1 3.05 9.45 1.65 9.8 2.4 12.15 1.75 15.6 1.7 13.7 4.1 11.3 5.45 13.7 5.8 16.0 5.7 23.8 9.9 21.3 10.3 19.4 10.1 15.9 10.35 14.8 10.65 12.9 9.75 10.1 9.1 13.3 11.3 14.1 13.4 14.45 15.15 10.4 13.2 8.85 11.85 7.6 13.0 4.95 9.75 3.6 12.55 1.7 10.6 1.7 9.55 1.05 9.4 1.2 8.25 2.3 8.2 3.0 10.0 4.25 8.7 9.65 10.7 9.0 8.15 13.35 7.6 7.6 5.65 9.8 3.95 5.85 4.1 4.3 2.25 2.4 2.75"/><path fill="#c04825" stroke="none" d="M2.4 2.75 L4.3 2.25 5.85 4.1 9.8 3.95 7.6 5.65 13.35 7.6 9.0 8.15 9.65 10.7 4.25 8.7 3.0 10.0 2.3 8.2 1.2 8.25 0.0 8.35 0.65 7.55 0.85 7.35 1.0 7.15 2.3 8.2 3.1 7.35 5.35 8.6 5.55 7.5 8.9 7.65 5.65 5.9 6.55 4.8 4.0 4.95 3.9 3.5 2.2 3.95 1.9 4.85 1.9 4.8 1.85 4.5 1.6 3.55 2.35 3.5 2.4 2.75"/><path fill="#da7e06" stroke="none" d="M1.0 7.15 L1.9 4.85 2.2 3.95 3.9 3.5 4.0 4.95 6.55 4.8 5.65 5.9 8.9 7.65 5.55 7.5 5.35 8.6 3.1 7.35 2.3 8.2 1.0 7.15"/><path fill="none" stroke="#000000" stroke-width="0.5" stroke-opacity="0.301960784314" d="M1.2 8.25 L1.05 9.4 1.7 9.55 1.7 10.6 3.6 12.55 4.95 9.75 7.6 13.0 8.85 11.85 10.4 13.2 14.45 15.15 14.1 13.4 13.3 11.3 10.1 9.1 12.9 9.75 14.8 10.65 15.9 10.35 19.4 10.1 21.3 10.3 23.8 9.9 16.0 5.7 13.7 5.8 11.3 5.45 13.7 4.1 15.6 1.7 12.15 1.75 9.8 2.4 9.45 1.65 6.1 3.05 5.1 0.0 3.05 2.2 2.4 2.75 M1.2 8.25 L0.0 8.35 0.65 7.55 0.85 7.35 1.0 7.15 1.9 4.85 1.9 4.8 1.85 4.5 1.6 3.55 M2.35 3.5 L2.4 2.75"/></g><g id="c11"><g><use transform="matrix(1.0,0.0,0.0,1.0,0.0,0.0)" xlink:href="#c10"/></g></g><g id="c12"><path fill="#aa5704" stroke="none" d="M110.2 23.65 L109.9 23.95 109.2 24.1 Q85.75 31.05 51.25 60.8 39.1 72.8 27.1 81.35 22.35 84.55 17.6 87.35 11.3 91.0 5.15 93.65 1.95 91.55 1.8 87.6 L29.75 65.15 Q35.5 64.7 40.25 62.2 45.0 59.85 51.95 53.7 L73.9 24.65 88.25 9.55 101.7 18.05 104.2 16.1 112.55 21.3 110.2 23.65 M13.95 106.75 Q20.25 101.05 27.1 95.05 L28.8 93.75 Q52.1 73.25 79.2 51.85 98.05 39.3 115.35 37.75 L69.55 81.75 Q93.6 61.8 113.85 47.1 L113.95 47.4 112.15 49.2 Q93.7 67.35 74.15 88.6 61.75 93.65 49.7 105.65 43.7 111.5 37.45 120.0 L31.55 117.1 Q30.85 114.0 45.25 97.95 L48.6 92.8 Q50.3 89.15 40.35 100.35 38.85 101.85 37.3 103.7 L26.0 112.6 16.5 108.85 13.95 106.75 M69.95 70.3 L63.7 77.0 69.95 70.3"/><path fill="#c1b98f" stroke="none" d="M110.35 23.95 L109.9 23.95 110.2 23.65 110.35 23.95"/><path fill="#eeb566" stroke="none" d="M109.9 23.95 L110.35 23.95 110.5 23.8 112.55 25.2 121.95 31.05 115.35 37.75 Q98.05 39.3 79.2 51.85 52.1 73.25 28.8 93.75 L27.1 95.05 Q20.25 101.05 13.95 106.75 L9.1 102.85 11.2 100.6 11.9 99.75 5.15 93.65 Q11.3 91.0 17.6 87.35 22.35 84.55 27.1 81.35 39.1 72.8 51.25 60.8 85.75 31.05 109.2 24.1 L109.9 23.95 M28.8 85.1 L12.0 99.75 11.9 99.75 12.0 99.75 28.8 85.1 M73.9 24.65 L51.95 53.7 Q45.0 59.85 40.25 62.2 35.5 64.7 29.75 65.15 55.05 44.45 73.9 24.65 M114.25 55.5 L114.25 59.85 112.15 49.2 113.95 47.4 114.25 46.85 114.25 55.5 M37.45 120.0 Q43.7 111.5 49.7 105.65 61.75 93.65 74.15 88.6 L55.75 109.0 Q54.05 110.95 52.1 113.75 48.05 117.65 43.45 120.7 42.75 120.85 42.2 121.15 L37.45 120.0"/><path fill="#38321d" stroke="none" d="M110.5 23.8 L110.2 23.65 112.55 21.3 112.55 25.2 110.5 23.8"/><path fill="#6c6c38" stroke="none" d="M110.35 23.95 L110.2 23.65 110.5 23.8 110.35 23.95 M113.85 47.1 Q113.95 46.85 114.25 46.85 L113.95 47.4 113.85 47.1"/><path fill="#641d02" stroke="none" d="M115.35 37.75 L121.95 31.05 121.95 39.45 120.25 49.9 114.25 55.5 114.25 46.85 Q113.95 46.85 113.85 47.1 93.6 61.8 69.55 81.75 L115.35 37.75 M114.25 59.85 Q98.45 73.65 84.5 88.05 70.65 102.3 61.05 112.75 51.4 123.25 42.3 135.25 L42.6 131.05 Q45.55 123.5 52.1 113.75 54.05 110.95 55.75 109.0 L74.15 88.6 Q93.7 67.35 112.15 49.2 L114.25 59.85"/><path fill="#ffd865" stroke="none" d="M5.15 93.65 L11.9 99.75 11.05 100.45 3.35 94.45 Q3.8 94.05 4.35 93.9 L5.15 93.65 4.35 93.9 Q3.8 94.05 3.35 94.45 L0.85 93.2 1.7 99.2 1.1 97.8 -1.25 91.55 1.8 87.6 Q1.95 91.55 5.15 93.65 M16.5 108.85 L26.0 112.6 37.3 103.7 Q38.85 101.85 40.35 100.35 50.3 89.15 48.6 92.8 L27.95 114.15 27.4 119.9 25.85 116.25 16.5 108.85 M31.55 117.1 L37.45 120.0 36.6 121.0 37.45 120.0 42.2 121.15 Q42.75 120.85 43.45 120.7 48.05 117.65 52.1 113.75 45.55 123.5 42.6 131.05 40.8 123.8 37.3 121.55 L36.6 121.0 31.55 117.1"/><path fill="#b0854b" stroke="none" d="M3.35 94.45 L11.05 100.45 11.2 100.6 9.1 102.85 13.95 106.75 16.5 108.85 25.85 116.25 27.4 119.9 15.95 111.1 9.1 111.1 5.05 108.15 2.1 100.35 1.7 99.2 0.85 93.2 3.35 94.45 M42.3 135.25 L41.35 134.55 38.0 132.05 33.25 122.55 29.35 119.9 31.55 117.1 36.6 121.0 37.3 121.55 Q40.8 123.8 42.6 131.05 L42.3 135.25"/><path fill="#2b1c00" stroke="none" d="M48.6 92.8 L45.25 97.95 Q30.85 114.0 31.55 117.1 L29.35 119.9 27.1 122.7 27.4 119.9 27.95 114.15 48.6 92.8"/><path fill="#c49454" stroke="none" d="M35.2 130.1 L9.1 111.1 15.95 111.1 27.4 119.9 27.1 122.7 29.35 119.9 33.25 122.55 38.0 132.05 35.2 130.1"/><path fill="#939672" stroke="none" d="M41.35 134.55 L38.0 132.15 38.0 132.05 41.35 134.55"/><path fill="#7d8061" stroke="none" d="M38.0 132.15 L35.2 130.1 38.0 132.05 38.0 132.15"/><path fill="none" stroke="#382510" stroke-width="0.7" stroke-opacity="0.301960784314" d="M11.9 99.75 L12.0 99.75 28.8 85.1 M110.5 23.8 L110.2 23.65 M11.05 100.45 L11.9 99.75 11.2 100.6 9.1 102.85 M112.55 25.2 L110.5 23.8 M11.05 100.45 L11.2 100.6 M27.95 114.15 L48.6 92.8 M63.7 77.0 L69.95 70.3"/><path fill="none" stroke="#382510" stroke-width="0.5" stroke-opacity="0.152941176471" d="M109.9 23.95 L110.35 23.95 110.5 23.8 M109.2 24.1 Q85.75 31.05 51.25 60.8 39.1 72.8 27.1 81.35 22.35 84.55 17.6 87.35 11.3 91.0 5.15 93.65 L4.35 93.9 Q3.8 94.05 3.35 94.45 M73.9 24.65 L51.95 53.7 Q45.0 59.85 40.25 62.2 35.5 64.7 29.75 65.15 M13.95 106.75 Q20.25 101.05 27.1 95.05 L28.8 93.75 Q52.1 73.25 79.2 51.85 98.05 39.3 115.35 37.75 M37.45 120.0 Q43.7 111.5 49.7 105.65 61.75 93.65 74.15 88.6 M36.6 121.0 L37.45 120.0"/><path fill="none" stroke="#000000" stroke-width="0.5" stroke-opacity="0.301960784314" d="M112.55 21.3 L104.2 16.1 101.7 18.05 88.25 9.55 73.9 24.65 Q55.05 44.45 29.75 65.15 L1.8 87.6 M121.95 31.05 L112.55 25.2 112.55 21.3 M121.95 31.05 L121.95 39.45 120.25 49.9 114.25 55.5 114.25 59.85 Q98.45 73.65 84.5 88.05 70.65 102.3 61.05 112.75 51.4 123.25 42.3 135.25 L41.35 134.55 M35.2 130.1 L9.1 111.1 5.05 108.15 2.1 100.35 M1.1 97.8 L-1.25 91.55 1.8 87.6 M114.25 46.85 L114.25 55.5 M27.4 119.9 L27.95 114.15 M27.4 119.9 L27.1 122.7 M38.0 132.05 L41.35 134.55 M38.0 132.05 L35.2 130.1"/></g><g id="c13"><path fill="#f9dcc1" stroke="none" d="M38.2 4.35 Q39.2 4.05 39.4 4.95 39.6 5.95 38.6 6.25 37.6 6.55 37.4 5.65 37.2 4.65 38.2 4.35 M19.65 28.15 L17.95 29.75 15.4 32.15 11.3 35.35 10.65 35.3 10.7 35.25 12.85 32.7 Q13.25 31.85 14.95 30.1 16.7 27.4 17.6 26.45 20.35 23.6 20.7 22.75 20.8 22.5 22.65 20.0 24.3 17.65 24.5 16.35 L26.35 14.4 Q28.0 12.85 27.9 12.3 L27.5 11.95 27.25 11.8 Q27.1 12.85 25.0 14.6 23.7 15.5 22.85 16.25 L22.15 17.0 21.15 17.85 20.5 18.4 19.1 19.6 19.15 19.85 Q19.3 20.55 18.45 21.25 L16.15 23.15 11.65 27.25 Q10.7 27.5 10.5 26.5 10.35 25.8 12.4 23.85 L12.35 23.8 4.35 30.75 Q3.45 29.7 3.0 30.15 L2.9 29.55 Q3.15 29.05 4.4 28.05 L5.5 26.35 7.35 24.75 8.15 24.05 8.7 23.55 16.1 17.35 16.1 16.8 15.7 16.8 16.0 15.95 16.35 15.25 14.7 15.75 Q8.1 21.25 3.75 24.2 L0.0 26.6 0.1 26.35 2.7 24.75 Q2.6 24.2 3.1 23.9 L3.9 23.4 5.7 22.0 8.5 19.55 10.3 18.05 Q12.4 15.6 15.55 12.6 L18.4 9.6 Q21.1 6.75 21.6 6.6 21.9 6.5 21.95 6.8 L21.55 7.35 Q21.05 7.8 21.15 8.25 L21.25 8.65 Q21.75 7.95 23.95 6.4 24.3 6.05 24.35 5.3 24.4 4.65 25.0 4.2 L29.3 0.0 31.15 0.5 32.75 0.4 Q33.25 0.4 34.15 0.95 L34.65 1.4 23.8 11.85 33.5 4.25 34.25 3.95 34.45 3.9 34.45 3.95 34.5 3.9 35.35 3.95 35.5 4.0 Q36.0 4.2 36.1 4.55 L35.9 5.1 Q35.6 5.4 35.65 5.7 L36.1 6.2 34.3 8.2 31.7 11.15 27.55 15.65 24.1 19.85 19.15 25.6 17.3 28.15 Q16.8 28.85 16.9 29.3 L17.3 29.2 19.65 28.15 19.7 28.1 19.75 28.1 19.65 28.15 M14.15 19.85 L14.55 19.5 15.25 18.75 14.15 19.85 M12.15 23.25 L11.95 23.45 12.15 23.3 12.15 23.25 M19.45 9.35 L20.0 8.85 21.55 7.15 19.45 9.35 M16.75 18.75 L16.6 18.65 15.7 19.55 15.55 19.7 16.75 18.75 M1.75 26.4 Q2.85 26.15 3.05 27.15 3.25 28.15 2.3 28.4 1.25 28.7 0.95 27.65 0.7 26.65 1.75 26.4"/></g><g id="c14"><g><use transform="matrix(1.0,0.0,0.0,1.0,0.0,0.0)" xlink:href="#c13"/></g></g><g id="c15"><path fill="#a20909" stroke="none" d="M2.3 13.9 L0.1 9.2 4.55 11.75 3.85 6.7 5.05 7.2 5.05 4.1 6.2 0.45 8.85 5.3 9.75 9.25 11.15 7.2 11.9 4.8 20.5 1.8 20.1 4.8 19.15 6.5 18.25 10.4 18.25 11.9 16.3 12.75 14.35 14.85 18.6 14.15 21.75 15.8 24.3 17.6 20.1 19.4 17.7 19.4 18.9 22.05 13.35 20.85 16.75 25.6 13.4 25.15 11.95 23.95 11.5 24.45 10.0 22.95 10.3 21.75 13.05 23.15 11.65 20.3 16.4 17.2 12.65 14.85 13.5 9.75 8.75 13.35 7.15 9.0 5.95 13.3 2.9 12.7 2.9 15.2 2.35 13.9 2.3 13.9 M8.6 22.25 L8.4 21.85 8.65 22.25 8.6 22.25 M5.5 18.15 L5.0 17.8 5.55 18.15 5.5 18.15"/><path fill="#c04825" stroke="none" d="M2.3 13.9 L2.35 13.9 2.9 15.2 2.9 12.7 5.95 13.3 7.15 9.0 8.75 13.35 13.5 9.75 12.65 14.85 16.4 17.2 11.65 20.3 13.05 23.15 10.3 21.75 10.0 22.95 9.7 24.3 8.85 22.7 8.65 22.25 8.4 21.85 10.3 21.75 9.45 19.95 11.95 19.1 10.5 17.55 11.95 14.35 8.4 15.6 7.2 13.4 6.45 16.15 4.4 14.55 4.4 16.8 5.55 18.15 5.0 17.8 3.65 16.95 3.9 16.15 2.9 15.2 2.3 13.9"/><path fill="#da7e06" stroke="none" d="M8.4 21.85 L5.5 18.15 5.55 18.15 4.4 16.8 4.4 14.55 6.45 16.15 7.2 13.4 8.4 15.6 11.95 14.35 10.5 17.55 11.95 19.1 9.45 19.95 10.3 21.75 8.4 21.85"/><path fill="none" stroke="#000000" stroke-width="0.5" stroke-opacity="0.301960784314" d="M10.0 22.95 L11.5 24.45 11.95 23.95 13.4 25.15 16.75 25.6 13.35 20.85 18.9 22.05 17.7 19.4 20.1 19.4 24.3 17.6 21.75 15.8 18.6 14.15 14.35 14.85 16.3 12.75 18.25 11.9 18.25 10.4 19.15 6.5 20.1 4.8 20.5 1.8 11.9 4.8 11.15 7.2 9.75 9.25 8.85 5.3 6.2 0.45 5.05 4.1 5.05 7.2 3.85 6.7 4.55 11.75 0.1 9.2 2.3 13.9 2.35 13.9 M10.0 22.95 L9.7 24.3 8.85 22.7 8.6 22.25 8.4 21.85 5.5 18.15 5.0 17.8 3.65 16.95 M3.9 16.15 L2.9 15.2 2.3 13.9"/></g><g id="c16"><g><use transform="matrix(1.0,0.0,0.0,1.0,0.0,0.0)" xlink:href="#c15"/></g></g><g id="c17"><path fill="#a20909" stroke="none" d="M5.2 19.65 L1.1 17.6 5.4 16.75 2.1 13.55 3.15 13.15 1.4 10.9 0.0 7.65 4.5 9.55 7.35 11.85 7.0 9.5 6.15 7.3 9.95 0.0 11.4 2.4 11.75 4.2 13.4 7.55 14.25 8.65 13.5 10.4 13.45 13.15 15.8 10.05 18.75 9.35 21.35 9.1 19.75 12.95 18.2 14.4 20.45 15.6 16.25 18.05 21.15 19.45 18.75 21.1 17.15 21.15 17.15 21.75 15.3 21.6 14.85 20.5 17.4 19.9 14.85 18.65 16.15 13.6 12.4 14.15 9.95 9.95 9.05 15.4 5.5 13.2 7.2 17.05 4.9 18.45 6.35 20.25 5.25 19.65 5.2 19.65 M14.0 21.95 L13.65 21.75 14.05 21.9 14.0 21.95 M9.7 20.8 L9.2 20.85 9.75 20.75 9.7 20.8"/><path fill="#da7e06" stroke="none" d="M13.65 21.75 L9.7 20.8 9.75 20.75 8.2 20.5 6.9 18.85 9.15 18.8 8.05 16.4 10.05 17.2 11.65 14.2 12.55 17.4 14.35 17.65 13.25 19.75 14.85 20.5 13.65 21.75"/><path fill="#c04825" stroke="none" d="M5.2 19.65 L5.25 19.65 6.35 20.25 4.9 18.45 7.2 17.05 5.5 13.2 9.05 15.4 9.95 9.95 12.4 14.15 16.15 13.6 14.85 18.65 17.4 19.9 14.85 20.5 15.3 21.6 15.9 22.75 14.45 22.1 14.05 21.9 13.65 21.75 14.85 20.5 13.25 19.75 14.35 17.65 12.55 17.4 11.65 14.2 10.05 17.2 8.05 16.4 9.15 18.8 6.9 18.85 8.2 20.5 9.75 20.75 9.2 20.85 7.85 21.05 7.55 20.3 6.35 20.25 5.2 19.65"/><path fill="none" stroke="#000000" stroke-width="0.5" stroke-opacity="0.301960784314" d="M15.3 21.6 L17.15 21.75 17.15 21.15 18.75 21.1 21.15 19.45 16.25 18.05 20.45 15.6 18.2 14.4 19.75 12.95 21.35 9.1 18.75 9.35 15.8 10.05 13.45 13.15 13.5 10.4 14.25 8.65 13.4 7.55 11.75 4.2 11.4 2.4 9.95 0.0 6.15 7.3 7.0 9.5 7.35 11.85 4.5 9.55 0.0 7.65 1.4 10.9 3.15 13.15 2.1 13.55 5.4 16.75 1.1 17.6 5.2 19.65 5.25 19.65 M15.3 21.6 L15.9 22.75 14.45 22.1 14.0 21.95 13.65 21.75 9.7 20.8 9.2 20.85 7.85 21.05 M7.55 20.3 L6.35 20.25 5.2 19.65"/></g><g id="c18"><g><use transform="matrix(1.0,0.0,0.0,1.0,0.0,0.0)" xlink:href="#c17"/></g></g><g id="c19"><g><use transform="matrix(1.63555908203,1.24932861328,-2.49102783203,2.96319580078,82.75,62.55)" filter="url(#filter13)" xlink:href="#c11"/></g><g><use transform="matrix(1.0,0.0,0.0,1.0,0.0,0.0)" xlink:href="#c12"/></g><g><use transform="matrix(2.79299926758,0.0,0.0,2.79299926758,6.95,16.1)" filter="url(#filter15)" xlink:href="#c14"/></g><g><use transform="matrix(-2.17279052734,0.379821777344,0.724609375,1.65097045898,49.3,30.65)" filter="url(#filter16)" xlink:href="#c16"/></g><g><use transform="matrix(-2.71156311035,0.0,0.0,2.71156311035,88.5,12.9)" xlink:href="#c18"/></g></g><filter id="filter13"><feColorMatrix in="SourceGraphic" type="matrix" values="0.7578125 0.0 0.0 0.0 0.046875 0.0 0.7578125 0.0 0.0 0.0 0.0 0.0 0.7578125 0.0 0.0 0.0 0.0 0.0 1.0 0.0" result="cxform"/><feComposite operator="in" in2="SourceGraphic" result="color-xform"/></filter><filter id="filter15"><feColorMatrix in="SourceGraphic" type="matrix" values="1.0 0.0 0.0 0.0 0.0 0.0 1.0 0.0 0.0 0.0 0.0 0.0 1.0 0.0 0.0 0.0 0.0 0.0 0.2109375 0.0" result="cxform"/><feComposite operator="in" in2="SourceGraphic" result="color-xform"/></filter><filter id="filter16"><feColorMatrix in="SourceGraphic" type="matrix" values="0.7578125 0.0 0.0 0.0 0.046875 0.0 0.7578125 0.0 0.0 0.0 0.0 0.0 0.7578125 0.0 0.0 0.0 0.0 0.0 1.0 0.0" result="cxform"/><feComposite operator="in" in2="SourceGraphic" result="color-xform"/></filter><g id="c20"><g><use transform="matrix(1.0,0.0,0.0,1.0,6.3,53.35)" xlink:href="#c9"/></g><g><use transform="matrix(-0.146041870117,0.0488891601562,0.0616760253906,0.140441894531,33.05,63.95)" xlink:href="#c19"/></g><g><use transform="matrix(0.141098022461,-0.0378112792969,0.111373901367,0.225646972656,27.2,74.05)" filter="url(#filter20)" xlink:href="#c6"/></g></g><filter id="filter20"><feColorMatrix in="SourceGraphic" type="matrix" values="1.0 0.0 0.0 0.0 0.0 0.0 1.0 0.0 0.0 0.0 0.0 0.0 1.0 0.0 0.0 0.0 0.0 0.0 0.23046875 0.0" result="cxform"/><feComposite operator="in" in2="SourceGraphic" result="color-xform"/></filter></defs><g><g><use transform="matrix(1.0,0.0,0.0,1.0,0.0,0.0)" xlink:href="#c1"/></g><g><use transform="matrix(1.15496826172,0.0,0.0,1.15496826172,-1.5,-57.15)" xlink:href="#c20"/></g></g></svg>