<?xml version='1.0' encoding='UTF-8'?>
<svg xmlns:xlink="http://www.w3.org/1999/xlink" xmlns="http://www.w3.org/2000/svg" version="1.1" width="60px" height="60px" viewBox="0.0 0.0 60.0 60.0"><defs><g id="c1"><path fill="#000000" fill-opacity="0.00392156862745" d="M0.0 0.0 L60.0 0.0 60.0 60.0 0.0 60.0 0.0 0.0"/></g><g id="c2"><path fill="#006699" stroke="none" d="M31.5 39.85 L19.8 43.65 Q17.15 44.45 15.5 43.3 14.35 42.55 13.65 40.9 L1.7 14.45 1.6 14.3 1.2 13.45 -0.75 9.05 Q-2.05 6.2 -0.3 4.75 0.3 4.25 1.2 3.9 L5.5 2.25 Q8.95 0.95 10.65 4.15 L22.3 0.4 Q26.55 -1.0 28.45 3.1 L40.55 29.95 40.9 30.7 42.95 35.15 Q43.95 37.35 43.15 38.7 42.5 39.7 40.95 40.25 L36.65 41.8 35.1 42.2 Q32.75 42.3 31.5 39.85"/><path fill="none" stroke="#000000" stroke-width="1.0" stroke-opacity="0.298039215686" d="M31.5 39.85 L19.8 43.65 Q17.15 44.45 15.5 43.3 14.35 42.55 13.65 40.9 L1.7 14.45 1.6 14.3 1.2 13.45 -0.75 9.05 Q-2.05 6.2 -0.3 4.75 0.3 4.25 1.2 3.9 L5.5 2.25 Q8.95 0.95 10.65 4.15 L22.3 0.4 Q26.55 -1.0 28.45 3.1 L40.55 29.95 40.9 30.7 42.95 35.15 Q43.95 37.35 43.15 38.7 42.5 39.7 40.95 40.25 L36.65 41.8 35.1 42.2 Q32.75 42.3 31.5 39.85"/><path fill="#300525" stroke="none" d="M0.75 8.25 L29.8 9.75 25.55 0.9 Q26.9 1.6 27.8 3.55 L40.7 32.15 Q42.6 36.3 38.3 37.65 L23.3 42.5 13.15 21.4 4.6 20.9 0.7 12.25 Q-0.45 9.75 0.75 8.25 M20.1 43.55 L19.8 43.65 Q17.15 44.45 15.5 43.3 L20.1 43.55"/><path fill="#630a4c" stroke="none" d="M25.55 0.9 L29.8 9.75 0.75 8.25 Q1.45 7.3 3.1 6.75 L21.65 0.8 25.55 0.9 M4.6 20.9 L13.15 21.4 23.3 42.5 20.1 43.55 15.5 43.3 Q14.35 42.55 13.65 40.9 L4.6 20.9"/><path fill="none" stroke="#000000" stroke-width="0.5" stroke-opacity="0.301960784314" d="M0.75 8.25 Q-0.45 9.75 0.7 12.25 L4.6 20.9 M23.3 42.5 L38.3 37.65 Q42.6 36.3 40.7 32.15 L27.8 3.55 Q26.9 1.6 25.55 0.9 L21.65 0.8 3.1 6.75 Q1.45 7.3 0.75 8.25 M20.1 43.55 L19.8 43.65 Q17.15 44.45 15.5 43.3 14.35 42.55 13.65 40.9 L4.6 20.9 M20.1 43.55 L23.3 42.5"/><path fill="#9d147b" stroke="none" d="M14.2 40.5 L1.35 11.8 Q-0.5 7.75 3.8 6.35 L22.3 0.4 Q26.55 -1.0 28.45 3.1 L41.35 31.7 Q43.25 35.85 38.9 37.25 L20.4 43.2 Q16.1 44.55 14.2 40.5"/><path fill="none" stroke="#000000" stroke-width="0.5" stroke-opacity="0.301960784314" d="M14.2 40.5 L1.35 11.8 Q-0.5 7.75 3.8 6.35 L22.3 0.4 Q26.55 -1.0 28.45 3.1 L41.35 31.7 Q43.25 35.85 38.9 37.25 L20.4 43.2 Q16.1 44.55 14.2 40.5"/><path fill="#9d147b" stroke="none" d="M31.4 39.65 L31.3 39.45 31.25 39.4 29.25 34.95 Q27.55 31.2 31.25 29.85 L35.6 28.25 Q38.8 27.1 40.5 29.85 L40.9 30.7 42.95 35.15 Q43.95 37.35 43.15 38.7 42.5 39.45 41.2 39.9 L36.9 41.45 34.85 41.85 Q32.9 41.7 31.75 39.5 L31.4 39.65"/><path fill="#630a4c" stroke="none" d="M43.15 38.7 Q42.5 39.7 40.95 40.25 L36.65 41.8 35.1 42.2 Q32.75 42.3 31.45 39.8 L31.4 39.65 31.75 39.5 Q32.9 41.7 34.85 41.85 L36.9 41.45 41.2 39.9 Q42.5 39.45 43.15 38.7"/><path fill="none" stroke="#003333" stroke-width="0.5" stroke-opacity="0.509803921569" d="M43.15 38.7 Q42.5 39.7 40.95 40.25 L36.65 41.8 35.1 42.2 Q32.75 42.3 31.45 39.8 L31.4 39.65 30.3 40.0 31.4 39.65 M40.5 29.85 L40.9 30.7 42.95 35.15 Q43.95 37.35 43.15 38.7 42.5 39.45 41.2 39.9 L36.9 41.45 34.85 41.85 Q32.9 41.7 31.75 39.5 L31.4 39.65"/><path fill="#9d147b" stroke="none" d="M10.65 4.2 L10.85 4.6 12.85 9.05 Q14.5 12.8 10.8 14.15 L6.5 15.8 Q4.5 16.6 3.1 15.8 L1.75 12.85 -0.2 8.45 Q-1.25 6.15 -0.3 4.75 0.3 4.25 1.2 3.9 L5.5 2.25 Q9.0 0.95 10.65 4.2"/><path fill="#300525" stroke="none" d="M-0.3 4.75 Q-1.25 6.15 -0.2 8.45 L1.75 12.85 3.1 15.8 Q2.25 15.35 1.6 14.3 L1.2 13.45 -0.75 9.05 Q-2.05 6.2 -0.3 4.75"/><path fill="none" stroke="#003333" stroke-width="0.5" stroke-opacity="0.509803921569" d="M3.1 15.8 L6.45 23.15 M-0.3 4.75 Q0.3 4.25 1.2 3.9 L5.5 2.25 Q9.0 0.95 10.65 4.2 M3.1 15.8 L1.75 12.85 -0.2 8.45 Q-1.25 6.15 -0.3 4.75 -2.05 6.2 -0.75 9.05 L1.2 13.45 1.6 14.3"/><path fill="#fcf2cf" stroke="none" d="M9.15 13.6 Q9.8 12.8 9.55 11.6 L9.1 10.55 22.05 6.35 Q24.9 5.45 26.25 7.85 L26.5 8.3 35.8 29.0 35.95 29.35 Q34.75 29.3 34.1 30.1 33.45 30.9 33.7 32.1 L34.0 32.9 20.65 37.2 Q18.8 37.8 17.65 37.0 16.8 36.4 16.3 35.2 L6.95 14.6 6.8 14.4 7.1 14.4 Q8.4 14.45 9.15 13.6"/><path fill="#c47fad" stroke="none" d="M9.15 13.6 Q8.4 14.45 7.1 14.4 L6.8 14.4 6.95 14.6 16.3 35.2 Q16.8 36.4 17.65 37.0 18.8 37.8 20.65 37.2 L34.0 32.9 33.7 32.1 Q33.45 30.9 34.1 30.1 34.75 29.3 35.95 29.35 L35.8 29.0 26.5 8.3 26.25 7.85 Q24.9 5.45 22.05 6.35 L9.1 10.55 9.55 11.6 Q9.8 12.8 9.15 13.6 M28.25 6.1 L35.55 22.3 39.35 30.75 Q41.1 34.5 37.2 35.7 L20.45 41.1 Q16.8 42.25 15.2 39.0 L15.0 38.6 8.25 23.65 3.35 12.8 Q1.65 9.1 5.5 7.85 L22.25 2.5 Q26.05 1.25 27.75 4.95 L28.25 6.1"/><path fill="none" stroke="#ffcc00" stroke-width="1.0" stroke-opacity="0.749019607843" d="M35.55 22.3 L39.35 30.75 Q41.1 34.5 37.2 35.7 L20.45 41.1 Q16.8 42.25 15.2 39.0 L15.0 38.6 M8.25 23.65 L3.35 12.8 Q1.65 9.1 5.5 7.85 L22.25 2.5 Q26.05 1.25 27.75 4.95 L28.25 6.1"/><path fill="none" stroke="#bf9900" stroke-width="1.0" stroke-opacity="0.749019607843" d="M28.25 6.1 L35.55 22.3 M15.0 38.6 L8.25 23.65"/><path fill="none" stroke="#f0b92b" stroke-width="0.5" d="M9.15 13.6 Q9.8 12.8 9.55 11.6 L9.1 10.55 22.05 6.35 Q24.9 5.45 26.25 7.85 L26.5 8.3 35.8 29.0 35.95 29.35 Q34.75 29.3 34.1 30.1 33.45 30.9 33.7 32.1 L34.0 32.9 20.65 37.2 Q18.8 37.8 17.65 37.0 16.8 36.4 16.3 35.2 L6.95 14.6 6.8 14.4 7.1 14.4 Q8.4 14.45 9.15 13.6"/></g><g id="c3"><path fill="#7fdbfe" stroke="none" d="M10.75 4.9 Q10.75 4.6 10.9 4.35 11.25 3.45 11.95 2.75 13.3 1.5 14.35 2.1 15.4 2.7 14.95 4.45 14.7 5.4 14.1 6.15 L13.75 6.5 Q13.1 7.15 12.35 7.35 L11.4 7.2 Q10.95 6.9 10.75 6.4 10.5 5.75 10.75 4.9 M7.5 5.9 Q7.0 5.85 6.6 5.5 6.05 5.0 5.8 4.15 L5.7 3.6 Q5.55 2.65 5.8 1.7 6.25 0.0 7.5 0.0 L7.6 0.0 Q8.85 0.0 9.3 1.7 9.55 2.65 9.4 3.6 L9.3 4.15 8.5 5.5 7.6 5.9 7.5 5.9 M4.35 4.9 Q4.6 5.75 4.35 6.4 L3.7 7.2 2.75 7.35 Q2.0 7.15 1.35 6.5 L1.0 6.15 Q0.4 5.4 0.15 4.45 -0.3 2.7 0.75 2.1 1.8 1.5 3.15 2.75 3.85 3.45 4.2 4.35 L4.35 4.9 M5.5 13.7 Q4.45 13.9 3.65 12.95 2.75 12.0 3.2 10.25 3.7 8.5 5.25 7.6 6.4 6.9 7.55 7.0 8.75 6.9 9.9 7.6 11.45 8.5 11.95 10.25 12.35 12.0 11.5 12.95 10.7 13.9 9.65 13.7 8.55 13.5 7.55 12.6 6.55 13.5 5.5 13.7"/></g><g id="c4"><g><use transform="matrix(1.0,0.0,0.0,1.0,0.0,0.0)" xlink:href="#c3"/></g></g><radialGradient gradientUnits="userSpaceOnUse" r="819.2" cx="0" cy="0" spreadMethod="pad" gradientTransform="matrix(0.0914459228516,0.0,0.0,0.0914459228516,0.6,3.4)" id="gradient1"><stop offset="0.0" stop-color="#ffffff"/><stop offset="1.0" stop-color="#ffffff" stop-opacity="0.0"/></radialGradient><g id="c5"><path stroke="none" fill="url(#gradient1)" d="M36.65 -54.65 Q60.05 -42.0 69.75 -17.95 80.55 8.9 68.0 34.1 55.45 59.35 26.8 68.2 -1.8 77.05 -29.7 64.3 -57.6 51.6 -68.45 24.75 -79.3 -2.05 -66.75 -27.25 L-66.7 -27.3 Q-54.1 -52.5 -25.5 -61.4 3.1 -70.2 31.0 -57.5 L36.65 -54.65"/></g><g id="c6"><g><use transform="matrix(1.0,0.0,0.0,1.0,0.0,0.0)" xlink:href="#c5"/></g></g><radialGradient gradientUnits="userSpaceOnUse" r="819.2" cx="0" cy="0" spreadMethod="pad" gradientTransform="matrix(0.209197998047,0.0,0.0,0.177108764648,67.15,107.2)" id="gradient2"><stop offset="0.356862745098" stop-color="#ffffff"/><stop offset="0.670588235294" stop-opacity="0.0"/></radialGradient><g id="c7"><path fill="none" stroke-linejoin="round" stroke-linecap="round" stroke="url(#gradient2)" stroke-width="0.5" d="M136.55 165.8 L68.6 106.0 68.4 106.0 118.25 201.5 M68.3 105.8 L68.35 105.8 68.3 105.8 68.3 105.85 68.4 106.0 68.3 106.0 86.55 211.5 M68.3 105.8 L68.3 105.85 68.3 106.0 68.15 105.95 18.25 151.55 M68.3 105.85 L68.25 105.85 68.3 106.0 50.0 193.2 M68.25 105.85 L68.15 105.95 0.05 97.7 M68.3 105.85 L68.25 105.8 68.25 105.85 M68.25 105.8 L68.2 105.7 0.0 45.7 M68.3 105.8 L68.25 105.75 68.25 105.8 M68.25 105.75 L68.2 105.7 18.25 10.05 M68.6 106.0 L68.35 105.8 118.25 60.15 M86.6 18.35 L68.3 105.8 M136.6 114.25 L68.6 106.0 M68.25 105.75 L49.95 0.05"/></g><g id="c8"><g><use transform="matrix(1.0,0.0,0.0,1.0,0.0,0.0)" xlink:href="#c7"/></g></g><g id="c9"><g><use transform="matrix(1.0,0.0,0.0,1.0,0.0,0.0)" xlink:href="#c2"/></g><g><use transform="matrix(0.238861083984,-0.0867004394531,0.10026550293,0.233917236328,34.25,31.15)" xlink:href="#c4"/></g><g><use transform="matrix(0.238861083984,-0.0867004394531,0.10026550293,0.233917236328,4.25,10.3)" xlink:href="#c4"/></g><g><use transform="matrix(0.141098022461,-0.0378112792969,0.111373901367,0.225646972656,20.25,20.65)" filter="url(#filter7)" xlink:href="#c6"/></g><g><use transform="matrix(-0.155029296875,0.0513153076172,0.0841827392578,0.147033691406,22.6,3.15)" filter="url(#filter8)" xlink:href="#c8"/></g></g><filter id="filter7"><feColorMatrix in="SourceGraphic" type="matrix" values="0.0 0.0 0.0 0.0 0.796875 0.0 0.0 0.0 0.0 0.59765625 0.0 0.0 0.0 0.0 0.19921875 0.0 0.0 0.0 1.0 0.0" result="cxform"/><feComposite operator="in" in2="SourceGraphic" result="color-xform"/></filter><filter id="filter8"><feColorMatrix in="SourceGraphic" type="matrix" values="0.0 0.0 0.0 0.0 0.99609375 0.0 0.0 0.0 0.0 0.99609375 0.0 0.0 0.0 0.0 0.99609375 0.0 0.0 0.0 1.0 0.0" result="cxform"/><feComposite operator="in" in2="SourceGraphic" result="color-xform"/></filter><g id="c10"><path fill="none" stroke="#77a849" stroke-width="1.0" stroke-opacity="0.301960784314" d="M36.25 63.2 Q36.65 62.95 36.1 62.25 35.95 62.05 35.95 61.75 L36.05 58.0 Q36.1 57.15 36.8 56.5 L37.8 55.5 38.25 55.05 Q38.8 54.55 38.0 54.8 39.3 54.1 40.2 53.25 40.6 52.9 41.2 52.75 L41.6 52.55 42.4 52.3 44.65 51.85 Q45.75 51.7 46.2 52.1 L46.7 52.5 Q48.4 53.55 49.1 55.3"/><path fill="#537533" stroke="none" d="M100.8 18.45 L97.65 18.35 88.65 17.15 87.85 16.7 87.4 15.85 87.55 14.95 Q87.7 14.5 88.15 14.25 L88.25 14.2 93.1 14.65 88.25 14.2 94.2 10.05 99.35 6.1 Q105.3 2.1 109.3 5.55 L109.0 7.6 108.45 9.2 107.6 8.25 Q105.0 5.95 101.15 8.6 100.15 9.25 96.1 12.45 L93.1 14.65 93.05 14.7 93.9 14.9 97.9 15.25 104.9 14.8 104.0 15.85 100.8 18.45"/><path fill="#a9b850" stroke="none" d="M100.8 18.45 L104.0 15.85 104.9 14.8 Q106.7 14.25 107.8 13.3 109.25 11.75 109.1 10.4 L108.45 9.2 109.0 7.6 109.3 5.55 109.75 6.0 Q111.8 7.95 112.1 9.75 112.85 12.45 110.05 15.4 107.35 18.35 100.8 18.45"/><path fill="none" stroke="#000000" stroke-width="0.5" stroke-opacity="0.301960784314" d="M88.25 14.2 L88.15 14.25 Q87.7 14.5 87.55 14.95 L87.4 15.85 87.85 16.7 88.65 17.15 97.65 18.35 100.8 18.45 M104.9 14.8 L97.9 15.25 93.9 14.9 93.05 14.7 93.1 14.65 88.25 14.2 94.2 10.05 99.35 6.1 Q105.3 2.1 109.3 5.55 L109.75 6.0 Q111.8 7.95 112.1 9.75 112.85 12.45 110.05 15.4 107.35 18.35 100.8 18.45 M93.9 14.9 L93.1 14.65 96.1 12.45 Q100.15 9.25 101.15 8.6 105.0 5.95 107.6 8.25 L108.45 9.2 109.1 10.4 Q109.25 11.75 107.8 13.3 106.7 14.25 104.9 14.8"/><path fill="#77a849" stroke="none" d="M11.7 58.65 L11.7 58.7 11.35 58.75 Q19.95 66.6 25.95 69.35 33.05 72.65 36.35 70.7 39.75 68.8 40.3 66.2 40.85 63.6 37.65 61.3 L11.95 58.5 11.95 58.65 11.7 58.65"/><path fill="#537533" stroke="none" d="M37.65 61.3 Q44.0 57.55 40.0 53.85 35.7 50.1 27.95 50.65 20.55 51.25 11.95 58.5 L37.65 61.3"/><path fill="none" stroke="#000000" stroke-width="0.5" stroke-opacity="0.301960784314" d="M11.7 58.65 L11.7 58.7 11.35 58.75 Q19.95 66.6 25.95 69.35 33.05 72.65 36.35 70.7 39.75 68.8 40.3 66.2 40.85 63.6 37.65 61.3 44.0 57.55 40.0 53.85 35.7 50.1 27.95 50.65 20.55 51.25 11.95 58.5 L11.7 58.65 11.95 58.65 11.95 58.5 37.65 61.3"/><path fill="#537533" stroke="none" d="M20.6 92.65 Q18.9 79.2 23.1 71.35 27.6 63.15 34.15 61.25 40.5 59.55 40.2 68.5 L20.6 92.65"/><path fill="#77a849" stroke="none" d="M20.6 92.65 L40.2 68.5 Q44.55 66.7 46.85 68.9 49.05 71.2 48.85 75.9 48.8 78.05 47.0 80.25 L46.15 79.55 Q44.7 79.65 44.0 81.05 43.15 82.5 44.3 82.95 L42.15 84.55 Q41.95 82.35 37.8 80.55 30.6 82.75 35.05 88.45 29.15 91.05 20.45 93.35 L20.65 93.05 20.6 92.95 20.7 92.7 20.6 92.65"/><path fill="none" stroke="#000000" stroke-width="0.5" stroke-opacity="0.301960784314" d="M40.2 68.5 Q40.5 59.55 34.15 61.25 27.6 63.15 23.1 71.35 18.9 79.2 20.6 92.65 L40.2 68.5 Q44.55 66.7 46.85 68.9 49.05 71.2 48.85 75.9 48.8 78.05 47.0 80.25 L46.15 79.55 Q44.7 79.65 44.0 81.05 43.15 82.5 44.3 82.95 L42.15 84.55 Q41.95 82.35 37.8 80.55 30.6 82.75 35.05 88.45 29.15 91.05 20.45 93.35 L20.65 93.05 20.6 92.95 20.6 92.65 20.7 92.7 20.6 92.95"/><path fill="#664a1e" stroke="none" d="M84.4 17.45 L84.3 17.95 84.3 18.05 82.95 21.2 82.95 21.3 82.05 22.9 82.05 22.95 81.5 23.65 78.6 27.05 78.55 27.05 Q77.6 27.8 77.1 27.3 L77.15 26.85 77.2 26.1 77.25 26.15 77.2 25.05 77.15 24.75 77.1 24.65 Q76.8 23.15 75.65 22.95 L75.55 22.8 73.9 23.05 76.3 20.75 77.2 19.5 Q78.75 17.35 78.85 14.85 80.4 15.6 81.55 16.95 L81.8 16.85 Q83.55 16.0 84.15 16.45 L84.4 17.0 84.4 17.45 M108.4 33.65 L108.75 34.7 Q106.95 35.7 106.7 37.45 100.7 40.15 94.75 34.65 86.95 36.85 86.25 30.15 L91.4 24.1 Q88.85 28.7 93.45 32.1 96.2 32.75 98.2 33.7 L98.4 33.75 Q104.1 36.2 108.4 33.65 M108.75 57.1 L107.7 57.95 106.0 57.75 104.2 57.8 103.65 57.85 Q95.75 56.65 96.15 50.6 98.05 43.9 98.75 42.4 L103.5 41.95 103.65 42.15 101.95 44.75 101.85 44.95 Q100.35 54.1 106.5 56.5 L106.0 57.75 106.5 56.5 108.75 57.1 M69.9 93.85 L65.25 94.15 61.5 94.1 60.2 93.95 Q76.45 89.85 71.95 82.85 69.95 80.05 65.5 77.3 65.55 84.0 59.6 89.8 L59.35 90.05 59.1 90.05 Q54.05 91.8 50.6 89.95 L48.75 88.4 48.55 88.0 Q52.8 90.0 55.95 88.65 60.65 86.6 62.95 77.2 L63.05 76.75 63.2 76.45 67.3 76.45 77.0 82.15 78.2 83.95 78.25 84.1 Q78.85 85.55 77.75 87.35 L77.9 87.3 Q79.45 86.8 79.45 88.2 79.45 88.5 78.85 88.85 L77.9 89.2 76.75 89.05 76.75 89.1 Q76.75 89.6 76.35 90.1 75.95 90.65 75.4 90.65 L74.8 90.5 Q72.85 92.1 69.9 93.85 M102.6 65.15 Q101.2 70.0 97.85 73.95 96.15 76.0 94.2 77.4 93.7 76.75 92.25 76.85 90.4 77.0 90.15 78.2 88.3 77.2 86.65 75.15 86.05 72.95 86.65 70.15 L93.1 61.45 95.4 60.3 95.8 60.45 93.25 69.15 Q96.95 66.55 100.5 67.35 L102.6 63.8 102.6 65.15 M78.7 83.65 L78.45 83.8 77.8 83.1 Q77.75 82.9 77.85 82.75 L78.7 83.65 77.85 82.75 77.9 82.6 Q78.15 82.15 79.1 82.45 L79.2 82.6 79.25 83.0 79.0 83.4 78.7 83.65 M82.35 75.5 L83.05 77.4 83.15 77.65 Q83.35 83.5 78.25 80.9 L78.15 80.85 Q75.35 78.3 71.15 76.0 L70.5 75.65 70.75 75.5 71.4 75.05 Q75.85 78.1 79.5 78.95 82.4 74.6 79.5 71.7 L81.0 71.65 82.35 75.5 M90.7 75.95 Q90.7 75.3 89.9 75.25 89.05 75.2 89.05 75.85 L89.25 76.35 Q89.55 76.75 90.1 76.75 L90.6 76.6 90.7 75.95 M72.3 21.0 L72.35 21.4 72.25 21.85 71.7 22.05 71.05 21.45 Q71.05 20.45 72.2 20.85 L72.3 21.0 M54.8 30.1 Q61.35 30.4 63.3 31.65 L65.95 29.55 65.5 29.1 65.5 28.6 Q65.5 27.5 66.65 27.05 67.8 26.65 67.8 27.9 L67.8 28.0 70.0 26.25 69.75 25.95 69.75 25.45 Q69.75 24.6 70.35 24.3 70.55 23.95 70.9 23.55 71.95 22.3 72.85 22.35 L72.95 22.5 73.0 22.9 72.15 24.5 73.8 23.15 73.75 23.25 73.55 23.7 72.0 27.0 Q70.3 30.25 68.5 32.45 L66.7 34.3 66.65 34.35 66.65 34.3 Q62.85 35.5 59.9 35.5 L59.9 35.7 Q59.9 36.35 59.0 36.35 L58.25 36.25 58.15 35.75 58.2 35.4 56.15 34.95 Q55.95 35.65 54.95 35.65 L54.2 35.5 Q53.9 35.25 53.0 35.1 L52.9 34.45 Q52.9 33.65 53.4 33.3 52.25 32.25 51.55 30.65 L54.8 30.1 M45.3 29.75 L46.65 36.3 46.9 37.1 47.95 40.7 47.6 39.75 Q48.15 43.1 46.85 45.8 L46.0 45.8 42.8 47.15 Q36.0 50.1 32.8 57.45 L32.8 60.4 Q31.0 58.0 31.4 55.25 L31.4 55.1 Q31.7 53.4 32.75 51.65 33.5 48.4 35.05 47.15 35.5 46.3 36.4 46.1 L36.65 46.15 Q45.1 44.5 45.3 29.75 M38.65 54.25 Q41.0 52.1 43.1 51.4 47.85 54.75 48.15 60.55 L45.05 61.95 Q46.4 51.6 38.65 54.25 M43.4 32.05 L43.0 32.8 Q43.7 32.75 44.15 33.5 L44.5 34.6 44.15 35.9 Q43.65 37.0 42.65 37.0 41.5 37.0 41.25 35.8 L41.25 34.6 Q41.25 33.0 41.5 32.3 41.95 30.8 43.5 30.85 L43.6 31.0 43.7 31.4 43.4 32.05 M42.05 38.55 L42.1 38.95 41.6 39.75 40.9 40.4 40.25 39.7 Q40.25 39.15 40.8 38.65 41.35 38.1 41.95 38.4 L42.05 38.55 M52.95 81.0 L52.85 80.3 53.0 79.75 53.1 79.05 52.95 78.85 52.45 78.4 Q52.45 77.85 52.9 77.7 L54.2 77.65 55.45 78.15 Q56.95 74.85 57.3 68.9 55.7 64.15 49.2 60.15 L49.1 60.1 49.25 60.15 Q50.25 59.3 51.35 58.9 56.4 61.2 59.25 66.85 61.25 70.75 62.4 74.9 57.6 86.25 51.55 86.9 L51.5 86.9 51.2 86.75 Q52.25 85.6 52.6 83.9 L52.95 81.3 53.1 81.2 52.95 81.0 53.0 79.75 52.95 81.0 M49.25 60.15 L49.2 60.15 49.25 60.15 M52.95 78.85 L52.9 77.7 52.95 78.85 M47.75 79.3 L47.25 79.45 46.7 79.0 46.6 78.7 46.65 78.1 Q47.85 77.65 47.85 78.65 L47.75 79.3 M59.5 91.75 Q60.7 91.8 60.7 92.5 60.7 93.0 60.35 93.1 L59.45 93.15 58.35 93.05 58.25 92.55 Q58.25 91.7 59.5 91.75 M80.45 85.5 L80.5 85.9 Q80.5 86.55 79.8 86.55 L79.15 86.4 Q79.05 86.45 79.05 85.95 79.05 85.5 79.4 85.4 L80.35 85.4 80.45 85.5 M67.45 90.2 Q66.6 91.1 65.45 91.1 64.35 91.1 63.9 90.3 L63.65 89.45 Q63.65 88.0 65.95 87.35 68.2 86.7 68.2 88.8 68.2 89.45 67.45 90.2 M62.4 91.45 Q62.4 90.7 63.25 90.95 64.1 91.15 64.1 91.75 L64.05 92.05 63.95 92.2 63.45 92.35 Q62.9 92.35 62.6 91.95 L62.4 91.45"/><path fill="#8f6d36" stroke="none" d="M92.5 22.8 L94.75 20.15 94.75 23.4 103.5 27.4 Q106.05 29.5 107.5 31.85 105.55 29.35 99.65 27.7 93.75 26.05 92.5 22.8 M108.55 41.95 Q112.15 46.4 110.85 52.75 110.3 55.4 108.95 56.95 L108.75 57.1 106.5 56.5 Q110.1 48.6 106.35 42.3 L106.0 41.95 108.3 41.95 108.55 41.95 M107.7 57.95 L107.75 63.05 Q107.6 68.7 106.5 71.4 104.6 69.2 102.6 68.15 L102.6 65.15 Q103.55 61.75 103.55 57.85 L103.65 57.85 104.2 57.8 106.0 57.75 107.7 57.95 M36.55 63.6 Q35.35 58.9 36.85 56.2 36.9 59.15 38.95 61.2 40.9 63.15 43.7 63.25 42.65 64.45 42.1 66.0 L41.75 66.0 41.75 67.2 42.1 66.0 44.05 66.0 Q48.0 64.95 50.05 68.6 52.45 73.0 52.9 77.7 52.45 77.85 52.45 78.4 L52.95 78.85 53.0 79.75 52.85 80.3 52.95 81.0 52.95 81.3 Q50.05 83.3 45.3 81.2 L45.0 81.15 44.55 80.85 Q43.7 79.9 42.65 78.0 40.2 73.55 36.6 63.8 L36.55 63.6 M41.7 67.5 L41.75 67.2 41.7 67.5 Q41.2 69.7 41.5 72.5 41.2 69.7 41.7 67.5 M42.1 75.9 Q42.6 76.7 43.5 77.1 45.55 78.0 45.85 75.85 46.4 72.15 43.6 70.6 41.9 71.15 41.5 72.5 41.25 73.45 41.6 74.75 L42.1 75.9 42.65 78.0 42.1 75.9 M47.75 79.3 L47.85 78.65 Q47.85 77.65 46.65 78.1 L46.6 78.7 46.7 79.0 47.25 79.45 47.75 79.3"/><path fill="#99753a" stroke="none" d="M78.85 14.85 Q78.75 17.35 77.2 19.5 L76.3 20.75 73.9 23.05 73.85 23.05 73.8 23.15 72.15 24.5 73.0 22.9 72.95 22.5 72.85 22.35 Q71.95 22.3 70.9 23.55 70.55 23.95 70.35 24.3 69.75 24.6 69.75 25.45 L69.75 25.95 70.0 26.25 67.8 28.0 67.8 27.9 Q67.8 26.65 66.65 27.05 65.5 27.5 65.5 28.6 L65.5 29.1 65.95 29.55 63.3 31.65 Q61.35 30.4 54.8 30.1 61.25 27.95 66.2 18.85 L67.7 15.85 67.75 15.75 67.85 15.7 69.15 15.2 68.95 15.15 69.4 15.05 Q75.95 13.5 78.85 14.85 M91.4 24.1 L92.5 22.8 Q93.75 26.05 99.65 27.7 105.55 29.35 107.5 31.85 L108.4 33.65 Q104.1 36.2 98.4 33.75 L98.2 33.7 Q96.2 32.75 93.45 32.1 88.85 28.7 91.4 24.1 M60.2 93.95 L58.4 93.6 Q54.1 92.6 50.6 89.95 54.05 91.8 59.1 90.05 L59.35 90.05 59.6 89.8 Q65.55 84.0 65.5 77.3 69.95 80.05 71.95 82.85 76.45 89.85 60.2 93.95 M106.5 56.5 Q100.35 54.1 101.85 44.95 L101.95 44.75 103.65 42.15 103.5 41.95 106.0 41.95 106.35 42.3 Q110.1 48.6 106.5 56.5 M102.6 65.15 L102.6 63.8 100.5 67.35 Q96.95 66.55 93.25 69.15 L95.8 60.45 Q99.6 58.35 103.55 57.85 103.55 61.75 102.6 65.15 M79.5 71.7 Q82.4 74.6 79.5 78.95 75.85 78.1 71.4 75.05 75.65 72.05 79.5 71.7 M69.4 15.05 L69.15 15.2 69.4 15.05 M67.8 15.7 L67.75 15.75 67.7 15.85 66.2 18.85 Q61.25 27.95 54.8 30.1 L51.55 30.65 49.6 30.65 47.5 30.45 46.45 30.15 45.3 29.75 Q45.1 44.5 36.65 46.15 L36.4 46.1 Q35.5 46.3 35.05 47.15 33.5 48.4 32.75 51.65 31.7 53.4 31.4 55.1 L28.55 52.35 31.2 43.55 27.4 44.8 25.6 44.3 25.6 43.1 25.45 44.25 25.7 40.5 25.9 39.75 25.95 39.6 28.65 32.85 28.7 32.65 31.05 28.95 31.3 28.55 31.5 28.25 38.85 22.0 40.95 25.4 40.45 27.4 40.95 25.4 38.85 22.0 Q51.45 10.3 67.8 15.7 M72.3 21.0 L72.2 20.85 Q71.05 20.45 71.05 21.45 L71.7 22.05 72.25 21.85 72.35 21.4 72.3 21.0 M36.85 56.2 Q37.45 55.05 38.65 54.25 46.4 51.6 45.05 61.95 L43.7 63.25 45.05 61.95 48.15 60.55 48.95 60.15 49.1 60.1 49.2 60.15 Q55.7 64.15 57.3 68.9 56.95 74.85 55.45 78.15 L54.2 77.65 52.9 77.7 Q52.45 73.0 50.05 68.6 48.0 64.95 44.05 66.0 L42.1 66.0 41.75 67.2 41.75 66.0 42.1 66.0 Q42.65 64.45 43.7 63.25 40.9 63.15 38.95 61.2 36.9 59.15 36.85 56.2 M43.4 32.05 L43.7 31.4 43.6 31.0 43.5 30.85 Q41.95 30.8 41.5 32.3 41.25 33.0 41.25 34.6 L41.25 35.8 Q41.5 37.0 42.65 37.0 43.65 37.0 44.15 35.9 L44.5 34.6 44.15 33.5 Q43.7 32.75 43.0 32.8 L43.4 32.05 M40.45 27.4 Q44.6 29.55 45.0 31.8 L45.3 29.75 40.45 27.4 M42.05 38.55 L41.95 38.4 Q41.35 38.1 40.8 38.65 40.25 39.15 40.25 39.7 L40.9 40.4 41.6 39.75 42.1 38.95 42.05 38.55 M25.5 44.3 L25.45 44.3 25.45 44.25 25.5 44.3 M52.95 81.3 L52.95 81.0 53.1 81.2 52.95 81.3 M53.0 79.75 L52.95 78.85 53.1 79.05 53.0 79.75 M48.15 61.3 L48.15 60.55 48.15 61.3 M49.2 60.15 L48.95 60.15 49.2 60.15 M59.5 91.75 Q58.25 91.7 58.25 92.55 L58.35 93.05 59.45 93.15 60.35 93.1 Q60.7 93.0 60.7 92.5 60.7 91.8 59.5 91.75 M62.4 91.45 L62.6 91.95 Q62.9 92.35 63.45 92.35 L63.95 92.2 64.05 92.05 64.1 91.75 Q64.1 91.15 63.25 90.95 62.4 90.7 62.4 91.45 M67.45 90.2 Q68.2 89.45 68.2 88.8 68.2 86.7 65.95 87.35 63.65 88.0 63.65 89.45 L63.9 90.3 Q64.35 91.1 65.45 91.1 66.6 91.1 67.45 90.2"/><path fill="#40331e" stroke="none" d="M109.2 38.0 Q109.2 39.9 108.55 41.95 L108.3 41.95 107.45 41.3 Q106.4 39.05 106.7 37.45 106.4 39.05 107.45 41.3 L108.3 41.95 106.0 41.95 103.5 41.95 98.75 42.4 94.75 34.65 Q100.7 40.15 106.7 37.45 L109.15 38.0 109.2 38.0 M104.95 73.3 Q97.05 82.55 83.25 88.4 84.55 84.55 83.9 80.7 89.7 80.65 94.2 77.4 L94.4 78.15 Q94.4 78.75 93.65 79.2 98.7 79.45 104.95 73.3 M83.0 87.5 L78.7 83.65 79.0 83.4 79.25 83.0 79.2 82.6 79.1 82.45 Q78.15 82.15 77.9 82.6 L77.8 82.7 77.55 82.45 77.0 82.15 Q74.85 79.25 71.15 76.0 75.35 78.3 78.15 80.85 L78.25 80.9 Q81.7 84.05 83.0 87.5 M81.0 71.65 Q84.5 67.05 89.2 63.8 87.3 67.25 86.65 70.15 L82.35 75.5 81.0 71.65 M51.55 30.65 Q52.25 32.25 53.4 33.3 52.9 33.65 52.9 34.45 L53.0 35.1 Q53.9 35.25 54.2 35.5 L54.95 35.65 Q55.95 35.65 56.15 34.95 L58.2 35.4 58.15 35.75 58.25 36.25 59.0 36.35 Q59.9 36.35 59.9 35.7 L59.9 35.5 Q62.85 35.5 66.65 34.3 L66.65 34.35 64.9 35.65 64.8 35.7 Q62.0 37.3 59.0 36.9 L59.0 37.0 58.8 38.15 58.75 38.15 58.75 38.2 58.7 38.3 56.7 40.5 54.95 41.65 Q52.4 42.8 49.25 41.65 L49.2 41.55 48.1 41.1 48.1 41.15 48.15 41.15 48.15 41.2 48.55 42.2 48.9 43.6 Q49.4 47.2 46.55 51.15 L46.5 51.2 43.1 51.4 Q41.0 52.1 38.65 54.25 37.45 55.05 36.85 56.2 35.35 58.9 36.55 63.6 34.4 62.3 33.15 60.8 L32.9 60.5 32.8 60.4 32.8 57.45 Q36.0 50.1 42.8 47.15 L46.0 45.8 46.85 45.8 Q48.15 43.1 47.6 39.75 L47.95 40.7 46.9 37.1 46.65 36.3 45.3 29.75 46.45 30.15 47.1 30.35 47.5 30.45 49.6 30.65 51.55 30.65 M48.05 41.0 L48.1 41.1 48.1 41.05 48.05 41.0 M57.4 36.55 L59.0 36.9 57.4 36.55 M64.15 70.15 L64.25 70.65 68.25 73.85 Q64.6 73.75 63.2 76.45 L63.1 76.4 63.2 76.0 64.15 70.15 63.2 76.0 63.1 76.4 63.05 76.75 62.95 77.2 62.4 74.9 64.15 70.15"/><path fill="#573e19" stroke="none" d="M108.75 34.7 Q109.2 36.3 109.2 38.0 L109.15 38.0 106.7 37.45 Q106.95 35.7 108.75 34.7"/><path fill="#4b3d23" stroke="none" d="M83.25 88.4 Q77.45 92.85 69.9 93.85 72.85 92.1 74.8 90.5 L75.4 90.65 Q75.95 90.65 76.35 90.1 76.75 89.6 76.75 89.1 L76.75 89.05 77.9 89.2 78.85 88.85 Q79.45 88.5 79.45 88.2 79.45 86.8 77.9 87.3 L77.75 87.35 Q78.85 85.55 78.25 84.1 L78.2 83.95 77.0 82.15 77.55 82.45 77.8 82.7 77.85 82.75 77.8 82.7 77.9 82.6 77.85 82.75 Q77.75 82.9 77.8 83.1 L78.45 83.8 78.7 83.65 83.0 87.5 83.25 88.4 83.0 87.5 Q81.7 84.05 78.25 80.9 83.35 83.5 83.15 77.65 L83.05 77.4 82.35 75.5 86.65 70.15 Q86.05 72.95 86.65 75.15 88.3 77.2 90.15 78.2 90.4 77.0 92.25 76.85 93.7 76.75 94.2 77.4 89.7 80.65 83.9 80.7 84.55 84.55 83.25 88.4 M48.55 88.0 L48.05 87.05 51.05 86.85 51.2 86.75 51.05 86.85 48.05 87.05 45.45 82.0 Q46.9 84.6 51.2 86.75 L51.5 86.9 51.55 86.9 Q57.6 86.25 62.4 74.9 L62.95 77.2 Q60.65 86.6 55.95 88.65 52.8 90.0 48.55 88.0 M96.15 50.6 Q95.75 56.65 103.65 57.85 L103.55 57.85 Q99.6 58.35 95.8 60.45 L95.4 60.3 95.75 60.15 Q95.65 54.55 96.15 50.6 M83.9 80.7 L83.6 79.15 83.15 77.65 83.6 79.15 83.9 80.7 M90.7 75.95 L90.6 76.6 90.1 76.75 Q89.55 76.75 89.25 76.35 L89.05 75.85 Q89.05 75.2 89.9 75.25 90.7 75.3 90.7 75.95 M47.5 30.45 L47.1 30.35 46.45 30.15 47.5 30.45 M45.3 29.75 L45.0 31.8 Q44.6 29.55 40.45 27.4 L45.3 29.75 M27.4 44.8 L31.2 43.55 28.55 52.35 Q27.4 50.9 26.7 49.35 L27.4 44.8 M63.1 76.4 L63.2 76.45 63.05 76.75 63.1 76.4 M80.45 85.5 L80.35 85.4 79.4 85.4 Q79.05 85.5 79.05 85.95 79.05 86.45 79.15 86.4 L79.8 86.55 Q80.5 86.55 80.5 85.9 L80.45 85.5"/><path fill="#5c411a" stroke="none" d="M106.5 71.4 L104.95 73.3 Q98.7 79.45 93.65 79.2 94.4 78.75 94.4 78.15 L94.2 77.4 Q96.15 76.0 97.85 73.95 101.2 70.0 102.6 65.15 L102.6 68.15 Q104.6 69.2 106.5 71.4 M93.1 61.45 L86.65 70.15 Q87.3 67.25 89.2 63.8 L93.1 61.45 M70.5 75.65 L71.15 76.0 Q74.85 79.25 77.0 82.15 L67.3 76.45 63.2 76.45 Q64.6 73.75 68.25 73.85 L70.5 75.65 M43.1 51.4 L46.5 51.2 46.55 51.15 47.3 52.05 49.0 55.1 Q50.35 58.25 49.25 60.15 L49.1 60.1 48.95 60.15 48.15 60.55 Q47.85 54.75 43.1 51.4 M45.3 81.2 Q50.05 83.3 52.95 81.3 L52.6 83.9 Q52.25 85.6 51.2 86.75 46.9 84.6 45.45 82.0 L45.4 81.9 45.35 81.75 45.1 81.3 45.3 81.2 M41.5 72.5 Q41.9 71.15 43.6 70.6 46.4 72.15 45.85 75.85 45.55 78.0 43.5 77.1 42.6 76.7 42.1 75.9 L41.6 74.75 Q41.25 73.45 41.5 72.5 M51.35 58.9 Q54.85 57.65 58.8 61.25 64.0 65.95 64.15 70.15 L62.4 74.9 Q61.25 70.75 59.25 66.85 56.4 61.2 51.35 58.9"/><path fill="#957e59" stroke="none" d="M48.1 41.1 L48.05 41.0 48.1 41.05 48.1 41.1 M54.95 41.65 L56.7 40.5 56.55 40.65 54.95 41.65 M58.7 38.3 L58.75 38.2 58.75 38.25 58.7 38.3"/><path fill="#937544" stroke="none" d="M25.6 44.3 L27.4 44.8 26.7 49.35 Q25.85 47.55 25.55 45.65 L25.6 44.3 M25.55 44.3 L25.55 45.65 25.45 44.3 25.5 44.3 25.55 44.3 M44.55 80.85 L45.0 81.15 44.75 81.05 44.55 80.85"/><path fill="none" stroke="#000000" stroke-width="0.5" stroke-opacity="0.301960784314" d="M84.3 18.05 L84.4 17.45 84.4 17.0 84.15 16.45 Q83.55 16.0 81.8 16.85 L81.55 16.95 Q80.4 15.6 78.85 14.85 M73.9 23.05 L75.55 22.8 75.65 22.95 Q76.8 23.15 77.1 24.65 L77.15 24.75 77.2 25.05 M77.2 26.1 L77.15 26.85 77.1 27.3 Q77.6 27.8 78.55 27.05 L78.6 27.05 81.5 23.65 82.05 22.95 82.05 22.9 82.95 21.3 82.95 21.2 84.3 18.05 M82.05 22.95 L82.0 23.0 81.5 23.65 M91.4 24.1 L92.5 22.8 94.75 20.15 94.75 23.4 103.5 27.4 Q106.05 29.5 107.5 31.85 L108.4 33.65 108.75 34.7 Q109.2 36.3 109.2 38.0 109.2 39.9 108.55 41.95 112.15 46.4 110.85 52.75 110.3 55.4 108.95 56.95 L108.75 57.1 107.7 57.95 107.75 63.05 Q107.6 68.7 106.5 71.4 L104.95 73.3 Q97.05 82.55 83.25 88.4 77.45 92.85 69.9 93.85 L65.25 94.15 61.5 94.1 M58.4 93.6 Q54.1 92.6 50.6 89.95 L48.75 88.4 48.55 88.0 48.05 87.05 45.45 82.0 M98.75 42.4 L94.75 34.65 Q86.95 36.85 86.25 30.15 L91.4 24.1 M108.3 41.95 L108.55 41.95 M103.5 41.95 L98.75 42.4 Q98.05 43.9 96.15 50.6 M103.65 57.85 L104.2 57.8 106.0 57.75 107.7 57.95 M106.0 41.95 L103.5 41.95 M106.0 41.95 L108.3 41.95 M103.55 57.85 L103.65 57.85 M95.8 60.45 L95.4 60.3 93.1 61.45 M83.9 80.7 Q84.55 84.55 83.25 88.4 L83.0 87.5 M95.4 60.3 L95.75 60.15 Q95.65 54.55 96.15 50.6 M81.0 71.65 Q84.5 67.05 89.2 63.8 L93.1 61.45 M82.35 75.5 L83.05 77.4 83.15 77.65 83.6 79.15 83.9 80.7 M95.8 60.45 Q99.6 58.35 103.55 57.85 M82.35 75.5 L81.0 71.65 79.5 71.7 M71.4 75.05 L70.75 75.5 70.5 75.65 71.15 76.0 Q75.35 78.3 78.15 80.85 M68.95 15.15 L69.4 15.05 Q75.95 13.5 78.85 14.85 M67.85 15.7 L69.15 15.2 69.4 15.05 M67.85 15.7 L67.8 15.7 Q51.45 10.3 38.85 22.0 L31.5 28.25 31.3 28.55 M67.75 15.75 L67.85 15.7 M73.8 23.15 L73.85 23.05 73.9 23.05 M66.65 34.35 L66.7 34.3 68.5 32.45 Q70.3 30.25 72.0 27.0 L73.55 23.7 73.75 23.25 73.8 23.15 M75.65 22.95 L73.85 23.15 73.8 23.15 M51.55 30.65 L54.8 30.1 M49.6 30.65 L47.5 30.45 47.1 30.35 46.45 30.15 45.3 29.75 46.65 36.3 46.9 37.1 M32.8 60.4 L32.9 60.5 33.15 60.8 Q34.4 62.3 36.55 63.6 35.35 58.9 36.85 56.2 37.45 55.05 38.65 54.25 41.0 52.1 43.1 51.4 L46.5 51.2 46.55 51.15 Q49.4 47.2 48.9 43.6 M48.1 41.15 L48.1 41.1 49.2 41.55 M48.05 41.0 L48.1 41.05 48.1 41.1 M49.25 41.65 Q52.4 42.8 54.95 41.65 L56.7 40.5 58.7 38.3 58.75 38.2 58.75 38.15 58.8 38.15 M59.0 36.9 L57.4 36.55 M40.45 27.4 L40.95 25.4 38.85 22.0 M28.7 32.65 L28.65 32.85 25.95 39.6 25.9 39.75 25.7 40.5 25.45 44.25 25.6 43.1 25.6 44.3 25.55 45.65 Q25.85 47.55 26.7 49.35 M28.55 52.35 L31.4 55.1 Q31.7 53.4 32.75 51.65 33.5 48.4 35.05 47.15 M45.3 29.75 L40.45 27.4 M48.15 41.2 L48.2 41.25 48.15 41.15 M49.25 41.65 L48.2 41.25 48.9 43.55 48.9 43.6 M56.7 40.5 L56.55 40.65 54.95 41.65 M58.75 38.2 L58.75 38.25 58.7 38.3 M77.1 24.65 L77.2 26.1 77.2 25.05 M66.65 34.35 L64.9 35.65 64.8 35.7 Q62.05 37.4 59.0 37.0 M64.8 35.7 Q62.0 37.3 59.0 36.9 M25.45 44.3 L25.55 45.65 25.55 44.3 25.6 43.1 M25.45 44.3 L25.45 44.25 M25.95 39.6 Q26.7 36.4 28.65 32.85 M32.8 60.4 Q30.95 58.1 31.35 55.35 L31.35 55.2 Q26.2 51.1 25.55 45.65 M31.4 55.1 L31.4 55.25 Q31.0 58.0 32.8 60.4 M43.7 63.25 L45.05 61.95 M44.55 80.85 Q43.7 79.9 42.65 78.0 40.2 73.55 36.6 63.8 L36.55 63.6 36.5 63.7 36.6 63.85 Q41.75 77.85 44.55 80.85 L45.0 81.15 45.3 81.2 M42.1 66.0 L41.75 67.2 M41.7 67.5 Q41.2 69.7 41.5 72.5 M42.1 75.9 L42.65 78.0 M36.5 63.7 Q34.35 62.35 33.15 60.8 M64.15 70.15 L64.25 70.65 68.25 73.85 70.5 75.65 M51.35 58.9 Q54.85 57.65 58.8 61.25 64.0 65.95 64.15 70.15 L63.2 76.0 63.1 76.4 M46.55 51.15 L47.3 52.05 49.0 55.1 Q50.35 58.25 49.25 60.15 50.25 59.3 51.35 58.9 M49.2 60.15 L49.25 60.15 M62.95 77.2 L63.05 76.75 63.1 76.4 M48.15 60.55 L48.95 60.15 49.2 60.15 M48.15 60.55 L45.05 61.95 M42.1 66.0 Q42.65 64.45 43.7 63.25 M45.0 81.15 L44.75 81.05 44.55 80.85 M45.0 81.15 L45.1 81.3 45.35 81.75 M45.4 81.9 L45.45 82.0 M62.95 77.2 Q60.65 86.6 55.95 88.65 52.8 90.0 48.55 88.0 M71.4 75.05 Q75.65 72.05 79.5 71.7 M78.25 80.9 Q81.7 84.05 83.0 87.5"/><path fill="none" stroke="#000000" stroke-width="0.5" stroke-opacity="0.2" d="M48.05 87.05 Q47.35 86.8 46.85 86.35 M106.7 37.45 Q106.4 39.05 107.45 41.3 L108.3 41.95 M106.0 57.75 L106.5 56.5 Q110.1 48.6 106.35 42.3 L106.0 41.95 M108.75 34.7 Q106.95 35.7 106.7 37.45 M92.5 22.8 Q93.75 26.05 99.65 27.7 105.55 29.35 107.5 31.85 M102.6 65.15 Q101.2 70.0 97.85 73.95 96.15 76.0 94.2 77.4 89.7 80.65 83.9 80.7 M93.1 61.45 L86.65 70.15 82.35 75.5 M83.0 87.5 L78.7 83.65 77.85 82.75 77.8 82.7 77.55 82.45 77.0 82.15 67.3 76.45 63.2 76.45 M103.55 57.85 Q103.55 61.75 102.6 65.15 M36.85 56.2 Q36.9 59.15 38.95 61.2 40.9 63.15 43.7 63.25 M52.95 81.3 L52.95 81.0 M53.0 79.75 L52.95 78.85 M52.9 77.7 Q52.45 73.0 50.05 68.6 48.0 64.95 44.05 66.0 L42.1 66.0 M41.75 67.2 L41.7 67.5 M51.35 58.9 Q56.4 61.2 59.25 66.85 61.25 70.75 62.4 74.9 L62.95 77.2 M52.9 77.7 L52.95 78.85 M53.0 79.75 L52.95 81.0 M52.95 81.3 L52.6 83.9 Q52.25 85.6 51.2 86.75 L51.05 86.85 48.05 87.05 M48.15 60.55 L48.15 61.3 M43.1 51.4 Q47.85 54.75 48.15 60.55 M41.75 67.2 L41.75 66.0 42.1 66.0"/><path fill="none" stroke="#000000" stroke-width="0.5" stroke-opacity="0.101960784314" d="M54.8 30.1 Q61.25 27.95 66.2 18.85 L67.7 15.85 67.75 15.75"/><path fill="none" stroke="#00ff00" stroke-width="0.5" d="M45.35 81.75 L45.4 81.9"/><path fill="#77a849" stroke="none" d="M89.25 17.6 Q89.25 17.25 89.4 17.0 89.75 16.2 90.65 15.95 L92.3 16.1 Q93.25 16.5 93.6 17.3 99.75 29.8 85.15 34.4 L83.8 34.4 83.75 33.5 Q83.95 32.5 84.8 32.25 93.3 29.6 90.35 20.6 90.0 19.15 89.25 17.6"/><path fill="#537533" stroke="none" d="M90.35 20.6 Q93.3 29.6 84.8 32.25 83.95 32.5 83.75 33.5 L83.8 34.4 83.4 34.25 Q82.5 33.95 82.1 33.15 81.75 32.4 82.05 31.6 82.35 30.9 83.25 30.65 92.45 27.8 90.3 20.6 L90.35 20.6"/><path fill="#74a849" stroke="none" d="M89.25 17.6 Q90.0 19.15 90.35 20.6 L90.3 20.6 89.4 18.45 89.25 17.6"/><path fill="none" stroke="#000000" stroke-width="0.5" stroke-opacity="0.250980392157" d="M83.8 34.4 L85.15 34.4 Q99.75 29.8 93.6 17.3 93.25 16.5 92.3 16.1 L90.65 15.95 Q89.75 16.2 89.4 17.0 89.25 17.25 89.25 17.6 M83.8 34.4 L83.4 34.25 Q82.5 33.95 82.1 33.15 81.75 32.4 82.05 31.6 82.35 30.9 83.25 30.65 92.45 27.8 90.3 20.6 L89.4 18.45 89.25 17.6"/><path fill="#74a849" stroke="none" d="M37.45 64.45 Q37.6 52.1 47.15 51.75 48.0 51.75 48.55 50.85 L48.9 50.0 49.2 50.25 Q49.8 50.8 49.8 51.65 49.8 52.45 49.25 53.1 48.7 53.7 47.85 53.7 37.6 54.0 37.6 63.6 L37.45 64.45"/><path fill="#a9b850" stroke="none" d="M37.45 64.45 L37.05 65.0 Q36.45 65.6 35.6 65.6 34.8 65.6 34.2 65.05 33.6 64.45 33.6 63.6 33.5 50.1 47.75 49.7 48.4 49.7 48.9 50.0 L48.55 50.85 Q48.0 51.75 47.15 51.75 37.6 52.1 37.45 64.45"/><path fill="none" stroke="#000000" stroke-width="0.5" stroke-opacity="0.250980392157" d="M48.9 50.0 Q48.4 49.7 47.75 49.7 33.5 50.1 33.6 63.6 33.6 64.45 34.2 65.05 34.8 65.6 35.6 65.6 36.45 65.6 37.05 65.0 L37.45 64.45 M48.9 50.0 L49.2 50.25 Q49.8 50.8 49.8 51.65 49.8 52.45 49.25 53.1 48.7 53.7 47.85 53.7 37.6 54.0 37.6 63.6 L37.45 64.45"/><path fill="#77a849" stroke="none" d="M42.4 72.0 L42.0 72.55 Q41.4 73.15 40.55 73.15 39.75 73.15 39.15 72.6 38.55 72.0 38.55 71.15 38.45 57.65 52.7 57.25 53.35 57.25 53.85 57.55 L53.5 58.4 Q52.95 59.3 52.1 59.3 43.85 59.6 42.65 68.9 42.4 70.35 42.4 72.0"/><path fill="#537533" stroke="none" d="M42.65 68.9 Q43.85 59.6 52.1 59.3 52.95 59.3 53.5 58.4 L53.85 57.55 54.15 57.8 Q54.75 58.35 54.75 59.2 54.75 60.0 54.2 60.65 53.65 61.25 52.8 61.25 43.85 61.5 42.7 68.9 L42.65 68.9"/><path fill="#74a849" stroke="none" d="M42.4 72.0 Q42.4 70.35 42.65 68.9 L42.7 68.9 Q42.55 69.95 42.55 71.15 L42.4 72.0"/><path fill="none" stroke="#000000" stroke-width="0.5" stroke-opacity="0.250980392157" d="M53.85 57.55 Q53.35 57.25 52.7 57.25 38.45 57.65 38.55 71.15 38.55 72.0 39.15 72.6 39.75 73.15 40.55 73.15 41.4 73.15 42.0 72.55 L42.4 72.0 M53.85 57.55 L54.15 57.8 Q54.75 58.35 54.75 59.2 54.75 60.0 54.2 60.65 53.65 61.25 52.8 61.25 43.85 61.5 42.7 68.9 42.55 69.95 42.55 71.15 L42.4 72.0"/><path fill="#77a849" stroke="none" d="M70.6 75.65 L70.2 75.15 Q69.7 74.45 69.9 73.6 70.05 72.8 70.75 72.4 71.45 71.9 72.3 72.1 85.45 74.95 82.75 88.9 L82.2 90.0 81.5 89.45 Q80.7 88.7 80.9 87.85 82.35 79.75 73.6 76.6 72.25 76.0 70.6 75.65"/><path fill="#537533" stroke="none" d="M73.6 76.6 Q82.35 79.75 80.9 87.85 80.7 88.7 81.5 89.45 L82.2 90.0 81.9 90.2 Q81.25 90.65 80.4 90.5 79.65 90.3 79.15 89.65 78.65 89.0 78.85 88.15 80.5 79.35 73.55 76.65 L73.6 76.6"/><path fill="#74a849" stroke="none" d="M70.6 75.65 Q72.25 76.0 73.6 76.6 L73.55 76.65 71.4 76.0 70.6 75.65"/><path fill="none" stroke="#000000" stroke-width="0.5" stroke-opacity="0.250980392157" d="M82.2 90.0 L82.75 88.9 Q85.45 74.95 72.3 72.1 71.45 71.9 70.75 72.4 70.05 72.8 69.9 73.6 69.7 74.45 70.2 75.15 L70.6 75.65 M82.2 90.0 L81.9 90.2 Q81.25 90.65 80.4 90.5 79.65 90.3 79.15 89.65 78.65 89.0 78.85 88.15 80.5 79.35 73.55 76.65 L71.4 76.0 70.6 75.65"/><path fill="#77a849" stroke="none" d="M92.75 62.1 L92.35 61.6 Q91.85 60.9 92.05 60.05 92.2 59.25 92.9 58.85 93.6 58.35 94.45 58.55 107.6 61.4 104.9 75.35 L104.35 76.45 103.65 75.9 Q102.85 75.15 103.05 74.3 104.5 66.2 95.75 63.05 94.4 62.45 92.75 62.1"/><path fill="#537533" stroke="none" d="M95.75 63.05 Q104.5 66.2 103.05 74.3 102.85 75.15 103.65 75.9 L104.35 76.45 104.05 76.65 Q103.4 77.1 102.55 76.95 101.8 76.75 101.3 76.1 100.8 75.45 101.0 74.6 102.65 65.8 95.7 63.1 L95.75 63.05"/><path fill="#74a849" stroke="none" d="M92.75 62.1 Q94.4 62.45 95.75 63.05 L95.7 63.1 93.55 62.45 Q93.1 62.35 92.75 62.1"/><path fill="none" stroke="#000000" stroke-width="0.5" stroke-opacity="0.250980392157" d="M104.35 76.45 L104.9 75.35 Q107.6 61.4 94.45 58.55 93.6 58.35 92.9 58.85 92.2 59.25 92.05 60.05 91.85 60.9 92.35 61.6 L92.75 62.1 M104.35 76.45 L104.05 76.65 Q103.4 77.1 102.55 76.95 101.8 76.75 101.3 76.1 100.8 75.45 101.0 74.6 102.65 65.8 95.7 63.1 L93.55 62.45 Q93.1 62.35 92.75 62.1"/><path fill="#77a849" stroke="none" d="M91.65 93.8 L91.7 93.85 91.65 94.2 Q100.9 87.05 104.65 81.65 109.15 75.25 107.8 71.65 106.5 68.0 104.0 66.95 101.55 66.0 98.75 68.75 L91.5 93.6 91.65 93.65 91.65 93.8"/><path fill="#537533" stroke="none" d="M98.75 68.75 Q96.15 61.85 91.85 65.15 87.4 68.7 86.6 76.45 85.9 83.85 91.5 93.6 L98.75 68.75"/><path fill="none" stroke="#000000" stroke-width="0.5" stroke-opacity="0.301960784314" d="M91.65 93.8 L91.7 93.85 91.65 94.2 Q100.9 87.05 104.65 81.65 109.15 75.25 107.8 71.65 106.5 68.0 104.0 66.95 101.55 66.0 98.75 68.75 96.15 61.85 91.85 65.15 87.4 68.7 86.6 76.45 85.9 83.85 91.5 93.6 L91.65 93.8 91.65 93.65 91.5 93.6 98.75 68.75"/><path fill="#537533" stroke="none" d="M126.6 91.05 Q113.1 90.35 106.1 84.85 98.8 79.0 98.05 72.25 97.5 65.7 106.25 67.55 L126.6 91.05"/><path fill="#77a849" stroke="none" d="M126.6 91.05 L106.25 67.55 Q105.25 62.95 107.85 61.05 110.45 59.3 115.05 60.35 117.15 60.75 119.0 62.9 L118.2 63.65 Q118.05 65.05 119.3 66.0 120.6 67.1 121.25 66.0 L122.4 68.4 Q120.2 68.2 117.7 72.0 118.65 79.5 125.0 76.1 126.55 82.35 127.25 91.35 L127.0 91.1 126.9 91.1 Q126.75 90.9 126.65 91.0 L126.6 91.05"/><path fill="none" stroke="#000000" stroke-width="0.5" stroke-opacity="0.301960784314" d="M106.25 67.55 Q97.5 65.7 98.05 72.25 98.8 79.0 106.1 84.85 113.1 90.35 126.6 91.05 L106.25 67.55 Q105.25 62.95 107.85 61.05 110.45 59.3 115.05 60.35 117.15 60.75 119.0 62.9 L118.2 63.65 Q118.05 65.05 119.3 66.0 120.6 67.1 121.25 66.0 L122.4 68.4 Q120.2 68.2 117.7 72.0 118.65 79.5 125.0 76.1 126.55 82.35 127.25 91.35 L127.0 91.1 126.9 91.1 126.6 91.05 126.65 91.0 Q126.75 90.9 126.9 91.1"/><path fill="#77a849" stroke="none" d="M117.1 51.6 L117.15 51.6 117.4 51.5 Q114.7 60.05 111.75 64.2 108.3 69.1 105.3 69.05 102.3 69.05 100.95 67.55 99.6 66.0 100.8 63.3 L116.95 51.55 117.0 51.65 117.1 51.6"/><path fill="#537533" stroke="none" d="M100.8 63.3 Q95.15 63.15 96.4 59.15 97.85 55.05 103.25 52.45 108.4 50.0 116.95 51.55 L100.8 63.3"/><path fill="none" stroke="#000000" stroke-width="0.5" stroke-opacity="0.301960784314" d="M117.1 51.6 L117.15 51.6 117.4 51.5 Q114.7 60.05 111.75 64.2 108.3 69.1 105.3 69.05 102.3 69.05 100.95 67.55 99.6 66.0 100.8 63.3 95.15 63.15 96.4 59.15 97.85 55.05 103.25 52.45 108.4 50.0 116.95 51.55 L117.1 51.6 117.0 51.65 116.95 51.55 100.8 63.3"/><path fill="#a9b850" stroke="none" d="M98.0 -2.7 L96.8 -3.55 Q94.55 -4.4 92.55 -3.3 L92.45 -3.25 Q89.7 -1.75 88.1 2.4 87.65 3.7 87.55 5.5 86.35 7.3 85.55 9.4 L84.15 13.1 83.95 12.05 84.0 12.05 Q82.8 4.85 84.35 0.95 86.6 -4.85 90.6 -6.8 94.3 -8.75 98.25 -7.25 100.95 -6.25 102.45 -3.2 L98.0 -2.7"/><path fill="#537533" stroke="none" d="M98.0 -2.7 L102.45 -3.2 102.45 -3.15 102.5 -3.1 Q104.45 0.65 102.6 5.5 100.9 10.0 95.85 13.6 92.45 16.0 90.25 17.85 L89.9 18.1 89.95 18.15 86.9 20.9 89.95 18.15 90.05 18.75 Q90.0 19.55 89.5 20.15 88.85 20.65 88.05 20.75 L87.3 20.6 86.9 20.9 86.25 21.1 86.2 21.1 Q85.3 21.1 84.7 20.55 84.05 20.0 84.05 19.2 84.0 18.35 84.55 17.75 L85.1 17.15 Q84.65 15.6 84.15 13.1 L85.55 9.4 Q86.35 7.3 87.55 5.5 87.35 8.05 87.9 11.4 L88.45 14.2 89.3 13.5 Q91.15 12.05 93.55 10.35 97.45 7.55 98.85 4.05 100.0 1.0 98.9 -1.35 L98.9 -1.4 98.0 -2.7 M89.3 13.5 L84.55 17.75 89.3 13.5"/><path fill="none" stroke="#000000" stroke-width="0.5" stroke-opacity="0.301960784314" d="M87.55 5.5 Q87.65 3.7 88.1 2.4 89.7 -1.75 92.45 -3.25 L92.55 -3.3 Q94.55 -4.4 96.8 -3.55 L98.0 -2.7 M102.45 -3.2 Q100.95 -6.25 98.25 -7.25 94.3 -8.75 90.6 -6.8 86.6 -4.85 84.35 0.95 82.8 4.85 84.0 12.05 L83.95 12.05 84.15 13.1 Q84.65 15.6 85.1 17.15 L84.55 17.75 89.3 13.5 Q91.15 12.05 93.55 10.35 97.45 7.55 98.85 4.05 100.0 1.0 98.9 -1.35 L98.9 -1.4 98.0 -2.7 M87.55 5.5 Q87.35 8.05 87.9 11.4 L88.45 14.2 89.3 13.5 M89.95 18.15 L89.9 18.1 90.25 17.85 Q92.45 16.0 95.85 13.6 100.9 10.0 102.6 5.5 104.45 0.65 102.5 -3.1 L102.45 -3.15 102.45 -3.2 M84.55 17.75 Q84.0 18.35 84.05 19.2 84.05 20.0 84.7 20.55 85.3 21.1 86.2 21.1 L86.25 21.1 86.9 20.9 89.95 18.15 90.25 17.85 M86.9 20.9 L87.3 20.6 88.05 20.75 Q88.85 20.65 89.5 20.15 90.0 19.55 90.05 18.75 L89.95 18.15"/><path fill="#77a849" stroke="none" d="M84.75 15.55 Q84.75 15.2 84.9 14.95 85.25 14.15 86.15 13.9 L87.8 14.05 Q88.75 14.45 89.1 15.25 95.25 27.75 80.65 32.35 L79.3 32.35 79.25 31.45 Q79.45 30.45 80.3 30.2 88.8 27.55 85.85 18.55 85.5 17.1 84.75 15.55"/><path fill="#537533" stroke="none" d="M85.85 18.55 Q88.8 27.55 80.3 30.2 79.45 30.45 79.25 31.45 L79.3 32.35 78.9 32.2 Q78.0 31.9 77.6 31.1 77.25 30.35 77.55 29.55 77.85 28.85 78.75 28.6 87.95 25.75 85.8 18.55 L85.85 18.55"/><path fill="#74a849" stroke="none" d="M84.75 15.55 Q85.5 17.1 85.85 18.55 L85.8 18.55 84.9 16.4 84.75 15.55"/><path fill="none" stroke="#000000" stroke-width="0.5" stroke-opacity="0.250980392157" d="M79.3 32.35 L80.65 32.35 Q95.25 27.75 89.1 15.25 88.75 14.45 87.8 14.05 L86.15 13.9 Q85.25 14.15 84.9 14.95 84.75 15.2 84.75 15.55 M79.3 32.35 L78.9 32.2 Q78.0 31.9 77.6 31.1 77.25 30.35 77.55 29.55 77.85 28.85 78.75 28.6 87.95 25.75 85.8 18.55 L84.9 16.4 84.75 15.55"/><path fill="#77a849" stroke="none" d="M35.9 24.5 L35.45 24.05 Q34.9 23.3 35.1 22.35 35.3 21.45 36.0 20.85 36.75 20.2 37.6 20.25 51.55 20.9 48.8 36.85 L48.2 38.1 47.4 37.65 Q46.6 37.0 46.8 36.05 48.3 26.85 39.05 24.95 L35.9 24.5"/><path fill="#537533" stroke="none" d="M39.05 24.95 Q48.3 26.85 46.8 36.05 46.6 37.0 47.4 37.65 L48.2 38.1 47.85 38.45 Q47.15 39.05 46.3 39.0 45.45 38.95 44.95 38.35 44.4 37.7 44.6 36.75 46.35 26.75 39.0 25.0 L39.05 24.95"/><path fill="#74a849" stroke="none" d="M35.9 24.5 L39.05 24.95 39.0 25.0 36.7 24.75 35.9 24.5"/><path fill="none" stroke="#000000" stroke-width="0.5" stroke-opacity="0.250980392157" d="M48.2 38.1 L48.8 36.85 Q51.55 20.9 37.6 20.25 36.75 20.2 36.0 20.85 35.3 21.45 35.1 22.35 34.9 23.3 35.45 24.05 L35.9 24.5 M48.2 38.1 L47.85 38.45 Q47.15 39.05 46.3 39.0 45.45 38.95 44.95 38.35 44.4 37.7 44.6 36.75 46.35 26.75 39.0 25.0 L36.7 24.75 35.9 24.5"/><path fill="#77a849" stroke="none" d="M77.65 14.45 L77.6 13.8 Q77.7 13.05 78.45 12.5 79.15 12.0 80.1 12.0 81.0 12.05 81.65 12.7 91.7 22.35 79.55 31.6 L78.35 32.15 78.0 31.3 Q77.8 30.3 78.55 29.8 85.5 24.35 79.7 16.85 L77.65 14.45"/><path fill="#537533" stroke="none" d="M79.7 16.85 Q85.5 24.35 78.55 29.8 77.8 30.3 78.0 31.3 L78.35 32.15 77.85 32.1 Q76.95 32.1 76.3 31.5 75.75 30.9 75.7 30.1 75.75 29.3 76.5 28.75 84.1 23.0 79.65 16.9 L79.7 16.85"/><path fill="#74a849" stroke="none" d="M77.65 14.45 L79.7 16.85 79.65 16.9 78.15 15.2 77.65 14.45"/><path fill="none" stroke="#000000" stroke-width="0.5" stroke-opacity="0.250980392157" d="M78.35 32.15 L79.55 31.6 Q91.7 22.35 81.65 12.7 81.0 12.05 80.1 12.0 79.15 12.0 78.45 12.5 77.7 13.05 77.6 13.8 L77.65 14.45 M78.35 32.15 L77.85 32.1 Q76.95 32.1 76.3 31.5 75.75 30.9 75.7 30.1 75.75 29.3 76.5 28.75 84.1 23.0 79.65 16.9 L78.15 15.2 77.65 14.45"/><path fill="#77a849" stroke="none" d="M67.0 15.1 L66.75 14.45 Q66.6 13.65 67.2 12.95 67.7 12.25 68.6 12.05 L70.3 12.25 Q82.65 18.75 73.55 31.0 L72.5 31.85 71.95 31.1 Q71.5 30.25 72.05 29.5 77.3 22.35 69.65 16.8 L67.0 15.1"/><path fill="#537533" stroke="none" d="M69.65 16.8 Q77.3 22.35 72.05 29.5 71.5 30.25 71.95 31.1 L72.5 31.85 72.1 31.95 70.4 31.8 Q69.7 31.4 69.45 30.6 69.25 29.85 69.85 29.15 75.55 21.4 69.6 16.85 L69.65 16.8"/><path fill="#74a849" stroke="none" d="M67.0 15.1 L69.65 16.8 69.6 16.85 67.65 15.6 67.0 15.1"/><path fill="none" stroke="#000000" stroke-width="0.5" stroke-opacity="0.250980392157" d="M72.5 31.85 L73.55 31.0 Q82.65 18.75 70.3 12.25 L68.6 12.05 Q67.7 12.25 67.2 12.95 66.6 13.65 66.75 14.45 L67.0 15.1 M72.5 31.85 L72.1 31.95 70.4 31.8 Q69.7 31.4 69.45 30.6 69.25 29.85 69.85 29.15 75.55 21.4 69.6 16.85 L67.65 15.6 67.0 15.1"/></g><g id="c11"><g><use transform="matrix(1.0,0.0,0.0,1.0,0.0,0.0)" xlink:href="#c10"/></g></g><g id="c12"><path fill="#ffffff" fill-opacity="0.301960784314" d="M33.25 35.7 L35.55 35.7 33.2 37.75 Q32.75 39.95 31.65 42.05 30.5 44.3 28.9 45.8 L28.2 52.15 27.1 47.3 Q24.45 49.0 22.55 48.0 20.5 47.1 20.4 44.05 20.35 42.1 21.0 40.05 20.9 36.65 18.15 35.0 L23.65 35.15 Q25.0 33.5 26.55 32.5 29.15 30.9 31.15 31.7 33.05 32.55 33.3 35.4 L33.25 35.7 M29.5 35.6 Q28.45 35.05 27.15 35.85 25.85 36.75 24.9 38.45 24.0 40.1 24.1 41.65 24.15 43.1 25.1 43.6 26.05 44.1 27.45 43.2 28.7 42.35 29.65 40.75 30.5 39.0 30.45 37.45 30.45 35.95 29.5 35.6"/><path fill="#ffffff" stroke="none" d="M29.5 35.6 Q30.45 35.95 30.45 37.45 30.5 39.0 29.65 40.75 28.7 42.35 27.45 43.2 26.05 44.1 25.1 43.6 24.15 43.1 24.1 41.65 24.0 40.1 24.9 38.45 25.85 36.75 27.15 35.85 28.45 35.05 29.5 35.6"/><path fill="#ffffff" stroke="none" d="M28.75 39.25 L29.3 46.25 25.75 41.0 16.2 47.1 25.75 39.05 19.95 15.0 28.3 36.9 43.8 27.0 28.75 39.25"/></g><g id="c13"><g><use transform="matrix(1.03434753418,0.0,0.0,1.13586425781,-11.6,8.75)" xlink:href="#c11"/></g><g><use transform="matrix(1.0,0.0,0.0,1.0,0.0,0.0)" xlink:href="#c12"/></g></g><g id="c14"><g><use transform="matrix(1.0,0.0,0.0,1.0,6.3,53.35)" xlink:href="#c9"/></g><g><use transform="matrix(-0.146041870117,0.0488891601562,0.0616760253906,0.140441894531,33.05,63.95)" xlink:href="#c13"/></g><g><use transform="matrix(0.141098022461,-0.0378112792969,0.111373901367,0.225646972656,27.2,74.05)" filter="url(#filter14)" xlink:href="#c6"/></g></g><filter id="filter14"><feColorMatrix in="SourceGraphic" type="matrix" values="1.0 0.0 0.0 0.0 0.0 0.0 1.0 0.0 0.0 0.0 0.0 0.0 1.0 0.0 0.0 0.0 0.0 0.0 0.23046875 0.0" result="cxform"/><feComposite operator="in" in2="SourceGraphic" result="color-xform"/></filter></defs><g><g><use transform="matrix(1.0,0.0,0.0,1.0,0.0,0.0)" xlink:href="#c1"/></g><g><use transform="matrix(1.15496826172,0.0,0.0,1.15496826172,-1.5,-57.15)" xlink:href="#c14"/></g></g></svg>