<?xml version='1.0' encoding='UTF-8'?>
<svg xmlns:xlink="http://www.w3.org/1999/xlink" xmlns="http://www.w3.org/2000/svg" version="1.1" width="60px" height="60px" viewBox="0.0 0.0 60.0 60.0"><defs><radialGradient gradientUnits="userSpaceOnUse" r="819.2" cx="0" cy="0" spreadMethod="pad" gradientTransform="matrix(0.0240325927734,0.0,0.0,0.0112762451172,19.5,9.15)" id="gradient1"><stop offset="0.0" stop-opacity="0.498039215686"/><stop offset="1.0" stop-opacity="0.0"/></radialGradient><g id="c1"><path stroke="none" fill="url(#gradient1)" d="M39.05 9.2 Q39.05 13.0 33.35 15.65 27.65 18.35 19.55 18.35 11.45 18.35 5.75 15.65 0.0 13.0 0.0 9.2 0.0 5.4 5.75 2.7 11.45 0.0 19.55 0.0 27.65 0.0 33.35 2.7 39.05 5.4 39.05 9.2"/></g><radialGradient gradientUnits="userSpaceOnUse" r="819.2" cx="0" cy="0" spreadMethod="pad" gradientTransform="matrix(0.0377349853516,-0.0343933105469,0.0250091552734,0.0274353027344,25.3,-0.45)" id="gradient2"><stop offset="0.545098039216" stop-color="#e7dfab"/><stop offset="1.0" stop-color="#ab9749"/></radialGradient><g id="c2"><path fill="#ab9749" stroke="none" d="M29.4 0.0 Q33.55 -0.6 35.05 1.45 36.55 3.5 36.2 7.05 31.4 9.6 29.6 14.95 L29.15 16.55 Q27.6 23.15 28.25 27.6 L28.25 27.75 Q28.5 30.8 28.0 32.5 27.5 34.25 26.55 35.5 24.3 38.4 20.5 39.65 17.35 40.65 13.2 40.55 9.95 40.45 7.2 38.55 5.35 37.25 3.75 35.1 L2.05 32.5 Q0.5 29.85 0.15 26.75 L2.85 27.2 10.35 27.55 Q9.0 24.25 8.25 21.4 L9.75 22.05 8.25 21.4 Q5.9 12.25 9.6 6.9 10.45 6.4 11.3 6.0 6.65 12.75 9.75 22.05 10.45 24.3 11.65 26.65 L10.85 27.5 10.5 27.95 10.25 28.2 Q5.65 28.55 2.85 27.2 5.65 28.55 10.25 28.2 L10.5 27.95 10.85 27.5 11.65 26.65 12.0 27.35 Q15.6 26.9 18.45 25.45 20.7 24.3 22.5 22.6 20.55 18.75 19.65 14.75 21.05 17.9 23.55 21.5 25.7 19.1 27.1 15.7 L28.05 13.6 Q29.6 10.0 31.2 7.2 28.3 5.2 28.1 1.7 L29.4 0.0 M20.7 3.75 L21.7 3.7 22.75 3.65 Q19.65 6.1 18.2 9.65 18.0 8.1 18.2 6.65 18.0 8.1 18.2 9.65 15.9 15.1 17.45 23.15 15.35 17.6 16.45 11.7 17.0 8.7 18.2 6.65 19.1 5.1 20.7 3.75 M26.5 2.75 L27.55 2.15 Q25.1 6.5 25.7 10.4 23.95 6.75 26.5 2.75 M29.6 14.95 L28.05 13.6 29.6 14.95 M28.25 27.75 L23.55 21.5 28.25 27.75 M20.5 39.65 Q15.0 33.05 12.0 27.35 15.0 33.05 20.5 39.65 M7.2 38.55 Q7.1 36.9 7.3 35.4 L3.75 35.1 7.3 35.4 Q7.8 31.45 10.25 28.2 7.8 31.45 7.3 35.4 7.1 36.9 7.2 38.55 M26.55 35.5 Q21.05 30.65 18.45 25.45 21.05 30.65 26.55 35.5"/><path stroke="none" fill="url(#gradient2)" d="M0.15 26.75 L0.0 24.85 Q-0.05 20.95 1.6 16.5 L3.1 13.4 3.2 13.25 Q5.6 9.25 9.6 6.9 5.9 12.25 8.25 21.4 9.0 24.25 10.35 27.55 L2.85 27.2 Q1.05 26.35 0.0 24.85 1.05 26.35 2.85 27.2 L0.15 26.75 M11.3 6.0 L11.55 5.9 Q15.5 4.15 20.7 3.75 19.1 5.1 18.2 6.65 17.0 8.7 16.45 11.7 15.35 17.6 17.45 23.15 15.9 15.1 18.2 9.65 19.65 6.1 22.75 3.65 24.95 3.45 26.5 2.75 23.95 6.75 25.7 10.4 25.1 6.5 27.55 2.15 L27.8 1.95 28.1 1.7 Q28.3 5.2 31.2 7.2 29.6 10.0 28.05 13.6 L27.1 15.7 Q25.7 19.1 23.55 21.5 21.05 17.9 19.65 14.75 18.5 12.0 18.2 9.65 18.5 12.0 19.65 14.75 20.55 18.75 22.5 22.6 20.7 24.3 18.45 25.45 L17.45 23.15 18.45 25.45 Q15.6 26.9 12.0 27.35 L11.65 26.65 Q10.45 24.3 9.75 22.05 6.65 12.75 11.3 6.0 M28.05 13.6 Q26.45 12.05 25.7 10.4 26.45 12.05 28.05 13.6 M3.1 13.4 Q2.9 18.65 8.25 21.4 2.9 18.65 3.1 13.4"/><path fill="none" stroke="#000000" stroke-width="0.5" stroke-opacity="0.301960784314" d="M36.2 7.05 Q31.4 9.6 29.6 14.95 L29.15 16.55 Q27.6 23.15 28.25 27.6 L28.25 27.75 Q28.5 30.8 28.0 32.5 27.5 34.25 26.55 35.5 24.3 38.4 20.5 39.65 17.35 40.65 13.2 40.55 9.95 40.45 7.2 38.55 5.35 37.25 3.75 35.1 L2.05 32.5 Q0.5 29.85 0.15 26.75 L0.0 24.85 Q-0.05 20.95 1.6 16.5 L3.1 13.4 M3.2 13.25 Q5.6 9.25 9.6 6.9 10.45 6.4 11.3 6.0 M11.55 5.9 Q15.5 4.15 20.7 3.75 L21.7 3.7 22.75 3.65 Q24.95 3.45 26.5 2.75 L27.55 2.15 27.8 1.95 28.1 1.7 29.4 0.0"/><path fill="none" stroke="#000000" stroke-width="0.5" stroke-opacity="0.301960784314" d="M3.1 13.4 L3.2 13.25 M11.3 6.0 L11.55 5.9 M25.7 10.4 Q26.45 12.05 28.05 13.6 L29.6 14.95 M26.5 2.75 Q23.95 6.75 25.7 10.4 M23.55 21.5 L28.25 27.75 M18.2 6.65 Q18.0 8.1 18.2 9.65 18.5 12.0 19.65 14.75 21.05 17.9 23.55 21.5 M18.2 6.65 Q17.0 8.7 16.45 11.7 15.35 17.6 17.45 23.15 L18.45 25.45 Q21.05 30.65 26.55 35.5 M9.75 22.05 L8.25 21.4 Q2.9 18.65 3.1 13.4 M2.85 27.2 Q5.65 28.55 10.25 28.2 L10.5 27.95 10.85 27.5 11.65 26.65 Q10.45 24.3 9.75 22.05 6.65 12.75 11.3 6.0 M12.0 27.35 Q15.0 33.05 20.5 39.65 M11.65 26.65 L12.0 27.35 M0.0 24.85 Q1.05 26.35 2.85 27.2 M3.75 35.1 L7.3 35.4 Q7.8 31.45 10.25 28.2 M7.3 35.4 Q7.1 36.9 7.2 38.55 M20.7 3.75 Q19.1 5.1 18.2 6.65"/></g><g id="c3"><path fill="#78f5f5" fill-opacity="0.2" d="M39.85 9.2 L37.55 10.05 37.5 10.05 Q33.05 12.45 31.4 17.45 L31.0 18.95 Q29.45 25.35 30.05 29.65 L30.05 29.7 Q30.35 33.1 29.8 34.95 29.2 36.9 28.15 38.3 23.9 43.95 14.1 43.65 11.75 43.6 9.65 42.65 L9.6 42.8 9.6 42.75 9.2 42.75 9.65 42.65 6.95 41.05 6.95 41.0 Q5.3 39.75 3.9 37.85 L2.15 35.2 1.1 33.05 1.05 33.05 1.05 32.45 Q0.5 31.8 0.3 30.1 L0.1 29.1 0.0 27.05 Q-0.05 23.0 1.65 18.4 2.3 16.65 3.2 15.15 5.35 11.45 8.75 9.1 L8.7 9.05 8.85 9.05 11.85 7.35 Q16.0 5.45 21.55 5.05 L22.6 5.0 23.6 4.9 Q25.6 4.75 27.0 4.1 L27.9 3.6 28.15 3.4 28.35 3.2 29.5 1.75 30.35 0.0 Q36.4 -1.15 37.95 0.35 40.4 2.1 39.85 9.2 M8.85 9.05 L9.65 9.05 9.65 8.9 8.85 9.05"/><path fill="none" stroke="#ffffff" stroke-width="0.5" stroke-opacity="0.219607843137" d="M39.85 9.2 L37.55 10.05 37.5 10.05 Q33.05 12.45 31.4 17.45 L31.0 18.95 Q29.45 25.35 30.05 29.65 L30.05 29.7 Q30.35 33.1 29.8 34.95 29.2 36.9 28.15 38.3 23.9 43.95 14.1 43.65 11.75 43.6 9.65 42.65 L9.6 42.8 M6.95 41.0 Q5.3 39.75 3.9 37.85 L2.15 35.2 1.1 33.05 1.05 33.05 M0.3 30.1 L0.1 29.1 0.0 27.05 Q-0.05 23.0 1.65 18.4 2.3 16.65 3.2 15.15 5.35 11.45 8.75 9.1 L8.7 9.05 M8.85 9.05 L11.85 7.35 Q16.0 5.45 21.55 5.05 L22.6 5.0 23.6 4.9 Q25.6 4.75 27.0 4.1 L27.9 3.6 28.15 3.4 28.35 3.2 29.5 1.75 30.35 0.0"/></g><radialGradient gradientUnits="userSpaceOnUse" r="819.2" cx="0" cy="0" spreadMethod="pad" gradientTransform="matrix(0.0377349853516,-0.0343933105469,0.0250091552734,0.0274353027344,-4.05,12.75)" id="gradient3"><stop offset="0.545098039216" stop-color="#e7dfab"/><stop offset="1.0" stop-color="#ab9749"/></radialGradient><g id="c4"><path stroke="none" fill="url(#gradient3)" d="M0.05 13.2 Q1.05 11.4 2.05 8.3 L2.3 7.5 2.3 7.4 Q4.1 1.45 8.55 0.35 L9.2 0.2 Q14.25 -0.75 17.2 2.95 19.6 6.1 18.95 9.75 18.6 11.55 17.6 13.45 17.0 8.95 11.85 10.3 10.55 10.65 9.25 11.5 9.65 9.65 10.55 8.1 L16.3 7.85 Q17.7 8.55 18.95 9.75 17.7 8.55 16.3 7.85 14.05 6.7 11.3 6.95 13.0 4.7 15.75 3.35 L17.2 2.95 15.75 3.35 Q12.0 4.6 9.95 7.15 8.2 9.2 7.65 12.15 L7.55 12.8 6.85 13.5 Q4.15 12.25 2.6 9.15 L2.3 7.4 2.6 9.15 Q3.4 12.65 5.9 14.55 4.3 16.35 2.75 18.95 L2.35 19.6 Q-0.4 18.1 0.05 13.2 M7.65 12.15 Q4.5 3.35 9.2 0.2 4.5 3.35 7.65 12.15"/><path fill="#ab9749" stroke="none" d="M17.6 13.45 L17.3 13.9 Q16.35 15.4 14.3 16.75 12.6 17.9 10.15 18.95 L6.9 20.2 6.85 20.25 Q4.0 20.5 2.35 19.6 L2.75 18.95 Q4.3 16.35 5.9 14.55 L7.4 15.45 Q7.35 14.55 7.45 13.75 L7.55 12.8 7.45 13.75 Q7.35 14.55 7.4 15.45 L8.6 16.0 Q12.6 13.9 17.3 13.9 12.6 13.9 8.6 16.0 L7.4 15.45 5.9 14.55 Q3.4 12.65 2.6 9.15 4.15 12.25 6.85 13.5 L7.55 12.8 7.65 12.15 Q8.2 9.2 9.95 7.15 L11.3 6.95 9.95 7.15 Q12.0 4.6 15.75 3.35 13.0 4.7 11.3 6.95 14.05 6.7 16.3 7.85 L10.55 8.1 Q9.65 9.65 9.25 11.5 10.55 10.65 11.85 10.3 17.0 8.95 17.6 13.45 M14.3 16.75 Q11.0 16.8 8.6 16.0 11.0 16.8 14.3 16.75"/><path fill="none" stroke="#000000" stroke-width="0.5" stroke-opacity="0.301960784314" d="M6.85 20.25 Q4.0 20.5 2.35 19.6 -0.4 18.1 0.05 13.2 M16.3 7.85 Q17.7 8.55 18.95 9.75 M11.3 6.95 Q14.05 6.7 16.3 7.85 M11.3 6.95 L9.95 7.15 Q8.2 9.2 7.65 12.15 L7.55 12.8 7.45 13.75 Q7.35 14.55 7.4 15.45 L8.6 16.0 Q12.6 13.9 17.3 13.9 M15.75 3.35 L17.2 2.95 M9.2 0.2 Q4.5 3.35 7.65 12.15 M2.3 7.4 L2.6 9.15 Q3.4 12.65 5.9 14.55 L7.4 15.45 M8.6 16.0 Q11.0 16.8 14.3 16.75 M9.95 7.15 Q12.0 4.6 15.75 3.35"/><path fill="none" stroke="#000000" stroke-width="0.5" stroke-opacity="0.301960784314" d="M0.05 13.2 Q1.05 11.4 2.05 8.3 L2.3 7.5 2.3 7.4 Q4.1 1.45 8.55 0.35 L9.2 0.2 Q14.25 -0.75 17.2 2.95 19.6 6.1 18.95 9.75 18.6 11.55 17.6 13.45 L17.3 13.9 Q16.35 15.4 14.3 16.75 12.6 17.9 10.15 18.95 L6.9 20.2"/></g><g id="c5"><path fill="#775d35" stroke="none" d="M6.0 5.6 L8.75 9.7 8.75 10.35 8.25 10.5 3.1 4.05 2.1 3.7 0.0 3.75 0.2 2.85 1.3 3.1 1.9 3.1 2.75 3.1 Q3.1 3.0 3.35 3.35 L5.0 5.2 Q5.45 5.65 6.0 5.6"/><path fill="#9b8042" stroke="none" d="M0.2 2.85 Q0.6 2.05 1.75 1.15 3.55 -0.15 4.8 0.05 4.85 0.7 4.3 1.85 L4.3 3.0 6.0 5.6 Q5.45 5.65 5.0 5.2 L3.35 3.35 Q3.1 3.0 2.75 3.1 L1.9 3.1 1.3 3.1 0.2 2.85"/><path fill="none" stroke="#000000" stroke-width="0.5" stroke-opacity="0.301960784314" d="M0.2 2.85 Q0.6 2.05 1.75 1.15 3.55 -0.15 4.8 0.05 4.85 0.7 4.3 1.85 L4.3 3.0 6.0 5.6 8.75 9.7 8.75 9.5 M8.25 10.5 L3.1 4.05 2.1 3.7 0.0 3.75 0.2 2.85 M8.75 9.7 L8.75 10.35 8.25 10.5 8.0 10.55"/><path fill="#ddbd62" stroke="none" d="M4.15 0.65 Q4.35 0.9 4.15 1.4 L3.5 2.2 2.5 2.65 Q2.05 2.75 1.85 2.5 1.65 2.25 1.8 1.8 L2.55 1.0 Q3.0 0.6 3.45 0.55 L4.15 0.65"/></g><g id="c6"><path fill="#78f5f5" fill-opacity="0.2" d="M5.05 7.85 L3.4 5.75 2.95 5.6 1.25 5.75 0.45 5.45 0.1 5.15 0.0 4.7 Q-0.05 4.05 0.25 3.4 L1.25 2.1 2.1 1.35 Q2.7 0.9 3.25 0.65 4.7 -0.15 5.85 0.05 L6.0 0.1 6.4 0.35 6.65 0.9 Q6.7 1.7 6.15 3.0 L6.15 3.65 7.9 6.3 7.95 6.3 7.95 6.55 9.55 9.85 Q9.7 9.65 9.9 11.5 L9.05 11.55 5.05 7.85"/><path fill="none" stroke="#ffffff" stroke-width="0.5" stroke-opacity="0.219607843137" d="M5.05 7.85 L3.4 5.75 2.95 5.6 1.25 5.75 0.45 5.45 0.1 5.15 0.0 4.7 Q-0.05 4.05 0.25 3.4 L1.25 2.1 2.1 1.35 Q2.7 0.9 3.25 0.65 4.7 -0.15 5.85 0.05 L6.0 0.1 6.4 0.35 6.65 0.9 Q6.7 1.7 6.15 3.0 L6.15 3.65 7.9 6.3 7.95 6.3"/></g><g id="c7"><path fill="#78f5f5" fill-opacity="0.2" d="M0.0 -0.45 L0.05 0.1 0.0 0.45 0.0 -0.45"/><path fill="none" stroke="#ffffff" stroke-width="0.5" stroke-opacity="0.219607843137" d="M0.0 -0.45 L0.05 0.1 0.0 0.45"/></g><g id="c8"><path fill="#775d35" stroke="none" d="M8.25 5.45 L8.0 6.65 Q7.35 6.5 6.45 5.6 L5.35 5.25 0.85 6.45 0.0 6.2 0.05 5.4 4.7 3.75 5.35 2.95 5.5 2.05 Q5.8 3.2 6.45 4.25 L7.1 5.15 Q7.45 5.65 7.95 5.55 L8.25 5.45"/><path fill="#9b8042" stroke="none" d="M5.5 2.05 Q5.65 1.2 5.95 0.95 7.15 1.3 7.85 3.4 8.25 4.6 8.25 5.45 L7.95 5.55 Q7.45 5.65 7.1 5.15 L6.45 4.25 Q5.8 3.2 5.5 2.05 M7.1 4.0 Q7.4 3.9 7.4 3.4 L7.2 2.35 6.6 1.5 5.95 1.3 Q5.65 1.45 5.6 1.95 L5.8 2.95 6.45 3.85 7.1 4.0"/><path fill="#ddbd62" stroke="none" d="M7.1 4.0 L6.45 3.85 5.8 2.95 5.6 1.95 Q5.65 1.45 5.95 1.3 L6.6 1.5 7.2 2.35 7.4 3.4 Q7.4 3.9 7.1 4.0"/><path fill="none" stroke="#000000" stroke-width="0.5" stroke-opacity="0.301960784314" d="M8.25 5.45 L8.0 6.65 Q7.35 6.5 6.45 5.6 L5.35 5.25 0.85 6.45 0.0 6.2 0.05 5.4 4.7 3.75 5.35 2.95 5.5 2.05 Q5.65 1.2 5.95 0.95 7.15 1.3 7.85 3.4 8.25 4.6 8.25 5.45"/></g><g id="c9"><path fill="#78f5f5" fill-opacity="0.2" d="M1.0 3.55 L1.05 3.65 2.9 2.95 3.2 2.6 3.35 1.85 Q3.6 0.55 4.1 0.25 L4.5 0.05 4.95 0.05 Q6.6 0.4 7.5 3.1 L7.95 5.45 Q7.95 6.4 7.6 7.05 L7.15 7.5 6.55 7.55 Q5.75 7.4 4.7 6.45 L4.05 6.2 2.25 6.7 2.3 6.9 Q1.15 6.15 0.05 5.7 L0.0 5.65 0.2 5.1 0.75 4.6 1.0 3.55"/><path fill="none" stroke="#ffffff" stroke-width="0.5" stroke-opacity="0.219607843137" d="M1.0 3.55 L1.05 3.65 2.9 2.95 3.2 2.6 3.35 1.85 Q3.6 0.55 4.1 0.25 L4.5 0.05 4.95 0.05 Q6.6 0.4 7.5 3.1 L7.95 5.45 Q7.95 6.4 7.6 7.05 L7.15 7.5 6.55 7.55 Q5.75 7.4 4.7 6.45 L4.05 6.2 2.25 6.7"/></g><g id="c10"><path fill="#9b8042" stroke="none" d="M1.8 2.0 Q2.35 1.6 3.25 1.3 L6.3 1.15 5.35 2.65 5.0 3.65 5.4 5.25 Q4.8 4.8 4.5 4.0 L4.25 3.55 Q3.95 3.15 4.15 2.8 3.05 2.75 2.15 2.2 L1.8 2.0"/><path fill="#775d35" stroke="none" d="M5.4 5.25 L6.1 7.9 5.85 8.65 5.15 8.6 3.6 4.25 2.85 3.65 Q1.3 3.5 0.95 3.1 1.15 2.5 1.8 2.0 L2.15 2.2 Q3.05 2.75 4.15 2.8 3.95 3.15 4.25 3.55 L4.5 4.0 Q4.8 4.8 5.4 5.25"/><path fill="none" stroke="#000000" stroke-width="0.5" stroke-opacity="0.301960784314" d="M1.8 2.0 Q2.35 1.6 3.25 1.3 L6.3 1.15 5.35 2.65 5.0 3.65 5.4 5.25 6.1 7.9 5.85 8.65 5.15 8.6 3.6 4.25 2.85 3.65 Q1.3 3.5 0.95 3.1 1.15 2.5 1.8 2.0"/><path fill="#ddbd62" stroke="none" d="M5.55 1.85 L5.2 2.45 Q4.8 2.7 4.2 2.8 L3.15 2.75 2.65 2.25 Q2.6 1.95 3.0 1.7 L3.95 1.3 5.05 1.4 Q5.5 1.55 5.55 1.85"/><path fill="#78f5f5" fill-opacity="0.2" d="M4.0 8.15 L2.7 4.55 2.45 4.55 Q0.6 4.3 0.25 3.7 L0.05 3.3 0.05 2.85 Q0.3 1.95 1.25 1.25 1.9 0.75 2.95 0.4 L2.95 0.45 5.25 0.0 Q6.1 0.0 6.7 0.35 L7.15 0.75 7.2 1.4 Q7.05 2.1 6.15 3.1 L5.95 3.7 6.6 6.05 7.1 9.25 4.7 9.25 4.05 8.2 4.0 8.2 4.0 8.15"/><path fill="none" stroke="#ffffff" stroke-width="0.5" stroke-opacity="0.219607843137" d="M4.0 8.15 L2.7 4.55 2.45 4.55 Q0.6 4.3 0.25 3.7 L0.05 3.3 0.05 2.85 Q0.3 1.95 1.25 1.25 1.9 0.75 2.95 0.4 L2.95 0.45 5.25 0.0 Q6.1 0.0 6.7 0.35 L7.15 0.75 7.2 1.4 Q7.05 2.1 6.15 3.1 L5.95 3.7 6.6 6.05"/></g><g id="c11"><path fill="#775d35" stroke="none" d="M1.65 6.3 Q2.45 4.7 2.85 2.95 L2.95 2.35 3.8 2.85 11.8 2.35 12.45 2.7 12.25 3.2 4.1 4.45 3.3 5.1 Q2.8 6.65 2.3 6.95 L1.65 6.3"/><path fill="#9b8042" stroke="none" d="M2.95 2.35 L2.85 2.95 Q2.45 4.7 1.65 6.3 1.1 5.55 0.95 4.15 0.7 1.9 1.5 0.95 L2.8 2.25 2.95 2.35"/><path fill="none" stroke="#000000" stroke-width="0.5" stroke-opacity="0.301960784314" d="M1.65 6.3 L2.3 6.95 Q2.8 6.65 3.3 5.1 L4.1 4.45 12.25 3.2 12.45 2.7 11.8 2.35 3.8 2.85 2.95 2.35 2.8 2.25 1.5 0.95 Q0.7 1.9 0.95 4.15 1.1 5.55 1.65 6.3 M11.65 2.25 L11.8 2.35 M12.25 3.2 L12.25 3.45"/><path fill="#ddbd62" stroke="none" d="M2.0 3.75 Q1.7 3.8 1.4 3.5 L1.1 2.75 Q1.0 2.3 1.15 1.9 L1.65 1.55 2.2 1.75 2.6 2.5 2.45 3.35 2.0 3.75"/><path fill="#78f5f5" fill-opacity="0.2" d="M8.9 1.6 L9.05 1.6 12.45 2.6 12.25 3.15 9.65 4.55 4.5 5.3 4.1 5.65 Q3.5 7.5 2.75 7.75 L2.3 7.85 1.85 7.75 0.85 6.8 Q0.25 5.95 0.05 4.25 L0.0 2.75 0.0 2.6 Q0.0 2.05 0.15 1.6 0.3 0.85 0.75 0.35 L1.3 0.05 1.9 0.1 3.45 1.55 3.55 1.6 4.05 1.9 8.9 1.6"/><path fill="none" stroke="#ffffff" stroke-width="0.5" stroke-opacity="0.219607843137" d="M9.65 4.55 L4.5 5.3 4.1 5.65 Q3.5 7.5 2.75 7.75 L2.3 7.85 1.85 7.75 0.85 6.8 Q0.25 5.95 0.05 4.25 L0.0 2.75 0.0 2.6 Q0.0 2.05 0.15 1.6 0.3 0.85 0.75 0.35 L1.3 0.05 1.9 0.1 3.45 1.55 3.55 1.6 4.05 1.9 8.9 1.6"/></g><g id="c12"><path fill="#775d35" stroke="none" d="M6.3 0.35 L6.9 0.0 7.3 0.4 7.45 0.5 5.3 6.0 5.45 7.0 Q6.55 8.2 6.55 8.8 5.5 9.45 3.45 8.55 L1.85 7.65 3.1 8.0 4.85 8.1 Q5.25 8.05 5.2 7.65 5.05 7.0 4.5 6.6 L3.25 5.75 3.75 5.45 6.3 0.35"/><path fill="#9b8042" stroke="none" d="M3.25 5.75 L4.5 6.6 Q5.05 7.0 5.2 7.65 5.25 8.05 4.85 8.1 L3.1 8.0 1.85 7.65 0.95 6.5 Q1.5 6.1 2.75 6.05 L3.25 5.75"/><path fill="none" stroke="#000000" stroke-width="0.5" stroke-opacity="0.301960784314" d="M6.1 0.45 L6.3 0.35 6.9 0.0 7.3 0.4 7.45 0.5 7.5 0.55 M3.25 5.75 L3.75 5.45 6.3 0.35 M1.85 7.65 L3.45 8.55 Q5.5 9.45 6.55 8.8 6.55 8.2 5.45 7.0 L5.3 6.0 7.45 0.5 M1.85 7.65 L0.95 6.5 Q1.5 6.1 2.75 6.05 L3.25 5.75"/><path fill="#ddbd62" stroke="none" d="M4.7 7.6 L4.35 7.55 3.4 7.2 2.25 6.95 Q1.7 6.85 1.8 6.55 1.95 6.3 2.4 6.25 L3.45 6.4 Q4.0 6.65 4.35 7.0 L4.7 7.6"/></g><g id="c13"><path fill="#78f5f5" fill-opacity="0.2" d="M4.75 0.0 L6.85 -1.5 7.65 -0.75 7.4 1.75 6.25 4.65 6.35 5.15 7.0 6.0 7.1 6.15 7.3 6.55 7.4 6.8 7.4 7.7 7.35 7.8 7.3 7.9 7.05 8.1 7.0 8.15 5.9 8.55 4.05 8.3 3.75 8.2 3.1 7.95 1.25 6.9 0.85 6.55 Q0.3 6.0 0.1 5.4 L0.05 4.75 0.4 4.3 Q1.05 3.8 2.45 3.65 L3.05 3.35 4.75 0.0"/><path fill="none" stroke="#ffffff" stroke-width="0.5" stroke-opacity="0.219607843137" d="M7.4 1.75 L6.25 4.65 6.35 5.15 7.0 6.0 7.1 6.15 7.3 6.55 7.4 6.8 M7.4 7.7 L7.35 7.8 7.3 7.9 7.05 8.1 7.0 8.15 5.9 8.55 4.05 8.3 3.75 8.2 3.1 7.95 1.25 6.9 0.85 6.55 Q0.3 6.0 0.1 5.4 L0.05 4.75 0.4 4.3 Q1.05 3.8 2.45 3.65 L3.05 3.35 4.75 0.0"/></g><g id="c14"><path fill="#78f5f5" fill-opacity="0.2" d="M6.6 0.9 L6.6 0.95 Q7.35 0.6 8.2 0.4 L8.4 0.35 8.95 0.2 13.65 0.35 Q16.05 1.1 17.85 3.3 L18.5 4.3 19.35 6.45 19.8 7.65 Q20.05 9.2 19.75 10.9 19.4 12.75 18.3 14.8 L18.3 14.85 18.0 15.35 17.6 15.95 15.2 18.15 14.7 18.5 Q12.65 19.9 9.5 21.15 7.0 21.6 4.5 21.15 2.8 21.05 1.5 20.05 0.85 19.65 0.7 18.75 0.05 18.2 0.0 15.95 L0.0 11.95 1.1 8.85 1.3 8.2 1.35 8.1 Q2.3 4.9 4.0 3.05 L4.05 3.05 4.95 2.15 4.4 2.85 Q5.25 1.75 6.6 1.0 L6.6 0.9"/><path fill="none" stroke="#ffffff" stroke-width="0.5" stroke-opacity="0.219607843137" d="M6.6 0.9 L6.6 0.95 Q7.35 0.6 8.2 0.4 L8.4 0.35 8.95 0.2 13.65 0.35 Q16.05 1.1 17.85 3.3 L18.5 4.3 M19.8 7.65 Q20.05 9.2 19.75 10.9 19.4 12.75 18.3 14.8 L18.3 14.85 18.0 15.35 17.6 15.95 15.2 18.15 14.7 18.5 Q12.65 19.9 9.5 21.15 M0.0 11.95 L1.1 8.85 1.3 8.2 1.35 8.1 Q2.3 4.9 4.0 3.05"/></g><g id="c15"><path fill="#312910" stroke="none" d="M10.9 3.4 Q11.5 5.55 11.0 9.65 12.9 11.85 13.0 13.9 12.7 16.65 9.95 16.6 7.65 15.75 5.65 10.65 3.95 9.9 1.8 8.5 1.2 7.35 0.95 6.0 2.55 1.4 7.2 0.95 9.25 1.85 10.9 3.4"/><path fill="none" stroke="#000000" stroke-width="0.5" stroke-opacity="0.301960784314" d="M10.9 3.4 Q9.25 1.85 7.2 0.95 2.55 1.4 0.95 6.0 1.2 7.35 1.8 8.5 3.95 9.9 5.65 10.65 7.65 15.75 9.95 16.6 12.7 16.65 13.0 13.9 12.9 11.85 11.0 9.65 11.5 5.55 10.9 3.4"/><path fill="#78f5f5" fill-opacity="0.2" d="M0.05 5.7 Q1.9 0.5 7.1 0.0 L7.55 0.1 Q9.8 1.05 11.55 2.7 L11.8 3.15 Q12.45 5.3 12.0 9.4 13.9 11.7 13.9 13.85 L13.9 14.0 Q13.55 17.6 9.95 17.55 L9.65 17.5 Q7.1 16.65 4.9 11.35 L1.25 9.25 0.95 8.9 Q0.3 7.65 0.05 6.2 L0.05 5.7"/><path fill="none" stroke="#ffffff" stroke-width="0.5" stroke-opacity="0.219607843137" d="M0.05 5.7 Q1.9 0.5 7.1 0.0 L7.55 0.1 Q9.8 1.05 11.55 2.7 L11.8 3.15 Q12.45 5.3 12.0 9.4 13.9 11.7 13.9 13.85 L13.9 14.0 Q13.55 17.6 9.95 17.55 L9.65 17.5 Q7.1 16.65 4.9 11.35 L1.25 9.25 0.95 8.9 Q0.3 7.65 0.05 6.2 L0.05 5.7"/></g><radialGradient gradientUnits="userSpaceOnUse" r="819.2" cx="0" cy="0" spreadMethod="pad" gradientTransform="matrix(-0.00364685058594,0.00166320800781,0.00370788574219,0.00642395019531,10.7,9.2)" id="gradient4"><stop offset="0.549019607843" stop-color="#998c52"/><stop offset="1.0" stop-color="#cac2b9"/></radialGradient><radialGradient gradientUnits="userSpaceOnUse" r="819.2" cx="0" cy="0" spreadMethod="pad" gradientTransform="matrix(-0.003173828125,0.00173950195312,0.00119018554688,0.00486755371094,6.35,9.35)" id="gradient5"><stop offset="0.549019607843" stop-color="#998c52"/><stop offset="1.0" stop-color="#cac2b9"/></radialGradient><g id="c16"><path fill="#f6f7e1" stroke="none" d="M11.4 8.55 Q14.4 11.75 17.1 16.3 18.4 22.8 16.8 27.65 14.35 16.6 9.9 9.4 L11.4 8.55 M11.45 9.0 Q10.85 9.2 10.3 9.45 14.05 15.1 16.75 23.15 16.7 18.65 14.7 14.4 L11.45 9.0"/><path stroke="none" fill="url(#gradient4)" d="M11.45 9.0 L14.7 14.4 Q16.7 18.65 16.75 23.15 14.05 15.1 10.3 9.45 10.85 9.2 11.45 9.0"/><path fill="none" stroke="#000000" stroke-width="0.5" stroke-opacity="0.301960784314" d="M11.4 8.55 Q14.4 11.75 17.1 16.3 18.4 22.8 16.8 27.65 14.35 16.6 9.9 9.4 L11.4 8.55"/><path stroke="none" fill="url(#gradient5)" d="M6.1 10.0 L6.0 9.65 6.55 9.1 6.85 9.85 8.4 14.55 Q8.5 17.05 7.45 20.2 7.4 14.15 6.1 10.0"/><path fill="#f6f7e1" stroke="none" d="M6.85 9.85 L6.9 9.8 Q8.2 12.15 9.1 15.2 8.65 19.2 6.85 21.65 7.15 15.0 5.7 10.1 L6.1 10.0 Q7.4 14.15 7.45 20.2 8.5 17.05 8.4 14.55 L6.85 9.85"/><path fill="none" stroke="#000000" stroke-width="0.5" stroke-opacity="0.301960784314" d="M6.85 9.85 L6.9 9.8 Q8.2 12.15 9.1 15.2 8.65 19.2 6.85 21.65 7.15 15.0 5.7 10.1 L6.1 10.0"/><path fill="#b6a865" stroke="none" d="M2.3 5.3 L2.35 4.25 3.65 2.85 Q7.25 0.25 9.4 1.25 10.55 1.8 11.45 3.15 L11.5 3.25 11.35 4.7 13.05 7.5 13.2 9.05 10.6 10.95 Q10.8 9.65 9.65 8.95 L9.95 8.4 Q10.2 7.35 9.45 7.0 L8.5 7.65 Q8.5 6.15 7.7 5.3 5.85 4.65 4.65 4.95 3.9 5.15 3.7 5.75 L2.3 5.3 M8.35 5.5 L7.7 5.3 8.35 5.5 M9.85 6.65 L9.45 7.0 9.85 6.65 M11.35 4.7 L11.05 5.4 10.4 6.1 11.05 5.4 11.35 4.7 M11.2 8.7 Q10.5 8.25 9.95 8.4 10.5 8.25 11.2 8.7 M7.2 5.1 Q6.55 4.65 6.35 3.4 6.55 4.65 7.2 5.1"/><path fill="#3c3119" stroke="none" d="M10.6 10.95 L8.8 11.9 7.25 11.55 6.85 10.7 4.35 10.9 3.85 10.3 3.05 10.7 1.7 10.35 Q0.7 7.4 1.05 5.25 L2.3 5.3 3.7 5.75 Q3.9 5.15 4.65 4.95 5.85 4.65 7.7 5.3 8.5 6.15 8.5 7.65 L9.45 7.0 Q10.2 7.35 9.95 8.4 L9.65 8.95 Q10.8 9.65 10.6 10.95 M3.7 5.75 L3.65 5.95 3.65 6.5 Q4.25 7.2 6.15 7.35 L6.85 7.7 6.3 8.3 6.85 10.7 6.3 8.3 6.85 7.7 6.15 7.35 Q4.25 7.2 3.65 6.5 L3.65 5.95 3.1 6.6 3.75 10.1 3.85 10.3 3.75 10.1 3.1 6.6 3.65 5.95 3.7 5.75 M9.1 9.55 L9.65 8.95 9.1 9.55 M6.85 7.7 L7.6 8.05 8.5 7.65 7.6 8.05 6.85 7.7"/><path fill="none" stroke="#000000" stroke-width="0.5" stroke-opacity="0.301960784314" d="M2.3 5.3 L2.35 4.25 3.65 2.85 Q7.25 0.25 9.4 1.25 10.55 1.8 11.45 3.15 L11.5 3.25 11.35 4.7 13.05 7.5 13.2 9.05 10.6 10.95 8.8 11.9 7.25 11.55 6.85 10.7 4.35 10.9 3.85 10.3 3.05 10.7 1.7 10.35 Q0.7 7.4 1.05 5.25 L2.3 5.3 3.7 5.75 Q3.9 5.15 4.65 4.95 5.85 4.65 7.7 5.3 L8.35 5.5 M6.85 10.7 L6.3 8.3 6.85 7.7 6.15 7.35 Q4.25 7.2 3.65 6.5 L3.65 5.95 3.1 6.6 3.75 10.1 3.85 10.3 M3.65 5.95 L3.7 5.75 M10.4 6.1 L11.05 5.4 11.35 4.7 M9.45 7.0 L9.85 6.65 M7.7 5.3 Q8.5 6.15 8.5 7.65 L9.45 7.0 Q10.2 7.35 9.95 8.4 10.5 8.25 11.2 8.7 M8.5 7.65 L7.6 8.05 6.85 7.7 M9.65 8.95 L9.1 9.55 M9.95 8.4 L9.65 8.95 Q10.8 9.65 10.6 10.95 M6.35 3.4 Q6.55 4.65 7.2 5.1"/><path fill="#78f5f5" fill-opacity="0.2" d="M0.85 4.35 L1.4 4.25 1.4 4.15 1.55 3.75 Q2.0 3.0 3.0 2.15 L3.1 2.1 Q7.25 -0.9 9.75 0.4 11.15 1.0 12.2 2.6 L12.3 2.8 12.4 3.1 12.35 4.5 13.85 7.05 13.9 7.2 Q14.25 8.35 14.1 9.15 L13.75 9.7 13.7 9.75 Q15.9 12.45 17.9 15.8 L18.0 16.1 Q19.4 22.85 17.65 27.95 L17.3 28.4 16.75 28.55 Q16.4 28.55 16.2 28.35 L15.85 27.85 Q13.85 18.65 10.35 12.1 L9.25 12.7 10.0 14.95 10.0 15.3 Q9.55 19.6 7.65 22.2 L7.15 22.55 6.55 22.55 6.1 22.2 5.95 21.65 Q6.2 16.1 5.2 11.85 L4.25 11.8 Q3.85 11.8 3.6 11.5 L3.55 11.45 3.4 11.5 3.0 11.6 1.2 11.15 0.8 10.65 Q-0.3 7.4 0.1 5.1 L0.35 4.6 Q0.55 4.4 0.85 4.35"/><path fill="none" stroke="#ffffff" stroke-width="0.5" stroke-opacity="0.219607843137" d="M0.85 4.35 L1.4 4.25 1.4 4.15 1.55 3.75 Q2.0 3.0 3.0 2.15 L3.1 2.1 Q7.25 -0.9 9.75 0.4 11.15 1.0 12.2 2.6 L12.3 2.8 12.4 3.1 12.35 4.5 13.85 7.05 13.9 7.2 Q14.25 8.35 14.1 9.15 L13.75 9.7 13.7 9.75 Q15.9 12.45 17.9 15.8 L18.0 16.1 Q19.4 22.85 17.65 27.95 L17.3 28.4 16.75 28.55 Q16.4 28.55 16.2 28.35 L15.85 27.85 Q13.85 18.65 10.35 12.1 L9.25 12.7 10.0 14.95 10.0 15.3 Q9.55 19.6 7.65 22.2 L7.15 22.55 6.55 22.55 6.1 22.2 5.95 21.65 Q6.2 16.1 5.2 11.85 L4.25 11.8 Q3.85 11.8 3.6 11.5 L3.55 11.45 3.4 11.5 3.0 11.6 1.2 11.15 0.8 10.65 Q-0.3 7.4 0.1 5.1 L0.35 4.6 Q0.55 4.4 0.85 4.35"/></g><g id="c17"><path fill="#b6a865" stroke="none" d="M1.7 6.95 L3.7 6.05 5.1 5.5 Q7.3 4.75 9.6 4.45 L9.95 4.45 10.35 5.65 Q11.4 8.65 11.65 10.2 L11.95 12.5 Q8.7 15.1 5.3 14.9 L3.5 12.35 Q6.35 12.35 8.25 10.2 10.2 8.1 10.35 5.65 10.2 8.1 8.25 10.2 6.35 12.35 3.5 12.35 L2.5 10.45 2.25 9.9 2.0 9.3 1.35 7.25 1.7 6.95 M3.7 6.05 Q3.8 7.75 2.0 9.3 3.8 7.75 3.7 6.05"/><path fill="#312910" stroke="none" d="M1.7 6.95 L1.0 4.8 Q0.9 3.75 1.1 2.45 3.3 0.7 5.9 0.65 L8.6 2.15 9.6 4.45 Q7.3 4.75 5.1 5.5 L3.7 6.05 1.7 6.95"/><path fill="none" stroke="#000000" stroke-width="0.5" stroke-opacity="0.301960784314" d="M1.1 2.45 Q0.9 3.75 1.0 4.8 L1.7 6.95 3.7 6.05 5.1 5.5 Q7.3 4.75 9.6 4.45 L8.6 2.15 5.9 0.65 M10.35 5.65 L9.95 4.45 9.6 4.45 M3.5 12.35 L5.3 14.9 Q8.7 15.1 11.95 12.5 L11.65 10.2 Q11.4 8.65 10.35 5.65 10.2 8.1 8.25 10.2 6.35 12.35 3.5 12.35 L2.5 10.45 2.25 9.9 2.0 9.3 1.35 7.25 1.7 6.95 M2.0 9.3 Q3.8 7.75 3.7 6.05"/><path fill="#78f5f5" fill-opacity="0.2" d="M0.1 2.8 Q0.4 2.55 0.9 2.55 3.2 0.6 6.1 0.6 6.3 0.05 6.7 0.0 7.8 0.5 9.05 1.35 L9.35 1.65 10.25 3.55 10.45 3.65 10.8 4.15 11.15 5.35 Q12.25 8.4 12.55 10.0 L12.85 12.15 12.05 12.45 Q8.65 15.3 5.1 14.9 L4.15 14.95 2.65 12.8 1.65 10.8 1.35 10.2 1.1 9.6 0.4 7.5 0.4 7.0 0.6 6.65 0.1 5.1 0.05 4.85 0.1 2.8"/><path fill="none" stroke="#ffffff" stroke-width="0.5" stroke-opacity="0.219607843137" d="M0.1 2.8 L0.05 4.85 0.1 5.1 0.6 6.65 0.4 7.0 0.4 7.5 1.1 9.6 1.35 10.2 1.65 10.8 2.65 12.8 4.15 14.95 M12.85 12.15 L12.55 10.0 Q12.25 8.4 11.15 5.35 L10.8 4.15 10.45 3.65 10.25 3.55 9.35 1.65 9.05 1.35 Q7.8 0.5 6.7 0.0"/></g><g id="c18"><path fill="#5e4329" fill-opacity="0.423529411765" d="M24.45 4.25 L23.75 10.3 Q24.6 16.95 17.95 17.3 L4.75 21.5 Q11.9 18.45 13.1 12.95 7.0 13.8 1.7 11.05 11.15 10.9 18.05 5.9 11.4 6.5 6.75 1.15 14.7 4.65 24.45 4.25"/><path fill="#78f5f5" fill-opacity="0.2" d="M14.4 6.6 Q10.6 7.7 5.55 0.0 14.3 3.85 25.0 3.45 L24.25 10.1 Q25.15 17.4 17.85 17.85 L3.35 22.45 12.5 13.1 Q5.75 14.0 0.0 10.9 9.3 8.9 14.4 6.6"/><path fill="none" stroke="#ffffff" stroke-width="0.5" stroke-opacity="0.219607843137" d="M14.4 6.6 Q9.3 8.9 0.0 10.9 5.75 14.0 12.5 13.1 L3.35 22.45 17.85 17.85 Q25.15 17.4 24.25 10.1 L25.0 3.45 Q14.3 3.85 5.55 0.0 10.6 7.7 14.4 6.6"/></g><g id="c19"><path fill="#5e4329" fill-opacity="0.423529411765" d="M14.6 0.1 L18.75 1.5 Q18.2 10.8 14.65 17.4 L11.15 21.8 Q10.0 21.85 8.65 16.3 7.0 17.75 1.5 18.6 L9.7 7.3 Q9.0 6.4 3.15 9.35 8.95 1.3 14.6 0.1"/><path fill="#78f5f5" fill-opacity="0.2" d="M8.35 8.4 L2.15 10.0 Q8.25 1.05 13.9 0.0 L19.05 1.7 Q18.4 11.95 14.5 18.9 L10.6 23.65 Q9.35 23.65 7.85 17.5 6.1 19.0 0.0 19.75 L8.35 8.4"/><path fill="none" stroke="#ffffff" stroke-width="0.5" stroke-opacity="0.219607843137" d="M8.35 8.4 L0.0 19.75 Q6.1 19.0 7.85 17.5 9.35 23.65 10.6 23.65 L14.5 18.9 Q18.4 11.95 19.05 1.7 L13.9 0.0 Q8.25 1.05 2.15 10.0 L8.35 8.4"/></g><g id="c20"><path fill="#3f3c28" stroke="none" d="M12.45 4.3 Q13.7 4.9 15.05 5.05 L17.4 5.0 17.2 4.45 Q19.0 3.8 20.7 3.7 L20.9 3.95 21.25 3.5 21.5 3.85 21.6 7.2 21.65 7.2 22.4 8.55 22.6 9.6 22.2 10.0 22.65 12.3 23.75 12.4 24.55 15.8 23.45 16.1 24.65 18.75 Q27.65 26.0 26.55 32.4 26.4 25.85 22.9 21.1 22.8 24.7 22.3 28.9 20.4 26.15 18.2 21.4 16.2 27.45 15.8 34.9 14.15 28.3 14.0 22.25 13.85 20.95 13.85 19.6 13.2 21.4 11.85 22.85 9.7 25.25 5.8 26.8 L8.05 23.7 Q10.85 18.9 9.8 14.7 7.65 16.25 5.6 16.6 L2.8 16.8 5.15 15.4 Q9.25 12.85 9.95 10.35 L10.15 10.1 9.6 8.85 11.75 8.4 11.25 6.95 12.05 6.15 12.1 4.45 12.45 4.3 M21.75 22.25 Q21.05 22.35 21.2 22.95 L21.35 23.45 Q21.5 23.85 21.8 23.85 L22.1 23.35 22.15 22.8 Q22.1 22.25 21.75 22.25 M21.0 18.5 L20.85 18.95 20.45 19.3 Q20.35 19.45 20.4 19.75 L20.6 20.35 Q20.95 20.95 21.35 20.95 22.05 20.85 21.9 19.65 21.75 18.1 21.4 18.15 21.15 18.15 21.0 18.5"/><path fill="none" stroke="#000000" stroke-width="0.5" stroke-opacity="0.301960784314" d="M12.45 4.3 L12.1 4.45 12.05 6.15 11.25 6.95 11.75 8.4 9.6 8.85 10.15 10.1 9.95 10.35 Q9.25 12.85 5.15 15.4 L2.8 16.8 5.6 16.6 Q7.65 16.25 9.8 14.7 10.85 18.9 8.05 23.7 L5.8 26.8 Q9.7 25.25 11.85 22.85 13.2 21.4 13.85 19.6 13.85 20.95 14.0 22.25 14.15 28.3 15.8 34.9 16.2 27.45 18.2 21.4 20.4 26.15 22.3 28.9 22.8 24.7 22.9 21.1 26.4 25.85 26.55 32.4 27.65 26.0 24.65 18.75 L23.45 16.1 24.55 15.8 23.75 12.4 22.65 12.3 22.2 10.0 22.6 9.6 22.4 8.55 21.65 7.2 21.6 7.2 21.5 3.85 21.25 3.5 M21.0 18.5 Q21.15 18.15 21.4 18.15 21.75 18.1 21.9 19.65 22.05 20.85 21.35 20.95 20.95 20.95 20.6 20.35 L20.4 19.75 Q20.35 19.45 20.45 19.3 L20.85 18.95 21.0 18.5 M21.75 22.25 Q22.1 22.25 22.15 22.8 L22.1 23.35 21.8 23.85 Q21.5 23.85 21.35 23.45 L21.2 22.95 Q21.05 22.35 21.75 22.25"/><path fill="#78f5f5" fill-opacity="0.2" d="M20.5 1.6 L23.85 8.2 24.0 9.45 23.55 10.0 24.0 12.65 25.4 12.8 26.35 16.75 25.0 17.1 26.55 20.2 27.5 23.1 28.05 25.5 Q28.75 30.7 26.1 34.9 25.8 31.95 23.55 23.4 24.25 27.25 23.6 32.15 21.25 29.0 18.65 23.45 17.55 26.65 16.95 30.1 16.3 34.3 16.45 38.9 14.8 34.45 14.0 30.1 13.55 27.3 13.45 24.55 L13.4 21.4 Q12.55 23.55 10.95 25.3 8.25 28.05 2.8 28.3 4.85 27.55 6.95 23.7 9.05 19.65 8.5 15.65 5.85 17.5 3.35 18.0 L0.0 18.2 2.9 16.6 Q7.8 13.45 8.7 10.55 L8.95 10.2 8.25 8.8 10.85 8.3 10.55 7.05 11.7 5.65 12.1 4.45 12.1 2.45 Q16.45 -1.95 20.5 1.6"/><path fill="none" stroke="#ffffff" stroke-width="0.5" stroke-opacity="0.219607843137" d="M12.1 4.45 L11.7 5.65 10.55 7.05 10.85 8.3 8.25 8.8 8.95 10.2 8.7 10.55 Q7.8 13.45 2.9 16.6 L0.0 18.2 3.35 18.0 Q5.85 17.5 8.5 15.65 9.05 19.65 6.95 23.7 4.85 27.55 2.8 28.3 8.25 28.05 10.95 25.3 12.55 23.55 13.4 21.4 L13.45 24.55 Q13.55 27.3 14.0 30.1 14.8 34.45 16.45 38.9 16.3 34.3 16.95 30.1 17.55 26.65 18.65 23.45 21.25 29.0 23.6 32.15 24.25 27.25 23.55 23.4 25.8 31.95 26.1 34.9 28.75 30.7 28.05 25.5 L27.5 23.1 26.55 20.2 25.0 17.1 26.35 16.75 25.4 12.8 24.0 12.65 23.55 10.0 24.0 9.45 23.85 8.2 20.5 1.6"/></g><g id="c21"><path fill="#a61a0c" stroke="none" d="M8.7 12.25 Q8.35 14.9 7.5 17.5 L4.65 19.8 Q4.0 17.3 3.7 14.1 3.15 7.9 0.95 1.3 L8.55 1.1 9.6 5.35 10.55 7.45 Q10.4 10.95 9.45 14.6 L8.7 12.25 8.7 11.5 8.7 12.25"/><path fill="none" stroke="#000000" stroke-width="0.5" stroke-opacity="0.301960784314" d="M8.7 12.25 Q8.35 14.9 7.5 17.5 L4.65 19.8 Q4.0 17.3 3.7 14.1 3.15 7.9 0.95 1.3 L8.55 1.1 9.6 5.35 10.55 7.45 Q10.4 10.95 9.45 14.6 L8.7 12.25 8.7 11.5"/><path fill="#78f5f5" fill-opacity="0.2" d="M9.4 0.85 L10.45 5.05 11.45 7.15 11.5 7.55 Q11.3 11.15 10.35 14.9 L10.05 15.4 9.5 15.6 9.05 15.5 8.35 17.85 8.1 18.25 5.2 20.6 4.6 20.8 Q4.3 20.8 4.1 20.6 L3.75 20.1 Q3.05 17.5 2.75 14.25 2.2 8.15 0.05 1.65 L0.0 1.15 0.3 0.7 Q0.45 0.5 0.75 0.45 L8.65 0.25 9.1 0.45 9.4 0.85"/><path fill="none" stroke="#ffffff" stroke-width="0.5" stroke-opacity="0.219607843137" d="M9.4 0.85 L10.45 5.05 11.45 7.15 11.5 7.55 Q11.3 11.15 10.35 14.9 L10.05 15.4 9.5 15.6 9.05 15.5 8.35 17.85 8.1 18.25 5.2 20.6 4.6 20.8 Q4.3 20.8 4.1 20.6 L3.75 20.1 Q3.05 17.5 2.75 14.25 2.2 8.15 0.05 1.65 L0.0 1.15 0.3 0.7 Q0.45 0.5 0.75 0.45 L8.65 0.25 9.1 0.45 9.4 0.85"/></g><g id="c22"><path fill="#946c1d" stroke="none" d="M14.15 1.35 L14.7 0.95 Q16.75 1.4 16.9 3.6 L15.75 5.8 Q14.75 7.3 13.2 8.25 L10.25 8.6 Q6.05 8.75 2.55 6.6 L1.65 6.05 Q-0.25 3.45 2.7 1.95 4.45 3.15 7.2 3.35 L11.4 3.25 14.15 1.35 Q16.5 2.3 15.75 5.8 16.5 2.3 14.15 1.35 M12.45 6.0 Q13.55 5.6 13.55 5.1 13.55 4.6 12.45 4.2 L12.35 4.2 9.75 3.85 7.1 4.2 Q6.0 4.6 6.0 5.1 6.0 5.65 7.1 6.0 L9.75 6.4 12.45 6.0 Q12.2 7.95 10.25 8.6 12.2 7.95 12.45 6.0 M11.4 3.25 Q12.1 3.45 12.35 4.2 12.1 3.45 11.4 3.25 M7.2 3.35 Q6.3 3.5 5.15 5.05 4.05 6.55 2.55 6.6 4.05 6.55 5.15 5.05 6.3 3.5 7.2 3.35"/><path fill="#c3963e" stroke="none" d="M12.35 4.2 L12.45 4.2 Q13.55 4.6 13.55 5.1 13.55 5.6 12.45 6.0 L9.75 6.4 7.1 6.0 Q6.0 5.65 6.0 5.1 6.0 4.6 7.1 4.2 L9.75 3.85 12.35 4.2 Q12.6 4.8 12.5 5.75 L12.45 6.0 12.5 5.75 Q12.6 4.8 12.35 4.2"/><path fill="none" stroke="#000000" stroke-width="0.5" stroke-opacity="0.301960784314" d="M14.15 1.35 L14.7 0.95 Q16.75 1.4 16.9 3.6 L15.75 5.8 Q14.75 7.3 13.2 8.25 L10.25 8.6 Q6.05 8.75 2.55 6.6 L1.65 6.05 Q-0.25 3.45 2.7 1.95 4.45 3.15 7.2 3.35 L11.4 3.25 14.15 1.35 Q16.5 2.3 15.75 5.8 M12.45 6.0 Q12.2 7.95 10.25 8.6 M12.35 4.2 Q12.1 3.45 11.4 3.25 M12.35 4.2 Q12.6 4.8 12.5 5.75 L12.45 6.0 M2.55 6.6 Q4.05 6.55 5.15 5.05 6.3 3.5 7.2 3.35"/><path fill="#78f5f5" fill-opacity="0.2" d="M17.75 3.95 L16.55 6.35 Q15.4 8.0 13.7 9.05 L13.4 9.15 10.3 9.5 Q5.8 9.65 2.05 7.4 L1.1 6.8 0.9 6.6 Q-0.35 4.9 0.1 3.5 0.4 2.1 2.3 1.1 L2.8 1.0 3.25 1.15 Q4.85 2.2 7.3 2.45 L11.05 2.35 14.2 0.2 14.55 0.05 14.9 0.05 Q17.65 0.6 17.8 3.55 L17.75 3.95"/><path fill="none" stroke="#ffffff" stroke-width="0.5" stroke-opacity="0.219607843137" d="M17.75 3.95 L16.55 6.35 Q15.4 8.0 13.7 9.05 L13.4 9.15 10.3 9.5 Q5.8 9.65 2.05 7.4 L1.1 6.8 0.9 6.6 Q-0.35 4.9 0.1 3.5 0.4 2.1 2.3 1.1 L2.8 1.0 3.25 1.15 Q4.85 2.2 7.3 2.45 L11.05 2.35 14.2 0.2 14.55 0.05 14.9 0.05 Q17.65 0.6 17.8 3.55 L17.75 3.95"/></g><g id="c23"><path fill="#9a180c" stroke="none" d="M9.2 4.65 L16.4 4.9 Q17.55 5.05 16.4 6.3 15.3 7.6 13.4 8.25 10.85 9.15 7.9 8.2 8.15 6.25 9.2 4.65"/><path fill="none" stroke="#000000" stroke-width="0.5" stroke-opacity="0.301960784314" d="M9.2 4.65 L16.4 4.9 Q17.55 5.05 16.4 6.3 15.3 7.6 13.4 8.25 10.85 9.15 7.9 8.2 8.15 6.25 9.2 4.65"/><path fill="#9a180c" stroke="none" d="M0.9 6.25 Q2.5 5.45 3.5 5.3 L5.6 7.25 Q5.0 8.65 2.2 9.65 L1.55 9.25 Q0.95 7.8 0.9 6.25"/><path fill="none" stroke="#000000" stroke-width="0.5" stroke-opacity="0.301960784314" d="M0.9 6.25 Q2.5 5.45 3.5 5.3 L5.6 7.25 Q5.0 8.65 2.2 9.65 L1.55 9.25 Q0.95 7.8 0.9 6.25"/><path fill="#ad994a" stroke="none" d="M4.8 1.3 L8.2 1.1 10.75 3.9 Q12.4 6.35 11.9 9.4 5.7 10.35 2.75 8.3 2.45 7.1 2.5 5.25 2.9 2.9 4.8 1.3"/><path fill="none" stroke="#000000" stroke-width="0.5" stroke-opacity="0.301960784314" d="M4.8 1.3 L8.2 1.1 10.75 3.9 Q12.4 6.35 11.9 9.4 5.7 10.35 2.75 8.3 2.45 7.1 2.5 5.25 2.9 2.9 4.8 1.3"/><path fill="#9a180c" stroke="none" d="M2.25 7.5 Q7.6 9.6 10.6 8.85 12.1 7.95 12.75 6.8 L16.55 6.3 Q14.15 9.05 11.85 10.35 7.5 11.1 2.15 9.6 1.95 8.55 2.25 7.5"/><path fill="none" stroke="#000000" stroke-width="0.5" stroke-opacity="0.301960784314" d="M2.25 7.5 Q7.6 9.6 10.6 8.85 12.1 7.95 12.75 6.8 M16.55 6.3 Q14.15 9.05 11.85 10.35 7.5 11.1 2.15 9.6"/><path fill="#78f5f5" fill-opacity="0.2" d="M0.5 5.45 L1.6 4.9 Q2.1 2.35 4.2 0.6 L4.5 0.45 8.45 0.2 8.9 0.45 11.45 3.25 11.5 3.4 11.6 3.5 16.5 4.05 Q17.9 4.25 17.85 5.25 18.05 5.9 17.2 6.85 L17.05 7.0 16.9 7.2 Q14.55 9.85 12.25 11.1 L11.95 11.2 Q7.6 12.0 2.3 10.6 L2.05 10.6 Q1.35 10.5 0.8 9.8 L0.7 9.6 Q0.05 8.0 0.0 6.3 L0.1 5.8 0.5 5.45"/><path fill="none" stroke="#ffffff" stroke-width="0.5" stroke-opacity="0.219607843137" d="M0.5 5.45 L1.6 4.9 Q2.1 2.35 4.2 0.6 L4.5 0.45 8.45 0.2 8.9 0.45 11.45 3.25 11.5 3.4 11.6 3.5 16.5 4.05 Q17.9 4.25 17.85 5.25 18.05 5.9 17.2 6.85 L17.05 7.0 16.9 7.2 Q14.55 9.85 12.25 11.1 L11.95 11.2 Q7.6 12.0 2.3 10.6 L2.05 10.6 Q1.35 10.5 0.8 9.8 L0.7 9.6 Q0.05 8.0 0.0 6.3 L0.1 5.8 0.5 5.45"/></g><radialGradient gradientUnits="userSpaceOnUse" r="819.2" cx="0" cy="0" spreadMethod="pad" gradientTransform="matrix(0.0133819580078,0.0,0.0,0.0133819580078,21.8,0.5)" id="gradient6"><stop offset="0.549019607843" stop-color="#866b3d"/><stop offset="1.0" stop-color="#564f30"/></radialGradient><g id="c24"><path fill="#a11904" stroke="none" d="M3.95 5.5 Q8.5 6.1 12.3 10.4 13.4 16.75 10.6 22.05 5.7 21.65 3.05 17.3 2.15 11.4 3.95 5.5"/><path fill="none" stroke="#000000" stroke-width="0.5" stroke-opacity="0.301960784314" d="M3.95 5.5 Q8.5 6.1 12.3 10.4 13.4 16.75 10.6 22.05 5.7 21.65 3.05 17.3 2.15 11.4 3.95 5.5"/><path fill="#ad994a" stroke="none" d="M2.8 22.4 Q4.15 20.35 3.25 17.2 8.3 17.15 10.75 20.55 10.05 21.9 8.9 22.6 7.8 23.3 7.55 23.75 L7.75 24.35 Q4.3 24.75 2.8 22.4"/><path fill="none" stroke="#000000" stroke-width="0.5" stroke-opacity="0.301960784314" d="M2.8 22.4 Q4.15 20.35 3.25 17.2 8.3 17.15 10.75 20.55 10.05 21.9 8.9 22.6 7.8 23.3 7.55 23.75 L7.75 24.35"/><path fill="#564f30" stroke="none" d="M1.1 13.1 Q2.1 9.2 6.35 5.4 8.5 3.5 11.5 2.0 17.65 0.55 23.3 3.25 L23.65 3.85 Q22.9 15.4 12.9 19.6 6.25 18.85 1.1 13.1"/><path fill="#473819" stroke="none" d="M0.9 14.0 L1.1 13.1 Q6.25 18.85 12.9 19.6 22.9 15.4 23.65 3.85 26.25 8.6 25.75 12.5 19.6 19.85 11.0 21.5 9.95 21.15 9.0 20.45 5.75 19.6 3.85 17.9 1.9 16.2 0.9 14.0"/><path fill="none" stroke="#000000" stroke-width="0.5" stroke-opacity="0.301960784314" d="M0.9 14.0 L1.1 13.1 Q2.1 9.2 6.35 5.4 8.5 3.5 11.5 2.0 17.65 0.55 23.3 3.25 L23.65 3.85 Q26.25 8.6 25.75 12.5 19.6 19.85 11.0 21.5"/><path fill="#464027" stroke="none" d="M27.25 7.75 Q27.3 10.35 20.0 14.3 18.9 14.1 17.8 11.55 L17.25 9.95 Q22.3 10.05 27.25 7.75"/><path stroke="none" fill="url(#gradient6)" d="M19.2 2.75 L22.85 3.9 Q27.15 5.1 27.25 7.7 L27.25 7.75 Q22.3 10.05 17.25 9.95 16.8 8.05 17.1 5.9 17.5 2.85 19.2 2.75"/><path fill="none" stroke="#000000" stroke-width="0.5" stroke-opacity="0.301960784314" d="M19.2 2.75 L22.85 3.9 Q27.15 5.1 27.25 7.7 L27.25 7.75 Q27.3 10.35 20.0 14.3"/><path fill="#e3c688" stroke="none" d="M6.45 6.95 L6.65 6.4 Q9.5 5.55 12.45 5.05 L11.3 8.45 15.5 8.85 Q14.8 10.9 13.55 12.7 15.25 13.55 16.75 14.85 15.05 16.7 12.7 17.9 L14.8 18.6 Q13.25 19.9 10.75 20.75 12.1 16.3 11.4 12.65 9.25 9.25 6.45 6.95"/><path fill="#df5b2b" stroke="none" d="M10.75 20.75 Q13.25 19.9 14.8 18.6 L12.7 17.9 Q15.05 16.7 16.75 14.85 15.25 13.55 13.55 12.7 14.8 10.9 15.5 8.85 L11.3 8.45 12.45 5.05 Q9.5 5.55 6.65 6.4 L6.45 6.95 4.95 5.75 Q4.3 5.8 3.95 5.5 L8.6 0.95 Q12.2 2.0 15.4 6.35 18.0 10.7 16.95 16.05 15.65 18.9 13.45 21.35 L10.6 22.1 Q10.35 21.95 10.35 21.65 L10.75 20.75"/><path fill="none" stroke="#000000" stroke-width="0.5" stroke-opacity="0.301960784314" d="M6.45 6.95 Q9.25 9.25 11.4 12.65 12.1 16.3 10.75 20.75 L10.35 21.65 M10.6 22.1 L13.45 21.35 Q15.65 18.9 16.95 16.05 18.0 10.7 15.4 6.35 12.2 2.0 8.6 0.95 L3.95 5.5 M4.95 5.75 L6.45 6.95"/><path fill="#78f5f5" fill-opacity="0.2" d="M0.2 12.85 Q0.75 10.7 2.25 8.55 L3.05 5.25 3.25 4.85 7.95 0.3 8.4 0.05 8.85 0.1 Q10.05 0.45 11.25 1.15 L11.3 1.15 Q17.75 -0.45 23.7 2.45 L24.15 2.8 24.45 3.4 Q27.2 8.45 26.65 12.65 L26.45 13.1 Q21.3 19.25 14.55 21.5 L14.1 22.0 13.65 22.3 10.8 23.0 10.5 23.0 10.0 22.95 9.4 23.4 Q8.85 23.75 8.55 24.0 L8.65 24.5 8.4 25.0 7.85 25.3 Q3.75 25.75 2.0 22.9 L1.85 22.4 Q1.85 22.1 2.0 21.9 2.95 20.45 2.55 18.35 L2.25 17.85 2.1 17.5 Q0.85 16.1 0.05 14.35 L0.0 13.8 0.2 12.85 M9.7 22.35 Q11.55 17.25 10.8 12.85 8.05 8.5 4.5 6.2 8.05 8.5 10.8 12.85 11.55 17.25 9.7 22.35 M14.55 21.5 L17.6 16.1 Q18.15 10.95 16.3 6.85 14.05 3.15 11.25 1.15 14.05 3.15 16.3 6.85 18.15 10.95 17.6 16.1 L14.55 21.5"/><path fill="none" stroke="#ffffff" stroke-width="0.5" stroke-opacity="0.219607843137" d="M0.2 12.85 Q0.75 10.7 2.25 8.55 L3.05 5.25 3.25 4.85 7.95 0.3 8.4 0.05 8.85 0.1 Q10.05 0.45 11.25 1.15 L11.3 1.15 Q17.75 -0.45 23.7 2.45 L24.15 2.8 24.45 3.4 Q27.2 8.45 26.65 12.65 L26.45 13.1 Q21.3 19.25 14.55 21.5 L14.1 22.0 13.65 22.3 10.8 23.0 10.5 23.0 10.0 22.95 9.4 23.4 Q8.85 23.75 8.55 24.0 L8.65 24.5 8.4 25.0 7.85 25.3 Q3.75 25.75 2.0 22.9 L1.85 22.4 Q1.85 22.1 2.0 21.9 2.95 20.45 2.55 18.35 L2.25 17.85 2.1 17.5 Q0.85 16.1 0.05 14.35 L0.0 13.8 0.2 12.85"/><path fill="none" stroke="#ffffff" stroke-width="0.5" stroke-opacity="0.219607843137" d="M11.25 1.15 Q14.05 3.15 16.3 6.85 18.15 10.95 17.6 16.1 L14.55 21.5 M4.5 6.2 Q8.05 8.5 10.8 12.85 11.55 17.25 9.7 22.35"/><path fill="#78f5f5" fill-opacity="0.2" d="M19.15 1.85 L19.5 1.9 23.1 3.0 Q28.2 4.45 28.15 7.7 L28.15 7.75 Q28.4 10.8 20.6 14.75 L19.55 14.2 Q17.4 12.4 16.9 8.15 16.9 3.3 18.6 2.9 18.8 2.1 19.15 1.85"/><path fill="none" stroke="#ffffff" stroke-width="0.5" stroke-opacity="0.219607843137" d="M19.15 1.85 L19.5 1.9 23.1 3.0 Q28.2 4.45 28.15 7.7 L28.15 7.75 Q28.4 10.8 20.6 14.75"/></g><g id="c25"><path fill="#7d481c" stroke="none" d="M0.95 4.1 Q2.0 2.2 4.15 0.9 5.05 4.05 3.2 7.45 0.95 6.45 0.95 4.1"/><path fill="none" stroke="#000000" stroke-width="0.5" stroke-opacity="0.301960784314" d="M0.95 4.1 Q2.0 2.2 4.15 0.9 5.05 4.05 3.2 7.45 0.95 6.45 0.95 4.1"/><path fill="#78f5f5" fill-opacity="0.2" d="M2.7 8.35 Q0.0 7.15 0.0 4.3 L0.15 3.8 Q1.35 1.65 3.8 0.15 L4.3 0.0 4.8 0.1 5.05 0.5 Q6.05 3.95 4.05 7.75 L3.7 8.15 3.15 8.4 2.7 8.35"/><path fill="none" stroke="#ffffff" stroke-width="0.5" stroke-opacity="0.219607843137" d="M2.7 8.35 Q0.0 7.15 0.0 4.3 L0.15 3.8 Q1.35 1.65 3.8 0.15 L4.3 0.0 4.8 0.1 5.05 0.5 Q6.05 3.95 4.05 7.75 L3.7 8.15 3.15 8.4 2.7 8.35"/></g><g id="c26"><path fill="#f5f2e2" stroke="none" d="M2.85 17.55 Q2.95 16.45 3.35 16.05 L3.7 16.05 Q7.2 15.8 9.45 14.8 11.75 13.8 13.35 13.95 L13.9 14.0 14.2 14.05 Q12.55 15.95 10.35 17.25 L6.7 18.9 10.35 17.25 Q13.15 16.05 15.25 14.3 L15.8 14.45 15.9 14.7 Q16.65 17.0 16.25 18.6 14.85 19.35 12.85 19.9 9.7 19.7 6.7 18.9 L2.85 17.55"/><path fill="#c1b367" stroke="none" d="M14.2 14.05 L13.9 14.0 13.35 13.95 Q11.75 13.8 9.45 14.8 7.2 15.8 3.7 16.05 L3.35 16.05 Q2.95 16.45 2.85 17.55 L1.7 17.05 Q1.3 15.7 1.5 13.6 8.7 14.85 13.55 11.15 8.7 14.85 1.5 13.6 L1.6 13.1 Q1.05 10.8 1.05 8.5 L13.55 11.15 14.25 11.3 15.1 13.0 14.2 14.05 15.1 13.0 15.8 14.45 15.25 14.3 Q13.15 16.05 10.35 17.25 12.55 15.95 14.2 14.05"/><path fill="none" stroke="#000000" stroke-width="0.5" stroke-opacity="0.301960784314" d="M14.2 14.05 L15.1 13.0 14.25 11.3 13.55 11.15 Q8.7 14.85 1.5 13.6 1.3 15.7 1.7 17.05 L2.85 17.55 6.7 18.9 10.35 17.25 Q12.55 15.95 14.2 14.05 M1.5 13.6 L1.6 13.1 Q1.05 10.8 1.05 8.5 L13.55 11.15 M15.8 14.45 L15.9 14.7 Q16.65 17.0 16.25 18.6 14.85 19.35 12.85 19.9 9.7 19.7 6.7 18.9 M15.8 14.45 L15.1 13.0"/><path fill="#df5b2b" stroke="none" d="M14.9 6.8 Q14.05 5.65 12.8 4.6 14.65 4.9 15.4 6.0 L14.9 6.8"/><path fill="#b3461b" stroke="none" d="M12.8 4.6 Q14.05 5.65 14.9 6.8 13.55 8.65 11.75 9.1 9.05 6.65 10.25 4.6 11.7 4.45 12.8 4.6"/><path fill="none" stroke="#000000" stroke-width="0.5" stroke-opacity="0.301960784314" d="M14.9 6.8 L15.4 6.0 Q14.65 4.9 12.8 4.6 11.7 4.45 10.25 4.6 9.05 6.65 11.75 9.1 13.55 8.65 14.9 6.8"/><path fill="#df5b2b" stroke="none" d="M4.85 3.4 Q6.4 6.55 3.65 8.95 1.6 8.45 0.15 6.35 L0.0 5.9 Q2.15 4.15 4.85 3.4"/><path fill="none" stroke="#000000" stroke-width="0.5" stroke-opacity="0.301960784314" d="M4.85 3.4 Q2.15 4.15 0.0 5.9 L0.15 6.35 Q1.6 8.45 3.65 8.95 6.4 6.55 4.85 3.4"/><path fill="#f5f2e2" stroke="none" d="M13.15 11.45 Q12.8 7.25 11.15 4.6 9.55 3.2 7.65 2.15 6.15 1.35 4.45 0.8 6.15 1.35 7.65 2.15 9.55 3.2 11.15 4.6 12.8 7.25 13.15 11.45 6.3 10.9 3.1 9.45 0.75 8.3 0.45 6.65 0.9 3.75 2.5 1.75 3.4 1.2 4.45 0.8 6.35 0.1 8.75 0.0 11.45 1.1 13.65 4.8 14.3 8.1 14.2 11.5 L13.15 11.45 M7.65 2.15 Q4.9 4.8 3.1 9.45 4.9 4.8 7.65 2.15"/><path fill="none" stroke="#000000" stroke-width="0.5" stroke-opacity="0.301960784314" d="M4.45 0.8 Q6.15 1.35 7.65 2.15 9.55 3.2 11.15 4.6 12.8 7.25 13.15 11.45 L14.2 11.5 Q14.3 8.1 13.65 4.8 11.45 1.1 8.75 0.0 6.35 0.1 4.45 0.8 3.4 1.2 2.5 1.75 0.9 3.75 0.45 6.65 0.75 8.3 3.1 9.45 4.9 4.8 7.65 2.15 M13.15 11.45 Q6.3 10.9 3.1 9.45"/><path fill="#df5b2b" stroke="none" d="M0.05 6.0 L0.5 5.9 Q3.7 7.4 7.45 8.2 11.45 7.85 14.45 6.0 L15.4 6.0 15.15 7.85 14.65 7.25 13.7 11.85 Q12.75 9.85 11.45 8.25 10.75 10.35 9.4 12.15 L7.3 9.25 4.75 11.4 Q2.85 10.75 0.75 9.65 0.15 7.8 0.05 6.0"/><path fill="#e7dfab" stroke="none" d="M15.15 7.85 L14.85 9.65 15.9 11.85 Q10.95 13.65 4.75 11.4 L7.3 9.25 9.4 12.15 Q10.75 10.35 11.45 8.25 12.75 9.85 13.7 11.85 L14.65 7.25 15.15 7.85 M14.75 10.05 L14.85 9.65 14.75 10.05"/><path fill="#ca8f41" stroke="none" d="M15.9 11.85 L16.0 12.15 15.3 12.7 7.95 13.0 4.3 11.75 4.75 11.4 Q10.95 13.65 15.9 11.85"/><path fill="#b3461b" stroke="none" d="M4.3 11.75 L1.0 10.4 0.75 9.65 Q2.85 10.75 4.75 11.4 L4.3 11.75"/><path fill="none" stroke="#000000" stroke-width="0.5" stroke-opacity="0.301960784314" d="M0.5 5.9 Q3.7 7.4 7.45 8.2 11.45 7.85 14.45 6.0 M15.4 6.0 L15.15 7.85 14.85 9.65 15.9 11.85 16.0 12.15 15.3 12.7 7.95 13.0 4.3 11.75 1.0 10.4 0.75 9.65 Q0.15 7.8 0.05 6.0 M14.85 9.65 L14.75 10.05"/></g><g id="c27"><path fill="#78f5f5" fill-opacity="0.2" d="M10.05 1.3 Q12.85 2.45 15.1 6.15 16.4 6.6 17.1 7.6 L17.25 8.25 17.0 10.15 16.75 11.65 17.65 13.6 17.65 13.65 17.75 13.85 17.85 14.45 17.5 15.0 17.1 15.3 17.65 16.4 17.7 16.55 Q18.5 19.15 18.1 20.95 L17.9 21.3 17.6 21.55 14.05 22.9 13.75 22.95 7.35 21.9 3.4 20.55 2.2 20.05 1.9 19.8 1.7 19.45 Q1.25 17.95 1.5 15.65 L1.55 15.25 1.2 13.05 1.05 12.85 0.8 12.05 Q0.2 10.15 0.05 8.35 L0.0 8.25 0.05 8.3 0.0 8.05 0.1 7.65 0.35 7.3 0.85 6.95 Q1.45 4.9 2.65 3.35 L2.9 3.15 Q3.9 2.5 5.05 2.1 7.05 1.4 9.65 1.25 L10.05 1.3"/><path fill="none" stroke="#ffffff" stroke-width="0.5" stroke-opacity="0.219607843137" d="M10.05 1.3 Q12.85 2.45 15.1 6.15 16.4 6.6 17.1 7.6 L17.25 8.25 17.0 10.15 16.75 11.65 17.65 13.6 17.65 13.65 17.75 13.85 17.85 14.45 17.5 15.0 17.1 15.3 17.65 16.4 17.7 16.55 Q18.5 19.15 18.1 20.95 L17.9 21.3 17.6 21.55 14.05 22.9 13.75 22.95 7.35 21.9 3.4 20.55 2.2 20.05 1.9 19.8 1.7 19.45 Q1.25 17.95 1.5 15.65 L1.55 15.25 1.2 13.05 1.05 12.85 0.8 12.05 Q0.2 10.15 0.05 8.35 L0.0 8.25 0.05 8.3 0.0 8.05 0.1 7.65 0.35 7.3 0.85 6.95 Q1.45 4.9 2.65 3.35 L2.9 3.15 Q3.9 2.5 5.05 2.1 7.05 1.4 9.65 1.25 L10.05 1.3"/></g><g id="c28"><path fill="#7d481c" stroke="none" d="M4.7 2.15 Q4.65 4.2 2.5 5.55 0.6 3.6 1.1 1.0 3.55 0.8 4.7 2.15"/><path fill="none" stroke="#000000" stroke-width="0.5" stroke-opacity="0.301960784314" d="M4.7 2.15 Q3.55 0.8 1.1 1.0 0.6 3.6 2.5 5.55 4.65 4.2 4.7 2.15"/><path fill="#78f5f5" fill-opacity="0.2" d="M5.35 1.5 Q5.35 4.6 2.25 6.4 L1.8 6.15 Q-0.45 3.85 0.15 0.8 L0.45 0.3 Q0.7 0.1 1.0 0.05 4.0 -0.2 5.35 1.5"/><path fill="none" stroke="#ffffff" stroke-width="0.5" stroke-opacity="0.219607843137" d="M5.35 1.5 Q4.0 -0.2 1.0 0.05 0.7 0.1 0.45 0.3 L0.15 0.8 Q-0.45 3.85 1.8 6.15 L2.25 6.4"/></g><radialGradient gradientUnits="userSpaceOnUse" r="819.2" cx="0" cy="0" spreadMethod="pad" gradientTransform="matrix(0.00395202636719,-0.000335693359375,0.00067138671875,0.00680541992188,9.1,9.4)" id="gradient7"><stop offset="0.549019607843" stop-color="#998c52"/><stop offset="1.0" stop-color="#cac2b9"/></radialGradient><radialGradient gradientUnits="userSpaceOnUse" r="819.2" cx="0" cy="0" spreadMethod="pad" gradientTransform="matrix(0.00444030761719,0.00119018554688,-0.00173950195312,0.00654602050781,4.15,7.85)" id="gradient8"><stop offset="0.549019607843" stop-color="#998c52"/><stop offset="1.0" stop-color="#cac2b9"/></radialGradient><g id="c29"><path fill="#f6f7e1" stroke="none" d="M8.45 9.55 Q8.5 11.8 8.9 15.35 9.75 19.65 12.3 23.25 9.85 15.6 9.65 9.4 L8.45 9.55 M7.8 9.35 L9.75 9.35 Q11.25 18.95 16.15 31.85 11.7 26.8 9.35 19.4 8.3 13.4 7.8 9.35"/><path stroke="none" fill="url(#gradient7)" d="M8.45 9.55 L9.65 9.4 Q9.85 15.6 12.3 23.25 9.75 19.65 8.9 15.35 8.5 11.8 8.45 9.55"/><path fill="none" stroke="#000000" stroke-width="0.5" stroke-opacity="0.301960784314" d="M7.8 9.35 Q8.3 13.4 9.35 19.4 11.7 26.8 16.15 31.85 11.25 18.95 9.75 9.35 L7.8 9.35"/><path fill="#f6f7e1" stroke="none" d="M1.7 13.25 Q1.05 17.55 2.55 21.85 2.65 13.85 4.7 8.05 L5.0 8.1 Q3.1 15.75 3.25 26.4 0.4 20.85 1.15 15.45 L1.7 13.25"/><path stroke="none" fill="url(#gradient8)" d="M1.7 13.25 L3.35 7.75 4.7 8.05 Q2.65 13.85 2.55 21.85 1.05 17.55 1.7 13.25"/><path fill="none" stroke="#000000" stroke-width="0.5" stroke-opacity="0.301960784314" d="M4.7 8.05 L3.35 7.75 1.7 13.25 M4.7 8.05 L5.0 8.1 Q3.1 15.75 3.25 26.4 0.4 20.85 1.15 15.45 L1.7 13.25"/><path fill="#edead6" stroke="none" d="M11.55 8.35 L11.5 7.75 11.6 7.3 12.25 6.45 11.6 7.3 11.5 7.75 11.55 8.35 11.45 9.9 11.2 11.3 8.2 11.1 7.95 10.5 Q6.4 10.7 5.4 9.95 3.85 10.0 3.25 9.25 1.75 9.5 1.05 8.35 L1.0 6.35 Q0.85 4.3 1.1 2.8 1.7 1.55 2.85 0.95 L9.15 1.25 Q11.1 1.75 13.1 3.95 13.45 5.3 13.15 6.65 12.65 7.5 11.55 8.35 M11.5 7.75 Q4.15 5.1 2.85 0.95 4.15 5.1 11.5 7.75 M11.45 9.9 Q5.2 10.15 1.0 6.35 5.2 10.15 11.45 9.9"/><path fill="none" stroke="#000000" stroke-width="0.5" stroke-opacity="0.301960784314" d="M12.25 6.45 L11.6 7.3 11.5 7.75 11.55 8.35 Q12.65 7.5 13.15 6.65 13.45 5.3 13.1 3.95 11.1 1.75 9.15 1.25 L2.85 0.95 Q4.15 5.1 11.5 7.75 M11.55 8.35 L11.45 9.9 11.2 11.3 8.2 11.1 7.95 10.5 Q6.4 10.7 5.4 9.95 3.85 10.0 3.25 9.25 1.75 9.5 1.05 8.35 L1.0 6.35 Q0.85 4.3 1.1 2.8 1.7 1.55 2.85 0.95 M1.0 6.35 Q5.2 10.15 11.45 9.9"/><path fill="#78f5f5" fill-opacity="0.2" d="M2.85 0.0 L9.15 0.25 9.35 0.3 Q11.55 0.85 13.8 3.3 L14.0 3.7 Q14.4 5.3 14.05 6.85 L13.9 7.1 12.45 8.8 12.35 10.0 12.05 11.45 11.85 11.9 11.35 12.15 11.2 12.2 Q12.9 20.7 17.0 31.55 L17.05 32.15 16.65 32.65 16.0 32.8 15.45 32.45 Q10.9 27.25 8.45 19.7 L8.45 19.6 7.15 11.45 Q6.1 11.4 5.3 11.0 4.05 17.65 4.15 26.4 L4.0 27.0 3.45 27.3 2.85 27.25 2.4 26.85 Q-0.55 21.0 0.25 15.3 L0.25 15.2 0.8 13.0 1.65 10.05 Q0.75 9.7 0.2 8.85 L0.05 8.35 0.05 6.35 Q-0.1 4.2 0.15 2.6 L0.25 2.35 Q1.0 0.85 2.35 0.1 L2.85 0.0"/><path fill="none" stroke="#ffffff" stroke-width="0.5" stroke-opacity="0.219607843137" d="M2.85 0.0 L9.15 0.25 9.35 0.3 Q11.55 0.85 13.8 3.3 L14.0 3.7 Q14.4 5.3 14.05 6.85 L13.9 7.1 12.45 8.8 12.35 10.0 12.05 11.45 11.85 11.9 11.35 12.15 11.2 12.2 Q12.9 20.7 17.0 31.55 L17.05 32.15 16.65 32.65 16.0 32.8 15.45 32.45 Q10.9 27.25 8.45 19.7 L8.45 19.6 7.15 11.45 Q6.1 11.4 5.3 11.0 4.05 17.65 4.15 26.4 L4.0 27.0 3.45 27.3 2.85 27.25 2.4 26.85 Q-0.55 21.0 0.25 15.3 L0.25 15.2 0.8 13.0 1.65 10.05 Q0.75 9.7 0.2 8.85 L0.05 8.35 0.05 6.35 Q-0.1 4.2 0.15 2.6 L0.25 2.35 Q1.0 0.85 2.35 0.1 L2.85 0.0"/></g><g id="c30"><path fill="#564f30" stroke="none" d="M1.2 6.6 L1.1 4.2 Q2.55 2.1 4.6 1.15 6.55 0.75 8.4 1.15 9.0 1.75 9.75 3.5 L10.0 6.35 1.2 6.6"/><path fill="#edead6" stroke="none" d="M10.0 6.35 L10.5 6.45 10.8 8.95 10.9 12.3 10.8 14.4 Q5.45 16.3 2.6 14.5 L2.35 13.05 Q1.5 10.05 0.95 6.95 L1.2 6.6 10.0 6.35 M10.9 12.3 Q8.6 11.95 7.55 11.0 5.05 12.35 2.35 13.05 5.05 12.35 7.55 11.0 L10.8 8.95 7.55 11.0 Q8.6 11.95 10.9 12.3"/><path fill="none" stroke="#000000" stroke-width="0.5" stroke-opacity="0.301960784314" d="M1.2 6.6 L1.1 4.2 Q2.55 2.1 4.6 1.15 6.55 0.75 8.4 1.15 9.0 1.75 9.75 3.5 L10.0 6.35 10.5 6.45 10.8 8.95 10.9 12.3 10.8 14.4 Q5.45 16.3 2.6 14.5 L2.35 13.05 Q1.5 10.05 0.95 6.95 L1.2 6.6 10.0 6.35 M2.35 13.05 Q5.05 12.35 7.55 11.0 L10.8 8.95 M7.55 11.0 Q8.6 11.95 10.9 12.3"/><path fill="#78f5f5" fill-opacity="0.2" d="M1.55 14.0 L1.4 13.3 Q0.55 10.25 0.0 7.1 -0.05 6.7 0.15 6.4 L0.2 6.35 0.15 4.15 0.3 3.65 Q1.95 1.35 4.2 0.3 L4.4 0.25 Q6.55 -0.2 8.55 0.25 L9.05 0.5 Q9.7 1.15 10.55 3.1 L10.65 3.3 10.85 5.55 11.15 5.75 11.4 6.3 11.7 8.85 11.8 12.25 11.85 13.95 Q5.55 16.95 1.55 14.0"/><path fill="none" stroke="#ffffff" stroke-width="0.5" stroke-opacity="0.219607843137" d="M1.55 14.0 L1.4 13.3 Q0.55 10.25 0.0 7.1 -0.05 6.7 0.15 6.4 L0.2 6.35 0.15 4.15 0.3 3.65 Q1.95 1.35 4.2 0.3 L4.4 0.25 Q6.55 -0.2 8.55 0.25 L9.05 0.5 Q9.7 1.15 10.55 3.1 L10.65 3.3 10.85 5.55 11.15 5.75 11.4 6.3 11.7 8.85 11.8 12.25 11.85 13.95"/></g><g id="c31"><path fill="#564f30" stroke="none" d="M5.2 16.25 Q2.7 15.75 0.85 14.15 L2.9 11.15 5.0 9.05 Q4.75 4.85 5.5 2.8 7.2 1.3 9.35 0.55 13.35 1.2 14.85 4.8 14.1 6.75 12.55 7.85 10.45 8.75 7.95 8.95 7.25 13.4 5.2 16.25"/><path fill="#3f3519" stroke="none" d="M14.85 4.8 L15.3 5.95 14.3 8.4 Q12.05 9.7 9.65 10.15 L5.65 16.05 5.2 16.25 Q7.25 13.4 7.95 8.95 10.45 8.75 12.55 7.85 14.1 6.75 14.85 4.8"/><path fill="none" stroke="#000000" stroke-width="0.5" stroke-opacity="0.301960784314" d="M15.3 5.95 L14.3 8.4 Q12.05 9.7 9.65 10.15 L5.65 16.05 M0.85 14.15 L2.9 11.15 5.0 9.05 Q4.75 4.85 5.5 2.8 7.2 1.3 9.35 0.55"/><path fill="#78f5f5" fill-opacity="0.2" d="M8.1 0.0 Q14.65 0.95 16.05 6.6 L15.05 8.85 14.75 9.15 Q12.5 10.45 10.2 10.95 L7.3 15.1 6.2 16.25 Q2.65 16.85 0.0 13.65 L0.05 13.6 2.1 10.6 2.2 10.5 4.05 8.65 Q3.8 4.55 4.6 2.45 L4.85 2.05 Q6.35 0.8 8.1 0.0"/><path fill="none" stroke="#ffffff" stroke-width="0.5" stroke-opacity="0.219607843137" d="M8.1 0.0 Q6.35 0.8 4.85 2.05 L4.6 2.45 Q3.8 4.55 4.05 8.65 L2.2 10.5 2.1 10.6 0.05 13.6 0.0 13.65 M7.3 15.1 L10.2 10.95 Q12.5 10.45 14.75 9.15 L15.05 8.85 16.05 6.6"/></g><g id="c32"><g><use transform="matrix(1.0,0.0,0.0,1.0,-21.35,-7.4)" xlink:href="#c1"/></g><g><use transform="matrix(1.0,0.0,0.0,1.0,-29.4,-72.0)" xlink:href="#c2"/></g><g><use transform="matrix(1.0,0.0,0.0,1.0,-30.3,-74.2)" xlink:href="#c3"/></g><g><use transform="matrix(1.0,0.0,0.0,1.0,-0.05,-85.2)" xlink:href="#c4"/></g><g><use transform="matrix(1.0,0.0,0.0,1.0,-25.75,-72.05)" xlink:href="#c5"/></g><g><use transform="matrix(1.0,0.0,0.0,1.0,-26.65,-73.0)" xlink:href="#c6"/></g><g><use transform="matrix(1.0,0.0,0.0,1.0,-20.7,-25.9)" xlink:href="#c7"/></g><g><use transform="matrix(1.0,0.0,0.0,1.0,16.3,-85.4)" xlink:href="#c8"/></g><g><use transform="matrix(1.0,0.0,0.0,1.0,17.55,-85.4)" xlink:href="#c9"/></g><g><use transform="matrix(1.0,0.0,0.0,1.0,0.05,-91.3)" xlink:href="#c10"/></g><g><use transform="matrix(1.0,0.0,0.0,1.0,-38.9,-45.7)" xlink:href="#c11"/></g><g><use transform="matrix(1.0,0.0,0.0,1.0,-28.1,-34.6)" xlink:href="#c12"/></g><g><use transform="matrix(1.0,0.0,0.0,1.0,-28.1,-33.15)" xlink:href="#c13"/></g><g><use transform="matrix(1.0,0.0,0.0,1.0,0.05,-86.15)" xlink:href="#c14"/></g><g><use transform="matrix(1.0,0.0,0.0,1.0,6.6,-65.85)" xlink:href="#c15"/></g><g><use transform="matrix(1.0,0.0,0.0,1.0,14.3,-45.0)" xlink:href="#c16"/></g><g><use transform="matrix(1.0,0.0,0.0,1.0,11.85,-56.35)" xlink:href="#c17"/></g><g><use transform="matrix(1.0,0.0,0.0,1.0,-25.2,-37.15)" xlink:href="#c18"/></g><g><use transform="matrix(1.0,0.0,0.0,1.0,-14.85,-25.75)" xlink:href="#c19"/></g><g><use transform="matrix(1.0,0.0,0.0,1.0,-17.0,-42.15)" xlink:href="#c20"/></g><g><use transform="matrix(1.0,0.0,0.0,1.0,-5.75,-35.2)" xlink:href="#c21"/></g><g><use transform="matrix(1.0,0.0,0.0,1.0,-10.75,-40.7)" xlink:href="#c22"/></g><g><use transform="matrix(1.0,0.0,0.0,1.0,-10.1,-46.9)" xlink:href="#c23"/></g><g><use transform="matrix(1.0,0.0,0.0,1.0,-8.3,-67.85)" xlink:href="#c24"/></g><g><use transform="matrix(1.0,0.0,0.0,1.0,18.25,-70.0)" xlink:href="#c25"/></g><g><use transform="matrix(1.0,0.0,0.0,1.0,9.7,-67.85)" xlink:href="#c26"/></g><g><use transform="matrix(1.0,0.0,0.0,1.0,8.75,-70.0)" xlink:href="#c27"/></g><g><use transform="matrix(1.0,0.0,0.0,1.0,11.4,-66.25)" xlink:href="#c28"/></g><g><use transform="matrix(1.0,0.0,0.0,1.0,-17.15,-32.6)" xlink:href="#c29"/></g><g><use transform="matrix(1.0,0.0,0.0,1.0,-17.85,-44.85)" xlink:href="#c30"/></g><g><use transform="matrix(1.0,0.0,0.0,1.0,-15.1,-57.25)" xlink:href="#c31"/></g></g><g id="c33"><path fill="#000000" fill-opacity="0.00392156862745" d="M0.0 0.0 L60.0 0.0 60.0 60.0 0.0 60.0 0.0 0.0"/></g><g id="c34"><path fill="none" stroke="#000000" stroke-width="1.0" stroke-opacity="0.301960784314" d="M0.7 12.25 Q-0.45 9.75 0.75 8.25 1.2 7.6 2.15 7.15 2.8 6.7 3.8 6.35 L17.5 1.95 30.2 7.0 41.35 31.7 Q42.95 35.15 40.2 36.7 39.5 37.3 38.3 37.65 L25.5 41.8 25.45 41.75 24.55 42.0 11.85 37.0 0.7 12.25"/><path fill="#9d147b" stroke="none" d="M35.55 22.3 L31.5 13.2 29.75 9.2 16.95 4.25 5.5 7.85 Q1.65 9.1 3.35 12.8 L8.25 23.65 13.1 34.35 25.8 39.4 37.2 35.7 Q41.1 34.5 39.35 30.75 L35.55 22.3 M5.45 20.95 L1.35 11.8 Q0.4 9.65 1.1 8.3 1.45 7.65 2.15 7.15 2.8 6.7 3.8 6.35 L17.5 1.95 30.2 7.0 41.35 31.7 Q42.95 35.15 40.2 36.7 L38.9 37.25 25.2 41.65 12.5 36.65 5.45 20.95"/><path fill="#c47fad" stroke="none" d="M31.5 13.2 L35.55 22.3 39.35 30.75 Q41.1 34.5 37.2 35.7 L25.8 39.4 13.1 34.35 8.25 23.65 3.35 12.8 Q1.65 9.1 5.5 7.85 L16.95 4.25 29.75 9.2 31.5 13.2 M18.5 7.45 L9.1 10.55 9.55 11.6 Q9.8 12.8 9.15 13.6 8.4 14.45 7.1 14.4 L6.8 14.4 6.95 14.6 15.2 32.75 23.85 36.2 34.0 32.9 33.7 32.1 Q33.45 30.9 34.1 30.1 34.75 29.3 35.95 29.35 L35.8 29.0 27.75 10.95 18.5 7.45"/><path fill="#fcf2cf" stroke="none" d="M27.75 10.95 L35.8 29.0 35.95 29.35 Q34.75 29.3 34.1 30.1 33.45 30.9 33.7 32.1 L34.0 32.9 23.85 36.2 15.2 32.75 6.95 14.6 6.8 14.4 7.1 14.4 Q8.4 14.45 9.15 13.6 9.8 12.8 9.55 11.6 L9.1 10.55 18.5 7.45 27.75 10.95"/><path fill="#630a4c" stroke="none" d="M1.1 8.3 L0.75 8.25 Q1.2 7.6 2.15 7.15 1.45 7.65 1.1 8.3 M4.6 20.9 L5.45 20.95 12.5 36.65 11.55 36.25 11.25 35.55 4.6 20.9"/><path fill="#300525" stroke="none" d="M1.1 8.3 Q0.4 9.65 1.35 11.8 L5.45 20.95 4.6 20.9 0.7 12.25 Q-0.45 9.75 0.75 8.25 L1.1 8.3 M12.5 36.65 L25.2 41.65 38.9 37.25 40.2 36.7 Q39.5 37.3 38.3 37.65 L25.5 41.8 25.45 41.75 24.55 42.0 11.85 37.0 11.55 36.25 12.5 36.65"/><path fill="none" stroke="#bf9900" stroke-width="1.0" stroke-opacity="0.749019607843" d="M31.5 13.2 L35.55 22.3 M13.1 34.35 L8.25 23.65"/><path fill="none" stroke="#ffcc00" stroke-width="1.0" stroke-opacity="0.749019607843" d="M35.55 22.3 L39.35 30.75 Q41.1 34.5 37.2 35.7 L25.8 39.4 M8.25 23.65 L3.35 12.8 Q1.65 9.1 5.5 7.85 L16.95 4.25 29.75 9.2 31.5 13.2"/><path fill="none" stroke="#f0b92b" stroke-width="0.5" d="M27.75 10.95 L35.8 29.0 35.95 29.35 Q34.75 29.3 34.1 30.1 33.45 30.9 33.7 32.1 L34.0 32.9 23.85 36.2 15.2 32.75 6.95 14.6 6.8 14.4 7.1 14.4 Q8.4 14.45 9.15 13.6 9.8 12.8 9.55 11.6 L9.1 10.55 18.5 7.45"/><path fill="none" stroke="#000000" stroke-width="0.5" stroke-opacity="0.301960784314" d="M5.45 20.95 L1.35 11.8 Q0.4 9.65 1.1 8.3 M0.75 8.25 Q-0.45 9.75 0.7 12.25 L4.6 20.9 M5.45 20.95 L12.5 36.65 M25.2 41.65 L38.9 37.25 40.2 36.7 Q42.95 35.15 41.35 31.7 L30.2 7.0 M17.5 1.95 L3.8 6.35 Q2.8 6.7 2.15 7.15 1.45 7.65 1.1 8.3 M0.75 8.25 Q1.2 7.6 2.15 7.15 M11.25 35.55 L4.6 20.9 M25.5 41.8 L38.3 37.65 Q39.5 37.3 40.2 36.7"/><path fill="none" stroke="#ffcc00" stroke-width="0.5" stroke-opacity="0.749019607843" d="M18.5 7.45 L27.75 10.95"/><path fill="none" stroke="#f0b92b" stroke-width="1.0" stroke-opacity="0.749019607843" d="M25.8 39.4 L13.1 34.35"/><path fill="none" stroke="#432f2f" stroke-width="0.5" d="M12.5 36.65 L25.2 41.65"/></g><g id="c35"><path fill="#7fdbfe" stroke="none" d="M10.75 4.9 Q10.75 4.6 10.9 4.35 11.25 3.45 11.95 2.75 13.3 1.5 14.35 2.1 15.4 2.7 14.95 4.45 14.7 5.4 14.1 6.15 L13.75 6.5 Q13.1 7.15 12.35 7.35 L11.4 7.2 Q10.95 6.9 10.75 6.4 10.5 5.75 10.75 4.9 M7.5 5.9 Q7.0 5.85 6.6 5.5 6.05 5.0 5.8 4.15 L5.7 3.6 Q5.55 2.65 5.8 1.7 6.25 0.0 7.5 0.0 L7.6 0.0 Q8.85 0.0 9.3 1.7 9.55 2.65 9.4 3.6 L9.3 4.15 8.5 5.5 7.6 5.9 7.5 5.9 M4.35 4.9 Q4.6 5.75 4.35 6.4 L3.7 7.2 2.75 7.35 Q2.0 7.15 1.35 6.5 L1.0 6.15 Q0.4 5.4 0.15 4.45 -0.3 2.7 0.75 2.1 1.8 1.5 3.15 2.75 3.85 3.45 4.2 4.35 L4.35 4.9 M5.5 13.7 Q4.45 13.9 3.65 12.95 2.75 12.0 3.2 10.25 3.7 8.5 5.25 7.6 6.4 6.9 7.55 7.0 8.75 6.9 9.9 7.6 11.45 8.5 11.95 10.25 12.35 12.0 11.5 12.95 10.7 13.9 9.65 13.7 8.55 13.5 7.55 12.6 6.55 13.5 5.5 13.7"/></g><g id="c36"><g><use transform="matrix(1.0,0.0,0.0,1.0,0.0,0.0)" xlink:href="#c35"/></g></g><radialGradient gradientUnits="userSpaceOnUse" r="819.2" cx="0" cy="0" spreadMethod="pad" gradientTransform="matrix(0.0914459228516,0.0,0.0,0.0914459228516,0.6,3.4)" id="gradient9"><stop offset="0.0" stop-color="#ffffff"/><stop offset="1.0" stop-color="#ffffff" stop-opacity="0.0"/></radialGradient><g id="c37"><path stroke="none" fill="url(#gradient9)" d="M36.65 -54.65 Q60.05 -42.0 69.75 -17.95 80.55 8.9 68.0 34.1 55.45 59.35 26.8 68.2 -1.8 77.05 -29.7 64.3 -57.6 51.6 -68.45 24.75 -79.3 -2.05 -66.75 -27.25 L-66.7 -27.3 Q-54.1 -52.5 -25.5 -61.4 3.1 -70.2 31.0 -57.5 L36.65 -54.65"/></g><g id="c38"><g><use transform="matrix(1.0,0.0,0.0,1.0,0.0,0.0)" xlink:href="#c37"/></g></g><radialGradient gradientUnits="userSpaceOnUse" r="819.2" cx="0" cy="0" spreadMethod="pad" gradientTransform="matrix(0.209197998047,0.0,0.0,0.177108764648,67.15,107.2)" id="gradient10"><stop offset="0.356862745098" stop-color="#ffffff"/><stop offset="0.670588235294" stop-opacity="0.0"/></radialGradient><g id="c39"><path fill="none" stroke-linejoin="round" stroke-linecap="round" stroke="url(#gradient10)" stroke-width="0.5" d="M136.55 165.8 L68.6 106.0 68.4 106.0 118.25 201.5 M68.3 105.8 L68.35 105.8 68.3 105.8 68.3 105.85 68.4 106.0 68.3 106.0 86.55 211.5 M68.3 105.8 L68.3 105.85 68.3 106.0 68.15 105.95 18.25 151.55 M68.3 105.85 L68.25 105.85 68.3 106.0 50.0 193.2 M68.25 105.85 L68.15 105.95 0.05 97.7 M68.3 105.85 L68.25 105.8 68.25 105.85 M68.25 105.8 L68.2 105.7 0.0 45.7 M68.3 105.8 L68.25 105.75 68.25 105.8 M68.25 105.75 L68.2 105.7 18.25 10.05 M68.6 106.0 L68.35 105.8 118.25 60.15 M86.6 18.35 L68.3 105.8 M136.6 114.25 L68.6 106.0 M68.25 105.75 L49.95 0.05"/></g><g id="c40"><g><use transform="matrix(1.0,0.0,0.0,1.0,0.0,0.0)" xlink:href="#c39"/></g></g><g id="c41"><g><use transform="matrix(1.0,0.0,0.0,1.0,0.0,0.0)" xlink:href="#c34"/></g><g><use transform="matrix(0.238861083984,-0.0867004394531,0.10026550293,0.233917236328,34.25,31.15)" xlink:href="#c36"/></g><g><use transform="matrix(0.238861083984,-0.0867004394531,0.10026550293,0.233917236328,4.25,10.3)" xlink:href="#c36"/></g><g><use transform="matrix(0.141098022461,-0.0378112792969,0.111373901367,0.225646972656,20.25,20.65)" filter="url(#filter38)" xlink:href="#c38"/></g><g><use transform="matrix(-0.155029296875,0.0513153076172,0.0841827392578,0.147033691406,22.6,3.15)" filter="url(#filter39)" xlink:href="#c40"/></g></g><filter id="filter38"><feColorMatrix in="SourceGraphic" type="matrix" values="0.0 0.0 0.0 0.0 0.796875 0.0 0.0 0.0 0.0 0.59765625 0.0 0.0 0.0 0.0 0.19921875 0.0 0.0 0.0 1.0 0.0" result="cxform"/><feComposite operator="in" in2="SourceGraphic" result="color-xform"/></filter><filter id="filter39"><feColorMatrix in="SourceGraphic" type="matrix" values="0.0 0.0 0.0 0.0 0.99609375 0.0 0.0 0.0 0.0 0.99609375 0.0 0.0 0.0 0.0 0.99609375 0.0 0.0 0.0 1.0 0.0" result="cxform"/><feComposite operator="in" in2="SourceGraphic" result="color-xform"/></filter><filter id="filter43"><feColorMatrix in="SourceGraphic" type="matrix" values="1.0 0.0 0.0 0.0 0.0 0.0 1.0 0.0 0.0 0.0 0.0 0.0 1.0 0.0 0.0 0.0 0.0 0.0 0.23046875 0.0" result="cxform"/><feComposite operator="in" in2="SourceGraphic" result="color-xform"/></filter></defs><g><g><use transform="matrix(1.0,0.0,0.0,1.0,0.0,0.0)" xlink:href="#c33"/></g><g><use transform="matrix(1.15496826172,0.0,0.0,1.15496826172,5.85,4.8)" xlink:href="#c41"/></g><g><use transform="matrix(0.265701293945,-0.10856628418,0.10856628418,0.265701293945,35.4,40.65)" xlink:href="#c32"/></g><g><use transform="matrix(0.162948608398,-0.0436706542969,0.128631591797,0.260604858398,30.0,28.7)" filter="url(#filter43)" xlink:href="#c38"/></g></g></svg>