<?xml version='1.0' encoding='UTF-8'?>
<svg xmlns:xlink="http://www.w3.org/1999/xlink" xmlns="http://www.w3.org/2000/svg" version="1.1" width="60px" height="60px" viewBox="0.0 0.0 60.0 60.0"><defs><g id="c1"><path fill="#000000" fill-opacity="0.00392156862745" d="M0.0 0.0 L60.0 0.0 60.0 60.0 0.0 60.0 0.0 0.0"/></g><g id="c2"><path fill="#006699" stroke="none" d="M31.5 39.85 L19.8 43.65 Q17.15 44.45 15.5 43.3 14.35 42.55 13.65 40.9 L1.7 14.45 1.6 14.3 1.2 13.45 -0.75 9.05 Q-2.05 6.2 -0.3 4.75 0.3 4.25 1.2 3.9 L5.5 2.25 Q8.95 0.95 10.65 4.15 L22.3 0.4 Q26.55 -1.0 28.45 3.1 L40.55 29.95 40.9 30.7 42.95 35.15 Q43.95 37.35 43.15 38.7 42.5 39.7 40.95 40.25 L36.65 41.8 35.1 42.2 Q32.75 42.3 31.5 39.85"/><path fill="none" stroke="#000000" stroke-width="1.0" stroke-opacity="0.298039215686" d="M31.5 39.85 L19.8 43.65 Q17.15 44.45 15.5 43.3 14.35 42.55 13.65 40.9 L1.7 14.45 1.6 14.3 1.2 13.45 -0.75 9.05 Q-2.05 6.2 -0.3 4.75 0.3 4.25 1.2 3.9 L5.5 2.25 Q8.95 0.95 10.65 4.15 L22.3 0.4 Q26.55 -1.0 28.45 3.1 L40.55 29.95 40.9 30.7 42.95 35.15 Q43.95 37.35 43.15 38.7 42.5 39.7 40.95 40.25 L36.65 41.8 35.1 42.2 Q32.75 42.3 31.5 39.85"/><path fill="#300525" stroke="none" d="M0.75 8.25 L29.8 9.75 25.55 0.9 Q26.9 1.6 27.8 3.55 L40.7 32.15 Q42.6 36.3 38.3 37.65 L23.3 42.5 13.15 21.4 4.6 20.9 0.7 12.25 Q-0.45 9.75 0.75 8.25 M20.1 43.55 L19.8 43.65 Q17.15 44.45 15.5 43.3 L20.1 43.55"/><path fill="#630a4c" stroke="none" d="M25.55 0.9 L29.8 9.75 0.75 8.25 Q1.45 7.3 3.1 6.75 L21.65 0.8 25.55 0.9 M4.6 20.9 L13.15 21.4 23.3 42.5 20.1 43.55 15.5 43.3 Q14.35 42.55 13.65 40.9 L4.6 20.9"/><path fill="none" stroke="#000000" stroke-width="0.5" stroke-opacity="0.301960784314" d="M0.75 8.25 Q-0.45 9.75 0.7 12.25 L4.6 20.9 M23.3 42.5 L38.3 37.65 Q42.6 36.3 40.7 32.15 L27.8 3.55 Q26.9 1.6 25.55 0.9 L21.65 0.8 3.1 6.75 Q1.45 7.3 0.75 8.25 M20.1 43.55 L19.8 43.65 Q17.15 44.45 15.5 43.3 14.35 42.55 13.65 40.9 L4.6 20.9 M20.1 43.55 L23.3 42.5"/><path fill="#9d147b" stroke="none" d="M14.2 40.5 L1.35 11.8 Q-0.5 7.75 3.8 6.35 L22.3 0.4 Q26.55 -1.0 28.45 3.1 L41.35 31.7 Q43.25 35.85 38.9 37.25 L20.4 43.2 Q16.1 44.55 14.2 40.5"/><path fill="none" stroke="#000000" stroke-width="0.5" stroke-opacity="0.301960784314" d="M14.2 40.5 L1.35 11.8 Q-0.5 7.75 3.8 6.35 L22.3 0.4 Q26.55 -1.0 28.45 3.1 L41.35 31.7 Q43.25 35.85 38.9 37.25 L20.4 43.2 Q16.1 44.55 14.2 40.5"/><path fill="#9d147b" stroke="none" d="M31.4 39.65 L31.3 39.45 31.25 39.4 29.25 34.95 Q27.55 31.2 31.25 29.85 L35.6 28.25 Q38.8 27.1 40.5 29.85 L40.9 30.7 42.95 35.15 Q43.95 37.35 43.15 38.7 42.5 39.45 41.2 39.9 L36.9 41.45 34.85 41.85 Q32.9 41.7 31.75 39.5 L31.4 39.65"/><path fill="#630a4c" stroke="none" d="M43.15 38.7 Q42.5 39.7 40.95 40.25 L36.65 41.8 35.1 42.2 Q32.75 42.3 31.45 39.8 L31.4 39.65 31.75 39.5 Q32.9 41.7 34.85 41.85 L36.9 41.45 41.2 39.9 Q42.5 39.45 43.15 38.7"/><path fill="none" stroke="#003333" stroke-width="0.5" stroke-opacity="0.509803921569" d="M43.15 38.7 Q42.5 39.7 40.95 40.25 L36.65 41.8 35.1 42.2 Q32.75 42.3 31.45 39.8 L31.4 39.65 30.3 40.0 31.4 39.65 M40.5 29.85 L40.9 30.7 42.95 35.15 Q43.95 37.35 43.15 38.7 42.5 39.45 41.2 39.9 L36.9 41.45 34.85 41.85 Q32.9 41.7 31.75 39.5 L31.4 39.65"/><path fill="#9d147b" stroke="none" d="M10.65 4.2 L10.85 4.6 12.85 9.05 Q14.5 12.8 10.8 14.15 L6.5 15.8 Q4.5 16.6 3.1 15.8 L1.75 12.85 -0.2 8.45 Q-1.25 6.15 -0.3 4.75 0.3 4.25 1.2 3.9 L5.5 2.25 Q9.0 0.95 10.65 4.2"/><path fill="#300525" stroke="none" d="M-0.3 4.75 Q-1.25 6.15 -0.2 8.45 L1.75 12.85 3.1 15.8 Q2.25 15.35 1.6 14.3 L1.2 13.45 -0.75 9.05 Q-2.05 6.2 -0.3 4.75"/><path fill="none" stroke="#003333" stroke-width="0.5" stroke-opacity="0.509803921569" d="M3.1 15.8 L6.45 23.15 M-0.3 4.75 Q0.3 4.25 1.2 3.9 L5.5 2.25 Q9.0 0.95 10.65 4.2 M3.1 15.8 L1.75 12.85 -0.2 8.45 Q-1.25 6.15 -0.3 4.75 -2.05 6.2 -0.75 9.05 L1.2 13.45 1.6 14.3"/><path fill="#fcf2cf" stroke="none" d="M9.15 13.6 Q9.8 12.8 9.55 11.6 L9.1 10.55 22.05 6.35 Q24.9 5.45 26.25 7.85 L26.5 8.3 35.8 29.0 35.95 29.35 Q34.75 29.3 34.1 30.1 33.45 30.9 33.7 32.1 L34.0 32.9 20.65 37.2 Q18.8 37.8 17.65 37.0 16.8 36.4 16.3 35.2 L6.95 14.6 6.8 14.4 7.1 14.4 Q8.4 14.45 9.15 13.6"/><path fill="#c47fad" stroke="none" d="M9.15 13.6 Q8.4 14.45 7.1 14.4 L6.8 14.4 6.95 14.6 16.3 35.2 Q16.8 36.4 17.65 37.0 18.8 37.8 20.65 37.2 L34.0 32.9 33.7 32.1 Q33.45 30.9 34.1 30.1 34.75 29.3 35.95 29.35 L35.8 29.0 26.5 8.3 26.25 7.85 Q24.9 5.45 22.05 6.35 L9.1 10.55 9.55 11.6 Q9.8 12.8 9.15 13.6 M28.25 6.1 L35.55 22.3 39.35 30.75 Q41.1 34.5 37.2 35.7 L20.45 41.1 Q16.8 42.25 15.2 39.0 L15.0 38.6 8.25 23.65 3.35 12.8 Q1.65 9.1 5.5 7.85 L22.25 2.5 Q26.05 1.25 27.75 4.95 L28.25 6.1"/><path fill="none" stroke="#ffcc00" stroke-width="1.0" stroke-opacity="0.749019607843" d="M35.55 22.3 L39.35 30.75 Q41.1 34.5 37.2 35.7 L20.45 41.1 Q16.8 42.25 15.2 39.0 L15.0 38.6 M8.25 23.65 L3.35 12.8 Q1.65 9.1 5.5 7.85 L22.25 2.5 Q26.05 1.25 27.75 4.95 L28.25 6.1"/><path fill="none" stroke="#bf9900" stroke-width="1.0" stroke-opacity="0.749019607843" d="M28.25 6.1 L35.55 22.3 M15.0 38.6 L8.25 23.65"/><path fill="none" stroke="#f0b92b" stroke-width="0.5" d="M9.15 13.6 Q9.8 12.8 9.55 11.6 L9.1 10.55 22.05 6.35 Q24.9 5.45 26.25 7.85 L26.5 8.3 35.8 29.0 35.95 29.35 Q34.75 29.3 34.1 30.1 33.45 30.9 33.7 32.1 L34.0 32.9 20.65 37.2 Q18.8 37.8 17.65 37.0 16.8 36.4 16.3 35.2 L6.95 14.6 6.8 14.4 7.1 14.4 Q8.4 14.45 9.15 13.6"/></g><g id="c3"><path fill="#7fdbfe" stroke="none" d="M10.75 4.9 Q10.75 4.6 10.9 4.35 11.25 3.45 11.95 2.75 13.3 1.5 14.35 2.1 15.4 2.7 14.95 4.45 14.7 5.4 14.1 6.15 L13.75 6.5 Q13.1 7.15 12.35 7.35 L11.4 7.2 Q10.95 6.9 10.75 6.4 10.5 5.75 10.75 4.9 M7.5 5.9 Q7.0 5.85 6.6 5.5 6.05 5.0 5.8 4.15 L5.7 3.6 Q5.55 2.65 5.8 1.7 6.25 0.0 7.5 0.0 L7.6 0.0 Q8.85 0.0 9.3 1.7 9.55 2.65 9.4 3.6 L9.3 4.15 8.5 5.5 7.6 5.9 7.5 5.9 M4.35 4.9 Q4.6 5.75 4.35 6.4 L3.7 7.2 2.75 7.35 Q2.0 7.15 1.35 6.5 L1.0 6.15 Q0.4 5.4 0.15 4.45 -0.3 2.7 0.75 2.1 1.8 1.5 3.15 2.75 3.85 3.45 4.2 4.35 L4.35 4.9 M5.5 13.7 Q4.45 13.9 3.65 12.95 2.75 12.0 3.2 10.25 3.7 8.5 5.25 7.6 6.4 6.9 7.55 7.0 8.75 6.9 9.9 7.6 11.45 8.5 11.95 10.25 12.35 12.0 11.5 12.95 10.7 13.9 9.65 13.7 8.55 13.5 7.55 12.6 6.55 13.5 5.5 13.7"/></g><g id="c4"><g><use transform="matrix(1.0,0.0,0.0,1.0,0.0,0.0)" xlink:href="#c3"/></g></g><radialGradient gradientUnits="userSpaceOnUse" r="819.2" cx="0" cy="0" spreadMethod="pad" gradientTransform="matrix(0.0914459228516,0.0,0.0,0.0914459228516,0.6,3.4)" id="gradient1"><stop offset="0.0" stop-color="#ffffff"/><stop offset="1.0" stop-color="#ffffff" stop-opacity="0.0"/></radialGradient><g id="c5"><path stroke="none" fill="url(#gradient1)" d="M36.65 -54.65 Q60.05 -42.0 69.75 -17.95 80.55 8.9 68.0 34.1 55.45 59.35 26.8 68.2 -1.8 77.05 -29.7 64.3 -57.6 51.6 -68.45 24.75 -79.3 -2.05 -66.75 -27.25 L-66.7 -27.3 Q-54.1 -52.5 -25.5 -61.4 3.1 -70.2 31.0 -57.5 L36.65 -54.65"/></g><g id="c6"><g><use transform="matrix(1.0,0.0,0.0,1.0,0.0,0.0)" xlink:href="#c5"/></g></g><radialGradient gradientUnits="userSpaceOnUse" r="819.2" cx="0" cy="0" spreadMethod="pad" gradientTransform="matrix(0.209197998047,0.0,0.0,0.177108764648,67.15,107.2)" id="gradient2"><stop offset="0.356862745098" stop-color="#ffffff"/><stop offset="0.670588235294" stop-opacity="0.0"/></radialGradient><g id="c7"><path fill="none" stroke-linejoin="round" stroke-linecap="round" stroke="url(#gradient2)" stroke-width="0.5" d="M136.55 165.8 L68.6 106.0 68.4 106.0 118.25 201.5 M68.3 105.8 L68.35 105.8 68.3 105.8 68.3 105.85 68.4 106.0 68.3 106.0 86.55 211.5 M68.3 105.8 L68.3 105.85 68.3 106.0 68.15 105.95 18.25 151.55 M68.3 105.85 L68.25 105.85 68.3 106.0 50.0 193.2 M68.25 105.85 L68.15 105.95 0.05 97.7 M68.3 105.85 L68.25 105.8 68.25 105.85 M68.25 105.8 L68.2 105.7 0.0 45.7 M68.3 105.8 L68.25 105.75 68.25 105.8 M68.25 105.75 L68.2 105.7 18.25 10.05 M68.6 106.0 L68.35 105.8 118.25 60.15 M86.6 18.35 L68.3 105.8 M136.6 114.25 L68.6 106.0 M68.25 105.75 L49.95 0.05"/></g><g id="c8"><g><use transform="matrix(1.0,0.0,0.0,1.0,0.0,0.0)" xlink:href="#c7"/></g></g><g id="c9"><g><use transform="matrix(1.0,0.0,0.0,1.0,0.0,0.0)" xlink:href="#c2"/></g><g><use transform="matrix(0.238861083984,-0.0867004394531,0.10026550293,0.233917236328,34.25,31.15)" xlink:href="#c4"/></g><g><use transform="matrix(0.238861083984,-0.0867004394531,0.10026550293,0.233917236328,4.25,10.3)" xlink:href="#c4"/></g><g><use transform="matrix(0.141098022461,-0.0378112792969,0.111373901367,0.225646972656,20.25,20.65)" filter="url(#filter7)" xlink:href="#c6"/></g><g><use transform="matrix(-0.155029296875,0.0513153076172,0.0841827392578,0.147033691406,22.6,3.15)" filter="url(#filter8)" xlink:href="#c8"/></g></g><filter id="filter7"><feColorMatrix in="SourceGraphic" type="matrix" values="0.0 0.0 0.0 0.0 0.796875 0.0 0.0 0.0 0.0 0.59765625 0.0 0.0 0.0 0.0 0.19921875 0.0 0.0 0.0 1.0 0.0" result="cxform"/><feComposite operator="in" in2="SourceGraphic" result="color-xform"/></filter><filter id="filter8"><feColorMatrix in="SourceGraphic" type="matrix" values="0.0 0.0 0.0 0.0 0.99609375 0.0 0.0 0.0 0.0 0.99609375 0.0 0.0 0.0 0.0 0.99609375 0.0 0.0 0.0 1.0 0.0" result="cxform"/><feComposite operator="in" in2="SourceGraphic" result="color-xform"/></filter><g id="c10"><path fill="none" stroke="#000000" stroke-width="1.5" stroke-opacity="0.301960784314" d="M94.75 22.65 Q96.05 21.45 97.1 21.9 98.3 22.25 99.6 23.45 L102.35 26.55 103.05 27.85 Q105.9 28.8 104.95 30.0 111.65 35.95 115.55 44.55 119.0 51.55 119.7 59.15 L119.6 65.85 119.5 70.8 119.5 72.0 119.5 72.15 Q119.25 72.6 119.25 73.2 L118.55 76.3 116.5 80.7 Q113.3 86.15 106.85 92.0 L105.3 93.55 Q95.8 101.75 87.5 104.95 87.25 104.95 87.0 105.1 L85.8 105.45 83.8 106.05 Q75.0 108.05 62.35 108.05 L61.3 108.05 60.8 108.05 54.85 107.95 53.2 107.95 46.9 107.45 46.3 107.45 40.35 106.4 39.9 106.4 38.8 106.05 Q27.85 103.3 19.9 97.1 18.8 96.55 18.1 95.8 L12.25 90.0 Q2.75 78.7 2.75 63.9 L2.85 59.15 Q3.7 51.55 6.9 44.55 11.45 34.65 19.9 28.1 29.65 20.5 40.35 16.8 L40.25 16.2 Q40.35 14.9 41.2 13.8 42.15 12.75 42.95 12.75 43.9 12.85 44.9 13.25 L47.35 14.4 47.75 14.8 Q54.4 13.35 61.3 13.35 L62.15 13.35 Q62.6 11.9 64.05 10.95 65.45 9.9 66.65 10.25 67.85 10.5 69.05 11.45 L71.65 13.95 71.9 14.2 Q83.8 16.2 94.75 22.65"/></g><linearGradient gradientUnits="userSpaceOnUse" x1="-819.2" x2="819.2" spreadMethod="pad" gradientTransform="matrix(0.0219116210938,-0.00318908691406,0.00151062011719,0.0103607177734,18.85,19.35)" id="gradient3"><stop offset="0.0" stop-color="#d7ba67"/><stop offset="0.807843137255" stop-color="#b88641"/><stop offset="1.0" stop-color="#d4b563"/></linearGradient><radialGradient gradientUnits="userSpaceOnUse" r="819.2" cx="0" cy="0" spreadMethod="pad" gradientTransform="matrix(0.0190887451172,0.0,0.0,0.0103759765625,18.2,9.4)" id="gradient4"><stop offset="0.0" stop-color="#b27b3a"/><stop offset="1.0" stop-color="#b78340" stop-opacity="0.0"/></radialGradient><g id="c11"><path fill="#e1ca7b" stroke="none" d="M0.05 13.4 Q0.3 11.2 1.3 9.15 2.7 6.25 5.3 4.35 11.15 0.05 18.15 0.05 25.1 0.05 31.0 4.35 33.6 6.25 35.0 9.15 36.05 11.2 36.3 13.4 L35.95 15.25 35.9 15.3 35.8 15.6 35.05 15.7 34.9 15.6 33.95 15.65 33.05 16.1 33.0 16.1 34.9 15.6 32.9 16.2 32.8 16.85 Q30.45 18.3 29.65 19.85 L28.85 20.2 Q26.35 21.35 26.0 22.2 L25.65 21.85 24.55 21.65 Q23.7 21.65 22.8 22.35 L21.75 23.0 21.0 22.85 20.05 22.65 Q19.6 22.65 19.3 22.9 L18.75 23.35 18.65 23.35 18.15 21.95 Q17.8 21.0 16.05 21.0 14.35 21.0 13.2 22.0 12.1 23.0 11.25 23.0 10.8 23.0 10.35 22.0 9.9 21.0 8.5 21.0 L7.2 21.3 Q6.6 19.8 5.45 19.8 4.9 19.8 4.35 19.35 3.8 18.9 3.2 18.9 L2.45 19.1 Q0.45 16.5 0.05 13.4"/><path stroke="none" fill="url(#gradient3)" d="M36.3 13.4 L36.25 15.35 36.25 14.65 36.1 14.6 35.95 15.25 36.3 13.4 M31.8 23.45 Q28.25 26.35 25.15 27.1 L18.5 27.7 19.55 27.35 26.15 26.8 Q27.2 26.4 29.55 24.6 L31.8 23.45 M18.0 27.7 L16.15 27.65 16.95 27.45 18.0 27.7 M13.5 27.5 L11.65 27.2 11.9 27.2 13.5 27.5 M11.2 27.1 Q7.8 26.3 5.3 24.5 L4.75 24.1 6.5 25.0 Q9.7 26.7 11.2 27.1 M2.95 22.4 Q0.0 19.1 0.0 14.8 L0.05 13.4 Q0.45 16.5 2.45 19.1 L3.2 18.9 Q3.8 18.9 4.35 19.35 4.9 19.8 5.45 19.8 6.6 19.8 7.2 21.3 L8.5 21.0 Q9.9 21.0 10.35 22.0 10.8 23.0 11.25 23.0 12.1 23.0 13.2 22.0 14.35 21.0 16.05 21.0 17.8 21.0 18.15 21.95 L18.65 23.35 18.75 23.35 19.3 22.9 Q19.6 22.65 20.05 22.65 L21.0 22.85 21.75 23.0 22.8 22.35 Q23.7 21.65 24.55 21.65 L25.65 21.85 26.0 22.2 Q26.35 21.35 28.85 20.2 L29.65 19.85 Q30.45 18.3 32.8 16.85 L32.8 17.0 33.1 17.95 33.35 18.25 33.25 19.05 33.3 19.9 33.65 19.75 32.9 20.1 29.85 22.2 26.1 24.35 Q23.8 25.55 21.45 25.55 L19.45 25.2 17.4 25.4 15.8 25.7 15.0 25.95 14.6 25.35 Q14.25 24.75 13.55 24.75 L11.9 25.2 11.65 25.15 11.7 25.1 Q11.6 24.25 10.4 24.0 L8.7 23.4 7.5 23.1 Q6.4 23.0 5.7 22.55 4.2 21.3 3.5 21.3 2.7 21.3 2.5 21.85 L2.95 22.4"/><path fill="#8e7c44" stroke="none" d="M36.25 15.35 L36.2 16.8 36.2 17.15 36.2 17.2 36.15 17.5 35.9 18.4 35.3 19.7 Q34.3 21.3 32.3 23.0 L31.8 23.45 29.55 24.6 Q27.2 26.4 26.15 26.8 L19.55 27.35 18.5 27.7 18.15 27.7 18.0 27.7 16.95 27.45 16.15 27.65 15.65 27.65 13.7 27.5 13.5 27.5 11.9 27.2 11.65 27.2 11.5 27.2 11.2 27.1 Q9.7 26.7 6.5 25.0 L4.75 24.1 2.95 22.4 2.5 21.85 Q2.7 21.3 3.5 21.3 4.2 21.3 5.7 22.55 6.4 23.0 7.5 23.1 L8.7 23.4 10.4 24.0 Q11.6 24.25 11.7 25.1 L11.65 25.15 11.9 25.2 13.55 24.75 Q14.25 24.75 14.6 25.35 L15.0 25.95 15.8 25.7 17.4 25.4 19.45 25.2 21.45 25.55 Q23.8 25.55 26.1 24.35 L29.85 22.2 32.9 20.1 33.65 19.75 33.3 19.9 33.25 19.05 33.35 18.25 33.1 17.95 32.8 17.0 32.8 16.85 32.9 16.2 34.9 15.6 33.0 16.1 33.05 16.1 33.95 15.65 34.9 15.6 35.05 15.7 35.8 15.6 35.9 15.3 35.95 15.25 36.1 14.6 36.25 14.65 36.25 15.35"/><path fill="none" stroke="#382510" stroke-width="0.7" stroke-opacity="0.301960784314" d="M0.05 13.4 Q0.3 11.2 1.3 9.15 2.7 6.25 5.3 4.35 11.15 0.05 18.15 0.05 25.1 0.05 31.0 4.35 33.6 6.25 35.0 9.15 36.05 11.2 36.3 13.4 L36.25 15.35 36.2 16.8 36.2 17.15 36.2 17.2 36.15 17.5 35.9 18.4 35.3 19.7 Q34.3 21.3 32.3 23.0 L31.8 23.45 Q28.25 26.35 25.15 27.1 L18.5 27.7 18.15 27.7 18.0 27.7 16.15 27.65 M15.65 27.65 L13.7 27.5 13.5 27.5 11.65 27.2 11.5 27.2 M11.2 27.1 Q7.8 26.3 5.3 24.5 L4.75 24.1 2.95 22.4 Q0.0 19.1 0.0 14.8 L0.05 13.4"/><path stroke="none" fill="url(#gradient4)" d="M29.35 15.45 Q24.75 17.95 18.35 17.95 11.95 17.95 7.4 15.45 2.85 13.0 2.85 9.5 2.85 6.05 7.4 3.55 11.95 1.05 18.35 1.05 24.75 1.05 29.35 3.55 33.85 6.05 33.85 9.5 33.85 13.0 29.35 15.45"/><path fill="#fbf1bf" fill-opacity="0.713725490196" d="M4.85 6.1 L4.5 6.15 Q4.3 6.2 4.15 6.3 L4.05 6.55 4.25 6.65 4.6 6.65 4.95 6.45 5.0 6.25 4.85 6.1 M7.45 7.25 L7.6 6.9 7.3 6.65 6.7 6.65 6.2 6.95 Q5.95 7.15 6.0 7.35 L6.35 7.55 6.9 7.5 7.45 7.25 M3.4 9.05 L3.75 9.05 4.05 8.9 4.15 8.65 3.95 8.55 3.6 8.55 3.3 8.7 3.2 8.9 3.4 9.05"/><path fill="#c8a258" stroke="none" d="M13.0 4.2 L12.9 4.15 Q13.55 3.4 13.6 2.8 12.15 2.95 11.45 3.5 9.1 5.0 7.9 6.8 7.4 7.45 7.55 8.05 L9.7 7.6 6.25 9.65 Q5.9 8.65 6.25 7.0 7.15 4.8 8.5 3.9 L11.0 2.35 Q12.15 1.7 14.55 2.4 14.45 3.0 13.6 3.55 L13.0 4.2"/><path fill="#e1cd9c" stroke="none" d="M9.7 7.6 L7.55 8.05 Q7.4 7.45 7.9 6.8 9.1 5.0 11.45 3.5 12.15 2.95 13.6 2.8 13.55 3.4 12.9 4.15 L13.0 4.2 9.7 7.6"/><path fill="none" stroke="#963807" stroke-width="0.7" stroke-opacity="0.301960784314" d="M13.0 4.2 L13.6 3.55 Q14.45 3.0 14.55 2.4 12.15 1.7 11.0 2.35 L8.5 3.9 Q7.15 4.8 6.25 7.0 5.9 8.65 6.25 9.65 L9.7 7.6 13.0 4.2"/><path fill="#c8a258" stroke="none" d="M22.0 5.05 L21.85 5.0 Q22.85 3.9 22.95 3.05 20.65 3.2 19.6 4.0 15.85 6.3 14.05 9.0 13.3 9.95 13.5 10.9 L16.9 10.25 11.45 13.4 Q10.9 11.8 11.45 9.3 12.8 5.9 14.85 4.55 16.9 3.2 18.8 2.2 L24.4 2.35 Q24.3 3.25 22.95 4.2 L22.0 5.05"/><path fill="#e1cd9c" stroke="none" d="M16.9 10.25 L13.5 10.9 Q13.3 9.95 14.05 9.0 15.85 6.3 19.6 4.0 20.65 3.2 22.95 3.05 22.85 3.9 21.85 5.0 L22.0 5.05 Q18.45 8.4 16.9 10.25"/><path fill="none" stroke="#963807" stroke-width="0.7" stroke-opacity="0.301960784314" d="M22.0 5.05 L22.95 4.2 Q24.3 3.25 24.4 2.35 L18.8 2.2 Q16.9 3.2 14.85 4.55 12.8 5.9 11.45 9.3 10.9 11.8 11.45 13.4 L16.9 10.25 Q18.45 8.4 22.0 5.05"/><path fill="#fbf1bf" fill-opacity="0.713725490196" d="M20.45 8.95 Q20.45 8.65 20.7 8.45 L21.4 8.3 22.05 8.45 22.35 8.95 22.05 9.35 21.4 9.55 20.7 9.35 20.45 8.95 M16.25 12.85 Q15.8 12.55 15.8 12.1 15.8 11.65 16.25 11.35 16.75 11.0 17.4 11.0 18.1 11.0 18.55 11.35 19.05 11.65 19.05 12.1 19.05 12.55 18.55 12.85 L17.4 13.2 Q16.75 13.2 16.25 12.85 M24.8 14.5 L24.15 14.7 23.5 14.5 23.25 14.1 23.5 13.65 24.15 13.45 24.8 13.65 25.1 14.1 24.8 14.5"/><path fill="#fbf1bf" fill-opacity="0.713725490196" d="M27.25 3.0 L27.6 3.05 27.75 3.2 27.6 3.35 27.25 3.45 26.9 3.35 26.75 3.2 26.9 3.05 27.25 3.0 M24.6 4.6 L24.4 4.35 24.6 4.05 25.2 3.95 25.8 4.05 26.05 4.35 25.8 4.6 25.2 4.7 24.6 4.6 M29.0 5.2 L28.65 5.25 28.3 5.2 28.2 5.05 28.3 4.9 28.65 4.8 29.0 4.9 29.15 5.05 29.0 5.2"/><path fill="#c8a258" stroke="none" d="M28.3 8.95 L28.2 8.9 28.9 7.55 Q27.45 7.7 26.75 8.25 24.4 9.75 23.2 11.55 22.7 12.2 22.85 12.8 L25.0 12.35 21.55 14.4 Q21.2 13.4 21.55 11.75 22.45 9.55 23.8 8.65 25.1 7.7 26.3 7.1 27.45 6.45 29.85 7.15 29.75 7.75 28.9 8.3 L28.3 8.95"/><path fill="#e1cd9c" stroke="none" d="M25.0 12.35 L22.85 12.8 Q22.7 12.2 23.2 11.55 24.4 9.75 26.75 8.25 27.45 7.7 28.9 7.55 L28.2 8.9 28.3 8.95 25.0 12.35"/><path fill="none" stroke="#963807" stroke-width="0.7" stroke-opacity="0.301960784314" d="M28.3 8.95 L28.9 8.3 Q29.75 7.75 29.85 7.15 27.45 6.45 26.3 7.1 25.1 7.7 23.8 8.65 22.45 9.55 21.55 11.75 21.2 13.4 21.55 14.4 L25.0 12.35 28.3 8.95"/></g><g id="c12"><path fill="#382510" fill-opacity="0.372549019608" d="M1.45 4.75 L3.6 5.1 7.35 4.65 Q8.25 4.2 8.1 3.55 11.15 4.35 8.3 5.3 5.55 6.15 1.45 4.75"/><path fill="#564c0b" stroke="none" d="M8.1 3.55 Q8.25 4.2 7.35 4.65 L3.6 5.1 1.45 4.75 1.1 4.6 0.55 4.25 Q-0.25 3.6 0.1 2.5 0.5 1.35 1.65 0.6 2.75 -0.2 3.65 0.05 4.6 0.3 5.5 0.95 L7.6 2.8 Q8.05 3.2 8.1 3.55"/><path fill="none" stroke="#382510" stroke-width="0.7" stroke-opacity="0.2" d="M8.1 3.55 Q8.05 3.2 7.6 2.8 L5.5 0.95 Q4.6 0.3 3.65 0.05 2.75 -0.2 1.65 0.6 0.5 1.35 0.1 2.5 -0.25 3.6 0.55 4.25 L1.1 4.6 1.45 4.75"/><path fill="#b68733" stroke="none" d="M3.05 0.35 Q3.75 0.45 4.0 0.9 4.3 1.4 4.0 2.0 L3.1 3.0 1.75 3.35 Q1.05 3.25 0.75 2.75 0.5 2.3 0.8 1.7 1.05 1.05 1.75 0.65 L3.05 0.35"/></g><g id="c13"><g><use transform="matrix(1.0,0.0,0.0,1.0,0.0,0.0)" xlink:href="#c12"/></g></g><g id="c14"><g><use transform="matrix(1.0,0.0,0.0,1.0,0.0,0.0)" xlink:href="#c11"/></g><g><use transform="matrix(0.467391967773,-0.125228881836,0.125228881836,0.467391967773,2.85,9.85)" xlink:href="#c13"/></g><g><use transform="matrix(0.289764404297,-0.07763671875,0.07763671875,0.289764404297,11.4,0.15)" xlink:href="#c13"/></g><g><use transform="matrix(0.399993896484,1.52587890625e-05,0.0,0.399993896484,18.35,-0.9)" xlink:href="#c13"/></g><g><use transform="matrix(0.413192749023,1.52587890625e-05,0.0,0.499877929688,27.75,2.5)" xlink:href="#c13"/></g><g><use transform="matrix(0.363006591797,0.0972900390625,-0.0978546142578,0.365173339844,29.7,10.15)" xlink:href="#c13"/></g><g><use transform="matrix(0.413192749023,1.52587890625e-05,0.0,0.499877929688,17.0,12.65)" xlink:href="#c13"/></g><g><use transform="matrix(0.413192749023,1.52587890625e-05,0.0,0.499877929688,7.4,4.4)" xlink:href="#c13"/></g><g><use transform="matrix(0.286376953125,1.52587890625e-05,0.0,0.3798828125,18.55,4.7)" xlink:href="#c13"/></g><g><use transform="matrix(0.311920166016,1.52587890625e-05,0.0,0.339904785156,10.5,9.65)" xlink:href="#c13"/></g><g><use transform="matrix(0.413192749023,1.52587890625e-05,0.0,0.499877929688,13.15,3.15)" xlink:href="#c13"/></g><g><use transform="matrix(0.413192749023,1.52587890625e-05,0.0,0.499877929688,22.25,8.0)" xlink:href="#c13"/></g><g><use transform="matrix(0.363006591797,0.0972900390625,-0.0978546142578,0.365173339844,26.35,5.0)" xlink:href="#c13"/></g><g><use transform="matrix(0.286376953125,1.52587890625e-05,0.0,0.3798828125,10.1,13.15)" xlink:href="#c13"/></g></g><radialGradient gradientUnits="userSpaceOnUse" r="819.2" cx="0" cy="0" spreadMethod="pad" gradientTransform="matrix(0.0411834716797,0.0,0.0,0.0411834716797,0.6,3.4)" id="gradient5"><stop offset="0.0" stop-color="#ffffff"/><stop offset="1.0" stop-color="#ffffff" stop-opacity="0.0"/></radialGradient><g id="c15"><path stroke="none" fill="url(#gradient5)" d="M31.75 -6.25 Q36.65 5.85 31.0 17.2 25.35 28.6 12.4 32.55 -0.45 36.55 -13.05 30.8 -25.6 25.1 -30.5 13.0 -35.35 0.95 -29.7 -10.4 L-29.7 -10.45 Q-24.0 -21.8 -11.15 -25.8 1.75 -29.75 14.3 -24.05 L16.85 -22.75 Q27.4 -17.05 31.75 -6.25"/></g><g id="c16"><g><use transform="matrix(1.0,0.0,0.0,1.0,0.0,0.0)" xlink:href="#c15"/></g></g><g id="c17"><g><use transform="matrix(1.0,0.0,0.0,1.0,0.0,0.0)" xlink:href="#c10"/></g><g><use transform="matrix(3.22398376465,0.0,0.0,3.42579650879,2.8,13.25)" xlink:href="#c14"/></g><g><use transform="matrix(1.62469482422,0.0,0.0,0.83447265625,58.7,77.2)" filter="url(#filter27)" xlink:href="#c16"/></g></g><filter id="filter27"><feColorMatrix in="SourceGraphic" type="matrix" values="0.0 0.0 0.0 0.0 0.99609375 0.0 0.0 0.0 0.0 0.8671875 0.0 0.0 0.0 0.0 0.30859375 0.0 0.0 0.0 0.421875 0.0" result="cxform"/><feComposite operator="in" in2="SourceGraphic" result="color-xform"/></filter><g id="c18"><g><use transform="matrix(1.0,0.0,0.0,1.0,6.3,53.35)" xlink:href="#c9"/></g><g><use transform="matrix(-0.146041870117,0.0488891601562,0.0616760253906,0.140441894531,33.05,63.95)" xlink:href="#c17"/></g><g><use transform="matrix(0.141098022461,-0.0378112792969,0.111373901367,0.225646972656,27.2,74.05)" filter="url(#filter30)" xlink:href="#c6"/></g></g><filter id="filter30"><feColorMatrix in="SourceGraphic" type="matrix" values="1.0 0.0 0.0 0.0 0.0 0.0 1.0 0.0 0.0 0.0 0.0 0.0 1.0 0.0 0.0 0.0 0.0 0.0 0.23046875 0.0" result="cxform"/><feComposite operator="in" in2="SourceGraphic" result="color-xform"/></filter></defs><g><g><use transform="matrix(1.0,0.0,0.0,1.0,0.0,0.0)" xlink:href="#c1"/></g><g><use transform="matrix(1.15496826172,0.0,0.0,1.15496826172,-1.5,-57.15)" xlink:href="#c18"/></g></g></svg>