<?xml version='1.0' encoding='UTF-8'?>
<svg xmlns:xlink="http://www.w3.org/1999/xlink" xmlns="http://www.w3.org/2000/svg" version="1.1" width="60px" height="60px" viewBox="0.0 0.0 60.0 60.0"><defs><g id="c1"><path fill="#000000" fill-opacity="0.00392156862745" d="M0.0 0.0 L60.0 0.0 60.0 60.0 0.0 60.0 0.0 0.0"/></g><g id="c2"><path fill="#006699" stroke="none" d="M31.5 39.85 L19.8 43.65 Q17.15 44.45 15.5 43.3 14.35 42.55 13.65 40.9 L1.7 14.45 1.6 14.3 1.2 13.45 -0.75 9.05 Q-2.05 6.2 -0.3 4.75 0.3 4.25 1.2 3.9 L5.5 2.25 Q8.95 0.95 10.65 4.15 L22.3 0.4 Q26.55 -1.0 28.45 3.1 L40.55 29.95 40.9 30.7 42.95 35.15 Q43.95 37.35 43.15 38.7 42.5 39.7 40.95 40.25 L36.65 41.8 35.1 42.2 Q32.75 42.3 31.5 39.85"/><path fill="none" stroke="#000000" stroke-width="1.0" stroke-opacity="0.298039215686" d="M31.5 39.85 L19.8 43.65 Q17.15 44.45 15.5 43.3 14.35 42.55 13.65 40.9 L1.7 14.45 1.6 14.3 1.2 13.45 -0.75 9.05 Q-2.05 6.2 -0.3 4.75 0.3 4.25 1.2 3.9 L5.5 2.25 Q8.95 0.95 10.65 4.15 L22.3 0.4 Q26.55 -1.0 28.45 3.1 L40.55 29.95 40.9 30.7 42.95 35.15 Q43.95 37.35 43.15 38.7 42.5 39.7 40.95 40.25 L36.65 41.8 35.1 42.2 Q32.75 42.3 31.5 39.85"/><path fill="#300525" stroke="none" d="M0.75 8.25 L29.8 9.75 25.55 0.9 Q26.9 1.6 27.8 3.55 L40.7 32.15 Q42.6 36.3 38.3 37.65 L23.3 42.5 13.15 21.4 4.6 20.9 0.7 12.25 Q-0.45 9.75 0.75 8.25 M20.1 43.55 L19.8 43.65 Q17.15 44.45 15.5 43.3 L20.1 43.55"/><path fill="#630a4c" stroke="none" d="M25.55 0.9 L29.8 9.75 0.75 8.25 Q1.45 7.3 3.1 6.75 L21.65 0.8 25.55 0.9 M4.6 20.9 L13.15 21.4 23.3 42.5 20.1 43.55 15.5 43.3 Q14.35 42.55 13.65 40.9 L4.6 20.9"/><path fill="none" stroke="#000000" stroke-width="0.5" stroke-opacity="0.301960784314" d="M0.75 8.25 Q-0.45 9.75 0.7 12.25 L4.6 20.9 M23.3 42.5 L38.3 37.65 Q42.6 36.3 40.7 32.15 L27.8 3.55 Q26.9 1.6 25.55 0.9 L21.65 0.8 3.1 6.75 Q1.45 7.3 0.75 8.25 M20.1 43.55 L19.8 43.65 Q17.15 44.45 15.5 43.3 14.35 42.55 13.65 40.9 L4.6 20.9 M20.1 43.55 L23.3 42.5"/><path fill="#9d147b" stroke="none" d="M14.2 40.5 L1.35 11.8 Q-0.5 7.75 3.8 6.35 L22.3 0.4 Q26.55 -1.0 28.45 3.1 L41.35 31.7 Q43.25 35.85 38.9 37.25 L20.4 43.2 Q16.1 44.55 14.2 40.5"/><path fill="none" stroke="#000000" stroke-width="0.5" stroke-opacity="0.301960784314" d="M14.2 40.5 L1.35 11.8 Q-0.5 7.75 3.8 6.35 L22.3 0.4 Q26.55 -1.0 28.45 3.1 L41.35 31.7 Q43.25 35.85 38.9 37.25 L20.4 43.2 Q16.1 44.55 14.2 40.5"/><path fill="#9d147b" stroke="none" d="M31.4 39.65 L31.3 39.45 31.25 39.4 29.25 34.95 Q27.55 31.2 31.25 29.85 L35.6 28.25 Q38.8 27.1 40.5 29.85 L40.9 30.7 42.95 35.15 Q43.95 37.35 43.15 38.7 42.5 39.45 41.2 39.9 L36.9 41.45 34.85 41.85 Q32.9 41.7 31.75 39.5 L31.4 39.65"/><path fill="#630a4c" stroke="none" d="M43.15 38.7 Q42.5 39.7 40.95 40.25 L36.65 41.8 35.1 42.2 Q32.75 42.3 31.45 39.8 L31.4 39.65 31.75 39.5 Q32.9 41.7 34.85 41.85 L36.9 41.45 41.2 39.9 Q42.5 39.45 43.15 38.7"/><path fill="none" stroke="#003333" stroke-width="0.5" stroke-opacity="0.509803921569" d="M43.15 38.7 Q42.5 39.7 40.95 40.25 L36.65 41.8 35.1 42.2 Q32.75 42.3 31.45 39.8 L31.4 39.65 30.3 40.0 31.4 39.65 M40.5 29.85 L40.9 30.7 42.95 35.15 Q43.95 37.35 43.15 38.7 42.5 39.45 41.2 39.9 L36.9 41.45 34.85 41.85 Q32.9 41.7 31.75 39.5 L31.4 39.65"/><path fill="#9d147b" stroke="none" d="M10.65 4.2 L10.85 4.6 12.85 9.05 Q14.5 12.8 10.8 14.15 L6.5 15.8 Q4.5 16.6 3.1 15.8 L1.75 12.85 -0.2 8.45 Q-1.25 6.15 -0.3 4.75 0.3 4.25 1.2 3.9 L5.5 2.25 Q9.0 0.95 10.65 4.2"/><path fill="#300525" stroke="none" d="M-0.3 4.75 Q-1.25 6.15 -0.2 8.45 L1.75 12.85 3.1 15.8 Q2.25 15.35 1.6 14.3 L1.2 13.45 -0.75 9.05 Q-2.05 6.2 -0.3 4.75"/><path fill="none" stroke="#003333" stroke-width="0.5" stroke-opacity="0.509803921569" d="M3.1 15.8 L6.45 23.15 M-0.3 4.75 Q0.3 4.25 1.2 3.9 L5.5 2.25 Q9.0 0.95 10.65 4.2 M3.1 15.8 L1.75 12.85 -0.2 8.45 Q-1.25 6.15 -0.3 4.75 -2.05 6.2 -0.75 9.05 L1.2 13.45 1.6 14.3"/><path fill="#fcf2cf" stroke="none" d="M9.15 13.6 Q9.8 12.8 9.55 11.6 L9.1 10.55 22.05 6.35 Q24.9 5.45 26.25 7.85 L26.5 8.3 35.8 29.0 35.95 29.35 Q34.75 29.3 34.1 30.1 33.45 30.9 33.7 32.1 L34.0 32.9 20.65 37.2 Q18.8 37.8 17.65 37.0 16.8 36.4 16.3 35.2 L6.95 14.6 6.8 14.4 7.1 14.4 Q8.4 14.45 9.15 13.6"/><path fill="#c47fad" stroke="none" d="M9.15 13.6 Q8.4 14.45 7.1 14.4 L6.8 14.4 6.95 14.6 16.3 35.2 Q16.8 36.4 17.65 37.0 18.8 37.8 20.65 37.2 L34.0 32.9 33.7 32.1 Q33.45 30.9 34.1 30.1 34.75 29.3 35.95 29.35 L35.8 29.0 26.5 8.3 26.25 7.85 Q24.9 5.45 22.05 6.35 L9.1 10.55 9.55 11.6 Q9.8 12.8 9.15 13.6 M28.25 6.1 L35.55 22.3 39.35 30.75 Q41.1 34.5 37.2 35.7 L20.45 41.1 Q16.8 42.25 15.2 39.0 L15.0 38.6 8.25 23.65 3.35 12.8 Q1.65 9.1 5.5 7.85 L22.25 2.5 Q26.05 1.25 27.75 4.95 L28.25 6.1"/><path fill="none" stroke="#ffcc00" stroke-width="1.0" stroke-opacity="0.749019607843" d="M35.55 22.3 L39.35 30.75 Q41.1 34.5 37.2 35.7 L20.45 41.1 Q16.8 42.25 15.2 39.0 L15.0 38.6 M8.25 23.65 L3.35 12.8 Q1.65 9.1 5.5 7.85 L22.25 2.5 Q26.05 1.25 27.75 4.95 L28.25 6.1"/><path fill="none" stroke="#bf9900" stroke-width="1.0" stroke-opacity="0.749019607843" d="M28.25 6.1 L35.55 22.3 M15.0 38.6 L8.25 23.65"/><path fill="none" stroke="#f0b92b" stroke-width="0.5" d="M9.15 13.6 Q9.8 12.8 9.55 11.6 L9.1 10.55 22.05 6.35 Q24.9 5.45 26.25 7.85 L26.5 8.3 35.8 29.0 35.95 29.35 Q34.75 29.3 34.1 30.1 33.45 30.9 33.7 32.1 L34.0 32.9 20.65 37.2 Q18.8 37.8 17.65 37.0 16.8 36.4 16.3 35.2 L6.95 14.6 6.8 14.4 7.1 14.4 Q8.4 14.45 9.15 13.6"/></g><g id="c3"><path fill="#7fdbfe" stroke="none" d="M10.75 4.9 Q10.75 4.6 10.9 4.35 11.25 3.45 11.95 2.75 13.3 1.5 14.35 2.1 15.4 2.7 14.95 4.45 14.7 5.4 14.1 6.15 L13.75 6.5 Q13.1 7.15 12.35 7.35 L11.4 7.2 Q10.95 6.9 10.75 6.4 10.5 5.75 10.75 4.9 M7.5 5.9 Q7.0 5.85 6.6 5.5 6.05 5.0 5.8 4.15 L5.7 3.6 Q5.55 2.65 5.8 1.7 6.25 0.0 7.5 0.0 L7.6 0.0 Q8.85 0.0 9.3 1.7 9.55 2.65 9.4 3.6 L9.3 4.15 8.5 5.5 7.6 5.9 7.5 5.9 M4.35 4.9 Q4.6 5.75 4.35 6.4 L3.7 7.2 2.75 7.35 Q2.0 7.15 1.35 6.5 L1.0 6.15 Q0.4 5.4 0.15 4.45 -0.3 2.7 0.75 2.1 1.8 1.5 3.15 2.75 3.85 3.45 4.2 4.35 L4.35 4.9 M5.5 13.7 Q4.45 13.9 3.65 12.95 2.75 12.0 3.2 10.25 3.7 8.5 5.25 7.6 6.4 6.9 7.55 7.0 8.75 6.9 9.9 7.6 11.45 8.5 11.95 10.25 12.35 12.0 11.5 12.95 10.7 13.9 9.65 13.7 8.55 13.5 7.55 12.6 6.55 13.5 5.5 13.7"/></g><g id="c4"><g><use transform="matrix(1.0,0.0,0.0,1.0,0.0,0.0)" xlink:href="#c3"/></g></g><radialGradient gradientUnits="userSpaceOnUse" r="819.2" cx="0" cy="0" spreadMethod="pad" gradientTransform="matrix(0.0914459228516,0.0,0.0,0.0914459228516,0.6,3.4)" id="gradient1"><stop offset="0.0" stop-color="#ffffff"/><stop offset="1.0" stop-color="#ffffff" stop-opacity="0.0"/></radialGradient><g id="c5"><path stroke="none" fill="url(#gradient1)" d="M36.65 -54.65 Q60.05 -42.0 69.75 -17.95 80.55 8.9 68.0 34.1 55.45 59.35 26.8 68.2 -1.8 77.05 -29.7 64.3 -57.6 51.6 -68.45 24.75 -79.3 -2.05 -66.75 -27.25 L-66.7 -27.3 Q-54.1 -52.5 -25.5 -61.4 3.1 -70.2 31.0 -57.5 L36.65 -54.65"/></g><g id="c6"><g><use transform="matrix(1.0,0.0,0.0,1.0,0.0,0.0)" xlink:href="#c5"/></g></g><radialGradient gradientUnits="userSpaceOnUse" r="819.2" cx="0" cy="0" spreadMethod="pad" gradientTransform="matrix(0.209197998047,0.0,0.0,0.177108764648,67.15,107.2)" id="gradient2"><stop offset="0.356862745098" stop-color="#ffffff"/><stop offset="0.670588235294" stop-opacity="0.0"/></radialGradient><g id="c7"><path fill="none" stroke-linejoin="round" stroke-linecap="round" stroke="url(#gradient2)" stroke-width="0.5" d="M136.55 165.8 L68.6 106.0 68.4 106.0 118.25 201.5 M68.3 105.8 L68.35 105.8 68.3 105.8 68.3 105.85 68.4 106.0 68.3 106.0 86.55 211.5 M68.3 105.8 L68.3 105.85 68.3 106.0 68.15 105.95 18.25 151.55 M68.3 105.85 L68.25 105.85 68.3 106.0 50.0 193.2 M68.25 105.85 L68.15 105.95 0.05 97.7 M68.3 105.85 L68.25 105.8 68.25 105.85 M68.25 105.8 L68.2 105.7 0.0 45.7 M68.3 105.8 L68.25 105.75 68.25 105.8 M68.25 105.75 L68.2 105.7 18.25 10.05 M68.6 106.0 L68.35 105.8 118.25 60.15 M86.6 18.35 L68.3 105.8 M136.6 114.25 L68.6 106.0 M68.25 105.75 L49.95 0.05"/></g><g id="c8"><g><use transform="matrix(1.0,0.0,0.0,1.0,0.0,0.0)" xlink:href="#c7"/></g></g><g id="c9"><g><use transform="matrix(1.0,0.0,0.0,1.0,0.0,0.0)" xlink:href="#c2"/></g><g><use transform="matrix(0.238861083984,-0.0867004394531,0.10026550293,0.233917236328,34.25,31.15)" xlink:href="#c4"/></g><g><use transform="matrix(0.238861083984,-0.0867004394531,0.10026550293,0.233917236328,4.25,10.3)" xlink:href="#c4"/></g><g><use transform="matrix(0.141098022461,-0.0378112792969,0.111373901367,0.225646972656,20.25,20.65)" filter="url(#filter7)" xlink:href="#c6"/></g><g><use transform="matrix(-0.155029296875,0.0513153076172,0.0841827392578,0.147033691406,22.6,3.15)" filter="url(#filter8)" xlink:href="#c8"/></g></g><filter id="filter7"><feColorMatrix in="SourceGraphic" type="matrix" values="0.0 0.0 0.0 0.0 0.796875 0.0 0.0 0.0 0.0 0.59765625 0.0 0.0 0.0 0.0 0.19921875 0.0 0.0 0.0 1.0 0.0" result="cxform"/><feComposite operator="in" in2="SourceGraphic" result="color-xform"/></filter><filter id="filter8"><feColorMatrix in="SourceGraphic" type="matrix" values="0.0 0.0 0.0 0.0 0.99609375 0.0 0.0 0.0 0.0 0.99609375 0.0 0.0 0.0 0.0 0.99609375 0.0 0.0 0.0 1.0 0.0" result="cxform"/><feComposite operator="in" in2="SourceGraphic" result="color-xform"/></filter><radialGradient gradientUnits="userSpaceOnUse" r="819.2" cx="0" cy="0" spreadMethod="pad" gradientTransform="matrix(0.0,-0.0156860351562,0.0346832275391,0.0,30.05,15.25)" id="gradient3"><stop offset="0.0" stop-color="#372a0e"/><stop offset="0.662745098039" stop-color="#372a0e"/><stop offset="1.0" stop-color="#382a0e" stop-opacity="0.0"/></radialGradient><g id="c10"><path stroke="none" fill="url(#gradient3)" d="M60.1 15.25 Q60.1 21.5 51.3 25.95 42.5 30.4 30.05 30.45 17.6 30.4 8.8 25.95 0.0 21.5 0.0 15.25 0.0 8.95 8.8 4.45 17.6 0.0 30.05 0.05 42.5 0.0 51.3 4.45 60.1 8.95 60.1 15.25"/></g><g id="c11"><g><use transform="matrix(1.0,0.0,0.0,1.0,0.0,0.0)" xlink:href="#c10"/></g></g><g id="c12"><path fill="#a1dde8" fill-opacity="0.6" d="M7.6 0.75 Q6.75 1.2 6.75 2.1 6.75 2.6 7.35 3.3 8.0 4.15 8.8 4.4 L11.4 4.9 Q13.55 5.3 15.05 6.1 16.5 6.85 17.25 8.3 18.0 9.75 18.0 12.6 18.0 15.45 16.4 18.2 15.2 20.25 13.75 21.05 11.6 22.4 8.75 22.3 6.25 22.25 4.65 21.05 L4.25 20.75 3.45 20.0 Q0.0 16.6 0.0 11.75 0.0 6.85 3.45 3.4 5.3 1.55 7.6 0.75"/><path fill="#476066" fill-opacity="0.6" d="M7.6 0.75 L9.45 0.2 11.75 0.0 Q16.6 0.0 20.05 3.4 23.5 6.85 23.5 11.75 23.5 16.6 20.05 20.0 16.6 23.5 11.75 23.5 7.7 23.5 4.65 21.05 6.25 22.25 8.75 22.3 11.6 22.4 13.75 21.05 15.2 20.25 16.4 18.2 18.0 15.45 18.0 12.6 18.0 9.75 17.25 8.3 16.5 6.85 15.05 6.1 13.55 5.3 11.4 4.9 L8.8 4.4 Q8.0 4.15 7.35 3.3 6.75 2.6 6.75 2.1 6.75 1.2 7.6 0.75"/><path fill="none" stroke="#000000" stroke-width="0.5" stroke-opacity="0.301960784314" d="M4.65 21.05 Q7.7 23.5 11.75 23.5 16.6 23.5 20.05 20.0 23.5 16.6 23.5 11.75 23.5 6.85 20.05 3.4 16.6 0.0 11.75 0.0 L9.45 0.2 7.6 0.75 M8.75 22.3 Q6.25 22.25 4.65 21.05 L4.25 20.75 3.45 20.0 Q0.0 16.6 0.0 11.75 0.0 6.85 3.45 3.4 5.3 1.55 7.6 0.75"/><path fill="#476066" fill-opacity="0.6" d="M20.2 11.85 Q20.2 15.25 17.8 17.6 15.45 20.0 12.05 20.0 8.65 20.0 6.25 17.6 3.9 15.25 3.9 11.85 3.9 8.45 6.25 6.05 8.65 3.7 12.05 3.7 15.45 3.7 17.8 6.05 20.2 8.45 20.2 11.85"/><path fill="#785423" fill-opacity="0.6" d="M12.95 10.1 L12.65 9.9 Q12.65 9.8 12.95 9.7 L13.75 9.6 14.5 9.7 14.85 9.9 14.5 10.1 13.75 10.2 12.95 10.1 M8.1 11.1 L6.55 10.8 Q5.95 10.55 5.95 10.2 5.95 9.85 6.55 9.55 L8.1 9.3 9.6 9.55 10.25 10.2 9.6 10.8 8.1 11.1"/><path fill="#52381c" fill-opacity="0.8" d="M20.0 8.85 Q20.5 10.25 20.5 11.9 20.5 15.55 17.95 18.1 15.55 20.45 12.3 20.6 L11.25 19.65 Q7.6 16.1 8.0 11.95 L11.25 12.25 11.65 12.25 Q15.1 12.25 17.55 11.3 20.0 10.4 20.0 9.1 L20.0 8.85"/><path fill="#785322" fill-opacity="0.8" d="M12.3 20.6 L11.8 20.6 11.45 20.6 Q9.45 20.55 7.75 19.65 6.65 19.05 5.65 18.1 3.1 15.55 3.1 11.9 3.1 10.7 3.4 9.6 3.75 10.55 5.75 11.3 L8.0 11.95 Q7.6 16.1 11.25 19.65 L12.3 20.6"/><path fill="#b07a33" fill-opacity="0.8" d="M3.4 9.6 L3.3 9.1 Q3.3 8.3 4.2 7.7 4.75 7.25 5.75 6.85 8.05 6.0 11.25 5.95 L11.65 5.95 Q15.1 5.95 17.55 6.85 19.2 7.5 19.75 8.3 L20.0 8.85 20.0 9.1 Q20.0 10.4 17.55 11.3 15.1 12.25 11.65 12.25 L11.25 12.25 8.0 11.95 5.75 11.3 Q3.75 10.55 3.4 9.6 M8.1 11.1 L9.6 10.8 10.25 10.2 9.6 9.55 8.1 9.3 6.55 9.55 Q5.95 9.85 5.95 10.2 5.95 10.55 6.55 10.8 L8.1 11.1 M12.95 10.1 L13.75 10.2 14.5 10.1 14.85 9.9 14.5 9.7 13.75 9.6 12.95 9.7 Q12.65 9.8 12.65 9.9 L12.95 10.1"/><path fill="none" stroke="#000000" stroke-width="0.5" stroke-opacity="0.152941176471" d="M3.4 9.6 L3.3 9.1 Q3.3 8.3 4.2 7.7 4.75 7.25 5.75 6.85 8.05 6.0 11.25 5.95 L11.65 5.95 Q15.1 5.95 17.55 6.85 19.2 7.5 19.75 8.3 L20.0 8.85 M3.4 9.6 Q3.75 10.55 5.75 11.3 L8.0 11.95 11.25 12.25 11.65 12.25 Q15.1 12.25 17.55 11.3 20.0 10.4 20.0 9.1 L20.0 8.85"/><path fill="#e6f4f5" fill-opacity="0.8" d="M3.5 17.5 Q1.7 15.3 1.1 13.15 0.5 10.95 0.95 9.2 1.45 7.45 2.65 6.5 3.8 5.5 5.0 5.85 6.2 6.15 6.8 7.6 7.35 9.05 6.85 10.8 6.4 12.55 5.2 13.5 4.0 14.45 3.5 17.5"/></g><g id="c13"><path fill="#3d3424" fill-opacity="0.4" d="M10.05 11.3 L3.3 9.9 Q1.55 9.35 1.95 8.55 2.3 7.75 4.3 6.85 6.3 5.95 9.15 5.55 11.95 5.15 14.0 5.65 16.05 6.15 16.25 8.55 16.4 10.9 15.9 11.5 L10.05 11.3"/><path fill="#706243" stroke="none" d="M8.05 0.05 L9.25 0.15 10.65 0.55 10.95 0.65 Q11.8 1.0 12.55 1.5 14.5 2.85 14.7 4.75 13.75 2.85 11.8 2.5 L11.5 1.75 Q11.15 1.35 10.45 1.05 L8.05 0.55 8.05 0.05"/><path fill="#d1bb7d" stroke="none" d="M7.9 4.0 L9.6 3.55 10.0 3.4 10.4 3.1 10.6 2.5 10.4 1.95 Q10.15 1.65 9.6 1.45 L7.85 1.05 7.5 1.0 7.25 1.0 6.05 1.1 4.85 1.45 Q3.9 1.85 3.9 2.5 3.9 3.15 4.85 3.55 L6.05 3.9 7.25 4.0 7.5 4.0 7.9 4.0 M8.05 0.55 L10.45 1.05 Q11.15 1.35 11.5 1.75 L11.8 2.5 11.5 3.3 10.95 3.7 10.45 3.9 8.15 4.5 7.55 4.5 7.25 4.5 Q5.35 4.5 4.0 3.9 2.7 3.35 2.7 2.5 2.7 1.65 4.0 1.05 5.35 0.5 7.25 0.5 L7.55 0.5 8.05 0.55"/><path fill="#736745" stroke="none" d="M6.05 1.1 L7.25 1.0 7.5 1.0 7.85 1.05 9.6 1.45 Q10.15 1.65 10.4 1.95 L10.6 2.5 10.4 3.1 10.0 3.4 9.6 3.55 7.9 4.0 7.5 4.0 7.25 4.0 6.05 3.9 6.05 1.1"/><path fill="#786948" stroke="none" d="M14.7 4.75 L14.7 5.15 Q14.7 7.0 13.1 8.4 13.7 5.5 10.95 3.7 L11.5 3.3 11.8 2.5 Q13.75 2.85 14.7 4.75"/><path fill="#877751" stroke="none" d="M13.1 8.4 L12.55 8.8 Q10.7 10.1 8.15 10.3 L7.35 10.3 Q4.4 10.3 2.3 8.9 10.35 8.0 8.15 4.5 L10.45 3.9 10.95 3.7 Q13.7 5.5 13.1 8.4 M10.45 3.9 Q10.3 4.05 10.5 4.0 L10.45 3.9"/><path fill="#b3a06b" stroke="none" d="M8.15 4.5 Q10.35 8.0 2.3 8.9 L2.15 8.8 Q0.0 7.3 0.0 5.15 0.0 3.0 2.15 1.5 2.9 0.95 3.8 0.65 L3.85 0.6 3.9 0.6 7.2 0.0 7.35 0.0 7.6 0.0 8.05 0.05 8.05 0.55 7.55 0.5 7.25 0.5 Q5.35 0.5 4.0 1.05 2.7 1.65 2.7 2.5 2.7 3.35 4.0 3.9 5.35 4.5 7.25 4.5 L7.55 4.5 8.15 4.5"/><path fill="#63583b" stroke="none" d="M6.05 3.9 L4.85 3.55 Q3.9 3.15 3.9 2.5 3.9 1.85 4.85 1.45 L6.05 1.1 6.05 3.9"/><path fill="none" stroke="#000000" stroke-width="0.5" stroke-opacity="0.301960784314" d="M8.05 0.05 L9.25 0.15 10.65 0.55 10.95 0.65 Q11.8 1.0 12.55 1.5 14.5 2.85 14.7 4.75 L14.7 5.15 Q14.7 7.0 13.1 8.4 L12.55 8.8 Q10.7 10.1 8.15 10.3 L8.15 10.55 M6.05 1.1 L7.25 1.0 7.5 1.0 7.85 1.05 9.6 1.45 Q10.15 1.65 10.4 1.95 L10.6 2.5 10.4 3.1 10.0 3.4 9.6 3.55 7.9 4.0 M7.5 4.0 L7.25 4.0 6.05 3.9 4.85 3.55 Q3.9 3.15 3.9 2.5 3.9 1.85 4.85 1.45 L6.05 1.1 6.05 3.9 M8.05 0.55 L10.45 1.05 Q11.15 1.35 11.5 1.75 L11.8 2.5 Q13.75 2.85 14.7 4.75 M10.95 3.7 L10.45 3.9 8.15 4.5 M2.3 8.9 Q4.4 10.3 7.35 10.3 L8.15 10.3 M11.8 2.5 L11.5 3.3 10.95 3.7 Q13.7 5.5 13.1 8.4 M8.05 0.05 L7.6 0.0 7.35 0.0 7.2 0.0 3.9 0.6 M3.8 0.65 Q2.9 0.95 2.15 1.5 0.0 3.0 0.0 5.15 0.0 7.3 2.15 8.8 L2.3 8.9 M8.05 0.55 L8.05 0.05 M7.55 4.5 L7.25 4.5 Q5.35 4.5 4.0 3.9 2.7 3.35 2.7 2.5 2.7 1.65 4.0 1.05 5.35 0.5 7.25 0.5 L7.55 0.5 8.05 0.55"/><path fill="none" stroke="#000000" stroke-width="0.5" stroke-opacity="0.152941176471" d="M5.95 4.3 Q4.85 7.2 5.95 10.25 M3.25 3.4 Q0.95 4.9 1.2 8.2 M2.7 2.2 Q0.95 2.7 0.05 4.05"/></g><linearGradient gradientUnits="userSpaceOnUse" x1="-819.2" x2="819.2" spreadMethod="pad" gradientTransform="matrix(0.00909423828125,0.0,0.0,0.00379943847656,-3.4,-56.65)" id="gradient4"><stop offset="0.0" stop-color="#ccb87a"/><stop offset="0.337254901961" stop-color="#a39361"/><stop offset="0.580392156863" stop-color="#756746"/><stop offset="0.878431372549" stop-color="#756946"/><stop offset="1.0" stop-color="#a39361"/></linearGradient><linearGradient gradientUnits="userSpaceOnUse" x1="-819.2" x2="819.2" spreadMethod="pad" gradientTransform="matrix(-0.00141906738281,0.0,0.0,-0.00100708007812,-7.75,-59.65)" id="gradient5"><stop offset="0.0" stop-color="#a48c3f"/><stop offset="1.0" stop-color="#806d30"/></linearGradient><g id="c14"><path fill="#d9bf4f" stroke="none" d="M-8.25 -57.8 L-8.75 -58.0 -8.8 -58.05 -8.8 -58.1 -8.7 -58.05 -8.25 -57.8"/><path fill="#9b8c5c" stroke="none" d="M4.1 -59.0 L3.9 -59.1 4.45 -59.9 4.1 -59.0"/><path fill="#dbcb7a" stroke="none" d="M4.45 -59.9 L3.9 -59.1 2.55 -58.1 2.4 -58.05 1.85 -57.8 -2.35 -56.9 -2.6 -56.9 -2.7 -56.9 -2.9 -56.9 -3.0 -56.9 -3.2 -56.9 -3.3 -56.9 -3.4 -56.9 -3.5 -56.9 -8.25 -57.8 -8.7 -58.05 -8.8 -58.1 -10.35 -59.1 -10.75 -59.6 -10.8 -59.75 -11.05 -60.3 -11.05 -60.35 -11.15 -60.65 -11.15 -60.75 -11.15 -60.9 Q-11.15 -62.55 -8.8 -63.7 -6.5 -64.9 -3.2 -64.9 0.05 -64.9 2.4 -63.7 4.7 -62.55 4.7 -60.9 L4.7 -60.8 4.65 -60.45 4.5 -60.0 4.45 -59.9"/><path stroke="none" fill="url(#gradient4)" d="M3.9 -59.1 L4.1 -59.0 3.3 -57.4 2.5 -55.95 2.1 -55.75 1.35 -55.4 -0.25 -55.0 -3.25 -54.75 Q-5.75 -54.8 -7.65 -55.5 L-8.3 -55.8 -8.3 -55.85 Q-8.95 -56.1 -9.25 -56.35 -9.7 -56.75 -9.65 -57.1 L-9.6 -57.15 -10.75 -59.6 -10.35 -59.1 -8.8 -58.1 -8.8 -58.05 -8.75 -58.0 -8.25 -57.8 -3.5 -56.9 -3.4 -56.9 -3.3 -56.9 -3.2 -56.9 -3.0 -56.9 -2.9 -56.9 -2.7 -56.9 -2.6 -56.9 -2.35 -56.9 1.85 -57.8 2.4 -58.05 2.55 -58.1 3.9 -59.1 M-9.25 -56.35 L-9.6 -57.15 -9.25 -56.35"/><path fill="none" stroke="#000000" stroke-width="0.5" stroke-opacity="0.152941176471" d="M-8.35 -53.65 L-8.85 -54.6 -8.8 -55.25"/><path fill="none" stroke="#000000" stroke-width="0.5" stroke-opacity="0.301960784314" d="M4.1 -59.0 L4.45 -59.9 3.9 -59.1 2.55 -58.1 2.4 -58.05 1.85 -57.8 -2.35 -56.9 -2.6 -56.9 -2.7 -56.9 -2.9 -56.9 -3.0 -56.9 -3.2 -56.9 -3.3 -56.9 -3.4 -56.9 -3.5 -56.9 -8.25 -57.8 -8.7 -58.05 -8.8 -58.1 -10.35 -59.1 -10.75 -59.6 -9.6 -57.15 -9.25 -56.35 M-8.8 -58.05 L-8.8 -58.1 M2.5 -55.95 L3.3 -57.4 4.1 -59.0 M-11.15 -60.75 L-11.15 -60.9 Q-11.15 -62.55 -8.8 -63.7 -6.5 -64.9 -3.2 -64.9 0.05 -64.9 2.4 -63.7 4.7 -62.55 4.7 -60.9 L4.7 -60.8 4.65 -60.45 4.5 -60.0 4.45 -59.9 M-10.75 -59.6 L-10.8 -59.75 -11.05 -60.3 -11.05 -60.35 -11.15 -60.65"/><path stroke="none" fill="url(#gradient5)" d="M-7.4 -58.8 L-8.55 -59.05 -9.0 -59.65 -8.55 -60.2 -7.4 -60.45 -6.3 -60.2 -5.85 -59.6 Q-5.85 -59.25 -6.3 -59.05 L-7.4 -58.8"/><path fill="none" stroke="#000000" stroke-width="0.5" stroke-opacity="0.152941176471" d="M-7.4 -58.8 L-8.55 -59.05 -9.0 -59.65 -8.55 -60.2 -7.4 -60.45 -6.3 -60.2 -5.85 -59.6 Q-5.85 -59.25 -6.3 -59.05 L-7.4 -58.8"/><path fill="none" stroke="#000000" stroke-width="0.5" stroke-opacity="0.101960784314" d="M3.4 -62.25 L3.7 -62.35 M3.7 -61.85 L3.95 -61.85 M4.25 -60.7 L3.95 -59.9 Q3.55 -59.1 1.5 -58.15 M2.8 -59.85 L2.7 -59.75 2.55 -59.7 2.4 -59.75 2.3 -59.85 2.4 -59.9 2.55 -59.9 2.7 -59.9 2.8 -59.85 M1.65 -59.9 L0.95 -60.1 Q0.65 -60.2 0.65 -60.45 L0.95 -60.85 1.65 -61.0 2.4 -60.85 2.7 -60.45 2.4 -60.1 1.65 -59.9 M0.3 -58.1 L-0.7 -57.9 -1.7 -58.1 Q-2.1 -58.3 -2.1 -58.6 L-1.7 -59.05 -0.7 -59.25 0.3 -59.05 0.7 -58.6 Q0.7 -58.3 0.3 -58.1 M1.45 -57.65 L1.1 -55.9 M3.15 -58.5 L2.45 -55.9 M1.85 -57.15 L1.55 -55.45 M-8.2 -62.15 L-7.75 -62.05 -7.55 -61.9 -7.55 -61.85 -7.75 -61.6 -8.2 -61.5 -8.65 -61.6 -8.85 -61.85 -8.8 -61.9 -8.65 -62.05 -8.2 -62.15 M-5.8 -62.95 L-5.4 -63.35 -4.55 -63.5 -3.65 -63.35 -3.3 -62.95 Q-3.3 -62.7 -3.65 -62.55 L-4.55 -62.35 -5.4 -62.55 -5.8 -62.95 M-2.75 -62.45 L-2.35 -62.35 -2.2 -62.15 -2.35 -61.95 -2.85 -61.9 -3.15 -61.95 -3.3 -62.15 -3.15 -62.35 -2.85 -62.45 -2.75 -62.45 M-1.3 -63.55 L-1.4 -63.45 -1.65 -63.4 -1.9 -63.45 -2.05 -63.55 -1.9 -63.65 -1.65 -63.7 -1.4 -63.65 -1.3 -63.55 M-10.45 -61.05 L-10.4 -61.1 -10.25 -61.15 -10.1 -61.1 -10.05 -61.05 -10.1 -61.0 -10.25 -61.0 -10.4 -61.0 -10.45 -61.05 M-4.1 -59.3 L-4.2 -59.35 -4.1 -59.45 -3.95 -59.45 -3.75 -59.45 -3.65 -59.35 -3.75 -59.3 -3.95 -59.25 -4.1 -59.3 M-4.9 -56.95 L-4.85 -55.75 M-1.9 -56.95 L-1.9 -56.6 M-6.1 -57.55 L-3.45 -57.3 -1.9 -57.4 M-7.3 -60.4 L-7.2 -58.9 M-6.35 -60.15 L-6.4 -58.9 M-8.55 -60.4 L-8.6 -60.35 -8.8 -60.3 -9.0 -60.35 -9.05 -60.4 -9.0 -60.45 -8.8 -60.5 -8.6 -60.45 -8.55 -60.4 M-9.45 -58.4 L-8.85 -56.2 M-6.55 -56.95 L-6.55 -57.2 M-2.0 -56.15 L-2.15 -54.75 M-10.25 -58.85 L-9.9 -58.0 M-10.15 -62.3 Q-9.0 -63.8 -5.9 -64.35"/></g><g id="c15"><path fill="#998d6a" stroke="none" d="M5.3 0.0 L11.2 1.75 5.6 3.65 4.0 1.9 5.3 0.0"/><path fill="#736950" stroke="none" d="M5.6 3.65 L0.0 2.1 5.3 0.0 4.0 1.9 5.6 3.65"/></g><g id="c16"><g><use transform="matrix(1.0,0.0,0.0,1.0,0.0,0.0)" xlink:href="#c15"/></g></g><g id="c17"><path fill="#cac5bd" stroke="none" d="M4.15 -7.2 Q2.55 -5.5 2.55 -4.05 2.55 -3.15 4.3 -2.55 6.05 -1.9 6.05 0.75 L6.05 3.2 Q5.75 4.5 3.65 4.5 L2.25 4.1 0.05 3.15 -3.0 3.7 -6.35 4.2 Q-7.1 4.2 -8.1 3.15 -9.2 2.0 -9.2 0.9 -9.2 -0.3 -7.35 -3.2 L-5.55 -6.5 -5.6 -7.15 -5.15 -7.2 4.15 -7.2"/><path fill="#c9c4bd" fill-opacity="0.780392156863" d="M4.15 -7.2 L5.1 -7.2 Q7.15 -7.2 8.6 -5.75 10.1 -4.25 10.1 -2.2 L10.1 2.2 Q10.1 4.25 8.6 5.7 7.15 7.2 5.1 7.2 L-5.15 7.2 Q-7.2 7.2 -8.7 5.7 -10.15 4.25 -10.15 2.2 L-10.15 -2.2 Q-10.15 -4.25 -8.7 -5.75 -7.4 -7.05 -5.6 -7.15 L-5.55 -6.5 -7.35 -3.2 Q-9.2 -0.3 -9.2 0.9 -9.2 2.0 -8.1 3.15 -7.1 4.2 -6.35 4.2 L-3.0 3.7 0.05 3.15 2.25 4.1 3.65 4.5 Q5.75 4.5 6.05 3.2 L6.05 0.75 Q6.05 -1.9 4.3 -2.55 2.55 -3.15 2.55 -4.05 2.55 -5.5 4.15 -7.2"/></g><g id="c18"><g><use transform="matrix(1.0,0.0,0.0,1.0,0.0,0.0)" xlink:href="#c17"/></g></g><g id="c19"><path fill="#2d2117" fill-opacity="0.811764705882" d="M22.1 -0.3 Q0.0 1.85 -22.15 -0.3 0.95 -1.35 22.1 -0.3"/></g><g id="c20"><g><use transform="matrix(1.0,0.0,0.0,1.0,0.0,0.0)" xlink:href="#c19"/></g></g><g id="c21"><g><use transform="matrix(1.0,0.0,0.0,1.0,0.0,0.0)" xlink:href="#c20"/></g><g><use transform="matrix(0.855529785156,0.0,0.0,0.647857666016,-14.85,-9.55)" xlink:href="#c20"/></g><g><use transform="matrix(0.855529785156,0.0,0.0,0.647857666016,-4.65,4.4)" xlink:href="#c20"/></g><g><use transform="matrix(0.855529785156,0.0,0.0,0.647857666016,8.6,8.0)" xlink:href="#c20"/></g><g><use transform="matrix(0.855529785156,0.0,0.0,0.647857666016,-8.8,-5.5)" xlink:href="#c20"/></g></g><g id="c22"><g><use transform="matrix(0.0112457275391,0.35710144043,0.579650878906,0.144348144531,6.25,29.05)" xlink:href="#c21"/></g><g><use transform="matrix(0.0112457275391,0.35710144043,0.579650878906,0.144348144531,6.9,18.5)" xlink:href="#c21"/></g><g><use transform="matrix(0.00900268554688,0.285675048828,0.463745117188,0.115463256836,13.9,18.65)" xlink:href="#c21"/></g></g><g id="c23"><path fill="#3d3424" fill-opacity="0.4" d="M0.15 -56.4 L0.35 -57.15 4.1 -59.0 2.8 -56.1 2.1 -55.75 1.35 -55.4 -0.25 -55.0 0.15 -56.4"/></g><g id="c24"><g><use transform="matrix(1.0,0.0,0.0,1.0,0.0,0.0)" xlink:href="#c14"/></g><g><use transform="matrix(0.251953125,0.0,0.0,0.251953125,-4.4,-57.5)" filter="url(#filter22)" xlink:href="#c16"/></g><g><use transform="matrix(0.171966552734,-0.0307464599609,0.0,0.130096435547,-0.15,-56.05)" filter="url(#filter23)" xlink:href="#c18"/></g><g><use transform="matrix(0.209030151367,0.0,0.0,0.0539855957031,-5.55,-56.85)" filter="url(#filter24)" xlink:href="#c22"/></g><g><use transform="matrix(0.188934326172,0.0908203125,-0.177093505859,0.306732177734,-9.35,-59.2)" filter="url(#filter25)" xlink:href="#c16"/></g><g><use transform="matrix(1.0,0.0,0.0,1.0,0.0,0.0)" xlink:href="#c23"/></g></g><filter id="filter22"><feColorMatrix in="SourceGraphic" type="matrix" values="0.3984375 0.0 0.0 0.0 0.51171875 0.0 0.3984375 0.0 0.0 0.4765625 0.0 0.0 0.3984375 0.0 0.28515625 0.0 0.0 0.0 1.0 0.0" result="cxform"/><feComposite operator="in" in2="SourceGraphic" result="color-xform"/></filter><filter id="filter23"><feColorMatrix in="SourceGraphic" type="matrix" values="0.05859375 0.0 0.0 0.0 0.4296875 0.0 0.05859375 0.0 0.0 0.3828125 0.0 0.0 0.05859375 0.0 0.2578125 0.0 0.0 0.0 1.0 0.0" result="cxform"/><feComposite operator="in" in2="SourceGraphic" result="color-xform"/></filter><filter id="filter24"><feColorMatrix in="SourceGraphic" type="matrix" values="0.05859375 0.0 0.0 0.0 0.51953125 0.0 0.05859375 0.0 0.0 0.4609375 0.0 0.0 0.05859375 0.0 0.30859375 0.0 0.0 0.0 1.0 0.0" result="cxform"/><feComposite operator="in" in2="SourceGraphic" result="color-xform"/></filter><filter id="filter25"><feColorMatrix in="SourceGraphic" type="matrix" values="0.2578125 0.0 0.0 0.0 0.65234375 0.0 0.2578125 0.0 0.0 0.60546875 0.0 0.0 0.2578125 0.0 0.36328125 0.0 0.0 0.0 1.0 0.0" result="cxform"/><feComposite operator="in" in2="SourceGraphic" result="color-xform"/></filter><g id="c25"><g><use transform="matrix(1.0,0.0,0.0,1.0,0.0,0.0)" xlink:href="#c13"/></g><g><use transform="matrix(0.728057861328,0.0,0.0,0.728057861328,9.6,44.25)" xlink:href="#c24"/></g></g><radialGradient gradientUnits="userSpaceOnUse" r="819.2" cx="0" cy="0" spreadMethod="pad" gradientTransform="matrix(0.0348510742188,0.0,0.0,0.0348510742188,0.0,0.0)" id="gradient6"><stop offset="0.0" stop-color="#ffffff" stop-opacity="0.8"/><stop offset="1.0" stop-color="#fef18a" stop-opacity="0.0"/></radialGradient><g id="c26"><path stroke="none" fill="url(#gradient6)" d="M19.8 -19.8 Q28.0 -11.6 28.0 0.0 28.0 11.6 19.8 19.8 11.6 28.0 0.0 28.0 -11.6 28.0 -19.8 19.8 -28.0 11.6 -28.0 0.0 -28.0 -11.6 -19.8 -19.8 -11.6 -28.0 0.0 -28.0 11.6 -28.0 19.8 -19.8"/></g><g id="c27"><g><use transform="matrix(1.0,0.0,0.0,1.0,0.0,0.0)" xlink:href="#c26"/></g></g><g id="c28"><g><use transform="matrix(0.435363769531,0.0,0.0,0.435363769531,0.5,14.7)" filter="url(#filter30)" xlink:href="#c11"/></g><g><use transform="matrix(1.0,0.0,0.0,1.0,0.0,0.0)" xlink:href="#c12"/></g><g><use transform="matrix(1.0,0.0,0.0,1.0,4.55,-3.15)" xlink:href="#c25"/></g><g><use transform="matrix(0.294540405273,0.0,0.0,0.362487792969,8.75,12.8)" filter="url(#filter33)" xlink:href="#c27"/></g></g><filter id="filter30"><feColorMatrix in="SourceGraphic" type="matrix" values="1.0 0.0 0.0 0.0 0.0 0.0 1.0 0.0 0.0 0.0 0.0 0.0 1.0 0.0 0.0 0.0 0.0 0.0 0.328125 0.0" result="cxform"/><feComposite operator="in" in2="SourceGraphic" result="color-xform"/></filter><filter id="filter33"><feColorMatrix in="SourceGraphic" type="matrix" values="1.0 0.0 0.0 0.0 0.0 0.0 1.0 0.0 0.0 0.0 0.0 0.0 1.0 0.0 0.0 0.0 0.0 0.0 0.30078125 0.0" result="cxform"/><feComposite operator="in" in2="SourceGraphic" result="color-xform"/></filter><g id="c29"><path fill="#bb864a" stroke="none" d="M58.15 110.05 L57.95 109.4 56.4 109.7 53.4 110.1 Q49.7 111.0 47.8 110.75 44.8 110.4 44.25 110.05 43.3 109.6 44.55 107.85 45.4 106.7 48.5 104.5 50.5 103.2 49.45 102.9 L45.4 101.4 45.65 100.3 Q46.45 98.95 48.5 98.15 50.85 97.2 54.9 93.85 L56.4 92.75 63.15 86.4 63.75 85.7 67.1 81.65 70.15 77.35 73.7 72.7 74.75 71.65 Q76.05 70.8 76.95 70.8 77.65 70.95 79.85 72.0 L84.2 75.0 84.85 75.5 92.75 82.0 93.1 82.35 96.35 85.7 98.0 87.65 98.45 88.15 101.1 91.5 104.15 95.3 103.7 96.0 Q103.2 96.35 102.2 95.65 L100.4 94.2 95.2 88.15 94.65 87.65 92.75 85.7 90.35 83.4 Q81.3 75.0 82.0 85.0 L82.1 85.0 82.2 85.7 82.35 87.65 82.45 88.15 82.9 93.5 82.3 96.0 Q81.95 97.55 81.25 98.95 80.35 100.8 79.05 102.5 75.45 107.2 69.4 108.9 L63.5 109.4 59.8 109.25 58.95 109.4 58.15 110.05"/><path fill="#996d3d" stroke="none" d="M104.15 95.3 L104.7 96.0 107.15 98.95 107.4 99.25 110.4 101.25 Q112.65 102.55 114.25 103.8 116.45 105.65 116.8 107.2 117.15 108.6 115.4 109.7 114.15 110.3 111.6 110.55 108.9 110.8 107.4 111.45 L104.35 113.35 Q102.9 114.4 100.9 114.85 98.9 115.3 92.75 114.75 L84.3 114.35 74.75 115.4 Q67.9 116.0 65.35 115.55 62.2 115.2 59.1 114.25 57.15 113.7 56.4 113.2 55.75 112.85 55.7 112.6 55.5 111.8 56.3 111.25 L56.4 111.15 58.15 110.05 58.95 109.4 59.8 109.25 63.5 109.4 69.4 108.9 Q75.45 107.2 79.05 102.5 80.35 100.8 81.25 98.95 81.95 97.55 82.3 96.0 L82.9 93.5 82.45 88.15 82.35 87.65 82.2 85.7 82.1 85.0 82.0 85.0 Q81.3 75.0 90.35 83.4 L92.75 85.7 94.65 87.65 95.2 88.15 100.4 94.2 102.2 95.65 Q103.2 96.35 103.7 96.0 L104.15 95.3"/><path fill="#6a6a6a" fill-opacity="0.250980392157" d="M75.15 71.4 Q75.8 72.8 74.65 73.35 73.4 73.75 72.9 72.55 72.35 71.3 73.4 70.7 74.55 70.1 75.15 71.4 M66.5 84.55 Q65.45 85.1 64.75 84.2 64.0 83.25 65.15 82.65 65.8 82.3 66.3 82.45 L66.2 82.3 Q65.7 80.9 66.9 80.15 L67.1 80.1 Q66.5 79.05 67.9 78.25 69.4 77.35 70.5 78.85 71.75 80.35 70.0 80.95 L68.95 81.25 Q69.45 82.55 68.25 83.15 L67.0 83.25 Q67.35 84.15 66.5 84.55 M73.25 74.2 Q73.85 75.25 72.8 75.85 71.75 76.4 70.95 75.45 70.25 74.45 71.4 73.85 72.65 73.15 73.25 74.2 M71.55 76.5 Q72.45 77.55 71.4 78.25 70.25 78.85 69.8 77.9 69.3 76.95 70.0 76.2 70.7 75.45 71.55 76.5 M75.45 71.85 Q74.75 70.95 75.9 70.35 76.85 69.75 77.65 70.6 78.4 70.0 79.3 71.05 80.25 72.2 79.05 72.9 77.9 73.6 77.35 72.55 L77.3 72.35 Q76.15 72.8 75.45 71.85 M83.0 72.2 Q83.5 73.05 82.65 73.5 81.75 74.05 81.15 73.25 80.55 72.45 81.5 71.9 82.45 71.3 83.0 72.2 M84.75 74.45 Q85.1 75.25 84.9 75.8 L85.2 75.5 Q86.15 75.0 86.75 75.85 87.45 76.75 86.5 77.1 85.45 77.55 84.9 76.75 84.55 76.4 84.75 76.15 84.5 76.2 84.2 76.4 83.0 76.85 82.45 75.6 81.95 74.4 83.0 73.75 84.15 73.15 84.75 74.45 M91.4 79.75 L91.6 80.1 Q92.4 79.9 92.8 80.95 93.45 82.35 92.3 82.9 91.05 83.35 90.55 82.1 90.2 81.3 90.55 80.8 L90.1 80.45 Q89.65 79.9 90.35 79.45 91.05 79.1 91.4 79.75 M89.5 78.15 Q90.7 79.65 89.2 80.55 87.65 81.4 87.05 80.1 86.35 78.75 87.3 77.7 88.25 76.65 89.5 78.15 M59.1 91.75 Q58.05 92.3 57.25 91.35 56.55 90.35 57.7 89.75 L59.2 89.65 59.1 89.55 Q58.6 88.35 59.65 87.75 60.75 87.1 61.4 88.45 62.0 89.85 60.85 90.35 L59.65 90.25 Q60.05 91.25 59.1 91.75 M57.1 91.95 Q57.95 92.9 56.9 93.5 55.95 94.15 55.4 93.25 55.0 92.3 55.6 91.6 56.3 90.9 57.1 91.95 M53.65 95.7 Q54.3 97.1 53.15 97.65 51.9 98.1 51.4 96.85 50.85 95.65 51.9 95.0 L52.1 94.95 Q51.3 93.85 52.5 93.15 53.75 92.55 54.65 93.7 55.6 94.85 54.2 95.35 L53.55 95.65 53.65 95.7 M49.7 96.6 Q50.15 97.3 49.45 97.75 48.65 98.1 48.2 97.45 47.7 96.75 48.5 96.35 49.35 95.9 49.7 96.6 M49.9 105.3 Q48.9 105.9 48.5 105.0 48.05 104.25 48.55 103.6 L48.3 103.35 48.15 103.0 47.25 103.7 Q45.85 104.3 45.25 102.9 44.95 102.3 45.05 101.95 44.6 101.7 44.25 101.25 43.4 100.2 44.7 99.4 L45.65 99.15 Q45.75 98.6 46.2 98.1 47.15 97.05 48.4 98.55 49.7 100.1 48.15 101.0 L47.8 101.15 47.95 101.5 48.2 102.3 Q48.3 101.95 48.75 101.75 49.95 101.05 50.6 102.15 51.2 103.2 50.15 103.8 L50.15 103.9 Q50.85 104.75 49.9 105.3 M47.45 105.45 Q48.15 106.35 47.1 106.8 46.0 107.2 45.4 106.45 44.8 105.55 45.75 105.0 46.75 104.5 47.45 105.45 M56.1 109.25 Q56.65 110.2 55.7 110.75 54.7 111.35 54.1 110.45 53.4 109.5 54.45 109.0 55.6 108.35 56.1 109.25 M58.85 108.7 L59.1 109.05 59.3 109.25 59.35 109.75 59.35 109.95 Q59.3 110.45 58.6 110.8 57.25 111.6 56.65 110.4 56.1 109.25 56.9 108.25 57.7 107.5 58.65 108.55 L58.85 108.7 M53.55 110.05 Q54.1 111.25 53.15 111.6 52.25 111.95 51.8 111.35 L51.2 111.7 Q49.9 112.2 49.2 111.25 48.4 110.2 49.55 109.6 50.7 108.9 51.55 109.95 51.75 109.6 52.1 109.4 53.05 108.9 53.55 110.05 M59.7 113.65 Q60.35 115.05 59.2 115.55 57.95 116.0 57.45 114.75 57.15 114.15 57.35 113.7 L57.1 113.8 Q55.7 114.7 55.0 113.35 54.35 112.15 55.25 111.1 56.2 110.1 57.35 111.5 58.05 112.3 57.9 113.0 L57.95 112.95 Q59.1 112.3 59.7 113.65 M44.9 110.45 Q43.85 111.0 43.05 110.05 42.35 109.05 43.5 108.45 L43.75 108.35 Q43.5 107.55 44.2 107.15 44.95 106.7 45.4 107.65 45.85 108.45 45.3 108.9 45.95 109.85 44.9 110.45 M48.2 110.55 Q49.1 111.5 48.05 112.15 47.1 112.75 46.55 111.85 46.1 110.9 46.75 110.2 47.45 109.5 48.2 110.55 M63.15 87.55 Q62.25 87.9 61.75 87.3 61.2 86.6 62.0 86.15 L62.6 85.95 Q62.45 85.2 63.05 84.55 63.95 83.6 65.1 84.9 66.2 86.3 64.8 87.1 63.95 87.65 63.4 87.45 L63.15 87.55 M62.35 106.1 Q61.05 106.6 60.35 105.65 59.55 104.6 60.7 103.95 L62.25 103.9 Q62.1 103.1 62.7 102.5 63.5 101.6 64.55 102.85 65.6 104.15 64.3 104.85 63.6 105.3 63.15 105.2 63.25 105.75 62.35 106.1 M66.85 101.15 Q67.45 102.2 66.4 102.85 65.35 103.35 64.55 102.4 63.85 101.4 65.0 100.8 66.2 100.1 66.85 101.15 M68.95 99.6 Q69.3 100.35 68.95 100.9 L68.95 101.0 68.4 101.25 67.25 101.15 66.55 100.65 Q65.8 99.6 66.9 98.95 L67.9 98.7 68.15 98.8 68.95 99.6 M70.7 99.15 Q69.55 99.6 68.85 98.7 68.4 98.15 68.7 97.8 68.75 97.45 69.2 97.2 69.9 96.75 70.5 97.2 L70.5 97.1 70.35 96.5 Q69.75 95.55 70.85 94.95 72.2 94.2 72.8 95.3 73.15 96.0 72.9 96.5 72.9 97.05 72.2 97.45 71.55 97.9 71.15 97.75 71.75 98.55 70.95 99.05 70.85 99.05 70.7 99.15 M71.95 114.7 Q72.55 115.75 71.5 116.35 L70.5 116.55 Q70.45 117.3 69.4 117.75 67.8 118.35 67.1 117.05 65.85 117.4 65.1 116.35 64.2 115.1 65.6 114.35 L67.35 114.25 67.7 114.0 Q69.05 113.2 69.9 114.5 L70.1 114.35 Q71.3 113.65 71.95 114.7 M75.0 115.55 Q75.95 116.7 74.75 117.4 73.6 118.1 73.05 117.05 72.55 116.0 73.25 115.2 74.05 114.4 75.0 115.55 M61.85 114.25 Q62.2 114.85 61.55 115.2 60.95 115.55 60.5 114.95 60.05 114.4 60.75 114.0 61.5 113.65 61.85 114.25 M64.2 115.2 Q65.35 116.55 63.95 117.3 62.6 118.1 62.0 116.9 61.5 115.75 62.25 114.75 63.15 113.9 64.2 115.2 M87.9 113.8 Q88.8 114.95 87.45 115.45 86.15 116.0 85.45 115.05 L85.2 115.2 Q84.4 115.75 83.95 115.05 83.6 114.35 84.15 113.7 84.65 113.2 85.25 113.9 85.35 113.65 85.8 113.35 87.05 112.65 87.9 113.8 M90.2 114.75 Q90.65 115.55 89.95 115.8 89.2 116.2 88.85 115.4 88.5 114.7 89.2 114.35 89.85 113.9 90.2 114.75 M93.15 114.15 Q93.7 115.1 92.75 115.65 91.75 116.25 91.15 115.4 90.45 114.4 91.5 113.9 92.65 113.3 93.15 114.15 M80.35 114.15 Q80.95 115.45 79.85 115.9 79.2 116.2 78.75 115.9 L78.05 116.35 Q76.75 116.95 75.95 115.9 75.15 114.85 76.4 114.15 L78.15 114.25 Q78.25 113.8 78.75 113.45 79.75 112.85 80.35 114.15 M83.25 114.0 Q83.8 115.05 82.8 115.55 81.75 116.1 81.05 115.2 80.35 114.25 81.5 113.65 82.65 113.0 83.25 114.0 M95.2 83.25 L95.55 83.85 Q96.15 83.5 97.05 84.5 98.1 85.8 96.8 86.5 95.45 87.3 94.95 86.15 94.6 85.55 94.75 84.9 93.45 85.45 92.75 84.5 91.95 83.4 93.1 82.8 94.3 82.1 95.2 83.25 M117.05 104.5 Q117.65 105.8 116.55 106.25 115.4 106.7 114.95 105.55 114.4 104.4 115.5 103.8 116.45 103.2 117.05 104.5 M114.95 102.65 Q115.55 103.7 114.5 104.3 113.45 104.85 112.65 103.9 111.95 102.9 113.1 102.3 114.35 101.6 114.95 102.65 M112.5 100.45 Q113.45 101.6 112.25 102.3 111.1 103.0 110.55 101.95 110.05 100.9 110.75 100.1 111.55 99.3 112.5 100.45 M101.35 89.55 L101.6 90.45 Q102.9 90.1 103.9 91.4 104.85 92.65 104.05 93.35 L104.05 93.45 Q105.2 94.85 103.8 95.65 102.4 96.5 101.8 95.3 101.45 94.55 101.6 93.95 100.8 93.8 100.3 93.1 99.65 92.3 99.95 91.7 99.3 91.6 98.95 90.8 98.35 89.5 99.5 88.8 100.65 88.15 101.35 89.55 M98.8 86.85 Q99.4 87.9 98.35 88.5 97.3 89.05 96.5 88.1 95.8 87.1 96.95 86.5 98.2 85.8 98.8 86.85 M108.3 98.15 L108.45 98.55 108.55 98.45 Q109.6 97.8 110.4 98.9 111.2 99.85 110.05 100.35 108.9 100.8 108.2 99.95 L108.1 99.75 107.75 99.95 Q106.6 100.35 106.15 99.25 105.65 98.1 106.7 97.45 107.65 96.85 108.3 98.15 M106.85 95.35 Q107.5 96.4 106.45 97.05 105.4 97.55 104.6 96.6 103.9 95.65 105.05 95.0 106.25 94.3 106.85 95.35 M118.3 107.4 Q119.15 108.55 117.85 109.05 116.9 109.5 116.25 109.05 117.25 110.2 116.0 111.0 115.05 111.5 114.4 111.0 114.4 111.7 113.45 112.2 112.05 113.0 111.1 111.8 L110.75 111.95 110.2 112.05 109.25 112.75 Q107.65 113.45 106.7 112.2 105.8 111.0 107.2 110.2 108.65 109.5 109.6 110.55 109.7 110.3 109.95 110.2 110.45 109.95 110.8 110.2 111.0 109.75 111.6 109.4 113.1 108.6 114.0 109.7 114.0 109.15 114.4 108.6 115.05 108.0 115.85 108.6 115.05 107.55 116.2 106.95 117.4 106.25 118.3 107.4 M104.05 113.35 Q104.75 114.7 103.55 115.4 102.2 116.1 101.35 115.05 101.35 115.8 100.55 116.2 99.3 116.6 98.8 115.4 98.25 114.15 99.3 113.55 100.4 113.0 101.0 114.0 101.0 113.35 101.85 112.95 103.25 112.15 104.05 113.35 M106.5 112.4 Q107.5 113.55 106.25 114.25 105.1 114.95 104.6 113.9 104.05 112.85 104.75 112.05 105.55 111.25 106.5 112.4 M98.1 114.35 Q98.95 115.45 97.65 116.0 L96.4 116.2 96.35 116.2 Q95.2 116.9 94.65 115.8 94.15 114.75 94.85 114.0 L96.05 113.9 Q97.2 113.2 98.1 114.35"/><path fill="#6e4a26" stroke="none" d="M91.75 90.2 L95.3 89.85 95.8 91.4 96.15 90.55 98.45 86.05 101.85 87.35 99.3 87.45 101.6 88.95 96.15 90.55 100.3 90.25 98.8 92.45 98.2 93.35 91.25 92.4 91.4 91.5 91.4 91.4 91.75 90.2 M96.15 90.55 L98.8 92.45 96.15 90.55"/><path fill="#51391c" stroke="none" d="M92.05 89.4 L92.55 89.4 95.65 88.35 96.5 86.25 106.35 81.95 108.2 81.25 106.35 81.95 94.3 72.6 104.15 78.0 96.8 71.65 110.45 80.8 108.2 81.25 109.0 81.85 108.9 81.95 108.35 81.6 108.55 82.0 108.7 82.2 101.85 87.35 98.45 86.05 96.15 90.55 95.8 91.4 95.3 89.85 91.75 90.2 91.85 89.9 92.05 89.4"/><path fill="#795524" stroke="none" d="M101.85 87.35 L108.7 82.2 109.4 82.65 110.55 83.35 109.0 81.85 108.2 81.25 110.45 80.8 96.8 71.65 96.5 66.75 96.85 64.7 97.05 60.6 99.75 61.3 98.95 70.85 97.5 70.8 114.35 81.85 104.85 88.15 107.4 87.3 103.6 90.1 107.4 87.3 111.6 85.1 107.75 88.1 104.0 90.1 103.6 90.1 102.5 90.9 99.6 93.1 98.8 92.45 100.3 90.25 96.15 90.55 101.6 88.95 99.3 87.45 101.85 87.35"/><path fill="#704d27" stroke="none" d="M97.05 60.6 L96.85 64.7 96.5 66.75 95.35 69.55 96.5 71.4 94.85 70.15 97.05 60.6"/><path fill="#a87e46" stroke="none" d="M96.5 66.75 L96.8 71.65 96.5 71.4 95.35 69.55 96.5 66.75"/><path fill="#614221" stroke="none" d="M96.5 71.4 L96.8 71.65 104.15 78.0 94.3 72.6 94.85 70.15 96.5 71.4"/><path fill="#af7d32" stroke="none" d="M107.4 87.3 L104.85 88.15 114.35 81.85 97.5 70.8 98.95 70.85 115.05 80.45 116.2 83.35 107.75 88.1 111.6 85.1 107.4 87.3 M104.0 90.1 L102.5 90.9 103.6 90.1 104.0 90.1"/><path fill="#936f3e" stroke="none" d="M108.7 82.2 L108.55 82.0 108.35 81.6 108.9 81.95 108.55 82.0 108.9 81.95 109.4 82.65 108.7 82.2"/><path fill="#6b502c" stroke="none" d="M108.9 81.95 L109.0 81.85 110.55 83.35 109.4 82.65 108.9 81.95"/><path fill="none" stroke="#000000" stroke-width="0.5" stroke-opacity="0.152941176471" d="M92.05 89.4 L91.85 89.9 M91.75 90.2 L95.3 89.85 95.8 91.4 96.15 90.55 98.45 86.05 101.85 87.35 108.7 82.2 M108.35 81.6 L108.9 81.95 109.0 81.85 108.2 81.25 106.35 81.95 96.5 86.25 95.65 88.35 92.55 89.4 M91.4 91.4 L91.4 91.5 M91.25 92.4 L98.2 93.35 98.8 92.45 96.15 90.55 101.6 88.95 99.3 87.45 101.85 87.35 M98.95 70.85 L99.75 61.3 97.05 60.6 96.85 64.7 96.5 66.75 95.35 69.55 96.5 71.4 96.8 71.65 104.15 78.0 94.3 72.6 106.35 81.95 M110.45 80.8 L108.2 81.25 M94.85 70.15 L96.5 71.4 M94.3 72.6 L94.85 70.15 97.05 60.6 M107.4 87.3 L104.85 88.15 114.35 81.85 97.5 70.8 98.95 70.85 115.05 80.45 116.2 83.35 107.75 88.1 104.0 90.1 102.5 90.9 99.6 93.1 98.8 92.45 100.3 90.25 96.15 90.55 M108.9 81.95 L108.55 82.0 M109.0 81.85 L110.55 83.35 109.4 82.65 108.7 82.2 M109.4 82.65 L108.9 81.95 M103.6 90.1 L104.0 90.1 M103.6 90.1 L107.4 87.3 111.6 85.1 107.75 88.1 M102.5 90.9 L103.6 90.1"/><path fill="#5d7d0d" stroke="none" d="M106.3 37.2 L102.2 47.05 102.35 47.9 102.7 48.1 102.5 48.25 99.45 49.6 99.4 47.2 99.45 49.75 99.75 55.75 99.45 55.75 Q97.4 47.65 98.05 46.6 L100.7 43.2 104.15 39.8 106.3 37.2"/><path fill="#7a9c11" stroke="none" d="M106.3 37.2 L108.05 34.55 Q108.55 37.65 109.95 40.65 111.25 43.3 111.65 46.15 111.85 47.3 111.55 48.6 109.9 50.1 107.3 49.8 L106.7 48.55 105.6 49.6 102.7 48.1 102.35 47.9 102.2 47.05 106.3 37.2"/><path fill="#5f800e" stroke="none" d="M102.7 48.1 L105.6 49.6 102.35 52.55 102.5 48.25 102.7 48.1 M107.3 49.8 Q109.9 50.1 111.55 48.6 111.4 50.45 110.4 52.45 109.75 53.4 100.85 57.2 L107.3 49.8"/><path fill="#4c660b" stroke="none" d="M105.6 49.6 L106.7 48.55 107.3 49.8 100.85 57.2 99.7 55.9 99.75 55.75 99.45 49.75 99.45 49.6 102.5 48.25 102.35 52.55 105.6 49.6"/><path fill="#708f0f" stroke="none" d="M99.75 55.75 L99.7 55.9 99.45 55.75 99.75 55.75"/><path fill="#d2cfbd" stroke="none" d="M99.7 55.9 L99.7 56.4 99.45 55.75 99.7 55.9"/><path fill="none" stroke="#3d3928" stroke-width="0.5" stroke-opacity="0.501960784314" d="M111.55 48.6 Q111.85 47.3 111.65 46.15 111.25 43.3 109.95 40.65 108.55 37.65 108.05 34.55 L106.3 37.2 M111.55 48.6 Q111.4 50.45 110.4 52.45 109.75 53.4 100.85 57.2 L99.7 55.9 M99.7 56.4 L99.45 55.75 Q97.4 47.65 98.05 46.6 L100.7 43.2 104.15 39.8 106.3 37.2 M99.45 55.75 L99.7 55.9"/><path fill="#708f0f" stroke="none" d="M96.9 60.6 L96.55 60.6 Q90.75 55.7 90.8 54.5 91.05 52.65 91.6 50.35 L93.05 45.65 93.75 42.4 94.9 52.35 95.35 52.9 99.25 52.25 97.65 56.5 95.75 53.05 93.55 55.9 93.15 55.25 93.65 56.1 96.9 60.6 M104.2 47.9 Q105.0 49.35 105.05 51.5 104.95 52.6 98.65 60.85 L100.95 51.35 Q103.45 50.0 104.2 47.9"/><path fill="#98b814" stroke="none" d="M99.25 52.25 L95.35 52.9 94.9 52.35 93.75 42.4 94.05 39.35 Q96.05 41.35 98.75 42.75 101.3 43.95 103.05 45.9 103.8 46.75 104.2 47.9 103.45 50.0 100.95 51.35 100.35 51.0 99.7 50.8 L99.25 52.25"/><path fill="#607a0d" stroke="none" d="M96.9 60.6 L93.65 56.1 93.55 55.9 95.75 53.05 97.65 56.5 99.25 52.25 99.7 50.8 Q100.35 51.0 100.95 51.35 L98.65 60.85 96.9 60.6"/><path fill="none" stroke="#3d3928" stroke-width="0.5" stroke-opacity="0.501960784314" d="M93.75 42.4 L93.05 45.65 91.6 50.35 Q91.05 52.65 90.8 54.5 90.75 55.7 96.55 60.6 L96.9 60.6 M93.75 42.4 L94.05 39.35 Q96.05 41.35 98.75 42.75 101.3 43.95 103.05 45.9 103.8 46.75 104.2 47.9 105.0 49.35 105.05 51.5 104.95 52.6 98.65 60.85 L96.9 60.6"/><path fill="#96b616" stroke="none" d="M98.85 60.3 Q101.55 51.9 102.55 51.3 L106.15 49.7 110.25 48.45 113.1 47.3 105.2 54.0 104.85 54.8 105.05 55.2 104.8 55.25 102.0 54.75 102.9 53.1 101.85 54.9 99.0 60.45 98.85 60.3"/><path fill="#789210" stroke="none" d="M99.0 60.45 L101.85 54.9 102.0 54.75 104.8 55.25 102.45 59.0 106.25 58.2 107.55 57.8 107.3 59.25 99.05 62.4 98.9 60.6 99.0 60.45"/><path fill="#b0d717" stroke="none" d="M105.05 55.2 L104.85 54.8 105.2 54.0 113.1 47.3 115.6 45.9 Q114.4 48.95 113.85 52.4 113.4 55.5 112.2 58.3 L110.85 60.5 Q108.95 60.95 107.3 59.25 L107.55 57.8 106.25 58.2 105.05 55.2"/><path fill="#708f0f" stroke="none" d="M98.85 60.3 L99.0 60.45 98.9 60.6 98.85 60.3"/><path fill="#85a012" stroke="none" d="M104.8 55.25 L105.05 55.2 106.25 58.2 102.45 59.0 104.8 55.25 M110.85 60.5 L108.1 63.35 Q107.2 63.85 99.05 62.4 L107.3 59.25 Q108.95 60.95 110.85 60.5"/><path fill="none" stroke="#3d3928" stroke-width="0.5" stroke-opacity="0.501960784314" d="M113.1 47.3 L110.25 48.45 106.15 49.7 102.55 51.3 Q101.55 51.9 98.85 60.3 M113.1 47.3 L115.6 45.9 Q114.4 48.95 113.85 52.4 113.4 55.5 112.2 58.3 L110.85 60.5 108.1 63.35 Q107.2 63.85 99.05 62.4 L98.9 60.6"/><path fill="#51391c" stroke="none" d="M84.4 72.6 L84.55 72.75 Q82.55 78.85 81.65 84.35 81.3 85.5 81.25 86.55 L83.35 87.0 82.9 88.6 83.0 89.55 83.0 89.8 80.7 94.55 77.7 100.5 Q78.85 91.4 80.35 84.8 82.1 77.15 84.4 72.6 M90.9 83.75 L90.35 88.95 Q92.45 90.6 95.2 90.25 L91.7 91.8 99.5 93.25 101.6 88.4 101.35 92.1 99.95 98.5 Q98.35 102.45 95.8 105.0 L96.7 98.65 95.45 98.65 95.8 98.4 95.55 98.4 95.35 98.5 94.9 98.6 94.75 98.5 94.5 98.6 92.65 98.75 87.0 102.1 79.45 106.6 70.7 100.1 Q71.55 100.35 72.2 99.8 L72.55 99.55 73.15 98.95 73.15 98.3 78.75 102.9 83.35 100.8 Q87.2 92.45 88.85 86.1 L88.95 85.75 90.0 84.9 90.9 83.75 M72.45 60.3 Q69.8 70.6 69.35 78.5 L71.85 83.3 74.3 84.6 68.75 94.9 71.15 97.0 70.85 97.95 66.3 93.4 66.3 92.95 68.6 94.7 68.3 88.05 67.6 88.4 67.6 86.2 Q67.8 82.45 68.25 78.9 L68.25 77.6 Q69.3 67.25 72.45 60.3 M81.25 86.55 Q80.6 90.7 80.7 94.55 80.6 90.7 81.25 86.55 M89.65 94.7 L90.35 88.95 89.65 94.7 M63.15 65.55 L63.15 65.65 63.3 71.65 63.25 71.8 Q63.6 75.15 64.9 77.05 L63.5 85.4 Q60.6 81.65 63.15 65.55 M69.7 88.15 L69.55 87.0 Q69.0 83.2 69.35 78.5 69.0 83.2 69.55 87.0 L69.7 88.15 M96.7 98.65 L98.0 98.4 96.7 98.65"/><path fill="#68700a" stroke="none" d="M84.2 87.15 L84.5 87.15 85.35 84.6 85.6 83.55 85.7 83.15 85.9 82.35 86.5 82.6 86.75 82.7 87.45 82.8 88.45 82.95 89.4 83.05 89.3 83.5 89.05 85.35 Q88.85 85.6 88.95 85.75 L88.85 85.75 Q88.45 86.4 87.9 86.55 L87.65 87.0 Q87.45 86.8 87.2 87.1 L86.65 87.25 85.35 88.2 86.15 88.75 Q86.4 88.65 86.4 89.35 L86.6 90.35 86.4 90.85 86.15 91.8 85.55 93.25 84.75 94.7 84.55 94.7 83.95 94.3 83.25 93.95 82.8 94.55 82.2 95.6 82.1 95.7 81.25 96.85 81.15 96.85 80.9 96.9 Q80.35 97.45 80.1 97.2 L80.6 96.15 80.95 95.15 81.5 94.2 82.0 93.15 83.0 91.1 83.25 90.4 83.05 89.9 83.0 89.8 83.0 89.55 84.2 87.15 M61.45 89.0 L61.05 88.4 62.45 87.85 62.7 87.6 62.95 87.6 63.95 87.1 64.45 86.8 64.7 87.25 65.15 88.85 65.5 90.5 65.75 91.1 66.3 92.95 61.45 89.0 M71.3 95.6 L71.55 94.55 72.0 93.5 72.45 92.55 72.7 94.35 72.8 95.35 72.8 95.95 72.9 96.05 72.95 97.2 73.15 98.15 73.05 98.4 71.15 97.0 71.3 95.6"/><path fill="#595809" stroke="none" d="M83.35 87.0 L84.2 87.15 83.0 89.55 82.9 88.6 83.35 87.0 M89.4 83.05 L89.5 83.15 90.9 83.2 90.9 83.75 90.0 84.9 88.95 85.75 Q88.85 85.6 89.05 85.35 L89.3 83.5 89.4 83.05 M70.7 100.1 L70.45 99.65 Q70.0 99.55 69.65 99.05 L68.85 98.25 68.25 98.05 68.15 97.7 67.55 97.1 67.35 96.9 66.55 96.05 65.85 95.35 65.6 95.05 64.9 94.3 64.1 93.4 63.4 92.6 62.7 91.3 62.15 90.5 61.45 89.0 66.3 92.95 66.3 93.4 70.85 97.95 71.15 97.0 73.05 98.4 73.15 98.3 73.15 98.95 72.55 99.55 72.2 99.8 Q71.55 100.35 70.7 100.1"/><path fill="#795524" stroke="none" d="M61.05 88.4 Q60.15 86.55 60.0 84.7 59.3 77.6 61.05 68.9 L62.1 65.3 62.9 65.65 63.15 65.55 Q60.6 81.65 63.5 85.4 L64.9 77.05 Q63.6 75.15 63.25 71.8 L63.3 71.65 66.75 56.6 Q66.1 62.25 67.6 65.85 L66.4 70.95 68.25 77.6 68.25 78.9 Q67.8 82.45 67.6 86.2 L67.6 88.4 68.3 88.05 68.6 94.7 66.3 92.95 65.75 91.1 65.5 90.5 65.15 88.85 64.7 87.25 64.45 86.8 63.95 87.1 62.95 87.6 62.7 87.6 62.45 87.85 61.05 88.4 M74.3 84.6 L75.0 85.05 75.25 84.0 76.5 86.45 80.35 84.8 Q78.85 91.4 77.7 100.5 L80.7 94.55 83.0 89.8 83.05 89.9 83.25 90.4 83.0 91.1 82.0 93.15 81.5 94.2 80.95 95.15 80.6 96.15 80.1 97.2 Q80.35 97.45 80.9 96.9 L81.15 96.85 81.25 96.85 82.1 95.7 82.2 95.6 82.8 94.55 83.25 93.95 83.95 94.3 84.55 94.7 84.75 94.7 85.55 93.25 86.15 91.8 86.4 90.85 86.6 90.35 86.4 89.35 Q86.4 88.65 86.15 88.75 L85.35 88.2 86.65 87.25 87.2 87.1 Q87.45 86.8 87.65 87.0 L87.9 86.55 Q88.45 86.4 88.85 85.75 L88.95 85.75 88.85 86.1 Q87.2 92.45 83.35 100.8 L78.75 102.9 73.15 98.3 73.15 98.15 72.95 97.2 72.9 96.05 72.8 95.95 72.8 95.35 72.7 94.35 72.45 92.55 72.0 93.5 71.55 94.55 71.3 95.6 71.15 97.0 68.75 94.9 74.3 84.6 M64.9 77.05 Q65.6 73.8 66.4 70.95 65.6 73.8 64.9 77.05 M74.1 97.25 Q73.95 91.3 75.0 85.05 73.95 91.3 74.1 97.25"/><path fill="#af7d32" stroke="none" d="M95.2 90.25 Q96.85 90.25 97.65 89.65 99.15 87.85 101.0 86.4 L101.6 88.4 99.5 93.25 91.7 91.8 95.2 90.25 M95.55 98.4 L91.4 105.45 90.55 102.1 87.0 102.1 92.65 98.75 94.5 98.6 94.75 98.5 94.9 98.6 95.35 98.5 95.55 98.4 M62.95 65.4 Q63.95 59.25 66.05 54.05 L67.2 53.7 Q66.9 55.1 66.75 56.6 L63.3 71.65 63.15 65.65 63.15 65.55 63.15 65.5 62.95 65.4 M67.6 65.85 Q68.65 60.75 70.25 55.8 L72.45 60.15 72.45 60.3 Q69.3 67.25 68.25 77.6 L66.4 70.95 67.6 65.85 M75.25 84.0 L75.45 82.8 75.6 82.15 Q75.5 81.9 75.7 81.9 76.9 75.05 79.65 68.4 L84.4 72.6 Q82.1 77.15 80.35 84.8 L76.5 86.45 75.25 84.0"/><path fill="#d9d1bb" stroke="none" d="M62.9 65.65 L62.95 65.4 63.15 65.5 63.15 65.55 62.9 65.65"/><path fill="#848c15" stroke="none" d="M73.15 98.15 L73.15 98.3 73.05 98.4 73.15 98.15"/><path fill="none" stroke="#000000" stroke-width="0.5" stroke-opacity="0.450980392157" d="M84.4 72.6 L84.55 72.75 Q82.55 78.85 81.65 84.35 81.3 85.5 81.25 86.55 L83.35 87.0 M84.2 87.15 L84.5 87.15 M90.9 83.75 L90.35 88.95 Q92.45 90.6 95.2 90.25 96.85 90.25 97.65 89.65 99.15 87.85 101.0 86.4 M96.7 98.65 L95.45 98.65 95.8 98.4 95.55 98.4 95.35 98.5 94.9 98.6 94.75 98.5 M87.0 102.1 L79.45 106.6 70.7 100.1 M75.7 81.9 Q76.9 75.05 79.65 68.4 L84.4 72.6 M80.7 94.55 Q80.6 90.7 81.25 86.55 M90.35 88.95 L89.65 94.7 M94.5 98.6 L92.65 98.75 87.0 102.1 M98.0 98.4 L96.7 98.65"/><path fill="none" stroke="#000000" stroke-width="0.5" stroke-opacity="0.450980392157" d="M83.35 87.0 L84.2 87.15 M84.5 87.15 L85.35 84.6 M85.6 83.55 L85.7 83.15 M86.5 82.6 L86.75 82.7 M87.45 82.8 L88.45 82.95 M89.5 83.15 L90.9 83.2 90.9 83.75 90.0 84.9 M70.7 100.1 L70.45 99.65 M69.65 99.05 L68.85 98.25 M68.15 97.7 L67.55 97.1 67.35 96.9 M65.85 95.35 L65.6 95.05 M64.9 94.3 L64.1 93.4 M63.4 92.6 L62.7 91.3 M62.15 90.5 L61.45 89.0 M72.2 99.8 Q71.55 100.35 70.7 100.1 M88.85 85.75 Q88.45 86.4 87.9 86.55 M87.65 87.0 Q87.45 86.8 87.2 87.1 L86.65 87.25 M86.15 88.75 Q86.4 88.65 86.4 89.35 M86.6 90.35 L86.4 90.85 86.15 91.8 M85.55 93.25 L84.75 94.7 84.55 94.7 M83.95 94.3 L83.25 93.95 82.8 94.55 M82.2 95.6 L82.1 95.7 M80.9 96.9 Q80.35 97.45 80.1 97.2 L80.6 96.15 M80.95 95.15 L81.5 94.2 M82.0 93.15 L83.0 91.1 M83.05 89.9 L83.0 89.8 M65.15 88.85 L65.5 90.5 M65.75 91.1 L66.3 92.95 66.3 93.4 70.85 97.95 71.15 97.0 71.3 95.6 M62.7 87.6 L62.95 87.6 M63.95 87.1 L64.45 86.8 64.7 87.25 M61.05 88.4 L62.45 87.85 M71.55 94.55 L72.0 93.5 M72.7 94.35 L72.8 95.35 M72.95 97.2 L73.15 98.15 M82.9 88.6 L83.35 87.0"/><path fill="none" stroke="#000000" stroke-width="0.5" stroke-opacity="0.352941176471" d="M61.45 89.0 L61.05 88.4 Q60.15 86.55 60.0 84.7 59.3 77.6 61.05 68.9 L62.1 65.3 62.9 65.65 62.95 65.4 Q63.95 59.25 66.05 54.05 L67.2 53.7 Q66.9 55.1 66.75 56.6 66.1 62.25 67.6 65.85 68.65 60.75 70.25 55.8 L72.45 60.15 72.45 60.3 Q69.8 70.6 69.35 78.5 L71.85 83.3 74.3 84.6 75.0 85.05 75.25 84.0 75.45 82.8 75.6 82.15 M66.4 70.95 L67.6 65.85 M63.3 71.65 L63.15 65.65 63.15 65.55 63.15 65.5 M63.5 85.4 L64.9 77.05 Q63.6 75.15 63.25 71.8 L63.3 71.65 M66.4 70.95 Q65.6 73.8 64.9 77.05 M69.35 78.5 Q69.0 83.2 69.55 87.0 L69.7 88.15 M75.0 85.05 Q73.95 91.3 74.1 97.25"/><path fill="none" stroke="#332720" stroke-width="0.5" stroke-opacity="0.450980392157" d="M95.55 98.4 L91.4 105.45 90.55 102.1 87.0 102.1 M94.75 98.5 L94.5 98.6"/><path fill="#af7d32" stroke="none" d="M60.15 84.05 Q62.65 81.55 67.35 79.35 73.05 79.55 78.2 81.9 L78.35 82.2 79.4 87.05 78.45 87.25 74.6 82.55 73.2 83.15 Q70.45 83.2 69.35 82.3 65.2 81.7 60.15 84.05 M79.15 82.5 Q81.4 83.6 81.7 84.25 L79.15 82.5"/><path fill="#795524" stroke="none" d="M78.35 82.2 L78.3 81.95 79.15 82.5 78.35 82.2 79.15 82.5 81.7 84.25 Q86.15 91.7 86.15 100.95 84.3 101.0 82.75 98.5 L80.65 91.75 81.0 99.95 78.55 98.5 Q77.5 97.75 77.5 97.25 78.7 89.4 73.2 83.15 L74.6 82.55 78.45 87.25 79.4 87.05 78.35 82.2"/><path fill="#473118" stroke="none" d="M84.55 104.0 L84.8 103.95 84.4 104.4 84.35 104.5 83.95 104.8 83.95 104.85 83.95 104.9 Q77.25 111.4 66.2 111.4 60.5 107.25 58.55 102.8 55.3 99.7 55.05 95.55 58.2 94.7 59.6 92.45 L61.25 89.1 Q63.35 87.8 66.4 88.1 67.95 90.55 68.6 93.35 68.95 95.0 68.8 96.65 L68.45 99.35 64.95 99.15 Q63.85 98.65 63.1 98.0 L62.7 96.75 Q62.5 94.6 63.9 93.3 64.65 95.4 64.8 97.75 L67.6 97.75 Q69.2 93.45 65.95 89.2 64.0 88.6 62.05 89.6 58.65 95.05 59.5 101.55 61.3 103.95 64.7 104.9 70.15 104.2 75.6 100.8 79.05 104.35 84.55 104.0 L83.95 104.8 84.55 104.0 M57.5 97.25 Q57.8 100.85 58.3 101.8 L58.55 102.8 58.3 101.8 Q57.8 100.85 57.5 97.25"/><path fill="#593d1f" stroke="none" d="M86.15 100.95 Q86.2 101.6 84.55 104.0 79.05 104.35 75.6 100.8 70.15 104.2 64.7 104.9 63.75 103.0 63.85 101.25 62.6 98.6 62.7 96.75 L63.1 98.0 Q63.85 98.65 64.95 99.15 L68.45 99.35 Q69.55 98.45 70.25 97.25 L71.9 97.75 72.4 100.05 Q73.05 98.55 73.05 96.05 L73.0 95.1 Q72.7 94.65 72.7 94.2 72.5 92.85 71.95 91.75 L71.5 90.8 70.5 89.1 Q67.1 86.45 62.6 86.5 L57.3 89.85 56.6 90.05 Q59.3 85.0 60.15 84.05 65.2 81.7 69.35 82.3 70.45 83.2 73.2 83.15 78.7 89.4 77.5 97.25 77.5 97.75 78.55 98.5 L81.0 99.95 80.65 91.75 82.75 98.5 Q84.3 101.0 86.15 100.95"/><path fill="#7d562b" stroke="none" d="M55.05 95.55 L55.75 92.25 56.6 90.05 57.3 89.85 62.6 86.5 Q67.1 86.45 70.5 89.1 L71.5 90.8 68.6 93.35 Q67.95 90.55 66.4 88.1 63.35 87.8 61.25 89.1 L59.6 92.45 Q58.2 94.7 55.05 95.55 M72.7 94.2 Q72.7 94.65 73.0 95.1 L73.05 96.05 Q73.05 98.55 72.4 100.05 L71.9 97.75 70.25 97.25 Q69.55 98.45 68.45 99.35 L68.8 96.65 72.0 93.85 72.7 94.2 M62.7 96.75 Q62.6 98.6 63.85 101.25 63.75 103.0 64.7 104.9 61.3 103.95 59.5 101.55 58.65 95.05 62.05 89.6 64.0 88.6 65.95 89.2 69.2 93.45 67.6 97.75 L64.8 97.75 Q64.65 95.4 63.9 93.3 62.5 94.6 62.7 96.75"/><path fill="#664623" stroke="none" d="M71.5 90.8 L71.95 91.75 Q72.5 92.85 72.7 94.2 L72.0 93.85 68.8 96.65 Q68.95 95.0 68.6 93.35 L71.5 90.8"/><path fill="none" stroke="#332720" stroke-width="0.5" stroke-opacity="0.450980392157" d="M60.15 84.05 Q62.65 81.55 67.35 79.35 73.05 79.55 78.2 81.9 L78.35 82.2 79.15 82.5 Q81.4 83.6 81.7 84.25 86.15 91.7 86.15 100.95 86.2 101.6 84.55 104.0 L83.95 104.8 84.35 104.5 83.95 104.85 83.95 104.9 Q77.25 111.4 66.2 111.4 60.5 107.25 58.55 102.8 55.3 99.7 55.05 95.55 L55.75 92.25 56.6 90.05 Q59.3 85.0 60.15 84.05 65.2 81.7 69.35 82.3 70.45 83.2 73.2 83.15 L74.6 82.55 78.45 87.25 79.4 87.05 78.35 82.2 M84.8 103.95 L84.4 104.4 84.35 104.5 M83.95 104.8 L83.95 104.85 M71.5 90.8 L70.5 89.1 M71.5 90.8 L71.95 91.75 Q72.5 92.85 72.7 94.2 72.7 94.65 73.0 95.1 L73.05 96.05 M68.45 99.35 L64.95 99.15 Q63.85 98.65 63.1 98.0 L62.7 96.75 M58.55 102.8 L58.3 101.8 Q57.8 100.85 57.5 97.25 M68.6 93.35 Q67.95 90.55 66.4 88.1 63.35 87.8 61.25 89.1 L59.6 92.45 Q58.2 94.7 55.05 95.55 M68.8 96.65 L68.45 99.35 M68.8 96.65 Q68.95 95.0 68.6 93.35 L71.5 90.8"/><path fill="#7c6c38" stroke="none" d="M91.2 86.7 Q90.85 86.2 91.1 85.5 91.2 84.85 91.8 84.4 92.3 84.25 92.9 84.4 93.6 84.65 93.95 85.1 94.2 85.7 94.1 86.3 93.95 87.05 93.35 87.3 L92.15 87.4 Q91.45 87.3 91.2 86.7 M87.35 91.7 Q88.45 91.95 88.9 92.9 89.4 93.9 89.15 94.7 88.9 95.7 88.05 96.15 L86.15 96.4 Q85.2 96.15 84.85 95.2 84.35 94.35 84.6 93.5 84.85 92.55 85.65 91.95 86.5 91.5 87.35 91.7 M96.6 102.05 L96.25 102.4 95.75 102.5 95.3 102.15 Q95.15 101.9 95.3 101.7 95.3 101.3 95.5 101.2 L96.1 101.2 96.5 101.55 96.6 102.05"/><path fill="#422d17" stroke="none" d="M89.75 98.75 L91.3 101.0 91.95 102.15 92.2 103.5 88.85 110.3 87.95 110.2 85.65 109.2 Q85.1 105.95 87.3 103.25 L89.2 100.2 89.75 98.75"/><path fill="#51391c" stroke="none" d="M89.75 98.75 L89.2 100.2 87.3 103.25 Q85.1 105.95 85.65 109.2 L87.95 110.2 77.85 109.3 74.8 105.9 74.75 105.85 81.7 96.25 89.75 98.75"/><path fill="#6b502c" stroke="none" d="M74.75 105.85 L74.8 105.9 74.55 106.1 74.75 105.85"/><path fill="none" stroke="#000000" stroke-width="0.5" stroke-opacity="0.152941176471" d="M88.85 110.3 L92.2 103.5 91.95 102.15 91.3 101.0 89.75 98.75 89.2 100.2 87.3 103.25 Q85.1 105.95 85.65 109.2 L87.95 110.2 M89.75 98.75 L81.7 96.25 74.75 105.85 74.8 105.9 77.85 109.3 M74.75 105.85 L74.3 105.4 M74.75 105.85 L74.55 106.1"/><path fill="#422d17" stroke="none" d="M105.75 108.75 L107.85 107.85 Q108.35 104.9 106.35 102.45 L104.6 99.7 104.15 98.4 102.7 100.4 102.15 101.5 101.95 102.65 104.95 108.85 105.75 108.75"/><path fill="#51391c" stroke="none" d="M104.15 98.4 L104.6 99.7 106.35 102.45 Q108.35 104.9 107.85 107.85 L105.75 108.75 114.9 107.95 117.7 104.9 117.75 104.85 111.45 96.1 104.15 98.4"/><path fill="#6b502c" stroke="none" d="M117.75 104.85 L117.7 104.9 117.9 105.05 117.75 104.85"/><path fill="none" stroke="#000000" stroke-width="0.5" stroke-opacity="0.152941176471" d="M104.15 98.4 L104.6 99.7 106.35 102.45 Q108.35 104.9 107.85 107.85 L105.75 108.75 M104.95 108.85 L101.95 102.65 102.15 101.5 102.7 100.4 104.15 98.4 111.45 96.1 117.75 104.85 117.7 104.9 114.9 107.95 M117.75 104.85 L117.9 105.05 M117.75 104.85 L118.15 104.4"/></g><g id="c30"><g><use transform="matrix(3.51245117188,0.0,0.0,3.51245117188,5.1,21.6)" xlink:href="#c28"/></g><g><use transform="matrix(1.0,0.0,0.0,1.0,0.0,0.0)" xlink:href="#c29"/></g></g><g id="c31"><g><use transform="matrix(1.0,0.0,0.0,1.0,6.3,53.35)" xlink:href="#c9"/></g><g><use transform="matrix(-0.146041870117,0.0488891601562,0.0616760253906,0.140441894531,33.05,63.95)" xlink:href="#c30"/></g><g><use transform="matrix(0.141098022461,-0.0378112792969,0.111373901367,0.225646972656,27.2,74.05)" filter="url(#filter38)" xlink:href="#c6"/></g></g><filter id="filter38"><feColorMatrix in="SourceGraphic" type="matrix" values="1.0 0.0 0.0 0.0 0.0 0.0 1.0 0.0 0.0 0.0 0.0 0.0 1.0 0.0 0.0 0.0 0.0 0.0 0.23046875 0.0" result="cxform"/><feComposite operator="in" in2="SourceGraphic" result="color-xform"/></filter></defs><g><g><use transform="matrix(1.0,0.0,0.0,1.0,0.0,0.0)" xlink:href="#c1"/></g><g><use transform="matrix(1.15496826172,0.0,0.0,1.15496826172,-1.5,-57.15)" xlink:href="#c31"/></g></g></svg>