<?xml version='1.0' encoding='UTF-8'?>
<svg xmlns:xlink="http://www.w3.org/1999/xlink" xmlns="http://www.w3.org/2000/svg" version="1.1" width="60px" height="60px" viewBox="0.0 0.0 60.0 60.0"><defs><g id="c1"><path fill="#000000" fill-opacity="0.00392156862745" d="M0.0 0.0 L60.0 0.0 60.0 60.0 0.0 60.0 0.0 0.0"/></g><g id="c2"><path fill="#006699" stroke="none" d="M31.5 39.85 L19.8 43.65 Q17.15 44.45 15.5 43.3 14.35 42.55 13.65 40.9 L1.7 14.45 1.6 14.3 1.2 13.45 -0.75 9.05 Q-2.05 6.2 -0.3 4.75 0.3 4.25 1.2 3.9 L5.5 2.25 Q8.95 0.95 10.65 4.15 L22.3 0.4 Q26.55 -1.0 28.45 3.1 L40.55 29.95 40.9 30.7 42.95 35.15 Q43.95 37.35 43.15 38.7 42.5 39.7 40.95 40.25 L36.65 41.8 35.1 42.2 Q32.75 42.3 31.5 39.85"/><path fill="none" stroke="#000000" stroke-width="1.0" stroke-opacity="0.298039215686" d="M31.5 39.85 L19.8 43.65 Q17.15 44.45 15.5 43.3 14.35 42.55 13.65 40.9 L1.7 14.45 1.6 14.3 1.2 13.45 -0.75 9.05 Q-2.05 6.2 -0.3 4.75 0.3 4.25 1.2 3.9 L5.5 2.25 Q8.95 0.95 10.65 4.15 L22.3 0.4 Q26.55 -1.0 28.45 3.1 L40.55 29.95 40.9 30.7 42.95 35.15 Q43.95 37.35 43.15 38.7 42.5 39.7 40.95 40.25 L36.65 41.8 35.1 42.2 Q32.75 42.3 31.5 39.85"/><path fill="#300525" stroke="none" d="M0.75 8.25 L29.8 9.75 25.55 0.9 Q26.9 1.6 27.8 3.55 L40.7 32.15 Q42.6 36.3 38.3 37.65 L23.3 42.5 13.15 21.4 4.6 20.9 0.7 12.25 Q-0.45 9.75 0.75 8.25 M20.1 43.55 L19.8 43.65 Q17.15 44.45 15.5 43.3 L20.1 43.55"/><path fill="#630a4c" stroke="none" d="M25.55 0.9 L29.8 9.75 0.75 8.25 Q1.45 7.3 3.1 6.75 L21.65 0.8 25.55 0.9 M4.6 20.9 L13.15 21.4 23.3 42.5 20.1 43.55 15.5 43.3 Q14.35 42.55 13.65 40.9 L4.6 20.9"/><path fill="none" stroke="#000000" stroke-width="0.5" stroke-opacity="0.301960784314" d="M0.75 8.25 Q-0.45 9.75 0.7 12.25 L4.6 20.9 M23.3 42.5 L38.3 37.65 Q42.6 36.3 40.7 32.15 L27.8 3.55 Q26.9 1.6 25.55 0.9 L21.65 0.8 3.1 6.75 Q1.45 7.3 0.75 8.25 M20.1 43.55 L19.8 43.65 Q17.15 44.45 15.5 43.3 14.35 42.55 13.65 40.9 L4.6 20.9 M20.1 43.55 L23.3 42.5"/><path fill="#9d147b" stroke="none" d="M14.2 40.5 L1.35 11.8 Q-0.5 7.75 3.8 6.35 L22.3 0.4 Q26.55 -1.0 28.45 3.1 L41.35 31.7 Q43.25 35.85 38.9 37.25 L20.4 43.2 Q16.1 44.55 14.2 40.5"/><path fill="none" stroke="#000000" stroke-width="0.5" stroke-opacity="0.301960784314" d="M14.2 40.5 L1.35 11.8 Q-0.5 7.75 3.8 6.35 L22.3 0.4 Q26.55 -1.0 28.45 3.1 L41.35 31.7 Q43.25 35.85 38.9 37.25 L20.4 43.2 Q16.1 44.55 14.2 40.5"/><path fill="#9d147b" stroke="none" d="M31.4 39.65 L31.3 39.45 31.25 39.4 29.25 34.95 Q27.55 31.2 31.25 29.85 L35.6 28.25 Q38.8 27.1 40.5 29.85 L40.9 30.7 42.95 35.15 Q43.95 37.35 43.15 38.7 42.5 39.45 41.2 39.9 L36.9 41.45 34.85 41.85 Q32.9 41.7 31.75 39.5 L31.4 39.65"/><path fill="#630a4c" stroke="none" d="M43.15 38.7 Q42.5 39.7 40.95 40.25 L36.65 41.8 35.1 42.2 Q32.75 42.3 31.45 39.8 L31.4 39.65 31.75 39.5 Q32.9 41.7 34.85 41.85 L36.9 41.45 41.2 39.9 Q42.5 39.45 43.15 38.7"/><path fill="none" stroke="#003333" stroke-width="0.5" stroke-opacity="0.509803921569" d="M43.15 38.7 Q42.5 39.7 40.95 40.25 L36.65 41.8 35.1 42.2 Q32.75 42.3 31.45 39.8 L31.4 39.65 30.3 40.0 31.4 39.65 M40.5 29.85 L40.9 30.7 42.95 35.15 Q43.95 37.35 43.15 38.7 42.5 39.45 41.2 39.9 L36.9 41.45 34.85 41.85 Q32.9 41.7 31.75 39.5 L31.4 39.65"/><path fill="#9d147b" stroke="none" d="M10.65 4.2 L10.85 4.6 12.85 9.05 Q14.5 12.8 10.8 14.15 L6.5 15.8 Q4.5 16.6 3.1 15.8 L1.75 12.85 -0.2 8.45 Q-1.25 6.15 -0.3 4.75 0.3 4.25 1.2 3.9 L5.5 2.25 Q9.0 0.95 10.65 4.2"/><path fill="#300525" stroke="none" d="M1.6 14.3 L1.2 13.45 -0.75 9.05 Q-2.05 6.2 -0.3 4.75 -1.25 6.15 -0.2 8.45 L1.75 12.85 3.1 15.8 Q2.25 15.35 1.6 14.3"/><path fill="none" stroke="#003333" stroke-width="0.5" stroke-opacity="0.509803921569" d="M3.1 15.8 L6.45 23.15 M-0.3 4.75 Q0.3 4.25 1.2 3.9 L5.5 2.25 Q9.0 0.95 10.65 4.2 M1.6 14.3 L1.2 13.45 -0.75 9.05 Q-2.05 6.2 -0.3 4.75 -1.25 6.15 -0.2 8.45 L1.75 12.85 3.1 15.8"/><path fill="#fcf2cf" stroke="none" d="M9.15 13.6 Q9.8 12.8 9.55 11.6 L9.1 10.55 22.05 6.35 Q24.9 5.45 26.25 7.85 L26.5 8.3 35.8 29.0 35.95 29.35 Q34.75 29.3 34.1 30.1 33.45 30.9 33.7 32.1 L34.0 32.9 20.65 37.2 Q18.8 37.8 17.65 37.0 16.8 36.4 16.3 35.2 L6.95 14.6 6.8 14.4 7.1 14.4 Q8.4 14.45 9.15 13.6"/><path fill="#c47fad" stroke="none" d="M8.25 23.65 L3.35 12.8 Q1.65 9.1 5.5 7.85 L22.25 2.5 Q26.05 1.25 27.75 4.95 L28.25 6.1 35.55 22.3 39.35 30.75 Q41.1 34.5 37.2 35.7 L20.45 41.1 Q16.8 42.25 15.2 39.0 L15.0 38.6 8.25 23.65 M9.15 13.6 Q8.4 14.45 7.1 14.4 L6.8 14.4 6.95 14.6 16.3 35.2 Q16.8 36.4 17.65 37.0 18.8 37.8 20.65 37.2 L34.0 32.9 33.7 32.1 Q33.45 30.9 34.1 30.1 34.75 29.3 35.95 29.35 L35.8 29.0 26.5 8.3 26.25 7.85 Q24.9 5.45 22.05 6.35 L9.1 10.55 9.55 11.6 Q9.8 12.8 9.15 13.6"/><path fill="none" stroke="#ffcc00" stroke-width="1.0" stroke-opacity="0.749019607843" d="M8.25 23.65 L3.35 12.8 Q1.65 9.1 5.5 7.85 L22.25 2.5 Q26.05 1.25 27.75 4.95 L28.25 6.1 M35.55 22.3 L39.35 30.75 Q41.1 34.5 37.2 35.7 L20.45 41.1 Q16.8 42.25 15.2 39.0 L15.0 38.6"/><path fill="none" stroke="#bf9900" stroke-width="1.0" stroke-opacity="0.749019607843" d="M28.25 6.1 L35.55 22.3 M15.0 38.6 L8.25 23.65"/><path fill="none" stroke="#f0b92b" stroke-width="0.5" d="M9.15 13.6 Q9.8 12.8 9.55 11.6 L9.1 10.55 22.05 6.35 Q24.9 5.45 26.25 7.85 L26.5 8.3 35.8 29.0 35.95 29.35 Q34.75 29.3 34.1 30.1 33.45 30.9 33.7 32.1 L34.0 32.9 20.65 37.2 Q18.8 37.8 17.65 37.0 16.8 36.4 16.3 35.2 L6.95 14.6 6.8 14.4 7.1 14.4 Q8.4 14.45 9.15 13.6"/></g><g id="c3"><path fill="#7fdbfe" stroke="none" d="M10.75 4.9 Q10.75 4.6 10.9 4.35 11.25 3.45 11.95 2.75 13.3 1.5 14.35 2.1 15.4 2.7 14.95 4.45 14.7 5.4 14.1 6.15 L13.75 6.5 Q13.1 7.15 12.35 7.35 L11.4 7.2 Q10.95 6.9 10.75 6.4 10.5 5.75 10.75 4.9 M7.5 5.9 Q7.0 5.85 6.6 5.5 6.05 5.0 5.8 4.15 L5.7 3.6 Q5.55 2.65 5.8 1.7 6.25 0.0 7.5 0.0 L7.6 0.0 Q8.85 0.0 9.3 1.7 9.55 2.65 9.4 3.6 L9.3 4.15 8.5 5.5 7.6 5.9 7.5 5.9 M4.35 4.9 Q4.6 5.75 4.35 6.4 L3.7 7.2 2.75 7.35 Q2.0 7.15 1.35 6.5 L1.0 6.15 Q0.4 5.4 0.15 4.45 -0.3 2.7 0.75 2.1 1.8 1.5 3.15 2.75 3.85 3.45 4.2 4.35 L4.35 4.9 M5.5 13.7 Q4.45 13.9 3.65 12.95 2.75 12.0 3.2 10.25 3.7 8.5 5.25 7.6 6.4 6.9 7.55 7.0 8.75 6.9 9.9 7.6 11.45 8.5 11.95 10.25 12.35 12.0 11.5 12.95 10.7 13.9 9.65 13.7 8.55 13.5 7.55 12.6 6.55 13.5 5.5 13.7"/></g><g id="c4"><g><use transform="matrix(1.0,0.0,0.0,1.0,0.0,0.0)" xlink:href="#c3"/></g></g><radialGradient gradientUnits="userSpaceOnUse" r="819.2" cx="0" cy="0" spreadMethod="pad" gradientTransform="matrix(0.0914459228516,0.0,0.0,0.0914459228516,0.6,3.4)" id="gradient1"><stop offset="0.0" stop-color="#ffffff"/><stop offset="1.0" stop-color="#ffffff" stop-opacity="0.0"/></radialGradient><g id="c5"><path stroke="none" fill="url(#gradient1)" d="M36.65 -54.65 Q60.05 -42.0 69.75 -17.95 80.55 8.9 68.0 34.1 55.45 59.35 26.8 68.2 -1.8 77.05 -29.7 64.3 -57.6 51.6 -68.45 24.75 -79.3 -2.05 -66.75 -27.25 L-66.7 -27.3 Q-54.1 -52.5 -25.5 -61.4 3.1 -70.2 31.0 -57.5 L36.65 -54.65"/></g><g id="c6"><g><use transform="matrix(1.0,0.0,0.0,1.0,0.0,0.0)" xlink:href="#c5"/></g></g><radialGradient gradientUnits="userSpaceOnUse" r="819.2" cx="0" cy="0" spreadMethod="pad" gradientTransform="matrix(0.209197998047,0.0,0.0,0.177108764648,67.15,107.2)" id="gradient2"><stop offset="0.356862745098" stop-color="#ffffff"/><stop offset="0.670588235294" stop-opacity="0.0"/></radialGradient><g id="c7"><path fill="none" stroke-linejoin="round" stroke-linecap="round" stroke="url(#gradient2)" stroke-width="0.5" d="M136.55 165.8 L68.6 106.0 68.4 106.0 118.25 201.5 M68.3 105.8 L68.35 105.8 68.3 105.8 68.3 105.85 68.4 106.0 68.3 106.0 86.55 211.5 M68.3 105.8 L68.3 105.85 68.3 106.0 68.15 105.95 18.25 151.55 M68.3 105.85 L68.25 105.85 68.3 106.0 50.0 193.2 M68.25 105.85 L68.15 105.95 0.05 97.7 M68.3 105.85 L68.25 105.8 68.25 105.85 M68.25 105.8 L68.2 105.7 0.0 45.7 M68.3 105.8 L68.25 105.75 68.25 105.8 M68.25 105.75 L68.2 105.7 18.25 10.05 M68.6 106.0 L68.35 105.8 118.25 60.15 M86.6 18.35 L68.3 105.8 M136.6 114.25 L68.6 106.0 M68.25 105.75 L49.95 0.05"/></g><g id="c8"><g><use transform="matrix(1.0,0.0,0.0,1.0,0.0,0.0)" xlink:href="#c7"/></g></g><g id="c9"><g><use transform="matrix(1.0,0.0,0.0,1.0,0.0,0.0)" xlink:href="#c2"/></g><g><use transform="matrix(0.238861083984,-0.0867004394531,0.10026550293,0.233917236328,34.25,31.15)" xlink:href="#c4"/></g><g><use transform="matrix(0.238861083984,-0.0867004394531,0.10026550293,0.233917236328,4.25,10.3)" xlink:href="#c4"/></g><g><use transform="matrix(0.141098022461,-0.0378112792969,0.111373901367,0.225646972656,20.25,20.65)" filter="url(#filter7)" xlink:href="#c6"/></g><g><use transform="matrix(-0.155029296875,0.0513153076172,0.0841827392578,0.147033691406,22.6,3.15)" filter="url(#filter8)" xlink:href="#c8"/></g></g><filter id="filter7"><feColorMatrix in="SourceGraphic" type="matrix" values="0.0 0.0 0.0 0.0 0.796875 0.0 0.0 0.0 0.0 0.59765625 0.0 0.0 0.0 0.0 0.19921875 0.0 0.0 0.0 1.0 0.0" result="cxform"/><feComposite operator="in" in2="SourceGraphic" result="color-xform"/></filter><filter id="filter8"><feColorMatrix in="SourceGraphic" type="matrix" values="0.0 0.0 0.0 0.0 0.99609375 0.0 0.0 0.0 0.0 0.99609375 0.0 0.0 0.0 0.0 0.99609375 0.0 0.0 0.0 1.0 0.0" result="cxform"/><feComposite operator="in" in2="SourceGraphic" result="color-xform"/></filter><radialGradient gradientUnits="userSpaceOnUse" r="819.2" cx="0" cy="0" spreadMethod="pad" gradientTransform="matrix(0.0328979492188,0.0,0.0,0.0171966552734,14.4,41.0)" id="gradient3"><stop offset="0.0" stop-color="#7f2a2a"/><stop offset="0.682352941176" stop-color="#b64747"/></radialGradient><radialGradient gradientUnits="userSpaceOnUse" r="819.2" cx="0" cy="0" spreadMethod="pad" gradientTransform="matrix(0.0236206054688,0.0,0.0,0.0128936767578,13.3,37.75)" id="gradient4"><stop offset="0.41568627451" stop-color="#badae7"/><stop offset="1.0" stop-color="#587b91"/></radialGradient><g id="c10"><path fill="#751313" stroke="none" d="M19.7 40.8 L19.6 40.9 19.55 40.85 19.7 40.8"/><path stroke="none" fill="url(#gradient3)" d="M15.25 5.15 L15.3 5.15 15.25 5.2 15.25 5.15"/><path fill="#badae7" stroke="none" d="M13.4 0.05 L14.9 0.3 15.45 0.55 Q15.7 0.6 15.9 0.75 16.8 1.2 17.15 1.75 17.6 2.8 17.5 3.4 17.4 3.9 16.65 4.45 L15.9 4.9 15.5 5.1 15.3 5.15 15.25 5.15 14.6 5.4 15.25 5.15 15.25 5.2 Q13.95 14.15 15.25 22.95 L15.25 23.05 15.3 23.05 Q16.3 26.0 17.85 27.15 L18.0 27.25 18.1 27.25 18.2 27.3 18.3 27.3 18.5 27.4 Q19.9 28.0 21.0 28.7 L22.3 29.65 Q24.4 31.45 25.3 34.0 L25.45 34.35 25.45 34.45 25.5 34.5 25.6 35.3 Q25.6 37.95 21.8 39.85 L19.9 40.65 19.7 40.8 19.55 40.85 Q16.6 41.85 12.8 41.85 9.05 41.85 6.15 40.85 L5.85 40.75 5.7 40.65 4.5 40.2 3.8 39.85 Q0.0 37.95 0.0 35.3 L0.1 34.5 0.15 34.45 0.15 34.35 0.3 34.0 Q1.45 30.8 4.55 28.75 5.7 28.0 7.1 27.4 L7.3 27.3 7.4 27.3 7.5 27.25 Q9.25 26.25 10.35 23.05 L10.35 22.95 Q11.65 14.15 10.35 5.2 L10.3 5.15 9.7 4.9 8.95 4.45 8.9 4.4 8.4 3.95 8.1 3.4 Q8.0 2.8 8.45 1.75 8.8 1.2 9.7 0.75 L10.15 0.5 10.35 0.45 Q11.15 0.1 12.1 0.05 11.0 0.15 10.2 0.6 9.1 1.1 9.1 1.9 9.1 2.65 10.2 3.2 L11.45 3.6 10.6 3.15 Q9.8 2.6 9.8 1.95 9.8 1.25 10.7 0.85 11.55 0.35 12.8 0.35 L12.9 0.35 Q14.1 0.35 14.9 0.85 15.8 1.25 15.8 1.9 15.8 2.5 14.9 2.95 L12.9 3.6 12.4 3.7 12.8 3.7 12.9 3.7 15.4 3.2 Q16.5 2.65 16.5 1.9 16.5 1.1 15.4 0.6 14.55 0.1 13.4 0.05 M11.05 5.4 L10.35 5.2 11.05 5.4 Q11.9 13.85 11.1 22.2 L10.85 23.85 9.5 26.5 8.35 27.5 8.2 27.6 Q6.55 28.35 5.35 29.35 3.35 30.95 2.6 33.3 L2.05 35.05 1.95 35.75 Q1.95 37.75 4.5 39.25 L5.2 39.6 6.8 40.25 Q9.4 41.15 12.8 41.15 16.2 41.15 18.85 40.25 L20.45 39.6 21.1 39.25 Q23.7 37.75 23.7 35.75 L23.6 35.05 23.15 33.3 Q22.35 30.85 20.25 29.2 19.05 28.25 17.55 27.6 L16.25 26.55 Q15.5 25.5 14.9 23.75 L14.9 23.7 14.55 22.2 Q13.7 13.85 14.6 5.4 L14.1 5.45 12.9 5.5 11.6 5.45 11.05 5.35 11.05 5.4 M16.25 4.55 Q17.3 3.8 17.25 3.15 L17.1 2.35 Q16.15 3.4 13.95 3.9 14.05 4.45 12.6 4.7 8.85 4.85 9.3 2.95 L8.45 2.25 8.3 3.05 Q8.25 3.7 9.3 4.45 L10.45 4.95 12.9 5.3 Q15.15 5.25 16.25 4.55 M12.9 3.25 L14.6 2.9 Q15.35 2.5 15.35 2.0 15.35 1.45 14.6 1.1 L12.9 0.7 12.8 0.7 Q11.75 0.7 11.0 1.1 10.25 1.45 10.25 2.0 10.25 2.5 11.0 2.9 L12.8 3.25 12.9 3.25"/><path fill="#ebf3f6" stroke="none" d="M13.4 0.05 Q14.55 0.1 15.4 0.6 16.5 1.1 16.5 1.9 16.5 2.65 15.4 3.2 L12.9 3.7 12.8 3.7 12.4 3.7 12.9 3.6 14.9 2.95 Q15.8 2.5 15.8 1.9 15.8 1.25 14.9 0.85 14.1 0.35 12.9 0.35 L12.8 0.35 Q11.55 0.35 10.7 0.85 9.8 1.25 9.8 1.95 9.8 2.6 10.6 3.15 L11.45 3.6 10.2 3.2 Q9.1 2.65 9.1 1.9 9.1 1.1 10.2 0.6 11.0 0.15 12.1 0.05 L13.4 0.05"/><path fill="#587b91" stroke="none" d="M11.05 5.4 L11.05 5.35 11.6 5.45 12.9 5.5 14.1 5.45 14.6 5.4 Q13.7 13.85 14.55 22.2 L14.9 23.7 14.9 23.75 Q15.5 25.5 16.25 26.55 L12.85 26.1 12.75 26.1 9.5 26.5 10.85 23.85 11.1 22.2 Q11.9 13.85 11.05 5.4 M19.6 40.9 L18.8 41.3 Q16.3 42.55 12.8 42.55 9.3 42.55 6.8 41.3 L5.85 40.75 6.15 40.85 Q9.05 41.85 12.8 41.85 16.6 41.85 19.55 40.85 L19.6 40.9 M16.25 4.55 Q15.15 5.25 12.9 5.3 L10.45 4.95 9.3 4.45 Q8.25 3.7 8.3 3.05 L8.45 2.25 9.3 2.95 Q8.85 4.85 12.6 4.7 14.05 4.45 13.95 3.9 16.15 3.4 17.1 2.35 L17.25 3.15 Q17.3 3.8 16.25 4.55 M12.9 0.7 L12.9 3.25 12.8 3.25 11.0 2.9 Q10.25 2.5 10.25 2.0 10.25 1.45 11.0 1.1 11.75 0.7 12.8 0.7 L12.9 0.7"/><path fill="#829bab" stroke="none" d="M12.9 0.7 L14.6 1.1 Q15.35 1.45 15.35 2.0 15.35 2.5 14.6 2.9 L12.9 3.25 12.9 0.7"/><path stroke="none" fill="url(#gradient4)" d="M16.25 26.55 L17.55 27.6 Q19.05 28.25 20.25 29.2 22.35 30.85 23.15 33.3 L23.6 35.05 23.7 35.75 Q23.7 37.75 21.1 39.25 L20.45 39.6 18.85 40.25 Q16.2 41.15 12.8 41.15 9.4 41.15 6.8 40.25 L5.2 39.6 4.5 39.25 Q1.95 37.75 1.95 35.75 L2.05 35.05 2.6 33.3 Q3.35 30.95 5.35 29.35 6.55 28.35 8.2 27.6 L8.35 27.5 9.5 26.5 12.75 26.1 12.85 26.1 16.25 26.55"/><path fill="none" stroke="#000000" stroke-width="0.5" stroke-opacity="0.301960784314" d="M15.3 5.15 L15.5 5.1 15.9 4.9 16.65 4.45 Q17.4 3.9 17.5 3.4 17.6 2.8 17.15 1.75 16.8 1.2 15.9 0.75 15.7 0.6 15.45 0.55 L14.9 0.3 13.4 0.05 12.1 0.05 Q11.15 0.1 10.35 0.45 L10.15 0.5 9.7 0.75 Q8.8 1.2 8.45 1.75 8.0 2.8 8.1 3.4 L8.4 3.95 8.9 4.4 8.95 4.45 9.7 4.9 10.3 5.15 10.35 5.2 11.05 5.4 M11.05 5.35 L11.6 5.45 12.9 5.5 14.1 5.45 14.6 5.4 15.25 5.15 15.3 5.15 15.25 5.2 Q13.95 14.15 15.25 22.95 L15.25 23.05 15.3 23.05 Q16.3 26.0 17.85 27.15 L18.0 27.25 18.1 27.25 18.2 27.3 18.3 27.3 18.5 27.4 Q19.9 28.0 21.0 28.7 L22.3 29.65 Q24.4 31.45 25.3 34.0 L25.45 34.35 25.45 34.45 25.5 34.5 25.6 35.3 Q25.6 37.95 21.8 39.85 L19.9 40.65 19.7 40.8 19.6 40.9 18.8 41.3 Q16.3 42.55 12.8 42.55 9.3 42.55 6.8 41.3 L5.85 40.75 5.7 40.65 4.5 40.2 3.8 39.85 Q0.0 37.95 0.0 35.3 L0.1 34.5 0.15 34.45 0.15 34.35 0.3 34.0 Q1.45 30.8 4.55 28.75 5.7 28.0 7.1 27.4 L7.3 27.3 7.4 27.3 7.5 27.25 Q9.25 26.25 10.35 23.05 L10.35 22.95 Q11.65 14.15 10.35 5.2"/></g><g id="c11"><path fill="#7f2a2a" stroke="none" d="M14.1 7.5 L14.05 7.5 14.1 7.45 14.1 7.5 M3.9 7.75 L3.3 7.5 3.3 7.45 3.9 7.75"/><path fill="#587b91" stroke="none" d="M3.3 7.5 L2.65 7.2 Q0.2 6.0 0.2 4.25 L0.2 4.15 Q0.25 2.4 2.65 1.2 5.15 0.0 8.7 0.0 12.2 0.0 14.65 1.2 16.4 2.05 16.95 3.15 L17.2 4.15 17.2 4.25 Q17.2 6.0 14.65 7.2 L14.1 7.5 14.1 7.45 Q16.35 6.4 16.35 4.85 L16.35 4.75 Q16.35 3.65 15.2 2.75 L14.1 2.05 Q11.85 1.0 8.7 1.0 5.55 1.0 3.3 2.05 1.15 3.2 1.05 4.75 L1.05 4.85 Q1.05 6.4 3.3 7.45 L3.3 7.5"/><path fill="#badae7" stroke="none" d="M4.4 7.9 L3.9 7.75 3.3 7.45 Q1.05 6.4 1.05 4.85 L1.05 4.75 Q1.15 3.2 3.3 2.05 5.55 1.0 8.7 1.0 11.85 1.0 14.1 2.05 L15.2 2.75 12.6 2.55 9.0 2.95 9.0 2.9 Q9.0 2.25 8.05 1.85 L5.75 1.65 Q4.45 1.8 3.5 2.35 2.6 2.95 2.55 3.6 L2.55 3.65 Q2.55 4.3 3.5 4.65 L3.75 4.7 4.9 4.95 Q4.15 5.75 4.1 6.7 L4.1 6.8 Q4.1 7.4 4.4 7.9"/><path fill="#ebf3f6" stroke="none" d="M4.9 4.95 L3.75 4.7 3.5 4.65 Q2.55 4.3 2.55 3.65 L2.55 3.6 Q2.6 2.95 3.5 2.35 4.45 1.8 5.75 1.65 L8.05 1.85 Q9.0 2.25 9.0 2.9 L9.0 2.95 Q9.0 3.6 8.05 4.15 L8.0 4.15 7.85 4.3 Q6.95 4.8 5.75 4.9 L4.9 4.95"/><path fill="#829bab" stroke="none" d="M14.05 7.5 L11.95 8.2 8.7 8.5 5.5 8.2 4.4 7.9 Q4.1 7.4 4.1 6.8 L4.1 6.7 Q4.15 5.75 4.9 4.95 L5.75 4.9 Q6.95 4.8 7.85 4.3 L8.0 4.15 8.05 4.15 Q9.0 3.6 9.0 2.95 L12.6 2.55 15.2 2.75 Q16.35 3.65 16.35 4.75 L16.35 4.85 Q16.35 6.4 14.1 7.45 L14.05 7.5"/></g><g id="c12"><g><use transform="matrix(1.0,0.0,0.0,1.0,0.0,0.0)" xlink:href="#c11"/></g></g><g id="c13"><path fill="#587b91" fill-opacity="0.8" d="M16.85 27.45 Q19.9 28.8 21.9 30.3 24.8 32.45 25.0 34.95 25.2 37.4 21.9 39.35 18.55 41.35 13.45 41.4 8.3 41.4 4.2 39.6 0.15 37.8 0.65 35.35 2.7 37.1 7.6 37.9 12.55 38.65 15.75 36.95 18.95 35.2 18.35 31.95 18.0 30.2 11.05 28.8 15.3 29.1 16.85 27.45 M9.35 41.55 L12.8 41.85 16.4 41.65 17.25 41.4 17.55 41.45 17.65 41.7 Q17.65 42.55 12.75 42.55 8.3 42.55 8.1 41.4 L9.35 41.55"/></g><g id="c14"><path fill="#2fedd6" stroke="none" d="M0.25 5.3 L0.8 3.6 Q1.55 1.25 3.35 -0.3 4.4 -1.3 5.85 -1.95 L6.0 -2.05 7.0 -3.05 Q7.7 -4.0 8.2 -5.5 L8.6 -9.1 Q8.85 -11.6 8.6 -24.6 9.7 -25.9 10.05 -24.8 10.3 -23.85 11.3 -24.65 10.9 -14.8 11.1 -11.05 11.3 -6.65 11.65 -5.6 L11.6 -5.6 Q12.1 -3.95 12.8 -3.0 13.1 -2.5 13.95 -1.95 15.25 -1.35 16.25 -0.45 18.15 1.1 19.0 3.6 L19.5 5.25 17.4 7.05 Q15.35 8.3 12.95 7.1 L8.8 5.05 Q6.75 3.95 4.6 3.5 2.45 3.0 0.25 5.3"/><path fill="#1d8580" stroke="none" d="M19.5 5.25 L19.5 5.3 19.6 6.05 Q19.65 8.05 17.35 9.65 L16.8 10.0 15.35 10.7 Q12.9 11.65 9.85 11.65 6.7 11.65 4.35 10.7 L2.9 10.0 2.25 9.6 Q0.05 8.05 0.1 6.05 L0.25 5.3 Q2.45 3.0 4.6 3.5 6.75 3.95 8.8 5.05 L12.95 7.1 Q15.35 8.3 17.4 7.05 L19.5 5.25"/></g><g id="c15"><path fill="#c0faee" stroke="none" d="M9.35 4.45 L9.7 4.3 10.05 4.45 10.2 4.75 10.15 4.9 10.4 4.85 10.65 4.9 10.75 4.95 10.85 4.75 11.2 4.65 11.45 4.75 11.55 5.1 11.45 5.35 11.2 5.55 Q11.0 5.55 10.85 5.35 L10.8 5.3 10.65 5.4 10.4 5.55 10.15 5.4 10.05 5.15 9.7 5.3 9.35 5.1 9.25 4.75 9.35 4.45 M9.15 3.4 Q9.3 3.25 9.4 3.25 9.55 3.25 9.7 3.4 L9.75 3.6 9.7 3.85 9.4 3.95 9.15 3.85 9.1 3.6 9.15 3.4 M9.4 5.55 L9.55 5.9 9.4 6.15 9.15 6.2 8.9 6.15 8.75 5.9 8.9 5.55 9.15 5.5 9.4 5.55 M10.0 0.1 Q10.05 0.0 10.2 0.0 L10.4 0.1 10.45 0.3 10.4 0.45 10.2 0.55 10.0 0.45 9.95 0.3 10.0 0.1 M9.9 1.65 L9.8 1.8 9.7 1.8 9.55 1.8 9.55 1.65 9.55 1.5 9.7 1.45 9.8 1.5 9.9 1.65 M10.85 3.75 L10.4 3.95 9.95 3.75 9.75 3.35 9.75 3.25 9.95 2.8 10.4 2.6 10.85 2.8 11.05 3.25 10.85 3.75 M11.1 6.25 L11.0 6.6 10.8 6.75 10.75 6.85 10.6 6.9 10.4 6.85 10.4 6.75 10.25 6.9 10.0 7.0 9.7 6.9 9.55 6.6 Q9.55 6.4 9.7 6.35 9.8 6.2 10.0 6.2 L10.15 6.2 10.25 5.9 Q10.4 5.75 10.6 5.75 L11.0 5.9 11.1 6.25 M9.95 7.2 L10.15 7.55 9.95 7.95 Q9.8 8.15 9.55 8.15 9.35 8.15 9.15 7.95 L9.05 7.55 9.1 7.45 9.15 7.2 Q9.35 7.05 9.55 7.05 L9.95 7.2 M8.75 6.45 L8.65 6.65 8.45 6.75 8.25 6.65 8.2 6.45 8.25 6.2 8.45 6.15 8.65 6.2 8.75 6.45"/><path fill="#a9f8e8" stroke="none" d="M11.95 5.7 L12.1 5.9 11.95 6.1 11.75 6.2 11.55 6.1 11.5 5.9 11.55 5.7 11.75 5.6 11.95 5.7 M14.5 10.75 L14.25 10.9 14.05 10.75 13.9 10.55 14.05 10.4 14.25 10.25 14.5 10.4 14.55 10.55 14.5 10.75 M14.85 11.35 Q14.95 11.2 15.15 11.2 L15.5 11.35 15.6 11.7 15.8 11.8 15.95 12.05 15.85 12.35 16.25 12.6 16.5 13.2 16.25 13.75 15.7 13.95 Q15.35 13.95 15.1 13.75 L14.9 13.2 15.1 12.6 15.3 12.4 15.15 12.15 Q14.95 12.15 14.85 12.0 L14.7 11.7 14.85 11.35 M16.45 11.6 L16.5 11.35 16.8 11.3 17.0 11.35 17.05 11.6 17.0 11.8 16.8 11.95 16.5 11.8 16.45 11.6 M8.45 11.55 Q8.1 11.55 7.9 11.35 L7.8 10.9 7.9 10.4 8.45 10.2 8.9 10.4 9.1 10.9 8.95 11.35 9.25 11.3 9.9 11.5 9.95 11.3 10.4 11.1 10.85 11.3 10.9 11.1 10.55 10.75 Q10.2 10.5 10.2 10.05 L10.05 10.25 Q9.9 10.45 9.6 10.45 9.35 10.45 9.25 10.25 L9.05 9.85 9.25 9.4 Q9.3 9.35 9.5 9.25 L9.4 9.0 9.55 8.6 9.95 8.5 10.35 8.6 10.4 8.6 Q10.4 8.3 10.65 8.05 10.9 7.75 11.3 7.75 11.65 7.75 11.9 8.05 L12.05 8.1 12.5 8.3 12.7 8.75 12.5 9.2 12.15 9.4 12.4 10.05 12.2 10.65 Q12.35 10.5 12.5 10.5 L12.9 10.7 13.0 11.05 12.9 11.4 12.5 11.55 12.15 11.4 12.15 11.35 12.05 11.05 12.05 10.85 11.85 10.95 12.05 11.4 11.85 11.8 11.75 11.95 11.85 12.0 12.4 11.8 13.0 12.0 13.2 12.6 13.0 13.2 12.5 13.45 12.55 13.75 12.35 14.2 11.9 14.4 11.45 14.2 11.25 13.75 11.3 13.55 11.0 13.55 10.25 13.25 10.05 13.0 10.0 13.1 Q9.7 13.45 9.3 13.45 L9.5 13.55 9.6 13.75 9.5 13.95 9.3 14.0 9.1 13.95 9.05 13.75 9.1 13.55 9.25 13.5 9.25 13.45 8.5 13.1 Q8.2 12.8 8.2 12.35 8.2 11.95 8.5 11.6 L8.6 11.55 8.45 11.55 M11.95 6.85 L12.15 7.2 11.95 7.45 11.7 7.55 11.4 7.45 11.25 7.2 11.4 6.85 11.7 6.75 11.95 6.85 M10.55 9.25 L10.6 9.2 10.55 9.05 10.55 9.25 M10.45 9.35 L10.35 9.4 10.15 9.55 10.2 9.85 10.45 9.35 M10.05 10.95 L9.95 11.15 9.75 11.3 9.55 11.15 9.5 10.95 9.55 10.75 9.75 10.7 9.95 10.75 10.05 10.95 M13.85 9.7 L13.7 10.0 13.45 10.1 Q13.25 10.1 13.2 10.0 L13.05 9.7 13.2 9.4 13.45 9.25 13.7 9.4 13.85 9.7 M13.85 11.55 L14.3 11.7 14.45 12.15 14.3 12.55 13.85 12.7 13.45 12.55 13.25 12.15 13.45 11.7 Q13.65 11.55 13.85 11.55 M6.25 9.85 L6.1 9.45 Q6.1 9.2 6.25 9.0 L6.7 8.9 7.1 9.0 7.25 9.45 7.1 9.85 6.7 10.05 Q6.45 10.05 6.25 9.85 M4.6 10.7 L4.45 10.95 4.15 11.15 3.8 10.95 3.7 10.7 3.8 10.45 3.8 10.4 Q3.95 10.25 4.15 10.25 L4.45 10.4 4.6 10.7 M8.9 9.4 L8.85 9.65 8.6 9.7 8.3 9.65 8.25 9.4 8.3 9.15 8.6 9.05 8.85 9.15 8.9 9.4 M6.95 12.85 Q7.1 12.85 7.2 13.0 L7.45 13.65 7.35 14.1 7.2 14.2 6.6 14.5 Q6.25 14.5 5.95 14.2 L5.7 13.65 Q5.7 13.25 5.95 13.0 L6.1 12.9 6.25 12.85 6.15 12.55 6.25 12.2 Q6.45 12.05 6.6 12.05 6.8 12.05 6.9 12.2 L7.1 12.55 6.95 12.85 M13.2 14.1 Q13.25 14.0 13.45 14.0 L13.65 14.1 13.8 14.35 13.65 14.6 13.45 14.7 Q13.25 14.7 13.2 14.6 L13.05 14.35 13.2 14.1 M10.6 15.0 L10.55 14.8 10.6 14.5 10.9 14.4 11.1 14.5 11.25 14.8 11.1 15.0 11.1 15.05 10.9 15.15 10.75 15.05 10.6 15.0 M1.35 10.3 L1.4 10.5 1.35 10.7 1.15 10.85 0.9 10.7 0.8 10.5 0.9 10.3 1.15 10.2 1.35 10.3 M3.55 10.0 L3.75 9.9 3.9 10.0 3.95 10.1 3.9 10.25 3.75 10.3 3.55 10.25 3.55 10.1 3.55 10.0 M3.5 12.55 L3.6 12.45 3.75 12.55 3.8 12.65 3.75 12.8 3.6 12.85 3.5 12.8 3.45 12.65 3.5 12.55 M0.8 12.4 L0.7 12.7 0.55 12.85 0.35 12.85 0.1 12.7 0.0 12.45 0.0 12.4 0.1 12.15 0.35 12.0 Q0.55 12.0 0.7 12.15 L0.8 12.4"/><path fill="#ba8346" stroke="none" d="M8.5 11.6 L8.45 11.55 8.6 11.55 8.5 11.6 M10.55 9.25 L10.55 9.05 10.6 9.2 10.55 9.25"/><path fill="#2fedd6" stroke="none" d="M10.45 9.35 L10.2 9.85 10.15 9.55 10.35 9.4 10.45 9.35"/><path fill="#8af4de" stroke="none" d="M8.7 7.1 L8.9 7.2 9.05 7.4 8.9 7.65 8.7 7.7 8.6 7.7 8.75 8.25 8.5 8.8 7.9 9.05 7.4 8.8 7.15 8.25 Q7.15 7.9 7.4 7.65 7.6 7.4 7.9 7.4 8.25 7.4 8.45 7.55 L8.4 7.4 8.5 7.2 8.7 7.1"/><path fill="#ffa41c" stroke="none" d="M10.75 15.05 L10.6 15.05 10.6 15.0 10.75 15.05"/></g><g id="c16"><g><use transform="matrix(1.0,0.0,0.0,1.0,0.0,0.0)" xlink:href="#c15"/></g></g><radialGradient gradientUnits="userSpaceOnUse" r="819.2" cx="0" cy="0" spreadMethod="pad" gradientTransform="matrix(0.219116210938,0.0,0.0,0.109558105469,0.0,0.0)" id="gradient5"><stop offset="0.407843137255" stop-color="#ffff50" stop-opacity="0.964705882353"/><stop offset="1.0" stop-color="#fff1ba" stop-opacity="0.0"/></radialGradient><g id="c17"><path stroke="none" fill="url(#gradient5)" d="M125.15 -62.6 Q177.0 -36.65 177.0 0.0 177.0 36.65 125.15 62.55 73.3 88.5 0.0 88.5 -73.3 88.5 -125.15 62.55 -177.0 36.65 -177.0 0.0 -177.0 -36.65 -125.15 -62.6 -73.3 -88.5 0.0 -88.5 73.3 -88.5 125.15 -62.6"/></g><g id="c18"><g><use transform="matrix(1.0,0.0,0.0,1.0,0.0,0.0)" xlink:href="#c17"/></g></g><g id="c19"><g><use transform="matrix(1.0,0.0,0.0,1.0,0.0,0.0)" xlink:href="#c14"/></g><g><use transform="matrix(1.0,0.0,0.0921020507812,1.0,-0.2,-6.55)" xlink:href="#c16"/></g><g><use transform="matrix(0.0297698974609,0.0237579345703,-0.0234375,0.0293579101562,13.75,1.5)" filter="url(#filter14)" xlink:href="#c18"/></g></g><filter id="filter14"><feColorMatrix in="SourceGraphic" type="matrix" values="1.0 0.0 0.0 0.0 0.0 0.0 1.0 0.0 0.0 0.0 0.0 0.0 1.0 0.0 0.0 0.0 0.0 0.0 0.58984375 0.0" result="cxform"/><feComposite operator="in" in2="SourceGraphic" result="color-xform"/></filter><radialGradient gradientUnits="userSpaceOnUse" r="819.2" cx="0" cy="0" spreadMethod="pad" gradientTransform="matrix(0.0157470703125,0.0,0.0,0.0101928710938,6.4,31.2)" id="gradient6"><stop offset="0.0" stop-color="#ebf3f6"/><stop offset="1.0" stop-color="#ebf3f6" stop-opacity="0.552941176471"/></radialGradient><g id="c20"><path stroke="none" fill="url(#gradient6)" d="M11.45 11.7 L11.0 5.1 12.9 5.5 Q12.7 6.9 12.75 13.55 L12.7 22.55 Q12.65 24.45 12.95 26.65 12.8 36.65 5.3 36.3 -0.25 35.0 1.25 32.8 2.75 30.55 5.5 28.95 L7.7 27.7 8.55 27.2 8.7 27.1 9.1 26.8 8.85 26.95 Q10.0 25.6 10.75 22.2 11.45 18.75 11.45 11.7"/><path fill="#ffffff" stroke="none" d="M16.7 1.85 L16.55 2.4 15.35 3.05 14.55 3.35 15.2 2.9 Q15.75 2.5 15.65 1.75 L15.4 0.8 16.0 1.15 16.7 1.85 M9.7 0.8 Q10.75 0.2 10.35 0.95 9.9 1.65 10.15 2.2 10.35 2.75 9.7 2.55 9.05 2.3 8.85 1.85 8.65 1.35 9.7 0.8 M9.5 26.5 Q11.95 23.7 11.8 8.9 13.8 25.8 11.4 27.4 8.95 29.0 9.5 26.5 M7.8 28.8 Q8.9 28.7 9.85 29.4 10.8 30.1 10.65 30.6 L9.95 31.55 8.35 32.0 Q3.8 32.0 3.95 31.3 4.05 30.6 5.4 29.75 6.7 28.85 7.8 28.8"/></g><g id="c21"><g><use transform="matrix(1.0,0.0,0.0,1.0,0.0,0.0)" xlink:href="#c10"/></g><g><use transform="matrix(1.0,0.0,0.0,1.0,4.15,34.05)" filter="url(#filter16)" xlink:href="#c12"/></g><g><use transform="matrix(1.0,0.0,0.0,1.0,0.0,0.0)" xlink:href="#c13"/></g><g><use transform="matrix(1.11764526367,0.0,0.0,0.939193725586,1.7,29.65)" filter="url(#filter18)" xlink:href="#c19"/></g><g><use transform="matrix(1.0,0.0,0.0,1.0,0.0,0.0)" xlink:href="#c20"/></g></g><filter id="filter16"><feColorMatrix in="SourceGraphic" type="matrix" values="1.0 0.0 0.0 0.0 0.0 0.0 1.0 0.0 0.0 0.0 0.0 0.0 1.0 0.0 0.0 0.0 0.0 0.0 0.44921875 0.0" result="cxform"/><feComposite operator="in" in2="SourceGraphic" result="color-xform"/></filter><filter id="filter18"><feColorMatrix in="SourceGraphic" type="matrix" values="1.0 0.0 0.0 0.0 0.0 0.0 1.0 0.0 0.0 0.0 0.0 0.0 1.0 0.0 0.0 0.0 0.0 0.0 0.75 0.0" result="cxform"/><feComposite operator="in" in2="SourceGraphic" result="color-xform"/></filter><radialGradient gradientUnits="userSpaceOnUse" r="819.2" cx="0" cy="0" fx="630.4" fy="0" spreadMethod="pad" gradientTransform="matrix(0.00239562988281,0.00436401367188,-0.00361633300781,0.000778198242188,3.8,14.6)" id="gradient7"><stop offset="0.227450980392" stop-color="#829bab"/><stop offset="1.0" stop-color="#badae7"/></radialGradient><g id="c22"><path fill="#ffffff" stroke="none" d="M3.6 8.1 Q4.15 7.7 6.05 6.9 L6.25 6.85 Q4.6 7.6 2.25 9.6 2.45 8.7 3.6 8.1 M3.6 19.4 L3.55 19.4 3.3 19.3 3.25 19.05 Q3.25 18.75 3.55 18.85 L3.75 18.95 3.85 19.1 3.6 19.4"/><path stroke="none" fill="url(#gradient7)" d="M10.3 5.3 L9.75 5.35 8.15 5.75 Q5.85 6.35 4.65 7.2 L2.85 8.4 1.5 9.8 Q0.9 10.75 0.85 11.75 0.85 12.45 1.3 13.2 0.7 11.85 1.15 11.35 1.65 10.75 2.35 10.9 2.6 10.0 3.45 9.3 4.55 8.45 5.8 7.85 7.15 7.15 8.6 6.75 9.9 6.35 10.55 6.3 L10.5 6.65 9.0 6.95 Q6.75 7.25 4.25 9.0 2.9 9.95 2.65 11.1 2.65 11.3 2.25 11.3 1.45 11.65 2.6 13.4 3.6 15.1 4.7 16.25 L5.6 17.5 5.8 18.3 5.75 19.0 5.1 19.6 3.9 19.75 3.85 19.65 3.15 19.35 3.05 19.3 2.75 19.25 Q2.4 19.3 2.3 19.5 L2.3 19.55 3.05 20.55 4.25 20.9 Q4.95 20.95 5.75 20.1 6.5 19.25 6.05 17.6 L5.75 17.0 4.65 15.3 Q2.95 12.9 3.1 11.6 3.2 10.15 5.55 8.95 8.15 7.75 9.65 7.55 L9.65 7.5 10.1 7.45 9.9 7.75 9.45 7.8 Q8.0 8.1 5.85 9.15 3.45 10.25 3.3 11.75 3.2 13.05 4.95 15.5 L6.0 17.2 6.2 17.6 Q6.7 19.45 6.0 20.2 L4.6 21.1 3.6 21.0 3.15 20.75 2.8 20.45 2.6 20.35 2.65 20.3 2.6 20.25 2.25 19.7 2.2 19.55 2.2 19.35 Q2.25 19.0 3.3 18.65 4.3 18.25 3.85 17.5 L2.85 15.9 1.4 13.85 0.6 12.55 0.6 12.3 0.5 11.55 0.55 11.35 Q0.7 10.15 2.35 8.55 3.75 7.05 6.25 6.15 L7.6 5.65 9.55 5.25 10.2 5.2 10.3 5.3 M3.6 19.4 L3.95 19.55 Q4.65 19.65 4.8 19.25 4.95 18.75 3.8 18.9 L3.75 18.95 3.55 18.85 Q3.25 18.75 3.25 19.05 L3.05 19.2 3.3 19.3 3.55 19.4 3.6 19.4"/><path fill="#ebf3f6" stroke="none" d="M10.3 5.3 L10.55 6.3 Q9.9 6.35 8.6 6.75 7.15 7.15 5.8 7.85 4.55 8.45 3.45 9.3 2.6 10.0 2.35 10.9 1.65 10.75 1.15 11.35 0.7 11.85 1.3 13.2 0.85 12.45 0.85 11.75 0.9 10.75 1.5 9.8 L2.85 8.4 4.65 7.2 Q5.85 6.35 8.15 5.75 L9.75 5.35 10.3 5.3 M3.6 8.1 Q2.45 8.7 2.25 9.6 4.6 7.6 6.25 6.85 L6.05 6.9 Q4.15 7.7 3.6 8.1 M3.75 18.95 L3.8 18.9 Q4.95 18.75 4.8 19.25 4.65 19.65 3.95 19.55 L3.6 19.4 3.85 19.1 3.75 18.95 M3.3 19.3 L3.05 19.2 3.25 19.05 3.3 19.3"/><path fill="#587b91" stroke="none" d="M10.5 6.65 L10.1 7.45 9.65 7.5 9.65 7.55 Q8.15 7.75 5.55 8.95 3.2 10.15 3.1 11.6 2.95 12.9 4.65 15.3 L5.75 17.0 6.05 17.6 Q6.5 19.25 5.75 20.1 4.95 20.95 4.25 20.9 L3.05 20.55 2.3 19.55 2.3 19.5 Q2.4 19.3 2.75 19.25 L3.05 19.3 3.15 19.35 3.85 19.65 3.9 19.75 5.1 19.6 5.75 19.0 5.8 18.3 5.6 17.5 4.7 16.25 Q3.6 15.1 2.6 13.4 1.45 11.65 2.25 11.3 2.65 11.3 2.65 11.1 2.9 9.95 4.25 9.0 6.75 7.25 9.0 6.95 L10.5 6.65"/><path fill="none" stroke="#000000" stroke-width="0.5" stroke-opacity="0.301960784314" d="M10.1 7.45 L9.9 7.75 9.45 7.8 Q8.0 8.1 5.85 9.15 3.45 10.25 3.3 11.75 3.2 13.05 4.95 15.5 L6.0 17.2 6.2 17.6 Q6.7 19.45 6.0 20.2 L4.6 21.1 3.6 21.0 3.15 20.75 2.8 20.45 2.6 20.35 2.65 20.3 2.6 20.25 2.25 19.7 2.2 19.35 Q2.25 19.0 3.3 18.65 4.3 18.25 3.85 17.5 L2.85 15.9 1.4 13.85 0.6 12.55 0.6 12.3 0.5 11.55 0.55 11.35 Q0.7 10.15 2.35 8.55 3.75 7.05 6.25 6.15 L7.6 5.65 9.55 5.25 10.2 5.2"/></g><g id="c23"><g><use transform="matrix(1.0,0.0,0.0,1.0,0.0,0.0)" xlink:href="#c22"/></g></g><g id="c24"><path fill="#d5c899" stroke="none" d="M4.2 0.2 L5.65 0.65 Q6.0 0.9 6.25 0.95 L6.65 1.35 Q6.95 2.3 6.35 2.65 L5.5 2.95 4.8 3.1 3.25 2.9 1.55 2.4 1.1 2.25 0.45 1.7 Q0.65 1.3 1.55 1.2 L0.05 1.2 0.2 0.85 Q0.45 0.4 0.95 0.25 L3.1 0.05 Q3.0 1.0 4.0 0.65 L4.2 0.2 M2.5 2.3 L3.15 2.55 3.8 2.55 4.15 2.45 4.05 2.35 Q3.75 2.05 3.5 2.15 L3.0 2.1 2.7 2.15 2.5 2.3 M4.65 1.3 L5.1 1.2 5.0 1.1 4.9 1.1 4.6 1.1 4.55 1.1 4.65 1.3 M4.2 1.75 L4.5 1.9 4.95 1.8 4.6 1.6 4.45 1.65 Q4.25 1.65 4.2 1.75 M5.15 1.65 L5.4 1.7 5.55 1.75 5.95 1.75 6.1 1.75 6.0 1.55 5.7 1.35 5.45 1.5 5.15 1.6 5.15 1.65 M6.0 2.5 L6.2 2.35 5.75 2.3 5.15 2.2 4.9 2.3 Q4.85 2.45 5.45 2.55 L6.0 2.5"/><path fill="#89793a" stroke="none" d="M0.35 5.2 L0.15 2.7 0.25 2.75 1.25 3.1 Q1.9 3.5 2.8 5.75 L2.9 6.05 Q1.85 6.45 0.4 5.45 L0.35 5.2 M0.8 3.45 Q0.7 3.5 0.75 3.95 L0.85 4.05 1.05 4.35 1.2 4.2 Q1.4 4.0 1.5 3.95 L1.15 3.45 0.8 3.45 M0.8 4.5 Q0.7 4.7 0.95 4.95 L1.2 4.85 1.3 4.7 Q1.2 4.5 1.05 4.6 L0.95 4.6 0.9 4.4 0.8 4.5 M0.6 4.1 Q0.45 4.05 0.4 4.2 L0.5 4.3 0.75 4.15 0.6 4.1"/><path fill="#65592c" stroke="none" d="M4.85 6.9 L4.5 7.0 3.65 7.05 3.25 7.05 2.7 6.95 0.95 6.3 0.4 5.8 0.35 5.2 0.4 5.45 Q1.85 6.45 2.9 6.05 L2.8 5.75 Q1.9 3.5 1.25 3.1 L0.25 2.75 0.15 2.7 0.15 1.95 0.8 2.45 1.4 2.6 2.7 3.0 Q2.6 4.25 3.3 5.35 L3.65 5.8 3.8 5.9 4.85 6.9"/><path fill="#e8e1ca" stroke="none" d="M6.65 1.35 L7.0 1.8 7.05 1.9 6.7 2.75 6.25 3.05 5.6 3.2 4.75 3.2 3.55 3.15 2.9 3.1 2.7 3.0 1.4 2.6 0.8 2.45 0.15 1.95 0.0 1.35 0.0 1.15 Q0.0 0.75 0.15 0.6 0.35 0.4 0.95 0.25 0.45 0.4 0.2 0.85 L0.05 1.2 1.55 1.2 Q0.65 1.3 0.45 1.7 L1.1 2.25 1.55 2.4 3.25 2.9 4.8 3.1 5.5 2.95 6.35 2.65 Q6.95 2.3 6.65 1.35"/><path fill="#ac9c46" stroke="none" d="M3.1 0.05 L3.45 0.4 4.2 0.2 4.0 0.65 Q3.0 1.0 3.1 0.05 M5.15 1.65 L5.15 1.6 5.45 1.5 5.7 1.35 6.0 1.55 6.1 1.75 5.95 1.75 5.55 1.75 5.4 1.7 5.15 1.65 M4.2 1.75 Q4.25 1.65 4.45 1.65 L4.6 1.6 4.95 1.8 4.5 1.9 4.2 1.75 M4.65 1.3 L4.55 1.1 4.6 1.1 4.9 1.1 5.0 1.1 5.1 1.2 4.65 1.3 M2.5 2.3 L2.7 2.15 3.0 2.1 3.5 2.15 Q3.75 2.05 4.05 2.35 L4.15 2.45 3.8 2.55 3.15 2.55 2.5 2.3 M6.0 2.5 L5.45 2.55 Q4.85 2.45 4.9 2.3 L5.15 2.2 5.75 2.3 6.2 2.35 6.0 2.5"/><path fill="#594f26" stroke="none" d="M0.8 3.45 L1.15 3.45 1.5 3.95 Q1.4 4.0 1.2 4.2 L1.05 4.35 0.85 4.05 0.75 3.95 Q0.7 3.5 0.8 3.45 M0.6 4.1 L0.75 4.15 0.5 4.3 0.4 4.2 Q0.45 4.05 0.6 4.1 M0.8 4.5 L0.9 4.4 0.95 4.6 1.05 4.6 Q1.2 4.5 1.3 4.7 L1.2 4.85 0.95 4.95 Q0.7 4.7 0.8 4.5"/><path fill="#947d49" stroke="none" d="M5.6 4.0 L5.8 3.7 6.05 3.65 6.0 3.75 6.0 4.1 6.0 4.3 5.6 4.7 5.45 4.75 5.35 4.5 5.4 4.4 5.45 4.4 5.6 4.05 5.6 4.0 M5.2 3.9 L5.25 3.8 Q5.25 3.75 5.45 3.65 L5.55 3.85 5.3 3.95 5.2 3.9 M4.7 4.3 L4.8 4.15 5.0 4.3 5.2 4.35 5.0 4.65 Q4.85 4.45 4.65 4.65 L4.45 4.45 4.5 4.35 Q4.5 4.25 4.65 4.3 L4.7 4.3 M4.9 5.3 L5.4 5.35 5.7 5.45 5.35 5.75 4.9 5.95 4.65 5.65 Q4.6 5.5 4.9 5.3 M4.9 4.9 L5.0 4.9 5.2 4.95 5.05 5.0 4.95 5.1 4.8 5.0 4.9 4.9"/><path fill="#ccbe88" stroke="none" d="M6.7 2.75 L6.15 4.2 6.0 4.1 6.0 3.75 6.05 3.65 5.8 3.7 5.6 4.0 5.3 3.95 5.55 3.85 5.45 3.65 Q5.25 3.75 5.25 3.8 L5.2 3.9 Q4.4 3.75 4.05 3.9 3.0 4.3 3.4 5.25 L3.65 5.8 3.3 5.35 Q2.6 4.25 2.7 3.0 L2.9 3.1 3.55 3.15 4.75 3.2 5.6 3.2 6.25 3.05 6.7 2.75"/><path fill="#baa75f" stroke="none" d="M6.15 4.2 L5.7 5.4 5.3 6.65 4.85 6.9 3.8 5.9 3.65 5.8 3.4 5.25 Q3.0 4.3 4.05 3.9 4.4 3.75 5.2 3.9 L5.3 3.95 5.6 4.0 5.6 4.05 5.45 4.4 5.4 4.4 5.35 4.5 5.45 4.75 5.6 4.7 6.0 4.3 6.0 4.1 6.15 4.2 M4.65 4.3 Q4.5 4.25 4.5 4.35 L4.45 4.45 4.65 4.65 Q4.85 4.45 5.0 4.65 L5.2 4.35 5.0 4.3 4.8 4.15 4.7 4.3 4.6 4.2 4.65 4.3 M4.9 4.9 L4.8 5.0 4.95 5.1 5.05 5.0 5.2 4.95 5.0 4.9 4.9 4.9 M4.9 5.3 Q4.6 5.5 4.65 5.65 L4.9 5.95 5.35 5.75 5.7 5.45 5.4 5.35 4.9 5.3"/><path fill="#77653c" stroke="none" d="M4.7 4.3 L4.65 4.3 4.6 4.2 4.7 4.3"/><path fill="none" stroke="#000000" stroke-width="0.5" stroke-opacity="0.250980392157" d="M4.2 0.2 L5.65 0.65 Q6.0 0.9 6.25 0.95 L6.65 1.35 7.0 1.8 7.05 1.9 6.7 2.75 6.15 4.2 5.7 5.4 5.3 6.65 4.85 6.9 4.5 7.0 3.65 7.05 3.25 7.05 2.7 6.95 0.95 6.3 0.4 5.8 0.35 5.2 0.15 2.7 0.15 1.95 0.0 1.35 0.0 1.15 Q0.0 0.75 0.15 0.6 0.35 0.4 0.95 0.25 L3.1 0.05 3.45 0.4 4.2 0.2"/></g><g id="c25"><g><use transform="matrix(1.0,0.0,0.0,1.0,0.0,0.0)" xlink:href="#c24"/></g></g><g id="c26"><g><use transform="matrix(1.0,0.0,0.0,1.0,0.0,-0.05)" xlink:href="#c21"/></g><g><use transform="matrix(1.0,0.0,0.0,1.0,0.95,8.3)" xlink:href="#c23"/></g><g><use transform="matrix(-1.0,0.0,0.0,1.0,24.6,8.3)" xlink:href="#c23"/></g><g><use transform="matrix(1.0,0.0,0.0,1.0,10.0,-3.95)" filter="url(#filter25)" xlink:href="#c25"/></g></g><filter id="filter25"><feColorMatrix in="SourceGraphic" type="matrix" values="0.73828125 0.0 0.0 0.0 0.2578125 0.0 0.73828125 0.0 0.0 0.10546875 0.0 0.0 0.73828125 0.0 0.0 0.0 0.0 0.0 1.0 0.0" result="cxform"/><feComposite operator="in" in2="SourceGraphic" result="color-xform"/></filter><g id="c27"><g><use transform="matrix(3.71655273438,0.0,0.0,3.71655273438,11.25,-12.25)" xlink:href="#c26"/></g></g><g id="c28"><g><use transform="matrix(1.0,0.0,0.0,1.0,6.3,53.35)" xlink:href="#c9"/></g><g><use transform="matrix(-0.146041870117,0.0488891601562,0.0616760253906,0.140441894531,33.05,63.95)" xlink:href="#c27"/></g><g><use transform="matrix(0.141098022461,-0.0378112792969,0.111373901367,0.225646972656,27.2,74.05)" filter="url(#filter29)" xlink:href="#c6"/></g></g><filter id="filter29"><feColorMatrix in="SourceGraphic" type="matrix" values="1.0 0.0 0.0 0.0 0.0 0.0 1.0 0.0 0.0 0.0 0.0 0.0 1.0 0.0 0.0 0.0 0.0 0.0 0.23046875 0.0" result="cxform"/><feComposite operator="in" in2="SourceGraphic" result="color-xform"/></filter></defs><g><g><use transform="matrix(1.0,0.0,0.0,1.0,0.0,0.0)" xlink:href="#c1"/></g><g><use transform="matrix(1.15496826172,0.0,0.0,1.15496826172,-1.5,-57.15)" xlink:href="#c28"/></g></g></svg>