<?xml version='1.0' encoding='UTF-8'?>
<svg xmlns:xlink="http://www.w3.org/1999/xlink" xmlns="http://www.w3.org/2000/svg" version="1.1" width="60px" height="60px" viewBox="0.0 0.0 60.0 60.0"><defs><g id="c1"><path fill="none" stroke="#000000" stroke-width="0.5" stroke-opacity="0.301960784314" d="M2.1 -2.4 L1.85 -2.55"/></g><g id="c2"><path fill="#cccccc" stroke="none" d="M4.6 -9.3 Q6.2 -12.8 7.7 -13.45 8.05 -13.0 7.9 -12.05 7.5 -8.0 4.75 -8.05 L4.6 -9.3"/><path fill="none" stroke="#000000" stroke-width="0.5" stroke-opacity="0.301960784314" d="M4.6 -9.3 Q6.2 -12.8 7.7 -13.45 8.05 -13.0 7.9 -12.05 7.5 -8.0 4.75 -8.05 L4.6 -9.3"/></g><radialGradient gradientUnits="userSpaceOnUse" r="819.2" cx="0" cy="0" spreadMethod="pad" gradientTransform="matrix(-0.0157623291016,0.0,0.0,0.0157623291016,4.0,-10.35)" id="gradient1"><stop offset="0.345098039216" stop-color="#cccccc"/><stop offset="0.854901960784" stop-color="#938889"/></radialGradient><g id="c3"><path stroke="none" fill="url(#gradient1)" d="M5.9 -14.0 Q3.15 -16.4 -1.25 -16.45 L-2.2 -16.3 Q-4.6 -15.5 -5.7 -13.45 -6.3 -9.0 -4.45 -5.95 -3.05 -4.75 -1.6 -4.1 -0.2 -2.75 0.95 -0.85 1.35 -0.6 2.3 -0.3 L3.95 0.0 Q4.6 0.05 4.8 -0.25 L5.15 -1.35 5.85 -4.75 6.6 -6.05 6.45 -7.65 7.05 -9.6 Q7.15 -11.9 5.9 -14.0"/><path fill="none" stroke="#000000" stroke-width="0.5" stroke-opacity="0.301960784314" d="M5.9 -14.0 Q7.15 -11.9 7.05 -9.6 L6.45 -7.65 6.6 -6.05 5.85 -4.75 5.15 -1.35 4.8 -0.25 Q4.6 0.05 3.95 0.0 L2.3 -0.3 Q1.35 -0.6 0.95 -0.85 -0.2 -2.75 -1.6 -4.1 -3.05 -4.75 -4.45 -5.95 -6.3 -9.0 -5.7 -13.45 -4.6 -15.5 -2.2 -16.3 L-1.25 -16.45 Q3.15 -16.4 5.9 -14.0"/></g><g id="c4"><path fill="#938889" stroke="none" d="M5.45 -9.05 Q4.8 -6.65 2.15 -7.85 L2.8 -4.9 Q4.65 -6.7 5.45 -6.0 L5.45 -9.05"/></g><g id="c5"><path fill="#938889" stroke="none" d="M2.45 -2.0 L2.4 -2.05 1.35 -3.5 0.55 -3.75 2.45 -2.0"/><path fill="none" stroke="#000000" stroke-width="0.5" stroke-opacity="0.301960784314" d="M0.55 -3.75 L1.35 -3.5 2.4 -2.05 2.45 -2.0 M0.55 -3.75 L-0.25 -4.0 -0.6 -5.6"/></g><g id="c6"><path fill="#353435" stroke="none" d="M5.15 -3.05 L4.55 -2.95 3.35 -2.0 5.0 -2.05 Q5.65 -2.55 5.15 -3.05"/><path fill="none" stroke="#000000" stroke-width="0.5" stroke-opacity="0.301960784314" d="M3.35 -2.0 L4.55 -2.95 5.15 -3.05"/></g><g id="c7"><path fill="#222122" stroke="none" d="M5.6 -3.25 L5.35 -3.1 4.85 -3.5 4.7 -3.15 4.25 -3.3 3.7 -2.8 3.2 -2.0 2.7 -1.75 3.45 -1.95 3.9 -2.3 4.7 -2.5 5.15 -2.95 5.3 -2.95 5.6 -3.25"/><path fill="none" stroke="#000000" stroke-width="0.5" stroke-opacity="0.301960784314" d="M5.6 -3.25 L5.3 -2.95 5.15 -2.95 4.7 -2.5 3.9 -2.3 3.45 -1.95 2.7 -1.75"/></g><g id="c8"><path fill="#cccccc" stroke="none" d="M3.95 -3.65 Q4.35 -4.3 5.35 -4.8 4.8 -4.95 4.75 -5.45 4.2 -4.65 3.95 -3.65"/><path fill="#938889" stroke="none" d="M5.35 -4.8 Q4.35 -4.3 3.95 -3.65 L4.6 -3.55 Q5.4 -4.05 5.35 -4.8"/><path fill="none" stroke="#000000" stroke-width="0.5" stroke-opacity="0.301960784314" d="M4.75 -5.45 Q4.8 -4.95 5.35 -4.8 5.4 -4.05 4.6 -3.55"/></g><g id="c9"><path fill="#cccccc" stroke="none" d="M-6.45 -7.35 L-6.7 -7.45 -6.45 -7.35 Q-5.5 -7.0 -4.5 -6.45 L-2.4 -5.1 Q-2.4 -4.65 -1.9 -4.45 L-3.1 -4.5 Q-4.65 -4.9 -6.45 -7.35 M-2.9 -4.4 L-3.1 -4.5 -2.9 -4.4 M-2.3 -6.2 Q-4.05 -7.3 -7.95 -8.4 -7.15 -6.25 -3.7 -3.95 L-0.85 -3.75 Q-1.05 -5.0 -2.3 -6.2"/><path fill="#938889" stroke="none" d="M-6.45 -7.35 Q-4.65 -4.9 -3.1 -4.5 L-1.9 -4.45 Q-2.4 -4.65 -2.4 -5.1 L-4.5 -6.45 Q-4.05 -5.1 -3.1 -4.5 -4.05 -5.1 -4.5 -6.45 -5.5 -7.0 -6.45 -7.35"/><path fill="none" stroke="#000000" stroke-width="0.5" stroke-opacity="0.301960784314" d="M-6.7 -7.45 L-6.45 -7.35 M-3.1 -4.5 L-2.9 -4.4 M-4.5 -6.45 L-2.4 -5.1 M-3.1 -4.5 Q-4.05 -5.1 -4.5 -6.45 -5.5 -7.0 -6.45 -7.35 M-0.85 -3.75 L-3.7 -3.95 Q-7.15 -6.25 -7.95 -8.4 -4.05 -7.3 -2.3 -6.2"/></g><g id="c10"><path fill="#643b4c" stroke="none" d="M-5.7 -11.3 L-5.65 -12.95 Q-4.8 -13.65 -3.9 -13.9 -1.8 -13.75 -1.15 -13.2 L-0.05 -12.15 0.65 -11.2 Q0.9 -10.75 1.2 -10.65 1.65 -11.1 1.3 -12.0 1.9 -11.45 2.05 -10.5 L1.4 -9.6 Q0.4 -9.85 -0.5 -10.85 -2.65 -12.6 -5.7 -11.3"/><path fill="none" stroke="#000000" stroke-width="0.5" stroke-opacity="0.301960784314" d="M-5.6 -13.45 Q-4.45 -15.5 -2.1 -16.3 L-1.15 -16.45 Q3.25 -16.4 6.0 -14.0"/></g><g id="c11"><path fill="#643b4c" stroke="none" d="M4.6 -14.9 L5.25 -13.45 Q5.4 -12.9 5.15 -12.55 4.75 -13.1 4.55 -14.0 4.4 -13.0 4.7 -12.15 L5.4 -11.4 Q6.25 -12.5 5.75 -14.0 L4.6 -14.9"/></g><g id="c12"><path fill="#d3c1d3" stroke="none" d="M-0.75 -6.4 L3.55 -6.55 3.4 -5.65 Q2.1 -4.6 1.05 -4.6 -0.5 -5.4 -0.75 -6.4"/><path fill="none" stroke="#000000" stroke-width="0.5" stroke-opacity="0.301960784314" d="M-0.75 -6.4 L3.55 -6.55 3.4 -5.65 Q2.1 -4.6 1.05 -4.6 -0.5 -5.4 -0.75 -6.4"/></g><g id="c13"><path fill="#fae6f6" stroke="none" d="M0.5 -5.7 Q0.5 -5.4 0.8 -5.25 1.15 -5.0 1.6 -5.05 2.05 -5.05 2.4 -5.35 L2.75 -5.85 2.45 -6.4 1.65 -6.55 0.85 -6.3 Q0.5 -6.05 0.5 -5.7"/></g><g id="c14"><path fill="#130813" stroke="none" d="M2.55 -6.2 L2.5 -5.7 2.3 -5.45 Q2.15 -5.4 2.1 -5.55 1.95 -5.75 1.95 -6.05 1.9 -6.35 2.0 -6.55 L2.2 -6.85 2.4 -6.7 2.55 -6.2"/><path fill="none" stroke="#000000" stroke-width="0.5" stroke-opacity="0.301960784314" d="M2.55 -6.2 L2.5 -5.7 2.3 -5.45 Q2.15 -5.4 2.1 -5.55 1.95 -5.75 1.95 -6.05 1.9 -6.35 2.0 -6.55 L2.2 -6.85 2.4 -6.7 2.55 -6.2"/></g><g id="c15"><path fill="#493e47" stroke="none" d="M-0.85 -6.3 Q-0.25 -7.9 0.95 -8.5 2.35 -9.1 3.65 -6.45 L-0.85 -6.3"/><path fill="none" stroke="#000000" stroke-width="0.5" stroke-opacity="0.301960784314" d="M3.65 -6.45 L-0.85 -6.3"/></g><g id="c16"><path fill="#2a2229" stroke="none" d="M-0.65 -6.0 Q-0.05 -4.5 0.8 -4.05 2.2 -3.3 3.55 -5.8 1.9 -4.55 1.0 -4.7 0.25 -5.0 -0.65 -6.0"/><path fill="none" stroke="#000000" stroke-width="0.5" stroke-opacity="0.301960784314" d="M-0.65 -6.0 Q0.25 -5.0 1.0 -4.7 1.9 -4.55 3.55 -5.8"/></g><g id="c17"><path fill="#d3c1d3" stroke="none" d="M6.8 -10.1 L6.35 -7.25 Q5.8 -6.5 5.1 -6.55 L5.0 -7.35 Q5.9 -9.35 6.8 -10.1"/><path fill="none" stroke="#000000" stroke-width="0.5" stroke-opacity="0.301960784314" d="M6.8 -10.1 Q5.9 -9.35 5.0 -7.35 L5.1 -6.55 Q5.8 -6.5 6.35 -7.25 L6.8 -10.1"/></g><g id="c18"><path fill="#fae6f6" stroke="none" d="M5.3 -7.3 Q5.3 -6.95 5.5 -6.95 5.6 -6.85 5.85 -7.1 L6.3 -7.8 6.5 -8.5 6.3 -8.9 5.9 -8.7 5.5 -8.05 5.3 -7.3"/></g><g id="c19"><path fill="#130813" stroke="none" d="M5.35 -7.8 L5.4 -7.35 5.5 -7.25 5.65 -7.55 5.7 -8.1 5.65 -8.55 5.5 -8.65 5.4 -8.35 5.35 -7.8"/><path fill="none" stroke="#000000" stroke-width="0.5" stroke-opacity="0.301960784314" d="M5.35 -7.8 L5.4 -7.35 5.5 -7.25 5.65 -7.55 5.7 -8.1 5.65 -8.55 5.5 -8.65 5.4 -8.35 5.35 -7.8"/></g><g id="c20"><path fill="#493e47" stroke="none" d="M4.95 -7.1 Q5.0 -10.3 5.6 -10.65 6.15 -11.05 6.85 -10.05 5.85 -9.45 4.95 -7.1"/><path fill="none" stroke="#000000" stroke-width="0.5" stroke-opacity="0.301960784314" d="M4.95 -7.1 Q5.85 -9.45 6.85 -10.05"/></g><g id="c21"><path fill="#2a2229" stroke="none" d="M6.8 -9.6 Q6.8 -7.75 6.3 -6.45 5.75 -5.15 5.0 -6.6 5.9 -6.75 6.3 -7.4 L6.8 -9.6"/><path fill="none" stroke="#000000" stroke-width="0.5" stroke-opacity="0.301960784314" d="M6.8 -9.6 L6.3 -7.4 Q5.9 -6.75 5.0 -6.6"/></g><g id="c22"><path fill="#130813" stroke="none" d="M6.85 -10.05 L7.0 -10.45 6.75 -10.1 5.85 -9.35 5.3 -8.45 4.9 -7.1 Q5.75 -9.1 6.85 -10.05"/></g><g id="c23"><path fill="#130813" stroke="none" d="M-0.7 -6.1 Q-0.2 -6.4 0.55 -6.5 L2.3 -6.5 3.75 -6.35 2.8 -6.7 1.3 -6.95 Q0.1 -6.95 -0.85 -6.35 L-1.5 -6.4 Q-1.25 -6.15 -0.7 -6.1"/></g><g id="c24"><path fill="#000504" stroke="none" d="M-0.75 -16.45 L-1.25 -16.45 -2.2 -16.3 -3.85 -15.6 Q0.35 -15.8 2.8 -12.95 2.85 -13.85 2.0 -14.95 L0.0 -16.4 -0.05 -16.45 -0.75 -16.45 M0.9 -16.25 L0.3 -16.35 0.4 -16.35 0.9 -16.25"/></g><g id="c25"><g><use transform="matrix(1.0,0.0,0.0,1.0,0.0,0.0)" xlink:href="#c1"/></g><g><use transform="matrix(1.0,0.0,0.0,1.0,0.0,0.0)" xlink:href="#c2"/></g><g><use transform="matrix(1.0,0.0,0.0,1.0,0.0,0.0)" xlink:href="#c3"/></g><g><use transform="matrix(1.0,0.0,0.0,1.0,0.0,0.0)" xlink:href="#c4"/></g><g><use transform="matrix(1.0,0.0,0.0,1.0,0.0,0.0)" xlink:href="#c5"/></g><g><use transform="matrix(1.0,0.0,0.0,1.0,0.0,0.0)" xlink:href="#c6"/></g><g><use transform="matrix(1.0,0.0,0.0,1.0,0.0,0.0)" xlink:href="#c7"/></g><g><use transform="matrix(1.0,0.0,0.0,1.0,0.0,0.0)" xlink:href="#c8"/></g><g><use transform="matrix(1.0,0.0,0.0,1.0,0.0,0.0)" xlink:href="#c9"/></g><g><use transform="matrix(1.0,0.0,0.0,1.0,0.0,0.0)" xlink:href="#c10"/></g><g><use transform="matrix(1.0,0.0,0.0,1.0,0.0,0.0)" xlink:href="#c11"/></g><g><use transform="matrix(1.0,0.0,0.0,1.0,0.0,0.0)" xlink:href="#c12"/></g><g><use transform="matrix(1.0,0.0,0.0,1.0,0.0,0.0)" xlink:href="#c13"/></g><g><use transform="matrix(1.0,0.0,0.0,1.0,0.0,0.0)" xlink:href="#c14"/></g><g><use transform="matrix(1.0,0.0,0.0,1.0,0.0,0.0)" xlink:href="#c15"/></g><g><use transform="matrix(1.0,0.0,0.0,1.0,0.0,0.0)" xlink:href="#c16"/></g><g><use transform="matrix(1.0,0.0,0.0,1.0,0.0,0.0)" xlink:href="#c17"/></g><g><use transform="matrix(1.0,0.0,0.0,1.0,0.0,0.0)" xlink:href="#c18"/></g><g><use transform="matrix(1.0,0.0,0.0,1.0,0.0,0.0)" xlink:href="#c19"/></g><g><use transform="matrix(1.0,0.0,0.0,1.0,0.0,0.0)" xlink:href="#c20"/></g><g><use transform="matrix(1.0,0.0,0.0,1.0,0.0,0.0)" xlink:href="#c21"/></g><g><use transform="matrix(1.0,0.0,0.0,1.0,0.0,0.0)" xlink:href="#c22"/></g><g><use transform="matrix(1.0,0.0,0.0,1.0,0.0,0.0)" xlink:href="#c23"/></g><g><use transform="matrix(1.0,0.0,0.0,1.0,0.0,0.0)" xlink:href="#c24"/></g></g><g id="c26"><path fill="#6b6a70" stroke="none" d="M-1.95 -4.25 L1.35 -4.15 1.5 -5.0 Q1.9 -7.85 -1.15 -7.7 -4.4 -8.55 -2.9 -6.45 -2.4 -6.0 -1.95 -4.25"/><path fill="#1c1c1d" stroke="none" d="M1.35 -4.15 L-1.95 -4.25 -1.9 -4.05 Q-1.45 -2.15 -1.5 -0.5 L2.0 -0.65 Q1.25 -1.85 1.35 -4.15"/><path fill="none" stroke="#000000" stroke-width="0.5" stroke-opacity="0.301960784314" d="M1.35 -4.15 L-1.95 -4.25 Q-2.4 -6.0 -2.9 -6.45 -4.4 -8.55 -1.15 -7.7 1.9 -7.85 1.5 -5.0 L1.35 -4.15 Q1.25 -1.85 2.0 -0.65 M-1.5 -0.5 Q-1.45 -2.15 -1.9 -4.05 L-1.95 -4.25 -2.1 -4.4"/></g><g id="c27"><g><use transform="matrix(1.0,0.0,0.0,1.0,0.0,0.0)" xlink:href="#c26"/></g></g><g id="c28"><path fill="#150803" stroke="none" d="M1.2 -0.3 Q1.45 -3.25 2.5 -5.75 4.55 -8.3 5.25 -10.4 5.3 -12.65 4.1 -14.5 1.85 -15.55 -0.35 -13.45 -1.5 -11.25 -1.1 -9.85 -0.75 -8.45 -0.65 -5.0 -0.55 -2.3 -1.05 -0.3 0.1 0.45 1.2 -0.3"/><path fill="none" stroke="#000000" stroke-width="0.5" stroke-opacity="0.301960784314" d="M1.2 -0.3 Q1.45 -3.25 2.5 -5.75 4.55 -8.3 5.25 -10.4 5.3 -12.65 4.1 -14.5 1.85 -15.55 -0.35 -13.45 -1.5 -11.25 -1.1 -9.85 -0.75 -8.45 -0.65 -5.0 -0.55 -2.3 -1.05 -0.3"/></g><g id="c29"><g><use transform="matrix(1.0,0.0,0.0,1.0,0.0,0.0)" xlink:href="#c28"/></g></g><g id="c30"><path fill="#150803" stroke="none" d="M-1.85 0.0 Q-3.6 2.35 -3.65 5.4 -3.65 8.4 -2.8 15.0 L0.85 15.25 Q4.85 6.55 3.2 2.5 -0.55 1.45 -1.85 0.0"/><path fill="none" stroke="#000000" stroke-width="0.5" stroke-opacity="0.301960784314" d="M3.2 2.5 Q4.85 6.55 0.85 15.25 L-2.8 15.0 Q-3.65 8.4 -3.65 5.4 -3.6 2.35 -1.85 0.0"/><path fill="#1b1a1b" stroke="none" d="M0.8 3.05 Q-1.7 1.2 -2.0 3.45 -2.3 5.65 -0.8 9.15 0.75 12.65 2.05 8.75 3.3 4.9 0.8 3.05"/></g><g id="c31"><g><use transform="matrix(1.0,0.0,0.0,1.0,0.0,0.0)" xlink:href="#c30"/></g></g><g id="c32"><path fill="#150803" stroke="none" d="M-2.6 14.65 Q-1.75 11.95 -2.8 9.2 -3.9 6.4 -2.8 -0.05 L-2.45 -0.2 2.25 0.4 3.15 3.2 Q3.7 5.4 3.0 8.5 2.3 11.65 0.65 14.85 L-2.6 14.65"/><path fill="none" stroke="#000000" stroke-width="0.5" stroke-opacity="0.301960784314" d="M0.65 14.85 Q2.3 11.65 3.0 8.5 3.7 5.4 3.15 3.2 L2.25 0.4 -2.45 -0.2 -2.8 -0.05 Q-3.9 6.4 -2.8 9.2 -1.75 11.95 -2.6 14.65"/><path fill="#1b1a1b" stroke="none" d="M-0.15 5.75 Q-0.35 6.45 -0.15 7.4 L0.6 9.25 Q1.15 10.3 1.65 10.2 2.4 10.0 2.95 6.9 3.35 5.3 3.1 4.4 2.85 3.35 1.9 3.25 0.25 4.0 -0.15 5.75"/></g><g id="c33"><g><use transform="matrix(1.0,0.0,0.0,1.0,0.0,0.0)" xlink:href="#c32"/></g></g><g id="c34"><path fill="#150803" stroke="none" d="M0.75 0.0 Q0.55 -2.6 1.05 -4.8 2.65 -7.35 2.9 -9.4 2.5 -12.5 0.3 -13.55 -0.85 -13.6 -1.95 -12.15 -3.05 -10.75 -2.85 -9.2 -2.7 -7.7 -1.75 -5.35 L-1.5 0.0 0.75 0.0"/><path fill="none" stroke="#000000" stroke-width="0.5" stroke-opacity="0.301960784314" d="M0.75 0.0 Q0.55 -2.6 1.05 -4.8 2.65 -7.35 2.9 -9.4 2.5 -12.5 0.3 -13.55 -0.85 -13.6 -1.95 -12.15 -3.05 -10.75 -2.85 -9.2 -2.7 -7.7 -1.75 -5.35 L-1.5 0.0"/></g><g id="c35"><g><use transform="matrix(1.0,0.0,0.0,1.0,0.0,0.0)" xlink:href="#c34"/></g></g><radialGradient gradientUnits="userSpaceOnUse" r="819.2" cx="0" cy="0" spreadMethod="pad" gradientTransform="matrix(0.0230712890625,0.0,0.0,0.0230712890625,0.0,0.0)" id="gradient2"><stop offset="0.172549019608" stop-opacity="0.572549019608"/><stop offset="0.972549019608" stop-opacity="0.0"/></radialGradient><g id="c36"><path stroke="none" fill="url(#gradient2)" d="M12.7 -12.75 Q18.0 -7.45 18.0 0.0 18.0 7.45 12.7 12.7 7.45 18.0 0.0 18.0 -7.45 18.0 -12.75 12.7 -18.0 7.45 -18.0 0.0 -18.0 -7.45 -12.75 -12.75 -7.45 -18.0 0.0 -18.0 7.45 -18.0 12.7 -12.75"/></g><g id="c37"><g><use transform="matrix(1.0,0.0,0.0,1.0,0.0,0.0)" xlink:href="#c36"/></g></g><g id="c38"><path fill="#1b1a1b" stroke="none" d="M-2.6 3.55 Q-2.6 2.35 -1.9 1.5 -1.15 0.7 -0.7 0.65 -0.1 -0.6 0.6 0.3 1.25 2.25 1.35 4.2 1.5 6.1 1.1 6.3 L0.1 6.8 Q0.35 6.35 -0.25 5.75 L-0.15 5.65 0.05 5.2 Q0.2 4.9 -0.05 4.7 L0.0 4.4 0.1 4.2 -1.3 4.0 -1.4 4.2 -1.7 4.2 Q-1.7 3.9 -2.0 3.95 -1.95 3.5 -2.6 3.55 M0.65 2.9 L0.3 3.35 0.1 4.2 0.3 3.35 0.65 2.9 M-1.75 2.45 Q-1.95 3.2 -1.3 3.8 L-1.3 4.0 -1.3 3.8 Q-1.95 3.2 -1.75 2.45 M0.45 5.8 L-0.15 5.65 0.45 5.8"/><path fill="#cccccc" stroke="none" d="M-2.6 3.55 Q-1.95 3.5 -2.0 3.95 -1.7 3.9 -1.7 4.2 L-1.4 4.2 -1.3 4.0 0.1 4.2 0.0 4.4 -0.05 4.7 -0.3 5.25 -1.35 5.35 -1.75 5.05 Q-2.15 5.75 -2.35 6.6 -2.15 5.75 -1.75 5.05 L-1.95 4.95 -2.4 4.7 Q-2.7 4.55 -2.4 4.35 L-2.0 4.15 -1.7 4.2 -2.0 4.15 -2.4 4.35 Q-2.7 4.55 -2.4 4.7 L-1.95 4.95 -1.75 5.05 -1.35 5.35 -0.3 5.25 -0.05 4.7 Q0.2 4.9 0.05 5.2 L-0.15 5.65 -0.25 5.75 -0.5 5.9 -0.85 6.15 Q-0.8 6.5 -1.05 6.8 -0.8 6.5 -0.85 6.15 L-0.5 5.9 -0.25 5.75 Q0.35 6.35 0.1 6.8 L-1.5 7.35 Q-2.0 7.25 -2.3 6.8 L-2.35 6.6 -2.8 6.1 -3.35 5.6 Q-3.75 5.15 -3.65 4.75 L-3.4 4.05 -2.95 3.7 -2.6 3.55 M-3.2 5.35 L-2.9 4.4 Q-2.3 3.95 -2.0 3.95 -2.3 3.95 -2.9 4.4 L-3.2 5.35 M-1.4 4.2 L-1.35 4.5 -1.4 4.2"/><path fill="none" stroke="#000000" stroke-width="0.5" stroke-opacity="0.301960784314" d="M0.1 6.8 L1.1 6.3 Q1.5 6.1 1.35 4.2 1.25 2.25 0.6 0.3 -0.1 -0.6 -0.7 0.65 -1.15 0.7 -1.9 1.5 -2.6 2.35 -2.6 3.55 -1.95 3.5 -2.0 3.95 -1.7 3.9 -1.7 4.2 L-1.4 4.2 -1.3 4.0 -1.3 3.8 Q-1.95 3.2 -1.75 2.45 M0.1 4.2 L0.3 3.35 0.65 2.9 M-0.05 4.7 L0.0 4.4 0.1 4.2 -1.3 4.0 M-2.0 3.95 Q-2.3 3.95 -2.9 4.4 L-3.2 5.35 M-2.6 3.55 L-2.95 3.7 -3.4 4.05 -3.65 4.75 Q-3.75 5.15 -3.35 5.6 L-2.8 6.1 -2.35 6.6 Q-2.15 5.75 -1.75 5.05 L-1.95 4.95 -2.4 4.7 Q-2.7 4.55 -2.4 4.35 L-2.0 4.15 -1.7 4.2 M-1.35 4.5 L-1.4 4.2 M-1.75 5.05 L-1.35 5.35 -0.3 5.25 -0.05 4.7 Q0.2 4.9 0.05 5.2 L-0.15 5.65 0.45 5.8 M-1.05 6.8 Q-0.8 6.5 -0.85 6.15 L-0.5 5.9 -0.25 5.75 -0.15 5.65 M-2.35 6.6 L-2.3 6.8 Q-2.0 7.25 -1.5 7.35 L0.1 6.8 Q0.35 6.35 -0.25 5.75"/></g><g id="c39"><g><use transform="matrix(1.0,0.0,0.0,1.0,0.0,0.0)" xlink:href="#c38"/></g></g><g id="c40"><path fill="#1c1c1d" stroke="none" d="M-1.2 0.35 L-1.55 2.4 -1.15 4.75 Q-0.15 7.9 -0.4 9.1 -0.65 10.3 -0.85 10.45 -0.35 11.2 0.95 11.0 1.2 8.8 1.6 7.1 L2.15 3.45 Q2.05 2.1 1.2 -0.1 -0.1 -0.4 -1.2 0.35"/><path fill="none" stroke="#000000" stroke-width="0.5" stroke-opacity="0.301960784314" d="M-0.85 10.45 Q-0.65 10.3 -0.4 9.1 -0.15 7.9 -1.15 4.75 L-1.55 2.4 -1.2 0.35 M1.2 -0.1 Q2.05 2.1 2.15 3.45 L1.6 7.1 Q1.2 8.8 0.95 11.0"/></g><g id="c41"><g><use transform="matrix(1.0,0.0,0.0,1.0,0.0,0.0)" xlink:href="#c40"/></g></g><g id="c42"><path fill="#1c1c1d" stroke="none" d="M0.25 -0.1 Q-1.35 0.2 -1.65 2.6 L-1.1 4.15 -0.95 7.35 -1.3 12.65 Q-1.2 14.0 0.05 13.65 1.3 13.25 1.55 11.45 L1.95 7.8 1.8 5.0 Q3.15 2.25 2.5 1.0 1.75 0.4 0.25 -0.1"/><path fill="none" stroke="#000000" stroke-width="0.5" stroke-opacity="0.301960784314" d="M0.25 -0.1 Q1.75 0.4 2.5 1.0 3.15 2.25 1.8 5.0 L1.95 7.8 1.55 11.45 Q1.3 13.25 0.05 13.65 -1.2 14.0 -1.3 12.65 L-0.95 7.35 -1.1 4.15 -1.65 2.6 Q-1.35 0.2 0.25 -0.1"/></g><g id="c43"><g><use transform="matrix(1.0,0.0,0.0,1.0,0.0,0.0)" xlink:href="#c42"/></g></g><g id="c44"><path fill="#543c21" stroke="none" d="M2.75 -4.05 Q1.8 -4.1 1.45 -5.3 0.25 -5.9 -1.5 -5.3 L-2.65 -4.35 -3.15 -3.05 -2.1 -2.1 -1.6 -0.35 -1.35 -0.15 Q0.35 0.05 1.65 -0.65 1.15 -2.5 2.75 -4.05 M4.6 -1.65 L4.65 -2.3 4.65 -2.45 Q4.55 -2.1 4.6 -1.65"/><path fill="#462e11" stroke="none" d="M2.75 -4.05 Q1.15 -2.5 1.65 -0.65 0.35 0.05 -1.35 -0.15 L0.45 0.15 2.25 -0.3 3.6 -0.25 Q4.0 -0.35 4.3 -0.7 L4.6 -1.65 Q4.55 -2.1 4.65 -2.45 4.65 -4.2 3.25 -4.05 L2.75 -4.05"/><path fill="none" stroke="#000000" stroke-width="0.5" stroke-opacity="0.301960784314" d="M-1.35 -0.15 L-1.6 -0.35 -2.1 -2.1 -3.15 -3.05 -2.65 -4.35 -1.5 -5.3 Q0.25 -5.9 1.45 -5.3 1.8 -4.1 2.75 -4.05 M-1.35 -0.15 L0.45 0.15 2.25 -0.3 3.6 -0.25 Q4.0 -0.35 4.3 -0.7 L4.6 -1.65 4.65 -2.3 4.65 -2.45 Q4.65 -4.2 3.25 -4.05 L2.75 -4.05"/><path fill="#543c21" stroke="none" d="M5.75 -4.05 L5.65 -4.1 2.95 -4.7 2.7 -4.5 2.6 -4.4 Q2.1 -3.65 1.95 -3.0 1.7 -1.8 2.55 -0.7 3.6 -0.5 4.35 -0.7 L4.8 -0.85 4.65 -1.6 4.65 -2.45 Q4.9 -3.35 5.75 -4.05"/><path fill="#462e11" stroke="none" d="M5.75 -4.05 Q4.9 -3.35 4.65 -2.45 L4.65 -1.6 4.8 -0.85 4.35 -0.7 Q3.6 -0.5 2.55 -0.7 L2.9 -0.25 2.95 -0.15 3.2 0.05 6.05 -0.55 Q6.55 -0.8 6.75 -1.35 L6.9 -2.15 Q6.95 -3.6 5.75 -4.05"/><path fill="none" stroke="#000000" stroke-width="0.5" stroke-opacity="0.301960784314" d="M2.55 -0.7 Q1.7 -1.8 1.95 -3.0 2.1 -3.65 2.6 -4.4 L2.7 -4.5 2.95 -4.7 5.65 -4.1 5.75 -4.05 M2.55 -0.7 L2.9 -0.25 2.95 -0.15 3.2 0.05 6.05 -0.55 Q6.55 -0.8 6.75 -1.35 L6.9 -2.15 Q6.95 -3.6 5.75 -4.05"/><path fill="#543c21" stroke="none" d="M8.9 -3.6 L5.6 -4.3 5.4 -4.05 4.8 -2.9 Q4.6 -1.95 5.1 -1.15 L8.25 -1.55 8.2 -1.7 Q8.0 -2.5 8.9 -3.6"/><path fill="#462e11" stroke="none" d="M8.9 -3.6 Q8.0 -2.5 8.2 -1.7 L8.25 -1.55 5.1 -1.15 5.8 -0.5 6.05 -0.25 7.35 -0.8 8.95 -1.4 9.45 -1.85 9.65 -2.75 8.9 -3.6"/><path fill="none" stroke="#000000" stroke-width="0.5" stroke-opacity="0.301960784314" d="M5.1 -1.15 Q4.6 -1.95 4.8 -2.9 L5.4 -4.05 5.6 -4.3 8.9 -3.6 M5.1 -1.15 L5.8 -0.5 6.05 -0.25 7.35 -0.8 8.95 -1.4 9.45 -1.85 9.65 -2.75 8.9 -3.6"/><path fill="#543c21" stroke="none" d="M11.85 -2.35 L12.7 -2.65 9.0 -3.65 8.8 -3.75 8.7 -3.55 8.45 -2.95 Q8.25 -2.2 8.55 -1.75 L9.45 -1.85 11.85 -2.35"/><path fill="#462e11" stroke="none" d="M11.85 -2.35 L9.45 -1.85 8.55 -1.75 8.75 -1.4 8.9 -1.2 11.85 -2.35"/><path fill="none" stroke="#000000" stroke-width="0.5" stroke-opacity="0.301960784314" d="M8.55 -1.75 Q8.25 -2.2 8.45 -2.95 L8.7 -3.55 8.8 -3.75 9.0 -3.65 12.7 -2.65 11.85 -2.35 M8.55 -1.75 L8.75 -1.4 8.9 -1.2 11.85 -2.35"/><path fill="#dbb45c" fill-opacity="0.298039215686" d="M3.2 -4.6 Q2.0 -3.65 2.65 -1.95 L4.6 -2.05 Q4.4 -3.3 5.15 -4.15 3.8 -3.95 3.2 -4.6"/><path fill="#dbb45c" fill-opacity="0.298039215686" d="M5.45 -2.1 L8.2 -2.2 Q8.2 -3.15 8.55 -3.65 7.15 -3.4 6.05 -4.2 5.1 -3.4 5.45 -2.1"/><path fill="#dbb45c" fill-opacity="0.298039215686" d="M12.25 -2.85 L9.05 -3.45 Q8.65 -3.0 9.0 -2.35 9.6 -2.8 12.25 -2.85"/></g><g id="c45"><g><use transform="matrix(1.0,0.0,0.0,1.0,0.0,0.0)" xlink:href="#c44"/></g></g><g id="c46"><path fill="#543c21" stroke="none" d="M1.6 -1.25 Q0.9 -0.45 -0.4 -0.45 L-1.55 -1.2 -1.9 -0.95 Q-1.8 -0.05 -0.35 1.2 1.45 1.35 1.9 0.05 2.0 -0.5 1.6 -1.25"/><path fill="none" stroke="#000000" stroke-width="0.5" stroke-opacity="0.301960784314" d="M1.6 -1.25 Q0.9 -0.45 -0.4 -0.45 L-1.55 -1.2"/><path fill="#dbb45c" fill-opacity="0.298039215686" d="M1.85 -1.25 Q1.35 -0.3 -0.7 -0.35 0.5 0.15 1.45 0.0 1.9 -0.7 1.85 -1.25"/></g><g id="c47"><g><use transform="matrix(1.0,0.0,0.0,1.0,0.0,0.0)" xlink:href="#c46"/></g></g><radialGradient gradientUnits="userSpaceOnUse" r="819.2" cx="0" cy="0" spreadMethod="pad" gradientTransform="matrix(-0.00286865234375,0.000167846679688,-0.00042724609375,0.00485229492188,3.1,-6.95)" id="gradient3"><stop offset="0.596078431373" stop-color="#8d6934"/><stop offset="0.901960784314" stop-color="#694c28"/></radialGradient><g id="c48"><path fill="#171c16" stroke="none" d="M1.9 -6.1 L0.75 -4.8 -0.6 -3.25 Q-3.1 -4.75 -4.0 -6.65 -2.45 -7.25 -1.2 -8.55 -1.05 -7.3 0.4 -7.1 1.9 -6.9 1.9 -6.1"/><path fill="#21271f" stroke="none" d="M1.9 -6.1 Q1.9 -6.9 0.4 -7.1 -1.05 -7.3 -1.2 -8.55 L-1.2 -8.6 Q1.65 -12.15 3.4 -12.5 4.0 -11.7 4.05 -10.1 3.75 -8.9 2.55 -7.55 L1.9 -6.1"/><path fill="none" stroke="#000000" stroke-width="0.5" stroke-opacity="0.301960784314" d="M-1.2 -8.55 Q-2.45 -7.25 -4.0 -6.65 -3.1 -4.75 -0.6 -3.25 L0.75 -4.8 1.9 -6.1 M-1.2 -8.55 L-1.2 -8.6 Q1.65 -12.15 3.4 -12.5 4.0 -11.7 4.05 -10.1 3.75 -8.9 2.55 -7.55 L1.9 -6.1"/><path fill="#77582b" stroke="none" d="M3.65 -8.55 Q3.25 -9.25 2.5 -9.4 1.05 -7.25 -1.35 -5.15 L-1.55 -3.95 -0.85 -1.45 Q0.0 -0.65 1.4 0.0 L2.0 -1.5 1.8 -2.5 Q2.55 -3.25 2.8 -4.2 L2.75 -6.2 Q3.6 -7.6 3.65 -8.55"/><path fill="none" stroke="#000000" stroke-width="0.5" stroke-opacity="0.301960784314" d="M3.65 -8.55 Q3.25 -9.25 2.5 -9.4 1.05 -7.25 -1.35 -5.15 L-1.55 -3.95 -0.85 -1.45 Q0.0 -0.65 1.4 0.0 L2.0 -1.5 1.8 -2.5 Q2.55 -3.25 2.8 -4.2 L2.75 -6.2 Q3.6 -7.6 3.65 -8.55"/><path fill="#7b592f" stroke="none" d="M-1.1 -5.05 L-1.15 -5.1 Q-0.75 -2.6 1.2 -1.35 1.8 -2.2 1.7 -3.4 L-1.1 -5.05"/><path stroke="none" fill="url(#gradient3)" d="M3.45 -5.1 Q3.5 -6.65 2.8 -7.65 1.75 -6.6 -0.8 -5.05 L-0.8 -4.7 -0.7 -4.05 Q2.6 -3.0 3.45 -5.1"/><path fill="#3c250e" stroke="none" d="M-0.7 -4.05 Q-0.4 -2.45 1.4 -1.6 2.9 -2.65 3.4 -4.35 L3.45 -5.1 Q2.6 -3.0 -0.7 -4.05"/><path fill="none" stroke="#000000" stroke-width="0.5" stroke-opacity="0.301960784314" d="M3.45 -5.1 Q3.5 -6.65 2.8 -7.65 1.75 -6.6 -0.8 -5.05 L-0.8 -4.7 -0.7 -4.05 Q-0.4 -2.45 1.4 -1.6 2.9 -2.65 3.4 -4.35 L3.45 -5.1"/><path fill="#77582b" stroke="none" d="M-1.15 -4.35 L-0.85 -3.65 -0.2 -3.4 0.3 -3.75 0.5 -4.45 0.25 -5.15 -0.35 -5.4 -0.9 -5.05 -1.15 -4.35"/><path fill="none" stroke="#000000" stroke-width="0.5" stroke-opacity="0.301960784314" d="M-1.15 -4.35 L-0.85 -3.65 -0.2 -3.4 0.3 -3.75 0.5 -4.45 0.25 -5.15 -0.35 -5.4 -0.9 -5.05 -1.15 -4.35"/><path fill="#c9a24c" fill-opacity="0.498039215686" d="M0.75 -7.1 L-0.55 -5.7 Q1.15 -6.3 2.05 -7.95 3.0 -9.55 2.3 -8.75 L0.75 -7.1"/><path fill="#c9a24c" fill-opacity="0.498039215686" d="M2.85 -6.25 L3.05 -5.45 2.85 -4.6 2.4 -4.1 Q2.1 -4.05 1.9 -4.35 L1.7 -5.15 1.9 -6.05 2.35 -6.55 Q2.65 -6.6 2.85 -6.25"/></g><g id="c49"><g><use transform="matrix(1.0,0.0,0.0,1.0,0.0,0.0)" xlink:href="#c48"/></g></g><g id="c50"><path fill="#765431" stroke="none" d="M0.4 0.4 Q-0.2 1.45 -0.8 1.45 -1.3 0.8 -0.75 -0.95 0.15 -1.7 0.85 -1.3 1.35 -1.05 0.4 0.4"/><path fill="none" stroke="#000000" stroke-width="0.5" stroke-opacity="0.301960784314" d="M0.4 0.4 Q-0.2 1.45 -0.8 1.45 -1.3 0.8 -0.75 -0.95 0.15 -1.7 0.85 -1.3 1.35 -1.05 0.4 0.4"/></g><g id="c51"><g><use transform="matrix(1.0,0.0,0.0,1.0,0.0,0.0)" xlink:href="#c50"/></g></g><g id="c52"><path fill="#9e753a" stroke="none" d="M-0.65 -1.75 Q-1.7 -1.3 -2.2 -0.5 -2.75 0.3 -2.45 0.95 -2.15 1.65 -1.2 1.8 -0.25 1.95 0.75 1.5 1.75 1.05 2.3 0.25 2.8 -0.55 2.5 -1.2 2.2 -1.9 1.25 -2.05 L-0.65 -1.75"/><path fill="none" stroke="#000000" stroke-width="0.5" stroke-opacity="0.301960784314" d="M-0.65 -1.75 L1.25 -2.05 Q2.2 -1.9 2.5 -1.2 2.8 -0.55 2.3 0.25 1.75 1.05 0.75 1.5 -0.25 1.95 -1.2 1.8 -2.15 1.65 -2.45 0.95 -2.75 0.3 -2.2 -0.5 -1.7 -1.3 -0.65 -1.75"/><path fill="#e6d27d" stroke="none" d="M-0.25 -1.75 Q-1.8 -1.4 -2.35 -0.25 -2.85 0.85 -1.85 2.05 -2.15 0.7 -1.7 -0.2 -1.3 -1.05 -0.25 -1.75"/></g><g id="c53"><g><use transform="matrix(1.0,0.0,0.0,1.0,0.0,0.0)" xlink:href="#c52"/></g></g><radialGradient gradientUnits="userSpaceOnUse" r="819.2" cx="0" cy="0" spreadMethod="pad" gradientTransform="matrix(-0.00759887695312,0.0,-0.000701904296875,0.00531005859375,-0.5,-4.3)" id="gradient4"><stop offset="0.525490196078" stop-color="#1c1c1d"/><stop offset="0.874509803922" stop-color="#150803"/></radialGradient><g id="c54"><path fill="#150803" stroke="none" d="M3.3 -5.8 L3.65 -8.0 -3.65 -5.6 Q-2.65 -4.35 -2.3 -3.35 -1.35 -2.95 0.35 -4.65 1.95 -6.35 3.3 -5.8"/><path stroke="none" fill="url(#gradient4)" d="M3.3 -5.8 Q1.95 -6.35 0.35 -4.65 -1.35 -2.95 -2.3 -3.35 L-2.1 -2.7 Q-2.0 -1.5 -2.5 -0.9 L-0.95 0.0 Q1.55 -0.4 3.25 -1.65 L3.15 -5.0 3.3 -5.8"/><path fill="none" stroke="#000000" stroke-width="0.5" stroke-opacity="0.301960784314" d="M-2.3 -3.35 Q-2.65 -4.35 -3.65 -5.6 L3.65 -8.0 3.3 -5.8 M-2.3 -3.35 L-2.1 -2.7 Q-2.0 -1.5 -2.5 -0.9 M3.25 -1.65 L3.15 -5.0 3.3 -5.8"/></g><g id="c55"><g><use transform="matrix(1.0,0.0,0.0,1.0,0.0,0.0)" xlink:href="#c54"/></g></g><g id="c56"><path fill="#1c1c1d" stroke="none" d="M4.75 -9.8 Q4.6 -9.15 5.05 -8.4 6.4 -6.1 6.05 -2.45 2.7 -2.05 -0.45 0.0 -1.95 -0.65 -3.0 -1.8 -7.6 -8.15 -5.4 -9.2 -2.1 -10.55 0.4 -10.55 1.9 -11.4 3.15 -11.4 L4.75 -9.8"/><path fill="none" stroke="#000000" stroke-width="0.5" stroke-opacity="0.301960784314" d="M4.75 -9.8 Q4.6 -9.15 5.05 -8.4 6.4 -6.1 6.05 -2.45 2.7 -2.05 -0.45 0.0 -1.95 -0.65 -3.0 -1.8 -7.6 -8.15 -5.4 -9.2 -2.1 -10.55 0.4 -10.55 1.9 -11.4 3.15 -11.4"/><path fill="#0c0b0c" stroke="none" d="M-2.05 -7.35 L-5.95 -7.2 Q-3.25 -0.45 -2.65 -3.35 -2.05 -6.25 -2.05 -7.35"/><path fill="none" stroke="#000000" stroke-width="0.5" stroke-opacity="0.301960784314" d="M-2.05 -7.35 L-5.95 -7.2 Q-3.25 -0.45 -2.65 -3.35 -2.05 -6.25 -2.05 -7.35"/></g><g id="c57"><g><use transform="matrix(1.0,0.0,0.0,1.0,0.0,0.0)" xlink:href="#c56"/></g></g><radialGradient gradientUnits="userSpaceOnUse" r="819.2" cx="0" cy="0" spreadMethod="pad" gradientTransform="matrix(-0.00437927246094,0.0,0.0,0.00437927246094,-1.9,1.25)" id="gradient5"><stop offset="0.38431372549" stop-color="#c09848"/><stop offset="0.858823529412" stop-color="#856230"/></radialGradient><radialGradient gradientUnits="userSpaceOnUse" r="819.2" cx="0" cy="0" spreadMethod="pad" gradientTransform="matrix(0.00401306152344,0.0,0.0,0.00401306152344,2.55,0.05)" id="gradient6"><stop offset="0.38431372549" stop-color="#c09848"/><stop offset="0.858823529412" stop-color="#856230"/></radialGradient><g id="c58"><path fill="#e6d27d" stroke="none" d="M2.7 -1.35 Q3.05 -1.3 3.7 -0.55 L2.8 -0.75 2.35 -0.2 Q1.85 0.45 1.0 0.75 1.6 -1.25 2.7 -1.35"/><path fill="#9e753a" stroke="none" d="M-0.15 -0.95 L-0.25 -1.0 -0.15 -0.95 M-0.25 -1.0 Q-0.15 -1.55 0.15 -1.75 1.1 -1.7 2.05 -0.65 1.9 1.8 -2.25 1.35 -2.35 -0.3 -1.8 -1.1 L-0.25 -1.0"/><path fill="none" stroke="#000000" stroke-width="0.5" stroke-opacity="0.301960784314" d="M-0.25 -1.0 L-0.15 -0.95 M-0.25 -1.0 Q-0.15 -1.55 0.15 -1.75 1.1 -1.7 2.05 -0.65 1.9 1.8 -2.25 1.35 -2.35 -0.3 -1.8 -1.1 L-0.25 -1.0"/><path fill="#9e753a" stroke="none" d="M2.75 3.05 Q2.9 1.15 1.7 -0.15 0.1 1.2 -1.9 1.3 -1.5 3.5 -0.05 4.15 1.45 3.05 2.75 3.05"/><path fill="none" stroke="#000000" stroke-width="0.5" stroke-opacity="0.301960784314" d="M2.75 3.05 Q1.45 3.05 -0.05 4.15"/><path fill="#633b1a" stroke="none" d="M1.95 1.65 Q1.0 2.65 -0.5 2.65 -0.05 2.95 -0.25 4.35 1.35 3.1 3.2 3.3 1.85 2.5 1.95 1.65"/><path stroke="none" fill="url(#gradient5)" d="M-0.95 0.65 Q-2.25 0.0 -3.75 0.15 -4.75 2.0 -4.4 3.75 -3.05 4.85 -1.35 5.05 -0.25 4.8 0.5 3.9 L0.45 2.5 Q0.4 1.65 -0.95 0.65"/><path fill="none" stroke="#000000" stroke-width="0.5" stroke-opacity="0.301960784314" d="M0.5 3.9 Q-0.25 4.8 -1.35 5.05 -3.05 4.85 -4.4 3.75 -4.75 2.0 -3.75 0.15 -2.25 0.0 -0.95 0.65"/><path stroke="none" fill="url(#gradient6)" d="M0.95 0.15 Q0.6 1.1 0.75 1.75 L1.4 2.45 Q2.05 3.15 3.65 3.4 4.7 2.2 4.5 0.3 3.9 -1.15 2.65 -1.8 1.45 -1.25 0.95 0.15"/><path fill="none" stroke="#000000" stroke-width="0.5" stroke-opacity="0.301960784314" d="M3.65 3.4 Q4.7 2.2 4.5 0.3 3.9 -1.15 2.65 -1.8 1.45 -1.25 0.95 0.15"/><path fill="#633b1a" stroke="none" d="M0.5 2.55 Q-0.8 4.9 -3.6 3.4 -4.05 2.55 -4.15 1.5 -4.6 2.3 -4.3 3.75 -3.15 4.75 -1.45 4.95 -0.45 4.75 0.65 3.75 0.9 2.8 0.5 2.55"/><path fill="#633b1a" stroke="none" d="M1.2 2.2 Q1.5 2.95 2.5 3.2 3.45 3.45 4.2 2.55 4.6 1.45 4.45 0.35 L4.35 0.1 Q4.1 2.7 1.2 2.2"/><path fill="#e6d27d" stroke="none" d="M-3.6 0.3 Q-4.1 0.8 -4.25 2.0 L-3.1 1.1 -0.15 1.4 Q-2.0 -0.15 -3.6 0.3"/><path fill="#6c5028" stroke="none" d="M0.95 -0.9 Q0.0 0.1 -1.5 0.1 -0.5 0.75 0.25 1.05 L0.95 -0.9"/></g><g id="c59"><g><use transform="matrix(1.0,0.0,0.0,1.0,0.0,0.0)" xlink:href="#c58"/></g></g><g id="c60"><path fill="#765431" stroke="none" d="M-4.9 1.8 Q-3.25 2.35 -1.5 1.3 -0.95 1.25 -0.65 1.55 -0.6 2.25 -1.15 3.0 L-5.75 2.9 -4.9 1.8"/><path fill="none" stroke="#000000" stroke-width="0.5" stroke-opacity="0.301960784314" d="M-4.9 1.8 Q-3.25 2.35 -1.5 1.3 -0.95 1.25 -0.65 1.55 -0.6 2.25 -1.15 3.0 L-5.75 2.9"/><path fill="#633b1a" stroke="none" d="M-6.0 2.15 Q-6.0 2.65 -5.5 3.05 -5.0 3.4 -4.2 3.55 L-3.0 3.5 -2.5 3.1 Q-2.4 2.8 -2.7 2.75 L-3.8 2.65 Q-4.55 2.6 -5.3 2.15 -6.05 1.65 -6.0 2.15"/><path fill="#765431" stroke="none" d="M-1.95 2.4 L-1.25 3.0 Q1.35 0.7 3.15 0.6 L3.6 -0.1 Q1.35 -0.65 -1.95 2.4"/><path fill="#9e753a" stroke="none" d="M-1.95 2.4 Q1.35 -0.65 3.6 -0.1 L3.6 -0.65 Q1.4 -1.6 -2.2 1.65 L-1.95 2.4"/><path fill="none" stroke="#000000" stroke-width="0.5" stroke-opacity="0.301960784314" d="M3.15 0.6 Q1.35 0.7 -1.25 3.0 M-2.2 1.65 Q1.4 -1.6 3.6 -0.65"/><path fill="#9e753a" stroke="none" d="M-3.1 2.2 Q-2.9 1.05 -2.85 -0.55 L-2.55 -1.1 Q-1.25 -0.6 -0.35 1.35 -0.05 2.45 -0.7 3.5 L-3.35 3.6 -3.1 2.2"/><path fill="none" stroke="#000000" stroke-width="0.5" stroke-opacity="0.301960784314" d="M-3.1 2.2 Q-2.9 1.05 -2.85 -0.55 L-2.55 -1.1 Q-1.25 -0.6 -0.35 1.35 -0.05 2.45 -0.7 3.5 L-3.35 3.6"/><path fill="#9e753a" stroke="none" d="M2.75 0.5 L3.1 -0.8 Q4.15 -1.4 4.7 -3.5 L5.25 -3.95 Q6.2 -3.2 6.05 -1.1 5.8 0.0 4.7 0.85 3.6 1.2 2.75 0.5"/><path fill="none" stroke="#000000" stroke-width="0.5" stroke-opacity="0.301960784314" d="M3.1 -0.8 Q4.15 -1.4 4.7 -3.5 L5.25 -3.95 Q6.2 -3.2 6.05 -1.1 5.8 0.0 4.7 0.85 3.6 1.2 2.75 0.5"/><path fill="#633b1a" stroke="none" d="M-0.45 1.85 Q-0.9 2.95 -1.8 2.9 L-3.15 2.7 Q-3.6 2.65 -3.8 3.1 -4.0 3.55 -2.7 3.75 -1.45 3.9 -0.85 3.4 -0.3 2.9 -0.45 1.85"/><path fill="#e6d27d" stroke="none" d="M-2.6 -1.05 Q-2.95 -0.7 -2.9 0.7 L-2.35 -0.25 Q-0.95 0.3 -0.4 1.75 -1.1 -0.4 -2.6 -1.05"/><path fill="#633b1a" stroke="none" d="M5.75 -0.8 Q5.0 0.15 4.3 0.1 L3.2 -0.15 Q2.8 -0.3 2.6 0.05 2.45 0.45 3.3 0.8 L4.85 0.7 Q5.5 0.2 5.75 -0.8"/><path fill="#e6d27d" stroke="none" d="M5.2 -3.9 L4.7 -3.55 Q4.25 -1.65 3.1 -0.85 4.6 -1.4 5.25 -3.0 5.8 -2.4 5.85 -0.9 6.05 -2.95 5.2 -3.9"/></g><g id="c61"><g><use transform="matrix(1.0,0.0,0.0,1.0,0.0,0.0)" xlink:href="#c60"/></g></g><g id="c62"><path fill="#150803" stroke="none" d="M3.85 -3.35 L3.75 -3.15 5.65 -8.55 Q4.3 -9.6 2.35 -9.5 0.1 -9.2 -2.05 -8.1 -6.1 -7.2 -5.55 -3.2 -5.1 0.25 0.75 0.0 3.55 -0.05 3.85 -3.35"/><path fill="none" stroke="#000000" stroke-width="0.5" stroke-opacity="0.301960784314" d="M3.85 -3.35 Q3.55 -0.05 0.75 0.0 -5.1 0.25 -5.55 -3.2 -6.1 -7.2 -2.05 -8.1 0.1 -9.2 2.35 -9.5 4.3 -9.6 5.65 -8.55"/></g><g id="c63"><g><use transform="matrix(1.0,0.0,0.0,1.0,0.0,0.0)" xlink:href="#c62"/></g></g><g id="c64"><path fill="#7a5831" stroke="none" d="M-2.0 -1.55 L-2.15 -1.7 -2.0 -1.55 M3.4 -3.9 L3.3 -3.9 Q2.15 -3.85 1.7 -4.25 L1.2 -5.2 -1.05 -5.35 Q-2.2 -4.8 -2.6 -4.1 L-3.1 -2.75 -2.15 -1.7 -1.95 -1.05 -1.85 -0.55 Q-1.45 -0.15 -0.8 0.0 0.9 -0.2 1.85 -1.05 2.0 -3.2 3.4 -3.9"/><path fill="#4e3414" stroke="none" d="M3.4 -3.9 Q2.0 -3.2 1.85 -1.05 0.9 -0.2 -0.8 0.0 L0.0 0.05 1.75 -0.25 3.0 -0.2 Q3.95 -0.35 4.35 -2.15 4.65 -3.95 3.4 -3.9"/><path fill="none" stroke="#000000" stroke-width="0.5" stroke-opacity="0.301960784314" d="M-2.15 -1.7 L-2.0 -1.55 M-0.8 0.0 Q-1.45 -0.15 -1.85 -0.55 L-1.95 -1.05 -2.15 -1.7 -3.1 -2.75 -2.6 -4.1 Q-2.2 -4.8 -1.05 -5.35 L1.2 -5.2 1.7 -4.25 Q2.15 -3.85 3.3 -3.9 L3.4 -3.9 M-0.8 0.0 L0.0 0.05 1.75 -0.25 3.0 -0.2 Q3.95 -0.35 4.35 -2.15 4.65 -3.95 3.4 -3.9"/><path fill="#7a5831" stroke="none" d="M6.95 -2.8 Q6.85 -3.65 6.0 -3.95 L3.55 -4.6 3.3 -4.4 3.25 -4.3 Q1.7 -2.55 2.55 -0.85 3.95 -0.65 5.25 -0.85 4.45 -2.8 6.95 -2.8"/><path fill="#4e3414" stroke="none" d="M6.95 -2.8 Q4.45 -2.8 5.25 -0.85 3.95 -0.65 2.55 -0.85 L2.95 -0.2 Q2.95 -0.2 3.05 -0.15 L3.2 0.05 5.95 -0.5 Q6.75 -0.9 6.95 -2.0 L6.95 -2.8"/><path fill="none" stroke="#000000" stroke-width="0.5" stroke-opacity="0.301960784314" d="M2.55 -0.85 Q1.7 -2.55 3.25 -4.3 L3.3 -4.4 3.55 -4.6 6.0 -3.95 Q6.85 -3.65 6.95 -2.8 M2.55 -0.85 L2.95 -0.2 Q2.95 -0.2 3.05 -0.15 L3.2 0.05 5.95 -0.5 Q6.75 -0.9 6.95 -2.0 L6.95 -2.8"/><path fill="#7a5831" stroke="none" d="M5.35 -1.25 L8.6 -1.45 Q8.35 -2.85 9.7 -3.05 L9.25 -3.45 6.2 -4.25 6.0 -3.95 Q4.8 -2.45 5.35 -1.25"/><path fill="#4e3414" stroke="none" d="M9.7 -3.05 Q8.35 -2.85 8.6 -1.45 L5.35 -1.25 5.95 -0.5 6.15 -0.3 7.5 -0.75 9.0 -1.3 Q9.75 -1.7 9.85 -2.6 L9.7 -3.05"/><path fill="none" stroke="#000000" stroke-width="0.5" stroke-opacity="0.301960784314" d="M5.35 -1.25 Q4.8 -2.45 6.0 -3.95 L6.2 -4.25 9.25 -3.45 9.7 -3.05 9.85 -2.6 Q9.75 -1.7 9.0 -1.3 L7.5 -0.75 6.15 -0.3 5.95 -0.5 5.35 -1.25"/><path fill="#7a5831" stroke="none" d="M8.8 -1.8 L12.1 -2.2 12.85 -2.5 9.3 -3.65 9.25 -3.45 Q8.65 -2.5 8.8 -1.8"/><path fill="#4e3414" stroke="none" d="M12.1 -2.2 L8.8 -1.8 9.0 -1.3 9.15 -1.15 12.1 -2.2"/><path fill="none" stroke="#000000" stroke-width="0.5" stroke-opacity="0.301960784314" d="M8.8 -1.8 Q8.65 -2.5 9.25 -3.45 L9.3 -3.65 12.85 -2.5 12.1 -2.2 9.15 -1.15 9.0 -1.3 8.8 -1.8"/><path fill="#dbb45c" fill-opacity="0.698039215686" d="M3.55 -4.2 Q2.3 -3.3 2.85 -1.65 L4.8 -1.75 Q4.7 -3.05 5.45 -3.8 4.15 -3.6 3.55 -4.2"/><path fill="#dbb45c" fill-opacity="0.698039215686" d="M5.7 -1.8 L8.4 -1.9 Q8.4 -2.85 8.85 -3.3 7.4 -3.1 6.4 -3.85 5.35 -3.1 5.7 -1.8"/><path fill="#dbb45c" fill-opacity="0.698039215686" d="M12.45 -2.55 L9.3 -3.2 Q8.9 -2.7 9.2 -2.15 L12.45 -2.55"/></g><g id="c65"><g><use transform="matrix(1.0,0.0,0.0,1.0,0.0,0.0)" xlink:href="#c64"/></g></g><radialGradient gradientUnits="userSpaceOnUse" r="819.2" cx="0" cy="0" spreadMethod="pad" gradientTransform="matrix(-0.00469970703125,-0.000503540039062,-0.000213623046875,0.00466918945312,2.25,-5.65)" id="gradient7"><stop offset="0.576470588235" stop-color="#af843c"/><stop offset="0.909803921569" stop-color="#7b592f"/></radialGradient><g id="c66"><path fill="#1b201a" stroke="none" d="M3.05 -3.55 Q1.45 -8.2 -1.7 -6.5 -2.4 -7.45 -2.5 -9.25 -3.7 -8.05 -4.45 -6.55 -3.0 -3.55 -0.15 -2.4 2.05 -2.5 3.05 -3.55"/><path fill="#272e25" stroke="none" d="M-2.5 -9.25 Q-2.4 -7.45 -1.7 -6.5 1.45 -8.2 3.05 -3.55 L4.45 -5.45 Q4.1 -9.2 2.0 -12.0 -0.5 -11.1 -2.5 -9.25"/><path fill="none" stroke="#000000" stroke-width="0.5" stroke-opacity="0.301960784314" d="M-2.5 -9.25 Q-0.5 -11.1 2.0 -12.0 4.1 -9.2 4.45 -5.45 L3.05 -3.55 Q2.05 -2.5 -0.15 -2.4 -3.0 -3.55 -4.45 -6.55 -3.7 -8.05 -2.5 -9.25"/><path fill="#9e753a" stroke="none" d="M1.85 -8.8 Q-1.3 -8.7 -3.1 -5.5 L-3.1 -3.5 Q-2.45 -2.05 -1.1 -0.65 -0.1 -0.1 0.65 0.0 L2.05 -0.35 Q3.7 -1.8 3.6 -3.85 4.25 -6.7 1.85 -8.8"/><path fill="none" stroke="#000000" stroke-width="0.5" stroke-opacity="0.301960784314" d="M1.85 -8.8 Q-1.3 -8.7 -3.1 -5.5 L-3.1 -3.5 Q-2.45 -2.05 -1.1 -0.65 -0.1 -0.1 0.65 0.0 L2.05 -0.35 Q3.7 -1.8 3.6 -3.85 4.25 -6.7 1.85 -8.8"/><path fill="#7b592f" stroke="none" d="M0.9 -0.5 Q2.45 -1.15 2.95 -2.65 L-2.1 -3.45 Q-0.9 -1.2 0.9 -0.5"/><path stroke="none" fill="url(#gradient7)" d="M3.85 -3.55 L4.0 -3.7 Q3.75 -6.55 1.5 -7.75 -1.4 -7.1 -2.7 -4.55 L-2.7 -4.5 Q1.0 -2.5 3.85 -3.55"/><path fill="#4e3414" stroke="none" d="M-2.7 -4.5 Q-1.9 -2.5 0.75 -1.25 2.95 -1.65 3.85 -3.55 1.0 -2.5 -2.7 -4.5"/><path fill="none" stroke="#000000" stroke-width="0.5" stroke-opacity="0.301960784314" d="M3.85 -3.55 L4.0 -3.7 Q3.75 -6.55 1.5 -7.75 -1.4 -7.1 -2.7 -4.55 L-2.7 -4.5 Q-1.9 -2.5 0.75 -1.25 2.95 -1.65 3.85 -3.55"/><path fill="#c9a24c" stroke="none" d="M1.0 -6.75 Q0.8 -6.45 0.95 -5.95 L1.45 -5.15 Q1.85 -4.8 2.25 -4.7 2.65 -4.65 2.85 -4.95 3.05 -5.25 2.85 -5.7 L2.35 -6.55 1.6 -6.95 Q1.2 -7.0 1.0 -6.75"/><path fill="#c9a24c" stroke="none" d="M-1.1 -7.5 L-2.1 -6.05 0.5 -7.8 Q1.9 -8.5 0.65 -8.3 -0.6 -8.1 -1.1 -7.5"/><path fill="#9e753a" stroke="none" d="M-2.9 -4.55 Q-2.85 -4.1 -2.6 -3.8 -2.45 -3.5 -2.2 -3.55 L-1.75 -3.9 -1.65 -4.65 -1.9 -5.4 -2.4 -5.65 -2.75 -5.3 -2.9 -4.55"/><path fill="none" stroke="#000000" stroke-width="0.5" stroke-opacity="0.301960784314" d="M-2.9 -4.55 Q-2.85 -4.1 -2.6 -3.8 -2.45 -3.5 -2.2 -3.55 L-1.75 -3.9 -1.65 -4.65 -1.9 -5.4 -2.4 -5.65 -2.75 -5.3 -2.9 -4.55"/><path fill="#c9a24c" stroke="none" d="M-2.1 -5.35 L-2.05 -4.9 -2.15 -4.45 -2.45 -4.2 Q-2.6 -4.15 -2.65 -4.3 L-2.75 -4.75 -2.6 -5.15 -2.35 -5.4 -2.1 -5.35"/></g><g id="c67"><g><use transform="matrix(1.0,0.0,0.0,1.0,0.0,0.0)" xlink:href="#c66"/></g></g><g id="c68"><path fill="#7a5831" stroke="none" d="M-1.5 -1.15 L-2.05 -0.7 Q-2.05 0.1 -1.5 0.95 L1.55 0.75 Q1.75 0.3 1.55 -0.45 L-0.3 -0.3 Q-1.05 -0.6 -1.5 -1.15"/><path fill="none" stroke="#000000" stroke-width="0.5" stroke-opacity="0.301960784314" d="M1.55 -0.45 L-0.3 -0.3 Q-1.05 -0.6 -1.5 -1.15"/><path fill="#dbb45c" fill-opacity="0.698039215686" d="M2.0 -0.65 Q1.1 0.45 -1.25 -0.1 0.0 0.8 1.15 0.85 1.9 0.1 2.0 -0.65"/></g><g id="c69"><g><use transform="matrix(1.0,0.0,0.0,1.0,0.0,0.0)" xlink:href="#c68"/></g></g><g id="c70"><path fill="#9e753a" stroke="none" d="M4.95 -2.4 L5.45 -1.25 Q5.45 -0.6 5.0 -0.25 4.6 0.1 4.0 -0.05 L2.9 -0.75 Q2.45 -1.35 2.45 -2.0 2.4 -2.65 2.8 -3.0 L3.9 -3.2 Q4.5 -3.0 4.95 -2.4"/><path fill="none" stroke="#000000" stroke-width="0.5" stroke-opacity="0.301960784314" d="M4.95 -2.4 L5.45 -1.25 Q5.45 -0.6 5.0 -0.25 4.6 0.1 4.0 -0.05 L2.9 -0.75 Q2.45 -1.35 2.45 -2.0 2.4 -2.65 2.8 -3.0 L3.9 -3.2 Q4.5 -3.0 4.95 -2.4"/><path fill="#9e753a" stroke="none" d="M0.15 1.2 Q0.15 -0.75 -0.65 -2.25 L-1.25 -1.95 Q-1.5 -0.9 -1.9 0.1 -2.5 0.05 -2.95 -0.5 -4.7 -1.1 -5.45 0.3 L-5.2 0.7 Q-4.75 1.45 -3.9 1.7 L-2.75 1.65 -2.1 1.3 -0.65 0.7 Q-0.25 0.75 0.0 1.0 L0.15 1.2 M-2.6 1.4 L-1.9 0.1 -2.6 1.4"/><path fill="#633b1a" stroke="none" d="M0.15 1.2 L0.0 1.0 Q-0.25 0.75 -0.65 0.7 L-2.1 1.3 -2.75 1.65 -3.9 1.7 Q-4.75 1.45 -5.2 0.7 L-5.45 0.3 Q-5.0 2.05 -3.1 3.5 -2.4 3.7 -1.45 3.5 -0.45 2.85 0.15 1.5 L0.15 1.2"/><path fill="none" stroke="#000000" stroke-width="0.5" stroke-opacity="0.301960784314" d="M-1.9 0.1 Q-1.5 -0.9 -1.25 -1.95 L-0.65 -2.25 Q0.15 -0.75 0.15 1.2 L0.15 1.5 Q-0.45 2.85 -1.45 3.5 -2.4 3.7 -3.1 3.5 -5.0 2.05 -5.45 0.3 M-2.95 -0.5 Q-2.5 0.05 -1.9 0.1 L-2.6 1.4"/><path fill="#9e753a" stroke="none" d="M4.9 -1.05 Q3.5 -2.05 2.9 -3.55 L2.35 -3.65 Q1.95 -2.0 2.3 -0.3 3.05 -1.45 4.35 -0.45 5.2 0.15 5.35 -1.5 L4.9 -1.05 M5.35 -1.55 L5.35 -1.5 5.35 -1.55 5.35 -1.5 5.35 -1.55"/><path fill="#633b1a" stroke="none" d="M5.35 -1.5 Q5.2 0.15 4.35 -0.45 3.05 -1.45 2.3 -0.3 L2.45 0.4 Q3.3 1.1 4.55 1.2 L5.35 0.6 Q5.65 -0.6 5.35 -1.55 L5.35 -1.5"/><path fill="none" stroke="#000000" stroke-width="0.5" stroke-opacity="0.301960784314" d="M2.3 -0.3 Q1.95 -2.0 2.35 -3.65 L2.9 -3.55 Q3.5 -2.05 4.9 -1.05 M2.3 -0.3 L2.45 0.4 Q3.3 1.1 4.55 1.2 L5.35 0.6 Q5.65 -0.6 5.35 -1.55 M5.35 -1.5 L5.35 -1.55 M5.35 -1.5 L5.35 -1.55"/><path fill="#e6d27d" stroke="none" d="M-4.45 -1.45 L-5.15 -0.65 Q-4.65 0.55 -3.2 0.9 -4.65 -0.15 -4.45 -1.45"/><path fill="#e6d27d" stroke="none" d="M-0.7 -2.2 Q-0.95 -2.25 -1.25 -1.95 -1.45 -0.65 -2.5 1.45 -1.05 -0.65 -0.85 -1.35 -0.2 -0.65 0.1 0.25 -0.2 -1.55 -0.7 -2.2"/><path fill="#e6d27d" stroke="none" d="M2.85 -3.5 L2.4 -3.6 2.2 -1.75 Q2.25 -2.55 2.65 -2.9 3.45 -1.6 4.8 -1.1 3.5 -2.15 2.85 -3.5"/><path fill="none" stroke="#000000" stroke-width="0.5" stroke-opacity="0.301960784314" d="M2.2 -1.0 L1.9 -0.95"/><path fill="#e6d27d" stroke="none" d="M5.3 -1.6 Q5.0 -2.65 3.95 -3.05 L3.9 -3.05 Q5.3 -1.4 5.4 -0.05 L5.3 -1.6"/></g><g id="c71"><g><use transform="matrix(1.0,0.0,0.0,1.0,0.0,0.0)" xlink:href="#c70"/></g></g><g id="c72"><path fill="#0c0b0c" stroke="none" d="M-3.1 -1.8 Q-3.95 -1.0 -4.0 0.1 L-2.9 2.2 -2.75 3.65 -2.35 4.3 Q-1.65 4.0 -1.1 2.6 -0.65 1.15 -0.1 0.75 L0.0 0.15 Q-1.2 -1.15 -3.1 -1.8"/><path fill="#161617" stroke="none" d="M-0.1 0.75 Q-0.65 1.15 -1.1 2.6 -1.65 4.0 -2.35 4.3 L-2.75 3.65 -2.65 4.55 -3.3 8.75 Q-2.85 10.25 -1.4 11.15 0.25 10.9 0.4 9.65 L-0.5 4.75 -0.1 0.75"/><path fill="none" stroke="#000000" stroke-width="0.5" stroke-opacity="0.301960784314" d="M-2.75 3.65 L-2.9 2.2 -4.0 0.1 Q-3.95 -1.0 -3.1 -1.8 M0.0 0.15 L-0.1 0.75 M-2.75 3.65 L-2.65 4.55 -3.3 8.75 Q-2.85 10.25 -1.4 11.15 0.25 10.9 0.4 9.65 L-0.5 4.75 -0.1 0.75"/></g><g id="c73"><g><use transform="matrix(1.0,0.0,0.0,1.0,0.0,0.0)" xlink:href="#c72"/></g></g><g id="c74"><path fill="#1c1c1d" stroke="none" d="M1.05 -2.85 Q1.3 -3.9 1.15 -4.5 L0.2 -7.1 Q-0.15 -10.2 0.3 -11.95 0.75 -13.7 -0.25 -13.95 -1.3 -14.15 -1.45 -13.3 L-2.05 -8.9 -3.15 -3.85 Q-3.0 -1.4 -1.05 0.0 L0.15 -0.35 Q0.0 -1.35 1.05 -2.85"/><path fill="none" stroke="#000000" stroke-width="0.5" stroke-opacity="0.301960784314" d="M0.15 -0.35 L-1.05 0.0 Q-3.0 -1.4 -3.15 -3.85 L-2.05 -8.9 -1.45 -13.3 Q-1.3 -14.15 -0.25 -13.95 0.75 -13.7 0.3 -11.95 -0.15 -10.2 0.2 -7.1 L1.15 -4.5 Q1.3 -3.9 1.05 -2.85"/><path fill="#161617" stroke="none" d="M-1.45 -4.1 Q-1.5 -5.65 -0.85 -7.55 -0.8 -10.4 -1.25 -13.4 L-3.0 -3.95 Q-2.55 -1.15 -1.2 -0.45 L-1.45 -4.1"/></g><g id="c75"><g><use transform="matrix(1.0,0.0,0.0,1.0,0.0,0.0)" xlink:href="#c74"/></g></g><radialGradient gradientUnits="userSpaceOnUse" r="819.2" cx="0" cy="0" spreadMethod="pad" gradientTransform="matrix(-0.0108032226562,0.0,0.0,0.00823974609375,7.7,8.75)" id="gradient8"><stop offset="0.525490196078" stop-color="#a26712"/><stop offset="0.886274509804" stop-color="#ddc73f"/></radialGradient><g id="c76"><path fill="#f6eed3" stroke="none" d="M16.2 10.95 Q15.15 10.45 13.45 10.35 13.05 11.2 13.45 11.9 15.1 11.7 16.2 10.95"/><path fill="none" stroke="#000000" stroke-width="0.5" stroke-opacity="0.301960784314" d="M16.2 10.95 Q15.15 10.45 13.45 10.35 13.05 11.2 13.45 11.9 15.1 11.7 16.2 10.95"/><path fill="#f6eed3" stroke="none" d="M0.0 10.95 Q1.05 10.45 2.75 10.35 3.15 11.2 2.75 11.9 1.1 11.7 0.0 10.95"/><path fill="none" stroke="#000000" stroke-width="0.5" stroke-opacity="0.301960784314" d="M0.0 10.95 Q1.05 10.45 2.75 10.35 3.15 11.2 2.75 11.9 1.1 11.7 0.0 10.95"/><path fill="#cfb690" stroke="none" d="M2.35 11.7 L2.6 11.0 0.1 10.95 Q1.1 11.6 2.35 11.7"/><path fill="#38260e" stroke="none" d="M3.7 13.05 Q3.7 13.95 5.0 14.6 6.3 15.2 8.1 15.2 9.9 15.2 11.2 14.6 12.5 13.95 12.5 13.05 12.5 12.15 11.2 11.55 9.9 10.9 8.1 10.9 6.3 10.9 5.0 11.55 3.7 12.15 3.7 13.05"/><path fill="none" stroke="#000000" stroke-width="0.5" stroke-opacity="0.301960784314" d="M3.7 13.05 Q3.7 13.95 5.0 14.6 6.3 15.2 8.1 15.2 9.9 15.2 11.2 14.6 12.5 13.95 12.5 13.05 12.5 12.15 11.2 11.55 9.9 10.9 8.1 10.9 6.3 10.9 5.0 11.55 3.7 12.15 3.7 13.05"/><path fill="#87510b" stroke="none" d="M11.4 14.1 L11.7 13.95 13.15 12.95 Q13.95 12.05 14.25 10.9 L1.85 10.9 Q2.15 12.05 2.95 12.95 L4.4 13.95 4.45 13.95 5.0 14.2 Q8.15 15.2 11.1 14.2 L11.4 14.1"/><path fill="none" stroke="#000000" stroke-width="0.5" stroke-opacity="0.301960784314" d="M11.4 14.1 L11.7 13.95 13.15 12.95 Q13.95 12.05 14.25 10.9 L1.85 10.9 Q2.15 12.05 2.95 12.95 L4.4 13.95 4.45 13.95"/><path fill="#f6eed3" stroke="none" d="M8.1 6.2 Q7.45 7.0 7.3 8.2 8.0 8.55 8.8 8.2 8.75 6.95 8.1 6.2"/><path fill="none" stroke="#000000" stroke-width="0.5" stroke-opacity="0.301960784314" d="M8.1 6.2 Q8.75 6.95 8.8 8.2 8.0 8.55 7.3 8.2 7.45 7.0 8.1 6.2"/><path fill="#f6eed3" stroke="none" d="M14.15 7.5 Q13.7 8.65 12.45 10.0 11.55 9.7 11.4 8.95 12.75 7.8 14.15 7.5"/><path fill="none" stroke="#000000" stroke-width="0.5" stroke-opacity="0.301960784314" d="M14.15 7.5 Q13.7 8.65 12.45 10.0 11.55 9.7 11.4 8.95 12.75 7.8 14.15 7.5"/><path fill="#f6eed3" stroke="none" d="M2.0 7.5 Q2.45 8.65 3.7 10.0 4.6 9.7 4.75 8.95 3.4 7.8 2.0 7.5"/><path fill="none" stroke="#000000" stroke-width="0.5" stroke-opacity="0.301960784314" d="M2.0 7.5 Q2.45 8.65 3.7 10.0 4.6 9.7 4.75 8.95 3.4 7.8 2.0 7.5"/><path fill="#cfb690" stroke="none" d="M3.45 9.65 L4.1 9.25 Q2.75 8.5 2.1 7.55 2.45 8.55 3.45 9.65"/><path fill="#cfb690" stroke="none" d="M13.75 11.7 Q13.5 11.45 13.5 11.0 L16.0 10.95 Q15.0 11.6 13.75 11.7"/><path fill="#cfb690" stroke="none" d="M12.65 9.65 L12.0 9.25 Q13.35 8.5 14.0 7.55 L12.65 9.65"/><path fill="#f9f454" stroke="none" d="M13.95 11.65 Q10.75 14.1 5.65 13.55 L8.7 13.95 Q10.35 14.05 12.15 13.2 13.2 12.7 13.95 11.65"/><path fill="#f6eed3" stroke="none" d="M13.3 15.2 Q13.0 14.15 12.0 13.1 11.1 13.4 10.9 14.2 11.6 14.8 13.3 15.2"/><path fill="none" stroke="#000000" stroke-width="0.5" stroke-opacity="0.301960784314" d="M13.3 15.2 Q13.0 14.15 12.0 13.1 11.1 13.4 10.9 14.2 11.6 14.8 13.3 15.2"/><path fill="#cfb690" stroke="none" d="M11.05 14.15 Q11.9 14.85 13.25 15.05 L11.3 13.55 Q10.85 14.05 11.05 14.15"/><path fill="#f6eed3" stroke="none" d="M8.1 16.55 Q8.8 15.7 8.8 14.25 8.05 13.55 7.25 14.25 7.35 15.6 8.1 16.55"/><path fill="none" stroke="#000000" stroke-width="0.5" stroke-opacity="0.301960784314" d="M8.1 16.55 Q8.8 15.7 8.8 14.25 8.05 13.55 7.25 14.25 7.35 15.6 8.1 16.55"/><path fill="#f6eed3" stroke="none" d="M2.6 15.4 Q4.0 15.1 5.0 14.15 4.7 13.25 3.9 13.05 2.95 14.05 2.6 15.4"/><path fill="none" stroke="#000000" stroke-width="0.5" stroke-opacity="0.301960784314" d="M2.6 15.4 Q4.0 15.1 5.0 14.15 4.7 13.25 3.9 13.05 2.95 14.05 2.6 15.4"/><path fill="#cfb690" stroke="none" d="M4.9 14.15 L4.55 13.5 Q3.95 14.55 2.8 15.25 3.95 15.0 4.9 14.15"/><path fill="#f9f454" stroke="none" d="M2.0 10.15 L2.55 9.7 3.7 8.8 Q4.5 8.4 5.15 8.15 5.85 7.95 5.55 7.95 L4.75 8.05 Q4.2 8.1 3.45 8.55 L2.3 9.55 2.0 10.15"/><path stroke="none" fill="url(#gradient8)" d="M4.55 10.0 Q4.2 10.35 4.2 10.8 4.2 11.6 5.35 12.1 6.45 12.65 8.05 12.65 L10.75 12.1 Q11.9 11.6 11.9 10.8 11.9 10.05 10.75 9.5 9.6 8.95 8.05 8.95 L5.85 9.25 5.0 8.3 Q7.2 7.5 9.8 7.55 11.3 7.75 12.45 8.35 14.3 9.3 14.3 10.6 14.3 11.95 12.45 12.85 10.6 13.8 8.05 13.8 5.45 13.8 3.65 12.85 2.25 12.15 1.9 11.25 2.3 9.6 3.65 9.0 L4.55 10.0"/><path fill="#687c6c" stroke="none" d="M5.85 9.25 L8.05 8.95 Q9.6 8.95 10.75 9.5 11.9 10.05 11.9 10.8 11.9 11.6 10.75 12.1 L8.05 12.65 Q6.45 12.65 5.35 12.1 4.2 11.6 4.2 10.8 4.2 10.35 4.55 10.0 L4.65 10.1 8.05 10.9 5.9 9.3 5.85 9.25"/><path fill="#e8bc0f" stroke="none" d="M4.55 10.0 L3.65 9.0 Q2.3 9.6 1.9 11.25 L1.8 10.6 Q1.8 9.3 3.65 8.35 5.45 7.45 8.05 7.45 L9.8 7.55 Q7.2 7.5 5.0 8.3 L5.85 9.25 5.35 9.5 4.55 10.0"/><path fill="#adbc77" stroke="none" d="M5.85 9.25 L5.9 9.3 8.05 10.9 4.65 10.1 4.55 10.0 5.35 9.5 5.85 9.25"/><path fill="none" stroke="#000000" stroke-width="0.5" stroke-opacity="0.301960784314" d="M1.9 11.25 Q2.25 12.15 3.65 12.85 5.45 13.8 8.05 13.8 10.6 13.8 12.45 12.85 14.3 11.95 14.3 10.6 14.3 9.3 12.45 8.35 11.3 7.75 9.8 7.55 L8.05 7.45 Q5.45 7.45 3.65 8.35 1.8 9.3 1.8 10.6 L1.9 11.25"/><path fill="none" stroke="#000000" stroke-width="0.5" stroke-opacity="0.0980392156863" d="M4.55 10.0 Q4.2 10.35 4.2 10.8 4.2 11.6 5.35 12.1 6.45 12.65 8.05 12.65 L10.75 12.1 Q11.9 11.6 11.9 10.8 11.9 10.05 10.75 9.5 9.6 8.95 8.05 8.95 L5.85 9.25 5.35 9.5 4.55 10.0"/><path fill="#412403" fill-opacity="0.407843137255" d="M7.05 12.65 Q5.0 12.35 4.9 11.95 L9.6 11.65 Q10.65 11.3 11.25 10.75 11.85 10.15 10.6 9.65 L6.75 8.95 6.75 8.9 Q8.55 8.05 11.35 8.9 12.7 9.6 12.7 10.45 12.7 11.55 10.9 12.25 L7.05 12.65"/><path fill="none" stroke="#d2b048" stroke-width="0.5" stroke-opacity="0.498039215686" d="M6.6 0.0 L6.6 7.55"/><path fill="none" stroke="#d2b048" stroke-width="0.5" stroke-opacity="0.498039215686" d="M6.6 0.05 L2.35 9.3"/><path fill="none" stroke="#d2b048" stroke-width="0.5" stroke-opacity="0.498039215686" d="M6.6 0.0 L13.95 9.5"/></g><radialGradient gradientUnits="userSpaceOnUse" r="819.2" cx="0" cy="0" spreadMethod="pad" gradientTransform="matrix(-0.0133514404297,0.0,0.0,0.00923156738281,6.7,11.4)" id="gradient9"><stop offset="0.525490196078" stop-color="#a26712"/><stop offset="0.886274509804" stop-color="#ddc73f"/></radialGradient><g id="c77"><path fill="#f6eed3" stroke="none" d="M16.2 14.0 Q15.15 13.5 13.45 13.4 13.05 14.25 13.45 14.95 15.1 14.75 16.2 14.0"/><path fill="none" stroke="#000000" stroke-width="0.5" stroke-opacity="0.301960784314" d="M16.2 14.0 Q15.15 13.5 13.45 13.4 13.05 14.25 13.45 14.95 15.1 14.75 16.2 14.0"/><path fill="#f6eed3" stroke="none" d="M0.0 14.0 Q1.05 13.5 2.75 13.4 3.15 14.25 2.75 14.95 1.1 14.75 0.0 14.0"/><path fill="none" stroke="#000000" stroke-width="0.5" stroke-opacity="0.301960784314" d="M0.0 14.0 Q1.05 13.5 2.75 13.4 3.15 14.25 2.75 14.95 1.1 14.75 0.0 14.0"/><path fill="#cfb690" stroke="none" d="M2.35 14.75 L2.6 14.05 0.1 14.0 Q1.1 14.65 2.35 14.75"/><path fill="#38260e" stroke="none" d="M3.7 16.1 Q3.7 15.2 5.0 14.6 6.3 13.95 8.1 13.95 9.9 13.95 11.2 14.6 12.5 15.2 12.5 16.1 12.5 17.0 11.2 17.65 9.9 18.25 8.1 18.25 6.3 18.25 5.0 17.65 3.7 17.0 3.7 16.1"/><path fill="none" stroke="#000000" stroke-width="0.5" stroke-opacity="0.301960784314" d="M3.7 16.1 Q3.7 17.0 5.0 17.65 6.3 18.25 8.1 18.25 9.9 18.25 11.2 17.65 12.5 17.0 12.5 16.1 12.5 15.2 11.2 14.6 9.9 13.95 8.1 13.95 6.3 13.95 5.0 14.6 3.7 15.2 3.7 16.1"/><path fill="#87510b" stroke="none" d="M4.45 17.0 L5.0 17.25 Q8.15 18.25 11.1 17.25 L11.4 17.15 11.7 17.0 13.15 16.0 Q13.95 15.1 14.25 13.95 L1.85 13.95 Q2.15 15.1 2.95 16.0 L4.4 17.0 4.45 17.0"/><path fill="none" stroke="#000000" stroke-width="0.5" stroke-opacity="0.301960784314" d="M11.4 17.15 L11.7 17.0 13.15 16.0 Q13.95 15.1 14.25 13.95 L1.85 13.95 Q2.15 15.1 2.95 16.0 L4.4 17.0 4.45 17.0"/><path fill="#f6eed3" stroke="none" d="M8.1 9.25 Q7.45 10.05 7.3 11.25 8.0 11.6 8.8 11.25 8.75 10.0 8.1 9.25"/><path fill="none" stroke="#000000" stroke-width="0.5" stroke-opacity="0.301960784314" d="M8.1 9.25 Q8.75 10.0 8.8 11.25 8.0 11.6 7.3 11.25 7.45 10.05 8.1 9.25"/><path fill="#f6eed3" stroke="none" d="M14.15 10.6 Q13.7 11.75 12.45 13.1 11.55 12.8 11.4 12.05 12.75 10.9 14.15 10.6"/><path fill="none" stroke="#000000" stroke-width="0.5" stroke-opacity="0.301960784314" d="M14.15 10.6 Q13.7 11.75 12.45 13.1 11.55 12.8 11.4 12.05 12.75 10.9 14.15 10.6"/><path fill="#f6eed3" stroke="none" d="M2.05 10.6 Q2.5 11.75 3.75 13.1 4.65 12.8 4.8 12.05 3.45 10.9 2.05 10.6"/><path fill="none" stroke="#000000" stroke-width="0.5" stroke-opacity="0.301960784314" d="M2.05 10.6 Q2.5 11.75 3.75 13.1 4.65 12.8 4.8 12.05 3.45 10.9 2.05 10.6"/><path fill="#cfb690" stroke="none" d="M3.45 12.7 L4.1 12.3 Q2.75 11.55 2.1 10.6 2.45 11.6 3.45 12.7"/><path fill="#cfb690" stroke="none" d="M13.75 14.75 Q13.5 14.5 13.5 14.05 L16.0 14.0 Q15.0 14.65 13.75 14.75"/><path fill="#cfb690" stroke="none" d="M12.65 12.7 L12.0 12.3 Q13.35 11.55 14.0 10.6 L12.65 12.7"/><path fill="#e8bc0f" stroke="none" d="M1.9 14.3 Q2.35 12.65 3.7 12.05 L4.65 13.15 8.05 13.95 5.9 12.35 5.0 11.35 Q7.2 10.6 9.8 10.6 L8.05 10.5 Q5.45 10.5 3.65 11.4 1.8 12.35 1.8 13.65 L1.9 14.3"/><path stroke="none" fill="url(#gradient9)" d="M9.8 10.6 Q7.2 10.6 5.0 11.35 L5.9 12.35 8.05 13.95 4.65 13.15 3.7 12.05 Q2.35 12.65 1.9 14.3 2.25 15.2 3.65 15.9 5.45 16.85 8.05 16.85 10.65 16.85 12.45 15.9 14.3 15.0 14.3 13.65 14.3 12.35 12.45 11.4 11.3 10.8 9.8 10.6"/><path fill="none" stroke="#000000" stroke-width="0.5" stroke-opacity="0.301960784314" d="M1.9 14.3 L1.8 13.65 Q1.8 12.35 3.65 11.4 5.45 10.5 8.05 10.5 L9.8 10.6 Q11.3 10.8 12.45 11.4 14.3 12.35 14.3 13.65 14.3 15.0 12.45 15.9 10.65 16.85 8.05 16.85 5.45 16.85 3.65 15.9 2.25 15.2 1.9 14.3"/><path fill="#adbc77" stroke="none" d="M5.9 12.35 L8.05 13.95 4.6 13.05 5.35 12.55 5.9 12.35"/><path fill="#687c6c" stroke="none" d="M5.9 12.35 L8.05 12.0 Q9.65 12.0 10.75 12.55 11.9 13.1 11.9 13.85 11.9 14.65 10.75 15.15 L8.05 15.7 Q6.45 15.7 5.35 15.15 4.2 14.65 4.2 13.85 4.2 13.45 4.6 13.05 L8.05 13.95 5.9 12.35"/><path fill="none" stroke="#000000" stroke-width="0.5" stroke-opacity="0.0980392156863" d="M4.6 13.05 Q4.2 13.45 4.2 13.85 4.2 14.65 5.35 15.15 6.45 15.7 8.05 15.7 L10.75 15.15 Q11.9 14.65 11.9 13.85 11.9 13.1 10.75 12.55 9.65 12.0 8.05 12.0 L5.9 12.35 M4.6 13.05 L5.35 12.55 5.9 12.35"/><path fill="#f9f454" stroke="none" d="M13.95 14.7 Q10.75 17.15 5.65 16.6 L8.7 17.0 Q10.35 17.1 12.15 16.25 13.2 15.75 13.95 14.7"/><path fill="#f6eed3" stroke="none" d="M13.3 18.25 Q13.0 17.2 12.0 16.15 11.1 16.45 10.9 17.25 11.6 17.85 13.3 18.25"/><path fill="none" stroke="#000000" stroke-width="0.5" stroke-opacity="0.301960784314" d="M13.3 18.25 Q13.0 17.2 12.0 16.15 11.1 16.45 10.9 17.25 11.6 17.85 13.3 18.25"/><path fill="#cfb690" stroke="none" d="M11.05 17.2 Q11.9 17.9 13.25 18.1 L11.3 16.6 Q10.85 17.1 11.05 17.2"/><path fill="#f6eed3" stroke="none" d="M8.1 19.6 Q8.8 18.75 8.8 17.3 8.05 16.6 7.25 17.3 7.35 18.65 8.1 19.6"/><path fill="none" stroke="#000000" stroke-width="0.5" stroke-opacity="0.301960784314" d="M8.1 19.6 Q8.8 18.75 8.8 17.3 8.05 16.6 7.25 17.3 7.35 18.65 8.1 19.6"/><path fill="#f6eed3" stroke="none" d="M2.6 18.45 Q4.0 18.15 5.0 17.2 4.7 16.3 3.9 16.1 2.95 17.1 2.6 18.45"/><path fill="none" stroke="#000000" stroke-width="0.5" stroke-opacity="0.301960784314" d="M2.6 18.45 Q4.0 18.15 5.0 17.2 4.7 16.3 3.9 16.1 2.95 17.1 2.6 18.45"/><path fill="#cfb690" stroke="none" d="M4.9 17.2 L4.55 16.55 Q3.95 17.6 2.8 18.3 3.95 18.05 4.9 17.2"/><path fill="#f9f454" stroke="none" d="M2.0 13.2 L2.55 12.75 3.7 11.85 Q4.5 11.45 5.15 11.2 5.85 11.0 5.55 11.0 L4.75 11.1 Q4.2 11.15 3.45 11.6 L2.3 12.6 2.0 13.2"/><path fill="#412403" fill-opacity="0.407843137255" d="M6.75 15.85 Q4.7 15.55 4.6 15.15 L9.3 14.85 Q10.35 14.5 10.95 13.95 11.55 13.35 10.3 12.85 L6.45 12.15 6.45 12.1 Q8.25 11.25 11.05 12.1 12.4 12.8 12.4 13.65 12.4 14.75 10.6 15.45 L6.75 15.85"/><path fill="none" stroke="#d2b048" stroke-width="0.5" stroke-opacity="0.498039215686" d="M6.35 0.25 L6.35 10.55"/><path fill="none" stroke="#d2b048" stroke-width="0.5" stroke-opacity="0.498039215686" d="M6.35 0.0 L2.1 12.85"/><path fill="none" stroke="#d2b048" stroke-width="0.5" stroke-opacity="0.498039215686" d="M6.35 0.0 L13.7 12.3"/></g><g id="c78"><path fill="#4a3214" stroke="none" d="M2.95 2.05 L2.95 0.0 Q1.55 0.35 0.5 3.1 0.85 4.8 2.1 7.15 L2.1 11.65 Q1.6 12.8 0.75 13.45 1.1 14.45 1.9 15.15 L2.95 15.45 2.95 5.15 Q2.35 4.3 2.1 3.4 2.35 2.4 2.95 2.0 L2.95 2.05"/><path fill="none" stroke="#000000" stroke-width="0.5" stroke-opacity="0.301960784314" d="M2.95 0.0 Q1.55 0.35 0.5 3.1 0.85 4.8 2.1 7.15 L2.1 11.65 Q1.6 12.8 0.75 13.45 1.1 14.45 1.9 15.15 M2.95 5.15 Q2.35 4.3 2.1 3.4 2.35 2.4 2.95 2.0 L2.95 2.05"/><path fill="#745606" stroke="none" d="M2.45 5.3 Q1.85 4.5 1.6 3.55 1.85 2.6 2.45 2.2 L2.5 2.2 2.5 0.2 Q1.05 0.55 0.0 3.25 0.35 5.0 1.6 7.3 L1.6 11.85 Q1.1 13.0 0.25 13.6 0.65 14.65 1.4 15.35 L2.5 15.65 2.5 5.3 2.45 5.3"/><path fill="none" stroke="#000000" stroke-width="0.5" stroke-opacity="0.301960784314" d="M2.5 0.2 Q1.05 0.55 0.0 3.25 0.35 5.0 1.6 7.3 L1.6 11.85 Q1.1 13.0 0.25 13.6 0.65 14.65 1.4 15.35 M2.5 5.3 L2.45 5.3"/><path fill="#4a3214" stroke="none" d="M2.8 6.5 L0.05 3.3 Q0.7 5.35 1.75 7.3 L1.75 12.0 1.8 14.3 2.1 14.35 Q2.2 10.35 2.8 6.5"/></g><g id="c79"><path fill="#cccccc" stroke="none" d="M9.1 4.65 L9.25 5.0 Q9.4 5.25 9.6 5.3 9.4 5.25 9.25 5.0 L9.1 4.65 Q8.3 5.05 8.7 5.8 9.0 6.15 9.6 6.05 L10.25 5.5 10.55 4.6 9.1 4.65"/><path fill="none" stroke="#000000" stroke-width="0.5" stroke-opacity="0.301960784314" d="M9.6 5.3 Q9.4 5.25 9.25 5.0 L9.1 4.65 10.55 4.6 10.25 5.5 9.6 6.05 Q9.0 6.15 8.7 5.8 8.3 5.05 9.1 4.65"/><path fill="#25231f" stroke="none" d="M1.5 7.35 Q0.85 7.25 0.3 6.75 L0.0 6.5 Q-0.05 7.45 0.4 8.35 1.2 9.9 3.05 10.4 L6.75 10.1 7.25 9.85 Q8.65 9.05 9.3 7.65 L9.6 6.5 Q9.75 5.45 9.25 4.45 8.5 3.1 6.9 2.55 L6.45 3.75 Q7.45 4.15 7.9 5.05 8.4 5.95 8.1 6.9 L7.95 7.3 Q7.45 8.4 6.25 8.95 L6.15 9.0 3.55 9.2 Q2.25 8.85 1.7 7.75 L1.5 7.35"/><path fill="#3a3731" stroke="none" d="M1.5 7.35 Q1.25 6.45 1.65 5.55 2.15 4.35 3.45 3.8 L6.05 3.6 6.45 3.75 6.9 2.55 6.55 2.4 Q4.7 1.9 2.9 2.7 1.05 3.5 0.35 5.15 0.05 5.85 0.0 6.5 L0.3 6.75 Q0.85 7.25 1.5 7.35"/><path fill="none" stroke="#000000" stroke-width="0.5" stroke-opacity="0.301960784314" d="M6.45 3.75 L6.05 3.6 3.45 3.8 Q2.15 4.35 1.65 5.55 1.25 6.45 1.5 7.35 M0.0 6.5 Q0.05 5.85 0.35 5.15 1.05 3.5 2.9 2.7 4.7 1.9 6.55 2.4 L6.9 2.55 M6.45 3.75 Q7.45 4.15 7.9 5.05 8.4 5.95 8.1 6.9 L7.95 7.3 Q7.45 8.4 6.25 8.95 L6.15 9.0 3.55 9.2 Q2.25 8.85 1.7 7.75 L1.5 7.35 M0.0 6.5 Q-0.05 7.45 0.4 8.35 1.2 9.9 3.05 10.4 L6.75 10.1 7.25 9.85 Q8.65 9.05 9.3 7.65 L9.6 6.5 Q9.75 5.45 9.25 4.45 8.5 3.1 6.9 2.55"/><path fill="#625d53" stroke="none" d="M8.95 5.6 Q8.4 7.75 6.1 9.2 7.45 9.1 8.3 7.95 9.2 6.8 8.95 5.6"/><path fill="#242425" stroke="none" d="M6.95 2.3 L6.8 2.3 5.9 1.05 Q5.2 1.25 4.7 1.65 4.7 5.0 5.15 7.95 6.3 8.25 7.3 7.95 L8.55 6.6 8.55 6.45 8.55 6.4 8.7 5.8 8.85 5.4 8.9 5.1 8.95 5.1 Q9.15 4.3 8.35 3.75 7.85 2.75 6.95 2.3 M5.6 2.0 Q6.05 2.1 6.3 2.4 L6.8 2.3 6.3 2.4 Q6.05 2.1 5.6 2.0"/><path fill="#cacfce" stroke="none" d="M8.1 2.1 L8.5 0.7 Q8.2 0.1 7.6 0.0 L5.9 1.05 6.8 2.3 6.95 2.3 8.1 2.1 6.95 2.3 Q7.85 2.75 8.35 3.75 9.15 4.3 8.95 5.1 L9.25 5.0 9.5 4.9 9.8 4.75 10.55 4.6 9.45 2.3 8.1 2.1 M7.4 1.8 L6.8 2.3 7.4 1.8"/><path fill="none" stroke="#000000" stroke-width="0.5" stroke-opacity="0.301960784314" d="M5.9 1.05 L7.6 0.0 Q8.2 0.1 8.5 0.7 L8.1 2.1 6.95 2.3 6.8 2.3 7.4 1.8 M5.9 1.05 Q5.2 1.25 4.7 1.65 4.7 5.0 5.15 7.95 M7.3 7.95 L8.55 6.6 8.55 6.45 8.55 6.4 8.7 5.8 8.85 5.4 8.9 5.1 8.95 5.1 9.25 5.0 9.5 4.9 9.8 4.75 M10.55 4.6 L9.45 2.3 8.1 2.1 M6.95 2.3 Q7.85 2.75 8.35 3.75 9.15 4.3 8.95 5.1 M6.8 2.3 L5.9 1.05 M6.8 2.3 L6.3 2.4 Q6.05 2.1 5.6 2.0"/></g><g id="c80"><path fill="#38260e" stroke="none" d="M5.0 6.65 Q4.75 6.45 4.15 6.35 3.7 5.65 3.7 5.1 3.7 4.1 4.95 3.4 5.55 3.5 6.2 4.1 7.0 4.75 7.85 6.1 L8.05 6.4 Q9.6 8.6 12.25 9.55 12.95 8.15 12.4 6.35 L9.55 4.95 Q6.45 3.0 4.75 0.0 2.1 0.5 0.45 2.5 L0.8 3.6 Q1.75 6.25 3.45 8.2 L5.0 6.65"/><path fill="none" stroke="#000000" stroke-width="0.5" stroke-opacity="0.301960784314" d="M5.0 6.65 Q4.75 6.45 4.15 6.35 3.7 5.65 3.7 5.1 3.7 4.1 4.95 3.4 5.55 3.5 6.2 4.1 7.0 4.75 7.85 6.1 L8.05 6.4 Q9.6 8.6 12.25 9.55 12.95 8.15 12.4 6.35 L9.55 4.95 Q6.45 3.0 4.75 0.0 2.1 0.5 0.45 2.5 L0.8 3.6 Q1.75 6.25 3.45 8.2"/><path fill="#38260e" stroke="none" d="M12.2 9.5 Q15.15 10.15 16.75 8.6 L17.4 8.05 18.2 7.55 19.7 7.5 Q20.9 8.9 20.9 9.9 L20.45 10.9 Q19.65 10.4 18.65 10.5 L19.8 11.65 21.15 13.15 Q23.15 11.95 24.15 9.15 L24.15 9.05 Q22.5 6.2 19.85 4.2 L19.35 4.5 Q18.05 6.9 15.9 6.7 L12.2 6.3 Q11.3 8.25 12.2 9.5"/><path fill="none" stroke="#000000" stroke-width="0.5" stroke-opacity="0.301960784314" d="M12.2 6.3 L15.9 6.7 Q18.05 6.9 19.35 4.5 L19.85 4.2 Q22.5 6.2 24.15 9.05 L24.15 9.15 Q23.15 11.95 21.15 13.15 L19.8 11.65 18.65 10.5 Q19.65 10.4 20.45 10.9 L20.9 9.9 Q20.9 8.9 19.7 7.5 L18.2 7.55 17.4 8.05 16.75 8.6 Q15.15 10.15 12.2 9.5"/><path fill="#4a3214" stroke="none" d="M11.9 6.55 L9.1 5.1 7.6 6.6 Q9.15 8.8 11.75 9.7 12.5 8.3 11.9 6.55 M0.35 3.8 Q1.3 6.45 2.95 8.4 3.75 8.25 4.35 7.7 L4.7 7.25 3.5 7.6 Q1.85 6.45 0.35 3.8 M3.25 5.25 Q3.25 4.3 4.45 3.55 L5.7 4.25 Q5.0 3.15 4.05 2.8 2.95 3.55 3.25 5.25"/><path fill="#745606" stroke="none" d="M9.1 5.1 Q5.95 3.15 4.25 0.2 1.65 0.7 0.0 2.65 L0.35 3.8 Q1.85 6.45 3.5 7.6 L4.7 7.25 5.05 6.7 3.7 6.55 Q3.25 5.85 3.25 5.25 2.95 3.55 4.05 2.8 5.0 3.15 5.7 4.25 L7.4 6.3 7.6 6.6 9.1 5.1"/><path fill="none" stroke="#000000" stroke-width="0.5" stroke-opacity="0.301960784314" d="M4.25 0.2 Q1.65 0.7 0.0 2.65 L0.35 3.8 Q1.3 6.45 2.95 8.4 3.75 8.25 4.35 7.7 L4.7 7.25 5.05 6.7 3.7 6.55 M4.45 3.55 L5.7 4.25 7.4 6.3 7.6 6.6 Q9.15 8.8 11.75 9.7 12.5 8.3 11.9 6.55"/><path fill="#745606" stroke="none" d="M20.4 10.05 Q20.7 8.2 19.6 6.75 18.55 7.1 17.75 7.75 L16.9 8.2 Q15.25 8.2 14.55 6.65 17.7 6.45 19.4 4.4 22.0 6.4 23.7 9.25 L23.65 9.35 Q22.05 11.6 20.4 12.35 L19.3 11.85 18.6 10.45 Q19.35 10.55 20.0 11.1 20.4 10.65 20.4 10.05"/><path fill="#4a3214" stroke="none" d="M17.75 7.75 Q18.55 7.1 19.6 6.75 20.7 8.2 20.4 10.05 20.45 9.05 19.2 7.7 L17.75 7.75 M19.3 11.85 L20.4 12.35 Q22.05 11.6 23.65 9.35 22.7 12.15 20.7 13.3 L19.3 11.85 M14.55 6.65 Q15.25 8.2 16.9 8.2 L16.25 8.8 Q14.7 10.3 11.7 9.7 10.85 8.4 11.75 6.5 L14.55 6.65"/><path fill="none" stroke="#000000" stroke-width="0.5" stroke-opacity="0.301960784314" d="M17.75 7.75 L19.2 7.7 Q20.45 9.05 20.4 10.05 20.4 10.65 20.0 11.1 19.35 10.55 18.6 10.45 L19.3 11.85 M23.65 9.35 L23.7 9.25 M19.4 4.4 Q17.7 6.45 14.55 6.65 M16.9 8.2 L17.75 7.75 M11.75 6.5 L14.55 6.65 M16.9 8.2 L16.25 8.8 Q14.7 10.3 11.7 9.7 M20.7 13.3 L19.3 11.85"/><path fill="#d2b048" stroke="none" d="M14.0 6.8 Q17.9 6.65 19.6 4.8 21.0 5.55 23.5 9.25 21.5 7.45 19.2 5.95 18.4 6.7 16.75 6.9 L14.0 6.8"/><path fill="#d2b048" stroke="none" d="M9.65 5.55 Q6.45 3.9 4.2 0.35 2.6 0.4 0.4 2.55 3.05 0.75 3.5 1.25 L7.2 4.6 Q8.25 5.3 9.65 5.55"/></g><g id="c81"><path fill="#38260e" stroke="none" d="M2.6 0.0 Q2.25 0.8 2.4 1.9 3.05 2.7 3.35 3.85 3.1 4.6 2.45 5.1 L2.45 15.4 3.5 15.7 Q4.3 15.45 4.65 14.6 3.85 13.55 3.3 12.1 L3.3 7.55 Q4.6 5.95 4.9 4.4 3.9 1.1 2.6 0.0"/><path fill="none" stroke="#000000" stroke-width="0.5" stroke-opacity="0.301960784314" d="M2.6 0.0 Q3.9 1.1 4.9 4.4 4.6 5.95 3.3 7.55 L3.3 12.1 Q3.85 13.55 4.65 14.6 4.3 15.45 3.5 15.7 M2.45 5.1 Q3.1 4.6 3.35 3.85 3.05 2.7 2.4 1.9"/><path fill="#745606" stroke="none" d="M0.2 16.5 Q0.2 17.2 0.7 17.7 1.2 18.2 1.9 18.2 2.6 18.2 3.15 17.7 3.6 17.2 3.6 16.5 3.6 15.8 3.15 15.3 L2.9 15.1 Q2.5 14.8 1.9 14.8 L1.3 14.9 0.7 15.3 Q0.2 15.8 0.2 16.5"/><path fill="none" stroke="#000000" stroke-width="0.5" stroke-opacity="0.301960784314" d="M0.2 16.5 Q0.2 17.2 0.7 17.7 1.2 18.2 1.9 18.2 2.6 18.2 3.15 17.7 3.6 17.2 3.6 16.5 3.6 15.8 3.15 15.3 L2.9 15.1 Q2.5 14.8 1.9 14.8 L1.3 14.9 0.7 15.3 Q0.2 15.8 0.2 16.5"/><path fill="#745606" stroke="none" d="M2.0 5.3 L2.0 15.6 3.05 15.9 Q3.85 15.65 4.2 14.8 3.35 13.7 2.85 12.3 L2.85 7.75 Q4.1 6.15 4.45 4.6 3.4 1.3 2.1 0.2 1.75 1.0 1.9 2.1 2.6 2.9 2.9 4.0 L2.0 5.3"/><path fill="none" stroke="#000000" stroke-width="0.5" stroke-opacity="0.301960784314" d="M2.0 5.3 L2.9 4.0 Q2.6 2.9 1.9 2.1"/><path fill="#4a3214" stroke="none" d="M4.2 4.65 Q3.1 6.3 1.6 6.55 L1.8 8.4 Q3.5 7.4 4.2 4.65"/><path fill="#4a3214" stroke="none" d="M3.5 16.7 Q1.25 17.75 0.3 16.35 0.5 17.95 1.8 18.05 3.15 18.2 3.5 16.7"/><path fill="#d2b048" fill-opacity="0.498039215686" d="M0.6 16.25 L0.8 16.75 1.3 16.95 1.85 16.75 2.05 16.25 1.85 15.7 1.3 15.5 0.8 15.7 0.6 16.25"/><path fill="#d2b048" stroke="none" d="M3.95 3.95 Q3.3 1.6 2.05 0.35 1.05 0.85 0.7 1.7 1.2 1.35 1.9 1.25 L3.95 3.95"/><path fill="#d2b048" stroke="none" d="M0.1 13.6 L0.75 14.2 3.25 14.6 Q2.65 14.05 2.4 13.5 L2.05 9.1 1.35 12.05 0.1 13.6"/><path fill="#4a3214" stroke="none" d="M4.1 14.85 Q1.15 14.8 0.0 13.65 0.5 14.95 1.6 15.55 2.8 16.25 4.1 14.85"/></g><radialGradient gradientUnits="userSpaceOnUse" r="819.2" cx="0" cy="0" spreadMethod="pad" gradientTransform="matrix(-0.00917053222656,0.00244140625,0.0018310546875,0.00689697265625,-7.05,-5.15)" id="gradient10"><stop offset="0.38431372549" stop-color="#b8983e"/><stop offset="0.858823529412" stop-color="#6c5028"/></radialGradient><g id="c82"><path fill="#6c5028" stroke="none" d="M-0.05 -1.9 Q0.2 -3.75 -0.5 -6.0 -1.7 -8.6 -3.5 -9.05 -5.15 -8.55 -5.35 -7.4 -5.5 -6.2 -5.05 -4.65 -4.6 -3.15 -3.55 -2.1 L-3.15 -1.65 -2.1 -2.1 -1.6 -3.25 Q-1.3 -1.85 -0.5 -1.25 L-0.05 -1.9"/><path fill="#4e3417" stroke="none" d="M-0.05 -1.9 L-0.5 -1.25 Q-1.3 -1.85 -1.6 -3.25 L-2.1 -2.1 -3.15 -1.65 Q-2.35 -0.95 -1.6 -0.75 -0.3 0.1 -0.05 -1.8 L-0.05 -1.9"/><path fill="none" stroke="#000000" stroke-width="0.5" stroke-opacity="0.301960784314" d="M-3.15 -1.65 L-3.55 -2.1 Q-4.6 -3.15 -5.05 -4.65 -5.5 -6.2 -5.35 -7.4 -5.15 -8.55 -3.5 -9.05 -1.7 -8.6 -0.5 -6.0 0.2 -3.75 -0.05 -1.9 M-3.15 -1.65 Q-2.35 -0.95 -1.6 -0.75 -0.3 0.1 -0.05 -1.8 L-0.05 -1.9"/><path fill="#6c5028" stroke="none" d="M-6.65 -5.85 L-8.35 -4.5 Q-9.8 -4.5 -11.15 -5.25 -9.25 -6.15 -6.65 -5.85"/><path fill="none" stroke="#000000" stroke-width="0.5" stroke-opacity="0.301960784314" d="M-8.35 -4.5 Q-9.8 -4.5 -11.15 -5.25 -9.25 -6.15 -6.65 -5.85"/><path fill="#4e3417" stroke="none" d="M-3.8 -8.05 Q-4.6 -7.95 -5.2 -7.3 -3.95 -4.45 -1.9 -3.8 -1.8 -6.4 -3.8 -8.05"/><path fill="#b8983e" stroke="none" d="M-10.75 -5.25 Q-7.9 -4.75 -7.15 -5.55 -8.2 -6.15 -10.75 -5.25"/><path fill="#4e3417" stroke="none" d="M-10.8 -1.6 L-10.85 -1.5 Q-7.0 0.0 -1.55 -0.85 -1.35 -2.25 -1.55 -3.35 L-2.1 -2.1 -3.15 -1.65 Q-6.25 -0.65 -10.8 -1.6"/><path stroke="none" fill="url(#gradient10)" d="M-10.8 -1.6 Q-6.25 -0.65 -3.15 -1.65 L-2.1 -2.1 -1.55 -3.35 Q-1.95 -6.05 -4.55 -7.25 -8.65 -6.15 -10.8 -1.6"/><path fill="none" stroke="#000000" stroke-width="0.5" stroke-opacity="0.301960784314" d="M-1.55 -0.85 Q-7.0 0.0 -10.85 -1.5 L-10.8 -1.6 Q-8.65 -6.15 -4.55 -7.25"/><path fill="#6c5028" stroke="none" d="M-4.2 -7.3 Q-4.1 -6.35 -5.55 -6.5 -6.85 -7.25 -7.2 -8.15 -6.35 -8.15 -4.2 -7.3"/><path fill="none" stroke="#000000" stroke-width="0.5" stroke-opacity="0.301960784314" d="M-5.55 -6.5 Q-6.85 -7.25 -7.2 -8.15 -6.35 -8.15 -4.2 -7.3"/><path fill="#6c5028" stroke="none" d="M-7.9 -2.8 Q-5.7 -2.1 -7.3 -1.35 -9.75 -0.8 -13.05 -1.4 -10.65 -2.55 -7.9 -2.8"/><path fill="none" stroke="#000000" stroke-width="0.5" stroke-opacity="0.301960784314" d="M-7.3 -1.35 Q-9.75 -0.8 -13.05 -1.4 -10.65 -2.55 -7.9 -2.8"/><path fill="#f5e0aa" stroke="none" d="M-5.95 -6.55 L-7.6 -5.5 -10.15 -2.6 Q-7.9 -3.75 -6.85 -4.65 -5.75 -5.55 -5.95 -6.55"/><path fill="#b8983e" stroke="none" d="M-0.85 -5.05 Q-1.5 -9.0 -4.3 -8.5 -2.15 -7.7 -0.85 -5.05"/><path fill="#b8983e" stroke="none" d="M-7.1 -8.05 Q-5.35 -6.85 -4.5 -7.1 -5.35 -7.85 -7.1 -8.05"/><path fill="#b8983e" stroke="none" d="M-12.8 -1.45 Q-8.05 -1.45 -7.6 -2.5 -8.5 -2.8 -12.8 -1.45"/><path fill="#6c5028" stroke="none" d="M-4.45 -3.3 Q-6.1 -2.15 -7.2 0.0 -5.45 -0.25 -3.7 -1.65 -2.35 -3.95 -4.45 -3.3"/><path fill="none" stroke="#000000" stroke-width="0.5" stroke-opacity="0.301960784314" d="M-3.7 -1.65 Q-5.45 -0.25 -7.2 0.0 -6.1 -2.15 -4.45 -3.3"/><path fill="#b8983e" stroke="none" d="M-6.8 -0.35 Q-3.85 -1.8 -3.55 -3.5 -4.95 -3.3 -6.8 -0.35"/></g><g id="c83"><g><use transform="matrix(1.0,0.0,0.0,1.0,0.0,0.0)" xlink:href="#c82"/></g></g><g id="c84"><g><use transform="matrix(0.953659057617,0.0,0.0,0.504760742188,2.35,3.35)" filter="url(#filter51)" xlink:href="#c37"/></g><g><use transform="matrix(1.0,0.0,0.0,1.0,12.2,-26.6)" xlink:href="#c39"/></g><g><use transform="matrix(0.965927124023,-0.258804321289,0.258804321289,0.965927124023,9.15,-35.95)" xlink:href="#c41"/></g><g><use transform="matrix(0.930541992188,-0.366180419922,0.366180419922,0.930541992188,4.55,-47.45)" xlink:href="#c43"/></g><g><use transform="matrix(0.866027832031,0.499984741211,-0.499984741211,0.866027832031,2.6,-1.35)" xlink:href="#c45"/></g><g><use transform="matrix(1.0,0.0,0.0,1.0,3.85,-4.45)" xlink:href="#c47"/></g><g><use transform="matrix(1.0,0.0,0.0,1.0,4.3,-4.6)" xlink:href="#c35"/></g><g><use transform="matrix(1.0,0.0,0.0,1.0,6.65,-11.35)" xlink:href="#c49"/></g><g><use transform="matrix(1.0,0.0,0.0,1.0,6.05,-32.4)" xlink:href="#c33"/></g><g><use transform="matrix(1.0,0.0,0.0,1.0,-0.15,-37.2)" xlink:href="#c51"/></g><g><use transform="matrix(1.0,0.0,0.0,1.0,1.15,-32.1)" xlink:href="#c53"/></g><g><use transform="matrix(1.0,0.0,0.0,1.0,4.1,-30.85)" xlink:href="#c55"/></g><g><use transform="matrix(1.0,0.0,0.0,1.0,1.7,-36.15)" xlink:href="#c57"/></g><g><use transform="matrix(1.0,0.0,0.0,1.0,4.45,-42.55)" xlink:href="#c59"/></g><g><use transform="matrix(1.0,0.0,0.0,1.0,4.8,-38.7)" xlink:href="#c61"/></g><g><use transform="matrix(1.0,0.0,0.0,1.0,3.25,-23.75)" xlink:href="#c63"/></g><g><use transform="matrix(1.0,0.0,0.0,1.0,0.05,-29.8)" xlink:href="#c31"/></g><g><use transform="matrix(0.707107543945,0.707092285156,-0.707092285156,0.707107543945,-5.85,2.7)" xlink:href="#c65"/></g><g><use transform="matrix(1.0,0.0,0.0,1.0,-3.8,0.5)" xlink:href="#c29"/></g><g><use transform="matrix(1.0,0.0,0.0,1.0,-1.4,-8.9)" xlink:href="#c67"/></g><g><use transform="matrix(1.0,0.0,0.0,1.0,-3.8,-0.05)" xlink:href="#c69"/></g><g><use transform="matrix(1.0,0.0,0.0,1.0,4.1,-31.65)" xlink:href="#c71"/></g><g><use transform="matrix(0.782501220703,0.622665405273,-0.622665405273,0.782501220703,-1.65,-41.6)" xlink:href="#c73"/></g><g><use transform="matrix(0.659896850586,-0.751342773438,0.751342773438,0.659896850586,-7.05,-34.0)" xlink:href="#c75"/></g><g><use transform="matrix(1.0,0.0,0.0,1.0,-17.5,-22.2)" xlink:href="#c76"/></g><g><use transform="matrix(1.0,0.0,0.0,1.0,-35.0,-23.3)" xlink:href="#c77"/></g><g><use transform="matrix(1.0,0.0,0.0,1.0,-22.2,-43.2)" xlink:href="#c78"/></g><g><use transform="matrix(1.0,0.0,0.0,1.0,-23.45,-49.8)" xlink:href="#c79"/></g><g><use transform="matrix(1.0,-0.210739135742,0.0,1.0,-31.75,-30.75)" xlink:href="#c80"/></g><g><use transform="matrix(1.0,0.0,0.0,1.0,-21.85,-43.2)" xlink:href="#c81"/></g><g><use transform="matrix(1.0,0.0,0.0,1.0,1.5,-45.55)" xlink:href="#c27"/></g><g><use transform="matrix(1.0,0.0,0.0,1.0,-0.15,-41.3)" xlink:href="#c83"/></g><g><use transform="matrix(1.0,0.0,0.0,1.0,0.7,-47.8)" xlink:href="#c1"/></g><g><use transform="matrix(1.0,0.0,0.0,1.0,0.7,-47.8)" xlink:href="#c2"/></g><g><use transform="matrix(1.0,0.0,0.0,1.0,0.7,-47.8)" xlink:href="#c3"/></g><g><use transform="matrix(1.0,0.0,0.0,1.0,0.7,-47.8)" xlink:href="#c4"/></g><g><use transform="matrix(1.0,0.0,0.0,1.0,0.7,-47.8)" xlink:href="#c5"/></g><g><use transform="matrix(1.0,0.0,0.0,1.0,0.7,-47.8)" xlink:href="#c6"/></g><g><use transform="matrix(1.0,0.0,0.0,1.0,0.7,-47.8)" xlink:href="#c7"/></g><g><use transform="matrix(1.0,0.0,0.0,1.0,0.7,-47.8)" xlink:href="#c8"/></g><g><use transform="matrix(1.0,0.0,0.0,1.0,0.7,-47.8)" xlink:href="#c9"/></g><g><use transform="matrix(1.0,0.0,0.0,1.0,0.7,-47.8)" xlink:href="#c10"/></g><g><use transform="matrix(1.0,0.0,0.0,1.0,0.7,-47.8)" xlink:href="#c11"/></g><g><use transform="matrix(1.0,0.0,0.0,1.0,0.7,-47.8)" xlink:href="#c12"/></g><g><use transform="matrix(1.0,0.0,0.0,1.0,0.7,-47.8)" xlink:href="#c13"/></g><g><use transform="matrix(1.0,0.0,0.0,1.0,0.7,-47.8)" xlink:href="#c14"/></g><g><use transform="matrix(1.0,0.0,0.0,1.0,0.7,-47.8)" xlink:href="#c15"/></g><g><use transform="matrix(1.0,0.0,0.0,1.0,0.7,-47.8)" xlink:href="#c16"/></g><g><use transform="matrix(1.0,0.0,0.0,1.0,0.7,-47.8)" xlink:href="#c17"/></g><g><use transform="matrix(1.0,0.0,0.0,1.0,0.7,-47.8)" xlink:href="#c18"/></g><g><use transform="matrix(1.0,0.0,0.0,1.0,0.7,-47.8)" xlink:href="#c19"/></g><g><use transform="matrix(1.0,0.0,0.0,1.0,0.7,-47.8)" xlink:href="#c20"/></g><g><use transform="matrix(1.0,0.0,0.0,1.0,0.7,-47.8)" xlink:href="#c21"/></g><g><use transform="matrix(1.0,0.0,0.0,1.0,0.7,-47.8)" xlink:href="#c22"/></g><g><use transform="matrix(1.0,0.0,0.0,1.0,0.7,-47.8)" xlink:href="#c23"/></g><g><use transform="matrix(1.0,0.0,0.0,1.0,0.7,-47.8)" xlink:href="#c24"/></g></g><filter id="filter51"><feColorMatrix in="SourceGraphic" type="matrix" values="1.0 0.0 0.0 0.0 0.0 0.0 1.0 0.0 0.0 0.0 0.0 0.0 1.0 0.0 0.0 0.0 0.0 0.0 0.640625 0.0" result="cxform"/><feComposite operator="in" in2="SourceGraphic" result="color-xform"/></filter><g id="c85"><path fill="#000000" fill-opacity="0.00392156862745" d="M0.0 0.0 L60.0 0.0 60.0 60.0 0.0 60.0 0.0 0.0"/></g><g id="c86"><path fill="none" stroke="#000000" stroke-width="1.0" stroke-opacity="0.301960784314" d="M0.7 12.25 Q-0.45 9.75 0.75 8.25 1.2 7.6 2.15 7.15 2.8 6.7 3.8 6.35 L17.5 1.95 30.2 7.0 41.35 31.7 Q42.95 35.15 40.2 36.7 39.5 37.3 38.3 37.65 L25.5 41.8 25.45 41.75 24.55 42.0 11.85 37.0 0.7 12.25"/><path fill="#9d147b" stroke="none" d="M35.55 22.3 L31.5 13.2 29.75 9.2 16.95 4.25 5.5 7.85 Q1.65 9.1 3.35 12.8 L8.25 23.65 13.1 34.35 25.8 39.4 37.2 35.7 Q41.1 34.5 39.35 30.75 L35.55 22.3 M5.45 20.95 L1.35 11.8 Q0.4 9.65 1.1 8.3 1.45 7.65 2.15 7.15 2.8 6.7 3.8 6.35 L17.5 1.95 30.2 7.0 41.35 31.7 Q42.95 35.15 40.2 36.7 L38.9 37.25 25.2 41.65 12.5 36.65 5.45 20.95"/><path fill="#c47fad" stroke="none" d="M31.5 13.2 L35.55 22.3 39.35 30.75 Q41.1 34.5 37.2 35.7 L25.8 39.4 13.1 34.35 8.25 23.65 3.35 12.8 Q1.65 9.1 5.5 7.85 L16.95 4.25 29.75 9.2 31.5 13.2 M18.5 7.45 L9.1 10.55 9.55 11.6 Q9.8 12.8 9.15 13.6 8.4 14.45 7.1 14.4 L6.8 14.4 6.95 14.6 15.2 32.75 23.85 36.2 34.0 32.9 33.7 32.1 Q33.45 30.9 34.1 30.1 34.75 29.3 35.95 29.35 L35.8 29.0 27.75 10.95 18.5 7.45"/><path fill="#fcf2cf" stroke="none" d="M27.75 10.95 L35.8 29.0 35.95 29.35 Q34.75 29.3 34.1 30.1 33.45 30.9 33.7 32.1 L34.0 32.9 23.85 36.2 15.2 32.75 6.95 14.6 6.8 14.4 7.1 14.4 Q8.4 14.45 9.15 13.6 9.8 12.8 9.55 11.6 L9.1 10.55 18.5 7.45 27.75 10.95"/><path fill="#630a4c" stroke="none" d="M1.1 8.3 L0.75 8.25 Q1.2 7.6 2.15 7.15 1.45 7.65 1.1 8.3 M4.6 20.9 L5.45 20.95 12.5 36.65 11.55 36.25 11.25 35.55 4.6 20.9"/><path fill="#300525" stroke="none" d="M1.1 8.3 Q0.4 9.65 1.35 11.8 L5.45 20.95 4.6 20.9 0.7 12.25 Q-0.45 9.75 0.75 8.25 L1.1 8.3 M12.5 36.65 L25.2 41.65 38.9 37.25 40.2 36.7 Q39.5 37.3 38.3 37.65 L25.5 41.8 25.45 41.75 24.55 42.0 11.85 37.0 11.55 36.25 12.5 36.65"/><path fill="none" stroke="#bf9900" stroke-width="1.0" stroke-opacity="0.749019607843" d="M31.5 13.2 L35.55 22.3 M13.1 34.35 L8.25 23.65"/><path fill="none" stroke="#ffcc00" stroke-width="1.0" stroke-opacity="0.749019607843" d="M35.55 22.3 L39.35 30.75 Q41.1 34.5 37.2 35.7 L25.8 39.4 M8.25 23.65 L3.35 12.8 Q1.65 9.1 5.5 7.85 L16.95 4.25 29.75 9.2 31.5 13.2"/><path fill="none" stroke="#f0b92b" stroke-width="0.5" d="M27.75 10.95 L35.8 29.0 35.95 29.35 Q34.75 29.3 34.1 30.1 33.45 30.9 33.7 32.1 L34.0 32.9 23.85 36.2 15.2 32.75 6.95 14.6 6.8 14.4 7.1 14.4 Q8.4 14.45 9.15 13.6 9.8 12.8 9.55 11.6 L9.1 10.55 18.5 7.45"/><path fill="none" stroke="#000000" stroke-width="0.5" stroke-opacity="0.301960784314" d="M5.45 20.95 L1.35 11.8 Q0.4 9.65 1.1 8.3 M0.75 8.25 Q-0.45 9.75 0.7 12.25 L4.6 20.9 M5.45 20.95 L12.5 36.65 M25.2 41.65 L38.9 37.25 40.2 36.7 Q42.95 35.15 41.35 31.7 L30.2 7.0 M17.5 1.95 L3.8 6.35 Q2.8 6.7 2.15 7.15 1.45 7.65 1.1 8.3 M0.75 8.25 Q1.2 7.6 2.15 7.15 M11.25 35.55 L4.6 20.9 M25.5 41.8 L38.3 37.65 Q39.5 37.3 40.2 36.7"/><path fill="none" stroke="#ffcc00" stroke-width="0.5" stroke-opacity="0.749019607843" d="M18.5 7.45 L27.75 10.95"/><path fill="none" stroke="#f0b92b" stroke-width="1.0" stroke-opacity="0.749019607843" d="M25.8 39.4 L13.1 34.35"/><path fill="none" stroke="#432f2f" stroke-width="0.5" d="M12.5 36.65 L25.2 41.65"/></g><g id="c87"><path fill="#7fdbfe" stroke="none" d="M10.75 4.9 Q10.75 4.6 10.9 4.35 11.25 3.45 11.95 2.75 13.3 1.5 14.35 2.1 15.4 2.7 14.95 4.45 14.7 5.4 14.1 6.15 L13.75 6.5 Q13.1 7.15 12.35 7.35 L11.4 7.2 Q10.95 6.9 10.75 6.4 10.5 5.75 10.75 4.9 M7.5 5.9 Q7.0 5.85 6.6 5.5 6.05 5.0 5.8 4.15 L5.7 3.6 Q5.55 2.65 5.8 1.7 6.25 0.0 7.5 0.0 L7.6 0.0 Q8.85 0.0 9.3 1.7 9.55 2.65 9.4 3.6 L9.3 4.15 8.5 5.5 7.6 5.9 7.5 5.9 M4.35 4.9 Q4.6 5.75 4.35 6.4 L3.7 7.2 2.75 7.35 Q2.0 7.15 1.35 6.5 L1.0 6.15 Q0.4 5.4 0.15 4.45 -0.3 2.7 0.75 2.1 1.8 1.5 3.15 2.75 3.85 3.45 4.2 4.35 L4.35 4.9 M5.5 13.7 Q4.45 13.9 3.65 12.95 2.75 12.0 3.2 10.25 3.7 8.5 5.25 7.6 6.4 6.9 7.55 7.0 8.75 6.9 9.9 7.6 11.45 8.5 11.95 10.25 12.35 12.0 11.5 12.95 10.7 13.9 9.65 13.7 8.55 13.5 7.55 12.6 6.55 13.5 5.5 13.7"/></g><g id="c88"><g><use transform="matrix(1.0,0.0,0.0,1.0,0.0,0.0)" xlink:href="#c87"/></g></g><radialGradient gradientUnits="userSpaceOnUse" r="819.2" cx="0" cy="0" spreadMethod="pad" gradientTransform="matrix(0.0914459228516,0.0,0.0,0.0914459228516,0.6,3.4)" id="gradient11"><stop offset="0.0" stop-color="#ffffff"/><stop offset="1.0" stop-color="#ffffff" stop-opacity="0.0"/></radialGradient><g id="c89"><path stroke="none" fill="url(#gradient11)" d="M36.65 -54.65 Q60.05 -42.0 69.75 -17.95 80.55 8.9 68.0 34.1 55.45 59.35 26.8 68.2 -1.8 77.05 -29.7 64.3 -57.6 51.6 -68.45 24.75 -79.3 -2.05 -66.75 -27.25 L-66.7 -27.3 Q-54.1 -52.5 -25.5 -61.4 3.1 -70.2 31.0 -57.5 L36.65 -54.65"/></g><g id="c90"><g><use transform="matrix(1.0,0.0,0.0,1.0,0.0,0.0)" xlink:href="#c89"/></g></g><radialGradient gradientUnits="userSpaceOnUse" r="819.2" cx="0" cy="0" spreadMethod="pad" gradientTransform="matrix(0.209197998047,0.0,0.0,0.177108764648,67.15,107.2)" id="gradient12"><stop offset="0.356862745098" stop-color="#ffffff"/><stop offset="0.670588235294" stop-opacity="0.0"/></radialGradient><g id="c91"><path fill="none" stroke-linejoin="round" stroke-linecap="round" stroke="url(#gradient12)" stroke-width="0.5" d="M136.55 165.8 L68.6 106.0 68.4 106.0 118.25 201.5 M68.3 105.8 L68.35 105.8 68.3 105.8 68.3 105.85 68.4 106.0 68.3 106.0 86.55 211.5 M68.3 105.8 L68.3 105.85 68.3 106.0 68.15 105.95 18.25 151.55 M68.3 105.85 L68.25 105.85 68.3 106.0 50.0 193.2 M68.25 105.85 L68.15 105.95 0.05 97.7 M68.3 105.85 L68.25 105.8 68.25 105.85 M68.25 105.8 L68.2 105.7 0.0 45.7 M68.3 105.8 L68.25 105.75 68.25 105.8 M68.25 105.75 L68.2 105.7 18.25 10.05 M68.6 106.0 L68.35 105.8 118.25 60.15 M86.6 18.35 L68.3 105.8 M136.6 114.25 L68.6 106.0 M68.25 105.75 L49.95 0.05"/></g><g id="c92"><g><use transform="matrix(1.0,0.0,0.0,1.0,0.0,0.0)" xlink:href="#c91"/></g></g><g id="c93"><g><use transform="matrix(1.0,0.0,0.0,1.0,0.0,0.0)" xlink:href="#c86"/></g><g><use transform="matrix(0.238861083984,-0.0867004394531,0.10026550293,0.233917236328,34.25,31.15)" xlink:href="#c88"/></g><g><use transform="matrix(0.238861083984,-0.0867004394531,0.10026550293,0.233917236328,4.25,10.3)" xlink:href="#c88"/></g><g><use transform="matrix(0.141098022461,-0.0378112792969,0.111373901367,0.225646972656,20.25,20.65)" filter="url(#filter113)" xlink:href="#c90"/></g><g><use transform="matrix(-0.155029296875,0.0513153076172,0.0841827392578,0.147033691406,22.6,3.15)" filter="url(#filter114)" xlink:href="#c92"/></g></g><filter id="filter113"><feColorMatrix in="SourceGraphic" type="matrix" values="0.0 0.0 0.0 0.0 0.796875 0.0 0.0 0.0 0.0 0.59765625 0.0 0.0 0.0 0.0 0.19921875 0.0 0.0 0.0 1.0 0.0" result="cxform"/><feComposite operator="in" in2="SourceGraphic" result="color-xform"/></filter><filter id="filter114"><feColorMatrix in="SourceGraphic" type="matrix" values="0.0 0.0 0.0 0.0 0.99609375 0.0 0.0 0.0 0.0 0.99609375 0.0 0.0 0.0 0.0 0.99609375 0.0 0.0 0.0 1.0 0.0" result="cxform"/><feComposite operator="in" in2="SourceGraphic" result="color-xform"/></filter><filter id="filter118"><feColorMatrix in="SourceGraphic" type="matrix" values="1.0 0.0 0.0 0.0 0.0 0.0 1.0 0.0 0.0 0.0 0.0 0.0 1.0 0.0 0.0 0.0 0.0 0.0 0.23046875 0.0" result="cxform"/><feComposite operator="in" in2="SourceGraphic" result="color-xform"/></filter></defs><g><g><use transform="matrix(1.0,0.0,0.0,1.0,0.0,0.0)" xlink:href="#c85"/></g><g><use transform="matrix(1.15496826172,0.0,0.0,1.15496826172,5.85,4.8)" xlink:href="#c93"/></g><g><use transform="matrix(0.359817504883,-0.148864746094,0.148864746094,0.359817504883,37.45,38.6)" xlink:href="#c84"/></g><g><use transform="matrix(0.162948608398,-0.0436706542969,0.128631591797,0.260604858398,30.0,28.7)" filter="url(#filter118)" xlink:href="#c90"/></g></g></svg>