<?xml version='1.0' encoding='UTF-8'?>
<svg xmlns:xlink="http://www.w3.org/1999/xlink" xmlns="http://www.w3.org/2000/svg" version="1.1" width="60px" height="60px" viewBox="0.0 0.0 60.0 60.0"><defs><g id="c1"><path fill="#000000" fill-opacity="0.00392156862745" d="M0.0 0.0 L60.0 0.0 60.0 60.0 0.0 60.0 0.0 0.0"/></g><g id="c2"><path fill="#006699" stroke="none" d="M31.5 39.85 L19.8 43.65 Q17.15 44.45 15.5 43.3 14.35 42.55 13.65 40.9 L1.7 14.45 1.6 14.3 1.2 13.45 -0.75 9.05 Q-2.05 6.2 -0.3 4.75 0.3 4.25 1.2 3.9 L5.5 2.25 Q8.95 0.95 10.65 4.15 L22.3 0.4 Q26.55 -1.0 28.45 3.1 L40.55 29.95 40.9 30.7 42.95 35.15 Q43.95 37.35 43.15 38.7 42.5 39.7 40.95 40.25 L36.65 41.8 35.1 42.2 Q32.75 42.3 31.5 39.85"/><path fill="none" stroke="#000000" stroke-width="1.0" stroke-opacity="0.298039215686" d="M31.5 39.85 L19.8 43.65 Q17.15 44.45 15.5 43.3 14.35 42.55 13.65 40.9 L1.7 14.45 1.6 14.3 1.2 13.45 -0.75 9.05 Q-2.05 6.2 -0.3 4.75 0.3 4.25 1.2 3.9 L5.5 2.25 Q8.95 0.95 10.65 4.15 L22.3 0.4 Q26.55 -1.0 28.45 3.1 L40.55 29.95 40.9 30.7 42.95 35.15 Q43.95 37.35 43.15 38.7 42.5 39.7 40.95 40.25 L36.65 41.8 35.1 42.2 Q32.75 42.3 31.5 39.85"/><path fill="#300525" stroke="none" d="M0.75 8.25 L29.8 9.75 25.55 0.9 Q26.9 1.6 27.8 3.55 L40.7 32.15 Q42.6 36.3 38.3 37.65 L23.3 42.5 13.15 21.4 4.6 20.9 0.7 12.25 Q-0.45 9.75 0.75 8.25 M20.1 43.55 L19.8 43.65 Q17.15 44.45 15.5 43.3 L20.1 43.55"/><path fill="#630a4c" stroke="none" d="M25.55 0.9 L29.8 9.75 0.75 8.25 Q1.45 7.3 3.1 6.75 L21.65 0.8 25.55 0.9 M4.6 20.9 L13.15 21.4 23.3 42.5 20.1 43.55 15.5 43.3 Q14.35 42.55 13.65 40.9 L4.6 20.9"/><path fill="none" stroke="#000000" stroke-width="0.5" stroke-opacity="0.301960784314" d="M0.75 8.25 Q-0.45 9.75 0.7 12.25 L4.6 20.9 M23.3 42.5 L38.3 37.65 Q42.6 36.3 40.7 32.15 L27.8 3.55 Q26.9 1.6 25.55 0.9 L21.65 0.8 3.1 6.75 Q1.45 7.3 0.75 8.25 M20.1 43.55 L19.8 43.65 Q17.15 44.45 15.5 43.3 14.35 42.55 13.65 40.9 L4.6 20.9 M20.1 43.55 L23.3 42.5"/><path fill="#9d147b" stroke="none" d="M14.2 40.5 L1.35 11.8 Q-0.5 7.75 3.8 6.35 L22.3 0.4 Q26.55 -1.0 28.45 3.1 L41.35 31.7 Q43.25 35.85 38.9 37.25 L20.4 43.2 Q16.1 44.55 14.2 40.5"/><path fill="none" stroke="#000000" stroke-width="0.5" stroke-opacity="0.301960784314" d="M14.2 40.5 L1.35 11.8 Q-0.5 7.75 3.8 6.35 L22.3 0.4 Q26.55 -1.0 28.45 3.1 L41.35 31.7 Q43.25 35.85 38.9 37.25 L20.4 43.2 Q16.1 44.55 14.2 40.5"/><path fill="#9d147b" stroke="none" d="M31.4 39.65 L31.3 39.45 31.25 39.4 29.25 34.95 Q27.55 31.2 31.25 29.85 L35.6 28.25 Q38.8 27.1 40.5 29.85 L40.9 30.7 42.95 35.15 Q43.95 37.35 43.15 38.7 42.5 39.45 41.2 39.9 L36.9 41.45 34.85 41.85 Q32.9 41.7 31.75 39.5 L31.4 39.65"/><path fill="#630a4c" stroke="none" d="M43.15 38.7 Q42.5 39.7 40.95 40.25 L36.65 41.8 35.1 42.2 Q32.75 42.3 31.45 39.8 L31.4 39.65 31.75 39.5 Q32.9 41.7 34.85 41.85 L36.9 41.45 41.2 39.9 Q42.5 39.45 43.15 38.7"/><path fill="none" stroke="#003333" stroke-width="0.5" stroke-opacity="0.509803921569" d="M43.15 38.7 Q42.5 39.7 40.95 40.25 L36.65 41.8 35.1 42.2 Q32.75 42.3 31.45 39.8 L31.4 39.65 30.3 40.0 31.4 39.65 M40.5 29.85 L40.9 30.7 42.95 35.15 Q43.95 37.35 43.15 38.7 42.5 39.45 41.2 39.9 L36.9 41.45 34.85 41.85 Q32.9 41.7 31.75 39.5 L31.4 39.65"/><path fill="#9d147b" stroke="none" d="M10.65 4.2 L10.85 4.6 12.85 9.05 Q14.5 12.8 10.8 14.15 L6.5 15.8 Q4.5 16.6 3.1 15.8 L1.75 12.85 -0.2 8.45 Q-1.25 6.15 -0.3 4.75 0.3 4.25 1.2 3.9 L5.5 2.25 Q9.0 0.95 10.65 4.2"/><path fill="#300525" stroke="none" d="M-0.3 4.75 Q-1.25 6.15 -0.2 8.45 L1.75 12.85 3.1 15.8 Q2.25 15.35 1.6 14.3 L1.2 13.45 -0.75 9.05 Q-2.05 6.2 -0.3 4.75"/><path fill="none" stroke="#003333" stroke-width="0.5" stroke-opacity="0.509803921569" d="M3.1 15.8 L6.45 23.15 M-0.3 4.75 Q0.3 4.25 1.2 3.9 L5.5 2.25 Q9.0 0.95 10.65 4.2 M3.1 15.8 L1.75 12.85 -0.2 8.45 Q-1.25 6.15 -0.3 4.75 -2.05 6.2 -0.75 9.05 L1.2 13.45 1.6 14.3"/><path fill="#fcf2cf" stroke="none" d="M9.15 13.6 Q9.8 12.8 9.55 11.6 L9.1 10.55 22.05 6.35 Q24.9 5.45 26.25 7.85 L26.5 8.3 35.8 29.0 35.95 29.35 Q34.75 29.3 34.1 30.1 33.45 30.9 33.7 32.1 L34.0 32.9 20.65 37.2 Q18.8 37.8 17.65 37.0 16.8 36.4 16.3 35.2 L6.95 14.6 6.8 14.4 7.1 14.4 Q8.4 14.45 9.15 13.6"/><path fill="#c47fad" stroke="none" d="M9.15 13.6 Q8.4 14.45 7.1 14.4 L6.8 14.4 6.95 14.6 16.3 35.2 Q16.8 36.4 17.65 37.0 18.8 37.8 20.65 37.2 L34.0 32.9 33.7 32.1 Q33.45 30.9 34.1 30.1 34.75 29.3 35.95 29.35 L35.8 29.0 26.5 8.3 26.25 7.85 Q24.9 5.45 22.05 6.35 L9.1 10.55 9.55 11.6 Q9.8 12.8 9.15 13.6 M28.25 6.1 L35.55 22.3 39.35 30.75 Q41.1 34.5 37.2 35.7 L20.45 41.1 Q16.8 42.25 15.2 39.0 L15.0 38.6 8.25 23.65 3.35 12.8 Q1.65 9.1 5.5 7.85 L22.25 2.5 Q26.05 1.25 27.75 4.95 L28.25 6.1"/><path fill="none" stroke="#ffcc00" stroke-width="1.0" stroke-opacity="0.749019607843" d="M35.55 22.3 L39.35 30.75 Q41.1 34.5 37.2 35.7 L20.45 41.1 Q16.8 42.25 15.2 39.0 L15.0 38.6 M8.25 23.65 L3.35 12.8 Q1.65 9.1 5.5 7.85 L22.25 2.5 Q26.05 1.25 27.75 4.95 L28.25 6.1"/><path fill="none" stroke="#bf9900" stroke-width="1.0" stroke-opacity="0.749019607843" d="M28.25 6.1 L35.55 22.3 M15.0 38.6 L8.25 23.65"/><path fill="none" stroke="#f0b92b" stroke-width="0.5" d="M9.15 13.6 Q9.8 12.8 9.55 11.6 L9.1 10.55 22.05 6.35 Q24.9 5.45 26.25 7.85 L26.5 8.3 35.8 29.0 35.95 29.35 Q34.75 29.3 34.1 30.1 33.45 30.9 33.7 32.1 L34.0 32.9 20.65 37.2 Q18.8 37.8 17.65 37.0 16.8 36.4 16.3 35.2 L6.95 14.6 6.8 14.4 7.1 14.4 Q8.4 14.45 9.15 13.6"/></g><g id="c3"><path fill="#7fdbfe" stroke="none" d="M10.75 4.9 Q10.75 4.6 10.9 4.35 11.25 3.45 11.95 2.75 13.3 1.5 14.35 2.1 15.4 2.7 14.95 4.45 14.7 5.4 14.1 6.15 L13.75 6.5 Q13.1 7.15 12.35 7.35 L11.4 7.2 Q10.95 6.9 10.75 6.4 10.5 5.75 10.75 4.9 M7.5 5.9 Q7.0 5.85 6.6 5.5 6.05 5.0 5.8 4.15 L5.7 3.6 Q5.55 2.65 5.8 1.7 6.25 0.0 7.5 0.0 L7.6 0.0 Q8.85 0.0 9.3 1.7 9.55 2.65 9.4 3.6 L9.3 4.15 8.5 5.5 7.6 5.9 7.5 5.9 M4.35 4.9 Q4.6 5.75 4.35 6.4 L3.7 7.2 2.75 7.35 Q2.0 7.15 1.35 6.5 L1.0 6.15 Q0.4 5.4 0.15 4.45 -0.3 2.7 0.75 2.1 1.8 1.5 3.15 2.75 3.85 3.45 4.2 4.35 L4.35 4.9 M5.5 13.7 Q4.45 13.9 3.65 12.95 2.75 12.0 3.2 10.25 3.7 8.5 5.25 7.6 6.4 6.9 7.55 7.0 8.75 6.9 9.9 7.6 11.45 8.5 11.95 10.25 12.35 12.0 11.5 12.95 10.7 13.9 9.65 13.7 8.55 13.5 7.55 12.6 6.55 13.5 5.5 13.7"/></g><g id="c4"><g><use transform="matrix(1.0,0.0,0.0,1.0,0.0,0.0)" xlink:href="#c3"/></g></g><radialGradient gradientUnits="userSpaceOnUse" r="819.2" cx="0" cy="0" spreadMethod="pad" gradientTransform="matrix(0.0914459228516,0.0,0.0,0.0914459228516,0.6,3.4)" id="gradient1"><stop offset="0.0" stop-color="#ffffff"/><stop offset="1.0" stop-color="#ffffff" stop-opacity="0.0"/></radialGradient><g id="c5"><path stroke="none" fill="url(#gradient1)" d="M36.65 -54.65 Q60.05 -42.0 69.75 -17.95 80.55 8.9 68.0 34.1 55.45 59.35 26.8 68.2 -1.8 77.05 -29.7 64.3 -57.6 51.6 -68.45 24.75 -79.3 -2.05 -66.75 -27.25 L-66.7 -27.3 Q-54.1 -52.5 -25.5 -61.4 3.1 -70.2 31.0 -57.5 L36.65 -54.65"/></g><g id="c6"><g><use transform="matrix(1.0,0.0,0.0,1.0,0.0,0.0)" xlink:href="#c5"/></g></g><radialGradient gradientUnits="userSpaceOnUse" r="819.2" cx="0" cy="0" spreadMethod="pad" gradientTransform="matrix(0.209197998047,0.0,0.0,0.177108764648,67.15,107.2)" id="gradient2"><stop offset="0.356862745098" stop-color="#ffffff"/><stop offset="0.670588235294" stop-opacity="0.0"/></radialGradient><g id="c7"><path fill="none" stroke-linejoin="round" stroke-linecap="round" stroke="url(#gradient2)" stroke-width="0.5" d="M136.55 165.8 L68.6 106.0 68.4 106.0 118.25 201.5 M68.3 105.8 L68.35 105.8 68.3 105.8 68.3 105.85 68.4 106.0 68.3 106.0 86.55 211.5 M68.3 105.8 L68.3 105.85 68.3 106.0 68.15 105.95 18.25 151.55 M68.3 105.85 L68.25 105.85 68.3 106.0 50.0 193.2 M68.25 105.85 L68.15 105.95 0.05 97.7 M68.3 105.85 L68.25 105.8 68.25 105.85 M68.25 105.8 L68.2 105.7 0.0 45.7 M68.3 105.8 L68.25 105.75 68.25 105.8 M68.25 105.75 L68.2 105.7 18.25 10.05 M68.6 106.0 L68.35 105.8 118.25 60.15 M86.6 18.35 L68.3 105.8 M136.6 114.25 L68.6 106.0 M68.25 105.75 L49.95 0.05"/></g><g id="c8"><g><use transform="matrix(1.0,0.0,0.0,1.0,0.0,0.0)" xlink:href="#c7"/></g></g><g id="c9"><g><use transform="matrix(1.0,0.0,0.0,1.0,0.0,0.0)" xlink:href="#c2"/></g><g><use transform="matrix(0.238861083984,-0.0867004394531,0.10026550293,0.233917236328,34.25,31.15)" xlink:href="#c4"/></g><g><use transform="matrix(0.238861083984,-0.0867004394531,0.10026550293,0.233917236328,4.25,10.3)" xlink:href="#c4"/></g><g><use transform="matrix(0.141098022461,-0.0378112792969,0.111373901367,0.225646972656,20.25,20.65)" filter="url(#filter7)" xlink:href="#c6"/></g><g><use transform="matrix(-0.155029296875,0.0513153076172,0.0841827392578,0.147033691406,22.6,3.15)" filter="url(#filter8)" xlink:href="#c8"/></g></g><filter id="filter7"><feColorMatrix in="SourceGraphic" type="matrix" values="0.0 0.0 0.0 0.0 0.796875 0.0 0.0 0.0 0.0 0.59765625 0.0 0.0 0.0 0.0 0.19921875 0.0 0.0 0.0 1.0 0.0" result="cxform"/><feComposite operator="in" in2="SourceGraphic" result="color-xform"/></filter><filter id="filter8"><feColorMatrix in="SourceGraphic" type="matrix" values="0.0 0.0 0.0 0.0 0.99609375 0.0 0.0 0.0 0.0 0.99609375 0.0 0.0 0.0 0.0 0.99609375 0.0 0.0 0.0 1.0 0.0" result="cxform"/><feComposite operator="in" in2="SourceGraphic" result="color-xform"/></filter><linearGradient gradientUnits="userSpaceOnUse" x1="-819.2" x2="819.2" spreadMethod="pad" gradientTransform="matrix(0.0332794189453,0.0331420898438,-0.019775390625,0.0198974609375,64.2,33.15)" id="gradient3"><stop offset="0.0" stop-color="#e3b25a"/><stop offset="1.0" stop-color="#9e783f"/></linearGradient><g id="c10"><path fill="none" stroke="#000000" stroke-width="1.0" stroke-opacity="0.301960784314" d="M78.05 15.5 Q80.05 14.2 84.5 13.45 L85.95 13.6 Q89.1 14.05 90.25 15.35 91.7 16.8 90.55 19.2 L91.7 20.1 92.85 20.8 Q94.85 19.8 98.6 19.2 L100.05 19.35 Q103.2 19.8 104.35 21.1 105.2 21.8 105.2 22.95 105.2 24.25 103.9 26.25 L102.9 27.7 102.75 27.7 103.6 28.4 103.9 28.7 104.5 29.4 105.5 30.55 106.65 32.15 Q107.95 34.3 108.65 36.45 L109.25 40.65 108.35 45.5 107.65 47.25 109.95 49.25 113.7 53.15 113.95 53.4 114.4 54.15 115.25 55.45 116.25 57.15 116.7 58.3 Q119.0 64.5 116.7 70.1 115.55 72.7 113.4 75.1 L110.5 78.0 Q89.25 86.6 71.7 90.35 L73.0 89.05 Q72.45 89.65 71.3 89.65 L70.55 89.5 70.85 91.65 Q72.15 91.95 72.6 92.5 73.9 93.65 72.45 95.65 L71.15 97.1 Q71.15 102.55 69.55 105.75 63.55 109.75 57.9 112.9 L58.35 114.8 Q58.5 116.35 56.05 116.8 53.45 117.2 52.2 115.95 L52.05 115.8 Q46.15 118.5 40.7 120.25 28.3 122.4 21.15 116.35 16.25 112.5 13.25 107.15 L12.65 106.6 11.35 103.85 10.05 101.15 9.95 100.85 9.5 99.85 9.05 98.1 8.9 97.95 Q9.2 94.25 11.2 90.5 11.95 88.65 13.1 87.05 L13.65 86.35 13.95 85.9 Q17.25 81.6 22.55 77.0 19.85 76.0 18.25 73.85 17.85 73.4 17.7 72.8 L17.25 71.8 Q16.8 70.25 16.7 68.5 16.55 68.5 16.4 68.65 15.25 69.25 14.1 68.95 13.35 69.25 12.8 68.95 11.65 68.8 10.65 68.2 L10.2 67.95 Q9.2 66.95 8.35 65.2 7.5 63.2 7.2 61.05 7.05 59.6 7.05 58.0 4.45 57.15 4.3 56.75 L4.2 56.45 4.05 56.15 3.6 54.0 3.45 51.7 Q3.45 45.5 5.9 41.05 7.35 37.05 10.65 34.0 11.35 32.6 13.8 31.6 14.8 31.0 16.1 30.7 L17.7 30.3 Q18.1 30.15 18.55 30.45 22.3 30.15 24.6 32.15 L24.6 32.3 Q31.5 28.55 41.55 25.4 L41.55 25.25 Q41.55 25.1 41.7 25.1 41.7 24.7 41.95 24.25 42.85 22.8 45.55 21.5 46.3 21.1 47.0 20.95 52.05 20.5 54.35 21.5 L78.05 15.5"/><path fill="#ebbc5e" stroke="none" d="M22.0 57.85 L25.45 64.35 Q28.75 70.35 28.75 72.55 28.75 73.8 28.0 74.25 L25.7 74.55 24.4 74.4 Q19.25 72.1 16.25 67.95 12.5 63.05 10.9 57.15 L10.65 56.3 Q10.2 55.0 10.05 53.55 9.6 52.0 9.5 50.55 L9.5 50.25 9.35 49.1 Q9.2 48.25 9.35 47.4 L9.35 47.25 Q10.5 43.65 13.5 40.35 14.65 38.9 16.25 37.45 L16.8 37.05 17.4 36.6 17.25 36.9 17.25 37.45 16.5 41.8 16.4 44.2 Q16.25 46.25 16.5 48.4 L17.65 52.55 18.55 55.15 21.25 57.45 21.55 57.6 22.0 57.85"/><path stroke="none" fill="url(#gradient3)" d="M24.4 74.4 L25.7 74.55 28.0 74.25 Q28.75 73.8 28.75 72.55 28.75 70.35 25.45 64.35 L22.0 57.85 22.55 58.15 22.7 58.15 Q26.6 60.15 30.45 59.75 35.2 59.15 40.35 56.3 L50.7 49.8 Q67.1 40.35 94.55 37.05 L101.15 36.15 Q103.75 35.3 105.35 32.85 L105.2 30.55 106.35 32.15 Q111.8 41.35 105.45 50.4 L102.9 53.55 Q61.95 75.85 34.05 76.85 28.45 76.25 24.4 74.4"/><path fill="#ffcc00" stroke="none" d="M22.0 57.85 L21.55 57.6 21.25 57.45 18.55 55.15 17.65 52.55 16.5 48.4 Q16.25 46.25 16.4 44.2 L16.5 41.8 17.25 37.45 17.25 36.9 17.4 36.6 Q25.85 30.15 41.95 25.1 59.2 19.35 83.5 14.2 L84.8 13.9 85.2 14.35 87.5 16.8 88.95 18.05 91.4 20.1 99.15 24.95 103.3 28.4 103.6 28.7 104.2 29.4 105.2 30.55 105.35 32.85 Q103.75 35.3 101.15 36.15 L94.55 37.05 Q67.1 40.35 50.7 49.8 L40.35 56.3 Q35.2 59.15 30.45 59.75 26.6 60.15 22.7 58.15 L22.55 58.15 22.0 57.85"/><path fill="none" stroke="#845a1e" stroke-width="0.5" stroke-opacity="0.2" d="M17.4 36.6 L16.8 37.05 16.25 37.45 Q14.65 38.9 13.5 40.35 10.5 43.65 9.35 47.25 L9.35 47.4 Q9.2 48.25 9.35 49.1 L9.5 50.25 9.5 50.55 Q9.6 52.0 10.05 53.55 10.2 55.0 10.65 56.3 L10.9 57.15 Q12.5 63.05 16.25 67.95 19.25 72.1 24.4 74.4 28.45 76.25 34.05 76.85 61.95 75.85 102.9 53.55 L105.45 50.4 Q111.8 41.35 106.35 32.15 L105.2 30.55 104.2 29.4 103.6 28.7 103.3 28.4 99.15 24.95 91.4 20.1 88.95 18.05 87.5 16.8 85.2 14.35 84.8 13.9 83.5 14.2 Q59.2 19.35 41.95 25.1 25.85 30.15 17.4 36.6"/><path fill="#ffcc00" stroke="none" d="M41.65 24.25 Q42.55 22.8 45.25 21.5 46.0 21.1 46.7 20.95 55.2 20.2 55.75 23.25 56.05 25.1 53.3 28.4 L52.15 29.7 Q50.7 30.85 49.3 31.15 46.55 31.7 43.4 29.15 40.25 26.55 41.65 24.25"/><path fill="none" stroke="#85591e" stroke-width="0.5" stroke-opacity="0.352941176471" d="M49.3 31.15 Q46.55 31.7 43.4 29.15 40.25 26.55 41.65 24.25"/><path fill="none" stroke="#845a1e" stroke-width="0.5" stroke-opacity="0.2" d="M41.65 24.25 Q42.55 22.8 45.25 21.5 46.0 21.1 46.7 20.95 55.2 20.2 55.75 23.25"/><path fill="#ffe7c7" stroke="none" d="M50.45 21.1 L50.7 21.4 Q48.4 24.7 43.55 22.95 43.1 22.8 43.1 22.4 44.25 21.1 46.4 20.4 L47.25 20.1 Q49.55 19.5 50.45 21.1"/></g><g id="c11"><path fill="#ffcc00" stroke="none" d="M2.55 -2.8 Q2.65 -2.15 1.7 -1.0 L1.3 -0.55 Q0.8 -0.15 0.3 -0.05 -0.65 0.15 -1.75 -0.75 -2.85 -1.65 -2.35 -2.45 L-1.1 -3.4 -0.6 -3.6 Q2.35 -3.85 2.55 -2.8"/><path fill="none" stroke="#85591e" stroke-width="0.5" stroke-opacity="0.352941176471" d="M0.3 -0.05 Q-0.65 0.15 -1.75 -0.75 -2.85 -1.65 -2.35 -2.45"/><path fill="none" stroke="#845a1e" stroke-width="0.5" stroke-opacity="0.2" d="M-2.35 -2.45 L-1.1 -3.4 -0.6 -3.6 Q2.35 -3.85 2.55 -2.8"/><path fill="#ffe7c7" stroke="none" d="M0.95 -3.1 L1.05 -3.0 Q0.25 -1.85 -1.45 -2.45 L-1.6 -2.65 Q-1.2 -3.1 -0.45 -3.35 L-0.15 -3.45 Q0.65 -3.65 0.95 -3.1"/></g><g id="c12"><g><use transform="matrix(1.0,0.0,0.0,1.0,0.0,0.0)" xlink:href="#c11"/></g></g><g id="c13"><path fill="#dbaf57" stroke="none" d="M2.55 -2.8 Q2.65 -2.15 1.7 -1.0 L1.3 -0.55 Q0.8 -0.15 0.3 -0.05 -0.65 0.15 -1.75 -0.75 -2.85 -1.65 -2.35 -2.45 L-1.1 -3.4 -0.6 -3.6 Q2.35 -3.85 2.55 -2.8"/><path fill="none" stroke="#85591e" stroke-width="0.5" stroke-opacity="0.352941176471" d="M0.3 -0.05 Q-0.65 0.15 -1.75 -0.75 -2.85 -1.65 -2.35 -2.45"/><path fill="none" stroke="#845a1e" stroke-width="0.5" stroke-opacity="0.2" d="M-2.35 -2.45 L-1.1 -3.4 -0.6 -3.6 Q2.35 -3.85 2.55 -2.8"/><path fill="#ffcc00" stroke="none" d="M1.05 -3.0 Q0.25 -1.85 -1.45 -2.45 L-1.6 -2.65 Q-1.2 -3.1 -0.45 -3.35 L-0.15 -3.45 Q0.65 -3.65 0.95 -3.1 L1.05 -3.0"/></g><g id="c14"><g><use transform="matrix(1.0,0.0,0.0,1.0,0.0,0.0)" xlink:href="#c13"/></g></g><g id="c15"><path fill="none" stroke="#85591e" stroke-width="0.5" stroke-opacity="0.4" d="M85.15 12.7 L83.7 12.55 Q79.25 13.3 77.25 14.6 64.3 17.45 53.55 20.6 51.25 19.6 46.2 20.05 L44.8 20.6 Q42.05 21.9 41.2 23.35 40.9 23.95 40.75 24.5 29.85 27.95 22.5 32.1 L22.35 32.1 Q20.5 30.25 13.45 32.85 12.9 33.1 12.3 33.85 10.0 35.7 9.45 37.3 8.85 39.6 11.6 41.15 9.7 43.6 8.85 46.35 L8.85 46.5 Q8.7 47.35 8.85 48.2 L9.0 49.35 9.0 49.65 9.55 52.65 Q9.7 54.1 10.15 55.4 10.15 55.8 10.45 56.25 12.0 62.15 15.75 67.05 18.75 71.2 23.95 73.5 27.95 75.35 33.55 75.95 61.45 74.95 102.4 52.65 L105.0 49.5 Q111.3 40.45 105.85 31.25 L104.7 29.65 103.7 28.5 103.1 27.8 102.85 27.5 101.95 26.8 103.1 25.35 Q105.4 21.9 103.55 20.2 102.4 18.9 99.25 18.45 L97.8 18.3 Q94.05 18.9 92.05 19.9 L90.9 19.2 89.9 18.3 Q90.9 15.9 89.45 14.45 88.3 13.15 85.15 12.7"/></g><g id="c16"><path fill="#d9c29e" stroke="none" d="M33.75 45.2 L29.25 43.65 Q20.05 39.9 20.05 36.45 20.05 35.0 21.8 33.85 L24.25 32.15 24.4 32.4 Q24.65 40.35 33.75 45.2 M40.2 55.4 Q41.05 55.4 41.75 54.7 42.5 54.0 42.5 53.25 L42.65 53.25 Q43.05 55.15 42.5 57.3 42.2 58.6 42.2 59.75 L42.2 60.9 41.35 64.2 Q40.75 66.2 40.75 67.75 40.75 69.2 41.5 70.05 L41.2 68.65 Q41.2 66.6 43.05 66.6 L43.65 66.75 43.8 67.5 43.8 69.05 Q44.05 70.5 43.5 71.35 41.5 77.7 28.55 77.7 20.8 77.7 17.8 73.5 L18.05 73.25 Q19.05 73.95 20.35 73.95 22.35 74.1 22.95 70.2 23.8 66.2 25.1 66.35 L27.4 68.5 Q29.4 70.8 30.7 70.8 34.75 70.95 34.9 65.05 34.9 59.15 36.3 59.3 37.05 59.3 37.45 60.0 38.05 60.75 38.75 60.75 41.2 60.9 41.2 58.15 41.2 57.0 40.2 55.4"/><path fill="#fff8ee" stroke="none" d="M24.25 32.15 L21.8 33.85 Q20.05 35.0 20.05 36.45 20.05 39.9 29.25 43.65 L33.75 45.2 36.45 46.65 Q39.45 47.95 41.2 50.1 L42.5 53.25 Q42.5 54.0 41.75 54.7 41.05 55.4 40.2 55.4 L34.75 54.4 Q33.3 54.4 31.3 55.7 29.25 57.15 27.85 57.0 24.55 57.0 22.25 52.55 L19.35 46.35 14.2 41.75 Q10.15 38.3 10.15 35.75 10.15 33.55 11.75 32.3 L11.9 32.15 Q13.9 30.7 16.35 30.25 L17.05 30.25 17.8 30.15 Q21.95 29.7 24.25 32.15"/><path fill="#f5e3c8" stroke="none" d="M11.75 32.3 Q10.15 33.55 10.15 35.75 10.15 38.3 14.2 41.75 L19.35 46.35 22.25 52.55 Q24.55 57.0 27.85 57.0 29.25 57.15 31.3 55.7 33.3 54.4 34.75 54.4 L40.2 55.4 Q41.2 57.0 41.2 58.15 41.2 60.9 38.75 60.75 38.05 60.75 37.45 60.0 37.05 59.3 36.3 59.3 34.9 59.15 34.9 65.05 34.75 70.95 30.7 70.8 29.4 70.8 27.4 68.5 L25.1 66.35 Q23.8 66.2 22.95 70.2 22.35 74.1 20.35 73.95 19.05 73.95 18.05 73.25 L17.8 73.5 Q17.35 73.1 17.2 72.5 L16.75 71.5 Q16.35 69.95 16.2 68.2 16.05 68.2 15.9 68.35 L15.35 62.75 Q15.05 59.0 13.2 58.45 14.2 59.3 14.2 62.6 14.2 64.3 12.9 66.05 11.75 67.65 10.15 67.65 L10.15 67.9 9.75 67.65 Q8.7 66.6 7.85 64.9 7.0 62.9 6.7 60.75 10.75 60.3 12.75 54.1 14.6 47.95 15.35 46.5 14.35 47.5 12.3 52.85 10.45 57.7 6.55 57.7 4.0 56.85 3.85 56.4 L3.7 56.15 3.55 55.85 3.1 53.7 Q2.95 52.55 2.95 51.4 2.95 45.2 5.4 40.75 7.15 35.75 11.75 32.3"/><path fill="#d1ba98" stroke="none" d="M6.7 60.75 Q6.55 59.3 6.55 57.7 10.45 57.7 12.3 52.85 14.35 47.5 15.35 46.5 14.6 47.95 12.75 54.1 10.75 60.3 6.7 60.75 M10.15 67.9 L10.15 67.65 Q11.75 67.65 12.9 66.05 14.2 64.3 14.2 62.6 14.2 59.3 13.2 58.45 15.05 59.0 15.35 62.75 L15.9 68.35 Q14.75 68.9 13.6 68.65 12.9 68.9 12.3 68.65 11.15 68.5 10.15 67.9 M42.2 60.9 Q42.05 61.6 42.2 62.45 43.35 64.75 43.65 66.75 L43.05 66.6 Q41.2 66.6 41.2 68.65 L41.5 70.05 Q40.75 69.2 40.75 67.75 40.75 66.2 41.35 64.2 L42.2 60.9"/><path fill="none" stroke="#bd9355" stroke-width="0.5" stroke-opacity="0.462745098039" d="M24.25 32.15 Q21.95 29.7 17.8 30.15 L17.05 30.25 16.35 30.25 Q13.9 30.7 11.9 32.15 L11.75 32.3 M41.2 50.1 Q39.45 47.95 36.45 46.65 L33.75 45.2 Q24.65 40.35 24.4 32.4 L24.25 32.15 M3.1 53.7 Q2.95 52.55 2.95 51.4 2.95 45.2 5.4 40.75 7.15 35.75 11.75 32.3 M6.7 60.75 Q6.55 59.3 6.55 57.7 4.0 56.85 3.85 56.4 L3.7 56.15 3.55 55.85 Q3.25 55.0 3.1 54.0 L3.1 53.7 3.55 55.85 M13.2 58.45 Q15.05 59.0 15.35 62.75 L15.9 68.35 Q16.05 68.2 16.2 68.2 16.35 69.95 16.75 71.5 M10.15 67.9 L9.75 67.65 Q8.7 66.6 7.85 64.9 7.0 62.9 6.7 60.75 M15.35 46.5 Q14.35 47.5 12.3 52.85 10.45 57.7 6.55 57.7 M15.9 68.35 Q14.75 68.9 13.6 68.65 12.9 68.9 12.3 68.65 11.15 68.5 10.15 67.9 M42.65 53.25 Q43.05 55.15 42.5 57.3 42.2 58.6 42.2 59.75 L42.2 60.9 Q42.05 61.6 42.2 62.45 43.35 64.75 43.65 66.75 M43.8 67.5 L43.8 69.05 Q44.05 70.5 43.5 71.35 41.5 77.7 28.55 77.7 20.8 77.7 17.8 73.5 M42.2 60.9 L41.35 64.2 Q40.75 66.2 40.75 67.75 40.75 69.2 41.5 70.05 M41.2 50.1 Q42.2 51.55 42.65 53.25"/><path fill="none" stroke="#000000" stroke-width="0.5" stroke-opacity="0.352941176471" d="M17.2 72.5 Q17.35 73.1 17.8 73.5"/></g><g id="c17"><path fill="#ffffff" stroke="none" d="M6.8 -6.35 Q6.95 -4.5 4.6 -5.35 L4.35 -5.5 1.8 -4.9 Q1.35 -4.8 1.0 -5.2 -0.15 -6.65 -0.7 -8.15 -2.25 -9.15 -3.55 -10.8 -4.85 -12.5 -2.85 -13.45 L-1.6 -13.95 -1.25 -13.85 -1.2 -13.85 Q-3.95 -13.35 -3.4 -11.15 L-3.15 -10.75 -0.8 -8.55 -1.0 -9.2 Q0.15 -7.25 1.6 -5.4 2.15 -4.7 2.9 -5.3 4.3 -6.35 5.85 -5.95 L4.55 -5.55 Q5.95 -5.15 6.65 -6.25 L6.8 -6.35 M3.9 -3.1 L3.85 -3.1 Q3.1 -3.7 4.1 -4.2 L4.2 -4.2 Q4.4 -3.75 3.9 -3.1 M0.25 -2.2 Q0.55 -1.85 0.2 -1.0 L-0.4 0.0 Q-1.05 -1.25 0.2 -2.15 L0.25 -2.2 M-5.2 -5.6 Q-6.55 -7.35 -5.2 -9.5 -5.35 -7.6 -5.15 -5.65 L-5.2 -5.6 M-3.65 -1.85 L-3.7 -1.85 Q-3.05 -2.7 -3.15 -3.75 L-3.1 -3.85 Q-2.05 -2.4 -3.65 -1.85"/></g><g id="c18"><g><use transform="matrix(1.0,0.0,0.0,1.0,0.0,0.0)" xlink:href="#c17"/></g></g><g id="c19"><path fill="#ffcc66" stroke="none" d="M58.05 41.8 L57.9 41.65 58.2 41.65 58.05 41.8"/><path fill="#ffcc00" stroke="none" d="M58.05 41.8 L58.2 41.65 Q74.15 38.6 95.25 36.6 L96.55 36.45 97.0 37.05 99.0 39.6 100.3 41.05 102.6 43.35 109.65 49.25 Q111.65 50.95 113.35 53.15 L113.65 53.4 114.1 54.15 114.95 55.45 114.95 57.75 Q113.1 59.9 110.35 60.45 L103.75 60.6 Q90.25 60.6 79.3 62.45 77.6 57.15 71.4 52.25 L58.05 41.8"/><path fill="#deb158" stroke="none" d="M57.9 41.65 L58.05 41.8 71.4 52.25 Q77.6 57.15 79.3 62.45 79.75 64.2 79.75 66.05 79.75 71.95 77.15 80.0 75.3 85.9 72.7 89.05 72.15 89.6 71.0 89.6 68.4 89.6 58.6 74.25 48.55 58.45 48.55 53.0 48.55 49.8 52.75 45.65 56.05 42.2 57.9 41.65"/><path fill="#bd974b" stroke="none" d="M72.7 89.05 Q75.3 85.9 77.15 80.0 79.75 71.95 79.75 66.05 79.75 64.2 79.3 62.45 90.25 60.6 103.75 60.6 L110.35 60.45 Q113.1 59.9 114.95 57.75 L114.95 55.45 115.95 57.15 116.4 58.3 Q118.7 64.5 116.4 70.1 115.25 72.65 113.1 75.1 L110.2 78.0 Q88.95 86.6 71.4 90.35 L72.7 89.05"/><path fill="none" stroke="#85591e" stroke-width="0.5" stroke-opacity="0.4" d="M58.2 41.65 L57.9 41.65 Q56.05 42.2 52.75 45.65 48.55 49.8 48.55 53.0 48.55 58.45 58.6 74.25 68.4 89.6 71.0 89.6 72.15 89.6 72.7 89.05 M114.95 55.45 L114.1 54.15 113.65 53.4 113.35 53.15 Q111.65 50.95 109.65 49.25 L102.6 43.35 100.3 41.05 99.0 39.6 97.0 37.05 96.55 36.45 95.25 36.6 Q74.15 38.6 58.2 41.65 M114.95 55.45 L115.95 57.15 116.4 58.3 Q118.7 64.5 116.4 70.1 115.25 72.65 113.1 75.1 L110.2 78.0 Q88.95 86.6 71.4 90.35"/><path fill="none" stroke="#845a1e" stroke-width="0.5" stroke-opacity="0.2" d="M57.9 41.65 L58.05 41.8 M72.7 89.05 Q75.3 85.9 77.15 80.0 79.75 71.95 79.75 66.05 79.75 64.2 79.3 62.45 77.6 57.15 71.4 52.25 L58.05 41.8 M79.3 62.45 Q90.25 60.6 103.75 60.6 L110.35 60.45 Q113.1 59.9 114.95 57.75 L114.95 55.45 M71.4 90.35 L72.7 89.05"/><path fill="#e8e1d7" stroke="none" d="M52.8 60.45 Q52.25 58.85 52.25 57.85 52.25 56.0 54.8 53.4 56.7 51.55 57.85 51.1 L58.7 51.7 66.15 57.4 Q69.9 60.3 70.9 63.6 L71.05 63.9 71.2 65.75 Q71.2 69.35 69.6 74.25 68.75 76.8 67.6 78.7 L66.9 79.7 66.45 80.0 65.9 80.0 Q64.3 80.0 58.4 70.65 54.1 64.05 52.8 60.45"/><path fill="#ffffff" stroke="none" d="M71.05 63.9 L70.9 63.6 Q69.9 60.3 66.15 57.4 L58.7 51.7 57.85 51.1 Q57.85 50.95 58.0 50.95 L57.7 50.95 58.25 50.65 60.3 49.8 64.15 52.95 67.05 55.1 68.45 56.25 70.75 58.45 72.5 60.75 73.2 62.45 71.05 63.9"/><path fill="#d1c1ab" stroke="none" d="M66.9 79.7 L67.6 78.7 Q68.75 76.8 69.6 74.25 71.2 69.35 71.2 65.75 L71.05 63.9 73.2 62.45 73.5 64.6 Q73.5 68.2 71.9 73.1 70.75 76.55 69.2 78.55 L68.75 78.85 66.9 79.7"/><path fill="none" stroke="#ad9371" stroke-width="0.5" stroke-opacity="0.2" d="M57.85 51.1 Q56.7 51.55 54.8 53.4 52.25 56.0 52.25 57.85 52.25 58.85 52.8 60.45 M66.9 79.7 L67.6 78.7 Q68.75 76.8 69.6 74.25 71.2 69.35 71.2 65.75 L71.05 63.9 M57.85 51.1 Q57.85 50.95 58.0 50.95 L57.7 50.95 58.25 50.65 60.3 49.8 64.15 52.95 M67.05 55.1 L68.45 56.25 70.75 58.45 M72.5 60.75 L73.2 62.45"/><path fill="none" stroke="#564432" stroke-width="0.5" stroke-opacity="0.2" d="M52.8 60.45 Q54.1 64.05 58.4 70.65 64.3 80.0 65.9 80.0 L66.45 80.0 66.9 79.7 M64.15 52.95 L67.05 55.1 M70.75 58.45 L72.5 60.75"/><path fill="none" stroke="#3d3023" stroke-width="0.5" stroke-opacity="0.352941176471" d="M73.2 62.45 L73.5 64.6 Q73.5 68.2 71.9 73.1 70.75 76.55 69.2 78.55 L68.75 78.85"/><path fill="none" stroke="#574432" stroke-width="0.5" stroke-opacity="0.352941176471" d="M68.75 78.85 L66.9 79.7"/><path fill="#dbaf57" stroke="none" d="M66.25 77.0 Q67.4 78.4 67.95 80.15 70.25 85.6 70.7 94.1 71.25 101.7 69.25 105.7 53.9 116.05 40.35 120.25 28.0 122.4 20.85 116.35 15.95 112.45 12.95 107.15 L12.35 106.6 11.05 103.85 11.65 103.55 Q13.65 106.0 16.4 105.0 17.1 104.55 17.55 103.25 17.65 101.7 18.1 101.1 L19.7 103.4 Q21.25 104.3 23.15 105.0 L24.3 105.3 24.4 105.3 Q28.6 106.15 32.2 104.7 36.8 103.0 40.95 98.8 L49.15 89.9 Q56.05 83.0 66.25 77.0"/><path fill="#ffcc00" stroke="none" d="M13.65 85.9 Q20.1 77.4 34.35 68.2 L38.65 65.5 55.2 70.35 Q62.65 72.55 66.25 77.0 56.05 83.0 49.15 89.9 L40.95 98.8 Q36.8 103.0 32.2 104.7 28.6 106.15 24.4 105.3 L24.3 105.3 23.15 105.0 Q21.25 104.3 19.7 103.4 L18.1 101.1 Q16.8 99.25 15.95 97.4 15.1 95.5 14.65 93.5 L14.2 91.05 13.65 86.6 Q13.5 86.3 13.65 86.2 L13.65 85.9"/><path fill="#edbd5e" stroke="none" d="M11.05 103.85 L9.75 101.1 9.6 100.85 9.2 99.85 8.75 98.1 8.6 97.95 Q8.9 94.2 10.9 90.5 11.65 88.6 12.8 87.05 12.95 86.6 13.35 86.3 L13.65 85.9 13.65 86.2 Q13.5 86.3 13.65 86.6 L14.2 91.05 14.65 93.5 Q15.1 95.5 15.95 97.4 16.8 99.25 18.1 101.1 17.65 101.7 17.55 103.25 17.1 104.55 16.4 105.0 13.65 106.0 11.65 103.55 L11.05 103.85"/><path fill="none" stroke="#85591e" stroke-width="0.5" stroke-opacity="0.4" d="M13.65 85.9 Q20.1 77.4 34.35 68.2 L38.65 65.5 55.2 70.35 Q62.65 72.55 66.25 77.0 67.4 78.4 67.95 80.15 70.25 85.6 70.7 94.1 71.25 101.7 69.25 105.7 53.9 116.05 40.35 120.25 28.0 122.4 20.85 116.35 15.95 112.45 12.95 107.15 L12.35 106.6 11.05 103.85 9.75 101.1 9.6 100.85 9.2 99.85 8.75 98.1 8.6 97.95 Q8.9 94.2 10.9 90.5 11.65 88.6 12.8 87.05 12.95 86.6 13.35 86.3 L13.65 85.9"/><path fill="#ffcc00" stroke="none" d="M86.2 45.8 Q83.35 45.8 81.05 42.5 78.75 39.05 80.6 37.3 81.75 36.05 84.9 35.6 L86.35 35.45 Q94.7 36.9 94.55 39.9 94.25 41.9 90.8 44.35 L89.4 45.35 86.2 45.8"/><path fill="none" stroke="#85591e" stroke-width="0.5" stroke-opacity="0.352941176471" d="M86.2 45.8 Q83.35 45.8 81.05 42.5 78.75 39.05 80.6 37.3"/><path fill="none" stroke="#845a1e" stroke-width="0.5" stroke-opacity="0.2" d="M80.6 37.3 Q81.75 36.05 84.9 35.6 L86.35 35.45 Q94.7 36.9 94.55 39.9"/><path fill="#ffe7c7" stroke="none" d="M89.15 36.8 L89.3 37.1 Q86.25 39.7 82.0 36.8 81.6 36.55 81.7 36.15 83.2 35.2 85.4 35.05 L86.35 34.95 Q88.7 35.0 89.15 36.8"/></g><g id="c20"><path fill="#ffcc00" stroke="none" d="M15.35 95.95 Q13.05 94.1 18.1 87.05 L19.25 86.05 Q21.7 84.3 23.4 84.3 26.0 84.3 26.7 88.35 27.45 92.35 25.55 94.35 24.55 95.5 22.85 96.1 L21.25 96.4 Q16.95 97.25 15.35 95.95"/><path fill="none" stroke="#845a1e" stroke-width="0.5" stroke-opacity="0.2" d="M23.4 84.3 Q21.7 84.3 19.25 86.05 L18.1 87.05 Q13.05 94.1 15.35 95.95"/><path fill="none" stroke="#85591e" stroke-width="0.5" stroke-opacity="0.352941176471" d="M25.55 94.35 Q27.45 92.35 26.7 88.35 26.0 84.3 23.4 84.3"/><path fill="#ffe7c7" stroke="none" d="M15.8 90.2 L15.9 90.6 Q19.9 90.25 20.85 85.15 21.0 84.75 20.65 84.5 18.9 84.85 17.25 86.35 L16.55 86.95 Q14.9 88.7 15.8 90.2"/></g><g id="c21"><path fill="#003399" fill-opacity="0.572549019608" d="M60.95 23.7 Q60.8 21.95 60.1 19.95 63.95 18.8 68.15 17.8 L69.15 20.5 69.55 21.65 Q72.15 26.7 74.0 31.7 L74.9 34.9 75.15 36.3 75.45 37.2 75.75 38.05 75.9 39.2 Q68.7 38.6 59.2 41.5 59.2 40.35 59.35 39.5 L59.95 36.3 60.5 34.0 Q60.5 33.6 60.65 33.15 L60.8 31.7 60.95 23.7 M32.35 28.55 Q34.35 27.7 36.8 27.0 35.2 35.45 31.65 38.9 26.3 46.25 29.75 29.85 31.05 29.3 32.35 28.55 M108.65 59.9 L114.4 70.95 Q113.7 74.7 113.4 75.1 L110.5 78.0 103.05 81.0 98.0 59.6 Q89.7 42.2 108.65 59.9 M34.8 82.9 Q30.5 84.15 22.45 77.15 L28.2 72.8 Q36.5 78.4 34.8 82.9 M47.45 93.8 Q43.25 79.45 31.05 70.25 L37.95 65.65 Q50.6 71.95 57.8 83.75 63.1 91.65 66.25 108.0 65.4 108.3 64.8 108.9 L61.35 110.9 58.8 112.35 57.65 110.2 58.05 112.75 58.35 114.65 58.35 114.8 Q58.5 116.35 56.05 116.8 53.45 117.2 52.2 115.95 L52.05 115.8 49.6 116.95 43.1 119.5 Q46.45 105.75 47.45 93.8"/></g><g id="c22"><g><use transform="matrix(1.0,0.0,0.0,1.0,0.0,0.0)" xlink:href="#c5"/></g></g><linearGradient gradientUnits="userSpaceOnUse" x1="-819.2" x2="819.2" spreadMethod="pad" gradientTransform="matrix(-0.00680541992188,0.0496368408203,0.0126953125,0.0,53.8,17.7)" id="gradient4"><stop offset="0.0" stop-color="#fbf1bf" stop-opacity="0.121568627451"/><stop offset="0.725490196078" stop-color="#fbf1bf" stop-opacity="0.6"/><stop offset="1.0" stop-color="#fbf1bf" stop-opacity="0.0"/></linearGradient><linearGradient gradientUnits="userSpaceOnUse" x1="-819.2" x2="819.2" spreadMethod="pad" gradientTransform="matrix(0.00393676757812,0.0282440185547,-0.00447082519531,0.0,60.65,31.0)" id="gradient5"><stop offset="0.0" stop-color="#fbf1bf" stop-opacity="0.121568627451"/><stop offset="0.725490196078" stop-color="#fbf1bf" stop-opacity="0.6"/><stop offset="1.0" stop-color="#fbf1bf" stop-opacity="0.0"/></linearGradient><g id="c23"><path stroke="none" fill="url(#gradient4)" d="M45.0 41.0 Q46.0 36.9 41.45 33.45 L38.45 31.55 Q27.4 21.45 37.65 17.8 47.8 14.3 48.6 12.45 49.15 10.9 48.15 8.9 39.2 14.3 33.65 10.0 26.6 4.2 33.75 1.65 40.9 -1.0 44.7 0.35 46.0 0.75 47.7 1.9 49.9 3.2 50.6 4.75 53.7 13.3 48.05 17.35 42.35 21.55 41.9 26.2 41.45 30.75 49.8 38.45 52.95 41.25 54.5 43.9 57.05 48.45 55.05 52.65 52.85 57.1 47.6 58.55 L44.9 59.0 41.0 59.15 36.4 58.65 30.6 57.35 Q28.5 55.7 28.25 53.8 28.4 53.1 28.7 52.35 L29.4 51.25 Q30.3 50.1 32.05 49.2 L32.75 48.8 34.2 48.25 35.95 47.7 37.2 47.45 Q41.45 46.7 43.1 44.35 44.45 42.65 45.0 41.0"/><path fill="none" stroke="#fbf1bf" stroke-width="0.5" stroke-opacity="0.701960784314" d="M45.0 41.0 Q46.0 36.9 41.45 33.45 L38.45 31.55 Q27.4 21.45 37.65 17.8 47.8 14.3 48.6 12.45 49.15 10.9 48.15 8.9 39.2 14.3 33.65 10.0 26.6 4.2 33.75 1.65 40.9 -1.0 44.7 0.35 46.0 0.75 47.7 1.9 49.9 3.2 50.6 4.75 53.7 13.3 48.05 17.35 42.35 21.55 41.9 26.2 41.45 30.75 49.8 38.45 52.95 41.25 54.5 43.9"/><path stroke="none" fill="url(#gradient5)" d="M67.6 26.65 Q69.85 23.35 67.25 21.9 64.65 20.4 63.4 21.15 62.9 21.35 62.35 22.05 61.6 22.75 61.4 23.65 60.6 28.5 62.7 30.85 64.85 33.2 65.15 35.85 65.45 38.45 62.75 42.85 60.0 47.2 61.35 50.9 63.45 56.55 70.1 53.6 70.8 52.65 70.85 51.55 70.4 48.95 67.5 47.95 66.0 47.55 65.25 46.2 63.4 42.75 65.5 40.0 L66.55 38.9 Q70.1 33.15 66.4 31.1 62.7 29.1 62.35 28.05 62.1 27.15 62.4 26.05 65.7 29.1 67.6 26.65"/></g><g id="c24"><g><use transform="matrix(1.0,0.0,0.0,1.0,0.0,0.0)" xlink:href="#c10"/></g><g><use transform="matrix(2.87394714355,0.0,0.0,2.87370300293,43.65,39.15)" xlink:href="#c12"/></g><g><use transform="matrix(2.23524475098,0.0,0.0,2.23500061035,53.65,34.35)" xlink:href="#c12"/></g><g><use transform="matrix(2.77601623535,-0.743728637695,0.743682861328,2.77584838867,17.8,42.2)" xlink:href="#c12"/></g><g><use transform="matrix(2.48886108398,-1.43667602539,1.43684387207,2.48866271973,29.6,58.7)" xlink:href="#c12"/></g><g><use transform="matrix(2.23524475098,0.0,0.0,2.23500061035,33.05,51.0)" xlink:href="#c12"/></g><g><use transform="matrix(-2.77601623535,0.743728637695,0.743682861328,2.77584838867,84.75,22.95)" xlink:href="#c12"/></g><g><use transform="matrix(-2.77601623535,0.743728637695,0.743682861328,2.77584838867,98.65,28.85)" xlink:href="#c12"/></g><g><use transform="matrix(-2.77601623535,0.743728637695,0.743682861328,2.77584838867,86.4,28.85)" xlink:href="#c12"/></g><g><use transform="matrix(-2.77601623535,0.743728637695,0.743682861328,2.77584838867,91.5,36.15)" xlink:href="#c12"/></g><g><use transform="matrix(2.87394714355,0.0,0.0,2.87377929688,30.85,71.6)" xlink:href="#c14"/></g><g><use transform="matrix(1.0,0.0,0.0,1.0,0.0,0.0)" xlink:href="#c15"/></g><g><use transform="matrix(2.03224182129,-2.03219604492,2.03240966797,2.03211975098,68.8,61.3)" xlink:href="#c14"/></g><g><use transform="matrix(2.77638244629,-0.743728637695,0.743896484375,2.7760925293,72.8,52.5)" xlink:href="#c14"/></g><g><use transform="matrix(0.743759155273,-2.7760925293,2.77638244629,0.743728637695,103.6,51.15)" xlink:href="#c14"/></g><g><use transform="matrix(1.0,0.0,0.0,1.0,0.0,0.0)" xlink:href="#c16"/></g><g><use transform="matrix(3.05258178711,0.111526489258,0.0,2.87370300293,21.65,69.7)" filter="url(#filter29)" xlink:href="#c18"/></g><g><use transform="matrix(1.0,0.0,0.0,1.0,0.0,0.0)" xlink:href="#c19"/></g><g><use transform="matrix(2.77601623535,0.743728637695,-0.743682861328,2.77584838867,78.4,52.35)" xlink:href="#c12"/></g><g><use transform="matrix(2.15913391113,0.578353881836,-0.578430175781,2.15887451172,89.3,50.3)" xlink:href="#c12"/></g><g><use transform="matrix(1.43684387207,-2.48873901367,2.48890686035,1.43667602539,96.0,76.15)" xlink:href="#c14"/></g><g><use transform="matrix(1.0,0.0,0.0,1.0,0.0,0.0)" xlink:href="#c20"/></g><g><use transform="matrix(-1.43684387207,2.48866271973,2.48886108398,1.43667602539,35.25,93.5)" xlink:href="#c12"/></g><g><use transform="matrix(-1.11752319336,1.93560791016,1.93580627441,1.11738586426,26.05,99.65)" xlink:href="#c12"/></g><g><use transform="matrix(-2.7760925293,0.743728637695,0.743682861328,2.77587890625,57.1,107.65)" xlink:href="#c14"/></g><g><use transform="matrix(-1.72109985352,0.461029052734,0.461074829102,1.72100830078,68.95,96.9)" xlink:href="#c14"/></g><g><use transform="matrix(-1.54309082031,-0.890716552734,-0.890838623047,1.54292297363,51.6,115.35)" xlink:href="#c14"/></g><g><use transform="matrix(1.0,0.0,0.0,1.0,0.0,0.0)" xlink:href="#c21"/></g><g><use transform="matrix(0.543853759766,0.0,0.0,0.429809570312,67.95,42.9)" filter="url(#filter41)" xlink:href="#c22"/></g><g><use transform="matrix(0.404632568359,0.0,0.0,0.333297729492,40.45,87.85)" filter="url(#filter42)" xlink:href="#c22"/></g><g><use transform="matrix(1.0,0.0,0.0,1.0,0.0,0.0)" xlink:href="#c23"/></g></g><filter id="filter29"><feColorMatrix in="SourceGraphic" type="matrix" values="1.0 0.0 0.0 0.0 0.0 0.0 1.0 0.0 0.0 0.0 0.0 0.0 1.0 0.0 0.0 0.0 0.0 0.0 0.62109375 0.0" result="cxform"/><feComposite operator="in" in2="SourceGraphic" result="color-xform"/></filter><filter id="filter41"><feColorMatrix in="SourceGraphic" type="matrix" values="1.0 0.0 0.0 0.0 0.0 0.0 1.0 0.0 0.0 0.0 0.0 0.0 1.0 0.0 0.0 0.0 0.0 0.0 0.25 0.0" result="cxform"/><feComposite operator="in" in2="SourceGraphic" result="color-xform"/></filter><filter id="filter42"><feColorMatrix in="SourceGraphic" type="matrix" values="1.0 0.0 0.0 0.0 0.0 0.0 1.0 0.0 0.0 0.0 0.0 0.0 1.0 0.0 0.0 0.0 0.0 0.0 0.25 0.0" result="cxform"/><feComposite operator="in" in2="SourceGraphic" result="color-xform"/></filter><g id="c25"><g><use transform="matrix(1.0,0.0,0.0,1.0,6.3,53.35)" xlink:href="#c9"/></g><g><use transform="matrix(-0.146041870117,0.0488891601562,0.0616760253906,0.140441894531,33.05,63.95)" xlink:href="#c24"/></g><g><use transform="matrix(0.141098022461,-0.0378112792969,0.111373901367,0.225646972656,27.2,74.05)" filter="url(#filter46)" xlink:href="#c6"/></g></g><filter id="filter46"><feColorMatrix in="SourceGraphic" type="matrix" values="1.0 0.0 0.0 0.0 0.0 0.0 1.0 0.0 0.0 0.0 0.0 0.0 1.0 0.0 0.0 0.0 0.0 0.0 0.23046875 0.0" result="cxform"/><feComposite operator="in" in2="SourceGraphic" result="color-xform"/></filter></defs><g><g><use transform="matrix(1.0,0.0,0.0,1.0,0.0,0.0)" xlink:href="#c1"/></g><g><use transform="matrix(1.15496826172,0.0,0.0,1.15496826172,-1.5,-57.15)" xlink:href="#c25"/></g></g></svg>