<?xml version='1.0' encoding='UTF-8'?>
<svg xmlns:xlink="http://www.w3.org/1999/xlink" xmlns="http://www.w3.org/2000/svg" version="1.1" width="60px" height="60px" viewBox="0.0 0.0 60.0 60.0"><defs><g id="c1"><path fill="#000000" fill-opacity="0.00392156862745" d="M0.0 0.0 L60.0 0.0 60.0 60.0 0.0 60.0 0.0 0.0"/></g><g id="c2"><path fill="#006699" stroke="none" d="M31.5 39.85 L19.8 43.65 Q17.15 44.45 15.5 43.3 14.35 42.55 13.65 40.9 L1.7 14.45 1.6 14.3 1.2 13.45 -0.75 9.05 Q-2.05 6.2 -0.3 4.75 0.3 4.25 1.2 3.9 L5.5 2.25 Q8.95 0.95 10.65 4.15 L22.3 0.4 Q26.55 -1.0 28.45 3.1 L40.55 29.95 40.9 30.7 42.95 35.15 Q43.95 37.35 43.15 38.7 42.5 39.7 40.95 40.25 L36.65 41.8 35.1 42.2 Q32.75 42.3 31.5 39.85"/><path fill="none" stroke="#000000" stroke-width="1.0" stroke-opacity="0.298039215686" d="M31.5 39.85 L19.8 43.65 Q17.15 44.45 15.5 43.3 14.35 42.55 13.65 40.9 L1.7 14.45 1.6 14.3 1.2 13.45 -0.75 9.05 Q-2.05 6.2 -0.3 4.75 0.3 4.25 1.2 3.9 L5.5 2.25 Q8.95 0.95 10.65 4.15 L22.3 0.4 Q26.55 -1.0 28.45 3.1 L40.55 29.95 40.9 30.7 42.95 35.15 Q43.95 37.35 43.15 38.7 42.5 39.7 40.95 40.25 L36.65 41.8 35.1 42.2 Q32.75 42.3 31.5 39.85"/><path fill="#300525" stroke="none" d="M0.75 8.25 L29.8 9.75 25.55 0.9 Q26.9 1.6 27.8 3.55 L40.7 32.15 Q42.6 36.3 38.3 37.65 L23.3 42.5 13.15 21.4 4.6 20.9 0.7 12.25 Q-0.45 9.75 0.75 8.25 M20.1 43.55 L19.8 43.65 Q17.15 44.45 15.5 43.3 L20.1 43.55"/><path fill="#630a4c" stroke="none" d="M25.55 0.9 L29.8 9.75 0.75 8.25 Q1.45 7.3 3.1 6.75 L21.65 0.8 25.55 0.9 M4.6 20.9 L13.15 21.4 23.3 42.5 20.1 43.55 15.5 43.3 Q14.35 42.55 13.65 40.9 L4.6 20.9"/><path fill="none" stroke="#000000" stroke-width="0.5" stroke-opacity="0.301960784314" d="M0.75 8.25 Q-0.45 9.75 0.7 12.25 L4.6 20.9 M23.3 42.5 L38.3 37.65 Q42.6 36.3 40.7 32.15 L27.8 3.55 Q26.9 1.6 25.55 0.9 L21.65 0.8 3.1 6.75 Q1.45 7.3 0.75 8.25 M20.1 43.55 L19.8 43.65 Q17.15 44.45 15.5 43.3 14.35 42.55 13.65 40.9 L4.6 20.9 M20.1 43.55 L23.3 42.5"/><path fill="#9d147b" stroke="none" d="M14.2 40.5 L1.35 11.8 Q-0.5 7.75 3.8 6.35 L22.3 0.4 Q26.55 -1.0 28.45 3.1 L41.35 31.7 Q43.25 35.85 38.9 37.25 L20.4 43.2 Q16.1 44.55 14.2 40.5"/><path fill="none" stroke="#000000" stroke-width="0.5" stroke-opacity="0.301960784314" d="M14.2 40.5 L1.35 11.8 Q-0.5 7.75 3.8 6.35 L22.3 0.4 Q26.55 -1.0 28.45 3.1 L41.35 31.7 Q43.25 35.85 38.9 37.25 L20.4 43.2 Q16.1 44.55 14.2 40.5"/><path fill="#9d147b" stroke="none" d="M31.4 39.65 L31.3 39.45 31.25 39.4 29.25 34.95 Q27.55 31.2 31.25 29.85 L35.6 28.25 Q38.8 27.1 40.5 29.85 L40.9 30.7 42.95 35.15 Q43.95 37.35 43.15 38.7 42.5 39.45 41.2 39.9 L36.9 41.45 34.85 41.85 Q32.9 41.7 31.75 39.5 L31.4 39.65"/><path fill="#630a4c" stroke="none" d="M43.15 38.7 Q42.5 39.7 40.95 40.25 L36.65 41.8 35.1 42.2 Q32.75 42.3 31.45 39.8 L31.4 39.65 31.75 39.5 Q32.9 41.7 34.85 41.85 L36.9 41.45 41.2 39.9 Q42.5 39.45 43.15 38.7"/><path fill="none" stroke="#003333" stroke-width="0.5" stroke-opacity="0.509803921569" d="M43.15 38.7 Q42.5 39.7 40.95 40.25 L36.65 41.8 35.1 42.2 Q32.75 42.3 31.45 39.8 L31.4 39.65 30.3 40.0 31.4 39.65 M40.5 29.85 L40.9 30.7 42.95 35.15 Q43.95 37.35 43.15 38.7 42.5 39.45 41.2 39.9 L36.9 41.45 34.85 41.85 Q32.9 41.7 31.75 39.5 L31.4 39.65"/><path fill="#9d147b" stroke="none" d="M10.65 4.2 L10.85 4.6 12.85 9.05 Q14.5 12.8 10.8 14.15 L6.5 15.8 Q4.5 16.6 3.1 15.8 L1.75 12.85 -0.2 8.45 Q-1.25 6.15 -0.3 4.75 0.3 4.25 1.2 3.9 L5.5 2.25 Q9.0 0.95 10.65 4.2"/><path fill="#300525" stroke="none" d="M-0.3 4.75 Q-1.25 6.15 -0.2 8.45 L1.75 12.85 3.1 15.8 Q2.25 15.35 1.6 14.3 L1.2 13.45 -0.75 9.05 Q-2.05 6.2 -0.3 4.75"/><path fill="none" stroke="#003333" stroke-width="0.5" stroke-opacity="0.509803921569" d="M3.1 15.8 L6.45 23.15 M-0.3 4.75 Q0.3 4.25 1.2 3.9 L5.5 2.25 Q9.0 0.95 10.65 4.2 M3.1 15.8 L1.75 12.85 -0.2 8.45 Q-1.25 6.15 -0.3 4.75 -2.05 6.2 -0.75 9.05 L1.2 13.45 1.6 14.3"/><path fill="#fcf2cf" stroke="none" d="M9.15 13.6 Q9.8 12.8 9.55 11.6 L9.1 10.55 22.05 6.35 Q24.9 5.45 26.25 7.85 L26.5 8.3 35.8 29.0 35.95 29.35 Q34.75 29.3 34.1 30.1 33.45 30.9 33.7 32.1 L34.0 32.9 20.65 37.2 Q18.8 37.8 17.65 37.0 16.8 36.4 16.3 35.2 L6.95 14.6 6.8 14.4 7.1 14.4 Q8.4 14.45 9.15 13.6"/><path fill="#c47fad" stroke="none" d="M9.15 13.6 Q8.4 14.45 7.1 14.4 L6.8 14.4 6.95 14.6 16.3 35.2 Q16.8 36.4 17.65 37.0 18.8 37.8 20.65 37.2 L34.0 32.9 33.7 32.1 Q33.45 30.9 34.1 30.1 34.75 29.3 35.95 29.35 L35.8 29.0 26.5 8.3 26.25 7.85 Q24.9 5.45 22.05 6.35 L9.1 10.55 9.55 11.6 Q9.8 12.8 9.15 13.6 M28.25 6.1 L35.55 22.3 39.35 30.75 Q41.1 34.5 37.2 35.7 L20.45 41.1 Q16.8 42.25 15.2 39.0 L15.0 38.6 8.25 23.65 3.35 12.8 Q1.65 9.1 5.5 7.85 L22.25 2.5 Q26.05 1.25 27.75 4.95 L28.25 6.1"/><path fill="none" stroke="#ffcc00" stroke-width="1.0" stroke-opacity="0.749019607843" d="M35.55 22.3 L39.35 30.75 Q41.1 34.5 37.2 35.7 L20.45 41.1 Q16.8 42.25 15.2 39.0 L15.0 38.6 M8.25 23.65 L3.35 12.8 Q1.65 9.1 5.5 7.85 L22.25 2.5 Q26.05 1.25 27.75 4.95 L28.25 6.1"/><path fill="none" stroke="#bf9900" stroke-width="1.0" stroke-opacity="0.749019607843" d="M28.25 6.1 L35.55 22.3 M15.0 38.6 L8.25 23.65"/><path fill="none" stroke="#f0b92b" stroke-width="0.5" d="M9.15 13.6 Q9.8 12.8 9.55 11.6 L9.1 10.55 22.05 6.35 Q24.9 5.45 26.25 7.85 L26.5 8.3 35.8 29.0 35.95 29.35 Q34.75 29.3 34.1 30.1 33.45 30.9 33.7 32.1 L34.0 32.9 20.65 37.2 Q18.8 37.8 17.65 37.0 16.8 36.4 16.3 35.2 L6.95 14.6 6.8 14.4 7.1 14.4 Q8.4 14.45 9.15 13.6"/></g><g id="c3"><path fill="#7fdbfe" stroke="none" d="M10.75 4.9 Q10.75 4.6 10.9 4.35 11.25 3.45 11.95 2.75 13.3 1.5 14.35 2.1 15.4 2.7 14.95 4.45 14.7 5.4 14.1 6.15 L13.75 6.5 Q13.1 7.15 12.35 7.35 L11.4 7.2 Q10.95 6.9 10.75 6.4 10.5 5.75 10.75 4.9 M7.5 5.9 Q7.0 5.85 6.6 5.5 6.05 5.0 5.8 4.15 L5.7 3.6 Q5.55 2.65 5.8 1.7 6.25 0.0 7.5 0.0 L7.6 0.0 Q8.85 0.0 9.3 1.7 9.55 2.65 9.4 3.6 L9.3 4.15 8.5 5.5 7.6 5.9 7.5 5.9 M4.35 4.9 Q4.6 5.75 4.35 6.4 L3.7 7.2 2.75 7.35 Q2.0 7.15 1.35 6.5 L1.0 6.15 Q0.4 5.4 0.15 4.45 -0.3 2.7 0.75 2.1 1.8 1.5 3.15 2.75 3.85 3.45 4.2 4.35 L4.35 4.9 M5.5 13.7 Q4.45 13.9 3.65 12.95 2.75 12.0 3.2 10.25 3.7 8.5 5.25 7.6 6.4 6.9 7.55 7.0 8.75 6.9 9.9 7.6 11.45 8.5 11.95 10.25 12.35 12.0 11.5 12.95 10.7 13.9 9.65 13.7 8.55 13.5 7.55 12.6 6.55 13.5 5.5 13.7"/></g><g id="c4"><g><use transform="matrix(1.0,0.0,0.0,1.0,0.0,0.0)" xlink:href="#c3"/></g></g><radialGradient gradientUnits="userSpaceOnUse" r="819.2" cx="0" cy="0" spreadMethod="pad" gradientTransform="matrix(0.0914459228516,0.0,0.0,0.0914459228516,0.6,3.4)" id="gradient1"><stop offset="0.0" stop-color="#ffffff"/><stop offset="1.0" stop-color="#ffffff" stop-opacity="0.0"/></radialGradient><g id="c5"><path stroke="none" fill="url(#gradient1)" d="M36.65 -54.65 Q60.05 -42.0 69.75 -17.95 80.55 8.9 68.0 34.1 55.45 59.35 26.8 68.2 -1.8 77.05 -29.7 64.3 -57.6 51.6 -68.45 24.75 -79.3 -2.05 -66.75 -27.25 L-66.7 -27.3 Q-54.1 -52.5 -25.5 -61.4 3.1 -70.2 31.0 -57.5 L36.65 -54.65"/></g><g id="c6"><g><use transform="matrix(1.0,0.0,0.0,1.0,0.0,0.0)" xlink:href="#c5"/></g></g><radialGradient gradientUnits="userSpaceOnUse" r="819.2" cx="0" cy="0" spreadMethod="pad" gradientTransform="matrix(0.209197998047,0.0,0.0,0.177108764648,67.15,107.2)" id="gradient2"><stop offset="0.356862745098" stop-color="#ffffff"/><stop offset="0.670588235294" stop-opacity="0.0"/></radialGradient><g id="c7"><path fill="none" stroke-linejoin="round" stroke-linecap="round" stroke="url(#gradient2)" stroke-width="0.5" d="M136.55 165.8 L68.6 106.0 68.4 106.0 118.25 201.5 M68.3 105.8 L68.35 105.8 68.3 105.8 68.3 105.85 68.4 106.0 68.3 106.0 86.55 211.5 M68.3 105.8 L68.3 105.85 68.3 106.0 68.15 105.95 18.25 151.55 M68.3 105.85 L68.25 105.85 68.3 106.0 50.0 193.2 M68.25 105.85 L68.15 105.95 0.05 97.7 M68.3 105.85 L68.25 105.8 68.25 105.85 M68.25 105.8 L68.2 105.7 0.0 45.7 M68.3 105.8 L68.25 105.75 68.25 105.8 M68.25 105.75 L68.2 105.7 18.25 10.05 M68.6 106.0 L68.35 105.8 118.25 60.15 M86.6 18.35 L68.3 105.8 M136.6 114.25 L68.6 106.0 M68.25 105.75 L49.95 0.05"/></g><g id="c8"><g><use transform="matrix(1.0,0.0,0.0,1.0,0.0,0.0)" xlink:href="#c7"/></g></g><g id="c9"><g><use transform="matrix(1.0,0.0,0.0,1.0,0.0,0.0)" xlink:href="#c2"/></g><g><use transform="matrix(0.238861083984,-0.0867004394531,0.10026550293,0.233917236328,34.25,31.15)" xlink:href="#c4"/></g><g><use transform="matrix(0.238861083984,-0.0867004394531,0.10026550293,0.233917236328,4.25,10.3)" xlink:href="#c4"/></g><g><use transform="matrix(0.141098022461,-0.0378112792969,0.111373901367,0.225646972656,20.25,20.65)" filter="url(#filter7)" xlink:href="#c6"/></g><g><use transform="matrix(-0.155029296875,0.0513153076172,0.0841827392578,0.147033691406,22.6,3.15)" filter="url(#filter8)" xlink:href="#c8"/></g></g><filter id="filter7"><feColorMatrix in="SourceGraphic" type="matrix" values="0.0 0.0 0.0 0.0 0.796875 0.0 0.0 0.0 0.0 0.59765625 0.0 0.0 0.0 0.0 0.19921875 0.0 0.0 0.0 1.0 0.0" result="cxform"/><feComposite operator="in" in2="SourceGraphic" result="color-xform"/></filter><filter id="filter8"><feColorMatrix in="SourceGraphic" type="matrix" values="0.0 0.0 0.0 0.0 0.99609375 0.0 0.0 0.0 0.0 0.99609375 0.0 0.0 0.0 0.0 0.99609375 0.0 0.0 0.0 1.0 0.0" result="cxform"/><feComposite operator="in" in2="SourceGraphic" result="color-xform"/></filter><g id="c10"><path fill="none" stroke="#000000" stroke-width="1.0" stroke-opacity="0.301960784314" d="M6.9 44.75 L8.05 43.15 Q9.85 40.75 12.0 38.95 13.6 37.6 15.3 36.6 18.1 35.0 21.3 34.2 26.05 35.05 31.55 38.35 35.25 34.6 40.2 32.1 L41.7 31.35 40.95 29.5 Q39.6 23.85 44.45 17.95 L45.2 17.0 45.45 16.85 Q52.1 9.35 58.9 8.4 L61.85 8.15 Q66.8 7.9 71.1 8.9 L71.8 9.2 78.05 10.7 78.85 10.95 81.55 11.6 86.0 11.7 Q88.4 11.45 90.3 9.6 92.5 7.65 94.9 4.05 96.6 1.65 98.85 0.65 103.4 -1.35 110.75 2.35 L110.9 2.45 Q114.6 5.35 116.9 8.15 120.3 11.95 120.75 15.55 121.05 18.0 120.1 20.25 L119.0 22.6 116.35 26.5 Q113.7 29.55 110.05 31.05 106.0 32.75 103.1 32.35 101.1 32.2 99.7 31.05 97.75 29.4 94.5 31.25 92.3 32.3 89.55 35.05 L83.3 42.0 82.45 42.85 Q85.4 46.85 87.35 51.65 L94.1 50.85 102.0 51.45 Q104.35 53.05 106.4 57.05 109.95 63.4 109.6 69.9 109.45 73.6 107.95 77.15 106.9 79.75 105.15 82.3 102.9 85.6 99.2 88.1 96.25 90.15 92.35 91.65 91.7 91.9 90.85 91.65 L88.9 90.85 88.2 90.6 88.65 93.95 85.65 89.3 Q87.9 97.1 87.2 105.05 L85.55 102.0 Q85.55 105.85 84.6 112.05 L82.75 109.2 Q81.6 116.45 80.3 119.55 L73.9 108.75 72.15 112.25 Q67.5 104.4 64.15 96.65 61.9 106.95 56.5 111.35 L54.4 104.1 Q50.5 111.7 44.95 118.65 L42.8 113.55 Q39.85 117.05 35.25 123.15 33.6 118.65 32.15 109.4 L30.0 111.85 Q28.75 103.85 28.7 99.2 L26.8 102.0 Q25.95 93.5 27.8 86.25 L27.35 85.2 24.95 87.95 25.2 85.4 19.05 88.15 19.15 84.2 10.0 87.9 8.55 88.5 Q8.9 85.15 11.35 78.65 L8.45 79.8 Q10.5 74.2 12.35 71.05 L9.5 72.4 Q10.25 70.75 11.15 69.25 L9.45 67.45 9.3 67.25 9.25 67.1 8.85 66.5 Q7.2 63.85 6.15 60.9 4.15 54.75 5.4 47.2 L5.65 46.7 7.8 47.1 6.9 44.75 M45.95 23.95 Q46.55 21.65 48.15 19.25 L48.25 18.95 Q51.6 14.0 56.9 12.5 L60.45 12.05 66.45 11.9 72.15 12.75 Q74.3 13.05 75.65 13.75 81.25 15.5 83.85 15.25 86.35 15.05 87.5 14.35 L87.6 14.35 87.6 14.3 87.8 14.2 Q91.0 12.9 95.7 6.7 L96.7 5.55 Q100.2 2.25 105.75 4.85 107.6 5.65 109.5 7.1 110.95 8.05 111.95 9.1 115.8 12.2 116.6 15.4 117.2 17.75 116.35 20.05 L115.3 22.4 Q114.05 24.8 112.3 26.45 L112.2 26.55 Q110.95 27.5 109.5 28.1 L108.4 28.45 Q104.5 29.4 100.65 27.1 99.0 26.1 96.85 26.65 93.25 27.5 88.5 32.75 L85.4 36.0 80.75 40.75 79.7 39.55 78.85 38.65 Q80.25 37.55 80.95 36.3 81.55 35.25 81.6 34.1 L75.95 25.15 75.1 24.6 Q72.0 24.55 68.65 25.45 L62.95 17.3 62.3 16.95 Q56.9 18.7 52.85 28.15 L50.95 28.4 49.0 28.85 48.55 28.95 Q47.35 29.2 46.2 29.6 L45.85 28.45 Q45.5 26.2 45.95 23.95"/><path fill="#778a28" stroke="none" d="M56.55 74.75 Q60.3 64.9 67.25 64.35 L65.95 62.15 Q66.6 60.65 67.95 60.4 73.6 60.05 78.35 66.25 73.6 60.05 67.95 60.4 66.6 60.65 65.95 62.15 L64.55 60.2 Q64.7 58.0 65.45 57.1 L65.6 56.85 Q68.3 54.35 74.4 57.05 68.3 54.35 65.6 56.85 L65.45 57.1 Q64.7 58.0 64.55 60.2 L65.95 62.15 67.25 64.35 Q60.3 64.9 56.55 74.75 M51.9 64.75 L52.9 63.4 Q56.95 58.55 64.55 60.2 62.7 57.55 60.6 55.4 56.6 52.75 52.3 51.9 L46.4 51.5 52.3 51.9 Q56.6 52.75 60.6 55.4 62.7 57.55 64.55 60.2 56.95 58.55 52.9 63.4 L51.9 64.75 M78.0 54.95 L77.0 54.25 Q64.7 45.1 56.85 49.8 L55.7 50.6 Q54.8 50.4 54.5 50.6 L52.25 49.85 Q35.35 44.4 33.5 56.35 33.75 61.75 34.7 63.6 L37.45 61.2 37.5 61.25 37.75 68.7 40.75 74.0 41.75 68.45 42.55 66.8 42.25 68.8 Q41.6 74.75 43.25 80.4 L48.3 76.35 Q48.0 80.4 48.7 85.1 L55.05 83.0 Q56.85 95.15 62.3 101.95 L63.95 96.65 Q67.3 104.45 72.0 112.3 L73.7 108.85 80.1 119.6 Q81.45 116.5 82.55 109.25 L84.35 112.15 Q85.35 105.9 85.35 102.05 L87.0 105.1 Q87.7 97.2 85.45 89.35 L88.45 94.05 Q87.95 88.85 86.8 83.85 L86.2 81.5 83.9 74.35 86.95 78.05 Q86.2 70.65 83.25 65.95 L82.45 64.5 81.95 63.05 83.6 64.4 83.4 60.0 78.0 54.95 M84.6 85.85 L85.45 89.35 84.6 85.85 M80.1 59.3 L81.95 63.05 80.1 59.3 M82.55 89.75 Q79.65 85.05 76.1 82.25 L73.6 80.85 75.65 91.05 78.45 103.55 79.55 111.0 78.45 103.55 75.65 91.05 73.6 80.85 76.1 82.25 Q79.65 85.05 82.55 89.75 M82.3 69.75 L83.9 74.35 82.3 69.75 M69.55 68.95 L67.25 64.35 69.55 68.95 Q71.45 73.35 72.95 78.6 L73.6 80.85 72.95 78.6 Q71.45 73.35 69.55 68.95 70.5 68.05 71.8 68.35 L72.35 68.45 Q77.6 70.2 82.7 79.2 77.6 70.2 72.35 68.45 L71.8 68.35 Q70.5 68.05 69.55 68.95 M49.15 70.5 L48.8 72.0 48.7 73.35 Q48.35 74.75 48.3 76.35 48.35 74.75 48.7 73.35 L48.8 72.0 49.15 70.5 M50.1 67.65 L50.9 65.7 50.1 67.65 M55.05 83.0 L54.95 81.35 54.8 79.3 54.8 78.25 54.8 79.3 54.95 81.35 55.05 83.0 M60.6 55.4 Q57.8 52.55 54.5 50.6 57.8 52.55 60.6 55.4 M49.95 57.15 Q46.05 58.0 43.85 63.5 46.05 58.0 49.95 57.15 M41.65 53.3 Q38.35 54.35 37.45 61.2 38.35 54.35 41.65 53.3 M84.35 97.3 L85.35 102.05 84.35 97.3 M82.4 105.05 L82.55 109.25 82.4 105.05 M72.55 106.4 L73.7 108.85 72.55 106.4 M65.6 91.3 Q69.25 84.15 73.6 80.85 69.25 84.15 65.6 91.3"/><path fill="none" stroke="#000000" stroke-width="0.5" stroke-opacity="0.101960784314" d="M78.35 66.25 Q73.6 60.05 67.95 60.4 66.6 60.65 65.95 62.15 L64.55 60.2 Q64.7 58.0 65.45 57.1 L65.6 56.85 Q68.3 54.35 74.4 57.05 M46.4 51.5 L52.3 51.9 Q56.6 52.75 60.6 55.4 62.7 57.55 64.55 60.2 56.95 58.55 52.9 63.4 L51.9 64.75 M65.95 62.15 L67.25 64.35 Q60.3 64.9 56.55 74.75 M79.55 111.0 L78.45 103.55 75.65 91.05 73.6 80.85 76.1 82.25 Q79.65 85.05 82.55 89.75 M73.6 80.85 L72.95 78.6 Q71.45 73.35 69.55 68.95 70.5 68.05 71.8 68.35 L72.35 68.45 Q77.6 70.2 82.7 79.2 M67.25 64.35 L69.55 68.95 M50.9 65.7 L50.1 67.65 M37.45 61.2 Q38.35 54.35 41.65 53.3 M43.85 63.5 Q46.05 58.0 49.95 57.15 M54.5 50.6 Q57.8 52.55 60.6 55.4 M73.6 80.85 Q69.25 84.15 65.6 91.3"/><path fill="none" stroke="#000000" stroke-width="0.5" stroke-opacity="0.301960784314" d="M78.0 54.95 L77.0 54.25 Q64.7 45.1 56.85 49.8 L55.7 50.6 Q54.8 50.4 54.5 50.6 L52.25 49.85 Q35.35 44.4 33.5 56.35 33.75 61.75 34.7 63.6 L37.45 61.2 37.5 61.25 37.75 68.7 40.75 74.0 41.75 68.45 42.55 66.8 42.25 68.8 Q41.6 74.75 43.25 80.4 L48.3 76.35 Q48.0 80.4 48.7 85.1 L55.05 83.0 Q56.85 95.15 62.3 101.95 L63.95 96.65 Q67.3 104.45 72.0 112.3 L73.7 108.85 80.1 119.6 Q81.45 116.5 82.55 109.25 L84.35 112.15 Q85.35 105.9 85.35 102.05 L87.0 105.1 Q87.7 97.2 85.45 89.35 L88.45 94.05 Q87.95 88.85 86.8 83.85 L86.2 81.5 83.9 74.35 86.95 78.05 Q86.2 70.65 83.25 65.95 L82.45 64.5 81.95 63.05 83.6 64.4 83.4 60.0 78.0 54.95 M81.95 63.05 L80.1 59.3 M85.45 89.35 L84.6 85.85 M83.9 74.35 L82.3 69.75 M48.3 76.35 Q48.35 74.75 48.7 73.35 L48.8 72.0 49.15 70.5 M54.8 78.25 L54.8 79.3 54.95 81.35 55.05 83.0 M73.7 108.85 L72.55 106.4 M82.55 109.25 L82.4 105.05 M85.35 102.05 L84.35 97.3"/><path fill="#778a28" stroke="none" d="M69.8 57.0 Q67.3 54.8 64.5 53.35 60.45 51.25 55.75 50.7 60.45 51.25 64.5 53.35 67.3 54.8 69.8 57.0 M63.25 50.85 Q59.5 50.35 55.75 50.7 L50.0 51.8 Q57.35 55.55 58.65 62.15 L58.85 63.9 58.65 62.15 Q57.35 55.55 50.0 51.8 L47.95 52.5 45.8 53.4 41.65 55.45 Q37.85 57.7 34.1 60.9 L32.55 62.25 Q34.7 67.75 34.35 75.85 34.7 67.75 32.55 62.25 29.25 65.25 25.9 69.0 L17.5 77.05 9.95 88.05 19.15 84.45 19.0 88.3 Q26.75 85.15 33.3 81.2 L32.25 86.5 Q40.15 84.8 47.4 76.3 L48.35 75.0 49.45 73.5 49.95 72.7 49.45 73.5 48.35 75.0 47.4 76.3 52.0 82.15 Q54.75 78.85 56.5 75.55 L58.85 82.05 Q63.0 78.7 65.2 73.5 L65.85 71.6 65.75 73.5 64.1 78.6 69.1 76.35 72.95 70.7 72.95 70.65 74.2 74.4 Q75.9 73.55 78.7 69.45 82.7 58.65 65.6 51.75 L63.25 50.85 M73.05 61.55 Q75.4 64.65 72.95 70.65 75.4 64.65 73.05 61.55 M58.4 70.2 L58.0 71.7 57.6 72.8 56.5 75.55 57.6 72.8 58.0 71.7 58.4 70.2 M64.05 59.1 Q67.1 62.4 66.4 68.25 67.1 62.4 64.05 59.1 M21.3 83.2 Q20.2 83.8 19.15 84.45 20.2 83.8 21.3 83.2 M58.95 67.4 L59.2 65.3 58.95 67.4 M50.05 68.8 Q51.5 58.4 45.8 53.4 51.5 58.4 50.05 68.8"/><path fill="#9ab235" stroke="none" d="M62.25 50.15 L61.6 48.7 Q57.1 39.8 42.15 38.85 L41.0 38.8 33.95 39.2 31.65 42.55 33.7 42.55 32.65 43.4 31.3 44.0 Q26.45 45.75 22.35 51.15 L26.65 50.3 30.25 47.65 26.65 50.3 Q23.9 52.1 21.3 54.45 L19.7 55.85 Q16.35 59.1 13.4 62.9 L18.2 61.1 Q12.55 65.85 9.45 72.6 L12.3 71.3 15.45 68.2 12.3 71.3 Q10.45 74.35 8.4 79.95 L11.25 78.85 Q8.9 85.35 8.5 88.7 L9.95 88.05 17.5 77.05 23.2 70.4 Q27.1 65.65 29.7 61.7 L31.8 59.75 Q35.8 56.0 39.7 53.7 L39.45 53.3 39.95 53.5 40.6 53.0 Q40.85 52.75 43.25 52.0 45.6 51.15 46.95 49.75 L47.0 49.8 Q49.15 50.2 50.8 48.75 L50.75 48.5 Q56.8 47.85 62.25 50.15 M43.05 42.75 Q49.6 44.65 50.75 48.5 49.6 44.65 43.05 42.75 M37.15 40.8 L33.7 42.55 37.15 40.8 M25.35 54.95 Q34.1 51.05 39.45 53.3 34.1 51.05 25.35 54.95 M35.35 47.55 Q42.35 45.75 46.95 49.75 42.35 45.75 35.35 47.55 M20.55 63.3 Q25.3 61.6 29.7 61.7 25.3 61.6 20.55 63.3 M20.65 58.9 L18.2 61.1 20.65 58.9 M13.15 82.25 L17.5 77.05 13.15 82.25 M13.45 75.7 L11.25 78.85 13.45 75.7"/><path fill="#809536" stroke="none" d="M62.25 50.15 Q56.8 47.85 50.75 48.5 L50.8 48.75 Q50.95 50.0 50.0 51.8 50.95 50.0 50.8 48.75 49.15 50.2 47.0 49.8 L46.95 49.75 Q45.6 51.15 43.25 52.0 40.85 52.75 40.6 53.0 L39.95 53.5 39.7 53.7 Q35.8 56.0 31.8 59.75 L29.7 61.7 32.55 62.25 29.7 61.7 Q27.1 65.65 23.2 70.4 L17.5 77.05 25.9 69.0 Q29.25 65.25 32.55 62.25 L34.1 60.9 Q37.85 57.7 41.65 55.45 41.2 54.15 39.95 53.5 41.2 54.15 41.65 55.45 L45.8 53.4 47.95 52.5 50.0 51.8 55.75 50.7 Q59.5 50.35 63.25 50.85 63.1 50.45 62.25 50.15 M47.95 52.5 Q48.05 50.85 47.0 49.8 48.05 50.85 47.95 52.5"/><path fill="#b3cc4a" stroke="none" d="M39.95 53.5 L39.45 53.3 39.7 53.7 39.95 53.5"/><path fill="none" stroke="#000000" stroke-width="0.5" stroke-opacity="0.101960784314" d="M55.75 50.7 Q60.45 51.25 64.5 53.35 67.3 54.8 69.8 57.0 M50.75 48.5 Q49.6 44.65 43.05 42.75 M63.25 50.85 Q59.5 50.35 55.75 50.7 L50.0 51.8 Q50.95 50.0 50.8 48.75 L50.75 48.5 M72.95 70.65 Q75.4 64.65 73.05 61.55 M72.95 70.65 L72.95 70.7 M66.4 68.25 Q67.1 62.4 64.05 59.1 M39.95 53.5 L39.45 53.3 Q34.1 51.05 25.35 54.95 M39.95 53.5 Q41.2 54.15 41.65 55.45 37.85 57.7 34.1 60.9 L32.55 62.25 29.7 61.7 Q25.3 61.6 20.55 63.3 M46.95 49.75 L47.0 49.8 Q48.05 50.85 47.95 52.5 L45.8 53.4 41.65 55.45 M50.0 51.8 Q57.35 55.55 58.65 62.15 L58.85 63.9 M50.0 51.8 L47.95 52.5 M59.2 65.3 L58.95 67.4 M34.35 75.85 Q34.7 67.75 32.55 62.25 29.25 65.25 25.9 69.0 L17.5 77.05 13.15 82.25 M46.95 49.75 Q42.35 45.75 35.35 47.55 M45.8 53.4 Q51.5 58.4 50.05 68.8"/><path fill="none" stroke="#000000" stroke-width="0.5" stroke-opacity="0.301960784314" d="M33.7 42.55 L31.65 42.55 33.95 39.2 41.0 38.8 42.15 38.85 Q57.1 39.8 61.6 48.7 L62.25 50.15 Q63.1 50.45 63.25 50.85 L65.6 51.75 Q82.7 58.65 78.7 69.45 75.9 73.55 74.2 74.4 L72.95 70.65 M72.95 70.7 L69.1 76.35 64.1 78.6 65.75 73.5 65.85 71.6 65.2 73.5 Q63.0 78.7 58.85 82.05 L56.5 75.55 57.6 72.8 58.0 71.7 58.4 70.2 M26.65 50.3 L22.35 51.15 Q26.45 45.75 31.3 44.0 L32.65 43.4 33.7 42.55 37.15 40.8 M26.65 50.3 L30.25 47.65 M49.95 72.7 L49.45 73.5 48.35 75.0 47.4 76.3 Q40.15 84.8 32.25 86.5 L33.3 81.2 Q26.75 85.15 19.0 88.3 L19.15 84.45 Q20.2 83.8 21.3 83.2 M56.5 75.55 Q54.75 78.85 52.0 82.15 L47.4 76.3 M18.2 61.1 L13.4 62.9 Q16.35 59.1 19.7 55.85 L21.3 54.45 Q23.9 52.1 26.65 50.3 M12.3 71.3 L9.45 72.6 Q12.55 65.85 18.2 61.1 L20.65 58.9 M12.3 71.3 L15.45 68.2 M19.15 84.45 L9.95 88.05 8.5 88.7 Q8.9 85.35 11.25 78.85 L13.45 75.7 M11.25 78.85 L8.4 79.95 Q10.45 74.35 12.3 71.3"/><path fill="#b3cc4a" stroke="none" d="M32.3 53.95 L31.75 55.45 30.8 56.8 Q27.3 60.85 26.4 69.4 L30.1 66.55 Q28.55 70.1 27.4 73.95 L26.75 76.45 28.6 82.8 29.4 84.3 Q32.7 90.25 38.5 93.85 39.45 86.25 39.6 80.2 L40.4 76.8 Q42.15 70.35 44.55 65.75 L44.85 64.8 46.8 62.5 Q48.55 60.55 49.05 58.25 L49.1 58.3 Q51.4 57.95 52.15 55.55 L51.9 55.15 Q57.3 52.0 63.75 52.95 L62.35 51.35 Q52.9 41.55 38.15 46.0 L37.0 46.4 30.55 49.55 30.35 54.75 32.3 53.95 34.55 50.4 32.3 53.95 M41.35 50.7 Q48.6 50.7 51.9 55.15 48.6 50.7 41.35 50.7 M51.6 61.4 L50.0 63.35 Q48.6 65.3 47.35 67.7 45.05 71.95 43.3 77.45 L42.65 79.85 Q47.85 86.15 52.3 96.7 47.85 86.15 42.65 79.85 41.2 84.9 40.2 91.0 L39.4 94.3 40.8 95.1 Q46.75 98.0 52.3 96.7 L53.95 96.5 Q60.75 95.3 65.0 90.3 L65.1 87.9 65.15 86.7 65.1 87.9 Q70.2 89.05 72.55 83.95 L73.0 87.9 75.25 90.65 80.1 81.95 79.7 79.35 80.7 81.8 82.05 89.0 85.55 84.15 85.85 75.4 89.2 79.75 Q90.35 78.0 90.6 71.6 88.15 56.25 67.95 53.85 L65.15 53.55 Q61.25 54.2 57.9 56.1 55.4 57.55 53.15 59.75 L51.6 61.4 M36.7 59.75 Q42.3 54.8 49.05 58.25 42.3 54.8 36.7 59.75 M68.5 72.0 L67.3 69.85 Q62.35 61.8 53.15 59.75 62.35 61.8 67.3 69.85 L68.5 72.0 M74.95 58.95 Q71.3 57.05 67.85 56.3 62.65 55.0 57.9 56.1 62.65 55.0 67.85 56.3 71.3 57.05 74.95 58.95 M31.55 73.05 Q37.6 64.8 43.95 65.6 L44.55 65.75 43.95 65.6 Q37.6 64.8 31.55 73.05 M31.9 85.75 Q35.35 81.7 39.6 80.2 35.35 81.7 31.9 85.75 M32.0 61.9 L30.1 66.55 32.0 61.9 M80.7 63.65 Q84.65 66.65 85.85 75.4 84.65 66.65 80.7 63.65 M71.75 80.3 L72.25 82.35 72.55 83.95 72.25 82.35 71.75 80.3 M70.65 76.45 L69.7 73.65 70.65 76.45 M70.75 63.85 Q75.5 66.95 78.15 74.7 75.5 66.95 70.75 63.85 M29.35 80.0 L28.6 82.8 29.35 80.0 M63.05 81.6 Q58.35 67.7 50.0 63.35 58.35 67.7 63.05 81.6"/><path fill="#809536" stroke="none" d="M63.75 52.95 Q57.3 52.0 51.9 55.15 L52.15 55.55 Q51.4 57.95 49.1 58.3 L49.05 58.25 Q48.55 60.55 46.8 62.5 L44.85 64.8 44.55 65.75 Q46.15 66.1 47.35 67.7 46.15 66.1 44.55 65.75 42.15 70.35 40.4 76.8 L39.6 80.2 42.65 79.85 39.6 80.2 Q39.45 86.25 38.5 93.85 L36.9 104.55 39.4 94.3 40.2 91.0 Q41.2 84.9 42.65 79.85 L43.3 77.45 Q45.05 71.95 47.35 67.7 48.6 65.3 50.0 63.35 L51.6 61.4 53.15 59.75 Q53.0 57.0 52.15 55.55 53.0 57.0 53.15 59.75 55.4 57.55 57.9 56.1 61.25 54.2 65.15 53.55 64.8 53.1 63.75 52.95 M51.6 61.4 Q50.75 59.25 49.1 58.3 50.75 59.25 51.6 61.4"/><path fill="#9ab235" stroke="none" d="M80.1 81.95 L75.25 90.65 79.05 95.4 Q81.05 89.45 80.1 81.95 M73.0 87.9 L72.55 83.95 Q70.2 89.05 65.1 87.9 L65.0 90.3 Q60.75 95.3 53.95 96.5 L52.3 96.7 Q46.75 98.0 40.8 95.1 L39.4 94.3 36.9 104.55 38.5 93.85 Q32.7 90.25 29.4 84.3 L28.6 82.8 28.35 83.8 28.6 82.8 26.75 76.45 Q25.4 81.8 24.85 87.8 L28.35 83.8 Q25.75 92.0 26.7 101.9 L28.65 99.1 Q28.65 103.75 29.9 111.75 L32.1 109.25 Q33.55 118.55 35.15 123.0 L42.7 113.45 44.9 118.5 Q50.4 111.55 54.3 103.95 L56.4 111.2 Q62.85 105.95 64.85 92.25 L72.6 98.15 Q73.35 92.8 73.0 87.9 M65.0 90.3 L64.85 92.25 65.0 90.3 M29.75 93.95 L28.65 99.1 29.75 93.95 M44.1 111.1 L42.7 113.45 44.1 111.1 M32.25 104.3 L32.1 109.25 32.25 104.3 M35.7 112.9 L36.9 104.55 35.7 112.9"/><path fill="none" stroke="#000000" stroke-width="0.5" stroke-opacity="0.301960784314" d="M30.1 66.55 L26.4 69.4 Q27.3 60.85 30.8 56.8 L31.75 55.45 32.3 53.95 34.55 50.4 M32.3 53.95 L30.35 54.75 30.55 49.55 37.0 46.4 38.15 46.0 Q52.9 41.55 62.35 51.35 L63.75 52.95 Q64.8 53.1 65.15 53.55 L67.95 53.85 Q88.15 56.25 90.6 71.6 90.35 78.0 89.2 79.75 L85.85 75.4 85.55 84.15 82.05 89.0 80.7 81.8 79.7 79.35 80.1 81.95 Q81.05 89.45 79.05 95.4 L75.25 90.65 73.0 87.9 72.55 83.95 72.25 82.35 71.75 80.3 M26.75 76.45 L27.4 73.95 Q28.55 70.1 30.1 66.55 L32.0 61.9 M65.1 87.9 L65.15 86.7 M65.1 87.9 L65.0 90.3 M73.0 87.9 Q73.35 92.8 72.6 98.15 L64.85 92.25 65.0 90.3 M64.85 92.25 Q62.85 105.95 56.4 111.2 L54.3 103.95 Q50.4 111.55 44.9 118.5 L42.7 113.45 44.1 111.1 M28.65 99.1 L29.75 93.95 M28.35 83.8 L28.6 82.8 29.35 80.0 M26.75 76.45 Q25.4 81.8 24.85 87.8 L28.35 83.8 Q25.75 92.0 26.7 101.9 L28.65 99.1 Q28.65 103.75 29.9 111.75 L32.1 109.25 Q33.55 118.55 35.15 123.0 L42.7 113.45 M32.1 109.25 L32.25 104.3"/><path fill="none" stroke="#000000" stroke-width="0.5" stroke-opacity="0.101960784314" d="M51.9 55.15 Q48.6 50.7 41.35 50.7 M52.15 55.55 L51.9 55.15 M49.05 58.25 L49.1 58.3 Q50.75 59.25 51.6 61.4 L50.0 63.35 Q48.6 65.3 47.35 67.7 46.15 66.1 44.55 65.75 L43.95 65.6 Q37.6 64.8 31.55 73.05 M49.05 58.25 Q42.3 54.8 36.7 59.75 M51.6 61.4 L53.15 59.75 Q62.35 61.8 67.3 69.85 L68.5 72.0 M52.15 55.55 Q53.0 57.0 53.15 59.75 55.4 57.55 57.9 56.1 62.65 55.0 67.85 56.3 71.3 57.05 74.95 58.95 M47.35 67.7 Q45.05 71.95 43.3 77.45 L42.65 79.85 39.6 80.2 Q35.35 81.7 31.9 85.75 M65.15 53.55 Q61.25 54.2 57.9 56.1 M85.85 75.4 Q84.65 66.65 80.7 63.65 M69.7 73.65 L70.65 76.45 M52.3 96.7 Q47.85 86.15 42.65 79.85 41.2 84.9 40.2 91.0 L39.4 94.3 36.9 104.55 35.7 112.9 M78.15 74.7 Q75.5 66.95 70.75 63.85 M50.0 63.35 Q58.35 67.7 63.05 81.6"/><path fill="#000000" fill-opacity="0.301960784314" d="M63.85 52.75 L62.45 51.1 Q53.0 41.3 38.25 45.75 L37.1 46.1 Q33.9 47.75 30.65 49.35 L30.45 54.5 32.4 53.7 31.9 55.25 30.9 56.55 Q29.3 58.4 28.2 61.2 38.9 67.2 48.6 65.7 55.25 86.4 73.15 92.65 L73.1 87.65 79.15 95.15 Q81.1 89.2 80.25 81.7 L79.85 79.1 80.8 81.55 82.2 88.8 85.6 83.9 85.95 75.15 89.3 79.5 Q90.4 77.75 90.65 71.4 88.25 56.05 68.05 53.65 L65.3 53.35 Q64.9 52.9 63.85 52.75"/></g><g id="c11"><g><use transform="matrix(1.0,0.0,0.0,1.0,0.0,0.0)" xlink:href="#c5"/></g></g><g id="c12"><path fill="#896f32" stroke="none" d="M66.4 11.8 L60.35 12.1 56.85 12.5 Q57.3 11.5 58.25 10.7 57.3 11.5 56.85 12.5 51.7 14.05 48.2 18.95 L48.05 18.95 47.9 18.25 48.05 18.95 48.2 19.2 Q46.5 21.6 45.95 23.95 45.4 21.85 47.9 18.25 48.2 17.55 50.45 15.0 52.65 12.5 58.25 10.7 62.6 9.4 68.05 10.25 66.8 10.8 66.4 11.8 66.8 10.8 68.05 10.25 72.15 10.7 76.75 11.95 L76.9 12.1 Q76.2 12.65 75.65 13.75 76.2 12.65 76.9 12.1 85.3 15.0 90.2 11.5 L91.7 10.1 95.5 5.8 Q96.75 4.25 98.3 3.7 L96.6 5.5 95.8 6.6 Q91.15 12.9 87.8 14.15 87.65 14.15 87.65 14.3 L87.65 14.45 83.9 15.3 Q81.35 15.55 75.65 13.75 74.35 13.05 72.25 12.65 L66.4 11.8 M115.4 22.45 L116.35 20.05 Q117.2 17.65 116.65 15.45 115.8 12.2 111.9 9.15 110.9 8.0 109.5 7.05 107.7 5.65 105.85 4.8 100.25 2.3 96.6 5.5 L98.3 3.7 Q101.65 1.85 106.4 3.8 108.1 4.25 110.05 5.65 112.3 6.75 113.7 8.15 117.2 11.25 117.9 14.75 118.3 16.55 117.75 18.5 117.5 20.45 116.1 22.3 L115.4 22.45 M119.0 22.55 L116.35 26.5 Q113.7 29.55 110.05 31.1 106.0 32.8 103.2 32.35 101.1 32.25 99.7 31.1 97.75 29.3 94.4 31.1 92.4 32.25 89.6 35.15 L83.3 42.05 73.8 51.15 Q71.55 52.95 69.05 54.05 L72.25 50.55 Q76.75 47.2 82.6 40.5 L85.7 37.4 Q89.6 33.35 92.15 31.1 94.5 29.55 96.35 29.0 L100.55 29.15 Q103.2 30.25 106.7 30.25 L108.5 30.25 Q112.3 29.15 116.9 24.8 L119.0 22.55 M47.65 47.2 L46.95 45.25 Q44.95 38.25 41.75 31.65 L41.75 31.4 40.9 29.45 Q39.65 23.85 44.4 17.95 42.45 22.55 43.3 28.3 43.3 29.45 43.7 30.7 L48.9 42.85 Q47.75 44.25 47.65 47.2 M40.9 29.45 Q42.15 28.75 43.3 28.3 42.15 28.75 40.9 29.45 M116.65 15.45 Q117.5 14.85 117.9 14.75 117.5 14.85 116.65 15.45 M111.9 9.15 Q112.6 8.3 113.7 8.15 112.6 8.3 111.9 9.15 M105.85 4.8 Q105.85 4.1 106.4 3.8 105.85 4.1 105.85 4.8 M87.8 14.15 L90.2 11.5 87.8 14.15 M103.2 32.35 Q105.3 31.55 106.7 30.25 105.3 31.55 103.2 32.35 M94.4 31.1 L96.35 29.0 94.4 31.1 M85.7 37.4 Q85.55 39.1 83.3 42.05 85.55 39.1 85.7 37.4 M116.9 24.8 L116.35 26.5 116.9 24.8"/><path fill="#d8ca7c" stroke="none" d="M68.05 10.25 Q62.6 9.4 58.25 10.7 59.4 9.55 61.9 8.15 59.4 9.55 58.25 10.7 52.65 12.5 50.45 15.0 48.2 17.55 47.9 18.25 47.05 16.85 45.55 16.85 47.05 16.85 47.9 18.25 45.4 21.85 45.95 23.95 45.65 26.2 45.8 28.45 L46.25 29.7 46.8 31.1 Q49.45 36.15 51.0 41.45 L51.25 42.45 51.7 43.7 52.55 45.1 Q53.5 46.65 55.35 47.75 L57.45 49.05 59.25 49.45 61.05 50.0 61.65 50.0 Q68.5 51.25 73.55 47.5 L74.95 46.25 Q79.55 42.15 85.4 36.0 L88.5 32.65 Q93.25 27.6 96.9 26.75 99.0 26.05 100.7 27.05 104.45 29.45 108.4 28.45 L109.65 28.15 112.3 26.5 112.45 26.5 112.85 26.05 116.1 22.3 Q117.5 20.45 117.75 18.5 118.3 16.55 117.9 14.75 117.2 11.25 113.7 8.15 114.95 7.75 116.9 8.15 120.3 11.95 120.85 15.55 121.1 17.95 120.15 20.35 L119.0 22.55 116.9 24.8 Q112.3 29.15 108.5 30.25 L106.7 30.25 108.4 28.45 106.7 30.25 Q103.2 30.25 100.55 29.15 L96.35 29.0 Q94.5 29.55 92.15 31.1 89.6 33.35 85.7 37.4 L82.6 40.5 Q76.75 47.2 72.25 50.55 L68.9 52.55 Q64.0 53.35 60.1 52.65 L56.15 51.7 Q55.75 51.4 55.35 51.4 L53.8 50.55 Q51.0 48.35 48.9 42.85 L43.7 30.7 Q43.3 29.45 43.3 28.3 L45.8 28.45 43.3 28.3 Q42.45 22.55 44.4 17.95 L45.25 16.95 45.55 16.85 Q52.1 9.4 58.95 8.45 L61.9 8.15 Q66.8 7.9 71.15 9.0 L71.85 9.15 78.0 10.7 78.85 10.95 Q77.6 11.25 76.9 12.1 77.6 11.25 78.85 10.95 L81.5 11.65 Q83.6 11.95 86.0 11.65 88.35 11.5 90.3 9.55 92.55 7.6 94.95 4.1 96.75 1.6 98.85 0.75 103.5 -1.35 110.9 2.3 L110.9 2.4 Q114.7 5.2 116.9 8.15 114.95 7.75 113.7 8.15 112.3 6.75 110.05 5.65 108.1 4.25 106.4 3.8 101.65 1.85 98.3 3.7 96.75 4.25 95.5 5.8 L91.7 10.1 90.2 11.5 Q85.3 15.0 76.9 12.1 L76.75 11.95 Q72.15 10.7 68.05 10.25 69.6 9.3 71.85 9.15 69.6 9.3 68.05 10.25 M90.3 9.55 Q91.45 9.85 90.2 11.5 91.45 9.85 90.3 9.55 M51.0 41.45 Q49.6 41.75 48.9 42.85 49.6 41.75 51.0 41.45 M57.45 49.05 Q56.15 49.45 55.6 50.7 L55.35 51.4 55.6 50.7 Q56.15 49.45 57.45 49.05 M73.55 47.5 Q73.8 48.45 72.25 50.55 73.8 48.45 73.55 47.5 M85.4 36.0 Q85.85 36.45 85.7 37.4 85.85 36.45 85.4 36.0 M120.85 15.55 Q119.45 14.15 117.9 14.75 119.45 14.15 120.85 15.55 M98.85 0.75 Q100.7 0.6 98.3 3.7 100.7 0.6 98.85 0.75 M110.9 2.4 Q107.7 2.55 106.4 3.8 107.7 2.55 110.9 2.4 M116.1 22.3 Q117.5 22.55 116.9 24.8 117.5 22.55 116.1 22.3 M96.9 26.75 Q97.45 27.35 96.35 29.0 97.45 27.35 96.9 26.75"/><path fill="#b19741" stroke="none" d="M48.2 18.95 L48.2 19.2 48.05 18.95 48.2 18.95 M112.85 26.05 Q114.25 24.55 115.4 22.45 L116.1 22.3 112.85 26.05 M69.05 54.05 Q65.15 55.6 60.8 55.2 L58.85 55.05 Q58.25 54.9 58.0 55.05 57.7 54.75 57.55 54.75 L54.9 53.95 52.4 52.65 51.0 51.7 Q48.75 49.85 47.65 47.2 47.75 44.25 48.9 42.85 51.0 48.35 53.8 50.55 L55.35 51.4 Q55.75 51.4 56.15 51.7 L60.1 52.65 Q64.0 53.35 68.9 52.55 L72.25 50.55 69.05 54.05 M55.35 51.4 L55.05 53.35 54.9 53.95 55.05 53.35 55.35 51.4"/><path fill="none" stroke="#000000" stroke-width="0.5" stroke-opacity="0.301960784314" d="M56.85 12.5 L60.35 12.1 66.4 11.8 Q66.8 10.8 68.05 10.25 M58.25 10.7 Q57.3 11.5 56.85 12.5 51.7 14.05 48.2 18.95 L48.2 19.2 Q46.5 21.6 45.95 23.95 45.65 26.2 45.8 28.45 L46.25 29.7 46.8 31.1 Q49.45 36.15 51.0 41.45 L51.25 42.45 51.7 43.7 M52.55 45.1 Q53.5 46.65 55.35 47.75 L57.45 49.05 59.25 49.45 61.05 50.0 61.65 50.0 Q68.5 51.25 73.55 47.5 L74.95 46.25 Q79.55 42.15 85.4 36.0 L88.5 32.65 Q93.25 27.6 96.9 26.75 99.0 26.05 100.7 27.05 104.45 29.45 108.4 28.45 L109.65 28.15 112.3 26.5 112.45 26.5 112.85 26.05 Q114.25 24.55 115.4 22.45 L116.35 20.05 Q117.2 17.65 116.65 15.45 115.8 12.2 111.9 9.15 110.9 8.0 109.5 7.05 107.7 5.65 105.85 4.8 100.25 2.3 96.6 5.5 L95.8 6.6 Q91.15 12.9 87.8 14.15 87.65 14.15 87.65 14.3 L87.65 14.45 83.9 15.3 Q81.35 15.55 75.65 13.75 74.35 13.05 72.25 12.65 L66.4 11.8 M61.9 8.15 Q59.4 9.55 58.25 10.7 M47.9 18.25 L48.05 18.95 48.2 19.2 M61.9 8.15 L58.95 8.45 Q52.1 9.4 45.55 16.85 47.05 16.85 47.9 18.25 M78.85 10.95 L78.0 10.7 71.85 9.15 Q69.6 9.3 68.05 10.25 M76.9 12.1 Q77.6 11.25 78.85 10.95 L81.5 11.65 Q83.6 11.95 86.0 11.65 88.35 11.5 90.3 9.55 92.55 7.6 94.95 4.1 96.75 1.6 98.85 0.75 103.5 -1.35 110.9 2.3 L110.9 2.4 Q114.7 5.2 116.9 8.15 120.3 11.95 120.85 15.55 121.1 17.95 120.15 20.35 L119.0 22.55 116.35 26.5 Q113.7 29.55 110.05 31.1 106.0 32.8 103.2 32.35 101.1 32.25 99.7 31.1 97.75 29.3 94.4 31.1 92.4 32.25 89.6 35.15 L83.3 42.05 73.8 51.15 Q71.55 52.95 69.05 54.05 65.15 55.6 60.8 55.2 L58.85 55.05 Q58.25 54.9 58.0 55.05 57.7 54.75 57.55 54.75 L54.9 53.95 52.4 52.65 51.0 51.7 Q48.75 49.85 47.65 47.2 L46.95 45.25 Q44.95 38.25 41.75 31.65 L41.75 31.4 40.9 29.45 Q39.65 23.85 44.4 17.95 L45.25 16.95 45.55 16.85 M71.85 9.15 L71.15 9.0 Q66.8 7.9 61.9 8.15 M75.65 13.75 Q76.2 12.65 76.9 12.1 M90.2 11.5 Q91.45 9.85 90.3 9.55 M43.3 28.3 L45.8 28.45 M48.9 42.85 Q49.6 41.75 51.0 41.45 M54.9 53.95 L55.05 53.35 55.35 51.4 55.6 50.7 Q56.15 49.45 57.45 49.05 M48.9 42.85 Q47.75 44.25 47.65 47.2 M72.25 50.55 Q73.8 48.45 73.55 47.5 M43.3 28.3 Q42.15 28.75 40.9 29.45 M85.7 37.4 Q85.85 36.45 85.4 36.0 M72.25 50.55 L69.05 54.05 M117.9 14.75 Q117.5 14.85 116.65 15.45 M113.7 8.15 Q112.6 8.3 111.9 9.15 M117.9 14.75 Q119.45 14.15 120.85 15.55 M116.9 8.15 Q114.95 7.75 113.7 8.15 M106.4 3.8 Q105.85 4.1 105.85 4.8 M90.2 11.5 L87.8 14.15 M96.6 5.5 L98.3 3.7 Q100.7 0.6 98.85 0.75 M106.4 3.8 Q107.7 2.55 110.9 2.4 M116.9 24.8 Q117.5 22.55 116.1 22.3 L115.4 22.45 M106.7 30.25 L108.4 28.45 M106.7 30.25 Q105.3 31.55 103.2 32.35 M96.35 29.0 Q97.45 27.35 96.9 26.75 M96.35 29.0 L94.4 31.1 M116.35 26.5 L116.9 24.8 M83.3 42.05 Q85.55 39.1 85.7 37.4"/><path fill="#e6d8a2" stroke="none" d="M15.25 36.7 Q18.05 35.0 21.3 34.3 27.3 35.45 34.45 40.2 L31.8 48.15 Q29.7 46.75 27.6 45.95 24.9 44.95 21.15 44.1 16.95 46.65 16.1 52.25 14.0 43.4 15.25 36.7 M28.0 59.1 L26.6 63.55 23.25 59.35 23.8 59.35 28.0 59.1 M8.1 43.25 Q9.8 40.9 11.9 38.95 13.0 44.8 11.75 48.3 9.5 47.45 8.1 43.25 M20.6 68.2 L12.05 67.2 10.65 66.9 9.65 66.65 8.25 63.55 Q5.2 56.4 5.45 48.05 6.6 52.65 12.3 58.95 L12.45 59.1 Q16.4 64.4 20.6 68.2"/><path fill="#ebe1be" stroke="none" d="M26.6 63.55 L24.9 67.9 21.3 68.05 20.6 68.2 Q16.4 64.4 12.45 59.1 L12.45 58.95 7.85 47.05 7.0 44.8 8.1 43.25 Q9.5 47.45 11.75 48.3 13.0 44.8 11.9 38.95 L15.25 36.7 Q14.0 43.4 16.1 52.25 L16.1 52.5 Q15.8 54.9 16.25 57.7 L17.2 57.95 Q18.35 58.65 19.6 58.8 L21.85 59.2 23.25 59.35 26.6 63.55"/><path fill="#f5f0de" stroke="none" d="M31.8 48.15 L31.5 48.75 Q27.0 45.5 21.4 44.65 L19.2 46.65 Q17.1 49.15 16.95 53.5 L16.1 52.5 16.1 52.25 Q16.95 46.65 21.15 44.1 24.9 44.95 27.6 45.95 29.7 46.75 31.8 48.15 M24.9 67.9 L26.05 68.75 Q23.65 69.0 21.15 68.75 L12.2 67.9 11.2 67.6 10.5 67.6 15.55 71.7 14.3 71.4 13.85 71.1 Q10.9 69.6 9.4 67.6 L9.4 67.35 9.25 67.2 8.8 66.5 Q7.3 64.0 6.15 60.9 4.2 54.75 5.3 47.35 L5.75 46.75 Q8.4 53.35 12.45 58.95 L12.3 58.95 Q6.6 52.65 5.45 48.05 5.2 56.4 8.25 63.55 L9.65 66.65 10.65 66.9 12.05 67.2 20.6 68.2 21.3 68.05 24.9 67.9 M16.1 52.5 L16.95 53.5 Q16.8 55.6 17.2 57.95 L16.25 57.7 Q15.8 54.9 16.1 52.5"/><path fill="#7b7437" stroke="none" d="M31.5 48.75 L31.5 49.3 Q26.9 46.5 23.65 46.75 L21.4 44.65 Q27.0 45.5 31.5 48.75 M26.05 68.75 L29.95 72.8 20.15 72.4 15.55 71.7 10.5 67.6 11.2 67.6 12.2 67.9 21.15 68.75 Q23.65 69.0 26.05 68.75 M5.75 46.75 L7.85 47.05 12.45 58.95 Q8.4 53.35 5.75 46.75"/><path fill="#998f44" stroke="none" d="M21.4 44.65 L23.65 46.75 Q19.6 49.15 19.3 55.0 L16.95 53.5 Q17.1 49.15 19.2 46.65 L21.4 44.65"/><path fill="#bdb56c" stroke="none" d="M31.5 49.3 L28.0 59.1 23.8 59.35 23.25 59.35 21.85 59.2 19.3 55.0 Q19.6 49.15 23.65 46.75 26.9 46.5 31.5 49.3"/><path fill="#b3a955" stroke="none" d="M17.2 57.95 Q16.8 55.6 16.95 53.5 L19.3 55.0 Q19.3 56.85 19.6 58.8 18.35 58.65 17.2 57.95"/><path fill="#c4bc80" stroke="none" d="M19.6 58.8 Q19.3 56.85 19.3 55.0 L21.85 59.2 19.6 58.8"/><path fill="#d8d2a7" stroke="none" d="M12.3 58.95 L12.45 58.95 12.45 59.1 12.3 58.95"/><path fill="none" stroke="#000000" stroke-width="0.5" stroke-opacity="0.301960784314" d="M15.25 36.7 Q18.05 35.0 21.3 34.3 27.3 35.45 34.45 40.2 L31.8 48.15 31.5 48.75 31.5 49.3 28.0 59.1 26.6 63.55 24.9 67.9 26.05 68.75 29.95 72.8 20.15 72.4 15.55 71.7 14.3 71.4 13.85 71.1 Q10.9 69.6 9.4 67.6 L9.4 67.35 M9.25 67.2 L8.8 66.5 Q7.3 64.0 6.15 60.9 4.2 54.75 5.3 47.35 L5.75 46.75 7.85 47.05 7.0 44.8 8.1 43.25 Q9.8 40.9 11.9 38.95 L15.25 36.7 M23.25 59.35 L23.8 59.35 28.0 59.1 M21.85 59.2 L23.25 59.35 M17.2 57.95 Q18.35 58.65 19.6 58.8 M21.85 59.2 L19.6 58.8"/><path fill="none" stroke="#000000" stroke-width="0.5" stroke-opacity="0.101960784314" d="M15.25 36.7 Q14.0 43.4 16.1 52.25 M11.9 38.95 Q13.0 44.8 11.75 48.3 9.5 47.45 8.1 43.25 M16.1 52.5 L16.1 52.25 M16.95 53.5 L16.1 52.5 M16.95 53.5 L19.3 55.0 21.85 59.2 M23.25 59.35 L26.6 63.55 M12.45 58.95 Q8.4 53.35 5.75 46.75 M12.45 59.1 Q16.4 64.4 20.6 68.2 M12.45 59.1 L12.3 58.95 M12.45 58.95 L7.85 47.05"/><path fill="#cdc78f" stroke="none" d="M62.3 16.95 L63.0 17.35 Q63.55 20.75 63.15 23.4 62.85 26.2 61.85 28.0 L60.9 28.45 Q62.0 26.2 62.45 23.65 63.15 20.3 62.3 16.95 M75.05 24.65 L75.85 25.2 Q75.75 26.9 74.35 28.45 L72.5 29.95 70.0 31.35 69.0 30.95 Q70.7 30.25 71.8 29.4 75.15 27.15 75.05 24.65 M84.0 52.65 Q83.7 49.15 82.45 45.65 L82.3 45.1 80.75 41.75 81.05 41.6 83.15 46.05 83.3 46.5 Q84.4 49.55 84.7 52.5 L84.0 52.65 M84.85 55.45 Q84.85 61.9 81.75 68.3 79.95 71.8 77.55 74.5 L76.55 73.65 77.55 74.5 Q72.8 79.65 65.1 81.6 L62.45 82.3 Q51.8 84.3 43.0 82.9 40.3 82.45 37.8 81.6 32.9 80.2 29.55 77.4 L28.7 76.6 Q32.05 79.25 36.95 80.8 L42.3 81.9 43.0 82.9 42.3 81.9 Q51.1 83.45 61.6 81.5 L64.65 80.65 Q71.95 78.55 76.55 73.65 79.1 71.0 80.9 67.5 83.85 61.45 84.0 55.6 L84.85 55.45"/><path fill="#ca923e" stroke="none" d="M40.2 32.05 Q41.6 31.35 43.0 30.8 45.8 29.7 48.6 29.0 50.7 68.6 76.55 73.65 71.95 78.55 64.65 80.65 L61.6 81.5 Q51.1 83.45 42.3 81.9 33.3 54.2 40.2 32.05 M72.5 32.75 L75.6 35.15 Q77.4 36.85 78.8 38.65 L80.75 41.75 82.3 45.1 82.45 45.65 Q83.7 49.15 84.0 52.65 L72.35 56.55 Q59.9 58.25 56.25 45.35 57.1 35.15 72.5 32.75"/><path fill="#d5a866" stroke="none" d="M68.6 25.5 Q71.95 24.5 75.05 24.65 75.15 27.15 71.8 29.4 70.7 30.25 69.0 30.95 L70.0 31.35 72.5 32.75 Q57.1 35.15 56.25 45.35 59.9 58.25 72.35 56.55 L84.0 55.6 Q83.85 61.45 80.9 67.5 79.1 71.0 76.55 73.65 50.7 68.6 48.6 29.0 L52.9 28.15 Q56.85 18.75 62.3 16.95 63.15 20.3 62.45 23.65 62.0 26.2 60.9 28.45 L61.85 28.0 Q63.95 27.05 66.5 26.2 L68.6 25.5 M23.25 69.0 L23.1 68.45 22.95 68.05 Q19.75 58.5 25.35 47.2 30.25 37.25 40.2 32.05 33.3 54.2 42.3 81.9 L36.95 80.8 Q32.05 79.25 28.7 76.6 L27.15 75.05 Q24.65 72.5 23.25 69.0"/><path fill="#6f5f3c" stroke="none" d="M75.85 25.2 L81.6 34.15 Q81.45 35.3 80.9 36.4 L74.35 28.45 Q75.75 26.9 75.85 25.2"/><path fill="#645535" stroke="none" d="M63.0 17.35 L68.6 25.5 66.5 26.2 Q63.95 27.05 61.85 28.0 62.85 26.2 63.15 23.4 63.55 20.75 63.0 17.35 M80.9 36.4 Q80.2 37.65 78.8 38.65 77.4 36.85 75.6 35.15 L72.5 32.75 70.0 31.35 72.5 29.95 74.35 28.45 80.9 36.4 M79.65 39.65 L81.35 41.45 81.05 41.6 79.65 39.65"/><path fill="#bcd19c" stroke="none" d="M78.8 38.65 L79.65 39.65 81.05 41.6 80.75 41.75 78.8 38.65"/><path fill="#66401a" stroke="none" d="M81.35 41.45 Q85.95 47.2 88.45 54.75 L88.45 54.9 88.6 55.0 Q90.15 59.2 90.3 63.55 L88.6 60.2 84.7 52.5 Q84.4 49.55 83.3 46.5 L83.15 46.05 81.05 41.6 81.35 41.45 M81.2 85.1 Q76.45 89.2 69.55 90.85 L67.75 91.3 Q58.25 93.1 50.0 92.0 39.9 88.75 43.0 82.9 51.8 84.3 62.45 82.3 L65.1 81.6 Q72.8 79.65 77.55 74.5 82.15 76.85 81.2 85.1"/><path fill="#4f3f28" stroke="none" d="M72.35 56.55 L84.0 52.65 84.7 52.5 88.6 60.2 84.85 55.45 84.0 55.6 72.35 56.55"/><path fill="#7a4b1f" stroke="none" d="M90.3 63.55 Q90.55 70.4 87.05 77.3 84.85 81.9 81.2 85.1 82.15 76.85 77.55 74.5 79.95 71.8 81.75 68.3 84.85 61.9 84.85 55.45 L88.6 60.2 90.3 63.55 M50.0 92.0 L43.25 90.6 Q36.8 88.6 33.2 84.7 27.45 80.5 23.25 69.0 24.65 72.5 27.15 75.05 L28.7 76.6 29.55 77.4 Q32.9 80.2 37.8 81.6 40.3 82.45 43.0 82.9 39.9 88.75 50.0 92.0"/><path fill="none" stroke="#000000" stroke-width="0.5" stroke-opacity="0.301960784314" d="M62.3 16.95 L63.0 17.35 68.6 25.5 Q71.95 24.5 75.05 24.65 L75.85 25.2 81.6 34.15 Q81.45 35.3 80.9 36.4 80.2 37.65 78.8 38.65 L79.65 39.65 81.35 41.45 Q85.95 47.2 88.45 54.75 L88.45 54.9 88.6 55.0 Q90.15 59.2 90.3 63.55 90.55 70.4 87.05 77.3 84.85 81.9 81.2 85.1 76.45 89.2 69.55 90.85 L67.75 91.3 Q58.25 93.1 50.0 92.0 L43.25 90.6 Q36.8 88.6 33.2 84.7 27.45 80.5 23.25 69.0 L23.1 68.45 22.95 68.05 Q19.75 58.5 25.35 47.2 30.25 37.25 40.2 32.05 41.6 31.35 43.0 30.8 45.8 29.7 48.6 29.0 L52.9 28.15 Q56.85 18.75 62.3 16.95 M60.9 28.45 L61.85 28.0 Q63.95 27.05 66.5 26.2 L68.6 25.5 M78.8 38.65 Q77.4 36.85 75.6 35.15 L72.5 32.75 70.0 31.35 69.0 30.95"/><path fill="none" stroke="#000000" stroke-width="0.5" stroke-opacity="0.101960784314" d="M72.5 32.75 Q57.1 35.15 56.25 45.35 59.9 58.25 72.35 56.55 M88.6 60.2 L90.3 63.55 M76.55 73.65 L77.55 74.5 Q82.15 76.85 81.2 85.1 M76.55 73.65 Q50.7 68.6 48.6 29.0 M42.3 81.9 Q33.3 54.2 40.2 32.05 M43.0 82.9 L42.3 81.9 M43.0 82.9 Q39.9 88.75 50.0 92.0"/></g><g id="c13"><g><use transform="matrix(1.0,0.0,0.0,1.0,0.0,0.0)" xlink:href="#c5"/></g></g><g id="c14"><path fill="#ebe1be" stroke="none" d="M94.05 50.85 Q95.35 58.65 105.15 68.45 104.0 72.25 101.5 75.45 99.25 78.7 95.75 81.05 85.25 79.95 78.1 74.9 79.8 73.1 80.65 71.25 L82.75 72.5 Q85.95 74.5 89.6 74.6 90.3 74.05 91.0 73.8 95.05 71.1 95.9 67.35 L96.15 65.8 96.15 65.25 Q94.5 63.4 92.1 62.3 89.45 61.05 85.55 60.75 86.5 56.7 85.4 52.25 89.75 51.1 94.05 50.85"/><path fill="#e6d8a2" stroke="none" d="M94.05 50.85 L101.9 51.4 Q103.15 53.65 103.85 55.85 105.55 60.75 105.55 66.2 L105.15 68.45 Q95.35 58.65 94.05 50.85 M74.2 78.55 Q76.45 76.7 78.1 74.9 85.25 79.95 95.75 81.05 93.1 83.0 89.6 84.55 L87.5 85.55 Q82.45 84.15 80.2 82.6 L76.85 80.8 Q76.0 80.35 74.2 78.55"/><path fill="#998f44" stroke="none" d="M101.9 51.4 Q104.3 53.05 106.4 57.1 109.9 63.4 109.6 70.0 109.45 73.65 107.95 77.15 107.95 72.1 105.7 69.15 L105.95 67.2 Q106.1 61.45 104.45 56.55 103.45 53.75 101.9 51.4 M99.25 88.05 Q96.15 90.15 92.4 91.7 89.85 89.2 89.45 86.5 L89.15 85.8 89.45 85.7 Q93.35 84.0 96.3 81.9 96.3 85.8 99.25 88.05"/><path fill="#f5f0de" stroke="none" d="M105.15 68.45 L105.55 66.2 Q105.55 60.75 103.85 55.85 103.15 53.65 101.9 51.4 103.45 53.75 104.45 56.55 106.1 61.45 105.95 67.2 L105.7 69.15 105.15 68.45 105.7 69.15 Q104.55 73.1 102.05 76.45 99.8 79.4 96.3 81.9 L95.75 81.05 96.3 81.9 Q93.35 84.0 89.45 85.7 L89.15 85.8 89.45 86.5 Q89.85 89.2 92.4 91.7 91.7 92.0 90.85 91.7 90.3 90.0 89.15 88.6 88.05 87.1 86.65 85.95 82.45 84.55 80.05 83.15 L76.55 81.2 74.6 79.65 74.2 79.25 74.2 78.55 Q76.0 80.35 76.85 80.8 L80.2 82.6 Q82.45 84.15 87.5 85.55 L89.6 84.55 Q93.1 83.0 95.75 81.05 99.25 78.7 101.5 75.45 104.0 72.25 105.15 68.45 M85.95 61.75 L85.55 60.75 Q89.45 61.05 92.1 62.3 94.5 63.4 96.15 65.25 L96.15 65.8 Q94.5 64.1 92.1 63.0 89.45 61.9 85.95 61.75"/><path fill="#7b7437" stroke="none" d="M90.85 91.7 L88.75 90.85 Q82.45 88.2 77.7 82.9 L74.6 79.65 76.55 81.2 80.05 83.15 Q82.45 84.55 86.65 85.95 88.05 87.1 89.15 88.6 90.3 90.0 90.85 91.7 M86.65 64.25 L86.65 64.1 85.95 61.75 Q89.45 61.9 92.1 63.0 94.5 64.1 96.15 65.8 L95.9 67.35 Q94.2 65.95 91.85 65.25 89.6 64.4 86.65 64.25"/><path fill="#bdb56c" stroke="none" d="M82.75 72.5 Q85.8 68.6 86.65 64.25 89.6 64.4 91.85 65.25 94.2 65.95 95.9 67.35 95.05 71.1 91.0 73.8 90.3 74.05 89.6 74.6 85.95 74.5 82.75 72.5"/><path fill="#b3a955" stroke="none" d="M107.95 77.15 Q106.8 79.8 105.15 82.3 102.9 85.7 99.25 88.05 96.3 85.8 96.3 81.9 99.8 79.4 102.05 76.45 104.55 73.1 105.7 69.15 107.95 72.1 107.95 77.15"/><path fill="none" stroke="#000000" stroke-width="0.5" stroke-opacity="0.301960784314" d="M101.9 51.4 L94.05 50.85 M101.9 51.4 Q104.3 53.05 106.4 57.1 109.9 63.4 109.6 70.0 109.45 73.65 107.95 77.15 106.8 79.8 105.15 82.3 102.9 85.7 99.25 88.05 96.15 90.15 92.4 91.7 91.7 92.0 90.85 91.7 L88.75 90.85 Q82.45 88.2 77.7 82.9 L74.6 79.65 74.2 79.25 74.2 78.55 Q76.45 76.7 78.1 74.9 79.8 73.1 80.65 71.25 L82.75 72.5 Q85.8 68.6 86.65 64.25 L86.65 64.1 85.95 61.75 85.55 60.75 Q86.5 56.7 85.4 52.25 89.75 51.1 94.05 50.85 M96.15 65.8 L95.9 67.35 Q95.05 71.1 91.0 73.8 90.3 74.05 89.6 74.6 85.95 74.5 82.75 72.5"/><path fill="none" stroke="#000000" stroke-width="0.5" stroke-opacity="0.101960784314" d="M94.05 50.85 Q95.35 58.65 105.15 68.45 M105.7 69.15 Q107.95 72.1 107.95 77.15 M105.7 69.15 L105.15 68.45 M95.75 81.05 L96.3 81.9 M95.75 81.05 Q85.25 79.95 78.1 74.9 M99.25 88.05 Q96.3 85.8 96.3 81.9"/><path fill="#fdfcf9" stroke="none" d="M32.0 48.3 L31.35 47.55 Q29.6 45.1 30.3 41.95 30.95 38.8 33.7 36.8 36.45 34.8 39.7 35.15 42.85 35.5 44.6 37.95 L45.15 38.8 Q46.35 40.95 45.75 43.55 45.1 46.7 42.35 48.7 39.6 50.7 36.35 50.35 33.7 50.05 32.0 48.3 M44.75 43.2 Q45.2 40.9 44.2 38.95 L43.75 38.2 Q42.15 36.0 39.35 35.7 36.45 35.4 34.0 37.2 31.5 38.95 30.95 41.75 30.3 44.6 31.9 46.8 L32.45 47.45 Q33.95 49.0 36.35 49.25 39.15 49.5 41.65 47.75 44.1 45.95 44.75 43.2"/><path fill="#ede8d6" stroke="none" d="M44.75 43.2 Q44.1 45.95 41.65 47.75 39.15 49.5 36.35 49.25 33.95 49.0 32.45 47.45 L31.9 46.8 Q30.3 44.6 30.95 41.75 31.5 38.95 34.0 37.2 36.45 35.4 39.35 35.7 42.15 36.0 43.75 38.2 L44.2 38.95 Q45.2 40.9 44.75 43.2"/><path fill="#e2dabe" stroke="none" d="M45.15 38.8 L45.8 39.6 Q47.6 42.05 46.95 45.2 46.25 48.3 43.5 50.3 40.75 52.3 37.55 52.0 34.35 51.65 32.55 49.2 L32.0 48.3 Q33.7 50.05 36.35 50.35 39.6 50.7 42.35 48.7 45.1 46.7 45.75 43.55 46.35 40.95 45.15 38.8"/><path fill="none" stroke="#000000" stroke-width="0.5" stroke-opacity="0.301960784314" d="M32.0 48.3 L31.35 47.55 Q29.6 45.1 30.3 41.95 30.95 38.8 33.7 36.8 36.45 34.8 39.7 35.15 42.85 35.5 44.6 37.95 L45.15 38.8 45.8 39.6 Q47.6 42.05 46.95 45.2 46.25 48.3 43.5 50.3 40.75 52.3 37.55 52.0 34.35 51.65 32.55 49.2 L32.0 48.3"/><path fill="#7e713d" stroke="none" d="M47.2 43.85 Q46.05 44.65 45.65 45.8 45.5 46.2 45.65 46.65 45.65 47.6 46.9 48.3 48.6 49.45 51.25 49.85 54.05 50.25 56.25 49.85 58.1 49.45 58.65 48.75 L58.95 47.9 Q59.35 46.9 59.05 45.8 58.95 44.95 58.25 44.1 56.7 42.15 53.9 41.75 51.25 41.3 48.85 42.55 47.75 43.0 47.2 43.85 M48.0 41.85 Q50.95 40.45 54.3 40.9 57.55 41.45 59.35 43.7 61.15 45.8 60.35 48.3 L59.9 49.3 Q59.05 50.25 56.95 50.7 54.3 51.25 51.1 50.7 47.75 50.25 45.65 48.85 44.1 47.9 44.1 46.9 L44.25 45.95 Q45.1 43.4 48.0 41.85"/><path fill="#4a4224" stroke="none" d="M47.2 43.85 Q47.75 43.0 48.85 42.55 51.25 41.3 53.9 41.75 56.7 42.15 58.25 44.1 58.95 44.95 59.05 45.8 56.95 49.15 51.95 48.45 46.75 47.35 47.2 43.85"/><path fill="#39331c" stroke="none" d="M59.05 45.8 Q59.35 46.9 58.95 47.9 L58.65 48.75 Q58.1 49.45 56.25 49.85 54.05 50.25 51.25 49.85 48.6 49.45 46.9 48.3 45.65 47.6 45.65 46.65 45.5 46.2 45.65 45.8 46.05 44.65 47.2 43.85 46.75 47.35 51.95 48.45 56.95 49.15 59.05 45.8"/><path fill="none" stroke="#000000" stroke-width="0.5" stroke-opacity="0.301960784314" d="M48.0 41.85 Q50.95 40.45 54.3 40.9 57.55 41.45 59.35 43.7 61.15 45.8 60.35 48.3 L59.9 49.3 Q59.05 50.25 56.95 50.7 54.3 51.25 51.1 50.7 47.75 50.25 45.65 48.85 44.1 47.9 44.1 46.9 L44.25 45.95 Q45.1 43.4 48.0 41.85"/><path fill="#fdfcf9" stroke="none" d="M75.1 48.8 Q75.55 46.5 74.55 44.55 L74.1 43.8 Q72.5 41.6 69.7 41.3 66.8 41.0 64.35 42.8 61.85 44.55 61.3 47.35 60.65 50.2 62.25 52.4 L62.8 53.05 Q64.3 54.6 66.7 54.85 69.5 55.1 72.0 53.35 74.45 51.55 75.1 48.8 M75.5 44.4 Q76.7 46.55 76.1 49.15 75.45 52.3 72.7 54.3 69.95 56.3 66.7 55.95 64.05 55.65 62.35 53.9 L61.7 53.15 Q59.95 50.7 60.65 47.55 61.3 44.4 64.05 42.4 66.8 40.4 70.05 40.75 73.2 41.1 74.95 43.55 L75.5 44.4"/><path fill="#e2dabe" stroke="none" d="M62.35 53.9 Q64.05 55.65 66.7 55.95 69.95 56.3 72.7 54.3 75.45 52.3 76.1 49.15 76.7 46.55 75.5 44.4 L76.15 45.2 Q77.95 47.65 77.3 50.8 76.6 53.9 73.85 55.9 71.1 57.9 67.9 57.6 64.7 57.25 62.9 54.8 L62.35 53.9"/><path fill="#ede8d6" stroke="none" d="M75.1 48.8 Q74.45 51.55 72.0 53.35 69.5 55.1 66.7 54.85 64.3 54.6 62.8 53.05 L62.25 52.4 Q60.65 50.2 61.3 47.35 61.85 44.55 64.35 42.8 66.8 41.0 69.7 41.3 72.5 41.6 74.1 43.8 L74.55 44.55 Q75.55 46.5 75.1 48.8"/><path fill="none" stroke="#000000" stroke-width="0.5" stroke-opacity="0.301960784314" d="M62.35 53.9 L62.9 54.8 Q64.7 57.25 67.9 57.6 71.1 57.9 73.85 55.9 76.6 53.9 77.3 50.8 77.95 47.65 76.15 45.2 L75.5 44.4 74.95 43.55 Q73.2 41.1 70.05 40.75 66.8 40.4 64.05 42.4 61.3 44.4 60.65 47.55 59.95 50.7 61.7 53.15 L62.35 53.9"/><path fill="#ebe1be" stroke="none" d="M22.25 58.5 L22.25 58.1 22.25 57.95 Q24.35 51.1 33.05 47.75 41.85 44.55 51.95 46.65 56.0 47.6 59.5 49.3 61.3 50.0 63.0 50.95 L63.25 51.1 63.4 51.25 64.55 52.1 67.35 54.75 68.05 55.45 Q72.95 61.75 71.1 68.2 L70.85 68.75 Q69.0 73.8 61.05 75.9 52.8 78.1 42.55 75.9 32.2 73.5 26.05 68.05 L24.8 67.05 Q25.2 67.2 24.5 66.5 22.95 64.55 22.25 62.6 21.7 60.5 22.25 58.5"/><path fill="#b8a661" stroke="none" d="M64.55 52.1 L63.4 51.25 64.65 51.95 64.55 52.1"/><path fill="#8f8045" stroke="none" d="M24.5 66.5 Q25.2 67.2 24.8 67.05 L26.3 68.3 26.9 68.9 29.95 71.4 Q29.8 72.8 33.6 76.7 30.25 74.75 27.6 72.4 23.8 69.0 22.7 65.65 22.1 64.25 22.1 62.85 22.8 64.7 24.5 66.5 M68.05 55.45 L67.35 54.75 64.55 52.1 64.65 51.95 Q68.75 54.3 71.55 58.1 L71.65 58.25 Q75.75 62.7 76.15 67.5 73.75 60.05 71.65 61.45 70.7 58.5 68.05 55.45 M69.3 79.25 Q67.9 79.95 66.05 80.35 67.05 77.85 61.85 76.7 L66.65 74.9 Q65.8 77.4 69.3 79.25"/><path fill="#685c31" stroke="none" d="M76.15 67.5 Q76.45 70.0 75.6 72.5 L75.45 73.1 Q74.05 77.0 69.3 79.25 65.8 77.4 66.65 74.9 70.4 72.95 71.55 69.6 L71.8 68.9 Q72.95 65.1 71.65 61.45 73.75 60.05 76.15 67.5 M66.05 80.35 L64.8 80.8 Q56.0 83.15 45.1 80.8 38.5 79.25 33.6 76.7 29.8 72.8 29.95 71.4 35.3 74.9 43.25 76.6 53.35 78.95 61.75 76.7 L61.85 76.7 Q67.05 77.85 66.05 80.35"/><path fill="#f5f0de" stroke="none" d="M26.05 68.05 Q32.2 73.5 42.55 75.9 52.8 78.1 61.05 75.9 69.0 73.8 70.85 68.75 L71.1 68.2 Q72.95 61.75 68.05 55.45 70.7 58.5 71.65 61.45 72.95 65.1 71.8 68.9 L71.55 69.6 Q70.4 72.95 66.65 74.9 L61.85 76.7 61.75 76.7 Q53.35 78.95 43.25 76.6 35.3 74.9 29.95 71.4 L26.9 68.9 26.3 68.3 26.05 68.05"/><path fill="#ddd8b3" stroke="none" d="M22.25 58.5 Q21.7 60.5 22.25 62.6 22.95 64.55 24.5 66.5 22.8 64.7 22.1 62.85 21.7 60.6 22.1 58.5 L22.25 58.5 M24.8 67.05 L26.05 68.05 26.3 68.3 24.8 67.05"/><path fill="none" stroke="#000000" stroke-width="0.5" stroke-opacity="0.301960784314" d="M63.4 51.25 L63.25 51.1 63.0 50.95 Q61.3 50.0 59.5 49.3 56.0 47.6 51.95 46.65 41.85 44.55 33.05 47.75 24.35 51.1 22.25 57.95 L22.25 58.1 22.25 58.5 M63.4 51.25 L64.65 51.95 Q68.75 54.3 71.55 58.1 L71.65 58.25 Q75.75 62.7 76.15 67.5 76.45 70.0 75.6 72.5 L75.45 73.1 Q74.05 77.0 69.3 79.25 67.9 79.95 66.05 80.35 L64.8 80.8 Q56.0 83.15 45.1 80.8 38.5 79.25 33.6 76.7 30.25 74.75 27.6 72.4 23.8 69.0 22.7 65.65 22.1 64.25 22.1 62.85 21.7 60.6 22.1 58.5 22.1 58.25 22.25 58.1"/><path fill="#f5f0de" stroke="none" d="M57.5 55.55 L55.8 54.85 Q53.0 53.6 49.4 52.9 41.55 51.35 35.4 52.6 L34.55 52.9 Q32.3 53.45 31.05 54.3 29.65 55.0 28.8 56.0 L27.85 57.8 27.7 57.8 27.85 57.1 28.25 55.85 Q29.65 53.6 33.7 52.35 L35.1 51.9 Q41.4 50.65 49.25 52.2 52.9 52.9 55.95 54.15 L59.75 56.0 61.85 57.4 Q63.65 58.9 64.5 60.3 65.2 61.3 65.5 62.3 L64.35 60.6 Q63.5 59.35 61.85 58.1 L59.75 56.7 57.5 55.55"/><path fill="#8f8045" stroke="none" d="M31.05 54.3 Q32.3 53.45 34.55 52.9 L35.4 52.6 Q41.55 51.35 49.4 52.9 53.0 53.6 55.8 54.85 L57.5 55.55 58.2 57.95 Q56.8 57.25 55.1 56.7 L50.9 55.7 49.8 55.4 49.25 56.8 48.25 55.7 47.3 55.0 38.2 55.3 37.5 55.3 37.05 56.7 35.4 56.0 34.85 56.0 Q33.15 56.4 32.05 57.1 L31.9 57.4 31.05 54.3"/><path fill="#685c31" stroke="none" d="M31.05 54.3 L31.9 57.4 Q30.35 58.35 29.65 59.6 L29.35 60.6 Q29.1 61.3 29.25 62.15 L29.25 63.0 Q27.95 61.3 27.7 59.6 L27.85 57.8 28.8 56.0 Q29.65 55.0 31.05 54.3 M58.2 57.95 L57.5 55.55 59.75 56.7 61.85 58.1 Q63.5 59.35 64.35 60.6 L65.5 62.3 65.6 63.0 63.95 61.3 63.4 60.9 61.0 59.35 60.6 60.05 59.9 58.9 Q59.75 58.5 59.3 58.5 58.75 58.1 58.2 57.95"/><path fill="#ffffff" stroke="none" d="M34.85 56.0 L35.4 56.0 32.75 65.9 32.05 65.5 34.15 58.2 34.85 56.0 M47.3 55.0 L48.25 55.7 42.5 70.1 41.4 69.7 46.3 57.8 47.3 55.0 M53.45 71.25 L52.75 71.25 57.9 61.15 59.3 58.5 Q59.75 58.5 59.9 58.9 L59.9 59.05 53.45 71.25"/><path fill="#eaddbf" stroke="none" d="M31.9 57.4 L32.05 57.1 Q33.15 56.4 34.85 56.0 L34.15 58.2 29.65 59.6 Q30.35 58.35 31.9 57.4 M37.05 56.7 L37.5 55.3 38.2 55.3 47.3 55.0 46.3 57.8 36.8 57.8 37.05 56.7 M49.25 56.8 L49.8 55.4 50.9 55.7 55.1 56.7 Q56.8 57.25 58.2 57.95 58.75 58.1 59.3 58.5 L57.9 61.15 48.8 57.95 49.25 56.8 M65.6 63.0 Q65.9 63.95 65.75 64.95 L59.9 61.45 60.6 60.05 61.0 59.35 63.4 60.9 63.95 61.3 65.6 63.0"/><path fill="#d2b779" stroke="none" d="M35.4 56.0 L37.05 56.7 36.8 57.8 34.0 66.75 32.75 65.9 35.4 56.0 M48.25 55.7 L49.25 56.8 48.8 57.95 43.9 70.4 42.5 70.1 48.25 55.7 M54.7 71.1 L53.45 71.25 59.9 59.05 59.9 58.9 60.6 60.05 59.9 61.45 54.7 71.1"/><path fill="#f2ead9" stroke="none" d="M65.75 64.95 Q65.6 65.2 65.6 65.5 65.05 67.3 63.4 68.6 L61.55 69.55 61.0 69.7 58.2 70.55 56.1 71.1 54.7 71.1 59.9 61.45 65.75 64.95 M52.75 71.25 L50.65 71.1 44.05 70.4 43.9 70.4 48.8 57.95 57.9 61.15 52.75 71.25 M41.4 69.7 Q37.2 68.7 34.0 66.75 L36.8 57.8 46.3 57.8 41.4 69.7 M32.05 65.5 L31.6 65.1 29.25 63.0 29.25 62.15 Q29.1 61.3 29.35 60.6 L29.65 59.6 34.15 58.2 32.05 65.5"/><path fill="#ddd8b3" stroke="none" d="M27.7 57.8 L27.85 57.8 27.7 59.6 Q27.55 58.8 27.7 57.8"/><path fill="none" stroke="#000000" stroke-width="0.5" stroke-opacity="0.301960784314" d="M31.9 57.4 L32.05 57.1 Q33.15 56.4 34.85 56.0 L35.4 56.0 37.05 56.7 37.5 55.3 38.2 55.3 47.3 55.0 48.25 55.7 49.25 56.8 49.8 55.4 50.9 55.7 55.1 56.7 Q56.8 57.25 58.2 57.95 M65.6 63.0 Q65.9 63.95 65.75 64.95 65.6 65.2 65.6 65.5 65.05 67.3 63.4 68.6 L61.55 69.55 61.0 69.7 58.2 70.55 56.1 71.1 54.7 71.1 53.45 71.25 52.75 71.25 50.65 71.1 44.05 70.4 43.9 70.4 42.5 70.1 41.4 69.7 Q37.2 68.7 34.0 66.75 L32.75 65.9 32.05 65.5 31.6 65.1 29.25 63.0 M59.9 58.9 Q59.75 58.5 59.3 58.5 58.75 58.1 58.2 57.95 M65.6 63.0 L63.95 61.3 63.4 60.9 61.0 59.35 60.6 60.05 59.9 61.45 54.7 71.1 M60.6 60.05 L59.9 58.9 59.9 59.05 M49.25 56.8 L48.8 57.95 43.9 70.4 M37.05 56.7 L36.8 57.8 34.0 66.75 M29.65 59.6 L29.35 60.6 Q29.1 61.3 29.25 62.15 L29.25 63.0 M29.65 59.6 Q30.35 58.35 31.9 57.4"/></g><g id="c15"><g><use transform="matrix(1.0,0.0,0.0,1.0,0.0,0.0)" xlink:href="#c10"/></g><g><use transform="matrix(-0.142227172852,0.150039672852,0.231857299805,0.212844848633,43.65,82.8)" filter="url(#filter12)" xlink:href="#c11"/></g><g><use transform="matrix(1.0,0.0,0.0,1.0,0.0,0.0)" xlink:href="#c12"/></g><g><use transform="matrix(-0.368911743164,0.0,0.0,0.364639282227,54.55,51.05)" filter="url(#filter14)" xlink:href="#c13"/></g><g><use transform="matrix(1.0,0.0,0.0,1.0,0.0,0.0)" xlink:href="#c14"/></g><g><use transform="matrix(-0.137481689453,0.291076660156,0.414978027344,0.0619354248047,50.5,54.7)" filter="url(#filter16)" xlink:href="#c13"/></g><g><use transform="matrix(-0.0395050048828,0.0837707519531,0.119491577148,0.0177154541016,39.45,40.7)" filter="url(#filter17)" xlink:href="#c13"/></g><g><use transform="matrix(-0.0395050048828,0.0837707519531,0.119491577148,0.0177154541016,66.9,47.55)" filter="url(#filter18)" xlink:href="#c13"/></g></g><filter id="filter12"><feColorMatrix in="SourceGraphic" type="matrix" values="0.0 0.0 0.0 0.0 0.99609375 0.0 0.0 0.0 0.0 0.796875 0.0 0.0 0.0 0.0 0.0 0.0 0.0 0.0 0.12890625 0.0" result="cxform"/><feComposite operator="in" in2="SourceGraphic" result="color-xform"/></filter><filter id="filter14"><feColorMatrix in="SourceGraphic" type="matrix" values="0.0 0.0 0.0 0.0 0.99609375 0.0 0.0 0.0 0.0 0.796875 0.0 0.0 0.0 0.0 0.0 0.0 0.0 0.0 0.2890625 0.0" result="cxform"/><feComposite operator="in" in2="SourceGraphic" result="color-xform"/></filter><filter id="filter16"><feColorMatrix in="SourceGraphic" type="matrix" values="1.0 0.0 0.0 0.0 0.0 0.0 1.0 0.0 0.0 0.0 0.0 0.0 1.0 0.0 0.0 0.0 0.0 0.0 0.05859375 0.0" result="cxform"/><feComposite operator="in" in2="SourceGraphic" result="color-xform"/></filter><filter id="filter17"><feColorMatrix in="SourceGraphic" type="matrix" values="0.0 0.0 0.0 0.0 0.99609375 0.0 0.0 0.0 0.0 0.796875 0.0 0.0 0.0 0.0 0.0 0.0 0.0 0.0 0.12890625 0.0" result="cxform"/><feComposite operator="in" in2="SourceGraphic" result="color-xform"/></filter><filter id="filter18"><feColorMatrix in="SourceGraphic" type="matrix" values="0.0 0.0 0.0 0.0 0.99609375 0.0 0.0 0.0 0.0 0.796875 0.0 0.0 0.0 0.0 0.0 0.0 0.0 0.0 0.12890625 0.0" result="cxform"/><feComposite operator="in" in2="SourceGraphic" result="color-xform"/></filter><g id="c16"><g><use transform="matrix(1.0,0.0,0.0,1.0,6.3,53.35)" xlink:href="#c9"/></g><g><use transform="matrix(-0.146041870117,0.0488891601562,0.0616760253906,0.140441894531,33.05,63.95)" xlink:href="#c15"/></g><g><use transform="matrix(0.141098022461,-0.0378112792969,0.111373901367,0.225646972656,27.2,74.05)" filter="url(#filter21)" xlink:href="#c6"/></g></g><filter id="filter21"><feColorMatrix in="SourceGraphic" type="matrix" values="1.0 0.0 0.0 0.0 0.0 0.0 1.0 0.0 0.0 0.0 0.0 0.0 1.0 0.0 0.0 0.0 0.0 0.0 0.23046875 0.0" result="cxform"/><feComposite operator="in" in2="SourceGraphic" result="color-xform"/></filter></defs><g><g><use transform="matrix(1.0,0.0,0.0,1.0,0.0,0.0)" xlink:href="#c1"/></g><g><use transform="matrix(1.15496826172,0.0,0.0,1.15496826172,-1.5,-57.15)" xlink:href="#c16"/></g></g></svg>