<?xml version='1.0' encoding='UTF-8'?>
<svg xmlns:xlink="http://www.w3.org/1999/xlink" xmlns="http://www.w3.org/2000/svg" version="1.1" width="60px" height="63px" viewBox="0.0 -2.32474112858 60.3090772832 62.6312863662"><defs><g id="c1"><path fill="#000000" fill-opacity="0.00392156862745" d="M0.0 0.0 L60.0 0.0 60.0 60.0 0.0 60.0 0.0 0.0"/></g><g id="c2"><path fill="#006699" stroke="none" d="M31.5 39.85 L19.8 43.65 Q17.15 44.45 15.5 43.3 14.35 42.55 13.65 40.9 L1.7 14.45 1.6 14.3 1.2 13.45 -0.75 9.05 Q-2.05 6.2 -0.3 4.75 0.3 4.25 1.2 3.9 L5.5 2.25 Q8.95 0.95 10.65 4.15 L22.3 0.4 Q26.55 -1.0 28.45 3.1 L40.55 29.95 40.9 30.7 42.95 35.15 Q43.95 37.35 43.15 38.7 42.5 39.7 40.95 40.25 L36.65 41.8 35.1 42.2 Q32.75 42.3 31.5 39.85"/><path fill="none" stroke="#000000" stroke-width="1.0" stroke-opacity="0.298039215686" d="M31.5 39.85 L19.8 43.65 Q17.15 44.45 15.5 43.3 14.35 42.55 13.65 40.9 L1.7 14.45 1.6 14.3 1.2 13.45 -0.75 9.05 Q-2.05 6.2 -0.3 4.75 0.3 4.25 1.2 3.9 L5.5 2.25 Q8.95 0.95 10.65 4.15 L22.3 0.4 Q26.55 -1.0 28.45 3.1 L40.55 29.95 40.9 30.7 42.95 35.15 Q43.95 37.35 43.15 38.7 42.5 39.7 40.95 40.25 L36.65 41.8 35.1 42.2 Q32.75 42.3 31.5 39.85"/><path fill="#5b3c00" stroke="none" d="M0.75 8.25 L29.8 9.75 25.55 0.9 Q26.9 1.6 27.8 3.55 L40.7 32.15 Q42.6 36.3 38.3 37.65 L23.3 42.5 13.15 21.4 4.6 20.9 0.7 12.25 Q-0.45 9.75 0.75 8.25 M20.1 43.55 L19.8 43.65 Q17.15 44.45 15.5 43.3 L20.1 43.55"/><path fill="#724b00" stroke="none" d="M25.55 0.9 L29.8 9.75 0.75 8.25 Q1.45 7.3 3.1 6.75 L21.65 0.8 25.55 0.9 M4.6 20.9 L13.15 21.4 23.3 42.5 20.1 43.55 15.5 43.3 Q14.35 42.55 13.65 40.9 L4.6 20.9"/><path fill="none" stroke="#000000" stroke-width="0.5" stroke-opacity="0.301960784314" d="M0.75 8.25 Q-0.45 9.75 0.7 12.25 L4.6 20.9 M23.3 42.5 L38.3 37.65 Q42.6 36.3 40.7 32.15 L27.8 3.55 Q26.9 1.6 25.55 0.9 L21.65 0.8 3.1 6.75 Q1.45 7.3 0.75 8.25 M20.1 43.55 L19.8 43.65 Q17.15 44.45 15.5 43.3 14.35 42.55 13.65 40.9 L4.6 20.9 M20.1 43.55 L23.3 42.5"/><path fill="#fed00b" stroke="none" d="M40.5 29.85 L40.55 29.95 40.9 30.7 42.95 35.15 Q43.95 37.35 43.15 38.7 42.5 39.45 41.2 39.9 L36.9 41.45 34.85 41.85 Q32.9 41.7 31.8 39.55 L31.75 39.5 31.4 39.65 30.3 40.0 31.4 39.65 31.4 39.7 20.4 43.2 Q16.1 44.55 14.2 40.5 L6.45 23.15 6.0 22.15 5.55 21.15 4.05 17.85 3.15 15.85 3.1 15.8 1.75 12.85 -0.2 8.45 Q-1.25 6.15 -0.3 4.75 0.3 4.25 1.2 3.9 L5.5 2.25 Q8.95 0.95 10.65 4.15 L22.3 0.4 Q26.55 -1.0 28.45 3.1 L40.5 29.85"/><path fill="#5b3c00" stroke="none" d="M43.15 38.7 Q42.5 39.7 40.95 40.25 L36.65 41.8 35.1 42.2 Q32.75 42.3 31.45 39.8 L31.4 39.7 31.4 39.65 31.75 39.5 31.8 39.55 Q32.9 41.7 34.85 41.85 L36.9 41.45 41.2 39.9 Q42.5 39.45 43.15 38.7 M3.1 15.8 Q2.25 15.35 1.6 14.3 L1.2 13.45 -0.75 9.05 Q-2.05 6.2 -0.3 4.75 -1.25 6.15 -0.2 8.45 L1.75 12.85 3.1 15.8"/><path fill="#9d147b" stroke="none" d="M31.4 39.65 L30.3 40.0 31.4 39.65"/><path fill="none" stroke="#003333" stroke-width="0.5" stroke-opacity="0.509803921569" d="M40.5 29.85 L40.55 29.95 40.9 30.7 42.95 35.15 Q43.95 37.35 43.15 38.7 42.5 39.7 40.95 40.25 L36.65 41.8 35.1 42.2 Q32.75 42.3 31.45 39.8 L31.4 39.7 M6.45 23.15 L6.0 22.15 M5.55 21.15 L4.05 17.85 3.1 15.8 1.75 12.85 -0.2 8.45 Q-1.25 6.15 -0.3 4.75 0.3 4.25 1.2 3.9 L5.5 2.25 Q8.95 0.95 10.65 4.15 M1.6 14.3 L1.2 13.45 -0.75 9.05 Q-2.05 6.2 -0.3 4.75 M31.4 39.65 L31.75 39.5 31.8 39.55 Q32.9 41.7 34.85 41.85 L36.9 41.45 41.2 39.9 Q42.5 39.45 43.15 38.7 M31.4 39.65 L30.3 40.0 31.4 39.65 31.4 39.7"/><path fill="none" stroke="#000000" stroke-width="0.5" stroke-opacity="0.301960784314" d="M31.4 39.7 L20.4 43.2 Q16.1 44.55 14.2 40.5 L6.45 23.15 M6.0 22.15 L5.55 21.15 M10.65 4.15 L22.3 0.4 Q26.55 -1.0 28.45 3.1 L40.5 29.85 M4.05 17.85 L3.15 15.85"/><path fill="#fcf2cf" stroke="none" d="M9.15 13.6 Q9.8 12.8 9.55 11.6 L9.1 10.55 22.05 6.35 Q24.9 5.45 26.25 7.85 L26.5 8.3 35.8 29.0 35.95 29.35 Q34.75 29.3 34.1 30.1 33.45 30.9 33.7 32.1 L34.0 32.9 20.65 37.2 Q18.8 37.8 17.65 37.0 16.8 36.4 16.3 35.2 L6.95 14.6 6.8 14.4 7.1 14.4 Q8.4 14.45 9.15 13.6"/><path fill="#9f6b00" stroke="none" d="M28.25 6.1 L35.55 22.3 39.35 30.75 Q41.1 34.5 37.2 35.7 L20.45 41.1 Q16.8 42.25 15.2 39.0 L15.0 38.6 8.25 23.65 3.35 12.8 Q1.65 9.1 5.5 7.85 L22.25 2.5 Q26.05 1.25 27.75 4.95 L28.25 6.1 M9.15 13.6 Q8.4 14.45 7.1 14.4 L6.8 14.4 6.95 14.6 16.3 35.2 Q16.8 36.4 17.65 37.0 18.8 37.8 20.65 37.2 L34.0 32.9 33.7 32.1 Q33.45 30.9 34.1 30.1 34.75 29.3 35.95 29.35 L35.8 29.0 26.5 8.3 26.25 7.85 Q24.9 5.45 22.05 6.35 L9.1 10.55 9.55 11.6 Q9.8 12.8 9.15 13.6"/><path fill="none" stroke="#f0b92b" stroke-width="0.5" d="M9.15 13.6 Q9.8 12.8 9.55 11.6 L9.1 10.55 22.05 6.35 Q24.9 5.45 26.25 7.85 L26.5 8.3 35.8 29.0 35.95 29.35 Q34.75 29.3 34.1 30.1 33.45 30.9 33.7 32.1 L34.0 32.9 20.65 37.2 Q18.8 37.8 17.65 37.0 16.8 36.4 16.3 35.2 L6.95 14.6 6.8 14.4 7.1 14.4 Q8.4 14.45 9.15 13.6"/><path fill="none" stroke="#feaa00" stroke-width="1.0" d="M28.25 6.1 L35.55 22.3 M15.0 38.6 L8.25 23.65"/><path fill="none" stroke="#fbeec5" stroke-width="1.0" d="M35.55 22.3 L39.35 30.75 Q41.1 34.5 37.2 35.7 L20.45 41.1 Q16.8 42.25 15.2 39.0 L15.0 38.6 M8.25 23.65 L3.35 12.8 Q1.65 9.1 5.5 7.85 L22.25 2.5 Q26.05 1.25 27.75 4.95 L28.25 6.1"/></g><g id="c3"><path fill="#7fdbfe" stroke="none" d="M10.75 4.9 Q10.75 4.6 10.9 4.35 11.25 3.45 11.95 2.75 13.3 1.5 14.35 2.1 15.4 2.7 14.95 4.45 14.7 5.4 14.1 6.15 L13.75 6.5 Q13.1 7.15 12.35 7.35 L11.4 7.2 Q10.95 6.9 10.75 6.4 10.5 5.75 10.75 4.9 M7.5 5.9 Q7.0 5.85 6.6 5.5 6.05 5.0 5.8 4.15 L5.7 3.6 Q5.55 2.65 5.8 1.7 6.25 0.0 7.5 0.0 L7.6 0.0 Q8.85 0.0 9.3 1.7 9.55 2.65 9.4 3.6 L9.3 4.15 8.5 5.5 7.6 5.9 7.5 5.9 M4.35 4.9 Q4.6 5.75 4.35 6.4 L3.7 7.2 2.75 7.35 Q2.0 7.15 1.35 6.5 L1.0 6.15 Q0.4 5.4 0.15 4.45 -0.3 2.7 0.75 2.1 1.8 1.5 3.15 2.75 3.85 3.45 4.2 4.35 L4.35 4.9 M5.5 13.7 Q4.45 13.9 3.65 12.95 2.75 12.0 3.2 10.25 3.7 8.5 5.25 7.6 6.4 6.9 7.55 7.0 8.75 6.9 9.9 7.6 11.45 8.5 11.95 10.25 12.35 12.0 11.5 12.95 10.7 13.9 9.65 13.7 8.55 13.5 7.55 12.6 6.55 13.5 5.5 13.7"/></g><g id="c4"><g><use transform="matrix(1.0,0.0,0.0,1.0,0.0,0.0)" xlink:href="#c3"/></g></g><radialGradient gradientUnits="userSpaceOnUse" r="819.2" cx="0" cy="0" spreadMethod="pad" gradientTransform="matrix(0.0914459228516,0.0,0.0,0.0914459228516,0.6,3.4)" id="gradient1"><stop offset="0.0" stop-color="#ffffff"/><stop offset="1.0" stop-color="#ffffff" stop-opacity="0.0"/></radialGradient><g id="c5"><path stroke="none" fill="url(#gradient1)" d="M36.65 -54.65 Q60.05 -42.0 69.75 -17.95 80.55 8.9 68.0 34.1 55.45 59.35 26.8 68.2 -1.8 77.05 -29.7 64.3 -57.6 51.6 -68.45 24.75 -79.3 -2.05 -66.75 -27.25 L-66.7 -27.3 Q-54.1 -52.5 -25.5 -61.4 3.1 -70.2 31.0 -57.5 L36.65 -54.65"/></g><g id="c6"><g><use transform="matrix(1.0,0.0,0.0,1.0,0.0,0.0)" xlink:href="#c5"/></g></g><radialGradient gradientUnits="userSpaceOnUse" r="819.2" cx="0" cy="0" spreadMethod="pad" gradientTransform="matrix(0.209197998047,0.0,0.0,0.177108764648,67.15,107.2)" id="gradient2"><stop offset="0.356862745098" stop-color="#ffffff"/><stop offset="0.670588235294" stop-opacity="0.0"/></radialGradient><g id="c7"><path fill="none" stroke-linejoin="round" stroke-linecap="round" stroke="url(#gradient2)" stroke-width="0.5" d="M136.55 165.8 L68.6 106.0 68.4 106.0 118.25 201.5 M68.3 105.8 L68.35 105.8 68.3 105.8 68.3 105.85 68.4 106.0 68.3 106.0 86.55 211.5 M68.3 105.8 L68.3 105.85 68.3 106.0 68.15 105.95 18.25 151.55 M68.3 105.85 L68.25 105.85 68.3 106.0 50.0 193.2 M68.25 105.85 L68.15 105.95 0.05 97.7 M68.3 105.85 L68.25 105.8 68.25 105.85 M68.25 105.8 L68.2 105.7 0.0 45.7 M68.3 105.8 L68.25 105.75 68.25 105.8 M68.25 105.75 L68.2 105.7 18.25 10.05 M68.6 106.0 L68.35 105.8 118.25 60.15 M86.6 18.35 L68.3 105.8 M136.6 114.25 L68.6 106.0 M68.25 105.75 L49.95 0.05"/></g><g id="c8"><g><use transform="matrix(1.0,0.0,0.0,1.0,0.0,0.0)" xlink:href="#c7"/></g></g><g id="c9"><g><use transform="matrix(1.0,0.0,0.0,1.0,0.0,0.0)" xlink:href="#c2"/></g><g><use transform="matrix(0.238861083984,-0.0867004394531,0.10026550293,0.233917236328,34.25,31.15)" xlink:href="#c4"/></g><g><use transform="matrix(0.238861083984,-0.0867004394531,0.10026550293,0.233917236328,4.25,10.3)" xlink:href="#c4"/></g><g><use transform="matrix(0.141098022461,-0.0378112792969,0.111373901367,0.225646972656,20.25,20.65)" filter="url(#filter7)" xlink:href="#c6"/></g><g><use transform="matrix(-0.155029296875,0.0513153076172,0.0841827392578,0.147033691406,22.6,3.15)" filter="url(#filter8)" xlink:href="#c8"/></g></g><filter id="filter7"><feColorMatrix in="SourceGraphic" type="matrix" values="0.0 0.0 0.0 0.0 0.796875 0.0 0.0 0.0 0.0 0.59765625 0.0 0.0 0.0 0.0 0.19921875 0.0 0.0 0.0 1.0 0.0" result="cxform"/><feComposite operator="in" in2="SourceGraphic" result="color-xform"/></filter><filter id="filter8"><feColorMatrix in="SourceGraphic" type="matrix" values="0.0 0.0 0.0 0.0 0.99609375 0.0 0.0 0.0 0.0 0.99609375 0.0 0.0 0.0 0.0 0.99609375 0.0 0.0 0.0 1.0 0.0" result="cxform"/><feComposite operator="in" in2="SourceGraphic" result="color-xform"/></filter><g id="c10"><path fill="#ffffff" stroke="none" d="M37.9 92.95 L26.2 96.75 Q23.55 97.55 21.9 96.4 20.75 95.65 20.05 94.0 L8.1 67.55 8.0 67.4 7.6 66.55 5.65 62.15 Q4.35 59.3 6.1 57.85 6.7 57.35 7.6 57.0 L11.9 55.35 Q15.35 54.05 17.05 57.25 L28.7 53.5 Q32.95 52.1 34.85 56.2 L46.95 83.05 47.3 83.8 49.35 88.25 Q50.35 90.45 49.55 91.8 48.9 92.8 47.35 93.35 L43.05 94.9 41.5 95.3 Q39.15 95.4 37.9 92.95"/></g><linearGradient gradientUnits="userSpaceOnUse" x1="-819.2" x2="819.2" spreadMethod="pad" gradientTransform="matrix(0.0255126953125,0.0,0.0,0.0268249511719,20.9,21.95)" id="gradient3"><stop offset="0.0" stop-color="#f90013"/><stop offset="0.160784313725" stop-color="#ff99ff"/><stop offset="0.462745098039" stop-color="#66ffff"/><stop offset="0.721568627451" stop-color="#ff9900"/><stop offset="1.0" stop-color="#33ff00"/></linearGradient><g id="c11"><path stroke="none" fill="url(#gradient3)" d="M0.6 8.2 Q1.05 7.55 2.0 7.1 2.65 6.65 3.65 6.3 L22.15 0.35 Q26.4 -1.05 28.3 3.05 L41.2 31.65 Q42.8 35.1 40.05 36.65 39.35 37.25 38.15 37.6 L19.65 43.6 Q17.0 44.4 15.35 43.25 14.2 42.5 13.5 40.85 L0.55 12.2 Q-0.6 9.7 0.6 8.2"/></g><g id="c12"><g><use transform="matrix(1.0,0.0,0.0,1.0,0.0,0.0)" xlink:href="#c11"/></g></g><g id="c13"><path fill="none" stroke="#000000" stroke-width="1.5" stroke-opacity="0.301960784314" d="M115.05 27.75 L117.1 25.95 Q117.35 25.7 117.75 25.55 L118.0 25.15 118.15 25.05 118.25 25.05 118.5 24.8 118.75 24.25 Q119.95 22.45 119.4 20.5 116.2 10.7 103.25 1.65 97.05 -1.85 94.1 1.25 L94.1 1.4 Q93.95 1.4 93.95 1.65 L93.85 1.65 93.7 1.8 93.55 1.8 93.05 2.55 92.15 4.25 Q91.4 5.5 90.6 7.1 84.8 7.1 81.45 10.95 77.8 15.35 79.35 22.05 L79.6 22.7 78.2 24.5 76.4 27.0 Q75.6 25.3 74.05 23.35 L70.95 19.6 68.25 16.65 67.85 16.5 Q61.8 11.1 54.05 9.55 L51.2 9.15 Q39.7 7.7 31.4 14.95 23.3 22.2 23.3 33.7 23.3 43.15 28.7 51.0 L28.55 51.0 Q20.55 52.7 14.25 58.4 11.9 60.45 9.95 62.9 L9.45 63.4 Q2.75 72.2 2.6 84.5 L2.45 85.4 Q2.6 101.0 13.2 113.55 24.05 126.5 39.8 128.55 49.9 129.95 58.15 126.2 L59.45 125.7 60.1 125.2 Q63.7 123.5 66.8 120.65 L68.65 119.1 69.65 117.8 Q73.15 114.2 75.1 109.95 77.8 104.25 78.45 97.55 L78.45 96.35 Q83.6 99.2 89.85 99.85 101.35 101.15 109.6 94.05 L110.5 93.25 Q117.75 86.05 117.75 75.2 117.75 64.05 110.35 55.4 L109.6 54.5 Q106.65 51.15 103.15 48.8 100.7 47.25 98.35 46.25 L99.9 44.4 100.95 43.25 101.95 43.4 Q107.65 44.15 111.3 41.7 L113.2 39.75 114.0 38.5 Q116.7 34.2 115.05 27.75 M77.7 78.0 L81.45 81.9 Q84.15 84.75 89.85 85.4 95.25 86.05 99.25 82.65 L100.95 81.0 Q103.15 77.9 103.15 73.5 103.15 68.35 99.9 64.3 L99.25 63.55 Q95.25 59.15 89.85 58.65 L88.55 58.1 88.4 58.25 Q82.45 65.85 80.5 69.6 79.1 72.2 78.45 74.9 L77.7 78.0 M59.6 27.5 L59.05 27.1 Q55.6 24.15 51.2 23.6 45.65 22.95 41.75 26.35 40.85 27.1 40.2 28.15 37.9 31.25 37.9 35.4 37.9 41.05 41.75 45.45 44.1 48.15 48.2 49.85 L48.45 50.5 49.9 50.25 50.15 50.25 Q54.3 49.2 58.15 46.9 60.5 45.45 63.6 42.5 L65.15 40.95 65.4 40.55 Q63.85 32.15 60.75 28.65 L60.0 27.9 59.6 27.5"/><path fill="none" stroke="#ffffff" stroke-width="1.5" stroke-opacity="0.501960784314" d="M76.25 20.5 Q78.35 26.7 88.55 36.4 96.7 43.25 104.8 47.0"/><path fill="#4f1219" fill-opacity="0.541176470588" d="M10.0 71.35 Q17.65 69.05 29.6 73.15 41.5 77.2 48.45 84.8 55.35 92.4 58.55 102.05 61.85 111.75 59.7 118.85 57.55 126.0 43.8 123.6 30.05 121.15 20.4 111.9 10.75 102.7 6.55 88.15 2.4 73.6 10.0 71.35"/><path fill="none" stroke="#ffffff" stroke-width="1.5" stroke-opacity="0.501960784314" d="M10.0 71.35 Q17.65 69.05 29.6 73.15 41.5 77.2 48.45 84.8 55.35 92.4 58.55 102.05 61.85 111.75 59.7 118.85 57.55 126.0 43.8 123.6 30.05 121.15 20.4 111.9 10.75 102.7 6.55 88.15 2.4 73.6 10.0 71.35"/><path fill="#524b14" stroke="none" d="M83.15 16.85 L104.95 37.7 Q94.25 50.0 88.05 58.0 69.55 55.3 63.25 42.1 70.65 34.55 83.15 16.85"/><path fill="#968a25" stroke="none" d="M88.05 58.0 Q82.15 65.55 80.15 69.35 78.75 71.95 78.05 74.65 76.55 79.55 77.25 84.2 L77.55 86.2 77.65 86.6 77.85 88.1 78.15 92.6 66.05 74.45 Q59.1 63.95 50.9 58.65 L48.2 57.0 43.2 56.5 Q37.4 56.5 31.5 64.05 25.1 72.25 25.1 82.1 25.1 86.8 27.3 90.2 L31.7 94.6 Q47.1 109.05 69.35 117.55 L68.25 118.75 66.45 120.35 Q63.35 123.15 59.8 124.95 L59.1 125.35 57.9 125.95 Q49.6 129.6 39.5 128.2 23.7 126.1 12.85 113.25 2.25 100.7 2.15 85.1 L2.25 84.2 Q2.45 71.95 9.15 63.15 L9.65 62.55 Q11.55 60.15 13.95 58.1 20.2 52.4 28.2 50.7 L31.0 50.2 38.7 50.0 40.6 50.3 40.9 50.3 41.2 50.3 42.5 50.4 49.6 49.9 49.8 49.9 Q54.0 48.9 57.9 46.6 60.2 45.2 63.25 42.1 69.55 55.3 88.05 58.0"/><path fill="#d7ca5b" stroke="none" d="M78.15 92.6 L78.25 93.9 78.25 94.3 78.05 97.2 Q77.45 103.95 74.75 109.55 72.75 113.85 69.35 117.55 47.1 109.05 31.7 94.6 L27.3 90.2 Q25.1 86.8 25.1 82.1 25.1 72.25 31.5 64.05 37.4 56.5 43.2 56.5 L48.2 57.0 50.9 58.65 Q59.1 63.95 66.05 74.45 L78.15 92.6"/><path fill="none" stroke="#bdd60a" stroke-width="0.5" d="M104.95 37.7 Q94.25 50.0 88.05 58.0 82.15 65.55 80.15 69.35 78.75 71.95 78.05 74.65 76.55 79.55 77.25 84.2 L77.55 86.2 77.65 86.6 77.85 88.1 78.15 92.6 78.25 93.9 78.25 94.3 78.05 97.2 Q77.45 103.95 74.75 109.55 72.75 113.85 69.35 117.55 L68.25 118.75 66.45 120.35 Q63.35 123.15 59.8 124.95 L59.1 125.35 57.9 125.95 Q49.6 129.6 39.5 128.2 23.7 126.1 12.85 113.25 2.25 100.7 2.15 85.1 L2.25 84.2 Q2.45 71.95 9.15 63.15 L9.65 62.55 Q11.55 60.15 13.95 58.1 20.2 52.4 28.2 50.7 L31.0 50.2 38.7 50.0 40.6 50.3 40.9 50.3 41.2 50.3 42.5 50.4 49.6 49.9 49.8 49.9 Q54.0 48.9 57.9 46.6 60.2 45.2 63.25 42.1 70.65 34.55 83.15 16.85"/><path fill="#ff3300" fill-opacity="0.462745098039" d="M77.95 35.05 L84.35 27.65 94.45 38.6 82.75 52.6 Q84.65 39.4 77.95 35.05 M72.45 65.45 Q69.35 69.65 67.85 73.65 L67.15 71.75 Q66.35 69.75 64.75 67.85 L62.4 65.45 Q59.1 62.35 54.5 60.75 L52.0 59.95 Q56.2 58.1 61.0 53.6 63.35 57.9 66.35 60.65 69.25 63.35 72.45 65.45"/><path fill="#ff6600" fill-opacity="0.533333333333" d="M77.95 35.05 Q84.65 39.4 82.75 52.6 74.45 62.55 72.45 65.45 69.25 63.35 66.35 60.65 63.35 57.9 61.0 53.6 63.95 50.9 77.95 35.05 M67.85 73.65 Q65.85 78.55 66.45 82.8 L66.75 83.9 Q67.95 88.0 67.85 92.6 L67.85 92.8 Q67.65 99.7 64.75 104.95 L19.8 67.75 21.0 66.55 Q29.3 59.25 40.8 60.75 L42.9 61.15 43.1 61.15 43.8 61.35 Q47.6 62.05 52.0 59.95 L54.5 60.75 Q59.1 62.35 62.4 65.45 L64.75 67.85 Q66.35 69.75 67.15 71.75 L67.85 73.65"/><path fill="#ff9900" stroke="none" d="M64.75 104.95 L64.45 105.75 Q62.5 109.15 59.4 111.75 56.3 114.45 52.8 115.95 48.0 117.95 42.4 117.85 L39.7 117.55 Q28.3 116.05 20.3 106.55 12.45 97.3 12.65 85.5 12.85 74.75 19.8 67.75 L64.75 104.95"/><path fill="none" stroke="#e7d010" stroke-width="0.5" stroke-opacity="0.470588235294" d="M82.75 52.6 L94.45 38.6 84.35 27.65 77.95 35.05 M82.75 52.6 Q74.45 62.55 72.45 65.45 69.35 69.65 67.85 73.65 65.85 78.55 66.45 82.8 L66.75 83.9 Q67.95 88.0 67.85 92.6 L67.85 92.8 Q67.65 99.7 64.75 104.95 L64.45 105.75 Q62.5 109.15 59.4 111.75 56.3 114.45 52.8 115.95 48.0 117.95 42.4 117.85 L39.7 117.55 Q28.3 116.05 20.3 106.55 12.45 97.3 12.65 85.5 12.85 74.75 19.8 67.75 L21.0 66.55 Q29.3 59.25 40.8 60.75 L42.9 61.15 43.1 61.15 43.8 61.35 Q47.6 62.05 52.0 59.95 56.2 58.1 61.0 53.6 63.95 50.9 77.95 35.05"/><path fill="#ffcc00" stroke="none" d="M19.2 68.35 Q25.5 62.05 38.2 74.65 51.6 87.5 61.5 95.1 66.65 99.0 65.05 102.9 L65.25 103.0 Q62.2 108.35 43.6 102.5 25.1 93.7 19.2 82.7 14.35 72.75 19.2 68.45 L19.2 68.35"/><path fill="#524b14" stroke="none" d="M64.85 110.95 Q68.65 107.45 66.05 113.75 63.55 120.25 58.8 123.15 54.2 126.1 46.0 127.0 37.8 127.9 29.0 123.45 20.2 118.95 30.2 120.45 L45.9 121.05 Q51.7 120.05 56.3 117.25 61.0 114.55 64.85 110.95"/><path fill="#d7ca5b" stroke="none" d="M7.75 78.75 Q9.05 79.85 8.95 84.1 8.95 88.4 9.65 92.8 10.35 97.1 12.45 101.7 14.45 106.35 13.95 106.55 12.55 107.45 8.05 101.5 3.75 95.7 3.55 90.0 3.65 85.7 4.85 81.9 5.65 79.35 7.75 78.75"/><path fill="#968a25" stroke="none" d="M94.95 46.2 L95.75 45.1 97.45 45.7 102.75 48.5 Q101.85 51.8 106.35 59.75 108.8 64.55 108.8 71.35 108.8 74.35 107.85 77.95 106.85 81.4 106.85 85.7 106.85 89.2 108.8 91.6 L110.1 92.9 109.2 93.7 Q101.05 100.9 89.45 99.6 80.95 98.6 74.35 93.5 L74.35 92.4 Q74.35 89.3 73.35 85.9 72.35 82.5 72.35 81.0 72.35 79.45 73.25 78.15 L74.05 77.05 Q75.35 81.4 78.15 84.8 82.55 90.1 90.05 90.1 95.65 90.1 98.35 87.1 100.45 84.7 100.55 80.65 102.85 77.55 102.85 73.15 102.85 67.95 99.55 63.95 94.05 51.6 94.95 46.2"/><path fill="#524b14" stroke="none" d="M99.55 63.95 L98.95 63.25 Q94.95 58.85 89.45 58.25 L86.85 57.2 94.95 46.2 Q94.05 51.6 99.55 63.95"/><path fill="#d7ca5b" stroke="none" d="M102.75 48.5 Q106.25 50.8 109.2 54.2 L110.0 55.1 Q117.4 63.75 117.4 74.85 117.4 85.7 110.1 92.9 L108.8 91.6 Q106.85 89.2 106.85 85.7 106.85 81.4 107.85 77.95 108.8 74.35 108.8 71.35 108.8 64.55 106.35 59.75 101.85 51.8 102.75 48.5 M74.05 77.05 L75.55 76.35 Q75.85 76.15 77.15 77.45 L81.05 81.5 Q83.85 84.4 89.45 85.1 94.95 85.7 98.95 82.3 L100.55 80.65 Q100.45 84.7 98.35 87.1 95.65 90.1 90.05 90.1 82.55 90.1 78.15 84.8 75.35 81.4 74.05 77.05"/><path fill="none" stroke="#bdd60a" stroke-width="0.5" d="M97.45 45.7 L102.75 48.5 Q106.25 50.8 109.2 54.2 L110.0 55.1 Q117.4 63.75 117.4 74.85 117.4 85.7 110.1 92.9 L109.2 93.7 Q101.05 100.9 89.45 99.6 80.95 98.6 74.35 93.5 M74.05 77.05 L75.55 76.35 Q75.85 76.15 77.15 77.45 L81.05 81.5 Q83.85 84.4 89.45 85.1 94.95 85.7 98.95 82.3 L100.55 80.65 Q102.85 77.55 102.85 73.15 102.85 67.95 99.55 63.95 L98.95 63.25 Q94.95 58.85 89.45 58.25 L86.85 57.2"/><path fill="#ffff99" stroke="none" d="M111.1 67.65 Q110.1 66.95 109.35 65.7 108.6 64.4 108.5 63.2 108.35 62.0 108.95 61.65 109.55 61.3 110.6 62.0 111.55 62.7 112.3 64.0 113.05 65.25 113.2 66.45 113.25 67.65 112.65 68.0 112.05 68.35 111.1 67.65"/><path fill="#d7ca5b" stroke="none" d="M73.75 23.05 Q68.75 24.45 65.65 21.95 L60.8 17.45 Q51.3 14.05 51.3 11.9 51.3 10.9 52.3 10.0 52.9 9.5 53.7 9.2 61.4 10.8 67.55 16.15 L67.85 16.35 70.65 19.25 73.75 23.05 M43.3 53.7 L39.6 49.9 Q35.6 45.0 35.6 38.0 35.6 31.35 39.8 27.85 37.5 30.95 37.5 35.15 37.5 40.7 41.4 45.1 43.8 47.8 47.9 49.5 48.8 51.9 45.5 53.1 L43.3 53.7 M29.4 22.05 Q31.0 22.25 32.3 23.45 33.6 24.75 33.6 25.85 33.6 26.95 32.1 33.25 L31.5 39.1 Q30.9 42.2 28.9 42.2 26.5 42.2 25.6 39.9 24.8 38.0 24.8 33.85 24.8 25.15 27.6 22.85 28.4 22.15 29.4 22.05"/><path fill="#968a25" stroke="none" d="M53.7 9.2 Q52.9 9.5 52.3 10.0 51.3 10.9 51.3 11.9 51.3 14.05 60.8 17.45 L65.65 21.95 Q68.75 24.45 73.75 23.05 75.35 25.25 76.15 27.05 76.75 28.75 75.75 28.65 66.75 33.25 59.3 27.25 L58.7 26.75 Q55.3 23.85 50.9 23.35 45.3 22.65 41.4 26.05 L39.8 27.85 Q35.6 31.35 35.6 38.0 35.6 45.0 39.6 49.9 L43.3 53.7 41.5 53.7 30.2 53.2 Q22.9 44.4 22.9 33.45 22.9 21.85 31.1 14.65 39.3 7.4 50.9 8.8 L53.7 9.2 M29.4 22.05 Q28.4 22.15 27.6 22.85 24.8 25.15 24.8 33.85 24.8 38.0 25.6 39.9 26.5 42.2 28.9 42.2 30.9 42.2 31.5 39.1 L32.1 33.25 Q33.6 26.95 33.6 25.85 33.6 24.75 32.3 23.45 31.0 22.25 29.4 22.05"/><path fill="#524b14" stroke="none" d="M59.3 27.25 Q66.75 33.25 75.75 28.65 L65.15 41.0 Q63.65 31.95 60.4 28.35 L59.3 27.25"/><path fill="none" stroke="#bdd60a" stroke-width="0.5" d="M73.75 23.05 L70.65 19.25 67.85 16.35 M67.55 16.15 Q61.4 10.8 53.7 9.2 L50.9 8.8 Q39.3 7.4 31.1 14.65 22.9 21.85 22.9 33.45 22.9 44.4 30.2 53.2 M39.8 27.85 L41.4 26.05 Q45.3 22.65 50.9 23.35 55.3 23.85 58.7 26.75 M76.15 27.05 Q75.35 25.25 73.75 23.05 M39.8 27.85 Q37.5 30.95 37.5 35.15 37.5 40.7 41.4 45.1 43.8 47.8 47.9 49.5 M59.3 27.25 L60.4 28.35 Q63.65 31.95 65.15 41.0"/><path fill="none" stroke="#968a25" stroke-width="0.5" d="M58.7 26.75 L59.3 27.25"/><path fill="#ffff99" stroke="none" d="M34.25 47.0 Q33.55 46.3 33.25 45.2 32.95 44.05 33.2 43.1 33.5 42.1 34.2 41.95 34.9 41.75 35.6 42.45 36.3 43.15 36.6 44.3 36.9 45.4 36.65 46.35 36.4 47.35 35.7 47.55 35.0 47.7 34.25 47.0"/><path fill="#c0410c" stroke="none" d="M94.5 14.25 L93.65 13.95 93.55 13.85 93.65 13.85 94.5 14.25 M105.75 32.65 Q106.7 32.65 107.4 31.9 L107.75 32.2 Q106.85 32.7 105.75 32.65"/><path fill="#852b07" stroke="none" d="M107.4 31.9 L107.45 31.9 107.5 31.75 107.75 32.2 107.4 31.9"/><path fill="#6e2305" stroke="none" d="M93.65 13.95 L93.55 13.95 93.55 13.85 93.65 13.95"/><path fill="#a92201" stroke="none" d="M88.35 19.15 L88.45 19.25 88.35 19.25 88.35 19.15"/><path fill="#9f243d" stroke="none" d="M93.65 13.85 L93.55 13.85 93.65 13.85 M88.35 19.15 L88.35 19.25 88.35 19.15"/><path fill="#968a25" stroke="none" d="M113.7 38.05 L112.8 39.4 110.8 41.2 Q107.25 43.7 101.6 42.95 94.2 42.1 87.75 36.0 81.15 30.05 79.25 22.6 L78.95 21.7 Q77.5 14.85 81.1 10.45 84.9 5.9 92.35 6.8 99.75 7.85 106.2 13.85 112.8 19.8 114.7 27.2 116.35 33.75 113.7 38.05 M107.5 31.75 Q108.95 30.1 107.2 26.2 105.4 22.55 101.45 19.0 99.0 16.8 96.75 15.4 L96.65 15.5 94.5 14.25 93.65 13.85 93.55 13.85 93.55 13.95 Q89.85 12.6 88.35 14.25 87.05 15.9 88.35 19.15 L88.35 19.25 Q87.15 18.6 85.8 18.3 83.7 17.9 82.0 18.95 82.4 25.65 89.45 32.85 92.9 36.45 100.5 38.8 107.25 40.85 110.85 39.7 L110.8 38.65 Q110.65 36.85 110.0 35.25 109.25 33.55 108.15 32.55 L107.75 32.2 107.5 31.75 M109.4 28.5 Q109.35 31.15 107.75 32.2 109.35 31.15 109.4 28.5 M87.3 12.35 Q89.4 12.05 93.55 13.85 89.4 12.05 87.3 12.35"/><path fill="#d7ca5b" stroke="none" d="M88.45 19.25 L88.55 19.25 88.7 19.8 Q90.5 23.5 94.5 27.2 98.45 30.75 102.35 32.1 104.15 32.8 105.55 32.65 L105.75 32.65 Q106.85 32.7 107.75 32.2 L108.15 32.55 Q109.25 33.55 110.0 35.25 110.65 36.85 110.8 38.65 L110.85 39.7 Q107.25 40.85 100.5 38.8 92.9 36.45 89.45 32.85 82.4 25.65 82.0 18.95 83.7 17.9 85.8 18.3 87.15 18.6 88.35 19.25 L88.45 19.25"/><path fill="#524b14" stroke="none" d="M94.5 14.25 L96.65 15.5 96.75 15.4 Q99.0 16.8 101.45 19.0 105.4 22.55 107.2 26.2 108.95 30.1 107.5 31.75 L107.45 31.9 107.4 31.9 Q106.7 32.65 105.75 32.65 L105.55 32.65 Q104.15 32.8 102.35 32.1 98.45 30.75 94.5 27.2 90.5 23.5 88.7 19.8 L88.55 19.25 88.45 19.25 88.35 19.15 Q87.05 15.9 88.35 14.25 89.85 12.6 93.55 13.95 L93.65 13.95 94.5 14.25"/><path fill="none" stroke="#332720" stroke-width="1.5" d="M107.5 31.75 Q108.95 30.1 107.2 26.2 105.4 22.55 101.45 19.0 99.0 16.8 96.75 15.4 L96.65 15.5 94.5 14.25 93.65 13.95 M93.55 13.95 Q89.85 12.6 88.35 14.25 87.05 15.9 88.35 19.15 L88.45 19.25 88.55 19.25 88.7 19.8 Q90.5 23.5 94.5 27.2 98.45 30.75 102.35 32.1 104.15 32.8 105.55 32.65 L105.75 32.65 Q106.7 32.65 107.4 31.9 L107.45 31.9 107.5 31.75 M107.75 32.2 Q109.35 31.15 109.4 28.5 M93.55 13.85 L93.65 13.95 M93.55 13.85 Q89.4 12.05 87.3 12.35 M93.65 13.85 L93.55 13.85 93.55 13.95 M107.75 32.2 Q106.85 32.7 105.75 32.65 M94.5 14.25 L93.65 13.85"/><path fill="none" stroke="#bdd60a" stroke-width="1.5" d="M113.7 38.05 Q116.35 33.75 114.7 27.2 112.8 19.8 106.2 13.85 99.75 7.85 92.35 6.8 84.9 5.9 81.1 10.45 77.5 14.85 78.95 21.7 L79.25 22.6 Q81.15 30.05 87.75 36.0 94.2 42.1 101.6 42.95 107.25 43.7 110.8 41.2 L112.8 39.4 113.7 38.05"/><path fill="#d6a137" stroke="none" d="M93.1 1.7 L93.15 1.6 93.2 1.55 93.2 1.45 93.45 1.45 93.6 1.2 93.6 1.15 Q96.45 -2.05 102.7 1.45 115.65 10.45 118.85 20.4 119.3 22.4 118.2 24.1 L117.9 24.65 117.75 24.95 117.75 24.9 117.65 24.9 117.5 25.05 117.25 25.35 117.2 25.45 Q116.9 25.55 116.65 25.8 112.8 28.05 103.1 20.65 L101.6 19.35 Q96.1 14.45 93.6 8.9 91.75 4.6 92.55 2.45 L93.1 1.7 M118.2 24.1 L117.75 24.9 118.2 24.1"/><path fill="#7a5c34" stroke="none" d="M91.55 4.0 L91.3 5.7 91.0 7.6 91.45 7.9 91.75 8.15 92.65 9.45 93.7 11.35 Q94.5 12.4 94.7 13.35 L94.9 13.9 95.45 14.6 96.95 15.85 98.1 17.7 98.9 19.2 100.2 20.05 Q97.0 21.8 94.95 25.55 L95.0 25.6 Q95.3 32.05 106.25 33.25 L106.1 33.25 105.45 33.5 105.4 33.55 105.4 33.65 Q100.9 35.65 94.55 30.45 85.65 22.3 86.4 16.25 88.5 9.05 91.55 4.0"/><path fill="#f7e876" stroke="none" d="M92.55 2.45 Q91.75 4.6 93.6 8.9 96.1 14.45 101.6 19.35 L103.1 20.65 Q112.8 28.05 116.65 25.8 L114.1 27.95 113.6 27.85 113.1 27.7 111.35 26.8 109.75 26.0 108.9 25.25 108.55 24.95 107.95 24.55 107.2 24.1 106.5 23.9 105.75 23.65 104.9 23.65 104.35 23.6 103.45 22.6 102.85 21.75 100.2 20.05 98.9 19.2 98.1 17.7 96.95 15.85 95.45 14.6 94.9 13.9 94.7 13.35 Q94.5 12.4 93.7 11.35 L92.65 9.45 91.75 8.15 91.45 7.9 91.0 7.6 91.3 5.7 91.55 4.0 92.55 2.45"/><path fill="#957240" stroke="none" d="M106.25 33.25 Q95.3 32.05 95.0 25.6 L94.95 25.55 Q97.0 21.8 100.2 20.05 L102.85 21.75 103.45 22.6 104.35 23.6 104.9 23.65 105.75 23.65 106.5 23.9 107.2 24.1 107.95 24.55 108.55 24.95 108.9 25.25 109.75 26.0 111.35 26.8 113.1 27.7 113.6 27.85 114.1 27.95 109.25 31.3 106.25 33.25 M105.6 33.5 L105.55 33.5 105.7 33.4 105.6 33.5"/><path fill="none" stroke="#120e10" stroke-width="1.0" stroke-opacity="0.301960784314" d="M93.1 1.7 L92.55 2.45 91.55 4.0 Q88.5 9.05 86.4 16.25 85.65 22.3 94.55 30.45 100.9 35.65 105.4 33.65 M118.2 24.1 Q119.3 22.4 118.85 20.4 115.65 10.45 102.7 1.45 96.45 -2.05 93.6 1.15 M93.6 1.2 L93.45 1.45 M114.1 27.95 L116.65 25.8 M117.75 24.9 L117.5 25.05 M117.9 24.65 L118.2 24.1"/><path fill="none" stroke="#120e10" stroke-width="1.5" stroke-opacity="0.301960784314" d="M116.65 25.8 Q116.9 25.55 117.2 25.45 L117.25 25.35 117.5 25.05 117.65 24.9 117.75 24.9 118.2 24.1 M93.45 1.45 L93.2 1.45 93.2 1.55 93.15 1.6 M93.6 1.15 L93.45 1.45 M105.4 33.55 L105.45 33.5 106.1 33.25 106.25 33.25 109.25 31.3 114.1 27.95 M117.75 24.95 L117.75 24.9 M105.55 33.5 L105.45 33.5 105.45 33.55 105.4 33.55 M105.7 33.4 L106.1 33.25 M105.6 33.5 L105.7 33.4 M105.4 33.65 L105.6 33.5"/><path fill="#a26d22" stroke="none" d="M106.8 16.55 Q105.2 15.15 104.6 13.6 104.05 12.1 104.85 11.25 105.7 10.45 107.45 10.8 109.2 11.2 110.8 12.55 112.45 13.9 112.95 15.45 113.5 17.0 112.7 17.8 111.85 18.65 110.15 18.25 108.45 17.9 106.8 16.55"/><path fill="none" stroke="#120e10" stroke-width="1.5" stroke-opacity="0.301960784314" d="M106.8 16.55 Q105.2 15.15 104.6 13.6 104.05 12.1 104.85 11.25 105.7 10.45 107.45 10.8 109.2 11.2 110.8 12.55 112.45 13.9 112.95 15.45 113.5 17.0 112.7 17.8 111.85 18.65 110.15 18.25 108.45 17.9 106.8 16.55"/><path fill="#664d2c" stroke="none" d="M94.45 20.05 Q93.5 20.2 92.75 19.65 92.0 19.0 91.85 18.05 91.7 17.1 92.25 16.3 92.8 15.55 93.75 15.4 94.65 15.3 95.4 15.85 96.15 16.45 96.35 17.4 96.45 18.35 95.9 19.15 95.35 19.95 94.45 20.05"/><path fill="none" stroke="#120e10" stroke-width="1.5" stroke-opacity="0.301960784314" d="M94.45 20.05 Q93.5 20.2 92.75 19.65 92.0 19.0 91.85 18.05 91.7 17.1 92.25 16.3 92.8 15.55 93.75 15.4 94.65 15.3 95.4 15.85 96.15 16.45 96.35 17.4 96.45 18.35 95.9 19.15 95.35 19.95 94.45 20.05"/><path fill="#664d2c" stroke="none" d="M112.4 26.55 L111.8 27.35 110.55 28.05 108.5 27.95 Q107.45 27.25 107.2 26.4 107.0 25.45 107.45 24.6 L107.9 23.05 Q107.95 22.3 108.5 22.05 108.9 21.75 109.95 22.35 110.9 22.9 111.7 24.35 112.45 25.75 112.4 26.55"/><path fill="#a26d22" stroke="none" d="M102.25 7.5 L101.9 6.7 Q101.85 6.3 102.1 6.05 L102.65 5.95 Q103.0 6.05 103.3 6.45 L103.6 7.2 103.45 7.85 102.85 7.95 Q102.5 7.85 102.25 7.5"/><path fill="none" stroke="#120e10" stroke-width="1.5" stroke-opacity="0.301960784314" d="M102.25 7.5 L101.9 6.7 Q101.85 6.3 102.1 6.05 L102.65 5.95 Q103.0 6.05 103.3 6.45 L103.6 7.2 103.45 7.85 102.85 7.95 Q102.5 7.85 102.25 7.5"/><path fill="#664d2c" stroke="none" d="M98.55 20.85 L97.85 20.45 Q97.55 20.1 97.55 19.65 97.55 19.2 97.85 18.95 98.15 18.65 98.55 18.7 98.95 18.8 99.25 19.15 L99.55 19.9 Q99.6 20.35 99.3 20.65 L98.55 20.85"/><path fill="none" stroke="#120e10" stroke-width="1.5" stroke-opacity="0.301960784314" d="M98.55 20.85 L97.85 20.45 Q97.55 20.1 97.55 19.65 97.55 19.2 97.85 18.95 98.15 18.65 98.55 18.7 98.95 18.8 99.25 19.15 L99.55 19.9 Q99.6 20.35 99.3 20.65 L98.55 20.85"/><path fill="none" stroke="#120e10" stroke-width="1.5" stroke-opacity="0.301960784314" d="M87.5 17.7 L91.1 10.95"/><path fill="none" stroke="#120e10" stroke-width="1.5" stroke-opacity="0.301960784314" d="M88.35 19.2 L89.85 16.8"/><path fill="none" stroke="#120e10" stroke-width="1.5" stroke-opacity="0.301960784314" d="M106.45 20.5 L101.1 26.75"/><path fill="none" stroke="#120e10" stroke-width="1.5" stroke-opacity="0.301960784314" d="M104.15 24.95 L101.5 28.15"/><path fill="none" stroke="#120e10" stroke-width="1.5" stroke-opacity="0.301960784314" d="M103.4 32.75 L108.6 27.4"/><path fill="none" stroke="#120e10" stroke-width="1.5" stroke-opacity="0.301960784314" d="M106.8 29.35 L107.95 30.05"/><path fill="#ffff99" stroke="none" d="M66.15 84.6 Q65.5 85.2 64.5 85.15 63.15 85.05 61.95 83.7 60.95 82.5 61.3 81.6 L61.8 80.9 Q62.55 80.2 63.75 80.35 64.75 80.5 65.65 81.25 66.55 82.0 66.75 82.9 66.95 83.9 66.15 84.6"/><path fill="#c1e004" stroke="none" d="M47.1 87.25 Q47.0 89.2 45.6 90.4 44.2 91.65 42.3 91.45 40.45 91.3 39.15 89.8 37.9 88.25 38.0 86.3 38.1 84.4 39.5 83.15 40.9 81.95 42.8 82.1 44.7 82.3 45.95 83.85 47.25 85.35 47.1 87.25"/><path fill="#beaf30" fill-opacity="0.290196078431" d="M12.95 74.35 Q16.15 63.65 31.8 57.9 47.7 52.1 44.7 69.75 41.9 87.4 48.1 97.2 54.4 106.95 50.8 113.65 47.2 120.45 39.2 120.15 31.2 119.65 23.4 112.25 15.75 104.95 12.75 94.9 9.75 84.9 12.95 74.35"/><path fill="#eaf61a" stroke="none" d="M56.0 108.5 L54.95 107.75 Q54.45 107.15 54.35 106.5 54.3 105.85 54.7 105.45 55.15 105.1 55.8 105.25 56.4 105.4 56.9 106.0 L57.45 107.25 Q57.5 107.9 57.05 108.25 56.65 108.65 56.0 108.5"/><path fill="#c1e004" stroke="none" d="M25.55 74.55 Q26.4 73.8 27.45 73.85 28.5 73.9 29.2 74.65 29.85 75.45 29.7 76.5 29.6 77.55 28.75 78.3 27.9 79.05 26.8 79.05 25.75 79.0 25.1 78.2 24.4 77.45 24.55 76.4 24.7 75.3 25.55 74.55"/><path fill="#8fa605" stroke="none" d="M35.65 101.45 Q37.05 101.7 38.05 102.9 39.1 104.15 39.1 105.55 39.15 107.0 38.2 107.85 37.2 108.7 35.8 108.45 34.4 108.25 33.35 107.0 32.35 105.8 32.35 104.35 32.25 102.9 33.25 102.05 34.2 101.2 35.65 101.45"/><path fill="#ffff99" stroke="none" d="M29.2 59.55 Q28.2 59.25 27.8 58.75 27.2 58.15 27.4 57.6 L27.9 57.2 Q28.6 56.6 29.6 56.6 30.3 56.6 30.9 57.1 31.5 57.6 31.6 58.25 31.7 58.95 31.0 59.55 30.4 60.05 29.2 59.55"/><path fill="#ffff99" stroke="none" d="M62.85 89.3 Q63.45 91.75 62.2 93.95 61.1 95.85 59.3 96.25 56.9 96.8 54.45 93.9 52.35 91.45 52.65 88.85 52.8 87.65 53.4 86.7 54.65 84.55 56.7 84.4 58.65 84.25 60.4 85.7 62.25 87.15 62.85 89.3"/><path fill="#8fa605" stroke="none" d="M19.1 89.65 Q19.55 89.65 19.85 89.95 L20.05 90.75 19.65 91.5 18.9 91.75 Q18.45 91.75 18.2 91.4 17.9 91.1 17.95 90.65 L18.3 89.95 Q18.65 89.65 19.1 89.65"/><path fill="#ffff99" stroke="none" d="M99.9 52.8 Q99.25 53.4 98.25 53.35 96.9 53.25 95.7 51.9 94.7 50.7 95.05 49.8 L95.55 49.1 Q96.3 48.4 97.5 48.55 98.5 48.7 99.4 49.45 100.3 50.2 100.5 51.1 100.7 52.1 99.9 52.8"/></g><radialGradient gradientUnits="userSpaceOnUse" r="819.2" cx="0" cy="0" spreadMethod="pad" gradientTransform="matrix(0.0138549804688,0.0,0.0,0.0138549804688,0.0,0.0)" id="gradient4"><stop offset="0.0" stop-color="#ffffcc" stop-opacity="0.313725490196"/><stop offset="1.0" stop-color="#ffff99" stop-opacity="0.0"/></radialGradient><g id="c14"><path stroke="none" fill="url(#gradient4)" d="M7.85 -7.9 Q11.15 -4.6 11.15 0.0 11.15 4.6 7.85 7.85 4.6 11.15 0.0 11.15 -4.6 11.15 -7.9 7.85 -11.15 4.6 -11.15 0.0 -11.15 -4.6 -7.9 -7.9 -4.6 -11.15 0.0 -11.15 4.6 -11.15 7.85 -7.9"/></g><g id="c15"><g><use transform="matrix(1.0,0.0,0.0,1.0,0.0,0.0)" xlink:href="#c14"/></g></g><g id="c16"><g><use transform="matrix(1.0,0.0,0.0,1.0,0.0,0.0)" xlink:href="#c13"/></g><g><use transform="matrix(1.43252563477,1.69258117676,-1.34608459473,1.22102355957,46.0,94.65)" filter="url(#filter12)" xlink:href="#c15"/></g></g><filter id="filter12"><feColorMatrix in="SourceGraphic" type="matrix" values="0.0 0.0 0.0 0.0 0.99609375 0.0 0.0 0.0 0.0 0.19921875 0.0 0.0 0.0 0.0 0.0 0.0 0.0 0.0 1.0 0.0" result="cxform"/><feComposite operator="in" in2="SourceGraphic" result="color-xform"/></filter><g id="c17"><path fill="none" stroke="#ffcc00" stroke-width="0.5" d="M37.8 93.2 L26.1 97.0 Q23.45 97.8 21.8 96.65 20.65 95.9 19.95 94.25 L8.0 67.8 7.9 67.65 7.5 66.8 5.55 62.4 Q4.25 59.55 6.0 58.1 L7.5 57.25 11.8 55.6 Q15.25 54.3 16.95 57.5 L28.6 53.75 Q32.85 52.35 34.75 56.45 L46.85 83.3 47.2 84.05 49.25 88.5 Q50.25 90.7 49.45 92.05 48.8 93.05 47.25 93.6 L42.95 95.15 41.4 95.55 Q39.05 95.65 37.8 93.2"/></g><linearGradient gradientUnits="userSpaceOnUse" x1="-819.2" x2="819.2" spreadMethod="pad" gradientTransform="matrix(-0.0125732421875,0.0326843261719,-0.0249176025391,-0.0216674804688,24.2,31.15)" id="gradient5"><stop offset="0.0" stop-opacity="0.337254901961"/><stop offset="1.0" stop-opacity="0.0"/></linearGradient><linearGradient gradientUnits="userSpaceOnUse" x1="-819.2" x2="819.2" spreadMethod="pad" gradientTransform="matrix(-0.00735473632812,0.0279541015625,-0.0266723632812,-0.0160522460938,34.25,42.6)" id="gradient6"><stop offset="0.0" stop-opacity="0.337254901961"/><stop offset="1.0" stop-opacity="0.0"/></linearGradient><linearGradient gradientUnits="userSpaceOnUse" x1="-819.2" x2="819.2" spreadMethod="pad" gradientTransform="matrix(0.0,0.0374755859375,-0.0333709716797,-0.0137786865234,15.9,31.9)" id="gradient7"><stop offset="0.0" stop-opacity="0.337254901961"/><stop offset="1.0" stop-opacity="0.0"/></linearGradient><linearGradient gradientUnits="userSpaceOnUse" x1="-819.2" x2="819.2" spreadMethod="pad" gradientTransform="matrix(-0.00982666015625,0.0286254882812,-0.0181274414062,-0.0141143798828,4.1,18.2)" id="gradient8"><stop offset="0.0" stop-opacity="0.337254901961"/><stop offset="1.0" stop-opacity="0.0"/></linearGradient><g id="c18"><path stroke="none" fill="url(#gradient5)" d="M26.45 9.0 L26.45 45.2 21.35 45.2 21.35 9.0 26.45 9.0"/><path stroke="none" fill="url(#gradient6)" d="M31.7 45.2 L31.7 17.3 36.8 24.7 36.8 45.2 31.7 45.2"/><path stroke="none" fill="url(#gradient7)" d="M15.65 9.0 L14.95 45.2 9.35 45.2 9.6 9.0 15.65 9.0"/><path stroke="none" fill="url(#gradient8)" d="M5.1 9.0 L5.1 40.3 0.0 40.3 0.0 9.0 5.1 9.0"/></g><g id="c19"><g><use transform="matrix(1.0,0.0,0.0,1.0,0.0,0.0)" xlink:href="#c18"/></g></g><g id="c20"><path fill="#fefd8d" fill-opacity="0.972549019608" d="M33.85 83.75 L33.85 83.8 33.85 83.95 33.85 84.0 33.85 84.1 33.9 84.1 33.9 84.15 34.35 84.4 34.85 84.75 34.35 84.45 34.1 84.3 34.05 84.25 33.95 84.2 33.9 84.2 33.9 84.7 33.9 85.25 33.85 84.75 33.75 84.2 33.7 84.1 33.5 84.25 33.0 84.55 32.7 84.7 32.95 84.5 33.4 84.3 33.45 84.25 33.5 84.2 33.7 84.1 33.65 84.05 33.7 84.05 33.7 84.0 33.3 83.6 32.95 83.25 33.3 83.55 33.55 83.8 33.7 83.95 33.8 83.4 33.9 82.95 33.85 83.35 33.85 83.75 M34.25 84.0 L34.15 84.0 33.9 84.05 34.15 83.95 34.7 83.75 35.2 83.65 34.85 83.75 34.95 83.85 34.85 83.75 34.7 83.8 34.4 83.9 34.35 83.9 34.25 84.0 M34.95 83.85 L35.65 84.4 36.45 85.15 36.5 85.2 36.75 85.45 36.9 85.55 36.9 85.5 37.1 83.9 37.35 82.3 37.45 81.75 37.4 82.25 37.4 83.85 37.2 85.6 37.35 86.0 37.4 86.1 38.7 86.9 40.15 87.75 40.55 88.05 40.1 87.8 38.75 87.05 37.75 86.45 37.4 86.25 37.35 86.2 37.4 86.3 37.5 87.75 37.55 89.45 37.6 90.0 37.5 89.5 37.25 87.9 37.05 86.25 37.0 86.3 36.9 85.9 36.7 85.75 36.9 85.85 36.9 85.65 35.7 84.55 34.95 83.85 M35.7 86.65 L36.1 86.45 36.2 86.4 36.85 86.1 36.3 86.45 34.8 87.25 33.35 88.0 32.8 88.25 33.3 88.0 34.65 87.2 35.7 86.65 M41.85 84.45 L41.35 84.6 39.85 85.15 38.15 85.7 37.5 85.9 Q37.45 85.85 38.1 85.65 L39.7 85.1 41.3 84.6 41.85 84.45"/><path fill="#fffd8f" fill-opacity="0.4" d="M33.85 83.75 L34.05 83.4 34.25 83.2 34.15 83.4 34.0 83.8 33.9 83.9 33.85 83.8 33.85 83.75 M34.1 84.3 L34.35 84.5 34.45 84.65 34.25 84.5 34.0 84.3 33.95 84.2 34.05 84.25 34.1 84.3 M33.4 84.3 L33.3 84.3 32.95 84.45 32.7 84.55 32.95 84.4 33.35 84.25 33.45 84.25 33.4 84.3 M33.55 83.8 L33.4 83.6 33.6 83.8 33.65 83.9 33.55 83.8 M34.25 84.0 L34.35 83.9 34.4 83.9 34.65 83.85 34.95 83.85 35.05 83.8 34.95 83.85 34.7 83.9 34.3 84.0 34.2 84.0 34.25 84.0 M36.45 85.15 L35.85 84.4 35.45 83.85 35.95 84.3 36.65 85.15 36.9 85.5 36.75 85.45 36.5 85.2 36.45 85.15 M37.75 86.45 Q38.15 86.7 38.6 87.1 L39.3 87.75 38.5 87.15 37.6 86.5 37.4 86.3 37.35 86.2 37.4 86.25 37.75 86.45 M33.6 84.3 L33.7 84.2 33.75 84.35 33.65 84.7 33.55 85.05 33.55 84.75 33.6 84.3 M37.65 85.15 L37.35 85.5 37.35 85.0 37.9 84.05 38.5 83.1 38.7 82.75 38.55 83.1 38.15 84.05 37.65 85.15 M35.7 86.65 L34.7 87.0 33.8 87.3 34.7 86.95 35.75 86.5 36.1 86.45 35.7 86.65 M38.7 85.65 L38.25 85.7 38.7 85.55 39.75 85.35 40.7 85.2 41.05 85.15 40.75 85.25 39.8 85.45 38.7 85.65 M36.7 86.7 L36.95 86.25 37.0 86.75 36.65 87.8 36.3 88.85 36.15 89.25 36.25 88.85 36.4 87.85 Q36.5 87.1 36.7 86.7"/><path fill="#fffd8f" fill-opacity="0.392156862745" d="M38.0 86.75 Q37.9 86.0 37.45 85.8 L36.9 85.85 Q36.75 86.1 36.9 86.5 37.1 87.0 37.65 87.3 L38.35 87.95 38.6 88.25 38.45 87.85 38.0 86.75"/><path fill="#fffd8f" fill-opacity="0.392156862745" d="M38.0 86.25 L37.05 85.85 Q36.8 85.8 36.95 85.95 L37.55 86.35 38.35 86.6 Q38.8 86.65 39.05 86.85 L39.35 86.95 39.0 86.75 38.0 86.25"/><path fill="#fffd8f" fill-opacity="0.392156862745" d="M36.4 84.8 Q36.35 85.55 36.75 85.85 L37.3 85.9 37.45 85.25 Q37.35 84.75 36.9 84.35 36.35 83.9 36.3 83.55 L36.1 83.25 36.2 83.65 36.4 84.8"/><path fill="#fffd8f" fill-opacity="0.392156862745" d="M36.25 85.35 L37.1 85.95 37.2 85.8 36.75 85.3 35.95 84.9 Q35.55 84.75 35.3 84.6 L35.05 84.45 35.35 84.65 36.25 85.35"/><path fill="#fffd8f" fill-opacity="0.392156862745" d="M38.75 85.2 Q38.0 85.45 37.85 85.65 37.7 85.85 37.85 85.8 L38.5 85.65 39.25 85.2 39.9 84.75 40.15 84.6 39.75 84.75 38.75 85.2"/><path fill="#fffd8f" fill-opacity="0.392156862745" d="M35.75 87.0 L36.6 86.4 36.5 86.25 Q36.25 86.25 35.9 86.5 L35.25 87.1 34.7 87.65 Q34.4 87.8 34.45 87.85 L34.8 87.6 35.75 87.0"/><path fill="#fffd8f" fill-opacity="0.392156862745" d="M34.1 84.35 L33.95 84.05 33.75 84.05 Q33.65 84.1 33.7 84.25 L34.0 84.55 34.2 84.75 34.3 84.85 34.2 84.75 34.1 84.35"/><path fill="#fffd8f" fill-opacity="0.392156862745" d="M34.1 84.2 Q33.9 84.05 33.75 84.05 L33.75 84.1 33.95 84.2 34.2 84.3 34.5 84.4 34.55 84.4 34.45 84.4 34.1 84.2"/><path fill="#fffd8f" fill-opacity="0.392156862745" d="M33.5 83.65 L33.65 84.05 33.85 84.05 33.9 83.85 33.65 83.55 33.5 83.25 33.45 83.15 33.5 83.25 33.5 83.65"/><path fill="#fffd8f" fill-opacity="0.392156862745" d="M33.5 83.9 L33.75 84.05 33.8 84.0 33.65 83.85 33.35 83.7 33.2 83.6 33.05 83.55 33.15 83.6 33.5 83.9"/><path fill="#fffd8f" fill-opacity="0.392156862745" d="M34.3 83.8 L34.05 83.95 34.05 84.0 34.25 83.95 34.55 83.8 Q34.6 83.7 34.7 83.7 L34.8 83.6 34.7 83.65 34.3 83.8"/><path fill="#fffd8f" fill-opacity="0.392156862745" d="M33.3 84.45 L33.6 84.2 33.6 84.15 Q33.5 84.15 33.4 84.3 L33.15 84.45 32.95 84.65 32.85 84.75 33.0 84.6 33.3 84.45"/><path fill="#ffffff" stroke="none" d="M36.3 85.35 Q36.05 85.7 36.05 86.15 L36.5 86.9 37.3 87.15 38.05 86.75 38.25 85.9 37.85 85.2 37.05 84.95 36.3 85.35"/><path fill="#fefd8d" fill-opacity="0.972549019608" d="M18.75 62.3 L18.65 62.35 18.2 62.45 18.6 62.25 19.85 61.9 21.0 61.5 21.4 61.35 21.05 61.5 19.9 61.9 18.75 62.3 M17.45 61.95 L17.7 62.2 17.75 62.2 17.7 62.15 17.85 61.05 18.05 59.85 18.15 59.4 18.1 59.8 18.05 61.0 18.0 62.25 18.1 62.6 19.15 63.2 20.0 63.75 19.15 63.3 18.5 62.95 18.4 62.85 18.15 62.7 18.1 62.7 18.15 62.75 18.2 63.85 18.2 64.9 18.0 64.0 17.85 62.8 17.8 62.8 17.75 62.45 17.6 62.3 17.7 62.35 17.7 62.3 16.85 61.5 15.9 60.65 15.65 60.35 15.95 60.65 16.8 61.4 17.45 61.95 M14.7 64.25 L15.05 64.05 16.1 63.45 17.25 62.85 17.7 62.65 17.3 62.95 16.2 63.45 15.1 64.05 14.7 64.25"/><path fill="#fffd8f" fill-opacity="0.4" d="M18.75 62.3 L19.1 62.2 19.85 62.05 20.6 61.95 19.85 62.15 19.05 62.3 18.75 62.3 M17.45 61.95 L16.95 61.35 16.5 60.75 17.0 61.3 17.55 61.95 17.7 62.15 17.75 62.2 17.7 62.2 17.45 61.95 M18.5 62.95 L19.0 63.35 19.6 63.8 19.8 64.0 19.6 63.85 18.95 63.4 18.3 62.9 18.15 62.75 18.1 62.7 18.15 62.7 18.4 62.85 18.5 62.95 M18.3 61.9 L18.05 62.2 18.1 61.85 18.45 61.15 18.9 60.4 19.1 60.2 18.95 60.4 18.65 61.15 18.3 61.9 M17.55 63.1 L17.75 62.75 17.8 63.1 17.6 63.95 17.25 64.7 17.15 64.95 17.2 64.7 17.4 63.9 Q17.4 63.4 17.55 63.1 M16.9 62.9 L17.2 62.85 Q17.15 62.9 16.85 63.05 L16.15 63.3 15.45 63.55 15.2 63.6 15.45 63.5 16.1 63.25 Q16.6 63.0 16.9 62.9"/><path fill="#fffd8f" fill-opacity="0.392156862745" d="M18.6 63.1 L18.15 62.4 17.7 62.45 17.75 62.95 18.3 63.55 Q18.75 63.8 18.8 64.0 L19.0 64.25 18.85 63.95 18.6 63.1"/><path fill="#fffd8f" fill-opacity="0.392156862745" d="M18.55 62.7 Q18.05 62.4 17.9 62.4 17.7 62.4 17.8 62.5 L18.25 62.8 18.85 63.0 19.35 63.15 19.6 63.2 19.35 63.1 18.55 62.7"/><path fill="#fffd8f" fill-opacity="0.392156862745" d="M17.3 61.7 Q17.35 62.3 17.55 62.45 L18.0 62.5 18.1 62.0 17.65 61.35 17.25 60.75 17.15 60.5 17.2 60.8 17.3 61.7"/><path fill="#fffd8f" fill-opacity="0.392156862745" d="M17.25 62.1 L17.9 62.5 17.95 62.45 17.6 62.05 17.05 61.75 16.55 61.5 16.35 61.4 16.55 61.6 Q16.8 61.7 17.25 62.1"/><path fill="#fffd8f" fill-opacity="0.392156862745" d="M19.05 61.9 L18.4 62.3 18.45 62.4 18.9 62.3 19.5 61.95 19.95 61.6 20.15 61.5 19.85 61.6 19.05 61.9"/><path fill="#fffd8f" fill-opacity="0.392156862745" d="M16.9 63.3 L17.5 62.85 17.45 62.7 17.05 62.9 16.5 63.35 16.15 63.75 15.95 63.95 16.2 63.75 16.9 63.3"/><path fill="#ffffff" stroke="none" d="M17.4 62.1 Q17.15 62.35 17.2 62.65 L17.55 63.25 18.1 63.4 18.7 63.1 18.85 62.5 18.55 61.95 17.9 61.75 17.4 62.1"/><path fill="#ffffff" stroke="none" d="M33.55 83.9 L33.45 84.15 33.6 84.45 33.85 84.5 34.15 84.4 34.2 84.05 34.1 83.85 33.75 83.75 33.55 83.9"/></g><g id="c21"><g><use transform="matrix(1.0,0.0,0.0,1.0,6.3,53.35)" xlink:href="#c9"/></g><mask id="mask10"><use transform="matrix(1.0,0.0,0.0,1.0,0.0,0.0)" xlink:href="#c10"/></mask><g mask="url(#mask10)"><use transform="matrix(1.19317626953,0.0,0.0,1.19317626953,2.45,49.2)" xlink:href="#c12"/></g><g><use transform="matrix(-0.146041870117,0.0488891601562,0.0616760253906,0.140441894531,33.05,63.95)" xlink:href="#c16"/></g><g><use transform="matrix(1.0,0.0,0.0,1.0,0.0,0.0)" xlink:href="#c17"/></g><mask id="mask10"><use transform="matrix(1.0,0.0,0.0,1.0,0.0,0.0)" xlink:href="#c10"/></mask><g mask="url(#mask10)"><use transform="matrix(1.0,0.0,0.0,1.0,9.65,51.0)" filter="url(#filter20)" xlink:href="#c19"/></g><g mask="url(#mask10)"><use transform="matrix(1.0,0.0,0.0,1.0,9.65,47.6)" filter="url(#filter21)" xlink:href="#c19"/></g><g mask="url(#mask10)"><use transform="matrix(1.0,0.0,0.0,1.0,0.0,0.0)" xlink:href="#c20"/></g><g><use transform="matrix(0.141098022461,-0.0378112792969,0.111373901367,0.225646972656,27.2,74.05)" filter="url(#filter23)" xlink:href="#c6"/></g></g><filter id="filter20"><feColorMatrix in="SourceGraphic" type="matrix" values="0.0 0.0 0.0 0.0 0.99609375 0.0 0.0 0.0 0.0 0.99609375 0.0 0.0 0.0 0.0 0.99609375 0.0 0.0 0.0 1.0 0.0" result="cxform"/><feComposite operator="in" in2="SourceGraphic" result="color-xform"/></filter><filter id="filter21"><feColorMatrix in="SourceGraphic" type="matrix" values="0.0 0.0 0.0 0.0 0.99609375 0.0 0.0 0.0 0.0 0.99609375 0.0 0.0 0.0 0.0 0.99609375 0.0 0.0 0.0 1.0 0.0" result="cxform"/><feComposite operator="in" in2="SourceGraphic" result="color-xform"/></filter><filter id="filter23"><feColorMatrix in="SourceGraphic" type="matrix" values="1.0 0.0 0.0 0.0 0.0 0.0 1.0 0.0 0.0 0.0 0.0 0.0 1.0 0.0 0.0 0.0 0.0 0.0 0.23046875 0.0" result="cxform"/><feComposite operator="in" in2="SourceGraphic" result="color-xform"/></filter></defs><g><g><use transform="matrix(1.0,0.0,0.0,1.0,0.0,0.0)" xlink:href="#c1"/></g><g><use transform="matrix(1.15492248535,0.0,0.0,1.15492248535,-1.5,-57.7)" xlink:href="#c21"/></g></g></svg>