<?xml version='1.0' encoding='UTF-8'?>
<svg xmlns:xlink="http://www.w3.org/1999/xlink" xmlns="http://www.w3.org/2000/svg" version="1.1" width="60px" height="60px" viewBox="0.0 0.0 60.0 60.0"><defs><g id="c1"><path fill="#000000" fill-opacity="0.00392156862745" d="M0.0 0.0 L60.0 0.0 60.0 60.0 0.0 60.0 0.0 0.0"/></g><g id="c2"><path fill="#006699" stroke="none" d="M31.5 39.85 L19.8 43.65 Q17.15 44.45 15.5 43.3 14.35 42.55 13.65 40.9 L1.7 14.45 1.6 14.3 1.2 13.45 -0.75 9.05 Q-2.05 6.2 -0.3 4.75 0.3 4.25 1.2 3.9 L5.5 2.25 Q8.95 0.95 10.65 4.15 L22.3 0.4 Q26.55 -1.0 28.45 3.1 L40.55 29.95 40.9 30.7 42.95 35.15 Q43.95 37.35 43.15 38.7 42.5 39.7 40.95 40.25 L36.65 41.8 35.1 42.2 Q32.75 42.3 31.5 39.85"/><path fill="none" stroke="#000000" stroke-width="1.0" stroke-opacity="0.298039215686" d="M31.5 39.85 L19.8 43.65 Q17.15 44.45 15.5 43.3 14.35 42.55 13.65 40.9 L1.7 14.45 1.6 14.3 1.2 13.45 -0.75 9.05 Q-2.05 6.2 -0.3 4.75 0.3 4.25 1.2 3.9 L5.5 2.25 Q8.95 0.95 10.65 4.15 L22.3 0.4 Q26.55 -1.0 28.45 3.1 L40.55 29.95 40.9 30.7 42.95 35.15 Q43.95 37.35 43.15 38.7 42.5 39.7 40.95 40.25 L36.65 41.8 35.1 42.2 Q32.75 42.3 31.5 39.85"/><path fill="#300525" stroke="none" d="M0.75 8.25 L29.8 9.75 25.55 0.9 Q26.9 1.6 27.8 3.55 L40.7 32.15 Q42.6 36.3 38.3 37.65 L23.3 42.5 13.15 21.4 4.6 20.9 0.7 12.25 Q-0.45 9.75 0.75 8.25 M20.1 43.55 L19.8 43.65 Q17.15 44.45 15.5 43.3 L20.1 43.55"/><path fill="#630a4c" stroke="none" d="M25.55 0.9 L29.8 9.75 0.75 8.25 Q1.45 7.3 3.1 6.75 L21.65 0.8 25.55 0.9 M4.6 20.9 L13.15 21.4 23.3 42.5 20.1 43.55 15.5 43.3 Q14.35 42.55 13.65 40.9 L4.6 20.9"/><path fill="none" stroke="#000000" stroke-width="0.5" stroke-opacity="0.301960784314" d="M0.75 8.25 Q-0.45 9.75 0.7 12.25 L4.6 20.9 M23.3 42.5 L38.3 37.65 Q42.6 36.3 40.7 32.15 L27.8 3.55 Q26.9 1.6 25.55 0.9 L21.65 0.8 3.1 6.75 Q1.45 7.3 0.75 8.25 M20.1 43.55 L19.8 43.65 Q17.15 44.45 15.5 43.3 14.35 42.55 13.65 40.9 L4.6 20.9 M20.1 43.55 L23.3 42.5"/><path fill="#9d147b" stroke="none" d="M14.2 40.5 L1.35 11.8 Q-0.5 7.75 3.8 6.35 L22.3 0.4 Q26.55 -1.0 28.45 3.1 L41.35 31.7 Q43.25 35.85 38.9 37.25 L20.4 43.2 Q16.1 44.55 14.2 40.5"/><path fill="none" stroke="#000000" stroke-width="0.5" stroke-opacity="0.301960784314" d="M14.2 40.5 L1.35 11.8 Q-0.5 7.75 3.8 6.35 L22.3 0.4 Q26.55 -1.0 28.45 3.1 L41.35 31.7 Q43.25 35.85 38.9 37.25 L20.4 43.2 Q16.1 44.55 14.2 40.5"/><path fill="#9d147b" stroke="none" d="M31.4 39.65 L31.3 39.45 31.25 39.4 29.25 34.95 Q27.55 31.2 31.25 29.85 L35.6 28.25 Q38.8 27.1 40.5 29.85 L40.9 30.7 42.95 35.15 Q43.95 37.35 43.15 38.7 42.5 39.45 41.2 39.9 L36.9 41.45 34.85 41.85 Q32.9 41.7 31.75 39.5 L31.4 39.65"/><path fill="#630a4c" stroke="none" d="M43.15 38.7 Q42.5 39.7 40.95 40.25 L36.65 41.8 35.1 42.2 Q32.75 42.3 31.45 39.8 L31.4 39.65 31.75 39.5 Q32.9 41.7 34.85 41.85 L36.9 41.45 41.2 39.9 Q42.5 39.45 43.15 38.7"/><path fill="none" stroke="#003333" stroke-width="0.5" stroke-opacity="0.509803921569" d="M43.15 38.7 Q42.5 39.7 40.95 40.25 L36.65 41.8 35.1 42.2 Q32.75 42.3 31.45 39.8 L31.4 39.65 30.3 40.0 31.4 39.65 M40.5 29.85 L40.9 30.7 42.95 35.15 Q43.95 37.35 43.15 38.7 42.5 39.45 41.2 39.9 L36.9 41.45 34.85 41.85 Q32.9 41.7 31.75 39.5 L31.4 39.65"/><path fill="#9d147b" stroke="none" d="M10.65 4.2 L10.85 4.6 12.85 9.05 Q14.5 12.8 10.8 14.15 L6.5 15.8 Q4.5 16.6 3.1 15.8 L1.75 12.85 -0.2 8.45 Q-1.25 6.15 -0.3 4.75 0.3 4.25 1.2 3.9 L5.5 2.25 Q9.0 0.95 10.65 4.2"/><path fill="#300525" stroke="none" d="M-0.3 4.75 Q-1.25 6.15 -0.2 8.45 L1.75 12.85 3.1 15.8 Q2.25 15.35 1.6 14.3 L1.2 13.45 -0.75 9.05 Q-2.05 6.2 -0.3 4.75"/><path fill="none" stroke="#003333" stroke-width="0.5" stroke-opacity="0.509803921569" d="M3.1 15.8 L6.45 23.15 M-0.3 4.75 Q0.3 4.25 1.2 3.9 L5.5 2.25 Q9.0 0.95 10.65 4.2 M3.1 15.8 L1.75 12.85 -0.2 8.45 Q-1.25 6.15 -0.3 4.75 -2.05 6.2 -0.75 9.05 L1.2 13.45 1.6 14.3"/><path fill="#fcf2cf" stroke="none" d="M9.15 13.6 Q9.8 12.8 9.55 11.6 L9.1 10.55 22.05 6.35 Q24.9 5.45 26.25 7.85 L26.5 8.3 35.8 29.0 35.95 29.35 Q34.75 29.3 34.1 30.1 33.45 30.9 33.7 32.1 L34.0 32.9 20.65 37.2 Q18.8 37.8 17.65 37.0 16.8 36.4 16.3 35.2 L6.95 14.6 6.8 14.4 7.1 14.4 Q8.4 14.45 9.15 13.6"/><path fill="#c47fad" stroke="none" d="M9.15 13.6 Q8.4 14.45 7.1 14.4 L6.8 14.4 6.95 14.6 16.3 35.2 Q16.8 36.4 17.65 37.0 18.8 37.8 20.65 37.2 L34.0 32.9 33.7 32.1 Q33.45 30.9 34.1 30.1 34.75 29.3 35.95 29.35 L35.8 29.0 26.5 8.3 26.25 7.85 Q24.9 5.45 22.05 6.35 L9.1 10.55 9.55 11.6 Q9.8 12.8 9.15 13.6 M28.25 6.1 L35.55 22.3 39.35 30.75 Q41.1 34.5 37.2 35.7 L20.45 41.1 Q16.8 42.25 15.2 39.0 L15.0 38.6 8.25 23.65 3.35 12.8 Q1.65 9.1 5.5 7.85 L22.25 2.5 Q26.05 1.25 27.75 4.95 L28.25 6.1"/><path fill="none" stroke="#ffcc00" stroke-width="1.0" stroke-opacity="0.749019607843" d="M35.55 22.3 L39.35 30.75 Q41.1 34.5 37.2 35.7 L20.45 41.1 Q16.8 42.25 15.2 39.0 L15.0 38.6 M8.25 23.65 L3.35 12.8 Q1.65 9.1 5.5 7.85 L22.25 2.5 Q26.05 1.25 27.75 4.95 L28.25 6.1"/><path fill="none" stroke="#bf9900" stroke-width="1.0" stroke-opacity="0.749019607843" d="M28.25 6.1 L35.55 22.3 M15.0 38.6 L8.25 23.65"/><path fill="none" stroke="#f0b92b" stroke-width="0.5" d="M9.15 13.6 Q9.8 12.8 9.55 11.6 L9.1 10.55 22.05 6.35 Q24.9 5.45 26.25 7.85 L26.5 8.3 35.8 29.0 35.95 29.35 Q34.75 29.3 34.1 30.1 33.45 30.9 33.7 32.1 L34.0 32.9 20.65 37.2 Q18.8 37.8 17.65 37.0 16.8 36.4 16.3 35.2 L6.95 14.6 6.8 14.4 7.1 14.4 Q8.4 14.45 9.15 13.6"/></g><g id="c3"><path fill="#7fdbfe" stroke="none" d="M10.75 4.9 Q10.75 4.6 10.9 4.35 11.25 3.45 11.95 2.75 13.3 1.5 14.35 2.1 15.4 2.7 14.95 4.45 14.7 5.4 14.1 6.15 L13.75 6.5 Q13.1 7.15 12.35 7.35 L11.4 7.2 Q10.95 6.9 10.75 6.4 10.5 5.75 10.75 4.9 M7.5 5.9 Q7.0 5.85 6.6 5.5 6.05 5.0 5.8 4.15 L5.7 3.6 Q5.55 2.65 5.8 1.7 6.25 0.0 7.5 0.0 L7.6 0.0 Q8.85 0.0 9.3 1.7 9.55 2.65 9.4 3.6 L9.3 4.15 8.5 5.5 7.6 5.9 7.5 5.9 M4.35 4.9 Q4.6 5.75 4.35 6.4 L3.7 7.2 2.75 7.35 Q2.0 7.15 1.35 6.5 L1.0 6.15 Q0.4 5.4 0.15 4.45 -0.3 2.7 0.75 2.1 1.8 1.5 3.15 2.75 3.85 3.45 4.2 4.35 L4.35 4.9 M5.5 13.7 Q4.45 13.9 3.65 12.95 2.75 12.0 3.2 10.25 3.7 8.5 5.25 7.6 6.4 6.9 7.55 7.0 8.75 6.9 9.9 7.6 11.45 8.5 11.95 10.25 12.35 12.0 11.5 12.95 10.7 13.9 9.65 13.7 8.55 13.5 7.55 12.6 6.55 13.5 5.5 13.7"/></g><g id="c4"><g><use transform="matrix(1.0,0.0,0.0,1.0,0.0,0.0)" xlink:href="#c3"/></g></g><radialGradient gradientUnits="userSpaceOnUse" r="819.2" cx="0" cy="0" spreadMethod="pad" gradientTransform="matrix(0.0914459228516,0.0,0.0,0.0914459228516,0.6,3.4)" id="gradient1"><stop offset="0.0" stop-color="#ffffff"/><stop offset="1.0" stop-color="#ffffff" stop-opacity="0.0"/></radialGradient><g id="c5"><path stroke="none" fill="url(#gradient1)" d="M36.65 -54.65 Q60.05 -42.0 69.75 -17.95 80.55 8.9 68.0 34.1 55.45 59.35 26.8 68.2 -1.8 77.05 -29.7 64.3 -57.6 51.6 -68.45 24.75 -79.3 -2.05 -66.75 -27.25 L-66.7 -27.3 Q-54.1 -52.5 -25.5 -61.4 3.1 -70.2 31.0 -57.5 L36.65 -54.65"/></g><g id="c6"><g><use transform="matrix(1.0,0.0,0.0,1.0,0.0,0.0)" xlink:href="#c5"/></g></g><radialGradient gradientUnits="userSpaceOnUse" r="819.2" cx="0" cy="0" spreadMethod="pad" gradientTransform="matrix(0.209197998047,0.0,0.0,0.177108764648,67.15,107.2)" id="gradient2"><stop offset="0.356862745098" stop-color="#ffffff"/><stop offset="0.670588235294" stop-opacity="0.0"/></radialGradient><g id="c7"><path fill="none" stroke-linejoin="round" stroke-linecap="round" stroke="url(#gradient2)" stroke-width="0.5" d="M136.55 165.8 L68.6 106.0 68.4 106.0 118.25 201.5 M68.3 105.8 L68.35 105.8 68.3 105.8 68.3 105.85 68.4 106.0 68.3 106.0 86.55 211.5 M68.3 105.8 L68.3 105.85 68.3 106.0 68.15 105.95 18.25 151.55 M68.3 105.85 L68.25 105.85 68.3 106.0 50.0 193.2 M68.25 105.85 L68.15 105.95 0.05 97.7 M68.3 105.85 L68.25 105.8 68.25 105.85 M68.25 105.8 L68.2 105.7 0.0 45.7 M68.3 105.8 L68.25 105.75 68.25 105.8 M68.25 105.75 L68.2 105.7 18.25 10.05 M68.6 106.0 L68.35 105.8 118.25 60.15 M86.6 18.35 L68.3 105.8 M136.6 114.25 L68.6 106.0 M68.25 105.75 L49.95 0.05"/></g><g id="c8"><g><use transform="matrix(1.0,0.0,0.0,1.0,0.0,0.0)" xlink:href="#c7"/></g></g><g id="c9"><g><use transform="matrix(1.0,0.0,0.0,1.0,0.0,0.0)" xlink:href="#c2"/></g><g><use transform="matrix(0.238861083984,-0.0867004394531,0.10026550293,0.233917236328,34.25,31.15)" xlink:href="#c4"/></g><g><use transform="matrix(0.238861083984,-0.0867004394531,0.10026550293,0.233917236328,4.25,10.3)" xlink:href="#c4"/></g><g><use transform="matrix(0.141098022461,-0.0378112792969,0.111373901367,0.225646972656,20.25,20.65)" filter="url(#filter7)" xlink:href="#c6"/></g><g><use transform="matrix(-0.155029296875,0.0513153076172,0.0841827392578,0.147033691406,22.6,3.15)" filter="url(#filter8)" xlink:href="#c8"/></g></g><filter id="filter7"><feColorMatrix in="SourceGraphic" type="matrix" values="0.0 0.0 0.0 0.0 0.796875 0.0 0.0 0.0 0.0 0.59765625 0.0 0.0 0.0 0.0 0.19921875 0.0 0.0 0.0 1.0 0.0" result="cxform"/><feComposite operator="in" in2="SourceGraphic" result="color-xform"/></filter><filter id="filter8"><feColorMatrix in="SourceGraphic" type="matrix" values="0.0 0.0 0.0 0.0 0.99609375 0.0 0.0 0.0 0.0 0.99609375 0.0 0.0 0.0 0.0 0.99609375 0.0 0.0 0.0 1.0 0.0" result="cxform"/><feComposite operator="in" in2="SourceGraphic" result="color-xform"/></filter><linearGradient gradientUnits="userSpaceOnUse" x1="-819.2" x2="819.2" spreadMethod="pad" gradientTransform="matrix(0.00331115722656,-0.0222320556641,0.00375366210938,-0.00164794921875,67.1,43.05)" id="gradient3"><stop offset="0.0" stop-color="#38321d" stop-opacity="0.572549019608"/><stop offset="1.0" stop-color="#3e3720" stop-opacity="0.0"/></linearGradient><linearGradient gradientUnits="userSpaceOnUse" x1="-819.2" x2="819.2" spreadMethod="pad" gradientTransform="matrix(0.0224761962891,-0.00540161132812,0.00273132324219,0.00250244140625,72.75,63.9)" id="gradient4"><stop offset="0.0" stop-color="#38321d" stop-opacity="0.572549019608"/><stop offset="1.0" stop-color="#3e3720" stop-opacity="0.0"/></linearGradient><linearGradient gradientUnits="userSpaceOnUse" x1="-819.2" x2="819.2" spreadMethod="pad" gradientTransform="matrix(0.0121612548828,-0.0139617919922,0.0035400390625,0.00067138671875,68.55,56.15)" id="gradient5"><stop offset="0.0" stop-color="#38321d" stop-opacity="0.572549019608"/><stop offset="1.0" stop-color="#3e3720" stop-opacity="0.0"/></linearGradient><g id="c10"><path fill="#4f1111" stroke="none" d="M113.5 23.95 L112.2 26.05 Q108.45 29.85 107.05 30.55 105.65 31.4 104.25 31.4 103.0 31.65 101.6 30.55 99.9 28.6 100.05 26.35 100.05 24.8 99.05 22.45 L98.1 20.35 97.4 18.8 95.55 15.15 Q94.45 12.35 94.85 9.55 L95.4 6.6 Q95.7 9.7 97.25 12.2 98.65 14.75 100.75 16.85 L105.2 20.6 Q107.45 22.45 110.7 23.4 L113.5 23.95"/><path fill="#c22a2a" stroke="none" d="M95.4 5.65 L95.4 6.6 94.85 9.55 Q94.45 12.35 95.55 15.15 L97.4 18.8 98.1 20.35 Q93.2 24.95 91.5 23.15 88.3 20.2 77.8 25.5 71.9 28.45 61.15 35.05 74.85 21.75 79.45 17.65 90.95 7.05 95.4 5.65"/><path fill="#871d1d" stroke="none" d="M112.2 26.05 L109.55 29.3 109.4 29.45 109.3 29.7 107.6 31.55 Q105.2 33.65 95.7 44.15 L88.45 51.95 72.45 51.85 72.45 54.35 Q65.75 51.7 61.15 47.9 59.45 46.25 58.35 43.55 L57.05 38.55 57.05 38.25 57.35 38.1 57.65 37.7 57.9 37.25 Q59.3 35.45 65.9 29.85 L76.8 18.95 Q84.65 10.4 86.05 9.55 90.1 7.05 93.05 5.65 94.45 4.95 95.7 4.5 L95.4 5.65 Q90.95 7.05 79.45 17.65 74.85 21.75 61.15 35.05 71.9 28.45 77.8 25.5 88.3 20.2 91.5 23.15 93.2 24.95 98.1 20.35 L99.05 22.45 Q100.05 24.8 100.05 26.35 99.9 28.6 101.6 30.55 103.0 31.65 104.25 31.4 105.65 31.4 107.05 30.55 108.45 29.85 112.2 26.05 M57.05 38.55 L57.35 38.1 57.05 38.55 M107.6 31.55 L109.4 29.45 107.6 31.55"/><path fill="none" stroke="#382510" stroke-width="1.0" stroke-opacity="0.301960784314" d="M113.5 23.95 L112.2 26.05 109.55 29.3 109.4 29.45 109.3 29.7 107.6 31.55 Q105.2 33.65 95.7 44.15 L88.45 51.95 M109.4 29.45 L107.6 31.55"/><path fill="none" stroke="#000000" stroke-width="1.0" stroke-opacity="0.301960784314" d="M57.05 38.55 L57.05 38.25 M57.9 37.25 Q59.3 35.45 65.9 29.85 L76.8 18.95 Q84.65 10.4 86.05 9.55 90.1 7.05 93.05 5.65 94.45 4.95 95.7 4.5 M57.35 38.1 L57.05 38.55"/><path fill="#871d1d" stroke="none" d="M113.6 19.05 L113.75 19.5 Q115.15 24.1 112.5 26.05 111.25 26.9 109.4 26.9 107.9 26.9 106.5 26.35 103.1 25.5 100.9 23.7 L96.55 19.9 Q94.6 17.8 93.05 15.45 91.5 12.65 91.35 9.55 L91.35 8.55 Q91.35 8.0 91.65 7.6 92.05 5.9 93.3 4.8 95.15 3.4 98.1 3.65 93.75 4.8 93.6 8.45 93.75 10.65 94.7 12.65 97.5 17.1 103.95 21.75 113.6 27.45 113.6 19.05 M109.3 18.8 Q109.85 18.1 109.15 16.7 L108.7 15.85 Q107.45 13.75 104.65 11.5 102.0 9.25 99.5 8.3 L99.35 8.3 96.4 8.45 Q96.1 7.6 96.4 6.9 97.65 5.35 100.05 6.05 L102.3 7.15 Q103.95 8.0 107.05 10.95 109.85 13.6 111.1 15.7 112.2 17.8 111.5 18.65 L109.3 18.8"/><path fill="#2f0100" stroke="none" d="M96.4 8.45 L99.35 8.3 99.5 8.3 Q102.0 9.25 104.65 11.5 107.45 13.75 108.7 15.85 L109.15 16.7 Q109.85 18.1 109.3 18.8 L107.3 18.1 Q104.65 16.95 101.45 14.3 98.9 12.2 97.25 10.25 L96.8 9.55 96.4 8.45"/><path fill="#c22a2a" stroke="none" d="M113.6 19.05 Q113.6 27.45 103.95 21.75 97.5 17.1 94.7 12.65 93.75 10.65 93.6 8.45 93.75 4.8 98.1 3.65 98.8 3.8 99.75 4.25 101.15 4.65 102.4 5.5 105.35 7.3 108.15 10.25 112.35 14.75 113.6 19.05 M109.3 18.8 L111.5 18.65 Q112.2 17.8 111.1 15.7 109.85 13.6 107.05 10.95 103.95 8.0 102.3 7.15 L100.05 6.05 Q97.65 5.35 96.4 6.9 96.1 7.6 96.4 8.45 L96.8 9.55 97.25 10.25 Q98.9 12.2 101.45 14.3 104.65 16.95 107.3 18.1 L109.3 18.8"/><path fill="none" stroke="#000000" stroke-width="1.0" stroke-opacity="0.301960784314" d="M109.4 26.9 Q111.25 26.9 112.5 26.05 115.15 24.1 113.75 19.5 L113.6 19.05 Q112.35 14.75 108.15 10.25 105.35 7.3 102.4 5.5 101.15 4.65 99.75 4.25 98.8 3.8 98.1 3.65 95.15 3.4 93.3 4.8 92.05 5.9 91.65 7.6 91.35 8.0 91.35 8.55 L91.35 9.55 M96.4 8.45 L99.35 8.3 99.5 8.3 Q102.0 9.25 104.65 11.5 107.45 13.75 108.7 15.85 L109.15 16.7 Q109.85 18.1 109.3 18.8 L111.5 18.65 M96.4 6.9 Q96.1 7.6 96.4 8.45 L96.8 9.55 97.25 10.25 Q98.9 12.2 101.45 14.3 104.65 16.95 107.3 18.1 L109.3 18.8"/><path fill="#c22a2a" stroke="none" d="M57.75 6.6 L58.2 7.15 59.05 9.25 Q60.0 11.35 61.7 12.65 L64.2 14.05 65.2 14.6 Q64.65 19.75 62.95 19.35 60.15 19.05 55.1 35.3 53.7 39.35 51.35 47.9 L48.65 56.85 Q49.65 46.95 52.6 29.55 55.95 9.7 57.75 6.6"/><path fill="#4f1111" stroke="none" d="M58.2 7.15 Q59.6 9.0 61.4 9.95 63.25 10.8 65.05 11.25 L68.85 11.5 Q70.8 11.65 72.75 10.8 73.85 10.4 74.55 9.55 L74.85 11.5 74.7 12.75 Q74.45 15.85 74.0 16.85 73.6 18.1 72.9 18.8 72.2 19.5 71.05 19.35 69.4 19.05 68.55 17.4 68.15 16.55 66.6 15.45 L65.2 14.6 64.2 14.05 61.7 12.65 Q60.0 11.35 59.05 9.25 L58.2 7.15"/><path fill="#871d1d" stroke="none" d="M74.7 12.75 L74.7 15.0 74.7 15.3 74.55 17.4 71.9 38.55 69.1 58.15 68.85 59.25 68.55 59.65 68.55 59.8 Q68.4 60.25 67.85 60.25 L67.85 60.35 67.7 60.35 67.45 60.5 67.3 60.5 67.15 60.65 Q59.75 64.15 54.0 63.75 50.5 63.45 47.85 60.95 47.85 61.2 47.7 60.95 L47.85 60.65 47.85 60.25 47.85 59.95 Q47.95 58.0 48.95 51.55 L51.75 31.55 Q54.25 14.85 54.7 13.45 55.65 9.95 56.5 7.75 L57.5 5.75 57.75 6.6 Q55.95 9.7 52.6 29.55 49.65 46.95 48.65 56.85 L51.35 47.9 Q53.7 39.35 55.1 35.3 60.15 19.05 62.95 19.35 64.65 19.75 65.2 14.6 L66.6 15.45 Q68.15 16.55 68.55 17.4 69.4 19.05 71.05 19.35 72.2 19.5 72.9 18.8 73.6 18.1 74.0 16.85 74.45 15.85 74.7 12.75 M47.85 60.65 L47.85 60.95 47.85 60.65"/><path fill="#2f0100" stroke="none" d="M67.7 60.35 L67.55 60.5 67.15 60.65 67.3 60.5 67.45 60.5 67.7 60.35"/><path fill="none" stroke="#382510" stroke-width="1.0" stroke-opacity="0.301960784314" d="M74.7 12.75 L74.7 15.0 74.7 15.3 74.55 17.4 71.9 38.55 69.1 58.15 68.85 59.25 68.55 59.65 68.55 59.8 Q68.4 60.25 67.85 60.25 M47.85 60.65 L47.85 60.25 47.85 59.95 Q47.95 58.0 48.95 51.55 L51.75 31.55 Q54.25 14.85 54.7 13.45 55.65 9.95 56.5 7.75 L57.5 5.75 57.75 6.6 Q55.95 9.7 52.6 29.55 49.65 46.95 48.65 56.85 L51.35 47.9 Q53.7 39.35 55.1 35.3 60.15 19.05 62.95 19.35 64.65 19.75 65.2 14.6 M66.6 15.45 L65.2 14.6 M47.85 60.95 L47.85 60.65"/><path fill="none" stroke="#000000" stroke-width="1.0" stroke-opacity="0.301960784314" d="M47.85 60.95 Q47.85 61.2 47.7 60.95 L47.85 60.65"/><path fill="#871d1d" stroke="none" d="M73.0 3.4 L73.3 3.65 74.0 4.35 Q75.8 6.35 75.4 8.3 75.1 9.55 74.15 10.4 L72.3 11.5 Q70.35 12.35 68.4 12.2 L64.6 11.95 Q62.65 11.5 61.0 10.65 59.15 9.7 57.75 7.85 L57.35 7.3 57.05 6.6 Q56.65 5.5 56.8 4.35 L56.8 3.95 Q57.2 2.15 58.9 1.15 57.6 2.85 57.9 4.35 57.9 5.2 58.45 6.05 59.3 7.45 60.7 8.15 63.9 9.7 69.25 9.55 75.8 8.85 73.6 4.35 L73.0 3.4 M70.8 5.35 L70.2 4.35 69.8 3.95 69.25 3.65 Q67.7 2.95 65.3 2.95 L61.4 3.25 Q60.4 3.8 60.15 4.35 59.85 4.65 59.85 4.95 L59.6 4.35 59.15 3.65 Q59.3 2.25 60.7 1.7 61.25 1.45 62.4 1.15 L66.3 1.45 Q68.95 1.7 70.35 2.4 71.75 3.25 71.9 4.25 L71.75 4.35 70.8 5.35"/><path fill="#c22a2a" stroke="none" d="M73.0 3.4 L73.6 4.35 Q75.8 8.85 69.25 9.55 63.9 9.7 60.7 8.15 59.3 7.45 58.45 6.05 57.9 5.2 57.9 4.35 57.6 2.85 58.9 1.15 L59.85 0.45 61.8 0.05 66.7 0.45 Q70.5 1.15 73.0 3.4 M70.8 5.35 L71.75 4.35 71.9 4.25 Q71.75 3.25 70.35 2.4 68.95 1.7 66.3 1.45 L62.4 1.15 Q61.25 1.45 60.7 1.7 59.3 2.25 59.15 3.65 L59.6 4.35 59.85 4.95 60.55 5.35 61.1 5.5 Q62.65 6.2 64.9 6.35 67.4 6.45 69.5 5.75 L70.8 5.35"/><path fill="#2f0100" stroke="none" d="M59.85 4.95 Q59.85 4.65 60.15 4.35 60.4 3.8 61.4 3.25 L65.3 2.95 Q67.7 2.95 69.25 3.65 L69.8 3.95 70.2 4.35 70.8 5.35 69.5 5.75 Q67.4 6.45 64.9 6.35 62.65 6.2 61.1 5.5 L60.55 5.35 59.85 4.95"/><path fill="none" stroke="#000000" stroke-width="1.0" stroke-opacity="0.301960784314" d="M74.15 10.4 Q75.1 9.55 75.4 8.3 75.8 6.35 74.0 4.35 L73.3 3.65 73.0 3.4 Q70.5 1.15 66.7 0.45 L61.8 0.05 59.85 0.45 58.9 1.15 Q57.2 2.15 56.8 3.95 L56.8 4.35 Q56.65 5.5 57.05 6.6 L57.35 7.3 57.75 7.85 M59.85 4.95 Q59.85 4.65 60.15 4.35 60.4 3.8 61.4 3.25 L65.3 2.95 Q67.7 2.95 69.25 3.65 L69.8 3.95 70.2 4.35 70.8 5.35 71.75 4.35 71.9 4.25 M59.15 3.65 L59.6 4.35 59.85 4.95 60.55 5.35 61.1 5.5 Q62.65 6.2 64.9 6.35 67.4 6.45 69.5 5.75 L70.8 5.35"/><path stroke="none" fill="url(#gradient3)" d="M72.55 26.15 L69.9 29.25 68.75 32.3 68.15 37.0 69.0 39.95 68.8 41.15 67.2 47.3 67.9 48.95 68.15 49.95 68.9 50.65 67.5 60.0 61.3 62.75 61.95 58.75 63.2 57.45 63.25 57.05 63.55 57.05 64.0 53.75 63.6 53.75 63.6 52.7 63.85 50.75 65.0 49.35 65.25 47.5 64.85 45.85 64.0 45.1 Q67.85 32.85 66.75 26.25 L72.95 23.5 72.55 26.15"/><path fill="#871d1d" stroke="none" d="M105.5 42.65 Q101.85 42.35 81.7 46.7 64.05 50.6 54.15 53.4 L63.5 52.45 76.8 50.75 Q94.0 49.2 94.6 51.6 L99.9 51.75 99.5 53.15 98.2 55.5 Q96.95 56.9 97.1 58.3 97.5 59.3 98.35 59.55 99.2 60.0 100.3 59.85 L105.65 58.6 102.55 59.85 102.4 59.85 100.2 60.55 78.75 66.0 59.05 70.9 57.9 71.05 57.5 71.05 57.2 71.05 Q56.8 71.05 56.65 70.65 L56.5 70.65 56.35 70.5 56.25 70.5 56.1 70.35 56.1 70.2 Q50.5 65.3 49.1 60.4 48.4 57.45 49.95 54.25 L50.2 54.25 Q50.35 53.95 50.65 53.95 L50.9 53.85 59.3 51.75 79.45 46.85 Q96.25 42.65 97.65 42.5 L103.95 41.95 106.05 42.05 105.5 42.65"/><path fill="#c22a2a" stroke="none" d="M99.9 51.75 L94.6 51.6 Q94.0 49.2 76.8 50.75 L63.5 52.45 54.15 53.4 Q64.05 50.6 81.7 46.7 101.85 42.35 105.5 42.65 L104.95 43.05 104.95 43.2 Q103.95 43.9 103.25 44.75 101.6 46.25 100.9 48.1 L100.2 50.6 99.9 51.75"/><path fill="#4f1111" stroke="none" d="M105.65 58.6 L100.3 59.85 Q99.2 60.0 98.35 59.55 97.5 59.3 97.1 58.3 96.95 56.9 98.2 55.5 L99.5 53.15 99.9 51.75 100.2 50.6 100.9 48.1 Q101.6 46.25 103.25 44.75 103.95 43.9 104.95 43.2 103.55 45.0 103.25 46.85 103.0 48.5 103.1 50.35 103.55 52.3 104.1 53.7 104.5 55.25 106.05 56.65 L107.6 57.75 105.65 58.6"/><path fill="none" stroke="#382510" stroke-width="1.0" stroke-opacity="0.301960784314" d="M105.5 42.65 L106.05 42.05 103.95 41.95 97.65 42.5 Q96.25 42.65 79.45 46.85 L59.3 51.75 50.9 53.85 50.65 53.95 Q50.35 53.95 50.2 54.25 L49.95 54.25 Q48.4 57.45 49.1 60.4 50.5 65.3 56.1 70.2 L56.1 70.35 56.25 70.5 56.35 70.5 56.5 70.65 56.65 70.65 Q56.8 71.05 57.2 71.05 L57.5 71.05 57.9 71.05 59.05 70.9 78.75 66.0 100.2 60.55 102.4 59.85 102.55 59.85 105.65 58.6"/><path fill="#871d1d" stroke="none" d="M110.1 41.5 Q106.9 40.95 105.2 43.05 104.25 44.15 103.95 45.55 103.4 48.9 105.2 53.1 108.3 59.0 112.2 54.1 L112.2 54.4 Q110.8 57.45 108.3 57.75 L105.9 57.6 104.4 56.5 Q102.85 55.1 102.4 53.55 L101.45 50.2 Q101.15 48.5 101.6 46.7 101.85 44.75 103.25 43.05 L103.25 42.9 Q103.55 42.65 103.8 42.5 L104.4 41.95 Q105.5 41.1 106.75 40.8 108.6 40.55 110.1 41.5 M109.7 52.85 Q110.4 52.7 110.7 51.7 L110.8 51.0 Q110.95 49.5 110.4 47.5 109.85 45.55 108.85 44.3 107.9 43.6 106.9 43.75 107.2 43.05 107.6 42.75 109.15 42.2 110.25 43.2 L111.1 44.45 Q111.8 45.45 112.1 47.65 112.65 50.05 112.35 51.6 112.1 53.0 111.1 53.4 L109.7 52.85"/><path fill="#c22a2a" stroke="none" d="M112.2 54.1 Q108.3 59.0 105.2 53.1 103.4 48.9 103.95 45.55 104.25 44.15 105.2 43.05 106.9 40.95 110.1 41.5 L110.95 42.05 112.1 43.45 Q112.9 45.45 113.2 47.65 113.6 51.3 112.2 54.1 M109.7 52.85 L111.1 53.4 Q112.1 53.0 112.35 51.6 112.65 50.05 112.1 47.65 111.8 45.45 111.1 44.45 L110.25 43.2 Q109.15 42.2 107.6 42.75 107.2 43.05 106.9 43.75 L106.6 44.45 106.6 44.85 Q106.5 46.4 107.05 48.35 107.75 50.6 108.85 52.0 L109.7 52.85"/><path fill="#2f0100" stroke="none" d="M106.9 43.75 Q107.9 43.6 108.85 44.3 109.85 45.55 110.4 47.5 110.95 49.5 110.8 51.0 L110.7 51.7 Q110.4 52.7 109.7 52.85 L108.85 52.0 Q107.75 50.6 107.05 48.35 106.5 46.4 106.6 44.85 L106.6 44.45 106.9 43.75"/><path fill="none" stroke="#000000" stroke-width="1.0" stroke-opacity="0.301960784314" d="M110.1 41.5 Q108.6 40.55 106.75 40.8 105.5 41.1 104.4 41.95 L103.8 42.5 Q103.55 42.65 103.25 42.9 L103.25 43.05 M105.9 57.6 L108.3 57.75 Q110.8 57.45 112.2 54.4 L112.2 54.1 Q113.6 51.3 113.2 47.65 112.9 45.45 112.1 43.45 L110.95 42.05 110.1 41.5 M106.9 43.75 Q107.9 43.6 108.85 44.3 109.85 45.55 110.4 47.5 110.95 49.5 110.8 51.0 L110.7 51.7 Q110.4 52.7 109.7 52.85 L111.1 53.4 M107.6 42.75 Q107.2 43.05 106.9 43.75 L106.6 44.45 106.6 44.85 Q106.5 46.4 107.05 48.35 107.75 50.6 108.85 52.0 L109.7 52.85"/><path stroke="none" fill="url(#gradient4)" d="M90.75 62.2 L87.0 61.15 83.7 61.3 79.0 62.5 76.35 64.3 75.1 64.6 68.75 65.55 67.4 66.7 66.45 67.3 66.05 68.2 56.6 70.45 52.05 66.3 56.1 65.35 57.7 65.9 58.1 65.8 58.2 66.05 61.55 65.2 61.45 64.9 62.45 64.55 64.4 64.05 66.1 64.45 67.95 63.95 69.45 63.0 69.85 62.05 Q82.9 60.75 88.9 57.45 L93.45 61.6 90.75 62.2"/><path fill="#c22a2a" stroke="none" d="M77.7 25.75 L77.7 26.25 77.7 26.35 77.45 28.35 Q77.25 30.15 78.05 31.75 78.75 33.5 79.35 34.1 L79.8 34.95 Q76.9 38.3 75.95 37.3 73.85 35.7 63.15 44.55 L54.7 51.55 Q50.25 55.65 48.85 56.6 54.0 49.95 63.75 39.4 74.9 27.0 77.7 25.75"/><path fill="#4f1111" stroke="none" d="M77.7 26.35 Q77.95 28.35 78.85 29.95 79.8 31.3 81.2 32.65 L83.85 34.6 Q85.25 35.6 87.25 35.95 L89.0 36.1 88.15 37.55 85.4 40.85 Q84.55 41.5 83.75 41.6 82.95 41.85 82.15 41.25 80.95 40.25 81.1 38.65 81.1 37.65 80.4 36.2 L79.8 34.95 79.35 34.1 Q78.75 33.5 78.05 31.75 77.25 30.15 77.45 28.35 L77.7 26.35"/><path fill="#871d1d" stroke="none" d="M88.15 37.55 L86.8 39.9 86.8 40.0 86.65 40.15 85.6 41.35 Q82.95 44.95 74.35 55.0 L63.65 67.45 63.05 68.15 Q62.8 68.15 62.7 68.3 L62.45 68.4 61.9 68.3 61.8 68.3 Q61.65 68.15 61.45 68.3 L61.45 68.15 Q61.3 68.15 61.3 68.3 L61.2 68.15 Q54.1 67.05 49.9 64.0 47.45 62.0 46.55 58.95 L46.55 58.8 46.65 58.8 46.9 58.45 47.0 58.2 Q47.8 56.85 51.45 52.9 L62.25 40.25 Q71.3 29.7 72.25 29.05 L76.2 26.0 Q77.0 25.4 77.7 25.15 L77.7 25.75 Q74.9 27.0 63.75 39.4 54.0 49.95 48.85 56.6 50.25 55.65 54.7 51.55 L63.15 44.55 Q73.85 35.7 75.95 37.3 76.9 38.3 79.8 34.95 L80.4 36.2 Q81.1 37.65 81.1 38.65 80.95 40.25 82.15 41.25 82.95 41.85 83.75 41.6 84.55 41.5 85.4 40.85 L88.15 37.55 M46.65 58.8 L46.55 58.95 46.65 58.8"/><path fill="#2f0100" stroke="none" d="M61.45 68.3 L61.3 68.3 Q61.3 68.15 61.45 68.15 L61.45 68.3"/><path fill="none" stroke="#382510" stroke-width="1.0" stroke-opacity="0.301960784314" d="M88.15 37.55 L86.8 39.9 86.8 40.0 86.65 40.15 85.6 41.35 Q82.95 44.95 74.35 55.0 L63.65 67.45 63.05 68.15 Q62.8 68.15 62.7 68.3 L62.45 68.4 61.9 68.3 61.8 68.3 M61.3 68.3 L61.2 68.15 Q54.1 67.05 49.9 64.0 47.45 62.0 46.55 58.95 L46.65 58.8 46.9 58.45 47.0 58.2 Q47.8 56.85 51.45 52.9 L62.25 40.25 Q71.3 29.7 72.25 29.05 L76.2 26.0 Q77.0 25.4 77.7 25.15 L77.7 25.75 Q74.9 27.0 63.75 39.4 54.0 49.95 48.85 56.6 50.25 55.65 54.7 51.55 L63.15 44.55 Q73.85 35.7 75.95 37.3 76.9 38.3 79.8 34.95 L80.4 36.2 Q81.1 37.65 81.1 38.65 80.95 40.25 82.15 41.25 82.95 41.85 83.75 41.6 84.55 41.5 85.4 40.85 L88.15 37.55 M61.45 68.3 L61.45 68.15 Q61.3 68.15 61.3 68.3"/><path fill="none" stroke="#000000" stroke-width="1.0" stroke-opacity="0.301960784314" d="M89.0 36.1 L88.15 37.55 M61.8 68.3 Q61.65 68.15 61.45 68.3 L61.3 68.3 M46.55 58.95 L46.55 58.8 46.65 58.8"/><path fill="#871d1d" stroke="none" d="M89.8 31.5 L89.85 31.75 Q90.8 34.55 89.35 36.0 88.7 36.7 87.5 36.85 L85.75 36.75 Q83.85 36.35 82.45 35.4 L79.75 33.3 Q78.5 32.15 77.5 30.65 76.5 29.05 76.3 27.15 L76.25 27.05 76.3 26.5 76.35 25.85 Q76.6 24.7 77.3 23.95 78.4 22.9 80.05 22.9 77.5 23.95 77.6 26.25 77.75 27.55 78.4 28.8 80.2 31.5 84.2 33.9 90.05 36.9 89.8 31.5 M79.25 26.1 L79.2 25.0 Q79.8 23.95 81.3 24.25 L82.7 24.8 Q83.7 25.2 85.55 26.75 87.35 28.25 88.15 29.5 88.9 30.8 88.45 31.45 L87.2 31.65 Q87.5 31.15 87.05 30.35 L86.8 29.85 Q85.95 28.6 84.25 27.35 82.6 26.15 81.05 25.7 L81.0 25.65 Q79.75 25.5 79.25 26.05 L79.25 26.1"/><path fill="#2f0100" stroke="none" d="M87.2 31.65 L86.05 31.4 Q84.3 30.85 82.4 29.45 80.75 28.3 79.8 27.05 L79.55 26.7 79.25 26.1 79.25 26.05 Q79.75 25.5 81.0 25.65 L81.05 25.7 Q82.6 26.15 84.25 27.35 85.95 28.6 86.8 29.85 L87.05 30.35 Q87.5 31.15 87.2 31.65"/><path fill="#c22a2a" stroke="none" d="M89.8 31.5 Q90.05 36.9 84.2 33.9 80.2 31.5 78.4 28.8 77.75 27.55 77.6 26.25 77.5 23.95 80.05 22.9 L81.05 23.05 82.7 23.6 Q84.55 24.6 86.25 26.25 88.85 28.75 89.8 31.5 M79.25 26.1 L79.55 26.7 79.8 27.05 Q80.75 28.3 82.4 29.45 84.3 30.85 86.05 31.4 L87.2 31.65 88.45 31.45 Q88.9 30.8 88.15 29.5 87.35 28.25 85.55 26.75 83.7 25.2 82.7 24.8 L81.3 24.25 Q79.8 23.95 79.2 25.0 L79.25 26.1"/><path fill="none" stroke="#000000" stroke-width="1.0" stroke-opacity="0.301960784314" d="M87.5 36.85 Q88.7 36.7 89.35 36.0 90.8 34.55 89.85 31.75 L89.8 31.5 Q88.85 28.75 86.25 26.25 84.55 24.6 82.7 23.6 L81.05 23.05 80.05 22.9 Q78.4 22.9 77.3 23.95 76.6 24.7 76.35 25.85 L76.3 26.5 76.25 27.05 76.3 27.15 M87.2 31.65 L86.05 31.4 Q84.3 30.85 82.4 29.45 80.75 28.3 79.8 27.05 L79.55 26.7 79.25 26.1 79.2 25.0 M88.45 31.45 L87.2 31.65 Q87.5 31.15 87.05 30.35 L86.8 29.85 Q85.95 28.6 84.25 27.35 82.6 26.15 81.05 25.7 L81.0 25.65 Q79.75 25.5 79.25 26.05 L79.25 26.1"/><path stroke="none" fill="url(#gradient5)" d="M80.1 46.95 L76.7 47.8 74.55 49.4 72.05 52.4 71.35 54.9 70.7 55.65 66.8 59.15 66.65 60.65 66.4 61.5 66.65 62.35 61.6 68.15 55.7 67.1 57.95 64.6 59.4 64.3 59.6 64.05 59.85 64.2 61.65 62.1 61.35 61.9 61.8 61.15 62.8 59.95 64.3 59.5 65.25 58.3 65.7 56.95 65.35 56.05 Q73.6 49.3 75.65 44.25 L81.55 45.3 80.1 46.95"/><path fill="#9a7016" stroke="none" d="M30.15 93.25 L31.6 92.75 37.5 99.15 30.9 100.45 25.8 104.45 24.5 105.5 22.85 104.45 21.4 103.25 30.15 93.25 M34.6 88.35 L34.85 87.8 41.8 79.9 42.6 80.35 46.45 84.35 43.25 85.85 38.1 91.45 35.6 89.25 35.45 89.2 34.6 88.35"/><path fill="#c4911a" stroke="none" d="M37.5 99.15 L39.2 101.05 36.75 104.45 25.8 104.45 30.9 100.45 37.5 99.15 M38.1 91.45 L43.25 85.85 46.45 84.35 48.0 86.85 44.8 90.6 38.25 91.5 38.1 91.45"/><path fill="#ffcc00" stroke="none" d="M36.75 104.45 L32.45 108.45 30.25 109.1 24.5 105.5 25.8 104.45 36.75 104.45 M44.8 90.6 L43.1 92.65 41.2 92.95 38.25 91.5 44.8 90.6"/><path fill="none" stroke="#382510" stroke-width="1.0" stroke-opacity="0.301960784314" d="M30.15 93.25 L31.6 92.75 37.5 99.15 39.2 101.05 36.75 104.45 32.45 108.45 30.25 109.1 24.5 105.5 22.85 104.45 21.4 103.25 M34.6 88.35 L35.45 89.2 M35.6 89.25 L38.1 91.45 M46.45 84.35 L42.6 80.35 41.8 79.9 M38.25 91.5 L41.2 92.95 43.1 92.65 44.8 90.6 48.0 86.85 46.45 84.35 M38.25 91.5 L38.1 91.45"/><path fill="#c4911a" stroke="none" d="M44.35 83.25 L34.65 92.95 34.25 93.4 18.6 109.05 14.25 104.65 44.85 74.1 44.9 58.6 46.5 57.05 50.85 61.45 51.2 69.3 Q50.7 76.55 44.35 83.25"/><path fill="#9a7016" stroke="none" d="M50.85 61.45 L58.15 68.7 57.8 69.8 51.45 76.15 44.35 83.25 Q50.7 76.55 51.2 69.3 L50.85 61.45"/><path fill="#ffcc00" stroke="none" d="M14.25 104.65 L8.3 98.7 9.95 93.6 44.9 58.6 44.85 74.1 14.25 104.65"/><path fill="none" stroke="#382510" stroke-width="1.0" stroke-opacity="0.301960784314" d="M44.35 83.25 L34.65 92.95 34.25 93.4 18.6 109.05 14.25 104.65 8.3 98.7 9.95 93.6 44.9 58.6 46.5 57.05 M58.15 68.7 L57.8 69.8 51.45 76.15 44.35 83.25"/><path fill="#fefd9a" fill-opacity="0.6" d="M27.6 78.5 L32.3 73.8 35.85 77.35 31.15 82.05 27.6 78.5 M21.15 92.05 L16.9 96.3 13.35 92.75 17.6 88.5 21.15 92.05"/><path fill="#fefd9a" stroke="none" d="M31.15 82.05 L21.15 92.05 17.6 88.5 27.6 78.5 31.15 82.05"/><path fill="#5c3a1b" stroke="none" d="M47.95 59.75 L47.5 59.1 45.1 55.4 Q46.5 49.85 53.45 46.95 59.9 51.6 65.1 57.55 66.75 62.4 60.8 65.65 55.9 67.15 47.95 59.75"/><path fill="#422513" stroke="none" d="M47.95 59.75 Q55.9 67.15 60.8 65.65 66.75 62.4 65.1 57.55 L69.05 62.5 Q66.1 68.05 60.6 70.95 52.95 66.3 47.95 59.75"/><path fill="none" stroke="#382510" stroke-width="1.0" stroke-opacity="0.4" d="M65.1 57.55 Q59.9 51.6 53.45 46.95 46.5 49.85 45.1 55.4 L47.5 59.1 M47.95 59.75 Q52.95 66.3 60.6 70.95 66.1 68.05 69.05 62.5 L65.1 57.55"/><path fill="#9a7016" stroke="none" d="M52.85 49.4 Q54.7 49.15 55.75 50.2 56.85 51.3 56.55 53.1 56.25 55.0 54.75 56.5 53.25 58.0 51.4 58.25 49.55 58.6 48.45 57.5 47.4 56.45 47.7 54.55 48.0 52.75 49.5 51.25 51.0 49.75 52.85 49.4"/><path fill="#fcf3d8" fill-opacity="0.301960784314" d="M32.25 85.5 Q33.6 84.1 33.6 82.15 33.6 80.25 32.25 78.9 31.4 78.05 30.35 77.75 28.85 76.25 28.6 73.4 28.65 76.75 27.5 77.8 26.5 78.15 25.7 78.95 24.35 80.3 24.3 82.2 24.3 84.0 25.55 85.4 L25.65 85.5 25.15 87.3 26.65 86.25 Q27.7 86.85 28.95 86.85 30.15 86.8 31.2 86.2 L34.25 88.4 32.25 85.5 M31.0 82.4 Q31.05 83.35 30.35 84.05 29.7 84.7 28.75 84.75 27.8 84.7 27.1 84.05 26.4 83.35 26.4 82.4 26.4 81.45 27.1 80.8 27.75 80.1 28.75 80.15 29.65 80.1 30.35 80.75 31.05 81.45 31.0 82.4"/><path fill="#fcf3d8" stroke="none" d="M31.0 82.4 Q31.05 81.45 30.35 80.75 29.65 80.1 28.75 80.15 27.75 80.1 27.1 80.8 26.4 81.45 26.4 82.4 26.4 83.35 27.1 84.05 27.8 84.7 28.75 84.75 29.7 84.7 30.35 84.05 31.05 83.35 31.0 82.4"/><path fill="#fcf3d8" stroke="none" d="M29.3 81.05 L35.0 76.9 30.2 81.85 31.8 86.75 28.75 83.45 19.9 90.1 27.75 82.1 19.6 66.6 29.3 81.05"/></g><g id="c11"><g><use transform="matrix(1.0,0.0,0.0,1.0,0.0,0.0)" xlink:href="#c10"/></g></g><g id="c12"><g><use transform="matrix(1.0,0.0,0.0,1.0,6.3,53.35)" xlink:href="#c9"/></g><g><use transform="matrix(-0.1533203125,0.0513305664062,0.0647583007812,0.1474609375,33.3,63.35)" xlink:href="#c11"/></g><g><use transform="matrix(0.141098022461,-0.0378112792969,0.111373901367,0.225646972656,27.2,74.05)" filter="url(#filter12)" xlink:href="#c6"/></g></g><filter id="filter12"><feColorMatrix in="SourceGraphic" type="matrix" values="1.0 0.0 0.0 0.0 0.0 0.0 1.0 0.0 0.0 0.0 0.0 0.0 1.0 0.0 0.0 0.0 0.0 0.0 0.23046875 0.0" result="cxform"/><feComposite operator="in" in2="SourceGraphic" result="color-xform"/></filter></defs><g><g><use transform="matrix(1.0,0.0,0.0,1.0,0.0,0.0)" xlink:href="#c1"/></g><g><use transform="matrix(1.15496826172,0.0,0.0,1.15496826172,-1.5,-57.15)" xlink:href="#c12"/></g></g></svg>