<?xml version='1.0' encoding='UTF-8'?>
<svg xmlns:xlink="http://www.w3.org/1999/xlink" xmlns="http://www.w3.org/2000/svg" version="1.1" width="60px" height="60px" viewBox="0.0 0.0 60.0 60.0"><defs><g id="c1"/><g id="c2"><path fill="#a89d67" stroke="none" d="M-9.5 -4.2 L-9.75 -4.6 -8.45 -6.85 -7.0 -8.4 -6.95 -8.4 -4.85 -9.75 Q-4.5 -10.0 -3.35 -8.4 L-2.45 -6.55 Q-2.0 -5.3 -2.05 -4.15 L-2.1 -4.15 Q-2.95 -4.55 -3.1 -6.3 L-3.75 -5.7 -4.5 -3.95 -3.95 -3.05 Q-4.75 -2.7 -5.5 -2.5 L-5.35 -4.0 Q-6.35 -3.35 -7.0 -3.25 L-7.45 -3.2 Q-7.1 -4.35 -7.2 -5.25 L-7.6 -4.85 Q-8.1 -5.35 -8.2 -6.55 -8.95 -6.3 -9.5 -4.2"/><path fill="#dbc46d" stroke="none" d="M-2.05 -4.15 L-2.1 -4.0 -2.3 -3.85 -2.1 -4.15 -2.05 -4.15"/><path fill="none" stroke="#000000" stroke-width="0.5" stroke-opacity="0.450980392157" d="M-9.5 -4.2 L-9.75 -4.6 -8.45 -6.85 -7.0 -8.4 -6.95 -8.4 -4.85 -9.75 Q-4.5 -10.0 -3.35 -8.4 L-2.45 -6.55 Q-2.0 -5.3 -2.05 -4.15 L-2.1 -4.0 -2.3 -3.85"/><path fill="#5e5e5e" stroke="none" d="M9.65 -19.15 L9.9 -18.5 10.0 -18.2 10.4 -16.25 10.45 -16.05 10.5 -13.55 10.45 -13.55 10.25 -13.6 10.35 -11.55 10.35 -10.75 10.15 -9.8 10.05 -9.55 10.0 -9.55 5.5 -10.95 5.15 -11.05 5.25 -10.95 6.3 -9.85 5.1 -10.95 4.9 -11.2 Q7.9 -13.7 8.4 -14.65 L8.75 -15.25 9.05 -16.25 9.65 -19.15 M12.9 -4.05 L13.1 -3.75 13.65 -2.9 14.0 -1.95 14.15 -1.6 14.55 1.05 14.55 1.75 14.5 2.7 14.3 2.55 13.4 1.55 11.8 0.1 11.55 0.65 Q9.9 3.45 8.0 5.5 L6.0 7.3 5.0 7.4 5.25 5.5 5.5 2.1 2.85 -0.15 1.65 -1.95 -1.25 -3.2 -1.65 -3.4 -1.35 -3.2 -2.15 -3.4 -2.5 -3.55 -3.4 -2.2 -4.5 -3.95 -3.75 -5.75 -3.1 -6.35 Q-2.9 -4.65 -2.1 -4.2 L-2.25 -3.9 -2.1 -4.05 Q-1.9 -5.3 -2.85 -6.7 L-0.85 -5.95 0.25 -5.25 1.15 -4.6 1.75 -4.05 2.9 -2.95 5.1 -0.2 5.65 -0.65 5.65 -0.75 5.75 -1.25 5.55 -2.85 5.55 -3.15 5.55 -3.35 5.5 -3.65 5.9 -2.9 6.55 -1.5 Q7.5 1.25 7.15 4.15 L7.75 3.7 10.05 1.5 11.3 -0.1 11.4 -0.25 11.65 -0.8 12.7 -1.9 12.8 -2.0 12.75 -2.15 12.9 -2.85 12.9 -4.05 M-3.4 1.8 L-5.4 1.75 -4.6 4.3 Q-6.0 3.8 -7.55 3.45 L-7.75 3.65 -6.25 7.2 -5.9 7.95 -5.75 8.3 -4.1 12.05 -4.0 12.2 -3.1 13.5 -3.15 12.25 -3.0 12.75 -2.65 13.65 -2.25 14.95 -1.0 17.9 -1.0 18.15 -3.35 15.05 -3.75 15.6 Q-4.0 14.55 -4.15 14.45 -5.4 15.65 -6.5 16.05 L-5.65 14.1 -8.9 14.25 Q-7.75 13.4 -7.3 12.4 L-5.55 12.65 -7.25 10.5 -8.4 8.35 -8.8 7.3 -9.0 6.9 -10.8 6.9 -11.55 6.95 -11.65 6.95 -13.65 3.05 -13.75 2.6 Q-14.3 0.55 -14.15 -0.7 L-13.15 -3.1 -14.55 -6.8 Q-12.65 -6.95 -11.65 -6.0 L-11.25 -5.45 -12.25 -2.9 -12.25 -2.75 Q-11.55 -2.6 -10.25 -3.15 L-10.25 -3.65 -9.3 -3.9 -9.55 -4.2 -9.5 -4.3 Q-8.9 -6.35 -8.15 -6.6 -8.05 -5.4 -7.55 -4.9 L-7.15 -5.25 Q-7.05 -4.45 -7.4 -3.3 L-7.0 -3.35 Q-6.3 -3.4 -5.35 -4.0 L-5.65 -1.8 -6.65 -1.65 Q-4.75 -0.45 -3.4 1.8 M-11.3 -6.4 L-11.0 -6.75 -10.5 -7.3 Q-6.15 -12.55 -5.25 -16.4 L-5.0 -15.8 Q-4.15 -13.65 -5.25 -10.85 L-2.2 -11.75 -2.1 -11.8 -2.1 -11.75 -1.6 -11.7 -1.8 -11.6 -3.75 -10.65 -6.05 -9.15 -6.15 -8.9 -6.8 -8.45 -7.0 -8.45 -8.4 -6.9 -11.0 -4.95 -11.3 -6.4 M11.55 9.9 L11.9 7.7 12.9 5.85 13.25 7.3 Q13.9 10.4 11.25 14.7 L10.5 11.4 11.55 9.9"/><path fill="#808080" stroke="none" d="M9.65 -19.15 L9.05 -16.25 8.75 -15.25 8.4 -14.65 Q7.9 -13.7 4.9 -11.2 L5.1 -10.95 4.7 -11.0 2.7 -10.9 1.8 -10.8 2.65 -10.65 0.55 -5.65 5.4 -3.1 5.45 -3.1 5.4 -3.6 5.55 -3.35 5.55 -3.15 5.5 -3.15 5.55 -2.85 5.75 -1.25 5.65 -0.75 5.65 -0.65 5.1 -0.2 2.9 -2.95 1.75 -4.05 1.15 -4.6 0.25 -5.25 -0.85 -5.95 -2.85 -6.7 Q-1.9 -5.3 -2.1 -4.05 L-2.25 -3.9 -2.1 -4.2 Q-2.9 -4.65 -3.1 -6.35 L-3.75 -5.75 -4.5 -3.95 -3.4 -2.2 -2.5 -3.55 -2.15 -3.4 Q-0.5 -1.9 -0.1 -0.2 L-3.5 -0.75 -3.4 1.8 Q-4.75 -0.45 -6.65 -1.65 L-5.65 -1.8 -5.35 -4.0 Q-6.3 -3.4 -7.0 -3.35 L-7.4 -3.3 Q-7.05 -4.45 -7.15 -5.25 L-7.55 -4.9 Q-8.05 -5.4 -8.15 -6.6 -8.9 -6.35 -9.5 -4.3 L-9.55 -4.2 -9.3 -3.9 -10.25 -3.65 -10.25 -3.15 Q-11.55 -2.6 -12.25 -2.75 L-12.25 -2.9 -11.25 -5.45 -11.65 -6.0 -11.3 -6.4 -11.0 -4.95 -8.4 -6.9 -7.0 -8.45 -6.8 -8.45 -6.15 -8.9 -6.05 -9.15 -3.75 -10.65 -1.8 -11.6 -1.7 -11.6 -0.35 -11.6 2.45 -12.15 3.8 -12.65 Q7.15 -14.1 8.8 -16.05 L8.95 -16.2 9.55 -19.0 9.65 -19.15 M5.25 -10.95 L5.15 -11.05 5.5 -10.95 5.25 -10.95 M10.0 -9.55 L10.05 -9.55 10.15 -9.8 10.35 -10.75 10.25 -9.55 10.8 -9.25 12.05 -8.1 Q12.9 -5.55 12.9 -4.05 L12.9 -2.85 12.75 -2.15 12.8 -2.0 12.7 -1.9 11.65 -0.8 11.4 -0.25 11.3 -0.1 10.05 1.5 11.2 0.0 11.3 -0.15 11.55 -0.8 12.7 -1.9 12.6 -2.05 12.8 -3.95 Q12.8 -5.5 11.95 -8.0 L10.7 -9.15 10.0 -9.55 M10.35 -11.55 L10.25 -13.6 10.45 -13.55 10.35 -11.55 M-4.6 4.3 L-3.75 6.15 Q-2.0 9.85 -1.25 15.1 L-1.0 17.9 -2.25 14.95 -2.65 13.65 -3.0 12.75 -3.15 12.25 -3.1 13.5 -4.0 12.2 -4.1 12.05 -5.75 8.3 -5.9 7.95 -6.25 7.2 -7.75 3.65 -7.55 3.45 Q-6.0 3.8 -4.6 4.3"/><path fill="#a6a6a6" stroke="none" d="M5.1 -10.95 L6.3 -9.85 5.25 -10.95 5.5 -10.95 10.0 -9.55 10.7 -9.15 11.95 -8.0 Q12.8 -5.5 12.8 -3.95 L12.6 -2.05 12.7 -1.9 11.55 -0.8 11.3 -0.15 11.2 0.0 10.05 1.5 7.75 3.7 7.15 4.15 Q7.5 1.25 6.55 -1.5 L5.9 -2.9 5.5 -3.65 5.55 -3.35 5.4 -3.6 5.45 -3.1 5.4 -3.1 0.55 -5.65 2.65 -10.65 1.8 -10.8 2.7 -10.9 4.7 -11.0 5.1 -10.95 M-2.2 -11.75 L-2.2 -11.8 Q4.95 -13.7 9.55 -19.1 L9.55 -19.0 8.95 -16.2 8.8 -16.05 Q7.15 -14.1 3.8 -12.65 L2.45 -12.15 -0.35 -11.6 -1.7 -11.6 -1.8 -11.6 -1.6 -11.7 -2.1 -11.75 -2.1 -11.8 -2.2 -11.75"/><path fill="#4e4021" stroke="none" d="M11.05 -13.3 L11.2 -13.45 11.1 -13.0 11.05 -13.3"/><path fill="#ffffce" stroke="none" d="M5.55 -2.85 L5.45 -3.1 5.55 -3.1 5.55 -2.85"/><path fill="none" stroke="#332720" stroke-width="0.5" stroke-opacity="0.501960784314" d="M10.45 -13.55 L10.35 -16.2 9.95 -18.15 9.6 -19.15 Q5.05 -13.75 -2.1 -11.75"/><path fill="none" stroke="#261c15" stroke-width="0.5" stroke-opacity="0.501960784314" d="M1.9 -10.85 L2.8 -10.95 4.8 -11.0 8.35 -10.3 Q9.8 -9.8 10.8 -9.15 L12.05 -8.05"/><path fill="none" stroke="#261c15" stroke-width="0.5" stroke-opacity="0.501960784314" d="M12.05 -8.05 Q12.85 -5.55 12.85 -4.0 L12.7 -2.1 12.8 -1.95 12.7 -1.8 12.7 -1.75 11.8 0.1 11.55 0.7 Q9.85 3.5 7.95 5.55 L5.95 7.35 4.95 7.45 5.2 5.55 5.45 2.15 5.6 -0.65 5.6 -0.7 5.7 -1.15 5.55 -2.85 5.45 -3.1 5.05 -4.75 3.95 -6.4"/><path fill="none" stroke="#332720" stroke-width="0.5" stroke-opacity="0.501960784314" d="M-5.25 -10.75 Q-5.6 -9.95 -6.1 -9.1 M12.85 -4.0 L14.1 -1.6 14.55 1.05 14.55 1.8 14.45 2.8 14.3 2.55 13.35 1.6 11.8 0.1 M-11.35 -6.4 L-11.0 -6.75 -10.5 -7.3 Q-6.2 -12.5 -5.25 -16.3 L-5.05 -15.75 Q-4.2 -13.6 -5.25 -10.75 M-11.7 -5.9 L-11.25 -5.35 M-11.7 -5.9 Q-12.7 -6.9 -14.6 -6.75 L-13.2 -3.05 -12.85 -2.05"/><path fill="none" stroke="#000000" stroke-width="0.5" stroke-opacity="0.301960784314" d="M5.45 2.15 L2.8 -0.1 Q2.05 -1.05 1.65 -1.85 M12.85 5.85 L13.2 7.35 Q13.85 10.45 11.2 14.75 L10.45 11.45"/><path fill="none" stroke="#000000" stroke-width="0.5" stroke-opacity="0.501960784314" d="M1.65 -1.85 L-1.3 -3.15 -1.35 -3.15 -2.2 -3.35 Q-0.55 -1.9 -0.1 -0.2 L-3.55 -0.75 -3.45 1.9 -5.45 1.8 M5.6 -0.65 L5.05 -0.15 4.65 0.1 Q3.45 -0.9 1.65 -1.85 M-10.25 -3.6 L-9.35 -3.85 -9.25 -3.85 Q-8.35 -4.25 -7.6 -4.8 -8.1 -5.35 -8.2 -6.6 -8.95 -6.25 -9.5 -4.25 M-2.1 -4.15 Q-2.95 -4.6 -3.1 -6.35 L-3.8 -5.7 -4.55 -3.9 M-7.6 -4.8 L-7.2 -5.25 Q-7.1 -4.35 -7.45 -3.25 L-7.0 -3.3 Q-6.35 -3.35 -5.35 -3.95 L-5.5 -2.5 -5.7 -1.75 M-7.45 -3.25 L-7.75 -2.4"/><path fill="none" stroke="#000000" stroke-width="0.5" stroke-opacity="0.501960784314" d="M-2.1 -11.75 L-5.25 -10.75 M-11.35 -6.4 L-11.7 -5.9 M-13.2 -3.05 L-14.2 -0.7 Q-14.35 0.55 -13.75 2.65 L-13.7 3.05 -11.7 7.05"/><path fill="none" stroke="#000000" stroke-width="0.5" stroke-opacity="0.450980392157" d="M-3.35 15.05 L-3.8 15.6 Q-4.05 14.6 -4.2 14.5 -5.45 15.7 -6.5 16.05 L-5.7 14.2 -8.95 14.35 Q-7.75 13.45 -7.35 12.45 M-5.5 -2.5 L-3.95 -3.0 M-5.45 12.85 L-5.7 14.2"/><path fill="none" stroke="#110a09" stroke-width="0.5" stroke-opacity="0.450980392157" d="M-5.45 1.8 L-4.6 4.35 -3.8 6.2 Q-2.05 9.9 -1.3 15.15 -1.1 16.45 -1.05 17.95 L-1.05 18.15 -3.35 15.05 -4.55 13.75 -5.25 13.05 -5.45 12.85 -5.6 12.7 -7.25 10.55 -8.45 8.4 -8.85 7.35 -9.0 6.95 -9.45 5.7 -9.85 4.4 M-10.85 5.1 L-9.45 5.7 M-5.6 0.35 L-5.45 1.8"/></g><g id="c3"><g><use transform="matrix(1.0,0.0,0.0,1.0,0.0,0.0)" xlink:href="#c2"/></g></g><g id="c4"><path fill="#808080" stroke="none" d="M5.65 8.35 L5.45 8.05 5.0 7.25 4.65 6.7 5.0 7.4 5.6 8.3 5.65 8.35 6.5 9.65 6.3 10.0 6.1 10.35 5.35 10.0 5.15 9.9 3.45 10.1 1.9 10.4 1.5 10.5 0.55 10.8 0.0 10.1 0.05 8.8 0.75 7.65 0.25 4.55 0.2 4.0 0.15 2.65 Q0.7 1.35 1.65 0.0 L6.75 0.3 Q7.1 0.95 7.3 3.6 L5.7 8.25 5.65 8.35"/></g><g id="c5"><g><use transform="matrix(1.0,0.0,0.0,1.0,0.0,0.0)" xlink:href="#c4"/></g></g><g id="c6"><path fill="#808080" stroke="none" d="M5.65 8.35 L5.45 8.05 5.0 7.25 4.65 6.7 5.0 7.4 5.6 8.3 5.65 8.35 6.5 9.65 6.3 10.0 6.1 10.35 5.35 10.0 5.15 9.9 3.45 10.1 1.9 10.4 1.5 10.5 0.55 10.8 0.0 10.1 0.05 8.8 0.75 7.65 0.25 4.55 0.2 4.0 0.15 2.65 Q0.7 1.35 1.65 0.0 L6.75 0.3 Q7.1 0.95 7.3 3.6 L5.7 8.25 5.65 8.35"/></g><g id="c7"><g><use transform="matrix(1.0,0.0,0.0,1.0,0.0,0.0)" xlink:href="#c6"/></g></g><radialGradient gradientUnits="userSpaceOnUse" r="819.2" cx="0" cy="0" spreadMethod="pad" gradientTransform="matrix(0.0171966552734,0.0,0.0,0.0171966552734,0.0,0.0)" id="gradient1"><stop offset="0.333333333333" stop-color="#0e171d"/><stop offset="1.0" stop-color="#101a24" stop-opacity="0.0"/></radialGradient><g id="c8"><path stroke="none" fill="url(#gradient1)" d="M10.4 -10.45 Q14.75 -6.1 14.75 0.0 14.75 6.1 10.4 10.4 6.1 14.75 0.0 14.75 -6.1 14.75 -10.45 10.4 -14.75 6.1 -14.75 0.0 -14.75 -6.1 -10.45 -10.45 -6.1 -14.75 0.0 -14.75 6.1 -14.75 10.4 -10.45"/></g><g id="c9"><g><use transform="matrix(1.0,0.0,0.0,1.0,0.0,0.0)" xlink:href="#c8"/></g></g><g id="c10"><path fill="#9b4242" stroke="none" d="M-14.25 -0.5 L-14.3 -0.45 -14.35 -0.5 -14.25 -0.5"/><path fill="#bd5c5c" stroke="none" d="M-14.3 -0.45 L-14.3 -0.35 -14.4 -0.35 -14.3 -0.45"/><path fill="#383794" stroke="none" d="M-14.35 -0.5 L-14.3 -0.45 -14.4 -0.35 -14.3 -0.35 -12.5 -0.85 Q-12.3 -0.95 -12.3 -1.3 L-12.25 -1.6 -11.7 -1.95 -11.45 -1.15 -10.35 -1.25 Q-7.65 -1.35 -6.05 -0.35 L-3.5 0.4 -0.55 0.05 0.65 0.0 -0.15 0.8 -0.9 1.2 Q-2.6 1.9 -3.9 1.95 L-6.15 1.6 -8.0 0.75 -10.25 -0.1 -11.7 -0.2 -12.15 0.95 Q-13.35 0.05 -13.95 0.0 L-15.0 0.0 -14.9 -0.25 -14.65 -0.35 -14.35 -0.5"/><path fill="#544db4" stroke="none" d="M-14.3 -0.45 L-14.25 -0.5 -12.25 -1.6 -12.3 -1.3 Q-12.3 -0.95 -12.5 -0.85 L-14.3 -0.35 -14.3 -0.45"/><path fill="none" stroke="#000000" stroke-width="0.5" stroke-opacity="0.301960784314" d="M-14.25 -0.5 L-14.35 -0.5 M-12.25 -1.6 L-14.25 -0.5 M-12.25 -1.6 L-11.7 -1.95 -11.45 -1.15 -10.35 -1.25 Q-7.65 -1.35 -6.05 -0.35 L-3.5 0.4 -0.55 0.05 0.65 0.0 -0.15 0.8 -0.9 1.2 Q-2.6 1.9 -3.9 1.95 L-6.15 1.6 -8.0 0.75 -10.25 -0.1 -11.7 -0.2 -12.15 0.95 Q-13.35 0.05 -13.95 0.0 L-15.0 0.0 -14.9 -0.25 -14.65 -0.35 -14.35 -0.5"/></g><g id="c11"><g><use transform="matrix(1.0,0.0,0.0,1.0,0.0,0.0)" xlink:href="#c10"/></g></g><g id="c12"><path fill="#4340a9" stroke="none" d="M0.0 -0.35 L0.8 -0.05 Q2.65 0.6 2.95 0.95 L2.9 1.25 2.3 1.05 2.35 1.1 2.4 1.4 Q2.95 2.3 3.3 3.6 L3.3 4.45 2.55 5.55 0.25 5.85 -0.1 5.0 -0.2 4.05 -0.35 2.15 Q-0.45 1.1 -0.9 0.15 L0.0 -0.35 M1.55 4.15 L1.25 4.9 1.45 4.95 Q1.85 4.95 2.8 4.15 L2.85 3.85 Q2.75 3.1 2.1 2.45 L1.85 2.2 1.9 2.85 1.7 4.35 1.65 4.4 1.6 4.15 1.55 4.1 1.55 4.15"/><path fill="#ae4848" stroke="none" d="M2.35 1.1 L2.8 1.7 2.4 1.4 2.35 1.1"/><path fill="#5752b8" stroke="none" d="M1.6 4.15 L1.65 4.4 1.7 4.35 1.9 2.85 1.85 2.2 2.1 2.45 Q2.75 3.1 2.85 3.85 L2.8 4.15 Q1.85 4.95 1.45 4.95 L1.25 4.9 1.55 4.15 1.6 4.15"/><path fill="#c05d5d" stroke="none" d="M1.6 4.15 L1.55 4.15 1.55 4.1 1.6 4.15"/><path fill="none" stroke="#000000" stroke-width="0.5" stroke-opacity="0.301960784314" d="M0.0 -0.35 L0.8 -0.05 Q2.65 0.6 2.95 0.95 L2.9 1.25 2.3 1.05 2.35 1.1 2.8 1.7 2.4 1.4 Q2.95 2.3 3.3 3.6 L3.3 4.45 2.55 5.55 0.25 5.85 -0.1 5.0 -0.2 4.05 -0.35 2.15 Q-0.45 1.1 -0.9 0.15 M2.35 1.1 L2.4 1.4"/><path fill="#2b2313" stroke="none" d="M-0.7 4.0 Q-0.6 2.85 -1.05 1.6 -0.3 1.1 0.9 0.8 L2.55 0.75 3.8 3.2 4.05 3.45 3.5 4.0 3.15 3.7 1.25 3.95 Q0.1 4.15 -0.65 4.5 L-0.8 4.95 -1.4 4.55 -0.7 4.0"/><path fill="none" stroke="#000000" stroke-width="0.5" stroke-opacity="0.450980392157" d="M-0.7 4.0 Q-0.6 2.85 -1.05 1.6 -0.3 1.1 0.9 0.8 L2.55 0.75 3.8 3.2 4.05 3.45 3.5 4.0 3.15 3.7 1.25 3.95 Q0.1 4.15 -0.65 4.5 L-0.8 4.95 -1.4 4.55 -0.7 4.0"/><path fill="#313a2d" stroke="none" d="M-0.6 3.8 L-0.65 1.6 0.05 1.4 -0.1 3.75 -0.6 3.8"/><path fill="#5f6540" stroke="none" d="M3.05 3.5 L1.95 3.7 0.0 4.2 0.0 4.0 1.15 3.65 2.45 3.45 Q2.65 3.0 1.15 1.05 L2.1 0.95 Q3.05 2.4 3.05 3.5"/></g><g id="c13"><g><use transform="matrix(1.0,0.0,0.0,1.0,0.0,0.0)" xlink:href="#c12"/></g></g><g id="c14"><path fill="#592626" stroke="none" d="M0.4 -0.15 L1.75 1.8 2.0 2.25 1.5 2.55 0.55 2.25 Q0.45 2.5 0.5 2.85 L0.5 3.05 0.1 3.1 -1.35 2.65 Q-1.95 2.35 -2.0 1.9 L-1.45 -0.15 0.4 -0.15"/><path fill="none" stroke="#000000" stroke-width="0.5" stroke-opacity="0.301960784314" d="M0.4 -0.15 L1.75 1.8 2.0 2.25 1.5 2.55 0.55 2.25 Q0.45 2.5 0.5 2.85 L0.5 3.05 0.1 3.1 -1.35 2.65 Q-1.95 2.35 -2.0 1.9 L-1.45 -0.15 0.4 -0.15"/></g><g id="c15"><g><use transform="matrix(1.0,0.0,0.0,1.0,0.0,0.0)" xlink:href="#c14"/></g></g><g id="c16"><path fill="#3b3b9b" stroke="none" d="M1.35 -0.8 L1.1 1.85 1.0 2.3 Q0.7 2.7 -0.15 2.7 L-0.55 2.55 -0.6 2.45 -0.75 1.75 Q-1.0 0.0 -1.3 -0.4 L1.2 -2.75 1.35 -0.8"/><path fill="none" stroke="#000000" stroke-width="0.5" stroke-opacity="0.188235294118" d="M1.35 -0.8 L1.1 1.85 1.0 2.3 Q0.7 2.7 -0.15 2.7 L-0.55 2.55 -0.6 2.45 -0.75 1.75 Q-1.0 0.0 -1.3 -0.4 L1.2 -2.75 1.35 -0.8"/></g><g id="c17"><g><use transform="matrix(1.0,0.0,0.0,1.0,0.0,0.0)" xlink:href="#c16"/></g><g><use transform="matrix(0.327331542969,-0.0489196777344,0.0608673095703,0.17170715332,-1.2,1.55)" filter="url(#filter9)" xlink:href="#c7"/></g></g><filter id="filter9"><feColorMatrix in="SourceGraphic" type="matrix" values="0.8515625 0.0 0.0 0.0 0.0 0.0 0.8515625 0.0 0.0 0.0 0.0 0.0 0.8515625 0.0 0.0 0.0 0.0 0.0 1.0 0.0" result="cxform"/><feComposite operator="in" in2="SourceGraphic" result="color-xform"/></filter><g id="c18"><path fill="#4241a7" stroke="none" d="M1.45 2.15 L1.4 2.1 Q0.8 1.0 -0.3 0.2 L-0.35 -0.35 -0.4 -0.65 Q1.65 0.3 2.9 1.55 L1.45 2.15"/><path fill="none" stroke="#000000" stroke-width="0.5" stroke-opacity="0.301960784314" d="M1.45 2.15 L1.4 2.1 Q0.8 1.0 -0.3 0.2 M-0.4 -0.65 Q1.65 0.3 2.9 1.55"/></g><g id="c19"><g><use transform="matrix(1.0,0.0,0.0,1.0,0.0,0.0)" xlink:href="#c18"/></g></g><g id="c20"><path fill="#3e3ea0" stroke="none" d="M3.65 4.95 Q3.9 6.45 3.5 7.15 L1.3 9.1 Q0.25 9.7 -0.9 9.9 -3.65 9.35 -3.75 7.7 L-1.5 -0.05 Q-0.25 -1.25 1.15 -0.75 L2.1 1.0 2.3 1.4 2.6 2.05 1.35 1.8 Q0.8 1.8 0.35 2.35 -0.3 3.35 -0.3 5.85 L-0.3 6.45 0.85 6.6 Q1.8 6.6 2.85 5.8 L3.65 4.95"/><path fill="#9292d3" stroke="none" d="M2.6 2.05 L3.5 4.25 3.65 4.95 2.85 5.8 Q1.8 6.6 0.85 6.6 L-0.3 6.45 -0.3 5.85 Q-0.3 3.35 0.35 2.35 0.8 1.8 1.35 1.8 L2.6 2.05"/><path fill="none" stroke="#000000" stroke-width="0.5" stroke-opacity="0.301960784314" d="M3.65 4.95 Q3.9 6.45 3.5 7.15 L1.3 9.1 Q0.25 9.7 -0.9 9.9 -3.65 9.35 -3.75 7.7 L-1.5 -0.05 Q-0.25 -1.25 1.15 -0.75 L2.1 1.0 2.3 1.4 2.6 2.05 3.5 4.25 3.65 4.95"/><path fill="#3f3318" stroke="none" d="M-4.25 4.6 Q-4.2 4.25 -3.3 4.0 L-3.15 4.4 -2.65 4.85 -1.8 5.1 -1.2 5.1 -1.05 5.0 Q0.15 4.4 1.25 4.0 3.0 3.4 4.6 3.65 L5.25 4.05 4.85 7.05 Q2.5 8.3 0.55 8.45 L0.65 8.7 0.25 9.5 -0.3 9.05 -0.4 8.95 -0.85 8.45 Q-1.95 7.05 -2.0 5.4 L-2.15 5.4 -2.25 5.4 -2.35 5.4 -2.75 5.3 -2.8 5.3 Q-4.1 5.1 -4.25 4.6 M-1.2 5.65 L-2.0 5.4 -1.2 5.1 -2.0 5.4 -1.2 5.65"/><path fill="#282011" stroke="none" d="M-0.85 8.45 L-1.4 8.4 -1.55 8.35 -1.75 8.3 -1.85 8.3 -2.4 8.15 -3.5 7.5 Q-4.05 7.1 -4.25 6.5 L-4.25 4.6 Q-4.1 5.1 -2.8 5.3 L-2.75 5.3 -2.35 5.4 -2.25 5.4 -2.15 5.4 -2.0 5.4 Q-1.95 7.05 -0.85 8.45"/><path fill="none" stroke="#4b3a2c" stroke-width="0.5" stroke-opacity="0.501960784314" d="M-4.25 4.6 Q-4.2 4.25 -3.3 4.0 L-3.15 4.4 -2.65 4.85 -1.8 5.1 -1.2 5.1 -1.05 5.0 Q0.15 4.4 1.25 4.0 3.0 3.4 4.6 3.65 L5.25 4.05 4.85 7.05 Q2.5 8.3 0.55 8.45 M0.25 9.5 L-0.3 9.05 -0.4 8.95 -0.85 8.45 -1.4 8.4 -1.55 8.35 -1.75 8.3 -1.85 8.3 -2.4 8.15 -3.5 7.5 Q-4.05 7.1 -4.25 6.5 L-4.25 4.6 Q-4.1 5.1 -2.8 5.3 L-2.75 5.3 -2.35 5.4 -2.25 5.4 -2.15 5.4 -2.0 5.4 -1.2 5.1 M-2.0 5.4 L-1.2 5.65 M-0.85 8.45 Q-1.95 7.05 -2.0 5.4"/><path fill="#fcc335" stroke="none" d="M2.85 3.8 L3.8 3.55 4.4 3.55 4.4 3.6 Q4.65 3.8 4.5 4.25 L4.3 4.5 3.7 8.7 3.7 8.8 2.75 9.25 2.95 8.15 2.85 7.15 2.65 5.3 2.65 5.2 2.95 4.4 2.95 4.25 2.85 3.8 M5.35 4.25 Q5.4 6.55 4.65 8.25 L4.35 8.45 4.4 8.25 4.8 5.9 4.95 5.75 Q4.85 4.95 5.35 4.25"/><path fill="#fff4cc" stroke="none" d="M3.7 8.8 L3.7 8.7 4.3 4.5 4.5 4.25 Q4.65 3.8 4.4 3.6 L4.4 3.55 5.35 3.6 5.35 4.25 Q4.85 4.95 4.95 5.75 L4.8 5.9 4.4 8.25 4.35 8.45 3.7 8.8"/><path fill="#9c5311" stroke="none" d="M2.85 3.8 L2.95 4.25 2.95 4.4 2.65 5.2 2.65 5.3 2.85 7.15 2.95 8.15 2.75 9.25 0.35 9.6 -0.7 7.75 Q-1.15 6.55 -1.2 5.6 L0.65 4.55 2.2 3.95 2.85 3.8"/><path fill="none" stroke="#4b3a2c" stroke-width="0.5" stroke-opacity="0.501960784314" d="M4.4 3.55 L3.8 3.55 2.85 3.8 2.2 3.95 0.65 4.55 -1.2 5.6 Q-1.15 6.55 -0.7 7.75 L0.35 9.6 2.75 9.25 3.7 8.8 M4.4 3.55 L5.35 3.6 5.35 4.25 Q5.4 6.55 4.65 8.25 L4.35 8.45 3.7 8.8"/><path fill="#7d6d38" stroke="none" d="M2.3 9.15 Q2.1 8.35 2.15 7.55 L2.65 5.2 2.9 4.7 4.25 4.3 4.35 4.25 3.9 6.2 3.1 8.7 3.1 8.85 2.45 9.1 2.3 9.15 M5.1 4.7 L5.1 4.9 Q5.05 6.7 4.5 8.0 L4.3 8.2 3.95 8.4 4.15 7.9 4.4 6.7 Q4.65 5.45 5.05 4.85 L5.1 4.7"/><path fill="#b39650" stroke="none" d="M4.35 4.25 L5.0 4.1 5.1 4.3 5.1 4.7 5.05 4.85 Q4.65 5.45 4.4 6.7 L4.15 7.9 3.95 8.4 3.3 8.8 3.1 8.85 3.1 8.7 3.9 6.2 4.35 4.25"/><path fill="#372513" stroke="none" d="M2.3 9.15 L0.85 9.35 -0.15 7.8 -0.5 5.85 Q0.85 5.1 2.2 4.65 L3.0 4.35 4.4 4.0 4.5 4.0 5.1 3.95 5.1 4.3 5.0 4.1 4.35 4.25 4.25 4.3 2.9 4.7 2.65 5.2 2.15 7.55 Q2.1 8.35 2.3 9.15"/><path fill="#56381f" stroke="none" d="M3.2 4.7 Q2.6 4.8 2.5 5.25 2.4 5.6 2.65 5.75 1.8 5.4 2.9 4.7 L3.2 4.7"/><path fill="#ffc430" stroke="none" d="M3.2 4.7 Q3.6 4.7 3.7 4.85 3.9 5.4 3.1 5.75 L2.85 5.8 2.65 5.75 Q2.4 5.6 2.5 5.25 2.6 4.8 3.2 4.7"/><path fill="none" stroke="#4b3a2c" stroke-width="0.5" stroke-opacity="0.501960784314" d="M2.65 5.75 L2.85 5.8 3.1 5.75 Q3.9 5.4 3.7 4.85 3.6 4.7 3.2 4.7 M2.65 5.75 Q1.8 5.4 2.9 4.7 L3.2 4.7"/><path fill="#56381f" stroke="none" d="M4.5 5.45 L4.25 5.45 4.05 5.15 4.15 4.85 Q4.25 4.7 4.5 4.65 L4.7 4.65 Q4.25 4.75 4.2 5.0 4.15 5.35 4.5 5.45"/><path fill="#ffc430" stroke="none" d="M4.5 5.45 Q4.15 5.35 4.2 5.0 4.25 4.75 4.7 4.65 L4.85 4.65 5.15 4.95 5.0 5.25 4.7 5.4 4.6 5.45 4.5 5.45"/><path fill="none" stroke="#4b3a2c" stroke-width="0.5" stroke-opacity="0.501960784314" d="M4.7 4.65 L4.5 4.65 Q4.25 4.7 4.15 4.85 L4.05 5.15 4.25 5.45 4.5 5.45 4.6 5.45 4.7 5.4 4.5 5.45 M4.7 4.65 L4.85 4.65 5.15 4.95 5.0 5.25 4.7 5.4"/><path fill="#56381f" stroke="none" d="M1.1 6.75 L0.7 6.65 0.55 6.4 Q0.45 6.2 0.6 6.1 L0.9 5.9 1.25 5.85 Q0.65 6.0 0.9 6.55 L1.1 6.75"/><path fill="#ffc430" stroke="none" d="M1.1 6.75 L0.9 6.55 Q0.65 6.0 1.25 5.85 L1.5 5.85 Q2.15 6.25 1.3 6.7 L1.1 6.75"/><path fill="none" stroke="#4b3a2c" stroke-width="0.5" stroke-opacity="0.501960784314" d="M1.25 5.85 L0.9 5.9 0.6 6.1 Q0.45 6.2 0.55 6.4 L0.7 6.65 1.1 6.75 M1.25 5.85 L1.5 5.85 Q2.15 6.25 1.3 6.7 L1.1 6.75"/><path fill="#56381f" stroke="none" d="M4.6 6.0 L2.95 6.4 Q2.3 6.65 1.9 6.95 1.65 8.0 2.0 8.45 L2.65 8.65 2.95 8.7 2.65 8.75 1.95 8.65 Q1.35 8.0 1.65 6.7 L2.65 6.2 Q3.7 5.75 4.5 5.75 L4.6 6.0"/><path fill="#ffc430" stroke="none" d="M2.95 8.7 L2.65 8.65 2.0 8.45 Q1.65 8.0 1.9 6.95 2.3 6.65 2.95 6.4 L4.6 6.0 Q4.85 6.7 4.2 7.8 3.6 8.5 2.95 8.7"/><path fill="none" stroke="#4b3a2c" stroke-width="0.5" stroke-opacity="0.501960784314" d="M4.6 6.0 L4.5 5.75 Q3.7 5.75 2.65 6.2 L1.65 6.7 Q1.35 8.0 1.95 8.65 L2.65 8.75 2.95 8.7 Q3.6 8.5 4.2 7.8 4.85 6.7 4.6 6.0"/><path fill="#ffff00" stroke="none" d="M4.4 7.5 L4.25 8.15 4.25 7.6 Q4.1 7.3 3.8 7.3 L3.5 7.35 Q3.5 7.25 3.65 7.25 L4.0 7.1 4.35 7.05 4.4 7.5"/></g><g id="c21"><g><use transform="matrix(1.0,0.0,0.0,1.0,0.0,0.0)" xlink:href="#c20"/></g></g><g id="c22"><path fill="#54201b" stroke="none" d="M13.65 -12.55 L14.75 -11.85 14.8 -11.4 14.8 -11.25 14.05 -11.25 13.95 -11.25 12.9 -11.75 12.1 -12.0 11.3 -12.25 6.45 -13.8 5.95 -13.8 6.45 -13.8 11.3 -12.25 9.75 -12.25 4.95 -11.8 Q4.65 -10.6 4.65 -8.85 L4.85 -7.0 4.8 -6.9 Q4.45 -6.35 4.45 -5.7 L4.45 -5.6 4.45 -5.55 3.75 -5.6 3.55 -5.5 Q2.9 -5.3 2.45 -4.5 L2.3 -4.25 2.25 -4.25 2.25 -4.2 2.2 -4.2 1.95 -3.9 1.8 -3.7 Q0.9 -2.3 0.15 0.15 L0.1 0.25 -0.6 -1.05 -0.55 -1.15 -0.55 -1.2 -0.55 -1.35 -0.45 -1.6 1.05 -5.35 1.9 -8.35 2.5 -10.4 2.35 -10.95 1.8 -12.05 1.65 -12.3 1.35 -12.8 4.9 -13.85 5.95 -13.8 6.45 -14.2 5.45 -14.3 5.25 -14.3 3.85 -14.0 3.8 -14.05 5.0 -14.5 6.1 -14.5 6.5 -14.45 6.85 -14.4 Q9.7 -14.0 12.6 -12.95 L13.3 -12.75 13.65 -12.55 M2.5 -6.05 L2.65 -6.2 2.55 -5.75 2.25 -4.25 2.55 -5.75 2.65 -6.2 2.5 -6.05 2.45 -5.9 2.5 -6.05 M-0.55 -1.15 L-0.4 -0.95 Q-0.15 -0.65 0.3 -1.35 L0.75 -2.55 1.55 -3.6 2.45 -5.9 1.55 -3.6 0.75 -2.55 0.3 -1.35 Q-0.15 -0.65 -0.4 -0.95 L-0.55 -1.15"/><path fill="#9c8ab0" stroke="none" d="M13.3 -12.75 L13.4 -12.7 13.65 -12.55 13.3 -12.75 M12.1 -12.0 L12.9 -11.75 12.4 -11.9 12.1 -12.0"/><path fill="#b9493e" stroke="none" d="M1.35 -12.8 L1.25 -12.9 3.1 -13.75 3.85 -14.0 5.25 -14.3 5.45 -14.3 6.45 -14.2 5.95 -13.8 4.9 -13.85 1.35 -12.8"/><path fill="#5a221d" stroke="none" d="M1.25 -12.9 L1.15 -13.1 1.35 -13.25 3.1 -13.8 3.1 -13.75 1.25 -12.9"/><path fill="#16170b" stroke="none" d="M3.1 -13.8 L3.8 -14.05 3.85 -14.0 3.1 -13.75 3.1 -13.8"/><path fill="#625379" stroke="none" d="M12.4 -11.9 L12.1 -12.0 12.4 -11.9"/><path fill="#732e26" stroke="none" d="M13.95 -11.25 Q11.75 -11.25 10.45 -10.6 9.85 -10.35 9.4 -9.9 L8.35 -8.7 Q7.75 -7.7 7.45 -6.75 5.85 -8.5 4.85 -7.0 L4.65 -8.85 Q4.65 -10.6 4.95 -11.8 L9.75 -12.25 11.3 -12.25 12.1 -12.0 12.4 -11.9 12.9 -11.75 13.95 -11.25"/><path fill="#493f5a" stroke="none" d="M2.5 -6.05 L2.45 -5.9 2.5 -6.05"/><path fill="#8d362e" stroke="none" d="M2.3 -4.25 L2.25 -4.2 2.25 -4.25 2.3 -4.25"/><path fill="#323418" stroke="none" d="M2.25 -4.2 L2.2 -4.2 2.25 -4.2"/><path fill="#798b30" stroke="none" d="M4.45 -5.6 L4.5 -5.55 4.45 -5.55 4.45 -5.6"/><path fill="none" stroke="#000000" stroke-width="0.5" stroke-opacity="0.301960784314" d="M13.65 -12.55 L14.75 -11.85 14.8 -11.4 14.8 -11.25 14.05 -11.25 13.95 -11.25 Q11.75 -11.25 10.45 -10.6 9.85 -10.35 9.4 -9.9 L8.35 -8.7 Q7.75 -7.7 7.45 -6.75 5.85 -8.5 4.85 -7.0 L4.8 -6.9 Q4.45 -6.35 4.45 -5.7 L4.45 -5.6 4.45 -5.55 3.75 -5.6 3.55 -5.5 Q2.9 -5.3 2.45 -4.5 L2.3 -4.25 2.25 -4.2 M0.1 0.25 L-0.6 -1.05 M-0.55 -1.15 L-0.55 -1.2 -0.55 -1.35 -0.45 -1.6 1.05 -5.35 1.9 -8.35 2.5 -10.4 2.35 -10.95 1.8 -12.05 1.65 -12.3 1.35 -12.8 4.9 -13.85 5.95 -13.8 6.45 -13.8 11.3 -12.25 12.1 -12.0 12.4 -11.9 12.9 -11.75 13.95 -11.25 M6.1 -14.5 L6.5 -14.45 6.85 -14.4 Q9.7 -14.0 12.6 -12.95 L13.3 -12.75 13.4 -12.7 M13.65 -12.55 L13.3 -12.75 M2.25 -4.25 L2.55 -5.75 2.65 -6.2 2.5 -6.05 2.45 -5.9 1.55 -3.6 0.75 -2.55 0.3 -1.35 Q-0.15 -0.65 -0.4 -0.95 L-0.55 -1.15 M2.5 -6.05 L2.45 -5.9 M2.25 -4.25 L2.25 -4.2"/></g><g id="c23"><g><use transform="matrix(1.0,0.0,0.0,1.0,0.0,0.0)" xlink:href="#c22"/></g></g><g id="c24"><path fill="#b9493e" stroke="none" d="M-10.55 -5.4 L-10.5 -5.3 -12.7 -3.7 -14.4 -2.45 -15.65 -0.9 -18.95 5.6 -19.0 5.65 -19.4 6.5 -19.8 7.75 -19.9 7.9 -20.55 8.6 -20.65 8.55 -19.05 5.6 -20.65 7.3 Q-18.45 3.8 -17.85 1.95 L-15.2 -2.2 -15.05 -2.35 -13.6 -3.6 -12.85 -4.1 -12.8 -4.15 -10.55 -5.4"/><path fill="#5a221d" stroke="none" d="M-12.8 -4.15 Q-11.5 -5.05 -10.9 -5.55 L-10.6 -5.65 -10.55 -5.4 -12.8 -4.15"/><path fill="#54201b" stroke="none" d="M-10.5 -5.3 L-10.4 -4.7 -10.3 -4.4 -9.55 -2.85 -7.4 -2.2 -4.25 -1.35 0.0 -0.65 0.3 -0.55 0.45 -0.5 0.45 -0.45 0.55 -0.45 1.05 0.95 0.95 0.95 -3.6 0.35 -3.85 0.35 -4.3 0.45 -4.35 0.45 -4.45 0.5 -4.75 0.45 Q-5.75 0.5 -6.45 1.0 L-6.75 1.2 -7.25 1.85 -7.35 1.9 -7.45 1.8 Q-7.9 1.4 -8.65 1.4 -9.6 1.45 -10.15 1.95 -10.9 1.0 -12.2 0.25 L-12.15 -1.05 Q-12.15 -1.95 -12.5 -3.1 L-12.7 -3.7 -10.5 -5.3 M-20.65 8.55 L-21.05 8.3 -20.7 6.8 -20.55 6.4 -20.1 5.55 Q-18.4 1.9 -16.2 -1.25 L-15.9 -1.65 -15.0 -2.7 -13.6 -3.6 -15.05 -2.35 -15.2 -2.2 -17.85 1.95 Q-18.45 3.8 -20.65 7.3 L-19.05 5.6 -20.65 8.55 M-5.95 -0.25 L-5.9 -0.25 -3.25 0.15 -1.8 0.0 -0.45 0.25 Q0.5 0.2 0.45 -0.2 L0.45 -0.45 0.45 -0.2 Q0.5 0.2 -0.45 0.25 L-1.8 0.0 -3.25 0.15 -5.9 -0.25 -5.95 -0.25 -6.05 -0.3 -6.1 -0.3 -5.95 -0.25 M-4.35 0.45 L-5.9 -0.05 -6.3 -0.25 -6.1 -0.3 -6.3 -0.25 -5.9 -0.05 -4.35 0.45"/><path fill="#16170b" stroke="none" d="M-13.6 -3.6 L-12.85 -4.1 -12.8 -4.15 -12.85 -4.1 -13.6 -3.6"/><path fill="#8d362e" stroke="none" d="M-10.15 1.95 Q-10.8 2.6 -10.8 4.1 L-13.15 3.85 Q-14.05 3.85 -14.95 4.2 L-16.45 4.8 Q-18.0 5.7 -19.8 7.75 L-19.4 6.5 -19.1 5.95 -18.95 5.6 -15.65 -0.9 -14.4 -2.45 -12.7 -3.7 -12.5 -3.1 Q-12.15 -1.95 -12.15 -1.05 L-12.2 0.25 Q-10.9 1.0 -10.15 1.95"/><path fill="#798b30" stroke="none" d="M-7.25 1.85 L-7.3 1.9 -7.35 1.9 -7.25 1.85"/><path fill="#323418" stroke="none" d="M-4.3 0.45 L-4.35 0.45 -4.3 0.45"/><path fill="#493f5a" stroke="none" d="M-5.95 -0.25 L-6.1 -0.3 -6.05 -0.3 -5.95 -0.25"/><path fill="#625379" stroke="none" d="M-18.95 5.6 L-19.1 5.95 -19.0 5.65 -18.95 5.6"/><path fill="#9c8ab0" stroke="none" d="M-20.7 6.8 L-20.6 6.5 -20.6 6.45 -20.55 6.4 -20.7 6.8 M-19.0 5.65 L-19.1 5.95 -19.4 6.5 -19.0 5.65"/><path fill="none" stroke="#000000" stroke-width="0.5" stroke-opacity="0.301960784314" d="M-10.5 -5.3 L-10.4 -4.7 -10.3 -4.4 -9.55 -2.85 -7.4 -2.2 -4.25 -1.35 0.0 -0.65 0.3 -0.55 0.45 -0.5 0.45 -0.45 0.45 -0.2 Q0.5 0.2 -0.45 0.25 L-1.8 0.0 -3.25 0.15 -5.9 -0.25 -5.95 -0.25 -6.1 -0.3 -6.3 -0.25 -5.9 -0.05 -4.35 0.45 -4.45 0.5 -4.75 0.45 Q-5.75 0.5 -6.45 1.0 L-6.75 1.2 -7.25 1.85 -7.35 1.9 -7.45 1.8 Q-7.9 1.4 -8.65 1.4 -9.6 1.45 -10.15 1.95 -10.8 2.6 -10.8 4.1 L-13.15 3.85 Q-14.05 3.85 -14.95 4.2 L-16.45 4.8 Q-18.0 5.7 -19.8 7.75 L-19.9 7.9 -20.55 8.6 -20.65 8.55 -21.05 8.3 -20.7 6.8 -20.55 6.4 -20.1 5.55 Q-18.4 1.9 -16.2 -1.25 L-15.9 -1.65 M0.55 -0.45 L1.05 0.95 M-20.6 6.45 L-20.55 6.4 M-12.7 -3.7 L-10.5 -5.3 M-18.95 5.6 L-15.65 -0.9 -14.4 -2.45 -12.7 -3.7 M-5.95 -0.25 L-6.05 -0.3 -6.1 -0.3 M-19.1 5.95 L-18.95 5.6 M-19.1 5.95 L-19.4 6.5 -19.8 7.75"/></g><g id="c25"><g><use transform="matrix(1.0,0.0,0.0,1.0,0.0,0.0)" xlink:href="#c24"/></g></g><g id="c26"><path fill="#6b2e2e" stroke="none" d="M-1.35 0.4 L0.55 -0.15 0.55 -0.3 1.15 0.55 2.0 1.9 1.75 2.35 1.35 2.75 1.05 3.0 0.85 3.1 0.2 2.15 0.15 2.15 0.1 2.1 -0.3 3.3 -1.55 2.9 -1.9 2.7 -1.95 2.65 -2.05 2.55 -1.75 1.3 -1.35 0.4 M-1.95 2.65 L-1.95 2.6 -1.75 1.3 -1.95 2.6 -1.95 2.65"/><path fill="none" stroke="#000000" stroke-width="0.5" stroke-opacity="0.301960784314" d="M1.15 0.55 L0.55 -0.3 0.55 -0.15 -1.35 0.4 M-1.9 2.7 L-1.55 2.9 -0.3 3.3 M-2.05 2.55 L-1.95 2.65"/><path fill="none" stroke="#000000" stroke-width="0.5" stroke-opacity="0.188235294118" d="M-1.35 0.4 L-1.75 1.3 -1.95 2.6 -1.95 2.65 -1.9 2.7 M-0.3 3.3 L0.1 2.1 0.15 2.15 0.2 2.15 0.85 3.1 M1.35 2.75 L1.75 2.35 2.0 1.9 1.15 0.55 M-1.75 1.3 L-2.05 2.55"/></g><g id="c27"><g><use transform="matrix(1.0,0.0,0.0,1.0,0.0,0.0)" xlink:href="#c26"/></g></g><g id="c28"><path fill="#35358f" stroke="none" d="M-2.05 -0.15 L-2.0 -0.2 -1.85 -0.3 -0.8 -0.55 -0.95 0.35 -1.0 1.9 -1.0 2.5 -0.6 2.7 -0.75 2.75 -0.8 2.75 -0.7 2.95 0.0 3.7 -0.2 4.0 -0.3 4.4 -0.3 4.45 -0.7 4.7 -2.05 4.8 -2.1 4.8 Q-1.95 3.5 -2.05 2.1 L-2.15 -0.15 -2.05 -0.15 M1.9 0.55 L2.15 0.8 1.9 1.2 1.5 1.85 1.35 2.05 1.35 2.0 1.15 1.8 1.1 1.75 1.85 0.55 1.9 0.55 M0.9 2.65 L0.6 2.95 -0.5 2.75 0.0 2.65 0.35 2.4 0.45 2.35 0.55 2.3 0.6 2.3 0.7 2.4 0.85 2.5 0.9 2.65"/><path fill="#893a3a" stroke="none" d="M-2.05 -0.15 L-2.15 -0.15 -2.15 -0.25 -2.05 -0.15 M1.85 0.5 L1.9 0.55 1.85 0.55 1.85 0.5"/><path fill="#5952b9" stroke="none" d="M-0.6 2.7 L-1.0 2.5 -1.0 1.9 -0.95 0.35 -0.8 -0.55 -0.7 -0.55 -0.35 -0.5 -0.1 -0.5 Q0.95 -0.3 1.85 0.5 L1.85 0.55 1.1 1.75 0.25 1.45 -0.05 1.4 -0.45 1.4 -0.5 1.45 0.55 2.3 0.45 2.35 0.35 2.4 0.0 2.65 -0.5 2.75 -0.6 2.75 -0.6 2.7"/><path fill="#815fcd" stroke="none" d="M0.55 2.3 L-0.5 1.45 -0.45 1.4 -0.05 1.4 0.25 1.45 1.1 1.75 0.9 2.0 0.85 2.05 0.55 2.3"/><path fill="#6c49c9" stroke="none" d="M0.0 3.7 L-0.7 2.95 -0.8 2.75 -0.75 2.75 -0.6 2.75 -0.5 2.75 0.6 2.95 0.15 3.45 0.0 3.7 M1.35 2.05 L0.9 2.65 0.85 2.5 0.7 2.4 0.6 2.3 0.55 2.3 0.85 2.05 0.9 2.0 1.1 1.75 1.15 1.8 1.35 2.0 1.35 2.05"/><path fill="#e38d6a" stroke="none" d="M-0.75 2.75 L-0.6 2.7 -0.6 2.75 -0.75 2.75"/><path fill="none" stroke="#000000" stroke-width="0.5" stroke-opacity="0.188235294118" d="M-2.15 -0.15 L-2.05 2.1 Q-1.95 3.5 -2.1 4.8 L-2.05 4.8 -0.7 4.7 -0.3 4.45 M2.15 0.8 L1.9 1.2 1.5 1.85 1.35 2.05 0.9 2.65 0.6 2.95 0.15 3.45 M-2.05 -0.15 L-2.15 -0.25 -2.15 -0.15"/><path fill="none" stroke="#000000" stroke-width="0.5" stroke-opacity="0.301960784314" d="M-0.3 4.45 L-0.3 4.4 -0.2 4.0 0.0 3.7 -0.7 2.95 -0.8 2.75 -0.75 2.75 -0.6 2.7 M0.15 3.45 L0.0 3.7 M0.55 2.3 L-0.5 1.45 -0.45 1.4 -0.05 1.4 0.25 1.45 1.1 1.75 1.15 1.8 1.35 2.0 1.35 2.05 M0.9 2.65 L0.85 2.5 0.7 2.4 0.6 2.3 0.55 2.3 M-0.5 2.75 L0.6 2.95"/></g><g id="c29"><g><use transform="matrix(1.0,0.0,0.0,1.0,0.0,0.0)" xlink:href="#c28"/></g><g><use transform="matrix(0.325775146484,0.0634460449219,0.0,0.182693481445,-2.35,2.95)" xlink:href="#c5"/></g></g><g id="c30"><path fill="#4441aa" stroke="none" d="M-1.15 2.75 L-2.75 2.55 Q-1.55 0.7 -0.15 -0.35 L0.35 0.2 -1.15 2.75"/><path fill="none" stroke="#000000" stroke-width="0.5" stroke-opacity="0.301960784314" d="M-1.15 2.75 L0.35 0.2 M-0.15 -0.35 Q-1.55 0.7 -2.75 2.55"/></g><g id="c31"><g><use transform="matrix(1.0,0.0,0.0,1.0,0.0,0.0)" xlink:href="#c30"/></g></g><g id="c32"><path fill="#4b4401" stroke="none" d="M-2.3 -2.95 Q-1.15 -3.7 0.25 -4.0 L2.35 -3.95 4.0 -4.1 Q5.05 -3.95 5.45 -2.7 5.85 -1.6 5.55 -1.2 L4.9 -0.7 3.3 -1.05 3.0 -1.15 2.95 -1.1 1.8 -0.75 1.8 -0.7 Q1.3 -0.25 0.3 0.1 L-0.25 0.3 -0.35 0.35 -0.8 0.45 -1.9 1.15 -2.3 1.35 -2.8 1.8 Q-3.45 2.3 -4.75 1.1 -5.2 0.3 -5.1 -0.55 -5.0 -1.45 -4.1 -2.1 -3.15 -2.85 -2.3 -2.95 L-1.7 -0.9 Q-1.5 0.7 -1.9 1.15 -1.5 0.7 -1.7 -0.9 L-2.3 -2.95 M2.35 -3.95 Q2.75 -2.9 2.65 -2.15 2.4 -1.35 1.8 -0.75 2.4 -1.35 2.65 -2.15 2.75 -2.9 2.35 -3.95"/><path fill="none" stroke="#000000" stroke-width="0.5" stroke-opacity="0.301960784314" d="M-2.3 -2.95 Q-1.15 -3.7 0.25 -4.0 L2.35 -3.95 4.0 -4.1 Q5.05 -3.95 5.45 -2.7 5.85 -1.6 5.55 -1.2 L4.9 -0.7 3.3 -1.05 3.0 -1.15 2.95 -1.1 1.8 -0.75 1.8 -0.7 Q1.3 -0.25 0.3 0.1 L-0.25 0.3 -0.35 0.35 -0.8 0.45 -1.9 1.15 -2.3 1.35 -2.8 1.8 Q-3.45 2.3 -4.75 1.1 -5.2 0.3 -5.1 -0.55 -5.0 -1.45 -4.1 -2.1 -3.15 -2.85 -2.3 -2.95 L-1.7 -0.9 Q-1.5 0.7 -1.9 1.15 M1.8 -0.75 Q2.4 -1.35 2.65 -2.15 2.75 -2.9 2.35 -3.95"/><path fill="#3b2307" stroke="none" d="M-3.35 -0.25 L-4.15 -0.3 Q-5.25 -0.5 -5.55 -0.9 -5.25 -0.5 -4.15 -0.3 L-3.35 -0.25 -3.1 -0.1 Q-2.4 1.25 -2.35 2.55 L-4.25 1.95 -4.35 0.55 -5.55 -0.9 -4.95 -0.9 -2.9 -0.75 -3.25 -0.7 -3.45 -0.55 -3.45 -0.35 -3.35 -0.25 M0.35 -0.7 L1.05 -1.6 1.55 -1.8 1.8 -1.05 0.35 -0.7 1.8 -1.05 2.85 1.9 Q0.6 2.65 -1.2 2.6 L0.0 0.4 0.15 0.05 0.1 0.0 0.0 -0.15 0.05 -0.2 0.35 -0.7"/><path fill="#a66218" stroke="none" d="M-3.35 -0.25 L-3.45 -0.35 -3.45 -0.55 -3.25 -0.7 -2.9 -0.75 1.05 -1.6 0.35 -0.7 -3.35 -0.25"/><path fill="#855104" stroke="none" d="M-2.35 2.55 Q-2.4 1.25 -3.1 -0.1 L-3.35 -0.25 0.35 -0.7 0.05 -0.2 0.0 -0.15 0.1 0.0 0.15 0.05 0.0 0.4 -1.2 2.6 -2.35 2.55"/><path fill="none" stroke="#000000" stroke-width="0.5" stroke-opacity="0.301960784314" d="M-5.55 -0.9 Q-5.25 -0.5 -4.15 -0.3 L-3.35 -0.25 0.35 -0.7 1.8 -1.05 1.55 -1.8 1.05 -1.6 -2.9 -0.75 -4.95 -0.9 M-5.55 -0.9 L-4.35 0.55 -4.25 1.95 -2.35 2.55 Q-2.4 1.25 -3.1 -0.1 L-3.35 -0.25 M-2.35 2.55 L-1.2 2.6 Q0.6 2.65 2.85 1.9 L1.8 -1.05"/><path fill="#422808" stroke="none" d="M-2.0 1.4 L-2.0 1.65 -2.95 1.5 Q-3.25 1.1 -3.15 0.65 L-2.9 0.55 -2.7 1.35 -2.0 1.4"/><path fill="none" stroke="#000000" stroke-width="0.5" stroke-opacity="0.301960784314" d="M-2.0 1.4 L-2.0 1.65 -2.95 1.5 Q-3.25 1.1 -3.15 0.65 L-2.9 0.55 Q-2.55 0.45 -2.1 0.7 L-2.0 1.4 -2.7 1.35 -2.9 0.55"/><path fill="#a66218" stroke="none" d="M1.6 -1.35 Q4.4 -2.75 4.5 -4.05 L5.0 -3.7 5.05 -3.55 Q5.0 -2.75 3.55 -1.7 L1.5 -0.6 Q1.3 -0.5 1.4 -0.8 L1.6 -1.15 1.8 -1.35 1.6 -1.35 M-1.7 0.7 L-2.0 0.15 -0.8 -0.25 -0.4 0.2 -1.7 0.7"/><path fill="#855104" stroke="none" d="M5.05 -3.55 L4.9 -1.8 5.55 -1.15 Q4.95 0.15 3.15 1.25 L2.4 1.05 1.5 -0.6 3.55 -1.7 Q5.0 -2.75 5.05 -3.55 M0.35 2.7 L-0.45 2.95 -1.7 0.7 -0.4 0.2 0.25 1.6 0.35 2.7"/><path fill="#422808" stroke="none" d="M3.15 1.25 L0.35 2.7 0.25 1.6 -0.4 0.2 -0.8 -0.25 1.6 -1.35 1.8 -1.35 1.6 -1.15 1.4 -0.8 Q1.3 -0.5 1.5 -0.6 L2.4 1.05 3.15 1.25 M-0.4 0.2 L1.5 -0.6 -0.4 0.2"/><path fill="none" stroke="#000000" stroke-width="0.5" stroke-opacity="0.301960784314" d="M1.6 -1.35 Q4.4 -2.75 4.5 -4.05 L5.0 -3.7 5.05 -3.55 4.9 -1.8 5.55 -1.15 Q4.95 0.15 3.15 1.25 L0.35 2.7 -0.45 2.95 -1.7 0.7 -2.0 0.15 -0.8 -0.25 1.6 -1.35 M1.5 -0.6 L3.55 -1.7 Q5.0 -2.75 5.05 -3.55 M1.5 -0.6 L-0.4 0.2 -1.7 0.7"/><path fill="none" stroke="#000000" stroke-width="0.5" stroke-opacity="0.301960784314" d="M4.75 -1.3 L4.85 -1.8"/><path fill="#b6882f" stroke="none" d="M-3.1 2.7 L-3.4 2.2 -2.75 0.15 Q-2.7 0.0 -1.1 -0.55 -0.8 -0.3 -0.8 -0.05 -1.45 -0.1 -2.45 0.6 L-3.1 2.7"/><path fill="#895f21" stroke="none" d="M-0.8 -0.05 L0.0 2.85 -1.5 3.3 -2.4 3.0 -3.1 2.7 -2.45 0.6 Q-1.45 -0.1 -0.8 -0.05"/><path fill="none" stroke="#000000" stroke-width="0.5" stroke-opacity="0.301960784314" d="M-3.1 2.7 L-3.4 2.2 -2.75 0.15 Q-2.7 0.0 -1.1 -0.55 -0.8 -0.3 -0.8 -0.05 L0.0 2.85 -1.5 3.3 -2.4 3.0 -3.1 2.7"/><path fill="#895f21" stroke="none" d="M-1.1 1.05 L-0.95 1.25 Q-0.3 0.85 0.35 0.7 L0.6 1.55 -0.7 2.1 -0.9 1.85 -1.1 1.05"/><path fill="#b6882f" stroke="none" d="M-1.1 1.05 L0.2 0.6 0.35 0.7 Q-0.3 0.85 -0.95 1.25 L-1.1 1.05"/><path fill="none" stroke="#000000" stroke-width="0.5" stroke-opacity="0.301960784314" d="M0.35 0.7 L0.2 0.6 -1.1 1.05 -0.95 1.25 M0.35 0.7 L0.6 1.55 -0.7 2.1 -0.9 1.85 -1.1 1.05"/><path fill="#895f21" stroke="none" d="M2.45 1.4 L2.55 1.65 2.55 1.7 2.6 1.7 2.9 1.65 Q3.2 1.6 3.7 1.15 L4.3 0.4 4.5 0.2 4.55 0.1 4.55 0.25 3.65 1.35 2.65 2.1 2.3 2.25 2.25 2.3 2.05 2.35 1.85 2.45 1.8 2.45 1.75 2.45 1.6 2.4 1.35 2.3 Q1.0 1.9 0.6 0.3 0.2 -1.4 0.45 -1.9 L0.55 -1.6 1.0 -1.45 Q0.95 -0.6 1.2 0.35 1.45 1.25 1.65 1.55 L2.05 1.7 2.25 1.35 2.3 1.1 2.4 1.35 2.45 1.4 M2.55 -2.95 L3.8 -3.45 4.05 -3.1 3.9 -2.85 3.6 -2.6 3.55 -2.7 2.55 -2.05 2.15 -1.7 2.9 -2.8 Q2.9 -3.1 2.55 -2.95"/><path fill="#5f4216" stroke="none" d="M4.5 0.2 L4.3 0.4 3.7 1.15 Q3.2 1.6 2.9 1.65 L2.6 1.7 2.55 1.7 2.55 1.65 2.45 1.4 2.5 1.4 2.65 1.3 Q3.55 0.7 4.5 0.2"/><path fill="#f2e671" stroke="none" d="M1.0 -1.45 L0.55 -1.6 0.45 -1.9 2.05 -2.75 2.45 -2.7 Q0.75 -1.9 1.0 -1.45"/><path fill="#eab740" stroke="none" d="M2.3 1.1 L2.25 1.35 2.05 1.7 1.65 1.55 Q1.45 1.25 1.2 0.35 0.95 -0.6 1.0 -1.45 0.75 -1.9 2.45 -2.7 L2.05 -2.75 2.55 -2.95 Q2.9 -3.1 2.9 -2.8 L2.15 -1.7 1.7 -1.3 1.85 -0.1 2.3 1.1"/><path fill="none" stroke="#000000" stroke-width="0.5" stroke-opacity="0.301960784314" d="M2.45 1.4 L2.4 1.35 2.3 1.1 M0.45 -1.9 Q0.2 -1.4 0.6 0.3 1.0 1.9 1.35 2.3 L1.6 2.4 1.75 2.45 1.8 2.45 1.85 2.45 2.05 2.35 2.25 2.3 2.3 2.25 2.65 2.1 3.65 1.35 4.55 0.25 4.55 0.1 M2.55 -2.95 L3.8 -3.45 4.05 -3.1 3.9 -2.85 3.6 -2.6 3.55 -2.7 2.55 -2.05 2.15 -1.7 1.7 -1.3 1.85 -0.1 2.3 1.1 M2.05 -2.75 L0.45 -1.9 M2.05 -2.75 L2.55 -2.95"/><path fill="#f2e671" stroke="none" d="M1.85 1.45 L1.8 1.75 1.65 1.5 1.4 1.0 1.25 0.35 1.25 0.1 1.45 0.3 1.7 0.9 1.85 1.45"/><path fill="none" stroke="#000000" stroke-width="0.5" stroke-opacity="0.301960784314" d="M2.55 1.75 L2.35 1.25"/><path fill="#f2e671" stroke="none" d="M1.1 -0.35 L1.0 -0.25 0.9 -0.3 0.85 -0.55 0.85 -0.85 0.95 -1.0 1.05 -0.9 1.15 -0.6 1.1 -0.35"/><path fill="#422808" stroke="none" d="M3.95 0.05 Q3.45 0.4 2.95 0.05 L2.85 -0.65 3.3 -1.25 4.1 -0.9 3.95 0.05"/><path fill="none" stroke="#000000" stroke-width="0.5" stroke-opacity="0.301960784314" d="M3.95 0.05 Q3.45 0.4 2.95 0.05 L2.85 -0.65 3.3 -1.25 4.1 -0.9 3.95 0.05"/><path fill="#895f21" stroke="none" d="M4.4 -1.4 L4.6 -1.05 Q4.45 -0.45 3.65 0.1 L3.4 -0.35 3.3 -0.8 3.8 -1.15 4.4 -1.4"/><path fill="#e09c38" stroke="none" d="M3.05 -0.9 L3.0 -0.9 Q3.6 -1.4 4.15 -1.5 L4.4 -1.4 3.8 -1.15 3.3 -0.8 3.05 -0.9"/><path fill="#634417" stroke="none" d="M3.65 0.1 L3.2 -0.1 3.05 -0.9 3.3 -0.8 3.4 -0.35 3.65 0.1"/><path fill="none" stroke="#000000" stroke-width="0.5" stroke-opacity="0.301960784314" d="M3.05 -0.9 L3.0 -0.9 Q3.6 -1.4 4.15 -1.5 L4.4 -1.4 4.6 -1.05 Q4.45 -0.45 3.65 0.1 L3.2 -0.1 3.05 -0.9"/></g><g id="c33"><g><use transform="matrix(1.0,0.0,0.0,1.0,0.0,0.0)" xlink:href="#c32"/></g></g><g id="c34"/><g id="c35"><path fill="#857fd7" stroke="none" d="M1.7 -5.75 L1.75 -5.75 1.95 -5.8 1.85 -4.65 1.75 -3.9 1.7 -3.8 1.5 -2.7 2.0 -2.45 2.55 -2.15 2.45 -0.35 2.45 -0.05 Q2.3 1.15 1.85 1.95 -0.2 -0.35 -4.05 -0.95 L-3.45 -1.7 -3.25 -1.9 -3.2 -1.9 -2.9 -2.3 -1.95 -3.15 -1.45 -3.55 -1.4 -3.55 -1.4 -3.6 -0.95 -3.95 0.7 -5.15 0.8 -5.1 1.0 -5.2 1.05 -5.3 1.25 -5.45 1.65 -5.7 1.65 -5.75 1.7 -5.75 M1.65 -4.65 L1.65 -4.8 1.6 -4.8 1.65 -4.65 M-0.2 -1.7 L-0.15 -1.65 -0.1 -1.85 -0.2 -1.7"/><path fill="#bd5c5c" stroke="none" d="M1.65 -5.75 L1.65 -5.7 1.25 -5.45 1.05 -5.3 1.0 -5.2 0.9 -5.25 1.15 -5.4 1.2 -5.5 1.65 -5.75"/><path fill="#f5d9cd" stroke="none" d="M1.65 -4.65 L1.6 -4.8 1.65 -4.8 1.65 -4.65"/><path fill="#5550b6" stroke="none" d="M1.85 1.95 Q2.3 1.15 2.45 -0.05 L2.45 -0.35 2.55 -2.15 2.0 -2.45 1.5 -2.7 1.7 -3.8 1.75 -3.9 1.85 -4.65 1.95 -5.8 1.75 -5.75 2.25 -6.05 Q4.0 -3.25 4.45 -0.6 4.7 1.0 4.55 2.5 L4.35 2.95 4.25 3.55 4.25 3.6 4.15 3.75 3.7 4.95 3.65 5.1 Q3.05 3.25 1.85 1.95"/><path fill="#e38d6a" stroke="none" d="M1.0 -5.2 L0.8 -5.1 0.7 -5.15 0.9 -5.25 1.0 -5.2"/><path fill="#eaa88c" stroke="none" d="M-0.2 -1.7 L-0.1 -1.85 -0.15 -1.65 -0.2 -1.7"/><path fill="none" stroke="#000000" stroke-width="0.5" stroke-opacity="0.301960784314" d="M1.7 -5.75 L1.65 -5.75 1.2 -5.5 1.15 -5.4 0.9 -5.25 0.7 -5.15 -0.95 -3.95 -1.4 -3.6 M-1.4 -3.55 L-1.45 -3.55 -1.95 -3.15 -2.9 -2.3 -3.2 -1.9 -3.25 -1.9 -3.45 -1.7 -4.05 -0.95 M1.75 -5.75 L2.25 -6.05 Q4.0 -3.25 4.45 -0.6 4.7 1.0 4.55 2.5 L4.35 2.95 4.25 3.55 4.25 3.6 4.15 3.75 3.7 4.95 3.65 5.1"/><path fill="none" stroke="#c88062" stroke-width="0.5" d="M-1.4 -3.6 L-1.4 -3.55"/></g><g id="c36"><g><use transform="matrix(1.0,0.0,0.0,1.0,0.0,0.0)" xlink:href="#c35"/></g></g><g id="c37"><path fill="#9c96e0" stroke="none" d="M-14.6 -13.6 L-13.8 -14.9 Q-11.45 -18.55 -7.05 -19.65 -2.6 -20.7 1.3 -18.55 2.9 -17.65 4.0 -16.35 4.8 -15.45 5.4 -14.35 L5.6 -13.9 Q5.65 -12.3 1.3 -10.4 -10.0 -5.45 -14.6 -13.6"/><path fill="#5451b8" stroke="none" d="M-14.6 -13.6 Q-10.0 -5.45 1.3 -10.4 5.65 -12.3 5.6 -13.9 L6.15 -12.25 6.45 -10.25 6.35 -8.75 7.35 -7.6 7.8 -6.85 8.05 -5.95 Q8.2 -3.55 5.55 -1.35 2.85 1.05 -1.8 2.3 L-3.0 2.5 Q-4.9 2.85 -7.7 1.55 -10.5 0.3 -11.5 -1.1 L-13.05 -3.2 -13.7 -4.0 Q-14.75 -5.35 -15.15 -7.15 -15.9 -10.35 -14.8 -13.15 L-14.6 -13.6"/><path fill="none" stroke="#000000" stroke-width="0.5" stroke-opacity="0.450980392157" d="M5.4 -14.35 Q4.8 -15.45 4.0 -16.35 2.9 -17.65 1.3 -18.55 -2.6 -20.7 -7.05 -19.65 -11.45 -18.55 -13.8 -14.9 L-14.6 -13.6 -14.8 -13.15 Q-15.9 -10.35 -15.15 -7.15 -14.75 -5.35 -13.7 -4.0 L-13.05 -3.2 -11.5 -1.1 Q-10.5 0.3 -7.7 1.55 -4.9 2.85 -3.0 2.5 L-1.8 2.3 Q2.85 1.05 5.55 -1.35 8.2 -3.55 8.05 -5.95 L7.8 -6.85 7.35 -7.6 6.35 -8.75 6.45 -10.25 6.15 -12.25 5.6 -13.9"/></g><g id="c38"><g><use transform="matrix(1.0,0.0,0.0,1.0,0.0,0.0)" xlink:href="#c37"/></g></g><g id="c39"><path fill="#857fd9" stroke="none" d="M1.55 -5.4 L1.4 -3.25 1.35 -3.05 1.3 -2.15 1.6 0.85 0.35 0.7 0.2 0.6 -1.4 0.25 -1.4 0.15 -1.7 0.05 -3.3 -0.7 -3.25 -0.75 -1.5 -0.75 -1.7 -1.45 -2.0 -2.2 -2.6 -3.4 -2.7 -3.6 -3.4 -4.35 -1.8 -4.9 -1.35 -5.1 1.45 -5.45 1.55 -5.4 M-0.15 -2.25 L-0.1 -2.25 -0.15 -2.25"/><path fill="#5451b8" stroke="none" d="M-1.5 -0.75 L-3.25 -0.75 -3.3 -0.7 -1.7 0.05 -1.4 0.15 -1.4 0.25 0.2 0.6 0.35 0.7 1.6 0.85 1.6 0.95 Q2.05 3.45 3.2 5.5 L3.75 6.4 2.5 6.05 1.85 5.85 1.7 5.8 -2.2 3.5 -3.8 2.35 -4.0 2.25 -6.3 -0.25 -7.75 -2.1 -7.25 -2.45 Q-7.0 -2.55 -6.8 -2.7 L-6.6 -2.25 -6.55 -2.2 -6.0 -1.95 -5.5 -1.75 -4.15 -1.3 -1.5 -0.75"/><path fill="#b2ace8" stroke="none" d="M-3.4 -4.35 L-2.7 -3.6 -2.6 -3.4 -2.0 -2.2 -1.7 -1.45 -1.5 -0.75 -4.15 -1.3 -5.5 -1.75 -6.0 -1.95 -6.55 -2.2 -6.6 -2.25 -6.8 -2.7 -5.9 -3.2 -5.9 -3.25 -5.05 -3.65 -3.4 -4.35"/><path fill="#9c96e0" stroke="none" d="M1.7 5.8 L-0.35 4.95 -0.8 4.7 -1.75 4.15 -2.35 3.75 -4.05 2.4 -4.9 1.65 Q-6.55 0.05 -7.95 -2.0 L-7.8 -2.1 -7.75 -2.1 -6.3 -0.25 -4.0 2.25 -3.8 2.35 -2.2 3.5 1.7 5.8"/><path fill="#e5c366" stroke="none" d="M-0.15 -2.25 L-0.1 -2.25 -0.15 -2.25"/><path fill="none" stroke="#000000" stroke-width="0.5" stroke-opacity="0.301960784314" d="M1.55 -5.4 L1.45 -5.45 -1.35 -5.1 -1.8 -4.9 -3.4 -4.35 M1.7 5.8 L-0.35 4.95 -0.8 4.7 -1.75 4.15 -2.35 3.75 -4.05 2.4 -4.9 1.65 Q-6.55 0.05 -7.95 -2.0 L-7.8 -2.1 M-7.75 -2.1 L-7.25 -2.45 Q-7.0 -2.55 -6.8 -2.7 L-5.9 -3.2 -5.9 -3.25 -5.05 -3.65 -3.4 -4.35"/></g><g id="c40"><g><use transform="matrix(1.0,0.0,0.0,1.0,0.0,0.0)" xlink:href="#c39"/></g></g><g id="c41"><path fill="#373895" stroke="none" d="M1.75 1.3 Q3.5 0.55 4.85 0.35 L6.3 0.5 Q6.5 0.85 5.4 1.7 L2.55 3.25 -0.5 4.3 Q-1.85 4.5 -2.0 4.1 -2.15 3.7 -1.05 2.9 0.05 2.1 1.75 1.3"/><path fill="#f1cdf9" stroke="none" d="M-6.65 3.05 L-6.65 2.95 -6.7 2.75 -6.65 2.65 -6.5 2.4 Q-5.65 1.0 -4.65 0.5 L-4.35 0.35 -4.05 0.3 -3.3 0.2 -2.85 0.2 -2.8 0.25 -2.7 0.3 -2.6 0.3 -2.3 0.4 Q-1.7 0.65 -1.3 0.85 L-1.05 1.0 -0.2 1.9 -0.15 2.0 -0.1 2.15 0.0 2.35 0.05 2.5 Q-2.65 1.0 -6.65 3.05"/><path fill="#fdecff" stroke="none" d="M0.05 2.5 L0.15 2.7 Q0.4 3.55 0.15 4.3 L0.05 4.5 0.0 4.65 -0.55 4.75 -5.75 4.95 -5.9 4.8 Q-6.65 3.8 -6.65 3.05 -2.65 1.0 0.05 2.5"/><path fill="#f2f4f7" stroke="none" d="M-4.35 0.35 L-4.1 0.25 -4.05 0.3 -4.35 0.35 M-1.05 1.0 L-0.5 1.45 -0.2 1.9 -1.05 1.0"/><path fill="none" stroke="#000000" stroke-width="0.5" stroke-opacity="0.301960784314" d="M-0.15 2.0 L-0.1 2.15"/><path fill="none" stroke="#000000" stroke-width="0.5" stroke-opacity="0.6" d="M-6.7 2.75 L-6.65 2.65 -6.5 2.4 Q-5.65 1.0 -4.65 0.5 L-4.35 0.35 -4.05 0.3 -2.85 0.2 -2.6 0.3 -2.3 0.4 Q-1.7 0.65 -1.3 0.85 L-1.05 1.0 -0.2 1.9"/><path fill="none" stroke="#000000" stroke-width="0.5" stroke-opacity="0.301960784314" d="M0.0 4.65 L-0.55 4.75 -5.75 4.95"/><path fill="#ffffff" stroke="none" d="M-4.5 3.95 Q-4.55 2.75 -3.15 2.9 -2.95 2.9 -2.75 3.05 -2.15 3.8 -3.1 4.45 L-3.35 4.4 Q-4.1 4.35 -4.5 3.95"/><path fill="#edb8fe" stroke="none" d="M4.95 0.4 L4.95 0.25 4.9 -0.1 4.9 -0.6 4.95 -0.8 Q5.05 -1.55 5.3 -2.1 L5.7 -2.8 5.9 -3.1 5.95 -3.15 6.05 -3.25 6.1 -3.3 6.15 -3.35 6.2 -3.4 6.5 -3.55 6.65 -3.6 6.85 -3.55 7.95 -2.45 8.05 -2.3 8.1 -2.25 8.15 -2.05 8.1 -2.0 7.85 -1.95 Q6.6 -1.55 5.55 -0.35 L4.95 0.4"/><path fill="#f2f4f7" stroke="none" d="M6.65 -3.6 L6.5 -3.55 6.55 -3.6 6.65 -3.6 M5.3 -2.1 Q5.05 -1.55 4.95 -0.8 L5.0 -1.3 5.3 -2.1"/><path fill="#f7d7fe" stroke="none" d="M4.95 0.4 L5.55 -0.35 Q6.6 -1.55 7.85 -1.95 L8.1 -2.0 8.2 -1.25 5.85 2.0 5.8 1.95 5.75 1.95 5.6 1.8 Q5.05 1.3 4.95 0.55 L4.95 0.4"/><path fill="#f5d181" stroke="none" d="M5.8 2.0 L5.8 1.95 5.85 2.0 5.8 2.0"/><path fill="none" stroke="#000000" stroke-width="0.5" stroke-opacity="0.6" d="M8.1 -2.25 L8.05 -2.3 7.95 -2.45 6.85 -3.55 6.65 -3.6 6.5 -3.55 6.2 -3.4 6.15 -3.35 M6.1 -3.3 L6.05 -3.25 5.95 -3.15 5.9 -3.1 5.7 -2.8 5.3 -2.1 Q5.05 -1.55 4.95 -0.8 L4.9 -0.6 M6.1 -3.3 L6.15 -3.35"/><path fill="none" stroke="#000000" stroke-width="0.5" stroke-opacity="0.301960784314" d="M5.85 2.0 L8.2 -1.25 M5.8 2.0 L5.85 2.0"/><path fill="#994dd1" stroke="none" d="M-9.15 2.5 L-8.95 1.65 -7.35 0.75 -6.75 0.75 -7.5 1.2 -8.3 2.55 -9.15 2.5"/><path fill="#8260d0" stroke="none" d="M-8.3 2.55 L-8.4 2.7 -8.0 4.9 Q-6.35 6.3 -4.45 7.15 L-3.3 7.65 -3.7 7.65 -6.9 7.7 -7.0 7.65 -9.25 5.35 Q-9.4 3.7 -9.15 2.5 L-8.3 2.55"/><path fill="#9850d0" stroke="none" d="M7.4 -4.45 L6.5 -5.0 5.85 -5.0 6.25 -5.3 7.65 -5.35 7.4 -4.45"/><path fill="#805fd0" stroke="none" d="M7.4 -4.45 L7.65 -5.35 Q8.5 -4.45 9.3 -2.75 L9.1 -0.1 8.25 1.3 Q7.4 1.65 6.8 2.2 L8.0 0.05 8.3 -2.45 7.65 -4.3 7.4 -4.45"/></g><g id="c42"><g><use transform="matrix(1.0,0.0,0.0,1.0,0.0,0.0)" xlink:href="#c41"/></g></g><g id="c43"><path fill="#9068c8" stroke="none" d="M7.7 -6.45 L7.65 -6.35 7.25 -5.15 7.15 -5.1 7.15 -5.4 6.55 -4.95 5.65 -4.35 4.7 -3.5 4.6 -2.85 4.55 -3.0 3.6 -2.55 2.15 -1.45 -0.6 -0.4 -1.3 -0.3 -1.4 -0.25 -6.35 0.6 -7.55 0.9 -7.3 1.25 -9.55 0.75 -7.3 1.25 -7.0 1.65 Q-8.25 1.35 -9.55 0.75 L-10.0 0.6 -7.9 0.4 -3.65 -0.25 1.2 -1.45 1.3 -1.5 1.5 -1.6 Q3.2 -2.6 4.85 -3.85 L7.2 -5.95 7.3 -6.15 7.65 -6.5 7.7 -6.45"/><path fill="#c1a4de" stroke="none" d="M-7.3 1.25 L-7.55 0.9 -6.35 0.6 -1.4 -0.25 -1.3 -0.3 -0.6 -0.4 2.15 -1.45 3.6 -2.55 4.55 -3.0 4.6 -2.85 4.7 -3.5 5.65 -4.35 6.55 -4.95 7.15 -5.4 7.15 -5.1 6.4 -4.3 6.1 -3.75 6.1 -3.6 5.85 -3.65 4.9 -3.35 Q5.25 -2.35 5.05 -0.55 L4.8 -1.4 4.75 -1.6 4.75 -1.65 4.7 -1.75 4.6 -2.0 4.4 -2.75 3.35 -1.65 Q0.75 0.0 -2.0 1.05 L-3.05 0.25 -3.05 1.3 Q-5.3 1.5 -7.3 1.25"/><path fill="#c295da" stroke="none" d="M7.15 -5.1 L7.25 -5.15 7.05 -4.45 6.1 -3.05 6.1 -3.6 6.1 -3.75 6.4 -4.3 7.15 -5.1 M4.75 -1.6 Q3.15 0.0 1.25 1.1 L-4.2 2.1 -4.55 2.1 -4.75 2.1 -4.95 2.05 -5.0 2.05 -6.75 1.75 -7.0 1.65 -7.3 1.25 Q-5.3 1.5 -3.05 1.3 L-3.05 0.25 -2.0 1.05 Q0.75 0.0 3.35 -1.65 L4.4 -2.75 4.6 -2.0 4.7 -1.75 4.75 -1.65 4.75 -1.6"/><path fill="#ffffff" stroke="none" d="M6.1 -3.05 L6.05 -2.65 Q5.65 -0.95 5.15 -0.3 L5.05 -0.55 Q5.25 -2.35 4.9 -3.35 L5.85 -3.65 6.1 -3.6 6.1 -3.05"/><path fill="none" stroke="#000000" stroke-width="0.5" stroke-opacity="0.301960784314" d="M7.25 -5.15 L7.65 -6.35 7.7 -6.45 M7.65 -6.5 L7.3 -6.15 7.2 -5.95 4.85 -3.85 Q3.2 -2.6 1.5 -1.6 L1.3 -1.5 1.2 -1.45 -3.65 -0.25 -7.9 0.4 -10.0 0.6 -9.55 0.75 -7.3 1.25 Q-5.3 1.5 -3.05 1.3 L-3.05 0.25 -2.0 1.05 Q0.75 0.0 3.35 -1.65 L4.4 -2.75 4.6 -2.0 4.7 -1.75 M7.15 -5.1 L7.25 -5.15 M7.05 -4.45 L6.1 -3.05 6.05 -2.65 Q5.65 -0.95 5.15 -0.3 L5.05 -0.55 4.8 -1.4 M4.75 -1.6 Q3.15 0.0 1.25 1.1 L-4.2 2.1 -4.55 2.1 -4.75 2.1 -4.95 2.05 M-5.0 2.05 L-6.75 1.75 M-7.0 1.65 Q-8.25 1.35 -9.55 0.75 M4.75 -1.65 L4.75 -1.6 M6.1 -3.6 L6.1 -3.75 6.4 -4.3 7.15 -5.1 M6.1 -3.05 L6.1 -3.6"/><path fill="#c295da" stroke="none" d="M-3.7 0.75 L-4.1 0.1 -3.55 0.1 -2.25 0.4 -1.85 0.8 -1.9 0.7 -1.7 0.7 -1.65 0.8 -1.5 1.35 -1.5 1.55 -1.5 1.65 -1.45 1.8 -1.35 2.45 Q-2.3 1.3 -2.4 0.55 L-3.45 0.65 -3.7 0.75"/><path fill="#ffffff" stroke="none" d="M-1.35 2.45 L-1.35 2.6 Q-2.1 2.35 -3.25 1.35 L-3.7 0.75 -3.45 0.65 -2.4 0.55 Q-2.3 1.3 -1.35 2.45"/><path fill="none" stroke="#000000" stroke-width="0.5" stroke-opacity="0.301960784314" d="M-1.65 0.8 L-1.5 1.35 -1.5 1.55 M-1.45 1.8 L-1.35 2.45 M-1.35 2.6 Q-2.1 2.35 -3.25 1.35 L-3.7 0.75"/></g><g id="c44"><g><use transform="matrix(1.0,0.0,0.0,1.0,0.0,0.0)" xlink:href="#c43"/></g></g><g id="c45"><path fill="#4342a8" stroke="none" d="M-1.85 0.15 L-1.4 -0.1 -0.45 -0.6 0.5 0.0 Q0.2 1.35 0.15 2.75 L0.05 5.3 0.0 6.65 Q-0.2 7.65 -0.35 7.75 -2.1 8.45 -3.85 7.15 L-4.2 5.5 -4.2 5.2 -4.0 5.6 -3.65 6.25 -3.75 5.75 -3.75 5.7 -3.7 5.3 -3.1 5.7 Q-2.25 6.3 -1.6 6.3 L-1.15 6.15 -0.9 5.55 -0.7 4.3 -0.65 3.55 -0.7 2.5 -0.7 2.4 -0.7 2.25 -0.75 2.0 -0.75 1.75 -0.75 1.55 -1.0 1.7 Q-1.6 2.05 -2.2 2.5 L-2.25 2.45 -1.95 1.85 -1.75 1.65 -2.6 1.95 -2.9 2.1 -3.25 2.25 -3.25 2.2 -3.2 2.05 -3.15 1.65 -3.05 1.5 -3.8 1.9 -3.85 1.55 -3.85 1.5 Q-3.7 1.2 -2.8 0.65 L-1.85 0.15"/><path fill="#ae4848" stroke="none" d="M-3.15 1.65 L-3.2 2.05 -3.65 2.5 -3.15 1.65 M-3.25 2.2 L-3.25 2.25 -3.35 2.35 -3.25 2.2 M-2.25 2.45 L-2.2 2.5 -2.25 2.5 -2.25 2.45"/><path fill="#847dda" stroke="none" d="M-3.25 2.25 L-2.9 2.1 -2.6 1.95 -1.75 1.65 -1.95 1.85 -2.25 2.45 -2.25 2.5 -2.2 2.5 Q-1.6 2.05 -1.0 1.7 L-0.75 1.55 -0.75 1.75 -0.75 2.0 -0.7 2.25 -0.7 2.4 -0.7 2.5 -0.65 3.55 -0.7 4.3 -0.9 5.55 -1.15 6.15 -1.6 6.3 Q-2.25 6.3 -3.1 5.7 L-3.7 5.3 -3.75 5.7 -3.75 5.75 -3.65 6.25 -4.0 5.6 -4.2 5.2 -4.15 5.1 -4.1 4.85 -3.9 4.0 -3.35 2.35 -3.25 2.25"/><path fill="none" stroke="#000000" stroke-width="0.5" stroke-opacity="0.301960784314" d="M-0.45 -0.6 L-1.4 -0.1 -1.85 0.15 M-2.8 0.65 Q-3.7 1.2 -3.85 1.5 L-3.85 1.55 -3.8 1.9 -3.05 1.5 -3.15 1.65 -3.2 2.05 -3.25 2.2 -3.35 2.35 -3.9 4.0 -4.1 4.85 -4.15 5.1 -4.2 5.2 -4.2 5.5 -3.85 7.15 Q-2.1 8.45 -0.35 7.75 -0.2 7.65 0.0 6.65 L0.05 5.3 0.15 2.75 Q0.2 1.35 0.5 0.0 M-3.65 2.5 L-3.7 2.55 -3.65 2.55 -3.65 2.5 -3.15 1.65 M-3.65 2.5 L-3.2 2.05"/><path fill="none" stroke="#000000" stroke-width="0.5" stroke-opacity="0.450980392157" d="M0.85 2.8 Q-0.2 4.35 -0.55 5.6 L-0.85 6.3"/><path fill="#2b2313" stroke="none" d="M0.3 5.8 Q0.15 4.4 0.6 3.0 -0.2 2.4 -1.35 2.1 L-3.05 2.0 -4.2 4.85 -4.45 5.15 -3.95 5.8 -3.55 5.45 -1.6 5.7 0.25 6.45 0.45 7.0 1.0 6.4 0.3 5.8"/><path fill="none" stroke="#000000" stroke-width="0.5" stroke-opacity="0.450980392157" d="M0.3 5.8 Q0.15 4.4 0.6 3.0 -0.2 2.4 -1.35 2.1 L-3.05 2.0 -4.2 4.85 -4.45 5.15 -3.95 5.8 -3.55 5.45 -1.6 5.7 0.25 6.45 0.45 7.0 1.0 6.4 0.3 5.8"/><path fill="#313a2d" stroke="none" d="M0.2 5.65 L0.2 2.95 -0.5 2.75 -0.3 5.55 0.2 5.65"/><path fill="#5f6540" stroke="none" d="M-3.45 5.25 L-2.35 5.5 -0.4 6.05 -0.4 5.85 Q-0.65 5.65 -1.55 5.4 L-2.85 5.15 Q-3.05 4.65 -1.65 2.35 L-2.55 2.2 Q-3.5 3.95 -3.45 5.25"/></g><g id="c46"><g><use transform="matrix(1.0,0.0,0.0,1.0,0.0,0.0)" xlink:href="#c45"/></g></g><g id="c47"><path fill="#d3706b" stroke="none" d="M12.8 -5.75 L10.35 -1.65 10.2 -1.45 Q10.0 -1.2 9.65 -1.1 9.0 -0.95 8.25 -1.5 L7.25 -2.55 12.8 -5.75"/><path fill="#ecbdb7" stroke="none" d="M7.25 -2.55 L7.05 -2.9 Q6.7 -3.8 6.85 -4.6 7.0 -5.25 7.65 -5.4 L7.7 -5.4 8.0 -5.45 12.8 -5.75 7.25 -2.55"/><path fill="none" stroke="#000000" stroke-width="0.5" stroke-opacity="0.450980392157" d="M7.25 -2.55 L7.05 -2.9 Q6.7 -3.8 6.85 -4.6 7.0 -5.25 7.65 -5.4 L7.7 -5.4 8.0 -5.45 12.8 -5.75 10.35 -1.65 10.2 -1.45 Q10.0 -1.2 9.65 -1.1 9.0 -0.95 8.25 -1.5 L7.25 -2.55"/><path fill="#d3706b" stroke="none" d="M-5.55 3.25 L-3.35 1.9 -1.0 3.55 -1.3 4.0 Q-2.05 4.8 -3.05 4.9 L-4.0 4.75 -4.85 4.25 -5.55 3.25"/><path fill="#ecbdb7" stroke="none" d="M-1.0 3.55 L-3.35 1.9 -5.55 3.25 -5.7 2.55 Q-5.8 1.5 -5.1 0.7 -4.45 -0.05 -3.35 -0.1 -2.3 -0.15 -1.5 0.5 -0.75 1.15 -0.7 2.2 -0.65 2.95 -1.0 3.55"/><path fill="none" stroke="#000000" stroke-width="0.5" stroke-opacity="0.450980392157" d="M-5.55 3.25 L-4.85 4.25 -4.0 4.75 -3.05 4.9 Q-2.05 4.8 -1.3 4.0 L-1.0 3.55 Q-0.65 2.95 -0.7 2.2 -0.75 1.15 -1.5 0.5 -2.3 -0.15 -3.35 -0.1 -4.45 -0.05 -5.1 0.7 -5.8 1.5 -5.7 2.55 L-5.55 3.25"/></g><g id="c48"><g><use transform="matrix(1.0,0.0,0.0,1.0,0.0,0.0)" xlink:href="#c3"/></g></g><g id="c49"><g><use transform="matrix(1.0,0.0,0.0,1.0,0.0,0.0)" xlink:href="#c47"/></g><g><use transform="matrix(1.0,0.0,0.0,1.0,-1.1,-0.55)" xlink:href="#c48"/></g></g><g id="c50"><g><use transform="matrix(-0.912536621094,0.0,0.0,0.456268310547,-1.8,-0.5)" filter="url(#filter28)" xlink:href="#c9"/></g><g><use transform="matrix(1.0,0.0,0.0,1.0,0.25,-5.1)" xlink:href="#c11"/></g><g><use transform="matrix(1.0,0.0,0.0,1.0,3.05,-10.25)" xlink:href="#c13"/></g><g><use transform="matrix(1.0,0.0,0.0,1.0,2.7,-2.75)" xlink:href="#c15"/></g><g><use transform="matrix(1.0,0.0,0.0,1.0,1.9,-5.1)" xlink:href="#c17"/></g><g><use transform="matrix(1.0,0.0,0.0,1.0,0.85,-11.95)" xlink:href="#c19"/></g><g><use transform="matrix(1.0,0.0,0.0,1.0,-0.55,-12.45)" xlink:href="#c21"/></g><g><use transform="matrix(1.0,0.0,0.0,1.0,0.6,-11.0)" xlink:href="#c23"/></g><g><use transform="matrix(1.0,0.0,0.0,1.0,-3.6,-10.15)" xlink:href="#c25"/></g><g><use transform="matrix(1.0,0.0,0.0,1.0,-2.9,-0.1)" xlink:href="#c27"/></g><g><use transform="matrix(1.0,0.0,0.0,1.0,-2.05,-4.35)" xlink:href="#c29"/></g><g><use transform="matrix(1.0,0.0,0.0,1.0,-1.7,-11.4)" xlink:href="#c31"/></g><g><use transform="matrix(1.0,0.0,0.0,1.0,-1.0,-11.4)" xlink:href="#c33"/></g><g><use transform="matrix(1.0,0.0,0.0,1.0,0.75,-9.5)" xlink:href="#c34"/></g><g><use transform="matrix(1.0,0.0,0.0,1.0,4.55,-26.75)" xlink:href="#c36"/></g><g><use transform="matrix(1.0,0.0,0.0,1.0,0.7,-14.45)" xlink:href="#c38"/></g><g><use transform="matrix(1.0,0.0,0.0,1.0,-10.9,-17.95)" xlink:href="#c40"/></g><g><use transform="matrix(1.0,0.0,0.0,1.0,-0.65,-19.8)" xlink:href="#c42"/></g><g><use transform="matrix(1.0,0.0,0.0,1.0,1.1,-14.15)" xlink:href="#c44"/></g><g><use transform="matrix(1.0,0.0,0.0,1.0,-3.35,-8.6)" xlink:href="#c46"/></g><g><use transform="matrix(1.0,0.0,0.0,1.0,-3.0,-25.5)" xlink:href="#c49"/></g><g><use transform="matrix(1.0,0.0,0.0,1.0,0.0,0.0)" xlink:href="#c1"/></g></g><filter id="filter28"><feColorMatrix in="SourceGraphic" type="matrix" values="1.0 0.0 0.0 0.0 0.0 0.0 1.0 0.0 0.0 0.0 0.0 0.0 1.0 0.0 0.0 0.0 0.0 0.0 0.5 0.0" result="cxform"/><feComposite operator="in" in2="SourceGraphic" result="color-xform"/></filter><g id="c51"><path fill="#000000" fill-opacity="0.00392156862745" d="M0.0 0.0 L60.0 0.0 60.0 60.0 0.0 60.0 0.0 0.0"/></g><g id="c52"><path fill="none" stroke="#000000" stroke-width="1.0" stroke-opacity="0.301960784314" d="M0.7 12.25 Q-0.45 9.75 0.75 8.25 1.2 7.6 2.15 7.15 2.8 6.7 3.8 6.35 L17.5 1.95 30.2 7.0 41.35 31.7 Q42.95 35.15 40.2 36.7 39.5 37.3 38.3 37.65 L25.5 41.8 25.45 41.75 24.55 42.0 11.85 37.0 0.7 12.25"/><path fill="#9d147b" stroke="none" d="M35.55 22.3 L31.5 13.2 29.75 9.2 16.95 4.25 5.5 7.85 Q1.65 9.1 3.35 12.8 L8.25 23.65 13.1 34.35 25.8 39.4 37.2 35.7 Q41.1 34.5 39.35 30.75 L35.55 22.3 M5.45 20.95 L1.35 11.8 Q0.4 9.65 1.1 8.3 1.45 7.65 2.15 7.15 2.8 6.7 3.8 6.35 L17.5 1.95 30.2 7.0 41.35 31.7 Q42.95 35.15 40.2 36.7 L38.9 37.25 25.2 41.65 12.5 36.65 5.45 20.95"/><path fill="#c47fad" stroke="none" d="M31.5 13.2 L35.55 22.3 39.35 30.75 Q41.1 34.5 37.2 35.7 L25.8 39.4 13.1 34.35 8.25 23.65 3.35 12.8 Q1.65 9.1 5.5 7.85 L16.95 4.25 29.75 9.2 31.5 13.2 M18.5 7.45 L9.1 10.55 9.55 11.6 Q9.8 12.8 9.15 13.6 8.4 14.45 7.1 14.4 L6.8 14.4 6.95 14.6 15.2 32.75 23.85 36.2 34.0 32.9 33.7 32.1 Q33.45 30.9 34.1 30.1 34.75 29.3 35.95 29.35 L35.8 29.0 27.75 10.95 18.5 7.45"/><path fill="#fcf2cf" stroke="none" d="M27.75 10.95 L35.8 29.0 35.95 29.35 Q34.75 29.3 34.1 30.1 33.45 30.9 33.7 32.1 L34.0 32.9 23.85 36.2 15.2 32.75 6.95 14.6 6.8 14.4 7.1 14.4 Q8.4 14.45 9.15 13.6 9.8 12.8 9.55 11.6 L9.1 10.55 18.5 7.45 27.75 10.95"/><path fill="#630a4c" stroke="none" d="M1.1 8.3 L0.75 8.25 Q1.2 7.6 2.15 7.15 1.45 7.65 1.1 8.3 M4.6 20.9 L5.45 20.95 12.5 36.65 11.55 36.25 11.25 35.55 4.6 20.9"/><path fill="#300525" stroke="none" d="M1.1 8.3 Q0.4 9.65 1.35 11.8 L5.45 20.95 4.6 20.9 0.7 12.25 Q-0.45 9.75 0.75 8.25 L1.1 8.3 M12.5 36.65 L25.2 41.65 38.9 37.25 40.2 36.7 Q39.5 37.3 38.3 37.65 L25.5 41.8 25.45 41.75 24.55 42.0 11.85 37.0 11.55 36.25 12.5 36.65"/><path fill="none" stroke="#bf9900" stroke-width="1.0" stroke-opacity="0.749019607843" d="M31.5 13.2 L35.55 22.3 M13.1 34.35 L8.25 23.65"/><path fill="none" stroke="#ffcc00" stroke-width="1.0" stroke-opacity="0.749019607843" d="M35.55 22.3 L39.35 30.75 Q41.1 34.5 37.2 35.7 L25.8 39.4 M8.25 23.65 L3.35 12.8 Q1.65 9.1 5.5 7.85 L16.95 4.25 29.75 9.2 31.5 13.2"/><path fill="none" stroke="#f0b92b" stroke-width="0.5" d="M27.75 10.95 L35.8 29.0 35.95 29.35 Q34.75 29.3 34.1 30.1 33.45 30.9 33.7 32.1 L34.0 32.9 23.85 36.2 15.2 32.75 6.95 14.6 6.8 14.4 7.1 14.4 Q8.4 14.45 9.15 13.6 9.8 12.8 9.55 11.6 L9.1 10.55 18.5 7.45"/><path fill="none" stroke="#000000" stroke-width="0.5" stroke-opacity="0.301960784314" d="M5.45 20.95 L1.35 11.8 Q0.4 9.65 1.1 8.3 M0.75 8.25 Q-0.45 9.75 0.7 12.25 L4.6 20.9 M5.45 20.95 L12.5 36.65 M25.2 41.65 L38.9 37.25 40.2 36.7 Q42.95 35.15 41.35 31.7 L30.2 7.0 M17.5 1.95 L3.8 6.35 Q2.8 6.7 2.15 7.15 1.45 7.65 1.1 8.3 M0.75 8.25 Q1.2 7.6 2.15 7.15 M11.25 35.55 L4.6 20.9 M25.5 41.8 L38.3 37.65 Q39.5 37.3 40.2 36.7"/><path fill="none" stroke="#ffcc00" stroke-width="0.5" stroke-opacity="0.749019607843" d="M18.5 7.45 L27.75 10.95"/><path fill="none" stroke="#f0b92b" stroke-width="1.0" stroke-opacity="0.749019607843" d="M25.8 39.4 L13.1 34.35"/><path fill="none" stroke="#432f2f" stroke-width="0.5" d="M12.5 36.65 L25.2 41.65"/></g><g id="c53"><path fill="#7fdbfe" stroke="none" d="M10.75 4.9 Q10.75 4.6 10.9 4.35 11.25 3.45 11.95 2.75 13.3 1.5 14.35 2.1 15.4 2.7 14.95 4.45 14.7 5.4 14.1 6.15 L13.75 6.5 Q13.1 7.15 12.35 7.35 L11.4 7.2 Q10.95 6.9 10.75 6.4 10.5 5.75 10.75 4.9 M7.5 5.9 Q7.0 5.85 6.6 5.5 6.05 5.0 5.8 4.15 L5.7 3.6 Q5.55 2.65 5.8 1.7 6.25 0.0 7.5 0.0 L7.6 0.0 Q8.85 0.0 9.3 1.7 9.55 2.65 9.4 3.6 L9.3 4.15 8.5 5.5 7.6 5.9 7.5 5.9 M4.35 4.9 Q4.6 5.75 4.35 6.4 L3.7 7.2 2.75 7.35 Q2.0 7.15 1.35 6.5 L1.0 6.15 Q0.4 5.4 0.15 4.45 -0.3 2.7 0.75 2.1 1.8 1.5 3.15 2.75 3.85 3.45 4.2 4.35 L4.35 4.9 M5.5 13.7 Q4.45 13.9 3.65 12.95 2.75 12.0 3.2 10.25 3.7 8.5 5.25 7.6 6.4 6.9 7.55 7.0 8.75 6.9 9.9 7.6 11.45 8.5 11.95 10.25 12.35 12.0 11.5 12.95 10.7 13.9 9.65 13.7 8.55 13.5 7.55 12.6 6.55 13.5 5.5 13.7"/></g><g id="c54"><g><use transform="matrix(1.0,0.0,0.0,1.0,0.0,0.0)" xlink:href="#c53"/></g></g><radialGradient gradientUnits="userSpaceOnUse" r="819.2" cx="0" cy="0" spreadMethod="pad" gradientTransform="matrix(0.0914459228516,0.0,0.0,0.0914459228516,0.6,3.4)" id="gradient2"><stop offset="0.0" stop-color="#ffffff"/><stop offset="1.0" stop-color="#ffffff" stop-opacity="0.0"/></radialGradient><g id="c55"><path stroke="none" fill="url(#gradient2)" d="M36.65 -54.65 Q60.05 -42.0 69.75 -17.95 80.55 8.9 68.0 34.1 55.45 59.35 26.8 68.2 -1.8 77.05 -29.7 64.3 -57.6 51.6 -68.45 24.75 -79.3 -2.05 -66.75 -27.25 L-66.7 -27.3 Q-54.1 -52.5 -25.5 -61.4 3.1 -70.2 31.0 -57.5 L36.65 -54.65"/></g><g id="c56"><g><use transform="matrix(1.0,0.0,0.0,1.0,0.0,0.0)" xlink:href="#c55"/></g></g><radialGradient gradientUnits="userSpaceOnUse" r="819.2" cx="0" cy="0" spreadMethod="pad" gradientTransform="matrix(0.209197998047,0.0,0.0,0.177108764648,67.15,107.2)" id="gradient3"><stop offset="0.356862745098" stop-color="#ffffff"/><stop offset="0.670588235294" stop-opacity="0.0"/></radialGradient><g id="c57"><path fill="none" stroke-linejoin="round" stroke-linecap="round" stroke="url(#gradient3)" stroke-width="0.5" d="M136.55 165.8 L68.6 106.0 68.4 106.0 118.25 201.5 M68.3 105.8 L68.35 105.8 68.3 105.8 68.3 105.85 68.4 106.0 68.3 106.0 86.55 211.5 M68.3 105.8 L68.3 105.85 68.3 106.0 68.15 105.95 18.25 151.55 M68.3 105.85 L68.25 105.85 68.3 106.0 50.0 193.2 M68.25 105.85 L68.15 105.95 0.05 97.7 M68.3 105.85 L68.25 105.8 68.25 105.85 M68.25 105.8 L68.2 105.7 0.0 45.7 M68.3 105.8 L68.25 105.75 68.25 105.8 M68.25 105.75 L68.2 105.7 18.25 10.05 M68.6 106.0 L68.35 105.8 118.25 60.15 M86.6 18.35 L68.3 105.8 M136.6 114.25 L68.6 106.0 M68.25 105.75 L49.95 0.05"/></g><g id="c58"><g><use transform="matrix(1.0,0.0,0.0,1.0,0.0,0.0)" xlink:href="#c57"/></g></g><g id="c59"><g><use transform="matrix(1.0,0.0,0.0,1.0,0.0,0.0)" xlink:href="#c52"/></g><g><use transform="matrix(0.238861083984,-0.0867004394531,0.10026550293,0.233917236328,34.25,31.15)" xlink:href="#c54"/></g><g><use transform="matrix(0.238861083984,-0.0867004394531,0.10026550293,0.233917236328,4.25,10.3)" xlink:href="#c54"/></g><g><use transform="matrix(0.141098022461,-0.0378112792969,0.111373901367,0.225646972656,20.25,20.65)" filter="url(#filter56)" xlink:href="#c56"/></g><g><use transform="matrix(-0.155029296875,0.0513153076172,0.0841827392578,0.147033691406,22.6,3.15)" filter="url(#filter57)" xlink:href="#c58"/></g></g><filter id="filter56"><feColorMatrix in="SourceGraphic" type="matrix" values="0.0 0.0 0.0 0.0 0.796875 0.0 0.0 0.0 0.0 0.59765625 0.0 0.0 0.0 0.0 0.19921875 0.0 0.0 0.0 1.0 0.0" result="cxform"/><feComposite operator="in" in2="SourceGraphic" result="color-xform"/></filter><filter id="filter57"><feColorMatrix in="SourceGraphic" type="matrix" values="0.0 0.0 0.0 0.0 0.99609375 0.0 0.0 0.0 0.0 0.99609375 0.0 0.0 0.0 0.0 0.99609375 0.0 0.0 0.0 1.0 0.0" result="cxform"/><feComposite operator="in" in2="SourceGraphic" result="color-xform"/></filter><filter id="filter61"><feColorMatrix in="SourceGraphic" type="matrix" values="1.0 0.0 0.0 0.0 0.0 0.0 1.0 0.0 0.0 0.0 0.0 0.0 1.0 0.0 0.0 0.0 0.0 0.0 0.23046875 0.0" result="cxform"/><feComposite operator="in" in2="SourceGraphic" result="color-xform"/></filter></defs><g><g><use transform="matrix(1.0,0.0,0.0,1.0,0.0,0.0)" xlink:href="#c51"/></g><g><use transform="matrix(1.15496826172,0.0,0.0,1.15496826172,5.85,4.8)" xlink:href="#c59"/></g><g><use transform="matrix(0.402236938477,-0.13786315918,0.13786315918,0.402236938477,34.75,36.9)" xlink:href="#c50"/></g><g><use transform="matrix(0.162948608398,-0.0436706542969,0.128631591797,0.260604858398,30.0,28.7)" filter="url(#filter61)" xlink:href="#c56"/></g></g></svg>