<?xml version='1.0' encoding='UTF-8'?>
<svg xmlns:xlink="http://www.w3.org/1999/xlink" xmlns="http://www.w3.org/2000/svg" version="1.1" width="60px" height="60px" viewBox="0.0 0.0 60.0 60.0"><defs><g id="c1"><path fill="#000000" fill-opacity="0.00392156862745" d="M0.0 0.0 L60.0 0.0 60.0 60.0 0.0 60.0 0.0 0.0"/></g><g id="c2"><path fill="#006699" stroke="none" d="M31.5 39.85 L19.8 43.65 Q17.15 44.45 15.5 43.3 14.35 42.55 13.65 40.9 L1.7 14.45 1.6 14.3 1.2 13.45 -0.75 9.05 Q-2.05 6.2 -0.3 4.75 0.3 4.25 1.2 3.9 L5.5 2.25 Q8.95 0.95 10.65 4.15 L22.3 0.4 Q26.55 -1.0 28.45 3.1 L40.55 29.95 40.9 30.7 42.95 35.15 Q43.95 37.35 43.15 38.7 42.5 39.7 40.95 40.25 L36.65 41.8 35.1 42.2 Q32.75 42.3 31.5 39.85"/><path fill="none" stroke="#000000" stroke-width="1.0" stroke-opacity="0.298039215686" d="M31.5 39.85 L19.8 43.65 Q17.15 44.45 15.5 43.3 14.35 42.55 13.65 40.9 L1.7 14.45 1.6 14.3 1.2 13.45 -0.75 9.05 Q-2.05 6.2 -0.3 4.75 0.3 4.25 1.2 3.9 L5.5 2.25 Q8.95 0.95 10.65 4.15 L22.3 0.4 Q26.55 -1.0 28.45 3.1 L40.55 29.95 40.9 30.7 42.95 35.15 Q43.95 37.35 43.15 38.7 42.5 39.7 40.95 40.25 L36.65 41.8 35.1 42.2 Q32.75 42.3 31.5 39.85"/><path fill="#300525" stroke="none" d="M0.75 8.25 L29.8 9.75 25.55 0.9 Q26.9 1.6 27.8 3.55 L40.7 32.15 Q42.6 36.3 38.3 37.65 L23.3 42.5 13.15 21.4 4.6 20.9 0.7 12.25 Q-0.45 9.75 0.75 8.25 M20.1 43.55 L19.8 43.65 Q17.15 44.45 15.5 43.3 L20.1 43.55"/><path fill="#630a4c" stroke="none" d="M25.55 0.9 L29.8 9.75 0.75 8.25 Q1.45 7.3 3.1 6.75 L21.65 0.8 25.55 0.9 M4.6 20.9 L13.15 21.4 23.3 42.5 20.1 43.55 15.5 43.3 Q14.35 42.55 13.65 40.9 L4.6 20.9"/><path fill="none" stroke="#000000" stroke-width="0.5" stroke-opacity="0.301960784314" d="M0.75 8.25 Q-0.45 9.75 0.7 12.25 L4.6 20.9 M23.3 42.5 L38.3 37.65 Q42.6 36.3 40.7 32.15 L27.8 3.55 Q26.9 1.6 25.55 0.9 L21.65 0.8 3.1 6.75 Q1.45 7.3 0.75 8.25 M20.1 43.55 L19.8 43.65 Q17.15 44.45 15.5 43.3 14.35 42.55 13.65 40.9 L4.6 20.9 M20.1 43.55 L23.3 42.5"/><path fill="#9d147b" stroke="none" d="M14.2 40.5 L1.35 11.8 Q-0.5 7.75 3.8 6.35 L22.3 0.4 Q26.55 -1.0 28.45 3.1 L41.35 31.7 Q43.25 35.85 38.9 37.25 L20.4 43.2 Q16.1 44.55 14.2 40.5"/><path fill="none" stroke="#000000" stroke-width="0.5" stroke-opacity="0.301960784314" d="M14.2 40.5 L1.35 11.8 Q-0.5 7.75 3.8 6.35 L22.3 0.4 Q26.55 -1.0 28.45 3.1 L41.35 31.7 Q43.25 35.85 38.9 37.25 L20.4 43.2 Q16.1 44.55 14.2 40.5"/><path fill="#9d147b" stroke="none" d="M31.4 39.65 L31.3 39.45 31.25 39.4 29.25 34.95 Q27.55 31.2 31.25 29.85 L35.6 28.25 Q38.8 27.1 40.5 29.85 L40.9 30.7 42.95 35.15 Q43.95 37.35 43.15 38.7 42.5 39.45 41.2 39.9 L36.9 41.45 34.85 41.85 Q32.9 41.7 31.75 39.5 L31.4 39.65"/><path fill="#630a4c" stroke="none" d="M43.15 38.7 Q42.5 39.7 40.95 40.25 L36.65 41.8 35.1 42.2 Q32.75 42.3 31.45 39.8 L31.4 39.65 31.75 39.5 Q32.9 41.7 34.85 41.85 L36.9 41.45 41.2 39.9 Q42.5 39.45 43.15 38.7"/><path fill="none" stroke="#003333" stroke-width="0.5" stroke-opacity="0.509803921569" d="M43.15 38.7 Q42.5 39.7 40.95 40.25 L36.65 41.8 35.1 42.2 Q32.75 42.3 31.45 39.8 L31.4 39.65 30.3 40.0 31.4 39.65 M40.5 29.85 L40.9 30.7 42.95 35.15 Q43.95 37.35 43.15 38.7 42.5 39.45 41.2 39.9 L36.9 41.45 34.85 41.85 Q32.9 41.7 31.75 39.5 L31.4 39.65"/><path fill="#9d147b" stroke="none" d="M10.65 4.2 L10.85 4.6 12.85 9.05 Q14.5 12.8 10.8 14.15 L6.5 15.8 Q4.5 16.6 3.1 15.8 L1.75 12.85 -0.2 8.45 Q-1.25 6.15 -0.3 4.75 0.3 4.25 1.2 3.9 L5.5 2.25 Q9.0 0.95 10.65 4.2"/><path fill="#300525" stroke="none" d="M-0.3 4.75 Q-1.25 6.15 -0.2 8.45 L1.75 12.85 3.1 15.8 Q2.25 15.35 1.6 14.3 L1.2 13.45 -0.75 9.05 Q-2.05 6.2 -0.3 4.75"/><path fill="none" stroke="#003333" stroke-width="0.5" stroke-opacity="0.509803921569" d="M3.1 15.8 L6.45 23.15 M-0.3 4.75 Q0.3 4.25 1.2 3.9 L5.5 2.25 Q9.0 0.95 10.65 4.2 M3.1 15.8 L1.75 12.85 -0.2 8.45 Q-1.25 6.15 -0.3 4.75 -2.05 6.2 -0.75 9.05 L1.2 13.45 1.6 14.3"/><path fill="#fcf2cf" stroke="none" d="M9.15 13.6 Q9.8 12.8 9.55 11.6 L9.1 10.55 22.05 6.35 Q24.9 5.45 26.25 7.85 L26.5 8.3 35.8 29.0 35.95 29.35 Q34.75 29.3 34.1 30.1 33.45 30.9 33.7 32.1 L34.0 32.9 20.65 37.2 Q18.8 37.8 17.65 37.0 16.8 36.4 16.3 35.2 L6.95 14.6 6.8 14.4 7.1 14.4 Q8.4 14.45 9.15 13.6"/><path fill="#c47fad" stroke="none" d="M9.15 13.6 Q8.4 14.45 7.1 14.4 L6.8 14.4 6.95 14.6 16.3 35.2 Q16.8 36.4 17.65 37.0 18.8 37.8 20.65 37.2 L34.0 32.9 33.7 32.1 Q33.45 30.9 34.1 30.1 34.75 29.3 35.95 29.35 L35.8 29.0 26.5 8.3 26.25 7.85 Q24.9 5.45 22.05 6.35 L9.1 10.55 9.55 11.6 Q9.8 12.8 9.15 13.6 M28.25 6.1 L35.55 22.3 39.35 30.75 Q41.1 34.5 37.2 35.7 L20.45 41.1 Q16.8 42.25 15.2 39.0 L15.0 38.6 8.25 23.65 3.35 12.8 Q1.65 9.1 5.5 7.85 L22.25 2.5 Q26.05 1.25 27.75 4.95 L28.25 6.1"/><path fill="none" stroke="#ffcc00" stroke-width="1.0" stroke-opacity="0.749019607843" d="M35.55 22.3 L39.35 30.75 Q41.1 34.5 37.2 35.7 L20.45 41.1 Q16.8 42.25 15.2 39.0 L15.0 38.6 M8.25 23.65 L3.35 12.8 Q1.65 9.1 5.5 7.85 L22.25 2.5 Q26.05 1.25 27.75 4.95 L28.25 6.1"/><path fill="none" stroke="#bf9900" stroke-width="1.0" stroke-opacity="0.749019607843" d="M28.25 6.1 L35.55 22.3 M15.0 38.6 L8.25 23.65"/><path fill="none" stroke="#f0b92b" stroke-width="0.5" d="M9.15 13.6 Q9.8 12.8 9.55 11.6 L9.1 10.55 22.05 6.35 Q24.9 5.45 26.25 7.85 L26.5 8.3 35.8 29.0 35.95 29.35 Q34.75 29.3 34.1 30.1 33.45 30.9 33.7 32.1 L34.0 32.9 20.65 37.2 Q18.8 37.8 17.65 37.0 16.8 36.4 16.3 35.2 L6.95 14.6 6.8 14.4 7.1 14.4 Q8.4 14.45 9.15 13.6"/></g><g id="c3"><path fill="#7fdbfe" stroke="none" d="M10.75 4.9 Q10.75 4.6 10.9 4.35 11.25 3.45 11.95 2.75 13.3 1.5 14.35 2.1 15.4 2.7 14.95 4.45 14.7 5.4 14.1 6.15 L13.75 6.5 Q13.1 7.15 12.35 7.35 L11.4 7.2 Q10.95 6.9 10.75 6.4 10.5 5.75 10.75 4.9 M7.5 5.9 Q7.0 5.85 6.6 5.5 6.05 5.0 5.8 4.15 L5.7 3.6 Q5.55 2.65 5.8 1.7 6.25 0.0 7.5 0.0 L7.6 0.0 Q8.85 0.0 9.3 1.7 9.55 2.65 9.4 3.6 L9.3 4.15 8.5 5.5 7.6 5.9 7.5 5.9 M4.35 4.9 Q4.6 5.75 4.35 6.4 L3.7 7.2 2.75 7.35 Q2.0 7.15 1.35 6.5 L1.0 6.15 Q0.4 5.4 0.15 4.45 -0.3 2.7 0.75 2.1 1.8 1.5 3.15 2.75 3.85 3.45 4.2 4.35 L4.35 4.9 M5.5 13.7 Q4.45 13.9 3.65 12.95 2.75 12.0 3.2 10.25 3.7 8.5 5.25 7.6 6.4 6.9 7.55 7.0 8.75 6.9 9.9 7.6 11.45 8.5 11.95 10.25 12.35 12.0 11.5 12.95 10.7 13.9 9.65 13.7 8.55 13.5 7.55 12.6 6.55 13.5 5.5 13.7"/></g><g id="c4"><g><use transform="matrix(1.0,0.0,0.0,1.0,0.0,0.0)" xlink:href="#c3"/></g></g><radialGradient gradientUnits="userSpaceOnUse" r="819.2" cx="0" cy="0" spreadMethod="pad" gradientTransform="matrix(0.0914459228516,0.0,0.0,0.0914459228516,0.6,3.4)" id="gradient1"><stop offset="0.0" stop-color="#ffffff"/><stop offset="1.0" stop-color="#ffffff" stop-opacity="0.0"/></radialGradient><g id="c5"><path stroke="none" fill="url(#gradient1)" d="M36.65 -54.65 Q60.05 -42.0 69.75 -17.95 80.55 8.9 68.0 34.1 55.45 59.35 26.8 68.2 -1.8 77.05 -29.7 64.3 -57.6 51.6 -68.45 24.75 -79.3 -2.05 -66.75 -27.25 L-66.7 -27.3 Q-54.1 -52.5 -25.5 -61.4 3.1 -70.2 31.0 -57.5 L36.65 -54.65"/></g><g id="c6"><g><use transform="matrix(1.0,0.0,0.0,1.0,0.0,0.0)" xlink:href="#c5"/></g></g><radialGradient gradientUnits="userSpaceOnUse" r="819.2" cx="0" cy="0" spreadMethod="pad" gradientTransform="matrix(0.209197998047,0.0,0.0,0.177108764648,67.15,107.2)" id="gradient2"><stop offset="0.356862745098" stop-color="#ffffff"/><stop offset="0.670588235294" stop-opacity="0.0"/></radialGradient><g id="c7"><path fill="none" stroke-linejoin="round" stroke-linecap="round" stroke="url(#gradient2)" stroke-width="0.5" d="M136.55 165.8 L68.6 106.0 68.4 106.0 118.25 201.5 M68.3 105.8 L68.35 105.8 68.3 105.8 68.3 105.85 68.4 106.0 68.3 106.0 86.55 211.5 M68.3 105.8 L68.3 105.85 68.3 106.0 68.15 105.95 18.25 151.55 M68.3 105.85 L68.25 105.85 68.3 106.0 50.0 193.2 M68.25 105.85 L68.15 105.95 0.05 97.7 M68.3 105.85 L68.25 105.8 68.25 105.85 M68.25 105.8 L68.2 105.7 0.0 45.7 M68.3 105.8 L68.25 105.75 68.25 105.8 M68.25 105.75 L68.2 105.7 18.25 10.05 M68.6 106.0 L68.35 105.8 118.25 60.15 M86.6 18.35 L68.3 105.8 M136.6 114.25 L68.6 106.0 M68.25 105.75 L49.95 0.05"/></g><g id="c8"><g><use transform="matrix(1.0,0.0,0.0,1.0,0.0,0.0)" xlink:href="#c7"/></g></g><g id="c9"><g><use transform="matrix(1.0,0.0,0.0,1.0,0.0,0.0)" xlink:href="#c2"/></g><g><use transform="matrix(0.238861083984,-0.0867004394531,0.10026550293,0.233917236328,34.25,31.15)" xlink:href="#c4"/></g><g><use transform="matrix(0.238861083984,-0.0867004394531,0.10026550293,0.233917236328,4.25,10.3)" xlink:href="#c4"/></g><g><use transform="matrix(0.141098022461,-0.0378112792969,0.111373901367,0.225646972656,20.25,20.65)" filter="url(#filter7)" xlink:href="#c6"/></g><g><use transform="matrix(-0.155029296875,0.0513153076172,0.0841827392578,0.147033691406,22.6,3.15)" filter="url(#filter8)" xlink:href="#c8"/></g></g><filter id="filter7"><feColorMatrix in="SourceGraphic" type="matrix" values="0.0 0.0 0.0 0.0 0.796875 0.0 0.0 0.0 0.0 0.59765625 0.0 0.0 0.0 0.0 0.19921875 0.0 0.0 0.0 1.0 0.0" result="cxform"/><feComposite operator="in" in2="SourceGraphic" result="color-xform"/></filter><filter id="filter8"><feColorMatrix in="SourceGraphic" type="matrix" values="0.0 0.0 0.0 0.0 0.99609375 0.0 0.0 0.0 0.0 0.99609375 0.0 0.0 0.0 0.0 0.99609375 0.0 0.0 0.0 1.0 0.0" result="cxform"/><feComposite operator="in" in2="SourceGraphic" result="color-xform"/></filter><linearGradient gradientUnits="userSpaceOnUse" x1="-819.2" x2="819.2" spreadMethod="pad" gradientTransform="matrix(0.0198364257812,0.0204772949219,-0.00753784179688,0.00799560546875,75.9,23.3)" id="gradient3"><stop offset="0.00392156862745" stop-color="#a89f82"/><stop offset="0.266666666667" stop-color="#746d5d"/><stop offset="0.286274509804" stop-color="#e9e6c9"/><stop offset="0.321568627451" stop-color="#d1cec7"/><stop offset="0.333333333333" stop-color="#343029"/><stop offset="0.392156862745" stop-color="#6f665e"/><stop offset="0.643137254902" stop-color="#52493f"/><stop offset="1.0" stop-color="#959a87"/></linearGradient><g id="c10"><path fill="#2b271f" stroke="none" d="M46.1 75.9 L47.1 76.4 52.2 81.65 47.9 83.6 41.55 90.8 41.35 90.8 38.1 88.0 37.95 87.85 36.95 86.9 37.1 86.2 46.1 75.9 M31.05 93.1 L32.85 92.45 40.55 100.8 32.05 102.45 Q27.95 105.7 23.7 108.8 L21.55 107.65 19.75 106.05 31.05 93.1"/><path fill="#3d3830" stroke="none" d="M41.55 90.8 L47.9 83.6 52.2 81.65 54.0 84.9 50.05 89.8 47.75 92.3 45.3 92.75 41.55 90.8 M40.55 100.8 L42.7 103.25 39.55 107.65 34.0 112.75 Q32.7 113.25 31.2 113.55 L23.7 108.8 Q27.95 105.7 32.05 102.45 L40.55 100.8"/><path fill="none" stroke="#382510" stroke-width="1.0" stroke-opacity="0.301960784314" d="M52.2 81.65 L47.1 76.4 46.1 75.9 M36.95 86.9 L37.95 87.85 M38.1 88.0 L41.35 90.8 41.55 90.8 M52.2 81.65 L54.0 84.9 50.05 89.8 47.75 92.3 45.3 92.75 41.55 90.8 M31.05 93.1 L32.85 92.45 40.55 100.8 42.7 103.25 39.55 107.65 34.0 112.75 Q32.7 113.25 31.2 113.55 L23.7 108.8 21.55 107.65 19.75 106.05"/><path fill="#2b271f" stroke="none" d="M50.35 48.55 L52.35 46.45 58.05 52.15 58.4 62.3 Q57.75 71.65 49.55 80.35 L37.1 92.75 36.6 93.45 16.3 113.55 10.75 108.0 50.2 68.35 50.35 48.55"/><path fill="#302c1f" stroke="none" d="M58.05 52.15 L67.4 61.5 66.9 62.95 58.75 71.15 49.55 80.35 Q57.75 71.65 58.4 62.3 L58.05 52.15"/><path fill="#3d3830" stroke="none" d="M10.75 108.0 L3.05 100.3 5.2 93.6 50.35 48.55 50.2 68.35 10.75 108.0"/><path fill="none" stroke="#382510" stroke-width="1.0" stroke-opacity="0.301960784314" d="M50.35 48.55 L52.35 46.45 M67.4 61.5 L66.9 62.95 58.75 71.15 49.55 80.35 37.1 92.75 36.6 93.45 16.3 113.55 10.75 108.0 3.05 100.3 5.2 93.6 50.35 48.55"/><path fill="#fcf3d8" fill-opacity="0.301960784314" d="M31.45 74.6 Q31.45 75.9 30.55 76.8 29.65 77.75 28.4 77.75 27.15 77.7 26.2 76.85 25.3 75.9 25.35 74.7 25.35 73.35 26.2 72.5 27.1 71.6 28.4 71.6 29.6 71.55 30.55 72.5 31.45 73.35 31.45 74.6 M33.05 78.7 Q34.85 76.9 34.85 74.35 34.9 71.8 33.05 70.0 31.95 68.9 30.55 68.45 28.45 66.45 28.2 62.65 28.3 67.1 26.7 68.5 25.4 69.0 24.35 70.0 22.55 71.8 22.5 74.4 22.5 76.8 24.1 78.6 L24.3 78.75 23.65 81.1 25.6 79.75 Q27.0 80.55 28.65 80.55 30.3 80.55 31.7 79.75 33.7 81.1 35.75 82.6 L33.05 78.7"/><path fill="#fcf3d8" stroke="none" d="M31.45 74.6 Q31.45 73.35 30.55 72.5 29.6 71.55 28.4 71.6 27.1 71.6 26.2 72.5 25.35 73.35 25.35 74.7 25.3 75.9 26.2 76.85 27.15 77.7 28.4 77.75 29.65 77.75 30.55 76.8 31.45 75.9 31.45 74.6"/><path fill="#fcf3d8" stroke="none" d="M29.05 72.6 L36.65 67.05 30.25 73.65 32.35 80.15 28.3 75.8 16.6 84.65 27.05 74.0 16.15 53.4 29.05 72.6"/><path fill="none" stroke="#382510" stroke-width="1.0" stroke-opacity="0.301960784314" d="M76.65 72.8 Q74.8 72.8 72.55 71.8 L72.2 71.95 72.05 71.8 71.7 71.8 71.05 71.65 Q69.6 71.15 68.1 70.15 L66.45 69.35 Q64.2 68.2 61.9 66.4 L60.4 65.25 57.65 62.6 56.5 61.65 53.7 58.35 52.4 56.75 Q50.25 53.95 48.6 51.0 L47.8 49.2 46.5 46.25 46.0 44.45 45.85 44.45 Q45.0 40.85 45.35 38.4 L46.15 36.25 Q45.2 32.15 46.15 27.9 L64.2 8.6 64.5 7.6 68.45 4.8 Q71.2 2.85 74.5 4.0 75.5 3.5 76.65 3.35 77.1 3.0 77.6 3.0 77.75 2.5 78.25 2.0 L80.05 0.55 Q80.55 -0.45 81.4 -1.4 83.0 -3.2 85.8 -3.4 88.6 -3.55 92.2 -2.05 L93.5 -1.75 Q98.75 0.4 103.8 4.95 L106.9 8.1 Q113.95 15.45 116.75 23.3 L117.25 24.45 Q118.55 28.7 117.9 31.5 117.55 33.3 116.25 34.45 L115.1 35.6 114.3 35.95 Q113.95 37.05 113.15 37.9 L111.65 39.05 Q111.35 39.85 111.2 40.85 L111.5 42.0 Q112.15 45.25 110.35 47.7 L107.4 51.8 105.45 54.95 Q104.45 55.9 103.3 56.55 L101.05 58.55 Q100.7 60.0 99.7 61.0 98.55 62.15 97.25 62.6 L93.8 65.75 M85.8 -3.4 L90.4 2.85 87.25 5.45 Q88.1 5.15 89.25 5.45 L92.0 6.1 Q93.5 6.6 94.8 7.45 L97.6 5.15 93.5 -1.75 M74.5 4.0 L75.8 4.5 Q69.25 6.3 68.45 7.25 67.45 8.25 66.8 9.55 L66.65 9.9 Q65.5 12.85 66.95 18.1 L77.45 12.65 Q76.65 10.55 76.45 8.9 L76.45 8.6 Q75.95 4.95 77.6 3.0 M77.45 12.65 L77.6 13.35 Q77.6 13.65 77.95 13.8 77.95 14.45 78.25 15.3 78.9 16.95 79.9 18.55 81.05 20.7 82.5 22.65 84.65 25.6 87.6 28.55 L89.4 30.35 92.5 26.9 79.55 4.65 76.45 8.6 M89.4 30.35 L90.55 31.5 92.5 33.15 95.15 35.1 97.75 36.75 99.05 37.4 100.2 38.05 101.35 38.4 104.3 34.95 101.2 28.4 Q99.9 27.75 98.4 26.75 L97.75 26.45 Q95.45 24.8 93.35 22.5 88.4 17.4 86.45 12.2 85.15 8.1 85.95 5.8 L86.1 5.65 86.8 5.45 87.25 5.45 M89.9 13.15 L89.4 12.5 Q88.9 12.5 88.9 12.85 L88.75 13.0 89.9 13.15 90.2 13.35 Q90.7 13.35 91.2 13.8 L86.8 5.45 M97.75 26.45 L94.65 20.2 93.5 20.05 Q91.85 19.4 90.55 18.1 89.25 16.6 88.6 14.95 88.25 14.0 88.6 13.15 L88.75 13.0 M101.2 28.4 L103.15 29.4 104.45 29.7 107.1 30.2 101.05 18.75 100.7 18.25 94.8 7.45 Q98.55 9.4 102.2 13.15 106.9 18.1 108.75 23.3 110.2 27.25 109.4 29.55 L109.4 29.85 107.4 30.2 107.1 30.2 M91.2 13.8 Q92.2 14.15 93.15 15.3 94.65 16.95 95.15 18.4 95.6 19.55 95.3 20.05 L94.65 20.2 M89.25 5.45 L93.15 12.85 M101.35 38.4 L102.2 38.7 Q103.0 38.9 103.8 39.35 L106.75 40.0 Q107.1 39.85 107.25 40.0 107.4 39.85 107.6 39.85 L107.75 39.85 108.4 40.0 110.2 39.7 111.65 39.05 M92.5 33.15 L84.8 42.8 85.15 43.15 86.1 43.95 Q87.45 44.95 88.75 45.75 L89.25 46.1 92.0 47.7 97.25 40.0 97.25 39.85 99.05 37.4 M109.05 46.4 Q108.75 47.4 108.25 48.05 L108.05 48.2 105.95 50.0 105.95 49.85 105.8 50.0 104.15 50.35 101.85 50.65 101.5 50.5 100.85 50.5 97.9 49.85 95.45 49.05 95.3 49.05 94.5 48.55 92.0 47.7 M110.2 39.7 L108.75 44.6 106.75 48.55 105.95 50.0 M107.75 39.85 L107.9 40.0 108.4 40.0 M97.9 49.85 L103.8 39.35 M90.55 31.5 L85.8 36.6 M84.8 42.8 L83.5 41.8 Q81.4 40.0 79.4 37.9 L78.9 37.4 76.95 35.45 Q74.8 33.15 73.2 30.7 L70.05 26.1 Q69.6 24.8 68.95 23.8 L67.45 20.05 67.3 19.55 66.95 18.1 M80.25 32.0 L77.6 34.8 M64.2 8.6 L65.15 7.45 Q63.85 11.85 64.85 16.75 L65.65 19.55 66.8 22.0 68.75 25.75 64.0 30.7 Q65.5 33.3 67.3 35.75 L71.4 40.7 72.85 42.5 73.35 42.95 73.5 43.15 76.65 46.25 76.8 46.25 79.9 48.85 Q81.85 50.35 83.85 51.65 L83.85 51.8 Q87.95 54.25 91.85 55.9 L92.85 56.4 94.15 56.75 95.15 56.9 96.3 57.05 98.9 57.4 99.55 57.4 101.5 57.05 103.3 56.55 M81.2 54.95 L83.85 51.65 M74.15 65.4 L74.35 65.55 77.1 66.4 77.6 66.55 81.05 66.4 Q75.15 63.95 69.6 59.7 L66.95 61.5 Q70.25 63.95 73.7 65.25 L74.15 65.4 76.45 69.0 76.15 68.85 72.55 71.8 M81.05 66.4 L81.7 66.7 82.5 66.9 Q83.65 67.55 85.0 67.7 88.9 67.7 92.0 66.4 M82.5 66.9 L82.05 67.2 77.6 66.55 M98.9 57.4 L97.75 59.0 Q97.1 60.0 95.8 60.5 L95.6 60.8 92.2 61.3 91.05 61.3 87.95 60.8 85.3 60.0 M79.55 72.45 Q81.05 71.8 82.05 70.8 82.85 70.0 83.35 68.85 L85.0 67.7 M101.05 58.55 L101.5 57.05 M87.95 60.8 L92.85 56.4 M117.9 31.5 L113.65 23.65 M104.45 29.7 L106.9 33.8 M110.85 28.7 L115.1 35.6 M103.8 4.95 L117.25 24.45 M70.05 26.1 L74.65 22.65 M46.15 36.25 Q47.15 40.35 50.25 44.45 L50.4 44.75 52.05 43.15 53.85 41.35 59.25 35.6 64.0 30.7 M83.85 59.35 Q79.4 57.55 75.15 54.1 L71.7 51.3 68.75 48.35 67.6 47.25 66.45 45.9 66.45 45.75 Q64.2 43.3 62.55 40.7 60.6 38.2 59.25 35.6 M69.1 43.45 L66.8 45.6 66.45 45.75 M67.3 35.75 L62.55 40.7 M52.05 43.15 Q53.2 46.25 55.15 49.35 L56.95 46.4 53.85 41.35 M63.05 65.25 L65.3 63.1 62.7 58.05 61.55 56.9 60.75 56.05 Q57.45 52.65 55.15 49.35 M56.95 46.4 Q59.75 50.2 63.35 53.95 66.3 57.05 69.6 59.7 M66.95 61.5 L62.7 58.05 M75.15 54.1 L79.9 48.85 M73.2 30.7 L82.5 22.65 M78.25 15.3 L71.7 18.4 M71.7 51.3 L76.65 46.25"/><path fill="#ffffcc" fill-opacity="0.501960784314" d="M60.65 14.1 L60.75 13.75 61.1 13.6 61.4 13.85 61.7 14.2 61.55 14.6 61.25 14.7 60.75 14.55 60.65 14.1"/><path fill="#ffffcc" fill-opacity="0.501960784314" d="M63.6 26.0 L63.7 25.65 64.05 25.5 64.35 25.75 64.65 26.1 64.5 26.5 64.2 26.6 63.7 26.45 63.6 26.0"/><path fill="#ffffcc" fill-opacity="0.501960784314" d="M74.15 40.7 L74.25 40.35 74.6 40.2 74.9 40.45 75.2 40.8 75.05 41.2 74.75 41.3 74.25 41.15 74.15 40.7"/><path fill="#ffffcc" fill-opacity="0.501960784314" d="M89.0 52.75 L89.1 52.4 89.45 52.25 89.75 52.5 90.05 52.85 89.9 53.25 89.6 53.35 89.1 53.2 89.0 52.75"/><path fill="#ffffcc" fill-opacity="0.501960784314" d="M102.4 55.25 L102.5 54.9 102.85 54.75 103.15 55.0 103.45 55.35 103.3 55.75 103.0 55.85 102.5 55.7 102.4 55.25"/><path fill="#ffffcc" fill-opacity="0.501960784314" d="M90.6 66.3 L90.9 66.15 91.05 65.8 90.85 65.45 90.45 65.2 90.1 65.3 90.0 65.7 90.2 66.15 Q90.3 66.3 90.6 66.3"/><path fill="#ffffcc" fill-opacity="0.501960784314" d="M81.1 63.75 L81.4 63.6 81.55 63.25 81.35 62.9 80.95 62.65 80.6 62.75 80.5 63.15 80.7 63.6 81.1 63.75"/><path fill="#ffffcc" fill-opacity="0.501960784314" d="M65.95 53.8 L66.25 53.65 66.4 53.3 66.2 52.95 65.8 52.7 65.45 52.8 65.35 53.2 65.55 53.65 65.95 53.8"/><path fill="#ffffcc" fill-opacity="0.501960784314" d="M53.6 38.35 L53.9 38.2 54.05 37.85 53.85 37.5 53.45 37.25 53.1 37.35 53.0 37.75 53.2 38.2 53.6 38.35"/><path fill="#ffffcc" fill-opacity="0.501960784314" d="M50.65 24.4 L50.95 24.25 51.1 23.9 50.9 23.55 50.5 23.3 50.15 23.4 50.05 23.8 50.25 24.25 50.65 24.4"/><path fill="#d1bc69" stroke="none" d="M85.75 -3.2 Q88.55 -3.4 92.15 -1.9 L93.45 -1.6 97.55 5.45 97.4 5.3 94.3 4.0 Q92.0 3.15 90.35 3.0 L85.75 -3.2 M103.8 5.15 L106.9 8.25 Q113.95 15.6 116.7 23.5 L117.2 24.6 103.8 5.15 M115.1 35.75 L114.25 36.1 111.8 36.6 111.0 36.9 110.0 36.6 108.7 36.4 105.25 35.6 104.45 35.25 104.25 35.1 101.15 28.55 103.1 29.55 104.45 29.85 107.05 30.35 107.4 30.35 109.35 30.05 109.5 29.85 Q110.15 29.55 110.65 28.9 L110.8 28.9 115.1 35.75 M79.55 4.8 L92.5 27.1 90.85 25.45 Q83.45 17.9 80.7 10.2 L79.7 7.1 79.55 4.8 M106.9 33.95 L104.45 29.85 106.9 33.95"/><path fill="#d9c26e" stroke="none" d="M85.75 -3.2 L90.35 3.0 90.2 3.15 Q89.85 2.85 89.55 3.15 88.05 3.35 86.9 4.5 L86.1 5.8 85.95 5.95 Q85.1 8.25 86.4 12.35 88.4 17.6 93.3 22.65 95.45 24.95 97.7 26.6 L98.4 26.9 101.15 28.55 104.25 35.1 103.3 34.8 Q97.7 32.15 92.65 27.25 L92.5 27.1 79.55 4.8 79.4 4.5 79.55 4.5 79.4 3.15 79.4 2.85 79.55 2.5 80.05 0.7 81.35 -1.25 Q83.0 -3.05 85.75 -3.2"/><path fill="#89813a" stroke="none" d="M90.35 3.0 Q92.0 3.15 94.3 4.0 L97.4 5.3 97.55 5.45 Q101.0 7.45 104.45 10.85 109.2 15.8 111.0 21.2 112.3 24.8 111.65 27.1 L110.8 28.7 Q110.65 28.7 110.8 28.9 L110.65 28.9 Q110.15 29.55 109.5 29.85 L109.35 29.7 Q110.15 27.4 108.7 23.5 106.9 18.25 102.15 13.3 98.55 9.55 94.75 7.6 93.45 6.75 92.0 6.3 90.5 5.8 89.2 5.65 88.05 5.3 87.25 5.65 L86.75 5.65 86.1 5.8 86.9 4.5 Q88.05 3.35 89.55 3.15 89.85 2.85 90.2 3.15 L90.35 3.0 M77.6 3.15 Q77.75 2.7 78.25 2.2 79.05 1.35 80.05 0.7 L79.55 2.5 79.4 2.85 79.4 3.15 79.55 4.5 79.4 4.5 79.55 4.8 76.45 8.75 79.55 4.8 79.7 7.1 80.7 10.2 Q83.45 17.9 90.85 25.45 L92.5 27.1 92.65 27.25 Q97.7 32.15 103.3 34.8 L100.2 38.2 99.05 37.55 97.7 36.9 95.1 35.25 92.5 33.3 90.5 31.65 89.35 30.5 87.55 28.7 Q84.6 25.75 82.5 22.8 81.0 20.85 79.85 18.75 78.9 17.1 78.25 15.45 77.9 14.65 77.9 14.0 77.6 13.8 77.6 13.5 L77.4 12.85 Q76.6 10.7 76.45 9.05 L76.45 8.75 Q75.95 5.15 77.6 3.15 M97.4 5.3 L94.75 7.6 97.4 5.3 M90.2 3.15 L87.25 5.65 90.2 3.15 M92.65 27.25 L89.35 30.5 92.65 27.25"/><path fill="#e6ce75" stroke="none" d="M97.55 5.45 L93.45 -1.6 Q98.7 0.55 103.8 5.15 L117.2 24.6 Q118.5 28.9 117.85 31.65 117.55 33.45 116.25 34.6 L115.1 35.75 110.8 28.9 Q110.65 28.7 110.8 28.7 L111.65 27.1 Q112.3 24.8 111.0 21.2 109.2 15.8 104.45 10.85 101.0 7.45 97.55 5.45 M113.6 23.8 L117.85 31.65 113.6 23.8"/><path fill="#9e9344" stroke="none" d="M87.25 5.65 Q88.05 5.3 89.2 5.65 90.5 5.8 92.0 6.3 93.45 6.75 94.75 7.6 L100.65 18.4 Q100.35 18.4 100.0 18.55 L99.85 19.05 100.2 18.9 101.0 18.9 107.05 30.35 104.45 29.85 103.1 29.55 101.15 28.55 98.4 26.9 97.7 26.6 94.6 20.35 95.25 20.2 Q95.6 19.7 95.1 18.55 94.6 17.1 93.15 15.45 92.15 14.3 91.15 14.0 L86.75 5.65 87.25 5.65 M93.15 13.0 L89.2 5.65 93.15 13.0"/><path fill="#958b40" stroke="none" d="M88.7 13.15 L88.9 13.0 Q88.9 12.65 89.35 12.65 L89.85 13.3 89.35 12.65 Q88.9 12.65 88.9 13.0 L88.7 13.15 88.55 13.3 Q88.2 14.15 88.55 15.1 89.2 16.75 90.5 18.25 91.8 19.55 93.45 20.2 L94.6 20.35 97.7 26.6 Q95.45 24.95 93.3 22.65 88.4 17.6 86.4 12.35 85.1 8.25 85.95 5.95 L86.1 5.8 86.75 5.65 91.15 14.0 Q90.7 13.5 90.2 13.5 L89.85 13.3 88.7 13.15"/><path fill="#4e4821" stroke="none" d="M88.7 13.15 L89.85 13.3 90.2 13.5 Q90.7 13.5 91.15 14.0 92.15 14.3 93.15 15.45 94.6 17.1 95.1 18.55 95.6 19.7 95.25 20.2 L94.6 20.35 93.45 20.2 Q91.8 19.55 90.5 18.25 89.2 16.75 88.55 15.1 88.2 14.15 88.55 13.3 L88.7 13.15"/><path fill="#8b993a" stroke="none" d="M100.0 18.55 L100.2 18.9 99.85 19.05 100.0 18.55 M109.35 29.7 L109.5 29.85 109.35 30.05 109.35 29.7 M105.75 50.15 L105.9 50.0 105.9 50.15 105.75 50.15"/><path fill="#9b9242" stroke="none" d="M100.0 18.55 Q100.35 18.4 100.65 18.4 L101.0 18.9 100.2 18.9 100.0 18.55"/><path fill="#b3a74d" stroke="none" d="M101.0 18.9 L100.65 18.4 94.75 7.6 Q98.55 9.55 102.15 13.3 106.9 18.25 108.7 23.5 110.15 27.4 109.35 29.7 L109.35 30.05 107.4 30.35 107.05 30.35 101.0 18.9"/><path fill="#823717" stroke="none" d="M111.65 39.2 L110.8 42.3 109.7 45.9 109.0 46.55 108.2 48.2 Q108.05 48.2 108.05 48.35 L105.9 50.15 105.9 50.0 105.75 50.15 104.1 50.5 101.8 50.85 Q106.55 47.4 107.85 40.2 L108.35 40.2 110.15 39.85 111.65 39.2 M76.25 3.5 Q76.6 3.35 76.6 3.5 77.1 3.15 77.6 3.15 75.95 5.15 76.45 8.75 L76.45 9.05 Q76.6 10.7 77.4 12.85 L77.6 13.5 Q77.6 13.8 77.9 14.0 L75.95 14.8 75.6 13.65 74.45 11.2 75.95 4.8 76.25 3.5 M59.4 16.95 Q59.55 19.7 60.85 23.65 L58.75 25.45 58.25 23.95 56.95 21.85 56.1 22.0 56.45 20.85 56.6 20.35 58.1 18.25 Q58.4 17.75 59.4 16.95 M67.25 35.9 Q69.05 38.4 71.35 40.85 L68.9 43.3 67.75 42.3 65.15 38.2 67.25 35.9 M73.3 43.15 L73.5 43.3 76.6 46.4 76.75 46.4 79.85 49.0 77.4 51.95 74.15 48.85 70.55 45.1 73.3 43.15 M95.45 49.2 L95.25 49.2 94.45 48.7 97.9 43.15 97.7 40.5 97.25 40.0 96.4 39.35 94.6 37.7 91.35 34.8 92.5 33.3 95.1 35.25 97.7 36.9 99.05 37.55 100.2 38.2 101.3 38.55 102.15 38.85 Q102.95 39.05 103.8 39.55 L106.75 40.2 Q107.4 41.35 100.85 50.65 L97.9 50.0 95.45 49.2 M79.85 18.75 Q81.0 20.85 82.5 22.8 84.6 25.75 87.55 28.7 L89.35 30.5 90.5 31.65 92.5 33.3 91.35 34.8 89.2 33.0 90.5 31.65 89.2 33.0 80.35 24.8 80.05 23.8 78.05 19.2 79.85 18.75 M77.4 12.85 L75.6 13.65 77.4 12.85 M82.5 22.8 L80.35 24.8 82.5 22.8 M76.6 46.4 L74.15 48.85 76.6 46.4 M110.15 39.85 Q109.7 42.3 108.7 44.75 L106.75 48.7 105.9 50.15 106.75 48.7 108.7 44.75 Q109.7 42.3 110.15 39.85 M99.05 37.55 L97.25 40.0 99.05 37.55 M103.8 39.55 L97.9 50.0 103.8 39.55"/><path fill="#828c38" stroke="none" d="M74.45 4.15 Q75.45 3.65 76.25 3.5 L75.95 4.8 75.75 4.65 74.45 4.15"/><path fill="#9c9680" stroke="none" d="M63.8 9.4 L64.0 9.05 64.45 7.75 68.4 4.95 Q71.2 3.0 74.45 4.15 L75.75 4.65 Q69.2 6.45 68.4 7.45 67.4 8.4 66.75 9.7 L66.6 9.9 66.6 10.05 Q65.45 13.0 66.95 18.25 L67.25 19.7 67.4 20.2 68.9 23.95 70.05 26.25 73.15 30.85 Q74.8 33.3 76.9 35.6 L78.9 37.55 79.4 38.05 83.45 42.0 84.8 42.95 85.1 43.3 86.1 44.1 86.25 44.1 Q87.4 45.1 88.7 45.9 L89.2 46.25 92.0 47.9 94.45 48.7 95.25 49.2 95.45 49.2 95.25 49.35 95.75 51.3 Q94.75 50.65 93.45 50.35 92.0 49.35 90.5 48.7 L88.2 47.4 82.65 43.3 78.4 39.2 77.75 38.55 Q71.2 31.85 67.75 24.8 66.75 23.5 66.3 22.15 66.75 22.35 66.95 22.0 L67.25 20.85 Q67.4 20.35 66.95 20.05 66.6 19.55 65.95 19.4 L65.45 19.7 65.3 19.55 Q63.15 13.5 63.8 9.4"/><path stroke="none" fill="url(#gradient3)" d="M107.4 51.95 L105.4 55.1 103.3 56.7 101.5 57.2 99.5 57.55 98.85 57.55 96.25 57.2 95.1 57.05 94.1 56.9 92.8 56.55 91.8 56.05 Q87.9 54.45 83.8 51.95 L83.8 51.8 79.85 49.0 76.75 46.4 76.6 46.4 73.5 43.3 73.3 43.15 72.85 42.65 71.35 40.85 Q69.05 38.4 67.25 35.9 64.45 32.15 62.65 28.05 L61.7 26.1 60.85 24.15 60.85 23.65 Q59.55 19.7 59.4 16.95 L59.4 15.8 61.05 13.65 61.2 14.0 62.2 14.3 62.65 14.0 63.0 13.5 62.35 12.85 62.0 12.5 63.35 10.55 63.5 10.2 Q63.5 9.9 63.65 9.7 L63.8 9.4 Q63.15 13.5 65.3 19.55 L65.45 19.7 65.15 20.05 Q64.8 20.35 64.8 20.7 64.8 21.35 65.15 21.85 L66.1 22.15 66.3 22.15 Q66.75 23.5 67.75 24.8 71.2 31.85 77.75 38.55 L78.4 39.2 82.65 43.3 88.2 47.4 90.5 48.7 Q92.0 49.35 93.45 50.35 94.75 50.65 95.75 51.3 L96.1 51.3 100.2 52.45 101.0 52.65 101.3 52.8 106.55 52.45 107.4 51.95 M97.25 62.8 L93.8 65.9 Q93.65 65.9 93.45 66.05 L93.3 65.9 92.95 65.25 Q92.8 65.05 92.3 64.9 L91.8 65.05 Q91.5 65.4 91.5 65.75 L91.8 66.4 92.0 66.55 Q88.9 67.85 84.95 67.85 83.65 67.7 82.5 67.05 L81.65 66.9 81.0 66.55 Q75.1 64.1 69.55 59.85 66.3 57.2 63.35 54.1 59.75 50.35 56.95 46.55 53.5 41.65 51.35 36.6 L50.7 34.95 Q50.9 34.8 50.7 34.6 L49.9 32.15 Q49.4 28.4 50.05 25.95 L51.35 24.8 51.55 24.95 52.2 25.3 Q52.7 25.3 53.0 24.95 L53.0 24.45 Q53.0 23.95 52.7 23.8 L52.5 23.65 53.5 22.65 Q53.5 25.95 55.15 30.35 L56.95 34.95 Q60.05 41.15 65.45 47.2 L66.3 48.05 67.4 49.35 Q74.95 57.05 82.65 60.65 L85.25 61.95 85.95 62.15 89.7 63.25 Q90.5 63.25 91.0 63.6 L93.45 63.6 Q95.6 63.6 97.25 62.8 M64.0 24.3 Q63.65 24.6 63.65 24.95 L64.0 25.75 64.65 26.1 65.3 25.75 65.45 25.1 65.15 24.6 64.45 23.95 64.0 24.3 M75.6 39.2 Q75.3 38.85 74.95 38.85 74.65 38.7 74.3 38.85 74.15 39.2 74.15 39.7 L74.45 40.35 75.1 40.65 75.6 40.35 75.95 39.85 Q75.95 39.35 75.6 39.2 M55.15 37.4 L54.65 37.7 Q54.3 38.05 54.3 38.4 L54.65 39.05 55.3 39.35 Q55.65 39.35 55.95 39.05 L56.1 38.4 55.8 37.9 55.15 37.4 M66.45 53.45 Q66.45 53.75 66.75 54.1 L67.6 54.45 Q67.9 54.45 68.1 54.1 L68.4 53.6 67.9 52.95 Q67.6 52.65 67.25 52.65 L66.6 52.8 Q66.45 53.1 66.45 53.45 M82.0 62.95 Q81.65 63.1 81.65 63.45 L82.0 64.1 82.65 64.4 83.45 64.25 Q83.65 63.95 83.45 63.6 L83.15 62.95 Q83.0 62.8 82.5 62.6 82.15 62.6 82.0 62.95 M89.2 51.0 Q88.9 51.3 88.9 51.8 L89.2 52.45 90.0 52.8 Q90.35 52.8 90.7 52.45 L90.85 51.95 90.35 51.3 Q90.2 51.0 89.7 51.0 89.35 50.85 89.2 51.0 M104.1 55.4 L104.45 54.75 104.1 54.1 Q103.95 53.95 103.45 53.75 103.1 53.75 102.8 54.1 102.65 54.25 102.65 54.75 L102.95 55.4 Q103.3 55.75 103.6 55.75 L104.1 55.4"/><path fill="#676d2c" stroke="none" d="M103.3 56.7 L101.0 58.7 101.5 57.2 103.3 56.7 M66.6 10.05 L66.6 9.9 66.75 9.7 66.6 10.05 M98.85 57.55 L99.5 57.55 99.2 57.85 98.85 57.55 M56.6 20.35 L56.45 20.85 56.45 20.7 56.6 20.35 M81.65 66.9 L82.5 67.05 82.0 67.35 81.65 66.9"/><path fill="#c95e34" stroke="none" d="M66.6 10.05 L66.75 9.7 Q67.4 8.4 68.4 7.45 69.2 6.45 75.75 4.65 L75.95 4.8 74.45 11.2 75.6 13.65 66.95 18.25 Q65.45 13.0 66.6 10.05 M94.45 48.7 L92.0 47.9 89.2 46.25 88.7 45.9 89.35 43.3 87.9 41.8 86.25 44.1 86.1 44.1 85.1 43.3 84.8 42.95 83.45 42.0 79.4 38.05 82.5 34.8 80.85 34.3 81.35 31.0 80.2 32.15 77.6 34.95 76.9 35.6 Q74.8 33.3 73.15 30.85 L80.35 24.8 89.2 33.0 91.35 34.8 94.6 37.7 92.3 39.7 92.3 42.65 95.45 41.5 96.4 39.35 97.25 40.0 97.25 40.2 92.0 47.9 97.25 40.2 97.25 40.0 97.7 40.5 97.9 43.15 94.45 48.7 M85.75 36.75 L89.2 33.0 85.75 36.75 M84.8 42.95 L91.35 34.8 84.8 42.95"/><path fill="#000000" fill-opacity="0.713725490196" d="M93.45 66.05 L93.15 66.55 92.5 66.7 92.0 66.55 91.8 66.4 91.5 65.75 Q91.5 65.4 91.8 65.05 L92.3 64.9 Q92.8 65.05 92.95 65.25 L93.3 65.9 93.45 66.05 M51.35 24.8 Q51.85 24.15 52.5 23.65 L52.7 23.8 Q53.0 23.95 53.0 24.45 L53.0 24.95 Q52.7 25.3 52.2 25.3 L51.55 24.95 51.35 24.8 M61.05 13.65 L62.0 12.5 62.35 12.85 63.0 13.5 62.65 14.0 62.2 14.3 61.2 14.0 61.05 13.65 M64.0 24.3 L64.45 23.95 65.15 24.6 65.45 25.1 65.3 25.75 64.65 26.1 64.0 25.75 63.65 24.95 Q63.65 24.6 64.0 24.3 M75.6 39.2 Q75.95 39.35 75.95 39.85 L75.6 40.35 75.1 40.65 74.45 40.35 74.15 39.7 Q74.15 39.2 74.3 38.85 74.65 38.7 74.95 38.85 75.3 38.85 75.6 39.2 M55.15 37.4 L55.8 37.9 56.1 38.4 55.95 39.05 Q55.65 39.35 55.3 39.35 L54.65 39.05 54.3 38.4 Q54.3 38.05 54.65 37.7 L55.15 37.4 M66.45 53.45 Q66.45 53.1 66.6 52.8 L67.25 52.65 Q67.6 52.65 67.9 52.95 L68.4 53.6 68.1 54.1 Q67.9 54.45 67.6 54.45 L66.75 54.1 Q66.45 53.75 66.45 53.45 M82.0 62.95 Q82.15 62.6 82.5 62.6 83.0 62.8 83.15 62.95 L83.45 63.6 Q83.65 63.95 83.45 64.25 L82.65 64.4 82.0 64.1 81.65 63.45 Q81.65 63.1 82.0 62.95 M104.1 55.4 L103.6 55.75 Q103.3 55.75 102.95 55.4 L102.65 54.75 Q102.65 54.25 102.8 54.1 103.1 53.75 103.45 53.75 103.95 53.95 104.1 54.1 L104.45 54.75 104.1 55.4 M89.2 51.0 Q89.35 50.85 89.7 51.0 90.2 51.0 90.35 51.3 L90.85 51.95 90.7 52.45 Q90.35 52.8 90.0 52.8 L89.2 52.45 88.9 51.8 Q88.9 51.3 89.2 51.0"/><path fill="#847c62" stroke="none" d="M53.5 22.65 L56.8 18.9 59.4 15.8 59.4 16.95 Q58.4 17.75 58.1 18.25 L56.6 20.35 56.45 20.7 56.45 20.85 56.1 22.0 Q55.65 24.45 56.45 27.9 56.6 29.35 57.25 31.15 L57.45 31.5 58.1 33.3 Q59.75 37.25 62.5 40.85 64.15 43.45 66.45 45.9 L66.45 46.1 67.6 47.4 68.75 48.55 71.7 51.5 75.1 54.25 Q79.4 57.7 83.8 59.5 84.3 59.5 84.45 59.85 L84.95 59.85 84.95 60.0 85.25 61.95 82.65 60.65 Q74.95 57.05 67.4 49.35 L66.3 48.05 65.45 47.2 Q60.05 41.15 56.95 34.95 L55.15 30.35 Q53.5 25.95 53.5 22.65"/><path fill="#bd4e42" stroke="none" d="M56.1 22.0 L56.95 21.85 58.25 23.95 58.75 25.45 56.45 27.9 Q55.65 24.45 56.1 22.0"/><path fill="#7b3315" stroke="none" d="M60.85 23.65 L60.85 24.15 61.7 26.1 59.9 28.4 58.75 25.45 60.85 23.65 M62.65 28.05 Q64.45 32.15 67.25 35.9 L65.15 38.2 61.05 31.65 60.55 30.35 62.65 28.05 M79.85 49.0 L83.8 51.8 83.8 51.95 Q87.9 54.45 91.8 56.05 L92.8 56.55 94.1 56.9 95.1 57.05 91.0 61.45 87.9 61.0 85.25 60.15 84.95 60.0 84.95 59.85 84.45 59.85 Q84.3 59.5 83.8 59.5 L85.95 57.7 81.2 55.1 79.55 54.1 77.4 51.95 79.85 49.0 M96.25 57.2 L98.85 57.55 97.7 59.2 Q97.05 60.15 95.75 60.65 L95.6 61.0 92.15 61.45 96.25 57.2 M56.95 46.55 L55.15 49.5 56.95 46.55 Q59.75 50.35 63.35 54.1 66.3 57.2 69.55 59.85 L66.95 61.65 69.55 59.85 Q75.1 64.1 81.0 66.55 L77.6 66.7 81.0 66.55 81.65 66.9 82.0 67.35 77.6 66.7 77.1 66.55 74.3 65.75 74.15 65.55 73.65 65.4 Q70.2 64.1 66.95 61.65 L62.65 58.2 61.55 57.05 60.7 56.25 Q57.45 52.8 55.15 49.5 52.85 45.9 51.55 42.15 50.9 40.65 50.7 39.2 L51.35 36.6 50.7 39.2 Q50.25 36.6 50.7 34.6 50.9 34.8 50.7 34.95 L51.35 36.6 Q53.5 41.65 56.95 46.55 M83.8 51.8 L81.2 55.1 83.8 51.8 M92.8 56.55 L87.9 61.0 92.8 56.55"/><path fill="#d96238" stroke="none" d="M67.25 19.7 L66.95 18.25 75.6 13.65 75.95 14.8 67.25 19.7 M73.15 30.85 L70.05 26.25 68.9 23.95 73.65 20.55 78.05 19.2 80.05 23.8 80.35 24.8 73.15 30.85 M59.9 28.4 L59.75 28.55 57.45 31.5 57.25 31.15 Q56.6 29.35 56.45 27.9 L58.75 25.45 59.9 28.4 M62.5 40.85 Q59.75 37.25 58.1 33.3 L59.25 31.65 60.55 30.35 61.05 31.65 65.15 38.2 62.5 40.85 M74.65 22.8 L70.05 26.25 74.65 22.8"/><path fill="#ffffcc" stroke="none" d="M65.45 19.7 L65.95 19.4 Q66.6 19.55 66.95 20.05 67.4 20.35 67.25 20.85 L66.95 22.0 Q66.75 22.35 66.3 22.15 L66.1 22.15 65.15 21.85 Q64.8 21.35 64.8 20.7 64.8 20.35 65.15 20.05 L65.45 19.7"/><path fill="#beaa5a" stroke="none" d="M68.9 23.95 L67.4 20.2 67.25 19.7 75.95 14.8 76.75 16.1 78.05 19.2 73.65 20.55 68.9 23.95 M71.7 18.55 L76.75 16.1 71.7 18.55"/><path fill="#6f612b" stroke="none" d="M61.7 26.1 L62.65 28.05 60.55 30.35 59.9 28.55 59.9 28.4 61.7 26.1 M71.35 40.85 L72.85 42.65 73.3 43.15 70.55 45.1 69.05 43.6 68.9 43.3 71.35 40.85 M77.9 14.0 Q77.9 14.65 78.25 15.45 78.9 17.1 79.85 18.75 L78.05 19.2 76.75 16.1 75.95 14.8 77.9 14.0 M76.75 16.1 L78.25 15.45 76.75 16.1"/><path fill="#948a3e" stroke="none" d="M88.7 45.9 Q87.4 45.1 86.25 44.1 L87.9 41.8 89.35 43.3 88.7 45.9 M79.4 38.05 L78.9 37.55 76.9 35.6 77.6 34.95 80.2 32.15 81.35 31.0 80.85 34.3 82.5 34.8 79.4 38.05 M59.75 28.55 L59.9 28.4 59.9 28.55 59.75 28.55 M67.6 47.4 L66.45 46.1 66.75 45.75 69.05 43.6 70.55 45.1 67.6 47.4 M94.6 37.7 L96.4 39.35 95.45 41.5 92.3 42.65 92.3 39.7 94.6 37.7"/><path fill="#b09b46" stroke="none" d="M57.45 31.5 L59.75 28.55 59.9 28.55 60.55 30.35 59.25 31.65 58.1 33.3 57.45 31.5"/><path fill="#b64a30" stroke="none" d="M83.8 59.5 Q79.4 57.7 75.1 54.25 L71.7 51.5 68.75 48.55 67.6 47.4 70.55 45.1 74.15 48.85 71.7 51.5 74.15 48.85 77.4 51.95 75.1 54.25 77.4 51.95 79.55 54.1 81.2 55.1 85.95 57.7 83.8 59.5 M66.45 46.1 L66.45 45.9 Q64.15 43.45 62.5 40.85 L65.15 38.2 67.75 42.3 68.9 43.3 69.05 43.6 66.75 45.75 66.45 45.9 66.75 45.75 66.45 46.1"/><path fill="#837230" stroke="none" d="M114.25 36.1 Q113.95 37.25 113.1 38.05 L111.65 39.2 110.15 39.85 108.35 40.2 107.7 40.0 108.35 40.2 107.85 40.2 107.7 40.0 107.55 40.0 107.2 40.2 Q107.05 40.0 106.75 40.2 L103.8 39.55 Q102.95 39.05 102.15 38.85 L101.3 38.55 104.25 35.1 101.3 38.55 100.2 38.2 103.3 34.8 104.25 35.1 104.45 35.25 105.25 35.6 108.7 36.4 110.0 36.6 111.0 36.9 111.8 36.6 114.25 36.1 M83.3 69.0 L82.0 70.95 79.55 72.6 76.6 72.95 72.65 72.3 72.15 72.1 72.0 71.95 71.7 71.95 71.05 71.8 Q69.55 71.3 68.1 70.3 L66.45 69.5 61.85 66.55 60.4 65.4 57.6 62.8 56.45 61.8 53.65 58.5 Q52.85 57.7 52.35 56.9 50.25 54.1 48.6 51.15 L47.75 49.35 46.45 46.4 45.95 44.6 45.8 44.6 Q45.0 41.0 45.3 38.55 45.8 36.6 47.1 35.1 47.95 34.3 49.1 33.65 47.45 37.05 49.55 43.15 52.35 50.85 59.75 58.35 62.35 61.15 65.15 63.25 L65.3 63.45 Q69.7 66.7 74.15 68.5 L76.1 69.0 76.45 69.15 Q80.5 70.15 83.3 69.0 M63.0 65.4 L65.15 63.25 63.0 65.4 M72.15 72.1 L76.1 69.0 72.15 72.1"/><path fill="#6a5c26" stroke="none" d="M84.95 67.85 L83.3 69.0 Q80.5 70.15 76.45 69.15 L76.1 69.0 74.15 68.5 Q69.7 66.7 65.3 63.45 L65.15 63.25 Q62.35 61.15 59.75 58.35 52.35 50.85 49.55 43.15 47.45 37.05 49.1 33.65 L49.9 32.15 50.7 34.6 Q50.25 36.6 50.7 39.2 50.9 40.65 51.55 42.15 52.85 45.9 55.15 49.5 57.45 52.8 60.7 56.25 L61.55 57.05 62.65 58.2 66.95 61.65 Q70.2 64.1 73.65 65.4 L74.15 65.55 74.3 65.75 77.1 66.55 77.6 66.7 82.0 67.35 82.5 67.05 Q83.65 67.7 84.95 67.85 M62.65 58.2 L65.3 63.45 62.65 58.2 M76.45 69.15 L74.15 65.55 76.45 69.15"/><path fill="#60574e" stroke="none" d="M110.8 42.3 L111.5 41.0 Q112.45 44.95 110.35 47.9 L107.4 51.95 106.55 52.45 101.3 52.8 101.0 52.65 100.2 52.45 96.1 51.3 95.75 51.3 95.25 49.35 95.45 49.2 97.9 50.0 100.85 50.65 101.5 50.65 101.8 50.85 104.1 50.5 105.75 50.15 105.9 50.15 108.05 48.35 Q108.05 48.2 108.2 48.2 L109.0 46.55 109.7 45.9 110.8 42.3 M101.0 58.7 Q100.65 60.15 99.7 61.15 L97.25 62.8 Q95.6 63.6 93.45 63.6 L91.0 63.6 Q90.5 63.25 89.7 63.25 L85.95 62.15 85.25 61.95 84.95 60.0 85.25 60.15 87.9 61.0 91.0 61.45 92.15 61.45 95.6 61.0 95.75 60.65 Q97.05 60.15 97.7 59.2 L98.85 57.55 99.2 57.85 99.5 57.55 101.5 57.2 101.0 58.7"/><path fill="#75662d" stroke="none" d="M95.1 57.05 L96.25 57.2 92.15 61.45 91.0 61.45 95.1 57.05 M106.75 40.2 Q107.05 40.0 107.2 40.2 L107.55 40.0 107.7 40.0 107.85 40.2 Q106.55 47.4 101.8 50.85 L101.5 50.65 100.85 50.65 Q107.4 41.35 106.75 40.2"/><path fill="none" stroke="#1c1c21" stroke-width="0.5" stroke-opacity="0.462745098039" d="M93.45 -1.6 L92.15 -1.9 Q88.55 -3.4 85.75 -3.2 M93.45 -1.6 Q98.7 0.55 103.8 5.15 L106.9 8.25 Q113.95 15.6 116.7 23.5 L117.2 24.6 Q118.5 28.9 117.85 31.65 117.55 33.45 116.25 34.6 L115.1 35.75 114.25 36.1 Q113.95 37.25 113.1 38.05 L111.65 39.2 110.8 42.3 M111.5 41.0 Q112.45 44.95 110.35 47.9 L107.4 51.95 105.4 55.1 103.3 56.7 101.0 58.7 Q100.65 60.15 99.7 61.15 L97.25 62.8 93.8 65.9 Q93.65 65.9 93.45 66.05 M92.0 66.55 Q88.9 67.85 84.95 67.85 L83.3 69.0 82.0 70.95 79.55 72.6 M76.6 72.95 L72.65 72.3 M68.1 70.3 L66.45 69.5 M60.4 65.4 L57.6 62.8 M53.65 58.5 Q52.85 57.7 52.35 56.9 M48.6 51.15 L47.75 49.35 M45.95 44.6 L45.8 44.6 M45.3 38.55 Q45.8 36.6 47.1 35.1 47.95 34.3 49.1 33.65 L49.9 32.15 Q49.4 28.4 50.05 25.95 M63.35 10.55 L63.5 10.2 Q63.5 9.9 63.65 9.7 L63.8 9.4 64.0 9.05 64.45 7.75 68.4 4.95 Q71.2 3.0 74.45 4.15 75.45 3.65 76.25 3.5 M76.6 3.5 Q77.1 3.15 77.6 3.15 77.75 2.7 78.25 2.2 79.05 1.35 80.05 0.7 L81.35 -1.25 Q83.0 -3.05 85.75 -3.2 M87.25 5.65 Q88.05 5.3 89.2 5.65 90.5 5.8 92.0 6.3 93.45 6.75 94.75 7.6 98.55 9.55 102.15 13.3 106.9 18.25 108.7 23.5 110.15 27.4 109.35 29.7 L109.35 30.05 109.5 29.85 M89.85 13.3 L89.35 12.65 Q88.9 12.65 88.9 13.0 L88.7 13.15 89.85 13.3 90.2 13.5 Q90.7 13.5 91.15 14.0 92.15 14.3 93.15 15.45 94.6 17.1 95.1 18.55 95.6 19.7 95.25 20.2 L94.6 20.35 93.45 20.2 Q91.8 19.55 90.5 18.25 89.2 16.75 88.55 15.1 88.2 14.15 88.55 13.3 L88.7 13.15 M86.75 5.65 L86.1 5.8 85.95 5.95 Q85.1 8.25 86.4 12.35 88.4 17.6 93.3 22.65 95.45 24.95 97.7 26.6 M101.15 28.55 L98.4 26.9 97.7 26.6 M75.75 4.65 L74.45 4.15 M66.6 10.05 L66.75 9.7 Q67.4 8.4 68.4 7.45 69.2 6.45 75.75 4.65 M59.4 15.8 L59.4 16.95 Q59.55 19.7 60.85 23.65 L60.85 24.15 61.7 26.1 62.65 28.05 Q64.45 32.15 67.25 35.9 69.05 38.4 71.35 40.85 L72.85 42.65 73.3 43.15 73.5 43.3 76.6 46.4 M76.75 46.4 L79.85 49.0 83.8 51.8 M83.8 51.95 Q87.9 54.45 91.8 56.05 L92.8 56.55 94.1 56.9 95.1 57.05 96.25 57.2 98.85 57.55 99.5 57.55 101.5 57.2 103.3 56.7 M56.6 20.35 L56.45 20.85 56.1 22.0 Q55.65 24.45 56.45 27.9 56.6 29.35 57.25 31.15 L57.45 31.5 M58.75 25.45 L60.85 23.65 M56.6 20.35 L58.1 18.25 Q58.4 17.75 59.4 16.95 M67.25 19.7 L66.95 18.25 Q65.45 13.0 66.6 10.05 M95.45 49.2 L95.25 49.2 94.45 48.7 92.0 47.9 89.2 46.25 88.7 45.9 Q87.4 45.1 86.25 44.1 M86.1 44.1 L85.1 43.3 84.8 42.95 83.45 42.0 79.4 38.05 78.9 37.55 76.9 35.6 Q74.8 33.3 73.15 30.85 L70.05 26.25 68.9 23.95 67.4 20.2 67.25 19.7 M86.75 5.65 L87.25 5.65 M76.45 9.05 Q76.6 10.7 77.4 12.85 L77.6 13.5 Q77.6 13.8 77.9 14.0 77.9 14.65 78.25 15.45 78.9 17.1 79.85 18.75 81.0 20.85 82.5 22.8 84.6 25.75 87.55 28.7 L89.35 30.5 90.5 31.65 92.5 33.3 95.1 35.25 97.7 36.9 99.05 37.55 100.2 38.2 101.3 38.55 102.15 38.85 Q102.95 39.05 103.8 39.55 L106.75 40.2 Q107.05 40.0 107.2 40.2 L107.55 40.0 107.7 40.0 107.85 40.2 M75.6 13.65 L77.4 12.85 M80.35 24.8 L82.5 22.8 M76.45 8.75 Q75.95 5.15 77.6 3.15 M84.95 60.0 L84.95 59.85 M84.45 59.85 Q84.3 59.5 83.8 59.5 79.4 57.7 75.1 54.25 L71.7 51.5 68.75 48.55 67.6 47.4 66.45 46.1 66.45 45.9 Q64.15 43.45 62.5 40.85 59.75 37.25 58.1 33.3 L57.45 31.5 M65.15 38.2 L62.5 40.85 M56.95 46.55 Q53.5 41.65 51.35 36.6 L50.7 39.2 Q50.9 40.65 51.55 42.15 52.85 45.9 55.15 49.5 57.45 52.8 60.7 56.25 L61.55 57.05 M62.65 58.2 L66.95 61.65 Q70.2 64.1 73.65 65.4 M69.55 59.85 Q66.3 57.2 63.35 54.1 59.75 50.35 56.95 46.55 M91.0 61.45 L87.9 61.0 85.25 60.15 84.95 60.0 M74.15 65.55 L74.3 65.75 77.1 66.55 77.6 66.7 81.0 66.55 Q75.1 64.1 69.55 59.85 M109.35 30.05 L107.4 30.35 107.05 30.35 104.45 29.85 103.1 29.55 101.15 28.55 M108.35 40.2 L110.15 39.85 111.65 39.2 M108.35 40.2 L107.85 40.2 M101.8 50.85 L104.1 50.5 105.75 50.15 105.9 50.0 105.9 50.15 M91.35 34.8 L92.5 33.3 M101.8 50.85 L101.5 50.65 100.85 50.65 97.9 50.0 95.45 49.2 M92.15 61.45 L91.0 61.45 M98.85 57.55 L97.7 59.2 Q97.05 60.15 95.75 60.65 L95.6 61.0 92.15 61.45 M101.0 58.7 L101.5 57.2 M109.0 46.55 L108.2 48.2 Q108.05 48.2 108.05 48.35 L105.9 50.15 M50.7 34.6 Q50.9 34.8 50.7 34.95 L51.35 36.6 M50.7 34.6 L49.9 32.15 M50.7 39.2 Q50.25 36.6 50.7 34.6 M82.5 67.05 L81.65 66.9 81.0 66.55 M82.0 67.35 L82.5 67.05 Q83.65 67.7 84.95 67.85 M77.6 66.7 L82.0 67.35"/><path fill="none" stroke="#1c1c21" stroke-width="0.5" stroke-opacity="0.152941176471" d="M89.2 5.65 L93.15 13.0 M76.6 46.4 L76.75 46.4 M83.8 51.8 L83.8 51.95 M80.2 32.15 L77.6 34.95 M66.75 45.75 L66.45 45.9 M66.75 45.75 L69.05 43.6 M81.2 55.1 L83.8 51.8 M71.7 51.5 L74.15 48.85 76.6 46.4 M104.45 29.85 L106.9 33.95 M107.7 40.0 L108.35 40.2 M89.2 33.0 L85.75 36.75 M90.5 31.65 L89.2 33.0 M97.25 40.0 L99.05 37.55 M92.0 47.9 L97.25 40.2 97.25 40.0 M117.85 31.65 L113.6 23.8"/><path fill="none" stroke="#1c1c21" stroke-width="0.5" stroke-opacity="0.2" d="M85.75 -3.2 L90.35 3.0 M97.55 5.45 L93.45 -1.6 M110.8 28.7 Q110.65 28.7 110.8 28.9 L115.1 35.75 M94.75 7.6 L97.4 5.3 M91.15 14.0 L86.75 5.65 M97.7 26.6 L94.6 20.35 M101.0 18.9 L100.65 18.4 94.75 7.6 M103.8 5.15 L117.2 24.6 M79.55 4.5 L79.4 4.5 79.55 4.8 92.5 27.1 M104.25 35.1 L101.15 28.55 M75.6 13.65 L66.95 18.25 M87.25 5.65 L90.2 3.15 M79.55 4.8 L76.45 8.75 76.45 9.05 M89.35 30.5 L92.65 27.25 M58.75 25.45 L56.45 27.9 M67.25 35.9 L65.15 38.2 M55.15 49.5 L56.95 46.55 M61.55 57.05 L62.65 58.2 M66.95 61.65 L69.55 59.85 M65.15 63.25 L63.0 65.4 M65.3 63.45 L62.65 58.2 M77.4 51.95 L79.85 49.0 M75.1 54.25 L77.4 51.95 M73.65 65.4 L74.15 65.55 76.45 69.15 76.1 69.0 72.15 72.1 M104.45 35.25 L104.25 35.1 101.3 38.55 M105.9 50.15 L106.75 48.7 108.7 44.75 Q109.7 42.3 110.15 39.85 M80.35 24.8 L73.15 30.85 M91.35 34.8 L84.8 42.95 M97.9 50.0 L103.8 39.55 M101.0 18.9 L107.05 30.35 M87.9 61.0 L92.8 56.55"/><path fill="none" stroke="#1c1c21" stroke-width="0.5" stroke-opacity="0.121568627451" d="M78.25 15.45 L76.75 16.1 71.7 18.55 M70.05 26.25 L74.65 22.8"/><path fill="#ffffcc" fill-opacity="0.501960784314" d="M60.35 13.95 L60.45 13.6 60.8 13.45 61.1 13.7 61.4 14.05 61.25 14.45 60.95 14.55 60.45 14.4 60.35 13.95"/><path fill="#ffffcc" fill-opacity="0.501960784314" d="M63.45 25.85 L63.55 25.5 63.9 25.35 64.2 25.6 64.5 25.95 64.35 26.35 64.05 26.45 63.55 26.3 63.45 25.85"/><path fill="#ffffcc" fill-opacity="0.501960784314" d="M73.85 40.55 L73.95 40.2 74.3 40.05 74.6 40.3 74.9 40.65 74.75 41.05 74.45 41.15 73.95 41.0 73.85 40.55"/><path fill="#ffffcc" fill-opacity="0.501960784314" d="M88.85 52.6 L88.95 52.25 89.3 52.1 89.6 52.35 89.9 52.7 89.75 53.1 89.45 53.2 88.95 53.05 88.85 52.6"/><path fill="#ffffcc" fill-opacity="0.501960784314" d="M102.1 55.1 L102.2 54.75 102.55 54.6 102.85 54.85 103.15 55.2 103.0 55.6 102.7 55.7 102.2 55.55 102.1 55.1"/><path fill="#ffffcc" fill-opacity="0.501960784314" d="M90.3 65.7 L90.6 65.55 90.75 65.2 90.55 64.85 90.15 64.6 89.8 64.7 89.7 65.1 89.9 65.55 90.3 65.7"/><path fill="#ffffcc" fill-opacity="0.501960784314" d="M80.8 63.6 L81.1 63.45 81.25 63.1 81.05 62.75 80.65 62.5 80.3 62.6 80.2 63.0 80.4 63.45 80.8 63.6"/><path fill="#ffffcc" fill-opacity="0.501960784314" d="M65.8 53.65 L66.1 53.5 66.25 53.15 66.05 52.8 65.65 52.55 65.3 52.65 65.2 53.05 65.4 53.5 65.8 53.65"/><path fill="#ffffcc" fill-opacity="0.501960784314" d="M53.45 38.2 L53.75 38.05 53.9 37.7 53.7 37.35 53.3 37.1 52.95 37.2 52.85 37.6 53.05 38.05 53.45 38.2"/><path fill="#ffffcc" fill-opacity="0.501960784314" d="M50.5 24.1 L50.8 23.95 50.95 23.6 50.75 23.25 50.35 23.0 50.0 23.1 49.9 23.5 50.1 23.95 50.5 24.1"/><path fill="#bfb484" stroke="none" d="M64.8 16.95 L53.15 28.9 Q51.05 37.7 53.15 42.0 L50.4 44.95 Q44.15 36.75 46.15 28.05 L65.15 7.6 Q63.8 12.0 64.8 16.95"/><path fill="#dfd9c1" stroke="none" d="M64.8 16.95 Q65.8 21.2 68.75 25.95 L53.15 42.0 Q51.05 37.7 53.15 28.9 L64.8 16.95"/><path fill="none" stroke="#000000" stroke-width="0.5" stroke-opacity="0.4" d="M53.15 42.0 L68.75 25.95 Q65.8 21.2 64.8 16.95 M53.15 42.0 L50.4 44.95 Q44.15 36.75 46.15 28.05 L65.15 7.6 Q63.8 12.0 64.8 16.95"/><path fill="#000000" stroke="none" d="M50.45 25.25 Q48.9 27.3 49.35 29.55 L52.2 28.5 51.95 29.7 Q50.3 30.45 49.1 31.75 48.95 33.15 49.4 34.55 L49.5 34.65 Q51.05 33.85 52.3 32.15 L53.0 33.2 Q51.75 34.5 50.7 36.45 L50.6 36.5 50.65 36.75 Q51.35 38.2 53.3 37.85 53.5 38.0 53.75 37.6 L53.95 37.55 Q54.7 36.55 54.9 33.65 56.7 33.3 58.4 31.45 60.2 29.35 61.1 26.7 62.15 23.9 61.5 22.15 60.85 20.2 59.05 20.45 57.25 20.5 55.4 22.55 54.1 23.9 53.25 25.55 L50.5 25.2 50.45 25.25 M57.2 30.15 L56.5 31.45 Q55.85 32.05 55.35 32.1 54.85 32.35 54.65 31.65 54.45 31.3 54.7 30.6 54.9 29.85 55.45 29.15 56.0 28.6 56.55 28.5 57.1 28.45 57.2 28.95 57.45 29.45 57.2 30.15 M56.3 24.2 Q56.5 24.75 56.2 25.45 L55.5 26.75 Q54.95 27.35 54.4 27.4 53.95 27.6 53.7 26.95 53.5 26.55 53.75 25.85 L54.5 24.45 Q55.05 23.9 55.6 23.8 56.15 23.7 56.3 24.2"/></g><g id="c11"><g><use transform="matrix(1.0,0.0,0.0,1.0,0.0,0.0)" xlink:href="#c10"/></g></g><g id="c12"><g><use transform="matrix(1.0,0.0,0.0,1.0,6.3,53.35)" xlink:href="#c9"/></g><g><use transform="matrix(-0.146041870117,0.0488891601562,0.0616760253906,0.140441894531,33.05,63.95)" xlink:href="#c11"/></g><g><use transform="matrix(0.141098022461,-0.0378112792969,0.111373901367,0.225646972656,27.2,74.05)" filter="url(#filter12)" xlink:href="#c6"/></g></g><filter id="filter12"><feColorMatrix in="SourceGraphic" type="matrix" values="1.0 0.0 0.0 0.0 0.0 0.0 1.0 0.0 0.0 0.0 0.0 0.0 1.0 0.0 0.0 0.0 0.0 0.0 0.23046875 0.0" result="cxform"/><feComposite operator="in" in2="SourceGraphic" result="color-xform"/></filter></defs><g><g><use transform="matrix(1.0,0.0,0.0,1.0,0.0,0.0)" xlink:href="#c1"/></g><g><use transform="matrix(1.15496826172,0.0,0.0,1.15496826172,-1.5,-57.15)" xlink:href="#c12"/></g></g></svg>