<?xml version='1.0' encoding='UTF-8'?>
<svg xmlns:xlink="http://www.w3.org/1999/xlink" xmlns="http://www.w3.org/2000/svg" version="1.1" width="60px" height="60px" viewBox="0.0 0.0 60.0 60.0"><defs><g id="c1"><path fill="#000000" fill-opacity="0.00392156862745" d="M0.0 0.0 L60.0 0.0 60.0 60.0 0.0 60.0 0.0 0.0"/></g><g id="c2"><path fill="#006699" stroke="none" d="M31.5 39.85 L19.8 43.65 Q17.15 44.45 15.5 43.3 14.35 42.55 13.65 40.9 L1.7 14.45 1.6 14.3 1.2 13.45 -0.75 9.05 Q-2.05 6.2 -0.3 4.75 0.3 4.25 1.2 3.9 L5.5 2.25 Q8.95 0.95 10.65 4.15 L22.3 0.4 Q26.55 -1.0 28.45 3.1 L40.55 29.95 40.9 30.7 42.95 35.15 Q43.95 37.35 43.15 38.7 42.5 39.7 40.95 40.25 L36.65 41.8 35.1 42.2 Q32.75 42.3 31.5 39.85"/><path fill="none" stroke="#000000" stroke-width="1.0" stroke-opacity="0.298039215686" d="M31.5 39.85 L19.8 43.65 Q17.15 44.45 15.5 43.3 14.35 42.55 13.65 40.9 L1.7 14.45 1.6 14.3 1.2 13.45 -0.75 9.05 Q-2.05 6.2 -0.3 4.75 0.3 4.25 1.2 3.9 L5.5 2.25 Q8.95 0.95 10.65 4.15 L22.3 0.4 Q26.55 -1.0 28.45 3.1 L40.55 29.95 40.9 30.7 42.95 35.15 Q43.95 37.35 43.15 38.7 42.5 39.7 40.95 40.25 L36.65 41.8 35.1 42.2 Q32.75 42.3 31.5 39.85"/><path fill="#300525" stroke="none" d="M0.75 8.25 L29.8 9.75 25.55 0.9 Q26.9 1.6 27.8 3.55 L40.7 32.15 Q42.6 36.3 38.3 37.65 L23.3 42.5 13.15 21.4 4.6 20.9 0.7 12.25 Q-0.45 9.75 0.75 8.25 M20.1 43.55 L19.8 43.65 Q17.15 44.45 15.5 43.3 L20.1 43.55"/><path fill="#630a4c" stroke="none" d="M25.55 0.9 L29.8 9.75 0.75 8.25 Q1.45 7.3 3.1 6.75 L21.65 0.8 25.55 0.9 M4.6 20.9 L13.15 21.4 23.3 42.5 20.1 43.55 15.5 43.3 Q14.35 42.55 13.65 40.9 L4.6 20.9"/><path fill="none" stroke="#000000" stroke-width="0.5" stroke-opacity="0.301960784314" d="M0.75 8.25 Q-0.45 9.75 0.7 12.25 L4.6 20.9 M23.3 42.5 L38.3 37.65 Q42.6 36.3 40.7 32.15 L27.8 3.55 Q26.9 1.6 25.55 0.9 L21.65 0.8 3.1 6.75 Q1.45 7.3 0.75 8.25 M20.1 43.55 L19.8 43.65 Q17.15 44.45 15.5 43.3 14.35 42.55 13.65 40.9 L4.6 20.9 M20.1 43.55 L23.3 42.5"/><path fill="#9d147b" stroke="none" d="M14.2 40.5 L1.35 11.8 Q-0.5 7.75 3.8 6.35 L22.3 0.4 Q26.55 -1.0 28.45 3.1 L41.35 31.7 Q43.25 35.85 38.9 37.25 L20.4 43.2 Q16.1 44.55 14.2 40.5"/><path fill="none" stroke="#000000" stroke-width="0.5" stroke-opacity="0.301960784314" d="M14.2 40.5 L1.35 11.8 Q-0.5 7.75 3.8 6.35 L22.3 0.4 Q26.55 -1.0 28.45 3.1 L41.35 31.7 Q43.25 35.85 38.9 37.25 L20.4 43.2 Q16.1 44.55 14.2 40.5"/><path fill="#9d147b" stroke="none" d="M31.4 39.65 L31.3 39.45 31.25 39.4 29.25 34.95 Q27.55 31.2 31.25 29.85 L35.6 28.25 Q38.8 27.1 40.5 29.85 L40.9 30.7 42.95 35.15 Q43.95 37.35 43.15 38.7 42.5 39.45 41.2 39.9 L36.9 41.45 34.85 41.85 Q32.9 41.7 31.75 39.5 L31.4 39.65"/><path fill="#630a4c" stroke="none" d="M43.15 38.7 Q42.5 39.7 40.95 40.25 L36.65 41.8 35.1 42.2 Q32.75 42.3 31.45 39.8 L31.4 39.65 31.75 39.5 Q32.9 41.7 34.85 41.85 L36.9 41.45 41.2 39.9 Q42.5 39.45 43.15 38.7"/><path fill="none" stroke="#003333" stroke-width="0.5" stroke-opacity="0.509803921569" d="M43.15 38.7 Q42.5 39.7 40.95 40.25 L36.65 41.8 35.1 42.2 Q32.75 42.3 31.45 39.8 L31.4 39.65 30.3 40.0 31.4 39.65 M40.5 29.85 L40.9 30.7 42.95 35.15 Q43.95 37.35 43.15 38.7 42.5 39.45 41.2 39.9 L36.9 41.45 34.85 41.85 Q32.9 41.7 31.75 39.5 L31.4 39.65"/><path fill="#9d147b" stroke="none" d="M10.65 4.2 L10.85 4.6 12.85 9.05 Q14.5 12.8 10.8 14.15 L6.5 15.8 Q4.5 16.6 3.1 15.8 L1.75 12.85 -0.2 8.45 Q-1.25 6.15 -0.3 4.75 0.3 4.25 1.2 3.9 L5.5 2.25 Q9.0 0.95 10.65 4.2"/><path fill="#300525" stroke="none" d="M-0.3 4.75 Q-1.25 6.15 -0.2 8.45 L1.75 12.85 3.1 15.8 Q2.25 15.35 1.6 14.3 L1.2 13.45 -0.75 9.05 Q-2.05 6.2 -0.3 4.75"/><path fill="none" stroke="#003333" stroke-width="0.5" stroke-opacity="0.509803921569" d="M3.1 15.8 L6.45 23.15 M-0.3 4.75 Q0.3 4.25 1.2 3.9 L5.5 2.25 Q9.0 0.95 10.65 4.2 M3.1 15.8 L1.75 12.85 -0.2 8.45 Q-1.25 6.15 -0.3 4.75 -2.05 6.2 -0.75 9.05 L1.2 13.45 1.6 14.3"/><path fill="#fcf2cf" stroke="none" d="M9.15 13.6 Q9.8 12.8 9.55 11.6 L9.1 10.55 22.05 6.35 Q24.9 5.45 26.25 7.85 L26.5 8.3 35.8 29.0 35.95 29.35 Q34.75 29.3 34.1 30.1 33.45 30.9 33.7 32.1 L34.0 32.9 20.65 37.2 Q18.8 37.8 17.65 37.0 16.8 36.4 16.3 35.2 L6.95 14.6 6.8 14.4 7.1 14.4 Q8.4 14.45 9.15 13.6"/><path fill="#c47fad" stroke="none" d="M9.15 13.6 Q8.4 14.45 7.1 14.4 L6.8 14.4 6.95 14.6 16.3 35.2 Q16.8 36.4 17.65 37.0 18.8 37.8 20.65 37.2 L34.0 32.9 33.7 32.1 Q33.45 30.9 34.1 30.1 34.75 29.3 35.95 29.35 L35.8 29.0 26.5 8.3 26.25 7.85 Q24.9 5.45 22.05 6.35 L9.1 10.55 9.55 11.6 Q9.8 12.8 9.15 13.6 M28.25 6.1 L35.55 22.3 39.35 30.75 Q41.1 34.5 37.2 35.7 L20.45 41.1 Q16.8 42.25 15.2 39.0 L15.0 38.6 8.25 23.65 3.35 12.8 Q1.65 9.1 5.5 7.85 L22.25 2.5 Q26.05 1.25 27.75 4.95 L28.25 6.1"/><path fill="none" stroke="#ffcc00" stroke-width="1.0" stroke-opacity="0.749019607843" d="M35.55 22.3 L39.35 30.75 Q41.1 34.5 37.2 35.7 L20.45 41.1 Q16.8 42.25 15.2 39.0 L15.0 38.6 M8.25 23.65 L3.35 12.8 Q1.65 9.1 5.5 7.85 L22.25 2.5 Q26.05 1.25 27.75 4.95 L28.25 6.1"/><path fill="none" stroke="#bf9900" stroke-width="1.0" stroke-opacity="0.749019607843" d="M28.25 6.1 L35.55 22.3 M15.0 38.6 L8.25 23.65"/><path fill="none" stroke="#f0b92b" stroke-width="0.5" d="M9.15 13.6 Q9.8 12.8 9.55 11.6 L9.1 10.55 22.05 6.35 Q24.9 5.45 26.25 7.85 L26.5 8.3 35.8 29.0 35.95 29.35 Q34.75 29.3 34.1 30.1 33.45 30.9 33.7 32.1 L34.0 32.9 20.65 37.2 Q18.8 37.8 17.65 37.0 16.8 36.4 16.3 35.2 L6.95 14.6 6.8 14.4 7.1 14.4 Q8.4 14.45 9.15 13.6"/></g><g id="c3"><path fill="#7fdbfe" stroke="none" d="M10.75 4.9 Q10.75 4.6 10.9 4.35 11.25 3.45 11.95 2.75 13.3 1.5 14.35 2.1 15.4 2.7 14.95 4.45 14.7 5.4 14.1 6.15 L13.75 6.5 Q13.1 7.15 12.35 7.35 L11.4 7.2 Q10.95 6.9 10.75 6.4 10.5 5.75 10.75 4.9 M7.5 5.9 Q7.0 5.85 6.6 5.5 6.05 5.0 5.8 4.15 L5.7 3.6 Q5.55 2.65 5.8 1.7 6.25 0.0 7.5 0.0 L7.6 0.0 Q8.85 0.0 9.3 1.7 9.55 2.65 9.4 3.6 L9.3 4.15 8.5 5.5 7.6 5.9 7.5 5.9 M4.35 4.9 Q4.6 5.75 4.35 6.4 L3.7 7.2 2.75 7.35 Q2.0 7.15 1.35 6.5 L1.0 6.15 Q0.4 5.4 0.15 4.45 -0.3 2.7 0.75 2.1 1.8 1.5 3.15 2.75 3.85 3.45 4.2 4.35 L4.35 4.9 M5.5 13.7 Q4.45 13.9 3.65 12.95 2.75 12.0 3.2 10.25 3.7 8.5 5.25 7.6 6.4 6.9 7.55 7.0 8.75 6.9 9.9 7.6 11.45 8.5 11.95 10.25 12.35 12.0 11.5 12.95 10.7 13.9 9.65 13.7 8.55 13.5 7.55 12.6 6.55 13.5 5.5 13.7"/></g><g id="c4"><g><use transform="matrix(1.0,0.0,0.0,1.0,0.0,0.0)" xlink:href="#c3"/></g></g><radialGradient gradientUnits="userSpaceOnUse" r="819.2" cx="0" cy="0" spreadMethod="pad" gradientTransform="matrix(0.0914459228516,0.0,0.0,0.0914459228516,0.6,3.4)" id="gradient1"><stop offset="0.0" stop-color="#ffffff"/><stop offset="1.0" stop-color="#ffffff" stop-opacity="0.0"/></radialGradient><g id="c5"><path stroke="none" fill="url(#gradient1)" d="M36.65 -54.65 Q60.05 -42.0 69.75 -17.95 80.55 8.9 68.0 34.1 55.45 59.35 26.8 68.2 -1.8 77.05 -29.7 64.3 -57.6 51.6 -68.45 24.75 -79.3 -2.05 -66.75 -27.25 L-66.7 -27.3 Q-54.1 -52.5 -25.5 -61.4 3.1 -70.2 31.0 -57.5 L36.65 -54.65"/></g><g id="c6"><g><use transform="matrix(1.0,0.0,0.0,1.0,0.0,0.0)" xlink:href="#c5"/></g></g><radialGradient gradientUnits="userSpaceOnUse" r="819.2" cx="0" cy="0" spreadMethod="pad" gradientTransform="matrix(0.209197998047,0.0,0.0,0.177108764648,67.15,107.2)" id="gradient2"><stop offset="0.356862745098" stop-color="#ffffff"/><stop offset="0.670588235294" stop-opacity="0.0"/></radialGradient><g id="c7"><path fill="none" stroke-linejoin="round" stroke-linecap="round" stroke="url(#gradient2)" stroke-width="0.5" d="M136.55 165.8 L68.6 106.0 68.4 106.0 118.25 201.5 M68.3 105.8 L68.35 105.8 68.3 105.8 68.3 105.85 68.4 106.0 68.3 106.0 86.55 211.5 M68.3 105.8 L68.3 105.85 68.3 106.0 68.15 105.95 18.25 151.55 M68.3 105.85 L68.25 105.85 68.3 106.0 50.0 193.2 M68.25 105.85 L68.15 105.95 0.05 97.7 M68.3 105.85 L68.25 105.8 68.25 105.85 M68.25 105.8 L68.2 105.7 0.0 45.7 M68.3 105.8 L68.25 105.75 68.25 105.8 M68.25 105.75 L68.2 105.7 18.25 10.05 M68.6 106.0 L68.35 105.8 118.25 60.15 M86.6 18.35 L68.3 105.8 M136.6 114.25 L68.6 106.0 M68.25 105.75 L49.95 0.05"/></g><g id="c8"><g><use transform="matrix(1.0,0.0,0.0,1.0,0.0,0.0)" xlink:href="#c7"/></g></g><g id="c9"><g><use transform="matrix(1.0,0.0,0.0,1.0,0.0,0.0)" xlink:href="#c2"/></g><g><use transform="matrix(0.238861083984,-0.0867004394531,0.10026550293,0.233917236328,34.25,31.15)" xlink:href="#c4"/></g><g><use transform="matrix(0.238861083984,-0.0867004394531,0.10026550293,0.233917236328,4.25,10.3)" xlink:href="#c4"/></g><g><use transform="matrix(0.141098022461,-0.0378112792969,0.111373901367,0.225646972656,20.25,20.65)" filter="url(#filter7)" xlink:href="#c6"/></g><g><use transform="matrix(-0.155029296875,0.0513153076172,0.0841827392578,0.147033691406,22.6,3.15)" filter="url(#filter8)" xlink:href="#c8"/></g></g><filter id="filter7"><feColorMatrix in="SourceGraphic" type="matrix" values="0.0 0.0 0.0 0.0 0.796875 0.0 0.0 0.0 0.0 0.59765625 0.0 0.0 0.0 0.0 0.19921875 0.0 0.0 0.0 1.0 0.0" result="cxform"/><feComposite operator="in" in2="SourceGraphic" result="color-xform"/></filter><filter id="filter8"><feColorMatrix in="SourceGraphic" type="matrix" values="0.0 0.0 0.0 0.0 0.99609375 0.0 0.0 0.0 0.0 0.99609375 0.0 0.0 0.0 0.0 0.99609375 0.0 0.0 0.0 1.0 0.0" result="cxform"/><feComposite operator="in" in2="SourceGraphic" result="color-xform"/></filter><g id="c10"><path fill="none" stroke="#000000" stroke-width="1.0" stroke-opacity="0.301960784314" d="M61.15 19.55 Q60.15 18.6 58.25 18.6 54.55 18.5 49.85 21.85 45.0 25.2 41.9 30.0 40.35 32.4 39.65 34.45 38.95 36.5 39.15 38.2 39.25 39.45 39.85 40.25 37.25 45.25 35.75 51.1 34.5 55.8 34.15 60.35 L40.0 73.9 51.95 86.05 Q48.05 85.75 44.65 86.1 40.75 86.95 36.3 90.35 L34.15 95.45 36.0 102.8 39.2 108.15 45.9 114.25 54.4 115.55 Q64.0 116.6 72.9 108.0 L67.2 108.0 75.3 102.7 71.4 96.25 88.9 99.65 91.75 97.85 Q102.45 90.85 108.15 79.5 L109.35 76.85 Q110.95 73.0 112.05 68.7 L112.65 66.3 Q114.15 66.25 115.35 65.7 118.65 64.05 118.9 58.15 118.2 54.0 116.55 51.2 121.25 49.75 119.9 40.75 118.8 36.35 115.35 33.55 L114.7 33.1 Q112.95 31.8 110.7 30.95 109.5 27.4 107.9 24.6 L108.6 23.7 Q109.5 22.4 109.95 20.85 110.45 18.9 110.1 17.0 L109.4 14.8 107.75 12.1 107.4 11.7 Q104.0 7.8 98.3 6.25 L97.55 6.1 92.0 5.6 Q89.5 5.7 87.15 6.6 85.8 7.15 84.7 7.9 81.75 9.8 80.85 13.05 L80.75 13.55 79.75 13.65 79.4 13.7 Q69.75 15.05 61.15 19.55 M5.45 82.55 Q5.65 79.75 6.9 77.2 14.85 61.35 30.1 57.4 L31.05 57.15 31.9 73.0 26.4 85.5 16.7 87.95 10.8 85.75 6.75 83.5 5.45 82.55 M30.15 90.4 L22.25 92.6 19.45 104.4 Q21.9 106.0 24.5 102.2 L29.15 95.3 30.15 90.4 M17.9 92.25 L15.65 92.25 10.55 93.7 11.3 95.1 13.3 98.2 Q14.6 99.9 15.8 100.05 L19.3 94.65 17.9 92.25 M37.6 82.1 L37.6 85.1 44.9 82.6 42.0 78.9 38.0 80.65 37.6 82.1"/><path fill="#bfbf40" stroke="none" d="M109.4 14.8 L110.1 17.0 Q108.35 15.8 106.6 20.75 L108.6 23.7 Q106.95 25.95 103.7 27.25 98.6 29.25 92.55 27.65 86.5 26.05 83.1 21.75 80.4 18.35 80.6 14.9 87.6 10.45 93.9 12.65 100.15 14.9 103.75 17.65 107.1 19.1 109.4 14.8"/><path fill="#d5d580" stroke="none" d="M107.4 11.7 L107.75 12.1 109.4 14.8 Q107.1 19.1 103.75 17.65 100.15 14.9 93.9 12.65 87.6 10.45 80.6 14.9 L80.65 14.15 Q87.0 9.85 90.55 10.45 96.8 11.2 101.4 13.95 106.0 16.65 107.4 11.7 M110.1 17.0 Q110.45 18.9 109.95 20.85 109.5 22.4 108.6 23.7 L106.6 20.75 Q108.35 15.8 110.1 17.0"/><path fill="#f9f8ec" stroke="none" d="M80.65 14.15 L80.85 13.05 Q81.75 9.8 84.7 7.9 85.8 7.15 87.15 6.6 89.5 5.7 92.0 5.6 85.7 7.15 83.65 9.95 83.1 11.85 87.25 10.0 93.8 8.05 102.0 12.75 106.05 14.05 105.6 11.35 104.45 9.3 97.55 6.1 L98.3 6.25 Q104.0 7.8 107.4 11.7 106.0 16.65 101.4 13.95 96.8 11.2 90.55 10.45 87.0 9.85 80.65 14.15"/><path fill="#f0f0d2" stroke="none" d="M92.0 5.6 L97.55 6.1 Q104.45 9.3 105.6 11.35 106.05 14.05 102.0 12.75 93.8 8.05 87.25 10.0 83.1 11.85 83.65 9.95 85.7 7.15 92.0 5.6"/><path fill="none" stroke="#000000" stroke-width="0.5" stroke-opacity="0.301960784314" d="M80.65 14.15 L80.85 13.05 Q81.75 9.8 84.7 7.9 85.8 7.15 87.15 6.6 89.5 5.7 92.0 5.6 L97.55 6.1 98.3 6.25 Q104.0 7.8 107.4 11.7 L107.75 12.1 109.4 14.8 110.1 17.0 Q110.45 18.9 109.95 20.85 109.5 22.4 108.6 23.7 106.95 25.95 103.7 27.25 98.6 29.25 92.55 27.65 86.5 26.05 83.1 21.75 80.4 18.35 80.6 14.9 L80.65 14.15"/><path fill="#f9f8ec" stroke="none" d="M79.55 13.65 Q84.0 13.5 87.6 14.65 95.8 17.3 99.3 27.1 100.15 30.2 100.6 33.15 L100.75 33.6 Q101.35 37.75 101.4 41.55 L101.35 43.85 Q100.9 55.25 94.7 63.95 L91.8 67.6 89.45 70.05 80.9 76.1 Q79.2 78.2 80.1 80.15 L82.65 86.05 81.4 84.45 81.4 84.4 78.8 80.2 Q76.95 76.05 71.0 74.8 L75.95 75.45 Q83.55 72.25 89.85 66.1 L92.15 63.75 94.7 63.95 92.15 63.75 81.65 62.65 93.55 62.2 93.95 61.7 Q98.6 53.5 98.9 42.95 L95.85 44.65 98.9 41.55 98.65 37.3 95.85 43.35 98.5 35.45 98.05 32.3 97.1 27.45 Q94.85 15.55 83.85 14.95 67.25 14.75 54.55 25.45 L53.7 26.15 Q48.6 30.65 44.05 36.9 37.0 48.15 36.25 61.65 L36.2 62.5 33.9 60.4 Q34.3 55.85 35.5 51.15 39.6 35.2 51.85 25.5 L54.5 23.45 Q55.3 22.9 56.15 22.4 66.8 15.45 79.15 13.7 L79.55 13.65 M100.6 33.15 L98.65 37.3 100.6 33.15 M101.4 41.55 L98.9 42.95 101.4 41.55 M39.4 65.6 L48.0 71.3 60.75 73.7 48.3 72.85 47.0 76.85 45.35 71.15 39.4 65.6 M62.15 73.8 L68.4 68.1 74.75 65.45 68.95 68.9 63.5 73.9 63.5 79.55 62.15 73.8"/><path fill="#f0f0d2" stroke="none" d="M87.6 14.65 Q84.0 13.5 79.55 13.65 L86.7 13.15 Q96.75 12.9 103.1 18.8 L102.75 21.15 103.1 18.8 Q107.95 23.3 110.55 31.25 L111.25 33.45 112.8 39.7 Q113.65 44.1 113.9 48.55 114.4 58.55 111.8 68.75 110.75 73.05 109.1 76.85 L107.9 79.5 Q102.2 90.85 91.5 97.85 L88.65 99.65 88.4 95.8 82.5 86.2 82.65 86.05 89.0 94.1 89.8 97.0 Q99.55 91.15 106.65 78.6 L107.75 76.6 104.65 68.8 108.35 75.45 Q112.85 61.0 112.3 48.0 112.15 43.4 111.25 38.95 L110.65 35.95 103.25 40.0 110.25 34.3 Q107.4 24.95 102.75 21.15 95.55 14.3 87.6 14.65 M36.2 62.5 L36.25 61.65 Q37.0 48.15 44.05 36.9 48.6 30.65 53.7 26.15 L54.55 25.45 Q67.25 14.75 83.85 14.95 94.85 15.55 97.1 27.45 L98.05 32.3 98.5 35.45 95.85 43.35 98.65 37.3 98.9 41.55 95.85 44.65 95.05 45.05 95.85 44.65 98.9 42.95 Q98.6 53.5 93.95 61.7 L93.55 62.2 81.65 62.65 92.15 63.75 89.85 66.1 Q83.55 72.25 75.95 75.45 L71.0 74.8 65.8 74.35 68.95 68.9 74.75 65.45 79.7 62.5 95.05 45.05 95.85 43.35 95.05 45.05 79.7 62.5 74.75 65.45 68.4 68.1 62.15 73.8 60.75 73.7 48.0 71.3 39.4 65.6 36.2 62.5 M111.25 33.45 L110.25 34.3 111.25 33.45 M109.1 76.85 L108.35 75.45 109.1 76.85 M79.7 62.5 L80.75 62.6 79.7 62.5"/><path fill="#d5d580" stroke="none" d="M100.6 33.15 Q100.15 30.2 99.3 27.1 95.8 17.3 87.6 14.65 95.55 14.3 102.75 21.15 L100.6 33.15 102.75 21.15 Q107.4 24.95 110.25 34.3 L103.25 40.0 110.65 35.95 111.25 38.95 Q112.15 43.4 112.3 48.0 112.85 61.0 108.35 75.45 L104.65 68.8 94.7 63.95 104.65 68.8 107.75 76.6 106.65 78.6 Q99.55 91.15 89.8 97.0 L89.0 94.1 82.65 86.05 80.1 80.15 Q79.2 78.2 80.9 76.1 L89.45 70.05 91.8 67.6 94.7 63.95 Q100.9 55.25 101.35 43.85 L101.4 41.55 Q101.35 37.75 100.75 33.6 L100.6 33.15 M101.4 41.55 L103.25 40.0 101.4 41.55 M77.1 81.65 L71.0 86.8 68.05 93.8 69.95 86.3 69.35 76.25 65.8 74.35 71.0 74.8 71.0 84.2 77.1 81.65"/><path fill="#86862d" stroke="none" d="M83.55 98.7 L67.3 95.5 68.05 93.8 71.0 86.8 77.1 81.65 78.8 80.2 81.4 84.4 81.4 84.45 82.5 86.2 88.4 95.8 83.55 98.7 M61.45 92.8 L55.7 90.1 47.0 79.0 47.0 76.85 48.3 72.85 60.75 73.7 62.15 73.8 63.5 79.55 63.5 83.5 62.5 88.2 61.45 92.8"/><path fill="#ca5202" stroke="none" d="M81.4 84.45 L82.65 86.05 82.5 86.2 81.4 84.45"/><path fill="#bfbf40" stroke="none" d="M55.7 90.1 L39.8 73.9 47.0 79.0 55.7 90.1 M71.0 74.8 Q76.95 76.05 78.8 80.2 L77.1 81.65 71.0 84.2 71.0 74.8"/><path fill="#a6a637" stroke="none" d="M33.9 60.4 L36.2 62.5 39.4 65.6 45.35 71.15 47.0 76.85 47.0 79.0 39.8 73.9 33.9 60.4 M88.65 99.65 L83.55 98.7 88.4 95.8 88.65 99.65 M67.3 95.5 L64.4 94.2 63.65 91.65 62.5 88.2 63.5 83.5 65.8 74.35 69.35 76.25 69.95 86.3 68.05 93.8 67.3 95.5"/><path fill="#321401" stroke="none" d="M63.65 91.65 L61.45 92.8 62.5 88.2 63.65 91.65 M68.95 68.9 L65.8 74.35 63.5 83.5 63.5 79.55 63.5 73.9 68.95 68.9"/><path fill="none" stroke="#000000" stroke-width="0.5" stroke-opacity="0.301960784314" d="M79.55 13.65 L79.15 13.7 Q66.8 15.45 56.15 22.4 55.3 22.9 54.5 23.45 L51.85 25.5 Q39.6 35.2 35.5 51.15 34.3 55.85 33.9 60.4 L36.2 62.5 39.4 65.6 45.35 71.15 M95.85 43.35 L98.65 37.3 100.6 33.15 102.75 21.15 103.1 18.8 Q96.75 12.9 86.7 13.15 L79.55 13.65 M110.25 34.3 L111.25 33.45 110.55 31.25 Q107.95 23.3 103.1 18.8 M111.25 33.45 L112.8 39.7 Q113.65 44.1 113.9 48.55 114.4 58.55 111.8 68.75 110.75 73.05 109.1 76.85 L107.9 79.5 Q102.2 90.85 91.5 97.85 L88.65 99.65 83.55 98.7 67.3 95.5 64.4 94.2 63.65 91.65 61.45 92.8 55.7 90.1 39.8 73.9 33.9 60.4 M103.25 40.0 L101.4 41.55 M94.7 63.95 L104.65 68.8 108.35 75.45 109.1 76.85 M103.25 40.0 L110.25 34.3 M98.9 42.95 L101.4 41.55 M74.75 65.45 L79.7 62.5 95.05 45.05 95.85 43.35 M95.85 44.65 L95.05 45.05 M80.75 62.6 L79.7 62.5 M78.8 80.2 L81.4 84.4 M94.7 63.95 L92.15 63.75 81.65 62.65 M98.9 42.95 L95.85 44.65 M81.4 84.45 L82.5 86.2 88.4 95.8 88.65 99.65 M78.8 80.2 L77.1 81.65 71.0 86.8 68.05 93.8 67.3 95.5 M60.75 73.7 L62.15 73.8 M74.75 65.45 L68.95 68.9 65.8 74.35 63.5 83.5 62.5 88.2 63.65 91.65 M47.0 76.85 L47.0 79.0 55.7 90.1 M47.0 76.85 L48.3 72.85 60.75 73.7 M47.0 79.0 L39.8 73.9 M63.5 79.55 L63.5 73.9 68.95 68.9 M62.5 88.2 L61.45 92.8 M63.5 79.55 L63.5 83.5 M88.4 95.8 L83.55 98.7"/><path fill="#ffff98" stroke="none" d="M60.9 22.8 L60.75 22.1 Q60.15 19.75 57.25 19.7 53.95 19.65 49.65 22.7 45.35 25.75 42.55 30.0 41.15 32.2 40.5 34.05 40.15 34.95 40.05 35.8 39.6 35.25 39.4 34.5 40.1 32.4 41.7 30.0 44.8 25.25 49.6 21.85 54.35 18.5 58.0 18.6 61.15 18.6 61.9 21.2 L61.2 22.9 60.9 22.8"/><path fill="#f4a33c" stroke="none" d="M61.2 22.9 L61.9 21.2 62.0 22.05 Q62.4 25.45 59.25 30.2 56.15 35.0 51.35 38.4 46.55 41.7 42.9 41.65 39.25 41.6 38.9 38.2 38.7 36.55 39.4 34.5 39.6 35.25 40.05 35.8 L40.05 37.45 Q40.3 40.5 43.65 40.55 46.95 40.55 51.25 37.55 55.6 34.55 58.4 30.2 60.95 26.25 60.95 23.35 L61.2 22.9"/><path fill="#cc6b22" stroke="none" d="M40.05 35.8 Q41.1 37.05 43.3 37.05 46.9 37.1 51.7 33.75 56.45 30.4 59.6 25.6 L60.95 23.35 Q60.95 26.25 58.4 30.2 55.6 34.55 51.25 37.55 46.95 40.55 43.65 40.55 40.3 40.5 40.05 37.45 L40.05 35.8"/><path fill="#ffde4f" stroke="none" d="M40.05 35.8 Q40.15 34.95 40.5 34.05 41.15 32.2 42.55 30.0 45.35 25.75 49.65 22.7 53.95 19.65 57.25 19.7 60.15 19.75 60.75 22.1 L60.9 22.8 60.95 23.35 59.6 25.6 Q56.45 30.4 51.7 33.75 46.9 37.1 43.3 37.05 41.1 37.05 40.05 35.8"/><path fill="#ea6004" stroke="none" d="M60.9 22.8 L61.2 22.9 60.95 23.35 60.9 22.8"/><path fill="none" stroke="#000000" stroke-width="0.5" stroke-opacity="0.301960784314" d="M61.9 21.2 Q61.15 18.6 58.0 18.6 54.35 18.5 49.6 21.85 44.8 25.25 41.7 30.0 40.1 32.4 39.4 34.5 38.7 36.55 38.9 38.2 39.25 41.6 42.9 41.65 46.55 41.7 51.35 38.4 56.15 35.0 59.25 30.2 62.4 25.45 62.0 22.05 L61.9 21.2"/><path fill="#fdcc0b" fill-opacity="0.501960784314" d="M56.3 21.35 Q47.0 24.1 43.75 32.2 49.3 25.5 56.3 21.35 M58.0 20.45 Q49.85 25.45 42.95 33.5 46.25 22.75 58.0 20.45"/><path fill="#f0f0d2" stroke="none" d="M56.3 21.35 Q49.3 25.5 43.75 32.2 47.0 24.1 56.3 21.35"/><path fill="#cc6b22" stroke="none" d="M96.15 36.85 L94.6 37.2 Q91.9 37.85 89.6 39.25 89.5 38.0 89.8 36.95 96.3 33.55 102.7 34.5 108.25 35.35 113.1 38.45 L113.3 38.55 Q115.85 40.9 115.5 42.05 117.75 41.5 115.7 36.3 L117.8 38.9 Q119.25 41.6 118.4 46.2 118.1 49.3 115.7 50.25 L115.25 49.65 115.85 44.9 115.15 43.65 114.15 42.3 113.9 41.95 112.55 40.55 112.2 40.2 111.2 39.45 Q108.35 37.5 104.5 37.15 L102.9 36.9 Q99.3 36.4 96.15 36.85 M82.7 50.25 L92.7 50.6 96.5 50.7 Q103.35 49.7 108.05 51.9 L109.4 52.75 Q112.25 54.6 113.95 57.6 114.8 57.3 115.15 56.2 115.45 54.85 115.15 52.5 L115.0 51.9 115.15 51.85 116.3 53.45 Q118.2 57.4 116.3 61.8 L115.15 63.25 Q114.05 64.25 112.5 64.8 L112.8 61.4 Q112.4 59.15 111.25 57.4 110.35 55.95 108.9 54.9 L107.75 54.2 Q103.5 51.85 94.4 53.15 86.5 52.65 82.7 50.25"/><path fill="#f0f0d2" stroke="none" d="M94.6 37.2 L96.15 36.85 97.35 43.85 96.6 44.0 94.6 37.2 M104.5 37.15 Q108.35 37.5 111.2 39.45 L110.3 46.05 Q107.5 44.85 104.85 44.3 L104.5 37.15"/><path fill="#f9f8ec" stroke="none" d="M96.15 36.85 Q99.3 36.4 102.9 36.9 L103.75 44.1 101.0 43.75 97.35 43.85 96.15 36.85 M89.6 39.25 Q91.9 37.85 94.6 37.2 L96.6 44.0 94.7 44.3 Q89.25 44.2 89.25 41.15 89.2 40.3 89.6 39.25"/><path fill="#ffde4f" stroke="none" d="M115.25 49.65 L115.7 50.25 Q118.1 49.3 118.4 46.2 119.25 41.6 117.8 38.9 L115.7 36.3 115.15 35.75 114.05 34.75 Q110.1 31.55 104.6 30.6 104.65 30.0 103.6 29.2 110.45 30.2 114.5 33.05 L115.15 33.55 Q118.6 36.4 119.7 40.7 121.0 49.8 116.3 51.2 L115.7 50.25 116.3 51.2 Q118.0 54.05 118.65 58.15 118.4 64.1 115.15 65.7 113.95 66.25 112.4 66.3 L112.5 64.8 Q114.05 64.25 115.15 63.25 L116.3 61.8 Q118.2 57.4 116.3 53.45 L115.15 51.85 114.95 51.7 Q112.95 49.3 110.65 47.85 106.9 45.45 102.5 45.55 102.3 44.65 101.0 43.75 L103.75 44.1 104.85 44.3 Q107.5 44.85 110.3 46.05 L110.85 46.3 111.05 46.45 111.2 46.55 Q113.5 47.55 115.15 49.45 L115.25 49.65 M89.8 36.95 Q89.5 38.0 89.6 39.25 89.2 40.3 89.25 41.15 89.0 46.05 94.2 45.45 99.75 44.3 100.85 46.05 99.85 47.5 94.4 49.1 85.35 51.45 82.2 47.85 80.9 41.2 84.9 35.55 88.9 31.8 94.85 31.05 103.0 29.4 102.95 30.9 102.5 31.85 98.95 32.55 L98.95 32.65 97.75 32.75 97.6 32.75 97.0 32.85 Q90.9 33.7 89.8 36.95"/><path fill="#ffff98" stroke="none" d="M96.6 44.0 L97.35 43.85 101.0 43.75 Q102.3 44.65 102.5 45.55 102.95 47.4 99.2 49.35 L92.7 50.6 82.7 50.25 Q79.75 48.25 80.9 42.2 82.05 36.05 86.1 33.25 90.2 30.35 101.95 29.0 L103.6 29.2 Q104.65 30.0 104.6 30.6 104.5 32.1 98.95 32.65 L98.95 32.55 Q102.5 31.85 102.95 30.9 103.0 29.4 94.85 31.05 88.9 31.8 84.9 35.55 80.9 41.2 82.2 47.85 85.35 51.45 94.4 49.1 99.85 47.5 100.85 46.05 99.75 44.3 94.2 45.45 89.0 46.05 89.25 41.15 89.25 44.2 94.7 44.3 L96.6 44.0"/><path fill="#f4a33c" stroke="none" d="M115.7 36.3 Q117.75 41.5 115.5 42.05 115.85 40.9 113.3 38.55 L113.1 38.45 Q108.25 35.35 102.7 34.5 96.3 33.55 89.8 36.95 90.9 33.7 97.0 32.85 L97.6 32.75 97.75 32.75 98.95 32.65 Q104.5 32.1 104.6 30.6 110.1 31.55 114.05 34.75 L115.15 35.75 115.7 36.3 M92.7 50.6 L99.2 49.35 Q102.95 47.4 102.5 45.55 106.9 45.45 110.65 47.85 112.95 49.3 114.95 51.7 L115.0 51.9 115.15 52.5 Q115.45 54.85 115.15 56.2 114.8 57.3 113.95 57.6 112.25 54.6 109.4 52.75 L108.05 51.9 Q103.35 49.7 96.5 50.7 L92.7 50.6"/><path fill="#d5d580" stroke="none" d="M102.9 36.9 L104.5 37.15 104.85 44.3 103.75 44.1 102.9 36.9 M112.2 40.2 L112.55 40.55 113.9 41.95 114.15 42.3 115.15 43.65 115.85 44.9 115.25 49.65 115.15 49.45 Q113.5 47.55 111.2 46.55 L111.05 46.45 110.85 46.3 112.2 40.2"/><path fill="#bfbf40" stroke="none" d="M111.2 39.45 L112.2 40.2 110.85 46.3 110.3 46.05 111.2 39.45"/><path fill="#6d2c01" stroke="none" d="M115.0 51.9 L114.95 51.7 115.15 51.85 115.0 51.9"/><path fill="none" stroke="#000000" stroke-width="0.5" stroke-opacity="0.301960784314" d="M94.6 37.2 L96.15 36.85 Q99.3 36.4 102.9 36.9 L104.5 37.15 Q108.35 37.5 111.2 39.45 L112.2 40.2 112.55 40.55 113.9 41.95 114.15 42.3 115.15 43.65 115.85 44.9 115.25 49.65 115.7 50.25 M89.6 39.25 Q91.9 37.85 94.6 37.2 M96.6 44.0 L97.35 43.85 96.15 36.85 M89.25 41.15 Q89.2 40.3 89.6 39.25 M103.6 29.2 L101.95 29.0 Q90.2 30.35 86.1 33.25 82.05 36.05 80.9 42.2 79.75 48.25 82.7 50.25 86.5 52.65 94.4 53.15 103.5 51.85 107.75 54.2 L108.9 54.9 Q110.35 55.95 111.25 57.4 112.4 59.15 112.8 61.4 L112.5 64.8 112.4 66.3 Q113.95 66.25 115.15 65.7 118.4 64.1 118.65 58.15 118.0 54.05 116.3 51.2 121.0 49.8 119.7 40.7 118.6 36.4 115.15 33.55 L114.5 33.05 Q110.45 30.2 103.6 29.2 M101.0 43.75 L97.35 43.85 M115.25 49.65 L115.15 49.45 Q113.5 47.55 111.2 46.55 L111.05 46.45 110.85 46.3 110.3 46.05 Q107.5 44.85 104.85 44.3 L103.75 44.1 101.0 43.75 M110.85 46.3 L112.2 40.2 M116.3 51.2 L115.7 50.25 M96.6 44.0 L94.7 44.3 Q89.25 44.2 89.25 41.15 M104.85 44.3 L104.5 37.15"/><path fill="#d5d580" stroke="none" d="M75.8 22.2 Q79.2 28.35 77.6 38.55 75.45 52.85 69.95 61.8 L48.9 57.95 42.8 53.7 Q40.15 46.7 42.8 40.85 44.45 40.2 50.2 40.0 L50.25 40.2 Q45.35 41.15 44.0 43.3 43.8 43.2 43.75 43.4 42.8 45.8 42.9 49.8 43.45 53.4 47.65 53.65 L47.8 53.65 Q56.9 53.85 67.15 57.0 77.95 32.65 75.8 22.2 M42.8 53.7 Q45.2 53.55 47.65 53.65 45.2 53.55 42.8 53.7 M72.25 32.45 Q60.15 38.6 55.2 33.9 53.95 32.75 53.2 30.9 60.75 23.85 74.4 18.6 75.35 26.0 72.25 32.45"/><path fill="#a6a637" stroke="none" d="M67.15 57.0 Q56.9 53.85 47.8 53.65 L47.65 53.65 Q43.45 53.4 42.9 49.8 42.8 45.8 43.75 43.4 43.8 43.2 44.0 43.3 45.35 41.15 50.25 40.2 L50.2 40.0 50.25 40.15 51.3 40.0 51.35 40.0 62.55 41.2 Q65.05 42.95 65.9 48.5 L65.95 49.6 Q66.85 52.6 67.15 57.0"/><path fill="#f9f8ec" stroke="none" d="M42.8 40.85 Q45.3 37.65 47.75 34.9 60.8 20.55 74.4 18.6 60.75 23.85 53.2 30.9 49.45 34.3 47.2 38.2 46.8 39.0 51.35 40.0 L51.3 40.0 50.2 40.0 Q44.45 40.2 42.8 40.85 M62.55 41.2 L67.65 40.2 Q65.7 43.2 65.9 48.5 65.05 42.95 62.55 41.2"/><path fill="#ca5202" stroke="none" d="M51.3 40.0 L50.25 40.15 50.2 40.0 51.3 40.0"/><path fill="#f0f0d2" stroke="none" d="M51.35 40.0 Q46.8 39.0 47.2 38.2 49.45 34.3 53.2 30.9 53.95 32.75 55.2 33.9 60.15 38.6 72.25 32.45 69.65 37.85 67.65 40.2 L62.55 41.2 51.35 40.0"/><path fill="#bfbf40" stroke="none" d="M74.4 18.6 Q75.35 20.15 75.8 22.2 77.95 32.65 67.15 57.0 66.85 52.6 65.95 49.6 L65.9 48.5 Q65.7 43.2 67.65 40.2 69.65 37.85 72.25 32.45 75.35 26.0 74.4 18.6"/><path fill="none" stroke="#000000" stroke-width="0.5" stroke-opacity="0.301960784314" d="M42.8 53.7 Q40.15 46.7 42.8 40.85 45.3 37.65 47.75 34.9 60.8 20.55 74.4 18.6 75.35 20.15 75.8 22.2 77.95 32.65 67.15 57.0 56.9 53.85 47.8 53.65 L47.65 53.65 Q45.2 53.55 42.8 53.7"/><path fill="#ffde4f" stroke="none" d="M80.1 75.1 L75.15 72.75 Q76.5 68.55 80.45 66.25 84.65 63.8 89.4 65.1 93.35 66.15 95.7 69.25 L96.6 70.6 97.15 71.65 96.75 73.25 95.85 75.8 89.0 76.2 95.85 75.8 Q94.1 79.45 90.4 81.65 88.05 83.0 85.55 83.35 L83.4 79.15 82.1 76.6 89.0 76.2 80.4 75.15 80.1 75.1 M74.85 73.75 L77.6 74.85 82.1 76.6 83.4 79.15 84.6 83.5 80.0 83.0 Q77.3 82.3 75.3 80.8 74.75 79.4 74.55 77.95 74.3 75.95 74.85 73.75"/><path fill="#ffff98" stroke="none" d="M97.15 71.65 L96.6 70.6 95.7 69.25 Q93.35 66.15 89.4 65.1 84.65 63.8 80.45 66.25 76.5 68.55 75.15 72.75 L80.1 75.1 77.6 74.85 74.85 73.75 73.1 73.05 74.85 73.75 Q74.3 75.95 74.55 77.95 74.75 79.4 75.3 80.8 73.85 79.75 72.65 78.2 72.35 75.7 73.1 73.05 L73.1 73.0 Q74.55 67.45 79.5 64.65 84.4 61.75 89.9 63.2 94.5 64.45 97.2 68.05 L97.15 71.65"/><path fill="#cc6b22" stroke="none" d="M80.1 75.1 L80.4 75.15 89.0 76.2 82.1 76.6 77.6 74.85 80.1 75.1 M95.85 75.8 L96.75 73.25 97.15 71.65 Q97.8 73.05 98.05 74.5 L98.1 74.95 Q98.4 77.15 97.75 79.6 96.5 84.3 92.25 86.8 89.25 88.45 86.05 88.35 L85.95 88.4 85.9 88.35 85.55 83.35 Q88.05 83.0 90.4 81.65 94.1 79.45 95.85 75.8 L98.1 74.95 95.85 75.8 M75.3 80.8 Q77.3 82.3 80.0 83.0 L84.6 83.5 84.8 88.25 83.3 87.95 Q78.5 86.7 76.1 82.45 L75.3 80.8"/><path fill="#f4a33c" stroke="none" d="M97.15 71.65 L97.2 68.05 98.3 69.7 Q99.55 71.9 99.95 74.25 100.45 77.05 99.65 80.1 98.2 85.6 93.25 88.45 89.75 90.45 86.05 90.3 L85.9 88.4 86.05 90.3 82.8 89.85 Q77.25 88.3 74.45 83.4 72.95 80.85 72.65 78.2 73.85 79.75 75.3 80.8 L76.1 82.45 Q78.5 86.7 83.3 87.95 L84.8 88.25 84.6 83.5 83.4 79.15 85.55 83.35 85.9 88.35 85.9 88.4 85.95 88.4 86.05 88.35 Q89.25 88.45 92.25 86.8 96.5 84.3 97.75 79.6 98.4 77.15 98.1 74.95 L98.05 74.5 Q97.8 73.05 97.15 71.65 M98.1 74.95 L99.95 74.25 98.1 74.95"/><path fill="#a6a637" stroke="none" d="M85.95 88.4 L85.9 88.4 85.9 88.35 85.95 88.4"/><path fill="none" stroke="#000000" stroke-width="0.5" stroke-opacity="0.301960784314" d="M80.4 75.15 L89.0 76.2 95.85 75.8 98.1 74.95 M97.2 68.05 Q94.5 64.45 89.9 63.2 84.4 61.75 79.5 64.65 74.55 67.45 73.1 73.0 L73.1 73.05 74.85 73.75 77.6 74.85 80.1 75.1 M82.1 76.6 L77.6 74.85 M83.4 79.15 L82.1 76.6 89.0 76.2 M83.4 79.15 L85.55 83.35 M85.9 88.4 L86.05 90.3 Q89.75 90.45 93.25 88.45 98.2 85.6 99.65 80.1 100.45 77.05 99.95 74.25 L98.1 74.95 M85.9 88.4 L85.9 88.35 85.55 83.35 M86.05 90.3 L82.8 89.85 Q77.25 88.3 74.45 83.4 72.95 80.85 72.65 78.2 72.35 75.7 73.1 73.05 M97.2 68.05 L98.3 69.7 Q99.55 71.9 99.95 74.25"/><path fill="#fdcc0b" fill-opacity="0.501960784314" d="M90.65 85.7 Q91.6 74.1 85.0 66.2 L90.65 85.7 M90.8 87.95 L84.0 64.55 Q93.25 74.0 90.8 87.95"/><path fill="#f0f0d2" stroke="none" d="M90.65 85.7 L85.0 66.2 Q91.6 74.1 90.65 85.7"/><path fill="#f0f0d2" stroke="none" d="M42.95 82.1 L37.35 82.1 37.75 80.7 42.95 82.1 M44.4 86.15 Q42.45 89.25 43.15 92.35 40.65 90.1 37.5 90.8 L35.4 95.0 36.45 100.85 41.2 100.15 Q38.5 101.5 35.75 102.8 L33.9 95.5 36.05 90.4 Q40.5 86.95 44.4 86.15"/><path fill="#d5d580" stroke="none" d="M44.65 82.6 L37.35 85.1 37.35 82.1 42.95 82.1 44.65 82.6 M51.45 103.6 L53.8 104.6 48.65 100.55 48.65 96.75 Q48.0 90.6 63.05 88.9 L66.8 90.5 72.5 100.1 72.55 101.85 66.2 104.45 58.6 105.2 54.5 104.95 53.8 104.6 54.5 104.95 61.4 108.0 66.95 108.05 69.8 108.05 63.05 112.6 Q58.35 114.6 52.35 111.05 L51.3 108.7 49.7 102.9 51.45 103.6"/><path fill="#a6a637" stroke="none" d="M44.65 82.6 L42.95 82.1 37.75 80.7 41.8 78.9 44.65 82.6 M42.9 100.25 L47.55 100.55 51.45 103.6 49.7 102.9 48.05 102.25 42.9 100.25 M58.6 105.2 L65.6 105.65 75.1 102.7 66.95 108.05 61.4 108.0 54.5 104.95 58.6 105.2 M54.2 115.6 L45.7 114.2 49.9 108.8 54.2 115.6"/><path fill="#f9f8ec" stroke="none" d="M43.15 92.35 Q42.45 89.25 44.4 86.15 51.3 85.4 60.0 87.35 L67.45 90.0 75.1 102.7 65.6 105.65 58.6 105.2 66.2 104.45 72.55 101.85 72.5 100.1 66.8 90.5 63.05 88.9 Q48.0 90.6 48.65 96.75 L48.65 100.55 53.8 104.6 51.45 103.6 47.55 100.55 42.9 100.25 41.2 100.15 47.05 98.85 46.5 97.1 43.15 92.35 M69.8 108.05 L72.7 108.05 Q63.75 116.6 54.2 115.6 L49.9 108.8 48.05 102.25 49.7 102.9 51.3 108.7 52.35 111.05 Q58.35 114.6 63.05 112.6 L69.8 108.05"/><path fill="#bfbf40" stroke="none" d="M35.75 102.8 Q38.5 101.5 41.2 100.15 L36.45 100.85 35.4 95.0 37.5 90.8 Q40.65 90.1 43.15 92.35 L46.5 97.1 47.05 98.85 41.2 100.15 42.9 100.25 48.05 102.25 49.9 108.8 45.7 114.2 38.95 108.15 35.75 102.8"/><path fill="none" stroke="#000000" stroke-width="0.5" stroke-opacity="0.301960784314" d="M37.35 82.1 L37.35 85.1 44.65 82.6 42.95 82.1 37.75 80.7 41.8 78.9 44.65 82.6 M37.35 82.1 L37.75 80.7 M44.4 86.15 Q40.5 86.95 36.05 90.4 L33.9 95.5 35.75 102.8 Q38.5 101.5 41.2 100.15 L42.9 100.25 47.55 100.55 51.45 103.6 53.8 104.6 M75.1 102.7 L67.45 90.0 60.0 87.35 Q51.3 85.4 44.4 86.15 M54.5 104.95 L53.8 104.6 M69.8 108.05 L72.7 108.05 Q63.75 116.6 54.2 115.6 L45.7 114.2 38.95 108.15 35.75 102.8 M69.8 108.05 L66.95 108.05 61.4 108.0 54.5 104.95 M75.1 102.7 L66.95 108.05 M48.05 102.25 L49.9 108.8 54.2 115.6 M49.9 108.8 L45.7 114.2"/><path fill="#f9f8ec" stroke="none" d="M6.5 83.55 L5.25 82.55 Q5.45 79.75 6.7 77.15 14.65 61.35 29.85 57.4 L30.8 57.15 25.2 74.45 31.0 73.35 24.7 76.1 19.15 83.65 21.6 79.3 22.5 77.65 22.65 77.6 28.2 59.0 Q18.0 62.65 11.8 71.05 8.65 75.25 6.5 80.75 L6.5 83.55 M10.55 85.75 L7.2 83.9 17.2 84.8 15.75 85.1 10.55 85.75 M15.4 92.2 L17.65 92.2 15.9 98.25 15.4 92.2 M23.0 94.25 L27.3 92.3 21.15 100.2 23.0 94.25"/><path fill="#d5d580" stroke="none" d="M16.4 87.95 L10.55 85.75 15.75 85.1 16.4 87.95 M7.2 83.9 L6.5 83.55 6.5 80.75 Q8.65 75.25 11.8 71.05 7.15 86.35 21.6 79.3 L19.15 83.65 18.55 84.4 17.2 84.8 7.2 83.9 M27.3 92.3 L29.95 90.45 28.9 95.3 24.25 102.2 Q21.7 106.0 19.25 104.4 L21.15 100.2 27.3 92.3"/><path fill="#bfbf40" stroke="none" d="M31.7 73.05 L26.15 85.55 18.55 84.4 19.15 83.65 24.7 76.1 31.0 73.35 31.7 73.05 M29.95 90.45 L27.3 92.3 23.0 94.25 22.0 92.6 29.95 90.45"/><path fill="#a6a637" stroke="none" d="M30.8 57.15 Q31.35 63.25 31.7 73.05 L31.0 73.35 25.2 74.45 30.8 57.15 M26.15 85.55 L16.4 87.95 15.75 85.1 17.2 84.8 18.55 84.4 26.15 85.55 M15.9 98.25 L17.65 92.2 19.1 94.65 15.55 100.1 15.9 98.25 M22.0 92.6 L23.0 94.25 21.15 100.2 19.25 104.4 22.0 92.6"/><path fill="#f0f0d2" stroke="none" d="M11.8 71.05 Q18.0 62.65 28.2 59.0 L22.65 77.6 22.5 77.65 21.6 79.3 Q7.15 86.35 11.8 71.05 M15.4 92.2 L15.9 98.25 15.55 100.1 Q14.35 99.95 13.1 98.2 11.95 96.75 11.05 95.1 L10.35 93.7 15.4 92.2"/><path fill="none" stroke="#000000" stroke-width="0.5" stroke-opacity="0.301960784314" d="M6.5 83.55 L5.25 82.55 Q5.45 79.75 6.7 77.15 14.65 61.35 29.85 57.4 L30.8 57.15 Q31.35 63.25 31.7 73.05 L26.15 85.55 16.4 87.95 10.55 85.75 7.2 83.9 6.5 83.55 M19.15 83.65 L24.7 76.1 31.0 73.35 31.7 73.05 M25.2 74.45 L30.8 57.15 M16.4 87.95 L15.75 85.1 10.55 85.75 M17.2 84.8 L18.55 84.4 19.15 83.65 M15.75 85.1 L17.2 84.8 M17.65 92.2 L15.4 92.2 M15.9 98.25 L17.65 92.2 19.1 94.65 15.55 100.1 Q14.35 99.95 13.1 98.2 11.95 96.75 11.05 95.1 L10.35 93.7 15.4 92.2 M27.3 92.3 L29.95 90.45 22.0 92.6 23.0 94.25 27.3 92.3 M21.15 100.2 L19.25 104.4 Q21.7 106.0 24.25 102.2 L28.9 95.3 29.95 90.45 M18.55 84.4 L26.15 85.55 M23.0 94.25 L21.15 100.2 M15.55 100.1 L15.9 98.25 M22.0 92.6 L19.25 104.4"/><path fill="#f9f8ec" stroke="none" d="M92.15 8.35 L90.45 8.8 88.75 8.35 Q88.05 8.0 88.05 7.4 88.05 6.85 88.75 6.45 89.45 6.05 90.45 6.05 L92.15 6.45 Q92.85 6.85 92.85 7.4 92.85 8.0 92.15 8.35"/></g><g id="c11"><g><use transform="matrix(1.0,0.0,0.0,1.0,0.0,0.0)" xlink:href="#c5"/></g></g><radialGradient gradientUnits="userSpaceOnUse" r="819.2" cx="0" cy="0" spreadMethod="pad" gradientTransform="matrix(0.0212554931641,0.0,0.0,0.0212554931641,0.0,0.0)" id="gradient3"><stop offset="0.196078431373" stop-color="#fee3bc"/><stop offset="0.501960784314" stop-color="#fee3bc" stop-opacity="0.160784313725"/><stop offset="0.760784313725" stop-color="#ffe3bd" stop-opacity="0.0"/></radialGradient><g id="c12"><path stroke="none" fill="url(#gradient3)" d="M9.3 -9.85 Q13.35 -5.8 13.35 0.0 13.35 5.8 9.3 9.3 5.8 13.35 0.0 13.35 -5.8 13.35 -9.85 9.3 -13.35 5.8 -13.35 0.0 -13.35 -5.8 -9.85 -9.85 -5.8 -13.35 0.0 -13.35 5.8 -13.35 9.3 -9.85"/></g><g id="c13"><g><use transform="matrix(1.0,0.0,0.0,1.0,0.0,0.0)" xlink:href="#c12"/></g></g><g id="c14"><g><use transform="matrix(0.00422668457031,-1.35153198242,1.39352416992,0.0199737548828,40.75,38.25)" xlink:href="#c13"/></g><g><use transform="matrix(0.00953674316406,-3.04858398438,0.371948242188,0.00532531738281,41.6,40.75)" filter="url(#filter12)" xlink:href="#c13"/></g><g><use transform="matrix(3.04858398438,0.00953674316406,-0.00532531738281,0.371948242188,40.75,40.2)" filter="url(#filter13)" xlink:href="#c13"/></g></g><filter id="filter12"><feColorMatrix in="SourceGraphic" type="matrix" values="1.0 0.0 0.0 0.0 0.0 0.0 1.0 0.0 0.0 0.0 0.0 0.0 1.0 0.0 0.0 0.0 0.0 0.0 0.71875 0.0" result="cxform"/><feComposite operator="in" in2="SourceGraphic" result="color-xform"/></filter><filter id="filter13"><feColorMatrix in="SourceGraphic" type="matrix" values="1.0 0.0 0.0 0.0 0.0 0.0 1.0 0.0 0.0 0.0 0.0 0.0 1.0 0.0 0.0 0.0 0.0 0.0 0.71875 0.0" result="cxform"/><feComposite operator="in" in2="SourceGraphic" result="color-xform"/></filter><g id="c15"><g><use transform="matrix(1.0,0.0,0.0,1.0,0.0,0.0)" xlink:href="#c10"/></g><g><use transform="matrix(0.360748291016,0.0,-0.0336608886719,0.441101074219,88.5,47.9)" filter="url(#filter15)" xlink:href="#c11"/></g><g><use transform="matrix(0.165939331055,0.0241851806641,-0.00465393066406,0.0621185302734,96.3,10.35)" filter="url(#filter16)" xlink:href="#c11"/></g><g><use transform="matrix(0.150161743164,-0.0175933837891,0.0343170166016,0.183212280273,57.8,98.95)" filter="url(#filter17)" xlink:href="#c11"/></g><g><use transform="matrix(0.0622253417969,0.0491638183594,-0.0981292724609,0.143508911133,17.0,72.4)" filter="url(#filter18)" xlink:href="#c11"/></g><g><use transform="matrix(0.373458862305,0.0,0.0,0.371322631836,77.9,28.55)" filter="url(#filter19)" xlink:href="#c14"/></g><g><use transform="matrix(0.255706787109,0.0,0.0,0.254165649414,77.9,0.0)" filter="url(#filter20)" xlink:href="#c14"/></g></g><filter id="filter15"><feColorMatrix in="SourceGraphic" type="matrix" values="1.0 0.0 0.0 0.0 0.0 0.0 1.0 0.0 0.0 0.0 0.0 0.0 1.0 0.0 0.0 0.0 0.0 0.0 0.26171875 0.0" result="cxform"/><feComposite operator="in" in2="SourceGraphic" result="color-xform"/></filter><filter id="filter16"><feColorMatrix in="SourceGraphic" type="matrix" values="1.0 0.0 0.0 0.0 0.0 0.0 1.0 0.0 0.0 0.0 0.0 0.0 1.0 0.0 0.0 0.0 0.0 0.0 0.26171875 0.0" result="cxform"/><feComposite operator="in" in2="SourceGraphic" result="color-xform"/></filter><filter id="filter17"><feColorMatrix in="SourceGraphic" type="matrix" values="1.0 0.0 0.0 0.0 0.0 0.0 1.0 0.0 0.0 0.0 0.0 0.0 1.0 0.0 0.0 0.0 0.0 0.0 0.12890625 0.0" result="cxform"/><feComposite operator="in" in2="SourceGraphic" result="color-xform"/></filter><filter id="filter18"><feColorMatrix in="SourceGraphic" type="matrix" values="1.0 0.0 0.0 0.0 0.0 0.0 1.0 0.0 0.0 0.0 0.0 0.0 1.0 0.0 0.0 0.0 0.0 0.0 0.12890625 0.0" result="cxform"/><feComposite operator="in" in2="SourceGraphic" result="color-xform"/></filter><filter id="filter19"><feColorMatrix in="SourceGraphic" type="matrix" values="1.0 0.0 0.0 0.0 0.0 0.0 1.0 0.0 0.0 0.0 0.0 0.0 1.0 0.0 0.0 0.0 0.0 0.0 0.578125 0.0" result="cxform"/><feComposite operator="in" in2="SourceGraphic" result="color-xform"/></filter><filter id="filter20"><feColorMatrix in="SourceGraphic" type="matrix" values="1.0 0.0 0.0 0.0 0.0 0.0 1.0 0.0 0.0 0.0 0.0 0.0 1.0 0.0 0.0 0.0 0.0 0.0 0.578125 0.0" result="cxform"/><feComposite operator="in" in2="SourceGraphic" result="color-xform"/></filter><g id="c16"><g><use transform="matrix(1.0,0.0,0.0,1.0,6.3,53.35)" xlink:href="#c9"/></g><g><use transform="matrix(-0.146041870117,0.0488891601562,0.0616760253906,0.140441894531,33.05,63.95)" xlink:href="#c15"/></g><g><use transform="matrix(0.141098022461,-0.0378112792969,0.111373901367,0.225646972656,27.2,74.05)" filter="url(#filter23)" xlink:href="#c6"/></g></g><filter id="filter23"><feColorMatrix in="SourceGraphic" type="matrix" values="1.0 0.0 0.0 0.0 0.0 0.0 1.0 0.0 0.0 0.0 0.0 0.0 1.0 0.0 0.0 0.0 0.0 0.0 0.23046875 0.0" result="cxform"/><feComposite operator="in" in2="SourceGraphic" result="color-xform"/></filter></defs><g><g><use transform="matrix(1.0,0.0,0.0,1.0,0.0,0.0)" xlink:href="#c1"/></g><g><use transform="matrix(1.15496826172,0.0,0.0,1.15496826172,-1.5,-57.15)" xlink:href="#c16"/></g></g></svg>