<?xml version='1.0' encoding='UTF-8'?>
<svg xmlns:xlink="http://www.w3.org/1999/xlink" xmlns="http://www.w3.org/2000/svg" version="1.1" width="60px" height="60px" viewBox="0.0 0.0 60.0 60.0"><defs><g id="c1"><path fill="#000000" fill-opacity="0.00392156862745" d="M0.0 0.0 L60.0 0.0 60.0 60.0 0.0 60.0 0.0 0.0"/></g><g id="c2"><path fill="none" stroke="#000000" stroke-width="1.0" stroke-opacity="0.301960784314" d="M22.3 0.35 Q26.6 -1.0 28.5 3.05 L41.4 31.7 Q43.1 35.4 39.9 36.85 L38.15 37.65 19.65 43.65 Q17.05 44.5 15.35 43.3 14.2 42.55 13.5 40.9 L0.55 12.25 Q-0.6 9.75 0.6 8.25 1.15 7.55 2.2 7.05 2.85 6.6 3.8 6.3 L22.3 0.35"/><path fill="#300525" stroke="none" d="M25.55 0.9 Q26.9 1.6 27.8 3.55 L40.7 32.15 Q42.6 36.3 38.3 37.65 L23.3 42.5 13.15 21.4 4.6 20.9 0.7 12.25 Q-0.45 9.75 0.75 8.25 L29.8 9.75 25.55 0.9 M20.1 43.55 L19.8 43.65 Q17.15 44.45 15.5 43.3 L20.1 43.55"/><path fill="#630a4c" stroke="none" d="M23.3 42.5 L20.1 43.55 15.5 43.3 Q14.35 42.55 13.65 40.9 L4.6 20.9 13.15 21.4 23.3 42.5 M0.75 8.25 Q1.45 7.3 3.1 6.75 L21.65 0.8 25.55 0.9 29.8 9.75 0.75 8.25"/><path fill="none" stroke="#000000" stroke-width="0.5" stroke-opacity="0.301960784314" d="M25.55 0.9 Q26.9 1.6 27.8 3.55 L40.7 32.15 Q42.6 36.3 38.3 37.65 L23.3 42.5 20.1 43.55 19.8 43.65 Q17.15 44.45 15.5 43.3 14.35 42.55 13.65 40.9 L4.6 20.9 0.7 12.25 Q-0.45 9.75 0.75 8.25 1.45 7.3 3.1 6.75 L21.65 0.8 25.55 0.9"/><path fill="#9d147b" stroke="none" d="M14.2 40.5 L1.35 11.8 Q-0.5 7.75 3.8 6.35 L22.3 0.4 Q26.55 -1.0 28.45 3.1 L41.35 31.7 Q43.25 35.85 38.9 37.25 L20.4 43.2 Q16.1 44.55 14.2 40.5"/><path fill="none" stroke="#000000" stroke-width="0.5" stroke-opacity="0.301960784314" d="M14.2 40.5 L1.35 11.8 Q-0.5 7.75 3.8 6.35 L22.3 0.4 Q26.55 -1.0 28.45 3.1 L41.35 31.7 Q43.25 35.85 38.9 37.25 L20.4 43.2 Q16.1 44.55 14.2 40.5"/><path fill="#fcf2cf" stroke="none" d="M9.15 13.6 Q9.8 12.8 9.55 11.6 L9.1 10.55 22.05 6.35 Q24.9 5.45 26.25 7.85 L26.5 8.3 35.8 29.0 35.95 29.35 Q34.75 29.3 34.1 30.1 33.45 30.9 33.7 32.1 L34.0 32.9 20.65 37.2 Q18.8 37.8 17.65 37.0 16.8 36.4 16.3 35.2 L6.95 14.6 6.8 14.4 7.1 14.4 Q8.4 14.45 9.15 13.6"/><path fill="#c47fad" stroke="none" d="M8.25 23.65 L3.35 12.8 Q1.65 9.1 5.5 7.85 L22.25 2.5 Q26.05 1.25 27.75 4.95 L28.25 6.1 35.55 22.3 39.35 30.75 Q41.1 34.5 37.2 35.7 L20.45 41.1 Q16.8 42.25 15.2 39.0 L15.0 38.6 8.25 23.65 M9.15 13.6 Q8.4 14.45 7.1 14.4 L6.8 14.4 6.95 14.6 16.3 35.2 Q16.8 36.4 17.65 37.0 18.8 37.8 20.65 37.2 L34.0 32.9 33.7 32.1 Q33.45 30.9 34.1 30.1 34.75 29.3 35.95 29.35 L35.8 29.0 26.5 8.3 26.25 7.85 Q24.9 5.45 22.05 6.35 L9.1 10.55 9.55 11.6 Q9.8 12.8 9.15 13.6"/><path fill="none" stroke="#ffcc00" stroke-width="1.0" stroke-opacity="0.749019607843" d="M8.25 23.65 L3.35 12.8 Q1.65 9.1 5.5 7.85 L22.25 2.5 Q26.05 1.25 27.75 4.95 L28.25 6.1 M35.55 22.3 L39.35 30.75 Q41.1 34.5 37.2 35.7 L20.45 41.1 Q16.8 42.25 15.2 39.0 L15.0 38.6"/><path fill="none" stroke="#bf9900" stroke-width="1.0" stroke-opacity="0.749019607843" d="M28.25 6.1 L35.55 22.3 M15.0 38.6 L8.25 23.65"/><path fill="none" stroke="#f0b92b" stroke-width="0.5" d="M9.15 13.6 Q9.8 12.8 9.55 11.6 L9.1 10.55 22.05 6.35 Q24.9 5.45 26.25 7.85 L26.5 8.3 35.8 29.0 35.95 29.35 Q34.75 29.3 34.1 30.1 33.45 30.9 33.7 32.1 L34.0 32.9 20.65 37.2 Q18.8 37.8 17.65 37.0 16.8 36.4 16.3 35.2 L6.95 14.6 6.8 14.4 7.1 14.4 Q8.4 14.45 9.15 13.6"/></g><g id="c3"><path fill="#7fdbfe" stroke="none" d="M10.75 4.9 Q10.75 4.6 10.9 4.35 11.25 3.45 11.95 2.75 13.3 1.5 14.35 2.1 15.4 2.7 14.95 4.45 14.7 5.4 14.1 6.15 L13.75 6.5 Q13.1 7.15 12.35 7.35 L11.4 7.2 Q10.95 6.9 10.75 6.4 10.5 5.75 10.75 4.9 M7.5 5.9 Q7.0 5.85 6.6 5.5 6.05 5.0 5.8 4.15 L5.7 3.6 Q5.55 2.65 5.8 1.7 6.25 0.0 7.5 0.0 L7.6 0.0 Q8.85 0.0 9.3 1.7 9.55 2.65 9.4 3.6 L9.3 4.15 8.5 5.5 7.6 5.9 7.5 5.9 M4.35 4.9 Q4.6 5.75 4.35 6.4 L3.7 7.2 2.75 7.35 Q2.0 7.15 1.35 6.5 L1.0 6.15 Q0.4 5.4 0.15 4.45 -0.3 2.7 0.75 2.1 1.8 1.5 3.15 2.75 3.85 3.45 4.2 4.35 L4.35 4.9 M5.5 13.7 Q4.45 13.9 3.65 12.95 2.75 12.0 3.2 10.25 3.7 8.5 5.25 7.6 6.4 6.9 7.55 7.0 8.75 6.9 9.9 7.6 11.45 8.5 11.95 10.25 12.35 12.0 11.5 12.95 10.7 13.9 9.65 13.7 8.55 13.5 7.55 12.6 6.55 13.5 5.5 13.7"/></g><g id="c4"><g><use transform="matrix(1.0,0.0,0.0,1.0,0.0,0.0)" xlink:href="#c3"/></g></g><radialGradient gradientUnits="userSpaceOnUse" r="819.2" cx="0" cy="0" spreadMethod="pad" gradientTransform="matrix(0.0914459228516,0.0,0.0,0.0914459228516,0.6,3.4)" id="gradient1"><stop offset="0.0" stop-color="#ffffff"/><stop offset="1.0" stop-color="#ffffff" stop-opacity="0.0"/></radialGradient><g id="c5"><path stroke="none" fill="url(#gradient1)" d="M36.65 -54.65 Q60.05 -42.0 69.75 -17.95 80.55 8.9 68.0 34.1 55.45 59.35 26.8 68.2 -1.8 77.05 -29.7 64.3 -57.6 51.6 -68.45 24.75 -79.3 -2.05 -66.75 -27.25 L-66.7 -27.3 Q-54.1 -52.5 -25.5 -61.4 3.1 -70.2 31.0 -57.5 L36.65 -54.65"/></g><g id="c6"><g><use transform="matrix(1.0,0.0,0.0,1.0,0.0,0.0)" xlink:href="#c5"/></g></g><radialGradient gradientUnits="userSpaceOnUse" r="819.2" cx="0" cy="0" spreadMethod="pad" gradientTransform="matrix(0.209197998047,0.0,0.0,0.177108764648,67.15,107.2)" id="gradient2"><stop offset="0.356862745098" stop-color="#ffffff"/><stop offset="0.670588235294" stop-opacity="0.0"/></radialGradient><g id="c7"><path fill="none" stroke-linejoin="round" stroke-linecap="round" stroke="url(#gradient2)" stroke-width="0.5" d="M136.55 165.8 L68.6 106.0 68.4 106.0 118.25 201.5 M68.2 105.7 L68.25 105.8 68.25 105.75 68.2 105.7 0.0 45.7 M68.25 105.8 L68.3 105.85 68.3 105.8 68.25 105.75 49.95 0.05 M0.05 97.7 L68.15 105.95 68.25 105.85 68.25 105.8 M68.3 105.85 L68.25 105.85 68.3 106.0 68.3 105.85 68.3 105.8 68.35 105.8 68.3 105.8 86.6 18.35 M50.0 193.2 L68.3 106.0 68.15 105.95 18.25 151.55 M68.4 106.0 L68.3 106.0 86.55 211.5 M68.4 106.0 L68.3 105.85 M68.6 106.0 L68.35 105.8 118.25 60.15 M136.6 114.25 L68.6 106.0 M68.2 105.7 L18.25 10.05"/></g><g id="c8"><g><use transform="matrix(1.0,0.0,0.0,1.0,0.0,0.0)" xlink:href="#c7"/></g></g><g id="c9"><path fill="#f8e2cf" stroke="none" d="M1.95 3.05 L1.9 2.85 Q1.95 1.9 5.0 1.1 7.85 0.25 12.15 0.05 L14.9 0.05 14.55 0.4 14.65 0.65 15.5 1.15 17.85 1.5 19.75 1.4 20.4 1.25 21.05 0.9 Q22.0 1.35 22.0 1.85 L21.95 2.05 21.7 2.25 Q21.4 2.8 20.1 3.25 L18.95 3.65 11.75 4.6 10.6 4.6 9.5 4.65 8.55 4.6 4.75 4.3 Q2.8 3.95 2.2 3.45 L2.0 3.2 1.95 3.05 M4.05 2.85 L4.55 3.25 4.65 3.25 6.0 3.5 6.15 3.5 6.4 3.5 6.65 3.5 7.75 3.35 8.1 3.25 8.4 2.8 Q8.45 2.5 7.8 2.3 L6.45 2.05 6.3 2.05 5.1 2.2 4.7 2.25 Q4.35 2.3 4.2 2.45 L4.05 2.7 4.0 2.75 4.0 2.8 4.05 2.85"/><path fill="#d9b897" stroke="none" d="M1.95 3.05 L2.0 3.2 2.2 3.45 Q2.8 3.95 4.75 4.3 L8.55 4.6 8.55 11.75 5.5 11.2 6.1 10.2 6.6 8.85 6.5 7.95 5.55 5.85 4.95 5.15 Q4.3 4.5 3.25 4.3 L2.25 4.4 1.95 3.05 M9.5 4.65 L10.6 4.6 10.15 11.9 9.35 11.85 9.5 4.65"/><path fill="#cca884" stroke="none" d="M21.05 0.9 L20.4 1.25 19.75 1.4 17.85 1.5 15.5 1.15 14.65 0.65 14.55 0.4 14.9 0.05 19.2 0.4 21.05 0.9 M4.05 2.85 L4.0 2.8 4.0 2.75 4.05 2.7 4.2 2.45 Q4.35 2.3 4.7 2.25 L5.1 2.2 6.3 2.05 6.45 2.05 7.8 2.3 Q8.45 2.5 8.4 2.8 L8.1 3.25 7.75 3.35 6.65 3.5 6.4 3.5 6.15 3.5 6.0 3.5 4.65 3.25 4.55 3.25 4.05 2.85 M3.65 8.8 L3.45 8.1 3.35 7.9 3.15 7.3 2.25 4.4 3.25 4.3 Q4.3 4.5 4.95 5.15 L5.55 5.85 6.5 7.95 6.6 8.85 6.1 10.2 5.5 11.2 4.75 11.0 4.6 10.8 3.65 8.8"/><path fill="#c28f5f" stroke="none" d="M8.55 4.6 L9.5 4.65 9.35 11.85 8.55 11.75 8.55 4.6 M10.6 4.6 L11.75 4.6 18.95 3.65 20.1 3.25 Q21.4 2.8 21.7 2.25 L21.95 2.05 21.8 3.25 21.25 6.85 20.85 8.35 20.8 8.55 19.6 8.35 19.2 8.45 Q18.65 8.55 18.2 9.15 17.55 10.05 17.55 11.25 L17.55 11.45 10.15 11.9 10.6 4.6 M14.65 5.85 L14.55 5.85 14.55 5.9 Q14.05 5.95 13.7 6.15 13.2 6.6 13.2 7.05 L13.2 7.2 13.2 7.35 13.6 7.85 13.95 8.1 14.65 8.25 14.75 8.25 15.85 7.95 16.25 7.45 16.25 7.2 15.9 6.2 14.75 5.85 14.65 5.85"/><path fill="#9c8738" stroke="none" d="M20.85 8.35 L21.3 8.5 Q22.8 9.0 23.7 9.6 24.25 10.5 24.0 11.15 L23.7 11.7 22.9 12.3 22.65 12.4 Q17.7 14.8 11.85 14.9 12.2 14.15 11.0 13.0 6.55 12.65 4.75 11.0 L5.5 11.2 8.55 11.75 9.35 11.85 10.15 11.9 17.55 11.45 20.0 10.85 20.0 10.8 20.1 10.45 20.8 8.55 20.85 8.35 M21.05 10.45 L20.0 10.85 21.05 10.45 M21.05 38.5 L21.55 38.7 Q23.15 39.25 24.0 40.0 24.85 44.15 14.75 45.25 L11.65 45.15 Q7.7 43.5 5.85 40.7 7.55 42.45 13.3 42.35 L13.35 42.35 13.6 42.35 Q19.15 41.85 20.95 39.1 L21.05 38.5"/><path fill="#b57e4a" stroke="none" d="M20.8 8.55 L20.1 10.45 20.0 10.8 20.0 10.85 17.55 11.45 17.55 11.25 Q17.55 10.05 18.2 9.15 18.65 8.55 19.2 8.45 L19.6 8.35 20.8 8.55 M14.55 5.9 L14.65 5.85 14.75 5.85 15.9 6.2 16.25 7.2 16.25 7.45 15.85 7.95 14.75 8.25 14.65 8.25 13.95 8.1 13.6 7.85 13.2 7.35 13.2 7.2 13.2 7.05 Q13.2 6.6 13.7 6.15 14.05 5.95 14.55 5.9"/><path fill="#6f612b" stroke="none" d="M23.7 9.6 Q25.0 10.6 25.0 11.65 L24.9 12.4 24.6 12.95 23.3 14.05 21.45 14.95 Q19.3 15.85 16.65 16.25 L12.65 16.55 7.25 16.25 Q11.25 16.0 11.85 14.9 17.7 14.8 22.65 12.4 L22.9 12.3 23.7 11.7 24.0 11.15 Q24.25 10.5 23.7 9.6 M21.85 23.3 L22.0 28.3 Q21.95 33.4 21.05 38.5 L20.95 39.1 Q19.15 41.85 13.6 42.35 L13.35 42.35 13.3 42.35 Q7.55 42.45 5.85 40.7 5.3 40.2 5.15 39.5 9.1 40.15 11.35 37.5 10.7 39.0 10.6 40.25 10.6 41.15 11.35 41.3 L13.2 40.9 16.0 39.6 20.1 36.75 20.15 36.65 20.15 36.55 20.05 36.45 19.95 36.5 19.9 36.5 Q17.95 37.7 16.0 38.15 L14.95 38.35 Q13.15 38.65 12.85 37.65 12.5 36.6 13.75 34.15 L13.75 34.0 13.7 33.9 13.55 33.85 13.45 33.95 12.95 34.65 Q14.2 31.25 14.3 25.6 L15.05 25.6 Q15.85 25.7 16.05 26.35 16.3 27.45 15.05 30.05 L15.0 30.2 15.1 30.3 15.25 30.3 15.3 30.25 Q17.65 26.95 18.15 24.5 19.95 24.15 21.2 23.6 L21.85 23.3 M24.0 40.0 Q25.1 40.85 25.1 41.9 25.15 43.8 21.7 45.2 19.5 46.15 16.7 46.55 L13.4 46.75 Q8.45 46.85 5.0 45.55 1.45 44.3 1.4 42.35 1.4 41.55 2.0 40.8 2.2 44.4 11.65 45.15 L14.75 45.25 Q24.85 44.15 24.0 40.0 M16.65 30.45 Q16.1 31.75 16.35 32.85 16.55 34.1 17.4 34.6 L19.2 34.7 Q20.1 34.3 20.65 33.1 21.2 32.0 21.0 30.8 20.75 29.65 19.9 29.1 19.0 28.55 18.15 28.9 17.15 29.4 16.65 30.45"/><path fill="#f9cb17" stroke="none" d="M23.9 15.0 Q25.25 17.85 22.5 20.25 L21.6 20.8 Q19.05 22.05 14.25 22.35 L13.45 22.4 Q7.15 22.65 3.95 21.25 L2.8 20.65 1.95 19.45 Q15.4 22.3 16.6 17.6 19.25 17.15 21.45 16.3 L23.3 15.4 23.9 15.0"/><path fill="#d8ad05" stroke="none" d="M16.65 16.25 Q19.3 15.85 21.45 14.95 L23.3 14.05 23.9 15.0 23.3 15.4 21.45 16.3 Q19.25 17.15 16.6 17.6 L16.65 16.25"/><path fill="#5b5024" stroke="none" d="M21.6 20.8 L21.8 22.6 21.85 23.3 21.2 23.6 Q19.95 24.15 18.15 24.5 L18.25 23.7 Q18.35 22.8 17.6 22.7 16.95 22.55 15.7 23.1 L15.05 23.35 14.25 23.7 14.25 22.35 Q19.05 22.05 21.6 20.8"/><path fill="#c1a846" stroke="none" d="M14.25 23.7 L15.05 23.35 15.7 23.1 Q16.95 22.55 17.6 22.7 18.35 22.8 18.25 23.7 L18.15 24.5 14.3 24.95 14.25 23.7"/><path fill="#bfa74c" stroke="none" d="M0.7 10.6 L0.9 10.4 Q1.8 9.55 3.6 8.85 L3.65 8.8 4.6 10.8 4.75 11.0 Q6.55 12.65 11.0 13.0 12.2 14.15 11.85 14.9 L7.7 14.75 4.35 13.95 Q0.35 12.65 0.7 10.6"/><path fill="#a8933e" stroke="none" d="M11.85 14.9 Q11.25 16.0 7.25 16.25 L4.35 15.55 3.75 15.35 2.0 14.6 Q0.45 13.8 0.15 12.8 L0.0 12.2 Q0.0 11.35 0.7 10.6 0.35 12.65 4.35 13.95 L7.7 14.75 11.85 14.9"/><path fill="#fce072" stroke="none" d="M1.95 19.45 L1.4 18.15 Q1.15 17.0 1.55 15.65 L2.0 15.9 3.75 16.65 4.35 16.85 Q7.85 17.95 12.65 17.85 L16.6 17.6 Q15.4 22.3 1.95 19.45"/><path fill="#fad030" stroke="none" d="M7.25 16.25 L12.65 16.55 16.65 16.25 16.6 17.6 12.65 17.85 Q7.85 17.95 4.35 16.85 L3.75 16.65 2.0 15.9 1.55 15.65 2.0 14.6 3.75 15.35 4.35 15.55 7.25 16.25"/><path fill="#887322" stroke="none" d="M3.85 23.8 L3.9 22.4 3.95 21.25 Q7.15 22.65 13.45 22.4 L14.25 22.35 14.25 23.7 Q13.05 24.2 11.55 25.05 L8.7 24.9 Q6.3 24.75 3.85 23.8"/><path fill="#a69129" stroke="none" d="M2.0 40.8 Q2.85 39.85 4.85 39.0 L5.1 38.95 Q4.35 34.6 4.05 30.25 3.8 27.05 3.85 23.8 6.3 24.75 8.7 24.9 L11.55 25.05 Q10.25 25.7 8.7 26.6 L7.5 27.35 7.4 27.45 7.45 27.6 7.5 27.7 7.7 27.65 8.7 27.2 Q11.25 26.0 13.75 25.65 L14.3 25.6 Q14.2 31.25 12.95 34.65 11.9 36.15 11.35 37.5 9.1 40.15 5.15 39.5 5.3 40.2 5.85 40.7 7.7 43.5 11.65 45.15 2.2 44.4 2.0 40.8 M8.7 29.3 L8.3 29.4 Q7.6 29.65 7.15 30.25 L6.7 31.0 Q6.2 32.15 6.6 33.45 6.85 34.65 7.95 35.3 9.05 35.9 10.2 35.6 11.35 35.15 11.8 34.0 12.3 32.8 12.0 31.5 11.6 30.3 10.55 29.6 9.65 29.1 8.7 29.3 M5.15 39.5 L5.1 38.95 5.15 39.5"/><path fill="#f7f1dd" stroke="none" d="M14.3 25.6 L13.75 25.65 Q11.25 26.0 8.7 27.2 L7.7 27.65 7.5 27.7 7.45 27.6 7.4 27.45 7.5 27.35 8.7 26.6 Q10.25 25.7 11.55 25.05 L13.45 24.95 14.3 24.95 14.3 25.6 M8.7 29.3 Q9.65 29.1 10.55 29.6 11.6 30.3 12.0 31.5 12.3 32.8 11.8 34.0 11.35 35.15 10.2 35.6 9.05 35.9 7.95 35.3 6.85 34.65 6.6 33.45 6.2 32.15 6.7 31.0 L7.15 30.25 Q7.6 29.65 8.3 29.4 L8.7 29.3"/><path fill="#e3d293" stroke="none" d="M14.25 23.7 L14.3 24.95 13.45 24.95 11.55 25.05 Q13.05 24.2 14.25 23.7"/><path fill="#e2d08b" stroke="none" d="M14.3 24.95 L18.15 24.5 Q17.65 26.95 15.3 30.25 L15.25 30.3 15.1 30.3 15.0 30.2 15.05 30.05 Q16.3 27.45 16.05 26.35 15.85 25.7 15.05 25.6 L14.3 25.6 14.3 24.95 M12.95 34.65 L13.45 33.95 13.55 33.85 13.7 33.9 13.75 34.0 13.75 34.15 Q12.5 36.6 12.85 37.65 13.15 38.65 14.95 38.35 L16.0 38.15 Q17.95 37.7 19.9 36.5 L19.95 36.5 20.05 36.45 20.15 36.55 20.15 36.65 20.1 36.75 16.0 39.6 13.2 40.9 11.35 41.3 Q10.6 41.15 10.6 40.25 10.7 39.0 11.35 37.5 11.9 36.15 12.95 34.65 M16.65 30.45 Q17.15 29.4 18.15 28.9 19.0 28.55 19.9 29.1 20.75 29.65 21.0 30.8 21.2 32.0 20.65 33.1 20.1 34.3 19.2 34.7 L17.4 34.6 Q16.55 34.1 16.35 32.85 16.1 31.75 16.65 30.45"/><path fill="none" stroke="#000000" stroke-width="1.5" stroke-opacity="0.298039215686" d="M14.9 0.05 L12.15 0.05 Q7.85 0.25 5.0 1.1 1.95 1.9 1.9 2.85 L1.95 3.05 2.0 3.2 2.2 3.45 M21.7 2.25 L21.95 2.05 22.0 1.85 Q22.0 1.35 21.05 0.9 M14.9 0.05 L19.2 0.4 21.05 0.9 M20.85 8.35 L21.25 6.85 21.8 3.25 21.95 2.05 M20.85 8.35 L20.8 8.55 20.1 10.45 20.0 10.8 20.0 10.85 M3.65 8.8 L3.45 8.1 3.35 7.9 3.15 7.3 2.25 4.4 1.95 3.05 M4.6 10.8 L3.65 8.8"/><path fill="none" stroke="#000000" stroke-width="1.5" stroke-opacity="0.301960784314" d="M23.7 9.6 Q22.8 9.0 21.3 8.5 L20.85 8.35 M20.0 10.85 L21.05 10.45 M17.55 11.45 L20.0 10.85 M23.3 14.05 L24.6 12.95 24.9 12.4 25.0 11.65 Q25.0 10.6 23.7 9.6 M7.25 16.25 L12.65 16.55 16.65 16.25 Q19.3 15.85 21.45 14.95 L23.3 14.05 23.9 15.0 Q25.25 17.85 22.5 20.25 L21.6 20.8 21.8 22.6 21.85 23.3 22.0 28.3 Q21.95 33.4 21.05 38.5 L21.55 38.7 Q23.15 39.25 24.0 40.0 25.1 40.85 25.1 41.9 25.15 43.8 21.7 45.2 19.5 46.15 16.7 46.55 L13.4 46.75 Q8.45 46.85 5.0 45.55 1.45 44.3 1.4 42.35 1.4 41.55 2.0 40.8 2.85 39.85 4.85 39.0 L5.1 38.95 Q4.35 34.6 4.05 30.25 3.8 27.05 3.85 23.8 L3.9 22.4 3.95 21.25 2.8 20.65 1.95 19.45 1.4 18.15 Q1.15 17.0 1.55 15.65 L2.0 14.6 Q0.45 13.8 0.15 12.8 L0.0 12.2 Q0.0 11.35 0.7 10.6 L0.9 10.4 Q1.8 9.55 3.6 8.85 L3.65 8.8 M8.55 11.75 L9.35 11.85 10.15 11.9 17.55 11.45 M4.75 11.0 L4.6 10.8 M5.5 11.2 L8.55 11.75 M4.75 11.0 L5.5 11.2 M2.0 14.6 L3.75 15.35 4.35 15.55 7.25 16.25 M14.25 22.35 L13.45 22.4 Q7.15 22.65 3.95 21.25 M20.95 39.1 L21.05 38.5 M5.1 38.95 L5.15 39.5 M14.25 22.35 Q19.05 22.05 21.6 20.8"/></g><g id="c10"><g><use transform="matrix(1.0,0.0,0.0,1.0,0.0,0.0)" xlink:href="#c9"/></g></g><g id="c11"><g><use transform="matrix(1.0,0.0,0.0,1.0,0.0,0.0)" xlink:href="#c2"/></g><g><use transform="matrix(0.238861083984,-0.0867004394531,0.10026550293,0.233917236328,34.25,31.15)" xlink:href="#c4"/></g><g><use transform="matrix(0.238861083984,-0.0867004394531,0.10026550293,0.233917236328,4.25,10.3)" xlink:href="#c4"/></g><g><use transform="matrix(0.141098022461,-0.0378112792969,0.111373901367,0.225646972656,20.25,20.65)" filter="url(#filter8)" xlink:href="#c6"/></g><g><use transform="matrix(-0.155029296875,0.0513153076172,0.0841827392578,0.147033691406,22.6,2.3)" filter="url(#filter9)" xlink:href="#c8"/></g><g><use transform="matrix(-0.395431518555,0.332000732422,0.332000732422,0.395431518555,19.1,7.9)" xlink:href="#c10"/></g><g><use transform="matrix(0.162948608398,-0.0436706542969,0.128631591797,0.260604858398,20.35,20.95)" filter="url(#filter11)" xlink:href="#c6"/></g></g><filter id="filter8"><feColorMatrix in="SourceGraphic" type="matrix" values="0.0 0.0 0.0 0.0 0.796875 0.0 0.0 0.0 0.0 0.59765625 0.0 0.0 0.0 0.0 0.19921875 0.0 0.0 0.0 1.0 0.0" result="cxform"/><feComposite operator="in" in2="SourceGraphic" result="color-xform"/></filter><filter id="filter9"><feColorMatrix in="SourceGraphic" type="matrix" values="0.0 0.0 0.0 0.0 0.99609375 0.0 0.0 0.0 0.0 0.99609375 0.0 0.0 0.0 0.0 0.99609375 0.0 0.0 0.0 1.0 0.0" result="cxform"/><feComposite operator="in" in2="SourceGraphic" result="color-xform"/></filter><filter id="filter11"><feColorMatrix in="SourceGraphic" type="matrix" values="1.0 0.0 0.0 0.0 0.0 0.0 1.0 0.0 0.0 0.0 0.0 0.0 1.0 0.0 0.0 0.0 0.0 0.0 0.23046875 0.0" result="cxform"/><feComposite operator="in" in2="SourceGraphic" result="color-xform"/></filter></defs><g><g><use transform="matrix(1.0,0.0,0.0,1.0,0.0,0.0)" xlink:href="#c1"/></g><g><use transform="matrix(1.15496826172,0.0,0.0,1.15496826172,5.85,3.95)" xlink:href="#c11"/></g></g></svg>