<?xml version='1.0' encoding='UTF-8'?>
<svg xmlns:xlink="http://www.w3.org/1999/xlink" xmlns="http://www.w3.org/2000/svg" version="1.1" width="60px" height="60px" viewBox="0.0 0.0 60.0 60.0"><defs><g id="c1"><path fill="#000000" fill-opacity="0.00392156862745" d="M0.0 0.0 L60.0 0.0 60.0 60.0 0.0 60.0 0.0 0.0"/></g><g id="c2"><path fill="none" stroke="#000000" stroke-width="1.0" stroke-opacity="0.301960784314" d="M22.3 0.35 Q26.6 -1.0 28.5 3.05 L41.4 31.7 Q43.1 35.4 39.9 36.85 L38.15 37.65 19.65 43.65 Q17.05 44.5 15.35 43.3 14.2 42.55 13.5 40.9 L0.55 12.25 Q-0.6 9.75 0.6 8.25 1.15 7.55 2.2 7.05 2.85 6.6 3.8 6.3 L22.3 0.35"/><path fill="#5b3c00" stroke="none" d="M0.75 8.25 L29.8 9.75 25.55 0.9 Q26.9 1.6 27.8 3.55 L40.7 32.15 Q42.6 36.3 38.3 37.65 L23.3 42.5 13.15 21.4 4.6 20.9 0.7 12.25 Q-0.45 9.75 0.75 8.25 M20.1 43.55 L19.8 43.65 Q17.15 44.45 15.5 43.3 L20.1 43.55"/><path fill="#724b00" stroke="none" d="M25.55 0.9 L29.8 9.75 0.75 8.25 Q1.45 7.3 3.1 6.75 L21.65 0.8 25.55 0.9 M4.6 20.9 L13.15 21.4 23.3 42.5 20.1 43.55 15.5 43.3 Q14.35 42.55 13.65 40.9 L4.6 20.9"/><path fill="none" stroke="#000000" stroke-width="0.5" stroke-opacity="0.301960784314" d="M0.75 8.25 Q-0.45 9.75 0.7 12.25 L4.6 20.9 M23.3 42.5 L38.3 37.65 Q42.6 36.3 40.7 32.15 L27.8 3.55 Q26.9 1.6 25.55 0.9 L21.65 0.8 3.1 6.75 Q1.45 7.3 0.75 8.25 M20.1 43.55 L19.8 43.65 Q17.15 44.45 15.5 43.3 14.35 42.55 13.65 40.9 L4.6 20.9 M20.1 43.55 L23.3 42.5"/><path fill="#ffcc00" stroke="none" d="M14.2 40.5 L1.35 11.8 Q-0.5 7.75 3.8 6.35 L22.3 0.4 Q26.55 -1.0 28.45 3.1 L41.35 31.7 Q43.25 35.85 38.9 37.25 L20.4 43.2 Q16.1 44.55 14.2 40.5"/><path fill="none" stroke="#000000" stroke-width="0.5" stroke-opacity="0.301960784314" d="M14.2 40.5 L1.35 11.8 Q-0.5 7.75 3.8 6.35 L22.3 0.4 Q26.55 -1.0 28.45 3.1 L41.35 31.7 Q43.25 35.85 38.9 37.25 L20.4 43.2 Q16.1 44.55 14.2 40.5"/><path fill="#fcf2cf" stroke="none" d="M9.15 13.6 Q9.8 12.8 9.55 11.6 L9.1 10.55 22.05 6.35 Q24.9 5.45 26.25 7.85 L26.5 8.3 35.8 29.0 35.95 29.35 Q34.75 29.3 34.1 30.1 33.45 30.9 33.7 32.1 L34.0 32.9 20.65 37.2 Q18.8 37.8 17.65 37.0 16.8 36.4 16.3 35.2 L6.95 14.6 6.8 14.4 7.1 14.4 Q8.4 14.45 9.15 13.6"/><path fill="#996600" stroke="none" d="M28.25 6.1 L35.55 22.3 39.35 30.75 Q41.1 34.5 37.2 35.7 L20.45 41.1 Q16.8 42.25 15.2 39.0 L15.0 38.6 8.25 23.65 3.35 12.8 Q1.65 9.1 5.5 7.85 L22.25 2.5 Q26.05 1.25 27.75 4.95 L28.25 6.1 M9.15 13.6 Q8.4 14.45 7.1 14.4 L6.8 14.4 6.95 14.6 16.3 35.2 Q16.8 36.4 17.65 37.0 18.8 37.8 20.65 37.2 L34.0 32.9 33.7 32.1 Q33.45 30.9 34.1 30.1 34.75 29.3 35.95 29.35 L35.8 29.0 26.5 8.3 26.25 7.85 Q24.9 5.45 22.05 6.35 L9.1 10.55 9.55 11.6 Q9.8 12.8 9.15 13.6"/><path fill="none" stroke="#f0b92b" stroke-width="0.5" d="M9.15 13.6 Q9.8 12.8 9.55 11.6 L9.1 10.55 22.05 6.35 Q24.9 5.45 26.25 7.85 L26.5 8.3 35.8 29.0 35.95 29.35 Q34.75 29.3 34.1 30.1 33.45 30.9 33.7 32.1 L34.0 32.9 20.65 37.2 Q18.8 37.8 17.65 37.0 16.8 36.4 16.3 35.2 L6.95 14.6 6.8 14.4 7.1 14.4 Q8.4 14.45 9.15 13.6"/><path fill="none" stroke="#fcf2cf" stroke-width="1.0" d="M35.55 22.3 L39.35 30.75 Q41.1 34.5 37.2 35.7 L20.45 41.1 Q16.8 42.25 15.2 39.0 L15.0 38.6 M8.25 23.65 L3.35 12.8 Q1.65 9.1 5.5 7.85 L22.25 2.5 Q26.05 1.25 27.75 4.95 L28.25 6.1"/><path fill="none" stroke="#ffaa00" stroke-width="1.0" d="M28.25 6.1 L35.55 22.3 M15.0 38.6 L8.25 23.65"/></g><g id="c3"><path fill="#7fdbfe" stroke="none" d="M10.75 4.9 Q10.75 4.6 10.9 4.35 11.25 3.45 11.95 2.75 13.3 1.5 14.35 2.1 15.4 2.7 14.95 4.45 14.7 5.4 14.1 6.15 L13.75 6.5 Q13.1 7.15 12.35 7.35 L11.4 7.2 Q10.95 6.9 10.75 6.4 10.5 5.75 10.75 4.9 M7.5 5.9 Q7.0 5.85 6.6 5.5 6.05 5.0 5.8 4.15 L5.7 3.6 Q5.55 2.65 5.8 1.7 6.25 0.0 7.5 0.0 L7.6 0.0 Q8.85 0.0 9.3 1.7 9.55 2.65 9.4 3.6 L9.3 4.15 8.5 5.5 7.6 5.9 7.5 5.9 M4.35 4.9 Q4.6 5.75 4.35 6.4 L3.7 7.2 2.75 7.35 Q2.0 7.15 1.35 6.5 L1.0 6.15 Q0.4 5.4 0.15 4.45 -0.3 2.7 0.75 2.1 1.8 1.5 3.15 2.75 3.85 3.45 4.2 4.35 L4.35 4.9 M5.5 13.7 Q4.45 13.9 3.65 12.95 2.75 12.0 3.2 10.25 3.7 8.5 5.25 7.6 6.4 6.9 7.55 7.0 8.75 6.9 9.9 7.6 11.45 8.5 11.95 10.25 12.35 12.0 11.5 12.95 10.7 13.9 9.65 13.7 8.55 13.5 7.55 12.6 6.55 13.5 5.5 13.7"/></g><g id="c4"><g><use transform="matrix(1.0,0.0,0.0,1.0,0.0,0.0)" xlink:href="#c3"/></g></g><radialGradient gradientUnits="userSpaceOnUse" r="819.2" cx="0" cy="0" spreadMethod="pad" gradientTransform="matrix(0.0914459228516,0.0,0.0,0.0914459228516,0.6,3.4)" id="gradient1"><stop offset="0.0" stop-color="#ffffff"/><stop offset="1.0" stop-color="#ffffff" stop-opacity="0.0"/></radialGradient><g id="c5"><path stroke="none" fill="url(#gradient1)" d="M36.65 -54.65 Q60.05 -42.0 69.75 -17.95 80.55 8.9 68.0 34.1 55.45 59.35 26.8 68.2 -1.8 77.05 -29.7 64.3 -57.6 51.6 -68.45 24.75 -79.3 -2.05 -66.75 -27.25 L-66.7 -27.3 Q-54.1 -52.5 -25.5 -61.4 3.1 -70.2 31.0 -57.5 L36.65 -54.65"/></g><g id="c6"><g><use transform="matrix(1.0,0.0,0.0,1.0,0.0,0.0)" xlink:href="#c5"/></g></g><radialGradient gradientUnits="userSpaceOnUse" r="819.2" cx="0" cy="0" spreadMethod="pad" gradientTransform="matrix(0.209197998047,0.0,0.0,0.177108764648,67.15,107.2)" id="gradient2"><stop offset="0.356862745098" stop-color="#ffffff"/><stop offset="0.670588235294" stop-opacity="0.0"/></radialGradient><g id="c7"><path fill="none" stroke-linejoin="round" stroke-linecap="round" stroke="url(#gradient2)" stroke-width="0.5" d="M136.55 165.8 L68.6 106.0 68.4 106.0 118.25 201.5 M68.2 105.7 L68.25 105.8 68.25 105.75 68.2 105.7 0.0 45.7 M68.25 105.8 L68.3 105.85 68.3 105.8 68.25 105.75 49.95 0.05 M0.05 97.7 L68.15 105.95 68.25 105.85 68.25 105.8 M68.3 105.85 L68.25 105.85 68.3 106.0 68.3 105.85 68.3 105.8 68.35 105.8 68.3 105.8 86.6 18.35 M50.0 193.2 L68.3 106.0 68.15 105.95 18.25 151.55 M68.4 106.0 L68.3 106.0 86.55 211.5 M68.4 106.0 L68.3 105.85 M68.6 106.0 L68.35 105.8 118.25 60.15 M136.6 114.25 L68.6 106.0 M68.2 105.7 L18.25 10.05"/></g><g id="c8"><g><use transform="matrix(1.0,0.0,0.0,1.0,0.0,0.0)" xlink:href="#c7"/></g></g><g id="c9"><g><use transform="matrix(1.0,0.0,0.0,1.0,0.0,0.0)" xlink:href="#c2"/></g><g><use transform="matrix(0.238861083984,-0.0867004394531,0.10026550293,0.233917236328,34.25,31.15)" xlink:href="#c4"/></g><g><use transform="matrix(0.238861083984,-0.0867004394531,0.10026550293,0.233917236328,4.25,10.3)" xlink:href="#c4"/></g><g><use transform="matrix(0.141098022461,-0.0378112792969,0.111373901367,0.225646972656,20.25,20.65)" filter="url(#filter7)" xlink:href="#c6"/></g><g><use transform="matrix(-0.155029296875,0.0513153076172,0.0841827392578,0.147033691406,22.6,3.15)" filter="url(#filter8)" xlink:href="#c8"/></g></g><filter id="filter7"><feColorMatrix in="SourceGraphic" type="matrix" values="0.0 0.0 0.0 0.0 0.796875 0.0 0.0 0.0 0.0 0.59765625 0.0 0.0 0.0 0.0 0.19921875 0.0 0.0 0.0 1.0 0.0" result="cxform"/><feComposite operator="in" in2="SourceGraphic" result="color-xform"/></filter><filter id="filter8"><feColorMatrix in="SourceGraphic" type="matrix" values="0.0 0.0 0.0 0.0 0.99609375 0.0 0.0 0.0 0.0 0.99609375 0.0 0.0 0.0 0.0 0.99609375 0.0 0.0 0.0 1.0 0.0" result="cxform"/><feComposite operator="in" in2="SourceGraphic" result="color-xform"/></filter><radialGradient gradientUnits="userSpaceOnUse" r="819.2" cx="0" cy="0" spreadMethod="pad" gradientTransform="matrix(0.0255126953125,0.0,0.0,0.0268249511719,27.35,75.35)" id="gradient3"><stop offset="0.356862745098" stop-color="#ffffff"/><stop offset="0.670588235294" stop-opacity="0.0"/></radialGradient><g id="c10"><path fill="none" stroke-linejoin="round" stroke-linecap="round" stroke="url(#gradient3)" stroke-width="0.5" d="M7.05 61.6 Q7.5 60.95 8.45 60.5 9.1 60.05 10.1 59.7 L28.6 53.75 Q32.85 52.35 34.75 56.45 L47.65 85.05 Q49.25 88.5 46.5 90.05 45.8 90.65 44.6 91.0 L26.1 97.0 Q23.45 97.8 21.8 96.65 20.65 95.9 19.95 94.25 L7.0 65.6 Q5.85 63.1 7.05 61.6"/></g><linearGradient gradientUnits="userSpaceOnUse" x1="-819.2" x2="819.2" spreadMethod="pad" gradientTransform="matrix(0.0255126953125,0.0,0.0,0.0268249511719,20.9,21.95)" id="gradient4"><stop offset="0.0" stop-color="#f90013"/><stop offset="0.160784313725" stop-color="#ff99ff"/><stop offset="0.462745098039" stop-color="#66ffff"/><stop offset="0.721568627451" stop-color="#ff9900"/><stop offset="1.0" stop-color="#33ff00"/></linearGradient><g id="c11"><path stroke="none" fill="url(#gradient4)" d="M0.6 8.2 Q1.05 7.55 2.0 7.1 2.65 6.65 3.65 6.3 L22.15 0.35 Q26.4 -1.05 28.3 3.05 L41.2 31.65 Q42.8 35.1 40.05 36.65 39.35 37.25 38.15 37.6 L19.65 43.6 Q17.0 44.4 15.35 43.25 14.2 42.5 13.5 40.85 L0.55 12.2 Q-0.6 9.7 0.6 8.2"/></g><g id="c12"><g><use transform="matrix(1.0,0.0,0.0,1.0,0.0,0.0)" xlink:href="#c11"/></g></g><g id="c13"><path fill="#8c5a08" stroke="none" d="M23.2 75.8 L24.6 74.95 25.85 73.3 27.85 68.45 29.35 65.75 31.55 66.45 31.85 66.1 33.25 66.5 33.0 66.9 32.95 67.0 32.85 67.0 Q29.8 68.9 26.1 74.4 L23.4 78.15 22.35 79.35 20.85 80.75 Q20.25 80.55 20.1 80.0 L23.2 75.8 M34.4 70.15 L34.2 70.45 Q32.3 73.7 30.35 77.45 28.8 78.6 27.55 80.75 26.9 81.85 26.4 83.25 L25.4 83.05 Q25.2 82.65 26.65 79.8 L26.9 79.0 Q27.0 78.45 26.05 80.35 L25.7 80.9 24.45 82.65 22.95 82.45 22.5 82.25 23.95 80.1 24.15 79.9 Q26.65 76.1 29.65 72.05 31.85 69.6 34.2 68.7 L29.45 76.65 Q32.05 72.9 34.35 70.1 L34.4 70.15 M29.05 75.0 L28.45 76.2 29.05 75.0"/><path fill="#db9c35" stroke="none" d="M27.85 68.45 L25.85 73.3 24.6 74.95 23.2 75.8 Q25.95 71.95 27.85 68.45 M20.85 80.75 L22.35 79.35 23.4 78.15 26.1 74.4 Q29.8 68.9 32.85 67.0 L32.95 67.0 33.0 66.95 33.0 66.9 33.4 67.05 34.9 67.55 34.2 68.7 Q31.85 69.6 29.65 72.05 26.65 76.1 24.15 79.9 L23.95 80.1 22.5 82.25 21.75 81.9 21.95 81.5 22.0 81.4 20.85 80.75 M34.2 70.45 L34.4 70.15 34.4 70.0 34.75 71.25 34.9 71.85 34.2 70.45 M26.4 83.25 Q26.9 81.85 27.55 80.75 28.8 78.6 30.35 77.45 L28.5 81.05 28.2 81.8 27.2 83.1 27.05 83.25 26.4 83.25 M22.05 83.05 L23.0 82.8 24.9 83.6 25.0 84.0 25.2 83.55 25.85 83.8 26.9 84.9 26.4 84.75 22.05 83.05 M23.8 78.65 L22.0 81.4 23.8 78.65"/><path fill="#38321d" stroke="none" d="M33.0 66.9 L33.25 66.5 33.4 67.05 33.0 66.9"/><path fill="#c1b98f" stroke="none" d="M32.95 67.0 L33.0 66.9 33.0 66.95 32.95 67.0"/><path fill="#5e2b05" stroke="none" d="M34.2 70.45 L34.9 71.85 31.75 76.95 29.4 81.35 Q28.45 83.15 27.6 85.2 L27.5 84.6 28.2 81.8 28.5 81.05 30.35 77.45 Q32.3 73.7 34.2 70.45 M34.75 71.25 L34.4 70.0 34.35 70.1 Q32.05 72.9 29.45 76.65 L34.2 68.7 34.9 67.55 35.25 68.7 35.4 70.25 34.75 71.25"/><path fill="#6c6c38" stroke="none" d="M34.4 70.0 L34.4 70.15 34.35 70.1 34.4 70.0"/><path fill="#ffd865" stroke="none" d="M20.1 80.0 Q20.25 80.55 20.85 80.75 L20.7 80.8 20.6 80.95 20.7 80.8 20.85 80.75 22.0 81.4 21.9 81.5 20.6 80.95 20.2 80.85 20.55 81.65 20.4 81.5 19.8 80.7 20.1 80.0 M22.95 82.45 L24.45 82.65 25.7 80.9 26.05 80.35 Q27.0 78.45 26.9 79.0 L24.8 82.8 24.9 83.6 24.6 83.15 22.95 82.45 M25.4 83.05 L26.4 83.25 26.25 83.4 26.4 83.25 27.05 83.25 27.2 83.1 28.2 81.8 27.5 84.6 Q26.95 83.65 26.4 83.45 L26.25 83.4 25.4 83.05"/><path fill="#2b1c00" stroke="none" d="M26.9 79.0 L26.65 79.8 Q25.2 82.65 25.4 83.05 L25.2 83.55 25.0 84.0 24.9 83.6 24.8 82.8 26.9 79.0"/><path fill="#c27c0b" stroke="none" d="M22.5 82.25 L22.95 82.45 24.6 83.15 24.9 83.6 23.0 82.8 22.05 83.05 21.35 82.8 20.55 81.65 20.2 80.85 20.6 80.95 21.9 81.5 21.95 81.5 21.75 81.9 22.5 82.25 M25.2 83.55 L25.4 83.05 26.25 83.4 26.4 83.45 Q26.95 83.65 27.5 84.6 L27.6 85.2 27.45 85.1 26.9 84.9 25.85 83.8 25.2 83.55"/><path fill="#7d8061" stroke="none" d="M26.9 84.9 L26.9 84.95 26.4 84.75 26.9 84.9"/><path fill="#939672" stroke="none" d="M26.9 84.9 L27.45 85.1 26.9 84.95 26.9 84.9"/><path fill="none" stroke="#382510" stroke-width="0.5" stroke-opacity="0.152941176471" d="M27.85 68.45 L25.85 73.3 24.6 74.95 23.2 75.8 M20.85 80.75 L22.35 79.35 23.4 78.15 26.1 74.4 Q29.8 68.9 32.85 67.0 M33.0 66.9 L33.0 66.95 32.95 67.0 M34.2 68.7 Q31.85 69.6 29.65 72.05 26.65 76.1 24.15 79.9 L23.95 80.1 22.5 82.25 M26.4 83.25 Q26.9 81.85 27.55 80.75 28.8 78.6 30.35 77.45 M26.25 83.4 L26.4 83.25 M20.6 80.95 L20.7 80.8 20.85 80.75"/><path fill="none" stroke="#382510" stroke-width="0.7" stroke-opacity="0.301960784314" d="M33.4 67.05 L33.0 66.9 M28.45 76.2 L29.05 75.0 M24.8 82.8 L26.9 79.0 M21.9 81.5 L21.95 81.5 22.0 81.4 21.9 81.5 M21.95 81.5 L21.75 81.9 M22.0 81.4 L23.8 78.65"/><path fill="none" stroke="#000000" stroke-width="0.5" stroke-opacity="0.301960784314" d="M24.9 83.6 L24.8 82.8 M24.9 83.6 L25.0 84.0"/></g><g id="c14"><path fill="#eccb8c" stroke="none" d="M38.2 4.35 Q39.2 4.05 39.4 4.95 39.6 5.95 38.6 6.25 37.6 6.55 37.4 5.65 37.2 4.65 38.2 4.35 M19.65 28.15 L17.95 29.75 15.4 32.15 11.3 35.35 10.65 35.3 10.7 35.25 12.85 32.7 Q13.25 31.85 14.95 30.1 16.7 27.4 17.6 26.45 20.35 23.6 20.7 22.75 20.8 22.5 22.65 20.0 24.3 17.65 24.5 16.35 L26.35 14.4 Q28.0 12.85 27.9 12.3 L27.5 11.95 27.25 11.8 Q27.1 12.85 25.0 14.6 23.7 15.5 22.85 16.25 L22.15 17.0 21.15 17.85 20.5 18.4 19.1 19.6 19.15 19.85 Q19.3 20.55 18.45 21.25 L16.15 23.15 11.65 27.25 Q10.7 27.5 10.5 26.5 10.35 25.8 12.4 23.85 L12.35 23.8 4.35 30.75 Q3.45 29.7 3.0 30.15 L2.9 29.55 Q3.15 29.05 4.4 28.05 L5.5 26.35 7.35 24.75 8.15 24.05 8.7 23.55 16.1 17.35 16.1 16.8 15.7 16.8 16.0 15.95 16.35 15.25 14.7 15.75 Q8.1 21.25 3.75 24.2 L0.0 26.6 0.1 26.35 2.7 24.75 Q2.6 24.2 3.1 23.9 L3.9 23.4 5.7 22.0 8.5 19.55 10.3 18.05 Q12.4 15.6 15.55 12.6 L18.4 9.6 Q21.1 6.75 21.6 6.6 21.9 6.5 21.95 6.8 L21.55 7.35 Q21.05 7.8 21.15 8.25 L21.25 8.65 Q21.75 7.95 23.95 6.4 24.3 6.05 24.35 5.3 24.4 4.65 25.0 4.2 L29.3 0.0 31.15 0.5 32.75 0.4 Q33.25 0.4 34.15 0.95 L34.65 1.4 23.8 11.85 33.5 4.25 34.25 3.95 34.45 3.9 34.45 3.95 34.5 3.9 35.35 3.95 35.5 4.0 Q36.0 4.2 36.1 4.55 L35.9 5.1 Q35.6 5.4 35.65 5.7 L36.1 6.2 34.3 8.2 31.7 11.15 27.55 15.65 24.1 19.85 19.15 25.6 17.3 28.15 Q16.8 28.85 16.9 29.3 L17.3 29.2 19.65 28.15 19.7 28.1 19.75 28.1 19.65 28.15 M14.15 19.85 L14.55 19.5 15.25 18.75 14.15 19.85 M12.15 23.25 L11.95 23.45 12.15 23.3 12.15 23.25 M19.45 9.35 L20.0 8.85 21.55 7.15 19.45 9.35 M16.6 18.65 L15.7 19.55 15.55 19.7 16.75 18.75 16.6 18.65 M1.75 26.4 Q2.85 26.15 3.05 27.15 3.25 28.15 2.3 28.4 1.25 28.7 0.95 27.65 0.7 26.65 1.75 26.4"/></g><g id="c15"><g><use transform="matrix(1.0,0.0,0.0,1.0,0.0,0.0)" xlink:href="#c14"/></g></g><linearGradient gradientUnits="userSpaceOnUse" x1="-819.2" x2="819.2" spreadMethod="pad" gradientTransform="matrix(0.00042724609375,0.0231170654297,-0.0173797607422,0.00453186035156,-5.85,23.7)" id="gradient5"><stop offset="0.0" stop-color="#b7b71e"/><stop offset="0.619607843137" stop-color="#bceb25" stop-opacity="0.501960784314"/><stop offset="1.0" stop-color="#b0af2d" stop-opacity="0.0"/></linearGradient><linearGradient gradientUnits="userSpaceOnUse" x1="-819.2" x2="819.2" spreadMethod="pad" gradientTransform="matrix(0.00209045410156,0.00970458984375,-0.00729370117188,0.00157165527344,15.0,31.25)" id="gradient6"><stop offset="0.0" stop-color="#719410"/><stop offset="0.376470588235" stop-color="#bceb25" stop-opacity="0.501960784314"/><stop offset="1.0" stop-color="#b0af2d" stop-opacity="0.0"/></linearGradient><g id="c16"><path stroke="none" fill="url(#gradient5)" d="M8.1 38.65 L7.95 36.15 7.85 34.7 Q7.65 33.55 7.8 34.2 7.3 28.05 3.75 19.7 0.2 11.3 -0.9 5.2 -2.0 -0.9 -0.95 -5.65 -0.8 -1.85 0.0 0.0 L1.95 6.05 2.75 8.2 Q5.5 15.7 9.3 23.0 11.95 28.1 13.2 33.55 L13.45 34.7 13.6 35.95 13.6 36.9 13.5 38.25 Q12.6 31.0 8.3 24.0 5.9 20.45 6.6 23.0 L7.75 30.25 8.05 34.65 8.15 36.7 8.1 37.6 8.1 38.65"/><path stroke="none" fill="url(#gradient6)" d="M8.1 38.65 L8.1 37.6 8.15 36.7 8.05 34.65 7.75 30.25 6.6 23.0 Q5.9 20.45 8.3 24.0 12.6 31.0 13.5 38.25 L13.6 36.9 13.6 37.8 13.6 38.25 Q11.4 40.5 8.05 40.5 L8.0 40.45 8.05 39.35 8.1 38.25 8.1 38.65"/><path fill="none" stroke="#000000" stroke-width="1.0" stroke-opacity="0.301960784314" d="M13.6 36.9 L13.6 35.95 13.45 34.7 13.2 33.55 Q11.95 28.1 9.3 23.0 5.5 15.7 2.75 8.2 L1.95 6.05 0.0 0.0 Q-0.8 -1.85 -0.95 -5.65 -2.0 -0.9 -0.9 5.2 0.2 11.3 3.75 19.7 7.3 28.05 7.8 34.2 7.65 33.55 7.85 34.7 L7.95 36.15 8.1 38.65 M13.5 38.25 L13.6 36.9"/></g><g id="c17"><g><use transform="matrix(1.0,0.0,0.0,1.0,0.0,0.0)" xlink:href="#c16"/></g></g><g id="c18"><path fill="#48650c" stroke="none" d="M18.25 -6.15 Q24.0 -4.95 24.0 -3.5 24.0 -3.05 22.55 -1.75 21.15 -0.55 21.25 0.1 L24.1 1.45 Q26.5 2.7 26.5 3.6 17.9 8.1 15.75 7.85 11.3 7.35 9.7 9.9 L8.65 11.75 Q8.0 12.6 6.9 12.6 L0.0 11.6 Q-2.55 11.2 -3.0 10.6 -4.5 8.6 -5.75 8.6 -7.65 8.6 -9.8 10.75 -11.95 12.85 -15.1 12.85 -20.25 12.85 -21.0 12.1 -20.1 10.55 -21.65 9.45 -23.5 8.1 -23.5 7.25 -23.5 6.6 -19.1 5.15 -14.55 3.6 -14.25 2.85 -17.8 1.25 -26.5 -1.65 -25.45 -4.4 -18.05 -7.35 L-17.7 -7.45 Q-15.7 -7.45 -12.55 -8.85 -10.05 -10.0 -8.0 -10.15 L-1.25 -10.65 Q0.25 -11.1 2.05 -12.2 3.25 -12.9 5.15 -12.9 9.05 -12.9 10.6 -11.7 L13.75 -8.9 15.65 -7.35 Q16.75 -6.45 18.25 -6.15"/></g><g id="c19"><g><use transform="matrix(1.0,0.0,0.0,1.0,0.0,0.0)" xlink:href="#c18"/></g></g><linearGradient gradientUnits="userSpaceOnUse" x1="-819.2" x2="819.2" spreadMethod="pad" gradientTransform="matrix(-0.00419616699219,0.00906372070312,-0.0179748535156,-0.00468444824219,-3.0,2.6)" id="gradient7"><stop offset="0.0" stop-color="#a9c921"/><stop offset="0.619607843137" stop-color="#b0bf1e" stop-opacity="0.901960784314"/><stop offset="1.0" stop-color="#5a8006" stop-opacity="0.0"/></linearGradient><linearGradient gradientUnits="userSpaceOnUse" x1="-819.2" x2="819.2" spreadMethod="pad" gradientTransform="matrix(-0.013916015625,0.00697326660156,-0.0151519775391,-0.00778198242188,-1.25,1.35)" id="gradient8"><stop offset="0.396078431373" stop-color="#242006" stop-opacity="0.270588235294"/><stop offset="0.788235294118" stop-opacity="0.392156862745"/><stop offset="1.0" stop-opacity="0.0"/></linearGradient><g id="c20"><path stroke="none" fill="url(#gradient7)" d="M-5.3 14.5 L-9.4 11.5 Q-11.9 9.35 -11.65 2.3 -11.4 -4.8 5.85 -12.2 3.3 -2.2 -1.2 6.75 L-1.6 7.6 -5.3 14.5"/><path fill="none" stroke-linejoin="round" stroke-linecap="round" stroke="url(#gradient8)" stroke-width="0.5" d="M-5.3 14.5 L-9.4 11.5 Q-11.9 9.35 -11.65 2.3 -11.4 -4.8 5.85 -12.2 3.3 -2.2 -1.2 6.75 L-1.6 7.6 -5.3 14.5"/></g><g id="c21"><g><use transform="matrix(1.0,0.0,0.0,1.0,0.0,0.0)" xlink:href="#c20"/></g></g><g id="c22"><g><use transform="matrix(-0.540573120117,0.0,0.0,0.334655761719,-10.75,5.6)" filter="url(#filter14)" xlink:href="#c19"/></g><g><use transform="matrix(-0.317932128906,-0.0364532470703,-0.0225677490234,0.196807861328,25.0,11.9)" filter="url(#filter15)" xlink:href="#c19"/></g><g><use transform="matrix(0.799987792969,0.0,0.221725463867,0.626205444336,3.4,-4.35)" xlink:href="#c21"/></g><g><use transform="matrix(-0.317932128906,-0.0364532470703,-0.0225677490234,0.196807861328,10.95,3.25)" filter="url(#filter17)" xlink:href="#c19"/></g><g><use transform="matrix(0.116317749023,0.399002075195,-0.768844604492,0.633773803711,30.05,6.55)" xlink:href="#c21"/></g><g><use transform="matrix(0.374893188477,0.216445922852,-0.216445922852,0.374893188477,17.85,0.45)" xlink:href="#c21"/></g><g><use transform="matrix(-0.688354492188,0.0724792480469,0.24690246582,0.622329711914,-30.7,0.5)" xlink:href="#c21"/></g><g><use transform="matrix(-0.29948425293,0.342376708984,0.252716064453,0.558074951172,-5.7,0.35)" xlink:href="#c21"/></g><g><use transform="matrix(0.373031616211,0.545471191406,0.487899780273,0.113159179688,-8.85,9.3)" xlink:href="#c21"/></g></g><filter id="filter14"><feColorMatrix in="SourceGraphic" type="matrix" values="1.0 0.0 0.0 0.0 0.0 0.0 1.0 0.0 0.0 0.0 0.0 0.0 1.0 0.0 0.0 0.0 0.0 0.0 0.21875 0.0" result="cxform"/><feComposite operator="in" in2="SourceGraphic" result="color-xform"/></filter><filter id="filter15"><feColorMatrix in="SourceGraphic" type="matrix" values="1.0 0.0 0.0 0.0 0.0 0.0 1.0 0.0 0.0 0.0 0.0 0.0 1.0 0.0 0.0 0.0 0.0 0.0 0.21875 0.0" result="cxform"/><feComposite operator="in" in2="SourceGraphic" result="color-xform"/></filter><filter id="filter17"><feColorMatrix in="SourceGraphic" type="matrix" values="1.0 0.0 0.0 0.0 0.0 0.0 1.0 0.0 0.0 0.0 0.0 0.0 1.0 0.0 0.0 0.0 0.0 0.0 0.21875 0.0" result="cxform"/><feComposite operator="in" in2="SourceGraphic" result="color-xform"/></filter><g id="c23"><path fill="none" stroke="#ffcc00" stroke-width="0.5" d="M7.05 61.6 Q7.5 60.95 8.45 60.5 9.1 60.05 10.1 59.7 L28.6 53.75 Q32.85 52.35 34.75 56.45 L47.65 85.05 Q49.25 88.5 46.5 90.05 45.8 90.65 44.6 91.0 L26.1 97.0 Q23.45 97.8 21.8 96.65 20.65 95.9 19.95 94.25 L7.0 65.6 Q5.85 63.1 7.05 61.6"/></g><g id="c24"><path fill="#ffffff" stroke="none" d="M7.05 61.6 Q7.5 60.95 8.45 60.5 9.1 60.05 10.1 59.7 L28.6 53.75 Q32.85 52.35 34.75 56.45 L47.65 85.05 Q49.25 88.5 46.5 90.05 45.8 90.65 44.6 91.0 L26.1 97.0 Q23.45 97.8 21.8 96.65 20.65 95.9 19.95 94.25 L7.0 65.6 Q5.85 63.1 7.05 61.6"/><path fill="#ffffff" stroke-linejoin="round" stroke-linecap="round" stroke="url(#gradient3)" stroke-width="0.5" d="M7.05 61.6 Q7.5 60.95 8.45 60.5 9.1 60.05 10.1 59.7 L28.6 53.75 Q32.85 52.35 34.75 56.45 L47.65 85.05 Q49.25 88.5 46.5 90.05 45.8 90.65 44.6 91.0 L26.1 97.0 Q23.45 97.8 21.8 96.65 20.65 95.9 19.95 94.25 L7.0 65.6 Q5.85 63.1 7.05 61.6"/></g><linearGradient gradientUnits="userSpaceOnUse" x1="-819.2" x2="819.2" spreadMethod="pad" gradientTransform="matrix(-0.0125732421875,0.0358276367188,-0.0249176025391,-0.0237579345703,24.2,32.05)" id="gradient10"><stop offset="0.0" stop-opacity="0.337254901961"/><stop offset="1.0" stop-opacity="0.0"/></linearGradient><linearGradient gradientUnits="userSpaceOnUse" x1="-819.2" x2="819.2" spreadMethod="pad" gradientTransform="matrix(-0.00735473632812,0.0306396484375,-0.0266723632812,-0.0176086425781,34.25,44.6)" id="gradient11"><stop offset="0.0" stop-opacity="0.337254901961"/><stop offset="1.0" stop-opacity="0.0"/></linearGradient><linearGradient gradientUnits="userSpaceOnUse" x1="-819.2" x2="819.2" spreadMethod="pad" gradientTransform="matrix(-0.00982666015625,0.0313873291016,-0.0181274414062,-0.0154724121094,4.1,17.85)" id="gradient12"><stop offset="0.0" stop-opacity="0.337254901961"/><stop offset="1.0" stop-opacity="0.0"/></linearGradient><linearGradient gradientUnits="userSpaceOnUse" x1="-819.2" x2="819.2" spreadMethod="pad" gradientTransform="matrix(0.0,0.0410766601562,-0.0333709716797,-0.0151062011719,15.9,32.85)" id="gradient13"><stop offset="0.0" stop-opacity="0.337254901961"/><stop offset="1.0" stop-opacity="0.0"/></linearGradient><g id="c25"><path stroke="none" fill="url(#gradient10)" d="M21.35 46.7 L21.35 1.75 26.45 1.75 26.45 46.7 21.35 46.7"/><path stroke="none" fill="url(#gradient11)" d="M31.7 5.7 L36.8 5.55 36.8 46.7 31.7 46.7 31.7 5.7"/><path stroke="none" fill="url(#gradient12)" d="M0.0 6.65 L5.1 6.45 5.1 46.7 0.0 46.7 0.0 6.65"/><path stroke="none" fill="url(#gradient13)" d="M9.35 46.7 L9.65 1.75 15.75 1.75 15.0 46.7 9.35 46.7"/></g><g id="c26"><g><use transform="matrix(1.0,0.0,0.0,1.0,0.0,0.0)" xlink:href="#c25"/></g></g><g id="c27"><path fill="#fefd8d" fill-opacity="0.972549019608" d="M33.85 83.75 L33.85 83.8 33.85 83.95 33.85 84.0 33.85 84.1 33.9 84.1 33.9 84.15 34.35 84.4 34.85 84.75 34.35 84.45 34.1 84.3 34.05 84.25 33.95 84.2 33.9 84.2 33.9 84.7 33.9 85.25 33.85 84.75 33.75 84.2 33.7 84.1 33.5 84.25 33.0 84.55 32.7 84.7 32.95 84.5 33.4 84.3 33.45 84.25 33.5 84.2 33.7 84.1 33.65 84.05 33.7 84.05 33.7 84.0 33.3 83.6 32.95 83.25 33.3 83.55 33.55 83.8 33.7 83.95 33.8 83.4 33.9 82.95 33.85 83.35 33.85 83.75 M34.4 83.9 L34.35 83.9 34.25 84.0 34.15 84.0 33.9 84.05 34.15 83.95 34.7 83.75 35.2 83.65 34.85 83.75 34.95 83.85 34.85 83.75 34.7 83.8 34.4 83.9 M36.75 85.45 L36.9 85.55 36.9 85.5 37.1 83.9 37.35 82.3 37.45 81.75 37.4 82.25 37.4 83.85 37.2 85.6 37.35 86.0 37.4 86.1 38.7 86.9 40.15 87.75 40.55 88.05 40.1 87.8 38.75 87.05 37.75 86.45 37.4 86.25 37.35 86.2 37.4 86.3 37.5 87.75 37.55 89.45 37.6 90.0 37.5 89.5 37.25 87.9 37.05 86.25 37.0 86.3 36.9 85.9 36.7 85.75 36.9 85.85 36.9 85.65 35.7 84.55 34.95 83.85 35.65 84.4 36.45 85.15 36.5 85.2 36.75 85.45 M36.1 86.45 L36.2 86.4 36.85 86.1 36.3 86.45 34.8 87.25 33.35 88.0 32.8 88.25 33.3 88.0 34.65 87.2 35.7 86.65 36.1 86.45 M41.85 84.45 L41.35 84.6 39.85 85.15 38.15 85.7 37.5 85.9 Q37.45 85.85 38.1 85.65 L39.7 85.1 41.3 84.6 41.85 84.45"/><path fill="#fffd8f" fill-opacity="0.4" d="M33.85 83.75 L34.05 83.4 34.25 83.2 34.15 83.4 34.0 83.8 33.9 83.9 33.85 83.8 33.85 83.75 M34.1 84.3 L34.35 84.5 34.45 84.65 34.25 84.5 34.0 84.3 33.95 84.2 34.05 84.25 34.1 84.3 M33.4 84.3 L33.3 84.3 32.95 84.45 32.7 84.55 32.95 84.4 33.35 84.25 33.45 84.25 33.4 84.3 M33.55 83.8 L33.4 83.6 33.6 83.8 33.65 83.9 33.55 83.8 M34.4 83.9 L34.65 83.85 34.95 83.85 35.05 83.8 34.95 83.85 34.7 83.9 34.3 84.0 34.2 84.0 34.25 84.0 34.35 83.9 34.4 83.9 M33.6 84.3 L33.7 84.2 33.75 84.35 33.65 84.7 33.55 85.05 33.55 84.75 33.6 84.3 M37.65 85.15 L37.35 85.5 37.35 85.0 37.9 84.05 38.5 83.1 38.7 82.75 38.55 83.1 38.15 84.05 37.65 85.15 M36.75 85.45 L36.5 85.2 36.45 85.15 35.85 84.4 35.45 83.85 35.95 84.3 36.65 85.15 36.9 85.5 36.75 85.45 M37.4 86.3 L37.35 86.2 37.4 86.25 37.75 86.45 Q38.15 86.7 38.6 87.1 L39.3 87.75 38.5 87.15 37.6 86.5 37.4 86.3 M36.1 86.45 L35.7 86.65 34.7 87.0 33.8 87.3 34.7 86.95 35.75 86.5 36.1 86.45 M38.7 85.65 L38.25 85.7 38.7 85.55 39.75 85.35 40.7 85.2 41.05 85.15 40.75 85.25 39.8 85.45 38.7 85.65 M36.7 86.7 L36.95 86.25 37.0 86.75 36.65 87.8 36.3 88.85 36.15 89.25 36.25 88.85 36.4 87.85 Q36.5 87.1 36.7 86.7"/><path fill="#fffd8f" fill-opacity="0.392156862745" d="M38.0 86.75 Q37.9 86.0 37.45 85.8 L36.9 85.85 Q36.75 86.1 36.9 86.5 37.1 87.0 37.65 87.3 L38.35 87.95 38.6 88.25 38.45 87.85 38.0 86.75"/><path fill="#fffd8f" fill-opacity="0.392156862745" d="M38.0 86.25 L37.05 85.85 Q36.8 85.8 36.95 85.95 L37.55 86.35 38.35 86.6 Q38.8 86.65 39.05 86.85 L39.35 86.95 39.0 86.75 38.0 86.25"/><path fill="#fffd8f" fill-opacity="0.392156862745" d="M36.4 84.8 Q36.35 85.55 36.75 85.85 L37.3 85.9 37.45 85.25 Q37.35 84.75 36.9 84.35 36.35 83.9 36.3 83.55 L36.1 83.25 36.2 83.65 36.4 84.8"/><path fill="#fffd8f" fill-opacity="0.392156862745" d="M36.25 85.35 L37.1 85.95 37.2 85.8 36.75 85.3 35.95 84.9 Q35.55 84.75 35.3 84.6 L35.05 84.45 35.35 84.65 36.25 85.35"/><path fill="#fffd8f" fill-opacity="0.392156862745" d="M38.75 85.2 Q38.0 85.45 37.85 85.65 37.7 85.85 37.85 85.8 L38.5 85.65 39.25 85.2 39.9 84.75 40.15 84.6 39.75 84.75 38.75 85.2"/><path fill="#fffd8f" fill-opacity="0.392156862745" d="M35.75 87.0 L36.6 86.4 36.5 86.25 Q36.25 86.25 35.9 86.5 L35.25 87.1 34.7 87.65 Q34.4 87.8 34.45 87.85 L34.8 87.6 35.75 87.0"/><path fill="#fffd8f" fill-opacity="0.392156862745" d="M34.1 84.35 L33.95 84.05 33.75 84.05 Q33.65 84.1 33.7 84.25 L34.0 84.55 34.2 84.75 34.3 84.85 34.2 84.75 34.1 84.35"/><path fill="#fffd8f" fill-opacity="0.392156862745" d="M34.1 84.2 Q33.9 84.05 33.75 84.05 L33.75 84.1 33.95 84.2 34.2 84.3 34.5 84.4 34.55 84.4 34.45 84.4 34.1 84.2"/><path fill="#fffd8f" fill-opacity="0.392156862745" d="M33.5 83.65 L33.65 84.05 33.85 84.05 33.9 83.85 33.65 83.55 33.5 83.25 33.45 83.15 33.5 83.25 33.5 83.65"/><path fill="#fffd8f" fill-opacity="0.392156862745" d="M33.5 83.9 L33.75 84.05 33.8 84.0 33.65 83.85 33.35 83.7 33.2 83.6 33.05 83.55 33.15 83.6 33.5 83.9"/><path fill="#fffd8f" fill-opacity="0.392156862745" d="M34.3 83.8 L34.05 83.95 34.05 84.0 34.25 83.95 34.55 83.8 Q34.6 83.7 34.7 83.7 L34.8 83.6 34.7 83.65 34.3 83.8"/><path fill="#fffd8f" fill-opacity="0.392156862745" d="M33.3 84.45 L33.6 84.2 33.6 84.15 Q33.5 84.15 33.4 84.3 L33.15 84.45 32.95 84.65 32.85 84.75 33.0 84.6 33.3 84.45"/><path fill="#ffffff" stroke="none" d="M36.3 85.35 Q36.05 85.7 36.05 86.15 L36.5 86.9 37.3 87.15 38.05 86.75 38.25 85.9 37.85 85.2 37.05 84.95 36.3 85.35"/><path fill="#fefd8d" fill-opacity="0.972549019608" d="M18.75 62.3 L18.65 62.35 18.2 62.45 18.6 62.25 19.85 61.9 21.0 61.5 21.4 61.35 21.05 61.5 19.9 61.9 18.75 62.3 M17.45 61.95 L17.7 62.2 17.75 62.2 17.7 62.15 17.85 61.05 18.05 59.85 18.15 59.4 18.1 59.8 18.05 61.0 18.0 62.25 18.1 62.6 19.15 63.2 20.0 63.75 19.15 63.3 18.5 62.95 18.4 62.85 18.15 62.7 18.1 62.7 18.15 62.75 18.2 63.85 18.2 64.9 18.0 64.0 17.85 62.8 17.8 62.8 17.75 62.45 17.6 62.3 17.7 62.35 17.7 62.3 16.85 61.5 15.9 60.65 15.65 60.35 15.95 60.65 16.8 61.4 17.45 61.95 M14.7 64.25 L15.05 64.05 16.1 63.45 17.25 62.85 17.7 62.65 17.3 62.95 16.2 63.45 15.1 64.05 14.7 64.25"/><path fill="#fffd8f" fill-opacity="0.4" d="M18.75 62.3 L19.1 62.2 19.85 62.05 20.6 61.95 19.85 62.15 19.05 62.3 18.75 62.3 M17.45 61.95 L16.95 61.35 16.5 60.75 17.0 61.3 17.55 61.95 17.7 62.15 17.75 62.2 17.7 62.2 17.45 61.95 M18.5 62.95 L19.0 63.35 19.6 63.8 19.8 64.0 19.6 63.85 18.95 63.4 18.3 62.9 18.15 62.75 18.1 62.7 18.15 62.7 18.4 62.85 18.5 62.95 M18.3 61.9 L18.05 62.2 18.1 61.85 18.45 61.15 18.9 60.4 19.1 60.2 18.95 60.4 18.65 61.15 18.3 61.9 M16.9 62.9 L17.2 62.85 Q17.15 62.9 16.85 63.05 L16.15 63.3 15.45 63.55 15.2 63.6 15.45 63.5 16.1 63.25 Q16.6 63.0 16.9 62.9 M17.55 63.1 L17.75 62.75 17.8 63.1 17.6 63.95 17.25 64.7 17.15 64.95 17.2 64.7 17.4 63.9 Q17.4 63.4 17.55 63.1"/><path fill="#fffd8f" fill-opacity="0.392156862745" d="M18.6 63.1 L18.15 62.4 17.7 62.45 17.75 62.95 18.3 63.55 Q18.75 63.8 18.8 64.0 L19.0 64.25 18.85 63.95 18.6 63.1"/><path fill="#fffd8f" fill-opacity="0.392156862745" d="M18.55 62.7 Q18.05 62.4 17.9 62.4 17.7 62.4 17.8 62.5 L18.25 62.8 18.85 63.0 19.35 63.15 19.6 63.2 19.35 63.1 18.55 62.7"/><path fill="#fffd8f" fill-opacity="0.392156862745" d="M17.3 61.7 Q17.35 62.3 17.55 62.45 L18.0 62.5 18.1 62.0 17.65 61.35 17.25 60.75 17.15 60.5 17.2 60.8 17.3 61.7"/><path fill="#fffd8f" fill-opacity="0.392156862745" d="M17.25 62.1 L17.9 62.5 17.95 62.45 17.6 62.05 17.05 61.75 16.55 61.5 16.35 61.4 16.55 61.6 Q16.8 61.7 17.25 62.1"/><path fill="#fffd8f" fill-opacity="0.392156862745" d="M19.05 61.9 L18.4 62.3 18.45 62.4 18.9 62.3 19.5 61.95 19.95 61.6 20.15 61.5 19.85 61.6 19.05 61.9"/><path fill="#fffd8f" fill-opacity="0.392156862745" d="M16.9 63.3 L17.5 62.85 17.45 62.7 17.05 62.9 16.5 63.35 16.15 63.75 15.95 63.95 16.2 63.75 16.9 63.3"/><path fill="#ffffff" stroke="none" d="M17.4 62.1 Q17.15 62.35 17.2 62.65 L17.55 63.25 18.1 63.4 18.7 63.1 18.85 62.5 18.55 61.95 17.9 61.75 17.4 62.1"/><path fill="#ffffff" stroke="none" d="M33.55 83.9 L33.45 84.15 33.6 84.45 33.85 84.5 34.15 84.4 34.2 84.05 34.1 83.85 33.75 83.75 33.55 83.9"/></g><g id="c28"><g><use transform="matrix(1.0,0.0,0.0,1.0,6.3,53.35)" xlink:href="#c9"/></g><g><use transform="matrix(1.0,0.0,0.0,1.0,0.0,0.0)" xlink:href="#c10"/></g><g><use transform="matrix(1.0,0.0,0.0,1.0,6.45,53.4)" xlink:href="#c12"/></g><g><use transform="matrix(1.0,0.0,0.0,1.0,0.0,0.0)" xlink:href="#c13"/></g><g><use transform="matrix(0.393814086914,-0.105499267578,0.105499267578,0.393814086914,18.3,69.85)" filter="url(#filter28)" xlink:href="#c15"/></g><g><use transform="matrix(-0.0242004394531,-0.168563842773,0.129302978516,-0.0141143798828,19.9,79.2)" xlink:href="#c17"/></g><g><use transform="matrix(-0.0839080810547,-0.148391723633,0.167739868164,-0.0948333740234,21.85,75.2)" xlink:href="#c17"/></g><g><use transform="matrix(-0.0638275146484,0.0187530517578,0.0335083007812,0.12158203125,32.8,68.55)" xlink:href="#c22"/></g><g><use transform="matrix(-0.0546417236328,0.0622711181641,0.113891601562,0.122817993164,26.7,70.1)" xlink:href="#c22"/></g><g><use transform="matrix(0.0728607177734,-0.0389404296875,0.0301971435547,0.107192993164,23.7,76.35)" xlink:href="#c22"/></g><g><use transform="matrix(0.0278625488281,-0.0495910644531,-0.0823059082031,-0.0579528808594,33.4,73.75)" xlink:href="#c22"/></g><g><use transform="matrix(0.0317535400391,-0.0511016845703,-0.0818939208984,-0.00294494628906,29.5,75.85)" xlink:href="#c22"/></g><g><use transform="matrix(0.177749633789,0.0104064941406,0.0104064941406,-0.177795410156,30.7,75.45)" xlink:href="#c17"/></g><g><use transform="matrix(0.177795410156,-0.00115966796875,0.0172882080078,-0.183837890625,30.9,80.05)" xlink:href="#c17"/></g><g><use transform="matrix(0.190795898438,0.0928802490234,0.101516723633,-0.20849609375,25.1,76.5)" xlink:href="#c17"/></g><g><use transform="matrix(0.0226593017578,-0.0364532470703,0.0797576904297,0.0776977539062,24.05,76.8)" xlink:href="#c22"/></g><g><use transform="matrix(1.0,0.0,0.0,1.0,0.0,0.0)" xlink:href="#c23"/></g><mask id="mask24"><use transform="matrix(1.0,0.0,0.0,1.0,0.0,0.0)" xlink:href="#c24"/></mask><g mask="url(#mask24)"><use transform="matrix(1.0,0.0,0.0,1.0,9.65,51.0)" filter="url(#filter42)" xlink:href="#c26"/></g><g mask="url(#mask24)"><use transform="matrix(1.0,0.0,0.0,1.0,9.65,51.0)" filter="url(#filter43)" xlink:href="#c26"/></g><g mask="url(#mask24)"><use transform="matrix(1.0,0.0,0.0,1.0,0.0,0.0)" xlink:href="#c27"/></g><g><use transform="matrix(0.141098022461,-0.0378112792969,0.111373901367,0.225646972656,27.2,74.05)" filter="url(#filter45)" xlink:href="#c6"/></g></g><filter id="filter28"><feColorMatrix in="SourceGraphic" type="matrix" values="1.0 0.0 0.0 0.0 0.0 0.0 1.0 0.0 0.0 0.0 0.0 0.0 1.0 0.0 0.0 0.0 0.0 0.0 0.37109375 0.0" result="cxform"/><feComposite operator="in" in2="SourceGraphic" result="color-xform"/></filter><filter id="filter42"><feColorMatrix in="SourceGraphic" type="matrix" values="0.0 0.0 0.0 0.0 0.99609375 0.0 0.0 0.0 0.0 0.99609375 0.0 0.0 0.0 0.0 0.99609375 0.0 0.0 0.0 1.0 0.0" result="cxform"/><feComposite operator="in" in2="SourceGraphic" result="color-xform"/></filter><filter id="filter43"><feColorMatrix in="SourceGraphic" type="matrix" values="0.0 0.0 0.0 0.0 0.99609375 0.0 0.0 0.0 0.0 0.99609375 0.0 0.0 0.0 0.0 0.99609375 0.0 0.0 0.0 1.0 0.0" result="cxform"/><feComposite operator="in" in2="SourceGraphic" result="color-xform"/></filter><filter id="filter45"><feColorMatrix in="SourceGraphic" type="matrix" values="1.0 0.0 0.0 0.0 0.0 0.0 1.0 0.0 0.0 0.0 0.0 0.0 1.0 0.0 0.0 0.0 0.0 0.0 0.23046875 0.0" result="cxform"/><feComposite operator="in" in2="SourceGraphic" result="color-xform"/></filter></defs><g><g><use transform="matrix(1.0,0.0,0.0,1.0,0.0,0.0)" xlink:href="#c1"/></g><g><use transform="matrix(1.15496826172,0.0,0.0,1.15496826172,-1.5,-57.65)" xlink:href="#c28"/></g></g></svg>