<?xml version='1.0' encoding='UTF-8'?>
<svg xmlns:xlink="http://www.w3.org/1999/xlink" xmlns="http://www.w3.org/2000/svg" version="1.1" width="60px" height="60px" viewBox="0.0 0.0 60.0 60.0"><defs><g id="c1"><path fill="#000000" fill-opacity="0.00392156862745" d="M0.0 0.0 L60.0 0.0 60.0 60.0 0.0 60.0 0.0 0.0"/></g><g id="c2"><path fill="#006699" stroke="none" d="M31.5 39.85 L19.8 43.65 Q17.15 44.45 15.5 43.3 14.35 42.55 13.65 40.9 L1.7 14.45 1.6 14.3 1.2 13.45 -0.75 9.05 Q-2.05 6.2 -0.3 4.75 0.3 4.25 1.2 3.9 L5.5 2.25 Q8.95 0.95 10.65 4.15 L22.3 0.4 Q26.55 -1.0 28.45 3.1 L40.55 29.95 40.9 30.7 42.95 35.15 Q43.95 37.35 43.15 38.7 42.5 39.7 40.95 40.25 L36.65 41.8 35.1 42.2 Q32.75 42.3 31.5 39.85"/><path fill="none" stroke="#000000" stroke-width="1.0" stroke-opacity="0.298039215686" d="M31.5 39.85 L19.8 43.65 Q17.15 44.45 15.5 43.3 14.35 42.55 13.65 40.9 L1.7 14.45 1.6 14.3 1.2 13.45 -0.75 9.05 Q-2.05 6.2 -0.3 4.75 0.3 4.25 1.2 3.9 L5.5 2.25 Q8.95 0.95 10.65 4.15 L22.3 0.4 Q26.55 -1.0 28.45 3.1 L40.55 29.95 40.9 30.7 42.95 35.15 Q43.95 37.35 43.15 38.7 42.5 39.7 40.95 40.25 L36.65 41.8 35.1 42.2 Q32.75 42.3 31.5 39.85"/><path fill="#300525" stroke="none" d="M0.75 8.25 L29.8 9.75 25.55 0.9 Q26.9 1.6 27.8 3.55 L40.7 32.15 Q42.6 36.3 38.3 37.65 L23.3 42.5 13.15 21.4 4.6 20.9 0.7 12.25 Q-0.45 9.75 0.75 8.25 M20.1 43.55 L19.8 43.65 Q17.15 44.45 15.5 43.3 L20.1 43.55"/><path fill="#630a4c" stroke="none" d="M25.55 0.9 L29.8 9.75 0.75 8.25 Q1.45 7.3 3.1 6.75 L21.65 0.8 25.55 0.9 M4.6 20.9 L13.15 21.4 23.3 42.5 20.1 43.55 15.5 43.3 Q14.35 42.55 13.65 40.9 L4.6 20.9"/><path fill="none" stroke="#000000" stroke-width="0.5" stroke-opacity="0.301960784314" d="M0.75 8.25 Q-0.45 9.75 0.7 12.25 L4.6 20.9 M23.3 42.5 L38.3 37.65 Q42.6 36.3 40.7 32.15 L27.8 3.55 Q26.9 1.6 25.55 0.9 L21.65 0.8 3.1 6.75 Q1.45 7.3 0.75 8.25 M20.1 43.55 L19.8 43.65 Q17.15 44.45 15.5 43.3 14.35 42.55 13.65 40.9 L4.6 20.9 M20.1 43.55 L23.3 42.5"/><path fill="#9d147b" stroke="none" d="M14.2 40.5 L1.35 11.8 Q-0.5 7.75 3.8 6.35 L22.3 0.4 Q26.55 -1.0 28.45 3.1 L41.35 31.7 Q43.25 35.85 38.9 37.25 L20.4 43.2 Q16.1 44.55 14.2 40.5"/><path fill="none" stroke="#000000" stroke-width="0.5" stroke-opacity="0.301960784314" d="M14.2 40.5 L1.35 11.8 Q-0.5 7.75 3.8 6.35 L22.3 0.4 Q26.55 -1.0 28.45 3.1 L41.35 31.7 Q43.25 35.85 38.9 37.25 L20.4 43.2 Q16.1 44.55 14.2 40.5"/><path fill="#9d147b" stroke="none" d="M31.4 39.65 L31.3 39.45 31.25 39.4 29.25 34.95 Q27.55 31.2 31.25 29.85 L35.6 28.25 Q38.8 27.1 40.5 29.85 L40.9 30.7 42.95 35.15 Q43.95 37.35 43.15 38.7 42.5 39.45 41.2 39.9 L36.9 41.45 34.85 41.85 Q32.9 41.7 31.75 39.5 L31.4 39.65"/><path fill="#630a4c" stroke="none" d="M43.15 38.7 Q42.5 39.7 40.95 40.25 L36.65 41.8 35.1 42.2 Q32.75 42.3 31.45 39.8 L31.4 39.65 31.75 39.5 Q32.9 41.7 34.85 41.85 L36.9 41.45 41.2 39.9 Q42.5 39.45 43.15 38.7"/><path fill="none" stroke="#003333" stroke-width="0.5" stroke-opacity="0.509803921569" d="M43.15 38.7 Q42.5 39.7 40.95 40.25 L36.65 41.8 35.1 42.2 Q32.75 42.3 31.45 39.8 L31.4 39.65 30.3 40.0 31.4 39.65 M40.5 29.85 L40.9 30.7 42.95 35.15 Q43.95 37.35 43.15 38.7 42.5 39.45 41.2 39.9 L36.9 41.45 34.85 41.85 Q32.9 41.7 31.75 39.5 L31.4 39.65"/><path fill="#9d147b" stroke="none" d="M10.65 4.2 L10.85 4.6 12.85 9.05 Q14.5 12.8 10.8 14.15 L6.5 15.8 Q4.5 16.6 3.1 15.8 L1.75 12.85 -0.2 8.45 Q-1.25 6.15 -0.3 4.75 0.3 4.25 1.2 3.9 L5.5 2.25 Q9.0 0.95 10.65 4.2"/><path fill="#300525" stroke="none" d="M-0.3 4.75 Q-1.25 6.15 -0.2 8.45 L1.75 12.85 3.1 15.8 Q2.25 15.35 1.6 14.3 L1.2 13.45 -0.75 9.05 Q-2.05 6.2 -0.3 4.75"/><path fill="none" stroke="#003333" stroke-width="0.5" stroke-opacity="0.509803921569" d="M3.1 15.8 L6.45 23.15 M-0.3 4.75 Q0.3 4.25 1.2 3.9 L5.5 2.25 Q9.0 0.95 10.65 4.2 M3.1 15.8 L1.75 12.85 -0.2 8.45 Q-1.25 6.15 -0.3 4.75 -2.05 6.2 -0.75 9.05 L1.2 13.45 1.6 14.3"/><path fill="#fcf2cf" stroke="none" d="M9.15 13.6 Q9.8 12.8 9.55 11.6 L9.1 10.55 22.05 6.35 Q24.9 5.45 26.25 7.85 L26.5 8.3 35.8 29.0 35.95 29.35 Q34.75 29.3 34.1 30.1 33.45 30.9 33.7 32.1 L34.0 32.9 20.65 37.2 Q18.8 37.8 17.65 37.0 16.8 36.4 16.3 35.2 L6.95 14.6 6.8 14.4 7.1 14.4 Q8.4 14.45 9.15 13.6"/><path fill="#c47fad" stroke="none" d="M9.15 13.6 Q8.4 14.45 7.1 14.4 L6.8 14.4 6.95 14.6 16.3 35.2 Q16.8 36.4 17.65 37.0 18.8 37.8 20.65 37.2 L34.0 32.9 33.7 32.1 Q33.45 30.9 34.1 30.1 34.75 29.3 35.95 29.35 L35.8 29.0 26.5 8.3 26.25 7.85 Q24.9 5.45 22.05 6.35 L9.1 10.55 9.55 11.6 Q9.8 12.8 9.15 13.6 M28.25 6.1 L35.55 22.3 39.35 30.75 Q41.1 34.5 37.2 35.7 L20.45 41.1 Q16.8 42.25 15.2 39.0 L15.0 38.6 8.25 23.65 3.35 12.8 Q1.65 9.1 5.5 7.85 L22.25 2.5 Q26.05 1.25 27.75 4.95 L28.25 6.1"/><path fill="none" stroke="#ffcc00" stroke-width="1.0" stroke-opacity="0.749019607843" d="M35.55 22.3 L39.35 30.75 Q41.1 34.5 37.2 35.7 L20.45 41.1 Q16.8 42.25 15.2 39.0 L15.0 38.6 M8.25 23.65 L3.35 12.8 Q1.65 9.1 5.5 7.85 L22.25 2.5 Q26.05 1.25 27.75 4.95 L28.25 6.1"/><path fill="none" stroke="#bf9900" stroke-width="1.0" stroke-opacity="0.749019607843" d="M28.25 6.1 L35.55 22.3 M15.0 38.6 L8.25 23.65"/><path fill="none" stroke="#f0b92b" stroke-width="0.5" d="M9.15 13.6 Q9.8 12.8 9.55 11.6 L9.1 10.55 22.05 6.35 Q24.9 5.45 26.25 7.85 L26.5 8.3 35.8 29.0 35.95 29.35 Q34.75 29.3 34.1 30.1 33.45 30.9 33.7 32.1 L34.0 32.9 20.65 37.2 Q18.8 37.8 17.65 37.0 16.8 36.4 16.3 35.2 L6.95 14.6 6.8 14.4 7.1 14.4 Q8.4 14.45 9.15 13.6"/></g><g id="c3"><path fill="#7fdbfe" stroke="none" d="M10.75 4.9 Q10.75 4.6 10.9 4.35 11.25 3.45 11.95 2.75 13.3 1.5 14.35 2.1 15.4 2.7 14.95 4.45 14.7 5.4 14.1 6.15 L13.75 6.5 Q13.1 7.15 12.35 7.35 L11.4 7.2 Q10.95 6.9 10.75 6.4 10.5 5.75 10.75 4.9 M7.5 5.9 Q7.0 5.85 6.6 5.5 6.05 5.0 5.8 4.15 L5.7 3.6 Q5.55 2.65 5.8 1.7 6.25 0.0 7.5 0.0 L7.6 0.0 Q8.85 0.0 9.3 1.7 9.55 2.65 9.4 3.6 L9.3 4.15 8.5 5.5 7.6 5.9 7.5 5.9 M4.35 4.9 Q4.6 5.75 4.35 6.4 L3.7 7.2 2.75 7.35 Q2.0 7.15 1.35 6.5 L1.0 6.15 Q0.4 5.4 0.15 4.45 -0.3 2.7 0.75 2.1 1.8 1.5 3.15 2.75 3.85 3.45 4.2 4.35 L4.35 4.9 M5.5 13.7 Q4.45 13.9 3.65 12.95 2.75 12.0 3.2 10.25 3.7 8.5 5.25 7.6 6.4 6.9 7.55 7.0 8.75 6.9 9.9 7.6 11.45 8.5 11.95 10.25 12.35 12.0 11.5 12.95 10.7 13.9 9.65 13.7 8.55 13.5 7.55 12.6 6.55 13.5 5.5 13.7"/></g><g id="c4"><g><use transform="matrix(1.0,0.0,0.0,1.0,0.0,0.0)" xlink:href="#c3"/></g></g><radialGradient gradientUnits="userSpaceOnUse" r="819.2" cx="0" cy="0" spreadMethod="pad" gradientTransform="matrix(0.0914459228516,0.0,0.0,0.0914459228516,0.6,3.4)" id="gradient1"><stop offset="0.0" stop-color="#ffffff"/><stop offset="1.0" stop-color="#ffffff" stop-opacity="0.0"/></radialGradient><g id="c5"><path stroke="none" fill="url(#gradient1)" d="M36.65 -54.65 Q60.05 -42.0 69.75 -17.95 80.55 8.9 68.0 34.1 55.45 59.35 26.8 68.2 -1.8 77.05 -29.7 64.3 -57.6 51.6 -68.45 24.75 -79.3 -2.05 -66.75 -27.25 L-66.7 -27.3 Q-54.1 -52.5 -25.5 -61.4 3.1 -70.2 31.0 -57.5 L36.65 -54.65"/></g><g id="c6"><g><use transform="matrix(1.0,0.0,0.0,1.0,0.0,0.0)" xlink:href="#c5"/></g></g><radialGradient gradientUnits="userSpaceOnUse" r="819.2" cx="0" cy="0" spreadMethod="pad" gradientTransform="matrix(0.209197998047,0.0,0.0,0.177108764648,67.15,107.2)" id="gradient2"><stop offset="0.356862745098" stop-color="#ffffff"/><stop offset="0.670588235294" stop-opacity="0.0"/></radialGradient><g id="c7"><path fill="none" stroke-linejoin="round" stroke-linecap="round" stroke="url(#gradient2)" stroke-width="0.5" d="M136.55 165.8 L68.6 106.0 68.4 106.0 118.25 201.5 M68.3 105.8 L68.35 105.8 68.3 105.8 68.3 105.85 68.4 106.0 68.3 106.0 86.55 211.5 M68.3 105.8 L68.3 105.85 68.3 106.0 68.15 105.95 18.25 151.55 M68.3 105.85 L68.25 105.85 68.3 106.0 50.0 193.2 M68.25 105.85 L68.15 105.95 0.05 97.7 M68.3 105.85 L68.25 105.8 68.25 105.85 M68.25 105.8 L68.2 105.7 0.0 45.7 M68.3 105.8 L68.25 105.75 68.25 105.8 M68.25 105.75 L68.2 105.7 18.25 10.05 M68.6 106.0 L68.35 105.8 118.25 60.15 M86.6 18.35 L68.3 105.8 M136.6 114.25 L68.6 106.0 M68.25 105.75 L49.95 0.05"/></g><g id="c8"><g><use transform="matrix(1.0,0.0,0.0,1.0,0.0,0.0)" xlink:href="#c7"/></g></g><g id="c9"><g><use transform="matrix(1.0,0.0,0.0,1.0,0.0,0.0)" xlink:href="#c2"/></g><g><use transform="matrix(0.238861083984,-0.0867004394531,0.10026550293,0.233917236328,34.25,31.15)" xlink:href="#c4"/></g><g><use transform="matrix(0.238861083984,-0.0867004394531,0.10026550293,0.233917236328,4.25,10.3)" xlink:href="#c4"/></g><g><use transform="matrix(0.141098022461,-0.0378112792969,0.111373901367,0.225646972656,20.25,20.65)" filter="url(#filter7)" xlink:href="#c6"/></g><g><use transform="matrix(-0.155029296875,0.0513153076172,0.0841827392578,0.147033691406,22.6,3.15)" filter="url(#filter8)" xlink:href="#c8"/></g></g><filter id="filter7"><feColorMatrix in="SourceGraphic" type="matrix" values="0.0 0.0 0.0 0.0 0.796875 0.0 0.0 0.0 0.0 0.59765625 0.0 0.0 0.0 0.0 0.19921875 0.0 0.0 0.0 1.0 0.0" result="cxform"/><feComposite operator="in" in2="SourceGraphic" result="color-xform"/></filter><filter id="filter8"><feColorMatrix in="SourceGraphic" type="matrix" values="0.0 0.0 0.0 0.0 0.99609375 0.0 0.0 0.0 0.0 0.99609375 0.0 0.0 0.0 0.0 0.99609375 0.0 0.0 0.0 1.0 0.0" result="cxform"/><feComposite operator="in" in2="SourceGraphic" result="color-xform"/></filter><g id="c10"><path fill="#f7e4b8" stroke="none" d="M84.0 64.35 L86.4 63.05 86.55 63.05 Q87.25 63.05 87.8 63.35 88.3 63.55 88.3 64.7 87.9 66.2 85.85 69.5 87.9 66.2 88.3 64.7 88.3 63.55 87.8 63.35 89.85 63.85 90.85 67.0 L89.1 69.85 85.85 69.5 Q81.15 68.5 82.05 65.05 L84.0 64.35 M100.75 75.15 L102.1 75.0 Q103.15 75.0 103.85 75.35 108.3 76.85 105.85 85.8 L104.1 87.65 104.1 87.3 Q100.1 86.3 99.3 84.5 98.95 83.65 98.95 82.8 L99.3 78.65 99.3 77.0 100.75 75.15 M107.85 97.8 L108.4 98.1 109.25 98.45 109.75 99.1 110.3 99.6 Q111.15 102.3 107.65 108.25 L104.7 109.75 104.7 109.95 104.5 109.95 104.5 110.1 104.0 108.95 Q104.35 107.95 105.2 106.75 L107.85 104.25 Q109.75 101.95 110.1 100.1 L110.3 99.6 110.1 100.1 Q109.75 101.95 107.85 104.25 L105.2 106.75 Q104.35 107.95 104.0 108.95 103.15 107.6 103.15 106.1 L106.15 102.8 108.4 99.6 108.4 98.1 108.4 99.6 106.15 102.8 103.15 106.1 Q103.2 103.1 105.45 99.3 L107.85 97.8 M9.9 13.45 L10.05 13.45 Q13.85 11.8 16.65 12.15 18.4 12.5 19.25 13.45 L20.1 14.3 19.4 14.8 18.9 14.65 14.55 14.95 Q13.0 15.15 11.8 14.95 11.8 14.8 12.15 14.8 14.4 12.3 15.6 12.3 L16.65 12.15 15.6 12.3 Q14.4 12.3 12.15 14.8 11.8 14.8 11.8 14.95 L8.5 14.65 9.9 13.45 M29.3 15.3 Q42.1 12.15 42.75 18.3 L42.75 18.8 40.35 20.6 39.45 20.3 Q34.25 20.95 31.15 20.45 L30.65 20.3 Q29.25 20.15 28.4 19.65 26.8 18.95 26.1 17.95 L26.0 17.8 29.3 15.3 M54.7 24.6 Q62.85 23.8 64.35 28.1 65.05 30.45 64.2 33.6 L61.1 34.95 60.9 34.75 Q56.05 34.6 53.95 31.6 L57.25 30.95 53.95 31.6 Q52.4 29.6 52.65 26.1 L52.45 25.95 54.7 24.6 M69.5 43.4 Q73.35 42.4 71.75 46.4 L70.85 48.25 68.95 49.9 68.6 50.05 Q65.15 48.55 65.9 45.9 L66.55 44.25 69.5 43.4 M102.1 75.0 Q102.4 76.0 102.25 77.15 102.05 79.0 99.8 83.3 L99.3 84.5 99.8 83.3 Q102.05 79.0 102.25 77.15 102.4 76.0 102.1 75.0 M102.95 80.65 Q104.0 79.15 104.15 77.0 L103.85 75.35 104.15 77.0 Q104.0 79.15 102.95 80.65 M56.4 27.8 Q58.35 27.1 60.45 26.95 63.2 26.8 64.35 28.1 63.2 26.8 60.45 26.95 58.35 27.1 56.4 27.8 M71.75 46.4 Q71.95 45.05 69.15 45.25 L65.9 45.9 69.15 45.25 Q71.95 45.05 71.75 46.4 M34.65 17.65 L30.65 18.8 28.4 19.65 30.65 18.8 34.65 17.65 M42.75 18.3 L40.0 18.15 Q38.25 18.3 34.95 19.3 L31.15 20.45 34.95 19.3 Q38.25 18.3 40.0 18.15 L42.75 18.3 M19.25 13.45 L17.85 13.45 Q17.0 13.45 15.6 14.45 L14.55 14.95 15.6 14.45 Q17.0 13.45 17.85 13.45 L19.25 13.45 M106.15 102.8 Q106.8 102.95 108.4 101.3 109.1 100.3 109.25 98.45 109.1 100.3 108.4 101.3 106.8 102.95 106.15 102.8"/><path fill="#8a7442" stroke="none" d="M86.4 63.05 Q85.55 63.35 84.65 63.85 84.15 64.05 84.0 64.35 L82.05 65.05 81.7 65.35 76.7 62.55 77.9 61.85 79.65 61.05 82.6 59.2 84.5 61.2 86.55 63.05 86.4 63.05 M70.85 48.25 L73.35 45.9 73.95 47.05 74.65 48.4 75.7 50.55 73.45 51.9 70.0 54.2 69.3 51.05 68.95 49.9 70.85 48.25 M70.85 51.2 L74.65 48.4 70.85 51.2 M69.3 51.05 L73.95 47.05 69.3 51.05 M80.0 63.05 L84.5 61.2 80.0 63.05"/><path fill="#d5b87b" stroke="none" d="M82.05 65.05 Q81.15 68.5 85.85 69.5 L84.95 70.5 84.95 71.5 84.95 70.5 85.85 69.5 89.1 69.85 87.4 72.2 89.1 69.85 Q89.8 74.15 92.9 75.65 95.3 77.0 99.3 76.85 L99.3 77.0 99.3 78.65 98.95 82.8 Q98.95 83.65 99.3 84.5 97.85 87.8 97.5 88.95 L97.35 90.8 97.5 88.95 Q97.85 87.8 99.3 84.5 100.1 86.3 104.1 87.3 L104.1 87.65 100.3 91.8 97.7 90.95 Q97.5 90.95 97.5 90.8 L97.35 90.8 96.5 89.8 96.45 89.75 Q93.95 87.05 96.0 81.5 L99.3 77.0 96.0 81.5 93.4 80.65 Q88.2 78.15 87.4 72.2 78.55 75.35 76.3 67.5 L81.7 65.35 82.05 65.05 M100.95 128.7 L100.95 128.4 Q99.75 126.4 99.4 123.9 L99.95 122.25 102.75 118.9 99.95 122.25 99.4 123.9 99.6 119.75 Q99.6 118.8 99.95 117.95 L99.95 117.9 Q100.65 114.75 102.25 111.1 L101.25 110.95 Q97.6 109.75 101.95 101.6 L105.45 99.3 Q103.2 103.1 103.15 106.1 L102.45 106.95 100.9 109.95 101.25 110.95 100.9 109.95 102.45 106.95 103.15 106.1 Q103.15 107.6 104.0 108.95 L104.5 110.1 104.5 109.95 104.7 109.95 104.5 110.1 103.5 113.9 102.2 114.9 Q100.5 116.6 99.95 117.9 100.5 116.6 102.2 114.9 L103.5 113.9 Q102.9 116.4 102.75 118.9 L102.55 122.55 102.5 123.75 Q102.7 126.25 103.55 128.55 L100.95 128.7 M6.05 16.65 L5.4 16.45 Q2.95 12.8 2.45 10.3 2.25 8.65 3.0 7.5 L7.65 14.45 8.5 14.65 6.05 16.65 8.5 14.65 11.8 14.95 Q13.0 15.15 14.55 14.95 L18.9 14.65 19.4 14.8 15.8 17.8 19.4 14.8 Q19.25 15.45 20.1 15.95 L21.3 16.8 Q22.9 17.45 25.8 17.95 L26.0 17.8 26.1 17.95 Q26.8 18.95 28.4 19.65 L26.1 19.95 24.4 20.15 26.1 19.95 28.4 19.65 Q29.25 20.15 30.65 20.3 L31.15 20.45 Q34.25 20.95 39.45 20.3 L40.35 20.6 36.35 23.3 Q29.4 24.8 24.4 20.15 L23.7 19.3 Q19.0 21.8 16.4 18.8 15.9 18.3 15.8 17.8 L8.0 17.45 6.05 16.65 M98.1 83.65 Q96.65 86.0 96.3 87.65 95.95 89.2 96.45 89.75 95.95 89.2 96.3 87.65 96.65 86.0 98.1 83.65 M93.4 80.65 Q92.7 79.85 92.55 79.35 92.35 79.0 92.7 77.35 92.55 76.5 92.9 75.65 92.55 76.5 92.7 77.35 92.35 79.0 92.55 79.35 92.7 79.85 93.4 80.65 M53.95 31.6 Q56.05 34.6 60.9 34.75 L61.1 34.95 Q60.55 36.9 60.85 38.6 L59.3 38.9 57.55 38.6 57.05 37.75 57.55 38.6 59.3 38.9 60.85 38.6 Q61.7 42.25 66.75 44.05 L66.55 44.25 63.8 45.25 Q55.3 44.4 57.05 37.75 L57.25 36.6 61.1 34.95 57.25 36.6 Q50.0 36.4 48.1 31.1 47.55 30.1 47.2 28.6 L52.45 25.95 52.65 26.1 Q52.4 29.6 53.95 31.6 L52.25 31.95 Q49.65 32.1 48.1 31.1 49.65 32.1 52.25 31.95 L53.95 31.6 M23.7 19.3 L25.8 17.95 23.7 19.3 M15.8 17.8 Q17.3 17.95 19.75 16.15 L20.1 15.95 19.75 16.15 Q17.3 17.95 15.8 17.8 M8.0 17.45 Q9.7 17.15 11.8 14.95 9.7 17.15 8.0 17.45 M12.3 16.15 L14.55 14.95 12.3 16.15 M16.4 18.8 Q18.5 18.65 21.3 16.8 18.5 18.65 16.4 18.8 M103.3 110.6 L102.25 111.1 103.3 110.6 Q103.5 109.75 104.0 108.95 103.5 109.75 103.3 110.6 L104.5 110.1 103.3 110.6"/><path fill="#ffecc1" stroke="none" d="M89.1 69.85 L90.85 67.0 94.15 66.5 96.4 66.2 Q103.0 66.5 100.75 75.15 L99.3 77.0 99.3 76.85 Q95.3 77.0 92.9 75.65 89.8 74.15 89.1 69.85 M107.65 108.25 L108.5 110.75 109.05 112.6 109.3 114.6 Q109.85 121.55 104.75 128.2 L104.6 128.55 103.55 128.55 Q102.7 126.25 102.5 123.75 L102.55 122.55 Q103.1 121.25 105.15 118.9 L106.7 116.9 Q108.7 114.1 109.05 112.6 108.7 114.1 106.7 116.9 L105.15 118.9 Q103.1 121.25 102.55 122.55 L102.75 118.9 104.65 116.4 Q108.5 112.25 108.5 110.75 108.5 112.25 104.65 116.4 L102.75 118.9 Q102.9 116.4 103.5 113.9 L104.5 110.1 104.7 109.95 104.7 109.75 107.65 108.25 M3.0 7.5 Q4.2 6.0 7.5 5.65 L9.0 13.65 9.9 13.45 8.5 14.65 7.65 14.45 3.0 7.5 M20.1 14.3 Q28.05 8.55 29.1 14.1 L29.1 14.15 29.1 14.45 29.3 15.3 26.0 17.8 25.8 17.95 Q22.9 17.45 21.3 16.8 L22.55 15.95 Q26.15 13.45 27.2 13.3 28.9 13.15 29.1 14.1 28.9 13.15 27.2 13.3 26.15 13.45 22.55 15.95 L21.3 16.8 20.1 15.95 Q19.25 15.45 19.4 14.8 L20.1 14.3 M64.2 33.6 Q66.8 34.1 68.2 34.75 71.65 36.25 70.9 38.75 L70.9 38.9 69.5 43.4 66.55 44.25 66.75 44.05 Q61.7 42.25 60.85 38.6 60.55 36.9 61.1 34.95 L64.2 33.6 M96.25 73.5 L97.25 69.7 Q97.6 67.2 96.4 66.2 97.6 67.2 97.25 69.7 L96.25 73.5 M94.15 66.5 Q95.2 66.5 94.85 69.35 L93.8 72.85 92.9 75.65 93.8 72.85 94.85 69.35 Q95.2 66.5 94.15 66.5 M63.35 35.1 Q63.35 34.75 65.75 34.6 L68.2 34.75 65.75 34.6 Q63.35 34.75 63.35 35.1 M70.9 38.75 Q71.3 36.75 66.6 37.1 65.2 37.25 63.1 38.1 L60.85 38.6 63.1 38.1 Q65.2 37.25 66.6 37.1 71.3 36.75 70.9 38.75 M24.6 15.8 Q26.85 14.3 27.9 14.3 L29.1 14.45 27.9 14.3 Q26.85 14.3 24.6 15.8 M20.1 15.95 L22.2 14.3 20.1 15.95 M106.7 116.9 Q108.45 116.1 109.3 114.6 108.45 116.1 106.7 116.9 M105.9 111.6 L103.5 113.9 105.9 111.6"/><path fill="#c8a66a" stroke="none" d="M102.7 93.15 Q102.65 95.15 103.35 96.45 104.05 97.95 105.6 98.6 L105.45 99.3 101.95 101.6 101.45 101.3 101.45 100.45 Q101.8 99.3 103.35 96.45 101.8 99.3 101.45 100.45 L101.45 101.3 Q96.6 97.45 100.3 91.8 L104.1 87.65 Q102.9 90.8 102.7 93.15 101.1 95.3 100.95 95.8 101.1 95.3 102.7 93.15 M52.45 25.95 L47.2 28.6 Q41.3 30.25 37.75 25.6 L36.35 23.3 40.35 20.6 Q41.05 23.8 43.95 24.95 46.75 26.6 52.45 25.95 M37.75 25.6 L38.1 25.6 40.5 25.8 43.95 24.95 40.5 25.8 38.1 25.6 37.75 25.6"/><path fill="#ead5a8" stroke="none" d="M105.85 85.8 L106.35 85.65 107.9 85.5 Q111.55 85.8 107.85 97.8 L105.45 99.3 105.6 98.6 Q104.05 97.95 103.35 96.45 102.65 95.15 102.7 93.15 102.9 90.8 104.1 87.65 L105.85 85.8 M105.3 128.4 L115.7 128.05 Q113.1 130.55 111.0 131.7 104.4 130.7 105.3 128.4 M42.75 18.8 L49.35 18.3 Q53.5 18.8 54.55 22.1 L54.7 23.45 Q54.9 23.95 54.7 24.6 L52.45 25.95 Q46.75 26.6 43.95 24.95 L50.55 22.95 Q52.3 22.8 53.35 22.95 L54.7 23.45 53.35 22.95 Q52.3 22.8 50.55 22.95 L43.95 24.95 Q41.05 23.8 40.35 20.6 L42.75 18.8 M106.35 85.65 Q106.55 87.0 106.35 87.65 106.2 88.5 103.95 91.8 L102.7 93.15 103.95 91.8 Q106.2 88.5 106.35 87.65 106.55 87.0 106.35 85.65 M103.35 96.45 L104.8 94.3 Q107.9 89.65 108.1 87.65 108.45 85.8 107.9 85.5 108.45 85.8 108.1 87.65 107.9 89.65 104.8 94.3 L103.35 96.45 M47.95 21.95 L51.25 21.3 Q53.7 21.1 54.55 22.1 53.7 21.1 51.25 21.3 L47.95 21.95 M45.55 19.65 Q47.45 18.45 48.8 18.3 L49.35 18.3 48.8 18.3 Q47.45 18.45 45.55 19.65"/><path fill="#d2bc8a" stroke="none" d="M104.6 128.55 L104.95 128.55 Q105.15 128.5 105.3 128.4 104.4 130.7 111.0 131.7 105.4 135.05 100.45 131.2 L100.95 128.7 103.55 128.55 104.6 128.55 M73.45 51.9 Q76.25 50.75 74.85 52.7 L71.05 54.9 68.4 56.7 71.05 54.9 Q70.7 56.2 72.4 56.2 72.0 57.05 73.6 57.2 72.55 59.05 75.3 59.2 L71.65 61.85 75.3 59.2 Q74.25 60.35 76.5 60.55 L72.9 63.2 76.5 60.55 Q74.45 62.85 77.9 61.85 L76.7 62.55 74.1 64.05 72.9 63.2 Q71.3 63.35 71.65 61.85 L69.95 59.7 73.6 57.2 69.95 59.7 Q67.85 60.2 69.25 58.2 L72.4 56.2 69.25 58.2 68.4 56.7 Q67.0 57.05 68.25 55.55 L70.0 54.2 73.45 51.9 M65.9 45.9 L64.85 45.9 65.9 45.9 Q65.15 48.55 68.6 50.05 L66.35 52.05 Q60.3 52.55 61.5 49.75 62.95 46.55 63.8 45.25 L66.55 44.25 65.9 45.9"/><path fill="#ece8c6" stroke="none" d="M74.85 52.7 L75.9 53.7 Q78.5 53.05 77.1 55.2 L78.45 57.05 Q80.5 57.05 79.3 59.05 L79.65 61.05 77.9 61.85 Q74.45 62.85 76.5 60.55 74.25 60.35 75.3 59.2 72.55 59.05 73.6 57.2 L77.1 55.2 73.6 57.2 Q72.0 57.05 72.4 56.2 70.7 56.2 71.05 54.9 L74.85 52.7 M78.45 57.05 L75.3 59.2 78.45 57.05 M79.3 59.05 L76.5 60.55 79.3 59.05 M75.9 53.7 L72.4 56.2 75.9 53.7"/><path fill="#5b4d2d" stroke="none" d="M76.7 62.55 L81.7 65.35 76.3 67.5 72.65 69.0 71.25 67.0 70.6 66.2 74.1 64.05 76.7 62.55 M66.35 52.05 L68.6 50.05 68.95 49.9 69.3 51.05 70.0 54.2 68.25 55.55 64.05 58.55 63.35 57.7 62.65 56.9 69.3 51.05 62.65 56.9 62.0 56.05 66.35 52.05 M65.1 56.4 L63.35 57.7 65.1 56.4 M74.95 65.55 L71.25 67.0 74.95 65.55"/><path fill="none" stroke="#000000" stroke-width="0.5" stroke-opacity="0.372549019608" d="M84.0 64.35 L86.4 63.05 M89.1 69.85 L90.85 67.0 M87.4 72.2 L89.1 69.85 M104.95 128.55 Q105.15 128.5 105.3 128.4 M100.95 128.7 L100.95 128.4 6.05 16.65 8.5 14.65 9.9 13.45 M99.3 77.0 L100.75 75.15 M99.3 77.0 L96.0 81.5 M104.1 87.65 L105.85 85.8 M100.3 91.8 L104.1 87.65 M105.45 99.3 L107.85 97.8 M61.1 34.95 L64.2 33.6 M52.45 25.95 L47.2 28.6 M24.4 20.15 L23.7 19.3 M52.45 25.95 L54.7 24.6 M61.1 34.95 L57.25 36.6 M66.55 44.25 L63.8 45.25 M66.55 44.25 L69.5 43.4 M26.0 17.8 L25.8 17.95 23.7 19.3 M29.3 15.3 L26.0 17.8 M40.35 20.6 L42.75 18.8 M36.35 23.3 L40.35 20.6 M15.8 17.8 L19.4 14.8 20.1 14.3 M73.6 57.2 L69.95 59.7 M71.65 61.85 L75.3 59.2 78.45 57.05 M77.1 55.2 L73.6 57.2 M72.4 56.2 L69.25 58.2 M76.5 60.55 L79.3 59.05 M68.4 56.7 L71.05 54.9 74.85 52.7 M72.9 63.2 L76.5 60.55 M72.4 56.2 L75.9 53.7 M104.7 109.95 L104.7 109.75 107.65 108.25 M104.5 110.1 L104.7 109.95 M103.55 128.55 L104.6 128.55 M105.45 99.3 L101.95 101.6 M102.25 111.1 L103.3 110.6 M104.5 110.1 L103.3 110.6 M103.55 128.55 L100.95 128.7"/><path fill="none" stroke="#000000" stroke-width="0.5" stroke-opacity="0.301960784314" d="M86.4 63.05 Q85.55 63.35 84.65 63.85 84.15 64.05 84.0 64.35 L82.05 65.05 M87.8 63.35 Q87.25 63.05 86.55 63.05 L86.4 63.05 M79.65 61.05 L82.6 59.2 84.5 61.2 86.55 63.05 M90.85 67.0 Q89.85 63.85 87.8 63.35 M90.85 67.0 L94.15 66.5 96.4 66.2 Q103.0 66.5 100.75 75.15 L102.1 75.0 Q103.15 75.0 103.85 75.35 108.3 76.85 105.85 85.8 L106.35 85.65 107.9 85.5 Q111.55 85.8 107.85 97.8 L108.4 98.1 109.25 98.45 109.75 99.1 M110.3 99.6 Q111.15 102.3 107.65 108.25 L108.5 110.75 109.05 112.6 109.3 114.6 Q109.85 121.55 104.75 128.2 L104.6 128.55 104.95 128.55 M105.3 128.4 L115.7 128.05 Q113.1 130.55 111.0 131.7 105.4 135.05 100.45 131.2 L100.95 128.7 M6.05 16.65 L5.4 16.45 Q2.95 12.8 2.45 10.3 2.25 8.65 3.0 7.5 4.2 6.0 7.5 5.65 L9.0 13.65 9.9 13.45 10.05 13.45 Q13.85 11.8 16.65 12.15 18.4 12.5 19.25 13.45 L20.1 14.3 Q28.05 8.55 29.1 14.1 M29.1 14.15 L29.1 14.45 29.3 15.3 Q42.1 12.15 42.75 18.3 L42.75 18.8 49.35 18.3 Q53.5 18.8 54.55 22.1 L54.7 23.45 Q54.9 23.95 54.7 24.6 62.85 23.8 64.35 28.1 65.05 30.45 64.2 33.6 66.8 34.1 68.2 34.75 71.65 36.25 70.9 38.75 L70.9 38.9 69.5 43.4 Q73.35 42.4 71.75 46.4 L70.85 48.25 73.35 45.9 73.95 47.05 74.65 48.4 75.7 50.55 73.45 51.9 Q76.25 50.75 74.85 52.7 L75.9 53.7 Q78.5 53.05 77.1 55.2 L78.45 57.05 Q80.5 57.05 79.3 59.05 L79.65 61.05 77.9 61.85 76.7 62.55 M81.7 65.35 L82.05 65.05 M96.0 81.5 Q93.95 87.05 96.45 89.75 M93.4 80.65 L96.0 81.5 M97.7 90.95 L100.3 91.8 M87.4 72.2 Q88.2 78.15 93.4 80.65 M47.2 28.6 Q47.55 30.1 48.1 31.1 M47.2 28.6 Q41.3 30.25 37.75 25.6 L36.35 23.3 Q29.4 24.8 24.4 20.15 M23.7 19.3 Q19.0 21.8 16.4 18.8 15.9 18.3 15.8 17.8 L8.0 17.45 6.05 16.65 M57.25 36.6 L57.05 37.75 Q55.3 44.4 63.8 45.25 62.95 46.55 61.5 49.75 60.3 52.55 66.35 52.05 L68.6 50.05 68.95 49.9 70.85 48.25 M57.25 36.6 Q50.0 36.4 48.1 31.1 M69.95 59.7 L71.65 61.85 Q71.3 63.35 72.9 63.2 M69.25 58.2 Q67.85 60.2 69.95 59.7 M62.65 56.9 L63.35 57.7 64.05 58.55 68.25 55.55 70.0 54.2 73.45 51.9 M68.4 56.7 L69.25 58.2 M68.25 55.55 Q67.0 57.05 68.4 56.7 M76.3 67.5 L72.65 69.0 71.25 67.0 70.6 66.2 74.1 64.05 72.9 63.2 M81.7 65.35 L76.3 67.5 Q78.55 75.35 87.4 72.2 M74.1 64.05 L76.7 62.55 M66.35 52.05 L62.0 56.05 62.65 56.9 M101.95 101.6 Q97.6 109.75 101.25 110.95 L102.25 111.1 M101.45 101.3 L101.95 101.6 M101.45 101.3 Q96.6 97.45 100.3 91.8 M99.4 123.9 Q99.75 126.4 100.95 128.4 M99.95 117.95 Q99.6 118.8 99.6 119.75 L99.4 123.9 M99.95 117.9 Q100.65 114.75 102.25 111.1"/><path fill="none" stroke="#000000" stroke-width="0.5" stroke-opacity="0.180392156863" d="M85.85 69.5 Q87.9 66.2 88.3 64.7 88.3 63.55 87.8 63.35 M85.85 69.5 L84.95 70.5 84.95 71.5 M109.75 99.1 L110.3 99.6 110.1 100.1 Q109.75 101.95 107.85 104.25 L105.2 106.75 Q104.35 107.95 104.0 108.95 M29.1 14.1 L29.1 14.15 M92.9 75.65 L93.8 72.85 94.85 69.35 Q95.2 66.5 94.15 66.5 M96.4 66.2 Q97.6 67.2 97.25 69.7 L96.25 73.5 M96.45 89.75 Q95.95 89.2 96.3 87.65 96.65 86.0 98.1 83.65 M92.9 75.65 Q92.55 76.5 92.7 77.35 92.35 79.0 92.55 79.35 92.7 79.85 93.4 80.65 M99.3 84.5 L99.8 83.3 Q102.05 79.0 102.25 77.15 102.4 76.0 102.1 75.0 M97.7 90.95 Q97.5 90.95 97.5 90.8 L97.35 90.8 97.5 88.95 Q97.85 87.8 99.3 84.5 M96.5 89.8 L96.45 89.75 M102.7 93.15 Q101.1 95.3 100.95 95.8 M102.7 93.15 L103.95 91.8 Q106.2 88.5 106.35 87.65 106.55 87.0 106.35 85.65 M103.85 75.35 L104.15 77.0 Q104.0 79.15 102.95 80.65 M107.9 85.5 Q108.45 85.8 108.1 87.65 107.9 89.65 104.8 94.3 L103.35 96.45 Q101.8 99.3 101.45 100.45 L101.45 101.3 M49.35 18.3 L48.8 18.3 Q47.45 18.45 45.55 19.65 M54.55 22.1 Q53.7 21.1 51.25 21.3 L47.95 21.95 M43.95 24.95 L50.55 22.95 Q52.3 22.8 53.35 22.95 L54.7 23.45 M53.95 31.6 L57.25 30.95 M64.35 28.1 Q63.2 26.8 60.45 26.95 58.35 27.1 56.4 27.8 M48.1 31.1 Q49.65 32.1 52.25 31.95 L53.95 31.6 M57.05 37.75 L57.55 38.6 59.3 38.9 60.85 38.6 63.1 38.1 Q65.2 37.25 66.6 37.1 71.3 36.75 70.9 38.75 M68.2 34.75 L65.75 34.6 Q63.35 34.75 63.35 35.1 M64.85 45.9 L65.9 45.9 69.15 45.25 Q71.95 45.05 71.75 46.4 M29.1 14.45 L27.9 14.3 Q26.85 14.3 24.6 15.8 M24.4 20.15 L26.1 19.95 28.4 19.65 30.65 18.8 34.65 17.65 M30.65 20.3 L31.15 20.45 34.95 19.3 Q38.25 18.3 40.0 18.15 L42.75 18.3 M29.1 14.1 Q28.9 13.15 27.2 13.3 26.15 13.45 22.55 15.95 L21.3 16.8 Q18.5 18.65 16.4 18.8 M43.95 24.95 L40.5 25.8 38.1 25.6 37.75 25.6 M16.65 12.15 L15.6 12.3 Q14.4 12.3 12.15 14.8 11.8 14.8 11.8 14.95 9.7 17.15 8.0 17.45 M14.55 14.95 L15.6 14.45 Q17.0 13.45 17.85 13.45 L19.25 13.45 M20.1 15.95 L19.75 16.15 Q17.3 17.95 15.8 17.8 M14.55 14.95 L12.3 16.15 M22.2 14.3 L20.1 15.95 M69.3 51.05 L62.65 56.9 M63.35 57.7 L65.1 56.4 M71.25 67.0 L74.95 65.55 M74.65 48.4 L70.85 51.2 M73.95 47.05 L69.3 51.05 M103.15 106.1 L106.15 102.8 108.4 99.6 108.4 98.1 M109.25 98.45 Q109.1 100.3 108.4 101.3 106.8 102.95 106.15 102.8 M102.55 122.55 Q103.1 121.25 105.15 118.9 L106.7 116.9 Q108.7 114.1 109.05 112.6 M108.5 110.75 Q108.5 112.25 104.65 116.4 L102.75 118.9 99.95 122.25 99.4 123.9 M102.55 122.55 L102.5 123.75 M109.3 114.6 Q108.45 116.1 106.7 116.9 M101.25 110.95 L100.9 109.95 102.45 106.95 103.15 106.1 M103.3 110.6 Q103.5 109.75 104.0 108.95 M99.95 117.9 Q100.5 116.6 102.2 114.9 L103.5 113.9 105.9 111.6 M99.6 119.75 Q99.45 119.4 99.6 118.75 L99.95 117.95 99.95 117.9 M84.5 61.2 L80.0 63.05"/><path fill="none" stroke="#000000" stroke-width="0.5" stroke-opacity="0.572549019608" d="M97.35 90.8 L96.5 89.8"/></g><g id="c11"><g><use transform="matrix(1.0,0.0,0.0,1.0,0.0,0.0)" xlink:href="#c10"/></g></g><g id="c12"><g><use transform="matrix(1.0,0.0,0.0,1.0,6.3,53.35)" xlink:href="#c9"/></g><g><use transform="matrix(-0.146041870117,0.0488891601562,0.0616760253906,0.140441894531,33.05,63.95)" xlink:href="#c11"/></g><g><use transform="matrix(0.141098022461,-0.0378112792969,0.111373901367,0.225646972656,27.2,74.05)" filter="url(#filter12)" xlink:href="#c6"/></g></g><filter id="filter12"><feColorMatrix in="SourceGraphic" type="matrix" values="1.0 0.0 0.0 0.0 0.0 0.0 1.0 0.0 0.0 0.0 0.0 0.0 1.0 0.0 0.0 0.0 0.0 0.0 0.23046875 0.0" result="cxform"/><feComposite operator="in" in2="SourceGraphic" result="color-xform"/></filter></defs><g><g><use transform="matrix(1.0,0.0,0.0,1.0,0.0,0.0)" xlink:href="#c1"/></g><g><use transform="matrix(1.15496826172,0.0,0.0,1.15496826172,-1.5,-57.15)" xlink:href="#c12"/></g></g></svg>