<?xml version='1.0' encoding='UTF-8'?>
<svg xmlns:xlink="http://www.w3.org/1999/xlink" xmlns="http://www.w3.org/2000/svg" version="1.1" width="60px" height="60px" viewBox="0.0 0.0 60.0 60.0"><defs><g id="c1"><path fill="#000000" fill-opacity="0.00392156862745" d="M0.0 0.0 L60.0 0.0 60.0 60.0 0.0 60.0 0.0 0.0"/></g><g id="c2"><path fill="none" stroke="#000000" stroke-width="1.0" stroke-opacity="0.301960784314" d="M22.3 0.35 Q26.6 -1.0 28.5 3.05 L41.4 31.7 Q43.1 35.4 39.9 36.85 L38.15 37.65 19.65 43.65 Q17.05 44.5 15.35 43.3 14.2 42.55 13.5 40.9 L0.55 12.25 Q-0.6 9.75 0.6 8.25 1.15 7.55 2.2 7.05 2.85 6.6 3.8 6.3 L22.3 0.35"/><path fill="#300525" stroke="none" d="M25.55 0.9 Q26.9 1.6 27.8 3.55 L40.7 32.15 Q42.6 36.3 38.3 37.65 L23.3 42.5 13.15 21.4 4.6 20.9 0.7 12.25 Q-0.45 9.75 0.75 8.25 L29.8 9.75 25.55 0.9 M20.1 43.55 L19.8 43.65 Q17.15 44.45 15.5 43.3 L20.1 43.55"/><path fill="#630a4c" stroke="none" d="M23.3 42.5 L20.1 43.55 15.5 43.3 Q14.35 42.55 13.65 40.9 L4.6 20.9 13.15 21.4 23.3 42.5 M0.75 8.25 Q1.45 7.3 3.1 6.75 L21.65 0.8 25.55 0.9 29.8 9.75 0.75 8.25"/><path fill="none" stroke="#000000" stroke-width="0.5" stroke-opacity="0.301960784314" d="M25.55 0.9 Q26.9 1.6 27.8 3.55 L40.7 32.15 Q42.6 36.3 38.3 37.65 L23.3 42.5 20.1 43.55 19.8 43.65 Q17.15 44.45 15.5 43.3 14.35 42.55 13.65 40.9 L4.6 20.9 0.7 12.25 Q-0.45 9.75 0.75 8.25 1.45 7.3 3.1 6.75 L21.65 0.8 25.55 0.9"/><path fill="#9d147b" stroke="none" d="M14.2 40.5 L1.35 11.8 Q-0.5 7.75 3.8 6.35 L22.3 0.4 Q26.55 -1.0 28.45 3.1 L41.35 31.7 Q43.25 35.85 38.9 37.25 L20.4 43.2 Q16.1 44.55 14.2 40.5"/><path fill="none" stroke="#000000" stroke-width="0.5" stroke-opacity="0.301960784314" d="M14.2 40.5 L1.35 11.8 Q-0.5 7.75 3.8 6.35 L22.3 0.4 Q26.55 -1.0 28.45 3.1 L41.35 31.7 Q43.25 35.85 38.9 37.25 L20.4 43.2 Q16.1 44.55 14.2 40.5"/><path fill="#fcf2cf" stroke="none" d="M9.15 13.6 Q9.8 12.8 9.55 11.6 L9.1 10.55 22.05 6.35 Q24.9 5.45 26.25 7.85 L26.5 8.3 35.8 29.0 35.95 29.35 Q34.75 29.3 34.1 30.1 33.45 30.9 33.7 32.1 L34.0 32.9 20.65 37.2 Q18.8 37.8 17.65 37.0 16.8 36.4 16.3 35.2 L6.95 14.6 6.8 14.4 7.1 14.4 Q8.4 14.45 9.15 13.6"/><path fill="#c47fad" stroke="none" d="M8.25 23.65 L3.35 12.8 Q1.65 9.1 5.5 7.85 L22.25 2.5 Q26.05 1.25 27.75 4.95 L28.25 6.1 35.55 22.3 39.35 30.75 Q41.1 34.5 37.2 35.7 L20.45 41.1 Q16.8 42.25 15.2 39.0 L15.0 38.6 8.25 23.65 M9.15 13.6 Q8.4 14.45 7.1 14.4 L6.8 14.4 6.95 14.6 16.3 35.2 Q16.8 36.4 17.65 37.0 18.8 37.8 20.65 37.2 L34.0 32.9 33.7 32.1 Q33.45 30.9 34.1 30.1 34.75 29.3 35.95 29.35 L35.8 29.0 26.5 8.3 26.25 7.85 Q24.9 5.45 22.05 6.35 L9.1 10.55 9.55 11.6 Q9.8 12.8 9.15 13.6"/><path fill="none" stroke="#ffcc00" stroke-width="1.0" stroke-opacity="0.749019607843" d="M8.25 23.65 L3.35 12.8 Q1.65 9.1 5.5 7.85 L22.25 2.5 Q26.05 1.25 27.75 4.95 L28.25 6.1 M35.55 22.3 L39.35 30.75 Q41.1 34.5 37.2 35.7 L20.45 41.1 Q16.8 42.25 15.2 39.0 L15.0 38.6"/><path fill="none" stroke="#bf9900" stroke-width="1.0" stroke-opacity="0.749019607843" d="M28.25 6.1 L35.55 22.3 M15.0 38.6 L8.25 23.65"/><path fill="none" stroke="#f0b92b" stroke-width="0.5" d="M9.15 13.6 Q9.8 12.8 9.55 11.6 L9.1 10.55 22.05 6.35 Q24.9 5.45 26.25 7.85 L26.5 8.3 35.8 29.0 35.95 29.35 Q34.75 29.3 34.1 30.1 33.45 30.9 33.7 32.1 L34.0 32.9 20.65 37.2 Q18.8 37.8 17.65 37.0 16.8 36.4 16.3 35.2 L6.95 14.6 6.8 14.4 7.1 14.4 Q8.4 14.45 9.15 13.6"/></g><g id="c3"><path fill="#7fdbfe" stroke="none" d="M10.75 4.9 Q10.75 4.6 10.9 4.35 11.25 3.45 11.95 2.75 13.3 1.5 14.35 2.1 15.4 2.7 14.95 4.45 14.7 5.4 14.1 6.15 L13.75 6.5 Q13.1 7.15 12.35 7.35 L11.4 7.2 Q10.95 6.9 10.75 6.4 10.5 5.75 10.75 4.9 M7.5 5.9 Q7.0 5.85 6.6 5.5 6.05 5.0 5.8 4.15 L5.7 3.6 Q5.55 2.65 5.8 1.7 6.25 0.0 7.5 0.0 L7.6 0.0 Q8.85 0.0 9.3 1.7 9.55 2.65 9.4 3.6 L9.3 4.15 8.5 5.5 7.6 5.9 7.5 5.9 M4.35 4.9 Q4.6 5.75 4.35 6.4 L3.7 7.2 2.75 7.35 Q2.0 7.15 1.35 6.5 L1.0 6.15 Q0.4 5.4 0.15 4.45 -0.3 2.7 0.75 2.1 1.8 1.5 3.15 2.75 3.85 3.45 4.2 4.35 L4.35 4.9 M5.5 13.7 Q4.45 13.9 3.65 12.95 2.75 12.0 3.2 10.25 3.7 8.5 5.25 7.6 6.4 6.9 7.55 7.0 8.75 6.9 9.9 7.6 11.45 8.5 11.95 10.25 12.35 12.0 11.5 12.95 10.7 13.9 9.65 13.7 8.55 13.5 7.55 12.6 6.55 13.5 5.5 13.7"/></g><g id="c4"><g><use transform="matrix(1.0,0.0,0.0,1.0,0.0,0.0)" xlink:href="#c3"/></g></g><radialGradient gradientUnits="userSpaceOnUse" r="819.2" cx="0" cy="0" spreadMethod="pad" gradientTransform="matrix(0.0914459228516,0.0,0.0,0.0914459228516,0.6,3.4)" id="gradient1"><stop offset="0.0" stop-color="#ffffff"/><stop offset="1.0" stop-color="#ffffff" stop-opacity="0.0"/></radialGradient><g id="c5"><path stroke="none" fill="url(#gradient1)" d="M36.65 -54.65 Q60.05 -42.0 69.75 -17.95 80.55 8.9 68.0 34.1 55.45 59.35 26.8 68.2 -1.8 77.05 -29.7 64.3 -57.6 51.6 -68.45 24.75 -79.3 -2.05 -66.75 -27.25 L-66.7 -27.3 Q-54.1 -52.5 -25.5 -61.4 3.1 -70.2 31.0 -57.5 L36.65 -54.65"/></g><g id="c6"><g><use transform="matrix(1.0,0.0,0.0,1.0,0.0,0.0)" xlink:href="#c5"/></g></g><radialGradient gradientUnits="userSpaceOnUse" r="819.2" cx="0" cy="0" spreadMethod="pad" gradientTransform="matrix(0.209197998047,0.0,0.0,0.177108764648,67.15,107.2)" id="gradient2"><stop offset="0.356862745098" stop-color="#ffffff"/><stop offset="0.670588235294" stop-opacity="0.0"/></radialGradient><g id="c7"><path fill="none" stroke-linejoin="round" stroke-linecap="round" stroke="url(#gradient2)" stroke-width="0.5" d="M136.55 165.8 L68.6 106.0 68.4 106.0 118.25 201.5 M68.2 105.7 L68.25 105.8 68.25 105.75 68.2 105.7 0.0 45.7 M68.25 105.8 L68.3 105.85 68.3 105.8 68.25 105.75 49.95 0.05 M0.05 97.7 L68.15 105.95 68.25 105.85 68.25 105.8 M68.3 105.85 L68.25 105.85 68.3 106.0 68.3 105.85 68.3 105.8 68.35 105.8 68.3 105.8 86.6 18.35 M50.0 193.2 L68.3 106.0 68.15 105.95 18.25 151.55 M68.4 106.0 L68.3 106.0 86.55 211.5 M68.4 106.0 L68.3 105.85 M68.6 106.0 L68.35 105.8 118.25 60.15 M136.6 114.25 L68.6 106.0 M68.2 105.7 L18.25 10.05"/></g><g id="c8"><g><use transform="matrix(1.0,0.0,0.0,1.0,0.0,0.0)" xlink:href="#c7"/></g></g><linearGradient gradientUnits="userSpaceOnUse" x1="-819.2" x2="819.2" spreadMethod="pad" gradientTransform="matrix(-0.00581359863281,0.00555419921875,0.00244140625,0.00254821777344,24.1,24.9)" id="gradient3"><stop offset="0.0078431372549" stop-color="#11dedc"/><stop offset="0.596078431373" stop-color="#0ea5a5"/><stop offset="0.964705882353" stop-color="#11dedc"/></linearGradient><radialGradient gradientUnits="userSpaceOnUse" r="819.2" cx="0" cy="0" spreadMethod="pad" gradientTransform="matrix(-0.0104522705078,0.00997924804688,0.0102844238281,0.0107879638672,29.25,23.9)" id="gradient4"><stop offset="0.00392156862745" stop-color="#05726e"/><stop offset="0.854901960784" stop-color="#045150"/><stop offset="1.0" stop-color="#11dedc"/></radialGradient><radialGradient gradientUnits="userSpaceOnUse" r="819.2" cx="0" cy="0" spreadMethod="pad" gradientTransform="matrix(-0.0104522705078,0.00997924804688,0.0102844238281,0.0107879638672,29.25,23.9)" id="gradient5"><stop offset="0.00392156862745" stop-color="#0eadad"/><stop offset="0.929411764706" stop-color="#0a8582"/></radialGradient><radialGradient gradientUnits="userSpaceOnUse" r="819.2" cx="0" cy="0" spreadMethod="pad" gradientTransform="matrix(-0.0111541748047,0.0105438232422,0.0105438232422,0.0111541748047,24.9,20.7)" id="gradient6"><stop offset="0.0196078431373" stop-color="#eaf2ed" stop-opacity="0.941176470588"/><stop offset="0.176470588235" stop-color="#dae9e2" stop-opacity="0.611764705882"/><stop offset="0.427450980392" stop-color="#b4d2c3" stop-opacity="0.0313725490196"/><stop offset="0.713725490196" stop-color="#afcfbf" stop-opacity="0.0313725490196"/><stop offset="0.929411764706" stop-color="#e2eee9" stop-opacity="0.662745098039"/></radialGradient><g id="c9"><path stroke="none" fill="url(#gradient3)" d="M18.15 28.3 Q19.05 29.2 21.4 28.75 23.7 28.25 26.4 26.55 27.8 25.7 28.45 24.7 29.15 23.55 29.05 22.35 28.8 20.3 27.7 19.2 L27.4 18.9 27.0 18.7 Q26.15 18.4 26.2 19.8 26.3 21.15 24.6 22.85 22.9 24.55 20.7 25.45 18.45 26.25 18.15 27.0 17.85 27.65 17.95 27.85 L18.15 28.3"/><path stroke="none" fill="url(#gradient4)" d="M27.7 19.2 Q28.8 20.3 29.05 22.35 29.15 23.55 28.45 24.7 27.8 25.7 26.4 26.55 23.7 28.25 21.4 28.75 19.05 29.2 18.15 28.3 L19.35 29.9 Q21.35 32.05 24.25 32.15 27.2 32.25 29.25 30.25 31.3 28.3 31.3 25.4 31.35 22.5 29.35 20.35 L27.75 19.1 27.7 19.2"/><path stroke="none" fill="url(#gradient5)" d="M27.7 19.2 L27.75 19.1 27.4 18.9 27.7 19.2"/><path stroke="none" fill="url(#gradient6)" d="M24.5 17.8 Q23.8 17.65 23.3 17.0 L23.0 16.6 22.55 16.0 21.1 14.95 Q20.05 14.35 18.8 14.4 16.6 14.3 15.05 15.8 13.45 17.25 13.45 19.45 13.45 20.7 13.9 21.8 L14.9 23.25 15.7 23.95 Q16.8 24.55 16.75 25.6 16.8 27.2 17.4 28.6 18.0 29.75 18.95 30.75 21.15 33.1 24.3 33.15 27.5 33.3 29.8 31.15 32.1 28.95 32.1 25.75 32.15 22.6 29.95 20.25 29.0 19.25 27.9 18.7 26.6 17.95 25.0 17.8 L24.5 17.8"/><path fill="none" stroke="#382510" stroke-width="0.6" stroke-opacity="0.301960784314" d="M24.5 17.8 Q23.8 17.65 23.3 17.0 L23.0 16.6 22.55 16.0 21.1 14.95 Q20.05 14.35 18.8 14.4 16.6 14.3 15.05 15.8 13.45 17.25 13.45 19.45 13.45 20.7 13.9 21.8 L14.9 23.25 15.7 23.95 Q16.8 24.55 16.75 25.6 16.8 27.2 17.4 28.6 18.0 29.75 18.95 30.75 21.15 33.1 24.3 33.15 27.5 33.3 29.8 31.15 32.1 28.95 32.1 25.75 32.15 22.6 29.95 20.25 29.0 19.25 27.9 18.7 26.6 17.95 25.0 17.8 L24.55 17.8 24.5 17.8 25.0 17.8"/><path fill="#5ca09c" stroke="none" d="M27.85 30.25 L28.3 30.1 28.5 29.65 28.25 29.2 27.8 28.9 27.35 29.05 27.15 29.5 27.35 30.05 27.85 30.25 M26.1 30.0 L26.4 29.2 Q26.4 28.75 26.05 28.4 25.7 28.05 25.2 28.0 L24.4 28.25 Q24.1 28.55 24.15 29.0 24.15 29.5 24.5 29.85 24.85 30.2 25.35 30.2 25.8 30.3 26.1 30.0"/><path fill="#f9c347" stroke="none" d="M13.15 16.6 L13.65 17.1 13.95 17.5 14.0 16.55 Q13.45 16.2 13.15 16.4 L13.15 16.6 M12.8 21.15 L12.8 21.2 12.85 21.2 12.8 21.15 M14.5 21.0 L14.55 21.0 14.5 21.0"/><path fill="#996b0f" stroke="none" d="M13.95 17.5 L13.65 17.1 13.15 16.6 12.9 17.8 13.5 18.75 14.15 19.5 13.95 17.55 13.95 17.5"/><path fill="#ad7910" stroke="none" d="M14.15 19.5 L13.5 18.75 12.9 17.8 12.75 19.4 12.7 19.45 Q12.75 20.2 14.5 21.0 L13.9 20.85 15.2 21.55 14.65 22.45 14.05 22.2 13.1 22.6 13.0 20.95 12.85 21.2 12.8 21.2 11.45 21.2 12.2 22.05 11.65 23.15 13.2 22.95 13.95 24.1 14.85 23.15 16.0 23.2 15.25 22.1 15.9 21.2 14.55 21.05 14.55 21.0 14.15 19.55 14.15 19.5 M14.5 21.0 L14.55 21.0 14.5 21.0"/><path fill="#bd8812" stroke="none" d="M12.7 19.45 L12.8 21.15 12.85 21.2 13.0 20.95 13.25 20.85 13.6 20.85 13.9 20.85 14.5 21.0 Q12.75 20.2 12.7 19.45"/><path fill="#d0950d" stroke="none" d="M13.0 20.95 L13.1 22.6 14.05 22.2 14.65 22.45 15.2 21.55 13.9 20.85 13.6 20.85 13.25 20.85 13.0 20.95"/><path fill="none" stroke="#21150b" stroke-width="0.5" stroke-opacity="0.43137254902" d="M13.95 17.5 L13.65 17.1 13.15 16.6 13.15 16.4 Q13.45 16.2 14.0 16.55 L13.95 17.5 13.95 17.55 14.15 19.5 M12.9 17.8 L13.15 16.6 M12.9 17.8 L12.75 19.4 12.7 19.45 12.8 21.15 12.8 21.2 11.45 21.2 12.2 22.05 11.65 23.15 13.2 22.95 13.95 24.1 14.85 23.15 16.0 23.2 15.25 22.1 15.9 21.2 14.55 21.05 14.55 21.0 14.15 19.55 14.15 19.5 M12.85 21.2 L13.0 20.95 13.25 20.85 13.6 20.85 13.9 20.85 14.5 21.0 14.55 21.0 14.5 21.0 M12.8 21.15 L12.85 21.2"/><path fill="none" stroke="#21140a" stroke-width="0.5" stroke-opacity="0.211764705882" d="M14.15 19.5 L13.5 18.75 12.9 17.8 M14.5 21.0 Q12.75 20.2 12.7 19.45"/><path fill="#382510" fill-opacity="0.2" d="M14.85 20.75 Q16.05 20.35 17.25 19.2 18.45 18.05 18.95 16.85 19.45 15.7 18.9 15.15 L17.2 15.05 Q16.0 15.5 14.8 16.65 13.6 17.8 13.1 18.95 12.6 20.2 13.1 20.7 L14.85 20.75"/><path fill="#ae9a66" stroke="none" d="M14.5 17.2 L12.9 16.0 Q12.6 16.25 12.55 16.65 L12.6 17.3 13.7 16.95 13.85 17.15 14.15 17.2 14.5 17.2 M16.15 13.05 Q15.35 13.05 14.9 13.4 L15.7 14.05 15.75 14.05 16.6 14.2 16.6 14.0 16.55 14.0 16.55 13.95 16.55 13.85 16.5 13.75 16.45 13.7 16.45 13.65 16.4 13.6 16.35 13.55 16.1 13.1 16.1 13.05 16.1 13.1 16.15 13.05"/><path fill="#996b0f" stroke="none" d="M13.85 17.15 L13.7 16.95 12.6 17.3 12.55 17.45 12.6 17.65 12.65 17.65 12.6 17.7 13.45 17.85 14.3 17.75 14.6 17.65 15.0 17.45 16.15 16.55 16.3 16.4 16.35 16.4 17.0 15.35 17.1 15.05 17.35 14.35 17.35 13.85 17.25 13.25 17.05 12.9 16.35 13.0 16.3 13.05 16.25 13.1 16.1 13.1 16.4 13.5 16.4 13.6 16.45 13.65 16.45 13.7 16.5 13.75 16.55 13.85 16.55 13.95 16.55 14.0 16.6 14.0 16.6 14.2 16.6 14.3 16.6 14.35 16.65 14.4 16.6 14.4 16.6 14.55 16.6 14.95 16.4 15.5 16.25 15.95 16.1 16.15 16.05 16.15 15.5 16.75 15.3 16.9 15.2 16.95 14.85 17.1 14.15 17.2 13.85 17.15 M12.6 17.3 L12.6 17.35 12.6 17.45 12.55 17.45 12.6 17.45 12.6 17.35 12.6 17.3"/><path fill="#cfc78c" stroke="none" d="M14.5 17.2 L14.15 17.2 13.85 17.15 14.15 17.2 14.85 17.1 14.5 17.2 M17.05 12.95 L17.05 12.9 17.05 12.95 M16.25 13.1 L16.15 13.05 16.1 13.1 16.25 13.1 M16.6 14.3 L16.65 14.4 16.6 14.35 16.6 14.3 M16.1 13.1 L16.35 13.55 16.4 13.6 16.4 13.5 16.1 13.1 M16.5 13.75 L16.55 13.85 16.55 13.95 16.55 13.85 16.5 13.75 M16.6 14.35 L16.65 14.4 16.6 14.35"/><path fill="#bd8812" stroke="none" d="M13.35 18.8 L13.35 18.85 15.3 19.0 15.65 18.8 Q14.8 18.5 15.0 17.45 L14.6 17.65 14.3 17.75 13.45 17.85 13.35 18.8 M18.7 13.85 L18.25 13.25 Q17.8 12.9 17.15 12.9 L17.1 12.9 17.15 12.9 17.05 12.95 17.05 12.9 17.25 13.25 17.35 13.85 Q18.0 13.65 18.7 13.85"/><path fill="#8d6d3f" stroke="none" d="M12.6 17.7 L12.65 17.65 12.6 17.65 12.6 17.7 M16.1 13.05 L16.1 13.1 16.1 13.05"/><path fill="#ad7910" stroke="none" d="M12.6 17.65 Q12.75 18.45 13.25 18.8 L13.35 18.8 13.45 17.85 12.6 17.7 12.6 17.65"/><path fill="#cc951a" stroke="none" d="M15.65 18.8 Q16.75 18.55 17.4 17.55 L18.0 17.0 18.55 15.85 18.9 14.8 18.7 13.85 Q18.0 13.65 17.35 13.85 L17.35 14.35 17.1 15.05 17.0 15.35 16.35 16.4 16.3 16.4 16.15 16.55 15.0 17.45 Q14.8 18.5 15.65 18.8 M18.55 14.6 L18.55 14.85 18.35 15.0 18.2 14.95 18.1 14.7 18.05 14.5 18.25 14.3 18.4 14.4 18.55 14.6 M17.4 16.8 L17.3 16.6 17.4 16.2 17.7 15.9 18.0 15.9 18.2 16.15 18.05 16.55 17.75 16.8 17.4 16.8 M17.0 15.35 Q18.15 15.05 18.55 15.85 18.15 15.05 17.0 15.35 M16.3 16.4 L17.4 17.55 16.3 16.4"/><path fill="#f0c106" stroke="none" d="M18.55 14.6 L18.4 14.4 18.25 14.3 18.05 14.5 18.1 14.7 18.2 14.95 18.35 15.0 18.55 14.85 18.55 14.6 M17.4 16.8 L17.75 16.8 18.05 16.55 18.2 16.15 18.0 15.9 17.7 15.9 17.4 16.2 17.3 16.6 17.4 16.8"/><path fill="none" stroke="#382510" stroke-width="0.5" stroke-opacity="0.501960784314" d="M12.6 17.3 L12.55 16.65 Q12.6 16.25 12.9 16.0 L14.5 17.2 14.15 17.2 13.85 17.15 M12.6 17.3 L12.55 17.45 M12.6 17.65 Q12.75 18.45 13.25 18.8 L13.35 18.8 13.35 18.85 15.3 19.0 15.65 18.8 Q16.75 18.55 17.4 17.55 L18.0 17.0 18.55 15.85 18.9 14.8 18.7 13.85 18.25 13.25 Q17.8 12.9 17.15 12.9 L17.1 12.9 17.15 12.9 17.05 12.95 17.05 12.9 16.35 13.0 16.3 13.05 16.25 13.1 16.15 13.05 Q15.35 13.05 14.9 13.4 L15.7 14.05 M15.75 14.05 L16.6 14.2 M16.6 14.3 L16.65 14.4 16.6 14.4 16.6 14.55 16.6 14.95 M16.1 16.15 L16.05 16.15 15.5 16.75 M14.85 17.1 L14.5 17.2 M12.65 17.65 L12.6 17.65 M13.45 17.85 L13.35 18.8 M16.35 13.55 L16.4 13.6 16.45 13.65 16.45 13.7 16.5 13.75 16.55 13.85 16.55 13.95 16.55 14.0 16.6 14.0 M16.1 13.05 L16.1 13.1 16.15 13.05 M15.0 17.45 Q14.8 18.5 15.65 18.8 M17.05 12.9 L17.05 12.95 M17.35 13.85 Q18.0 13.65 18.7 13.85 M16.65 14.4 L16.6 14.35 M17.4 17.55 L16.3 16.4 M18.55 15.85 Q18.15 15.05 17.0 15.35"/><path fill="none" stroke="#382510" stroke-width="0.5" stroke-opacity="0.501960784314" d="M12.55 17.45 L12.6 17.65 M12.55 17.45 L12.6 17.45 12.6 17.35 12.6 17.3"/><path fill="#e2ebd0" stroke="none" d="M17.3 13.95 Q16.75 12.95 16.3 13.0 L15.55 13.95 Q16.7 14.25 16.8 15.5 L17.2 14.85 17.35 14.1 17.35 14.05 17.3 13.95"/><path fill="#b9be9c" stroke="none" d="M16.8 15.5 Q16.7 14.25 15.55 13.95 L16.3 13.0 Q16.75 12.95 17.3 13.95 17.05 12.25 15.45 12.7 L12.3 15.2 Q11.4 17.05 13.3 17.55 L14.05 17.65 Q12.85 17.2 13.1 16.7 L13.9 16.1 Q14.65 16.9 15.55 16.8 L16.0 16.45 16.8 15.5"/><path fill="#959966" stroke="none" d="M15.55 16.8 Q14.65 16.9 13.9 16.1 L13.1 16.7 Q12.85 17.2 14.05 17.65 L14.35 17.55 15.55 16.8"/><path fill="none" stroke="#ffffff" stroke-width="0.5" stroke-opacity="0.301960784314" d="M17.3 13.95 L17.35 14.05 17.35 14.1 17.2 14.85 16.8 15.5 16.0 16.45 15.55 16.8 14.35 17.55 14.05 17.65 13.3 17.55 Q11.4 17.05 12.3 15.2 L15.45 12.7 Q17.05 12.25 17.3 13.95"/><path fill="#e9f0e4" stroke="none" d="M16.3 12.8 L15.1 12.75 Q14.25 13.05 13.45 13.85 12.6 14.65 12.3 15.45 11.95 16.25 12.3 16.55 L13.2 16.7 13.45 16.65 13.9 16.4 14.55 16.0 15.05 15.55 15.65 14.9 16.0 14.45 16.05 14.35 16.35 12.9 16.3 12.8"/><path fill="#ffffff" stroke="none" d="M16.05 14.35 L16.25 13.95 Q16.55 13.25 16.35 12.9 L16.05 14.35"/><path fill="none" stroke="#382510" stroke-width="0.5" stroke-opacity="0.301960784314" d="M16.3 12.8 L15.1 12.75 Q14.25 13.05 13.45 13.85 12.6 14.65 12.3 15.45 11.95 16.25 12.3 16.55 L13.2 16.7 M13.9 16.4 L14.55 16.0 M15.65 14.9 L16.0 14.45"/></g><linearGradient gradientUnits="userSpaceOnUse" x1="-819.2" x2="819.2" spreadMethod="pad" gradientTransform="matrix(0.00836181640625,0.0,0.0,0.00857543945312,6.9,12.2)" id="gradient7"><stop offset="0.149019607843" stop-color="#c2a561"/><stop offset="0.572549019608" stop-color="#927b47"/></linearGradient><linearGradient gradientUnits="userSpaceOnUse" x1="-819.2" x2="819.2" spreadMethod="pad" gradientTransform="matrix(-0.00624084472656,0.00358581542969,-0.00286865234375,-0.00498962402344,16.05,12.5)" id="gradient8"><stop offset="0.149019607843" stop-color="#c2a561"/><stop offset="0.572549019608" stop-color="#927b47"/></linearGradient><g id="c10"><path fill="#e6c497" stroke="none" d="M17.45 2.25 L17.35 2.3 16.55 1.65 17.45 2.25 M2.75 1.45 L2.75 1.4 3.1 1.25 2.75 1.45"/><path fill="#806c53" stroke="none" d="M18.75 5.45 L18.8 5.4 18.8 5.45 18.75 5.45"/><path fill="#e0c585" stroke="none" d="M16.55 1.65 L17.35 2.3 Q18.0 3.0 18.15 3.8 L18.15 4.15 18.15 4.35 18.1 4.75 18.05 4.8 Q17.65 6.2 15.6 7.25 L13.45 8.05 9.5 8.5 Q6.85 8.5 4.7 7.8 L4.65 7.8 3.35 7.25 1.45 5.85 Q2.65 4.55 4.85 3.55 L0.85 4.45 0.85 4.4 0.8 4.2 0.8 4.15 0.8 3.95 Q0.95 2.55 2.75 1.45 L3.1 1.25 3.35 1.1 Q5.4 0.05 8.15 -0.15 8.55 2.5 10.5 0.95 L10.55 -0.15 Q13.45 0.0 15.6 1.1 L16.55 1.65"/><path stroke="none" fill="url(#gradient7)" d="M0.05 5.2 Q0.3 6.85 2.75 8.1 L4.2 8.7 4.25 8.7 Q6.55 9.45 9.45 9.45 L13.75 8.95 Q13.3 11.45 13.15 15.95 12.95 19.85 13.1 22.4 L9.55 22.7 5.3 22.25 4.35 21.95 4.3 21.95 2.85 21.35 0.65 19.65 0.6 13.35 0.05 5.2"/><path stroke="none" fill="url(#gradient8)" d="M13.75 8.95 L16.1 8.1 Q18.3 6.95 18.75 5.45 L18.8 5.45 18.4 15.1 18.4 19.65 Q17.6 20.6 16.2 21.35 L13.85 22.2 13.1 22.4 Q12.95 19.85 13.15 15.95 13.3 11.45 13.75 8.95"/><path fill="#d8ca7c" stroke="none" d="M2.75 1.45 L2.7 1.45 2.75 1.4 2.75 1.45"/><path fill="#ac9c46" stroke="none" d="M17.35 2.3 L17.45 2.25 17.95 2.7 Q18.7 3.45 18.85 4.35 L18.85 4.7 18.85 4.95 18.8 5.4 18.75 5.45 Q18.3 6.95 16.1 8.1 L13.75 8.95 9.45 9.45 Q6.55 9.45 4.25 8.7 L4.2 8.7 2.75 8.1 Q0.3 6.85 0.05 5.2 L0.05 5.0 0.0 4.8 0.0 4.7 0.0 4.5 Q0.15 2.7 2.7 1.45 L2.75 1.45 Q0.95 2.55 0.8 3.95 L0.8 4.15 0.8 4.2 0.85 4.4 0.85 4.45 4.85 3.55 Q2.65 4.55 1.45 5.85 L3.35 7.25 4.65 7.8 4.7 7.8 Q6.85 8.5 9.5 8.5 L13.45 8.05 15.6 7.25 Q17.65 6.2 18.05 4.8 L18.1 4.75 18.15 4.35 18.15 4.15 18.15 3.8 Q18.0 3.0 17.35 2.3 M8.15 -0.15 L9.2 0.4 10.55 -0.15 10.5 0.95 Q8.55 2.5 8.15 -0.15"/><path fill="none" stroke="#000000" stroke-width="0.5" stroke-opacity="0.250980392157" d="M17.45 2.25 L16.55 1.65 M2.7 1.45 Q0.15 2.7 0.0 4.5 L0.0 4.7 0.0 4.8 0.05 5.0 0.05 5.2 M18.8 5.4 L18.85 4.95 18.85 4.7 18.85 4.35 Q18.7 3.45 17.95 2.7 L17.45 2.25 M10.55 -0.15 Q13.45 0.0 15.6 1.1 L16.55 1.65 M18.8 5.4 L18.8 5.45 18.4 15.1 18.4 19.65 M0.65 19.65 L0.6 13.35 0.05 5.2 M2.75 1.4 L2.7 1.45 M3.1 1.25 L2.75 1.4 M3.1 1.25 L3.35 1.1 Q5.4 0.05 8.15 -0.15 L9.2 0.4 10.55 -0.15"/><path fill="#927b47" stroke="none" d="M17.05 9.9 Q17.35 9.4 17.55 9.45 L17.85 10.05 Q18.05 10.75 17.85 11.4 17.6 12.4 17.2 12.7 L16.85 12.75 16.75 12.3 16.65 11.8 16.65 11.65 16.65 10.85 17.05 9.9 M1.3 13.7 Q1.3 13.5 1.65 13.4 L1.8 13.3 2.15 13.6 Q2.15 14.1 1.65 14.1 1.3 14.1 1.3 13.7 M2.95 14.75 L3.35 14.6 Q3.85 14.6 3.85 15.15 L3.6 15.65 3.1 15.9 Q2.35 15.9 2.35 15.15 2.35 14.6 2.65 14.6 L2.95 14.75 M2.65 11.55 L3.45 11.4 Q4.4 11.4 4.4 12.5 L4.05 13.2 3.2 13.5 2.6 13.25 2.2 12.8 Q2.05 11.9 2.65 11.55"/><path fill="#ac9c46" stroke="none" d="M11.6 4.0 Q11.6 3.75 12.0 3.6 L12.25 3.55 Q12.9 3.55 13.2 3.85 13.0 4.25 12.3 4.25 L11.65 4.2 11.6 4.0 M12.85 1.8 L13.05 2.1 12.3 2.3 11.95 2.2 12.0 1.95 Q12.1 1.8 12.3 1.8 L12.5 1.8 12.85 1.8 M16.8 5.2 L16.35 5.7 14.9 6.05 Q13.6 6.05 13.45 5.4 L13.45 5.3 14.15 5.0 15.6 4.65 Q16.8 4.65 16.8 5.2 M15.35 2.45 L15.75 3.0 15.5 3.35 14.65 3.55 14.05 3.4 13.6 2.9 13.65 2.85 Q13.7 2.7 14.1 2.45 L14.75 2.25 15.35 2.45 M11.95 6.35 L10.85 6.95 8.95 7.2 Q7.4 7.2 7.4 6.7 L7.85 6.2 7.9 6.15 8.55 5.65 9.75 5.5 11.35 5.9 11.95 6.35"/><path fill="#77653c" stroke="none" d="M13.85 11.95 Q14.0 11.8 14.15 11.75 L14.2 11.7 14.7 11.5 15.35 11.65 15.7 12.05 15.4 12.5 14.55 12.85 Q13.9 12.85 13.7 12.55 L13.6 12.2 13.85 11.95 M15.6 9.9 L15.8 9.9 Q16.1 9.9 16.4 10.2 L15.75 10.75 Q15.4 10.75 15.4 10.35 L15.55 9.95 15.6 9.9 M15.65 13.55 L15.7 13.5 15.75 13.5 15.85 13.55 16.0 13.6 Q16.2 13.65 16.2 13.85 L16.0 14.15 Q15.75 14.35 15.5 14.35 L15.2 14.3 15.2 13.95 15.65 13.55 M17.95 14.7 Q18.3 14.85 18.3 15.3 L17.65 16.45 Q16.95 17.05 16.3 17.05 15.3 17.05 15.3 16.1 15.3 15.65 15.75 15.25 16.35 14.75 17.25 14.65 L17.6 14.6 17.95 14.7"/></g><g id="c11"><g><use transform="matrix(1.0,0.0,0.0,1.0,0.0,0.0)" xlink:href="#c10"/></g></g><g id="c12"><path fill="#fcf3d8" stroke="none" d="M23.35 27.65 L23.6 26.2 23.65 27.6 24.6 28.15 23.6 28.1 23.3 30.35 23.25 28.0 19.85 26.85 23.35 27.65"/><path fill="#fcf3d8" stroke="none" d="M23.65 27.3 L23.95 27.45 24.05 27.8 23.95 28.2 23.6 28.3 23.3 28.2 Q23.15 28.05 23.15 27.8 L23.3 27.5 Q23.45 27.35 23.65 27.3"/><path fill="#fcf3d8" fill-opacity="0.301960784314" d="M23.65 27.3 Q23.45 27.35 23.3 27.5 L23.15 27.8 Q23.15 28.05 23.3 28.2 L23.6 28.3 23.95 28.2 24.05 27.8 23.95 27.45 23.65 27.3 M23.15 26.85 L23.65 26.8 Q24.0 26.8 24.3 27.1 L24.55 27.8 25.35 27.9 24.5 28.05 24.25 28.45 23.9 28.7 23.75 29.05 23.55 28.75 23.55 28.7 22.9 28.45 22.6 27.75 22.75 27.3 Q22.8 26.95 22.25 26.45 22.75 26.9 23.15 26.85"/><path fill="#382510" fill-opacity="0.2" d="M13.15 17.1 Q13.95 16.9 14.8 16.15 L15.95 14.55 Q16.3 13.65 15.95 13.15 15.6 12.65 14.75 12.85 13.9 12.95 13.1 13.7 12.25 14.45 11.95 15.4 11.6 16.25 11.95 16.75 12.3 17.25 13.15 17.1"/><path fill="#7c6c38" stroke="none" d="M16.05 12.65 Q15.8 10.9 14.25 11.3 L11.1 13.8 Q10.15 15.55 11.9 16.1 L12.7 16.2 Q11.6 15.75 11.75 15.2 L12.65 14.65 Q13.35 15.5 14.25 15.4 L14.65 15.05 15.5 14.2 Q15.4 12.9 14.3 12.6 L15.05 11.6 Q15.55 11.6 16.05 12.65"/><path fill="#b19b52" stroke="none" d="M15.5 14.2 L15.9 13.5 16.05 12.75 16.05 12.65 Q15.55 11.6 15.05 11.6 L14.3 12.6 Q15.4 12.9 15.5 14.2"/><path fill="#534226" stroke="none" d="M12.7 16.2 L13.05 16.15 14.25 15.4 Q13.35 15.5 12.65 14.65 L11.75 15.2 Q11.6 15.75 12.7 16.2"/><path fill="none" stroke="#382510" stroke-width="0.5" stroke-opacity="0.301960784314" d="M16.05 12.65 Q15.8 10.9 14.25 11.3 L11.1 13.8 Q10.15 15.55 11.9 16.1 L12.7 16.2 13.05 16.15 14.25 15.4 14.65 15.05 15.5 14.2 15.9 13.5 16.05 12.75 16.05 12.65"/><path fill="#d8ca7c" stroke="none" d="M15.1 11.55 L13.95 11.5 Q13.1 11.8 12.25 12.55 L11.05 14.1 Q10.7 14.85 11.05 15.2 L12.0 15.35 12.2 15.3 12.7 15.05 13.3 14.65 13.85 14.25 14.4 13.6 14.75 13.2 14.85 13.1 15.1 11.65 15.1 11.55"/><path fill="#e1d29d" stroke="none" d="M14.85 13.1 L15.05 12.7 Q15.35 12.0 15.1 11.65 L14.85 13.1"/><path fill="none" stroke="#382510" stroke-width="0.5" stroke-opacity="0.301960784314" d="M15.1 11.55 L13.95 11.5 Q13.1 11.8 12.25 12.55 L11.05 14.1 Q10.7 14.85 11.05 15.2 L12.0 15.35 M12.7 15.05 L13.3 14.65 M14.4 13.6 L14.75 13.2"/><path fill="#cdb65c" stroke="none" d="M14.5 12.15 L13.65 12.05 Q13.1 12.3 12.5 12.8 L11.65 13.95 Q11.45 14.45 11.6 14.7 L12.3 14.8 12.4 14.75 12.75 14.6 13.25 14.3 13.6 14.0 14.0 13.55 14.25 13.25 14.3 13.2 14.5 12.2 14.5 12.15"/><path fill="#e1d29d" stroke="none" d="M14.3 13.2 L14.45 12.9 14.5 12.2 14.3 13.2"/><path fill="none" stroke="#382510" stroke-width="0.5" stroke-opacity="0.301960784314" d="M14.5 12.15 L13.65 12.05 Q13.1 12.3 12.5 12.8 L11.65 13.95 Q11.45 14.45 11.6 14.7 L12.3 14.8 M12.75 14.6 L13.25 14.3 M14.0 13.55 L14.25 13.25"/><path fill="#fcf3d8" stroke="none" d="M18.9 19.45 L19.15 18.0 19.2 19.4 20.15 19.95 19.15 19.9 18.85 22.15 18.8 19.8 15.4 18.65 18.9 19.45"/><path fill="#fcf3d8" fill-opacity="0.301960784314" d="M18.65 18.6 L19.15 18.55 Q19.5 18.55 19.8 18.85 L20.05 19.55 20.85 19.65 20.0 19.8 19.75 20.2 19.4 20.45 19.25 20.8 19.05 20.5 19.05 20.45 18.4 20.2 18.1 19.5 18.25 19.05 Q18.3 18.7 17.75 18.2 18.25 18.65 18.65 18.6 M19.15 19.05 Q18.95 19.1 18.8 19.25 L18.65 19.55 18.8 19.95 19.1 20.05 19.45 19.95 19.55 19.55 19.45 19.2 19.15 19.05"/><path fill="#fcf3d8" stroke="none" d="M19.15 19.05 L19.45 19.2 19.55 19.55 19.45 19.95 19.1 20.05 18.8 19.95 18.65 19.55 18.8 19.25 Q18.95 19.1 19.15 19.05"/></g><g id="c13"><g><use transform="matrix(1.0,0.0,0.0,1.0,0.0,0.0)" xlink:href="#c2"/></g><g><use transform="matrix(0.238861083984,-0.0867004394531,0.10026550293,0.233917236328,34.25,31.15)" xlink:href="#c4"/></g><g><use transform="matrix(0.238861083984,-0.0867004394531,0.10026550293,0.233917236328,4.25,10.3)" xlink:href="#c4"/></g><g><use transform="matrix(0.141098022461,-0.0378112792969,0.111373901367,0.225646972656,20.25,20.65)" filter="url(#filter8)" xlink:href="#c6"/></g><g><use transform="matrix(-0.155029296875,0.0513153076172,0.0841827392578,0.147033691406,22.6,2.3)" filter="url(#filter9)" xlink:href="#c8"/></g><g><use transform="matrix(1.0,0.0,0.0,1.0,0.0,0.0)" xlink:href="#c9"/></g><g><use transform="matrix(-0.155792236328,0.141021728516,0.141021728516,0.155792236328,14.15,11.5)" filter="url(#filter11)" xlink:href="#c11"/></g><g><use transform="matrix(1.0,0.0,0.0,1.0,0.0,0.0)" xlink:href="#c12"/></g><g><use transform="matrix(0.162948608398,-0.0436706542969,0.128631591797,0.260604858398,20.35,20.95)" filter="url(#filter13)" xlink:href="#c6"/></g></g><filter id="filter8"><feColorMatrix in="SourceGraphic" type="matrix" values="0.0 0.0 0.0 0.0 0.796875 0.0 0.0 0.0 0.0 0.59765625 0.0 0.0 0.0 0.0 0.19921875 0.0 0.0 0.0 1.0 0.0" result="cxform"/><feComposite operator="in" in2="SourceGraphic" result="color-xform"/></filter><filter id="filter9"><feColorMatrix in="SourceGraphic" type="matrix" values="0.0 0.0 0.0 0.0 0.99609375 0.0 0.0 0.0 0.0 0.99609375 0.0 0.0 0.0 0.0 0.99609375 0.0 0.0 0.0 1.0 0.0" result="cxform"/><feComposite operator="in" in2="SourceGraphic" result="color-xform"/></filter><filter id="filter11"><feColorMatrix in="SourceGraphic" type="matrix" values="0.6171875 0.0 0.0 0.0 0.34765625 0.0 0.6171875 0.0 0.0 0.35546875 0.0 0.0 0.6171875 0.0 0.33984375 0.0 0.0 0.0 1.0 0.0" result="cxform"/><feComposite operator="in" in2="SourceGraphic" result="color-xform"/></filter><filter id="filter13"><feColorMatrix in="SourceGraphic" type="matrix" values="1.0 0.0 0.0 0.0 0.0 0.0 1.0 0.0 0.0 0.0 0.0 0.0 1.0 0.0 0.0 0.0 0.0 0.0 0.23046875 0.0" result="cxform"/><feComposite operator="in" in2="SourceGraphic" result="color-xform"/></filter></defs><g><g><use transform="matrix(1.0,0.0,0.0,1.0,0.0,0.0)" xlink:href="#c1"/></g><g><use transform="matrix(1.15496826172,0.0,0.0,1.15496826172,5.85,3.95)" xlink:href="#c13"/></g></g></svg>