<?xml version='1.0' encoding='UTF-8'?>
<svg xmlns:xlink="http://www.w3.org/1999/xlink" xmlns="http://www.w3.org/2000/svg" version="1.1" width="60px" height="60px" viewBox="0.0 0.0 60.0 60.0"><defs><radialGradient gradientUnits="userSpaceOnUse" r="819.2" cx="0" cy="0" spreadMethod="pad" gradientTransform="matrix(0.0528869628906,0.0338745117188,-0.0337982177734,0.050537109375,-22.95,6.05)" id="gradient1"><stop offset="0.301960784314" stop-color="#f3df1e"/><stop offset="0.776470588235" stop-color="#ada906"/><stop offset="0.917647058824" stop-color="#938506"/></radialGradient><g id="c1"><path stroke="none" fill="url(#gradient1)" d="M40.0 -38.25 Q55.1 -22.4 54.05 0.0 53.0 22.35 36.4 38.2 19.9 53.95 -2.35 54.0 L-2.55 54.0 -7.6 53.8 Q-26.65 52.2 -40.0 38.2 -55.05 22.35 -54.0 -0.05 -52.95 -22.4 -36.4 -38.25 -19.85 -54.05 2.55 -54.05 24.95 -54.05 40.0 -38.25"/><path fill="none" stroke="#000000" stroke-width="0.5" stroke-opacity="0.301960784314" d="M40.0 -38.25 Q55.1 -22.4 54.05 0.0 53.0 22.35 36.4 38.2 19.9 53.95 -2.35 54.0 L-2.55 54.0 -7.6 53.8 Q-26.65 52.2 -40.0 38.2 -55.05 22.35 -54.0 -0.05 -52.95 -22.4 -36.4 -38.25 -19.85 -54.05 2.55 -54.05 24.95 -54.05 40.0 -38.25"/></g><radialGradient gradientUnits="userSpaceOnUse" r="819.2" cx="0" cy="0" spreadMethod="pad" gradientTransform="matrix(0.0558624267578,-0.00338745117188,-0.00267028808594,0.0602874755859,-11.15,4.55)" id="gradient2"><stop offset="0.0" stop-color="#c9be0f"/><stop offset="1.0" stop-color="#ead81b"/></radialGradient><radialGradient gradientUnits="userSpaceOnUse" r="819.2" cx="0" cy="0" spreadMethod="pad" gradientTransform="matrix(0.0509338378906,0.0,-0.00241088867188,0.0509338378906,-10.05,4.05)" id="gradient3"><stop offset="0.0" stop-color="#a16700"/><stop offset="1.0" stop-color="#b2ad07"/></radialGradient><g id="c2"><path stroke="none" fill="url(#gradient2)" d="M8.15 -1.1 L31.2 -0.45 20.55 2.5 31.3 5.15 8.35 8.7 11.4 13.1 30.5 21.1 14.9 18.15 27.25 36.15 -1.05 22.35 6.7 42.45 6.45 42.55 6.3 42.7 -8.1 25.2 -8.95 44.65 -12.7 31.2 -15.45 40.4 -15.2 22.35 -16.6 17.25 -24.75 21.55 -24.8 21.45 -19.0 8.7 -31.35 6.55 -26.15 5.4 -27.7 4.6 -20.7 2.2 -31.3 -15.6 -20.85 -7.05 -25.45 -27.15 -17.9 -15.45 -15.25 -34.8 -13.7 -9.0 -13.65 -8.95 -11.75 -39.3 -8.9 -18.75 3.85 -44.65 2.05 -18.4 18.15 -39.45 1.6 -9.05 1.4 -9.05 1.4 -8.9 1.5 -8.8 1.6 -9.05 20.85 -23.55 13.25 -12.8 28.9 -22.25 8.15 -1.1 7.75 -1.1 7.7 -0.65 8.0 -0.55 8.15 -1.1"/><path stroke="none" fill="url(#gradient3)" d="M1.6 -6.85 L19.15 -18.15 12.25 -9.4 26.55 -16.6 7.6 0.25 28.55 2.0 18.85 3.95 28.65 6.75 7.8 8.55 10.55 12.45 27.95 20.2 13.75 16.9 25.0 32.8 -0.8 19.65 6.25 37.05 6.05 37.15 5.9 37.25 -7.25 21.7 -8.0 38.1 -11.4 26.55 -13.9 34.2 -13.7 18.9 -15.0 14.5 -22.4 17.75 -22.45 17.65 -17.15 7.15 -28.45 4.7 -23.75 4.0 -25.1 3.25 -18.7 1.55 -28.35 -14.05 -18.85 -6.3 -23.05 -23.55 -16.2 -13.25 -13.75 -29.5 -12.35 -7.6 -12.35 -7.55 -12.3 -7.5 -10.55 -33.15 -7.95 -15.55 3.7 -36.9 2.05 -14.75 16.7 -31.7 1.6 -6.85 1.4 -6.85 1.4 -6.7 1.5 -6.65 1.6 -6.85 M7.6 0.25 L7.2 0.25 7.15 0.6 7.4 0.7 7.6 0.25"/><path fill="#1d1800" stroke="none" d="M-11.75 -7.65 Q-8.8 -31.1 0.05 -36.05 3.9 -21.05 -2.7 -2.55 8.7 1.55 11.15 11.15 3.2 15.3 -4.5 12.25 -4.3 30.4 -7.65 36.0 -13.75 26.8 -12.95 6.55 -20.85 0.65 -19.5 -9.4 -16.4 -10.9 -11.75 -7.65"/><path fill="none" stroke="#ffffff" stroke-width="0.5" stroke-opacity="0.8" d="M-11.75 -7.65 Q-8.8 -31.1 0.05 -36.05 3.9 -21.05 -2.7 -2.55 8.7 1.55 11.15 11.15 3.2 15.3 -4.5 12.25 -4.3 30.4 -7.65 36.0 -13.75 26.8 -12.95 6.55 -20.85 0.65 -19.5 -9.4 -16.4 -10.9 -11.75 -7.65"/></g><g id="c3"><g><use transform="matrix(1.0,0.0,0.0,1.0,0.0,0.0)" xlink:href="#c2"/></g></g><linearGradient gradientUnits="userSpaceOnUse" x1="-819.2" x2="819.2" spreadMethod="pad" gradientTransform="matrix(0.00787353515625,-0.0371704101562,-0.0300903320312,-0.015380859375,1.75,-31.75)" id="gradient4"><stop offset="0.0" stop-color="#446130" stop-opacity="0.0"/><stop offset="1.0" stop-color="#446130"/></linearGradient><linearGradient gradientUnits="userSpaceOnUse" x1="-819.2" x2="819.2" spreadMethod="pad" gradientTransform="matrix(-0.0145416259766,0.0384368896484,-0.0311126708984,-0.0104522705078,-19.5,38.45)" id="gradient5"><stop offset="0.0" stop-color="#446130" stop-opacity="0.0"/><stop offset="1.0" stop-color="#446130"/></linearGradient><g id="c4"><path stroke="none" fill="url(#gradient4)" d="M23.45 15.4 Q18.2 8.05 9.1 -9.2 -4.7 -35.1 -28.95 -26.55 -53.2 -17.95 -49.05 -23.6 -44.85 -29.25 -36.05 -38.95 -27.3 -48.6 -13.9 -47.75 -0.45 -46.85 8.8 -40.65 18.15 -34.4 27.4 -23.8 36.75 -13.25 33.9 11.85 33.0 19.85 30.85 21.15 L30.75 21.25 Q29.45 21.95 27.75 20.25 26.1 19.05 23.45 15.4"/><path stroke="none" fill="url(#gradient5)" d="M23.45 15.4 Q26.1 19.05 27.75 20.25 29.45 21.95 30.75 21.25 30.0 23.35 28.65 26.1 17.0 50.05 4.15 51.9 -8.7 53.7 -19.1 51.75 -29.5 49.8 -40.1 39.95 -50.7 30.1 -51.95 14.8 -53.25 -0.55 -53.25 -8.75 -53.25 -16.95 -40.15 15.85 -27.0 48.6 6.7 25.35 17.3 18.0 23.45 15.4"/><path fill="#d08515" fill-opacity="0.4" d="M11.2 42.05 Q7.25 47.8 -11.75 46.35 -30.85 44.9 -34.5 39.1 -38.25 33.35 -41.85 31.6 -35.65 32.9 -29.8 36.8 -24.0 40.7 -12.45 39.45 -1.0 38.2 5.8 32.8 12.65 27.4 13.9 31.85 15.15 36.25 11.2 42.05"/></g><linearGradient gradientUnits="userSpaceOnUse" x1="-819.2" x2="819.2" spreadMethod="pad" gradientTransform="matrix(0.0300598144531,0.0,-0.00250244140625,0.0529479980469,-12.3,46.95)" id="gradient6"><stop offset="0.0" stop-color="#ffff6f" stop-opacity="0.541176470588"/><stop offset="1.0" stop-color="#ffff6f" stop-opacity="0.0"/></linearGradient><linearGradient gradientUnits="userSpaceOnUse" x1="-819.2" x2="819.2" spreadMethod="pad" gradientTransform="matrix(-0.00485229492188,0.0215759277344,-0.0253448486328,-0.01171875,-0.5,27.45)" id="gradient7"><stop offset="0.0" stop-color="#ffff6f" stop-opacity="0.541176470588"/><stop offset="1.0" stop-color="#ffff6f" stop-opacity="0.0"/></linearGradient><g id="c5"><path stroke="none" fill="url(#gradient6)" d="M23.6 12.7 Q32.2 25.35 31.35 43.4 30.5 61.4 20.7 74.05 10.95 86.75 -2.05 86.75 -15.05 86.75 -23.6 74.05 -32.2 61.4 -31.35 43.4 -30.5 25.35 -20.7 12.7 -10.95 0.0 2.05 0.0 15.05 0.0 23.6 12.7"/><path fill="#ffffff" stroke="none" d="M4.2 56.35 Q6.2 57.8 12.25 58.8 L24.85 60.4 Q20.45 64.8 15.6 65.95 10.7 67.1 6.35 66.75 2.05 66.35 0.3 64.65 -1.4 62.95 -1.4 60.6 -1.35 58.25 0.45 56.5 2.2 54.85 4.2 56.35"/><path stroke="none" fill="url(#gradient7)" d="M17.0 21.75 Q21.95 29.75 20.25 37.1 18.7 44.45 11.35 46.8 4.85 48.95 -2.9 45.85 L-4.5 45.15 Q-13.1 41.2 -18.05 33.2 -22.9 25.2 -21.25 17.85 -19.6 10.5 -12.4 8.15 -7.15 6.45 -1.1 8.1 1.15 8.75 3.5 9.8 12.15 13.8 17.0 21.75"/></g><g id="c6"><g><use transform="matrix(1.0,0.0,0.0,1.0,0.0,0.0)" xlink:href="#c5"/></g></g><g id="c7"><g><use transform="matrix(1.0,0.0,0.0,1.0,0.0,0.0)" xlink:href="#c1"/></g><g><use transform="matrix(1.0,0.0,0.0,1.0,-21.9,4.15)" xlink:href="#c3"/></g><g><use transform="matrix(1.0,0.0,0.0,1.0,0.0,0.0)" xlink:href="#c4"/></g><g><use transform="matrix(1.0,0.0,0.0,1.0,-21.8,-43.2)" xlink:href="#c6"/></g></g><g id="c8"><path fill="#000000" fill-opacity="0.00392156862745" d="M0.0 0.0 L60.0 0.0 60.0 60.0 0.0 60.0 0.0 0.0"/></g><g id="c9"><path fill="#006699" stroke="none" d="M31.5 39.85 L19.8 43.65 Q17.15 44.45 15.5 43.3 14.35 42.55 13.65 40.9 L1.7 14.45 1.6 14.3 1.2 13.45 -0.75 9.05 Q-2.05 6.2 -0.3 4.75 0.3 4.25 1.2 3.9 L5.5 2.25 Q8.95 0.95 10.65 4.15 L22.3 0.4 Q26.55 -1.0 28.45 3.1 L40.55 29.95 40.9 30.7 42.95 35.15 Q43.95 37.35 43.15 38.7 42.5 39.7 40.95 40.25 L36.65 41.8 35.1 42.2 Q32.75 42.3 31.5 39.85"/><path fill="none" stroke="#000000" stroke-width="1.0" stroke-opacity="0.298039215686" d="M31.5 39.85 L19.8 43.65 Q17.15 44.45 15.5 43.3 14.35 42.55 13.65 40.9 L1.7 14.45 1.6 14.3 1.2 13.45 -0.75 9.05 Q-2.05 6.2 -0.3 4.75 0.3 4.25 1.2 3.9 L5.5 2.25 Q8.95 0.95 10.65 4.15 L22.3 0.4 Q26.55 -1.0 28.45 3.1 L40.55 29.95 40.9 30.7 42.95 35.15 Q43.95 37.35 43.15 38.7 42.5 39.7 40.95 40.25 L36.65 41.8 35.1 42.2 Q32.75 42.3 31.5 39.85"/><path fill="#300525" stroke="none" d="M0.75 8.25 L29.8 9.75 25.55 0.9 Q26.9 1.6 27.8 3.55 L40.7 32.15 Q42.6 36.3 38.3 37.65 L23.3 42.5 13.15 21.4 4.6 20.9 0.7 12.25 Q-0.45 9.75 0.75 8.25 M20.1 43.55 L19.8 43.65 Q17.15 44.45 15.5 43.3 L20.1 43.55"/><path fill="#630a4c" stroke="none" d="M25.55 0.9 L29.8 9.75 0.75 8.25 Q1.45 7.3 3.1 6.75 L21.65 0.8 25.55 0.9 M4.6 20.9 L13.15 21.4 23.3 42.5 20.1 43.55 15.5 43.3 Q14.35 42.55 13.65 40.9 L4.6 20.9"/><path fill="none" stroke="#000000" stroke-width="0.5" stroke-opacity="0.301960784314" d="M0.75 8.25 Q-0.45 9.75 0.7 12.25 L4.6 20.9 M23.3 42.5 L38.3 37.65 Q42.6 36.3 40.7 32.15 L27.8 3.55 Q26.9 1.6 25.55 0.9 L21.65 0.8 3.1 6.75 Q1.45 7.3 0.75 8.25 M20.1 43.55 L19.8 43.65 Q17.15 44.45 15.5 43.3 14.35 42.55 13.65 40.9 L4.6 20.9 M20.1 43.55 L23.3 42.5"/><path fill="#9d147b" stroke="none" d="M14.2 40.5 L1.35 11.8 Q-0.5 7.75 3.8 6.35 L22.3 0.4 Q26.55 -1.0 28.45 3.1 L41.35 31.7 Q43.25 35.85 38.9 37.25 L20.4 43.2 Q16.1 44.55 14.2 40.5"/><path fill="none" stroke="#000000" stroke-width="0.5" stroke-opacity="0.301960784314" d="M14.2 40.5 L1.35 11.8 Q-0.5 7.75 3.8 6.35 L22.3 0.4 Q26.55 -1.0 28.45 3.1 L41.35 31.7 Q43.25 35.85 38.9 37.25 L20.4 43.2 Q16.1 44.55 14.2 40.5"/><path fill="#9d147b" stroke="none" d="M31.4 39.65 L31.3 39.45 31.25 39.4 29.25 34.95 Q27.55 31.2 31.25 29.85 L35.6 28.25 Q38.8 27.1 40.5 29.85 L40.9 30.7 42.95 35.15 Q43.95 37.35 43.15 38.7 42.5 39.45 41.2 39.9 L36.9 41.45 34.85 41.85 Q32.9 41.7 31.75 39.5 L31.4 39.65"/><path fill="#630a4c" stroke="none" d="M43.15 38.7 Q42.5 39.7 40.95 40.25 L36.65 41.8 35.1 42.2 Q32.75 42.3 31.45 39.8 L31.4 39.65 31.75 39.5 Q32.9 41.7 34.85 41.85 L36.9 41.45 41.2 39.9 Q42.5 39.45 43.15 38.7"/><path fill="none" stroke="#003333" stroke-width="0.5" stroke-opacity="0.509803921569" d="M43.15 38.7 Q42.5 39.7 40.95 40.25 L36.65 41.8 35.1 42.2 Q32.75 42.3 31.45 39.8 L31.4 39.65 30.3 40.0 31.4 39.65 M40.5 29.85 L40.9 30.7 42.95 35.15 Q43.95 37.35 43.15 38.7 42.5 39.45 41.2 39.9 L36.9 41.45 34.85 41.85 Q32.9 41.7 31.75 39.5 L31.4 39.65"/><path fill="#9d147b" stroke="none" d="M10.65 4.2 L10.85 4.6 12.85 9.05 Q14.5 12.8 10.8 14.15 L6.5 15.8 Q4.5 16.6 3.1 15.8 L1.75 12.85 -0.2 8.45 Q-1.25 6.15 -0.3 4.75 0.3 4.25 1.2 3.9 L5.5 2.25 Q9.0 0.95 10.65 4.2"/><path fill="#300525" stroke="none" d="M-0.3 4.75 Q-1.25 6.15 -0.2 8.45 L1.75 12.85 3.1 15.8 Q2.25 15.35 1.6 14.3 L1.2 13.45 -0.75 9.05 Q-2.05 6.2 -0.3 4.75"/><path fill="none" stroke="#003333" stroke-width="0.5" stroke-opacity="0.509803921569" d="M3.1 15.8 L6.45 23.15 M-0.3 4.75 Q0.3 4.25 1.2 3.9 L5.5 2.25 Q9.0 0.95 10.65 4.2 M3.1 15.8 L1.75 12.85 -0.2 8.45 Q-1.25 6.15 -0.3 4.75 -2.05 6.2 -0.75 9.05 L1.2 13.45 1.6 14.3"/><path fill="#fcf2cf" stroke="none" d="M9.15 13.6 Q9.8 12.8 9.55 11.6 L9.1 10.55 22.05 6.35 Q24.9 5.45 26.25 7.85 L26.5 8.3 35.8 29.0 35.95 29.35 Q34.75 29.3 34.1 30.1 33.45 30.9 33.7 32.1 L34.0 32.9 20.65 37.2 Q18.8 37.8 17.65 37.0 16.8 36.4 16.3 35.2 L6.95 14.6 6.8 14.4 7.1 14.4 Q8.4 14.45 9.15 13.6"/><path fill="#c47fad" stroke="none" d="M9.15 13.6 Q8.4 14.45 7.1 14.4 L6.8 14.4 6.95 14.6 16.3 35.2 Q16.8 36.4 17.65 37.0 18.8 37.8 20.65 37.2 L34.0 32.9 33.7 32.1 Q33.45 30.9 34.1 30.1 34.75 29.3 35.95 29.35 L35.8 29.0 26.5 8.3 26.25 7.85 Q24.9 5.45 22.05 6.35 L9.1 10.55 9.55 11.6 Q9.8 12.8 9.15 13.6 M28.25 6.1 L35.55 22.3 39.35 30.75 Q41.1 34.5 37.2 35.7 L20.45 41.1 Q16.8 42.25 15.2 39.0 L15.0 38.6 8.25 23.65 3.35 12.8 Q1.65 9.1 5.5 7.85 L22.25 2.5 Q26.05 1.25 27.75 4.95 L28.25 6.1"/><path fill="none" stroke="#ffcc00" stroke-width="1.0" stroke-opacity="0.749019607843" d="M35.55 22.3 L39.35 30.75 Q41.1 34.5 37.2 35.7 L20.45 41.1 Q16.8 42.25 15.2 39.0 L15.0 38.6 M8.25 23.65 L3.35 12.8 Q1.65 9.1 5.5 7.85 L22.25 2.5 Q26.05 1.25 27.75 4.95 L28.25 6.1"/><path fill="none" stroke="#bf9900" stroke-width="1.0" stroke-opacity="0.749019607843" d="M28.25 6.1 L35.55 22.3 M15.0 38.6 L8.25 23.65"/><path fill="none" stroke="#f0b92b" stroke-width="0.5" d="M9.15 13.6 Q9.8 12.8 9.55 11.6 L9.1 10.55 22.05 6.35 Q24.9 5.45 26.25 7.85 L26.5 8.3 35.8 29.0 35.95 29.35 Q34.75 29.3 34.1 30.1 33.45 30.9 33.7 32.1 L34.0 32.9 20.65 37.2 Q18.8 37.8 17.65 37.0 16.8 36.4 16.3 35.2 L6.95 14.6 6.8 14.4 7.1 14.4 Q8.4 14.45 9.15 13.6"/></g><g id="c10"><path fill="#7fdbfe" stroke="none" d="M10.75 4.9 Q10.75 4.6 10.9 4.35 11.25 3.45 11.95 2.75 13.3 1.5 14.35 2.1 15.4 2.7 14.95 4.45 14.7 5.4 14.1 6.15 L13.75 6.5 Q13.1 7.15 12.35 7.35 L11.4 7.2 Q10.95 6.9 10.75 6.4 10.5 5.75 10.75 4.9 M7.5 5.9 Q7.0 5.85 6.6 5.5 6.05 5.0 5.8 4.15 L5.7 3.6 Q5.55 2.65 5.8 1.7 6.25 0.0 7.5 0.0 L7.6 0.0 Q8.85 0.0 9.3 1.7 9.55 2.65 9.4 3.6 L9.3 4.15 8.5 5.5 7.6 5.9 7.5 5.9 M4.35 4.9 Q4.6 5.75 4.35 6.4 L3.7 7.2 2.75 7.35 Q2.0 7.15 1.35 6.5 L1.0 6.15 Q0.4 5.4 0.15 4.45 -0.3 2.7 0.75 2.1 1.8 1.5 3.15 2.75 3.85 3.45 4.2 4.35 L4.35 4.9 M5.5 13.7 Q4.45 13.9 3.65 12.95 2.75 12.0 3.2 10.25 3.7 8.5 5.25 7.6 6.4 6.9 7.55 7.0 8.75 6.9 9.9 7.6 11.45 8.5 11.95 10.25 12.35 12.0 11.5 12.95 10.7 13.9 9.65 13.7 8.55 13.5 7.55 12.6 6.55 13.5 5.5 13.7"/></g><g id="c11"><g><use transform="matrix(1.0,0.0,0.0,1.0,0.0,0.0)" xlink:href="#c10"/></g></g><radialGradient gradientUnits="userSpaceOnUse" r="819.2" cx="0" cy="0" spreadMethod="pad" gradientTransform="matrix(0.0914459228516,0.0,0.0,0.0914459228516,0.6,3.4)" id="gradient8"><stop offset="0.0" stop-color="#ffffff"/><stop offset="1.0" stop-color="#ffffff" stop-opacity="0.0"/></radialGradient><g id="c12"><path stroke="none" fill="url(#gradient8)" d="M36.65 -54.65 Q60.05 -42.0 69.75 -17.95 80.55 8.9 68.0 34.1 55.45 59.35 26.8 68.2 -1.8 77.05 -29.7 64.3 -57.6 51.6 -68.45 24.75 -79.3 -2.05 -66.75 -27.25 L-66.7 -27.3 Q-54.1 -52.5 -25.5 -61.4 3.1 -70.2 31.0 -57.5 L36.65 -54.65"/></g><g id="c13"><g><use transform="matrix(1.0,0.0,0.0,1.0,0.0,0.0)" xlink:href="#c12"/></g></g><radialGradient gradientUnits="userSpaceOnUse" r="819.2" cx="0" cy="0" spreadMethod="pad" gradientTransform="matrix(0.209197998047,0.0,0.0,0.177108764648,67.15,107.2)" id="gradient9"><stop offset="0.356862745098" stop-color="#ffffff"/><stop offset="0.670588235294" stop-opacity="0.0"/></radialGradient><g id="c14"><path fill="none" stroke-linejoin="round" stroke-linecap="round" stroke="url(#gradient9)" stroke-width="0.5" d="M136.55 165.8 L68.6 106.0 68.4 106.0 118.25 201.5 M68.3 105.8 L68.35 105.8 68.3 105.8 68.3 105.85 68.4 106.0 68.3 106.0 86.55 211.5 M68.3 105.8 L68.3 105.85 68.3 106.0 68.15 105.95 18.25 151.55 M68.3 105.85 L68.25 105.85 68.3 106.0 50.0 193.2 M68.25 105.85 L68.15 105.95 0.05 97.7 M68.3 105.85 L68.25 105.8 68.25 105.85 M68.25 105.8 L68.2 105.7 0.0 45.7 M68.3 105.8 L68.25 105.75 68.25 105.8 M68.25 105.75 L68.2 105.7 18.25 10.05 M68.6 106.0 L68.35 105.8 118.25 60.15 M86.6 18.35 L68.3 105.8 M136.6 114.25 L68.6 106.0 M68.25 105.75 L49.95 0.05"/></g><g id="c15"><g><use transform="matrix(1.0,0.0,0.0,1.0,0.0,0.0)" xlink:href="#c14"/></g></g><g id="c16"><g><use transform="matrix(1.0,0.0,0.0,1.0,0.0,0.0)" xlink:href="#c9"/></g><g><use transform="matrix(0.238861083984,-0.0867004394531,0.10026550293,0.233917236328,34.25,31.15)" xlink:href="#c11"/></g><g><use transform="matrix(0.238861083984,-0.0867004394531,0.10026550293,0.233917236328,4.25,10.3)" xlink:href="#c11"/></g><g><use transform="matrix(0.141098022461,-0.0378112792969,0.111373901367,0.225646972656,20.25,20.65)" filter="url(#filter13)" xlink:href="#c13"/></g><g><use transform="matrix(-0.155029296875,0.0513153076172,0.0841827392578,0.147033691406,22.6,3.15)" filter="url(#filter14)" xlink:href="#c15"/></g></g><filter id="filter13"><feColorMatrix in="SourceGraphic" type="matrix" values="0.0 0.0 0.0 0.0 0.796875 0.0 0.0 0.0 0.0 0.59765625 0.0 0.0 0.0 0.0 0.19921875 0.0 0.0 0.0 1.0 0.0" result="cxform"/><feComposite operator="in" in2="SourceGraphic" result="color-xform"/></filter><filter id="filter14"><feColorMatrix in="SourceGraphic" type="matrix" values="0.0 0.0 0.0 0.0 0.99609375 0.0 0.0 0.0 0.0 0.99609375 0.0 0.0 0.0 0.0 0.99609375 0.0 0.0 0.0 1.0 0.0" result="cxform"/><feComposite operator="in" in2="SourceGraphic" result="color-xform"/></filter><radialGradient gradientUnits="userSpaceOnUse" r="819.2" cx="0" cy="0" spreadMethod="pad" gradientTransform="matrix(0.0776062011719,0.0,0.0,0.0383758544922,0.0,30.9)" id="gradient10"><stop offset="0.4" stop-color="#382b0c" stop-opacity="0.501960784314"/><stop offset="1.0" stop-color="#9c7420" stop-opacity="0.0"/></radialGradient><g id="c17"><path stroke="none" fill="url(#gradient10)" d="M62.4 30.9 Q62.4 43.65 44.1 52.7 25.8 61.75 0.0 61.75 -25.9 61.75 -44.2 52.7 -62.45 43.65 -62.45 30.9 -62.45 18.05 -44.2 9.0 -25.9 0.0 0.0 0.0 25.8 0.0 44.1 9.0 62.4 18.05 62.4 30.9"/></g><g id="c18"><g><use transform="matrix(1.0,0.0,0.0,1.0,0.0,0.0)" xlink:href="#c17"/></g></g><linearGradient gradientUnits="userSpaceOnUse" x1="-819.2" x2="819.2" spreadMethod="pad" gradientTransform="matrix(-0.00230407714844,0.00860595703125,-0.0177154541016,-0.00474548339844,-4.2,346.4)" id="gradient11"><stop offset="0.0" stop-color="#76412c" stop-opacity="0.0"/><stop offset="1.0" stop-color="#75402b"/></linearGradient><linearGradient gradientUnits="userSpaceOnUse" x1="-819.2" x2="819.2" spreadMethod="pad" gradientTransform="matrix(0.0,-0.013671875,0.0224914550781,0.0,-24.85,345.2)" id="gradient12"><stop offset="0.0" stop-color="#76412c"/><stop offset="1.0" stop-color="#75412c" stop-opacity="0.0"/></linearGradient><linearGradient gradientUnits="userSpaceOnUse" x1="-819.2" x2="819.2" spreadMethod="pad" gradientTransform="matrix(-0.00042724609375,-0.0483245849609,0.185592651367,-0.00201416015625,-43.55,380.4)" id="gradient13"><stop offset="0.0" stop-color="#76412c"/><stop offset="0.81568627451" stop-color="#3a1e18"/><stop offset="1.0" stop-color="#3a1e18" stop-opacity="0.0"/></linearGradient><linearGradient gradientUnits="userSpaceOnUse" x1="-819.2" x2="819.2" spreadMethod="pad" gradientTransform="matrix(0.0,-0.01806640625,0.0421752929688,-3.0517578125e-05,-67.6,354.85)" id="gradient14"><stop offset="0.552941176471" stop-color="#6a3a26"/><stop offset="1.0" stop-color="#673926" stop-opacity="0.0"/></linearGradient><linearGradient gradientUnits="userSpaceOnUse" x1="-819.2" x2="819.2" spreadMethod="pad" gradientTransform="matrix(0.0,-0.00634765625,0.0231475830078,1.52587890625e-05,-50.25,349.2)" id="gradient15"><stop offset="0.0" stop-color="#884d31"/><stop offset="1.0" stop-color="#864c31" stop-opacity="0.0"/></linearGradient><g id="c19"><path stroke="none" fill="url(#gradient11)" d="M-11.95 362.95 L-11.5 353.15 -10.5 336.35 Q-6.3 331.5 -1.5 333.45 0.55 334.3 2.65 336.35 0.9 342.25 -1.5 347.4 L-4.55 353.15 Q-7.8 358.55 -11.95 362.95"/><path stroke="none" fill="url(#gradient12)" d="M-14.45 336.35 Q-13.2 345.35 -13.7 353.15 -14.2 360.75 -16.35 367.15 L-17.7 368.2 Q-24.25 364.75 -29.7 353.15 -33.0 346.2 -35.95 336.35 -27.75 326.4 -14.45 336.35"/><path stroke="none" fill="url(#gradient13)" d="M-14.45 336.35 Q-12.15 340.2 -10.5 336.35 L-11.5 353.15 -11.95 362.95 -16.35 367.15 Q-14.2 360.75 -13.7 353.15 -13.2 345.35 -14.45 336.35 M-35.95 336.35 Q-33.0 346.2 -29.7 353.15 -24.25 364.75 -17.7 368.2 -18.45 378.95 -17.45 390.05 -19.6 400.0 -22.75 408.95 -29.15 387.4 -43.2 381.85 -53.75 389.75 -51.4 419.0 -53.6 432.45 -42.35 441.1 L-45.6 441.2 Q-66.15 436.4 -67.9 396.5 -49.0 405.4 -52.25 368.85 L-56.95 353.15 Q-59.85 344.05 -62.7 336.35 L-60.25 337.85 Q-56.9 344.25 -53.7 353.15 L-53.3 354.35 Q-23.5 397.85 -37.6 353.15 L-40.05 345.7 Q-40.6 340.85 -40.95 339.7 L-35.95 336.35"/><path stroke="none" fill="url(#gradient14)" d="M-62.7 336.35 Q-59.85 344.05 -56.95 353.15 L-52.25 368.85 Q-49.0 405.4 -67.9 396.5 L-68.05 391.95 Q-68.1 391.0 -75.8 373.35 -78.95 366.2 -80.35 353.15 L-80.6 350.35 Q-81.2 344.0 -81.4 336.35 -80.1 332.75 -78.3 330.95 -72.8 325.45 -62.7 336.35"/><path stroke="none" fill="url(#gradient15)" d="M-60.25 337.85 Q-48.75 344.9 -40.95 339.7 -40.6 340.85 -40.05 345.7 L-37.6 353.15 Q-23.5 397.85 -53.3 354.35 L-53.7 353.15 Q-56.9 344.25 -60.25 337.85"/><path fill="#76412c" stroke="none" d="M-42.35 441.1 Q-53.6 432.45 -51.4 419.0 -53.75 389.75 -43.2 381.85 -29.15 387.4 -22.75 408.95 -19.25 439.05 -42.35 441.1"/><path fill="none" stroke="#000000" stroke-width="0.5" stroke-opacity="0.301960784314" d="M-16.35 367.15 L-11.95 362.95 M-1.5 347.4 L-4.55 353.15 Q-7.8 358.55 -11.95 362.95 M-17.7 368.2 L-16.35 367.15 M-67.9 396.5 Q-66.15 436.4 -45.6 441.2 L-42.35 441.1 Q-19.25 439.05 -22.75 408.95 -19.6 400.0 -17.45 390.05 -18.45 378.95 -17.7 368.2 M-80.6 350.35 L-80.35 353.15 Q-78.95 366.2 -75.8 373.35 -68.1 391.0 -68.05 391.95 L-67.9 396.5 -69.7 399.7 M-22.75 408.95 L-19.95 410.35"/></g><g id="c20"><g><use transform="matrix(1.0,0.0,0.0,1.0,0.0,0.0)" xlink:href="#c19"/></g></g><linearGradient gradientUnits="userSpaceOnUse" x1="-819.2" x2="819.2" spreadMethod="pad" gradientTransform="matrix(0.0507965087891,-0.0257415771484,0.0109405517578,0.0274047851562,-1.85,79.8)" id="gradient16"><stop offset="0.0" stop-color="#876833"/><stop offset="1.0" stop-color="#764b23"/></linearGradient><linearGradient gradientUnits="userSpaceOnUse" x1="-819.2" x2="819.2" spreadMethod="pad" gradientTransform="matrix(0.0173187255859,-0.00827026367188,0.00582885742188,0.0160217285156,-17.85,116.75)" id="gradient17"><stop offset="0.0" stop-color="#e0a35e"/><stop offset="1.0" stop-color="#ca7e44"/></linearGradient><g id="c21"><path fill="#5b3a1c" stroke="none" d="M-5.65 1.0 Q-2.45 3.5 -1.05 6.75 L-1.4 6.9 Q-10.65 3.6 -22.0 7.9 L-22.65 8.1 -23.05 8.25 Q-13.65 -1.1 -25.1 1.35 -16.1 -1.15 -5.65 1.0 M-62.25 44.1 Q-61.1 36.25 -52.75 26.1 -48.8 20.1 -44.55 15.6 -51.1 25.65 -36.35 15.55 -39.55 17.85 -41.55 20.2 -55.85 30.7 -62.25 44.1"/><path fill="#e09b59" stroke="none" d="M-23.05 8.25 L-22.65 8.1 -22.0 7.9 Q-10.65 3.6 -1.4 6.9 L-1.05 6.75 Q0.3 10.0 -0.05 13.9 -21.75 -2.4 -62.15 45.9 L-62.25 44.1 Q-55.85 30.7 -41.55 20.2 -39.55 17.85 -36.35 15.55 L-36.1 15.4 Q-31.1 11.8 -23.05 8.25 M-59.55 50.35 L-59.6 50.3 -59.25 50.0 -59.55 50.35"/><path stroke="none" fill="url(#gradient16)" d="M-25.1 1.35 Q-13.65 -1.1 -23.05 8.25 -31.1 11.8 -36.1 15.4 L-36.35 15.55 Q-51.1 25.65 -44.55 15.6 -35.6 5.8 -25.1 1.35"/><path stroke="none" fill="url(#gradient17)" d="M-4.15 25.95 Q-7.5 32.15 -13.55 39.6 -32.35 56.2 -50.3 53.85 -56.6 52.7 -59.55 50.35 L-59.25 50.0 Q-57.65 35.75 -43.35 36.85 -37.7 16.25 -30.3 27.55 -9.8 -0.5 -4.15 25.95"/><path fill="#c16c35" stroke="none" d="M-0.05 13.9 Q-0.5 19.25 -4.15 25.95 -9.8 -0.5 -30.3 27.55 -37.7 16.25 -43.35 36.85 -57.65 35.75 -59.25 50.0 L-59.6 50.3 Q-61.85 48.5 -62.15 45.9 -21.75 -2.4 -0.05 13.9"/><path fill="none" stroke="#000000" stroke-width="0.5" stroke-opacity="0.301960784314" d="M-5.65 1.0 Q-16.1 -1.15 -25.1 1.35 -35.6 5.8 -44.55 15.6 L-45.3 15.6 M-4.15 25.95 Q-7.5 32.15 -13.55 39.6 -32.35 56.2 -50.3 53.85 -56.6 52.7 -59.55 50.35 L-59.6 50.3 Q-61.85 48.5 -62.15 45.9 L-62.25 44.1 Q-61.1 36.25 -52.75 26.1 -48.8 20.1 -44.55 15.6"/></g><g id="c22"><g><use transform="matrix(1.0,0.0,0.0,1.0,0.0,0.0)" xlink:href="#c21"/></g></g><linearGradient gradientUnits="userSpaceOnUse" x1="-819.2" x2="819.2" spreadMethod="pad" gradientTransform="matrix(0.0439147949219,0.0194244384766,-0.0133666992188,0.0289001464844,-75.5,76.1)" id="gradient18"><stop offset="0.0" stop-color="#876833"/><stop offset="1.0" stop-color="#764b23"/></linearGradient><linearGradient gradientUnits="userSpaceOnUse" x1="-819.2" x2="819.2" spreadMethod="pad" gradientTransform="matrix(0.0307159423828,0.00469970703125,-0.00405883789062,0.0178375244141,-87.7,114.85)" id="gradient19"><stop offset="0.0" stop-color="#e0a35e"/><stop offset="1.0" stop-color="#ca7e44"/></linearGradient><linearGradient gradientUnits="userSpaceOnUse" x1="-819.2" x2="819.2" spreadMethod="pad" gradientTransform="matrix(0.0142517089844,-0.00379943847656,-0.00251770019531,-0.0155181884766,-57.6,50.45)" id="gradient20"><stop offset="0.0" stop-color="#ffea9c"/><stop offset="1.0" stop-color="#ebc873"/></linearGradient><linearGradient gradientUnits="userSpaceOnUse" x1="-819.2" x2="819.2" spreadMethod="pad" gradientTransform="matrix(0.00514221191406,-0.005615234375,-0.0121612548828,-0.00958251953125,-36.5,45.4)" id="gradient21"><stop offset="0.0" stop-color="#dcbb70"/><stop offset="0.964705882353" stop-color="#9b7a4a"/></linearGradient><g id="c23"><path stroke="none" fill="url(#gradient18)" d="M-32.9 1.1 L-32.85 1.1 Q-28.35 3.2 -24.35 5.7 -16.9 11.75 -18.75 15.9 -22.25 17.65 -35.35 10.8 -44.8 4.8 -43.95 2.9 -40.5 -0.65 -32.9 1.1"/><path fill="#5b3a1c" stroke="none" d="M-32.9 1.05 L-32.9 1.1 Q-40.5 -0.65 -43.95 2.9 -44.8 4.8 -35.35 10.8 -22.25 17.65 -18.75 15.9 -16.9 11.75 -24.35 5.7 -13.5 9.0 -11.45 16.35 -6.65 31.6 -17.75 31.3 L-17.9 31.15 Q-34.1 5.4 -56.4 3.95 -50.45 0.4 -43.45 0.05 -38.45 -0.25 -32.9 1.05"/><path fill="#c16c35" stroke="none" d="M-63.2 9.6 Q-33.6 1.5 -25.1 34.3 -25.05 39.45 -32.15 41.75 -21.5 29.2 -36.45 24.05 -37.55 7.35 -51.55 14.1 -57.05 2.8 -68.1 21.3 -67.55 14.7 -63.2 9.6"/><path fill="#eaab64" stroke="none" d="M-11.45 16.35 Q-4.9 23.15 -0.3 31.9 0.35 74.75 -38.5 66.3 -40.8 62.1 -43.25 58.3 L-43.0 58.1 Q-46.7 47.55 -36.1 42.7 L-32.15 41.75 Q-25.05 39.45 -25.1 34.3 -33.6 1.5 -63.2 9.6 L-62.2 8.4 Q-59.4 5.8 -56.5 4.0 L-56.4 3.95 Q-34.1 5.4 -17.9 31.15 L-17.75 31.3 Q-6.65 31.6 -11.45 16.35 M-32.6 42.2 L-32.15 41.75 -32.6 42.2"/><path stroke="none" fill="url(#gradient19)" d="M-68.1 21.3 Q-57.05 2.8 -51.55 14.1 -37.55 7.35 -36.45 24.05 -21.5 29.2 -32.15 41.75 L-36.1 42.7 Q-46.7 47.55 -43.0 58.1 L-43.25 58.3 Q-45.85 49.75 -51.55 45.15 -61.45 43.55 -67.6 35.85 -71.45 32.35 -68.1 21.3"/><path fill="none" stroke="#000000" stroke-width="0.5" stroke-opacity="0.301960784314" d="M-11.3 15.9 L-11.45 16.35 Q-4.9 23.15 -0.3 31.9 L-0.35 31.1 M-32.9 1.1 L-32.85 1.1 -32.9 1.05 Q-38.45 -0.25 -43.45 0.05 M-24.35 5.7 Q-28.35 3.2 -32.85 1.1 M-32.15 41.75 L-32.6 42.2 M-11.45 16.35 Q-13.5 9.0 -24.35 5.7 M-67.6 35.85 Q-61.45 43.55 -51.55 45.15 -45.85 49.75 -43.25 58.3 -40.8 62.1 -38.5 66.3 0.35 74.75 -0.3 31.9 L0.0 32.2"/><path stroke="none" fill="url(#gradient20)" d="M-46.9 33.05 L-43.9 34.55 Q-48.3 40.25 -47.25 44.8 -72.75 50.8 -75.35 37.7 L-55.35 23.5 -55.9 24.75 -55.8 24.85 Q-60.1 33.2 -71.35 37.75 -58.45 42.95 -46.9 33.05"/><path stroke="none" fill="url(#gradient21)" d="M-55.8 24.85 Q-52.85 29.7 -46.9 33.05 -58.45 42.95 -71.35 37.75 -60.1 33.2 -55.8 24.85"/><path fill="none" stroke="#000000" stroke-width="0.5" stroke-opacity="0.301960784314" d="M-46.9 33.05 L-43.9 34.55 Q-48.3 40.25 -47.25 44.8 -72.75 50.8 -75.35 37.7 L-55.35 23.5 -55.9 24.75 -55.8 24.85 Q-52.85 29.7 -46.9 33.05"/><path fill="#ffffff" fill-opacity="0.4" d="M-52.85 39.35 Q-50.1 37.8 -50.05 36.25 -50.05 34.6 -52.2 34.2 -54.4 33.75 -56.95 35.05 -59.5 36.4 -64.05 36.75 L-70.2 37.15 Q-71.7 37.25 -65.95 41.25 -63.15 41.85 -59.4 41.3 -55.55 40.85 -52.85 39.35"/></g><g id="c24"><g><use transform="matrix(1.0,0.0,0.0,1.0,0.0,0.0)" xlink:href="#c23"/></g></g><linearGradient gradientUnits="userSpaceOnUse" x1="-819.2" x2="819.2" spreadMethod="pad" gradientTransform="matrix(-0.0100250244141,-0.00456237792969,-0.0261383056641,0.0395202636719,-12.35,3.9)" id="gradient22"><stop offset="0.0" stop-color="#dcbb70"/><stop offset="0.964705882353" stop-color="#9b7a4a"/></linearGradient><linearGradient gradientUnits="userSpaceOnUse" x1="-819.2" x2="819.2" spreadMethod="pad" gradientTransform="matrix(-0.00790405273438,-0.00555419921875,-0.00863647460938,0.0089111328125,-16.4,27.4)" id="gradient23"><stop offset="0.0" stop-color="#ffea9c"/><stop offset="1.0" stop-color="#ebc873"/></linearGradient><g id="c25"><path fill="#c16c35" stroke="none" d="M-7.9 0.45 Q-5.55 -1.05 -1.35 2.5 -13.05 0.85 -15.1 14.1 -19.4 10.85 -28.6 15.2 L-18.7 10.25 -7.9 0.45"/><path fill="#d99856" stroke="none" d="M-28.6 15.2 Q-19.4 10.85 -15.1 14.1 -13.05 0.85 -1.35 2.5 L-0.05 3.6 Q0.65 20.05 -9.25 22.7 -17.3 24.35 -23.85 26.25 -52.05 40.4 -41.5 27.35 -38.15 22.2 -34.0 17.85 L-32.7 17.25 -28.9 15.35 -28.6 15.2"/><path fill="#eaab64" stroke="none" d="M-7.9 0.45 L-18.7 10.25 -28.6 15.2 -28.9 15.35 -32.7 17.25 -32.8 17.0 -31.05 15.7 -30.75 15.5 -15.2 3.8 -14.75 3.6 -13.35 2.9 Q-10.15 1.05 -7.9 0.45"/><path fill="#5b3a1c" stroke="none" d="M-32.95 16.8 Q-25.35 9.1 -15.2 3.8 L-30.75 15.5 -31.05 15.7 -32.8 17.0 -32.95 16.8"/><path fill="none" stroke="#000000" stroke-width="0.5" stroke-opacity="0.301960784314" d="M-9.25 22.7 Q-17.3 24.35 -23.85 26.25 -52.05 40.4 -41.5 27.35 -38.15 22.2 -34.0 17.85 L-32.95 16.8 Q-25.35 9.1 -15.2 3.8 M-31.05 15.7 L-30.75 15.5"/><path stroke="none" fill="url(#gradient22)" d="M-22.8 33.55 L-23.35 33.4 Q-28.4 32.6 -34.15 26.75 -25.95 24.05 -24.35 18.0 -20.05 26.5 -12.75 31.35 -15.85 33.95 -22.8 33.55"/><path stroke="none" fill="url(#gradient23)" d="M-24.35 18.0 Q-17.8 20.55 -14.25 19.5 -13.0 27.6 -6.25 31.85 L-7.05 32.55 Q-15.75 36.2 -22.8 33.55 -15.85 33.95 -12.75 31.35 -20.05 26.5 -24.35 18.0"/><path fill="none" stroke="#000000" stroke-width="0.5" stroke-opacity="0.301960784314" d="M-22.8 33.55 L-23.35 33.4 Q-28.4 32.6 -34.15 26.75 -25.95 24.05 -24.35 18.0 -17.8 20.55 -14.25 19.5 -13.0 27.6 -6.25 31.85 L-7.05 32.55 Q-15.75 36.2 -22.8 33.55"/><path fill="#ffffff" fill-opacity="0.4" d="M-23.05 23.4 Q-23.8 21.25 -22.75 20.55 -21.7 19.85 -19.95 20.8 -18.25 21.75 -17.4 23.65 -16.65 25.6 -13.9 28.15 L-10.15 31.5 Q-9.25 32.4 -15.7 31.1 -17.95 29.9 -20.0 27.65 -22.25 25.45 -23.05 23.4"/></g><g id="c26"><g><use transform="matrix(1.0,0.0,0.0,1.0,0.0,0.0)" xlink:href="#c25"/></g></g><g id="c27"><path fill="#4a291c" stroke="none" d="M-5.15 96.15 Q-1.35 110.2 1.5 106.6 4.25 103.0 -3.3 61.3 -0.95 17.9 -6.45 8.95 -12.4 11.5 -14.05 33.25 -15.6 -26.7 18.65 21.45 21.1 131.1 -12.1 175.2 -23.5 180.9 -15.3 168.2 -2.45 142.15 -6.45 123.7 -10.7 102.7 -5.15 96.15"/><path fill="#6a3a26" stroke="none" d="M-14.05 33.25 Q-12.4 11.5 -6.45 8.95 -0.95 17.9 -3.3 61.3 4.25 103.0 1.5 106.6 -1.35 110.2 -5.15 96.15 -14.8 71.95 -14.45 53.5 L-14.05 33.25"/><path fill="none" stroke="#000000" stroke-width="0.5" stroke-opacity="0.301960784314" d="M-5.15 96.15 Q-10.7 102.7 -6.45 123.7 -2.45 142.15 -15.3 168.2 -23.5 180.9 -12.1 175.2 21.1 131.1 18.65 21.45 M-14.05 33.25 L-14.45 53.5 Q-14.8 71.95 -5.15 96.15"/></g><g id="c28"><g><use transform="matrix(1.0,0.0,0.0,1.0,0.0,0.0)" xlink:href="#c27"/></g></g><g id="c29"><path fill="#b96a42" stroke="none" d="M-36.75 13.5 Q-30.1 3.65 -19.95 1.7 -5.7 -3.05 -3.3 5.45 -0.55 10.15 -0.15 14.85 -4.45 8.6 -9.0 7.75 L-9.1 7.95 Q-19.55 8.05 -30.55 18.85 -43.15 30.05 -36.75 13.5 M-49.55 47.75 Q-52.0 39.75 -44.3 25.9 -37.8 21.15 -37.9 28.95 -45.6 38.45 -43.3 50.45 -45.85 57.1 -49.55 47.75"/><path fill="#935434" stroke="none" d="M-0.15 14.85 L-0.1 15.0 Q0.3 19.4 -1.4 23.85 -0.85 37.75 -18.05 52.75 -27.2 61.9 -40.9 60.6 -49.5 58.15 -49.55 47.75 -45.85 57.1 -43.3 50.45 -45.6 38.45 -37.9 28.95 -37.8 21.15 -44.3 25.9 L-43.15 21.4 Q-42.15 18.0 -36.75 13.5 -43.15 30.05 -30.55 18.85 -19.55 8.05 -9.1 7.95 L-9.0 7.75 Q-4.45 8.6 -0.15 14.85"/><path fill="none" stroke="#000000" stroke-width="0.5" stroke-opacity="0.301960784314" d="M-36.75 13.5 Q-30.1 3.65 -19.95 1.7 -5.7 -3.05 -3.3 5.45 -0.55 10.15 -0.15 14.85 L-0.1 15.0 Q0.3 19.4 -1.4 23.85 -0.85 37.75 -18.05 52.75 -27.2 61.9 -40.9 60.6 -49.5 58.15 -49.55 47.75 -52.0 39.75 -44.3 25.9 L-43.15 21.4 Q-42.15 18.0 -36.75 13.5 L-37.0 13.3"/><path fill="#eac084" stroke="none" d="M-35.85 20.55 Q-27.75 8.4 -19.15 3.8 -10.45 2.05 -19.2 6.4 -28.05 11.1 -35.85 20.55"/><path fill="#ffffc9" stroke="none" d="M-19.6 7.25 Q-20.15 7.75 -20.6 7.7 -21.15 7.6 -21.3 7.05 -21.45 6.45 -21.2 5.7 L-20.4 4.45 Q-19.9 3.95 -19.45 4.0 -18.9 4.05 -18.75 4.65 -18.6 5.2 -18.85 6.0 L-19.6 7.25"/></g><g id="c30"><g><use transform="matrix(1.0,0.0,0.0,1.0,0.0,0.05)" xlink:href="#c29"/></g></g><linearGradient gradientUnits="userSpaceOnUse" x1="-819.2" x2="819.2" spreadMethod="pad" gradientTransform="matrix(0.00971984863281,-0.0210723876953,0.0401000976562,0.0360717773438,0.55,88.55)" id="gradient24"><stop offset="0.0" stop-color="#874d31"/><stop offset="0.972549019608" stop-color="#593121"/><stop offset="1.0" stop-color="#5c3322"/></linearGradient><g id="c31"><path stroke="none" fill="url(#gradient24)" d="M0.55 63.45 Q7.95 38.1 10.2 15.4 15.95 -19.85 20.8 25.65 21.1 79.5 -4.35 103.3 -26.8 120.4 -18.55 98.05 -13.65 93.7 -9.4 87.3 -20.65 105.55 -11.1 99.8 -2.4 92.65 3.5 69.8 4.6 54.55 1.75 61.0 L0.75 63.55 0.55 63.45"/><path fill="#9e5a38" stroke="none" d="M1.75 61.0 Q4.6 54.55 3.5 69.8 -2.4 92.65 -11.1 99.8 -20.65 105.55 -9.4 87.3 L-9.15 86.85 -8.5 85.8 Q-2.65 76.15 1.65 62.2 L1.9 61.2 1.75 61.0"/><path fill="none" stroke="#000000" stroke-width="0.5" stroke-opacity="0.301960784314" d="M-9.4 87.3 Q-13.65 93.7 -18.55 98.05 -26.8 120.4 -4.35 103.3 21.1 79.5 20.8 25.65 15.95 -19.85 10.2 15.4 7.95 38.1 0.55 63.45 M0.75 63.55 L1.75 61.0 M-9.4 87.3 L-9.15 86.85 -8.5 85.8 Q-2.65 76.15 1.65 62.2 L1.45 62.5 -1.55 70.4 -1.25 69.5 0.4 64.0 0.55 63.45 M0.75 63.55 L1.45 62.5 1.9 61.2 1.65 62.2 M0.4 64.0 L0.75 63.55 -1.25 69.5"/></g><g id="c32"><g><use transform="matrix(1.0,0.0,0.0,1.0,0.0,0.0)" xlink:href="#c31"/></g></g><g id="c33"><path fill="#76412c" stroke="none" d="M-8.25 15.5 L-23.85 32.6 Q-28.35 23.05 -23.75 12.3 -17.0 0.15 -7.4 0.0 7.8 7.4 -8.25 15.5"/><path fill="none" stroke="#000000" stroke-width="0.5" stroke-opacity="0.301960784314" d="M-7.4 0.0 Q-17.0 0.15 -23.75 12.3 -28.35 23.05 -23.85 32.6 L-8.25 15.5"/></g><g id="c34"><g><use transform="matrix(1.0,0.0,0.0,1.0,0.0,0.0)" xlink:href="#c33"/></g></g><radialGradient gradientUnits="userSpaceOnUse" r="819.2" cx="0" cy="0" spreadMethod="pad" gradientTransform="matrix(0.0906219482422,0.0,-0.00704956054688,0.0906219482422,-48.35,15.3)" id="gradient25"><stop offset="0.392156862745" stop-color="#76412c"/><stop offset="0.745098039216" stop-color="#4a291c"/></radialGradient><g id="c35"><path stroke="none" fill="url(#gradient25)" d="M-73.7 9.95 Q-69.85 1.1 -50.7 0.0 6.25 17.95 -0.75 64.5 -8.8 74.9 -20.0 69.5 -48.35 51.0 -73.7 9.95"/><path fill="none" stroke="#000000" stroke-width="0.5" stroke-opacity="0.301960784314" d="M-73.7 9.95 Q-69.85 1.1 -50.7 0.0 6.25 17.95 -0.75 64.5 -8.8 74.9 -20.0 69.5"/></g><g id="c36"><g><use transform="matrix(1.0,0.0,0.0,1.0,0.0,0.0)" xlink:href="#c35"/></g></g><linearGradient gradientUnits="userSpaceOnUse" x1="-819.2" x2="819.2" spreadMethod="pad" gradientTransform="matrix(0.0363464355469,0.0986175537109,-0.0599670410156,0.0438385009766,-9.8,50.05)" id="gradient26"><stop offset="0.0" stop-color="#b96a42"/><stop offset="1.0" stop-color="#5a3221"/></linearGradient><g id="c37"><path fill="#ae6140" stroke="none" d="M5.85 17.45 Q12.2 23.15 15.45 32.75 25.35 61.5 15.75 88.2 13.25 97.3 12.7 75.8 13.0 56.25 6.4 43.2 -13.9 7.4 -7.1 8.85 -2.2 7.65 5.85 17.45"/><path stroke="none" fill="url(#gradient26)" d="M3.45 12.9 L5.85 17.45 Q-2.2 7.65 -7.1 8.85 -13.9 7.4 6.4 43.2 13.0 56.25 12.7 75.8 13.25 97.3 15.75 88.2 12.6 101.2 11.75 110.8 10.0 108.15 7.2 120.05 7.3 139.3 10.25 148.75 L10.2 148.9 Q7.1 172.15 -6.9 171.8 -16.85 161.2 -18.65 119.15 L-17.5 91.65 Q-8.7 132.25 -12.8 78.2 -16.75 61.35 -18.0 45.9 L-18.05 41.65 -17.35 31.8 Q-15.7 69.6 -0.3 92.65 3.55 89.2 -1.3 37.7 -10.95 7.25 -15.75 17.2 -10.55 -14.85 3.45 12.9 M8.15 113.35 L11.55 100.75 Q14.95 88.35 5.35 47.25 2.1 32.55 2.55 101.75 L2.6 102.2 Q6.25 122.05 8.15 113.35 M1.25 147.75 Q8.55 148.5 5.7 123.3 -8.15 78.25 -9.25 82.95 L-9.3 83.2 -9.35 84.05 Q-11.25 120.6 1.25 147.75"/><path fill="#925334" stroke="none" d="M1.25 147.75 Q-11.25 120.6 -9.35 84.05 L-9.3 83.2 -9.25 82.95 Q-8.15 78.25 5.7 123.3 8.55 148.5 1.25 147.75"/><path fill="#6c3f2d" stroke="none" d="M11.75 110.8 Q13.7 119.7 13.05 128.4 12.75 144.05 10.25 148.75 7.3 139.3 7.2 120.05 10.0 108.15 11.75 110.8"/><path fill="#a25d3a" stroke="none" d="M-17.5 91.65 Q-23.25 67.45 -18.0 45.9 -16.75 61.35 -12.8 78.2 -8.7 132.25 -17.5 91.65 M8.15 113.35 Q6.25 122.05 2.6 102.2 L2.55 101.75 Q2.1 32.55 5.35 47.25 14.95 88.35 11.55 100.75 L8.15 113.35"/><path fill="#b96a42" stroke="none" d="M-17.35 31.8 L-17.5 27.75 Q-17.65 23.95 -17.25 21.5 -16.85 18.95 -15.75 17.2 -10.95 7.25 -1.3 37.7 3.55 89.2 -0.3 92.65 -15.7 69.6 -17.35 31.8"/><path fill="none" stroke="#000000" stroke-width="0.5" stroke-opacity="0.301960784314" d="M3.45 12.9 L5.85 17.45 Q12.2 23.15 15.45 32.75 25.35 61.5 15.75 88.2 12.6 101.2 11.75 110.8 13.7 119.7 13.05 128.4 12.75 144.05 10.25 148.75 L10.2 148.9 Q7.1 172.15 -6.9 171.8 -16.85 161.2 -18.65 119.15 L-17.5 91.65 Q-23.25 67.45 -18.0 45.9 L-18.05 41.65 -17.35 31.8 -17.5 27.75 Q-17.65 23.95 -17.25 21.5 -16.85 18.95 -15.75 17.2"/><path fill="#eac084" stroke="none" d="M-11.55 34.8 Q-9.5 56.75 -2.7 76.65 -12.0 55.7 -14.0 34.4 -13.35 13.1 -11.55 34.8"/><path fill="#ffffc9" stroke="none" d="M-10.9 36.05 Q-10.55 37.35 -10.75 38.6 -10.95 39.75 -11.55 40.1 -12.1 40.45 -12.75 39.8 L-13.75 37.7 -13.9 35.25 Q-13.7 34.05 -13.15 33.7 -12.55 33.35 -11.9 34.05 -11.2 34.75 -10.9 36.05"/></g><g id="c38"><g><use transform="matrix(1.0,0.0,0.0,1.0,0.0,0.0)" xlink:href="#c37"/></g></g><g id="c39"><path fill="#76412c" stroke="none" d="M0.45 40.35 Q8.9 68.65 9.5 94.05 -1.15 88.45 -2.75 78.3 -4.35 68.1 0.45 40.35"/><path fill="#563021" stroke="none" d="M0.45 40.35 Q-4.35 68.1 -2.75 78.3 -1.15 88.45 9.5 94.05 8.9 68.65 0.45 40.35 M-18.9 89.0 Q-1.05 63.75 -1.85 0.0 17.9 61.75 18.9 117.6 0.15 86.8 -18.9 89.0"/></g><g id="c40"><g><use transform="matrix(1.0,0.0,0.0,1.0,0.0,0.0)" xlink:href="#c39"/></g></g><linearGradient gradientUnits="userSpaceOnUse" x1="-819.2" x2="819.2" spreadMethod="pad" gradientTransform="matrix(-0.00167846679688,0.0606536865234,-0.0678863525391,-0.00558471679688,10.8,112.9)" id="gradient27"><stop offset="0.0" stop-color="#b96a42"/><stop offset="1.0" stop-color="#4a291c"/></linearGradient><g id="c41"><path stroke="none" fill="url(#gradient27)" d="M5.95 84.9 L13.05 96.95 Q12.2 102.85 16.8 113.7 20.75 120.8 25.6 122.95 L25.65 123.1 26.65 128.6 Q21.1 119.6 13.15 113.0 10.15 115.45 11.8 126.65 15.05 141.6 24.55 150.4 L24.85 150.55 Q23.75 153.95 22.05 157.3 8.15 135.0 5.15 129.4 2.15 123.75 -14.55 84.35 -31.25 44.9 -25.7 0.0 -18.0 31.2 -7.2 57.25 -13.8 46.15 -13.75 50.4 -10.8 73.0 -2.4 90.5 4.35 105.1 11.45 105.75 14.45 104.4 5.95 84.9 M9.6 121.65 Q11.15 115.5 8.4 109.4 5.6 104.3 1.05 102.95 1.55 115.5 9.6 121.65"/><path fill="#915334" stroke="none" d="M24.85 150.55 L24.55 150.4 Q15.05 141.6 11.8 126.65 10.15 115.45 13.15 113.0 21.1 119.6 26.65 128.6 L26.7 128.9 Q28.2 140.25 24.85 150.55 M25.6 122.95 Q20.75 120.8 16.8 113.7 12.2 102.85 13.05 96.95 16.55 102.7 20.3 108.05 23.85 115.7 25.6 122.95"/><path fill="#a25d3a" stroke="none" d="M9.6 121.65 Q1.55 115.5 1.05 102.95 5.6 104.3 8.4 109.4 11.15 115.5 9.6 121.65"/><path fill="#cb8045" stroke="none" d="M5.95 84.9 Q14.45 104.4 11.45 105.75 4.35 105.1 -2.4 90.5 -10.8 73.0 -13.75 50.4 -13.8 46.15 -7.2 57.25 L-6.95 57.7 Q-1.0 72.1 5.95 84.9"/><path fill="none" stroke="#000000" stroke-width="0.5" stroke-opacity="0.301960784314" d="M13.05 96.95 L5.95 84.9 Q-1.0 72.1 -6.95 57.7 L-7.2 57.25 Q-18.0 31.2 -25.7 0.0 M22.05 157.3 Q23.75 153.95 24.85 150.55 28.2 140.25 26.7 128.9 L26.65 128.6 25.65 123.1 25.6 122.95 M13.05 96.95 Q16.55 102.7 20.3 108.05 23.85 115.7 25.6 122.95"/></g><g id="c42"><g><use transform="matrix(1.0,0.0,0.0,1.0,0.0,0.0)" xlink:href="#c41"/></g></g><linearGradient gradientUnits="userSpaceOnUse" x1="-819.2" x2="819.2" spreadMethod="pad" gradientTransform="matrix(0.0220642089844,0.0760192871094,-0.0719909667969,0.0448150634766,10.8,104.6)" id="gradient28"><stop offset="0.0" stop-color="#935434"/><stop offset="1.0" stop-color="#76412c"/></linearGradient><g id="c43"><path stroke="none" fill="url(#gradient28)" d="M15.8 181.9 Q-1.3 157.85 -8.2 121.2 -29.95 30.3 -12.75 16.05 -12.85 28.05 -12.35 52.6 -14.95 28.7 -16.15 33.0 -18.85 52.7 -14.75 72.4 -9.25 91.05 -6.95 81.6 L-3.2 98.55 Q-8.0 84.15 -8.45 90.5 -10.25 101.65 -3.85 124.55 23.5 200.75 9.05 137.6 L14.2 150.4 Q24.95 168.75 17.1 182.0 L15.8 181.9"/><path fill="#945b2d" stroke="none" d="M15.8 181.9 Q8.65 180.75 3.95 166.6 L3.85 166.35 3.15 163.85 Q-4.1 146.4 -8.2 121.2 -1.3 157.85 15.8 181.9"/><path fill="#a25d3a" stroke="none" d="M-6.95 81.6 Q-9.25 91.05 -14.75 72.4 -18.85 52.7 -16.15 33.0 -14.95 28.7 -12.35 52.6 -10.95 60.9 -6.95 81.6"/><path fill="#925334" stroke="none" d="M9.05 137.6 Q23.5 200.75 -3.85 124.55 -10.25 101.65 -8.45 90.5 -8.0 84.15 -3.2 98.55 L-0.8 106.2 9.05 137.6"/><path fill="none" stroke="#000000" stroke-width="0.5" stroke-opacity="0.301960784314" d="M-8.2 121.2 Q-4.1 146.4 3.15 163.85 L2.55 164.3 M14.2 150.4 L9.05 137.6 -0.8 106.2 -3.2 98.55 -6.95 81.6 Q-10.95 60.9 -12.35 52.6 -12.85 28.05 -12.75 16.05 -29.95 30.3 -8.2 121.2 M-11.9 0.0 L-12.3 3.25 -12.55 10.45 -12.75 16.05"/></g><g id="c44"><g><use transform="matrix(1.0,0.0,0.0,1.0,0.0,0.0)" xlink:href="#c43"/></g></g><g id="c45"><path fill="#b96a42" stroke="none" d="M-51.8 1.6 Q-39.35 4.8 -29.6 14.15 L-23.85 21.4 -23.75 21.55 Q-21.35 31.3 -26.1 30.35 -43.1 23.05 -57.45 13.3 -65.55 7.85 -63.35 3.75 -60.5 1.2 -51.8 1.6 M-13.2 37.0 L-13.05 37.2 -12.35 38.45 -12.2 38.65 Q-9.0 44.65 -13.55 49.0 -17.65 48.45 -21.55 42.25 -25.95 36.4 -24.95 31.95 -21.65 29.75 -13.2 37.0 M-8.0 46.45 L-5.2 52.1 Q-6.9 60.15 -11.15 57.35 -13.25 54.75 -11.65 51.0 -10.85 46.25 -8.0 46.45"/><path fill="#935434" stroke="none" d="M-51.8 1.6 Q-60.5 1.2 -63.35 3.75 -65.55 7.85 -57.45 13.3 -43.1 23.05 -26.1 30.35 -21.35 31.3 -23.75 21.55 -17.9 29.2 -13.2 37.0 -21.65 29.75 -24.95 31.95 -25.95 36.4 -21.55 42.25 -17.65 48.45 -13.55 49.0 -9.0 44.65 -12.2 38.65 L-7.95 46.35 -8.0 46.45 Q-10.85 46.25 -11.65 51.0 -13.25 54.75 -11.15 57.35 -6.9 60.15 -5.2 52.1 -2.6 57.8 -0.65 63.5 1.6 74.0 -3.85 83.2 L-8.15 72.55 Q-39.85 8.1 -69.15 15.95 -75.1 4.75 -63.4 0.0 -57.35 0.2 -51.8 1.6"/><path fill="none" stroke="#000000" stroke-width="0.5" stroke-opacity="0.301960784314" d="M-23.75 21.55 L-23.85 21.4 -29.6 14.15 Q-39.35 4.8 -51.8 1.6 L-50.55 1.35 M-23.75 21.55 Q-17.9 29.2 -13.2 37.0 L-13.05 37.2 -12.35 38.45 -12.2 38.65 -7.95 46.35 -8.0 46.45 -5.2 52.1 Q-2.6 57.8 -0.65 63.5 1.6 74.0 -3.85 83.2 L-8.15 72.55 Q-39.85 8.1 -69.15 15.95 M-63.4 0.0 Q-57.35 0.2 -51.8 1.6"/><path fill="#f0d906" fill-opacity="0.301960784314" d="M-43.95 21.95 Q-89.95 -2.35 -53.35 9.0 -32.0 20.35 -23.2 34.25 -18.35 35.65 -12.0 50.15 -5.7 64.6 -19.2 46.6 L-43.95 21.95"/></g><g id="c46"><g><use transform="matrix(1.0,0.0,0.0,1.0,0.0,0.0)" xlink:href="#c45"/></g></g><g id="c47"><path fill="#76412c" stroke="none" d="M-53.75 46.4 Q-88.5 38.8 -92.2 8.95 -79.9 45.85 -6.5 29.6 -26.4 49.0 -53.75 46.4"/><path fill="none" stroke="#000000" stroke-width="0.5" stroke-opacity="0.301960784314" d="M-53.75 46.4 Q-88.5 38.8 -92.2 8.95 -79.9 45.85 -6.5 29.6 -26.4 49.0 -53.75 46.4"/><path fill="#b96a42" stroke="none" d="M-26.9 29.4 Q-25.8 33.3 -28.35 36.55 -34.15 34.5 -34.45 31.2 L-30.75 29.8 -26.9 29.4 M-40.3 30.25 Q-37.7 31.6 -35.85 33.3 -33.8 35.1 -32.55 37.2 L-36.05 37.8 Q-43.6 38.9 -51.85 37.55 -59.0 36.05 -59.2 30.55 L-50.15 29.95 -48.35 30.1 -44.65 30.2 -40.3 30.25 M-66.7 27.95 Q-64.1 28.85 -62.55 30.2 -60.4 32.0 -60.1 34.55 -64.85 37.2 -72.0 36.2 -77.0 36.1 -79.2 31.2 L-78.8 30.2 Q-78.25 29.1 -76.95 28.4 -74.85 27.2 -70.8 27.15 L-66.7 27.95 M-77.2 28.0 Q-78.4 29.05 -82.5 28.55 L-91.2 20.15 Q-95.85 13.65 -95.85 7.1 -94.8 1.75 -90.25 8.4 -85.2 18.4 -77.7 24.2 -75.95 26.95 -77.2 28.0"/><path fill="#935434" stroke="none" d="M-30.75 29.8 L-34.45 31.2 Q-34.15 34.5 -28.35 36.55 -25.8 33.3 -26.9 29.4 L-16.4 27.8 0.0 22.0 Q-6.45 31.8 -23.7 40.05 -29.85 41.45 -36.25 42.1 -56.55 44.0 -78.75 37.75 -83.55 34.55 -87.5 30.2 -95.7 21.1 -99.95 7.1 -98.15 2.3 -93.75 0.0 -92.15 4.5 -90.25 8.4 -94.8 1.75 -95.85 7.1 -95.85 13.65 -91.2 20.15 L-82.5 28.55 Q-78.4 29.05 -77.2 28.0 L-76.95 28.4 Q-78.25 29.1 -78.8 30.2 L-79.2 31.2 Q-77.0 36.1 -72.0 36.2 -64.85 37.2 -60.1 34.55 -60.4 32.0 -62.55 30.2 -64.1 28.85 -66.7 27.95 -58.4 29.45 -50.15 29.95 L-59.2 30.55 Q-59.0 36.05 -51.85 37.55 -43.6 38.9 -36.05 37.8 L-32.55 37.2 Q-33.8 35.1 -35.85 33.3 -37.7 31.6 -40.3 30.25 L-38.65 30.2 -30.75 29.8"/><path fill="#76412c" stroke="none" d="M-76.95 28.4 L-77.2 28.0 Q-75.95 26.95 -77.7 24.2 L-74.9 26.15 -70.8 27.15 Q-74.85 27.2 -76.95 28.4"/><path fill="none" stroke="#000000" stroke-width="0.5" stroke-opacity="0.301960784314" d="M-26.9 29.4 L-30.75 29.8 -38.65 30.2 -40.3 30.25 -44.65 30.2 -48.35 30.1 -50.15 29.95 Q-58.4 29.45 -66.7 27.95 L-70.8 27.15 -74.9 26.15 -77.7 24.2 Q-85.2 18.4 -90.25 8.4 -92.15 4.5 -93.75 0.0 -98.15 2.3 -99.95 7.1 -95.7 21.1 -87.5 30.2 -83.55 34.55 -78.75 37.75 -56.55 44.0 -36.25 42.1 -29.85 41.45 -23.7 40.05 -6.45 31.8 0.0 22.0 L-16.4 27.8 -26.9 29.4 M-70.8 27.15 L-70.2 26.85"/><path fill="#f0d906" fill-opacity="0.301960784314" d="M-67.4 35.45 Q-79.3 35.35 -92.05 22.0 -102.7 -9.55 -82.6 23.55 -70.45 31.85 -51.6 32.15 -25.75 33.75 -43.35 36.15 -61.0 38.5 -67.4 35.45"/></g><g id="c48"><g><use transform="matrix(1.0,0.0,0.0,1.0,0.0,0.0)" xlink:href="#c47"/></g></g><g id="c49"><g><use transform="matrix(1.0,0.0,0.0,1.0,0.0,0.0)" xlink:href="#c29"/></g></g><linearGradient gradientUnits="userSpaceOnUse" x1="-819.2" x2="819.2" spreadMethod="pad" gradientTransform="matrix(0.0294036865234,-0.0469360351562,0.0261383056641,0.0155639648438,-31.9,52.85)" id="gradient29"><stop offset="0.0" stop-color="#876833"/><stop offset="1.0" stop-color="#764b23"/></linearGradient><linearGradient gradientUnits="userSpaceOnUse" x1="-819.2" x2="819.2" spreadMethod="pad" gradientTransform="matrix(-0.0106964111328,-0.0201416015625,0.0163879394531,-0.00921630859375,-38.95,39.75)" id="gradient30"><stop offset="0.0" stop-color="#e0a35e"/><stop offset="1.0" stop-color="#ca7e44"/></linearGradient><linearGradient gradientUnits="userSpaceOnUse" x1="-819.2" x2="819.2" spreadMethod="pad" gradientTransform="matrix(0.00924682617188,-0.00950622558594,0.0126342773438,0.00730895996094,-61.3,35.05)" id="gradient31"><stop offset="0.0" stop-color="#ffea9c"/><stop offset="1.0" stop-color="#ebc873"/></linearGradient><linearGradient gradientUnits="userSpaceOnUse" x1="-819.2" x2="819.2" spreadMethod="pad" gradientTransform="matrix(0.00709533691406,-0.001953125,0.00340270996094,0.0125732421875,-48.05,20.75)" id="gradient32"><stop offset="0.0" stop-color="#dcbb70"/><stop offset="0.964705882353" stop-color="#9b7a4a"/></linearGradient><g id="c50"><path stroke="none" fill="url(#gradient29)" d="M-17.15 4.45 L-17.0 4.5 Q-15.55 5.25 -14.1 6.1 L-13.25 6.65 Q-10.2 10.05 -20.95 11.4 -11.8 10.55 -5.3 15.85 -0.35 28.0 -22.05 24.0 L-22.35 23.85 -24.4 22.7 Q-30.75 18.0 -28.0 15.7 -35.35 19.55 -43.7 12.8 L-43.7 12.7 Q-44.9 9.5 -41.05 5.85 L-40.9 5.7 Q-28.8 -0.4 -17.15 4.45 M-36.5 7.45 Q-26.75 10.5 -27.8 14.2 -26.3 10.45 -22.65 10.8 L-36.5 7.45"/><path fill="#5b3a1c" stroke="none" d="M-13.25 6.65 Q-5.35 11.65 -2.2 18.75 -1.45 20.6 -1.0 22.6 2.75 38.15 -7.45 45.2 -17.9 50.4 -28.55 51.0 -13.9 40.95 -15.8 29.7 -18.0 26.55 -22.05 24.0 -0.35 28.0 -5.3 15.85 -11.8 10.55 -20.95 11.4 -10.2 10.05 -13.25 6.65 M-36.5 7.45 L-22.65 10.8 Q-26.3 10.45 -27.8 14.2 -26.75 10.5 -36.5 7.45 M-34.5 1.25 Q-31.6 0.35 -28.55 0.0 -22.1 1.9 -17.15 4.45 -28.8 -0.4 -40.9 5.7 -38.6 3.5 -34.5 1.25 M-43.7 12.8 Q-35.35 19.55 -28.0 15.7 -30.75 18.0 -24.4 22.7 -29.75 19.8 -37.75 17.75 -41.75 17.1 -43.1 13.9 L-43.7 12.8"/><path fill="#eaab64" stroke="none" d="M-40.9 5.7 L-41.05 5.85 Q-44.9 9.5 -43.7 12.7 L-43.7 12.8 -43.1 13.9 Q-41.75 17.1 -37.75 17.75 -29.75 19.8 -24.4 22.7 L-22.35 23.85 -22.05 24.0 Q-18.0 26.55 -15.8 29.7 -13.9 40.95 -28.55 51.0 L-32.9 51.0 Q-19.75 41.6 -22.0 31.35 -30.75 21.3 -46.2 18.75 -52.65 17.55 -61.05 30.0 -59.95 26.2 -57.25 21.65 L-57.2 21.55 -57.15 21.4 Q-48.05 5.35 -34.5 1.25 -38.6 3.5 -40.9 5.7"/><path fill="#c16c35" stroke="none" d="M-61.8 34.2 Q-61.7 32.2 -61.05 30.0 -52.65 17.55 -46.2 18.75 -30.75 21.3 -22.0 31.35 -19.75 41.6 -32.9 51.0 L-36.65 50.75 Q-15.75 33.9 -28.5 33.55 -30.1 19.65 -43.7 26.75 -46.4 11.25 -61.8 34.2"/><path stroke="none" fill="url(#gradient30)" d="M-36.65 50.75 Q-40.35 50.35 -44.1 49.35 -62.35 45.9 -61.8 34.2 -46.4 11.25 -43.7 26.75 -30.1 19.65 -28.5 33.55 -15.75 33.9 -36.65 50.75"/><path fill="none" stroke="#000000" stroke-width="0.5" stroke-opacity="0.301960784314" d="M-17.15 4.45 L-17.0 4.5 Q-15.55 5.25 -14.1 6.1 L-13.25 6.65 Q-5.35 11.65 -2.2 18.75 -1.45 20.6 -1.0 22.6 2.75 38.15 -7.45 45.2 M-28.55 51.0 L-28.75 51.3 M-34.5 1.25 Q-31.6 0.35 -28.55 0.0 -22.1 1.9 -17.15 4.45 M-40.9 5.7 L-41.05 5.85 M-43.7 12.7 L-43.7 12.8 M-61.05 30.0 Q-59.95 26.2 -57.25 21.65 L-57.2 21.55 -57.15 21.4 Q-48.05 5.35 -34.5 1.25 M-61.8 34.2 Q-61.7 32.2 -61.05 30.0 M-32.9 51.0 L-28.55 51.0 M-36.65 50.75 Q-40.35 50.35 -44.1 49.35 -62.35 45.9 -61.8 34.2 M-36.65 50.75 L-32.9 51.0"/><path stroke="none" fill="url(#gradient31)" d="M-37.95 42.55 L-37.9 42.7 -36.6 42.7 -57.4 52.95 Q-67.85 46.45 -52.0 29.15 -48.4 31.5 -41.55 30.15 L-41.5 32.9 Q-55.0 38.3 -55.8 49.9 -47.15 42.95 -37.95 42.55"/><path stroke="none" fill="url(#gradient32)" d="M-37.95 42.55 Q-47.15 42.95 -55.8 49.9 -55.0 38.3 -41.5 32.9 -41.0 38.65 -37.95 42.55"/><path fill="none" stroke="#000000" stroke-width="0.5" stroke-opacity="0.301960784314" d="M-41.5 32.9 L-41.55 30.15 Q-48.4 31.5 -52.0 29.15 -67.85 46.45 -57.4 52.95 L-36.6 42.7 -37.9 42.7 -37.95 42.55 M-41.5 32.9 Q-41.0 38.65 -37.95 42.55"/><path fill="#ffffff" fill-opacity="0.4" d="M-49.55 35.35 Q-47.05 33.8 -45.7 34.3 -44.25 34.9 -44.75 36.7 -45.35 38.45 -47.5 39.95 -49.75 41.45 -51.95 44.8 L-54.8 49.35 Q-55.55 50.4 -56.65 44.65 -56.05 42.35 -54.0 39.65 -52.0 36.9 -49.55 35.35"/></g><g id="c51"><g><use transform="matrix(1.0,0.0,0.0,1.0,0.0,0.0)" xlink:href="#c50"/></g></g><linearGradient gradientUnits="userSpaceOnUse" x1="-819.2" x2="819.2" spreadMethod="pad" gradientTransform="matrix(0.0294036865234,-0.0469360351562,0.0261383056641,0.0155639648438,-34.55,25.35)" id="gradient33"><stop offset="0.0" stop-color="#876833"/><stop offset="1.0" stop-color="#764b23"/></linearGradient><g id="c52"><path fill="#5b3a1c" stroke="none" d="M-18.4 1.45 Q-11.65 -1.35 -4.95 1.3 -1.55 2.6 -0.45 6.6 0.15 8.9 -0.05 12.15 L-0.25 12.7 Q-4.65 26.45 -17.2 34.0 -8.15 27.75 -12.0 19.15 -8.5 25.35 -3.25 17.9 -1.75 12.9 -9.9 13.05 3.7 12.3 -3.75 3.4 -8.7 -0.35 -12.5 2.8 -14.95 6.85 -13.2 12.75 -16.15 11.5 -19.5 16.15 -22.1 22.05 -19.8 22.7 -24.05 22.55 -28.25 26.35 -41.15 45.7 -27.8 39.4 -23.45 35.05 -18.75 29.4 -22.5 35.0 -19.8 35.8 -24.4 39.35 -30.2 42.55 -33.0 44.15 -35.35 45.25 L-35.5 45.3 Q-52.35 53.05 -45.35 36.45 L-45.25 36.0 -45.2 36.0 -45.2 35.95 -45.15 35.95 Q-39.3 32.5 -34.7 29.3 L-34.55 29.2 Q-19.4 18.55 -17.15 10.0 -15.95 5.4 -18.4 1.45 M-12.95 19.8 Q-16.15 23.75 -18.05 28.25 -16.85 23.85 -19.25 23.1 -16.35 23.75 -12.95 19.8"/><path fill="#e09b59" stroke="none" d="M-24.95 5.35 Q-21.65 2.75 -18.4 1.45 -15.95 5.4 -17.15 10.0 -19.4 18.55 -34.55 29.2 L-34.7 29.3 Q-39.3 32.5 -45.15 35.95 -18.9 13.1 -24.95 5.35"/><path stroke="none" fill="url(#gradient33)" d="M-17.2 34.0 L-17.35 34.1 Q-18.55 34.75 -19.5 35.6 L-19.8 35.8 Q-22.5 35.0 -18.75 29.4 -23.45 35.05 -27.8 39.4 -41.15 45.7 -28.25 26.35 -24.05 22.55 -19.8 22.7 -22.1 22.05 -19.5 16.15 -16.15 11.5 -13.2 12.75 -14.95 6.85 -12.5 2.8 -8.7 -0.35 -3.75 3.4 3.7 12.3 -9.9 13.05 -1.75 12.9 -3.25 17.9 -8.5 25.35 -12.0 19.15 -8.15 27.75 -17.2 34.0 M-12.95 19.8 Q-16.35 23.75 -19.25 23.1 -16.85 23.85 -18.05 28.25 -16.15 23.75 -12.95 19.8"/><path fill="#c16c35" stroke="none" d="M-45.25 35.95 Q-42.8 22.05 -33.45 16.05 -30.7 9.9 -24.95 5.35 -18.9 13.1 -45.15 35.95 L-45.2 35.95 -43.95 33.5 -43.95 33.45 -43.8 33.1 -43.95 33.5 -43.8 33.1 -43.95 33.45 -43.95 33.5 -45.2 35.95 -45.25 35.95"/><path fill="none" stroke="#000000" stroke-width="0.5" stroke-opacity="0.301960784314" d="M-0.05 12.15 L-0.25 12.7 Q-4.65 26.45 -17.2 34.0 L-17.35 34.1 Q-18.55 34.75 -19.5 35.6 L-19.8 35.8 Q-24.4 39.35 -30.2 42.55 -33.0 44.15 -35.35 45.25 L-35.5 45.3 Q-52.35 53.05 -45.35 36.45 L-45.25 36.0 -45.25 35.95 Q-42.8 22.05 -33.45 16.05 M-34.55 29.2 L-34.7 29.3 M-45.15 35.95 L-45.2 35.95 -45.2 36.0 -45.25 36.0 M-43.95 33.5 L-43.8 33.1 -43.95 33.45 -43.95 33.5 -45.2 35.95 -45.25 35.95"/></g><g id="c53"><g><use transform="matrix(1.0,0.0,0.0,1.0,0.0,0.0)" xlink:href="#c52"/></g></g><linearGradient gradientUnits="userSpaceOnUse" x1="-819.2" x2="819.2" spreadMethod="pad" gradientTransform="matrix(0.00736999511719,0.00619506835938,-0.0328979492188,0.0427703857422,-8.35,-1.0)" id="gradient34"><stop offset="0.0" stop-color="#dcbb70"/><stop offset="0.964705882353" stop-color="#9b7a4a"/></linearGradient><linearGradient gradientUnits="userSpaceOnUse" x1="-819.2" x2="819.2" spreadMethod="pad" gradientTransform="matrix(0.0078125,0.00387573242188,-0.00665283203125,0.0119781494141,-31.05,14.6)" id="gradient35"><stop offset="0.0" stop-color="#ffea9c"/><stop offset="1.0" stop-color="#ebc873"/></linearGradient><linearGradient gradientUnits="userSpaceOnUse" x1="-819.2" x2="819.2" spreadMethod="pad" gradientTransform="matrix(0.0294036865234,-0.0469360351562,0.0261383056641,0.0155639648438,-5.0,-2.95)" id="gradient36"><stop offset="0.0" stop-color="#876833"/><stop offset="1.0" stop-color="#764b23"/></linearGradient><g id="c54"><path stroke="none" fill="url(#gradient34)" d="M-35.55 23.25 Q-37.9 17.5 -36.15 13.5 -29.2 17.25 -20.45 15.15 -22.35 21.05 -28.0 28.2 -33.1 27.55 -35.3 23.65 L-35.55 23.25"/><path stroke="none" fill="url(#gradient35)" d="M-20.45 15.15 Q-29.2 17.25 -36.15 13.5 -37.9 17.5 -35.55 23.25 -40.4 18.4 -38.75 8.35 L-38.65 8.05 -38.4 8.25 Q-32.2 11.8 -19.45 7.05 -19.15 11.1 -20.45 15.15"/><path fill="none" stroke="#000000" stroke-width="0.5" stroke-opacity="0.301960784314" d="M-35.55 23.25 L-35.3 23.65 Q-33.1 27.55 -28.0 28.2 -22.35 21.05 -20.45 15.15 -19.15 11.1 -19.45 7.05 -32.2 11.8 -38.4 8.25 L-38.65 8.05 -38.75 8.35 Q-40.4 18.4 -35.55 23.25"/><path fill="#ffffff" fill-opacity="0.4" d="M-25.05 18.25 Q-22.7 17.75 -22.3 16.5 -21.85 15.25 -23.3 14.2 -24.75 13.3 -26.9 13.55 -29.1 13.95 -32.4 12.9 L-36.9 11.45 Q-38.0 11.15 -34.9 15.95 -33.1 17.25 -30.25 17.9 L-25.05 18.25"/><path stroke="none" fill="url(#gradient36)" d="M-11.4 19.4 Q-21.8 42.0 -27.35 43.85 -34.7 38.3 -26.3 21.3 -24.1 10.9 -12.5 2.25 -0.85 -3.25 -0.05 4.55 0.35 9.25 -2.05 11.1 L-5.05 13.5 -11.4 19.4"/><path fill="none" stroke="#000000" stroke-width="0.5" stroke-opacity="0.301960784314" d="M-12.5 2.25 Q-24.1 10.9 -26.3 21.3 -34.7 38.3 -27.35 43.85 -21.8 42.0 -11.4 19.4"/></g><g id="c55"><g><use transform="matrix(1.0,0.0,0.0,1.0,0.0,0.0)" xlink:href="#c54"/></g></g><g id="c56"><g><use transform="matrix(1.0,0.0,0.0,1.0,-0.9,-29.75)" xlink:href="#c18"/></g><g><use transform="matrix(1.0,0.0,0.0,1.0,76.2,-719.1)" xlink:href="#c20"/></g><g><use transform="matrix(1.0,0.0,0.0,1.0,-32.65,-189.55)" xlink:href="#c22"/></g><g><use transform="matrix(1.0,0.0,0.0,1.0,5.05,-186.65)" xlink:href="#c24"/></g><g><use transform="matrix(1.0,0.0,0.0,1.0,-72.95,-157.9)" xlink:href="#c26"/></g><g><use transform="matrix(1.0,0.0,0.0,1.0,19.35,-352.5)" xlink:href="#c28"/></g><g><use transform="matrix(1.0,0.0,0.0,1.0,1.5,-181.35)" xlink:href="#c30"/></g><g><use transform="matrix(1.0,0.0,0.0,1.0,12.45,-295.0)" xlink:href="#c32"/></g><g><use transform="matrix(1.0,0.0,0.0,1.0,-6.2,-197.25)" xlink:href="#c34"/></g><g><use transform="matrix(1.0,0.0,0.0,1.0,12.2,-137.1)" xlink:href="#c7"/></g><g><use transform="matrix(1.0,0.0,0.0,1.0,72.35,-198.15)" xlink:href="#c36"/></g><g><use transform="matrix(1.0,0.0,0.0,1.0,42.75,-363.8)" xlink:href="#c38"/></g><g><use transform="matrix(1.0,0.0,0.0,1.0,24.5,-283.1)" xlink:href="#c40"/></g><g><use transform="matrix(1.0,0.0,0.0,1.0,46.15,-303.7)" xlink:href="#c42"/></g><g><use transform="matrix(1.0,0.0,0.0,1.0,35.35,-326.7)" xlink:href="#c44"/></g><g><use transform="matrix(1.0,0.0,0.0,1.0,51.8,-196.35)" xlink:href="#c46"/></g><g><use transform="matrix(1.0,0.0,0.0,1.0,55.3,-118.05)" xlink:href="#c48"/></g><g><use transform="matrix(1.0,0.0,0.0,1.0,81.25,-141.9)" xlink:href="#c49"/></g><g><use transform="matrix(1.0,0.0,0.0,1.0,101.8,-130.15)" xlink:href="#c51"/></g><g><use transform="matrix(1.0,0.0,0.0,1.0,104.45,-102.65)" xlink:href="#c53"/></g><g><use transform="matrix(1.0,0.0,0.0,1.0,75.15,-72.75)" xlink:href="#c55"/></g></g><g id="c57"><g><use transform="matrix(0.443649291992,0.0,0.0,0.443649291992,55.9,140.0)" xlink:href="#c56"/></g></g><g id="c58"><g><use transform="matrix(1.0,0.0,0.0,1.0,6.3,53.35)" xlink:href="#c16"/></g><g><use transform="matrix(-0.146041870117,0.0488891601562,0.0616760253906,0.140441894531,33.05,63.95)" xlink:href="#c57"/></g><g><use transform="matrix(0.141098022461,-0.0378112792969,0.111373901367,0.225646972656,27.2,74.05)" filter="url(#filter59)" xlink:href="#c13"/></g></g><filter id="filter59"><feColorMatrix in="SourceGraphic" type="matrix" values="1.0 0.0 0.0 0.0 0.0 0.0 1.0 0.0 0.0 0.0 0.0 0.0 1.0 0.0 0.0 0.0 0.0 0.0 0.23046875 0.0" result="cxform"/><feComposite operator="in" in2="SourceGraphic" result="color-xform"/></filter></defs><g><g><use transform="matrix(1.0,0.0,0.0,1.0,0.0,0.0)" xlink:href="#c8"/></g><g><use transform="matrix(1.15496826172,0.0,0.0,1.15496826172,-1.5,-57.15)" xlink:href="#c58"/></g></g></svg>