<?xml version='1.0' encoding='UTF-8'?>
<svg xmlns:xlink="http://www.w3.org/1999/xlink" xmlns="http://www.w3.org/2000/svg" version="1.1" width="60px" height="60px" viewBox="0.0 0.0 60.0 60.0"><defs><g id="c1"><path fill="#000000" fill-opacity="0.00392156862745" d="M0.0 0.0 L60.0 0.0 60.0 60.0 0.0 60.0 0.0 0.0"/></g><g id="c2"><path fill="#006699" stroke="none" d="M31.5 39.85 L19.8 43.65 Q17.15 44.45 15.5 43.3 14.35 42.55 13.65 40.9 L1.7 14.45 1.6 14.3 1.2 13.45 -0.75 9.05 Q-2.05 6.2 -0.3 4.75 0.3 4.25 1.2 3.9 L5.5 2.25 Q8.95 0.95 10.65 4.15 L22.3 0.4 Q26.55 -1.0 28.45 3.1 L40.55 29.95 40.9 30.7 42.95 35.15 Q43.95 37.35 43.15 38.7 42.5 39.7 40.95 40.25 L36.65 41.8 35.1 42.2 Q32.75 42.3 31.5 39.85"/><path fill="none" stroke="#000000" stroke-width="1.0" stroke-opacity="0.298039215686" d="M31.5 39.85 L19.8 43.65 Q17.15 44.45 15.5 43.3 14.35 42.55 13.65 40.9 L1.7 14.45 1.6 14.3 1.2 13.45 -0.75 9.05 Q-2.05 6.2 -0.3 4.75 0.3 4.25 1.2 3.9 L5.5 2.25 Q8.95 0.95 10.65 4.15 L22.3 0.4 Q26.55 -1.0 28.45 3.1 L40.55 29.95 40.9 30.7 42.95 35.15 Q43.95 37.35 43.15 38.7 42.5 39.7 40.95 40.25 L36.65 41.8 35.1 42.2 Q32.75 42.3 31.5 39.85"/><path fill="#300525" stroke="none" d="M0.75 8.25 L29.8 9.75 25.55 0.9 Q26.9 1.6 27.8 3.55 L40.7 32.15 Q42.6 36.3 38.3 37.65 L23.3 42.5 13.15 21.4 4.6 20.9 0.7 12.25 Q-0.45 9.75 0.75 8.25 M20.1 43.55 L19.8 43.65 Q17.15 44.45 15.5 43.3 L20.1 43.55"/><path fill="#630a4c" stroke="none" d="M25.55 0.9 L29.8 9.75 0.75 8.25 Q1.45 7.3 3.1 6.75 L21.65 0.8 25.55 0.9 M4.6 20.9 L13.15 21.4 23.3 42.5 20.1 43.55 15.5 43.3 Q14.35 42.55 13.65 40.9 L4.6 20.9"/><path fill="none" stroke="#000000" stroke-width="0.5" stroke-opacity="0.301960784314" d="M0.75 8.25 Q-0.45 9.75 0.7 12.25 L4.6 20.9 M23.3 42.5 L38.3 37.65 Q42.6 36.3 40.7 32.15 L27.8 3.55 Q26.9 1.6 25.55 0.9 L21.65 0.8 3.1 6.75 Q1.45 7.3 0.75 8.25 M20.1 43.55 L19.8 43.65 Q17.15 44.45 15.5 43.3 14.35 42.55 13.65 40.9 L4.6 20.9 M20.1 43.55 L23.3 42.5"/><path fill="#9d147b" stroke="none" d="M14.2 40.5 L1.35 11.8 Q-0.5 7.75 3.8 6.35 L22.3 0.4 Q26.55 -1.0 28.45 3.1 L41.35 31.7 Q43.25 35.85 38.9 37.25 L20.4 43.2 Q16.1 44.55 14.2 40.5"/><path fill="none" stroke="#000000" stroke-width="0.5" stroke-opacity="0.301960784314" d="M14.2 40.5 L1.35 11.8 Q-0.5 7.75 3.8 6.35 L22.3 0.4 Q26.55 -1.0 28.45 3.1 L41.35 31.7 Q43.25 35.85 38.9 37.25 L20.4 43.2 Q16.1 44.55 14.2 40.5"/><path fill="#9d147b" stroke="none" d="M31.4 39.65 L31.3 39.45 31.25 39.4 29.25 34.95 Q27.55 31.2 31.25 29.85 L35.6 28.25 Q38.8 27.1 40.5 29.85 L40.9 30.7 42.95 35.15 Q43.95 37.35 43.15 38.7 42.5 39.45 41.2 39.9 L36.9 41.45 34.85 41.85 Q32.9 41.7 31.75 39.5 L31.4 39.65"/><path fill="#630a4c" stroke="none" d="M43.15 38.7 Q42.5 39.7 40.95 40.25 L36.65 41.8 35.1 42.2 Q32.75 42.3 31.45 39.8 L31.4 39.65 31.75 39.5 Q32.9 41.7 34.85 41.85 L36.9 41.45 41.2 39.9 Q42.5 39.45 43.15 38.7"/><path fill="none" stroke="#003333" stroke-width="0.5" stroke-opacity="0.509803921569" d="M43.15 38.7 Q42.5 39.7 40.95 40.25 L36.65 41.8 35.1 42.2 Q32.75 42.3 31.45 39.8 L31.4 39.65 30.3 40.0 31.4 39.65 M40.5 29.85 L40.9 30.7 42.95 35.15 Q43.95 37.35 43.15 38.7 42.5 39.45 41.2 39.9 L36.9 41.45 34.85 41.85 Q32.9 41.7 31.75 39.5 L31.4 39.65"/><path fill="#9d147b" stroke="none" d="M10.65 4.2 L10.85 4.6 12.85 9.05 Q14.5 12.8 10.8 14.15 L6.5 15.8 Q4.5 16.6 3.1 15.8 L1.75 12.85 -0.2 8.45 Q-1.25 6.15 -0.3 4.75 0.3 4.25 1.2 3.9 L5.5 2.25 Q9.0 0.95 10.65 4.2"/><path fill="#300525" stroke="none" d="M-0.3 4.75 Q-1.25 6.15 -0.2 8.45 L1.75 12.85 3.1 15.8 Q2.25 15.35 1.6 14.3 L1.2 13.45 -0.75 9.05 Q-2.05 6.2 -0.3 4.75"/><path fill="none" stroke="#003333" stroke-width="0.5" stroke-opacity="0.509803921569" d="M3.1 15.8 L6.45 23.15 M-0.3 4.75 Q0.3 4.25 1.2 3.9 L5.5 2.25 Q9.0 0.95 10.65 4.2 M3.1 15.8 L1.75 12.85 -0.2 8.45 Q-1.25 6.15 -0.3 4.75 -2.05 6.2 -0.75 9.05 L1.2 13.45 1.6 14.3"/><path fill="#fcf2cf" stroke="none" d="M9.15 13.6 Q9.8 12.8 9.55 11.6 L9.1 10.55 22.05 6.35 Q24.9 5.45 26.25 7.85 L26.5 8.3 35.8 29.0 35.95 29.35 Q34.75 29.3 34.1 30.1 33.45 30.9 33.7 32.1 L34.0 32.9 20.65 37.2 Q18.8 37.8 17.65 37.0 16.8 36.4 16.3 35.2 L6.95 14.6 6.8 14.4 7.1 14.4 Q8.4 14.45 9.15 13.6"/><path fill="#c47fad" stroke="none" d="M9.15 13.6 Q8.4 14.45 7.1 14.4 L6.8 14.4 6.95 14.6 16.3 35.2 Q16.8 36.4 17.65 37.0 18.8 37.8 20.65 37.2 L34.0 32.9 33.7 32.1 Q33.45 30.9 34.1 30.1 34.75 29.3 35.95 29.35 L35.8 29.0 26.5 8.3 26.25 7.85 Q24.9 5.45 22.05 6.35 L9.1 10.55 9.55 11.6 Q9.8 12.8 9.15 13.6 M28.25 6.1 L35.55 22.3 39.35 30.75 Q41.1 34.5 37.2 35.7 L20.45 41.1 Q16.8 42.25 15.2 39.0 L15.0 38.6 8.25 23.65 3.35 12.8 Q1.65 9.1 5.5 7.85 L22.25 2.5 Q26.05 1.25 27.75 4.95 L28.25 6.1"/><path fill="none" stroke="#ffcc00" stroke-width="1.0" stroke-opacity="0.749019607843" d="M35.55 22.3 L39.35 30.75 Q41.1 34.5 37.2 35.7 L20.45 41.1 Q16.8 42.25 15.2 39.0 L15.0 38.6 M8.25 23.65 L3.35 12.8 Q1.65 9.1 5.5 7.85 L22.25 2.5 Q26.05 1.25 27.75 4.95 L28.25 6.1"/><path fill="none" stroke="#bf9900" stroke-width="1.0" stroke-opacity="0.749019607843" d="M28.25 6.1 L35.55 22.3 M15.0 38.6 L8.25 23.65"/><path fill="none" stroke="#f0b92b" stroke-width="0.5" d="M9.15 13.6 Q9.8 12.8 9.55 11.6 L9.1 10.55 22.05 6.35 Q24.9 5.45 26.25 7.85 L26.5 8.3 35.8 29.0 35.95 29.35 Q34.75 29.3 34.1 30.1 33.45 30.9 33.7 32.1 L34.0 32.9 20.65 37.2 Q18.8 37.8 17.65 37.0 16.8 36.4 16.3 35.2 L6.95 14.6 6.8 14.4 7.1 14.4 Q8.4 14.45 9.15 13.6"/></g><g id="c3"><path fill="#7fdbfe" stroke="none" d="M10.75 4.9 Q10.75 4.6 10.9 4.35 11.25 3.45 11.95 2.75 13.3 1.5 14.35 2.1 15.4 2.7 14.95 4.45 14.7 5.4 14.1 6.15 L13.75 6.5 Q13.1 7.15 12.35 7.35 L11.4 7.2 Q10.95 6.9 10.75 6.4 10.5 5.75 10.75 4.9 M7.5 5.9 Q7.0 5.85 6.6 5.5 6.05 5.0 5.8 4.15 L5.7 3.6 Q5.55 2.65 5.8 1.7 6.25 0.0 7.5 0.0 L7.6 0.0 Q8.85 0.0 9.3 1.7 9.55 2.65 9.4 3.6 L9.3 4.15 8.5 5.5 7.6 5.9 7.5 5.9 M4.35 4.9 Q4.6 5.75 4.35 6.4 L3.7 7.2 2.75 7.35 Q2.0 7.15 1.35 6.5 L1.0 6.15 Q0.4 5.4 0.15 4.45 -0.3 2.7 0.75 2.1 1.8 1.5 3.15 2.75 3.85 3.45 4.2 4.35 L4.35 4.9 M5.5 13.7 Q4.45 13.9 3.65 12.95 2.75 12.0 3.2 10.25 3.7 8.5 5.25 7.6 6.4 6.9 7.55 7.0 8.75 6.9 9.9 7.6 11.45 8.5 11.95 10.25 12.35 12.0 11.5 12.95 10.7 13.9 9.65 13.7 8.55 13.5 7.55 12.6 6.55 13.5 5.5 13.7"/></g><g id="c4"><g><use transform="matrix(1.0,0.0,0.0,1.0,0.0,0.0)" xlink:href="#c3"/></g></g><radialGradient gradientUnits="userSpaceOnUse" r="819.2" cx="0" cy="0" spreadMethod="pad" gradientTransform="matrix(0.0914459228516,0.0,0.0,0.0914459228516,0.6,3.4)" id="gradient1"><stop offset="0.0" stop-color="#ffffff"/><stop offset="1.0" stop-color="#ffffff" stop-opacity="0.0"/></radialGradient><g id="c5"><path stroke="none" fill="url(#gradient1)" d="M36.65 -54.65 Q60.05 -42.0 69.75 -17.95 80.55 8.9 68.0 34.1 55.45 59.35 26.8 68.2 -1.8 77.05 -29.7 64.3 -57.6 51.6 -68.45 24.75 -79.3 -2.05 -66.75 -27.25 L-66.7 -27.3 Q-54.1 -52.5 -25.5 -61.4 3.1 -70.2 31.0 -57.5 L36.65 -54.65"/></g><g id="c6"><g><use transform="matrix(1.0,0.0,0.0,1.0,0.0,0.0)" xlink:href="#c5"/></g></g><radialGradient gradientUnits="userSpaceOnUse" r="819.2" cx="0" cy="0" spreadMethod="pad" gradientTransform="matrix(0.209197998047,0.0,0.0,0.177108764648,67.15,107.2)" id="gradient2"><stop offset="0.356862745098" stop-color="#ffffff"/><stop offset="0.670588235294" stop-opacity="0.0"/></radialGradient><g id="c7"><path fill="none" stroke-linejoin="round" stroke-linecap="round" stroke="url(#gradient2)" stroke-width="0.5" d="M136.55 165.8 L68.6 106.0 68.4 106.0 118.25 201.5 M68.3 105.8 L68.35 105.8 68.3 105.8 68.3 105.85 68.4 106.0 68.3 106.0 86.55 211.5 M68.3 105.8 L68.3 105.85 68.3 106.0 68.15 105.95 18.25 151.55 M68.3 105.85 L68.25 105.85 68.3 106.0 50.0 193.2 M68.25 105.85 L68.15 105.95 0.05 97.7 M68.3 105.85 L68.25 105.8 68.25 105.85 M68.25 105.8 L68.2 105.7 0.0 45.7 M68.3 105.8 L68.25 105.75 68.25 105.8 M68.25 105.75 L68.2 105.7 18.25 10.05 M68.6 106.0 L68.35 105.8 118.25 60.15 M86.6 18.35 L68.3 105.8 M136.6 114.25 L68.6 106.0 M68.25 105.75 L49.95 0.05"/></g><g id="c8"><g><use transform="matrix(1.0,0.0,0.0,1.0,0.0,0.0)" xlink:href="#c7"/></g></g><g id="c9"><g><use transform="matrix(1.0,0.0,0.0,1.0,0.0,0.0)" xlink:href="#c2"/></g><g><use transform="matrix(0.238861083984,-0.0867004394531,0.10026550293,0.233917236328,34.25,31.15)" xlink:href="#c4"/></g><g><use transform="matrix(0.238861083984,-0.0867004394531,0.10026550293,0.233917236328,4.25,10.3)" xlink:href="#c4"/></g><g><use transform="matrix(0.141098022461,-0.0378112792969,0.111373901367,0.225646972656,20.25,20.65)" filter="url(#filter7)" xlink:href="#c6"/></g><g><use transform="matrix(-0.155029296875,0.0513153076172,0.0841827392578,0.147033691406,22.6,3.15)" filter="url(#filter8)" xlink:href="#c8"/></g></g><filter id="filter7"><feColorMatrix in="SourceGraphic" type="matrix" values="0.0 0.0 0.0 0.0 0.796875 0.0 0.0 0.0 0.0 0.59765625 0.0 0.0 0.0 0.0 0.19921875 0.0 0.0 0.0 1.0 0.0" result="cxform"/><feComposite operator="in" in2="SourceGraphic" result="color-xform"/></filter><filter id="filter8"><feColorMatrix in="SourceGraphic" type="matrix" values="0.0 0.0 0.0 0.0 0.99609375 0.0 0.0 0.0 0.0 0.99609375 0.0 0.0 0.0 0.0 0.99609375 0.0 0.0 0.0 1.0 0.0" result="cxform"/><feComposite operator="in" in2="SourceGraphic" result="color-xform"/></filter><radialGradient gradientUnits="userSpaceOnUse" r="819.2" cx="0" cy="0" spreadMethod="pad" gradientTransform="matrix(-0.00755310058594,0.00196838378906,0.00808715820312,-0.0149078369141,86.25,20.55)" id="gradient3"><stop offset="0.0" stop-color="#ffffff" stop-opacity="0.411764705882"/><stop offset="1.0" stop-color="#ffffff" stop-opacity="0.0"/></radialGradient><radialGradient gradientUnits="userSpaceOnUse" r="819.2" cx="0" cy="0" spreadMethod="pad" gradientTransform="matrix(-0.00091552734375,-0.00775146484375,-0.0109100341797,0.0129699707031,30.95,102.2)" id="gradient4"><stop offset="0.0" stop-color="#ffffff" stop-opacity="0.411764705882"/><stop offset="1.0" stop-color="#ffffff" stop-opacity="0.0"/></radialGradient><radialGradient gradientUnits="userSpaceOnUse" r="819.2" cx="0" cy="0" spreadMethod="pad" gradientTransform="matrix(-0.00584411621094,-0.0116882324219,-0.01318359375,0.0164337158203,58.65,61.25)" id="gradient5"><stop offset="0.0" stop-color="#ffffff" stop-opacity="0.6"/><stop offset="1.0" stop-color="#ffffff" stop-opacity="0.0"/></radialGradient><g id="c10"><path fill="#dbdfdf" stroke="none" d="M93.15 -0.2 Q97.95 -0.35 100.95 1.15 L108.6 -6.2 108.25 -5.5 95.4 13.45 94.7 12.85 Q91.45 17.55 88.85 21.85 80.6 34.55 77.35 41.9 L75.65 42.2 73.05 42.3 Q76.95 39.15 88.2 21.0 L94.05 11.35 Q96.7 9.7 104.0 0.7 102.4 1.55 100.85 2.5 99.4 1.0 93.15 -0.2"/><path fill="#626c73" stroke="none" d="M93.15 -0.2 Q99.4 1.0 100.85 2.5 102.4 1.55 104.0 0.7 96.7 9.7 94.05 11.35 L88.2 21.0 87.25 19.55 87.8 16.35 71.7 42.4 70.45 42.4 76.8 31.6 Q70.3 28.8 68.9 23.75 L68.65 23.15 Q69.0 17.8 72.9 9.8 L73.35 9.85 Q71.8 13.5 71.45 16.5 71.2 17.55 71.2 18.65 70.15 22.0 70.9 24.35 72.6 28.45 78.35 29.7 L86.25 15.6 84.6 10.45 86.15 9.75 88.1 13.7 95.8 6.2 Q93.6 5.95 89.5 8.05 L89.45 7.7 Q91.75 4.25 97.9 3.7 L98.3 3.8 99.35 2.75 Q96.7 1.35 93.4 1.3 L93.15 -0.2 M106.1 33.25 L106.55 33.8 Q103.55 37.1 100.75 38.95 L95.5 39.15 Q99.9 39.05 106.1 33.25"/><path fill="#1f2326" stroke="none" d="M75.65 42.2 L77.35 41.9 Q80.6 34.55 88.85 21.85 91.45 17.55 94.7 12.85 L95.4 13.45 108.25 -5.5 104.4 2.95 Q107.05 5.5 108.55 10.15 L106.5 10.55 Q105.6 7.55 103.45 5.15 L103.5 4.85 102.75 6.45 Q104.9 10.25 102.55 16.25 L100.5 16.05 Q101.65 11.9 101.2 9.8 L98.9 14.65 95.6 19.5 100.15 19.7 100.0 21.45 94.35 22.05 87.15 32.15 87.25 32.3 Q88.85 37.6 92.4 39.3 L93.0 39.3 Q95.1 40.45 95.5 39.15 L100.75 38.95 Q91.75 44.8 84.15 36.55 L80.7 41.6 75.65 42.2 M78.35 29.7 Q72.6 28.45 70.9 24.35 70.15 22.0 71.2 18.65 71.35 25.3 79.4 27.15 L80.45 25.35 78.35 29.7"/><path fill="#bfc6c8" stroke="none" d="M87.25 32.3 Q93.75 43.4 105.55 32.65 L106.1 33.25 Q99.9 39.05 95.5 39.15 95.1 40.45 93.0 39.3 L92.4 39.3 Q88.85 37.6 87.25 32.3 M97.9 3.7 Q91.75 4.25 89.45 7.7 L88.85 6.1 Q93.9 2.8 97.9 3.7 M72.9 9.8 Q69.0 17.8 68.65 23.15 67.3 17.55 71.7 9.35 L72.9 9.8"/><path fill="#6f7d7d" stroke="none" d="M88.2 21.0 Q76.95 39.15 73.05 42.3 L71.7 42.4 87.8 16.35 87.25 19.55 88.2 21.0"/><path fill="none" stroke="#000000" stroke-width="0.5" stroke-opacity="0.301960784314" d="M108.25 -5.5 L108.6 -6.2 100.95 1.15 Q97.95 -0.35 93.15 -0.2 L93.4 1.3 Q96.7 1.35 99.35 2.75 L98.3 3.8 97.9 3.7 Q93.9 2.8 88.85 6.1 L89.45 7.7 89.5 8.05 Q93.6 5.95 95.8 6.2 L88.1 13.7 86.15 9.75 84.6 10.45 86.25 15.6 80.45 25.35 79.4 27.15 Q71.35 25.3 71.2 18.65 M73.05 42.3 L75.65 42.2 M108.25 -5.5 L104.4 2.95 Q107.05 5.5 108.55 10.15 L106.5 10.55 Q105.6 7.55 103.45 5.15 L103.5 4.85 102.75 6.45 Q104.9 10.25 102.55 16.25 L100.5 16.05 Q101.65 11.9 101.2 9.8 L98.9 14.65 95.6 19.5 100.15 19.7 100.0 21.45 94.35 22.05 87.15 32.15 87.25 32.3 Q93.75 43.4 105.55 32.65 L106.1 33.25 106.55 33.8 Q103.55 37.1 100.75 38.95 91.75 44.8 84.15 36.55 L80.7 41.6 75.65 42.2 M71.45 16.5 Q71.8 13.5 73.35 9.85 L72.9 9.8 71.7 9.35 Q67.3 17.55 68.65 23.15 M68.9 23.75 Q70.3 28.8 76.8 31.6 L70.45 42.4 71.7 42.4 73.05 42.3"/><path fill="none" stroke="#00ff00" stroke-width="0.5" d="M68.65 23.15 L68.9 23.75"/><path stroke="none" fill="url(#gradient3)" d="M75.3 38.9 L76.1 36.95 Q84.95 17.2 96.45 6.0 99.85 2.85 98.95 5.25 87.05 21.1 79.1 38.4 75.85 42.35 75.3 38.9"/><path fill="#626c73" stroke="none" d="M23.9 88.7 Q22.95 89.1 21.95 89.65 19.3 91.1 16.5 93.8 L16.25 93.5 Q22.3 86.85 27.15 84.6 L27.85 84.6 Q33.0 84.05 38.0 89.1 L45.75 79.3 46.15 80.45 27.85 104.95 30.6 103.25 32.25 103.6 25.4 112.6 Q24.85 115.7 19.2 125.7 L19.65 122.15 Q17.8 121.35 14.35 115.95 L15.85 115.65 Q17.1 118.65 19.35 120.65 L20.0 119.3 19.75 118.95 Q18.05 113.05 20.35 109.6 L20.75 109.55 Q20.25 114.15 21.3 116.05 L25.5 106.15 21.05 105.85 21.1 104.1 26.55 103.75 36.75 91.25 Q33.55 86.4 29.1 86.25 26.6 86.45 23.9 88.7 M53.6 108.7 Q52.9 112.0 50.95 116.05 L50.25 115.75 Q53.35 107.85 51.8 103.75 53.55 107.35 53.6 108.7"/><path fill="#bfc6c8" stroke="none" d="M16.25 93.5 L15.4 92.55 Q21.45 85.4 27.15 84.6 22.3 86.85 16.25 93.5 M50.25 115.75 L49.55 115.55 Q55.15 100.65 42.5 98.65 47.95 98.15 50.9 100.9 L51.05 101.4 Q52.9 103.0 51.8 103.75 53.35 107.85 50.25 115.75 M19.75 118.95 Q17.4 115.55 18.65 109.7 L20.35 109.6 Q18.05 113.05 19.75 118.95"/><path fill="#1f2326" stroke="none" d="M47.45 84.25 L57.6 78.95 45.3 94.15 Q55.75 98.2 53.6 108.7 53.55 107.35 51.8 103.75 52.9 103.0 51.05 101.4 L50.9 100.9 Q47.95 98.15 42.5 98.65 L42.3 98.55 35.5 108.95 37.0 114.45 35.45 115.2 33.6 111.05 30.3 115.9 26.6 119.75 Q28.75 119.45 32.2 116.9 L33.15 118.75 Q28.4 123.1 24.0 122.5 L22.85 123.75 23.1 123.6 Q26.1 124.8 29.2 124.45 L29.6 126.5 Q24.8 126.85 21.4 125.25 L15.0 131.95 27.95 113.1 27.1 112.7 33.3 103.9 Q42.1 91.55 47.75 85.9 L47.45 84.25 M33.5 94.85 L34.85 93.15 Q30.2 86.35 23.9 88.7 26.6 86.45 29.1 86.25 33.55 86.4 36.75 91.25 L33.5 94.85"/><path fill="#dbdfdf" stroke="none" d="M46.6 81.7 L47.45 84.25 47.75 85.9 Q42.1 91.55 33.3 103.9 L27.1 112.7 27.95 113.1 15.0 131.95 14.4 132.55 18.5 122.75 Q16.0 120.55 14.35 115.95 17.8 121.35 19.65 122.15 L19.2 125.7 Q24.85 115.7 25.4 112.6 L32.25 103.6 Q45.05 86.5 46.6 81.7"/><path fill="#6f7d7d" stroke="none" d="M46.15 80.45 L46.6 81.7 Q45.05 86.5 32.25 103.6 L30.6 103.25 27.85 104.95 46.15 80.45"/><path fill="none" stroke="#000000" stroke-width="0.5" stroke-opacity="0.301960784314" d="M21.95 89.65 Q19.3 91.1 16.5 93.8 L16.25 93.5 15.4 92.55 Q21.45 85.4 27.15 84.6 M27.85 84.6 Q33.0 84.05 38.0 89.1 L45.75 79.3 46.15 80.45 46.6 81.7 47.45 84.25 57.6 78.95 45.3 94.15 Q55.75 98.2 53.6 108.7 52.9 112.0 50.95 116.05 L50.25 115.75 49.55 115.55 Q55.15 100.65 42.5 98.65 L42.3 98.55 35.5 108.95 37.0 114.45 35.45 115.2 33.6 111.05 30.3 115.9 26.6 119.75 Q28.75 119.45 32.2 116.9 L33.15 118.75 Q28.4 123.1 24.0 122.5 L22.85 123.75 23.1 123.6 Q26.1 124.8 29.2 124.45 L29.6 126.5 Q24.8 126.85 21.4 125.25 L15.0 131.95 14.4 132.55 18.5 122.75 Q16.0 120.55 14.35 115.95 L15.85 115.65 Q17.1 118.65 19.35 120.65 L20.0 119.3 19.75 118.95 Q17.4 115.55 18.65 109.7 L20.35 109.6 20.75 109.55 Q20.25 114.15 21.3 116.05 L25.5 106.15 21.05 105.85 21.1 104.1 26.55 103.75 33.5 94.85 34.85 93.15 Q30.2 86.35 23.9 88.7"/><path fill="none" stroke="#00ff00" stroke-width="0.5" d="M27.15 84.6 L27.85 84.6"/><path stroke="none" fill="url(#gradient4)" d="M43.95 85.35 L42.45 86.7 Q27.3 102.25 21.1 117.05 19.4 121.4 21.3 119.6 31.7 102.75 44.95 89.05 47.4 84.6 43.95 85.35"/><path fill="#cc9900" stroke="none" d="M81.8 38.95 L84.6 40.0 80.45 46.05 76.7 47.4 76.8 47.15 77.2 46.45 Q76.5 44.8 81.8 38.95 M75.15 54.0 L70.05 61.6 66.0 62.95 Q67.5 59.1 71.9 53.95 L72.0 53.95 75.15 54.0 M64.05 70.6 L59.65 77.1 57.0 77.8 56.7 77.85 Q56.9 74.95 60.9 70.55 L64.05 70.6 M43.45 77.8 L47.1 72.35 47.85 72.25 54.55 72.7 Q52.2 76.45 52.3 78.5 L46.2 78.3 43.45 77.8 M52.65 64.0 L57.45 57.0 58.9 56.5 65.85 56.25 Q61.9 60.45 60.55 64.1 L60.45 64.1 55.55 64.25 52.65 64.0 M62.9 49.05 L68.75 40.3 Q73.15 37.4 78.2 38.15 L71.35 48.65 71.25 48.7 66.5 49.1 62.9 49.05"/><path fill="#ffcc33" stroke="none" d="M76.7 47.4 L80.45 46.05 Q79.05 50.1 75.15 54.0 L72.0 53.95 Q75.1 52.8 76.7 47.4 M70.05 61.6 Q68.75 66.25 64.05 70.6 L60.9 70.55 60.4 70.55 Q64.15 68.0 65.85 63.3 65.8 63.1 65.9 62.95 L66.0 62.95 70.05 61.6 M59.65 77.1 Q57.75 82.35 53.95 85.6 L52.0 86.45 Q55.0 82.7 57.0 77.8 L59.65 77.1 M46.35 87.0 Q42.75 87.0 40.4 85.85 42.2 81.5 46.2 78.3 L52.3 78.5 Q51.3 83.5 46.35 87.0 M71.25 48.7 Q70.65 52.65 67.9 54.25 64.95 54.6 61.95 55.45 62.3 52.5 66.5 49.1 L71.25 48.7 M50.35 71.65 Q51.15 67.85 55.55 64.25 L60.45 64.1 Q59.7 67.3 56.35 70.25 L55.95 70.8 50.35 71.65"/><path fill="#ad6b00" stroke="none" d="M81.8 38.95 Q76.5 44.8 77.2 46.45 L76.8 47.15 76.7 47.4 71.35 48.65 78.2 38.15 81.8 38.95 M68.25 54.3 L71.9 53.95 Q67.5 59.1 66.0 62.95 L65.9 62.95 60.8 64.05 60.55 64.1 Q61.9 60.45 65.85 56.25 L58.9 56.5 Q60.45 55.9 61.95 55.45 64.95 54.6 67.9 54.25 L68.25 54.3 M60.4 70.55 L60.9 70.55 Q56.9 74.95 56.7 77.85 L52.3 78.5 Q52.2 76.45 54.55 72.7 L47.85 72.25 50.35 71.65 55.95 70.8 60.4 70.55"/><path fill="#ffeaa8" stroke="none" d="M40.4 85.85 L38.05 85.9 Q38.95 82.0 43.45 77.8 L46.2 78.3 Q42.2 81.5 40.4 85.85 M47.1 72.35 Q48.25 67.95 52.65 64.0 L55.55 64.25 Q51.15 67.85 50.35 71.65 L47.85 72.25 47.1 72.35 M57.45 57.0 Q58.7 52.9 62.9 49.05 L66.5 49.1 Q62.3 52.5 61.95 55.45 60.45 55.9 58.9 56.5 L57.45 57.0"/><path fill="#db9015" stroke="none" d="M52.0 86.45 L46.35 87.0 Q51.3 83.5 52.3 78.5 L56.7 77.85 57.0 77.8 Q55.0 82.7 52.0 86.45 M71.9 53.95 L68.25 54.3 67.9 54.25 Q70.65 52.65 71.25 48.7 L71.35 48.65 76.7 47.4 Q75.1 52.8 72.0 53.95 L71.9 53.95 M60.55 64.1 L60.8 64.05 65.9 62.95 Q65.8 63.1 65.85 63.3 64.15 68.0 60.4 70.55 L55.95 70.8 56.35 70.25 Q59.7 67.3 60.45 64.1 L60.55 64.1"/><path fill="none" stroke="#000000" stroke-width="0.5" stroke-opacity="0.301960784314" d="M80.45 46.05 L84.6 40.0 81.8 38.95 M80.45 46.05 Q79.05 50.1 75.15 54.0 L70.05 61.6 Q68.75 66.25 64.05 70.6 L59.65 77.1 Q57.75 82.35 53.95 85.6 L52.0 86.45 46.35 87.0 Q42.75 87.0 40.4 85.85 L38.05 85.9 Q38.95 82.0 43.45 77.8 L47.1 72.35 Q48.25 67.95 52.65 64.0 L57.45 57.0 Q58.7 52.9 62.9 49.05 L68.75 40.3 Q73.15 37.4 78.2 38.15 L81.8 38.95"/><path fill="none" stroke="#000000" stroke-width="0.5" stroke-opacity="0.6" d="M68.25 54.3 L71.9 53.95 72.0 53.95 75.15 54.0 M61.95 55.45 Q60.45 55.9 58.9 56.5 L57.45 57.0 M60.4 70.55 L60.9 70.55 64.05 70.6 M67.9 54.25 Q64.95 54.6 61.95 55.45 M47.1 72.35 L47.85 72.25 50.35 71.65 55.95 70.8 60.4 70.55"/><path stroke="none" fill="url(#gradient5)" d="M72.25 40.75 Q78.15 40.4 76.1 46.2 59.35 63.05 49.6 85.05 46.95 87.1 47.75 81.2 51.05 61.35 70.4 42.45 L72.25 40.75"/></g><g id="c11"><g><use transform="matrix(1.0,0.0,0.0,1.0,0.0,0.0)" xlink:href="#c10"/></g></g><g id="c12"><g><use transform="matrix(1.0,0.0,0.0,1.0,6.3,53.35)" xlink:href="#c9"/></g><g><use transform="matrix(-0.146041870117,0.0488891601562,0.0616760253906,0.140441894531,33.05,63.95)" xlink:href="#c11"/></g><g><use transform="matrix(0.141098022461,-0.0378112792969,0.111373901367,0.225646972656,27.2,74.05)" filter="url(#filter12)" xlink:href="#c6"/></g></g><filter id="filter12"><feColorMatrix in="SourceGraphic" type="matrix" values="1.0 0.0 0.0 0.0 0.0 0.0 1.0 0.0 0.0 0.0 0.0 0.0 1.0 0.0 0.0 0.0 0.0 0.0 0.23046875 0.0" result="cxform"/><feComposite operator="in" in2="SourceGraphic" result="color-xform"/></filter></defs><g><g><use transform="matrix(1.0,0.0,0.0,1.0,0.0,0.0)" xlink:href="#c1"/></g><g><use transform="matrix(1.15496826172,0.0,0.0,1.15496826172,-1.5,-57.15)" xlink:href="#c12"/></g></g></svg>