<?xml version='1.0' encoding='UTF-8'?>
<svg xmlns:xlink="http://www.w3.org/1999/xlink" xmlns="http://www.w3.org/2000/svg" version="1.1" width="60px" height="60px" viewBox="0.0 0.0 60.0 60.0"><defs><g id="c1"><path fill="#000000" fill-opacity="0.00392156862745" d="M0.0 0.0 L60.0 0.0 60.0 60.0 0.0 60.0 0.0 0.0"/></g><g id="c2"><path fill="none" stroke="#000000" stroke-width="1.0" stroke-opacity="0.301960784314" d="M22.3 0.35 Q26.6 -1.0 28.5 3.05 L41.4 31.7 Q43.1 35.4 39.9 36.85 L38.15 37.65 19.65 43.65 Q17.05 44.5 15.35 43.3 14.2 42.55 13.5 40.9 L0.55 12.25 Q-0.6 9.75 0.6 8.25 1.15 7.55 2.2 7.05 2.85 6.6 3.8 6.3 L22.3 0.35"/><path fill="#300525" stroke="none" d="M25.55 0.9 Q26.9 1.6 27.8 3.55 L40.7 32.15 Q42.6 36.3 38.3 37.65 L23.3 42.5 13.15 21.4 4.6 20.9 0.7 12.25 Q-0.45 9.75 0.75 8.25 L29.8 9.75 25.55 0.9 M20.1 43.55 L19.8 43.65 Q17.15 44.45 15.5 43.3 L20.1 43.55"/><path fill="#630a4c" stroke="none" d="M23.3 42.5 L20.1 43.55 15.5 43.3 Q14.35 42.55 13.65 40.9 L4.6 20.9 13.15 21.4 23.3 42.5 M0.75 8.25 Q1.45 7.3 3.1 6.75 L21.65 0.8 25.55 0.9 29.8 9.75 0.75 8.25"/><path fill="none" stroke="#000000" stroke-width="0.5" stroke-opacity="0.301960784314" d="M25.55 0.9 Q26.9 1.6 27.8 3.55 L40.7 32.15 Q42.6 36.3 38.3 37.65 L23.3 42.5 20.1 43.55 19.8 43.65 Q17.15 44.45 15.5 43.3 14.35 42.55 13.65 40.9 L4.6 20.9 0.7 12.25 Q-0.45 9.75 0.75 8.25 1.45 7.3 3.1 6.75 L21.65 0.8 25.55 0.9"/><path fill="#9d147b" stroke="none" d="M14.2 40.5 L1.35 11.8 Q-0.5 7.75 3.8 6.35 L22.3 0.4 Q26.55 -1.0 28.45 3.1 L41.35 31.7 Q43.25 35.85 38.9 37.25 L20.4 43.2 Q16.1 44.55 14.2 40.5"/><path fill="none" stroke="#000000" stroke-width="0.5" stroke-opacity="0.301960784314" d="M14.2 40.5 L1.35 11.8 Q-0.5 7.75 3.8 6.35 L22.3 0.4 Q26.55 -1.0 28.45 3.1 L41.35 31.7 Q43.25 35.85 38.9 37.25 L20.4 43.2 Q16.1 44.55 14.2 40.5"/><path fill="#fcf2cf" stroke="none" d="M9.15 13.6 Q9.8 12.8 9.55 11.6 L9.1 10.55 22.05 6.35 Q24.9 5.45 26.25 7.85 L26.5 8.3 35.8 29.0 35.95 29.35 Q34.75 29.3 34.1 30.1 33.45 30.9 33.7 32.1 L34.0 32.9 20.65 37.2 Q18.8 37.8 17.65 37.0 16.8 36.4 16.3 35.2 L6.95 14.6 6.8 14.4 7.1 14.4 Q8.4 14.45 9.15 13.6"/><path fill="#c47fad" stroke="none" d="M8.25 23.65 L3.35 12.8 Q1.65 9.1 5.5 7.85 L22.25 2.5 Q26.05 1.25 27.75 4.95 L28.25 6.1 35.55 22.3 39.35 30.75 Q41.1 34.5 37.2 35.7 L20.45 41.1 Q16.8 42.25 15.2 39.0 L15.0 38.6 8.25 23.65 M9.15 13.6 Q8.4 14.45 7.1 14.4 L6.8 14.4 6.95 14.6 16.3 35.2 Q16.8 36.4 17.65 37.0 18.8 37.8 20.65 37.2 L34.0 32.9 33.7 32.1 Q33.45 30.9 34.1 30.1 34.75 29.3 35.95 29.35 L35.8 29.0 26.5 8.3 26.25 7.85 Q24.9 5.45 22.05 6.35 L9.1 10.55 9.55 11.6 Q9.8 12.8 9.15 13.6"/><path fill="none" stroke="#ffcc00" stroke-width="1.0" stroke-opacity="0.749019607843" d="M8.25 23.65 L3.35 12.8 Q1.65 9.1 5.5 7.85 L22.25 2.5 Q26.05 1.25 27.75 4.95 L28.25 6.1 M35.55 22.3 L39.35 30.75 Q41.1 34.5 37.2 35.7 L20.45 41.1 Q16.8 42.25 15.2 39.0 L15.0 38.6"/><path fill="none" stroke="#bf9900" stroke-width="1.0" stroke-opacity="0.749019607843" d="M28.25 6.1 L35.55 22.3 M15.0 38.6 L8.25 23.65"/><path fill="none" stroke="#f0b92b" stroke-width="0.5" d="M9.15 13.6 Q9.8 12.8 9.55 11.6 L9.1 10.55 22.05 6.35 Q24.9 5.45 26.25 7.85 L26.5 8.3 35.8 29.0 35.95 29.35 Q34.75 29.3 34.1 30.1 33.45 30.9 33.7 32.1 L34.0 32.9 20.65 37.2 Q18.8 37.8 17.65 37.0 16.8 36.4 16.3 35.2 L6.95 14.6 6.8 14.4 7.1 14.4 Q8.4 14.45 9.15 13.6"/></g><g id="c3"><path fill="#7fdbfe" stroke="none" d="M10.75 4.9 Q10.75 4.6 10.9 4.35 11.25 3.45 11.95 2.75 13.3 1.5 14.35 2.1 15.4 2.7 14.95 4.45 14.7 5.4 14.1 6.15 L13.75 6.5 Q13.1 7.15 12.35 7.35 L11.4 7.2 Q10.95 6.9 10.75 6.4 10.5 5.75 10.75 4.9 M7.5 5.9 Q7.0 5.85 6.6 5.5 6.05 5.0 5.8 4.15 L5.7 3.6 Q5.55 2.65 5.8 1.7 6.25 0.0 7.5 0.0 L7.6 0.0 Q8.85 0.0 9.3 1.7 9.55 2.65 9.4 3.6 L9.3 4.15 8.5 5.5 7.6 5.9 7.5 5.9 M4.35 4.9 Q4.6 5.75 4.35 6.4 L3.7 7.2 2.75 7.35 Q2.0 7.15 1.35 6.5 L1.0 6.15 Q0.4 5.4 0.15 4.45 -0.3 2.7 0.75 2.1 1.8 1.5 3.15 2.75 3.85 3.45 4.2 4.35 L4.35 4.9 M5.5 13.7 Q4.45 13.9 3.65 12.95 2.75 12.0 3.2 10.25 3.7 8.5 5.25 7.6 6.4 6.9 7.55 7.0 8.75 6.9 9.9 7.6 11.45 8.5 11.95 10.25 12.35 12.0 11.5 12.95 10.7 13.9 9.65 13.7 8.55 13.5 7.55 12.6 6.55 13.5 5.5 13.7"/></g><g id="c4"><g><use transform="matrix(1.0,0.0,0.0,1.0,0.0,0.0)" xlink:href="#c3"/></g></g><radialGradient gradientUnits="userSpaceOnUse" r="819.2" cx="0" cy="0" spreadMethod="pad" gradientTransform="matrix(0.0914459228516,0.0,0.0,0.0914459228516,0.6,3.4)" id="gradient1"><stop offset="0.0" stop-color="#ffffff"/><stop offset="1.0" stop-color="#ffffff" stop-opacity="0.0"/></radialGradient><g id="c5"><path stroke="none" fill="url(#gradient1)" d="M36.65 -54.65 Q60.05 -42.0 69.75 -17.95 80.55 8.9 68.0 34.1 55.45 59.35 26.8 68.2 -1.8 77.05 -29.7 64.3 -57.6 51.6 -68.45 24.75 -79.3 -2.05 -66.75 -27.25 L-66.7 -27.3 Q-54.1 -52.5 -25.5 -61.4 3.1 -70.2 31.0 -57.5 L36.65 -54.65"/></g><g id="c6"><g><use transform="matrix(1.0,0.0,0.0,1.0,0.0,0.0)" xlink:href="#c5"/></g></g><radialGradient gradientUnits="userSpaceOnUse" r="819.2" cx="0" cy="0" spreadMethod="pad" gradientTransform="matrix(0.209197998047,0.0,0.0,0.177108764648,67.15,107.2)" id="gradient2"><stop offset="0.356862745098" stop-color="#ffffff"/><stop offset="0.670588235294" stop-opacity="0.0"/></radialGradient><g id="c7"><path fill="none" stroke-linejoin="round" stroke-linecap="round" stroke="url(#gradient2)" stroke-width="0.5" d="M136.55 165.8 L68.6 106.0 68.4 106.0 118.25 201.5 M68.2 105.7 L68.25 105.8 68.25 105.75 68.2 105.7 0.0 45.7 M68.25 105.8 L68.3 105.85 68.3 105.8 68.25 105.75 49.95 0.05 M0.05 97.7 L68.15 105.95 68.25 105.85 68.25 105.8 M68.3 105.85 L68.25 105.85 68.3 106.0 68.3 105.85 68.3 105.8 68.35 105.8 68.3 105.8 86.6 18.35 M50.0 193.2 L68.3 106.0 68.15 105.95 18.25 151.55 M68.4 106.0 L68.3 106.0 86.55 211.5 M68.4 106.0 L68.3 105.85 M68.6 106.0 L68.35 105.8 118.25 60.15 M136.6 114.25 L68.6 106.0 M68.2 105.7 L18.25 10.05"/></g><g id="c8"><g><use transform="matrix(1.0,0.0,0.0,1.0,0.0,0.0)" xlink:href="#c7"/></g></g><g id="c9"><path fill="#a6a637" stroke="none" d="M27.3 24.55 L27.2 24.8 26.9 25.3 26.8 25.45 26.8 26.0 27.4 25.3 27.45 25.05 Q27.45 24.85 27.25 24.95 L27.2 25.0 27.25 24.95 27.3 24.55"/><path fill="#f9f8ec" stroke="none" d="M26.9 25.3 L27.2 24.8 27.3 24.55 27.3 24.4 27.0 24.35 26.6 24.45 26.6 24.5 27.05 24.45 27.2 24.45 27.2 24.75 26.9 25.3"/><path fill="#cac960" stroke="none" d="M27.3 24.55 L27.25 24.95 27.2 25.0 27.25 24.95 Q27.45 24.85 27.45 25.05 L27.4 25.3 26.8 26.0 26.8 26.15 27.45 25.45 Q27.65 25.05 27.45 24.8 L27.3 24.4 27.3 24.55"/><path fill="#e6e4b3" stroke="none" d="M26.8 25.45 L26.9 25.3 27.2 24.75 27.2 24.45 27.05 24.45 26.6 24.5 26.65 24.55 26.8 25.45"/><path fill="#ffff98" stroke="none" d="M26.6 24.5 L26.6 24.45 26.35 24.5 25.7 24.85 Q25.45 25.0 25.7 25.5 L25.9 25.55 26.25 25.6 26.45 25.6 26.25 25.55 25.85 25.35 Q25.6 25.05 25.7 24.95 L26.35 24.6 26.65 24.55 26.6 24.5"/><path fill="#ffde4f" stroke="none" d="M26.8 26.0 L26.8 25.45 26.65 24.55 26.35 24.6 25.7 24.95 Q25.6 25.05 25.85 25.35 L26.25 25.55 26.45 25.6 26.25 25.6 25.9 25.55 26.2 26.05 26.5 26.15 26.8 26.0"/><path fill="#f4a33c" stroke="none" d="M25.9 25.55 L25.7 25.5 25.75 25.6 26.2 26.2 26.45 26.35 26.8 26.15 26.8 26.0 26.5 26.15 26.2 26.05 25.9 25.55"/><path fill="none" stroke="#000000" stroke-width="0.5" stroke-opacity="0.301960784314" d="M26.8 26.0 L26.8 25.45 26.65 24.55 M26.6 24.5 L26.6 24.45 27.0 24.35 27.3 24.4 M26.8 26.15 L27.45 25.45 Q27.65 25.05 27.45 24.8 L27.3 24.4 M26.6 24.5 L26.65 24.55 M25.7 25.5 Q25.45 25.0 25.7 24.85 L26.35 24.5 26.6 24.45 M25.7 25.5 L25.75 25.6 26.2 26.2 26.45 26.35 26.8 26.15 26.8 26.0"/><path fill="#ffff98" stroke="none" d="M28.1 17.1 Q28.4 15.7 28.15 14.35 L28.05 14.15 27.85 13.3 26.95 13.25 Q25.05 13.25 23.4 14.25 22.0 13.8 20.5 13.9 18.9 14.05 17.8 14.7 L17.1 15.3 Q14.0 15.0 11.75 15.8 L10.8 16.2 12.45 17.2 Q11.45 16.65 11.25 16.25 14.0 15.25 16.95 15.45 L16.65 15.7 16.1 16.65 15.95 17.0 15.9 17.2 Q15.6 18.25 15.95 19.5 L16.35 20.55 Q17.1 22.0 18.7 23.0 19.6 23.6 20.6 23.85 21.35 24.8 20.65 25.7 L21.1 24.9 21.05 24.0 23.4 24.2 Q25.75 24.0 27.05 22.45 L27.15 22.35 27.95 20.85 27.95 20.8 27.95 20.75 28.0 20.75 28.05 20.25 Q28.15 19.45 27.85 18.55 L27.8 18.35 26.8 16.45 25.1 15.05 24.6 14.75 23.5 14.25 Q25.15 13.6 26.45 13.55 L26.05 14.3 26.85 13.5 27.7 13.55 27.85 14.25 27.05 15.2 26.85 14.25 25.85 14.4 25.45 14.55 25.15 14.7 25.25 14.75 26.75 14.45 26.85 15.65 26.9 15.95 27.0 16.1 27.0 16.15 27.05 16.05 27.05 15.3 Q27.6 14.5 27.9 14.6 28.25 15.1 28.1 17.1 M23.4 14.25 L23.5 14.25 23.4 14.25 M12.65 16.9 Q13.8 16.3 15.1 16.45 L15.15 16.45 15.3 16.3 15.1 16.25 Q13.75 16.1 12.5 16.75 L12.65 16.9 M13.25 18.95 L10.45 16.3 11.25 17.3 12.85 18.95 Q13.75 20.0 14.3 23.1 L14.3 22.45 Q14.15 21.0 13.55 19.5 L14.65 20.2 15.5 20.8 15.5 20.45 13.25 18.95 M16.0 17.75 L16.1 16.95 16.15 16.85 17.25 15.2 Q18.05 16.65 19.35 17.85 17.4 15.75 18.0 15.0 19.65 13.9 22.25 14.25 25.05 14.9 26.85 17.0 28.3 19.3 27.25 20.75 26.45 21.4 22.95 20.2 L27.4 21.8 27.3 22.0 Q26.35 23.2 24.85 23.6 23.05 21.65 21.0 20.25 23.7 22.4 23.95 23.5 L23.5 23.9 Q21.1 24.05 18.95 22.7 16.75 21.3 16.2 19.2 15.95 18.45 16.0 17.75 M16.95 15.45 L17.1 15.3 16.95 15.45"/><path fill="#ffde4f" stroke="none" d="M10.45 16.3 Q10.45 19.1 12.2 21.8 L13.7 23.5 14.25 23.6 14.3 23.4 Q13.4 23.5 11.6 20.3 10.8 18.4 10.75 16.95 L11.25 17.3 10.45 16.3 M16.85 25.2 L18.35 25.95 Q17.4 25.45 17.0 24.95 16.45 23.75 16.1 21.55 L16.25 23.15 16.85 25.2 M28.05 17.4 L28.1 17.1 Q28.25 15.1 27.9 14.6 27.6 14.5 27.05 15.3 L27.05 16.05 27.0 16.15 27.0 16.1 26.9 15.95 26.85 15.9 26.85 15.95 26.75 16.1 Q27.2 17.15 28.05 17.4 M25.25 14.75 L25.15 14.7 25.45 14.55 25.85 14.4 26.05 14.3 26.45 13.55 Q25.15 13.6 23.5 14.25 L24.6 14.75 24.9 14.65 26.8 15.9 26.85 15.9 26.7 15.8 25.55 14.9 25.25 14.75 M15.15 16.45 L15.05 16.55 15.05 16.7 Q14.8 17.0 14.7 17.4 L15.05 17.3 Q15.65 17.1 16.1 16.65 L16.65 15.7 16.95 15.45 Q14.0 15.25 11.25 16.25 11.45 16.65 12.45 17.2 L12.65 17.25 12.95 17.3 12.8 17.15 12.65 16.9 12.5 16.75 Q13.75 16.1 15.1 16.25 L15.3 16.3 15.15 16.45 M15.5 18.35 L14.95 18.3 Q14.1 18.4 13.6 18.75 L13.25 18.95 15.5 20.45 Q15.35 19.35 15.5 18.35 M19.35 17.85 Q20.85 19.2 22.95 20.2 26.45 21.4 27.25 20.75 28.3 19.3 26.85 17.0 25.05 14.9 22.25 14.25 19.65 13.9 18.0 15.0 17.4 15.75 19.35 17.85 M21.0 20.25 Q18.65 18.65 16.0 17.75 15.95 18.45 16.2 19.2 16.75 21.3 18.95 22.7 21.1 24.05 23.5 23.9 L23.95 23.5 Q23.7 22.4 21.0 20.25"/><path fill="#cc6b22" stroke="none" d="M13.7 23.5 L14.25 23.95 Q15.5 24.9 16.85 25.2 L16.25 23.15 16.1 21.55 16.35 20.55 15.95 19.5 Q15.6 18.25 15.9 17.2 L15.5 18.35 Q15.35 19.35 15.5 20.45 L15.5 20.8 14.65 20.2 13.55 19.5 Q14.15 21.0 14.3 22.45 L14.3 23.1 14.3 23.4 14.25 23.6 13.7 23.5 M26.9 15.95 L26.85 15.65 26.75 14.45 25.25 14.75 25.55 14.9 26.6 14.65 26.7 15.8 26.85 15.9 26.9 15.95 M15.05 16.7 L15.05 16.55 15.15 16.45 15.1 16.45 Q13.8 16.3 12.65 16.9 L12.8 17.15 Q13.7 16.5 15.05 16.7 M20.65 25.7 L20.0 26.05 21.45 26.15 Q24.3 25.95 25.8 24.4 26.9 23.25 27.05 22.45 25.75 24.0 23.4 24.2 L21.05 24.0 21.1 24.9 20.65 25.7"/><path fill="#f4a33c" stroke="none" d="M10.8 16.2 L10.45 16.3 13.25 18.95 13.6 18.75 Q14.1 18.4 14.95 18.3 L15.5 18.35 15.9 17.2 15.95 17.0 16.1 16.65 Q15.65 17.1 15.05 17.3 L14.7 17.4 14.45 18.3 12.95 17.3 12.65 17.25 12.45 17.2 10.8 16.2 M18.35 25.95 L19.45 26.25 Q21.65 26.75 23.95 25.9 27.25 24.45 27.95 20.85 L27.15 22.35 27.05 22.45 Q26.9 23.25 25.8 24.4 24.3 25.95 21.45 26.15 L20.0 26.05 20.65 25.7 Q21.35 24.8 20.6 23.85 19.6 23.6 18.7 23.0 17.1 22.0 16.35 20.55 L16.1 21.55 Q16.45 23.75 17.0 24.95 17.4 25.45 18.35 25.95 M27.8 18.35 L28.05 17.4 Q27.2 17.15 26.75 16.1 L26.85 15.95 26.85 15.9 26.8 15.9 24.9 14.65 24.6 14.75 25.1 15.05 26.8 16.45 27.8 18.35 M25.85 14.4 L26.85 14.25 27.05 15.2 27.85 14.25 27.7 13.55 26.85 13.5 26.05 14.3 25.85 14.4 M11.25 17.3 L10.75 16.95 Q10.8 18.4 11.6 20.3 13.4 23.5 14.3 23.4 L14.3 23.1 Q13.75 20.0 12.85 18.95 L11.25 17.3 M19.35 17.85 Q18.05 16.65 17.25 15.2 L16.15 16.85 16.1 16.95 16.0 17.75 Q18.65 18.65 21.0 20.25 23.05 21.65 24.85 23.6 26.35 23.2 27.3 22.0 L27.4 21.8 22.95 20.2 Q20.85 19.2 19.35 17.85"/><path fill="#963807" stroke="none" d="M15.05 16.7 Q13.7 16.5 12.8 17.15 L12.95 17.3 14.45 18.3 14.7 17.4 Q14.8 17.0 15.05 16.7 M26.7 15.8 L26.6 14.65 25.55 14.9 26.7 15.8"/><path fill="none" stroke="#000000" stroke-width="0.5" stroke-opacity="0.301960784314" d="M28.1 17.1 Q28.4 15.7 28.15 14.35 L28.05 14.15 27.85 13.3 26.95 13.25 Q25.05 13.25 23.4 14.25 22.0 13.8 20.5 13.9 18.9 14.05 17.8 14.7 L17.1 15.3 Q14.0 15.0 11.75 15.8 L10.8 16.2 10.45 16.3 Q10.45 19.1 12.2 21.8 L13.7 23.5 14.25 23.95 Q15.5 24.9 16.85 25.2 L18.35 25.95 19.45 26.25 Q21.65 26.75 23.95 25.9 27.25 24.45 27.95 20.85 L27.95 20.8 27.95 20.75 28.0 20.75 28.05 20.25 Q28.15 19.45 27.85 18.55 L27.8 18.35 28.05 17.4 28.1 17.1 M27.0 16.15 L27.0 16.1 26.9 15.95 M25.25 14.75 L25.15 14.7 M23.5 14.25 L23.4 14.25 M15.15 16.45 L15.05 16.55 15.05 16.7 M12.8 17.15 L12.65 16.9 M15.15 16.45 L15.3 16.3 M12.5 16.75 L12.65 16.9 M16.1 16.65 L15.95 17.0 15.9 17.2 15.5 18.35 Q15.35 19.35 15.5 20.45 M14.7 17.4 Q14.8 17.0 15.05 16.7 M16.95 15.45 L16.65 15.7 16.1 16.65 M14.7 17.4 L14.45 18.3 12.95 17.3 12.8 17.15 M17.1 15.3 L16.95 15.45 M15.5 20.8 L15.5 20.45 M24.6 14.75 L23.5 14.25 M24.6 14.75 L25.1 15.05 26.8 16.45 27.8 18.35 M26.85 15.9 L26.9 15.95 M25.55 14.9 L25.25 14.75 M25.55 14.9 L26.7 15.8 26.85 15.9 M27.95 20.85 L27.95 20.8 27.95 20.75 M27.95 20.85 L27.95 20.8"/><path fill="#a34100" stroke="none" d="M20.3 17.45 L19.65 17.1 19.55 17.05 17.55 16.9 17.5 17.25 20.3 17.45 M23.95 16.75 L23.65 17.35 Q24.45 16.55 25.8 16.1 L25.95 16.1 25.55 15.85 23.95 16.75"/><path fill="#ffff98" stroke="none" d="M17.55 16.9 L17.3 17.5 20.3 17.45 17.5 17.25 17.55 16.9 M23.95 16.75 Q23.35 17.2 23.35 17.7 24.45 16.65 25.8 16.15 L25.8 16.1 Q24.45 16.55 23.65 17.35 L23.95 16.75"/><path fill="none" stroke="#000000" stroke-width="0.5" stroke-opacity="0.301960784314" d="M20.3 17.45 L19.65 17.1 19.55 17.05 17.55 16.9 M20.3 17.45 L17.5 17.25 17.55 16.9 M23.95 16.75 L23.65 17.35 Q24.45 16.55 25.8 16.1 L25.95 16.1 25.55 15.85 23.95 16.75"/><path fill="#cc6b22" stroke="none" d="M22.85 21.7 L23.0 21.75 24.05 21.8 24.8 21.65 25.65 21.15 25.85 20.95 26.1 20.4 26.2 20.1 26.3 19.65 26.25 18.8 26.25 18.6 26.2 18.6 21.75 18.95 21.7 18.25 21.15 18.3 21.25 17.7 Q20.7 17.9 20.55 18.5 L20.5 18.65 Q20.4 19.0 20.45 19.4 L20.45 19.65 20.7 20.2 20.7 20.3 20.9 20.55 21.9 21.35 22.65 21.7 22.85 21.7"/><path fill="#ffff98" stroke="none" d="M22.85 21.7 L22.65 21.7 21.9 21.35 20.9 20.55 20.7 20.3 Q21.25 21.45 23.0 21.95 L22.85 21.7"/><path fill="#f0edd2" stroke="none" d="M22.55 16.45 L22.35 16.8 22.3 16.85 22.25 16.9 22.05 17.3 Q21.5 18.65 22.5 19.65 23.15 20.25 23.8 20.3 L24.95 20.05 25.7 19.6 25.75 19.5 26.25 18.85 26.45 18.3 26.45 18.2 26.4 18.05 26.15 17.55 25.4 16.6 25.35 16.7 25.3 16.85 Q26.15 17.55 26.2 18.25 L26.1 18.8 25.5 19.5 25.05 19.8 Q23.95 20.5 22.8 19.45 22.2 18.9 22.1 18.1 22.1 17.7 22.25 17.4 L22.45 16.85 Q22.7 16.45 23.1 16.3 L23.6 16.2 23.7 16.0 23.6 16.0 Q22.95 16.15 22.55 16.45"/><path fill="#cac960" stroke="none" d="M23.8 20.3 Q23.15 20.25 22.5 19.65 21.5 18.65 22.05 17.3 L22.25 16.9 22.3 16.85 22.35 16.8 22.55 16.45 Q22.05 16.55 21.6 17.05 L20.75 18.2 20.65 18.95 20.7 19.25 21.15 20.15 22.1 20.95 23.7 20.9 23.8 20.75 23.8 20.3 M26.25 18.85 L25.75 19.5 25.7 19.6 25.7 19.65 24.7 20.95 Q24.5 21.3 24.7 21.25 L25.85 20.55 26.2 19.9 26.25 18.85 M25.1 17.1 L24.95 17.15 24.7 17.25 24.3 17.2 24.05 17.1 23.7 16.85 23.6 16.6 Q23.35 16.8 23.35 17.05 L23.65 17.5 24.3 17.65 24.7 17.55 24.95 17.35 25.15 17.05 25.1 17.1"/><path fill="#e6e4b3" stroke="none" d="M22.55 16.45 Q22.95 16.15 23.6 16.0 L22.7 16.15 22.6 16.2 22.2 16.4 21.75 16.6 21.65 16.7 21.45 16.9 Q20.95 17.4 20.8 18.05 L20.75 18.2 21.6 17.05 Q22.05 16.55 22.55 16.45 M23.6 16.2 L23.1 16.3 Q22.7 16.45 22.45 16.85 L22.25 17.4 Q22.1 17.7 22.1 18.1 22.2 18.9 22.8 19.45 23.95 20.5 25.05 19.8 L25.5 19.5 26.1 18.8 26.2 18.25 Q26.15 17.55 25.3 16.85 L25.2 16.95 25.15 17.05 24.95 17.35 24.7 17.55 24.3 17.65 23.65 17.5 23.35 17.05 Q23.35 16.8 23.6 16.6 L23.55 16.6 23.55 16.5 23.55 16.4 23.55 16.35 23.6 16.2 M26.45 18.2 L26.45 18.3 26.25 18.85 26.2 19.9 25.85 20.55 24.7 21.25 24.25 21.4 25.05 21.25 Q25.6 21.1 25.85 20.75 L26.05 20.5 26.35 20.05 26.45 19.65 26.55 19.25 26.55 18.35 26.45 18.2"/><path fill="#ffff98" stroke="none" d="M23.7 16.0 L23.6 16.2 23.55 16.35 23.6 16.35 23.75 16.1 Q23.95 15.85 24.15 15.85 L24.1 15.9 24.1 16.0 24.1 16.1 24.1 16.2 24.1 16.35 24.15 16.4 24.5 16.55 24.65 16.6 24.9 16.6 24.95 16.5 25.0 16.5 25.05 16.45 25.0 16.45 25.1 16.3 25.1 16.25 25.2 16.7 25.1 17.1 25.15 17.05 25.2 16.95 25.3 16.85 25.35 16.7 25.4 16.6 25.25 16.05 Q25.05 15.7 24.7 15.65 L24.6 15.6 24.05 15.7 Q23.8 15.8 23.7 16.0 M24.4 15.85 L24.6 15.8 24.7 15.85 Q24.9 15.85 25.0 16.0 L25.0 16.25 25.0 16.3 24.95 16.4 24.9 16.45 24.9 16.5 24.85 16.55 24.65 16.55 24.55 16.55 24.25 16.35 24.2 16.25 24.2 16.15 24.2 16.05 24.25 16.0 24.3 15.95 24.4 15.85"/><path fill="#ffde4f" stroke="none" d="M24.4 15.85 L24.3 15.95 24.25 16.0 24.2 16.05 24.2 16.15 24.2 16.25 24.25 16.35 24.55 16.55 24.65 16.55 24.85 16.55 24.9 16.5 24.9 16.45 24.95 16.4 25.0 16.3 25.0 16.25 25.0 16.0 Q24.9 15.85 24.7 15.85 L24.6 15.8 24.4 15.85 M25.2 16.7 L24.7 17.1 24.55 17.15 Q24.0 17.05 23.85 16.8 23.65 16.4 23.75 16.1 L23.6 16.35 23.55 16.4 23.55 16.5 23.55 16.6 23.6 16.6 23.7 16.85 24.05 17.1 24.3 17.2 24.7 17.25 24.95 17.15 25.1 17.1 25.2 16.7"/><path fill="#f4a33c" stroke="none" d="M25.2 16.7 L25.1 16.25 25.1 16.3 25.0 16.45 25.05 16.45 25.0 16.5 24.95 16.5 24.9 16.6 24.65 16.6 24.5 16.55 24.15 16.4 24.1 16.35 24.1 16.2 24.1 16.1 24.1 16.0 24.1 15.9 24.15 15.85 Q23.95 15.85 23.75 16.1 23.65 16.4 23.85 16.8 24.0 17.05 24.55 17.15 L24.7 17.1 25.2 16.7 M23.6 16.35 L23.55 16.35 23.55 16.4 23.6 16.35"/><path fill="#a6a637" stroke="none" d="M25.7 19.6 L24.95 20.05 23.8 20.3 23.8 20.75 23.7 20.9 22.1 20.95 22.95 21.25 23.2 21.35 24.25 21.4 24.7 21.25 Q24.5 21.3 24.7 20.95 L25.7 19.65 25.7 19.6"/><path fill="none" stroke="#000000" stroke-width="0.5" stroke-opacity="0.301960784314" d="M23.6 16.0 L23.7 16.0 23.6 16.2 M25.3 16.85 L25.35 16.7 25.4 16.6 26.15 17.55 26.4 18.05 26.45 18.2 M22.1 20.95 L21.15 20.15 20.7 19.25 20.65 18.95 20.75 18.2 20.8 18.05 Q20.95 17.4 21.45 16.9 L21.65 16.7 21.75 16.6 22.2 16.4 22.6 16.2 22.7 16.15 23.6 16.0 M23.55 16.35 L23.6 16.2 M25.4 16.6 L25.25 16.05 Q25.05 15.7 24.7 15.65 L24.6 15.6 24.05 15.7 Q23.8 15.8 23.7 16.0 M23.6 16.6 L23.7 16.85 24.05 17.1 24.3 17.2 24.7 17.25 24.95 17.15 25.1 17.1 25.15 17.05 25.2 16.95 25.3 16.85 M23.6 16.6 L23.55 16.6 23.55 16.5 23.55 16.4 23.55 16.35 M24.25 21.4 L25.05 21.25 Q25.6 21.1 25.85 20.75 L26.05 20.5 26.35 20.05 26.45 19.65 26.55 19.25 26.55 18.35 26.45 18.2 M22.1 20.95 L22.95 21.25 23.2 21.35 24.25 21.4"/><path fill="#f0edd2" stroke="none" d="M26.1 26.75 L25.9 26.95 25.2 27.1 24.8 27.25 24.6 27.3 Q23.1 27.7 22.4 26.15 22.9 27.7 24.1 27.55 23.25 27.9 22.7 28.35 L22.2 28.9 22.05 29.25 22.1 29.45 Q22.15 29.0 22.7 28.55 23.3 28.05 24.1 27.7 L24.8 27.45 25.9 27.1 26.15 26.8 26.5 26.75 26.5 27.0 26.6 27.0 27.3 27.0 27.9 27.1 28.3 27.45 28.25 27.3 28.2 27.15 Q27.2 25.6 26.0 24.7 L25.9 24.5 25.8 24.4 25.9 25.3 25.85 25.6 25.8 25.9 25.4 25.75 25.35 25.7 25.35 25.65 25.2 25.55 23.25 24.6 23.1 24.55 23.05 24.55 Q24.35 25.15 25.25 25.75 L25.7 26.0 26.3 26.4 26.55 26.65 26.15 26.7 26.2 26.7 26.1 26.75 M26.0 24.7 L26.0 24.8 26.0 24.7 M26.0 26.1 L25.95 25.2 26.0 24.8 26.3 25.1 Q28.1 26.8 27.5 26.85 L27.1 26.8 26.95 26.8 26.95 26.85 26.6 26.85 26.7 26.65 26.0 26.1 25.8 25.9 26.0 26.1"/><path fill="#cac960" stroke="none" d="M22.45 24.8 L23.6 25.25 23.85 25.35 25.2 26.05 25.7 26.3 Q26.5 26.65 25.7 26.0 L25.25 25.75 Q24.35 25.15 23.05 24.55 L22.45 24.8 M25.9 26.95 L24.8 26.15 23.75 25.55 24.7 26.2 Q25.6 26.9 25.2 27.1 L25.9 26.95 M22.3 25.4 L22.2 25.5 Q21.75 27.2 22.05 29.25 L22.2 28.9 Q22.0 26.65 22.35 25.7 L22.35 25.65 22.3 25.4 M27.1 28.9 L27.65 28.45 Q28.35 27.85 28.3 27.45 L27.9 27.1 Q28.3 27.55 27.75 28.2 L27.1 28.9 M25.8 24.4 L25.4 24.2 25.45 25.1 Q25.5 25.65 25.85 25.6 L25.9 25.3 25.8 24.4 M26.95 26.8 L27.1 26.8 27.5 26.85 Q28.1 26.8 26.3 25.1 27.35 26.25 27.4 26.6 27.45 26.8 26.95 26.8"/><path fill="#a6a637" stroke="none" d="M22.45 24.8 L22.45 25.2 22.65 25.05 23.75 25.55 24.8 26.15 25.9 26.95 26.1 26.75 25.0 26.0 23.85 25.35 23.6 25.25 22.45 24.8 M22.1 29.45 L22.1 29.55 Q22.3 29.95 23.3 30.0 L25.6 29.55 27.1 28.9 27.75 28.2 Q28.3 27.55 27.9 27.1 L27.3 27.0 26.6 27.0 26.5 27.0 26.5 26.75 26.15 26.8 25.9 27.1 24.8 27.45 24.1 27.7 Q23.3 28.05 22.7 28.55 22.15 29.0 22.1 29.45 M25.2 24.25 L23.25 24.6 25.2 25.55 25.2 24.25 M22.4 26.15 L22.35 25.7 Q22.0 26.65 22.2 28.9 L22.7 28.35 Q23.25 27.9 24.1 27.55 22.9 27.7 22.4 26.15"/><path fill="#e6e4b3" stroke="none" d="M23.85 25.35 L25.0 26.0 26.1 26.75 26.2 26.7 26.15 26.7 26.55 26.65 26.3 26.4 25.7 26.0 Q26.5 26.65 25.7 26.3 L25.2 26.05 23.85 25.35 M23.75 25.55 L22.65 25.05 22.45 25.2 22.3 25.4 22.35 25.65 22.35 25.7 22.4 26.15 Q23.1 27.7 24.6 27.3 L24.8 27.25 25.2 27.1 Q25.6 26.9 24.7 26.2 L23.75 25.55 M25.4 24.2 L25.3 24.15 25.3 24.3 25.35 24.95 25.35 25.65 25.35 25.7 25.4 25.75 25.8 25.9 25.85 25.6 Q25.5 25.65 25.45 25.1 L25.4 24.2 M26.0 24.8 L25.95 25.2 26.0 26.1 26.7 26.65 26.6 26.85 26.95 26.85 26.95 26.8 Q27.45 26.8 27.4 26.6 27.35 26.25 26.3 25.1 L26.0 24.8"/><path fill="#8c8c2f" stroke="none" d="M25.3 24.15 L25.2 24.25 25.2 25.55 25.35 25.65 25.35 24.95 25.3 24.3 25.3 24.15"/><path fill="none" stroke="#000000" stroke-width="0.5" stroke-opacity="0.301960784314" d="M22.45 25.2 L22.45 24.8 M22.65 25.05 L22.45 25.2 22.3 25.4 22.2 25.5 Q21.75 27.2 22.05 29.25 L22.1 29.45 22.1 29.55 Q22.3 29.95 23.3 30.0 L25.6 29.55 27.1 28.9 27.65 28.45 Q28.35 27.85 28.3 27.45 L28.25 27.3 28.2 27.15 Q27.2 25.6 26.0 24.7 L25.9 24.5 25.8 24.4 25.4 24.2 25.3 24.15 25.2 24.25 23.25 24.6 23.1 24.55 23.05 24.55 22.45 24.8 M26.0 24.8 L26.0 24.7 M25.8 25.9 L25.4 25.75 25.35 25.7 25.35 25.65 25.2 25.55 M26.0 24.8 L25.95 25.2 26.0 26.1 25.8 25.9 M26.0 26.1 L26.7 26.65 26.6 26.85 M23.25 24.6 L25.2 25.55"/><path fill="#80802b" stroke="none" d="M25.5 29.15 L26.45 29.15 Q27.0 28.95 27.35 28.6 L27.7 27.85 27.25 27.4 26.3 27.45 Q25.75 27.6 25.4 27.95 25.0 28.35 25.05 28.7 25.05 29.05 25.5 29.15"/><path fill="#ffde4f" stroke="none" d="M27.45 27.5 L27.2 27.4 27.05 27.4 26.6 27.6 Q26.15 28.05 26.3 28.8 L26.65 29.45 26.75 29.6 Q27.3 29.7 27.55 28.6 L27.45 27.5 M27.1 29.85 L27.15 29.85 27.1 29.85"/><path fill="#cc6b22" stroke="none" d="M26.4 27.45 L26.3 27.55 Q25.95 27.65 25.75 27.85 25.35 28.3 25.45 28.6 L26.05 29.45 Q26.55 29.95 27.0 29.8 L26.5 29.45 26.05 28.7 Q25.95 27.95 26.4 27.45"/><path fill="#ffff98" stroke="none" d="M27.05 27.4 L26.4 27.45 Q25.95 27.95 26.05 28.7 L26.5 29.45 27.0 29.8 27.1 29.85 27.15 29.85 27.4 29.4 27.6 28.85 27.7 27.75 27.45 27.5 27.55 28.6 Q27.3 29.7 26.75 29.6 L26.65 29.45 26.3 28.8 Q26.15 28.05 26.6 27.6 L27.05 27.4"/><path fill="#f4a33c" stroke="none" d="M25.75 27.85 L25.5 28.05 Q25.2 28.3 25.3 28.6 L25.9 29.5 25.95 29.5 Q26.55 30.2 27.0 29.9 L27.1 29.85 27.0 29.8 Q26.55 29.95 26.05 29.45 L25.45 28.6 Q25.35 28.3 25.75 27.85"/><path fill="none" stroke="#000000" stroke-width="0.5" stroke-opacity="0.301960784314" d="M27.45 27.5 L27.2 27.4 27.05 27.4 26.4 27.45 26.3 27.55 Q25.95 27.65 25.75 27.85 L25.5 28.05 Q25.2 28.3 25.3 28.6 L25.9 29.5 25.95 29.5 Q26.55 30.2 27.0 29.9 L27.1 29.85 27.15 29.85 27.4 29.4 27.6 28.85 27.7 27.75 27.45 27.5"/><path fill="#f9f8ec" stroke="none" d="M21.15 25.85 L20.75 25.9 20.45 26.1 20.55 26.2 20.8 26.4 21.25 26.75 20.8 26.3 20.6 26.1 20.75 26.0 21.2 25.85 21.15 25.85"/><path fill="#a6a637" stroke="none" d="M21.25 26.75 L20.8 26.4 20.55 26.2 20.75 26.55 20.85 26.6 20.75 26.55 Q20.55 26.6 20.6 26.8 L20.8 26.9 Q21.15 27.2 21.55 27.3 L21.5 26.85 21.25 26.75"/><path fill="#cac960" stroke="none" d="M20.55 26.2 L20.45 26.1 Q20.35 26.3 20.55 26.55 20.4 26.85 20.8 27.05 21.2 27.35 21.55 27.45 L21.55 27.3 Q21.15 27.2 20.8 26.9 L20.6 26.8 Q20.55 26.6 20.75 26.55 L20.85 26.6 20.75 26.55 20.55 26.2"/><path fill="#e6e4b3" stroke="none" d="M21.2 25.85 L20.75 26.0 20.6 26.1 20.8 26.3 21.25 26.75 21.5 26.85 21.2 25.85"/><path fill="#ffff98" stroke="none" d="M21.15 25.85 L21.2 25.85 21.45 25.85 22.2 26.0 22.25 26.35 21.9 26.7 21.75 26.85 21.95 26.75 22.25 26.55 22.4 26.45 Q22.4 25.85 22.15 25.85 L21.4 25.8 21.15 25.85"/><path fill="#ffde4f" stroke="none" d="M21.75 26.85 L21.9 26.7 22.25 26.35 22.2 26.0 21.45 25.85 21.2 25.85 21.5 26.85 21.75 26.85"/><path fill="#f4a33c" stroke="none" d="M21.55 27.45 L22.1 27.5 22.25 27.25 22.4 26.6 22.4 26.45 22.25 26.55 22.15 27.1 21.95 27.35 21.55 27.3 21.55 27.45"/><path fill="#cc6b22" stroke="none" d="M21.75 26.85 L21.5 26.85 21.55 27.3 21.95 27.35 22.15 27.1 22.25 26.55 21.95 26.75 21.75 26.85"/><path fill="none" stroke="#000000" stroke-width="0.5" stroke-opacity="0.301960784314" d="M20.45 26.1 L20.75 25.9 21.15 25.85 21.2 25.85 M20.45 26.1 Q20.35 26.3 20.55 26.55 20.4 26.85 20.8 27.05 21.2 27.35 21.55 27.45 L22.1 27.5 22.25 27.25 22.4 26.6 22.4 26.45 Q22.4 25.85 22.15 25.85 L21.4 25.8 21.15 25.85 M21.55 27.3 L21.5 26.85 21.2 25.85 M21.55 27.45 L21.55 27.3"/><path fill="#80802b" stroke="none" d="M23.1 29.75 L24.05 29.7 Q24.6 29.6 25.0 29.2 L25.35 28.45 24.9 28.0 23.95 28.0 Q23.4 28.2 23.0 28.55 22.65 28.95 22.65 29.3 22.7 29.65 23.1 29.75"/><path fill="#cc6b22" stroke="none" d="M24.05 28.1 L23.95 28.1 23.4 28.4 Q23.05 28.9 23.15 29.2 L23.9 30.05 Q24.45 30.5 24.85 30.35 L24.4 30.05 Q23.95 29.75 23.85 29.3 23.6 28.55 24.05 28.1"/><path fill="#f4a33c" stroke="none" d="M23.4 28.4 L23.25 28.65 Q22.95 28.95 23.0 29.2 L23.8 30.1 23.8 30.15 Q24.5 30.75 24.95 30.45 L25.0 30.4 24.85 30.35 Q24.45 30.5 23.9 30.05 L23.15 29.2 Q23.05 28.9 23.4 28.4"/><path fill="#ffff98" stroke="none" d="M25.05 30.4 L25.3 30.0 25.4 29.4 25.35 28.35 25.1 28.15 25.35 29.2 Q25.15 30.3 24.65 30.2 L24.5 30.05 24.05 29.35 Q23.85 28.65 24.3 28.2 24.45 28.05 24.75 28.0 L24.05 28.1 Q23.6 28.55 23.85 29.3 23.95 29.75 24.4 30.05 L24.85 30.35 25.0 30.4 25.05 30.4"/><path fill="#ffde4f" stroke="none" d="M25.0 30.4 L25.05 30.4 25.0 30.4 M25.1 28.15 L24.85 28.05 24.75 28.0 Q24.45 28.05 24.3 28.2 23.85 28.65 24.05 29.35 L24.5 30.05 24.65 30.2 Q25.15 30.3 25.35 29.2 L25.1 28.15"/><path fill="none" stroke="#000000" stroke-width="0.5" stroke-opacity="0.301960784314" d="M23.4 28.4 L23.25 28.65 Q22.95 28.95 23.0 29.2 L23.8 30.1 23.8 30.15 Q24.5 30.75 24.95 30.45 L25.0 30.4 25.05 30.4 25.3 30.0 25.4 29.4 25.35 28.35 25.1 28.15 24.85 28.05 24.75 28.0 24.05 28.1 23.95 28.1 23.4 28.4"/><path fill="#ffff98" stroke="none" d="M24.9 29.65 L25.0 29.85 25.25 29.75 25.35 29.45 25.35 29.15 25.15 29.0 25.0 29.05 24.85 29.35 Q24.8 29.55 24.9 29.65"/><path fill="#ffff98" stroke="none" d="M27.05 29.15 L27.15 29.35 27.4 29.25 27.5 28.95 27.5 28.65 27.3 28.5 27.15 28.55 27.0 28.85 27.05 29.15"/><path fill="#ffff98" stroke="none" d="M23.45 15.5 L23.7 15.3 23.55 15.0 23.15 14.8 22.75 14.85 22.5 15.05 22.65 15.35 23.0 15.5 23.45 15.5"/></g><g id="c10"><g><use transform="matrix(1.0,0.0,0.0,1.0,0.0,0.0)" xlink:href="#c5"/></g></g><radialGradient gradientUnits="userSpaceOnUse" r="819.2" cx="0" cy="0" spreadMethod="pad" gradientTransform="matrix(0.0212554931641,0.0,0.0,0.0212554931641,0.0,0.0)" id="gradient3"><stop offset="0.196078431373" stop-color="#fee3bc"/><stop offset="0.501960784314" stop-color="#fee3bc" stop-opacity="0.160784313725"/><stop offset="0.760784313725" stop-color="#ffe3bd" stop-opacity="0.0"/></radialGradient><g id="c11"><path stroke="none" fill="url(#gradient3)" d="M9.3 -9.85 Q13.35 -5.8 13.35 0.0 13.35 5.8 9.3 9.3 5.8 13.35 0.0 13.35 -5.8 13.35 -9.85 9.3 -13.35 5.8 -13.35 0.0 -13.35 -5.8 -9.85 -9.85 -5.8 -13.35 0.0 -13.35 5.8 -13.35 9.3 -9.85"/></g><g id="c12"><g><use transform="matrix(1.0,0.0,0.0,1.0,0.0,0.0)" xlink:href="#c11"/></g></g><g id="c13"><g><use transform="matrix(0.00422668457031,-1.35153198242,1.39352416992,0.0199737548828,40.75,38.25)" xlink:href="#c12"/></g><g><use transform="matrix(0.00953674316406,-3.04858398438,0.371963500977,0.00532531738281,41.6,40.75)" filter="url(#filter7)" xlink:href="#c12"/></g><g><use transform="matrix(3.04858398438,0.00953674316406,-0.00532531738281,0.371963500977,40.75,40.2)" filter="url(#filter8)" xlink:href="#c12"/></g></g><filter id="filter7"><feColorMatrix in="SourceGraphic" type="matrix" values="1.0 0.0 0.0 0.0 0.0 0.0 1.0 0.0 0.0 0.0 0.0 0.0 1.0 0.0 0.0 0.0 0.0 0.0 0.71875 0.0" result="cxform"/><feComposite operator="in" in2="SourceGraphic" result="color-xform"/></filter><filter id="filter8"><feColorMatrix in="SourceGraphic" type="matrix" values="1.0 0.0 0.0 0.0 0.0 0.0 1.0 0.0 0.0 0.0 0.0 0.0 1.0 0.0 0.0 0.0 0.0 0.0 0.71875 0.0" result="cxform"/><feComposite operator="in" in2="SourceGraphic" result="color-xform"/></filter><g id="c14"><g><use transform="matrix(1.0,0.0,0.0,1.0,0.0,0.0)" xlink:href="#c2"/></g><g><use transform="matrix(0.238861083984,-0.0867004394531,0.10026550293,0.233917236328,34.25,31.15)" xlink:href="#c4"/></g><g><use transform="matrix(0.238861083984,-0.0867004394531,0.10026550293,0.233917236328,4.25,10.3)" xlink:href="#c4"/></g><g><use transform="matrix(0.141098022461,-0.0378112792969,0.111373901367,0.225646972656,20.25,20.65)" filter="url(#filter12)" xlink:href="#c6"/></g><g><use transform="matrix(-0.155029296875,0.0513153076172,0.0841827392578,0.147033691406,22.6,2.3)" filter="url(#filter13)" xlink:href="#c8"/></g><g><use transform="matrix(1.0,0.0,0.0,1.0,0.0,0.0)" xlink:href="#c9"/></g><g><use transform="matrix(-0.0638580322266,-0.0303039550781,-0.0279541015625,0.0588226318359,17.3,20.25)" filter="url(#filter15)" xlink:href="#c10"/></g><g><use transform="matrix(-0.0320129394531,-0.0151824951172,-0.0138854980469,0.0292053222656,25.15,27.7)" filter="url(#filter16)" xlink:href="#c10"/></g><g><use transform="matrix(-0.0320129394531,-0.0151824951172,-0.0138854980469,0.0292053222656,24.05,18.15)" filter="url(#filter17)" xlink:href="#c10"/></g><g><use transform="matrix(-0.0353546142578,0.0028076171875,0.00151062011719,0.0193023681641,21.5,14.95)" filter="url(#filter18)" xlink:href="#c10"/></g><g><use transform="matrix(-0.0644836425781,0.00511169433594,0.005126953125,0.0644073486328,17.85,18.05)" filter="url(#filter19)" xlink:href="#c13"/></g><g><use transform="matrix(-0.0389709472656,0.00309753417969,0.00309753417969,0.0389404296875,24.8,26.8)" filter="url(#filter20)" xlink:href="#c13"/></g><g><use transform="matrix(0.162948608398,-0.0436706542969,0.128631591797,0.260604858398,20.35,20.95)" filter="url(#filter21)" xlink:href="#c6"/></g></g><filter id="filter12"><feColorMatrix in="SourceGraphic" type="matrix" values="0.0 0.0 0.0 0.0 0.796875 0.0 0.0 0.0 0.0 0.59765625 0.0 0.0 0.0 0.0 0.19921875 0.0 0.0 0.0 1.0 0.0" result="cxform"/><feComposite operator="in" in2="SourceGraphic" result="color-xform"/></filter><filter id="filter13"><feColorMatrix in="SourceGraphic" type="matrix" values="0.0 0.0 0.0 0.0 0.99609375 0.0 0.0 0.0 0.0 0.99609375 0.0 0.0 0.0 0.0 0.99609375 0.0 0.0 0.0 1.0 0.0" result="cxform"/><feComposite operator="in" in2="SourceGraphic" result="color-xform"/></filter><filter id="filter15"><feColorMatrix in="SourceGraphic" type="matrix" values="1.0 0.0 0.0 0.0 0.0 0.0 1.0 0.0 0.0 0.0 0.0 0.0 1.0 0.0 0.0 0.0 0.0 0.0 0.19921875 0.0" result="cxform"/><feComposite operator="in" in2="SourceGraphic" result="color-xform"/></filter><filter id="filter16"><feColorMatrix in="SourceGraphic" type="matrix" values="1.0 0.0 0.0 0.0 0.0 0.0 1.0 0.0 0.0 0.0 0.0 0.0 1.0 0.0 0.0 0.0 0.0 0.0 0.19921875 0.0" result="cxform"/><feComposite operator="in" in2="SourceGraphic" result="color-xform"/></filter><filter id="filter17"><feColorMatrix in="SourceGraphic" type="matrix" values="1.0 0.0 0.0 0.0 0.0 0.0 1.0 0.0 0.0 0.0 0.0 0.0 1.0 0.0 0.0 0.0 0.0 0.0 0.19921875 0.0" result="cxform"/><feComposite operator="in" in2="SourceGraphic" result="color-xform"/></filter><filter id="filter18"><feColorMatrix in="SourceGraphic" type="matrix" values="1.0 0.0 0.0 0.0 0.0 0.0 1.0 0.0 0.0 0.0 0.0 0.0 1.0 0.0 0.0 0.0 0.0 0.0 0.19921875 0.0" result="cxform"/><feComposite operator="in" in2="SourceGraphic" result="color-xform"/></filter><filter id="filter19"><feColorMatrix in="SourceGraphic" type="matrix" values="1.0 0.0 0.0 0.0 0.0 0.0 1.0 0.0 0.0 0.0 0.0 0.0 1.0 0.0 0.0 0.0 0.0 0.0 0.4296875 0.0" result="cxform"/><feComposite operator="in" in2="SourceGraphic" result="color-xform"/></filter><filter id="filter20"><feColorMatrix in="SourceGraphic" type="matrix" values="1.0 0.0 0.0 0.0 0.0 0.0 1.0 0.0 0.0 0.0 0.0 0.0 1.0 0.0 0.0 0.0 0.0 0.0 0.4296875 0.0" result="cxform"/><feComposite operator="in" in2="SourceGraphic" result="color-xform"/></filter><filter id="filter21"><feColorMatrix in="SourceGraphic" type="matrix" values="1.0 0.0 0.0 0.0 0.0 0.0 1.0 0.0 0.0 0.0 0.0 0.0 1.0 0.0 0.0 0.0 0.0 0.0 0.23046875 0.0" result="cxform"/><feComposite operator="in" in2="SourceGraphic" result="color-xform"/></filter></defs><g><g><use transform="matrix(1.0,0.0,0.0,1.0,0.0,0.0)" xlink:href="#c1"/></g><g><use transform="matrix(1.15496826172,0.0,0.0,1.15496826172,5.85,3.95)" xlink:href="#c14"/></g></g></svg>