<?xml version='1.0' encoding='UTF-8'?>
<svg xmlns:xlink="http://www.w3.org/1999/xlink" xmlns="http://www.w3.org/2000/svg" version="1.1" width="60px" height="60px" viewBox="0.0 0.0 60.0 60.0"><defs><g id="c1"><path fill="#000000" fill-opacity="0.00392156862745" d="M0.0 0.0 L60.0 0.0 60.0 60.0 0.0 60.0 0.0 0.0"/></g><g id="c2"><path fill="none" stroke="#000000" stroke-width="1.0" stroke-opacity="0.301960784314" d="M22.3 0.35 Q26.6 -1.0 28.5 3.05 L41.4 31.7 Q43.1 35.4 39.9 36.85 L38.15 37.65 19.65 43.65 Q17.05 44.5 15.35 43.3 14.2 42.55 13.5 40.9 L0.55 12.25 Q-0.6 9.75 0.6 8.25 1.15 7.55 2.2 7.05 2.85 6.6 3.8 6.3 L22.3 0.35"/><path fill="#300525" stroke="none" d="M25.55 0.9 Q26.9 1.6 27.8 3.55 L40.7 32.15 Q42.6 36.3 38.3 37.65 L23.3 42.5 13.15 21.4 4.6 20.9 0.7 12.25 Q-0.45 9.75 0.75 8.25 L29.8 9.75 25.55 0.9 M20.1 43.55 L19.8 43.65 Q17.15 44.45 15.5 43.3 L20.1 43.55"/><path fill="#630a4c" stroke="none" d="M23.3 42.5 L20.1 43.55 15.5 43.3 Q14.35 42.55 13.65 40.9 L4.6 20.9 13.15 21.4 23.3 42.5 M0.75 8.25 Q1.45 7.3 3.1 6.75 L21.65 0.8 25.55 0.9 29.8 9.75 0.75 8.25"/><path fill="none" stroke="#000000" stroke-width="0.5" stroke-opacity="0.301960784314" d="M25.55 0.9 Q26.9 1.6 27.8 3.55 L40.7 32.15 Q42.6 36.3 38.3 37.65 L23.3 42.5 20.1 43.55 19.8 43.65 Q17.15 44.45 15.5 43.3 14.35 42.55 13.65 40.9 L4.6 20.9 0.7 12.25 Q-0.45 9.75 0.75 8.25 1.45 7.3 3.1 6.75 L21.65 0.8 25.55 0.9"/><path fill="#9d147b" stroke="none" d="M14.2 40.5 L1.35 11.8 Q-0.5 7.75 3.8 6.35 L22.3 0.4 Q26.55 -1.0 28.45 3.1 L41.35 31.7 Q43.25 35.85 38.9 37.25 L20.4 43.2 Q16.1 44.55 14.2 40.5"/><path fill="none" stroke="#000000" stroke-width="0.5" stroke-opacity="0.301960784314" d="M14.2 40.5 L1.35 11.8 Q-0.5 7.75 3.8 6.35 L22.3 0.4 Q26.55 -1.0 28.45 3.1 L41.35 31.7 Q43.25 35.85 38.9 37.25 L20.4 43.2 Q16.1 44.55 14.2 40.5"/><path fill="#fcf2cf" stroke="none" d="M9.15 13.6 Q9.8 12.8 9.55 11.6 L9.1 10.55 22.05 6.35 Q24.9 5.45 26.25 7.85 L26.5 8.3 35.8 29.0 35.95 29.35 Q34.75 29.3 34.1 30.1 33.45 30.9 33.7 32.1 L34.0 32.9 20.65 37.2 Q18.8 37.8 17.65 37.0 16.8 36.4 16.3 35.2 L6.95 14.6 6.8 14.4 7.1 14.4 Q8.4 14.45 9.15 13.6"/><path fill="#c47fad" stroke="none" d="M8.25 23.65 L3.35 12.8 Q1.65 9.1 5.5 7.85 L22.25 2.5 Q26.05 1.25 27.75 4.95 L28.25 6.1 35.55 22.3 39.35 30.75 Q41.1 34.5 37.2 35.7 L20.45 41.1 Q16.8 42.25 15.2 39.0 L15.0 38.6 8.25 23.65 M9.15 13.6 Q8.4 14.45 7.1 14.4 L6.8 14.4 6.95 14.6 16.3 35.2 Q16.8 36.4 17.65 37.0 18.8 37.8 20.65 37.2 L34.0 32.9 33.7 32.1 Q33.45 30.9 34.1 30.1 34.75 29.3 35.95 29.35 L35.8 29.0 26.5 8.3 26.25 7.85 Q24.9 5.45 22.05 6.35 L9.1 10.55 9.55 11.6 Q9.8 12.8 9.15 13.6"/><path fill="none" stroke="#ffcc00" stroke-width="1.0" stroke-opacity="0.749019607843" d="M8.25 23.65 L3.35 12.8 Q1.65 9.1 5.5 7.85 L22.25 2.5 Q26.05 1.25 27.75 4.95 L28.25 6.1 M35.55 22.3 L39.35 30.75 Q41.1 34.5 37.2 35.7 L20.45 41.1 Q16.8 42.25 15.2 39.0 L15.0 38.6"/><path fill="none" stroke="#bf9900" stroke-width="1.0" stroke-opacity="0.749019607843" d="M28.25 6.1 L35.55 22.3 M15.0 38.6 L8.25 23.65"/><path fill="none" stroke="#f0b92b" stroke-width="0.5" d="M9.15 13.6 Q9.8 12.8 9.55 11.6 L9.1 10.55 22.05 6.35 Q24.9 5.45 26.25 7.85 L26.5 8.3 35.8 29.0 35.95 29.35 Q34.75 29.3 34.1 30.1 33.45 30.9 33.7 32.1 L34.0 32.9 20.65 37.2 Q18.8 37.8 17.65 37.0 16.8 36.4 16.3 35.2 L6.95 14.6 6.8 14.4 7.1 14.4 Q8.4 14.45 9.15 13.6"/></g><g id="c3"><path fill="#7fdbfe" stroke="none" d="M10.75 4.9 Q10.75 4.6 10.9 4.35 11.25 3.45 11.95 2.75 13.3 1.5 14.35 2.1 15.4 2.7 14.95 4.45 14.7 5.4 14.1 6.15 L13.75 6.5 Q13.1 7.15 12.35 7.35 L11.4 7.2 Q10.95 6.9 10.75 6.4 10.5 5.75 10.75 4.9 M7.5 5.9 Q7.0 5.85 6.6 5.5 6.05 5.0 5.8 4.15 L5.7 3.6 Q5.55 2.65 5.8 1.7 6.25 0.0 7.5 0.0 L7.6 0.0 Q8.85 0.0 9.3 1.7 9.55 2.65 9.4 3.6 L9.3 4.15 8.5 5.5 7.6 5.9 7.5 5.9 M4.35 4.9 Q4.6 5.75 4.35 6.4 L3.7 7.2 2.75 7.35 Q2.0 7.15 1.35 6.5 L1.0 6.15 Q0.4 5.4 0.15 4.45 -0.3 2.7 0.75 2.1 1.8 1.5 3.15 2.75 3.85 3.45 4.2 4.35 L4.35 4.9 M5.5 13.7 Q4.45 13.9 3.65 12.95 2.75 12.0 3.2 10.25 3.7 8.5 5.25 7.6 6.4 6.9 7.55 7.0 8.75 6.9 9.9 7.6 11.45 8.5 11.95 10.25 12.35 12.0 11.5 12.95 10.7 13.9 9.65 13.7 8.55 13.5 7.55 12.6 6.55 13.5 5.5 13.7"/></g><g id="c4"><g><use transform="matrix(1.0,0.0,0.0,1.0,0.0,0.0)" xlink:href="#c3"/></g></g><radialGradient gradientUnits="userSpaceOnUse" r="819.2" cx="0" cy="0" spreadMethod="pad" gradientTransform="matrix(0.0914459228516,0.0,0.0,0.0914459228516,0.6,3.4)" id="gradient1"><stop offset="0.0" stop-color="#ffffff"/><stop offset="1.0" stop-color="#ffffff" stop-opacity="0.0"/></radialGradient><g id="c5"><path stroke="none" fill="url(#gradient1)" d="M36.65 -54.65 Q60.05 -42.0 69.75 -17.95 80.55 8.9 68.0 34.1 55.45 59.35 26.8 68.2 -1.8 77.05 -29.7 64.3 -57.6 51.6 -68.45 24.75 -79.3 -2.05 -66.75 -27.25 L-66.7 -27.3 Q-54.1 -52.5 -25.5 -61.4 3.1 -70.2 31.0 -57.5 L36.65 -54.65"/></g><g id="c6"><g><use transform="matrix(1.0,0.0,0.0,1.0,0.0,0.0)" xlink:href="#c5"/></g></g><radialGradient gradientUnits="userSpaceOnUse" r="819.2" cx="0" cy="0" spreadMethod="pad" gradientTransform="matrix(0.209197998047,0.0,0.0,0.177108764648,67.15,107.2)" id="gradient2"><stop offset="0.356862745098" stop-color="#ffffff"/><stop offset="0.670588235294" stop-opacity="0.0"/></radialGradient><g id="c7"><path fill="none" stroke-linejoin="round" stroke-linecap="round" stroke="url(#gradient2)" stroke-width="0.5" d="M136.55 165.8 L68.6 106.0 68.4 106.0 118.25 201.5 M68.2 105.7 L68.25 105.8 68.25 105.75 68.2 105.7 0.0 45.7 M68.25 105.8 L68.3 105.85 68.3 105.8 68.25 105.75 49.95 0.05 M0.05 97.7 L68.15 105.95 68.25 105.85 68.25 105.8 M68.3 105.85 L68.25 105.85 68.3 106.0 68.3 105.85 68.3 105.8 68.35 105.8 68.3 105.8 86.6 18.35 M50.0 193.2 L68.3 106.0 68.15 105.95 18.25 151.55 M68.4 106.0 L68.3 106.0 86.55 211.5 M68.4 106.0 L68.3 105.85 M68.6 106.0 L68.35 105.8 118.25 60.15 M136.6 114.25 L68.6 106.0 M68.2 105.7 L18.25 10.05"/></g><g id="c8"><g><use transform="matrix(1.0,0.0,0.0,1.0,0.0,0.0)" xlink:href="#c7"/></g></g><g id="c9"><path fill="#aaa080" stroke="none" d="M28.2 28.25 L27.3 27.4 26.75 27.2 26.6 27.6 27.15 28.15 28.2 28.25 M28.4 29.4 L28.15 29.75 28.6 30.25 30.35 30.1 29.45 29.55 28.4 29.4"/><path fill="#71684a" stroke="none" d="M26.75 27.2 L27.3 27.4 28.2 28.25 28.6 27.8 28.65 27.7 28.65 27.6 27.45 26.45 27.35 26.5 26.75 27.2 M30.55 30.25 L30.8 30.1 31.0 29.85 29.5 28.4 29.25 28.3 28.4 29.4 29.45 29.55 30.35 30.1 30.55 30.25"/><path fill="#cbc4b4" stroke="none" d="M28.2 28.25 L27.15 28.15 27.4 28.45 27.75 28.45 28.2 28.25 M28.6 30.25 L29.35 30.8 29.7 30.95 30.55 30.25 30.35 30.1 28.6 30.25"/><path fill="none" stroke="#130f12" stroke-width="1.0" stroke-opacity="0.4" d="M28.65 27.7 L28.6 27.8"/><path fill="#aaa080" stroke="none" d="M23.95 22.15 L25.8 24.85 Q26.0 26.0 27.1 26.95 L28.75 28.4 28.85 28.5 31.5 30.8 32.15 29.95 26.9 25.5 26.7 23.05 24.95 21.5 23.95 22.15"/><path fill="#cbc4b4" stroke="none" d="M26.7 23.05 L26.9 25.5 32.15 29.95 33.0 29.0 32.7 28.15 26.7 23.05"/><path fill="#71684a" stroke="none" d="M27.1 26.95 Q26.0 26.0 25.8 24.85 L23.95 22.15 23.2 23.95 23.7 23.95 25.85 25.95 27.1 26.95"/><path fill="#ede8de" fill-opacity="0.6" d="M31.55 27.4 L31.05 28.0 31.8 28.6 32.35 28.0 31.55 27.4 M29.35 26.55 L29.85 25.95 29.05 25.25 28.55 25.85 29.35 26.55"/><path fill="#ede8de" stroke="none" d="M31.05 28.0 L31.55 27.4 29.85 25.95 29.35 26.55 31.05 28.0"/><path fill="#fcf3d8" fill-opacity="0.301960784314" d="M29.05 26.5 L28.75 26.05 28.95 25.45 Q29.05 25.3 29.25 25.25 L29.45 24.55 Q29.5 25.05 29.7 25.25 L30.0 25.4 30.3 25.9 30.15 26.4 30.1 26.45 30.25 26.7 30.0 26.6 29.6 26.7 29.25 26.65 28.75 27.0 29.05 26.5 M29.25 26.05 L29.35 26.25 Q29.45 26.4 29.6 26.35 L29.9 26.25 29.95 26.0 29.8 25.7 Q29.75 25.6 29.55 25.6 29.4 25.65 29.3 25.75 29.2 25.85 29.25 26.05"/><path fill="#fcf3d8" stroke="none" d="M29.25 26.05 Q29.2 25.85 29.3 25.75 29.4 25.65 29.55 25.6 29.75 25.6 29.8 25.7 L29.95 26.0 29.9 26.25 29.6 26.35 Q29.45 26.4 29.35 26.25 L29.25 26.05"/><path fill="#fcf3d8" stroke="none" d="M29.5 25.95 L28.5 25.3 29.35 26.05 29.1 26.85 29.55 26.3 31.1 27.25 29.75 26.05 30.85 23.4 29.5 25.95"/><path fill="#403c4d" stroke="none" d="M16.65 17.45 L15.25 15.4 13.95 15.1 Q13.15 14.75 12.75 13.65 12.3 12.55 12.3 10.2 10.2 12.9 11.7 16.65 10.8 16.6 10.0 13.75 10.4 18.55 12.95 21.45 L13.1 21.6 14.25 22.7 14.3 22.75 Q16.45 21.45 19.95 20.75 17.35 20.25 15.15 19.2 L15.1 19.2 Q13.6 18.55 12.15 15.2 L12.0 13.55 11.95 13.3 12.0 13.45 Q13.4 17.15 14.85 18.2 15.7 18.8 17.75 19.25 L16.65 17.45 M19.95 22.1 Q18.25 23.25 17.2 24.4 L19.55 24.7 19.6 24.7 21.0 24.5 Q21.45 23.75 24.4 22.7 23.3 21.45 21.9 21.05 L21.65 20.95 19.95 22.1 M26.7 24.2 L27.0 23.85 26.95 23.8 26.55 22.3 25.85 20.15 25.5 21.75 25.55 21.75 25.75 21.95 Q26.45 22.9 26.7 24.2 M22.95 16.65 Q21.25 15.55 18.9 15.45 L18.75 15.45 18.15 15.4 Q17.95 17.55 18.95 19.5 L19.8 19.6 20.15 19.7 20.95 19.75 21.95 19.9 22.1 19.9 22.3 19.95 Q22.0 17.45 22.95 16.65"/><path fill="#2c2835" stroke="none" d="M25.9 25.2 L26.1 24.95 Q25.5 23.45 24.75 22.55 23.65 21.15 22.1 20.75 L21.8 20.65 21.05 20.5 21.0 20.5 Q17.95 20.1 15.35 18.85 L15.25 18.9 Q13.85 18.25 12.35 14.9 L12.0 13.55 12.15 15.2 Q13.6 18.55 15.1 19.2 L15.15 19.2 Q17.35 20.25 19.95 20.75 L20.8 20.9 20.85 20.9 21.55 21.0 21.65 20.95 21.9 21.05 Q23.3 21.45 24.4 22.7 L24.55 22.85 25.9 25.2"/><path fill="#c6c280" stroke="none" d="M26.1 24.95 L26.7 24.2 Q26.45 22.9 25.75 21.95 L25.85 22.6 25.5 22.55 Q24.85 21.5 23.3 20.85 L22.7 20.5 22.85 20.1 22.3 19.95 22.1 19.9 21.9 20.35 20.85 20.1 20.95 19.75 20.15 19.7 20.0 19.95 19.6 19.85 19.8 19.6 18.95 19.5 17.75 19.3 17.75 19.25 Q15.7 18.8 14.85 18.2 13.4 17.15 12.0 13.45 L12.0 13.55 12.35 14.9 Q13.85 18.25 15.25 18.9 L15.35 18.85 Q17.95 20.1 21.0 20.5 L21.05 20.5 21.8 20.65 22.1 20.75 Q23.65 21.15 24.75 22.55 25.5 23.45 26.1 24.95"/><path fill="#fde78c" stroke="none" d="M12.0 13.45 L11.95 13.3 12.0 13.55 12.0 13.45"/><path fill="#eddfa2" stroke="none" d="M20.15 19.7 L19.8 19.6 19.6 19.85 20.0 19.95 20.15 19.7 M20.95 19.75 L20.85 20.1 21.9 20.35 22.1 19.9 21.95 19.9 20.95 19.75 M22.85 20.1 L22.7 20.5 23.3 20.85 Q24.85 21.5 25.5 22.55 L25.85 22.6 25.75 21.95 25.55 21.75 25.5 21.75 Q24.55 20.65 22.85 20.1"/><path fill="#524d62" stroke="none" d="M14.3 22.75 Q15.4 23.6 16.55 24.1 17.8 23.0 19.95 22.1 L21.65 20.95 21.55 21.0 20.85 20.9 20.8 20.9 19.95 20.75 Q16.45 21.45 14.3 22.75 M21.0 24.5 L23.8 24.35 24.2 24.45 24.75 24.55 Q25.45 24.8 25.7 25.4 L25.9 25.2 24.55 22.85 24.4 22.7 Q21.45 23.75 21.0 24.5 M25.85 20.15 Q24.8 17.8 22.95 16.65 22.0 17.45 22.3 19.95 L22.85 20.1 Q24.55 20.65 25.5 21.75 L25.85 20.15 M18.15 15.4 L16.65 15.6 15.85 15.4 16.65 17.45 17.75 19.25 17.75 19.3 18.95 19.5 Q17.95 17.55 18.15 15.4"/><path fill="none" stroke="#000000" stroke-width="0.6" stroke-opacity="0.301960784314" d="M12.0 13.45 L12.0 13.55 12.35 14.9 Q13.85 18.25 15.25 18.9 L15.35 18.85 Q17.95 20.1 21.0 20.5"/><path fill="#524d62" stroke="none" d="M23.0 24.7 L23.05 24.6 21.95 24.55 Q20.0 25.15 20.9 26.1 L21.5 26.15 21.65 25.6 21.4 26.0 20.8 25.85 Q20.7 25.7 20.9 25.4 21.45 24.75 23.0 24.7"/><path fill="none" stroke="#000000" stroke-width="0.6" stroke-opacity="0.301960784314" d="M21.4 26.0 L20.8 25.85 Q20.7 25.7 20.9 25.4 21.45 24.75 23.0 24.7"/></g><g id="c10"><g><use transform="matrix(1.0,0.0,0.0,1.0,0.0,0.0)" xlink:href="#c2"/></g><g><use transform="matrix(0.238861083984,-0.0867004394531,0.10026550293,0.233917236328,34.25,31.15)" xlink:href="#c4"/></g><g><use transform="matrix(0.238861083984,-0.0867004394531,0.10026550293,0.233917236328,4.25,10.3)" xlink:href="#c4"/></g><g><use transform="matrix(0.141098022461,-0.0378112792969,0.111373901367,0.225646972656,20.25,20.65)" filter="url(#filter7)" xlink:href="#c6"/></g><g><use transform="matrix(-0.155029296875,0.0513153076172,0.0841827392578,0.147033691406,22.6,2.3)" filter="url(#filter8)" xlink:href="#c8"/></g><g><use transform="matrix(1.0,0.0,0.0,1.0,0.0,0.0)" xlink:href="#c9"/></g><g><use transform="matrix(0.162948608398,-0.0436706542969,0.128631591797,0.260604858398,20.35,20.95)" filter="url(#filter10)" xlink:href="#c6"/></g></g><filter id="filter7"><feColorMatrix in="SourceGraphic" type="matrix" values="0.0 0.0 0.0 0.0 0.796875 0.0 0.0 0.0 0.0 0.59765625 0.0 0.0 0.0 0.0 0.19921875 0.0 0.0 0.0 1.0 0.0" result="cxform"/><feComposite operator="in" in2="SourceGraphic" result="color-xform"/></filter><filter id="filter8"><feColorMatrix in="SourceGraphic" type="matrix" values="0.0 0.0 0.0 0.0 0.99609375 0.0 0.0 0.0 0.0 0.99609375 0.0 0.0 0.0 0.0 0.99609375 0.0 0.0 0.0 1.0 0.0" result="cxform"/><feComposite operator="in" in2="SourceGraphic" result="color-xform"/></filter><filter id="filter10"><feColorMatrix in="SourceGraphic" type="matrix" values="1.0 0.0 0.0 0.0 0.0 0.0 1.0 0.0 0.0 0.0 0.0 0.0 1.0 0.0 0.0 0.0 0.0 0.0 0.23046875 0.0" result="cxform"/><feComposite operator="in" in2="SourceGraphic" result="color-xform"/></filter></defs><g><g><use transform="matrix(1.0,0.0,0.0,1.0,0.0,0.0)" xlink:href="#c1"/></g><g><use transform="matrix(1.15496826172,0.0,0.0,1.15496826172,5.85,3.95)" xlink:href="#c10"/></g></g></svg>