<?xml version='1.0' encoding='UTF-8'?>
<svg xmlns:xlink="http://www.w3.org/1999/xlink" xmlns="http://www.w3.org/2000/svg" version="1.1" width="60px" height="60px" viewBox="0.0 0.0 60.0 60.0"><defs><g id="c1"><path fill="#000000" fill-opacity="0.00392156862745" d="M0.0 0.0 L60.0 0.0 60.0 60.0 0.0 60.0 0.0 0.0"/></g><g id="c2"><path fill="none" stroke="#000000" stroke-width="1.0" stroke-opacity="0.301960784314" d="M22.3 0.35 Q26.6 -1.0 28.5 3.05 L41.4 31.7 Q43.1 35.4 39.9 36.85 L38.15 37.65 19.65 43.65 Q17.05 44.5 15.35 43.3 14.2 42.55 13.5 40.9 L0.55 12.25 Q-0.6 9.75 0.6 8.25 1.15 7.55 2.2 7.05 2.85 6.6 3.8 6.3 L22.3 0.35"/><path fill="#300525" stroke="none" d="M25.55 0.9 Q26.9 1.6 27.8 3.55 L40.7 32.15 Q42.6 36.3 38.3 37.65 L23.3 42.5 13.15 21.4 4.6 20.9 0.7 12.25 Q-0.45 9.75 0.75 8.25 L29.8 9.75 25.55 0.9 M20.1 43.55 L19.8 43.65 Q17.15 44.45 15.5 43.3 L20.1 43.55"/><path fill="#630a4c" stroke="none" d="M23.3 42.5 L20.1 43.55 15.5 43.3 Q14.35 42.55 13.65 40.9 L4.6 20.9 13.15 21.4 23.3 42.5 M0.75 8.25 Q1.45 7.3 3.1 6.75 L21.65 0.8 25.55 0.9 29.8 9.75 0.75 8.25"/><path fill="none" stroke="#000000" stroke-width="0.5" stroke-opacity="0.301960784314" d="M25.55 0.9 Q26.9 1.6 27.8 3.55 L40.7 32.15 Q42.6 36.3 38.3 37.65 L23.3 42.5 20.1 43.55 19.8 43.65 Q17.15 44.45 15.5 43.3 14.35 42.55 13.65 40.9 L4.6 20.9 0.7 12.25 Q-0.45 9.75 0.75 8.25 1.45 7.3 3.1 6.75 L21.65 0.8 25.55 0.9"/><path fill="#9d147b" stroke="none" d="M14.2 40.5 L1.35 11.8 Q-0.5 7.75 3.8 6.35 L22.3 0.4 Q26.55 -1.0 28.45 3.1 L41.35 31.7 Q43.25 35.85 38.9 37.25 L20.4 43.2 Q16.1 44.55 14.2 40.5"/><path fill="none" stroke="#000000" stroke-width="0.5" stroke-opacity="0.301960784314" d="M14.2 40.5 L1.35 11.8 Q-0.5 7.75 3.8 6.35 L22.3 0.4 Q26.55 -1.0 28.45 3.1 L41.35 31.7 Q43.25 35.85 38.9 37.25 L20.4 43.2 Q16.1 44.55 14.2 40.5"/><path fill="#fcf2cf" stroke="none" d="M9.15 13.6 Q9.8 12.8 9.55 11.6 L9.1 10.55 22.05 6.35 Q24.9 5.45 26.25 7.85 L26.5 8.3 35.8 29.0 35.95 29.35 Q34.75 29.3 34.1 30.1 33.45 30.9 33.7 32.1 L34.0 32.9 20.65 37.2 Q18.8 37.8 17.65 37.0 16.8 36.4 16.3 35.2 L6.95 14.6 6.8 14.4 7.1 14.4 Q8.4 14.45 9.15 13.6"/><path fill="#c47fad" stroke="none" d="M8.25 23.65 L3.35 12.8 Q1.65 9.1 5.5 7.85 L22.25 2.5 Q26.05 1.25 27.75 4.95 L28.25 6.1 35.55 22.3 39.35 30.75 Q41.1 34.5 37.2 35.7 L20.45 41.1 Q16.8 42.25 15.2 39.0 L15.0 38.6 8.25 23.65 M9.15 13.6 Q8.4 14.45 7.1 14.4 L6.8 14.4 6.95 14.6 16.3 35.2 Q16.8 36.4 17.65 37.0 18.8 37.8 20.65 37.2 L34.0 32.9 33.7 32.1 Q33.45 30.9 34.1 30.1 34.75 29.3 35.95 29.35 L35.8 29.0 26.5 8.3 26.25 7.85 Q24.9 5.45 22.05 6.35 L9.1 10.55 9.55 11.6 Q9.8 12.8 9.15 13.6"/><path fill="none" stroke="#ffcc00" stroke-width="1.0" stroke-opacity="0.749019607843" d="M8.25 23.65 L3.35 12.8 Q1.65 9.1 5.5 7.85 L22.25 2.5 Q26.05 1.25 27.75 4.95 L28.25 6.1 M35.55 22.3 L39.35 30.75 Q41.1 34.5 37.2 35.7 L20.45 41.1 Q16.8 42.25 15.2 39.0 L15.0 38.6"/><path fill="none" stroke="#bf9900" stroke-width="1.0" stroke-opacity="0.749019607843" d="M28.25 6.1 L35.55 22.3 M15.0 38.6 L8.25 23.65"/><path fill="none" stroke="#f0b92b" stroke-width="0.5" d="M9.15 13.6 Q9.8 12.8 9.55 11.6 L9.1 10.55 22.05 6.35 Q24.9 5.45 26.25 7.85 L26.5 8.3 35.8 29.0 35.95 29.35 Q34.75 29.3 34.1 30.1 33.45 30.9 33.7 32.1 L34.0 32.9 20.65 37.2 Q18.8 37.8 17.65 37.0 16.8 36.4 16.3 35.2 L6.95 14.6 6.8 14.4 7.1 14.4 Q8.4 14.45 9.15 13.6"/></g><g id="c3"><path fill="#7fdbfe" stroke="none" d="M10.75 4.9 Q10.75 4.6 10.9 4.35 11.25 3.45 11.95 2.75 13.3 1.5 14.35 2.1 15.4 2.7 14.95 4.45 14.7 5.4 14.1 6.15 L13.75 6.5 Q13.1 7.15 12.35 7.35 L11.4 7.2 Q10.95 6.9 10.75 6.4 10.5 5.75 10.75 4.9 M7.5 5.9 Q7.0 5.85 6.6 5.5 6.05 5.0 5.8 4.15 L5.7 3.6 Q5.55 2.65 5.8 1.7 6.25 0.0 7.5 0.0 L7.6 0.0 Q8.85 0.0 9.3 1.7 9.55 2.65 9.4 3.6 L9.3 4.15 8.5 5.5 7.6 5.9 7.5 5.9 M4.35 4.9 Q4.6 5.75 4.35 6.4 L3.7 7.2 2.75 7.35 Q2.0 7.15 1.35 6.5 L1.0 6.15 Q0.4 5.4 0.15 4.45 -0.3 2.7 0.75 2.1 1.8 1.5 3.15 2.75 3.85 3.45 4.2 4.35 L4.35 4.9 M5.5 13.7 Q4.45 13.9 3.65 12.95 2.75 12.0 3.2 10.25 3.7 8.5 5.25 7.6 6.4 6.9 7.55 7.0 8.75 6.9 9.9 7.6 11.45 8.5 11.95 10.25 12.35 12.0 11.5 12.95 10.7 13.9 9.65 13.7 8.55 13.5 7.55 12.6 6.55 13.5 5.5 13.7"/></g><g id="c4"><g><use transform="matrix(1.0,0.0,0.0,1.0,0.0,0.0)" xlink:href="#c3"/></g></g><radialGradient gradientUnits="userSpaceOnUse" r="819.2" cx="0" cy="0" spreadMethod="pad" gradientTransform="matrix(0.0914459228516,0.0,0.0,0.0914459228516,0.6,3.4)" id="gradient1"><stop offset="0.0" stop-color="#ffffff"/><stop offset="1.0" stop-color="#ffffff" stop-opacity="0.0"/></radialGradient><g id="c5"><path stroke="none" fill="url(#gradient1)" d="M36.65 -54.65 Q60.05 -42.0 69.75 -17.95 80.55 8.9 68.0 34.1 55.45 59.35 26.8 68.2 -1.8 77.05 -29.7 64.3 -57.6 51.6 -68.45 24.75 -79.3 -2.05 -66.75 -27.25 L-66.7 -27.3 Q-54.1 -52.5 -25.5 -61.4 3.1 -70.2 31.0 -57.5 L36.65 -54.65"/></g><g id="c6"><g><use transform="matrix(1.0,0.0,0.0,1.0,0.0,0.0)" xlink:href="#c5"/></g></g><radialGradient gradientUnits="userSpaceOnUse" r="819.2" cx="0" cy="0" spreadMethod="pad" gradientTransform="matrix(0.209197998047,0.0,0.0,0.177108764648,67.15,107.2)" id="gradient2"><stop offset="0.356862745098" stop-color="#ffffff"/><stop offset="0.670588235294" stop-opacity="0.0"/></radialGradient><g id="c7"><path fill="none" stroke-linejoin="round" stroke-linecap="round" stroke="url(#gradient2)" stroke-width="0.5" d="M136.55 165.8 L68.6 106.0 68.4 106.0 118.25 201.5 M68.2 105.7 L68.25 105.8 68.25 105.75 68.2 105.7 0.0 45.7 M68.25 105.8 L68.3 105.85 68.3 105.8 68.25 105.75 49.95 0.05 M0.05 97.7 L68.15 105.95 68.25 105.85 68.25 105.8 M68.3 105.85 L68.25 105.85 68.3 106.0 68.3 105.85 68.3 105.8 68.35 105.8 68.3 105.8 86.6 18.35 M50.0 193.2 L68.3 106.0 68.15 105.95 18.25 151.55 M68.4 106.0 L68.3 106.0 86.55 211.5 M68.4 106.0 L68.3 105.85 M68.6 106.0 L68.35 105.8 118.25 60.15 M136.6 114.25 L68.6 106.0 M68.2 105.7 L18.25 10.05"/></g><g id="c8"><g><use transform="matrix(1.0,0.0,0.0,1.0,0.0,0.0)" xlink:href="#c7"/></g></g><g id="c9"><path fill="#c79447" stroke="none" d="M44.45 10.55 Q42.95 6.1 41.15 4.3 L41.2 4.25 41.1 4.3 Q37.05 2.6 31.9 5.65 L31.3 5.2 30.3 5.3 31.3 5.2 31.9 5.65 31.95 5.75 30.6 6.75 Q28.75 8.05 24.15 9.65 L24.1 8.35 24.15 9.65 Q23.55 9.75 23.2 9.95 19.7 10.8 18.1 9.6 L20.35 8.8 18.1 9.6 17.4 8.7 Q16.45 6.7 17.8 3.8 L19.6 3.9 19.5 4.0 19.2 5.45 Q18.7 7.7 20.35 8.8 L23.35 8.6 Q23.8 8.4 24.1 8.35 26.55 7.6 29.1 6.05 L29.7 5.6 30.0 5.45 Q30.05 5.35 30.1 5.4 L30.15 5.35 30.3 5.3 Q37.65 0.6 41.6 2.55 44.6 4.05 45.75 9.1 L44.45 10.55 M41.2 4.25 Q41.6 3.55 41.6 2.55 41.6 3.55 41.2 4.25 M44.95 24.4 L45.2 18.4 46.55 17.1 46.25 23.65 Q46.3 28.7 45.1 30.4 43.9 32.15 35.7 34.0 L31.9 33.15 Q44.5 31.1 44.95 24.4 L46.25 23.65 44.95 24.4 M30.1 5.4 L30.3 5.3 30.1 5.4 M5.4 9.15 L5.0 9.9 Q3.45 12.35 3.45 14.4 3.45 17.0 5.05 18.65 L5.5 19.05 5.1 19.35 Q4.05 19.15 3.4 18.35 1.95 16.95 1.95 14.6 1.95 12.5 3.15 10.1 L3.65 8.95 3.95 8.6 Q4.8 8.6 5.15 8.95 L5.4 9.15 M3.45 14.4 L1.95 14.6 3.45 14.4"/><path fill="#75572a" stroke="none" d="M44.45 10.55 Q43.85 11.0 42.95 11.25 41.95 6.95 39.8 5.8 L41.15 4.3 39.8 5.8 Q36.8 4.1 31.7 7.85 L31.95 5.75 31.9 5.65 Q37.05 2.6 41.1 4.3 L41.2 4.25 41.15 4.3 Q42.95 6.1 44.45 10.55 M18.1 9.6 L16.35 10.95 15.8 11.6 Q14.15 10.0 15.05 6.95 L15.45 5.55 15.55 5.3 16.3 4.55 Q16.95 3.95 17.8 3.8 16.45 6.7 17.4 8.7 L18.1 9.6"/><path fill="#694e25" stroke="none" d="M42.95 11.25 Q43.85 11.0 44.45 10.55 L45.2 18.4 43.7 18.5 45.2 18.4 44.95 24.4 43.7 24.5 44.95 24.4 Q44.5 31.1 31.9 33.15 L30.75 31.55 Q43.15 30.0 43.7 24.5 L43.7 23.45 43.7 18.5 Q43.55 14.4 43.0 11.65 L42.95 11.25 M17.8 3.8 Q16.95 3.95 16.3 4.55 L15.55 5.3 Q16.05 4.25 15.85 3.6 L15.65 3.5 Q12.95 3.45 9.75 5.25 9.1 5.55 8.5 6.05 7.9 6.4 7.55 6.8 7.2 6.3 6.05 6.6 4.75 7.0 4.2 7.95 L3.8 8.65 3.75 8.65 1.4 9.85 3.75 8.65 3.65 8.95 3.15 10.1 Q1.95 12.5 1.95 14.6 L0.75 15.2 0.15 15.95 0.75 15.2 1.95 14.6 Q1.95 16.95 3.4 18.35 4.05 19.15 5.1 19.35 4.55 19.55 3.95 20.0 3.4 20.5 3.2 20.95 1.35 19.5 0.65 17.45 L0.15 15.95 Q-0.45 13.75 1.05 10.55 L1.4 9.85 Q3.35 6.55 7.55 3.75 8.15 3.35 8.85 2.9 12.8 1.5 16.2 1.25 17.7 1.15 17.95 2.05 18.2 2.75 17.8 3.8"/><path fill="#b88942" stroke="none" d="M45.2 18.4 L44.45 10.55 45.75 9.1 Q46.5 12.25 46.55 16.8 L46.55 17.1 45.2 18.4 M19.6 3.9 L17.8 3.8 Q18.2 2.75 17.95 2.05 17.7 1.15 16.2 1.25 12.8 1.5 8.85 2.9 12.95 0.9 16.7 0.15 L19.8 0.1 Q20.4 0.3 20.2 0.85 L19.6 3.9 M3.8 8.65 L4.2 7.95 Q4.75 7.0 6.05 6.6 7.2 6.3 7.55 6.8 L5.4 9.15 5.15 8.95 Q4.8 8.6 3.95 8.6 L3.85 8.6 3.8 8.65 M3.65 8.95 L3.85 8.6 3.95 8.6 3.65 8.95"/><path fill="#876430" stroke="none" d="M31.95 5.75 L31.7 7.85 31.55 7.9 28.3 9.5 26.3 10.4 22.8 11.65 24.15 9.65 22.8 11.65 Q18.9 12.65 16.25 11.8 L15.8 11.6 16.35 10.95 18.1 9.6 Q19.7 10.8 23.2 9.95 23.55 9.75 24.15 9.65 28.75 8.05 30.6 6.75 L31.95 5.75"/><path fill="#997237" stroke="none" d="M30.05 5.35 L30.15 5.35 30.1 5.4 Q30.05 5.35 30.0 5.45 L30.05 5.35 M5.5 19.05 L5.8 19.15 5.75 19.2 5.1 19.35 5.75 19.2 5.65 19.3 5.1 19.35 5.5 19.05 M3.65 8.95 L3.8 8.65 3.85 8.6 3.65 8.95"/><path fill="#614a22" stroke="none" d="M3.75 8.65 L3.8 8.65 3.65 8.95 3.75 8.65 M5.8 19.15 L6.0 19.3 5.65 19.3 5.75 19.2 5.8 19.15 M11.5 23.75 L12.5 24.85 Q17.95 31.0 27.1 30.15 L30.0 32.1 28.4 32.4 Q19.05 33.3 15.3 30.85 11.5 28.4 9.05 25.5 L9.8 24.45 10.0 24.25 Q10.1 23.85 11.35 23.75 L11.5 23.75"/><path fill="#6b4f26" stroke="none" d="M6.0 19.3 L10.05 21.8 9.6 21.6 11.5 23.75 11.35 23.75 Q10.1 23.85 10.0 24.25 L9.8 24.45 9.05 25.5 Q7.65 23.15 4.7 22.05 L4.85 21.75 3.3 20.95 3.2 20.95 Q3.4 20.5 3.95 20.0 4.55 19.55 5.1 19.35 L5.65 19.3 6.0 19.3 M9.6 21.6 L6.1 19.8 9.6 21.6"/><path fill="none" stroke="#333333" stroke-width="0.5" stroke-opacity="0.301960784314" d="M42.95 11.25 Q43.85 11.0 44.45 10.55 L45.75 9.1 Q44.6 4.05 41.6 2.55 41.6 3.55 41.2 4.25 L41.15 4.3 39.8 5.8 Q41.95 6.95 42.95 11.25 L43.0 11.65 Q43.55 14.4 43.7 18.5 L45.2 18.4 46.55 17.1 46.25 23.65 Q46.3 28.7 45.1 30.4 43.9 32.15 35.7 34.0 M46.55 17.1 L46.55 16.8 Q46.5 12.25 45.75 9.1 M43.7 18.5 L43.7 23.45 43.7 24.5 44.95 24.4 46.25 23.65 M30.75 31.55 Q43.15 30.0 43.7 24.5 M30.3 5.3 L31.3 5.2 31.9 5.65 31.95 5.75 31.7 7.85 Q36.8 4.1 39.8 5.8 M31.55 7.9 L31.7 7.85 M30.3 5.3 Q37.65 0.6 41.6 2.55 M30.3 5.3 L30.1 5.4 Q30.05 5.35 30.0 5.45"/><path fill="none" stroke="#000000" stroke-width="0.5" stroke-opacity="0.219607843137" d="M31.95 5.75 L30.6 6.75 Q28.75 8.05 24.15 9.65 23.55 9.75 23.2 9.95 19.7 10.8 18.1 9.6 L17.4 8.7 Q16.45 6.7 17.8 3.8 18.2 2.75 17.95 2.05 17.7 1.15 16.2 1.25 12.8 1.5 8.85 2.9 8.15 3.35 7.55 3.75 3.35 6.55 1.4 9.85 M22.8 11.65 L26.3 10.4 28.3 9.5 31.55 7.9 M30.0 5.45 L29.7 5.6 29.1 6.05 Q26.55 7.6 24.1 8.35 23.8 8.4 23.35 8.6 L20.35 8.8 Q18.7 7.7 19.2 5.45 L19.5 4.0 M15.8 11.6 L16.25 11.8 Q18.9 12.65 22.8 11.65 M30.05 5.35 L30.0 5.45 M15.55 5.3 L15.45 5.55 15.05 6.95 Q14.15 10.0 15.8 11.6 M7.55 6.8 Q7.9 6.4 8.5 6.05 9.1 5.55 9.75 5.25 12.95 3.45 15.65 3.5 L15.85 3.6 Q16.05 4.25 15.55 5.3 M7.55 6.8 L5.4 9.15 5.0 9.9 Q3.45 12.35 3.45 14.4 3.45 17.0 5.05 18.65 L5.5 19.05 5.8 19.15 6.0 19.3 10.05 21.8 M11.5 23.75 L12.5 24.85 Q17.95 31.0 27.1 30.15 L30.0 32.1 M28.4 32.4 Q19.05 33.3 15.3 30.85 11.5 28.4 9.05 25.5 7.65 23.15 4.7 22.05 M4.85 21.75 L3.3 20.95 M3.2 20.95 Q1.35 19.5 0.65 17.45 L0.15 15.95 Q-0.45 13.75 1.05 10.55 L1.4 9.85 M8.85 2.9 Q12.95 0.9 16.7 0.15 L19.8 0.1 Q20.4 0.3 20.2 0.85 L19.6 3.9 M5.65 19.3 L6.0 19.3 M6.1 19.8 L9.6 21.6 M9.8 24.45 L9.05 25.5"/><path fill="none" stroke="#000000" stroke-width="0.5" stroke-opacity="0.149019607843" d="M24.15 9.65 L22.8 11.65 M30.05 5.35 L30.15 5.35 M24.1 8.35 L24.15 9.65 M18.1 9.6 L16.35 10.95 15.8 11.6 M20.35 8.8 L18.1 9.6 M17.8 3.8 Q16.95 3.95 16.3 4.55 L15.55 5.3 M19.5 4.0 L19.6 3.9 17.8 3.8 M1.4 9.85 L3.75 8.65 3.8 8.65 M3.3 20.95 L3.2 20.95 Q3.4 20.5 3.95 20.0 4.55 19.55 5.1 19.35 L5.75 19.2 M3.85 8.6 L3.8 8.65 M3.95 8.6 L3.85 8.6 M3.95 8.6 Q4.8 8.6 5.15 8.95 L5.4 9.15 M1.95 14.6 L3.45 14.4 M0.15 15.95 L0.75 15.2 1.95 14.6 M9.8 24.45 L10.0 24.25 Q10.1 23.85 11.35 23.75 L11.5 23.75"/></g><g id="c10"><g><use transform="matrix(1.0,0.0,0.0,1.0,0.0,0.0)" xlink:href="#c9"/></g></g><g id="c11"><path fill="#ffffff" stroke="none" d="M27.15 0.75 Q26.75 2.0 25.75 2.95 23.7 5.15 21.2 5.85 L20.6 6.0 Q17.85 6.45 16.7 8.75 L16.45 9.65 Q16.25 13.25 19.75 12.1 21.7 11.0 21.6 9.75 L21.1 9.0 21.15 8.85 21.25 8.9 21.9 9.8 Q22.15 11.35 19.75 12.7 15.5 14.05 15.7 9.8 15.7 9.25 16.1 8.55 17.6 5.65 20.6 5.45 23.5 4.7 25.8 2.3 26.75 1.35 27.2 0.05 L27.4 0.0 27.35 0.1 27.15 0.75 M8.55 17.35 Q9.45 16.6 9.9 17.65 L10.05 18.2 9.85 18.6 9.05 19.3 9.05 19.35 8.4 19.5 8.95 19.2 9.7 18.4 9.65 17.85 Q9.15 17.0 8.55 17.35 M8.2 15.25 Q12.95 15.05 12.85 19.7 12.85 20.35 12.45 20.95 10.85 23.8 7.5 23.1 4.25 23.05 1.75 25.05 0.95 25.65 0.5 26.6 L0.2 27.15 0.0 27.15 0.2 26.4 0.3 26.3 Q0.75 25.05 1.75 24.4 4.0 22.5 6.8 22.5 L7.5 22.5 Q10.5 22.8 11.7 20.65 L12.05 19.6 Q12.1 15.7 8.2 15.9 6.0 16.6 6.2 18.0 L6.8 18.95 6.7 19.1 6.65 19.05 Q6.05 18.5 5.85 17.8 5.55 16.05 8.2 15.25"/><path fill="none" stroke="#ffffff" stroke-width="0.5" stroke-opacity="0.341176470588" d="M27.15 0.75 L27.35 0.1 27.4 0.0 27.2 0.05 Q26.75 1.35 25.8 2.3 23.5 4.7 20.6 5.45 17.6 5.65 16.1 8.55 15.7 9.25 15.7 9.8 15.5 14.05 19.75 12.7 22.15 11.35 21.9 9.8 L21.25 8.9 21.15 8.85 21.1 9.0 21.6 9.75 Q21.7 11.0 19.75 12.1 16.25 13.25 16.45 9.65 L16.7 8.75 Q17.85 6.45 20.6 6.0 L21.2 5.85 Q23.7 5.15 25.75 2.95 26.75 2.0 27.15 0.75 M8.2 15.25 Q12.95 15.05 12.85 19.7 12.85 20.35 12.45 20.95 10.85 23.8 7.5 23.1 4.25 23.05 1.75 25.05 0.95 25.65 0.5 26.6 L0.2 27.15 0.0 27.15 0.2 26.4 0.3 26.3 Q0.75 25.05 1.75 24.4 4.0 22.5 6.8 22.5 L7.5 22.5 Q10.5 22.8 11.7 20.65 L12.05 19.6 Q12.1 15.7 8.2 15.9 6.0 16.6 6.2 18.0 L6.8 18.95 6.7 19.1 6.65 19.05 Q6.05 18.5 5.85 17.8 5.55 16.05 8.2 15.25"/></g><g id="c12"><g><use transform="matrix(1.0,0.0,0.0,1.0,0.0,0.0)" xlink:href="#c11"/></g></g><g id="c13"><path fill="#6e4414" stroke="none" d="M25.2 14.05 L25.25 14.0 25.2 14.05 M27.45 0.45 L27.3 0.45 27.4 0.0 27.45 0.45 M0.45 30.65 L0.3 30.45 0.45 30.5 0.45 30.65"/><path fill="#c4a16c" stroke="none" d="M5.3 29.25 L5.35 29.25 5.2 29.35 5.3 29.25"/><path fill="#d4b76e" stroke="none" d="M13.95 8.75 L13.9 8.95 13.85 8.9 13.85 8.85 13.95 8.75"/><path fill="#faecbc" stroke="none" d="M27.0 1.65 L25.95 5.05 25.9 5.2 25.8 5.6 25.65 6.0 24.65 8.8 23.95 10.5 23.8 10.5 24.55 8.75 25.9 5.05 25.9 5.0 27.0 1.65 M20.7 19.7 L20.6 20.5 Q20.4 21.85 20.5 22.95 L20.15 23.25 20.6 19.6 20.7 19.7 M14.7 17.4 L14.55 17.3 14.75 17.35 14.7 17.4 M0.5 28.65 L0.0 30.1 0.3 29.15 0.5 28.65 M13.3 28.5 L13.05 28.65 12.95 27.0 13.05 27.0 13.3 28.5"/><path fill="#895501" stroke="none" d="M23.95 10.5 L23.95 10.75 23.85 10.75 23.95 10.5 M5.75 29.75 L5.75 29.7 5.8 29.7 5.75 29.75"/><path fill="#452a0c" stroke="none" d="M10.75 25.75 L10.7 25.65 10.7 25.6 10.8 25.6 10.75 25.75 M13.05 28.65 L13.05 28.7 13.05 28.65"/><path fill="#ab7c2e" stroke="none" d="M7.3 21.15 L7.6 21.25 7.35 21.3 7.3 21.15 M13.85 8.95 L13.85 8.9 13.9 8.95 13.85 8.95 M2.5 23.95 L2.65 24.05 2.1 24.85 2.5 23.95"/><path fill="#f15081" stroke="none" d="M8.15 19.85 L8.9 20.25 8.1 19.95 8.15 19.85"/><path fill="#ffc95b" stroke="none" d="M3.1 25.95 L3.25 25.95 3.1 26.65 3.1 25.95 M8.1 19.95 L8.05 19.95 8.15 19.85 8.1 19.95"/><path fill="#972b54" stroke="none" d="M5.8 29.7 L5.75 29.7 7.55 28.75 6.4 29.4 5.8 29.7"/><path fill="#ffffff" stroke="none" d="M15.0 16.95 L19.85 17.15 Q21.0 16.35 23.1 12.05 L23.8 10.5 23.95 10.5 23.85 10.75 22.6 14.0 22.5 14.25 21.4 17.2 21.3 17.5 20.7 19.7 20.6 19.6 Q18.0 17.85 15.0 16.95 M7.35 21.3 Q4.4 22.0 2.65 24.05 L2.5 23.95 3.1 22.55 4.3 21.25 7.3 21.15 7.35 21.3 M5.35 29.25 L10.05 26.9 10.75 25.75 10.85 26.9 10.75 26.95 Q9.8 28.05 7.55 28.75 L5.75 29.7 0.0 30.1 5.2 29.35 5.35 29.25 M10.8 25.6 L11.0 25.25 11.95 25.25 13.05 24.35 Q15.65 22.1 17.5 19.3 L14.7 17.4 14.75 17.35 Q16.75 18.1 17.8 18.85 L18.75 19.7 18.0 20.75 17.4 21.5 Q15.55 23.75 13.3 25.35 13.0 26.1 13.05 27.0 L12.95 27.0 12.85 25.65 10.8 25.6 M8.05 19.95 L8.15 19.85 8.05 19.95"/><path fill="#3d2610" stroke="none" d="M23.95 10.75 L25.2 14.05 24.15 14.75 23.95 10.75 M12.6 16.3 L13.75 16.6 14.35 16.75 14.95 16.95 15.0 16.95 Q18.0 17.85 20.6 19.6 L20.15 23.25 20.1 23.3 18.5 23.35 18.75 19.7 17.8 18.85 Q16.75 18.1 14.75 17.35 L14.55 17.3 13.65 16.95 10.85 16.0 12.6 16.3 M13.05 28.7 L11.2 28.15 11.0 27.6 10.75 26.95 10.85 26.9 10.75 25.75 10.8 25.6 12.85 25.65 12.95 27.0 13.05 28.65 13.05 28.7"/><path fill="#ffcc33" stroke="none" d="M16.3 7.0 Q21.5 3.8 25.15 3.1 L25.35 4.45 25.35 4.6 25.2 4.85 Q20.7 12.0 15.75 16.3 L12.6 16.3 10.85 16.0 13.65 16.95 14.55 17.3 14.7 17.4 17.5 19.3 Q15.65 22.1 13.05 24.35 L11.95 25.25 11.0 25.25 10.8 25.6 10.7 25.6 10.7 25.65 10.75 25.75 10.05 26.9 5.35 29.25 5.3 29.25 Q3.25 28.15 3.45 25.55 L3.25 25.95 3.1 25.95 3.25 25.4 3.3 25.3 2.65 24.05 Q4.4 22.0 7.35 21.3 L7.6 21.25 7.3 21.15 4.1 20.4 Q5.4 17.8 6.85 15.55 L7.7 14.15 10.1 12.0 10.45 11.7 10.45 11.65 12.35 10.05 13.85 9.8 15.15 10.05 16.35 10.05 15.05 9.4 13.9 8.95 13.95 8.75 14.65 8.2 16.3 7.0 M9.75 20.05 L9.25 20.25 9.8 20.15 9.8 20.1 9.75 20.05 M8.05 19.95 L8.1 19.95 8.9 20.25 8.15 19.85 8.05 19.95"/><path fill="#eca602" stroke="none" d="M27.3 0.45 L27.15 1.1 27.0 1.65 25.9 5.0 25.9 5.05 24.55 8.75 23.8 10.5 23.1 12.05 Q21.0 16.35 19.85 17.15 L15.0 16.95 14.95 16.95 14.35 16.75 13.75 16.6 12.6 16.3 15.75 16.3 Q20.7 12.0 25.2 4.85 L25.35 4.6 25.35 4.45 25.15 3.1 Q21.5 3.8 16.3 7.0 18.4 5.4 20.7 3.95 L21.85 3.7 21.55 3.45 22.15 3.15 22.1 3.05 Q24.7 1.45 27.4 0.0 L27.3 0.45 M2.65 24.05 L3.3 25.3 3.25 25.4 3.1 25.95 3.1 26.65 3.25 25.95 3.45 25.55 Q3.25 28.15 5.3 29.25 L5.2 29.35 0.0 30.1 0.5 28.65 0.65 28.3 2.1 24.85 2.65 24.05"/><path fill="#8f6401" stroke="none" d="M23.85 10.75 L23.95 10.75 24.15 14.75 24.25 16.55 21.9 21.5 20.5 22.95 Q20.4 21.85 20.6 20.5 L20.7 19.7 21.3 17.5 21.4 17.2 22.5 14.25 22.6 14.0 23.85 10.75 M11.2 28.15 L11.65 29.4 Q8.4 30.95 6.15 31.25 L0.45 30.65 0.45 30.5 0.3 30.45 0.0 30.1 5.75 29.7 5.75 29.75 6.1 30.9 Q11.05 29.75 11.0 27.6 L11.2 28.15 M13.05 27.0 Q13.0 26.1 13.3 25.35 15.55 23.75 17.4 21.5 20.5 24.25 13.05 27.0"/><path fill="#654601" stroke="none" d="M27.0 1.65 L27.15 1.1 27.3 0.45 27.45 0.45 Q27.5 2.8 27.15 6.05 L26.95 7.65 26.8 8.45 26.3 10.75 26.1 11.4 26.1 11.55 25.25 14.0 25.2 14.05 23.95 10.75 23.95 10.5 24.65 8.8 25.65 6.0 25.8 5.6 25.9 5.2 25.95 5.05 27.0 1.65 M13.9 8.95 L15.05 9.4 16.35 10.05 15.15 10.05 13.85 9.8 13.85 8.95 13.9 8.95 M4.1 20.4 L7.3 21.15 4.3 21.25 4.1 20.4 M18.75 19.7 L18.5 23.35 18.65 24.45 15.15 27.3 14.5 27.75 13.3 28.5 13.05 27.0 Q20.5 24.25 17.4 21.5 L18.0 20.75 18.75 19.7 M10.75 26.95 L11.0 27.6 Q11.05 29.75 6.1 30.9 L5.75 29.75 5.8 29.7 6.4 29.4 7.55 28.75 Q9.8 28.05 10.75 26.95"/><path fill="none" stroke="#000000" stroke-width="0.5" stroke-opacity="0.301960784314" d="M25.25 14.0 L26.1 11.55 26.1 11.4 26.3 10.75 26.8 8.45 26.95 7.65 27.15 6.05 Q27.5 2.8 27.45 0.45 L27.4 0.0 Q24.7 1.45 22.1 3.05 L21.55 3.45 M20.7 3.95 Q18.4 5.4 16.3 7.0 M12.6 16.3 L13.75 16.6 14.35 16.75 M24.15 14.75 L25.2 14.05 25.25 14.0 M20.5 22.95 L21.9 21.5 24.25 16.55 24.15 14.75 M13.85 9.8 L12.35 10.05 10.45 11.65 10.45 11.7 10.1 12.0 7.7 14.15 6.85 15.55 Q5.4 17.8 4.1 20.4 L7.3 21.15 7.6 21.25 M10.75 25.75 L10.7 25.65 10.7 25.6 10.8 25.6 12.85 25.65 12.95 27.0 13.05 28.65 13.05 28.7 11.2 28.15 11.65 29.4 Q8.4 30.95 6.15 31.25 L0.45 30.65 0.3 30.45 0.0 30.1 0.3 29.15 0.5 28.65 M10.85 16.0 L12.6 16.3 M13.85 8.9 L13.85 8.95 13.85 9.8 M13.85 8.85 L13.95 8.75 14.65 8.2 16.3 7.0 M2.1 24.85 L0.65 28.3 M4.3 21.25 L4.1 20.4 M2.5 23.95 L3.1 22.55 4.3 21.25 7.3 21.15 M20.1 23.3 L20.15 23.25 20.5 22.95 M20.6 19.6 Q18.0 17.85 15.0 16.95 M18.65 24.45 L15.15 27.3 14.5 27.75 13.3 28.5 13.05 28.65 M18.0 20.75 L18.75 19.7 M13.3 25.35 Q15.55 23.75 17.4 21.5 M10.75 26.95 L10.85 26.9 10.75 25.75 M10.75 26.95 L11.0 27.6 11.2 28.15 M5.8 29.7 L5.75 29.7 M7.55 28.75 Q9.8 28.05 10.75 26.95 M7.55 28.75 L6.4 29.4 5.8 29.7 M2.1 24.85 L2.5 23.95"/></g><g id="c14"><g><use transform="matrix(1.0,0.0,0.0,1.0,0.0,0.0)" xlink:href="#c13"/></g></g><g id="c15"><g><use transform="matrix(1.0,0.0,0.0,1.0,0.2,9.25)" xlink:href="#c14"/></g></g><g id="c16"><g><use transform="matrix(1.31802368164,0.0,0.0,1.32611083984,5.45,-12.25)" xlink:href="#c15"/></g></g><g id="c17"><path fill="#57441f" stroke="none" d="M9.85 10.5 L9.65 10.7 8.95 11.7 8.85 12.25 11.75 14.6 15.05 16.7 15.0 16.4 Q14.85 15.65 15.15 15.05 L12.75 13.25 Q12.35 12.9 13.7 11.05 L13.65 11.0 13.6 11.0 10.65 10.0 10.2 10.15 9.85 10.5"/><path fill="#c79447" stroke="none" d="M15.05 16.7 Q17.2 17.15 17.65 14.75 17.95 13.65 17.35 12.55 L17.2 12.6 16.7 12.95 Q15.55 13.8 15.15 15.05 14.85 15.65 15.0 16.4 L15.05 16.7"/><path fill="#997337" stroke="none" d="M17.35 12.55 L13.65 11.0 13.7 11.05 Q12.35 12.9 12.75 13.25 L15.15 15.05 Q15.55 13.8 16.7 12.95 L17.2 12.6 17.35 12.55"/><path fill="none" stroke="#000000" stroke-width="0.5" stroke-opacity="0.301960784314" d="M9.85 10.5 L9.65 10.7"/><path fill="none" stroke="#000000" stroke-width="0.5" stroke-opacity="0.301960784314" d="M8.95 11.7 L8.85 12.25 11.75 14.6 15.05 16.7 Q17.2 17.15 17.65 14.75 17.95 13.65 17.35 12.55 L13.65 11.0 13.6 11.0 10.65 10.0 M17.2 12.6 L17.35 12.55 M15.15 15.05 Q14.85 15.65 15.0 16.4 L15.05 16.7"/><path fill="none" stroke="#000000" stroke-width="0.5" stroke-opacity="0.101960784314" d="M15.75 13.2 L14.3 13.35 M10.7 11.05 L9.75 11.75 M13.5 10.6 L12.05 10.85 M12.95 13.7 L11.95 14.35"/><path fill="#997337" stroke="none" d="M14.3 7.5 L14.3 8.1 14.35 8.2 Q14.3 10.25 12.6 11.25 L11.8 11.65 Q11.05 13.0 9.8 13.95 L9.15 14.4 Q8.9 12.0 7.2 10.5 5.55 9.0 3.7 7.85 L2.9 7.4 1.45 7.6 Q1.1 5.5 1.65 3.45 2.6 2.45 4.05 2.05 L4.95 1.85 6.0 1.95 7.45 3.2 6.8 2.1 Q6.2 1.2 7.55 0.0 10.1 0.0 12.15 1.45 L13.3 2.4 12.4 2.55 Q11.7 2.7 11.3 3.15 10.1 4.3 10.7 6.25 L9.0 4.5 Q8.35 4.55 7.8 4.95 7.25 5.45 7.1 6.05 6.5 8.3 8.4 10.1 L8.85 10.0 Q11.1 9.3 11.05 6.9 L11.7 8.4 12.4 8.3 Q13.35 8.05 14.3 7.5 M9.0 4.5 L7.45 3.2 9.0 4.5 M11.8 11.65 L11.85 10.8 11.7 8.4 11.85 10.8 11.8 11.65"/><path fill="#c79447" stroke="none" d="M13.3 2.4 Q13.95 4.4 14.15 6.55 L14.3 7.5 Q13.35 8.05 12.4 8.3 L11.7 8.4 11.05 6.9 10.7 6.25 11.05 6.9 Q11.1 9.3 8.85 10.0 L8.4 10.1 Q6.5 8.3 7.1 6.05 7.25 5.45 7.8 4.95 8.35 4.55 9.0 4.5 L10.7 6.25 Q10.1 4.3 11.3 3.15 11.7 2.7 12.4 2.55 L13.3 2.4"/><path fill="#614a22" stroke="none" d="M9.15 14.4 L7.65 14.95 7.7 14.9 7.25 12.7 1.15 9.65 0.1 9.9 0.0 7.5 Q0.0 5.45 1.65 3.45 1.1 5.5 1.45 7.6 L2.9 7.4 3.7 7.85 Q5.55 9.0 7.2 10.5 8.9 12.0 9.15 14.4 M4.95 1.85 Q5.55 0.8 6.75 0.2 L7.55 0.0 Q6.2 1.2 6.8 2.1 L7.45 3.2 6.0 1.95 4.95 1.85"/><path fill="none" stroke="#000000" stroke-width="0.5" stroke-opacity="0.301960784314" d="M13.3 2.4 Q13.95 4.4 14.15 6.55 L14.3 7.5 14.3 8.1 14.35 8.2 Q14.3 10.25 12.6 11.25 L11.8 11.65 Q11.05 13.0 9.8 13.95 L9.15 14.4 7.65 14.95 7.65 14.9 7.7 14.9 7.25 12.7 1.15 9.65 0.1 9.9 0.0 7.5 Q0.0 5.45 1.65 3.45 2.6 2.45 4.05 2.05 L4.95 1.85 Q5.55 0.8 6.75 0.2 L7.55 0.0 Q10.1 0.0 12.15 1.45 L13.3 2.4 M10.7 6.25 L11.05 6.9 11.7 8.4 11.85 10.8 11.8 11.65 M4.95 1.85 L6.0 1.95 7.45 3.2 9.0 4.5 10.7 6.25 M7.7 14.9 L7.65 14.95"/><path fill="none" stroke="#000000" stroke-width="0.5" stroke-opacity="0.101960784314" d="M11.45 1.1 L12.3 1.05 M2.9 10.2 L2.8 8.15 M2.95 6.3 L3.45 4.4 M4.4 2.65 Q5.15 1.95 6.1 1.7 M3.65 14.75 L3.55 15.9 M11.1 6.6 L11.05 8.2 10.8 8.85 M9.6 10.55 L8.5 11.5 7.9 12.0 M5.1 11.25 Q4.45 12.1 4.15 13.0 M9.05 4.15 L9.95 2.5 M11.8 8.05 L13.7 7.25"/><path fill="#57441f" stroke="none" d="M9.75 12.65 L9.3 12.75 8.5 13.1 7.75 13.55 7.25 14.2 Q8.0 16.75 9.3 19.25 10.6 21.8 12.1 24.15 L12.25 23.75 Q12.6 22.7 13.35 22.15 12.2 20.25 11.5 18.15 10.65 15.7 11.05 12.55 L9.85 12.65 9.75 12.65"/><path fill="#997337" stroke="none" d="M11.05 12.55 Q10.65 15.7 11.5 18.15 12.2 20.25 13.35 22.15 14.75 20.8 16.75 20.5 L17.75 20.4 17.9 20.5 14.2 15.9 11.05 12.55"/><path fill="#c79447" stroke="none" d="M13.35 22.15 Q12.6 22.7 12.25 23.75 L12.1 24.15 Q14.5 26.3 16.8 23.55 17.95 22.3 17.9 20.5 L17.75 20.4 16.75 20.5 Q14.75 20.8 13.35 22.15"/><path fill="none" stroke="#000000" stroke-width="0.5" stroke-opacity="0.301960784314" d="M13.35 22.15 Q12.6 22.7 12.25 23.75 L12.1 24.15 Q10.6 21.8 9.3 19.25 8.0 16.75 7.25 14.2 L7.75 13.55 M17.9 20.5 L14.2 15.9 11.05 12.55 M17.75 20.4 L17.9 20.5 Q17.95 22.3 16.8 23.55 14.5 26.3 12.1 24.15"/><path fill="none" stroke="#000000" stroke-width="0.5" stroke-opacity="0.301960784314" d="M9.3 12.75 L9.75 12.65"/><path fill="none" stroke="#000000" stroke-width="0.5" stroke-opacity="0.101960784314" d="M10.2 14.1 L8.6 14.35 M14.15 15.45 L12.15 14.75 M15.25 20.3 L13.3 19.55 M11.35 19.0 L9.6 19.2"/></g><g id="c18"><g><use transform="matrix(1.0,0.0,0.0,1.0,0.0,0.0)" xlink:href="#c17"/></g></g><radialGradient gradientUnits="userSpaceOnUse" r="819.2" cx="0" cy="0" spreadMethod="pad" gradientTransform="matrix(0.0102386474609,0.0,0.0,0.0102386474609,10.8,11.75)" id="gradient3"><stop offset="0.0" stop-color="#fbf1bf"/><stop offset="1.0" stop-color="#faf0be" stop-opacity="0.0"/></radialGradient><g id="c19"><path stroke="none" fill="url(#gradient3)" d="M19.5 9.75 Q19.5 13.8 16.65 16.65 13.8 19.5 9.75 19.5 5.7 19.5 2.85 16.65 0.0 13.8 0.0 9.75 0.0 5.7 2.85 2.85 5.7 0.0 9.75 0.0 13.8 0.0 16.65 2.85 19.5 5.7 19.5 9.75"/></g><g id="c20"><g><use transform="matrix(1.0,0.0,0.0,1.0,0.0,0.0)" xlink:href="#c19"/></g></g><g id="c21"><g><use transform="matrix(1.0,0.0,0.0,1.0,0.0,0.0)" xlink:href="#c2"/></g><g><use transform="matrix(0.238861083984,-0.0867004394531,0.10026550293,0.233917236328,34.25,31.15)" xlink:href="#c4"/></g><g><use transform="matrix(0.238861083984,-0.0867004394531,0.10026550293,0.233917236328,4.25,10.3)" xlink:href="#c4"/></g><g><use transform="matrix(0.141098022461,-0.0378112792969,0.111373901367,0.225646972656,20.25,20.65)" filter="url(#filter14)" xlink:href="#c6"/></g><g><use transform="matrix(-0.155029296875,0.0513153076172,0.0841827392578,0.147033691406,22.6,2.3)" filter="url(#filter15)" xlink:href="#c8"/></g><g><use transform="matrix(-0.361053466797,0.0,0.0,0.361053466797,28.75,12.05)" xlink:href="#c10"/></g><g><use transform="matrix(-0.361053466797,0.0,0.0,0.361053466797,28.0,18.6)" xlink:href="#c12"/></g><g><use transform="matrix(-0.428909301758,0.0,0.0,0.428909301758,31.75,13.1)" xlink:href="#c16"/></g><g><use transform="matrix(-0.277725219727,0.0,0.0,0.277725219727,16.75,12.05)" xlink:href="#c18"/></g><g><use transform="matrix(-0.561462402344,-0.0863494873047,0.0,0.561462402344,25.05,14.8)" filter="url(#filter20)" xlink:href="#c20"/></g><g><use transform="matrix(0.162948608398,-0.0436706542969,0.128631591797,0.260604858398,20.35,20.95)" filter="url(#filter21)" xlink:href="#c6"/></g></g><filter id="filter14"><feColorMatrix in="SourceGraphic" type="matrix" values="0.0 0.0 0.0 0.0 0.796875 0.0 0.0 0.0 0.0 0.59765625 0.0 0.0 0.0 0.0 0.19921875 0.0 0.0 0.0 1.0 0.0" result="cxform"/><feComposite operator="in" in2="SourceGraphic" result="color-xform"/></filter><filter id="filter15"><feColorMatrix in="SourceGraphic" type="matrix" values="0.0 0.0 0.0 0.0 0.99609375 0.0 0.0 0.0 0.0 0.99609375 0.0 0.0 0.0 0.0 0.99609375 0.0 0.0 0.0 1.0 0.0" result="cxform"/><feComposite operator="in" in2="SourceGraphic" result="color-xform"/></filter><filter id="filter20"><feColorMatrix in="SourceGraphic" type="matrix" values="1.0 0.0 0.0 0.0 0.0 0.0 1.0 0.0 0.0 0.0 0.0 0.0 1.0 0.0 0.0 0.0 0.0 0.0 0.26953125 0.0" result="cxform"/><feComposite operator="in" in2="SourceGraphic" result="color-xform"/></filter><filter id="filter21"><feColorMatrix in="SourceGraphic" type="matrix" values="1.0 0.0 0.0 0.0 0.0 0.0 1.0 0.0 0.0 0.0 0.0 0.0 1.0 0.0 0.0 0.0 0.0 0.0 0.23046875 0.0" result="cxform"/><feComposite operator="in" in2="SourceGraphic" result="color-xform"/></filter></defs><g><g><use transform="matrix(1.0,0.0,0.0,1.0,0.0,0.0)" xlink:href="#c1"/></g><g><use transform="matrix(1.15496826172,0.0,0.0,1.15496826172,5.85,3.95)" xlink:href="#c21"/></g></g></svg>