<?xml version='1.0' encoding='UTF-8'?>
<svg xmlns:xlink="http://www.w3.org/1999/xlink" xmlns="http://www.w3.org/2000/svg" version="1.1" width="60px" height="60px" viewBox="0.0 0.0 60.0 60.0"><defs><g id="c1"><path fill="#c8cba3" stroke="none" d="M0.95 -5.9 Q2.25 -5.75 3.15 -5.2 L4.5 -3.85 5.3 -2.25 5.8 -0.75 6.0 1.5 Q5.85 3.9 4.9 5.85 7.35 0.05 0.8 -3.85 L-1.4 -3.8 Q-2.95 -1.9 -3.4 2.7 L-3.55 6.9 -3.15 7.25 -2.8 7.55 -3.4 7.4 -4.15 7.05 Q-5.05 5.45 -5.15 3.4 L-5.2 2.65 -5.15 2.2 Q-5.1 -0.9 -3.55 -3.2 L-2.25 -4.65 -1.95 -4.85 Q-0.8 -5.65 0.95 -5.9"/><path fill="#cacdba" stroke="none" d="M-2.8 7.55 L-3.15 7.25 -3.55 6.9 -2.8 7.55"/><path fill="#fcfce9" stroke="none" d="M-3.55 6.9 L-3.4 2.7 Q-2.95 -1.9 -1.4 -3.8 L0.8 -3.85 Q7.35 0.05 4.9 5.85 3.8 4.95 -1.45 7.3 L-2.8 7.55 -3.55 6.9"/><path fill="#102015" stroke="none" d="M4.9 5.85 Q5.85 3.9 6.0 1.5 L5.8 -0.75 5.3 -2.25 4.5 -3.85 3.15 -5.2 Q2.25 -5.75 0.95 -5.9 L3.6 -6.55 4.3 -4.85 5.35 -3.2 8.35 -1.4 8.4 -1.35 Q6.0 2.0 5.8 5.7 L4.9 5.85 M-1.95 -4.85 L-2.25 -4.65 -3.55 -3.2 Q-5.1 -0.9 -5.15 2.2 L-5.2 2.65 -5.15 3.4 Q-5.05 5.45 -4.15 7.05 L-5.3 7.45 Q-4.55 4.8 -7.75 1.15 -6.0 1.05 -5.35 -1.45 -4.75 -3.95 -5.5 -4.55 L-2.5 -4.65 -1.95 -4.85"/><path fill="none" stroke="#000000" stroke-width="0.5" stroke-opacity="0.301960784314" d="M4.9 5.85 Q5.85 3.9 6.0 1.5 L5.8 -0.75 5.3 -2.25 4.5 -3.85 3.15 -5.2 Q2.25 -5.75 0.95 -5.9 -0.8 -5.65 -1.95 -4.85 L-2.25 -4.65 -3.55 -3.2 Q-5.1 -0.9 -5.15 2.2 L-5.2 2.65 -5.15 3.4 Q-5.05 5.45 -4.15 7.05 L-3.4 7.4 -2.8 7.55 M4.9 5.85 Q3.8 4.95 -1.45 7.3 L-2.8 7.55"/></g><g id="c2"><path fill="#2e393d" stroke="none" d="M1.2 -2.0 Q1.75 -1.15 1.75 0.0 1.75 1.15 1.2 1.95 0.7 2.8 0.0 2.8 -0.7 2.8 -1.25 1.95 -1.75 1.15 -1.75 0.0 -1.75 -1.15 -1.25 -2.0 -0.7 -2.8 0.0 -2.8 0.7 -2.8 1.2 -2.0"/><path fill="none" stroke="#000000" stroke-width="0.5" stroke-opacity="0.301960784314" d="M1.2 -2.0 Q1.75 -1.15 1.75 0.0 1.75 1.15 1.2 1.95 0.7 2.8 0.0 2.8 -0.7 2.8 -1.25 1.95 -1.75 1.15 -1.75 0.0 -1.75 -1.15 -1.25 -2.0 -0.7 -2.8 0.0 -2.8 0.7 -2.8 1.2 -2.0"/><path fill="#ffffff" stroke="none" d="M1.1 -0.8 L0.7 -1.0 Q0.55 -1.2 0.55 -1.45 L0.7 -1.9 1.1 -2.1 1.5 -1.9 1.7 -1.45 1.5 -1.0 1.1 -0.8"/><path fill="none" stroke="#000000" stroke-width="0.5" stroke-opacity="0.301960784314" d="M1.1 -0.8 L0.7 -1.0 Q0.55 -1.2 0.55 -1.45 L0.7 -1.9 1.1 -2.1 1.5 -1.9 1.7 -1.45 1.5 -1.0 1.1 -0.8"/></g><g id="c3"><g><use transform="matrix(1.0,0.0,0.0,1.0,0.0,0.0)" xlink:href="#c2"/></g></g><g id="c4"><g><use transform="matrix(1.0,0.0,0.0,1.0,0.0,0.0)" xlink:href="#c1"/></g><g><use transform="matrix(1.49124145508,0.210952758789,-0.227920532227,1.61123657227,-2.45,2.4)" xlink:href="#c3"/></g></g><g id="c5"><path fill="#c8cba3" stroke="none" d="M1.4 1.4 L1.2 1.7 1.05 1.95 -1.25 5.25 Q-2.35 2.85 -2.0 0.65 L-2.0 0.6 Q-0.65 -5.15 5.6 -4.45 L1.4 1.4"/><path fill="none" stroke="#000000" stroke-width="0.5" stroke-opacity="0.301960784314" d="M1.2 1.7 L1.35 1.7 1.35 1.65 1.4 1.4 1.2 1.7 M1.05 1.95 L1.35 1.7 M-1.25 5.25 Q-2.35 2.85 -2.0 0.65 L-2.0 0.6 Q-0.65 -5.15 5.6 -4.45 L1.4 1.4"/></g><g id="c6"><path fill="#27274d" stroke="none" d="M1.2 -2.0 Q1.75 -1.15 1.75 0.0 1.75 1.15 1.2 1.95 0.7 2.8 0.0 2.8 -0.7 2.8 -1.25 1.95 -1.75 1.15 -1.75 0.0 -1.75 -1.15 -1.25 -2.0 -0.7 -2.8 0.0 -2.8 0.7 -2.8 1.2 -2.0"/><path fill="#ffffff" stroke="none" d="M1.1 -0.8 L0.7 -1.0 Q0.55 -1.2 0.55 -1.45 L0.7 -1.9 1.1 -2.1 1.5 -1.9 1.7 -1.45 1.5 -1.0 1.1 -0.8"/></g><g id="c7"><g><use transform="matrix(1.0,0.0,0.0,1.0,0.0,0.0)" xlink:href="#c6"/></g></g><g id="c8"><g><use transform="matrix(1.0,0.0,0.0,1.0,0.0,0.0)" xlink:href="#c5"/></g><g><use transform="matrix(0.464279174805,0.432647705078,-0.220092773438,0.974746704102,-0.9,1.0)" xlink:href="#c7"/></g></g><radialGradient gradientUnits="userSpaceOnUse" r="819.2" cx="0" cy="0" spreadMethod="pad" gradientTransform="matrix(0.0171966552734,0.0,0.0,0.0171966552734,0.0,0.0)" id="gradient1"><stop offset="0.333333333333" stop-color="#0d151c" stop-opacity="0.611764705882"/><stop offset="1.0" stop-color="#101a24" stop-opacity="0.0"/></radialGradient><g id="c9"><path stroke="none" fill="url(#gradient1)" d="M10.4 -10.45 Q14.75 -6.1 14.75 0.0 14.75 6.1 10.4 10.4 6.1 14.75 0.0 14.75 -6.1 14.75 -10.45 10.4 -14.75 6.1 -14.75 0.0 -14.75 -6.1 -10.45 -10.45 -6.1 -14.75 0.0 -14.75 6.1 -14.75 10.4 -10.45"/></g><g id="c10"><g><use transform="matrix(1.0,0.0,0.0,1.0,0.0,0.0)" xlink:href="#c9"/></g></g><g id="c11"><path fill="#fcffff" stroke="none" d="M-1.15 -5.55 L4.9 -2.5 5.6 -1.6 Q1.95 1.85 -2.7 3.75 -4.85 3.05 -6.8 1.25 L-8.3 -0.4 -8.3 -3.7 -5.2 -7.5 Q-3.25 -9.95 -2.6 -8.8 -2.25 -5.05 -3.2 -4.35 L-1.15 -5.55"/><path fill="#d7ffff" stroke="none" d="M-8.3 -3.7 L-8.3 -0.4 -6.8 1.25 Q-4.85 3.05 -2.7 3.75 1.95 1.85 5.6 -1.6 7.9 2.1 4.6 5.6 2.45 8.6 -1.4 7.4 -6.7 6.15 -8.05 3.6 -10.9 0.3 -8.3 -3.7"/><path fill="#5e5e45" stroke="none" d="M-1.15 -5.55 L-3.2 -4.35 Q-2.25 -5.05 -2.6 -8.8 L-2.5 -8.8 -1.15 -5.55"/><path fill="none" stroke="#000000" stroke-width="0.5" stroke-opacity="0.301960784314" d="M5.6 -1.6 L4.9 -2.5 -1.15 -5.55 -2.5 -8.8 -2.6 -8.8 M-5.2 -7.5 L-8.3 -3.7 M5.6 -1.6 Q7.9 2.1 4.6 5.6 2.45 8.6 -1.4 7.4 -6.7 6.15 -8.05 3.6 -10.9 0.3 -8.3 -3.7"/></g><g id="c12"><g><use transform="matrix(1.0,0.0,0.0,1.0,0.0,0.0)" xlink:href="#c11"/></g></g><g id="c13"><path fill="#d7ffff" stroke="none" d="M-7.1 0.85 Q-7.0 -1.9 -6.25 -5.8 -5.05 -12.65 -1.5 -11.8 -4.05 -0.35 -2.3 4.35 -3.9 4.0 -5.6 3.05 -6.95 1.9 -7.1 0.85"/><path fill="#bdfbf2" stroke="none" d="M4.65 6.1 L4.4 6.25 Q1.25 8.5 -2.3 7.75 -4.05 7.35 -5.9 6.25 -7.35 4.6 -7.1 0.85 -6.95 1.9 -5.6 3.05 -3.9 4.0 -2.3 4.35 1.1 5.05 4.1 3.1 4.95 4.65 4.65 6.1"/><path fill="#fcffff" stroke="none" d="M-1.5 -11.8 Q2.45 -11.65 4.4 -5.75 5.75 -2.5 6.15 0.05 6.0 1.95 4.4 2.85 L4.1 3.1 Q1.1 5.05 -2.3 4.35 -4.05 -0.35 -1.5 -11.8"/><path fill="#80f2a6" stroke="none" d="M6.15 0.05 Q6.65 4.0 4.65 6.1 4.95 4.65 4.1 3.1 L4.4 2.85 Q6.0 1.95 6.15 0.05"/><path fill="none" stroke="#000000" stroke-width="0.5" stroke-opacity="0.301960784314" d="M-7.1 0.85 Q-7.0 -1.9 -6.25 -5.8 -5.05 -12.65 -1.5 -11.8 2.45 -11.65 4.4 -5.75 5.75 -2.5 6.15 0.05 6.65 4.0 4.65 6.1 L4.4 6.25 Q1.25 8.5 -2.3 7.75 -4.05 7.35 -5.9 6.25 -7.35 4.6 -7.1 0.85 M4.1 3.1 Q4.95 4.65 4.65 6.1"/></g><g id="c14"><g><use transform="matrix(1.0,0.0,0.0,1.0,0.0,0.0)" xlink:href="#c13"/></g></g><g id="c15"><path fill="#627a84" stroke="none" d="M-15.8 11.05 L-17.1 10.45 Q-19.25 9.25 -19.85 6.85 -20.0 3.55 -19.3 2.3 -18.05 0.15 -15.65 -0.45 -13.95 -0.95 -12.4 -0.45 L-8.75 -3.9 7.5 1.8 12.3 2.9 Q13.5 3.9 13.9 5.5 14.45 7.6 13.35 9.45 12.4 11.2 10.55 11.8 L9.95 13.25 Q8.9 15.15 6.8 15.7 L3.8 15.9 Q2.6 18.05 0.2 18.7 -2.2 19.3 -4.35 18.05 -6.1 17.05 -6.8 15.3 -7.5 15.7 -8.35 15.95 -10.75 16.55 -12.9 15.3 -15.05 14.1 -15.65 11.7 L-15.8 11.1 -15.8 11.05"/><path fill="none" stroke="#000000" stroke-width="0.5" stroke-opacity="0.301960784314" d="M-15.8 11.1 L-15.65 11.7 Q-15.05 14.1 -12.9 15.3 -10.75 16.55 -8.35 15.95 -7.5 15.7 -6.8 15.3 -6.1 17.05 -4.35 18.05 -2.2 19.3 0.2 18.7 2.6 18.05 3.8 15.9 L6.8 15.7 Q8.9 15.15 9.95 13.25 L10.55 11.8 Q12.4 11.2 13.35 9.45 14.45 7.6 13.9 5.5 13.5 3.9 12.3 2.9 L7.5 1.8 -8.75 -3.9 -12.4 -0.45 Q-13.95 -0.95 -15.65 -0.45 -18.05 0.15 -19.3 2.3 -20.0 3.55 -19.85 6.85 -19.25 9.25 -17.1 10.45 L-15.8 11.05"/></g><g id="c16"><g><use transform="matrix(1.0,0.0,0.0,1.0,0.0,0.0)" xlink:href="#c15"/></g></g><g id="c17"><path fill="#a8a819" stroke="none" d="M-3.9 -0.95 L5.95 1.15 11.1 -0.9 12.85 -3.7 15.35 -0.4 10.5 5.4 -4.3 1.35 -11.3 -3.95 -6.9 -6.5 -4.8 -6.5 -4.75 -6.35 -4.75 -6.45 -3.9 -0.95"/><path fill="#d4d427" stroke="none" d="M-4.65 -6.5 L-4.0 -7.45 Q-2.15 -9.55 2.2 -10.0 7.95 -9.3 9.85 -7.65 L12.85 -3.7 11.1 -0.9 5.95 1.15 -3.9 -0.95 Q8.05 0.4 7.3 -3.75 2.75 -7.75 -4.0 -6.65 L-4.65 -6.5"/><path fill="#75750b" stroke="none" d="M10.5 5.4 Q21.6 1.25 7.35 9.15 1.9 8.4 -0.8 10.05 -6.8 5.75 -9.05 8.1 -11.9 3.3 -14.8 3.55 -13.55 1.0 -15.4 -0.05 L-11.3 -3.95 -4.3 1.35 10.5 5.4"/><path fill="#862f0b" stroke="none" d="M-4.8 -6.5 L-4.7 -6.5 -4.8 -6.5"/><path fill="#a53a0e" stroke="none" d="M-4.7 -6.5 L-4.75 -6.45 -4.75 -6.35 -4.8 -6.5 -4.7 -6.5"/><path fill="#f7f76d" stroke="none" d="M-4.65 -6.5 L-4.0 -6.65 Q2.75 -7.75 7.3 -3.75 8.05 0.4 -3.9 -0.95 L-4.75 -6.45 -4.7 -6.5 -4.65 -6.5"/><path fill="none" stroke="#000000" stroke-width="0.5" stroke-opacity="0.301960784314" d="M12.85 -3.7 L9.85 -7.65 Q7.95 -9.3 2.2 -10.0 -2.15 -9.55 -4.0 -7.45 L-4.65 -6.5 M-3.9 -0.95 L5.95 1.15 11.1 -0.9 12.85 -3.7 15.35 -0.4 10.5 5.4 Q21.6 1.25 7.35 9.15 1.9 8.4 -0.8 10.05 -6.8 5.75 -9.05 8.1 -11.9 3.3 -14.8 3.55 -13.55 1.0 -15.4 -0.05 L-11.3 -3.95 -6.9 -6.5 -4.8 -6.5 -4.7 -6.5 -4.65 -6.5 M-4.7 -6.5 L-4.75 -6.45 -3.9 -0.95 M-4.75 -6.45 L-4.75 -6.35 -4.8 -6.5 -4.7 -6.5"/><path fill="#cbc496" stroke="none" d="M7.2 -0.95 L8.55 -0.7 10.15 1.2 9.4 1.85 Q7.5 0.1 5.1 -0.4 L2.15 -0.4 7.2 -0.95"/><path fill="#a59f6b" stroke="none" d="M12.5 -0.55 L9.65 -0.65 7.05 -2.55 8.15 -4.2 15.4 -1.95 13.8 -0.5 12.5 -0.55 M-9.35 -8.85 L-9.3 -9.4 -8.2 -11.1 -5.25 -11.05 -3.15 -10.55 -0.95 -8.8 -2.55 -7.35 -3.85 -7.4 -6.05 -7.45 -6.8 -8.35 -9.35 -8.85"/><path fill="#88843d" stroke="none" d="M10.15 1.2 L8.55 -0.7 7.2 -0.95 7.05 -2.55 9.65 -0.65 12.5 -0.55 13.15 0.8 12.35 4.1 9.75 3.95 10.15 1.2 M-4.0 -2.75 L-4.65 -3.25 -5.55 -3.95 -5.2 -6.45 -6.05 -7.45 -3.85 -7.4 -3.2 -6.05 -4.0 -2.75"/><path fill="#ded6a5" stroke="none" d="M2.15 -0.4 L5.1 -0.4 Q7.5 0.1 9.4 1.85 L7.8 3.3 6.5 3.25 3.65 3.15 1.05 1.25 1.25 1.0 2.15 -0.4"/><path fill="#62621c" stroke="none" d="M12.35 4.1 L13.15 0.8 12.5 -0.55 13.8 -0.5 15.4 -1.95 16.15 -2.6 15.05 2.15 Q13.4 4.1 12.35 4.1 M-0.2 -9.45 Q-0.2 -6.65 -1.3 -4.7 -2.45 -2.75 -4.0 -2.75 L-3.2 -6.05 -3.85 -7.4 -2.55 -7.35 -0.95 -8.8 -0.2 -9.45"/><path fill="#979260" stroke="none" d="M8.15 -4.2 L11.3 -5.15 14.55 -4.5 16.15 -2.6 15.4 -1.95 8.15 -4.2 M-8.2 -11.1 L-5.05 -12.0 -1.8 -11.35 -0.2 -9.45 -0.95 -8.8 -3.15 -10.55 -5.25 -11.05 -8.2 -11.1"/><path fill="#84843a" stroke="none" d="M9.4 1.85 L10.15 1.2 9.75 3.95 Q9.75 5.05 8.75 6.75 7.3 7.9 6.35 7.9 L7.15 4.6 6.5 3.25 7.8 3.3 9.4 1.85"/><path fill="#b7b167" stroke="none" d="M6.5 3.25 L7.15 4.6 6.35 7.9 Q4.95 7.9 2.75 6.45 1.55 4.75 1.25 3.3 L1.25 3.2 1.05 1.25 3.65 3.15 6.5 3.25"/><path fill="#98985f" stroke="none" d="M1.05 1.25 L1.25 3.2 1.25 3.3 Q1.25 4.3 0.25 6.1 -1.3 7.4 -2.25 7.4 L-1.45 4.1 -2.1 2.75 -0.8 2.8 0.8 1.35 1.05 1.25 M-4.65 -1.45 L-6.65 -0.65 -5.25 -1.95 -4.65 -3.25 -4.65 -1.45 M-8.3 4.1 L-7.6 1.3 -7.1 3.8 -8.3 4.1 M-7.5 0.75 L-8.15 -0.55 -6.65 -0.65 -7.5 0.75"/><path fill="#eae2c8" stroke="none" d="M1.05 1.25 L0.8 1.35 -6.65 -0.65 -4.65 -1.45 -0.05 -1.2 1.05 1.25"/><path fill="#ded6bd" stroke="none" d="M-14.3 -6.4 L-13.4 -7.8 -13.2 -8.05 -11.7 -8.05 -10.35 -7.95 -9.1 -7.7 Q-7.35 -7.05 -5.95 -5.8 L-7.15 -4.7 -11.6 -4.5 -14.3 -6.4"/><path fill="#cbc4ae" stroke="none" d="M-13.2 -8.05 L-9.35 -8.85 -6.8 -8.35 -6.05 -7.45 -5.2 -6.45 -5.95 -5.8 Q-7.35 -7.05 -9.1 -7.7 L-10.35 -7.95 -11.7 -8.05 -13.2 -8.05"/><path fill="#d3cc92" stroke="none" d="M-2.1 2.75 L-1.45 4.1 -2.25 7.4 Q-4.25 7.4 -5.65 6.35 -7.1 5.3 -7.1 3.8 L-7.6 1.3 -8.3 4.1 -11.75 3.75 -13.65 -2.45 -13.6 -2.55 -11.0 -0.65 -8.15 -0.55 -7.5 0.75 -7.55 0.75 -4.95 2.65 -2.1 2.75 M-7.55 0.75 L-7.6 1.3 -7.55 0.75"/><path fill="#b7b17f" stroke="none" d="M-13.6 -2.55 L-13.65 -2.45 -14.3 -6.4 -11.6 -4.5 -12.5 -4.2 -12.7 -3.95 -13.6 -2.55"/><path fill="#ece5cd" stroke="none" d="M-12.5 -4.2 L-11.6 -4.5 -7.15 -4.7 -5.55 -3.95 -4.65 -3.25 -5.25 -1.95 -7.25 -3.55 -12.5 -4.2"/><path fill="#fff6d9" stroke="none" d="M-6.65 -0.65 L0.8 1.35 -0.8 2.8 -2.1 2.75 -4.95 2.65 -7.55 0.75 -7.5 0.75 -6.65 -0.65 -8.15 -0.55 -11.0 -0.65 -13.6 -2.55 -12.7 -3.95 -12.5 -4.2 -7.25 -3.55 -5.25 -1.95 -6.65 -0.65"/><path fill="#848452" stroke="none" d="M-5.95 -5.8 L-5.2 -6.45 -5.55 -3.95 -7.15 -4.7 -5.95 -5.8"/><path fill="none" stroke="#000000" stroke-width="0.5" stroke-opacity="0.301960784314" d="M10.15 1.2 L8.55 -0.7 7.2 -0.95 2.15 -0.4 M10.15 1.2 L9.75 3.95 12.35 4.1 M7.05 -2.55 L7.2 -0.95 M7.05 -2.55 L8.15 -4.2 11.3 -5.15 14.55 -4.5 16.15 -2.6 15.05 2.15 Q13.4 4.1 12.35 4.1 M6.35 7.9 Q7.3 7.9 8.75 6.75 9.75 5.05 9.75 3.95 M1.05 1.25 L1.25 3.2 1.25 3.3 Q1.55 4.75 2.75 6.45 4.95 7.9 6.35 7.9 M1.05 1.25 L1.25 1.0 2.15 -0.4 M1.05 1.25 L-0.05 -1.2 -4.65 -1.45 -6.65 -0.65 -7.5 0.75 M-2.25 7.4 Q-1.3 7.4 0.25 6.1 1.25 4.3 1.25 3.3 M-14.3 -6.4 L-13.4 -7.8 M-13.2 -8.05 L-9.35 -8.85 -9.3 -9.4 -8.2 -11.1 -5.05 -12.0 -1.8 -11.35 -0.2 -9.45 Q-0.2 -6.65 -1.3 -4.7 -2.45 -2.75 -4.0 -2.75 L-4.65 -3.25 -4.65 -1.45 M-5.2 -6.45 L-6.05 -7.45 -6.8 -8.35 -9.35 -8.85 M-13.6 -2.55 L-13.65 -2.45 -11.75 3.75 -8.3 4.1 M-7.6 1.3 L-7.55 0.75 -7.5 0.75 M-13.6 -2.55 L-12.7 -3.95 M-12.5 -4.2 L-11.6 -4.5 M-14.3 -6.4 L-13.65 -2.45 M-4.65 -3.25 L-5.55 -3.95 -7.15 -4.7 -11.6 -4.5 M-5.55 -3.95 L-5.2 -6.45 M-7.1 3.8 L-8.3 4.1 M-7.1 3.8 L-7.6 1.3 M-2.25 7.4 Q-4.25 7.4 -5.65 6.35 -7.1 5.3 -7.1 3.8"/></g><g id="c18"><g><use transform="matrix(1.0,0.0,0.0,1.0,0.0,0.0)" xlink:href="#c17"/></g></g><g id="c19"><path fill="#6a9480" stroke="none" d="M-7.65 -6.8 Q-6.05 -11.4 0.05 -8.7 3.9 -10.6 6.1 -8.7 8.4 -6.85 8.5 -5.2 12.45 -4.05 11.7 0.1 10.9 4.3 6.9 5.1 L6.7 5.7 Q3.8 7.1 3.2 4.6 -2.85 4.45 -2.5 -0.05 -9.7 -1.85 -7.65 -6.8"/><path fill="#102015" stroke="none" d="M-7.65 -6.8 Q-9.7 -1.85 -2.5 -0.05 -2.85 4.45 3.2 4.6 3.8 7.1 6.7 5.7 3.9 11.8 -3.4 7.2 -7.35 7.45 -8.9 5.7 -10.3 4.2 -10.0 0.95 -12.55 -2.5 -10.35 -5.0 -9.35 -6.15 -7.65 -6.8 M-2.95 0.7 L-2.9 0.65 -2.95 0.6 -2.95 0.7"/><path fill="#e2d9b6" stroke="none" d="M-2.95 0.7 L-2.95 0.6 -2.9 0.65 -2.95 0.7"/><path fill="none" stroke="#000000" stroke-width="0.5" stroke-opacity="0.301960784314" d="M6.7 5.7 L6.9 5.1 Q10.9 4.3 11.7 0.1 12.45 -4.05 8.5 -5.2 8.4 -6.85 6.1 -8.7 3.9 -10.6 0.05 -8.7 -6.05 -11.4 -7.65 -6.8 M6.7 5.7 Q3.9 11.8 -3.4 7.2 -7.35 7.45 -8.9 5.7 -10.3 4.2 -10.0 0.95 -12.55 -2.5 -10.35 -5.0 -9.35 -6.15 -7.65 -6.8"/></g><g id="c20"><g><use transform="matrix(1.0,0.0,0.0,1.0,0.0,0.0)" xlink:href="#c19"/></g></g><radialGradient gradientUnits="userSpaceOnUse" r="819.2" cx="0" cy="0" fx="-115.2" fy="0" spreadMethod="pad" gradientTransform="matrix(0.0378112792969,0.0109100341797,-0.0324249267578,0.0367736816406,-1.1,-5.35)" id="gradient2"><stop offset="0.117647058824" stop-color="#ffffff" stop-opacity="0.721568627451"/><stop offset="0.176470588235" stop-color="#ffffff" stop-opacity="0.501960784314"/><stop offset="0.564705882353" stop-color="#ffffff" stop-opacity="0.0"/></radialGradient><g id="c21"><path fill="#6a9480" stroke="none" d="M-14.05 12.5 L-14.2 12.4 Q-16.55 11.3 -17.2 10.2 -17.75 9.2 -17.9 8.15 -18.8 7.95 -19.95 6.8 -21.45 5.4 -21.45 3.3 -21.45 1.3 -19.95 -0.2 L-19.0 -1.1 -19.2 -4.6 Q-18.55 -7.0 -16.4 -8.2 L-14.45 -8.95 Q-14.4 -10.3 -13.7 -11.55 -12.7 -13.4 -11.35 -14.0 L-6.25 -14.2 Q-5.5 -15.9 -3.85 -16.85 -1.7 -18.1 0.8 -17.45 2.5 -17.0 3.65 -15.7 L3.75 -15.75 Q5.9 -17.0 8.35 -16.4 10.45 -15.8 11.65 -14.05 L12.25 -12.9 12.8 -11.3 15.2 -10.95 Q15.85 -10.8 16.95 -9.85 17.95 -8.9 18.25 -7.4 18.55 -6.1 17.0 -4.1 15.45 -2.1 11.4 -1.5 12.35 2.3 11.9 3.6 L10.45 6.4 Q7.0 8.85 5.0 8.85 2.25 9.05 0.75 8.2 0.5 10.5 -1.7 12.5 -3.85 14.5 -5.95 14.55 -8.05 14.6 -10.7 13.75 L-14.05 12.5"/><path fill="#102015" stroke="none" d="M18.25 -7.4 Q18.5 -6.85 18.3 -4.45 18.2 -2.5 17.95 -2.05 19.1 1.55 18.55 3.1 17.75 5.5 15.5 6.65 L13.65 7.2 Q13.9 8.7 13.4 10.2 12.55 12.6 10.35 13.75 L5.55 14.15 Q4.9 16.6 2.75 17.85 0.6 19.1 -1.8 18.45 -3.45 18.0 -4.55 16.95 L-5.25 17.45 Q-7.4 18.7 -10.6 17.75 -13.75 16.75 -14.05 12.5 L-10.7 13.75 Q-8.05 14.6 -5.95 14.55 -3.85 14.5 -1.7 12.5 0.5 10.5 0.75 8.2 2.25 9.05 5.0 8.85 7.0 8.85 10.45 6.4 L11.9 3.6 Q12.35 2.3 11.4 -1.5 15.45 -2.1 17.0 -4.1 18.55 -6.1 18.25 -7.4"/><path fill="none" stroke="#000000" stroke-width="0.5" stroke-opacity="0.301960784314" d="M-14.05 12.5 L-14.2 12.4 Q-16.55 11.3 -17.2 10.2 -17.75 9.2 -17.9 8.15 -18.8 7.95 -19.95 6.8 -21.45 5.4 -21.45 3.3 -21.45 1.3 -19.95 -0.2 L-19.0 -1.1 -19.2 -4.6 Q-18.55 -7.0 -16.4 -8.2 L-14.45 -8.95 Q-14.4 -10.3 -13.7 -11.55 -12.7 -13.4 -11.35 -14.0 L-6.25 -14.2 Q-5.5 -15.9 -3.85 -16.85 -1.7 -18.1 0.8 -17.45 2.5 -17.0 3.65 -15.7 L3.75 -15.75 Q5.9 -17.0 8.35 -16.4 10.45 -15.8 11.65 -14.05 L12.25 -12.9 12.8 -11.3 15.2 -10.95 Q15.85 -10.8 16.95 -9.85 17.95 -8.9 18.25 -7.4 18.5 -6.85 18.3 -4.45 18.2 -2.5 17.95 -2.05 19.1 1.55 18.55 3.1 17.75 5.5 15.5 6.65 L13.65 7.2 Q13.9 8.7 13.4 10.2 12.55 12.6 10.35 13.75 L5.55 14.15 Q4.9 16.6 2.75 17.85 0.6 19.1 -1.8 18.45 -3.45 18.0 -4.55 16.95 L-5.25 17.45 Q-7.4 18.7 -10.6 17.75 -13.75 16.75 -14.05 12.5"/><path stroke="none" fill="url(#gradient2)" d="M24.45 -12.95 Q26.3 -6.2 20.15 0.85 13.9 7.95 3.3 11.05 -7.4 14.25 -16.2 11.7 -25.15 9.15 -26.95 2.35 -28.85 -4.45 -22.55 -11.5 -16.4 -18.6 -5.8 -21.7 5.0 -24.95 13.95 -22.4 22.75 -19.85 24.45 -12.95"/></g><g id="c22"><g><use transform="matrix(1.0,0.0,0.0,1.0,0.0,0.0)" xlink:href="#c21"/></g></g><g id="c23"><path fill="#102015" stroke="none" d="M2.45 -9.5 L3.2 -7.15 2.75 -6.75 Q1.5 -7.95 -1.35 -8.6 -5.8 -6.9 -6.5 -3.45 L-6.55 -3.2 Q-6.75 -2.1 -6.55 -0.8 L-5.05 0.8 Q-3.6 2.25 -0.45 3.0 3.2 3.05 5.25 1.6 7.4 3.5 4.8 6.1 L4.8 6.4 4.7 7.1 Q4.1 9.65 -0.6 10.55 -0.55 8.65 -0.85 7.1 -1.65 3.15 -4.95 1.65 -9.55 -0.5 -7.75 -3.05 -5.95 -5.65 -4.6 -10.55 -2.35 -8.65 2.45 -9.5"/><path fill="#d7ffff" stroke="none" d="M10.45 -2.8 Q10.25 0.5 8.35 2.25 L7.8 2.7 Q5.7 4.15 2.1 4.1 -3.1 2.8 -5.05 0.8 L-6.55 -0.8 -6.6 -2.4 -6.5 -3.45 Q-5.8 -6.9 -1.35 -8.6 L1.55 -7.6 Q4.2 -6.55 5.05 -5.85 L5.25 -5.7 Q1.75 -7.15 -2.0 -7.0 -3.45 -5.9 -3.55 -3.4 -3.7 -1.05 -2.7 -0.6 L2.35 1.05 3.6 1.05 Q9.5 0.85 8.65 -6.65 10.45 -5.1 10.45 -2.8"/><path fill="#fcffff" stroke="none" d="M3.95 -4.35 L5.25 -5.7 3.95 -4.35 M5.25 -5.7 L6.6 -6.65 Q7.55 -7.25 8.15 -7.0 L8.65 -6.65 Q9.5 0.85 3.6 1.05 L2.35 1.05 -2.7 -0.6 Q-3.7 -1.05 -3.55 -3.4 -3.45 -5.9 -2.0 -7.0 1.75 -7.15 5.25 -5.7"/><path fill="none" stroke="#000000" stroke-width="0.5" stroke-opacity="0.301960784314" d="M10.45 -2.8 Q10.25 0.5 8.35 2.25 L7.8 2.7 Q5.7 4.15 2.1 4.1 -3.1 2.8 -5.05 0.8 L-6.55 -0.8 -6.6 -2.4 -6.5 -3.45 Q-5.8 -6.9 -1.35 -8.6 L1.55 -7.6 Q4.2 -6.55 5.05 -5.85 L5.25 -5.7 M6.6 -6.65 Q7.55 -7.25 8.15 -7.0 L8.65 -6.65"/><path fill="none" stroke="#000000" stroke-width="0.5" stroke-opacity="0.301960784314" d="M5.25 -5.7 L3.95 -4.35 M5.25 -5.7 L6.6 -6.65"/><path fill="none" stroke="#000000" stroke-width="0.5" stroke-opacity="0.301960784314" d="M8.65 -6.65 Q10.45 -5.1 10.45 -2.8"/><path fill="none" stroke="#000000" stroke-width="0.5" stroke-opacity="0.301960784314" d="M6.6 -5.6 L5.6 -4.75 M-3.2 -5.9 L-0.25 -4.5"/></g><g id="c24"><g><use transform="matrix(1.0,0.0,0.0,1.0,0.0,0.0)" xlink:href="#c23"/></g></g><g id="c25"><g><use transform="matrix(-1.34774780273,0.0,0.0,0.673889160156,0.65,-1.8)" filter="url(#filter15)" xlink:href="#c10"/></g><g><use transform="matrix(-0.5,0.0,0.0,0.5,11.6,-19.7)" xlink:href="#c12"/></g><g><use transform="matrix(-0.737518310547,0.0,0.0,0.737533569336,14.75,-13.55)" xlink:href="#c8"/></g><g><use transform="matrix(-0.611282348633,0.0616455078125,0.0616455078125,0.611297607422,9.6,-3.45)" xlink:href="#c14"/></g><g><use transform="matrix(-0.614593505859,0.0,0.0194549560547,0.614608764648,1.9,-6.75)" xlink:href="#c14"/></g><g><use transform="matrix(-0.612701416016,0.0461120605469,0.0461120605469,0.612716674805,0.05,0.65)" xlink:href="#c14"/></g><g><use transform="matrix(-0.614593505859,0.0,0.0194549560547,0.614608764648,-8.45,-3.4)" xlink:href="#c14"/></g><g><use transform="matrix(-0.647613525391,-0.120208740234,-0.120208740234,0.647613525391,1.5,-9.6)" xlink:href="#c16"/></g><g><use transform="matrix(-0.5,0.0,0.0,0.5,3.7,-5.2)" xlink:href="#c18"/></g><g><use transform="matrix(0.5,0.0,0.0,0.5,-8.8,-22.2)" xlink:href="#c20"/></g><g><use transform="matrix(-0.737518310547,0.0,0.0,0.737533569336,1.0,-11.7)" xlink:href="#c22"/></g><g><use transform="matrix(-0.704849243164,0.0,0.0,0.664596557617,1.05,-7.7)" xlink:href="#c4"/></g><g><use transform="matrix(-0.5,0.0,0.0,0.5,-6.35,-9.2)" xlink:href="#c24"/></g></g><filter id="filter15"><feColorMatrix in="SourceGraphic" type="matrix" values="1.0 0.0 0.0 0.0 0.0 0.0 1.0 0.0 0.0 0.0 0.0 0.0 1.0 0.0 0.0 0.0 0.0 0.0 0.5 0.0" result="cxform"/><feComposite operator="in" in2="SourceGraphic" result="color-xform"/></filter><g id="c26"><path fill="#000000" fill-opacity="0.00392156862745" d="M0.0 0.0 L60.0 0.0 60.0 60.0 0.0 60.0 0.0 0.0"/></g><g id="c27"><path fill="none" stroke="#000000" stroke-width="1.0" stroke-opacity="0.301960784314" d="M22.3 0.35 Q26.6 -1.0 28.5 3.05 L41.4 31.7 Q43.1 35.4 39.9 36.85 L38.15 37.65 19.65 43.65 Q17.05 44.5 15.35 43.3 14.2 42.55 13.5 40.9 L0.55 12.25 Q-0.6 9.75 0.6 8.25 1.15 7.55 2.2 7.05 2.85 6.6 3.8 6.3 L22.3 0.35"/><path fill="#300525" stroke="none" d="M25.55 0.9 Q26.9 1.6 27.8 3.55 L40.7 32.15 Q42.6 36.3 38.3 37.65 L23.3 42.5 13.15 21.4 4.6 20.9 0.7 12.25 Q-0.45 9.75 0.75 8.25 L29.8 9.75 25.55 0.9 M20.1 43.55 L19.8 43.65 Q17.15 44.45 15.5 43.3 L20.1 43.55"/><path fill="#630a4c" stroke="none" d="M23.3 42.5 L20.1 43.55 15.5 43.3 Q14.35 42.55 13.65 40.9 L4.6 20.9 13.15 21.4 23.3 42.5 M0.75 8.25 Q1.45 7.3 3.1 6.75 L21.65 0.8 25.55 0.9 29.8 9.75 0.75 8.25"/><path fill="none" stroke="#000000" stroke-width="0.5" stroke-opacity="0.301960784314" d="M25.55 0.9 Q26.9 1.6 27.8 3.55 L40.7 32.15 Q42.6 36.3 38.3 37.65 L23.3 42.5 20.1 43.55 19.8 43.65 Q17.15 44.45 15.5 43.3 14.35 42.55 13.65 40.9 L4.6 20.9 0.7 12.25 Q-0.45 9.75 0.75 8.25 1.45 7.3 3.1 6.75 L21.65 0.8 25.55 0.9"/><path fill="#9d147b" stroke="none" d="M14.2 40.5 L1.35 11.8 Q-0.5 7.75 3.8 6.35 L22.3 0.4 Q26.55 -1.0 28.45 3.1 L41.35 31.7 Q43.25 35.85 38.9 37.25 L20.4 43.2 Q16.1 44.55 14.2 40.5"/><path fill="none" stroke="#000000" stroke-width="0.5" stroke-opacity="0.301960784314" d="M14.2 40.5 L1.35 11.8 Q-0.5 7.75 3.8 6.35 L22.3 0.4 Q26.55 -1.0 28.45 3.1 L41.35 31.7 Q43.25 35.85 38.9 37.25 L20.4 43.2 Q16.1 44.55 14.2 40.5"/><path fill="#fcf2cf" stroke="none" d="M9.15 13.6 Q9.8 12.8 9.55 11.6 L9.1 10.55 22.05 6.35 Q24.9 5.45 26.25 7.85 L26.5 8.3 35.8 29.0 35.95 29.35 Q34.75 29.3 34.1 30.1 33.45 30.9 33.7 32.1 L34.0 32.9 20.65 37.2 Q18.8 37.8 17.65 37.0 16.8 36.4 16.3 35.2 L6.95 14.6 6.8 14.4 7.1 14.4 Q8.4 14.45 9.15 13.6"/><path fill="#c47fad" stroke="none" d="M8.25 23.65 L3.35 12.8 Q1.65 9.1 5.5 7.85 L22.25 2.5 Q26.05 1.25 27.75 4.95 L28.25 6.1 35.55 22.3 39.35 30.75 Q41.1 34.5 37.2 35.7 L20.45 41.1 Q16.8 42.25 15.2 39.0 L15.0 38.6 8.25 23.65 M9.15 13.6 Q8.4 14.45 7.1 14.4 L6.8 14.4 6.95 14.6 16.3 35.2 Q16.8 36.4 17.65 37.0 18.8 37.8 20.65 37.2 L34.0 32.9 33.7 32.1 Q33.45 30.9 34.1 30.1 34.75 29.3 35.95 29.35 L35.8 29.0 26.5 8.3 26.25 7.85 Q24.9 5.45 22.05 6.35 L9.1 10.55 9.55 11.6 Q9.8 12.8 9.15 13.6"/><path fill="none" stroke="#ffcc00" stroke-width="1.0" stroke-opacity="0.749019607843" d="M8.25 23.65 L3.35 12.8 Q1.65 9.1 5.5 7.85 L22.25 2.5 Q26.05 1.25 27.75 4.95 L28.25 6.1 M35.55 22.3 L39.35 30.75 Q41.1 34.5 37.2 35.7 L20.45 41.1 Q16.8 42.25 15.2 39.0 L15.0 38.6"/><path fill="none" stroke="#bf9900" stroke-width="1.0" stroke-opacity="0.749019607843" d="M28.25 6.1 L35.55 22.3 M15.0 38.6 L8.25 23.65"/><path fill="none" stroke="#f0b92b" stroke-width="0.5" d="M9.15 13.6 Q9.8 12.8 9.55 11.6 L9.1 10.55 22.05 6.35 Q24.9 5.45 26.25 7.85 L26.5 8.3 35.8 29.0 35.95 29.35 Q34.75 29.3 34.1 30.1 33.45 30.9 33.7 32.1 L34.0 32.9 20.65 37.2 Q18.8 37.8 17.65 37.0 16.8 36.4 16.3 35.2 L6.95 14.6 6.8 14.4 7.1 14.4 Q8.4 14.45 9.15 13.6"/></g><g id="c28"><path fill="#7fdbfe" stroke="none" d="M10.75 4.9 Q10.75 4.6 10.9 4.35 11.25 3.45 11.95 2.75 13.3 1.5 14.35 2.1 15.4 2.7 14.95 4.45 14.7 5.4 14.1 6.15 L13.75 6.5 Q13.1 7.15 12.35 7.35 L11.4 7.2 Q10.95 6.9 10.75 6.4 10.5 5.75 10.75 4.9 M7.5 5.9 Q7.0 5.85 6.6 5.5 6.05 5.0 5.8 4.15 L5.7 3.6 Q5.55 2.65 5.8 1.7 6.25 0.0 7.5 0.0 L7.6 0.0 Q8.85 0.0 9.3 1.7 9.55 2.65 9.4 3.6 L9.3 4.15 8.5 5.5 7.6 5.9 7.5 5.9 M4.35 4.9 Q4.6 5.75 4.35 6.4 L3.7 7.2 2.75 7.35 Q2.0 7.15 1.35 6.5 L1.0 6.15 Q0.4 5.4 0.15 4.45 -0.3 2.7 0.75 2.1 1.8 1.5 3.15 2.75 3.85 3.45 4.2 4.35 L4.35 4.9 M5.5 13.7 Q4.45 13.9 3.65 12.95 2.75 12.0 3.2 10.25 3.7 8.5 5.25 7.6 6.4 6.9 7.55 7.0 8.75 6.9 9.9 7.6 11.45 8.5 11.95 10.25 12.35 12.0 11.5 12.95 10.7 13.9 9.65 13.7 8.55 13.5 7.55 12.6 6.55 13.5 5.5 13.7"/></g><g id="c29"><g><use transform="matrix(1.0,0.0,0.0,1.0,0.0,0.0)" xlink:href="#c28"/></g></g><radialGradient gradientUnits="userSpaceOnUse" r="819.2" cx="0" cy="0" spreadMethod="pad" gradientTransform="matrix(0.0914459228516,0.0,0.0,0.0914459228516,0.6,3.4)" id="gradient3"><stop offset="0.0" stop-color="#ffffff"/><stop offset="1.0" stop-color="#ffffff" stop-opacity="0.0"/></radialGradient><g id="c30"><path stroke="none" fill="url(#gradient3)" d="M36.65 -54.65 Q60.05 -42.0 69.75 -17.95 80.55 8.9 68.0 34.1 55.45 59.35 26.8 68.2 -1.8 77.05 -29.7 64.3 -57.6 51.6 -68.45 24.75 -79.3 -2.05 -66.75 -27.25 L-66.7 -27.3 Q-54.1 -52.5 -25.5 -61.4 3.1 -70.2 31.0 -57.5 L36.65 -54.65"/></g><g id="c31"><g><use transform="matrix(1.0,0.0,0.0,1.0,0.0,0.0)" xlink:href="#c30"/></g></g><radialGradient gradientUnits="userSpaceOnUse" r="819.2" cx="0" cy="0" spreadMethod="pad" gradientTransform="matrix(0.209197998047,0.0,0.0,0.177108764648,67.15,107.2)" id="gradient4"><stop offset="0.356862745098" stop-color="#ffffff"/><stop offset="0.670588235294" stop-opacity="0.0"/></radialGradient><g id="c32"><path fill="none" stroke-linejoin="round" stroke-linecap="round" stroke="url(#gradient4)" stroke-width="0.5" d="M136.55 165.8 L68.6 106.0 68.4 106.0 118.25 201.5 M68.2 105.7 L68.25 105.8 68.25 105.75 68.2 105.7 0.0 45.7 M68.25 105.8 L68.3 105.85 68.3 105.8 68.25 105.75 49.95 0.05 M0.05 97.7 L68.15 105.95 68.25 105.85 68.25 105.8 M68.3 105.85 L68.25 105.85 68.3 106.0 68.3 105.85 68.3 105.8 68.35 105.8 68.3 105.8 86.6 18.35 M50.0 193.2 L68.3 106.0 68.15 105.95 18.25 151.55 M68.4 106.0 L68.3 106.0 86.55 211.5 M68.4 106.0 L68.3 105.85 M68.6 106.0 L68.35 105.8 118.25 60.15 M136.6 114.25 L68.6 106.0 M68.2 105.7 L18.25 10.05"/></g><g id="c33"><g><use transform="matrix(1.0,0.0,0.0,1.0,0.0,0.0)" xlink:href="#c32"/></g></g><g id="c34"><g><use transform="matrix(1.0,0.0,0.0,1.0,0.0,0.0)" xlink:href="#c27"/></g><g><use transform="matrix(0.238861083984,-0.0867004394531,0.10026550293,0.233917236328,34.25,31.15)" xlink:href="#c29"/></g><g><use transform="matrix(0.238861083984,-0.0867004394531,0.10026550293,0.233917236328,4.25,10.3)" xlink:href="#c29"/></g><g><use transform="matrix(0.141098022461,-0.0378112792969,0.111373901367,0.225646972656,20.25,20.65)" filter="url(#filter34)" xlink:href="#c31"/></g><g><use transform="matrix(-0.155029296875,0.0513153076172,0.0841827392578,0.147033691406,22.6,2.3)" filter="url(#filter35)" xlink:href="#c33"/></g><g><use transform="matrix(0.457962036133,-0.198944091797,0.198944091797,0.457962036133,22.8,27.6)" xlink:href="#c25"/></g><g><use transform="matrix(0.162948608398,-0.0436706542969,0.128631591797,0.260604858398,20.35,20.95)" filter="url(#filter37)" xlink:href="#c31"/></g></g><filter id="filter34"><feColorMatrix in="SourceGraphic" type="matrix" values="0.0 0.0 0.0 0.0 0.796875 0.0 0.0 0.0 0.0 0.59765625 0.0 0.0 0.0 0.0 0.19921875 0.0 0.0 0.0 1.0 0.0" result="cxform"/><feComposite operator="in" in2="SourceGraphic" result="color-xform"/></filter><filter id="filter35"><feColorMatrix in="SourceGraphic" type="matrix" values="0.0 0.0 0.0 0.0 0.99609375 0.0 0.0 0.0 0.0 0.99609375 0.0 0.0 0.0 0.0 0.99609375 0.0 0.0 0.0 1.0 0.0" result="cxform"/><feComposite operator="in" in2="SourceGraphic" result="color-xform"/></filter><filter id="filter37"><feColorMatrix in="SourceGraphic" type="matrix" values="1.0 0.0 0.0 0.0 0.0 0.0 1.0 0.0 0.0 0.0 0.0 0.0 1.0 0.0 0.0 0.0 0.0 0.0 0.23046875 0.0" result="cxform"/><feComposite operator="in" in2="SourceGraphic" result="color-xform"/></filter></defs><g><g><use transform="matrix(1.0,0.0,0.0,1.0,0.0,0.0)" xlink:href="#c26"/></g><g><use transform="matrix(1.15496826172,0.0,0.0,1.15496826172,5.85,3.95)" xlink:href="#c34"/></g></g></svg>