<?xml version='1.0' encoding='UTF-8'?>
<svg xmlns:xlink="http://www.w3.org/1999/xlink" xmlns="http://www.w3.org/2000/svg" version="1.1" width="60px" height="60px" viewBox="0.0 0.0 60.0 60.0"><defs><g id="c1"><path fill="#000000" fill-opacity="0.00392156862745" d="M0.0 0.0 L60.0 0.0 60.0 60.0 0.0 60.0 0.0 0.0"/></g><g id="c2"><path fill="none" stroke="#000000" stroke-width="1.0" stroke-opacity="0.301960784314" d="M22.3 0.35 Q26.6 -1.0 28.5 3.05 L41.4 31.7 Q43.1 35.4 39.9 36.85 L38.15 37.65 19.65 43.65 Q17.05 44.5 15.35 43.3 14.2 42.55 13.5 40.9 L0.55 12.25 Q-0.6 9.75 0.6 8.25 1.15 7.55 2.2 7.05 2.85 6.6 3.8 6.3 L22.3 0.35"/><path fill="#300525" stroke="none" d="M25.55 0.9 Q26.9 1.6 27.8 3.55 L40.7 32.15 Q42.6 36.3 38.3 37.65 L23.3 42.5 13.15 21.4 4.6 20.9 0.7 12.25 Q-0.45 9.75 0.75 8.25 L29.8 9.75 25.55 0.9 M20.1 43.55 L19.8 43.65 Q17.15 44.45 15.5 43.3 L20.1 43.55"/><path fill="#630a4c" stroke="none" d="M23.3 42.5 L20.1 43.55 15.5 43.3 Q14.35 42.55 13.65 40.9 L4.6 20.9 13.15 21.4 23.3 42.5 M0.75 8.25 Q1.45 7.3 3.1 6.75 L21.65 0.8 25.55 0.9 29.8 9.75 0.75 8.25"/><path fill="none" stroke="#000000" stroke-width="0.5" stroke-opacity="0.301960784314" d="M25.55 0.9 Q26.9 1.6 27.8 3.55 L40.7 32.15 Q42.6 36.3 38.3 37.65 L23.3 42.5 20.1 43.55 19.8 43.65 Q17.15 44.45 15.5 43.3 14.35 42.55 13.65 40.9 L4.6 20.9 0.7 12.25 Q-0.45 9.75 0.75 8.25 1.45 7.3 3.1 6.75 L21.65 0.8 25.55 0.9"/><path fill="#9d147b" stroke="none" d="M14.2 40.5 L1.35 11.8 Q-0.5 7.75 3.8 6.35 L22.3 0.4 Q26.55 -1.0 28.45 3.1 L41.35 31.7 Q43.25 35.85 38.9 37.25 L20.4 43.2 Q16.1 44.55 14.2 40.5"/><path fill="none" stroke="#000000" stroke-width="0.5" stroke-opacity="0.301960784314" d="M14.2 40.5 L1.35 11.8 Q-0.5 7.75 3.8 6.35 L22.3 0.4 Q26.55 -1.0 28.45 3.1 L41.35 31.7 Q43.25 35.85 38.9 37.25 L20.4 43.2 Q16.1 44.55 14.2 40.5"/><path fill="#fcf2cf" stroke="none" d="M9.15 13.6 Q9.8 12.8 9.55 11.6 L9.1 10.55 22.05 6.35 Q24.9 5.45 26.25 7.85 L26.5 8.3 35.8 29.0 35.95 29.35 Q34.75 29.3 34.1 30.1 33.45 30.9 33.7 32.1 L34.0 32.9 20.65 37.2 Q18.8 37.8 17.65 37.0 16.8 36.4 16.3 35.2 L6.95 14.6 6.8 14.4 7.1 14.4 Q8.4 14.45 9.15 13.6"/><path fill="#c47fad" stroke="none" d="M8.25 23.65 L3.35 12.8 Q1.65 9.1 5.5 7.85 L22.25 2.5 Q26.05 1.25 27.75 4.95 L28.25 6.1 35.55 22.3 39.35 30.75 Q41.1 34.5 37.2 35.7 L20.45 41.1 Q16.8 42.25 15.2 39.0 L15.0 38.6 8.25 23.65 M9.15 13.6 Q8.4 14.45 7.1 14.4 L6.8 14.4 6.95 14.6 16.3 35.2 Q16.8 36.4 17.65 37.0 18.8 37.8 20.65 37.2 L34.0 32.9 33.7 32.1 Q33.45 30.9 34.1 30.1 34.75 29.3 35.95 29.35 L35.8 29.0 26.5 8.3 26.25 7.85 Q24.9 5.45 22.05 6.35 L9.1 10.55 9.55 11.6 Q9.8 12.8 9.15 13.6"/><path fill="none" stroke="#ffcc00" stroke-width="1.0" stroke-opacity="0.749019607843" d="M8.25 23.65 L3.35 12.8 Q1.65 9.1 5.5 7.85 L22.25 2.5 Q26.05 1.25 27.75 4.95 L28.25 6.1 M35.55 22.3 L39.35 30.75 Q41.1 34.5 37.2 35.7 L20.45 41.1 Q16.8 42.25 15.2 39.0 L15.0 38.6"/><path fill="none" stroke="#bf9900" stroke-width="1.0" stroke-opacity="0.749019607843" d="M28.25 6.1 L35.55 22.3 M15.0 38.6 L8.25 23.65"/><path fill="none" stroke="#f0b92b" stroke-width="0.5" d="M9.15 13.6 Q9.8 12.8 9.55 11.6 L9.1 10.55 22.05 6.35 Q24.9 5.45 26.25 7.85 L26.5 8.3 35.8 29.0 35.95 29.35 Q34.75 29.3 34.1 30.1 33.45 30.9 33.7 32.1 L34.0 32.9 20.65 37.2 Q18.8 37.8 17.65 37.0 16.8 36.4 16.3 35.2 L6.95 14.6 6.8 14.4 7.1 14.4 Q8.4 14.45 9.15 13.6"/></g><g id="c3"><path fill="#7fdbfe" stroke="none" d="M10.75 4.9 Q10.75 4.6 10.9 4.35 11.25 3.45 11.95 2.75 13.3 1.5 14.35 2.1 15.4 2.7 14.95 4.45 14.7 5.4 14.1 6.15 L13.75 6.5 Q13.1 7.15 12.35 7.35 L11.4 7.2 Q10.95 6.9 10.75 6.4 10.5 5.75 10.75 4.9 M7.5 5.9 Q7.0 5.85 6.6 5.5 6.05 5.0 5.8 4.15 L5.7 3.6 Q5.55 2.65 5.8 1.7 6.25 0.0 7.5 0.0 L7.6 0.0 Q8.85 0.0 9.3 1.7 9.55 2.65 9.4 3.6 L9.3 4.15 8.5 5.5 7.6 5.9 7.5 5.9 M4.35 4.9 Q4.6 5.75 4.35 6.4 L3.7 7.2 2.75 7.35 Q2.0 7.15 1.35 6.5 L1.0 6.15 Q0.4 5.4 0.15 4.45 -0.3 2.7 0.75 2.1 1.8 1.5 3.15 2.75 3.85 3.45 4.2 4.35 L4.35 4.9 M5.5 13.7 Q4.45 13.9 3.65 12.95 2.75 12.0 3.2 10.25 3.7 8.5 5.25 7.6 6.4 6.9 7.55 7.0 8.75 6.9 9.9 7.6 11.45 8.5 11.95 10.25 12.35 12.0 11.5 12.95 10.7 13.9 9.65 13.7 8.55 13.5 7.55 12.6 6.55 13.5 5.5 13.7"/></g><g id="c4"><g><use transform="matrix(1.0,0.0,0.0,1.0,0.0,0.0)" xlink:href="#c3"/></g></g><radialGradient gradientUnits="userSpaceOnUse" r="819.2" cx="0" cy="0" spreadMethod="pad" gradientTransform="matrix(0.0914459228516,0.0,0.0,0.0914459228516,0.6,3.4)" id="gradient1"><stop offset="0.0" stop-color="#ffffff"/><stop offset="1.0" stop-color="#ffffff" stop-opacity="0.0"/></radialGradient><g id="c5"><path stroke="none" fill="url(#gradient1)" d="M36.65 -54.65 Q60.05 -42.0 69.75 -17.95 80.55 8.9 68.0 34.1 55.45 59.35 26.8 68.2 -1.8 77.05 -29.7 64.3 -57.6 51.6 -68.45 24.75 -79.3 -2.05 -66.75 -27.25 L-66.7 -27.3 Q-54.1 -52.5 -25.5 -61.4 3.1 -70.2 31.0 -57.5 L36.65 -54.65"/></g><g id="c6"><g><use transform="matrix(1.0,0.0,0.0,1.0,0.0,0.0)" xlink:href="#c5"/></g></g><radialGradient gradientUnits="userSpaceOnUse" r="819.2" cx="0" cy="0" spreadMethod="pad" gradientTransform="matrix(0.209197998047,0.0,0.0,0.177108764648,67.15,107.2)" id="gradient2"><stop offset="0.356862745098" stop-color="#ffffff"/><stop offset="0.670588235294" stop-opacity="0.0"/></radialGradient><g id="c7"><path fill="none" stroke-linejoin="round" stroke-linecap="round" stroke="url(#gradient2)" stroke-width="0.5" d="M136.55 165.8 L68.6 106.0 68.4 106.0 118.25 201.5 M68.2 105.7 L68.25 105.8 68.25 105.75 68.2 105.7 0.0 45.7 M68.25 105.8 L68.3 105.85 68.3 105.8 68.25 105.75 49.95 0.05 M0.05 97.7 L68.15 105.95 68.25 105.85 68.25 105.8 M68.3 105.85 L68.25 105.85 68.3 106.0 68.3 105.85 68.3 105.8 68.35 105.8 68.3 105.8 86.6 18.35 M50.0 193.2 L68.3 106.0 68.15 105.95 18.25 151.55 M68.4 106.0 L68.3 106.0 86.55 211.5 M68.4 106.0 L68.3 105.85 M68.6 106.0 L68.35 105.8 118.25 60.15 M136.6 114.25 L68.6 106.0 M68.2 105.7 L18.25 10.05"/></g><g id="c8"><g><use transform="matrix(1.0,0.0,0.0,1.0,0.0,0.0)" xlink:href="#c7"/></g></g><g id="c9"><path fill="#c4764a" stroke="none" d="M15.8 26.65 Q16.1 23.35 15.65 16.0 L15.75 12.85 15.95 16.1 16.25 26.5 Q21.4 26.75 26.35 26.3 L28.95 26.1 27.6 26.5 16.25 26.7 15.8 26.65 M15.95 25.85 L15.85 16.2 15.95 25.85 M16.25 26.5 L16.25 26.7 16.25 26.5"/><path fill="none" stroke="#000000" stroke-width="0.5" stroke-opacity="0.2" d="M15.8 26.65 Q16.1 23.35 15.65 16.0 L15.75 12.85 15.95 16.1 16.25 26.5 Q21.4 26.75 26.35 26.3 L28.95 26.1 27.6 26.5 28.4 26.5 28.1 26.6 M15.85 16.2 L15.95 25.85 M15.8 26.65 L16.25 26.7 16.25 26.5 M15.65 26.65 L15.8 26.65 15.8 27.25 M28.4 26.5 L27.65 26.65 M16.25 26.7 L27.6 26.5 M16.25 26.7 L16.3 27.1"/><path fill="#fffcde" stroke="none" d="M23.4 18.25 L22.65 17.4 22.9 17.25 25.4 19.3 25.3 19.45 23.4 18.25"/><path fill="#ccc9b1" stroke="none" d="M25.1 19.8 L23.6 18.5 23.25 18.1 23.4 18.25 25.3 19.45 25.1 19.8 M23.6 18.5 L23.4 18.25 23.6 18.5"/><path fill="#ebe8cc" stroke="none" d="M23.2 18.5 L23.1 18.4 22.35 17.6 22.65 17.4 23.4 18.25 23.25 18.1 23.6 18.5 25.1 19.8 25.0 19.9 23.2 18.5"/><path fill="#a6a490" stroke="none" d="M24.85 20.05 L23.2 18.5 25.0 19.9 24.85 20.05 M22.15 18.1 L23.05 18.8 24.55 20.3 24.35 20.4 23.2 19.2 22.1 18.25 22.15 18.1"/><path fill="#8a8878" stroke="none" d="M24.85 20.05 L24.55 20.3 23.05 18.8 22.15 18.1 22.35 17.55 22.35 17.6 23.1 18.4 23.2 18.5 24.85 20.05"/><path fill="#9c9987" stroke="none" d="M22.35 17.6 L22.35 17.55 21.55 16.7 21.95 16.5 22.35 16.65 22.9 17.25 22.65 17.4 22.35 17.6 M22.55 17.35 L22.65 17.4 22.55 17.35"/><path fill="#6b695d" stroke="none" d="M22.35 17.55 L22.15 18.1 22.1 18.25 21.1 17.45 21.65 16.95 21.55 16.7 22.35 17.55"/><path fill="none" stroke="#000000" stroke-width="0.5" stroke-opacity="0.301960784314" d="M24.55 20.3 L24.85 20.05 25.0 19.9 25.1 19.8 25.3 19.45 25.55 19.6 M22.9 17.25 L25.4 19.3 25.3 19.45 M21.95 16.5 L22.35 16.65 22.25 16.5 22.2 16.45 21.95 16.5 21.55 16.7 21.65 16.95 21.1 17.45 22.1 18.25 23.2 19.2 24.35 20.4 24.55 20.3 M22.9 17.25 L22.35 16.65"/><path fill="none" stroke="#ffffff" stroke-width="0.5" stroke-opacity="0.301960784314" d="M24.85 20.05 L23.2 18.5 M22.15 18.1 L23.05 18.8 24.55 20.3 24.6 20.45 M23.4 18.25 L22.65 17.4 22.55 17.35 M24.85 20.05 L24.95 20.15"/><path fill="none" stroke="#000000" stroke-width="0.75" stroke-opacity="0.101960784314" d="M23.2 18.5 L23.1 18.4 M22.35 17.6 L22.35 17.55 M23.6 18.5 L23.25 18.1"/><path fill="none" stroke="#000000" stroke-width="0.5" stroke-opacity="0.101960784314" d="M23.1 18.4 L22.35 17.6 M25.0 19.9 L23.2 18.5 M25.1 19.8 L23.6 18.5 M23.25 18.1 L23.4 18.25 M25.3 19.45 L23.4 18.25 M21.55 16.7 L22.35 17.55"/><path fill="none" stroke="#ffffff" stroke-width="0.75" stroke-opacity="0.301960784314" d="M23.4 18.25 L23.6 18.5"/><path fill="#9c9987" stroke="none" d="M26.6 14.95 L24.85 16.95 24.65 17.05 24.55 17.0 27.2 14.0 27.25 14.1 26.6 14.95 M24.9 16.75 L24.65 17.05 24.9 16.75"/><path fill="#6b695d" stroke="none" d="M27.2 14.0 L24.55 17.0 23.75 17.75 23.3 18.15 25.85 15.2 26.5 14.75 27.2 14.0"/><path fill="#8a8878" stroke="none" d="M23.75 17.75 L24.55 17.0 21.95 20.05 19.65 22.7 17.25 25.5 17.0 25.65 23.75 17.75"/><path fill="#fffcde" stroke="none" d="M24.85 16.95 L18.3 24.7 18.15 24.85 22.3 19.75 22.6 19.5 22.65 19.35 24.65 17.05 24.85 16.95"/><path fill="#ebe8cc" stroke="none" d="M24.55 17.0 L24.65 17.05 22.65 19.35 22.6 19.5 22.3 19.75 21.6 20.6 17.5 25.35 17.45 25.4 19.65 22.7 21.95 20.05 24.55 17.0"/><path fill="#a6a490" stroke="none" d="M17.45 25.4 L17.25 25.5 19.65 22.7 17.45 25.4 M23.75 17.75 L17.0 25.65 16.9 25.65 23.3 18.15 23.75 17.75"/><path fill="#ccc9b1" stroke="none" d="M22.3 19.75 L18.15 24.85 17.5 25.35 21.6 20.6 22.3 19.75"/><path fill="none" stroke="#000000" stroke-width="0.5" stroke-opacity="0.101960784314" d="M27.25 14.1 L27.05 14.45 27.0 14.5 26.6 14.95 27.25 14.1 27.2 14.0 24.55 17.0 M18.3 24.7 L18.15 24.85 17.6 25.45 M25.85 15.2 L26.5 14.75 27.2 14.0 M22.65 19.35 L22.6 19.5 M22.3 19.75 L18.15 24.85 17.5 25.35 17.45 25.4 17.25 25.5 M17.0 25.65 L17.25 25.5 M21.95 20.05 L24.55 17.0 M16.9 25.65 L17.0 25.65 M21.6 20.6 L17.5 25.35 M19.65 22.7 L17.45 25.4"/><path fill="none" stroke="#ffffff" stroke-width="0.5" stroke-opacity="0.301960784314" d="M24.65 17.05 L24.9 16.75 M24.65 17.05 L22.65 19.35 M22.6 19.5 L22.3 19.75 21.6 20.6 M17.25 25.5 L16.9 25.85 M23.75 17.75 L17.0 25.65 16.6 26.1 M17.25 25.5 L19.65 22.7 21.95 20.05"/><path fill="none" stroke="#000000" stroke-width="0.5" stroke-opacity="0.301960784314" d="M26.6 14.95 L24.85 16.95 18.3 24.7 M16.9 25.65 L23.3 18.15 25.85 15.2"/><path fill="#3f5466" stroke="none" d="M24.05 15.65 L24.45 15.65 24.55 16.05 24.05 15.8 24.05 15.75 24.0 15.65 24.05 15.65 M25.25 16.35 L25.4 16.55 26.2 16.7 26.3 16.85 26.45 17.05 25.4 16.55 25.1 16.4 25.25 16.35 M24.9 16.3 L24.95 16.3 24.9 16.3"/><path fill="#5f829a" stroke="none" d="M24.45 15.65 L24.05 15.65 25.55 14.4 24.45 15.65 M24.05 15.8 L24.55 16.05 24.65 16.15 24.85 16.3 24.75 16.45 24.05 15.8 M25.5 15.65 L25.25 16.35 25.1 16.4 25.1 16.45 25.1 16.4 25.1 16.45 25.05 16.45 25.1 16.4 25.5 15.65 M27.2 13.75 L27.0 14.55 26.3 15.05 27.2 13.75 M26.65 16.15 L26.3 16.85 26.2 16.7 26.65 16.15 M26.45 17.05 L26.45 17.1 26.45 17.15 26.45 17.05 M24.95 16.3 L24.95 16.35 24.9 16.35 24.95 16.3 24.9 16.35 24.9 16.3 24.95 16.3"/><path fill="#7096b5" stroke="none" d="M24.55 16.05 L24.45 15.65 25.55 14.4 25.85 14.25 26.15 14.0 26.8 13.6 26.7 13.75 26.8 13.6 27.05 13.35 26.7 13.75 26.2 14.3 24.55 16.05 M18.45 24.95 L16.85 26.9 17.0 25.95 18.1 24.75 18.1 24.8 18.5 24.7 18.45 24.95"/><path fill="#739aba" stroke="none" d="M24.85 16.3 L24.65 16.15 24.55 16.05 26.2 14.3 25.5 15.65 25.1 16.4 25.05 16.45 25.05 16.35 25.1 16.4 25.05 16.35 24.95 16.3 25.0 16.3 25.0 16.25 24.95 16.3 24.9 16.3 24.9 16.25 24.85 16.3"/><path fill="#4f6a80" stroke="none" d="M26.2 14.3 L26.7 13.75 25.4 16.55 25.25 16.35 25.5 15.65 26.2 14.3 M13.9 27.95 L14.7 27.1 15.6 26.75 16.2 26.55 16.05 26.95 16.45 28.2 18.45 25.6 18.45 25.65 16.1 28.95 16.05 26.95 13.9 27.95 M18.45 25.35 L16.65 27.7 16.45 26.55 16.45 26.35 18.1 24.5 18.1 24.55 18.1 24.75 17.0 25.95 16.85 26.9 18.45 24.95 18.45 25.35"/><path fill="#8abae0" stroke="none" d="M27.0 14.55 L27.2 13.75 27.45 13.35 27.2 13.75 27.05 13.35 27.55 13.0 27.45 13.35 27.3 14.3 27.0 14.55 27.3 14.3 27.05 15.65 26.45 17.1 26.45 17.05 26.3 16.85 26.65 16.15 27.05 15.65 26.65 16.15 26.65 16.1 26.85 15.65 26.65 16.1 27.0 14.55"/><path fill="#526b85" stroke="none" d="M25.4 16.55 L26.7 13.75 27.05 13.35 27.2 13.75 26.3 15.05 25.4 16.55"/><path fill="#5c7a96" stroke="none" d="M26.3 15.05 L27.0 14.55 26.65 16.1 26.65 16.15 26.65 16.1 26.65 16.15 26.2 16.7 25.4 16.55 26.3 15.05 M14.7 27.1 L17.0 24.85 17.6 24.6 18.1 24.5 16.45 26.35 16.45 26.55 16.65 27.7 18.45 25.35 18.45 25.6 16.45 28.2 16.05 26.95 16.2 26.55 15.6 26.75 14.7 27.1 M17.6 24.6 L15.6 26.75 17.6 24.6 M16.35 26.6 L16.45 26.55 16.35 26.6"/><path fill="#4d677d" stroke="none" d="M25.4 16.55 L26.45 17.05 26.45 17.15 24.95 16.65 25.1 16.45 25.1 16.4 25.4 16.55"/><path fill="#c1dbe3" stroke="none" d="M24.95 16.3 L25.0 16.25 25.0 16.3 24.95 16.3"/><path fill="#3c525e" stroke="none" d="M24.9 16.3 L24.85 16.3 24.9 16.25 24.9 16.3 24.85 16.3 24.9 16.3"/><path fill="#cdebf2" stroke="none" d="M25.1 16.45 L24.95 16.65 24.9 16.7 25.1 16.45"/><path fill="#618799" stroke="none" d="M14.5 27.15 L14.7 27.1 14.5 27.15 16.9 24.6 18.15 24.25 18.15 24.3 18.05 24.4 18.1 24.5 17.6 24.6 17.0 24.85 14.7 27.1 13.9 27.95 13.8 28.0 14.5 27.15"/><path fill="#a6d0dd" stroke="none" d="M18.1 24.5 L18.05 24.4 18.15 24.3 18.15 24.4 18.1 24.55 18.1 24.5 18.15 24.4 18.1 24.5"/><path fill="none" stroke="#000000" stroke-width="0.5" stroke-opacity="0.301960784314" d="M24.45 15.65 L24.05 15.65 24.0 15.65 24.05 15.75 24.05 15.8 24.55 16.05 24.45 15.65 25.55 14.4 M24.85 16.3 L24.65 16.15 24.55 16.05 26.2 14.3 26.7 13.75 26.8 13.6 M26.2 14.3 L25.5 15.65 25.25 16.35 25.4 16.55 26.7 13.75 27.05 13.35 M27.0 14.55 L27.2 13.75 26.3 15.05 27.0 14.55 27.3 14.3 M27.45 13.35 L27.2 13.75 27.05 13.35 M26.65 16.15 L26.65 16.1 26.65 16.15 26.3 16.85 26.45 17.05 26.45 17.1 M27.05 15.65 L26.65 16.15 M26.3 16.85 L26.2 16.7 25.4 16.55 26.45 17.05 26.45 17.15 26.45 17.1 M26.2 16.7 L26.65 16.15 M25.1 16.4 L25.25 16.35 M25.1 16.45 L25.1 16.4 25.1 16.45 24.95 16.65 M26.45 17.15 L26.55 17.25 M25.1 16.4 L25.05 16.35 25.05 16.45 25.1 16.4 25.5 15.65 M25.1 16.4 L25.4 16.55 26.3 15.05 M25.05 16.45 L25.1 16.45 M24.9 16.7 L24.95 16.65 M24.9 16.35 L24.95 16.35 24.95 16.3 24.9 16.35 24.9 16.3 24.85 16.3 24.75 16.45 24.6 16.6 M24.9 16.3 L24.9 16.25 24.85 16.3 24.9 16.3 24.95 16.3 25.05 16.35 M24.9 16.3 L24.95 16.3 M26.65 16.1 L26.85 15.65 M27.0 14.55 L26.65 16.1 M18.1 24.5 L18.05 24.4 18.15 24.3 M18.1 24.55 L18.1 24.5 18.15 24.4"/><path fill="none" stroke="#000000" stroke-width="0.5" stroke-opacity="0.301960784314" d="M25.55 14.4 L24.05 15.65 M26.8 13.6 L26.15 14.0 M25.85 14.25 L25.55 14.4 M27.05 13.35 L26.8 13.6 M27.3 14.3 L27.45 13.35 M27.05 13.35 L27.55 13.0 27.45 13.35 M26.45 17.1 L27.05 15.65 27.3 14.3 M24.95 16.65 L26.45 17.15 M24.05 15.8 L24.75 16.45 M14.7 27.1 L14.5 27.15 13.8 28.0 13.9 27.95 M18.15 24.25 L16.9 24.6 14.5 27.15 M18.45 25.35 L18.45 24.95 M18.5 24.7 L18.45 24.95 M18.45 25.6 L18.45 25.65 16.1 28.95 16.05 26.95 13.9 27.95"/><path fill="none" stroke="#000000" stroke-width="0.5" stroke-opacity="0.2" d="M14.7 27.1 L17.0 24.85 17.6 24.6 18.1 24.5 16.45 26.35 16.45 26.55 16.65 27.7 18.45 25.35 M14.7 27.1 L15.6 26.75 17.6 24.6 M16.45 26.55 L16.35 26.6 M15.6 26.75 L16.2 26.55 16.05 26.95 16.45 28.2 18.45 25.6"/><path fill="none" stroke="#000000" stroke-width="0.5" stroke-opacity="0.2" d="M18.45 25.35 L18.45 25.6"/><path fill="#7ea4cc" stroke="none" d="M23.3 15.9 L23.25 16.5 23.3 16.5 23.25 16.6 23.25 16.65 23.15 16.65 23.1 16.7 23.1 16.75 22.95 16.85 22.75 16.5 22.3 16.05 22.05 15.9 21.95 15.75 21.65 15.4 21.6 15.35 20.9 14.65 19.75 13.4 18.15 12.15 17.75 11.75 19.65 13.05 20.95 14.3 22.5 15.85 22.8 16.1 23.3 15.9 23.2 16.05 23.25 16.5 23.2 16.05 23.3 15.9 M19.9 17.2 L16.9 14.45 16.2 14.35 Q15.55 14.35 15.2 14.9 L14.85 15.45 15.45 14.35 16.0 14.05 17.05 14.2 18.5 15.45 18.8 15.85 19.9 17.2 M22.8 16.1 L22.75 16.1 22.8 16.1"/><path fill="#536e87" stroke="none" d="M17.35 11.3 L17.8 11.5 17.9 11.45 21.4 14.35 20.95 14.3 19.65 13.05 17.75 11.75 17.35 11.3"/><path fill="#7094b5" stroke="none" d="M14.5 13.1 L14.45 13.0 15.0 11.8 15.65 11.15 16.7 11.05 16.8 11.4 17.0 11.85 16.1 11.55 15.3 12.1 14.5 13.1"/><path fill="#7ea7cc" stroke="none" d="M17.0 11.85 L16.8 11.4 17.2 11.6 19.55 14.05 20.5 14.5 20.9 14.65 21.6 15.35 21.65 15.4 21.95 15.75 21.85 15.9 21.85 15.95 21.8 15.95 21.75 15.95 21.5 15.7 18.35 13.25 17.0 11.85"/><path fill="#607e9c" stroke="none" d="M14.7 15.45 Q14.4 14.7 14.5 13.1 L15.3 12.1 16.1 11.55 17.0 11.85 18.35 13.25 16.6 12.0 16.05 11.95 15.4 12.85 14.95 13.4 14.8 14.55 14.7 15.45 M16.7 11.05 L17.35 11.3 17.75 11.75 18.15 12.15 17.2 11.6 16.8 11.4 16.7 11.05 M17.9 13.8 L21.7 16.3 21.75 16.35 21.95 16.55 22.3 16.85 22.35 16.85 22.45 16.95 22.35 17.15 22.2 17.3 22.1 17.25 21.95 17.2 21.85 17.15 21.75 17.05 21.3 16.7 20.9 16.45 20.45 16.15 18.65 14.85 17.9 13.8"/><path fill="#7597bd" stroke="none" d="M18.35 13.25 L21.5 15.7 21.75 15.95 21.3 15.6 19.7 14.55 21.7 16.3 17.9 13.8 17.65 13.35 16.0 12.6 15.4 12.85 16.05 11.95 16.6 12.0 18.35 13.25 M19.35 14.3 L21.3 15.6 19.35 14.3"/><path fill="#8fbae8" stroke="none" d="M17.2 11.6 L18.15 12.15 19.75 13.4 20.9 14.65 20.5 14.5 19.55 14.05 17.2 11.6 M21.75 16.35 L21.7 16.3 21.75 16.3 21.75 16.35 M22.75 16.1 L22.8 16.1 22.75 16.1"/><path fill="#5e7f99" stroke="none" d="M23.1 16.7 L23.0 16.9 22.7 17.2 22.15 17.55 22.1 17.25 22.2 17.3 22.35 17.15 22.45 16.95 22.45 16.9 22.3 16.85 21.95 16.55 21.75 16.35 21.75 16.3 21.7 16.3 19.7 14.55 21.3 15.6 21.75 15.95 21.8 15.95 21.85 15.95 21.85 15.9 21.95 15.75 22.05 15.9 22.3 16.05 22.75 16.5 22.95 16.85 23.1 16.75 23.1 16.7 M21.55 17.8 L21.5 17.8 21.35 17.6 21.5 17.55 21.55 17.8 M18.7 14.85 L18.45 14.75 18.6 14.8 18.7 14.85"/><path fill="#4b637a" stroke="none" d="M21.5 17.8 L21.25 17.95 20.8 18.0 20.6 17.85 20.55 17.85 20.55 17.75 20.5 17.9 19.9 17.2 18.8 15.85 17.75 14.05 16.55 13.15 15.8 13.1 15.75 13.15 15.25 14.3 14.8 14.55 14.95 13.4 15.4 12.85 16.0 12.6 17.65 13.35 17.9 13.8 18.65 14.85 18.6 14.8 18.45 14.75 18.7 14.85 20.55 16.95 20.65 16.95 21.05 17.25 21.35 17.6 21.5 17.8"/><path fill="#374859" stroke="none" d="M18.7 14.85 L18.6 14.8 18.65 14.85 20.45 16.15 20.9 16.45 21.3 16.7 21.75 17.05 21.85 17.15 21.95 17.2 22.1 17.35 Q22.2 17.5 21.85 17.5 L21.55 17.55 21.5 17.55 21.35 17.6 21.05 17.25 20.65 16.95 20.55 16.95 18.7 14.85"/><path fill="#39495c" stroke="none" d="M18.5 15.45 L17.05 14.2 16.0 14.05 15.45 14.35 15.5 14.15 15.65 14.0 15.7 14.0 16.3 13.6 17.45 14.2 18.5 15.45"/><path fill="#4b627a" stroke="none" d="M18.8 15.85 L18.5 15.45 17.45 14.2 16.3 13.6 15.7 14.0 15.65 14.0 15.5 14.15 15.25 14.3 15.75 13.15 15.8 13.1 16.55 13.15 17.75 14.05 18.8 15.85 M15.65 14.0 L15.5 14.15 15.65 14.0"/><path fill="#384a5c" stroke="none" d="M22.45 16.95 L22.35 16.85 22.3 16.85 22.45 16.9 22.45 16.95"/><path fill="#6889a8" stroke="none" d="M21.4 14.35 L23.3 15.9 22.8 16.1 22.8 15.95 22.8 16.1 22.5 15.85 20.95 14.3 21.4 14.35"/><path fill="#42576b" stroke="none" d="M14.85 15.45 L14.75 15.5 14.7 15.45 14.8 14.55 15.25 14.3 15.5 14.15 15.45 14.35 14.85 15.45"/><path fill="#2f3f4d" stroke="none" d="M21.95 17.2 L21.85 17.15 21.95 17.2"/><path fill="#7ca4c9" stroke="none" d="M22.15 17.55 L21.95 17.55 21.55 17.8 21.5 17.55 21.55 17.55 21.85 17.5 Q22.2 17.5 22.1 17.35 L21.95 17.2 22.1 17.25 22.15 17.55"/><path fill="#6b8dad" stroke="none" d="M20.6 17.85 L20.5 17.85 20.5 17.9 20.55 17.75 20.55 17.85 20.6 17.85 M20.5 17.85 L20.55 17.85 20.5 17.85"/><path fill="none" stroke="#000000" stroke-width="0.5" stroke-opacity="0.301960784314" d="M23.3 15.9 L23.25 16.5 M23.25 16.6 L23.25 16.65 23.15 16.65 M23.0 16.9 L22.7 17.2 22.15 17.55 21.95 17.55 21.55 17.8 21.5 17.8 M20.6 17.85 L20.5 17.85 20.5 17.9 19.9 17.2 16.9 14.45 16.2 14.35 Q15.55 14.35 15.2 14.9 L14.85 15.45 14.75 15.5 M14.7 15.45 Q14.4 14.7 14.5 13.1 L14.45 13.0 15.0 11.8 15.65 11.15 16.7 11.05 17.35 11.3 17.8 11.5 17.9 11.45 21.4 14.35 23.3 15.9 23.2 16.05 23.25 16.5 M20.55 17.85 L20.5 17.85 M20.55 17.75 L20.5 17.9"/><path fill="none" stroke="#000000" stroke-width="0.5" stroke-opacity="0.2" d="M14.75 15.5 L14.7 15.45 14.8 14.55 15.25 14.3 15.5 14.15 15.65 14.0 15.7 14.0 16.3 13.6 17.45 14.2 18.5 15.45 17.05 14.2 16.0 14.05 15.45 14.35 14.85 15.45 M17.0 11.85 L16.8 11.4 16.7 11.05 M16.8 11.4 L17.2 11.6 18.15 12.15 17.75 11.75 17.35 11.3 M14.5 13.1 L15.3 12.1 16.1 11.55 17.0 11.85 18.35 13.25 16.6 12.0 16.05 11.95 15.4 12.85 16.0 12.6 M21.5 15.7 L21.75 15.95 21.3 15.6 19.35 14.3 M19.7 14.55 L21.3 15.6 M18.6 14.8 L18.45 14.75 18.7 14.85 18.6 14.8 18.65 14.85 17.9 13.8 M19.9 17.2 L18.8 15.85 18.5 15.45 M15.8 13.1 L15.75 13.15 M20.45 16.15 L18.65 14.85 M21.4 14.35 L20.95 14.3 22.5 15.85 M17.75 11.75 L19.65 13.05 20.95 14.3 M19.75 13.4 L18.15 12.15 M15.4 12.85 L14.95 13.4 14.8 14.55 M15.65 14.0 L15.5 14.15 15.45 14.35"/><path fill="none" stroke="#000000" stroke-width="0.5" stroke-opacity="0.2" d="M21.75 15.95 L21.8 15.95 M20.9 16.45 L20.45 16.15 M22.8 16.1 L22.8 15.95 M22.5 15.85 L22.8 16.1 M22.45 16.95 L22.45 16.9 M22.1 17.25 L22.15 17.55 M21.55 17.8 L21.5 17.55"/><path fill="none" stroke="#ffffff" stroke-width="0.5" stroke-opacity="0.301960784314" d="M21.7 16.3 L21.75 16.3 M22.8 16.1 L22.75 16.1 M22.8 16.1 L23.3 15.9"/><path fill="#7ea4cc" stroke="none" d="M26.05 18.4 L25.5 18.5 25.45 18.5 25.4 18.5 25.3 18.5 25.3 18.6 25.25 18.6 25.15 18.65 25.1 18.75 25.45 19.0 25.95 19.45 26.15 19.7 26.25 19.8 26.65 20.1 26.7 20.1 27.45 20.85 28.8 21.95 30.15 23.5 30.65 23.85 29.2 22.0 27.85 20.75 26.2 19.2 25.9 18.95 26.05 18.4 25.9 18.5 25.5 18.5 25.9 18.5 26.05 18.4 M24.95 21.9 L27.85 24.9 28.05 25.55 Q28.05 26.25 27.45 26.6 L26.95 27.05 28.05 26.35 28.3 25.7 28.1 24.75 26.75 23.3 26.35 23.0 24.95 21.9 M25.85 18.95 L25.9 18.95 25.9 19.0 25.85 18.95"/><path fill="#536e87" stroke="none" d="M31.1 24.25 L30.9 23.75 30.85 23.7 27.75 20.25 27.85 20.75 29.2 22.0 30.65 23.85 31.1 24.25"/><path fill="#607e9c" stroke="none" d="M27.0 27.15 L29.35 27.25 30.4 26.45 30.9 25.5 30.55 24.65 29.05 23.35 30.4 25.05 30.5 25.65 29.6 26.3 29.05 26.75 27.9 27.0 27.0 27.15 M31.4 24.95 L31.1 24.25 30.65 23.85 30.15 23.5 30.8 24.4 31.05 24.8 31.4 24.95 M28.45 23.75 L25.75 20.05 25.7 20.0 25.5 19.8 25.2 19.4 25.1 19.35 25.05 19.35 24.85 19.45 24.65 19.55 24.7 19.65 24.8 19.85 24.85 19.95 24.95 20.05 25.4 20.5 25.6 20.9 25.95 21.35 27.4 23.1 28.45 23.75"/><path fill="#7ea7cc" stroke="none" d="M31.05 24.8 L30.8 24.4 28.15 22.15 27.65 21.2 27.45 20.85 26.7 20.1 26.65 20.1 26.25 19.8 26.15 19.95 26.1 19.9 26.1 19.85 26.1 19.9 26.1 20.0 26.35 20.25 29.05 23.35 30.55 24.65 31.05 24.8"/><path fill="#7094b5" stroke="none" d="M29.35 27.25 L29.45 27.25 30.65 26.7 31.3 26.0 31.4 24.95 31.05 24.8 30.55 24.65 30.9 25.5 30.4 26.45 29.35 27.25"/><path fill="#7597bd" stroke="none" d="M29.05 23.35 L26.35 20.25 26.1 20.0 26.5 20.45 27.6 22.0 25.75 20.05 28.45 23.75 28.95 24.05 29.85 25.7 29.6 26.3 30.5 25.65 30.4 25.05 29.05 23.35 M27.9 22.35 L26.5 20.45 27.9 22.35"/><path fill="#8fbae8" stroke="none" d="M30.8 24.4 L30.15 23.5 28.8 21.95 27.45 20.85 27.65 21.2 28.15 22.15 30.8 24.4 M25.7 20.0 L25.75 20.05 25.75 20.0 25.7 20.0 M25.9 18.95 L25.85 18.95 25.9 19.0 25.9 18.95"/><path fill="#5e7f99" stroke="none" d="M25.25 18.6 L25.05 18.8 24.8 19.05 24.4 19.65 24.7 19.65 24.65 19.55 24.85 19.45 25.05 19.35 25.05 19.3 25.2 19.4 25.5 19.8 25.7 20.0 25.75 20.0 25.75 20.05 27.6 22.0 26.5 20.45 26.1 20.0 26.1 19.9 26.1 19.85 26.1 19.9 26.15 19.95 26.25 19.8 26.15 19.7 25.95 19.45 25.45 19.0 25.1 18.75 25.15 18.65 25.25 18.6 M24.2 20.35 L24.2 20.4 24.45 20.45 24.45 20.3 24.2 20.35 M27.4 23.1 L27.45 23.25 27.45 23.15 27.4 23.1"/><path fill="#4b637a" stroke="none" d="M24.2 20.4 L24.05 20.55 24.05 21.05 24.2 21.25 24.2 21.3 24.3 21.3 24.2 21.35 24.95 21.9 26.35 23.0 28.25 24.0 29.25 25.15 29.3 25.9 29.3 26.0 28.15 26.55 27.9 27.0 29.05 26.75 29.6 26.3 29.85 25.7 28.95 24.05 28.45 23.75 27.4 23.1 25.15 21.3 25.15 21.2 24.8 20.8 24.45 20.45 24.2 20.4 M27.45 23.15 L27.45 23.25 27.4 23.1 27.45 23.15"/><path fill="#374859" stroke="none" d="M27.4 23.1 L27.45 23.15 27.4 23.1 25.95 21.35 25.6 20.9 25.4 20.5 24.95 20.05 24.85 19.95 24.8 19.85 24.65 19.75 Q24.45 19.6 24.45 19.95 L24.45 20.3 24.45 20.45 24.8 20.8 25.15 21.2 25.15 21.3 27.4 23.1"/><path fill="#4b627a" stroke="none" d="M26.75 23.3 L28.1 24.3 28.75 25.4 28.4 26.1 28.35 26.15 28.25 26.25 28.15 26.55 29.3 26.0 29.3 25.9 29.25 25.15 28.25 24.0 26.35 23.0 26.75 23.3 M28.35 26.15 L28.25 26.25 28.35 26.15"/><path fill="#39495c" stroke="none" d="M28.25 26.25 L28.35 26.15 28.4 26.1 28.75 25.4 28.1 24.3 26.75 23.3 28.1 24.75 28.3 25.7 28.05 26.35 28.25 26.25"/><path fill="#384a5c" stroke="none" d="M25.05 19.35 L25.1 19.35 25.2 19.4 25.05 19.3 25.05 19.35"/><path fill="#6889a8" stroke="none" d="M27.75 20.25 L26.05 18.4 25.9 18.95 26.2 19.2 27.85 20.75 27.75 20.25 M25.9 18.95 L26.05 18.9 25.9 18.95"/><path fill="#42576b" stroke="none" d="M26.95 27.05 L26.9 27.15 27.0 27.15 27.9 27.0 28.15 26.55 28.25 26.25 28.05 26.35 26.95 27.05"/><path fill="#2f3f4d" stroke="none" d="M24.85 19.95 L24.8 19.85 24.85 19.95"/><path fill="#7ca4c9" stroke="none" d="M24.4 19.65 L24.45 19.85 24.2 20.35 24.45 20.3 24.45 19.95 Q24.45 19.6 24.65 19.75 L24.8 19.85 24.7 19.65 24.4 19.65"/><path fill="#6b8dad" stroke="none" d="M24.2 21.25 L24.2 21.35 24.2 21.3 24.2 21.25 M24.3 21.3 L24.2 21.3 24.2 21.35 24.3 21.3"/><path fill="none" stroke="#000000" stroke-width="0.5" stroke-opacity="0.301960784314" d="M26.05 18.4 L25.5 18.5 M25.4 18.5 L25.3 18.5 25.3 18.6 M25.05 18.8 L24.8 19.05 24.4 19.65 24.45 19.85 24.2 20.35 24.2 20.4 M24.2 21.25 L24.2 21.35 24.95 21.9 27.85 24.9 28.05 25.55 Q28.05 26.25 27.45 26.6 L26.95 27.05 26.9 27.15 M27.0 27.15 L29.35 27.25 29.45 27.25 30.65 26.7 31.3 26.0 31.4 24.95 31.1 24.25 30.9 23.75 30.85 23.7 27.75 20.25 26.05 18.4 25.9 18.5 25.5 18.5 M24.2 21.35 L24.2 21.3 M24.2 21.35 L24.3 21.3"/><path fill="none" stroke="#000000" stroke-width="0.5" stroke-opacity="0.2" d="M26.9 27.15 L27.0 27.15 M31.05 24.8 L30.8 24.4 30.15 23.5 30.65 23.85 31.1 24.25 M30.55 24.65 L31.05 24.8 31.4 24.95 M29.35 27.25 L30.4 26.45 30.9 25.5 30.55 24.65 29.05 23.35 30.4 25.05 30.5 25.65 29.6 26.3 29.85 25.7 M26.35 20.25 L26.1 20.0 26.5 20.45 27.9 22.35 M27.6 22.0 L26.5 20.45 M27.45 23.15 L27.45 23.25 27.4 23.1 27.45 23.15 27.4 23.1 28.45 23.75 M26.35 23.0 L24.95 21.9 M26.75 23.3 L28.1 24.3 28.75 25.4 28.4 26.1 28.35 26.15 28.25 26.25 28.05 26.35 28.3 25.7 28.1 24.75 26.75 23.3 26.35 23.0 M29.3 25.9 L29.3 26.0 M28.15 26.55 L28.25 26.25 28.35 26.15 M26.2 19.2 L27.85 20.75 29.2 22.0 30.65 23.85 M27.75 20.25 L27.85 20.75 M27.4 23.1 L25.95 21.35 M30.15 23.5 L28.8 21.95 M29.6 26.3 L29.05 26.75 27.9 27.0 28.15 26.55 M27.9 27.0 L27.0 27.15 M28.05 26.35 L26.95 27.05"/><path fill="none" stroke="#000000" stroke-width="0.5" stroke-opacity="0.2" d="M26.1 20.0 L26.1 19.9 M25.95 21.35 L25.6 20.9 M26.05 18.9 L25.9 18.95 25.85 18.95 M25.9 18.95 L26.2 19.2 M25.05 19.3 L25.05 19.35 M24.4 19.65 L24.7 19.65 M24.2 20.35 L24.45 20.3"/><path fill="none" stroke="#ffffff" stroke-width="0.5" stroke-opacity="0.301960784314" d="M25.75 20.05 L25.75 20.0 M25.9 18.95 L26.05 18.4 M25.9 19.0 L25.9 18.95"/></g><g id="c10"><g><use transform="matrix(1.0,0.0,0.0,1.0,0.0,0.0)" xlink:href="#c2"/></g><g><use transform="matrix(0.238861083984,-0.0867004394531,0.10026550293,0.233917236328,34.25,31.15)" xlink:href="#c4"/></g><g><use transform="matrix(0.238861083984,-0.0867004394531,0.10026550293,0.233917236328,4.25,10.3)" xlink:href="#c4"/></g><g><use transform="matrix(0.141098022461,-0.0378112792969,0.111373901367,0.225646972656,20.25,20.65)" filter="url(#filter7)" xlink:href="#c6"/></g><g><use transform="matrix(-0.155029296875,0.0513153076172,0.0841827392578,0.147033691406,22.6,2.3)" filter="url(#filter8)" xlink:href="#c8"/></g><g><use transform="matrix(1.0,0.0,0.0,1.0,0.0,0.0)" xlink:href="#c9"/></g><g><use transform="matrix(0.162948608398,-0.0436706542969,0.128631591797,0.260604858398,20.35,20.95)" filter="url(#filter10)" xlink:href="#c6"/></g></g><filter id="filter7"><feColorMatrix in="SourceGraphic" type="matrix" values="0.0 0.0 0.0 0.0 0.796875 0.0 0.0 0.0 0.0 0.59765625 0.0 0.0 0.0 0.0 0.19921875 0.0 0.0 0.0 1.0 0.0" result="cxform"/><feComposite operator="in" in2="SourceGraphic" result="color-xform"/></filter><filter id="filter8"><feColorMatrix in="SourceGraphic" type="matrix" values="0.0 0.0 0.0 0.0 0.99609375 0.0 0.0 0.0 0.0 0.99609375 0.0 0.0 0.0 0.0 0.99609375 0.0 0.0 0.0 1.0 0.0" result="cxform"/><feComposite operator="in" in2="SourceGraphic" result="color-xform"/></filter><filter id="filter10"><feColorMatrix in="SourceGraphic" type="matrix" values="1.0 0.0 0.0 0.0 0.0 0.0 1.0 0.0 0.0 0.0 0.0 0.0 1.0 0.0 0.0 0.0 0.0 0.0 0.23046875 0.0" result="cxform"/><feComposite operator="in" in2="SourceGraphic" result="color-xform"/></filter></defs><g><g><use transform="matrix(1.0,0.0,0.0,1.0,0.0,0.0)" xlink:href="#c1"/></g><g><use transform="matrix(1.15496826172,0.0,0.0,1.15496826172,5.85,3.95)" xlink:href="#c10"/></g></g></svg>