<?xml version='1.0' encoding='UTF-8'?>
<svg xmlns:xlink="http://www.w3.org/1999/xlink" xmlns="http://www.w3.org/2000/svg" version="1.1" width="60px" height="60px" viewBox="0.0 0.0 60.0 60.0"><defs><g id="c1"><path fill="#000000" fill-opacity="0.00392156862745" d="M0.0 0.0 L60.0 0.0 60.0 60.0 0.0 60.0 0.0 0.0"/></g><g id="c2"><path fill="none" stroke="#000000" stroke-width="1.0" stroke-opacity="0.301960784314" d="M22.3 0.35 Q26.6 -1.0 28.5 3.05 L41.4 31.7 Q43.1 35.4 39.9 36.85 L38.15 37.65 19.65 43.65 Q17.05 44.5 15.35 43.3 14.2 42.55 13.5 40.9 L0.55 12.25 Q-0.6 9.75 0.6 8.25 1.15 7.55 2.2 7.05 2.85 6.6 3.8 6.3 L22.3 0.35"/><path fill="#300525" stroke="none" d="M25.55 0.9 Q26.9 1.6 27.8 3.55 L40.7 32.15 Q42.6 36.3 38.3 37.65 L23.3 42.5 13.15 21.4 4.6 20.9 0.7 12.25 Q-0.45 9.75 0.75 8.25 L29.8 9.75 25.55 0.9 M20.1 43.55 L19.8 43.65 Q17.15 44.45 15.5 43.3 L20.1 43.55"/><path fill="#630a4c" stroke="none" d="M23.3 42.5 L20.1 43.55 15.5 43.3 Q14.35 42.55 13.65 40.9 L4.6 20.9 13.15 21.4 23.3 42.5 M0.75 8.25 Q1.45 7.3 3.1 6.75 L21.65 0.8 25.55 0.9 29.8 9.75 0.75 8.25"/><path fill="none" stroke="#000000" stroke-width="0.5" stroke-opacity="0.301960784314" d="M25.55 0.9 Q26.9 1.6 27.8 3.55 L40.7 32.15 Q42.6 36.3 38.3 37.65 L23.3 42.5 20.1 43.55 19.8 43.65 Q17.15 44.45 15.5 43.3 14.35 42.55 13.65 40.9 L4.6 20.9 0.7 12.25 Q-0.45 9.75 0.75 8.25 1.45 7.3 3.1 6.75 L21.65 0.8 25.55 0.9"/><path fill="#9d147b" stroke="none" d="M14.2 40.5 L1.35 11.8 Q-0.5 7.75 3.8 6.35 L22.3 0.4 Q26.55 -1.0 28.45 3.1 L41.35 31.7 Q43.25 35.85 38.9 37.25 L20.4 43.2 Q16.1 44.55 14.2 40.5"/><path fill="none" stroke="#000000" stroke-width="0.5" stroke-opacity="0.301960784314" d="M14.2 40.5 L1.35 11.8 Q-0.5 7.75 3.8 6.35 L22.3 0.4 Q26.55 -1.0 28.45 3.1 L41.35 31.7 Q43.25 35.85 38.9 37.25 L20.4 43.2 Q16.1 44.55 14.2 40.5"/><path fill="#fcf2cf" stroke="none" d="M9.15 13.6 Q9.8 12.8 9.55 11.6 L9.1 10.55 22.05 6.35 Q24.9 5.45 26.25 7.85 L26.5 8.3 35.8 29.0 35.95 29.35 Q34.75 29.3 34.1 30.1 33.45 30.9 33.7 32.1 L34.0 32.9 20.65 37.2 Q18.8 37.8 17.65 37.0 16.8 36.4 16.3 35.2 L6.95 14.6 6.8 14.4 7.1 14.4 Q8.4 14.45 9.15 13.6"/><path fill="#c47fad" stroke="none" d="M8.25 23.65 L3.35 12.8 Q1.65 9.1 5.5 7.85 L22.25 2.5 Q26.05 1.25 27.75 4.95 L28.25 6.1 35.55 22.3 39.35 30.75 Q41.1 34.5 37.2 35.7 L20.45 41.1 Q16.8 42.25 15.2 39.0 L15.0 38.6 8.25 23.65 M9.15 13.6 Q8.4 14.45 7.1 14.4 L6.8 14.4 6.95 14.6 16.3 35.2 Q16.8 36.4 17.65 37.0 18.8 37.8 20.65 37.2 L34.0 32.9 33.7 32.1 Q33.45 30.9 34.1 30.1 34.75 29.3 35.95 29.35 L35.8 29.0 26.5 8.3 26.25 7.85 Q24.9 5.45 22.05 6.35 L9.1 10.55 9.55 11.6 Q9.8 12.8 9.15 13.6"/><path fill="none" stroke="#ffcc00" stroke-width="1.0" stroke-opacity="0.749019607843" d="M8.25 23.65 L3.35 12.8 Q1.65 9.1 5.5 7.85 L22.25 2.5 Q26.05 1.25 27.75 4.95 L28.25 6.1 M35.55 22.3 L39.35 30.75 Q41.1 34.5 37.2 35.7 L20.45 41.1 Q16.8 42.25 15.2 39.0 L15.0 38.6"/><path fill="none" stroke="#bf9900" stroke-width="1.0" stroke-opacity="0.749019607843" d="M28.25 6.1 L35.55 22.3 M15.0 38.6 L8.25 23.65"/><path fill="none" stroke="#f0b92b" stroke-width="0.5" d="M9.15 13.6 Q9.8 12.8 9.55 11.6 L9.1 10.55 22.05 6.35 Q24.9 5.45 26.25 7.85 L26.5 8.3 35.8 29.0 35.95 29.35 Q34.75 29.3 34.1 30.1 33.45 30.9 33.7 32.1 L34.0 32.9 20.65 37.2 Q18.8 37.8 17.65 37.0 16.8 36.4 16.3 35.2 L6.95 14.6 6.8 14.4 7.1 14.4 Q8.4 14.45 9.15 13.6"/></g><g id="c3"><path fill="#7fdbfe" stroke="none" d="M10.75 4.9 Q10.75 4.6 10.9 4.35 11.25 3.45 11.95 2.75 13.3 1.5 14.35 2.1 15.4 2.7 14.95 4.45 14.7 5.4 14.1 6.15 L13.75 6.5 Q13.1 7.15 12.35 7.35 L11.4 7.2 Q10.95 6.9 10.75 6.4 10.5 5.75 10.75 4.9 M7.5 5.9 Q7.0 5.85 6.6 5.5 6.05 5.0 5.8 4.15 L5.7 3.6 Q5.55 2.65 5.8 1.7 6.25 0.0 7.5 0.0 L7.6 0.0 Q8.85 0.0 9.3 1.7 9.55 2.65 9.4 3.6 L9.3 4.15 8.5 5.5 7.6 5.9 7.5 5.9 M4.35 4.9 Q4.6 5.75 4.35 6.4 L3.7 7.2 2.75 7.35 Q2.0 7.15 1.35 6.5 L1.0 6.15 Q0.4 5.4 0.15 4.45 -0.3 2.7 0.75 2.1 1.8 1.5 3.15 2.75 3.85 3.45 4.2 4.35 L4.35 4.9 M5.5 13.7 Q4.45 13.9 3.65 12.95 2.75 12.0 3.2 10.25 3.7 8.5 5.25 7.6 6.4 6.9 7.55 7.0 8.75 6.9 9.9 7.6 11.45 8.5 11.95 10.25 12.35 12.0 11.5 12.95 10.7 13.9 9.65 13.7 8.55 13.5 7.55 12.6 6.55 13.5 5.5 13.7"/></g><g id="c4"><g><use transform="matrix(1.0,0.0,0.0,1.0,0.0,0.0)" xlink:href="#c3"/></g></g><radialGradient gradientUnits="userSpaceOnUse" r="819.2" cx="0" cy="0" spreadMethod="pad" gradientTransform="matrix(0.0914459228516,0.0,0.0,0.0914459228516,0.6,3.4)" id="gradient1"><stop offset="0.0" stop-color="#ffffff"/><stop offset="1.0" stop-color="#ffffff" stop-opacity="0.0"/></radialGradient><g id="c5"><path stroke="none" fill="url(#gradient1)" d="M36.65 -54.65 Q60.05 -42.0 69.75 -17.95 80.55 8.9 68.0 34.1 55.45 59.35 26.8 68.2 -1.8 77.05 -29.7 64.3 -57.6 51.6 -68.45 24.75 -79.3 -2.05 -66.75 -27.25 L-66.7 -27.3 Q-54.1 -52.5 -25.5 -61.4 3.1 -70.2 31.0 -57.5 L36.65 -54.65"/></g><g id="c6"><g><use transform="matrix(1.0,0.0,0.0,1.0,0.0,0.0)" xlink:href="#c5"/></g></g><radialGradient gradientUnits="userSpaceOnUse" r="819.2" cx="0" cy="0" spreadMethod="pad" gradientTransform="matrix(0.209197998047,0.0,0.0,0.177108764648,67.15,107.2)" id="gradient2"><stop offset="0.356862745098" stop-color="#ffffff"/><stop offset="0.670588235294" stop-opacity="0.0"/></radialGradient><g id="c7"><path fill="none" stroke-linejoin="round" stroke-linecap="round" stroke="url(#gradient2)" stroke-width="0.5" d="M136.55 165.8 L68.6 106.0 68.4 106.0 118.25 201.5 M68.2 105.7 L68.25 105.8 68.25 105.75 68.2 105.7 0.0 45.7 M68.25 105.8 L68.3 105.85 68.3 105.8 68.25 105.75 49.95 0.05 M0.05 97.7 L68.15 105.95 68.25 105.85 68.25 105.8 M68.3 105.85 L68.25 105.85 68.3 106.0 68.3 105.85 68.3 105.8 68.35 105.8 68.3 105.8 86.6 18.35 M50.0 193.2 L68.3 106.0 68.15 105.95 18.25 151.55 M68.4 106.0 L68.3 106.0 86.55 211.5 M68.4 106.0 L68.3 105.85 M68.6 106.0 L68.35 105.8 118.25 60.15 M136.6 114.25 L68.6 106.0 M68.2 105.7 L18.25 10.05"/></g><g id="c8"><g><use transform="matrix(1.0,0.0,0.0,1.0,0.0,0.0)" xlink:href="#c7"/></g></g><g id="c9"><path fill="none" stroke="#ff0000" stroke-width="0.5" d="M21.55 26.85 L24.75 27.75"/><path fill="#e9ae2c" stroke="none" d="M23.85 19.8 L23.5 19.3 Q25.9 19.85 28.5 22.9 28.75 23.55 26.85 23.4 28.25 23.1 28.0 22.75 26.05 20.7 23.85 19.8"/><path fill="#d19920" stroke="none" d="M26.85 23.4 L26.35 23.4 23.85 19.8 Q26.05 20.7 28.0 22.75 28.25 23.1 26.85 23.4"/><path fill="none" stroke="#000000" stroke-width="0.5" stroke-opacity="0.301960784314" d="M23.85 19.8 L23.5 19.3 Q25.9 19.85 28.5 22.9 28.75 23.55 26.85 23.4 L26.35 23.4 23.85 19.8"/><path fill="#e9ae2c" stroke="none" d="M19.2 12.9 L19.0 12.55 Q21.45 13.05 24.4 17.45 24.8 18.45 23.0 18.55 24.15 18.25 24.1 17.75 21.9 14.35 19.2 12.9"/><path fill="#d19920" stroke="none" d="M23.0 18.55 L22.35 18.55 19.2 12.9 Q21.9 14.35 24.1 17.75 24.15 18.25 23.0 18.55"/><path fill="none" stroke="#000000" stroke-width="0.5" stroke-opacity="0.301960784314" d="M19.2 12.9 L19.0 12.55 Q21.45 13.05 24.4 17.45 24.8 18.45 23.0 18.55 L22.35 18.55 19.2 12.9"/><path fill="#e9ae2c" stroke="none" d="M11.75 15.1 Q14.15 9.5 19.05 12.45 21.05 13.5 21.45 15.35 21.9 17.55 20.75 17.95 18.6 17.9 17.15 19.5 16.2 20.3 14.6 20.2 L13.6 19.8 12.15 16.55 11.75 15.1"/><path fill="#f4cc53" stroke="none" d="M11.75 15.1 Q11.65 14.0 12.2 13.45 14.75 9.7 19.35 11.9 20.95 13.2 21.8 14.8 22.4 17.75 21.25 18.35 19.4 18.2 17.35 19.85 16.25 20.75 14.6 20.2 16.2 20.3 17.15 19.5 18.6 17.9 20.75 17.95 21.9 17.55 21.45 15.35 21.05 13.5 19.05 12.45 14.15 9.5 11.75 15.1"/><path fill="#d19920" stroke="none" d="M14.6 20.2 Q16.25 20.75 17.35 19.85 19.4 18.2 21.25 18.35 22.4 17.75 21.8 14.8 22.4 15.7 22.65 16.75 23.4 19.55 22.2 19.85 19.4 20.05 16.85 21.65 15.6 22.9 14.95 22.0 L13.6 19.8 14.6 20.2"/><path fill="none" stroke="#000000" stroke-width="0.5" stroke-opacity="0.301960784314" d="M21.8 14.8 Q20.95 13.2 19.35 11.9 14.75 9.7 12.2 13.45 11.65 14.0 11.75 15.1 M21.8 14.8 Q22.4 15.7 22.65 16.75 23.4 19.55 22.2 19.85 19.4 20.05 16.85 21.65 15.6 22.9 14.95 22.0 L13.6 19.8 12.15 16.55 11.75 15.1"/><path fill="#e9ae2c" stroke="none" d="M16.45 22.3 Q16.35 21.45 17.55 20.75 20.0 18.25 22.7 19.3 24.15 19.6 25.85 21.2 26.0 22.4 24.75 22.5 23.0 22.65 21.05 24.45 20.5 25.0 19.8 24.85 18.95 24.7 17.8 23.8 17.25 23.6 16.45 22.3"/><path fill="#f4cc53" stroke="none" d="M17.05 23.9 L16.55 23.0 Q15.9 22.6 16.35 21.5 19.7 17.75 23.1 18.95 24.7 19.7 25.75 20.75 L26.1 21.15 Q26.25 22.55 25.5 22.65 23.15 23.2 20.95 24.85 19.75 25.85 17.05 23.9 M16.45 22.3 Q17.25 23.6 17.8 23.8 18.95 24.7 19.8 24.85 20.5 25.0 21.05 24.45 23.0 22.65 24.75 22.5 26.0 22.4 25.85 21.2 24.15 19.6 22.7 19.3 20.0 18.25 17.55 20.75 16.35 21.45 16.45 22.3"/><path fill="#d19920" stroke="none" d="M17.05 23.9 Q19.75 25.85 20.95 24.85 23.15 23.2 25.5 22.65 26.25 22.55 26.1 21.15 L26.75 22.2 Q27.75 24.1 26.6 24.45 23.85 24.9 22.0 26.85 L19.5 26.75 Q17.95 25.3 17.05 23.9"/><path fill="none" stroke="#000000" stroke-width="0.5" stroke-opacity="0.301960784314" d="M26.1 21.15 L25.75 20.75 Q24.7 19.7 23.1 18.95 19.7 17.75 16.35 21.5 15.9 22.6 16.55 23.0 L17.05 23.9 M26.1 21.15 L26.75 22.2 Q27.75 24.1 26.6 24.45 23.85 24.9 22.0 26.85 L19.5 26.75 Q17.95 25.3 17.05 23.9"/><path fill="#f4cc53" stroke="none" d="M25.3 24.0 L27.35 23.8 29.6 24.8 29.7 24.8 30.9 24.9 32.1 25.35 32.6 25.65 32.05 25.85 Q31.3 26.05 30.45 25.85 L29.85 25.65 30.35 26.2 30.65 26.4 30.95 26.7 Q31.6 27.65 30.5 28.0 L29.45 28.1 Q25.55 28.4 21.3 27.0 L23.05 25.3 Q21.85 26.6 22.55 26.85 23.85 27.9 28.95 27.85 L30.65 27.75 Q31.5 27.4 30.4 26.4 L29.55 25.5 30.0 25.6 31.5 25.85 Q32.45 25.75 32.05 25.4 L29.7 24.95 29.5 24.95 28.8 24.6 Q28.15 24.2 27.35 23.95 L25.3 24.0 M24.75 31.05 L24.3 29.9 24.05 28.9 Q25.75 28.0 25.5 30.1 L25.25 31.35 Q25.55 29.3 25.05 28.95 L24.4 29.0 Q24.2 29.35 24.75 31.05"/><path fill="#e9ae2c" stroke="none" d="M25.15 31.8 L24.75 31.05 Q24.2 29.35 24.4 29.0 L25.05 28.95 Q25.55 29.3 25.25 31.35 L25.15 31.8 M23.05 25.3 Q24.15 24.4 25.3 24.0 L27.35 23.95 Q28.15 24.2 28.8 24.6 L29.5 24.95 29.7 24.95 32.05 25.4 Q32.45 25.75 31.5 25.85 L30.0 25.6 29.55 25.5 30.4 26.4 Q31.5 27.4 30.65 27.75 L28.95 27.85 Q23.85 27.9 22.55 26.85 21.85 26.6 23.05 25.3"/><path fill="#d19920" stroke="none" d="M32.6 25.65 Q31.9 26.35 30.65 26.4 L30.35 26.2 29.85 25.65 30.45 25.85 Q31.3 26.05 32.05 25.85 L32.6 25.65 M30.95 26.7 Q31.6 27.4 31.9 28.55 30.55 29.2 28.95 29.25 L26.95 29.1 26.25 30.75 Q25.8 31.35 25.15 31.8 L25.25 31.35 25.5 30.1 Q25.75 28.0 24.05 28.9 L23.55 28.7 Q21.0 27.9 21.3 27.0 25.55 28.4 29.45 28.1 L30.5 28.0 Q31.6 27.65 30.95 26.7"/><path fill="none" stroke="#000000" stroke-width="0.5" stroke-opacity="0.301960784314" d="M25.3 24.0 L27.35 23.8 29.6 24.8 29.7 24.8 30.9 24.9 32.1 25.35 32.6 25.65 Q31.9 26.35 30.65 26.4 L30.95 26.7 Q31.6 27.4 31.9 28.55 30.55 29.2 28.95 29.25 L26.95 29.1 26.25 30.75 Q25.8 31.35 25.15 31.8 L24.75 31.05 24.3 29.9 24.05 28.9 23.55 28.7 Q21.0 27.9 21.3 27.0 L23.05 25.3 Q24.15 24.4 25.3 24.0 M30.65 26.4 L30.35 26.2"/><path fill="#f4cc53" stroke="none" d="M19.35 26.65 Q18.1 24.3 16.8 23.85 16.65 24.5 17.85 26.65 18.35 27.3 19.0 27.35 L17.95 27.2 Q16.25 24.5 16.45 23.15 L17.9 24.2 Q19.3 25.85 19.35 26.65"/><path fill="#d19920" stroke="none" d="M19.0 27.35 L19.25 27.15 19.35 26.65 Q19.3 25.85 17.9 24.2 L20.45 27.15 Q19.75 28.3 18.25 27.6 L17.95 27.2 19.0 27.35"/><path fill="#e9ae2c" stroke="none" d="M19.35 26.65 L19.25 27.15 19.0 27.35 Q18.35 27.3 17.85 26.65 16.65 24.5 16.8 23.85 18.1 24.3 19.35 26.65"/><path fill="none" stroke="#000000" stroke-width="0.5" stroke-opacity="0.301960784314" d="M17.95 27.2 L18.25 27.6 Q19.75 28.3 20.45 27.15 L17.9 24.2 16.45 23.15 Q16.25 24.5 17.95 27.2"/><path fill="#f4cc53" stroke="none" d="M12.8 22.0 Q11.65 17.6 12.15 15.4 12.7 15.55 13.6 17.5 14.5 19.95 14.5 21.15 13.35 17.15 12.5 16.15 11.95 17.15 13.0 21.65 L13.6 22.3 12.8 22.0"/><path fill="#d19920" stroke="none" d="M12.8 22.0 L13.6 22.3 Q14.45 22.2 14.5 21.15 14.5 19.95 13.6 17.5 L15.25 21.8 Q14.35 23.55 12.95 22.5 L12.8 22.0"/><path fill="#e9ae2c" stroke="none" d="M13.6 22.3 L13.0 21.65 Q11.95 17.15 12.5 16.15 13.35 17.15 14.5 21.15 14.45 22.2 13.6 22.3"/><path fill="none" stroke="#000000" stroke-width="0.5" stroke-opacity="0.301960784314" d="M13.6 17.5 Q12.7 15.55 12.15 15.4 11.65 17.6 12.8 22.0 M13.6 17.5 L15.25 21.8 Q14.35 23.55 12.95 22.5 L12.8 22.0"/><path fill="#fce772" stroke="none" d="M19.0 13.35 L18.25 12.9 17.3 12.4 Q16.8 12.15 16.8 11.9 L17.4 11.8 18.45 12.15 19.2 12.75 19.4 13.3 19.0 13.35 M20.05 14.55 L20.35 14.3 20.75 14.4 20.95 14.8 21.0 15.25 20.7 15.55 20.35 15.45 20.1 15.05 20.05 14.55 M22.65 19.35 Q22.65 19.55 22.35 19.5 L21.65 19.55 20.95 19.6 20.65 19.4 20.95 19.1 21.65 19.0 22.35 19.05 22.65 19.35 M27.1 24.85 L26.9 24.6 26.9 24.25 27.15 24.05 27.5 24.1 27.75 24.35 27.7 24.7 27.45 24.9 27.1 24.85"/></g><g id="c10"><g><use transform="matrix(1.0,0.0,0.0,1.0,0.0,0.0)" xlink:href="#c2"/></g><g><use transform="matrix(0.238861083984,-0.0867004394531,0.10026550293,0.233917236328,34.25,31.15)" xlink:href="#c4"/></g><g><use transform="matrix(0.238861083984,-0.0867004394531,0.10026550293,0.233917236328,4.25,10.3)" xlink:href="#c4"/></g><g><use transform="matrix(0.141098022461,-0.0378112792969,0.111373901367,0.225646972656,20.25,20.65)" filter="url(#filter7)" xlink:href="#c6"/></g><g><use transform="matrix(-0.155029296875,0.0513153076172,0.0841827392578,0.147033691406,22.6,2.3)" filter="url(#filter8)" xlink:href="#c8"/></g><g><use transform="matrix(1.0,0.0,0.0,1.0,0.0,0.0)" xlink:href="#c9"/></g><g><use transform="matrix(-0.0290985107422,-0.0522766113281,0.0577850341797,-0.0260620117188,16.8,15.5)" filter="url(#filter10)" xlink:href="#c6"/></g><g><use transform="matrix(-0.0300140380859,-0.0353698730469,0.0432281494141,-0.0194702148438,21.6,22.05)" filter="url(#filter11)" xlink:href="#c6"/></g><g><use transform="matrix(-0.0305328369141,-0.0210876464844,0.0293426513672,-0.0240173339844,26.75,26.1)" filter="url(#filter12)" xlink:href="#c6"/></g><g><use transform="matrix(0.162948608398,-0.0436706542969,0.128631591797,0.260604858398,20.35,20.95)" filter="url(#filter13)" xlink:href="#c6"/></g></g><filter id="filter7"><feColorMatrix in="SourceGraphic" type="matrix" values="0.0 0.0 0.0 0.0 0.796875 0.0 0.0 0.0 0.0 0.59765625 0.0 0.0 0.0 0.0 0.19921875 0.0 0.0 0.0 1.0 0.0" result="cxform"/><feComposite operator="in" in2="SourceGraphic" result="color-xform"/></filter><filter id="filter8"><feColorMatrix in="SourceGraphic" type="matrix" values="0.0 0.0 0.0 0.0 0.99609375 0.0 0.0 0.0 0.0 0.99609375 0.0 0.0 0.0 0.0 0.99609375 0.0 0.0 0.0 1.0 0.0" result="cxform"/><feComposite operator="in" in2="SourceGraphic" result="color-xform"/></filter><filter id="filter10"><feColorMatrix in="SourceGraphic" type="matrix" values="0.0 0.0 0.0 0.0 0.99609375 0.0 0.0 0.0 0.0 0.99609375 0.0 0.0 0.0 0.0 0.59375 0.0 0.0 0.0 0.19921875 0.0" result="cxform"/><feComposite operator="in" in2="SourceGraphic" result="color-xform"/></filter><filter id="filter11"><feColorMatrix in="SourceGraphic" type="matrix" values="0.0 0.0 0.0 0.0 0.99609375 0.0 0.0 0.0 0.0 0.99609375 0.0 0.0 0.0 0.0 0.59375 0.0 0.0 0.0 0.19921875 0.0" result="cxform"/><feComposite operator="in" in2="SourceGraphic" result="color-xform"/></filter><filter id="filter12"><feColorMatrix in="SourceGraphic" type="matrix" values="0.0 0.0 0.0 0.0 0.99609375 0.0 0.0 0.0 0.0 0.99609375 0.0 0.0 0.0 0.0 0.59375 0.0 0.0 0.0 0.19921875 0.0" result="cxform"/><feComposite operator="in" in2="SourceGraphic" result="color-xform"/></filter><filter id="filter13"><feColorMatrix in="SourceGraphic" type="matrix" values="1.0 0.0 0.0 0.0 0.0 0.0 1.0 0.0 0.0 0.0 0.0 0.0 1.0 0.0 0.0 0.0 0.0 0.0 0.23046875 0.0" result="cxform"/><feComposite operator="in" in2="SourceGraphic" result="color-xform"/></filter></defs><g><g><use transform="matrix(1.0,0.0,0.0,1.0,0.0,0.0)" xlink:href="#c1"/></g><g><use transform="matrix(1.15496826172,0.0,0.0,1.15496826172,5.85,3.95)" xlink:href="#c10"/></g></g></svg>