<?xml version='1.0' encoding='UTF-8'?>
<svg xmlns:xlink="http://www.w3.org/1999/xlink" xmlns="http://www.w3.org/2000/svg" version="1.1" width="60px" height="60px" viewBox="0.0 0.0 60.0 60.0"><defs><g id="c1"><path fill="#000000" fill-opacity="0.00392156862745" d="M0.0 0.0 L60.0 0.0 60.0 60.0 0.0 60.0 0.0 0.0"/></g><g id="c2"><path fill="none" stroke="#000000" stroke-width="1.0" stroke-opacity="0.301960784314" d="M22.3 0.35 Q26.6 -1.0 28.5 3.05 L41.4 31.7 Q43.1 35.4 39.9 36.85 L38.15 37.65 19.65 43.65 Q17.05 44.5 15.35 43.3 14.2 42.55 13.5 40.9 L0.55 12.25 Q-0.6 9.75 0.6 8.25 1.15 7.55 2.2 7.05 2.85 6.6 3.8 6.3 L22.3 0.35"/><path fill="#5b3c00" stroke="none" d="M0.75 8.25 L29.8 9.75 25.55 0.9 Q26.9 1.6 27.8 3.55 L40.7 32.15 Q42.6 36.3 38.3 37.65 L23.3 42.5 13.15 21.4 4.6 20.9 0.7 12.25 Q-0.45 9.75 0.75 8.25 M20.1 43.55 L19.8 43.65 Q17.15 44.45 15.5 43.3 L20.1 43.55"/><path fill="#724b00" stroke="none" d="M25.55 0.9 L29.8 9.75 0.75 8.25 Q1.45 7.3 3.1 6.75 L21.65 0.8 25.55 0.9 M4.6 20.9 L13.15 21.4 23.3 42.5 20.1 43.55 15.5 43.3 Q14.35 42.55 13.65 40.9 L4.6 20.9"/><path fill="none" stroke="#000000" stroke-width="0.5" stroke-opacity="0.301960784314" d="M0.75 8.25 Q-0.45 9.75 0.7 12.25 L4.6 20.9 M23.3 42.5 L38.3 37.65 Q42.6 36.3 40.7 32.15 L27.8 3.55 Q26.9 1.6 25.55 0.9 L21.65 0.8 3.1 6.75 Q1.45 7.3 0.75 8.25 M20.1 43.55 L19.8 43.65 Q17.15 44.45 15.5 43.3 14.35 42.55 13.65 40.9 L4.6 20.9 M20.1 43.55 L23.3 42.5"/><path fill="#ffcc00" stroke="none" d="M14.2 40.5 L1.35 11.8 Q-0.5 7.75 3.8 6.35 L22.3 0.4 Q26.55 -1.0 28.45 3.1 L41.35 31.7 Q43.25 35.85 38.9 37.25 L20.4 43.2 Q16.1 44.55 14.2 40.5"/><path fill="none" stroke="#000000" stroke-width="0.5" stroke-opacity="0.301960784314" d="M14.2 40.5 L1.35 11.8 Q-0.5 7.75 3.8 6.35 L22.3 0.4 Q26.55 -1.0 28.45 3.1 L41.35 31.7 Q43.25 35.85 38.9 37.25 L20.4 43.2 Q16.1 44.55 14.2 40.5"/><path fill="#fcf2cf" stroke="none" d="M9.15 13.6 Q9.8 12.8 9.55 11.6 L9.1 10.55 22.05 6.35 Q24.9 5.45 26.25 7.85 L26.5 8.3 35.8 29.0 35.95 29.35 Q34.75 29.3 34.1 30.1 33.45 30.9 33.7 32.1 L34.0 32.9 20.65 37.2 Q18.8 37.8 17.65 37.0 16.8 36.4 16.3 35.2 L6.95 14.6 6.8 14.4 7.1 14.4 Q8.4 14.45 9.15 13.6"/><path fill="#996600" stroke="none" d="M28.25 6.1 L35.55 22.3 39.35 30.75 Q41.1 34.5 37.2 35.7 L20.45 41.1 Q16.8 42.25 15.2 39.0 L15.0 38.6 8.25 23.65 3.35 12.8 Q1.65 9.1 5.5 7.85 L22.25 2.5 Q26.05 1.25 27.75 4.95 L28.25 6.1 M9.15 13.6 Q8.4 14.45 7.1 14.4 L6.8 14.4 6.95 14.6 16.3 35.2 Q16.8 36.4 17.65 37.0 18.8 37.8 20.65 37.2 L34.0 32.9 33.7 32.1 Q33.45 30.9 34.1 30.1 34.75 29.3 35.95 29.35 L35.8 29.0 26.5 8.3 26.25 7.85 Q24.9 5.45 22.05 6.35 L9.1 10.55 9.55 11.6 Q9.8 12.8 9.15 13.6"/><path fill="none" stroke="#f0b92b" stroke-width="0.5" d="M9.15 13.6 Q9.8 12.8 9.55 11.6 L9.1 10.55 22.05 6.35 Q24.9 5.45 26.25 7.85 L26.5 8.3 35.8 29.0 35.95 29.35 Q34.75 29.3 34.1 30.1 33.45 30.9 33.7 32.1 L34.0 32.9 20.65 37.2 Q18.8 37.8 17.65 37.0 16.8 36.4 16.3 35.2 L6.95 14.6 6.8 14.4 7.1 14.4 Q8.4 14.45 9.15 13.6"/><path fill="none" stroke="#fcf2cf" stroke-width="1.0" d="M35.55 22.3 L39.35 30.75 Q41.1 34.5 37.2 35.7 L20.45 41.1 Q16.8 42.25 15.2 39.0 L15.0 38.6 M8.25 23.65 L3.35 12.8 Q1.65 9.1 5.5 7.85 L22.25 2.5 Q26.05 1.25 27.75 4.95 L28.25 6.1"/><path fill="none" stroke="#ffaa00" stroke-width="1.0" d="M28.25 6.1 L35.55 22.3 M15.0 38.6 L8.25 23.65"/></g><g id="c3"><path fill="#7fdbfe" stroke="none" d="M10.75 4.9 Q10.75 4.6 10.9 4.35 11.25 3.45 11.95 2.75 13.3 1.5 14.35 2.1 15.4 2.7 14.95 4.45 14.7 5.4 14.1 6.15 L13.75 6.5 Q13.1 7.15 12.35 7.35 L11.4 7.2 Q10.95 6.9 10.75 6.4 10.5 5.75 10.75 4.9 M7.5 5.9 Q7.0 5.85 6.6 5.5 6.05 5.0 5.8 4.15 L5.7 3.6 Q5.55 2.65 5.8 1.7 6.25 0.0 7.5 0.0 L7.6 0.0 Q8.85 0.0 9.3 1.7 9.55 2.65 9.4 3.6 L9.3 4.15 8.5 5.5 7.6 5.9 7.5 5.9 M4.35 4.9 Q4.6 5.75 4.35 6.4 L3.7 7.2 2.75 7.35 Q2.0 7.15 1.35 6.5 L1.0 6.15 Q0.4 5.4 0.15 4.45 -0.3 2.7 0.75 2.1 1.8 1.5 3.15 2.75 3.85 3.45 4.2 4.35 L4.35 4.9 M5.5 13.7 Q4.45 13.9 3.65 12.95 2.75 12.0 3.2 10.25 3.7 8.5 5.25 7.6 6.4 6.9 7.55 7.0 8.75 6.9 9.9 7.6 11.45 8.5 11.95 10.25 12.35 12.0 11.5 12.95 10.7 13.9 9.65 13.7 8.55 13.5 7.55 12.6 6.55 13.5 5.5 13.7"/></g><g id="c4"><g><use transform="matrix(1.0,0.0,0.0,1.0,0.0,0.0)" xlink:href="#c3"/></g></g><radialGradient gradientUnits="userSpaceOnUse" r="819.2" cx="0" cy="0" spreadMethod="pad" gradientTransform="matrix(0.0914459228516,0.0,0.0,0.0914459228516,0.6,3.4)" id="gradient1"><stop offset="0.0" stop-color="#ffffff"/><stop offset="1.0" stop-color="#ffffff" stop-opacity="0.0"/></radialGradient><g id="c5"><path stroke="none" fill="url(#gradient1)" d="M36.65 -54.65 Q60.05 -42.0 69.75 -17.95 80.55 8.9 68.0 34.1 55.45 59.35 26.8 68.2 -1.8 77.05 -29.7 64.3 -57.6 51.6 -68.45 24.75 -79.3 -2.05 -66.75 -27.25 L-66.7 -27.3 Q-54.1 -52.5 -25.5 -61.4 3.1 -70.2 31.0 -57.5 L36.65 -54.65"/></g><g id="c6"><g><use transform="matrix(1.0,0.0,0.0,1.0,0.0,0.0)" xlink:href="#c5"/></g></g><radialGradient gradientUnits="userSpaceOnUse" r="819.2" cx="0" cy="0" spreadMethod="pad" gradientTransform="matrix(0.209197998047,0.0,0.0,0.177108764648,67.15,107.2)" id="gradient2"><stop offset="0.356862745098" stop-color="#ffffff"/><stop offset="0.670588235294" stop-opacity="0.0"/></radialGradient><g id="c7"><path fill="none" stroke-linejoin="round" stroke-linecap="round" stroke="url(#gradient2)" stroke-width="0.5" d="M136.55 165.8 L68.6 106.0 68.4 106.0 118.25 201.5 M68.2 105.7 L68.25 105.8 68.25 105.75 68.2 105.7 0.0 45.7 M68.25 105.8 L68.3 105.85 68.3 105.8 68.25 105.75 49.95 0.05 M0.05 97.7 L68.15 105.95 68.25 105.85 68.25 105.8 M68.3 105.85 L68.25 105.85 68.3 106.0 68.3 105.85 68.3 105.8 68.35 105.8 68.3 105.8 86.6 18.35 M50.0 193.2 L68.3 106.0 68.15 105.95 18.25 151.55 M68.4 106.0 L68.3 106.0 86.55 211.5 M68.4 106.0 L68.3 105.85 M68.6 106.0 L68.35 105.8 118.25 60.15 M136.6 114.25 L68.6 106.0 M68.2 105.7 L18.25 10.05"/></g><g id="c8"><g><use transform="matrix(1.0,0.0,0.0,1.0,0.0,0.0)" xlink:href="#c7"/></g></g><g id="c9"><g><use transform="matrix(1.0,0.0,0.0,1.0,0.0,0.0)" xlink:href="#c2"/></g><g><use transform="matrix(0.238861083984,-0.0867004394531,0.10026550293,0.233917236328,34.25,31.15)" xlink:href="#c4"/></g><g><use transform="matrix(0.238861083984,-0.0867004394531,0.10026550293,0.233917236328,4.25,10.3)" xlink:href="#c4"/></g><g><use transform="matrix(0.141098022461,-0.0378112792969,0.111373901367,0.225646972656,20.25,20.65)" filter="url(#filter7)" xlink:href="#c6"/></g><g><use transform="matrix(-0.155029296875,0.0513153076172,0.0841827392578,0.147033691406,22.6,3.15)" filter="url(#filter8)" xlink:href="#c8"/></g></g><filter id="filter7"><feColorMatrix in="SourceGraphic" type="matrix" values="0.0 0.0 0.0 0.0 0.796875 0.0 0.0 0.0 0.0 0.59765625 0.0 0.0 0.0 0.0 0.19921875 0.0 0.0 0.0 1.0 0.0" result="cxform"/><feComposite operator="in" in2="SourceGraphic" result="color-xform"/></filter><filter id="filter8"><feColorMatrix in="SourceGraphic" type="matrix" values="0.0 0.0 0.0 0.0 0.99609375 0.0 0.0 0.0 0.0 0.99609375 0.0 0.0 0.0 0.0 0.99609375 0.0 0.0 0.0 1.0 0.0" result="cxform"/><feComposite operator="in" in2="SourceGraphic" result="color-xform"/></filter><radialGradient gradientUnits="userSpaceOnUse" r="819.2" cx="0" cy="0" spreadMethod="pad" gradientTransform="matrix(0.0255126953125,0.0,0.0,0.0268249511719,27.35,75.35)" id="gradient3"><stop offset="0.356862745098" stop-color="#ffffff"/><stop offset="0.670588235294" stop-opacity="0.0"/></radialGradient><g id="c10"><path fill="none" stroke-linejoin="round" stroke-linecap="round" stroke="url(#gradient3)" stroke-width="0.5" d="M7.05 61.6 Q7.5 60.95 8.45 60.5 9.1 60.05 10.1 59.7 L28.6 53.75 Q32.85 52.35 34.75 56.45 L47.65 85.05 Q49.25 88.5 46.5 90.05 45.8 90.65 44.6 91.0 L26.1 97.0 Q23.45 97.8 21.8 96.65 20.65 95.9 19.95 94.25 L7.0 65.6 Q5.85 63.1 7.05 61.6"/></g><linearGradient gradientUnits="userSpaceOnUse" x1="-819.2" x2="819.2" spreadMethod="pad" gradientTransform="matrix(0.0255126953125,0.0,0.0,0.0268249511719,20.9,21.95)" id="gradient4"><stop offset="0.0" stop-color="#f90013"/><stop offset="0.160784313725" stop-color="#ff99ff"/><stop offset="0.462745098039" stop-color="#66ffff"/><stop offset="0.721568627451" stop-color="#ff9900"/><stop offset="1.0" stop-color="#33ff00"/></linearGradient><g id="c11"><path stroke="none" fill="url(#gradient4)" d="M0.6 8.2 Q1.05 7.55 2.0 7.1 2.65 6.65 3.65 6.3 L22.15 0.35 Q26.4 -1.05 28.3 3.05 L41.2 31.65 Q42.8 35.1 40.05 36.65 39.35 37.25 38.15 37.6 L19.65 43.6 Q17.0 44.4 15.35 43.25 14.2 42.5 13.5 40.85 L0.55 12.2 Q-0.6 9.7 0.6 8.2"/></g><g id="c12"><g><use transform="matrix(1.0,0.0,0.0,1.0,0.0,0.0)" xlink:href="#c11"/></g></g><radialGradient gradientUnits="userSpaceOnUse" r="819.2" cx="0" cy="0" spreadMethod="pad" gradientTransform="matrix(0.0202484130859,0.0,0.0,0.00755310058594,0.0,-6.1)" id="gradient5"><stop offset="0.505882352941" stop-color="#382510" stop-opacity="0.501960784314"/><stop offset="1.0" stop-color="#382510" stop-opacity="0.0"/></radialGradient><g id="c13"><path stroke="none" fill="url(#gradient5)" d="M0.0 -12.2 Q6.8 -12.2 11.6 -10.4 16.35 -8.6 16.35 -6.1 16.35 -3.55 11.6 -1.75 6.8 0.0 0.0 0.0 -6.75 0.0 -11.55 -1.75 -16.35 -3.55 -16.35 -6.1 -16.35 -8.6 -11.55 -10.4 -6.75 -12.2 0.0 -12.2"/></g><g id="c14"><g><use transform="matrix(1.0,0.0,0.0,1.0,0.0,0.0)" xlink:href="#c13"/></g></g><linearGradient gradientUnits="userSpaceOnUse" x1="-819.2" x2="819.2" spreadMethod="pad" gradientTransform="matrix(-0.00117492675781,0.00204467773438,-0.000900268554688,-0.000518798828125,23.0,71.35)" id="gradient6"><stop offset="0.0" stop-color="#ffffff" stop-opacity="0.721568627451"/><stop offset="1.0" stop-color="#ffffff" stop-opacity="0.0"/></linearGradient><linearGradient gradientUnits="userSpaceOnUse" x1="-819.2" x2="819.2" spreadMethod="pad" gradientTransform="matrix(0.000701904296875,-0.00018310546875,7.62939453125e-05,0.00030517578125,23.65,70.75)" id="gradient7"><stop offset="0.0" stop-color="#ffffff" stop-opacity="0.721568627451"/><stop offset="1.0" stop-color="#ffffff" stop-opacity="0.0"/></linearGradient><linearGradient gradientUnits="userSpaceOnUse" x1="-819.2" x2="819.2" spreadMethod="pad" gradientTransform="matrix(-0.000823974609375,0.00314331054688,-0.00204467773438,-0.000534057617188,24.1,72.4)" id="gradient8"><stop offset="0.0" stop-color="#ffffff" stop-opacity="0.721568627451"/><stop offset="1.0" stop-color="#ffffff" stop-opacity="0.0"/></linearGradient><linearGradient gradientUnits="userSpaceOnUse" x1="-819.2" x2="819.2" spreadMethod="pad" gradientTransform="matrix(0.00160217285156,0.00160217285156,-0.00100708007812,0.00100708007812,29.2,70.35)" id="gradient9"><stop offset="0.0" stop-color="#ffffff" stop-opacity="0.721568627451"/><stop offset="1.0" stop-color="#ffffff" stop-opacity="0.0"/></linearGradient><linearGradient gradientUnits="userSpaceOnUse" x1="-819.2" x2="819.2" spreadMethod="pad" gradientTransform="matrix(0.00233459472656,0.00233459472656,-0.0015869140625,0.00157165527344,28.4,71.9)" id="gradient10"><stop offset="0.0" stop-color="#ffffff" stop-opacity="0.721568627451"/><stop offset="1.0" stop-color="#ffffff" stop-opacity="0.0"/></linearGradient><linearGradient gradientUnits="userSpaceOnUse" x1="-819.2" x2="819.2" spreadMethod="pad" gradientTransform="matrix(0.00276184082031,-0.000732421875,0.000274658203125,0.00106811523438,27.15,69.6)" id="gradient11"><stop offset="0.0" stop-color="#ffffff" stop-opacity="0.721568627451"/><stop offset="1.0" stop-color="#ffffff" stop-opacity="0.0"/></linearGradient><linearGradient gradientUnits="userSpaceOnUse" x1="-819.2" x2="819.2" spreadMethod="pad" gradientTransform="matrix(0.00277709960938,-0.000732421875,0.000289916992188,0.0010986328125,26.65,70.0)" id="gradient12"><stop offset="0.0" stop-color="#ffffff" stop-opacity="0.721568627451"/><stop offset="1.0" stop-color="#ffffff" stop-opacity="0.0"/></linearGradient><linearGradient gradientUnits="userSpaceOnUse" x1="-819.2" x2="819.2" spreadMethod="pad" gradientTransform="matrix(0.00276184082031,-0.000732421875,0.000289916992188,0.0010986328125,25.9,70.65)" id="gradient13"><stop offset="0.0" stop-color="#ffffff" stop-opacity="0.721568627451"/><stop offset="1.0" stop-color="#ffffff" stop-opacity="0.0"/></linearGradient><linearGradient gradientUnits="userSpaceOnUse" x1="-819.2" x2="819.2" spreadMethod="pad" gradientTransform="matrix(-0.000930786132812,-0.000946044921875,0.000885009765625,-0.000900268554688,31.7,80.35)" id="gradient14"><stop offset="0.0" stop-color="#ffffff" stop-opacity="0.721568627451"/><stop offset="1.0" stop-color="#ffffff" stop-opacity="0.0"/></linearGradient><linearGradient gradientUnits="userSpaceOnUse" x1="-819.2" x2="819.2" spreadMethod="pad" gradientTransform="matrix(0.00267028808594,-0.000701904296875,0.00126647949219,0.00477600097656,25.15,76.95)" id="gradient15"><stop offset="0.0" stop-color="#ffffff"/><stop offset="1.0" stop-color="#ffffff" stop-opacity="0.0"/></linearGradient><linearGradient gradientUnits="userSpaceOnUse" x1="-819.2" x2="819.2" spreadMethod="pad" gradientTransform="matrix(0.000625610351562,-0.000167846679688,0.000274658203125,0.00102233886719,23.15,80.0)" id="gradient16"><stop offset="0.0" stop-color="#ffffff"/><stop offset="1.0" stop-color="#ffffff" stop-opacity="0.0"/></linearGradient><linearGradient gradientUnits="userSpaceOnUse" x1="-819.2" x2="819.2" spreadMethod="pad" gradientTransform="matrix(0.00186157226562,-0.00048828125,0.000762939453125,0.00288391113281,22.35,77.95)" id="gradient17"><stop offset="0.0" stop-color="#ffffff"/><stop offset="1.0" stop-color="#ffffff" stop-opacity="0.0"/></linearGradient><linearGradient gradientUnits="userSpaceOnUse" x1="-819.2" x2="819.2" spreadMethod="pad" gradientTransform="matrix(0.000823974609375,-0.000213623046875,0.000900268554688,0.00338745117188,25.9,78.65)" id="gradient18"><stop offset="0.0" stop-color="#ffffff"/><stop offset="1.0" stop-color="#ffffff" stop-opacity="0.0"/></linearGradient><linearGradient gradientUnits="userSpaceOnUse" x1="-819.2" x2="819.2" spreadMethod="pad" gradientTransform="matrix(0.000564575195312,-0.000137329101562,0.00143432617188,0.00540161132812,27.3,77.5)" id="gradient19"><stop offset="0.0" stop-color="#ffffff"/><stop offset="1.0" stop-color="#ffffff" stop-opacity="0.0"/></linearGradient><linearGradient gradientUnits="userSpaceOnUse" x1="-819.2" x2="819.2" spreadMethod="pad" gradientTransform="matrix(-0.00303649902344,-0.0030517578125,0.00335693359375,-0.00335693359375,31.65,79.4)" id="gradient20"><stop offset="0.0" stop-color="#ffffff" stop-opacity="0.721568627451"/><stop offset="1.0" stop-color="#ffffff" stop-opacity="0.0"/></linearGradient><linearGradient gradientUnits="userSpaceOnUse" x1="-819.2" x2="819.2" spreadMethod="pad" gradientTransform="matrix(-0.00733947753906,-0.00735473632812,0.00396728515625,-0.00396728515625,33.1,78.35)" id="gradient21"><stop offset="0.0" stop-color="#ffffff" stop-opacity="0.721568627451"/><stop offset="1.0" stop-color="#ffffff" stop-opacity="0.0"/></linearGradient><linearGradient gradientUnits="userSpaceOnUse" x1="-819.2" x2="819.2" spreadMethod="pad" gradientTransform="matrix(0.00445556640625,0.00447082519531,-0.0040283203125,0.00401306152344,29.85,71.05)" id="gradient22"><stop offset="0.0" stop-color="#ffffff" stop-opacity="0.721568627451"/><stop offset="1.0" stop-color="#ffffff" stop-opacity="0.0"/></linearGradient><linearGradient gradientUnits="userSpaceOnUse" x1="-819.2" x2="819.2" spreadMethod="pad" gradientTransform="matrix(0.002197265625,-0.000579833984375,0.00141906738281,0.00529479980469,33.4,73.05)" id="gradient23"><stop offset="0.0" stop-color="#ffffff" stop-opacity="0.721568627451"/><stop offset="1.0" stop-color="#ffffff" stop-opacity="0.0"/></linearGradient><g id="c15"><path fill="#ededff" stroke="none" d="M24.55 69.45 L25.6 68.45 27.15 68.1 27.4 68.15 24.7 69.35 24.55 69.45 M30.15 68.7 L30.85 68.85 30.95 68.9 30.5 69.25 30.05 69.6 29.8 69.85 30.35 69.15 30.15 68.7"/><path fill="#d7d7e8" stroke="none" d="M27.4 68.15 L27.65 68.2 30.15 68.7 30.35 69.15 29.8 69.85 29.7 69.95 29.35 70.25 29.25 70.4 28.5 71.0 28.25 71.25 26.25 71.8 24.15 71.35 22.95 71.1 22.75 71.1 22.7 71.05 23.1 70.7 23.45 70.4 24.2 69.75 24.55 69.45 24.7 69.35 27.4 68.15 M23.45 70.4 L28.5 71.0 23.45 70.4 M24.4 70.95 L23.1 70.7 24.4 70.95 M24.2 69.75 L29.25 70.4 24.2 69.75 M24.7 69.35 L29.7 69.95 24.7 69.35"/><path fill="#acacba" stroke="none" d="M30.65 82.1 L29.5 82.4 29.8 81.15 29.85 81.2 30.65 82.1 M26.25 71.8 L28.25 71.25 27.65 73.0 26.25 71.8"/><path fill="#c2c2d1" stroke="none" d="M29.5 82.4 L28.1 82.15 27.05 81.9 26.85 81.9 26.05 81.75 25.2 81.55 24.35 81.4 24.15 81.35 22.95 81.1 24.15 71.35 22.95 81.1 22.2 80.95 21.55 80.8 20.9 80.65 20.05 80.5 19.5 79.55 22.75 71.1 22.95 71.1 22.3 73.15 22.95 71.1 24.15 71.35 26.25 71.8 27.65 73.0 29.8 81.15 29.5 82.4 M25.1 72.85 L24.15 81.35 25.1 72.85 M23.4 72.05 L21.55 80.8 23.4 72.05 M23.4 75.2 L24.15 71.35 23.4 75.2 M26.65 73.0 L28.1 82.15 26.65 73.0 M25.9 75.75 L26.05 81.75 25.9 75.75"/><path fill="#5f6172" stroke="none" d="M30.95 68.9 L37.95 74.6 37.9 75.7 36.45 76.95 35.5 77.9 35.3 78.05 34.8 78.5 33.55 79.55 32.35 80.65 31.75 81.15 30.65 82.1 29.85 81.2 29.8 81.15 27.65 73.0 28.25 71.25 28.5 71.0 29.25 70.4 29.35 70.25 29.7 69.95 29.8 69.85 30.05 69.6 30.5 69.25 30.95 68.9 M30.1 74.4 L28.5 71.0 30.1 74.4 M31.05 72.8 L29.35 70.25 31.05 72.8 M30.65 79.25 L31.75 81.15 30.65 79.25 M36.45 76.95 L30.5 69.25 36.45 76.95 M30.05 69.6 L35.5 77.9 30.05 69.6 M29.3 71.1 L33.55 79.55 29.3 71.1 M32.35 80.65 L28.7 73.5 32.35 80.65"/><path fill="none" stroke="#000000" stroke-width="0.5" stroke-opacity="0.101960784314" d="M24.55 69.45 L25.6 68.45 27.15 68.1 27.4 68.15 M27.65 68.2 L30.15 68.7 30.85 68.85 30.9 68.85 30.95 68.9 37.95 74.6 37.9 75.7 36.45 76.95 35.5 77.9 35.3 78.05 M34.8 78.5 L33.55 79.55 32.35 80.65 31.75 81.15 30.65 82.1 29.85 81.2 M29.5 82.4 L28.1 82.15 27.05 81.9 M26.85 81.9 L26.05 81.75 25.2 81.55 M24.35 81.4 L24.15 81.35 M22.7 71.05 L23.1 70.7 23.45 70.4 24.2 69.75 24.55 69.45 M26.25 71.8 L28.25 71.25 28.5 71.0 29.25 70.4 29.35 70.25 29.7 69.95 M26.25 71.8 L24.15 71.35 22.95 71.1 22.75 71.1 19.5 79.55 20.05 80.5 20.9 80.65 M22.95 81.1 L24.15 81.35 M22.7 71.05 L22.75 71.1 22.7 71.05 M26.25 71.8 L27.65 73.0 28.25 71.25 M29.8 69.85 L30.05 69.6 30.5 69.25 30.95 68.9 30.85 68.85 M29.8 81.15 L29.5 82.4 M22.95 81.1 L22.2 80.95"/><path fill="none" stroke-linejoin="round" stroke-linecap="round" stroke="url(#gradient6)" stroke-width="0.5" d="M22.95 71.1 L22.3 73.15"/><path fill="none" stroke-linejoin="round" stroke-linecap="round" stroke="url(#gradient7)" stroke-width="0.5" d="M23.1 70.7 L24.4 70.95"/><path fill="none" stroke-linejoin="round" stroke-linecap="round" stroke="url(#gradient8)" stroke-width="0.5" d="M24.15 71.35 L23.4 75.2"/><path fill="none" stroke-linejoin="round" stroke-linecap="round" stroke="url(#gradient9)" stroke-width="0.5" d="M29.35 70.25 L31.05 72.8"/><path fill="none" stroke-linejoin="round" stroke-linecap="round" stroke="url(#gradient10)" stroke-width="0.5" d="M28.5 71.0 L30.1 74.4"/><path fill="none" stroke-linejoin="round" stroke-linecap="round" stroke="url(#gradient11)" stroke-width="0.5" d="M29.7 69.95 L24.7 69.35"/><path fill="none" stroke-linejoin="round" stroke-linecap="round" stroke="url(#gradient12)" stroke-width="0.5" d="M29.25 70.4 L24.2 69.75"/><path fill="none" stroke-linejoin="round" stroke-linecap="round" stroke="url(#gradient13)" stroke-width="0.5" d="M28.5 71.0 L23.45 70.4"/><path fill="none" stroke-linejoin="round" stroke-linecap="round" stroke="url(#gradient14)" stroke-width="0.5" d="M31.75 81.15 L30.65 79.25"/><path fill="none" stroke="#010101" stroke-width="0.5" stroke-opacity="0.0" d="M35.3 78.05 L34.8 78.5 M27.05 81.9 L26.85 81.9 M25.2 81.55 L24.35 81.4 M20.9 80.65 L21.55 80.8 M22.2 80.95 L21.55 80.8"/><path fill="none" stroke-linejoin="round" stroke-linecap="round" stroke="url(#gradient15)" stroke-width="0.5" d="M24.15 81.35 L24.15 81.5 M24.15 81.35 L25.1 72.85"/><path fill="none" stroke-linejoin="round" stroke-linecap="round" stroke="url(#gradient16)" stroke-width="0.5" d="M24.15 71.35 L22.95 81.1"/><path fill="none" stroke-linejoin="round" stroke-linecap="round" stroke="url(#gradient17)" stroke-width="0.5" d="M21.55 80.8 L23.4 72.05"/><path fill="none" stroke-linejoin="round" stroke-linecap="round" stroke="url(#gradient18)" stroke-width="0.5" d="M26.05 81.75 L25.9 75.75"/><path fill="none" stroke-linejoin="round" stroke-linecap="round" stroke="url(#gradient19)" stroke-width="0.5" d="M28.1 82.15 L26.65 73.0"/><path fill="none" stroke-linejoin="round" stroke-linecap="round" stroke="url(#gradient20)" stroke-width="0.5" d="M28.7 73.5 L32.35 80.65"/><path fill="none" stroke-linejoin="round" stroke-linecap="round" stroke="url(#gradient21)" stroke-width="0.5" d="M33.55 79.55 L29.3 71.1"/><path fill="none" stroke-linejoin="round" stroke-linecap="round" stroke="url(#gradient22)" stroke-width="0.5" d="M35.5 77.9 L30.05 69.6"/><path fill="none" stroke-linejoin="round" stroke-linecap="round" stroke="url(#gradient23)" stroke-width="0.5" d="M30.5 69.25 L36.45 76.95"/></g><linearGradient gradientUnits="userSpaceOnUse" x1="-819.2" x2="819.2" spreadMethod="pad" gradientTransform="matrix(0.0177001953125,0.0177001953125,-0.0140228271484,0.0140228271484,-10.1,-30.4)" id="gradient24"><stop offset="0.0" stop-color="#ffffff"/><stop offset="1.0" stop-color="#ffffff" stop-opacity="0.0"/></linearGradient><g id="c16"><path stroke="none" fill="url(#gradient24)" d="M15.5 -28.5 L12.6 -27.05 12.35 -26.9 8.3 -24.9 6.0 -21.45 6.0 -2.4 7.3 0.0 4.65 0.0 -14.75 -9.65 -15.45 -12.0 -12.9 -15.45 -12.95 -15.5 -3.5 -28.5 -3.45 -28.6 -1.05 -29.8 0.35 -31.7 0.6 -30.6 4.3 -32.5 7.8 -32.45 Q11.65 -30.5 15.45 -28.6 L15.5 -28.5"/></g><g id="c17"><g><use transform="matrix(1.0,0.0,0.0,1.0,0.0,0.0)" xlink:href="#c16"/></g></g><g id="c18"><path fill="#fcf3d8" fill-opacity="0.301960784314" d="M26.0 70.4 Q25.5 70.6 25.05 70.95 24.45 71.55 24.45 72.3 24.45 73.15 25.1 73.7 L24.1 74.95 25.5 74.0 26.55 74.25 27.55 73.95 28.25 74.35 28.1 73.6 28.15 73.55 Q28.7 72.95 28.7 72.2 28.7 71.4 28.1 70.85 27.75 70.55 27.3 70.4 26.75 70.0 26.8 68.6 26.7 69.8 26.0 70.4 M25.95 71.7 Q26.25 71.4 26.65 71.4 27.1 71.35 27.45 71.65 L27.75 72.35 27.45 73.0 26.7 73.35 Q26.2 73.35 25.95 73.05 25.65 72.75 25.65 72.35 25.65 71.95 25.95 71.7"/><path fill="#fcf3d8" stroke="none" d="M25.95 71.7 Q25.65 71.95 25.65 72.35 25.65 72.75 25.95 73.05 26.2 73.35 26.7 73.35 L27.45 73.0 27.75 72.35 27.45 71.65 Q27.1 71.35 26.65 71.4 26.25 71.4 25.95 71.7"/><path fill="#fcf3d8" stroke="none" d="M26.65 71.8 L24.1 70.1 26.25 72.15 25.5 74.2 26.9 72.8 30.9 75.45 27.35 72.2 31.2 65.6 26.65 71.8"/><path fill="none" stroke="#ffcc00" stroke-width="0.5" d="M7.05 61.6 Q7.5 60.95 8.45 60.5 9.1 60.05 10.1 59.7 L28.6 53.75 Q32.85 52.35 34.75 56.45 L47.65 85.05 Q49.25 88.5 46.5 90.05 45.8 90.65 44.6 91.0 L26.1 97.0 Q23.45 97.8 21.8 96.65 20.65 95.9 19.95 94.25 L7.0 65.6 Q5.85 63.1 7.05 61.6"/></g><g id="c19"><path fill="#ffffff" stroke="none" d="M7.05 61.6 Q7.5 60.95 8.45 60.5 9.1 60.05 10.1 59.7 L28.6 53.75 Q32.85 52.35 34.75 56.45 L47.65 85.05 Q49.25 88.5 46.5 90.05 45.8 90.65 44.6 91.0 L26.1 97.0 Q23.45 97.8 21.8 96.65 20.65 95.9 19.95 94.25 L7.0 65.6 Q5.85 63.1 7.05 61.6"/><path fill="#ffffff" stroke-linejoin="round" stroke-linecap="round" stroke="url(#gradient3)" stroke-width="0.5" d="M7.05 61.6 Q7.5 60.95 8.45 60.5 9.1 60.05 10.1 59.7 L28.6 53.75 Q32.85 52.35 34.75 56.45 L47.65 85.05 Q49.25 88.5 46.5 90.05 45.8 90.65 44.6 91.0 L26.1 97.0 Q23.45 97.8 21.8 96.65 20.65 95.9 19.95 94.25 L7.0 65.6 Q5.85 63.1 7.05 61.6"/></g><linearGradient gradientUnits="userSpaceOnUse" x1="-819.2" x2="819.2" spreadMethod="pad" gradientTransform="matrix(-0.0125732421875,0.0358276367188,-0.0249176025391,-0.0237579345703,24.2,32.05)" id="gradient26"><stop offset="0.0" stop-opacity="0.337254901961"/><stop offset="1.0" stop-opacity="0.0"/></linearGradient><linearGradient gradientUnits="userSpaceOnUse" x1="-819.2" x2="819.2" spreadMethod="pad" gradientTransform="matrix(-0.00735473632812,0.0306396484375,-0.0266723632812,-0.0176086425781,34.25,44.6)" id="gradient27"><stop offset="0.0" stop-opacity="0.337254901961"/><stop offset="1.0" stop-opacity="0.0"/></linearGradient><linearGradient gradientUnits="userSpaceOnUse" x1="-819.2" x2="819.2" spreadMethod="pad" gradientTransform="matrix(-0.00982666015625,0.0313873291016,-0.0181274414062,-0.0154724121094,4.1,17.85)" id="gradient28"><stop offset="0.0" stop-opacity="0.337254901961"/><stop offset="1.0" stop-opacity="0.0"/></linearGradient><linearGradient gradientUnits="userSpaceOnUse" x1="-819.2" x2="819.2" spreadMethod="pad" gradientTransform="matrix(0.0,0.0410766601562,-0.0333709716797,-0.0151062011719,15.9,32.85)" id="gradient29"><stop offset="0.0" stop-opacity="0.337254901961"/><stop offset="1.0" stop-opacity="0.0"/></linearGradient><g id="c20"><path stroke="none" fill="url(#gradient26)" d="M21.35 46.7 L21.35 1.75 26.45 1.75 26.45 46.7 21.35 46.7"/><path stroke="none" fill="url(#gradient27)" d="M31.7 5.7 L36.8 5.55 36.8 46.7 31.7 46.7 31.7 5.7"/><path stroke="none" fill="url(#gradient28)" d="M0.0 6.65 L5.1 6.45 5.1 46.7 0.0 46.7 0.0 6.65"/><path stroke="none" fill="url(#gradient29)" d="M9.35 46.7 L9.65 1.75 15.75 1.75 15.0 46.7 9.35 46.7"/></g><g id="c21"><g><use transform="matrix(1.0,0.0,0.0,1.0,0.0,0.0)" xlink:href="#c20"/></g></g><g id="c22"><path fill="#fefd8d" fill-opacity="0.972549019608" d="M33.85 83.75 L33.85 83.8 33.85 83.95 33.85 84.0 33.85 84.1 33.9 84.1 33.9 84.15 34.35 84.4 34.85 84.75 34.35 84.45 34.1 84.3 34.05 84.25 33.95 84.2 33.9 84.2 33.9 84.7 33.9 85.25 33.85 84.75 33.75 84.2 33.7 84.1 33.5 84.25 33.0 84.55 32.7 84.7 32.95 84.5 33.4 84.3 33.45 84.25 33.5 84.2 33.7 84.1 33.65 84.05 33.7 84.05 33.7 84.0 33.3 83.6 32.95 83.25 33.3 83.55 33.55 83.8 33.7 83.95 33.8 83.4 33.9 82.95 33.85 83.35 33.85 83.75 M34.4 83.9 L34.35 83.9 34.25 84.0 34.15 84.0 33.9 84.05 34.15 83.95 34.7 83.75 35.2 83.65 34.85 83.75 34.95 83.85 34.85 83.75 34.7 83.8 34.4 83.9 M36.75 85.45 L36.9 85.55 36.9 85.5 37.1 83.9 37.35 82.3 37.45 81.75 37.4 82.25 37.4 83.85 37.2 85.6 37.35 86.0 37.4 86.1 38.7 86.9 40.15 87.75 40.55 88.05 40.1 87.8 38.75 87.05 37.75 86.45 37.4 86.25 37.35 86.2 37.4 86.3 37.5 87.75 37.55 89.45 37.6 90.0 37.5 89.5 37.25 87.9 37.05 86.25 37.0 86.3 36.9 85.9 36.7 85.75 36.9 85.85 36.9 85.65 35.7 84.55 34.95 83.85 35.65 84.4 36.45 85.15 36.5 85.2 36.75 85.45 M36.1 86.45 L36.2 86.4 36.85 86.1 36.3 86.45 34.8 87.25 33.35 88.0 32.8 88.25 33.3 88.0 34.65 87.2 35.7 86.65 36.1 86.45 M41.85 84.45 L41.35 84.6 39.85 85.15 38.15 85.7 37.5 85.9 Q37.45 85.85 38.1 85.65 L39.7 85.1 41.3 84.6 41.85 84.45"/><path fill="#fffd8f" fill-opacity="0.4" d="M33.85 83.75 L34.05 83.4 34.25 83.2 34.15 83.4 34.0 83.8 33.9 83.9 33.85 83.8 33.85 83.75 M34.1 84.3 L34.35 84.5 34.45 84.65 34.25 84.5 34.0 84.3 33.95 84.2 34.05 84.25 34.1 84.3 M33.4 84.3 L33.3 84.3 32.95 84.45 32.7 84.55 32.95 84.4 33.35 84.25 33.45 84.25 33.4 84.3 M33.55 83.8 L33.4 83.6 33.6 83.8 33.65 83.9 33.55 83.8 M34.4 83.9 L34.65 83.85 34.95 83.85 35.05 83.8 34.95 83.85 34.7 83.9 34.3 84.0 34.2 84.0 34.25 84.0 34.35 83.9 34.4 83.9 M33.6 84.3 L33.7 84.2 33.75 84.35 33.65 84.7 33.55 85.05 33.55 84.75 33.6 84.3 M37.65 85.15 L37.35 85.5 37.35 85.0 37.9 84.05 38.5 83.1 38.7 82.75 38.55 83.1 38.15 84.05 37.65 85.15 M36.75 85.45 L36.5 85.2 36.45 85.15 35.85 84.4 35.45 83.85 35.95 84.3 36.65 85.15 36.9 85.5 36.75 85.45 M37.4 86.3 L37.35 86.2 37.4 86.25 37.75 86.45 Q38.15 86.7 38.6 87.1 L39.3 87.75 38.5 87.15 37.6 86.5 37.4 86.3 M36.1 86.45 L35.7 86.65 34.7 87.0 33.8 87.3 34.7 86.95 35.75 86.5 36.1 86.45 M38.7 85.65 L38.25 85.7 38.7 85.55 39.75 85.35 40.7 85.2 41.05 85.15 40.75 85.25 39.8 85.45 38.7 85.65 M36.7 86.7 L36.95 86.25 37.0 86.75 36.65 87.8 36.3 88.85 36.15 89.25 36.25 88.85 36.4 87.85 Q36.5 87.1 36.7 86.7"/><path fill="#fffd8f" fill-opacity="0.392156862745" d="M38.0 86.75 Q37.9 86.0 37.45 85.8 L36.9 85.85 Q36.75 86.1 36.9 86.5 37.1 87.0 37.65 87.3 L38.35 87.95 38.6 88.25 38.45 87.85 38.0 86.75"/><path fill="#fffd8f" fill-opacity="0.392156862745" d="M38.0 86.25 L37.05 85.85 Q36.8 85.8 36.95 85.95 L37.55 86.35 38.35 86.6 Q38.8 86.65 39.05 86.85 L39.35 86.95 39.0 86.75 38.0 86.25"/><path fill="#fffd8f" fill-opacity="0.392156862745" d="M36.4 84.8 Q36.35 85.55 36.75 85.85 L37.3 85.9 37.45 85.25 Q37.35 84.75 36.9 84.35 36.35 83.9 36.3 83.55 L36.1 83.25 36.2 83.65 36.4 84.8"/><path fill="#fffd8f" fill-opacity="0.392156862745" d="M36.25 85.35 L37.1 85.95 37.2 85.8 36.75 85.3 35.95 84.9 Q35.55 84.75 35.3 84.6 L35.05 84.45 35.35 84.65 36.25 85.35"/><path fill="#fffd8f" fill-opacity="0.392156862745" d="M38.75 85.2 Q38.0 85.45 37.85 85.65 37.7 85.85 37.85 85.8 L38.5 85.65 39.25 85.2 39.9 84.75 40.15 84.6 39.75 84.75 38.75 85.2"/><path fill="#fffd8f" fill-opacity="0.392156862745" d="M35.75 87.0 L36.6 86.4 36.5 86.25 Q36.25 86.25 35.9 86.5 L35.25 87.1 34.7 87.65 Q34.4 87.8 34.45 87.85 L34.8 87.6 35.75 87.0"/><path fill="#fffd8f" fill-opacity="0.392156862745" d="M34.1 84.35 L33.95 84.05 33.75 84.05 Q33.65 84.1 33.7 84.25 L34.0 84.55 34.2 84.75 34.3 84.85 34.2 84.75 34.1 84.35"/><path fill="#fffd8f" fill-opacity="0.392156862745" d="M34.1 84.2 Q33.9 84.05 33.75 84.05 L33.75 84.1 33.95 84.2 34.2 84.3 34.5 84.4 34.55 84.4 34.45 84.4 34.1 84.2"/><path fill="#fffd8f" fill-opacity="0.392156862745" d="M33.5 83.65 L33.65 84.05 33.85 84.05 33.9 83.85 33.65 83.55 33.5 83.25 33.45 83.15 33.5 83.25 33.5 83.65"/><path fill="#fffd8f" fill-opacity="0.392156862745" d="M33.5 83.9 L33.75 84.05 33.8 84.0 33.65 83.85 33.35 83.7 33.2 83.6 33.05 83.55 33.15 83.6 33.5 83.9"/><path fill="#fffd8f" fill-opacity="0.392156862745" d="M34.3 83.8 L34.05 83.95 34.05 84.0 34.25 83.95 34.55 83.8 Q34.6 83.7 34.7 83.7 L34.8 83.6 34.7 83.65 34.3 83.8"/><path fill="#fffd8f" fill-opacity="0.392156862745" d="M33.3 84.45 L33.6 84.2 33.6 84.15 Q33.5 84.15 33.4 84.3 L33.15 84.45 32.95 84.65 32.85 84.75 33.0 84.6 33.3 84.45"/><path fill="#ffffff" stroke="none" d="M36.3 85.35 Q36.05 85.7 36.05 86.15 L36.5 86.9 37.3 87.15 38.05 86.75 38.25 85.9 37.85 85.2 37.05 84.95 36.3 85.35"/><path fill="#fefd8d" fill-opacity="0.972549019608" d="M18.75 62.3 L18.65 62.35 18.2 62.45 18.6 62.25 19.85 61.9 21.0 61.5 21.4 61.35 21.05 61.5 19.9 61.9 18.75 62.3 M17.45 61.95 L17.7 62.2 17.75 62.2 17.7 62.15 17.85 61.05 18.05 59.85 18.15 59.4 18.1 59.8 18.05 61.0 18.0 62.25 18.1 62.6 19.15 63.2 20.0 63.75 19.15 63.3 18.5 62.95 18.4 62.85 18.15 62.7 18.1 62.7 18.15 62.75 18.2 63.85 18.2 64.9 18.0 64.0 17.85 62.8 17.8 62.8 17.75 62.45 17.6 62.3 17.7 62.35 17.7 62.3 16.85 61.5 15.9 60.65 15.65 60.35 15.95 60.65 16.8 61.4 17.45 61.95 M14.7 64.25 L15.05 64.05 16.1 63.45 17.25 62.85 17.7 62.65 17.3 62.95 16.2 63.45 15.1 64.05 14.7 64.25"/><path fill="#fffd8f" fill-opacity="0.4" d="M18.75 62.3 L19.1 62.2 19.85 62.05 20.6 61.95 19.85 62.15 19.05 62.3 18.75 62.3 M17.45 61.95 L16.95 61.35 16.5 60.75 17.0 61.3 17.55 61.95 17.7 62.15 17.75 62.2 17.7 62.2 17.45 61.95 M18.5 62.95 L19.0 63.35 19.6 63.8 19.8 64.0 19.6 63.85 18.95 63.4 18.3 62.9 18.15 62.75 18.1 62.7 18.15 62.7 18.4 62.85 18.5 62.95 M18.3 61.9 L18.05 62.2 18.1 61.85 18.45 61.15 18.9 60.4 19.1 60.2 18.95 60.4 18.65 61.15 18.3 61.9 M16.9 62.9 L17.2 62.85 Q17.15 62.9 16.85 63.05 L16.15 63.3 15.45 63.55 15.2 63.6 15.45 63.5 16.1 63.25 Q16.6 63.0 16.9 62.9 M17.55 63.1 L17.75 62.75 17.8 63.1 17.6 63.95 17.25 64.7 17.15 64.95 17.2 64.7 17.4 63.9 Q17.4 63.4 17.55 63.1"/><path fill="#fffd8f" fill-opacity="0.392156862745" d="M18.6 63.1 L18.15 62.4 17.7 62.45 17.75 62.95 18.3 63.55 Q18.75 63.8 18.8 64.0 L19.0 64.25 18.85 63.95 18.6 63.1"/><path fill="#fffd8f" fill-opacity="0.392156862745" d="M18.55 62.7 Q18.05 62.4 17.9 62.4 17.7 62.4 17.8 62.5 L18.25 62.8 18.85 63.0 19.35 63.15 19.6 63.2 19.35 63.1 18.55 62.7"/><path fill="#fffd8f" fill-opacity="0.392156862745" d="M17.3 61.7 Q17.35 62.3 17.55 62.45 L18.0 62.5 18.1 62.0 17.65 61.35 17.25 60.75 17.15 60.5 17.2 60.8 17.3 61.7"/><path fill="#fffd8f" fill-opacity="0.392156862745" d="M17.25 62.1 L17.9 62.5 17.95 62.45 17.6 62.05 17.05 61.75 16.55 61.5 16.35 61.4 16.55 61.6 Q16.8 61.7 17.25 62.1"/><path fill="#fffd8f" fill-opacity="0.392156862745" d="M19.05 61.9 L18.4 62.3 18.45 62.4 18.9 62.3 19.5 61.95 19.95 61.6 20.15 61.5 19.85 61.6 19.05 61.9"/><path fill="#fffd8f" fill-opacity="0.392156862745" d="M16.9 63.3 L17.5 62.85 17.45 62.7 17.05 62.9 16.5 63.35 16.15 63.75 15.95 63.95 16.2 63.75 16.9 63.3"/><path fill="#ffffff" stroke="none" d="M17.4 62.1 Q17.15 62.35 17.2 62.65 L17.55 63.25 18.1 63.4 18.7 63.1 18.85 62.5 18.55 61.95 17.9 61.75 17.4 62.1"/><path fill="#ffffff" stroke="none" d="M33.55 83.9 L33.45 84.15 33.6 84.45 33.85 84.5 34.15 84.4 34.2 84.05 34.1 83.85 33.75 83.75 33.55 83.9"/></g><g id="c23"><g><use transform="matrix(1.0,0.0,0.0,1.0,6.3,53.35)" xlink:href="#c9"/></g><g><use transform="matrix(1.0,0.0,0.0,1.0,0.0,0.0)" xlink:href="#c10"/></g><g><use transform="matrix(1.0,0.0,0.0,1.0,6.45,53.4)" xlink:href="#c12"/></g><g><use transform="matrix(0.601806640625,-0.161239624023,0.161239624023,0.601806640625,31.85,81.85)" filter="url(#filter16)" xlink:href="#c14"/></g><g><use transform="matrix(1.0,0.0,0.0,1.0,0.0,0.0)" xlink:href="#c15"/></g><g><use transform="matrix(0.430603027344,-0.115371704102,0.115371704102,0.430603027344,27.4,82.8)" filter="url(#filter18)" xlink:href="#c17"/></g><g><use transform="matrix(1.0,0.0,0.0,1.0,0.0,0.0)" xlink:href="#c18"/></g><mask id="mask19"><use transform="matrix(1.0,0.0,0.0,1.0,0.0,0.0)" xlink:href="#c19"/></mask><g mask="url(#mask19)"><use transform="matrix(1.0,0.0,0.0,1.0,9.65,51.0)" filter="url(#filter21)" xlink:href="#c21"/></g><g mask="url(#mask19)"><use transform="matrix(1.0,0.0,0.0,1.0,9.65,51.0)" filter="url(#filter22)" xlink:href="#c21"/></g><g mask="url(#mask19)"><use transform="matrix(1.0,0.0,0.0,1.0,0.0,0.0)" xlink:href="#c22"/></g><g><use transform="matrix(0.141098022461,-0.0378112792969,0.111373901367,0.225646972656,27.2,74.05)" filter="url(#filter24)" xlink:href="#c6"/></g></g><filter id="filter16"><feColorMatrix in="SourceGraphic" type="matrix" values="1.0 0.0 0.0 0.0 0.0 0.0 1.0 0.0 0.0 0.0 0.0 0.0 1.0 0.0 0.0 0.0 0.0 0.0 0.421875 0.0" result="cxform"/><feComposite operator="in" in2="SourceGraphic" result="color-xform"/></filter><filter id="filter18"><feColorMatrix in="SourceGraphic" type="matrix" values="1.0 0.0 0.0 0.0 0.0 0.0 1.0 0.0 0.0 0.0 0.0 0.0 1.0 0.0 0.0 0.0 0.0 0.0 0.421875 0.0" result="cxform"/><feComposite operator="in" in2="SourceGraphic" result="color-xform"/></filter><filter id="filter21"><feColorMatrix in="SourceGraphic" type="matrix" values="0.0 0.0 0.0 0.0 0.99609375 0.0 0.0 0.0 0.0 0.99609375 0.0 0.0 0.0 0.0 0.99609375 0.0 0.0 0.0 1.0 0.0" result="cxform"/><feComposite operator="in" in2="SourceGraphic" result="color-xform"/></filter><filter id="filter22"><feColorMatrix in="SourceGraphic" type="matrix" values="0.0 0.0 0.0 0.0 0.99609375 0.0 0.0 0.0 0.0 0.99609375 0.0 0.0 0.0 0.0 0.99609375 0.0 0.0 0.0 1.0 0.0" result="cxform"/><feComposite operator="in" in2="SourceGraphic" result="color-xform"/></filter><filter id="filter24"><feColorMatrix in="SourceGraphic" type="matrix" values="1.0 0.0 0.0 0.0 0.0 0.0 1.0 0.0 0.0 0.0 0.0 0.0 1.0 0.0 0.0 0.0 0.0 0.0 0.23046875 0.0" result="cxform"/><feComposite operator="in" in2="SourceGraphic" result="color-xform"/></filter></defs><g><g><use transform="matrix(1.0,0.0,0.0,1.0,0.0,0.0)" xlink:href="#c1"/></g><g><use transform="matrix(1.15496826172,0.0,0.0,1.15496826172,-1.5,-57.65)" xlink:href="#c23"/></g></g></svg>