<?xml version='1.0' encoding='UTF-8'?>
<svg xmlns:xlink="http://www.w3.org/1999/xlink" xmlns="http://www.w3.org/2000/svg" version="1.1" width="60px" height="60px" viewBox="0.0 0.0 60.0 60.0"><defs><radialGradient gradientUnits="userSpaceOnUse" r="819.2" cx="0" cy="0" spreadMethod="pad" gradientTransform="matrix(0.0134735107422,0.0,0.0,0.0134735107422,0.0,0.0)" id="gradient1"><stop offset="0.333333333333" stop-color="#0e171d"/><stop offset="1.0" stop-color="#101a24" stop-opacity="0.0"/></radialGradient><g id="c1"><path stroke="none" fill="url(#gradient1)" d="M8.15 -8.2 Q11.6 -4.8 11.6 0.0 11.6 4.8 8.15 8.15 4.8 11.6 0.0 11.6 -4.8 11.6 -8.2 8.15 -11.6 4.8 -11.6 0.0 -11.6 -4.8 -8.2 -8.2 -4.8 -11.6 0.0 -11.6 4.8 -11.6 8.15 -8.2"/></g><g id="c2"><g><use transform="matrix(1.0,0.0,0.0,1.0,0.0,0.0)" xlink:href="#c1"/></g></g><g id="c3"><path fill="#9b0000" stroke="none" d="M0.35 1.65 L-0.15 1.65 -1.1 1.1 -1.75 0.25 -1.75 -0.4 -1.1 -0.55 -0.55 -0.35 -0.1 -0.05 0.45 0.85 Q0.7 1.25 0.45 1.6 L0.35 1.65"/><path fill="none" stroke="#000000" stroke-width="0.5" stroke-opacity="0.180392156863" d="M0.35 1.65 L-0.15 1.65 -1.1 1.1 -1.75 0.25 -1.75 -0.4 -1.1 -0.55 -0.55 -0.35"/><path fill="#9b0000" stroke="none" d="M0.35 1.55 L-0.15 1.25 -0.9 0.45 -1.3 -0.55 -1.1 -1.1 -0.4 -0.95 0.0 -0.65 0.35 -0.1 0.65 0.8 0.65 0.85 0.45 1.5 0.35 1.55"/><path fill="none" stroke="#000000" stroke-width="0.5" stroke-opacity="0.180392156863" d="M0.35 1.55 L-0.15 1.25 -0.9 0.45 -1.3 -0.55 -1.1 -1.1 -0.4 -0.95 0.0 -0.65"/><path fill="#9b0000" stroke="none" d="M-0.35 -0.8 L-0.15 -1.4 Q0.1 -1.85 0.55 -1.8 L0.65 -1.75 Q1.65 0.4 0.15 1.45 L0.0 1.15 -0.4 -0.1 -0.35 -0.8"/><path fill="#db0202" stroke="none" d="M0.15 1.45 Q1.65 0.4 0.65 -1.75 L1.35 -1.2 1.75 0.05 Q1.8 0.8 1.5 1.25 1.2 1.8 0.75 1.75 0.4 1.7 0.15 1.45"/><path fill="none" stroke="#000000" stroke-width="0.5" stroke-opacity="0.180392156863" d="M0.65 -1.75 L0.55 -1.8 Q0.1 -1.85 -0.15 -1.4 L-0.35 -0.8 M0.65 -1.75 L1.35 -1.2 1.75 0.05 Q1.8 0.8 1.5 1.25 1.2 1.8 0.75 1.75 0.4 1.7 0.15 1.45"/></g><g id="c4"><g><use transform="matrix(1.0,0.0,0.0,1.0,0.0,0.0)" xlink:href="#c3"/></g></g><linearGradient gradientUnits="userSpaceOnUse" x1="-819.2" x2="819.2" spreadMethod="pad" gradientTransform="matrix(-0.00593566894531,-0.0220489501953,0.0238494873047,-0.00642395019531,3.05,15.65)" id="gradient2"><stop offset="0.572549019608" stop-color="#390b0b"/><stop offset="1.0" stop-color="#a61f1f" stop-opacity="0.0"/></linearGradient><g id="c5"><path fill="#610101" stroke="none" d="M6.85 16.75 L8.75 17.15 Q9.65 17.5 9.95 18.35 L9.85 18.55 7.75 18.75 Q6.95 18.65 5.7 17.8 5.25 17.5 5.4 17.1 5.65 16.8 6.85 16.75"/><path fill="#4f5f9d" stroke="none" d="M9.95 18.35 L9.95 18.55 9.85 18.55 9.95 18.35"/><path fill="none" stroke="#000000" stroke-width="0.5" stroke-opacity="0.180392156863" d="M6.85 16.75 L8.75 17.15 Q9.65 17.5 9.95 18.35 L9.95 18.55 9.85 18.55 7.75 18.75 Q6.95 18.65 5.7 17.8"/><path fill="#610101" stroke="none" d="M7.5 16.85 Q5.85 17.15 5.95 16.85 L6.15 16.4 Q6.7 15.8 7.4 15.55 L7.75 15.5 9.05 15.3 9.25 15.3 9.2 15.4 8.5 16.35 Q8.1 16.7 7.5 16.85"/><path fill="none" stroke="#000000" stroke-width="0.5" stroke-opacity="0.180392156863" d="M6.15 16.4 Q6.7 15.8 7.4 15.55 L7.75 15.5 9.05 15.3 9.25 15.3 9.2 15.4 8.5 16.35 Q8.1 16.7 7.5 16.85"/><path fill="#610101" stroke="none" d="M6.0 18.6 L5.55 17.95 6.9 18.15 7.9 18.75 8.7 19.6 8.7 19.7 8.6 19.8 7.45 19.4 7.15 19.3 6.0 18.6"/><path fill="none" stroke="#000000" stroke-width="0.5" stroke-opacity="0.180392156863" d="M6.0 18.6 L7.15 19.3 7.45 19.4 8.6 19.8 8.7 19.7 8.7 19.6 7.9 18.75 6.9 18.15"/><path fill="#540101" stroke="none" d="M-0.35 -9.9 L-0.4 -10.0 -0.45 -10.0 -0.45 -9.95 0.15 -8.6 0.95 -6.75 1.35 -5.25 1.6 -4.6 0.35 -5.6 -3.05 -8.3 -5.8 -20.35 2.15 -9.65 2.15 -9.6 1.9 -4.75 1.75 -5.25 1.1 -6.9 0.25 -8.6 -0.15 -9.65 -0.3 -9.8 -0.3 -9.9 -0.35 -9.9 M1.05 -5.55 L1.1 -5.5 1.05 -5.6 1.05 -5.55"/><path fill="#7c8abe" stroke="none" d="M-0.3 -9.8 L-0.35 -9.9 -0.3 -9.9 -0.3 -9.8"/><path fill="#50609e" stroke="none" d="M-0.35 -9.9 L-0.3 -9.8 -0.15 -9.65 0.25 -8.6 0.15 -8.6 -0.45 -9.95 -0.45 -10.0 -0.4 -10.0 -0.35 -9.9"/><path fill="#6b0000" stroke="none" d="M2.15 -9.6 L2.15 -9.65 2.4 -14.0 Q3.95 -10.7 4.55 -7.7 L4.75 -7.1 3.65 -4.2 2.15 -9.6 M0.35 -5.6 L1.6 -4.6 1.9 -3.55 2.05 -3.1 Q3.25 1.4 4.1 7.7 L4.75 12.5 4.85 13.5 4.95 15.3 4.95 15.45 4.95 15.5 4.05 15.05 3.65 7.9 3.55 7.8 Q1.9 -1.25 0.35 -5.6"/><path fill="#b10101" stroke="none" d="M-3.05 -8.3 L0.35 -5.6 Q1.9 -1.25 3.55 7.8 L0.45 9.9 0.25 10.05 Q-3.75 5.6 -5.9 -1.1 L-2.6 0.75 Q-4.3 -2.2 -5.6 -5.6 L-0.85 -3.1 -3.15 -8.35 -3.05 -8.3"/><path fill="#9b0000" stroke="none" d="M0.15 -8.6 L0.25 -8.6 1.1 -6.9 1.75 -5.25 1.9 -4.75 2.25 -3.65 2.4 -3.1 Q3.7 1.2 4.8 7.45 L5.45 12.2 5.45 12.4 5.55 13.4 5.75 15.3 6.0 17.5 6.0 17.7 Q6.0 19.7 5.4 19.15 L5.35 19.1 5.05 16.05 5.2 15.7 4.95 15.5 4.95 15.45 4.95 15.3 4.85 13.5 4.75 12.5 4.1 7.7 Q3.25 1.4 2.05 -3.1 L1.9 -3.55 1.6 -4.6 1.35 -5.25 0.95 -6.75 0.15 -8.6 M-5.6 -5.6 L-5.7 -5.85 Q-6.65 -8.5 -7.3 -11.45 L-3.15 -8.35 -0.85 -3.1 -5.6 -5.6"/><path fill="#940101" stroke="none" d="M4.75 -7.1 Q5.35 -3.95 5.05 -1.1 L6.75 -4.0 Q7.55 1.55 7.0 6.95 L4.8 7.45 Q3.7 1.2 2.4 -3.1 L2.25 -3.65 1.9 -4.75 2.15 -9.6 3.65 -4.2 4.75 -7.1"/><path fill="#414b85" stroke="none" d="M1.05 -5.55 L1.05 -5.6 1.1 -5.5 1.05 -5.55"/><path fill="#800101" stroke="none" d="M7.0 6.95 L6.2 11.3 7.5 9.65 Q7.25 13.2 5.75 15.3 L5.55 13.4 5.45 12.4 5.45 12.2 4.8 7.45 7.0 6.95"/><path fill="#8f0101" stroke="none" d="M4.05 15.05 Q1.1 13.4 -0.2 11.1 L2.55 12.25 0.25 10.05 0.45 9.9 3.55 7.8 3.65 7.9 4.05 15.05"/><path fill="none" stroke="#000000" stroke-width="0.5" stroke-opacity="0.180392156863" d="M-0.45 -10.0 L-0.45 -9.95 0.15 -8.6 M0.25 -8.6 L-0.15 -9.65 M2.15 -9.6 L2.15 -9.65 -5.8 -20.35 -3.05 -8.3 0.35 -5.6 1.6 -4.6 1.35 -5.25 0.95 -6.75 0.15 -8.6 M2.15 -9.65 L2.4 -14.0 Q3.95 -10.7 4.55 -7.7 L4.75 -7.1 Q5.35 -3.95 5.05 -1.1 L6.75 -4.0 Q7.55 1.55 7.0 6.95 L6.2 11.3 7.5 9.65 Q7.25 13.2 5.75 15.3 L6.0 17.5 6.0 17.7 Q6.0 19.7 5.4 19.15 L5.35 19.1 5.05 16.05 5.2 15.7 4.95 15.5 4.05 15.05 Q1.1 13.4 -0.2 11.1 L2.55 12.25 0.25 10.05 Q-3.75 5.6 -5.9 -1.1 L-2.6 0.75 Q-4.3 -2.2 -5.6 -5.6 L-5.7 -5.85 Q-6.65 -8.5 -7.3 -11.45 L-3.15 -8.35 -3.05 -8.3 M2.15 -9.6 L1.9 -4.75 2.25 -3.65 2.4 -3.1 Q3.7 1.2 4.8 7.45 L5.45 12.2 M0.25 -8.6 L1.1 -6.9 1.75 -5.25 1.9 -4.75 M1.6 -4.6 L1.9 -3.55 2.05 -3.1 Q3.25 1.4 4.1 7.7 L4.75 12.5 4.85 13.5 4.95 15.3 4.95 15.45 4.95 15.5 M5.45 12.4 L5.55 13.4 5.75 15.3"/><path fill="#fe4545" stroke="none" d="M-1.0 -14.5 Q-1.55 -12.85 -3.5 -13.85 -5.6 -17.35 -6.65 -21.15 -2.25 -18.3 -1.0 -14.5"/><path fill="#a00101" stroke="none" d="M-3.5 -13.85 Q-1.55 -12.85 -1.0 -14.5 -0.3 -12.3 -0.65 -9.8 L-3.5 -13.85"/><path fill="none" stroke="#000000" stroke-width="0.5" stroke-opacity="0.180392156863" d="M-1.0 -14.5 Q-2.25 -18.3 -6.65 -21.15 -5.6 -17.35 -3.5 -13.85 L-0.65 -9.8 Q-0.3 -12.3 -1.0 -14.5"/><path fill="#ffcc99" stroke="none" d="M-1.2 -11.8 Q-0.65 -11.85 0.05 -11.25 L1.0 -9.55 1.15 -7.95 Q0.9 -7.15 0.35 -7.1 -0.25 -7.1 -0.8 -7.8 -1.5 -8.4 -1.8 -9.4 -2.15 -10.4 -1.9 -11.15 -1.75 -11.8 -1.2 -11.8"/><path fill="none" stroke="#000000" stroke-width="0.5" stroke-opacity="0.180392156863" d="M-1.2 -11.8 Q-0.65 -11.85 0.05 -11.25 L1.0 -9.55 1.15 -7.95 Q0.9 -7.15 0.35 -7.1 -0.25 -7.1 -0.8 -7.8 -1.5 -8.4 -1.8 -9.4 -2.15 -10.4 -1.9 -11.15 -1.75 -11.8 -1.2 -11.8"/><path fill="#a00101" stroke="none" d="M-6.55 -8.25 Q-4.85 -8.05 -4.4 -9.25 -3.75 -8.05 -3.95 -6.3 L-6.55 -8.25"/><path fill="#fe4545" stroke="none" d="M-4.4 -9.25 Q-4.85 -8.05 -6.55 -8.25 -8.55 -10.0 -9.65 -12.25 -5.7 -11.45 -4.4 -9.25"/><path fill="none" stroke="#000000" stroke-width="0.5" stroke-opacity="0.180392156863" d="M-6.55 -8.25 L-3.95 -6.3 Q-3.75 -8.05 -4.4 -9.25 -5.7 -11.45 -9.65 -12.25 -8.55 -10.0 -6.55 -8.25"/><path fill="#ffcc99" stroke="none" d="M-4.1 -7.3 L-3.5 -7.25 -2.85 -6.6 Q-2.55 -6.25 -2.55 -5.95 -2.5 -5.6 -2.75 -5.5 -3.0 -5.45 -3.35 -5.7 L-4.0 -6.25 -4.3 -6.95 -4.1 -7.3"/><path fill="none" stroke="#000000" stroke-width="0.5" stroke-opacity="0.180392156863" d="M-4.1 -7.3 L-3.5 -7.25 -2.85 -6.6 Q-2.55 -6.25 -2.55 -5.95 -2.5 -5.6 -2.75 -5.5 -3.0 -5.45 -3.35 -5.7 L-4.0 -6.25 -4.3 -6.95 -4.1 -7.3"/><path fill="#fe4545" stroke="none" d="M2.45 -10.3 Q1.85 -12.45 2.3 -14.45 4.9 -12.05 4.5 -9.95 3.5 -9.35 2.45 -10.3"/><path fill="#a00101" stroke="none" d="M2.45 -10.3 Q3.5 -9.35 4.5 -9.95 4.45 -8.8 3.1 -7.75 2.6 -9.0 2.45 -10.3"/><path fill="none" stroke="#000000" stroke-width="0.5" stroke-opacity="0.180392156863" d="M4.5 -9.95 Q4.9 -12.05 2.3 -14.45 1.85 -12.45 2.45 -10.3 M4.5 -9.95 Q4.45 -8.8 3.1 -7.75 2.6 -9.0 2.45 -10.3"/><path fill="#ffcc99" stroke="none" d="M3.3 -9.0 L3.65 -8.65 3.85 -7.95 3.75 -7.3 3.45 -7.0 3.15 -7.4 2.9 -8.1 3.0 -8.8 3.3 -9.0"/><path fill="none" stroke="#000000" stroke-width="0.5" stroke-opacity="0.180392156863" d="M3.3 -9.0 L3.65 -8.65 3.85 -7.95 3.75 -7.3 3.45 -7.0 3.15 -7.4 2.9 -8.1 3.0 -8.8 3.3 -9.0"/><path stroke="none" fill="url(#gradient2)" d="M-1.15 -14.45 L-0.95 -13.7 -0.85 -13.7 -0.8 -13.65 1.9 -10.0 1.9 -9.8 2.0 -9.65 2.05 -10.5 2.0 -10.95 2.0 -11.0 Q1.6 -12.75 2.0 -14.4 L2.05 -14.7 2.2 -14.5 Q4.9 -12.05 4.5 -9.9 L4.25 -9.0 4.55 -7.7 4.75 -7.2 4.75 -7.15 Q5.25 -4.25 5.1 -1.7 L6.7 -4.35 6.75 -4.0 Q7.55 1.55 7.0 6.95 L6.3 10.75 7.5 9.3 7.5 9.65 Q7.2 13.15 5.75 15.35 L6.0 17.5 6.0 17.7 5.85 19.1 5.55 19.4 Q5.35 19.45 5.2 19.25 L5.15 19.25 5.1 19.15 5.1 19.1 4.8 16.05 4.9 15.75 4.7 15.6 4.7 15.55 3.85 15.1 Q0.85 13.5 -0.45 11.1 L-0.6 10.8 1.7 11.8 0.0 10.15 Q-4.0 5.65 -6.15 -1.1 L-6.25 -1.4 -3.05 0.4 Q-4.65 -2.35 -5.85 -5.55 L-5.95 -5.8 -6.7 -8.05 -6.8 -8.15 -6.75 -8.15 Q-8.8 -9.9 -9.9 -12.2 L-10.0 -12.4 -9.75 -12.35 Q-5.85 -11.55 -4.5 -9.4 L-4.45 -9.35 -3.45 -8.55 -5.15 -16.4 -5.15 -16.5 -5.1 -16.55 -6.85 -21.15 Q-2.45 -18.3 -1.15 -14.45"/><path fill="#610101" stroke="none" d="M5.05 17.1 L5.5 17.65 Q5.75 17.95 4.1 17.95 L2.9 17.6 1.85 16.85 1.9 16.7 3.5 16.6 5.05 17.1"/><path fill="#4f5f9d" stroke="none" d="M1.9 16.7 L1.85 16.85 1.85 16.8 1.7 16.8 1.9 16.7"/><path fill="none" stroke="#000000" stroke-width="0.5" stroke-opacity="0.180392156863" d="M5.05 17.1 L3.5 16.6 1.9 16.7 1.7 16.8 1.85 16.8 1.85 16.85 2.9 17.6 4.1 17.95"/><path fill="#610101" stroke="none" d="M4.1 17.2 L5.85 17.4 Q6.05 17.8 5.55 18.5 4.35 19.9 3.45 20.2 L1.15 20.45 1.0 20.4 1.0 20.15 Q1.15 19.05 2.1 18.25 2.8 17.5 4.1 17.2"/><path fill="none" stroke="#000000" stroke-width="0.5" stroke-opacity="0.180392156863" d="M4.1 17.2 Q2.8 17.5 2.1 18.25 1.15 19.05 1.0 20.15 L1.0 20.4 1.15 20.45 3.45 20.2 Q4.35 19.9 5.55 18.5"/><path fill="#610101" stroke="none" d="M4.55 18.85 Q5.3 17.5 5.45 17.75 L5.75 18.4 5.5 19.75 5.45 19.9 4.7 21.15 4.6 21.15 4.55 21.1 Q4.3 20.55 4.35 19.9 4.25 19.4 4.55 18.85"/><path fill="none" stroke="#000000" stroke-width="0.5" stroke-opacity="0.180392156863" d="M5.75 18.4 L5.5 19.75 5.45 19.9 4.7 21.15 4.6 21.15 4.55 21.1 Q4.3 20.55 4.35 19.9 4.25 19.4 4.55 18.85"/></g><g id="c6"><g><use transform="matrix(1.0,0.0,0.0,1.0,0.0,0.0)" xlink:href="#c5"/></g></g><g id="c7"><path fill="#af6a03" stroke="none" d="M2.15 0.85 L1.8 1.15 1.45 1.3 1.0 1.45 -0.4 1.5 -1.05 1.35 -2.3 0.7 Q-3.1 0.1 -3.1 -0.55 -3.05 -1.25 -2.05 -1.5 L-0.45 -1.6 0.05 -1.55 0.35 -1.5 0.6 -1.4 -0.65 -1.15 -1.25 0.2 -1.35 0.5 Q0.25 1.3 2.15 0.85"/><path fill="#d08515" stroke="none" d="M2.15 0.85 Q0.25 1.3 -1.35 0.5 L-1.25 0.2 -0.65 -1.15 0.6 -1.4 1.75 -0.85 1.95 -0.7 Q2.4 -0.2 2.35 0.3 L2.35 0.4 2.35 0.6 2.15 0.85 M0.45 -0.75 Q1.9 -0.35 2.35 0.6 1.9 -0.35 0.45 -0.75"/><path fill="none" stroke="#59120d" stroke-width="0.5" stroke-opacity="0.411764705882" d="M0.6 -1.4 L0.35 -1.5 0.05 -1.55 -0.45 -1.6 -2.05 -1.5 Q-3.05 -1.25 -3.1 -0.55 -3.1 0.1 -2.3 0.7 L-1.05 1.35 -0.4 1.5 1.0 1.45 1.45 1.3 1.8 1.15 2.15 0.85 M0.6 -1.4 L1.75 -0.85 1.95 -0.7 Q2.4 -0.2 2.35 0.3 L2.35 0.4 2.35 0.6 2.15 0.85"/><path fill="none" stroke="#59110d" stroke-width="0.5" stroke-opacity="0.2" d="M2.35 0.6 Q1.9 -0.35 0.45 -0.75"/><path fill="#d9ceb4" stroke="none" d="M1.15 -0.1 Q2.3 -0.05 2.9 1.2 1.95 1.2 1.15 0.7 L1.15 -0.1"/><path fill="#fef7e0" stroke="none" d="M2.9 1.2 Q2.3 -0.05 1.15 -0.1 L1.1 -0.3 2.55 -0.35 3.15 0.95 2.9 1.2"/><path fill="none" stroke="#625c37" stroke-width="0.5" d="M2.9 1.2 L3.15 0.95 2.55 -0.35 1.1 -0.3 M1.15 0.7 Q1.95 1.2 2.9 1.2"/><path fill="#d9ceb4" stroke="none" d="M0.0 0.5 Q1.25 0.35 2.1 1.6 L0.15 1.35 0.0 0.5"/><path fill="#fef7e0" stroke="none" d="M2.1 1.6 Q1.25 0.35 0.0 0.5 L-0.05 0.25 Q0.45 -0.65 1.5 -0.05 2.15 0.6 2.4 1.35 L2.1 1.6"/><path fill="none" stroke="#625c37" stroke-width="0.5" d="M0.15 1.35 L2.1 1.6 2.4 1.35 Q2.15 0.6 1.5 -0.05 0.45 -0.65 -0.05 0.25"/></g><g id="c8"><g><use transform="matrix(1.0,0.0,0.0,1.0,0.0,0.0)" xlink:href="#c7"/></g></g><g id="c9"><path fill="#3a0101" stroke="none" d="M-1.9 -0.9 L-1.8 -1.1 -1.05 -1.75 -0.6 -1.9 Q0.15 -2.0 0.95 -1.55 L1.45 -1.1 1.7 -0.75 1.9 -0.3 1.95 0.7 1.8 1.15 Q1.4 1.75 0.55 1.9 -0.2 2.0 -0.95 1.55 -1.7 1.15 -1.9 0.3 -2.15 -0.3 -1.9 -0.9"/><path fill="#003366" fill-opacity="0.2" d="M-0.85 -1.75 L-0.95 -1.55 -1.1 -1.45 -1.35 -1.55 -1.4 -1.75 -1.35 -1.95 -1.1 -2.0 -0.95 -1.95 -0.85 -1.75 M-1.65 -0.9 L-1.75 -0.75 -1.9 -0.65 -2.1 -0.75 -2.15 -0.9 -2.1 -1.1 -1.9 -1.15 -1.75 -1.1 -1.65 -0.9 M0.45 -1.85 L0.35 -1.7 0.2 -1.55 0.0 -1.7 -0.05 -1.85 0.0 -2.05 0.2 -2.1 0.35 -2.05 0.45 -1.85 M1.95 -0.75 L1.85 -0.6 1.7 -0.5 1.5 -0.6 1.45 -0.75 1.5 -0.95 1.7 -1.0 1.85 -0.95 1.95 -0.75 M2.2 0.8 L2.1 0.95 1.95 1.05 1.75 0.95 1.7 0.8 1.75 0.6 1.95 0.55 2.1 0.6 2.2 0.8 M1.35 1.75 L1.25 1.9 1.1 2.0 0.9 1.9 0.85 1.75 0.9 1.55 1.1 1.5 1.25 1.55 1.35 1.75 M-0.2 1.8 L-0.3 1.95 -0.45 2.05 -0.65 1.95 -0.7 1.8 -0.65 1.6 -0.45 1.55 -0.3 1.6 -0.2 1.8 M-1.55 0.7 L-1.65 0.85 -1.8 0.95 -2.0 0.85 -2.05 0.7 -2.0 0.5 -1.8 0.45 -1.65 0.5 -1.55 0.7"/></g><g id="c10"><g><use transform="matrix(1.0,0.0,0.0,1.0,0.0,0.0)" xlink:href="#c9"/></g></g><g id="c11"><path fill="#af6a03" stroke="none" d="M-0.25 2.5 L-1.25 -0.7 Q-1.5 -2.45 -0.15 -2.5 L1.3 1.7 Q0.05 1.65 -0.25 2.5"/><path fill="none" stroke="#000000" stroke-width="0.5" stroke-opacity="0.180392156863" d="M-0.25 2.5 L-1.25 -0.7 M-0.15 -2.5 L1.3 1.7"/></g><g id="c12"><g><use transform="matrix(1.0,0.0,0.0,1.0,0.0,0.0)" xlink:href="#c11"/></g></g><g id="c13"><path fill="#af6a03" stroke="none" d="M-1.4 0.05 L-1.4 0.0 -2.35 -0.5 Q-3.05 -0.95 -2.55 -2.3 L1.65 -0.3 Q1.7 1.55 0.0 0.75 L0.0 0.7 -0.75 0.3 -1.25 0.05 -1.4 0.05"/><path fill="none" stroke="#000000" stroke-width="0.5" stroke-opacity="0.180392156863" d="M-2.35 -0.5 L-1.4 0.0 -1.4 0.05 -0.75 0.3 0.0 0.7 0.0 0.75 Q1.7 1.55 1.65 -0.3 L-2.55 -2.3"/><path fill="#760101" stroke="none" d="M1.95 0.85 L2.2 1.7 1.35 1.6 1.3 2.3 Q0.15 1.9 -0.3 1.0 L-0.5 0.55 0.25 -0.05 0.9 -0.25 1.6 -0.25 2.4 0.3 2.75 0.8 1.95 0.85"/></g><g id="c14"><g><use transform="matrix(1.0,0.0,0.0,1.0,0.0,0.0)" xlink:href="#c13"/></g></g><g id="c15"><path fill="#d08515" stroke="none" d="M-1.95 -0.45 L-0.25 -1.45 -0.2 -1.5 0.7 -1.0 0.7 -0.95 0.9 -0.95 1.25 -0.75 2.0 0.3 1.7 1.35 1.55 1.6 1.15 1.7 Q0.45 1.8 0.15 1.35 L0.1 1.2 0.05 1.25 0.0 0.75 0.05 1.25 -0.4 1.6 -1.4 1.3 -1.95 0.15 -1.95 -0.45 M1.25 -0.1 L1.4 -0.2 1.15 -0.45 Q0.65 -0.95 0.4 -0.85 L-0.1 -0.6 -0.7 -0.8 Q-1.35 -0.65 -1.6 -0.25 L-1.6 0.1 Q-1.3 -0.65 -0.4 0.0 -0.3 0.15 0.05 -0.25 L0.0 0.05 Q0.8 -0.5 1.15 -0.2 L1.25 -0.1 M0.0 0.75 L0.1 1.2 0.0 0.75"/><path fill="#af6a03" stroke="none" d="M-1.95 -0.45 L-1.6 -1.65 Q-1.15 -2.5 -0.3 -2.65 0.5 -2.75 1.15 -2.0 L1.2 -1.95 1.95 -0.25 2.0 0.3 1.25 -0.75 0.9 -0.95 0.7 -1.0 -0.2 -1.5 -0.25 -1.45 -1.95 -0.45 M1.55 1.6 L1.15 1.95 0.45 2.2 0.35 2.2 Q-0.25 2.25 -0.8 1.9 L-1.15 1.6 -1.4 1.3 -0.4 1.6 0.05 1.25 0.1 1.2 0.15 1.35 Q0.45 1.8 1.15 1.7 L1.55 1.6 M0.45 2.2 L0.15 1.35 0.45 2.2"/><path fill="#ecab13" stroke="none" d="M0.7 -1.0 L0.9 -0.95 0.7 -0.95 0.7 -1.0 M-1.6 0.1 L-1.6 -0.25 Q-1.35 -0.65 -0.7 -0.8 L-0.1 -0.6 0.4 -0.85 Q0.65 -0.95 1.15 -0.45 L1.4 -0.2 1.25 -0.1 1.15 -0.2 Q0.8 -0.5 0.0 0.05 L0.05 -0.25 Q-0.3 0.15 -0.4 0.0 -1.3 -0.65 -1.6 0.1"/><path fill="none" stroke="#59120d" stroke-width="0.5" stroke-opacity="0.411764705882" d="M2.0 0.3 L1.95 -0.25 1.2 -1.95 1.15 -2.0 Q0.5 -2.75 -0.3 -2.65 -1.15 -2.5 -1.6 -1.65 L-1.95 -0.45 M2.0 0.3 L1.7 1.35 1.55 1.6 1.15 1.95 0.45 2.2 0.35 2.2 Q-0.25 2.25 -0.8 1.9 L-1.15 1.6 -1.4 1.3 -1.95 0.15 -1.95 -0.45 M1.25 -0.1 L1.15 -0.2 Q0.8 -0.5 0.0 0.05 M-0.4 0.0 Q-1.3 -0.65 -1.6 0.1 M0.0 0.75 L0.05 1.25 M0.1 1.2 L0.15 1.35"/><path fill="none" stroke="#59110d" stroke-width="0.5" stroke-opacity="0.2" d="M0.1 1.2 L0.0 0.75 M0.15 1.35 L0.45 2.2"/><path fill="#fef7e0" stroke="none" d="M0.95 0.35 L1.35 0.65 1.55 1.25 1.5 2.0 0.9 2.6 0.85 2.65 0.95 0.35"/><path fill="#d9ceb4" stroke="none" d="M0.85 2.65 Q0.15 2.6 0.1 2.25 0.0 1.2 0.25 0.75 0.55 0.2 0.95 0.35 L0.85 2.65"/><path fill="none" stroke="#675732" stroke-width="0.5" d="M0.85 2.65 Q0.15 2.6 0.1 2.25 0.0 1.2 0.25 0.75 0.55 0.2 0.95 0.35 L1.35 0.65 1.55 1.25 1.5 2.0 0.9 2.6 0.85 2.65"/><path fill="#fef7e0" stroke="none" d="M-1.05 0.45 Q-0.65 0.25 -0.25 0.75 0.0 1.15 0.05 2.2 0.05 2.6 -0.6 2.7 L-1.05 0.45"/><path fill="#d9ceb4" stroke="none" d="M-1.05 0.45 L-0.6 2.7 -0.65 2.7 -1.35 2.1 -1.5 1.4 -1.35 0.8 -1.05 0.45"/><path fill="none" stroke="#675732" stroke-width="0.5" d="M-0.6 2.7 Q0.05 2.6 0.05 2.2 0.0 1.15 -0.25 0.75 -0.65 0.25 -1.05 0.45 M-0.6 2.7 L-0.65 2.7 -1.35 2.1 -1.5 1.4 -1.35 0.8 -1.05 0.45"/></g><g id="c16"><g><use transform="matrix(1.0,0.0,0.0,1.0,0.0,0.0)" xlink:href="#c15"/></g></g><g id="c17"><path fill="#af6a03" stroke="none" d="M-0.3 2.05 L-1.35 -0.25 Q-1.85 -1.85 -0.55 -2.05 L1.5 1.85 Q0.25 1.2 -0.3 2.05"/><path fill="none" stroke="#000000" stroke-width="0.5" stroke-opacity="0.180392156863" d="M-0.3 2.05 L-1.35 -0.25 M-0.55 -2.05 L1.5 1.85"/></g><g id="c18"><g><use transform="matrix(1.0,0.0,0.0,1.0,0.0,0.0)" xlink:href="#c17"/></g></g><g id="c19"><path fill="#af6a03" stroke="none" d="M-0.55 0.25 L-0.6 0.25 -1.65 0.1 Q-2.45 -0.05 -2.45 -1.45 L2.15 -1.05 Q2.85 0.65 1.05 0.5 L0.95 0.45 0.15 0.35 -0.4 0.25 -0.55 0.25"/><path fill="none" stroke="#000000" stroke-width="0.5" stroke-opacity="0.180392156863" d="M-0.55 0.25 L-0.6 0.25 -1.65 0.1 M-2.45 -1.45 L2.15 -1.05 Q2.85 0.65 1.05 0.5 L0.95 0.45 0.15 0.35 -0.55 0.25"/><path fill="#760101" stroke="none" d="M1.95 -1.1 L2.3 -0.4 2.45 0.3 2.05 1.4 1.5 1.85 1.3 1.0 0.4 1.45 0.35 0.45 -0.45 0.55 Q-0.25 -0.7 0.7 -1.5 L1.15 -1.85 1.95 -1.1"/></g><g id="c20"><g><use transform="matrix(1.0,0.0,0.0,1.0,0.0,0.0)" xlink:href="#c19"/></g></g><linearGradient gradientUnits="userSpaceOnUse" x1="-819.2" x2="819.2" spreadMethod="pad" gradientTransform="matrix(0.005859375,-0.00152587890625,0.00126647949219,0.00477600097656,-3.15,0.3)" id="gradient3"><stop offset="0.572549019608" stop-color="#390b0b"/><stop offset="1.0" stop-color="#a61f1f" stop-opacity="0.0"/></linearGradient><g id="c21"><path fill="#760101" stroke="none" d="M-2.2 -3.15 Q-2.65 -2.25 -2.2 -0.55 L-1.95 0.2 Q-1.5 1.5 -0.4 2.35 0.85 3.3 1.75 3.25 L3.0 3.1 2.25 3.7 -0.5 3.9 Q-2.0 3.35 -2.85 2.0 L-3.5 0.2 -3.45 -1.0 Q-3.25 -2.4 -2.2 -3.15"/><path fill="#9b0000" stroke="none" d="M3.0 3.1 L1.75 3.25 Q0.85 3.3 -0.4 2.35 -1.5 1.5 -1.95 0.2 L-2.2 -0.55 Q-2.65 -2.25 -2.2 -3.15 L-1.9 -3.4 Q-1.1 -3.9 0.0 -3.85 L0.7 -3.65 0.85 -3.6 Q2.3 -3.2 3.2 -1.7 L3.65 -0.5 3.8 0.4 3.8 1.25 3.8 1.35 3.0 3.1"/><path fill="none" stroke="#003366" stroke-width="0.5" stroke-opacity="0.2" d="M-2.2 -3.15 Q-3.25 -2.4 -3.45 -1.0 L-3.5 0.2 -2.85 2.0 Q-2.0 3.35 -0.5 3.9 L2.25 3.7 3.0 3.1 3.8 1.35 3.8 1.25 3.8 0.4 3.65 -0.5 3.2 -1.7 Q2.3 -3.2 0.85 -3.6 L0.7 -3.65 0.0 -3.85 Q-1.1 -3.9 -1.9 -3.4 L-2.2 -3.15"/><path stroke="none" fill="url(#gradient3)" d="M-2.15 -3.65 L-2.1 -3.65 Q-1.3 -4.2 -0.15 -4.15 L-0.1 -4.15 0.6 -3.95 0.65 -3.95 0.7 -3.9 0.75 -3.9 Q2.2 -3.45 3.15 -1.95 L3.65 -0.7 3.8 0.25 3.8 1.15 3.8 1.25 Q3.5 2.35 2.9 3.05 L2.2 3.6 Q0.85 4.4 -0.7 3.85 -2.25 3.3 -3.15 1.9 -3.65 1.0 -3.75 0.05 L-3.75 0.0 -3.7 -1.15 Q-3.5 -2.7 -2.4 -3.4 L-2.15 -3.65"/></g><g id="c22"><g><use transform="matrix(1.0,0.0,0.0,1.0,0.0,0.0)" xlink:href="#c21"/></g></g><radialGradient gradientUnits="userSpaceOnUse" r="819.2" cx="0" cy="0" spreadMethod="pad" gradientTransform="matrix(0.00233459472656,-0.00108337402344,0.00172424316406,0.00245666503906,-0.05,-0.1)" id="gradient4"><stop offset="0.729411764706" stop-color="#561610"/><stop offset="1.0" stop-color="#883622" stop-opacity="0.0"/></radialGradient><g id="c23"><path stroke="none" fill="url(#gradient4)" d="M0.4 -2.05 Q1.35 -1.75 1.95 -0.9 2.55 -0.1 2.4 0.85 2.25 1.65 1.4 2.0 L-0.25 2.05 Q-1.35 1.75 -1.9 0.95 -2.55 0.1 -2.4 -0.75 -2.15 -1.65 -1.45 -2.05 -0.65 -2.35 0.4 -2.05"/></g><g id="c24"><g><use transform="matrix(1.0,0.0,0.0,1.0,0.0,0.0)" xlink:href="#c23"/></g></g><linearGradient gradientUnits="userSpaceOnUse" x1="-819.2" x2="819.2" spreadMethod="pad" gradientTransform="matrix(0.0110931396484,-0.00263977050781,0.00186157226562,0.00779724121094,-6.6,3.85)" id="gradient5"><stop offset="0.572549019608" stop-color="#390b0b"/><stop offset="1.0" stop-color="#a61f1f" stop-opacity="0.0"/></linearGradient><radialGradient gradientUnits="userSpaceOnUse" r="819.2" cx="0" cy="0" spreadMethod="pad" gradientTransform="matrix(0.0048828125,0.0,0.0,0.00617980957031,2.8,0.25)" id="gradient6"><stop offset="0.741176470588" stop-color="#f88f8f" stop-opacity="0.752941176471"/><stop offset="1.0" stop-color="#fabebe" stop-opacity="0.0"/></radialGradient><g id="c25"><path fill="#9b0000" stroke="none" d="M-5.3 -4.15 Q-5.65 -2.9 -5.35 -1.35 L-5.1 -0.15 -4.5 0.95 Q-3.55 2.4 -1.35 3.25 1.7 4.5 3.35 4.25 5.05 4.0 5.75 3.2 L4.6 4.65 Q2.6 6.6 -0.1 6.6 -2.8 6.6 -4.75 4.65 -6.35 3.05 -6.6 0.95 L-6.7 0.0 -6.6 -1.35 Q-6.3 -2.95 -5.3 -4.15"/><path fill="#ff0303" stroke="none" d="M5.75 3.2 Q5.05 4.0 3.35 4.25 1.7 4.5 -1.35 3.25 -3.55 2.4 -4.5 0.95 L-5.1 -0.15 -5.35 -1.35 Q-5.65 -2.9 -5.3 -4.15 L-5.05 -4.45 -4.75 -4.75 Q-3.45 -6.05 -1.6 -6.45 L-0.1 -6.65 0.0 -6.65 Q2.65 -6.65 4.6 -4.75 L5.85 -2.95 6.35 -1.7 6.5 -0.15 6.5 0.0 Q6.5 1.8 5.75 3.2"/><path fill="#660000" fill-opacity="0.2" d="M-3.1 -5.8 L-3.2 -5.65 -3.35 -5.55 Q-3.45 -5.55 -3.55 -5.65 L-3.6 -5.8 -3.55 -6.0 -3.35 -6.05 -3.2 -6.0 -3.1 -5.8 M-4.3 -4.95 L-4.4 -4.8 -4.55 -4.7 Q-4.65 -4.7 -4.75 -4.8 L-4.8 -4.95 -4.75 -5.15 -4.55 -5.2 -4.4 -5.15 -4.3 -4.95 M-5.25 -3.95 L-5.35 -3.8 -5.5 -3.7 -5.7 -3.8 -5.75 -3.95 -5.7 -4.15 -5.5 -4.2 -5.35 -4.15 -5.25 -3.95 M-6.0 -2.7 L-6.1 -2.5 -6.25 -2.4 Q-6.35 -2.4 -6.45 -2.5 L-6.5 -2.7 -6.45 -2.9 -6.25 -2.95 -6.1 -2.9 -6.0 -2.7 M-6.35 -1.05 L-6.45 -0.9 -6.6 -0.8 -6.8 -0.9 -6.85 -1.05 -6.8 -1.25 -6.6 -1.3 -6.45 -1.25 -6.35 -1.05 M-6.4 0.5 L-6.5 0.65 -6.65 0.75 -6.85 0.65 -6.9 0.5 -6.85 0.3 -6.65 0.25 -6.5 0.3 -6.4 0.5 M-6.15 2.0 L-6.25 2.15 -6.4 2.25 -6.6 2.15 -6.65 2.0 -6.6 1.8 -6.4 1.75 -6.25 1.8 -6.15 2.0 M-5.5 3.45 L-5.6 3.6 -5.75 3.7 -5.95 3.6 -6.0 3.45 -5.95 3.2 -5.75 3.15 -5.6 3.2 -5.5 3.45 M-4.3 4.85 L-4.4 5.0 -4.55 5.1 -4.75 5.0 -4.8 4.85 -4.75 4.65 -4.55 4.6 -4.4 4.65 -4.3 4.85 M-3.1 5.8 L-3.2 5.95 -3.35 6.05 -3.55 5.95 -3.6 5.8 -3.55 5.6 -3.35 5.55 -3.2 5.6 -3.1 5.8 M2.9 -6.05 L2.8 -5.9 2.65 -5.8 Q2.55 -5.8 2.45 -5.9 L2.4 -6.05 2.45 -6.25 2.65 -6.3 2.8 -6.25 2.9 -6.05 M-1.65 -6.35 L-1.75 -6.2 -1.9 -6.1 -2.1 -6.2 -2.15 -6.35 -2.1 -6.6 -1.9 -6.65 -1.75 -6.6 -1.65 -6.35 M-0.15 -6.65 L-0.25 -6.45 -0.4 -6.35 -0.6 -6.45 -0.65 -6.65 -0.6 -6.85 -0.4 -6.9 -0.25 -6.85 -0.15 -6.65 M1.45 -6.5 L1.35 -6.35 1.2 -6.25 Q1.1 -6.25 0.95 -6.35 L0.9 -6.5 0.95 -6.75 1.2 -6.8 1.35 -6.75 1.45 -6.5 M5.4 -4.1 L5.3 -3.95 5.15 -3.85 4.9 -3.95 4.85 -4.1 4.9 -4.3 5.15 -4.35 5.3 -4.3 5.4 -4.1 M6.1 -2.95 L6.0 -2.8 5.85 -2.7 Q5.75 -2.7 5.65 -2.8 L5.6 -2.95 5.65 -3.15 5.85 -3.2 6.0 -3.15 6.1 -2.95 M4.25 -5.3 L4.15 -5.15 4.0 -5.05 3.8 -5.15 3.75 -5.3 3.8 -5.5 4.0 -5.55 4.15 -5.5 4.25 -5.3 M6.65 -1.4 L6.55 -1.25 6.4 -1.15 6.2 -1.25 6.15 -1.4 6.2 -1.6 6.4 -1.65 6.55 -1.6 6.65 -1.4 M6.75 0.1 L6.65 0.25 6.5 0.35 6.3 0.25 6.25 0.1 6.3 -0.1 6.5 -0.15 6.65 -0.1 6.75 0.1 M6.55 1.75 L6.45 1.9 6.3 2.0 6.1 1.9 6.05 1.75 6.1 1.55 6.3 1.5 6.45 1.55 6.55 1.75 M6.0 3.2 L5.9 3.35 5.75 3.5 5.55 3.35 5.5 3.2 5.55 3.0 5.75 2.95 5.9 3.0 6.0 3.2 M5.35 4.1 L5.25 4.25 5.1 4.35 4.85 4.25 4.8 4.1 4.85 3.9 5.1 3.85 5.25 3.9 5.35 4.1 M4.45 5.05 L4.35 5.2 4.2 5.3 4.0 5.2 3.95 5.05 4.0 4.85 4.2 4.8 4.35 4.85 4.45 5.05 M3.25 5.9 L3.15 6.05 2.95 6.15 2.75 6.05 2.7 5.9 2.75 5.7 2.95 5.65 3.15 5.7 3.25 5.9 M-1.65 6.4 L-1.75 6.55 -1.9 6.65 -2.1 6.55 -2.15 6.4 -2.1 6.2 -1.9 6.15 -1.75 6.2 -1.65 6.4 M0.05 6.6 L-0.05 6.75 -0.2 6.85 -0.4 6.75 -0.45 6.6 -0.4 6.4 -0.2 6.35 -0.05 6.4 0.05 6.6 M1.65 6.45 L1.55 6.6 1.4 6.7 1.2 6.6 1.15 6.45 1.2 6.25 1.4 6.2 1.55 6.25 1.65 6.45"/><path stroke="none" fill="url(#gradient5)" d="M-5.3 -4.15 L-5.05 -4.45 -4.75 -4.75 Q-3.45 -6.05 -1.6 -6.45 L-0.1 -6.65 0.0 -6.65 Q2.65 -6.65 4.6 -4.75 L5.85 -2.95 6.35 -1.7 6.5 -0.15 6.5 0.0 Q6.5 1.8 5.75 3.2 L4.6 4.65 Q2.6 6.6 -0.1 6.6 -2.8 6.6 -4.75 4.65 -6.35 3.05 -6.6 0.95 L-6.7 0.0 -6.6 -1.35 Q-6.3 -2.95 -5.3 -4.15"/><path stroke="none" fill="url(#gradient6)" d="M6.75 0.25 Q6.75 2.35 5.6 3.8 4.45 5.25 2.8 5.25 1.25 5.25 0.05 3.8 -1.15 2.35 -1.15 0.25 -1.15 -1.8 0.05 -3.35 1.25 -4.75 2.8 -4.75 4.45 -4.75 5.6 -3.35 6.75 -1.8 6.75 0.25"/></g><g id="c26"><g><use transform="matrix(1.0,0.0,0.0,1.0,0.0,0.0)" xlink:href="#c25"/></g></g><g id="c27"><path fill="none" stroke="#000000" stroke-width="0.5" stroke-opacity="0.498039215686" d="M-1.1 -0.35 L1.15 0.3"/></g><g id="c28"><g><use transform="matrix(1.0,0.0,0.0,1.0,0.0,0.0)" xlink:href="#c27"/></g></g><g id="c29"><path fill="none" stroke="#000000" stroke-width="0.5" stroke-opacity="0.498039215686" d="M-0.45 0.9 L0.45 -0.9"/></g><g id="c30"><g><use transform="matrix(1.0,0.0,0.0,1.0,0.0,0.0)" xlink:href="#c29"/></g></g><g id="c31"><path fill="#445288" stroke="none" d="M-2.8 -0.65 L-2.3 -0.2 -2.85 -0.65 -2.8 -0.65"/><path fill="#9fa7c7" stroke="none" d="M-2.15 -0.1 L-1.65 0.4 -2.0 0.15 -2.15 -0.1"/><path fill="#384472" stroke="none" d="M2.4 -0.2 L2.35 -0.25 2.45 -0.25 2.4 -0.2 M-2.85 -0.75 L-2.85 -0.7 -2.9 -0.75 -2.85 -0.75"/><path fill="#9b0000" stroke="none" d="M-0.8 0.95 L-1.45 0.55 -1.65 0.4 -2.15 -0.1 -2.2 -0.15 -2.3 -0.2 -2.8 -0.65 -2.85 -0.7 -2.85 -0.75 -3.05 -1.25 -3.2 -1.75 -0.4 -1.55 Q1.15 -1.25 2.35 -0.25 L2.4 -0.2 1.15 0.25 Q1.2 0.75 1.5 1.05 L1.95 1.4 0.7 1.4 -0.65 1.0 -0.8 0.95"/><path fill="#fe8181" stroke="none" d="M2.35 -0.25 Q1.15 -1.25 -0.4 -1.55 L-3.2 -1.75 -3.05 -1.25 -3.5 -2.15 Q-1.85 -2.6 -0.4 -2.15 1.05 -1.7 2.35 -0.25"/><path fill="none" stroke="#003366" stroke-width="0.5" stroke-opacity="0.2" d="M-1.65 0.4 L-1.45 0.55 -0.8 0.95 M-0.65 1.0 L0.7 1.4 1.95 1.4 M-3.05 -1.25 L-2.85 -0.75 -2.9 -0.75 -2.85 -0.7 -2.8 -0.65 -2.3 -0.2 -2.2 -0.15 -2.15 -0.1 M-1.65 0.4 L-2.0 0.15 -2.15 -0.1 M2.45 -0.25 L2.35 -0.25 Q1.05 -1.7 -0.4 -2.15 -1.85 -2.6 -3.5 -2.15 L-3.05 -1.25"/><path fill="#fe8181" stroke="none" d="M-1.15 1.85 L-1.45 1.65 Q0.65 0.45 2.8 0.6 L3.2 0.6 Q0.95 0.65 -1.15 1.85"/><path fill="#5366ac" stroke="none" d="M3.2 0.6 L3.35 0.6 3.25 0.7 3.2 0.6 M-0.6 2.25 L-1.2 1.85 -1.15 1.85 -0.6 2.25"/><path fill="#9b0000" stroke="none" d="M-1.15 1.85 Q0.95 0.65 3.2 0.6 L3.25 0.7 2.65 1.35 3.45 1.75 Q1.7 2.6 -0.05 2.35 L-0.5 2.2 -0.6 2.25 -1.15 1.85"/><path fill="none" stroke="#003366" stroke-width="0.5" stroke-opacity="0.2" d="M3.2 0.6 L2.8 0.6 Q0.65 0.45 -1.45 1.65 L-1.15 1.85 Q0.95 0.65 3.2 0.6 L3.35 0.6 M3.25 0.7 L2.65 1.35 3.45 1.75 Q1.7 2.6 -0.05 2.35 L-0.5 2.2 -0.6 2.25 M-1.15 1.85 L-0.6 2.25 M3.2 0.6 L3.25 0.7"/></g><g id="c32"><g><use transform="matrix(1.0,0.0,0.0,1.0,0.0,0.0)" xlink:href="#c31"/></g></g><radialGradient gradientUnits="userSpaceOnUse" r="819.2" cx="0" cy="0" spreadMethod="pad" gradientTransform="matrix(0.0025634765625,0.0,0.000335693359375,0.0025634765625,0.05,-0.05)" id="gradient7"><stop offset="0.694117647059" stop-color="#e88686"/><stop offset="1.0" stop-color="#f2bcbc" stop-opacity="0.0"/></radialGradient><g id="c33"><path stroke="none" fill="url(#gradient7)" d="M1.55 1.35 Q1.05 1.9 0.3 1.9 -0.5 1.9 -1.2 1.35 -1.8 0.75 -1.9 -0.05 -2.0 -0.8 -1.5 -1.4 -1.05 -1.95 -0.2 -1.95 0.55 -1.95 1.25 -1.4 1.85 -0.8 1.95 -0.05 2.05 0.75 1.55 1.35"/></g><g id="c34"><g><use transform="matrix(1.0,0.0,0.0,1.0,0.0,0.0)" xlink:href="#c33"/></g></g><g id="c35"><path fill="#ffcc33" stroke="none" d="M0.4 -1.8 L0.95 -1.55 Q2.8 0.45 2.7 1.25 2.3 1.5 1.35 1.25 L-1.9 0.15 -1.35 -0.5 0.9 0.75 Q3.9 2.0 0.4 -1.8"/><path fill="#a94401" stroke="none" d="M-1.35 -0.5 L-0.4 -1.5 Q0.0 -1.85 0.4 -1.8 3.9 2.0 0.9 0.75 L-1.35 -0.5"/><path fill="#ba4a01" stroke="none" d="M2.7 1.25 Q2.6 1.9 1.15 1.8 L-2.65 1.1 -1.9 0.15 1.35 1.25 Q2.3 1.5 2.7 1.25"/><path fill="none" stroke="#996600" stroke-width="0.5" stroke-opacity="0.2" d="M0.4 -1.8 L0.95 -1.55 Q2.8 0.45 2.7 1.25 2.6 1.9 1.15 1.8 L-2.65 1.1 -1.9 0.15 -1.35 -0.5 -0.4 -1.5 Q0.0 -1.85 0.4 -1.8 M2.7 1.25 Q2.3 1.5 1.35 1.25 L-1.9 0.15"/></g><g id="c36"><g><use transform="matrix(1.0,0.0,0.0,1.0,0.0,0.0)" xlink:href="#c35"/></g></g><g id="c37"><path fill="#ff9900" stroke="none" d="M2.2 0.55 Q2.95 2.3 0.8 1.8 L-2.4 0.65 -0.45 -1.65 -0.95 -0.8 1.15 1.2 Q2.4 2.1 2.2 0.55"/><path fill="#fed69a" stroke="none" d="M2.2 0.55 Q2.4 2.1 1.15 1.2 L-0.95 -0.8 -0.45 -1.65 -0.45 -1.7 Q0.3 -2.15 0.9 -1.55 L2.2 0.55"/><path fill="none" stroke="#996600" stroke-width="0.5" stroke-opacity="0.2" d="M-0.45 -1.65 L-2.4 0.65 0.8 1.8 Q2.95 2.3 2.2 0.55 M-0.45 -1.65 L-0.45 -1.7 Q0.3 -2.15 0.9 -1.55 L2.2 0.55"/></g><g id="c38"><g><use transform="matrix(1.0,0.0,0.0,1.0,0.0,0.0)" xlink:href="#c37"/></g></g><g id="c39"><path fill="#252016" stroke="none" d="M-0.3 -0.8 L-0.4 -0.9 -0.45 -0.9 Q-0.3 -1.25 0.0 -1.2 L0.5 -0.9 0.7 -0.05 0.5 0.8 0.0 1.2 -0.5 0.8 -0.7 -0.05 -0.65 -0.5 -0.6 -0.45 -0.4 -0.35 -0.3 -0.45 -0.2 -0.65 -0.3 -0.8"/><path fill="#ffffff" stroke="none" d="M-0.2 -0.45 L-0.4 -0.3 -0.6 -0.45 -0.7 -0.7 -0.6 -1.0 -0.4 -1.1 -0.2 -1.0 -0.1 -0.7 -0.2 -0.45"/></g><g id="c40"><g><use transform="matrix(1.0,0.0,0.0,1.0,0.0,0.0)" xlink:href="#c39"/></g></g><g id="c41"><path fill="#252016" stroke="none" d="M-0.4 -0.5 L-0.4 -0.45 -0.25 -0.4 -0.15 -0.45 -0.1 -0.65 -0.15 -0.85 -0.25 -0.95 -0.3 -0.95 Q-0.15 -1.25 0.05 -1.2 L0.35 -0.9 0.5 -0.05 0.35 0.8 0.05 1.15 -0.3 0.8 -0.4 -0.05 -0.4 -0.5"/><path fill="#ffffff" stroke="none" d="M-0.05 -0.45 L-0.2 -0.3 -0.35 -0.45 -0.4 -0.7 -0.35 -1.0 -0.2 -1.1 -0.05 -1.0 0.05 -0.7 -0.05 -0.45"/></g><g id="c42"><g><use transform="matrix(1.0,0.0,0.0,1.0,0.0,0.0)" xlink:href="#c41"/></g></g><g id="c43"><path fill="#fe8181" stroke="none" d="M3.2 -0.95 L3.25 -1.05 3.35 -1.1 3.35 -0.95 Q3.65 -0.45 3.6 0.25 L3.4 1.4 3.0 0.7 2.95 0.7 2.95 0.35 3.2 -0.95"/><path fill="#9b0000" stroke="none" d="M3.2 -0.95 L2.95 0.35 2.95 0.7 Q2.75 0.7 2.65 0.8 L2.85 -0.15 2.95 -0.5 2.85 -0.15 2.65 0.8 Q2.05 -0.35 2.45 -1.05 L2.95 -0.5 3.2 -0.95"/><path fill="none" stroke="#000000" stroke-width="0.5" stroke-opacity="0.180392156863" d="M3.4 1.4 L3.6 0.25 Q3.65 -0.45 3.35 -0.95 L3.35 -1.1 3.25 -1.05 3.2 -0.95 2.95 -0.5 2.85 -0.15 2.65 0.8"/><path fill="#fe8181" stroke="none" d="M2.4 1.55 L1.95 0.4 1.8 0.4 2.2 -2.25 2.25 -2.2 Q2.65 -1.45 2.65 -0.45 L2.4 1.55"/><path fill="#9b0000" stroke="none" d="M1.8 0.4 L1.2 0.95 Q1.15 0.2 1.4 -0.55 1.55 -1.35 2.05 -2.2 L2.2 -2.35 2.2 -2.25 1.8 0.4"/><path fill="none" stroke="#000000" stroke-width="0.5" stroke-opacity="0.180392156863" d="M1.2 0.95 Q1.15 0.2 1.4 -0.55 1.55 -1.35 2.05 -2.2 L2.2 -2.35 2.2 -2.25 2.25 -2.2 Q2.65 -1.45 2.65 -0.45 L2.4 1.55"/><path fill="#fe8181" stroke="none" d="M-1.9 -3.4 L-1.9 -3.55 -1.6 -3.35 -1.3 -3.1 -1.15 -3.0 -0.45 -2.5 1.05 -0.8 Q1.85 0.4 1.95 1.65 0.65 0.65 -0.1 0.5 L-0.4 0.5 -1.9 -3.4"/><path fill="#9b0000" stroke="none" d="M-0.4 0.5 L-1.45 0.5 Q-2.15 -0.55 -2.25 -1.4 -2.4 -2.4 -1.9 -3.4 L-0.4 0.5"/><path fill="none" stroke="#000000" stroke-width="0.5" stroke-opacity="0.180392156863" d="M-1.9 -3.4 L-1.9 -3.55 -1.6 -3.35 -1.3 -3.1 -1.15 -3.0 -0.45 -2.5 1.05 -0.8 Q1.85 0.4 1.95 1.65 M-1.45 0.5 Q-2.15 -0.55 -2.25 -1.4 -2.4 -2.4 -1.9 -3.4"/><path fill="#fe8181" stroke="none" d="M-2.85 0.2 L-2.6 0.2 Q-1.7 0.3 -0.85 0.95 0.05 1.4 0.7 2.3 L-0.5 2.1 -0.55 2.15 -2.85 0.2"/><path fill="#9b0000" stroke="none" d="M-2.85 0.2 L-0.55 2.15 -0.6 2.15 Q-0.95 2.35 -0.75 2.7 -2.1 2.65 -2.55 1.75 L-1.9 1.7 -1.85 1.7 -1.95 1.65 -2.85 0.3 -2.95 0.15 -2.85 0.2 M-0.75 2.7 L-1.9 1.7 -0.75 2.7"/><path fill="#5366ac" stroke="none" d="M-1.95 1.65 L-1.85 1.7 -1.9 1.7 -1.95 1.65"/><path fill="none" stroke="#000000" stroke-width="0.5" stroke-opacity="0.180392156863" d="M0.7 2.3 Q0.05 1.4 -0.85 0.95 -1.7 0.3 -2.6 0.2 L-2.85 0.2 -2.95 0.15 -2.85 0.3 -1.95 1.65 -1.9 1.7 -0.75 2.7"/><path fill="#9b0000" stroke="none" d="M-2.65 2.7 L-3.0 2.2 -1.5 3.15 -1.65 3.5 Q-3.2 3.75 -3.6 3.05 L-2.65 2.7 -2.35 3.0 -1.65 3.5 -2.35 3.0 -2.65 2.7"/><path fill="#fe8181" stroke="none" d="M-3.0 2.2 L-3.0 2.15 -3.1 2.05 -2.95 2.05 -1.5 2.3 -0.45 2.95 -1.2 3.0 -1.45 3.05 -1.5 3.15 -3.0 2.2"/><path fill="none" stroke="#000000" stroke-width="0.5" stroke-opacity="0.180392156863" d="M-2.65 2.7 L-3.0 2.2 -3.0 2.15 -3.1 2.05 -2.95 2.05 -1.5 2.3 -0.45 2.95 M-2.65 2.7 L-2.35 3.0 -1.65 3.5"/></g><g id="c44"><g><use transform="matrix(1.0,0.0,0.0,1.0,0.0,0.0)" xlink:href="#c43"/></g></g><g id="c45"><g><use transform="matrix(-0.656066894531,0.0,0.0,0.328033447266,0.0,0.05)" filter="url(#filter23)" xlink:href="#c2"/></g><g><use transform="matrix(1.0,0.0,0.0,1.0,3.25,-7.05)" xlink:href="#c4"/></g><g><use transform="matrix(1.0,0.0,0.0,1.0,-10.15,-26.65)" xlink:href="#c6"/></g><g><use transform="matrix(1.0,0.0,0.0,1.0,2.85,-1.7)" xlink:href="#c8"/></g><g><use transform="matrix(1.0,0.0,0.0,1.0,-3.1,-6.7)" xlink:href="#c10"/></g><g><use transform="matrix(1.0,0.0,0.0,1.0,0.4,-4.25)" xlink:href="#c12"/></g><g><use transform="matrix(1.0,0.0,0.0,1.0,1.75,-4.95)" xlink:href="#c14"/></g><g><use transform="matrix(1.0,0.0,0.0,1.0,-1.95,0.2)" xlink:href="#c16"/></g><g><use transform="matrix(1.0,0.0,0.0,1.0,-2.4,-3.0)" xlink:href="#c18"/></g><g><use transform="matrix(1.0,0.0,0.0,1.0,-1.85,-3.3)" xlink:href="#c20"/></g><g><use transform="matrix(1.0,0.0,0.0,1.0,0.1,-6.6)" xlink:href="#c22"/></g><g><use transform="matrix(1.0,0.0,0.0,1.0,1.95,-7.1)" xlink:href="#c24"/></g><g><use transform="matrix(1.0,0.0,0.0,1.0,-2.5,-5.25)" xlink:href="#c4"/></g><g><use transform="matrix(1.0,0.0,0.0,1.0,1.4,-12.8)" xlink:href="#c26"/></g><g><use transform="matrix(1.0,0.0,0.0,1.0,3.7,-14.85)" xlink:href="#c28"/></g><g><use transform="matrix(1.0,0.0,0.0,1.0,6.5,-15.95)" xlink:href="#c30"/></g><g><use transform="matrix(1.0,0.0,0.0,1.0,-3.9,-9.5)" xlink:href="#c32"/></g><g><use transform="matrix(1.0,0.0,0.0,1.0,1.2,-8.9)" xlink:href="#c34"/></g><g><use transform="matrix(1.0,0.0,0.0,1.0,5.95,-7.6)" xlink:href="#c36"/></g><g><use transform="matrix(1.0,0.0,0.0,1.0,6.35,-8.0)" xlink:href="#c38"/></g><g><use transform="matrix(1.0,0.0,0.0,1.0,4.75,-10.8)" xlink:href="#c40"/></g><g><use transform="matrix(1.0,0.0,0.0,1.0,6.45,-11.75)" xlink:href="#c42"/></g><g><use transform="matrix(1.0,0.0,0.0,1.0,1.1,-19.3)" xlink:href="#c44"/></g></g><filter id="filter23"><feColorMatrix in="SourceGraphic" type="matrix" values="1.0 0.0 0.0 0.0 0.0 0.0 1.0 0.0 0.0 0.0 0.0 0.0 1.0 0.0 0.0 0.0 0.0 0.0 0.5 0.0" result="cxform"/><feComposite operator="in" in2="SourceGraphic" result="color-xform"/></filter><g id="c46"><path fill="#000000" fill-opacity="0.00392156862745" d="M0.0 0.0 L60.0 0.0 60.0 60.0 0.0 60.0 0.0 0.0"/></g><g id="c47"><path fill="none" stroke="#000000" stroke-width="1.0" stroke-opacity="0.301960784314" d="M22.3 0.35 Q26.6 -1.0 28.5 3.05 L41.4 31.7 Q43.1 35.4 39.9 36.85 L38.15 37.65 19.65 43.65 Q17.05 44.5 15.35 43.3 14.2 42.55 13.5 40.9 L0.55 12.25 Q-0.6 9.75 0.6 8.25 1.15 7.55 2.2 7.05 2.85 6.6 3.8 6.3 L22.3 0.35"/><path fill="#300525" stroke="none" d="M25.55 0.9 Q26.9 1.6 27.8 3.55 L40.7 32.15 Q42.6 36.3 38.3 37.65 L23.3 42.5 13.15 21.4 4.6 20.9 0.7 12.25 Q-0.45 9.75 0.75 8.25 L29.8 9.75 25.55 0.9 M20.1 43.55 L19.8 43.65 Q17.15 44.45 15.5 43.3 L20.1 43.55"/><path fill="#630a4c" stroke="none" d="M23.3 42.5 L20.1 43.55 15.5 43.3 Q14.35 42.55 13.65 40.9 L4.6 20.9 13.15 21.4 23.3 42.5 M0.75 8.25 Q1.45 7.3 3.1 6.75 L21.65 0.8 25.55 0.9 29.8 9.75 0.75 8.25"/><path fill="none" stroke="#000000" stroke-width="0.5" stroke-opacity="0.301960784314" d="M25.55 0.9 Q26.9 1.6 27.8 3.55 L40.7 32.15 Q42.6 36.3 38.3 37.65 L23.3 42.5 20.1 43.55 19.8 43.65 Q17.15 44.45 15.5 43.3 14.35 42.55 13.65 40.9 L4.6 20.9 0.7 12.25 Q-0.45 9.75 0.75 8.25 1.45 7.3 3.1 6.75 L21.65 0.8 25.55 0.9"/><path fill="#9d147b" stroke="none" d="M14.2 40.5 L1.35 11.8 Q-0.5 7.75 3.8 6.35 L22.3 0.4 Q26.55 -1.0 28.45 3.1 L41.35 31.7 Q43.25 35.85 38.9 37.25 L20.4 43.2 Q16.1 44.55 14.2 40.5"/><path fill="none" stroke="#000000" stroke-width="0.5" stroke-opacity="0.301960784314" d="M14.2 40.5 L1.35 11.8 Q-0.5 7.75 3.8 6.35 L22.3 0.4 Q26.55 -1.0 28.45 3.1 L41.35 31.7 Q43.25 35.85 38.9 37.25 L20.4 43.2 Q16.1 44.55 14.2 40.5"/><path fill="#fcf2cf" stroke="none" d="M9.15 13.6 Q9.8 12.8 9.55 11.6 L9.1 10.55 22.05 6.35 Q24.9 5.45 26.25 7.85 L26.5 8.3 35.8 29.0 35.95 29.35 Q34.75 29.3 34.1 30.1 33.45 30.9 33.7 32.1 L34.0 32.9 20.65 37.2 Q18.8 37.8 17.65 37.0 16.8 36.4 16.3 35.2 L6.95 14.6 6.8 14.4 7.1 14.4 Q8.4 14.45 9.15 13.6"/><path fill="#c47fad" stroke="none" d="M8.25 23.65 L3.35 12.8 Q1.65 9.1 5.5 7.85 L22.25 2.5 Q26.05 1.25 27.75 4.95 L28.25 6.1 35.55 22.3 39.35 30.75 Q41.1 34.5 37.2 35.7 L20.45 41.1 Q16.8 42.25 15.2 39.0 L15.0 38.6 8.25 23.65 M9.15 13.6 Q8.4 14.45 7.1 14.4 L6.8 14.4 6.95 14.6 16.3 35.2 Q16.8 36.4 17.65 37.0 18.8 37.8 20.65 37.2 L34.0 32.9 33.7 32.1 Q33.45 30.9 34.1 30.1 34.75 29.3 35.95 29.35 L35.8 29.0 26.5 8.3 26.25 7.85 Q24.9 5.45 22.05 6.35 L9.1 10.55 9.55 11.6 Q9.8 12.8 9.15 13.6"/><path fill="none" stroke="#ffcc00" stroke-width="1.0" stroke-opacity="0.749019607843" d="M8.25 23.65 L3.35 12.8 Q1.65 9.1 5.5 7.85 L22.25 2.5 Q26.05 1.25 27.75 4.95 L28.25 6.1 M35.55 22.3 L39.35 30.75 Q41.1 34.5 37.2 35.7 L20.45 41.1 Q16.8 42.25 15.2 39.0 L15.0 38.6"/><path fill="none" stroke="#bf9900" stroke-width="1.0" stroke-opacity="0.749019607843" d="M28.25 6.1 L35.55 22.3 M15.0 38.6 L8.25 23.65"/><path fill="none" stroke="#f0b92b" stroke-width="0.5" d="M9.15 13.6 Q9.8 12.8 9.55 11.6 L9.1 10.55 22.05 6.35 Q24.9 5.45 26.25 7.85 L26.5 8.3 35.8 29.0 35.95 29.35 Q34.75 29.3 34.1 30.1 33.45 30.9 33.7 32.1 L34.0 32.9 20.65 37.2 Q18.8 37.8 17.65 37.0 16.8 36.4 16.3 35.2 L6.95 14.6 6.8 14.4 7.1 14.4 Q8.4 14.45 9.15 13.6"/></g><g id="c48"><path fill="#7fdbfe" stroke="none" d="M10.75 4.9 Q10.75 4.6 10.9 4.35 11.25 3.45 11.95 2.75 13.3 1.5 14.35 2.1 15.4 2.7 14.95 4.45 14.7 5.4 14.1 6.15 L13.75 6.5 Q13.1 7.15 12.35 7.35 L11.4 7.2 Q10.95 6.9 10.75 6.4 10.5 5.75 10.75 4.9 M7.5 5.9 Q7.0 5.85 6.6 5.5 6.05 5.0 5.8 4.15 L5.7 3.6 Q5.55 2.65 5.8 1.7 6.25 0.0 7.5 0.0 L7.6 0.0 Q8.85 0.0 9.3 1.7 9.55 2.65 9.4 3.6 L9.3 4.15 8.5 5.5 7.6 5.9 7.5 5.9 M4.35 4.9 Q4.6 5.75 4.35 6.4 L3.7 7.2 2.75 7.35 Q2.0 7.15 1.35 6.5 L1.0 6.15 Q0.4 5.4 0.15 4.45 -0.3 2.7 0.75 2.1 1.8 1.5 3.15 2.75 3.85 3.45 4.2 4.35 L4.35 4.9 M5.5 13.7 Q4.45 13.9 3.65 12.95 2.75 12.0 3.2 10.25 3.7 8.5 5.25 7.6 6.4 6.9 7.55 7.0 8.75 6.9 9.9 7.6 11.45 8.5 11.95 10.25 12.35 12.0 11.5 12.95 10.7 13.9 9.65 13.7 8.55 13.5 7.55 12.6 6.55 13.5 5.5 13.7"/></g><g id="c49"><g><use transform="matrix(1.0,0.0,0.0,1.0,0.0,0.0)" xlink:href="#c48"/></g></g><radialGradient gradientUnits="userSpaceOnUse" r="819.2" cx="0" cy="0" spreadMethod="pad" gradientTransform="matrix(0.0914459228516,0.0,0.0,0.0914459228516,0.6,3.4)" id="gradient8"><stop offset="0.0" stop-color="#ffffff"/><stop offset="1.0" stop-color="#ffffff" stop-opacity="0.0"/></radialGradient><g id="c50"><path stroke="none" fill="url(#gradient8)" d="M36.65 -54.65 Q60.05 -42.0 69.75 -17.95 80.55 8.9 68.0 34.1 55.45 59.35 26.8 68.2 -1.8 77.05 -29.7 64.3 -57.6 51.6 -68.45 24.75 -79.3 -2.05 -66.75 -27.25 L-66.7 -27.3 Q-54.1 -52.5 -25.5 -61.4 3.1 -70.2 31.0 -57.5 L36.65 -54.65"/></g><g id="c51"><g><use transform="matrix(1.0,0.0,0.0,1.0,0.0,0.0)" xlink:href="#c50"/></g></g><radialGradient gradientUnits="userSpaceOnUse" r="819.2" cx="0" cy="0" spreadMethod="pad" gradientTransform="matrix(0.209197998047,0.0,0.0,0.177108764648,67.15,107.2)" id="gradient9"><stop offset="0.356862745098" stop-color="#ffffff"/><stop offset="0.670588235294" stop-opacity="0.0"/></radialGradient><g id="c52"><path fill="none" stroke-linejoin="round" stroke-linecap="round" stroke="url(#gradient9)" stroke-width="0.5" d="M136.55 165.8 L68.6 106.0 68.4 106.0 118.25 201.5 M68.2 105.7 L68.25 105.8 68.25 105.75 68.2 105.7 0.0 45.7 M68.25 105.8 L68.3 105.85 68.3 105.8 68.25 105.75 49.95 0.05 M0.05 97.7 L68.15 105.95 68.25 105.85 68.25 105.8 M68.3 105.85 L68.25 105.85 68.3 106.0 68.3 105.85 68.3 105.8 68.35 105.8 68.3 105.8 86.6 18.35 M50.0 193.2 L68.3 106.0 68.15 105.95 18.25 151.55 M68.4 106.0 L68.3 106.0 86.55 211.5 M68.4 106.0 L68.3 105.85 M68.6 106.0 L68.35 105.8 118.25 60.15 M136.6 114.25 L68.6 106.0 M68.2 105.7 L18.25 10.05"/></g><g id="c53"><g><use transform="matrix(1.0,0.0,0.0,1.0,0.0,0.0)" xlink:href="#c52"/></g></g><g id="c54"><g><use transform="matrix(1.0,0.0,0.0,1.0,0.0,0.0)" xlink:href="#c47"/></g><g><use transform="matrix(0.238861083984,-0.0867004394531,0.10026550293,0.233917236328,34.25,31.15)" xlink:href="#c49"/></g><g><use transform="matrix(0.238861083984,-0.0867004394531,0.10026550293,0.233917236328,4.25,10.3)" xlink:href="#c49"/></g><g><use transform="matrix(0.141098022461,-0.0378112792969,0.111373901367,0.225646972656,20.25,20.65)" filter="url(#filter52)" xlink:href="#c51"/></g><g><use transform="matrix(-0.155029296875,0.0513153076172,0.0841827392578,0.147033691406,22.6,2.3)" filter="url(#filter53)" xlink:href="#c53"/></g><g><use transform="matrix(0.466720581055,-0.169845581055,0.169845581055,0.466720581055,27.25,30.95)" xlink:href="#c45"/></g><g><use transform="matrix(0.162948608398,-0.0436706542969,0.128631591797,0.260604858398,20.35,20.95)" filter="url(#filter55)" xlink:href="#c51"/></g></g><filter id="filter52"><feColorMatrix in="SourceGraphic" type="matrix" values="0.0 0.0 0.0 0.0 0.796875 0.0 0.0 0.0 0.0 0.59765625 0.0 0.0 0.0 0.0 0.19921875 0.0 0.0 0.0 1.0 0.0" result="cxform"/><feComposite operator="in" in2="SourceGraphic" result="color-xform"/></filter><filter id="filter53"><feColorMatrix in="SourceGraphic" type="matrix" values="0.0 0.0 0.0 0.0 0.99609375 0.0 0.0 0.0 0.0 0.99609375 0.0 0.0 0.0 0.0 0.99609375 0.0 0.0 0.0 1.0 0.0" result="cxform"/><feComposite operator="in" in2="SourceGraphic" result="color-xform"/></filter><filter id="filter55"><feColorMatrix in="SourceGraphic" type="matrix" values="1.0 0.0 0.0 0.0 0.0 0.0 1.0 0.0 0.0 0.0 0.0 0.0 1.0 0.0 0.0 0.0 0.0 0.0 0.23046875 0.0" result="cxform"/><feComposite operator="in" in2="SourceGraphic" result="color-xform"/></filter></defs><g><g><use transform="matrix(1.0,0.0,0.0,1.0,0.0,0.0)" xlink:href="#c46"/></g><g><use transform="matrix(1.15496826172,0.0,0.0,1.15496826172,5.85,3.95)" xlink:href="#c54"/></g></g></svg>