<?xml version='1.0' encoding='UTF-8'?>
<svg xmlns:xlink="http://www.w3.org/1999/xlink" xmlns="http://www.w3.org/2000/svg" version="1.1" width="60px" height="60px" viewBox="0.0 0.0 60.0 60.0"><defs><g id="c1"><path fill="#000000" fill-opacity="0.00392156862745" d="M0.0 0.0 L60.0 0.0 60.0 60.0 0.0 60.0 0.0 0.0"/></g><g id="c2"><path fill="none" stroke="#000000" stroke-width="1.0" stroke-opacity="0.301960784314" d="M22.3 0.35 Q26.6 -1.0 28.5 3.05 L41.4 31.7 Q43.1 35.4 39.9 36.85 L38.15 37.65 19.65 43.65 Q17.05 44.5 15.35 43.3 14.2 42.55 13.5 40.9 L0.55 12.25 Q-0.6 9.75 0.6 8.25 1.15 7.55 2.2 7.05 2.85 6.6 3.8 6.3 L22.3 0.35"/><path fill="#300525" stroke="none" d="M25.55 0.9 Q26.9 1.6 27.8 3.55 L40.7 32.15 Q42.6 36.3 38.3 37.65 L23.3 42.5 13.15 21.4 4.6 20.9 0.7 12.25 Q-0.45 9.75 0.75 8.25 L29.8 9.75 25.55 0.9 M20.1 43.55 L19.8 43.65 Q17.15 44.45 15.5 43.3 L20.1 43.55"/><path fill="#630a4c" stroke="none" d="M23.3 42.5 L20.1 43.55 15.5 43.3 Q14.35 42.55 13.65 40.9 L4.6 20.9 13.15 21.4 23.3 42.5 M0.75 8.25 Q1.45 7.3 3.1 6.75 L21.65 0.8 25.55 0.9 29.8 9.75 0.75 8.25"/><path fill="none" stroke="#000000" stroke-width="0.5" stroke-opacity="0.301960784314" d="M25.55 0.9 Q26.9 1.6 27.8 3.55 L40.7 32.15 Q42.6 36.3 38.3 37.65 L23.3 42.5 20.1 43.55 19.8 43.65 Q17.15 44.45 15.5 43.3 14.35 42.55 13.65 40.9 L4.6 20.9 0.7 12.25 Q-0.45 9.75 0.75 8.25 1.45 7.3 3.1 6.75 L21.65 0.8 25.55 0.9"/><path fill="#9d147b" stroke="none" d="M14.2 40.5 L1.35 11.8 Q-0.5 7.75 3.8 6.35 L22.3 0.4 Q26.55 -1.0 28.45 3.1 L41.35 31.7 Q43.25 35.85 38.9 37.25 L20.4 43.2 Q16.1 44.55 14.2 40.5"/><path fill="none" stroke="#000000" stroke-width="0.5" stroke-opacity="0.301960784314" d="M14.2 40.5 L1.35 11.8 Q-0.5 7.75 3.8 6.35 L22.3 0.4 Q26.55 -1.0 28.45 3.1 L41.35 31.7 Q43.25 35.85 38.9 37.25 L20.4 43.2 Q16.1 44.55 14.2 40.5"/><path fill="#fcf2cf" stroke="none" d="M9.15 13.6 Q9.8 12.8 9.55 11.6 L9.1 10.55 22.05 6.35 Q24.9 5.45 26.25 7.85 L26.5 8.3 35.8 29.0 35.95 29.35 Q34.75 29.3 34.1 30.1 33.45 30.9 33.7 32.1 L34.0 32.9 20.65 37.2 Q18.8 37.8 17.65 37.0 16.8 36.4 16.3 35.2 L6.95 14.6 6.8 14.4 7.1 14.4 Q8.4 14.45 9.15 13.6"/><path fill="#c47fad" stroke="none" d="M8.25 23.65 L3.35 12.8 Q1.65 9.1 5.5 7.85 L22.25 2.5 Q26.05 1.25 27.75 4.95 L28.25 6.1 35.55 22.3 39.35 30.75 Q41.1 34.5 37.2 35.7 L20.45 41.1 Q16.8 42.25 15.2 39.0 L15.0 38.6 8.25 23.65 M9.15 13.6 Q8.4 14.45 7.1 14.4 L6.8 14.4 6.95 14.6 16.3 35.2 Q16.8 36.4 17.65 37.0 18.8 37.8 20.65 37.2 L34.0 32.9 33.7 32.1 Q33.45 30.9 34.1 30.1 34.75 29.3 35.95 29.35 L35.8 29.0 26.5 8.3 26.25 7.85 Q24.9 5.45 22.05 6.35 L9.1 10.55 9.55 11.6 Q9.8 12.8 9.15 13.6"/><path fill="none" stroke="#ffcc00" stroke-width="1.0" stroke-opacity="0.749019607843" d="M8.25 23.65 L3.35 12.8 Q1.65 9.1 5.5 7.85 L22.25 2.5 Q26.05 1.25 27.75 4.95 L28.25 6.1 M35.55 22.3 L39.35 30.75 Q41.1 34.5 37.2 35.7 L20.45 41.1 Q16.8 42.25 15.2 39.0 L15.0 38.6"/><path fill="none" stroke="#bf9900" stroke-width="1.0" stroke-opacity="0.749019607843" d="M28.25 6.1 L35.55 22.3 M15.0 38.6 L8.25 23.65"/><path fill="none" stroke="#f0b92b" stroke-width="0.5" d="M9.15 13.6 Q9.8 12.8 9.55 11.6 L9.1 10.55 22.05 6.35 Q24.9 5.45 26.25 7.85 L26.5 8.3 35.8 29.0 35.95 29.35 Q34.75 29.3 34.1 30.1 33.45 30.9 33.7 32.1 L34.0 32.9 20.65 37.2 Q18.8 37.8 17.65 37.0 16.8 36.4 16.3 35.2 L6.95 14.6 6.8 14.4 7.1 14.4 Q8.4 14.45 9.15 13.6"/></g><g id="c3"><path fill="#7fdbfe" stroke="none" d="M10.75 4.9 Q10.75 4.6 10.9 4.35 11.25 3.45 11.95 2.75 13.3 1.5 14.35 2.1 15.4 2.7 14.95 4.45 14.7 5.4 14.1 6.15 L13.75 6.5 Q13.1 7.15 12.35 7.35 L11.4 7.2 Q10.95 6.9 10.75 6.4 10.5 5.75 10.75 4.9 M7.5 5.9 Q7.0 5.85 6.6 5.5 6.05 5.0 5.8 4.15 L5.7 3.6 Q5.55 2.65 5.8 1.7 6.25 0.0 7.5 0.0 L7.6 0.0 Q8.85 0.0 9.3 1.7 9.55 2.65 9.4 3.6 L9.3 4.15 8.5 5.5 7.6 5.9 7.5 5.9 M4.35 4.9 Q4.6 5.75 4.35 6.4 L3.7 7.2 2.75 7.35 Q2.0 7.15 1.35 6.5 L1.0 6.15 Q0.4 5.4 0.15 4.45 -0.3 2.7 0.75 2.1 1.8 1.5 3.15 2.75 3.85 3.45 4.2 4.35 L4.35 4.9 M5.5 13.7 Q4.45 13.9 3.65 12.95 2.75 12.0 3.2 10.25 3.7 8.5 5.25 7.6 6.4 6.9 7.55 7.0 8.75 6.9 9.9 7.6 11.45 8.5 11.95 10.25 12.35 12.0 11.5 12.95 10.7 13.9 9.65 13.7 8.55 13.5 7.55 12.6 6.55 13.5 5.5 13.7"/></g><g id="c4"><g><use transform="matrix(1.0,0.0,0.0,1.0,0.0,0.0)" xlink:href="#c3"/></g></g><radialGradient gradientUnits="userSpaceOnUse" r="819.2" cx="0" cy="0" spreadMethod="pad" gradientTransform="matrix(0.0914459228516,0.0,0.0,0.0914459228516,0.6,3.4)" id="gradient1"><stop offset="0.0" stop-color="#ffffff"/><stop offset="1.0" stop-color="#ffffff" stop-opacity="0.0"/></radialGradient><g id="c5"><path stroke="none" fill="url(#gradient1)" d="M36.65 -54.65 Q60.05 -42.0 69.75 -17.95 80.55 8.9 68.0 34.1 55.45 59.35 26.8 68.2 -1.8 77.05 -29.7 64.3 -57.6 51.6 -68.45 24.75 -79.3 -2.05 -66.75 -27.25 L-66.7 -27.3 Q-54.1 -52.5 -25.5 -61.4 3.1 -70.2 31.0 -57.5 L36.65 -54.65"/></g><g id="c6"><g><use transform="matrix(1.0,0.0,0.0,1.0,0.0,0.0)" xlink:href="#c5"/></g></g><radialGradient gradientUnits="userSpaceOnUse" r="819.2" cx="0" cy="0" spreadMethod="pad" gradientTransform="matrix(0.209197998047,0.0,0.0,0.177108764648,67.15,107.2)" id="gradient2"><stop offset="0.356862745098" stop-color="#ffffff"/><stop offset="0.670588235294" stop-opacity="0.0"/></radialGradient><g id="c7"><path fill="none" stroke-linejoin="round" stroke-linecap="round" stroke="url(#gradient2)" stroke-width="0.5" d="M136.55 165.8 L68.6 106.0 68.4 106.0 118.25 201.5 M68.2 105.7 L68.25 105.8 68.25 105.75 68.2 105.7 0.0 45.7 M68.25 105.8 L68.3 105.85 68.3 105.8 68.25 105.75 49.95 0.05 M0.05 97.7 L68.15 105.95 68.25 105.85 68.25 105.8 M68.3 105.85 L68.25 105.85 68.3 106.0 68.3 105.85 68.3 105.8 68.35 105.8 68.3 105.8 86.6 18.35 M50.0 193.2 L68.3 106.0 68.15 105.95 18.25 151.55 M68.4 106.0 L68.3 106.0 86.55 211.5 M68.4 106.0 L68.3 105.85 M68.6 106.0 L68.35 105.8 118.25 60.15 M136.6 114.25 L68.6 106.0 M68.2 105.7 L18.25 10.05"/></g><g id="c8"><g><use transform="matrix(1.0,0.0,0.0,1.0,0.0,0.0)" xlink:href="#c7"/></g></g><g id="c9"><path fill="#aa772b" stroke="none" d="M21.7 26.35 Q23.9 31.0 26.4 30.9 L25.1 28.45 24.9 28.2 Q24.25 27.05 24.65 26.4 L26.05 23.7 23.6 23.55 Q22.35 23.9 21.9 25.1 21.65 25.7 21.7 26.35 M26.55 29.8 L26.85 29.75 27.15 30.6 27.3 30.55 27.0 29.65 Q27.2 29.5 27.35 29.45 L28.0 28.6 28.1 28.35 28.1 28.3 26.9 29.25 26.5 29.35 26.55 29.8 M26.85 29.75 L27.0 29.65 26.85 29.75"/><path fill="#e0c585" stroke="none" d="M26.65 30.95 L26.75 30.9 26.55 29.8 26.5 29.35 26.9 29.25 28.1 28.3 28.05 28.1 26.9 29.0 26.35 29.2 26.65 30.95 M27.65 30.5 L27.9 30.3 Q28.6 29.7 28.45 27.7 L28.5 27.0 28.15 25.7 Q27.65 24.6 26.55 23.95 27.7 24.8 28.1 25.8 L28.3 26.7 28.25 27.8 Q28.5 28.8 28.15 29.65 L27.75 30.3 27.4 29.7 27.65 30.5"/><path fill="#cc9933" stroke="none" d="M26.4 30.9 L26.5 31.05 26.65 30.95 26.35 29.2 26.9 29.0 Q25.85 28.75 26.2 27.5 26.7 26.45 27.55 26.05 28.15 25.85 28.3 26.7 L28.1 25.8 Q27.7 24.8 26.55 23.95 L26.25 23.75 26.05 23.7 24.65 26.4 Q24.25 27.05 24.9 28.2 L25.1 28.45 26.4 30.9"/><path fill="#d8a53f" stroke="none" d="M21.7 26.35 L22.0 27.4 22.7 28.55 Q24.95 31.45 26.5 31.05 L26.4 30.9 Q23.9 31.0 21.7 26.35 M28.1 28.3 L28.1 28.35 28.0 28.6 27.35 29.45 27.4 29.7 27.75 30.3 28.15 29.65 Q28.5 28.8 28.25 27.8 L28.3 26.7 Q28.15 25.85 27.55 26.05 26.7 26.45 26.2 27.5 25.85 28.75 26.9 29.0 L28.05 28.1 28.1 28.3"/><path fill="#825a20" stroke="none" d="M27.3 30.55 L27.65 30.5 27.4 29.7 27.35 29.45 Q27.2 29.5 27.0 29.65 L27.3 30.55"/><path fill="none" stroke="#000000" stroke-width="0.5" stroke-opacity="0.301960784314" d="M26.5 31.05 Q24.95 31.45 22.7 28.55 L22.0 27.4 21.7 26.35 M26.5 31.05 L26.65 30.95 26.75 30.9 26.55 29.8 26.85 29.75 27.15 30.6 27.3 30.55 27.65 30.5 27.9 30.3 Q28.6 29.7 28.45 27.7 L28.5 27.0 28.15 25.7 Q27.65 24.6 26.55 23.95 L26.25 23.75 26.05 23.7 23.6 23.55 Q22.35 23.9 21.9 25.1 21.65 25.7 21.7 26.35 M26.55 29.8 L26.5 29.35 26.9 29.25 M28.1 28.35 L28.0 28.6 27.35 29.45 Q27.2 29.5 27.0 29.65 L26.85 29.75"/><path fill="#825a20" stroke="none" d="M22.15 25.85 L22.05 25.65 21.05 25.25 20.6 25.15 19.5 25.4 19.3 26.0 19.4 26.6 19.55 26.9 19.7 27.0 20.0 26.15 22.15 25.85 M20.9 27.7 L22.35 27.25 22.4 26.65 21.9 26.95 20.9 27.7"/><path fill="#aa772b" stroke="none" d="M22.15 25.85 L20.0 26.15 19.7 27.0 19.55 26.9 19.4 26.6 19.3 26.0 19.3 26.65 19.35 27.05 19.5 27.25 Q20.0 27.8 20.6 27.8 L20.9 27.7 21.9 26.95 20.35 27.35 Q19.9 27.0 20.1 26.4 L22.25 26.1 22.15 25.85"/><path fill="#d8a53f" stroke="none" d="M22.4 26.65 L22.35 26.3 22.25 26.1 20.1 26.4 Q19.9 27.0 20.35 27.35 L21.9 26.95 22.4 26.65"/><path fill="none" stroke="#000000" stroke-width="0.5" stroke-opacity="0.301960784314" d="M19.3 26.0 L19.5 25.4 20.6 25.15 21.05 25.25 22.05 25.65 22.15 25.85 M19.3 26.0 L19.3 26.65 19.35 27.05 19.5 27.25 Q20.0 27.8 20.6 27.8 L20.9 27.7 22.35 27.25 22.4 26.65 22.35 26.3 22.25 26.1 22.15 25.85"/><path fill="#825a20" stroke="none" d="M26.95 23.9 L27.85 22.75 27.45 22.5 26.15 24.0 26.45 24.35 26.95 23.9"/><path fill="#d8a53f" stroke="none" d="M28.7 23.7 L28.3 22.95 27.85 22.75 26.95 23.9 27.25 24.6 28.7 23.7"/><path fill="#aa772b" stroke="none" d="M28.7 23.7 L27.25 24.6 26.95 23.9 26.45 24.35 27.05 25.15 28.35 24.5 28.7 23.85 28.7 23.7"/><path fill="none" stroke="#000000" stroke-width="0.5" stroke-opacity="0.301960784314" d="M27.85 22.75 L28.3 22.95 28.7 23.7 M27.85 22.75 L27.45 22.5 26.15 24.0 26.45 24.35 27.05 25.15 28.35 24.5 28.7 23.85 28.7 23.7"/><path fill="#aa772b" stroke="none" d="M20.5 12.05 L19.5 13.15 18.35 13.2 18.9 14.05 20.75 13.8 20.5 12.05"/><path fill="#e0c585" stroke="none" d="M18.05 12.25 L19.1 11.75 20.2 12.1 19.4 12.95 18.35 13.2 19.5 13.15 20.5 12.05 Q19.8 11.65 18.95 11.55 L18.05 12.25"/><path fill="#d8a53f" stroke="none" d="M18.35 13.2 L19.4 12.95 20.2 12.1 19.1 11.75 18.05 12.25 17.8 12.45 18.35 13.2"/><path fill="none" stroke="#000000" stroke-width="0.5" stroke-opacity="0.301960784314" d="M18.35 13.2 L17.8 12.45 18.05 12.25 18.95 11.55 Q19.8 11.65 20.5 12.05 M18.35 13.2 L18.9 14.05 20.75 13.8 20.5 12.05"/><path fill="#9ae17b" stroke="none" d="M18.85 13.6 L18.2 12.4 Q17.55 12.0 16.85 12.1 16.15 12.2 15.7 12.75 L15.7 12.8 Q15.25 13.4 15.35 14.1 15.5 14.85 16.05 15.25 16.7 15.7 17.4 15.6 L18.55 14.9 Q19.0 14.35 18.9 13.65 L18.85 13.6 M16.85 12.45 L16.9 12.45 18.0 12.7 Q18.45 13.1 18.5 13.65 L18.55 13.95 18.25 14.7 17.35 15.25 16.25 15.0 Q15.8 14.65 15.7 14.05 L15.8 13.25 16.0 13.05 16.0 13.0 Q16.3 12.55 16.85 12.45"/><path fill="#d7f16b" stroke="none" d="M16.85 12.45 Q16.3 12.55 16.0 13.0 L16.0 13.05 15.8 13.25 16.4 14.0 16.5 14.0 Q15.5 13.1 16.85 12.45"/><path fill="#75d74a" stroke="none" d="M18.9 13.65 L18.85 13.6 18.9 13.65 M18.55 13.95 L18.5 13.65 Q18.45 13.1 18.0 12.7 L16.9 12.45 16.85 12.45 Q15.5 13.1 16.5 14.0 17.05 14.4 17.7 14.3 L18.55 13.95"/><path fill="#339328" stroke="none" d="M15.8 13.25 L15.7 14.05 Q15.8 14.65 16.25 15.0 L17.35 15.25 18.25 14.7 18.55 13.95 17.7 14.3 Q17.05 14.4 16.5 14.0 L16.4 14.0 15.8 13.25"/><path fill="none" stroke="#000000" stroke-width="0.5" stroke-opacity="0.301960784314" d="M18.85 13.6 L18.2 12.4 Q17.55 12.0 16.85 12.1 16.15 12.2 15.7 12.75 L15.7 12.8 Q15.25 13.4 15.35 14.1 15.5 14.85 16.05 15.25 16.7 15.7 17.4 15.6 L18.55 14.9 Q19.0 14.35 18.9 13.65 L18.85 13.6"/><path fill="#aa772b" stroke="none" d="M16.25 14.7 L14.6 15.5 14.7 16.7 15.2 17.7 16.6 15.3 16.25 14.7 M13.1 14.4 L13.0 13.8 12.95 13.75 12.85 13.75 Q12.45 14.4 12.55 15.25 L12.6 15.5 12.8 16.15 13.0 16.35 12.85 15.4 12.85 15.35 Q12.85 14.6 13.1 14.4"/><path fill="#e0c585" stroke="none" d="M14.7 16.7 L14.6 15.5 16.25 14.7 14.3 15.4 13.35 14.45 13.15 14.0 14.7 13.65 12.95 13.75 13.0 13.8 13.1 14.4 13.5 14.9 14.3 15.65 14.7 16.7"/><path fill="#d8a53f" stroke="none" d="M14.7 13.65 L13.15 14.0 13.35 14.45 14.3 15.4 16.25 14.7 15.6 13.55 14.7 13.65"/><path fill="#825a20" stroke="none" d="M15.2 17.7 L14.7 16.7 14.3 15.65 13.5 14.9 13.1 14.4 Q12.85 14.6 12.85 15.35 L12.85 15.4 13.0 16.35 Q14.1 17.4 15.2 17.7"/><path fill="none" stroke="#000000" stroke-width="0.5" stroke-opacity="0.301960784314" d="M16.25 14.7 L16.6 15.3 15.2 17.7 15.25 17.8 M12.95 13.75 L14.7 13.65 M16.25 14.7 L15.6 13.55 14.7 13.65 M12.95 13.75 L12.85 13.75 Q12.45 14.4 12.55 15.25 L12.6 15.5 12.8 16.15 13.0 16.35 Q14.1 17.4 15.2 17.7"/><path fill="#e0c585" stroke="none" d="M24.9 14.45 L24.5 13.85 25.25 13.4 26.5 13.65 27.2 15.0 27.3 15.85 27.45 15.15 Q27.25 14.1 26.6 13.5 L24.65 13.4 24.25 13.85 24.9 14.45"/><path fill="#d8a53f" stroke="none" d="M27.3 15.85 L27.2 15.0 26.5 13.65 25.25 13.4 24.5 13.85 24.9 14.45 25.05 14.6 25.45 14.35 26.15 14.4 26.25 15.15 26.0 16.1 27.05 16.65 27.3 15.85"/><path fill="#cc9933" stroke="none" d="M24.9 14.45 L24.25 13.85 23.55 14.75 24.9 15.45 25.0 15.35 25.3 14.7 25.6 14.5 25.95 14.6 26.25 15.15 26.15 14.4 25.45 14.35 25.05 14.6 24.9 14.45"/><path fill="#825a20" stroke="none" d="M26.0 16.1 L26.25 15.15 25.95 14.6 25.6 14.5 25.3 14.7 25.75 14.8 26.05 15.1 26.0 15.7 26.0 16.1"/><path fill="#aa772b" stroke="none" d="M25.3 14.7 L25.0 15.35 26.0 15.7 26.05 15.1 25.75 14.8 25.3 14.7"/><path fill="none" stroke="#000000" stroke-width="0.5" stroke-opacity="0.301960784314" d="M24.25 13.85 L24.65 13.4 26.6 13.5 Q27.25 14.1 27.45 15.15 L27.3 15.85 27.05 16.65 26.0 16.1 26.25 15.15 M25.3 14.7 L25.0 15.35 24.9 15.45 23.55 14.75 24.25 13.85 M25.3 14.7 L25.6 14.5 25.95 14.6 26.25 15.15 M26.0 15.7 L26.05 15.1 25.75 14.8 25.3 14.7 M25.0 15.35 L26.0 15.7 26.0 16.1"/></g><g id="c10"><g><use transform="matrix(1.0,0.0,0.0,1.0,0.0,0.0)" xlink:href="#c5"/></g></g><g id="c11"><path fill="#9ae17b" stroke="none" d="M26.8 23.95 L26.45 23.75 25.1 24.35 Q25.6 26.0 25.4 27.25 L25.3 27.4 26.85 27.45 27.1 27.3 26.75 25.8 26.7 25.1 26.8 23.95"/><path fill="#75d74a" stroke="none" d="M26.8 23.95 L26.7 25.1 26.8 25.75 Q27.1 27.15 27.45 27.0 L27.9 26.35 28.05 25.75 27.75 24.8 27.4 24.35 26.8 23.95 M25.1 24.35 L23.35 25.15 Q23.9 26.6 24.55 27.1 25.65 27.15 25.1 24.35 M24.9 27.9 L25.2 27.95 26.05 27.85 26.8 27.65 25.45 27.7 24.9 27.9"/><path fill="#d7f16b" stroke="none" d="M26.7 25.1 L26.75 25.8 27.1 27.3 26.85 27.45 25.3 27.4 25.2 27.35 24.55 27.1 Q23.9 26.6 23.35 25.15 L23.2 25.2 Q23.65 26.45 24.05 27.0 L24.3 27.25 25.0 27.6 25.45 27.7 26.8 27.65 26.95 27.55 27.0 27.55 27.1 27.5 Q27.75 27.0 27.9 26.35 L27.45 27.0 Q27.1 27.15 26.8 25.75 L26.7 25.1"/><path fill="#246c41" stroke="none" d="M23.2 25.2 L22.8 25.25 23.7 27.05 23.8 27.2 24.05 27.0 Q23.65 26.45 23.2 25.2"/><path fill="#339328" stroke="none" d="M25.3 27.4 L25.4 27.25 Q25.6 26.0 25.1 24.35 25.65 27.15 24.55 27.1 L25.2 27.35 25.3 27.4 M23.8 27.2 L24.75 27.85 24.9 27.9 25.45 27.7 25.0 27.6 24.3 27.25 24.05 27.0 23.8 27.2"/><path fill="none" stroke="#000000" stroke-width="0.5" stroke-opacity="0.301960784314" d="M25.1 24.35 L26.45 23.75 26.8 23.95 M25.1 24.35 L23.35 25.15 23.2 25.2 22.8 25.25 23.7 27.05 23.8 27.2 24.75 27.85 24.9 27.9 25.2 27.95 26.05 27.85 26.8 27.65 26.95 27.55 27.0 27.55 27.1 27.5 Q27.75 27.0 27.9 26.35 L28.05 25.75 27.75 24.8 27.4 24.35 26.8 23.95"/><path fill="#e0c585" stroke="none" d="M27.1 16.5 L27.1 16.55 27.6 17.4 27.65 17.55 Q27.75 18.95 26.65 20.65 L26.8 20.45 Q27.65 19.4 27.85 18.2 L27.9 17.25 27.45 16.35 27.2 16.1 27.1 16.5 27.2 16.1 25.5 14.5 Q23.1 12.95 20.25 13.35 17.8 13.7 16.25 15.3 L15.95 16.15 Q15.75 17.1 15.95 18.15 L16.4 19.5 17.3 20.75 Q15.3 17.8 16.65 15.4 17.85 14.2 19.55 13.8 L20.3 13.65 21.9 13.6 23.85 13.95 Q24.6 14.2 25.1 14.65 L25.25 14.75 26.9 16.2 27.1 16.5"/><path fill="#d8a53f" stroke="none" d="M26.65 20.65 Q27.75 18.95 27.65 17.55 L27.6 17.4 27.1 16.55 27.1 16.5 26.9 16.2 25.25 14.75 25.1 14.65 Q24.6 14.2 23.85 13.95 L21.9 13.6 20.3 13.65 19.55 13.8 Q17.4 15.6 19.4 19.8 20.8 22.4 24.25 22.3 25.25 22.0 26.0 21.35 L26.05 21.3 26.65 20.65 M27.4 17.3 L26.7 18.25 26.6 18.7 25.85 20.35 26.05 21.3 25.85 20.35 26.6 18.7 26.7 18.25 27.4 17.3 M22.75 15.75 L25.5 18.4 25.85 20.35 25.5 18.4 22.75 15.75 M20.85 16.9 L19.4 19.8 20.85 16.9 M26.7 18.25 L27.1 16.5 26.7 18.25"/><path fill="#cc9933" stroke="none" d="M27.9 17.25 L27.85 18.2 27.95 18.6 Q28.4 21.05 26.85 23.05 L26.35 23.6 26.3 22.5 26.2 21.9 26.2 23.05 26.05 23.95 26.0 24.0 Q24.55 25.15 22.6 25.4 20.2 25.75 18.25 24.7 L18.05 24.6 18.1 23.7 18.4 21.9 18.25 22.05 18.1 22.75 17.9 23.85 17.85 24.5 17.65 24.4 Q17.15 24.05 16.8 23.7 L16.5 23.5 16.8 22.7 17.65 21.5 17.45 21.65 16.5 22.9 16.3 23.2 15.45 22.0 14.95 20.5 Q14.45 18.1 15.95 16.15 L16.25 15.3 15.8 15.9 Q14.1 17.95 14.6 20.55 14.8 21.4 15.15 22.1 L16.25 23.65 17.45 24.65 17.95 24.9 Q20.1 26.15 22.65 25.75 24.75 25.45 26.2 24.25 L27.15 23.25 Q28.8 21.15 28.3 18.55 L27.9 17.25 M19.55 13.8 Q17.85 14.2 16.65 15.4 15.3 17.8 17.3 20.75 L17.35 20.8 17.9 21.3 19.15 20.35 18.45 21.75 19.15 20.35 17.9 21.3 18.45 21.7 18.45 21.75 18.85 21.95 Q20.75 23.0 22.95 22.65 L24.25 22.3 Q20.8 22.4 19.4 19.8 L19.15 20.35 19.4 19.8 Q17.4 15.6 19.55 13.8 M16.25 23.65 L16.3 23.25 16.3 23.2 16.3 23.25 16.25 23.65 M17.95 24.9 L17.85 24.5 17.95 24.9 M26.2 24.25 L26.35 23.6 26.2 24.25"/><path fill="#aa772b" stroke="none" d="M27.85 18.2 Q27.65 19.4 26.8 20.45 L26.65 20.65 26.05 21.3 26.2 21.9 26.3 22.5 26.35 23.6 26.85 23.05 Q28.4 21.05 27.95 18.6 L27.85 18.2 M17.3 20.75 L16.4 19.5 15.95 18.15 Q15.75 17.1 15.95 16.15 14.45 18.1 14.95 20.5 L15.45 22.0 16.3 23.2 16.5 22.9 17.45 21.65 17.65 21.5 17.9 21.3 17.65 21.5 16.8 22.7 16.5 23.5 16.8 23.7 Q17.15 24.05 17.65 24.4 L17.85 24.5 17.9 23.85 18.1 22.75 18.25 22.05 18.4 21.9 18.1 23.7 18.05 24.6 18.25 24.7 Q20.2 25.75 22.6 25.4 24.55 25.15 26.0 24.0 L26.05 23.95 26.2 23.05 26.2 21.9 26.05 21.3 26.0 21.35 Q25.25 22.0 24.25 22.3 L22.95 22.65 Q20.75 23.0 18.85 21.95 L18.45 21.75 18.45 21.7 17.9 21.3 17.35 20.8 17.3 20.75 M18.4 21.9 L18.45 21.75 18.4 21.9"/><path fill="none" stroke="#000000" stroke-width="0.5" stroke-opacity="0.301960784314" d="M27.1 16.5 L27.2 16.1 27.45 16.35 27.9 17.25 M26.05 21.3 L25.85 20.35 26.6 18.7 26.7 18.25 27.4 17.3 M16.25 15.3 Q17.8 13.7 20.25 13.35 23.1 12.95 25.5 14.5 L27.2 16.1 M16.25 15.3 L15.8 15.9 Q14.1 17.95 14.6 20.55 14.8 21.4 15.15 22.1 L16.25 23.65 17.45 24.65 17.95 24.9 Q20.1 26.15 22.65 25.75 24.75 25.45 26.2 24.25 L27.15 23.25 Q28.8 21.15 28.3 18.55 L27.9 17.25 M16.3 23.2 L16.3 23.25 16.25 23.65 M17.9 21.3 L17.65 21.5 17.45 21.65 16.5 22.9 16.3 23.2 M17.9 21.3 L19.15 20.35 18.45 21.75 18.4 21.9 18.25 22.05 18.1 22.75 17.9 23.85 17.85 24.5 17.95 24.9 M19.15 20.35 L19.4 19.8 20.85 16.9 M25.85 20.35 L25.5 18.4 22.75 15.75 M26.05 21.3 L26.2 21.9 26.3 22.5 26.35 23.6 26.2 24.25 M27.1 16.5 L26.7 18.25"/><path fill="#d7f16b" stroke="none" d="M16.4 16.4 L17.1 16.3 Q16.35 16.1 16.15 15.75 15.9 15.4 16.65 14.65 15.9 15.3 15.95 15.8 L16.1 16.1 16.4 16.4 M25.25 17.25 L25.2 17.25 25.2 17.45 25.25 17.25 M25.25 15.7 Q25.15 14.15 24.35 13.6 25.55 15.4 24.05 16.7 L23.6 16.95 20.7 16.8 22.2 17.4 23.8 17.25 Q25.1 16.9 25.25 15.7"/><path fill="#75d74a" stroke="none" d="M17.1 16.3 L17.25 16.25 18.0 16.25 19.25 16.4 20.9 15.5 19.9 16.55 19.95 16.55 20.05 16.55 20.7 16.8 23.6 16.95 24.05 16.7 Q25.55 15.4 24.35 13.6 L23.3 13.25 22.65 13.1 22.5 13.05 Q20.7 12.75 18.85 13.45 L16.65 14.65 Q15.9 15.4 16.15 15.75 16.35 16.1 17.1 16.3 M14.2 17.6 L14.0 18.0 14.0 18.4 Q14.05 19.15 14.6 19.9 14.2 19.05 14.15 18.35 L14.2 17.6"/><path fill="#339328" stroke="none" d="M18.85 13.45 Q17.9 13.7 17.05 14.3 15.7 15.1 15.45 15.75 L15.35 16.1 15.6 16.6 15.8 16.5 16.4 16.4 16.1 16.1 15.95 15.8 Q15.9 15.3 16.65 14.65 L18.85 13.45 M15.65 16.85 L14.5 17.35 15.05 18.05 15.05 18.4 16.3 18.05 15.95 17.8 15.65 17.2 15.65 16.85 M25.2 17.25 L25.3 16.3 25.3 16.25 25.25 16.05 25.25 15.7 Q25.1 16.9 23.8 17.25 L22.2 17.4 22.25 17.45 22.75 17.65 24.0 18.4 25.05 18.0 25.2 17.45 25.2 17.25 M23.95 18.6 L21.85 17.5 21.6 17.35 Q22.0 18.25 21.85 18.55 L21.55 18.8 Q22.6 19.15 23.7 19.65 L23.95 18.6"/><path fill="#9ae17b" stroke="none" d="M16.4 16.4 L15.8 16.5 15.6 16.6 15.35 16.1 15.45 15.75 Q15.7 15.1 17.05 14.3 17.9 13.7 18.85 13.45 20.7 12.75 22.5 13.05 L22.65 13.1 23.3 13.25 24.35 13.6 Q25.15 14.15 25.25 15.7 L25.25 16.05 25.3 16.25 25.3 16.3 25.2 17.25 25.25 17.25 25.45 16.25 Q25.55 14.85 25.2 13.65 22.7 12.4 20.15 12.8 17.0 13.25 15.15 15.6 L14.75 16.1 14.05 17.4 14.0 18.0 14.2 17.6 14.3 17.45 14.5 17.35 15.65 16.85 15.95 16.75 17.15 16.55 19.0 16.65 19.25 16.75 19.6 17.7 19.5 16.8 19.55 16.45 20.9 15.5 19.25 16.4 18.0 16.25 17.25 16.25 17.1 16.3 16.4 16.4 M19.95 16.55 L19.9 16.55 19.8 16.9 21.6 17.35 21.85 17.5 23.95 18.6 24.0 18.4 22.75 17.65 22.25 17.45 22.2 17.4 20.7 16.8 20.05 16.55 19.95 16.55"/><path fill="#ffcc00" stroke="none" d="M19.9 16.55 L19.95 16.55 19.9 16.55"/><path fill="#246c41" stroke="none" d="M20.9 15.5 L19.55 16.45 19.5 16.8 19.6 17.7 19.25 16.75 19.0 16.65 17.15 16.55 15.95 16.75 15.65 16.85 15.65 17.2 15.95 17.8 16.3 18.05 16.45 18.0 Q18.5 17.75 21.55 18.8 L21.85 18.55 Q22.0 18.25 21.6 17.35 L19.8 16.9 19.9 16.55 20.9 15.5 M14.5 17.35 L14.3 17.45 14.2 17.6 14.15 18.35 Q14.2 19.05 14.6 19.9 L14.6 20.0 14.7 18.6 15.05 18.4 15.05 18.05 14.5 17.35"/><path fill="none" stroke="#000000" stroke-width="0.5" stroke-opacity="0.301960784314" d="M14.0 18.0 L14.05 17.4 14.75 16.1 15.15 15.6 Q17.0 13.25 20.15 12.8 22.7 12.4 25.2 13.65 25.55 14.85 25.45 16.25 L25.25 17.25 25.2 17.45 25.05 18.0 24.0 18.4 23.95 18.6 23.7 19.65 Q22.6 19.15 21.55 18.8 18.5 17.75 16.45 18.0 L16.3 18.05 15.05 18.4 14.7 18.6 14.6 20.0 14.6 19.9 Q14.05 19.15 14.0 18.4 L14.0 18.0"/><path fill="#d8a53f" stroke="none" d="M14.85 18.85 L13.35 19.05 Q12.6 19.55 12.45 20.7 L12.45 20.85 13.6 21.6 14.45 21.5 14.1 21.3 13.8 20.85 13.85 20.1 14.9 19.55 14.85 18.85"/><path fill="#aa772b" stroke="none" d="M12.45 20.7 Q12.5 21.85 13.0 22.35 L13.4 22.65 13.5 22.75 13.55 22.45 Q12.9 22.05 12.7 21.45 L12.45 20.85 12.45 20.7 M14.35 22.95 L15.5 22.9 15.65 22.65 14.55 22.6 14.35 22.95 M15.05 21.55 L14.75 20.35 14.15 20.7 14.1 21.3 14.45 21.5 15.05 21.55"/><path fill="#825a20" stroke="none" d="M13.5 22.75 L13.55 22.75 14.35 22.95 14.55 22.6 13.6 22.45 13.55 22.45 13.5 22.75 M14.75 20.35 L14.85 19.85 13.95 20.3 13.8 20.85 14.1 21.3 14.15 20.7 14.75 20.35"/><path fill="#e0c585" stroke="none" d="M15.65 22.65 L15.6 22.35 13.75 22.25 Q13.2 22.1 12.7 21.45 12.9 22.05 13.55 22.45 L13.6 22.45 14.55 22.6 15.65 22.65 M14.85 19.85 L14.9 19.55 13.85 20.1 13.8 20.85 13.95 20.3 14.85 19.85"/><path fill="#cc9933" stroke="none" d="M15.6 22.35 L15.35 21.55 15.05 21.55 14.45 21.5 13.6 21.6 12.45 20.85 12.7 21.45 Q13.2 22.1 13.75 22.25 L15.6 22.35"/><path fill="none" stroke="#000000" stroke-width="0.5" stroke-opacity="0.301960784314" d="M14.85 18.85 L13.35 19.05 Q12.6 19.55 12.45 20.7 12.5 21.85 13.0 22.35 L13.4 22.65 13.5 22.75 13.55 22.75 14.35 22.95 15.5 22.9 15.65 22.65 M15.35 21.55 L15.05 21.55 14.75 20.35 14.85 19.85 M12.45 20.7 L12.45 20.85 M13.8 20.85 L14.1 21.3 14.45 21.5 15.05 21.55 M14.75 20.35 L14.15 20.7 14.1 21.3"/><path fill="#cc9933" stroke="none" d="M23.35 17.6 L23.1 18.35 23.7 18.95 24.85 19.35 25.35 18.9 26.0 17.75 Q25.8 17.1 25.25 16.9 L25.0 18.65 24.35 17.45 23.35 17.6"/><path fill="#e0c585" stroke="none" d="M23.35 17.6 L23.25 17.65 22.7 18.25 23.45 19.0 23.6 19.15 24.75 19.55 25.0 19.55 25.3 20.05 25.4 19.3 26.0 17.75 25.35 18.9 24.85 19.35 23.7 18.95 23.1 18.35 23.35 17.6"/><path fill="#d8a53f" stroke="none" d="M25.25 16.9 L24.35 17.45 25.0 18.65 25.25 16.9"/><path fill="#aa772b" stroke="none" d="M26.0 17.75 L25.4 19.3 25.3 20.05 25.9 18.75 26.0 17.75 M23.6 19.15 L23.45 19.0 22.7 18.25 22.7 19.15 23.15 19.85 23.7 20.1 23.85 20.1 23.6 19.15"/><path fill="#825a20" stroke="none" d="M25.3 20.05 L25.0 19.55 24.75 19.55 23.6 19.15 23.85 20.1 25.3 20.05"/><path fill="none" stroke="#000000" stroke-width="0.5" stroke-opacity="0.301960784314" d="M22.7 18.25 L23.25 17.65 23.35 17.6 M22.7 18.25 L22.7 19.15 23.15 19.85 23.7 20.1 23.85 20.1 25.3 20.05 25.9 18.75 26.0 17.75 Q25.8 17.1 25.25 16.9 L24.35 17.45 23.35 17.6"/></g><g id="c12"><path fill="#9ae17b" stroke="none" d="M17.45 19.75 Q18.25 19.1 19.1 19.45 L19.35 19.6 Q19.9 20.1 19.9 20.9 L19.85 21.15 19.75 21.55 18.45 22.25 17.65 21.95 17.4 21.75 17.05 21.2 Q16.95 20.35 17.45 19.75 M20.2 20.75 L20.2 20.55 Q20.1 19.85 19.5 19.4 18.95 19.0 18.25 19.1 17.85 19.15 17.55 19.35 L17.1 19.75 Q16.7 20.3 16.8 21.0 16.85 21.65 17.4 22.05 L17.45 22.15 Q18.0 22.6 18.7 22.5 19.4 22.4 19.85 21.8 L20.05 21.4 20.2 20.75 M28.4 16.85 L28.3 16.85 27.7 16.1 27.15 15.75 26.95 15.8 Q26.7 15.95 26.8 16.55 L27.0 17.5 27.15 17.8 Q27.4 18.45 27.95 19.0 28.55 19.55 28.65 19.25 L28.8 18.85 Q28.65 19.25 28.35 19.0 27.7 18.5 27.15 17.45 L27.1 17.3 Q26.8 16.05 27.15 16.0 27.6 16.0 28.35 16.85 L28.4 16.85"/><path fill="#d7f16b" stroke="none" d="M19.75 21.55 L19.85 21.15 19.9 20.9 Q19.9 20.1 19.35 19.6 L19.1 19.45 Q18.25 19.1 17.45 19.75 L17.45 20.2 17.7 20.95 Q17.35 19.9 17.95 19.6 L19.3 19.8 19.7 20.75 19.5 21.3 18.7 21.45 18.0 21.25 18.1 21.35 18.15 21.35 18.15 21.4 18.25 21.45 18.5 21.55 19.35 21.65 19.75 21.55 M28.8 18.85 L28.8 18.4 28.6 17.45 Q28.85 18.4 28.6 18.45 28.25 18.35 27.55 17.25 L27.3 16.65 27.45 17.3 27.5 17.35 28.35 18.5 28.8 18.85"/><path fill="#339328" stroke="none" d="M17.45 19.75 Q16.95 20.35 17.05 21.2 L17.4 21.75 17.65 21.95 18.45 22.25 19.75 21.55 19.35 21.65 18.5 21.55 18.25 21.45 18.15 21.4 18.15 21.35 18.1 21.35 18.0 21.25 17.7 20.95 17.45 20.2 17.45 19.75 M27.15 16.0 Q26.8 16.05 27.1 17.3 L27.15 17.45 Q27.7 18.5 28.35 19.0 28.65 19.25 28.8 18.85 L28.35 18.5 27.5 17.35 27.45 17.3 27.3 16.65 27.15 16.05 27.15 16.0"/><path fill="#75d74a" stroke="none" d="M18.0 21.25 L18.7 21.45 19.5 21.3 19.7 20.75 19.3 19.8 17.95 19.6 Q17.35 19.9 17.7 20.95 L18.0 21.25 M28.6 17.45 L28.55 17.2 28.4 16.85 28.35 16.85 Q27.6 16.0 27.15 16.0 L27.15 16.05 27.3 16.65 27.55 17.25 Q28.25 18.35 28.6 18.45 28.85 18.4 28.6 17.45"/><path fill="none" stroke="#000000" stroke-width="0.5" stroke-opacity="0.301960784314" d="M20.2 20.75 L20.2 20.55 Q20.1 19.85 19.5 19.4 18.95 19.0 18.25 19.1 17.85 19.15 17.55 19.35 L17.1 19.75 Q16.7 20.3 16.8 21.0 16.85 21.65 17.4 22.05 L17.45 22.15 Q18.0 22.6 18.7 22.5 19.4 22.4 19.85 21.8 L20.05 21.4 20.2 20.75 M28.4 16.85 L28.3 16.85 27.7 16.1 27.15 15.75 26.95 15.8 Q26.7 15.95 26.8 16.55 L27.0 17.5 27.15 17.8 Q27.4 18.45 27.95 19.0 28.55 19.55 28.65 19.25 L28.8 18.85 28.8 18.4 28.6 17.45 28.55 17.2 28.4 16.85"/><path fill="#9ae17b" stroke="none" d="M26.7 21.1 L26.8 22.85 26.45 23.2 26.45 23.3 27.05 22.9 26.8 21.05 26.7 21.1 M25.85 21.85 L25.8 22.8 25.75 23.5 25.65 23.55 25.2 23.85 25.35 24.05 26.1 23.6 25.85 21.85"/><path fill="#d7f16b" stroke="none" d="M25.3 21.8 Q26.15 21.4 26.5 21.45 L26.8 22.85 26.7 21.1 Q25.95 21.4 25.3 21.8"/><path fill="#75d74a" stroke="none" d="M26.8 22.85 L26.5 21.45 Q26.15 21.4 25.3 21.8 25.1 21.85 25.0 22.0 25.1 22.7 25.5 22.8 L25.8 22.8 25.85 21.85 26.45 23.2 26.8 22.85 M25.65 23.55 L25.25 23.0 24.5 22.4 24.4 22.45 25.2 23.85 25.65 23.55"/><path fill="#339328" stroke="none" d="M26.45 23.2 L25.85 21.85 26.1 23.6 Q26.05 23.3 26.45 23.3 L26.45 23.2 M25.8 22.8 L25.5 22.8 Q25.1 22.7 25.0 22.0 L24.5 22.4 25.25 23.0 25.65 23.55 25.75 23.5 25.8 22.8"/><path fill="#246c41" stroke="none" d="M25.2 23.85 L24.4 22.45 25.0 24.0 25.35 24.05 25.2 23.85"/><path fill="none" stroke="#000000" stroke-width="0.5" stroke-opacity="0.301960784314" d="M25.3 21.8 Q25.95 21.4 26.7 21.1 M25.0 22.0 Q25.1 21.85 25.3 21.8 M26.45 23.3 L27.05 22.9 26.8 21.05 26.7 21.1 M26.45 23.3 Q26.05 23.3 26.1 23.6 L25.85 21.85 M24.5 22.4 L25.0 22.0 M24.4 22.45 L24.5 22.4 M25.35 24.05 L25.0 24.0 24.4 22.45 M25.35 24.05 L26.1 23.6"/></g><radialGradient gradientUnits="userSpaceOnUse" r="819.2" cx="0" cy="0" spreadMethod="pad" gradientTransform="matrix(0.0212554931641,0.0,0.0,0.0212554931641,0.0,0.0)" id="gradient3"><stop offset="0.196078431373" stop-color="#fee3bc"/><stop offset="0.501960784314" stop-color="#fee3bc" stop-opacity="0.160784313725"/><stop offset="0.760784313725" stop-color="#ffe3bd" stop-opacity="0.0"/></radialGradient><g id="c13"><path stroke="none" fill="url(#gradient3)" d="M9.3 -9.85 Q13.35 -5.8 13.35 0.0 13.35 5.8 9.3 9.3 5.8 13.35 0.0 13.35 -5.8 13.35 -9.85 9.3 -13.35 5.8 -13.35 0.0 -13.35 -5.8 -9.85 -9.85 -5.8 -13.35 0.0 -13.35 5.8 -13.35 9.3 -9.85"/></g><g id="c14"><g><use transform="matrix(1.0,0.0,0.0,1.0,0.0,0.0)" xlink:href="#c13"/></g></g><g id="c15"><g><use transform="matrix(0.00422668457031,-1.35153198242,1.39352416992,0.0199737548828,40.75,38.25)" xlink:href="#c14"/></g><g><use transform="matrix(0.00953674316406,-3.04858398438,0.371963500977,0.00532531738281,41.6,40.75)" filter="url(#filter7)" xlink:href="#c14"/></g><g><use transform="matrix(3.04858398438,0.00953674316406,-0.00532531738281,0.371963500977,40.75,40.2)" filter="url(#filter8)" xlink:href="#c14"/></g></g><filter id="filter7"><feColorMatrix in="SourceGraphic" type="matrix" values="1.0 0.0 0.0 0.0 0.0 0.0 1.0 0.0 0.0 0.0 0.0 0.0 1.0 0.0 0.0 0.0 0.0 0.0 0.71875 0.0" result="cxform"/><feComposite operator="in" in2="SourceGraphic" result="color-xform"/></filter><filter id="filter8"><feColorMatrix in="SourceGraphic" type="matrix" values="1.0 0.0 0.0 0.0 0.0 0.0 1.0 0.0 0.0 0.0 0.0 0.0 1.0 0.0 0.0 0.0 0.0 0.0 0.71875 0.0" result="cxform"/><feComposite operator="in" in2="SourceGraphic" result="color-xform"/></filter><g id="c16"><g><use transform="matrix(1.0,0.0,0.0,1.0,0.0,0.0)" xlink:href="#c2"/></g><g><use transform="matrix(0.238861083984,-0.0867004394531,0.10026550293,0.233917236328,34.25,31.15)" xlink:href="#c4"/></g><g><use transform="matrix(0.238861083984,-0.0867004394531,0.10026550293,0.233917236328,4.25,10.3)" xlink:href="#c4"/></g><g><use transform="matrix(0.141098022461,-0.0378112792969,0.111373901367,0.225646972656,20.25,20.65)" filter="url(#filter12)" xlink:href="#c6"/></g><g><use transform="matrix(-0.155029296875,0.0513153076172,0.0841827392578,0.147033691406,22.6,2.3)" filter="url(#filter13)" xlink:href="#c8"/></g><g><use transform="matrix(1.0,0.0,0.0,1.0,0.0,0.0)" xlink:href="#c9"/></g><g><use transform="matrix(-0.0304718017578,0.00437927246094,0.0194549560547,0.0377044677734,24.5,27.45)" filter="url(#filter15)" xlink:href="#c10"/></g><g><use transform="matrix(1.0,0.0,0.0,1.0,0.0,0.0)" xlink:href="#c11"/></g><g><use transform="matrix(-0.0606842041016,0.00874328613281,0.0302429199219,0.0574035644531,19.25,20.75)" filter="url(#filter17)" xlink:href="#c10"/></g><g><use transform="matrix(1.0,0.0,0.0,1.0,0.0,0.0)" xlink:href="#c12"/></g><g><use transform="matrix(-0.0593109130859,0.008544921875,0.0195617675781,0.0384826660156,20.75,15.4)" filter="url(#filter19)" xlink:href="#c10"/></g><g><use transform="matrix(-0.0183258056641,0.00263977050781,0.0074462890625,0.0146789550781,16.9,12.95)" filter="url(#filter20)" xlink:href="#c10"/></g><g><use transform="matrix(-0.0263977050781,0.00379943847656,0.00985717773438,0.0194549560547,25.95,25.7)" filter="url(#filter21)" xlink:href="#c10"/></g><g><use transform="matrix(-0.0852661132812,0.0122833251953,0.0106506347656,0.0739288330078,20.45,16.7)" filter="url(#filter22)" xlink:href="#c15"/></g><g><use transform="matrix(0.162948608398,-0.0436706542969,0.128631591797,0.260604858398,20.35,20.95)" filter="url(#filter23)" xlink:href="#c6"/></g></g><filter id="filter12"><feColorMatrix in="SourceGraphic" type="matrix" values="0.0 0.0 0.0 0.0 0.796875 0.0 0.0 0.0 0.0 0.59765625 0.0 0.0 0.0 0.0 0.19921875 0.0 0.0 0.0 1.0 0.0" result="cxform"/><feComposite operator="in" in2="SourceGraphic" result="color-xform"/></filter><filter id="filter13"><feColorMatrix in="SourceGraphic" type="matrix" values="0.0 0.0 0.0 0.0 0.99609375 0.0 0.0 0.0 0.0 0.99609375 0.0 0.0 0.0 0.0 0.99609375 0.0 0.0 0.0 1.0 0.0" result="cxform"/><feComposite operator="in" in2="SourceGraphic" result="color-xform"/></filter><filter id="filter15"><feColorMatrix in="SourceGraphic" type="matrix" values="0.0 0.0 0.0 0.0 0.3984375 0.0 0.0 0.0 0.0 0.59765625 0.0 0.0 0.0 0.0 0.3984375 0.0 0.0 0.0 0.3984375 0.0" result="cxform"/><feComposite operator="in" in2="SourceGraphic" result="color-xform"/></filter><filter id="filter17"><feColorMatrix in="SourceGraphic" type="matrix" values="0.0 0.0 0.0 0.0 0.3984375 0.0 0.0 0.0 0.0 0.59765625 0.0 0.0 0.0 0.0 0.3984375 0.0 0.0 0.0 0.3984375 0.0" result="cxform"/><feComposite operator="in" in2="SourceGraphic" result="color-xform"/></filter><filter id="filter19"><feColorMatrix in="SourceGraphic" type="matrix" values="1.0 0.0 0.0 0.0 0.0 0.0 1.0 0.0 0.0 0.0 0.0 0.0 1.0 0.0 0.0 0.0 0.0 0.0 0.1796875 0.0" result="cxform"/><feComposite operator="in" in2="SourceGraphic" result="color-xform"/></filter><filter id="filter20"><feColorMatrix in="SourceGraphic" type="matrix" values="1.0 0.0 0.0 0.0 0.0 0.0 1.0 0.0 0.0 0.0 0.0 0.0 1.0 0.0 0.0 0.0 0.0 0.0 0.1796875 0.0" result="cxform"/><feComposite operator="in" in2="SourceGraphic" result="color-xform"/></filter><filter id="filter21"><feColorMatrix in="SourceGraphic" type="matrix" values="1.0 0.0 0.0 0.0 0.0 0.0 1.0 0.0 0.0 0.0 0.0 0.0 1.0 0.0 0.0 0.0 0.0 0.0 0.1796875 0.0" result="cxform"/><feComposite operator="in" in2="SourceGraphic" result="color-xform"/></filter><filter id="filter22"><feColorMatrix in="SourceGraphic" type="matrix" values="1.0 0.0 0.0 0.0 0.0 0.0 1.0 0.0 0.0 0.0 0.0 0.0 1.0 0.0 0.0 0.0 0.0 0.0 0.359375 0.0" result="cxform"/><feComposite operator="in" in2="SourceGraphic" result="color-xform"/></filter><filter id="filter23"><feColorMatrix in="SourceGraphic" type="matrix" values="1.0 0.0 0.0 0.0 0.0 0.0 1.0 0.0 0.0 0.0 0.0 0.0 1.0 0.0 0.0 0.0 0.0 0.0 0.23046875 0.0" result="cxform"/><feComposite operator="in" in2="SourceGraphic" result="color-xform"/></filter></defs><g><g><use transform="matrix(1.0,0.0,0.0,1.0,0.0,0.0)" xlink:href="#c1"/></g><g><use transform="matrix(1.15496826172,0.0,0.0,1.15496826172,5.85,3.95)" xlink:href="#c16"/></g></g></svg>