<?xml version='1.0' encoding='UTF-8'?>
<svg xmlns:xlink="http://www.w3.org/1999/xlink" xmlns="http://www.w3.org/2000/svg" version="1.1" width="60px" height="60px" viewBox="0.0 0.0 60.0 60.0"><defs><g id="c1"><path fill="#000000" fill-opacity="0.00392156862745" d="M0.0 0.0 L60.0 0.0 60.0 60.0 0.0 60.0 0.0 0.0"/></g><g id="c2"><path fill="none" stroke="#000000" stroke-width="1.0" stroke-opacity="0.301960784314" d="M22.3 0.35 Q26.6 -1.0 28.5 3.05 L41.4 31.7 Q43.1 35.4 39.9 36.85 L38.15 37.65 19.65 43.65 Q17.05 44.5 15.35 43.3 14.2 42.55 13.5 40.9 L0.55 12.25 Q-0.6 9.75 0.6 8.25 1.15 7.55 2.2 7.05 2.85 6.6 3.8 6.3 L22.3 0.35"/><path fill="#300525" stroke="none" d="M25.55 0.9 Q26.9 1.6 27.8 3.55 L40.7 32.15 Q42.6 36.3 38.3 37.65 L23.3 42.5 13.15 21.4 4.6 20.9 0.7 12.25 Q-0.45 9.75 0.75 8.25 L29.8 9.75 25.55 0.9 M20.1 43.55 L19.8 43.65 Q17.15 44.45 15.5 43.3 L20.1 43.55"/><path fill="#630a4c" stroke="none" d="M23.3 42.5 L20.1 43.55 15.5 43.3 Q14.35 42.55 13.65 40.9 L4.6 20.9 13.15 21.4 23.3 42.5 M0.75 8.25 Q1.45 7.3 3.1 6.75 L21.65 0.8 25.55 0.9 29.8 9.75 0.75 8.25"/><path fill="none" stroke="#000000" stroke-width="0.5" stroke-opacity="0.301960784314" d="M25.55 0.9 Q26.9 1.6 27.8 3.55 L40.7 32.15 Q42.6 36.3 38.3 37.65 L23.3 42.5 20.1 43.55 19.8 43.65 Q17.15 44.45 15.5 43.3 14.35 42.55 13.65 40.9 L4.6 20.9 0.7 12.25 Q-0.45 9.75 0.75 8.25 1.45 7.3 3.1 6.75 L21.65 0.8 25.55 0.9"/><path fill="#9d147b" stroke="none" d="M14.2 40.5 L1.35 11.8 Q-0.5 7.75 3.8 6.35 L22.3 0.4 Q26.55 -1.0 28.45 3.1 L41.35 31.7 Q43.25 35.85 38.9 37.25 L20.4 43.2 Q16.1 44.55 14.2 40.5"/><path fill="none" stroke="#000000" stroke-width="0.5" stroke-opacity="0.301960784314" d="M14.2 40.5 L1.35 11.8 Q-0.5 7.75 3.8 6.35 L22.3 0.4 Q26.55 -1.0 28.45 3.1 L41.35 31.7 Q43.25 35.85 38.9 37.25 L20.4 43.2 Q16.1 44.55 14.2 40.5"/><path fill="#fcf2cf" stroke="none" d="M9.15 13.6 Q9.8 12.8 9.55 11.6 L9.1 10.55 22.05 6.35 Q24.9 5.45 26.25 7.85 L26.5 8.3 35.8 29.0 35.95 29.35 Q34.75 29.3 34.1 30.1 33.45 30.9 33.7 32.1 L34.0 32.9 20.65 37.2 Q18.8 37.8 17.65 37.0 16.8 36.4 16.3 35.2 L6.95 14.6 6.8 14.4 7.1 14.4 Q8.4 14.45 9.15 13.6"/><path fill="#c47fad" stroke="none" d="M8.25 23.65 L3.35 12.8 Q1.65 9.1 5.5 7.85 L22.25 2.5 Q26.05 1.25 27.75 4.95 L28.25 6.1 35.55 22.3 39.35 30.75 Q41.1 34.5 37.2 35.7 L20.45 41.1 Q16.8 42.25 15.2 39.0 L15.0 38.6 8.25 23.65 M9.15 13.6 Q8.4 14.45 7.1 14.4 L6.8 14.4 6.95 14.6 16.3 35.2 Q16.8 36.4 17.65 37.0 18.8 37.8 20.65 37.2 L34.0 32.9 33.7 32.1 Q33.45 30.9 34.1 30.1 34.75 29.3 35.95 29.35 L35.8 29.0 26.5 8.3 26.25 7.85 Q24.9 5.45 22.05 6.35 L9.1 10.55 9.55 11.6 Q9.8 12.8 9.15 13.6"/><path fill="none" stroke="#ffcc00" stroke-width="1.0" stroke-opacity="0.749019607843" d="M8.25 23.65 L3.35 12.8 Q1.65 9.1 5.5 7.85 L22.25 2.5 Q26.05 1.25 27.75 4.95 L28.25 6.1 M35.55 22.3 L39.35 30.75 Q41.1 34.5 37.2 35.7 L20.45 41.1 Q16.8 42.25 15.2 39.0 L15.0 38.6"/><path fill="none" stroke="#bf9900" stroke-width="1.0" stroke-opacity="0.749019607843" d="M28.25 6.1 L35.55 22.3 M15.0 38.6 L8.25 23.65"/><path fill="none" stroke="#f0b92b" stroke-width="0.5" d="M9.15 13.6 Q9.8 12.8 9.55 11.6 L9.1 10.55 22.05 6.35 Q24.9 5.45 26.25 7.85 L26.5 8.3 35.8 29.0 35.95 29.35 Q34.75 29.3 34.1 30.1 33.45 30.9 33.7 32.1 L34.0 32.9 20.65 37.2 Q18.8 37.8 17.65 37.0 16.8 36.4 16.3 35.2 L6.95 14.6 6.8 14.4 7.1 14.4 Q8.4 14.45 9.15 13.6"/></g><g id="c3"><path fill="#7fdbfe" stroke="none" d="M10.75 4.9 Q10.75 4.6 10.9 4.35 11.25 3.45 11.95 2.75 13.3 1.5 14.35 2.1 15.4 2.7 14.95 4.45 14.7 5.4 14.1 6.15 L13.75 6.5 Q13.1 7.15 12.35 7.35 L11.4 7.2 Q10.95 6.9 10.75 6.4 10.5 5.75 10.75 4.9 M7.5 5.9 Q7.0 5.85 6.6 5.5 6.05 5.0 5.8 4.15 L5.7 3.6 Q5.55 2.65 5.8 1.7 6.25 0.0 7.5 0.0 L7.6 0.0 Q8.85 0.0 9.3 1.7 9.55 2.65 9.4 3.6 L9.3 4.15 8.5 5.5 7.6 5.9 7.5 5.9 M4.35 4.9 Q4.6 5.75 4.35 6.4 L3.7 7.2 2.75 7.35 Q2.0 7.15 1.35 6.5 L1.0 6.15 Q0.4 5.4 0.15 4.45 -0.3 2.7 0.75 2.1 1.8 1.5 3.15 2.75 3.85 3.45 4.2 4.35 L4.35 4.9 M5.5 13.7 Q4.45 13.9 3.65 12.95 2.75 12.0 3.2 10.25 3.7 8.5 5.25 7.6 6.4 6.9 7.55 7.0 8.75 6.9 9.9 7.6 11.45 8.5 11.95 10.25 12.35 12.0 11.5 12.95 10.7 13.9 9.65 13.7 8.55 13.5 7.55 12.6 6.55 13.5 5.5 13.7"/></g><g id="c4"><g><use transform="matrix(1.0,0.0,0.0,1.0,0.0,0.0)" xlink:href="#c3"/></g></g><radialGradient gradientUnits="userSpaceOnUse" r="819.2" cx="0" cy="0" spreadMethod="pad" gradientTransform="matrix(0.0914459228516,0.0,0.0,0.0914459228516,0.6,3.4)" id="gradient1"><stop offset="0.0" stop-color="#ffffff"/><stop offset="1.0" stop-color="#ffffff" stop-opacity="0.0"/></radialGradient><g id="c5"><path stroke="none" fill="url(#gradient1)" d="M36.65 -54.65 Q60.05 -42.0 69.75 -17.95 80.55 8.9 68.0 34.1 55.45 59.35 26.8 68.2 -1.8 77.05 -29.7 64.3 -57.6 51.6 -68.45 24.75 -79.3 -2.05 -66.75 -27.25 L-66.7 -27.3 Q-54.1 -52.5 -25.5 -61.4 3.1 -70.2 31.0 -57.5 L36.65 -54.65"/></g><g id="c6"><g><use transform="matrix(1.0,0.0,0.0,1.0,0.0,0.0)" xlink:href="#c5"/></g></g><radialGradient gradientUnits="userSpaceOnUse" r="819.2" cx="0" cy="0" spreadMethod="pad" gradientTransform="matrix(0.209197998047,0.0,0.0,0.177108764648,67.15,107.2)" id="gradient2"><stop offset="0.356862745098" stop-color="#ffffff"/><stop offset="0.670588235294" stop-opacity="0.0"/></radialGradient><g id="c7"><path fill="none" stroke-linejoin="round" stroke-linecap="round" stroke="url(#gradient2)" stroke-width="0.5" d="M136.55 165.8 L68.6 106.0 68.4 106.0 118.25 201.5 M68.2 105.7 L68.25 105.8 68.25 105.75 68.2 105.7 0.0 45.7 M68.25 105.8 L68.3 105.85 68.3 105.8 68.25 105.75 49.95 0.05 M0.05 97.7 L68.15 105.95 68.25 105.85 68.25 105.8 M68.3 105.85 L68.25 105.85 68.3 106.0 68.3 105.85 68.3 105.8 68.35 105.8 68.3 105.8 86.6 18.35 M50.0 193.2 L68.3 106.0 68.15 105.95 18.25 151.55 M68.4 106.0 L68.3 106.0 86.55 211.5 M68.4 106.0 L68.3 105.85 M68.6 106.0 L68.35 105.8 118.25 60.15 M136.6 114.25 L68.6 106.0 M68.2 105.7 L18.25 10.05"/></g><g id="c8"><g><use transform="matrix(1.0,0.0,0.0,1.0,0.0,0.0)" xlink:href="#c7"/></g></g><linearGradient gradientUnits="userSpaceOnUse" x1="-819.2" x2="819.2" spreadMethod="pad" gradientTransform="matrix(-0.00254821777344,0.00262451171875,-0.00335693359375,-0.00335693359375,17.35,17.8)" id="gradient3"><stop offset="0.0" stop-color="#ec8900"/><stop offset="1.0" stop-color="#ce6900"/></linearGradient><linearGradient gradientUnits="userSpaceOnUse" x1="-819.2" x2="819.2" spreadMethod="pad" gradientTransform="matrix(0.00247192382812,-0.000930786132812,0.000381469726562,0.0009765625,17.85,21.15)" id="gradient4"><stop offset="0.0" stop-color="#ab4400"/><stop offset="1.0" stop-color="#ab4400" stop-opacity="0.0"/></linearGradient><g id="c9"><path fill="#95703b" stroke="none" d="M24.2 22.45 L26.1 23.4 26.35 21.95 25.85 21.55 26.35 21.5 26.4 21.3 24.0 20.6 Q24.4 21.8 24.2 22.45"/><path fill="#79592d" stroke="none" d="M24.0 20.6 L23.0 20.05 22.3 21.3 24.2 22.45 Q24.4 21.8 24.0 20.6"/><path fill="none" stroke="#382510" stroke-width="0.7" stroke-opacity="0.301960784314" d="M24.2 22.45 L26.1 23.4 26.35 21.95 25.85 21.55 26.35 21.5 26.4 21.3 24.0 20.6 23.0 20.05 M22.3 21.3 L24.2 22.45"/><path fill="#9a7016" stroke="none" d="M27.1 26.35 L27.05 26.25 25.25 24.85 25.1 24.95 24.4 25.95 25.15 26.15 26.5 27.15 26.95 26.6 27.0 26.55 27.1 26.35 M30.0 29.65 L30.35 29.35 30.65 29.0 28.3 27.25 27.95 27.15 26.95 28.8 28.45 28.85 29.75 29.5 30.0 29.65"/><path fill="#c4911a" stroke="none" d="M26.5 27.15 L25.15 26.15 24.4 25.95 24.15 26.6 25.0 27.25 26.5 27.2 26.5 27.15 M26.95 28.8 L26.7 29.25 27.35 29.9 29.75 29.5 28.45 28.85 26.95 28.8"/><path fill="#ffcc00" stroke="none" d="M25.0 27.25 L25.5 27.65 25.9 27.6 26.5 27.2 25.0 27.25 M27.35 29.9 L28.45 30.6 28.9 30.65 30.0 29.65 29.75 29.5 27.35 29.9"/><path fill="none" stroke="#382510" stroke-width="1.0" stroke-opacity="0.301960784314" d="M27.1 26.35 L27.0 26.55"/><path fill="#c4911a" stroke="none" d="M23.65 20.4 L23.25 20.15 22.5 21.25 22.7 22.9 Q23.15 24.55 24.8 25.7 L27.25 27.4 27.35 27.55 31.45 30.25 32.15 29.1 24.3 23.7 23.65 20.4"/><path fill="#ffcc00" stroke="none" d="M32.15 29.1 L33.2 27.6 32.65 26.55 23.65 20.4 24.3 23.7 32.15 29.1"/><path fill="#9a7016" stroke="none" d="M22.5 21.25 L21.2 23.1 21.35 23.35 22.95 24.5 24.8 25.7 Q23.15 24.55 22.7 22.9 L22.5 21.25"/><path fill="#fefd9a" fill-opacity="0.6" d="M28.5 23.95 L27.3 23.1 26.65 24.0 27.85 24.85 28.5 23.95 M30.4 26.6 L31.5 27.35 32.15 26.45 31.05 25.7 30.4 26.6"/><path fill="#fefd9a" stroke="none" d="M27.85 24.85 L30.4 26.6 31.05 25.7 28.5 23.95 27.85 24.85"/><path fill="#65613d" stroke="none" d="M22.2 18.95 L22.2 18.9 22.2 18.85 21.2 18.9 Q20.55 19.2 20.05 19.9 19.5 20.55 19.4 21.3 19.3 21.95 19.7 22.25 L19.8 22.3 20.7 22.25 21.75 21.35 21.85 21.2 22.4 20.05 22.4 19.8 Q22.55 19.15 22.2 18.95"/><path fill="#94a707" stroke="none" d="M22.4 20.05 L21.85 21.2 21.75 21.35 Q22.7 21.7 23.0 22.35 L23.15 22.2 23.7 21.05 Q23.2 21.05 22.4 20.05"/><path fill="#596f04" stroke="none" d="M21.75 21.35 L20.7 22.25 19.8 22.3 21.1 23.25 21.95 23.15 23.0 22.35 Q22.7 21.7 21.75 21.35"/><path fill="#718b05" stroke="none" d="M22.2 18.95 Q22.55 19.15 22.4 19.8 L22.4 20.05 Q23.2 21.05 23.7 21.05 L23.7 20.75 Q23.85 20.1 23.45 19.85 L22.2 18.95"/><path fill="none" stroke="#382510" stroke-width="0.7" stroke-opacity="0.250980392157" d="M19.8 22.3 L19.7 22.25 Q19.3 21.95 19.4 21.3 19.5 20.55 20.05 19.9 20.55 19.2 21.2 18.9 L22.2 18.85 22.2 18.9 22.2 18.95 M19.8 22.3 L21.1 23.25 21.95 23.15 23.0 22.35 23.15 22.2 23.7 21.05 23.7 20.75 Q23.85 20.1 23.45 19.85 L22.2 18.95"/><path fill="#65613d" stroke="none" d="M20.75 17.2 L20.7 17.15 19.5 17.2 Q18.7 17.6 18.1 18.45 17.45 19.3 17.3 20.15 17.15 21.05 17.6 21.4 L17.75 21.5 18.85 21.35 20.2 20.25 20.3 20.1 Q20.85 19.35 21.0 18.6 L21.05 18.35 Q21.15 17.55 20.75 17.2"/><path fill="#718b05" stroke="none" d="M20.75 17.2 Q21.15 17.55 21.05 18.35 L21.0 18.6 Q22.0 19.85 22.6 19.85 L22.65 19.55 Q22.75 18.7 22.35 18.4 L20.75 17.2"/><path fill="#596f04" stroke="none" d="M20.2 20.25 L18.85 21.35 17.75 21.5 19.35 22.65 20.45 22.5 21.75 21.45 Q21.4 20.7 20.2 20.25"/><path fill="#94a707" stroke="none" d="M21.0 18.6 Q20.85 19.35 20.3 20.1 L20.2 20.25 Q21.4 20.7 21.75 21.45 L21.85 21.3 22.6 19.85 Q22.0 19.85 21.0 18.6"/><path fill="none" stroke="#382510" stroke-width="0.7" stroke-opacity="0.250980392157" d="M17.75 21.5 L17.6 21.4 Q17.15 21.05 17.3 20.15 17.45 19.3 18.1 18.45 18.7 17.6 19.5 17.2 L20.7 17.15 20.75 17.2 M17.75 21.5 L19.35 22.65 20.45 22.5 21.75 21.45 21.85 21.3 22.6 19.85 22.65 19.55 Q22.75 18.7 22.35 18.4 L20.75 17.2"/><path fill="#34515c" stroke="none" d="M16.3 17.55 Q15.7 18.4 15.6 19.3 15.55 20.2 16.0 20.5 L16.15 20.6 17.85 21.7 18.95 21.5 20.1 20.4 20.3 20.2 20.9 18.7 20.95 18.4 Q21.05 17.6 20.55 17.25 L18.85 16.1 17.65 16.25 Q16.9 16.65 16.3 17.55"/><path fill="none" stroke="#382510" stroke-width="0.7" stroke-opacity="0.250980392157" d="M16.3 17.55 Q16.9 16.65 17.65 16.25 L18.85 16.1 20.55 17.25 Q21.05 17.6 20.95 18.4 L20.9 18.7 20.3 20.2 20.1 20.4 18.95 21.5 17.85 21.7 16.15 20.6 16.0 20.5 Q15.55 20.2 15.6 19.3 15.7 18.4 16.3 17.55"/><path stroke="none" fill="url(#gradient3)" d="M19.3 13.15 L20.4 13.9 Q22.05 15.2 22.0 16.95 21.95 18.7 20.05 20.7 18.1 22.7 15.9 22.25 13.65 21.7 12.4 20.1 11.75 19.25 11.4 18.4 L12.55 19.35 Q14.25 20.35 16.1 19.65 18.0 19.05 19.15 17.6 20.1 16.5 20.15 14.9 20.15 13.8 19.3 13.15"/><path fill="#ff9d00" stroke="none" d="M19.3 13.15 Q20.15 13.8 20.15 14.9 20.1 16.5 19.15 17.6 18.0 19.05 16.1 19.65 14.25 20.35 12.55 19.35 L11.4 18.4 Q11.05 17.75 11.0 17.1 10.8 15.75 12.85 13.75 15.0 11.7 16.85 12.15 18.15 12.5 19.3 13.15"/><path fill="none" stroke="#000000" stroke-width="0.5" stroke-opacity="0.301960784314" d="M11.4 18.4 Q11.75 19.25 12.4 20.1 13.65 21.7 15.9 22.25 18.1 22.7 20.05 20.7 21.95 18.7 22.0 16.95 22.05 15.2 20.4 13.9 L19.3 13.15 M11.4 18.4 Q11.05 17.75 11.0 17.1 10.8 15.75 12.85 13.75 15.0 11.7 16.85 12.15 18.15 12.5 19.3 13.15"/><path fill="#fefe45" fill-opacity="0.470588235294" d="M20.5 16.55 Q21.1 15.9 21.55 16.0 22.0 16.05 22.05 16.85 L21.7 18.55 21.1 19.8 20.9 19.8 Q20.95 19.3 20.6 18.55 19.9 17.15 20.5 16.55"/><path stroke="none" fill="url(#gradient4)" d="M20.15 20.9 L19.05 21.65 17.2 22.2 15.9 22.0 Q15.6 21.65 15.95 21.1 16.4 20.55 18.4 20.8 L20.0 20.85 20.15 20.9"/></g><g id="c10"><path fill="#4c3218" stroke="none" d="M-24.3 -46.85 Q-33.35 -44.35 -44.9 -37.85 -36.9 -52.4 -62.25 -56.15 -29.3 -60.95 -2.2 -56.7 26.35 -52.15 43.35 -28.85 56.95 -10.2 53.35 12.65 50.85 28.55 41.05 39.95 36.75 44.95 31.05 49.1 16.1 60.0 -2.15 57.1 -20.4 54.2 -31.3 39.25 -40.0 27.3 -37.7 12.65 -36.6 5.75 -33.35 0.2 -29.75 -6.05 -23.45 -10.65 -13.9 -17.6 -2.2 -15.75 9.5 -13.9 16.45 -4.35 22.05 3.3 20.55 12.65 19.45 19.6 14.95 24.5 L13.6 24.05 Q15.65 21.85 16.95 19.2 18.4 16.3 18.95 12.95 20.3 4.45 15.15 -2.2 8.8 -10.5 -1.95 -11.7 -12.65 -12.9 -21.4 -6.25 -24.25 -4.15 -26.45 -1.7 -32.95 5.4 -34.5 15.25 -36.6 28.5 -28.6 38.95 -18.65 51.95 -1.9 53.85 14.85 55.75 28.55 45.35 36.75 39.1 41.8 31.15 47.3 22.45 49.0 11.65 52.3 -9.05 39.85 -25.3 24.25 -45.6 -1.95 -48.55 -13.45 -49.85 -24.3 -46.85"/><path fill="none" stroke="#382510" stroke-width="0.5" stroke-opacity="0.501960784314" d="M-24.3 -46.85 Q-33.35 -44.35 -44.9 -37.85 -36.9 -52.4 -62.25 -56.15 -29.3 -60.95 -2.2 -56.7 26.35 -52.15 43.35 -28.85 56.95 -10.2 53.35 12.65 50.85 28.55 41.05 39.95 36.75 44.95 31.05 49.1 16.1 60.0 -2.15 57.1 -20.4 54.2 -31.3 39.25 -40.0 27.3 -37.7 12.65 -36.6 5.75 -33.35 0.2 -29.75 -6.05 -23.45 -10.65 -13.9 -17.6 -2.2 -15.75 9.5 -13.9 16.45 -4.35 22.05 3.3 20.55 12.65 19.45 19.6 14.95 24.5 L13.6 24.05 Q15.65 21.85 16.95 19.2 18.4 16.3 18.95 12.95 20.3 4.45 15.15 -2.2 8.8 -10.5 -1.95 -11.7 -12.65 -12.9 -21.4 -6.25 -24.25 -4.15 -26.45 -1.7 -32.95 5.4 -34.5 15.25 -36.6 28.5 -28.6 38.95 -18.65 51.95 -1.9 53.85 14.85 55.75 28.55 45.35 36.75 39.1 41.8 31.15 47.3 22.45 49.0 11.65 52.3 -9.05 39.85 -25.3 24.25 -45.6 -1.95 -48.55 -13.45 -49.85 -24.3 -46.85"/><path fill="#4c3218" stroke="none" d="M56.55 -19.7 Q54.85 -16.6 52.55 -16.1 50.2 -15.55 48.15 -16.8 46.15 -18.05 45.6 -20.4 45.1 -22.75 46.35 -24.75 47.65 -26.8 50.0 -27.3 52.3 -27.85 55.65 -30.0 58.9 -32.15 58.6 -27.5 58.25 -22.85 56.55 -19.7 M5.1 22.05 Q6.4 20.0 8.75 19.5 11.05 18.95 13.1 20.25 15.1 21.5 15.6 23.85 16.1 26.2 14.9 28.2 13.6 30.2 9.85 32.95 6.1 35.7 4.9 33.25 3.65 30.75 3.75 27.4 3.85 24.05 5.1 22.05 M-34.3 -6.5 Q-34.8 -8.85 -34.85 -16.65 -34.95 -24.45 -31.4 -19.9 -27.95 -15.4 -25.75 -13.4 -23.55 -11.4 -23.05 -9.05 -22.55 -6.65 -23.8 -4.65 -25.05 -2.65 -27.35 -2.15 -29.7 -1.6 -31.75 -2.85 -33.8 -4.1 -34.3 -6.5 M-17.2 34.45 Q-15.15 35.95 -14.05 40.85 -13.0 45.65 -14.25 47.7 -15.5 49.7 -17.85 50.2 -20.2 50.7 -22.2 49.5 -24.25 48.2 -24.75 45.85 -25.3 43.5 -24.0 41.5 L-21.0 36.2 Q-19.25 32.9 -17.2 34.45"/><path fill="none" stroke="#382510" stroke-width="0.5" stroke-opacity="0.501960784314" d="M56.55 -19.7 Q54.85 -16.6 52.55 -16.1 50.2 -15.55 48.15 -16.8 46.15 -18.05 45.6 -20.4 45.1 -22.75 46.35 -24.75 47.65 -26.8 50.0 -27.3 52.3 -27.85 55.65 -30.0 58.9 -32.15 58.6 -27.5 58.25 -22.85 56.55 -19.7 M5.1 22.05 Q6.4 20.0 8.75 19.5 11.05 18.95 13.1 20.25 15.1 21.5 15.6 23.85 16.1 26.2 14.9 28.2 13.6 30.2 9.85 32.95 6.1 35.7 4.9 33.25 3.65 30.75 3.75 27.4 3.85 24.05 5.1 22.05 M-34.3 -6.5 Q-34.8 -8.85 -34.85 -16.65 -34.95 -24.45 -31.4 -19.9 -27.95 -15.4 -25.75 -13.4 -23.55 -11.4 -23.05 -9.05 -22.55 -6.65 -23.8 -4.65 -25.05 -2.65 -27.35 -2.15 -29.7 -1.6 -31.75 -2.85 -33.8 -4.1 -34.3 -6.5 M-17.2 34.45 Q-15.15 35.95 -14.05 40.85 -13.0 45.65 -14.25 47.7 -15.5 49.7 -17.85 50.2 -20.2 50.7 -22.2 49.5 -24.25 48.2 -24.75 45.85 -25.3 43.5 -24.0 41.5 L-21.0 36.2 Q-19.25 32.9 -17.2 34.45"/></g><g id="c11"><g><use transform="matrix(1.0,0.0,0.0,1.0,0.0,0.0)" xlink:href="#c10"/></g></g><g id="c12"><path fill="#fefe45" fill-opacity="0.470588235294" d="M15.35 12.4 L15.4 12.5 Q14.95 13.0 14.55 14.0 13.85 15.9 12.85 16.25 11.9 16.6 11.6 16.25 11.35 15.9 11.95 15.05 12.6 14.2 13.75 13.35 L15.35 12.4"/><path fill="#ffffdd" stroke="none" d="M12.65 15.9 L12.0 15.75 Q11.7 15.55 11.75 15.15 11.75 14.75 12.0 14.4 12.25 14.1 12.65 14.05 L13.25 14.15 Q13.5 14.4 13.55 14.8 L13.3 15.5 12.65 15.9"/><path fill="#f49302" fill-opacity="0.270588235294" d="M12.85 12.35 Q14.85 10.95 17.25 11.4 19.7 11.8 21.25 13.85 22.75 15.9 22.4 18.35 22.1 20.7 20.15 22.15 18.15 23.55 15.7 23.1 13.25 22.7 11.75 20.65 10.2 18.6 10.5 16.25 10.85 13.8 12.85 12.35 M17.1 13.85 Q15.6 13.55 14.45 14.4 13.2 15.25 13.0 16.7 12.85 18.2 13.75 19.4 14.65 20.65 16.15 20.95 17.65 21.2 18.8 20.25 20.0 19.45 20.2 18.0 20.35 16.5 19.5 15.3 18.55 14.1 17.1 13.85"/></g><g id="c13"><path fill="#ffffff" stroke="none" d="M5.35 -1.6 Q5.35 -0.1 4.2 1.0 3.1 2.15 1.6 2.15 0.1 2.15 -1.05 1.0 -2.1 -0.1 -2.1 -1.6 -2.1 -3.1 -1.05 -4.25 0.1 -5.3 1.6 -5.3 3.1 -5.3 4.2 -4.25 5.35 -3.1 5.35 -1.6"/></g><g id="c14"><path fill="#524025" stroke="none" d="M19.9 21.9 Q17.15 21.75 17.0 21.05 L17.05 21.0 19.95 20.5 Q21.35 19.8 21.9 17.15 22.9 20.0 19.9 21.9"/><path fill="#756846" stroke="none" d="M17.0 21.05 Q17.15 21.75 19.9 21.9 18.35 22.85 16.65 22.45 14.9 22.0 13.85 20.2 15.2 21.0 17.0 21.05"/><path fill="none" stroke="#382510" stroke-width="0.5" stroke-opacity="0.501960784314" d="M19.9 21.9 Q22.9 20.0 21.9 17.15 21.35 19.8 19.95 20.5 L17.05 21.0 17.0 21.05 Q15.2 21.0 13.85 20.2 14.9 22.0 16.65 22.45 18.35 22.85 19.9 21.9"/></g><radialGradient gradientUnits="userSpaceOnUse" r="819.2" cx="0" cy="0" spreadMethod="pad" gradientTransform="matrix(0.0150604248047,0.0,0.0,0.0150604248047,0.0,0.0)" id="gradient5"><stop offset="0.0" stop-color="#80ff00" stop-opacity="0.560784313725"/><stop offset="1.0" stop-color="#e6ff00" stop-opacity="0.0"/></radialGradient><g id="c15"><path stroke="none" fill="url(#gradient5)" d="M9.0 -9.0 Q12.75 -5.25 12.75 0.0 12.75 5.25 9.0 9.0 5.25 12.75 0.0 12.75 -5.25 12.75 -9.0 9.0 -12.75 5.25 -12.75 0.0 -12.75 -5.25 -9.0 -9.0 -5.25 -12.75 0.0 -12.75 5.25 -12.75 9.0 -9.0 M1.8 -1.8 Q1.05 -2.55 0.0 -2.55 -1.05 -2.55 -1.8 -1.8 -2.55 -1.05 -2.55 0.0 -2.55 1.05 -1.8 1.8 -1.05 2.55 0.0 2.55 1.05 2.55 1.8 1.8 2.55 1.05 2.55 0.0 2.55 -1.05 1.8 -1.8"/><path fill="#ffffff" stroke="none" d="M2.4 -33.8 L2.8 -33.95 3.25 -33.8 3.4 -33.35 3.25 -32.95 2.8 -32.8 Q2.55 -32.8 2.4 -32.95 L2.25 -33.35 2.4 -33.8 M-5.55 -16.15 Q-5.9 -16.5 -5.85 -16.95 -5.9 -17.45 -5.55 -17.8 -5.2 -18.15 -4.7 -18.15 -4.2 -18.15 -3.85 -17.8 -3.55 -17.45 -3.55 -16.95 -3.55 -16.5 -3.85 -16.15 -4.2 -15.8 -4.7 -15.8 -5.2 -15.8 -5.55 -16.15"/><path fill="#ffffff" stroke="none" d="M3.6 -3.6 Q5.1 -2.1 5.1 0.0 5.1 2.1 3.6 3.6 2.1 5.1 0.0 5.1 -2.1 5.1 -3.6 3.6 -5.1 2.1 -5.1 0.0 -5.1 -2.1 -3.6 -3.6 -2.1 -5.1 0.0 -5.1 2.1 -5.1 3.6 -3.6"/></g><g id="c16"><g><use transform="matrix(1.0,0.0,0.0,1.0,0.0,0.0)" xlink:href="#c15"/></g></g><g id="c17"><g><use transform="matrix(1.0,0.0,0.0,1.0,0.0,0.0)" xlink:href="#c16"/></g><g><use transform="matrix(-0.501907348633,0.501907348633,-0.501907348633,-0.501907348633,21.1,-35.2)" xlink:href="#c16"/></g><g><use transform="matrix(0.42431640625,0.0,0.0,0.42431640625,24.65,-5.9)" xlink:href="#c16"/></g></g><g id="c18"><g><use transform="matrix(1.0,0.0,0.0,1.0,0.0,0.0)" xlink:href="#c2"/></g><g><use transform="matrix(0.238861083984,-0.0867004394531,0.10026550293,0.233917236328,34.25,31.15)" xlink:href="#c4"/></g><g><use transform="matrix(0.238861083984,-0.0867004394531,0.10026550293,0.233917236328,4.25,10.3)" xlink:href="#c4"/></g><g><use transform="matrix(0.141098022461,-0.0378112792969,0.111373901367,0.225646972656,20.25,20.65)" filter="url(#filter12)" xlink:href="#c6"/></g><g><use transform="matrix(-0.155029296875,0.0513153076172,0.0841827392578,0.147033691406,22.6,2.3)" filter="url(#filter13)" xlink:href="#c8"/></g><g><use transform="matrix(1.0,0.0,0.0,1.0,0.0,0.0)" xlink:href="#c9"/></g><g><use transform="matrix(-0.00881958007812,0.0177154541016,0.0217742919922,0.0028076171875,13.45,15.95)" filter="url(#filter15)" xlink:href="#c11"/></g><g><use transform="matrix(1.0,0.0,0.0,1.0,0.0,0.0)" xlink:href="#c12"/></g><g><use transform="matrix(0.0157470703125,0.0227661132812,-0.0160217285156,0.0132751464844,13.9,16.3)" filter="url(#filter17)" xlink:href="#c13"/></g><g><use transform="matrix(0.00724792480469,0.0104827880859,-0.00736999511719,0.006103515625,13.75,17.05)" filter="url(#filter18)" xlink:href="#c13"/></g><g><use transform="matrix(0.0133361816406,0.0192718505859,-0.0135650634766,0.0112457275391,13.45,16.8)" filter="url(#filter19)" xlink:href="#c13"/></g><g><use transform="matrix(0.01123046875,0.0162353515625,-0.0114288330078,0.00946044921875,14.2,17.1)" filter="url(#filter20)" xlink:href="#c13"/></g><g><use transform="matrix(0.00547790527344,0.025634765625,-0.0211639404297,0.000106811523438,14.85,14.75)" filter="url(#filter21)" xlink:href="#c13"/></g><g><use transform="matrix(0.00251770019531,0.0118103027344,-0.00973510742188,4.57763671875e-05,14.35,15.2)" filter="url(#filter22)" xlink:href="#c13"/></g><g><use transform="matrix(0.004638671875,0.0217132568359,-0.0179138183594,9.1552734375e-05,14.15,14.85)" filter="url(#filter23)" xlink:href="#c13"/></g><g><use transform="matrix(0.00390625,0.0182952880859,-0.0150909423828,7.62939453125e-05,14.8,15.5)" filter="url(#filter24)" xlink:href="#c13"/></g><g><use transform="matrix(0.0228881835938,0.0330810546875,-0.0232849121094,0.0193023681641,17.2,15.15)" filter="url(#filter25)" xlink:href="#c13"/></g><g><use transform="matrix(0.0105438232422,0.0152282714844,-0.0107116699219,0.00888061523438,16.95,16.25)" filter="url(#filter26)" xlink:href="#c13"/></g><g><use transform="matrix(0.0193786621094,0.0280151367188,-0.0197143554688,0.0163421630859,16.5,15.9)" filter="url(#filter27)" xlink:href="#c13"/></g><g><use transform="matrix(0.0163269042969,0.0236053466797,-0.0166015625,0.0137634277344,17.65,16.35)" filter="url(#filter28)" xlink:href="#c13"/></g><g><use transform="matrix(0.0182495117188,0.0263671875,-0.0185546875,0.015380859375,11.5,15.5)" filter="url(#filter29)" xlink:href="#c13"/></g><g><use transform="matrix(0.00839233398438,0.0121459960938,-0.008544921875,0.007080078125,11.3,16.4)" filter="url(#filter30)" xlink:href="#c13"/></g><g><use transform="matrix(0.0154418945312,0.0223236083984,-0.0157012939453,0.0130310058594,10.95,16.1)" filter="url(#filter31)" xlink:href="#c13"/></g><g><use transform="matrix(0.0130157470703,0.0188140869141,-0.0132293701172,0.0109710693359,11.8,16.45)" filter="url(#filter32)" xlink:href="#c13"/></g><g><use transform="matrix(0.0228881835938,0.0330810546875,-0.0232849121094,0.0193023681641,17.3,13.7)" filter="url(#filter33)" xlink:href="#c13"/></g><g><use transform="matrix(0.0105438232422,0.0152282714844,-0.0107116699219,0.00888061523438,17.05,14.8)" filter="url(#filter34)" xlink:href="#c13"/></g><g><use transform="matrix(0.0193786621094,0.0280151367188,-0.0197143554688,0.0163421630859,16.6,14.45)" filter="url(#filter35)" xlink:href="#c13"/></g><g><use transform="matrix(0.0163269042969,0.0236053466797,-0.0166015625,0.0137634277344,17.75,14.9)" filter="url(#filter36)" xlink:href="#c13"/></g><g><use transform="matrix(0.0284271240234,-0.0100860595703,0.0160827636719,0.0369567871094,18.3,13.9)" filter="url(#filter37)" xlink:href="#c13"/></g><g><use transform="matrix(0.0130920410156,-0.004638671875,0.00740051269531,0.0170135498047,19.25,14.75)" filter="url(#filter38)" xlink:href="#c13"/></g><g><use transform="matrix(0.0240631103516,-0.00852966308594,0.0136260986328,0.0312957763672,18.95,15.1)" filter="url(#filter39)" xlink:href="#c13"/></g><g><use transform="matrix(0.020263671875,-0.00718688964844,0.011474609375,0.0263671875,19.3,14.05)" filter="url(#filter40)" xlink:href="#c13"/></g><g><use transform="matrix(0.0314788818359,0.0189971923828,-0.00871276855469,0.0332641601562,18.0,14.85)" filter="url(#filter41)" xlink:href="#c13"/></g><g><use transform="matrix(0.0144958496094,0.00874328613281,-0.00401306152344,0.0153198242188,18.3,16.1)" filter="url(#filter42)" xlink:href="#c13"/></g><g><use transform="matrix(0.0266418457031,0.0160827636719,-0.00736999511719,0.0281677246094,17.8,16.05)" filter="url(#filter43)" xlink:href="#c13"/></g><g><use transform="matrix(0.0224456787109,0.0135498046875,-0.00621032714844,0.0237274169922,18.85,15.8)" filter="url(#filter44)" xlink:href="#c13"/></g><g><use transform="matrix(0.0081787109375,0.0383148193359,-0.0316162109375,0.000167846679688,18.55,13.65)" filter="url(#filter45)" xlink:href="#c13"/></g><g><use transform="matrix(0.00376892089844,0.0176391601562,-0.0145568847656,7.62939453125e-05,17.8,14.35)" filter="url(#filter46)" xlink:href="#c13"/></g><g><use transform="matrix(0.00692749023438,0.0324401855469,-0.0267639160156,0.000137329101562,17.5,13.8)" filter="url(#filter47)" xlink:href="#c13"/></g><g><use transform="matrix(0.00582885742188,0.0273284912109,-0.0225524902344,0.0001220703125,18.45,14.8)" filter="url(#filter48)" xlink:href="#c13"/></g><g><use transform="matrix(0.0168762207031,0.0243835449219,-0.0171661376953,0.0142211914062,15.95,14.5)" filter="url(#filter49)" xlink:href="#c13"/></g><g><use transform="matrix(0.00776672363281,0.01123046875,-0.00790405273438,0.00654602050781,15.8,15.3)" filter="url(#filter50)" xlink:href="#c13"/></g><g><use transform="matrix(0.0142822265625,0.0206451416016,-0.0145263671875,0.0120391845703,15.45,15.05)" filter="url(#filter51)" xlink:href="#c13"/></g><g><use transform="matrix(0.0120391845703,0.0173950195312,-0.0122375488281,0.0101470947266,16.3,15.4)" filter="url(#filter52)" xlink:href="#c13"/></g><g><use transform="matrix(-0.0165710449219,0.0272064208984,-0.0281372070312,-0.0269622802734,21.1,14.65)" filter="url(#filter53)" xlink:href="#c13"/></g><g><use transform="matrix(-0.00762939453125,0.0125274658203,-0.0129547119141,-0.0124053955078,20.0,14.4)" filter="url(#filter54)" xlink:href="#c13"/></g><g><use transform="matrix(-0.0140228271484,0.0230407714844,-0.0238189697266,-0.0228271484375,20.1,13.85)" filter="url(#filter55)" xlink:href="#c13"/></g><g><use transform="matrix(-0.0118103027344,0.0194091796875,-0.0200653076172,-0.0192260742188,20.25,15.2)" filter="url(#filter56)" xlink:href="#c13"/></g><g><use transform="matrix(1.0,0.0,0.0,1.0,0.0,0.0)" xlink:href="#c14"/></g><g><use transform="matrix(-0.0411529541016,-0.0329895019531,0.0260162353516,-0.0285797119141,14.65,17.95)" filter="url(#filter58)" xlink:href="#c11"/></g><g><use transform="matrix(0.0967102050781,-0.0547943115234,-0.0547943115234,-0.0967102050781,13.35,13.75)" xlink:href="#c17"/></g><g><use transform="matrix(0.162948608398,-0.0436706542969,0.128631591797,0.260604858398,20.35,20.95)" filter="url(#filter60)" xlink:href="#c6"/></g></g><filter id="filter12"><feColorMatrix in="SourceGraphic" type="matrix" values="0.0 0.0 0.0 0.0 0.796875 0.0 0.0 0.0 0.0 0.59765625 0.0 0.0 0.0 0.0 0.19921875 0.0 0.0 0.0 1.0 0.0" result="cxform"/><feComposite operator="in" in2="SourceGraphic" result="color-xform"/></filter><filter id="filter13"><feColorMatrix in="SourceGraphic" type="matrix" values="0.0 0.0 0.0 0.0 0.99609375 0.0 0.0 0.0 0.0 0.99609375 0.0 0.0 0.0 0.0 0.99609375 0.0 0.0 0.0 1.0 0.0" result="cxform"/><feComposite operator="in" in2="SourceGraphic" result="color-xform"/></filter><filter id="filter15"><feColorMatrix in="SourceGraphic" type="matrix" values="0.0 0.0 0.0 0.0 0.99609375 0.0 0.0 0.0 0.0 0.79296875 0.0 0.0 0.0 0.0 0.125 0.0 0.0 0.0 1.0 0.0" result="cxform"/><feComposite operator="in" in2="SourceGraphic" result="color-xform"/></filter><filter id="filter17"><feColorMatrix in="SourceGraphic" type="matrix" values="1.0 0.0 0.0 0.0 0.0 0.0 1.0 0.0 0.0 0.0 0.0 0.0 1.0 0.0 0.0 0.0 0.0 0.0 0.921875 0.0" result="cxform"/><feComposite operator="in" in2="SourceGraphic" result="color-xform"/></filter><filter id="filter18"><feColorMatrix in="SourceGraphic" type="matrix" values="1.0 0.0 0.0 0.0 0.0 0.0 1.0 0.0 0.0 0.0 0.0 0.0 1.0 0.0 0.0 0.0 0.0 0.0 0.921875 0.0" result="cxform"/><feComposite operator="in" in2="SourceGraphic" result="color-xform"/></filter><filter id="filter19"><feColorMatrix in="SourceGraphic" type="matrix" values="1.0 0.0 0.0 0.0 0.0 0.0 1.0 0.0 0.0 0.0 0.0 0.0 1.0 0.0 0.0 0.0 0.0 0.0 0.921875 0.0" result="cxform"/><feComposite operator="in" in2="SourceGraphic" result="color-xform"/></filter><filter id="filter20"><feColorMatrix in="SourceGraphic" type="matrix" values="1.0 0.0 0.0 0.0 0.0 0.0 1.0 0.0 0.0 0.0 0.0 0.0 1.0 0.0 0.0 0.0 0.0 0.0 0.921875 0.0" result="cxform"/><feComposite operator="in" in2="SourceGraphic" result="color-xform"/></filter><filter id="filter21"><feColorMatrix in="SourceGraphic" type="matrix" values="1.0 0.0 0.0 0.0 0.0 0.0 1.0 0.0 0.0 0.0 0.0 0.0 1.0 0.0 0.0 0.0 0.0 0.0 0.921875 0.0" result="cxform"/><feComposite operator="in" in2="SourceGraphic" result="color-xform"/></filter><filter id="filter22"><feColorMatrix in="SourceGraphic" type="matrix" values="1.0 0.0 0.0 0.0 0.0 0.0 1.0 0.0 0.0 0.0 0.0 0.0 1.0 0.0 0.0 0.0 0.0 0.0 0.921875 0.0" result="cxform"/><feComposite operator="in" in2="SourceGraphic" result="color-xform"/></filter><filter id="filter23"><feColorMatrix in="SourceGraphic" type="matrix" values="1.0 0.0 0.0 0.0 0.0 0.0 1.0 0.0 0.0 0.0 0.0 0.0 1.0 0.0 0.0 0.0 0.0 0.0 0.921875 0.0" result="cxform"/><feComposite operator="in" in2="SourceGraphic" result="color-xform"/></filter><filter id="filter24"><feColorMatrix in="SourceGraphic" type="matrix" values="1.0 0.0 0.0 0.0 0.0 0.0 1.0 0.0 0.0 0.0 0.0 0.0 1.0 0.0 0.0 0.0 0.0 0.0 0.921875 0.0" result="cxform"/><feComposite operator="in" in2="SourceGraphic" result="color-xform"/></filter><filter id="filter25"><feColorMatrix in="SourceGraphic" type="matrix" values="1.0 0.0 0.0 0.0 0.0 0.0 1.0 0.0 0.0 0.0 0.0 0.0 1.0 0.0 0.0 0.0 0.0 0.0 0.4609375 0.0" result="cxform"/><feComposite operator="in" in2="SourceGraphic" result="color-xform"/></filter><filter id="filter26"><feColorMatrix in="SourceGraphic" type="matrix" values="1.0 0.0 0.0 0.0 0.0 0.0 1.0 0.0 0.0 0.0 0.0 0.0 1.0 0.0 0.0 0.0 0.0 0.0 0.4609375 0.0" result="cxform"/><feComposite operator="in" in2="SourceGraphic" result="color-xform"/></filter><filter id="filter27"><feColorMatrix in="SourceGraphic" type="matrix" values="1.0 0.0 0.0 0.0 0.0 0.0 1.0 0.0 0.0 0.0 0.0 0.0 1.0 0.0 0.0 0.0 0.0 0.0 0.4609375 0.0" result="cxform"/><feComposite operator="in" in2="SourceGraphic" result="color-xform"/></filter><filter id="filter28"><feColorMatrix in="SourceGraphic" type="matrix" values="1.0 0.0 0.0 0.0 0.0 0.0 1.0 0.0 0.0 0.0 0.0 0.0 1.0 0.0 0.0 0.0 0.0 0.0 0.4609375 0.0" result="cxform"/><feComposite operator="in" in2="SourceGraphic" result="color-xform"/></filter><filter id="filter29"><feColorMatrix in="SourceGraphic" type="matrix" values="1.0 0.0 0.0 0.0 0.0 0.0 1.0 0.0 0.0 0.0 0.0 0.0 1.0 0.0 0.0 0.0 0.0 0.0 0.40625 0.0" result="cxform"/><feComposite operator="in" in2="SourceGraphic" result="color-xform"/></filter><filter id="filter30"><feColorMatrix in="SourceGraphic" type="matrix" values="1.0 0.0 0.0 0.0 0.0 0.0 1.0 0.0 0.0 0.0 0.0 0.0 1.0 0.0 0.0 0.0 0.0 0.0 0.40625 0.0" result="cxform"/><feComposite operator="in" in2="SourceGraphic" result="color-xform"/></filter><filter id="filter31"><feColorMatrix in="SourceGraphic" type="matrix" values="1.0 0.0 0.0 0.0 0.0 0.0 1.0 0.0 0.0 0.0 0.0 0.0 1.0 0.0 0.0 0.0 0.0 0.0 0.40625 0.0" result="cxform"/><feComposite operator="in" in2="SourceGraphic" result="color-xform"/></filter><filter id="filter32"><feColorMatrix in="SourceGraphic" type="matrix" values="1.0 0.0 0.0 0.0 0.0 0.0 1.0 0.0 0.0 0.0 0.0 0.0 1.0 0.0 0.0 0.0 0.0 0.0 0.40625 0.0" result="cxform"/><feComposite operator="in" in2="SourceGraphic" result="color-xform"/></filter><filter id="filter33"><feColorMatrix in="SourceGraphic" type="matrix" values="1.0 0.0 0.0 0.0 0.0 0.0 1.0 0.0 0.0 0.0 0.0 0.0 1.0 0.0 0.0 0.0 0.0 0.0 0.55078125 0.0" result="cxform"/><feComposite operator="in" in2="SourceGraphic" result="color-xform"/></filter><filter id="filter34"><feColorMatrix in="SourceGraphic" type="matrix" values="1.0 0.0 0.0 0.0 0.0 0.0 1.0 0.0 0.0 0.0 0.0 0.0 1.0 0.0 0.0 0.0 0.0 0.0 0.55078125 0.0" result="cxform"/><feComposite operator="in" in2="SourceGraphic" result="color-xform"/></filter><filter id="filter35"><feColorMatrix in="SourceGraphic" type="matrix" values="1.0 0.0 0.0 0.0 0.0 0.0 1.0 0.0 0.0 0.0 0.0 0.0 1.0 0.0 0.0 0.0 0.0 0.0 0.55078125 0.0" result="cxform"/><feComposite operator="in" in2="SourceGraphic" result="color-xform"/></filter><filter id="filter36"><feColorMatrix in="SourceGraphic" type="matrix" values="1.0 0.0 0.0 0.0 0.0 0.0 1.0 0.0 0.0 0.0 0.0 0.0 1.0 0.0 0.0 0.0 0.0 0.0 0.55078125 0.0" result="cxform"/><feComposite operator="in" in2="SourceGraphic" result="color-xform"/></filter><filter id="filter37"><feColorMatrix in="SourceGraphic" type="matrix" values="1.0 0.0 0.0 0.0 0.0 0.0 1.0 0.0 0.0 0.0 0.0 0.0 1.0 0.0 0.0 0.0 0.0 0.0 0.55078125 0.0" result="cxform"/><feComposite operator="in" in2="SourceGraphic" result="color-xform"/></filter><filter id="filter38"><feColorMatrix in="SourceGraphic" type="matrix" values="1.0 0.0 0.0 0.0 0.0 0.0 1.0 0.0 0.0 0.0 0.0 0.0 1.0 0.0 0.0 0.0 0.0 0.0 0.55078125 0.0" result="cxform"/><feComposite operator="in" in2="SourceGraphic" result="color-xform"/></filter><filter id="filter39"><feColorMatrix in="SourceGraphic" type="matrix" values="1.0 0.0 0.0 0.0 0.0 0.0 1.0 0.0 0.0 0.0 0.0 0.0 1.0 0.0 0.0 0.0 0.0 0.0 0.55078125 0.0" result="cxform"/><feComposite operator="in" in2="SourceGraphic" result="color-xform"/></filter><filter id="filter40"><feColorMatrix in="SourceGraphic" type="matrix" values="1.0 0.0 0.0 0.0 0.0 0.0 1.0 0.0 0.0 0.0 0.0 0.0 1.0 0.0 0.0 0.0 0.0 0.0 0.55078125 0.0" result="cxform"/><feComposite operator="in" in2="SourceGraphic" result="color-xform"/></filter><filter id="filter41"><feColorMatrix in="SourceGraphic" type="matrix" values="1.0 0.0 0.0 0.0 0.0 0.0 1.0 0.0 0.0 0.0 0.0 0.0 1.0 0.0 0.0 0.0 0.0 0.0 0.4609375 0.0" result="cxform"/><feComposite operator="in" in2="SourceGraphic" result="color-xform"/></filter><filter id="filter42"><feColorMatrix in="SourceGraphic" type="matrix" values="1.0 0.0 0.0 0.0 0.0 0.0 1.0 0.0 0.0 0.0 0.0 0.0 1.0 0.0 0.0 0.0 0.0 0.0 0.4609375 0.0" result="cxform"/><feComposite operator="in" in2="SourceGraphic" result="color-xform"/></filter><filter id="filter43"><feColorMatrix in="SourceGraphic" type="matrix" values="1.0 0.0 0.0 0.0 0.0 0.0 1.0 0.0 0.0 0.0 0.0 0.0 1.0 0.0 0.0 0.0 0.0 0.0 0.4609375 0.0" result="cxform"/><feComposite operator="in" in2="SourceGraphic" result="color-xform"/></filter><filter id="filter44"><feColorMatrix in="SourceGraphic" type="matrix" values="1.0 0.0 0.0 0.0 0.0 0.0 1.0 0.0 0.0 0.0 0.0 0.0 1.0 0.0 0.0 0.0 0.0 0.0 0.4609375 0.0" result="cxform"/><feComposite operator="in" in2="SourceGraphic" result="color-xform"/></filter><filter id="filter45"><feColorMatrix in="SourceGraphic" type="matrix" values="1.0 0.0 0.0 0.0 0.0 0.0 1.0 0.0 0.0 0.0 0.0 0.0 1.0 0.0 0.0 0.0 0.0 0.0 0.55078125 0.0" result="cxform"/><feComposite operator="in" in2="SourceGraphic" result="color-xform"/></filter><filter id="filter46"><feColorMatrix in="SourceGraphic" type="matrix" values="1.0 0.0 0.0 0.0 0.0 0.0 1.0 0.0 0.0 0.0 0.0 0.0 1.0 0.0 0.0 0.0 0.0 0.0 0.55078125 0.0" result="cxform"/><feComposite operator="in" in2="SourceGraphic" result="color-xform"/></filter><filter id="filter47"><feColorMatrix in="SourceGraphic" type="matrix" values="1.0 0.0 0.0 0.0 0.0 0.0 1.0 0.0 0.0 0.0 0.0 0.0 1.0 0.0 0.0 0.0 0.0 0.0 0.55078125 0.0" result="cxform"/><feComposite operator="in" in2="SourceGraphic" result="color-xform"/></filter><filter id="filter48"><feColorMatrix in="SourceGraphic" type="matrix" values="1.0 0.0 0.0 0.0 0.0 0.0 1.0 0.0 0.0 0.0 0.0 0.0 1.0 0.0 0.0 0.0 0.0 0.0 0.55078125 0.0" result="cxform"/><feComposite operator="in" in2="SourceGraphic" result="color-xform"/></filter><filter id="filter49"><feColorMatrix in="SourceGraphic" type="matrix" values="1.0 0.0 0.0 0.0 0.0 0.0 1.0 0.0 0.0 0.0 0.0 0.0 1.0 0.0 0.0 0.0 0.0 0.0 0.55078125 0.0" result="cxform"/><feComposite operator="in" in2="SourceGraphic" result="color-xform"/></filter><filter id="filter50"><feColorMatrix in="SourceGraphic" type="matrix" values="1.0 0.0 0.0 0.0 0.0 0.0 1.0 0.0 0.0 0.0 0.0 0.0 1.0 0.0 0.0 0.0 0.0 0.0 0.55078125 0.0" result="cxform"/><feComposite operator="in" in2="SourceGraphic" result="color-xform"/></filter><filter id="filter51"><feColorMatrix in="SourceGraphic" type="matrix" values="1.0 0.0 0.0 0.0 0.0 0.0 1.0 0.0 0.0 0.0 0.0 0.0 1.0 0.0 0.0 0.0 0.0 0.0 0.55078125 0.0" result="cxform"/><feComposite operator="in" in2="SourceGraphic" result="color-xform"/></filter><filter id="filter52"><feColorMatrix in="SourceGraphic" type="matrix" values="1.0 0.0 0.0 0.0 0.0 0.0 1.0 0.0 0.0 0.0 0.0 0.0 1.0 0.0 0.0 0.0 0.0 0.0 0.55078125 0.0" result="cxform"/><feComposite operator="in" in2="SourceGraphic" result="color-xform"/></filter><filter id="filter53"><feColorMatrix in="SourceGraphic" type="matrix" values="1.0 0.0 0.0 0.0 0.0 0.0 1.0 0.0 0.0 0.0 0.0 0.0 1.0 0.0 0.0 0.0 0.0 0.0 0.55078125 0.0" result="cxform"/><feComposite operator="in" in2="SourceGraphic" result="color-xform"/></filter><filter id="filter54"><feColorMatrix in="SourceGraphic" type="matrix" values="1.0 0.0 0.0 0.0 0.0 0.0 1.0 0.0 0.0 0.0 0.0 0.0 1.0 0.0 0.0 0.0 0.0 0.0 0.55078125 0.0" result="cxform"/><feComposite operator="in" in2="SourceGraphic" result="color-xform"/></filter><filter id="filter55"><feColorMatrix in="SourceGraphic" type="matrix" values="1.0 0.0 0.0 0.0 0.0 0.0 1.0 0.0 0.0 0.0 0.0 0.0 1.0 0.0 0.0 0.0 0.0 0.0 0.55078125 0.0" result="cxform"/><feComposite operator="in" in2="SourceGraphic" result="color-xform"/></filter><filter id="filter56"><feColorMatrix in="SourceGraphic" type="matrix" values="1.0 0.0 0.0 0.0 0.0 0.0 1.0 0.0 0.0 0.0 0.0 0.0 1.0 0.0 0.0 0.0 0.0 0.0 0.55078125 0.0" result="cxform"/><feComposite operator="in" in2="SourceGraphic" result="color-xform"/></filter><filter id="filter58"><feColorMatrix in="SourceGraphic" type="matrix" values="0.0 0.0 0.0 0.0 0.51171875 0.0 0.0 0.0 0.0 0.42578125 0.0 0.0 0.0 0.0 0.15234375 0.0 0.0 0.0 1.0 0.0" result="cxform"/><feComposite operator="in" in2="SourceGraphic" result="color-xform"/></filter><filter id="filter60"><feColorMatrix in="SourceGraphic" type="matrix" values="1.0 0.0 0.0 0.0 0.0 0.0 1.0 0.0 0.0 0.0 0.0 0.0 1.0 0.0 0.0 0.0 0.0 0.0 0.23046875 0.0" result="cxform"/><feComposite operator="in" in2="SourceGraphic" result="color-xform"/></filter></defs><g><g><use transform="matrix(1.0,0.0,0.0,1.0,0.0,0.0)" xlink:href="#c1"/></g><g><use transform="matrix(1.15496826172,0.0,0.0,1.15496826172,5.85,3.95)" xlink:href="#c18"/></g></g></svg>