<?xml version='1.0' encoding='UTF-8'?>
<svg xmlns:xlink="http://www.w3.org/1999/xlink" xmlns="http://www.w3.org/2000/svg" version="1.1" width="60px" height="60px" viewBox="0.0 0.0 60.0 60.0"><defs><g id="c1"><path fill="#000000" fill-opacity="0.00392156862745" d="M0.0 0.0 L60.0 0.0 60.0 60.0 0.0 60.0 0.0 0.0"/></g><g id="c2"><path fill="none" stroke="#000000" stroke-width="1.0" stroke-opacity="0.301960784314" d="M22.3 0.35 Q26.6 -1.0 28.5 3.05 L41.4 31.7 Q43.1 35.4 39.9 36.85 L38.15 37.65 19.65 43.65 Q17.05 44.5 15.35 43.3 14.2 42.55 13.5 40.9 L0.55 12.25 Q-0.6 9.75 0.6 8.25 1.15 7.55 2.2 7.05 2.85 6.6 3.8 6.3 L22.3 0.35"/><path fill="#300525" stroke="none" d="M25.55 0.9 Q26.9 1.6 27.8 3.55 L40.7 32.15 Q42.6 36.3 38.3 37.65 L23.3 42.5 13.15 21.4 4.6 20.9 0.7 12.25 Q-0.45 9.75 0.75 8.25 L29.8 9.75 25.55 0.9 M20.1 43.55 L19.8 43.65 Q17.15 44.45 15.5 43.3 L20.1 43.55"/><path fill="#630a4c" stroke="none" d="M23.3 42.5 L20.1 43.55 15.5 43.3 Q14.35 42.55 13.65 40.9 L4.6 20.9 13.15 21.4 23.3 42.5 M0.75 8.25 Q1.45 7.3 3.1 6.75 L21.65 0.8 25.55 0.9 29.8 9.75 0.75 8.25"/><path fill="none" stroke="#000000" stroke-width="0.5" stroke-opacity="0.301960784314" d="M25.55 0.9 Q26.9 1.6 27.8 3.55 L40.7 32.15 Q42.6 36.3 38.3 37.65 L23.3 42.5 20.1 43.55 19.8 43.65 Q17.15 44.45 15.5 43.3 14.35 42.55 13.65 40.9 L4.6 20.9 0.7 12.25 Q-0.45 9.75 0.75 8.25 1.45 7.3 3.1 6.75 L21.65 0.8 25.55 0.9"/><path fill="#9d147b" stroke="none" d="M14.2 40.5 L1.35 11.8 Q-0.5 7.75 3.8 6.35 L22.3 0.4 Q26.55 -1.0 28.45 3.1 L41.35 31.7 Q43.25 35.85 38.9 37.25 L20.4 43.2 Q16.1 44.55 14.2 40.5"/><path fill="none" stroke="#000000" stroke-width="0.5" stroke-opacity="0.301960784314" d="M14.2 40.5 L1.35 11.8 Q-0.5 7.75 3.8 6.35 L22.3 0.4 Q26.55 -1.0 28.45 3.1 L41.35 31.7 Q43.25 35.85 38.9 37.25 L20.4 43.2 Q16.1 44.55 14.2 40.5"/><path fill="#fcf2cf" stroke="none" d="M9.15 13.6 Q9.8 12.8 9.55 11.6 L9.1 10.55 22.05 6.35 Q24.9 5.45 26.25 7.85 L26.5 8.3 35.8 29.0 35.95 29.35 Q34.75 29.3 34.1 30.1 33.45 30.9 33.7 32.1 L34.0 32.9 20.65 37.2 Q18.8 37.8 17.65 37.0 16.8 36.4 16.3 35.2 L6.95 14.6 6.8 14.4 7.1 14.4 Q8.4 14.45 9.15 13.6"/><path fill="#c47fad" stroke="none" d="M8.25 23.65 L3.35 12.8 Q1.65 9.1 5.5 7.85 L22.25 2.5 Q26.05 1.25 27.75 4.95 L28.25 6.1 35.55 22.3 39.35 30.75 Q41.1 34.5 37.2 35.7 L20.45 41.1 Q16.8 42.25 15.2 39.0 L15.0 38.6 8.25 23.65 M9.15 13.6 Q8.4 14.45 7.1 14.4 L6.8 14.4 6.95 14.6 16.3 35.2 Q16.8 36.4 17.65 37.0 18.8 37.8 20.65 37.2 L34.0 32.9 33.7 32.1 Q33.45 30.9 34.1 30.1 34.75 29.3 35.95 29.35 L35.8 29.0 26.5 8.3 26.25 7.85 Q24.9 5.45 22.05 6.35 L9.1 10.55 9.55 11.6 Q9.8 12.8 9.15 13.6"/><path fill="none" stroke="#ffcc00" stroke-width="1.0" stroke-opacity="0.749019607843" d="M8.25 23.65 L3.35 12.8 Q1.65 9.1 5.5 7.85 L22.25 2.5 Q26.05 1.25 27.75 4.95 L28.25 6.1 M35.55 22.3 L39.35 30.75 Q41.1 34.5 37.2 35.7 L20.45 41.1 Q16.8 42.25 15.2 39.0 L15.0 38.6"/><path fill="none" stroke="#bf9900" stroke-width="1.0" stroke-opacity="0.749019607843" d="M28.25 6.1 L35.55 22.3 M15.0 38.6 L8.25 23.65"/><path fill="none" stroke="#f0b92b" stroke-width="0.5" d="M9.15 13.6 Q9.8 12.8 9.55 11.6 L9.1 10.55 22.05 6.35 Q24.9 5.45 26.25 7.85 L26.5 8.3 35.8 29.0 35.95 29.35 Q34.75 29.3 34.1 30.1 33.45 30.9 33.7 32.1 L34.0 32.9 20.65 37.2 Q18.8 37.8 17.65 37.0 16.8 36.4 16.3 35.2 L6.95 14.6 6.8 14.4 7.1 14.4 Q8.4 14.45 9.15 13.6"/></g><g id="c3"><path fill="#7fdbfe" stroke="none" d="M10.75 4.9 Q10.75 4.6 10.9 4.35 11.25 3.45 11.95 2.75 13.3 1.5 14.35 2.1 15.4 2.7 14.95 4.45 14.7 5.4 14.1 6.15 L13.75 6.5 Q13.1 7.15 12.35 7.35 L11.4 7.2 Q10.95 6.9 10.75 6.4 10.5 5.75 10.75 4.9 M7.5 5.9 Q7.0 5.85 6.6 5.5 6.05 5.0 5.8 4.15 L5.7 3.6 Q5.55 2.65 5.8 1.7 6.25 0.0 7.5 0.0 L7.6 0.0 Q8.85 0.0 9.3 1.7 9.55 2.65 9.4 3.6 L9.3 4.15 8.5 5.5 7.6 5.9 7.5 5.9 M4.35 4.9 Q4.6 5.75 4.35 6.4 L3.7 7.2 2.75 7.35 Q2.0 7.15 1.35 6.5 L1.0 6.15 Q0.4 5.4 0.15 4.45 -0.3 2.7 0.75 2.1 1.8 1.5 3.15 2.75 3.85 3.45 4.2 4.35 L4.35 4.9 M5.5 13.7 Q4.45 13.9 3.65 12.95 2.75 12.0 3.2 10.25 3.7 8.5 5.25 7.6 6.4 6.9 7.55 7.0 8.75 6.9 9.9 7.6 11.45 8.5 11.95 10.25 12.35 12.0 11.5 12.95 10.7 13.9 9.65 13.7 8.55 13.5 7.55 12.6 6.55 13.5 5.5 13.7"/></g><g id="c4"><g><use transform="matrix(1.0,0.0,0.0,1.0,0.0,0.0)" xlink:href="#c3"/></g></g><radialGradient gradientUnits="userSpaceOnUse" r="819.2" cx="0" cy="0" spreadMethod="pad" gradientTransform="matrix(0.0914459228516,0.0,0.0,0.0914459228516,0.6,3.4)" id="gradient1"><stop offset="0.0" stop-color="#ffffff"/><stop offset="1.0" stop-color="#ffffff" stop-opacity="0.0"/></radialGradient><g id="c5"><path stroke="none" fill="url(#gradient1)" d="M36.65 -54.65 Q60.05 -42.0 69.75 -17.95 80.55 8.9 68.0 34.1 55.45 59.35 26.8 68.2 -1.8 77.05 -29.7 64.3 -57.6 51.6 -68.45 24.75 -79.3 -2.05 -66.75 -27.25 L-66.7 -27.3 Q-54.1 -52.5 -25.5 -61.4 3.1 -70.2 31.0 -57.5 L36.65 -54.65"/></g><g id="c6"><g><use transform="matrix(1.0,0.0,0.0,1.0,0.0,0.0)" xlink:href="#c5"/></g></g><radialGradient gradientUnits="userSpaceOnUse" r="819.2" cx="0" cy="0" spreadMethod="pad" gradientTransform="matrix(0.209197998047,0.0,0.0,0.177108764648,67.15,107.2)" id="gradient2"><stop offset="0.356862745098" stop-color="#ffffff"/><stop offset="0.670588235294" stop-opacity="0.0"/></radialGradient><g id="c7"><path fill="none" stroke-linejoin="round" stroke-linecap="round" stroke="url(#gradient2)" stroke-width="0.5" d="M136.55 165.8 L68.6 106.0 68.4 106.0 118.25 201.5 M68.2 105.7 L68.25 105.8 68.25 105.75 68.2 105.7 0.0 45.7 M68.25 105.8 L68.3 105.85 68.3 105.8 68.25 105.75 49.95 0.05 M0.05 97.7 L68.15 105.95 68.25 105.85 68.25 105.8 M68.3 105.85 L68.25 105.85 68.3 106.0 68.3 105.85 68.3 105.8 68.35 105.8 68.3 105.8 86.6 18.35 M50.0 193.2 L68.3 106.0 68.15 105.95 18.25 151.55 M68.4 106.0 L68.3 106.0 86.55 211.5 M68.4 106.0 L68.3 105.85 M68.6 106.0 L68.35 105.8 118.25 60.15 M136.6 114.25 L68.6 106.0 M68.2 105.7 L18.25 10.05"/></g><g id="c8"><g><use transform="matrix(1.0,0.0,0.0,1.0,0.0,0.0)" xlink:href="#c7"/></g></g><linearGradient gradientUnits="userSpaceOnUse" x1="-819.2" x2="819.2" spreadMethod="pad" gradientTransform="matrix(-0.004638671875,-0.00103759765625,0.000442504882812,-0.00157165527344,20.5,31.5)" id="gradient3"><stop offset="0.0" stop-color="#e4f9d4"/><stop offset="1.0" stop-color="#c7ebad"/></linearGradient><g id="c9"><path fill="#000000" fill-opacity="0.2" d="M16.2 23.85 Q18.4 22.15 21.9 21.35 25.35 20.6 28.05 21.3 30.75 21.95 31.15 23.65 31.5 25.35 29.3 27.1 27.1 28.8 23.65 29.55 20.15 30.35 17.45 29.65 14.75 29.0 14.4 27.3 14.0 25.6 16.2 23.85"/><path fill="#b19741" stroke="none" d="M13.05 22.25 Q12.8 20.8 14.85 19.25 17.0 17.65 20.4 16.95 L26.3 16.75 Q28.85 17.3 29.2 18.75 L29.25 18.85 29.25 19.05 29.3 19.15 29.25 19.7 Q28.6 21.35 25.85 22.4 L24.2 23.0 23.7 23.7 21.95 24.2 19.75 24.55 19.3 24.55 16.0 24.4 15.45 24.25 Q13.6 23.75 13.15 22.65 L13.1 22.5 13.1 22.35 13.05 22.25"/><path fill="#d8ca7c" stroke="none" d="M12.4 22.4 Q12.15 20.75 14.35 19.1 16.6 17.35 20.25 16.55 23.85 15.75 26.6 16.45 29.3 17.05 29.75 18.6 L29.2 18.75 Q28.85 17.3 26.3 16.75 L20.4 16.95 Q17.0 17.65 14.85 19.25 12.8 20.8 13.05 22.25 L12.4 22.4"/><path fill="none" stroke="#000000" stroke-width="0.5" stroke-opacity="0.301960784314" d="M29.75 18.6 Q29.3 17.05 26.6 16.45 23.85 15.75 20.25 16.55 16.6 17.35 14.35 19.1 12.15 20.75 12.4 22.4 M13.05 22.25 Q12.8 20.8 14.85 19.25 17.0 17.65 20.4 16.95 L26.3 16.75 Q28.85 17.3 29.2 18.75"/><path fill="#fffff7" stroke="none" d="M14.95 21.85 L15.0 21.95 14.9 22.2 Q14.85 22.75 15.15 23.2 L15.15 23.25 15.4 23.5 16.15 24.1 Q16.45 24.3 16.4 24.65 L16.4 24.7 16.25 24.95 15.25 24.85 Q14.15 24.65 13.8 23.6 L14.9 24.45 15.35 24.55 Q15.85 24.6 15.65 24.15 L15.4 23.95 14.9 23.35 14.85 23.25 14.75 22.55 14.9 21.9 14.95 21.85 M17.7 19.7 L17.95 19.75 Q18.45 20.15 18.4 20.9 L18.3 21.55 18.3 21.6 17.7 22.85 17.6 22.95 17.9 21.85 17.9 21.6 17.95 20.8 17.65 20.25 17.15 20.15 Q16.75 20.2 16.45 20.55 L15.95 21.8 15.95 21.9 Q15.8 22.8 16.4 23.35 L16.5 23.35 16.15 23.35 15.95 23.2 Q15.4 22.8 15.45 22.4 L15.6 21.85 Q15.75 20.95 16.3 20.15 L16.75 19.7 17.45 19.6 17.6 19.65 17.7 19.7 M16.95 18.2 L17.4 18.3 17.8 18.6 17.85 18.7 17.7 18.95 Q17.35 19.05 17.1 19.25 L16.7 19.45 17.4 18.85 17.4 18.65 Q17.4 18.5 17.05 18.5 L15.75 18.65 Q15.25 18.9 14.95 19.2 L14.55 19.75 14.5 20.75 14.25 21.15 Q13.8 20.2 14.45 19.3 L14.65 19.05 15.25 18.55 15.4 18.45 16.4 18.25 16.95 18.2 M12.45 18.2 L12.0 18.1 Q11.65 17.75 11.65 17.35 L11.7 16.95 Q11.8 16.25 12.95 16.25 13.4 16.5 13.3 16.95 L13.0 17.0 13.0 16.75 12.85 16.55 Q12.3 16.5 12.05 16.95 L11.95 17.35 11.95 17.55 12.0 17.7 Q12.05 18.15 12.45 18.2 M14.6 16.0 L15.1 15.6 15.3 15.7 15.4 15.7 15.6 15.85 15.9 16.15 Q15.55 15.8 15.1 15.9 14.45 16.45 14.45 17.05 L14.4 17.1 Q14.45 17.75 14.75 17.85 15.5 18.05 15.9 17.35 L15.95 17.35 15.75 17.7 15.35 18.0 14.7 18.05 14.3 17.95 14.05 17.45 14.0 17.15 14.0 17.1 14.1 16.65 14.2 16.5 14.6 16.0 M16.3 18.1 L15.95 18.2 16.45 17.5 16.65 17.25 16.45 17.5 16.3 16.9 Q16.25 16.55 16.45 16.25 L16.5 16.05 17.3 15.5 17.7 15.55 18.1 15.9 17.4 15.8 Q16.8 15.9 16.65 16.4 L16.65 16.85 16.65 17.25 17.05 17.0 17.65 16.9 17.85 17.0 18.85 17.5 19.05 17.8 Q18.25 17.0 17.55 17.15 16.65 17.4 16.3 18.1 M19.2 16.9 L18.95 16.8 19.0 16.65 Q19.2 16.1 19.95 16.05 L20.7 16.15 21.1 16.45 21.45 17.15 21.45 17.2 Q20.95 16.4 20.35 16.25 19.4 16.2 19.2 16.9 M18.4 16.7 L18.0 16.65 Q17.9 16.45 18.2 16.2 L18.65 15.95 19.3 15.8 Q18.35 16.15 18.4 16.7"/><path fill="#f3fce9" stroke="none" d="M14.95 21.85 L14.9 21.9 14.75 22.55 14.85 23.25 14.9 23.35 15.4 23.95 15.65 24.15 Q15.85 24.6 15.35 24.55 L14.9 24.45 13.8 23.6 13.75 23.15 Q13.65 22.55 13.85 22.0 L14.15 21.35 14.25 21.15 14.5 20.75 14.55 19.75 14.95 19.2 Q15.25 18.9 15.75 18.65 L17.05 18.5 Q17.4 18.5 17.4 18.65 L17.4 18.85 16.7 19.45 16.25 19.8 15.4 20.7 14.95 21.65 14.95 21.85 M16.25 24.95 L16.4 24.7 16.4 24.65 18.05 24.55 Q19.3 24.15 19.8 23.1 20.1 21.7 19.35 20.15 18.65 19.65 17.7 19.7 L17.6 19.65 17.45 19.6 16.75 19.7 Q17.15 19.4 17.7 19.4 L18.55 19.5 Q18.75 18.9 17.9 18.35 L16.95 18.2 16.4 18.25 15.4 18.45 15.25 18.55 Q14.65 18.4 14.3 17.95 L14.7 18.05 Q14.95 18.35 15.4 18.45 L15.95 18.2 16.3 18.1 Q16.65 17.4 17.55 17.15 18.25 17.0 19.05 17.8 L19.0 18.05 18.75 18.3 18.4 18.3 18.55 18.45 18.95 19.1 18.9 19.55 18.95 19.65 19.75 20.35 Q20.2 21.2 20.3 22.15 L20.2 23.3 20.3 22.15 Q22.0 20.7 21.25 18.9 21.85 18.05 21.6 16.85 21.35 16.25 20.65 15.95 L19.8 15.8 20.1 15.75 20.4 15.75 20.1 15.75 Q19.65 15.2 18.7 15.35 L17.7 15.55 17.3 15.5 17.4 15.45 17.7 15.35 16.05 15.3 15.3 15.7 15.1 15.6 Q15.6 15.3 16.25 15.15 L16.6 15.1 18.1 15.25 18.95 15.1 Q19.95 15.0 20.4 15.75 L21.3 15.95 21.85 16.45 21.9 16.6 22.05 17.7 21.7 18.75 Q22.45 20.95 20.2 23.3 L20.05 23.6 Q19.15 24.55 18.1 24.9 L16.25 24.95 M17.4 23.1 L17.25 23.2 16.7 23.35 16.7 23.4 16.5 23.35 16.4 23.35 Q15.8 22.8 15.95 21.9 L15.95 21.8 16.45 20.55 Q16.75 20.2 17.15 20.15 L17.65 20.25 17.95 20.8 17.9 21.6 17.9 21.85 17.6 22.95 17.4 23.1 M18.55 19.5 L18.9 19.55 18.55 19.5 M12.45 18.2 Q12.05 18.15 12.0 17.7 L11.95 17.55 11.95 17.35 12.05 16.95 Q12.3 16.5 12.85 16.55 L13.0 16.75 13.0 17.0 12.95 17.05 12.65 17.2 12.65 17.25 Q12.55 17.55 12.75 17.7 L12.9 17.85 13.05 17.9 13.0 18.0 12.45 18.2 M15.9 17.35 Q15.5 18.05 14.75 17.85 14.45 17.75 14.4 17.1 L14.45 17.05 Q14.45 16.45 15.1 15.9 15.55 15.8 15.9 16.15 L16.0 16.35 16.05 16.8 16.05 16.95 15.95 17.3 15.9 17.35 M16.15 19.6 Q15.6 19.75 15.3 20.0 L14.5 20.75 15.3 20.0 Q15.6 19.75 16.15 19.6 M17.85 17.0 L17.65 16.9 17.05 17.0 16.65 17.25 16.65 16.85 16.65 16.4 Q16.8 15.9 17.4 15.8 L18.1 15.9 18.15 15.95 18.15 16.1 18.2 16.2 Q17.9 16.45 18.0 16.65 L18.4 16.7 18.7 16.7 Q18.75 16.75 18.95 16.8 L19.2 16.9 Q19.4 16.2 20.35 16.25 20.95 16.4 21.45 17.2 L21.3 17.8 21.25 17.9 20.95 18.05 20.5 18.05 20.2 18.0 20.3 18.1 20.4 18.65 20.35 19.2 19.75 20.35 Q19.75 19.8 20.0 19.4 20.35 18.85 20.15 18.2 19.6 17.45 18.8 17.05 L17.85 17.0 M18.4 18.3 L17.6 18.0 16.8 18.0 16.3 18.1 16.8 18.0 17.6 18.0 18.4 18.3 M17.05 17.0 L17.45 16.8 17.75 16.7 18.0 16.65 17.75 16.7 17.45 16.8 17.05 17.0 M20.2 18.0 L19.8 17.4 19.6 17.25 19.2 16.9 19.6 17.25 19.8 17.4 20.2 18.0 M18.1 15.25 L17.7 15.35 18.1 15.25"/><path stroke="none" fill="url(#gradient3)" d="M16.4 24.65 Q16.45 24.3 16.15 24.1 L15.4 23.5 15.15 23.25 15.15 23.2 Q14.85 22.75 14.9 22.2 L15.0 21.95 14.95 21.85 14.95 21.65 15.4 20.7 16.25 19.8 16.7 19.45 17.1 19.25 Q17.35 19.05 17.7 18.95 L17.85 18.7 17.8 18.6 17.4 18.3 16.95 18.2 17.9 18.35 Q18.75 18.9 18.55 19.5 L17.7 19.4 Q17.15 19.4 16.75 19.7 L16.3 20.15 Q15.75 20.95 15.6 21.85 L15.45 22.4 Q15.4 22.8 15.95 23.2 L16.15 23.35 16.5 23.35 16.7 23.4 16.7 23.35 17.25 23.2 17.4 23.1 17.6 22.95 17.7 22.85 18.3 21.6 18.3 21.55 18.4 20.9 Q18.45 20.15 17.95 19.75 L17.7 19.7 Q18.65 19.65 19.35 20.15 20.1 21.7 19.8 23.1 19.3 24.15 18.05 24.55 L16.4 24.65 M20.3 22.15 Q20.2 21.2 19.75 20.35 L18.95 19.65 18.9 19.55 18.95 19.1 18.55 18.45 18.4 18.3 18.75 18.3 19.0 18.05 19.05 17.8 18.85 17.5 17.85 17.0 18.8 17.05 Q19.6 17.45 20.15 18.2 20.35 18.85 20.0 19.4 19.75 19.8 19.75 20.35 L20.35 19.2 20.4 18.65 20.3 18.1 20.2 18.0 20.5 18.05 20.95 18.05 21.25 17.9 21.3 17.8 21.45 17.2 21.45 17.15 21.1 16.45 20.7 16.15 19.95 16.05 Q19.2 16.1 19.0 16.65 L18.95 16.8 Q18.75 16.75 18.7 16.7 L18.4 16.7 Q18.35 16.15 19.3 15.8 L18.65 15.95 18.2 16.2 18.15 16.1 18.15 15.95 18.1 15.9 17.7 15.55 18.7 15.35 Q19.65 15.2 20.1 15.75 L19.8 15.8 20.65 15.95 Q21.35 16.25 21.6 16.85 21.85 18.05 21.25 18.9 22.0 20.7 20.3 22.15 M13.0 17.0 L13.3 16.95 Q13.4 16.5 12.95 16.25 L13.35 16.25 Q13.8 16.5 14.6 16.0 L14.2 16.5 14.1 16.65 14.0 17.1 14.0 17.15 14.05 17.45 Q13.3 17.45 13.05 17.9 L12.9 17.85 12.75 17.7 Q12.55 17.55 12.65 17.25 L12.65 17.2 12.95 17.05 13.0 17.0 M15.9 16.15 L15.6 15.85 15.4 15.7 15.3 15.7 16.05 15.3 17.7 15.35 17.4 15.45 17.3 15.5 16.5 16.05 16.45 16.25 Q16.25 16.55 16.3 16.9 L16.45 17.5 15.95 18.2 15.4 18.45 Q14.95 18.35 14.7 18.05 L15.35 18.0 15.75 17.7 15.95 17.35 15.95 17.3 16.05 16.95 16.05 16.8 16.0 16.35 15.9 16.15 M18.9 16.3 Q19.3 15.9 19.8 15.8 19.3 15.9 18.9 16.3"/><path fill="#ead1c8" stroke="none" d="M17.6 22.95 L17.4 23.1 17.6 22.95"/><path fill="none" stroke="#cdeeb5" stroke-width="1.0" stroke-opacity="0.411764705882" d="M13.8 23.6 Q14.15 24.65 15.25 24.85 L16.25 24.95 18.1 24.9 Q19.15 24.55 20.05 23.6 L20.2 23.3 20.3 22.15 Q20.2 21.2 19.75 20.35 L18.95 19.65 18.9 19.55 18.55 19.5 M15.95 23.2 Q15.4 22.8 15.45 22.4 L15.6 21.85 Q15.75 20.95 16.3 20.15 L16.75 19.7 Q17.15 19.4 17.7 19.4 L18.55 19.5 M12.95 16.25 Q11.8 16.25 11.7 16.95 L11.65 17.35 Q11.65 17.75 12.0 18.1 L12.45 18.2 13.0 18.0 13.05 17.9 Q13.3 17.45 14.05 17.45 L14.3 17.95 M12.95 16.25 L13.35 16.25 Q13.8 16.5 14.6 16.0 L15.1 15.6 Q15.6 15.3 16.25 15.15 L16.6 15.1 18.1 15.25 18.95 15.1 Q19.95 15.0 20.4 15.75 L21.3 15.95 21.85 16.45 21.9 16.6 22.05 17.7 21.7 18.75 Q22.45 20.95 20.2 23.3 M14.05 17.45 L14.0 17.15 14.0 17.1 14.1 16.65 14.2 16.5 14.6 16.0 M14.25 21.15 L14.15 21.35 13.85 22.0 Q13.65 22.55 13.75 23.15 L13.8 23.6 M14.5 20.75 L15.3 20.0 Q15.6 19.75 16.15 19.6 M14.25 21.15 Q13.8 20.2 14.45 19.3 L14.65 19.05 15.25 18.55 Q14.65 18.4 14.3 17.95 M15.4 18.45 L15.25 18.55 M14.25 21.15 L14.5 20.75 M15.95 18.2 L16.3 18.1 16.8 18.0 17.6 18.0 18.4 18.3 18.55 18.45 18.95 19.1 18.9 19.55 M17.05 17.0 L16.65 17.25 16.45 17.5 15.95 18.2 15.4 18.45 M16.45 17.5 L16.3 16.9 Q16.25 16.55 16.45 16.25 L16.5 16.05 17.3 15.5 17.4 15.45 17.7 15.35 18.1 15.25 M18.0 16.65 L17.75 16.7 17.45 16.8 17.05 17.0 M18.95 16.8 L19.2 16.9 19.6 17.25 19.8 17.4 20.2 18.0 20.3 18.1 20.4 18.65 M18.95 16.8 Q18.75 16.75 18.7 16.7 L18.4 16.7 18.0 16.65 Q17.9 16.45 18.2 16.2 L18.65 15.95 M20.1 15.75 L19.8 15.8 Q19.3 15.9 18.9 16.3 M20.4 15.75 L20.1 15.75"/></g><g id="c10"><path fill="#302018" fill-opacity="0.501960784314" d="M0.05 9.1 Q0.25 4.6 1.35 0.65 4.3 -0.25 7.1 0.1 10.55 0.5 12.65 2.7 13.65 4.05 15.2 4.25 L16.15 4.3 Q17.85 5.9 17.85 8.6 L16.85 11.05 16.75 11.2 Q19.3 11.95 18.85 15.4 18.7 16.35 19.0 16.85 L19.05 16.95 Q22.1 18.7 23.15 21.65 L23.2 21.8 23.25 21.85 22.95 22.3 22.75 22.3 Q21.95 23.6 20.4 24.65 19.3 25.45 18.0 25.35 L17.15 25.25 Q14.75 24.75 13.05 23.55 11.2 22.25 9.95 20.3 4.1 19.0 0.3 13.9 -0.05 11.9 0.0 9.8 L0.05 9.1"/></g><g id="c11"><g><use transform="matrix(1.0,0.0,0.0,1.0,0.0,0.0)" xlink:href="#c10"/></g></g><g id="c12"><g><use transform="matrix(1.0,0.0,0.0,1.0,0.0,0.0)" xlink:href="#c5"/></g></g><linearGradient gradientUnits="userSpaceOnUse" x1="-819.2" x2="819.2" spreadMethod="pad" gradientTransform="matrix(-0.004638671875,-0.00103759765625,0.000442504882812,-0.00157165527344,23.25,33.05)" id="gradient4"><stop offset="0.0" stop-color="#e4f9d4"/><stop offset="1.0" stop-color="#c7ebad"/></linearGradient><linearGradient gradientUnits="userSpaceOnUse" x1="-819.2" x2="819.2" spreadMethod="pad" gradientTransform="matrix(-0.0008544921875,0.000152587890625,0.0001220703125,0.000656127929688,20.55,16.2)" id="gradient5"><stop offset="0.0078431372549" stop-color="#82ab10"/><stop offset="1.0" stop-color="#456609"/></linearGradient><linearGradient gradientUnits="userSpaceOnUse" x1="-819.2" x2="819.2" spreadMethod="pad" gradientTransform="matrix(-0.00115966796875,-0.000518798828125,-0.000289916992188,0.000411987304688,22.9,16.05)" id="gradient6"><stop offset="0.0078431372549" stop-color="#82ab10"/><stop offset="1.0" stop-color="#456609"/></linearGradient><linearGradient gradientUnits="userSpaceOnUse" x1="-819.2" x2="819.2" spreadMethod="pad" gradientTransform="matrix(-0.00112915039062,0.00018310546875,-1.52587890625e-05,0.000381469726562,23.2,15.45)" id="gradient7"><stop offset="0.0078431372549" stop-color="#82ab10"/><stop offset="1.0" stop-color="#456609"/></linearGradient><linearGradient gradientUnits="userSpaceOnUse" x1="-819.2" x2="819.2" spreadMethod="pad" gradientTransform="matrix(-0.00100708007812,-0.000457763671875,-0.000381469726562,0.000274658203125,23.4,17.05)" id="gradient8"><stop offset="0.0078431372549" stop-color="#82ab10"/><stop offset="1.0" stop-color="#456609"/></linearGradient><linearGradient gradientUnits="userSpaceOnUse" x1="-819.2" x2="819.2" spreadMethod="pad" gradientTransform="matrix(-0.000335693359375,-0.0006103515625,-0.0006103515625,0.000167846679688,24.65,19.35)" id="gradient9"><stop offset="0.0078431372549" stop-color="#82ab10"/><stop offset="1.0" stop-color="#456609"/></linearGradient><linearGradient gradientUnits="userSpaceOnUse" x1="-819.2" x2="819.2" spreadMethod="pad" gradientTransform="matrix(-0.00018310546875,-0.00103759765625,-0.000869750976562,7.62939453125e-05,22.8,21.2)" id="gradient10"><stop offset="0.0078431372549" stop-color="#82ab10"/><stop offset="1.0" stop-color="#456609"/></linearGradient><linearGradient gradientUnits="userSpaceOnUse" x1="-819.2" x2="819.2" spreadMethod="pad" gradientTransform="matrix(-0.000778198242188,-0.000228881835938,-0.000289916992188,0.000411987304688,26.05,16.4)" id="gradient11"><stop offset="0.0078431372549" stop-color="#82ab10"/><stop offset="1.0" stop-color="#456609"/></linearGradient><g id="c13"><path stroke="none" fill="url(#gradient4)" d="M21.9 23.2 L21.95 23.65 21.95 23.7 21.95 23.85 21.9 24.05 21.85 24.35 21.85 24.4 21.75 24.75 21.7 24.8 21.65 25.0 21.3 25.4 21.1 25.6 20.75 25.85 20.4 25.95 19.95 26.0 19.85 26.0 19.4 26.0 18.95 25.9 18.5 25.65 18.1 25.3 17.95 25.05 18.75 25.1 19.8 24.4 20.25 23.5 20.3 23.2 20.6 21.8 20.8 21.65 21.25 21.8 21.55 22.4 21.75 22.75 21.75 22.95 21.9 23.2 21.75 22.95 22.15 23.15 22.55 23.4 23.0 23.5 23.25 23.45 23.35 23.4 Q23.85 23.1 24.0 22.45 L24.05 22.0 24.1 21.95 24.1 21.75 24.15 21.65 24.1 21.45 23.95 20.45 23.9 20.35 23.8 20.25 23.7 20.1 23.45 19.8 23.25 19.55 23.55 19.6 23.75 19.75 23.95 19.85 24.6 20.35 24.65 20.4 25.2 21.6 25.25 22.15 Q25.35 23.0 25.05 23.9 L24.7 24.15 24.6 24.2 24.2 24.15 23.65 24.15 23.2 24.25 22.95 24.4 22.8 24.55 22.05 23.65 21.9 23.2 M24.4 18.45 L24.25 18.25 24.25 18.15 24.25 18.05 24.25 17.8 24.35 17.8 Q24.65 17.4 25.25 17.35 L26.05 17.25 26.45 17.3 26.7 17.25 26.95 17.15 27.05 17.1 27.15 17.0 27.15 16.9 27.2 16.9 27.25 16.75 Q28.7 17.4 28.15 18.45 L28.1 18.55 28.0 18.45 27.65 18.25 Q26.9 17.8 26.1 17.9 L25.6 17.9 25.3 18.0 24.85 18.15 24.4 18.45 M26.55 20.65 L26.1 20.25 26.7 21.4 26.9 21.85 27.1 22.35 27.05 22.4 Q27.5 24.2 26.35 25.5 25.75 26.05 25.25 26.1 L25.4 26.0 26.05 25.3 26.3 24.95 26.6 23.55 26.65 23.25 26.45 22.35 26.35 21.95 26.25 21.8 25.8 20.8 25.75 20.15 Q25.85 19.85 26.2 20.0 L26.75 20.4 27.0 20.6 27.05 20.7 27.45 20.9 27.8 20.9 28.05 20.8 28.2 20.15 28.1 19.9 27.35 18.75 26.8 18.25 27.3 18.35 Q28.75 19.15 29.25 20.6 L29.4 20.95 29.0 22.15 Q28.7 22.45 28.3 22.55 L27.55 22.75 27.5 22.45 27.4 22.1 27.35 22.05 27.35 21.95 27.0 21.3 26.55 20.65 M26.1 17.9 L26.1 17.85 26.1 17.9"/><path fill="#f3fce9" stroke="none" d="M21.25 21.8 L20.8 21.65 20.6 21.8 20.3 23.2 20.25 23.5 19.8 24.4 18.75 25.1 17.95 25.05 18.1 25.3 18.5 25.65 18.95 25.9 19.4 26.0 19.85 26.0 19.95 26.0 20.4 25.95 20.75 25.85 21.1 25.6 21.3 25.4 21.65 25.0 21.7 24.8 21.75 24.75 21.85 24.4 21.85 24.35 21.9 24.05 21.95 23.85 21.95 23.7 21.95 23.65 21.9 23.2 22.05 23.65 22.8 24.55 22.6 24.9 22.3 24.65 22.05 24.3 21.95 25.0 21.7 25.5 Q20.85 26.5 19.45 26.45 18.7 26.45 18.25 26.0 L17.55 24.95 17.45 24.65 17.45 24.15 17.5 23.85 Q17.5 23.45 17.65 23.05 L17.9 22.8 17.95 22.75 18.25 22.75 18.85 23.05 19.1 23.35 19.2 23.4 19.5 23.3 19.6 23.1 19.65 22.4 19.85 21.1 19.9 21.05 20.45 20.25 20.95 19.8 21.1 19.75 21.75 19.6 22.15 19.6 Q22.6 19.7 23.0 20.0 L23.65 20.75 23.75 21.0 23.8 21.05 23.95 21.45 24.0 21.65 24.1 21.95 24.05 22.0 24.0 22.45 Q23.85 23.1 23.35 23.4 L23.25 23.45 23.0 23.5 22.55 23.4 22.15 23.15 21.75 22.95 21.75 22.75 21.55 22.4 21.25 21.8 M22.2 19.0 L22.25 19.05 22.75 19.05 23.55 19.25 23.85 19.4 23.85 19.45 24.0 19.5 24.05 19.55 24.35 19.1 24.4 18.95 24.5 18.85 24.7 18.7 Q25.3 18.3 26.0 18.25 L26.55 18.45 27.0 18.95 27.75 19.95 27.85 20.55 27.45 20.9 27.05 20.7 27.0 20.6 26.75 20.4 26.2 20.0 Q25.85 19.85 25.75 20.15 L25.8 20.8 26.25 21.8 26.35 21.95 26.45 22.35 26.65 23.25 26.6 23.55 26.3 24.95 26.05 25.3 25.4 26.0 25.25 26.1 Q25.75 26.05 26.35 25.5 27.5 24.2 27.05 22.4 L27.1 22.35 26.9 21.85 26.7 21.4 26.1 20.25 26.55 20.65 27.0 21.3 27.35 21.95 27.35 22.05 27.4 22.1 27.5 22.45 27.55 22.75 27.6 23.1 27.55 22.75 28.3 22.55 Q28.7 22.45 29.0 22.15 L29.4 20.95 29.25 20.6 Q28.75 19.15 27.3 18.35 L26.8 18.25 26.75 18.2 26.1 17.9 Q26.9 17.8 27.65 18.25 L28.0 18.45 28.1 18.55 28.15 18.45 Q28.7 17.4 27.25 16.75 L27.2 16.9 27.15 16.9 27.15 17.0 27.05 17.1 26.95 17.15 26.3 17.2 26.05 17.2 25.6 17.2 24.8 17.05 24.9 17.05 25.45 16.7 26.35 16.45 26.45 16.45 26.9 16.45 27.1 16.45 27.25 16.5 27.45 16.55 27.65 16.6 27.7 16.65 27.8 16.75 27.95 16.8 28.45 17.35 28.55 17.55 28.65 17.9 28.65 18.3 28.6 18.35 28.35 18.8 28.45 18.9 29.45 20.25 29.5 20.5 Q29.85 21.5 29.35 22.2 L29.25 22.3 28.85 22.7 28.4 22.9 28.3 22.9 27.6 23.1 27.45 24.3 Q27.3 25.05 26.75 25.55 L26.05 26.1 24.6 26.35 Q24.15 26.3 23.75 25.95 L23.15 25.5 23.1 25.05 23.2 24.8 23.5 24.6 23.6 24.6 24.4 24.6 24.95 24.5 25.2 24.1 25.25 23.65 25.05 23.9 Q25.35 23.0 25.25 22.15 L25.2 21.6 24.65 20.4 24.6 20.35 23.95 19.85 23.75 19.75 23.55 19.6 23.25 19.55 23.1 19.45 22.2 19.0 M22.05 24.3 L22.05 24.1 22.05 23.65 22.05 24.1 22.05 24.3 M25.45 23.35 L25.65 22.2 25.55 21.85 25.6 21.8 25.55 21.7 25.05 20.45 24.5 19.85 24.35 19.7 24.05 19.55 24.35 19.7 24.5 19.85 25.05 20.45 25.55 21.7 25.6 21.8 25.55 21.85 25.65 22.2 25.45 23.35 M28.35 18.8 L28.1 18.55 28.35 18.8"/><path fill="#fffff7" stroke="none" d="M17.65 23.05 L17.7 22.75 17.8 22.5 17.85 22.45 18.0 22.3 18.4 22.2 Q18.8 22.3 19.0 22.55 19.1 22.75 19.3 22.8 19.1 21.75 19.35 21.05 L19.55 20.65 20.1 19.85 20.2 19.7 20.9 19.3 21.3 19.2 22.1 19.05 22.2 19.0 23.1 19.45 23.25 19.55 23.45 19.8 23.7 20.1 23.8 20.25 23.9 20.35 23.95 20.45 24.1 21.45 24.15 21.65 24.1 21.75 24.1 21.95 24.0 21.65 23.95 21.45 23.8 21.05 23.75 21.0 23.65 20.75 23.0 20.0 Q22.6 19.7 22.15 19.6 L21.75 19.6 21.1 19.75 20.95 19.8 20.45 20.25 19.9 21.05 19.85 21.1 19.65 22.4 19.6 23.1 19.5 23.3 19.2 23.4 19.1 23.35 18.85 23.05 18.25 22.75 17.95 22.75 17.9 22.8 17.65 23.05 M23.85 19.45 L23.95 19.15 24.1 18.8 24.1 18.75 24.4 18.45 24.85 18.15 25.3 18.0 25.6 17.9 26.1 17.9 26.75 18.2 26.8 18.25 27.35 18.75 28.1 19.9 28.2 20.15 28.05 20.8 27.8 20.9 27.45 20.9 27.85 20.55 27.75 19.95 27.0 18.95 26.55 18.45 26.0 18.25 Q25.3 18.3 24.7 18.7 L24.5 18.85 24.4 18.95 24.35 19.1 24.05 19.55 24.0 19.5 23.85 19.45 M24.25 17.8 L24.35 17.35 24.5 17.15 24.6 16.95 25.0 16.7 26.0 16.4 26.15 16.4 26.45 16.4 26.9 16.45 26.45 16.45 26.35 16.45 25.45 16.7 24.9 17.05 24.8 17.05 25.6 17.2 26.05 17.2 26.3 17.2 26.95 17.15 26.7 17.25 26.45 17.3 26.05 17.25 25.25 17.35 Q24.65 17.4 24.35 17.8 L24.25 17.8 M23.15 25.5 L23.0 25.4 22.6 24.9 22.8 24.55 22.95 24.4 23.2 24.25 23.65 24.15 24.2 24.15 24.6 24.2 24.7 24.15 25.05 23.9 25.25 23.65 25.2 24.1 24.95 24.5 24.4 24.6 23.6 24.6 23.5 24.6 23.2 24.8 23.1 25.05 23.15 25.5"/><path fill="none" stroke="#cdeeb5" stroke-width="1.0" stroke-opacity="0.411764705882" d="M21.9 23.2 L21.75 22.95 21.75 22.75 21.55 22.4 21.25 21.8 M22.6 24.9 L22.3 24.65 22.05 24.3 21.95 25.0 21.7 25.5 Q20.85 26.5 19.45 26.45 18.7 26.45 18.25 26.0 L17.55 24.95 17.45 24.65 17.45 24.15 17.5 23.85 Q17.5 23.45 17.65 23.05 L17.7 22.75 17.8 22.5 M19.3 22.8 Q19.1 21.75 19.35 21.05 L19.55 20.65 20.1 19.85 20.2 19.7 20.9 19.3 21.3 19.2 22.1 19.05 22.2 19.0 M22.25 19.05 L22.75 19.05 23.55 19.25 23.85 19.4 23.85 19.45 23.95 19.15 24.1 18.8 24.1 18.75 24.4 18.45 24.25 18.25 24.25 18.15 24.25 18.05 24.25 17.8 24.35 17.35 24.5 17.15 24.6 16.95 25.0 16.7 26.0 16.4 26.15 16.4 26.45 16.4 26.9 16.45 27.1 16.45 27.25 16.5 27.45 16.55 27.65 16.6 27.7 16.65 27.8 16.75 27.95 16.8 28.45 17.35 28.55 17.55 28.65 17.9 28.65 18.3 28.6 18.35 28.35 18.8 28.45 18.9 29.45 20.25 29.5 20.5 Q29.85 21.5 29.35 22.2 L29.25 22.3 28.85 22.7 28.4 22.9 28.3 22.9 27.6 23.1 27.45 24.3 Q27.3 25.05 26.75 25.55 L26.05 26.1 24.6 26.35 Q24.15 26.3 23.75 25.95 L23.15 25.5 23.0 25.4 22.6 24.9 M22.05 23.65 L22.05 24.1 22.05 24.3 M24.05 19.55 L24.35 19.7 24.5 19.85 25.05 20.45 25.55 21.7 25.6 21.8 25.55 21.85 25.65 22.2 25.45 23.35 M22.05 23.65 L21.9 23.2 M27.6 23.1 L27.55 22.75 27.5 22.45 27.4 22.1 27.35 22.05 27.35 21.95 27.0 21.3 26.55 20.65 M26.1 17.9 Q26.9 17.8 27.65 18.25 L28.0 18.45 28.1 18.55 28.35 18.8 M26.1 17.9 L25.6 17.9 25.3 18.0 24.85 18.15 24.4 18.45 M23.85 19.45 L24.0 19.5 24.05 19.55"/><path fill="none" stroke="#ccff00" stroke-width="2.0" stroke-opacity="0.321568627451" d="M22.05 24.3 L21.95 25.0 21.7 25.5 Q20.85 26.5 19.4 26.45 18.7 26.45 18.3 26.0 L17.55 25.0 16.25 24.95 15.25 24.85 Q14.15 24.65 13.8 23.6 L13.75 23.15 Q13.65 22.55 13.85 22.0 L14.15 21.35 14.25 21.15 Q13.8 20.2 14.45 19.3 L14.65 19.05 15.25 18.55 Q14.65 18.4 14.3 17.95 L14.05 17.45 Q13.3 17.45 13.05 17.9 L13.0 18.0 12.45 18.2 12.0 18.1 Q11.65 17.75 11.65 17.35 L11.7 16.95 Q11.8 16.25 12.95 16.25 L13.35 16.25 Q13.8 16.5 14.6 16.0 L15.1 15.6 Q15.6 15.3 16.25 15.15 L16.6 15.1 18.1 15.25 18.95 15.1 Q19.95 15.0 20.4 15.7 L20.4 15.75 21.3 15.95 21.85 16.45 21.9 16.6 22.05 17.7 21.7 18.75 21.75 19.05 22.1 19.05 22.2 19.0 22.25 19.05 22.75 19.05 23.55 19.25 23.85 19.4 23.85 19.45 23.95 19.15 24.1 18.8 24.15 18.75 24.4 18.45 24.25 18.3 24.3 18.15 24.25 18.05 24.25 17.8 24.4 17.35 24.5 17.15 24.65 16.95 25.0 16.7 26.0 16.4 26.2 16.35 26.45 16.4 26.9 16.45 27.05 16.45 27.25 16.5 27.45 16.5 27.65 16.6 27.7 16.65 27.8 16.75 27.95 16.8 28.45 17.35 28.55 17.55 28.65 17.9 28.65 18.3 28.6 18.35 28.35 18.8 28.45 18.9 29.45 20.25 29.5 20.5 Q29.85 21.5 29.35 22.2 L29.25 22.3 28.9 22.7 28.45 22.9 28.3 22.9 27.55 23.1 27.45 24.3 Q27.3 25.05 26.75 25.55 L26.05 26.1 24.6 26.35 Q24.15 26.3 23.75 25.95 L23.2 25.5 23.05 25.4 22.6 24.9 22.3 24.6 22.05 24.3"/><path fill="#5a7d0c" stroke="none" d="M19.35 16.5 L19.35 16.65 19.45 16.6 20.3 16.15 20.85 16.75 20.9 16.85 20.85 16.95 20.85 17.0 Q20.85 17.6 21.8 17.8 22.5 17.95 22.5 18.2 L22.2 18.45 Q21.55 18.8 21.5 19.35 L21.6 19.9 21.95 20.35 Q22.25 20.95 21.85 22.55 20.6 24.0 21.1 25.05 21.35 25.65 21.9 25.35 L21.45 24.95 Q21.0 23.9 22.1 22.55 L22.2 22.5 22.15 22.45 Q22.55 20.95 22.3 20.35 L22.3 20.3 21.95 19.85 21.85 19.3 Q21.9 18.75 22.6 18.3 L22.7 18.3 Q23.2 17.9 22.2 17.7 21.25 17.55 21.25 16.85 L21.25 16.7 21.25 16.85 21.25 16.75 21.25 16.7 20.5 15.95 19.35 16.5 M21.6 15.85 L21.65 15.9 21.7 15.9 22.1 16.15 22.3 16.25 23.05 16.75 23.2 16.7 23.45 16.8 22.35 16.05 22.2 15.95 21.65 15.75 21.6 15.85 M24.75 16.4 L24.3 16.25 Q23.95 16.05 23.9 15.65 L23.9 15.6 23.3 15.65 23.05 15.8 22.75 15.9 22.35 15.9 22.25 15.8 22.1 15.95 22.2 15.95 22.35 16.05 23.0 16.0 23.2 15.85 23.25 15.85 Q23.6 15.55 23.75 15.7 L23.85 15.8 23.9 16.15 24.05 16.4 24.25 16.45 24.5 16.55 24.6 16.6 24.7 16.6 25.1 16.55 Q25.65 16.6 26.55 17.3 27.05 18.35 28.0 18.4 28.55 18.45 28.45 18.1 L28.25 18.2 28.05 18.2 Q27.15 18.1 26.65 17.15 L26.6 17.1 26.55 17.05 Q25.7 16.45 25.2 16.4 L25.15 16.35 24.75 16.4 M22.75 15.9 L23.0 16.0 22.75 15.9 M23.25 17.3 L23.35 17.4 Q23.7 17.45 23.7 17.55 L23.6 17.8 23.6 17.9 23.85 17.65 23.85 17.55 23.95 17.5 23.8 17.3 23.35 17.3 23.25 17.3 M23.65 18.6 L23.55 18.8 23.8 19.0 Q24.2 19.3 24.25 20.35 L24.0 20.85 23.9 21.25 Q23.9 21.7 24.2 22.05 24.6 22.3 24.85 22.05 L24.65 22.0 24.5 21.9 24.3 21.7 24.2 21.45 24.2 21.25 Q24.15 20.85 24.4 20.25 L24.45 20.25 24.45 20.2 Q24.45 19.25 24.05 18.9 L23.7 18.65 23.65 18.6 M21.25 16.75 L21.3 16.75 21.25 16.75 M24.55 17.9 L24.45 18.1 26.1 19.1 Q26.8 19.25 26.7 18.85 L26.15 18.8 24.55 17.9"/><path stroke="none" fill="url(#gradient5)" d="M19.35 16.5 L20.5 15.95 21.25 16.7 Q21.15 16.1 21.3 15.9 L21.6 15.9 21.65 15.9 21.6 15.85 21.55 15.85 20.75 15.7 20.4 15.75 Q19.6 16.0 19.35 16.5 M20.75 15.7 L21.3 15.9 20.75 15.7"/><path fill="#90bd12" stroke="none" d="M21.25 16.85 Q21.25 17.55 22.2 17.7 23.2 17.9 22.7 18.3 L23.25 18.25 23.3 18.25 23.5 18.35 23.55 18.5 23.5 18.7 23.45 18.85 23.5 18.85 23.45 18.9 23.4 19.0 23.55 18.8 23.65 18.6 23.6 17.9 23.65 18.6 23.7 18.65 Q24.1 18.95 24.2 18.5 L24.25 18.45 24.25 18.4 24.05 18.6 24.0 18.7 24.0 18.65 24.05 18.55 24.15 18.25 24.35 18.0 24.5 17.85 24.6 17.8 24.6 17.7 24.35 17.5 24.15 17.5 23.95 17.55 23.85 17.55 23.85 17.65 23.6 17.9 23.6 17.8 23.35 17.4 23.25 17.3 22.95 16.9 22.85 16.8 22.1 16.2 22.1 16.15 22.1 16.2 22.85 16.8 22.6 16.5 22.3 16.25 22.1 16.15 21.7 15.9 21.65 15.9 21.6 15.9 21.3 15.9 Q21.15 16.1 21.25 16.7 L21.25 16.75 21.25 16.85 M22.15 22.45 L22.2 22.5 22.1 22.55 Q21.0 23.9 21.45 24.95 L21.9 25.35 22.95 24.15 23.4 23.2 Q23.45 22.0 23.1 21.85 23.15 23.25 21.7 25.1 23.15 23.25 23.1 21.85 22.75 21.7 22.15 22.45 M23.9 15.6 L23.9 15.65 Q23.95 16.05 24.3 16.25 L24.75 16.4 Q25.3 16.4 25.0 16.0 L24.9 16.0 24.95 16.25 Q24.7 16.15 24.6 15.7 L24.15 15.3 24.6 15.7 Q24.7 16.15 24.95 16.25 L24.9 16.15 24.75 15.9 24.6 15.6 24.55 15.45 24.65 15.4 24.15 15.3 23.9 15.6 M26.55 17.05 L26.6 17.1 26.65 17.15 Q27.15 18.1 28.05 18.2 L28.25 18.2 28.45 18.1 28.1 17.25 27.65 16.7 26.55 16.45 Q26.35 16.6 26.55 17.05 M24.5 16.55 L24.25 16.45 24.05 16.4 23.6 16.3 Q23.35 16.3 23.7 16.9 L24.3 17.2 24.4 17.05 24.65 17.15 25.25 17.7 25.75 18.25 25.75 18.3 25.75 18.4 25.4 18.35 25.45 18.25 25.5 18.25 25.45 18.2 24.8 17.85 24.6 17.75 24.6 17.9 24.55 17.9 26.15 18.8 26.7 18.85 25.95 17.7 25.15 16.9 24.5 16.55 M23.2 17.85 L23.3 18.15 23.3 18.25 23.3 18.15 23.2 17.85 M21.9 16.9 L21.9 16.95 21.8 16.95 21.75 16.95 21.7 16.85 21.9 16.9 M21.85 16.55 L22.0 16.65 21.95 16.65 21.85 16.65 21.65 16.65 21.65 16.55 21.85 16.55 M24.0 17.75 L24.2 17.7 24.25 17.8 24.1 18.2 23.8 18.6 23.75 18.55 23.75 18.15 23.85 17.9 24.0 17.75 M22.3 17.2 L22.55 17.2 22.6 17.3 22.65 17.35 22.55 17.35 22.5 17.35 22.35 17.35 22.25 17.25 22.3 17.2 M21.3 15.9 Q22.0 16.25 22.55 16.85 L22.9 17.25 22.95 17.45 23.1 17.65 22.95 17.45 22.9 17.25 22.55 16.85 Q22.0 16.25 21.3 15.9 M21.3 16.75 L21.25 16.75 21.3 16.75 M24.35 17.5 Q24.5 17.75 24.25 18.0 23.9 18.45 24.0 18.65 23.9 18.45 24.25 18.0 24.5 17.75 24.35 17.5 M24.45 20.2 L24.45 20.25 24.4 20.25 Q24.15 20.85 24.2 21.25 L24.2 21.45 24.3 21.7 24.5 21.9 24.65 22.0 24.85 22.05 25.05 21.85 25.1 21.75 25.2 21.6 25.25 21.5 25.25 21.45 25.4 21.15 25.45 21.05 25.3 21.15 25.15 21.2 25.1 21.1 25.1 20.75 25.25 20.35 25.4 20.4 25.5 20.75 25.45 20.85 25.55 20.5 Q25.25 19.75 24.95 19.7 24.65 19.7 24.45 20.2 M24.55 21.65 L24.4 21.65 24.3 21.6 24.4 21.15 24.7 20.8 Q24.8 20.7 24.85 20.9 L24.85 21.25 24.75 21.55 24.55 21.65 M22.05 23.25 L22.6 22.6 Q22.8 22.4 22.75 22.85 L22.45 23.65 22.1 24.35 21.8 24.65 21.45 24.7 Q21.35 24.7 21.4 24.5 L21.95 23.5 21.9 23.5 21.8 23.5 Q21.75 23.3 22.0 23.25 L22.05 23.25 M23.0 23.2 L23.1 23.3 23.1 23.6 23.05 23.85 22.9 23.95 22.75 23.95 22.7 23.85 22.8 23.5 23.0 23.2 M22.9 23.1 L22.9 23.05 23.0 23.0 23.05 23.05 23.1 23.05 23.05 23.15 22.9 23.1 M21.55 23.75 L21.7 23.75 21.7 23.8 21.65 23.8 21.55 23.8 21.55 23.75 M24.4 15.55 L24.6 15.9 24.75 16.25 24.6 16.3 24.35 16.05 24.15 15.8 24.2 15.65 24.25 15.55 24.4 15.55 M27.45 16.75 L27.8 16.95 28.0 17.15 28.0 17.25 27.95 17.45 27.8 17.4 27.55 17.1 27.35 16.8 Q27.3 16.7 27.45 16.75 M25.0 17.05 L25.0 16.9 25.1 17.0 25.35 17.15 25.65 17.55 26.0 18.0 26.0 18.1 25.4 17.6 25.0 17.05 M28.25 18.2 Q27.55 16.9 26.55 16.45 27.55 16.9 28.25 18.2 M26.25 18.15 L26.25 18.2 26.2 18.25 26.1 18.3 Q26.0 18.2 26.15 18.15 L26.2 18.15 26.25 18.15 M26.3 18.35 L26.25 18.45 26.15 18.5 26.15 18.35 26.3 18.35 M27.5 17.3 L27.8 17.55 27.95 17.8 27.9 17.95 27.85 18.1 27.7 18.05 27.4 17.75 27.3 17.35 27.5 17.3 M23.6 16.3 Q25.1 17.1 26.35 18.8 25.1 17.1 23.6 16.3 M24.95 19.7 Q25.3 20.55 24.65 22.0 25.3 20.55 24.95 19.7"/><path fill="#000000" fill-opacity="0.301960784314" d="M20.85 16.95 L20.9 16.85 20.85 16.75 20.3 16.15 19.45 16.6 Q20.55 16.4 20.85 16.95"/><path stroke="none" fill="url(#gradient6)" d="M24.7 16.6 L24.6 16.6 24.5 16.55 25.15 16.9 24.7 16.6 M24.05 16.4 L23.9 16.15 23.2 15.85 23.0 16.0 22.35 16.05 23.45 16.8 23.7 16.9 Q23.35 16.3 23.6 16.3 L24.05 16.4 M21.85 15.55 L21.65 15.75 22.2 15.95 22.1 15.95 22.25 15.8 22.3 15.8 22.2 15.8 22.25 15.8 21.95 15.55 21.9 15.55 21.85 15.55 M22.2 15.8 L22.25 15.8 22.2 15.8 M23.0 16.0 L23.6 16.3 23.0 16.0"/><path stroke="none" fill="url(#gradient7)" d="M22.75 15.9 L23.05 15.8 23.3 15.65 23.9 15.6 24.15 15.3 24.65 15.4 21.85 15.5 21.95 15.55 22.25 15.8 22.2 15.8 22.3 15.8 22.25 15.8 22.35 15.9 22.75 15.9 M23.8 15.2 L24.15 15.3 23.8 15.2"/><path fill="#60940d" stroke="none" d="M21.85 16.55 L21.65 16.55 21.65 16.65 21.85 16.65 21.95 16.65 22.0 16.65 21.85 16.55 M21.9 16.9 L21.7 16.85 21.75 16.95 21.8 16.95 21.9 16.95 21.9 16.9 M22.3 17.2 L22.25 17.25 22.35 17.35 22.5 17.35 22.55 17.35 22.65 17.35 22.6 17.3 22.55 17.2 22.3 17.2 M21.95 23.5 L22.1 23.4 22.15 23.3 22.05 23.25 22.0 23.25 Q21.75 23.3 21.8 23.5 L21.9 23.5 21.95 23.5 M21.95 23.8 Q21.95 23.7 21.8 23.75 L21.8 23.8 21.8 23.85 21.85 23.9 21.95 23.8 M21.55 23.75 L21.55 23.8 21.65 23.8 21.7 23.8 21.7 23.75 21.55 23.75 M22.9 23.1 L23.05 23.15 23.1 23.05 23.05 23.05 23.0 23.0 22.9 23.05 22.9 23.1 M25.75 18.3 L25.55 18.3 25.5 18.25 25.45 18.25 25.4 18.35 25.75 18.4 25.75 18.3 M24.8 17.85 L24.9 17.85 25.0 17.85 25.0 17.8 24.85 17.75 24.85 17.8 24.8 17.85 M26.3 18.35 L26.15 18.35 26.15 18.5 26.25 18.45 26.3 18.35 M26.25 18.15 L26.2 18.15 26.15 18.15 Q26.0 18.2 26.1 18.3 L26.2 18.25 26.25 18.2 26.25 18.15"/><path stroke="none" fill="url(#gradient8)" d="M22.85 16.8 L22.95 16.9 23.25 17.3 23.35 17.3 23.8 17.3 23.95 17.5 23.85 17.55 23.95 17.55 24.15 17.5 24.35 17.5 24.3 17.45 24.25 17.25 24.3 17.2 23.7 16.9 23.45 16.8 23.2 16.7 23.05 16.75 22.85 16.8 M24.6 17.8 L24.6 17.9 24.6 17.75 24.6 17.7 24.6 17.8 M24.15 17.2 L24.3 17.45 24.15 17.2"/><path fill="#b5cf14" stroke="none" d="M24.95 16.25 L24.9 16.0 24.9 15.8 24.7 15.45 24.65 15.4 24.55 15.45 24.6 15.6 24.75 15.9 24.9 16.15 24.95 16.25 M23.45 18.9 L23.5 18.85 23.45 18.85 23.5 18.7 23.4 18.7 23.35 18.75 Q23.25 18.75 23.1 18.9 L23.15 18.9 22.95 19.05 22.95 19.1 22.8 19.2 22.5 19.7 22.5 19.8 23.05 19.35 23.15 19.2 23.45 18.9 M24.0 17.75 L23.85 17.9 23.75 18.15 23.75 18.55 23.8 18.6 24.1 18.2 24.25 17.8 24.2 17.7 24.0 17.75 M22.15 19.5 Q22.05 19.75 22.25 19.7 L22.7 19.15 23.1 18.65 23.05 18.5 22.85 18.5 22.6 18.65 22.3 19.0 22.15 19.5 M24.6 17.8 L24.5 17.85 24.35 18.0 24.15 18.25 24.05 18.55 24.0 18.65 24.0 18.7 24.05 18.6 24.25 18.4 24.35 18.25 24.45 18.1 24.55 17.9 24.6 17.9 24.6 17.8 M24.35 17.5 L24.6 17.7 24.6 17.75 24.8 17.85 25.45 18.2 25.5 18.25 25.55 18.3 25.75 18.3 25.75 18.25 25.25 17.7 24.65 17.15 24.4 17.05 24.3 17.2 24.25 17.25 24.3 17.45 24.35 17.5 M24.55 21.65 L24.75 21.55 24.85 21.25 24.85 20.9 Q24.8 20.7 24.7 20.8 L24.4 21.15 24.3 21.6 24.4 21.65 24.55 21.65 M21.95 23.5 L21.4 24.5 Q21.35 24.7 21.45 24.7 L21.8 24.65 22.1 24.35 22.45 23.65 22.75 22.85 Q22.8 22.4 22.6 22.6 L22.05 23.25 22.15 23.3 22.1 23.4 21.95 23.5 M23.0 23.2 L22.8 23.5 22.7 23.85 22.75 23.95 22.9 23.95 23.05 23.85 23.1 23.6 23.1 23.3 23.0 23.2 M21.95 23.8 L21.85 23.9 21.8 23.85 21.8 23.8 21.8 23.75 Q21.95 23.7 21.95 23.8 M25.45 21.05 L25.45 21.0 25.45 20.85 25.5 20.75 25.4 20.4 25.25 20.35 25.1 20.75 25.1 21.1 25.15 21.2 25.3 21.15 25.45 21.05 25.45 20.85 25.45 21.05 M24.4 15.55 L24.25 15.55 24.2 15.65 24.15 15.8 24.35 16.05 24.6 16.3 24.75 16.25 24.6 15.9 24.4 15.55 M27.45 16.75 Q27.3 16.7 27.35 16.8 L27.55 17.1 27.8 17.4 27.95 17.45 28.0 17.25 28.0 17.15 27.8 16.95 27.45 16.75 M24.8 17.85 L24.85 17.8 24.85 17.75 25.0 17.8 25.0 17.85 24.9 17.85 24.8 17.85 M25.0 17.05 L25.4 17.6 26.0 18.1 26.0 18.0 25.65 17.55 25.35 17.15 25.1 17.0 25.0 16.9 25.0 17.05 M27.5 17.3 L27.3 17.35 27.4 17.75 27.7 18.05 27.85 18.1 27.9 17.95 27.95 17.8 27.8 17.55 27.5 17.3 M25.25 21.5 L25.2 21.6 25.3 21.55 25.25 21.5 M27.25 25.25 L26.95 25.1 26.8 25.15 26.9 25.4 27.15 25.55 27.3 25.55 27.4 25.5 27.45 25.4 27.25 25.25"/><path fill="#7cad10" stroke="none" d="M22.7 18.3 L22.6 18.3 Q21.9 18.75 21.85 19.3 L21.95 19.85 Q22.35 20.45 22.7 19.75 L22.75 19.7 23.05 19.35 22.5 19.8 22.5 19.7 22.8 19.2 22.95 19.1 22.95 19.05 23.15 18.9 23.1 18.9 Q23.25 18.75 23.35 18.75 L23.4 18.7 23.5 18.7 23.55 18.5 23.5 18.35 23.3 18.25 23.35 18.6 23.1 18.9 23.35 18.6 23.3 18.25 23.25 18.25 22.7 18.3 M23.4 19.0 L23.45 18.9 23.15 19.2 23.35 19.0 23.4 19.0 M22.15 19.5 L22.3 19.0 22.6 18.65 22.85 18.5 23.05 18.5 23.1 18.65 22.7 19.15 22.25 19.7 Q22.05 19.75 22.15 19.5 M22.3 20.0 Q22.3 19.6 22.95 19.1 22.3 19.6 22.3 20.0"/><path stroke="none" fill="url(#gradient9)" d="M23.7 18.65 L24.05 18.9 Q24.45 19.25 24.45 20.2 24.65 19.7 24.95 19.7 25.25 19.75 25.55 20.5 25.55 19.55 24.4 18.85 L24.4 18.8 24.2 18.5 Q24.1 18.95 23.7 18.65 M24.55 19.15 L24.95 19.7 24.55 19.15"/><path fill="#55730b" stroke="none" d="M23.9 21.25 L24.0 20.85 23.65 19.25 23.3 19.5 23.9 21.25 M25.05 21.85 L25.05 21.9 25.2 22.15 25.2 23.95 Q25.05 25.15 25.5 25.8 L25.85 26.15 27.25 26.05 27.5 25.7 Q27.2 26.15 26.95 26.0 L26.95 25.8 26.85 25.55 26.7 25.1 Q26.5 25.15 26.75 25.6 L26.85 25.85 26.85 26.05 26.8 26.15 26.4 26.05 26.3 26.0 26.1 26.2 25.9 26.1 25.55 25.7 Q25.2 25.1 25.25 23.8 L25.3 22.0 25.2 21.75 25.1 21.75 25.05 21.85"/><path stroke="none" fill="url(#gradient10)" d="M21.95 19.85 L22.3 20.3 22.3 20.35 Q22.55 20.95 22.15 22.45 22.75 21.7 23.1 21.85 23.45 22.0 23.4 23.2 23.9 21.75 22.8 20.35 L22.85 20.35 22.75 20.35 22.75 20.3 Q22.55 20.1 22.7 19.75 22.35 20.45 21.95 19.85 M22.85 20.8 L23.1 21.85 22.85 20.8"/><path fill="#8db311" stroke="none" d="M27.5 25.7 Q27.65 25.3 27.1 25.15 L26.7 25.1 26.85 25.55 26.95 25.8 26.95 26.0 Q27.2 26.15 27.5 25.7 M26.3 26.0 Q25.7 25.7 25.6 25.3 25.45 24.4 25.6 22.75 L25.45 21.6 25.35 21.55 25.25 21.45 25.25 21.5 25.3 21.55 25.2 21.6 25.1 21.75 25.2 21.75 25.3 22.0 25.25 23.8 Q25.2 25.1 25.55 25.7 L25.9 26.1 26.1 26.2 26.3 26.0 M27.25 25.25 L27.45 25.4 27.4 25.5 27.3 25.55 27.15 25.55 26.9 25.4 26.8 25.15 26.95 25.1 27.25 25.25 M25.45 21.6 Q25.55 22.05 25.2 21.75 25.55 22.05 25.45 21.6"/><path stroke="none" fill="url(#gradient11)" d="M24.75 16.4 L25.15 16.35 25.2 16.4 Q25.7 16.45 26.55 17.05 26.35 16.6 26.55 16.45 L25.75 16.3 26.55 16.45 27.65 16.7 Q26.8 16.05 25.4 16.15 L25.35 16.15 25.0 16.0 Q25.3 16.4 24.75 16.4"/><path fill="none" stroke="#000000" stroke-width="0.5" stroke-opacity="0.2" d="M19.45 16.6 L19.35 16.65 19.35 16.5 Q19.6 16.0 20.4 15.75 L20.75 15.7 21.55 15.85 21.6 15.85 21.65 15.9 M21.9 25.35 Q21.35 25.65 21.1 25.05 20.6 24.0 21.85 22.55 22.25 20.95 21.95 20.35 L21.6 19.9 21.5 19.35 Q21.55 18.8 22.2 18.45 L22.5 18.2 Q22.5 17.95 21.8 17.8 20.85 17.6 20.85 17.0 M20.85 16.95 L20.9 16.85 20.85 16.75 20.3 16.15 19.45 16.6 M28.45 18.1 Q28.55 18.45 28.0 18.4 27.05 18.35 26.55 17.3 25.65 16.6 25.1 16.55 L24.7 16.6 24.6 16.6 24.5 16.55 24.25 16.45 24.05 16.4 23.9 16.15 23.85 15.8 23.75 15.7 Q23.6 15.55 23.25 15.85 L23.2 15.85 23.0 16.0 22.35 16.05 22.2 15.95 22.1 15.95 M21.85 15.5 L24.65 15.4 M21.95 15.55 L21.9 15.55 21.85 15.55 M22.1 16.15 L22.3 16.25 22.6 16.5 22.85 16.8 M22.95 16.9 L23.25 17.3 23.35 17.4 23.6 17.8 23.6 17.9 23.65 18.6 23.55 18.8 23.4 19.0 23.35 19.0 23.15 19.2 23.05 19.35 22.75 19.7 M23.45 16.8 L23.2 16.7 M23.05 16.75 L22.3 16.25 M23.7 16.9 L23.45 16.8 M23.6 17.8 L23.7 17.55 Q23.7 17.45 23.35 17.4 M23.9 16.15 L23.2 15.85 M24.85 22.05 Q24.6 22.3 24.2 22.05 23.9 21.7 23.9 21.25 L24.0 20.85 24.25 20.35 Q24.2 19.3 23.8 19.0 L23.55 18.8 M24.25 18.45 L24.25 18.4 M24.2 18.5 L24.4 18.8 24.4 18.85 Q25.55 19.55 25.55 20.5 M24.4 18.8 L24.45 18.85 24.4 18.85 M23.3 19.5 L23.9 21.25 M22.8 20.35 L22.75 20.35 22.75 20.3 Q22.55 20.1 22.7 19.75 M22.75 20.35 L22.85 20.35 22.8 20.35 Q23.9 21.75 23.4 23.2 L22.95 24.15 21.9 25.35 M24.0 20.85 L23.65 19.25 M25.05 21.85 L24.85 22.05 M25.05 21.85 L25.05 21.9 25.2 22.15 25.2 23.95 Q25.05 25.15 25.5 25.8 L25.85 26.15 27.25 26.05 27.5 25.7 Q27.65 25.3 27.1 25.15 L26.7 25.1 Q26.5 25.15 26.75 25.6 L26.85 25.85 26.85 26.05 26.8 26.15 26.4 26.05 26.3 26.0 Q25.7 25.7 25.6 25.3 25.45 24.4 25.6 22.75 L25.45 21.6 25.35 21.55 25.25 21.45 25.4 21.15 25.45 21.05 25.45 20.85 25.55 20.5 M27.65 16.7 L28.1 17.25 28.45 18.1 M25.0 16.0 L25.35 16.15 25.4 16.15 Q26.8 16.05 27.65 16.7 M25.15 16.9 L24.7 16.6 M24.45 18.1 L26.1 19.1 Q26.8 19.25 26.7 18.85 L25.95 17.7 25.15 16.9 M25.2 21.6 L25.25 21.5 25.25 21.45 M25.2 21.6 L25.1 21.75 25.05 21.85 M24.6 17.75 L24.6 17.9 M24.3 17.2 L23.7 16.9"/><path fill="none" stroke="#000000" stroke-width="0.5" stroke-opacity="0.152941176471" d="M21.3 15.9 L20.75 15.7 M23.0 16.0 L22.75 15.9 22.35 15.9 M24.15 15.3 L24.6 15.7 Q24.7 16.15 24.95 16.25 M24.15 15.3 L23.8 15.2 M23.3 18.25 L23.3 18.15 23.2 17.85 M23.6 16.3 L23.0 16.0 M23.1 17.65 L22.95 17.45 22.9 17.25 22.55 16.85 Q22.0 16.25 21.3 15.9 M22.95 19.1 L22.95 19.05 23.15 18.9 23.1 18.9 23.35 18.6 23.3 18.25 M24.0 18.7 L24.0 18.65 Q23.9 18.45 24.25 18.0 24.5 17.75 24.35 17.5 L24.3 17.45 24.15 17.2 M24.95 19.7 L24.55 19.15 M22.95 19.1 Q22.3 19.6 22.3 20.0 M23.1 21.85 L22.85 20.8 M21.7 25.1 Q23.15 23.25 23.1 21.85 M26.55 16.45 Q27.55 16.9 28.25 18.2 M25.75 16.3 L26.55 16.45 M26.35 18.8 Q25.1 17.1 23.6 16.3 M24.65 22.0 Q25.3 20.55 24.95 19.7"/><path fill="none" stroke="#000000" stroke-width="0.5" stroke-opacity="0.101960784314" d="M19.35 16.5 L20.5 15.95 21.25 16.7 21.25 16.85 Q21.25 17.55 22.2 17.7 23.2 17.9 22.7 18.3 L22.6 18.3 Q21.9 18.75 21.85 19.3 L21.95 19.85 22.3 20.3 22.3 20.35 Q22.55 20.95 22.15 22.45 L22.2 22.5 22.1 22.55 Q21.0 23.9 21.45 24.95 L21.9 25.35 M21.65 15.9 L21.6 15.9 21.3 15.9 Q21.15 16.1 21.25 16.7 L21.25 16.75 21.25 16.85 M23.9 15.6 L23.9 15.65 Q23.95 16.05 24.3 16.25 L24.75 16.4 25.15 16.35 25.2 16.4 Q25.7 16.45 26.55 17.05 L26.6 17.1 26.65 17.15 Q27.15 18.1 28.05 18.2 L28.25 18.2 28.45 18.1 M22.75 15.9 L23.05 15.8 23.3 15.65 23.9 15.6 24.15 15.3 M24.65 15.4 L24.15 15.3 M22.35 15.9 L22.25 15.8 22.2 15.8 M22.85 16.8 L22.1 16.2 22.1 16.15 21.7 15.9 21.65 15.9 M22.85 16.8 L22.95 16.9 M23.4 19.0 L23.45 18.9 M23.5 18.7 L23.55 18.5 23.5 18.35 23.3 18.25 23.25 18.25 22.7 18.3 M22.2 15.95 L21.65 15.75 M22.35 16.05 L23.45 16.8 M24.05 16.4 L23.6 16.3 Q23.35 16.3 23.7 16.9 M23.25 17.3 L23.35 17.3 23.8 17.3 23.95 17.5 23.85 17.55 23.85 17.65 23.6 17.9 M24.35 17.5 L24.15 17.5 23.95 17.55 23.85 17.55 M21.3 16.75 L21.25 16.75 M24.6 17.7 L24.6 17.8 M23.7 18.65 L24.05 18.9 Q24.45 19.25 24.45 20.2 L24.45 20.25 24.4 20.25 Q24.15 20.85 24.2 21.25 L24.2 21.45 24.3 21.7 24.5 21.9 24.65 22.0 24.85 22.05 M23.65 18.6 L23.7 18.65 M25.55 20.5 Q25.25 19.75 24.95 19.7 24.65 19.7 24.45 20.2 M23.4 23.2 Q23.45 22.0 23.1 21.85 22.75 21.7 22.15 22.45 M25.1 21.75 L25.2 21.75 25.3 22.0 25.25 23.8 Q25.2 25.1 25.55 25.7 L25.9 26.1 26.1 26.2 26.3 26.0 M26.55 16.45 L27.65 16.7 M25.15 16.9 L24.5 16.55 M26.55 17.05 Q26.35 16.6 26.55 16.45 M24.55 17.9 L26.15 18.8 26.7 18.85 M27.5 25.7 Q27.2 26.15 26.95 26.0 L26.95 25.8 26.85 25.55 26.7 25.1 M25.2 21.75 Q25.55 22.05 25.45 21.6"/></g><linearGradient gradientUnits="userSpaceOnUse" x1="-819.2" x2="819.2" spreadMethod="pad" gradientTransform="matrix(-0.00344848632812,0.025146484375,0.00643920898438,0.0,12.75,9.1)" id="gradient12"><stop offset="0.0" stop-color="#fbf1bf" stop-opacity="0.121568627451"/><stop offset="0.725490196078" stop-color="#fbf1bf" stop-opacity="0.6"/><stop offset="1.0" stop-color="#fbf1bf" stop-opacity="0.0"/></linearGradient><linearGradient gradientUnits="userSpaceOnUse" x1="-819.2" x2="819.2" spreadMethod="pad" gradientTransform="matrix(0.00199890136719,0.0143127441406,-0.00225830078125,0.0,16.05,15.8)" id="gradient13"><stop offset="0.0" stop-color="#fbf1bf" stop-opacity="0.121568627451"/><stop offset="0.725490196078" stop-color="#fbf1bf" stop-opacity="0.6"/><stop offset="1.0" stop-color="#fbf1bf" stop-opacity="0.0"/></linearGradient><linearGradient gradientUnits="userSpaceOnUse" x1="-819.2" x2="819.2" spreadMethod="pad" gradientTransform="matrix(0.00257873535156,0.0187835693359,-0.00480651855469,0.0,19.6,16.1)" id="gradient14"><stop offset="0.0" stop-color="#fbf1bf" stop-opacity="0.121568627451"/><stop offset="0.725490196078" stop-color="#fbf1bf" stop-opacity="0.6"/><stop offset="1.0" stop-color="#fbf1bf" stop-opacity="0.0"/></linearGradient><linearGradient gradientUnits="userSpaceOnUse" x1="-819.2" x2="819.2" spreadMethod="pad" gradientTransform="matrix(-0.00148010253906,0.0106811523438,0.00169372558594,0.0,17.15,21.3)" id="gradient15"><stop offset="0.0" stop-color="#fbf1bf" stop-opacity="0.121568627451"/><stop offset="0.725490196078" stop-color="#fbf1bf" stop-opacity="0.6"/><stop offset="1.0" stop-color="#fbf1bf" stop-opacity="0.0"/></linearGradient><g id="c14"><path stroke="none" fill="url(#gradient12)" d="M8.3 20.9 Q8.85 18.85 6.5 17.1 L5.0 16.15 Q-0.6 11.0 4.6 9.15 9.75 7.35 10.15 6.45 10.4 5.65 9.9 4.65 5.35 7.35 2.55 5.2 -1.0 2.25 2.6 0.95 6.2 -0.35 8.15 0.35 8.85 0.5 9.7 1.1 10.8 1.75 11.15 2.55 12.75 6.85 9.85 8.95 6.95 11.05 6.75 13.4 6.5 15.7 10.75 19.65 12.35 21.05 13.15 22.4 14.45 24.7 13.4 26.8 12.3 29.05 9.6 29.8 L8.25 30.05 6.3 30.15 3.95 29.85 1.0 29.2 Q-0.05 28.4 -0.15 27.4 L0.05 26.65 Q0.15 26.4 0.4 26.1 0.85 25.5 1.75 25.05 L2.1 24.9 2.85 24.6 3.75 24.3 4.35 24.2 Q6.5 23.8 7.35 22.6 L8.3 20.9"/><path fill="none" stroke="#fbf1bf" stroke-width="0.5" stroke-opacity="0.701960784314" d="M8.3 20.9 Q8.85 18.85 6.5 17.1 L5.0 16.15 Q-0.6 11.0 4.6 9.15 9.75 7.35 10.15 6.45 10.4 5.65 9.9 4.65 5.35 7.35 2.55 5.2 -1.0 2.25 2.6 0.95 6.2 -0.35 8.15 0.35 8.85 0.5 9.7 1.1 10.8 1.75 11.15 2.55 12.75 6.85 9.85 8.95 6.95 11.05 6.75 13.4 6.5 15.7 10.75 19.65 12.35 21.05 13.15 22.4"/><path stroke="none" fill="url(#gradient13)" d="M19.6 13.6 Q20.7 11.9 19.35 11.15 18.1 10.4 17.45 10.8 L16.95 11.25 16.45 12.05 Q16.0 14.55 17.1 15.7 18.2 16.9 18.3 18.25 18.5 19.55 17.1 21.8 15.7 24.0 16.45 25.85 17.45 28.75 20.85 27.25 L21.2 26.2 Q21.0 24.9 19.5 24.4 18.75 24.15 18.4 23.5 17.45 21.75 18.55 20.35 L19.0 19.8 Q20.85 16.9 18.95 15.85 17.1 14.8 16.9 14.3 L16.95 13.25 Q18.65 14.8 19.6 13.6"/><path stroke="none" fill="url(#gradient14)" d="M22.95 24.95 Q22.55 23.4 24.3 22.1 L25.45 21.35 Q29.6 17.55 25.75 16.2 21.9 14.85 21.6 14.15 21.4 13.55 21.75 12.8 25.15 14.85 27.25 13.2 29.9 11.0 27.2 10.05 24.5 9.05 23.05 9.55 22.55 9.7 21.95 10.15 21.1 10.65 20.85 11.2 19.65 14.45 21.8 16.0 23.95 17.6 24.15 19.35 24.3 21.05 21.15 24.0 19.95 25.05 19.35 26.05 18.4 27.75 19.15 29.35 20.0 31.05 21.95 31.6 L23.0 31.75 24.45 31.8 26.2 31.6 28.4 31.15 Q29.2 30.5 29.3 29.8 L29.1 29.25 28.85 28.85 27.85 28.05 27.6 27.9 27.05 27.7 26.35 27.5 25.9 27.4 Q24.3 27.1 23.65 26.2 23.15 25.55 22.95 24.95"/><path fill="none" stroke="#fbf1bf" stroke-width="0.5" stroke-opacity="0.701960784314" d="M22.95 24.95 Q22.55 23.4 24.3 22.1 L25.45 21.35 Q29.6 17.55 25.75 16.2 21.9 14.85 21.6 14.15 21.4 13.55 21.75 12.8 25.15 14.85 27.25 13.2 29.9 11.0 27.2 10.05 24.5 9.05 23.05 9.55 22.55 9.7 21.95 10.15 21.1 10.65 20.85 11.2 19.65 14.45 21.8 16.0 23.95 17.6 24.15 19.35 24.3 21.05 21.15 24.0 19.95 25.05 19.35 26.05"/><path stroke="none" fill="url(#gradient15)" d="M14.55 19.65 Q13.7 18.4 14.7 17.85 15.65 17.3 16.15 17.6 L16.55 17.95 16.9 18.55 Q17.25 20.4 16.4 21.25 15.6 22.15 15.5 23.15 15.35 24.15 16.4 25.8 17.45 27.45 16.9 28.85 16.15 31.0 13.6 29.85 L13.35 29.1 Q13.45 28.1 14.6 27.75 15.15 27.6 15.45 27.05 16.15 25.75 15.35 24.7 L14.95 24.3 Q13.6 22.15 15.0 21.35 L16.55 20.2 16.5 19.45 Q15.25 20.6 14.55 19.65"/></g><g id="c15"><g><use transform="matrix(1.0,0.0,0.0,1.0,0.0,0.0)" xlink:href="#c14"/></g></g><g id="c16"><path fill="#d8ca7c" stroke="none" d="M13.0 22.2 L13.05 22.3 13.1 22.45 13.15 22.6 Q13.6 23.7 15.45 24.2 L16.0 24.35 19.3 24.5 19.75 24.5 21.9 24.15 23.7 23.65 25.5 22.95 25.8 22.95 25.5 22.95 23.7 23.65 24.2 22.95 25.85 22.35 Q28.6 21.3 29.2 19.65 L29.3 19.1 29.25 19.0 29.25 18.8 29.2 18.7 29.75 18.6 29.8 18.75 29.8 18.8 29.85 19.0 29.8 19.1 Q29.85 20.3 28.6 21.5 L27.4 22.35 25.8 22.95 26.5 23.05 24.0 24.15 25.45 24.1 Q23.1 25.15 20.5 25.45 L17.8 25.5 19.2 25.1 15.55 24.85 15.0 24.65 Q13.05 24.1 12.5 22.85 L12.5 22.65 12.45 22.5 12.4 22.35 13.0 22.2"/><path fill="#b19741" stroke="none" d="M12.5 22.85 Q13.05 24.1 15.0 24.65 L15.55 24.85 19.2 25.1 17.8 25.5 20.5 25.45 Q23.1 25.15 25.45 24.1 L24.0 24.15 26.5 23.05 26.65 24.35 27.3 24.3 27.4 24.75 24.9 26.2 26.85 25.65 26.95 26.1 Q22.2 28.75 17.25 28.3 15.4 28.2 13.95 26.95 L12.5 22.85 M17.8 26.25 Q15.6 26.1 13.8 24.9 14.65 25.8 15.55 26.15 L17.8 26.25 M14.65 25.9 Q16.0 26.8 17.5 27.0 L21.55 26.8 Q17.6 26.9 14.65 25.9 M14.0 25.9 Q14.8 26.9 15.65 27.15 L17.95 27.25 Q15.7 27.1 14.0 25.9"/><path fill="#836d27" stroke="none" d="M29.8 19.1 L30.1 22.65 Q29.6 23.8 28.75 24.55 29.6 24.35 30.15 23.55 L30.15 23.9 Q30.3 24.95 29.3 26.0 L28.05 26.85 27.85 25.6 28.25 25.3 27.95 23.9 27.55 23.85 27.6 23.75 Q28.85 23.4 29.5 22.25 L27.5 23.3 27.4 22.35 28.6 21.5 Q29.85 20.3 29.8 19.1 M14.0 25.9 Q15.7 27.1 17.95 27.25 L15.65 27.15 Q14.8 26.9 14.0 25.9 M14.65 25.9 Q17.6 26.9 21.55 26.8 L17.5 27.0 Q16.0 26.8 14.65 25.9 M17.8 26.25 L15.55 26.15 Q14.65 25.8 13.8 24.9 15.6 26.1 17.8 26.25"/><path fill="#967f37" stroke="none" d="M27.15 27.2 L27.1 27.4 27.7 27.4 27.8 28.15 24.45 28.8 24.3 28.8 22.9 29.15 16.95 29.3 Q14.65 28.75 14.15 27.4 L14.05 27.2 13.95 26.95 Q15.4 28.2 17.25 28.3 22.2 28.75 26.95 26.1 L27.15 27.2 M25.7 27.55 L27.1 27.4 25.7 27.55"/><path fill="#6f5122" stroke="none" d="M26.5 23.05 L25.8 22.95 27.4 22.35 27.5 23.3 29.5 22.25 Q28.85 23.4 27.6 23.75 L27.55 23.85 27.95 23.9 28.25 25.3 27.85 25.6 28.05 26.85 27.15 27.2 26.95 26.1 26.85 25.65 24.9 26.2 27.4 24.75 27.3 24.3 26.65 24.35 26.5 23.05 M30.1 22.65 L30.15 23.55 Q29.6 24.35 28.75 24.55 29.6 23.8 30.1 22.65"/><path fill="none" stroke="#000000" stroke-width="0.5" stroke-opacity="0.301960784314" d="M23.7 23.65 L21.9 24.15 19.75 24.5 19.3 24.5 16.0 24.35 15.45 24.2 Q13.6 23.7 13.15 22.6 L13.1 22.45 13.05 22.3 13.0 22.2 M12.4 22.35 L12.45 22.5 12.5 22.65 12.5 22.85 M26.5 23.05 L25.8 22.95 25.5 22.95 23.7 23.65 24.2 22.95 25.85 22.35 Q28.6 21.3 29.2 19.65 L29.3 19.1 29.25 19.0 29.25 18.8 29.2 18.7 M29.75 18.6 L29.8 18.75 29.8 18.8 29.85 19.0 29.8 19.1 30.1 22.65 30.15 23.55 30.15 23.9 Q30.3 24.95 29.3 26.0 L28.05 26.85 27.15 27.2 27.1 27.4 27.7 27.4 27.8 28.15 24.45 28.8 24.3 28.8 22.9 29.15 16.95 29.3 Q14.65 28.75 14.15 27.4 L14.05 27.2 13.95 26.95 12.5 22.85 M26.95 26.1 L26.85 25.65 24.9 26.2 27.4 24.75 27.3 24.3 26.65 24.35 26.5 23.05 M27.1 27.4 L25.7 27.55 M27.15 27.2 L26.95 26.1"/></g><g id="c17"><g><use transform="matrix(1.0,0.0,0.0,1.0,0.0,0.0)" xlink:href="#c2"/></g><g><use transform="matrix(0.238861083984,-0.0867004394531,0.10026550293,0.233917236328,34.25,31.15)" xlink:href="#c4"/></g><g><use transform="matrix(0.238861083984,-0.0867004394531,0.10026550293,0.233917236328,4.25,10.3)" xlink:href="#c4"/></g><g><use transform="matrix(0.141098022461,-0.0378112792969,0.111373901367,0.225646972656,20.25,20.65)" filter="url(#filter10)" xlink:href="#c6"/></g><g><use transform="matrix(-0.155029296875,0.0513153076172,0.0841827392578,0.147033691406,22.6,2.3)" filter="url(#filter11)" xlink:href="#c8"/></g><g><use transform="matrix(1.0,0.0,0.0,1.0,0.0,0.0)" xlink:href="#c9"/></g><g><use transform="matrix(-0.137557983398,-0.217346191406,0.244995117188,-0.119216918945,17.85,23.35)" filter="url(#filter13)" xlink:href="#c11"/></g><g><use transform="matrix(-0.0261840820312,-0.0413970947266,0.0558166503906,-0.0271453857422,19.2,21.2)" filter="url(#filter14)" xlink:href="#c12"/></g><g><use transform="matrix(1.0,0.0,0.0,1.0,0.0,0.0)" xlink:href="#c13"/></g><g><use transform="matrix(0.358367919922,-0.0774841308594,0.0774078369141,0.358093261719,14.15,11.1)" filter="url(#filter16)" xlink:href="#c15"/></g><g><use transform="matrix(1.0,0.0,0.0,1.0,0.0,0.0)" xlink:href="#c16"/></g><g><use transform="matrix(0.104553222656,-0.0225982666016,0.00888061523438,0.0411376953125,21.7,24.75)" filter="url(#filter18)" xlink:href="#c6"/></g><g><use transform="matrix(0.162948608398,-0.0436706542969,0.128631591797,0.260604858398,20.35,20.95)" filter="url(#filter19)" xlink:href="#c6"/></g></g><filter id="filter10"><feColorMatrix in="SourceGraphic" type="matrix" values="0.0 0.0 0.0 0.0 0.796875 0.0 0.0 0.0 0.0 0.59765625 0.0 0.0 0.0 0.0 0.19921875 0.0 0.0 0.0 1.0 0.0" result="cxform"/><feComposite operator="in" in2="SourceGraphic" result="color-xform"/></filter><filter id="filter11"><feColorMatrix in="SourceGraphic" type="matrix" values="0.0 0.0 0.0 0.0 0.99609375 0.0 0.0 0.0 0.0 0.99609375 0.0 0.0 0.0 0.0 0.99609375 0.0 0.0 0.0 1.0 0.0" result="cxform"/><feComposite operator="in" in2="SourceGraphic" result="color-xform"/></filter><filter id="filter13"><feColorMatrix in="SourceGraphic" type="matrix" values="1.0 0.0 0.0 0.0 0.0 0.0 1.0 0.0 0.0 0.0 0.0 0.0 1.0 0.0 0.0 0.0 0.0 0.0 0.25 0.0" result="cxform"/><feComposite operator="in" in2="SourceGraphic" result="color-xform"/></filter><filter id="filter14"><feColorMatrix in="SourceGraphic" type="matrix" values="1.0 0.0 0.0 0.0 0.0 0.0 1.0 0.0 0.0 0.0 0.0 0.0 1.0 0.0 0.0 0.0 0.0 0.0 0.1015625 0.0" result="cxform"/><feComposite operator="in" in2="SourceGraphic" result="color-xform"/></filter><filter id="filter16"><feColorMatrix in="SourceGraphic" type="matrix" values="0.56640625 0.0 0.0 0.0 0.2578125 0.0 0.56640625 0.0 0.0 0.4296875 0.0 0.0 0.56640625 0.0 0.4296875 0.0 0.0 0.0 1.0 0.0" result="cxform"/><feComposite operator="in" in2="SourceGraphic" result="color-xform"/></filter><filter id="filter18"><feColorMatrix in="SourceGraphic" type="matrix" values="1.0 0.0 0.0 0.0 0.0 0.0 1.0 0.0 0.0 0.0 0.0 0.0 1.0 0.0 0.0 0.0 0.0 0.0 0.19140625 0.0" result="cxform"/><feComposite operator="in" in2="SourceGraphic" result="color-xform"/></filter><filter id="filter19"><feColorMatrix in="SourceGraphic" type="matrix" values="1.0 0.0 0.0 0.0 0.0 0.0 1.0 0.0 0.0 0.0 0.0 0.0 1.0 0.0 0.0 0.0 0.0 0.0 0.23046875 0.0" result="cxform"/><feComposite operator="in" in2="SourceGraphic" result="color-xform"/></filter></defs><g><g><use transform="matrix(1.0,0.0,0.0,1.0,0.0,0.0)" xlink:href="#c1"/></g><g><use transform="matrix(1.15496826172,0.0,0.0,1.15496826172,5.85,3.95)" xlink:href="#c17"/></g></g></svg>