<?xml version='1.0' encoding='UTF-8'?>
<svg xmlns:xlink="http://www.w3.org/1999/xlink" xmlns="http://www.w3.org/2000/svg" version="1.1" width="60px" height="60px" viewBox="0.0 0.0 60.0 60.0"><defs><g id="c1"><path fill="#000000" fill-opacity="0.00392156862745" d="M0.0 0.0 L60.0 0.0 60.0 60.0 0.0 60.0 0.0 0.0"/></g><g id="c2"><path fill="none" stroke="#000000" stroke-width="1.0" stroke-opacity="0.301960784314" d="M22.3 0.35 Q26.6 -1.0 28.5 3.05 L41.4 31.7 Q43.1 35.4 39.9 36.85 L38.15 37.65 19.65 43.65 Q17.05 44.5 15.35 43.3 14.2 42.55 13.5 40.9 L0.55 12.25 Q-0.6 9.75 0.6 8.25 1.15 7.55 2.2 7.05 2.85 6.6 3.8 6.3 L22.3 0.35"/><path fill="#300525" stroke="none" d="M25.55 0.9 Q26.9 1.6 27.8 3.55 L40.7 32.15 Q42.6 36.3 38.3 37.65 L23.3 42.5 13.15 21.4 4.6 20.9 0.7 12.25 Q-0.45 9.75 0.75 8.25 L29.8 9.75 25.55 0.9 M20.1 43.55 L19.8 43.65 Q17.15 44.45 15.5 43.3 L20.1 43.55"/><path fill="#630a4c" stroke="none" d="M23.3 42.5 L20.1 43.55 15.5 43.3 Q14.35 42.55 13.65 40.9 L4.6 20.9 13.15 21.4 23.3 42.5 M0.75 8.25 Q1.45 7.3 3.1 6.75 L21.65 0.8 25.55 0.9 29.8 9.75 0.75 8.25"/><path fill="none" stroke="#000000" stroke-width="0.5" stroke-opacity="0.301960784314" d="M25.55 0.9 Q26.9 1.6 27.8 3.55 L40.7 32.15 Q42.6 36.3 38.3 37.65 L23.3 42.5 20.1 43.55 19.8 43.65 Q17.15 44.45 15.5 43.3 14.35 42.55 13.65 40.9 L4.6 20.9 0.7 12.25 Q-0.45 9.75 0.75 8.25 1.45 7.3 3.1 6.75 L21.65 0.8 25.55 0.9"/><path fill="#9d147b" stroke="none" d="M14.2 40.5 L1.35 11.8 Q-0.5 7.75 3.8 6.35 L22.3 0.4 Q26.55 -1.0 28.45 3.1 L41.35 31.7 Q43.25 35.85 38.9 37.25 L20.4 43.2 Q16.1 44.55 14.2 40.5"/><path fill="none" stroke="#000000" stroke-width="0.5" stroke-opacity="0.301960784314" d="M14.2 40.5 L1.35 11.8 Q-0.5 7.75 3.8 6.35 L22.3 0.4 Q26.55 -1.0 28.45 3.1 L41.35 31.7 Q43.25 35.85 38.9 37.25 L20.4 43.2 Q16.1 44.55 14.2 40.5"/><path fill="#fcf2cf" stroke="none" d="M9.15 13.6 Q9.8 12.8 9.55 11.6 L9.1 10.55 22.05 6.35 Q24.9 5.45 26.25 7.85 L26.5 8.3 35.8 29.0 35.95 29.35 Q34.75 29.3 34.1 30.1 33.45 30.9 33.7 32.1 L34.0 32.9 20.65 37.2 Q18.8 37.8 17.65 37.0 16.8 36.4 16.3 35.2 L6.95 14.6 6.8 14.4 7.1 14.4 Q8.4 14.45 9.15 13.6"/><path fill="#c47fad" stroke="none" d="M8.25 23.65 L3.35 12.8 Q1.65 9.1 5.5 7.85 L22.25 2.5 Q26.05 1.25 27.75 4.95 L28.25 6.1 35.55 22.3 39.35 30.75 Q41.1 34.5 37.2 35.7 L20.45 41.1 Q16.8 42.25 15.2 39.0 L15.0 38.6 8.25 23.65 M9.15 13.6 Q8.4 14.45 7.1 14.4 L6.8 14.4 6.95 14.6 16.3 35.2 Q16.8 36.4 17.65 37.0 18.8 37.8 20.65 37.2 L34.0 32.9 33.7 32.1 Q33.45 30.9 34.1 30.1 34.75 29.3 35.95 29.35 L35.8 29.0 26.5 8.3 26.25 7.85 Q24.9 5.45 22.05 6.35 L9.1 10.55 9.55 11.6 Q9.8 12.8 9.15 13.6"/><path fill="none" stroke="#ffcc00" stroke-width="1.0" stroke-opacity="0.749019607843" d="M8.25 23.65 L3.35 12.8 Q1.65 9.1 5.5 7.85 L22.25 2.5 Q26.05 1.25 27.75 4.95 L28.25 6.1 M35.55 22.3 L39.35 30.75 Q41.1 34.5 37.2 35.7 L20.45 41.1 Q16.8 42.25 15.2 39.0 L15.0 38.6"/><path fill="none" stroke="#bf9900" stroke-width="1.0" stroke-opacity="0.749019607843" d="M28.25 6.1 L35.55 22.3 M15.0 38.6 L8.25 23.65"/><path fill="none" stroke="#f0b92b" stroke-width="0.5" d="M9.15 13.6 Q9.8 12.8 9.55 11.6 L9.1 10.55 22.05 6.35 Q24.9 5.45 26.25 7.85 L26.5 8.3 35.8 29.0 35.95 29.35 Q34.75 29.3 34.1 30.1 33.45 30.9 33.7 32.1 L34.0 32.9 20.65 37.2 Q18.8 37.8 17.65 37.0 16.8 36.4 16.3 35.2 L6.95 14.6 6.8 14.4 7.1 14.4 Q8.4 14.45 9.15 13.6"/></g><g id="c3"><path fill="#7fdbfe" stroke="none" d="M10.75 4.9 Q10.75 4.6 10.9 4.35 11.25 3.45 11.95 2.75 13.3 1.5 14.35 2.1 15.4 2.7 14.95 4.45 14.7 5.4 14.1 6.15 L13.75 6.5 Q13.1 7.15 12.35 7.35 L11.4 7.2 Q10.95 6.9 10.75 6.4 10.5 5.75 10.75 4.9 M7.5 5.9 Q7.0 5.85 6.6 5.5 6.05 5.0 5.8 4.15 L5.7 3.6 Q5.55 2.65 5.8 1.7 6.25 0.0 7.5 0.0 L7.6 0.0 Q8.85 0.0 9.3 1.7 9.55 2.65 9.4 3.6 L9.3 4.15 8.5 5.5 7.6 5.9 7.5 5.9 M4.35 4.9 Q4.6 5.75 4.35 6.4 L3.7 7.2 2.75 7.35 Q2.0 7.15 1.35 6.5 L1.0 6.15 Q0.4 5.4 0.15 4.45 -0.3 2.7 0.75 2.1 1.8 1.5 3.15 2.75 3.85 3.45 4.2 4.35 L4.35 4.9 M5.5 13.7 Q4.45 13.9 3.65 12.95 2.75 12.0 3.2 10.25 3.7 8.5 5.25 7.6 6.4 6.9 7.55 7.0 8.75 6.9 9.9 7.6 11.45 8.5 11.95 10.25 12.35 12.0 11.5 12.95 10.7 13.9 9.65 13.7 8.55 13.5 7.55 12.6 6.55 13.5 5.5 13.7"/></g><g id="c4"><g><use transform="matrix(1.0,0.0,0.0,1.0,0.0,0.0)" xlink:href="#c3"/></g></g><radialGradient gradientUnits="userSpaceOnUse" r="819.2" cx="0" cy="0" spreadMethod="pad" gradientTransform="matrix(0.0914459228516,0.0,0.0,0.0914459228516,0.6,3.4)" id="gradient1"><stop offset="0.0" stop-color="#ffffff"/><stop offset="1.0" stop-color="#ffffff" stop-opacity="0.0"/></radialGradient><g id="c5"><path stroke="none" fill="url(#gradient1)" d="M36.65 -54.65 Q60.05 -42.0 69.75 -17.95 80.55 8.9 68.0 34.1 55.45 59.35 26.8 68.2 -1.8 77.05 -29.7 64.3 -57.6 51.6 -68.45 24.75 -79.3 -2.05 -66.75 -27.25 L-66.7 -27.3 Q-54.1 -52.5 -25.5 -61.4 3.1 -70.2 31.0 -57.5 L36.65 -54.65"/></g><g id="c6"><g><use transform="matrix(1.0,0.0,0.0,1.0,0.0,0.0)" xlink:href="#c5"/></g></g><radialGradient gradientUnits="userSpaceOnUse" r="819.2" cx="0" cy="0" spreadMethod="pad" gradientTransform="matrix(0.209197998047,0.0,0.0,0.177108764648,67.15,107.2)" id="gradient2"><stop offset="0.356862745098" stop-color="#ffffff"/><stop offset="0.670588235294" stop-opacity="0.0"/></radialGradient><g id="c7"><path fill="none" stroke-linejoin="round" stroke-linecap="round" stroke="url(#gradient2)" stroke-width="0.5" d="M136.55 165.8 L68.6 106.0 68.4 106.0 118.25 201.5 M68.2 105.7 L68.25 105.8 68.25 105.75 68.2 105.7 0.0 45.7 M68.25 105.8 L68.3 105.85 68.3 105.8 68.25 105.75 49.95 0.05 M0.05 97.7 L68.15 105.95 68.25 105.85 68.25 105.8 M68.3 105.85 L68.25 105.85 68.3 106.0 68.3 105.85 68.3 105.8 68.35 105.8 68.3 105.8 86.6 18.35 M50.0 193.2 L68.3 106.0 68.15 105.95 18.25 151.55 M68.4 106.0 L68.3 106.0 86.55 211.5 M68.4 106.0 L68.3 105.85 M68.6 106.0 L68.35 105.8 118.25 60.15 M136.6 114.25 L68.6 106.0 M68.2 105.7 L18.25 10.05"/></g><g id="c8"><g><use transform="matrix(1.0,0.0,0.0,1.0,0.0,0.0)" xlink:href="#c7"/></g></g><linearGradient gradientUnits="userSpaceOnUse" x1="-819.2" x2="819.2" spreadMethod="pad" gradientTransform="matrix(-0.00276184082031,0.0228729248047,0.00517272949219,0.0,24.8,8.2)" id="gradient3"><stop offset="0.0" stop-color="#fbf1bf" stop-opacity="0.121568627451"/><stop offset="0.725490196078" stop-color="#fbf1bf" stop-opacity="0.6"/><stop offset="1.0" stop-color="#fbf1bf" stop-opacity="0.0"/></linearGradient><linearGradient gradientUnits="userSpaceOnUse" x1="-819.2" x2="819.2" spreadMethod="pad" gradientTransform="matrix(0.00160217285156,0.0130004882812,-0.00181579589844,0.0,27.65,14.25)" id="gradient4"><stop offset="0.0" stop-color="#fbf1bf" stop-opacity="0.121568627451"/><stop offset="0.725490196078" stop-color="#fbf1bf" stop-opacity="0.6"/><stop offset="1.0" stop-color="#fbf1bf" stop-opacity="0.0"/></linearGradient><g id="c9"><path fill="#fdf39b" stroke="none" d="M42.8 22.3 L42.75 24.2 42.4 25.5 42.4 25.65 42.4 27.25 42.4 27.65 42.3 30.4 42.0 30.95 41.75 31.4 41.1 32.35 39.4 34.0 Q38.4 35.45 36.85 36.4 L36.7 36.5 36.75 35.2 37.2 34.9 38.5 33.4 Q39.9 32.35 40.75 30.85 L41.0 30.5 Q42.05 28.6 42.25 26.2 L42.3 26.05 42.3 25.85 42.25 26.0 Q42.2 24.25 41.65 22.4 41.1 19.25 36.55 15.9 30.65 11.4 25.15 8.9 19.65 6.5 13.9 7.4 11.2 7.8 9.05 8.75 6.8 9.85 5.3 11.5 L5.25 11.55 Q3.95 12.65 2.85 14.5 L1.4 17.3 0.95 18.6 0.5 20.6 0.4 20.45 0.15 20.0 0.1 19.75 Q-0.05 18.7 0.1 17.95 L0.4 16.95 Q2.15 12.8 4.35 10.95 L4.35 10.9 Q6.0 9.15 8.4 8.0 10.6 7.0 13.55 6.55 19.55 5.65 25.35 8.15 31.1 10.75 37.35 15.5 42.15 19.05 42.8 22.3 M41.85 26.95 Q41.2 29.65 38.5 31.45 L36.7 32.5 33.6 33.75 24.55 34.25 23.45 34.15 18.4 32.5 Q12.0 30.05 8.45 26.6 L7.1 25.05 6.7 24.6 6.6 24.4 6.55 24.35 4.65 22.5 4.2 21.95 Q2.45 19.7 2.3 17.65 L2.3 17.1 Q2.25 15.9 2.8 14.7 L2.7 16.3 Q2.9 18.65 5.1 21.1 L6.8 22.85 7.0 23.0 7.05 23.05 7.15 23.25 Q8.8 25.55 11.65 27.45 14.35 29.35 18.05 30.8 L18.85 31.15 23.9 32.8 24.25 32.85 24.35 32.85 32.55 32.55 33.85 32.4 34.0 32.4 37.1 31.15 Q40.55 29.5 41.85 26.95 M0.65 22.5 Q0.45 22.25 0.4 21.45 L0.35 21.15 0.5 21.6 Q0.5 22.1 0.65 22.5"/><path fill="#fef9cd" stroke="none" d="M42.3 30.4 L42.4 27.65 42.4 27.25 42.4 25.65 42.4 25.5 42.75 24.2 42.8 22.3 Q43.3 24.3 43.4 26.05 43.25 27.95 42.7 29.6 L42.3 30.4 M42.25 26.0 L42.3 25.85 42.3 26.05 42.25 26.0"/><path fill="#e8d06e" stroke="none" d="M0.5 20.6 L0.95 18.6 1.4 17.3 2.85 14.5 2.8 14.7 Q2.25 15.9 2.3 17.1 1.65 18.45 1.25 20.05 L1.05 21.3 0.5 20.6 M42.25 26.2 Q42.05 28.6 41.0 30.5 L40.75 30.85 Q39.9 32.35 38.5 33.4 L37.2 34.9 37.25 34.65 37.4 34.15 Q37.8 32.8 38.5 31.45 41.2 29.65 41.85 26.95 L42.1 26.55 42.15 26.35 42.25 26.05 42.25 26.2 M0.85 23.05 L0.65 22.5 0.8 22.7 0.65 22.5 Q0.5 22.1 0.5 21.6 L0.8 22.7 0.85 22.8 0.85 23.05"/><path fill="#fdedac" stroke="none" d="M42.3 26.05 L42.25 26.2 42.25 26.05 42.25 26.0 42.3 26.05"/><path fill="#fbdb62" stroke="none" d="M2.85 14.5 Q3.95 12.65 5.25 11.55 L5.3 11.5 Q6.8 9.85 9.05 8.75 11.2 7.8 13.9 7.4 19.65 6.5 25.15 8.9 30.65 11.4 36.55 15.9 41.1 19.25 41.65 22.4 42.2 24.25 42.25 26.0 L42.25 26.05 42.15 26.35 42.1 26.55 41.85 26.95 Q40.55 29.5 37.1 31.15 L34.0 32.4 33.85 32.4 32.55 32.55 24.35 32.85 24.25 32.85 23.9 32.8 18.85 31.15 18.05 30.8 Q14.35 29.35 11.65 27.45 8.8 25.55 7.15 23.25 L7.05 23.05 7.0 23.0 6.8 22.85 5.1 21.1 Q2.9 18.65 2.7 16.3 L2.8 14.7 2.85 14.5"/><path fill="#c7ab42" stroke="none" d="M37.2 34.9 L36.75 35.2 35.85 35.75 Q34.35 36.65 32.4 37.05 L23.8 37.35 24.05 35.6 Q23.95 34.9 23.45 34.15 L24.55 34.25 33.6 33.75 36.7 32.5 38.5 31.45 Q37.8 32.8 37.4 34.15 L37.25 34.65 37.2 34.9 M4.2 21.95 L4.65 22.5 6.55 24.35 6.6 24.4 6.7 24.6 7.1 25.05 8.45 26.6 7.25 27.55 Q6.5 28.3 6.0 29.3 L5.5 28.6 Q4.5 27.1 3.9 25.3 L3.7 25.15 4.1 23.7 4.1 23.55 4.2 21.95 M3.05 26.45 L3.25 26.15 3.65 27.1 3.5 26.95 3.05 26.45"/><path fill="#fae31f" stroke="none" d="M36.75 35.2 L36.7 36.5 Q35.1 37.35 33.0 37.85 29.05 38.65 23.35 38.1 L21.75 37.9 22.45 37.2 23.8 37.35 32.4 37.05 Q34.35 36.65 35.85 35.75 L36.75 35.2 M5.5 28.6 L5.25 29.75 4.25 28.3 3.65 27.1 3.25 26.15 3.0 25.5 2.6 25.1 3.05 24.45 3.5 24.95 3.7 25.15 3.9 25.3 Q4.5 27.1 5.5 28.6"/><path fill="#d5bb54" stroke="none" d="M2.3 17.1 L2.3 17.65 Q2.45 19.7 4.2 21.95 L4.1 23.55 4.1 23.7 3.7 25.15 3.5 24.95 3.05 24.45 2.0 22.95 1.75 22.65 1.35 22.0 1.1 21.4 1.05 21.3 1.25 20.05 Q1.65 18.45 2.3 17.1 M8.45 26.6 Q12.0 30.05 18.4 32.5 L23.45 34.15 Q23.95 34.9 24.05 35.6 L23.8 37.35 22.45 37.2 21.7 37.1 21.0 36.95 Q10.55 35.55 6.05 29.35 L6.0 29.3 Q6.5 28.3 7.25 27.55 L8.45 26.6 M0.85 22.8 L1.0 23.0 2.6 25.1 3.0 25.5 3.25 26.15 3.05 26.45 2.0 24.95 1.75 24.65 1.35 24.0 1.1 23.45 0.85 23.05 0.85 22.8"/><path fill="#fbec6a" stroke="none" d="M0.15 20.0 L0.4 20.45 0.5 20.6 1.05 21.3 1.1 21.4 1.35 22.0 1.75 22.65 2.0 22.95 3.05 24.45 2.6 25.1 1.0 23.0 0.85 22.8 0.8 22.7 0.5 21.6 0.35 21.15 0.25 20.75 0.15 20.0 M6.0 29.3 L6.05 29.35 Q10.55 35.55 21.0 36.95 L21.7 37.1 22.45 37.2 21.75 37.9 21.05 37.8 Q10.35 36.25 5.65 30.25 L5.25 29.75 5.5 28.6 6.0 29.3"/><path fill="none" stroke="#ffcc00" stroke-width="0.5" stroke-opacity="0.388235294118" d="M42.8 22.3 Q42.15 19.05 37.35 15.5 31.1 10.75 25.35 8.15 19.55 5.65 13.55 6.55 10.6 7.0 8.4 8.0 6.0 9.15 4.35 10.9 L4.35 10.95 M0.1 17.95 Q-0.05 18.7 0.1 19.75 L0.15 20.0 M36.7 36.5 L36.85 36.4 Q38.4 35.45 39.4 34.0 L41.1 32.35 41.75 31.4 42.0 30.95 42.3 30.4 42.7 29.6 Q43.25 27.95 43.4 26.05 43.3 24.3 42.8 22.3 M5.25 29.75 L5.65 30.25 Q10.35 36.25 21.05 37.8 L21.75 37.9 23.35 38.1 Q29.05 38.65 33.0 37.85 35.1 37.35 36.7 36.5 M0.85 22.8 L1.0 23.0 2.6 25.1 M0.85 22.8 L0.8 22.7 0.65 22.5 Q0.45 22.25 0.4 21.45 L0.35 21.15 0.25 20.75 0.15 20.0 M3.25 26.15 L3.0 25.5 M3.65 27.1 L3.25 26.15 M3.65 27.1 L4.25 28.3 5.25 29.75"/><path fill="#efd46c" stroke="none" d="M25.4 30.4 L25.2 30.75 Q24.85 31.05 24.45 30.95 L23.45 30.65 Q22.85 30.45 22.55 30.1 L22.45 29.85 Q22.35 29.6 22.55 29.3 22.8 28.95 23.5 29.15 L24.75 29.65 25.35 30.2 25.4 30.4 M17.55 22.3 L17.9 22.5 Q19.6 23.4 20.0 24.6 L20.1 25.15 Q20.2 25.9 19.35 26.5 18.3 27.3 16.85 27.15 15.45 27.0 13.55 26.15 11.65 25.3 10.65 24.05 L10.25 23.45 Q9.9 22.55 10.45 21.55 11.25 20.25 13.75 20.95 L14.5 21.1 Q14.35 20.85 14.6 20.5 14.85 20.0 15.7 20.25 L17.15 20.85 17.9 21.55 17.95 21.7 17.75 22.2 17.55 22.3 M10.85 14.1 Q10.65 13.65 10.95 13.2 11.35 12.55 12.55 12.9 13.75 13.2 14.55 13.65 15.3 14.1 15.5 14.65 L15.55 14.9 Q15.55 15.35 15.2 15.6 14.7 15.95 14.05 15.9 L12.4 15.4 Q11.5 15.05 11.1 14.4 L10.85 14.1 M31.8 15.8 L31.55 16.25 30.7 16.5 29.55 16.15 28.45 15.4 28.3 15.2 28.45 14.5 29.55 14.3 31.05 14.85 31.8 15.6 31.8 15.8 M31.95 23.25 L32.3 23.3 Q33.2 23.4 34.1 23.9 34.95 24.35 35.8 25.15 36.7 25.8 35.9 26.0 L34.6 26.0 34.1 25.9 32.2 25.05 31.05 24.05 Q30.7 23.7 31.1 23.4 L31.95 23.25"/><path fill="none" stroke="#382510" stroke-width="0.5" stroke-opacity="0.152941176471" d="M22.45 29.85 Q22.35 29.6 22.55 29.3 22.8 28.95 23.5 29.15 L24.75 29.65 25.35 30.2 25.4 30.4 M17.55 22.3 L17.9 22.5 Q19.6 23.4 20.0 24.6 L20.1 25.15 M10.25 23.45 Q9.9 22.55 10.45 21.55 11.25 20.25 13.75 20.95 L14.5 21.1 Q14.35 20.85 14.6 20.5 14.85 20.0 15.7 20.25 L17.15 20.85 17.9 21.55 17.95 21.7 M10.85 14.1 Q10.65 13.65 10.95 13.2 11.35 12.55 12.55 12.9 13.75 13.2 14.55 13.65 15.3 14.1 15.5 14.65 L15.55 14.9 M28.3 15.2 L28.45 14.5 29.55 14.3 31.05 14.85 31.8 15.6 31.8 15.8 M34.6 26.0 L35.9 26.0 Q36.7 25.8 35.8 25.15 34.95 24.35 34.1 23.9 33.2 23.4 32.3 23.3 L31.95 23.25"/><path fill="#fce485" stroke="none" d="M20.5 9.5 L20.7 9.5 21.45 9.65 22.25 10.15 Q22.6 10.45 22.15 10.65 L21.5 10.85 21.8 11.05 Q22.8 11.95 21.6 12.55 L19.75 13.0 19.1 12.9 Q17.7 12.75 16.6 12.2 L15.1 11.0 Q14.8 10.45 15.4 9.9 15.85 9.45 16.75 9.3 L17.25 9.3 19.65 9.7 19.9 9.8 20.0 9.75 20.5 9.5 M23.4 16.8 L23.6 16.85 24.8 17.2 26.0 17.8 Q26.6 18.25 26.05 18.45 L25.25 18.5 24.95 18.4 23.75 18.0 22.8 17.45 Q22.6 17.2 22.8 17.0 L23.4 16.8 M11.0 10.0 L11.25 9.95 12.05 10.15 12.8 10.65 Q13.15 10.95 12.75 11.15 L12.1 11.3 11.85 11.25 10.9 11.0 10.45 10.6 Q10.3 10.4 10.5 10.2 L11.0 10.0"/><path fill="none" stroke="#382510" stroke-width="0.5" stroke-opacity="0.152941176471" d="M19.75 13.0 L21.6 12.55 Q22.8 11.95 21.8 11.05 L21.5 10.85 22.15 10.65 Q22.6 10.45 22.25 10.15 L21.45 9.65 20.7 9.5 20.5 9.5 M19.9 9.8 L19.65 9.7 17.25 9.3 16.75 9.3 M25.25 18.5 L26.05 18.45 Q26.6 18.25 26.0 17.8 L24.8 17.2 23.6 16.85 23.4 16.8 M12.1 11.3 L12.75 11.15 Q13.15 10.95 12.8 10.65 L12.05 10.15 11.25 9.95 11.0 10.0"/><path stroke="none" fill="url(#gradient3)" d="M21.25 18.95 Q21.65 17.1 19.8 15.5 L18.55 14.6 Q14.05 9.95 18.25 8.3 22.4 6.65 22.7 5.8 22.95 5.1 22.55 4.2 18.9 6.65 16.6 4.7 13.7 2.0 16.65 0.85 19.55 -0.4 21.1 0.25 21.65 0.4 22.35 0.95 23.25 1.55 23.55 2.25 24.8 6.2 22.5 8.1 20.15 10.0 20.0 12.15 19.8 14.25 23.2 17.8 24.5 19.1 25.15 20.3 26.2 22.4 25.35 24.35 24.45 26.4 22.3 27.05 L21.2 27.25 19.6 27.35 17.75 27.1 15.35 26.5 Q14.5 25.75 14.4 24.9 L14.6 24.2 14.85 23.7 15.95 22.75 16.25 22.55 16.85 22.3 17.55 22.05 18.05 21.95 Q19.8 21.6 20.5 20.5 L21.25 18.95"/><path fill="none" stroke="#fbf1bf" stroke-width="0.5" stroke-opacity="0.701960784314" d="M21.25 18.95 Q21.65 17.1 19.8 15.5 L18.55 14.6 Q14.05 9.95 18.25 8.3 22.4 6.65 22.7 5.8 22.95 5.1 22.55 4.2 18.9 6.65 16.6 4.7 13.7 2.0 16.65 0.85 19.55 -0.4 21.1 0.25 21.65 0.4 22.35 0.95 23.25 1.55 23.55 2.25 24.8 6.2 22.5 8.1 20.15 10.0 20.0 12.15 19.8 14.25 23.2 17.8 24.5 19.1 25.15 20.3"/><path stroke="none" fill="url(#gradient4)" d="M30.45 12.25 Q31.4 10.75 30.3 10.1 29.3 9.4 28.75 9.75 L28.35 10.15 Q28.0 10.5 27.95 10.9 27.6 13.15 28.5 14.2 29.35 15.3 29.5 16.5 29.65 17.7 28.5 19.75 27.4 21.75 27.9 23.45 28.75 26.05 31.5 24.7 L31.8 23.75 Q31.6 22.55 30.4 22.1 29.8 21.9 29.55 21.3 28.8 19.7 29.65 18.4 L30.05 17.9 Q31.5 15.25 30.0 14.3 28.5 13.4 28.35 12.9 L28.4 12.0 Q29.7 13.4 30.45 12.25"/></g><radialGradient gradientUnits="userSpaceOnUse" r="819.2" cx="0" cy="0" spreadMethod="pad" gradientTransform="matrix(0.0503692626953,0.0,0.0,0.0503692626953,-0.1,-0.1)" id="gradient5"><stop offset="0.521568627451" stop-color="#133a01" stop-opacity="0.450980392157"/><stop offset="1.0" stop-color="#221e00" stop-opacity="0.0"/></radialGradient><radialGradient gradientUnits="userSpaceOnUse" r="819.2" cx="0" cy="0" spreadMethod="pad" gradientTransform="matrix(0.0419769287109,0.0,0.0,0.0419769287109,0.0,0.0)" id="gradient6"><stop offset="0.521568627451" stop-color="#133a01" stop-opacity="0.450980392157"/><stop offset="1.0" stop-color="#221e00" stop-opacity="0.0"/></radialGradient><g id="c10"><path stroke="none" fill="url(#gradient5)" d="M5.5 -21.3 L6.0 -20.8 5.8 -19.95 6.5 -19.55 4.7 -17.8 7.55 -16.65 7.55 -18.2 10.3 -19.05 9.5 -20.2 10.55 -21.2 8.5 -22.55 7.35 -23.3 8.95 -25.55 9.1 -25.45 13.6 -26.95 12.2 -29.4 16.35 -29.65 18.2 -33.85 20.45 -33.65 22.0 -32.15 26.35 -31.7 26.95 -24.75 24.4 -23.25 23.95 -19.55 27.05 -18.1 31.75 -21.8 36.0 -19.75 37.4 -15.55 36.1 -12.8 33.9 -11.65 33.5 -11.8 33.5 -14.1 31.6 -13.25 31.6 -11.15 32.05 -10.7 31.05 -10.2 29.8 -7.55 32.4 -4.3 36.9 -5.2 38.0 -3.25 37.7 -1.1 36.25 -2.75 34.9 -1.2 36.05 0.25 35.0 4.15 37.05 8.3 34.3 10.35 34.25 10.4 32.35 8.75 29.6 9.85 29.6 13.3 33.8 16.0 33.75 20.7 31.25 23.8 28.9 23.8 27.35 22.25 29.45 20.5 28.7 19.7 26.6 20.15 25.85 18.95 24.95 20.3 23.5 20.3 23.2 18.95 25.85 16.85 25.2 15.5 23.25 16.4 22.45 15.1 19.1 18.25 18.4 19.85 20.5 19.4 20.55 21.75 22.2 22.85 21.75 24.05 23.85 27.75 22.85 29.55 21.25 30.2 19.15 33.85 20.15 36.05 10.7 36.05 13.75 39.1 8.2 39.1 5.3 37.25 5.6 37.5 3.55 39.7 1.8 36.65 -2.75 38.15 -3.1 37.1 -1.7 36.4 -6.95 35.3 -5.9 33.8 -5.95 33.65 -3.4 32.5 -4.8 31.0 -3.25 29.8 -0.4 32.15 1.0 30.05 -0.35 28.4 0.5 27.2 0.2 26.75 2.3 25.3 6.35 26.1 4.75 20.4 5.8 19.7 4.7 14.05 1.95 11.95 -0.1 13.85 2.45 15.65 1.0 19.0 -0.1 18.05 -2.3 21.2 -0.1 22.55 -1.3 25.05 -3.8 25.4 -3.8 27.25 -3.2 27.9 -4.95 29.65 -5.75 27.95 -7.6 27.95 -7.6 30.85 -7.1 31.55 -9.2 32.95 -10.15 30.6 -13.6 30.85 -14.3 32.65 -17.1 33.5 -21.95 29.8 -20.9 28.55 -22.0 27.55 -21.0 26.05 -21.25 23.15 -25.1 21.65 -25.2 21.7 -28.6 24.65 -30.5 23.5 -31.9 20.1 -30.7 17.65 -31.7 13.75 -30.6 12.3 -31.9 10.75 -32.0 10.65 -33.15 9.2 -31.9 9.2 -29.65 6.2 -31.6 3.4 -37.15 4.15 -35.8 1.45 -36.8 -2.45 -35.7 -3.9 -37.0 -5.45 -36.8 -5.75 -31.1 -5.45 -29.8 -6.35 -29.35 -5.05 -27.35 -6.2 -26.45 -4.7 -23.85 -7.25 -21.65 -9.35 -20.45 -10.5 -20.5 -12.65 -21.5 -11.75 -22.1 -12.8 -23.3 -12.5 -23.85 -14.7 -25.9 -15.9 -27.15 -15.2 -28.3 -15.9 -28.75 -15.6 -29.05 -16.0 -29.05 -19.4 -29.15 -19.6 -27.4 -20.45 -24.5 -18.5 -21.7 -20.8 -19.0 -18.1 -15.4 -23.7 -17.8 -24.7 -16.0 -26.75 -16.3 -28.1 -15.45 -29.1 -17.85 -32.2 -17.0 -33.95 -19.9 -34.15 -18.55 -35.5 -16.35 -35.2 -14.35 -38.8 -11.7 -38.45 -12.2 -37.9 -9.05 -35.05 -10.15 -33.8 -5.3 -30.1 -1.85 -31.15 -1.0 -28.7 3.65 -30.95 3.25 -29.8 4.25 -29.8 2.6 -26.1 4.3 -24.95 3.15 -23.55 4.1 -22.6 5.5 -21.3 M17.45 -26.5 L17.45 -28.8 15.5 -27.95 15.5 -25.85 17.45 -23.95 19.1 -25.85 17.45 -26.5 M23.75 -10.15 L21.8 -9.3 21.8 -7.15 23.75 -5.3 25.4 -7.15 23.75 -7.85 23.75 -10.15 M22.4 -21.1 L20.5 -20.3 20.5 -18.15 22.45 -16.3 24.1 -18.15 22.4 -18.85 22.4 -21.1 M19.95 -1.4 L19.95 -0.65 18.05 1.25 17.05 -0.05 15.8 1.15 15.8 3.55 17.0 4.25 17.0 5.65 19.2 6.6 19.8 4.6 18.9 3.4 20.5 0.1 22.55 0.1 21.15 -0.95 19.95 -1.4 M3.7 -19.1 L1.85 -19.1 1.85 -16.25 3.85 -15.5 4.85 -17.4 3.7 -19.1 M20.75 -5.65 L19.9 -4.25 23.15 -3.1 20.75 -5.65 M24.2 -2.05 L23.95 0.1 22.55 1.15 22.55 1.65 23.95 5.3 27.25 5.3 27.65 6.25 31.6 4.25 25.6 2.5 26.9 1.1 24.95 -0.05 25.75 -1.6 24.2 -2.05 M-5.35 9.55 L-6.5 7.85 -8.35 7.85 -8.35 10.7 -6.35 11.45 -5.35 9.55 M-23.8 -2.9 L-23.8 -0.05 -21.75 0.7 -20.75 -1.2 -21.95 -2.9 -23.8 -2.9 M-20.45 -10.45 L-20.45 -7.6 -18.4 -6.85 -17.4 -8.75 -18.55 -10.45 -20.45 -10.45 M-10.5 20.95 L-9.4 23.05 -7.0 21.55 -6.15 23.05 -3.2 21.5 -4.25 19.85 -6.35 20.2 -6.8 16.45 -7.15 16.3 -6.75 14.85 -9.85 14.2 -12.65 18.05 -11.8 21.2 -10.5 20.95 M11.4 13.85 L11.0 11.95 7.1 14.9 8.15 16.3 8.15 18.0 10.8 21.25 13.85 20.3 14.2 20.55 13.6 22.7 15.55 23.8 17.8 21.8 16.9 20.3 16.45 19.4 14.5 18.95 15.8 17.75 14.05 16.15 14.0 16.25 13.65 16.05 11.75 15.55 11.45 14.15 11.4 13.85 M-19.85 12.4 L-20.05 12.15 -20.9 12.7 -20.8 12.9 -19.85 12.4 M-17.2 23.25 L-19.05 23.25 -19.05 26.1 -17.0 26.85 -16.0 24.95 -17.2 23.25"/><path stroke="none" fill="url(#gradient6)" d="M5.5 -21.3 L4.1 -22.6 4.75 -23.35 8.5 -22.55 8.2 -22.4 5.5 -21.3 M-21.65 -9.35 L-23.85 -7.25 -24.05 -7.15 -24.35 -9.25 -25.95 -9.8 -28.0 -10.5 -27.95 -12.0 -24.1 -13.25 -23.85 -12.9 -25.15 -12.0 -23.95 -10.75 -22.7 -10.85 -21.65 -9.35 M7.6 -21.25 L7.65 -21.1 7.55 -21.2 7.6 -21.25 M11.4 13.85 L11.45 14.15 11.3 14.45 11.4 13.85"/></g><g id="c11"><g><use transform="matrix(1.0,0.0,0.0,1.0,0.0,0.0)" xlink:href="#c10"/></g></g><g id="c12"><g><use transform="matrix(1.0,0.0,0.0,1.0,0.0,0.0)" xlink:href="#c9"/></g><g><use transform="matrix(0.426116943359,0.105926513672,-0.00611877441406,0.29670715332,21.35,20.0)" filter="url(#filter6)" xlink:href="#c11"/></g></g><filter id="filter6"><feColorMatrix in="SourceGraphic" type="matrix" values="1.0 0.0 0.0 0.0 0.0 0.0 1.0 0.0 0.0 0.0 0.0 0.0 1.0 0.0 0.0 0.0 0.0 0.0 0.51171875 0.0" result="cxform"/><feComposite operator="in" in2="SourceGraphic" result="color-xform"/></filter><g id="c13"><g><use transform="matrix(1.0,0.0,0.0,1.0,0.0,0.0)" xlink:href="#c2"/></g><g><use transform="matrix(0.238861083984,-0.0867004394531,0.10026550293,0.233917236328,34.25,31.15)" xlink:href="#c4"/></g><g><use transform="matrix(0.238861083984,-0.0867004394531,0.10026550293,0.233917236328,4.25,10.3)" xlink:href="#c4"/></g><g><use transform="matrix(0.141098022461,-0.0378112792969,0.111373901367,0.225646972656,20.25,20.65)" filter="url(#filter10)" xlink:href="#c6"/></g><g><use transform="matrix(-0.155029296875,0.0513153076172,0.0841827392578,0.147033691406,22.6,2.3)" filter="url(#filter11)" xlink:href="#c8"/></g><g><use transform="matrix(0.384429931641,-0.0953063964844,0.0953063964844,0.384429931641,10.9,15.25)" xlink:href="#c12"/></g><g><use transform="matrix(0.162948608398,-0.0436706542969,0.128631591797,0.260604858398,20.35,20.95)" filter="url(#filter13)" xlink:href="#c6"/></g></g><filter id="filter10"><feColorMatrix in="SourceGraphic" type="matrix" values="0.0 0.0 0.0 0.0 0.796875 0.0 0.0 0.0 0.0 0.59765625 0.0 0.0 0.0 0.0 0.19921875 0.0 0.0 0.0 1.0 0.0" result="cxform"/><feComposite operator="in" in2="SourceGraphic" result="color-xform"/></filter><filter id="filter11"><feColorMatrix in="SourceGraphic" type="matrix" values="0.0 0.0 0.0 0.0 0.99609375 0.0 0.0 0.0 0.0 0.99609375 0.0 0.0 0.0 0.0 0.99609375 0.0 0.0 0.0 1.0 0.0" result="cxform"/><feComposite operator="in" in2="SourceGraphic" result="color-xform"/></filter><filter id="filter13"><feColorMatrix in="SourceGraphic" type="matrix" values="1.0 0.0 0.0 0.0 0.0 0.0 1.0 0.0 0.0 0.0 0.0 0.0 1.0 0.0 0.0 0.0 0.0 0.0 0.23046875 0.0" result="cxform"/><feComposite operator="in" in2="SourceGraphic" result="color-xform"/></filter></defs><g><g><use transform="matrix(1.0,0.0,0.0,1.0,0.0,0.0)" xlink:href="#c1"/></g><g><use transform="matrix(1.15496826172,0.0,0.0,1.15496826172,5.85,3.95)" xlink:href="#c13"/></g></g></svg>