<?xml version='1.0' encoding='UTF-8'?>
<svg xmlns:xlink="http://www.w3.org/1999/xlink" xmlns="http://www.w3.org/2000/svg" version="1.1" width="60px" height="60px" viewBox="0.0 0.0 60.0 60.0"><defs><g id="c1"><path fill="#000000" fill-opacity="0.00392156862745" d="M0.0 0.0 L60.0 0.0 60.0 60.0 0.0 60.0 0.0 0.0"/></g><g id="c2"><path fill="none" stroke="#000000" stroke-width="1.0" stroke-opacity="0.301960784314" d="M22.3 0.35 Q26.6 -1.0 28.5 3.05 L41.4 31.7 Q43.1 35.4 39.9 36.85 L38.15 37.65 19.65 43.65 Q17.05 44.5 15.35 43.3 14.2 42.55 13.5 40.9 L0.55 12.25 Q-0.6 9.75 0.6 8.25 1.15 7.55 2.2 7.05 2.85 6.6 3.8 6.3 L22.3 0.35"/><path fill="#300525" stroke="none" d="M25.55 0.9 Q26.9 1.6 27.8 3.55 L40.7 32.15 Q42.6 36.3 38.3 37.65 L23.3 42.5 13.15 21.4 4.6 20.9 0.7 12.25 Q-0.45 9.75 0.75 8.25 L29.8 9.75 25.55 0.9 M20.1 43.55 L19.8 43.65 Q17.15 44.45 15.5 43.3 L20.1 43.55"/><path fill="#630a4c" stroke="none" d="M23.3 42.5 L20.1 43.55 15.5 43.3 Q14.35 42.55 13.65 40.9 L4.6 20.9 13.15 21.4 23.3 42.5 M0.75 8.25 Q1.45 7.3 3.1 6.75 L21.65 0.8 25.55 0.9 29.8 9.75 0.75 8.25"/><path fill="none" stroke="#000000" stroke-width="0.5" stroke-opacity="0.301960784314" d="M25.55 0.9 Q26.9 1.6 27.8 3.55 L40.7 32.15 Q42.6 36.3 38.3 37.65 L23.3 42.5 20.1 43.55 19.8 43.65 Q17.15 44.45 15.5 43.3 14.35 42.55 13.65 40.9 L4.6 20.9 0.7 12.25 Q-0.45 9.75 0.75 8.25 1.45 7.3 3.1 6.75 L21.65 0.8 25.55 0.9"/><path fill="#9d147b" stroke="none" d="M14.2 40.5 L1.35 11.8 Q-0.5 7.75 3.8 6.35 L22.3 0.4 Q26.55 -1.0 28.45 3.1 L41.35 31.7 Q43.25 35.85 38.9 37.25 L20.4 43.2 Q16.1 44.55 14.2 40.5"/><path fill="none" stroke="#000000" stroke-width="0.5" stroke-opacity="0.301960784314" d="M14.2 40.5 L1.35 11.8 Q-0.5 7.75 3.8 6.35 L22.3 0.4 Q26.55 -1.0 28.45 3.1 L41.35 31.7 Q43.25 35.85 38.9 37.25 L20.4 43.2 Q16.1 44.55 14.2 40.5"/><path fill="#fcf2cf" stroke="none" d="M9.15 13.6 Q9.8 12.8 9.55 11.6 L9.1 10.55 22.05 6.35 Q24.9 5.45 26.25 7.85 L26.5 8.3 35.8 29.0 35.95 29.35 Q34.75 29.3 34.1 30.1 33.45 30.9 33.7 32.1 L34.0 32.9 20.65 37.2 Q18.8 37.8 17.65 37.0 16.8 36.4 16.3 35.2 L6.95 14.6 6.8 14.4 7.1 14.4 Q8.4 14.45 9.15 13.6"/><path fill="#c47fad" stroke="none" d="M8.25 23.65 L3.35 12.8 Q1.65 9.1 5.5 7.85 L22.25 2.5 Q26.05 1.25 27.75 4.95 L28.25 6.1 35.55 22.3 39.35 30.75 Q41.1 34.5 37.2 35.7 L20.45 41.1 Q16.8 42.25 15.2 39.0 L15.0 38.6 8.25 23.65 M9.15 13.6 Q8.4 14.45 7.1 14.4 L6.8 14.4 6.95 14.6 16.3 35.2 Q16.8 36.4 17.65 37.0 18.8 37.8 20.65 37.2 L34.0 32.9 33.7 32.1 Q33.45 30.9 34.1 30.1 34.75 29.3 35.95 29.35 L35.8 29.0 26.5 8.3 26.25 7.85 Q24.9 5.45 22.05 6.35 L9.1 10.55 9.55 11.6 Q9.8 12.8 9.15 13.6"/><path fill="none" stroke="#ffcc00" stroke-width="1.0" stroke-opacity="0.749019607843" d="M8.25 23.65 L3.35 12.8 Q1.65 9.1 5.5 7.85 L22.25 2.5 Q26.05 1.25 27.75 4.95 L28.25 6.1 M35.55 22.3 L39.35 30.75 Q41.1 34.5 37.2 35.7 L20.45 41.1 Q16.8 42.25 15.2 39.0 L15.0 38.6"/><path fill="none" stroke="#bf9900" stroke-width="1.0" stroke-opacity="0.749019607843" d="M28.25 6.1 L35.55 22.3 M15.0 38.6 L8.25 23.65"/><path fill="none" stroke="#f0b92b" stroke-width="0.5" d="M9.15 13.6 Q9.8 12.8 9.55 11.6 L9.1 10.55 22.05 6.35 Q24.9 5.45 26.25 7.85 L26.5 8.3 35.8 29.0 35.95 29.35 Q34.75 29.3 34.1 30.1 33.45 30.9 33.7 32.1 L34.0 32.9 20.65 37.2 Q18.8 37.8 17.65 37.0 16.8 36.4 16.3 35.2 L6.95 14.6 6.8 14.4 7.1 14.4 Q8.4 14.45 9.15 13.6"/></g><g id="c3"><path fill="#7fdbfe" stroke="none" d="M10.75 4.9 Q10.75 4.6 10.9 4.35 11.25 3.45 11.95 2.75 13.3 1.5 14.35 2.1 15.4 2.7 14.95 4.45 14.7 5.4 14.1 6.15 L13.75 6.5 Q13.1 7.15 12.35 7.35 L11.4 7.2 Q10.95 6.9 10.75 6.4 10.5 5.75 10.75 4.9 M7.5 5.9 Q7.0 5.85 6.6 5.5 6.05 5.0 5.8 4.15 L5.7 3.6 Q5.55 2.65 5.8 1.7 6.25 0.0 7.5 0.0 L7.6 0.0 Q8.85 0.0 9.3 1.7 9.55 2.65 9.4 3.6 L9.3 4.15 8.5 5.5 7.6 5.9 7.5 5.9 M4.35 4.9 Q4.6 5.75 4.35 6.4 L3.7 7.2 2.75 7.35 Q2.0 7.15 1.35 6.5 L1.0 6.15 Q0.4 5.4 0.15 4.45 -0.3 2.7 0.75 2.1 1.8 1.5 3.15 2.75 3.85 3.45 4.2 4.35 L4.35 4.9 M5.5 13.7 Q4.45 13.9 3.65 12.95 2.75 12.0 3.2 10.25 3.7 8.5 5.25 7.6 6.4 6.9 7.55 7.0 8.75 6.9 9.9 7.6 11.45 8.5 11.95 10.25 12.35 12.0 11.5 12.95 10.7 13.9 9.65 13.7 8.55 13.5 7.55 12.6 6.55 13.5 5.5 13.7"/></g><g id="c4"><g><use transform="matrix(1.0,0.0,0.0,1.0,0.0,0.0)" xlink:href="#c3"/></g></g><radialGradient gradientUnits="userSpaceOnUse" r="819.2" cx="0" cy="0" spreadMethod="pad" gradientTransform="matrix(0.0914459228516,0.0,0.0,0.0914459228516,0.6,3.4)" id="gradient1"><stop offset="0.0" stop-color="#ffffff"/><stop offset="1.0" stop-color="#ffffff" stop-opacity="0.0"/></radialGradient><g id="c5"><path stroke="none" fill="url(#gradient1)" d="M36.65 -54.65 Q60.05 -42.0 69.75 -17.95 80.55 8.9 68.0 34.1 55.45 59.35 26.8 68.2 -1.8 77.05 -29.7 64.3 -57.6 51.6 -68.45 24.75 -79.3 -2.05 -66.75 -27.25 L-66.7 -27.3 Q-54.1 -52.5 -25.5 -61.4 3.1 -70.2 31.0 -57.5 L36.65 -54.65"/></g><g id="c6"><g><use transform="matrix(1.0,0.0,0.0,1.0,0.0,0.0)" xlink:href="#c5"/></g></g><radialGradient gradientUnits="userSpaceOnUse" r="819.2" cx="0" cy="0" spreadMethod="pad" gradientTransform="matrix(0.209197998047,0.0,0.0,0.177108764648,67.15,107.2)" id="gradient2"><stop offset="0.356862745098" stop-color="#ffffff"/><stop offset="0.670588235294" stop-opacity="0.0"/></radialGradient><g id="c7"><path fill="none" stroke-linejoin="round" stroke-linecap="round" stroke="url(#gradient2)" stroke-width="0.5" d="M136.55 165.8 L68.6 106.0 68.4 106.0 118.25 201.5 M68.2 105.7 L68.25 105.8 68.25 105.75 68.2 105.7 0.0 45.7 M68.25 105.8 L68.3 105.85 68.3 105.8 68.25 105.75 49.95 0.05 M0.05 97.7 L68.15 105.95 68.25 105.85 68.25 105.8 M68.3 105.85 L68.25 105.85 68.3 106.0 68.3 105.85 68.3 105.8 68.35 105.8 68.3 105.8 86.6 18.35 M50.0 193.2 L68.3 106.0 68.15 105.95 18.25 151.55 M68.4 106.0 L68.3 106.0 86.55 211.5 M68.4 106.0 L68.3 105.85 M68.6 106.0 L68.35 105.8 118.25 60.15 M136.6 114.25 L68.6 106.0 M68.2 105.7 L18.25 10.05"/></g><g id="c8"><g><use transform="matrix(1.0,0.0,0.0,1.0,0.0,0.0)" xlink:href="#c7"/></g></g><linearGradient gradientUnits="userSpaceOnUse" x1="-819.2" x2="819.2" spreadMethod="pad" gradientTransform="matrix(-0.00149536132812,-0.00163269042969,-0.00132751464844,0.00120544433594,13.2,16.75)" id="gradient3"><stop offset="0.0" stop-color="#ffcc00"/><stop offset="1.0" stop-color="#ffff00"/></linearGradient><linearGradient gradientUnits="userSpaceOnUse" x1="-819.2" x2="819.2" spreadMethod="pad" gradientTransform="matrix(0.00106811523438,0.00115966796875,0.000411987304688,-0.000381469726562,13.55,17.25)" id="gradient4"><stop offset="0.0" stop-color="#ffcc00"/><stop offset="1.0" stop-color="#ff9900"/></linearGradient><linearGradient gradientUnits="userSpaceOnUse" x1="-819.2" x2="819.2" spreadMethod="pad" gradientTransform="matrix(-0.000137329101562,0.000350952148438,9.1552734375e-05,3.0517578125e-05,14.65,17.45)" id="gradient5"><stop offset="0.0" stop-color="#ffcc00"/><stop offset="1.0" stop-color="#ff9900"/></linearGradient><linearGradient gradientUnits="userSpaceOnUse" x1="-819.2" x2="819.2" spreadMethod="pad" gradientTransform="matrix(-0.000701904296875,-0.000701904296875,-0.000137329101562,0.0001220703125,13.3,17.0)" id="gradient6"><stop offset="0.0" stop-color="#ff6600"/><stop offset="1.0" stop-color="#ff9900"/></linearGradient><linearGradient gradientUnits="userSpaceOnUse" x1="-819.2" x2="819.2" spreadMethod="pad" gradientTransform="matrix(0.000930786132812,0.000335693359375,6.103515625e-05,-0.00018310546875,13.5,18.25)" id="gradient7"><stop offset="0.0" stop-color="#ffcc00"/><stop offset="1.0" stop-color="#ff9900"/></linearGradient><linearGradient gradientUnits="userSpaceOnUse" x1="-819.2" x2="819.2" spreadMethod="pad" gradientTransform="matrix(-0.000457763671875,-0.000167846679688,-1.52587890625e-05,4.57763671875e-05,13.1,18.1)" id="gradient8"><stop offset="0.0" stop-color="#ff6600"/><stop offset="1.0" stop-color="#ff9900"/></linearGradient><linearGradient gradientUnits="userSpaceOnUse" x1="-819.2" x2="819.2" spreadMethod="pad" gradientTransform="matrix(0.000350952148438,-0.001953125,-0.00199890136719,-0.000381469726562,22.1,11.65)" id="gradient9"><stop offset="0.0" stop-color="#ffcc00"/><stop offset="1.0" stop-color="#ffff00"/></linearGradient><linearGradient gradientUnits="userSpaceOnUse" x1="-819.2" x2="819.2" spreadMethod="pad" gradientTransform="matrix(0.0003662109375,0.000442504882812,0.0001220703125,-4.57763671875e-05,21.2,10.45)" id="gradient10"><stop offset="0.0" stop-color="#ffcc00"/><stop offset="1.0" stop-color="#ff9900"/></linearGradient><linearGradient gradientUnits="userSpaceOnUse" x1="-819.2" x2="819.2" spreadMethod="pad" gradientTransform="matrix(0.000198364257812,-0.000778198242188,-0.000244140625,-6.103515625e-05,22.9,11.95)" id="gradient11"><stop offset="0.0" stop-color="#ff6600"/><stop offset="1.0" stop-color="#ff9900"/></linearGradient><linearGradient gradientUnits="userSpaceOnUse" x1="-819.2" x2="819.2" spreadMethod="pad" gradientTransform="matrix(-1.52587890625e-05,0.00148010253906,0.00131225585938,0.0001220703125,22.35,12.45)" id="gradient12"><stop offset="0.0" stop-color="#ffcc00"/><stop offset="1.0" stop-color="#ff9900"/></linearGradient><linearGradient gradientUnits="userSpaceOnUse" x1="-819.2" x2="819.2" spreadMethod="pad" gradientTransform="matrix(-0.000213623046875,-0.00048828125,-0.000137329101562,3.0517578125e-05,21.95,12.7)" id="gradient13"><stop offset="0.0" stop-color="#ff6600"/><stop offset="1.0" stop-color="#ff9900"/></linearGradient><g id="c9"><path fill="#f0f0d2" stroke="none" d="M26.25 18.75 L26.4 18.8 27.25 19.5 27.5 19.95 27.95 19.8 28.45 19.0 Q27.8 17.9 26.9 17.45 L25.8 17.2 25.8 17.15 Q25.6 17.35 25.65 17.7 L26.25 18.75 M27.6 20.7 L27.6 21.0 27.4 21.5 27.3 21.75 26.85 21.55 Q26.25 21.6 26.8 22.4 L27.0 22.55 26.85 23.15 26.75 24.1 Q26.85 24.45 27.4 24.45 L27.7 24.15 28.0 23.2 28.0 23.05 28.75 21.6 28.9 20.35 28.15 20.3 27.6 20.7 M26.8 26.65 L27.1 27.35 28.15 28.1 28.2 28.1 28.2 28.05 28.4 27.5 28.4 27.2 27.95 26.0 Q27.5 25.15 27.1 25.15 L26.7 25.5 26.8 26.65"/><path fill="#e6e4b3" stroke="none" d="M26.25 18.75 L25.65 17.7 Q25.6 17.35 25.8 17.15 24.4 17.0 23.7 18.05 L23.8 21.35 24.75 19.65 24.9 19.35 24.95 19.2 Q25.6 18.55 26.25 18.75 M28.45 19.0 L27.95 19.8 27.5 19.95 27.6 20.7 28.15 20.3 28.9 20.35 28.8 19.9 28.45 19.0 M27.7 24.15 L27.4 24.45 26.75 24.5 26.7 24.5 26.7 25.45 26.7 25.5 27.1 25.15 Q27.5 25.15 27.95 26.0 L27.85 25.6 Q27.6 24.85 27.7 24.15 M26.8 22.4 Q26.25 21.6 26.85 21.55 L26.05 21.25 25.05 21.2 23.85 21.65 23.85 21.95 24.6 22.9 24.95 22.6 25.55 22.35 25.7 22.3 26.7 22.35 26.8 22.4"/><path fill="#ffffff" stroke="none" d="M27.5 19.95 L27.25 19.5 26.4 18.8 26.25 18.75 Q25.6 18.55 24.95 19.2 L24.9 19.35 24.95 19.3 Q25.5 18.95 25.9 18.85 L26.5 19.0 26.75 19.15 27.45 20.3 27.45 20.45 27.35 21.45 27.3 21.75 27.4 21.5 27.6 21.0 27.6 20.7 27.5 19.95 M27.4 24.45 Q26.85 24.45 26.75 24.1 L26.85 23.15 27.0 22.55 26.8 22.4 26.7 22.35 25.7 22.3 25.55 22.35 24.95 22.6 24.6 22.9 24.65 23.05 25.05 22.85 25.1 22.85 25.7 22.6 26.85 22.55 26.5 23.7 26.45 24.05 26.45 24.5 26.5 24.95 26.65 26.25 26.8 26.65 26.7 25.5 26.7 25.45 26.7 24.5 26.75 24.5 27.4 24.45"/><path fill="#cac960" stroke="none" d="M27.45 20.45 L27.45 20.3 26.75 19.15 26.5 19.0 25.9 18.85 Q25.5 18.95 24.95 19.3 L24.9 19.35 24.75 19.65 25.0 19.4 Q25.55 19.05 26.05 19.1 L26.65 19.5 Q27.25 20.0 27.2 20.65 L27.45 20.45 M24.65 23.05 L24.75 23.2 25.2 23.05 25.8 22.85 26.4 22.75 26.85 22.55 25.7 22.6 25.1 22.85 25.05 22.85 24.65 23.05 M27.2 27.65 L27.5 28.3 28.4 28.35 Q27.9 28.5 27.2 27.65 M26.5 23.7 Q26.45 23.55 26.25 23.7 L26.1 24.05 26.1 24.55 26.15 24.85 26.3 24.85 26.45 24.5 26.45 24.05 26.5 23.7"/><path fill="#d5d580" stroke="none" d="M27.3 21.75 L27.35 21.45 27.45 20.45 27.2 20.65 27.15 20.9 27.1 20.9 26.85 21.55 27.3 21.75 M26.25 25.35 L26.65 26.25 26.5 24.95 26.45 24.5 26.3 24.85 26.15 24.85 26.25 25.35 M26.4 22.75 L26.15 23.45 26.1 24.05 26.25 23.7 Q26.45 23.55 26.5 23.7 L26.85 22.55 26.4 22.75"/><path fill="#f9f8ec" stroke="none" d="M27.1 27.35 L27.2 27.65 Q27.9 28.5 28.4 28.35 L28.4 28.3 28.45 27.6 28.4 27.2 28.4 27.5 28.2 28.05 28.2 28.1 28.15 28.1 27.1 27.35"/><path fill="none" stroke="#000000" stroke-width="0.5" stroke-opacity="0.301960784314" d="M25.8 17.15 L25.8 17.2 26.9 17.45 Q27.8 17.9 28.45 19.0 M24.9 19.35 L24.95 19.2 M28.9 20.35 L28.8 19.9 28.45 19.0 M28.9 20.35 L28.75 21.6 28.0 23.05 28.0 23.2 27.7 24.15 M26.85 21.55 L27.3 21.75 M24.75 19.65 L24.9 19.35 M27.2 20.65 Q27.25 20.0 26.65 19.5 L26.05 19.1 Q25.55 19.05 25.0 19.4 L24.75 19.65 23.8 21.35 23.7 18.05 Q24.4 17.0 25.8 17.15 M24.6 22.9 L23.85 21.95 23.85 21.65 25.05 21.2 26.05 21.25 26.85 21.55 27.1 20.9 27.15 20.9 27.2 20.65 M23.85 21.65 L23.8 21.35 M24.6 22.9 L24.65 23.05 24.75 23.2 26.0 24.85 26.25 25.35 26.65 26.25 26.8 26.65 27.1 27.35 27.2 27.65 27.5 28.3 28.4 28.35 28.4 28.3 28.45 27.6 28.4 27.2 27.95 26.0 27.85 25.6 Q27.6 24.85 27.7 24.15 M26.1 24.05 L26.15 23.45 26.4 22.75 25.8 22.85 25.2 23.05 24.75 23.2 M26.1 24.05 L26.1 24.55 26.15 24.85 26.25 25.35"/><path stroke="none" fill="url(#gradient3)" d="M12.65 14.85 Q11.9 16.35 12.95 17.6 12.5 17.25 12.25 17.2 12.25 17.95 12.65 18.35 L13.2 18.55 13.65 18.55 13.75 18.55 14.55 18.2 14.7 18.05 15.05 17.3 15.05 17.15 14.75 16.2 Q14.9 16.7 14.5 17.1 L13.8 16.15 13.25 15.85 Q12.55 15.55 12.65 14.85 M13.15 16.3 L13.65 16.65 14.2 17.25 Q14.45 17.6 14.3 18.05 13.8 18.1 13.4 17.7 L13.1 17.35 13.0 17.25 Q12.5 16.3 12.6 15.65 12.7 16.05 13.15 16.3 M14.85 17.3 L14.5 17.75 14.65 17.3 14.85 16.95 14.85 17.3 M13.35 18.35 L13.25 18.3 Q12.8 18.15 12.7 17.8 L13.35 18.0 13.95 18.25 13.35 18.35"/><path stroke="none" fill="url(#gradient4)" d="M13.15 16.3 Q12.7 16.05 12.6 15.65 12.5 16.3 13.0 17.25 L13.1 17.35 13.4 17.7 Q13.8 18.1 14.3 18.05 14.45 17.6 14.2 17.25 L13.65 16.65 13.15 16.3 M13.8 17.25 L14.1 17.8 13.5 17.4 13.35 17.2 12.95 16.45 13.6 16.95 13.8 17.25"/><path stroke="none" fill="url(#gradient5)" d="M14.85 17.3 L14.85 16.95 14.65 17.3 14.5 17.75 14.85 17.3"/><path stroke="none" fill="url(#gradient6)" d="M13.8 17.25 L13.6 16.95 12.95 16.45 13.35 17.2 13.5 17.4 14.1 17.8 13.8 17.25"/><path stroke="none" fill="url(#gradient7)" d="M13.7 18.25 L13.3 18.2 12.95 17.95 13.3 18.05 13.7 18.25 M13.35 18.35 L13.95 18.25 13.35 18.0 12.7 17.8 Q12.8 18.15 13.25 18.3 L13.35 18.35"/><path stroke="none" fill="url(#gradient8)" d="M13.7 18.25 L13.3 18.05 12.95 17.95 13.3 18.2 13.7 18.25"/><path fill="#ffff98" stroke="none" d="M15.3 18.9 L15.25 19.0 14.8 19.25 14.5 19.2 14.4 18.95 14.4 18.9 14.6 18.55 14.85 18.35 15.1 18.25 15.45 18.25 15.5 18.5 15.5 18.6 15.3 18.9 M14.75 19.4 L15.3 19.0 15.65 18.5 15.55 18.1 15.1 18.1 14.6 18.45 Q14.3 18.7 14.25 19.0 14.15 19.3 14.35 19.4 L14.75 19.4"/><path fill="#ffde4f" stroke="none" d="M14.4 18.9 L14.4 18.95 14.5 19.2 14.8 19.25 15.25 19.0 15.3 18.9 Q14.9 18.65 14.4 18.9 M15.5 18.6 L15.5 18.5 15.45 18.25 15.1 18.25 14.85 18.35 Q14.85 18.55 15.5 18.6"/><path fill="#f4a33c" stroke="none" d="M15.3 18.9 L15.5 18.6 Q14.85 18.55 14.85 18.35 L14.6 18.55 14.4 18.9 Q14.9 18.65 15.3 18.9"/><path fill="none" stroke="#000000" stroke-width="0.5" stroke-opacity="0.301960784314" d="M14.75 19.4 L15.3 19.0 15.65 18.5 15.55 18.1 15.1 18.1 14.6 18.45 Q14.3 18.7 14.25 19.0 14.15 19.3 14.35 19.4 L14.75 19.4"/><path fill="#f9f8ec" stroke="none" d="M16.4 18.25 L16.45 18.05 16.4 18.25 16.3 19.0 16.4 18.9 16.3 19.0 16.25 19.45 16.35 19.45 16.4 19.05 Q17.9 18.05 19.65 17.6 L19.75 17.5 Q17.9 17.95 16.4 18.9 L16.55 18.1 Q17.9 17.3 19.55 17.05 L19.35 16.95 Q17.9 17.15 16.45 18.05 L15.5 18.7 15.45 18.9 16.4 18.25"/><path fill="#e6e4b3" stroke="none" d="M19.75 17.5 L19.65 17.6 19.35 18.1 Q18.85 18.6 17.95 18.95 L16.4 19.45 Q16.25 20.35 16.65 21.45 L17.85 21.1 Q19.6 20.4 21.75 18.0 L21.95 17.2 21.75 17.15 19.6 17.05 19.75 17.2 19.75 17.5 21.75 17.15 19.75 17.5 M15.5 18.7 Q15.55 18.5 15.85 18.25 16.35 17.7 17.2 17.3 L18.8 16.9 19.35 16.95 21.4 17.0 19.45 16.65 Q18.15 16.7 16.55 17.5 15.85 17.9 15.75 18.05 L15.4 18.75 15.5 18.7 M14.05 20.1 Q13.6 21.35 14.1 22.7 L14.55 23.75 15.25 24.75 Q17.1 26.7 18.85 26.45 L20.15 26.0 20.15 25.8 Q19.2 26.35 18.15 26.25 16.85 25.65 16.35 24.9 L15.65 23.9 15.5 23.65 Q14.8 22.3 14.9 21.0 L16.4 21.45 Q16.15 20.5 16.25 19.45 15.6 19.45 15.5 19.15 L15.45 18.9 15.3 19.1 Q14.95 19.95 14.9 21.0 L14.75 20.95 Q14.75 20.0 15.15 18.95 L15.45 18.3 Q14.55 19.25 14.2 20.35 L14.05 20.1 M14.2 20.35 L14.75 20.9 14.75 20.95 Q14.7 22.3 15.35 23.6 L15.45 23.85 16.2 24.9 16.6 25.35 17.6 26.15 16.75 25.75 Q15.85 25.2 15.3 24.45 L14.85 23.8 14.55 23.15 Q14.05 21.9 14.2 20.35 M16.65 21.45 L16.4 21.45 Q16.6 22.3 17.1 23.0 L17.7 23.7 18.1 24.1 18.7 24.5 18.9 24.5 17.95 23.65 17.25 22.75 16.65 21.45 M18.85 26.45 L17.6 26.15 18.85 26.45"/><path fill="#f0f0d2" stroke="none" d="M16.4 18.25 L15.45 18.9 15.5 18.7 16.45 18.05 Q17.9 17.15 19.35 16.95 L19.55 17.05 Q17.9 17.3 16.55 18.1 L16.4 18.9 Q17.9 17.95 19.75 17.5 L19.75 17.2 19.6 17.05 21.75 17.15 21.95 17.2 21.95 17.1 21.75 17.15 21.95 17.1 21.4 17.0 21.95 17.1 Q19.5 15.7 16.1 17.65 15.8 17.8 15.65 17.95 14.45 19.0 14.05 20.1 L14.2 20.35 Q14.55 19.25 15.45 18.3 L15.15 18.95 Q14.75 20.0 14.75 20.95 L14.9 21.0 Q14.95 19.95 15.3 19.1 L15.45 18.9 15.5 19.15 Q15.6 19.45 16.25 19.45 16.15 20.5 16.4 21.45 L16.65 21.45 Q16.25 20.35 16.4 19.45 L17.95 18.95 Q18.85 18.6 19.35 18.1 L19.65 17.6 Q17.9 18.05 16.4 19.05 L16.35 19.45 16.25 19.45 16.3 19.0 16.4 18.25 M19.35 16.95 L18.8 16.9 17.2 17.3 Q16.35 17.7 15.85 18.25 15.55 18.5 15.5 18.7 L15.4 18.75 15.75 18.05 Q15.85 17.9 16.55 17.5 18.15 16.7 19.45 16.65 L21.4 17.0 19.35 16.95 M15.4 18.75 L15.15 18.95 15.4 18.75 M15.45 18.3 L15.65 17.95 15.45 18.3"/><path fill="#cac960" stroke="none" d="M20.15 25.8 L20.3 25.1 20.75 22.8 Q19.75 24.2 18.9 24.5 L18.7 24.5 Q17.5 25.2 16.35 24.9 16.85 25.65 18.15 26.25 19.2 26.35 20.15 25.8 M16.2 24.9 L15.3 24.45 Q15.85 25.2 16.75 25.75 L17.6 26.15 16.6 25.35 16.2 24.9 M20.3 25.1 Q19.45 25.0 18.7 24.5 19.45 25.0 20.3 25.1"/><path fill="#a6a637" stroke="none" d="M21.75 18.0 Q19.6 20.4 17.85 21.1 L17.25 22.75 17.95 23.65 18.9 24.5 Q19.75 24.2 20.75 22.8 L21.75 18.0 M15.5 23.65 L15.65 23.9 16.35 24.9 Q17.5 25.2 18.7 24.5 L18.1 24.1 17.7 23.7 17.1 23.0 Q16.6 23.6 15.8 23.65 L15.5 23.65 M16.2 24.9 L15.45 23.85 15.35 23.6 Q14.9 23.5 14.55 23.15 L14.85 23.8 15.3 24.45 16.2 24.9"/><path fill="#d5d580" stroke="none" d="M17.85 21.1 L16.65 21.45 17.25 22.75 17.85 21.1 M14.75 20.95 L14.75 20.9 14.2 20.35 Q14.05 21.9 14.55 23.15 14.9 23.5 15.35 23.6 14.7 22.3 14.75 20.95 M16.4 21.45 L14.9 21.0 Q14.8 22.3 15.5 23.65 L15.8 23.65 Q16.6 23.6 17.1 23.0 16.6 22.3 16.4 21.45"/><path fill="none" stroke="#000000" stroke-width="0.5" stroke-opacity="0.301960784314" d="M16.45 18.05 L16.4 18.25 M15.5 18.7 L16.45 18.05 Q17.9 17.15 19.35 16.95 L21.4 17.0 21.95 17.1 Q19.5 15.7 16.1 17.65 15.8 17.8 15.65 17.95 14.45 19.0 14.05 20.1 13.6 21.35 14.1 22.7 L14.55 23.75 15.25 24.75 Q17.1 26.7 18.85 26.45 L20.15 26.0 20.15 25.8 20.3 25.1 20.75 22.8 21.75 18.0 M16.4 18.9 L16.3 19.0 16.4 18.25 M19.75 17.5 L21.75 17.15 21.95 17.1 21.95 17.2 21.75 18.0 M16.25 19.45 L16.3 19.0 M14.75 20.95 Q14.75 20.0 15.15 18.95 L15.4 18.75 15.5 18.7 M15.45 18.3 L15.15 18.95 M15.65 17.95 L15.45 18.3 M16.25 19.45 Q16.15 20.5 16.4 21.45 16.6 22.3 17.1 23.0 M18.7 24.5 L18.1 24.1 17.7 23.7 17.1 23.0 M15.35 23.6 L15.45 23.85 16.2 24.9 16.6 25.35 17.6 26.15 18.85 26.45 M15.35 23.6 Q14.7 22.3 14.75 20.95 M18.7 24.5 Q19.45 25.0 20.3 25.1 M16.4 18.9 Q17.9 17.95 19.75 17.5"/><path fill="#cc6b22" stroke="none" d="M20.6 17.95 Q22.1 17.4 23.6 17.95 L23.7 17.95 23.0 17.5 20.1 17.9 Q19.45 18.15 18.8 18.7 L18.15 19.3 18.0 19.5 17.0 21.5 Q16.8 22.3 16.95 23.1 L17.4 24.25 Q17.8 25.1 18.85 25.8 L19.65 25.95 18.45 25.3 Q17.85 24.8 17.55 23.95 17.1 22.9 17.25 21.75 17.35 21.2 17.6 20.6 L17.65 20.45 18.45 19.4 Q19.1 18.55 20.15 18.1 L20.6 17.95"/><path fill="#f9f8ec" stroke="none" d="M21.9 17.9 L22.25 17.95 22.35 17.95 22.45 17.9 Q23.85 18.05 24.7 18.7 25.7 19.7 26.0 20.95 L26.1 21.75 26.05 22.35 25.9 22.9 Q25.25 24.8 22.75 25.65 21.7 26.05 21.9 26.15 22.35 26.15 22.45 26.45 L22.45 26.55 22.7 26.9 Q22.5 26.35 22.7 26.15 L24.4 25.2 25.5 24.15 25.6 24.0 25.7 23.85 25.6 24.0 Q25.5 24.35 25.85 24.5 L25.9 24.55 26.55 25.05 26.95 25.65 27.0 26.3 26.85 26.9 26.8 27.15 Q26.55 26.65 25.75 26.3 26.7 27.1 26.75 27.6 L27.15 26.9 27.15 26.8 Q27.4 26.0 26.95 25.3 26.6 24.5 25.95 24.3 25.6 24.1 25.7 23.85 L26.0 23.3 Q26.7 21.55 26.0 20.0 25.3 18.5 23.7 17.95 L23.6 17.95 Q22.1 17.4 20.6 17.95 L21.9 17.9 M27.35 28.75 L27.15 28.05 Q27.1 27.65 27.2 27.5 L27.55 27.9 27.25 27.0 Q27.0 27.3 27.05 27.85 L27.1 28.05 27.35 28.75 M26.3 28.3 L26.2 28.35 26.15 28.3 Q25.8 28.45 25.8 28.7 L25.75 28.8 26.0 29.1 25.9 28.75 26.0 28.5 26.25 28.6 26.85 28.95 26.3 28.3"/><path fill="#ffde4f" stroke="none" d="M23.0 17.5 L22.4 17.25 19.5 17.45 Q19.05 17.7 19.7 17.95 L20.1 17.9 23.0 17.5 M16.55 19.9 Q16.15 20.75 16.15 21.8 L16.2 22.85 Q16.75 23.45 16.95 23.1 16.8 22.3 17.0 21.5 L18.0 19.5 Q17.35 19.1 16.55 19.9 M26.1 27.65 L26.15 27.8 26.6 27.4 26.5 27.25 Q26.2 27.15 26.1 27.65"/><path fill="#f0f0d2" stroke="none" d="M22.45 17.9 L22.35 17.95 22.25 17.95 21.9 17.9 20.85 18.05 Q19.85 18.4 19.6 19.3 19.5 19.65 19.55 20.0 L19.8 20.4 20.5 20.45 24.45 20.75 Q22.35 21.95 23.0 22.35 L24.05 22.15 Q25.1 21.8 25.4 20.95 25.6 20.1 24.95 19.25 24.3 18.4 23.05 18.05 L22.45 17.9 M27.0 26.3 Q26.85 25.35 26.25 25.15 L25.1 25.05 24.4 25.6 Q24.3 26.4 25.0 26.9 L26.0 27.0 25.85 26.65 25.75 26.3 Q26.55 26.65 26.8 27.15 L26.85 26.9 27.0 26.3 M27.55 27.9 L27.2 27.5 Q27.1 27.65 27.15 28.05 L27.35 28.75 27.65 29.35 27.65 29.25 Q27.8 28.75 27.55 27.9 M26.0 29.1 L26.3 29.5 26.4 29.55 27.0 29.75 27.45 29.65 26.85 28.95 26.25 28.6 26.0 28.5 25.9 28.75 26.0 29.1"/><path fill="#e6e4b3" stroke="none" d="M22.45 17.9 L23.05 18.05 Q24.3 18.4 24.95 19.25 25.6 20.1 25.4 20.95 25.1 21.8 24.05 22.15 L23.0 22.35 Q22.35 21.95 24.45 20.75 L20.5 20.45 19.8 20.4 19.55 20.0 Q19.5 19.65 19.6 19.3 19.85 18.4 20.85 18.05 L21.9 17.9 20.6 17.95 20.15 18.1 Q19.1 18.55 18.45 19.4 17.0 22.9 20.85 24.6 23.0 25.05 24.85 23.6 25.95 22.7 26.0 20.95 25.7 19.7 24.7 18.7 23.85 18.05 22.45 17.9 M24.4 25.6 Q24.0 26.05 23.75 26.7 23.55 27.7 25.35 28.4 L25.1 28.35 24.95 28.4 24.6 28.35 25.15 28.9 25.25 28.95 26.3 29.5 26.0 29.1 25.75 28.8 25.8 28.7 Q25.8 28.45 26.15 28.3 L26.2 28.35 26.3 28.3 26.1 28.1 26.1 27.9 26.15 27.8 26.1 27.65 26.0 27.0 25.0 26.9 Q24.3 26.4 24.4 25.6 M27.25 27.0 L27.15 26.8 27.15 26.9 26.75 27.6 26.7 27.75 26.85 28.1 27.6 29.4 27.65 29.35 27.35 28.75 27.1 28.05 27.05 27.85 Q27.0 27.3 27.25 27.0 M26.1 28.1 L25.95 28.15 25.35 28.4 25.95 28.15 26.1 28.1"/><path fill="#f4a33c" stroke="none" d="M20.1 17.9 L19.7 17.95 Q18.9 17.9 18.9 17.65 17.7 18.3 16.95 19.2 L18.15 19.3 18.8 18.7 Q19.45 18.15 20.1 17.9 M16.2 22.85 L16.3 23.25 Q17.1 25.65 19.1 26.1 L20.15 26.1 20.0 26.05 19.7 25.95 19.65 25.95 18.85 25.8 Q17.8 25.1 17.4 24.25 L16.95 23.1 Q16.75 23.45 16.2 22.85 M25.85 26.65 L26.0 27.0 26.1 27.65 Q26.2 27.15 26.5 27.25 L25.85 26.65"/><path fill="#ffff98" stroke="none" d="M19.7 17.95 Q19.05 17.7 19.5 17.45 L22.4 17.25 19.55 17.3 18.9 17.65 Q18.9 17.9 19.7 17.95 M16.95 19.2 L16.55 19.9 Q17.35 19.1 18.0 19.5 L18.15 19.3 16.95 19.2 M26.1 27.9 L26.3 27.8 26.45 27.75 26.65 27.55 26.6 27.4 26.15 27.8 26.1 27.9"/><path fill="#a6a637" stroke="none" d="M25.6 24.0 L25.5 24.15 24.4 25.2 22.7 26.15 Q22.5 26.35 22.7 26.9 L22.8 27.1 Q23.4 28.05 24.95 28.4 L25.1 28.35 Q24.2 28.2 23.65 27.65 22.8 26.7 23.35 26.25 L25.0 24.85 Q25.55 24.45 25.85 24.5 25.5 24.35 25.6 24.0 M22.75 25.65 Q25.25 24.8 25.9 22.9 24.85 24.65 22.35 25.35 20.3 25.85 18.75 24.45 17.55 23.3 17.65 21.45 L17.65 20.45 17.6 20.6 Q17.35 21.2 17.25 21.75 17.5 23.7 18.4 24.75 19.8 26.15 22.25 25.8 L22.75 25.65 M26.3 27.8 L26.55 28.25 26.85 28.1 26.7 27.75 26.45 27.75 26.3 27.8 M25.15 28.9 L24.6 28.35 24.1 28.3 23.95 28.2 24.8 28.9 25.0 29.0 25.15 28.9"/><path fill="#ffffff" stroke="none" d="M18.45 19.4 L17.65 20.45 17.65 21.45 Q17.75 23.2 19.8 24.3 L20.85 24.6 Q17.0 22.9 18.45 19.4 M26.55 25.05 L25.55 24.85 25.1 25.05 26.25 25.15 Q26.85 25.35 27.0 26.3 L26.95 25.65 26.55 25.05"/><path fill="#cac960" stroke="none" d="M22.7 26.9 L22.45 26.55 22.7 27.2 23.25 27.85 Q23.55 28.1 23.95 28.2 L24.1 28.3 24.6 28.35 24.95 28.4 Q23.4 28.05 22.8 27.1 L22.7 26.9 M21.9 26.15 Q21.7 26.05 22.75 25.65 L22.25 25.8 Q19.8 26.15 18.4 24.75 17.5 23.7 17.25 21.75 17.1 22.9 17.55 23.95 17.85 24.8 18.45 25.3 L19.65 25.95 19.7 25.95 20.0 26.05 20.15 26.1 21.9 26.15 M25.9 22.9 L26.05 22.35 26.1 21.75 26.0 20.95 Q25.95 22.7 24.85 23.6 23.0 25.05 20.85 24.6 L19.8 24.3 Q17.75 23.2 17.65 21.45 17.55 23.3 18.75 24.45 20.3 25.85 22.35 25.35 24.85 24.65 25.9 22.9 M25.1 25.05 L25.55 24.85 26.55 25.05 25.9 24.55 25.85 24.5 Q25.55 24.45 25.0 24.85 L23.35 26.25 Q22.8 26.7 23.65 27.65 24.2 28.2 25.1 28.35 L25.35 28.4 Q23.55 27.7 23.75 26.7 24.0 26.05 24.4 25.6 L25.1 25.05 M25.75 26.3 L25.85 26.65 26.5 27.25 26.6 27.4 26.65 27.55 26.45 27.75 26.7 27.75 26.75 27.6 Q26.7 27.1 25.75 26.3 M26.55 28.25 L27.3 29.35 27.6 29.4 26.85 28.1 26.55 28.25 M26.3 29.5 L25.25 28.95 25.15 28.9 25.0 29.0 25.0 29.05 Q26.1 29.7 27.0 29.75 L26.4 29.55 26.3 29.5"/><path fill="none" stroke="#000000" stroke-width="0.5" stroke-opacity="0.301960784314" d="M20.6 17.95 Q22.1 17.4 23.6 17.95 L23.7 17.95 Q25.3 18.5 26.0 20.0 26.7 21.55 26.0 23.3 L25.7 23.85 25.6 24.0 25.5 24.15 24.4 25.2 M22.45 26.55 L22.45 26.45 Q22.35 26.15 21.9 26.15 M22.4 17.25 L23.0 17.5 23.7 17.95 M22.4 17.25 L19.55 17.3 18.9 17.65 Q17.7 18.3 16.95 19.2 L16.55 19.9 Q16.15 20.75 16.15 21.8 L16.2 22.85 16.3 23.25 Q17.1 25.65 19.1 26.1 L20.15 26.1 21.9 26.15 M20.6 17.95 L20.15 18.1 Q19.1 18.55 18.45 19.4 L17.65 20.45 17.6 20.6 Q17.35 21.2 17.25 21.75 17.1 22.9 17.55 23.95 17.85 24.8 18.45 25.3 L19.65 25.95 M19.7 25.95 L20.0 26.05 20.15 26.1 M25.35 28.4 L25.1 28.35 M27.15 26.8 Q27.4 26.0 26.95 25.3 26.6 24.5 25.95 24.3 25.6 24.1 25.7 23.85 M25.75 26.3 L25.85 26.65 26.0 27.0 M26.5 27.25 L25.85 26.65 M27.25 27.0 L27.15 26.8 27.15 26.9 26.75 27.6 26.7 27.75 26.45 27.75 26.3 27.8 26.55 28.25 27.3 29.35 27.6 29.4 27.65 29.35 M27.25 27.0 L27.55 27.9 Q27.8 28.75 27.65 29.25 L27.65 29.35 M26.3 28.3 L26.1 28.1 26.1 27.9 26.3 27.8 M26.15 27.8 L26.1 27.9 M26.1 27.65 L26.15 27.8 M26.6 27.4 L26.65 27.55 26.45 27.75 M24.6 28.35 L24.95 28.4 25.1 28.35 M26.1 27.65 L26.0 27.0 M26.6 27.4 L26.5 27.25 M22.45 26.55 L22.7 27.2 23.25 27.85 Q23.55 28.1 23.95 28.2 L24.8 28.9 25.0 29.0 25.0 29.05 Q26.1 29.7 27.0 29.75 L27.45 29.65 26.85 28.95 26.3 28.3 M23.95 28.2 L24.1 28.3 24.6 28.35 M25.35 28.4 L25.95 28.15 26.1 28.1"/><path fill="#ffff98" stroke="none" d="M29.0 17.55 L28.55 16.55 Q28.1 16.25 27.8 17.0 L27.25 17.6 27.15 17.95 27.95 17.05 Q28.3 16.45 28.5 16.85 L28.85 18.1 29.0 17.55 M27.3 18.2 L27.0 18.25 27.05 18.45 27.45 18.3 Q28.05 18.45 28.05 19.0 L28.15 18.65 28.1 18.5 27.8 18.25 27.3 18.2 M27.6 19.25 L27.65 19.1 Q27.65 18.9 27.15 18.85 L26.9 18.95 Q27.3 18.95 27.4 19.15 L27.4 19.4 27.6 19.25"/><path fill="#f4a33c" stroke="none" d="M28.85 18.1 L28.5 16.85 Q28.3 16.45 27.95 17.05 L27.15 17.95 27.3 18.2 27.8 18.25 28.1 18.5 Q28.55 18.65 28.85 18.1 M27.65 19.1 Q27.85 19.3 28.05 19.0 28.05 18.45 27.45 18.3 L27.05 18.45 Q26.9 18.75 27.15 18.85 27.65 18.9 27.65 19.1 M26.9 18.95 Q26.65 19.25 27.0 19.4 L27.4 19.4 27.4 19.15 Q27.3 18.95 26.9 18.95"/><path fill="#cc6b22" stroke="none" d="M27.3 18.2 L27.15 17.95 26.45 18.4 26.1 18.6 Q25.8 19.3 26.15 19.8 26.4 20.45 27.2 20.35 L27.95 19.55 28.05 19.0 Q27.85 19.3 27.65 19.1 L27.6 19.25 27.6 19.35 Q27.25 20.05 26.65 19.75 26.0 19.1 26.5 18.65 L27.0 18.25 27.3 18.2 M27.05 18.45 Q26.5 18.7 26.45 19.05 26.6 19.65 27.0 19.65 L27.4 19.4 27.0 19.4 Q26.65 19.25 26.9 18.95 L27.15 18.85 Q26.9 18.75 27.05 18.45 M28.1 18.5 L28.15 18.65 28.2 19.35 Q27.85 20.65 26.7 20.55 L26.95 20.75 27.1 20.8 27.6 20.45 28.5 19.45 28.85 18.1 Q28.55 18.65 28.1 18.5"/><path fill="#ffde4f" stroke="none" d="M29.0 17.55 L28.85 18.1 28.5 19.45 27.6 20.45 27.1 20.8 27.25 20.8 Q29.1 19.85 29.05 18.2 L29.0 17.55 M27.15 17.95 L27.25 17.6 26.0 18.4 25.95 18.65 25.85 18.9 25.8 19.05 25.8 19.45 Q25.9 20.1 26.4 20.45 L26.7 20.55 Q27.85 20.65 28.2 19.35 L28.15 18.65 28.05 19.0 27.95 19.55 27.2 20.35 Q26.4 20.45 26.15 19.8 25.8 19.3 26.1 18.6 L26.45 18.4 27.15 17.95 M27.0 18.25 L26.5 18.65 Q26.0 19.1 26.65 19.75 27.25 20.05 27.6 19.35 L27.6 19.25 27.4 19.4 27.0 19.65 Q26.6 19.65 26.45 19.05 26.5 18.7 27.05 18.45 L27.0 18.25"/><path fill="#f9f8ec" stroke="none" d="M25.95 18.65 L25.05 18.85 24.95 19.05 25.85 18.9 25.95 18.65 M25.25 20.55 L25.8 21.05 26.35 21.15 26.75 20.95 26.55 20.85 26.1 20.95 25.6 20.8 25.25 20.55"/><path fill="#f0f0d2" stroke="none" d="M24.95 19.05 L24.95 20.0 Q25.5 20.15 25.85 19.75 L25.8 19.45 25.8 19.05 25.85 18.9 24.95 19.05 M26.25 20.65 L25.6 20.8 26.1 20.95 26.55 20.85 26.25 20.65"/><path fill="#e6e4b3" stroke="none" d="M24.95 20.0 L25.25 20.5 25.25 20.55 25.6 20.8 26.25 20.65 Q25.9 20.25 25.85 19.75 25.5 20.15 24.95 20.0 M26.75 20.95 L27.1 20.8 26.95 20.75 26.55 20.85 26.75 20.95"/><path fill="#cac960" stroke="none" d="M26.7 20.55 L26.4 20.45 Q25.9 20.1 25.8 19.45 L25.85 19.75 Q25.9 20.25 26.25 20.65 L26.55 20.85 26.95 20.75 26.7 20.55"/><path fill="none" stroke="#000000" stroke-width="0.5" stroke-opacity="0.301960784314" d="M27.25 17.6 L27.8 17.0 Q28.1 16.25 28.55 16.55 L29.0 17.55 M27.25 17.6 L26.0 18.4 25.95 18.65 25.05 18.85 M25.8 21.05 L26.35 21.15 26.75 20.95 27.1 20.8 27.25 20.8 Q29.1 19.85 29.05 18.2 L29.0 17.55 M27.3 18.2 L27.0 18.25 26.5 18.65 Q26.0 19.1 26.65 19.75 27.25 20.05 27.6 19.35 L27.6 19.25 27.65 19.1 Q27.65 18.9 27.15 18.85 L26.9 18.95 M27.3 18.2 L27.8 18.25 28.1 18.5 28.15 18.65 28.2 19.35 Q27.85 20.65 26.7 20.55 L26.4 20.45 Q25.9 20.1 25.8 19.45 L25.8 19.05 25.85 18.9 25.95 18.65 M27.1 20.8 L26.95 20.75 26.7 20.55"/><path fill="#ffffff" stroke="none" d="M20.45 25.75 L20.15 25.7 20.1 26.0 20.05 26.35 20.05 26.5 20.2 27.4 20.2 26.65 20.2 26.45 Q20.25 26.05 20.45 25.75 M18.6 25.05 L18.55 24.9 18.05 24.9 18.0 24.9 Q16.35 25.1 15.85 25.75 L15.6 26.1 15.55 26.4 Q15.85 25.65 16.45 25.4 17.25 25.05 18.15 25.05 L18.6 25.05 M14.45 24.85 L14.2 25.2 Q13.95 25.95 14.1 26.6 L14.2 26.85 14.25 26.95 14.65 27.6 14.7 27.65 15.55 28.4 15.85 28.5 16.3 28.65 Q17.7 28.85 19.05 28.65 L19.2 28.6 21.0 28.2 21.55 28.15 22.05 28.3 23.2 28.75 24.2 29.4 24.8 29.65 26.05 29.7 25.85 29.3 Q26.05 29.85 24.9 29.55 L24.25 29.25 23.85 29.05 23.25 28.6 22.75 28.35 Q22.0 27.9 21.4 28.0 L21.35 27.95 21.4 27.95 21.25 27.35 21.25 27.8 20.95 28.1 18.9 28.45 16.6 28.55 16.2 28.45 16.0 28.45 15.15 27.9 14.7 27.45 14.35 26.85 14.3 26.45 Q14.1 25.95 14.25 25.45 L14.85 25.85 Q14.2 25.5 14.45 24.85"/><path fill="#f0f0d2" stroke="none" d="M19.1 26.2 Q19.1 26.8 19.5 27.6 L19.25 27.65 19.0 27.7 18.35 27.85 17.1 27.85 16.25 27.5 Q15.9 27.65 16.35 28.25 L16.6 28.55 18.9 28.45 20.95 28.1 21.25 27.8 21.25 27.35 21.1 27.25 20.75 27.3 20.35 27.4 20.2 27.4 20.05 26.5 20.05 26.35 20.1 26.0 19.45 25.95 19.1 26.2 M16.15 23.9 Q15.1 24.1 14.45 24.85 14.2 25.5 14.85 25.85 L14.95 25.85 15.0 25.9 15.85 25.75 Q16.35 25.1 18.0 24.9 L18.05 24.9 Q17.85 24.45 17.0 24.15 L16.65 24.0 16.15 23.9 M25.85 29.3 L25.75 29.25 24.2 28.15 23.4 27.75 22.95 27.4 22.35 27.2 22.3 27.25 Q22.05 27.45 22.5 28.1 L22.75 28.35 23.25 28.6 23.85 29.05 24.25 29.25 24.9 29.55 Q26.05 29.85 25.85 29.3"/><path fill="#d5d580" stroke="none" d="M20.55 26.05 L20.45 25.75 Q20.25 26.05 20.2 26.45 L20.2 26.65 20.2 27.4 20.35 27.4 20.35 26.85 20.4 26.6 20.55 26.05 M15.85 27.15 Q15.6 26.4 16.65 25.85 17.6 25.3 18.65 25.35 L18.8 25.4 18.6 25.05 18.15 25.05 Q17.25 25.05 16.45 25.4 15.85 25.65 15.55 26.4 L15.65 26.7 15.85 27.15 M14.2 25.2 L14.05 25.55 13.9 25.95 13.9 26.75 Q14.05 27.55 14.55 28.15 L14.65 28.15 Q14.9 28.1 14.7 27.7 L14.65 27.6 14.25 26.95 14.2 26.85 14.1 26.6 Q13.95 25.95 14.2 25.2 M15.7 28.95 L15.8 29.0 19.2 29.15 19.4 29.0 Q19.55 28.85 19.2 28.6 L19.05 28.65 Q17.7 28.85 16.3 28.65 L15.85 28.5 15.55 28.4 Q15.35 28.45 15.45 28.7 L15.7 28.95 M22.0 28.75 L22.1 28.8 Q22.9 29.05 23.6 29.6 L24.8 30.3 24.95 30.25 24.8 29.65 24.2 29.4 23.2 28.75 22.05 28.3 Q21.85 28.3 21.8 28.45 L22.0 28.75"/><path fill="#e6e4b3" stroke="none" d="M20.15 25.7 L19.25 25.35 19.1 25.7 19.1 26.2 19.45 25.95 20.1 26.0 20.15 25.7 M16.25 27.5 L15.85 27.15 15.65 26.7 Q15.75 27.55 15.15 27.9 L16.0 28.45 16.2 28.45 16.6 28.55 16.35 28.25 Q15.9 27.65 16.25 27.5 M18.55 24.9 L17.6 23.75 17.45 23.75 16.4 23.8 16.15 23.9 16.65 24.0 17.0 24.15 Q17.85 24.45 18.05 24.9 L18.55 24.9 M22.35 27.2 L22.25 27.15 21.95 27.15 21.3 27.2 21.1 27.25 21.25 27.35 21.4 27.95 21.35 27.95 21.4 28.0 Q22.0 27.9 22.75 28.35 L22.5 28.1 Q22.05 27.45 22.3 27.25 L22.35 27.2"/><path fill="#cac960" stroke="none" d="M14.55 28.15 L14.65 28.2 15.4 28.8 15.7 28.95 15.45 28.7 Q15.35 28.45 15.55 28.4 L14.7 27.65 14.65 27.6 14.7 27.7 Q14.9 28.1 14.65 28.15 L14.55 28.15 M19.2 29.15 L19.5 29.05 20.7 28.75 Q21.35 28.6 22.0 28.75 L21.8 28.45 Q21.85 28.3 22.05 28.3 L21.55 28.15 21.0 28.2 19.2 28.6 Q19.55 28.85 19.4 29.0 L19.2 29.15 M24.8 30.3 L25.1 30.35 Q25.65 30.45 26.0 30.1 L26.05 29.7 24.8 29.65 24.95 30.25 24.8 30.3"/><path fill="#f9f8ec" stroke="none" d="M15.55 26.4 L15.6 26.1 15.85 25.75 15.0 25.9 14.95 25.85 14.85 25.85 14.25 25.45 Q14.1 25.95 14.3 26.45 L14.35 26.85 14.7 27.45 15.15 27.9 Q15.75 27.55 15.65 26.7 L15.55 26.4"/><path fill="none" stroke="#000000" stroke-width="0.5" stroke-opacity="0.301960784314" d="M19.25 25.35 L19.1 25.7 19.1 26.2 Q19.1 26.8 19.5 27.6 L19.25 27.65 19.0 27.7 18.35 27.85 17.1 27.85 16.25 27.5 15.85 27.15 Q15.6 26.4 16.65 25.85 17.6 25.3 18.65 25.35 L18.8 25.4 M17.6 23.75 L17.45 23.75 16.4 23.8 16.15 23.9 Q15.1 24.1 14.45 24.85 L14.2 25.2 14.05 25.55 13.9 25.95 13.9 26.75 Q14.05 27.55 14.55 28.15 L14.65 28.2 15.4 28.8 15.7 28.95 15.8 29.0 19.2 29.15 19.5 29.05 20.7 28.75 Q21.35 28.6 22.0 28.75 L22.1 28.8 Q22.9 29.05 23.6 29.6 L24.8 30.3 25.1 30.35 Q25.65 30.45 26.0 30.1 L26.05 29.7 25.85 29.3 25.75 29.25 M22.95 27.4 L22.35 27.2 22.25 27.15 21.95 27.15 21.3 27.2 21.1 27.25 20.75 27.3 20.35 27.4 20.35 26.85 20.4 26.6 20.55 26.05 M20.2 27.4 L20.35 27.4 M15.65 26.7 L15.85 27.15"/><path fill="#d5d580" stroke="none" d="M25.3 25.3 L25.15 25.5 Q25.05 25.7 25.1 25.85 L25.35 26.1 25.7 26.05 25.9 25.85 25.95 25.8 25.95 25.6 25.9 25.5 25.7 25.25 25.35 25.25 25.3 25.3"/><path fill="#ffde4f" stroke="none" d="M25.95 25.35 L25.9 25.25 25.65 25.0 25.35 25.05 25.25 25.05 25.25 25.25 25.25 25.35 25.5 25.6 25.6 25.65 25.75 25.6 25.95 25.35 M25.45 25.25 L25.45 25.1 25.55 25.05 25.65 25.15 25.65 25.2 25.65 25.3 25.6 25.35 25.5 25.35 25.45 25.25"/><path fill="#ffff98" stroke="none" d="M25.25 25.05 L25.1 25.25 25.15 25.35 25.4 25.6 25.6 25.65 25.5 25.6 25.25 25.35 25.25 25.25 25.25 25.05 M25.45 25.25 L25.5 25.35 25.6 25.35 25.65 25.3 25.65 25.2 25.65 25.15 25.55 25.05 25.45 25.1 25.45 25.25"/><path fill="#f4a33c" stroke="none" d="M25.1 25.25 L25.1 25.6 25.3 25.85 25.65 25.85 25.9 25.65 25.9 25.55 25.95 25.35 25.75 25.6 25.6 25.65 25.4 25.6 25.15 25.35 25.1 25.25"/><path fill="none" stroke="#000000" stroke-width="0.5" stroke-opacity="0.301960784314" d="M25.95 25.35 L25.9 25.25 25.65 25.0 25.35 25.05 25.25 25.05 25.1 25.25 25.1 25.6 25.3 25.85 25.65 25.85 25.9 25.65 25.9 25.55 25.95 25.35"/><path fill="#f9f8ec" stroke="none" d="M20.05 20.75 L19.7 20.05 Q19.45 19.75 19.05 19.8 L18.5 20.25 Q18.25 20.5 18.3 20.95 L18.35 21.25 18.65 21.65 Q18.95 21.95 19.3 21.85 L19.9 21.45 20.1 20.9 20.05 20.75 M19.0 20.0 L19.05 20.0 19.55 20.1 19.6 20.15 19.95 20.75 19.95 20.9 19.8 21.4 19.3 21.7 18.75 21.5 18.5 21.2 18.45 20.9 18.6 20.3 19.0 20.0 M23.75 21.75 L24.0 21.45 Q24.15 21.4 24.4 21.65 L24.4 21.7 24.85 22.55 24.9 22.65 25.0 23.6 24.85 24.1 24.8 24.1 Q24.65 24.15 24.4 23.85 L23.95 22.9 23.75 21.9 23.75 21.75 M23.65 21.8 Q23.6 22.3 23.85 22.95 L24.35 24.0 24.4 24.1 Q24.65 24.4 24.9 24.35 L24.9 24.3 25.15 23.75 25.0 22.6 25.0 22.5 24.5 21.55 24.3 21.35 23.95 21.25 Q23.75 21.3 23.7 21.65 L23.65 21.8"/><path fill="#ffde4f" stroke="none" d="M19.55 20.1 L19.05 20.0 19.0 20.0 19.1 20.4 19.15 20.35 19.6 20.5 19.55 20.1 M24.4 21.7 L24.2 22.0 24.3 22.0 24.6 22.65 24.85 22.55 24.4 21.7"/><path fill="#f4a33c" stroke="none" d="M19.0 20.0 L18.6 20.3 18.45 20.9 18.5 21.2 Q18.5 20.9 18.65 20.7 18.85 20.45 19.1 20.4 L19.0 20.0 M19.95 20.9 L19.95 20.75 19.6 20.15 19.55 20.1 19.6 20.5 19.7 20.55 19.95 20.9 M23.75 21.75 L23.8 21.75 Q24.0 21.65 24.2 22.0 L24.4 21.7 24.4 21.65 Q24.15 21.4 24.0 21.45 L23.75 21.75 M24.6 22.65 L24.7 22.95 24.75 22.95 24.75 23.05 24.8 23.25 Q25.0 24.15 24.4 23.85 24.65 24.15 24.8 24.1 L24.85 24.1 25.0 23.6 24.9 22.65 24.85 22.55 24.6 22.65"/><path fill="#a34100" stroke="none" d="M18.5 21.2 L18.75 21.5 19.3 21.7 19.8 21.4 19.95 20.9 19.7 20.55 19.6 20.5 19.15 20.35 19.1 20.4 Q18.85 20.45 18.65 20.7 18.5 20.9 18.5 21.2 M24.2 22.0 Q24.0 21.65 23.8 21.75 L23.75 21.75 23.75 21.9 23.95 22.9 24.4 23.85 Q25.0 24.15 24.8 23.25 L24.75 23.05 24.75 22.95 24.7 22.95 24.6 22.65 24.3 22.0 24.2 22.0"/><path fill="#cac960" stroke="none" d="M21.75 16.75 L21.85 16.0 21.75 16.05 21.65 16.7 21.75 16.75 21.75 16.95 23.05 17.1 Q23.3 18.25 23.1 19.45 L22.5 21.1 22.9 20.3 23.3 18.65 23.15 16.75 Q22.45 17.05 21.75 16.75"/><path fill="#a6a637" stroke="none" d="M21.85 16.0 L21.75 16.75 Q22.45 17.05 23.15 16.75 L22.8 15.7 21.85 16.0"/><path fill="#d5d580" stroke="none" d="M21.75 16.75 L21.65 16.7 21.65 16.85 21.75 16.95 21.75 16.75 M22.8 15.7 L23.15 16.75 23.3 16.7 22.95 15.65 22.8 15.7 M22.5 21.1 L23.1 19.45 Q23.3 18.25 23.05 17.1 L21.75 16.95 21.4 18.45 Q21.95 17.9 22.4 18.2 23.15 18.65 22.5 20.25 L21.8 21.8 21.95 21.8 22.0 21.85 22.5 21.1"/><path fill="#a34100" stroke="none" d="M22.95 15.65 L23.3 16.7 23.35 17.05 23.5 17.15 23.6 17.1 23.5 16.6 24.15 16.15 24.45 15.9 24.45 15.85 24.6 15.6 24.65 15.5 24.45 15.05 22.95 15.65 M23.85 17.25 L23.5 17.15 23.35 17.15 23.45 17.4 23.45 18.4 23.55 18.5 23.7 18.4 Q23.85 17.8 23.65 17.35 L23.85 17.25 M23.95 18.65 L23.55 18.5 23.45 18.55 23.4 18.8 23.0 20.35 22.9 20.5 22.1 21.8 22.4 21.9 Q23.1 21.05 23.2 20.5 L23.5 20.35 23.0 20.35 23.25 20.25 23.65 18.75 23.9 18.7 23.95 18.65"/><path fill="#ffde4f" stroke="none" d="M24.45 15.85 L24.45 15.9 24.15 16.15 24.35 16.5 24.35 16.55 24.4 16.2 24.4 16.1 24.45 15.85 M23.6 17.1 L23.5 17.15 23.85 17.25 24.2 17.1 24.2 17.35 24.35 17.85 24.55 18.1 Q24.35 17.85 24.45 17.5 L24.5 17.15 24.6 16.85 24.95 16.5 25.05 16.25 24.9 15.85 24.85 16.2 24.45 16.7 24.3 16.8 23.6 17.1 M25.25 17.05 L25.1 17.4 24.55 18.1 24.25 18.25 23.8 18.45 23.7 18.4 23.55 18.5 23.95 18.65 24.1 18.6 24.05 19.1 24.1 19.1 24.15 19.4 24.25 19.55 Q24.1 19.1 24.7 18.25 L25.1 17.85 25.3 17.45 25.25 17.05 M23.25 20.25 L23.0 20.35 23.5 20.35 23.85 20.25 24.2 20.05 Q23.9 20.5 23.9 20.8 L24.35 20.05 24.6 19.75 24.8 19.55 24.85 19.5 25.15 19.1 25.3 18.25 25.1 18.75 24.3 19.65 24.25 19.75 23.25 20.25"/><path fill="#cc6b22" stroke="none" d="M24.15 16.15 L23.5 16.6 23.6 17.1 24.3 16.8 24.45 16.7 24.35 16.55 24.35 16.5 24.15 16.15 M23.5 17.15 L23.35 17.05 23.35 17.15 23.5 17.15 M24.55 18.1 L24.35 17.85 24.2 17.35 24.2 17.1 23.85 17.25 23.65 17.35 Q23.85 17.8 23.7 18.4 L23.8 18.45 24.25 18.25 24.55 18.1 M24.25 19.55 L24.15 19.4 24.1 19.1 24.05 19.1 24.1 18.6 23.95 18.65 23.9 18.7 23.65 18.75 23.25 20.25 24.25 19.75 24.3 19.65 24.25 19.55 M23.45 18.4 L23.45 18.55 23.55 18.5 23.45 18.4 M23.5 20.35 L23.2 20.5 Q23.1 21.05 22.4 21.9 22.65 21.75 23.25 21.5 L24.05 21.05 23.9 20.8 Q23.9 20.5 24.2 20.05 L23.85 20.25 23.5 20.35"/><path fill="#f4a33c" stroke="none" d="M24.6 15.6 L24.45 15.85 24.4 16.1 24.4 16.2 24.35 16.55 24.45 16.7 24.85 16.2 24.6 15.6 M24.95 16.5 L24.6 16.85 24.5 17.15 24.45 17.5 Q24.35 17.85 24.55 18.1 L25.1 17.4 Q25.2 16.8 24.95 16.5 M25.1 17.85 L24.7 18.25 Q24.1 19.1 24.25 19.55 L24.3 19.65 25.1 18.75 25.1 17.85 M24.05 21.05 L24.6 20.6 24.7 20.45 24.85 19.5 24.8 19.55 24.6 19.75 24.35 20.05 23.9 20.8 24.05 21.05"/><path fill="#ffff98" stroke="none" d="M24.65 15.5 L24.6 15.6 24.85 16.2 24.9 15.85 24.65 15.5 M25.05 16.25 L24.95 16.5 Q25.2 16.8 25.1 17.4 L25.25 17.05 25.05 16.25 M25.3 17.45 L25.1 17.85 25.1 18.75 25.3 18.25 25.3 17.45 M24.7 20.45 L24.85 20.0 25.15 19.1 24.85 19.5 24.7 20.45"/><path fill="#e6e4b3" stroke="none" d="M21.75 16.95 L21.65 16.85 21.15 18.65 21.4 18.45 21.75 16.95 M23.3 16.7 L23.15 16.75 23.3 18.65 22.9 20.3 22.5 21.1 22.0 21.85 22.1 21.8 22.9 20.5 23.0 20.35 23.4 18.8 23.45 18.55 23.45 18.4 23.45 17.4 23.35 17.15 23.35 17.05 23.3 16.7 M21.8 21.8 L22.5 20.25 Q23.15 18.65 22.4 18.2 21.95 17.9 21.4 18.45 21.0 19.7 20.3 20.55 20.3 20.9 20.8 21.3 21.25 21.75 21.8 21.8"/><path fill="#f0f0d2" stroke="none" d="M21.4 18.45 L21.15 18.65 20.75 19.5 20.35 20.35 20.3 20.55 Q21.0 19.7 21.4 18.45"/><path fill="none" stroke="#000000" stroke-width="0.5" stroke-opacity="0.301960784314" d="M21.65 16.7 L21.75 16.05 21.85 16.0 22.8 15.7 22.95 15.65 23.3 16.7 M21.65 16.85 L21.65 16.7 M22.95 15.65 L24.45 15.05 24.65 15.5 24.9 15.85 25.05 16.25 25.25 17.05 25.3 17.45 M23.6 17.1 L23.5 17.15 23.35 17.15 23.35 17.05 23.3 16.7 M23.6 17.1 L24.3 16.8 24.45 16.7 24.85 16.2 24.9 15.85 M25.1 17.4 L25.25 17.05 M23.55 18.5 L23.7 18.4 23.8 18.45 24.25 18.25 24.55 18.1 25.1 17.4 M21.15 18.65 L21.65 16.85 M23.35 17.15 L23.45 17.4 23.45 18.4 23.45 18.55 23.4 18.8 23.0 20.35 22.9 20.5 22.1 21.8 M23.55 18.5 L23.45 18.55 M20.35 20.35 L20.75 19.5 21.15 18.65 M23.25 20.25 L23.0 20.35 M24.7 20.45 L24.85 20.0 25.15 19.1 25.3 18.25 25.3 17.45 M24.3 19.65 L24.25 19.75 23.25 20.25 M25.3 18.25 L25.1 18.75 24.3 19.65"/><path fill="#f9f8ec" stroke="none" d="M24.1 13.7 L23.7 13.6 Q22.95 13.6 22.3 13.9 L21.7 14.3 Q22.05 15.55 24.0 15.3 L24.55 14.6 24.6 14.55 24.6 14.15 24.1 13.7 M21.35 14.65 L21.35 14.7 21.35 14.65"/><path fill="#ffffff" stroke="none" d="M24.3 13.75 L24.1 13.7 24.6 14.15 24.6 14.55 24.55 14.6 24.0 15.3 23.7 15.4 22.4 15.7 Q21.8 15.65 21.5 15.25 L21.45 15.1 21.35 14.65 21.35 14.7 21.35 15.25 21.4 15.25 21.4 15.35 21.5 15.4 Q21.8 15.75 22.4 15.8 L23.05 15.8 23.75 15.55 23.8 15.5 24.65 14.7 24.7 14.6 24.75 14.55 24.65 14.1 24.3 13.75"/><path fill="#f0f0d2" stroke="none" d="M21.7 14.3 L21.35 14.65 21.45 15.1 21.5 15.25 Q21.8 15.65 22.4 15.7 L23.7 15.4 24.0 15.3 Q22.05 15.55 21.7 14.3 M21.35 14.7 L21.25 14.9 21.15 15.3 21.3 15.9 21.7 16.2 21.4 15.9 Q21.25 15.5 21.4 15.35 L21.4 15.25 21.35 15.25 21.35 14.7 M24.65 15.4 L24.8 15.15 24.95 14.75 24.85 14.3 24.7 14.1 24.65 13.95 24.3 13.75 24.65 14.1 24.75 14.55 24.75 14.85 24.65 15.4"/><path fill="#e6e4b3" stroke="none" d="M23.75 16.15 L23.85 16.1 24.65 15.4 24.75 14.85 24.75 14.55 24.7 14.6 24.65 14.7 23.8 15.5 23.75 15.55 Q23.95 15.8 23.75 16.15"/><path fill="#d5d580" stroke="none" d="M21.7 16.2 Q21.95 16.4 22.35 16.4 L22.75 16.4 23.65 16.15 23.7 15.95 23.5 15.8 23.05 15.8 22.4 15.8 Q21.8 15.75 21.5 15.4 L21.4 15.35 Q21.25 15.5 21.4 15.9 L21.7 16.2"/><path fill="#cac960" stroke="none" d="M23.65 16.15 L23.75 16.15 Q23.95 15.8 23.75 15.55 L23.05 15.8 23.5 15.8 23.7 15.95 23.65 16.15"/><path fill="none" stroke="#000000" stroke-width="0.5" stroke-opacity="0.301960784314" d="M24.1 13.7 L23.7 13.6 Q22.95 13.6 22.3 13.9 L21.7 14.3 21.35 14.65 21.35 14.7 21.25 14.9 21.15 15.3 21.3 15.9 21.7 16.2 Q21.95 16.4 22.35 16.4 L22.75 16.4 23.65 16.15 23.75 16.15 23.85 16.1 24.65 15.4 24.8 15.15 24.95 14.75 24.85 14.3 24.7 14.1 24.65 13.95 24.3 13.75 24.1 13.7"/><path fill="#ffde4f" stroke="none" d="M23.4 13.95 L23.45 14.1 23.8 14.15 24.0 14.3 24.3 14.5 24.3 14.45 24.05 14.05 23.4 13.9 23.4 13.95 M22.25 14.4 L22.25 14.65 22.7 14.6 22.6 14.35 22.25 14.4"/><path fill="#f4a33c" stroke="none" d="M23.45 14.1 L23.4 13.95 22.85 14.0 22.55 14.3 22.6 14.35 22.85 14.2 23.45 14.1 M22.25 14.65 L22.25 14.4 22.1 14.45 21.8 14.75 21.85 14.9 22.1 14.65 22.25 14.65"/><path fill="#a34100" stroke="none" d="M24.3 14.5 L24.0 14.3 23.8 14.15 23.45 14.1 22.85 14.2 22.6 14.35 22.7 14.6 22.25 14.65 22.1 14.65 21.85 14.9 22.0 15.1 22.55 15.35 22.8 15.35 23.15 15.25 23.2 15.25 23.4 15.05 23.4 14.95 23.45 14.9 23.4 14.8 23.9 14.8 24.05 14.75 24.3 14.5 M23.05 14.5 L23.0 14.45 23.1 14.3 23.4 14.25 23.65 14.3 23.75 14.35 23.95 14.55 23.85 14.6 23.8 14.65 23.55 14.7 23.25 14.65 23.2 14.6 23.05 14.5 M22.3 15.0 L22.25 14.9 22.35 14.75 22.65 14.7 22.9 14.8 23.0 14.8 23.05 14.8 23.2 15.0 23.1 15.1 23.05 15.1 22.8 15.2 22.7 15.15 22.5 15.1 22.45 15.05 22.3 15.0"/><path fill="#8f3600" stroke="none" d="M23.85 14.6 L23.95 14.55 23.75 14.35 23.65 14.3 23.4 14.25 23.1 14.3 23.0 14.45 23.05 14.5 23.15 14.5 23.4 14.45 23.5 14.45 23.75 14.55 23.85 14.6 M23.1 15.1 L23.2 15.0 23.05 14.8 23.0 14.8 22.9 14.8 22.65 14.7 22.35 14.75 22.25 14.9 22.3 15.0 22.4 14.95 22.65 14.95 22.95 15.0 23.0 15.0 23.1 15.1"/><path fill="#cc6b22" stroke="none" d="M23.05 14.5 L23.2 14.6 23.25 14.65 23.55 14.7 23.8 14.65 23.85 14.6 23.75 14.55 23.5 14.45 23.4 14.45 23.15 14.5 23.05 14.5 M22.3 15.0 L22.45 15.05 22.5 15.1 22.7 15.15 22.8 15.2 23.05 15.1 23.1 15.1 23.0 15.0 22.95 15.0 22.65 14.95 22.4 14.95 22.3 15.0"/><path fill="none" stroke="#000000" stroke-width="0.5" stroke-opacity="0.301960784314" d="M21.85 14.9 L22.0 15.1 22.55 15.35 22.8 15.35 23.15 15.25 23.2 15.25 23.4 15.05 23.4 14.95 23.45 14.9 23.4 14.8 23.9 14.8 24.05 14.75 24.3 14.5"/><path stroke="none" fill="url(#gradient9)" d="M20.55 9.9 L20.7 10.45 21.45 11.1 21.55 10.9 Q21.9 10.35 21.2 9.9 L21.0 9.8 Q20.55 9.4 20.6 9.0 20.45 9.5 20.55 9.9 M20.8 9.8 L20.9 9.95 Q21.45 10.35 21.4 10.65 L20.85 10.1 20.8 9.8 M22.15 11.55 L22.05 11.7 22.05 12.2 21.5 11.8 20.45 11.4 20.95 11.85 21.45 12.75 21.6 13.1 Q22.05 13.95 22.95 13.25 L23.35 12.8 23.45 12.75 23.5 12.7 23.75 12.25 Q24.1 11.1 22.55 9.9 22.9 10.2 22.25 11.4 L22.15 11.55 M21.85 13.1 L21.75 12.9 21.7 12.8 21.3 12.0 22.3 12.6 22.45 11.8 22.5 11.65 22.9 10.65 23.4 11.55 Q23.65 12.15 23.3 12.65 L23.25 12.75 23.1 12.9 22.35 13.4 21.85 13.1"/><path stroke="none" fill="url(#gradient10)" d="M20.8 9.8 L20.85 10.1 21.4 10.65 Q21.45 10.35 20.9 9.95 L20.8 9.8"/><path stroke="none" fill="url(#gradient11)" d="M22.6 13.0 L22.6 12.95 22.8 12.75 23.0 12.35 23.1 11.55 23.0 11.25 22.8 11.55 22.7 12.05 22.6 12.75 22.6 13.0"/><path stroke="none" fill="url(#gradient12)" d="M22.15 13.1 L22.05 13.05 21.9 12.75 21.8 12.4 22.2 12.75 22.3 13.05 22.35 13.2 22.15 13.1 M22.6 13.0 L22.6 12.75 22.7 12.05 22.8 11.55 23.0 11.25 23.1 11.55 23.0 12.35 22.8 12.75 22.6 12.95 22.6 13.0 M21.85 13.1 L22.35 13.4 23.1 12.9 23.25 12.75 23.3 12.65 Q23.65 12.15 23.4 11.55 L22.9 10.65 22.5 11.65 22.45 11.8 22.3 12.6 21.3 12.0 21.7 12.8 21.75 12.9 21.85 13.1"/><path stroke="none" fill="url(#gradient13)" d="M22.15 13.1 L22.35 13.2 22.3 13.05 22.2 12.75 21.8 12.4 21.9 12.75 22.05 13.05 22.15 13.1"/><path fill="#ffde4f" stroke="none" d="M21.5 24.35 L21.7 24.2 21.85 23.9 21.9 23.75 21.65 23.9 21.45 24.2 Q21.15 24.25 21.0 23.9 20.9 24.4 21.5 24.35 M21.5 23.1 L21.3 22.95 20.9 23.0 20.6 23.2 Q20.2 23.6 20.2 24.05 L20.4 24.75 Q20.65 25.05 21.05 25.1 L21.75 24.85 21.95 24.7 21.75 24.75 21.2 24.85 Q20.6 24.75 20.35 24.15 20.4 23.45 20.8 23.25 L21.15 23.2 21.5 23.1 M20.4 25.5 L19.1 25.15 Q18.8 24.85 19.2 24.3 L20.15 22.9 20.25 22.8 20.65 22.5 20.65 22.55 20.85 22.35 21.3 22.3 20.95 22.25 20.8 22.25 20.55 22.25 20.45 22.3 20.25 22.45 19.7 23.4 Q18.55 24.65 18.75 25.1 19.05 25.5 20.5 25.65 L21.25 25.5 21.75 25.2 22.2 24.95 21.75 25.0 21.7 25.05 21.65 25.05 20.6 25.55 20.4 25.5"/><path fill="#cc6b22" stroke="none" d="M20.9 23.0 Q20.45 22.9 20.65 22.55 L20.65 22.5 20.25 22.8 20.15 22.9 19.2 24.3 Q18.8 24.85 19.1 25.15 L20.4 25.5 Q19.6 25.25 20.2 24.05 20.2 23.6 20.6 23.2 L20.9 23.0 M22.2 24.6 L21.75 24.6 Q21.4 24.55 21.5 24.35 20.9 24.4 21.0 23.9 21.15 24.25 21.45 24.2 L21.65 23.9 Q21.15 24.1 21.05 23.5 L21.15 23.2 20.8 23.25 Q20.4 23.45 20.35 24.15 20.6 24.75 21.2 24.85 L21.75 24.75 21.95 24.7 22.0 24.65 22.2 24.6"/><path fill="#f9f8ec" stroke="none" d="M22.75 23.6 L22.75 23.8 22.95 23.55 22.95 23.4 22.75 22.65 22.85 23.35 22.8 23.4 22.75 23.6 M20.45 22.3 L20.55 22.25 20.75 21.75 20.55 21.9 20.45 22.3"/><path fill="#f4a33c" stroke="none" d="M20.65 22.55 Q20.45 22.9 20.9 23.0 L21.3 22.95 21.5 23.1 21.7 23.35 21.8 23.5 21.9 23.75 21.85 23.9 21.7 24.2 21.5 24.35 Q21.4 24.55 21.75 24.6 L22.2 24.6 22.35 24.45 Q22.65 23.9 22.15 23.25 L21.75 22.85 21.0 22.6 20.8 22.55 20.65 22.55 M20.2 24.05 Q19.6 25.25 20.4 25.5 L20.6 25.55 21.65 25.05 21.05 25.1 Q20.65 25.05 20.4 24.75 L20.2 24.05 M21.65 23.9 L21.7 23.6 21.65 23.55 21.6 23.45 21.15 23.2 21.05 23.5 Q21.15 24.1 21.65 23.9"/><path fill="#d5d580" stroke="none" d="M20.55 22.25 L20.8 22.25 20.95 22.25 21.1 21.8 21.3 21.65 20.9 21.65 20.75 21.75 20.55 22.25"/><path fill="#e6e4b3" stroke="none" d="M21.3 22.3 L21.75 22.5 22.0 22.65 22.4 23.05 22.45 22.95 22.35 22.25 22.25 22.15 21.4 21.7 21.3 21.65 21.1 21.8 20.95 22.25 21.3 22.3"/><path fill="#ffff98" stroke="none" d="M20.65 22.55 L20.8 22.55 21.0 22.6 21.75 22.85 22.15 23.25 Q22.65 23.9 22.35 24.45 L22.2 24.6 22.0 24.65 21.95 24.7 21.75 24.85 21.05 25.1 21.65 25.05 21.7 25.05 21.75 25.0 22.2 24.95 Q22.65 24.8 22.75 24.2 L22.75 23.8 22.75 23.6 22.4 23.05 22.0 22.65 21.75 22.5 21.3 22.3 20.85 22.35 20.65 22.55 M21.9 23.75 L21.8 23.5 21.7 23.35 21.5 23.1 21.15 23.2 21.6 23.45 21.65 23.55 21.7 23.6 21.65 23.9 21.9 23.75"/><path fill="#f0f0d2" stroke="none" d="M22.4 23.05 L22.75 23.6 22.8 23.4 22.85 23.35 22.75 22.65 22.65 22.65 22.35 22.25 22.45 22.95 22.4 23.05"/><path fill="none" stroke="#000000" stroke-width="0.5" stroke-opacity="0.301960784314" d="M21.5 24.35 L21.7 24.2 21.85 23.9 21.9 23.75 21.8 23.5 21.7 23.35 21.5 23.1 21.3 22.95 20.9 23.0 20.6 23.2 Q20.2 23.6 20.2 24.05 M21.3 22.3 L21.75 22.5 22.0 22.65 22.4 23.05 22.75 23.6 22.75 23.8 22.75 24.2 Q22.65 24.8 22.2 24.95 L21.75 25.0 21.7 25.05 M21.65 25.05 L21.05 25.1 Q20.65 25.05 20.4 24.75 L20.2 24.05 M20.45 22.3 L20.55 22.25 20.8 22.25 20.95 22.25 21.3 22.3 M22.2 24.95 L21.75 25.2 21.25 25.5 20.5 25.65 Q19.05 25.5 18.75 25.1 18.55 24.65 19.7 23.4 L20.25 22.45 20.45 22.3 20.55 21.9 M21.5 24.35 Q20.9 24.4 21.0 23.9 M22.95 23.55 L22.75 23.8"/></g><g id="c10"><g><use transform="matrix(1.0,0.0,0.0,1.0,0.0,0.0)" xlink:href="#c5"/></g></g><radialGradient gradientUnits="userSpaceOnUse" r="819.2" cx="0" cy="0" spreadMethod="pad" gradientTransform="matrix(0.0212554931641,0.0,0.0,0.0212554931641,0.0,0.0)" id="gradient14"><stop offset="0.196078431373" stop-color="#fee3bc"/><stop offset="0.501960784314" stop-color="#fee3bc" stop-opacity="0.160784313725"/><stop offset="0.760784313725" stop-color="#ffe3bd" stop-opacity="0.0"/></radialGradient><g id="c11"><path stroke="none" fill="url(#gradient14)" d="M9.3 -9.85 Q13.35 -5.8 13.35 0.0 13.35 5.8 9.3 9.3 5.8 13.35 0.0 13.35 -5.8 13.35 -9.85 9.3 -13.35 5.8 -13.35 0.0 -13.35 -5.8 -9.85 -9.85 -5.8 -13.35 0.0 -13.35 5.8 -13.35 9.3 -9.85"/></g><g id="c12"><g><use transform="matrix(1.0,0.0,0.0,1.0,0.0,0.0)" xlink:href="#c11"/></g></g><g id="c13"><g><use transform="matrix(0.00422668457031,-1.35153198242,1.39352416992,0.0199737548828,40.75,38.25)" xlink:href="#c12"/></g><g><use transform="matrix(0.00953674316406,-3.04858398438,0.371963500977,0.00532531738281,41.6,40.75)" filter="url(#filter7)" xlink:href="#c12"/></g><g><use transform="matrix(3.04858398438,0.00953674316406,-0.00532531738281,0.371963500977,40.75,40.2)" filter="url(#filter8)" xlink:href="#c12"/></g></g><filter id="filter7"><feColorMatrix in="SourceGraphic" type="matrix" values="1.0 0.0 0.0 0.0 0.0 0.0 1.0 0.0 0.0 0.0 0.0 0.0 1.0 0.0 0.0 0.0 0.0 0.0 0.71875 0.0" result="cxform"/><feComposite operator="in" in2="SourceGraphic" result="color-xform"/></filter><filter id="filter8"><feColorMatrix in="SourceGraphic" type="matrix" values="1.0 0.0 0.0 0.0 0.0 0.0 1.0 0.0 0.0 0.0 0.0 0.0 1.0 0.0 0.0 0.0 0.0 0.0 0.71875 0.0" result="cxform"/><feComposite operator="in" in2="SourceGraphic" result="color-xform"/></filter><g id="c14"><g><use transform="matrix(1.0,0.0,0.0,1.0,0.0,0.0)" xlink:href="#c2"/></g><g><use transform="matrix(0.238861083984,-0.0867004394531,0.10026550293,0.233917236328,34.25,31.15)" xlink:href="#c4"/></g><g><use transform="matrix(0.238861083984,-0.0867004394531,0.10026550293,0.233917236328,4.25,10.3)" xlink:href="#c4"/></g><g><use transform="matrix(0.141098022461,-0.0378112792969,0.111373901367,0.225646972656,20.25,20.65)" filter="url(#filter12)" xlink:href="#c6"/></g><g><use transform="matrix(-0.155029296875,0.0513153076172,0.0841827392578,0.147033691406,22.6,2.3)" filter="url(#filter13)" xlink:href="#c8"/></g><g><use transform="matrix(1.0,0.0,0.0,1.0,0.0,0.0)" xlink:href="#c9"/></g><g><use transform="matrix(-0.0310516357422,0.0284271240234,0.05078125,0.0168762207031,19.35,19.0)" filter="url(#filter15)" xlink:href="#c10"/></g><g><use transform="matrix(-0.022705078125,0.0158081054688,0.0157165527344,0.0385131835938,25.7,26.35)" filter="url(#filter16)" xlink:href="#c10"/></g><g><use transform="matrix(-0.0156097412109,0.0108642578125,0.00660705566406,0.0162048339844,27.65,18.75)" filter="url(#filter17)" xlink:href="#c10"/></g><g><use transform="matrix(-0.0156097412109,0.0108642578125,0.00660705566406,0.0162048339844,20.6,24.2)" filter="url(#filter18)" xlink:href="#c10"/></g><g><use transform="matrix(-0.0232238769531,0.00875854492188,0.0,0.0427856445312,23.25,18.4)" filter="url(#filter19)" xlink:href="#c10"/></g><g><use transform="matrix(-0.0511779785156,0.0209350585938,0.0209045410156,0.0511322021484,21.35,21.2)" filter="url(#filter20)" xlink:href="#c13"/></g><g><use transform="matrix(-0.0404357910156,0.0165405273438,0.0165100097656,0.0404052734375,20.2,15.95)" filter="url(#filter21)" xlink:href="#c13"/></g><g><use transform="matrix(-0.0404357910156,0.0165405273438,0.0165100097656,0.0404052734375,24.65,25.3)" filter="url(#filter22)" xlink:href="#c13"/></g><g><use transform="matrix(0.162948608398,-0.0436706542969,0.128631591797,0.260604858398,20.35,20.95)" filter="url(#filter23)" xlink:href="#c6"/></g></g><filter id="filter12"><feColorMatrix in="SourceGraphic" type="matrix" values="0.0 0.0 0.0 0.0 0.796875 0.0 0.0 0.0 0.0 0.59765625 0.0 0.0 0.0 0.0 0.19921875 0.0 0.0 0.0 1.0 0.0" result="cxform"/><feComposite operator="in" in2="SourceGraphic" result="color-xform"/></filter><filter id="filter13"><feColorMatrix in="SourceGraphic" type="matrix" values="0.0 0.0 0.0 0.0 0.99609375 0.0 0.0 0.0 0.0 0.99609375 0.0 0.0 0.0 0.0 0.99609375 0.0 0.0 0.0 1.0 0.0" result="cxform"/><feComposite operator="in" in2="SourceGraphic" result="color-xform"/></filter><filter id="filter15"><feColorMatrix in="SourceGraphic" type="matrix" values="1.0 0.0 0.0 0.0 0.0 0.0 1.0 0.0 0.0 0.0 0.0 0.0 1.0 0.0 0.0 0.0 0.0 0.0 0.08984375 0.0" result="cxform"/><feComposite operator="in" in2="SourceGraphic" result="color-xform"/></filter><filter id="filter16"><feColorMatrix in="SourceGraphic" type="matrix" values="1.0 0.0 0.0 0.0 0.0 0.0 1.0 0.0 0.0 0.0 0.0 0.0 1.0 0.0 0.0 0.0 0.0 0.0 0.25 0.0" result="cxform"/><feComposite operator="in" in2="SourceGraphic" result="color-xform"/></filter><filter id="filter17"><feColorMatrix in="SourceGraphic" type="matrix" values="1.0 0.0 0.0 0.0 0.0 0.0 1.0 0.0 0.0 0.0 0.0 0.0 1.0 0.0 0.0 0.0 0.0 0.0 0.25 0.0" result="cxform"/><feComposite operator="in" in2="SourceGraphic" result="color-xform"/></filter><filter id="filter18"><feColorMatrix in="SourceGraphic" type="matrix" values="1.0 0.0 0.0 0.0 0.0 0.0 1.0 0.0 0.0 0.0 0.0 0.0 1.0 0.0 0.0 0.0 0.0 0.0 0.25 0.0" result="cxform"/><feComposite operator="in" in2="SourceGraphic" result="color-xform"/></filter><filter id="filter19"><feColorMatrix in="SourceGraphic" type="matrix" values="1.0 0.0 0.0 0.0 0.0 0.0 1.0 0.0 0.0 0.0 0.0 0.0 1.0 0.0 0.0 0.0 0.0 0.0 0.25 0.0" result="cxform"/><feComposite operator="in" in2="SourceGraphic" result="color-xform"/></filter><filter id="filter20"><feColorMatrix in="SourceGraphic" type="matrix" values="1.0 0.0 0.0 0.0 0.0 0.0 1.0 0.0 0.0 0.0 0.0 0.0 1.0 0.0 0.0 0.0 0.0 0.0 0.30859375 0.0" result="cxform"/><feComposite operator="in" in2="SourceGraphic" result="color-xform"/></filter><filter id="filter21"><feColorMatrix in="SourceGraphic" type="matrix" values="1.0 0.0 0.0 0.0 0.0 0.0 1.0 0.0 0.0 0.0 0.0 0.0 1.0 0.0 0.0 0.0 0.0 0.0 0.30859375 0.0" result="cxform"/><feComposite operator="in" in2="SourceGraphic" result="color-xform"/></filter><filter id="filter22"><feColorMatrix in="SourceGraphic" type="matrix" values="1.0 0.0 0.0 0.0 0.0 0.0 1.0 0.0 0.0 0.0 0.0 0.0 1.0 0.0 0.0 0.0 0.0 0.0 0.30859375 0.0" result="cxform"/><feComposite operator="in" in2="SourceGraphic" result="color-xform"/></filter><filter id="filter23"><feColorMatrix in="SourceGraphic" type="matrix" values="1.0 0.0 0.0 0.0 0.0 0.0 1.0 0.0 0.0 0.0 0.0 0.0 1.0 0.0 0.0 0.0 0.0 0.0 0.23046875 0.0" result="cxform"/><feComposite operator="in" in2="SourceGraphic" result="color-xform"/></filter></defs><g><g><use transform="matrix(1.0,0.0,0.0,1.0,0.0,0.0)" xlink:href="#c1"/></g><g><use transform="matrix(1.15496826172,0.0,0.0,1.15496826172,5.85,3.95)" xlink:href="#c14"/></g></g></svg>