<?xml version='1.0' encoding='UTF-8'?>
<svg xmlns:xlink="http://www.w3.org/1999/xlink" xmlns="http://www.w3.org/2000/svg" version="1.1" width="60px" height="60px" viewBox="0.0 0.0 60.0 60.0"><defs><g id="c1"><path fill="#000000" fill-opacity="0.00392156862745" d="M0.0 0.0 L60.0 0.0 60.0 60.0 0.0 60.0 0.0 0.0"/></g><g id="c2"><path fill="none" stroke="#000000" stroke-width="1.0" stroke-opacity="0.301960784314" d="M22.3 0.35 Q26.6 -1.0 28.5 3.05 L41.4 31.7 Q43.1 35.4 39.9 36.85 L38.15 37.65 19.65 43.65 Q17.05 44.5 15.35 43.3 14.2 42.55 13.5 40.9 L0.55 12.25 Q-0.6 9.75 0.6 8.25 1.15 7.55 2.2 7.05 2.85 6.6 3.8 6.3 L22.3 0.35"/><path fill="#300525" stroke="none" d="M25.55 0.9 Q26.9 1.6 27.8 3.55 L40.7 32.15 Q42.6 36.3 38.3 37.65 L23.3 42.5 13.15 21.4 4.6 20.9 0.7 12.25 Q-0.45 9.75 0.75 8.25 L29.8 9.75 25.55 0.9 M20.1 43.55 L19.8 43.65 Q17.15 44.45 15.5 43.3 L20.1 43.55"/><path fill="#630a4c" stroke="none" d="M23.3 42.5 L20.1 43.55 15.5 43.3 Q14.35 42.55 13.65 40.9 L4.6 20.9 13.15 21.4 23.3 42.5 M0.75 8.25 Q1.45 7.3 3.1 6.75 L21.65 0.8 25.55 0.9 29.8 9.75 0.75 8.25"/><path fill="none" stroke="#000000" stroke-width="0.5" stroke-opacity="0.301960784314" d="M25.55 0.9 Q26.9 1.6 27.8 3.55 L40.7 32.15 Q42.6 36.3 38.3 37.65 L23.3 42.5 20.1 43.55 19.8 43.65 Q17.15 44.45 15.5 43.3 14.35 42.55 13.65 40.9 L4.6 20.9 0.7 12.25 Q-0.45 9.75 0.75 8.25 1.45 7.3 3.1 6.75 L21.65 0.8 25.55 0.9"/><path fill="#9d147b" stroke="none" d="M14.2 40.5 L1.35 11.8 Q-0.5 7.75 3.8 6.35 L22.3 0.4 Q26.55 -1.0 28.45 3.1 L41.35 31.7 Q43.25 35.85 38.9 37.25 L20.4 43.2 Q16.1 44.55 14.2 40.5"/><path fill="none" stroke="#000000" stroke-width="0.5" stroke-opacity="0.301960784314" d="M14.2 40.5 L1.35 11.8 Q-0.5 7.75 3.8 6.35 L22.3 0.4 Q26.55 -1.0 28.45 3.1 L41.35 31.7 Q43.25 35.85 38.9 37.25 L20.4 43.2 Q16.1 44.55 14.2 40.5"/><path fill="#fcf2cf" stroke="none" d="M9.15 13.6 Q9.8 12.8 9.55 11.6 L9.1 10.55 22.05 6.35 Q24.9 5.45 26.25 7.85 L26.5 8.3 35.8 29.0 35.95 29.35 Q34.75 29.3 34.1 30.1 33.45 30.9 33.7 32.1 L34.0 32.9 20.65 37.2 Q18.8 37.8 17.65 37.0 16.8 36.4 16.3 35.2 L6.95 14.6 6.8 14.4 7.1 14.4 Q8.4 14.45 9.15 13.6"/><path fill="#c47fad" stroke="none" d="M8.25 23.65 L3.35 12.8 Q1.65 9.1 5.5 7.85 L22.25 2.5 Q26.05 1.25 27.75 4.95 L28.25 6.1 35.55 22.3 39.35 30.75 Q41.1 34.5 37.2 35.7 L20.45 41.1 Q16.8 42.25 15.2 39.0 L15.0 38.6 8.25 23.65 M9.15 13.6 Q8.4 14.45 7.1 14.4 L6.8 14.4 6.95 14.6 16.3 35.2 Q16.8 36.4 17.65 37.0 18.8 37.8 20.65 37.2 L34.0 32.9 33.7 32.1 Q33.45 30.9 34.1 30.1 34.75 29.3 35.95 29.35 L35.8 29.0 26.5 8.3 26.25 7.85 Q24.9 5.45 22.05 6.35 L9.1 10.55 9.55 11.6 Q9.8 12.8 9.15 13.6"/><path fill="none" stroke="#ffcc00" stroke-width="1.0" stroke-opacity="0.749019607843" d="M8.25 23.65 L3.35 12.8 Q1.65 9.1 5.5 7.85 L22.25 2.5 Q26.05 1.25 27.75 4.95 L28.25 6.1 M35.55 22.3 L39.35 30.75 Q41.1 34.5 37.2 35.7 L20.45 41.1 Q16.8 42.25 15.2 39.0 L15.0 38.6"/><path fill="none" stroke="#bf9900" stroke-width="1.0" stroke-opacity="0.749019607843" d="M28.25 6.1 L35.55 22.3 M15.0 38.6 L8.25 23.65"/><path fill="none" stroke="#f0b92b" stroke-width="0.5" d="M9.15 13.6 Q9.8 12.8 9.55 11.6 L9.1 10.55 22.05 6.35 Q24.9 5.45 26.25 7.85 L26.5 8.3 35.8 29.0 35.95 29.35 Q34.75 29.3 34.1 30.1 33.45 30.9 33.7 32.1 L34.0 32.9 20.65 37.2 Q18.8 37.8 17.65 37.0 16.8 36.4 16.3 35.2 L6.95 14.6 6.8 14.4 7.1 14.4 Q8.4 14.45 9.15 13.6"/></g><g id="c3"><path fill="#7fdbfe" stroke="none" d="M10.75 4.9 Q10.75 4.6 10.9 4.35 11.25 3.45 11.95 2.75 13.3 1.5 14.35 2.1 15.4 2.7 14.95 4.45 14.7 5.4 14.1 6.15 L13.75 6.5 Q13.1 7.15 12.35 7.35 L11.4 7.2 Q10.95 6.9 10.75 6.4 10.5 5.75 10.75 4.9 M7.5 5.9 Q7.0 5.85 6.6 5.5 6.05 5.0 5.8 4.15 L5.7 3.6 Q5.55 2.65 5.8 1.7 6.25 0.0 7.5 0.0 L7.6 0.0 Q8.85 0.0 9.3 1.7 9.55 2.65 9.4 3.6 L9.3 4.15 8.5 5.5 7.6 5.9 7.5 5.9 M4.35 4.9 Q4.6 5.75 4.35 6.4 L3.7 7.2 2.75 7.35 Q2.0 7.15 1.35 6.5 L1.0 6.15 Q0.4 5.4 0.15 4.45 -0.3 2.7 0.75 2.1 1.8 1.5 3.15 2.75 3.85 3.45 4.2 4.35 L4.35 4.9 M5.5 13.7 Q4.45 13.9 3.65 12.95 2.75 12.0 3.2 10.25 3.7 8.5 5.25 7.6 6.4 6.9 7.55 7.0 8.75 6.9 9.9 7.6 11.45 8.5 11.95 10.25 12.35 12.0 11.5 12.95 10.7 13.9 9.65 13.7 8.55 13.5 7.55 12.6 6.55 13.5 5.5 13.7"/></g><g id="c4"><g><use transform="matrix(1.0,0.0,0.0,1.0,0.0,0.0)" xlink:href="#c3"/></g></g><radialGradient gradientUnits="userSpaceOnUse" r="819.2" cx="0" cy="0" spreadMethod="pad" gradientTransform="matrix(0.0914459228516,0.0,0.0,0.0914459228516,0.6,3.4)" id="gradient1"><stop offset="0.0" stop-color="#ffffff"/><stop offset="1.0" stop-color="#ffffff" stop-opacity="0.0"/></radialGradient><g id="c5"><path stroke="none" fill="url(#gradient1)" d="M36.65 -54.65 Q60.05 -42.0 69.75 -17.95 80.55 8.9 68.0 34.1 55.45 59.35 26.8 68.2 -1.8 77.05 -29.7 64.3 -57.6 51.6 -68.45 24.75 -79.3 -2.05 -66.75 -27.25 L-66.7 -27.3 Q-54.1 -52.5 -25.5 -61.4 3.1 -70.2 31.0 -57.5 L36.65 -54.65"/></g><g id="c6"><g><use transform="matrix(1.0,0.0,0.0,1.0,0.0,0.0)" xlink:href="#c5"/></g></g><radialGradient gradientUnits="userSpaceOnUse" r="819.2" cx="0" cy="0" spreadMethod="pad" gradientTransform="matrix(0.209197998047,0.0,0.0,0.177108764648,67.15,107.2)" id="gradient2"><stop offset="0.356862745098" stop-color="#ffffff"/><stop offset="0.670588235294" stop-opacity="0.0"/></radialGradient><g id="c7"><path fill="none" stroke-linejoin="round" stroke-linecap="round" stroke="url(#gradient2)" stroke-width="0.5" d="M136.55 165.8 L68.6 106.0 68.4 106.0 118.25 201.5 M68.2 105.7 L68.25 105.8 68.25 105.75 68.2 105.7 0.0 45.7 M68.25 105.8 L68.3 105.85 68.3 105.8 68.25 105.75 49.95 0.05 M0.05 97.7 L68.15 105.95 68.25 105.85 68.25 105.8 M68.3 105.85 L68.25 105.85 68.3 106.0 68.3 105.85 68.3 105.8 68.35 105.8 68.3 105.8 86.6 18.35 M50.0 193.2 L68.3 106.0 68.15 105.95 18.25 151.55 M68.4 106.0 L68.3 106.0 86.55 211.5 M68.4 106.0 L68.3 105.85 M68.6 106.0 L68.35 105.8 118.25 60.15 M136.6 114.25 L68.6 106.0 M68.2 105.7 L18.25 10.05"/></g><g id="c8"><g><use transform="matrix(1.0,0.0,0.0,1.0,0.0,0.0)" xlink:href="#c7"/></g></g><g id="c9"><path fill="#9c6c0e" stroke="none" d="M22.7 21.0 L22.8 21.0 22.7 20.9 22.7 21.0"/><path fill="none" stroke="#21150b" stroke-width="0.5" stroke-opacity="0.43137254902" d="M22.7 21.0 L22.8 21.0 22.7 20.9"/></g><linearGradient gradientUnits="userSpaceOnUse" x1="-819.2" x2="819.2" spreadMethod="pad" gradientTransform="matrix(-0.0175323486328,0.00469970703125,-0.00253295898438,-0.00946044921875,2.65,-0.85)" id="gradient3"><stop offset="0.0" stop-color="#4a6907"/><stop offset="1.0" stop-color="#63a30c"/></linearGradient><linearGradient gradientUnits="userSpaceOnUse" x1="-819.2" x2="819.2" spreadMethod="pad" gradientTransform="matrix(-0.0181579589844,0.0,0.0,-0.00665283203125,2.4,4.7)" id="gradient4"><stop offset="0.0" stop-color="#6e7a16"/><stop offset="1.0" stop-color="#6bb30a"/></linearGradient><g id="c10"><path fill="#adaa2f" stroke="none" d="M-10.0 -4.8 L-9.9 -4.65 -10.0 -4.75 -10.0 -4.8"/><path fill="#679d15" stroke="none" d="M-9.9 -4.65 Q-9.35 -3.75 -9.35 -2.75 L-9.65 -1.7 Q-9.65 -1.3 -8.75 -0.7 -7.8 -0.05 -6.8 -0.05 -6.15 -0.05 -5.35 -0.7 L-4.05 -1.35 Q-3.7 -1.05 -3.3 -1.05 -2.6 -1.05 0.7 0.6 L-2.35 1.25 Q-8.8 3.0 -16.7 6.85 -14.35 -0.15 -10.0 -4.75 L-9.9 -4.65"/><path stroke="none" fill="url(#gradient3)" d="M13.05 -0.5 L11.15 -0.45 0.7 0.6 Q-2.6 -1.05 -3.3 -1.05 -3.7 -1.05 -4.05 -1.35 L-5.35 -0.7 Q-6.15 -0.05 -6.8 -0.05 -7.8 -0.05 -8.75 -0.7 -9.65 -1.3 -9.65 -1.7 L-9.35 -2.75 Q-9.35 -3.75 -9.9 -4.65 L-10.0 -4.8 -7.9 -6.8 Q-3.65 -10.45 1.7 -8.55 8.35 -6.1 13.05 -0.5"/><path stroke="none" fill="url(#gradient4)" d="M0.7 0.6 L11.15 -0.45 13.05 -0.5 Q11.15 2.9 8.45 5.35 6.8 3.95 5.85 3.95 5.55 3.95 3.5 2.85 L3.65 7.55 3.65 8.7 2.95 9.0 Q-0.2 10.5 -3.75 10.35 -7.95 10.7 -11.75 9.4 -14.45 8.45 -16.7 6.85 -8.8 3.0 -2.35 1.25 L0.7 0.6"/><path fill="#9e9d47" stroke="none" d="M3.65 8.7 L3.65 7.55 3.5 2.85 Q5.55 3.95 5.85 3.95 6.8 3.95 8.45 5.35 6.3 7.3 3.65 8.7"/><path fill="none" stroke="#000000" stroke-width="1.0" stroke-opacity="0.121568627451" d="M13.05 -0.5 Q8.35 -6.1 1.7 -8.55 -3.65 -10.45 -7.9 -6.8 L-10.0 -4.8 -10.0 -4.75 Q-14.35 -0.15 -16.7 6.85 -14.45 8.45 -11.75 9.4 -7.95 10.7 -3.75 10.35 -0.2 10.5 2.95 9.0 L3.65 8.7 Q6.3 7.3 8.45 5.35 11.15 2.9 13.05 -0.5"/><path fill="none" stroke="#000000" stroke-width="1.0" stroke-opacity="0.172549019608" d="M0.7 0.6 L11.15 -0.45 13.05 -0.5 M0.7 0.6 L-2.35 1.25 Q-8.8 3.0 -16.7 6.85"/></g><g id="c11"><g><use transform="matrix(1.0,0.0,0.0,1.0,0.0,0.0)" xlink:href="#c10"/></g></g><linearGradient gradientUnits="userSpaceOnUse" x1="-819.2" x2="819.2" spreadMethod="pad" gradientTransform="matrix(-0.0175323486328,0.00469970703125,-0.00253295898438,-0.00946044921875,2.65,-0.85)" id="gradient5"><stop offset="0.0" stop-color="#ad9f27"/><stop offset="1.0" stop-color="#b0ca46"/></linearGradient><linearGradient gradientUnits="userSpaceOnUse" x1="-819.2" x2="819.2" spreadMethod="pad" gradientTransform="matrix(0.00289916992188,0.0,0.0,0.00579833984375,4.25,-4.15)" id="gradient6"><stop offset="0.0" stop-color="#339900"/><stop offset="1.0" stop-color="#69b305"/></linearGradient><linearGradient gradientUnits="userSpaceOnUse" x1="-819.2" x2="819.2" spreadMethod="pad" gradientTransform="matrix(-0.00382995605469,0.00103759765625,-0.00144958496094,-0.00537109375,2.6,4.65)" id="gradient7"><stop offset="0.0" stop-color="#339900"/><stop offset="1.0" stop-color="#69b305"/></linearGradient><g id="c12"><path stroke="none" fill="url(#gradient5)" d="M-6.85 -7.35 L-6.95 -7.5 -6.65 -7.7 -6.85 -7.35"/><path stroke="none" fill="url(#gradient6)" d="M13.05 -0.5 L11.15 -0.45 0.7 0.6 Q-2.6 -1.05 -3.3 -1.05 -3.7 -1.05 -4.05 -1.35 L-5.35 -0.7 Q-6.15 -0.05 -6.8 -0.05 -7.8 -0.05 -8.75 -0.7 -9.65 -1.3 -9.65 -1.7 L-9.35 -2.75 Q-9.35 -3.75 -9.9 -4.65 L-10.0 -4.8 -7.9 -6.8 -6.95 -7.5 -6.85 -7.35 Q-7.5 -5.9 -6.9 -4.65 -6.25 -3.4 -4.75 -3.2 -3.25 -2.95 -1.7 -3.85 -0.15 -4.75 0.5 -6.2 1.15 -7.65 0.55 -8.9 L1.7 -8.55 Q8.35 -6.1 13.05 -0.5"/><path fill="#998d2b" stroke="none" d="M-10.0 -4.8 L-9.9 -4.65 Q-9.35 -3.75 -9.35 -2.75 L-9.65 -1.7 Q-9.65 -1.3 -8.75 -0.7 -7.8 -0.05 -6.8 -0.05 -6.15 -0.05 -5.35 -0.7 L-4.05 -1.35 Q-3.7 -1.05 -3.3 -1.05 -2.6 -1.05 0.7 0.6 L-2.35 1.25 Q-8.8 3.0 -16.7 6.85 -14.35 -0.15 -10.0 -4.8"/><path stroke="none" fill="url(#gradient7)" d="M0.7 0.6 L11.15 -0.45 13.05 -0.5 Q11.15 2.9 8.45 5.35 6.8 3.95 5.85 3.95 5.55 3.95 3.5 2.85 L3.65 7.55 3.65 8.7 2.95 9.0 Q-0.2 10.5 -3.75 10.35 -7.95 10.7 -11.75 9.4 -14.45 8.45 -16.7 6.85 -8.8 3.0 -2.35 1.25 L0.7 0.6"/><path fill="#adaa2f" stroke="none" d="M3.65 8.7 L3.65 7.55 3.5 2.85 Q5.55 3.95 5.85 3.95 6.8 3.95 8.45 5.35 6.3 7.3 3.65 8.7"/><path fill="none" stroke="#000000" stroke-width="1.0" stroke-opacity="0.2" d="M13.05 -0.5 Q8.35 -6.1 1.7 -8.55 L0.55 -8.9 Q1.15 -7.65 0.5 -6.2 -0.15 -4.75 -1.7 -3.85 -3.25 -2.95 -4.75 -3.2 -6.25 -3.4 -6.9 -4.65 -7.5 -5.9 -6.85 -7.35 L-6.65 -7.7 -6.95 -7.5 -7.9 -6.8 -10.0 -4.8 Q-14.35 -0.15 -16.7 6.85 -14.45 8.45 -11.75 9.4 -7.95 10.7 -3.75 10.35 -0.2 10.5 2.95 9.0 L3.65 8.7 Q6.3 7.3 8.45 5.35 11.15 2.9 13.05 -0.5"/><path fill="none" stroke="#000000" stroke-width="1.0" stroke-opacity="0.0823529411765" d="M0.7 0.6 L11.15 -0.45 13.05 -0.5 M0.7 0.6 L-2.35 1.25 Q-8.8 3.0 -16.7 6.85"/></g><g id="c13"><g><use transform="matrix(1.0,0.0,0.0,1.0,0.0,0.0)" xlink:href="#c12"/></g></g><g id="c14"><path fill="#ad7910" stroke="none" d="M21.2 19.7 L21.4 19.95 21.45 20.2 21.4 20.2 21.1 20.15 21.05 20.55 21.6 20.7 22.15 21.25 22.15 21.05 22.0 20.6 22.4 20.7 21.45 19.5 21.45 19.45 21.35 19.4 21.15 19.65 21.2 19.7 20.4 19.3 20.35 19.25 19.9 19.15 19.75 19.1 19.4 18.9 20.2 19.6 20.25 19.6 20.75 19.75 21.2 19.7"/><path fill="#bd8812" stroke="none" d="M21.1 20.15 L21.4 20.2 21.45 20.2 21.4 19.95 21.2 19.7 20.75 19.75 20.25 19.6 21.1 20.15"/><path fill="#9c6c0e" stroke="none" d="M21.45 19.5 L22.4 20.7 22.0 20.6 22.15 21.05 22.2 20.85 22.75 21.0 22.75 20.95 22.45 20.5 22.45 20.2 22.45 20.15 22.2 20.05 21.85 19.85 21.45 19.5"/><path fill="#996b0f" stroke="none" d="M19.4 18.9 L19.75 19.1 19.9 19.15 20.35 19.25 19.65 18.85 19.55 18.75 19.3 18.6 19.1 18.35 19.0 18.5 18.7 18.5 19.1 18.75 19.4 18.9"/><path fill="none" stroke="#21150b" stroke-width="0.5" stroke-opacity="0.43137254902" d="M21.1 20.15 L21.4 20.2 21.45 20.2 21.4 19.95 21.2 19.7 21.15 19.65 21.35 19.4 21.45 19.45 M22.15 21.05 L22.15 21.25 21.6 20.7 21.05 20.55 21.1 20.15 21.05 20.15 21.1 20.15 20.25 19.6 20.2 19.6 19.4 18.9 M22.75 21.0 L22.2 20.85 22.15 21.05 M22.2 20.05 L22.45 20.15 22.45 20.2 22.45 20.5 22.75 20.95 M20.35 19.25 L20.4 19.3 21.2 19.7 21.15 19.65 M20.35 19.25 L19.65 18.85 19.55 18.75 19.3 18.6 19.1 18.35 M18.7 18.5 L19.1 18.75 19.4 18.9 M21.45 19.5 L21.85 19.85 22.2 20.05"/><path fill="none" stroke="#21140a" stroke-width="0.5" stroke-opacity="0.211764705882" d="M20.25 19.6 L20.75 19.75 21.2 19.7 M19.4 18.9 L19.75 19.1 19.9 19.15 20.35 19.25"/><path fill="#996b0f" stroke="none" d="M19.5 21.05 L19.45 21.1 19.1 21.25 19.4 21.55 19.5 22.15 19.8 21.8 20.1 22.25 20.2 21.6 20.5 21.45 20.05 20.95 20.1 21.35 20.1 21.3 19.9 21.3 19.75 21.65 19.65 21.15 19.5 21.05 M19.85 20.7 L19.8 20.9 20.0 20.85 19.85 20.75 19.85 20.7 M19.0 19.5 L19.3 19.8 19.55 20.05 19.2 19.2 19.1 19.0 18.9 18.9 19.0 19.5"/><path fill="#f9c347" stroke="none" d="M19.5 21.05 L19.45 21.05 19.45 21.1 19.5 21.05 M19.85 20.7 L19.85 20.75 19.85 20.7 M18.9 18.9 L19.1 19.0 19.2 19.2 19.05 18.75 Q18.9 18.7 18.9 18.8 L18.9 18.9"/><path fill="#bd8812" stroke="none" d="M19.45 21.05 L19.5 21.05 19.65 21.15 19.65 21.2 19.75 21.05 19.8 20.9 19.85 20.7 19.2 20.3 19.45 21.05"/><path fill="#ad7910" stroke="none" d="M19.2 20.3 L19.85 20.7 19.55 20.1 19.55 20.05 19.3 19.8 19.0 19.5 19.2 20.25 19.2 20.3 M19.8 20.9 L19.75 21.05 19.65 21.2 19.65 21.15 19.75 21.65 19.9 21.3 20.1 21.3 20.1 21.35 20.05 20.95 20.05 20.8 20.0 20.85 19.8 20.9 M20.05 20.95 L20.0 20.85 20.05 20.95"/><path fill="none" stroke="#21150b" stroke-width="0.5" stroke-opacity="0.43137254902" d="M19.45 21.05 L19.5 21.05 M19.45 21.1 L19.45 21.05 19.2 20.3 19.2 20.25 19.0 19.5 18.9 18.9 18.9 18.8 Q18.9 18.7 19.05 18.75 L19.2 19.2 19.55 20.05 19.55 20.1 19.85 20.7 19.85 20.75 20.0 20.85 20.05 20.95 20.5 21.45 20.2 21.6 20.1 22.25 19.8 21.8 19.5 22.15 19.4 21.55 19.1 21.25 19.45 21.1 M19.85 20.7 L19.8 20.9 19.75 21.05 19.65 21.2 19.65 21.15 19.5 21.05 M19.2 19.2 L19.1 19.0 18.9 18.9 M19.85 20.7 L19.85 20.75"/><path fill="none" stroke="#21140a" stroke-width="0.5" stroke-opacity="0.211764705882" d="M19.2 20.3 L19.85 20.7 M19.0 19.5 L19.3 19.8 19.55 20.05"/><path fill="#14130e" stroke="none" d="M16.6 19.45 L16.5 19.5 16.2 19.5 15.95 19.4 15.65 19.2 15.6 19.15 15.25 18.4 15.2 18.0 15.15 17.5 15.15 17.4 14.25 16.75 13.35 15.85 13.3 15.8 13.25 15.55 13.4 15.4 13.25 15.3 Q13.1 14.55 13.25 13.75 L13.25 13.65 13.3 13.5 13.25 13.3 13.3 13.3 Q13.45 12.55 13.9 11.9 L14.3 11.4 14.5 11.2 Q15.0 10.85 15.35 10.95 L15.4 10.95 15.85 10.85 15.9 10.9 16.3 11.4 16.8 12.05 17.35 13.0 17.5 13.0 17.75 13.05 17.75 13.0 17.7 13.05 17.25 13.65 16.15 16.35 15.7 17.35 15.6 17.5 15.5 17.75 15.6 18.0 15.7 18.2 15.7 18.3 15.95 18.9 16.05 19.05 16.15 19.15 16.05 19.05 15.95 18.9 15.7 18.3 15.7 18.2 16.0 18.85 16.15 19.15 16.6 19.45 M21.15 21.8 L18.85 19.35 18.85 19.25 19.0 19.3 20.65 21.1 21.15 21.8 M17.25 19.3 L17.2 19.35 17.0 19.4 17.25 19.3 M14.9 16.75 L15.7 17.35 14.9 16.75 Q15.3 17.05 15.2 16.65 L14.05 15.55 13.85 15.7 13.8 15.75 13.85 15.8 14.75 16.7 14.9 16.75 M13.75 15.2 L13.9 15.3 13.75 15.45 13.8 15.75 13.75 15.45 13.9 15.3 13.75 15.2 13.8 15.1 13.7 14.95 13.7 13.7 13.75 15.2 M14.8 11.35 L14.4 11.8 Q14.2 12.1 13.95 12.9 L13.7 13.7 13.95 12.9 Q14.2 12.1 14.4 11.8 L14.8 11.35 14.8 11.4 14.85 11.6 15.2 11.35 15.2 11.2 15.0 11.3 15.65 10.95 15.45 10.95 Q15.25 11.0 15.05 11.2 L15.0 11.2 14.8 11.35 M15.4 10.95 Q15.15 11.0 15.0 11.15 L15.0 11.2 15.0 11.15 Q15.15 11.0 15.4 10.95 M14.0 14.75 L14.1 15.45 Q15.25 16.6 15.75 16.7 L15.9 16.5 16.45 15.2 17.0 13.9 17.1 13.6 17.1 13.4 16.95 13.3 16.25 11.95 15.9 11.45 15.75 11.4 15.35 11.6 Q14.45 12.25 14.15 13.55 L14.05 14.2 14.0 14.75 M17.75 13.05 L17.55 13.15 17.45 13.2 17.35 13.0 17.45 13.2 17.55 13.15 17.75 13.05 M17.55 13.55 L17.55 13.45 17.55 13.55"/><path fill="#805f2a" stroke="none" d="M14.8 11.35 L15.0 11.2 15.05 11.2 Q15.25 11.0 15.45 10.95 L15.65 10.95 15.0 11.3 15.2 11.2 15.2 11.35 14.85 11.6 14.8 11.4 14.8 11.35"/><path fill="#2f2615" stroke="none" d="M15.45 11.75 L15.35 11.6 15.45 11.75 14.75 12.7 14.95 13.3 14.6 12.9 Q14.25 13.7 14.2 14.75 L14.35 14.95 14.25 14.9 14.15 14.9 14.2 15.3 14.7 15.85 15.6 16.4 15.75 16.25 15.3 15.95 15.85 16.1 16.0 15.8 16.85 14.0 16.7 13.45 16.7 13.5 16.7 13.55 16.9 13.75 16.85 13.8 16.9 13.8 16.95 13.55 15.8 11.5 15.6 11.7 15.55 12.0 15.45 11.75 M14.0 14.75 L14.25 14.9 14.0 14.75 14.05 14.2 14.15 13.55 Q14.45 12.25 15.35 11.6 L15.75 11.4 15.9 11.45 16.25 11.95 16.95 13.3 17.1 13.4 17.1 13.6 17.0 13.9 16.45 15.2 15.9 16.5 15.75 16.7 Q15.25 16.6 14.1 15.45 L14.0 14.75"/><path fill="#64532d" stroke="none" d="M15.45 11.75 L15.55 12.0 15.6 11.7 15.8 11.5 16.95 13.55 16.9 13.8 16.85 13.8 16.9 13.75 16.7 13.55 16.7 13.5 16.7 13.45 16.85 14.0 16.0 15.8 15.85 16.1 15.3 15.95 15.75 16.25 15.6 16.4 14.7 15.85 14.2 15.3 14.15 14.9 14.25 14.9 14.35 14.95 14.2 14.75 Q14.25 13.7 14.6 12.9 L14.95 13.3 14.75 12.7 15.45 11.75 M16.7 13.45 L16.7 13.55 16.7 13.45 M16.9 13.75 L16.9 13.8 16.9 13.75"/><path fill="#483e2f" stroke="none" d="M17.75 13.0 L17.85 12.9 17.95 12.9 Q18.75 12.55 19.0 13.65 L19.2 14.95 18.95 15.65 18.85 15.8 18.75 16.0 18.6 16.3 18.4 16.8 18.4 16.85 18.35 17.05 18.4 17.3 18.4 16.95 19.2 17.95 19.25 18.0 20.65 19.8 23.8 23.25 24.1 23.55 Q26.05 25.25 28.0 25.55 30.15 25.85 32.6 31.35 L32.5 31.5 31.9 30.9 32.05 31.5 32.2 31.75 31.75 31.95 Q29.25 26.95 27.05 26.45 24.85 25.9 23.3 24.2 L24.4 24.85 23.7 23.85 18.35 18.05 19.0 19.3 18.85 19.25 18.05 18.3 18.0 18.3 17.9 18.5 17.85 18.65 17.75 18.8 17.7 18.9 17.3 19.05 17.3 19.0 17.1 19.1 Q16.75 19.1 16.35 18.5 L16.1 17.9 16.0 17.6 15.5 17.75 15.6 17.5 15.7 17.35 16.15 16.35 17.25 13.65 17.7 13.05 17.75 13.0 M17.55 13.55 L17.5 13.75 16.9 15.45 16.1 16.95 16.0 17.6 16.1 16.95 16.9 15.45 17.5 13.75 17.55 13.55 17.55 13.45 17.55 13.55 M16.9 18.3 L17.25 18.45 17.7 18.3 17.75 18.25 17.8 18.15 17.9 17.85 18.05 17.45 18.05 17.4 Q18.15 16.8 18.4 16.3 L18.35 16.3 18.6 15.85 18.9 15.2 18.75 14.1 18.65 13.85 Q18.4 13.25 17.85 13.55 L17.55 14.1 17.5 14.2 17.0 15.5 16.4 16.8 16.4 17.5 16.7 18.1 16.9 18.3 M18.0 18.3 L18.15 17.85 18.25 17.3 18.35 17.05 18.25 17.3 18.15 17.85 18.0 18.3"/><path fill="#726149" stroke="none" d="M17.85 12.9 L17.95 12.9 17.85 12.9"/><path fill="#241f17" stroke="none" d="M16.9 18.3 L17.15 18.4 17.65 18.25 17.7 18.15 17.9 17.5 18.15 16.5 18.2 16.5 18.45 15.95 18.65 15.45 18.5 14.5 18.45 14.25 18.35 14.05 18.15 13.95 17.7 14.0 17.5 14.5 17.4 14.55 16.95 15.8 16.65 16.55 16.4 17.55 16.65 18.05 16.7 18.1 16.9 18.25 16.9 18.3 16.7 18.1 16.4 17.5 16.4 16.8 17.0 15.5 17.5 14.2 17.55 14.1 17.85 13.55 Q18.4 13.25 18.65 13.85 L18.75 14.1 18.9 15.2 18.6 15.85 18.35 16.3 18.4 16.3 Q18.15 16.8 18.05 17.4 L18.05 17.45 17.9 17.85 17.8 18.15 17.75 18.25 17.7 18.3 17.25 18.45 16.9 18.3"/><path fill="#e8dfa1" stroke="none" d="M18.35 14.05 L18.45 14.25 18.5 14.5 18.65 15.45 18.45 15.95 18.2 16.5 18.15 16.5 17.9 17.5 17.7 18.15 17.65 18.25 17.15 18.4 16.9 18.3 16.75 17.25 17.7 16.95 17.4 15.5 18.3 15.45 17.9 14.15 18.35 14.05"/><path fill="#bdb482" stroke="none" d="M16.65 18.05 L16.4 17.55 16.65 16.55 16.95 15.8 17.4 14.55 17.5 14.5 17.7 14.0 18.15 13.95 17.95 14.0 17.7 14.25 16.55 17.0 16.55 17.25 16.65 18.05"/><path fill="#d9cf95" stroke="none" d="M16.65 18.05 L16.55 17.25 16.55 17.0 17.7 14.25 17.95 14.0 18.15 13.95 18.35 14.05 17.9 14.15 18.3 15.45 17.4 15.5 17.7 16.95 16.75 17.25 16.9 18.3 16.9 18.25 16.7 18.1 16.65 18.05"/><path fill="#56382c" stroke="none" d="M18.4 16.8 L18.45 16.95 18.4 16.85 18.4 16.8"/><path fill="#424532" stroke="none" d="M18.45 16.95 L18.45 17.0 18.4 16.95 18.4 17.3 18.35 17.05 18.4 16.85 18.45 16.95 M22.85 23.7 L21.15 21.8 20.65 21.1 19.0 19.3 18.35 18.05 23.7 23.85 24.4 24.85 22.85 23.7 M18.85 19.35 L17.85 18.65 17.9 18.5 18.0 18.3 18.05 18.3 18.85 19.25 18.85 19.35"/><path fill="#574a38" stroke="none" d="M18.95 15.65 L18.6 16.3 18.75 16.0 18.85 15.8 18.95 15.65 M17.7 18.9 L17.25 19.3 17.0 19.4 16.8 19.45 16.6 19.45 16.15 19.15 16.0 18.85 15.7 18.2 15.6 18.0 15.5 17.75 16.0 17.6 16.1 17.9 16.35 18.5 Q16.75 19.1 17.1 19.1 L17.3 19.0 17.3 19.05 17.7 18.9"/><path fill="#524e3f" stroke="none" d="M13.75 15.2 L13.7 13.7 13.7 14.95 13.8 15.1 13.75 15.2"/><path fill="#3a382c" stroke="none" d="M14.9 16.75 L14.75 16.7 13.85 15.8 13.8 15.75 13.85 15.7 14.05 15.55 15.2 16.65 Q15.3 17.05 14.9 16.75"/><path fill="#946749" stroke="none" d="M23.3 24.2 L22.85 23.7 24.4 24.85 23.3 24.2"/><path fill="#241e17" stroke="none" d="M32.5 31.5 L32.05 31.5 31.9 30.9 32.5 31.5"/><path fill="none" stroke="#000000" stroke-width="0.5" stroke-opacity="0.301960784314" d="M15.4 10.95 L15.85 10.85 15.9 10.9 16.3 11.4 16.8 12.05 17.35 13.0 17.45 13.2 17.55 13.15 17.75 13.05 17.75 13.0 M17.25 19.3 L17.2 19.35 17.0 19.4 M16.15 19.15 L16.05 19.05 15.95 18.9 15.7 18.3 15.7 18.2 M15.7 17.35 L14.9 16.75 M14.75 16.7 L13.85 15.8 13.8 15.75 13.75 15.45 13.9 15.3 13.75 15.2 13.7 13.7 13.95 12.9 Q14.2 12.1 14.4 11.8 L14.8 11.35 15.0 11.2 15.0 11.15 Q15.15 11.0 15.4 10.95 M15.35 11.6 L15.45 11.75 15.55 12.0 M16.9 13.75 L16.7 13.55 16.7 13.45 M14.25 14.9 L14.0 14.75 14.1 15.45 Q15.25 16.6 15.75 16.7 L15.9 16.5 16.45 15.2 17.0 13.9 17.1 13.6 17.1 13.4 16.95 13.3 16.25 11.95 15.9 11.45 15.75 11.4 15.35 11.6 Q14.45 12.25 14.15 13.55 L14.05 14.2 14.0 14.75 M14.95 13.3 L14.6 12.9 M14.35 14.95 L14.25 14.9 M16.9 13.8 L16.9 13.75 M13.7 13.7 L13.7 14.95 13.8 15.1 13.75 15.2"/><path fill="none" stroke="#000000" stroke-width="0.5" stroke-opacity="0.301960784314" d="M17.85 12.9 L17.95 12.9 Q18.75 12.55 19.0 13.65 L19.2 14.95 18.95 15.65 18.85 15.8 18.75 16.0 18.6 16.3 18.4 16.8 18.45 16.95 18.45 17.0 18.4 16.95 19.2 17.95 19.25 18.0 20.65 19.8 23.8 23.25 24.1 23.55 Q26.05 25.25 28.0 25.55 30.15 25.85 32.6 31.35 L32.5 31.5 32.05 31.5 32.2 31.75 31.75 31.95 Q29.25 26.95 27.05 26.45 24.85 25.9 23.3 24.2 L22.85 23.7 21.15 21.8 18.85 19.35 17.85 18.65 17.75 18.8 17.7 18.9 17.3 19.05 17.3 19.0 17.1 19.1 Q16.75 19.1 16.35 18.5 L16.1 17.9 16.0 17.6 16.1 16.95 16.9 15.45 17.5 13.75 17.55 13.55 M17.95 12.9 L17.85 12.9 M17.55 13.45 L17.55 13.55 M18.35 14.05 L18.45 14.25 18.5 14.5 18.65 15.45 18.45 15.95 18.2 16.5 18.15 16.5 17.9 17.5 17.7 18.15 17.65 18.25 17.15 18.4 16.9 18.3 17.25 18.45 17.7 18.3 17.75 18.25 17.8 18.15 17.9 17.85 18.05 17.45 18.05 17.4 Q18.15 16.8 18.4 16.3 L18.35 16.3 18.6 15.85 18.9 15.2 18.75 14.1 18.65 13.85 Q18.4 13.25 17.85 13.55 L17.55 14.1 17.5 14.2 17.0 15.5 16.4 16.8 16.4 17.5 16.7 18.1 16.9 18.3 16.9 18.25 16.7 18.1 16.65 18.05 M18.15 13.95 L17.7 14.0 17.5 14.5 17.4 14.55 16.95 15.8 16.65 16.55 16.4 17.55 16.65 18.05 M18.15 13.95 L18.35 14.05 17.9 14.15 18.3 15.45 17.4 15.5 17.7 16.95 16.75 17.25 16.9 18.3 M18.4 16.8 L18.4 16.85 18.35 17.05 18.25 17.3 18.15 17.85 18.0 18.3 18.05 18.3 18.85 19.25 18.85 19.35 M18.0 18.3 L17.9 18.5 17.85 18.65 M32.5 31.5 L31.9 30.9 32.05 31.5"/><path fill="none" stroke="#000000" stroke-width="0.5" stroke-opacity="0.301960784314" d="M28.75 25.65 L27.35 26.0"/><path fill="none" stroke="#000000" stroke-width="0.5" stroke-opacity="0.301960784314" d="M27.35 26.0 L23.95 23.8"/><path fill="none" stroke="#000000" stroke-width="0.5" stroke-opacity="0.301960784314" d="M24.0 23.9 L19.7 18.95"/><path fill="none" stroke="#000000" stroke-width="0.5" stroke-opacity="0.301960784314" d="M32.05 31.0 L30.35 27.95"/><path fill="none" stroke="#000000" stroke-width="0.5" stroke-opacity="0.301960784314" d="M30.35 27.95 L28.8 26.55"/><path fill="none" stroke="#000000" stroke-width="0.5" stroke-opacity="0.301960784314" d="M28.8 26.55 L27.55 26.5"/><path fill="none" stroke="#000000" stroke-width="0.5" stroke-opacity="0.301960784314" d="M29.3 26.0 L30.55 27.65"/><path fill="none" stroke="#000000" stroke-width="0.5" stroke-opacity="0.301960784314" d="M30.55 27.65 L31.35 28.35"/><path fill="none" stroke="#000000" stroke-width="0.5" stroke-opacity="0.301960784314" d="M26.95 26.35 L24.05 24.65"/><path fill="none" stroke="#000000" stroke-width="0.5" stroke-opacity="0.301960784314" d="M19.7 18.95 L18.35 17.95"/></g><g id="c15"><path fill="#996b0f" stroke="none" d="M19.0 18.0 L18.95 18.05 Q18.75 17.6 19.15 17.55 L19.35 17.7 19.45 17.85 19.55 18.45 19.4 18.2 19.3 18.1 19.0 18.0"/><path fill="#ad7910" stroke="none" d="M19.55 18.45 L19.55 18.55 19.45 19.35 19.4 19.4 19.3 19.05 19.15 18.55 19.1 18.15 19.05 18.15 19.0 18.0 19.3 18.1 19.4 18.2 19.55 18.45"/><path fill="#cc951a" stroke="none" d="M19.4 19.4 L19.1 19.85 18.95 19.7 19.0 19.35 19.0 19.3 19.1 19.2 19.15 18.65 19.15 18.55 19.3 19.05 19.4 19.4"/><path fill="#bd8812" stroke="none" d="M19.1 19.85 L19.0 19.85 18.95 19.85 18.6 19.5 18.65 19.4 19.0 19.35 18.95 19.7 19.1 19.85"/><path fill="none" stroke="#21150b" stroke-width="0.5" stroke-opacity="0.43137254902" d="M19.35 17.7 L19.45 17.85 19.55 18.45 19.55 18.55 19.45 19.35 19.4 19.4 19.1 19.85 19.0 19.85 18.95 19.85 18.6 19.5 18.65 19.4 19.0 19.35 19.0 19.3 19.1 19.2 19.15 18.65 19.15 18.55 19.1 18.15 19.05 18.15 19.0 18.0"/><path fill="none" stroke="#21140a" stroke-width="0.5" stroke-opacity="0.211764705882" d="M19.0 18.0 L19.3 18.1 19.4 18.2 19.55 18.45 M19.0 19.35 L18.95 19.7 19.1 19.85 M19.4 19.4 L19.3 19.05 19.15 18.55"/><path fill="none" stroke="#755224" stroke-width="0.5" d="M19.0 19.35 L19.0 19.3"/></g><g id="c16"><path fill="#996b0f" stroke="none" d="M19.0 17.95 L18.95 17.9 Q19.1 17.45 19.35 17.7 L19.4 18.0 19.4 18.15 19.15 18.7 19.15 18.4 19.15 18.2 19.0 17.95"/><path fill="#ad7910" stroke="none" d="M19.15 18.7 L19.05 18.8 18.5 19.25 18.45 19.3 18.6 18.95 18.8 18.45 18.95 18.1 19.0 18.0 19.0 17.95 19.15 18.2 19.15 18.4 19.15 18.7"/><path fill="#cc951a" stroke="none" d="M18.45 19.3 L18.0 19.25 17.95 19.05 18.25 18.85 18.35 18.8 18.7 18.5 18.8 18.45 18.6 18.95 18.45 19.3"/><path fill="#bd8812" stroke="none" d="M18.0 19.25 L17.9 19.25 17.9 19.2 Q17.7 19.0 17.8 18.65 L17.95 18.55 18.25 18.85 17.95 19.05 18.0 19.25"/><path fill="none" stroke="#21150b" stroke-width="0.5" stroke-opacity="0.43137254902" d="M19.4 18.0 L19.4 18.15 19.15 18.7 19.05 18.8 18.5 19.25 18.45 19.3 18.0 19.25 17.9 19.25 17.9 19.2 Q17.7 19.0 17.8 18.65 L17.95 18.55 18.25 18.85 18.35 18.8 18.7 18.5 18.8 18.45 18.95 18.1 19.0 18.0 19.0 17.95"/><path fill="none" stroke="#21140a" stroke-width="0.5" stroke-opacity="0.211764705882" d="M19.0 17.95 L19.15 18.2 19.15 18.4 19.15 18.7 M18.25 18.85 L17.95 19.05 18.0 19.25 M18.45 19.3 L18.6 18.95 18.8 18.45"/><path fill="#e8daa7" stroke="none" d="M13.2 17.45 L13.15 17.5 Q12.9 17.7 12.8 18.0 L12.85 18.65 12.95 18.8 Q13.25 18.8 13.05 18.6 L13.0 18.55 13.05 18.55 Q12.85 17.95 13.2 17.45"/><path fill="#d9cc9c" stroke="none" d="M13.25 18.15 L13.2 17.95 Q13.25 17.8 13.45 17.75 L13.7 17.7 13.75 17.7 14.05 17.85 14.1 18.15 13.95 18.35 13.9 18.35 13.6 18.4 13.25 18.2 13.25 18.15 M15.25 16.5 L15.0 16.35 13.85 17.45 13.8 17.45 13.25 17.5 13.2 17.45 Q12.85 17.95 13.05 18.55 14.2 18.95 14.4 18.25 L14.35 17.85 14.3 17.8 14.25 17.65 15.25 16.5 M13.85 17.45 L14.25 17.65 13.85 17.45"/><path fill="#9c9270" stroke="none" d="M13.75 17.7 L13.7 17.7 13.45 17.75 Q13.25 17.8 13.2 17.95 L13.25 18.15 13.4 18.1 13.55 18.1 13.75 17.7 M12.95 18.8 L13.4 19.05 14.05 18.95 14.45 18.4 14.4 18.25 Q14.2 18.95 13.05 18.55 L13.0 18.55 13.05 18.6 Q13.25 18.8 12.95 18.8 M14.35 17.85 L15.15 16.8 15.25 16.5 14.25 17.65 14.3 17.8 14.35 17.85 M13.05 18.55 L13.05 18.6 13.05 18.55"/><path fill="#c7bb8f" stroke="none" d="M13.75 17.7 L13.55 18.1 13.6 18.1 13.65 18.1 13.9 18.25 13.95 18.35 14.1 18.15 14.05 17.85 13.75 17.7"/><path fill="none" stroke="#000000" stroke-width="0.5" stroke-opacity="0.152941176471" d="M13.25 18.15 L13.2 17.95 Q13.25 17.8 13.45 17.75 L13.7 17.7 13.75 17.7 13.55 18.1 13.4 18.1 13.25 18.15 13.25 18.2 13.6 18.4 13.9 18.35 13.95 18.35 14.1 18.15 14.05 17.85 13.75 17.7 M15.25 16.5 L15.0 16.35 13.85 17.45 13.8 17.45 13.25 17.5 13.2 17.45 13.15 17.5 Q12.9 17.7 12.8 18.0 L12.85 18.65 12.95 18.8 13.4 19.05 14.05 18.95 14.45 18.4 14.4 18.25 14.35 17.85 15.15 16.8 15.25 16.5 14.25 17.65 13.85 17.45 M13.55 18.1 L13.6 18.1 13.65 18.1 13.9 18.25 13.95 18.35 M13.05 18.6 L13.05 18.55 Q14.2 18.95 14.4 18.25 M12.95 18.8 Q13.25 18.8 13.05 18.6 L13.0 18.55 13.05 18.55 M14.35 17.85 L14.3 17.8 14.25 17.65"/><path fill="#e8daa7" stroke="none" d="M11.35 12.3 L11.25 12.3 10.5 12.35 Q10.2 12.45 10.05 12.85 L10.0 13.05 Q10.15 13.25 10.25 12.9 10.65 12.3 11.35 12.3"/><path fill="#d9cc9c" stroke="none" d="M10.75 12.8 L10.9 12.6 11.25 12.6 11.45 12.85 11.5 12.9 11.55 13.25 11.4 13.55 11.1 13.55 11.05 13.5 10.8 13.25 Q10.7 13.05 10.75 12.85 L10.75 12.8 M13.6 13.35 L13.55 13.1 11.85 12.85 11.8 12.8 11.35 12.3 Q10.65 12.3 10.25 12.9 10.7 14.25 11.55 13.9 L11.8 13.5 11.8 13.45 11.85 13.3 13.6 13.35 M11.85 12.85 L11.85 13.3 11.85 12.85"/><path fill="#9c9270" stroke="none" d="M11.5 12.9 L11.45 12.85 11.25 12.6 10.9 12.6 10.75 12.8 10.85 12.85 11.05 13.0 11.5 12.9 M10.0 13.05 L10.1 13.55 10.65 14.1 11.35 14.0 11.55 13.9 Q10.7 14.25 10.25 12.9 10.15 13.25 10.0 13.05 M11.8 13.5 L13.3 13.5 13.6 13.35 11.85 13.3 11.8 13.45 11.8 13.5"/><path fill="#c7bb8f" stroke="none" d="M11.5 12.9 L11.05 13.0 11.05 13.05 11.1 13.1 11.15 13.4 11.1 13.55 11.4 13.55 11.55 13.25 11.5 12.9"/><path fill="none" stroke="#000000" stroke-width="0.5" stroke-opacity="0.152941176471" d="M10.75 12.8 L10.9 12.6 11.25 12.6 11.45 12.85 11.5 12.9 11.05 13.0 10.85 12.85 10.75 12.8 10.75 12.85 Q10.7 13.05 10.8 13.25 L11.05 13.5 11.1 13.55 11.4 13.55 11.55 13.25 11.5 12.9 M13.6 13.35 L13.55 13.1 11.85 12.85 11.8 12.8 11.35 12.3 11.25 12.3 10.5 12.35 Q10.2 12.45 10.05 12.85 L10.0 13.05 10.1 13.55 10.65 14.1 11.35 14.0 11.55 13.9 11.8 13.5 13.3 13.5 13.6 13.35 11.85 13.3 11.85 12.85 M11.05 13.0 L11.05 13.05 11.1 13.1 11.15 13.4 11.1 13.55 M10.25 12.9 Q10.7 14.25 11.55 13.9 M10.0 13.05 Q10.15 13.25 10.25 12.9 M11.8 13.5 L11.8 13.45 11.85 13.3"/><path fill="#e8daa7" stroke="none" d="M17.05 10.9 L17.1 10.85 Q17.1 10.45 17.4 10.25 L18.1 10.05 18.3 10.1 18.1 10.3 18.05 10.25 18.05 10.3 Q17.4 10.35 17.05 10.9"/><path fill="#d9cc9c" stroke="none" d="M17.75 10.6 L17.5 10.7 17.4 10.95 17.45 11.3 17.5 11.35 17.8 11.5 18.1 11.5 18.2 11.25 18.1 10.9 17.8 10.65 17.75 10.6 M16.95 13.25 L16.7 13.15 17.3 11.55 17.25 11.5 17.05 10.95 17.05 10.9 Q17.4 10.35 18.05 10.3 18.95 11.25 18.3 11.8 L17.9 11.9 17.8 11.85 17.7 11.8 16.95 13.25 M17.3 11.55 L17.7 11.8 17.3 11.55"/><path fill="#9c9270" stroke="none" d="M17.5 11.35 L17.45 11.3 17.4 10.95 17.5 10.7 17.75 10.6 17.7 10.8 17.8 10.95 17.5 11.35 M18.3 10.1 L18.65 10.4 18.85 11.1 Q18.75 11.5 18.45 11.7 L18.3 11.8 Q18.95 11.25 18.05 10.3 L18.05 10.25 18.1 10.3 18.3 10.1 M17.9 11.9 L17.2 13.15 16.95 13.25 17.7 11.8 17.8 11.85 17.9 11.9 M18.05 10.3 L18.1 10.3 18.05 10.3"/><path fill="#c7bb8f" stroke="none" d="M17.5 11.35 L17.8 10.95 17.8 11.0 17.85 11.05 18.05 11.2 18.2 11.25 18.1 11.5 17.8 11.5 17.5 11.35"/><path fill="none" stroke="#000000" stroke-width="0.5" stroke-opacity="0.152941176471" d="M17.75 10.6 L17.5 10.7 17.4 10.95 17.45 11.3 17.5 11.35 17.8 10.95 17.7 10.8 17.75 10.6 17.8 10.65 18.1 10.9 18.2 11.25 18.1 11.5 17.8 11.5 17.5 11.35 M16.95 13.25 L16.7 13.15 17.3 11.55 17.25 11.5 17.05 10.95 17.05 10.9 17.1 10.85 Q17.1 10.45 17.4 10.25 L18.1 10.05 18.3 10.1 18.65 10.4 18.85 11.1 Q18.75 11.5 18.45 11.7 L18.3 11.8 17.9 11.9 17.2 13.15 16.95 13.25 17.7 11.8 17.3 11.55 M17.8 10.95 L17.8 11.0 17.85 11.05 18.05 11.2 18.2 11.25 M18.1 10.3 L18.05 10.3 Q18.95 11.25 18.3 11.8 M18.3 10.1 L18.1 10.3 18.05 10.25 18.05 10.3 M17.9 11.9 L17.8 11.85 17.7 11.8"/><path fill="#ffffff" fill-opacity="0.752941176471" d="M16.35 13.85 L16.15 13.85 15.85 13.6 15.65 13.2 15.6 12.95 15.8 13.0 16.15 13.3 16.4 13.65 16.35 13.85"/><path fill="#ffffff" fill-opacity="0.752941176471" d="M15.6 14.8 L15.8 15.2 15.85 15.4 15.6 15.45 15.25 15.15 15.0 14.8 Q14.95 14.6 15.05 14.55 15.05 14.4 15.25 14.55 L15.6 14.8"/></g><g id="c17"><g><use transform="matrix(1.0,0.0,0.0,1.0,0.0,0.0)" xlink:href="#c2"/></g><g><use transform="matrix(0.238861083984,-0.0867004394531,0.10026550293,0.233917236328,34.25,31.15)" xlink:href="#c4"/></g><g><use transform="matrix(0.238861083984,-0.0867004394531,0.10026550293,0.233917236328,4.25,10.3)" xlink:href="#c4"/></g><g><use transform="matrix(0.141098022461,-0.0378112792969,0.111373901367,0.225646972656,20.25,20.65)" filter="url(#filter9)" xlink:href="#c6"/></g><g><use transform="matrix(-0.155029296875,0.0513153076172,0.0841827392578,0.147033691406,22.6,2.3)" filter="url(#filter10)" xlink:href="#c8"/></g><g><use transform="matrix(1.0,0.0,0.0,1.0,0.0,0.0)" xlink:href="#c9"/></g><g><use transform="matrix(0.0249938964844,0.0792083740234,0.0644836425781,-0.0235595703125,16.45,17.7)" filter="url(#filter12)" xlink:href="#c11"/></g><g><use transform="matrix(-0.0394134521484,-0.113510131836,-0.0980682373047,0.000411987304688,17.15,19.9)" filter="url(#filter13)" xlink:href="#c13"/></g><g><use transform="matrix(0.122512817383,0.0353698730469,-0.0407867431641,0.120681762695,15.0,18.2)" filter="url(#filter14)" xlink:href="#c11"/></g><g><use transform="matrix(-0.0737762451172,0.0747375488281,0.0448608398438,0.0392303466797,17.7,17.85)" filter="url(#filter15)" xlink:href="#c11"/></g><g><use transform="matrix(1.0,0.0,0.0,1.0,0.0,0.0)" xlink:href="#c14"/></g><g><use transform="matrix(-0.101684570312,-0.0264892578125,-0.0115203857422,0.0585174560547,20.25,18.85)" filter="url(#filter17)" xlink:href="#c11"/></g><g><use transform="matrix(1.0,0.0,0.0,1.0,0.0,0.0)" xlink:href="#c15"/></g><g><use transform="matrix(-0.0560913085938,0.0612945556641,0.0527191162109,0.0440521240234,19.85,17.65)" filter="url(#filter19)" xlink:href="#c11"/></g><g><use transform="matrix(1.0,0.0,0.0,1.0,0.0,0.0)" xlink:href="#c16"/></g><g><use transform="matrix(0.162948608398,-0.0436706542969,0.128631591797,0.260604858398,20.35,20.95)" filter="url(#filter21)" xlink:href="#c6"/></g></g><filter id="filter9"><feColorMatrix in="SourceGraphic" type="matrix" values="0.0 0.0 0.0 0.0 0.796875 0.0 0.0 0.0 0.0 0.59765625 0.0 0.0 0.0 0.0 0.19921875 0.0 0.0 0.0 1.0 0.0" result="cxform"/><feComposite operator="in" in2="SourceGraphic" result="color-xform"/></filter><filter id="filter10"><feColorMatrix in="SourceGraphic" type="matrix" values="0.0 0.0 0.0 0.0 0.99609375 0.0 0.0 0.0 0.0 0.99609375 0.0 0.0 0.0 0.0 0.99609375 0.0 0.0 0.0 1.0 0.0" result="cxform"/><feComposite operator="in" in2="SourceGraphic" result="color-xform"/></filter><filter id="filter12"><feColorMatrix in="SourceGraphic" type="matrix" values="0.00390625 0.0 0.0 0.0 0.1796875 0.0 0.00390625 0.0 0.0 0.16015625 0.0 0.0 0.00390625 0.0 0.0 0.0 0.0 0.0 0.00390625 0.0" result="cxform"/><feComposite operator="in" in2="SourceGraphic" result="color-xform"/></filter><filter id="filter13"><feColorMatrix in="SourceGraphic" type="matrix" values="0.94140625 0.0 0.0 0.0 -0.1640625 0.0 0.94140625 0.0 0.0 -0.09375 0.0 0.0 1.0 0.0 -0.0546875 0.0 0.0 0.0 1.0 0.0" result="cxform"/><feComposite operator="in" in2="SourceGraphic" result="color-xform"/></filter><filter id="filter14"><feColorMatrix in="SourceGraphic" type="matrix" values="0.00390625 0.0 0.0 0.0 0.21484375 0.0 0.00390625 0.0 0.0 0.16015625 0.0 0.0 0.00390625 0.0 0.0 0.0 0.0 0.0 0.00390625 0.0" result="cxform"/><feComposite operator="in" in2="SourceGraphic" result="color-xform"/></filter><filter id="filter15"><feColorMatrix in="SourceGraphic" type="matrix" values="0.00390625 0.0 0.0 0.0 0.14453125 0.0 0.00390625 0.0 0.0 0.16015625 0.0 0.0 0.00390625 0.0 0.05078125 0.0 0.0 0.0 0.00390625 0.0" result="cxform"/><feComposite operator="in" in2="SourceGraphic" result="color-xform"/></filter><filter id="filter17"><feColorMatrix in="SourceGraphic" type="matrix" values="0.00390625 0.0 0.0 0.0 0.14453125 0.0 0.00390625 0.0 0.0 0.16015625 0.0 0.0 0.00390625 0.0 0.05078125 0.0 0.0 0.0 0.00390625 0.0" result="cxform"/><feComposite operator="in" in2="SourceGraphic" result="color-xform"/></filter><filter id="filter19"><feColorMatrix in="SourceGraphic" type="matrix" values="0.00390625 0.0 0.0 0.0 0.1796875 0.0 0.00390625 0.0 0.0 0.16015625 0.0 0.0 0.00390625 0.0 0.0 0.0 0.0 0.0 0.00390625 0.0" result="cxform"/><feComposite operator="in" in2="SourceGraphic" result="color-xform"/></filter><filter id="filter21"><feColorMatrix in="SourceGraphic" type="matrix" values="1.0 0.0 0.0 0.0 0.0 0.0 1.0 0.0 0.0 0.0 0.0 0.0 1.0 0.0 0.0 0.0 0.0 0.0 0.23046875 0.0" result="cxform"/><feComposite operator="in" in2="SourceGraphic" result="color-xform"/></filter></defs><g><g><use transform="matrix(1.0,0.0,0.0,1.0,0.0,0.0)" xlink:href="#c1"/></g><g><use transform="matrix(1.15496826172,0.0,0.0,1.15496826172,5.85,3.95)" xlink:href="#c17"/></g></g></svg>