<?xml version='1.0' encoding='UTF-8'?>
<svg xmlns:xlink="http://www.w3.org/1999/xlink" xmlns="http://www.w3.org/2000/svg" version="1.1" width="60px" height="60px" viewBox="0.0 0.0 60.0 60.0"><defs><g id="c1"><path fill="#000000" fill-opacity="0.00392156862745" d="M0.0 0.0 L60.0 0.0 60.0 60.0 0.0 60.0 0.0 0.0"/></g><g id="c2"><path fill="none" stroke="#000000" stroke-width="1.0" stroke-opacity="0.301960784314" d="M22.3 0.35 Q26.6 -1.0 28.5 3.05 L41.4 31.7 Q43.1 35.4 39.9 36.85 L38.15 37.65 19.65 43.65 Q17.05 44.5 15.35 43.3 14.2 42.55 13.5 40.9 L0.55 12.25 Q-0.6 9.75 0.6 8.25 1.15 7.55 2.2 7.05 2.85 6.6 3.8 6.3 L22.3 0.35"/><path fill="#300525" stroke="none" d="M25.55 0.9 Q26.9 1.6 27.8 3.55 L40.7 32.15 Q42.6 36.3 38.3 37.65 L23.3 42.5 13.15 21.4 4.6 20.9 0.7 12.25 Q-0.45 9.75 0.75 8.25 L29.8 9.75 25.55 0.9 M20.1 43.55 L19.8 43.65 Q17.15 44.45 15.5 43.3 L20.1 43.55"/><path fill="#630a4c" stroke="none" d="M23.3 42.5 L20.1 43.55 15.5 43.3 Q14.35 42.55 13.65 40.9 L4.6 20.9 13.15 21.4 23.3 42.5 M0.75 8.25 Q1.45 7.3 3.1 6.75 L21.65 0.8 25.55 0.9 29.8 9.75 0.75 8.25"/><path fill="none" stroke="#000000" stroke-width="0.5" stroke-opacity="0.301960784314" d="M25.55 0.9 Q26.9 1.6 27.8 3.55 L40.7 32.15 Q42.6 36.3 38.3 37.65 L23.3 42.5 20.1 43.55 19.8 43.65 Q17.15 44.45 15.5 43.3 14.35 42.55 13.65 40.9 L4.6 20.9 0.7 12.25 Q-0.45 9.75 0.75 8.25 1.45 7.3 3.1 6.75 L21.65 0.8 25.55 0.9"/><path fill="#9d147b" stroke="none" d="M14.2 40.5 L1.35 11.8 Q-0.5 7.75 3.8 6.35 L22.3 0.4 Q26.55 -1.0 28.45 3.1 L41.35 31.7 Q43.25 35.85 38.9 37.25 L20.4 43.2 Q16.1 44.55 14.2 40.5"/><path fill="none" stroke="#000000" stroke-width="0.5" stroke-opacity="0.301960784314" d="M14.2 40.5 L1.35 11.8 Q-0.5 7.75 3.8 6.35 L22.3 0.4 Q26.55 -1.0 28.45 3.1 L41.35 31.7 Q43.25 35.85 38.9 37.25 L20.4 43.2 Q16.1 44.55 14.2 40.5"/><path fill="#fcf2cf" stroke="none" d="M9.15 13.6 Q9.8 12.8 9.55 11.6 L9.1 10.55 22.05 6.35 Q24.9 5.45 26.25 7.85 L26.5 8.3 35.8 29.0 35.95 29.35 Q34.75 29.3 34.1 30.1 33.45 30.9 33.7 32.1 L34.0 32.9 20.65 37.2 Q18.8 37.8 17.65 37.0 16.8 36.4 16.3 35.2 L6.95 14.6 6.8 14.4 7.1 14.4 Q8.4 14.45 9.15 13.6"/><path fill="#c47fad" stroke="none" d="M8.25 23.65 L3.35 12.8 Q1.65 9.1 5.5 7.85 L22.25 2.5 Q26.05 1.25 27.75 4.95 L28.25 6.1 35.55 22.3 39.35 30.75 Q41.1 34.5 37.2 35.7 L20.45 41.1 Q16.8 42.25 15.2 39.0 L15.0 38.6 8.25 23.65 M9.15 13.6 Q8.4 14.45 7.1 14.4 L6.8 14.4 6.95 14.6 16.3 35.2 Q16.8 36.4 17.65 37.0 18.8 37.8 20.65 37.2 L34.0 32.9 33.7 32.1 Q33.45 30.9 34.1 30.1 34.75 29.3 35.95 29.35 L35.8 29.0 26.5 8.3 26.25 7.85 Q24.9 5.45 22.05 6.35 L9.1 10.55 9.55 11.6 Q9.8 12.8 9.15 13.6"/><path fill="none" stroke="#ffcc00" stroke-width="1.0" stroke-opacity="0.749019607843" d="M8.25 23.65 L3.35 12.8 Q1.65 9.1 5.5 7.85 L22.25 2.5 Q26.05 1.25 27.75 4.95 L28.25 6.1 M35.55 22.3 L39.35 30.75 Q41.1 34.5 37.2 35.7 L20.45 41.1 Q16.8 42.25 15.2 39.0 L15.0 38.6"/><path fill="none" stroke="#bf9900" stroke-width="1.0" stroke-opacity="0.749019607843" d="M28.25 6.1 L35.55 22.3 M15.0 38.6 L8.25 23.65"/><path fill="none" stroke="#f0b92b" stroke-width="0.5" d="M9.15 13.6 Q9.8 12.8 9.55 11.6 L9.1 10.55 22.05 6.35 Q24.9 5.45 26.25 7.85 L26.5 8.3 35.8 29.0 35.95 29.35 Q34.75 29.3 34.1 30.1 33.45 30.9 33.7 32.1 L34.0 32.9 20.65 37.2 Q18.8 37.8 17.65 37.0 16.8 36.4 16.3 35.2 L6.95 14.6 6.8 14.4 7.1 14.4 Q8.4 14.45 9.15 13.6"/></g><g id="c3"><path fill="#7fdbfe" stroke="none" d="M10.75 4.9 Q10.75 4.6 10.9 4.35 11.25 3.45 11.95 2.75 13.3 1.5 14.35 2.1 15.4 2.7 14.95 4.45 14.7 5.4 14.1 6.15 L13.75 6.5 Q13.1 7.15 12.35 7.35 L11.4 7.2 Q10.95 6.9 10.75 6.4 10.5 5.75 10.75 4.9 M7.5 5.9 Q7.0 5.85 6.6 5.5 6.05 5.0 5.8 4.15 L5.7 3.6 Q5.55 2.65 5.8 1.7 6.25 0.0 7.5 0.0 L7.6 0.0 Q8.85 0.0 9.3 1.7 9.55 2.65 9.4 3.6 L9.3 4.15 8.5 5.5 7.6 5.9 7.5 5.9 M4.35 4.9 Q4.6 5.75 4.35 6.4 L3.7 7.2 2.75 7.35 Q2.0 7.15 1.35 6.5 L1.0 6.15 Q0.4 5.4 0.15 4.45 -0.3 2.7 0.75 2.1 1.8 1.5 3.15 2.75 3.85 3.45 4.2 4.35 L4.35 4.9 M5.5 13.7 Q4.45 13.9 3.65 12.95 2.75 12.0 3.2 10.25 3.7 8.5 5.25 7.6 6.4 6.9 7.55 7.0 8.75 6.9 9.9 7.6 11.45 8.5 11.95 10.25 12.35 12.0 11.5 12.95 10.7 13.9 9.65 13.7 8.55 13.5 7.55 12.6 6.55 13.5 5.5 13.7"/></g><g id="c4"><g><use transform="matrix(1.0,0.0,0.0,1.0,0.0,0.0)" xlink:href="#c3"/></g></g><radialGradient gradientUnits="userSpaceOnUse" r="819.2" cx="0" cy="0" spreadMethod="pad" gradientTransform="matrix(0.0914459228516,0.0,0.0,0.0914459228516,0.6,3.4)" id="gradient1"><stop offset="0.0" stop-color="#ffffff"/><stop offset="1.0" stop-color="#ffffff" stop-opacity="0.0"/></radialGradient><g id="c5"><path stroke="none" fill="url(#gradient1)" d="M36.65 -54.65 Q60.05 -42.0 69.75 -17.95 80.55 8.9 68.0 34.1 55.45 59.35 26.8 68.2 -1.8 77.05 -29.7 64.3 -57.6 51.6 -68.45 24.75 -79.3 -2.05 -66.75 -27.25 L-66.7 -27.3 Q-54.1 -52.5 -25.5 -61.4 3.1 -70.2 31.0 -57.5 L36.65 -54.65"/></g><g id="c6"><g><use transform="matrix(1.0,0.0,0.0,1.0,0.0,0.0)" xlink:href="#c5"/></g></g><radialGradient gradientUnits="userSpaceOnUse" r="819.2" cx="0" cy="0" spreadMethod="pad" gradientTransform="matrix(0.209197998047,0.0,0.0,0.177108764648,67.15,107.2)" id="gradient2"><stop offset="0.356862745098" stop-color="#ffffff"/><stop offset="0.670588235294" stop-opacity="0.0"/></radialGradient><g id="c7"><path fill="none" stroke-linejoin="round" stroke-linecap="round" stroke="url(#gradient2)" stroke-width="0.5" d="M136.55 165.8 L68.6 106.0 68.4 106.0 118.25 201.5 M68.2 105.7 L68.25 105.8 68.25 105.75 68.2 105.7 0.0 45.7 M68.25 105.8 L68.3 105.85 68.3 105.8 68.25 105.75 49.95 0.05 M0.05 97.7 L68.15 105.95 68.25 105.85 68.25 105.8 M68.3 105.85 L68.25 105.85 68.3 106.0 68.3 105.85 68.3 105.8 68.35 105.8 68.3 105.8 86.6 18.35 M50.0 193.2 L68.3 106.0 68.15 105.95 18.25 151.55 M68.4 106.0 L68.3 106.0 86.55 211.5 M68.4 106.0 L68.3 105.85 M68.6 106.0 L68.35 105.8 118.25 60.15 M136.6 114.25 L68.6 106.0 M68.2 105.7 L18.25 10.05"/></g><g id="c8"><g><use transform="matrix(1.0,0.0,0.0,1.0,0.0,0.0)" xlink:href="#c7"/></g></g><g id="c9"><path fill="#d0c586" stroke="none" d="M27.1 16.5 Q26.85 16.05 26.2 15.85 L24.75 16.05 Q24.3 16.2 23.95 16.5 L23.55 16.95 Q23.2 17.55 23.4 18.15 23.65 18.7 24.35 18.85 L25.8 18.7 27.0 17.75 Q27.35 17.15 27.15 16.6 L27.1 16.5 M24.4 17.6 Q24.0 17.25 24.3 16.55 L24.85 16.25 26.05 16.15 26.65 16.45 Q26.7 17.25 25.7 17.7 L25.95 17.6 26.9 16.95 26.7 17.7 25.7 18.45 24.5 18.6 23.75 18.0 Q23.55 17.55 23.85 17.0 L23.9 16.95 24.0 17.1 24.4 17.6"/><path fill="#696141" stroke="none" d="M24.4 17.6 L24.0 17.1 23.9 16.95 23.85 17.0 Q23.55 17.55 23.75 18.0 L24.5 18.6 25.7 18.45 26.7 17.7 26.9 16.95 25.95 17.6 25.7 17.7 24.75 17.7 24.4 17.6"/><path fill="#a89e64" stroke="none" d="M25.7 17.7 Q26.7 17.25 26.65 16.45 L26.05 16.15 24.85 16.25 24.3 16.55 Q24.0 17.25 24.4 17.6 L24.75 17.7 25.7 17.7"/><path fill="none" stroke="#000000" stroke-width="0.5" stroke-opacity="0.301960784314" d="M27.1 16.5 Q26.85 16.05 26.2 15.85 L24.75 16.05 Q24.3 16.2 23.95 16.5 L23.55 16.95 Q23.2 17.55 23.4 18.15 23.65 18.7 24.35 18.85 L25.8 18.7 27.0 17.75 Q27.35 17.15 27.15 16.6 L27.1 16.5"/><path fill="#a89e64" stroke="none" d="M16.4 13.85 L17.4 14.2 18.45 13.6 17.15 13.35 Q17.8 13.85 16.4 13.85 M15.5 13.95 L14.65 13.85 Q14.15 14.65 14.2 15.6 14.85 16.1 15.5 13.95 M14.4 16.65 L13.8 16.65 13.35 17.1 14.65 17.3 14.4 16.65 M12.25 17.8 L12.25 18.8 Q13.7 19.05 13.5 17.3 12.9 17.35 12.25 17.8 M14.45 21.1 L14.3 20.65 13.75 20.75 13.9 21.1 14.45 21.1 M13.25 21.7 L13.45 22.25 Q14.45 22.65 14.1 21.25 13.65 21.3 13.25 21.7 M16.1 26.9 L16.6 26.65 15.45 26.55 15.35 26.55 15.45 26.6 Q16.05 26.6 16.1 26.9"/><path fill="#d0c586" stroke="none" d="M17.4 14.2 L16.4 13.85 Q15.55 13.7 14.65 13.85 L15.5 13.95 17.2 14.45 17.4 14.2 M12.3 17.7 L12.25 17.8 Q12.9 17.35 13.5 17.3 L14.6 17.45 14.65 17.3 13.35 17.1 Q12.8 17.25 12.3 17.7 M14.45 21.1 L13.9 21.1 Q13.55 21.2 13.25 21.6 L13.25 21.7 Q13.65 21.3 14.1 21.25 L14.55 21.3 14.45 21.1 M15.95 27.05 L16.1 26.9 Q16.05 26.6 15.45 26.6 16.05 26.7 15.95 27.05 M15.8 24.0 L15.65 23.75 Q15.25 24.25 15.5 25.3 15.5 24.25 15.8 24.0"/><path fill="#bfb072" stroke="none" d="M14.65 13.85 Q15.55 13.7 16.4 13.85 17.8 13.85 17.15 13.35 15.8 13.2 14.65 13.85 M13.8 16.65 Q12.7 16.75 12.3 17.7 12.8 17.25 13.35 17.1 L13.8 16.65 M13.9 21.1 L13.75 20.75 Q13.35 21.0 13.25 21.6 13.55 21.2 13.9 21.1"/><path fill="#5f5a3a" stroke="none" d="M17.2 14.45 L15.5 13.95 Q14.85 16.1 14.2 15.6 L14.4 16.65 14.65 17.3 14.65 17.35 17.2 14.45 M12.25 18.8 L12.4 19.25 Q12.75 20.15 14.2 20.3 L14.6 17.45 13.5 17.3 Q13.7 19.05 12.25 18.8 M13.45 22.25 Q13.9 23.2 15.2 22.95 L14.55 21.3 14.1 21.25 Q14.45 22.65 13.45 22.25 M15.35 26.55 Q15.0 26.85 15.35 27.7 L15.95 27.05 Q16.05 26.7 15.45 26.6 L15.35 26.55 M15.5 25.3 Q16.2 25.9 16.95 25.65 L15.8 24.0 Q15.5 24.25 15.5 25.3"/><path fill="none" stroke="#000000" stroke-width="0.5" stroke-opacity="0.301960784314" d="M17.4 14.2 L17.2 14.45 M17.15 13.35 L18.45 13.6 17.4 14.2 M14.65 13.85 Q14.15 14.65 14.2 15.6 L14.4 16.65 13.8 16.65 Q12.7 16.75 12.3 17.7 L12.25 17.8 12.25 18.8 12.4 19.25 Q12.75 20.15 14.2 20.3 L14.6 17.45 14.65 17.3 14.65 17.35 17.2 14.45 M14.4 16.65 L14.65 17.3 M17.15 13.35 Q15.8 13.2 14.65 13.85 M13.75 20.75 L14.3 20.65 14.45 21.1 M13.75 20.75 Q13.35 21.0 13.25 21.6 L13.25 21.7 13.45 22.25 Q13.9 23.2 15.2 22.95 L14.55 21.3 14.45 21.1 M15.35 26.55 Q15.0 26.85 15.35 27.7 L15.95 27.05 16.1 26.9 16.6 26.65 15.45 26.55 15.35 26.55 15.45 26.6 M15.5 25.3 Q16.2 25.9 16.95 25.65 L15.8 24.0 15.65 23.75 Q15.25 24.25 15.5 25.3"/><path fill="#d0c586" stroke="none" d="M25.85 20.55 Q27.45 18.5 26.85 16.95 26.2 15.75 24.85 15.6 22.15 12.55 18.8 13.3 13.45 15.6 14.1 20.65 L14.15 20.85 Q14.9 23.85 17.25 26.3 L17.5 26.55 18.45 27.4 19.55 28.0 18.75 27.35 Q15.1 24.0 14.45 20.7 14.15 18.65 14.9 17.15 L15.75 15.9 15.85 15.8 Q15.4 16.9 15.8 18.05 L16.35 19.05 Q15.3 17.15 16.6 15.05 18.45 13.35 20.2 13.5 22.65 13.6 24.45 15.6 23.2 15.75 22.85 16.15 24.45 15.45 25.7 16.15 L26.2 16.6 Q27.0 18.2 24.35 19.8 26.8 18.65 26.6 17.3 26.85 18.15 26.25 19.3 L25.5 20.45 25.85 20.55 25.5 20.45 Q23.5 20.05 21.4 21.35 L20.95 21.65 20.2 22.4 Q18.6 22.8 17.2 21.85 18.05 22.9 19.85 22.75 L19.3 23.65 19.25 23.8 19.0 24.8 19.0 25.3 19.15 24.65 Q19.8 23.05 20.9 22.05 20.55 22.85 20.85 24.1 21.75 26.7 23.65 27.2 L26.7 27.0 Q27.65 26.4 28.25 25.8 L28.8 25.1 Q29.4 21.85 25.85 20.55 M20.8 13.65 L20.15 13.8 19.85 14.2 20.15 14.55 20.8 14.7 21.45 14.55 21.7 14.2 21.45 13.8 20.8 13.65 M23.05 24.55 Q21.05 23.65 21.65 21.65 22.8 20.8 24.65 20.65 26.75 20.7 28.05 22.2 L28.45 23.2 Q28.8 24.25 28.35 25.2 27.85 26.05 26.7 26.65 L24.05 27.0 23.65 26.9 Q21.85 26.3 21.1 23.95 20.85 22.85 21.15 22.15 21.0 23.4 22.25 24.2 L23.05 24.55 M19.85 22.75 L20.2 22.4 19.85 22.75"/><path fill="#a89e64" stroke="none" d="M25.5 20.45 L26.25 19.3 Q26.85 18.15 26.6 17.3 26.8 18.65 24.35 19.8 L23.3 20.2 Q19.6 21.75 17.05 19.9 L16.35 19.05 15.8 18.05 Q14.95 17.0 15.45 19.2 16.0 20.55 17.2 21.85 18.6 22.8 20.2 22.4 L20.95 21.65 21.4 21.35 Q23.5 20.05 25.5 20.45 M18.45 27.4 L17.5 26.55 16.6 26.75 Q15.7 27.7 17.5 28.7 L18.9 28.6 Q19.35 28.35 18.45 27.4 M28.45 23.2 Q28.9 24.9 26.0 25.15 L24.2 24.95 Q22.75 24.7 22.25 24.95 L22.25 25.0 Q22.0 25.7 23.65 26.9 L24.05 27.0 26.7 26.65 Q27.85 26.05 28.35 25.2 28.8 24.25 28.45 23.2 M23.65 27.2 Q21.75 26.7 20.85 24.1 20.55 22.85 20.9 22.05 19.8 23.05 19.15 24.65 L19.0 25.3 Q18.8 28.3 21.75 28.55 23.8 28.45 23.65 27.2"/><path fill="#bfb072" stroke="none" d="M24.35 19.8 Q27.0 18.2 26.2 16.6 L25.7 16.15 Q24.45 15.45 22.85 16.15 23.2 15.75 24.45 15.6 22.65 13.6 20.2 13.5 18.45 13.35 16.6 15.05 15.3 17.15 16.35 19.05 L17.05 19.9 Q19.6 21.75 23.3 20.2 L24.35 19.8 M17.5 26.55 L17.25 26.3 Q15.5 26.6 15.5 27.7 15.25 29.25 18.85 30.1 26.65 30.5 28.65 25.7 L28.8 25.1 28.25 25.8 Q27.7 27.0 26.45 27.95 24.8 29.2 21.85 29.6 18.6 30.05 16.65 28.95 15.55 28.25 15.9 27.3 L16.25 26.95 Q15.7 27.5 16.55 28.2 L17.5 28.7 Q15.7 27.7 16.6 26.75 L17.5 26.55 M28.45 23.2 L28.05 22.2 Q26.75 20.7 24.65 20.65 22.8 20.8 21.65 21.65 21.05 23.65 23.05 24.55 L24.2 24.95 26.0 25.15 Q28.9 24.9 28.45 23.2 M20.8 13.65 L21.45 13.8 21.7 14.2 21.45 14.55 20.8 14.7 20.15 14.55 19.85 14.2 20.15 13.8 20.8 13.65"/><path fill="#696141" stroke="none" d="M15.8 18.05 Q15.4 16.9 15.85 15.8 L15.75 15.9 14.9 17.15 Q14.15 18.65 14.45 20.7 15.1 24.0 18.75 27.35 L19.55 28.0 18.45 27.4 Q19.35 28.35 18.9 28.6 L17.5 28.7 16.55 28.2 Q15.7 27.5 16.25 26.95 L15.9 27.3 Q15.55 28.25 16.65 28.95 18.6 30.05 21.85 29.6 24.8 29.2 26.45 27.95 27.7 27.0 28.25 25.8 27.65 26.4 26.7 27.0 L23.65 27.2 Q23.8 28.45 21.75 28.55 18.8 28.3 19.0 25.3 L19.0 24.8 19.0 23.45 Q17.65 23.05 17.2 21.85 16.0 20.55 15.45 19.2 14.95 17.0 15.8 18.05 M24.2 24.95 L23.05 24.55 22.25 24.2 Q21.0 23.4 21.15 22.15 20.85 22.85 21.1 23.95 21.85 26.3 23.65 26.9 22.0 25.7 22.25 25.0 L22.25 24.95 Q22.75 24.7 24.2 24.95"/><path fill="#5f5a3a" stroke="none" d="M19.0 24.8 L19.25 23.8 19.3 23.65 19.85 22.75 Q18.05 22.9 17.2 21.85 17.65 23.05 19.0 23.45 L19.0 24.8"/><path fill="none" stroke="#000000" stroke-width="0.5" stroke-opacity="0.301960784314" d="M17.25 26.3 Q14.9 23.85 14.15 20.85 L14.1 20.65 Q13.45 15.6 18.8 13.3 22.15 12.55 24.85 15.6 26.2 15.75 26.85 16.95 27.45 18.5 25.85 20.55 L25.5 20.45 Q23.5 20.05 21.4 21.35 L20.95 21.65 20.2 22.4 19.85 22.75 19.3 23.65 M18.45 27.4 L17.5 26.55 17.25 26.3 Q15.5 26.6 15.5 27.7 15.25 29.25 18.85 30.1 26.65 30.5 28.65 25.7 L28.8 25.1 Q29.4 21.85 25.85 20.55 M28.25 25.8 L28.8 25.1 M17.2 21.85 Q18.05 22.9 19.85 22.75 M20.9 22.05 Q20.55 22.85 20.85 24.1 21.75 26.7 23.65 27.2 L26.7 27.0 Q27.65 26.4 28.25 25.8"/><path fill="#696141" stroke="none" d="M17.7 14.75 L17.5 15.05 17.4 15.2 17.35 15.45 Q17.2 15.9 17.4 16.4 L17.4 16.5 17.5 16.65 17.9 17.2 18.45 17.6 18.7 17.75 20.05 17.9 20.6 17.75 20.9 17.55 21.25 17.15 21.45 16.65 21.45 16.05 21.35 15.75 21.2 15.45 20.35 14.6 20.3 14.55 Q19.5 14.1 18.7 14.25 18.1 14.35 17.7 14.75 M21.2 14.05 Q21.2 14.3 21.7 14.75 L22.55 15.4 22.85 15.55 23.95 15.95 24.45 15.75 24.1 15.15 23.95 15.0 23.45 14.6 22.8 14.2 22.35 14.0 21.7 13.8 Q21.2 13.75 21.2 14.05"/><path fill="#5f5a3a" stroke="none" d="M22.1 18.55 L20.5 19.35 Q19.45 20.35 20.05 20.45 L26.2 17.75 Q26.6 17.4 25.55 17.35 L24.8 17.55 24.75 17.75 23.9 18.5 23.35 18.65 22.1 18.55"/><path fill="#ffff98" stroke="none" d="M18.0 14.75 L17.8 15.05 17.7 15.2 17.65 15.45 Q17.5 15.9 17.7 16.4 L17.7 16.45 17.7 16.5 17.8 16.65 18.2 17.2 18.75 17.6 19.0 17.75 20.35 17.9 20.9 17.75 21.2 17.55 21.55 17.15 21.75 16.65 21.75 16.05 21.65 15.75 21.5 15.45 20.65 14.6 20.6 14.55 Q19.8 14.15 19.0 14.25 18.4 14.35 18.0 14.75 M18.75 16.4 Q18.4 15.95 18.5 15.45 18.55 15.05 18.85 14.6 L19.1 14.55 Q19.8 14.4 20.45 14.8 L20.5 14.8 21.2 15.45 21.4 15.8 21.4 15.9 Q21.35 16.35 20.75 16.65 L19.95 16.9 21.2 16.65 21.45 16.45 21.45 16.65 21.3 17.0 21.1 17.2 20.25 17.65 18.9 17.4 18.6 17.2 18.1 16.65 18.0 16.4 Q17.8 15.9 17.95 15.45 L18.0 15.3 18.05 15.2 18.45 14.8 18.35 15.45 Q18.35 16.0 18.75 16.4 M22.4 14.75 Q22.05 14.35 22.45 14.2 L23.15 14.5 24.05 15.1 24.3 15.35 24.4 15.5 24.4 15.6 24.05 15.7 23.2 15.35 22.95 15.25 22.3 14.75 21.9 14.25 22.0 14.15 22.2 14.15 Q22.05 14.15 22.05 14.3 L22.1 14.4 22.4 14.75 M24.25 15.0 L23.75 14.6 23.1 14.2 22.7 14.0 22.0 13.8 Q21.5 13.75 21.5 14.05 21.5 14.3 22.0 14.75 L22.85 15.4 23.15 15.55 24.25 15.95 Q24.75 16.0 24.75 15.75 L24.35 15.15 24.25 15.05 24.25 15.0"/><path fill="#ffde4f" stroke="none" d="M23.35 18.65 L23.9 18.5 24.75 17.75 22.85 18.4 Q22.7 18.6 23.35 18.65 M19.95 16.9 L20.75 16.65 Q21.35 16.35 21.4 15.9 L21.4 15.8 21.2 15.45 20.5 14.8 20.45 14.8 Q19.8 14.4 19.1 14.55 L18.85 14.6 Q18.55 15.05 18.5 15.45 18.4 15.95 18.75 16.4 L19.05 16.65 19.95 16.9 M24.05 15.1 L23.15 14.5 22.45 14.2 Q22.05 14.35 22.4 14.75 L23.05 15.1 23.2 15.2 23.6 15.35 Q24.2 15.4 24.05 15.1"/><path fill="#f4a33c" stroke="none" d="M22.1 18.55 L23.35 18.65 Q22.7 18.6 22.85 18.4 L24.75 17.75 24.8 17.55 Q23.55 17.85 22.1 18.55 M18.75 16.4 Q18.35 16.0 18.35 15.45 L18.45 14.8 18.05 15.2 18.0 15.3 17.95 15.45 Q17.8 15.9 18.0 16.4 L18.1 16.65 18.6 17.2 18.9 17.4 20.25 17.65 21.1 17.2 21.3 17.0 21.45 16.65 21.45 16.45 21.2 16.65 19.95 16.9 19.05 16.65 18.75 16.4 M22.4 14.75 L22.1 14.4 22.05 14.3 Q22.05 14.15 22.2 14.15 L22.0 14.15 21.9 14.25 22.3 14.75 22.95 15.25 23.2 15.35 24.05 15.7 24.4 15.6 24.4 15.5 24.3 15.35 24.05 15.1 Q24.2 15.4 23.6 15.35 L23.2 15.2 23.05 15.1 22.4 14.75"/><path fill="none" stroke="#000000" stroke-width="0.5" stroke-opacity="0.301960784314" d="M24.8 17.55 L25.55 17.35 Q26.6 17.4 26.2 17.75 L20.05 20.45 Q19.45 20.35 20.5 19.35 L22.1 18.55 23.35 18.65 23.9 18.5 24.75 17.75 24.8 17.55 Q23.55 17.85 22.1 18.55 M18.0 14.75 L17.8 15.05 17.7 15.2 17.65 15.45 Q17.5 15.9 17.7 16.4 L17.7 16.45 17.7 16.5 17.8 16.65 18.2 17.2 18.75 17.6 19.0 17.75 20.35 17.9 20.9 17.75 21.2 17.55 21.55 17.15 21.75 16.65 21.75 16.05 21.65 15.75 21.5 15.45 20.65 14.6 20.6 14.55 Q19.8 14.15 19.0 14.25 18.4 14.35 18.0 14.75 M24.25 15.0 L23.75 14.6 23.1 14.2 22.7 14.0 22.0 13.8 Q21.5 13.75 21.5 14.05 21.5 14.3 22.0 14.75 L22.85 15.4 23.15 15.55 24.25 15.95 Q24.75 16.0 24.75 15.75 L24.35 15.15 24.25 15.05"/><path fill="#d0c586" stroke="none" d="M17.0 18.5 L16.2 19.0 15.85 19.45 Q15.45 20.05 15.7 20.6 15.9 21.15 16.6 21.3 L18.1 21.2 19.25 20.25 Q19.65 19.65 19.4 19.1 L19.35 19.0 18.5 18.35 17.0 18.5 M17.95 20.2 L18.25 20.1 19.15 19.4 18.95 20.2 18.0 20.95 16.75 21.05 Q16.2 20.95 16.0 20.5 15.8 20.0 16.15 19.5 L16.2 19.4 16.25 19.6 16.7 20.1 Q16.25 19.7 16.55 19.05 16.8 18.85 17.1 18.75 L18.3 18.6 Q18.7 18.7 18.9 18.9 18.95 19.7 17.95 20.2"/><path fill="#696141" stroke="none" d="M16.7 20.1 L16.25 19.6 16.2 19.4 16.15 19.5 Q15.8 20.0 16.0 20.5 16.2 20.95 16.75 21.05 L18.0 20.95 18.95 20.2 19.15 19.4 18.25 20.1 17.95 20.2 17.0 20.2 16.7 20.1"/><path fill="#a89e64" stroke="none" d="M17.95 20.2 Q18.95 19.7 18.9 18.9 18.7 18.7 18.3 18.6 L17.1 18.75 Q16.8 18.85 16.55 19.05 16.25 19.7 16.7 20.1 L17.0 20.2 17.95 20.2"/><path fill="none" stroke="#000000" stroke-width="0.5" stroke-opacity="0.301960784314" d="M17.0 18.5 L16.2 19.0 15.85 19.45 Q15.45 20.05 15.7 20.6 15.9 21.15 16.6 21.3 L18.1 21.2 19.25 20.25 Q19.65 19.65 19.4 19.1 L19.35 19.0 18.5 18.35 17.0 18.5"/><path fill="#5f5a3a" stroke="none" d="M27.75 23.45 L27.35 23.85 27.3 24.0 27.4 24.35 27.25 24.75 27.1 25.1 Q27.0 25.6 27.05 26.05 27.15 26.7 27.5 26.9 L28.1 26.95 28.4 26.8 29.1 25.85 29.3 24.5 28.9 23.7 28.4 23.4 27.75 23.45"/><path fill="#5f5a3a" stroke="none" d="M21.25 26.1 L21.1 26.0 21.0 26.0 20.6 26.1 Q20.35 26.25 20.25 26.6 L20.25 27.05 20.3 27.25 20.55 27.6 20.55 27.75 Q20.55 28.3 20.9 28.85 21.4 29.55 22.25 29.7 L23.4 29.6 23.85 29.35 Q24.6 28.85 24.8 28.0 25.0 27.15 24.5 26.4 24.0 25.75 23.15 25.6 22.25 25.4 21.55 25.9 L21.25 26.1"/><path fill="#d0c586" stroke="none" d="M27.1 25.7 L27.3 25.2 Q27.35 24.75 27.05 24.4 26.8 24.1 26.35 24.05 L26.3 24.05 Q25.8 24.05 25.45 24.4 25.05 24.75 24.95 25.2 24.9 25.65 25.2 26.0 25.45 26.35 25.95 26.35 L26.8 26.0 27.1 25.7 M25.75 25.05 Q25.9 24.45 26.55 24.3 L26.9 24.55 27.1 25.2 26.95 25.55 26.1 25.7 26.6 25.8 26.75 25.8 26.7 25.85 26.0 26.15 Q25.6 26.15 25.35 25.85 25.1 25.6 25.15 25.2 25.2 24.8 25.55 24.55 25.8 24.3 26.1 24.25 L25.8 24.9 25.75 25.05"/><path fill="#696141" stroke="none" d="M26.1 25.7 L25.95 25.55 25.75 25.05 25.8 24.9 26.1 24.25 Q25.8 24.3 25.55 24.55 25.2 24.8 25.15 25.2 25.1 25.6 25.35 25.85 25.6 26.15 26.0 26.15 L26.7 25.85 26.75 25.8 26.6 25.8 26.1 25.7"/><path fill="#a89e64" stroke="none" d="M26.1 25.7 L26.95 25.55 27.1 25.2 26.9 24.55 26.55 24.3 Q25.9 24.45 25.75 25.05 L25.95 25.55 26.1 25.7"/><path fill="none" stroke="#000000" stroke-width="0.5" stroke-opacity="0.301960784314" d="M27.1 25.7 L26.8 26.0 25.95 26.35 Q25.45 26.35 25.2 26.0 24.9 25.65 24.95 25.2 25.05 24.75 25.45 24.4 25.8 24.05 26.3 24.05 L26.35 24.05 Q26.8 24.1 27.05 24.4 27.35 24.75 27.3 25.2 L27.1 25.7"/><path fill="#d0c586" stroke="none" d="M21.25 28.2 L21.1 27.5 Q21.25 26.85 21.55 26.35 22.05 25.55 22.8 25.1 23.3 24.8 23.95 24.65 L24.3 24.6 25.75 24.9 Q26.35 25.3 26.2 25.45 L24.75 25.35 Q24.4 25.4 24.1 25.6 L23.7 25.9 22.95 26.65 Q22.15 27.65 22.25 28.6 L22.3 28.75 Q22.55 29.55 22.1 29.25 21.45 28.95 21.25 28.2 M21.45 29.05 Q22.15 29.85 23.35 29.85 24.6 29.85 25.6 29.05 26.6 28.25 26.85 27.1 27.1 26.0 26.35 25.2 L25.8 24.7 24.45 24.4 23.35 24.55 Q22.75 24.75 22.2 25.2 21.2 26.0 21.0 27.1 20.9 27.4 20.95 27.7 20.95 28.45 21.45 29.05 M22.85 29.35 L22.65 29.05 Q22.35 28.45 22.7 27.6 23.05 26.7 23.85 26.1 L24.05 25.95 Q24.75 25.5 25.35 25.5 L26.0 25.65 26.25 25.85 26.4 26.1 Q26.7 26.7 26.35 27.6 L25.2 29.05 24.9 29.3 Q24.3 29.65 23.7 29.65 L22.85 29.35"/><path fill="#696141" stroke="none" d="M21.55 26.35 Q21.25 26.85 21.1 27.5 L21.25 28.2 Q21.9 28.95 22.25 28.6 22.15 27.65 22.95 26.65 22.2 27.2 21.55 26.35 M24.05 25.95 L23.85 26.1 Q23.05 26.7 22.7 27.6 22.35 28.45 22.65 29.05 L22.85 29.35 Q23.75 27.85 24.05 25.95 M24.9 29.3 L25.2 29.05 26.35 27.6 Q26.7 26.7 26.4 26.1 L26.25 25.85 Q25.5 26.4 25.0 28.25 L24.9 29.3"/><path fill="#a89e64" stroke="none" d="M21.25 28.2 Q21.45 28.95 22.1 29.25 22.55 29.55 22.3 28.75 L22.25 28.6 Q21.9 28.95 21.25 28.2 M22.95 26.65 L23.7 25.9 Q22.4 26.2 22.8 25.1 22.05 25.55 21.55 26.35 22.2 27.2 22.95 26.65 M24.75 25.35 L26.2 25.45 Q26.35 25.3 25.75 24.9 L24.3 24.6 Q24.95 24.8 24.75 25.35 M26.25 25.85 L26.0 25.65 Q25.25 26.65 25.0 28.25 25.5 26.4 26.25 25.85"/><path fill="#bfb072" stroke="none" d="M23.7 25.9 L24.1 25.6 Q24.4 25.4 24.75 25.35 24.95 24.8 24.3 24.6 L23.95 24.65 Q23.3 24.8 22.8 25.1 22.4 26.2 23.7 25.9"/><path fill="#5f5a3a" stroke="none" d="M22.85 29.35 L23.7 29.65 Q24.3 29.65 24.9 29.3 L25.0 28.25 Q25.25 26.65 26.0 25.65 L25.35 25.5 Q24.75 25.5 24.05 25.95 23.75 27.85 22.85 29.35"/><path fill="none" stroke="#000000" stroke-width="0.5" stroke-opacity="0.301960784314" d="M21.45 29.05 Q22.15 29.85 23.35 29.85 24.6 29.85 25.6 29.05 26.6 28.25 26.85 27.1 27.1 26.0 26.35 25.2 L25.8 24.7 24.45 24.4 23.35 24.55 Q22.75 24.75 22.2 25.2 21.2 26.0 21.0 27.1 20.9 27.4 20.95 27.7 20.95 28.45 21.45 29.05"/><path fill="#5f5a3a" stroke="none" d="M22.65 26.5 L22.1 26.5 Q21.75 26.6 21.5 26.8 L21.15 27.25 21.3 27.55 21.85 27.55 22.0 27.45 22.45 27.25 22.8 26.8 22.75 26.55 22.65 26.5"/><path fill="#5f5a3a" stroke="none" d="M24.5 24.65 L23.8 24.8 23.4 25.15 23.45 25.45 23.95 25.6 24.15 25.6 24.65 25.45 25.1 25.15 25.1 24.9 25.0 24.8 Q24.85 24.65 24.5 24.65"/><path fill="#696141" stroke="none" d="M23.85 24.3 L23.9 24.15 Q23.95 23.85 24.15 23.6 L23.65 23.85 Q23.35 24.1 23.3 24.45 23.25 24.8 23.45 25.05 L24.05 25.3 24.75 25.05 24.8 25.0 24.65 25.0 24.2 24.9 24.05 24.75 23.85 24.3"/><path fill="#d0c586" stroke="none" d="M24.2 24.9 L24.65 25.0 24.8 25.0 24.75 25.05 24.05 25.3 23.45 25.05 Q23.25 24.8 23.3 24.45 23.35 24.1 23.65 23.85 L24.15 23.6 Q23.95 23.85 23.9 24.15 L23.85 24.3 Q24.0 23.75 24.6 23.6 L24.9 23.85 25.1 24.45 25.0 24.75 24.2 24.9 M24.45 23.4 L24.35 23.4 Q23.9 23.4 23.55 23.7 23.2 24.0 23.1 24.45 23.05 24.9 23.3 25.2 L24.05 25.5 24.85 25.2 25.1 24.9 25.3 24.45 Q25.35 24.0 25.05 23.7 24.85 23.4 24.45 23.4"/><path fill="#a89e64" stroke="none" d="M23.85 24.3 L24.05 24.75 24.2 24.9 25.0 24.75 25.1 24.45 24.9 23.85 24.6 23.6 Q24.0 23.75 23.85 24.3"/><path fill="none" stroke="#000000" stroke-width="0.5" stroke-opacity="0.301960784314" d="M24.45 23.4 Q24.85 23.4 25.05 23.7 25.35 24.0 25.3 24.45 L25.1 24.9 24.85 25.2 24.05 25.5 23.3 25.2 Q23.05 24.9 23.1 24.45 23.2 24.0 23.55 23.7 23.9 23.4 24.35 23.4 L24.45 23.4"/><path fill="#d0c586" stroke="none" d="M22.65 25.45 Q22.4 25.15 21.95 25.1 L21.85 25.1 Q21.4 25.1 21.0 25.45 20.6 25.8 20.55 26.25 20.45 26.7 20.75 27.05 21.05 27.4 21.55 27.4 L22.4 27.05 22.65 26.75 22.85 26.25 Q22.95 25.8 22.65 25.45 M21.7 26.75 L22.2 26.85 22.35 26.85 22.3 26.9 21.55 27.2 Q21.15 27.2 20.95 26.9 20.7 26.65 20.75 26.25 20.8 25.85 21.15 25.6 L21.7 25.3 21.35 25.95 21.35 26.1 Q21.5 25.5 22.1 25.35 22.35 25.4 22.5 25.6 22.75 25.85 22.65 26.25 L22.55 26.6 21.7 26.75"/><path fill="#696141" stroke="none" d="M21.35 26.1 L21.35 25.95 21.7 25.3 21.15 25.6 Q20.8 25.85 20.75 26.25 20.7 26.65 20.95 26.9 21.15 27.2 21.55 27.2 L22.3 26.9 22.35 26.85 22.2 26.85 21.7 26.75 21.55 26.6 21.35 26.1"/><path fill="#a89e64" stroke="none" d="M21.35 26.1 L21.55 26.6 21.7 26.75 22.55 26.6 22.65 26.25 Q22.75 25.85 22.5 25.6 22.35 25.4 22.1 25.35 21.5 25.5 21.35 26.1"/><path fill="none" stroke="#000000" stroke-width="0.5" stroke-opacity="0.301960784314" d="M22.65 25.45 Q22.95 25.8 22.85 26.25 L22.65 26.75 22.4 27.05 21.55 27.4 Q21.05 27.4 20.75 27.05 20.45 26.7 20.55 26.25 20.6 25.8 21.0 25.45 21.4 25.1 21.85 25.1 L21.95 25.1 Q22.4 25.15 22.65 25.45"/><path fill="#a89e64" stroke="none" d="M30.65 22.85 L31.0 23.05 31.2 23.0 31.55 22.4 31.4 22.1 Q31.25 21.85 30.95 21.85 L30.6 21.95 Q30.35 22.4 30.65 22.85"/><path fill="#d0c586" stroke="none" d="M31.2 23.0 L31.5 22.8 31.6 22.7 31.6 22.75 31.35 23.4 30.85 23.6 Q30.55 23.6 30.4 23.35 L30.2 22.7 30.35 22.2 30.55 22.75 30.65 22.85 Q30.35 22.4 30.6 21.95 L30.95 21.85 Q31.25 21.85 31.4 22.1 L31.55 22.4 31.2 23.0 M30.4 21.9 L30.35 21.95 Q30.1 22.25 30.1 22.7 30.05 23.15 30.3 23.45 L30.85 23.8 Q31.2 23.8 31.45 23.5 L31.75 22.75 31.7 22.45 31.55 22.0 30.95 21.65 Q30.65 21.65 30.4 21.9"/><path fill="#696141" stroke="none" d="M30.65 22.85 L30.55 22.75 30.35 22.2 30.2 22.7 30.4 23.35 Q30.55 23.6 30.85 23.6 L31.35 23.4 31.6 22.75 31.6 22.7 31.5 22.8 31.2 23.0 31.0 23.05 30.65 22.85"/><path fill="none" stroke="#000000" stroke-width="0.5" stroke-opacity="0.301960784314" d="M30.4 21.9 Q30.65 21.65 30.95 21.65 L31.55 22.0 31.7 22.45 31.75 22.75 31.45 23.5 Q31.2 23.8 30.85 23.8 L30.3 23.45 Q30.05 23.15 30.1 22.7 30.1 22.25 30.35 21.95 L30.4 21.9"/><path fill="#d0c586" stroke="none" d="M30.95 22.6 Q30.75 21.8 30.05 21.8 L29.4 21.95 28.65 22.6 Q27.95 23.4 27.65 24.5 L27.5 25.1 Q27.4 25.65 27.45 26.15 L27.55 26.45 Q27.8 27.25 28.45 27.25 28.95 27.25 29.45 26.85 L29.85 26.45 Q30.55 25.65 30.9 24.5 31.2 23.4 30.95 22.6 M30.75 23.25 L30.8 23.8 30.55 24.8 30.4 25.2 29.6 26.45 29.55 26.5 Q29.2 26.85 28.95 26.8 L28.9 26.75 Q28.65 26.65 28.7 26.0 L28.75 25.6 29.1 24.6 29.6 23.7 29.9 23.35 Q30.35 22.9 30.6 23.0 L30.65 23.05 30.75 23.25 M29.35 22.25 Q29.75 21.95 30.15 21.95 30.95 22.2 30.7 22.8 L30.05 22.95 29.45 23.55 28.7 24.95 28.7 25.1 28.55 25.7 28.5 25.8 28.5 26.15 28.6 26.6 Q28.7 27.35 27.95 26.85 L27.75 26.45 27.7 26.05 27.7 25.05 27.75 24.9 Q28.05 23.8 28.6 23.1 L28.9 22.7 29.35 22.25"/><path fill="#696141" stroke="none" d="M29.55 26.5 L29.6 26.45 30.4 25.2 30.55 24.8 30.8 23.8 30.75 23.25 Q30.35 23.8 29.85 25.1 L29.75 25.35 29.55 26.5 M29.6 23.7 L29.1 24.6 28.75 25.6 28.7 26.0 Q28.65 26.65 28.9 26.75 L28.95 26.8 29.6 23.7 M27.75 24.9 L27.7 25.05 27.7 26.05 27.75 26.45 Q28.2 26.75 28.5 26.15 L28.5 25.8 28.55 25.7 28.7 25.1 28.7 24.95 27.75 24.9"/><path fill="#a89e64" stroke="none" d="M30.75 23.25 L30.65 23.05 29.8 25.15 29.75 25.35 29.85 25.1 Q30.35 23.8 30.75 23.25 M30.05 22.95 L30.7 22.8 Q30.95 22.2 30.15 21.95 29.75 21.95 29.35 22.25 30.2 22.15 30.05 22.95 M28.6 23.1 Q28.05 23.8 27.75 24.9 L28.7 24.95 29.45 23.55 Q28.35 23.65 28.6 23.1 M27.75 26.45 L27.95 26.85 Q28.7 27.35 28.6 26.6 L28.5 26.15 Q28.2 26.75 27.75 26.45"/><path fill="#5f5a3a" stroke="none" d="M30.65 23.05 L30.6 23.0 Q30.35 22.9 29.9 23.35 L29.6 23.7 28.95 26.8 Q29.2 26.85 29.55 26.5 L29.75 25.35 29.8 25.15 30.65 23.05"/><path fill="#bfb072" stroke="none" d="M30.05 22.95 Q30.2 22.15 29.35 22.25 L28.9 22.7 28.6 23.1 Q28.35 23.65 29.45 23.55 L30.05 22.95"/><path fill="none" stroke="#000000" stroke-width="0.5" stroke-opacity="0.301960784314" d="M30.95 22.6 Q30.75 21.8 30.05 21.8 L29.4 21.95 28.65 22.6 Q27.95 23.4 27.65 24.5 L27.5 25.1 Q27.4 25.65 27.45 26.15 L27.55 26.45 Q27.8 27.25 28.45 27.25 28.95 27.25 29.45 26.85 L29.85 26.45 Q30.55 25.65 30.9 24.5 31.2 23.4 30.95 22.6"/><path fill="#5f5a3a" stroke="none" d="M28.35 23.8 L28.0 24.15 Q27.9 24.4 27.95 24.55 L28.25 24.75 28.7 24.65 28.85 24.6 29.05 24.3 29.1 23.9 28.95 23.7 28.8 23.7 28.35 23.8"/><path fill="#a89e64" stroke="none" d="M28.65 23.95 L29.05 23.5 28.95 23.25 28.55 22.95 28.2 22.95 Q27.9 23.3 28.1 23.7 L28.1 23.75 28.45 23.95 28.65 23.95"/><path fill="#d0c586" stroke="none" d="M28.1 23.7 Q27.9 23.3 28.2 22.95 L28.55 22.95 28.95 23.25 29.05 23.5 28.65 23.95 28.95 23.85 29.05 23.75 29.05 23.85 28.75 24.3 28.25 24.4 27.85 24.05 27.75 23.5 27.95 23.1 28.05 23.6 28.1 23.7 M28.55 22.8 L28.0 22.9 27.95 22.9 Q27.7 23.1 27.6 23.45 L27.7 24.15 Q27.9 24.45 28.25 24.55 L28.85 24.4 29.2 23.85 29.2 23.55 29.1 23.2 28.55 22.8"/><path fill="#696141" stroke="none" d="M28.65 23.95 L28.45 23.95 28.1 23.75 28.1 23.7 28.05 23.6 27.95 23.1 27.75 23.5 27.85 24.05 28.25 24.4 28.75 24.3 29.05 23.85 29.05 23.75 28.95 23.85 28.65 23.95"/><path fill="none" stroke="#000000" stroke-width="0.5" stroke-opacity="0.301960784314" d="M28.55 22.8 L29.1 23.2 29.2 23.55 29.2 23.85 28.85 24.4 28.25 24.55 Q27.9 24.45 27.7 24.15 L27.6 23.45 Q27.7 23.1 27.95 22.9 L28.0 22.9 28.55 22.8"/><path fill="#5f5a3a" stroke="none" d="M30.35 22.45 L29.95 22.3 29.45 22.45 Q29.15 22.55 29.1 22.75 28.95 22.95 29.1 23.1 L29.5 23.25 29.65 23.2 30.05 23.1 30.4 22.75 30.45 22.55 30.35 22.45"/><path fill="#696141" stroke="none" d="M29.4 22.15 L29.35 22.05 Q29.2 21.8 29.3 21.55 29.1 21.7 29.05 21.95 L29.1 22.55 29.5 22.85 30.05 22.75 30.4 22.25 30.4 22.2 30.3 22.25 29.95 22.4 29.75 22.4 29.4 22.15"/><path fill="#d0c586" stroke="none" d="M29.95 22.4 L30.3 22.25 30.4 22.2 30.4 22.25 30.05 22.75 29.5 22.85 29.1 22.55 29.05 21.95 Q29.1 21.7 29.3 21.55 29.2 21.8 29.35 22.05 L29.4 22.15 Q29.2 21.75 29.55 21.35 L29.9 21.35 30.3 21.65 30.4 21.9 29.95 22.4 M29.35 21.3 L29.3 21.35 Q29.0 21.55 28.9 21.9 28.8 22.3 29.0 22.65 L29.5 23.0 30.1 22.9 30.55 22.3 30.55 21.95 30.45 21.55 29.95 21.15 29.35 21.3"/><path fill="#a89e64" stroke="none" d="M29.4 22.15 L29.75 22.4 29.95 22.4 30.4 21.9 30.3 21.65 29.9 21.35 29.55 21.35 Q29.2 21.75 29.4 22.15"/><path fill="none" stroke="#000000" stroke-width="0.5" stroke-opacity="0.301960784314" d="M29.35 21.3 L29.95 21.15 30.45 21.55 30.55 21.95 30.55 22.3 30.1 22.9 29.5 23.0 29.0 22.65 Q28.8 22.3 28.9 21.9 29.0 21.55 29.3 21.35 L29.35 21.3"/></g><g id="c10"><g><use transform="matrix(1.0,0.0,0.0,1.0,0.0,0.0)" xlink:href="#c5"/></g></g><radialGradient gradientUnits="userSpaceOnUse" r="819.2" cx="0" cy="0" spreadMethod="pad" gradientTransform="matrix(0.0212554931641,0.0,0.0,0.0212554931641,0.0,0.0)" id="gradient3"><stop offset="0.196078431373" stop-color="#fee3bc"/><stop offset="0.501960784314" stop-color="#fee3bc" stop-opacity="0.160784313725"/><stop offset="0.760784313725" stop-color="#ffe3bd" stop-opacity="0.0"/></radialGradient><g id="c11"><path stroke="none" fill="url(#gradient3)" d="M9.3 -9.85 Q13.35 -5.8 13.35 0.0 13.35 5.8 9.3 9.3 5.8 13.35 0.0 13.35 -5.8 13.35 -9.85 9.3 -13.35 5.8 -13.35 0.0 -13.35 -5.8 -9.85 -9.85 -5.8 -13.35 0.0 -13.35 5.8 -13.35 9.3 -9.85"/></g><g id="c12"><g><use transform="matrix(1.0,0.0,0.0,1.0,0.0,0.0)" xlink:href="#c11"/></g></g><g id="c13"><g><use transform="matrix(0.00422668457031,-1.35153198242,1.39352416992,0.0199737548828,40.75,38.25)" xlink:href="#c12"/></g><g><use transform="matrix(0.00953674316406,-3.04858398438,0.371963500977,0.00532531738281,41.6,40.75)" filter="url(#filter7)" xlink:href="#c12"/></g><g><use transform="matrix(3.04858398438,0.00953674316406,-0.00532531738281,0.371963500977,40.75,40.2)" filter="url(#filter8)" xlink:href="#c12"/></g></g><filter id="filter7"><feColorMatrix in="SourceGraphic" type="matrix" values="1.0 0.0 0.0 0.0 0.0 0.0 1.0 0.0 0.0 0.0 0.0 0.0 1.0 0.0 0.0 0.0 0.0 0.0 0.71875 0.0" result="cxform"/><feComposite operator="in" in2="SourceGraphic" result="color-xform"/></filter><filter id="filter8"><feColorMatrix in="SourceGraphic" type="matrix" values="1.0 0.0 0.0 0.0 0.0 0.0 1.0 0.0 0.0 0.0 0.0 0.0 1.0 0.0 0.0 0.0 0.0 0.0 0.71875 0.0" result="cxform"/><feComposite operator="in" in2="SourceGraphic" result="color-xform"/></filter><g id="c14"><path fill="#000000" fill-opacity="0.2" d="M67.1 47.3 Q60.05 84.7 45.15 118.0 L67.1 47.3"/><path fill="none" stroke="#000000" stroke-width="0.5" stroke-opacity="0.301960784314" d="M72.8 0.4 Q71.4 24.6 67.1 47.3 60.05 84.7 45.15 118.0 L45.0 118.3 Q39.4 130.85 24.25 156.55 M47.2 54.0 Q48.65 56.75 43.75 69.05 26.65 113.65 20.4 117.6 17.55 109.85 28.1 81.45 38.25 56.05 47.2 54.0 M48.0 24.8 Q34.25 59.6 13.6 90.6 7.15 100.3 0.0 109.6 M66.8 0.0 Q53.65 80.05 13.6 143.35 L12.4 145.2 M67.1 47.3 L45.15 118.0"/></g><g id="c15"><g><use transform="matrix(1.0,0.0,0.0,1.0,0.0,0.0)" xlink:href="#c14"/></g></g><g id="c16"><g><use transform="matrix(1.0,0.0,0.0,1.0,0.0,0.0)" xlink:href="#c2"/></g><g><use transform="matrix(0.238861083984,-0.0867004394531,0.10026550293,0.233917236328,34.25,31.15)" xlink:href="#c4"/></g><g><use transform="matrix(0.238861083984,-0.0867004394531,0.10026550293,0.233917236328,4.25,10.3)" xlink:href="#c4"/></g><g><use transform="matrix(0.141098022461,-0.0378112792969,0.111373901367,0.225646972656,20.25,20.65)" filter="url(#filter13)" xlink:href="#c6"/></g><g><use transform="matrix(-0.155029296875,0.0513153076172,0.0841827392578,0.147033691406,22.6,2.3)" filter="url(#filter14)" xlink:href="#c8"/></g><g><use transform="matrix(1.0,0.0,0.0,1.0,0.0,0.0)" xlink:href="#c9"/></g><g><use transform="matrix(-0.0469818115234,0.0,0.0,0.0537719726562,22.95,25.25)" filter="url(#filter16)" xlink:href="#c10"/></g><g><use transform="matrix(-0.0201416015625,0.0,0.0,0.0315093994141,28.8,24.65)" filter="url(#filter17)" xlink:href="#c10"/></g><g><use transform="matrix(-0.0374603271484,0.0,0.0,0.0392761230469,20.4,14.9)" filter="url(#filter18)" xlink:href="#c13"/></g><g><use transform="matrix(-0.0374603271484,0.0,0.0,0.0392761230469,24.75,13.5)" filter="url(#filter19)" xlink:href="#c13"/></g><g><use transform="matrix(-0.0469818115234,0.0,0.0,0.0312957763672,20.9,15.55)" filter="url(#filter20)" xlink:href="#c10"/></g><g><use transform="matrix(-0.0469818115234,0.0,0.0,0.0836334228516,18.1,19.1)" filter="url(#filter21)" xlink:href="#c10"/></g><g><use transform="matrix(-0.0093994140625,-0.168380737305,0.10466003418,-0.00788879394531,13.05,29.85)" filter="url(#filter22)" xlink:href="#c15"/></g><g><use transform="matrix(-0.0173492431641,-0.112380981445,0.0661926269531,-0.0204467773438,16.4,23.15)" filter="url(#filter23)" xlink:href="#c15"/></g><g><use transform="matrix(-0.0599670410156,0.0260925292969,0.0388641357422,0.0867156982422,21.4,21.15)" filter="url(#filter24)" xlink:href="#c10"/></g><g><use transform="matrix(0.162948608398,-0.0436706542969,0.128631591797,0.260604858398,20.35,20.95)" filter="url(#filter25)" xlink:href="#c6"/></g></g><filter id="filter13"><feColorMatrix in="SourceGraphic" type="matrix" values="0.0 0.0 0.0 0.0 0.796875 0.0 0.0 0.0 0.0 0.59765625 0.0 0.0 0.0 0.0 0.19921875 0.0 0.0 0.0 1.0 0.0" result="cxform"/><feComposite operator="in" in2="SourceGraphic" result="color-xform"/></filter><filter id="filter14"><feColorMatrix in="SourceGraphic" type="matrix" values="0.0 0.0 0.0 0.0 0.99609375 0.0 0.0 0.0 0.0 0.99609375 0.0 0.0 0.0 0.0 0.99609375 0.0 0.0 0.0 1.0 0.0" result="cxform"/><feComposite operator="in" in2="SourceGraphic" result="color-xform"/></filter><filter id="filter16"><feColorMatrix in="SourceGraphic" type="matrix" values="1.0 0.0 0.0 0.0 0.0 0.0 1.0 0.0 0.0 0.0 0.0 0.0 1.0 0.0 0.0 0.0 0.0 0.0 0.21875 0.0" result="cxform"/><feComposite operator="in" in2="SourceGraphic" result="color-xform"/></filter><filter id="filter17"><feColorMatrix in="SourceGraphic" type="matrix" values="1.0 0.0 0.0 0.0 0.0 0.0 1.0 0.0 0.0 0.0 0.0 0.0 1.0 0.0 0.0 0.0 0.0 0.0 0.21875 0.0" result="cxform"/><feComposite operator="in" in2="SourceGraphic" result="color-xform"/></filter><filter id="filter18"><feColorMatrix in="SourceGraphic" type="matrix" values="1.0 0.0 0.0 0.0 0.0 0.0 1.0 0.0 0.0 0.0 0.0 0.0 1.0 0.0 0.0 0.0 0.0 0.0 0.78125 0.0" result="cxform"/><feComposite operator="in" in2="SourceGraphic" result="color-xform"/></filter><filter id="filter19"><feColorMatrix in="SourceGraphic" type="matrix" values="1.0 0.0 0.0 0.0 0.0 0.0 1.0 0.0 0.0 0.0 0.0 0.0 1.0 0.0 0.0 0.0 0.0 0.0 0.78125 0.0" result="cxform"/><feComposite operator="in" in2="SourceGraphic" result="color-xform"/></filter><filter id="filter20"><feColorMatrix in="SourceGraphic" type="matrix" values="1.0 0.0 0.0 0.0 0.0 0.0 1.0 0.0 0.0 0.0 0.0 0.0 1.0 0.0 0.0 0.0 0.0 0.0 0.1015625 0.0" result="cxform"/><feComposite operator="in" in2="SourceGraphic" result="color-xform"/></filter><filter id="filter21"><feColorMatrix in="SourceGraphic" type="matrix" values="1.0 0.0 0.0 0.0 0.0 0.0 1.0 0.0 0.0 0.0 0.0 0.0 1.0 0.0 0.0 0.0 0.0 0.0 0.21875 0.0" result="cxform"/><feComposite operator="in" in2="SourceGraphic" result="color-xform"/></filter><filter id="filter22"><feColorMatrix in="SourceGraphic" type="matrix" values="1.0 0.0 0.0 0.0 0.0 0.0 1.0 0.0 0.0 0.0 0.0 0.0 1.0 0.0 0.0 0.0 0.0 0.0 0.2890625 0.0" result="cxform"/><feComposite operator="in" in2="SourceGraphic" result="color-xform"/></filter><filter id="filter23"><feColorMatrix in="SourceGraphic" type="matrix" values="1.0 0.0 0.0 0.0 0.0 0.0 1.0 0.0 0.0 0.0 0.0 0.0 1.0 0.0 0.0 0.0 0.0 0.0 0.2890625 0.0" result="cxform"/><feComposite operator="in" in2="SourceGraphic" result="color-xform"/></filter><filter id="filter24"><feColorMatrix in="SourceGraphic" type="matrix" values="0.0 0.0 0.0 0.0 0.3984375 0.0 0.0 0.0 0.0 0.59765625 0.0 0.0 0.0 0.0 0.3984375 0.0 0.0 0.0 0.12890625 0.0" result="cxform"/><feComposite operator="in" in2="SourceGraphic" result="color-xform"/></filter><filter id="filter25"><feColorMatrix in="SourceGraphic" type="matrix" values="1.0 0.0 0.0 0.0 0.0 0.0 1.0 0.0 0.0 0.0 0.0 0.0 1.0 0.0 0.0 0.0 0.0 0.0 0.23046875 0.0" result="cxform"/><feComposite operator="in" in2="SourceGraphic" result="color-xform"/></filter></defs><g><g><use transform="matrix(1.0,0.0,0.0,1.0,0.0,0.0)" xlink:href="#c1"/></g><g><use transform="matrix(1.15496826172,0.0,0.0,1.15496826172,5.85,3.95)" xlink:href="#c16"/></g></g></svg>