<?xml version='1.0' encoding='UTF-8'?>
<svg xmlns:xlink="http://www.w3.org/1999/xlink" xmlns="http://www.w3.org/2000/svg" version="1.1" width="60px" height="60px" viewBox="0.0 0.0 60.0 60.0"><defs><g id="c1"><path fill="#000000" fill-opacity="0.00392156862745" d="M0.0 0.0 L60.0 0.0 60.0 60.0 0.0 60.0 0.0 0.0"/></g><g id="c2"><path fill="none" stroke="#000000" stroke-width="1.0" stroke-opacity="0.301960784314" d="M22.3 0.35 Q26.6 -1.0 28.5 3.05 L41.4 31.7 Q43.1 35.4 39.9 36.85 L38.15 37.65 19.65 43.65 Q17.05 44.5 15.35 43.3 14.2 42.55 13.5 40.9 L0.55 12.25 Q-0.6 9.75 0.6 8.25 1.15 7.55 2.2 7.05 2.85 6.6 3.8 6.3 L22.3 0.35"/><path fill="#5b3c00" stroke="none" d="M0.75 8.25 L29.8 9.75 25.55 0.9 Q26.9 1.6 27.8 3.55 L40.7 32.15 Q42.6 36.3 38.3 37.65 L23.3 42.5 13.15 21.4 4.6 20.9 0.7 12.25 Q-0.45 9.75 0.75 8.25 M20.1 43.55 L19.8 43.65 Q17.15 44.45 15.5 43.3 L20.1 43.55"/><path fill="#724b00" stroke="none" d="M25.55 0.9 L29.8 9.75 0.75 8.25 Q1.45 7.3 3.1 6.75 L21.65 0.8 25.55 0.9 M4.6 20.9 L13.15 21.4 23.3 42.5 20.1 43.55 15.5 43.3 Q14.35 42.55 13.65 40.9 L4.6 20.9"/><path fill="none" stroke="#000000" stroke-width="0.5" stroke-opacity="0.301960784314" d="M0.75 8.25 Q-0.45 9.75 0.7 12.25 L4.6 20.9 M23.3 42.5 L38.3 37.65 Q42.6 36.3 40.7 32.15 L27.8 3.55 Q26.9 1.6 25.55 0.9 L21.65 0.8 3.1 6.75 Q1.45 7.3 0.75 8.25 M20.1 43.55 L19.8 43.65 Q17.15 44.45 15.5 43.3 14.35 42.55 13.65 40.9 L4.6 20.9 M20.1 43.55 L23.3 42.5"/><path fill="#ffcc00" stroke="none" d="M14.2 40.5 L1.35 11.8 Q-0.5 7.75 3.8 6.35 L22.3 0.4 Q26.55 -1.0 28.45 3.1 L41.35 31.7 Q43.25 35.85 38.9 37.25 L20.4 43.2 Q16.1 44.55 14.2 40.5"/><path fill="none" stroke="#000000" stroke-width="0.5" stroke-opacity="0.301960784314" d="M14.2 40.5 L1.35 11.8 Q-0.5 7.75 3.8 6.35 L22.3 0.4 Q26.55 -1.0 28.45 3.1 L41.35 31.7 Q43.25 35.85 38.9 37.25 L20.4 43.2 Q16.1 44.55 14.2 40.5"/><path fill="#fcf2cf" stroke="none" d="M9.15 13.6 Q9.8 12.8 9.55 11.6 L9.1 10.55 22.05 6.35 Q24.9 5.45 26.25 7.85 L26.5 8.3 35.8 29.0 35.95 29.35 Q34.75 29.3 34.1 30.1 33.45 30.9 33.7 32.1 L34.0 32.9 20.65 37.2 Q18.8 37.8 17.65 37.0 16.8 36.4 16.3 35.2 L6.95 14.6 6.8 14.4 7.1 14.4 Q8.4 14.45 9.15 13.6"/><path fill="#996600" stroke="none" d="M28.25 6.1 L35.55 22.3 39.35 30.75 Q41.1 34.5 37.2 35.7 L20.45 41.1 Q16.8 42.25 15.2 39.0 L15.0 38.6 8.25 23.65 3.35 12.8 Q1.65 9.1 5.5 7.85 L22.25 2.5 Q26.05 1.25 27.75 4.95 L28.25 6.1 M9.15 13.6 Q8.4 14.45 7.1 14.4 L6.8 14.4 6.95 14.6 16.3 35.2 Q16.8 36.4 17.65 37.0 18.8 37.8 20.65 37.2 L34.0 32.9 33.7 32.1 Q33.45 30.9 34.1 30.1 34.75 29.3 35.95 29.35 L35.8 29.0 26.5 8.3 26.25 7.85 Q24.9 5.45 22.05 6.35 L9.1 10.55 9.55 11.6 Q9.8 12.8 9.15 13.6"/><path fill="none" stroke="#f0b92b" stroke-width="0.5" d="M9.15 13.6 Q9.8 12.8 9.55 11.6 L9.1 10.55 22.05 6.35 Q24.9 5.45 26.25 7.85 L26.5 8.3 35.8 29.0 35.95 29.35 Q34.75 29.3 34.1 30.1 33.45 30.9 33.7 32.1 L34.0 32.9 20.65 37.2 Q18.8 37.8 17.65 37.0 16.8 36.4 16.3 35.2 L6.95 14.6 6.8 14.4 7.1 14.4 Q8.4 14.45 9.15 13.6"/><path fill="none" stroke="#fcf2cf" stroke-width="1.0" d="M35.55 22.3 L39.35 30.75 Q41.1 34.5 37.2 35.7 L20.45 41.1 Q16.8 42.25 15.2 39.0 L15.0 38.6 M8.25 23.65 L3.35 12.8 Q1.65 9.1 5.5 7.85 L22.25 2.5 Q26.05 1.25 27.75 4.95 L28.25 6.1"/><path fill="none" stroke="#ffaa00" stroke-width="1.0" d="M28.25 6.1 L35.55 22.3 M15.0 38.6 L8.25 23.65"/></g><g id="c3"><path fill="#7fdbfe" stroke="none" d="M10.75 4.9 Q10.75 4.6 10.9 4.35 11.25 3.45 11.95 2.75 13.3 1.5 14.35 2.1 15.4 2.7 14.95 4.45 14.7 5.4 14.1 6.15 L13.75 6.5 Q13.1 7.15 12.35 7.35 L11.4 7.2 Q10.95 6.9 10.75 6.4 10.5 5.75 10.75 4.9 M7.5 5.9 Q7.0 5.85 6.6 5.5 6.05 5.0 5.8 4.15 L5.7 3.6 Q5.55 2.65 5.8 1.7 6.25 0.0 7.5 0.0 L7.6 0.0 Q8.85 0.0 9.3 1.7 9.55 2.65 9.4 3.6 L9.3 4.15 8.5 5.5 7.6 5.9 7.5 5.9 M4.35 4.9 Q4.6 5.75 4.35 6.4 L3.7 7.2 2.75 7.35 Q2.0 7.15 1.35 6.5 L1.0 6.15 Q0.4 5.4 0.15 4.45 -0.3 2.7 0.75 2.1 1.8 1.5 3.15 2.75 3.85 3.45 4.2 4.35 L4.35 4.9 M5.5 13.7 Q4.45 13.9 3.65 12.95 2.75 12.0 3.2 10.25 3.7 8.5 5.25 7.6 6.4 6.9 7.55 7.0 8.75 6.9 9.9 7.6 11.45 8.5 11.95 10.25 12.35 12.0 11.5 12.95 10.7 13.9 9.65 13.7 8.55 13.5 7.55 12.6 6.55 13.5 5.5 13.7"/></g><g id="c4"><g><use transform="matrix(1.0,0.0,0.0,1.0,0.0,0.0)" xlink:href="#c3"/></g></g><radialGradient gradientUnits="userSpaceOnUse" r="819.2" cx="0" cy="0" spreadMethod="pad" gradientTransform="matrix(0.0914459228516,0.0,0.0,0.0914459228516,0.6,3.4)" id="gradient1"><stop offset="0.0" stop-color="#ffffff"/><stop offset="1.0" stop-color="#ffffff" stop-opacity="0.0"/></radialGradient><g id="c5"><path stroke="none" fill="url(#gradient1)" d="M36.65 -54.65 Q60.05 -42.0 69.75 -17.95 80.55 8.9 68.0 34.1 55.45 59.35 26.8 68.2 -1.8 77.05 -29.7 64.3 -57.6 51.6 -68.45 24.75 -79.3 -2.05 -66.75 -27.25 L-66.7 -27.3 Q-54.1 -52.5 -25.5 -61.4 3.1 -70.2 31.0 -57.5 L36.65 -54.65"/></g><g id="c6"><g><use transform="matrix(1.0,0.0,0.0,1.0,0.0,0.0)" xlink:href="#c5"/></g></g><radialGradient gradientUnits="userSpaceOnUse" r="819.2" cx="0" cy="0" spreadMethod="pad" gradientTransform="matrix(0.209197998047,0.0,0.0,0.177108764648,67.15,107.2)" id="gradient2"><stop offset="0.356862745098" stop-color="#ffffff"/><stop offset="0.670588235294" stop-opacity="0.0"/></radialGradient><g id="c7"><path fill="none" stroke-linejoin="round" stroke-linecap="round" stroke="url(#gradient2)" stroke-width="0.5" d="M136.55 165.8 L68.6 106.0 68.4 106.0 118.25 201.5 M68.2 105.7 L68.25 105.8 68.25 105.75 68.2 105.7 0.0 45.7 M68.25 105.8 L68.3 105.85 68.3 105.8 68.25 105.75 49.95 0.05 M0.05 97.7 L68.15 105.95 68.25 105.85 68.25 105.8 M68.3 105.85 L68.25 105.85 68.3 106.0 68.3 105.85 68.3 105.8 68.35 105.8 68.3 105.8 86.6 18.35 M50.0 193.2 L68.3 106.0 68.15 105.95 18.25 151.55 M68.4 106.0 L68.3 106.0 86.55 211.5 M68.4 106.0 L68.3 105.85 M68.6 106.0 L68.35 105.8 118.25 60.15 M136.6 114.25 L68.6 106.0 M68.2 105.7 L18.25 10.05"/></g><g id="c8"><g><use transform="matrix(1.0,0.0,0.0,1.0,0.0,0.0)" xlink:href="#c7"/></g></g><g id="c9"><g><use transform="matrix(1.0,0.0,0.0,1.0,0.0,0.0)" xlink:href="#c2"/></g><g><use transform="matrix(0.238861083984,-0.0867004394531,0.10026550293,0.233917236328,34.25,31.15)" xlink:href="#c4"/></g><g><use transform="matrix(0.238861083984,-0.0867004394531,0.10026550293,0.233917236328,4.25,10.3)" xlink:href="#c4"/></g><g><use transform="matrix(0.141098022461,-0.0378112792969,0.111373901367,0.225646972656,20.25,20.65)" filter="url(#filter7)" xlink:href="#c6"/></g><g><use transform="matrix(-0.155029296875,0.0513153076172,0.0841827392578,0.147033691406,22.6,3.15)" filter="url(#filter8)" xlink:href="#c8"/></g></g><filter id="filter7"><feColorMatrix in="SourceGraphic" type="matrix" values="0.0 0.0 0.0 0.0 0.796875 0.0 0.0 0.0 0.0 0.59765625 0.0 0.0 0.0 0.0 0.19921875 0.0 0.0 0.0 1.0 0.0" result="cxform"/><feComposite operator="in" in2="SourceGraphic" result="color-xform"/></filter><filter id="filter8"><feColorMatrix in="SourceGraphic" type="matrix" values="0.0 0.0 0.0 0.0 0.99609375 0.0 0.0 0.0 0.0 0.99609375 0.0 0.0 0.0 0.0 0.99609375 0.0 0.0 0.0 1.0 0.0" result="cxform"/><feComposite operator="in" in2="SourceGraphic" result="color-xform"/></filter><radialGradient gradientUnits="userSpaceOnUse" r="819.2" cx="0" cy="0" spreadMethod="pad" gradientTransform="matrix(0.0255126953125,0.0,0.0,0.0268249511719,27.35,75.35)" id="gradient3"><stop offset="0.356862745098" stop-color="#ffffff"/><stop offset="0.670588235294" stop-opacity="0.0"/></radialGradient><g id="c10"><path fill="none" stroke-linejoin="round" stroke-linecap="round" stroke="url(#gradient3)" stroke-width="0.5" d="M7.05 61.6 Q7.5 60.95 8.45 60.5 9.1 60.05 10.1 59.7 L28.6 53.75 Q32.85 52.35 34.75 56.45 L47.65 85.05 Q49.25 88.5 46.5 90.05 45.8 90.65 44.6 91.0 L26.1 97.0 Q23.45 97.8 21.8 96.65 20.65 95.9 19.95 94.25 L7.0 65.6 Q5.85 63.1 7.05 61.6"/></g><linearGradient gradientUnits="userSpaceOnUse" x1="-819.2" x2="819.2" spreadMethod="pad" gradientTransform="matrix(0.0255126953125,0.0,0.0,0.0268249511719,20.9,21.95)" id="gradient4"><stop offset="0.0" stop-color="#f90013"/><stop offset="0.160784313725" stop-color="#ff99ff"/><stop offset="0.462745098039" stop-color="#66ffff"/><stop offset="0.721568627451" stop-color="#ff9900"/><stop offset="1.0" stop-color="#33ff00"/></linearGradient><g id="c11"><path stroke="none" fill="url(#gradient4)" d="M0.6 8.2 Q1.05 7.55 2.0 7.1 2.65 6.65 3.65 6.3 L22.15 0.35 Q26.4 -1.05 28.3 3.05 L41.2 31.65 Q42.8 35.1 40.05 36.65 39.35 37.25 38.15 37.6 L19.65 43.6 Q17.0 44.4 15.35 43.25 14.2 42.5 13.5 40.85 L0.55 12.2 Q-0.6 9.7 0.6 8.2"/></g><g id="c12"><g><use transform="matrix(1.0,0.0,0.0,1.0,0.0,0.0)" xlink:href="#c11"/></g></g><linearGradient gradientUnits="userSpaceOnUse" x1="-819.2" x2="819.2" spreadMethod="pad" gradientTransform="matrix(0.000946044921875,0.00244140625,-0.00486755371094,0.00190734863281,28.6,78.25)" id="gradient5"><stop offset="0.0" stop-opacity="0.0"/><stop offset="1.0" stop-opacity="0.360784313725"/></linearGradient><g id="c13"><path fill="#a47302" stroke="none" d="M32.75 69.25 L31.35 69.35 31.0 69.4 Q29.6 69.6 28.25 70.05 L27.2 70.35 26.05 70.8 25.4 71.1 Q24.3 71.55 23.3 72.2 L22.0 73.15 21.45 73.55 20.55 74.35 20.3 74.6 Q19.45 75.45 19.7 75.75 L19.8 75.9 18.6 76.2 Q18.55 75.95 18.65 75.75 L19.1 74.85 19.3 74.55 20.35 73.45 21.85 72.4 Q22.35 72.0 23.0 71.7 L25.25 70.5 26.0 70.25 27.1 69.75 27.55 69.6 28.1 69.5 Q28.8 69.25 29.45 69.1 L31.2 68.75 32.05 68.65 32.3 68.65 Q33.9 68.6 34.6 69.15 L35.05 69.7 35.15 70.05 33.8 70.4 33.65 69.55 Q33.55 69.25 32.75 69.25"/><path fill="#262216" stroke="none" d="M32.75 69.25 L32.25 69.7 31.0 70.95 32.25 69.7 33.75 70.8 Q33.45 71.45 32.55 72.05 31.6 72.65 31.95 72.65 L30.9 72.9 31.0 70.95 27.6 71.1 28.25 70.05 27.6 71.1 25.75 73.85 23.65 73.75 25.75 73.85 27.75 74.0 27.4 74.05 Q25.2 75.0 23.55 76.1 L23.35 76.25 21.7 76.45 20.4 76.35 19.8 75.9 19.7 75.75 Q19.45 75.45 20.3 74.6 L22.8 75.75 23.65 73.75 23.3 72.2 Q24.3 71.55 25.4 71.1 L26.05 70.8 27.2 70.35 28.25 70.05 Q29.6 69.6 31.0 69.4 L31.35 69.35 32.75 69.25 M23.55 76.1 L22.8 75.75 23.55 76.1"/><path fill="#302a1b" stroke="none" d="M32.25 69.7 L32.75 69.25 Q33.55 69.25 33.65 69.55 L33.8 70.4 33.75 70.8 32.25 69.7 M27.6 71.1 L31.0 70.95 30.9 72.9 Q29.3 73.3 27.75 74.0 L25.75 73.85 27.6 71.1 M23.3 72.2 L23.65 73.75 22.8 75.75 20.3 74.6 20.55 74.35 21.45 73.55 22.0 73.15 23.3 72.2"/><path fill="#595235" stroke="none" d="M35.05 69.7 L35.2 70.05 35.15 70.05 35.05 69.7"/><path fill="none" stroke="#000000" stroke-width="0.5" stroke-opacity="0.301960784314" d="M18.6 76.2 Q18.55 75.95 18.65 75.75 L19.1 74.85 19.3 74.55 20.35 73.45 21.85 72.4 Q22.35 72.0 23.0 71.7 L25.25 70.5 26.0 70.25 27.1 69.75 27.55 69.6 28.1 69.5 Q28.8 69.25 29.45 69.1 L31.2 68.75 32.05 68.65 32.3 68.65 Q33.9 68.6 34.6 69.15 L35.05 69.7 35.2 70.05 M30.9 72.9 Q29.3 73.3 27.75 74.0 L27.4 74.05 Q25.2 75.0 23.55 76.1 L23.35 76.25 M31.95 72.65 L30.9 72.9"/><path fill="none" stroke="#000000" stroke-width="0.5" stroke-opacity="0.301960784314" d="M32.25 69.7 L32.75 69.25 M28.25 70.05 L27.6 71.1 31.0 70.95 32.25 69.7 33.75 70.8 M23.3 72.2 L23.65 73.75 25.75 73.85 27.6 71.1 M30.9 72.9 L31.0 70.95 M20.3 74.6 L22.8 75.75 23.65 73.75 M22.8 75.75 L23.55 76.1 M25.75 73.85 L27.75 74.0"/><path fill="#bd8812" stroke="none" d="M20.75 73.6 Q19.85 73.7 19.5 74.2 18.85 73.95 19.1 73.2 19.3 72.45 20.1 72.3 20.5 72.15 20.65 72.3 20.35 72.4 20.45 72.9 20.45 73.4 20.75 73.6"/><path fill="#cc951a" stroke="none" d="M20.65 72.3 Q21.2 72.35 22.15 73.05 L22.15 73.1 Q22.25 74.15 21.95 75.5 21.7 74.05 20.75 73.6 20.45 73.4 20.45 72.9 20.35 72.4 20.65 72.3"/><path fill="#ad7910" stroke="none" d="M22.15 73.1 Q23.1 74.3 23.25 75.5 L23.25 75.55 23.0 76.15 22.6 76.75 21.85 76.95 22.0 76.4 21.95 75.5 Q22.25 74.15 22.15 73.1"/><path fill="#996b0f" stroke="none" d="M23.25 75.55 L23.35 76.9 23.25 77.8 22.4 77.95 22.15 77.6 21.85 76.95 22.6 76.75 23.0 76.15 23.25 75.55"/><path fill="none" stroke="#000000" stroke-width="0.5" stroke-opacity="0.301960784314" d="M20.75 73.6 Q19.85 73.7 19.5 74.2 18.85 73.95 19.1 73.2 19.3 72.45 20.1 72.3 20.5 72.15 20.65 72.3 21.2 72.35 22.15 73.05 L22.15 73.1 Q23.1 74.3 23.25 75.5 L23.25 75.55 23.35 76.9 23.25 77.8 M21.85 76.95 L22.0 76.4 21.95 75.5 Q21.7 74.05 20.75 73.6 20.45 73.4 20.45 72.9 20.35 72.4 20.65 72.3 M22.15 73.1 Q22.25 74.15 21.95 75.5 M23.25 75.55 L23.0 76.15 22.6 76.75 21.85 76.95"/><path fill="#595235" stroke="none" d="M20.35 80.85 L19.75 79.3 18.9 77.0 19.2 77.25 21.7 77.55 21.75 77.55 Q24.5 77.3 27.9 75.9 30.65 74.7 32.5 73.35 L32.45 74.25 Q33.8 73.35 35.1 72.5 L35.9 72.0 36.5 73.45 36.5 73.55 36.55 73.75 36.6 73.95 36.15 73.5 35.65 75.7 34.85 76.45 32.55 78.15 32.15 76.85 29.3 77.6 26.55 77.15 27.9 75.9 26.55 77.15 29.3 77.6 28.8 79.95 25.95 80.95 25.0 81.2 23.25 81.4 22.95 81.45 Q21.1 81.5 20.35 80.85 M32.45 74.25 L32.15 76.85 32.45 74.25 M22.95 81.45 L23.4 80.0 26.55 77.15 23.4 80.0 22.95 81.45 M35.1 72.5 L36.15 73.5 35.1 72.5 M23.4 80.0 L19.75 79.3 23.4 80.0"/><path fill="#524b31" stroke="none" d="M36.6 74.1 L36.55 74.2 35.65 75.7 36.15 73.5 36.6 73.95 36.6 74.1 M35.05 70.1 L35.15 70.05 35.9 72.0 35.1 72.5 Q33.8 73.35 32.45 74.25 L32.5 73.35 33.4 72.6 33.6 72.45 Q35.1 71.1 35.05 70.1 M29.3 77.6 L32.15 76.85 32.55 78.15 Q31.15 79.0 29.4 79.7 L28.8 79.95 29.3 77.6"/><path fill="#a47302" stroke="none" d="M33.2 71.5 L33.65 70.85 33.8 70.1 35.05 70.1 Q35.1 71.1 33.6 72.45 L33.4 72.6 32.5 73.35 33.2 71.5"/><path fill="#d29402" stroke="none" d="M36.55 74.2 L35.95 76.6 Q31.0 80.95 25.05 81.95 L25.0 81.2 25.95 80.95 28.8 79.95 29.4 79.7 Q31.15 79.0 32.55 78.15 L34.85 76.45 35.65 75.7 36.55 74.2 M26.2 75.6 L27.5 75.1 Q29.95 74.05 31.9 72.7 31.6 72.65 32.5 72.1 L33.2 71.5 32.5 73.35 Q30.65 74.7 27.9 75.9 L26.2 75.6"/><path fill="#fdbd2c" stroke="none" d="M18.9 77.0 L18.65 76.5 18.55 76.2 19.45 75.55 20.4 76.4 20.9 76.55 21.7 76.5 23.3 76.3 26.2 75.6 27.9 75.9 Q24.5 77.3 21.75 77.55 L21.7 77.55 19.2 77.25 18.9 77.0"/><path fill="#f1bd43" stroke="none" d="M25.05 81.95 L22.65 82.25 Q21.0 82.2 20.45 81.8 19.95 81.45 20.35 80.85 21.1 81.5 22.95 81.45 L23.25 81.4 25.0 81.2 25.05 81.95"/><path fill="none" stroke="#000000" stroke-width="0.5" stroke-opacity="0.301960784314" d="M36.15 73.5 L36.6 73.95 M32.5 73.35 L32.45 74.25 Q33.8 73.35 35.1 72.5 L35.9 72.0 M33.2 71.5 L32.5 73.35 M27.9 75.9 L26.55 77.15 29.3 77.6 32.15 76.85 32.45 74.25 M28.8 79.95 L29.3 77.6 M26.55 77.15 L23.4 80.0 22.95 81.45 M32.55 78.15 L32.15 76.85 M35.65 75.7 L36.15 73.5 35.1 72.5 M26.2 75.6 L27.9 75.9 M19.75 79.3 L23.4 80.0"/><path fill="none" stroke="#000000" stroke-width="0.5" stroke-opacity="0.301960784314" d="M36.55 74.2 L35.95 76.6 Q31.0 80.95 25.05 81.95 L22.65 82.25 Q21.0 82.2 20.45 81.8 19.95 81.45 20.35 80.85 L19.75 79.3 18.9 77.0 18.65 76.5 18.55 76.2 M23.3 76.3 L26.2 75.6 27.5 75.1 Q29.95 74.05 31.9 72.7 M35.15 70.05 L35.9 72.0 36.5 73.45 36.5 73.55 36.55 73.75 36.6 73.95 36.6 74.1 M25.0 81.2 L25.95 80.95 28.8 79.95 29.4 79.7 Q31.15 79.0 32.55 78.15 L34.85 76.45 35.65 75.7 36.55 74.2 M25.0 81.2 L23.25 81.4 22.95 81.45 Q21.1 81.5 20.35 80.85"/><path fill="none" stroke="#000000" stroke-width="0.5" stroke-opacity="0.188235294118" d="M36.6 74.1 L36.55 74.2"/><path stroke="none" fill="url(#gradient5)" d="M36.55 73.65 L36.6 73.9 Q36.5 74.6 35.65 75.55 L34.85 76.35 32.55 78.05 Q31.15 78.9 29.35 79.6 L28.85 79.85 25.95 80.85 23.25 81.3 22.9 81.35 Q20.95 81.4 20.35 80.75 L18.85 76.9 19.25 77.15 21.7 77.45 21.8 77.45 Q24.45 77.2 27.9 75.8 L32.55 73.2 33.4 72.5 33.55 72.35 Q35.1 71.0 35.05 70.0 L35.15 69.95 36.45 73.35 36.5 73.45 36.55 73.65"/><path fill="#fbedd9" stroke="none" d="M23.3 77.2 L20.65 77.3 Q19.25 77.15 19.15 76.65 19.05 76.25 19.8 76.45 L20.95 76.8 22.35 76.6 Q23.4 76.55 23.45 76.85 23.55 77.15 23.3 77.2"/><path fill="#fbedd9" stroke="none" d="M21.75 81.8 L20.95 81.65 20.35 81.4 21.15 81.35 21.9 81.6 21.75 81.8"/><path fill="#996b0f" stroke="none" d="M36.9 74.25 L36.75 75.45 36.45 76.5 35.5 76.9 Q34.8 77.05 34.75 76.45 L35.15 75.95 36.1 75.5 36.5 74.9 36.9 74.25"/><path fill="#ad7910" stroke="none" d="M35.45 74.15 L35.9 71.5 Q36.85 73.0 36.9 74.25 L36.5 74.9 36.1 75.5 35.15 75.95 35.4 75.1 35.45 74.15"/><path fill="#cc951a" stroke="none" d="M34.3 70.55 Q34.85 70.7 35.85 71.45 L35.9 71.5 35.45 74.15 Q35.25 72.55 34.25 72.0 L33.95 71.2 Q34.0 70.7 34.3 70.55"/><path fill="#bd8812" stroke="none" d="M34.3 70.55 Q34.0 70.7 33.95 71.2 L34.25 72.0 32.85 71.9 32.25 72.05 Q32.85 70.7 33.7 70.55 L34.3 70.55"/><path fill="none" stroke="#000000" stroke-width="0.5" stroke-opacity="0.301960784314" d="M35.9 71.5 L35.85 71.45 Q34.85 70.7 34.3 70.55 34.0 70.7 33.95 71.2 L34.25 72.0 Q35.25 72.55 35.45 74.15 L35.9 71.5 Q36.85 73.0 36.9 74.25 L36.75 75.45 36.45 76.5 35.5 76.9 Q34.8 77.05 34.75 76.45 L35.15 75.95 35.4 75.1 35.45 74.15 M36.9 74.25 L36.5 74.9 36.1 75.5 35.15 75.95 M34.25 72.0 L32.85 71.9 32.25 72.05 Q32.85 70.7 33.7 70.55 L34.3 70.55"/><path fill="#bd8812" stroke="none" d="M23.0 75.9 Q23.05 75.65 23.5 75.45 24.2 75.0 25.45 75.7 L24.85 76.0 23.8 77.0 23.6 76.15 Q23.3 75.75 23.0 75.9"/><path fill="#cc951a" stroke="none" d="M23.0 75.9 Q23.3 75.75 23.6 76.15 L23.8 77.0 Q23.25 78.1 24.0 79.45 L22.25 77.6 Q22.6 76.3 23.0 75.9"/><path fill="#ad7910" stroke="none" d="M24.0 79.45 L24.6 80.2 25.25 80.75 24.25 80.95 23.6 80.75 22.95 80.5 22.9 80.45 Q22.3 79.4 22.25 77.6 L24.0 79.45"/><path fill="#996b0f" stroke="none" d="M25.25 80.75 L25.9 80.85 Q26.2 81.4 25.55 81.75 L24.6 82.05 Q24.25 81.95 23.7 81.35 L22.95 80.5 23.6 80.75 24.25 80.95 25.25 80.75"/><path fill="none" stroke="#000000" stroke-width="0.5" stroke-opacity="0.301960784314" d="M23.8 77.0 L24.85 76.0 25.45 75.7 Q24.2 75.0 23.5 75.45 23.05 75.65 23.0 75.9 23.3 75.75 23.6 76.15 L23.8 77.0 Q23.25 78.1 24.0 79.45 L24.6 80.2 25.25 80.75 25.9 80.85 Q26.2 81.4 25.55 81.75 L24.6 82.05 Q24.25 81.95 23.7 81.35 L22.95 80.5 22.9 80.45 Q22.3 79.4 22.25 77.6 22.6 76.3 23.0 75.9 M22.95 80.5 L23.6 80.75 24.25 80.95 25.25 80.75 M22.25 77.6 L24.0 79.45"/><path fill="#fdbd2c" stroke="none" d="M25.25 73.4 Q25.4 71.1 26.7 70.1 27.85 69.2 29.35 69.75 L29.8 71.25 27.35 71.35 Q26.35 72.1 26.2 73.85 L25.25 73.4"/><path fill="#4d462e" stroke="none" d="M26.2 73.85 Q26.35 72.1 27.35 71.35 L29.8 71.25 29.9 71.35 30.85 72.05 31.2 72.35 30.75 72.8 30.75 72.7 30.65 72.45 29.9 71.65 29.85 71.65 29.4 71.5 28.55 72.0 27.65 73.3 Q27.25 74.05 27.15 75.05 L27.1 75.15 27.15 75.05 Q27.25 74.05 27.65 73.3 L28.55 72.0 29.4 71.5 29.85 71.65 29.9 71.65 30.65 72.45 30.75 72.7 27.1 75.15 26.25 75.65 26.2 74.2 26.2 73.85 M26.5 76.75 L29.0 74.9 26.85 77.65 26.75 77.45 26.5 76.75 M32.85 75.35 L33.05 75.9 Q33.4 77.15 33.35 78.3 33.25 80.4 32.15 81.3 L31.35 81.65 30.35 81.55 30.35 81.4 30.45 81.25 31.45 80.0 32.15 78.45 32.4 77.95 32.15 78.45 31.45 80.0 30.45 81.25 30.35 81.4 30.35 81.55 30.0 81.45 29.65 81.2 29.45 81.2 32.85 75.35 M30.85 77.45 L29.1 80.75 29.2 81.0 28.2 80.05 30.85 77.45 M31.8 80.65 L31.55 81.3 31.4 81.45 31.35 81.65 31.4 81.45 31.55 81.3 31.8 80.65 M33.05 75.9 L31.15 79.25 33.05 75.9"/><path fill="#d88915" stroke="none" d="M29.35 69.75 L29.95 70.05 Q30.35 70.25 30.75 70.6 L30.85 72.05 29.9 71.35 29.8 71.25 29.35 69.75 M27.55 80.7 L26.35 78.75 Q25.05 76.2 25.2 73.7 L25.25 73.4 26.2 73.85 26.2 74.2 26.25 75.65 26.3 75.9 26.5 76.75 26.75 77.45 26.85 77.65 26.9 77.8 27.1 78.35 27.8 79.6 27.55 80.7"/><path fill="#6e6149" stroke="none" d="M30.75 72.7 L30.75 72.8 31.2 72.35 31.35 72.65 31.5 72.75 26.3 75.95 27.1 75.15 30.75 72.7"/><path fill="#595235" stroke="none" d="M31.8 73.15 L31.55 73.65 31.4 74.15 31.25 74.2 31.05 74.65 30.8 74.95 30.35 75.7 Q29.9 76.45 29.25 76.75 29.9 76.45 30.35 75.7 L30.8 74.95 31.05 74.65 31.25 74.2 31.4 74.15 31.55 73.65 31.8 73.15 32.4 74.2 32.5 74.45 32.85 75.35 31.75 76.25 31.5 76.4 31.05 77.05 31.5 76.4 31.75 76.25 31.95 75.8 32.45 74.75 32.5 74.45 32.45 74.75 31.95 75.8 31.75 76.25 32.85 75.35 29.45 81.2 29.2 81.0 29.1 80.75 30.85 77.45 31.05 77.05 28.05 79.85 27.8 79.6 27.1 78.35 26.9 77.8 26.85 77.65 29.0 74.9 26.5 76.75 26.3 75.9 26.25 75.65 27.1 75.15 26.3 75.95 31.5 72.75 31.8 73.15 M29.9 74.25 L29.0 74.9 29.9 74.25"/><path fill="#f1bd43" stroke="none" d="M30.75 70.6 Q32.1 71.6 33.05 73.6 34.3 76.15 34.1 78.65 34.0 81.2 32.65 82.25 L29.55 82.3 29.4 82.3 29.5 82.3 29.2 81.0 29.45 81.2 29.65 81.2 30.0 81.45 30.3 81.55 30.35 81.55 30.3 81.55 30.0 81.45 30.35 81.55 31.35 81.65 32.15 81.3 Q33.25 80.4 33.35 78.3 33.4 77.15 33.05 75.9 L32.85 75.35 32.5 74.45 32.4 74.2 31.8 73.15 31.5 72.75 31.35 72.65 31.2 72.35 30.85 72.05 30.75 70.6 M29.55 82.3 L29.5 82.3 29.55 82.3"/><path fill="#725336" stroke="none" d="M29.4 82.3 Q28.35 81.75 27.55 80.7 L27.8 79.6 28.05 79.85 28.2 80.05 29.2 81.0 29.5 82.3 29.4 82.3"/><path fill="#463e2f" stroke="none" d="M28.2 80.05 L28.05 79.85 31.05 77.05 30.85 77.45 28.2 80.05"/><path fill="none" stroke="#000000" stroke-width="0.5" stroke-opacity="0.188235294118" d="M25.25 73.4 Q25.4 71.1 26.7 70.1 27.85 69.2 29.35 69.75 L29.95 70.05 Q30.35 70.25 30.75 70.6 32.1 71.6 33.05 73.6 34.3 76.15 34.1 78.65 34.0 81.2 32.65 82.25 L29.55 82.3 29.4 82.3 Q28.35 81.75 27.55 80.7 L26.35 78.75 Q25.05 76.2 25.2 73.7 L25.25 73.4 M26.2 73.85 Q26.35 72.1 27.35 71.35 L29.8 71.25 M30.85 72.05 L29.9 71.35 29.8 71.25 M31.2 72.35 L30.85 72.05 M29.25 76.75 Q29.9 76.45 30.35 75.7 L30.8 74.95 31.05 74.65 31.25 74.2 31.4 74.15 31.55 73.65 31.8 73.15 31.5 72.75 31.35 72.65 31.2 72.35 M27.1 75.15 L26.25 75.65 26.3 75.9 26.5 76.75 M27.1 75.15 L30.75 72.7 M31.8 73.15 L32.4 74.2 32.5 74.45 32.85 75.35 33.05 75.9 Q33.4 77.15 33.35 78.3 33.25 80.4 32.15 81.3 L31.35 81.65 30.35 81.55 30.3 81.55 30.0 81.45 29.65 81.2 29.45 81.2 29.2 81.0 28.2 80.05 28.05 79.85 31.05 77.05 31.5 76.4 31.75 76.25 31.95 75.8 32.45 74.75 32.5 74.45 M26.2 73.85 L26.2 74.2 26.25 75.65 M28.05 79.85 L27.8 79.6 27.1 78.35 26.9 77.8 26.85 77.65 26.75 77.45 26.5 76.75 M30.35 81.55 L30.0 81.45 M31.35 81.65 L31.4 81.45 31.55 81.3 31.8 80.65 M32.85 75.35 L31.75 76.25"/><path fill="none" stroke="#000000" stroke-width="0.5" stroke-opacity="0.188235294118" d="M27.1 75.15 L27.15 75.05 Q27.25 74.05 27.65 73.3 L28.55 72.0 29.4 71.5 29.85 71.65 29.9 71.65 30.65 72.45 30.75 72.7 30.75 72.8 M26.5 76.75 L29.0 74.9 29.9 74.25 M29.5 82.3 L29.55 82.3 M31.05 77.05 L30.85 77.45 29.1 80.75 29.2 81.0 M30.35 81.55 L30.35 81.4 30.45 81.25 31.45 80.0 32.15 78.45 32.4 77.95 M31.15 79.25 L33.05 75.9 M26.85 77.65 L29.0 74.9"/><path fill="#fbedd9" stroke="none" d="M26.6 71.35 L26.3 71.8 25.9 72.75 25.7 72.7 25.65 72.6 Q25.5 72.3 26.05 71.3 26.55 70.35 26.8 70.85 L26.6 71.35"/><path fill="none" stroke="#ffcc00" stroke-width="0.5" d="M7.05 61.6 Q7.5 60.95 8.45 60.5 9.1 60.05 10.1 59.7 L28.6 53.75 Q32.85 52.35 34.75 56.45 L47.65 85.05 Q49.25 88.5 46.5 90.05 45.8 90.65 44.6 91.0 L26.1 97.0 Q23.45 97.8 21.8 96.65 20.65 95.9 19.95 94.25 L7.0 65.6 Q5.85 63.1 7.05 61.6"/></g><g id="c14"><path fill="#ffffff" stroke="none" d="M7.05 61.6 Q7.5 60.95 8.45 60.5 9.1 60.05 10.1 59.7 L28.6 53.75 Q32.85 52.35 34.75 56.45 L47.65 85.05 Q49.25 88.5 46.5 90.05 45.8 90.65 44.6 91.0 L26.1 97.0 Q23.45 97.8 21.8 96.65 20.65 95.9 19.95 94.25 L7.0 65.6 Q5.85 63.1 7.05 61.6"/><path fill="#ffffff" stroke-linejoin="round" stroke-linecap="round" stroke="url(#gradient3)" stroke-width="0.5" d="M7.05 61.6 Q7.5 60.95 8.45 60.5 9.1 60.05 10.1 59.7 L28.6 53.75 Q32.85 52.35 34.75 56.45 L47.65 85.05 Q49.25 88.5 46.5 90.05 45.8 90.65 44.6 91.0 L26.1 97.0 Q23.45 97.8 21.8 96.65 20.65 95.9 19.95 94.25 L7.0 65.6 Q5.85 63.1 7.05 61.6"/></g><linearGradient gradientUnits="userSpaceOnUse" x1="-819.2" x2="819.2" spreadMethod="pad" gradientTransform="matrix(-0.0125732421875,0.0358276367188,-0.0249176025391,-0.0237579345703,24.2,32.05)" id="gradient7"><stop offset="0.0" stop-opacity="0.337254901961"/><stop offset="1.0" stop-opacity="0.0"/></linearGradient><linearGradient gradientUnits="userSpaceOnUse" x1="-819.2" x2="819.2" spreadMethod="pad" gradientTransform="matrix(-0.00735473632812,0.0306396484375,-0.0266723632812,-0.0176086425781,34.25,44.6)" id="gradient8"><stop offset="0.0" stop-opacity="0.337254901961"/><stop offset="1.0" stop-opacity="0.0"/></linearGradient><linearGradient gradientUnits="userSpaceOnUse" x1="-819.2" x2="819.2" spreadMethod="pad" gradientTransform="matrix(-0.00982666015625,0.0313873291016,-0.0181274414062,-0.0154724121094,4.1,17.85)" id="gradient9"><stop offset="0.0" stop-opacity="0.337254901961"/><stop offset="1.0" stop-opacity="0.0"/></linearGradient><linearGradient gradientUnits="userSpaceOnUse" x1="-819.2" x2="819.2" spreadMethod="pad" gradientTransform="matrix(0.0,0.0410766601562,-0.0333709716797,-0.0151062011719,15.9,32.85)" id="gradient10"><stop offset="0.0" stop-opacity="0.337254901961"/><stop offset="1.0" stop-opacity="0.0"/></linearGradient><g id="c15"><path stroke="none" fill="url(#gradient7)" d="M21.35 46.7 L21.35 1.75 26.45 1.75 26.45 46.7 21.35 46.7"/><path stroke="none" fill="url(#gradient8)" d="M31.7 5.7 L36.8 5.55 36.8 46.7 31.7 46.7 31.7 5.7"/><path stroke="none" fill="url(#gradient9)" d="M0.0 6.65 L5.1 6.45 5.1 46.7 0.0 46.7 0.0 6.65"/><path stroke="none" fill="url(#gradient10)" d="M9.35 46.7 L9.65 1.75 15.75 1.75 15.0 46.7 9.35 46.7"/></g><g id="c16"><g><use transform="matrix(1.0,0.0,0.0,1.0,0.0,0.0)" xlink:href="#c15"/></g></g><g id="c17"><path fill="#fefd8d" fill-opacity="0.972549019608" d="M33.85 83.75 L33.85 83.8 33.85 83.95 33.85 84.0 33.85 84.1 33.9 84.1 33.9 84.15 34.35 84.4 34.85 84.75 34.35 84.45 34.1 84.3 34.05 84.25 33.95 84.2 33.9 84.2 33.9 84.7 33.9 85.25 33.85 84.75 33.75 84.2 33.7 84.1 33.5 84.25 33.0 84.55 32.7 84.7 32.95 84.5 33.4 84.3 33.45 84.25 33.5 84.2 33.7 84.1 33.65 84.05 33.7 84.05 33.7 84.0 33.3 83.6 32.95 83.25 33.3 83.55 33.55 83.8 33.7 83.95 33.8 83.4 33.9 82.95 33.85 83.35 33.85 83.75 M34.4 83.9 L34.35 83.9 34.25 84.0 34.15 84.0 33.9 84.05 34.15 83.95 34.7 83.75 35.2 83.65 34.85 83.75 34.95 83.85 34.85 83.75 34.7 83.8 34.4 83.9 M36.75 85.45 L36.9 85.55 36.9 85.5 37.1 83.9 37.35 82.3 37.45 81.75 37.4 82.25 37.4 83.85 37.2 85.6 37.35 86.0 37.4 86.1 38.7 86.9 40.15 87.75 40.55 88.05 40.1 87.8 38.75 87.05 37.75 86.45 37.4 86.25 37.35 86.2 37.4 86.3 37.5 87.75 37.55 89.45 37.6 90.0 37.5 89.5 37.25 87.9 37.05 86.25 37.0 86.3 36.9 85.9 36.7 85.75 36.9 85.85 36.9 85.65 35.7 84.55 34.95 83.85 35.65 84.4 36.45 85.15 36.5 85.2 36.75 85.45 M36.1 86.45 L36.2 86.4 36.85 86.1 36.3 86.45 34.8 87.25 33.35 88.0 32.8 88.25 33.3 88.0 34.65 87.2 35.7 86.65 36.1 86.45 M41.85 84.45 L41.35 84.6 39.85 85.15 38.15 85.7 37.5 85.9 Q37.45 85.85 38.1 85.65 L39.7 85.1 41.3 84.6 41.85 84.45"/><path fill="#fffd8f" fill-opacity="0.4" d="M33.85 83.75 L34.05 83.4 34.25 83.2 34.15 83.4 34.0 83.8 33.9 83.9 33.85 83.8 33.85 83.75 M34.1 84.3 L34.35 84.5 34.45 84.65 34.25 84.5 34.0 84.3 33.95 84.2 34.05 84.25 34.1 84.3 M33.4 84.3 L33.3 84.3 32.95 84.45 32.7 84.55 32.95 84.4 33.35 84.25 33.45 84.25 33.4 84.3 M33.55 83.8 L33.4 83.6 33.6 83.8 33.65 83.9 33.55 83.8 M34.4 83.9 L34.65 83.85 34.95 83.85 35.05 83.8 34.95 83.85 34.7 83.9 34.3 84.0 34.2 84.0 34.25 84.0 34.35 83.9 34.4 83.9 M33.6 84.3 L33.7 84.2 33.75 84.35 33.65 84.7 33.55 85.05 33.55 84.75 33.6 84.3 M37.65 85.15 L37.35 85.5 37.35 85.0 37.9 84.05 38.5 83.1 38.7 82.75 38.55 83.1 38.15 84.05 37.65 85.15 M36.75 85.45 L36.5 85.2 36.45 85.15 35.85 84.4 35.45 83.85 35.95 84.3 36.65 85.15 36.9 85.5 36.75 85.45 M37.4 86.3 L37.35 86.2 37.4 86.25 37.75 86.45 Q38.15 86.7 38.6 87.1 L39.3 87.75 38.5 87.15 37.6 86.5 37.4 86.3 M36.1 86.45 L35.7 86.65 34.7 87.0 33.8 87.3 34.7 86.95 35.75 86.5 36.1 86.45 M38.7 85.65 L38.25 85.7 38.7 85.55 39.75 85.35 40.7 85.2 41.05 85.15 40.75 85.25 39.8 85.45 38.7 85.65 M36.7 86.7 L36.95 86.25 37.0 86.75 36.65 87.8 36.3 88.85 36.15 89.25 36.25 88.85 36.4 87.85 Q36.5 87.1 36.7 86.7"/><path fill="#fffd8f" fill-opacity="0.392156862745" d="M38.0 86.75 Q37.9 86.0 37.45 85.8 L36.9 85.85 Q36.75 86.1 36.9 86.5 37.1 87.0 37.65 87.3 L38.35 87.95 38.6 88.25 38.45 87.85 38.0 86.75"/><path fill="#fffd8f" fill-opacity="0.392156862745" d="M38.0 86.25 L37.05 85.85 Q36.8 85.8 36.95 85.95 L37.55 86.35 38.35 86.6 Q38.8 86.65 39.05 86.85 L39.35 86.95 39.0 86.75 38.0 86.25"/><path fill="#fffd8f" fill-opacity="0.392156862745" d="M36.4 84.8 Q36.35 85.55 36.75 85.85 L37.3 85.9 37.45 85.25 Q37.35 84.75 36.9 84.35 36.35 83.9 36.3 83.55 L36.1 83.25 36.2 83.65 36.4 84.8"/><path fill="#fffd8f" fill-opacity="0.392156862745" d="M36.25 85.35 L37.1 85.95 37.2 85.8 36.75 85.3 35.95 84.9 Q35.55 84.75 35.3 84.6 L35.05 84.45 35.35 84.65 36.25 85.35"/><path fill="#fffd8f" fill-opacity="0.392156862745" d="M38.75 85.2 Q38.0 85.45 37.85 85.65 37.7 85.85 37.85 85.8 L38.5 85.65 39.25 85.2 39.9 84.75 40.15 84.6 39.75 84.75 38.75 85.2"/><path fill="#fffd8f" fill-opacity="0.392156862745" d="M35.75 87.0 L36.6 86.4 36.5 86.25 Q36.25 86.25 35.9 86.5 L35.25 87.1 34.7 87.65 Q34.4 87.8 34.45 87.85 L34.8 87.6 35.75 87.0"/><path fill="#fffd8f" fill-opacity="0.392156862745" d="M34.1 84.35 L33.95 84.05 33.75 84.05 Q33.65 84.1 33.7 84.25 L34.0 84.55 34.2 84.75 34.3 84.85 34.2 84.75 34.1 84.35"/><path fill="#fffd8f" fill-opacity="0.392156862745" d="M34.1 84.2 Q33.9 84.05 33.75 84.05 L33.75 84.1 33.95 84.2 34.2 84.3 34.5 84.4 34.55 84.4 34.45 84.4 34.1 84.2"/><path fill="#fffd8f" fill-opacity="0.392156862745" d="M33.5 83.65 L33.65 84.05 33.85 84.05 33.9 83.85 33.65 83.55 33.5 83.25 33.45 83.15 33.5 83.25 33.5 83.65"/><path fill="#fffd8f" fill-opacity="0.392156862745" d="M33.5 83.9 L33.75 84.05 33.8 84.0 33.65 83.85 33.35 83.7 33.2 83.6 33.05 83.55 33.15 83.6 33.5 83.9"/><path fill="#fffd8f" fill-opacity="0.392156862745" d="M34.3 83.8 L34.05 83.95 34.05 84.0 34.25 83.95 34.55 83.8 Q34.6 83.7 34.7 83.7 L34.8 83.6 34.7 83.65 34.3 83.8"/><path fill="#fffd8f" fill-opacity="0.392156862745" d="M33.3 84.45 L33.6 84.2 33.6 84.15 Q33.5 84.15 33.4 84.3 L33.15 84.45 32.95 84.65 32.85 84.75 33.0 84.6 33.3 84.45"/><path fill="#ffffff" stroke="none" d="M36.3 85.35 Q36.05 85.7 36.05 86.15 L36.5 86.9 37.3 87.15 38.05 86.75 38.25 85.9 37.85 85.2 37.05 84.95 36.3 85.35"/><path fill="#fefd8d" fill-opacity="0.972549019608" d="M18.75 62.3 L18.65 62.35 18.2 62.45 18.6 62.25 19.85 61.9 21.0 61.5 21.4 61.35 21.05 61.5 19.9 61.9 18.75 62.3 M17.45 61.95 L17.7 62.2 17.75 62.2 17.7 62.15 17.85 61.05 18.05 59.85 18.15 59.4 18.1 59.8 18.05 61.0 18.0 62.25 18.1 62.6 19.15 63.2 20.0 63.75 19.15 63.3 18.5 62.95 18.4 62.85 18.15 62.7 18.1 62.7 18.15 62.75 18.2 63.85 18.2 64.9 18.0 64.0 17.85 62.8 17.8 62.8 17.75 62.45 17.6 62.3 17.7 62.35 17.7 62.3 16.85 61.5 15.9 60.65 15.65 60.35 15.95 60.65 16.8 61.4 17.45 61.95 M14.7 64.25 L15.05 64.05 16.1 63.45 17.25 62.85 17.7 62.65 17.3 62.95 16.2 63.45 15.1 64.05 14.7 64.25"/><path fill="#fffd8f" fill-opacity="0.4" d="M18.75 62.3 L19.1 62.2 19.85 62.05 20.6 61.95 19.85 62.15 19.05 62.3 18.75 62.3 M17.45 61.95 L16.95 61.35 16.5 60.75 17.0 61.3 17.55 61.95 17.7 62.15 17.75 62.2 17.7 62.2 17.45 61.95 M18.5 62.95 L19.0 63.35 19.6 63.8 19.8 64.0 19.6 63.85 18.95 63.4 18.3 62.9 18.15 62.75 18.1 62.7 18.15 62.7 18.4 62.85 18.5 62.95 M18.3 61.9 L18.05 62.2 18.1 61.85 18.45 61.15 18.9 60.4 19.1 60.2 18.95 60.4 18.65 61.15 18.3 61.9 M16.9 62.9 L17.2 62.85 Q17.15 62.9 16.85 63.05 L16.15 63.3 15.45 63.55 15.2 63.6 15.45 63.5 16.1 63.25 Q16.6 63.0 16.9 62.9 M17.55 63.1 L17.75 62.75 17.8 63.1 17.6 63.95 17.25 64.7 17.15 64.95 17.2 64.7 17.4 63.9 Q17.4 63.4 17.55 63.1"/><path fill="#fffd8f" fill-opacity="0.392156862745" d="M18.6 63.1 L18.15 62.4 17.7 62.45 17.75 62.95 18.3 63.55 Q18.75 63.8 18.8 64.0 L19.0 64.25 18.85 63.95 18.6 63.1"/><path fill="#fffd8f" fill-opacity="0.392156862745" d="M18.55 62.7 Q18.05 62.4 17.9 62.4 17.7 62.4 17.8 62.5 L18.25 62.8 18.85 63.0 19.35 63.15 19.6 63.2 19.35 63.1 18.55 62.7"/><path fill="#fffd8f" fill-opacity="0.392156862745" d="M17.3 61.7 Q17.35 62.3 17.55 62.45 L18.0 62.5 18.1 62.0 17.65 61.35 17.25 60.75 17.15 60.5 17.2 60.8 17.3 61.7"/><path fill="#fffd8f" fill-opacity="0.392156862745" d="M17.25 62.1 L17.9 62.5 17.95 62.45 17.6 62.05 17.05 61.75 16.55 61.5 16.35 61.4 16.55 61.6 Q16.8 61.7 17.25 62.1"/><path fill="#fffd8f" fill-opacity="0.392156862745" d="M19.05 61.9 L18.4 62.3 18.45 62.4 18.9 62.3 19.5 61.95 19.95 61.6 20.15 61.5 19.85 61.6 19.05 61.9"/><path fill="#fffd8f" fill-opacity="0.392156862745" d="M16.9 63.3 L17.5 62.85 17.45 62.7 17.05 62.9 16.5 63.35 16.15 63.75 15.95 63.95 16.2 63.75 16.9 63.3"/><path fill="#ffffff" stroke="none" d="M17.4 62.1 Q17.15 62.35 17.2 62.65 L17.55 63.25 18.1 63.4 18.7 63.1 18.85 62.5 18.55 61.95 17.9 61.75 17.4 62.1"/><path fill="#ffffff" stroke="none" d="M33.55 83.9 L33.45 84.15 33.6 84.45 33.85 84.5 34.15 84.4 34.2 84.05 34.1 83.85 33.75 83.75 33.55 83.9"/></g><g id="c18"><g><use transform="matrix(1.0,0.0,0.0,1.0,6.3,53.35)" xlink:href="#c9"/></g><g><use transform="matrix(1.0,0.0,0.0,1.0,0.0,0.0)" xlink:href="#c10"/></g><g><use transform="matrix(1.0,0.0,0.0,1.0,6.45,53.4)" xlink:href="#c12"/></g><g><use transform="matrix(1.0,0.0,0.0,1.0,0.0,0.0)" xlink:href="#c13"/></g><mask id="mask14"><use transform="matrix(1.0,0.0,0.0,1.0,0.0,0.0)" xlink:href="#c14"/></mask><g mask="url(#mask14)"><use transform="matrix(1.0,0.0,0.0,1.0,9.65,51.0)" filter="url(#filter16)" xlink:href="#c16"/></g><g mask="url(#mask14)"><use transform="matrix(1.0,0.0,0.0,1.0,9.65,51.0)" filter="url(#filter17)" xlink:href="#c16"/></g><g mask="url(#mask14)"><use transform="matrix(1.0,0.0,0.0,1.0,0.0,0.0)" xlink:href="#c17"/></g><g><use transform="matrix(0.141098022461,-0.0378112792969,0.111373901367,0.225646972656,27.2,74.05)" filter="url(#filter19)" xlink:href="#c6"/></g></g><filter id="filter16"><feColorMatrix in="SourceGraphic" type="matrix" values="0.0 0.0 0.0 0.0 0.99609375 0.0 0.0 0.0 0.0 0.99609375 0.0 0.0 0.0 0.0 0.99609375 0.0 0.0 0.0 1.0 0.0" result="cxform"/><feComposite operator="in" in2="SourceGraphic" result="color-xform"/></filter><filter id="filter17"><feColorMatrix in="SourceGraphic" type="matrix" values="0.0 0.0 0.0 0.0 0.99609375 0.0 0.0 0.0 0.0 0.99609375 0.0 0.0 0.0 0.0 0.99609375 0.0 0.0 0.0 1.0 0.0" result="cxform"/><feComposite operator="in" in2="SourceGraphic" result="color-xform"/></filter><filter id="filter19"><feColorMatrix in="SourceGraphic" type="matrix" values="1.0 0.0 0.0 0.0 0.0 0.0 1.0 0.0 0.0 0.0 0.0 0.0 1.0 0.0 0.0 0.0 0.0 0.0 0.23046875 0.0" result="cxform"/><feComposite operator="in" in2="SourceGraphic" result="color-xform"/></filter></defs><g><g><use transform="matrix(1.0,0.0,0.0,1.0,0.0,0.0)" xlink:href="#c1"/></g><g><use transform="matrix(1.15496826172,0.0,0.0,1.15496826172,-1.5,-57.65)" xlink:href="#c18"/></g></g></svg>