<?xml version='1.0' encoding='UTF-8'?>
<svg xmlns:xlink="http://www.w3.org/1999/xlink" xmlns="http://www.w3.org/2000/svg" version="1.1" width="60px" height="60px" viewBox="0.0 0.0 60.0 60.0"><defs><g id="c1"><path fill="#000000" fill-opacity="0.00392156862745" d="M0.0 0.0 L60.0 0.0 60.0 60.0 0.0 60.0 0.0 0.0"/></g><g id="c2"><path fill="none" stroke="#000000" stroke-width="1.0" stroke-opacity="0.301960784314" d="M22.3 0.35 Q26.6 -1.0 28.5 3.05 L41.4 31.7 Q43.1 35.4 39.9 36.85 L38.15 37.65 19.65 43.65 Q17.05 44.5 15.35 43.3 14.2 42.55 13.5 40.9 L0.55 12.25 Q-0.6 9.75 0.6 8.25 1.15 7.55 2.2 7.05 2.85 6.6 3.8 6.3 L22.3 0.35"/><path fill="#300525" stroke="none" d="M25.55 0.9 Q26.9 1.6 27.8 3.55 L40.7 32.15 Q42.6 36.3 38.3 37.65 L23.3 42.5 13.15 21.4 4.6 20.9 0.7 12.25 Q-0.45 9.75 0.75 8.25 L29.8 9.75 25.55 0.9 M20.1 43.55 L19.8 43.65 Q17.15 44.45 15.5 43.3 L20.1 43.55"/><path fill="#630a4c" stroke="none" d="M23.3 42.5 L20.1 43.55 15.5 43.3 Q14.35 42.55 13.65 40.9 L4.6 20.9 13.15 21.4 23.3 42.5 M0.75 8.25 Q1.45 7.3 3.1 6.75 L21.65 0.8 25.55 0.9 29.8 9.75 0.75 8.25"/><path fill="none" stroke="#000000" stroke-width="0.5" stroke-opacity="0.301960784314" d="M25.55 0.9 Q26.9 1.6 27.8 3.55 L40.7 32.15 Q42.6 36.3 38.3 37.65 L23.3 42.5 20.1 43.55 19.8 43.65 Q17.15 44.45 15.5 43.3 14.35 42.55 13.65 40.9 L4.6 20.9 0.7 12.25 Q-0.45 9.75 0.75 8.25 1.45 7.3 3.1 6.75 L21.65 0.8 25.55 0.9"/><path fill="#9d147b" stroke="none" d="M14.2 40.5 L1.35 11.8 Q-0.5 7.75 3.8 6.35 L22.3 0.4 Q26.55 -1.0 28.45 3.1 L41.35 31.7 Q43.25 35.85 38.9 37.25 L20.4 43.2 Q16.1 44.55 14.2 40.5"/><path fill="none" stroke="#000000" stroke-width="0.5" stroke-opacity="0.301960784314" d="M14.2 40.5 L1.35 11.8 Q-0.5 7.75 3.8 6.35 L22.3 0.4 Q26.55 -1.0 28.45 3.1 L41.35 31.7 Q43.25 35.85 38.9 37.25 L20.4 43.2 Q16.1 44.55 14.2 40.5"/><path fill="#fcf2cf" stroke="none" d="M9.15 13.6 Q9.8 12.8 9.55 11.6 L9.1 10.55 22.05 6.35 Q24.9 5.45 26.25 7.85 L26.5 8.3 35.8 29.0 35.95 29.35 Q34.75 29.3 34.1 30.1 33.45 30.9 33.7 32.1 L34.0 32.9 20.65 37.2 Q18.8 37.8 17.65 37.0 16.8 36.4 16.3 35.2 L6.95 14.6 6.8 14.4 7.1 14.4 Q8.4 14.45 9.15 13.6"/><path fill="#c47fad" stroke="none" d="M8.25 23.65 L3.35 12.8 Q1.65 9.1 5.5 7.85 L22.25 2.5 Q26.05 1.25 27.75 4.95 L28.25 6.1 35.55 22.3 39.35 30.75 Q41.1 34.5 37.2 35.7 L20.45 41.1 Q16.8 42.25 15.2 39.0 L15.0 38.6 8.25 23.65 M9.15 13.6 Q8.4 14.45 7.1 14.4 L6.8 14.4 6.95 14.6 16.3 35.2 Q16.8 36.4 17.65 37.0 18.8 37.8 20.65 37.2 L34.0 32.9 33.7 32.1 Q33.45 30.9 34.1 30.1 34.75 29.3 35.95 29.35 L35.8 29.0 26.5 8.3 26.25 7.85 Q24.9 5.45 22.05 6.35 L9.1 10.55 9.55 11.6 Q9.8 12.8 9.15 13.6"/><path fill="none" stroke="#ffcc00" stroke-width="1.0" stroke-opacity="0.749019607843" d="M8.25 23.65 L3.35 12.8 Q1.65 9.1 5.5 7.85 L22.25 2.5 Q26.05 1.25 27.75 4.95 L28.25 6.1 M35.55 22.3 L39.35 30.75 Q41.1 34.5 37.2 35.7 L20.45 41.1 Q16.8 42.25 15.2 39.0 L15.0 38.6"/><path fill="none" stroke="#bf9900" stroke-width="1.0" stroke-opacity="0.749019607843" d="M28.25 6.1 L35.55 22.3 M15.0 38.6 L8.25 23.65"/><path fill="none" stroke="#f0b92b" stroke-width="0.5" d="M9.15 13.6 Q9.8 12.8 9.55 11.6 L9.1 10.55 22.05 6.35 Q24.9 5.45 26.25 7.85 L26.5 8.3 35.8 29.0 35.95 29.35 Q34.75 29.3 34.1 30.1 33.45 30.9 33.7 32.1 L34.0 32.9 20.65 37.2 Q18.8 37.8 17.65 37.0 16.8 36.4 16.3 35.2 L6.95 14.6 6.8 14.4 7.1 14.4 Q8.4 14.45 9.15 13.6"/></g><g id="c3"><path fill="#7fdbfe" stroke="none" d="M10.75 4.9 Q10.75 4.6 10.9 4.35 11.25 3.45 11.95 2.75 13.3 1.5 14.35 2.1 15.4 2.7 14.95 4.45 14.7 5.4 14.1 6.15 L13.75 6.5 Q13.1 7.15 12.35 7.35 L11.4 7.2 Q10.95 6.9 10.75 6.4 10.5 5.75 10.75 4.9 M7.5 5.9 Q7.0 5.85 6.6 5.5 6.05 5.0 5.8 4.15 L5.7 3.6 Q5.55 2.65 5.8 1.7 6.25 0.0 7.5 0.0 L7.6 0.0 Q8.85 0.0 9.3 1.7 9.55 2.65 9.4 3.6 L9.3 4.15 8.5 5.5 7.6 5.9 7.5 5.9 M4.35 4.9 Q4.6 5.75 4.35 6.4 L3.7 7.2 2.75 7.35 Q2.0 7.15 1.35 6.5 L1.0 6.15 Q0.4 5.4 0.15 4.45 -0.3 2.7 0.75 2.1 1.8 1.5 3.15 2.75 3.85 3.45 4.2 4.35 L4.35 4.9 M5.5 13.7 Q4.45 13.9 3.65 12.95 2.75 12.0 3.2 10.25 3.7 8.5 5.25 7.6 6.4 6.9 7.55 7.0 8.75 6.9 9.9 7.6 11.45 8.5 11.95 10.25 12.35 12.0 11.5 12.95 10.7 13.9 9.65 13.7 8.55 13.5 7.55 12.6 6.55 13.5 5.5 13.7"/></g><g id="c4"><g><use transform="matrix(1.0,0.0,0.0,1.0,0.0,0.0)" xlink:href="#c3"/></g></g><radialGradient gradientUnits="userSpaceOnUse" r="819.2" cx="0" cy="0" spreadMethod="pad" gradientTransform="matrix(0.0914459228516,0.0,0.0,0.0914459228516,0.6,3.4)" id="gradient1"><stop offset="0.0" stop-color="#ffffff"/><stop offset="1.0" stop-color="#ffffff" stop-opacity="0.0"/></radialGradient><g id="c5"><path stroke="none" fill="url(#gradient1)" d="M36.65 -54.65 Q60.05 -42.0 69.75 -17.95 80.55 8.9 68.0 34.1 55.45 59.35 26.8 68.2 -1.8 77.05 -29.7 64.3 -57.6 51.6 -68.45 24.75 -79.3 -2.05 -66.75 -27.25 L-66.7 -27.3 Q-54.1 -52.5 -25.5 -61.4 3.1 -70.2 31.0 -57.5 L36.65 -54.65"/></g><g id="c6"><g><use transform="matrix(1.0,0.0,0.0,1.0,0.0,0.0)" xlink:href="#c5"/></g></g><radialGradient gradientUnits="userSpaceOnUse" r="819.2" cx="0" cy="0" spreadMethod="pad" gradientTransform="matrix(0.209197998047,0.0,0.0,0.177108764648,67.15,107.2)" id="gradient2"><stop offset="0.356862745098" stop-color="#ffffff"/><stop offset="0.670588235294" stop-opacity="0.0"/></radialGradient><g id="c7"><path fill="none" stroke-linejoin="round" stroke-linecap="round" stroke="url(#gradient2)" stroke-width="0.5" d="M136.55 165.8 L68.6 106.0 68.4 106.0 118.25 201.5 M68.2 105.7 L68.25 105.8 68.25 105.75 68.2 105.7 0.0 45.7 M68.25 105.8 L68.3 105.85 68.3 105.8 68.25 105.75 49.95 0.05 M0.05 97.7 L68.15 105.95 68.25 105.85 68.25 105.8 M68.3 105.85 L68.25 105.85 68.3 106.0 68.3 105.85 68.3 105.8 68.35 105.8 68.3 105.8 86.6 18.35 M50.0 193.2 L68.3 106.0 68.15 105.95 18.25 151.55 M68.4 106.0 L68.3 106.0 86.55 211.5 M68.4 106.0 L68.3 105.85 M68.6 106.0 L68.35 105.8 118.25 60.15 M136.6 114.25 L68.6 106.0 M68.2 105.7 L18.25 10.05"/></g><g id="c8"><g><use transform="matrix(1.0,0.0,0.0,1.0,0.0,0.0)" xlink:href="#c7"/></g></g><g id="c9"><path fill="#2e393d" stroke="none" d="M13.75 19.45 L13.5 19.1 Q13.35 18.6 13.95 18.4 L15.2 19.75 16.4 21.1 Q16.2 21.6 15.45 21.35 L15.35 21.25 14.5 20.3 13.75 19.45"/><path fill="#374548" stroke="none" d="M15.35 21.25 L14.7 21.9 13.35 22.7 Q12.6 23.05 11.9 22.45 13.8 21.9 14.5 20.3 L15.35 21.25"/><path fill="#4e6165" stroke="none" d="M11.9 22.45 L11.5 22.05 Q10.6 20.9 11.55 21.1 L11.75 21.3 Q12.8 20.85 13.75 19.45 L14.5 20.3 Q13.8 21.9 11.9 22.45"/><path fill="#78929c" stroke="none" d="M12.95 20.6 L12.5 20.95 12.3 21.4 Q12.25 21.65 12.35 21.75 L12.75 21.75 13.15 21.4 13.4 20.95 13.3 20.6 12.95 20.6"/><path fill="#4e6165" stroke="none" d="M22.45 11.95 Q24.0 11.2 24.5 10.2 L24.35 10.0 Q24.3 9.0 25.3 10.05 L25.7 10.5 Q24.9 12.3 23.2 12.85 L22.45 11.95"/><path fill="#2e393d" stroke="none" d="M22.45 11.95 L23.2 12.85 24.0 13.75 24.15 13.9 Q24.3 14.65 23.8 14.8 L22.55 13.45 21.4 11.95 Q21.65 11.4 22.2 11.7 L22.45 11.95"/><path fill="#374548" stroke="none" d="M23.2 12.85 Q24.9 12.3 25.7 10.5 26.2 11.25 25.7 12.0 L24.7 13.2 24.0 13.75 23.2 12.85"/><path fill="#78929c" stroke="none" d="M23.55 11.45 L23.95 11.05 24.45 10.9 24.75 11.0 24.75 11.35 24.35 11.7 23.85 11.9 23.5 11.8 Q23.4 11.65 23.55 11.45"/><path fill="#71684a" stroke="none" d="M24.45 25.55 L25.25 24.75 25.4 24.65 26.85 26.3 26.85 26.4 26.7 26.55 26.15 27.0 25.1 25.9 24.45 25.55 M26.3 28.6 L27.5 27.3 27.8 27.4 29.55 29.4 29.3 29.65 28.95 29.85 28.65 29.65 27.6 28.85 26.3 28.6"/><path fill="#cbc4b4" stroke="none" d="M26.15 27.0 L25.55 27.35 25.15 27.25 24.8 26.85 26.15 27.0 M28.65 29.65 L28.95 29.85 27.75 30.6 27.3 30.5 26.45 29.65 28.65 29.65"/><path fill="#aaa080" stroke="none" d="M24.8 26.85 L24.15 26.1 24.45 25.55 25.1 25.9 26.15 27.0 24.8 26.85 M26.3 28.6 L27.6 28.85 28.65 29.65 26.45 29.65 25.95 29.0 26.3 28.6"/><path fill="#aaa080" stroke="none" d="M23.55 20.9 L24.4 20.0 24.75 20.35 24.75 23.5 31.0 29.7 30.1 30.6 26.9 27.45 26.85 27.35 24.85 25.35 Q23.55 24.0 23.45 22.5 L23.55 20.9"/><path fill="#71684a" stroke="none" d="M23.55 20.9 L23.45 22.5 Q23.55 24.0 24.85 25.35 L23.4 23.9 22.1 22.6 22.05 22.4 23.55 20.9"/><path fill="#cbc4b4" stroke="none" d="M31.0 29.7 L24.75 23.5 24.75 20.35 31.85 27.45 32.2 28.5 31.0 29.7"/><path fill="#ede8de" fill-opacity="0.6" d="M30.5 26.45 L29.8 27.15 30.65 28.0 31.35 27.3 30.5 26.45 M27.75 25.1 L28.45 24.4 27.5 23.45 26.8 24.15 27.75 25.1"/><path fill="#ede8de" stroke="none" d="M29.8 27.15 L30.5 26.45 28.45 24.4 27.75 25.1 29.8 27.15"/><path fill="#374548" stroke="none" d="M20.65 20.1 Q21.7 18.9 23.0 17.95 24.4 18.55 24.7 19.7 L24.2 20.45 24.1 20.55 Q22.5 22.05 21.5 21.75 20.3 21.1 20.65 20.1"/><path fill="#2e393d" stroke="none" d="M24.1 20.55 Q23.1 21.9 21.55 22.85 20.45 22.25 19.8 21.15 L20.65 20.1 Q20.3 21.1 21.5 21.75 22.5 22.05 24.1 20.55"/><path fill="#4e6165" stroke="none" d="M23.1 18.25 Q22.75 18.2 22.5 18.45 22.3 18.65 22.35 19.0 L22.75 19.7 23.45 20.1 24.0 19.95 24.2 19.3 23.8 18.65 23.1 18.25"/><path fill="#fefbef" stroke="none" d="M20.75 11.6 L21.45 11.65 21.8 11.8 Q22.1 12.2 22.05 12.85 L22.2 12.9 22.55 12.95 Q22.95 13.55 22.75 14.2 L22.65 14.4 22.65 14.5 22.2 15.1 21.9 15.3 20.85 15.55 20.8 15.5 20.55 15.45 20.4 15.3 20.45 15.4 20.5 15.45 20.65 15.65 20.55 15.7 20.55 15.8 20.65 15.8 Q20.95 16.25 20.9 16.85 L20.9 17.0 20.15 18.0 20.0 18.15 19.6 18.35 18.9 18.35 18.5 18.1 18.45 18.05 18.35 18.15 18.05 18.35 17.95 18.5 17.85 18.65 16.8 18.85 16.4 18.65 16.25 18.6 16.4 18.8 Q16.85 19.4 17.5 19.6 L18.05 19.65 18.05 19.7 17.8 20.15 Q17.4 20.1 17.1 19.85 L17.0 19.8 16.6 19.95 15.6 19.75 15.55 19.75 15.6 19.65 15.45 19.65 15.25 19.5 Q14.6 19.75 14.0 19.5 13.8 19.0 13.9 18.45 13.9 18.25 14.05 18.0 L14.65 18.3 Q15.4 18.5 16.0 18.1 L16.15 18.05 16.1 17.4 16.2 17.0 15.6 17.1 15.35 17.0 15.15 16.9 15.2 17.05 15.2 17.1 15.15 17.15 14.9 17.3 14.3 17.5 13.95 17.55 13.6 17.25 13.45 17.2 Q13.2 16.75 13.3 16.1 13.4 15.4 14.0 15.05 L13.9 14.0 Q14.05 13.25 14.65 12.9 L15.6 12.7 15.65 12.55 Q15.8 11.8 16.4 11.45 L17.65 11.3 17.7 11.3 17.75 11.35 18.0 11.45 18.05 11.45 18.05 11.5 18.15 11.4 18.45 11.1 19.75 10.95 20.1 11.05 20.3 11.7 20.3 12.25 Q20.15 12.95 19.4 13.35 L19.05 13.55 18.35 13.65 17.95 13.35 17.8 13.3 17.3 13.7 17.3 13.75 18.1 13.7 18.85 14.3 Q19.05 13.75 19.45 13.55 L20.55 13.35 20.9 13.05 21.25 12.9 20.9 11.85 20.75 11.6 M19.0 20.05 L18.95 19.45 19.35 19.0 19.65 19.05 20.3 19.2 Q19.85 19.9 19.0 20.05 M23.55 16.1 L23.1 16.8 23.0 16.8 22.8 16.35 22.75 16.25 22.9 16.15 23.45 15.55 23.5 15.4 23.55 15.2 23.65 15.35 23.7 15.45 23.6 15.6 23.65 15.65 23.65 15.75 23.6 15.9 23.55 16.1 M21.85 16.35 L22.15 16.4 22.1 16.6 21.85 17.15 21.7 17.35 21.5 16.65 21.85 16.35 M17.85 17.1 L18.25 17.25 18.3 16.85 Q18.4 16.2 18.95 15.9 L18.95 15.8 18.85 15.5 18.35 16.05 18.1 16.15 17.05 16.4 16.75 16.3 Q17.1 16.9 17.85 17.1 M17.15 13.9 L16.45 14.05 16.25 14.0 15.85 13.75 15.9 13.9 16.35 14.3 16.65 14.4 17.15 13.9"/><path fill="#d8ca7c" stroke="none" d="M21.8 11.8 L22.6 12.5 22.9 13.2 23.35 13.75 23.7 14.85 23.85 15.0 23.85 15.05 23.65 15.35 23.55 15.2 23.5 15.4 23.45 15.55 22.9 16.15 22.75 16.25 22.8 16.35 23.0 16.8 22.95 16.85 23.1 16.8 23.55 16.1 23.3 17.05 Q22.8 17.85 21.9 18.1 L20.65 18.2 20.4 19.05 20.3 19.2 19.65 19.05 19.35 19.0 18.95 19.45 19.0 20.05 18.95 20.1 17.8 20.15 18.05 19.7 18.05 19.65 17.5 19.6 Q16.85 19.4 16.4 18.8 L16.4 18.65 16.8 18.85 17.85 18.65 17.95 18.5 18.05 18.35 18.35 18.15 18.5 18.1 18.9 18.35 19.6 18.35 20.0 18.15 20.15 18.0 20.9 17.0 20.9 16.85 Q20.95 16.25 20.65 15.8 L20.55 15.7 20.65 15.65 20.5 15.45 20.55 15.45 20.8 15.5 20.85 15.55 21.9 15.3 22.2 15.1 22.65 14.5 22.65 14.4 22.75 14.2 Q22.95 13.55 22.55 12.95 L22.2 12.9 22.05 12.85 Q22.1 12.2 21.8 11.8 M14.05 18.0 L13.55 17.45 13.6 17.25 13.95 17.55 14.3 17.5 14.9 17.3 15.15 17.15 15.2 17.1 15.2 17.05 15.15 16.9 15.35 17.0 15.6 17.1 16.2 17.0 16.1 17.4 16.15 18.05 16.0 18.1 Q15.4 18.5 14.65 18.3 L14.05 18.0 M20.1 11.05 L20.75 11.6 20.9 11.85 21.25 12.9 20.9 13.05 20.55 13.35 19.45 13.55 Q19.05 13.75 18.85 14.3 L18.1 13.7 17.3 13.75 17.3 13.7 17.8 13.3 17.95 13.35 18.35 13.65 19.05 13.55 19.4 13.35 Q20.15 12.95 20.3 12.25 L20.3 11.7 20.1 11.05 M21.85 16.35 L21.5 16.65 21.7 17.35 21.85 17.15 22.1 16.6 22.15 16.4 21.85 16.35 M20.45 19.15 L20.55 19.15 20.6 19.2 20.6 19.25 20.6 19.4 19.85 20.45 Q19.2 20.85 18.9 20.75 L19.0 20.35 19.05 20.15 19.0 20.05 Q19.85 19.9 20.3 19.2 L20.45 19.15 M17.85 17.1 Q17.1 16.9 16.75 16.3 L17.05 16.4 18.1 16.15 18.35 16.05 18.85 15.5 18.95 15.8 18.95 15.9 Q18.4 16.2 18.3 16.85 L18.25 17.25 17.85 17.1 M17.15 13.9 L16.65 14.4 16.35 14.3 15.9 13.9 15.85 13.75 16.25 14.0 16.45 14.05 17.15 13.9"/><path fill="#b19741" stroke="none" d="M23.85 15.05 L23.95 15.15 24.15 15.35 24.15 15.4 24.2 15.45 Q24.6 16.05 24.45 16.8 24.35 17.5 23.75 17.8 L23.55 17.95 23.65 18.9 22.85 19.95 21.55 20.05 21.55 20.0 21.5 20.1 Q21.45 20.85 20.85 21.2 L19.6 21.4 18.75 21.05 18.35 21.45 17.05 21.6 15.9 20.85 15.95 20.85 15.9 20.8 15.85 20.75 15.8 20.7 15.4 20.65 Q14.7 20.55 14.25 19.9 L14.25 19.8 14.1 19.75 14.0 19.5 Q14.6 19.75 15.25 19.5 L15.45 19.65 15.55 19.75 15.6 19.75 16.6 19.95 17.0 19.8 17.1 19.85 Q17.4 20.1 17.8 20.15 L18.95 20.1 19.05 20.15 19.0 20.35 18.9 20.75 Q19.2 20.85 19.85 20.45 L20.6 19.4 20.6 19.25 20.6 19.2 20.55 19.15 20.45 19.15 20.4 19.05 20.65 18.2 21.9 18.1 Q22.8 17.85 23.3 17.05 L23.55 16.1 23.6 15.9 23.65 15.75 23.65 15.65 23.6 15.6 23.7 15.45 23.65 15.35 23.85 15.05"/><path fill="#f6bdc3" stroke="none" d="M20.55 15.45 L20.5 15.45 20.45 15.4 20.4 15.3 20.55 15.45 M18.5 18.1 L18.35 18.15 18.45 18.05 18.5 18.1"/><path fill="#f8e7bd" stroke="none" d="M13.55 17.45 L13.45 17.2 13.6 17.25 13.55 17.45 M20.55 15.7 L20.65 15.8 20.55 15.8 20.55 15.7 M16.4 18.65 L16.4 18.8 16.25 18.6 16.4 18.65"/><path fill="#d3bb76" stroke="none" d="M15.9 20.85 L15.85 20.75 15.9 20.8 15.9 20.85 M14.25 19.9 L14.1 19.75 14.25 19.8 14.25 19.9 M18.95 20.1 L19.0 20.05 19.05 20.15 18.95 20.1 M20.3 19.2 L20.4 19.05 20.45 19.15 20.3 19.2"/><path fill="#fff9dc" stroke="none" d="M23.1 16.8 L22.95 16.85 23.0 16.8 23.1 16.8"/><path fill="#e2d9b6" stroke="none" d="M15.55 19.75 L15.45 19.65 15.6 19.65 15.55 19.75"/><path fill="#d3767e" stroke="none" d="M15.9 20.85 L15.9 20.8 15.95 20.85 15.9 20.85"/></g><g id="c10"><g><use transform="matrix(1.0,0.0,0.0,1.0,0.0,0.0)" xlink:href="#c2"/></g><g><use transform="matrix(0.238861083984,-0.0867004394531,0.10026550293,0.233917236328,34.25,31.15)" xlink:href="#c4"/></g><g><use transform="matrix(0.238861083984,-0.0867004394531,0.10026550293,0.233917236328,4.25,10.3)" xlink:href="#c4"/></g><g><use transform="matrix(0.141098022461,-0.0378112792969,0.111373901367,0.225646972656,20.25,20.65)" filter="url(#filter7)" xlink:href="#c6"/></g><g><use transform="matrix(-0.155029296875,0.0513153076172,0.0841827392578,0.147033691406,22.6,2.3)" filter="url(#filter8)" xlink:href="#c8"/></g><g><use transform="matrix(1.0,0.0,0.0,1.0,0.0,0.0)" xlink:href="#c9"/></g><g><use transform="matrix(0.162948608398,-0.0436706542969,0.128631591797,0.260604858398,20.35,20.95)" filter="url(#filter10)" xlink:href="#c6"/></g></g><filter id="filter7"><feColorMatrix in="SourceGraphic" type="matrix" values="0.0 0.0 0.0 0.0 0.796875 0.0 0.0 0.0 0.0 0.59765625 0.0 0.0 0.0 0.0 0.19921875 0.0 0.0 0.0 1.0 0.0" result="cxform"/><feComposite operator="in" in2="SourceGraphic" result="color-xform"/></filter><filter id="filter8"><feColorMatrix in="SourceGraphic" type="matrix" values="0.0 0.0 0.0 0.0 0.99609375 0.0 0.0 0.0 0.0 0.99609375 0.0 0.0 0.0 0.0 0.99609375 0.0 0.0 0.0 1.0 0.0" result="cxform"/><feComposite operator="in" in2="SourceGraphic" result="color-xform"/></filter><filter id="filter10"><feColorMatrix in="SourceGraphic" type="matrix" values="1.0 0.0 0.0 0.0 0.0 0.0 1.0 0.0 0.0 0.0 0.0 0.0 1.0 0.0 0.0 0.0 0.0 0.0 0.23046875 0.0" result="cxform"/><feComposite operator="in" in2="SourceGraphic" result="color-xform"/></filter></defs><g><g><use transform="matrix(1.0,0.0,0.0,1.0,0.0,0.0)" xlink:href="#c1"/></g><g><use transform="matrix(1.15496826172,0.0,0.0,1.15496826172,5.85,3.95)" xlink:href="#c10"/></g></g></svg>