<?xml version='1.0' encoding='UTF-8'?>
<svg xmlns:xlink="http://www.w3.org/1999/xlink" xmlns="http://www.w3.org/2000/svg" version="1.1" width="60px" height="60px" viewBox="0.0 0.0 60.0 60.0"><defs><g id="c1"><path fill="#000000" fill-opacity="0.00392156862745" d="M0.0 0.0 L60.0 0.0 60.0 60.0 0.0 60.0 0.0 0.0"/></g><g id="c2"><path fill="none" stroke="#000000" stroke-width="1.0" stroke-opacity="0.301960784314" d="M22.3 0.35 Q26.6 -1.0 28.5 3.05 L41.4 31.7 Q43.1 35.4 39.9 36.85 L38.15 37.65 19.65 43.65 Q17.05 44.5 15.35 43.3 14.2 42.55 13.5 40.9 L0.55 12.25 Q-0.6 9.75 0.6 8.25 1.15 7.55 2.2 7.05 2.85 6.6 3.8 6.3 L22.3 0.35"/><path fill="#300525" stroke="none" d="M25.55 0.9 Q26.9 1.6 27.8 3.55 L40.7 32.15 Q42.6 36.3 38.3 37.65 L23.3 42.5 13.15 21.4 4.6 20.9 0.7 12.25 Q-0.45 9.75 0.75 8.25 L29.8 9.75 25.55 0.9 M20.1 43.55 L19.8 43.65 Q17.15 44.45 15.5 43.3 L20.1 43.55"/><path fill="#630a4c" stroke="none" d="M23.3 42.5 L20.1 43.55 15.5 43.3 Q14.35 42.55 13.65 40.9 L4.6 20.9 13.15 21.4 23.3 42.5 M0.75 8.25 Q1.45 7.3 3.1 6.75 L21.65 0.8 25.55 0.9 29.8 9.75 0.75 8.25"/><path fill="none" stroke="#000000" stroke-width="0.5" stroke-opacity="0.301960784314" d="M25.55 0.9 Q26.9 1.6 27.8 3.55 L40.7 32.15 Q42.6 36.3 38.3 37.65 L23.3 42.5 20.1 43.55 19.8 43.65 Q17.15 44.45 15.5 43.3 14.35 42.55 13.65 40.9 L4.6 20.9 0.7 12.25 Q-0.45 9.75 0.75 8.25 1.45 7.3 3.1 6.75 L21.65 0.8 25.55 0.9"/><path fill="#9d147b" stroke="none" d="M14.2 40.5 L1.35 11.8 Q-0.5 7.75 3.8 6.35 L22.3 0.4 Q26.55 -1.0 28.45 3.1 L41.35 31.7 Q43.25 35.85 38.9 37.25 L20.4 43.2 Q16.1 44.55 14.2 40.5"/><path fill="none" stroke="#000000" stroke-width="0.5" stroke-opacity="0.301960784314" d="M14.2 40.5 L1.35 11.8 Q-0.5 7.75 3.8 6.35 L22.3 0.4 Q26.55 -1.0 28.45 3.1 L41.35 31.7 Q43.25 35.85 38.9 37.25 L20.4 43.2 Q16.1 44.55 14.2 40.5"/><path fill="#fcf2cf" stroke="none" d="M9.15 13.6 Q9.8 12.8 9.55 11.6 L9.1 10.55 22.05 6.35 Q24.9 5.45 26.25 7.85 L26.5 8.3 35.8 29.0 35.95 29.35 Q34.75 29.3 34.1 30.1 33.45 30.9 33.7 32.1 L34.0 32.9 20.65 37.2 Q18.8 37.8 17.65 37.0 16.8 36.4 16.3 35.2 L6.95 14.6 6.8 14.4 7.1 14.4 Q8.4 14.45 9.15 13.6"/><path fill="#c47fad" stroke="none" d="M8.25 23.65 L3.35 12.8 Q1.65 9.1 5.5 7.85 L22.25 2.5 Q26.05 1.25 27.75 4.95 L28.25 6.1 35.55 22.3 39.35 30.75 Q41.1 34.5 37.2 35.7 L20.45 41.1 Q16.8 42.25 15.2 39.0 L15.0 38.6 8.25 23.65 M9.15 13.6 Q8.4 14.45 7.1 14.4 L6.8 14.4 6.95 14.6 16.3 35.2 Q16.8 36.4 17.65 37.0 18.8 37.8 20.65 37.2 L34.0 32.9 33.7 32.1 Q33.45 30.9 34.1 30.1 34.75 29.3 35.95 29.35 L35.8 29.0 26.5 8.3 26.25 7.85 Q24.9 5.45 22.05 6.35 L9.1 10.55 9.55 11.6 Q9.8 12.8 9.15 13.6"/><path fill="none" stroke="#ffcc00" stroke-width="1.0" stroke-opacity="0.749019607843" d="M8.25 23.65 L3.35 12.8 Q1.65 9.1 5.5 7.85 L22.25 2.5 Q26.05 1.25 27.75 4.95 L28.25 6.1 M35.55 22.3 L39.35 30.75 Q41.1 34.5 37.2 35.7 L20.45 41.1 Q16.8 42.25 15.2 39.0 L15.0 38.6"/><path fill="none" stroke="#bf9900" stroke-width="1.0" stroke-opacity="0.749019607843" d="M28.25 6.1 L35.55 22.3 M15.0 38.6 L8.25 23.65"/><path fill="none" stroke="#f0b92b" stroke-width="0.5" d="M9.15 13.6 Q9.8 12.8 9.55 11.6 L9.1 10.55 22.05 6.35 Q24.9 5.45 26.25 7.85 L26.5 8.3 35.8 29.0 35.95 29.35 Q34.75 29.3 34.1 30.1 33.45 30.9 33.7 32.1 L34.0 32.9 20.65 37.2 Q18.8 37.8 17.65 37.0 16.8 36.4 16.3 35.2 L6.95 14.6 6.8 14.4 7.1 14.4 Q8.4 14.45 9.15 13.6"/></g><g id="c3"><path fill="#7fdbfe" stroke="none" d="M10.75 4.9 Q10.75 4.6 10.9 4.35 11.25 3.45 11.95 2.75 13.3 1.5 14.35 2.1 15.4 2.7 14.95 4.45 14.7 5.4 14.1 6.15 L13.75 6.5 Q13.1 7.15 12.35 7.35 L11.4 7.2 Q10.95 6.9 10.75 6.4 10.5 5.75 10.75 4.9 M7.5 5.9 Q7.0 5.85 6.6 5.5 6.05 5.0 5.8 4.15 L5.7 3.6 Q5.55 2.65 5.8 1.7 6.25 0.0 7.5 0.0 L7.6 0.0 Q8.85 0.0 9.3 1.7 9.55 2.65 9.4 3.6 L9.3 4.15 8.5 5.5 7.6 5.9 7.5 5.9 M4.35 4.9 Q4.6 5.75 4.35 6.4 L3.7 7.2 2.75 7.35 Q2.0 7.15 1.35 6.5 L1.0 6.15 Q0.4 5.4 0.15 4.45 -0.3 2.7 0.75 2.1 1.8 1.5 3.15 2.75 3.85 3.45 4.2 4.35 L4.35 4.9 M5.5 13.7 Q4.45 13.9 3.65 12.95 2.75 12.0 3.2 10.25 3.7 8.5 5.25 7.6 6.4 6.9 7.55 7.0 8.75 6.9 9.9 7.6 11.45 8.5 11.95 10.25 12.35 12.0 11.5 12.95 10.7 13.9 9.65 13.7 8.55 13.5 7.55 12.6 6.55 13.5 5.5 13.7"/></g><g id="c4"><g><use transform="matrix(1.0,0.0,0.0,1.0,0.0,0.0)" xlink:href="#c3"/></g></g><radialGradient gradientUnits="userSpaceOnUse" r="819.2" cx="0" cy="0" spreadMethod="pad" gradientTransform="matrix(0.0914459228516,0.0,0.0,0.0914459228516,0.6,3.4)" id="gradient1"><stop offset="0.0" stop-color="#ffffff"/><stop offset="1.0" stop-color="#ffffff" stop-opacity="0.0"/></radialGradient><g id="c5"><path stroke="none" fill="url(#gradient1)" d="M36.65 -54.65 Q60.05 -42.0 69.75 -17.95 80.55 8.9 68.0 34.1 55.45 59.35 26.8 68.2 -1.8 77.05 -29.7 64.3 -57.6 51.6 -68.45 24.75 -79.3 -2.05 -66.75 -27.25 L-66.7 -27.3 Q-54.1 -52.5 -25.5 -61.4 3.1 -70.2 31.0 -57.5 L36.65 -54.65"/></g><g id="c6"><g><use transform="matrix(1.0,0.0,0.0,1.0,0.0,0.0)" xlink:href="#c5"/></g></g><radialGradient gradientUnits="userSpaceOnUse" r="819.2" cx="0" cy="0" spreadMethod="pad" gradientTransform="matrix(0.209197998047,0.0,0.0,0.177108764648,67.15,107.2)" id="gradient2"><stop offset="0.356862745098" stop-color="#ffffff"/><stop offset="0.670588235294" stop-opacity="0.0"/></radialGradient><g id="c7"><path fill="none" stroke-linejoin="round" stroke-linecap="round" stroke="url(#gradient2)" stroke-width="0.5" d="M136.55 165.8 L68.6 106.0 68.4 106.0 118.25 201.5 M68.2 105.7 L68.25 105.8 68.25 105.75 68.2 105.7 0.0 45.7 M68.25 105.8 L68.3 105.85 68.3 105.8 68.25 105.75 49.95 0.05 M0.05 97.7 L68.15 105.95 68.25 105.85 68.25 105.8 M68.3 105.85 L68.25 105.85 68.3 106.0 68.3 105.85 68.3 105.8 68.35 105.8 68.3 105.8 86.6 18.35 M50.0 193.2 L68.3 106.0 68.15 105.95 18.25 151.55 M68.4 106.0 L68.3 106.0 86.55 211.5 M68.4 106.0 L68.3 105.85 M68.6 106.0 L68.35 105.8 118.25 60.15 M136.6 114.25 L68.6 106.0 M68.2 105.7 L18.25 10.05"/></g><g id="c8"><g><use transform="matrix(1.0,0.0,0.0,1.0,0.0,0.0)" xlink:href="#c7"/></g></g><g id="c9"><path fill="#7a5b29" stroke="none" d="M12.8 24.5 L12.8 24.55 12.85 24.65 12.85 24.7 12.9 24.7 12.95 24.85 12.95 24.9 13.1 25.1 13.25 25.2 13.45 25.35 13.55 25.45 13.6 25.45 14.2 25.55 15.0 25.45 15.05 25.5 16.05 25.15 16.2 25.1 17.2 24.7 19.35 22.4 19.6 22.15 20.15 21.65 20.35 21.5 20.45 21.4 20.55 21.35 21.05 20.95 Q22.55 19.75 23.95 18.95 L24.95 18.45 24.95 17.6 24.9 17.55 Q24.75 16.15 23.75 15.25 L23.05 14.75 22.85 14.65 22.5 14.55 Q20.8 15.25 19.05 16.65 L18.4 17.15 Q16.4 18.75 14.9 20.45 L14.0 21.65 Q12.65 23.45 12.8 24.5 M23.75 15.25 Q21.55 16.15 18.45 18.65 15.3 21.15 13.95 23.8 L13.9 23.85 Q13.45 24.75 13.5 25.35 L13.45 25.35 13.5 25.35 Q13.45 24.75 13.9 23.85 L13.95 23.8 Q15.3 21.15 18.45 18.65 21.55 16.15 23.75 15.25"/><path fill="#deba6f" stroke="none" d="M12.9 24.7 L12.9 24.9 12.95 24.9 13.05 25.45 13.1 25.4 13.15 25.5 13.25 25.7 13.55 25.85 13.65 25.85 13.7 25.85 14.2 26.05 14.95 25.9 14.95 25.95 15.1 25.9 16.2 25.55 16.35 25.5 17.3 25.1 17.55 25.0 Q17.9 24.8 18.4 24.55 L18.55 24.5 18.6 24.5 18.6 24.45 18.8 24.35 18.85 24.35 19.25 24.15 19.5 23.95 19.55 23.9 19.7 23.75 20.7 23.1 21.75 22.35 21.9 22.25 24.55 19.85 24.7 19.65 25.6 18.55 25.75 18.4 25.85 18.2 26.0 18.1 26.7 16.95 26.7 16.9 26.8 16.7 Q27.35 15.65 27.25 14.9 L27.2 14.7 27.15 14.45 27.05 14.4 26.95 14.2 26.9 14.15 26.85 14.1 26.7 14.0 26.85 14.2 27.0 14.5 27.0 14.6 27.05 14.7 27.05 15.0 Q27.05 15.65 26.55 16.5 L26.5 16.65 26.45 16.75 26.0 17.5 25.75 17.85 25.6 17.95 25.5 18.15 25.45 18.25 25.0 18.75 24.9 18.95 24.35 19.5 21.75 21.85 21.6 22.0 20.6 22.75 19.6 23.4 19.4 23.55 19.35 23.65 19.25 23.65 19.2 23.75 19.15 23.75 19.1 23.75 19.0 23.85 18.75 23.95 18.7 23.95 18.65 24.05 18.6 24.05 18.55 24.05 18.3 24.2 18.25 24.2 18.25 24.25 17.9 24.4 17.85 24.4 17.2 24.7 16.2 25.1 16.05 25.15 15.05 25.5 14.95 25.45 14.9 25.5 14.9 25.45 14.2 25.55 13.6 25.45 13.55 25.45 13.45 25.35 13.25 25.2 12.95 24.9 12.95 24.85 12.9 24.7"/><path fill="#593511" stroke="none" d="M13.1 25.4 L13.1 25.5 13.15 25.55 13.15 25.5 13.1 25.4 M18.8 24.35 L18.8 24.4 18.8 24.35"/><path fill="#29211e" stroke="none" d="M13.15 25.55 L13.15 25.7 13.25 25.7 13.15 25.5 13.15 25.55 M20.2 27.6 L20.2 27.55 20.2 27.6"/><path fill="#8f6830" stroke="none" d="M13.15 25.7 L13.5 26.3 14.45 27.5 14.6 27.6 14.75 27.65 14.7 27.7 15.2 28.15 15.55 28.35 15.55 28.4 Q15.7 28.45 15.85 28.6 16.4 28.8 17.45 28.6 L19.6 27.85 20.05 27.7 20.2 27.6 20.2 27.55 20.3 27.5 20.75 27.35 21.55 26.9 21.9 26.65 22.05 26.5 23.1 25.9 24.1 25.1 24.25 25.0 26.55 22.95 26.65 22.85 26.1 22.0 26.0 22.05 26.05 22.0 24.55 19.85 21.9 22.25 21.75 22.35 20.7 23.1 19.7 23.75 19.55 23.9 19.5 23.95 19.25 24.15 18.85 24.35 18.8 24.35 18.6 24.45 18.6 24.5 18.55 24.5 18.4 24.55 Q17.9 24.8 17.55 25.0 L17.3 25.1 16.35 25.5 16.2 25.55 15.1 25.9 14.95 25.95 14.95 25.9 14.2 26.05 13.7 25.85 13.65 25.85 13.55 25.85 13.25 25.7 13.15 25.7 M18.8 24.35 L18.8 24.4 18.8 24.35"/><path fill="#704316" stroke="none" d="M19.15 23.7 L19.15 23.75 19.2 23.75 19.15 23.7 M19.1 23.75 L18.8 23.9 18.75 23.9 18.75 23.95 19.0 23.85 18.8 23.9 19.0 23.85 19.1 23.75 M18.3 24.2 L18.25 24.2 18.3 24.2 M17.85 24.4 Q17.65 24.45 17.4 24.6 L17.2 24.7 17.85 24.4 M15.0 25.45 L14.2 25.55 14.9 25.45 14.9 25.5 14.95 25.45 15.0 25.45 M13.25 25.2 L13.1 25.1 12.95 24.9 13.25 25.2"/><path fill="#8a521b" stroke="none" d="M19.25 23.65 L19.15 23.7 19.2 23.75 19.25 23.65"/><path fill="#6b3c0d" stroke="none" d="M15.05 25.5 L15.0 25.45 14.95 25.45 15.05 25.5"/><path fill="#59421e" stroke="none" d="M26.7 14.0 Q26.1 13.45 24.65 13.75 L23.65 14.05 22.5 14.55 22.85 14.65 23.05 14.75 23.75 15.25 Q24.75 16.15 24.9 17.55 L24.95 17.6 24.95 18.45 25.5 18.15 25.6 17.95 25.75 17.85 26.0 17.5 26.45 16.7 26.5 16.65 26.55 16.5 Q27.05 15.65 27.05 15.0 L27.05 14.7 27.0 14.6 27.0 14.5 26.85 14.2 26.7 14.0 M27.05 14.7 L26.95 14.75 24.75 14.85 24.35 15.0 23.9 15.2 23.75 15.25 23.9 15.2 24.35 15.0 24.75 14.85 26.95 14.75 27.05 14.7"/><path fill="#bf8c41" stroke="none" d="M26.65 22.85 L26.9 22.55 27.95 21.25 28.05 21.2 28.2 21.0 28.3 20.85 29.05 19.7 29.15 19.5 29.7 18.0 29.6 17.85 29.65 17.8 29.6 17.7 29.6 17.6 29.55 17.45 29.45 17.1 29.4 17.0 29.35 17.0 29.35 16.95 29.2 16.5 Q28.65 15.45 27.55 14.6 L27.3 14.4 27.2 14.35 27.15 14.3 26.95 14.15 26.9 14.15 26.95 14.2 27.05 14.4 27.15 14.45 27.2 14.7 27.25 14.9 Q27.35 15.65 26.8 16.7 L26.7 16.9 26.7 16.95 26.0 18.1 25.85 18.2 25.75 18.4 25.6 18.55 24.7 19.65 24.55 19.85 26.05 22.0 26.1 22.0 26.65 22.85"/><path fill="#594943" stroke="none" d="M26.95 14.15 L26.9 14.1 26.85 14.1 26.9 14.15 26.95 14.15"/><path fill="#ebb02f" stroke="none" d="M29.4 17.0 L29.35 16.95 29.35 17.0 29.4 17.0"/><path fill="#331c06" stroke="none" d="M26.0 17.5 L26.45 16.75 26.45 16.7 26.0 17.5"/><path fill="#9e653f" stroke="none" d="M26.45 16.75 L26.5 16.65 26.45 16.7 26.45 16.75"/><path fill="#d4a32a" stroke="none" d="M26.05 22.0 L26.0 22.05 26.1 22.0 26.05 22.0"/><path fill="#bf8f26" stroke="none" d="M14.6 27.6 L14.7 27.7 14.75 27.65 14.6 27.6 M20.2 27.6 L20.3 27.5 20.2 27.55 20.2 27.6"/><path fill="none" stroke="#000000" stroke-width="0.5" stroke-opacity="0.301960784314" d="M12.8 24.55 L12.85 24.65 12.85 24.7 12.9 24.7 12.9 24.9 12.95 24.9 13.05 25.45 13.1 25.4 13.1 25.5 13.15 25.55 13.15 25.7 13.5 26.3 14.45 27.5 M14.6 27.6 L14.7 27.7 15.2 28.15 15.55 28.35 15.55 28.4 Q15.7 28.45 15.85 28.6 16.4 28.8 17.45 28.6 L19.6 27.85 20.05 27.7 20.2 27.6 20.3 27.5 20.75 27.35 21.55 26.9 21.9 26.65 22.05 26.5 23.1 25.9 24.1 25.1 24.25 25.0 26.55 22.95 26.65 22.85 26.9 22.55 27.95 21.25 28.05 21.2 28.2 21.0 28.3 20.85 29.05 19.7 29.15 19.5 29.7 18.0 29.6 17.85 29.65 17.8 29.6 17.7 29.6 17.6 29.55 17.45 29.45 17.1 29.4 17.0 29.35 16.95 29.2 16.5 Q28.65 15.45 27.55 14.6 M27.15 14.3 L26.95 14.15 26.9 14.1 26.85 14.1 M26.7 14.0 Q26.1 13.45 24.65 13.75 L23.65 14.05 22.5 14.55 Q20.8 15.25 19.05 16.65 L18.4 17.15 Q16.4 18.75 14.9 20.45 L14.0 21.65 Q12.65 23.45 12.8 24.5 M25.5 18.15 L25.45 18.25 25.0 18.75 24.9 18.95 24.35 19.5 21.75 21.85 21.6 22.0 20.6 22.75 19.6 23.4 19.4 23.55 19.35 23.65 19.25 23.65 19.2 23.75 19.15 23.75 19.1 23.75 19.0 23.85 18.8 23.9 18.75 23.9 18.75 23.95 18.7 23.95 18.65 24.05 18.6 24.05 18.55 24.05 18.3 24.2 18.25 24.2 18.25 24.25 17.9 24.4 17.85 24.4 Q17.65 24.45 17.4 24.6 L17.2 24.7 19.35 22.4 19.6 22.15 20.15 21.65 20.45 21.4 20.55 21.35 21.05 20.95 Q22.55 19.75 23.95 18.95 L24.95 18.45 25.5 18.15 25.6 17.95 25.75 17.85 M26.45 16.75 L26.5 16.65 26.55 16.5 Q27.05 15.65 27.05 15.0 L27.05 14.7 27.0 14.6 27.0 14.5 26.85 14.2 26.7 14.0 M20.45 21.4 L20.35 21.5 20.15 21.65 M18.25 24.2 L18.3 24.2 M17.2 24.7 L16.2 25.1 16.05 25.15 15.05 25.5 14.95 25.45 14.9 25.5 14.9 25.45 14.2 25.55 13.6 25.45 13.55 25.45 13.45 25.35 13.25 25.2 13.1 25.1 12.95 24.9 13.25 25.2 M17.85 24.4 L17.2 24.7 M26.5 16.65 L26.45 16.7 26.0 17.5 M26.45 16.7 L26.45 16.75"/><path fill="none" stroke="#ff0000" stroke-width="0.5" d="M19.15 23.7 L19.15 23.75"/><path fill="none" stroke="#f49302" stroke-width="0.5" stroke-opacity="0.301960784314" d="M13.45 25.35 L13.5 25.35 Q13.45 24.75 13.9 23.85 L13.95 23.8 Q15.3 21.15 18.45 18.65 21.55 16.15 23.75 15.25 L23.9 15.2 24.35 15.0 24.75 14.85 26.95 14.75 27.05 14.7"/><path fill="#deba6f" stroke="none" d="M21.5 22.1 Q20.55 22.6 19.75 23.25 L17.0 25.8 16.1 26.85 16.8 27.0 16.85 27.0 Q18.1 25.3 19.95 23.7 L21.75 22.3 21.5 22.1"/><path fill="#bf8c41" stroke="none" d="M21.75 22.3 L19.95 23.7 Q18.1 25.3 16.85 27.0 L16.8 27.05 Q16.8 28.3 17.65 29.55 L18.2 30.15 Q20.1 27.85 23.75 25.55 L23.45 24.75 23.45 24.7 Q23.0 23.6 21.75 22.3"/><path fill="#7a5b29" stroke="none" d="M16.8 27.0 L16.1 26.85 16.3 27.75 16.45 28.2 Q17.05 29.55 18.2 30.15 L17.65 29.55 Q16.8 28.3 16.8 27.05 L16.8 27.0"/><path fill="#593511" stroke="none" d="M16.85 27.0 L16.8 27.0 16.8 27.05 16.85 27.0"/><path fill="none" stroke="#000000" stroke-width="0.5" stroke-opacity="0.301960784314" d="M16.1 26.85 L17.0 25.8 19.75 23.25 Q20.55 22.6 21.5 22.1 M16.1 26.85 L16.3 27.75 16.45 28.2 Q17.05 29.55 18.2 30.15 20.1 27.85 23.75 25.55"/><path fill="#2e1d0e" stroke="none" d="M19.65 26.5 L19.3 26.25 19.05 26.2 19.0 26.3 18.8 26.6 18.85 26.8 18.95 27.05 19.25 27.4 19.4 27.4 19.65 27.35 19.75 27.0 19.7 26.55 19.65 26.5 19.5 26.6 19.65 26.5 M19.4 27.15 L19.4 27.4 19.4 27.15 M18.85 26.8 L19.05 26.75 18.85 26.8"/><path fill="none" stroke="#000000" stroke-width="0.5" stroke-opacity="0.301960784314" d="M18.85 26.8 L18.8 26.6 19.0 26.3 19.05 26.2 19.3 26.25 19.65 26.5 19.5 26.6 M19.05 26.2 L18.9 25.9 M19.65 26.5 L19.8 26.35 M19.65 26.5 L19.7 26.55 19.75 27.0 19.65 27.35 19.4 27.4 19.4 27.15 M18.85 26.8 L18.4 26.8 M18.85 26.8 L18.95 27.05 19.25 27.4 19.4 27.4 19.45 27.75 M19.05 26.75 L18.85 26.8"/><path fill="#2e1d0e" stroke="none" d="M28.6 17.55 L28.25 17.3 28.0 17.25 27.95 17.35 27.75 17.65 27.8 17.85 27.9 18.1 28.2 18.45 28.35 18.45 28.6 18.4 28.7 18.05 28.65 17.6 28.6 17.55 28.45 17.65 28.6 17.55 M28.35 18.2 L28.35 18.45 28.35 18.2 M27.8 17.85 L28.0 17.8 27.8 17.85"/><path fill="none" stroke="#000000" stroke-width="0.5" stroke-opacity="0.301960784314" d="M27.8 17.85 L27.75 17.65 27.95 17.35 28.0 17.25 28.25 17.3 28.6 17.55 28.45 17.65 M28.0 17.25 L27.85 16.95 M28.6 17.55 L28.75 17.4 M28.6 17.55 L28.65 17.6 28.7 18.05 28.6 18.4 28.35 18.45 28.35 18.2 M27.8 17.85 L27.35 17.85 M27.8 17.85 L27.9 18.1 28.2 18.45 28.35 18.45 28.4 18.8 M28.0 17.8 L27.8 17.85"/><path fill="#000000" fill-opacity="0.301960784314" d="M27.35 22.0 L27.6 21.85 25.55 19.25 25.25 19.05 25.1 19.0 27.35 22.0"/><path fill="#8a6923" stroke="none" d="M25.2 18.85 L24.75 18.65 24.95 18.85 25.1 19.0 25.25 19.05 25.55 19.25 27.6 21.85 27.35 22.0 27.85 22.0 27.05 20.75 25.85 19.2 25.2 18.85"/><path fill="#382510" fill-opacity="0.333333333333" d="M25.1 19.0 L24.95 18.85 Q25.3 21.55 26.75 23.0 L27.35 22.0 25.1 19.0"/><path fill="#eab131" stroke="none" d="M24.75 18.65 L25.2 18.85 Q26.2 18.2 26.6 17.6 L25.8 17.55 24.75 18.65"/><path fill="#e9e938" stroke="none" d="M25.2 18.85 L25.85 19.2 Q26.15 18.4 26.75 17.7 L26.6 17.6 Q26.2 18.2 25.2 18.85"/><path fill="#f49302" stroke="none" d="M25.85 19.2 L27.05 20.75 27.9 20.55 27.65 18.7 26.75 17.7 Q26.15 18.4 25.85 19.2"/><path fill="#db8402" stroke="none" d="M27.05 20.75 L27.85 22.0 27.9 21.9 28.85 20.65 27.65 18.7 27.9 20.55 27.05 20.75"/><path fill="none" stroke="#000000" stroke-width="0.5" stroke-opacity="0.301960784314" d="M27.85 22.0 L27.35 22.0 27.6 21.85 25.55 19.25 25.25 19.05 25.1 19.0 24.95 18.85 24.75 18.65 25.8 17.55 26.6 17.6 M27.65 18.7 L26.75 17.7 26.6 17.6 M27.85 22.0 L27.9 21.9 28.85 20.65 27.65 18.7"/><path fill="#2e1d0e" stroke="none" d="M27.3 18.9 L26.9 18.45 26.65 18.4 26.45 18.45 Q26.2 18.6 26.1 18.9 L26.1 19.1 26.2 19.55 26.55 19.95 26.75 20.0 27.05 20.0 27.35 19.55 27.3 18.9 27.1 18.95 27.3 18.9 M26.75 19.65 L26.75 20.0 26.75 19.65 M26.1 19.1 L26.4 19.15 26.1 19.1"/><path fill="none" stroke="#000000" stroke-width="0.5" stroke-opacity="0.301960784314" d="M26.1 19.1 L26.1 18.9 Q26.2 18.6 26.45 18.45 L26.65 18.4 26.9 18.45 27.3 18.9 27.1 18.95 M26.65 18.4 L26.45 18.0 M27.3 18.9 L27.55 18.65 M27.3 18.9 L27.35 19.55 27.05 20.0 26.75 20.0 26.75 19.65 M26.1 19.1 L25.5 19.05 M26.1 19.1 L26.2 19.55 26.55 19.95 26.75 20.0 26.7 20.5 M26.4 19.15 L26.1 19.1"/><path fill="#db8700" stroke="none" d="M19.55 20.85 L19.5 20.85 19.4 21.0 19.4 21.15 19.4 21.2 19.5 21.3 22.6 23.4 23.5 26.85 23.65 27.0 23.8 27.05 24.0 26.9 24.0 26.75 23.1 23.15 23.0 23.05 20.15 21.05 20.1 21.15 20.15 21.05 20.1 21.05 20.1 21.15 19.55 20.85"/><path fill="#ffe914" stroke="none" d="M19.55 20.85 L20.1 21.15 20.1 21.05 20.15 21.05 Q22.65 19.25 24.35 17.3 L24.4 17.15 24.35 16.95 24.15 16.9 23.95 17.0 Q22.15 19.05 19.55 20.85"/><path fill="none" stroke="#000000" stroke-width="0.5" stroke-opacity="0.301960784314" d="M24.0 26.75 L24.0 26.9 23.8 27.05 23.65 27.0 23.5 26.85 22.6 23.4 19.5 21.3 19.4 21.2 19.4 21.15 19.4 21.0 19.5 20.85 19.55 20.85 M20.1 21.15 L20.15 21.05 Q22.65 19.25 24.35 17.3 L24.4 17.15 24.35 16.95 24.15 16.9 23.95 17.0 Q22.15 19.05 19.55 20.85 M20.1 21.15 L20.1 21.05"/><path fill="none" stroke="#000000" stroke-width="0.5" stroke-opacity="0.152941176471" d="M20.15 21.05 L23.0 23.05 23.1 23.15 24.0 26.75 M20.1 21.05 L20.15 21.05"/><path fill="#ffcc00" stroke="none" d="M23.15 23.3 L24.05 26.9 Q26.6 25.45 28.35 23.4 L25.5 21.3 23.15 23.3 25.5 21.3 24.4 17.25 Q22.6 19.35 19.95 21.15 L23.15 23.3"/><path fill="none" stroke="#000000" stroke-width="0.5" stroke-opacity="0.152941176471" d="M23.15 23.3 L25.5 21.3"/><path fill="none" stroke="#000000" stroke-width="0.5" stroke-opacity="0.301960784314" d="M25.5 21.3 L28.35 23.4 Q26.6 25.45 24.05 26.9 M24.4 17.25 L25.5 21.3"/><path fill="#2e1d0e" stroke="none" d="M28.4 20.5 L28.0 20.05 27.65 20.0 27.5 20.05 27.15 20.5 27.1 20.75 Q27.05 21.0 27.25 21.25 L27.65 21.7 27.8 21.7 28.15 21.7 28.5 21.2 28.45 20.5 28.4 20.5 Q28.3 20.5 28.25 20.6 28.3 20.5 28.4 20.5 M27.8 21.35 L27.8 21.7 27.8 21.35 M27.1 20.75 L27.45 20.8 27.1 20.75"/><path fill="none" stroke="#000000" stroke-width="0.5" stroke-opacity="0.301960784314" d="M27.1 20.75 L27.15 20.5 27.5 20.05 27.65 20.0 28.0 20.05 28.4 20.5 Q28.3 20.5 28.25 20.6 M27.65 20.0 L27.45 19.6 M28.4 20.5 L28.7 20.3 M28.4 20.5 L28.45 20.5 28.5 21.2 28.15 21.7 27.8 21.7 27.8 21.35 M27.1 20.75 L26.45 20.75 M27.1 20.75 Q27.05 21.0 27.25 21.25 L27.65 21.7 27.8 21.7 27.75 22.25 M27.45 20.8 L27.1 20.75"/><path fill="#ffcc00" stroke="none" d="M22.95 21.05 L22.95 21.1 Q22.45 21.75 22.5 22.6 22.6 23.5 23.15 23.95 23.8 24.45 24.7 24.2 25.45 24.0 25.95 23.35 L25.95 23.4 Q26.55 22.65 26.5 21.8 L26.45 21.8 Q26.4 20.9 25.75 20.45 25.15 20.0 24.3 20.2 23.5 20.4 22.95 21.05 M23.75 21.7 L23.75 21.75 Q24.05 21.3 24.5 21.2 L25.15 21.3 25.45 21.85 25.45 21.9 25.15 22.7 25.15 22.75 Q24.9 23.15 24.45 23.25 L23.8 23.15 Q23.5 22.9 23.5 22.5 23.5 22.05 23.75 21.7"/><path fill="none" stroke="#000000" stroke-width="0.5" stroke-opacity="0.301960784314" d="M23.75 21.7 Q23.5 22.05 23.5 22.5 23.5 22.9 23.8 23.15 L24.45 23.25 Q24.9 23.15 25.15 22.75 L25.15 22.7 25.45 21.9 25.45 21.85 25.15 21.3 24.5 21.2 Q24.05 21.3 23.75 21.75 L23.75 21.7 M22.95 21.05 Q23.5 20.4 24.3 20.2 25.15 20.0 25.75 20.45 26.4 20.9 26.45 21.8 L26.5 21.8 Q26.55 22.65 25.95 23.4 L25.95 23.35 Q25.45 24.0 24.7 24.2 23.8 24.45 23.15 23.95 22.6 23.5 22.5 22.6 22.45 21.75 22.95 21.1 L22.95 21.05"/><path fill="#459425" stroke="none" d="M23.8 23.5 L24.9 23.7 25.9 23.0 Q26.35 22.45 26.3 21.85 26.25 21.2 25.8 20.85 L24.75 20.7 Q24.1 20.8 23.7 21.35 23.25 21.9 23.35 22.55 23.4 23.2 23.8 23.5 M25.85 22.6 L25.1 23.35 Q24.35 23.75 23.65 22.75 L24.3 23.1 Q25.15 23.35 25.85 22.6"/><path fill="#61d936" stroke="none" d="M25.85 22.6 Q25.15 23.35 24.3 23.1 L23.65 22.75 Q24.35 23.75 25.1 23.35 L25.85 22.6"/><path fill="none" stroke="#000000" stroke-width="0.5" stroke-opacity="0.301960784314" d="M23.8 23.5 L24.9 23.7 25.9 23.0 Q26.35 22.45 26.3 21.85 26.25 21.2 25.8 20.85 L24.75 20.7 Q24.1 20.8 23.7 21.35 23.25 21.9 23.35 22.55 23.4 23.2 23.8 23.5"/><path fill="#61d936" stroke="none" d="M25.2 22.35 L25.8 21.85 25.85 21.2 25.4 20.75 Q25.0 20.6 24.6 20.75 L24.05 21.25 Q23.8 21.6 23.95 21.9 L24.45 22.35 25.2 22.35"/><path fill="#ffffff" stroke="none" d="M25.2 21.5 L25.4 21.3 25.4 21.05 25.25 20.95 24.95 20.9 24.7 21.1 24.7 21.35 24.9 21.45 25.2 21.5"/><path fill="#ffffff" stroke="none" d="M24.85 21.85 L24.95 21.75 24.95 21.6 24.85 21.55 24.75 21.55 24.6 21.6 24.55 21.75 24.65 21.85 24.85 21.85"/><path fill="#db8700" stroke="none" d="M26.25 24.05 L26.45 24.3 26.35 24.55 26.15 24.65 25.85 24.55 25.75 24.3 Q25.7 24.15 25.8 24.1 L26.05 24.0 26.25 24.05 M26.25 24.0 L26.15 23.95 25.75 24.05 25.55 24.4 25.6 24.85 26.0 25.0 26.35 24.9 26.55 24.55 26.45 24.15 26.25 24.0"/><path fill="#ffcc00" stroke="none" d="M26.25 24.05 L26.05 24.0 25.8 24.1 Q25.7 24.15 25.75 24.3 L25.85 24.55 26.15 24.65 26.35 24.55 26.45 24.3 26.25 24.05 M26.15 24.35 L26.1 24.45 26.05 24.45 26.0 24.4 25.95 24.35 26.0 24.35 26.1 24.35 26.15 24.35 M26.1 24.2 L26.0 24.15 26.05 24.05 26.15 24.05 26.2 24.1 26.3 24.1 26.25 24.25 26.15 24.25 26.1 24.2"/><path fill="#ffffff" stroke="none" d="M26.1 24.2 L26.15 24.25 26.25 24.25 26.3 24.1 26.2 24.1 26.15 24.05 26.05 24.05 26.0 24.15 26.1 24.2 M26.15 24.35 L26.1 24.35 26.0 24.35 25.95 24.35 26.0 24.4 26.05 24.45 26.1 24.45 26.15 24.35"/><path fill="none" stroke="#000000" stroke-width="0.5" stroke-opacity="0.301960784314" d="M26.25 24.0 L26.15 23.95 25.75 24.05 25.55 24.4 25.6 24.85 26.0 25.0 26.35 24.9 26.55 24.55 26.45 24.15 26.25 24.0"/><path fill="#db8700" stroke="none" d="M23.25 19.75 L23.05 19.6 22.95 19.55 22.55 19.65 22.35 20.0 22.4 20.45 22.8 20.6 23.15 20.5 23.35 20.15 23.25 19.75 M23.05 19.65 L23.25 19.9 23.15 20.15 22.95 20.25 22.65 20.15 22.55 19.9 Q22.5 19.75 22.6 19.7 L22.85 19.6 23.05 19.65"/><path fill="#ffcc00" stroke="none" d="M23.05 19.65 L22.85 19.6 22.6 19.7 Q22.5 19.75 22.55 19.9 L22.65 20.15 22.95 20.25 23.15 20.15 23.25 19.9 23.05 19.65 M22.95 19.95 L22.9 20.05 22.85 20.05 22.8 20.0 22.75 19.95 22.8 19.95 22.9 19.95 22.95 19.95 M22.9 19.8 L22.8 19.75 22.85 19.65 22.95 19.65 23.0 19.7 23.1 19.7 23.05 19.85 22.95 19.85 22.9 19.8"/><path fill="#ffffff" stroke="none" d="M22.9 19.8 L22.95 19.85 23.05 19.85 23.1 19.7 23.0 19.7 22.95 19.65 22.85 19.65 22.8 19.75 22.9 19.8 M22.95 19.95 L22.9 19.95 22.8 19.95 22.75 19.95 22.8 20.0 22.85 20.05 22.9 20.05 22.95 19.95"/><path fill="none" stroke="#000000" stroke-width="0.5" stroke-opacity="0.301960784314" d="M23.25 19.75 L23.05 19.6 22.95 19.55 22.55 19.65 22.35 20.0 22.4 20.45 22.8 20.6 23.15 20.5 23.35 20.15 23.25 19.75"/><path fill="#ffffff" stroke="none" d="M23.2 21.3 L24.55 20.65 24.7 20.4 24.55 20.25 24.15 20.25 Q22.95 20.45 23.2 21.3"/><path fill="#ffffff" stroke="none" d="M22.7 22.15 L22.75 22.2 Q23.5 22.0 22.95 21.5 22.55 21.7 22.7 22.15"/><path fill="#ffffff" stroke="none" d="M24.45 23.95 Q24.35 23.6 23.95 23.6 23.35 24.15 24.45 23.95"/><path fill="#8a6923" stroke="none" d="M19.5 23.75 L19.65 23.8 19.9 24.1 21.5 27.0 21.25 27.1 21.7 27.2 21.15 25.85 20.3 24.15 19.6 23.65 19.2 23.35 19.45 23.6 19.5 23.75"/><path fill="#eab131" stroke="none" d="M19.2 23.35 L19.6 23.65 21.2 22.7 20.45 22.5 19.2 23.35"/><path fill="#e9e938" stroke="none" d="M19.6 23.65 L20.3 24.15 Q20.65 23.35 21.35 22.75 L21.2 22.7 19.6 23.65"/><path fill="#382510" fill-opacity="0.333333333333" d="M19.5 23.75 L19.45 23.6 Q19.25 26.25 20.5 27.95 L21.25 27.1 19.5 23.75"/><path fill="#000000" fill-opacity="0.301960784314" d="M21.25 27.1 L21.5 27.0 19.9 24.1 19.65 23.8 19.5 23.75 21.25 27.1"/><path fill="#f49302" stroke="none" d="M20.3 24.15 L21.15 25.85 22.05 25.75 22.1 23.9 21.35 22.75 Q20.65 23.35 20.3 24.15"/><path fill="#db8402" stroke="none" d="M21.15 25.85 L21.7 27.2 21.75 27.1 22.95 26.0 22.1 23.9 22.05 25.75 21.15 25.85"/><path fill="none" stroke="#000000" stroke-width="0.5" stroke-opacity="0.301960784314" d="M21.25 27.1 L21.5 27.0 19.9 24.1 19.65 23.8 19.5 23.75 19.45 23.6 19.2 23.35 20.45 22.5 21.2 22.7 21.35 22.75 22.1 23.9 22.95 26.0 21.75 27.1 21.7 27.2 21.25 27.1"/><path fill="#2e1d0e" stroke="none" d="M21.55 23.6 L21.15 23.3 20.9 23.25 20.7 23.3 20.35 23.75 20.3 23.95 20.45 24.35 20.75 24.75 20.9 24.8 21.3 24.7 21.6 24.25 21.6 23.65 21.55 23.6 21.35 23.75 21.55 23.6 M21.0 24.45 L20.9 24.8 21.0 24.45 M20.3 23.95 L20.6 23.95 20.3 23.95"/><path fill="none" stroke="#000000" stroke-width="0.5" stroke-opacity="0.301960784314" d="M20.3 23.95 L19.65 23.95 M20.3 23.95 L20.35 23.75 20.7 23.3 20.9 23.25 21.15 23.3 21.55 23.6 21.35 23.75 M20.3 23.95 L20.45 24.35 20.75 24.75 20.9 24.8 20.85 25.2 M20.9 23.25 L20.7 22.85 M21.55 23.6 L21.6 23.65 21.6 24.25 21.3 24.7 20.9 24.8 21.0 24.45 M21.55 23.6 L21.85 23.4 M20.6 23.95 L20.3 23.95"/><path fill="#a5b5c7" stroke="none" d="M27.25 21.0 L27.65 21.05 27.2 20.8 27.25 21.0 M27.45 20.0 L28.25 19.85 27.8 19.7 27.7 19.7 27.65 19.8 27.45 20.0"/><path fill="#d9dfe8" stroke="none" d="M27.7 21.45 L27.6 21.15 28.25 21.1 27.5 20.75 28.0 20.15 29.05 20.1 29.55 20.6 29.25 20.65 30.2 21.8 30.25 21.55 29.6 20.25 29.3 19.95 28.5 19.45 27.8 19.7 28.25 19.85 27.45 20.0 Q27.15 20.45 27.2 20.8 L27.65 21.05 27.25 21.0 27.45 21.4 27.7 21.45"/><path fill="#ffffff" stroke="none" d="M30.2 21.8 L29.25 20.65 29.55 20.6 29.05 20.1 28.0 20.15 27.5 20.75 28.25 21.1 27.6 21.15 27.7 21.45 28.7 21.7 28.7 21.65 28.8 21.75 29.5 22.15 30.2 22.05 30.2 21.8"/><path fill="none" stroke="#000000" stroke-width="0.5" stroke-opacity="0.360784313725" d="M27.7 21.45 L27.45 21.4 M27.8 19.7 L28.5 19.45 29.3 19.95 29.6 20.25 30.25 21.55 30.2 21.8 30.2 22.05 29.5 22.15 28.8 21.75 28.7 21.65 28.7 21.7 27.7 21.45 M27.7 19.7 L27.8 19.7"/><path fill="#2e1d0e" stroke="none" d="M22.5 25.35 L22.05 24.95 21.7 24.9 21.55 25.0 Q21.2 25.15 21.15 25.5 L21.1 25.75 21.2 26.2 Q21.3 26.55 21.55 26.7 L21.8 26.7 22.2 26.6 22.6 26.1 22.55 25.4 22.5 25.35 22.25 25.5 22.5 25.35 M21.85 26.35 L21.8 26.7 21.85 26.35 M21.1 25.75 L21.4 25.75 21.1 25.75"/><path fill="none" stroke="#000000" stroke-width="0.5" stroke-opacity="0.301960784314" d="M21.1 25.75 L20.35 25.75 M21.1 25.75 L21.15 25.5 Q21.2 25.15 21.55 25.0 L21.7 24.9 22.05 24.95 22.5 25.35 22.25 25.5 M21.1 25.75 L21.2 26.2 Q21.3 26.55 21.55 26.7 L21.8 26.7 21.7 27.25 M21.7 24.9 L21.5 24.5 M22.5 25.35 L22.55 25.4 22.6 26.1 22.2 26.6 21.8 26.7 21.85 26.35 M22.5 25.35 L22.85 25.1 M21.4 25.75 L21.1 25.75"/><path fill="#d9dfe8" stroke="none" d="M22.05 24.85 L22.35 25.2 21.65 25.1 Q21.25 25.35 21.15 25.7 L21.45 26.05 21.05 25.85 21.15 26.35 21.35 26.45 21.35 26.15 21.9 26.4 21.45 25.75 22.05 25.4 22.95 25.75 23.25 26.4 23.0 26.25 23.4 27.7 23.5 27.5 23.4 26.1 23.25 25.65 22.7 24.95 22.05 24.85"/><path fill="#ffffff" stroke="none" d="M21.35 26.45 L22.15 27.1 22.15 27.05 22.1 27.15 22.6 27.8 23.3 27.95 23.4 27.7 23.0 26.25 23.25 26.4 22.95 25.75 22.05 25.4 21.45 25.75 21.9 26.4 21.35 26.15 21.35 26.45"/><path fill="#a5b5c7" stroke="none" d="M21.95 24.9 L21.9 24.95 21.65 25.1 22.35 25.2 22.05 24.85 21.95 24.9 M21.15 25.7 L21.05 25.85 21.45 26.05 21.15 25.7"/><path fill="none" stroke="#000000" stroke-width="0.5" stroke-opacity="0.360784313725" d="M21.95 24.9 L22.05 24.85 M21.15 26.35 L21.35 26.45 22.15 27.1 22.15 27.05 22.1 27.15 22.6 27.8 23.3 27.95 23.4 27.7 23.5 27.5 23.4 26.1 23.25 25.65 22.7 24.95 22.05 24.85"/><path fill="#d9dfe8" stroke="none" d="M27.95 17.9 L27.75 18.5 27.3 18.65 26.7 18.5 25.65 17.3 26.15 18.15 26.3 18.55 26.25 18.7 26.25 18.85 26.85 19.4 27.0 18.9 26.95 19.45 Q27.45 19.45 27.8 18.8 L27.95 17.9 M26.1 16.6 L25.65 16.7 26.05 17.35 26.8 17.9 26.55 17.7 26.25 17.25 26.05 16.65 26.1 16.6"/><path fill="#f3f5f8" stroke="none" d="M27.95 17.9 L27.1 17.05 27.0 17.0 26.95 16.95 26.35 16.45 26.2 16.55 25.55 16.25 25.25 16.65 25.65 17.3 26.7 18.5 27.3 18.65 27.75 18.5 27.95 17.9 M26.1 16.6 L26.2 16.55 26.1 16.6 26.05 16.65 26.25 17.25 26.55 17.7 26.8 17.9 26.05 17.35 25.65 16.7 26.1 16.6"/><path fill="#a5b5c7" stroke="none" d="M27.8 18.8 Q27.45 19.45 26.95 19.45 L27.0 18.9 26.85 19.4 26.25 18.85 26.35 19.1 26.35 19.2 26.45 19.3 26.6 19.45 26.45 19.3 26.35 19.2 26.35 19.1 26.25 19.2 26.5 19.75 27.1 19.55 27.15 19.55 27.35 19.5 27.8 18.8"/><path fill="none" stroke="#000000" stroke-width="0.5" stroke-opacity="0.360784313725" d="M26.2 16.55 L26.35 16.45 26.95 16.95 27.0 17.0 27.1 17.05 27.95 17.9 27.8 18.8 27.35 19.5 27.15 19.55 M25.65 17.3 L25.25 16.65 25.55 16.25 26.2 16.55 26.1 16.6 M26.55 17.7 L26.25 17.25 26.05 16.65 26.1 16.6 M26.25 18.85 L26.25 18.7 26.3 18.55 26.15 18.15 25.65 17.3 M26.35 19.1 L26.25 18.85 M26.35 19.1 L26.35 19.2 26.45 19.3 26.6 19.45 M27.1 19.55 L26.5 19.75 26.25 19.2 26.35 19.1"/><path fill="#a5b5c7" stroke="none" d="M21.05 23.35 L21.1 23.8 20.65 23.55 20.95 23.9 Q21.2 24.4 20.7 24.4 L19.65 24.35 20.0 24.65 20.7 24.75 21.4 24.35 21.5 23.85 21.15 23.4 21.05 23.35"/><path fill="#d9dfe8" stroke="none" d="M20.0 24.65 L19.65 24.35 20.7 24.4 Q21.2 24.4 20.95 23.9 L20.65 23.55 21.1 23.8 21.05 23.35 20.7 23.15 20.65 23.4 20.1 23.2 20.6 23.8 20.0 24.15 19.05 23.85 18.75 23.2 19.05 23.3 18.65 21.9 18.5 22.1 18.55 23.45 18.7 23.9 19.3 24.6 20.0 24.65"/><path fill="#ffffff" stroke="none" d="M18.65 21.9 L19.05 23.3 18.75 23.2 19.05 23.85 20.0 24.15 20.6 23.8 20.1 23.2 20.65 23.4 20.7 23.15 19.9 22.5 19.9 22.55 19.85 22.45 19.35 21.85 Q19.1 21.6 18.75 21.65 L18.65 21.9"/><path fill="none" stroke="#000000" stroke-width="0.5" stroke-opacity="0.360784313725" d="M21.05 23.35 L21.15 23.4 21.5 23.85 21.4 24.35 20.7 24.75 20.0 24.65 19.3 24.6 18.7 23.9 18.55 23.45 18.5 22.1 18.65 21.9 M20.7 23.15 L21.05 23.35 M20.7 23.15 L19.9 22.5 19.9 22.55 19.85 22.45 19.35 21.85 Q19.1 21.6 18.75 21.65 L18.65 21.9"/><path fill="#2e1d0e" stroke="none" d="M28.5 15.7 L28.2 15.6 28.1 15.7 28.1 15.85 28.2 16.2 28.35 16.3 28.55 16.5 28.85 16.55 28.9 16.45 29.0 16.3 28.8 15.95 28.5 15.65 28.5 15.7 28.5 15.8 28.5 15.7 M28.75 16.3 L28.9 16.45 28.75 16.3 M28.35 16.3 L28.4 16.2 28.35 16.3"/><path fill="none" stroke="#000000" stroke-width="0.5" stroke-opacity="0.301960784314" d="M28.35 16.3 L28.2 16.2 28.1 15.85 28.1 15.7 28.2 15.6 28.5 15.7 28.5 15.8 M28.1 15.7 L27.85 15.65 M28.5 15.7 L28.45 15.45 M28.5 15.7 L28.5 15.65 28.8 15.95 29.0 16.3 28.9 16.45 28.75 16.3 M28.35 16.3 L28.15 16.55 M28.9 16.45 L29.15 16.75 M28.35 16.3 L28.55 16.5 28.85 16.55 28.9 16.45 M28.4 16.2 L28.35 16.3"/></g><g id="c10"><g><use transform="matrix(1.0,0.0,0.0,1.0,0.0,0.0)" xlink:href="#c2"/></g><g><use transform="matrix(0.238861083984,-0.0867004394531,0.10026550293,0.233917236328,34.25,31.15)" xlink:href="#c4"/></g><g><use transform="matrix(0.238861083984,-0.0867004394531,0.10026550293,0.233917236328,4.25,10.3)" xlink:href="#c4"/></g><g><use transform="matrix(0.141098022461,-0.0378112792969,0.111373901367,0.225646972656,20.25,20.65)" filter="url(#filter7)" xlink:href="#c6"/></g><g><use transform="matrix(-0.155029296875,0.0513153076172,0.0841827392578,0.147033691406,22.6,2.3)" filter="url(#filter8)" xlink:href="#c8"/></g><g><use transform="matrix(1.0,0.0,0.0,1.0,0.0,0.0)" xlink:href="#c9"/></g><g><use transform="matrix(0.162948608398,-0.0436706542969,0.128631591797,0.260604858398,20.35,20.95)" filter="url(#filter10)" xlink:href="#c6"/></g></g><filter id="filter7"><feColorMatrix in="SourceGraphic" type="matrix" values="0.0 0.0 0.0 0.0 0.796875 0.0 0.0 0.0 0.0 0.59765625 0.0 0.0 0.0 0.0 0.19921875 0.0 0.0 0.0 1.0 0.0" result="cxform"/><feComposite operator="in" in2="SourceGraphic" result="color-xform"/></filter><filter id="filter8"><feColorMatrix in="SourceGraphic" type="matrix" values="0.0 0.0 0.0 0.0 0.99609375 0.0 0.0 0.0 0.0 0.99609375 0.0 0.0 0.0 0.0 0.99609375 0.0 0.0 0.0 1.0 0.0" result="cxform"/><feComposite operator="in" in2="SourceGraphic" result="color-xform"/></filter><filter id="filter10"><feColorMatrix in="SourceGraphic" type="matrix" values="1.0 0.0 0.0 0.0 0.0 0.0 1.0 0.0 0.0 0.0 0.0 0.0 1.0 0.0 0.0 0.0 0.0 0.0 0.23046875 0.0" result="cxform"/><feComposite operator="in" in2="SourceGraphic" result="color-xform"/></filter></defs><g><g><use transform="matrix(1.0,0.0,0.0,1.0,0.0,0.0)" xlink:href="#c1"/></g><g><use transform="matrix(1.15496826172,0.0,0.0,1.15496826172,5.85,3.95)" xlink:href="#c10"/></g></g></svg>