<?xml version='1.0' encoding='UTF-8'?>
<svg xmlns:xlink="http://www.w3.org/1999/xlink" xmlns="http://www.w3.org/2000/svg" version="1.1" width="60px" height="60px" viewBox="0.0 0.0 60.0 60.0"><defs><g id="c1"><path fill="#000000" fill-opacity="0.00392156862745" d="M0.0 0.0 L60.0 0.0 60.0 60.0 0.0 60.0 0.0 0.0"/></g><g id="c2"><path fill="none" stroke="#000000" stroke-width="1.0" stroke-opacity="0.301960784314" d="M22.3 0.35 Q26.6 -1.0 28.5 3.05 L41.4 31.7 Q43.1 35.4 39.9 36.85 L38.15 37.65 19.65 43.65 Q17.05 44.5 15.35 43.3 14.2 42.55 13.5 40.9 L0.55 12.25 Q-0.6 9.75 0.6 8.25 1.15 7.55 2.2 7.05 2.85 6.6 3.8 6.3 L22.3 0.35"/><path fill="#300525" stroke="none" d="M25.55 0.9 Q26.9 1.6 27.8 3.55 L40.7 32.15 Q42.6 36.3 38.3 37.65 L23.3 42.5 13.15 21.4 4.6 20.9 0.7 12.25 Q-0.45 9.75 0.75 8.25 L29.8 9.75 25.55 0.9 M20.1 43.55 L19.8 43.65 Q17.15 44.45 15.5 43.3 L20.1 43.55"/><path fill="#630a4c" stroke="none" d="M23.3 42.5 L20.1 43.55 15.5 43.3 Q14.35 42.55 13.65 40.9 L4.6 20.9 13.15 21.4 23.3 42.5 M0.75 8.25 Q1.45 7.3 3.1 6.75 L21.65 0.8 25.55 0.9 29.8 9.75 0.75 8.25"/><path fill="none" stroke="#000000" stroke-width="0.5" stroke-opacity="0.301960784314" d="M25.55 0.9 Q26.9 1.6 27.8 3.55 L40.7 32.15 Q42.6 36.3 38.3 37.65 L23.3 42.5 20.1 43.55 19.8 43.65 Q17.15 44.45 15.5 43.3 14.35 42.55 13.65 40.9 L4.6 20.9 0.7 12.25 Q-0.45 9.75 0.75 8.25 1.45 7.3 3.1 6.75 L21.65 0.8 25.55 0.9"/><path fill="#9d147b" stroke="none" d="M14.2 40.5 L1.35 11.8 Q-0.5 7.75 3.8 6.35 L22.3 0.4 Q26.55 -1.0 28.45 3.1 L41.35 31.7 Q43.25 35.85 38.9 37.25 L20.4 43.2 Q16.1 44.55 14.2 40.5"/><path fill="none" stroke="#000000" stroke-width="0.5" stroke-opacity="0.301960784314" d="M14.2 40.5 L1.35 11.8 Q-0.5 7.75 3.8 6.35 L22.3 0.4 Q26.55 -1.0 28.45 3.1 L41.35 31.7 Q43.25 35.85 38.9 37.25 L20.4 43.2 Q16.1 44.55 14.2 40.5"/><path fill="#fcf2cf" stroke="none" d="M9.15 13.6 Q9.8 12.8 9.55 11.6 L9.1 10.55 22.05 6.35 Q24.9 5.45 26.25 7.85 L26.5 8.3 35.8 29.0 35.95 29.35 Q34.75 29.3 34.1 30.1 33.45 30.9 33.7 32.1 L34.0 32.9 20.65 37.2 Q18.8 37.8 17.65 37.0 16.8 36.4 16.3 35.2 L6.95 14.6 6.8 14.4 7.1 14.4 Q8.4 14.45 9.15 13.6"/><path fill="#c47fad" stroke="none" d="M8.25 23.65 L3.35 12.8 Q1.65 9.1 5.5 7.85 L22.25 2.5 Q26.05 1.25 27.75 4.95 L28.25 6.1 35.55 22.3 39.35 30.75 Q41.1 34.5 37.2 35.7 L20.45 41.1 Q16.8 42.25 15.2 39.0 L15.0 38.6 8.25 23.65 M9.15 13.6 Q8.4 14.45 7.1 14.4 L6.8 14.4 6.95 14.6 16.3 35.2 Q16.8 36.4 17.65 37.0 18.8 37.8 20.65 37.2 L34.0 32.9 33.7 32.1 Q33.45 30.9 34.1 30.1 34.75 29.3 35.95 29.35 L35.8 29.0 26.5 8.3 26.25 7.85 Q24.9 5.45 22.05 6.35 L9.1 10.55 9.55 11.6 Q9.8 12.8 9.15 13.6"/><path fill="none" stroke="#ffcc00" stroke-width="1.0" stroke-opacity="0.749019607843" d="M8.25 23.65 L3.35 12.8 Q1.65 9.1 5.5 7.85 L22.25 2.5 Q26.05 1.25 27.75 4.95 L28.25 6.1 M35.55 22.3 L39.35 30.75 Q41.1 34.5 37.2 35.7 L20.45 41.1 Q16.8 42.25 15.2 39.0 L15.0 38.6"/><path fill="none" stroke="#bf9900" stroke-width="1.0" stroke-opacity="0.749019607843" d="M28.25 6.1 L35.55 22.3 M15.0 38.6 L8.25 23.65"/><path fill="none" stroke="#f0b92b" stroke-width="0.5" d="M9.15 13.6 Q9.8 12.8 9.55 11.6 L9.1 10.55 22.05 6.35 Q24.9 5.45 26.25 7.85 L26.5 8.3 35.8 29.0 35.95 29.35 Q34.75 29.3 34.1 30.1 33.45 30.9 33.7 32.1 L34.0 32.9 20.65 37.2 Q18.8 37.8 17.65 37.0 16.8 36.4 16.3 35.2 L6.95 14.6 6.8 14.4 7.1 14.4 Q8.4 14.45 9.15 13.6"/></g><g id="c3"><path fill="#7fdbfe" stroke="none" d="M10.75 4.9 Q10.75 4.6 10.9 4.35 11.25 3.45 11.95 2.75 13.3 1.5 14.35 2.1 15.4 2.7 14.95 4.45 14.7 5.4 14.1 6.15 L13.75 6.5 Q13.1 7.15 12.35 7.35 L11.4 7.2 Q10.95 6.9 10.75 6.4 10.5 5.75 10.75 4.9 M7.5 5.9 Q7.0 5.85 6.6 5.5 6.05 5.0 5.8 4.15 L5.7 3.6 Q5.55 2.65 5.8 1.7 6.25 0.0 7.5 0.0 L7.6 0.0 Q8.85 0.0 9.3 1.7 9.55 2.65 9.4 3.6 L9.3 4.15 8.5 5.5 7.6 5.9 7.5 5.9 M4.35 4.9 Q4.6 5.75 4.35 6.4 L3.7 7.2 2.75 7.35 Q2.0 7.15 1.35 6.5 L1.0 6.15 Q0.4 5.4 0.15 4.45 -0.3 2.7 0.75 2.1 1.8 1.5 3.15 2.75 3.85 3.45 4.2 4.35 L4.35 4.9 M5.5 13.7 Q4.45 13.9 3.65 12.95 2.75 12.0 3.2 10.25 3.7 8.5 5.25 7.6 6.4 6.9 7.55 7.0 8.75 6.9 9.9 7.6 11.45 8.5 11.95 10.25 12.35 12.0 11.5 12.95 10.7 13.9 9.65 13.7 8.55 13.5 7.55 12.6 6.55 13.5 5.5 13.7"/></g><g id="c4"><g><use transform="matrix(1.0,0.0,0.0,1.0,0.0,0.0)" xlink:href="#c3"/></g></g><radialGradient gradientUnits="userSpaceOnUse" r="819.2" cx="0" cy="0" spreadMethod="pad" gradientTransform="matrix(0.0914459228516,0.0,0.0,0.0914459228516,0.6,3.4)" id="gradient1"><stop offset="0.0" stop-color="#ffffff"/><stop offset="1.0" stop-color="#ffffff" stop-opacity="0.0"/></radialGradient><g id="c5"><path stroke="none" fill="url(#gradient1)" d="M36.65 -54.65 Q60.05 -42.0 69.75 -17.95 80.55 8.9 68.0 34.1 55.45 59.35 26.8 68.2 -1.8 77.05 -29.7 64.3 -57.6 51.6 -68.45 24.75 -79.3 -2.05 -66.75 -27.25 L-66.7 -27.3 Q-54.1 -52.5 -25.5 -61.4 3.1 -70.2 31.0 -57.5 L36.65 -54.65"/></g><g id="c6"><g><use transform="matrix(1.0,0.0,0.0,1.0,0.0,0.0)" xlink:href="#c5"/></g></g><radialGradient gradientUnits="userSpaceOnUse" r="819.2" cx="0" cy="0" spreadMethod="pad" gradientTransform="matrix(0.209197998047,0.0,0.0,0.177108764648,67.15,107.2)" id="gradient2"><stop offset="0.356862745098" stop-color="#ffffff"/><stop offset="0.670588235294" stop-opacity="0.0"/></radialGradient><g id="c7"><path fill="none" stroke-linejoin="round" stroke-linecap="round" stroke="url(#gradient2)" stroke-width="0.5" d="M136.55 165.8 L68.6 106.0 68.4 106.0 118.25 201.5 M68.2 105.7 L68.25 105.8 68.25 105.75 68.2 105.7 0.0 45.7 M68.25 105.8 L68.3 105.85 68.3 105.8 68.25 105.75 49.95 0.05 M0.05 97.7 L68.15 105.95 68.25 105.85 68.25 105.8 M68.3 105.85 L68.25 105.85 68.3 106.0 68.3 105.85 68.3 105.8 68.35 105.8 68.3 105.8 86.6 18.35 M50.0 193.2 L68.3 106.0 68.15 105.95 18.25 151.55 M68.4 106.0 L68.3 106.0 86.55 211.5 M68.4 106.0 L68.3 105.85 M68.6 106.0 L68.35 105.8 118.25 60.15 M136.6 114.25 L68.6 106.0 M68.2 105.7 L18.25 10.05"/></g><g id="c8"><g><use transform="matrix(1.0,0.0,0.0,1.0,0.0,0.0)" xlink:href="#c7"/></g></g><radialGradient gradientUnits="userSpaceOnUse" r="819.2" cx="0" cy="0" spreadMethod="pad" gradientTransform="matrix(-0.00955200195312,-0.00361633300781,-0.00140380859375,0.0103302001953,10.9,11.3)" id="gradient3"><stop offset="0.0" stop-color="#7d0a4f"/><stop offset="1.0" stop-color="#e0a5cf"/></radialGradient><radialGradient gradientUnits="userSpaceOnUse" r="819.2" cx="0" cy="0" spreadMethod="pad" gradientTransform="matrix(-0.0184326171875,-0.00698852539062,-0.00273132324219,0.0199584960938,0.0,-1.65)" id="gradient4"><stop offset="0.0" stop-color="#be7603"/><stop offset="1.0" stop-color="#ffa00b"/></radialGradient><radialGradient gradientUnits="userSpaceOnUse" r="819.2" cx="0" cy="0" spreadMethod="pad" gradientTransform="matrix(-0.0247192382812,-0.00936889648438,-0.003662109375,0.0267639160156,4.45,0.95)" id="gradient5"><stop offset="0.0" stop-color="#820203"/><stop offset="1.0" stop-color="#fb1a16"/></radialGradient><radialGradient gradientUnits="userSpaceOnUse" r="819.2" cx="0" cy="0" spreadMethod="pad" gradientTransform="matrix(0.00955200195312,0.00361633300781,-0.00140380859375,0.0103302001953,-12.1,2.6)" id="gradient6"><stop offset="0.0" stop-color="#7d0a4f"/><stop offset="1.0" stop-color="#e0a5cf"/></radialGradient><radialGradient gradientUnits="userSpaceOnUse" r="819.2" cx="0" cy="0" spreadMethod="pad" gradientTransform="matrix(0.0184326171875,0.00698852539062,-0.00273132324219,0.0199584960938,1.1,-1.25)" id="gradient7"><stop offset="0.0" stop-color="#be7603"/><stop offset="1.0" stop-color="#ffa00b"/></radialGradient><radialGradient gradientUnits="userSpaceOnUse" r="819.2" cx="0" cy="0" spreadMethod="pad" gradientTransform="matrix(0.0247192382812,0.00936889648438,-0.003662109375,0.0267639160156,-3.55,-2.1)" id="gradient8"><stop offset="0.0" stop-color="#820203"/><stop offset="1.0" stop-color="#fb1a16"/></radialGradient><g id="c9"><path fill="none" stroke="#ff0000" stroke-width="0.5" d="M2.75 -2.35 L2.75 -0.2 M2.75 2.1 L2.75 -0.2"/><path fill="none" stroke="#ff0000" stroke-width="0.5" d="M2.75 -0.2 L5.35 -0.2 M2.75 -0.2 L0.15 -0.2"/><path fill="#a5a194" stroke="none" d="M3.35 -23.8 Q4.15 -20.7 7.0 -21.7 L-1.9 -17.4 -1.9 -21.45 3.35 -23.8"/><path fill="#c9c4b4" stroke="none" d="M-1.9 -21.45 L-1.9 -27.95 Q1.65 -30.0 2.6 -27.95 3.55 -25.95 3.35 -23.8 L-1.9 -21.45"/><path fill="none" stroke="#000000" stroke-width="0.5" stroke-opacity="0.4" d="M3.35 -23.8 Q4.15 -20.7 7.0 -21.7 L-1.9 -17.4 -1.9 -21.45 -1.9 -27.95 Q1.65 -30.0 2.6 -27.95 3.55 -25.95 3.35 -23.8"/><path fill="#c9c4b4" stroke="none" d="M-9.8 -14.05 L-10.55 -14.6 -14.2 -12.8 -15.75 -16.75 -12.95 -18.1 Q-12.0 -15.85 -9.8 -14.05"/><path fill="#a5a194" stroke="none" d="M-9.8 -14.05 L-7.95 -12.8 Q-7.0 -12.15 -5.75 -11.6 -3.15 -10.35 0.5 -9.45 -4.9 -5.75 -12.2 -7.75 L-14.2 -12.8 -10.55 -14.6 -9.8 -14.05"/><path fill="none" stroke="#000000" stroke-width="0.5" stroke-opacity="0.4" d="M-14.2 -12.8 L-12.2 -7.75 Q-4.9 -5.75 0.5 -9.45 -3.15 -10.35 -5.75 -11.6 -7.0 -12.15 -7.95 -12.8 L-9.8 -14.05 M-14.2 -12.8 L-15.75 -16.75 -12.95 -18.1 Q-12.0 -15.85 -9.8 -14.05"/><path fill="#c9c4b4" stroke="none" d="M4.8 -7.0 Q10.5 -1.25 19.0 -3.4 14.05 0.55 6.75 -1.4 L4.8 -7.0"/><path fill="none" stroke="#000000" stroke-width="0.5" stroke-opacity="0.4" d="M4.8 -7.0 Q10.5 -1.25 19.0 -3.4 14.05 0.55 6.75 -1.4 L4.8 -7.0 3.45 -10.9"/><path fill="#d1ccbb" stroke="none" d="M16.05 2.65 Q18.05 0.3 19.0 -3.75 L21.8 -5.3 Q22.4 -2.3 20.25 1.3 L17.3 3.0 16.35 2.25 16.05 2.65 M14.5 4.1 L15.0 3.7 14.6 4.15 14.5 4.1"/><path fill="#a5a194" stroke="none" d="M20.25 1.3 L18.85 3.2 18.05 4.1 17.4 4.6 Q16.05 5.6 14.4 6.05 L12.1 6.4 10.4 6.4 8.35 6.25 7.6 6.05 6.85 5.95 6.75 5.9 6.85 5.9 8.35 5.95 Q10.95 5.95 12.9 5.05 L14.05 4.35 14.5 4.1 14.6 4.15 15.0 3.7 15.75 3.0 16.05 2.65 16.35 2.25 17.3 3.0 20.25 1.3 M14.6 4.15 L14.05 4.35 14.6 4.15"/><path fill="none" stroke="#000000" stroke-width="0.5" stroke-opacity="0.4" d="M16.05 2.65 Q18.05 0.3 19.0 -3.75 L21.8 -5.3 Q22.4 -2.3 20.25 1.3 L18.85 3.2 18.05 4.1 17.4 4.6 Q16.05 5.6 14.4 6.05 L12.1 6.4 10.4 6.4 8.35 6.25 7.6 6.05 6.85 5.95 6.75 5.9 6.85 5.9 8.35 5.95 Q10.95 5.95 12.9 5.05 L14.05 4.35 14.5 4.1 15.0 3.7 15.75 3.0 16.05 2.65 M14.05 4.35 L14.6 4.15"/><path fill="#c9c4b4" stroke="none" d="M18.45 11.9 L18.45 12.75 Q17.6 13.8 15.3 13.8 L10.5 6.6 Q17.2 5.15 17.95 9.85 L18.45 11.9"/><path fill="#a5a194" stroke="none" d="M23.45 16.8 L20.95 17.95 18.35 18.3 15.3 13.8 Q17.6 13.8 18.45 12.75 L18.45 11.9 Q19.5 14.25 23.45 16.8"/><path fill="#878379" stroke="none" d="M18.35 18.3 L20.95 17.95 23.45 16.8 Q22.2 18.4 19.0 19.3 L18.35 18.3"/><path fill="none" stroke="#000000" stroke-width="0.5" stroke-opacity="0.4" d="M18.35 18.3 L19.0 19.3 Q22.2 18.4 23.45 16.8 19.5 14.25 18.45 11.9 L17.95 9.85 Q17.2 5.15 10.5 6.6 L15.3 13.8 18.35 18.3"/><path fill="#c9c4b4" stroke="none" d="M-15.65 2.65 Q-19.3 4.8 -23.5 0.9 L-21.1 -0.25 Q-18.05 0.9 -15.15 -1.25 -12.3 -3.4 -5.1 -0.15 L-15.65 2.65"/><path fill="none" stroke="#000000" stroke-width="0.5" stroke-opacity="0.4" d="M-15.65 2.65 L-5.1 -0.15 Q-12.3 -3.4 -15.15 -1.25 -18.05 0.9 -21.1 -0.25 L-23.5 0.9 Q-19.3 4.8 -15.65 2.65"/><path fill="#c9c4b4" stroke="none" d="M13.2 13.2 Q12.05 17.95 5.45 18.8 4.65 21.3 3.35 23.05 2.05 24.9 -0.45 25.05 -2.95 25.35 -4.35 22.65 -5.75 19.85 -4.65 15.7 -3.6 11.65 -0.8 8.6 2.05 5.6 4.95 5.4 7.85 5.25 11.1 6.75 14.3 8.3 13.2 13.2"/><path fill="none" stroke="#000000" stroke-width="0.5" stroke-opacity="0.4" d="M13.2 13.2 Q12.05 17.95 5.45 18.8 4.65 21.3 3.35 23.05 2.05 24.9 -0.45 25.05 -2.95 25.35 -4.35 22.65 -5.75 19.85 -4.65 15.7 -3.6 11.65 -0.8 8.6 2.05 5.6 4.95 5.4 7.85 5.25 11.1 6.75 14.3 8.3 13.2 13.2"/><path fill="#a5a194" stroke="none" d="M7.4 -16.5 L7.4 -24.7 Q10.95 -27.2 12.1 -23.5 13.05 -20.45 14.3 -17.65 12.0 -17.1 10.75 -15.2 8.75 -17.3 7.4 -16.5"/><path fill="#c9c4b4" stroke="none" d="M14.3 -17.65 L14.3 -17.55 14.8 -16.5 18.15 -9.9 18.85 -7.75 14.2 -5.4 11.45 -7.75 7.4 -14.15 7.4 -16.5 Q8.75 -17.3 10.75 -15.2 12.0 -17.1 14.3 -17.65"/><path fill="#b5b0a2" stroke="none" d="M18.85 -7.75 Q19.0 -4.85 13.85 -3.85 L11.45 -7.75 14.2 -5.4 18.85 -7.75"/><path fill="none" stroke="#000000" stroke-width="0.5" stroke-opacity="0.4" d="M7.4 -16.5 L7.4 -24.7 Q10.95 -27.2 12.1 -23.5 13.05 -20.45 14.3 -17.65 M14.3 -17.55 L14.8 -16.5 18.15 -9.9 18.85 -7.75 Q19.0 -4.85 13.85 -3.85 L11.45 -7.75 7.4 -14.15 7.4 -16.5"/><path fill="#f7f1dd" stroke="none" d="M19.05 -3.85 Q13.8 0.45 7.65 -3.35 3.35 -1.1 5.2 6.5 11.6 9.35 15.0 6.5 18.45 3.55 19.05 -3.85"/><path fill="none" stroke="#000000" stroke-width="0.5" stroke-opacity="0.4" d="M19.05 -3.85 Q13.8 0.45 7.65 -3.35 3.35 -1.1 5.2 6.5 11.6 9.35 15.0 6.5 18.45 3.55 19.05 -3.85"/><path fill="#7d0a4f" stroke="none" d="M14.75 0.85 Q13.4 4.6 11.0 5.6 8.65 6.6 4.7 4.15 5.2 -0.35 6.05 -2.25 11.15 2.3 14.75 0.85"/><path fill="none" stroke="#000000" stroke-width="0.5" stroke-opacity="0.4" d="M14.75 0.85 Q11.15 2.3 6.05 -2.25 5.2 -0.35 4.7 4.15 8.65 6.6 11.0 5.6 13.4 4.6 14.75 0.85"/><path fill="#000000" fill-opacity="0.250980392157" d="M3.65 3.95 L6.5 7.1 Q13.45 9.0 17.15 -0.55 8.15 1.85 4.95 -5.85 L3.65 3.95"/><path fill="#f7f1dd" stroke="none" d="M21.4 17.85 Q17.65 17.35 15.7 11.85 13.6 5.8 7.5 6.65 6.95 11.85 11.15 16.35 16.55 22.5 21.4 17.85"/><path fill="none" stroke="#000000" stroke-width="0.5" stroke-opacity="0.4" d="M21.4 17.85 Q17.65 17.35 15.7 11.85 13.6 5.8 7.5 6.65 6.95 11.85 11.15 16.35 16.55 22.5 21.4 17.85"/><path stroke="none" fill="url(#gradient3)" d="M14.25 12.15 Q13.45 7.8 8.95 7.45 8.1 10.7 11.0 14.75 14.0 18.85 17.6 17.1 15.05 16.2 14.25 12.15"/><path fill="none" stroke="#000000" stroke-width="0.5" stroke-opacity="0.4" d="M14.25 12.15 Q13.45 7.8 8.95 7.45 8.1 10.7 11.0 14.75 14.0 18.85 17.6 17.1 15.05 16.2 14.25 12.15"/><path fill="#000000" fill-opacity="0.239215686275" d="M10.45 14.4 Q10.65 17.45 16.5 17.7 14.1 17.3 15.05 14.2 15.6 6.5 5.2 4.75 L3.0 14.15 Q4.5 10.55 10.45 14.4"/><path fill="#6c412e" stroke="none" d="M6.1 0.5 Q7.5 -3.3 11.55 -3.9 18.4 -2.85 14.7 -11.15 11.55 -16.45 10.75 -20.55 8.9 -28.25 5.65 -22.1 5.3 -21.4 4.75 -21.1 5.0 -21.15 5.3 -21.35 L8.2 -21.25 Q9.55 -20.15 9.4 -16.1 9.55 -15.1 8.55 -14.85 9.5 -14.85 10.7 -13.15 12.0 -11.35 10.8 -9.6 12.85 -7.7 12.85 -6.7 12.95 -5.2 11.65 -4.75 9.95 -4.6 8.95 -4.1 6.25 -2.95 6.1 0.5 2.6 1.6 -0.7 7.55 L-3.25 26.15 Q2.1 26.75 2.55 22.1 3.15 19.6 4.9 19.4 11.3 18.45 12.35 12.8 12.45 10.7 8.5 7.25 5.5 3.55 6.1 0.6 L6.1 0.5"/><path fill="#3c0500" stroke="none" d="M6.1 0.5 Q6.25 -2.95 8.95 -4.1 9.95 -4.6 11.65 -4.75 12.95 -5.2 12.85 -6.7 12.85 -7.7 10.8 -9.6 12.0 -11.35 10.7 -13.15 9.5 -14.85 8.55 -14.85 9.55 -15.1 9.4 -16.1 9.55 -20.15 8.2 -21.25 L5.3 -21.35 Q5.0 -21.15 4.75 -21.1 L4.1 -20.75 3.15 -20.7 -0.7 7.55 Q2.6 1.6 6.1 0.5"/><path fill="#f7f1dd" stroke="none" d="M4.1 -20.75 L3.2 -20.85 3.15 -20.7 4.1 -20.75"/><path fill="none" stroke="#000000" stroke-width="0.5" stroke-opacity="0.2" d="M4.75 -21.1 Q5.3 -21.4 5.65 -22.1 8.9 -28.25 10.75 -20.55 11.55 -16.45 14.7 -11.15 18.4 -2.85 11.55 -3.9 7.5 -3.3 6.1 0.5 M4.75 -21.1 L4.1 -20.75 3.2 -20.85"/><path fill="none" stroke="#000000" stroke-width="0.5" stroke-opacity="0.4" d="M-3.25 26.15 Q2.1 26.75 2.55 22.1 3.15 19.6 4.9 19.4 11.3 18.45 12.35 12.8 12.45 10.7 8.5 7.25 5.5 3.55 6.1 0.6"/><path stroke="none" fill="url(#gradient4)" d="M4.05 -0.85 Q5.0 -3.7 7.3 -4.5 14.05 -7.15 8.2 -8.95 9.5 -9.9 9.55 -11.9 9.65 -13.85 7.1 -14.4 8.4 -16.55 8.5 -18.45 8.85 -22.6 6.2 -19.9 3.65 -17.2 2.7 -17.45 L0.6 -1.8 4.05 -0.85"/><path stroke="none" fill="url(#gradient5)" d="M0.6 -1.8 L-2.55 20.9 Q0.65 20.95 1.15 17.25 1.55 15.1 2.55 14.85 6.45 13.6 7.25 8.9 7.4 7.25 5.1 4.8 3.35 2.0 3.9 -0.55 L3.9 -0.75 4.05 -0.85 0.6 -1.8"/><path fill="none" stroke="#000000" stroke-width="0.5" stroke-opacity="0.4" d="M4.05 -0.85 Q5.0 -3.7 7.3 -4.5 14.05 -7.15 8.2 -8.95 9.5 -9.9 9.55 -11.9 9.65 -13.85 7.1 -14.4 8.4 -16.55 8.5 -18.45 8.85 -22.6 6.2 -19.9 3.65 -17.2 2.7 -17.45 M-2.55 20.9 Q0.65 20.95 1.15 17.25 1.55 15.1 2.55 14.85 6.45 13.6 7.25 8.9 7.4 7.25 5.1 4.8 3.35 2.0 3.9 -0.55 L3.9 -0.75 4.05 -0.85"/><path fill="#000000" fill-opacity="0.4" d="M2.1 21.8 L2.5 19.0 Q2.05 17.25 2.35 15.15 0.95 13.15 0.65 0.75 L-2.85 18.0 Q-1.4 17.25 -1.9 21.2 L-1.1 15.45 Q0.05 20.05 2.1 21.8"/><path fill="#230c41" stroke="none" d="M4.7 7.8 Q1.0 1.85 2.15 -13.3 L-1.6 13.9 Q0.4 9.25 4.7 7.8"/><path fill="none" stroke="#000000" stroke-width="0.5" stroke-opacity="0.4" d="M4.7 7.8 Q1.0 1.85 2.15 -13.3 L-1.6 13.9 Q0.4 9.25 4.7 7.8"/><path fill="#000000" fill-opacity="0.278431372549" d="M10.4 -4.6 Q3.75 -7.05 2.55 -16.15 L-3.0 24.5 Q1.45 23.2 1.85 17.3 3.1 16.9 3.65 15.9 5.9 15.85 7.0 14.95 L6.25 13.3 8.05 13.4 Q9.5 12.55 8.25 10.5 9.15 9.35 5.4 4.1 1.6 -1.25 10.4 -4.6"/><path fill="#fcba53" stroke="none" d="M4.9 -10.05 L5.55 -9.6 Q7.0 -9.25 7.1 -11.2 7.35 -12.95 6.25 -12.8 5.2 -12.65 5.0 -10.9 L4.9 -10.05"/><path fill="#fcba53" stroke="none" d="M4.5 -14.25 Q4.4 -13.95 5.05 -13.7 5.7 -13.45 5.95 -13.85 L6.25 -14.4 6.15 -15.15 Q6.0 -15.6 4.9 -15.65 4.6 -15.3 4.5 -14.25"/><path fill="#fcba53" stroke="none" d="M6.6 -7.25 Q6.4 -7.05 7.05 -6.8 7.45 -6.65 8.25 -7.1 8.4 -8.15 6.75 -8.55 L6.6 -7.25"/><path fill="#bb7405" stroke="none" d="M3.1 -5.9 Q2.95 -5.05 3.95 -4.4 L4.5 -5.2 4.6 -6.05 Q4.4 -6.4 3.45 -6.5 3.2 -6.6 3.1 -5.9"/><path fill="#b81d1b" stroke="none" d="M4.4 10.5 L5.15 11.05 5.85 10.45 5.6 9.95 Q5.35 9.6 5.4 9.15 4.85 9.5 4.4 10.5"/><path fill="#b81d1b" stroke="none" d="M4.05 5.8 L4.65 6.4 Q5.05 6.45 5.3 5.95 L4.4 5.1 Q4.1 5.25 4.05 5.8"/><path fill="#b81d1b" stroke="none" d="M2.85 10.55 Q3.25 10.7 3.35 10.0 2.95 9.85 2.7 10.0 2.6 10.5 2.85 10.55"/><path fill="#bb7405" stroke="none" d="M2.9 -9.75 L2.75 -8.95 3.6 -8.45 3.8 -9.05 Q3.85 -9.75 3.6 -9.75 L2.9 -9.75"/><path fill="#ffa00b" stroke="none" d="M2.25 -2.15 Q2.2 -2.0 2.3 -1.75 L2.95 -1.5 3.05 -1.95 2.95 -2.45 2.4 -2.55 2.25 -2.15"/><path fill="#fcba53" stroke="none" d="M5.2 -18.3 Q5.25 -17.95 5.9 -17.7 L6.05 -18.15 Q5.7 -18.65 5.35 -18.45 L5.2 -18.3"/><path fill="#000000" fill-opacity="0.4" d="M8.85 -3.2 Q4.3 -1.8 1.5 -6.0 L0.05 4.45 Q1.55 3.65 0.95 8.2 4.5 3.65 6.35 6.3 3.1 0.45 8.85 -3.2"/><path fill="#f7f1dd" stroke="none" d="M-15.45 -16.95 Q-11.9 -9.35 -5.35 -8.35 -2.05 -3.2 -5.7 2.3 -12.2 0.25 -14.5 -4.7 -16.85 -9.85 -15.45 -16.95"/><path fill="none" stroke="#000000" stroke-width="0.5" stroke-opacity="0.4" d="M-15.45 -16.95 Q-11.9 -9.35 -5.35 -8.35 -2.05 -3.2 -5.7 2.3 -12.2 0.25 -14.5 -4.7 -16.85 -9.85 -15.45 -16.95"/><path fill="#7d0a4f" stroke="none" d="M-12.85 -9.55 Q-10.0 -5.65 -4.15 -6.05 -3.85 -3.75 -4.6 0.65 -8.85 0.0 -10.65 -2.55 -12.6 -5.25 -12.85 -9.55"/><path fill="none" stroke="#000000" stroke-width="0.5" stroke-opacity="0.4" d="M-12.85 -9.55 Q-10.0 -5.65 -4.15 -6.05 -3.85 -3.75 -4.6 0.65 -8.85 0.0 -10.65 -2.55 -12.6 -5.25 -12.85 -9.55"/><path fill="#000000" fill-opacity="0.250980392157" d="M-3.6 1.15 L-7.05 1.9 Q-13.8 -1.4 -14.6 -12.65 -7.1 -4.05 -2.3 -8.65 L-3.6 1.15"/><path fill="#f7f1dd" stroke="none" d="M-23.2 0.85 Q-19.75 3.15 -16.5 -0.45 -13.1 -4.4 -7.8 0.85 -8.65 5.95 -13.65 6.95 -20.05 8.6 -23.2 0.85"/><path fill="none" stroke="#000000" stroke-width="0.5" stroke-opacity="0.4" d="M-23.2 0.85 Q-19.75 3.15 -16.5 -0.45 -13.1 -4.4 -7.8 0.85 -8.65 5.95 -13.65 6.95 -20.05 8.6 -23.2 0.85"/><path stroke="none" fill="url(#gradient6)" d="M-15.3 0.95 Q-13.5 -2.4 -9.4 0.55 -9.45 4.1 -13.15 5.65 -16.85 7.15 -19.65 3.0 -17.1 4.1 -15.3 0.95"/><path fill="none" stroke="#000000" stroke-width="0.5" stroke-opacity="0.4" d="M-15.3 0.95 Q-13.5 -2.4 -9.4 0.55 -9.45 4.1 -13.15 5.65 -16.85 7.15 -19.65 3.0 -17.1 4.1 -15.3 0.95"/><path fill="#000000" fill-opacity="0.239215686275" d="M-12.5 5.7 Q-13.5 8.35 -18.85 4.3 -16.55 5.7 -16.6 2.2 -15.05 -5.1 -5.25 0.85 L-5.75 10.85 Q-6.15 6.55 -12.5 5.7"/><path fill="#6c412e" stroke="none" d="M-4.95 -3.8 Q-5.25 -8.2 -8.7 -11.6 -15.15 -15.65 -9.65 -20.45 -5.4 -22.95 -3.7 -26.05 0.05 -31.65 1.3 -23.8 1.45 -22.9 1.9 -22.2 L1.45 -22.85 Q0.35 -24.8 -1.15 -24.85 -2.7 -24.85 -3.65 -21.1 -4.0 -20.3 -3.2 -19.35 -4.05 -20.05 -5.55 -19.35 -7.15 -18.65 -6.55 -16.2 -8.9 -16.0 -9.2 -15.1 -9.6 -13.8 -8.6 -12.45 L-6.3 -10.0 Q-4.2 -6.95 -4.95 -3.8 -2.05 -0.2 -0.65 7.55 L-3.2 26.15 Q-8.15 22.75 -7.4 18.3 -7.3 15.6 -8.75 14.2 -14.35 8.65 -13.8 2.8 -13.3 0.9 -8.85 0.65 -5.25 -0.55 -4.95 -3.7 L-4.95 -3.8"/><path fill="#3c0500" stroke="none" d="M-4.95 -3.8 Q-4.2 -6.95 -6.3 -10.0 L-8.6 -12.45 Q-9.6 -13.8 -9.2 -15.1 -8.9 -16.0 -6.55 -16.2 -7.15 -18.65 -5.55 -19.35 -4.05 -20.05 -3.2 -19.35 -4.0 -20.3 -3.65 -21.1 -2.7 -24.85 -1.15 -24.85 0.35 -24.8 1.45 -22.85 L1.9 -22.2 2.35 -21.45 3.2 -20.7 -0.65 7.55 Q-2.05 -0.2 -4.95 -3.8"/><path fill="#f7f1dd" stroke="none" d="M2.35 -21.45 L3.25 -20.85 3.2 -20.7 2.35 -21.45"/><path fill="none" stroke="#000000" stroke-width="0.5" stroke-opacity="0.2" d="M1.9 -22.2 Q1.45 -22.9 1.3 -23.8 0.05 -31.65 -3.7 -26.05 -5.4 -22.95 -9.65 -20.45 -15.15 -15.65 -8.7 -11.6 -5.25 -8.2 -4.95 -3.8 M1.9 -22.2 L2.35 -21.45 3.25 -20.85"/><path fill="none" stroke="#000000" stroke-width="0.5" stroke-opacity="0.4" d="M-3.2 26.15 Q-8.15 22.75 -7.4 18.3 -7.3 15.6 -8.75 14.2 -14.35 8.65 -13.8 2.8 -13.3 0.9 -8.85 0.65 -5.25 -0.55 -4.95 -3.7"/><path stroke="none" fill="url(#gradient7)" d="M-2.7 -3.45 Q-2.85 -6.7 -4.75 -9.1 -10.1 -16.35 -4.35 -13.75 -5.35 -15.6 -4.8 -17.4 -4.4 -19.25 -1.95 -17.9 -2.55 -20.75 -2.15 -22.55 -1.4 -26.6 0.25 -22.2 1.9 -17.9 2.75 -17.45 L0.65 -1.8 Q-1.05 -2.7 -2.7 -3.45"/><path stroke="none" fill="url(#gradient8)" d="M0.65 -1.8 L-2.5 20.9 Q-5.4 18.55 -4.8 14.95 -4.7 12.7 -5.5 11.75 -8.7 7.8 -8.2 3.0 -7.85 1.35 -5.15 0.8 -2.9 -0.4 -2.65 -3.05 L-2.65 -3.25 -2.7 -3.45 Q-1.05 -2.7 0.65 -1.8"/><path fill="none" stroke="#000000" stroke-width="0.5" stroke-opacity="0.4" d="M-2.7 -3.45 Q-2.85 -6.7 -4.75 -9.1 -10.1 -16.35 -4.35 -13.75 -5.35 -15.6 -4.8 -17.4 -4.4 -19.25 -1.95 -17.9 -2.55 -20.75 -2.15 -22.55 -1.4 -26.6 0.25 -22.2 1.9 -17.9 2.75 -17.45 M-2.5 20.9 Q-5.4 18.55 -4.8 14.95 -4.7 12.7 -5.5 11.75 -8.7 7.8 -8.2 3.0 -7.85 1.35 -5.15 0.8 -2.9 -0.4 -2.65 -3.05 L-2.65 -3.25 -2.7 -3.45"/><path fill="#000000" fill-opacity="0.4" d="M-6.95 18.4 L-6.55 15.6 Q-5.7 14.35 -5.4 12.25 -3.6 11.45 -0.1 0.45 L-1.5 18.5 Q-2.55 16.85 -3.15 20.7 L-2.35 14.95 Q-4.6 18.35 -6.95 18.4"/><path fill="#230c41" stroke="none" d="M-5.65 3.9 Q-0.75 1.25 2.2 -13.3 L-1.55 13.9 Q-2.15 8.35 -5.65 3.9"/><path fill="none" stroke="#000000" stroke-width="0.5" stroke-opacity="0.4" d="M-5.65 3.9 Q-0.75 1.25 2.2 -13.3 L-1.55 13.9 Q-2.15 8.35 -5.65 3.9"/><path fill="#000000" fill-opacity="0.278431372549" d="M-7.45 -11.4 Q-0.9 -8.85 2.6 -16.15 L-2.95 24.5 Q-6.7 20.0 -5.5 14.4 -6.55 13.2 -6.8 11.9 -8.75 10.25 -9.55 8.65 L-8.4 7.7 Q-9.45 7.3 -10.1 6.4 -11.15 4.65 -9.5 3.7 -10.0 2.05 -5.25 0.0 -0.45 -2.05 -7.45 -11.4"/><path fill="#fcba53" stroke="none" d="M-1.15 -12.45 L-1.8 -12.5 Q-3.25 -13.25 -2.85 -15.0 -2.6 -16.75 -1.6 -15.8 -0.75 -14.95 -0.95 -13.2 L-1.15 -12.45"/><path fill="#fcba53" stroke="none" d="M0.35 -15.85 Q0.35 -15.45 -0.3 -15.7 -0.95 -15.95 -1.1 -16.55 L-1.2 -17.2 -0.9 -17.85 Q-0.65 -18.1 0.35 -17.35 L0.35 -15.85"/><path fill="#fcba53" stroke="none" d="M-3.35 -11.05 L-3.9 -11.0 Q-4.3 -11.15 -4.9 -12.2 -4.75 -13.25 -3.2 -12.35 L-3.35 -11.05"/><path fill="#bb7405" stroke="none" d="M-0.55 -7.3 Q-0.7 -6.45 -1.7 -6.6 L-2.05 -7.7 -1.85 -8.55 Q-1.65 -8.8 -0.7 -8.1 -0.45 -8.0 -0.55 -7.3"/><path fill="#b81d1b" stroke="none" d="M-6.05 6.5 L-6.8 6.45 -7.3 5.35 Q-7.3 5.25 -6.95 5.15 -6.6 5.0 -6.55 4.55 -6.2 5.2 -6.05 6.5"/><path fill="#b81d1b" stroke="none" d="M-4.5 2.6 L-5.2 2.7 Q-5.6 2.45 -5.65 1.85 L-4.65 1.7 Q-4.45 2.05 -4.5 2.6"/><path fill="#b81d1b" stroke="none" d="M-4.7 7.75 Q-5.1 7.6 -5.0 6.9 -4.6 7.05 -4.35 7.3 -4.45 7.8 -4.7 7.75"/><path fill="#bb7405" stroke="none" d="M0.65 -10.65 L0.5 -9.85 -0.35 -10.05 -0.35 -10.65 Q-0.3 -11.35 -0.05 -11.15 0.4 -11.0 0.65 -10.65"/><path fill="#ffa00b" stroke="none" d="M-0.8 -3.25 L-0.95 -2.95 -1.6 -3.2 -1.6 -3.65 -1.4 -4.05 -0.85 -3.75 -0.8 -3.25"/><path fill="#fcba53" stroke="none" d="M0.75 -20.1 L-0.05 -20.0 0.0 -20.55 Q0.45 -20.75 0.7 -20.25 L0.75 -20.1"/><path fill="#000000" fill-opacity="0.4" d="M-6.5 -9.0 Q-2.75 -4.5 0.85 -6.2 L-0.6 4.25 Q-1.7 2.45 -2.3 7.0 -4.35 0.35 -6.7 1.4 -2.25 -1.55 -6.5 -9.0"/><path fill="#a7557e" stroke="none" d="M2.9 8.7 L3.0 10.65 3.0 10.75 3.0 10.85 Q3.65 17.85 8.25 23.65 L7.9 25.55 7.6 25.15 Q0.5 17.35 0.5 8.2 1.25 6.6 1.95 6.95 2.6 7.7 2.9 8.7"/><path fill="#6b2e4d" stroke="none" d="M7.6 25.15 Q0.1 17.25 0.5 7.5 0.5 6.4 1.05 4.8 1.45 3.1 2.4 3.8 3.45 4.6 3.1 5.8 L2.9 8.7 Q2.6 7.7 1.95 6.95 1.25 6.6 0.5 8.2 0.5 17.35 7.6 25.15"/><path fill="none" stroke="#000000" stroke-width="0.5" stroke-opacity="0.4" d="M2.9 8.7 L3.0 10.65 3.0 10.75 M3.0 10.85 Q3.65 17.85 8.25 23.65 M7.9 25.55 L7.6 25.15 Q0.1 17.25 0.5 7.5 0.5 6.4 1.05 4.8 1.45 3.1 2.4 3.8 3.45 4.6 3.1 5.8 L2.9 8.7 M0.5 8.2 Q0.5 17.35 7.6 25.15"/><path fill="#f47e11" stroke="none" d="M7.1 24.8 Q6.25 22.45 8.35 22.55 10.4 22.65 12.3 24.2 14.05 25.65 13.05 27.45 12.0 29.15 9.9 28.15 7.8 27.15 7.1 24.8"/><path fill="none" stroke="#000000" stroke-width="0.5" stroke-opacity="0.4" d="M7.1 24.8 Q6.25 22.45 8.35 22.55 10.4 22.65 12.3 24.2 14.05 25.65 13.05 27.45 12.0 29.15 9.9 28.15 7.8 27.15 7.1 24.8"/><path fill="#fdca02" stroke="none" d="M7.65 23.0 L7.45 23.2 Q7.15 23.9 7.85 24.7 L9.1 25.9 10.5 26.45 Q11.45 26.5 11.75 25.85 L11.85 25.3 Q11.7 24.3 10.85 23.75 L10.15 23.4 Q9.05 22.95 7.65 23.0"/><path fill="#6b2e4d" stroke="none" d="M-4.2 7.95 Q-3.25 5.5 -3.05 4.0 -2.75 2.45 -1.6 2.55 -0.55 2.65 -0.95 4.55 L-1.8 7.5 Q-1.9 6.05 -2.6 5.9 -3.25 5.5 -4.2 7.95"/><path fill="#a7557e" stroke="none" d="M-4.2 7.95 Q-3.25 5.5 -2.6 5.9 -1.9 6.05 -1.8 7.5 -4.1 16.5 -12.75 18.3 L-12.2 17.05 Q-7.0 15.35 -4.5 8.7 L-4.5 8.6 -4.2 7.95"/><path fill="none" stroke="#000000" stroke-width="0.5" stroke-opacity="0.4" d="M-1.8 7.5 L-0.95 4.55 Q-0.55 2.65 -1.6 2.55 -2.75 2.45 -3.05 4.0 -3.25 5.5 -4.2 7.95 M-1.8 7.5 Q-4.1 16.5 -12.75 18.3 M-12.2 17.05 Q-7.0 15.35 -4.5 8.7 M-4.5 8.6 L-4.2 7.95"/><path fill="#f47e11" stroke="none" d="M-11.8 16.55 Q-10.45 18.0 -12.55 19.25 -14.6 20.4 -16.9 19.95 -18.9 19.3 -18.7 17.55 -18.05 15.7 -15.55 15.85 -13.7 15.7 -11.8 16.55"/><path fill="none" stroke="#000000" stroke-width="0.5" stroke-opacity="0.4" d="M-11.8 16.55 Q-13.7 15.7 -15.55 15.85 -18.05 15.7 -18.7 17.55 -18.9 19.3 -16.9 19.95 -14.6 20.4 -12.55 19.25 -10.45 18.0 -11.8 16.55"/><path fill="#fdca02" stroke="none" d="M-12.95 16.3 L-12.8 16.55 Q-12.65 17.2 -13.45 17.7 L-14.95 18.3 -16.45 18.35 Q-17.35 18.05 -17.5 17.45 L-17.5 16.95 Q-17.2 16.2 -16.25 16.0 L-15.5 15.9 -12.95 16.3"/><path fill="#783d5b" stroke="none" d="M-1.5 7.0 L-1.6 3.0 Q-1.85 2.25 -1.25 1.45 -0.7 0.55 0.55 1.05 1.7 1.45 1.5 3.35 L0.9 7.0 Q-1.0 5.15 -1.5 7.0"/><path fill="#a7557e" stroke="none" d="M0.9 7.0 L-0.2 10.6 Q-1.0 13.05 -2.35 15.35 L-4.75 18.85 -6.35 18.5 -4.35 15.35 Q-2.9 12.8 -2.25 10.6 -1.75 9.05 -1.6 7.6 L-1.5 7.0 Q-1.0 5.15 0.9 7.0"/><path fill="none" stroke="#000000" stroke-width="0.5" stroke-opacity="0.4" d="M-1.5 7.0 L-1.6 3.0 Q-1.85 2.25 -1.25 1.45 -0.7 0.55 0.55 1.05 1.7 1.45 1.5 3.35 L0.9 7.0 -0.2 10.6 Q-1.0 13.05 -2.35 15.35 L-4.75 18.85 -6.35 18.5 -4.35 15.35 Q-2.9 12.8 -2.25 10.6 -1.75 9.05 -1.6 7.6 L-1.5 7.0"/><path fill="#f47e11" stroke="none" d="M-6.05 17.3 Q-4.1 17.2 -4.15 19.75 -4.35 22.25 -6.45 23.7 -8.3 24.95 -9.9 23.65 -11.2 21.9 -9.45 20.0 -8.2 18.45 -6.05 17.3"/><path fill="none" stroke="#000000" stroke-width="0.5" stroke-opacity="0.4" d="M-6.05 17.3 Q-8.2 18.45 -9.45 20.0 -11.2 21.9 -9.9 23.65 -8.3 24.95 -6.45 23.7 -4.35 22.25 -4.15 19.75 -4.1 17.2 -6.05 17.3"/><path fill="#fdca02" stroke="none" d="M-6.0 17.85 L-5.7 17.9 Q-4.95 18.2 -5.05 19.15 -5.15 20.05 -5.5 20.75 L-6.5 21.9 Q-7.35 22.5 -8.1 22.2 L-8.6 21.95 Q-9.15 21.15 -8.7 20.3 L-8.25 19.65 Q-7.45 18.6 -6.0 17.85"/></g><linearGradient gradientUnits="userSpaceOnUse" x1="-819.2" x2="819.2" spreadMethod="pad" gradientTransform="matrix(0.0131225585938,0.0,0.0,0.0105285644531,0.0,0.0)" id="gradient9"><stop offset="0.0" stop-color="#957a40"/><stop offset="1.0" stop-color="#d4c59c"/></linearGradient><g id="c10"><path stroke="none" fill="url(#gradient9)" d="M2.65 -8.6 L2.9 -8.6 3.55 -8.55 3.55 -8.6 3.8 -8.6 4.1 -8.55 4.8 -8.6 6.65 -8.2 Q9.15 -7.2 10.2 -4.5 L10.5 -3.8 Q11.15 -1.85 10.1 0.55 L10.05 0.65 Q8.8 3.55 5.75 5.7 L4.75 6.35 Q0.85 8.7 -3.25 8.65 L-3.4 8.65 Q-6.2 8.6 -7.9 7.3 L-8.05 7.2 Q-9.3 6.45 -10.1 4.95 -11.4 2.45 -10.0 -0.55 L-9.9 -0.7 -9.85 -0.9 -9.8 -0.9 -9.3 -1.9 -9.1 -2.25 Q-7.85 -4.4 -5.4 -6.0 L-5.25 -6.4 -5.15 -6.5 -4.35 -7.3 -3.95 -7.5 -3.6 -7.6 -2.85 -7.7 -2.35 -7.65 -1.9 -7.85 -0.5 -8.1 -0.15 -8.1 1.25 -8.35 1.3 -8.4 2.65 -8.6"/></g><g id="c11"><g><use transform="matrix(1.0,0.0,0.0,1.0,0.0,0.0)" xlink:href="#c10"/></g></g><g id="c12"><g><use transform="matrix(1.0,0.0,0.0,1.0,0.0,0.0)" xlink:href="#c9"/></g><g><use transform="matrix(-0.491653442383,0.118377685547,-0.174270629883,-0.57926940918,-4.2,8.8)" filter="url(#filter6)" xlink:href="#c11"/></g><g><use transform="matrix(-0.491653442383,0.118377685547,-0.174270629883,-0.57926940918,-1.35,9.1)" filter="url(#filter7)" xlink:href="#c11"/></g></g><filter id="filter6"><feColorMatrix in="SourceGraphic" type="matrix" values="0.0 0.0 0.0 0.0 0.828125 0.0 0.0 0.0 0.0 0.828125 0.0 0.0 0.0 0.0 0.828125 0.0 0.0 0.0 0.4296875 0.0" result="cxform"/><feComposite operator="in" in2="SourceGraphic" result="color-xform"/></filter><filter id="filter7"><feColorMatrix in="SourceGraphic" type="matrix" values="0.0 0.0 0.0 0.0 0.828125 0.0 0.0 0.0 0.0 0.828125 0.0 0.0 0.0 0.0 0.828125 0.0 0.0 0.0 0.4296875 0.0" result="cxform"/><feComposite operator="in" in2="SourceGraphic" result="color-xform"/></filter><g id="c13"><g><use transform="matrix(1.0,0.0,0.0,1.0,0.0,0.0)" xlink:href="#c2"/></g><g><use transform="matrix(0.238861083984,-0.0867004394531,0.10026550293,0.233917236328,34.25,31.15)" xlink:href="#c4"/></g><g><use transform="matrix(0.238861083984,-0.0867004394531,0.10026550293,0.233917236328,4.25,10.3)" xlink:href="#c4"/></g><g><use transform="matrix(0.141098022461,-0.0378112792969,0.111373901367,0.225646972656,20.25,20.65)" filter="url(#filter11)" xlink:href="#c6"/></g><g><use transform="matrix(-0.155029296875,0.0513153076172,0.0841827392578,0.147033691406,22.6,2.3)" filter="url(#filter12)" xlink:href="#c8"/></g><g><use transform="matrix(-0.361587524414,0.156585693359,0.1474609375,0.340515136719,21.6,21.45)" xlink:href="#c12"/></g><g><use transform="matrix(0.162948608398,-0.0436706542969,0.128631591797,0.260604858398,20.35,20.95)" filter="url(#filter14)" xlink:href="#c6"/></g></g><filter id="filter11"><feColorMatrix in="SourceGraphic" type="matrix" values="0.0 0.0 0.0 0.0 0.796875 0.0 0.0 0.0 0.0 0.59765625 0.0 0.0 0.0 0.0 0.19921875 0.0 0.0 0.0 1.0 0.0" result="cxform"/><feComposite operator="in" in2="SourceGraphic" result="color-xform"/></filter><filter id="filter12"><feColorMatrix in="SourceGraphic" type="matrix" values="0.0 0.0 0.0 0.0 0.99609375 0.0 0.0 0.0 0.0 0.99609375 0.0 0.0 0.0 0.0 0.99609375 0.0 0.0 0.0 1.0 0.0" result="cxform"/><feComposite operator="in" in2="SourceGraphic" result="color-xform"/></filter><filter id="filter14"><feColorMatrix in="SourceGraphic" type="matrix" values="1.0 0.0 0.0 0.0 0.0 0.0 1.0 0.0 0.0 0.0 0.0 0.0 1.0 0.0 0.0 0.0 0.0 0.0 0.23046875 0.0" result="cxform"/><feComposite operator="in" in2="SourceGraphic" result="color-xform"/></filter></defs><g><g><use transform="matrix(1.0,0.0,0.0,1.0,0.0,0.0)" xlink:href="#c1"/></g><g><use transform="matrix(1.15496826172,0.0,0.0,1.15496826172,5.85,3.95)" xlink:href="#c13"/></g></g></svg>