<?xml version='1.0' encoding='UTF-8'?>
<svg xmlns:xlink="http://www.w3.org/1999/xlink" xmlns="http://www.w3.org/2000/svg" version="1.1" width="60px" height="60px" viewBox="0.0 0.0 60.0 60.0"><defs><g id="c1"><path fill="#000000" fill-opacity="0.00392156862745" d="M0.0 0.0 L60.0 0.0 60.0 60.0 0.0 60.0 0.0 0.0"/></g><g id="c2"><path fill="none" stroke="#000000" stroke-width="1.0" stroke-opacity="0.301960784314" d="M22.3 0.35 Q26.6 -1.0 28.5 3.05 L41.4 31.7 Q43.1 35.4 39.9 36.85 L38.15 37.65 19.65 43.65 Q17.05 44.5 15.35 43.3 14.2 42.55 13.5 40.9 L0.55 12.25 Q-0.6 9.75 0.6 8.25 1.15 7.55 2.2 7.05 2.85 6.6 3.8 6.3 L22.3 0.35"/><path fill="#300525" stroke="none" d="M25.55 0.9 Q26.9 1.6 27.8 3.55 L40.7 32.15 Q42.6 36.3 38.3 37.65 L23.3 42.5 13.15 21.4 4.6 20.9 0.7 12.25 Q-0.45 9.75 0.75 8.25 L29.8 9.75 25.55 0.9 M20.1 43.55 L19.8 43.65 Q17.15 44.45 15.5 43.3 L20.1 43.55"/><path fill="#630a4c" stroke="none" d="M23.3 42.5 L20.1 43.55 15.5 43.3 Q14.35 42.55 13.65 40.9 L4.6 20.9 13.15 21.4 23.3 42.5 M0.75 8.25 Q1.45 7.3 3.1 6.75 L21.65 0.8 25.55 0.9 29.8 9.75 0.75 8.25"/><path fill="none" stroke="#000000" stroke-width="0.5" stroke-opacity="0.301960784314" d="M25.55 0.9 Q26.9 1.6 27.8 3.55 L40.7 32.15 Q42.6 36.3 38.3 37.65 L23.3 42.5 20.1 43.55 19.8 43.65 Q17.15 44.45 15.5 43.3 14.35 42.55 13.65 40.9 L4.6 20.9 0.7 12.25 Q-0.45 9.75 0.75 8.25 1.45 7.3 3.1 6.75 L21.65 0.8 25.55 0.9"/><path fill="#9d147b" stroke="none" d="M14.2 40.5 L1.35 11.8 Q-0.5 7.75 3.8 6.35 L22.3 0.4 Q26.55 -1.0 28.45 3.1 L41.35 31.7 Q43.25 35.85 38.9 37.25 L20.4 43.2 Q16.1 44.55 14.2 40.5"/><path fill="none" stroke="#000000" stroke-width="0.5" stroke-opacity="0.301960784314" d="M14.2 40.5 L1.35 11.8 Q-0.5 7.75 3.8 6.35 L22.3 0.4 Q26.55 -1.0 28.45 3.1 L41.35 31.7 Q43.25 35.85 38.9 37.25 L20.4 43.2 Q16.1 44.55 14.2 40.5"/><path fill="#fcf2cf" stroke="none" d="M9.15 13.6 Q9.8 12.8 9.55 11.6 L9.1 10.55 22.05 6.35 Q24.9 5.45 26.25 7.85 L26.5 8.3 35.8 29.0 35.95 29.35 Q34.75 29.3 34.1 30.1 33.45 30.9 33.7 32.1 L34.0 32.9 20.65 37.2 Q18.8 37.8 17.65 37.0 16.8 36.4 16.3 35.2 L6.95 14.6 6.8 14.4 7.1 14.4 Q8.4 14.45 9.15 13.6"/><path fill="#c47fad" stroke="none" d="M8.25 23.65 L3.35 12.8 Q1.65 9.1 5.5 7.85 L22.25 2.5 Q26.05 1.25 27.75 4.95 L28.25 6.1 35.55 22.3 39.35 30.75 Q41.1 34.5 37.2 35.7 L20.45 41.1 Q16.8 42.25 15.2 39.0 L15.0 38.6 8.25 23.65 M9.15 13.6 Q8.4 14.45 7.1 14.4 L6.8 14.4 6.95 14.6 16.3 35.2 Q16.8 36.4 17.65 37.0 18.8 37.8 20.65 37.2 L34.0 32.9 33.7 32.1 Q33.45 30.9 34.1 30.1 34.75 29.3 35.95 29.35 L35.8 29.0 26.5 8.3 26.25 7.85 Q24.9 5.45 22.05 6.35 L9.1 10.55 9.55 11.6 Q9.8 12.8 9.15 13.6"/><path fill="none" stroke="#ffcc00" stroke-width="1.0" stroke-opacity="0.749019607843" d="M8.25 23.65 L3.35 12.8 Q1.65 9.1 5.5 7.85 L22.25 2.5 Q26.05 1.25 27.75 4.95 L28.25 6.1 M35.55 22.3 L39.35 30.75 Q41.1 34.5 37.2 35.7 L20.45 41.1 Q16.8 42.25 15.2 39.0 L15.0 38.6"/><path fill="none" stroke="#bf9900" stroke-width="1.0" stroke-opacity="0.749019607843" d="M28.25 6.1 L35.55 22.3 M15.0 38.6 L8.25 23.65"/><path fill="none" stroke="#f0b92b" stroke-width="0.5" d="M9.15 13.6 Q9.8 12.8 9.55 11.6 L9.1 10.55 22.05 6.35 Q24.9 5.45 26.25 7.85 L26.5 8.3 35.8 29.0 35.95 29.35 Q34.75 29.3 34.1 30.1 33.45 30.9 33.7 32.1 L34.0 32.9 20.65 37.2 Q18.8 37.8 17.65 37.0 16.8 36.4 16.3 35.2 L6.95 14.6 6.8 14.4 7.1 14.4 Q8.4 14.45 9.15 13.6"/></g><g id="c3"><path fill="#7fdbfe" stroke="none" d="M10.75 4.9 Q10.75 4.6 10.9 4.35 11.25 3.45 11.95 2.75 13.3 1.5 14.35 2.1 15.4 2.7 14.95 4.45 14.7 5.4 14.1 6.15 L13.75 6.5 Q13.1 7.15 12.35 7.35 L11.4 7.2 Q10.95 6.9 10.75 6.4 10.5 5.75 10.75 4.9 M7.5 5.9 Q7.0 5.85 6.6 5.5 6.05 5.0 5.8 4.15 L5.7 3.6 Q5.55 2.65 5.8 1.7 6.25 0.0 7.5 0.0 L7.6 0.0 Q8.85 0.0 9.3 1.7 9.55 2.65 9.4 3.6 L9.3 4.15 8.5 5.5 7.6 5.9 7.5 5.9 M4.35 4.9 Q4.6 5.75 4.35 6.4 L3.7 7.2 2.75 7.35 Q2.0 7.15 1.35 6.5 L1.0 6.15 Q0.4 5.4 0.15 4.45 -0.3 2.7 0.75 2.1 1.8 1.5 3.15 2.75 3.85 3.45 4.2 4.35 L4.35 4.9 M5.5 13.7 Q4.45 13.9 3.65 12.95 2.75 12.0 3.2 10.25 3.7 8.5 5.25 7.6 6.4 6.9 7.55 7.0 8.75 6.9 9.9 7.6 11.45 8.5 11.95 10.25 12.35 12.0 11.5 12.95 10.7 13.9 9.65 13.7 8.55 13.5 7.55 12.6 6.55 13.5 5.5 13.7"/></g><g id="c4"><g><use transform="matrix(1.0,0.0,0.0,1.0,0.0,0.0)" xlink:href="#c3"/></g></g><radialGradient gradientUnits="userSpaceOnUse" r="819.2" cx="0" cy="0" spreadMethod="pad" gradientTransform="matrix(0.0914459228516,0.0,0.0,0.0914459228516,0.6,3.4)" id="gradient1"><stop offset="0.0" stop-color="#ffffff"/><stop offset="1.0" stop-color="#ffffff" stop-opacity="0.0"/></radialGradient><g id="c5"><path stroke="none" fill="url(#gradient1)" d="M36.65 -54.65 Q60.05 -42.0 69.75 -17.95 80.55 8.9 68.0 34.1 55.45 59.35 26.8 68.2 -1.8 77.05 -29.7 64.3 -57.6 51.6 -68.45 24.75 -79.3 -2.05 -66.75 -27.25 L-66.7 -27.3 Q-54.1 -52.5 -25.5 -61.4 3.1 -70.2 31.0 -57.5 L36.65 -54.65"/></g><g id="c6"><g><use transform="matrix(1.0,0.0,0.0,1.0,0.0,0.0)" xlink:href="#c5"/></g></g><radialGradient gradientUnits="userSpaceOnUse" r="819.2" cx="0" cy="0" spreadMethod="pad" gradientTransform="matrix(0.209197998047,0.0,0.0,0.177108764648,67.15,107.2)" id="gradient2"><stop offset="0.356862745098" stop-color="#ffffff"/><stop offset="0.670588235294" stop-opacity="0.0"/></radialGradient><g id="c7"><path fill="none" stroke-linejoin="round" stroke-linecap="round" stroke="url(#gradient2)" stroke-width="0.5" d="M136.55 165.8 L68.6 106.0 68.4 106.0 118.25 201.5 M68.2 105.7 L68.25 105.8 68.25 105.75 68.2 105.7 0.0 45.7 M68.25 105.8 L68.3 105.85 68.3 105.8 68.25 105.75 49.95 0.05 M0.05 97.7 L68.15 105.95 68.25 105.85 68.25 105.8 M68.3 105.85 L68.25 105.85 68.3 106.0 68.3 105.85 68.3 105.8 68.35 105.8 68.3 105.8 86.6 18.35 M50.0 193.2 L68.3 106.0 68.15 105.95 18.25 151.55 M68.4 106.0 L68.3 106.0 86.55 211.5 M68.4 106.0 L68.3 105.85 M68.6 106.0 L68.35 105.8 118.25 60.15 M136.6 114.25 L68.6 106.0 M68.2 105.7 L18.25 10.05"/></g><g id="c8"><g><use transform="matrix(1.0,0.0,0.0,1.0,0.0,0.0)" xlink:href="#c7"/></g></g><g id="c9"><path fill="#990000" stroke="none" d="M16.95 15.55 L17.0 15.65 17.0 14.65 15.1 13.4 Q13.35 12.35 12.55 12.35 12.25 12.35 11.7 13.1 L11.55 13.35 14.55 15.55 15.3 14.9 Q15.85 14.65 16.3 14.9 L16.35 14.95 16.95 15.55"/><path fill="#918147" stroke="none" d="M30.4 28.55 L25.85 23.45 25.8 23.3 25.7 23.2 25.6 23.15 23.95 21.4 20.95 18.65 20.55 18.3 19.95 17.85 19.35 17.4 18.75 16.95 18.7 16.9 17.95 16.35 17.3 15.95 17.0 15.75 16.4 15.35 16.3 15.3 16.0 15.15 15.95 15.15 15.75 15.25 15.45 15.5 16.85 16.35 18.15 17.15 Q20.45 18.65 22.0 20.35 L28.35 27.35 30.5 29.7 31.25 29.5 30.4 28.55"/><path fill="#660000" stroke="none" d="M16.95 15.55 L16.35 14.95 16.3 14.9 Q15.85 14.65 15.3 14.9 L14.55 15.55 11.55 13.35 Q11.2 13.9 11.2 14.15 11.2 14.95 12.9 16.15 14.35 17.25 15.1 17.4 L15.1 17.2 14.8 16.9 14.75 16.55 14.7 16.45 14.7 16.4 14.75 16.35 14.7 16.45 14.75 16.5 14.75 16.35 14.75 16.3 Q14.75 15.65 15.1 15.4 L15.1 15.3 15.15 15.35 15.95 15.15 16.0 15.15 16.3 15.3 16.4 15.35 16.95 15.7 16.95 15.55"/><path fill="#726636" stroke="none" d="M31.25 29.5 L31.25 29.45 31.2 29.45 30.4 28.55 31.25 29.5 M28.35 27.35 L22.0 20.35 Q20.45 18.65 18.15 17.15 L16.85 16.35 15.45 15.5 15.1 15.8 15.05 15.85 17.0 17.3 23.5 23.15 23.65 23.3 24.1 23.75 28.25 28.75 29.55 30.45 29.95 30.05 28.35 27.35 M22.8 22.05 L21.55 20.85 22.0 20.35 21.55 20.85 20.4 19.7 21.55 20.85 22.8 22.05"/><path fill="#330000" stroke="none" d="M15.45 15.5 L15.75 15.25 15.95 15.15 15.15 15.35 15.1 15.3 15.1 15.4 Q14.75 15.65 14.75 16.3 L14.75 16.35 15.05 15.85 15.1 15.8 15.45 15.5"/><path fill="#494123" stroke="none" d="M15.1 17.4 L15.15 17.45 Q16.7 18.65 18.15 19.95 L21.5 23.15 Q25.7 27.4 29.05 32.4 L29.1 32.4 Q28.95 31.45 29.45 30.6 28.35 30.55 27.35 29.3 L24.5 25.45 23.6 24.15 23.6 24.3 23.6 24.15 20.3 20.9 14.75 16.5 14.7 16.45 14.75 16.35 14.7 16.4 14.7 16.45 14.75 16.55 14.8 16.9 15.1 17.2 15.1 17.4 M24.5 25.45 L23.6 24.3 20.3 20.9 23.6 24.3 24.5 25.45"/><path fill="#5e532c" stroke="none" d="M15.05 15.85 L14.75 16.35 14.75 16.5 20.3 20.9 23.6 24.15 24.5 25.45 27.35 29.3 Q28.35 30.55 29.45 30.6 L29.55 30.45 28.25 28.75 24.1 23.75 23.65 23.3 23.5 23.15 17.0 17.3 15.05 15.85 M24.1 23.75 L23.6 24.15 24.1 23.75"/><path fill="#2e2816" stroke="none" d="M29.1 32.4 L29.85 32.55 29.95 32.3 29.55 32.2 Q29.25 31.3 29.9 30.5 L31.45 30.4 31.45 30.5 31.75 30.3 31.25 29.5 30.5 29.7 28.35 27.35 29.95 30.05 29.55 30.45 29.45 30.6 Q28.95 31.45 29.1 32.4"/><path fill="#985441" stroke="none" d="M29.95 32.3 Q30.3 31.45 31.2 30.7 L31.45 30.5 31.45 30.4 29.9 30.5 Q29.25 31.3 29.55 32.2 L29.95 32.3"/><path fill="none" stroke="#000000" stroke-width="0.5" stroke-opacity="0.301960784314" d="M15.1 17.4 L15.15 17.45 Q16.7 18.65 18.15 19.95 L21.5 23.15 Q25.7 27.4 29.05 32.4 M29.1 32.4 L29.85 32.55 M29.95 32.3 Q30.3 31.45 31.2 30.7 L31.45 30.5 31.75 30.3 31.25 29.5 31.25 29.45 M30.4 28.55 L25.85 23.45 25.8 23.3 25.7 23.2 25.6 23.15 23.95 21.4 20.95 18.65 20.55 18.3 19.95 17.85 19.35 17.4 18.75 16.95 18.7 16.9 17.95 16.35 17.3 15.95 17.0 15.75 16.4 15.35 M16.0 15.15 L16.3 15.3 16.4 15.35 M29.45 30.6 Q28.95 31.45 29.1 32.4 M31.25 29.5 L30.4 28.55 M29.95 30.05 L29.55 30.45 29.45 30.6 M31.25 29.5 L30.5 29.7"/><path fill="none" stroke="#000000" stroke-width="0.5" stroke-opacity="0.301960784314" d="M20.3 20.9 L23.6 24.3 24.5 25.45 M17.0 17.3 L15.05 15.85 M28.25 28.75 L24.1 23.75 23.65 23.3 23.5 23.15 M22.0 20.35 L21.55 20.85 20.4 19.7 M21.55 20.85 L22.8 22.05 M23.6 24.3 L23.6 24.15 24.1 23.75"/><path fill="none" stroke="#99ff00" stroke-width="0.5" d="M29.05 32.4 L29.1 32.4"/><path fill="none" stroke="#cc0000" stroke-width="0.5" stroke-opacity="0.501960784314" d="M31.45 30.5 L31.45 30.4 29.9 30.5 Q29.25 31.3 29.55 32.2 L29.95 32.3"/></g><radialGradient gradientUnits="userSpaceOnUse" r="819.2" cx="0" cy="0" spreadMethod="pad" gradientTransform="matrix(0.0219116210938,0.0106353759766,0.0,0.0219116210938,0.0,0.05)" id="gradient3"><stop offset="0.0" stop-color="#e14604" stop-opacity="0.643137254902"/><stop offset="1.0" stop-color="#ff9636" stop-opacity="0.0"/></radialGradient><g id="c10"><path stroke="none" fill="url(#gradient3)" d="M12.2 -6.25 Q17.25 1.25 17.25 8.4 17.25 15.55 12.2 18.15 7.15 20.75 0.0 17.3 -7.15 13.8 -12.2 6.3 -17.25 -1.2 -17.25 -8.35 -17.25 -15.5 -12.2 -18.1 -7.15 -20.7 0.0 -17.2 7.15 -13.75 12.2 -6.25"/></g><g id="c11"><g><use transform="matrix(1.0,0.0,0.0,1.0,0.0,0.0)" xlink:href="#c10"/></g></g><radialGradient gradientUnits="userSpaceOnUse" r="819.2" cx="0" cy="0" spreadMethod="pad" gradientTransform="matrix(0.0150604248047,0.0,0.0,0.0150604248047,0.0,0.0)" id="gradient4"><stop offset="0.0" stop-color="#80ff00" stop-opacity="0.560784313725"/><stop offset="1.0" stop-color="#e6ff00" stop-opacity="0.0"/></radialGradient><g id="c12"><path stroke="none" fill="url(#gradient4)" d="M1.8 -1.8 Q1.05 -2.55 0.0 -2.55 -1.05 -2.55 -1.8 -1.8 -2.55 -1.05 -2.55 0.0 -2.55 1.05 -1.8 1.8 -1.05 2.55 0.0 2.55 1.05 2.55 1.8 1.8 2.55 1.05 2.55 0.0 2.55 -1.05 1.8 -1.8 M9.0 -9.0 Q12.75 -5.25 12.75 0.0 12.75 5.25 9.0 9.0 5.25 12.75 0.0 12.75 -5.25 12.75 -9.0 9.0 -12.75 5.25 -12.75 0.0 -12.75 -5.25 -9.0 -9.0 -5.25 -12.75 0.0 -12.75 5.25 -12.75 9.0 -9.0"/><path fill="#ffffff" stroke="none" d="M3.4 -33.35 L3.25 -32.95 2.8 -32.8 Q2.55 -32.8 2.4 -32.95 L2.25 -33.35 2.4 -33.8 2.8 -33.95 3.25 -33.8 3.4 -33.35 M-5.55 -16.15 Q-5.9 -16.5 -5.85 -16.95 -5.9 -17.45 -5.55 -17.8 -5.2 -18.15 -4.7 -18.15 -4.2 -18.15 -3.85 -17.8 -3.55 -17.45 -3.55 -16.95 -3.55 -16.5 -3.85 -16.15 -4.2 -15.8 -4.7 -15.8 -5.2 -15.8 -5.55 -16.15"/><path fill="#ffffff" stroke="none" d="M3.6 -3.6 Q5.1 -2.1 5.1 0.0 5.1 2.1 3.6 3.6 2.1 5.1 0.0 5.1 -2.1 5.1 -3.6 3.6 -5.1 2.1 -5.1 0.0 -5.1 -2.1 -3.6 -3.6 -2.1 -5.1 0.0 -5.1 2.1 -5.1 3.6 -3.6"/></g><g id="c13"><g><use transform="matrix(1.0,0.0,0.0,1.0,0.0,0.0)" xlink:href="#c12"/></g></g><g id="c14"><g><use transform="matrix(1.0,0.0,0.0,1.0,0.0,0.0)" xlink:href="#c13"/></g><g><use transform="matrix(0.709808349609,0.0,0.0,0.709808349609,21.8,-22.1)" xlink:href="#c13"/></g></g><g id="c15"><g><use transform="matrix(1.0,0.0,0.0,1.0,0.0,0.0)" xlink:href="#c13"/></g><g><use transform="matrix(0.709808349609,0.0,0.0,0.709808349609,21.8,-22.1)" xlink:href="#c13"/></g><g><use transform="matrix(0.470001220703,0.0,0.0,0.470001220703,-6.75,-76.55)" xlink:href="#c13"/></g></g><g id="c16"><g><use transform="matrix(1.0,0.0,0.0,1.0,0.0,0.0)" xlink:href="#c2"/></g><g><use transform="matrix(0.238861083984,-0.0867004394531,0.10026550293,0.233917236328,34.25,31.15)" xlink:href="#c4"/></g><g><use transform="matrix(0.238861083984,-0.0867004394531,0.10026550293,0.233917236328,4.25,10.3)" xlink:href="#c4"/></g><g><use transform="matrix(0.141098022461,-0.0378112792969,0.111373901367,0.225646972656,20.25,20.65)" filter="url(#filter14)" xlink:href="#c6"/></g><g><use transform="matrix(-0.155029296875,0.0513153076172,0.0841827392578,0.147033691406,22.6,2.3)" filter="url(#filter15)" xlink:href="#c8"/></g><g><use transform="matrix(1.0,0.0,0.0,1.0,0.0,0.0)" xlink:href="#c9"/></g><g><use transform="matrix(-0.0447082519531,-0.259704589844,-0.280471801758,0.0482940673828,13.6,14.9)" xlink:href="#c11"/></g><g><use transform="matrix(-0.172866821289,0.0,0.0,0.172866821289,15.2,15.9)" filter="url(#filter18)" xlink:href="#c14"/></g><g><use transform="matrix(-0.172866821289,0.0,0.0,0.172866821289,24.05,26.7)" filter="url(#filter19)" xlink:href="#c15"/></g><g><use transform="matrix(-0.0623931884766,-0.362350463867,-0.362350463867,0.0623931884766,19.35,18.2)" xlink:href="#c11"/></g><g><use transform="matrix(-0.0623931884766,-0.362350463867,-0.362350463867,0.0623931884766,15.9,14.9)" xlink:href="#c11"/></g><g><use transform="matrix(0.162948608398,-0.0436706542969,0.128631591797,0.260604858398,20.35,20.95)" filter="url(#filter22)" xlink:href="#c6"/></g></g><filter id="filter14"><feColorMatrix in="SourceGraphic" type="matrix" values="0.0 0.0 0.0 0.0 0.796875 0.0 0.0 0.0 0.0 0.59765625 0.0 0.0 0.0 0.0 0.19921875 0.0 0.0 0.0 1.0 0.0" result="cxform"/><feComposite operator="in" in2="SourceGraphic" result="color-xform"/></filter><filter id="filter15"><feColorMatrix in="SourceGraphic" type="matrix" values="0.0 0.0 0.0 0.0 0.99609375 0.0 0.0 0.0 0.0 0.99609375 0.0 0.0 0.0 0.0 0.99609375 0.0 0.0 0.0 1.0 0.0" result="cxform"/><feComposite operator="in" in2="SourceGraphic" result="color-xform"/></filter><filter id="filter18"><feColorMatrix in="SourceGraphic" type="matrix" values="1.81652605534 2.00574231148 -2.82226848602 0.0 -0.25 -0.759244441986 0.977622866631 0.781621575356 0.0 -0.25 2.0084002018 -2.24988341331 1.2414829731 0.0 -0.250000029802 0.0 0.0 0.0 1.0 0.0" result="color-matrix"/></filter><filter id="filter19"><feColorMatrix in="SourceGraphic" type="matrix" values="1.81652605534 2.00574231148 -2.82226848602 0.0 -0.25 -0.759244441986 0.977622866631 0.781621575356 0.0 -0.25 2.0084002018 -2.24988341331 1.2414829731 0.0 -0.250000029802 0.0 0.0 0.0 1.0 0.0" result="color-matrix"/></filter><filter id="filter22"><feColorMatrix in="SourceGraphic" type="matrix" values="1.0 0.0 0.0 0.0 0.0 0.0 1.0 0.0 0.0 0.0 0.0 0.0 1.0 0.0 0.0 0.0 0.0 0.0 0.23046875 0.0" result="cxform"/><feComposite operator="in" in2="SourceGraphic" result="color-xform"/></filter></defs><g><g><use transform="matrix(1.0,0.0,0.0,1.0,0.0,0.0)" xlink:href="#c1"/></g><g><use transform="matrix(1.15496826172,0.0,0.0,1.15496826172,5.85,3.95)" xlink:href="#c16"/></g></g></svg>