<?xml version='1.0' encoding='UTF-8'?>
<svg xmlns:xlink="http://www.w3.org/1999/xlink" xmlns="http://www.w3.org/2000/svg" version="1.1" width="60px" height="60px" viewBox="0.0 0.0 60.0 60.0"><defs><g id="c1"><path fill="#000000" fill-opacity="0.00392156862745" d="M0.0 0.0 L60.0 0.0 60.0 60.0 0.0 60.0 0.0 0.0"/></g><g id="c2"><path fill="none" stroke="#000000" stroke-width="1.0" stroke-opacity="0.301960784314" d="M22.3 0.35 Q26.6 -1.0 28.5 3.05 L41.4 31.7 Q43.1 35.4 39.9 36.85 L38.15 37.65 19.65 43.65 Q17.05 44.5 15.35 43.3 14.2 42.55 13.5 40.9 L0.55 12.25 Q-0.6 9.75 0.6 8.25 1.15 7.55 2.2 7.05 2.85 6.6 3.8 6.3 L22.3 0.35"/><path fill="#5b3c00" stroke="none" d="M0.75 8.25 L29.8 9.75 25.55 0.9 Q26.9 1.6 27.8 3.55 L40.7 32.15 Q42.6 36.3 38.3 37.65 L23.3 42.5 13.15 21.4 4.6 20.9 0.7 12.25 Q-0.45 9.75 0.75 8.25 M20.1 43.55 L19.8 43.65 Q17.15 44.45 15.5 43.3 L20.1 43.55"/><path fill="#724b00" stroke="none" d="M25.55 0.9 L29.8 9.75 0.75 8.25 Q1.45 7.3 3.1 6.75 L21.65 0.8 25.55 0.9 M4.6 20.9 L13.15 21.4 23.3 42.5 20.1 43.55 15.5 43.3 Q14.35 42.55 13.65 40.9 L4.6 20.9"/><path fill="none" stroke="#000000" stroke-width="0.5" stroke-opacity="0.301960784314" d="M0.75 8.25 Q-0.45 9.75 0.7 12.25 L4.6 20.9 M23.3 42.5 L38.3 37.65 Q42.6 36.3 40.7 32.15 L27.8 3.55 Q26.9 1.6 25.55 0.9 L21.65 0.8 3.1 6.75 Q1.45 7.3 0.75 8.25 M20.1 43.55 L19.8 43.65 Q17.15 44.45 15.5 43.3 14.35 42.55 13.65 40.9 L4.6 20.9 M20.1 43.55 L23.3 42.5"/><path fill="#ffcc00" stroke="none" d="M14.2 40.5 L1.35 11.8 Q-0.5 7.75 3.8 6.35 L22.3 0.4 Q26.55 -1.0 28.45 3.1 L41.35 31.7 Q43.25 35.85 38.9 37.25 L20.4 43.2 Q16.1 44.55 14.2 40.5"/><path fill="none" stroke="#000000" stroke-width="0.5" stroke-opacity="0.301960784314" d="M14.2 40.5 L1.35 11.8 Q-0.5 7.75 3.8 6.35 L22.3 0.4 Q26.55 -1.0 28.45 3.1 L41.35 31.7 Q43.25 35.85 38.9 37.25 L20.4 43.2 Q16.1 44.55 14.2 40.5"/><path fill="#fcf2cf" stroke="none" d="M9.15 13.6 Q9.8 12.8 9.55 11.6 L9.1 10.55 22.05 6.35 Q24.9 5.45 26.25 7.85 L26.5 8.3 35.8 29.0 35.95 29.35 Q34.75 29.3 34.1 30.1 33.45 30.9 33.7 32.1 L34.0 32.9 20.65 37.2 Q18.8 37.8 17.65 37.0 16.8 36.4 16.3 35.2 L6.95 14.6 6.8 14.4 7.1 14.4 Q8.4 14.45 9.15 13.6"/><path fill="#996600" stroke="none" d="M28.25 6.1 L35.55 22.3 39.35 30.75 Q41.1 34.5 37.2 35.7 L20.45 41.1 Q16.8 42.25 15.2 39.0 L15.0 38.6 8.25 23.65 3.35 12.8 Q1.65 9.1 5.5 7.85 L22.25 2.5 Q26.05 1.25 27.75 4.95 L28.25 6.1 M9.15 13.6 Q8.4 14.45 7.1 14.4 L6.8 14.4 6.95 14.6 16.3 35.2 Q16.8 36.4 17.65 37.0 18.8 37.8 20.65 37.2 L34.0 32.9 33.7 32.1 Q33.45 30.9 34.1 30.1 34.75 29.3 35.95 29.35 L35.8 29.0 26.5 8.3 26.25 7.85 Q24.9 5.45 22.05 6.35 L9.1 10.55 9.55 11.6 Q9.8 12.8 9.15 13.6"/><path fill="none" stroke="#f0b92b" stroke-width="0.5" d="M9.15 13.6 Q9.8 12.8 9.55 11.6 L9.1 10.55 22.05 6.35 Q24.9 5.45 26.25 7.85 L26.5 8.3 35.8 29.0 35.95 29.35 Q34.75 29.3 34.1 30.1 33.45 30.9 33.7 32.1 L34.0 32.9 20.65 37.2 Q18.8 37.8 17.65 37.0 16.8 36.4 16.3 35.2 L6.95 14.6 6.8 14.4 7.1 14.4 Q8.4 14.45 9.15 13.6"/><path fill="none" stroke="#fcf2cf" stroke-width="1.0" d="M35.55 22.3 L39.35 30.75 Q41.1 34.5 37.2 35.7 L20.45 41.1 Q16.8 42.25 15.2 39.0 L15.0 38.6 M8.25 23.65 L3.35 12.8 Q1.65 9.1 5.5 7.85 L22.25 2.5 Q26.05 1.25 27.75 4.95 L28.25 6.1"/><path fill="none" stroke="#ffaa00" stroke-width="1.0" d="M28.25 6.1 L35.55 22.3 M15.0 38.6 L8.25 23.65"/></g><g id="c3"><path fill="#7fdbfe" stroke="none" d="M10.75 4.9 Q10.75 4.6 10.9 4.35 11.25 3.45 11.95 2.75 13.3 1.5 14.35 2.1 15.4 2.7 14.95 4.45 14.7 5.4 14.1 6.15 L13.75 6.5 Q13.1 7.15 12.35 7.35 L11.4 7.2 Q10.95 6.9 10.75 6.4 10.5 5.75 10.75 4.9 M7.5 5.9 Q7.0 5.85 6.6 5.5 6.05 5.0 5.8 4.15 L5.7 3.6 Q5.55 2.65 5.8 1.7 6.25 0.0 7.5 0.0 L7.6 0.0 Q8.85 0.0 9.3 1.7 9.55 2.65 9.4 3.6 L9.3 4.15 8.5 5.5 7.6 5.9 7.5 5.9 M4.35 4.9 Q4.6 5.75 4.35 6.4 L3.7 7.2 2.75 7.35 Q2.0 7.15 1.35 6.5 L1.0 6.15 Q0.4 5.4 0.15 4.45 -0.3 2.7 0.75 2.1 1.8 1.5 3.15 2.75 3.85 3.45 4.2 4.35 L4.35 4.9 M5.5 13.7 Q4.45 13.9 3.65 12.95 2.75 12.0 3.2 10.25 3.7 8.5 5.25 7.6 6.4 6.9 7.55 7.0 8.75 6.9 9.9 7.6 11.45 8.5 11.95 10.25 12.35 12.0 11.5 12.95 10.7 13.9 9.65 13.7 8.55 13.5 7.55 12.6 6.55 13.5 5.5 13.7"/></g><g id="c4"><g><use transform="matrix(1.0,0.0,0.0,1.0,0.0,0.0)" xlink:href="#c3"/></g></g><radialGradient gradientUnits="userSpaceOnUse" r="819.2" cx="0" cy="0" spreadMethod="pad" gradientTransform="matrix(0.0914459228516,0.0,0.0,0.0914459228516,0.6,3.4)" id="gradient1"><stop offset="0.0" stop-color="#ffffff"/><stop offset="1.0" stop-color="#ffffff" stop-opacity="0.0"/></radialGradient><g id="c5"><path stroke="none" fill="url(#gradient1)" d="M36.65 -54.65 Q60.05 -42.0 69.75 -17.95 80.55 8.9 68.0 34.1 55.45 59.35 26.8 68.2 -1.8 77.05 -29.7 64.3 -57.6 51.6 -68.45 24.75 -79.3 -2.05 -66.75 -27.25 L-66.7 -27.3 Q-54.1 -52.5 -25.5 -61.4 3.1 -70.2 31.0 -57.5 L36.65 -54.65"/></g><g id="c6"><g><use transform="matrix(1.0,0.0,0.0,1.0,0.0,0.0)" xlink:href="#c5"/></g></g><radialGradient gradientUnits="userSpaceOnUse" r="819.2" cx="0" cy="0" spreadMethod="pad" gradientTransform="matrix(0.209197998047,0.0,0.0,0.177108764648,67.15,107.2)" id="gradient2"><stop offset="0.356862745098" stop-color="#ffffff"/><stop offset="0.670588235294" stop-opacity="0.0"/></radialGradient><g id="c7"><path fill="none" stroke-linejoin="round" stroke-linecap="round" stroke="url(#gradient2)" stroke-width="0.5" d="M136.55 165.8 L68.6 106.0 68.4 106.0 118.25 201.5 M68.2 105.7 L68.25 105.8 68.25 105.75 68.2 105.7 0.0 45.7 M68.25 105.8 L68.3 105.85 68.3 105.8 68.25 105.75 49.95 0.05 M0.05 97.7 L68.15 105.95 68.25 105.85 68.25 105.8 M68.3 105.85 L68.25 105.85 68.3 106.0 68.3 105.85 68.3 105.8 68.35 105.8 68.3 105.8 86.6 18.35 M50.0 193.2 L68.3 106.0 68.15 105.95 18.25 151.55 M68.4 106.0 L68.3 106.0 86.55 211.5 M68.4 106.0 L68.3 105.85 M68.6 106.0 L68.35 105.8 118.25 60.15 M136.6 114.25 L68.6 106.0 M68.2 105.7 L18.25 10.05"/></g><g id="c8"><g><use transform="matrix(1.0,0.0,0.0,1.0,0.0,0.0)" xlink:href="#c7"/></g></g><g id="c9"><g><use transform="matrix(1.0,0.0,0.0,1.0,0.0,0.0)" xlink:href="#c2"/></g><g><use transform="matrix(0.238861083984,-0.0867004394531,0.10026550293,0.233917236328,34.25,31.15)" xlink:href="#c4"/></g><g><use transform="matrix(0.238861083984,-0.0867004394531,0.10026550293,0.233917236328,4.25,10.3)" xlink:href="#c4"/></g><g><use transform="matrix(0.141098022461,-0.0378112792969,0.111373901367,0.225646972656,20.25,20.65)" filter="url(#filter7)" xlink:href="#c6"/></g><g><use transform="matrix(-0.155029296875,0.0513153076172,0.0841827392578,0.147033691406,22.6,3.15)" filter="url(#filter8)" xlink:href="#c8"/></g></g><filter id="filter7"><feColorMatrix in="SourceGraphic" type="matrix" values="0.0 0.0 0.0 0.0 0.796875 0.0 0.0 0.0 0.0 0.59765625 0.0 0.0 0.0 0.0 0.19921875 0.0 0.0 0.0 1.0 0.0" result="cxform"/><feComposite operator="in" in2="SourceGraphic" result="color-xform"/></filter><filter id="filter8"><feColorMatrix in="SourceGraphic" type="matrix" values="0.0 0.0 0.0 0.0 0.99609375 0.0 0.0 0.0 0.0 0.99609375 0.0 0.0 0.0 0.0 0.99609375 0.0 0.0 0.0 1.0 0.0" result="cxform"/><feComposite operator="in" in2="SourceGraphic" result="color-xform"/></filter><radialGradient gradientUnits="userSpaceOnUse" r="819.2" cx="0" cy="0" spreadMethod="pad" gradientTransform="matrix(0.0255126953125,0.0,0.0,0.0268249511719,27.35,75.35)" id="gradient3"><stop offset="0.356862745098" stop-color="#ffffff"/><stop offset="0.670588235294" stop-opacity="0.0"/></radialGradient><g id="c10"><path fill="none" stroke-linejoin="round" stroke-linecap="round" stroke="url(#gradient3)" stroke-width="0.5" d="M7.05 61.6 Q7.5 60.95 8.45 60.5 9.1 60.05 10.1 59.7 L28.6 53.75 Q32.85 52.35 34.75 56.45 L47.65 85.05 Q49.25 88.5 46.5 90.05 45.8 90.65 44.6 91.0 L26.1 97.0 Q23.45 97.8 21.8 96.65 20.65 95.9 19.95 94.25 L7.0 65.6 Q5.85 63.1 7.05 61.6"/></g><linearGradient gradientUnits="userSpaceOnUse" x1="-819.2" x2="819.2" spreadMethod="pad" gradientTransform="matrix(0.0255126953125,0.0,0.0,0.0268249511719,20.9,21.95)" id="gradient4"><stop offset="0.0" stop-color="#f90013"/><stop offset="0.160784313725" stop-color="#ff99ff"/><stop offset="0.462745098039" stop-color="#66ffff"/><stop offset="0.721568627451" stop-color="#ff9900"/><stop offset="1.0" stop-color="#33ff00"/></linearGradient><g id="c11"><path stroke="none" fill="url(#gradient4)" d="M0.6 8.2 Q1.05 7.55 2.0 7.1 2.65 6.65 3.65 6.3 L22.15 0.35 Q26.4 -1.05 28.3 3.05 L41.2 31.65 Q42.8 35.1 40.05 36.65 39.35 37.25 38.15 37.6 L19.65 43.6 Q17.0 44.4 15.35 43.25 14.2 42.5 13.5 40.85 L0.55 12.2 Q-0.6 9.7 0.6 8.2"/></g><g id="c12"><g><use transform="matrix(1.0,0.0,0.0,1.0,0.0,0.0)" xlink:href="#c11"/></g></g><radialGradient gradientUnits="userSpaceOnUse" r="819.2" cx="0" cy="0" spreadMethod="pad" gradientTransform="matrix(0.000106811523438,0.00067138671875,-0.000656127929688,0.000106811523438,13.4,25.35)" id="gradient5"><stop offset="0.0" stop-color="#ffffff" stop-opacity="0.411764705882"/><stop offset="1.0" stop-color="#ffffff" stop-opacity="0.0"/></radialGradient><radialGradient gradientUnits="userSpaceOnUse" r="819.2" cx="0" cy="0" spreadMethod="pad" gradientTransform="matrix(-0.0009765625,-0.003173828125,-0.0042724609375,0.00392150878906,5.25,29.3)" id="gradient6"><stop offset="0.0" stop-color="#ffffff" stop-opacity="0.411764705882"/><stop offset="1.0" stop-color="#ffffff" stop-opacity="0.0"/></radialGradient><g id="c13"><path fill="#b4b4e7" stroke="none" d="M36.55 0.0 L36.2 0.2 Q34.05 1.5 32.2 2.8 L31.85 2.0 Q33.7 1.05 36.05 0.15 L36.55 0.0 M31.25 3.55 L29.95 4.55 29.5 3.25 31.15 2.3 31.25 3.55"/><path fill="#ffffff" stroke="none" d="M36.55 0.0 L36.05 0.15 Q33.7 1.05 31.85 2.0 L31.15 2.3 29.5 3.25 28.35 3.95 26.0 5.85 24.15 5.6 Q29.2 0.85 35.45 0.1 L36.55 0.0"/><path fill="#eaeaff" stroke="none" d="M19.1 11.55 L21.95 7.9 22.3 7.5 22.5 9.8 21.5 10.9 20.15 12.55 19.1 11.55"/><path fill="#6c6c9f" stroke="none" d="M22.6 12.3 L20.9 15.05 19.0 14.05 20.15 12.55 21.5 10.9 22.6 12.3 M19.55 17.75 L18.75 19.8 16.6 18.1 17.05 16.95 19.55 17.75"/><path fill="#7e7eb1" stroke="none" d="M28.8 5.55 Q26.95 7.15 25.45 8.8 L24.45 7.6 25.55 6.3 26.0 5.85 28.35 3.95 28.8 5.55 M24.05 10.45 L22.6 12.3 21.5 10.9 22.5 9.8 23.2 8.95 24.05 10.45 M18.75 19.8 L18.25 21.3 16.65 19.65 16.55 19.6 Q16.25 19.15 16.6 18.1 L18.75 19.8"/><path fill="#d8d8ff" stroke="none" d="M16.2 15.1 L19.1 11.55 20.15 12.55 19.0 14.05 17.85 15.85 17.8 15.8 16.2 15.1"/><path fill="#c6c6f9" stroke="none" d="M9.75 23.3 L16.2 15.1 17.8 15.8 17.7 15.95 17.05 16.95 16.6 18.1 Q16.25 19.15 16.55 19.6 16.1 19.45 15.5 19.6 14.85 19.7 14.3 20.15 13.3 20.9 12.3 22.45 L11.4 22.5 10.75 22.8 9.75 23.3"/><path fill="#5a5a8d" stroke="none" d="M19.8 17.15 L19.55 17.75 17.05 16.95 17.7 15.95 19.8 17.15"/><path fill="#9090c3" stroke="none" d="M31.85 2.0 L32.2 2.8 31.25 3.55 31.15 2.3 31.85 2.0 M29.95 4.55 L28.8 5.55 28.35 3.95 29.5 3.25 29.95 4.55 M25.45 8.8 L24.05 10.45 23.2 8.95 24.45 7.6 25.45 8.8 M20.9 15.05 L19.8 17.15 17.7 15.95 17.8 15.8 17.85 15.85 19.0 14.05 20.9 15.05"/><path fill="#fcfcff" stroke="none" d="M22.3 7.5 L24.15 5.6 26.0 5.85 25.55 6.3 24.45 7.6 23.2 8.95 22.5 9.8 22.3 7.5"/><path fill="#363669" stroke="none" d="M18.25 21.3 L16.2 21.35 15.5 19.6 Q16.1 19.45 16.55 19.6 L16.65 19.65 18.25 21.3 M14.35 22.85 Q13.0 24.2 11.5 26.6 11.05 24.9 12.0 23.6 L12.4 23.0 Q12.55 22.55 12.3 22.45 13.3 20.9 14.3 20.15 L14.35 22.85"/><path fill="#666691" stroke="none" d="M16.2 21.35 Q15.4 21.75 14.35 22.85 L14.3 20.15 Q14.85 19.7 15.5 19.6 L16.2 21.35"/><path fill="#dedeab" stroke="none" d="M9.55 28.95 L9.75 29.25 9.8 29.25 9.75 29.3 Q9.35 29.45 8.95 29.75 L7.65 27.8 6.65 26.4 5.35 28.7 4.75 28.15 4.8 28.0 Q5.3 28.1 6.15 25.8 L6.95 25.7 7.35 26.15 7.9 26.9 8.8 28.05 9.55 28.95 M5.5 33.75 L5.5 34.6 3.8 32.5 4.55 35.05 Q3.85 36.2 2.9 35.4 L2.45 34.15 1.8 33.55 1.9 32.95 2.85 31.75 3.7 31.85 3.8 32.0 4.05 32.3 4.15 32.35 5.5 33.75 M2.8 31.45 Q3.8 30.5 4.75 28.55 L5.75 30.1 6.45 31.2 2.8 31.45"/><path fill="#e2c1ad" stroke="none" d="M6.95 25.7 Q8.1 24.25 9.75 23.3 L10.75 22.8 11.4 22.5 12.3 22.45 Q12.55 22.55 12.4 23.0 11.55 22.45 10.0 23.95 L9.8 24.05 7.35 26.15 6.95 25.7"/><path fill="#ab7845" stroke="none" d="M11.5 26.6 L11.65 27.25 11.85 27.9 11.4 27.45 Q10.4 26.35 10.65 24.9 L9.25 25.85 9.15 25.85 9.0 25.8 8.65 26.05 8.6 26.1 8.55 26.2 7.9 26.9 7.35 26.15 9.8 24.05 10.0 23.95 Q11.55 22.45 12.4 23.0 L12.0 23.6 Q11.05 24.9 11.5 26.6 M0.2 38.1 Q-0.15 37.45 0.05 36.35 0.7 34.95 1.55 33.8 L1.8 33.55 2.45 34.15 1.95 34.9 2.1 35.15 1.75 35.3 1.2 36.35 Q0.25 37.3 0.2 38.1"/><path fill="#8f6439" stroke="none" d="M0.25 38.15 L0.2 38.1 Q0.25 37.3 1.2 36.35 L1.05 38.0 Q0.7 38.45 0.25 38.15 M9.25 25.85 L10.65 24.9 Q10.4 26.35 11.4 27.45 L8.8 28.05 7.9 26.9 8.55 26.2 8.4 26.6 8.55 27.0 9.0 27.05 9.45 26.75 9.65 26.3 9.45 25.95 9.25 25.85"/><path fill="#69492a" stroke="none" d="M11.85 27.9 L11.9 28.0 Q11.8 28.5 11.05 28.55 L11.0 28.55 9.8 28.85 9.55 28.95 8.8 28.05 11.4 27.45 11.85 27.9 M3.85 37.6 L3.1 38.55 Q1.85 39.25 0.95 38.8 L0.25 38.15 Q0.7 38.45 1.05 38.0 L1.2 36.35 1.75 35.3 2.1 35.15 1.95 34.9 2.45 34.15 2.9 35.4 3.85 37.6 M2.3 36.15 L1.9 36.05 1.6 36.25 1.45 36.6 1.65 36.95 2.05 37.05 2.15 37.05 2.4 36.9 2.5 36.5 2.45 36.4 2.3 36.15"/><path fill="#cccc99" stroke="none" d="M7.65 30.95 L7.65 31.0 7.55 31.55 7.3 31.15 5.35 28.7 6.65 26.4 7.65 27.8 7.65 28.05 8.5 29.7 7.6 29.3 Q3.95 26.75 7.65 30.95 M6.05 32.8 L6.0 33.6 Q5.8 33.85 5.5 33.75 L4.15 32.35 6.05 32.8"/><path fill="#a8a87d" stroke="none" d="M8.95 29.75 L8.25 30.35 7.65 30.95 Q3.95 26.75 7.6 29.3 L8.5 29.7 7.65 28.05 7.65 27.8 8.95 29.75"/><path fill="#878765" stroke="none" d="M7.3 31.15 L7.05 31.65 5.75 30.1 4.75 28.55 4.75 28.15 5.35 28.7 7.3 31.15 M6.25 32.25 L6.05 32.8 4.15 32.35 4.05 32.3 3.8 32.0 6.25 32.25"/><path fill="#6e6e52" stroke="none" d="M7.05 31.65 L6.75 32.35 6.25 32.25 3.8 32.0 3.7 31.85 2.85 31.75 2.8 31.45 6.45 31.2 5.75 30.1 7.05 31.65 M5.5 34.6 Q4.45 36.1 4.25 37.65 L3.85 37.6 2.9 35.4 Q3.85 36.2 4.55 35.05 L3.8 32.5 5.5 34.6"/><path fill="none" stroke="#ffffff" stroke-width="0.75" stroke-opacity="0.501960784314" d="M36.55 0.0 L36.05 0.15 Q33.7 1.05 31.85 2.0 M20.15 12.55 L21.5 10.9 22.5 9.8 M16.6 18.1 L17.05 16.95 17.7 15.95 M19.0 14.05 L17.85 15.85 M20.15 12.55 L19.0 14.05 M31.15 2.3 L29.5 3.25 28.35 3.95 26.0 5.85 25.55 6.3 24.45 7.6 23.2 8.95 22.5 9.8 M31.15 2.3 L31.85 2.0 M14.3 20.15 Q14.85 19.7 15.5 19.6 16.1 19.45 16.55 19.6 16.25 19.15 16.6 18.1 M14.3 20.15 Q13.3 20.9 12.3 22.45"/><path fill="none" stroke="#000000" stroke-width="0.5" stroke-opacity="0.301960784314" d="M32.2 2.8 Q34.05 1.5 36.2 0.2 L36.55 0.0 M32.2 2.8 L31.25 3.55 29.95 4.55 28.8 5.55 Q26.95 7.15 25.45 8.8 L24.05 10.45 22.6 12.3 20.9 15.05 19.8 17.15 19.55 17.75 18.75 19.8 18.25 21.3 16.2 21.35 Q15.4 21.75 14.35 22.85 13.0 24.2 11.5 26.6 L11.65 27.25 11.85 27.9 M11.9 28.0 Q11.8 28.5 11.05 28.55 L11.0 28.55 9.8 28.85 9.55 28.95 9.75 29.25 9.8 29.25 9.75 29.3 Q9.35 29.45 8.95 29.75 L8.25 30.35 7.65 30.95 M7.65 31.0 L7.55 31.55 7.3 31.15 7.05 31.65 6.75 32.35 6.25 32.25 6.05 32.8 6.0 33.6 Q5.8 33.85 5.5 33.75 L5.5 34.6 Q4.45 36.1 4.25 37.65 L3.85 37.6 3.1 38.55 Q1.85 39.25 0.95 38.8 L0.25 38.15 0.2 38.1 Q-0.15 37.45 0.05 36.35 0.7 34.95 1.55 33.8 L1.8 33.55 1.9 32.95 2.85 31.75 2.8 31.45 Q3.8 30.5 4.75 28.55 L4.75 28.15 4.8 28.0 Q5.3 28.1 6.15 25.8 L6.95 25.7 Q8.1 24.25 9.75 23.3 L16.2 15.1 19.1 11.55 21.95 7.9 22.3 7.5 24.15 5.6 Q29.2 0.85 35.45 0.1 L36.55 0.0 M16.55 19.6 L16.65 19.65 18.25 21.3 M12.3 22.45 Q12.55 22.55 12.4 23.0 L12.0 23.6 Q11.05 24.9 11.5 26.6 M6.95 25.7 L7.35 26.15 7.9 26.9 8.8 28.05 9.55 28.95 M9.75 23.3 L10.75 22.8 11.4 22.5 12.3 22.45 M5.35 28.7 L7.3 31.15 M5.35 28.7 L4.75 28.15 M3.8 32.0 L3.7 31.85 2.85 31.75 M4.05 32.3 L3.8 32.0 6.25 32.25 M4.15 32.35 L5.5 33.75 M2.9 35.4 L3.85 37.6 M2.45 34.15 L1.8 33.55 M2.45 34.15 L2.9 35.4"/><path fill="none" stroke="#000000" stroke-width="0.5" stroke-opacity="0.4" d="M9.25 25.85 L9.45 25.95 9.65 26.3 9.45 26.75 9.0 27.05 8.55 27.0 8.4 26.6 8.55 26.2 M2.3 36.15 L2.45 36.4 2.5 36.5 2.4 36.9 2.15 37.05 2.05 37.05 1.65 36.95 1.45 36.6 1.6 36.25 1.9 36.05 2.3 36.15"/><path fill="none" stroke="#000000" stroke-width="0.5" stroke-opacity="0.290196078431" d="M8.5 26.4 L7.8 26.65 M11.6 26.8 Q11.2 27.9 10.35 28.5 M11.3 25.25 L10.75 26.25 Q9.9 27.45 8.8 27.85 M8.8 25.35 Q9.55 25.4 10.65 24.0 9.15 24.7 8.8 25.35 M12.45 22.7 Q9.9 23.5 7.3 25.8 M11.8 23.75 L9.6 25.9 M2.45 33.95 Q0.85 35.85 0.5 38.3 M3.25 35.75 Q2.55 36.7 1.8 38.8 M3.55 36.65 Q3.1 37.95 2.2 38.85"/><path stroke="none" fill="url(#gradient5)" d="M14.25 25.3 L14.15 25.35 12.75 25.2 12.7 25.0 14.2 24.9 Q14.4 25.0 14.25 25.3"/><path stroke="none" fill="url(#gradient6)" d="M10.5 23.95 L9.85 24.35 Q3.7 28.8 1.75 34.05 1.2 35.6 2.0 35.15 5.8 29.55 11.2 25.5 12.1 24.0 10.5 23.95"/></g><radialGradient gradientUnits="userSpaceOnUse" r="819.2" cx="0" cy="0" spreadMethod="pad" gradientTransform="matrix(0.0001220703125,0.000411987304688,-0.000396728515625,0.0001220703125,7.65,17.9)" id="gradient7"><stop offset="0.0" stop-color="#ffffff" stop-opacity="0.411764705882"/><stop offset="1.0" stop-color="#ffffff" stop-opacity="0.0"/></radialGradient><radialGradient gradientUnits="userSpaceOnUse" r="819.2" cx="0" cy="0" spreadMethod="pad" gradientTransform="matrix(-0.0008544921875,-0.001953125,-0.00239562988281,0.00283813476562,2.85,20.95)" id="gradient8"><stop offset="0.0" stop-color="#ffffff" stop-opacity="0.411764705882"/><stop offset="1.0" stop-color="#ffffff" stop-opacity="0.0"/></radialGradient><g id="c14"><path fill="#d8d8ff" stroke="none" d="M10.15 10.25 L9.6 11.5 9.5 11.45 8.5 11.15 10.0 8.65 10.75 9.2 10.15 10.25"/><path fill="#6c6c9f" stroke="none" d="M11.4 10.75 L10.15 10.25 10.75 9.2 11.45 8.1 12.3 8.85 11.4 10.75 M10.45 13.9 L8.95 13.0 9.15 12.2 10.8 12.55 10.45 13.9"/><path fill="#eaeaff" stroke="none" d="M11.45 8.1 L10.75 9.2 10.0 8.65 11.5 6.15 11.7 5.85 11.95 7.3 11.45 8.1"/><path fill="#9090c3" stroke="none" d="M10.15 10.25 L11.4 10.75 10.9 12.1 9.45 11.55 9.5 11.45 9.6 11.5 10.15 10.25 M15.2 3.15 L15.85 2.6 16.25 3.4 15.6 4.15 15.2 3.15 M16.85 1.9 L17.2 1.65 17.55 2.15 17.05 2.65 16.85 1.9 M13.75 6.5 L13.05 7.55 12.35 6.7 13.05 5.75 13.75 6.5"/><path fill="#ffffff" stroke="none" d="M20.05 0.0 L19.75 0.2 Q18.3 0.9 17.2 1.65 L16.85 1.9 15.85 2.6 15.2 3.15 13.85 4.55 12.7 4.5 Q15.5 1.1 19.35 0.15 L20.05 0.0"/><path fill="#b4b4e7" stroke="none" d="M17.2 1.65 Q18.3 0.9 19.75 0.2 L20.05 0.0 19.85 0.2 17.55 2.15 17.2 1.65 M15.85 2.6 L16.85 1.9 17.05 2.65 16.25 3.4 15.85 2.6"/><path fill="#7e7eb1" stroke="none" d="M12.3 8.85 L11.45 8.1 11.95 7.3 12.35 6.7 13.05 7.55 12.3 8.85 M13.85 4.55 L15.2 3.15 15.6 4.15 13.75 6.5 13.05 5.75 13.65 4.85 13.85 4.55 M10.25 14.85 L9.15 13.95 9.1 13.9 Q8.8 13.65 8.95 13.0 L10.45 13.9 10.25 14.85"/><path fill="#fcfcff" stroke="none" d="M12.7 4.5 L13.85 4.55 13.65 4.85 13.05 5.75 12.35 6.7 11.95 7.3 11.7 5.85 12.7 4.5"/><path fill="#6e6e52" stroke="none" d="M1.4 22.65 L1.35 22.5 3.65 22.05 3.1 21.4 4.05 22.3 3.9 22.75 3.6 22.7 2.0 22.7 1.9 22.7 1.4 22.65 M2.5 26.25 L1.8 25.0 Q2.4 25.45 2.7 24.6 L2.05 23.1 3.3 24.2 Q2.75 25.3 2.75 26.25 L2.5 26.25"/><path fill="#ab7845" stroke="none" d="M0.8 24.05 L0.85 23.9 1.35 24.25 1.15 24.7 0.8 24.05 M5.45 18.0 L4.95 18.5 4.9 18.5 4.8 18.45 4.55 18.65 4.55 18.75 4.5 18.85 4.2 19.25 3.8 18.8 5.2 17.25 5.45 18.0"/><path fill="#dedeab" stroke="none" d="M1.35 22.5 Q1.9 21.85 2.3 20.55 L3.1 21.4 3.65 22.05 1.35 22.5 M2.3 20.25 L2.3 20.15 Q2.65 20.2 3.0 18.7 3.25 18.4 3.55 18.5 L3.8 18.8 4.2 19.25 4.85 19.85 5.4 20.4 5.6 20.55 5.55 20.55 5.1 20.95 4.1 19.85 3.35 18.95 2.75 20.6 2.3 20.25 M1.35 24.25 L0.85 23.9 0.9 23.5 1.4 22.65 1.9 22.7 2.0 22.7 2.2 22.95 2.25 22.9 3.2 23.7 3.3 24.2 2.05 23.1 2.7 24.6 Q2.4 25.45 1.8 25.0 L1.35 24.25"/><path fill="#69492a" stroke="none" d="M1.15 24.7 L1.35 24.25 1.8 25.0 2.5 26.25 2.15 26.9 Q1.35 27.45 0.75 27.25 L0.3 26.95 Q0.6 27.05 0.8 26.75 L0.7 25.7 0.75 25.65 0.75 25.6 1.0 25.0 1.2 24.85 1.15 24.7 M1.15 25.45 L1.0 25.6 Q0.9 25.75 0.95 25.85 L1.1 26.05 1.3 26.05 1.4 26.05 1.55 25.95 1.5 25.7 1.5 25.65 1.45 25.5 1.15 25.45 M4.85 19.85 L6.45 19.3 6.75 19.55 6.8 19.6 6.3 20.0 5.6 20.3 5.4 20.4 4.85 19.85"/><path fill="#ab7845" stroke="none" d="M0.8 24.05 L1.15 24.7 1.2 24.85 1.0 25.0 0.75 25.6 0.75 25.65 0.7 25.7 Q0.2 26.35 0.25 26.9 0.0 26.55 0.0 25.8 L0.8 24.05 M6.7 16.45 L6.5 16.8 Q5.95 17.7 6.4 18.8 L6.6 19.15 6.75 19.55 6.45 19.3 Q5.75 18.65 5.75 17.75 L5.45 18.0 5.2 17.25 5.25 17.15 Q6.15 16.15 6.7 16.45"/><path fill="#8f6439" stroke="none" d="M0.7 25.7 L0.8 26.75 Q0.6 27.05 0.3 26.95 L0.25 26.9 Q0.2 26.35 0.7 25.7 M5.45 18.0 L5.75 17.75 Q5.75 18.65 6.45 19.3 L4.85 19.85 4.2 19.25 4.5 18.85 4.5 18.95 4.65 19.2 4.9 19.25 5.2 19.0 5.2 18.75 5.1 18.5 4.95 18.5 5.45 18.0"/><path fill="#363669" stroke="none" d="M9.1 13.9 L9.15 13.95 10.25 14.85 Q9.65 14.55 8.95 15.05 L8.4 14.05 9.1 13.9 M7.65 14.45 L7.95 16.15 Q7.2 17.1 6.4 18.8 5.95 17.7 6.5 16.8 L6.7 16.45 6.6 16.05 Q7.1 14.95 7.65 14.45"/><path fill="#5a5a8d" stroke="none" d="M9.45 11.55 L10.9 12.1 10.8 12.55 9.15 12.2 9.45 11.55"/><path fill="#c6c6f9" stroke="none" d="M9.5 11.45 L9.45 11.55 9.15 12.2 8.95 13.0 Q8.8 13.65 9.1 13.9 L8.4 14.05 Q8.05 14.1 7.65 14.45 7.1 14.95 6.6 16.05 L6.05 16.15 5.6 16.4 5.1 16.8 8.5 11.15 9.5 11.45"/><path fill="#e2c1ad" stroke="none" d="M3.55 18.5 Q4.1 17.55 5.1 16.8 L5.6 16.4 6.05 16.15 6.6 16.05 6.7 16.45 Q6.15 16.15 5.25 17.15 L5.2 17.25 3.8 18.8 3.55 18.5"/><path fill="#666691" stroke="none" d="M8.4 14.05 L8.95 15.05 7.95 16.15 7.65 14.45 Q8.05 14.1 8.4 14.05"/><path fill="#cccc99" stroke="none" d="M4.1 19.85 L4.15 20.0 4.8 20.9 4.2 20.8 Q1.7 19.4 4.4 21.8 L4.35 21.8 4.3 22.2 4.1 21.9 2.75 20.6 3.35 18.95 4.1 19.85 M3.5 23.05 L3.5 23.6 3.2 23.7 2.25 22.9 3.5 23.05"/><path fill="#a8a87d" stroke="none" d="M4.4 21.8 Q1.7 19.4 4.2 20.8 L4.8 20.9 4.15 20.0 4.1 19.85 5.1 20.95 4.65 21.35 4.4 21.8"/><path fill="#878765" stroke="none" d="M2.3 20.55 L2.3 20.25 2.75 20.6 4.1 21.9 4.05 22.3 3.1 21.4 2.3 20.55 M2.0 22.7 L3.6 22.7 3.5 23.05 2.25 22.9 2.2 22.95 2.0 22.7"/><path fill="none" stroke="#ffffff" stroke-width="0.75" stroke-opacity="0.501960784314" d="M10.15 10.25 L9.6 11.5 M11.45 8.1 L10.75 9.2 10.15 10.25 M17.2 1.65 Q18.3 0.9 19.75 0.2 L20.05 0.0 M13.85 4.55 L15.2 3.15 15.85 2.6 16.85 1.9 17.2 1.65 M13.05 5.75 L12.35 6.7 11.95 7.3 11.45 8.1 M13.05 5.75 L13.65 4.85 13.85 4.55 M9.1 13.9 L8.4 14.05 M8.95 13.0 Q8.8 13.65 9.1 13.9 M9.15 12.2 L9.45 11.55 M7.65 14.45 Q7.1 14.95 6.6 16.05 M7.65 14.45 Q8.05 14.1 8.4 14.05 M8.95 13.0 L9.15 12.2"/><path fill="none" stroke="#000000" stroke-width="0.5" stroke-opacity="0.301960784314" d="M10.9 12.1 L11.4 10.75 12.3 8.85 M11.7 5.85 L11.5 6.15 10.0 8.65 8.5 11.15 M20.05 0.0 L19.35 0.15 Q15.5 1.1 12.7 4.5 M17.55 2.15 L19.85 0.2 20.05 0.0 M17.05 2.65 L17.55 2.15 M17.05 2.65 L16.25 3.4 15.6 4.15 13.75 6.5 13.05 7.55 12.3 8.85 M11.7 5.85 L12.7 4.5 M1.4 22.65 L1.35 22.5 Q1.9 21.85 2.3 20.55 L2.3 20.25 2.3 20.15 Q2.65 20.2 3.0 18.7 3.25 18.4 3.55 18.5 4.1 17.55 5.1 16.8 L8.5 11.15 M0.85 23.9 L0.8 24.05 0.0 25.8 Q0.0 26.55 0.25 26.9 L0.3 26.95 0.75 27.25 Q1.35 27.45 2.15 26.9 L2.5 26.25 1.8 25.0 1.35 24.25 0.85 23.9 0.9 23.5 1.4 22.65 1.9 22.7 2.0 22.7 3.6 22.7 3.9 22.75 4.05 22.3 M10.25 14.85 L9.15 13.95 9.1 13.9 M8.95 15.05 Q9.65 14.55 10.25 14.85 L10.45 13.9 10.8 12.55 10.9 12.1 M6.6 16.05 L6.7 16.45 6.5 16.8 Q5.95 17.7 6.4 18.8 7.2 17.1 7.95 16.15 L8.95 15.05 M5.1 16.8 L5.6 16.4 6.05 16.15 6.6 16.05 M4.2 19.25 L4.85 19.85 M6.75 19.55 L6.6 19.15 6.4 18.8 M4.4 21.8 L4.65 21.35 5.1 20.95 M2.75 20.6 L4.1 21.9 4.3 22.2 4.35 21.8 M3.8 18.8 L4.2 19.25 M3.55 18.5 L3.8 18.8 M2.2 22.95 L2.0 22.7 M3.6 22.7 L3.5 23.05 3.5 23.6 3.2 23.7 3.3 24.2 Q2.75 25.3 2.75 26.25 L2.5 26.25 M2.25 22.9 L3.2 23.7 M5.4 20.4 L5.6 20.55 5.55 20.55 5.1 20.95 M6.8 19.6 L6.3 20.0 5.6 20.3 5.4 20.4 4.85 19.85 M4.1 21.9 L4.05 22.3 M2.3 20.25 L2.75 20.6"/><path fill="none" stroke="#000000" stroke-width="0.5" stroke-opacity="0.4" d="M1.15 25.45 L1.45 25.5 1.5 25.65 1.5 25.7 1.55 25.95 1.4 26.05 1.3 26.05 1.1 26.05 0.95 25.85 Q0.9 25.75 1.0 25.6 L1.15 25.45 M4.95 18.5 L5.1 18.5 5.2 18.75 5.2 19.0 4.9 19.25 4.65 19.2 4.5 18.95 4.5 18.85 M4.55 18.75 L4.5 18.85"/><path fill="none" stroke="#000000" stroke-width="0.5" stroke-opacity="0.290196078431" d="M4.5 18.85 L4.05 19.05 M6.45 18.85 Q6.35 19.6 5.85 20.05 M6.2 17.9 L5.9 18.55 4.85 19.75 M4.55 18.2 L5.7 17.2 Q4.8 17.7 4.55 18.2 M6.65 16.2 Q5.15 16.9 3.7 18.6 M6.35 16.9 L5.15 18.45 M1.3 24.1 Q0.45 25.4 0.45 26.95 M1.9 25.15 Q1.6 25.8 1.25 27.2 M2.2 25.7 L1.55 27.2"/><path stroke="none" fill="url(#gradient7)" d="M8.2 17.85 L8.15 17.85 Q7.65 18.1 7.25 17.85 L7.2 17.75 8.15 17.6 8.2 17.85"/><path stroke="none" fill="url(#gradient8)" d="M5.6 17.2 L5.25 17.55 Q1.75 20.85 0.95 24.3 0.7 25.3 1.15 24.95 3.1 21.1 6.2 18.2 6.6 17.2 5.6 17.2"/></g><g id="c15"><g><use transform="matrix(1.0,0.0,0.0,1.0,0.0,0.0)" xlink:href="#c14"/></g></g><g id="c16"><g><use transform="matrix(1.0,0.0,0.0,1.0,0.0,0.0)" xlink:href="#c13"/></g><g><use transform="matrix(1.2214050293,0.0,0.0,1.2214050293,12.05,4.3)" filter="url(#filter12)" xlink:href="#c15"/></g></g><filter id="filter12"><feColorMatrix in="SourceGraphic" type="matrix" values="0.69921875 0.0 0.0 0.0 0.0 0.0 0.69921875 0.0 0.0 0.0 0.0 0.0 0.69921875 0.0 0.0 0.0 0.0 0.0 1.0 0.0" result="cxform"/><feComposite operator="in" in2="SourceGraphic" result="color-xform"/></filter><g id="c17"><path fill="none" stroke="#ffcc00" stroke-width="0.5" d="M7.05 61.6 Q7.5 60.95 8.45 60.5 9.1 60.05 10.1 59.7 L28.6 53.75 Q32.85 52.35 34.75 56.45 L47.65 85.05 Q49.25 88.5 46.5 90.05 45.8 90.65 44.6 91.0 L26.1 97.0 Q23.45 97.8 21.8 96.65 20.65 95.9 19.95 94.25 L7.0 65.6 Q5.85 63.1 7.05 61.6"/></g><g id="c18"><path fill="#ffffff" stroke="none" d="M7.05 61.6 Q7.5 60.95 8.45 60.5 9.1 60.05 10.1 59.7 L28.6 53.75 Q32.85 52.35 34.75 56.45 L47.65 85.05 Q49.25 88.5 46.5 90.05 45.8 90.65 44.6 91.0 L26.1 97.0 Q23.45 97.8 21.8 96.65 20.65 95.9 19.95 94.25 L7.0 65.6 Q5.85 63.1 7.05 61.6"/><path fill="#ffffff" stroke-linejoin="round" stroke-linecap="round" stroke="url(#gradient3)" stroke-width="0.5" d="M7.05 61.6 Q7.5 60.95 8.45 60.5 9.1 60.05 10.1 59.7 L28.6 53.75 Q32.85 52.35 34.75 56.45 L47.65 85.05 Q49.25 88.5 46.5 90.05 45.8 90.65 44.6 91.0 L26.1 97.0 Q23.45 97.8 21.8 96.65 20.65 95.9 19.95 94.25 L7.0 65.6 Q5.85 63.1 7.05 61.6"/></g><linearGradient gradientUnits="userSpaceOnUse" x1="-819.2" x2="819.2" spreadMethod="pad" gradientTransform="matrix(-0.0125732421875,0.0358276367188,-0.0249176025391,-0.0237579345703,24.2,32.05)" id="gradient10"><stop offset="0.0" stop-opacity="0.337254901961"/><stop offset="1.0" stop-opacity="0.0"/></linearGradient><linearGradient gradientUnits="userSpaceOnUse" x1="-819.2" x2="819.2" spreadMethod="pad" gradientTransform="matrix(-0.00735473632812,0.0306396484375,-0.0266723632812,-0.0176086425781,34.25,44.6)" id="gradient11"><stop offset="0.0" stop-opacity="0.337254901961"/><stop offset="1.0" stop-opacity="0.0"/></linearGradient><linearGradient gradientUnits="userSpaceOnUse" x1="-819.2" x2="819.2" spreadMethod="pad" gradientTransform="matrix(-0.00982666015625,0.0313873291016,-0.0181274414062,-0.0154724121094,4.1,17.85)" id="gradient12"><stop offset="0.0" stop-opacity="0.337254901961"/><stop offset="1.0" stop-opacity="0.0"/></linearGradient><linearGradient gradientUnits="userSpaceOnUse" x1="-819.2" x2="819.2" spreadMethod="pad" gradientTransform="matrix(0.0,0.0410766601562,-0.0333709716797,-0.0151062011719,15.9,32.85)" id="gradient13"><stop offset="0.0" stop-opacity="0.337254901961"/><stop offset="1.0" stop-opacity="0.0"/></linearGradient><g id="c19"><path stroke="none" fill="url(#gradient10)" d="M21.35 46.7 L21.35 1.75 26.45 1.75 26.45 46.7 21.35 46.7"/><path stroke="none" fill="url(#gradient11)" d="M31.7 5.7 L36.8 5.55 36.8 46.7 31.7 46.7 31.7 5.7"/><path stroke="none" fill="url(#gradient12)" d="M0.0 6.65 L5.1 6.45 5.1 46.7 0.0 46.7 0.0 6.65"/><path stroke="none" fill="url(#gradient13)" d="M9.35 46.7 L9.65 1.75 15.75 1.75 15.0 46.7 9.35 46.7"/></g><g id="c20"><g><use transform="matrix(1.0,0.0,0.0,1.0,0.0,0.0)" xlink:href="#c19"/></g></g><g id="c21"><path fill="#fefd8d" fill-opacity="0.972549019608" d="M33.85 83.75 L33.85 83.8 33.85 83.95 33.85 84.0 33.85 84.1 33.9 84.1 33.9 84.15 34.35 84.4 34.85 84.75 34.35 84.45 34.1 84.3 34.05 84.25 33.95 84.2 33.9 84.2 33.9 84.7 33.9 85.25 33.85 84.75 33.75 84.2 33.7 84.1 33.5 84.25 33.0 84.55 32.7 84.7 32.95 84.5 33.4 84.3 33.45 84.25 33.5 84.2 33.7 84.1 33.65 84.05 33.7 84.05 33.7 84.0 33.3 83.6 32.95 83.25 33.3 83.55 33.55 83.8 33.7 83.95 33.8 83.4 33.9 82.95 33.85 83.35 33.85 83.75 M34.4 83.9 L34.35 83.9 34.25 84.0 34.15 84.0 33.9 84.05 34.15 83.95 34.7 83.75 35.2 83.65 34.85 83.75 34.95 83.85 34.85 83.75 34.7 83.8 34.4 83.9 M36.75 85.45 L36.9 85.55 36.9 85.5 37.1 83.9 37.35 82.3 37.45 81.75 37.4 82.25 37.4 83.85 37.2 85.6 37.35 86.0 37.4 86.1 38.7 86.9 40.15 87.75 40.55 88.05 40.1 87.8 38.75 87.05 37.75 86.45 37.4 86.25 37.35 86.2 37.4 86.3 37.5 87.75 37.55 89.45 37.6 90.0 37.5 89.5 37.25 87.9 37.05 86.25 37.0 86.3 36.9 85.9 36.7 85.75 36.9 85.85 36.9 85.65 35.7 84.55 34.95 83.85 35.65 84.4 36.45 85.15 36.5 85.2 36.75 85.45 M36.1 86.45 L36.2 86.4 36.85 86.1 36.3 86.45 34.8 87.25 33.35 88.0 32.8 88.25 33.3 88.0 34.65 87.2 35.7 86.65 36.1 86.45 M41.85 84.45 L41.35 84.6 39.85 85.15 38.15 85.7 37.5 85.9 Q37.45 85.85 38.1 85.65 L39.7 85.1 41.3 84.6 41.85 84.45"/><path fill="#fffd8f" fill-opacity="0.4" d="M33.85 83.75 L34.05 83.4 34.25 83.2 34.15 83.4 34.0 83.8 33.9 83.9 33.85 83.8 33.85 83.75 M34.1 84.3 L34.35 84.5 34.45 84.65 34.25 84.5 34.0 84.3 33.95 84.2 34.05 84.25 34.1 84.3 M33.4 84.3 L33.3 84.3 32.95 84.45 32.7 84.55 32.95 84.4 33.35 84.25 33.45 84.25 33.4 84.3 M33.55 83.8 L33.4 83.6 33.6 83.8 33.65 83.9 33.55 83.8 M34.4 83.9 L34.65 83.85 34.95 83.85 35.05 83.8 34.95 83.85 34.7 83.9 34.3 84.0 34.2 84.0 34.25 84.0 34.35 83.9 34.4 83.9 M33.6 84.3 L33.7 84.2 33.75 84.35 33.65 84.7 33.55 85.05 33.55 84.75 33.6 84.3 M37.65 85.15 L37.35 85.5 37.35 85.0 37.9 84.05 38.5 83.1 38.7 82.75 38.55 83.1 38.15 84.05 37.65 85.15 M36.75 85.45 L36.5 85.2 36.45 85.15 35.85 84.4 35.45 83.85 35.95 84.3 36.65 85.15 36.9 85.5 36.75 85.45 M37.4 86.3 L37.35 86.2 37.4 86.25 37.75 86.45 Q38.15 86.7 38.6 87.1 L39.3 87.75 38.5 87.15 37.6 86.5 37.4 86.3 M36.1 86.45 L35.7 86.65 34.7 87.0 33.8 87.3 34.7 86.95 35.75 86.5 36.1 86.45 M38.7 85.65 L38.25 85.7 38.7 85.55 39.75 85.35 40.7 85.2 41.05 85.15 40.75 85.25 39.8 85.45 38.7 85.65 M36.7 86.7 L36.95 86.25 37.0 86.75 36.65 87.8 36.3 88.85 36.15 89.25 36.25 88.85 36.4 87.85 Q36.5 87.1 36.7 86.7"/><path fill="#fffd8f" fill-opacity="0.392156862745" d="M38.0 86.75 Q37.9 86.0 37.45 85.8 L36.9 85.85 Q36.75 86.1 36.9 86.5 37.1 87.0 37.65 87.3 L38.35 87.95 38.6 88.25 38.45 87.85 38.0 86.75"/><path fill="#fffd8f" fill-opacity="0.392156862745" d="M38.0 86.25 L37.05 85.85 Q36.8 85.8 36.95 85.95 L37.55 86.35 38.35 86.6 Q38.8 86.65 39.05 86.85 L39.35 86.95 39.0 86.75 38.0 86.25"/><path fill="#fffd8f" fill-opacity="0.392156862745" d="M36.4 84.8 Q36.35 85.55 36.75 85.85 L37.3 85.9 37.45 85.25 Q37.35 84.75 36.9 84.35 36.35 83.9 36.3 83.55 L36.1 83.25 36.2 83.65 36.4 84.8"/><path fill="#fffd8f" fill-opacity="0.392156862745" d="M36.25 85.35 L37.1 85.95 37.2 85.8 36.75 85.3 35.95 84.9 Q35.55 84.75 35.3 84.6 L35.05 84.45 35.35 84.65 36.25 85.35"/><path fill="#fffd8f" fill-opacity="0.392156862745" d="M38.75 85.2 Q38.0 85.45 37.85 85.65 37.7 85.85 37.85 85.8 L38.5 85.65 39.25 85.2 39.9 84.75 40.15 84.6 39.75 84.75 38.75 85.2"/><path fill="#fffd8f" fill-opacity="0.392156862745" d="M35.75 87.0 L36.6 86.4 36.5 86.25 Q36.25 86.25 35.9 86.5 L35.25 87.1 34.7 87.65 Q34.4 87.8 34.45 87.85 L34.8 87.6 35.75 87.0"/><path fill="#fffd8f" fill-opacity="0.392156862745" d="M34.1 84.35 L33.95 84.05 33.75 84.05 Q33.65 84.1 33.7 84.25 L34.0 84.55 34.2 84.75 34.3 84.85 34.2 84.75 34.1 84.35"/><path fill="#fffd8f" fill-opacity="0.392156862745" d="M34.1 84.2 Q33.9 84.05 33.75 84.05 L33.75 84.1 33.95 84.2 34.2 84.3 34.5 84.4 34.55 84.4 34.45 84.4 34.1 84.2"/><path fill="#fffd8f" fill-opacity="0.392156862745" d="M33.5 83.65 L33.65 84.05 33.85 84.05 33.9 83.85 33.65 83.55 33.5 83.25 33.45 83.15 33.5 83.25 33.5 83.65"/><path fill="#fffd8f" fill-opacity="0.392156862745" d="M33.5 83.9 L33.75 84.05 33.8 84.0 33.65 83.85 33.35 83.7 33.2 83.6 33.05 83.55 33.15 83.6 33.5 83.9"/><path fill="#fffd8f" fill-opacity="0.392156862745" d="M34.3 83.8 L34.05 83.95 34.05 84.0 34.25 83.95 34.55 83.8 Q34.6 83.7 34.7 83.7 L34.8 83.6 34.7 83.65 34.3 83.8"/><path fill="#fffd8f" fill-opacity="0.392156862745" d="M33.3 84.45 L33.6 84.2 33.6 84.15 Q33.5 84.15 33.4 84.3 L33.15 84.45 32.95 84.65 32.85 84.75 33.0 84.6 33.3 84.45"/><path fill="#ffffff" stroke="none" d="M36.3 85.35 Q36.05 85.7 36.05 86.15 L36.5 86.9 37.3 87.15 38.05 86.75 38.25 85.9 37.85 85.2 37.05 84.95 36.3 85.35"/><path fill="#fefd8d" fill-opacity="0.972549019608" d="M18.75 62.3 L18.65 62.35 18.2 62.45 18.6 62.25 19.85 61.9 21.0 61.5 21.4 61.35 21.05 61.5 19.9 61.9 18.75 62.3 M17.45 61.95 L17.7 62.2 17.75 62.2 17.7 62.15 17.85 61.05 18.05 59.85 18.15 59.4 18.1 59.8 18.05 61.0 18.0 62.25 18.1 62.6 19.15 63.2 20.0 63.75 19.15 63.3 18.5 62.95 18.4 62.85 18.15 62.7 18.1 62.7 18.15 62.75 18.2 63.85 18.2 64.9 18.0 64.0 17.85 62.8 17.8 62.8 17.75 62.45 17.6 62.3 17.7 62.35 17.7 62.3 16.85 61.5 15.9 60.65 15.65 60.35 15.95 60.65 16.8 61.4 17.45 61.95 M14.7 64.25 L15.05 64.05 16.1 63.45 17.25 62.85 17.7 62.65 17.3 62.95 16.2 63.45 15.1 64.05 14.7 64.25"/><path fill="#fffd8f" fill-opacity="0.4" d="M18.75 62.3 L19.1 62.2 19.85 62.05 20.6 61.95 19.85 62.15 19.05 62.3 18.75 62.3 M17.45 61.95 L16.95 61.35 16.5 60.75 17.0 61.3 17.55 61.95 17.7 62.15 17.75 62.2 17.7 62.2 17.45 61.95 M18.5 62.95 L19.0 63.35 19.6 63.8 19.8 64.0 19.6 63.85 18.95 63.4 18.3 62.9 18.15 62.75 18.1 62.7 18.15 62.7 18.4 62.85 18.5 62.95 M18.3 61.9 L18.05 62.2 18.1 61.85 18.45 61.15 18.9 60.4 19.1 60.2 18.95 60.4 18.65 61.15 18.3 61.9 M16.9 62.9 L17.2 62.85 Q17.15 62.9 16.85 63.05 L16.15 63.3 15.45 63.55 15.2 63.6 15.45 63.5 16.1 63.25 Q16.6 63.0 16.9 62.9 M17.55 63.1 L17.75 62.75 17.8 63.1 17.6 63.95 17.25 64.7 17.15 64.95 17.2 64.7 17.4 63.9 Q17.4 63.4 17.55 63.1"/><path fill="#fffd8f" fill-opacity="0.392156862745" d="M18.6 63.1 L18.15 62.4 17.7 62.45 17.75 62.95 18.3 63.55 Q18.75 63.8 18.8 64.0 L19.0 64.25 18.85 63.95 18.6 63.1"/><path fill="#fffd8f" fill-opacity="0.392156862745" d="M18.55 62.7 Q18.05 62.4 17.9 62.4 17.7 62.4 17.8 62.5 L18.25 62.8 18.85 63.0 19.35 63.15 19.6 63.2 19.35 63.1 18.55 62.7"/><path fill="#fffd8f" fill-opacity="0.392156862745" d="M17.3 61.7 Q17.35 62.3 17.55 62.45 L18.0 62.5 18.1 62.0 17.65 61.35 17.25 60.75 17.15 60.5 17.2 60.8 17.3 61.7"/><path fill="#fffd8f" fill-opacity="0.392156862745" d="M17.25 62.1 L17.9 62.5 17.95 62.45 17.6 62.05 17.05 61.75 16.55 61.5 16.35 61.4 16.55 61.6 Q16.8 61.7 17.25 62.1"/><path fill="#fffd8f" fill-opacity="0.392156862745" d="M19.05 61.9 L18.4 62.3 18.45 62.4 18.9 62.3 19.5 61.95 19.95 61.6 20.15 61.5 19.85 61.6 19.05 61.9"/><path fill="#fffd8f" fill-opacity="0.392156862745" d="M16.9 63.3 L17.5 62.85 17.45 62.7 17.05 62.9 16.5 63.35 16.15 63.75 15.95 63.95 16.2 63.75 16.9 63.3"/><path fill="#ffffff" stroke="none" d="M17.4 62.1 Q17.15 62.35 17.2 62.65 L17.55 63.25 18.1 63.4 18.7 63.1 18.85 62.5 18.55 61.95 17.9 61.75 17.4 62.1"/><path fill="#ffffff" stroke="none" d="M33.55 83.9 L33.45 84.15 33.6 84.45 33.85 84.5 34.15 84.4 34.2 84.05 34.1 83.85 33.75 83.75 33.55 83.9"/></g><g id="c22"><g><use transform="matrix(1.0,0.0,0.0,1.0,6.3,53.35)" xlink:href="#c9"/></g><g><use transform="matrix(1.0,0.0,0.0,1.0,0.0,0.0)" xlink:href="#c10"/></g><g><use transform="matrix(1.0,0.0,0.0,1.0,6.45,53.4)" xlink:href="#c12"/></g><g><use transform="matrix(-0.561309814453,0.0,0.0,0.561309814453,38.35,64.0)" xlink:href="#c16"/></g><g><use transform="matrix(1.0,0.0,0.0,1.0,0.0,0.0)" xlink:href="#c17"/></g><mask id="mask18"><use transform="matrix(1.0,0.0,0.0,1.0,0.0,0.0)" xlink:href="#c18"/></mask><g mask="url(#mask18)"><use transform="matrix(1.0,0.0,0.0,1.0,9.65,51.0)" filter="url(#filter20)" xlink:href="#c20"/></g><g mask="url(#mask18)"><use transform="matrix(1.0,0.0,0.0,1.0,9.65,51.0)" filter="url(#filter21)" xlink:href="#c20"/></g><g mask="url(#mask18)"><use transform="matrix(1.0,0.0,0.0,1.0,0.0,0.0)" xlink:href="#c21"/></g><g><use transform="matrix(0.141098022461,-0.0378112792969,0.111373901367,0.225646972656,27.2,74.05)" filter="url(#filter23)" xlink:href="#c6"/></g></g><filter id="filter20"><feColorMatrix in="SourceGraphic" type="matrix" values="0.0 0.0 0.0 0.0 0.99609375 0.0 0.0 0.0 0.0 0.99609375 0.0 0.0 0.0 0.0 0.99609375 0.0 0.0 0.0 1.0 0.0" result="cxform"/><feComposite operator="in" in2="SourceGraphic" result="color-xform"/></filter><filter id="filter21"><feColorMatrix in="SourceGraphic" type="matrix" values="0.0 0.0 0.0 0.0 0.99609375 0.0 0.0 0.0 0.0 0.99609375 0.0 0.0 0.0 0.0 0.99609375 0.0 0.0 0.0 1.0 0.0" result="cxform"/><feComposite operator="in" in2="SourceGraphic" result="color-xform"/></filter><filter id="filter23"><feColorMatrix in="SourceGraphic" type="matrix" values="1.0 0.0 0.0 0.0 0.0 0.0 1.0 0.0 0.0 0.0 0.0 0.0 1.0 0.0 0.0 0.0 0.0 0.0 0.23046875 0.0" result="cxform"/><feComposite operator="in" in2="SourceGraphic" result="color-xform"/></filter></defs><g><g><use transform="matrix(1.0,0.0,0.0,1.0,0.0,0.0)" xlink:href="#c1"/></g><g><use transform="matrix(1.15496826172,0.0,0.0,1.15496826172,-1.5,-57.65)" xlink:href="#c22"/></g></g></svg>