<?xml version='1.0' encoding='UTF-8'?>
<svg xmlns:xlink="http://www.w3.org/1999/xlink" xmlns="http://www.w3.org/2000/svg" version="1.1" width="60px" height="60px" viewBox="0.0 0.0 60.0 60.0"><defs><g id="c1"><path fill="#000000" fill-opacity="0.00392156862745" d="M0.0 0.0 L60.0 0.0 60.0 60.0 0.0 60.0 0.0 0.0"/></g><g id="c2"><path fill="none" stroke="#000000" stroke-width="1.0" stroke-opacity="0.301960784314" d="M22.3 0.35 Q26.6 -1.0 28.5 3.05 L41.4 31.7 Q43.1 35.4 39.9 36.85 L38.15 37.65 19.65 43.65 Q17.05 44.5 15.35 43.3 14.2 42.55 13.5 40.9 L0.55 12.25 Q-0.6 9.75 0.6 8.25 1.15 7.55 2.2 7.05 2.85 6.6 3.8 6.3 L22.3 0.35"/><path fill="#300525" stroke="none" d="M25.55 0.9 Q26.9 1.6 27.8 3.55 L40.7 32.15 Q42.6 36.3 38.3 37.65 L23.3 42.5 13.15 21.4 4.6 20.9 0.7 12.25 Q-0.45 9.75 0.75 8.25 L29.8 9.75 25.55 0.9 M20.1 43.55 L19.8 43.65 Q17.15 44.45 15.5 43.3 L20.1 43.55"/><path fill="#630a4c" stroke="none" d="M23.3 42.5 L20.1 43.55 15.5 43.3 Q14.35 42.55 13.65 40.9 L4.6 20.9 13.15 21.4 23.3 42.5 M0.75 8.25 Q1.45 7.3 3.1 6.75 L21.65 0.8 25.55 0.9 29.8 9.75 0.75 8.25"/><path fill="none" stroke="#000000" stroke-width="0.5" stroke-opacity="0.301960784314" d="M25.55 0.9 Q26.9 1.6 27.8 3.55 L40.7 32.15 Q42.6 36.3 38.3 37.65 L23.3 42.5 20.1 43.55 19.8 43.65 Q17.15 44.45 15.5 43.3 14.35 42.55 13.65 40.9 L4.6 20.9 0.7 12.25 Q-0.45 9.75 0.75 8.25 1.45 7.3 3.1 6.75 L21.65 0.8 25.55 0.9"/><path fill="#9d147b" stroke="none" d="M14.2 40.5 L1.35 11.8 Q-0.5 7.75 3.8 6.35 L22.3 0.4 Q26.55 -1.0 28.45 3.1 L41.35 31.7 Q43.25 35.85 38.9 37.25 L20.4 43.2 Q16.1 44.55 14.2 40.5"/><path fill="none" stroke="#000000" stroke-width="0.5" stroke-opacity="0.301960784314" d="M14.2 40.5 L1.35 11.8 Q-0.5 7.75 3.8 6.35 L22.3 0.4 Q26.55 -1.0 28.45 3.1 L41.35 31.7 Q43.25 35.85 38.9 37.25 L20.4 43.2 Q16.1 44.55 14.2 40.5"/><path fill="#fcf2cf" stroke="none" d="M9.15 13.6 Q9.8 12.8 9.55 11.6 L9.1 10.55 22.05 6.35 Q24.9 5.45 26.25 7.85 L26.5 8.3 35.8 29.0 35.95 29.35 Q34.75 29.3 34.1 30.1 33.45 30.9 33.7 32.1 L34.0 32.9 20.65 37.2 Q18.8 37.8 17.65 37.0 16.8 36.4 16.3 35.2 L6.95 14.6 6.8 14.4 7.1 14.4 Q8.4 14.45 9.15 13.6"/><path fill="#c47fad" stroke="none" d="M8.25 23.65 L3.35 12.8 Q1.65 9.1 5.5 7.85 L22.25 2.5 Q26.05 1.25 27.75 4.95 L28.25 6.1 35.55 22.3 39.35 30.75 Q41.1 34.5 37.2 35.7 L20.45 41.1 Q16.8 42.25 15.2 39.0 L15.0 38.6 8.25 23.65 M9.15 13.6 Q8.4 14.45 7.1 14.4 L6.8 14.4 6.95 14.6 16.3 35.2 Q16.8 36.4 17.65 37.0 18.8 37.8 20.65 37.2 L34.0 32.9 33.7 32.1 Q33.45 30.9 34.1 30.1 34.75 29.3 35.95 29.35 L35.8 29.0 26.5 8.3 26.25 7.85 Q24.9 5.45 22.05 6.35 L9.1 10.55 9.55 11.6 Q9.8 12.8 9.15 13.6"/><path fill="none" stroke="#ffcc00" stroke-width="1.0" stroke-opacity="0.749019607843" d="M8.25 23.65 L3.35 12.8 Q1.65 9.1 5.5 7.85 L22.25 2.5 Q26.05 1.25 27.75 4.95 L28.25 6.1 M35.55 22.3 L39.35 30.75 Q41.1 34.5 37.2 35.7 L20.45 41.1 Q16.8 42.25 15.2 39.0 L15.0 38.6"/><path fill="none" stroke="#bf9900" stroke-width="1.0" stroke-opacity="0.749019607843" d="M28.25 6.1 L35.55 22.3 M15.0 38.6 L8.25 23.65"/><path fill="none" stroke="#f0b92b" stroke-width="0.5" d="M9.15 13.6 Q9.8 12.8 9.55 11.6 L9.1 10.55 22.05 6.35 Q24.9 5.45 26.25 7.85 L26.5 8.3 35.8 29.0 35.95 29.35 Q34.75 29.3 34.1 30.1 33.45 30.9 33.7 32.1 L34.0 32.9 20.65 37.2 Q18.8 37.8 17.65 37.0 16.8 36.4 16.3 35.2 L6.95 14.6 6.8 14.4 7.1 14.4 Q8.4 14.45 9.15 13.6"/></g><g id="c3"><path fill="#7fdbfe" stroke="none" d="M10.75 4.9 Q10.75 4.6 10.9 4.35 11.25 3.45 11.95 2.75 13.3 1.5 14.35 2.1 15.4 2.7 14.95 4.45 14.7 5.4 14.1 6.15 L13.75 6.5 Q13.1 7.15 12.35 7.35 L11.4 7.2 Q10.95 6.9 10.75 6.4 10.5 5.75 10.75 4.9 M7.5 5.9 Q7.0 5.85 6.6 5.5 6.05 5.0 5.8 4.15 L5.7 3.6 Q5.55 2.65 5.8 1.7 6.25 0.0 7.5 0.0 L7.6 0.0 Q8.85 0.0 9.3 1.7 9.55 2.65 9.4 3.6 L9.3 4.15 8.5 5.5 7.6 5.9 7.5 5.9 M4.35 4.9 Q4.6 5.75 4.35 6.4 L3.7 7.2 2.75 7.35 Q2.0 7.15 1.35 6.5 L1.0 6.15 Q0.4 5.4 0.15 4.45 -0.3 2.7 0.75 2.1 1.8 1.5 3.15 2.75 3.85 3.45 4.2 4.35 L4.35 4.9 M5.5 13.7 Q4.45 13.9 3.65 12.95 2.75 12.0 3.2 10.25 3.7 8.5 5.25 7.6 6.4 6.9 7.55 7.0 8.75 6.9 9.9 7.6 11.45 8.5 11.95 10.25 12.35 12.0 11.5 12.95 10.7 13.9 9.65 13.7 8.55 13.5 7.55 12.6 6.55 13.5 5.5 13.7"/></g><g id="c4"><g><use transform="matrix(1.0,0.0,0.0,1.0,0.0,0.0)" xlink:href="#c3"/></g></g><radialGradient gradientUnits="userSpaceOnUse" r="819.2" cx="0" cy="0" spreadMethod="pad" gradientTransform="matrix(0.0914459228516,0.0,0.0,0.0914459228516,0.6,3.4)" id="gradient1"><stop offset="0.0" stop-color="#ffffff"/><stop offset="1.0" stop-color="#ffffff" stop-opacity="0.0"/></radialGradient><g id="c5"><path stroke="none" fill="url(#gradient1)" d="M36.65 -54.65 Q60.05 -42.0 69.75 -17.95 80.55 8.9 68.0 34.1 55.45 59.35 26.8 68.2 -1.8 77.05 -29.7 64.3 -57.6 51.6 -68.45 24.75 -79.3 -2.05 -66.75 -27.25 L-66.7 -27.3 Q-54.1 -52.5 -25.5 -61.4 3.1 -70.2 31.0 -57.5 L36.65 -54.65"/></g><g id="c6"><g><use transform="matrix(1.0,0.0,0.0,1.0,0.0,0.0)" xlink:href="#c5"/></g></g><radialGradient gradientUnits="userSpaceOnUse" r="819.2" cx="0" cy="0" spreadMethod="pad" gradientTransform="matrix(0.209197998047,0.0,0.0,0.177108764648,67.15,107.2)" id="gradient2"><stop offset="0.356862745098" stop-color="#ffffff"/><stop offset="0.670588235294" stop-opacity="0.0"/></radialGradient><g id="c7"><path fill="none" stroke-linejoin="round" stroke-linecap="round" stroke="url(#gradient2)" stroke-width="0.5" d="M136.55 165.8 L68.6 106.0 68.4 106.0 118.25 201.5 M68.2 105.7 L68.25 105.8 68.25 105.75 68.2 105.7 0.0 45.7 M68.25 105.8 L68.3 105.85 68.3 105.8 68.25 105.75 49.95 0.05 M0.05 97.7 L68.15 105.95 68.25 105.85 68.25 105.8 M68.3 105.85 L68.25 105.85 68.3 106.0 68.3 105.85 68.3 105.8 68.35 105.8 68.3 105.8 86.6 18.35 M50.0 193.2 L68.3 106.0 68.15 105.95 18.25 151.55 M68.4 106.0 L68.3 106.0 86.55 211.5 M68.4 106.0 L68.3 105.85 M68.6 106.0 L68.35 105.8 118.25 60.15 M136.6 114.25 L68.6 106.0 M68.2 105.7 L18.25 10.05"/></g><g id="c8"><g><use transform="matrix(1.0,0.0,0.0,1.0,0.0,0.0)" xlink:href="#c7"/></g></g><g id="c9"><path fill="#ffba2e" fill-opacity="0.0" d="M0.0 0.0 L52.0 0.0 52.0 52.0 0.0 52.0 0.0 0.0"/></g><g id="c10"><g><use transform="matrix(1.0,0.0,0.0,1.0,0.0,0.0)" xlink:href="#c9"/></g></g><g id="c11"><path fill="#dce8e7" stroke="none" d="M11.9 2.7 L11.2 3.75 Q9.15 1.9 5.8 1.35 9.15 1.9 11.2 3.75 L10.1 5.65 9.35 7.5 Q9.1 8.5 9.0 9.45 L8.9 11.25 7.4 10.95 4.7 11.65 4.4 11.65 4.1 11.8 3.2 10.5 Q2.65 9.4 2.55 8.2 3.95 7.7 5.5 7.45 L4.8 7.4 2.55 7.7 Q2.6 6.25 3.4 4.65 4.2 3.05 5.8 1.35 L7.2 0.05 7.4 0.05 Q8.85 -0.15 10.25 0.65 11.0 1.15 11.85 2.6 L11.9 2.7 M9.0 9.45 Q5.85 9.3 3.2 10.5 5.85 9.3 9.0 9.45 M3.4 4.65 Q6.5 4.1 10.1 5.65 6.5 4.1 3.4 4.65 M5.5 7.45 Q7.25 7.25 9.35 7.5 7.25 7.25 5.5 7.45"/><path fill="#162424" stroke="none" d="M11.2 3.75 L11.9 2.7 12.1 3.05 12.25 3.55 12.55 4.2 12.5 5.85 Q12.3 8.3 11.45 10.25 L10.45 12.0 10.4 11.95 Q9.7 11.45 9.0 11.25 L8.9 11.25 9.0 9.45 Q9.1 8.5 9.35 7.5 L10.1 5.65 11.2 3.75"/><path fill="#365959" stroke="none" d="M7.2 0.05 L5.8 1.35 Q4.2 3.05 3.4 4.65 2.25 4.8 1.1 5.3 L2.0 3.6 Q2.8 2.1 4.2 1.2 L5.45 0.5 7.2 0.05 M2.55 7.7 L1.45 8.05 Q0.6 8.5 0.0 8.9 0.1 7.35 1.1 5.3 2.25 4.8 3.4 4.65 2.6 6.25 2.55 7.7 M4.2 1.2 L5.8 1.35 4.2 1.2 M4.1 11.8 L2.6 12.45 1.7 12.25 1.1 11.75 Q0.15 10.9 0.05 9.65 1.25 8.7 2.55 8.2 2.65 9.4 3.2 10.5 L4.1 11.8 M1.1 11.75 L3.2 10.5 1.1 11.75"/><path fill="none" stroke="#000000" stroke-width="0.5" stroke-opacity="0.152941176471" d="M11.2 3.75 L11.9 2.7 M5.8 1.35 Q9.15 1.9 11.2 3.75 L10.1 5.65 9.35 7.5 Q9.1 8.5 9.0 9.45 L8.9 11.25 M3.4 4.65 Q2.25 4.8 1.1 5.3 M3.4 4.65 Q4.2 3.05 5.8 1.35 L4.2 1.2 M3.2 10.5 Q5.85 9.3 9.0 9.45 M3.2 10.5 L1.1 11.75 M9.35 7.5 Q7.25 7.25 5.5 7.45 M10.1 5.65 Q6.5 4.1 3.4 4.65"/></g><g id="c12"><g><use transform="matrix(1.0,0.0,0.0,1.0,0.0,0.0)" xlink:href="#c11"/></g></g><linearGradient gradientUnits="userSpaceOnUse" x1="-819.2" x2="819.2" spreadMethod="pad" gradientTransform="matrix(0.00335693359375,0.002685546875,-0.00108337402344,0.00135803222656,46.7,40.45)" id="gradient3"><stop offset="0.0" stop-color="#dce8e7"/><stop offset="1.0" stop-color="#71c0bf"/></linearGradient><linearGradient gradientUnits="userSpaceOnUse" x1="-819.2" x2="819.2" spreadMethod="pad" gradientTransform="matrix(0.00352478027344,0.00213623046875,-0.00215148925781,0.0035400390625,39.85,43.15)" id="gradient4"><stop offset="0.0" stop-color="#dce8e7"/><stop offset="1.0" stop-color="#71c0bf"/></linearGradient><linearGradient gradientUnits="userSpaceOnUse" x1="-819.2" x2="819.2" spreadMethod="pad" gradientTransform="matrix(-0.00460815429688,-0.00135803222656,0.00067138671875,-0.00225830078125,6.7,21.85)" id="gradient5"><stop offset="0.0" stop-color="#dce8e7"/><stop offset="1.0" stop-color="#71c0bf"/></linearGradient><linearGradient gradientUnits="userSpaceOnUse" x1="-819.2" x2="819.2" spreadMethod="pad" gradientTransform="matrix(-0.00131225585938,-0.000381469726562,0.000274658203125,-0.000930786132812,7.75,20.2)" id="gradient6"><stop offset="0.0" stop-color="#dce8e7"/><stop offset="1.0" stop-color="#71c0bf"/></linearGradient><linearGradient gradientUnits="userSpaceOnUse" x1="-819.2" x2="819.2" spreadMethod="pad" gradientTransform="matrix(-0.00312805175781,0.00169372558594,-0.0010986328125,-0.00204467773438,9.25,29.25)" id="gradient7"><stop offset="0.0" stop-color="#dce8e7"/><stop offset="1.0" stop-color="#71c0bf"/></linearGradient><linearGradient gradientUnits="userSpaceOnUse" x1="-819.2" x2="819.2" spreadMethod="pad" gradientTransform="matrix(0.00198364257812,0.003662109375,-0.00218200683594,0.00117492675781,29.85,43.2)" id="gradient8"><stop offset="0.0" stop-color="#dce8e7"/><stop offset="1.0" stop-color="#71c0bf"/></linearGradient><linearGradient gradientUnits="userSpaceOnUse" x1="-819.2" x2="819.2" spreadMethod="pad" gradientTransform="matrix(-0.0152282714844,-0.00323486328125,0.00205993652344,-0.00965881347656,23.5,16.3)" id="gradient9"><stop offset="0.0" stop-color="#375a5a"/><stop offset="1.0" stop-color="#578f8f"/></linearGradient><linearGradient gradientUnits="userSpaceOnUse" x1="-819.2" x2="819.2" spreadMethod="pad" gradientTransform="matrix(0.0127410888672,-0.000885009765625,0.000457763671875,0.00654602050781,39.05,32.05)" id="gradient10"><stop offset="0.0" stop-color="#375a5a"/><stop offset="1.0" stop-color="#578f8f"/></linearGradient><linearGradient gradientUnits="userSpaceOnUse" x1="-819.2" x2="819.2" spreadMethod="pad" gradientTransform="matrix(0.00205993652344,0.00381469726562,-0.00175476074219,0.000946044921875,18.3,22.1)" id="gradient11"><stop offset="0.0" stop-color="#fcba16"/><stop offset="1.0" stop-color="#feeb10"/></linearGradient><linearGradient gradientUnits="userSpaceOnUse" x1="-819.2" x2="819.2" spreadMethod="pad" gradientTransform="matrix(-0.00456237792969,-0.0013427734375,0.000595092773438,-0.00204467773438,28.15,29.45)" id="gradient12"><stop offset="0.0" stop-color="#fcba16"/><stop offset="1.0" stop-color="#feeb10"/></linearGradient><linearGradient gradientUnits="userSpaceOnUse" x1="-819.2" x2="819.2" spreadMethod="pad" gradientTransform="matrix(0.00595092773438,-0.00334167480469,0.00129699707031,0.00248718261719,15.1,29.55)" id="gradient13"><stop offset="0.0" stop-color="#fcba16"/><stop offset="1.0" stop-color="#feeb10"/></linearGradient><linearGradient gradientUnits="userSpaceOnUse" x1="-819.2" x2="819.2" spreadMethod="pad" gradientTransform="matrix(-0.000717163085938,-0.00331115722656,0.00178527832031,-0.000442504882812,18.15,24.5)" id="gradient14"><stop offset="0.0" stop-color="#fcba16"/><stop offset="1.0" stop-color="#feeb10"/></linearGradient><linearGradient gradientUnits="userSpaceOnUse" x1="-819.2" x2="819.2" spreadMethod="pad" gradientTransform="matrix(0.00193786621094,-0.00654602050781,0.00209045410156,0.0006103515625,21.9,35.45)" id="gradient15"><stop offset="0.0" stop-color="#fcba16"/><stop offset="1.0" stop-color="#feeb10"/></linearGradient><linearGradient gradientUnits="userSpaceOnUse" x1="-819.2" x2="819.2" spreadMethod="pad" gradientTransform="matrix(-0.00286865234375,-0.000839233398438,0.000320434570312,-0.00108337402344,19.8,25.8)" id="gradient16"><stop offset="0.0" stop-color="#fcba16"/><stop offset="1.0" stop-color="#feeb10"/></linearGradient><g id="c13"><path stroke="none" fill="url(#gradient3)" d="M43.55 36.75 L47.7 39.5 Q50.5 41.2 50.05 42.85 49.7 44.0 48.7 43.7 48.2 43.55 47.85 42.9 47.45 41.8 46.1 40.65 45.45 40.0 42.5 38.5 40.8 37.55 40.2 36.9 L43.55 36.75"/><path stroke="none" fill="url(#gradient4)" d="M36.45 37.1 L36.3 38.55 Q36.35 40.0 37.55 41.85 38.75 43.65 39.3 43.8 L40.8 43.65 Q41.55 43.3 42.8 43.65 L43.8 43.95 Q44.4 44.3 44.15 45.15 L43.3 46.85 40.0 47.0 Q38.15 46.45 36.9 44.95 L36.15 43.85 Q35.1 42.1 34.95 40.5 L35.25 37.1 36.45 37.1"/><path stroke="none" fill="url(#gradient5)" d="M11.35 22.7 L12.05 24.15 8.0 23.55 3.85 23.0 Q2.1 22.5 1.75 21.7 1.4 21.1 1.75 19.85 1.95 19.15 2.55 18.9 3.0 18.75 3.55 18.9 4.45 19.15 4.6 19.55 L4.55 20.4 Q4.55 21.6 7.9 22.6 L11.35 22.7"/><path stroke="none" fill="url(#gradient6)" d="M5.75 20.2 Q4.95 19.5 5.35 19.1 L7.95 19.65 10.1 20.05 10.2 20.1 10.45 20.75 9.3 20.9 7.55 20.95 Q6.55 20.8 5.75 20.2"/><path stroke="none" fill="url(#gradient7)" d="M13.15 26.7 L13.2 26.7 13.7 27.95 Q12.45 28.75 9.5 31.0 6.55 33.2 6.0 33.05 5.25 32.8 4.95 31.75 4.75 30.8 5.0 29.95 5.3 28.9 8.05 27.95 L13.15 26.7"/><path stroke="none" fill="url(#gradient8)" d="M27.95 37.4 L29.05 38.9 30.8 41.95 32.05 43.5 32.75 44.3 Q33.7 45.8 33.35 47.05 33.05 48.0 32.6 48.35 L31.3 48.45 Q30.3 48.15 29.85 47.55 29.25 46.55 28.8 43.7 L28.5 42.45 27.25 39.1 26.65 37.45 27.95 37.4"/><path fill="none" stroke="#000000" stroke-width="0.5" stroke-opacity="0.301960784314" d="M13.15 26.7 L13.2 26.7 13.7 27.95 M27.95 37.4 L26.65 37.45"/><path fill="#000000" fill-opacity="0.301960784314" d="M36.45 37.1 L36.3 38.55 Q36.35 40.0 37.55 41.85 38.75 43.65 39.3 43.8 L40.8 43.65 Q41.55 43.3 42.8 43.65 L43.8 43.95 Q44.4 44.3 44.15 45.15 L44.0 45.6 43.55 45.45 40.75 45.0 Q38.0 44.2 36.5 41.35 35.35 39.1 35.75 37.1 L36.45 37.1 M43.55 36.75 L47.7 39.5 Q50.5 41.2 50.05 42.85 L49.5 43.7 49.2 42.7 Q48.55 40.65 47.0 39.75 L42.15 36.85 43.55 36.75 M11.75 23.5 L12.05 24.15 8.0 23.55 3.85 23.0 Q2.1 22.5 1.75 21.7 1.4 21.1 1.75 19.85 1.95 19.15 2.55 18.9 L2.55 18.95 Q2.15 20.8 4.1 22.0 4.9 22.4 7.65 23.2 L10.35 23.45 11.75 23.5 M6.85 20.05 L9.2 20.5 10.4 20.55 10.45 20.75 9.3 20.9 7.55 20.95 Q6.55 20.8 5.75 20.2 5.05 19.65 5.25 19.25 5.8 19.7 6.85 20.05 M13.7 27.95 Q12.45 28.75 9.5 31.0 6.55 33.2 6.0 33.05 5.4 32.9 5.15 32.25 6.7 30.65 10.0 29.25 L13.7 27.85 13.7 27.95 M32.6 48.35 L31.7 48.55 Q31.85 44.9 28.9 40.35 L27.5 37.4 27.95 37.4 29.05 38.9 30.8 41.95 32.75 44.3 Q33.7 45.8 33.35 47.05 33.05 48.0 32.6 48.35"/><path fill="#ffffff" stroke="none" d="M30.35 26.05 L30.55 25.85 Q32.15 24.65 37.4 23.7 L38.4 23.55 40.55 23.85 43.7 24.05 45.1 24.1 45.55 24.05 47.25 23.85 Q48.25 23.15 47.05 21.45 L45.2 19.5 Q38.3 12.0 30.1 9.7 L30.05 9.7 25.4 8.45 22.35 8.1 Q19.85 8.05 18.4 9.05 16.75 9.75 18.6 14.0 20.1 16.8 19.05 21.1 L19.0 21.1 Q18.8 23.1 17.4 25.45 L17.35 25.6 17.45 25.1 18.05 23.4 18.35 22.0 18.55 21.0 18.8 19.4 Q19.0 18.75 18.45 16.8 L18.35 16.5 18.05 15.3 17.0 12.1 Q16.5 11.05 16.4 10.05 L16.55 9.8 16.6 9.65 Q17.25 7.35 21.8 7.35 L25.7 7.65 Q27.85 8.0 30.2 8.7 36.5 10.55 43.1 16.25 49.2 21.55 48.75 23.85 L48.75 24.0 48.6 24.5 45.75 24.95 45.3 25.05 43.95 24.95 40.7 24.65 38.45 24.25 37.45 24.4 Q32.1 25.15 30.55 26.2 30.25 26.35 30.05 26.55 L27.15 28.9 Q28.3 27.55 30.05 26.2 L30.35 26.05"/><path stroke="none" fill="url(#gradient9)" d="M45.2 19.5 L47.05 21.45 Q48.25 23.15 47.25 23.85 L45.55 24.05 45.1 24.1 43.7 24.05 40.55 23.85 38.4 23.55 37.4 23.7 Q32.15 24.65 30.55 25.85 L30.35 26.05 28.5 24.45 Q22.05 17.15 25.4 8.45 L30.05 9.7 30.1 9.7 Q38.3 12.0 45.2 19.5"/><path fill="#aec2c0" stroke="none" d="M45.3 25.05 L45.75 24.95 48.6 24.5 47.95 26.0 47.8 26.2 44.4 27.35 40.9 27.65 40.5 27.45 40.9 27.25 Q44.15 25.5 45.3 25.05 M45.6 32.4 Q46.35 33.9 46.0 35.0 45.7 36.0 43.85 37.8 42.45 39.15 39.75 40.1 39.2 38.5 39.2 36.95 L40.25 35.65 Q41.85 33.2 42.2 33.3 L43.75 34.55 Q44.9 34.85 45.55 32.85 L45.6 32.4"/><path fill="#162424" stroke="none" d="M19.05 21.1 Q20.1 16.8 18.6 14.0 16.75 9.75 18.4 9.05 19.85 8.05 22.35 8.1 L25.4 8.45 Q22.05 17.15 28.5 24.45 25.1 22.25 19.05 21.1 M40.5 27.45 L40.9 27.65 44.4 27.35 47.8 26.2 Q46.95 27.55 45.2 28.5 L44.85 29.3 Q44.65 29.95 45.05 31.0 L45.45 32.05 45.6 32.4 45.55 32.85 Q44.9 34.85 43.75 34.55 L42.2 33.3 Q41.85 33.2 40.25 35.65 L39.2 36.95 Q39.2 35.5 39.65 34.05 L40.25 32.55 38.45 33.45 36.35 34.4 35.85 34.6 35.8 34.5 36.9 33.2 38.3 31.75 40.35 30.15 38.45 29.85 36.75 29.5 40.5 27.45 M43.65 29.9 L38.45 33.45 43.65 29.9 M40.15 29.75 Q43.95 29.2 45.2 28.5 43.95 29.2 40.15 29.75"/><path fill="#dce8e7" stroke="none" d="M27.15 28.9 L30.05 26.55 Q30.25 26.35 30.55 26.2 32.1 25.15 37.45 24.4 L38.45 24.25 40.7 24.65 43.95 24.95 45.3 25.05 Q44.15 25.5 40.9 27.25 L40.5 27.45 40.2 27.15 39.75 26.7 Q38.8 26.4 37.05 27.65 L36.15 28.2 Q35.1 28.8 34.65 28.65 34.3 28.55 34.25 28.1 34.15 27.65 33.8 27.55 L30.3 27.75 Q28.1 28.25 27.15 28.9 M16.4 10.05 Q16.5 11.05 17.0 12.1 L18.05 15.3 18.35 16.5 18.45 16.8 Q19.0 18.75 18.8 19.4 L18.55 21.0 18.35 22.0 17.85 22.35 17.65 22.25 Q17.95 18.4 17.75 17.95 L17.45 17.95 17.2 18.0 Q16.85 17.9 16.8 16.25 16.7 14.55 15.85 14.05 L15.8 14.05 Q15.8 11.95 16.4 10.05 M17.45 25.1 L17.35 25.6 16.7 26.65 15.4 27.9 12.05 28.0 Q10.65 27.05 10.05 24.45 8.85 19.35 10.7 18.55 L13.15 17.35 Q12.6 17.9 12.4 18.6 12.1 19.6 13.05 19.9 L14.55 20.25 14.4 20.65 Q13.75 21.2 13.45 21.5 12.9 22.0 12.8 22.45 12.65 22.85 12.85 23.1 L13.4 23.35 15.05 23.2 15.15 23.2 14.55 24.9 Q14.1 26.5 15.1 26.75 16.2 27.1 17.35 24.15 L17.45 25.1 M39.75 40.1 L38.25 40.5 38.2 40.55 Q34.45 41.5 31.1 40.45 27.2 39.3 26.15 36.05 L27.0 36.85 Q28.2 37.75 29.55 38.15 30.4 38.4 31.4 36.3 32.4 34.2 33.05 34.4 33.3 34.5 33.95 35.7 34.75 36.95 36.3 37.45 L37.3 37.6 Q38.35 37.65 39.2 36.95 39.2 38.5 39.75 40.1"/><path fill="#3e6060" stroke="none" d="M18.35 22.0 L18.05 23.4 17.45 25.1 17.35 24.15 Q16.2 27.1 15.1 26.75 14.1 26.5 14.55 24.9 L15.15 23.2 15.05 23.2 13.4 23.35 12.85 23.1 Q12.65 22.85 12.8 22.45 12.9 22.0 13.45 21.5 13.75 21.2 14.4 20.65 L14.55 20.25 13.05 19.9 Q12.1 19.6 12.4 18.6 12.6 17.9 13.15 17.35 L13.55 17.05 14.0 16.85 Q15.55 16.0 15.85 15.15 L15.9 15.15 15.85 15.1 15.75 14.05 15.8 14.05 15.85 14.05 Q16.7 14.55 16.8 16.25 16.85 17.9 17.2 18.0 L17.45 17.95 17.75 17.95 Q17.95 18.4 17.65 22.25 L17.85 22.35 18.35 22.0 M15.65 21.75 Q14.5 19.05 15.5 16.85 14.5 19.05 15.65 21.75"/><path stroke="none" fill="url(#gradient10)" d="M26.15 36.05 L25.9 35.05 Q25.5 32.9 26.1 30.05 L27.15 28.9 Q28.1 28.25 30.3 27.75 L33.8 27.55 Q34.15 27.65 34.25 28.1 34.3 28.55 34.65 28.65 35.1 28.8 36.15 28.2 L37.05 27.65 Q38.8 26.4 39.75 26.7 L40.2 27.15 40.5 27.45 36.75 29.5 38.45 29.85 40.35 30.15 38.3 31.75 36.9 33.2 35.8 34.5 35.85 34.6 36.35 34.4 38.45 33.45 40.25 32.55 39.65 34.05 Q39.2 35.5 39.2 36.95 38.35 37.65 37.3 37.6 L36.3 37.45 Q34.75 36.95 33.95 35.7 33.3 34.5 33.05 34.4 32.4 34.2 31.4 36.3 30.4 38.4 29.55 38.15 28.2 37.75 27.0 36.85 L26.15 36.05"/><path fill="none" stroke="#000000" stroke-width="0.5" stroke-opacity="0.152941176471" d="M45.2 19.5 L47.05 21.45 Q48.25 23.15 47.25 23.85 L45.55 24.05 45.1 24.1 43.7 24.05 40.55 23.85 38.4 23.55 37.4 23.7 Q32.15 24.65 30.55 25.85 L30.35 26.05 M19.05 21.1 Q20.1 16.8 18.6 14.0 16.75 9.75 18.4 9.05 19.85 8.05 22.35 8.1 M30.05 9.7 L30.1 9.7 M36.35 34.4 L38.45 33.45 43.65 29.9 M45.2 28.5 Q43.95 29.2 40.15 29.75"/><path fill="none" stroke="#000000" stroke-width="0.5" stroke-opacity="0.301960784314" d="M15.5 16.85 Q14.5 19.05 15.65 21.75"/><path fill="#000000" fill-opacity="0.301960784314" d="M45.45 29.5 L45.3 30.4 Q44.35 31.55 43.3 32.15 L39.9 33.55 37.95 34.05 Q33.75 35.15 28.2 33.8 L25.9 33.2 25.85 30.7 Q31.1 32.65 37.85 31.8 L41.7 31.15 Q44.0 30.55 44.9 29.5 L45.4 29.1 45.4 29.25 45.45 29.5 M15.15 23.65 Q14.3 20.95 14.05 17.8 L13.95 16.8 14.8 16.35 Q15.1 19.0 15.85 21.35 16.6 23.7 18.1 25.4 L16.65 26.75 Q15.75 25.35 15.15 23.65"/><path fill="#e3910b" stroke="none" d="M40.65 32.4 L38.8 32.95 Q34.55 34.0 29.0 32.7 23.2 31.3 19.6 28.05 L18.65 27.2 Q17.15 25.55 16.3 23.45 L15.9 22.55 Q15.15 19.85 14.8 16.7 14.6 14.85 15.15 14.15 L15.15 15.55 Q15.45 18.7 16.25 21.35 L16.7 22.6 16.8 22.75 16.9 22.75 19.3 26.2 20.2 25.65 20.3 25.7 20.85 26.2 Q22.55 27.65 24.5 28.65 L24.45 28.7 23.4 29.35 Q26.05 30.75 29.35 31.55 33.55 32.55 37.05 32.15 39.35 31.5 38.6 30.7 L42.5 30.0 Q43.45 31.0 40.65 32.4"/><path fill="#c76605" stroke="none" d="M42.5 30.0 Q44.8 29.45 45.65 28.4 L46.2 27.95 46.25 28.2 46.25 28.35 46.05 29.3 Q45.1 30.5 44.15 31.05 L40.65 32.4 Q43.45 31.0 42.5 30.0"/><path stroke="none" fill="url(#gradient11)" d="M15.15 14.15 L15.65 13.75 15.55 14.55 Q15.8 17.65 16.6 20.2 L17.45 22.2 19.35 24.85 20.2 25.65 19.3 26.2 16.9 22.75 16.8 22.75 16.7 22.6 16.25 21.35 Q15.45 18.7 15.15 15.55 L15.15 14.15"/><path stroke="none" fill="url(#gradient12)" d="M24.5 28.65 Q30.5 31.75 38.6 30.7 39.35 31.5 37.05 32.15 33.55 32.55 29.35 31.55 26.05 30.75 23.4 29.35 L24.45 28.7 24.5 28.65"/><path fill="#000000" fill-opacity="0.301960784314" d="M39.3 30.75 L43.25 35.35 43.3 38.25 38.75 38.1 Q39.0 35.45 37.3 33.3 37.35 31.85 36.05 30.65 L39.3 30.75"/><path stroke="none" fill="url(#gradient13)" d="M8.35 35.0 L8.05 34.8 8.05 34.75 7.9 34.65 7.75 34.4 Q7.7 33.85 8.5 32.45 10.7 28.9 14.55 27.3 17.25 26.25 18.25 26.75 L18.3 26.75 18.4 27.1 Q17.1 27.1 15.05 28.5 12.45 30.35 11.0 32.5 9.55 34.6 9.5 35.2 9.35 35.6 8.95 35.35 L8.35 35.0"/><path fill="#e3910b" stroke="none" d="M18.4 27.1 L18.6 27.65 Q17.45 27.7 15.45 29.15 13.0 30.95 11.65 33.05 10.45 35.15 10.35 35.75 10.2 36.1 9.8 36.0 L8.8 35.4 8.35 35.0 8.95 35.35 Q9.35 35.6 9.5 35.2 9.55 34.6 11.0 32.5 12.45 30.35 15.05 28.5 17.1 27.1 18.4 27.1"/><path fill="#e3910b" stroke="none" d="M19.3 22.8 L20.05 22.55 20.4 23.15 Q20.7 23.8 20.65 24.6 20.4 25.0 20.3 25.5 20.1 26.15 20.2 26.95 L23.85 27.15 23.9 27.65 23.9 28.15 22.4 28.45 21.85 28.5 21.75 28.55 20.65 28.55 20.95 29.05 21.05 29.25 21.15 29.45 22.15 31.0 21.6 30.9 21.0 30.85 20.95 30.85 Q20.75 30.1 20.0 29.1 L19.9 28.9 19.8 28.7 19.45 28.2 19.4 28.0 Q19.2 27.55 19.15 27.1 18.9 26.1 19.15 25.15 19.25 24.65 19.5 24.25 L19.3 22.8 M23.9 30.7 Q24.6 31.85 24.95 33.3 25.6 36.55 23.2 42.95 22.3 44.65 21.2 44.7 L20.1 44.65 Q20.85 44.2 21.55 42.95 23.75 36.85 23.55 33.25 L23.55 32.9 Q22.85 32.5 22.45 33.5 L22.35 31.7 22.7 31.15 Q23.3 30.65 23.9 30.7 M20.65 28.55 L20.55 28.35 20.3 27.45 20.2 26.95 20.3 27.45 20.55 28.35 20.65 28.55"/><path stroke="none" fill="url(#gradient14)" d="M20.95 30.85 L20.65 30.75 20.65 30.8 20.2 30.6 Q19.3 29.95 18.35 28.25 L18.25 28.0 18.0 27.65 17.9 27.45 16.95 25.9 16.9 25.3 Q17.3 23.95 18.75 23.1 L19.3 22.8 19.5 24.25 Q19.25 24.65 19.15 25.15 18.9 26.1 19.15 27.1 19.2 27.55 19.4 28.0 L19.45 28.2 19.8 28.7 19.9 28.9 20.0 29.1 Q20.75 30.1 20.95 30.85"/><path stroke="none" fill="url(#gradient15)" d="M20.1 44.65 L19.25 44.5 Q18.25 44.2 17.9 43.7 L17.7 43.45 18.7 42.55 20.3 40.7 Q21.05 39.5 21.65 37.5 22.35 35.2 22.45 33.5 22.85 32.5 23.55 32.9 L23.55 33.25 Q23.75 36.85 21.55 42.95 20.85 44.2 20.1 44.65"/><path stroke="none" fill="url(#gradient16)" d="M20.3 25.5 L22.6 25.65 Q23.45 25.9 23.7 26.3 L23.65 26.35 23.85 27.15 20.2 26.95 Q20.1 26.15 20.3 25.5"/><path fill="#fcba16" stroke="none" d="M23.7 26.3 L23.8 26.35 23.65 26.35 23.7 26.3"/><path fill="#c76605" stroke="none" d="M21.85 28.5 Q23.15 29.4 23.9 30.7 23.3 30.65 22.7 31.15 L22.35 31.7 22.25 31.25 22.15 31.0 21.15 29.45 21.05 29.25 20.95 29.05 20.65 28.55 21.75 28.55 21.85 28.5"/><path fill="none" stroke="#000000" stroke-width="0.5" stroke-opacity="0.152941176471" d="M20.65 28.55 L21.75 28.55 21.85 28.5 M20.65 28.55 L20.95 29.05 21.05 29.25 21.15 29.45 22.15 31.0 M20.2 26.95 L20.3 27.45 20.55 28.35 20.65 28.55 M20.3 25.5 Q20.1 26.15 20.2 26.95"/><path fill="#365959" stroke="none" d="M48.6 28.9 L49.55 30.45 50.0 31.7 48.6 30.45 50.0 31.7 Q50.3 33.2 49.75 34.45 L48.9 35.8 Q48.0 37.4 46.75 38.0 L46.25 36.5 45.8 35.5 Q47.0 34.95 47.7 33.65 48.5 34.7 48.9 35.8 48.5 34.7 47.7 33.65 48.45 32.4 48.6 30.45 L48.6 28.9 M45.4 35.7 Q45.95 36.95 46.1 38.25 L43.45 38.15 42.55 37.85 41.65 37.25 41.05 35.8 42.8 36.0 45.4 35.7 M43.45 38.15 L42.8 36.0 43.45 38.15"/><path fill="#dce8e7" stroke="none" d="M48.6 28.9 L48.6 30.45 Q48.45 32.4 47.7 33.65 47.0 34.95 45.8 35.5 L44.2 33.6 43.7 33.05 45.4 35.7 42.8 36.0 41.05 35.8 40.9 35.45 40.75 35.2 39.15 32.75 37.7 31.65 39.15 30.9 40.55 29.85 41.55 28.6 42.3 27.0 42.55 26.05 42.75 26.1 Q44.65 26.2 45.75 26.65 47.4 27.5 48.45 28.7 L48.6 28.9 M39.15 30.9 Q41.75 33.4 42.8 36.0 41.75 33.4 39.15 30.9 M41.55 28.6 Q45.7 30.95 47.7 33.65 45.7 30.95 41.55 28.6 M43.7 33.05 L40.55 29.85 43.7 33.05 M48.6 30.45 Q45.4 27.95 42.3 27.0 45.4 27.95 48.6 30.45"/><path fill="#162424" stroke="none" d="M37.7 31.65 L37.65 31.6 36.0 30.7 35.95 30.65 35.85 30.65 36.55 29.15 Q37.55 27.8 39.45 26.75 40.25 26.25 40.8 26.1 L41.7 26.05 42.2 26.05 42.55 26.05 42.3 27.0 41.55 28.6 40.55 29.85 39.15 30.9 37.7 31.65"/><path fill="none" stroke="#000000" stroke-width="0.5" stroke-opacity="0.152941176471" d="M48.6 30.45 L50.0 31.7 M37.7 31.65 L39.15 30.9 40.55 29.85 41.55 28.6 42.3 27.0 42.55 26.05 M42.8 36.0 Q41.75 33.4 39.15 30.9 M47.7 33.65 Q45.7 30.95 41.55 28.6 M47.7 33.65 Q48.5 34.7 48.9 35.8 M40.55 29.85 L43.7 33.05 M48.6 30.45 Q48.45 32.4 47.7 33.65 M42.3 27.0 Q45.4 27.95 48.6 30.45 M42.8 36.0 L43.45 38.15"/></g><g id="c14"><g><use transform="matrix(1.0,0.0,0.0,1.0,0.0,0.0)" xlink:href="#c10"/></g><g><use transform="matrix(0.685928344727,0.421081542969,-0.421081542969,0.685928344727,10.95,4.7)" filter="url(#filter7)" xlink:href="#c12"/></g><g><use transform="matrix(1.0,0.0,0.0,1.0,0.0,0.0)" xlink:href="#c13"/></g></g><filter id="filter7"><feColorMatrix in="SourceGraphic" type="matrix" values="0.6796875 0.0 0.0 0.0 0.0 0.0 0.6796875 0.0 0.0 0.0 0.0 0.0 0.6796875 0.0 0.0 0.0 0.0 0.0 1.0 0.0" result="cxform"/><feComposite operator="in" in2="SourceGraphic" result="color-xform"/></filter><g id="c15"><g><use transform="matrix(1.0,0.0,0.0,1.0,0.0,0.0)" xlink:href="#c2"/></g><g><use transform="matrix(0.238861083984,-0.0867004394531,0.10026550293,0.233917236328,34.25,31.15)" xlink:href="#c4"/></g><g><use transform="matrix(0.238861083984,-0.0867004394531,0.10026550293,0.233917236328,4.25,10.3)" xlink:href="#c4"/></g><g><use transform="matrix(0.141098022461,-0.0378112792969,0.111373901367,0.225646972656,20.25,20.65)" filter="url(#filter12)" xlink:href="#c6"/></g><g><use transform="matrix(-0.155029296875,0.0513153076172,0.0841827392578,0.147033691406,22.6,2.3)" filter="url(#filter13)" xlink:href="#c8"/></g><g><use transform="matrix(-0.35791015625,0.0,0.0,0.35791015625,31.45,11.7)" xlink:href="#c14"/></g><g><use transform="matrix(0.162948608398,-0.0436706542969,0.128631591797,0.260604858398,20.35,20.95)" filter="url(#filter15)" xlink:href="#c6"/></g></g><filter id="filter12"><feColorMatrix in="SourceGraphic" type="matrix" values="0.0 0.0 0.0 0.0 0.796875 0.0 0.0 0.0 0.0 0.59765625 0.0 0.0 0.0 0.0 0.19921875 0.0 0.0 0.0 1.0 0.0" result="cxform"/><feComposite operator="in" in2="SourceGraphic" result="color-xform"/></filter><filter id="filter13"><feColorMatrix in="SourceGraphic" type="matrix" values="0.0 0.0 0.0 0.0 0.99609375 0.0 0.0 0.0 0.0 0.99609375 0.0 0.0 0.0 0.0 0.99609375 0.0 0.0 0.0 1.0 0.0" result="cxform"/><feComposite operator="in" in2="SourceGraphic" result="color-xform"/></filter><filter id="filter15"><feColorMatrix in="SourceGraphic" type="matrix" values="1.0 0.0 0.0 0.0 0.0 0.0 1.0 0.0 0.0 0.0 0.0 0.0 1.0 0.0 0.0 0.0 0.0 0.0 0.23046875 0.0" result="cxform"/><feComposite operator="in" in2="SourceGraphic" result="color-xform"/></filter></defs><g><g><use transform="matrix(1.0,0.0,0.0,1.0,0.0,0.0)" xlink:href="#c1"/></g><g><use transform="matrix(1.15496826172,0.0,0.0,1.15496826172,5.85,3.95)" xlink:href="#c15"/></g></g></svg>