<?xml version='1.0' encoding='UTF-8'?>
<svg xmlns:xlink="http://www.w3.org/1999/xlink" xmlns="http://www.w3.org/2000/svg" version="1.1" width="60px" height="60px" viewBox="0.0 0.0 60.0 60.0"><defs><g id="c1"><path fill="#000000" fill-opacity="0.00392156862745" d="M0.0 0.0 L60.0 0.0 60.0 60.0 0.0 60.0 0.0 0.0"/></g><g id="c2"><path fill="none" stroke="#000000" stroke-width="1.0" stroke-opacity="0.301960784314" d="M28.45 3.1 L41.35 31.7 Q42.95 35.15 40.2 36.7 39.5 37.3 38.3 37.65 L36.35 38.3 36.15 38.15 34.0 36.9 33.8 36.8 Q30.65 35.45 27.7 36.35 24.75 37.3 23.7 40.05 L23.6 40.25 Q23.25 41.25 23.25 42.3 L23.25 42.35 23.25 42.55 19.8 43.65 Q17.15 44.45 15.5 43.3 14.35 42.55 13.65 40.9 L0.7 12.25 Q-0.45 9.75 0.75 8.25 1.2 7.6 2.15 7.15 2.8 6.7 3.8 6.35 L6.45 5.5 8.5 6.75 8.7 6.85 Q11.9 8.2 14.85 7.25 17.8 6.35 18.85 3.6 L18.9 3.4 19.3 1.35 22.3 0.4 Q26.55 -1.0 28.45 3.1"/><path fill="#9d147b" stroke="none" d="M35.55 22.3 L28.25 6.1 27.75 4.95 Q26.05 1.25 21.6 2.85 20.8 5.65 18.85 7.6 17.0 9.45 14.2 9.8 11.45 9.95 9.0 8.8 L6.4 7.45 Q1.65 9.1 3.35 12.8 L8.25 23.65 15.0 38.6 15.2 39.0 Q16.8 42.25 20.45 41.1 L21.65 40.55 Q22.7 36.9 25.05 35.5 27.4 34.15 30.2 34.2 33.05 34.2 36.25 36.1 L37.2 35.7 Q41.1 34.5 39.35 30.75 L35.55 22.3 M19.3 1.35 L22.3 0.4 Q26.55 -1.0 28.45 3.1 L41.35 31.7 Q42.95 35.15 40.2 36.7 L38.9 37.25 36.15 38.15 34.0 36.9 33.8 36.8 Q30.65 35.45 27.7 36.35 24.75 37.3 23.7 40.05 L23.6 40.25 Q23.25 41.25 23.25 42.3 L23.2 42.3 20.4 43.2 19.1 43.5 17.3 43.4 Q15.3 42.9 14.2 40.5 L5.45 20.95 1.35 11.8 Q0.4 9.65 1.1 8.3 1.45 7.65 2.15 7.15 2.8 6.7 3.8 6.35 L6.45 5.5 8.5 6.75 8.7 6.85 Q11.9 8.2 14.85 7.25 17.8 6.35 18.85 3.6 L18.9 3.4 19.3 1.35"/><path fill="#c47fad" stroke="none" d="M28.25 6.1 L35.55 22.3 39.35 30.75 Q41.1 34.5 37.2 35.7 L36.25 36.1 Q33.05 34.2 30.2 34.2 27.4 34.15 25.05 35.5 22.7 36.9 21.65 40.55 L20.45 41.1 Q16.8 42.25 15.2 39.0 L15.0 38.6 8.25 23.65 3.35 12.8 Q1.65 9.1 6.4 7.45 L9.0 8.8 Q11.45 9.95 14.2 9.8 17.0 9.45 18.85 7.6 20.8 5.65 21.6 2.85 26.05 1.25 27.75 4.95 L28.25 6.1 M34.0 32.9 L33.7 32.1 Q33.45 30.9 34.1 30.1 34.75 29.3 35.95 29.35 L35.8 29.0 26.5 8.3 26.25 7.85 Q24.9 5.45 22.05 6.35 19.75 11.1 14.85 11.65 11.45 11.85 9.1 10.55 L9.55 11.6 Q9.8 12.8 9.15 13.6 8.4 14.45 7.1 14.4 L6.8 14.4 6.95 14.6 16.3 35.2 Q16.8 36.4 17.65 37.0 18.8 37.8 19.8 37.35 21.8 33.7 25.95 32.3 30.35 30.8 34.0 32.9"/><path fill="#fcf2cf" stroke="none" d="M22.05 6.35 Q24.9 5.45 26.25 7.85 L26.5 8.3 35.8 29.0 35.95 29.35 Q34.75 29.3 34.1 30.1 33.45 30.9 33.7 32.1 L34.0 32.9 Q30.35 30.8 25.95 32.3 21.8 33.7 19.8 37.35 18.8 37.8 17.65 37.0 16.8 36.4 16.3 35.2 L6.95 14.6 6.8 14.4 7.1 14.4 Q8.4 14.45 9.15 13.6 9.8 12.8 9.55 11.6 L9.1 10.55 Q11.45 11.85 14.85 11.65 19.75 11.1 22.05 6.35"/><path fill="#300525" stroke="none" d="M40.2 36.7 Q39.5 37.3 38.3 37.65 L36.35 38.3 36.15 38.15 38.9 37.25 40.2 36.7 M23.25 42.3 L23.25 42.35 23.2 42.3 23.25 42.3 M20.1 43.55 L19.8 43.65 Q17.15 44.45 15.5 43.3 L17.3 43.4 19.1 43.5 20.1 43.55 M4.6 20.9 L0.7 12.25 Q-0.45 9.75 0.75 8.25 L1.1 8.3 Q0.4 9.65 1.35 11.8 L5.45 20.95 4.6 20.9"/><path fill="#630a4c" stroke="none" d="M23.25 42.35 L23.25 42.55 20.1 43.55 19.1 43.5 20.4 43.2 23.2 42.3 23.25 42.35 M15.5 43.3 Q14.35 42.55 13.65 40.9 L4.6 20.9 5.45 20.95 14.2 40.5 Q15.3 42.9 17.3 43.4 L15.5 43.3 M0.75 8.25 Q1.2 7.6 2.15 7.15 1.45 7.65 1.1 8.3 L0.75 8.25"/><path fill="none" stroke="#bf9900" stroke-width="1.0" stroke-opacity="0.749019607843" d="M28.25 6.1 L35.55 22.3 M15.0 38.6 L8.25 23.65"/><path fill="none" stroke="#000000" stroke-width="0.5" stroke-opacity="0.301960784314" d="M19.3 1.35 L22.3 0.4 Q26.55 -1.0 28.45 3.1 L41.35 31.7 Q42.95 35.15 40.2 36.7 39.5 37.3 38.3 37.65 L36.35 38.3 M23.25 42.55 L20.1 43.55 19.8 43.65 Q17.15 44.45 15.5 43.3 14.35 42.55 13.65 40.9 L4.6 20.9 0.7 12.25 Q-0.45 9.75 0.75 8.25 1.2 7.6 2.15 7.15 2.8 6.7 3.8 6.35 L6.45 5.5 M1.1 8.3 Q1.45 7.65 2.15 7.15 M5.45 20.95 L1.35 11.8 Q0.4 9.65 1.1 8.3 M17.3 43.4 Q15.3 42.9 14.2 40.5 L5.45 20.95 M19.1 43.5 L17.3 43.4 M23.2 42.3 L20.4 43.2 19.1 43.5 M23.25 42.3 L23.2 42.3 M40.2 36.7 L38.9 37.25 36.15 38.15"/><path fill="none" stroke="#ffcc00" stroke-width="1.0" stroke-opacity="0.749019607843" d="M35.55 22.3 L39.35 30.75 Q41.1 34.5 37.2 35.7 L36.25 36.1 M21.65 40.55 L20.45 41.1 Q16.8 42.25 15.2 39.0 L15.0 38.6 M8.25 23.65 L3.35 12.8 Q1.65 9.1 6.4 7.45 M21.6 2.85 Q26.05 1.25 27.75 4.95 L28.25 6.1"/><path fill="none" stroke="#f0b92b" stroke-width="0.5" d="M22.05 6.35 Q24.9 5.45 26.25 7.85 L26.5 8.3 35.8 29.0 35.95 29.35 Q34.75 29.3 34.1 30.1 33.45 30.9 33.7 32.1 L34.0 32.9 M19.8 37.35 Q18.8 37.8 17.65 37.0 16.8 36.4 16.3 35.2 L6.95 14.6 6.8 14.4 7.1 14.4 Q8.4 14.45 9.15 13.6 9.8 12.8 9.55 11.6 L9.1 10.55"/><path fill="none" stroke="#ffaa00" stroke-width="1.0" stroke-opacity="0.749019607843" d="M36.25 36.1 Q33.05 34.2 30.2 34.2 27.4 34.15 25.05 35.5 22.7 36.9 21.65 40.55 M6.4 7.45 L9.0 8.8 Q11.45 9.95 14.2 9.8 17.0 9.45 18.85 7.6 20.8 5.65 21.6 2.85"/><path fill="none" stroke="#ffaa00" stroke-width="0.5" stroke-opacity="0.749019607843" d="M34.0 32.9 Q30.35 30.8 25.95 32.3 21.8 33.7 19.8 37.35 M9.1 10.55 Q11.45 11.85 14.85 11.65 19.75 11.1 22.05 6.35"/></g><g id="c3"><path fill="#7fdbfe" stroke="none" d="M10.75 4.9 Q10.75 4.6 10.9 4.35 11.25 3.45 11.95 2.75 13.3 1.5 14.35 2.1 15.4 2.7 14.95 4.45 14.7 5.4 14.1 6.15 L13.75 6.5 Q13.1 7.15 12.35 7.35 L11.4 7.2 Q10.95 6.9 10.75 6.4 10.5 5.75 10.75 4.9 M9.3 1.7 Q9.55 2.65 9.4 3.6 L9.3 4.15 8.5 5.5 7.6 5.9 7.5 5.9 Q7.0 5.85 6.6 5.5 6.05 5.0 5.8 4.15 L5.7 3.6 Q5.55 2.65 5.8 1.7 6.25 0.0 7.5 0.0 L7.6 0.0 Q8.85 0.0 9.3 1.7 M0.15 4.45 Q-0.3 2.7 0.75 2.1 1.8 1.5 3.15 2.75 3.85 3.45 4.2 4.35 L4.35 4.9 Q4.6 5.75 4.35 6.4 L3.7 7.2 2.75 7.35 Q2.0 7.15 1.35 6.5 L1.0 6.15 Q0.4 5.4 0.15 4.45 M7.55 7.0 Q8.75 6.9 9.9 7.6 11.45 8.5 11.95 10.25 12.35 12.0 11.5 12.95 10.7 13.9 9.65 13.7 8.55 13.5 7.55 12.6 6.55 13.5 5.5 13.7 4.45 13.9 3.65 12.95 2.75 12.0 3.2 10.25 3.7 8.5 5.25 7.6 6.4 6.9 7.55 7.0"/></g><g id="c4"><g><use transform="matrix(1.0,0.0,0.0,1.0,0.0,0.0)" xlink:href="#c3"/></g></g><radialGradient gradientUnits="userSpaceOnUse" r="819.2" cx="0" cy="0" spreadMethod="pad" gradientTransform="matrix(0.0914459228516,0.0,0.0,0.0914459228516,0.6,3.4)" id="gradient1"><stop offset="0.0" stop-color="#ffffff"/><stop offset="1.0" stop-color="#ffffff" stop-opacity="0.0"/></radialGradient><g id="c5"><path stroke="none" fill="url(#gradient1)" d="M36.65 -54.65 Q60.05 -42.0 69.75 -17.95 80.55 8.9 68.0 34.1 55.45 59.35 26.8 68.2 -1.8 77.05 -29.7 64.3 -57.6 51.6 -68.45 24.75 -79.3 -2.05 -66.75 -27.25 L-66.7 -27.3 Q-54.1 -52.5 -25.5 -61.4 3.1 -70.2 31.0 -57.5 L36.65 -54.65"/></g><g id="c6"><g><use transform="matrix(1.0,0.0,0.0,1.0,0.0,0.0)" xlink:href="#c5"/></g></g><radialGradient gradientUnits="userSpaceOnUse" r="819.2" cx="0" cy="0" spreadMethod="pad" gradientTransform="matrix(0.209197998047,0.0,0.0,0.177108764648,67.15,107.2)" id="gradient2"><stop offset="0.356862745098" stop-color="#ffffff"/><stop offset="0.670588235294" stop-opacity="0.0"/></radialGradient><g id="c7"><path fill="none" stroke-linejoin="round" stroke-linecap="round" stroke="url(#gradient2)" stroke-width="0.5" d="M136.55 165.8 L68.6 106.0 68.4 106.0 118.25 201.5 M68.3 105.8 L68.35 105.8 68.3 105.8 68.3 105.85 68.4 106.0 68.3 106.0 86.55 211.5 M68.3 105.8 L68.3 105.85 68.3 106.0 68.15 105.95 18.25 151.55 M68.3 105.85 L68.25 105.85 68.3 106.0 50.0 193.2 M68.25 105.85 L68.15 105.95 0.05 97.7 M68.3 105.85 L68.25 105.8 68.25 105.85 M68.25 105.8 L68.2 105.7 0.0 45.7 M68.3 105.8 L68.25 105.75 68.25 105.8 M68.25 105.75 L68.2 105.7 18.25 10.05 M68.6 106.0 L68.35 105.8 118.25 60.15 M86.6 18.35 L68.3 105.8 M136.6 114.25 L68.6 106.0 M68.25 105.75 L49.95 0.05"/></g><g id="c8"><g><use transform="matrix(1.0,0.0,0.0,1.0,0.0,0.0)" xlink:href="#c7"/></g></g><g id="c9"><g><use transform="matrix(1.0,0.0,0.0,1.0,0.0,0.0)" xlink:href="#c2"/></g><g><use transform="matrix(0.238861083984,-0.0867004394531,0.10026550293,0.233917236328,34.25,31.15)" xlink:href="#c4"/></g><g><use transform="matrix(0.238861083984,-0.0867004394531,0.10026550293,0.233917236328,4.25,10.3)" xlink:href="#c4"/></g><g><use transform="matrix(0.141098022461,-0.0378112792969,0.111373901367,0.225646972656,20.25,20.65)" filter="url(#filter7)" xlink:href="#c6"/></g><g><use transform="matrix(-0.155029296875,0.0513153076172,0.0841827392578,0.147033691406,22.6,3.15)" filter="url(#filter8)" xlink:href="#c8"/></g></g><filter id="filter7"><feColorMatrix in="SourceGraphic" type="matrix" values="0.0 0.0 0.0 0.0 0.796875 0.0 0.0 0.0 0.0 0.59765625 0.0 0.0 0.0 0.0 0.19921875 0.0 0.0 0.0 1.0 0.0" result="cxform"/><feComposite operator="in" in2="SourceGraphic" result="color-xform"/></filter><filter id="filter8"><feColorMatrix in="SourceGraphic" type="matrix" values="0.0 0.0 0.0 0.0 0.99609375 0.0 0.0 0.0 0.0 0.99609375 0.0 0.0 0.0 0.0 0.99609375 0.0 0.0 0.0 1.0 0.0" result="cxform"/><feComposite operator="in" in2="SourceGraphic" result="color-xform"/></filter><g id="c10"><path fill="#c4911a" stroke="none" d="M8.2 14.2 L7.35 14.75 7.55 13.7 7.85 13.25 8.3 13.5 8.2 14.2 M8.0 15.75 L8.4 15.85 8.4 16.45 6.95 17.25 7.2 16.4 8.0 15.75"/><path fill="#ffcc00" stroke="none" d="M8.2 14.2 L8.2 14.55 7.9 14.75 7.35 14.75 8.2 14.2 M8.4 16.45 L8.2 17.25 7.95 17.5 6.85 17.45 6.95 17.25 8.4 16.45"/><path fill="#9a7016" stroke="none" d="M7.35 14.75 L6.8 14.65 6.6 14.6 6.55 14.55 6.8 13.1 6.9 13.1 7.85 13.25 7.55 13.7 7.35 14.75 M6.85 17.45 L6.5 17.45 6.2 17.4 6.45 15.55 6.6 15.4 8.0 15.75 7.2 16.4 6.95 17.25 6.85 17.45"/><path fill="none" stroke="#382510" stroke-width="0.5" stroke-opacity="0.301960784314" d="M7.35 14.75 L7.9 14.75 8.2 14.55 8.2 14.2 M7.35 14.75 L6.8 14.65 6.6 14.6 M6.8 13.1 L6.9 13.1 7.85 13.25 8.3 13.5 8.2 14.2 M6.85 17.45 L6.5 17.45 6.2 17.4 M6.45 15.55 L6.6 15.4 8.0 15.75 8.4 15.85 8.4 16.45 8.2 17.25 7.95 17.5 6.85 17.45"/><path fill="#9a7016" stroke="none" d="M7.4 13.25 Q7.65 12.0 7.0 11.15 L6.25 10.2 7.9 10.55 7.95 10.7 7.7 11.9 7.4 13.25"/><path fill="#c4911a" stroke="none" d="M5.2 10.0 L6.25 10.2 7.0 11.15 Q7.65 12.0 7.4 13.25 L6.3 18.35 5.35 18.1 6.6 12.15 5.15 10.3 5.2 10.0"/><path fill="#ffcc00" stroke="none" d="M5.15 10.3 L6.6 12.15 5.35 18.1 3.95 17.85 3.7 17.05 5.15 10.3"/><path fill="none" stroke="#382510" stroke-width="0.5" stroke-opacity="0.301960784314" d="M5.2 10.0 L5.15 10.3 3.7 17.05 3.95 17.85 5.35 18.1 6.3 18.35 7.4 13.25 M7.9 10.55 L7.95 10.7 7.7 11.9 7.4 13.25"/><path fill="#fefd9a" fill-opacity="0.6" d="M4.5 13.8 L4.7 12.9 5.5 13.1 5.3 14.0 4.5 13.8 M4.85 15.95 L4.7 16.8 3.9 16.6 4.05 15.75 4.85 15.95"/><path fill="#fefd9a" stroke="none" d="M5.3 14.0 L4.85 15.95 4.05 15.75 4.5 13.8 5.3 14.0"/><path fill="#5c3a1b" stroke="none" d="M5.65 10.15 L5.55 10.05 4.85 9.8 Q4.55 9.05 5.2 8.15 L7.75 8.6 Q8.45 9.1 7.95 9.9 7.4 10.45 5.65 10.15"/><path fill="#422513" stroke="none" d="M5.65 10.15 Q7.4 10.45 7.95 9.9 8.45 9.1 7.75 8.6 L8.75 8.9 Q8.9 9.85 8.4 10.6 L5.65 10.15"/><path fill="none" stroke="#382510" stroke-width="0.5" stroke-opacity="0.4" d="M7.75 8.6 L5.2 8.15 Q4.55 9.05 4.85 9.8 L5.55 10.05 M5.65 10.15 L8.4 10.6 Q8.9 9.85 8.75 8.9 L7.75 8.6"/><path fill="#9a7016" stroke="none" d="M5.95 9.65 L5.45 9.75 Q5.2 9.7 5.1 9.45 L5.0 8.9 5.3 8.45 5.75 8.3 6.15 8.65 6.2 9.15 5.95 9.65"/><path fill="#fcf3d8" fill-opacity="0.301960784314" d="M3.55 15.3 L3.3 14.55 3.9 15.05 4.3 15.05 4.8 15.35 4.85 15.95 5.45 16.15 4.8 16.15 4.55 16.4 4.2 16.55 4.05 16.85 3.95 16.55 3.9 16.55 3.45 16.2 3.4 15.65 3.55 15.3 M4.45 15.65 L4.2 15.5 3.9 15.5 3.75 15.75 3.8 16.05 4.05 16.25 4.35 16.15 4.5 15.95 4.45 15.65"/><path fill="#fcf3d8" stroke="none" d="M4.45 15.65 L4.5 15.95 4.35 16.15 4.05 16.25 3.8 16.05 3.75 15.75 3.9 15.5 4.2 15.5 4.45 15.65"/><path fill="#fcf3d8" stroke="none" d="M4.65 14.65 L4.45 15.75 5.05 16.35 4.35 16.15 3.7 17.85 4.1 16.05 1.55 14.6 4.2 15.75 4.65 14.65"/><path fill="#423c5e" stroke="none" d="M2.2 5.3 L2.25 4.85 3.15 4.75 2.35 4.45 3.05 3.3 5.65 4.4 Q8.5 1.2 10.15 5.45 L13.5 5.3 13.45 7.0 12.7 7.0 13.3 7.4 13.2 7.6 10.95 6.7 10.15 5.9 9.45 8.05 7.2 8.65 6.9 6.55 6.05 8.45 5.4 9.0 4.7 7.25 5.55 5.4 2.2 5.3"/><path fill="#242134" stroke="none" d="M13.2 7.6 L12.95 8.25 10.7 7.15 11.05 8.75 8.75 9.75 8.3 8.7 8.15 10.05 6.7 10.6 5.8 9.65 6.05 8.45 6.9 6.55 7.2 8.65 9.45 8.05 10.15 5.9 10.95 6.7 13.2 7.6 M5.4 9.0 L5.35 9.05 3.85 7.35 4.8 5.75 2.15 5.85 2.2 5.3 5.55 5.4 4.7 7.25 5.4 9.0"/><path fill="none" stroke="#382510" stroke-width="0.5" stroke-opacity="0.301960784314" d="M2.2 5.3 L2.25 4.85 3.15 4.75 2.35 4.45 3.05 3.3 5.65 4.4 Q8.5 1.2 10.15 5.45 L13.5 5.3 13.45 7.0 12.7 7.0 13.3 7.4 13.2 7.6 12.95 8.25 10.7 7.15 11.05 8.75 8.75 9.75 8.3 8.7 8.15 10.05 6.7 10.6 5.8 9.65 6.05 8.45 5.4 9.0 5.35 9.05 3.85 7.35 4.8 5.75 2.15 5.85 2.2 5.3"/><path fill="#01a9a8" stroke="none" d="M7.8 3.9 Q7.7 4.45 7.2 4.8 L6.1 4.95 5.2 4.35 Q4.9 3.8 5.0 3.25 5.15 2.6 5.65 2.3 6.2 1.95 6.75 2.05 7.35 2.2 7.65 2.75 7.95 3.25 7.8 3.9"/><path fill="none" stroke="#382510" stroke-width="0.5" stroke-opacity="0.301960784314" d="M7.8 3.9 Q7.7 4.45 7.2 4.8 L6.1 4.95 5.2 4.35 Q4.9 3.8 5.0 3.25 5.15 2.6 5.65 2.3 6.2 1.95 6.75 2.05 7.35 2.2 7.65 2.75 7.95 3.25 7.8 3.9"/><path fill="#ffffff" stroke="none" d="M6.9 4.4 L6.15 4.5 5.55 4.1 5.4 3.35 Q5.5 2.9 5.9 2.65 L6.6 2.55 Q7.0 2.65 7.25 2.95 L7.35 3.75 6.9 4.4"/><path fill="#01a9a8" stroke="none" d="M11.25 4.7 Q11.15 5.25 10.65 5.6 L9.55 5.75 8.65 5.15 Q8.35 4.6 8.45 4.05 8.6 3.4 9.1 3.1 L10.2 2.85 11.1 3.55 Q11.4 4.05 11.25 4.7"/><path fill="none" stroke="#382510" stroke-width="0.5" stroke-opacity="0.301960784314" d="M11.25 4.7 Q11.15 5.25 10.65 5.6 L9.55 5.75 8.65 5.15 Q8.35 4.6 8.45 4.05 8.6 3.4 9.1 3.1 L10.2 2.85 11.1 3.55 Q11.4 4.05 11.25 4.7"/><path fill="#ffffff" stroke="none" d="M10.35 5.15 L9.6 5.25 9.0 4.85 8.85 4.1 Q8.95 3.65 9.35 3.4 L10.05 3.3 10.7 3.7 10.8 4.5 10.35 5.15"/><path fill="#ffde4f" stroke="none" d="M1.3 2.25 L0.95 1.65 Q3.1 -1.2 5.1 -1.9 L7.95 -2.65 9.55 -2.75 10.8 -2.1 13.3 -0.25 Q15.2 1.55 15.75 4.95 L15.15 5.3 14.3 2.65 12.85 0.35 Q11.4 -1.3 9.25 -2.0 L5.75 -1.45 5.3 -1.25 Q3.25 -0.5 1.3 2.25"/><path fill="#a22000" stroke="none" d="M5.3 -1.25 L5.75 -1.45 9.25 -2.0 Q11.4 -1.3 12.85 0.35 L14.3 2.65 9.75 2.95 7.55 2.25 Q4.95 1.15 5.3 -1.25"/><path fill="#661400" stroke="none" d="M1.3 2.25 Q3.25 -0.5 5.3 -1.25 4.95 1.15 7.55 2.25 L9.75 2.95 14.3 2.65 15.15 5.3 Q7.85 4.6 1.3 2.25"/><path fill="none" stroke="#382510" stroke-width="0.5" stroke-opacity="0.301960784314" d="M15.15 5.3 L15.75 4.95 Q15.2 1.55 13.3 -0.25 L10.8 -2.1 9.55 -2.75 7.95 -2.65 5.1 -1.9 Q3.1 -1.2 0.95 1.65 L1.3 2.25 M15.15 5.3 Q7.85 4.6 1.3 2.25"/><path fill="#f3f2f1" stroke="none" d="M7.1 1.75 L7.3 0.45 7.5 0.35 7.2 -0.15 7.1 0.0 6.6 0.05 6.4 -0.2 6.7 -0.7 6.95 -0.65 6.95 -1.0 7.35 -1.25 7.85 -1.0 7.6 -0.6 8.05 0.05 9.25 -0.35 10.0 0.4 10.55 0.05 10.55 -0.4 11.1 -0.45 11.35 -0.05 11.25 0.3 11.5 0.35 11.6 0.9 11.3 1.05 10.8 0.8 10.8 0.65 10.3 0.95 10.45 1.25 10.05 2.4 Q8.5 2.65 7.1 1.75 M8.3 0.65 L8.0 0.9 7.7 1.7 8.4 1.85 8.4 1.0 8.3 0.65 M9.7 1.3 L9.6 0.95 Q9.45 0.9 9.25 1.2 L9.0 1.95 9.65 2.1 9.7 1.3"/><path fill="#e6e3dd" stroke="none" d="M7.1 1.75 Q8.5 2.65 10.05 2.4 L10.45 2.8 10.95 2.7 11.1 3.2 10.75 3.55 10.4 3.55 10.4 3.75 9.9 4.0 9.7 3.75 9.8 3.2 9.95 3.15 9.4 2.7 9.15 2.65 9.0 3.15 7.8 2.85 7.9 2.35 7.6 2.3 6.95 2.5 6.95 2.6 6.9 3.15 6.6 3.3 6.25 2.85 6.35 2.65 6.05 2.55 5.9 2.1 6.25 1.7 6.6 1.95 7.1 1.75"/><path fill="#dbc593" stroke="none" d="M6.25 5.9 L8.15 6.05 8.05 6.6 8.5 6.7 8.7 6.25 9.15 6.55 8.85 7.1 8.9 7.75 Q7.65 7.0 6.05 7.15 L6.3 6.5 6.25 5.9"/><path fill="#01a9a8" stroke="none" d="M8.15 6.05 L6.25 5.9 Q5.5 6.45 6.0 7.1 L6.05 7.15 Q7.65 7.0 8.9 7.75 9.5 7.3 9.15 6.55 L8.7 6.25 8.15 6.05 M9.3 8.65 Q7.65 7.35 5.5 7.65 4.65 6.6 5.8 5.55 8.0 5.0 9.8 6.4 10.15 7.7 9.3 8.65"/><path fill="#242134" stroke="none" d="M6.25 5.9 L6.3 6.5 6.05 7.15 6.0 7.1 Q5.5 6.45 6.25 5.9 M8.9 7.75 L8.85 7.1 9.15 6.55 Q9.5 7.3 8.9 7.75 M8.7 6.25 L8.5 6.7 8.05 6.6 8.15 6.05 8.7 6.25"/><path fill="none" stroke="#382510" stroke-width="0.5" stroke-opacity="0.301960784314" d="M9.3 8.65 Q7.65 7.35 5.5 7.65 4.65 6.6 5.8 5.55 8.0 5.0 9.8 6.4 10.15 7.7 9.3 8.65"/></g><g id="c11"><g><use transform="matrix(1.0,0.0,0.0,1.0,0.0,0.0)" xlink:href="#c10"/></g></g><g id="c12"><g><use transform="matrix(1.0,0.0,0.0,1.0,6.3,53.35)" xlink:href="#c9"/></g><g><use transform="matrix(1.0,0.0,0.0,1.0,19.85,68.2)" xlink:href="#c11"/></g><g><use transform="matrix(0.141098022461,-0.0378112792969,0.111373901367,0.225646972656,27.2,74.05)" filter="url(#filter12)" xlink:href="#c6"/></g></g><filter id="filter12"><feColorMatrix in="SourceGraphic" type="matrix" values="1.0 0.0 0.0 0.0 0.0 0.0 1.0 0.0 0.0 0.0 0.0 0.0 1.0 0.0 0.0 0.0 0.0 0.0 0.23046875 0.0" result="cxform"/><feComposite operator="in" in2="SourceGraphic" result="color-xform"/></filter></defs><g><g><use transform="matrix(1.0,0.0,0.0,1.0,0.0,0.0)" xlink:href="#c1"/></g><g><use transform="matrix(1.15496826172,0.0,0.0,1.15496826172,-1.4,-57.4)" xlink:href="#c12"/></g></g></svg>