<?xml version='1.0' encoding='UTF-8'?>
<svg xmlns:xlink="http://www.w3.org/1999/xlink" xmlns="http://www.w3.org/2000/svg" version="1.1" width="60px" height="60px" viewBox="0.0 0.0 60.0 60.0"><defs><g id="c1"><path fill="#000000" fill-opacity="0.00392156862745" d="M0.0 0.0 L60.0 0.0 60.0 60.0 0.0 60.0 0.0 0.0"/></g><g id="c2"><path fill="none" stroke="#000000" stroke-width="1.0" stroke-opacity="0.301960784314" d="M28.45 3.1 L41.35 31.7 Q42.95 35.15 40.2 36.7 39.5 37.3 38.3 37.65 L36.35 38.3 36.15 38.15 34.0 36.9 33.8 36.8 Q30.65 35.45 27.7 36.35 24.75 37.3 23.7 40.05 L23.6 40.25 Q23.25 41.25 23.25 42.3 L23.25 42.35 23.25 42.55 19.8 43.65 Q17.15 44.45 15.5 43.3 14.35 42.55 13.65 40.9 L0.7 12.25 Q-0.45 9.75 0.75 8.25 1.2 7.6 2.15 7.15 2.8 6.7 3.8 6.35 L6.45 5.5 8.5 6.75 8.7 6.85 Q11.9 8.2 14.85 7.25 17.8 6.35 18.85 3.6 L18.9 3.4 19.3 1.35 22.3 0.4 Q26.55 -1.0 28.45 3.1"/><path fill="#9d147b" stroke="none" d="M35.55 22.3 L28.25 6.1 27.75 4.95 Q26.05 1.25 21.6 2.85 20.8 5.65 18.85 7.6 17.0 9.45 14.2 9.8 11.45 9.95 9.0 8.8 L6.4 7.45 Q1.65 9.1 3.35 12.8 L8.25 23.65 15.0 38.6 15.2 39.0 Q16.8 42.25 20.45 41.1 L21.65 40.55 Q22.7 36.9 25.05 35.5 27.4 34.15 30.2 34.2 33.05 34.2 36.25 36.1 L37.2 35.7 Q41.1 34.5 39.35 30.75 L35.55 22.3 M19.3 1.35 L22.3 0.4 Q26.55 -1.0 28.45 3.1 L41.35 31.7 Q42.95 35.15 40.2 36.7 L38.9 37.25 36.15 38.15 34.0 36.9 33.8 36.8 Q30.65 35.45 27.7 36.35 24.75 37.3 23.7 40.05 L23.6 40.25 Q23.25 41.25 23.25 42.3 L23.2 42.3 20.4 43.2 19.1 43.5 17.3 43.4 Q15.3 42.9 14.2 40.5 L5.45 20.95 1.35 11.8 Q0.4 9.65 1.1 8.3 1.45 7.65 2.15 7.15 2.8 6.7 3.8 6.35 L6.45 5.5 8.5 6.75 8.7 6.85 Q11.9 8.2 14.85 7.25 17.8 6.35 18.85 3.6 L18.9 3.4 19.3 1.35"/><path fill="#c47fad" stroke="none" d="M28.25 6.1 L35.55 22.3 39.35 30.75 Q41.1 34.5 37.2 35.7 L36.25 36.1 Q33.05 34.2 30.2 34.2 27.4 34.15 25.05 35.5 22.7 36.9 21.65 40.55 L20.45 41.1 Q16.8 42.25 15.2 39.0 L15.0 38.6 8.25 23.65 3.35 12.8 Q1.65 9.1 6.4 7.45 L9.0 8.8 Q11.45 9.95 14.2 9.8 17.0 9.45 18.85 7.6 20.8 5.65 21.6 2.85 26.05 1.25 27.75 4.95 L28.25 6.1 M34.0 32.9 L33.7 32.1 Q33.45 30.9 34.1 30.1 34.75 29.3 35.95 29.35 L35.8 29.0 26.5 8.3 26.25 7.85 Q24.9 5.45 22.05 6.35 19.75 11.1 14.85 11.65 11.45 11.85 9.1 10.55 L9.55 11.6 Q9.8 12.8 9.15 13.6 8.4 14.45 7.1 14.4 L6.8 14.4 6.95 14.6 16.3 35.2 Q16.8 36.4 17.65 37.0 18.8 37.8 19.8 37.35 21.8 33.7 25.95 32.3 30.35 30.8 34.0 32.9"/><path fill="#fcf2cf" stroke="none" d="M22.05 6.35 Q24.9 5.45 26.25 7.85 L26.5 8.3 35.8 29.0 35.95 29.35 Q34.75 29.3 34.1 30.1 33.45 30.9 33.7 32.1 L34.0 32.9 Q30.35 30.8 25.95 32.3 21.8 33.7 19.8 37.35 18.8 37.8 17.65 37.0 16.8 36.4 16.3 35.2 L6.95 14.6 6.8 14.4 7.1 14.4 Q8.4 14.45 9.15 13.6 9.8 12.8 9.55 11.6 L9.1 10.55 Q11.45 11.85 14.85 11.65 19.75 11.1 22.05 6.35"/><path fill="#300525" stroke="none" d="M40.2 36.7 Q39.5 37.3 38.3 37.65 L36.35 38.3 36.15 38.15 38.9 37.25 40.2 36.7 M23.25 42.3 L23.25 42.35 23.2 42.3 23.25 42.3 M20.1 43.55 L19.8 43.65 Q17.15 44.45 15.5 43.3 L17.3 43.4 19.1 43.5 20.1 43.55 M4.6 20.9 L0.7 12.25 Q-0.45 9.75 0.75 8.25 L1.1 8.3 Q0.4 9.65 1.35 11.8 L5.45 20.95 4.6 20.9"/><path fill="#630a4c" stroke="none" d="M23.25 42.35 L23.25 42.55 20.1 43.55 19.1 43.5 20.4 43.2 23.2 42.3 23.25 42.35 M15.5 43.3 Q14.35 42.55 13.65 40.9 L4.6 20.9 5.45 20.95 14.2 40.5 Q15.3 42.9 17.3 43.4 L15.5 43.3 M0.75 8.25 Q1.2 7.6 2.15 7.15 1.45 7.65 1.1 8.3 L0.75 8.25"/><path fill="none" stroke="#bf9900" stroke-width="1.0" stroke-opacity="0.749019607843" d="M28.25 6.1 L35.55 22.3 M15.0 38.6 L8.25 23.65"/><path fill="none" stroke="#000000" stroke-width="0.5" stroke-opacity="0.301960784314" d="M19.3 1.35 L22.3 0.4 Q26.55 -1.0 28.45 3.1 L41.35 31.7 Q42.95 35.15 40.2 36.7 39.5 37.3 38.3 37.65 L36.35 38.3 M23.25 42.55 L20.1 43.55 19.8 43.65 Q17.15 44.45 15.5 43.3 14.35 42.55 13.65 40.9 L4.6 20.9 0.7 12.25 Q-0.45 9.75 0.75 8.25 1.2 7.6 2.15 7.15 2.8 6.7 3.8 6.35 L6.45 5.5 M1.1 8.3 Q1.45 7.65 2.15 7.15 M5.45 20.95 L1.35 11.8 Q0.4 9.65 1.1 8.3 M17.3 43.4 Q15.3 42.9 14.2 40.5 L5.45 20.95 M19.1 43.5 L17.3 43.4 M23.2 42.3 L20.4 43.2 19.1 43.5 M23.25 42.3 L23.2 42.3 M40.2 36.7 L38.9 37.25 36.15 38.15"/><path fill="none" stroke="#ffcc00" stroke-width="1.0" stroke-opacity="0.749019607843" d="M35.55 22.3 L39.35 30.75 Q41.1 34.5 37.2 35.7 L36.25 36.1 M21.65 40.55 L20.45 41.1 Q16.8 42.25 15.2 39.0 L15.0 38.6 M8.25 23.65 L3.35 12.8 Q1.65 9.1 6.4 7.45 M21.6 2.85 Q26.05 1.25 27.75 4.95 L28.25 6.1"/><path fill="none" stroke="#f0b92b" stroke-width="0.5" d="M22.05 6.35 Q24.9 5.45 26.25 7.85 L26.5 8.3 35.8 29.0 35.95 29.35 Q34.75 29.3 34.1 30.1 33.45 30.9 33.7 32.1 L34.0 32.9 M19.8 37.35 Q18.8 37.8 17.65 37.0 16.8 36.4 16.3 35.2 L6.95 14.6 6.8 14.4 7.1 14.4 Q8.4 14.45 9.15 13.6 9.8 12.8 9.55 11.6 L9.1 10.55"/><path fill="none" stroke="#ffaa00" stroke-width="1.0" stroke-opacity="0.749019607843" d="M36.25 36.1 Q33.05 34.2 30.2 34.2 27.4 34.15 25.05 35.5 22.7 36.9 21.65 40.55 M6.4 7.45 L9.0 8.8 Q11.45 9.95 14.2 9.8 17.0 9.45 18.85 7.6 20.8 5.65 21.6 2.85"/><path fill="none" stroke="#ffaa00" stroke-width="0.5" stroke-opacity="0.749019607843" d="M34.0 32.9 Q30.35 30.8 25.95 32.3 21.8 33.7 19.8 37.35 M9.1 10.55 Q11.45 11.85 14.85 11.65 19.75 11.1 22.05 6.35"/></g><g id="c3"><path fill="#7fdbfe" stroke="none" d="M10.75 4.9 Q10.75 4.6 10.9 4.35 11.25 3.45 11.95 2.75 13.3 1.5 14.35 2.1 15.4 2.7 14.95 4.45 14.7 5.4 14.1 6.15 L13.75 6.5 Q13.1 7.15 12.35 7.35 L11.4 7.2 Q10.95 6.9 10.75 6.4 10.5 5.75 10.75 4.9 M9.3 1.7 Q9.55 2.65 9.4 3.6 L9.3 4.15 8.5 5.5 7.6 5.9 7.5 5.9 Q7.0 5.85 6.6 5.5 6.05 5.0 5.8 4.15 L5.7 3.6 Q5.55 2.65 5.8 1.7 6.25 0.0 7.5 0.0 L7.6 0.0 Q8.85 0.0 9.3 1.7 M0.15 4.45 Q-0.3 2.7 0.75 2.1 1.8 1.5 3.15 2.75 3.85 3.45 4.2 4.35 L4.35 4.9 Q4.6 5.75 4.35 6.4 L3.7 7.2 2.75 7.35 Q2.0 7.15 1.35 6.5 L1.0 6.15 Q0.4 5.4 0.15 4.45 M7.55 7.0 Q8.75 6.9 9.9 7.6 11.45 8.5 11.95 10.25 12.35 12.0 11.5 12.95 10.7 13.9 9.65 13.7 8.55 13.5 7.55 12.6 6.55 13.5 5.5 13.7 4.45 13.9 3.65 12.95 2.75 12.0 3.2 10.25 3.7 8.5 5.25 7.6 6.4 6.9 7.55 7.0"/></g><g id="c4"><g><use transform="matrix(1.0,0.0,0.0,1.0,0.0,0.0)" xlink:href="#c3"/></g></g><radialGradient gradientUnits="userSpaceOnUse" r="819.2" cx="0" cy="0" spreadMethod="pad" gradientTransform="matrix(0.0914459228516,0.0,0.0,0.0914459228516,0.6,3.4)" id="gradient1"><stop offset="0.0" stop-color="#ffffff"/><stop offset="1.0" stop-color="#ffffff" stop-opacity="0.0"/></radialGradient><g id="c5"><path stroke="none" fill="url(#gradient1)" d="M36.65 -54.65 Q60.05 -42.0 69.75 -17.95 80.55 8.9 68.0 34.1 55.45 59.35 26.8 68.2 -1.8 77.05 -29.7 64.3 -57.6 51.6 -68.45 24.75 -79.3 -2.05 -66.75 -27.25 L-66.7 -27.3 Q-54.1 -52.5 -25.5 -61.4 3.1 -70.2 31.0 -57.5 L36.65 -54.65"/></g><g id="c6"><g><use transform="matrix(1.0,0.0,0.0,1.0,0.0,0.0)" xlink:href="#c5"/></g></g><radialGradient gradientUnits="userSpaceOnUse" r="819.2" cx="0" cy="0" spreadMethod="pad" gradientTransform="matrix(0.209197998047,0.0,0.0,0.177108764648,67.15,107.2)" id="gradient2"><stop offset="0.356862745098" stop-color="#ffffff"/><stop offset="0.670588235294" stop-opacity="0.0"/></radialGradient><g id="c7"><path fill="none" stroke-linejoin="round" stroke-linecap="round" stroke="url(#gradient2)" stroke-width="0.5" d="M136.55 165.8 L68.6 106.0 68.4 106.0 118.25 201.5 M68.3 105.8 L68.35 105.8 68.3 105.8 68.3 105.85 68.4 106.0 68.3 106.0 86.55 211.5 M68.3 105.8 L68.3 105.85 68.3 106.0 68.15 105.95 18.25 151.55 M68.3 105.85 L68.25 105.85 68.3 106.0 50.0 193.2 M68.25 105.85 L68.15 105.95 0.05 97.7 M68.3 105.85 L68.25 105.8 68.25 105.85 M68.25 105.8 L68.2 105.7 0.0 45.7 M68.3 105.8 L68.25 105.75 68.25 105.8 M68.25 105.75 L68.2 105.7 18.25 10.05 M68.6 106.0 L68.35 105.8 118.25 60.15 M86.6 18.35 L68.3 105.8 M136.6 114.25 L68.6 106.0 M68.25 105.75 L49.95 0.05"/></g><g id="c8"><g><use transform="matrix(1.0,0.0,0.0,1.0,0.0,0.0)" xlink:href="#c7"/></g></g><g id="c9"><g><use transform="matrix(1.0,0.0,0.0,1.0,0.0,0.0)" xlink:href="#c2"/></g><g><use transform="matrix(0.238861083984,-0.0867004394531,0.10026550293,0.233917236328,34.25,31.15)" xlink:href="#c4"/></g><g><use transform="matrix(0.238861083984,-0.0867004394531,0.10026550293,0.233917236328,4.25,10.3)" xlink:href="#c4"/></g><g><use transform="matrix(0.141098022461,-0.0378112792969,0.111373901367,0.225646972656,20.25,20.65)" filter="url(#filter7)" xlink:href="#c6"/></g><g><use transform="matrix(-0.155029296875,0.0513153076172,0.0841827392578,0.147033691406,22.6,3.15)" filter="url(#filter8)" xlink:href="#c8"/></g></g><filter id="filter7"><feColorMatrix in="SourceGraphic" type="matrix" values="0.0 0.0 0.0 0.0 0.796875 0.0 0.0 0.0 0.0 0.59765625 0.0 0.0 0.0 0.0 0.19921875 0.0 0.0 0.0 1.0 0.0" result="cxform"/><feComposite operator="in" in2="SourceGraphic" result="color-xform"/></filter><filter id="filter8"><feColorMatrix in="SourceGraphic" type="matrix" values="0.0 0.0 0.0 0.0 0.99609375 0.0 0.0 0.0 0.0 0.99609375 0.0 0.0 0.0 0.0 0.99609375 0.0 0.0 0.0 1.0 0.0" result="cxform"/><feComposite operator="in" in2="SourceGraphic" result="color-xform"/></filter><g id="c10"><path fill="#46334f" stroke="none" d="M13.3 3.8 L14.55 6.25 15.65 8.95 15.7 9.25 15.6 10.35 15.35 10.15 14.9 10.05 14.95 9.65 14.95 9.5 Q14.95 8.55 14.6 7.95 L14.55 7.9 12.4 5.1 12.55 4.7 13.1 4.7 Q13.4 4.5 13.3 3.8 M15.6 11.05 L15.6 11.1 15.55 12.4 15.7 13.05 Q15.9 14.1 15.25 13.15 L14.8 12.6 14.85 11.3 14.85 10.7 14.85 10.6 15.15 10.75 15.6 11.05 M-2.05 1.3 L-1.0 2.35 -0.65 2.55 -0.25 2.65 0.1 3.05 0.1 3.6 -0.2 3.7 -1.05 3.45 -1.85 2.85 -1.9 1.8 -2.05 1.3 M1.15 2.6 L2.55 2.0 3.45 1.55 Q4.5 1.0 5.85 0.55 L7.05 0.3 9.6 0.0 11.15 0.7 Q11.6 1.0 11.25 2.3 L11.2 2.35 11.2 2.4 11.2 2.45 10.75 3.45 10.05 2.85 9.2 2.5 8.2 2.15 7.0 2.05 5.55 2.0 4.4 2.3 1.15 3.25 1.15 2.65 1.15 2.6"/><path fill="#ad72b0" stroke="none" d="M11.25 2.45 L11.3 2.6 11.45 2.8 Q11.5 3.3 11.15 3.9 L10.7 4.35 10.65 4.3 10.75 4.15 10.8 3.95 Q10.75 3.75 10.35 3.8 L10.6 3.55 10.75 3.45 11.2 2.45 11.25 2.45 M11.85 3.55 L12.3 4.1 12.5 4.6 12.55 4.7 12.4 5.1 12.25 5.3 12.2 5.35 11.9 5.1 11.45 4.85 11.25 4.7 11.55 4.35 11.85 3.55 M15.6 10.35 L15.6 11.05 15.15 10.75 14.85 10.6 14.9 10.05 15.35 10.15 15.6 10.35 M-0.25 2.65 L-0.1 2.7 1.15 2.6 1.15 2.65 1.15 3.25 0.3 3.55 0.1 3.6 0.1 3.05 -0.25 2.65"/><path fill="#cf5d08" stroke="none" d="M11.2 2.4 L11.25 2.45 11.2 2.45 11.2 2.4"/><path fill="#82cccc" stroke="none" d="M11.45 2.8 L11.75 3.45 11.85 3.55 11.55 4.35 11.25 4.7 11.0 4.6 10.7 4.35 11.15 3.9 Q11.5 3.3 11.45 2.8"/><path fill="#846094" stroke="none" d="M12.3 4.1 L12.9 3.65 Q13.2 3.55 13.3 3.8 13.4 4.5 13.1 4.7 L12.55 4.7 12.5 4.6 12.3 4.1 M-1.85 3.65 L-1.9 3.65 -2.2 3.5 -2.35 2.8 -2.4 2.35 -2.45 1.9 -2.45 0.9 -2.15 1.1 -2.1 1.15 -2.05 1.2 -2.05 1.3 -1.9 1.8 -1.85 2.85 -1.85 2.9 -1.85 3.65"/><path fill="#654a71" stroke="none" d="M14.8 12.6 L14.15 11.4 14.1 11.15 14.2 10.85 14.25 10.8 14.3 10.7 14.4 10.6 14.85 10.6 14.85 10.7 14.85 11.3 14.8 12.6 M-0.2 4.15 L-1.85 3.65 -1.85 2.9 -1.85 2.85 -1.05 3.45 -0.2 3.7 0.1 3.6 0.05 3.85 -0.15 4.1 -0.2 4.15 M10.75 3.45 L10.6 3.55 10.35 3.8 10.15 4.0 9.5 4.1 8.45 3.45 7.2 3.1 3.85 3.2 1.5 3.6 1.0 3.8 1.15 3.3 1.15 3.25 4.4 2.3 5.55 2.0 7.0 2.05 8.2 2.15 9.2 2.5 10.05 2.85 10.75 3.45 M12.2 5.35 L12.25 5.3 12.4 5.1 14.55 7.9 14.6 7.95 Q14.95 8.55 14.95 9.5 L14.95 9.65 14.9 10.05 14.6 10.05 14.35 10.2 14.4 10.1 14.25 8.85 13.7 7.45 13.05 6.6 12.15 5.8 11.9 5.6 12.2 5.35"/><path fill="#d38dd9" stroke="none" d="M14.3 10.7 L14.3 10.65 14.3 10.35 14.35 10.3 14.35 10.2 14.6 10.05 14.9 10.05 14.85 10.6 14.4 10.6 14.3 10.7 M1.15 3.25 L1.15 3.3 1.0 3.8 0.55 3.95 -0.15 4.1 0.05 3.85 0.1 3.6 0.3 3.55 1.15 3.25 M9.5 4.1 L10.15 4.0 10.35 3.8 Q10.75 3.75 10.8 3.95 L10.75 4.15 10.65 4.3 10.7 4.35 10.25 4.65 10.05 4.65 9.85 4.55 9.8 4.5 9.75 4.4 9.5 4.1 M10.65 5.05 L11.25 4.7 11.45 4.85 11.9 5.1 12.2 5.35 11.9 5.6 11.65 5.7 11.35 5.6 10.75 5.15 10.65 5.05"/><path fill="#99f0f0" stroke="none" d="M10.7 4.35 L11.0 4.6 11.25 4.7 10.65 5.05 10.55 4.95 10.45 4.85 10.05 4.65 10.25 4.65 10.7 4.35"/><path fill="none" stroke="#000000" stroke-width="0.5" stroke-opacity="0.301960784314" d="M11.25 2.45 L11.3 2.6 11.45 2.8 11.75 3.45 11.85 3.55 12.3 4.1 12.9 3.65 Q13.2 3.55 13.3 3.8 L14.55 6.25 15.65 8.95 15.7 9.25 15.6 10.35 15.6 11.05 15.6 11.1 15.55 12.4 15.7 13.05 Q15.9 14.1 15.25 13.15 L14.8 12.6 14.15 11.4 14.1 11.15 14.2 10.85 14.25 10.8 14.3 10.7 14.3 10.65 M-0.2 4.15 L-1.85 3.65 -1.9 3.65 -2.2 3.5 -2.35 2.8 -2.4 2.35 -2.45 1.9 -2.45 0.9 -2.15 1.1 -2.1 1.15 -2.05 1.2 -2.05 1.3 -1.0 2.35 -0.65 2.55 -0.25 2.65 -0.1 2.7 1.15 2.6 2.55 2.0 3.45 1.55 Q4.5 1.0 5.85 0.55 L7.05 0.3 9.6 0.0 11.15 0.7 Q11.6 1.0 11.25 2.3 L11.2 2.35 M12.55 4.7 L12.5 4.6 12.3 4.1 M10.35 3.8 L10.6 3.55 10.75 3.45 11.2 2.45 M1.15 3.25 L1.15 3.3 1.0 3.8 1.5 3.6 3.85 3.2 7.2 3.1 8.45 3.45 9.5 4.1 10.15 4.0 10.35 3.8 M10.05 4.65 L10.45 4.85 10.55 4.95 10.65 5.05 M12.2 5.35 L12.25 5.3 12.4 5.1 12.55 4.7 M11.9 5.6 L11.65 5.7 11.35 5.6 10.75 5.15 10.65 5.05 M11.9 5.6 L12.2 5.35 M14.35 10.2 L14.4 10.1 14.25 8.85 13.7 7.45 13.05 6.6 12.15 5.8 11.9 5.6 M14.9 10.05 L15.35 10.15 15.6 10.35 M14.35 10.2 L14.6 10.05 14.9 10.05 M14.85 10.6 L15.15 10.75 15.6 11.05 M14.35 10.2 L14.35 10.3 14.3 10.35 14.3 10.65 M14.3 10.7 L14.4 10.6 14.85 10.6 M10.05 4.65 L9.85 4.55 9.8 4.5 9.75 4.4 9.5 4.1 M1.15 3.25 L1.15 2.65 1.15 2.6 M1.0 3.8 L0.55 3.95 -0.15 4.1 -0.2 4.15 M-0.15 4.1 L0.05 3.85 0.1 3.6 0.1 3.05 -0.25 2.65"/><path fill="none" stroke="#000000" stroke-width="0.5" stroke-opacity="0.301960784314" d="M14.3 10.65 L-0.2 4.15"/></g><g id="c11"><g><use transform="matrix(1.0,0.0,0.0,1.0,0.0,0.0)" xlink:href="#c10"/></g></g><g id="c12"><g><use transform="matrix(1.0,0.0,0.0,1.0,6.3,53.35)" xlink:href="#c9"/></g><g><use transform="matrix(1.0,0.0,0.0,1.0,19.85,68.2)" xlink:href="#c11"/></g><g><use transform="matrix(0.141098022461,-0.0378112792969,0.111373901367,0.225646972656,27.2,74.05)" filter="url(#filter12)" xlink:href="#c6"/></g></g><filter id="filter12"><feColorMatrix in="SourceGraphic" type="matrix" values="1.0 0.0 0.0 0.0 0.0 0.0 1.0 0.0 0.0 0.0 0.0 0.0 1.0 0.0 0.0 0.0 0.0 0.0 0.23046875 0.0" result="cxform"/><feComposite operator="in" in2="SourceGraphic" result="color-xform"/></filter></defs><g><g><use transform="matrix(1.0,0.0,0.0,1.0,0.0,0.0)" xlink:href="#c1"/></g><g><use transform="matrix(1.15496826172,0.0,0.0,1.15496826172,-1.4,-57.4)" xlink:href="#c12"/></g></g></svg>