<?xml version='1.0' encoding='UTF-8'?>
<svg xmlns:xlink="http://www.w3.org/1999/xlink" xmlns="http://www.w3.org/2000/svg" version="1.1" width="60px" height="60px" viewBox="0.0 0.0 60.0 60.0"><defs><g id="c1"><path fill="#000000" fill-opacity="0.00392156862745" d="M0.0 0.0 L60.0 0.0 60.0 60.0 0.0 60.0 0.0 0.0"/></g><g id="c2"><path fill="none" stroke="#000000" stroke-width="1.0" stroke-opacity="0.301960784314" d="M28.45 3.1 L41.35 31.7 Q42.95 35.15 40.2 36.7 39.5 37.3 38.3 37.65 L36.35 38.3 36.15 38.15 34.0 36.9 33.8 36.8 Q30.65 35.45 27.7 36.35 24.75 37.3 23.7 40.05 L23.6 40.25 Q23.25 41.25 23.25 42.3 L23.25 42.35 23.25 42.55 19.8 43.65 Q17.15 44.45 15.5 43.3 14.35 42.55 13.65 40.9 L0.7 12.25 Q-0.45 9.75 0.75 8.25 1.2 7.6 2.15 7.15 2.8 6.7 3.8 6.35 L6.45 5.5 8.5 6.75 8.7 6.85 Q11.9 8.2 14.85 7.25 17.8 6.35 18.85 3.6 L18.9 3.4 19.3 1.35 22.3 0.4 Q26.55 -1.0 28.45 3.1"/><path fill="#9d147b" stroke="none" d="M35.55 22.3 L28.25 6.1 27.75 4.95 Q26.05 1.25 21.6 2.85 20.8 5.65 18.85 7.6 17.0 9.45 14.2 9.8 11.45 9.95 9.0 8.8 L6.4 7.45 Q1.65 9.1 3.35 12.8 L8.25 23.65 15.0 38.6 15.2 39.0 Q16.8 42.25 20.45 41.1 L21.65 40.55 Q22.7 36.9 25.05 35.5 27.4 34.15 30.2 34.2 33.05 34.2 36.25 36.1 L37.2 35.7 Q41.1 34.5 39.35 30.75 L35.55 22.3 M19.3 1.35 L22.3 0.4 Q26.55 -1.0 28.45 3.1 L41.35 31.7 Q42.95 35.15 40.2 36.7 L38.9 37.25 36.15 38.15 34.0 36.9 33.8 36.8 Q30.65 35.45 27.7 36.35 24.75 37.3 23.7 40.05 L23.6 40.25 Q23.25 41.25 23.25 42.3 L23.2 42.3 20.4 43.2 19.1 43.5 17.3 43.4 Q15.3 42.9 14.2 40.5 L5.45 20.95 1.35 11.8 Q0.4 9.65 1.1 8.3 1.45 7.65 2.15 7.15 2.8 6.7 3.8 6.35 L6.45 5.5 8.5 6.75 8.7 6.85 Q11.9 8.2 14.85 7.25 17.8 6.35 18.85 3.6 L18.9 3.4 19.3 1.35"/><path fill="#c47fad" stroke="none" d="M28.25 6.1 L35.55 22.3 39.35 30.75 Q41.1 34.5 37.2 35.7 L36.25 36.1 Q33.05 34.2 30.2 34.2 27.4 34.15 25.05 35.5 22.7 36.9 21.65 40.55 L20.45 41.1 Q16.8 42.25 15.2 39.0 L15.0 38.6 8.25 23.65 3.35 12.8 Q1.65 9.1 6.4 7.45 L9.0 8.8 Q11.45 9.95 14.2 9.8 17.0 9.45 18.85 7.6 20.8 5.65 21.6 2.85 26.05 1.25 27.75 4.95 L28.25 6.1 M34.0 32.9 L33.7 32.1 Q33.45 30.9 34.1 30.1 34.75 29.3 35.95 29.35 L35.8 29.0 26.5 8.3 26.25 7.85 Q24.9 5.45 22.05 6.35 19.75 11.1 14.85 11.65 11.45 11.85 9.1 10.55 L9.55 11.6 Q9.8 12.8 9.15 13.6 8.4 14.45 7.1 14.4 L6.8 14.4 6.95 14.6 16.3 35.2 Q16.8 36.4 17.65 37.0 18.8 37.8 19.8 37.35 21.8 33.7 25.95 32.3 30.35 30.8 34.0 32.9"/><path fill="#fcf2cf" stroke="none" d="M22.05 6.35 Q24.9 5.45 26.25 7.85 L26.5 8.3 35.8 29.0 35.95 29.35 Q34.75 29.3 34.1 30.1 33.45 30.9 33.7 32.1 L34.0 32.9 Q30.35 30.8 25.95 32.3 21.8 33.7 19.8 37.35 18.8 37.8 17.65 37.0 16.8 36.4 16.3 35.2 L6.95 14.6 6.8 14.4 7.1 14.4 Q8.4 14.45 9.15 13.6 9.8 12.8 9.55 11.6 L9.1 10.55 Q11.45 11.85 14.85 11.65 19.75 11.1 22.05 6.35"/><path fill="#300525" stroke="none" d="M40.2 36.7 Q39.5 37.3 38.3 37.65 L36.35 38.3 36.15 38.15 38.9 37.25 40.2 36.7 M23.25 42.3 L23.25 42.35 23.2 42.3 23.25 42.3 M20.1 43.55 L19.8 43.65 Q17.15 44.45 15.5 43.3 L17.3 43.4 19.1 43.5 20.1 43.55 M4.6 20.9 L0.7 12.25 Q-0.45 9.75 0.75 8.25 L1.1 8.3 Q0.4 9.65 1.35 11.8 L5.45 20.95 4.6 20.9"/><path fill="#630a4c" stroke="none" d="M23.25 42.35 L23.25 42.55 20.1 43.55 19.1 43.5 20.4 43.2 23.2 42.3 23.25 42.35 M15.5 43.3 Q14.35 42.55 13.65 40.9 L4.6 20.9 5.45 20.95 14.2 40.5 Q15.3 42.9 17.3 43.4 L15.5 43.3 M0.75 8.25 Q1.2 7.6 2.15 7.15 1.45 7.65 1.1 8.3 L0.75 8.25"/><path fill="none" stroke="#bf9900" stroke-width="1.0" stroke-opacity="0.749019607843" d="M28.25 6.1 L35.55 22.3 M15.0 38.6 L8.25 23.65"/><path fill="none" stroke="#000000" stroke-width="0.5" stroke-opacity="0.301960784314" d="M19.3 1.35 L22.3 0.4 Q26.55 -1.0 28.45 3.1 L41.35 31.7 Q42.95 35.15 40.2 36.7 39.5 37.3 38.3 37.65 L36.35 38.3 M23.25 42.55 L20.1 43.55 19.8 43.65 Q17.15 44.45 15.5 43.3 14.35 42.55 13.65 40.9 L4.6 20.9 0.7 12.25 Q-0.45 9.75 0.75 8.25 1.2 7.6 2.15 7.15 2.8 6.7 3.8 6.35 L6.45 5.5 M1.1 8.3 Q1.45 7.65 2.15 7.15 M5.45 20.95 L1.35 11.8 Q0.4 9.65 1.1 8.3 M17.3 43.4 Q15.3 42.9 14.2 40.5 L5.45 20.95 M19.1 43.5 L17.3 43.4 M23.2 42.3 L20.4 43.2 19.1 43.5 M23.25 42.3 L23.2 42.3 M40.2 36.7 L38.9 37.25 36.15 38.15"/><path fill="none" stroke="#ffcc00" stroke-width="1.0" stroke-opacity="0.749019607843" d="M35.55 22.3 L39.35 30.75 Q41.1 34.5 37.2 35.7 L36.25 36.1 M21.65 40.55 L20.45 41.1 Q16.8 42.25 15.2 39.0 L15.0 38.6 M8.25 23.65 L3.35 12.8 Q1.65 9.1 6.4 7.45 M21.6 2.85 Q26.05 1.25 27.75 4.95 L28.25 6.1"/><path fill="none" stroke="#f0b92b" stroke-width="0.5" d="M22.05 6.35 Q24.9 5.45 26.25 7.85 L26.5 8.3 35.8 29.0 35.95 29.35 Q34.75 29.3 34.1 30.1 33.45 30.9 33.7 32.1 L34.0 32.9 M19.8 37.35 Q18.8 37.8 17.65 37.0 16.8 36.4 16.3 35.2 L6.95 14.6 6.8 14.4 7.1 14.4 Q8.4 14.45 9.15 13.6 9.8 12.8 9.55 11.6 L9.1 10.55"/><path fill="none" stroke="#ffaa00" stroke-width="1.0" stroke-opacity="0.749019607843" d="M36.25 36.1 Q33.05 34.2 30.2 34.2 27.4 34.15 25.05 35.5 22.7 36.9 21.65 40.55 M6.4 7.45 L9.0 8.8 Q11.45 9.95 14.2 9.8 17.0 9.45 18.85 7.6 20.8 5.65 21.6 2.85"/><path fill="none" stroke="#ffaa00" stroke-width="0.5" stroke-opacity="0.749019607843" d="M34.0 32.9 Q30.35 30.8 25.95 32.3 21.8 33.7 19.8 37.35 M9.1 10.55 Q11.45 11.85 14.85 11.65 19.75 11.1 22.05 6.35"/></g><g id="c3"><path fill="#7fdbfe" stroke="none" d="M10.75 4.9 Q10.75 4.6 10.9 4.35 11.25 3.45 11.95 2.75 13.3 1.5 14.35 2.1 15.4 2.7 14.95 4.45 14.7 5.4 14.1 6.15 L13.75 6.5 Q13.1 7.15 12.35 7.35 L11.4 7.2 Q10.95 6.9 10.75 6.4 10.5 5.75 10.75 4.9 M9.3 1.7 Q9.55 2.65 9.4 3.6 L9.3 4.15 8.5 5.5 7.6 5.9 7.5 5.9 Q7.0 5.85 6.6 5.5 6.05 5.0 5.8 4.15 L5.7 3.6 Q5.55 2.65 5.8 1.7 6.25 0.0 7.5 0.0 L7.6 0.0 Q8.85 0.0 9.3 1.7 M0.15 4.45 Q-0.3 2.7 0.75 2.1 1.8 1.5 3.15 2.75 3.85 3.45 4.2 4.35 L4.35 4.9 Q4.6 5.75 4.35 6.4 L3.7 7.2 2.75 7.35 Q2.0 7.15 1.35 6.5 L1.0 6.15 Q0.4 5.4 0.15 4.45 M7.55 7.0 Q8.75 6.9 9.9 7.6 11.45 8.5 11.95 10.25 12.35 12.0 11.5 12.95 10.7 13.9 9.65 13.7 8.55 13.5 7.55 12.6 6.55 13.5 5.5 13.7 4.45 13.9 3.65 12.95 2.75 12.0 3.2 10.25 3.7 8.5 5.25 7.6 6.4 6.9 7.55 7.0"/></g><g id="c4"><g><use transform="matrix(1.0,0.0,0.0,1.0,0.0,0.0)" xlink:href="#c3"/></g></g><radialGradient gradientUnits="userSpaceOnUse" r="819.2" cx="0" cy="0" spreadMethod="pad" gradientTransform="matrix(0.0914459228516,0.0,0.0,0.0914459228516,0.6,3.4)" id="gradient1"><stop offset="0.0" stop-color="#ffffff"/><stop offset="1.0" stop-color="#ffffff" stop-opacity="0.0"/></radialGradient><g id="c5"><path stroke="none" fill="url(#gradient1)" d="M36.65 -54.65 Q60.05 -42.0 69.75 -17.95 80.55 8.9 68.0 34.1 55.45 59.35 26.8 68.2 -1.8 77.05 -29.7 64.3 -57.6 51.6 -68.45 24.75 -79.3 -2.05 -66.75 -27.25 L-66.7 -27.3 Q-54.1 -52.5 -25.5 -61.4 3.1 -70.2 31.0 -57.5 L36.65 -54.65"/></g><g id="c6"><g><use transform="matrix(1.0,0.0,0.0,1.0,0.0,0.0)" xlink:href="#c5"/></g></g><radialGradient gradientUnits="userSpaceOnUse" r="819.2" cx="0" cy="0" spreadMethod="pad" gradientTransform="matrix(0.209197998047,0.0,0.0,0.177108764648,67.15,107.2)" id="gradient2"><stop offset="0.356862745098" stop-color="#ffffff"/><stop offset="0.670588235294" stop-opacity="0.0"/></radialGradient><g id="c7"><path fill="none" stroke-linejoin="round" stroke-linecap="round" stroke="url(#gradient2)" stroke-width="0.5" d="M136.55 165.8 L68.6 106.0 68.4 106.0 118.25 201.5 M68.3 105.8 L68.35 105.8 68.3 105.8 68.3 105.85 68.4 106.0 68.3 106.0 86.55 211.5 M68.3 105.8 L68.3 105.85 68.3 106.0 68.15 105.95 18.25 151.55 M68.3 105.85 L68.25 105.85 68.3 106.0 50.0 193.2 M68.25 105.85 L68.15 105.95 0.05 97.7 M68.3 105.85 L68.25 105.8 68.25 105.85 M68.25 105.8 L68.2 105.7 0.0 45.7 M68.3 105.8 L68.25 105.75 68.25 105.8 M68.25 105.75 L68.2 105.7 18.25 10.05 M68.6 106.0 L68.35 105.8 118.25 60.15 M86.6 18.35 L68.3 105.8 M136.6 114.25 L68.6 106.0 M68.25 105.75 L49.95 0.05"/></g><g id="c8"><g><use transform="matrix(1.0,0.0,0.0,1.0,0.0,0.0)" xlink:href="#c7"/></g></g><g id="c9"><g><use transform="matrix(1.0,0.0,0.0,1.0,0.0,0.0)" xlink:href="#c2"/></g><g><use transform="matrix(0.238861083984,-0.0867004394531,0.10026550293,0.233917236328,34.25,31.15)" xlink:href="#c4"/></g><g><use transform="matrix(0.238861083984,-0.0867004394531,0.10026550293,0.233917236328,4.25,10.3)" xlink:href="#c4"/></g><g><use transform="matrix(0.141098022461,-0.0378112792969,0.111373901367,0.225646972656,20.25,20.65)" filter="url(#filter7)" xlink:href="#c6"/></g><g><use transform="matrix(-0.155029296875,0.0513153076172,0.0841827392578,0.147033691406,22.6,3.15)" filter="url(#filter8)" xlink:href="#c8"/></g></g><filter id="filter7"><feColorMatrix in="SourceGraphic" type="matrix" values="0.0 0.0 0.0 0.0 0.796875 0.0 0.0 0.0 0.0 0.59765625 0.0 0.0 0.0 0.0 0.19921875 0.0 0.0 0.0 1.0 0.0" result="cxform"/><feComposite operator="in" in2="SourceGraphic" result="color-xform"/></filter><filter id="filter8"><feColorMatrix in="SourceGraphic" type="matrix" values="0.0 0.0 0.0 0.0 0.99609375 0.0 0.0 0.0 0.0 0.99609375 0.0 0.0 0.0 0.0 0.99609375 0.0 0.0 0.0 1.0 0.0" result="cxform"/><feComposite operator="in" in2="SourceGraphic" result="color-xform"/></filter><g id="c10"><path fill="#735517" stroke="none" d="M15.0 2.85 Q13.25 1.75 12.35 1.4 13.7 -0.7 16.3 -2.4 L18.15 -1.1 Q20.0 -0.05 21.15 0.3 L21.3 2.35 21.15 0.3 24.75 0.2 25.0 1.05 25.25 2.05 Q25.75 3.45 26.5 3.75 28.5 4.15 29.75 5.65 30.0 7.9 31.25 9.1 L29.4 8.95 Q28.4 7.7 28.5 6.5 L25.0 5.5 24.4 4.3 Q23.85 3.15 23.75 1.7 21.45 1.95 21.3 2.35 L20.05 1.85 16.35 0.35 Q15.5 1.35 15.0 2.85 M19.3 27.0 L19.3 28.5 19.3 28.55 19.25 28.55 19.25 28.6 19.3 29.6 19.45 30.95 Q19.95 32.85 20.85 33.65 21.6 34.4 22.6 34.4 22.05 34.9 20.4 35.15 L19.85 35.25 18.1 33.65 Q17.75 31.2 17.8 29.25 L17.8 29.2 17.85 28.05 18.0 26.3 18.05 25.95 19.3 25.45 19.3 27.0 M26.5 3.75 L25.0 5.5 26.5 3.75 M14.0 29.45 Q13.9 29.8 13.95 30.25 L14.0 30.6 14.05 30.8 14.2 31.45 Q12.8 30.85 13.55 29.6 L13.9 29.1 Q14.15 28.85 14.45 28.7 L14.0 29.45"/><path fill="#b78b51" stroke="none" d="M15.0 2.85 Q15.5 1.35 16.35 0.35 L20.05 1.85 Q21.3 11.95 19.15 9.45 L18.95 8.8 Q17.65 4.45 15.0 2.85 M22.55 12.65 Q23.0 12.2 23.35 12.15 L23.0 14.6 Q22.7 19.25 21.3 22.95 20.5 24.4 19.3 25.45 L18.05 25.95 18.0 26.3 17.85 28.05 Q14.8 30.6 14.0 29.45 L14.45 28.7 14.8 28.3 15.8 27.45 16.1 27.2 15.95 27.25 14.65 27.4 Q11.55 30.05 12.35 27.9 9.9 26.85 7.95 25.6 L5.35 20.05 Q7.2 19.35 9.55 18.6 L10.35 18.4 Q16.1 16.1 18.85 11.05 L19.25 11.15 19.4 11.2 Q20.05 11.5 20.65 12.1 L21.2 12.75 21.45 13.1 21.7 13.5 22.5 12.65 22.55 12.65 M21.3 2.35 Q21.45 1.95 23.75 1.7 23.85 3.15 24.4 4.3 22.05 11.0 21.15 7.35 L21.3 2.35 M13.7 17.9 L11.7 18.15 10.35 18.4 11.7 18.15 13.7 17.9 M18.05 25.95 Q17.05 26.5 16.1 27.2 17.05 26.5 18.05 25.95"/><path fill="#81601b" stroke="none" d="M20.05 1.85 L21.3 2.35 21.15 7.35 21.0 9.4 20.65 12.1 21.0 9.4 21.15 7.35 Q22.05 11.0 24.4 4.3 L25.0 5.5 28.5 6.5 Q28.4 7.7 29.4 8.95 27.35 9.1 25.1 10.55 L22.55 12.65 22.5 12.65 21.7 13.5 21.45 13.1 21.2 12.75 20.65 12.1 Q20.05 11.5 19.4 11.2 L19.15 9.45 Q21.3 11.95 20.05 1.85 M21.3 22.95 Q20.5 25.05 19.3 27.0 L19.3 25.45 Q20.5 24.4 21.3 22.95 M19.85 35.25 Q17.05 33.9 15.15 32.25 L13.95 33.2 12.85 33.85 11.95 34.3 7.95 25.6 Q9.9 26.85 12.35 27.9 11.55 30.05 14.65 27.4 L15.95 27.25 16.1 27.2 15.8 27.45 14.8 28.3 14.45 28.7 Q14.15 28.85 13.9 29.1 L13.55 29.6 Q12.8 30.85 14.2 31.45 L14.05 30.8 14.0 30.6 13.95 30.25 Q13.9 29.8 14.0 29.45 14.8 30.6 17.85 28.05 L17.8 29.2 17.8 29.25 Q17.75 31.2 18.1 33.65 L19.85 35.25 M25.0 5.5 Q23.85 7.3 22.75 9.9 L21.45 13.1 22.75 9.9 Q23.85 7.3 25.0 5.5 M17.05 32.9 L15.45 32.0 14.65 31.45 14.05 30.8 14.65 31.45 15.45 32.0 17.05 32.9 M11.8 29.5 Q12.35 32.0 14.55 31.9 L14.7 31.9 14.55 31.75 14.2 31.45 14.55 31.75 14.7 31.9 15.15 32.25 14.7 31.9 14.55 31.9 Q12.35 32.0 11.8 29.5 M15.55 30.95 L14.85 30.75 Q14.25 30.5 13.95 30.25 14.25 30.5 14.85 30.75 L15.55 30.95"/><path fill="#17110e" stroke="none" d="M19.3 28.55 L19.25 28.6 19.25 28.55 19.3 28.55"/><path fill="none" stroke="#000000" stroke-width="1.5" stroke-opacity="0.2" d="M21.15 0.3 Q20.0 -0.05 18.15 -1.1 L16.3 -2.4 Q13.7 -0.7 12.35 1.4 13.25 1.75 15.0 2.85 15.5 1.35 16.35 0.35 L20.05 1.85 21.3 2.35 21.15 0.3 24.75 0.2 25.0 1.05 25.25 2.05 Q25.75 3.45 26.5 3.75 28.5 4.15 29.75 5.65 30.0 7.9 31.25 9.1 L29.4 8.95 Q27.35 9.1 25.1 10.55 L22.55 12.65 Q23.0 12.2 23.35 12.15 L23.0 14.6 Q22.7 19.25 21.3 22.95 20.5 25.05 19.3 27.0 L19.3 28.5 19.3 28.55 19.25 28.6 19.3 29.6 19.45 30.95 Q19.95 32.85 20.85 33.65 21.6 34.4 22.6 34.4 22.05 34.9 20.4 35.15 L19.85 35.25 Q17.05 33.9 15.15 32.25 L13.95 33.2 12.85 33.85 11.95 34.3 M5.35 20.05 Q7.2 19.35 9.55 18.6 L10.35 18.4 Q16.1 16.1 18.85 11.05 L19.25 11.15 19.4 11.2 19.15 9.45 18.95 8.8 Q17.65 4.45 15.0 2.85 M21.3 2.35 Q21.45 1.95 23.75 1.7 23.85 3.15 24.4 4.3 L25.0 5.5 26.5 3.75 M20.65 12.1 L21.0 9.4 21.15 7.35 21.3 2.35 M25.0 5.5 L28.5 6.5 Q28.4 7.7 29.4 8.95 M21.45 13.1 L22.75 9.9 Q23.85 7.3 25.0 5.5 M20.65 12.1 L21.2 12.75 21.45 13.1 21.7 13.5 22.5 12.65 22.55 12.65 M10.35 18.4 L11.7 18.15 13.7 17.9 M19.3 25.45 L18.05 25.95 18.0 26.3 17.85 28.05 17.8 29.2 17.8 29.25 Q17.75 31.2 18.1 33.65 L19.85 35.25 M19.3 27.0 L19.3 25.45 M14.45 28.7 L14.8 28.3 15.8 27.45 16.1 27.2 Q17.05 26.5 18.05 25.95 M19.3 28.55 L19.25 28.55 19.25 28.6 M14.45 28.7 Q14.15 28.85 13.9 29.1 L13.55 29.6 Q12.8 30.85 14.2 31.45 L14.05 30.8 14.0 30.6 13.95 30.25 Q13.9 29.8 14.0 29.45 L14.45 28.7 M13.95 30.25 Q14.25 30.5 14.85 30.75 L15.55 30.95 M14.2 31.45 L14.55 31.75 14.7 31.9 15.15 32.25 M14.7 31.9 L14.55 31.9 Q12.35 32.0 11.8 29.5 M14.05 30.8 L14.65 31.45 15.45 32.0 17.05 32.9 M19.4 11.2 Q20.05 11.5 20.65 12.1"/><path fill="#81601b" stroke="none" d="M14.65 21.4 Q13.9 20.75 14.7 19.75 L15.2 19.55 15.25 19.55 15.7 19.45 15.8 19.45 15.85 19.55 15.9 19.6 Q16.3 20.15 15.4 20.9 L14.65 21.4 M13.4 21.85 L13.6 22.1 Q14.1 22.95 12.75 24.0 11.8 23.3 12.0 22.25 12.9 21.75 13.4 21.85 M15.0 24.5 Q14.0 23.5 14.45 22.65 15.35 21.95 15.9 22.25 L16.0 22.45 Q16.45 23.45 15.0 24.5 M18.2 20.1 L18.25 20.2 Q18.35 20.8 17.65 21.7 16.95 21.2 17.45 20.45 17.9 20.05 18.2 20.1 M15.75 24.8 L15.9 24.95 Q16.35 26.0 13.9 26.7 12.8 25.7 14.2 24.75 L15.15 24.65 15.75 24.8"/><path fill="#b78b51" stroke="none" d="M14.65 21.4 L15.4 20.9 Q16.3 20.15 15.9 19.6 L15.85 19.55 15.85 19.5 Q16.2 19.65 16.2 20.25 16.15 20.8 15.55 21.2 L14.65 21.4 M13.4 21.85 L13.8 22.2 13.95 22.8 Q13.85 23.5 13.15 24.05 13.85 23.5 13.95 22.8 L13.8 22.2 Q14.95 22.95 13.55 23.9 L13.15 24.05 12.75 24.0 Q14.1 22.95 13.6 22.1 L13.4 21.85 M15.9 22.25 L16.15 22.55 Q17.15 23.2 16.3 24.05 L16.0 24.35 Q15.35 24.8 15.0 24.5 16.45 23.45 16.0 22.45 L15.9 22.25 M17.65 21.7 Q18.35 20.8 18.25 20.2 L18.2 20.1 18.5 20.5 18.25 21.2 17.65 21.7 M16.0 24.35 L16.25 22.95 16.15 22.55 16.25 22.95 16.0 24.35 M15.75 24.8 L16.0 25.0 Q16.75 26.15 14.95 26.7 15.7 26.35 15.95 25.8 16.1 25.25 15.9 24.95 16.1 25.25 15.95 25.8 15.7 26.35 14.95 26.7 L14.8 26.7 13.9 26.7 Q16.35 26.0 15.9 24.95 L15.75 24.8"/><path fill="#7c2e2e" stroke="none" d="M15.85 19.55 L15.8 19.45 15.85 19.5 15.85 19.55"/><path fill="none" stroke="#010101" stroke-width="1.5" stroke-opacity="0.301960784314" d="M15.8 19.45 L15.7 19.45 15.25 19.55 15.2 19.55 14.7 19.75 M13.8 22.2 L13.4 21.85 Q12.9 21.75 12.0 22.25 M13.15 24.05 Q13.85 23.5 13.95 22.8 L13.8 22.2 M14.45 22.65 Q15.35 21.95 15.9 22.25 L16.15 22.55 16.25 22.95 16.0 24.35 M18.25 21.2 L18.5 20.5 18.2 20.1 Q17.9 20.05 17.45 20.45 M15.85 19.5 L15.8 19.45 M15.55 21.2 Q16.15 20.8 16.2 20.25 16.2 19.65 15.85 19.5 M15.75 24.8 L15.9 24.95 Q16.1 25.25 15.95 25.8 15.7 26.35 14.95 26.7 L14.8 26.7 M14.2 24.75 L15.15 24.65 15.75 24.8"/></g><linearGradient gradientUnits="userSpaceOnUse" x1="-819.2" x2="819.2" spreadMethod="pad" gradientTransform="matrix(0.0,-0.0757141113281,0.015869140625,0.0,-7.0,101.5)" id="gradient3"><stop offset="0.0" stop-color="#16cc71" stop-opacity="0.133333333333"/><stop offset="1.0" stop-color="#b1c991" stop-opacity="0.690196078431"/></linearGradient><g id="c11"><path stroke="none" fill="url(#gradient3)" d="M3.9 10.0 Q-0.95 19.8 3.9 35.45 8.7 51.1 3.25 75.65 -2.25 100.15 -0.1 111.0 0.55 139.35 4.3 160.95 8.0 182.5 -5.15 174.2 -18.3 165.95 -12.1 147.0 -2.95 137.05 -5.85 107.75 -8.75 78.45 -17.9 58.75 -27.1 39.05 3.9 10.0"/><path fill="none" stroke="#759e3f" stroke-width="1.5" stroke-opacity="0.533333333333" d="M3.9 10.0 Q-0.95 19.8 3.9 35.45 8.7 51.1 3.25 75.65 -2.25 100.15 -0.1 111.0"/></g><g id="c12"><path fill="#ffffff" fill-opacity="0.670588235294" d="M56.15 -62.9 Q44.4 -22.1 21.2 7.7 29.0 9.25 30.55 8.8 35.4 7.25 37.55 7.65 45.1 9.0 17.9 34.5 16.4 35.75 20.9 35.5 25.4 35.25 19.25 40.05 13.05 44.8 2.2 54.75 -8.7 64.65 -14.75 67.3 -20.8 69.95 -28.6 71.05 L-54.15 75.25 Q-71.9 78.35 -27.2 62.25 17.45 46.15 0.75 41.05 -9.3 41.5 10.85 29.95 31.0 18.35 35.15 14.8 39.25 11.2 27.05 14.55 14.8 17.9 10.2 16.6 5.6 15.25 25.35 -6.25 45.05 -27.75 59.25 -75.75 L56.15 -62.9"/></g><linearGradient gradientUnits="userSpaceOnUse" x1="-819.2" x2="819.2" spreadMethod="pad" gradientTransform="matrix(-0.00569152832031,0.0175628662109,0.00527954101562,-0.000595092773438,-1.7,19.1)" id="gradient4"><stop offset="0.0" stop-color="#fffffa" stop-opacity="0.8"/><stop offset="1.0" stop-color="#c8d8ce" stop-opacity="0.0"/></linearGradient><linearGradient gradientUnits="userSpaceOnUse" x1="-819.2" x2="819.2" spreadMethod="pad" gradientTransform="matrix(-0.000823974609375,0.00680541992188,0.00784301757812,-0.00248718261719,1.4,15.0)" id="gradient5"><stop offset="0.0" stop-opacity="0.101960784314"/><stop offset="1.0" stop-opacity="0.0"/></linearGradient><linearGradient gradientUnits="userSpaceOnUse" x1="-819.2" x2="819.2" spreadMethod="pad" gradientTransform="matrix(-0.000823974609375,0.00680541992188,0.00784301757812,-0.00248718261719,2.6,7.7)" id="gradient6"><stop offset="0.0" stop-opacity="0.0705882352941"/><stop offset="1.0" stop-opacity="0.0"/></linearGradient><linearGradient gradientUnits="userSpaceOnUse" x1="-819.2" x2="819.2" spreadMethod="pad" gradientTransform="matrix(0.00172424316406,0.0116119384766,-0.00613403320312,0.000900268554688,3.2,13.3)" id="gradient7"><stop offset="0.0" stop-color="#fffffa"/><stop offset="1.0" stop-color="#c8d8ce" stop-opacity="0.0"/></linearGradient><linearGradient gradientUnits="userSpaceOnUse" x1="-819.2" x2="819.2" spreadMethod="pad" gradientTransform="matrix(0.0,0.00553894042969,0.00625610351562,-0.00299072265625,3.1,15.4)" id="gradient8"><stop offset="0.0" stop-opacity="0.0705882352941"/><stop offset="1.0" stop-opacity="0.0"/></linearGradient><linearGradient gradientUnits="userSpaceOnUse" x1="-819.2" x2="819.2" spreadMethod="pad" gradientTransform="matrix(0.0,0.00553894042969,0.00625610351562,-0.00299072265625,3.1,15.4)" id="gradient9"><stop offset="0.0" stop-opacity="0.101960784314"/><stop offset="1.0" stop-opacity="0.0"/></linearGradient><linearGradient gradientUnits="userSpaceOnUse" x1="-819.2" x2="819.2" spreadMethod="pad" gradientTransform="matrix(0.0,0.0102233886719,-0.00604248046875,-6.103515625e-05,12.6,11.9)" id="gradient10"><stop offset="0.0" stop-color="#fffffa"/><stop offset="1.0" stop-color="#c8d8ce" stop-opacity="0.0"/></linearGradient><linearGradient gradientUnits="userSpaceOnUse" x1="-819.2" x2="819.2" spreadMethod="pad" gradientTransform="matrix(0.0,0.00807189941406,-0.0093994140625,-0.000106811523438,10.8,13.7)" id="gradient11"><stop offset="0.0" stop-opacity="0.101960784314"/><stop offset="1.0" stop-opacity="0.0"/></linearGradient><linearGradient gradientUnits="userSpaceOnUse" x1="-819.2" x2="819.2" spreadMethod="pad" gradientTransform="matrix(0.0,0.00807189941406,-0.0093994140625,-0.000106811523438,10.8,13.7)" id="gradient12"><stop offset="0.0" stop-opacity="0.0705882352941"/><stop offset="1.0" stop-opacity="0.0"/></linearGradient><g id="c13"><path fill="#fffbeb" stroke="none" d="M16.95 20.05 Q18.85 21.65 18.25 18.7 18.3 17.35 19.65 17.15 21.25 17.35 21.55 14.2 21.25 15.95 16.4 17.7 16.25 20.05 15.2 20.0 L13.75 20.1 13.45 20.4 13.35 20.5 11.9 20.15 Q10.9 19.75 11.35 20.95 11.75 22.15 10.7 22.45 L9.4 22.3 Q9.45 25.7 5.95 23.4 6.8 25.1 6.25 27.75 5.7 30.45 6.75 29.5 7.75 28.55 7.7 26.45 7.75 25.35 7.9 25.35 8.15 25.4 8.55 25.75 L9.75 25.65 10.75 24.55 11.25 23.65 Q11.35 23.15 11.85 23.85 14.45 28.5 15.15 26.7 15.85 24.9 15.7 24.35 L15.55 23.25 15.6 22.45 15.45 20.9 Q15.25 19.8 16.95 20.05"/><path fill="#ccffff" fill-opacity="0.501960784314" d="M10.35 24.5 L9.7 24.95 9.35 25.05 8.85 25.15 Q8.5 25.2 8.6 25.35 L8.85 25.5 9.15 25.55 9.75 25.35 10.65 24.35 10.8 23.75 10.35 24.5"/><path fill="#ccffff" fill-opacity="0.501960784314" d="M6.8 29.1 L7.25 28.1 7.4 26.75 6.65 28.65 Q6.25 29.35 6.4 29.35 L6.8 29.1"/><path fill="#fffbeb" stroke="none" d="M7.45 19.45 L7.55 19.45 Q11.65 18.9 14.45 22.85 16.7 27.6 14.7 31.35 L13.15 33.55 Q10.65 35.2 8.2 34.95 3.6 34.4 2.35 31.35 L1.5 29.25 Q1.1 27.65 1.3 26.05 L1.5 25.1 Q2.15 22.85 4.45 20.6 L7.45 19.45"/><path fill="none" stroke="#000000" stroke-width="1.5" stroke-opacity="0.2" d="M7.45 19.45 L7.55 19.45 Q11.65 18.9 14.45 22.85 16.7 27.6 14.7 31.35 L13.15 33.55 Q10.65 35.2 8.2 34.95 3.6 34.4 2.35 31.35 L1.5 29.25 Q1.1 27.65 1.3 26.05 L1.5 25.1 Q2.15 22.85 4.45 20.6 L7.45 19.45"/><path stroke="none" fill="url(#gradient4)" d="M1.2 25.65 L1.4 23.5 Q2.1 16.95 2.2 13.75 2.25 10.55 0.6 7.7 -0.95 4.65 -0.7 2.95 -0.6 1.4 0.65 0.3 2.05 -0.7 3.55 -0.75 5.25 -0.9 6.2 0.0 7.3 1.1 7.05 3.1 L6.45 4.4 Q5.7 5.65 4.6 6.0 3.35 6.35 2.6 5.55 2.05 4.8 2.1 4.1 L2.25 3.7 2.7 2.8 2.6 2.8 Q1.8 3.65 1.75 4.5 1.6 5.95 3.0 8.8 4.45 11.8 9.05 14.45 L10.4 15.95 11.9 17.15 10.4 15.95 Q8.7 13.9 11.9 17.15 L11.95 17.2 Q15.0 20.4 14.7 25.65 L1.2 25.65 M4.85 3.15 Q4.4 1.05 2.7 2.8 4.4 1.05 4.85 3.15"/><path fill="none" stroke-linejoin="round" stroke-linecap="round" stroke="url(#gradient5)" stroke-width="0.5" d="M2.7 2.8 L2.25 3.7 2.1 4.1 Q2.05 4.8 2.6 5.55 3.35 6.35 4.6 6.0 5.7 5.65 6.45 4.4 L7.05 3.1 Q7.3 1.1 6.2 0.0 5.25 -0.9 3.55 -0.75 2.05 -0.7 0.65 0.3 -0.6 1.4 -0.7 2.95 -0.95 4.65 0.6 7.7 2.25 10.55 2.2 13.75 2.1 16.95 1.4 23.5 L1.2 25.65 M14.7 25.65 Q15.0 20.4 11.95 17.2 L11.9 17.15 10.4 15.95 9.05 14.45 Q4.45 11.8 3.0 8.8 1.6 5.95 1.75 4.5 1.8 3.65 2.6 2.8 M11.9 17.15 Q8.7 13.9 10.4 15.95"/><path fill="none" stroke-linejoin="round" stroke-linecap="round" stroke="url(#gradient6)" stroke-width="0.5" d="M2.6 2.8 L2.7 2.8"/><path fill="none" stroke="#000000" stroke-width="0.5" stroke-opacity="0.0705882352941" d="M2.7 2.8 Q4.4 1.05 4.85 3.15"/><path stroke="none" fill="url(#gradient7)" d="M4.65 11.5 L2.9 11.55 4.65 11.5 M2.75 11.6 Q2.2 12.35 2.2 13.05 2.2 14.2 2.9 14.75 L4.35 15.4 Q6.55 16.15 8.1 18.25 9.65 20.4 9.75 21.55 9.85 22.7 8.0 24.1 6.15 25.45 5.05 25.65 L2.8 25.5 Q1.7 25.2 0.55 23.8 -0.6 22.4 -0.45 21.8 -0.35 21.1 1.45 19.5 3.25 17.9 1.55 15.75 -0.05 13.6 -0.05 12.2 -0.05 10.9 0.95 9.85 1.9 8.9 3.25 8.6 4.55 8.3 5.5 8.85 6.55 9.55 6.55 11.2 L6.15 12.35 Q5.55 13.45 4.7 13.9 L3.0 13.75 Q2.5 13.2 2.5 12.65 L2.5 12.35 2.9 11.55 2.75 11.6"/><path fill="none" stroke-linejoin="round" stroke-linecap="round" stroke="url(#gradient8)" stroke-width="0.5" d="M2.75 11.6 L2.9 11.55"/><path fill="none" stroke-linejoin="round" stroke-linecap="round" stroke="url(#gradient9)" stroke-width="0.5" d="M2.9 11.55 L2.5 12.35 2.5 12.65 Q2.5 13.2 3.0 13.75 L4.7 13.9 Q5.55 13.45 6.15 12.35 L6.55 11.2 Q6.55 9.55 5.5 8.85 4.55 8.3 3.25 8.6 1.9 8.9 0.95 9.85 -0.05 10.9 -0.05 12.2 -0.05 13.6 1.55 15.75 3.25 17.9 1.45 19.5 -0.35 21.1 -0.45 21.8 -0.6 22.4 0.55 23.8 1.7 25.2 2.8 25.5 L5.05 25.65 Q6.15 25.45 8.0 24.1 9.85 22.7 9.75 21.55 9.65 20.4 8.1 18.25 6.55 16.15 4.35 15.4 L2.9 14.75 Q2.2 14.2 2.2 13.05 2.2 12.35 2.75 11.6"/><path fill="none" stroke="#000000" stroke-width="0.5" stroke-opacity="0.0705882352941" d="M2.9 11.55 L4.65 11.5"/><path stroke="none" fill="url(#gradient10)" d="M11.5 7.9 L12.0 8.65 12.05 9.15 Q12.05 9.9 11.25 11.1 10.2 12.45 8.75 12.4 7.4 12.4 6.6 11.1 6.0 10.25 6.0 9.7 6.0 7.35 7.5 5.6 8.9 4.15 10.95 3.75 L14.35 4.0 Q15.9 4.85 15.9 6.75 15.9 8.75 13.45 13.0 10.95 17.25 11.45 18.9 11.95 20.6 13.5 21.4 15.1 22.25 15.45 25.35 15.85 28.45 13.65 27.65 11.35 26.8 9.3 27.1 7.2 27.35 5.25 25.4 L2.95 23.35 Q2.55 23.2 2.25 21.25 1.9 19.25 6.45 16.15 L11.45 12.45 Q12.5 11.15 12.5 9.5 L12.5 9.25 Q12.4 8.35 11.65 7.7 L11.4 7.8 11.45 7.85 11.5 7.9 M8.75 9.2 Q9.65 6.4 11.4 7.8 9.65 6.4 8.75 9.2"/><path fill="none" stroke-linejoin="round" stroke-linecap="round" stroke="url(#gradient11)" stroke-width="0.5" d="M11.5 7.9 L12.0 8.65 12.05 9.15 Q12.05 9.9 11.25 11.1 10.2 12.45 8.75 12.4 7.4 12.4 6.6 11.1 6.0 10.25 6.0 9.7 6.0 7.35 7.5 5.6 8.9 4.15 10.95 3.75 L14.35 4.0 Q15.9 4.85 15.9 6.75 15.9 8.75 13.45 13.0 10.95 17.25 11.45 18.9 11.95 20.6 13.5 21.4 15.1 22.25 15.45 25.35 15.85 28.45 13.65 27.65 11.35 26.8 9.3 27.1 7.2 27.35 5.25 25.4 L2.95 23.35 Q2.55 23.2 2.25 21.25 1.9 19.25 6.45 16.15 L11.45 12.45 Q12.5 11.15 12.5 9.5 L12.5 9.25 Q12.35 8.4 11.5 7.9 L11.45 7.85"/><path fill="none" stroke-linejoin="round" stroke-linecap="round" stroke="url(#gradient12)" stroke-width="0.5" d="M11.65 7.7 L11.4 7.8"/><path fill="none" stroke="#000000" stroke-width="0.5" stroke-opacity="0.0705882352941" d="M11.45 7.85 L11.4 7.8 Q9.65 6.4 8.75 9.2"/><path fill="#dedac7" stroke="none" d="M6.65 24.35 L6.8 24.4 6.95 24.4 7.0 24.4 7.15 24.45 5.5 25.2 5.5 25.25 5.35 25.25 5.2 25.2 5.0 25.2 4.75 25.2 6.65 24.35 M8.5 25.4 L8.85 25.75 8.9 25.85 9.05 26.05 7.5 26.65 7.45 26.6 6.9 26.05 8.5 25.4"/><path fill="#a8a281" stroke="none" d="M9.05 26.05 L9.15 26.15 9.3 26.4 9.6 26.95 9.65 27.15 9.6 27.2 Q9.9 28.15 9.75 29.1 L9.75 29.15 9.7 29.5 9.7 29.6 9.35 30.3 9.3 30.4 8.95 30.8 8.7 31.0 7.55 31.65 7.9 31.25 7.9 31.15 8.25 30.45 8.35 29.85 8.4 29.8 Q8.55 28.8 8.2 27.8 L7.9 27.25 7.8 27.05 7.5 26.65 9.05 26.05"/><path fill="#ede9d4" stroke="none" d="M5.5 25.25 L5.5 25.2 7.15 24.45 7.85 24.8 8.05 25.0 8.3 25.15 8.3 25.2 8.5 25.4 6.9 26.05 6.85 26.0 6.45 25.65 6.4 25.6 5.55 25.25 5.5 25.25"/><path fill="#f5f5e3" stroke="none" d="M4.75 25.2 L5.0 25.2 5.2 25.2 5.35 25.25 5.5 25.25 5.55 25.25 6.4 25.6 6.45 25.65 6.85 26.0 6.9 26.05 7.45 26.6 7.5 26.65 7.8 27.05 7.9 27.25 8.2 27.8 Q8.55 28.8 8.4 29.8 L8.35 29.85 8.25 30.45 7.9 31.15 7.9 31.25 7.55 31.65 7.3 31.85 6.6 32.2 6.55 32.2 6.1 32.3 Q5.3 32.35 4.45 31.85 3.35 31.15 2.9 29.65 2.3 28.35 2.75 27.0 L2.8 26.9 Q3.0 26.3 3.55 25.8 L3.8 25.6 4.75 25.2 M6.5 29.55 L6.55 29.35 6.45 28.4 6.35 28.15 6.25 28.05 6.1 27.8 5.7 27.35 5.3 27.2 5.25 27.15 5.2 27.15 4.65 27.15 3.95 27.95 3.95 28.05 Q3.7 28.65 4.0 29.3 4.2 29.95 4.7 30.25 L5.7 30.45 6.05 30.3 6.35 30.0 6.35 29.95 6.5 29.65 6.5 29.55"/><path fill="#9e9879" stroke="none" d="M6.5 29.55 L6.5 29.65 6.35 29.95 6.35 30.0 6.05 30.3 5.7 30.45 4.7 30.25 Q4.2 29.95 4.0 29.3 3.7 28.65 3.95 28.05 L3.95 27.95 4.65 27.15 5.2 27.15 5.25 27.15 5.3 27.2 Q5.15 27.7 5.45 28.35 5.65 29.05 6.15 29.35 L6.5 29.55"/><path fill="#22201a" stroke="none" d="M5.3 27.2 L5.7 27.35 6.1 27.8 6.25 28.05 6.35 28.15 6.45 28.4 6.55 29.35 6.5 29.55 6.15 29.35 Q5.65 29.05 5.45 28.35 5.15 27.7 5.3 27.2"/><path fill="none" stroke="#000000" stroke-width="0.5" stroke-opacity="0.101960784314" d="M4.75 25.2 L5.0 25.2 5.2 25.2 5.35 25.25 5.5 25.25 5.55 25.25 6.4 25.6 6.45 25.65 6.85 26.0 6.9 26.05 7.45 26.6 7.5 26.65 7.8 27.05 7.9 27.25 8.2 27.8 Q8.55 28.8 8.4 29.8 L8.35 29.85 8.25 30.45 7.9 31.15 7.9 31.25 7.55 31.65 7.3 31.85 6.6 32.2 M8.7 31.0 L7.55 31.65 M5.3 27.2 L5.7 27.35 6.1 27.8 6.25 28.05 6.35 28.15 6.45 28.4 6.55 29.35 6.5 29.55 6.5 29.65 6.35 29.95 6.35 30.0 6.05 30.3 5.7 30.45 4.7 30.25 Q4.2 29.95 4.0 29.3 3.7 28.65 3.95 28.05 L3.95 27.95 4.65 27.15 5.2 27.15 5.25 27.15 5.3 27.2 Q5.15 27.7 5.45 28.35 5.65 29.05 6.15 29.35 L6.5 29.55"/><path fill="none" stroke="#9e9879" stroke-width="0.5" stroke-opacity="0.690196078431" d="M6.65 24.35 L4.75 25.2 M6.55 32.2 L6.1 32.3 Q5.3 32.35 4.45 31.85 3.35 31.15 2.9 29.65 2.3 28.35 2.75 27.0 L2.8 26.9 Q3.0 26.3 3.55 25.8 L3.8 25.6 4.75 25.2"/></g><g id="c14"><g><use transform="matrix(1.0,0.0,0.0,1.0,0.0,0.0)" xlink:href="#c10"/></g><g><use transform="matrix(0.168304443359,0.145782470703,0.0682067871094,-0.0661010742188,6.9,30.75)" filter="url(#filter10)" xlink:href="#c11"/></g><g><use transform="matrix(0.0533447265625,0.0151977539062,-0.0151977539062,0.0533599853516,15.4,15.75)" xlink:href="#c12"/></g><g><use transform="matrix(1.0,0.0,0.0,1.0,0.0,0.0)" xlink:href="#c13"/></g></g><filter id="filter10"><feColorMatrix in="SourceGraphic" type="matrix" values="1.0 0.0 0.0 0.0 0.0 0.0 1.0 0.0 0.0 0.0 0.0 0.0 1.0 0.0 0.0 0.0 0.0 0.0 0.48046875 0.0" result="cxform"/><feComposite operator="in" in2="SourceGraphic" result="color-xform"/></filter><g id="c15"><g><use transform="matrix(0.510848999023,0.0,0.0,0.510848999023,-0.05,-1.85)" xlink:href="#c14"/></g></g><g id="c16"><g><use transform="matrix(1.0,0.0,0.0,1.0,6.3,53.35)" xlink:href="#c9"/></g><g><use transform="matrix(1.0,0.0,0.0,1.0,19.85,68.2)" xlink:href="#c15"/></g><g><use transform="matrix(0.141098022461,-0.0378112792969,0.111373901367,0.225646972656,27.2,74.05)" filter="url(#filter16)" xlink:href="#c6"/></g></g><filter id="filter16"><feColorMatrix in="SourceGraphic" type="matrix" values="1.0 0.0 0.0 0.0 0.0 0.0 1.0 0.0 0.0 0.0 0.0 0.0 1.0 0.0 0.0 0.0 0.0 0.0 0.23046875 0.0" result="cxform"/><feComposite operator="in" in2="SourceGraphic" result="color-xform"/></filter></defs><g><g><use transform="matrix(1.0,0.0,0.0,1.0,0.0,0.0)" xlink:href="#c1"/></g><g><use transform="matrix(1.15496826172,0.0,0.0,1.15496826172,-1.4,-57.4)" xlink:href="#c16"/></g></g></svg>