<?xml version='1.0' encoding='UTF-8'?>
<svg xmlns:xlink="http://www.w3.org/1999/xlink" xmlns="http://www.w3.org/2000/svg" version="1.1" width="60px" height="60px" viewBox="0.0 0.0 60.0 60.0"><defs><g id="c1"><path fill="#000000" fill-opacity="0.00392156862745" d="M0.0 0.0 L60.0 0.0 60.0 60.0 0.0 60.0 0.0 0.0"/></g><g id="c2"><path fill="none" stroke="#000000" stroke-width="1.0" stroke-opacity="0.301960784314" d="M28.45 3.1 L41.35 31.7 Q42.95 35.15 40.2 36.7 39.5 37.3 38.3 37.65 L36.35 38.3 36.15 38.15 34.0 36.9 33.8 36.8 Q30.65 35.45 27.7 36.35 24.75 37.3 23.7 40.05 L23.6 40.25 Q23.25 41.25 23.25 42.3 L23.25 42.35 23.25 42.55 19.8 43.65 Q17.15 44.45 15.5 43.3 14.35 42.55 13.65 40.9 L0.7 12.25 Q-0.45 9.75 0.75 8.25 1.2 7.6 2.15 7.15 2.8 6.7 3.8 6.35 L6.45 5.5 8.5 6.75 8.7 6.85 Q11.9 8.2 14.85 7.25 17.8 6.35 18.85 3.6 L18.9 3.4 19.3 1.35 22.3 0.4 Q26.55 -1.0 28.45 3.1"/><path fill="#9d147b" stroke="none" d="M35.55 22.3 L28.25 6.1 27.75 4.95 Q26.05 1.25 21.6 2.85 20.8 5.65 18.85 7.6 17.0 9.45 14.2 9.8 11.45 9.95 9.0 8.8 L6.4 7.45 Q1.65 9.1 3.35 12.8 L8.25 23.65 15.0 38.6 15.2 39.0 Q16.8 42.25 20.45 41.1 L21.65 40.55 Q22.7 36.9 25.05 35.5 27.4 34.15 30.2 34.2 33.05 34.2 36.25 36.1 L37.2 35.7 Q41.1 34.5 39.35 30.75 L35.55 22.3 M19.3 1.35 L22.3 0.4 Q26.55 -1.0 28.45 3.1 L41.35 31.7 Q42.95 35.15 40.2 36.7 L38.9 37.25 36.15 38.15 34.0 36.9 33.8 36.8 Q30.65 35.45 27.7 36.35 24.75 37.3 23.7 40.05 L23.6 40.25 Q23.25 41.25 23.25 42.3 L23.2 42.3 20.4 43.2 19.1 43.5 17.3 43.4 Q15.3 42.9 14.2 40.5 L5.45 20.95 1.35 11.8 Q0.4 9.65 1.1 8.3 1.45 7.65 2.15 7.15 2.8 6.7 3.8 6.35 L6.45 5.5 8.5 6.75 8.7 6.85 Q11.9 8.2 14.85 7.25 17.8 6.35 18.85 3.6 L18.9 3.4 19.3 1.35"/><path fill="#c47fad" stroke="none" d="M28.25 6.1 L35.55 22.3 39.35 30.75 Q41.1 34.5 37.2 35.7 L36.25 36.1 Q33.05 34.2 30.2 34.2 27.4 34.15 25.05 35.5 22.7 36.9 21.65 40.55 L20.45 41.1 Q16.8 42.25 15.2 39.0 L15.0 38.6 8.25 23.65 3.35 12.8 Q1.65 9.1 6.4 7.45 L9.0 8.8 Q11.45 9.95 14.2 9.8 17.0 9.45 18.85 7.6 20.8 5.65 21.6 2.85 26.05 1.25 27.75 4.95 L28.25 6.1 M34.0 32.9 L33.7 32.1 Q33.45 30.9 34.1 30.1 34.75 29.3 35.95 29.35 L35.8 29.0 26.5 8.3 26.25 7.85 Q24.9 5.45 22.05 6.35 19.75 11.1 14.85 11.65 11.45 11.85 9.1 10.55 L9.55 11.6 Q9.8 12.8 9.15 13.6 8.4 14.45 7.1 14.4 L6.8 14.4 6.95 14.6 16.3 35.2 Q16.8 36.4 17.65 37.0 18.8 37.8 19.8 37.35 21.8 33.7 25.95 32.3 30.35 30.8 34.0 32.9"/><path fill="#fcf2cf" stroke="none" d="M22.05 6.35 Q24.9 5.45 26.25 7.85 L26.5 8.3 35.8 29.0 35.95 29.35 Q34.75 29.3 34.1 30.1 33.45 30.9 33.7 32.1 L34.0 32.9 Q30.35 30.8 25.95 32.3 21.8 33.7 19.8 37.35 18.8 37.8 17.65 37.0 16.8 36.4 16.3 35.2 L6.95 14.6 6.8 14.4 7.1 14.4 Q8.4 14.45 9.15 13.6 9.8 12.8 9.55 11.6 L9.1 10.55 Q11.45 11.85 14.85 11.65 19.75 11.1 22.05 6.35"/><path fill="#300525" stroke="none" d="M40.2 36.7 Q39.5 37.3 38.3 37.65 L36.35 38.3 36.15 38.15 38.9 37.25 40.2 36.7 M23.25 42.3 L23.25 42.35 23.2 42.3 23.25 42.3 M20.1 43.55 L19.8 43.65 Q17.15 44.45 15.5 43.3 L17.3 43.4 19.1 43.5 20.1 43.55 M4.6 20.9 L0.7 12.25 Q-0.45 9.75 0.75 8.25 L1.1 8.3 Q0.4 9.65 1.35 11.8 L5.45 20.95 4.6 20.9"/><path fill="#630a4c" stroke="none" d="M23.25 42.35 L23.25 42.55 20.1 43.55 19.1 43.5 20.4 43.2 23.2 42.3 23.25 42.35 M15.5 43.3 Q14.35 42.55 13.65 40.9 L4.6 20.9 5.45 20.95 14.2 40.5 Q15.3 42.9 17.3 43.4 L15.5 43.3 M0.75 8.25 Q1.2 7.6 2.15 7.15 1.45 7.65 1.1 8.3 L0.75 8.25"/><path fill="none" stroke="#bf9900" stroke-width="1.0" stroke-opacity="0.749019607843" d="M28.25 6.1 L35.55 22.3 M15.0 38.6 L8.25 23.65"/><path fill="none" stroke="#000000" stroke-width="0.5" stroke-opacity="0.301960784314" d="M19.3 1.35 L22.3 0.4 Q26.55 -1.0 28.45 3.1 L41.35 31.7 Q42.95 35.15 40.2 36.7 39.5 37.3 38.3 37.65 L36.35 38.3 M23.25 42.55 L20.1 43.55 19.8 43.65 Q17.15 44.45 15.5 43.3 14.35 42.55 13.65 40.9 L4.6 20.9 0.7 12.25 Q-0.45 9.75 0.75 8.25 1.2 7.6 2.15 7.15 2.8 6.7 3.8 6.35 L6.45 5.5 M1.1 8.3 Q1.45 7.65 2.15 7.15 M5.45 20.95 L1.35 11.8 Q0.4 9.65 1.1 8.3 M17.3 43.4 Q15.3 42.9 14.2 40.5 L5.45 20.95 M19.1 43.5 L17.3 43.4 M23.2 42.3 L20.4 43.2 19.1 43.5 M23.25 42.3 L23.2 42.3 M40.2 36.7 L38.9 37.25 36.15 38.15"/><path fill="none" stroke="#ffcc00" stroke-width="1.0" stroke-opacity="0.749019607843" d="M35.55 22.3 L39.35 30.75 Q41.1 34.5 37.2 35.7 L36.25 36.1 M21.65 40.55 L20.45 41.1 Q16.8 42.25 15.2 39.0 L15.0 38.6 M8.25 23.65 L3.35 12.8 Q1.65 9.1 6.4 7.45 M21.6 2.85 Q26.05 1.25 27.75 4.95 L28.25 6.1"/><path fill="none" stroke="#f0b92b" stroke-width="0.5" d="M22.05 6.35 Q24.9 5.45 26.25 7.85 L26.5 8.3 35.8 29.0 35.95 29.35 Q34.75 29.3 34.1 30.1 33.45 30.9 33.7 32.1 L34.0 32.9 M19.8 37.35 Q18.8 37.8 17.65 37.0 16.8 36.4 16.3 35.2 L6.95 14.6 6.8 14.4 7.1 14.4 Q8.4 14.45 9.15 13.6 9.8 12.8 9.55 11.6 L9.1 10.55"/><path fill="none" stroke="#ffaa00" stroke-width="1.0" stroke-opacity="0.749019607843" d="M36.25 36.1 Q33.05 34.2 30.2 34.2 27.4 34.15 25.05 35.5 22.7 36.9 21.65 40.55 M6.4 7.45 L9.0 8.8 Q11.45 9.95 14.2 9.8 17.0 9.45 18.85 7.6 20.8 5.65 21.6 2.85"/><path fill="none" stroke="#ffaa00" stroke-width="0.5" stroke-opacity="0.749019607843" d="M34.0 32.9 Q30.35 30.8 25.95 32.3 21.8 33.7 19.8 37.35 M9.1 10.55 Q11.45 11.85 14.85 11.65 19.75 11.1 22.05 6.35"/></g><g id="c3"><path fill="#7fdbfe" stroke="none" d="M10.75 4.9 Q10.75 4.6 10.9 4.35 11.25 3.45 11.95 2.75 13.3 1.5 14.35 2.1 15.4 2.7 14.95 4.45 14.7 5.4 14.1 6.15 L13.75 6.5 Q13.1 7.15 12.35 7.35 L11.4 7.2 Q10.95 6.9 10.75 6.4 10.5 5.75 10.75 4.9 M9.3 1.7 Q9.55 2.65 9.4 3.6 L9.3 4.15 8.5 5.5 7.6 5.9 7.5 5.9 Q7.0 5.85 6.6 5.5 6.05 5.0 5.8 4.15 L5.7 3.6 Q5.55 2.65 5.8 1.7 6.25 0.0 7.5 0.0 L7.6 0.0 Q8.85 0.0 9.3 1.7 M0.15 4.45 Q-0.3 2.7 0.75 2.1 1.8 1.5 3.15 2.75 3.85 3.45 4.2 4.35 L4.35 4.9 Q4.6 5.75 4.35 6.4 L3.7 7.2 2.75 7.35 Q2.0 7.15 1.35 6.5 L1.0 6.15 Q0.4 5.4 0.15 4.45 M7.55 7.0 Q8.75 6.9 9.9 7.6 11.45 8.5 11.95 10.25 12.35 12.0 11.5 12.95 10.7 13.9 9.65 13.7 8.55 13.5 7.55 12.6 6.55 13.5 5.5 13.7 4.45 13.9 3.65 12.95 2.75 12.0 3.2 10.25 3.7 8.5 5.25 7.6 6.4 6.9 7.55 7.0"/></g><g id="c4"><g><use transform="matrix(1.0,0.0,0.0,1.0,0.0,0.0)" xlink:href="#c3"/></g></g><radialGradient gradientUnits="userSpaceOnUse" r="819.2" cx="0" cy="0" spreadMethod="pad" gradientTransform="matrix(0.0914459228516,0.0,0.0,0.0914459228516,0.6,3.4)" id="gradient1"><stop offset="0.0" stop-color="#ffffff"/><stop offset="1.0" stop-color="#ffffff" stop-opacity="0.0"/></radialGradient><g id="c5"><path stroke="none" fill="url(#gradient1)" d="M36.65 -54.65 Q60.05 -42.0 69.75 -17.95 80.55 8.9 68.0 34.1 55.45 59.35 26.8 68.2 -1.8 77.05 -29.7 64.3 -57.6 51.6 -68.45 24.75 -79.3 -2.05 -66.75 -27.25 L-66.7 -27.3 Q-54.1 -52.5 -25.5 -61.4 3.1 -70.2 31.0 -57.5 L36.65 -54.65"/></g><g id="c6"><g><use transform="matrix(1.0,0.0,0.0,1.0,0.0,0.0)" xlink:href="#c5"/></g></g><radialGradient gradientUnits="userSpaceOnUse" r="819.2" cx="0" cy="0" spreadMethod="pad" gradientTransform="matrix(0.209197998047,0.0,0.0,0.177108764648,67.15,107.2)" id="gradient2"><stop offset="0.356862745098" stop-color="#ffffff"/><stop offset="0.670588235294" stop-opacity="0.0"/></radialGradient><g id="c7"><path fill="none" stroke-linejoin="round" stroke-linecap="round" stroke="url(#gradient2)" stroke-width="0.5" d="M136.55 165.8 L68.6 106.0 68.4 106.0 118.25 201.5 M68.3 105.8 L68.35 105.8 68.3 105.8 68.3 105.85 68.4 106.0 68.3 106.0 86.55 211.5 M68.3 105.8 L68.3 105.85 68.3 106.0 68.15 105.95 18.25 151.55 M68.3 105.85 L68.25 105.85 68.3 106.0 50.0 193.2 M68.25 105.85 L68.15 105.95 0.05 97.7 M68.3 105.85 L68.25 105.8 68.25 105.85 M68.25 105.8 L68.2 105.7 0.0 45.7 M68.3 105.8 L68.25 105.75 68.25 105.8 M68.25 105.75 L68.2 105.7 18.25 10.05 M68.6 106.0 L68.35 105.8 118.25 60.15 M86.6 18.35 L68.3 105.8 M136.6 114.25 L68.6 106.0 M68.25 105.75 L49.95 0.05"/></g><g id="c8"><g><use transform="matrix(1.0,0.0,0.0,1.0,0.0,0.0)" xlink:href="#c7"/></g></g><g id="c9"><g><use transform="matrix(1.0,0.0,0.0,1.0,0.0,0.0)" xlink:href="#c2"/></g><g><use transform="matrix(0.238861083984,-0.0867004394531,0.10026550293,0.233917236328,34.25,31.15)" xlink:href="#c4"/></g><g><use transform="matrix(0.238861083984,-0.0867004394531,0.10026550293,0.233917236328,4.25,10.3)" xlink:href="#c4"/></g><g><use transform="matrix(0.141098022461,-0.0378112792969,0.111373901367,0.225646972656,20.25,20.65)" filter="url(#filter7)" xlink:href="#c6"/></g><g><use transform="matrix(-0.155029296875,0.0513153076172,0.0841827392578,0.147033691406,22.6,3.15)" filter="url(#filter8)" xlink:href="#c8"/></g></g><filter id="filter7"><feColorMatrix in="SourceGraphic" type="matrix" values="0.0 0.0 0.0 0.0 0.796875 0.0 0.0 0.0 0.0 0.59765625 0.0 0.0 0.0 0.0 0.19921875 0.0 0.0 0.0 1.0 0.0" result="cxform"/><feComposite operator="in" in2="SourceGraphic" result="color-xform"/></filter><filter id="filter8"><feColorMatrix in="SourceGraphic" type="matrix" values="0.0 0.0 0.0 0.0 0.99609375 0.0 0.0 0.0 0.0 0.99609375 0.0 0.0 0.0 0.0 0.99609375 0.0 0.0 0.0 1.0 0.0" result="cxform"/><feComposite operator="in" in2="SourceGraphic" result="color-xform"/></filter><g id="c10"><path fill="#eadbc4" stroke="none" d="M7.3 -1.7 L6.9 -1.95 6.9 -2.0 6.8 -2.05 6.95 -2.1 8.35 -1.9 9.6 -1.75 10.65 -0.7 Q11.0 -0.4 11.65 -0.25 12.5 0.25 12.7 2.0 12.7 2.35 13.05 3.1 L13.4 4.35 12.9 5.35 Q12.35 5.95 12.35 6.25 L12.5 6.65 11.9 7.6 Q11.35 8.25 11.45 8.6 11.1 8.6 10.95 9.1 L10.7 9.85 10.15 10.5 10.2 11.2 9.95 11.7 9.65 12.2 9.75 12.65 8.9 13.3 8.45 13.5 8.35 13.5 7.85 13.55 7.75 13.5 7.65 13.45 7.5 13.35 7.4 13.25 7.35 13.2 7.35 13.25 7.0 13.0 7.1 13.0 7.3 13.15 7.35 13.15 Q9.4 12.2 9.75 10.9 11.05 8.7 11.55 6.3 12.35 3.75 11.4 1.0 10.15 -1.25 7.3 -1.7"/><path fill="#e1caae" stroke="none" d="M6.95 -2.1 L6.9 -2.15 6.95 -2.1 6.8 -2.05 6.9 -2.0 6.9 -1.95 7.3 -1.7 8.65 -0.4 Q10.5 1.95 10.55 5.35 10.6 8.7 8.8 11.15 L6.85 12.9 6.65 12.8 6.6 12.8 6.55 12.75 6.45 12.75 6.4 12.75 6.25 12.65 7.1 12.15 8.45 10.75 Q10.25 8.4 10.2 5.15 10.1 1.85 8.35 -0.45 7.55 -1.5 6.5 -2.05 L6.7 -2.05 6.75 -2.1 6.9 -2.15 7.55 -2.25 6.95 -2.1"/><path fill="#f3eae0" stroke="none" d="M6.95 -2.1 L7.55 -2.25 8.15 -2.3 Q10.7 -2.35 12.55 -0.05 14.3 2.25 14.4 5.55 L14.4 5.85 14.35 6.25 Q12.4 6.85 11.0 10.3 L10.1 13.2 9.95 13.25 8.45 13.5 8.9 13.3 9.75 12.65 9.65 12.2 9.95 11.7 10.2 11.2 10.15 10.5 10.7 9.85 10.95 9.1 Q11.1 8.6 11.45 8.6 11.35 8.25 11.9 7.6 L12.5 6.65 12.35 6.25 Q12.35 5.95 12.9 5.35 L13.4 4.35 13.05 3.1 Q12.7 2.35 12.7 2.0 12.5 0.25 11.65 -0.25 11.0 -0.4 10.65 -0.7 L9.6 -1.75 8.35 -1.9 6.95 -2.1"/><path fill="#ead8c4" stroke="none" d="M6.85 12.9 L8.8 11.15 Q10.6 8.7 10.55 5.35 10.5 1.95 8.65 -0.4 L7.3 -1.7 Q10.15 -1.25 11.4 1.0 12.35 3.75 11.55 6.3 11.05 8.7 9.75 10.9 9.4 12.2 7.35 13.15 L7.3 13.15 7.1 13.0 7.0 13.0 6.95 12.95 6.85 12.9"/><path fill="#c89602" stroke="none" d="M6.45 12.75 L6.55 12.75 6.6 12.8 6.7 12.85 6.8 12.95 6.75 12.95 6.7 12.9 6.55 12.8 6.45 12.75 M7.35 13.25 L7.35 13.2 7.4 13.25 7.5 13.35 7.35 13.25 7.5 13.35 7.6 13.45 7.65 13.45 7.75 13.5 7.85 13.55 7.95 13.65 8.0 13.7 8.1 13.7 8.1 13.8 8.2 13.8 8.15 13.85 8.1 13.8 7.95 13.7 7.9 13.65 7.85 13.6 7.7 13.5 7.55 13.45 7.35 13.25 M7.85 13.6 L7.65 13.45 7.85 13.6 M7.9 13.65 L7.95 13.65 7.9 13.65 M6.8 12.95 L6.95 12.95 6.95 13.0 6.9 13.05 6.8 12.95"/><path fill="none" stroke="#333333" stroke-width="0.5" stroke-opacity="0.2" d="M7.55 -2.25 L6.9 -2.15 6.75 -2.1 6.7 -2.05 6.5 -2.05 Q7.55 -1.5 8.35 -0.45 10.1 1.85 10.2 5.15 10.25 8.4 8.45 10.75 L7.1 12.15 6.25 12.65 M8.45 13.5 L9.95 13.25 10.1 13.2 11.0 10.3 Q12.4 6.85 14.35 6.25 L14.4 5.85 14.4 5.55 Q14.3 2.25 12.55 -0.05 10.7 -2.35 8.15 -2.3 L7.55 -2.25 M7.85 13.55 L8.35 13.5 8.45 13.5"/><path fill="none" stroke="#6a6a6a" stroke-width="0.5" stroke-opacity="0.250980392157" d="M6.9 -2.15 L6.95 -2.1 8.35 -1.9 9.6 -1.75 10.65 -0.7 Q11.0 -0.4 11.65 -0.25 12.5 0.25 12.7 2.0 12.7 2.35 13.05 3.1 L13.4 4.35 12.9 5.35 Q12.35 5.95 12.35 6.25 L12.5 6.65 11.9 7.6 Q11.35 8.25 11.45 8.6 11.1 8.6 10.95 9.1 L10.7 9.85 10.15 10.5 10.2 11.2 9.95 11.7 9.65 12.2 9.75 12.65 8.9 13.3 8.45 13.5 7.95 13.65 7.9 13.65"/><path fill="none" stroke="#333333" stroke-width="0.5" stroke-opacity="0.301960784314" d="M7.0 13.0 L7.35 13.25 7.5 13.35 7.65 13.45 7.85 13.6"/><path fill="#a97e01" stroke="none" d="M4.85 12.85 L5.0 12.9 7.8 14.4 7.95 14.6 8.0 14.65 7.95 14.75 7.9 14.75 7.75 14.9 7.55 14.9 6.95 14.55 5.45 13.7 4.8 13.3 4.65 13.15 4.7 13.1 4.7 13.15 6.5 14.15 6.65 14.15 6.75 14.1 6.8 14.0 6.8 13.95 6.7 13.85 4.85 12.85 M5.65 17.5 L5.5 17.75 5.15 17.65 5.05 17.85 4.6 17.75 4.4 17.7 4.3 17.7 4.2 17.6 4.05 17.5 3.9 17.4 3.75 17.3 3.85 17.3 4.0 17.35 4.1 17.4 3.6 16.9 3.65 16.8 3.75 16.9 4.25 16.95 4.5 17.1 4.95 17.3 5.65 17.5 M5.15 17.65 L4.65 17.5 4.5 17.4 4.45 17.4 4.35 17.35 4.05 17.15 4.05 17.2 3.75 16.9 4.05 17.2 4.05 17.15 4.35 17.35 4.45 17.4 4.5 17.4 4.65 17.5 5.15 17.65"/><path fill="#000033" stroke="none" d="M6.95 14.55 L5.45 16.6 5.65 17.5 4.95 17.3 4.5 17.1 4.25 16.95 5.1 17.25 4.9 16.2 6.15 14.6 Q6.2 14.3 5.45 13.7 L6.95 14.55"/><path fill="#010265" stroke="none" d="M3.7 16.45 L4.4 16.05 5.45 13.7 Q6.2 14.3 6.15 14.6 L4.9 16.2 5.1 17.25 4.25 16.95 4.2 16.9 3.7 16.45"/><path fill="#f2ab06" stroke="none" d="M3.75 17.3 L3.55 17.0 3.6 16.9 4.1 17.4 4.0 17.35 3.85 17.3 3.75 17.3 M3.65 16.8 L3.4 16.55 3.55 16.3 3.7 16.45 4.2 16.9 4.25 16.95 3.75 16.9 3.65 16.8 M4.65 13.1 L4.7 13.0 4.7 12.95 4.75 12.85 4.85 12.8 4.85 12.85 6.7 13.85 6.8 13.95 6.8 14.0 6.75 14.1 6.65 14.15 6.5 14.15 4.7 13.15 4.7 13.1 4.65 13.1"/><path fill="#598a93" stroke="none" d="M4.65 13.15 L4.65 13.1 4.7 13.1 4.65 13.15"/><path fill="none" stroke="#333333" stroke-width="0.5" stroke-opacity="0.2" d="M4.85 12.85 L5.0 12.9 7.8 14.4 7.95 14.6 8.0 14.65 7.95 14.75 7.9 14.75 7.75 14.9 7.55 14.9 6.95 14.55 5.45 16.6 5.65 17.5 5.5 17.75 5.15 17.65 5.05 17.85 4.6 17.75 4.4 17.7 4.3 17.7 4.2 17.6 4.05 17.5 3.9 17.4 3.75 17.3 3.55 17.0 3.6 16.9 3.65 16.8 3.4 16.55 3.55 16.3 3.7 16.45 4.2 16.9 4.25 16.95 4.5 17.1 4.95 17.3 5.65 17.5 M5.45 13.7 L4.8 13.3 4.65 13.15 4.65 13.1 M4.7 13.0 L4.7 12.95 4.75 12.85 4.85 12.8 4.85 12.85 M4.7 13.1 L4.65 13.15 M6.95 14.55 L5.45 13.7 M3.75 16.9 L4.05 17.2 4.05 17.15 4.35 17.35 4.45 17.4 4.5 17.4 4.65 17.5 5.15 17.65 M3.65 16.8 L3.75 16.9"/></g><radialGradient gradientUnits="userSpaceOnUse" r="819.2" cx="0" cy="0" spreadMethod="pad" gradientTransform="matrix(0.005126953125,0.0,0.0,0.005126953125,4.05,0.0)" id="gradient3"><stop offset="0.0" stop-color="#ffffff" stop-opacity="0.501960784314"/><stop offset="1.0" stop-color="#ffffff" stop-opacity="0.0"/></radialGradient><g id="c11"><path stroke="none" fill="url(#gradient3)" d="M4.05 -4.05 Q5.75 -4.05 6.9 -2.9 8.1 -1.7 8.1 0.0 8.1 1.7 6.9 2.85 5.75 4.05 4.05 4.05 2.35 4.05 1.15 2.85 0.0 1.7 0.0 0.0 0.0 -1.7 1.15 -2.9 2.35 -4.05 4.05 -4.05"/></g><g id="c12"><path fill="#fefd9e" stroke="none" d="M5.25 12.0 L5.75 12.3 6.35 12.85 6.2 12.9 5.8 12.5 Q5.65 12.2 5.6 13.15 L5.55 13.15 5.55 12.95 5.55 12.85 5.5 12.75 5.5 12.85 5.25 12.0 M6.35 13.5 L6.65 13.25 7.65 13.5 7.9 13.6 7.25 13.6 Q6.6 13.6 7.1 13.7 L7.95 13.85 Q7.5 13.9 7.35 14.1 L6.95 14.3 6.65 14.35 6.55 14.25 6.3 13.95 Q6.25 13.75 6.35 13.5"/><path fill="#e9b94b" stroke="none" d="M4.55 11.6 L5.1 11.9 5.2 11.95 5.25 12.0 5.5 12.85 5.55 12.85 5.55 12.95 5.55 13.15 5.5 13.0 4.55 11.6 M5.75 12.3 L6.1 12.45 6.6 12.75 5.85 13.95 5.8 13.5 5.6 13.2 5.6 13.15 Q5.65 12.2 5.8 12.5 L5.95 12.75 5.85 12.85 5.95 13.1 5.95 13.3 6.15 13.25 6.25 13.15 6.3 13.0 6.2 12.9 6.35 12.85 5.75 12.3 M6.85 12.85 L6.9 12.9 7.5 13.2 7.55 13.25 7.6 13.25 8.45 13.8 8.0 13.55 7.9 13.6 7.65 13.5 6.65 13.25 6.35 13.5 6.85 12.85 M8.5 13.85 L9.75 14.6 8.7 14.4 8.2 14.35 8.05 14.25 7.8 14.25 7.75 14.25 7.5 14.35 7.2 14.3 6.6 14.45 6.05 14.2 6.35 13.5 Q6.25 13.75 6.3 13.95 L6.55 14.25 6.65 14.35 6.95 14.3 7.35 14.1 Q7.5 13.9 7.95 13.85 L8.15 14.0 8.65 14.2 8.95 14.3 8.7 14.05 8.5 13.85"/><path fill="#815f10" stroke="none" d="M5.5 13.0 Q4.75 12.0 2.85 11.75 L4.5 11.55 4.55 11.6 5.5 13.0 M6.6 12.75 L6.65 12.8 6.85 12.85 6.35 13.5 6.05 14.2 5.85 13.95 6.6 12.75 M9.75 14.6 L10.0 16.0 Q9.25 14.7 8.4 14.55 L7.5 14.35 7.75 14.25 7.8 14.25 8.05 14.25 8.2 14.35 8.7 14.4 9.75 14.6"/><path fill="#ffffdf" stroke="none" d="M8.45 13.8 L8.5 13.85 8.7 14.05 8.95 14.3 8.65 14.2 8.15 14.0 7.95 13.85 7.1 13.7 Q6.6 13.6 7.25 13.6 L7.9 13.6 8.0 13.55 8.45 13.8 M5.8 12.5 L6.2 12.9 6.3 13.0 6.25 13.15 6.15 13.25 5.95 13.3 5.95 13.1 5.85 12.85 5.95 12.75 5.8 12.5"/><path fill="none" stroke="#000000" stroke-width="0.5" stroke-opacity="0.2" d="M5.5 13.0 Q4.75 12.0 2.85 11.75 L4.5 11.55 4.55 11.6 5.1 11.9 5.2 11.95 5.25 12.0 5.75 12.3 6.1 12.45 6.6 12.75 6.65 12.8 6.85 12.85 6.9 12.9 7.5 13.2 M7.6 13.25 L8.45 13.8 8.5 13.85 9.75 14.6 10.0 16.0 Q9.25 14.7 8.4 14.55 L7.5 14.35 7.2 14.3 6.6 14.45 6.05 14.2 5.85 13.95 5.8 13.5 5.6 13.2 5.55 13.15 M7.75 14.25 L7.8 14.25 8.05 14.25 8.2 14.35 M5.55 12.95 L5.55 13.15"/><path fill="#d6c6a4" stroke="none" d="M9.75 10.1 L10.7 10.5 Q11.2 10.9 10.65 11.4 L9.75 11.05 9.2 10.55 10.1 10.75 Q10.35 10.6 9.75 10.1 M7.6 11.65 L7.75 11.6 8.25 12.1 9.65 13.35 Q9.3 13.7 8.8 13.5 L7.8 12.7 8.8 13.35 8.1 12.55 9.4 13.35 8.1 12.2 7.6 11.65 M7.9 12.55 L7.7 12.4 7.5 11.95 7.95 12.55 7.9 12.55 M7.8 14.4 L8.0 14.45 7.55 15.0 7.4 14.95 Q7.4 14.6 7.8 14.4 M7.35 14.95 L7.05 14.8 7.0 14.65 6.75 14.2 7.25 14.2 7.3 14.25 7.65 14.3 Q6.75 14.3 7.35 14.95 M6.75 14.75 L6.9 15.0 Q6.3 14.75 6.55 15.55 L5.95 14.45 6.35 14.9 6.1 14.3 6.75 14.75 M6.95 15.1 L7.1 15.3 Q6.8 15.4 6.6 15.65 L6.55 15.8 6.4 15.65 6.55 15.55 Q6.6 15.25 6.95 15.1 M5.8 15.2 L6.4 15.85 6.4 15.9 6.45 15.95 Q6.65 16.05 6.1 16.8 L5.95 16.6 6.4 15.9 5.75 15.75 6.0 16.3 5.25 15.6 5.15 15.1 5.75 15.6 5.8 15.2"/><path fill="#faf3eb" stroke="none" d="M8.4 10.6 L8.85 10.0 9.6 10.05 Q9.0 10.35 8.75 10.85 8.25 10.9 8.4 10.6 M6.8 12.25 Q6.7 12.1 7.1 11.95 7.25 11.55 7.45 11.5 L7.65 11.45 7.75 11.6 7.6 11.65 7.2 12.15 7.15 12.15 6.8 12.25"/><path fill="#947e57" stroke="none" d="M9.75 11.05 L10.65 11.4 Q10.8 12.5 10.45 12.8 9.45 11.7 8.0 10.95 8.0 10.7 8.4 10.6 8.25 10.9 8.75 10.85 L10.15 11.95 9.35 10.95 9.75 11.05 M6.8 12.25 L7.15 12.15 7.2 12.15 7.2 12.2 7.6 12.55 7.8 12.7 8.8 13.5 Q9.3 13.7 9.65 13.35 L9.85 13.55 9.5 13.65 9.4 13.6 8.85 13.75 7.6 12.95 6.8 12.25 M7.65 14.3 L7.8 14.4 Q7.4 14.6 7.4 14.95 L7.35 14.95 Q6.75 14.3 7.65 14.3 M6.9 15.0 L6.95 15.1 Q6.6 15.25 6.55 15.55 L6.4 15.65 5.8 14.45 5.5 13.95 5.4 13.75 5.5 13.65 5.95 14.45 6.55 15.55 Q6.3 14.75 6.9 15.0 M5.95 16.6 L4.7 15.3 4.75 15.1 5.25 15.6 6.0 16.3 5.75 15.75 6.4 15.9 5.95 16.6"/><path fill="#f2e6ce" stroke="none" d="M9.75 10.1 Q10.35 10.6 10.1 10.75 L9.2 10.55 9.75 11.05 9.35 10.95 10.15 11.95 8.75 10.85 Q9.0 10.35 9.6 10.05 L9.75 10.1 M7.2 12.15 L7.6 11.65 8.1 12.2 9.4 13.35 8.1 12.55 8.8 13.35 7.8 12.7 7.6 12.55 7.2 12.2 7.2 12.15 M7.9 12.55 L7.95 12.55 7.5 11.95 7.7 12.4 7.9 12.55 M7.05 14.8 L6.9 14.75 6.3 13.85 7.25 14.2 6.75 14.2 7.0 14.65 7.05 14.8 M6.7 14.6 L6.75 14.75 6.1 14.3 6.35 14.9 5.95 14.45 5.5 13.65 5.6 13.45 5.9 13.7 6.7 14.6 M5.3 14.35 L5.8 15.2 5.75 15.6 5.15 15.1 5.25 15.6 4.75 15.1 Q4.85 14.65 5.3 14.35"/><path fill="#b59f79" stroke="none" d="M6.9 14.75 L6.7 14.6 5.9 13.7 6.3 13.85 6.9 14.75 M5.8 14.45 L5.3 14.35 5.25 14.35 5.5 13.95 5.8 14.45"/><path fill="none" stroke="#000000" stroke-width="0.5" stroke-opacity="0.2" d="M10.65 11.4 Q11.2 10.9 10.7 10.5 L9.75 10.1 M10.65 11.4 Q10.8 12.5 10.45 12.8 9.45 11.7 8.0 10.95 8.0 10.7 8.4 10.6 L8.85 10.0 9.6 10.05 9.75 10.1 M7.75 11.6 L7.65 11.45 7.45 11.5 Q7.25 11.55 7.1 11.95 6.7 12.1 6.8 12.25 M7.75 11.6 L8.25 12.1 9.65 13.35 9.85 13.55 M8.85 13.75 L7.6 12.95 6.8 12.25 M7.65 14.3 L7.8 14.4 8.0 14.45 7.55 15.0 7.4 14.95 7.35 14.95 7.05 14.8 6.9 14.75 6.7 14.6 6.75 14.75 6.9 15.0 6.95 15.1 7.1 15.3 Q6.8 15.4 6.6 15.65 L6.55 15.8 6.4 15.65 5.8 14.45 5.3 14.35 5.8 15.2 6.4 15.85 6.4 15.9 6.45 15.95 Q6.65 16.05 6.1 16.8 L5.95 16.6 4.7 15.3 4.75 15.1 Q4.85 14.65 5.3 14.35 L5.25 14.35 5.5 13.95 5.4 13.75 5.5 13.65 5.6 13.45 5.9 13.7 6.3 13.85 7.25 14.2 M7.3 14.25 L7.65 14.3 M5.8 14.45 L5.5 13.95 M6.7 14.6 L5.9 13.7"/><path fill="none" stroke="#333333" stroke-width="0.5" stroke-opacity="0.2" d="M9.85 13.55 L9.5 13.65 9.4 13.6 8.85 13.75"/></g><g id="c13"><g><use transform="matrix(1.0,0.0,0.0,1.0,0.0,0.0)" xlink:href="#c10"/></g><g><use transform="matrix(-0.131271362305,-0.0414428710938,-0.240905761719,0.467193603516,5.8,15.05)" xlink:href="#c11"/></g><g><use transform="matrix(1.0,0.0,0.0,1.0,0.0,0.0)" xlink:href="#c12"/></g><g><use transform="matrix(-0.0268402099609,0.16650390625,-0.261413574219,-0.0421295166016,5.7,11.85)" xlink:href="#c11"/></g><g><use transform="matrix(-0.204742431641,0.0814056396484,-0.403060913086,-1.01397705078,13.2,1.8)" xlink:href="#c11"/></g><g><use transform="matrix(-0.0196228027344,0.121932983398,-0.145599365234,-0.0234527587891,4.15,16.25)" xlink:href="#c11"/></g></g><g id="c14"><g><use transform="matrix(1.0,0.0,0.0,1.0,6.3,53.35)" xlink:href="#c9"/></g><g><use transform="matrix(1.0,0.0,0.0,1.0,19.85,68.2)" xlink:href="#c13"/></g><g><use transform="matrix(0.141098022461,-0.0378112792969,0.111373901367,0.225646972656,27.2,74.05)" filter="url(#filter17)" xlink:href="#c6"/></g></g><filter id="filter17"><feColorMatrix in="SourceGraphic" type="matrix" values="1.0 0.0 0.0 0.0 0.0 0.0 1.0 0.0 0.0 0.0 0.0 0.0 1.0 0.0 0.0 0.0 0.0 0.0 0.23046875 0.0" result="cxform"/><feComposite operator="in" in2="SourceGraphic" result="color-xform"/></filter></defs><g><g><use transform="matrix(1.0,0.0,0.0,1.0,0.0,0.0)" xlink:href="#c1"/></g><g><use transform="matrix(1.15496826172,0.0,0.0,1.15496826172,-1.4,-57.4)" xlink:href="#c14"/></g></g></svg>