<?xml version='1.0' encoding='UTF-8'?>
<svg xmlns:xlink="http://www.w3.org/1999/xlink" xmlns="http://www.w3.org/2000/svg" version="1.1" width="60px" height="60px" viewBox="0.0 0.0 60.0 60.0"><defs><g id="c1"><path fill="#000000" fill-opacity="0.00392156862745" d="M0.0 0.0 L60.0 0.0 60.0 60.0 0.0 60.0 0.0 0.0"/></g><g id="c2"><path fill="none" stroke="#000000" stroke-width="1.0" stroke-opacity="0.301960784314" d="M28.45 3.1 L41.35 31.7 Q42.95 35.15 40.2 36.7 39.5 37.3 38.3 37.65 L36.35 38.3 36.15 38.15 34.0 36.9 33.8 36.8 Q30.65 35.45 27.7 36.35 24.75 37.3 23.7 40.05 L23.6 40.25 Q23.25 41.25 23.25 42.3 L23.25 42.35 23.25 42.55 19.8 43.65 Q17.15 44.45 15.5 43.3 14.35 42.55 13.65 40.9 L0.7 12.25 Q-0.45 9.75 0.75 8.25 1.2 7.6 2.15 7.15 2.8 6.7 3.8 6.35 L6.45 5.5 8.5 6.75 8.7 6.85 Q11.9 8.2 14.85 7.25 17.8 6.35 18.85 3.6 L18.9 3.4 19.3 1.35 22.3 0.4 Q26.55 -1.0 28.45 3.1"/><path fill="#9d147b" stroke="none" d="M35.55 22.3 L28.25 6.1 27.75 4.95 Q26.05 1.25 21.6 2.85 20.8 5.65 18.85 7.6 17.0 9.45 14.2 9.8 11.45 9.95 9.0 8.8 L6.4 7.45 Q1.65 9.1 3.35 12.8 L8.25 23.65 15.0 38.6 15.2 39.0 Q16.8 42.25 20.45 41.1 L21.65 40.55 Q22.7 36.9 25.05 35.5 27.4 34.15 30.2 34.2 33.05 34.2 36.25 36.1 L37.2 35.7 Q41.1 34.5 39.35 30.75 L35.55 22.3 M19.3 1.35 L22.3 0.4 Q26.55 -1.0 28.45 3.1 L41.35 31.7 Q42.95 35.15 40.2 36.7 L38.9 37.25 36.15 38.15 34.0 36.9 33.8 36.8 Q30.65 35.45 27.7 36.35 24.75 37.3 23.7 40.05 L23.6 40.25 Q23.25 41.25 23.25 42.3 L23.2 42.3 20.4 43.2 19.1 43.5 17.3 43.4 Q15.3 42.9 14.2 40.5 L5.45 20.95 1.35 11.8 Q0.4 9.65 1.1 8.3 1.45 7.65 2.15 7.15 2.8 6.7 3.8 6.35 L6.45 5.5 8.5 6.75 8.7 6.85 Q11.9 8.2 14.85 7.25 17.8 6.35 18.85 3.6 L18.9 3.4 19.3 1.35"/><path fill="#c47fad" stroke="none" d="M28.25 6.1 L35.55 22.3 39.35 30.75 Q41.1 34.5 37.2 35.7 L36.25 36.1 Q33.05 34.2 30.2 34.2 27.4 34.15 25.05 35.5 22.7 36.9 21.65 40.55 L20.45 41.1 Q16.8 42.25 15.2 39.0 L15.0 38.6 8.25 23.65 3.35 12.8 Q1.65 9.1 6.4 7.45 L9.0 8.8 Q11.45 9.95 14.2 9.8 17.0 9.45 18.85 7.6 20.8 5.65 21.6 2.85 26.05 1.25 27.75 4.95 L28.25 6.1 M34.0 32.9 L33.7 32.1 Q33.45 30.9 34.1 30.1 34.75 29.3 35.95 29.35 L35.8 29.0 26.5 8.3 26.25 7.85 Q24.9 5.45 22.05 6.35 19.75 11.1 14.85 11.65 11.45 11.85 9.1 10.55 L9.55 11.6 Q9.8 12.8 9.15 13.6 8.4 14.45 7.1 14.4 L6.8 14.4 6.95 14.6 16.3 35.2 Q16.8 36.4 17.65 37.0 18.8 37.8 19.8 37.35 21.8 33.7 25.95 32.3 30.35 30.8 34.0 32.9"/><path fill="#fcf2cf" stroke="none" d="M22.05 6.35 Q24.9 5.45 26.25 7.85 L26.5 8.3 35.8 29.0 35.95 29.35 Q34.75 29.3 34.1 30.1 33.45 30.9 33.7 32.1 L34.0 32.9 Q30.35 30.8 25.95 32.3 21.8 33.7 19.8 37.35 18.8 37.8 17.65 37.0 16.8 36.4 16.3 35.2 L6.95 14.6 6.8 14.4 7.1 14.4 Q8.4 14.45 9.15 13.6 9.8 12.8 9.55 11.6 L9.1 10.55 Q11.45 11.85 14.85 11.65 19.75 11.1 22.05 6.35"/><path fill="#300525" stroke="none" d="M40.2 36.7 Q39.5 37.3 38.3 37.65 L36.35 38.3 36.15 38.15 38.9 37.25 40.2 36.7 M23.25 42.3 L23.25 42.35 23.2 42.3 23.25 42.3 M20.1 43.55 L19.8 43.65 Q17.15 44.45 15.5 43.3 L17.3 43.4 19.1 43.5 20.1 43.55 M4.6 20.9 L0.7 12.25 Q-0.45 9.75 0.75 8.25 L1.1 8.3 Q0.4 9.65 1.35 11.8 L5.45 20.95 4.6 20.9"/><path fill="#630a4c" stroke="none" d="M23.25 42.35 L23.25 42.55 20.1 43.55 19.1 43.5 20.4 43.2 23.2 42.3 23.25 42.35 M15.5 43.3 Q14.35 42.55 13.65 40.9 L4.6 20.9 5.45 20.95 14.2 40.5 Q15.3 42.9 17.3 43.4 L15.5 43.3 M0.75 8.25 Q1.2 7.6 2.15 7.15 1.45 7.65 1.1 8.3 L0.75 8.25"/><path fill="none" stroke="#bf9900" stroke-width="1.0" stroke-opacity="0.749019607843" d="M28.25 6.1 L35.55 22.3 M15.0 38.6 L8.25 23.65"/><path fill="none" stroke="#000000" stroke-width="0.5" stroke-opacity="0.301960784314" d="M19.3 1.35 L22.3 0.4 Q26.55 -1.0 28.45 3.1 L41.35 31.7 Q42.95 35.15 40.2 36.7 39.5 37.3 38.3 37.65 L36.35 38.3 M23.25 42.55 L20.1 43.55 19.8 43.65 Q17.15 44.45 15.5 43.3 14.35 42.55 13.65 40.9 L4.6 20.9 0.7 12.25 Q-0.45 9.75 0.75 8.25 1.2 7.6 2.15 7.15 2.8 6.7 3.8 6.35 L6.45 5.5 M1.1 8.3 Q1.45 7.65 2.15 7.15 M5.45 20.95 L1.35 11.8 Q0.4 9.65 1.1 8.3 M17.3 43.4 Q15.3 42.9 14.2 40.5 L5.45 20.95 M19.1 43.5 L17.3 43.4 M23.2 42.3 L20.4 43.2 19.1 43.5 M23.25 42.3 L23.2 42.3 M40.2 36.7 L38.9 37.25 36.15 38.15"/><path fill="none" stroke="#ffcc00" stroke-width="1.0" stroke-opacity="0.749019607843" d="M35.55 22.3 L39.35 30.75 Q41.1 34.5 37.2 35.7 L36.25 36.1 M21.65 40.55 L20.45 41.1 Q16.8 42.25 15.2 39.0 L15.0 38.6 M8.25 23.65 L3.35 12.8 Q1.65 9.1 6.4 7.45 M21.6 2.85 Q26.05 1.25 27.75 4.95 L28.25 6.1"/><path fill="none" stroke="#f0b92b" stroke-width="0.5" d="M22.05 6.35 Q24.9 5.45 26.25 7.85 L26.5 8.3 35.8 29.0 35.95 29.35 Q34.75 29.3 34.1 30.1 33.45 30.9 33.7 32.1 L34.0 32.9 M19.8 37.35 Q18.8 37.8 17.65 37.0 16.8 36.4 16.3 35.2 L6.95 14.6 6.8 14.4 7.1 14.4 Q8.4 14.45 9.15 13.6 9.8 12.8 9.55 11.6 L9.1 10.55"/><path fill="none" stroke="#ffaa00" stroke-width="1.0" stroke-opacity="0.749019607843" d="M36.25 36.1 Q33.05 34.2 30.2 34.2 27.4 34.15 25.05 35.5 22.7 36.9 21.65 40.55 M6.4 7.45 L9.0 8.8 Q11.45 9.95 14.2 9.8 17.0 9.45 18.85 7.6 20.8 5.65 21.6 2.85"/><path fill="none" stroke="#ffaa00" stroke-width="0.5" stroke-opacity="0.749019607843" d="M34.0 32.9 Q30.35 30.8 25.95 32.3 21.8 33.7 19.8 37.35 M9.1 10.55 Q11.45 11.85 14.85 11.65 19.75 11.1 22.05 6.35"/></g><g id="c3"><path fill="#7fdbfe" stroke="none" d="M10.75 4.9 Q10.75 4.6 10.9 4.35 11.25 3.45 11.95 2.75 13.3 1.5 14.35 2.1 15.4 2.7 14.95 4.45 14.7 5.4 14.1 6.15 L13.75 6.5 Q13.1 7.15 12.35 7.35 L11.4 7.2 Q10.95 6.9 10.75 6.4 10.5 5.75 10.75 4.9 M9.3 1.7 Q9.55 2.65 9.4 3.6 L9.3 4.15 8.5 5.5 7.6 5.9 7.5 5.9 Q7.0 5.85 6.6 5.5 6.05 5.0 5.8 4.15 L5.7 3.6 Q5.55 2.65 5.8 1.7 6.25 0.0 7.5 0.0 L7.6 0.0 Q8.85 0.0 9.3 1.7 M0.15 4.45 Q-0.3 2.7 0.75 2.1 1.8 1.5 3.15 2.75 3.85 3.45 4.2 4.35 L4.35 4.9 Q4.6 5.75 4.35 6.4 L3.7 7.2 2.75 7.35 Q2.0 7.15 1.35 6.5 L1.0 6.15 Q0.4 5.4 0.15 4.45 M7.55 7.0 Q8.75 6.9 9.9 7.6 11.45 8.5 11.95 10.25 12.35 12.0 11.5 12.95 10.7 13.9 9.65 13.7 8.55 13.5 7.55 12.6 6.55 13.5 5.5 13.7 4.45 13.9 3.65 12.95 2.75 12.0 3.2 10.25 3.7 8.5 5.25 7.6 6.4 6.9 7.55 7.0"/></g><g id="c4"><g><use transform="matrix(1.0,0.0,0.0,1.0,0.0,0.0)" xlink:href="#c3"/></g></g><radialGradient gradientUnits="userSpaceOnUse" r="819.2" cx="0" cy="0" spreadMethod="pad" gradientTransform="matrix(0.0914459228516,0.0,0.0,0.0914459228516,0.6,3.4)" id="gradient1"><stop offset="0.0" stop-color="#ffffff"/><stop offset="1.0" stop-color="#ffffff" stop-opacity="0.0"/></radialGradient><g id="c5"><path stroke="none" fill="url(#gradient1)" d="M36.65 -54.65 Q60.05 -42.0 69.75 -17.95 80.55 8.9 68.0 34.1 55.45 59.35 26.8 68.2 -1.8 77.05 -29.7 64.3 -57.6 51.6 -68.45 24.75 -79.3 -2.05 -66.75 -27.25 L-66.7 -27.3 Q-54.1 -52.5 -25.5 -61.4 3.1 -70.2 31.0 -57.5 L36.65 -54.65"/></g><g id="c6"><g><use transform="matrix(1.0,0.0,0.0,1.0,0.0,0.0)" xlink:href="#c5"/></g></g><radialGradient gradientUnits="userSpaceOnUse" r="819.2" cx="0" cy="0" spreadMethod="pad" gradientTransform="matrix(0.209197998047,0.0,0.0,0.177108764648,67.15,107.2)" id="gradient2"><stop offset="0.356862745098" stop-color="#ffffff"/><stop offset="0.670588235294" stop-opacity="0.0"/></radialGradient><g id="c7"><path fill="none" stroke-linejoin="round" stroke-linecap="round" stroke="url(#gradient2)" stroke-width="0.5" d="M136.55 165.8 L68.6 106.0 68.4 106.0 118.25 201.5 M68.3 105.8 L68.35 105.8 68.3 105.8 68.3 105.85 68.4 106.0 68.3 106.0 86.55 211.5 M68.3 105.8 L68.3 105.85 68.3 106.0 68.15 105.95 18.25 151.55 M68.3 105.85 L68.25 105.85 68.3 106.0 50.0 193.2 M68.25 105.85 L68.15 105.95 0.05 97.7 M68.3 105.85 L68.25 105.8 68.25 105.85 M68.25 105.8 L68.2 105.7 0.0 45.7 M68.3 105.8 L68.25 105.75 68.25 105.8 M68.25 105.75 L68.2 105.7 18.25 10.05 M68.6 106.0 L68.35 105.8 118.25 60.15 M86.6 18.35 L68.3 105.8 M136.6 114.25 L68.6 106.0 M68.25 105.75 L49.95 0.05"/></g><g id="c8"><g><use transform="matrix(1.0,0.0,0.0,1.0,0.0,0.0)" xlink:href="#c7"/></g></g><g id="c9"><g><use transform="matrix(1.0,0.0,0.0,1.0,0.0,0.0)" xlink:href="#c2"/></g><g><use transform="matrix(0.238861083984,-0.0867004394531,0.10026550293,0.233917236328,34.25,31.15)" xlink:href="#c4"/></g><g><use transform="matrix(0.238861083984,-0.0867004394531,0.10026550293,0.233917236328,4.25,10.3)" xlink:href="#c4"/></g><g><use transform="matrix(0.141098022461,-0.0378112792969,0.111373901367,0.225646972656,20.25,20.65)" filter="url(#filter7)" xlink:href="#c6"/></g><g><use transform="matrix(-0.155029296875,0.0513153076172,0.0841827392578,0.147033691406,22.6,3.15)" filter="url(#filter8)" xlink:href="#c8"/></g></g><filter id="filter7"><feColorMatrix in="SourceGraphic" type="matrix" values="0.0 0.0 0.0 0.0 0.796875 0.0 0.0 0.0 0.0 0.59765625 0.0 0.0 0.0 0.0 0.19921875 0.0 0.0 0.0 1.0 0.0" result="cxform"/><feComposite operator="in" in2="SourceGraphic" result="color-xform"/></filter><filter id="filter8"><feColorMatrix in="SourceGraphic" type="matrix" values="0.0 0.0 0.0 0.0 0.99609375 0.0 0.0 0.0 0.0 0.99609375 0.0 0.0 0.0 0.0 0.99609375 0.0 0.0 0.0 1.0 0.0" result="cxform"/><feComposite operator="in" in2="SourceGraphic" result="color-xform"/></filter><radialGradient gradientUnits="userSpaceOnUse" r="819.2" cx="0" cy="0" spreadMethod="pad" gradientTransform="matrix(0.00518798828125,0.00169372558594,-0.00169372558594,0.00518798828125,5.05,11.6)" id="gradient3"><stop offset="0.0" stop-color="#f1eb67"/><stop offset="0.223529411765" stop-color="#bbaf2b"/><stop offset="0.964705882353" stop-color="#695c1b"/></radialGradient><radialGradient gradientUnits="userSpaceOnUse" r="819.2" cx="0" cy="0" spreadMethod="pad" gradientTransform="matrix(0.00595092773438,0.00193786621094,-0.00193786621094,0.00595092773438,7.4,11.8)" id="gradient4"><stop offset="0.0" stop-color="#626647" stop-opacity="0.6"/><stop offset="1.0" stop-color="#606647" stop-opacity="0.0"/></radialGradient><g id="c10"><path fill="#dfe8a0" fill-opacity="0.6" d="M11.7 4.3 L12.3 5.0 13.4 6.35 13.35 7.0 13.0 6.55 12.3 6.6 10.25 7.05 Q8.65 7.25 8.4 8.1 8.6 7.1 7.65 6.3 L5.75 4.5 Q5.15 3.85 4.8 4.4 5.15 3.85 5.75 4.5 L7.65 6.3 Q8.6 7.1 8.4 8.1 L8.4 8.15 5.8 16.9 5.75 16.9 Q3.35 15.05 1.75 13.25 1.25 12.7 1.4 11.9 2.7 8.0 4.8 4.4 L5.1 3.9 Q6.3 3.35 8.3 3.0 L8.35 3.1 8.55 3.4 8.55 3.45 8.55 3.4 8.35 3.1 8.3 3.0 Q8.05 1.8 8.1 0.7 L10.65 1.4 Q11.05 2.45 10.35 4.25 L9.55 4.15 8.55 3.45 Q9.2 4.6 10.85 5.05 11.7 5.15 11.7 4.3"/><path fill="#626647" fill-opacity="0.6" d="M11.7 4.3 Q11.7 5.15 10.85 5.05 9.2 4.6 8.55 3.45 L9.55 4.15 10.35 4.25 Q10.9 4.25 11.2 3.85 10.9 4.25 10.35 4.25 11.05 2.45 10.65 1.4 L12.6 2.0 11.2 3.85 11.7 4.3 M8.4 8.1 Q8.65 7.25 10.25 7.05 L12.3 6.6 13.0 6.55 13.35 7.0 Q13.05 11.1 11.95 15.05 11.9 15.8 10.95 16.0 L5.8 16.9 8.4 8.15 8.4 8.1"/><path fill="none" stroke="#000000" stroke-width="1.5" stroke-opacity="0.301960784314" d="M13.35 7.0 L13.4 6.35 12.3 5.0 11.7 4.3 11.2 3.85 Q10.9 4.25 10.35 4.25 L9.55 4.15 8.55 3.45 8.55 3.4 8.35 3.1 8.3 3.0 Q6.3 3.35 5.1 3.9 L4.8 4.4 M13.35 7.0 Q13.05 11.1 11.95 15.05 11.9 15.8 10.95 16.0 L5.8 16.9 5.75 16.9 Q3.35 15.05 1.75 13.25 1.25 12.7 1.4 11.9 2.7 8.0 4.8 4.4 M11.2 3.85 L12.6 2.0 10.65 1.4 8.1 0.7 Q8.05 1.8 8.3 3.0 M8.4 8.15 L8.4 8.1"/><path fill="none" stroke="#000000" stroke-width="1.5" stroke-opacity="0.152941176471" d="M4.8 4.4 Q5.15 3.85 5.75 4.5 L7.65 6.3 Q8.6 7.1 8.4 8.1 8.65 7.25 10.25 7.05 L12.3 6.6 13.0 6.55 13.35 7.0 M5.8 16.9 L8.4 8.15"/><path fill="#978e24" stroke="none" d="M9.4 7.8 L10.85 7.75 Q12.6 7.9 12.45 8.5 L12.5 8.5 Q11.55 9.65 7.25 10.4 L6.5 10.55 Q11.9 9.05 9.4 7.8"/><path stroke="none" fill="url(#gradient3)" d="M6.5 10.55 L7.25 10.4 Q11.55 9.65 12.5 8.5 L11.45 14.3 11.35 14.6 10.85 15.15 Q8.7 15.9 6.1 16.05 L2.6 13.0 Q2.25 12.6 2.4 12.15 L3.25 9.8 3.3 9.8 Q3.0 11.0 6.45 10.55 L6.5 10.55"/><path fill="#c4b62e" stroke="none" d="M9.4 7.8 Q11.9 9.05 6.5 10.55 L6.45 10.55 Q3.0 11.0 3.3 9.8 L3.3 9.75 Q3.8 9.2 4.9 8.75 6.85 7.95 9.4 7.8"/><path fill="none" stroke="#a8a148" stroke-width="0.5" stroke-opacity="0.152941176471" d="M12.5 8.5 L12.45 8.5 Q12.6 7.9 10.85 7.75 L9.4 7.8 M6.5 10.55 L7.25 10.4 Q11.55 9.65 12.5 8.5 L11.45 14.3 11.35 14.6 10.85 15.15 Q8.7 15.9 6.1 16.05 L2.6 13.0 Q2.25 12.6 2.4 12.15 L3.25 9.8 3.3 9.75 Q3.8 9.2 4.9 8.75 6.85 7.95 9.4 7.8 M3.3 9.75 L3.3 9.8 Q3.0 11.0 6.45 10.55 L6.5 10.55"/><path stroke="none" fill="url(#gradient4)" d="M7.35 5.95 Q8.55 7.5 10.75 6.95 8.55 8.35 7.55 13.45 7.3 15.45 7.95 16.35 L5.9 16.75 4.3 15.4 Q5.25 15.3 6.2 13.6 L7.8 8.1 Q8.0 7.1 7.35 5.95"/></g><linearGradient gradientUnits="userSpaceOnUse" x1="-819.2" x2="819.2" spreadMethod="pad" gradientTransform="matrix(0.00836181640625,0.0,0.0,0.00857543945312,6.9,12.2)" id="gradient5"><stop offset="0.149019607843" stop-color="#c2a561"/><stop offset="0.572549019608" stop-color="#927b47"/></linearGradient><linearGradient gradientUnits="userSpaceOnUse" x1="-819.2" x2="819.2" spreadMethod="pad" gradientTransform="matrix(-0.00624084472656,0.00358581542969,-0.00286865234375,-0.00498962402344,16.05,12.5)" id="gradient6"><stop offset="0.149019607843" stop-color="#c2a561"/><stop offset="0.572549019608" stop-color="#927b47"/></linearGradient><g id="c11"><path fill="#e6c497" stroke="none" d="M17.45 2.25 L17.35 2.3 16.55 1.65 17.45 2.25 M2.75 1.45 L2.75 1.4 3.1 1.25 2.75 1.45"/><path fill="#806c53" stroke="none" d="M18.75 5.45 L18.8 5.4 18.8 5.45 18.75 5.45"/><path fill="#e0c585" stroke="none" d="M16.55 1.65 L17.35 2.3 Q18.0 3.0 18.15 3.8 L18.15 4.15 18.15 4.35 18.1 4.75 18.05 4.8 Q17.65 6.2 15.6 7.25 L13.45 8.05 9.5 8.5 Q6.85 8.5 4.7 7.8 L4.65 7.8 3.35 7.25 1.45 5.85 Q2.65 4.55 4.85 3.55 L0.85 4.45 0.85 4.4 0.8 4.2 0.8 4.15 0.8 3.95 Q0.95 2.55 2.75 1.45 L3.1 1.25 3.35 1.1 Q5.4 0.05 8.15 -0.15 8.55 2.5 10.5 0.95 L10.55 -0.15 Q13.45 0.0 15.6 1.1 L16.55 1.65"/><path stroke="none" fill="url(#gradient5)" d="M0.05 5.2 Q0.3 6.85 2.75 8.1 L4.2 8.7 4.25 8.7 Q6.55 9.45 9.45 9.45 L13.75 8.95 Q12.8 14.3 13.0 18.95 L9.45 19.25 5.2 18.8 4.25 18.5 4.2 18.5 2.75 17.9 Q1.25 17.15 0.55 16.2 0.75 12.45 0.05 5.2"/><path stroke="none" fill="url(#gradient6)" d="M13.75 8.95 L16.1 8.1 Q18.3 6.95 18.75 5.45 L18.8 5.45 18.3 11.65 18.3 16.2 Q17.6 17.1 16.1 17.9 L13.75 18.75 13.0 18.95 Q12.8 14.3 13.75 8.95"/><path fill="#d8ca7c" stroke="none" d="M2.75 1.45 L2.7 1.45 2.75 1.4 2.75 1.45"/><path fill="#ac9c46" stroke="none" d="M17.35 2.3 L17.45 2.25 17.95 2.7 Q18.7 3.45 18.85 4.35 L18.85 4.7 18.85 4.95 18.8 5.4 18.75 5.45 Q18.3 6.95 16.1 8.1 L13.75 8.95 9.45 9.45 Q6.55 9.45 4.25 8.7 L4.2 8.7 2.75 8.1 Q0.3 6.85 0.05 5.2 L0.05 5.0 0.0 4.8 0.0 4.7 0.0 4.5 Q0.15 2.7 2.7 1.45 L2.75 1.45 Q0.95 2.55 0.8 3.95 L0.8 4.15 0.8 4.2 0.85 4.4 0.85 4.45 4.85 3.55 Q2.65 4.55 1.45 5.85 L3.35 7.25 4.65 7.8 4.7 7.8 Q6.85 8.5 9.5 8.5 L13.45 8.05 15.6 7.25 Q17.65 6.2 18.05 4.8 L18.1 4.75 18.15 4.35 18.15 4.15 18.15 3.8 Q18.0 3.0 17.35 2.3 M8.15 -0.15 L9.2 0.4 10.55 -0.15 10.5 0.95 Q8.55 2.5 8.15 -0.15"/><path fill="none" stroke="#000000" stroke-width="0.5" stroke-opacity="0.250980392157" d="M17.45 2.25 L16.55 1.65 M2.7 1.45 Q0.15 2.7 0.0 4.5 L0.0 4.7 0.0 4.8 0.05 5.0 0.05 5.2 M18.8 5.4 L18.85 4.95 18.85 4.7 18.85 4.35 Q18.7 3.45 17.95 2.7 L17.45 2.25 M10.55 -0.15 Q13.45 0.0 15.6 1.1 L16.55 1.65 M18.8 5.4 L18.8 5.45 18.3 11.65 18.3 16.2 M0.55 16.2 Q0.75 12.45 0.05 5.2 M2.75 1.4 L2.7 1.45 M3.1 1.25 L2.75 1.4 M3.1 1.25 L3.35 1.1 Q5.4 0.05 8.15 -0.15 L9.2 0.4 10.55 -0.15"/><path fill="#927b47" stroke="none" d="M17.05 9.9 Q17.35 9.4 17.55 9.45 L17.85 10.05 Q18.05 10.75 17.85 11.4 17.6 12.4 17.2 12.7 L16.85 12.75 16.75 12.3 16.65 11.8 16.65 11.65 16.65 10.85 17.05 9.9 M1.3 13.7 Q1.3 13.5 1.65 13.4 L1.8 13.3 2.15 13.6 Q2.15 14.1 1.65 14.1 1.3 14.1 1.3 13.7 M2.95 14.75 L3.35 14.6 Q3.85 14.6 3.85 15.15 L3.6 15.65 3.1 15.9 Q2.35 15.9 2.35 15.15 2.35 14.6 2.65 14.6 L2.95 14.75 M2.65 11.55 L3.45 11.4 Q4.4 11.4 4.4 12.5 L4.05 13.2 3.2 13.5 2.6 13.25 2.2 12.8 Q2.05 11.9 2.65 11.55"/><path fill="#ac9c46" stroke="none" d="M11.6 4.0 Q11.6 3.75 12.0 3.6 L12.25 3.55 Q12.9 3.55 13.2 3.85 13.0 4.25 12.3 4.25 L11.65 4.2 11.6 4.0 M12.85 1.8 L13.05 2.1 12.3 2.3 11.95 2.2 12.0 1.95 Q12.1 1.8 12.3 1.8 L12.5 1.8 12.85 1.8 M16.8 5.2 L16.35 5.7 14.9 6.05 Q13.6 6.05 13.45 5.4 L13.45 5.3 14.15 5.0 15.6 4.65 Q16.8 4.65 16.8 5.2 M15.75 3.0 L15.5 3.35 14.65 3.55 14.05 3.4 13.6 2.9 13.65 2.85 Q13.7 2.7 14.1 2.45 L14.75 2.25 15.35 2.45 15.75 3.0 M11.95 6.35 L10.85 6.95 8.95 7.2 Q7.4 7.2 7.4 6.7 L7.85 6.2 7.9 6.15 8.55 5.65 9.75 5.5 11.35 5.9 11.95 6.35"/><path fill="#77653c" stroke="none" d="M13.85 11.95 Q14.0 11.8 14.15 11.75 L14.2 11.7 14.7 11.5 15.35 11.65 15.7 12.05 15.4 12.5 14.55 12.85 Q13.9 12.85 13.7 12.55 L13.6 12.2 13.85 11.95 M15.6 9.9 L15.8 9.9 Q16.1 9.9 16.4 10.2 L15.75 10.75 Q15.4 10.75 15.4 10.35 L15.55 9.95 15.6 9.9 M15.65 13.55 L15.7 13.5 15.75 13.5 15.85 13.55 16.0 13.6 Q16.2 13.65 16.2 13.85 L16.0 14.15 Q15.75 14.35 15.5 14.35 L15.2 14.3 15.2 13.95 15.65 13.55 M17.95 14.7 Q18.3 14.85 18.3 15.3 L17.65 16.45 Q16.95 17.05 16.3 17.05 15.3 17.05 15.3 16.1 15.3 15.65 15.75 15.25 16.35 14.75 17.25 14.65 L17.6 14.6 17.95 14.7"/></g><g id="c12"><g><use transform="matrix(1.0,0.0,0.0,1.0,0.0,0.0)" xlink:href="#c11"/></g></g><linearGradient gradientUnits="userSpaceOnUse" x1="-819.2" x2="819.2" spreadMethod="pad" gradientTransform="matrix(-7.62939453125e-05,0.0015869140625,-0.00209045410156,-0.000106811523438,4.3,4.15)" id="gradient7"><stop offset="0.0" stop-color="#626647" stop-opacity="0.6"/><stop offset="1.0" stop-color="#616647" stop-opacity="0.192156862745"/></linearGradient><linearGradient gradientUnits="userSpaceOnUse" x1="-819.2" x2="819.2" spreadMethod="pad" gradientTransform="matrix(-0.000152587890625,-0.00190734863281,0.00382995605469,-0.000289916992188,4.95,8.05)" id="gradient8"><stop offset="0.0" stop-color="#4e543a" stop-opacity="0.6"/><stop offset="1.0" stop-color="#616647" stop-opacity="0.2"/></linearGradient><linearGradient gradientUnits="userSpaceOnUse" x1="-819.2" x2="819.2" spreadMethod="pad" gradientTransform="matrix(-0.000885009765625,-0.000289916992188,0.000503540039062,-0.00152587890625,7.55,8.2)" id="gradient9"><stop offset="0.0" stop-color="#50543a" stop-opacity="0.6"/><stop offset="1.0" stop-color="#606647" stop-opacity="0.0"/></linearGradient><g id="c13"><path stroke="none" fill="url(#gradient7)" d="M11.1 1.6 L12.35 2.05 11.05 3.95 13.45 6.6 9.3 7.4 10.0 4.1 11.1 1.6"/><path fill="#dfe8a0" fill-opacity="0.6" d="M5.35 4.1 L8.45 3.05 8.3 0.2 10.1 1.45 9.75 4.25 Q8.9 6.25 8.55 8.05 L8.25 6.85 5.35 4.1"/><path stroke="none" fill="url(#gradient8)" d="M13.0 6.35 Q12.65 11.3 11.6 15.55 L11.7 12.95 11.2 15.7 6.3 16.5 Q7.35 12.1 8.95 7.7 10.45 6.4 10.7 3.85 L13.0 6.35"/><path stroke="none" fill="url(#gradient9)" d="M2.45 13.65 Q3.85 14.7 4.55 14.6 5.9 13.45 8.3 7.8 L5.6 16.5 2.45 13.65"/><path fill="#e9f0e4" stroke="none" d="M8.35 -0.6 L8.4 -0.7 8.6 -1.0 9.3 -1.3 11.1 -1.1 Q11.95 -0.85 12.55 -0.4 L12.7 -0.25 Q13.35 0.3 13.25 0.7 L12.7 1.15 12.45 1.2 12.3 1.2 11.8 1.25 11.6 1.25 11.1 1.2 10.5 1.0 9.75 0.75 9.25 0.5 9.2 0.5 8.35 -0.6 M10.65 -0.75 L9.9 -0.8 Q9.45 -0.8 9.35 -0.45 9.3 -0.25 9.7 0.1 L10.6 0.55 10.7 0.55 11.85 0.7 Q12.35 0.65 12.4 0.4 L12.1 -0.15 Q11.7 -0.5 11.05 -0.65 L10.65 -0.75"/><path fill="#6e734d" stroke="none" d="M10.6 0.55 L9.7 0.1 Q9.3 -0.25 9.35 -0.45 9.45 -0.8 9.9 -0.8 L10.65 -0.75 10.6 0.55"/><path fill="#b9be9c" stroke="none" d="M8.6 -1.0 L8.4 -0.7 8.35 -0.6 8.35 -0.5 Q8.05 -0.3 8.0 0.7 7.6 -0.65 8.6 -1.0 M12.7 1.15 L13.25 0.7 Q13.35 0.3 12.7 -0.25 L12.55 -0.4 12.6 -0.4 Q14.1 0.7 12.85 1.9 L12.25 2.35 Q12.9 1.55 12.7 1.15"/><path fill="#ffffff" stroke="none" d="M8.35 -0.5 L8.35 -0.6 9.2 0.5 9.05 0.35 8.8 0.15 Q8.4 -0.2 8.35 -0.5"/><path fill="#959966" stroke="none" d="M10.65 -0.75 L11.05 -0.65 Q11.7 -0.5 12.1 -0.15 L12.4 0.4 Q12.35 0.65 11.85 0.7 L10.7 0.55 10.6 0.55 10.65 -0.75"/><path fill="#939966" fill-opacity="0.701960784314" d="M11.6 1.25 L11.8 1.25 12.3 1.2 12.45 1.2 12.7 1.15 Q12.9 1.55 12.25 2.35 L11.95 2.4 10.6 2.25 11.6 1.25"/><path fill="#b9bf9c" fill-opacity="0.701960784314" d="M9.2 0.5 L9.25 0.5 9.75 0.75 10.5 1.0 11.1 1.2 11.6 1.25 10.6 2.25 10.15 2.15 9.05 1.7 Q8.75 0.95 9.05 0.35 L9.2 0.5"/><path fill="#e1ebd1" fill-opacity="0.701960784314" d="M8.0 0.7 Q8.05 -0.3 8.35 -0.5 8.4 -0.2 8.8 0.15 L9.05 0.35 Q8.75 0.95 9.05 1.7 L8.5 1.35 Q8.1 1.05 8.05 0.75 L8.0 0.7"/><path fill="none" stroke="#000000" stroke-width="0.5" stroke-opacity="0.301960784314" d="M9.25 0.5 L9.75 0.75 M11.1 1.2 L11.6 1.25 11.8 1.25 M10.6 0.55 L9.7 0.1 Q9.3 -0.25 9.35 -0.45 9.45 -0.8 9.9 -0.8 L10.65 -0.75 11.05 -0.65 Q11.7 -0.5 12.1 -0.15 L12.4 0.4 Q12.35 0.65 11.85 0.7 L10.7 0.55 10.6 0.55"/></g><linearGradient gradientUnits="userSpaceOnUse" x1="-819.2" x2="819.2" spreadMethod="pad" gradientTransform="matrix(0.00909423828125,0.0,0.0,0.00379943847656,-3.4,-56.65)" id="gradient10"><stop offset="0.0" stop-color="#ccb87a"/><stop offset="0.337254901961" stop-color="#a39361"/><stop offset="0.580392156863" stop-color="#756746"/><stop offset="0.878431372549" stop-color="#756946"/><stop offset="1.0" stop-color="#a39361"/></linearGradient><g id="c14"><path fill="#d9bf4f" stroke="none" d="M-8.25 -57.8 L-8.8 -58.05 -8.8 -58.1 -8.25 -57.8"/><path fill="#9b8c5c" stroke="none" d="M4.45 -59.9 L4.1 -59.0 3.9 -59.1 4.45 -59.9"/><path fill="#dbcb7a" stroke="none" d="M-11.15 -60.75 L-11.15 -60.9 Q-11.15 -62.55 -8.8 -63.7 L-7.55 -64.2 Q-5.65 -64.9 -3.2 -64.9 0.05 -64.9 2.4 -63.7 4.7 -62.55 4.7 -60.9 L4.7 -60.8 4.65 -60.45 4.5 -60.0 4.45 -59.9 3.9 -59.1 2.4 -58.05 1.85 -57.8 -2.35 -56.9 -2.6 -56.9 -2.7 -56.9 -2.9 -56.9 -3.0 -56.9 -3.2 -56.9 -3.3 -56.9 -3.4 -56.9 -3.5 -56.9 -8.25 -57.8 -8.8 -58.1 -10.35 -59.1 -10.75 -59.6 -10.8 -59.75 -11.05 -60.3 -11.05 -60.35 -11.15 -60.65 -11.15 -60.75"/><path stroke="none" fill="url(#gradient10)" d="M4.1 -59.0 L2.4 -55.75 2.05 -54.05 1.8 -53.3 Q-2.35 -50.3 -8.1 -53.25 L-8.35 -53.65 -8.55 -54.75 -8.65 -54.85 -8.75 -55.2 -8.8 -55.35 -10.75 -59.6 -10.35 -59.1 -8.8 -58.1 -8.8 -58.05 -8.25 -57.8 -3.5 -56.9 -3.4 -56.9 -3.3 -56.9 -3.2 -56.9 -3.0 -56.9 -2.9 -56.9 -2.7 -56.9 -2.6 -56.9 -2.35 -56.9 1.85 -57.8 2.4 -58.05 3.9 -59.1 4.1 -59.0"/><path fill="none" stroke="#000000" stroke-width="0.5" stroke-opacity="0.152941176471" d="M4.45 -59.9 L4.1 -59.0 2.4 -55.75 2.05 -54.05 1.8 -53.3 1.65 -52.85 M-11.15 -60.75 L-11.15 -60.9 Q-11.15 -62.55 -8.8 -63.7 L-7.55 -64.2 Q-5.65 -64.9 -3.2 -64.9 0.05 -64.9 2.4 -63.7 4.7 -62.55 4.7 -60.9 L4.7 -60.8 4.65 -60.45 4.5 -60.0 4.45 -59.9 3.9 -59.1 2.4 -58.05 1.85 -57.8 -2.35 -56.9 -2.6 -56.9 -2.7 -56.9 -2.9 -56.9 -3.0 -56.9 -3.2 -56.9 -3.3 -56.9 -3.4 -56.9 -3.5 -56.9 -8.25 -57.8 -8.8 -58.1 -10.35 -59.1 -10.75 -59.6 -8.8 -55.35 -8.8 -55.25 -8.75 -55.2 -8.65 -54.85 M-8.8 -58.05 L-8.8 -58.1 M-8.55 -54.75 L-8.35 -53.65 -8.1 -53.25 M-10.75 -59.6 L-10.8 -59.75 -11.05 -60.3 -11.05 -60.35 -11.15 -60.65"/></g><g id="c15"><path fill="#938045" stroke="none" d="M4.65 2.95 Q2.0 11.1 1.25 11.1 L0.8 10.95 0.75 10.55 Q0.75 10.05 2.05 6.9 L4.25 2.4 Q4.65 2.6 4.65 2.95 M3.3 0.9 Q1.15 9.9 0.65 9.9 0.0 9.9 0.0 9.2 L1.05 4.55 Q2.2 0.0 2.75 0.0 3.4 0.0 3.3 0.9 M5.55 8.15 Q4.75 11.7 3.65 11.7 L3.05 11.05 2.4 11.55 Q1.8 11.55 1.8 10.7 1.8 10.55 4.95 3.95 5.6 3.95 5.55 4.75 L3.95 9.25 5.0 7.4 Q5.65 7.4 5.55 8.15"/></g><g id="c16"><g><use transform="matrix(1.0,0.0,0.0,1.0,0.0,0.0)" xlink:href="#c15"/></g></g><linearGradient gradientUnits="userSpaceOnUse" x1="-819.2" x2="819.2" spreadMethod="pad" gradientTransform="matrix(-0.00141906738281,0.0,0.0,-0.00100708007812,-7.75,-59.65)" id="gradient11"><stop offset="0.0" stop-color="#a48c3f"/><stop offset="1.0" stop-color="#806d30"/></linearGradient><g id="c17"><path fill="none" stroke="#000000" stroke-width="0.5" stroke-opacity="0.301960784314" d="M4.45 -59.9 L4.1 -59.0 2.35 -55.55 2.35 -55.5 2.25 -54.9 Q2.25 -54.9 2.35 -54.85 2.75 -52.85 -1.55 -51.8 L-1.8 -51.85 Q-4.65 -51.5 -8.1 -53.25 L-8.35 -53.65 -8.55 -54.75 -8.65 -54.85 -8.8 -55.35 -10.0 -57.95 -10.75 -59.6 -10.8 -59.75 -11.05 -60.3 -11.05 -60.35 -11.15 -60.65 -11.15 -60.75 -11.15 -60.9 Q-11.15 -62.55 -8.8 -63.7 L-7.55 -64.2 Q-5.65 -64.9 -3.2 -64.9 0.05 -64.9 2.4 -63.7 4.7 -62.55 4.7 -60.9 L4.7 -60.8 4.65 -60.45 4.5 -60.0 4.45 -59.9"/><path stroke="none" fill="url(#gradient11)" d="M-7.4 -58.8 L-8.55 -59.05 -9.0 -59.65 -8.55 -60.2 -7.4 -60.45 -6.3 -60.2 -5.85 -59.6 Q-5.85 -59.25 -6.3 -59.05 L-7.4 -58.8"/><path fill="none" stroke="#000000" stroke-width="0.5" stroke-opacity="0.152941176471" d="M-7.4 -58.8 L-8.55 -59.05 -9.0 -59.65 -8.55 -60.2 -7.4 -60.45 -6.3 -60.2 -5.85 -59.6 Q-5.85 -59.25 -6.3 -59.05 L-7.4 -58.8"/><path fill="none" stroke="#000000" stroke-width="0.5" stroke-opacity="0.101960784314" d="M3.4 -62.25 L3.7 -62.35 M3.7 -61.85 L3.95 -61.85 M4.25 -60.7 L3.95 -59.9 Q3.55 -59.1 1.5 -58.15 M2.8 -59.85 L2.7 -59.75 2.55 -59.7 2.4 -59.75 2.3 -59.85 2.4 -59.9 2.55 -59.9 2.7 -59.9 2.8 -59.85 M1.65 -59.9 L0.95 -60.1 Q0.65 -60.2 0.65 -60.45 L0.95 -60.85 1.65 -61.0 2.4 -60.85 2.7 -60.45 2.4 -60.1 1.65 -59.9 M0.3 -58.1 L-0.7 -57.9 -1.7 -58.1 Q-2.1 -58.3 -2.1 -58.6 L-1.7 -59.05 -0.7 -59.25 0.3 -59.05 0.7 -58.6 Q0.7 -58.3 0.3 -58.1 M1.45 -57.65 L1.1 -55.9 M3.15 -58.5 L2.4 -55.75 M2.35 -55.5 L1.4 -54.9 1.35 -54.65 M1.85 -57.15 L1.4 -54.9 M-7.75 -62.05 L-7.55 -61.85 -7.75 -61.6 -8.2 -61.5 -8.65 -61.6 -8.85 -61.85 -8.65 -62.05 -8.2 -62.15 -7.75 -62.05 M-5.4 -63.35 L-4.55 -63.5 -3.65 -63.35 -3.3 -62.95 Q-3.3 -62.7 -3.65 -62.55 L-4.55 -62.35 -5.4 -62.55 -5.8 -62.95 -5.4 -63.35 M-3.3 -62.15 L-3.15 -62.35 -2.85 -62.45 -2.75 -62.45 -2.35 -62.35 -2.2 -62.15 -2.35 -61.95 -2.75 -61.9 -2.85 -61.9 -3.15 -61.95 -3.3 -62.15 M-1.3 -63.55 L-1.4 -63.45 -1.65 -63.4 -1.9 -63.45 -2.05 -63.55 -1.9 -63.65 -1.65 -63.7 -1.4 -63.65 -1.3 -63.55 M-10.45 -61.05 L-10.4 -61.1 -10.25 -61.15 -10.1 -61.1 -10.05 -61.05 -10.1 -61.0 -10.25 -61.0 -10.4 -61.0 -10.45 -61.05 M-4.1 -59.3 L-4.2 -59.35 -4.1 -59.45 -3.95 -59.45 -3.75 -59.45 -3.65 -59.35 -3.75 -59.3 -3.95 -59.25 -4.1 -59.3 M-4.9 -56.95 L-4.85 -55.75 M-1.9 -56.95 L-1.9 -56.6 M-6.1 -57.55 L-3.45 -57.3 -1.9 -57.4 M-7.3 -60.4 L-7.2 -58.9 M-6.35 -60.15 L-6.4 -58.9 M-8.55 -60.4 L-8.6 -60.35 -8.8 -60.3 -9.0 -60.35 -9.05 -60.4 -9.0 -60.45 -8.8 -60.5 -8.6 -60.45 -8.55 -60.4 M-9.45 -58.4 L-8.8 -56.3 M-6.55 -56.95 L-6.55 -57.2 M-7.95 -54.9 L-8.6 -55.25 M-1.1 -54.1 L-1.1 -53.7 M-7.2 -54.4 L-4.75 -53.85 -4.8 -54.65 M-4.0 -53.85 L-2.55 -53.85 M-2.0 -56.15 L-2.25 -53.65 M-10.25 -58.85 L-9.9 -58.0 M-10.15 -62.3 Q-9.0 -63.8 -5.9 -64.35"/></g><g id="c18"><path fill="#998d6a" stroke="none" d="M5.6 3.65 L4.0 1.9 5.3 0.0 11.2 1.75 5.6 3.65"/><path fill="#736950" stroke="none" d="M5.3 0.0 L4.0 1.9 5.6 3.65 0.0 2.1 5.3 0.0"/></g><g id="c19"><g><use transform="matrix(1.0,0.0,0.0,1.0,0.0,0.0)" xlink:href="#c18"/></g></g><g id="c20"><path fill="#cac5bd" stroke="none" d="M4.15 -7.2 Q2.55 -5.5 2.55 -4.05 2.55 -3.15 4.3 -2.55 6.05 -1.9 6.05 0.75 L6.05 3.2 Q5.75 4.5 3.65 4.5 L2.25 4.1 0.05 3.15 -3.0 3.7 -6.35 4.2 Q-7.1 4.2 -8.1 3.15 -9.2 2.0 -9.2 0.9 -9.2 -0.3 -7.35 -3.2 L-5.55 -6.5 -5.6 -7.15 -5.15 -7.2 4.15 -7.2"/><path fill="#c9c4bd" fill-opacity="0.780392156863" d="M-5.6 -7.15 L-5.55 -6.5 -7.35 -3.2 Q-9.2 -0.3 -9.2 0.9 -9.2 2.0 -8.1 3.15 -7.1 4.2 -6.35 4.2 L-3.0 3.7 0.05 3.15 2.25 4.1 3.65 4.5 Q5.75 4.5 6.05 3.2 L6.05 0.75 Q6.05 -1.9 4.3 -2.55 2.55 -3.15 2.55 -4.05 2.55 -5.5 4.15 -7.2 L5.1 -7.2 Q7.15 -7.2 8.6 -5.75 10.1 -4.25 10.1 -2.2 L10.1 2.2 Q10.1 4.25 8.6 5.7 7.15 7.2 5.1 7.2 L-5.15 7.2 Q-7.2 7.2 -8.7 5.7 -10.15 4.25 -10.15 2.2 L-10.15 -2.2 Q-10.15 -4.25 -8.7 -5.75 -7.4 -7.05 -5.6 -7.15"/></g><g id="c21"><g><use transform="matrix(1.0,0.0,0.0,1.0,0.0,0.0)" xlink:href="#c20"/></g></g><g id="c22"><path fill="#2d2117" fill-opacity="0.811764705882" d="M22.1 -0.3 Q0.0 1.85 -22.15 -0.3 0.95 -1.35 22.1 -0.3"/></g><g id="c23"><g><use transform="matrix(1.0,0.0,0.0,1.0,0.0,0.0)" xlink:href="#c22"/></g></g><g id="c24"><g><use transform="matrix(1.0,0.0,0.0,1.0,0.0,0.0)" xlink:href="#c23"/></g><g><use transform="matrix(0.855529785156,0.0,0.0,0.647857666016,-14.85,-9.55)" xlink:href="#c23"/></g><g><use transform="matrix(0.855529785156,0.0,0.0,0.647857666016,-4.65,4.4)" xlink:href="#c23"/></g><g><use transform="matrix(0.855529785156,0.0,0.0,0.647857666016,8.6,8.0)" xlink:href="#c23"/></g><g><use transform="matrix(0.855529785156,0.0,0.0,0.647857666016,-8.8,-5.5)" xlink:href="#c23"/></g></g><g id="c25"><g><use transform="matrix(0.0112457275391,0.35710144043,0.579650878906,0.144348144531,6.25,29.05)" xlink:href="#c24"/></g><g><use transform="matrix(0.0112457275391,0.35710144043,0.579650878906,0.144348144531,6.9,18.5)" xlink:href="#c24"/></g><g><use transform="matrix(0.00900268554688,0.285675048828,0.463745117188,0.115463256836,13.9,18.65)" xlink:href="#c24"/></g></g><g id="c26"><path fill="#3d3424" fill-opacity="0.4" d="M2.1 -54.95 Q5.45 -53.8 2.75 -52.55 0.05 -51.35 -2.15 -51.95 -0.9 -53.05 0.35 -57.35 L4.1 -59.0 2.25 -55.35 2.1 -54.95"/></g><g id="c27"><g><use transform="matrix(1.0,0.0,0.0,1.0,0.0,0.0)" xlink:href="#c14"/></g><g><use transform="matrix(0.414474487305,0.0,0.0,0.414474487305,-6.1,-57.25)" filter="url(#filter23)" xlink:href="#c16"/></g><g><use transform="matrix(1.0,0.0,0.0,1.0,0.0,0.0)" xlink:href="#c17"/></g><g><use transform="matrix(0.251953125,0.0,0.0,0.251953125,-4.4,-57.5)" filter="url(#filter25)" xlink:href="#c19"/></g><g><use transform="matrix(0.171966552734,-0.0307464599609,0.0,0.209030151367,-0.1,-55.7)" filter="url(#filter26)" xlink:href="#c21"/></g><g><use transform="matrix(0.209030151367,0.0,0.0,0.0911102294922,-5.35,-57.2)" filter="url(#filter27)" xlink:href="#c25"/></g><g><use transform="matrix(0.188934326172,0.0908203125,-0.177093505859,0.306732177734,-9.35,-59.2)" filter="url(#filter28)" xlink:href="#c19"/></g><g><use transform="matrix(1.0,0.0,0.0,1.0,0.0,0.0)" xlink:href="#c26"/></g></g><filter id="filter23"><feColorMatrix in="SourceGraphic" type="matrix" values="0.2578125 0.0 0.0 0.0 0.484375 0.0 0.2578125 0.0 0.0 0.4375 0.0 0.0 0.2578125 0.0 0.28515625 0.0 0.0 0.0 1.0 0.0" result="cxform"/><feComposite operator="in" in2="SourceGraphic" result="color-xform"/></filter><filter id="filter25"><feColorMatrix in="SourceGraphic" type="matrix" values="0.3984375 0.0 0.0 0.0 0.51171875 0.0 0.3984375 0.0 0.0 0.4765625 0.0 0.0 0.3984375 0.0 0.28515625 0.0 0.0 0.0 1.0 0.0" result="cxform"/><feComposite operator="in" in2="SourceGraphic" result="color-xform"/></filter><filter id="filter26"><feColorMatrix in="SourceGraphic" type="matrix" values="0.05859375 0.0 0.0 0.0 0.4296875 0.0 0.05859375 0.0 0.0 0.3828125 0.0 0.0 0.05859375 0.0 0.2578125 0.0 0.0 0.0 1.0 0.0" result="cxform"/><feComposite operator="in" in2="SourceGraphic" result="color-xform"/></filter><filter id="filter27"><feColorMatrix in="SourceGraphic" type="matrix" values="0.05859375 0.0 0.0 0.0 0.51953125 0.0 0.05859375 0.0 0.0 0.4609375 0.0 0.0 0.05859375 0.0 0.30859375 0.0 0.0 0.0 1.0 0.0" result="cxform"/><feComposite operator="in" in2="SourceGraphic" result="color-xform"/></filter><filter id="filter28"><feColorMatrix in="SourceGraphic" type="matrix" values="0.2578125 0.0 0.0 0.0 0.65234375 0.0 0.2578125 0.0 0.0 0.60546875 0.0 0.0 0.2578125 0.0 0.36328125 0.0 0.0 0.0 1.0 0.0" result="cxform"/><feComposite operator="in" in2="SourceGraphic" result="color-xform"/></filter><radialGradient gradientUnits="userSpaceOnUse" r="819.2" cx="0" cy="0" spreadMethod="pad" gradientTransform="matrix(0.0348510742188,0.0,0.0,0.0348510742188,0.0,0.0)" id="gradient12"><stop offset="0.0" stop-color="#fff6b2" stop-opacity="0.8"/><stop offset="1.0" stop-color="#fff6b2" stop-opacity="0.0"/></radialGradient><g id="c28"><path stroke="none" fill="url(#gradient12)" d="M19.8 -19.8 Q28.0 -11.6 28.0 0.0 28.0 11.6 19.8 19.8 11.6 28.0 0.0 28.0 -11.6 28.0 -19.8 19.8 -28.0 11.6 -28.0 0.0 -28.0 -11.6 -19.8 -19.8 -11.6 -28.0 0.0 -28.0 11.6 -28.0 19.8 -19.8"/></g><g id="c29"><g><use transform="matrix(1.0,0.0,0.0,1.0,0.0,0.0)" xlink:href="#c28"/></g></g><g id="c30"><path fill="#fcf969" fill-opacity="0.501960784314" d="M7.2 12.25 Q8.05 9.55 7.9 7.9 7.7 6.15 6.6 5.35 7.85 6.2 9.3 6.55 L12.3 6.6 Q10.6 6.9 9.35 8.15 8.1 9.7 7.2 12.25"/><path fill="#e6f4f5" fill-opacity="0.8" d="M4.6 5.5 Q5.2 4.65 5.6 4.75 L6.2 5.25 Q6.5 5.6 6.45 6.15 6.45 6.6 6.05 7.1 L5.2 7.7 Q4.75 7.8 3.45 8.55 L3.8 7.15 Q4.05 6.4 4.6 5.5"/></g><radialGradient gradientUnits="userSpaceOnUse" r="819.2" cx="0" cy="0" spreadMethod="pad" gradientTransform="matrix(0.102233886719,0.0,0.0,0.102233886719,0.0,0.0)" id="gradient13"><stop offset="0.505882352941" stop-color="#e8e2b5"/><stop offset="1.0" stop-color="#e6d080" stop-opacity="0.0"/></radialGradient><g id="c31"><path stroke="none" fill="url(#gradient13)" d="M58.35 -58.35 Q82.5 -34.2 82.5 0.0 82.5 34.25 58.35 58.35 34.25 82.5 0.0 82.5 -34.2 82.5 -58.35 58.35 -82.5 34.25 -82.5 0.0 -82.5 -34.2 -58.35 -58.35 -34.2 -82.5 0.0 -82.5 34.25 -82.5 58.35 -58.35"/></g><g id="c32"><g><use transform="matrix(1.0,0.0,0.0,1.0,0.0,0.0)" xlink:href="#c31"/></g></g><radialGradient gradientUnits="userSpaceOnUse" r="819.2" cx="0" cy="0" spreadMethod="pad" gradientTransform="matrix(0.0348510742188,0.0,0.0,0.0348510742188,0.0,0.0)" id="gradient14"><stop offset="0.0" stop-color="#ffffff" stop-opacity="0.8"/><stop offset="1.0" stop-color="#fef18a" stop-opacity="0.0"/></radialGradient><g id="c33"><path stroke="none" fill="url(#gradient14)" d="M19.8 -19.8 Q28.0 -11.6 28.0 0.0 28.0 11.6 19.8 19.8 11.6 28.0 0.0 28.0 -11.6 28.0 -19.8 19.8 -28.0 11.6 -28.0 0.0 -28.0 -11.6 -19.8 -19.8 -11.6 -28.0 0.0 -28.0 11.6 -28.0 19.8 -19.8"/></g><g id="c34"><g><use transform="matrix(1.0,0.0,0.0,1.0,0.0,0.0)" xlink:href="#c33"/></g></g><radialGradient gradientUnits="userSpaceOnUse" r="819.2" cx="0" cy="0" spreadMethod="pad" gradientTransform="matrix(0.0150604248047,0.0,0.0,0.0150604248047,0.0,0.0)" id="gradient15"><stop offset="0.0" stop-color="#ffffff" stop-opacity="0.560784313725"/><stop offset="1.0" stop-color="#e6ff00" stop-opacity="0.0"/></radialGradient><g id="c35"><path fill="#ffffff" stroke="none" d="M2.25 -33.35 L2.4 -33.8 2.8 -33.95 3.25 -33.8 3.4 -33.35 3.25 -32.95 2.8 -32.8 Q2.55 -32.8 2.4 -32.95 L2.25 -33.35 M-5.55 -16.15 Q-5.9 -16.5 -5.85 -16.95 -5.9 -17.45 -5.55 -17.8 -5.2 -18.15 -4.7 -18.15 -4.2 -18.15 -3.85 -17.8 -3.55 -17.45 -3.55 -16.95 -3.55 -16.5 -3.85 -16.15 -4.2 -15.8 -4.7 -15.8 -5.2 -15.8 -5.55 -16.15"/><path stroke="none" fill="url(#gradient15)" d="M9.0 -9.0 Q12.75 -5.25 12.75 0.0 12.75 5.25 9.0 9.0 5.25 12.75 0.0 12.75 -5.25 12.75 -9.0 9.0 -12.75 5.25 -12.75 0.0 -12.75 -5.25 -9.0 -9.0 -5.25 -12.75 0.0 -12.75 5.25 -12.75 9.0 -9.0 M1.8 -1.8 Q1.05 -2.55 0.0 -2.55 -1.05 -2.55 -1.8 -1.8 -2.55 -1.05 -2.55 0.0 -2.55 1.05 -1.8 1.8 -1.05 2.55 0.0 2.55 1.05 2.55 1.8 1.8 2.55 1.05 2.55 0.0 2.55 -1.05 1.8 -1.8"/><path fill="#ffffff" stroke="none" d="M3.6 -3.6 Q5.1 -2.1 5.1 0.0 5.1 2.1 3.6 3.6 2.1 5.1 0.0 5.1 -2.1 5.1 -3.6 3.6 -5.1 2.1 -5.1 0.0 -5.1 -2.1 -3.6 -3.6 -2.1 -5.1 0.0 -5.1 2.1 -5.1 3.6 -3.6"/></g><g id="c36"><g><use transform="matrix(1.0,0.0,0.0,1.0,0.0,0.0)" xlink:href="#c35"/></g></g><g id="c37"><g><use transform="matrix(1.0,0.0,0.0,1.0,0.0,0.0)" xlink:href="#c36"/></g><g><use transform="matrix(-0.501892089844,0.501892089844,-0.501892089844,-0.501892089844,21.1,-35.2)" xlink:href="#c36"/></g><g><use transform="matrix(0.42431640625,0.0,0.0,0.42431640625,24.65,-5.9)" xlink:href="#c36"/></g></g><g id="c38"><g><use transform="matrix(1.0,0.0,0.0,1.0,0.0,0.0)" xlink:href="#c10"/></g><g><use transform="matrix(-0.170867919922,-0.0554351806641,-0.0554351806641,0.170867919922,12.35,-0.15)" filter="url(#filter38)" xlink:href="#c12"/></g><g><use transform="matrix(1.0,0.0,0.0,1.0,0.0,0.0)" xlink:href="#c13"/></g><g><use transform="matrix(0.304244995117,0.0995635986328,-0.0995635986328,0.304244995117,5.95,16.45)" xlink:href="#c27"/></g><g><use transform="matrix(0.0811767578125,0.0265502929688,-0.0137329101562,0.0420227050781,11.1,-2.5)" filter="url(#filter41)" xlink:href="#c29"/></g><g><use transform="matrix(1.0,0.0,0.0,1.0,0.0,0.0)" xlink:href="#c30"/></g><g><use transform="matrix(-0.0076904296875,-0.00418090820312,0.00521850585938,-0.0104064941406,4.8,6.15)" filter="url(#filter43)" xlink:href="#c32"/></g><g><use transform="matrix(0.0583953857422,0.0191040039062,-0.0302276611328,0.0981750488281,4.7,6.95)" filter="url(#filter44)" xlink:href="#c34"/></g><g><use transform="matrix(0.0597229003906,-0.0518188476562,0.0615081787109,0.0498046875,7.6,4.55)" filter="url(#filter45)" xlink:href="#c34"/></g><g><use transform="matrix(-0.118743896484,0.0317230224609,-0.0317230224609,-0.118743896484,4.3,6.6)" xlink:href="#c37"/></g></g><filter id="filter38"><feColorMatrix in="SourceGraphic" type="matrix" values="0.67578125 0.0 0.0 0.0 0.0703125 0.0 0.67578125 0.0 0.0 0.046875 0.0 0.0 0.67578125 0.0 0.01953125 0.0 0.0 0.0 1.0 0.0" result="cxform"/><feComposite operator="in" in2="SourceGraphic" result="color-xform"/></filter><filter id="filter41"><feColorMatrix in="SourceGraphic" type="matrix" values="1.0 0.0 0.0 0.0 0.0 0.0 1.0 0.0 0.0 0.0 0.0 0.0 1.0 0.0 0.0 0.0 0.0 0.0 0.12109375 0.0" result="cxform"/><feComposite operator="in" in2="SourceGraphic" result="color-xform"/></filter><filter id="filter43"><feColorMatrix in="SourceGraphic" type="matrix" values="1.0 0.0 0.0 0.0 0.0 0.0 1.0 0.0 0.0 0.0 0.0 0.0 1.0 0.0 0.0 0.0 0.0 0.0 0.19921875 0.0" result="cxform"/><feComposite operator="in" in2="SourceGraphic" result="color-xform"/></filter><filter id="filter44"><feColorMatrix in="SourceGraphic" type="matrix" values="1.0 0.0 0.0 0.0 0.0 0.0 1.0 0.0 0.0 0.0 0.0 0.0 1.0 0.0 0.0 0.0 0.0 0.0 0.30078125 0.0" result="cxform"/><feComposite operator="in" in2="SourceGraphic" result="color-xform"/></filter><filter id="filter45"><feColorMatrix in="SourceGraphic" type="matrix" values="1.0 0.0 0.0 0.0 0.0 0.0 1.0 0.0 0.0 0.0 0.0 0.0 1.0 0.0 0.0 0.0 0.0 0.0 0.30078125 0.0" result="cxform"/><feComposite operator="in" in2="SourceGraphic" result="color-xform"/></filter><g id="c39"><g><use transform="matrix(1.0,0.0,0.0,1.0,6.3,53.35)" xlink:href="#c9"/></g><g><use transform="matrix(1.0,0.0,0.0,1.0,19.85,68.2)" xlink:href="#c38"/></g><g><use transform="matrix(0.141098022461,-0.0378112792969,0.111373901367,0.225646972656,27.2,74.05)" filter="url(#filter49)" xlink:href="#c6"/></g></g><filter id="filter49"><feColorMatrix in="SourceGraphic" type="matrix" values="1.0 0.0 0.0 0.0 0.0 0.0 1.0 0.0 0.0 0.0 0.0 0.0 1.0 0.0 0.0 0.0 0.0 0.0 0.23046875 0.0" result="cxform"/><feComposite operator="in" in2="SourceGraphic" result="color-xform"/></filter></defs><g><g><use transform="matrix(1.0,0.0,0.0,1.0,0.0,0.0)" xlink:href="#c1"/></g><g><use transform="matrix(1.15496826172,0.0,0.0,1.15496826172,-1.4,-57.4)" xlink:href="#c39"/></g></g></svg>