<?xml version='1.0' encoding='UTF-8'?>
<svg xmlns:xlink="http://www.w3.org/1999/xlink" xmlns="http://www.w3.org/2000/svg" version="1.1" width="60px" height="60px" viewBox="0.0 0.0 60.0 60.0"><defs><g id="c1"><path fill="#000000" fill-opacity="0.00392156862745" d="M0.0 0.0 L60.0 0.0 60.0 60.0 0.0 60.0 0.0 0.0"/></g><g id="c2"><path fill="none" stroke="#000000" stroke-width="1.0" stroke-opacity="0.301960784314" d="M28.45 3.1 L41.35 31.7 Q42.95 35.15 40.2 36.7 39.5 37.3 38.3 37.65 L36.35 38.3 36.15 38.15 34.0 36.9 33.8 36.8 Q30.65 35.45 27.7 36.35 24.75 37.3 23.7 40.05 L23.6 40.25 Q23.25 41.25 23.25 42.3 L23.25 42.35 23.25 42.55 19.8 43.65 Q17.15 44.45 15.5 43.3 14.35 42.55 13.65 40.9 L0.7 12.25 Q-0.45 9.75 0.75 8.25 1.2 7.6 2.15 7.15 2.8 6.7 3.8 6.35 L6.45 5.5 8.5 6.75 8.7 6.85 Q11.9 8.2 14.85 7.25 17.8 6.35 18.85 3.6 L18.9 3.4 19.3 1.35 22.3 0.4 Q26.55 -1.0 28.45 3.1"/><path fill="#9d147b" stroke="none" d="M35.55 22.3 L28.25 6.1 27.75 4.95 Q26.05 1.25 21.6 2.85 20.8 5.65 18.85 7.6 17.0 9.45 14.2 9.8 11.45 9.95 9.0 8.8 L6.4 7.45 Q1.65 9.1 3.35 12.8 L8.25 23.65 15.0 38.6 15.2 39.0 Q16.8 42.25 20.45 41.1 L21.65 40.55 Q22.7 36.9 25.05 35.5 27.4 34.15 30.2 34.2 33.05 34.2 36.25 36.1 L37.2 35.7 Q41.1 34.5 39.35 30.75 L35.55 22.3 M19.3 1.35 L22.3 0.4 Q26.55 -1.0 28.45 3.1 L41.35 31.7 Q42.95 35.15 40.2 36.7 L38.9 37.25 36.15 38.15 34.0 36.9 33.8 36.8 Q30.65 35.45 27.7 36.35 24.75 37.3 23.7 40.05 L23.6 40.25 Q23.25 41.25 23.25 42.3 L23.2 42.3 20.4 43.2 19.1 43.5 17.3 43.4 Q15.3 42.9 14.2 40.5 L5.45 20.95 1.35 11.8 Q0.4 9.65 1.1 8.3 1.45 7.65 2.15 7.15 2.8 6.7 3.8 6.35 L6.45 5.5 8.5 6.75 8.7 6.85 Q11.9 8.2 14.85 7.25 17.8 6.35 18.85 3.6 L18.9 3.4 19.3 1.35"/><path fill="#c47fad" stroke="none" d="M28.25 6.1 L35.55 22.3 39.35 30.75 Q41.1 34.5 37.2 35.7 L36.25 36.1 Q33.05 34.2 30.2 34.2 27.4 34.15 25.05 35.5 22.7 36.9 21.65 40.55 L20.45 41.1 Q16.8 42.25 15.2 39.0 L15.0 38.6 8.25 23.65 3.35 12.8 Q1.65 9.1 6.4 7.45 L9.0 8.8 Q11.45 9.95 14.2 9.8 17.0 9.45 18.85 7.6 20.8 5.65 21.6 2.85 26.05 1.25 27.75 4.95 L28.25 6.1 M34.0 32.9 L33.7 32.1 Q33.45 30.9 34.1 30.1 34.75 29.3 35.95 29.35 L35.8 29.0 26.5 8.3 26.25 7.85 Q24.9 5.45 22.05 6.35 19.75 11.1 14.85 11.65 11.45 11.85 9.1 10.55 L9.55 11.6 Q9.8 12.8 9.15 13.6 8.4 14.45 7.1 14.4 L6.8 14.4 6.95 14.6 16.3 35.2 Q16.8 36.4 17.65 37.0 18.8 37.8 19.8 37.35 21.8 33.7 25.95 32.3 30.35 30.8 34.0 32.9"/><path fill="#fcf2cf" stroke="none" d="M22.05 6.35 Q24.9 5.45 26.25 7.85 L26.5 8.3 35.8 29.0 35.95 29.35 Q34.75 29.3 34.1 30.1 33.45 30.9 33.7 32.1 L34.0 32.9 Q30.35 30.8 25.95 32.3 21.8 33.7 19.8 37.35 18.8 37.8 17.65 37.0 16.8 36.4 16.3 35.2 L6.95 14.6 6.8 14.4 7.1 14.4 Q8.4 14.45 9.15 13.6 9.8 12.8 9.55 11.6 L9.1 10.55 Q11.45 11.85 14.85 11.65 19.75 11.1 22.05 6.35"/><path fill="#300525" stroke="none" d="M40.2 36.7 Q39.5 37.3 38.3 37.65 L36.35 38.3 36.15 38.15 38.9 37.25 40.2 36.7 M23.25 42.3 L23.25 42.35 23.2 42.3 23.25 42.3 M20.1 43.55 L19.8 43.65 Q17.15 44.45 15.5 43.3 L17.3 43.4 19.1 43.5 20.1 43.55 M4.6 20.9 L0.7 12.25 Q-0.45 9.75 0.75 8.25 L1.1 8.3 Q0.4 9.65 1.35 11.8 L5.45 20.95 4.6 20.9"/><path fill="#630a4c" stroke="none" d="M23.25 42.35 L23.25 42.55 20.1 43.55 19.1 43.5 20.4 43.2 23.2 42.3 23.25 42.35 M15.5 43.3 Q14.35 42.55 13.65 40.9 L4.6 20.9 5.45 20.95 14.2 40.5 Q15.3 42.9 17.3 43.4 L15.5 43.3 M0.75 8.25 Q1.2 7.6 2.15 7.15 1.45 7.65 1.1 8.3 L0.75 8.25"/><path fill="none" stroke="#bf9900" stroke-width="1.0" stroke-opacity="0.749019607843" d="M28.25 6.1 L35.55 22.3 M15.0 38.6 L8.25 23.65"/><path fill="none" stroke="#000000" stroke-width="0.5" stroke-opacity="0.301960784314" d="M19.3 1.35 L22.3 0.4 Q26.55 -1.0 28.45 3.1 L41.35 31.7 Q42.95 35.15 40.2 36.7 39.5 37.3 38.3 37.65 L36.35 38.3 M23.25 42.55 L20.1 43.55 19.8 43.65 Q17.15 44.45 15.5 43.3 14.35 42.55 13.65 40.9 L4.6 20.9 0.7 12.25 Q-0.45 9.75 0.75 8.25 1.2 7.6 2.15 7.15 2.8 6.7 3.8 6.35 L6.45 5.5 M1.1 8.3 Q1.45 7.65 2.15 7.15 M5.45 20.95 L1.35 11.8 Q0.4 9.65 1.1 8.3 M17.3 43.4 Q15.3 42.9 14.2 40.5 L5.45 20.95 M19.1 43.5 L17.3 43.4 M23.2 42.3 L20.4 43.2 19.1 43.5 M23.25 42.3 L23.2 42.3 M40.2 36.7 L38.9 37.25 36.15 38.15"/><path fill="none" stroke="#ffcc00" stroke-width="1.0" stroke-opacity="0.749019607843" d="M35.55 22.3 L39.35 30.75 Q41.1 34.5 37.2 35.7 L36.25 36.1 M21.65 40.55 L20.45 41.1 Q16.8 42.25 15.2 39.0 L15.0 38.6 M8.25 23.65 L3.35 12.8 Q1.65 9.1 6.4 7.45 M21.6 2.85 Q26.05 1.25 27.75 4.95 L28.25 6.1"/><path fill="none" stroke="#f0b92b" stroke-width="0.5" d="M22.05 6.35 Q24.9 5.45 26.25 7.85 L26.5 8.3 35.8 29.0 35.95 29.35 Q34.75 29.3 34.1 30.1 33.45 30.9 33.7 32.1 L34.0 32.9 M19.8 37.35 Q18.8 37.8 17.65 37.0 16.8 36.4 16.3 35.2 L6.95 14.6 6.8 14.4 7.1 14.4 Q8.4 14.45 9.15 13.6 9.8 12.8 9.55 11.6 L9.1 10.55"/><path fill="none" stroke="#ffaa00" stroke-width="1.0" stroke-opacity="0.749019607843" d="M36.25 36.1 Q33.05 34.2 30.2 34.2 27.4 34.15 25.05 35.5 22.7 36.9 21.65 40.55 M6.4 7.45 L9.0 8.8 Q11.45 9.95 14.2 9.8 17.0 9.45 18.85 7.6 20.8 5.65 21.6 2.85"/><path fill="none" stroke="#ffaa00" stroke-width="0.5" stroke-opacity="0.749019607843" d="M34.0 32.9 Q30.35 30.8 25.95 32.3 21.8 33.7 19.8 37.35 M9.1 10.55 Q11.45 11.85 14.85 11.65 19.75 11.1 22.05 6.35"/></g><g id="c3"><path fill="#7fdbfe" stroke="none" d="M10.75 4.9 Q10.75 4.6 10.9 4.35 11.25 3.45 11.95 2.75 13.3 1.5 14.35 2.1 15.4 2.7 14.95 4.45 14.7 5.4 14.1 6.15 L13.75 6.5 Q13.1 7.15 12.35 7.35 L11.4 7.2 Q10.95 6.9 10.75 6.4 10.5 5.75 10.75 4.9 M9.3 1.7 Q9.55 2.65 9.4 3.6 L9.3 4.15 8.5 5.5 7.6 5.9 7.5 5.9 Q7.0 5.85 6.6 5.5 6.05 5.0 5.8 4.15 L5.7 3.6 Q5.55 2.65 5.8 1.7 6.25 0.0 7.5 0.0 L7.6 0.0 Q8.85 0.0 9.3 1.7 M0.15 4.45 Q-0.3 2.7 0.75 2.1 1.8 1.5 3.15 2.75 3.85 3.45 4.2 4.35 L4.35 4.9 Q4.6 5.75 4.35 6.4 L3.7 7.2 2.75 7.35 Q2.0 7.15 1.35 6.5 L1.0 6.15 Q0.4 5.4 0.15 4.45 M7.55 7.0 Q8.75 6.9 9.9 7.6 11.45 8.5 11.95 10.25 12.35 12.0 11.5 12.95 10.7 13.9 9.65 13.7 8.55 13.5 7.55 12.6 6.55 13.5 5.5 13.7 4.45 13.9 3.65 12.95 2.75 12.0 3.2 10.25 3.7 8.5 5.25 7.6 6.4 6.9 7.55 7.0"/></g><g id="c4"><g><use transform="matrix(1.0,0.0,0.0,1.0,0.0,0.0)" xlink:href="#c3"/></g></g><radialGradient gradientUnits="userSpaceOnUse" r="819.2" cx="0" cy="0" spreadMethod="pad" gradientTransform="matrix(0.0914459228516,0.0,0.0,0.0914459228516,0.6,3.4)" id="gradient1"><stop offset="0.0" stop-color="#ffffff"/><stop offset="1.0" stop-color="#ffffff" stop-opacity="0.0"/></radialGradient><g id="c5"><path stroke="none" fill="url(#gradient1)" d="M36.65 -54.65 Q60.05 -42.0 69.75 -17.95 80.55 8.9 68.0 34.1 55.45 59.35 26.8 68.2 -1.8 77.05 -29.7 64.3 -57.6 51.6 -68.45 24.75 -79.3 -2.05 -66.75 -27.25 L-66.7 -27.3 Q-54.1 -52.5 -25.5 -61.4 3.1 -70.2 31.0 -57.5 L36.65 -54.65"/></g><g id="c6"><g><use transform="matrix(1.0,0.0,0.0,1.0,0.0,0.0)" xlink:href="#c5"/></g></g><radialGradient gradientUnits="userSpaceOnUse" r="819.2" cx="0" cy="0" spreadMethod="pad" gradientTransform="matrix(0.209197998047,0.0,0.0,0.177108764648,67.15,107.2)" id="gradient2"><stop offset="0.356862745098" stop-color="#ffffff"/><stop offset="0.670588235294" stop-opacity="0.0"/></radialGradient><g id="c7"><path fill="none" stroke-linejoin="round" stroke-linecap="round" stroke="url(#gradient2)" stroke-width="0.5" d="M136.55 165.8 L68.6 106.0 68.4 106.0 118.25 201.5 M68.3 105.8 L68.35 105.8 68.3 105.8 68.3 105.85 68.4 106.0 68.3 106.0 86.55 211.5 M68.3 105.8 L68.3 105.85 68.3 106.0 68.15 105.95 18.25 151.55 M68.3 105.85 L68.25 105.85 68.3 106.0 50.0 193.2 M68.25 105.85 L68.15 105.95 0.05 97.7 M68.3 105.85 L68.25 105.8 68.25 105.85 M68.25 105.8 L68.2 105.7 0.0 45.7 M68.3 105.8 L68.25 105.75 68.25 105.8 M68.25 105.75 L68.2 105.7 18.25 10.05 M68.6 106.0 L68.35 105.8 118.25 60.15 M86.6 18.35 L68.3 105.8 M136.6 114.25 L68.6 106.0 M68.25 105.75 L49.95 0.05"/></g><g id="c8"><g><use transform="matrix(1.0,0.0,0.0,1.0,0.0,0.0)" xlink:href="#c7"/></g></g><g id="c9"><g><use transform="matrix(1.0,0.0,0.0,1.0,0.0,0.0)" xlink:href="#c2"/></g><g><use transform="matrix(0.238861083984,-0.0867004394531,0.10026550293,0.233917236328,34.25,31.15)" xlink:href="#c4"/></g><g><use transform="matrix(0.238861083984,-0.0867004394531,0.10026550293,0.233917236328,4.25,10.3)" xlink:href="#c4"/></g><g><use transform="matrix(0.141098022461,-0.0378112792969,0.111373901367,0.225646972656,20.25,20.65)" filter="url(#filter7)" xlink:href="#c6"/></g><g><use transform="matrix(-0.155029296875,0.0513153076172,0.0841827392578,0.147033691406,22.6,3.15)" filter="url(#filter8)" xlink:href="#c8"/></g></g><filter id="filter7"><feColorMatrix in="SourceGraphic" type="matrix" values="0.0 0.0 0.0 0.0 0.796875 0.0 0.0 0.0 0.0 0.59765625 0.0 0.0 0.0 0.0 0.19921875 0.0 0.0 0.0 1.0 0.0" result="cxform"/><feComposite operator="in" in2="SourceGraphic" result="color-xform"/></filter><filter id="filter8"><feColorMatrix in="SourceGraphic" type="matrix" values="0.0 0.0 0.0 0.0 0.99609375 0.0 0.0 0.0 0.0 0.99609375 0.0 0.0 0.0 0.0 0.99609375 0.0 0.0 0.0 1.0 0.0" result="cxform"/><feComposite operator="in" in2="SourceGraphic" result="color-xform"/></filter><linearGradient gradientUnits="userSpaceOnUse" x1="-819.2" x2="819.2" spreadMethod="pad" gradientTransform="matrix(-0.00091552734375,0.000152587890625,0.000289916992188,0.00178527832031,7.75,0.3)" id="gradient3"><stop offset="0.0666666666667" stop-color="#59be3a" stop-opacity="0.701960784314"/><stop offset="0.513725490196" stop-color="#baf57c" stop-opacity="0.701960784314"/><stop offset="1.0" stop-color="#d2f4d6" stop-opacity="0.650980392157"/></linearGradient><linearGradient gradientUnits="userSpaceOnUse" x1="-819.2" x2="819.2" spreadMethod="pad" gradientTransform="matrix(-0.00199890136719,-0.000762939453125,-0.00106811523438,0.00279235839844,7.7,4.4)" id="gradient4"><stop offset="0.0666666666667" stop-color="#ff0b0b" stop-opacity="0.701960784314"/><stop offset="0.513725490196" stop-color="#f56b58" stop-opacity="0.701960784314"/><stop offset="1.0" stop-color="#fbe7d9" stop-opacity="0.650980392157"/></linearGradient><linearGradient gradientUnits="userSpaceOnUse" x1="-819.2" x2="819.2" spreadMethod="pad" gradientTransform="matrix(-0.000152587890625,-0.000778198242188,-0.000946044921875,0.000198364257812,10.65,2.05)" id="gradient5"><stop offset="0.0666666666667" stop-color="#e6ba73" stop-opacity="0.701960784314"/><stop offset="0.505882352941" stop-color="#f8ddb1" stop-opacity="0.701960784314"/><stop offset="1.0" stop-color="#fef4e0" stop-opacity="0.650980392157"/></linearGradient><radialGradient gradientUnits="userSpaceOnUse" r="819.2" cx="0" cy="0" spreadMethod="pad" gradientTransform="matrix(-0.0105285644531,0.00607299804688,0.00607299804688,0.0105285644531,13.2,5.15)" id="gradient6"><stop offset="0.0666666666667" stop-color="#65d8f3" stop-opacity="0.701960784314"/><stop offset="0.454901960784" stop-color="#87d6f2" stop-opacity="0.701960784314"/><stop offset="0.952941176471" stop-color="#eff9fc" stop-opacity="0.650980392157"/></radialGradient><g id="c10"><path fill="#336966" fill-opacity="0.701960784314" d="M8.55 -0.2 L8.9 -0.15 9.1 0.2 9.0 0.55 8.65 0.75 8.35 0.65 8.15 0.3 Q8.1 0.1 8.2 -0.05 L8.55 -0.2"/><path fill="#336966" fill-opacity="0.701960784314" d="M7.65 -0.25 L7.65 -0.1 7.5 -0.1 7.4 -0.1 7.35 -0.2 7.35 -0.3 7.45 -0.4 7.55 -0.3 7.65 -0.25"/><path fill="#336966" fill-opacity="0.701960784314" d="M7.2 0.5 L7.2 0.65 7.05 0.65 6.95 0.65 6.9 0.55 6.9 0.45 7.0 0.35 7.1 0.45 7.2 0.5"/><path stroke="none" fill="url(#gradient3)" d="M6.8 -0.9 Q7.3 -1.3 7.9 -1.15 L8.85 -0.45 Q9.2 0.0 9.05 0.6 8.9 1.2 8.4 1.6 L7.3 1.75 6.35 1.15 Q6.0 0.6 6.15 0.0 6.3 -0.6 6.8 -0.9"/><path fill="none" stroke="#2e5c1d" stroke-width="0.5" stroke-opacity="0.8" d="M6.8 -0.9 Q6.3 -0.6 6.15 0.0 6.0 0.6 6.35 1.15 L7.3 1.75 8.4 1.6 Q8.9 1.2 9.05 0.6 9.2 0.0 8.85 -0.45 L7.9 -1.15 Q7.3 -1.3 6.8 -0.9"/><path fill="#ffffff" fill-opacity="0.6" d="M8.15 -1.1 L8.35 -1.0 8.15 -0.8 7.75 -0.6 7.35 -0.55 Q7.15 -0.55 7.1 -0.65 L7.25 -0.85 7.7 -1.05 8.15 -1.1"/><path fill="#336966" fill-opacity="0.701960784314" d="M9.7 6.05 Q9.5 6.35 9.1 6.35 L8.55 6.15 8.3 5.6 Q8.25 5.25 8.45 5.0 8.7 4.7 9.05 4.7 L9.65 4.9 9.9 5.5 9.7 6.05"/><path fill="#336966" fill-opacity="0.701960784314" d="M8.6 4.1 L8.4 4.2 8.2 4.1 8.1 3.95 8.2 3.75 8.35 3.65 8.55 3.7 8.6 3.9 8.6 4.1"/><path fill="#336966" fill-opacity="0.701960784314" d="M7.25 4.15 L7.05 4.25 6.85 4.15 6.75 4.0 6.85 3.8 7.0 3.7 7.2 3.75 7.25 3.95 7.25 4.15"/><path stroke="none" fill="url(#gradient4)" d="M10.3 5.15 Q10.05 6.15 9.2 6.65 L7.3 6.85 Q6.3 6.6 5.8 5.75 5.3 4.9 5.6 3.85 5.85 2.85 6.75 2.4 7.55 1.85 8.6 2.15 9.6 2.4 10.05 3.3 10.6 4.1 10.3 5.15"/><path fill="none" stroke="#d61a10" stroke-width="0.5" stroke-opacity="0.8" d="M10.3 5.15 Q10.6 4.1 10.05 3.3 9.6 2.4 8.6 2.15 7.55 1.85 6.75 2.4 5.85 2.85 5.6 3.85 5.3 4.9 5.8 5.75 6.3 6.6 7.3 6.85 L9.2 6.65 Q10.05 6.15 10.3 5.15"/><path fill="#ffffff" fill-opacity="0.6" d="M10.15 3.5 L10.3 3.85 9.85 3.9 9.15 3.6 8.6 3.15 Q8.4 2.9 8.5 2.75 L8.9 2.7 Q9.25 2.8 9.65 3.05 L10.15 3.5"/><path fill="#336966" fill-opacity="0.701960784314" d="M10.5 2.65 L10.3 2.55 10.25 2.35 10.35 2.2 10.55 2.1 10.7 2.25 10.8 2.4 10.65 2.6 10.5 2.65"/><path fill="#336966" fill-opacity="0.701960784314" d="M10.85 2.0 L10.8 2.05 10.7 1.95 10.7 1.9 10.8 1.85 10.85 1.9 10.85 1.95 10.85 2.0"/><path fill="#336966" fill-opacity="0.701960784314" d="M10.5 1.6 L10.45 1.65 10.35 1.55 10.35 1.5 10.45 1.45 10.5 1.5 10.5 1.55 10.5 1.6"/><path stroke="none" fill="url(#gradient5)" d="M9.95 2.35 L9.95 1.75 10.4 1.35 11.0 1.35 11.4 1.8 11.4 2.4 10.95 2.8 10.35 2.8 9.95 2.35"/><path fill="none" stroke="#c7812c" stroke-width="0.5" stroke-opacity="0.8" d="M9.95 2.35 L10.35 2.8 10.95 2.8 11.4 2.4 11.4 1.8 11.0 1.35 10.4 1.35 9.95 1.75 9.95 2.35"/><path fill="#336966" fill-opacity="0.701960784314" d="M11.8 6.0 Q11.35 6.55 10.7 6.6 L9.55 6.2 Q9.05 5.75 9.0 5.1 8.95 4.4 9.4 3.95 9.8 3.4 10.45 3.35 11.15 3.3 11.65 3.75 12.15 4.2 12.2 4.85 12.25 5.5 11.8 6.0"/><path fill="#336966" fill-opacity="0.701960784314" d="M9.7 2.0 L9.35 2.2 8.95 2.0 8.8 1.7 Q8.8 1.45 8.95 1.35 L9.3 1.15 Q9.5 1.1 9.6 1.3 L9.8 1.6 9.7 2.0"/><path fill="#336966" fill-opacity="0.701960784314" d="M6.8 2.25 L6.45 2.45 6.05 2.25 5.9 1.95 Q5.9 1.7 6.05 1.6 L6.4 1.4 Q6.6 1.35 6.7 1.55 L6.9 1.85 6.8 2.25"/><path stroke="none" fill="url(#gradient6)" d="M6.2 -0.9 Q7.9 -1.95 9.8 -1.35 11.8 -0.9 12.75 0.9 13.8 2.55 13.25 4.55 12.75 6.5 11.05 7.5 9.3 8.5 7.35 7.95 5.35 7.4 4.35 5.7 3.35 3.95 3.9 2.05 4.45 0.05 6.2 -0.9"/><path fill="none" stroke="#399fb0" stroke-width="1.0" stroke-opacity="0.6" d="M6.2 -0.9 Q4.45 0.05 3.9 2.05 3.35 3.95 4.35 5.7 5.35 7.4 7.35 7.95 9.3 8.5 11.05 7.5 12.75 6.5 13.25 4.55 13.8 2.55 12.75 0.9 11.8 -0.9 9.8 -1.35 7.9 -1.95 6.2 -0.9"/><path fill="#ffffff" fill-opacity="0.6" d="M9.2 -0.45 L10.0 -0.55 11.4 0.1 Q12.1 0.5 12.55 1.0 12.85 1.45 12.65 1.7 L11.85 1.8 10.45 1.2 9.35 0.25 Q8.95 -0.2 9.2 -0.45"/></g><radialGradient gradientUnits="userSpaceOnUse" r="819.2" cx="0" cy="0" spreadMethod="pad" gradientTransform="matrix(0.0161743164062,0.0,0.0,0.0161743164062,12.65,12.65)" id="gradient7"><stop offset="0.0078431372549" stop-color="#9ff8fa"/><stop offset="1.0" stop-color="#9ffae0" stop-opacity="0.0"/></radialGradient><g id="c11"><path stroke="none" fill="url(#gradient7)" d="M21.6 21.6 Q17.9 25.3 12.65 25.3 7.4 25.3 3.7 21.6 0.0 17.9 0.0 12.65 0.0 7.4 3.7 3.7 7.4 0.0 12.65 0.0 17.9 0.0 21.6 3.7 25.3 7.4 25.3 12.65 25.3 17.9 21.6 21.6"/></g><g id="c12"><g><use transform="matrix(1.0,0.0,0.0,1.0,0.0,0.0)" xlink:href="#c11"/></g></g><g id="c13"><path fill="#fff4e6" stroke="none" d="M8.25 -0.05 L9.15 -0.25 9.85 0.35 Q10.1 0.75 10.0 1.2 L9.4 1.95 8.55 2.05 7.85 1.5 Q7.6 1.05 7.7 0.6 7.8 0.2 8.25 -0.05"/><path fill="#736b61" stroke="none" d="M13.25 3.9 L13.7 4.9 13.75 5.85 13.75 5.9 13.55 6.35 12.85 8.5 12.9 7.45 12.8 7.15 12.45 6.4 13.25 3.9"/><path fill="#80776c" stroke="none" d="M13.25 3.9 L12.45 6.4 12.4 6.45 Q11.8 5.45 10.65 4.65 9.4 3.75 8.0 3.3 L8.85 0.8 Q10.25 1.25 11.45 2.1 L13.25 3.9"/><path fill="#d6cabc" stroke="none" d="M12.45 6.4 L12.8 7.15 12.9 7.45 12.85 8.5 12.8 8.5 12.85 8.6 12.8 8.75 11.8 9.85 11.7 9.95 Q10.35 10.65 8.1 10.35 5.85 10.1 3.95 8.75 2.05 7.45 1.75 5.9 L1.7 4.85 1.85 4.55 Q2.05 4.05 2.6 3.6 L2.75 3.55 2.8 3.5 Q4.2 2.7 6.5 3.0 L8.0 3.3 Q9.4 3.75 10.65 4.65 11.8 5.45 12.4 6.45 L12.45 6.4 M2.9 4.85 L2.85 5.05 2.7 5.3 2.75 6.1 Q2.75 6.55 3.1 6.95 L4.5 8.4 Q6.0 9.45 7.85 9.65 9.7 9.9 10.8 9.25 L11.65 8.4 11.65 8.25 11.7 7.95 11.6 7.4 11.6 7.2 Q11.15 6.05 9.9 5.05 8.35 4.05 6.5 3.8 5.5 3.65 4.65 3.8 L3.7 4.15 3.5 4.15 3.45 4.3 2.9 4.85"/><path fill="#8f8679" stroke="none" d="M11.7 7.95 L11.65 8.25 11.65 8.4 10.8 9.25 Q9.7 9.9 7.85 9.65 6.0 9.45 4.5 8.4 L3.1 6.95 Q2.75 6.55 2.75 6.1 L2.7 5.3 2.85 5.05 2.9 4.85 2.95 5.5 3.3 6.35 Q3.75 7.1 4.7 7.75 6.25 8.75 8.1 9.0 9.9 9.3 10.95 8.55 L11.7 7.95"/><path fill="#ccc0b3" stroke="none" d="M2.9 4.85 L3.45 4.3 3.5 4.15 3.7 4.15 4.65 3.8 Q5.5 3.65 6.5 3.8 8.35 4.05 9.9 5.05 11.15 6.05 11.6 7.2 L11.6 7.4 11.7 7.95 10.95 8.55 Q9.9 9.3 8.1 9.0 6.25 8.75 4.7 7.75 3.75 7.1 3.3 6.35 L2.95 5.5 2.9 4.85"/><path fill="#998f82" stroke="none" d="M3.65 1.05 Q5.05 0.15 7.3 0.5 L8.85 0.8 8.0 3.3 6.5 3.0 Q4.2 2.7 2.8 3.5 L3.65 1.05"/><path fill="#b3a798" stroke="none" d="M1.85 4.55 L2.6 2.2 2.6 2.1 Q2.85 1.45 3.6 1.0 L3.65 1.05 2.8 3.5 2.75 3.55 2.6 3.6 Q2.05 4.05 1.85 4.55"/></g><linearGradient gradientUnits="userSpaceOnUse" x1="-819.2" x2="819.2" spreadMethod="pad" gradientTransform="matrix(0.0150756835938,0.0,0.0,0.00527954101562,29.75,2.95)" id="gradient8"><stop offset="0.0" stop-color="#a89d8e"/><stop offset="1.0" stop-color="#a89d8e" stop-opacity="0.0"/></linearGradient><g id="c14"><path stroke="none" fill="url(#gradient8)" d="M25.05 -0.95 L34.45 -0.6 Q39.2 0.65 41.1 3.4 42.1 4.85 42.1 6.25 L42.05 6.6 41.9 7.3 Q41.7 6.25 40.95 5.15 39.05 2.4 34.3 1.15 L24.9 0.8 Q21.85 1.4 19.95 2.75 18.9 3.4 18.25 4.35 17.7 5.05 17.45 5.8 L17.4 5.2 17.45 4.5 Q17.65 3.55 18.4 2.6 19.05 1.65 20.1 1.0 22.0 -0.35 25.05 -0.95"/></g><g id="c15"><g><use transform="matrix(1.0,0.0,0.0,1.0,0.0,0.0)" xlink:href="#c14"/></g></g><linearGradient gradientUnits="userSpaceOnUse" x1="-819.2" x2="819.2" spreadMethod="pad" gradientTransform="matrix(-0.0206146240234,0.00091552734375,-0.00213623046875,-0.0492248535156,2.35,0.4)" id="gradient9"><stop offset="0.0" stop-color="#a89d8e"/><stop offset="1.0" stop-color="#a89d8e" stop-opacity="0.0"/></linearGradient><g id="c16"><path stroke="none" fill="url(#gradient9)" d="M12.35 -1.6 L12.45 -1.65 14.1 -3.15 14.55 -3.65 Q15.55 -4.95 15.75 -6.3 L15.1 -0.35 15.0 0.8 14.95 1.0 Q14.65 2.05 13.8 3.1 12.95 4.2 11.75 5.1 9.35 6.75 5.45 7.55 L-2.2 7.9 -6.25 7.1 Q-12.1 5.5 -14.55 2.15 L-14.6 2.1 Q-15.9 0.3 -15.75 -1.5 L-15.75 -1.75 -15.05 -8.05 Q-15.05 -6.6 -14.15 -5.05 L-13.9 -4.65 -13.85 -4.55 Q-11.35 -1.25 -5.55 0.35 L-1.5 1.15 6.2 0.8 Q10.0 0.05 12.35 -1.6"/></g><g id="c17"><g><use transform="matrix(1.0,0.0,0.0,1.0,0.0,0.0)" xlink:href="#c16"/></g></g><linearGradient gradientUnits="userSpaceOnUse" x1="-819.2" x2="819.2" spreadMethod="pad" gradientTransform="matrix(0.009521484375,0.0054931640625,-0.00364685058594,0.00631713867188,0.05,0.0)" id="gradient10"><stop offset="0.0" stop-color="#ffffff"/><stop offset="1.0" stop-color="#ffffff" stop-opacity="0.0"/></linearGradient><g id="c18"><path fill="none" stroke-linejoin="round" stroke-linecap="round" stroke="url(#gradient10)" stroke-width="0.5" d="M6.25 -3.6 L5.6 -4.15 4.6 -4.8 Q2.5 -5.95 -0.15 -5.95 -4.05 -5.95 -6.75 -3.4 L-7.8 -2.25 -8.7 -0.7 -8.65 -0.7 -8.9 -0.1 -8.9 0.1 -9.0 1.1 -9.0 1.25 -8.85 1.8 Q-8.35 3.2 -6.4 4.35 L-5.9 4.6 -4.65 5.15 -4.6 5.15 -1.4 5.9 0.0 6.0 2.6 5.85 3.9 5.6 6.35 4.7 Q8.05 3.85 8.65 2.7 L9.0 1.25 8.95 0.8 8.9 0.45 8.8 0.2 8.7 -0.05 8.55 -0.35 8.6 -0.35 8.05 -1.45 6.5 -3.4 6.25 -3.6"/></g><g id="c19"><g><use transform="matrix(1.0,0.0,0.0,1.0,0.0,0.0)" xlink:href="#c18"/></g></g><g id="c20"><path fill="#029cc1" stroke="none" d="M6.5 -3.4 L8.05 -1.45 8.6 -0.35 8.55 -0.35 8.7 -0.05 8.8 0.2 8.9 0.45 8.95 0.8 9.0 1.25 8.65 2.7 Q8.05 3.85 6.35 4.7 L3.9 5.6 2.6 5.85 0.0 6.0 -1.4 5.9 -4.6 5.15 -4.65 5.15 -5.9 4.6 -6.4 4.35 Q-8.35 3.2 -8.85 1.8 L-9.0 1.25 -9.0 1.1 -8.9 0.1 -8.9 -0.1 -8.65 -0.7 -8.7 -0.7 -7.8 -2.25 -6.75 -3.4 Q-4.05 -5.95 -0.15 -5.95 2.5 -5.95 4.6 -4.8 L5.6 -4.15 6.25 -3.6 6.5 -3.4"/></g><g id="c21"><g><use transform="matrix(1.0,0.0,0.0,1.0,0.0,0.0)" xlink:href="#c20"/></g></g><g id="c22"><path fill="#b4f0fe" stroke="none" d="M8.55 -0.35 Q7.9 -1.4 6.35 -2.35 L6.05 -2.5 5.85 -2.6 4.65 -3.15 3.25 -3.55 0.0 -3.9 -1.4 -3.9 Q-4.25 -3.85 -6.4 -2.7 -8.05 -1.85 -8.65 -0.7 L-8.7 -0.7 -7.8 -2.25 -6.75 -3.4 Q-4.05 -5.95 -0.15 -5.95 2.5 -5.95 4.6 -4.8 L5.6 -4.15 6.25 -3.6 6.5 -3.4 8.05 -1.45 8.6 -0.35 8.55 -0.35"/><path fill="#78e3fe" stroke="none" d="M-8.65 -0.7 Q-8.05 -1.85 -6.4 -2.7 -4.25 -3.85 -1.4 -3.9 L0.0 -3.9 3.25 -3.55 4.65 -3.15 5.85 -2.6 6.05 -2.5 6.35 -2.35 Q7.9 -1.4 8.55 -0.35 L8.7 -0.05 8.8 0.2 8.9 0.45 8.95 0.8 9.0 1.25 8.65 2.7 Q8.05 3.85 6.35 4.7 L3.9 5.6 2.6 5.85 0.0 6.0 -1.4 5.9 -4.6 5.15 -4.65 5.15 -5.9 4.6 -6.4 4.35 Q-8.35 3.2 -8.85 1.8 L-9.0 1.25 -9.0 1.1 -8.9 0.1 -8.9 -0.1 -8.65 -0.7"/><path fill="#8f887f" stroke="none" d="M8.55 -0.35 L8.6 -0.35 8.05 -1.45 9.25 -0.15 9.4 0.2 9.5 0.45 9.6 0.7 9.65 1.1 9.7 1.6 9.35 3.15 Q8.7 4.4 6.85 5.35 L4.2 6.3 2.75 6.6 -0.05 6.75 -1.55 6.65 Q-4.65 6.25 -7.0 4.95 L-7.9 4.35 -8.3 4.05 Q-9.3 3.15 -9.65 2.2 L-9.8 1.6 -9.8 1.4 -9.7 0.35 -9.7 0.1 -9.45 -0.55 Q-8.95 -1.5 -7.8 -2.25 L-8.7 -0.7 -8.65 -0.7 -8.9 -0.1 -8.9 0.1 -9.0 1.1 -9.0 1.25 -8.85 1.8 Q-8.35 3.2 -6.4 4.35 L-5.9 4.6 -4.65 5.15 -4.6 5.15 -1.4 5.9 0.0 6.0 2.6 5.85 3.9 5.6 6.35 4.7 Q8.05 3.85 8.65 2.7 L9.0 1.25 8.95 0.8 8.9 0.45 8.8 0.2 8.7 -0.05 8.55 -0.35"/></g><g id="c23"><g><use transform="matrix(1.0,0.0,0.0,1.0,0.0,0.0)" xlink:href="#c22"/></g></g><g id="c24"><path fill="none" stroke="#382510" stroke-width="0.5" stroke-opacity="0.301960784314" d="M11.7 2.3 L13.25 3.9 13.7 4.95 13.8 5.85 13.75 5.95 13.75 6.0 13.65 6.15 13.6 6.35 12.85 8.55 12.85 8.6 12.8 8.75 Q12.55 9.4 11.8 9.85 L11.75 9.95 10.6 10.3 9.85 10.7 9.65 10.75 9.15 10.95 8.45 11.05 Q7.0 11.2 5.6 10.55 3.5 9.65 2.65 7.6 1.95 6.85 1.8 5.95 L1.75 4.9 1.8 4.6 2.6 2.25 2.6 2.2 2.65 2.1 2.8 1.85 3.6 1.05 Q5.0 0.2 7.3 0.55 L8.85 0.85 Q10.25 1.3 11.5 2.1 L11.7 2.3 M2.65 7.6 L2.35 6.75 2.3 5.7 2.3 5.65 2.3 5.35 2.4 5.2 2.55 4.65 2.6 4.55 2.8 4.3 Q3.4 3.65 4.75 3.45 L5.1 3.45 5.9 3.4 5.95 3.45 7.85 3.75 8.6 4.05 9.95 4.7 10.65 5.15 11.75 6.25 Q12.4 7.05 12.45 7.9 L12.3 8.7 12.15 8.95 12.05 9.15 11.95 9.25 11.85 9.4 11.7 9.5 11.15 10.0 10.6 10.3"/><path fill="#48706b" stroke="none" d="M8.8 7.1 Q9.35 7.65 9.15 8.25 9.0 8.85 8.25 9.1 L6.65 9.05 5.25 8.25 Q4.75 7.7 4.9 7.1 5.1 6.5 5.8 6.25 L7.4 6.2 Q8.3 6.45 8.8 7.1"/><path fill="none" stroke="#382510" stroke-width="1.0" stroke-opacity="0.301960784314" d="M8.8 7.1 Q9.35 7.65 9.15 8.25 9.0 8.85 8.25 9.1 L6.65 9.05 5.25 8.25 Q4.75 7.7 4.9 7.1 5.1 6.5 5.8 6.25 L7.4 6.2 Q8.3 6.45 8.8 7.1"/><path fill="#48706b" stroke="none" d="M6.75 11.45 L6.95 11.45 8.0 11.75 7.55 12.3 7.3 13.7 6.65 13.6 6.65 13.55 6.4 13.55 6.35 13.4 6.75 11.45 M6.4 17.3 L6.0 17.3 5.65 17.25 6.15 14.75 6.35 14.5 7.9 15.0 6.95 15.85 6.5 17.0 6.4 17.3"/><path fill="#80aba6" stroke="none" d="M7.3 13.7 L7.55 12.3 8.0 11.75 8.45 12.0 8.3 12.9 7.3 13.7 M7.9 15.0 L8.35 15.15 8.3 16.0 6.5 17.0 6.95 15.85 7.9 15.0"/><path fill="#b5ccc9" stroke="none" d="M8.3 12.9 L8.2 13.45 7.95 13.65 7.3 13.7 8.3 12.9 M8.3 16.0 L7.95 17.05 7.65 17.35 6.4 17.3 6.5 17.0 8.3 16.0"/><path fill="none" stroke="#382510" stroke-width="0.5" stroke-opacity="0.301960784314" d="M8.0 11.75 L6.95 11.45 6.75 11.45 M6.65 13.6 L7.3 13.7 M8.0 11.75 L8.45 12.0 8.3 12.9 8.2 13.45 7.95 13.65 7.3 13.7 M7.9 15.0 L8.35 15.15 8.3 16.0 7.95 17.05 7.65 17.35 6.4 17.3 6.0 17.3 5.65 17.25 M6.15 14.75 L6.35 14.5 7.9 15.0"/><path fill="none" stroke="#382510" stroke-width="1.0" stroke-opacity="0.301960784314" d="M6.4 13.55 L6.65 13.55"/><path fill="#48706b" stroke="none" d="M8.45 8.1 L8.5 8.3 8.05 9.95 7.6 11.75 Q8.0 10.0 7.35 8.85 L6.35 7.1 Q7.75 7.1 8.45 8.1"/><path fill="#80aba6" stroke="none" d="M7.6 11.75 L7.55 11.8 6.9 14.3 6.9 14.4 5.8 18.45 4.65 18.15 6.75 10.2 5.3 7.7 5.45 7.25 6.35 7.1 7.35 8.85 Q8.0 10.0 7.6 11.75"/><path fill="#b5ccc9" stroke="none" d="M4.65 18.15 L3.1 17.75 2.9 16.75 5.3 7.7 6.75 10.2 4.65 18.15"/><path fill="none" stroke="#382510" stroke-width="0.5" stroke-opacity="0.301960784314" d="M8.45 8.1 L8.5 8.3 8.05 9.95 7.6 11.75 7.55 11.8 6.9 14.3 6.9 14.4 5.8 18.45 4.65 18.15 3.1 17.75 2.9 16.75 5.3 7.7 5.45 7.25"/><path fill="#ede8de" fill-opacity="0.6" d="M4.25 12.65 L4.6 11.45 5.5 11.65 5.15 12.9 4.25 12.65 M4.5 15.5 L4.2 16.55 3.25 16.35 3.55 15.25 4.5 15.5"/><path fill="#ede8de" stroke="none" d="M5.15 12.9 L4.5 15.5 3.55 15.25 4.25 12.65 5.15 12.9"/><path fill="#fcf3d8" stroke="none" d="M4.2 12.25 L4.55 12.2 4.8 12.4 4.8 12.7 4.6 13.05 4.25 13.05 4.0 12.85 3.95 12.5 Q4.0 12.3 4.2 12.25"/><path fill="#fcf3d8" fill-opacity="0.301960784314" d="M3.7 11.95 Q3.8 11.65 3.5 11.1 L4.2 11.65 4.6 11.7 Q5.05 11.8 5.2 12.1 L5.25 12.8 5.9 13.1 5.2 13.05 4.85 13.4 4.4 13.45 4.25 13.8 4.15 13.45 3.6 13.0 3.55 12.35 3.7 11.95 M4.2 12.25 Q4.0 12.3 3.95 12.5 L4.0 12.85 4.25 13.05 4.6 13.05 4.8 12.7 4.8 12.4 4.55 12.2 4.2 12.25"/><path fill="#fcf3d8" stroke="none" d="M5.0 11.05 L4.65 12.4 5.4 13.05 4.6 12.8 3.75 14.8 4.25 12.65 1.4 10.85 4.4 12.35 5.0 11.05"/></g><g id="c25"><g><use transform="matrix(1.0,0.0,0.0,1.0,0.0,0.0)" xlink:href="#c10"/></g><g><use transform="matrix(-0.252868652344,0.145980834961,0.145980834961,0.252868652344,10.45,-2.8)" filter="url(#filter16)" xlink:href="#c12"/></g><g><use transform="matrix(1.0,0.0,0.0,1.0,0.0,0.0)" xlink:href="#c13"/></g><g><use transform="matrix(0.349044799805,0.150024414062,0.159225463867,-0.356018066406,-3.95,4.25)" xlink:href="#c15"/></g><g><use transform="matrix(0.349044799805,0.150024414062,0.159225463867,-0.355987548828,8.3,4.0)" xlink:href="#c17"/></g><g><use transform="matrix(0.539489746094,0.231903076172,0.246078491211,-0.550277709961,7.1,7.3)" xlink:href="#c19"/></g><g><use transform="matrix(0.443115234375,0.190460205078,0.202133178711,-0.451995849609,7.05,7.1)" xlink:href="#c21"/></g><g><use transform="matrix(0.349060058594,0.150054931641,0.159225463867,-0.356018066406,7.1,7.0)" xlink:href="#c23"/></g><g><use transform="matrix(1.0,0.0,0.0,1.0,0.0,0.0)" xlink:href="#c24"/></g></g><filter id="filter16"><feColorMatrix in="SourceGraphic" type="matrix" values="1.0 0.0 0.0 0.0 0.0 0.0 1.0 0.0 0.0 0.0 0.0 0.0 1.0 0.0 0.0 0.0 0.0 0.0 0.80078125 0.0" result="cxform"/><feComposite operator="in" in2="SourceGraphic" result="color-xform"/></filter><g id="c26"><g><use transform="matrix(1.0,0.0,0.0,1.0,6.3,53.35)" xlink:href="#c9"/></g><g><use transform="matrix(1.0,0.0,0.0,1.0,19.85,68.2)" xlink:href="#c25"/></g><g><use transform="matrix(0.141098022461,-0.0378112792969,0.111373901367,0.225646972656,27.2,74.05)" filter="url(#filter26)" xlink:href="#c6"/></g></g><filter id="filter26"><feColorMatrix in="SourceGraphic" type="matrix" values="1.0 0.0 0.0 0.0 0.0 0.0 1.0 0.0 0.0 0.0 0.0 0.0 1.0 0.0 0.0 0.0 0.0 0.0 0.23046875 0.0" result="cxform"/><feComposite operator="in" in2="SourceGraphic" result="color-xform"/></filter></defs><g><g><use transform="matrix(1.0,0.0,0.0,1.0,0.0,0.0)" xlink:href="#c1"/></g><g><use transform="matrix(1.15496826172,0.0,0.0,1.15496826172,-1.4,-57.4)" xlink:href="#c26"/></g></g></svg>