<?xml version='1.0' encoding='UTF-8'?>
<svg xmlns:xlink="http://www.w3.org/1999/xlink" xmlns="http://www.w3.org/2000/svg" version="1.1" width="60px" height="60px" viewBox="0.0 0.0 60.0 60.0"><defs><g id="c1"><path fill="#000000" fill-opacity="0.00392156862745" d="M0.0 0.0 L60.0 0.0 60.0 60.0 0.0 60.0 0.0 0.0"/></g><g id="c2"><path fill="none" stroke="#000000" stroke-width="1.0" stroke-opacity="0.301960784314" d="M22.3 0.35 Q26.6 -1.0 28.5 3.05 L41.4 31.7 Q43.1 35.4 39.9 36.85 L38.15 37.65 19.65 43.65 Q17.05 44.5 15.35 43.3 14.2 42.55 13.5 40.9 L0.55 12.25 Q-0.6 9.75 0.6 8.25 1.15 7.55 2.2 7.05 2.85 6.6 3.8 6.3 L22.3 0.35"/><path fill="#300525" stroke="none" d="M25.55 0.9 Q26.9 1.6 27.8 3.55 L40.7 32.15 Q42.6 36.3 38.3 37.65 L23.3 42.5 13.15 21.4 4.6 20.9 0.7 12.25 Q-0.45 9.75 0.75 8.25 L29.8 9.75 25.55 0.9 M20.1 43.55 L19.8 43.65 Q17.15 44.45 15.5 43.3 L20.1 43.55"/><path fill="#630a4c" stroke="none" d="M23.3 42.5 L20.1 43.55 15.5 43.3 Q14.35 42.55 13.65 40.9 L4.6 20.9 13.15 21.4 23.3 42.5 M0.75 8.25 Q1.45 7.3 3.1 6.75 L21.65 0.8 25.55 0.9 29.8 9.75 0.75 8.25"/><path fill="none" stroke="#000000" stroke-width="0.5" stroke-opacity="0.301960784314" d="M25.55 0.9 Q26.9 1.6 27.8 3.55 L40.7 32.15 Q42.6 36.3 38.3 37.65 L23.3 42.5 20.1 43.55 19.8 43.65 Q17.15 44.45 15.5 43.3 14.35 42.55 13.65 40.9 L4.6 20.9 0.7 12.25 Q-0.45 9.75 0.75 8.25 1.45 7.3 3.1 6.75 L21.65 0.8 25.55 0.9"/><path fill="#9d147b" stroke="none" d="M14.2 40.5 L1.35 11.8 Q-0.5 7.75 3.8 6.35 L22.3 0.4 Q26.55 -1.0 28.45 3.1 L41.35 31.7 Q43.25 35.85 38.9 37.25 L20.4 43.2 Q16.1 44.55 14.2 40.5"/><path fill="none" stroke="#000000" stroke-width="0.5" stroke-opacity="0.301960784314" d="M14.2 40.5 L1.35 11.8 Q-0.5 7.75 3.8 6.35 L22.3 0.4 Q26.55 -1.0 28.45 3.1 L41.35 31.7 Q43.25 35.85 38.9 37.25 L20.4 43.2 Q16.1 44.55 14.2 40.5"/><path fill="#fcf2cf" stroke="none" d="M9.15 13.6 Q9.8 12.8 9.55 11.6 L9.1 10.55 22.05 6.35 Q24.9 5.45 26.25 7.85 L26.5 8.3 35.8 29.0 35.95 29.35 Q34.75 29.3 34.1 30.1 33.45 30.9 33.7 32.1 L34.0 32.9 20.65 37.2 Q18.8 37.8 17.65 37.0 16.8 36.4 16.3 35.2 L6.95 14.6 6.8 14.4 7.1 14.4 Q8.4 14.45 9.15 13.6"/><path fill="#c47fad" stroke="none" d="M8.25 23.65 L3.35 12.8 Q1.65 9.1 5.5 7.85 L22.25 2.5 Q26.05 1.25 27.75 4.95 L28.25 6.1 35.55 22.3 39.35 30.75 Q41.1 34.5 37.2 35.7 L20.45 41.1 Q16.8 42.25 15.2 39.0 L15.0 38.6 8.25 23.65 M9.15 13.6 Q8.4 14.45 7.1 14.4 L6.8 14.4 6.95 14.6 16.3 35.2 Q16.8 36.4 17.65 37.0 18.8 37.8 20.65 37.2 L34.0 32.9 33.7 32.1 Q33.45 30.9 34.1 30.1 34.75 29.3 35.95 29.35 L35.8 29.0 26.5 8.3 26.25 7.85 Q24.9 5.45 22.05 6.35 L9.1 10.55 9.55 11.6 Q9.8 12.8 9.15 13.6"/><path fill="none" stroke="#ffcc00" stroke-width="1.0" stroke-opacity="0.749019607843" d="M8.25 23.65 L3.35 12.8 Q1.65 9.1 5.5 7.85 L22.25 2.5 Q26.05 1.25 27.75 4.95 L28.25 6.1 M35.55 22.3 L39.35 30.75 Q41.1 34.5 37.2 35.7 L20.45 41.1 Q16.8 42.25 15.2 39.0 L15.0 38.6"/><path fill="none" stroke="#bf9900" stroke-width="1.0" stroke-opacity="0.749019607843" d="M28.25 6.1 L35.55 22.3 M15.0 38.6 L8.25 23.65"/><path fill="none" stroke="#f0b92b" stroke-width="0.5" d="M9.15 13.6 Q9.8 12.8 9.55 11.6 L9.1 10.55 22.05 6.35 Q24.9 5.45 26.25 7.85 L26.5 8.3 35.8 29.0 35.95 29.35 Q34.75 29.3 34.1 30.1 33.45 30.9 33.7 32.1 L34.0 32.9 20.65 37.2 Q18.8 37.8 17.65 37.0 16.8 36.4 16.3 35.2 L6.95 14.6 6.8 14.4 7.1 14.4 Q8.4 14.45 9.15 13.6"/></g><g id="c3"><path fill="#7fdbfe" stroke="none" d="M10.75 4.9 Q10.75 4.6 10.9 4.35 11.25 3.45 11.95 2.75 13.3 1.5 14.35 2.1 15.4 2.7 14.95 4.45 14.7 5.4 14.1 6.15 L13.75 6.5 Q13.1 7.15 12.35 7.35 L11.4 7.2 Q10.95 6.9 10.75 6.4 10.5 5.75 10.75 4.9 M7.5 5.9 Q7.0 5.85 6.6 5.5 6.05 5.0 5.8 4.15 L5.7 3.6 Q5.55 2.65 5.8 1.7 6.25 0.0 7.5 0.0 L7.6 0.0 Q8.85 0.0 9.3 1.7 9.55 2.65 9.4 3.6 L9.3 4.15 8.5 5.5 7.6 5.9 7.5 5.9 M4.35 4.9 Q4.6 5.75 4.35 6.4 L3.7 7.2 2.75 7.35 Q2.0 7.15 1.35 6.5 L1.0 6.15 Q0.4 5.4 0.15 4.45 -0.3 2.7 0.75 2.1 1.8 1.5 3.15 2.75 3.85 3.45 4.2 4.35 L4.35 4.9 M5.5 13.7 Q4.45 13.9 3.65 12.95 2.75 12.0 3.2 10.25 3.7 8.5 5.25 7.6 6.4 6.9 7.55 7.0 8.75 6.9 9.9 7.6 11.45 8.5 11.95 10.25 12.35 12.0 11.5 12.95 10.7 13.9 9.65 13.7 8.55 13.5 7.55 12.6 6.55 13.5 5.5 13.7"/></g><g id="c4"><g><use transform="matrix(1.0,0.0,0.0,1.0,0.0,0.0)" xlink:href="#c3"/></g></g><radialGradient gradientUnits="userSpaceOnUse" r="819.2" cx="0" cy="0" spreadMethod="pad" gradientTransform="matrix(0.0914459228516,0.0,0.0,0.0914459228516,0.6,3.4)" id="gradient1"><stop offset="0.0" stop-color="#ffffff"/><stop offset="1.0" stop-color="#ffffff" stop-opacity="0.0"/></radialGradient><g id="c5"><path stroke="none" fill="url(#gradient1)" d="M36.65 -54.65 Q60.05 -42.0 69.75 -17.95 80.55 8.9 68.0 34.1 55.45 59.35 26.8 68.2 -1.8 77.05 -29.7 64.3 -57.6 51.6 -68.45 24.75 -79.3 -2.05 -66.75 -27.25 L-66.7 -27.3 Q-54.1 -52.5 -25.5 -61.4 3.1 -70.2 31.0 -57.5 L36.65 -54.65"/></g><g id="c6"><g><use transform="matrix(1.0,0.0,0.0,1.0,0.0,0.0)" xlink:href="#c5"/></g></g><radialGradient gradientUnits="userSpaceOnUse" r="819.2" cx="0" cy="0" spreadMethod="pad" gradientTransform="matrix(0.209197998047,0.0,0.0,0.177108764648,67.15,107.2)" id="gradient2"><stop offset="0.356862745098" stop-color="#ffffff"/><stop offset="0.670588235294" stop-opacity="0.0"/></radialGradient><g id="c7"><path fill="none" stroke-linejoin="round" stroke-linecap="round" stroke="url(#gradient2)" stroke-width="0.5" d="M136.55 165.8 L68.6 106.0 68.4 106.0 118.25 201.5 M68.2 105.7 L68.25 105.8 68.25 105.75 68.2 105.7 0.0 45.7 M68.25 105.8 L68.3 105.85 68.3 105.8 68.25 105.75 49.95 0.05 M0.05 97.7 L68.15 105.95 68.25 105.85 68.25 105.8 M68.3 105.85 L68.25 105.85 68.3 106.0 68.3 105.85 68.3 105.8 68.35 105.8 68.3 105.8 86.6 18.35 M50.0 193.2 L68.3 106.0 68.15 105.95 18.25 151.55 M68.4 106.0 L68.3 106.0 86.55 211.5 M68.4 106.0 L68.3 105.85 M68.6 106.0 L68.35 105.8 118.25 60.15 M136.6 114.25 L68.6 106.0 M68.2 105.7 L18.25 10.05"/></g><g id="c8"><g><use transform="matrix(1.0,0.0,0.0,1.0,0.0,0.0)" xlink:href="#c7"/></g></g><g id="c9"><path fill="#c48e5c" stroke="none" d="M23.55 14.65 Q23.45 14.5 23.65 14.45 L23.9 14.55 23.8 14.75 23.55 14.65"/><path fill="#dbae30" stroke="none" d="M14.05 14.45 L14.45 14.45 25.45 30.15 25.3 30.35 14.05 14.45"/><path fill="none" stroke="#000000" stroke-width="0.5" stroke-opacity="0.2" d="M13.7 14.5 L14.05 14.45 14.45 14.45 25.45 30.15 25.3 30.35 25.45 30.55 M14.05 14.45 L25.3 30.35"/><path fill="#a6590d" stroke="none" d="M9.65 14.2 L10.2 14.35 10.75 14.35 12.25 14.7 11.6 14.2 Q12.35 14.05 13.1 14.2 L17.05 12.85 19.55 12.05 Q17.65 13.2 15.4 13.7 L20.35 12.65 20.9 12.35 21.2 12.2 22.0 11.75 22.45 11.7 20.95 12.45 20.35 12.7 18.0 13.6 20.5 13.1 21.1 12.9 22.95 12.05 23.15 11.8 23.45 12.0 23.55 12.45 Q23.25 12.75 23.4 13.65 23.9 12.45 24.1 12.45 L24.55 12.8 Q23.8 12.9 23.95 14.4 24.05 13.3 24.75 13.15 24.95 13.25 24.6 13.65 24.25 14.0 24.35 14.85 L24.65 16.2 24.55 16.25 Q24.1 16.8 23.35 16.55 L23.5 16.0 Q23.65 14.5 22.75 12.9 L21.25 14.05 18.85 14.0 17.2 14.0 Q13.15 14.1 12.6 15.25 12.15 14.95 11.85 15.05 L9.85 14.6 9.65 14.2"/><path fill="#c48e5c" stroke="none" d="M24.65 16.2 L24.35 14.85 Q24.25 14.0 24.6 13.65 24.95 13.25 24.75 13.15 24.05 13.3 23.95 14.4 23.8 12.9 24.55 12.8 L24.1 12.45 Q23.9 12.45 23.4 13.65 23.25 12.75 23.55 12.45 L23.45 12.0 23.15 11.8 22.95 12.05 21.1 12.9 20.5 13.1 18.0 13.6 20.35 12.7 20.95 12.45 22.45 11.7 22.0 11.75 21.2 12.2 20.9 12.35 20.35 12.65 15.4 13.7 Q17.65 13.2 19.55 12.05 L17.05 12.85 13.1 14.2 Q12.35 14.05 11.6 14.2 L12.25 14.7 10.75 14.35 10.2 14.35 9.65 14.2 9.4 13.75 11.55 13.85 12.6 13.9 13.15 14.1 13.3 13.95 Q14.25 13.55 17.95 12.4 L18.15 12.35 20.1 11.8 20.7 11.7 22.8 11.55 24.0 11.7 24.2 11.75 25.35 13.25 Q24.55 13.8 24.6 14.35 L24.7 15.15 25.05 16.1 24.65 16.2 M11.85 15.05 Q12.15 14.95 12.6 15.25 13.15 14.1 17.2 14.0 15.4 14.15 13.55 14.8 12.8 15.0 12.75 15.55 L11.85 15.05 M18.85 14.0 L21.25 14.05 22.75 12.9 Q23.65 14.5 23.5 16.0 L23.35 16.55 22.8 16.7 23.1 16.35 23.15 16.35 Q23.7 15.4 22.8 13.25 22.4 14.0 21.2 14.4 L18.85 14.0"/><path fill="none" stroke="#000000" stroke-width="0.5" stroke-opacity="0.4" d="M9.65 14.2 L9.85 14.6 M17.2 14.0 L18.85 14.0 21.2 14.4 Q22.4 14.0 22.8 13.25 23.7 15.4 23.15 16.35 L23.1 16.35 22.8 16.7 23.35 16.55 M24.55 16.25 L24.65 16.2 25.05 16.1 24.7 15.15 24.6 14.35 Q24.55 13.8 25.35 13.25 L24.2 11.75 24.0 11.7 22.8 11.55 20.7 11.7 20.1 11.8 18.15 12.35 17.95 12.4 Q14.25 13.55 13.3 13.95 L13.15 14.1 12.6 13.9 11.55 13.85 9.4 13.75 9.65 14.2 M11.85 15.05 L12.75 15.55 Q12.8 15.0 13.55 14.8 15.4 14.15 17.2 14.0"/><path fill="#733b09" stroke="none" d="M22.7 13.35 L21.9 14.15 21.15 14.45 18.55 14.15 Q16.1 13.9 13.55 14.8 12.7 15.15 12.75 15.6 12.3 14.9 10.45 14.5 L12.45 14.7 12.5 14.85 Q14.05 14.3 13.35 14.2 L20.15 13.6 Q21.95 13.15 23.15 12.25 22.55 13.1 22.8 12.9 L22.9 12.8 23.05 12.85 22.95 13.05 23.25 13.25 23.45 13.05 23.55 13.25 Q23.3 13.35 23.4 13.6 L23.7 13.7 23.75 13.7 23.8 13.9 23.65 13.9 Q23.45 13.95 23.5 14.15 L23.8 14.3 23.95 14.25 Q23.9 14.4 24.0 14.55 L23.85 14.6 Q23.65 14.65 23.75 14.85 L24.0 15.0 24.1 14.95 24.2 15.2 24.0 15.2 Q23.75 15.3 23.85 15.55 L24.15 15.65 24.25 15.6 24.3 15.9 24.15 15.9 Q23.9 15.95 24.0 16.15 L24.05 16.25 23.2 16.55 Q23.6 14.85 22.75 13.3 L22.7 13.35"/><path fill="#ffb978" fill-opacity="0.792156862745" d="M18.3 12.4 L18.35 12.25 Q20.7 11.65 23.05 11.6 23.8 11.55 24.3 12.2 24.9 12.8 24.85 13.25 23.6 11.6 18.3 12.4"/><path fill="#c48e5c" stroke="none" d="M27.35 20.1 L27.6 19.8 28.35 20.45 29.1 20.8 Q29.6 21.0 30.3 20.5 31.2 21.45 31.35 22.05 L31.35 22.25 31.15 23.45 30.3 25.35 29.95 25.9 28.85 27.55 28.7 27.7 25.7 31.6 Q25.6 31.6 25.55 31.7 L25.5 32.2 25.2 33.2 24.6 35.25 24.25 34.95 24.3 34.4 24.45 33.8 24.65 32.35 24.95 33.05 25.4 31.7 27.95 28.4 29.55 26.35 Q27.95 27.6 26.7 29.5 L27.35 28.5 27.45 28.3 29.9 25.35 30.65 24.15 30.8 23.65 29.65 24.85 29.3 25.25 31.0 22.95 30.9 22.65 30.5 22.45 Q30.1 22.65 29.35 22.15 L30.7 21.9 30.45 21.35 28.8 21.4 Q29.9 21.7 30.25 21.05 30.2 20.85 29.75 21.05 L28.5 20.9 27.35 20.1 M24.15 32.55 L24.0 31.55 Q24.5 31.7 25.0 31.05 26.25 29.5 26.95 27.9 25.5 31.7 24.25 31.8 L24.15 32.55 M27.5 26.35 L27.9 24.0 Q28.6 23.0 29.45 22.9 27.75 21.3 26.7 21.5 L26.7 21.55 26.25 21.7 26.6 21.25 27.15 21.3 Q28.65 21.6 29.75 23.0 29.05 23.2 28.2 24.05 L27.5 26.35 M30.15 23.25 Q30.9 23.0 30.35 23.2 L28.25 26.25 27.4 27.75 Q29.5 23.55 30.15 23.25"/><path fill="#a6590d" stroke="none" d="M27.35 20.1 L28.5 20.9 29.75 21.05 Q30.2 20.85 30.25 21.05 29.9 21.7 28.8 21.4 L30.45 21.35 30.7 21.9 29.35 22.15 Q30.1 22.65 30.5 22.45 L30.9 22.65 31.0 22.95 29.3 25.25 29.65 24.85 30.8 23.65 30.65 24.15 29.9 25.35 27.45 28.3 27.35 28.5 26.7 29.5 Q27.95 27.6 29.55 26.35 L27.95 28.4 25.4 31.7 24.95 33.05 24.65 32.35 24.45 33.8 24.3 34.4 24.25 34.95 23.95 34.65 24.15 32.55 24.25 31.8 Q25.5 31.7 26.95 27.9 L27.5 26.35 28.2 24.05 Q29.05 23.2 29.75 23.0 28.65 21.6 27.15 21.3 L26.6 21.25 Q26.55 20.5 27.25 20.25 L27.35 20.1 M30.15 23.25 Q29.5 23.55 27.4 27.75 L28.25 26.25 30.35 23.2 Q30.9 23.0 30.15 23.25"/><path fill="none" stroke="#000000" stroke-width="0.5" stroke-opacity="0.4" d="M24.25 34.95 L24.6 35.25 25.2 33.2 25.5 32.2 25.55 31.7 Q25.6 31.6 25.7 31.6 L28.7 27.7 28.85 27.55 29.95 25.9 30.3 25.35 31.15 23.45 31.35 22.25 31.35 22.05 Q31.2 21.45 30.3 20.5 29.6 21.0 29.1 20.8 L28.35 20.45 27.6 19.8 27.35 20.1 M24.25 34.95 L23.95 34.65 M24.15 32.55 L24.0 31.55 Q24.5 31.7 25.0 31.05 26.25 29.5 26.95 27.9 L27.5 26.35 27.9 24.0 Q28.6 23.0 29.45 22.9 27.75 21.3 26.7 21.5 L26.7 21.55 26.25 21.7 26.6 21.25 M27.25 20.25 L27.35 20.1"/><path fill="#733b09" stroke="none" d="M29.0 22.9 Q28.55 22.9 28.0 23.4 L27.5 24.0 26.9 26.55 Q26.3 28.95 24.7 31.05 24.05 31.75 23.65 31.55 24.1 32.2 23.85 34.1 L24.4 32.1 24.25 32.0 Q25.3 30.75 25.1 31.45 L27.95 25.2 Q28.9 23.7 30.2 22.85 L29.45 22.95 29.55 22.9 29.6 22.75 29.35 22.75 Q29.15 22.6 29.3 22.4 L29.6 22.3 29.4 22.1 29.35 22.1 29.1 22.15 Q28.9 22.05 29.0 21.9 L29.05 21.85 28.9 21.7 28.85 21.85 28.5 21.9 Q28.3 21.75 28.45 21.55 L28.6 21.5 28.35 21.3 28.25 21.4 28.0 21.45 Q27.8 21.3 27.9 21.15 L27.95 21.05 27.75 20.95 27.65 21.05 27.4 21.15 Q27.2 21.0 27.3 20.8 L27.45 20.7 27.15 20.6 27.15 20.7 26.8 20.8 26.75 20.65 26.15 21.4 Q27.95 21.55 29.1 22.9 L29.0 22.9"/><path fill="#ffb978" fill-opacity="0.792156862745" d="M30.3 20.45 L30.3 20.55 Q31.45 21.6 31.25 22.5 30.85 21.35 30.25 21.05 L29.95 21.25 28.8 21.05 27.7 20.4 27.85 20.1 Q29.8 21.4 30.3 20.45"/><path fill="#ffcc33" stroke="none" d="M14.25 14.4 L14.5 14.15 14.25 14.4 13.45 13.95 Q13.05 14.1 12.9 13.65 L13.3 13.35 13.65 13.6 Q14.15 13.75 14.5 14.15 L14.85 14.35 14.85 14.7 Q14.3 14.8 14.25 14.4 M13.45 13.95 L13.65 13.6 13.45 13.95"/><path fill="#dbae30" stroke="none" d="M14.25 14.4 Q14.3 14.8 14.85 14.7 L14.6 14.95 13.9 14.6 14.25 14.4 13.9 14.6 Q13.5 14.55 13.4 14.35 L12.9 14.1 12.9 13.65 Q13.05 14.1 13.45 13.95 L14.25 14.4 M13.4 14.35 L13.45 13.95 13.4 14.35"/><path fill="none" stroke="#000000" stroke-width="0.5" stroke-opacity="0.2" d="M14.5 14.15 L14.25 14.4 13.9 14.6 14.6 14.95 14.85 14.7 14.85 14.35 14.5 14.15 Q14.15 13.75 13.65 13.6 L13.45 13.95 13.4 14.35 Q13.5 14.55 13.9 14.6 M12.9 13.65 L13.3 13.35 13.65 13.6 M13.4 14.35 L12.9 14.1 12.9 13.65"/><path fill="#dbae30" stroke="none" d="M13.9 13.55 L14.1 13.05 14.5 13.1 Q14.05 13.3 14.3 13.6 L13.9 13.55 14.3 13.6 Q13.85 13.95 13.85 14.45 13.45 14.55 13.5 15.05 L13.35 14.8 13.65 14.1 Q13.7 13.75 13.9 13.55 M13.85 14.45 L13.65 14.1 13.85 14.45"/><path fill="#ffcc33" stroke="none" d="M14.3 13.6 Q14.05 13.3 14.5 13.1 L14.85 13.5 14.6 13.85 14.1 14.7 13.9 15.05 13.5 15.05 Q13.45 14.55 13.85 14.45 13.85 13.95 14.3 13.6 L14.6 13.85 14.3 13.6 M14.1 14.7 L13.85 14.45 14.1 14.7"/><path fill="none" stroke="#000000" stroke-width="0.5" stroke-opacity="0.2" d="M14.5 13.1 L14.1 13.05 13.9 13.55 14.3 13.6 14.6 13.85 14.1 14.7 13.9 15.05 13.5 15.05 13.35 14.8 13.65 14.1 Q13.7 13.75 13.9 13.55 M14.5 13.1 L14.85 13.5 14.6 13.85 M13.65 14.1 L13.85 14.45 14.1 14.7"/><path fill="#ffcc33" stroke="none" d="M25.1 30.95 Q24.9 31.3 24.5 30.95 24.45 30.75 24.7 30.5 L25.1 30.5 25.1 30.95 25.1 30.5 26.05 30.55 26.05 30.9 26.05 30.55 26.5 30.6 26.7 30.85 26.05 30.9 25.1 30.95"/><path fill="#dbae30" stroke="none" d="M24.5 30.95 Q24.9 31.3 25.1 30.95 L25.25 31.35 25.1 30.95 26.05 30.9 26.7 30.85 26.55 31.2 25.8 31.25 25.25 31.35 24.75 31.4 Q24.45 31.2 24.5 30.95 M26.05 30.9 L25.8 31.25 26.05 30.9"/><path fill="none" stroke="#000000" stroke-width="0.5" stroke-opacity="0.4" d="M25.1 30.95 L25.1 30.5 24.7 30.5 Q24.45 30.75 24.5 30.95 24.45 31.2 24.75 31.4 L25.25 31.35 25.1 30.95 M26.05 30.9 L26.05 30.55 25.1 30.5 M26.7 30.85 L26.5 30.6 26.05 30.55 M26.7 30.85 L26.55 31.2 25.8 31.25 25.25 31.35 M25.8 31.25 L26.05 30.9"/><path fill="#ffcc33" stroke="none" d="M25.4 29.75 L25.85 29.9 25.85 30.3 25.45 30.3 25.85 30.3 25.85 31.3 25.85 31.7 25.55 31.95 Q25.2 31.55 25.55 31.25 L25.85 31.3 25.55 31.25 Q25.25 30.85 25.45 30.3 25.1 30.15 25.4 29.75"/><path fill="#dbae30" stroke="none" d="M25.4 29.75 Q25.1 30.15 25.45 30.3 25.25 30.85 25.55 31.25 25.2 31.55 25.55 31.95 L25.25 31.8 25.15 31.05 25.1 30.5 25.0 29.95 Q25.15 29.7 25.4 29.75 M25.15 31.05 L25.55 31.25 25.15 31.05 M25.1 30.5 Q25.25 30.35 25.45 30.3 25.25 30.35 25.1 30.5"/><path fill="none" stroke="#000000" stroke-width="0.5" stroke-opacity="0.4" d="M25.85 30.3 L25.85 29.9 25.4 29.75 M25.45 30.3 L25.85 30.3 25.85 31.3 25.85 31.7 25.55 31.95 25.25 31.8 25.15 31.05 25.1 30.5 25.0 29.95 Q25.15 29.7 25.4 29.75 M25.85 31.3 L25.55 31.25 25.15 31.05 M25.45 30.3 Q25.25 30.35 25.1 30.5"/><path fill="#e6d091" stroke="none" d="M22.7 18.25 Q23.0 18.5 22.9 18.85 L22.5 19.05 22.9 18.85 Q23.3 19.1 23.3 19.55 L23.85 20.25 Q24.3 20.4 24.2 20.7 24.65 20.8 24.7 21.2 L24.4 21.55 Q23.95 21.4 23.95 21.2 L23.95 20.95 23.8 20.85 23.45 20.5 23.45 20.45 22.95 19.8 22.9 19.8 22.5 19.05 22.45 19.05 22.25 18.9 Q22.0 18.85 22.3 18.45 L22.7 18.25 M23.3 19.55 L22.95 19.8 23.3 19.55 M23.45 20.5 L23.85 20.25 23.45 20.5 M24.2 20.7 L23.95 20.95 24.2 20.7"/><path fill="#b88914" stroke="none" d="M22.3 18.45 Q22.0 18.85 22.25 18.9 L22.45 19.05 22.5 19.05 21.9 19.35 22.5 19.05 22.9 19.8 22.95 19.8 23.45 20.45 23.45 20.5 22.95 20.85 23.45 20.5 23.8 20.85 23.95 20.95 23.95 21.2 Q23.95 21.4 24.4 21.55 L24.05 22.0 Q23.75 21.6 23.5 21.5 L23.35 21.5 23.25 21.3 22.95 20.85 22.8 20.95 Q22.8 20.5 22.3 20.2 L22.95 19.8 22.3 20.2 Q22.3 19.6 21.9 19.35 L21.85 19.15 21.6 18.7 22.3 18.45 M23.95 20.95 L23.35 21.5 23.95 20.95"/><path fill="#ffcc33" stroke="none" d="M24.05 22.0 L23.85 22.3 Q23.15 22.25 23.1 21.75 L22.65 21.7 Q22.4 21.6 22.45 21.2 21.65 21.1 21.85 20.4 21.3 20.15 21.4 19.55 21.0 19.35 21.2 18.8 L21.6 18.7 21.85 19.15 21.9 19.35 Q22.3 19.6 22.3 20.2 22.8 20.5 22.8 20.95 L22.95 20.85 23.25 21.3 23.35 21.5 23.1 21.75 23.35 21.5 23.5 21.5 Q23.75 21.6 24.05 22.0 M21.4 19.55 L21.9 19.35 21.4 19.55 M21.85 20.4 L22.3 20.2 21.85 20.4 M22.8 20.95 L22.45 21.2 22.8 20.95"/><path fill="none" stroke="#000000" stroke-width="0.5" stroke-opacity="0.4" d="M22.9 18.85 Q23.0 18.5 22.7 18.25 M22.9 18.85 Q23.3 19.1 23.3 19.55 L23.85 20.25 Q24.3 20.4 24.2 20.7 24.65 20.8 24.7 21.2 M23.85 22.3 Q23.15 22.25 23.1 21.75 L22.65 21.7 Q22.4 21.6 22.45 21.2 21.65 21.1 21.85 20.4 21.3 20.15 21.4 19.55 21.0 19.35 21.2 18.8"/><path fill="none" stroke="#000000" stroke-width="0.5" stroke-opacity="0.2" d="M22.7 18.25 L22.3 18.45 M22.5 19.05 L22.9 18.85 M24.7 21.2 L24.4 21.55 24.05 22.0 23.85 22.3 M21.2 18.8 L21.6 18.7 22.3 18.45 M21.9 19.35 L22.5 19.05 M22.9 19.8 L22.95 19.8 23.3 19.55 M22.8 20.95 L22.95 20.85 23.45 20.5 23.45 20.45 M22.95 19.8 L22.3 20.2 21.85 20.4 M21.9 19.35 L21.4 19.55 M23.85 20.25 L23.45 20.5 M23.95 20.95 L24.2 20.7 M23.35 21.5 L23.1 21.75 M23.5 21.5 L23.35 21.5 23.95 20.95 M22.45 21.2 L22.8 20.95"/><path fill="#6b500b" fill-opacity="0.2" d="M21.45 19.95 L22.95 19.25 23.0 19.6 21.55 20.4 21.45 19.95 M21.95 20.75 L23.45 19.95 23.5 20.3 22.1 21.3 21.95 20.75 M23.85 20.4 L23.9 20.7 22.7 21.75 22.45 21.35 23.85 20.4 M22.55 18.6 L22.5 18.95 21.3 19.45 Q21.3 19.05 20.95 19.1 L22.55 18.6"/><path fill="#946b45" stroke="none" d="M26.0 16.1 L24.55 17.35 23.55 18.25 23.0 18.6 24.75 16.8 25.15 16.5 26.15 15.95 26.0 16.1 M19.25 17.45 L20.55 17.55 21.2 17.35 21.8 17.55 21.85 17.55 19.25 17.45"/><path fill="#e6a66c" stroke="none" d="M18.55 18.5 L18.3 18.45 18.25 18.45 17.35 17.15 17.3 17.05 18.7 18.05 18.8 18.1 18.9 18.5 18.55 18.5 M21.8 17.55 L21.95 17.55 22.2 17.5 22.4 17.4 22.7 17.25 22.75 17.2 22.8 17.25 23.2 17.2 23.4 17.2 23.65 17.05 23.7 17.05 23.8 16.95 24.5 16.5 Q25.15 16.2 25.65 16.05 L26.15 15.95 25.15 16.5 24.75 16.8 Q24.1 17.25 23.4 17.65 23.25 17.75 23.05 17.8 L22.7 17.8 21.85 17.55 21.8 17.55 M22.7 17.25 L22.55 17.35 22.4 17.4 22.55 17.35 22.7 17.25 M21.85 17.55 L21.95 17.55 21.85 17.55"/><path fill="#99482a" stroke="none" d="M26.15 15.95 L26.25 15.9 26.0 16.1 26.15 15.95"/><path fill="#c48e5c" stroke="none" d="M17.3 17.05 L18.2 17.3 19.25 17.45 21.85 17.55 22.7 17.8 23.05 17.8 22.75 17.9 18.9 18.05 18.7 18.05 17.3 17.05 M23.2 17.2 L23.45 17.15 23.65 17.05 23.4 17.2 23.2 17.2"/><path fill="#a6590d" stroke="none" d="M21.15 19.25 L21.2 19.25 20.85 19.25 20.9 19.25 21.15 19.25 20.9 19.25 20.85 19.25 19.7 19.2 19.85 19.25 19.2 19.05 18.6 18.65 18.55 18.55 18.55 18.5 18.9 18.5 19.15 18.65 19.7 18.95 21.15 19.25"/><path fill="#58382b" stroke="none" d="M23.0 18.6 L22.9 18.6 22.75 18.55 22.2 18.7 21.5 19.05 21.15 19.25 19.7 18.95 19.15 18.65 18.9 18.5 18.8 18.1 18.7 18.05 18.9 18.05 22.75 17.9 23.05 17.8 Q23.25 17.75 23.4 17.65 24.1 17.25 24.75 16.8 L23.0 18.6 M20.85 19.25 L20.15 19.25 19.85 19.25 19.7 19.2 20.85 19.25"/><path fill="none" stroke="#000000" stroke-width="0.5" stroke-opacity="0.2" d="M26.0 16.1 L24.55 17.35 23.55 18.25 23.0 18.6 22.9 18.6 22.75 18.55 22.2 18.7 21.5 19.05 21.15 19.25 20.9 19.25 20.85 19.25 20.15 19.25 19.85 19.25 19.2 19.05 18.6 18.65 18.55 18.55 18.55 18.5 18.3 18.45 18.25 18.45 17.35 17.15 17.3 17.05 18.2 17.3 19.25 17.45 20.55 17.55 21.2 17.35 21.8 17.55 21.95 17.55 22.2 17.5 22.4 17.4 22.55 17.35 22.7 17.25 22.75 17.2 22.8 17.25 23.2 17.2 23.45 17.15 23.65 17.05 23.7 17.05 23.8 16.95 24.5 16.5 Q25.15 16.2 25.65 16.05 L26.15 15.95 M25.15 16.5 L24.75 16.8 M21.95 17.55 L21.85 17.55"/><path fill="none" stroke="#000000" stroke-width="0.5" stroke-opacity="0.4" d="M18.9 18.5 L19.15 18.65"/><path fill="#c48e5c" stroke="none" d="M24.05 22.1 L24.7 21.1 25.2 20.45 25.85 20.05 26.15 19.9 Q26.55 19.55 27.45 18.95 L27.55 18.95 26.9 19.55 25.55 20.85 25.15 21.25 25.1 21.35 24.05 22.1 M23.8 22.35 L23.75 22.35 23.7 22.4 23.75 22.3 23.85 22.35 23.8 22.35 M23.75 22.35 L23.75 22.3 23.75 22.35"/><path fill="#e6a66c" stroke="none" d="M26.9 19.55 L27.55 18.95 27.45 18.95 27.65 18.8 26.6 20.25 26.25 20.6 25.95 21.05 26.9 19.55"/><path fill="#99482a" stroke="none" d="M27.45 18.95 L27.7 18.75 27.65 18.8 27.45 18.95"/><path fill="#704736" stroke="none" d="M25.1 21.35 L25.15 21.25 25.55 20.85 26.9 19.55 25.95 21.05 25.95 21.1 25.0 23.05 Q24.7 23.6 24.6 25.35 L24.6 25.8 24.65 26.1 24.35 25.6 24.15 24.9 24.15 24.65 Q23.6 23.05 25.1 21.35"/><path fill="#9e724a" stroke="none" d="M24.05 22.1 L25.1 21.35 Q23.6 23.05 24.15 24.65 L23.95 24.35 23.65 24.75 23.65 24.7 23.6 24.7 23.4 24.05 Q23.35 23.4 23.8 22.35 L23.85 22.35 24.05 22.1"/><path fill="#7d4009" stroke="none" d="M24.65 26.1 L24.6 26.15 24.55 26.15 23.8 25.3 23.7 25.05 23.75 25.0 23.65 24.75 23.95 24.35 24.15 24.65 24.15 24.8 24.15 24.9 24.35 25.6 24.65 26.1"/><path fill="#d97a54" stroke="none" d="M23.65 24.75 L23.65 24.7 23.65 24.75"/><path fill="#58382b" stroke="none" d="M24.15 24.9 L24.15 24.8 24.15 24.65 24.15 24.9"/><path fill="none" stroke="#000000" stroke-width="0.5" stroke-opacity="0.4" d="M27.45 18.95 Q26.55 19.55 26.15 19.9 L25.85 20.05 25.2 20.45 24.7 21.1 24.05 22.1 M27.65 18.8 L26.6 20.25 26.25 20.6 25.95 21.05 25.95 21.1 25.0 23.05 Q24.7 23.6 24.6 25.35 L24.6 25.8 24.65 26.1 24.6 26.15 24.55 26.15 23.8 25.3 23.7 25.05 23.75 25.0 23.65 24.75 23.65 24.7 23.6 24.7 23.4 24.05 Q23.35 23.4 23.8 22.35 L23.75 22.35 M23.75 22.3 L23.85 22.35 24.05 22.1 M23.75 22.3 L23.75 22.35 M23.8 22.35 L23.85 22.35"/><path fill="none" stroke="#000000" stroke-width="0.5" stroke-opacity="0.2" d="M25.1 21.35 L25.15 21.25"/><path fill="none" stroke="#663300" stroke-width="0.5" d="M24.15 24.9 L24.15 24.65"/></g><g id="c10"><g><use transform="matrix(1.0,0.0,0.0,1.0,0.0,0.0)" xlink:href="#c2"/></g><g><use transform="matrix(0.238861083984,-0.0867004394531,0.10026550293,0.233917236328,34.25,31.15)" xlink:href="#c4"/></g><g><use transform="matrix(0.238861083984,-0.0867004394531,0.10026550293,0.233917236328,4.25,10.3)" xlink:href="#c4"/></g><g><use transform="matrix(0.141098022461,-0.0378112792969,0.111373901367,0.225646972656,20.25,20.65)" filter="url(#filter7)" xlink:href="#c6"/></g><g><use transform="matrix(-0.155029296875,0.0513153076172,0.0841827392578,0.147033691406,22.6,2.3)" filter="url(#filter8)" xlink:href="#c8"/></g><g><use transform="matrix(1.0,0.0,0.0,1.0,0.0,0.0)" xlink:href="#c9"/></g><g><use transform="matrix(0.162948608398,-0.0436706542969,0.128631591797,0.260604858398,20.35,20.95)" filter="url(#filter10)" xlink:href="#c6"/></g></g><filter id="filter7"><feColorMatrix in="SourceGraphic" type="matrix" values="0.0 0.0 0.0 0.0 0.796875 0.0 0.0 0.0 0.0 0.59765625 0.0 0.0 0.0 0.0 0.19921875 0.0 0.0 0.0 1.0 0.0" result="cxform"/><feComposite operator="in" in2="SourceGraphic" result="color-xform"/></filter><filter id="filter8"><feColorMatrix in="SourceGraphic" type="matrix" values="0.0 0.0 0.0 0.0 0.99609375 0.0 0.0 0.0 0.0 0.99609375 0.0 0.0 0.0 0.0 0.99609375 0.0 0.0 0.0 1.0 0.0" result="cxform"/><feComposite operator="in" in2="SourceGraphic" result="color-xform"/></filter><filter id="filter10"><feColorMatrix in="SourceGraphic" type="matrix" values="1.0 0.0 0.0 0.0 0.0 0.0 1.0 0.0 0.0 0.0 0.0 0.0 1.0 0.0 0.0 0.0 0.0 0.0 0.23046875 0.0" result="cxform"/><feComposite operator="in" in2="SourceGraphic" result="color-xform"/></filter></defs><g><g><use transform="matrix(1.0,0.0,0.0,1.0,0.0,0.0)" xlink:href="#c1"/></g><g><use transform="matrix(1.15496826172,0.0,0.0,1.15496826172,5.85,3.95)" xlink:href="#c10"/></g></g></svg>