<?xml version='1.0' encoding='UTF-8'?>
<svg xmlns:xlink="http://www.w3.org/1999/xlink" xmlns="http://www.w3.org/2000/svg" version="1.1" width="60px" height="60px" viewBox="0.0 0.0 60.0 60.0"><defs><g id="c1"><path fill="#000000" fill-opacity="0.00392156862745" d="M0.0 0.0 L60.0 0.0 60.0 60.0 0.0 60.0 0.0 0.0"/></g><g id="c2"><path fill="none" stroke="#000000" stroke-width="1.0" stroke-opacity="0.301960784314" d="M28.45 3.1 L41.35 31.7 Q42.95 35.15 40.2 36.7 39.5 37.3 38.3 37.65 L36.35 38.3 36.15 38.15 34.0 36.9 33.8 36.8 Q30.65 35.45 27.7 36.35 24.75 37.3 23.7 40.05 L23.6 40.25 Q23.25 41.25 23.25 42.3 L23.25 42.35 23.25 42.55 19.8 43.65 Q17.15 44.45 15.5 43.3 14.35 42.55 13.65 40.9 L0.7 12.25 Q-0.45 9.75 0.75 8.25 1.2 7.6 2.15 7.15 2.8 6.7 3.8 6.35 L6.45 5.5 8.5 6.75 8.7 6.85 Q11.9 8.2 14.85 7.25 17.8 6.35 18.85 3.6 L18.9 3.4 19.3 1.35 22.3 0.4 Q26.55 -1.0 28.45 3.1"/><path fill="#9d147b" stroke="none" d="M35.55 22.3 L28.25 6.1 27.75 4.95 Q26.05 1.25 21.6 2.85 20.8 5.65 18.85 7.6 17.0 9.45 14.2 9.8 11.45 9.95 9.0 8.8 L6.4 7.45 Q1.65 9.1 3.35 12.8 L8.25 23.65 15.0 38.6 15.2 39.0 Q16.8 42.25 20.45 41.1 L21.65 40.55 Q22.7 36.9 25.05 35.5 27.4 34.15 30.2 34.2 33.05 34.2 36.25 36.1 L37.2 35.7 Q41.1 34.5 39.35 30.75 L35.55 22.3 M19.3 1.35 L22.3 0.4 Q26.55 -1.0 28.45 3.1 L41.35 31.7 Q42.95 35.15 40.2 36.7 L38.9 37.25 36.15 38.15 34.0 36.9 33.8 36.8 Q30.65 35.45 27.7 36.35 24.75 37.3 23.7 40.05 L23.6 40.25 Q23.25 41.25 23.25 42.3 L23.2 42.3 20.4 43.2 19.1 43.5 17.3 43.4 Q15.3 42.9 14.2 40.5 L5.45 20.95 1.35 11.8 Q0.4 9.65 1.1 8.3 1.45 7.65 2.15 7.15 2.8 6.7 3.8 6.35 L6.45 5.5 8.5 6.75 8.7 6.85 Q11.9 8.2 14.85 7.25 17.8 6.35 18.85 3.6 L18.9 3.4 19.3 1.35"/><path fill="#c47fad" stroke="none" d="M28.25 6.1 L35.55 22.3 39.35 30.75 Q41.1 34.5 37.2 35.7 L36.25 36.1 Q33.05 34.2 30.2 34.2 27.4 34.15 25.05 35.5 22.7 36.9 21.65 40.55 L20.45 41.1 Q16.8 42.25 15.2 39.0 L15.0 38.6 8.25 23.65 3.35 12.8 Q1.65 9.1 6.4 7.45 L9.0 8.8 Q11.45 9.95 14.2 9.8 17.0 9.45 18.85 7.6 20.8 5.65 21.6 2.85 26.05 1.25 27.75 4.95 L28.25 6.1 M34.0 32.9 L33.7 32.1 Q33.45 30.9 34.1 30.1 34.75 29.3 35.95 29.35 L35.8 29.0 26.5 8.3 26.25 7.85 Q24.9 5.45 22.05 6.35 19.75 11.1 14.85 11.65 11.45 11.85 9.1 10.55 L9.55 11.6 Q9.8 12.8 9.15 13.6 8.4 14.45 7.1 14.4 L6.8 14.4 6.95 14.6 16.3 35.2 Q16.8 36.4 17.65 37.0 18.8 37.8 19.8 37.35 21.8 33.7 25.95 32.3 30.35 30.8 34.0 32.9"/><path fill="#fcf2cf" stroke="none" d="M22.05 6.35 Q24.9 5.45 26.25 7.85 L26.5 8.3 35.8 29.0 35.95 29.35 Q34.75 29.3 34.1 30.1 33.45 30.9 33.7 32.1 L34.0 32.9 Q30.35 30.8 25.95 32.3 21.8 33.7 19.8 37.35 18.8 37.8 17.65 37.0 16.8 36.4 16.3 35.2 L6.95 14.6 6.8 14.4 7.1 14.4 Q8.4 14.45 9.15 13.6 9.8 12.8 9.55 11.6 L9.1 10.55 Q11.45 11.85 14.85 11.65 19.75 11.1 22.05 6.35"/><path fill="#300525" stroke="none" d="M40.2 36.7 Q39.5 37.3 38.3 37.65 L36.35 38.3 36.15 38.15 38.9 37.25 40.2 36.7 M23.25 42.3 L23.25 42.35 23.2 42.3 23.25 42.3 M20.1 43.55 L19.8 43.65 Q17.15 44.45 15.5 43.3 L17.3 43.4 19.1 43.5 20.1 43.55 M4.6 20.9 L0.7 12.25 Q-0.45 9.75 0.75 8.25 L1.1 8.3 Q0.4 9.65 1.35 11.8 L5.45 20.95 4.6 20.9"/><path fill="#630a4c" stroke="none" d="M23.25 42.35 L23.25 42.55 20.1 43.55 19.1 43.5 20.4 43.2 23.2 42.3 23.25 42.35 M15.5 43.3 Q14.35 42.55 13.65 40.9 L4.6 20.9 5.45 20.95 14.2 40.5 Q15.3 42.9 17.3 43.4 L15.5 43.3 M0.75 8.25 Q1.2 7.6 2.15 7.15 1.45 7.65 1.1 8.3 L0.75 8.25"/><path fill="none" stroke="#bf9900" stroke-width="1.0" stroke-opacity="0.749019607843" d="M28.25 6.1 L35.55 22.3 M15.0 38.6 L8.25 23.65"/><path fill="none" stroke="#000000" stroke-width="0.5" stroke-opacity="0.301960784314" d="M19.3 1.35 L22.3 0.4 Q26.55 -1.0 28.45 3.1 L41.35 31.7 Q42.95 35.15 40.2 36.7 39.5 37.3 38.3 37.65 L36.35 38.3 M23.25 42.55 L20.1 43.55 19.8 43.65 Q17.15 44.45 15.5 43.3 14.35 42.55 13.65 40.9 L4.6 20.9 0.7 12.25 Q-0.45 9.75 0.75 8.25 1.2 7.6 2.15 7.15 2.8 6.7 3.8 6.35 L6.45 5.5 M1.1 8.3 Q1.45 7.65 2.15 7.15 M5.45 20.95 L1.35 11.8 Q0.4 9.65 1.1 8.3 M17.3 43.4 Q15.3 42.9 14.2 40.5 L5.45 20.95 M19.1 43.5 L17.3 43.4 M23.2 42.3 L20.4 43.2 19.1 43.5 M23.25 42.3 L23.2 42.3 M40.2 36.7 L38.9 37.25 36.15 38.15"/><path fill="none" stroke="#ffcc00" stroke-width="1.0" stroke-opacity="0.749019607843" d="M35.55 22.3 L39.35 30.75 Q41.1 34.5 37.2 35.7 L36.25 36.1 M21.65 40.55 L20.45 41.1 Q16.8 42.25 15.2 39.0 L15.0 38.6 M8.25 23.65 L3.35 12.8 Q1.65 9.1 6.4 7.45 M21.6 2.85 Q26.05 1.25 27.75 4.95 L28.25 6.1"/><path fill="none" stroke="#f0b92b" stroke-width="0.5" d="M22.05 6.35 Q24.9 5.45 26.25 7.85 L26.5 8.3 35.8 29.0 35.95 29.35 Q34.75 29.3 34.1 30.1 33.45 30.9 33.7 32.1 L34.0 32.9 M19.8 37.35 Q18.8 37.8 17.65 37.0 16.8 36.4 16.3 35.2 L6.95 14.6 6.8 14.4 7.1 14.4 Q8.4 14.45 9.15 13.6 9.8 12.8 9.55 11.6 L9.1 10.55"/><path fill="none" stroke="#ffaa00" stroke-width="1.0" stroke-opacity="0.749019607843" d="M36.25 36.1 Q33.05 34.2 30.2 34.2 27.4 34.15 25.05 35.5 22.7 36.9 21.65 40.55 M6.4 7.45 L9.0 8.8 Q11.45 9.95 14.2 9.8 17.0 9.45 18.85 7.6 20.8 5.65 21.6 2.85"/><path fill="none" stroke="#ffaa00" stroke-width="0.5" stroke-opacity="0.749019607843" d="M34.0 32.9 Q30.35 30.8 25.95 32.3 21.8 33.7 19.8 37.35 M9.1 10.55 Q11.45 11.85 14.85 11.65 19.75 11.1 22.05 6.35"/></g><g id="c3"><path fill="#7fdbfe" stroke="none" d="M10.75 4.9 Q10.75 4.6 10.9 4.35 11.25 3.45 11.95 2.75 13.3 1.5 14.35 2.1 15.4 2.7 14.95 4.45 14.7 5.4 14.1 6.15 L13.75 6.5 Q13.1 7.15 12.35 7.35 L11.4 7.2 Q10.95 6.9 10.75 6.4 10.5 5.75 10.75 4.9 M9.3 1.7 Q9.55 2.65 9.4 3.6 L9.3 4.15 8.5 5.5 7.6 5.9 7.5 5.9 Q7.0 5.85 6.6 5.5 6.05 5.0 5.8 4.15 L5.7 3.6 Q5.55 2.65 5.8 1.7 6.25 0.0 7.5 0.0 L7.6 0.0 Q8.85 0.0 9.3 1.7 M0.15 4.45 Q-0.3 2.7 0.75 2.1 1.8 1.5 3.15 2.75 3.85 3.45 4.2 4.35 L4.35 4.9 Q4.6 5.75 4.35 6.4 L3.7 7.2 2.75 7.35 Q2.0 7.15 1.35 6.5 L1.0 6.15 Q0.4 5.4 0.15 4.45 M7.55 7.0 Q8.75 6.9 9.9 7.6 11.45 8.5 11.95 10.25 12.35 12.0 11.5 12.95 10.7 13.9 9.65 13.7 8.55 13.5 7.55 12.6 6.55 13.5 5.5 13.7 4.45 13.9 3.65 12.95 2.75 12.0 3.2 10.25 3.7 8.5 5.25 7.6 6.4 6.9 7.55 7.0"/></g><g id="c4"><g><use transform="matrix(1.0,0.0,0.0,1.0,0.0,0.0)" xlink:href="#c3"/></g></g><radialGradient gradientUnits="userSpaceOnUse" r="819.2" cx="0" cy="0" spreadMethod="pad" gradientTransform="matrix(0.0914459228516,0.0,0.0,0.0914459228516,0.6,3.4)" id="gradient1"><stop offset="0.0" stop-color="#ffffff"/><stop offset="1.0" stop-color="#ffffff" stop-opacity="0.0"/></radialGradient><g id="c5"><path stroke="none" fill="url(#gradient1)" d="M36.65 -54.65 Q60.05 -42.0 69.75 -17.95 80.55 8.9 68.0 34.1 55.45 59.35 26.8 68.2 -1.8 77.05 -29.7 64.3 -57.6 51.6 -68.45 24.75 -79.3 -2.05 -66.75 -27.25 L-66.7 -27.3 Q-54.1 -52.5 -25.5 -61.4 3.1 -70.2 31.0 -57.5 L36.65 -54.65"/></g><g id="c6"><g><use transform="matrix(1.0,0.0,0.0,1.0,0.0,0.0)" xlink:href="#c5"/></g></g><radialGradient gradientUnits="userSpaceOnUse" r="819.2" cx="0" cy="0" spreadMethod="pad" gradientTransform="matrix(0.209197998047,0.0,0.0,0.177108764648,67.15,107.2)" id="gradient2"><stop offset="0.356862745098" stop-color="#ffffff"/><stop offset="0.670588235294" stop-opacity="0.0"/></radialGradient><g id="c7"><path fill="none" stroke-linejoin="round" stroke-linecap="round" stroke="url(#gradient2)" stroke-width="0.5" d="M136.55 165.8 L68.6 106.0 68.4 106.0 118.25 201.5 M68.3 105.8 L68.35 105.8 68.3 105.8 68.3 105.85 68.4 106.0 68.3 106.0 86.55 211.5 M68.3 105.8 L68.3 105.85 68.3 106.0 68.15 105.95 18.25 151.55 M68.3 105.85 L68.25 105.85 68.3 106.0 50.0 193.2 M68.25 105.85 L68.15 105.95 0.05 97.7 M68.3 105.85 L68.25 105.8 68.25 105.85 M68.25 105.8 L68.2 105.7 0.0 45.7 M68.3 105.8 L68.25 105.75 68.25 105.8 M68.25 105.75 L68.2 105.7 18.25 10.05 M68.6 106.0 L68.35 105.8 118.25 60.15 M86.6 18.35 L68.3 105.8 M136.6 114.25 L68.6 106.0 M68.25 105.75 L49.95 0.05"/></g><g id="c8"><g><use transform="matrix(1.0,0.0,0.0,1.0,0.0,0.0)" xlink:href="#c7"/></g></g><g id="c9"><g><use transform="matrix(1.0,0.0,0.0,1.0,0.0,0.0)" xlink:href="#c2"/></g><g><use transform="matrix(0.238861083984,-0.0867004394531,0.10026550293,0.233917236328,34.25,31.15)" xlink:href="#c4"/></g><g><use transform="matrix(0.238861083984,-0.0867004394531,0.10026550293,0.233917236328,4.25,10.3)" xlink:href="#c4"/></g><g><use transform="matrix(0.141098022461,-0.0378112792969,0.111373901367,0.225646972656,20.25,20.65)" filter="url(#filter7)" xlink:href="#c6"/></g><g><use transform="matrix(-0.155029296875,0.0513153076172,0.0841827392578,0.147033691406,22.6,3.15)" filter="url(#filter8)" xlink:href="#c8"/></g></g><filter id="filter7"><feColorMatrix in="SourceGraphic" type="matrix" values="0.0 0.0 0.0 0.0 0.796875 0.0 0.0 0.0 0.0 0.59765625 0.0 0.0 0.0 0.0 0.19921875 0.0 0.0 0.0 1.0 0.0" result="cxform"/><feComposite operator="in" in2="SourceGraphic" result="color-xform"/></filter><filter id="filter8"><feColorMatrix in="SourceGraphic" type="matrix" values="0.0 0.0 0.0 0.0 0.99609375 0.0 0.0 0.0 0.0 0.99609375 0.0 0.0 0.0 0.0 0.99609375 0.0 0.0 0.0 1.0 0.0" result="cxform"/><feComposite operator="in" in2="SourceGraphic" result="color-xform"/></filter><g id="c10"><path fill="#677e94" stroke="none" d="M7.9 1.15 L7.65 1.15 7.65 0.95 7.95 1.0 7.9 1.15 M7.3 2.9 L7.5 2.9 8.25 3.0 8.2 3.2 8.2 3.3 7.85 3.4 7.0 7.55 6.6 7.5 6.55 7.5 6.5 7.65 7.15 7.95 7.15 8.05 6.3 7.85 6.05 7.85 6.15 7.4 6.45 7.45 6.45 7.25 7.3 3.15 7.3 3.1 7.25 3.1 7.3 2.9 M6.55 7.5 L6.45 7.45 6.55 7.5 7.5 2.9 6.55 7.5"/><path fill="#b5934f" stroke="none" d="M7.65 1.15 L7.9 1.15 8.6 1.2 8.85 1.25 8.75 1.45 7.85 1.35 7.8 1.5 7.55 1.6 7.3 2.9 7.1 2.85 7.4 1.1 7.65 1.15"/><path fill="#5a4e39" stroke="none" d="M7.8 1.5 L7.85 1.35 8.75 1.45 8.45 3.0 8.25 2.95 8.45 1.7 7.8 1.5 M7.15 8.4 L7.15 8.8 6.8 8.8 6.05 12.75 6.15 12.75 6.15 12.8 6.05 13.4 5.55 13.15 6.05 13.4 5.85 14.3 5.65 15.35 5.15 15.1 5.65 15.35 5.5 16.3 5.3 17.2 5.15 18.05 4.85 18.05 4.65 17.85 4.8 17.1 4.95 16.25 5.5 16.3 4.95 16.25 5.15 15.1 5.35 14.0 5.85 14.3 5.35 14.0 5.55 13.15 5.65 12.6 5.5 12.55 Q6.15 10.75 6.4 8.6 L7.15 8.4 M6.15 12.8 L5.85 12.7 5.8 12.65 5.65 12.6 5.8 12.65 5.85 12.7 6.15 12.8 M5.3 17.2 L4.8 17.1 5.3 17.2"/><path fill="#adbac6" stroke="none" d="M8.6 1.2 L7.9 1.15 7.95 1.0 8.65 1.05 8.6 1.2 M8.2 3.3 L7.4 7.45 7.4 7.6 7.6 7.7 7.55 8.15 7.25 8.1 7.15 8.05 7.15 7.95 6.5 7.65 6.55 7.5 6.6 7.5 7.0 7.55 7.85 3.4 8.2 3.3 M7.4 7.6 L7.0 7.55 7.4 7.6"/><path fill="#393224" stroke="none" d="M7.3 2.9 L7.55 1.6 7.8 1.5 8.45 1.7 8.25 2.95 8.25 3.0 7.5 2.9 7.3 2.9 M7.25 8.1 L7.15 8.4 6.4 8.6 6.15 8.65 6.3 7.85 7.15 8.05 7.25 8.1"/><path fill="#96825f" stroke="none" d="M7.15 8.8 L6.35 12.85 6.7 12.9 6.55 13.6 6.35 14.6 6.15 15.5 5.95 16.45 5.75 17.35 5.65 17.9 5.15 18.05 5.3 17.2 5.5 16.3 5.95 16.45 5.5 16.3 5.65 15.35 5.85 14.3 6.05 13.4 6.15 12.8 6.15 12.75 6.05 12.75 6.8 8.8 7.15 8.8 M5.4 12.6 L6.15 8.65 6.4 8.6 Q6.15 10.75 5.5 12.55 L5.4 12.6 M6.55 13.6 L6.05 13.4 6.55 13.6 M6.35 14.6 L5.85 14.3 6.35 14.6 M5.75 17.35 L5.3 17.2 5.75 17.35 M6.15 15.5 L5.65 15.35 6.15 15.5"/><path fill="#877756" stroke="none" d="M4.3 17.0 L4.45 16.15 4.95 16.25 4.8 17.1 4.3 17.0 M4.7 14.9 L4.85 13.75 5.35 14.0 5.15 15.1 4.7 14.9 M5.05 12.9 L5.1 12.5 5.4 12.6 5.5 12.55 5.65 12.6 5.55 13.15 5.05 12.9"/><path fill="#dbc18b" stroke="none" d="M4.65 17.85 L4.25 17.4 4.3 17.0 4.8 17.1 4.65 17.85 M4.45 16.15 L4.7 14.9 5.15 15.1 4.95 16.25 4.45 16.15 M4.85 13.75 L5.05 12.9 5.55 13.15 5.35 14.0 4.85 13.75"/><path fill="none" stroke="#000000" stroke-width="0.5" stroke-opacity="0.301960784314" d="M7.9 1.15 L7.65 1.15 7.4 1.1 7.1 2.85 7.3 2.9 7.5 2.9 8.25 3.0 8.2 3.2 M8.75 1.45 L8.85 1.25 8.6 1.2 7.9 1.15 M7.95 1.0 L7.65 0.95 7.65 1.15 M8.6 1.2 L8.65 1.05 7.95 1.0 M8.25 2.95 L8.45 3.0 8.75 1.45 M8.25 3.0 L8.25 2.95 M7.4 7.45 L7.4 7.6 7.6 7.7 7.55 8.15 7.25 8.1 7.15 8.4 7.15 8.8 6.35 12.85 M6.7 12.9 L6.55 13.6 6.35 14.6 6.15 15.5 5.95 16.45 5.75 17.35 5.65 17.9 5.15 18.05 4.85 18.05 4.65 17.85 4.25 17.4 4.3 17.0 4.45 16.15 4.7 14.9 4.85 13.75 5.05 12.9 5.1 12.5 5.4 12.6 6.15 8.65 6.3 7.85 6.05 7.85 6.15 7.4 6.45 7.45 6.45 7.25 M7.25 3.1 L7.3 2.9 M6.6 7.5 L7.0 7.55 7.4 7.6 M6.45 7.45 L6.55 7.5 M6.05 13.4 L6.55 13.6 M7.15 8.05 L7.25 8.1 M5.5 12.55 L5.65 12.6 5.8 12.65 5.85 12.7 6.15 12.8 M6.3 7.85 L7.15 8.05 M5.4 12.6 L5.5 12.55 M5.55 13.15 L6.05 13.4 M5.85 14.3 L6.35 14.6 M5.35 14.0 L4.85 13.75 M5.15 15.1 L5.65 15.35 6.15 15.5 M5.85 14.3 L5.35 14.0 M5.55 13.15 L5.05 12.9 M5.3 17.2 L5.75 17.35 M5.5 16.3 L5.95 16.45 M5.5 16.3 L4.95 16.25 M4.8 17.1 L5.3 17.2 M4.45 16.15 L4.95 16.25 M5.15 15.1 L4.7 14.9 M4.8 17.1 L4.3 17.0"/><path fill="none" stroke="#999999" stroke-width="0.5" d="M7.55 1.6 L7.8 1.5"/><path fill="none" stroke="#d4d4d4" stroke-width="0.5" d="M6.55 7.5 L7.5 2.9"/><path fill="#78808a" stroke="none" d="M2.85 1.65 Q4.05 2.35 5.25 2.7 L7.25 3.1 7.3 3.1 7.3 3.15 6.95 4.9 6.45 7.3 Q6.05 6.5 5.55 6.5 L5.15 6.6 Q4.7 6.8 4.5 7.45 L4.0 6.6 4.65 6.55 4.8 6.15 4.15 5.8 4.05 6.55 4.0 6.55 3.9 6.4 3.9 6.35 3.6 5.7 3.1 4.05 3.35 4.35 3.75 3.55 3.45 3.1 3.05 3.7 2.9 2.65 2.9 2.45 2.9 2.25 2.85 2.0 2.85 1.65 M6.85 4.9 L6.95 4.9 6.85 4.9 4.05 4.05 4.6 5.1 4.7 5.05 6.85 4.9 M5.8 3.8 L6.15 3.8 6.45 3.45 5.7 3.35 5.8 3.8"/><path fill="#626d78" stroke="none" d="M3.05 3.7 L3.45 3.1 3.75 3.55 3.35 4.35 3.1 4.05 3.05 3.7 M3.6 5.7 L3.9 6.35 3.7 6.05 3.6 5.7 M4.0 6.55 L4.05 6.55 4.15 5.8 4.8 6.15 4.65 6.55 4.0 6.6 4.0 6.55 M5.8 3.8 L5.7 3.35 6.45 3.45 6.15 3.8 5.8 3.8"/><path fill="#bdbdbd" stroke="none" d="M2.85 1.65 L2.85 2.0 2.9 2.25 2.9 2.45 2.85 2.2 1.8 1.35 2.95 3.4 2.9 2.7 2.9 2.65 3.05 3.7 2.1 3.5 2.15 3.4 2.15 3.35 1.75 0.95 2.8 1.6 2.85 1.65 M3.1 4.05 L3.6 5.7 2.7 5.65 2.5 4.9 2.45 4.8 2.3 4.15 2.2 3.75 2.75 4.05 3.1 4.05 M4.0 6.6 L4.5 7.45 4.3 8.45 4.2 9.1 3.4 7.45 3.65 7.05 3.25 7.15 3.15 6.95 4.0 6.6"/><path fill="#f0f0f0" stroke="none" d="M2.9 2.45 L2.9 2.65 2.9 2.7 2.95 3.4 1.8 1.35 2.85 2.2 2.9 2.45"/><path fill="#e7e7de" stroke="none" d="M1.75 0.95 L2.15 3.35 1.2 2.65 1.15 2.6 0.6 -0.35 1.75 0.95 M2.15 3.4 L2.1 3.5 3.05 3.7 3.1 4.05 2.75 4.05 2.2 3.75 2.1 3.5 2.15 3.4 M2.5 4.9 L2.7 5.65 2.95 6.4 3.15 6.95 3.25 7.15 2.6 7.35 2.5 7.15 1.65 4.55 2.5 4.9"/><path fill="#9e9e9e" stroke="none" d="M3.9 6.35 L3.9 6.4 4.0 6.55 4.0 6.6 3.15 6.95 2.95 6.4 2.7 5.65 3.6 5.7 3.7 6.05 3.9 6.35 M2.15 3.35 L2.15 3.4 2.1 3.5 2.2 3.75 2.3 4.15 2.45 4.8 2.5 4.9 1.65 4.55 1.4 3.5 1.3 3.15 1.2 2.65 2.15 3.35 M4.2 9.1 L4.2 9.25 4.4 11.15 4.35 11.2 2.95 8.25 3.4 7.45 4.2 9.1"/><path fill="#ffffff" stroke="none" d="M4.4 11.15 L4.4 11.2 4.35 11.2 4.4 11.15"/><path fill="none" stroke="#000000" stroke-width="0.5" stroke-opacity="0.301960784314" d="M6.95 4.9 L7.3 3.15 7.3 3.1 7.25 3.1 5.25 2.7 Q4.05 2.35 2.85 1.65 L2.8 1.6 1.75 0.95 M4.5 7.45 Q4.7 6.8 5.15 6.6 L5.55 6.5 Q6.05 6.5 6.45 7.3 L6.95 4.9 6.85 4.9 4.7 5.05 4.6 5.1 4.05 4.05 6.85 4.9 M1.15 2.6 L0.6 -0.35 1.75 0.95 M1.65 4.55 L1.4 3.5 1.3 3.15 1.2 2.65 M1.65 4.55 L2.5 7.15 2.6 7.35 3.25 7.15 M3.4 7.45 L3.65 7.05 3.25 7.15 M4.2 9.1 L4.3 8.45 4.5 7.45 M4.2 9.25 L4.4 11.15 4.4 11.2 M4.35 11.2 L2.95 8.25 3.4 7.45"/><path fill="none" stroke="#999999" stroke-width="0.5" d="M2.15 3.35 L2.15 3.4 2.1 3.5 2.2 3.75 2.3 4.15 2.45 4.8 2.5 4.9 1.65 4.55 M1.2 2.65 L1.15 2.6 M1.2 2.65 L2.15 3.35 M4.2 9.1 L4.2 9.25"/><path fill="#000000" fill-opacity="0.301960784314" d="M2.2 2.0 Q2.7 2.35 4.4 2.7 6.05 2.95 7.05 3.55 L6.3 7.25 Q6.25 6.6 5.7 6.35 L5.6 5.9 5.45 6.25 5.5 6.25 5.45 6.3 5.2 6.25 5.15 6.4 4.8 6.45 Q4.45 6.6 4.25 7.1 L3.95 8.15 3.75 9.35 3.05 7.75 3.45 7.0 2.75 7.2 Q1.8 4.8 1.25 2.2 L2.0 3.35 Q1.1 1.3 0.9 0.15 L2.3 1.4 4.8 2.55 Q2.55 2.25 1.55 1.1 L2.2 2.0 M4.5 5.0 L6.7 4.85 3.95 4.05 4.4 5.05 4.5 5.0 M4.0 9.4 L4.05 10.0 3.8 9.4 4.1 8.2 4.0 9.4"/></g><g id="c11"><path fill="#ffffff" stroke="none" d="M0.05 28.5 L0.05 28.55 0.0 28.5 0.05 28.5"/><path fill="#e7e7de" stroke="none" d="M25.15 14.1 L28.55 16.05 28.65 16.0 Q33.0 13.6 36.8 10.9 L43.7 11.1 33.8 16.7 33.55 16.8 28.8 16.0 26.15 17.3 27.45 16.6 25.2 15.7 24.15 14.65 25.15 14.1 M28.65 16.0 L28.8 16.0 28.65 16.0 M20.7 19.7 L23.3 18.6 26.75 20.15 Q21.85 22.35 16.8 24.1 L16.15 24.3 14.85 21.9 15.65 21.65 15.65 21.7 17.9 20.8 20.7 19.7 M30.5 18.4 L30.55 18.35 30.7 18.5 30.5 18.4"/><path fill="#f0f0f0" stroke="none" d="M30.0 10.9 L35.4 11.85 26.3 13.4 28.65 11.95 30.0 10.9"/><path fill="#78808a" stroke="none" d="M31.65 9.4 L30.6 10.3 29.9 10.8 28.55 11.85 25.15 14.1 25.7 11.4 23.65 11.55 22.5 14.55 24.15 14.65 Q20.6 16.65 18.0 17.3 L15.35 18.15 15.3 18.15 15.1 18.2 Q14.05 18.45 14.35 18.05 L16.15 15.9 13.3 14.9 12.5 16.35 14.25 18.4 10.35 18.95 Q11.55 16.7 11.1 15.1 10.85 14.05 10.2 13.45 8.7 12.0 5.35 12.8 L10.7 5.55 14.85 0.05 14.9 0.0 14.95 0.05 15.0 0.05 Q18.2 2.8 21.8 4.95 26.4 7.7 31.65 9.4 M11.0 5.75 L10.7 5.55 11.0 5.75 Q15.55 8.7 16.8 12.45 L16.95 12.95 21.2 11.85 11.0 5.75 M16.35 3.35 L16.25 5.25 17.25 6.15 18.85 5.25 16.35 3.35"/><path fill="#bdbdbd" stroke="none" d="M25.15 14.1 L28.55 11.85 29.9 10.8 30.6 10.3 31.65 9.4 31.9 9.5 36.8 10.9 Q33.0 13.6 28.65 16.0 L28.55 16.05 25.15 14.1 M30.0 10.9 L28.65 11.95 26.3 13.4 35.4 11.85 30.0 10.9 M24.15 14.65 L25.2 15.7 27.45 16.6 26.15 17.3 23.8 18.35 23.3 18.6 20.7 19.7 18.0 17.3 Q20.6 16.65 24.15 14.65 M15.65 21.65 L14.85 21.9 14.1 20.55 13.6 22.25 6.45 23.95 8.25 21.95 Q9.65 20.35 10.35 18.95 L14.25 18.4 15.65 21.65"/><path fill="#9e9e9e" stroke="none" d="M26.15 17.3 L28.8 16.0 33.55 16.8 31.9 17.65 30.55 18.35 30.5 18.4 Q28.6 19.3 26.75 20.15 L23.3 18.6 23.8 18.35 26.15 17.3 M20.7 19.7 L17.9 20.8 15.65 21.7 15.65 21.65 14.25 18.4 15.1 18.2 15.3 18.15 15.35 18.15 16.8 17.8 18.0 17.3 20.7 19.7 M6.0 24.35 L6.45 23.95 13.6 22.25 12.55 25.5 Q6.4 27.35 0.05 28.55 L0.05 28.5 Q3.3 26.85 6.0 24.35"/><path fill="#626d78" stroke="none" d="M24.15 14.65 L22.5 14.55 23.65 11.55 25.7 11.4 25.15 14.1 24.15 14.65 M16.35 3.35 L18.85 5.25 17.25 6.15 16.25 5.25 16.35 3.35 M15.35 18.15 L18.0 17.3 16.8 17.8 15.35 18.15 M15.1 18.2 L14.25 18.4 12.5 16.35 13.3 14.9 16.15 15.9 14.35 18.05 Q14.05 18.45 15.1 18.2"/><path fill="none" stroke="#000000" stroke-width="0.5" stroke-opacity="0.301960784314" d="M36.8 10.9 L31.9 9.5 31.65 9.4 Q26.4 7.7 21.8 4.95 18.2 2.8 15.0 0.05 M14.95 0.05 L14.9 0.0 14.85 0.05 10.7 5.55 11.0 5.75 21.2 11.85 16.95 12.95 16.8 12.45 Q15.55 8.7 11.0 5.75 M14.85 21.9 L16.15 24.3 16.8 24.1 Q21.85 22.35 26.75 20.15 M30.55 18.35 L31.9 17.65 33.55 16.8 M30.5 18.4 L30.55 18.35 M30.5 18.4 Q28.6 19.3 26.75 20.15 M33.8 16.7 L43.7 11.1 36.8 10.9 M6.45 23.95 L8.25 21.95 Q9.65 20.35 10.35 18.95 11.55 16.7 11.1 15.1 10.85 14.05 10.2 13.45 8.7 12.0 5.35 12.8 L10.7 5.55 M6.0 24.35 Q3.3 26.85 0.05 28.5 L0.0 28.5 M0.05 28.55 Q6.4 27.35 12.55 25.5 L13.6 22.25 14.1 20.55 14.85 21.9"/><path fill="none" stroke="#999999" stroke-width="0.5" d="M26.15 17.3 L28.8 16.0 28.65 16.0 M26.75 20.15 L23.3 18.6 23.8 18.35 26.15 17.3 M33.55 16.8 L28.8 16.0 M33.55 16.8 L33.8 16.7 M6.45 23.95 L6.0 24.35"/><path fill="#000000" fill-opacity="0.301960784314" d="M16.8 12.55 L16.95 13.05 21.2 11.95 11.0 5.85 Q15.55 8.8 16.8 12.55 M36.3 11.75 Q30.35 11.65 23.0 5.65 29.6 9.25 33.35 10.1 L40.95 11.4 Q37.15 13.55 28.65 16.0 L34.1 15.4 Q25.05 20.25 15.5 23.2 L14.1 20.65 13.15 23.7 6.45 25.6 9.4 22.05 11.55 18.45 Q12.4 16.65 11.75 15.4 L11.0 14.2 11.15 13.75 10.4 13.15 10.55 12.75 10.5 12.8 11.1 11.6 Q10.4 11.75 9.8 12.45 7.25 11.45 5.35 12.9 L14.85 0.15 14.9 0.1 13.85 1.6 13.75 1.65 Q18.2 2.9 23.85 7.25 29.45 11.55 31.8 12.05 L36.3 11.75 M5.55 24.95 L8.8 21.85 6.15 25.65 3.7 26.35 5.55 24.95"/></g><g id="c12"><g><use transform="matrix(1.0,0.0,0.0,1.0,0.0,0.0)" xlink:href="#c11"/></g></g><g id="c13"><path fill="#326666" fill-opacity="0.4" d="M6.5 13.65 L5.0 12.9 5.05 12.5 6.7 12.9 6.5 13.65 M5.95 16.45 L5.75 17.3 4.25 17.0 4.4 16.1 5.95 16.45 M6.3 14.55 L6.15 15.5 4.65 14.95 4.8 13.75 6.3 14.55"/></g><g id="c14"><g><use transform="matrix(1.0,0.0,0.0,1.0,0.0,0.0)" xlink:href="#c10"/></g><g><use transform="matrix(0.222686767578,-0.124130249023,0.103500366211,0.233978271484,4.8,5.0)" xlink:href="#c12"/></g><g><use transform="matrix(1.0,0.0,0.0,1.0,0.0,0.0)" xlink:href="#c13"/></g></g><g id="c15"><g><use transform="matrix(1.0,0.0,0.0,1.0,6.3,53.35)" xlink:href="#c9"/></g><g><use transform="matrix(1.0,0.0,0.0,1.0,19.85,68.2)" xlink:href="#c14"/></g><g><use transform="matrix(0.141098022461,-0.0378112792969,0.111373901367,0.225646972656,27.2,74.05)" filter="url(#filter15)" xlink:href="#c6"/></g></g><filter id="filter15"><feColorMatrix in="SourceGraphic" type="matrix" values="1.0 0.0 0.0 0.0 0.0 0.0 1.0 0.0 0.0 0.0 0.0 0.0 1.0 0.0 0.0 0.0 0.0 0.0 0.23046875 0.0" result="cxform"/><feComposite operator="in" in2="SourceGraphic" result="color-xform"/></filter></defs><g><g><use transform="matrix(1.0,0.0,0.0,1.0,0.0,0.0)" xlink:href="#c1"/></g><g><use transform="matrix(1.15496826172,0.0,0.0,1.15496826172,-1.4,-57.4)" xlink:href="#c15"/></g></g></svg>