<?xml version='1.0' encoding='UTF-8'?>
<svg xmlns:xlink="http://www.w3.org/1999/xlink" xmlns="http://www.w3.org/2000/svg" version="1.1" width="60px" height="60px" viewBox="0.0 0.0 60.0 60.0"><defs><g id="c1"><path fill="#000000" fill-opacity="0.00392156862745" d="M0.0 0.0 L60.0 0.0 60.0 60.0 0.0 60.0 0.0 0.0"/></g><g id="c2"><path fill="none" stroke="#000000" stroke-width="1.0" stroke-opacity="0.301960784314" d="M28.45 3.1 L41.35 31.7 Q42.95 35.15 40.2 36.7 39.5 37.3 38.3 37.65 L36.35 38.3 36.15 38.15 34.0 36.9 33.8 36.8 Q30.65 35.45 27.7 36.35 24.75 37.3 23.7 40.05 L23.6 40.25 Q23.25 41.25 23.25 42.3 L23.25 42.35 23.25 42.55 19.8 43.65 Q17.15 44.45 15.5 43.3 14.35 42.55 13.65 40.9 L0.7 12.25 Q-0.45 9.75 0.75 8.25 1.2 7.6 2.15 7.15 2.8 6.7 3.8 6.35 L6.45 5.5 8.5 6.75 8.7 6.85 Q11.9 8.2 14.85 7.25 17.8 6.35 18.85 3.6 L18.9 3.4 19.3 1.35 22.3 0.4 Q26.55 -1.0 28.45 3.1"/><path fill="#9d147b" stroke="none" d="M35.55 22.3 L28.25 6.1 27.75 4.95 Q26.05 1.25 21.6 2.85 20.8 5.65 18.85 7.6 17.0 9.45 14.2 9.8 11.45 9.95 9.0 8.8 L6.4 7.45 Q1.65 9.1 3.35 12.8 L8.25 23.65 15.0 38.6 15.2 39.0 Q16.8 42.25 20.45 41.1 L21.65 40.55 Q22.7 36.9 25.05 35.5 27.4 34.15 30.2 34.2 33.05 34.2 36.25 36.1 L37.2 35.7 Q41.1 34.5 39.35 30.75 L35.55 22.3 M19.3 1.35 L22.3 0.4 Q26.55 -1.0 28.45 3.1 L41.35 31.7 Q42.95 35.15 40.2 36.7 L38.9 37.25 36.15 38.15 34.0 36.9 33.8 36.8 Q30.65 35.45 27.7 36.35 24.75 37.3 23.7 40.05 L23.6 40.25 Q23.25 41.25 23.25 42.3 L23.2 42.3 20.4 43.2 19.1 43.5 17.3 43.4 Q15.3 42.9 14.2 40.5 L5.45 20.95 1.35 11.8 Q0.4 9.65 1.1 8.3 1.45 7.65 2.15 7.15 2.8 6.7 3.8 6.35 L6.45 5.5 8.5 6.75 8.7 6.85 Q11.9 8.2 14.85 7.25 17.8 6.35 18.85 3.6 L18.9 3.4 19.3 1.35"/><path fill="#c47fad" stroke="none" d="M28.25 6.1 L35.55 22.3 39.35 30.75 Q41.1 34.5 37.2 35.7 L36.25 36.1 Q33.05 34.2 30.2 34.2 27.4 34.15 25.05 35.5 22.7 36.9 21.65 40.55 L20.45 41.1 Q16.8 42.25 15.2 39.0 L15.0 38.6 8.25 23.65 3.35 12.8 Q1.65 9.1 6.4 7.45 L9.0 8.8 Q11.45 9.95 14.2 9.8 17.0 9.45 18.85 7.6 20.8 5.65 21.6 2.85 26.05 1.25 27.75 4.95 L28.25 6.1 M34.0 32.9 L33.7 32.1 Q33.45 30.9 34.1 30.1 34.75 29.3 35.95 29.35 L35.8 29.0 26.5 8.3 26.25 7.85 Q24.9 5.45 22.05 6.35 19.75 11.1 14.85 11.65 11.45 11.85 9.1 10.55 L9.55 11.6 Q9.8 12.8 9.15 13.6 8.4 14.45 7.1 14.4 L6.8 14.4 6.95 14.6 16.3 35.2 Q16.8 36.4 17.65 37.0 18.8 37.8 19.8 37.35 21.8 33.7 25.95 32.3 30.35 30.8 34.0 32.9"/><path fill="#fcf2cf" stroke="none" d="M22.05 6.35 Q24.9 5.45 26.25 7.85 L26.5 8.3 35.8 29.0 35.95 29.35 Q34.75 29.3 34.1 30.1 33.45 30.9 33.7 32.1 L34.0 32.9 Q30.35 30.8 25.95 32.3 21.8 33.7 19.8 37.35 18.8 37.8 17.65 37.0 16.8 36.4 16.3 35.2 L6.95 14.6 6.8 14.4 7.1 14.4 Q8.4 14.45 9.15 13.6 9.8 12.8 9.55 11.6 L9.1 10.55 Q11.45 11.85 14.85 11.65 19.75 11.1 22.05 6.35"/><path fill="#300525" stroke="none" d="M40.2 36.7 Q39.5 37.3 38.3 37.65 L36.35 38.3 36.15 38.15 38.9 37.25 40.2 36.7 M23.25 42.3 L23.25 42.35 23.2 42.3 23.25 42.3 M20.1 43.55 L19.8 43.65 Q17.15 44.45 15.5 43.3 L17.3 43.4 19.1 43.5 20.1 43.55 M4.6 20.9 L0.7 12.25 Q-0.45 9.75 0.75 8.25 L1.1 8.3 Q0.4 9.65 1.35 11.8 L5.45 20.95 4.6 20.9"/><path fill="#630a4c" stroke="none" d="M23.25 42.35 L23.25 42.55 20.1 43.55 19.1 43.5 20.4 43.2 23.2 42.3 23.25 42.35 M15.5 43.3 Q14.35 42.55 13.65 40.9 L4.6 20.9 5.45 20.95 14.2 40.5 Q15.3 42.9 17.3 43.4 L15.5 43.3 M0.75 8.25 Q1.2 7.6 2.15 7.15 1.45 7.65 1.1 8.3 L0.75 8.25"/><path fill="none" stroke="#bf9900" stroke-width="1.0" stroke-opacity="0.749019607843" d="M28.25 6.1 L35.55 22.3 M15.0 38.6 L8.25 23.65"/><path fill="none" stroke="#000000" stroke-width="0.5" stroke-opacity="0.301960784314" d="M19.3 1.35 L22.3 0.4 Q26.55 -1.0 28.45 3.1 L41.35 31.7 Q42.95 35.15 40.2 36.7 39.5 37.3 38.3 37.65 L36.35 38.3 M23.25 42.55 L20.1 43.55 19.8 43.65 Q17.15 44.45 15.5 43.3 14.35 42.55 13.65 40.9 L4.6 20.9 0.7 12.25 Q-0.45 9.75 0.75 8.25 1.2 7.6 2.15 7.15 2.8 6.7 3.8 6.35 L6.45 5.5 M1.1 8.3 Q1.45 7.65 2.15 7.15 M5.45 20.95 L1.35 11.8 Q0.4 9.65 1.1 8.3 M17.3 43.4 Q15.3 42.9 14.2 40.5 L5.45 20.95 M19.1 43.5 L17.3 43.4 M23.2 42.3 L20.4 43.2 19.1 43.5 M23.25 42.3 L23.2 42.3 M40.2 36.7 L38.9 37.25 36.15 38.15"/><path fill="none" stroke="#ffcc00" stroke-width="1.0" stroke-opacity="0.749019607843" d="M35.55 22.3 L39.35 30.75 Q41.1 34.5 37.2 35.7 L36.25 36.1 M21.65 40.55 L20.45 41.1 Q16.8 42.25 15.2 39.0 L15.0 38.6 M8.25 23.65 L3.35 12.8 Q1.65 9.1 6.4 7.45 M21.6 2.85 Q26.05 1.25 27.75 4.95 L28.25 6.1"/><path fill="none" stroke="#f0b92b" stroke-width="0.5" d="M22.05 6.35 Q24.9 5.45 26.25 7.85 L26.5 8.3 35.8 29.0 35.95 29.35 Q34.75 29.3 34.1 30.1 33.45 30.9 33.7 32.1 L34.0 32.9 M19.8 37.35 Q18.8 37.8 17.65 37.0 16.8 36.4 16.3 35.2 L6.95 14.6 6.8 14.4 7.1 14.4 Q8.4 14.45 9.15 13.6 9.8 12.8 9.55 11.6 L9.1 10.55"/><path fill="none" stroke="#ffaa00" stroke-width="1.0" stroke-opacity="0.749019607843" d="M36.25 36.1 Q33.05 34.2 30.2 34.2 27.4 34.15 25.05 35.5 22.7 36.9 21.65 40.55 M6.4 7.45 L9.0 8.8 Q11.45 9.95 14.2 9.8 17.0 9.45 18.85 7.6 20.8 5.65 21.6 2.85"/><path fill="none" stroke="#ffaa00" stroke-width="0.5" stroke-opacity="0.749019607843" d="M34.0 32.9 Q30.35 30.8 25.95 32.3 21.8 33.7 19.8 37.35 M9.1 10.55 Q11.45 11.85 14.85 11.65 19.75 11.1 22.05 6.35"/></g><g id="c3"><path fill="#7fdbfe" stroke="none" d="M10.75 4.9 Q10.75 4.6 10.9 4.35 11.25 3.45 11.95 2.75 13.3 1.5 14.35 2.1 15.4 2.7 14.95 4.45 14.7 5.4 14.1 6.15 L13.75 6.5 Q13.1 7.15 12.35 7.35 L11.4 7.2 Q10.95 6.9 10.75 6.4 10.5 5.75 10.75 4.9 M9.3 1.7 Q9.55 2.65 9.4 3.6 L9.3 4.15 8.5 5.5 7.6 5.9 7.5 5.9 Q7.0 5.85 6.6 5.5 6.05 5.0 5.8 4.15 L5.7 3.6 Q5.55 2.65 5.8 1.7 6.25 0.0 7.5 0.0 L7.6 0.0 Q8.85 0.0 9.3 1.7 M0.15 4.45 Q-0.3 2.7 0.75 2.1 1.8 1.5 3.15 2.75 3.85 3.45 4.2 4.35 L4.35 4.9 Q4.6 5.75 4.35 6.4 L3.7 7.2 2.75 7.35 Q2.0 7.15 1.35 6.5 L1.0 6.15 Q0.4 5.4 0.15 4.45 M7.55 7.0 Q8.75 6.9 9.9 7.6 11.45 8.5 11.95 10.25 12.35 12.0 11.5 12.95 10.7 13.9 9.65 13.7 8.55 13.5 7.55 12.6 6.55 13.5 5.5 13.7 4.45 13.9 3.65 12.95 2.75 12.0 3.2 10.25 3.7 8.5 5.25 7.6 6.4 6.9 7.55 7.0"/></g><g id="c4"><g><use transform="matrix(1.0,0.0,0.0,1.0,0.0,0.0)" xlink:href="#c3"/></g></g><radialGradient gradientUnits="userSpaceOnUse" r="819.2" cx="0" cy="0" spreadMethod="pad" gradientTransform="matrix(0.0914459228516,0.0,0.0,0.0914459228516,0.6,3.4)" id="gradient1"><stop offset="0.0" stop-color="#ffffff"/><stop offset="1.0" stop-color="#ffffff" stop-opacity="0.0"/></radialGradient><g id="c5"><path stroke="none" fill="url(#gradient1)" d="M36.65 -54.65 Q60.05 -42.0 69.75 -17.95 80.55 8.9 68.0 34.1 55.45 59.35 26.8 68.2 -1.8 77.05 -29.7 64.3 -57.6 51.6 -68.45 24.75 -79.3 -2.05 -66.75 -27.25 L-66.7 -27.3 Q-54.1 -52.5 -25.5 -61.4 3.1 -70.2 31.0 -57.5 L36.65 -54.65"/></g><g id="c6"><g><use transform="matrix(1.0,0.0,0.0,1.0,0.0,0.0)" xlink:href="#c5"/></g></g><radialGradient gradientUnits="userSpaceOnUse" r="819.2" cx="0" cy="0" spreadMethod="pad" gradientTransform="matrix(0.209197998047,0.0,0.0,0.177108764648,67.15,107.2)" id="gradient2"><stop offset="0.356862745098" stop-color="#ffffff"/><stop offset="0.670588235294" stop-opacity="0.0"/></radialGradient><g id="c7"><path fill="none" stroke-linejoin="round" stroke-linecap="round" stroke="url(#gradient2)" stroke-width="0.5" d="M136.55 165.8 L68.6 106.0 68.4 106.0 118.25 201.5 M68.3 105.8 L68.35 105.8 68.3 105.8 68.3 105.85 68.4 106.0 68.3 106.0 86.55 211.5 M68.3 105.8 L68.3 105.85 68.3 106.0 68.15 105.95 18.25 151.55 M68.3 105.85 L68.25 105.85 68.3 106.0 50.0 193.2 M68.25 105.85 L68.15 105.95 0.05 97.7 M68.3 105.85 L68.25 105.8 68.25 105.85 M68.25 105.8 L68.2 105.7 0.0 45.7 M68.3 105.8 L68.25 105.75 68.25 105.8 M68.25 105.75 L68.2 105.7 18.25 10.05 M68.6 106.0 L68.35 105.8 118.25 60.15 M86.6 18.35 L68.3 105.8 M136.6 114.25 L68.6 106.0 M68.25 105.75 L49.95 0.05"/></g><g id="c8"><g><use transform="matrix(1.0,0.0,0.0,1.0,0.0,0.0)" xlink:href="#c7"/></g></g><g id="c9"><g><use transform="matrix(1.0,0.0,0.0,1.0,0.0,0.0)" xlink:href="#c2"/></g><g><use transform="matrix(0.238861083984,-0.0867004394531,0.10026550293,0.233917236328,34.25,31.15)" xlink:href="#c4"/></g><g><use transform="matrix(0.238861083984,-0.0867004394531,0.10026550293,0.233917236328,4.25,10.3)" xlink:href="#c4"/></g><g><use transform="matrix(0.141098022461,-0.0378112792969,0.111373901367,0.225646972656,20.25,20.65)" filter="url(#filter7)" xlink:href="#c6"/></g><g><use transform="matrix(-0.155029296875,0.0513153076172,0.0841827392578,0.147033691406,22.6,3.15)" filter="url(#filter8)" xlink:href="#c8"/></g></g><filter id="filter7"><feColorMatrix in="SourceGraphic" type="matrix" values="0.0 0.0 0.0 0.0 0.796875 0.0 0.0 0.0 0.0 0.59765625 0.0 0.0 0.0 0.0 0.19921875 0.0 0.0 0.0 1.0 0.0" result="cxform"/><feComposite operator="in" in2="SourceGraphic" result="color-xform"/></filter><filter id="filter8"><feColorMatrix in="SourceGraphic" type="matrix" values="0.0 0.0 0.0 0.0 0.99609375 0.0 0.0 0.0 0.0 0.99609375 0.0 0.0 0.0 0.0 0.99609375 0.0 0.0 0.0 1.0 0.0" result="cxform"/><feComposite operator="in" in2="SourceGraphic" result="color-xform"/></filter><g id="c10"><path fill="#423e28" stroke="none" d="M11.85 4.55 L12.0 4.55 12.5 4.8 12.65 6.15 11.4 10.1 9.7 10.05 10.4 8.45 11.05 6.75 11.05 6.45 11.1 5.85 11.15 5.5 11.85 4.55 M6.95 10.05 L6.75 10.05 6.5 10.1 6.25 9.9 6.65 9.35 7.0 9.2 6.85 9.8 6.95 10.05 M8.05 5.6 L8.25 5.9 7.7 6.85 7.3 8.05 7.0 9.1 7.05 7.85 7.25 6.95 7.4 6.6 8.05 5.6"/><path fill="#5f5a3a" stroke="none" d="M5.75 7.55 L5.9 6.65 6.35 6.2 7.8 5.55 5.75 7.55 M8.25 5.9 L8.4 5.6 11.85 4.55 11.15 5.5 11.1 5.85 9.45 6.75 7.7 6.85 8.25 5.9"/><path fill="#dfd090" stroke="none" d="M11.05 6.45 L11.05 6.75 10.4 8.45 10.7 7.0 11.05 6.75 10.7 7.0 8.3 8.55 11.05 6.45"/><path fill="#a89d6d" stroke="none" d="M9.7 10.05 L7.85 10.45 7.15 10.3 6.95 10.05 6.85 9.8 7.35 9.2 8.2 8.6 8.3 8.55 10.7 7.0 10.4 8.45 9.7 10.05 M6.25 9.9 L6.15 9.6 6.0 9.3 5.65 9.1 5.35 9.05 5.6 8.5 5.15 8.85 5.55 7.9 5.6 8.5 7.05 7.85 7.0 9.1 7.0 9.2 6.65 9.35 6.25 9.9"/><path fill="#96875a" stroke="none" d="M5.55 7.9 L5.75 7.55 7.8 5.55 8.05 5.6 7.4 6.6 7.25 6.95 7.05 7.85 5.6 8.5 5.55 7.9 M11.1 5.85 L11.05 6.45 8.3 8.55 8.2 8.6 7.35 9.2 7.3 8.05 7.7 6.85 9.45 6.75 11.1 5.85"/><path fill="#7a744a" stroke="none" d="M5.5 9.6 L5.2 9.3 5.35 9.05 5.65 9.1 5.5 9.6"/><path fill="#cfc286" stroke="none" d="M5.2 9.3 L5.15 8.85 5.6 8.5 5.35 9.05 5.2 9.3 M7.3 8.05 L7.35 9.2 6.85 9.8 7.0 9.2 7.0 9.1 7.3 8.05"/><path fill="#968e5a" stroke="none" d="M6.15 9.6 L5.65 9.85 5.5 9.6 5.65 9.1 6.0 9.3 6.15 9.6"/><path fill="none" stroke="#000000" stroke-width="0.5" stroke-opacity="0.301960784314" d="M11.85 4.55 L12.0 4.55 12.5 4.8 12.65 6.15 11.4 10.1 9.7 10.05 7.85 10.45 7.15 10.3 6.95 10.05 6.75 10.05 6.5 10.1 6.25 9.9 6.15 9.6 5.65 9.85 5.5 9.6 5.2 9.3 5.15 8.85 5.55 7.9 5.75 7.55 5.9 6.65 6.35 6.2 7.8 5.55 8.05 5.6 8.25 5.9 8.4 5.6 11.85 4.55 11.15 5.5 11.1 5.85 11.05 6.45 11.05 6.75 10.4 8.45 9.7 10.05 M11.05 6.75 L10.7 7.0 8.3 8.55 M7.7 6.85 L7.3 8.05 7.35 9.2 8.2 8.6 M7.05 7.85 L7.25 6.95 7.4 6.6 8.05 5.6 M5.55 7.9 L5.6 8.5 7.05 7.85 7.0 9.1 7.3 8.05 M5.35 9.05 L5.6 8.5 5.15 8.85 M5.65 9.1 L5.35 9.05 5.2 9.3 M7.0 9.2 L7.0 9.1 M6.95 10.05 L6.85 9.8 7.0 9.2 6.65 9.35 6.25 9.9 M5.65 9.1 L6.0 9.3 6.15 9.6 M7.35 9.2 L6.85 9.8 M5.5 9.6 L5.65 9.1 M7.7 6.85 L8.25 5.9 M5.75 7.55 L7.8 5.55"/><path fill="#423e28" stroke="none" d="M11.4 9.85 Q11.9 9.75 12.0 10.6 L11.65 11.3 11.15 11.0 10.3 11.1 10.55 10.75 Q11.1 10.5 11.6 10.2 L11.5 10.05 11.6 10.2 Q11.1 10.5 10.55 10.75 L8.8 11.65 8.25 12.1 7.55 12.7 8.25 12.1 7.95 13.3 7.7 13.65 7.1 13.75 7.1 13.5 7.55 12.7 7.2 13.0 6.9 12.9 7.25 12.6 8.25 11.8 9.7 10.85 11.5 10.05 11.4 9.85 M9.6 17.1 L8.5 17.25 8.55 16.55 7.85 16.45 6.75 16.0 5.75 15.05 6.35 14.55 7.6 14.45 8.45 15.25 9.6 17.1 M10.3 9.3 L10.4 9.55 8.6 10.45 8.2 10.65 7.95 10.6 9.5 9.7 9.6 9.65 10.3 9.3"/><path fill="#a89d6d" stroke="none" d="M5.75 12.85 L6.2 12.4 6.5 11.2 6.6 11.3 6.75 11.3 7.0 11.55 7.0 11.15 7.85 10.4 7.95 10.6 8.2 10.65 8.6 10.45 8.7 11.3 8.25 11.8 7.25 12.6 6.85 12.15 6.95 11.7 7.0 11.55 6.95 11.7 6.85 12.15 6.75 12.5 6.9 12.9 7.2 13.0 7.55 12.7 7.1 13.5 6.9 13.6 6.75 13.2 5.75 12.85 M10.4 9.55 L11.25 9.6 11.4 9.85 11.5 10.05 9.7 10.85 8.9 11.1 8.6 10.45 10.4 9.55 M8.05 13.25 L8.1 13.2 9.5 12.6 8.7 14.45 8.25 13.8 8.0 13.65 7.7 13.65 7.95 13.3 8.05 13.25"/><path fill="#96875a" stroke="none" d="M6.2 10.9 L6.2 10.6 6.4 9.95 7.35 9.7 7.3 9.55 8.55 9.3 10.3 9.3 9.6 9.65 9.5 9.7 8.0 10.3 7.35 9.7 7.85 10.4 7.0 11.15 6.2 10.9 M10.55 10.75 L10.3 11.1 10.3 11.05 9.25 12.5 8.1 13.2 8.05 13.25 7.95 13.3 8.25 12.1 8.8 11.65 10.55 10.75"/><path fill="#dfd090" stroke="none" d="M5.75 15.05 L5.65 14.35 5.75 14.3 6.35 14.55 5.75 15.05 M8.1 13.2 L9.25 12.5 10.3 11.05 10.3 11.1 9.65 12.15 9.7 12.7 10.7 13.3 9.55 12.95 8.8 14.6 8.7 14.45 9.5 12.6 8.1 13.2 M6.85 12.15 L7.25 12.6 6.9 12.9 6.75 12.5 6.85 12.15 M8.25 11.8 L8.7 11.3 8.6 10.45 8.9 11.1 9.7 10.85 8.25 11.8 M7.95 10.6 L7.85 10.4 7.35 9.7 8.0 10.3 9.5 9.7 7.95 10.6 M8.7 11.3 L8.9 11.1 8.7 11.3 M8.0 13.65 L8.25 13.8 7.6 14.45 8.0 13.65"/><path fill="#5f5a3a" stroke="none" d="M11.65 11.3 L10.95 12.45 10.9 13.4 10.7 13.3 9.7 12.7 9.65 12.15 10.3 11.1 11.15 11.0 11.65 11.3 M9.8 16.0 L9.7 16.9 9.6 17.1 8.45 15.25 7.6 14.45 8.25 13.8 8.7 14.45 8.8 14.6 9.8 16.0 M8.5 17.25 L7.95 16.65 7.85 16.45 8.55 16.55 8.5 17.25 M6.5 11.2 L6.2 10.9 7.0 11.15 7.0 11.55 6.75 11.3 6.6 11.3 6.5 11.2"/><path fill="#cfc286" stroke="none" d="M5.75 14.3 L6.3 13.9 6.85 13.75 7.1 13.75 7.7 13.65 8.0 13.65 7.6 14.45 6.35 14.55 5.75 14.3"/><path fill="#706b44" stroke="none" d="M10.9 13.4 L9.8 16.0 8.8 14.6 9.55 12.95 10.7 13.3 10.9 13.4 M7.95 16.65 L6.75 16.0 7.85 16.45 7.95 16.65 M6.85 13.75 L6.5 13.6 6.9 13.6 7.1 13.5 7.1 13.75 6.85 13.75"/><path fill="#a89e64" stroke="none" d="M6.9 13.6 L6.5 13.6 6.75 13.2 6.9 13.6"/><path fill="#968e5a" stroke="none" d="M6.5 13.6 L6.2 13.25 5.75 12.85 6.75 13.2 6.5 13.6"/><path fill="none" stroke="#000000" stroke-width="0.5" stroke-opacity="0.301960784314" d="M11.4 9.85 Q11.9 9.75 12.0 10.6 L11.65 11.3 10.95 12.45 10.9 13.4 9.8 16.0 9.7 16.9 9.6 17.1 8.5 17.25 7.95 16.65 6.75 16.0 5.75 15.05 5.65 14.35 5.75 14.3 6.3 13.9 6.85 13.75 6.5 13.6 6.2 13.25 5.75 12.85 6.2 12.4 6.5 11.2 6.2 10.9 6.2 10.6 6.4 9.95 7.35 9.7 7.3 9.55 8.55 9.3 10.3 9.3 10.4 9.55 11.25 9.6 11.4 9.85 11.5 10.05 11.6 10.2 Q11.1 10.5 10.55 10.75 L10.3 11.1 9.65 12.15 9.7 12.7 10.7 13.3 10.9 13.4 M7.0 11.55 L6.95 11.7 6.85 12.15 7.25 12.6 8.25 11.8 8.7 11.3 M8.6 10.45 L8.2 10.65 7.95 10.6 7.85 10.4 7.0 11.15 7.0 11.55 6.75 11.3 6.6 11.3 6.5 11.2 M7.0 11.15 L6.2 10.9 M9.6 9.65 L10.3 9.3 M8.25 12.1 L8.8 11.65 10.55 10.75 M8.6 10.45 L8.9 11.1 9.7 10.85 11.5 10.05 M9.5 9.7 L7.95 10.6 M9.7 10.85 L8.25 11.8 M8.9 11.1 L8.7 11.3 M7.35 9.7 L7.85 10.4 M8.1 13.2 L9.5 12.6 M8.7 14.45 L8.8 14.6 9.55 12.95 M7.95 13.3 L8.05 13.25 M7.95 13.3 L7.7 13.65 8.0 13.65 8.25 13.8 8.7 14.45 M7.6 14.45 L8.45 15.25 9.6 17.1 M7.6 14.45 L8.0 13.65 M7.6 14.45 L8.25 13.8 M6.9 12.9 L7.2 13.0 7.55 12.7 8.25 12.1 7.95 13.3 M6.85 12.15 L6.75 12.5 6.9 12.9 7.25 12.6 M6.9 13.6 L6.5 13.6 6.75 13.2 5.75 12.85 M6.75 13.2 L6.9 13.6 7.1 13.5 7.55 12.7 M7.1 13.5 L7.1 13.75 7.7 13.65 M6.85 13.75 L7.1 13.75 M6.35 14.55 L5.75 14.3 M5.75 15.05 L6.35 14.55 7.6 14.45 M7.95 16.65 L7.85 16.45 6.75 16.0 M7.85 16.45 L8.55 16.55 8.5 17.25 M8.8 14.6 L9.8 16.0 M10.4 9.55 L8.6 10.45"/><path fill="#a89d6d" stroke="none" d="M6.1 2.5 L6.05 3.1 6.35 3.45 6.05 3.4 5.85 3.45 5.3 3.25 5.3 3.1 5.9 2.5 6.1 2.5 M6.55 4.3 L7.0 4.15 6.95 4.75 6.55 4.3"/><path fill="#5f5a3a" stroke="none" d="M6.1 2.5 L6.6 2.4 6.75 3.5 6.35 3.45 6.05 3.1 6.1 2.5"/><path fill="#423e28" stroke="none" d="M6.35 3.45 L6.75 3.5 7.2 3.95 6.4 3.65 6.0 3.75 5.45 3.55 5.85 3.45 6.05 3.4 6.35 3.45 M6.55 4.3 L6.95 4.75 7.2 5.0 6.75 4.75 6.55 4.3"/><path fill="#cfc286" stroke="none" d="M5.45 3.55 L5.3 3.25 5.85 3.45 5.45 3.55"/><path fill="none" stroke="#000000" stroke-width="0.5" stroke-opacity="0.301960784314" d="M6.75 3.5 L6.6 2.4 6.1 2.5 M6.35 3.45 L6.75 3.5 7.2 3.95 6.4 3.65 6.0 3.75 5.45 3.55 5.3 3.25 5.3 3.1 5.9 2.5 6.1 2.5 M6.95 4.75 L7.0 4.15 6.55 4.3 6.95 4.75 7.2 5.0 6.75 4.75 6.55 4.3 M5.3 3.25 L5.85 3.45 6.05 3.4 6.35 3.45 M5.45 3.55 L5.85 3.45"/><path fill="#706b44" stroke="none" d="M9.2 -1.8 L10.05 -1.75 10.95 -1.75 11.3 -1.75 12.1 -1.45 12.95 -1.25 12.75 -0.85 11.4 -1.25 11.1 -1.25 11.4 -1.25 12.7 -0.65 13.1 0.4 12.35 0.05 12.25 0.05 11.05 -0.1 11.15 -0.3 11.25 -0.55 10.8 -1.2 11.1 -1.25 9.65 -1.3 9.65 -1.5 9.2 -1.8 M14.0 2.4 L13.6 3.15 13.4 2.7 13.35 2.65 12.8 2.35 12.8 1.1 12.8 0.95 12.8 1.1 11.45 1.15 10.85 2.3 10.8 2.35 10.6 2.75 10.55 2.8 9.65 4.9 9.05 5.0 8.45 4.7 8.8 4.85 9.3 4.75 8.8 4.85 8.45 4.7 8.25 4.65 7.9 4.35 7.75 3.9 7.4 3.7 7.7 3.8 8.05 3.95 8.2 4.1 8.75 4.6 9.15 4.6 9.3 4.75 10.95 0.65 12.8 0.95 13.5 1.15 14.05 2.2 14.0 2.4 M9.0 6.35 Q8.05 6.6 7.35 6.35 L7.4 6.35 10.0 5.75 9.0 6.35"/><path fill="#968e5a" stroke="none" d="M9.65 -1.5 L9.65 -1.3 9.7 -1.15 9.35 -1.05 9.3 -0.95 9.0 -1.2 9.65 -1.5"/><path fill="#423e28" stroke="none" d="M9.65 -1.3 L11.1 -1.25 10.8 -1.2 10.5 -1.2 9.7 -1.15 9.65 -1.3 M12.1 -1.45 L11.3 -1.75 10.95 -1.75 11.3 -2.1 12.1 -1.45 M13.1 0.4 L13.7 0.7 13.9 1.05 14.4 1.85 14.35 2.4 14.0 2.4 14.05 2.2 13.5 1.15 12.8 0.95 10.95 0.65 10.7 0.4 12.45 0.35 12.35 0.2 12.25 0.05 12.35 0.05 13.1 0.4 M11.7 5.1 Q10.2 6.05 9.0 6.35 L10.0 5.75 11.25 4.95 11.7 5.1 M6.4 2.0 L6.15 1.8 6.5 1.4 8.55 0.95 8.4 1.05 6.4 1.75 6.4 2.0 M10.1 1.45 L9.9 0.8 10.4 0.6 10.1 1.45 M7.1 3.75 L7.1 3.5 7.35 3.05 Q7.5 2.9 7.6 2.9 L7.5 3.1 7.4 3.7 7.75 3.9 7.6 3.95 7.45 3.95 Q7.25 3.95 7.15 3.8 L7.1 3.75"/><path fill="#cfc286" stroke="none" d="M9.2 -1.8 L9.65 -1.5 9.0 -1.2 9.2 -1.8 M10.3 -1.95 L10.3 -2.1 10.5 -2.3 10.6 -2.1 10.3 -1.95 M6.9 4.9 L6.95 3.9 7.15 4.55 7.05 5.25 6.9 4.9 M10.55 2.8 L10.6 2.75 10.8 2.35 10.85 2.3 11.3 2.1 11.55 2.1 11.6 2.15 11.7 2.25 11.85 2.45 11.85 2.7 11.6 3.2 11.1 3.4 10.95 3.35 10.85 3.35 10.7 3.25 10.65 3.25 10.55 2.85 10.55 2.8 M8.75 1.3 L9.7 1.05 10.1 1.45 9.8 2.3 8.7 3.95 8.2 4.1 8.05 3.95 7.7 3.8 7.5 3.1 7.6 2.9 7.65 2.75 8.0 1.5 8.5 1.35 8.75 1.3"/><path fill="#a89d6d" stroke="none" d="M10.95 -1.75 L10.05 -1.75 10.3 -1.95 10.6 -2.1 10.5 -2.3 11.3 -2.1 10.95 -1.75 M9.7 -1.15 L10.5 -1.2 11.0 -0.7 11.15 -0.3 11.05 -0.1 9.4 -0.25 7.6 0.4 8.05 -0.1 9.55 -0.8 9.35 -1.05 9.7 -1.15 M7.35 6.35 Q6.85 6.2 6.5 5.75 L7.05 5.25 7.15 4.55 6.95 3.9 6.7 3.7 6.75 3.35 6.3 2.5 6.4 2.0 6.4 1.75 8.4 1.05 8.0 1.5 8.4 1.05 8.55 0.95 8.6 0.8 10.3 0.25 10.7 0.4 10.4 0.6 9.9 0.8 8.75 1.3 8.5 1.35 8.0 1.5 7.65 2.75 7.3 2.95 7.0 3.4 7.1 3.75 7.15 3.8 Q7.25 3.95 7.45 3.95 L7.6 3.95 7.75 3.9 7.9 4.35 8.25 4.65 8.45 4.7 9.05 5.0 9.65 4.9 10.55 2.8 10.55 2.85 10.65 3.25 10.7 3.25 10.75 3.4 10.8 3.4 11.2 3.55 11.75 3.3 12.05 2.75 11.95 2.25 11.65 2.1 11.6 2.15 11.55 2.1 11.3 2.1 10.85 2.3 11.45 1.15 12.8 1.1 12.4 2.45 11.25 4.6 9.9 5.6 7.4 6.35 7.35 6.35 M6.15 1.8 L6.5 0.85 6.65 1.25 6.5 1.4 6.15 1.8 M8.2 4.1 L8.7 3.95 9.2 4.0 9.15 4.6 8.75 4.6 8.2 4.1"/><path fill="#dfd090" stroke="none" d="M10.5 -1.2 L10.8 -1.2 11.25 -0.55 11.15 -0.3 11.0 -0.7 10.5 -1.2 M9.35 -1.05 L9.55 -0.8 8.05 -0.1 9.2 -0.75 9.3 -0.95 9.35 -1.05 M7.6 0.4 L9.4 -0.25 11.05 -0.1 12.25 0.05 12.35 0.2 9.5 -0.1 8.2 0.3 6.65 1.25 6.5 0.85 7.6 0.4 M6.5 5.75 L6.5 5.3 6.9 4.9 7.05 5.25 6.5 5.75 M6.7 3.7 L6.4 3.2 6.3 2.5 6.75 3.35 6.7 3.7 M12.8 1.1 L12.8 2.35 13.35 2.65 13.4 2.7 12.7 2.55 11.25 4.95 10.0 5.75 7.4 6.35 9.9 5.6 11.25 4.6 12.4 2.45 12.8 1.1 M9.9 0.8 L10.1 1.45 9.7 1.05 8.75 1.3 9.9 0.8 M8.7 3.95 L9.8 2.3 9.2 4.0 8.7 3.95"/><path fill="#5f5a3a" stroke="none" d="M11.4 -1.25 L12.75 -0.85 12.95 -1.25 13.6 -0.1 13.9 1.05 13.7 0.7 13.1 0.4 12.7 -0.65 11.4 -1.25 M13.6 3.15 Q13.05 4.15 11.9 5.0 L11.7 5.1 11.25 4.95 12.7 2.55 13.4 2.7 13.6 3.15 M10.95 0.65 L9.3 4.75 9.15 4.6 9.2 4.0 9.8 2.3 10.1 1.45 10.4 0.6 10.7 0.4 10.95 0.65 M11.6 2.15 L11.65 2.1 11.95 2.25 12.05 2.75 11.75 3.3 11.2 3.55 10.8 3.4 10.75 3.4 10.7 3.25 10.85 3.35 10.95 3.35 11.1 3.4 11.6 3.2 11.85 2.7 11.85 2.45 11.7 2.25 11.6 2.15 M7.65 2.75 L7.6 2.9 Q7.5 2.9 7.35 3.05 L7.1 3.5 7.1 3.75 7.0 3.4 7.3 2.95 7.65 2.75"/><path fill="#7a744a" stroke="none" d="M12.35 0.2 L12.45 0.35 10.7 0.4 10.3 0.25 8.6 0.8 8.55 0.95 6.5 1.4 6.65 1.25 8.2 0.3 9.5 -0.1 12.35 0.2"/><path fill="#bfb072" stroke="none" d="M7.5 3.1 L7.7 3.8 7.4 3.7 7.5 3.1"/><path fill="none" stroke="#000000" stroke-width="0.5" stroke-opacity="0.301960784314" d="M10.05 -1.75 L9.2 -1.8 9.65 -1.5 9.65 -1.3 11.1 -1.25 11.4 -1.25 12.75 -0.85 12.95 -1.25 12.1 -1.45 11.3 -1.75 10.95 -1.75 10.05 -1.75 10.3 -1.95 10.3 -2.1 10.5 -2.3 11.3 -2.1 12.1 -1.45 M9.65 -1.3 L9.7 -1.15 10.5 -1.2 10.8 -1.2 11.1 -1.25 M9.0 -1.2 L9.65 -1.5 M9.35 -1.05 L9.7 -1.15 M9.3 -0.95 L9.0 -1.2 9.2 -1.8 M8.05 -0.1 L9.55 -0.8 9.35 -1.05 9.3 -0.95 9.2 -0.75 8.05 -0.1 7.6 0.4 9.4 -0.25 11.05 -0.1 11.15 -0.3 11.25 -0.55 10.8 -1.2 M10.3 -1.95 L10.6 -2.1 10.5 -2.3 M10.95 -1.75 L11.3 -2.1 M13.9 1.05 L13.6 -0.1 12.95 -1.25 M11.4 -1.25 L12.7 -0.65 13.1 0.4 13.7 0.7 13.9 1.05 14.4 1.85 14.35 2.4 14.0 2.4 13.6 3.15 Q13.05 4.15 11.9 5.0 L11.7 5.1 Q10.2 6.05 9.0 6.35 8.05 6.6 7.35 6.35 6.85 6.2 6.5 5.75 L6.5 5.3 6.9 4.9 6.95 3.9 6.7 3.7 6.4 3.2 6.3 2.5 6.4 2.0 6.15 1.8 6.5 0.85 7.6 0.4 M12.8 1.1 L12.8 0.95 10.95 0.65 9.3 4.75 8.8 4.85 8.45 4.7 M10.55 2.8 L10.6 2.75 10.8 2.35 10.85 2.3 11.3 2.1 11.55 2.1 11.6 2.15 11.65 2.1 11.95 2.25 12.05 2.75 11.75 3.3 11.2 3.55 10.8 3.4 10.75 3.4 10.7 3.25 10.65 3.25 10.55 2.85 M12.8 1.1 L12.8 2.35 13.35 2.65 13.4 2.7 13.6 3.15 M14.0 2.4 L14.05 2.2 13.5 1.15 12.8 0.95 M12.7 2.55 L11.25 4.95 11.7 5.1 M10.7 0.4 L12.45 0.35 12.35 0.2 12.25 0.05 11.05 -0.1 M8.2 0.3 L6.65 1.25 6.5 1.4 8.55 0.95 8.6 0.8 10.3 0.25 10.7 0.4 10.95 0.65 M12.25 0.05 L12.35 0.05 13.1 0.4 M10.4 0.6 L10.7 0.4 M10.85 3.35 L10.7 3.25 M7.4 6.35 L10.0 5.75 11.25 4.95 M10.1 1.45 L9.9 0.8 8.75 1.3 M10.1 1.45 L10.4 0.6 9.9 0.8 M8.0 1.5 L8.4 1.05 6.4 1.75 6.4 2.0 M8.4 1.05 L8.55 0.95 M8.0 1.5 L8.5 1.35 M7.6 2.9 L7.65 2.75 7.3 2.95 7.0 3.4 7.1 3.75 M7.6 2.9 L7.5 3.1 7.7 3.8 8.05 3.95 8.2 4.1 8.7 3.95 9.8 2.3 10.1 1.45 M7.65 2.75 L8.0 1.5 M6.5 0.85 L6.65 1.25 M6.5 1.4 L6.15 1.8 M7.75 3.9 L7.6 3.95 7.45 3.95 Q7.25 3.95 7.15 3.8 L7.1 3.75 M7.5 3.1 L7.4 3.7 7.7 3.8 M6.7 3.7 L6.75 3.35 6.3 2.5 M7.05 5.25 L7.15 4.55 6.95 3.9 M7.05 5.25 L6.9 4.9 M6.5 5.75 L7.05 5.25 M9.2 4.0 L9.15 4.6 9.3 4.75 M7.75 3.9 L7.9 4.35 8.25 4.65 8.45 4.7 M9.15 4.6 L8.75 4.6 8.2 4.1 M8.7 3.95 L9.2 4.0 9.8 2.3 M7.4 3.7 L7.75 3.9 M7.4 6.35 L7.35 6.35 M9.0 6.35 L10.0 5.75"/><path fill="#dfd090" stroke="none" d="M13.55 3.55 L14.35 2.6 14.15 3.05 14.6 3.75 13.95 3.25 13.55 3.55"/><path fill="#5f5a3a" stroke="none" d="M14.35 2.6 L14.2 2.2 14.65 2.85 14.65 3.85 14.6 3.75 14.15 3.05 14.35 2.6"/><path fill="#a89d6d" stroke="none" d="M13.15 3.4 L13.3 3.3 13.65 2.85 13.35 2.65 12.6 2.65 12.95 2.1 14.2 2.2 14.35 2.6 13.55 3.55 12.75 3.9 11.9 4.1 12.35 3.5 12.95 3.5 13.15 3.4"/><path fill="#423e28" stroke="none" d="M12.6 2.65 L13.35 2.65 13.65 2.85 13.3 3.3 13.15 3.4 13.05 3.05 12.6 2.65 M11.9 4.1 L12.75 3.9 13.95 4.45 12.1 4.55 11.9 4.1"/><path fill="#706b44" stroke="none" d="M12.75 3.9 L13.55 3.55 13.95 3.25 14.6 3.75 14.65 3.85 13.95 4.45 12.75 3.9"/><path fill="none" stroke="#000000" stroke-width="0.5" stroke-opacity="0.301960784314" d="M12.6 2.65 L13.35 2.65 13.65 2.85 13.3 3.3 13.15 3.4 12.95 3.5 12.35 3.5 11.9 4.1 12.75 3.9 13.55 3.55 13.95 3.25 M14.35 2.6 L14.2 2.2 12.95 2.1 12.6 2.65 13.05 3.05 13.15 3.4 M14.65 3.85 L14.65 2.85 14.2 2.2 M14.6 3.75 L14.15 3.05 14.35 2.6 M13.95 4.45 L12.1 4.55 11.9 4.1 M13.95 4.45 L12.75 3.9 M14.6 3.75 L14.65 3.85 13.95 4.45"/><path fill="#a89d6d" stroke="none" d="M11.6 5.65 L11.95 5.0 12.55 4.65 13.4 4.65 12.95 5.5 11.6 5.65 M10.8 8.3 L11.0 8.25 11.65 7.0 12.85 5.75 13.35 5.75 12.95 6.55 12.95 7.65 12.55 8.5 12.05 9.05 11.55 8.25 11.5 8.2 11.0 8.25 11.5 8.2 11.55 8.25 11.4 8.55 10.5 9.2 9.8 9.3 9.7 8.9 10.8 8.3"/><path fill="#dfd090" stroke="none" d="M9.55 9.4 L9.45 8.75 10.8 8.3 9.7 8.9 9.8 9.3 9.55 9.4 M11.6 5.65 L12.95 5.5 13.4 4.65 13.35 5.6 13.55 5.95 13.2 6.6 13.1 7.6 12.6 8.95 12.2 9.3 12.05 9.05 12.55 8.5 12.95 7.65 12.95 6.55 13.35 5.75 12.85 5.75 11.6 5.65"/><path fill="#968e5a" stroke="none" d="M13.4 4.65 L14.05 4.8 14.6 5.6 13.55 5.95 13.35 5.6 13.4 4.65 M12.85 11.15 L12.45 11.25 12.35 10.65 12.85 11.15 M12.2 9.3 L12.6 8.95 12.55 9.75 12.2 9.3"/><path fill="#5f5a3a" stroke="none" d="M14.6 5.6 L14.3 6.7 13.9 7.5 13.3 10.45 12.55 9.75 12.6 8.95 13.1 7.6 13.2 6.6 13.55 5.95 14.6 5.6"/><path fill="#96875a" stroke="none" d="M11.65 7.0 L11.6 5.65 12.85 5.75 11.65 7.0"/><path fill="#cfc286" stroke="none" d="M9.45 8.75 L9.85 8.4 10.8 8.3 9.45 8.75 M10.5 9.2 L11.4 8.55 11.45 9.45 10.5 9.2"/><path fill="#706b44" stroke="none" d="M13.3 10.45 L12.85 11.15 12.35 10.65 11.45 9.45 11.4 8.55 11.55 8.25 12.05 9.05 12.2 9.3 12.55 9.75 13.3 10.45"/><path fill="#423e28" stroke="none" d="M12.45 11.25 L11.05 11.05 9.55 9.4 9.8 9.3 10.5 9.2 11.45 9.45 12.35 10.65 12.45 11.25"/><path fill="none" stroke="#000000" stroke-width="0.5" stroke-opacity="0.301960784314" d="M11.6 5.65 L11.95 5.0 12.55 4.65 13.4 4.65 14.05 4.8 14.6 5.6 14.3 6.7 13.9 7.5 13.3 10.45 12.85 11.15 12.45 11.25 11.05 11.05 9.55 9.4 9.45 8.75 9.85 8.4 10.8 8.3 11.0 8.25 11.65 7.0 11.6 5.65 12.85 5.75 11.65 7.0 M13.4 4.65 L13.35 5.6 13.55 5.95 14.6 5.6 M12.05 9.05 L12.2 9.3 12.6 8.95 13.1 7.6 13.2 6.6 13.55 5.95 M11.0 8.25 L11.5 8.2 11.55 8.25 12.05 9.05 M11.4 8.55 L10.5 9.2 11.45 9.45 11.4 8.55 11.55 8.25 M11.45 9.45 L12.35 10.65 12.85 11.15 M12.2 9.3 L12.55 9.75 12.6 8.95 M12.35 10.65 L12.45 11.25 M12.55 9.75 L13.3 10.45 M9.55 9.4 L9.8 9.3 10.5 9.2 M10.8 8.3 L9.45 8.75"/></g><g id="c11"><path fill="#000000" fill-opacity="0.2" d="M67.1 47.3 Q60.05 84.7 45.15 118.0 L67.1 47.3"/><path fill="none" stroke="#000000" stroke-width="0.5" stroke-opacity="0.301960784314" d="M72.8 0.4 Q71.4 24.6 67.1 47.3 60.05 84.7 45.15 118.0 L45.0 118.3 Q38.65 132.5 20.0 163.6 M43.75 69.05 Q26.65 113.65 20.4 117.6 17.55 109.85 28.1 81.45 38.25 56.05 47.2 54.0 48.65 56.75 43.75 69.05 M48.0 24.8 Q34.25 59.6 13.6 90.6 7.15 100.3 0.0 109.6 M66.8 0.0 Q53.65 80.05 13.6 143.35 L12.4 145.2 M67.1 47.3 L45.15 118.0"/></g><g id="c12"><g><use transform="matrix(1.0,0.0,0.0,1.0,0.0,0.0)" xlink:href="#c11"/></g></g><g id="c13"><path fill="#cfc286" stroke="none" d="M1.45 11.0 L1.8 11.4 1.2 11.75 1.45 11.0 M2.35 11.45 L3.0 11.45 3.0 12.0 2.9 11.85 2.35 11.45 M3.9 12.45 L3.8 11.95 4.0 11.7 4.4 11.9 4.2 12.5 3.9 12.45 M4.45 11.0 L4.65 10.6 5.3 10.45 4.45 11.0"/><path fill="#a89d6d" stroke="none" d="M1.8 11.4 L1.45 11.0 1.75 10.8 2.35 10.95 3.3 10.9 3.0 11.45 2.35 11.45 1.8 11.4 M4.4 11.9 L5.1 11.6 4.2 12.5 4.4 11.9 M2.0 13.85 L1.95 13.75 1.65 13.25 2.55 13.9 2.0 13.85"/><path fill="#433f28" stroke="none" d="M1.8 11.4 L2.35 11.45 2.9 11.85 3.4 14.25 3.4 14.3 3.45 14.85 2.75 14.75 2.55 13.9 1.65 13.25 1.2 11.75 1.8 11.4 M5.3 10.45 L5.1 10.9 4.45 11.0 5.3 10.45"/><path fill="#5f5a3a" stroke="none" d="M3.0 11.45 L3.6 11.05 3.8 11.95 3.9 12.45 4.25 13.95 3.85 14.6 3.2 12.85 3.85 14.6 3.45 14.85 3.4 14.3 3.4 14.25 3.2 12.85 3.0 12.0 3.0 11.45 M5.6 11.85 L5.55 12.7 5.05 13.0 5.6 11.85 M2.55 13.9 L2.75 14.75 2.0 14.4 2.0 13.85 2.55 13.9"/><path fill="#dfd090" stroke="none" d="M3.0 11.45 L3.3 10.9 3.6 11.05 3.0 11.45 M3.0 12.0 L3.2 12.85 3.4 14.25 2.9 11.85 3.0 12.0"/><path fill="#706b44" stroke="none" d="M4.25 13.95 L3.9 12.45 4.2 12.5 5.1 11.6 5.6 11.85 5.05 13.0 4.25 13.95"/><path fill="none" stroke="#000000" stroke-width="0.5" stroke-opacity="0.301960784314" d="M1.45 11.0 L1.8 11.4 2.35 11.45 3.0 11.45 3.3 10.9 2.35 10.95 1.75 10.8 1.45 11.0 1.2 11.75 1.8 11.4 M3.6 11.05 L3.0 11.45 3.0 12.0 3.2 12.85 3.85 14.6 4.25 13.95 3.9 12.45 3.8 11.95 3.6 11.05 3.3 10.9 M3.8 11.95 L4.0 11.7 4.4 11.9 5.1 11.6 5.6 11.85 5.55 12.7 5.05 13.0 4.25 13.95 M4.45 11.0 L4.65 10.6 5.3 10.45 5.1 10.9 4.45 11.0 5.3 10.45 M2.35 11.45 L2.9 11.85 M3.4 14.25 L3.2 12.85 M4.2 12.5 L3.9 12.45 M2.75 14.75 L3.45 14.85 3.4 14.3 M2.55 13.9 L2.75 14.75 2.0 14.4 2.0 13.85 1.95 13.75 1.65 13.25 1.2 11.75 M3.85 14.6 L3.45 14.85 M2.0 13.85 L2.55 13.9 1.65 13.25 M4.2 12.5 L5.1 11.6 M5.6 11.85 L5.05 13.0 M4.4 11.9 L4.2 12.5"/><path fill="#968e5a" stroke="none" d="M3.2 9.65 L2.9 9.55 3.0 9.15 2.95 8.75 3.75 9.0 4.0 9.45 3.75 9.75 3.2 9.65"/><path fill="#dfd090" stroke="none" d="M2.95 8.75 L3.0 9.15 2.9 9.55 3.2 9.65 3.85 10.15 3.1 9.8 2.35 9.6 2.5 9.55 1.75 9.5 2.7 9.4 2.95 8.75 M2.9 9.55 L2.5 9.55 2.9 9.55"/><path fill="#a89d6d" stroke="none" d="M1.75 9.5 L2.5 9.55 2.35 9.6 1.65 9.8 1.45 9.5 1.75 9.5"/><path fill="#cfc286" stroke="none" d="M2.95 8.75 L2.7 9.4 1.75 9.5 1.45 9.5 1.8 8.9 2.95 8.75"/><path fill="#5f5a3a" stroke="none" d="M3.2 9.65 L3.75 9.75 3.85 10.15 2.95 10.2 1.65 9.8 2.35 9.6 3.1 9.8 3.85 10.15 3.2 9.65"/><path fill="none" stroke="#000000" stroke-width="0.5" stroke-opacity="0.301960784314" d="M2.95 8.75 L3.0 9.15 2.9 9.55 3.2 9.65 3.75 9.75 4.0 9.45 3.75 9.0 2.95 8.75 M1.75 9.5 L2.5 9.55 2.9 9.55 M2.35 9.6 L2.5 9.55 M1.65 9.8 L2.35 9.6 M3.85 10.15 L3.2 9.65 M1.45 9.5 L1.65 9.8 2.95 10.2 3.85 10.15 3.75 9.75 M1.75 9.5 L1.45 9.5 1.8 8.9 2.95 8.75"/><path fill="#706b44" stroke="none" d="M5.55 15.55 L5.55 16.3 4.8 16.8 4.0 16.6 4.3 16.25 5.05 15.75 5.55 15.55"/><path fill="#dfd090" stroke="none" d="M5.55 15.55 L5.05 15.75 4.3 16.25 4.0 16.6 4.05 16.15 4.9 15.65 4.95 15.05 5.1 15.5 5.55 15.55"/><path fill="#5f5a3a" stroke="none" d="M4.8 16.8 L5.55 16.3 5.0 17.05 4.8 16.8 M4.95 15.05 L5.55 15.55 5.1 15.5 4.95 15.05"/><path fill="#a89d6d" stroke="none" d="M4.0 16.6 L4.8 16.8 5.0 17.05 4.0 16.6 M4.05 16.15 L4.4 15.55 4.95 15.05 4.9 15.65 4.05 16.15"/><path fill="none" stroke="#000000" stroke-width="0.5" stroke-opacity="0.301960784314" d="M5.55 16.3 L5.55 15.55 5.1 15.5 4.95 15.05 5.55 15.55 M4.0 16.6 L4.8 16.8 5.55 16.3 5.0 17.05 4.0 16.6 4.05 16.15 4.4 15.55 4.95 15.05 M4.9 15.65 L4.05 16.15 M4.8 16.8 L5.0 17.05"/><path fill="#5f5a3a" stroke="none" d="M5.05 4.8 L5.3 5.25 5.2 6.0 5.0 5.65 4.95 5.15 5.05 4.8 M3.85 5.3 L3.6 5.15 4.0 5.1 3.85 5.3 M4.0 4.1 L4.35 4.6 4.2 4.8 3.85 4.55 4.0 4.1"/><path fill="#cfc286" stroke="none" d="M3.9 5.7 L3.75 5.45 3.85 5.3 4.0 5.1 3.6 5.15 3.4 4.85 3.45 4.45 4.0 4.1 3.85 4.55 4.2 4.8 4.35 4.6 4.5 4.4 5.05 4.8 4.95 5.15 4.4 5.6 3.9 5.7"/><path fill="#dfd090" stroke="none" d="M4.95 5.15 L5.0 5.65 4.4 5.6 4.95 5.15"/><path fill="#433f28" stroke="none" d="M5.2 6.0 L4.4 6.0 3.9 5.7 4.4 5.6 5.0 5.65 5.2 6.0"/><path fill="none" stroke="#000000" stroke-width="0.5" stroke-opacity="0.301960784314" d="M5.05 4.8 L5.3 5.25 5.2 6.0 4.4 6.0 3.9 5.7 3.75 5.45 3.85 5.3 3.6 5.15 3.4 4.85 3.45 4.45 4.0 4.1 4.35 4.6 4.5 4.4 5.05 4.8 4.95 5.15 5.0 5.65 5.2 6.0 M4.35 4.6 L4.2 4.8 3.85 4.55 4.0 4.1 M3.9 5.7 L4.4 5.6 4.95 5.15 M4.4 5.6 L5.0 5.65 M3.6 5.15 L4.0 5.1 3.85 5.3"/></g><radialGradient gradientUnits="userSpaceOnUse" r="819.2" cx="0" cy="0" spreadMethod="pad" gradientTransform="matrix(0.0503692626953,0.0,0.0,0.0503692626953,-0.1,-0.1)" id="gradient3"><stop offset="0.521568627451" stop-color="#133a01" stop-opacity="0.450980392157"/><stop offset="1.0" stop-color="#221e00" stop-opacity="0.0"/></radialGradient><radialGradient gradientUnits="userSpaceOnUse" r="819.2" cx="0" cy="0" spreadMethod="pad" gradientTransform="matrix(0.0419769287109,0.0,0.0,0.0419769287109,0.0,0.0)" id="gradient4"><stop offset="0.521568627451" stop-color="#133a01" stop-opacity="0.450980392157"/><stop offset="1.0" stop-color="#221e00" stop-opacity="0.0"/></radialGradient><g id="c14"><path stroke="none" fill="url(#gradient3)" d="M5.5 -21.3 L6.0 -20.8 5.8 -19.95 6.5 -19.55 4.7 -17.8 7.55 -16.65 7.55 -18.2 10.3 -19.05 9.5 -20.2 10.55 -21.2 8.5 -22.55 7.35 -23.3 8.95 -25.55 9.1 -25.45 13.6 -26.95 12.2 -29.4 16.35 -29.65 18.2 -33.85 20.45 -33.65 22.0 -32.15 26.35 -31.7 26.95 -24.75 24.4 -23.25 23.95 -19.55 27.05 -18.1 31.75 -21.8 36.0 -19.75 37.4 -15.55 36.1 -12.8 33.9 -11.65 33.5 -11.8 33.5 -14.1 31.6 -13.25 31.6 -11.15 32.05 -10.7 31.05 -10.2 29.8 -7.55 32.4 -4.3 36.9 -5.2 38.0 -3.25 37.7 -1.1 36.25 -2.75 34.9 -1.2 36.05 0.25 35.0 4.15 37.05 8.3 34.3 10.35 34.25 10.4 32.35 8.75 29.6 9.85 29.6 13.3 33.8 16.0 33.75 20.7 31.25 23.8 28.9 23.8 27.35 22.25 29.45 20.5 28.7 19.7 26.6 20.15 25.85 18.95 24.95 20.3 23.5 20.3 23.2 18.95 25.85 16.85 25.2 15.5 23.25 16.4 22.45 15.1 19.1 18.25 18.4 19.85 20.5 19.4 20.55 21.75 22.2 22.85 21.75 24.05 23.85 27.75 22.85 29.55 21.25 30.2 19.15 33.85 20.15 36.05 10.7 36.05 13.75 39.1 8.2 39.1 5.3 37.25 5.6 37.5 3.55 39.7 1.8 36.65 -2.75 38.15 -3.1 37.1 -1.7 36.4 -6.95 35.3 -5.9 33.8 -5.95 33.65 -3.4 32.5 -4.8 31.0 -3.25 29.8 -0.4 32.15 1.0 30.05 -0.35 28.4 0.5 27.2 0.2 26.75 2.3 25.3 6.35 26.1 4.75 20.4 5.8 19.7 4.7 14.05 1.95 11.95 -0.1 13.85 2.45 15.65 1.0 19.0 -0.1 18.05 -2.3 21.2 -0.1 22.55 -1.3 25.05 -3.8 25.4 -3.8 27.25 -3.2 27.9 -4.95 29.65 -5.75 27.95 -7.6 27.95 -7.6 30.85 -7.1 31.55 -9.2 32.95 -10.15 30.6 -13.6 30.85 -14.3 32.65 -17.1 33.5 -21.95 29.8 -20.9 28.55 -22.0 27.55 -21.0 26.05 -21.25 23.15 -25.1 21.65 -25.2 21.7 -28.6 24.65 -30.5 23.5 -31.9 20.1 -30.7 17.65 -31.7 13.75 -30.6 12.3 -31.9 10.75 -32.0 10.65 -33.15 9.2 -31.9 9.2 -29.65 6.2 -31.6 3.4 -37.15 4.15 -35.8 1.45 -36.8 -2.45 -35.7 -3.9 -37.0 -5.45 -36.8 -5.75 -31.1 -5.45 -29.8 -6.35 -29.35 -5.05 -27.35 -6.2 -26.45 -4.7 -23.85 -7.25 -21.65 -9.35 -20.45 -10.5 -20.5 -12.65 -21.5 -11.75 -22.1 -12.8 -23.3 -12.5 -23.85 -14.7 -25.9 -15.9 -27.15 -15.2 -28.3 -15.9 -28.75 -15.6 -29.05 -16.0 -29.05 -19.4 -29.15 -19.6 -27.4 -20.45 -24.5 -18.5 -21.7 -20.8 -19.0 -18.1 -15.4 -23.7 -17.8 -24.7 -16.0 -26.75 -16.3 -28.1 -15.45 -29.1 -17.85 -32.2 -17.0 -33.95 -19.9 -34.15 -18.55 -35.5 -16.35 -35.2 -14.35 -38.8 -11.7 -38.45 -12.2 -37.9 -9.05 -35.05 -10.15 -33.8 -5.3 -30.1 -1.85 -31.15 -1.0 -28.7 3.65 -30.95 3.25 -29.8 4.25 -29.8 2.6 -26.1 4.3 -24.95 3.15 -23.55 4.1 -22.6 5.5 -21.3 M17.45 -26.5 L17.45 -28.8 15.5 -27.95 15.5 -25.85 17.45 -23.95 19.1 -25.85 17.45 -26.5 M23.75 -7.85 L23.75 -10.15 21.8 -9.3 21.8 -7.15 23.75 -5.3 25.4 -7.15 23.75 -7.85 M22.4 -18.85 L22.4 -21.1 20.5 -20.3 20.5 -18.15 22.45 -16.3 24.1 -18.15 22.4 -18.85 M19.95 -1.4 L19.95 -0.65 18.05 1.25 17.05 -0.05 15.8 1.15 15.8 3.55 17.0 4.25 17.0 5.65 19.2 6.6 19.8 4.6 18.9 3.4 20.5 0.1 22.55 0.1 21.15 -0.95 19.95 -1.4 M3.7 -19.1 L1.85 -19.1 1.85 -16.25 3.85 -15.5 4.85 -17.4 3.7 -19.1 M20.75 -5.65 L19.9 -4.25 23.15 -3.1 20.75 -5.65 M25.75 -1.6 L24.2 -2.05 23.95 0.1 22.55 1.15 22.55 1.65 23.95 5.3 27.25 5.3 27.65 6.25 31.6 4.25 25.6 2.5 26.9 1.1 24.95 -0.05 25.75 -1.6 M-17.2 23.25 L-19.05 23.25 -19.05 26.1 -17.0 26.85 -16.0 24.95 -17.2 23.25 M-8.35 10.7 L-6.35 11.45 -5.35 9.55 -6.5 7.85 -8.35 7.85 -8.35 10.7 M-23.8 -2.9 L-23.8 -0.05 -21.75 0.7 -20.75 -1.2 -21.95 -2.9 -23.8 -2.9 M-20.45 -10.45 L-20.45 -7.6 -18.4 -6.85 -17.4 -8.75 -18.55 -10.45 -20.45 -10.45 M-10.5 20.95 L-9.4 23.05 -7.0 21.55 -6.15 23.05 -3.2 21.5 -4.25 19.85 -6.35 20.2 -6.8 16.45 -7.15 16.3 -6.75 14.85 -9.85 14.2 -12.65 18.05 -11.8 21.2 -10.5 20.95 M11.4 13.85 L11.0 11.95 7.1 14.9 8.15 16.3 8.15 18.0 10.8 21.25 13.85 20.3 14.2 20.55 13.6 22.7 15.55 23.8 17.8 21.8 16.9 20.3 16.45 19.4 14.5 18.95 15.8 17.75 14.05 16.15 14.0 16.25 13.65 16.05 11.75 15.55 11.45 14.15 11.4 13.85 M-19.85 12.4 L-20.05 12.15 -20.9 12.7 -20.8 12.9 -19.85 12.4"/><path stroke="none" fill="url(#gradient4)" d="M5.5 -21.3 L4.1 -22.6 4.75 -23.35 8.5 -22.55 8.2 -22.4 5.5 -21.3 M-21.65 -9.35 L-23.85 -7.25 -24.05 -7.15 -24.35 -9.25 -25.95 -9.8 -28.0 -10.5 -27.95 -12.0 -24.1 -13.25 -23.85 -12.9 -25.15 -12.0 -23.95 -10.75 -22.7 -10.85 -21.65 -9.35 M7.6 -21.25 L7.65 -21.1 7.55 -21.2 7.6 -21.25 M11.4 13.85 L11.45 14.15 11.3 14.45 11.4 13.85"/></g><g id="c15"><g><use transform="matrix(1.0,0.0,0.0,1.0,0.0,0.0)" xlink:href="#c14"/></g></g><g id="c16"><g><use transform="matrix(1.0,0.0,0.0,1.0,0.0,0.0)" xlink:href="#c5"/></g></g><g id="c17"><g><use transform="matrix(1.0,0.0,0.0,1.0,0.0,0.0)" xlink:href="#c10"/></g><g><use transform="matrix(0.108978271484,-0.0638427734375,0.0135803222656,0.0631103515625,4.4,3.2)" filter="url(#filter13)" xlink:href="#c12"/></g><g><use transform="matrix(0.0907745361328,-0.0566558837891,0.0252227783203,0.0470275878906,3.25,10.6)" filter="url(#filter14)" xlink:href="#c12"/></g><g><use transform="matrix(0.0562286376953,-0.0350952148438,0.0156097412109,0.0291290283203,8.85,6.8)" filter="url(#filter15)" xlink:href="#c12"/></g><g><use transform="matrix(1.0,0.0,0.0,1.0,0.0,0.0)" xlink:href="#c13"/></g><g><use transform="matrix(0.0965270996094,-0.0295562744141,0.00254821777344,0.16357421875,9.2,5.85)" filter="url(#filter17)" xlink:href="#c15"/></g><g><use transform="matrix(0.05029296875,-0.00886535644531,-0.00460815429688,0.025146484375,8.4,7.9)" filter="url(#filter18)" xlink:href="#c16"/></g></g><filter id="filter13"><feColorMatrix in="SourceGraphic" type="matrix" values="1.0 0.0 0.0 0.0 0.0 0.0 1.0 0.0 0.0 0.0 0.0 0.0 1.0 0.0 0.0 0.0 0.0 0.0 0.1796875 0.0" result="cxform"/><feComposite operator="in" in2="SourceGraphic" result="color-xform"/></filter><filter id="filter14"><feColorMatrix in="SourceGraphic" type="matrix" values="1.0 0.0 0.0 0.0 0.0 0.0 1.0 0.0 0.0 0.0 0.0 0.0 1.0 0.0 0.0 0.0 0.0 0.0 0.1796875 0.0" result="cxform"/><feComposite operator="in" in2="SourceGraphic" result="color-xform"/></filter><filter id="filter15"><feColorMatrix in="SourceGraphic" type="matrix" values="1.0 0.0 0.0 0.0 0.0 0.0 1.0 0.0 0.0 0.0 0.0 0.0 1.0 0.0 0.0 0.0 0.0 0.0 0.2890625 0.0" result="cxform"/><feComposite operator="in" in2="SourceGraphic" result="color-xform"/></filter><filter id="filter17"><feColorMatrix in="SourceGraphic" type="matrix" values="1.0 0.0 0.0 0.0 0.0 0.0 1.0 0.0 0.0 0.0 0.0 0.0 1.0 0.0 0.0 0.0 0.0 0.0 0.328125 0.0" result="cxform"/><feComposite operator="in" in2="SourceGraphic" result="color-xform"/></filter><filter id="filter18"><feColorMatrix in="SourceGraphic" type="matrix" values="0.0 0.0 0.0 0.0 0.99609375 0.0 0.0 0.0 0.0 0.796875 0.0 0.0 0.0 0.0 0.19921875 0.0 0.0 0.0 0.0703125 0.0" result="cxform"/><feComposite operator="in" in2="SourceGraphic" result="color-xform"/></filter><g id="c18"><g><use transform="matrix(1.0,0.0,0.0,1.0,6.3,53.35)" xlink:href="#c9"/></g><g><use transform="matrix(1.0,0.0,0.0,1.0,19.85,68.2)" xlink:href="#c17"/></g><g><use transform="matrix(0.141098022461,-0.0378112792969,0.111373901367,0.225646972656,27.2,74.05)" filter="url(#filter21)" xlink:href="#c6"/></g></g><filter id="filter21"><feColorMatrix in="SourceGraphic" type="matrix" values="1.0 0.0 0.0 0.0 0.0 0.0 1.0 0.0 0.0 0.0 0.0 0.0 1.0 0.0 0.0 0.0 0.0 0.0 0.23046875 0.0" result="cxform"/><feComposite operator="in" in2="SourceGraphic" result="color-xform"/></filter></defs><g><g><use transform="matrix(1.0,0.0,0.0,1.0,0.0,0.0)" xlink:href="#c1"/></g><g><use transform="matrix(1.15496826172,0.0,0.0,1.15496826172,-1.4,-57.4)" xlink:href="#c18"/></g></g></svg>