<?xml version='1.0' encoding='UTF-8'?>
<svg xmlns:xlink="http://www.w3.org/1999/xlink" xmlns="http://www.w3.org/2000/svg" version="1.1" width="60px" height="60px" viewBox="0.0 0.0 60.0 60.0"><defs><g id="c1"><path fill="#000000" fill-opacity="0.00392156862745" d="M0.0 0.0 L60.0 0.0 60.0 60.0 0.0 60.0 0.0 0.0"/></g><g id="c2"><path fill="none" stroke="#000000" stroke-width="1.0" stroke-opacity="0.301960784314" d="M22.3 0.35 Q26.6 -1.0 28.5 3.05 L41.4 31.7 Q43.1 35.4 39.9 36.85 L38.15 37.65 19.65 43.65 Q17.05 44.5 15.35 43.3 14.2 42.55 13.5 40.9 L0.55 12.25 Q-0.6 9.75 0.6 8.25 1.15 7.55 2.2 7.05 2.85 6.6 3.8 6.3 L22.3 0.35"/><path fill="#300525" stroke="none" d="M25.55 0.9 Q26.9 1.6 27.8 3.55 L40.7 32.15 Q42.6 36.3 38.3 37.65 L23.3 42.5 13.15 21.4 4.6 20.9 0.7 12.25 Q-0.45 9.75 0.75 8.25 L29.8 9.75 25.55 0.9 M20.1 43.55 L19.8 43.65 Q17.15 44.45 15.5 43.3 L20.1 43.55"/><path fill="#630a4c" stroke="none" d="M23.3 42.5 L20.1 43.55 15.5 43.3 Q14.35 42.55 13.65 40.9 L4.6 20.9 13.15 21.4 23.3 42.5 M0.75 8.25 Q1.45 7.3 3.1 6.75 L21.65 0.8 25.55 0.9 29.8 9.75 0.75 8.25"/><path fill="none" stroke="#000000" stroke-width="0.5" stroke-opacity="0.301960784314" d="M25.55 0.9 Q26.9 1.6 27.8 3.55 L40.7 32.15 Q42.6 36.3 38.3 37.65 L23.3 42.5 20.1 43.55 19.8 43.65 Q17.15 44.45 15.5 43.3 14.35 42.55 13.65 40.9 L4.6 20.9 0.7 12.25 Q-0.45 9.75 0.75 8.25 1.45 7.3 3.1 6.75 L21.65 0.8 25.55 0.9"/><path fill="#9d147b" stroke="none" d="M14.2 40.5 L1.35 11.8 Q-0.5 7.75 3.8 6.35 L22.3 0.4 Q26.55 -1.0 28.45 3.1 L41.35 31.7 Q43.25 35.85 38.9 37.25 L20.4 43.2 Q16.1 44.55 14.2 40.5"/><path fill="none" stroke="#000000" stroke-width="0.5" stroke-opacity="0.301960784314" d="M14.2 40.5 L1.35 11.8 Q-0.5 7.75 3.8 6.35 L22.3 0.4 Q26.55 -1.0 28.45 3.1 L41.35 31.7 Q43.25 35.85 38.9 37.25 L20.4 43.2 Q16.1 44.55 14.2 40.5"/><path fill="#fcf2cf" stroke="none" d="M9.15 13.6 Q9.8 12.8 9.55 11.6 L9.1 10.55 22.05 6.35 Q24.9 5.45 26.25 7.85 L26.5 8.3 35.8 29.0 35.95 29.35 Q34.75 29.3 34.1 30.1 33.45 30.9 33.7 32.1 L34.0 32.9 20.65 37.2 Q18.8 37.8 17.65 37.0 16.8 36.4 16.3 35.2 L6.95 14.6 6.8 14.4 7.1 14.4 Q8.4 14.45 9.15 13.6"/><path fill="#c47fad" stroke="none" d="M8.25 23.65 L3.35 12.8 Q1.65 9.1 5.5 7.85 L22.25 2.5 Q26.05 1.25 27.75 4.95 L28.25 6.1 35.55 22.3 39.35 30.75 Q41.1 34.5 37.2 35.7 L20.45 41.1 Q16.8 42.25 15.2 39.0 L15.0 38.6 8.25 23.65 M9.15 13.6 Q8.4 14.45 7.1 14.4 L6.8 14.4 6.95 14.6 16.3 35.2 Q16.8 36.4 17.65 37.0 18.8 37.8 20.65 37.2 L34.0 32.9 33.7 32.1 Q33.45 30.9 34.1 30.1 34.75 29.3 35.95 29.35 L35.8 29.0 26.5 8.3 26.25 7.85 Q24.9 5.45 22.05 6.35 L9.1 10.55 9.55 11.6 Q9.8 12.8 9.15 13.6"/><path fill="none" stroke="#ffcc00" stroke-width="1.0" stroke-opacity="0.749019607843" d="M8.25 23.65 L3.35 12.8 Q1.65 9.1 5.5 7.85 L22.25 2.5 Q26.05 1.25 27.75 4.95 L28.25 6.1 M35.55 22.3 L39.35 30.75 Q41.1 34.5 37.2 35.7 L20.45 41.1 Q16.8 42.25 15.2 39.0 L15.0 38.6"/><path fill="none" stroke="#bf9900" stroke-width="1.0" stroke-opacity="0.749019607843" d="M28.25 6.1 L35.55 22.3 M15.0 38.6 L8.25 23.65"/><path fill="none" stroke="#f0b92b" stroke-width="0.5" d="M9.15 13.6 Q9.8 12.8 9.55 11.6 L9.1 10.55 22.05 6.35 Q24.9 5.45 26.25 7.85 L26.5 8.3 35.8 29.0 35.95 29.35 Q34.75 29.3 34.1 30.1 33.45 30.9 33.7 32.1 L34.0 32.9 20.65 37.2 Q18.8 37.8 17.65 37.0 16.8 36.4 16.3 35.2 L6.95 14.6 6.8 14.4 7.1 14.4 Q8.4 14.45 9.15 13.6"/></g><g id="c3"><path fill="#7fdbfe" stroke="none" d="M10.75 4.9 Q10.75 4.6 10.9 4.35 11.25 3.45 11.95 2.75 13.3 1.5 14.35 2.1 15.4 2.7 14.95 4.45 14.7 5.4 14.1 6.15 L13.75 6.5 Q13.1 7.15 12.35 7.35 L11.4 7.2 Q10.95 6.9 10.75 6.4 10.5 5.75 10.75 4.9 M7.5 5.9 Q7.0 5.85 6.6 5.5 6.05 5.0 5.8 4.15 L5.7 3.6 Q5.55 2.65 5.8 1.7 6.25 0.0 7.5 0.0 L7.6 0.0 Q8.85 0.0 9.3 1.7 9.55 2.65 9.4 3.6 L9.3 4.15 8.5 5.5 7.6 5.9 7.5 5.9 M4.35 4.9 Q4.6 5.75 4.35 6.4 L3.7 7.2 2.75 7.35 Q2.0 7.15 1.35 6.5 L1.0 6.15 Q0.4 5.4 0.15 4.45 -0.3 2.7 0.75 2.1 1.8 1.5 3.15 2.75 3.85 3.45 4.2 4.35 L4.35 4.9 M5.5 13.7 Q4.45 13.9 3.65 12.95 2.75 12.0 3.2 10.25 3.7 8.5 5.25 7.6 6.4 6.9 7.55 7.0 8.75 6.9 9.9 7.6 11.45 8.5 11.95 10.25 12.35 12.0 11.5 12.95 10.7 13.9 9.65 13.7 8.55 13.5 7.55 12.6 6.55 13.5 5.5 13.7"/></g><g id="c4"><g><use transform="matrix(1.0,0.0,0.0,1.0,0.0,0.0)" xlink:href="#c3"/></g></g><radialGradient gradientUnits="userSpaceOnUse" r="819.2" cx="0" cy="0" spreadMethod="pad" gradientTransform="matrix(0.0914459228516,0.0,0.0,0.0914459228516,0.6,3.4)" id="gradient1"><stop offset="0.0" stop-color="#ffffff"/><stop offset="1.0" stop-color="#ffffff" stop-opacity="0.0"/></radialGradient><g id="c5"><path stroke="none" fill="url(#gradient1)" d="M36.65 -54.65 Q60.05 -42.0 69.75 -17.95 80.55 8.9 68.0 34.1 55.45 59.35 26.8 68.2 -1.8 77.05 -29.7 64.3 -57.6 51.6 -68.45 24.75 -79.3 -2.05 -66.75 -27.25 L-66.7 -27.3 Q-54.1 -52.5 -25.5 -61.4 3.1 -70.2 31.0 -57.5 L36.65 -54.65"/></g><g id="c6"><g><use transform="matrix(1.0,0.0,0.0,1.0,0.0,0.0)" xlink:href="#c5"/></g></g><radialGradient gradientUnits="userSpaceOnUse" r="819.2" cx="0" cy="0" spreadMethod="pad" gradientTransform="matrix(0.209197998047,0.0,0.0,0.177108764648,67.15,107.2)" id="gradient2"><stop offset="0.356862745098" stop-color="#ffffff"/><stop offset="0.670588235294" stop-opacity="0.0"/></radialGradient><g id="c7"><path fill="none" stroke-linejoin="round" stroke-linecap="round" stroke="url(#gradient2)" stroke-width="0.5" d="M136.55 165.8 L68.6 106.0 68.4 106.0 118.25 201.5 M68.2 105.7 L68.25 105.8 68.25 105.75 68.2 105.7 0.0 45.7 M68.25 105.8 L68.3 105.85 68.3 105.8 68.25 105.75 49.95 0.05 M0.05 97.7 L68.15 105.95 68.25 105.85 68.25 105.8 M68.3 105.85 L68.25 105.85 68.3 106.0 68.3 105.85 68.3 105.8 68.35 105.8 68.3 105.8 86.6 18.35 M50.0 193.2 L68.3 106.0 68.15 105.95 18.25 151.55 M68.4 106.0 L68.3 106.0 86.55 211.5 M68.4 106.0 L68.3 105.85 M68.6 106.0 L68.35 105.8 118.25 60.15 M136.6 114.25 L68.6 106.0 M68.2 105.7 L18.25 10.05"/></g><g id="c8"><g><use transform="matrix(1.0,0.0,0.0,1.0,0.0,0.0)" xlink:href="#c7"/></g></g><g id="c9"><path fill="#756934" stroke="none" d="M24.75 22.3 L24.55 22.8 24.3 23.4 24.2 23.55 23.4 24.35 22.6 24.75 21.9 24.95 20.9 25.05 19.85 24.85 19.85 24.7 Q20.15 21.55 22.6 21.85 L22.7 21.9 23.65 22.1 24.75 22.35 24.75 22.3 M24.2 30.85 Q23.35 31.35 22.15 31.15 21.65 31.15 21.35 30.75 L21.85 31.05 23.0 30.95 Q23.65 30.7 23.85 29.7 L24.2 30.85 M21.85 28.55 L22.25 28.55 Q22.15 28.9 22.2 29.2 L21.85 28.55"/><path fill="#c2b057" stroke="none" d="M24.3 23.4 L24.55 22.8 24.75 22.3 Q26.9 22.7 27.4 23.45 27.05 23.6 26.5 24.6 L26.55 24.65 26.0 25.85 Q25.7 25.5 24.95 25.65 25.7 25.5 26.0 25.85 L26.2 26.0 26.3 26.6 26.15 27.05 Q25.95 26.4 25.25 26.55 L23.95 27.0 22.0 27.35 Q21.3 27.3 21.1 26.75 L20.9 25.05 21.9 24.95 22.6 24.75 23.4 24.35 24.2 23.55 24.3 23.4 24.6 23.55 24.75 23.5 24.85 23.55 25.1 23.5 24.85 23.55 24.75 23.5 24.6 23.55 24.3 23.4 M24.95 25.65 L25.0 25.4 25.35 24.7 25.6 24.4 25.65 24.4 25.75 24.2 25.75 24.1 25.7 23.85 25.65 23.75 25.55 23.6 25.3 23.55 25.25 23.5 25.1 23.5 25.55 23.95 Q25.6 24.45 25.1 24.75 L24.85 24.9 24.55 25.0 Q24.2 24.55 24.0 24.6 22.95 24.6 22.4 25.55 22.95 24.6 24.0 24.6 24.2 24.55 24.55 25.0 L24.6 25.15 Q24.75 25.5 24.15 25.75 L23.25 25.9 Q22.6 25.95 22.4 25.55 L22.25 26.15 23.2 26.25 24.2 25.95 24.95 25.65 M24.5 24.0 L25.1 24.05 25.3 23.95 25.3 23.75 25.2 23.65 24.85 23.65 Q24.45 23.8 24.5 24.0 M22.2 26.1 L22.25 26.1 22.25 26.15 22.25 26.1 22.2 26.1 22.15 26.05 22.15 26.1 22.2 26.1 M22.05 25.3 L22.2 26.0 22.15 26.05 22.2 26.0 22.05 25.3 M23.25 25.45 L23.95 25.35 Q24.3 25.25 24.2 24.95 L23.25 24.85 Q22.9 25.0 22.95 25.2 L23.25 25.45 M25.7 26.15 L25.7 26.0 Q25.6 25.65 25.05 25.85 L24.95 26.05 Q25.05 26.5 25.6 26.25 L25.7 26.15 M25.95 25.05 L25.9 24.95 25.6 24.95 Q25.35 25.05 25.45 25.25 L25.8 25.35 25.95 25.05 M27.85 25.9 L28.9 27.35 28.95 27.5 Q29.15 28.1 28.75 28.6 L27.9 29.25 27.8 29.3 27.5 28.6 26.8 27.25 27.5 26.65 27.85 25.9 M27.15 29.5 L27.3 29.85 27.45 30.25 27.15 30.65 26.65 31.2 26.1 31.45 25.5 30.6 25.0 29.7 24.8 29.05 25.75 28.6 26.2 27.9 26.7 28.65 27.15 29.5 M24.6 23.55 L24.45 23.7 Q24.1 23.85 24.0 24.6 24.1 23.85 24.45 23.7 L24.6 23.55 M28.7 28.2 L28.8 27.75 Q28.7 27.45 28.35 27.85 28.0 28.35 28.1 28.55 L28.3 28.55 28.7 28.2 M27.15 30.15 L27.15 30.1 27.0 30.0 Q26.5 30.2 26.35 30.55 L26.25 30.9 Q26.3 31.1 26.45 31.0 L27.0 30.6 27.15 30.15"/><path fill="#dec764" stroke="none" d="M24.5 24.0 Q24.45 23.8 24.85 23.65 L25.2 23.65 25.3 23.75 25.3 23.95 25.1 24.05 24.5 24.0 M23.25 25.45 L22.95 25.2 Q22.9 25.0 23.25 24.85 L24.2 24.95 Q24.3 25.25 23.95 25.35 L23.25 25.45 M25.7 26.15 L25.6 26.25 Q25.05 26.5 24.95 26.05 L25.05 25.85 Q25.6 25.65 25.7 26.0 L25.7 26.15 M25.95 25.05 L25.8 25.35 25.45 25.25 Q25.35 25.05 25.6 24.95 L25.9 24.95 25.95 25.05 M28.7 28.2 L28.3 28.55 28.1 28.55 Q28.0 28.35 28.35 27.85 28.7 27.45 28.8 27.75 L28.7 28.2 M27.15 30.15 L27.0 30.6 26.45 31.0 Q26.3 31.1 26.25 30.9 L26.35 30.55 Q26.5 30.2 27.0 30.0 L27.15 30.1 27.15 30.15"/><path fill="#9c8c46" stroke="none" d="M25.1 23.5 L25.25 23.5 25.3 23.55 25.55 23.6 25.65 23.75 25.7 23.85 25.75 24.1 25.75 24.2 25.65 24.4 25.6 24.4 25.35 24.7 25.0 25.4 24.95 25.65 24.2 25.95 23.2 26.25 22.25 26.15 22.4 25.55 Q22.6 25.95 23.25 25.9 L24.15 25.75 Q24.75 25.5 24.6 25.15 L24.55 25.0 24.85 24.9 25.1 24.75 Q25.6 24.45 25.55 23.95 L25.1 23.5 M26.0 25.85 L26.55 24.65 26.5 24.6 Q27.05 23.6 27.4 23.45 L27.55 23.7 27.55 24.35 27.5 24.95 27.5 25.1 27.4 25.3 27.4 25.35 27.1 25.9 26.35 26.55 26.3 26.6 26.35 26.55 27.1 25.9 27.4 25.35 27.65 25.65 27.85 25.9 27.5 26.65 26.8 27.25 27.5 28.6 27.8 29.3 27.15 29.5 26.7 28.65 26.2 27.9 25.75 28.6 24.8 29.05 25.0 29.7 25.5 30.6 26.1 31.45 25.6 31.6 Q24.9 31.7 24.4 31.15 L24.2 30.85 23.85 29.7 Q23.65 30.7 23.0 30.95 L21.85 31.05 21.35 30.75 21.25 30.65 Q20.75 29.9 20.6 28.4 L20.6 28.35 20.55 28.4 20.5 28.4 20.3 28.1 20.05 27.45 19.95 26.8 19.9 25.95 19.85 24.85 20.9 25.05 21.1 26.75 Q21.3 27.3 22.0 27.35 L23.95 27.0 25.25 26.55 Q25.95 26.4 26.15 27.05 L26.3 26.6 26.2 26.0 26.0 25.85 M24.95 25.65 L24.55 25.0 24.95 25.65 M26.7 27.05 L26.7 27.0 26.7 27.05 M22.25 28.55 L21.85 28.55 20.55 28.4 21.85 28.55 22.2 29.2 Q22.15 28.9 22.25 28.55 L24.55 28.25 25.9 27.45 26.15 27.05 25.9 27.45 24.55 28.25 22.25 28.55 M23.7 29.1 L23.85 29.7 23.7 29.1 M25.9 27.45 L26.2 27.9 25.9 27.45"/><path fill="none" stroke="#000000" stroke-width="0.5" stroke-opacity="0.301960784314" d="M24.3 23.4 L24.6 23.55 24.75 23.5 24.85 23.55 25.1 23.5 25.25 23.5 25.3 23.55 25.55 23.6 25.65 23.75 25.7 23.85 25.75 24.1 25.75 24.2 25.65 24.4 25.6 24.4 25.35 24.7 25.0 25.4 24.95 25.65 Q25.7 25.5 26.0 25.85 M27.4 23.45 Q26.9 22.7 24.75 22.3 L24.75 22.35 23.65 22.1 22.7 21.9 22.6 21.85 Q20.15 21.55 19.85 24.7 L19.85 24.85 M24.95 25.65 L24.2 25.95 23.2 26.25 22.25 26.15 22.25 26.1 22.2 26.1 22.15 26.1 M22.15 26.05 L22.2 26.0 22.05 25.3 M24.55 25.0 Q24.2 24.55 24.0 24.6 22.95 24.6 22.4 25.55 M24.55 25.0 L24.95 25.65 M22.25 26.15 L22.4 25.55 M26.15 27.05 L26.3 26.6 26.2 26.0 26.0 25.85 M27.4 25.35 L27.4 25.3 27.5 25.1 27.5 24.95 27.55 24.35 27.55 23.7 27.4 23.45 M26.3 26.6 L26.35 26.55 27.1 25.9 27.4 25.35 27.65 25.65 27.85 25.9 28.9 27.35 28.95 27.5 Q29.15 28.1 28.75 28.6 L27.9 29.25 27.8 29.3 27.15 29.5 27.3 29.85 27.45 30.25 27.15 30.65 26.65 31.2 26.1 31.45 25.6 31.6 Q24.9 31.7 24.4 31.15 L24.2 30.85 Q23.35 31.35 22.15 31.15 21.65 31.15 21.35 30.75 L21.25 30.65 Q20.75 29.9 20.6 28.4 L20.6 28.35 20.55 28.4 20.5 28.4 20.3 28.1 20.05 27.45 19.95 26.8 19.9 25.95 19.85 24.85 M24.0 24.6 Q24.1 23.85 24.45 23.7 L24.6 23.55 M21.85 28.55 L22.25 28.55 24.55 28.25 25.9 27.45 26.15 27.05 M20.55 28.4 L21.85 28.55 M22.2 29.2 Q22.15 28.9 22.25 28.55 M23.85 29.7 L23.7 29.1 M27.15 29.5 L26.7 28.65 26.2 27.9 25.9 27.45 M24.2 30.85 L23.85 29.7"/><path fill="#c2b057" stroke="none" d="M22.6 15.55 L23.65 16.3 24.65 17.5 25.0 18.3 25.05 18.35 25.05 18.4 Q24.0 18.65 23.15 19.85 L21.75 21.75 21.55 21.95 20.95 22.2 19.85 22.35 18.75 22.05 Q18.25 21.85 17.8 21.3 L17.0 19.9 16.8 19.2 18.45 19.0 20.3 18.6 20.45 18.6 20.4 18.65 19.1 18.35 17.15 17.8 16.9 17.7 16.45 17.4 16.3 16.3 16.0 13.9 18.95 14.15 Q20.4 14.45 21.9 15.15 L22.15 16.3 22.3 16.75 22.6 17.0 22.7 17.05 22.75 17.2 22.6 16.75 22.5 16.3 22.5 16.0 22.6 15.55 M18.1 14.7 L18.1 14.75 17.95 14.7 18.1 14.7 M22.05 20.1 L21.95 20.0 21.35 19.6 20.25 19.45 Q19.8 19.6 19.5 20.1 19.2 20.45 19.2 20.75 L19.8 21.45 Q19.9 21.05 20.15 20.75 20.55 20.15 20.9 20.0 L21.6 19.95 22.1 20.25 22.05 20.1 M20.25 21.5 Q20.15 21.7 20.2 21.85 L20.45 22.0 20.85 21.6 21.0 21.1 20.7 21.05 Q20.4 21.15 20.25 21.5 M23.25 16.3 Q23.05 16.75 23.2 17.1 L23.25 17.3 23.6 17.9 23.9 18.25 23.75 17.8 23.7 17.2 Q23.75 16.9 23.9 16.9 L23.5 16.4 23.25 16.3 M23.75 17.7 L24.0 17.65 24.1 17.45 24.15 17.2 23.85 17.15 Q23.65 17.35 23.7 17.6 L23.75 17.7 M21.3 20.0 L20.8 20.15 20.5 20.35 20.45 20.55 20.7 20.7 21.05 20.45 21.4 20.2 21.4 20.15 21.3 20.0 M18.35 14.3 L16.95 14.35 Q18.3 15.75 19.15 15.45 19.6 15.3 19.5 14.95 19.3 14.45 18.35 14.3 M24.25 17.95 Q24.65 17.8 24.55 17.5 24.45 17.2 24.25 17.45 L24.05 17.85 Q24.1 18.0 24.25 17.95 M23.45 21.15 L23.65 21.25 Q24.1 21.15 24.2 20.55 L24.15 19.8 Q23.95 19.2 23.65 20.05 L23.45 21.15 M22.45 22.9 L22.3 22.9 21.55 22.8 Q21.85 21.85 22.85 20.45 23.85 19.0 24.4 19.1 L24.4 20.2 24.35 20.95 Q24.05 21.9 22.7 22.5 L22.9 22.9 22.45 22.9"/><path fill="#dec764" stroke="none" d="M18.1 14.7 L17.95 14.7 18.1 14.75 18.1 14.7 M18.35 14.3 Q19.3 14.45 19.5 14.95 19.6 15.3 19.15 15.45 18.3 15.75 16.95 14.35 L18.35 14.3 M21.3 20.0 L21.4 20.15 21.4 20.2 21.05 20.45 20.7 20.7 20.45 20.55 20.5 20.35 20.8 20.15 21.3 20.0 M23.75 17.7 L23.7 17.6 Q23.65 17.35 23.85 17.15 L24.15 17.2 24.1 17.45 24.0 17.65 23.75 17.7 M23.45 21.15 L23.65 20.05 Q23.95 19.2 24.15 19.8 L24.2 20.55 Q24.1 21.15 23.65 21.25 L23.45 21.15"/><path fill="#d6352d" stroke="none" d="M18.5 11.55 L18.65 11.1 Q18.8 10.85 19.15 10.7 19.85 10.45 21.2 11.1 L22.4 11.9 22.6 12.2 22.45 12.25 20.45 11.85 19.25 11.95 Q18.65 12.0 18.5 11.55 M22.0 24.3 L21.8 24.55 20.55 24.65 20.55 24.7 20.55 24.65 20.45 24.6 20.4 24.6 20.35 24.65 20.2 24.45 20.7 24.15 21.45 24.15 22.0 24.3 M12.65 17.4 Q12.35 16.65 13.0 16.4 13.8 16.1 15.3 16.75 L15.65 16.9 16.3 17.25 16.45 17.4 16.9 17.7 16.95 17.8 17.0 18.05 16.75 18.15 16.55 18.15 15.05 17.55 12.85 17.3 12.65 17.4 M20.25 21.5 Q20.4 21.15 20.7 21.05 L21.0 21.1 20.85 21.6 20.45 22.0 20.2 21.85 Q20.15 21.7 20.25 21.5 M24.25 17.95 Q24.1 18.0 24.05 17.85 L24.25 17.45 Q24.45 17.2 24.55 17.5 24.65 17.8 24.25 17.95 M20.85 24.45 L20.7 24.4 20.55 24.45 20.5 24.5 20.45 24.5 20.65 24.6 20.7 24.6 20.85 24.55 20.85 24.45 M21.25 24.55 L21.45 24.45 Q21.35 24.25 21.05 24.45 L21.25 24.55"/><path fill="#6d1b0b" stroke="none" d="M22.6 12.2 L22.7 12.35 22.5 14.15 22.4 15.45 22.5 16.3 22.6 16.75 22.75 17.2 22.7 17.05 22.6 17.0 22.3 16.75 22.15 16.3 21.9 15.15 21.9 14.75 21.6 12.95 21.15 12.2 Q21.0 12.05 20.6 12.2 L20.35 12.4 20.55 12.8 20.15 12.9 Q19.8 13.05 19.25 12.65 L18.55 11.8 18.5 11.55 Q18.65 12.0 19.25 11.95 L20.45 11.85 22.45 12.25 22.6 12.2 M24.65 17.5 Q24.9 17.5 25.1 18.25 L25.3 19.65 25.25 20.45 25.15 20.5 Q25.35 19.4 25.05 18.4 L25.05 18.35 25.0 18.3 24.65 17.5 M22.55 24.1 L22.2 24.25 22.05 24.3 22.0 24.3 21.45 24.15 20.7 24.15 20.2 24.45 20.35 24.65 20.25 24.6 19.95 24.45 20.0 24.5 19.9 24.4 Q19.45 24.05 19.3 23.6 L19.15 23.25 19.25 23.0 19.8 22.6 20.15 22.55 20.35 22.95 20.7 23.35 20.9 23.55 21.75 24.0 22.55 24.1 M15.55 18.15 L14.25 17.85 14.0 17.95 14.05 18.0 Q14.65 18.05 14.85 18.45 L14.75 18.55 Q12.95 18.2 12.65 17.4 L12.85 17.3 15.05 17.55 16.55 18.15 16.75 18.15 17.0 18.05 16.95 17.8 16.9 17.7 17.15 17.8 19.1 18.35 20.4 18.65 20.45 18.6 20.3 18.6 19.95 18.6 17.8 18.7 16.65 18.5 15.9 18.25 15.55 18.15 M21.25 24.55 L21.05 24.45 Q21.35 24.25 21.45 24.45 L21.25 24.55 M20.85 24.45 L20.85 24.55 20.7 24.6 20.65 24.6 20.45 24.5 20.5 24.5 20.55 24.45 20.7 24.4 20.85 24.45"/><path fill="#9c8c46" stroke="none" d="M22.4 15.45 L22.55 15.5 22.55 15.55 22.6 15.55 22.5 16.0 22.5 16.3 22.4 15.45 M20.25 24.6 L20.2 24.6 20.1 24.65 20.05 24.6 18.45 24.15 Q16.65 23.35 16.0 22.2 15.35 21.1 15.55 18.7 L15.55 18.15 15.9 18.25 16.65 18.5 17.8 18.7 19.95 18.6 20.3 18.6 18.45 19.0 16.8 19.2 17.0 19.9 17.8 21.3 Q18.25 21.85 18.75 22.05 L19.85 22.35 20.95 22.2 21.55 21.95 20.7 23.35 20.35 22.95 20.15 22.55 19.8 22.6 19.25 23.0 19.15 23.25 19.3 23.6 Q19.45 24.05 19.9 24.4 L20.0 24.5 19.95 24.45 20.25 24.6 M15.65 16.9 L15.95 13.85 16.0 13.9 16.3 16.3 16.45 17.4 16.3 17.25 15.65 16.9 M22.45 22.9 L22.9 22.9 22.7 22.5 Q24.05 21.9 24.35 20.95 L24.7 21.25 24.45 21.85 24.05 22.5 22.8 23.65 22.35 23.7 22.45 22.9"/><path fill="#342b1a" stroke="none" d="M25.15 20.5 L25.05 20.9 24.75 21.8 Q24.05 23.35 22.55 24.1 L21.75 24.0 20.9 23.55 20.7 23.35 21.55 21.95 21.75 21.75 23.15 19.85 Q24.0 18.65 25.05 18.4 25.35 19.4 25.15 20.5 M22.1 20.25 L21.6 19.95 20.9 20.0 Q20.55 20.15 20.15 20.75 19.9 21.05 19.8 21.45 L19.2 20.75 Q19.2 20.45 19.5 20.1 19.8 19.6 20.25 19.45 L21.35 19.6 21.95 20.0 22.05 20.1 22.1 20.25 M23.25 16.3 L23.5 16.4 23.9 16.9 Q23.75 16.9 23.7 17.2 L23.75 17.8 23.9 18.25 23.6 17.9 23.25 17.3 23.2 17.1 Q23.05 16.75 23.25 16.3 M24.35 20.95 L24.4 20.2 24.4 19.1 Q23.85 19.0 22.85 20.45 21.85 21.85 21.55 22.8 L22.3 22.9 22.45 22.9 22.35 23.7 22.8 23.65 24.05 22.5 24.45 21.85 24.7 21.25 24.35 20.95"/><path fill="#fdad35" stroke="none" d="M22.05 20.1 L22.1 20.25 22.05 20.1"/><path fill="none" stroke="#000000" stroke-width="0.5" stroke-opacity="0.301960784314" d="M18.5 11.55 L18.65 11.1 Q18.8 10.85 19.15 10.7 19.85 10.45 21.2 11.1 L22.4 11.9 22.6 12.2 22.7 12.35 22.5 14.15 22.4 15.45 22.55 15.5 22.55 15.55 22.6 15.55 23.65 16.3 24.65 17.5 Q24.9 17.5 25.1 18.25 L25.3 19.65 25.25 20.45 25.15 20.5 25.05 20.9 24.75 21.8 Q24.05 23.35 22.55 24.1 L22.2 24.25 22.05 24.3 22.0 24.3 21.8 24.55 20.55 24.65 20.55 24.7 20.55 24.65 20.45 24.6 20.4 24.6 20.35 24.65 M20.25 24.6 L20.2 24.6 20.1 24.65 20.05 24.6 18.45 24.15 Q16.65 23.35 16.0 22.2 15.35 21.1 15.55 18.7 L15.55 18.15 14.25 17.85 14.0 17.95 14.05 18.0 Q14.65 18.05 14.85 18.45 L14.75 18.55 Q12.95 18.2 12.65 17.4 12.35 16.65 13.0 16.4 13.8 16.1 15.3 16.75 L15.65 16.9 15.95 13.85 16.0 13.9 18.95 14.15 Q20.4 14.45 21.9 15.15 L21.9 14.75 21.6 12.95 21.15 12.2 Q21.0 12.05 20.6 12.2 L20.35 12.4 20.55 12.8 20.15 12.9 Q19.8 13.05 19.25 12.65 L18.55 11.8 18.5 11.55 M16.45 17.4 L16.3 17.25 15.65 16.9 M16.45 17.4 L16.9 17.7 17.15 17.8 19.1 18.35 20.4 18.65 20.45 18.6 20.3 18.6 M25.05 18.4 L25.05 18.35 25.0 18.3 24.65 17.5 M15.55 18.15 L15.9 18.25 16.65 18.5 17.8 18.7 19.95 18.6 20.3 18.6 M22.5 16.3 L22.6 16.75 22.75 17.2 22.7 17.05 22.6 17.0 22.3 16.75 22.15 16.3 21.9 15.15 M22.4 15.45 L22.5 16.3 M25.15 20.5 Q25.35 19.4 25.05 18.4"/></g><radialGradient gradientUnits="userSpaceOnUse" r="819.2" cx="0" cy="0" fx="585.6" fy="0" spreadMethod="pad" gradientTransform="matrix(0.0176391601562,0.0,0.0,0.0176391601562,14.35,14.35)" id="gradient3"><stop offset="0.0" stop-color="#ffffff"/><stop offset="1.0" stop-color="#ffffff" stop-opacity="0.0"/></radialGradient><g id="c10"><path stroke="none" fill="url(#gradient3)" d="M14.35 0.0 Q20.3 0.0 24.5 4.2 28.7 8.4 28.7 14.35 28.7 20.3 24.5 24.5 20.3 28.7 14.35 28.7 8.4 28.7 4.2 24.5 0.0 20.3 0.0 14.35 0.0 8.4 4.2 4.2 8.4 0.0 14.35 0.0"/></g><g id="c11"><g><use transform="matrix(1.0,0.0,0.0,1.0,0.0,0.0)" xlink:href="#c10"/></g></g><g id="c12"><g><use transform="matrix(1.0,0.0,0.0,1.0,0.0,0.0)" xlink:href="#c2"/></g><g><use transform="matrix(0.238861083984,-0.0867004394531,0.10026550293,0.233917236328,34.25,31.15)" xlink:href="#c4"/></g><g><use transform="matrix(0.238861083984,-0.0867004394531,0.10026550293,0.233917236328,4.25,10.3)" xlink:href="#c4"/></g><g><use transform="matrix(0.141098022461,-0.0378112792969,0.111373901367,0.225646972656,20.25,20.65)" filter="url(#filter8)" xlink:href="#c6"/></g><g><use transform="matrix(-0.155029296875,0.0513153076172,0.0841827392578,0.147033691406,22.6,2.3)" filter="url(#filter9)" xlink:href="#c8"/></g><g><use transform="matrix(1.0,0.0,0.0,1.0,0.0,0.0)" xlink:href="#c9"/></g><g><use transform="matrix(0.284118652344,0.269104003906,-0.158355712891,0.143127441406,18.45,11.5)" filter="url(#filter11)" xlink:href="#c11"/></g><g><use transform="matrix(0.162948608398,-0.0436706542969,0.128631591797,0.260604858398,20.35,20.95)" filter="url(#filter12)" xlink:href="#c6"/></g></g><filter id="filter8"><feColorMatrix in="SourceGraphic" type="matrix" values="0.0 0.0 0.0 0.0 0.796875 0.0 0.0 0.0 0.0 0.59765625 0.0 0.0 0.0 0.0 0.19921875 0.0 0.0 0.0 1.0 0.0" result="cxform"/><feComposite operator="in" in2="SourceGraphic" result="color-xform"/></filter><filter id="filter9"><feColorMatrix in="SourceGraphic" type="matrix" values="0.0 0.0 0.0 0.0 0.99609375 0.0 0.0 0.0 0.0 0.99609375 0.0 0.0 0.0 0.0 0.99609375 0.0 0.0 0.0 1.0 0.0" result="cxform"/><feComposite operator="in" in2="SourceGraphic" result="color-xform"/></filter><filter id="filter11"><feColorMatrix in="SourceGraphic" type="matrix" values="1.0 0.0 0.0 0.0 0.0 0.0 1.0 0.0 0.0 0.0 0.0 0.0 1.0 0.0 0.0 0.0 0.0 0.0 0.25 0.0" result="cxform"/><feComposite operator="in" in2="SourceGraphic" result="color-xform"/></filter><filter id="filter12"><feColorMatrix in="SourceGraphic" type="matrix" values="1.0 0.0 0.0 0.0 0.0 0.0 1.0 0.0 0.0 0.0 0.0 0.0 1.0 0.0 0.0 0.0 0.0 0.0 0.23046875 0.0" result="cxform"/><feComposite operator="in" in2="SourceGraphic" result="color-xform"/></filter></defs><g><g><use transform="matrix(1.0,0.0,0.0,1.0,0.0,0.0)" xlink:href="#c1"/></g><g><use transform="matrix(1.15496826172,0.0,0.0,1.15496826172,5.85,3.95)" xlink:href="#c12"/></g></g></svg>