<?xml version='1.0' encoding='UTF-8'?>
<svg xmlns:xlink="http://www.w3.org/1999/xlink" xmlns="http://www.w3.org/2000/svg" version="1.1" width="60px" height="60px" viewBox="0.0 0.0 60.0 60.0"><defs><g id="c1"><path fill="#000000" fill-opacity="0.00392156862745" d="M0.0 0.0 L60.0 0.0 60.0 60.0 0.0 60.0 0.0 0.0"/></g><g id="c2"><path fill="none" stroke="#000000" stroke-width="1.0" stroke-opacity="0.301960784314" d="M28.45 3.1 L41.35 31.7 Q42.95 35.15 40.2 36.7 39.5 37.3 38.3 37.65 L36.35 38.3 36.15 38.15 34.0 36.9 33.8 36.8 Q30.65 35.45 27.7 36.35 24.75 37.3 23.7 40.05 L23.6 40.25 Q23.25 41.25 23.25 42.3 L23.25 42.35 23.25 42.55 19.8 43.65 Q17.15 44.45 15.5 43.3 14.35 42.55 13.65 40.9 L0.7 12.25 Q-0.45 9.75 0.75 8.25 1.2 7.6 2.15 7.15 2.8 6.7 3.8 6.35 L6.45 5.5 8.5 6.75 8.7 6.85 Q11.9 8.2 14.85 7.25 17.8 6.35 18.85 3.6 L18.9 3.4 19.3 1.35 22.3 0.4 Q26.55 -1.0 28.45 3.1"/><path fill="#9d147b" stroke="none" d="M35.55 22.3 L28.25 6.1 27.75 4.95 Q26.05 1.25 21.6 2.85 20.8 5.65 18.85 7.6 17.0 9.45 14.2 9.8 11.45 9.95 9.0 8.8 L6.4 7.45 Q1.65 9.1 3.35 12.8 L8.25 23.65 15.0 38.6 15.2 39.0 Q16.8 42.25 20.45 41.1 L21.65 40.55 Q22.7 36.9 25.05 35.5 27.4 34.15 30.2 34.2 33.05 34.2 36.25 36.1 L37.2 35.7 Q41.1 34.5 39.35 30.75 L35.55 22.3 M19.3 1.35 L22.3 0.4 Q26.55 -1.0 28.45 3.1 L41.35 31.7 Q42.95 35.15 40.2 36.7 L38.9 37.25 36.15 38.15 34.0 36.9 33.8 36.8 Q30.65 35.45 27.7 36.35 24.75 37.3 23.7 40.05 L23.6 40.25 Q23.25 41.25 23.25 42.3 L23.2 42.3 20.4 43.2 19.1 43.5 17.3 43.4 Q15.3 42.9 14.2 40.5 L5.45 20.95 1.35 11.8 Q0.4 9.65 1.1 8.3 1.45 7.65 2.15 7.15 2.8 6.7 3.8 6.35 L6.45 5.5 8.5 6.75 8.7 6.85 Q11.9 8.2 14.85 7.25 17.8 6.35 18.85 3.6 L18.9 3.4 19.3 1.35"/><path fill="#c47fad" stroke="none" d="M28.25 6.1 L35.55 22.3 39.35 30.75 Q41.1 34.5 37.2 35.7 L36.25 36.1 Q33.05 34.2 30.2 34.2 27.4 34.15 25.05 35.5 22.7 36.9 21.65 40.55 L20.45 41.1 Q16.8 42.25 15.2 39.0 L15.0 38.6 8.25 23.65 3.35 12.8 Q1.65 9.1 6.4 7.45 L9.0 8.8 Q11.45 9.95 14.2 9.8 17.0 9.45 18.85 7.6 20.8 5.65 21.6 2.85 26.05 1.25 27.75 4.95 L28.25 6.1 M34.0 32.9 L33.7 32.1 Q33.45 30.9 34.1 30.1 34.75 29.3 35.95 29.35 L35.8 29.0 26.5 8.3 26.25 7.85 Q24.9 5.45 22.05 6.35 19.75 11.1 14.85 11.65 11.45 11.85 9.1 10.55 L9.55 11.6 Q9.8 12.8 9.15 13.6 8.4 14.45 7.1 14.4 L6.8 14.4 6.95 14.6 16.3 35.2 Q16.8 36.4 17.65 37.0 18.8 37.8 19.8 37.35 21.8 33.7 25.95 32.3 30.35 30.8 34.0 32.9"/><path fill="#fcf2cf" stroke="none" d="M22.05 6.35 Q24.9 5.45 26.25 7.85 L26.5 8.3 35.8 29.0 35.95 29.35 Q34.75 29.3 34.1 30.1 33.45 30.9 33.7 32.1 L34.0 32.9 Q30.35 30.8 25.95 32.3 21.8 33.7 19.8 37.35 18.8 37.8 17.65 37.0 16.8 36.4 16.3 35.2 L6.95 14.6 6.8 14.4 7.1 14.4 Q8.4 14.45 9.15 13.6 9.8 12.8 9.55 11.6 L9.1 10.55 Q11.45 11.85 14.85 11.65 19.75 11.1 22.05 6.35"/><path fill="#300525" stroke="none" d="M40.2 36.7 Q39.5 37.3 38.3 37.65 L36.35 38.3 36.15 38.15 38.9 37.25 40.2 36.7 M23.25 42.3 L23.25 42.35 23.2 42.3 23.25 42.3 M20.1 43.55 L19.8 43.65 Q17.15 44.45 15.5 43.3 L17.3 43.4 19.1 43.5 20.1 43.55 M4.6 20.9 L0.7 12.25 Q-0.45 9.75 0.75 8.25 L1.1 8.3 Q0.4 9.65 1.35 11.8 L5.45 20.95 4.6 20.9"/><path fill="#630a4c" stroke="none" d="M23.25 42.35 L23.25 42.55 20.1 43.55 19.1 43.5 20.4 43.2 23.2 42.3 23.25 42.35 M15.5 43.3 Q14.35 42.55 13.65 40.9 L4.6 20.9 5.45 20.95 14.2 40.5 Q15.3 42.9 17.3 43.4 L15.5 43.3 M0.75 8.25 Q1.2 7.6 2.15 7.15 1.45 7.65 1.1 8.3 L0.75 8.25"/><path fill="none" stroke="#bf9900" stroke-width="1.0" stroke-opacity="0.749019607843" d="M28.25 6.1 L35.55 22.3 M15.0 38.6 L8.25 23.65"/><path fill="none" stroke="#000000" stroke-width="0.5" stroke-opacity="0.301960784314" d="M19.3 1.35 L22.3 0.4 Q26.55 -1.0 28.45 3.1 L41.35 31.7 Q42.95 35.15 40.2 36.7 39.5 37.3 38.3 37.65 L36.35 38.3 M23.25 42.55 L20.1 43.55 19.8 43.65 Q17.15 44.45 15.5 43.3 14.35 42.55 13.65 40.9 L4.6 20.9 0.7 12.25 Q-0.45 9.75 0.75 8.25 1.2 7.6 2.15 7.15 2.8 6.7 3.8 6.35 L6.45 5.5 M1.1 8.3 Q1.45 7.65 2.15 7.15 M5.45 20.95 L1.35 11.8 Q0.4 9.65 1.1 8.3 M17.3 43.4 Q15.3 42.9 14.2 40.5 L5.45 20.95 M19.1 43.5 L17.3 43.4 M23.2 42.3 L20.4 43.2 19.1 43.5 M23.25 42.3 L23.2 42.3 M40.2 36.7 L38.9 37.25 36.15 38.15"/><path fill="none" stroke="#ffcc00" stroke-width="1.0" stroke-opacity="0.749019607843" d="M35.55 22.3 L39.35 30.75 Q41.1 34.5 37.2 35.7 L36.25 36.1 M21.65 40.55 L20.45 41.1 Q16.8 42.25 15.2 39.0 L15.0 38.6 M8.25 23.65 L3.35 12.8 Q1.65 9.1 6.4 7.45 M21.6 2.85 Q26.05 1.25 27.75 4.95 L28.25 6.1"/><path fill="none" stroke="#f0b92b" stroke-width="0.5" d="M22.05 6.35 Q24.9 5.45 26.25 7.85 L26.5 8.3 35.8 29.0 35.95 29.35 Q34.75 29.3 34.1 30.1 33.45 30.9 33.7 32.1 L34.0 32.9 M19.8 37.35 Q18.8 37.8 17.65 37.0 16.8 36.4 16.3 35.2 L6.95 14.6 6.8 14.4 7.1 14.4 Q8.4 14.45 9.15 13.6 9.8 12.8 9.55 11.6 L9.1 10.55"/><path fill="none" stroke="#ffaa00" stroke-width="1.0" stroke-opacity="0.749019607843" d="M36.25 36.1 Q33.05 34.2 30.2 34.2 27.4 34.15 25.05 35.5 22.7 36.9 21.65 40.55 M6.4 7.45 L9.0 8.8 Q11.45 9.95 14.2 9.8 17.0 9.45 18.85 7.6 20.8 5.65 21.6 2.85"/><path fill="none" stroke="#ffaa00" stroke-width="0.5" stroke-opacity="0.749019607843" d="M34.0 32.9 Q30.35 30.8 25.95 32.3 21.8 33.7 19.8 37.35 M9.1 10.55 Q11.45 11.85 14.85 11.65 19.75 11.1 22.05 6.35"/></g><g id="c3"><path fill="#7fdbfe" stroke="none" d="M10.75 4.9 Q10.75 4.6 10.9 4.35 11.25 3.45 11.95 2.75 13.3 1.5 14.35 2.1 15.4 2.7 14.95 4.45 14.7 5.4 14.1 6.15 L13.75 6.5 Q13.1 7.15 12.35 7.35 L11.4 7.2 Q10.95 6.9 10.75 6.4 10.5 5.75 10.75 4.9 M9.3 1.7 Q9.55 2.65 9.4 3.6 L9.3 4.15 8.5 5.5 7.6 5.9 7.5 5.9 Q7.0 5.85 6.6 5.5 6.05 5.0 5.8 4.15 L5.7 3.6 Q5.55 2.65 5.8 1.7 6.25 0.0 7.5 0.0 L7.6 0.0 Q8.85 0.0 9.3 1.7 M0.15 4.45 Q-0.3 2.7 0.75 2.1 1.8 1.5 3.15 2.75 3.85 3.45 4.2 4.35 L4.35 4.9 Q4.6 5.75 4.35 6.4 L3.7 7.2 2.75 7.35 Q2.0 7.15 1.35 6.5 L1.0 6.15 Q0.4 5.4 0.15 4.45 M7.55 7.0 Q8.75 6.9 9.9 7.6 11.45 8.5 11.95 10.25 12.35 12.0 11.5 12.95 10.7 13.9 9.65 13.7 8.55 13.5 7.55 12.6 6.55 13.5 5.5 13.7 4.45 13.9 3.65 12.95 2.75 12.0 3.2 10.25 3.7 8.5 5.25 7.6 6.4 6.9 7.55 7.0"/></g><g id="c4"><g><use transform="matrix(1.0,0.0,0.0,1.0,0.0,0.0)" xlink:href="#c3"/></g></g><radialGradient gradientUnits="userSpaceOnUse" r="819.2" cx="0" cy="0" spreadMethod="pad" gradientTransform="matrix(0.0914459228516,0.0,0.0,0.0914459228516,0.6,3.4)" id="gradient1"><stop offset="0.0" stop-color="#ffffff"/><stop offset="1.0" stop-color="#ffffff" stop-opacity="0.0"/></radialGradient><g id="c5"><path stroke="none" fill="url(#gradient1)" d="M36.65 -54.65 Q60.05 -42.0 69.75 -17.95 80.55 8.9 68.0 34.1 55.45 59.35 26.8 68.2 -1.8 77.05 -29.7 64.3 -57.6 51.6 -68.45 24.75 -79.3 -2.05 -66.75 -27.25 L-66.7 -27.3 Q-54.1 -52.5 -25.5 -61.4 3.1 -70.2 31.0 -57.5 L36.65 -54.65"/></g><g id="c6"><g><use transform="matrix(1.0,0.0,0.0,1.0,0.0,0.0)" xlink:href="#c5"/></g></g><radialGradient gradientUnits="userSpaceOnUse" r="819.2" cx="0" cy="0" spreadMethod="pad" gradientTransform="matrix(0.209197998047,0.0,0.0,0.177108764648,67.15,107.2)" id="gradient2"><stop offset="0.356862745098" stop-color="#ffffff"/><stop offset="0.670588235294" stop-opacity="0.0"/></radialGradient><g id="c7"><path fill="none" stroke-linejoin="round" stroke-linecap="round" stroke="url(#gradient2)" stroke-width="0.5" d="M136.55 165.8 L68.6 106.0 68.4 106.0 118.25 201.5 M68.3 105.8 L68.35 105.8 68.3 105.8 68.3 105.85 68.4 106.0 68.3 106.0 86.55 211.5 M68.3 105.8 L68.3 105.85 68.3 106.0 68.15 105.95 18.25 151.55 M68.3 105.85 L68.25 105.85 68.3 106.0 50.0 193.2 M68.25 105.85 L68.15 105.95 0.05 97.7 M68.3 105.85 L68.25 105.8 68.25 105.85 M68.25 105.8 L68.2 105.7 0.0 45.7 M68.3 105.8 L68.25 105.75 68.25 105.8 M68.25 105.75 L68.2 105.7 18.25 10.05 M68.6 106.0 L68.35 105.8 118.25 60.15 M86.6 18.35 L68.3 105.8 M136.6 114.25 L68.6 106.0 M68.25 105.75 L49.95 0.05"/></g><g id="c8"><g><use transform="matrix(1.0,0.0,0.0,1.0,0.0,0.0)" xlink:href="#c7"/></g></g><g id="c9"><g><use transform="matrix(1.0,0.0,0.0,1.0,0.0,0.0)" xlink:href="#c2"/></g><g><use transform="matrix(0.238861083984,-0.0867004394531,0.10026550293,0.233917236328,34.25,31.15)" xlink:href="#c4"/></g><g><use transform="matrix(0.238861083984,-0.0867004394531,0.10026550293,0.233917236328,4.25,10.3)" xlink:href="#c4"/></g><g><use transform="matrix(0.141098022461,-0.0378112792969,0.111373901367,0.225646972656,20.25,20.65)" filter="url(#filter7)" xlink:href="#c6"/></g><g><use transform="matrix(-0.155029296875,0.0513153076172,0.0841827392578,0.147033691406,22.6,3.15)" filter="url(#filter8)" xlink:href="#c8"/></g></g><filter id="filter7"><feColorMatrix in="SourceGraphic" type="matrix" values="0.0 0.0 0.0 0.0 0.796875 0.0 0.0 0.0 0.0 0.59765625 0.0 0.0 0.0 0.0 0.19921875 0.0 0.0 0.0 1.0 0.0" result="cxform"/><feComposite operator="in" in2="SourceGraphic" result="color-xform"/></filter><filter id="filter8"><feColorMatrix in="SourceGraphic" type="matrix" values="0.0 0.0 0.0 0.0 0.99609375 0.0 0.0 0.0 0.0 0.99609375 0.0 0.0 0.0 0.0 0.99609375 0.0 0.0 0.0 1.0 0.0" result="cxform"/><feComposite operator="in" in2="SourceGraphic" result="color-xform"/></filter><linearGradient gradientUnits="userSpaceOnUse" x1="-819.2" x2="819.2" spreadMethod="pad" gradientTransform="matrix(0.00201416015625,-0.00430297851562,0.0035400390625,0.00404357910156,8.8,-9.55)" id="gradient3"><stop offset="0.549019607843" stop-color="#615731" stop-opacity="0.4"/><stop offset="0.819607843137" stop-color="#615731" stop-opacity="0.301960784314"/><stop offset="1.0" stop-color="#ffffff" stop-opacity="0.0"/></linearGradient><g id="c10"><path fill="#eaeff2" stroke="none" d="M-0.95 -18.9 L0.8 -18.75 2.65 -17.95 2.85 -17.75 3.4 -17.25 3.85 -16.85 4.25 -16.45 3.9 -16.15 3.85 -16.1 Q3.2 -15.5 2.3 -15.05 L2.4 -14.3 2.05 -15.0 1.05 -14.65 1.5 -14.0 0.7 -14.6 -2.8 -14.35 -3.05 -14.4 Q-5.5 -15.3 -5.7 -16.1 L-4.95 -17.25 -4.0 -17.9 -2.75 -18.5 Q-1.95 -18.9 -1.2 -18.9 L-0.95 -18.9"/><path fill="#d9dfe8" stroke="none" d="M-2.8 -14.35 L0.7 -14.6 1.5 -14.0 1.05 -14.65 2.05 -15.0 2.4 -14.3 2.3 -15.05 Q3.2 -15.5 3.85 -16.1 L3.9 -16.15 4.25 -16.45 4.5 -16.25 6.85 -13.4 7.4 -12.65 7.9 -11.6 Q7.95 -9.85 2.55 -8.2 L2.5 -8.2 2.35 -8.25 Q-0.55 -7.4 -2.8 -8.8 -4.35 -9.9 -4.15 -11.45 L-4.1 -12.05 Q-3.65 -13.45 -2.85 -14.3 L-2.8 -14.35"/><path fill="#b0bfce" stroke="none" d="M-5.7 -16.1 Q-5.5 -15.3 -3.05 -14.4 L-2.85 -14.3 Q-3.65 -13.45 -4.1 -12.05 L-4.15 -11.45 Q-4.35 -9.9 -2.8 -8.8 -0.55 -7.4 2.35 -8.25 L2.5 -8.2 2.55 -8.2 Q7.95 -9.85 7.9 -11.6 8.4 -11.4 8.9 -9.75 9.4 -8.0 9.0 -7.0 8.6 -6.1 7.45 -5.65 L7.1 -5.5 5.0 -4.8 4.1 -4.75 2.05 -4.05 0.45 -3.35 -0.05 -3.25 -1.65 -3.0 -3.85 -3.3 -5.05 -3.75 -5.85 -4.1 Q-6.55 -4.45 -7.15 -4.95 -9.45 -8.2 -6.85 -14.1 L-5.7 -16.1"/><path fill="#91a6b3" stroke="none" d="M-7.15 -4.95 Q-8.85 -6.25 -9.0 -8.35 L-8.8 -10.15 -8.35 -11.4 -8.1 -12.0 -7.4 -13.2 -6.85 -14.1 Q-9.45 -8.2 -7.15 -4.95"/><path fill="#ffd09b" stroke="none" d="M-3.05 -14.4 L-2.8 -14.35 -2.85 -14.3 -3.05 -14.4"/><path fill="none" stroke="#000000" stroke-width="0.5" stroke-opacity="0.301960784314" d="M-0.95 -18.9 L-1.2 -18.9 Q-1.95 -18.9 -2.75 -18.5 L-4.0 -17.9 -4.95 -17.25 -5.7 -16.1 M6.85 -13.4 L7.4 -12.65 7.9 -11.6 Q8.4 -11.4 8.9 -9.75 9.4 -8.0 9.0 -7.0 8.6 -6.1 7.45 -5.65 L7.1 -5.5 5.0 -4.8 4.1 -4.75 2.05 -4.05 0.45 -3.35 -0.05 -3.25 -1.65 -3.0 -3.85 -3.3 -5.05 -3.75 -5.85 -4.1 Q-6.55 -4.45 -7.15 -4.95 -8.85 -6.25 -9.0 -8.35 L-8.8 -10.15 -8.35 -11.4 -8.1 -12.0 -7.4 -13.2 -6.85 -14.1 -5.7 -16.1"/><path fill="#b0bfce" stroke="none" d="M5.25 -12.1 Q6.3 -12.3 7.5 -11.65 8.5 -11.65 9.45 -11.0 L10.1 -10.4 9.4 -10.45 Q7.45 -11.7 6.25 -9.25 6.65 -4.55 9.2 -4.25 L10.5 -4.2 Q9.3 -3.6 8.4 -3.85 7.55 -4.1 4.55 -6.1 1.85 -7.9 1.55 -10.45 L1.55 -11.0 1.55 -11.2 2.75 -11.55 5.25 -12.1 M5.55 -11.15 Q6.55 -11.7 7.5 -11.65 6.55 -11.7 5.55 -11.15"/><path fill="#91a6b3" stroke="none" d="M10.1 -10.4 Q11.8 -7.55 11.1 -4.7 L11.15 -4.7 10.5 -4.2 9.2 -4.25 Q6.65 -4.55 6.25 -9.25 7.45 -11.7 9.4 -10.45 L10.1 -10.4"/><path fill="#e0a678" stroke="none" d="M11.1 -4.7 L11.2 -4.75 11.15 -4.7 11.1 -4.7"/><path fill="none" stroke="#000000" stroke-width="0.5" stroke-opacity="0.450980392157" d="M5.25 -12.1 Q6.3 -12.3 7.5 -11.65 8.5 -11.65 9.45 -11.0 L10.1 -10.4 Q11.8 -7.55 11.1 -4.7 M11.2 -4.75 L11.15 -4.7 10.5 -4.2 Q9.3 -3.6 8.4 -3.85 7.55 -4.1 4.55 -6.1 M7.5 -11.65 Q6.55 -11.7 5.55 -11.15"/><path fill="none" stroke="#000000" stroke-width="0.5" stroke-opacity="0.450980392157" d="M4.55 -6.1 Q1.85 -7.9 1.55 -10.45 L1.55 -11.0"/><path fill="#aabcc4" stroke="none" d="M4.1 -13.75 Q4.6 -14.3 5.25 -14.1 5.85 -13.9 6.2 -13.0 6.5 -12.1 6.4 -11.05 6.3 -10.0 5.7 -9.4 5.2 -8.8 4.6 -9.0 4.05 -9.25 3.65 -10.15 3.3 -11.05 3.45 -12.1 3.55 -13.15 4.1 -13.75"/><path fill="#91a6b3" stroke="none" d="M5.5 -13.75 Q6.0 -13.55 6.3 -12.8 6.6 -12.0 6.5 -11.05 6.35 -10.1 5.9 -9.55 5.35 -9.0 4.85 -9.15 4.3 -9.25 3.95 -10.1 3.7 -10.9 3.85 -11.85 4.0 -12.75 4.45 -13.3 4.95 -13.85 5.5 -13.75"/><path fill="#91a6b3" stroke="none" d="M2.8 -12.3 Q3.6 -11.55 3.7 -10.45 3.8 -9.35 3.1 -8.6 2.4 -7.85 1.35 -7.8 0.3 -7.85 -0.5 -8.6 -1.25 -9.4 -1.35 -10.45 -1.5 -11.55 -0.8 -12.3 -0.1 -13.1 0.95 -13.05 2.0 -13.1 2.8 -12.3"/><path fill="#130f12" stroke="none" d="M5.15 -13.55 L5.75 -13.1 Q6.15 -12.5 6.2 -11.7 L6.2 -11.55 Q6.25 -10.7 5.8 -10.0 5.4 -9.4 4.8 -9.3 L4.15 -9.45 3.8 -9.75 Q3.35 -10.4 3.35 -11.25 3.3 -12.15 3.7 -12.8 4.05 -13.55 4.7 -13.55 L5.15 -13.55"/><path fill="none" stroke="#000000" stroke-width="0.5" stroke-opacity="0.180392156863" d="M5.15 -13.55 L5.75 -13.1 Q6.15 -12.5 6.2 -11.7 L6.2 -11.55 Q6.25 -10.7 5.8 -10.0 5.4 -9.4 4.8 -9.3 L4.15 -9.45 3.8 -9.75 Q3.35 -10.4 3.35 -11.25 3.3 -12.15 3.7 -12.8 4.05 -13.55 4.7 -13.55 L5.15 -13.55"/><path fill="#91a6b3" stroke="none" d="M-0.3 -8.05 Q-0.7 -8.0 -1.1 -8.3 L-1.9 -9.5 Q-2.15 -10.25 -1.95 -10.9 L-1.75 -9.75 Q-1.5 -8.8 -0.85 -8.3 L-0.3 -8.05"/><path fill="#aabcc4" stroke="none" d="M6.3 -13.1 L5.5 -14.0 Q6.1 -13.7 6.5 -13.05 6.95 -12.35 6.85 -11.65 L6.65 -10.75 6.8 -11.4 Q6.75 -12.2 6.3 -13.1"/><path fill="#130f12" stroke="none" d="M2.5 -12.4 L3.1 -12.0 3.2 -11.9 3.65 -10.45 3.7 -10.35 Q3.6 -9.45 3.0 -8.85 2.4 -8.2 1.65 -8.15 L0.75 -8.4 0.3 -8.8 Q-0.2 -9.35 -0.15 -10.25 -0.15 -11.2 0.45 -11.8 1.05 -12.45 1.85 -12.45 L2.5 -12.4"/><path fill="none" stroke="#000000" stroke-width="0.5" stroke-opacity="0.180392156863" d="M2.5 -12.4 L3.1 -12.0 3.2 -11.9 3.65 -10.45 3.7 -10.35 Q3.6 -9.45 3.0 -8.85 2.4 -8.2 1.65 -8.15 L0.75 -8.4 0.3 -8.8 Q-0.2 -9.35 -0.15 -10.25 -0.15 -11.2 0.45 -11.8 1.05 -12.45 1.85 -12.45 L2.5 -12.4"/><path fill="#fceeb7" stroke="none" d="M7.95 -12.55 L7.9 -13.9 7.5 -15.7 Q7.25 -17.0 9.1 -14.55 L9.7 -11.35 9.4 -10.45 9.15 -11.15 Q8.9 -9.45 7.75 -8.85 L7.95 -12.55"/><path fill="#e3d39a" stroke="none" d="M9.1 -14.55 L10.95 -12.2 11.4 -8.45 11.05 -9.1 Q11.15 -6.8 10.4 -5.4 L10.35 -6.2 Q10.05 -5.45 9.4 -5.0 L9.15 -5.05 Q8.2 -5.05 7.35 -5.8 6.9 -6.35 6.6 -7.1 L6.55 -7.25 6.35 -7.85 6.25 -8.55 6.3 -9.85 Q6.5 -10.7 7.2 -11.75 L7.55 -12.2 Q6.9 -10.6 6.6 -9.2 L6.85 -9.6 Q7.65 -10.9 7.95 -12.55 L7.75 -8.85 Q8.9 -9.45 9.15 -11.15 L9.4 -10.45 9.7 -11.35 9.1 -14.55"/><path fill="#a19360" stroke="none" d="M10.95 -12.2 L11.3 -11.2 Q12.25 -7.8 11.55 -5.8 11.15 -4.6 10.2 -4.45 9.25 -4.2 8.2 -5.05 L8.1 -5.1 7.85 -5.3 7.35 -5.8 Q8.2 -5.05 9.15 -5.05 L9.4 -5.0 Q10.05 -5.45 10.35 -6.2 L10.4 -5.4 Q11.15 -6.8 11.05 -9.1 L11.4 -8.45 10.95 -12.2 M7.55 -12.2 L7.95 -12.55 Q7.65 -10.9 6.85 -9.6 L6.6 -9.2 Q6.9 -10.6 7.55 -12.2"/><path fill="none" stroke="#000000" stroke-width="0.5" stroke-opacity="0.2" d="M7.95 -12.55 L7.9 -13.9 7.5 -15.7 Q7.25 -17.0 9.1 -14.55 L10.95 -12.2 11.3 -11.2 Q12.25 -7.8 11.55 -5.8 11.15 -4.6 10.2 -4.45 9.25 -4.2 8.2 -5.05 L8.1 -5.1 7.85 -5.3 7.35 -5.8 Q6.9 -6.35 6.6 -7.1 L6.55 -7.25 6.35 -7.85 6.25 -8.55 6.3 -9.85 Q6.5 -10.7 7.2 -11.75 L7.55 -12.2 7.95 -12.55 Q7.65 -10.9 6.85 -9.6 L6.6 -9.2"/><path stroke="none" fill="url(#gradient3)" d="M7.9 -13.25 Q8.15 -11.65 9.8 -9.6 11.35 -7.6 11.75 -8.1 11.8 -6.8 11.45 -5.85 11.1 -4.7 10.15 -4.5 9.2 -4.3 8.1 -5.1 L8.0 -5.15 7.7 -5.35 7.25 -5.85 6.55 -7.15 6.45 -7.3 6.3 -7.85 6.15 -8.6 6.2 -9.9 Q6.4 -10.75 7.15 -11.8 L7.55 -12.25 7.85 -12.6 7.9 -13.25"/><path fill="#e60000" stroke="none" d="M4.7 -4.35 Q6.65 -4.9 7.95 -4.35 7.6 -4.05 6.75 -3.85 5.8 -3.6 4.7 -4.35"/><path fill="#880909" stroke="none" d="M7.95 -4.35 Q6.65 -4.9 4.7 -4.35 L4.55 -4.45 4.25 -4.7 7.45 -5.55 Q8.35 -4.95 8.05 -4.5 L7.95 -4.35"/><path fill="none" stroke="#000000" stroke-width="0.5" stroke-opacity="0.301960784314" d="M4.7 -4.35 Q5.8 -3.6 6.75 -3.85 7.6 -4.05 7.95 -4.35 L8.05 -4.5 Q8.35 -4.95 7.45 -5.55 L4.25 -4.7 4.55 -4.45 4.7 -4.35"/><path fill="none" stroke="#000000" stroke-width="0.5" stroke-opacity="0.301960784314" d="M6.05 -5.25 L7.0 -4.5"/><path fill="#91a6b3" stroke="none" d="M4.75 -4.75 L2.9 -4.6 Q-2.05 -3.25 1.05 -7.8 L2.9 -9.85 3.15 -10.1 4.55 -10.25 Q3.65 -9.45 4.1 -9.15 L6.0 -9.1 4.55 -8.15 3.3 -6.95 Q2.45 -6.05 2.95 -5.3 3.5 -4.55 4.75 -4.75"/><path fill="#b0bfce" stroke="none" d="M3.15 -10.1 L3.6 -11.3 Q7.0 -9.45 8.3 -7.75 9.35 -5.3 4.85 -4.7 L4.75 -4.75 Q3.5 -4.55 2.95 -5.3 2.45 -6.05 3.3 -6.95 L4.55 -8.15 6.0 -9.1 4.1 -9.15 Q3.65 -9.45 4.55 -10.25 L3.15 -10.1"/><path fill="none" stroke="#000000" stroke-width="0.5" stroke-opacity="0.301960784314" d="M4.75 -4.75 L2.9 -4.6 Q-2.05 -3.25 1.05 -7.8 L2.9 -9.85 3.15 -10.1 3.6 -11.3 Q7.0 -9.45 8.3 -7.75 9.35 -5.3 4.85 -4.7 L4.75 -4.75"/><path fill="#b0bfce" stroke="none" d="M-4.9 -2.2 L-5.45 -2.6 -6.9 -3.8 -5.55 -3.1 -4.9 -2.2 M-8.55 -7.65 L-8.5 -7.8 -8.55 -8.1 -7.1 -8.4 -4.3 -8.8 Q-3.0 -9.0 -1.75 -8.2 -0.55 -8.15 0.4 -7.45 L1.15 -6.75 0.35 -6.9 Q-1.8 -8.25 -3.35 -5.8 L-3.15 -3.9 Q-3.65 -3.65 -5.65 -4.75 -6.8 -5.55 -8.55 -7.65 M-4.8 -5.95 L-3.7 -7.95 -1.75 -8.2 -3.7 -7.95 -4.8 -5.95"/><path fill="#91a6b3" stroke="none" d="M1.9 -0.8 L1.05 -0.3 -1.25 -0.1 Q-2.15 -0.3 -4.9 -2.2 L-5.55 -3.1 -6.9 -3.8 Q-8.4 -5.4 -8.55 -7.25 L-8.55 -7.65 Q-6.8 -5.55 -5.65 -4.75 -3.65 -3.65 -3.15 -3.9 L-3.35 -5.8 Q-1.8 -8.25 0.35 -6.9 L1.15 -6.75 Q2.85 -3.75 1.85 -0.8 L1.9 -0.8 M-6.15 -3.95 L-5.55 -3.1 -6.15 -3.95"/><path fill="#e0a678" stroke="none" d="M1.85 -0.8 L1.9 -0.85 1.9 -0.8 1.85 -0.8"/><path fill="none" stroke="#330000" stroke-width="0.5" stroke-opacity="0.450980392157" d="M1.9 -0.8 L1.05 -0.3 -1.25 -0.1 Q-2.15 -0.3 -4.9 -2.2 L-5.45 -2.6 M1.9 -0.85 L1.9 -0.8"/><path fill="none" stroke="#181f2c" stroke-width="0.5" stroke-opacity="0.301960784314" d="M-1.75 -8.2 L-3.7 -7.95 -4.8 -5.95 M-6.9 -3.8 L-5.55 -3.1 -6.15 -3.95 M-4.9 -2.2 L-5.55 -3.1"/><path fill="none" stroke="#000000" stroke-width="0.5" stroke-opacity="0.2" d="M-5.45 -2.6 L-6.9 -3.8 Q-8.4 -5.4 -8.55 -7.25 L-8.55 -7.65 -8.5 -7.8"/><path fill="#e3d39a" stroke="none" d="M1.05 -10.0 L2.75 -7.85 2.75 -4.05 2.45 -4.75 Q2.3 -2.45 1.3 -0.95 L1.35 -1.75 0.85 -1.0 Q-0.35 -1.35 -1.05 -2.4 L0.1 -2.35 Q-1.35 -3.0 -2.25 -4.45 L-1.95 -4.9 Q-1.0 -6.3 -0.4 -8.0 L-1.05 -4.2 Q0.2 -4.95 0.65 -6.65 L0.9 -5.95 1.3 -6.8 1.05 -10.0"/><path fill="#a19360" stroke="none" d="M2.75 -7.85 L2.95 -6.8 Q3.5 -3.5 2.55 -1.5 2.0 -0.3 1.0 0.0 -0.05 0.3 -1.05 -0.45 L-1.2 -0.5 -1.45 -0.65 -1.9 -1.15 -2.5 -2.35 -2.55 -2.5 -2.7 -3.05 -2.75 -3.85 -2.55 -5.1 -1.3 -7.05 -0.85 -7.55 -0.4 -8.0 Q-1.0 -6.3 -1.95 -4.9 L-2.25 -4.45 Q-1.35 -3.0 0.1 -2.35 L-1.05 -2.4 Q-0.35 -1.35 0.85 -1.0 L1.35 -1.75 1.3 -0.95 Q2.3 -2.45 2.45 -4.75 L2.75 -4.05 2.75 -7.85"/><path fill="#fceeb7" stroke="none" d="M-0.4 -8.0 L-0.35 -9.25 -0.5 -11.05 Q-0.6 -12.35 1.05 -10.0 L1.3 -6.8 0.9 -5.95 0.65 -6.65 Q0.2 -4.95 -1.05 -4.2 L-0.4 -8.0"/><path fill="none" stroke="#000000" stroke-width="0.5" stroke-opacity="0.2" d="M1.05 -10.0 L2.75 -7.85 2.95 -6.8 Q3.5 -3.5 2.55 -1.5 2.0 -0.3 1.0 0.0 -0.05 0.3 -1.05 -0.45 L-1.2 -0.5 -1.45 -0.65 -1.9 -1.15 -2.5 -2.35 -2.55 -2.5 -2.7 -3.05 -2.75 -3.85 -2.55 -5.1 -1.3 -7.05 -0.85 -7.55 -0.4 -8.0 -0.35 -9.25 -0.5 -11.05 Q-0.6 -12.35 1.05 -10.0 M-0.4 -8.0 Q-1.0 -6.3 -1.95 -4.9 L-2.25 -4.45"/><path fill="#3c4e55" stroke="none" d="M6.25 -8.0 L6.45 -7.65 6.35 -6.7 5.85 -5.8 5.25 -5.4 5.15 -5.5 5.45 -5.7 6.1 -6.8 6.25 -8.0"/><path fill="#130f12" stroke="none" d="M5.15 -5.5 Q4.95 -5.55 4.9 -5.85 L5.0 -6.8 5.5 -7.7 Q5.85 -8.05 6.15 -8.0 L6.25 -8.0 6.1 -6.8 5.45 -5.7 5.15 -5.5"/><path fill="#3c4e55" stroke="none" d="M7.3 -8.2 L7.35 -8.2 7.6 -7.95 7.9 -7.3 7.8 -6.6 7.45 -6.25 7.4 -6.25 7.5 -6.45 7.7 -7.35 7.3 -8.2"/><path fill="#130f12" stroke="none" d="M7.4 -6.25 L7.05 -6.5 6.75 -7.2 6.85 -7.85 7.15 -8.2 7.3 -8.2 7.7 -7.35 7.5 -6.45 7.4 -6.25"/><path fill="none" stroke="#181f2c" stroke-width="0.5" stroke-opacity="0.301960784314" d="M-3.5 -17.25 L-2.9 -17.5 M-5.35 -14.15 L-6.1 -13.35 -5.45 -13.4 -5.35 -14.15 -5.25 -14.9 -4.3 -16.5 M-8.1 -11.65 L-6.8 -12.55 -6.1 -13.35 M-5.45 -13.4 L-5.15 -11.95"/><path fill="#d9dfe8" stroke="none" d="M6.55 -8.35 L6.2 -8.45 6.1 -8.8 6.2 -9.15 6.55 -9.3 6.9 -9.15 7.05 -8.8 6.9 -8.45 6.55 -8.35"/></g><g id="c11"><g><use transform="matrix(1.0,0.0,0.0,1.0,0.0,0.0)" xlink:href="#c10"/></g></g><g id="c12"><g><use transform="matrix(1.0,0.0,0.0,1.0,9.0,18.95)" xlink:href="#c11"/></g></g><g id="c13"><g><use transform="matrix(0.820129394531,0.0,0.0,0.820129394531,0.0,0.0)" xlink:href="#c12"/></g></g><g id="c14"><g><use transform="matrix(1.0,0.0,0.0,1.0,6.3,53.35)" xlink:href="#c9"/></g><g><use transform="matrix(1.0,0.0,0.0,1.0,19.85,68.2)" xlink:href="#c13"/></g><g><use transform="matrix(0.141098022461,-0.0378112792969,0.111373901367,0.225646972656,27.2,74.05)" filter="url(#filter14)" xlink:href="#c6"/></g></g><filter id="filter14"><feColorMatrix in="SourceGraphic" type="matrix" values="1.0 0.0 0.0 0.0 0.0 0.0 1.0 0.0 0.0 0.0 0.0 0.0 1.0 0.0 0.0 0.0 0.0 0.0 0.23046875 0.0" result="cxform"/><feComposite operator="in" in2="SourceGraphic" result="color-xform"/></filter></defs><g><g><use transform="matrix(1.0,0.0,0.0,1.0,0.0,0.0)" xlink:href="#c1"/></g><g><use transform="matrix(1.15496826172,0.0,0.0,1.15496826172,-1.4,-57.4)" xlink:href="#c14"/></g></g></svg>