<?xml version='1.0' encoding='UTF-8'?>
<svg xmlns:xlink="http://www.w3.org/1999/xlink" xmlns="http://www.w3.org/2000/svg" version="1.1" width="60px" height="60px" viewBox="0.0 0.0 60.0 60.0"><defs><g id="c1"><path fill="#000000" fill-opacity="0.00392156862745" d="M0.0 0.0 L60.0 0.0 60.0 60.0 0.0 60.0 0.0 0.0"/></g><g id="c2"><path fill="none" stroke="#000000" stroke-width="1.0" stroke-opacity="0.247058823529" d="M28.5 3.05 L41.4 31.7 Q43.1 35.4 39.9 36.85 L38.15 37.65 36.3 38.25 36.15 38.15 34.0 36.9 33.8 36.8 Q30.65 35.45 27.7 36.35 24.75 37.3 23.7 40.05 L23.6 40.25 Q23.25 41.25 23.3 42.5 L19.65 43.65 Q17.05 44.5 15.35 43.3 14.2 42.55 13.5 40.9 L0.55 12.25 Q-0.6 9.75 0.6 8.25 1.15 7.55 2.2 7.05 2.85 6.6 3.8 6.3 L6.45 5.5 8.5 6.75 8.7 6.85 Q11.9 8.2 14.85 7.25 17.8 6.35 18.85 3.6 L18.9 3.4 19.3 1.35 22.3 0.35 Q26.6 -1.0 28.5 3.05"/><path fill="#986600" stroke="none" d="M28.5 3.05 L41.4 31.7 Q43.1 35.4 39.9 36.85 L38.15 37.65 36.3 38.25 36.15 38.15 34.0 36.9 33.8 36.8 Q30.65 35.45 27.7 36.35 24.75 37.3 23.7 40.05 L23.6 40.25 Q23.25 41.25 23.3 42.5 L19.65 43.65 Q17.05 44.5 15.35 43.3 14.2 42.55 13.5 40.9 L0.55 12.25 Q-0.6 9.75 0.6 8.25 1.15 7.55 2.2 7.05 2.85 6.6 3.8 6.3 L6.45 5.5 8.5 6.75 8.7 6.85 Q11.9 8.2 14.85 7.25 17.8 6.35 18.85 3.6 L18.9 3.4 19.3 1.35 22.3 0.35 Q26.6 -1.0 28.5 3.05"/><path fill="none" stroke="#ffcc00" stroke-width="0.5" d="M28.5 3.05 L41.4 31.7 Q43.1 35.4 39.9 36.85 L38.15 37.65 36.3 38.25 36.15 38.15 34.0 36.9 33.8 36.8 Q30.65 35.45 27.7 36.35 24.75 37.3 23.7 40.05 L23.6 40.25 Q23.25 41.25 23.3 42.5 L19.65 43.65 Q17.05 44.5 15.35 43.3 14.2 42.55 13.5 40.9 L0.55 12.25 Q-0.6 9.75 0.6 8.25 1.15 7.55 2.2 7.05 2.85 6.6 3.8 6.3 L6.45 5.5 8.5 6.75 8.7 6.85 Q11.9 8.2 14.85 7.25 17.8 6.35 18.85 3.6 L18.9 3.4 19.3 1.35 22.3 0.35 Q26.6 -1.0 28.5 3.05"/><path fill="#ffcc00" stroke="none" d="M19.3 1.35 L22.3 0.4 Q26.55 -1.0 28.45 3.1 L41.35 31.7 Q42.95 35.15 40.2 36.7 L38.9 37.25 36.15 38.15 34.0 36.9 33.8 36.8 Q30.65 35.45 27.7 36.35 24.75 37.3 23.7 40.05 L23.6 40.25 Q23.25 41.25 23.25 42.3 L23.2 42.3 20.4 43.2 19.1 43.5 17.3 43.4 Q15.3 42.9 14.2 40.5 L5.45 20.95 1.35 11.8 Q0.4 9.65 1.1 8.3 1.45 7.65 2.15 7.15 2.8 6.7 3.8 6.35 L6.45 5.5 8.5 6.75 8.7 6.85 Q11.9 8.2 14.85 7.25 17.8 6.35 18.85 3.6 L18.9 3.4 19.3 1.35 M35.55 22.3 L28.25 6.1 27.75 4.95 Q26.05 1.25 21.6 2.85 20.8 5.65 18.85 7.6 17.0 9.45 14.2 9.8 11.45 9.95 9.0 8.8 L6.4 7.45 Q1.65 9.1 3.35 12.8 L8.25 23.65 15.0 38.6 15.2 39.0 Q16.8 42.25 20.45 41.1 L21.65 40.55 Q22.7 36.9 25.05 35.5 27.4 34.15 30.2 34.2 33.05 34.2 36.25 36.1 L37.2 35.7 Q41.1 34.5 39.35 30.75 L35.55 22.3"/><path fill="#996600" stroke="none" d="M28.25 6.1 L35.55 22.3 39.35 30.75 Q41.1 34.5 37.2 35.7 L36.25 36.1 Q33.05 34.2 30.2 34.2 27.4 34.15 25.05 35.5 22.7 36.9 21.65 40.55 L20.45 41.1 Q16.8 42.25 15.2 39.0 L15.0 38.6 8.25 23.65 3.35 12.8 Q1.65 9.1 6.4 7.45 L9.0 8.8 Q11.45 9.95 14.2 9.8 17.0 9.45 18.85 7.6 20.8 5.65 21.6 2.85 26.05 1.25 27.75 4.95 L28.25 6.1 M34.0 32.9 L33.7 32.1 Q33.45 30.9 34.1 30.1 34.75 29.3 35.95 29.35 L35.8 29.0 26.5 8.3 26.25 7.85 Q24.9 5.45 22.05 6.35 19.75 11.1 14.85 11.65 11.45 11.85 9.1 10.55 L9.55 11.6 Q9.8 12.8 9.15 13.6 8.4 14.45 7.1 14.4 L6.8 14.4 6.95 14.6 16.3 35.2 Q16.8 36.4 17.65 37.0 18.8 37.8 19.8 37.35 21.8 33.7 25.95 32.3 30.35 30.8 34.0 32.9"/><path fill="#fcf2cf" stroke="none" d="M22.05 6.35 Q24.9 5.45 26.25 7.85 L26.5 8.3 35.8 29.0 35.95 29.35 Q34.75 29.3 34.1 30.1 33.45 30.9 33.7 32.1 L34.0 32.9 Q30.35 30.8 25.95 32.3 21.8 33.7 19.8 37.35 18.8 37.8 17.65 37.0 16.8 36.4 16.3 35.2 L6.95 14.6 6.8 14.4 7.1 14.4 Q8.4 14.45 9.15 13.6 9.8 12.8 9.55 11.6 L9.1 10.55 Q11.45 11.85 14.85 11.65 19.75 11.1 22.05 6.35"/><path fill="#5b3c00" stroke="none" d="M23.25 42.35 L23.25 42.55 19.8 43.65 Q17.15 44.45 15.5 43.3 L17.3 43.4 19.1 43.5 20.4 43.2 23.2 42.3 23.25 42.35 M4.6 20.9 L0.7 12.25 Q-0.45 9.75 0.75 8.25 L1.1 8.3 Q0.4 9.65 1.35 11.8 L5.45 20.95 4.6 20.9"/><path fill="#630a4c" stroke="none" d="M0.75 8.25 Q1.2 7.6 2.15 7.15 1.45 7.65 1.1 8.3 L0.75 8.25"/><path fill="#724b00" stroke="none" d="M15.5 43.3 Q14.35 42.55 13.65 40.9 L4.6 20.9 5.45 20.95 14.2 40.5 Q15.3 42.9 17.3 43.4 L15.5 43.3"/><path fill="#300525" stroke="none" d="M40.2 36.7 Q39.5 37.3 38.3 37.65 L36.35 38.3 36.15 38.15 38.9 37.25 40.2 36.7 M23.25 42.3 L23.25 42.35 23.2 42.3 23.25 42.3"/><path fill="none" stroke="#000000" stroke-width="0.5" stroke-opacity="0.301960784314" d="M19.3 1.35 L22.3 0.4 Q26.55 -1.0 28.45 3.1 L41.35 31.7 Q42.95 35.15 40.2 36.7 39.5 37.3 38.3 37.65 L36.35 38.3 M23.25 42.55 L19.8 43.65 Q17.15 44.45 15.5 43.3 14.35 42.55 13.65 40.9 L4.6 20.9 0.7 12.25 Q-0.45 9.75 0.75 8.25 1.2 7.6 2.15 7.15 2.8 6.7 3.8 6.35 L6.45 5.5 M1.1 8.3 Q1.45 7.65 2.15 7.15 M5.45 20.95 L1.35 11.8 Q0.4 9.65 1.1 8.3 M23.2 42.3 L20.4 43.2 19.1 43.5 17.3 43.4 Q15.3 42.9 14.2 40.5 L5.45 20.95 M23.25 42.3 L23.2 42.3 M40.2 36.7 L38.9 37.25 36.15 38.15"/><path fill="none" stroke="#ffaa00" stroke-width="1.0" d="M28.25 6.1 L35.55 22.3 M15.0 38.6 L8.25 23.65"/><path fill="none" stroke="#fcf2cf" stroke-width="1.0" d="M35.55 22.3 L39.35 30.75 Q41.1 34.5 37.2 35.7 L36.25 36.1 Q33.05 34.2 30.2 34.2 27.4 34.15 25.05 35.5 22.7 36.9 21.65 40.55 L20.45 41.1 Q16.8 42.25 15.2 39.0 L15.0 38.6 M8.25 23.65 L3.35 12.8 Q1.65 9.1 6.4 7.45 L9.0 8.8 Q11.45 9.95 14.2 9.8 17.0 9.45 18.85 7.6 20.8 5.65 21.6 2.85 26.05 1.25 27.75 4.95 L28.25 6.1"/><path fill="none" stroke="#f0b92b" stroke-width="0.5" d="M22.05 6.35 Q24.9 5.45 26.25 7.85 L26.5 8.3 35.8 29.0 35.95 29.35 Q34.75 29.3 34.1 30.1 33.45 30.9 33.7 32.1 L34.0 32.9 M19.8 37.35 Q18.8 37.8 17.65 37.0 16.8 36.4 16.3 35.2 L6.95 14.6 6.8 14.4 7.1 14.4 Q8.4 14.45 9.15 13.6 9.8 12.8 9.55 11.6 L9.1 10.55"/><path fill="none" stroke="#ffaa00" stroke-width="0.5" stroke-opacity="0.749019607843" d="M34.0 32.9 Q30.35 30.8 25.95 32.3 21.8 33.7 19.8 37.35 M9.1 10.55 Q11.45 11.85 14.85 11.65 19.75 11.1 22.05 6.35"/></g><g id="c3"><path fill="#7fdbfe" stroke="none" d="M10.75 4.9 Q10.75 4.6 10.9 4.35 11.25 3.45 11.95 2.75 13.3 1.5 14.35 2.1 15.4 2.7 14.95 4.45 14.7 5.4 14.1 6.15 L13.75 6.5 Q13.1 7.15 12.35 7.35 L11.4 7.2 Q10.95 6.9 10.75 6.4 10.5 5.75 10.75 4.9 M9.3 1.7 Q9.55 2.65 9.4 3.6 L9.3 4.15 8.5 5.5 7.6 5.9 7.5 5.9 Q7.0 5.85 6.6 5.5 6.05 5.0 5.8 4.15 L5.7 3.6 Q5.55 2.65 5.8 1.7 6.25 0.0 7.5 0.0 L7.6 0.0 Q8.85 0.0 9.3 1.7 M0.15 4.45 Q-0.3 2.7 0.75 2.1 1.8 1.5 3.15 2.75 3.85 3.45 4.2 4.35 L4.35 4.9 Q4.6 5.75 4.35 6.4 L3.7 7.2 2.75 7.35 Q2.0 7.15 1.35 6.5 L1.0 6.15 Q0.4 5.4 0.15 4.45 M7.55 7.0 Q8.75 6.9 9.9 7.6 11.45 8.5 11.95 10.25 12.35 12.0 11.5 12.95 10.7 13.9 9.65 13.7 8.55 13.5 7.55 12.6 6.55 13.5 5.5 13.7 4.45 13.9 3.65 12.95 2.75 12.0 3.2 10.25 3.7 8.5 5.25 7.6 6.4 6.9 7.55 7.0"/></g><g id="c4"><g><use transform="matrix(1.0,0.0,0.0,1.0,0.0,0.0)" xlink:href="#c3"/></g></g><radialGradient gradientUnits="userSpaceOnUse" r="819.2" cx="0" cy="0" spreadMethod="pad" gradientTransform="matrix(0.0914459228516,0.0,0.0,0.0914459228516,0.6,3.4)" id="gradient1"><stop offset="0.0" stop-color="#ffffff"/><stop offset="1.0" stop-color="#ffffff" stop-opacity="0.0"/></radialGradient><g id="c5"><path stroke="none" fill="url(#gradient1)" d="M36.65 -54.65 Q60.05 -42.0 69.75 -17.95 80.55 8.9 68.0 34.1 55.45 59.35 26.8 68.2 -1.8 77.05 -29.7 64.3 -57.6 51.6 -68.45 24.75 -79.3 -2.05 -66.75 -27.25 L-66.7 -27.3 Q-54.1 -52.5 -25.5 -61.4 3.1 -70.2 31.0 -57.5 L36.65 -54.65"/></g><g id="c6"><g><use transform="matrix(1.0,0.0,0.0,1.0,0.0,0.0)" xlink:href="#c5"/></g></g><radialGradient gradientUnits="userSpaceOnUse" r="819.2" cx="0" cy="0" spreadMethod="pad" gradientTransform="matrix(0.209197998047,0.0,0.0,0.177108764648,67.15,107.2)" id="gradient2"><stop offset="0.356862745098" stop-color="#ffffff"/><stop offset="0.670588235294" stop-opacity="0.0"/></radialGradient><g id="c7"><path fill="none" stroke-linejoin="round" stroke-linecap="round" stroke="url(#gradient2)" stroke-width="0.5" d="M136.55 165.8 L68.6 106.0 68.4 106.0 118.25 201.5 M68.3 105.8 L68.35 105.8 68.3 105.8 68.3 105.85 68.4 106.0 68.3 106.0 86.55 211.5 M68.3 105.8 L68.3 105.85 68.3 106.0 68.15 105.95 18.25 151.55 M68.3 105.85 L68.25 105.85 68.3 106.0 50.0 193.2 M68.25 105.85 L68.15 105.95 0.05 97.7 M68.3 105.85 L68.25 105.8 68.25 105.85 M68.25 105.8 L68.2 105.7 0.0 45.7 M68.3 105.8 L68.25 105.75 68.25 105.8 M68.25 105.75 L68.2 105.7 18.25 10.05 M68.6 106.0 L68.35 105.8 118.25 60.15 M86.6 18.35 L68.3 105.8 M136.6 114.25 L68.6 106.0 M68.25 105.75 L49.95 0.05"/></g><g id="c8"><g><use transform="matrix(1.0,0.0,0.0,1.0,0.0,0.0)" xlink:href="#c7"/></g></g><g id="c9"><g><use transform="matrix(1.0,0.0,0.0,1.0,0.0,0.0)" xlink:href="#c2"/></g><g><use transform="matrix(0.238861083984,-0.0867004394531,0.10026550293,0.233917236328,34.25,31.15)" xlink:href="#c4"/></g><g><use transform="matrix(0.238861083984,-0.0867004394531,0.10026550293,0.233917236328,4.25,10.3)" xlink:href="#c4"/></g><g><use transform="matrix(0.120941162109,-0.0324096679688,0.0954742431641,0.193420410156,20.25,20.65)" filter="url(#filter7)" xlink:href="#c6"/></g><g><use transform="matrix(-0.155029296875,0.0513153076172,0.0841827392578,0.147033691406,22.6,3.15)" filter="url(#filter8)" xlink:href="#c8"/></g></g><filter id="filter7"><feColorMatrix in="SourceGraphic" type="matrix" values="0.0 0.0 0.0 0.0 0.796875 0.0 0.0 0.0 0.0 0.59765625 0.0 0.0 0.0 0.0 0.19921875 0.0 0.0 0.0 1.0 0.0" result="cxform"/><feComposite operator="in" in2="SourceGraphic" result="color-xform"/></filter><filter id="filter8"><feColorMatrix in="SourceGraphic" type="matrix" values="0.0 0.0 0.0 0.0 0.99609375 0.0 0.0 0.0 0.0 0.99609375 0.0 0.0 0.0 0.0 0.99609375 0.0 0.0 0.0 1.0 0.0" result="cxform"/><feComposite operator="in" in2="SourceGraphic" result="color-xform"/></filter><g id="c10"><path fill="#ffffff" fill-opacity="0.00392156862745" d="M25.6 54.7 L28.6 53.75 Q32.85 52.35 34.75 56.45 L47.65 85.05 Q49.25 88.5 46.5 90.05 45.8 90.65 44.6 91.0 L42.65 91.65 42.45 91.5 Q41.45 90.75 40.3 90.25 L40.1 90.15 Q36.95 88.8 34.0 89.7 31.05 90.65 30.0 93.4 L29.9 93.6 Q29.55 94.6 29.55 95.65 L29.55 95.7 29.55 95.9 26.1 97.0 Q23.45 97.8 21.8 96.65 20.65 95.9 19.95 94.25 L7.0 65.6 Q5.85 63.1 7.05 61.6 7.5 60.95 8.45 60.5 9.1 60.05 10.1 59.7 L12.75 58.85 14.8 60.1 15.0 60.2 Q18.2 61.55 21.15 60.6 24.1 59.7 25.15 56.95 L25.2 56.75 25.6 54.7"/></g><linearGradient gradientUnits="userSpaceOnUse" x1="-819.2" x2="819.2" spreadMethod="pad" gradientTransform="matrix(0.0255126953125,0.0,0.0,0.0268249511719,20.9,21.95)" id="gradient3"><stop offset="0.0" stop-color="#f90013"/><stop offset="0.160784313725" stop-color="#ff99ff"/><stop offset="0.462745098039" stop-color="#66ffff"/><stop offset="0.721568627451" stop-color="#ff9900"/><stop offset="1.0" stop-color="#33ff00"/></linearGradient><g id="c11"><path stroke="none" fill="url(#gradient3)" d="M0.55 12.2 Q-0.6 9.7 0.6 8.2 1.05 7.55 2.0 7.1 2.65 6.65 3.65 6.3 L22.15 0.35 Q26.4 -1.05 28.3 3.05 L41.2 31.65 Q42.8 35.1 40.05 36.65 39.35 37.25 38.15 37.6 L19.65 43.6 Q17.0 44.4 15.35 43.25 14.2 42.5 13.5 40.85 L0.55 12.2"/></g><g id="c12"><g><use transform="matrix(1.0,0.0,0.0,1.0,0.0,0.0)" xlink:href="#c11"/></g></g><g id="c13"><path fill="#f7e7ba" fill-opacity="0.733333333333" d="M28.65 -12.4 Q26.6 -15.7 30.35 -14.35 27.1 -22.7 15.8 -19.4 4.5 -16.1 -6.0 -8.3 -16.5 -0.5 -23.05 9.7 -29.65 19.9 -26.95 23.0 -24.3 26.05 -22.2 20.3 -18.3 28.5 -12.0 27.4 -2.5 25.7 8.0 17.9 L3.7 18.25 Q18.9 9.45 24.6 0.5 30.7 -9.05 28.65 -12.4 M17.25 -30.15 Q16.6 -36.25 27.05 -30.65 30.15 -29.05 33.2 -20.5 36.25 -11.9 29.55 -0.2 22.85 11.45 9.75 21.2 -3.35 30.9 -15.2 33.0 -27.05 35.05 -31.85 26.4 -36.8 17.75 -31.2 12.55 -29.15 15.5 -25.0 6.75 L-16.4 -10.5 Q-11.35 -8.95 -6.85 -12.3 -3.85 -14.5 -2.6 -19.95 8.25 -21.9 15.45 -23.65 22.6 -25.5 17.25 -30.15"/><path fill="#ffffff" stroke="none" d="M-18.45 -6.6 Q-16.75 -8.5 -15.15 -9.35 -17.55 -6.65 -18.6 -4.0 -16.1 -6.25 -13.15 -6.85 L-17.45 -2.75 Q-13.75 -5.6 -10.35 -6.75 -14.1 -3.6 -16.2 -0.2 L-18.7 2.55 Q-17.05 -1.0 -14.0 -4.25 -16.75 -3.1 -19.65 -0.25 L-16.2 -4.35 Q-18.6 -3.75 -20.65 -1.5 -19.8 -4.15 -17.95 -6.85 L-18.8 -6.15 -18.8 -6.25 -18.45 -6.6"/><path fill="#ffffff" stroke="none" d="M-2.2 26.15 Q-7.75 27.85 -13.85 28.8 L-5.15 28.4 -12.55 29.75 Q-10.25 30.3 -6.1 29.6 -10.0 31.05 -14.6 32.05 L-13.15 31.95 -13.3 32.0 -13.95 32.1 -19.55 32.6 Q-14.55 31.8 -10.55 30.45 L-17.7 30.15 -9.7 29.15 Q-15.7 29.6 -19.35 29.0 -12.95 28.4 -7.3 26.95 L-2.2 26.15"/><path fill="#ffffff" stroke="none" d="M31.95 -6.55 L31.8 -6.1 Q31.05 -3.8 30.25 -2.75 31.35 -5.95 31.7 -9.1 30.55 -6.3 29.05 -5.35 30.2 -7.7 31.05 -10.4 29.3 -6.85 27.65 -5.2 29.4 -9.1 30.25 -13.15 L31.4 -16.4 Q30.75 -12.3 29.35 -8.35 30.7 -9.85 32.05 -13.4 L30.5 -8.45 Q31.75 -9.3 32.6 -12.1 32.35 -9.0 31.55 -5.8 L31.95 -6.65 31.95 -6.55"/></g><g id="c14"><g><use transform="matrix(1.0,0.0,0.0,1.0,0.0,0.0)" xlink:href="#c13"/></g></g><g id="c15"><path fill="#e6e6e6" fill-opacity="0.8" d="M-5.0 18.0 Q-6.6 16.75 -6.35 14.65 -5.2 9.65 0.55 7.55 6.6 6.2 9.7 8.5 6.7 6.95 1.45 8.15 -4.3 10.25 -5.4 15.2 -5.65 16.8 -4.75 17.95 L-5.0 18.0 M-3.05 33.6 Q-8.6 30.6 -5.9 21.35 -1.95 16.15 2.1 19.0 L2.1 19.05 Q-1.5 17.35 -5.0 21.9 -7.45 30.35 -3.05 33.6 M3.4 26.05 Q4.8 25.15 5.5 24.1 7.35 21.3 4.15 17.25 L4.7 17.4 Q9.65 23.25 3.4 26.05"/><path fill="#ffffff" fill-opacity="0.8" d="M-3.0 33.65 L-3.05 33.6 Q-7.45 30.35 -5.0 21.9 -1.5 17.35 2.1 19.05 L2.1 19.0 2.2 19.05 3.45 19.75 Q6.05 21.8 3.4 26.05 9.65 23.25 4.7 17.4 L4.15 17.25 3.8 16.8 Q-1.05 15.7 -4.75 17.95 -5.65 16.8 -5.4 15.2 -4.3 10.25 1.45 8.15 6.7 6.95 9.7 8.5 12.8 10.8 13.05 16.65 L13.2 17.05 13.3 17.25 Q18.7 29.3 8.85 34.35 4.5 39.65 0.9 37.85 -0.7 36.7 -2.05 34.2 L-3.0 33.65"/><path fill="#ffffff" fill-opacity="0.572549019608" d="M14.05 17.5 Q19.75 29.8 9.85 34.95 4.85 40.9 0.9 37.85 -1.2 36.85 -3.0 33.65 L-2.05 34.2 Q-0.7 36.7 0.9 37.85 4.5 39.65 8.85 34.35 18.7 29.3 13.3 17.25 L14.05 17.5 M4.15 17.25 Q-0.5 16.4 -4.0 18.65 L-4.9 18.1 -4.9 18.05 -4.75 17.95 Q-1.05 15.7 3.8 16.8 L4.15 17.25"/><path fill="#cccccc" fill-opacity="0.8" d="M9.7 8.5 Q13.65 10.6 13.95 17.25 L14.05 17.5 13.3 17.25 13.2 17.05 13.05 16.65 Q12.8 10.8 9.7 8.5"/><path fill="none" stroke="#00ffff" stroke-width="0.5" stroke-opacity="0.301960784314" d="M-5.0 18.0 Q-6.6 16.75 -6.35 14.65 -5.2 9.65 0.55 7.55 6.6 6.2 9.7 8.5 13.65 10.6 13.95 17.25 L14.05 17.5 Q19.75 29.8 9.85 34.95 4.85 40.9 0.9 37.85 -1.2 36.85 -3.0 33.65 L-3.05 33.6 Q-8.6 30.6 -5.9 21.35 -1.95 16.15 2.1 19.0 L2.2 19.05 3.45 19.75 Q6.05 21.8 3.4 26.05 4.8 25.15 5.5 24.1 7.35 21.3 4.15 17.25 L3.8 16.8 Q-1.05 15.7 -4.75 17.95 L-4.9 18.05 -5.0 18.0 M13.2 17.05 L13.3 17.25"/><path fill="#e6e6e6" fill-opacity="0.8" d="M5.15 10.65 L6.95 10.85 Q8.85 14.25 12.25 19.3 16.45 25.6 14.35 29.25 12.25 32.85 8.75 36.65 5.9 39.8 2.05 40.35 5.0 39.5 7.3 36.95 10.75 33.2 12.85 29.55 14.95 25.95 10.75 19.65 7.35 14.55 5.45 11.15 L5.15 10.65 M1.35 11.0 Q-4.5 12.75 -6.1 22.1 -5.4 28.7 -3.0 31.25 L0.9 34.9 Q1.6 35.5 3.2 35.3 L5.55 34.45 Q9.3 31.35 9.5 26.3 8.5 21.7 4.55 21.85 L4.9 21.7 5.1 21.6 Q9.9 20.85 10.95 25.95 10.8 31.05 7.05 34.15 4.75 35.1 3.2 35.3 0.45 36.1 -0.6 35.25 L-4.45 31.55 Q-6.85 29.0 -7.6 22.4 -5.75 11.9 1.35 11.0"/><path fill="#ffffff" fill-opacity="0.8" d="M0.65 7.3 Q3.3 7.05 4.65 9.6 L5.15 10.65 5.45 11.15 Q7.35 14.55 10.75 19.65 14.95 25.95 12.85 29.55 10.75 33.2 7.3 36.95 5.0 39.5 2.05 40.35 L0.4 40.45 Q-4.45 40.45 -7.95 36.65 -11.4 32.85 -11.4 27.55 -11.4 23.2 -10.2 19.15 -9.0 15.15 -13.05 11.4 -16.1 8.55 -13.65 5.55 -13.6 2.3 -12.7 1.45 -12.25 1.0 -10.45 1.8 -8.55 2.7 -7.45 4.2 -4.7 9.1 -2.0 8.05 L-1.7 7.9 -0.55 7.75 Q0.05 7.45 0.65 7.3 M1.35 11.0 L5.15 10.65 1.35 11.0 Q-5.75 11.9 -7.6 22.4 -6.85 29.0 -4.45 31.55 L-0.6 35.25 Q0.45 36.1 3.2 35.3 1.6 35.5 0.9 34.9 L-3.0 31.25 Q-5.4 28.7 -6.1 22.1 -4.5 12.75 1.35 11.0 M4.55 21.85 Q8.5 21.7 9.5 26.3 9.3 31.35 5.55 34.45 L3.2 35.3 Q4.75 35.1 7.05 34.15 10.8 31.05 10.95 25.95 9.9 20.85 5.1 21.6 L4.9 21.7 4.55 21.85 3.6 21.95 3.45 22.0 Q0.15 23.2 0.05 26.75 0.0 29.3 2.7 29.75 L4.2 29.45 Q1.5 29.0 1.5 26.45 1.65 23.1 4.55 21.85 M6.4 26.9 Q6.6 29.6 4.2 29.45 6.6 29.6 6.4 26.9"/><path fill="#ffffff" fill-opacity="0.662745098039" d="M5.15 10.65 L4.65 9.6 Q3.3 7.05 0.65 7.3 4.45 6.05 6.1 9.3 L6.95 10.85 5.15 10.65 M-1.7 7.9 L-2.0 8.05 Q-4.7 9.1 -7.45 4.2 -8.55 2.7 -10.45 1.8 -12.25 1.0 -12.7 1.45 -13.6 2.3 -13.65 5.55 -16.1 8.55 -13.05 11.4 -9.0 15.15 -10.2 19.15 -11.4 23.2 -11.4 27.55 -11.4 32.85 -7.95 36.65 -4.45 40.45 0.4 40.45 L2.05 40.35 -1.05 40.75 Q-5.95 40.75 -9.4 36.95 -12.9 33.2 -12.9 27.85 -12.9 23.5 -11.7 19.5 -10.5 15.45 -14.5 11.75 -17.55 8.85 -15.15 5.85 -15.05 0.1 -11.45 0.05 -7.25 2.1 -6.0 3.9 -3.8 7.75 -1.7 7.9 M4.55 21.85 Q1.65 23.1 1.5 26.45 1.5 29.0 4.2 29.45 L2.7 29.75 Q0.0 29.3 0.05 26.75 0.15 23.2 3.45 22.0 L3.6 21.95 4.55 21.85"/><path fill="none" stroke="#00ffff" stroke-width="0.5" stroke-opacity="0.301960784314" d="M5.15 10.65 L6.95 10.85 6.1 9.3 Q4.45 6.05 0.65 7.3 0.05 7.45 -0.55 7.75 L-1.7 7.9 Q-3.8 7.75 -6.0 3.9 -7.25 2.1 -11.45 0.05 -15.05 0.1 -15.15 5.85 -17.55 8.85 -14.5 11.75 -10.5 15.45 -11.7 19.5 -12.9 23.5 -12.9 27.85 -12.9 33.2 -9.4 36.95 -5.95 40.75 -1.05 40.75 L2.05 40.35 Q5.9 39.8 8.75 36.65 12.25 32.85 14.35 29.25 16.45 25.6 12.25 19.3 8.85 14.25 6.95 10.85 M5.15 10.65 L1.35 11.0 Q-4.5 12.75 -6.1 22.1 -5.4 28.7 -3.0 31.25 L0.9 34.9 Q1.6 35.5 3.2 35.3 4.75 35.1 7.05 34.15 10.8 31.05 10.95 25.95 9.9 20.85 5.1 21.6 L4.9 21.7 4.55 21.85 Q1.65 23.1 1.5 26.45 1.5 29.0 4.2 29.45 6.6 29.6 6.4 26.9"/></g><g id="c16"><g><use transform="matrix(1.0,0.0,0.0,1.0,0.0,0.0)" xlink:href="#c15"/></g></g><radialGradient gradientUnits="userSpaceOnUse" r="819.2" cx="0" cy="0" spreadMethod="pad" gradientTransform="matrix(-0.00895690917969,-0.0045166015625,-0.00178527832031,0.008544921875,1.75,-1.2)" id="gradient4"><stop offset="0.694117647059" stop-color="#fff4dd"/><stop offset="0.745098039216" stop-color="#d1b579"/></radialGradient><radialGradient gradientUnits="userSpaceOnUse" r="819.2" cx="0" cy="0" spreadMethod="pad" gradientTransform="matrix(0.00749206542969,0.00308227539062,-0.000869750976562,0.00651550292969,0.4,1.7)" id="gradient5"><stop offset="0.43137254902" stop-color="#ffffff"/><stop offset="1.0" stop-color="#ffffff" stop-opacity="0.0"/></radialGradient><g id="c17"><path fill="#1f1d1f" stroke="none" d="M7.25 0.35 Q7.3 2.05 6.6 3.6 5.3 6.65 2.35 6.95 -0.55 7.25 -3.4 4.7 -6.2 1.95 -7.1 -2.0 L-7.8 -4.75 -5.15 -4.05 -4.85 -1.95 Q-3.9 1.45 -1.65 3.5 0.65 5.75 3.1 5.65 5.5 5.3 6.65 2.8 7.2 1.65 7.25 0.35"/><path stroke="none" fill="url(#gradient4)" d="M-5.15 -4.05 L7.3 0.05 7.25 0.35 Q7.2 1.65 6.65 2.8 5.5 5.3 3.1 5.65 0.65 5.75 -1.65 3.5 -3.9 1.45 -4.85 -1.95 L-5.15 -4.05"/><path fill="none" stroke="#000000" stroke-width="0.5" stroke-opacity="0.301960784314" d="M7.25 0.35 Q7.3 2.05 6.6 3.6 5.3 6.65 2.35 6.95 -0.55 7.25 -3.4 4.7 -6.2 1.95 -7.1 -2.0 L-7.8 -4.75 -5.15 -4.05 7.3 0.05 7.25 0.35 Q7.2 1.65 6.65 2.8 5.5 5.3 3.1 5.65 0.65 5.75 -1.65 3.5 -3.9 1.45 -4.85 -1.95 L-5.15 -4.05"/><path fill="none" stroke="#000000" stroke-width="0.5" stroke-opacity="0.301960784314" d="M7.4 0.25 Q8.4 -3.15 6.25 -8.65"/><path fill="none" stroke="#000000" stroke-width="0.5" stroke-opacity="0.301960784314" d="M6.2 4.8 Q5.3 8.35 0.9 8.6"/><path stroke="none" fill="url(#gradient5)" d="M5.3 -0.25 Q6.75 2.1 6.5 4.3 6.15 6.5 4.25 7.3 2.25 8.1 -0.25 7.0 -2.8 5.95 -4.3 3.8 -5.9 1.45 -5.55 -0.75 -5.35 -2.95 -3.3 -3.75 L1.15 -3.6 Q3.65 -2.6 5.3 -0.25"/></g><g id="c18"><g><use transform="matrix(1.0,0.0,0.0,1.0,0.0,0.0)" xlink:href="#c17"/></g></g><g id="c19"><path fill="#990000" stroke="none" d="M0.45 -0.7 L0.65 -0.15 0.4 0.45 -0.05 0.75 -0.5 0.7 -0.6 0.2 -0.45 -0.45 0.05 -0.8 0.45 -0.7"/><path fill="none" stroke="#332720" stroke-width="1.5" d="M0.45 -0.7 L0.05 -0.8 -0.45 -0.45 -0.6 0.2 -0.5 0.7 -0.05 0.75 0.4 0.45 0.65 -0.15 0.45 -0.7"/></g><g id="c20"><g><use transform="matrix(1.0,0.0,0.0,1.0,0.0,0.0)" xlink:href="#c19"/></g></g><radialGradient gradientUnits="userSpaceOnUse" r="819.2" cx="0" cy="0" spreadMethod="pad" gradientTransform="matrix(0.00311279296875,-0.00601196289062,0.00111389160156,0.00816345214844,-0.55,-1.2)" id="gradient6"><stop offset="0.694117647059" stop-color="#fff4dd"/><stop offset="0.745098039216" stop-color="#d1b579"/></radialGradient><radialGradient gradientUnits="userSpaceOnUse" r="819.2" cx="0" cy="0" spreadMethod="pad" gradientTransform="matrix(0.00296020507812,-0.00314331054688,0.000106811523438,0.00509643554688,0.05,1.75)" id="gradient7"><stop offset="0.43137254902" stop-color="#ffffff"/><stop offset="1.0" stop-color="#ffffff" stop-opacity="0.0"/></radialGradient><g id="c21"><path fill="#1f1d1f" stroke="none" d="M-2.4 1.95 L-2.15 3.4 Q-1.6 5.7 -0.7 5.6 0.25 5.35 1.0 2.75 1.75 0.2 1.9 -3.25 L1.9 -5.45 2.85 -6.5 2.7 -3.7 Q2.6 0.35 1.65 3.55 0.75 6.6 -0.35 6.8 -1.45 6.95 -2.1 4.2 L-2.4 1.95"/><path stroke="none" fill="url(#gradient6)" d="M1.9 -5.45 L1.9 -3.25 Q1.75 0.2 1.0 2.75 0.25 5.35 -0.7 5.6 -1.6 5.7 -2.15 3.4 L-2.4 1.95 -2.45 1.75 -2.5 1.15 -2.55 0.75 1.9 -5.45"/><path fill="none" stroke="#000000" stroke-width="0.5" stroke-opacity="0.301960784314" d="M1.9 -5.45 L1.9 -3.25 Q1.75 0.2 1.0 2.75 0.25 5.35 -0.7 5.6 -1.6 5.7 -2.15 3.4 L-2.4 1.95 -2.1 4.2 Q-1.45 6.95 -0.35 6.8 0.75 6.6 1.65 3.55 2.6 0.35 2.7 -3.7 L2.85 -6.5 1.9 -5.45 -2.55 0.75 -2.5 1.15 -2.45 1.75 -2.4 1.95"/><path fill="none" stroke="#000000" stroke-width="0.5" stroke-opacity="0.301960784314" d="M-2.7 0.95 Q-3.2 -2.25 -2.7 -8.05"/><path fill="none" stroke="#000000" stroke-width="0.5" stroke-opacity="0.301960784314" d="M-2.0 5.25 Q-1.45 8.6 0.15 8.1"/><path stroke="none" fill="url(#gradient7)" d="M1.7 -2.95 Q2.4 -2.5 2.45 -0.8 2.5 0.95 1.8 2.9 1.2 4.9 0.2 5.95 -0.8 7.0 -1.55 6.5 -2.3 6.05 -2.35 4.3 -2.4 2.6 -1.65 0.65 -1.0 -1.3 0.0 -2.35 1.0 -3.4 1.7 -2.95"/></g><g id="c22"><g><use transform="matrix(1.0,0.0,0.0,1.0,0.0,0.0)" xlink:href="#c21"/></g></g><g id="c23"><path fill="#990000" stroke="none" d="M0.3 -0.5 L0.45 -0.1 0.35 0.35 0.05 0.65 -0.25 0.5 -0.4 0.15 -0.3 -0.35 0.0 -0.6 0.3 -0.5"/><path fill="none" stroke="#332720" stroke-width="1.5" d="M0.3 -0.5 L0.0 -0.6 -0.3 -0.35 -0.4 0.15 -0.25 0.5 0.05 0.65 0.35 0.35 0.45 -0.1 0.3 -0.5"/></g><g id="c24"><g><use transform="matrix(1.0,0.0,0.0,1.0,0.0,0.0)" xlink:href="#c23"/></g></g><g id="c25"><path fill="#f7e7ba" fill-opacity="0.733333333333" d="M19.95 -17.55 Q23.4 -2.95 25.6 8.2 27.8 19.35 33.65 2.65 35.45 1.05 34.25 10.45 33.0 19.85 26.05 29.25 19.1 38.65 6.3 36.75 -6.5 34.85 -18.55 23.35 -30.6 11.8 -33.75 -1.8 -36.9 -15.45 -30.2 -27.8 -23.55 -40.15 -17.5 -35.9 -20.05 -31.45 -10.65 -31.15 -3.85 -30.95 2.5 -33.15 7.45 -22.5 11.6 -18.6 14.35 -15.95 19.95 -17.55 M4.65 30.65 Q15.25 32.95 18.15 28.3 21.1 23.6 20.45 29.35 28.15 20.1 22.8 7.15 17.45 -5.85 7.8 -15.05 -1.85 -24.3 -13.2 -26.85 -24.5 -29.45 -27.1 -24.1 -29.6 -18.75 -23.5 -19.45 -30.95 -9.4 -28.65 -1.7 -25.3 9.85 -15.65 19.1 -14.95 19.75 -16.7 13.65 -5.25 28.45 4.65 30.65"/><path fill="#ffffff" stroke="none" d="M16.95 -10.9 Q18.5 -9.0 19.45 -6.8 17.05 -9.65 14.1 -10.8 16.55 -7.55 17.05 -4.0 L15.1 -6.75 Q13.95 -10.15 10.65 -13.3 14.4 -12.15 17.8 -9.3 16.3 -11.5 14.15 -13.4 17.6 -12.8 19.8 -10.55 19.65 -13.2 17.8 -15.9 19.45 -15.05 20.75 -13.15 L21.0 -12.8 21.0 -12.7 20.2 -13.4 Q21.4 -10.7 21.25 -8.05 19.7 -10.3 16.95 -10.9"/><path fill="#ffffff" stroke="none" d="M-12.0 22.1 L-8.0 24.4 Q-4.1 27.45 1.4 30.0 -2.85 29.35 -8.25 27.15 -5.1 29.0 -1.6 30.55 -5.15 30.4 -9.0 28.55 -6.65 31.05 -2.75 33.35 -4.9 32.75 -7.7 31.15 L-8.2 30.85 -8.3 30.75 -7.0 31.3 Q-10.3 28.9 -12.35 26.45 -9.15 28.35 -6.2 28.55 -9.1 26.95 -11.8 25.0 -7.3 27.4 -3.7 28.05 -8.6 25.35 -12.0 22.1"/><path fill="#ffffff" stroke="none" d="M-27.6 -22.8 L-28.25 -18.9 Q-29.7 -14.45 -29.9 -9.7 -31.05 -12.15 -31.05 -16.55 -31.55 -13.45 -31.65 -10.55 -32.95 -12.25 -32.7 -15.6 -34.2 -12.3 -34.85 -8.55 -35.15 -10.0 -34.65 -12.7 L-34.6 -13.2 -34.55 -13.3 -34.55 -12.25 Q-33.55 -15.85 -31.95 -19.0 -32.5 -15.9 -31.55 -14.35 L-30.4 -20.05 Q-30.9 -15.9 -30.1 -13.7 -29.45 -18.3 -27.6 -22.8"/></g><g id="c26"><g><use transform="matrix(1.0,0.0,0.0,1.0,0.0,0.0)" xlink:href="#c25"/></g></g><g id="c27"><path fill="#312c26" stroke="none" d="M3.35 6.0 L-3.4 5.0 -6.0 -4.35 -4.35 -5.85 Q-2.4 -5.75 0.9 -0.6 4.2 4.55 3.35 6.0"/><path fill="#786764" stroke="none" d="M3.35 6.0 Q4.2 4.55 0.9 -0.6 -2.4 -5.75 -4.35 -5.85 0.05 -6.3 1.35 -5.35 3.2 -4.2 6.0 3.5 L3.35 6.0"/><path fill="none" stroke="#33231a" stroke-width="0.5" stroke-opacity="0.541176470588" d="M-4.35 -5.85 Q0.05 -6.3 1.35 -5.35 3.2 -4.2 6.0 3.5 L3.35 6.0"/></g><g id="c28"><g><use transform="matrix(1.0,0.0,0.0,1.0,0.0,0.0)" xlink:href="#c27"/></g></g><g id="c29"><path fill="#6e4c34" stroke="none" d="M1.55 -0.05 L1.45 -0.25 1.55 -0.05"/><path fill="#312c26" stroke="none" d="M1.45 -0.25 L1.55 -0.05 0.55 2.7 -1.0 2.15 -1.55 -0.9 Q0.15 -1.95 0.45 -1.75 L1.45 -0.25"/><path fill="#786764" stroke="none" d="M0.45 -1.75 Q0.15 -1.95 -1.55 -0.9 L-1.85 -2.4 Q0.1 -2.2 0.45 -1.75 M0.55 2.7 L1.55 -0.05 Q1.95 0.95 1.75 2.55 L0.55 2.7"/><path fill="none" stroke="#33231a" stroke-width="0.5" stroke-opacity="0.541176470588" d="M1.45 -0.25 L1.55 -0.05 1.45 -0.25 0.45 -1.75 M-1.55 -0.9 L-1.0 2.15 0.55 2.7 M1.55 -0.05 Q1.95 0.95 1.75 2.55 L0.55 2.7 M-1.55 -0.9 L-1.85 -2.4 Q0.1 -2.2 0.45 -1.75"/></g><g id="c30"><g><use transform="matrix(1.0,0.0,0.0,1.0,0.0,0.0)" xlink:href="#c29"/></g></g><g id="c31"><path fill="#786764" stroke="none" d="M-3.35 5.95 L-8.4 4.85 Q-8.8 3.8 -1.4 -5.2 L1.35 -5.35 4.15 -5.4 0.45 0.0 -3.35 5.95"/><path fill="#312c26" stroke="none" d="M-3.35 5.95 L0.45 0.0 4.15 -5.4 Q7.05 0.85 8.6 2.45 3.15 5.75 -3.35 5.95"/><path fill="none" stroke="#33231a" stroke-width="0.5" stroke-opacity="0.541176470588" d="M4.15 -5.4 L1.35 -5.35 -1.4 -5.2 Q-8.8 3.8 -8.4 4.85 L-3.35 5.95 M4.15 -5.4 Q7.05 0.85 8.6 2.45 3.15 5.75 -3.35 5.95"/></g><g id="c32"><g><use transform="matrix(1.0,0.0,0.0,1.0,0.0,0.0)" xlink:href="#c31"/></g></g><g id="c33"><path fill="#786764" stroke="none" d="M-3.85 -1.8 Q-3.6 -2.05 0.05 -1.75 L3.9 -1.2 3.75 0.75 Q3.55 -0.05 -0.1 -0.65 L-4.1 -0.85 -3.85 -1.8"/><path fill="#211c16" stroke="none" d="M3.75 0.75 L0.65 3.2 -4.25 0.45 -4.1 -0.85 -0.1 -0.65 Q3.55 -0.05 3.75 0.75"/><path fill="none" stroke="#33231a" stroke-width="0.5" stroke-opacity="0.541176470588" d="M-3.85 -1.8 Q-3.6 -2.05 0.05 -1.75 L3.9 -1.2 3.75 0.75 0.65 3.2"/></g><g id="c34"><g><use transform="matrix(1.0,0.0,0.0,1.0,0.0,0.0)" xlink:href="#c33"/></g></g><g id="c35"><path fill="#786764" stroke="none" d="M0.45 -6.0 L6.6 -3.6 -1.65 -0.65 -0.25 5.8 Q-0.8 5.8 -6.6 -0.9 L0.45 -6.0"/><path fill="#312c26" stroke="none" d="M6.6 -3.6 L3.5 4.35 -0.25 5.8 -1.65 -0.65 6.6 -3.6"/><path fill="none" stroke="#33231a" stroke-width="0.5" stroke-opacity="0.541176470588" d="M0.45 -6.0 L6.6 -3.6 -1.65 -0.65 -0.25 5.8 Q-0.8 5.8 -6.6 -0.9 M3.5 4.35 L-0.25 5.8"/></g><g id="c36"><g><use transform="matrix(1.0,0.0,0.0,1.0,0.0,0.0)" xlink:href="#c35"/></g></g><g id="c37"><path fill="#786764" stroke="none" d="M-3.35 -8.1 Q-2.05 -8.1 1.6 -5.8 5.25 -3.5 5.4 -2.55 7.1 4.85 6.95 5.55 6.35 5.15 4.05 7.15 6.15 3.7 2.6 -3.15 1.0 -1.25 -1.1 -0.05 L-1.05 -6.25 -5.25 -7.05 -3.35 -8.1"/><path fill="#312c26" stroke="none" d="M4.05 7.15 L-4.05 6.0 -7.2 -5.25 -5.25 -7.05 -1.05 -6.25 -1.1 -0.05 Q1.0 -1.25 2.6 -3.15 6.15 3.7 4.05 7.15"/><path fill="none" stroke="#33231a" stroke-width="0.5" stroke-opacity="0.541176470588" d="M-3.35 -8.1 Q-2.05 -8.1 1.6 -5.8 5.25 -3.5 5.4 -2.55 7.1 4.85 6.95 5.55 6.35 5.15 4.05 7.15 L-4.05 6.0"/></g><g id="c38"><g><use transform="matrix(1.0,0.0,0.0,1.0,0.0,0.0)" xlink:href="#c37"/></g></g><g id="c39"><g><use transform="matrix(0.181213378906,-0.0814666748047,0.0814666748047,0.181213378906,7.1,5.5)" filter="url(#filter23)" xlink:href="#c14"/></g><g><use transform="matrix(0.205184936523,0.00892639160156,0.0201873779297,0.185974121094,7.7,2.5)" filter="url(#filter24)" xlink:href="#c16"/></g><g><use transform="matrix(0.181213378906,-0.0814666748047,0.0814666748047,0.181213378906,8.35,8.4)" xlink:href="#c18"/></g><g><use transform="matrix(0.181213378906,-0.0814666748047,0.0814666748047,0.181213378906,9.5,8.0)" xlink:href="#c20"/></g><g><use transform="matrix(0.181213378906,-0.0814666748047,0.0814666748047,0.181213378906,10.85,6.9)" xlink:href="#c22"/></g><g><use transform="matrix(0.181213378906,-0.0814666748047,0.0814666748047,0.181213378906,10.55,7.15)" xlink:href="#c24"/></g><g><use transform="matrix(0.181213378906,-0.0814666748047,0.0814666748047,0.181213378906,8.05,5.8)" filter="url(#filter29)" xlink:href="#c26"/></g><g><use transform="matrix(0.181213378906,-0.0814666748047,0.0814666748047,0.181213378906,15.15,10.55)" xlink:href="#c28"/></g><g><use transform="matrix(0.181213378906,-0.0814666748047,0.0814666748047,0.181213378906,14.85,7.45)" xlink:href="#c30"/></g><g><use transform="matrix(0.181213378906,-0.0814666748047,0.0814666748047,0.181213378906,-0.65,5.6)" xlink:href="#c32"/></g><g><use transform="matrix(-0.0274200439453,-0.250579833984,0.243438720703,-0.0402984619141,12.45,11.2)" xlink:href="#c30"/></g><g><use transform="matrix(0.181213378906,-0.0814666748047,0.0814666748047,0.181213378906,3.85,1.45)" xlink:href="#c34"/></g><g><use transform="matrix(0.0697631835938,0.0110168457031,-0.0364837646484,0.069091796875,8.45,2.15)" xlink:href="#c32"/></g><g><use transform="matrix(0.0691375732422,-0.156127929688,0.149642944336,0.0595245361328,6.55,1.25)" xlink:href="#c30"/></g><g><use transform="matrix(0.181213378906,-0.0814666748047,0.0814666748047,0.181213378906,4.9,-0.55)" xlink:href="#c36"/></g><g><use transform="matrix(0.181213378906,-0.0814666748047,0.0814666748047,0.181213378906,3.1,12.5)" xlink:href="#c38"/></g><g><use transform="matrix(0.181213378906,-0.0814666748047,0.0814666748047,0.181213378906,3.2,9.25)" xlink:href="#c30"/></g><g><use transform="matrix(0.181213378906,-0.0814666748047,0.0814666748047,0.181213378906,12.95,0.45)" xlink:href="#c28"/></g><g><use transform="matrix(-0.0361480712891,-0.244384765625,0.246246337891,-0.0462799072266,12.35,2.9)" xlink:href="#c30"/></g><g><use transform="matrix(0.181213378906,-0.0814666748047,0.0814666748047,0.181213378906,11.3,-0.4)" xlink:href="#c30"/></g><g><use transform="matrix(0.181213378906,-0.0814666748047,0.0814666748047,0.181213378906,0.3,3.45)" xlink:href="#c30"/></g></g><filter id="filter23"><feColorMatrix in="SourceGraphic" type="matrix" values="1.0 0.0 0.0 0.0 0.0 0.0 1.0 0.0 0.0 0.0 0.0 0.0 1.0 0.0 0.0 0.0 0.0 0.0 0.6015625 0.0" result="cxform"/><feComposite operator="in" in2="SourceGraphic" result="color-xform"/></filter><filter id="filter24"><feColorMatrix in="SourceGraphic" type="matrix" values="1.0 0.0 0.0 0.0 0.4765625 0.0 1.0 0.0 0.0 -0.0625 0.0 0.0 1.0 0.0 -0.2421875 0.0 0.0 0.0 0.69921875 0.0" result="cxform"/><feComposite operator="in" in2="SourceGraphic" result="color-xform"/></filter><filter id="filter29"><feColorMatrix in="SourceGraphic" type="matrix" values="1.0 0.0 0.0 0.0 0.0 0.0 1.0 0.0 0.0 0.0 0.0 0.0 1.0 0.0 0.0 0.0 0.0 0.0 0.5 0.0" result="cxform"/><feComposite operator="in" in2="SourceGraphic" result="color-xform"/></filter><linearGradient gradientUnits="userSpaceOnUse" x1="-819.2" x2="819.2" spreadMethod="pad" gradientTransform="matrix(-0.0125732421875,0.0358276367188,-0.0249176025391,-0.0237579345703,24.2,32.05)" id="gradient8"><stop offset="0.0" stop-opacity="0.337254901961"/><stop offset="1.0" stop-opacity="0.0"/></linearGradient><linearGradient gradientUnits="userSpaceOnUse" x1="-819.2" x2="819.2" spreadMethod="pad" gradientTransform="matrix(-0.00735473632812,0.0306396484375,-0.0266723632812,-0.0176086425781,34.25,44.6)" id="gradient9"><stop offset="0.0" stop-opacity="0.337254901961"/><stop offset="1.0" stop-opacity="0.0"/></linearGradient><linearGradient gradientUnits="userSpaceOnUse" x1="-819.2" x2="819.2" spreadMethod="pad" gradientTransform="matrix(-0.00982666015625,0.0313873291016,-0.0181274414062,-0.0154724121094,4.1,17.85)" id="gradient10"><stop offset="0.0" stop-opacity="0.337254901961"/><stop offset="1.0" stop-opacity="0.0"/></linearGradient><linearGradient gradientUnits="userSpaceOnUse" x1="-819.2" x2="819.2" spreadMethod="pad" gradientTransform="matrix(0.0,0.0410766601562,-0.0333709716797,-0.0151062011719,15.9,32.85)" id="gradient11"><stop offset="0.0" stop-opacity="0.337254901961"/><stop offset="1.0" stop-opacity="0.0"/></linearGradient><g id="c40"><path stroke="none" fill="url(#gradient8)" d="M26.45 1.85 L26.45 44.1 21.35 44.1 21.35 1.85 26.45 1.85"/><path stroke="none" fill="url(#gradient9)" d="M36.8 5.55 L36.8 44.1 31.7 44.1 31.7 5.7 36.8 5.55"/><path stroke="none" fill="url(#gradient10)" d="M5.1 6.45 L5.1 44.1 0.0 44.1 0.0 6.65 5.1 6.45"/><path stroke="none" fill="url(#gradient11)" d="M15.75 1.85 L15.0 44.1 9.35 44.1 9.65 1.85 15.75 1.85"/></g><g id="c41"><g><use transform="matrix(1.0,0.0,0.0,1.0,0.0,0.0)" xlink:href="#c40"/></g></g><g id="c42"><path fill="#fefd8d" fill-opacity="0.972549019608" d="M33.85 83.75 L33.85 83.8 33.85 83.95 33.85 84.0 33.85 84.1 33.9 84.1 33.9 84.15 34.35 84.4 34.85 84.75 34.35 84.45 34.1 84.3 34.05 84.25 33.95 84.2 33.9 84.2 33.9 84.7 33.9 85.25 33.85 84.75 33.75 84.2 33.7 84.1 33.5 84.25 33.0 84.55 32.7 84.7 32.95 84.5 33.4 84.3 33.45 84.25 33.5 84.2 33.7 84.1 33.65 84.05 33.7 84.05 33.7 84.0 33.3 83.6 32.95 83.25 33.3 83.55 33.55 83.8 33.7 83.95 33.8 83.4 33.9 82.95 33.85 83.35 33.85 83.75 M34.4 83.9 L34.35 83.9 34.25 84.0 34.15 84.0 33.9 84.05 34.15 83.95 34.7 83.75 35.2 83.65 34.85 83.75 34.95 83.85 34.85 83.75 34.7 83.8 34.4 83.9 M36.75 85.45 L36.9 85.55 36.9 85.5 37.1 83.9 37.35 82.3 37.45 81.75 37.4 82.25 37.4 83.85 37.2 85.6 37.35 86.0 37.4 86.1 38.7 86.9 40.15 87.75 40.55 88.05 40.1 87.8 38.75 87.05 37.75 86.45 37.4 86.25 37.35 86.2 37.4 86.3 37.5 87.75 37.55 89.45 37.6 90.0 37.5 89.5 37.25 87.9 37.05 86.25 37.0 86.3 36.9 85.9 36.7 85.75 36.9 85.85 36.9 85.65 35.7 84.55 34.95 83.85 35.65 84.4 36.45 85.15 36.5 85.2 36.75 85.45 M36.1 86.45 L36.2 86.4 36.85 86.1 36.3 86.45 34.8 87.25 33.35 88.0 32.8 88.25 33.3 88.0 34.65 87.2 35.7 86.65 36.1 86.45 M38.1 85.65 L39.7 85.1 41.3 84.6 41.85 84.45 41.35 84.6 39.85 85.15 38.15 85.7 37.5 85.9 Q37.45 85.85 38.1 85.65"/><path fill="#fffd8f" fill-opacity="0.4" d="M33.85 83.75 L34.05 83.4 34.25 83.2 34.15 83.4 34.0 83.8 33.9 83.9 33.85 83.8 33.85 83.75 M34.1 84.3 L34.35 84.5 34.45 84.65 34.25 84.5 34.0 84.3 33.95 84.2 34.05 84.25 34.1 84.3 M33.4 84.3 L33.3 84.3 32.95 84.45 32.7 84.55 32.95 84.4 33.35 84.25 33.45 84.25 33.4 84.3 M33.55 83.8 L33.4 83.6 33.6 83.8 33.65 83.9 33.55 83.8 M34.4 83.9 L34.65 83.85 34.95 83.85 35.05 83.8 34.95 83.85 34.7 83.9 34.3 84.0 34.2 84.0 34.25 84.0 34.35 83.9 34.4 83.9 M33.6 84.3 L33.7 84.2 33.75 84.35 33.65 84.7 33.55 85.05 33.55 84.75 33.6 84.3 M38.7 82.75 L38.55 83.1 38.15 84.05 37.65 85.15 37.35 85.5 37.35 85.0 37.9 84.05 38.5 83.1 38.7 82.75 M36.75 85.45 L36.5 85.2 36.45 85.15 35.85 84.4 35.45 83.85 35.95 84.3 36.65 85.15 36.9 85.5 36.75 85.45 M37.4 86.3 L37.35 86.2 37.4 86.25 37.75 86.45 Q38.15 86.7 38.6 87.1 L39.3 87.75 38.5 87.15 37.6 86.5 37.4 86.3 M36.1 86.45 L35.7 86.65 34.7 87.0 33.8 87.3 34.7 86.95 35.75 86.5 36.1 86.45 M39.8 85.45 L38.7 85.65 38.25 85.7 38.7 85.55 39.75 85.35 40.7 85.2 41.05 85.15 40.75 85.25 39.8 85.45 M36.4 87.85 Q36.5 87.1 36.7 86.7 L36.95 86.25 37.0 86.75 36.65 87.8 36.3 88.85 36.15 89.25 36.25 88.85 36.4 87.85"/><path fill="#fffd8f" fill-opacity="0.392156862745" d="M36.9 85.85 L37.45 85.8 Q37.9 86.0 38.0 86.75 L38.45 87.85 38.6 88.25 38.35 87.95 37.65 87.3 Q37.1 87.0 36.9 86.5 36.75 86.1 36.9 85.85"/><path fill="#fffd8f" fill-opacity="0.392156862745" d="M36.95 85.95 Q36.8 85.8 37.05 85.85 L38.0 86.25 39.0 86.75 39.35 86.95 39.05 86.85 Q38.8 86.65 38.35 86.6 L37.55 86.35 36.95 85.95"/><path fill="#fffd8f" fill-opacity="0.392156862745" d="M37.3 85.9 L36.75 85.85 Q36.35 85.55 36.4 84.8 L36.2 83.65 36.1 83.25 36.3 83.55 Q36.35 83.9 36.9 84.35 37.35 84.75 37.45 85.25 L37.3 85.9"/><path fill="#fffd8f" fill-opacity="0.392156862745" d="M37.2 85.8 L37.1 85.95 36.25 85.35 35.35 84.65 35.05 84.45 35.3 84.6 Q35.55 84.75 35.95 84.9 L36.75 85.3 37.2 85.8"/><path fill="#fffd8f" fill-opacity="0.392156862745" d="M37.85 85.8 Q37.7 85.85 37.85 85.65 38.0 85.45 38.75 85.2 L39.75 84.75 40.15 84.6 39.9 84.75 39.25 85.2 38.5 85.65 37.85 85.8"/><path fill="#fffd8f" fill-opacity="0.392156862745" d="M36.5 86.25 L36.6 86.4 35.75 87.0 34.8 87.6 34.45 87.85 Q34.4 87.8 34.7 87.65 L35.25 87.1 35.9 86.5 Q36.25 86.25 36.5 86.25"/><path fill="#fffd8f" fill-opacity="0.392156862745" d="M33.75 84.05 L33.95 84.05 34.1 84.35 34.2 84.75 34.0 84.55 33.7 84.25 Q33.65 84.1 33.75 84.05"/><path fill="#fffd8f" fill-opacity="0.392156862745" d="M34.2 84.3 L33.95 84.2 33.75 84.1 33.75 84.05 Q33.9 84.05 34.1 84.2 L34.4 84.35 34.2 84.3"/><path fill="#fffd8f" fill-opacity="0.392156862745" d="M33.85 84.05 L33.65 84.05 33.5 83.65 33.5 83.25 33.65 83.55 33.9 83.85 33.85 84.05"/><path fill="#fffd8f" fill-opacity="0.392156862745" d="M33.8 84.0 L33.75 84.05 33.5 83.9 33.15 83.6 33.05 83.55 33.2 83.6 33.35 83.7 33.65 83.85 33.8 84.0"/><path fill="#fffd8f" fill-opacity="0.392156862745" d="M34.05 84.0 L34.05 83.95 34.3 83.8 34.7 83.65 34.8 83.6 34.7 83.7 Q34.6 83.7 34.55 83.8 L34.25 83.95 34.05 84.0"/><path fill="#fffd8f" fill-opacity="0.392156862745" d="M33.15 84.45 L33.4 84.3 Q33.5 84.15 33.6 84.15 L33.6 84.2 33.3 84.45 Q33.15 84.55 33.05 84.6 L33.15 84.45"/><path fill="#ffffff" stroke="none" d="M36.05 86.15 Q36.05 85.7 36.3 85.35 L37.05 84.95 37.85 85.2 38.25 85.9 38.05 86.75 37.3 87.15 36.5 86.9 36.05 86.15"/><path fill="#fefd8d" fill-opacity="0.972549019608" d="M21.4 61.35 L21.05 61.5 19.9 61.9 18.75 62.3 18.65 62.35 18.2 62.45 18.6 62.25 19.85 61.9 21.0 61.5 21.4 61.35 M17.45 61.95 L17.7 62.2 17.75 62.2 17.7 62.15 17.85 61.05 18.05 59.85 18.15 59.4 18.1 59.8 18.05 61.0 18.0 62.25 18.1 62.6 19.15 63.2 20.0 63.75 19.15 63.3 18.5 62.95 18.4 62.85 18.15 62.7 18.1 62.7 18.15 62.75 18.2 63.85 18.2 64.9 18.0 64.0 17.85 62.8 17.8 62.8 17.75 62.45 17.6 62.3 17.7 62.35 17.7 62.3 16.85 61.5 15.9 60.65 15.65 60.35 15.95 60.65 16.8 61.4 17.45 61.95 M17.25 62.85 L17.7 62.65 17.3 62.95 16.2 63.45 15.1 64.05 14.7 64.25 15.05 64.05 16.1 63.45 17.25 62.85"/><path fill="#fffd8f" fill-opacity="0.4" d="M17.45 61.95 L16.95 61.35 16.5 60.75 17.0 61.3 17.55 61.95 17.7 62.15 17.75 62.2 17.7 62.2 17.45 61.95 M18.5 62.95 L19.0 63.35 19.6 63.8 19.8 64.0 19.6 63.85 18.95 63.4 18.3 62.9 18.15 62.75 18.1 62.7 18.15 62.7 18.4 62.85 18.5 62.95 M19.1 62.2 L19.85 62.05 20.6 61.95 19.85 62.15 19.05 62.3 18.75 62.3 19.1 62.2 M18.95 60.4 L18.65 61.15 18.3 61.9 18.05 62.2 18.1 61.85 18.45 61.15 18.9 60.4 19.1 60.2 18.95 60.4 M16.9 62.9 L17.2 62.85 Q17.15 62.9 16.85 63.05 L16.15 63.3 15.45 63.55 15.2 63.6 15.45 63.5 16.1 63.25 Q16.6 63.0 16.9 62.9 M17.75 62.75 L17.8 63.1 17.6 63.95 17.25 64.7 17.15 64.95 17.2 64.7 17.4 63.9 Q17.4 63.4 17.55 63.1 L17.75 62.75"/><path fill="#fffd8f" fill-opacity="0.392156862745" d="M17.7 62.45 L18.15 62.4 18.6 63.1 18.85 63.95 19.0 64.25 18.8 64.0 Q18.75 63.8 18.3 63.55 L17.75 62.95 17.7 62.45"/><path fill="#fffd8f" fill-opacity="0.392156862745" d="M17.8 62.5 Q17.7 62.4 17.9 62.4 18.05 62.4 18.55 62.7 L19.35 63.1 19.6 63.2 19.35 63.15 18.85 63.0 18.25 62.8 17.8 62.5"/><path fill="#fffd8f" fill-opacity="0.392156862745" d="M18.0 62.5 L17.55 62.45 Q17.35 62.3 17.3 61.7 L17.2 60.8 17.15 60.5 17.25 60.75 17.65 61.35 18.1 62.0 18.0 62.5"/><path fill="#fffd8f" fill-opacity="0.392156862745" d="M17.95 62.45 L17.9 62.5 17.25 62.1 Q16.8 61.7 16.55 61.6 L16.35 61.4 16.55 61.5 17.05 61.75 17.6 62.05 17.95 62.45"/><path fill="#fffd8f" fill-opacity="0.392156862745" d="M18.45 62.4 L18.4 62.3 19.05 61.9 19.85 61.6 20.15 61.5 19.95 61.6 19.5 61.95 18.9 62.3 18.45 62.4"/><path fill="#fffd8f" fill-opacity="0.392156862745" d="M17.45 62.7 L17.5 62.85 16.9 63.3 16.2 63.75 15.95 63.95 16.15 63.75 16.5 63.35 17.05 62.9 17.45 62.7"/><path fill="#ffffff" stroke="none" d="M17.2 62.65 Q17.15 62.35 17.4 62.1 L17.9 61.75 18.55 61.95 18.85 62.5 18.7 63.1 18.1 63.4 17.55 63.25 17.2 62.65"/><path fill="#ffffff" stroke="none" d="M33.45 84.15 L33.55 83.9 33.75 83.75 34.1 83.85 34.2 84.05 34.15 84.4 33.85 84.5 33.6 84.45 33.45 84.15"/></g><g id="c43"><g><use transform="matrix(1.0,0.0,0.0,1.0,6.3,53.35)" xlink:href="#c9"/></g><mask id="mask10"><use transform="matrix(1.0,0.0,0.0,1.0,0.0,0.0)" xlink:href="#c10"/></mask><g mask="url(#mask10)"><use transform="matrix(1.0,0.0,0.0,1.0,6.45,53.4)" xlink:href="#c12"/></g><g><use transform="matrix(1.0,0.0,0.0,1.0,19.85,68.2)" xlink:href="#c39"/></g><mask id="mask10"><use transform="matrix(1.0,0.0,0.0,1.0,0.0,0.0)" xlink:href="#c10"/></mask><g mask="url(#mask10)"><use transform="matrix(1.0,0.0,0.0,1.0,9.65,51.0)" filter="url(#filter50)" xlink:href="#c41"/></g><g mask="url(#mask10)"><use transform="matrix(1.0,0.0,0.0,1.0,9.65,51.0)" filter="url(#filter51)" xlink:href="#c41"/></g><g mask="url(#mask10)"><use transform="matrix(1.0,0.0,0.0,1.0,0.0,0.0)" xlink:href="#c42"/></g><g><use transform="matrix(0.141098022461,-0.0378112792969,0.111373901367,0.225646972656,27.2,74.05)" filter="url(#filter53)" xlink:href="#c6"/></g></g><filter id="filter50"><feColorMatrix in="SourceGraphic" type="matrix" values="0.0 0.0 0.0 0.0 0.99609375 0.0 0.0 0.0 0.0 0.99609375 0.0 0.0 0.0 0.0 0.99609375 0.0 0.0 0.0 1.0 0.0" result="cxform"/><feComposite operator="in" in2="SourceGraphic" result="color-xform"/></filter><filter id="filter51"><feColorMatrix in="SourceGraphic" type="matrix" values="0.0 0.0 0.0 0.0 0.99609375 0.0 0.0 0.0 0.0 0.99609375 0.0 0.0 0.0 0.0 0.99609375 0.0 0.0 0.0 1.0 0.0" result="cxform"/><feComposite operator="in" in2="SourceGraphic" result="color-xform"/></filter><filter id="filter53"><feColorMatrix in="SourceGraphic" type="matrix" values="1.0 0.0 0.0 0.0 0.0 0.0 1.0 0.0 0.0 0.0 0.0 0.0 1.0 0.0 0.0 0.0 0.0 0.0 0.23046875 0.0" result="cxform"/><feComposite operator="in" in2="SourceGraphic" result="color-xform"/></filter></defs><g><g><use transform="matrix(1.0,0.0,0.0,1.0,0.0,0.0)" xlink:href="#c1"/></g><g><use transform="matrix(1.15492248535,0.0,0.0,1.15492248535,-1.95,-57.05)" xlink:href="#c43"/></g></g></svg>