<?xml version='1.0' encoding='UTF-8'?>
<svg xmlns:xlink="http://www.w3.org/1999/xlink" xmlns="http://www.w3.org/2000/svg" version="1.1" width="60px" height="60px" viewBox="0.0 0.0 60.0 60.0"><defs><g id="c1"><path fill="#000000" fill-opacity="0.00392156862745" d="M0.0 0.0 L60.0 0.0 60.0 60.0 0.0 60.0 0.0 0.0"/></g><g id="c2"><path fill="none" stroke="#000000" stroke-width="1.0" stroke-opacity="0.301960784314" d="M22.3 0.35 Q26.6 -1.0 28.5 3.05 L41.4 31.7 Q43.1 35.4 39.9 36.85 L38.15 37.65 19.65 43.65 Q17.05 44.5 15.35 43.3 14.2 42.55 13.5 40.9 L0.55 12.25 Q-0.6 9.75 0.6 8.25 1.15 7.55 2.2 7.05 2.85 6.6 3.8 6.3 L22.3 0.35"/><path fill="#300525" stroke="none" d="M25.55 0.9 Q26.9 1.6 27.8 3.55 L40.7 32.15 Q42.6 36.3 38.3 37.65 L23.3 42.5 13.15 21.4 4.6 20.9 0.7 12.25 Q-0.45 9.75 0.75 8.25 L29.8 9.75 25.55 0.9 M20.1 43.55 L19.8 43.65 Q17.15 44.45 15.5 43.3 L20.1 43.55"/><path fill="#630a4c" stroke="none" d="M23.3 42.5 L20.1 43.55 15.5 43.3 Q14.35 42.55 13.65 40.9 L4.6 20.9 13.15 21.4 23.3 42.5 M0.75 8.25 Q1.45 7.3 3.1 6.75 L21.65 0.8 25.55 0.9 29.8 9.75 0.75 8.25"/><path fill="none" stroke="#000000" stroke-width="0.5" stroke-opacity="0.301960784314" d="M25.55 0.9 Q26.9 1.6 27.8 3.55 L40.7 32.15 Q42.6 36.3 38.3 37.65 L23.3 42.5 20.1 43.55 19.8 43.65 Q17.15 44.45 15.5 43.3 14.35 42.55 13.65 40.9 L4.6 20.9 0.7 12.25 Q-0.45 9.75 0.75 8.25 1.45 7.3 3.1 6.75 L21.65 0.8 25.55 0.9"/><path fill="#9d147b" stroke="none" d="M14.2 40.5 L1.35 11.8 Q-0.5 7.75 3.8 6.35 L22.3 0.4 Q26.55 -1.0 28.45 3.1 L41.35 31.7 Q43.25 35.85 38.9 37.25 L20.4 43.2 Q16.1 44.55 14.2 40.5"/><path fill="none" stroke="#000000" stroke-width="0.5" stroke-opacity="0.301960784314" d="M14.2 40.5 L1.35 11.8 Q-0.5 7.75 3.8 6.35 L22.3 0.4 Q26.55 -1.0 28.45 3.1 L41.35 31.7 Q43.25 35.85 38.9 37.25 L20.4 43.2 Q16.1 44.55 14.2 40.5"/><path fill="#fcf2cf" stroke="none" d="M9.15 13.6 Q9.8 12.8 9.55 11.6 L9.1 10.55 22.05 6.35 Q24.9 5.45 26.25 7.85 L26.5 8.3 35.8 29.0 35.95 29.35 Q34.75 29.3 34.1 30.1 33.45 30.9 33.7 32.1 L34.0 32.9 20.65 37.2 Q18.8 37.8 17.65 37.0 16.8 36.4 16.3 35.2 L6.95 14.6 6.8 14.4 7.1 14.4 Q8.4 14.45 9.15 13.6"/><path fill="#c47fad" stroke="none" d="M8.25 23.65 L3.35 12.8 Q1.65 9.1 5.5 7.85 L22.25 2.5 Q26.05 1.25 27.75 4.95 L28.25 6.1 35.55 22.3 39.35 30.75 Q41.1 34.5 37.2 35.7 L20.45 41.1 Q16.8 42.25 15.2 39.0 L15.0 38.6 8.25 23.65 M9.15 13.6 Q8.4 14.45 7.1 14.4 L6.8 14.4 6.95 14.6 16.3 35.2 Q16.8 36.4 17.65 37.0 18.8 37.8 20.65 37.2 L34.0 32.9 33.7 32.1 Q33.45 30.9 34.1 30.1 34.75 29.3 35.95 29.35 L35.8 29.0 26.5 8.3 26.25 7.85 Q24.9 5.45 22.05 6.35 L9.1 10.55 9.55 11.6 Q9.8 12.8 9.15 13.6"/><path fill="none" stroke="#ffcc00" stroke-width="1.0" stroke-opacity="0.749019607843" d="M8.25 23.65 L3.35 12.8 Q1.65 9.1 5.5 7.85 L22.25 2.5 Q26.05 1.25 27.75 4.95 L28.25 6.1 M35.55 22.3 L39.35 30.75 Q41.1 34.5 37.2 35.7 L20.45 41.1 Q16.8 42.25 15.2 39.0 L15.0 38.6"/><path fill="none" stroke="#bf9900" stroke-width="1.0" stroke-opacity="0.749019607843" d="M28.25 6.1 L35.55 22.3 M15.0 38.6 L8.25 23.65"/><path fill="none" stroke="#f0b92b" stroke-width="0.5" d="M9.15 13.6 Q9.8 12.8 9.55 11.6 L9.1 10.55 22.05 6.35 Q24.9 5.45 26.25 7.85 L26.5 8.3 35.8 29.0 35.95 29.35 Q34.75 29.3 34.1 30.1 33.45 30.9 33.7 32.1 L34.0 32.9 20.65 37.2 Q18.8 37.8 17.65 37.0 16.8 36.4 16.3 35.2 L6.95 14.6 6.8 14.4 7.1 14.4 Q8.4 14.45 9.15 13.6"/></g><g id="c3"><path fill="#7fdbfe" stroke="none" d="M10.75 4.9 Q10.75 4.6 10.9 4.35 11.25 3.45 11.95 2.75 13.3 1.5 14.35 2.1 15.4 2.7 14.95 4.45 14.7 5.4 14.1 6.15 L13.75 6.5 Q13.1 7.15 12.35 7.35 L11.4 7.2 Q10.95 6.9 10.75 6.4 10.5 5.75 10.75 4.9 M7.5 5.9 Q7.0 5.85 6.6 5.5 6.05 5.0 5.8 4.15 L5.7 3.6 Q5.55 2.65 5.8 1.7 6.25 0.0 7.5 0.0 L7.6 0.0 Q8.85 0.0 9.3 1.7 9.55 2.65 9.4 3.6 L9.3 4.15 8.5 5.5 7.6 5.9 7.5 5.9 M4.35 4.9 Q4.6 5.75 4.35 6.4 L3.7 7.2 2.75 7.35 Q2.0 7.15 1.35 6.5 L1.0 6.15 Q0.4 5.4 0.15 4.45 -0.3 2.7 0.75 2.1 1.8 1.5 3.15 2.75 3.85 3.45 4.2 4.35 L4.35 4.9 M5.5 13.7 Q4.45 13.9 3.65 12.95 2.75 12.0 3.2 10.25 3.7 8.5 5.25 7.6 6.4 6.9 7.55 7.0 8.75 6.9 9.9 7.6 11.45 8.5 11.95 10.25 12.35 12.0 11.5 12.95 10.7 13.9 9.65 13.7 8.55 13.5 7.55 12.6 6.55 13.5 5.5 13.7"/></g><g id="c4"><g><use transform="matrix(1.0,0.0,0.0,1.0,0.0,0.0)" xlink:href="#c3"/></g></g><radialGradient gradientUnits="userSpaceOnUse" r="819.2" cx="0" cy="0" spreadMethod="pad" gradientTransform="matrix(0.0914459228516,0.0,0.0,0.0914459228516,0.6,3.4)" id="gradient1"><stop offset="0.0" stop-color="#ffffff"/><stop offset="1.0" stop-color="#ffffff" stop-opacity="0.0"/></radialGradient><g id="c5"><path stroke="none" fill="url(#gradient1)" d="M36.65 -54.65 Q60.05 -42.0 69.75 -17.95 80.55 8.9 68.0 34.1 55.45 59.35 26.8 68.2 -1.8 77.05 -29.7 64.3 -57.6 51.6 -68.45 24.75 -79.3 -2.05 -66.75 -27.25 L-66.7 -27.3 Q-54.1 -52.5 -25.5 -61.4 3.1 -70.2 31.0 -57.5 L36.65 -54.65"/></g><g id="c6"><g><use transform="matrix(1.0,0.0,0.0,1.0,0.0,0.0)" xlink:href="#c5"/></g></g><radialGradient gradientUnits="userSpaceOnUse" r="819.2" cx="0" cy="0" spreadMethod="pad" gradientTransform="matrix(0.209197998047,0.0,0.0,0.177108764648,67.15,107.2)" id="gradient2"><stop offset="0.356862745098" stop-color="#ffffff"/><stop offset="0.670588235294" stop-opacity="0.0"/></radialGradient><g id="c7"><path fill="none" stroke-linejoin="round" stroke-linecap="round" stroke="url(#gradient2)" stroke-width="0.5" d="M136.55 165.8 L68.6 106.0 68.4 106.0 118.25 201.5 M68.2 105.7 L68.25 105.8 68.25 105.75 68.2 105.7 0.0 45.7 M68.25 105.8 L68.3 105.85 68.3 105.8 68.25 105.75 49.95 0.05 M0.05 97.7 L68.15 105.95 68.25 105.85 68.25 105.8 M68.3 105.85 L68.25 105.85 68.3 106.0 68.3 105.85 68.3 105.8 68.35 105.8 68.3 105.8 86.6 18.35 M50.0 193.2 L68.3 106.0 68.15 105.95 18.25 151.55 M68.4 106.0 L68.3 106.0 86.55 211.5 M68.4 106.0 L68.3 105.85 M68.6 106.0 L68.35 105.8 118.25 60.15 M136.6 114.25 L68.6 106.0 M68.2 105.7 L18.25 10.05"/></g><g id="c8"><g><use transform="matrix(1.0,0.0,0.0,1.0,0.0,0.0)" xlink:href="#c7"/></g></g><g id="c9"><path fill="#fefed5" stroke="none" d="M28.5 32.4 Q28.6 42.85 45.2 59.9 L45.6 65.4 Q45.95 70.8 50.85 74.75 55.75 78.65 64.05 76.15 72.35 73.65 73.85 67.3 L91.1 66.2 Q108.65 64.6 113.1 63.25 117.55 61.8 117.75 61.85 104.05 101.85 79.85 118.4 80.25 117.95 78.7 111.65 77.1 105.35 72.9 93.95 57.15 93.3 24.15 93.45 21.4 102.6 22.55 108.3 23.65 114.0 25.4 117.75 13.15 111.35 11.25 106.8 L11.05 106.1 10.9 105.5 10.85 105.25 10.7 104.7 10.1 101.65 9.7 99.05 9.45 96.65 9.45 96.6 9.4 95.75 Q9.0 89.85 9.85 83.25 L9.55 83.75 9.85 83.25 Q0.35 102.95 2.0 113.9 0.95 111.75 0.25 109.35 -1.8 87.95 12.1 71.6 15.85 57.1 24.5 39.95 L28.5 32.4 M78.85 130.0 Q80.0 128.6 81.3 127.35 L81.85 126.8 Q87.5 121.15 96.45 116.6 L97.6 116.05 Q99.65 115.05 101.85 114.1 L106.5 112.25 106.2 112.55 106.15 112.6 103.95 114.4 Q98.35 119.2 95.45 122.65 91.9 126.75 89.95 132.15 88.0 137.55 90.7 146.4 93.4 155.2 104.3 156.1 L96.5 156.75 Q75.15 157.55 72.05 149.4 72.05 147.15 72.35 145.0 73.0 140.4 75.0 136.25 L75.1 136.05 Q76.7 132.7 78.85 130.0 M9.85 83.25 Q10.55 77.65 12.1 71.6 10.55 77.65 9.85 83.25 M37.25 123.25 L38.05 123.55 37.25 123.25"/><path fill="#edecaf" stroke="none" d="M168.95 92.8 L168.9 92.75 168.85 91.85 168.95 92.8 M164.9 59.5 L146.65 60.35 Q130.15 76.45 140.3 94.95 151.1 114.7 170.15 119.1 167.5 133.95 145.65 144.8 130.9 152.15 112.5 155.1 L106.8 155.9 104.55 156.1 104.3 156.1 Q93.4 155.2 90.7 146.4 88.0 137.55 89.95 132.15 91.9 126.75 95.45 122.65 98.35 119.2 103.95 114.4 L106.15 112.6 106.2 112.55 106.5 112.25 Q104.95 110.8 104.3 106.5 104.2 107.7 101.75 111.2 99.25 114.65 97.6 116.05 L96.45 116.6 Q87.5 121.15 81.85 126.8 L81.3 127.35 Q80.0 128.6 78.85 130.0 63.45 137.3 49.95 136.05 36.4 134.75 28.7 130.9 L25.2 128.2 25.1 128.1 23.7 126.85 22.9 126.05 Q17.7 121.0 14.5 114.9 L12.6 110.7 11.25 106.8 Q13.15 111.35 25.4 117.75 23.65 114.0 22.55 108.3 21.4 102.6 24.15 93.45 57.15 93.3 72.9 93.95 77.1 105.35 78.7 111.65 80.25 117.95 79.85 118.4 104.05 101.85 117.75 61.85 117.55 61.8 113.1 63.25 108.65 64.6 91.1 66.2 L73.85 67.3 Q72.35 73.65 64.05 76.15 55.75 78.65 50.85 74.75 45.95 70.8 45.6 65.4 L45.2 59.9 Q28.6 42.85 28.5 32.4 L28.5 32.35 Q50.25 -0.35 108.65 0.0 L115.75 0.4 120.65 1.05 123.5 1.65 123.65 1.65 123.85 1.7 124.0 1.75 124.2 1.8 Q140.9 5.75 152.35 18.7 157.9 30.55 161.65 44.85 L162.2 46.95 163.7 53.45 164.9 59.5 M9.85 83.25 Q9.0 89.85 9.4 95.75 L9.45 96.6 9.45 96.35 Q9.05 100.2 8.9 107.6 8.75 114.95 7.35 115.7 L2.9 115.6 2.0 113.9 Q0.35 102.95 9.85 83.25 L9.55 83.75 9.85 83.25 M37.25 123.25 L38.05 123.55 37.25 123.25"/><path fill="#cdc070" stroke="none" d="M168.85 91.85 L168.9 92.75 168.95 92.8 169.55 108.2 Q170.5 111.5 170.5 114.95 L170.15 119.1 Q151.1 114.7 140.3 94.95 130.15 76.45 146.65 60.35 L164.9 59.5 Q166.6 68.5 167.7 78.35 L168.85 91.85 M11.25 106.8 L12.6 110.7 14.5 114.9 Q17.7 121.0 22.9 126.05 L23.7 126.85 25.1 128.1 Q13.6 126.8 7.1 120.85 L6.05 119.8 Q4.2 117.9 2.9 115.6 L7.35 115.7 Q8.75 114.95 8.9 107.6 9.05 100.2 9.45 96.35 L9.45 96.6 9.45 96.65 9.7 99.05 10.1 101.65 10.7 104.7 10.85 105.25 10.9 105.5 11.05 106.1 11.25 106.8 M28.7 130.9 Q36.4 134.75 49.95 136.05 63.45 137.3 78.85 130.0 76.7 132.7 75.1 136.05 L75.0 136.25 Q73.0 140.4 72.35 145.0 59.05 144.75 47.5 140.75 L41.6 138.4 39.9 137.6 38.05 136.7 37.6 136.45 36.9 136.1 29.2 131.25 28.7 130.9 M97.6 116.05 Q99.25 114.65 101.75 111.2 104.2 107.7 104.3 106.5 104.95 110.8 106.5 112.25 L101.85 114.1 Q99.65 115.05 97.6 116.05"/><path fill="none" stroke="#000000" stroke-width="0.5" stroke-opacity="0.0980392156863" d="M168.95 92.8 L168.85 91.85 167.7 78.35 Q166.6 68.5 164.9 59.5 L163.7 53.45 162.2 46.95 161.65 44.85 Q157.9 30.55 152.35 18.7 140.9 5.75 124.2 1.8 L124.0 1.75 123.85 1.7 123.65 1.65 123.5 1.65 120.65 1.05 115.75 0.4 108.65 0.0 Q50.25 -0.35 28.5 32.35 L28.5 32.4 24.5 39.95 Q15.85 57.1 12.1 71.6 10.55 77.65 9.85 83.25 9.0 89.85 9.4 95.75 L9.45 96.6 9.45 96.65 9.7 99.05 10.1 101.65 10.7 104.7 10.85 105.25 10.9 105.5 11.05 106.1 11.25 106.8 12.6 110.7 14.5 114.9 Q17.7 121.0 22.9 126.05 L23.7 126.85 25.1 128.1 25.2 128.2 28.7 130.9 M170.15 119.1 L170.5 114.95 Q170.5 111.5 169.55 108.2 L168.95 92.8 M78.85 130.0 Q80.0 128.6 81.3 127.35 L81.85 126.8 Q87.5 121.15 96.45 116.6 L97.6 116.05 Q99.65 115.05 101.85 114.1 L106.5 112.25 M104.55 156.1 L106.8 155.9 112.5 155.1 Q130.9 152.15 145.65 144.8 167.5 133.95 170.15 119.1 M6.05 119.8 L7.1 120.85 Q13.6 126.8 25.1 128.1 M72.35 145.0 Q73.0 140.4 75.0 136.25 L75.1 136.05 Q76.7 132.7 78.85 130.0 M72.35 145.0 Q59.05 144.75 47.5 140.75 L41.6 138.4 39.9 137.6 38.05 136.7 37.6 136.45 36.9 136.1 29.2 131.25 M2.0 113.9 Q0.95 111.75 0.25 109.35 -1.8 87.95 12.1 71.6 M72.35 145.0 Q72.05 147.15 72.05 149.4 75.15 157.55 96.5 156.75 L104.3 156.1"/></g><g id="c10"><path fill="#ffffff" stroke="none" d="M28.5 32.4 L28.5 32.35 Q50.25 -0.35 108.65 0.0 L115.75 0.4 120.65 1.05 123.5 1.65 123.65 1.65 123.85 1.7 124.0 1.75 124.2 1.8 Q140.9 5.75 152.35 18.7 157.9 30.55 161.65 44.85 L162.2 46.95 163.7 53.45 164.9 59.5 146.65 60.35 Q130.15 76.45 140.3 94.95 151.1 114.7 170.15 119.1 167.5 133.95 145.65 144.8 130.9 152.15 112.5 155.1 L106.8 155.9 104.55 156.1 104.3 156.1 Q93.4 155.2 90.7 146.4 88.0 137.55 89.95 132.15 91.9 126.75 95.45 122.65 98.35 119.2 103.95 114.4 L106.15 112.6 106.2 112.55 106.5 112.25 Q104.95 110.8 104.3 106.5 104.2 107.7 101.75 111.2 99.25 114.65 97.6 116.05 L96.45 116.6 Q87.5 121.15 81.85 126.8 L81.3 127.35 Q80.0 128.6 78.85 130.0 63.45 137.3 49.95 136.05 36.4 134.75 28.7 130.9 L25.2 128.2 25.1 128.1 23.7 126.85 22.9 126.05 Q17.7 121.0 14.5 114.9 L12.6 110.7 11.25 106.8 Q13.15 111.35 25.4 117.75 23.65 114.0 22.55 108.3 21.4 102.6 24.15 93.45 57.15 93.3 72.9 93.95 77.1 105.35 78.7 111.65 80.25 117.95 79.85 118.4 104.05 101.85 117.75 61.85 117.55 61.8 113.1 63.25 108.65 64.6 91.1 66.2 L73.85 67.3 Q72.35 73.65 64.05 76.15 55.75 78.65 50.85 74.75 45.95 70.8 45.6 65.4 L45.2 59.9 Q28.6 42.85 28.5 32.4 M168.85 91.85 L168.95 92.8 168.9 92.75 168.85 91.85 M9.85 83.25 Q9.0 89.85 9.4 95.75 L9.45 96.6 9.45 96.35 Q9.05 100.2 8.9 107.6 8.75 114.95 7.35 115.7 L2.9 115.6 2.0 113.9 Q0.35 102.95 9.85 83.25 L9.55 83.75 9.85 83.25 M37.25 123.25 L38.05 123.55 37.25 123.25"/><path fill="#ffffff" stroke="none" d="M11.25 106.8 L12.6 110.7 14.5 114.9 Q17.7 121.0 22.9 126.05 L23.7 126.85 25.1 128.1 Q13.6 126.8 7.1 120.85 L6.05 119.8 Q4.2 117.9 2.9 115.6 L7.35 115.7 Q8.75 114.95 8.9 107.6 9.05 100.2 9.45 96.35 L9.45 96.6 9.45 96.65 9.7 99.05 10.1 101.65 10.7 104.7 10.85 105.25 10.9 105.5 11.05 106.1 11.25 106.8 M28.7 130.9 Q36.4 134.75 49.95 136.05 63.45 137.3 78.85 130.0 76.7 132.7 75.1 136.05 L75.0 136.25 Q73.0 140.4 72.35 145.0 59.05 144.75 47.5 140.75 L41.6 138.4 39.9 137.6 38.05 136.7 37.6 136.45 36.9 136.1 29.2 131.25 28.7 130.9 M97.6 116.05 Q99.25 114.65 101.75 111.2 104.2 107.7 104.3 106.5 104.95 110.8 106.5 112.25 L101.85 114.1 Q99.65 115.05 97.6 116.05 M170.15 119.1 Q151.1 114.7 140.3 94.95 130.15 76.45 146.65 60.35 L164.9 59.5 Q166.6 68.5 167.7 78.35 L168.85 91.85 168.9 92.75 168.95 92.8 169.55 108.2 Q170.5 111.5 170.5 114.95 L170.15 119.1"/><path fill="#ffffff" stroke="none" d="M28.5 32.4 Q28.6 42.85 45.2 59.9 L45.6 65.4 Q45.95 70.8 50.85 74.75 55.75 78.65 64.05 76.15 72.35 73.65 73.85 67.3 L91.1 66.2 Q108.65 64.6 113.1 63.25 117.55 61.8 117.75 61.85 104.05 101.85 79.85 118.4 80.25 117.95 78.7 111.65 77.1 105.35 72.9 93.95 57.15 93.3 24.15 93.45 21.4 102.6 22.55 108.3 23.65 114.0 25.4 117.75 13.15 111.35 11.25 106.8 L11.05 106.1 10.9 105.5 10.85 105.25 10.7 104.7 10.1 101.65 9.7 99.05 9.45 96.65 9.45 96.6 9.4 95.75 Q9.0 89.85 9.85 83.25 L9.55 83.75 9.85 83.25 Q0.35 102.95 2.0 113.9 0.95 111.75 0.25 109.35 -1.8 87.95 12.1 71.6 15.85 57.1 24.5 39.95 L28.5 32.4 M78.85 130.0 Q80.0 128.6 81.3 127.35 L81.85 126.8 Q87.5 121.15 96.45 116.6 L97.6 116.05 Q99.65 115.05 101.85 114.1 L106.5 112.25 106.2 112.55 106.15 112.6 103.95 114.4 Q98.35 119.2 95.45 122.65 91.9 126.75 89.95 132.15 88.0 137.55 90.7 146.4 93.4 155.2 104.3 156.1 L96.5 156.75 Q75.15 157.55 72.05 149.4 72.05 147.15 72.35 145.0 73.0 140.4 75.0 136.25 L75.1 136.05 Q76.7 132.7 78.85 130.0 M9.85 83.25 Q10.55 77.65 12.1 71.6 10.55 77.65 9.85 83.25 M37.25 123.25 L38.05 123.55 37.25 123.25"/><path fill="#ffffff" stroke="#000000" stroke-width="0.5" stroke-opacity="0.0980392156863" d="M164.9 59.5 L163.7 53.45 162.2 46.95 161.65 44.85 Q157.9 30.55 152.35 18.7 140.9 5.75 124.2 1.8 L124.0 1.75 123.85 1.7 123.65 1.65 123.5 1.65 120.65 1.05 115.75 0.4 108.65 0.0 Q50.25 -0.35 28.5 32.35 L28.5 32.4 24.5 39.95 Q15.85 57.1 12.1 71.6 10.55 77.65 9.85 83.25 9.0 89.85 9.4 95.75 L9.45 96.6 9.45 96.65 9.7 99.05 10.1 101.65 10.7 104.7 10.85 105.25 10.9 105.5 11.05 106.1 11.25 106.8 12.6 110.7 14.5 114.9 Q17.7 121.0 22.9 126.05 L23.7 126.85 25.1 128.1 25.2 128.2 28.7 130.9 M78.85 130.0 Q80.0 128.6 81.3 127.35 L81.85 126.8 Q87.5 121.15 96.45 116.6 L97.6 116.05 Q99.65 115.05 101.85 114.1 L106.5 112.25 M104.55 156.1 L106.8 155.9 112.5 155.1 Q130.9 152.15 145.65 144.8 167.5 133.95 170.15 119.1 M164.9 59.5 Q166.6 68.5 167.7 78.35 L168.85 91.85 168.95 92.8 169.55 108.2 Q170.5 111.5 170.5 114.95 L170.15 119.1 M6.05 119.8 L7.1 120.85 Q13.6 126.8 25.1 128.1 M72.35 145.0 Q73.0 140.4 75.0 136.25 L75.1 136.05 Q76.7 132.7 78.85 130.0 M72.35 145.0 Q59.05 144.75 47.5 140.75 L41.6 138.4 39.9 137.6 38.05 136.7 37.6 136.45 36.9 136.1 29.2 131.25 M2.0 113.9 Q0.95 111.75 0.25 109.35 -1.8 87.95 12.1 71.6 M72.35 145.0 Q72.05 147.15 72.05 149.4 75.15 157.55 96.5 156.75 L104.3 156.1"/></g><g id="c11"><path fill="#242318" fill-opacity="0.282352941176" d="M-53.75 -30.55 L-29.85 -28.45 -16.6 -31.2 -21.35 -27.75 -21.65 -27.75 -21.65 -27.7 -24.35 -27.95 -29.85 -28.45 -33.65 -27.65 -43.75 -27.65 -46.4 -27.65 -46.05 -27.35 -46.0 -27.3 -48.15 -27.1 -46.0 -27.3 -45.85 -27.2 -32.95 -16.65 -9.75 -22.6 4.5 -22.1 8.15 -21.3 30.1 -20.3 31.05 -20.15 32.85 -19.9 39.35 -20.7 32.25 -14.05 21.3 -13.85 14.75 -10.75 5.9 -17.75 -5.6 -18.4 -6.6 -18.45 -44.45 -13.7 -32.95 -16.65 -44.45 -13.7 -57.9 -10.25 -63.95 -8.7 -58.05 -14.15 -63.25 -18.85 -84.1 -20.0 -78.0 -21.05 -62.6 -24.8 -80.0 -25.9 -72.5 -25.75 -63.95 -25.6 -63.95 -25.95 -63.95 -31.45 -53.75 -30.55 M91.9 -10.7 L71.75 -18.65 57.2 -19.85 39.35 -20.65 39.35 -20.7 43.25 -21.2 63.5 -23.8 75.05 -19.2 86.65 -14.55 89.05 -12.75 86.65 -14.55 75.05 -19.2 83.05 -26.3 87.0 -26.8 88.55 -27.0 88.5 -27.0 89.55 -27.15 89.05 -27.05 98.05 -25.85 82.65 -23.15 81.2 -19.5 83.4 -18.85 89.05 -12.75 91.9 -10.7 M-46.05 -27.35 L-48.15 -27.1 -63.95 -25.95 -48.15 -27.1 -46.05 -27.35"/><path fill="#242318" fill-opacity="0.411764705882" d="M-9.75 -22.6 L-32.95 -16.65 -45.85 -27.2 -46.0 -27.3 -46.05 -27.35 -46.4 -27.65 -43.75 -27.65 -33.65 -27.65 -24.35 -27.95 -21.65 -27.7 -21.35 -27.7 -1.15 -24.8 -9.75 -22.6 M75.05 -19.2 L63.5 -23.8 83.05 -26.3 75.05 -19.2 M-43.75 -27.65 L-46.05 -27.35 -43.75 -27.65"/><path fill="#242318" fill-opacity="0.172549019608" d="M94.2 -55.7 L69.05 -56.25 74.1 -35.15 102.3 -31.05 86.3 -32.35 68.85 -33.7 67.7 -36.6 66.1 -40.6 65.3 -42.6 64.65 -44.3 63.55 -49.1 62.15 -49.95 60.75 -54.1 60.7 -54.25 51.8 -50.05 48.7 -50.4 33.9 -46.05 26.2 -49.35 27.0 -51.05 14.25 -51.3 2.5 -47.15 -2.25 -41.75 -5.45 -37.4 -7.1 -37.15 -8.75 -36.95 -16.6 -31.2 -29.85 -28.45 -53.75 -30.55 -19.6 -44.2 Q-17.1 -52.1 -19.6 -58.05 L-8.9 -56.65 Q-7.3 -66.7 -14.0 -75.7 L0.6 -72.8 15.4 -75.7 34.95 -86.95 43.8 -83.65 47.4 -75.4 65.35 -64.75 69.6 -64.75 70.65 -64.75 74.1 -59.7 92.35 -59.7 94.2 -55.7 M93.1 -9.8 L94.8 -8.55 97.1 -6.85 58.9 16.4 58.9 8.3 29.2 -3.1 -4.85 4.8 -25.15 -2.35 -54.2 2.15 -57.9 -10.25 -44.45 -13.7 -6.6 -18.45 -5.6 -18.4 -23.6 -12.5 -18.15 -4.55 5.4 -6.35 6.4 -6.8 18.25 -4.95 35.8 -14.15 32.25 -14.05 39.35 -20.7 39.35 -20.65 57.2 -19.85 71.75 -18.65 91.9 -10.7 93.1 -9.8 M50.3 -71.25 L61.6 -64.05 66.45 -60.95 62.9 -56.65 60.75 -54.1 62.9 -56.65 66.45 -60.95 61.6 -64.05 50.3 -71.25 M53.5 -60.4 L38.6 -68.2 23.5 -64.5 25.75 -56.85 19.05 -55.45 34.85 -48.35 53.65 -55.45 53.5 -60.4 M61.6 -64.05 L67.55 -62.25 66.45 -60.95 67.55 -62.25 61.6 -64.05 M69.3 -61.7 L67.55 -62.25 69.6 -64.75 67.55 -62.25 69.3 -61.7 M66.45 -60.95 L67.4 -60.35 66.45 -60.95 M62.9 -56.65 L64.65 -44.3 62.9 -56.65 M66.95 -41.35 L66.1 -40.6 66.95 -41.35"/><path fill="#242318" fill-opacity="0.560784313725" d="M88.5 -27.0 L88.55 -27.0 87.0 -26.8 88.5 -27.0"/><path fill="#242218" fill-opacity="0.113725490196" d="M53.7 -102.8 L49.6 -99.4 35.05 -103.9 47.85 -110.85 53.7 -109.15 53.7 -102.8 M43.8 -83.65 L56.25 -79.0 74.55 -85.45 87.35 -72.3 97.45 -72.45 106.9 -78.05 104.35 -67.7 125.2 -67.6 94.2 -55.7 92.35 -59.7 74.1 -59.7 70.65 -64.75 69.6 -64.75 71.25 -66.75 69.6 -64.75 65.35 -64.75 47.4 -75.4 43.8 -83.65 M86.3 -32.35 L107.3 -27.5 120.35 -16.7 93.1 -9.8 91.9 -10.7 89.05 -12.75 83.4 -18.85 81.2 -19.5 82.65 -23.15 98.05 -25.85 89.05 -27.05 89.55 -27.15 88.5 -27.0 68.85 -33.7 86.3 -32.35 M94.05 -27.75 L89.55 -27.15 94.05 -27.75 M99.0 -5.45 L98.95 -5.3 98.65 -5.7 98.95 -5.3 93.45 8.25 81.55 9.45 69.45 18.25 65.9 34.8 56.25 24.3 39.85 32.6 45.1 16.35 39.85 7.05 32.9 4.05 16.9 12.5 -4.85 4.8 29.2 -3.1 58.9 8.3 58.9 16.4 97.1 -6.85 98.65 -5.7 99.0 -5.45"/><path fill="#ffff78" fill-opacity="0.250980392157" d="M111.95 -32.75 L85.05 -36.45 74.8 -48.65 77.35 -54.95 100.1 -52.55 113.4 -51.15 108.45 -47.3 114.4 -40.95 124.65 -39.0 138.0 -29.15 111.95 -32.75"/><path fill="#ffff78" fill-opacity="0.113725490196" d="M53.5 -60.4 L53.65 -55.45 34.85 -48.35 19.05 -55.45 25.75 -56.85 23.5 -64.5 38.6 -68.2 53.5 -60.4 M-5.6 -18.4 L5.9 -17.75 14.75 -10.75 21.3 -13.85 32.25 -14.05 35.8 -14.15 18.25 -4.95 6.4 -6.8 5.4 -6.35 -18.15 -4.55 -23.6 -12.5 -5.6 -18.4 M111.95 -32.75 L138.0 -29.15 124.65 -39.0 114.4 -40.95 108.45 -47.3 113.4 -51.15 100.1 -52.55 112.3 -60.55 124.3 -61.45 135.9 -43.65 154.25 -41.65 153.1 -24.95 122.35 -24.5 111.95 -32.75"/><path fill="#242106" fill-opacity="0.560784313725" d="M-16.6 -31.2 L-8.75 -36.95 -7.1 -37.15 2.0 -38.15 9.7 -31.6 2.0 -38.15 -2.25 -41.75 2.5 -47.15 14.25 -51.3 27.0 -51.05 26.2 -49.35 22.7 -40.25 9.7 -31.6 21.05 -21.6 -1.15 -24.8 -21.35 -27.7 -21.35 -27.75 -16.6 -31.2 M63.5 -23.8 L43.25 -21.2 54.2 -26.2 61.7 -36.9 67.7 -36.6 68.85 -33.7 88.5 -27.0 87.0 -26.8 83.05 -26.3 63.5 -23.8"/><path fill="#242218" fill-opacity="0.4" d="M30.1 -20.3 L8.15 -21.3 4.5 -22.1 -9.75 -22.6 -1.15 -24.8 21.05 -21.6 30.1 -20.3"/><path fill="#242006" fill-opacity="0.662745098039" d="M-7.1 -37.15 L-5.45 -37.4 -2.25 -41.75 2.0 -38.15 -7.1 -37.15 M61.7 -36.9 L66.1 -40.6 67.7 -36.6 61.7 -36.9"/><path fill="#242006" fill-opacity="0.490196078431" d="M26.2 -49.35 L33.9 -46.05 48.7 -50.4 51.8 -50.05 60.7 -54.25 60.75 -54.1 62.15 -49.95 63.55 -49.1 64.65 -44.3 65.3 -42.6 66.1 -40.6 61.7 -36.9 54.2 -26.2 43.25 -21.2 39.35 -20.7 32.85 -19.9 31.05 -20.15 30.1 -20.3 21.05 -21.6 9.7 -31.6 22.7 -40.25 26.2 -49.35 M23.4 -40.75 L22.7 -40.25 23.4 -40.75"/><path fill="none" stroke="#000000" stroke-width="1.5" stroke-opacity="0.490196078431" d="M93.1 -9.8 L94.8 -8.55 97.1 -6.85 98.65 -5.7 M-53.75 -30.55 L-29.85 -28.45 -24.35 -27.95 -21.65 -27.7 M-16.6 -31.2 L-8.75 -36.95 M-7.1 -37.15 L-5.45 -37.4 -2.25 -41.75 2.5 -47.15 14.25 -51.3 27.0 -51.05 26.2 -49.35 33.9 -46.05 48.7 -50.4 51.8 -50.05 60.7 -54.25 60.75 -54.1 62.15 -49.95 63.55 -49.1 64.65 -44.3 M-9.75 -22.6 L-32.95 -16.65 -44.45 -13.7 -57.9 -10.25 -63.95 -8.7 M39.35 -20.7 L32.85 -19.9 31.05 -20.15 M30.1 -20.3 L21.05 -21.6 -1.15 -24.8 -9.75 -22.6 M91.9 -10.7 L89.05 -12.75 86.65 -14.55 75.05 -19.2 63.5 -23.8 43.25 -21.2 39.35 -20.7 M67.7 -36.6 L68.85 -33.7 88.5 -27.0 89.55 -27.15 94.05 -27.75 M66.1 -40.6 L65.3 -42.6 M67.7 -36.6 L66.1 -40.6 M87.0 -26.8 L83.05 -26.3 75.05 -19.2 M87.0 -26.8 L88.55 -27.0 88.5 -27.0 87.0 -26.8 M99.0 -5.45 L98.65 -5.7 M91.9 -10.7 L93.1 -9.8 M63.5 -23.8 L83.05 -26.3 M-63.95 -31.45 L-53.75 -30.55 M-46.05 -27.35 L-46.4 -27.65 -43.75 -27.65 -33.65 -27.65 -24.35 -27.95 M-21.65 -27.75 L-21.35 -27.75 -16.6 -31.2 M-46.0 -27.3 L-46.05 -27.35 M-45.85 -27.2 L-32.95 -16.65 M-21.35 -27.7 L-21.65 -27.75 M-21.35 -27.7 L-21.65 -27.7 M-21.35 -27.7 L-1.15 -24.8"/><path fill="none" stroke="#000000" stroke-width="1.5" stroke-opacity="0.250980392157" d="M94.8 -8.55 L102.05 -4.65 106.65 1.2 111.75 3.3 M-8.75 -36.95 L-7.1 -37.15 M60.75 -54.1 L62.9 -56.65 66.45 -60.95 61.6 -64.05 50.3 -71.25 M69.6 -64.75 L67.55 -62.25 69.3 -61.7 M66.45 -60.95 L67.55 -62.25 61.6 -64.05 M64.65 -44.3 L62.9 -56.65 M67.4 -60.35 L66.45 -60.95 M71.25 -66.75 L69.6 -64.75 M26.2 -49.35 L22.7 -40.25 23.4 -40.75 M9.7 -31.6 L2.0 -38.15 -7.1 -37.15 M22.7 -40.25 L9.7 -31.6 21.05 -21.6 M61.7 -36.9 L66.1 -40.6 66.95 -41.35 M65.3 -42.6 L64.65 -44.3 M61.7 -36.9 L67.7 -36.6 M61.7 -36.9 L54.2 -26.2 43.25 -21.2 M98.65 -5.7 L98.95 -5.3 105.65 0.8 106.65 1.2 M-72.5 -25.75 L-63.95 -25.95 -48.15 -27.1 -46.05 -27.35 -43.75 -27.65 M-48.15 -27.1 L-46.0 -27.3 -45.85 -27.2 M2.0 -38.15 L-2.25 -41.75"/><path fill="none" stroke="#000000" stroke-width="1.5" stroke-opacity="0.211764705882" d="M105.65 0.8 L112.0 6.55 111.75 12.2"/></g><g id="c12"><g><use transform="matrix(1.0,0.0,0.0,1.0,0.0,0.0)" xlink:href="#c11"/></g></g><g id="c13"><path fill="#a19991" stroke="none" d="M113.35 24.5 L114.15 24.0 115.8 22.85 118.85 30.7 114.0 25.2 113.35 24.5 M97.5 22.65 L92.15 21.5 71.55 17.15 62.0 15.1 56.95 18.25 48.85 23.25 47.25 24.25 45.55 25.3 40.0 28.7 41.0 29.35 40.0 29.5 38.4 29.7 37.25 29.8 35.95 29.95 35.95 29.55 35.95 29.95 37.25 29.8 37.4 28.65 37.95 28.35 38.7 27.85 40.0 28.7 39.95 28.75 39.35 29.15 39.95 28.75 40.0 28.7 38.7 27.85 38.75 27.85 44.8 24.05 Q45.2 23.85 45.55 23.6 L47.95 22.15 56.4 16.85 59.9 14.65 60.45 14.3 61.6 13.55 60.45 14.3 56.55 13.15 50.45 11.45 45.25 10.1 50.65 11.25 56.9 12.55 61.6 13.55 72.6 16.35 92.6 20.55 102.0 22.1 97.5 22.65 M62.75 14.6 L62.0 15.1 59.9 14.65 62.0 15.1 62.75 14.6 M28.85 6.65 L25.65 6.1 23.2 5.7 8.75 3.0 10.05 2.65 9.35 2.5 11.0 2.0 15.7 0.45 Q14.25 3.2 19.45 4.65 L21.7 5.1 25.8 6.0 28.85 6.65 M23.2 5.7 L21.7 5.1 23.2 5.7 M19.45 4.65 L10.05 2.65 11.0 2.0 10.05 2.65 19.45 4.65 M35.25 30.0 L35.95 29.55 37.4 28.65 37.25 29.8 36.85 32.7 34.6 48.05 35.8 32.2 35.95 29.95 35.25 30.0 M39.35 29.15 L38.4 29.7 39.35 29.15"/><path fill="#b5867c" fill-opacity="0.211764705882" d="M92.15 21.5 L97.5 22.65 90.9 23.45 58.85 27.25 52.35 28.0 47.95 28.55 41.0 29.35 40.0 28.7 45.55 25.3 47.25 24.25 48.85 23.25 56.95 18.25 62.0 15.1 71.55 17.15 92.15 21.5"/><path fill="none" stroke="#000000" stroke-width="1.0" stroke-opacity="0.101960784314" d="M135.0 10.1 L145.1 3.35 M103.35 22.4 L113.35 24.5 114.15 24.0 M118.15 21.3 L123.35 17.85 M92.15 21.5 L71.55 17.15 M56.95 18.25 L48.85 23.25 M47.25 24.25 L45.55 25.3 M40.0 28.7 L41.0 29.35 M47.95 28.55 L52.35 28.0 M58.85 27.25 L90.9 23.45 M92.6 20.55 L72.6 16.35 M113.35 24.5 L114.0 25.2 M133.8 47.55 L141.6 56.3 M42.8 9.6 L38.55 8.7 M25.65 6.1 L23.2 5.7 8.75 3.0 10.05 2.65 9.35 2.5 11.0 2.0 15.7 0.45 17.0 0.0 M50.65 11.25 L56.9 12.55 M44.8 24.05 Q45.2 23.85 45.55 23.6 M47.95 22.15 L56.4 16.85 M56.55 13.15 L50.45 11.45 M21.7 5.1 L23.2 5.7 M15.7 0.45 Q14.25 3.2 19.45 4.65 L21.7 5.1 25.8 6.0 M11.0 2.0 L10.05 2.65 19.45 4.65 M9.45 38.05 L0.0 41.0 M37.95 28.35 L38.7 27.85 38.1 27.5 M39.35 29.15 L39.95 28.75 40.0 28.7 38.7 27.85 38.75 27.85 M40.0 29.5 L41.0 29.35 M32.5 30.8 L26.1 32.65 M22.5 33.25 L21.4 33.6 M35.8 32.2 L34.6 48.05 36.85 32.7 M34.6 48.05 L34.4 50.25"/><path fill="none" stroke="#000000" stroke-width="1.0" stroke-opacity="0.0313725490196" d="M123.35 17.85 L135.0 10.1 M102.0 22.1 L103.35 22.4 M114.15 24.0 L115.8 22.85 118.15 21.3 M97.5 22.65 L99.65 23.1 M97.5 22.65 L92.15 21.5 M71.55 17.15 L62.0 15.1 56.95 18.25 M48.85 23.25 L47.25 24.25 M45.55 25.3 L40.0 28.7 M41.0 29.35 L47.95 28.55 M52.35 28.0 L58.85 27.25 M90.9 23.45 L97.5 22.65 102.0 22.1 92.6 20.55 M72.6 16.35 L61.6 13.55 60.45 14.3 59.9 14.65 62.0 15.1 62.75 14.6 M114.0 25.2 L118.85 30.7 115.8 22.85 M118.85 30.7 L133.8 47.55 M45.25 10.1 L42.8 9.6 M38.55 8.7 L28.85 6.65 25.65 6.1 M50.45 11.45 L45.25 10.1 50.65 11.25 M56.9 12.55 L61.6 13.55 M45.55 23.6 L47.95 22.15 M56.4 16.85 L59.9 14.65 M60.45 14.3 L56.55 13.15 M25.8 6.0 L28.85 6.65 M18.6 35.15 L9.45 38.05 M35.25 30.0 L35.95 29.55 37.4 28.65 37.95 28.35 M35.95 29.55 L35.95 29.95 37.25 29.8 37.4 28.65 M38.4 29.7 L39.35 29.15 M38.75 27.85 L44.8 24.05 M38.4 29.7 L40.0 29.5 M37.25 29.8 L38.4 29.7 M35.25 30.0 L32.5 30.8 M35.8 32.2 L35.95 29.95 35.25 30.0 M36.85 32.7 L37.25 29.8 M21.4 33.6 L16.75 35.0"/></g><g id="c14"><g><use transform="matrix(1.0,0.0,0.0,1.0,0.0,0.0)" xlink:href="#c13"/></g></g><g id="c15"><g><use transform="matrix(1.0,0.0,0.0,1.0,0.0,0.0)" filter="url(#filter6)" xlink:href="#c14"/></g></g><filter id="filter6"><feColorMatrix in="SourceGraphic" type="matrix" values="1.0 0.0 0.0 0.0 0.0 0.0 1.0 0.0 0.0 -0.26171875 0.0 0.0 1.0 0.0 -0.1796875 0.0 0.0 0.0 0.8203125 0.0" result="cxform"/><feComposite operator="in" in2="SourceGraphic" result="color-xform"/></filter><g id="c16"><path fill="#a19991" stroke="none" d="M145.7 9.1 L154.3 8.0 156.45 7.7 158.3 7.45 158.5 7.55 161.8 9.0 193.55 23.2 192.75 23.6 193.55 23.2 193.85 23.35 193.9 23.65 193.95 24.2 194.4 27.4 Q194.9 30.45 195.7 32.95 196.05 34.35 196.55 35.55 L197.25 37.15 198.1 38.7 196.85 40.45 196.35 38.0 193.3 23.85 192.75 23.6 191.25 22.85 187.45 21.0 187.2 20.9 185.9 20.25 185.25 19.95 181.55 18.25 180.75 17.9 179.1 17.15 176.75 16.15 Q172.55 14.35 169.05 13.15 L163.85 11.45 161.85 10.95 157.0 10.25 145.85 10.9 145.3 10.95 111.55 12.85 111.7 12.85 114.4 12.6 116.9 12.35 123.25 11.7 124.65 11.55 124.95 11.5 126.0 11.4 137.1 10.15 138.8 9.95 141.3 9.65 143.45 9.35 143.5 9.35 145.7 9.1 M158.7 8.9 L158.5 7.55 158.7 8.9 M51.05 17.8 L49.65 18.0 49.6 18.0 45.7 18.45 45.45 18.45 45.15 18.5 44.85 18.55 43.95 18.65 43.2 18.75 39.85 19.15 34.55 19.75 34.2 19.8 34.05 19.85 31.65 20.15 20.0 21.7 16.05 22.25 15.8 22.25 15.8 22.15 15.65 20.7 15.8 20.7 43.3 18.45 44.9 18.3 45.0 18.3 51.05 17.8"/><path fill="#b5867c" fill-opacity="0.141176470588" d="M111.55 12.85 L145.3 10.95 145.85 10.9 157.0 10.25 161.85 10.95 163.85 11.45 169.05 13.15 Q172.55 14.35 176.75 16.15 L179.1 17.15 180.75 17.9 181.55 18.25 185.25 19.95 185.9 20.25 187.2 20.9 187.45 21.0 191.25 22.85 192.75 23.6 193.3 23.85 196.35 38.0 196.85 40.45 181.8 61.35 175.55 69.95 163.6 86.45 163.35 86.4 149.2 83.65 64.85 67.3 19.25 58.45 18.85 58.35 17.65 44.2 16.6 32.05 16.25 27.65 15.8 22.3 15.8 22.25 16.05 22.25 20.0 21.7 31.65 20.15 34.05 19.85 34.2 19.8 34.55 19.75 39.85 19.15 43.2 18.75 43.95 18.65 44.85 18.55 45.15 18.5 45.45 18.45 45.7 18.45 49.6 18.0 49.65 18.0 51.05 17.8 54.1 17.5 59.95 16.95 60.05 16.95 63.95 16.6 64.9 16.5 67.2 16.4 69.0 16.25 71.95 16.05 74.75 15.9 78.1 15.65 74.75 15.9 71.95 16.05 69.0 16.25 67.2 16.4 64.9 16.5 63.95 16.6 66.25 16.35 69.05 16.1 74.45 15.65 74.9 15.6 78.0 15.3 80.4 15.1 80.85 15.05 83.75 14.8 84.85 14.75 88.45 14.45 89.1 14.4 96.05 13.9 97.4 13.8 99.15 13.65 102.55 13.4 103.7 13.35 104.3 13.3 104.95 13.25 106.15 13.2 106.45 13.15 106.5 13.15 111.55 12.85 106.8 13.35 106.2 13.4 106.05 13.4 105.05 13.45 104.55 13.5 103.2 13.65 102.35 13.7 99.7 13.95 97.25 14.2 96.55 14.25 89.65 14.8 96.55 14.25 97.25 14.2 99.7 13.95 102.35 13.7 103.2 13.65 104.55 13.5 105.05 13.45 106.05 13.4 106.2 13.4 106.8 13.35 111.55 12.85 M78.1 15.65 L80.4 15.5 80.45 15.5 83.95 15.25 88.75 14.85 89.45 14.8 89.65 14.8 89.45 14.8 88.75 14.85 83.95 15.25 80.45 15.5 80.4 15.5 78.1 15.65 M20.8 57.35 L19.25 58.45 20.8 57.35 M163.35 86.4 L162.55 85.15 163.35 86.4"/><path fill="none" stroke="#000000" stroke-width="1.0" stroke-opacity="0.101960784314" d="M158.5 7.55 L158.3 7.45 156.45 7.7 154.3 8.0 145.7 9.1 M143.45 9.35 L141.3 9.65 138.8 9.95 137.1 10.15 126.0 11.4 124.95 11.5 124.65 11.55 123.25 11.7 116.9 12.35 114.4 12.6 111.7 12.85 111.55 12.85 145.3 10.95 M145.85 10.9 L157.0 10.25 161.85 10.95 M161.8 9.0 L158.5 7.55 158.7 8.9 M158.5 7.55 L157.25 0.0 M204.2 20.85 L214.55 18.55 M193.3 23.85 L196.35 38.0 M197.25 37.15 L196.55 35.55 Q196.05 34.35 195.7 32.95 194.9 30.45 194.4 27.4 L193.95 24.2 193.9 23.65 193.85 23.35 M196.05 22.65 L202.7 21.2 M89.1 14.4 L96.05 13.9 97.4 13.8 99.15 13.65 102.55 13.4 103.7 13.35 104.3 13.3 104.95 13.25 106.15 13.2 106.45 13.15 106.5 13.15 111.55 12.85 106.8 13.35 106.2 13.4 106.05 13.4 105.05 13.45 104.55 13.5 103.2 13.65 102.35 13.7 99.7 13.95 97.25 14.2 96.55 14.25 89.65 14.8 M78.1 15.65 L74.75 15.9 71.95 16.05 69.0 16.25 67.2 16.4 64.9 16.5 63.95 16.6 60.05 16.95 59.95 16.95 54.1 17.5 M43.2 18.75 L39.85 19.15 34.55 19.75 34.2 19.8 34.05 19.85 31.65 20.15 20.0 21.7 16.05 22.25 15.8 22.25 15.8 22.3 16.25 27.65 M16.6 32.05 L17.65 44.2 M149.2 83.65 L64.85 67.3 M13.0 63.7 L12.7 63.95 M175.55 69.95 L181.8 61.35 M63.95 16.6 L66.25 16.35 69.05 16.1 74.45 15.65 74.9 15.6 78.0 15.3 M15.8 22.25 L15.8 22.15 15.65 20.7 15.8 20.7 43.3 18.45 M14.6 20.15 L9.95 17.8"/><path fill="none" stroke="#000000" stroke-width="1.0" stroke-opacity="0.0313725490196" d="M145.7 9.1 L143.5 9.35 143.45 9.35 M145.3 10.95 L145.85 10.9 M161.85 10.95 L163.85 11.45 169.05 13.15 Q172.55 14.35 176.75 16.15 L179.1 17.15 180.75 17.9 181.55 18.25 185.25 19.95 185.9 20.25 187.2 20.9 187.45 21.0 191.25 22.85 192.75 23.6 193.55 23.2 161.8 9.0 M202.7 21.2 L204.2 20.85 M192.75 23.6 L193.3 23.85 M196.35 38.0 L196.85 40.45 198.1 38.7 197.25 37.15 M193.85 23.35 L193.55 23.2 196.05 22.65 M196.85 40.45 L196.9 40.65 200.45 41.75 M196.9 40.65 L197.05 41.35 M89.65 14.8 L89.45 14.8 88.75 14.85 83.95 15.25 80.45 15.5 80.4 15.5 78.1 15.65 M54.1 17.5 L51.05 17.8 49.65 18.0 49.6 18.0 45.7 18.45 45.45 18.45 45.15 18.5 44.85 18.55 43.95 18.65 43.2 18.75 M16.25 27.65 L16.6 32.05 M17.65 44.2 L18.85 58.35 19.25 58.45 20.8 57.35 M163.35 86.4 L149.2 83.65 M64.85 67.3 L19.25 58.45 13.0 63.7 M12.7 63.95 L6.8 68.95 M162.55 85.15 L163.35 86.4 163.6 86.45 175.55 69.95 M181.8 61.35 L196.85 40.45 M78.0 15.3 L80.4 15.1 80.85 15.05 83.75 14.8 84.85 14.75 88.45 14.45 89.1 14.4 M43.3 18.45 L44.9 18.3 45.0 18.3 51.05 17.8 M163.35 86.4 L178.05 109.65 M3.45 14.6 L0.0 12.6 M9.95 17.8 L4.5 15.0"/></g><g id="c17"><g><use transform="matrix(1.0,0.0,0.0,1.0,0.0,0.0)" xlink:href="#c16"/></g></g><g id="c18"><g><use transform="matrix(1.0,0.0,0.0,1.0,303.85,-9.3)" filter="url(#filter8)" xlink:href="#c17"/></g></g><filter id="filter8"><feColorMatrix in="SourceGraphic" type="matrix" values="1.0 0.0 0.0 0.0 0.0 0.0 1.0 0.0 0.0 -0.26171875 0.0 0.0 1.0 0.0 -0.1796875 0.0 0.0 0.0 0.8203125 0.0" result="cxform"/><feComposite operator="in" in2="SourceGraphic" result="color-xform"/></filter><g id="c19"><g><use transform="matrix(0.530624389648,0.0,0.0,0.530624389648,7.25,0.0)" xlink:href="#c15"/></g><g><use transform="matrix(-0.328750610352,0.0,0.0,0.328750610352,139.6,56.0)" xlink:href="#c15"/></g><g><use transform="matrix(0.400238037109,0.0,0.0,0.400238037109,-121.6,26.85)" xlink:href="#c18"/></g></g><g id="c20"><g><use transform="matrix(1.0,0.0,0.0,1.0,0.0,0.0)" xlink:href="#c9"/></g><mask id="mask10"><use transform="matrix(1.0,0.0,0.0,1.0,0.0,0.0)" xlink:href="#c10"/></mask><g mask="url(#mask10)"><use transform="matrix(0.787902832031,-0.0481109619141,0.0745697021484,1.25993347168,127.1,189.2)" filter="url(#filter14)" xlink:href="#c12"/></g><g mask="url(#mask10)"><use transform="matrix(-0.0774383544922,0.746246337891,-2.26103210449,-0.295440673828,169.9,41.5)" filter="url(#filter15)" xlink:href="#c19"/></g></g><filter id="filter14"><feColorMatrix in="SourceGraphic" type="matrix" values="1.0 0.0 0.0 0.0 0.0 0.0 1.0 0.0 0.0 0.0 0.0 0.0 1.0 0.0 0.0 0.0 0.0 0.0 0.08984375 0.0" result="cxform"/><feComposite operator="in" in2="SourceGraphic" result="color-xform"/></filter><filter id="filter15"><feColorMatrix in="SourceGraphic" type="matrix" values="0.0390625 0.0 0.0 0.0 0.0 0.0 0.0 0.0 0.0 0.0 0.0 0.0 0.0 0.0 0.0 0.0 0.0 0.0 0.28125 0.0" result="cxform"/><feComposite operator="in" in2="SourceGraphic" result="color-xform"/></filter><g id="c21"><path fill="#ba0e0e" stroke="none" d="M90.2 7.8 Q105.65 15.55 105.65 26.45 105.65 37.35 90.2 45.05 74.75 52.75 52.85 52.7 30.95 52.65 15.5 44.9 0.0 37.15 0.0 26.25 0.0 15.35 15.45 7.65 30.95 -0.05 52.8 0.0 74.7 0.05 90.2 7.8"/><path fill="none" stroke="#000000" stroke-width="0.5" stroke-opacity="0.0980392156863" d="M90.2 7.8 Q105.65 15.55 105.65 26.45 105.65 37.35 90.2 45.05 74.75 52.75 52.85 52.7 30.95 52.65 15.5 44.9 0.0 37.15 0.0 26.25 0.0 15.35 15.45 7.65 30.95 -0.05 52.8 0.0 74.7 0.05 90.2 7.8"/></g><g id="c22"><g><use transform="matrix(1.0,0.0,0.0,1.0,0.0,0.0)" xlink:href="#c21"/></g></g><g id="c23"><path fill="#fefed7" stroke="none" d="M25.7 1.1 Q12.05 17.0 12.6 21.95 13.1 26.8 14.3 30.9 15.5 34.9 17.6 37.15 19.65 39.35 21.15 39.7 L22.75 39.95 Q21.85 41.95 20.8 43.15 L19.4 44.35 Q11.5 42.65 9.55 35.85 L9.1 33.55 9.55 35.85 9.85 41.1 Q10.0 43.2 10.25 44.2 12.15 47.5 18.25 50.15 L17.6 51.4 Q16.2 54.0 14.45 54.95 L13.0 55.45 12.9 55.45 Q7.5 54.0 5.0 49.9 7.4 55.0 7.7 57.9 L7.15 57.9 Q-4.3 53.5 2.55 25.95 8.05 10.9 18.25 3.5 L19.2 2.85 20.7 1.9 Q22.4 0.85 24.2 0.0 L25.7 1.1 M3.8 47.4 L3.9 47.75 5.0 49.9 3.9 47.75 3.8 47.4 3.75 47.3 3.5 47.55 3.8 47.4 M2.9 43.7 Q3.15 45.65 3.75 47.3 3.15 45.65 2.9 43.7"/><path fill="#edecaf" stroke="none" d="M25.7 1.1 L25.8 1.2 24.1 3.75 23.95 4.0 Q20.35 9.5 17.1 16.2 16.65 19.15 17.6 22.7 18.45 26.15 20.55 30.15 21.9 32.2 22.55 34.15 23.4 36.65 23.1 39.05 L22.75 39.95 21.15 39.7 Q19.65 39.35 17.6 37.15 15.5 34.9 14.3 30.9 13.1 26.8 12.6 21.95 12.05 17.0 25.7 1.1 M7.7 57.9 Q7.4 55.0 5.0 49.9 7.5 54.0 12.9 55.45 10.75 57.65 7.7 57.9 M3.8 47.4 L3.5 47.55 3.75 47.3 3.8 47.4 M9.55 35.85 Q11.5 42.65 19.4 44.35 19.55 47.15 18.25 50.15 12.15 47.5 10.25 44.2 10.0 43.2 9.85 41.1 L9.55 35.85"/><path fill="none" stroke="#000000" stroke-width="0.5" stroke-opacity="0.0980392156863" d="M24.1 3.75 L25.8 1.2 25.7 1.1 24.2 0.0 Q22.4 0.85 20.7 1.9 L19.2 2.85 18.25 3.5 Q8.05 10.9 2.55 25.95 -4.3 53.5 7.15 57.9 L7.7 57.9 M22.75 39.95 L23.1 39.05 Q23.4 36.65 22.55 34.15 21.9 32.2 20.55 30.15 18.45 26.15 17.6 22.7 16.65 19.15 17.1 16.2 20.35 9.5 23.95 4.0 M5.0 49.9 L3.9 47.75 3.8 47.4 M3.75 47.3 Q3.15 45.65 2.9 43.7 M9.1 33.55 L9.55 35.85 Q11.5 42.65 19.4 44.35 L20.8 43.15 Q21.85 41.95 22.75 39.95 M3.75 47.3 L3.8 47.4 M18.25 50.15 L17.6 51.4 Q16.2 54.0 14.45 54.95 L13.0 55.45 12.9 55.45 Q10.75 57.65 7.7 57.9 M5.0 49.9 Q7.5 54.0 12.9 55.45 M19.4 44.35 Q19.55 47.15 18.25 50.15"/><path fill="#ab3c18" stroke="none" d="M19.05 43.6 Q16.2 42.55 15.35 40.95 18.1 41.4 20.5 40.95 L19.05 43.6 M10.2 56.4 L7.45 57.5 Q5.7 56.95 4.35 55.3 L10.2 56.4 M11.7 52.35 L15.35 52.55 Q13.35 54.95 12.25 54.7 11.1 54.45 9.85 53.6 8.65 52.7 8.1 51.65 L11.7 52.35"/></g><g id="c24"><g><use transform="matrix(1.0,0.0,0.0,1.0,0.0,0.0)" xlink:href="#c23"/></g></g><linearGradient gradientUnits="userSpaceOnUse" x1="-819.2" x2="819.2" spreadMethod="pad" gradientTransform="matrix(0.0736999511719,-0.128311157227,0.230728149414,0.132568359375,195.7,317.0)" id="gradient3"><stop offset="0.0" stop-color="#edc000"/><stop offset="1.0" stop-color="#aa6400"/></linearGradient><linearGradient gradientUnits="userSpaceOnUse" x1="-819.2" x2="819.2" spreadMethod="pad" gradientTransform="matrix(0.0471343994141,0.17594909668,-0.965927124023,0.258819580078,387.45,311.7)" id="gradient4"><stop offset="0.0" stop-color="#f6ffd8"/><stop offset="1.0" stop-color="#f6ffd8" stop-opacity="0.0"/></linearGradient><linearGradient gradientUnits="userSpaceOnUse" x1="-819.2" x2="819.2" spreadMethod="pad" gradientTransform="matrix(0.0193786621094,0.0720672607422,-0.0656585693359,0.0176544189453,110.55,103.95)" id="gradient5"><stop offset="0.0" stop-color="#f6ffd8"/><stop offset="1.0" stop-color="#f6ffd8" stop-opacity="0.0"/></linearGradient><g id="c25"><path fill="#aa6400" stroke="none" d="M49.4 265.7 Q50.65 266.8 48.0 264.7 L49.4 265.7"/><path stroke="none" fill="url(#gradient3)" d="M342.45 165.35 Q389.95 243.05 400.7 315.95 L401.35 320.55 401.45 321.35 Q402.65 330.0 403.0 338.5 405.65 406.5 350.65 459.9 284.15 524.65 180.85 524.35 77.6 523.9 11.05 458.85 -43.9 405.0 -41.25 336.95 -40.9 328.5 -39.7 319.85 -38.35 310.3 -36.0 301.35 L-35.75 300.4 -34.9 297.35 -33.9 293.7 Q-13.6 219.0 23.15 165.35 L120.15 165.35 239.75 165.35 342.45 165.35 M49.4 265.7 L48.0 264.7 Q50.65 266.8 49.4 265.7"/><path fill="none" stroke="#000000" stroke-width="1.0" stroke-opacity="0.149019607843" d="M314.85 124.2 Q329.9 144.9 342.45 165.35 L360.55 165.35 M342.45 165.35 Q389.95 243.05 400.7 315.95 L401.35 320.55 401.45 321.35 Q402.65 330.0 403.0 338.5 405.65 406.5 350.65 459.9 284.15 524.65 180.85 524.35 77.6 523.9 11.05 458.85 -43.9 405.0 -41.25 336.95 -40.9 328.5 -39.7 319.85 -38.35 310.3 -36.0 301.35 L-35.75 300.4 -34.9 297.35 -33.9 293.7 Q-13.6 219.0 23.15 165.35 L11.65 165.35 M120.15 165.35 Q148.7 158.9 180.75 159.0 211.8 159.1 239.75 165.35 L342.45 165.35 M23.15 165.35 Q41.3 138.7 63.25 118.35 M23.15 165.35 L120.15 165.35 239.75 165.35"/><path fill="#edc000" stroke="none" d="M356.7 129.85 Q357.85 138.55 357.85 147.7 357.85 163.4 354.5 177.9 341.1 197.2 306.55 214.35 255.65 239.65 183.55 239.55 111.45 239.4 60.5 213.9 25.85 196.55 14.75 174.4 11.85 168.65 10.6 162.65 9.75 155.6 9.65 148.35 L9.65 146.5 Q9.65 137.15 10.85 128.2 17.45 79.0 60.55 42.7 111.55 -0.15 183.7 0.0 255.8 0.3 306.8 43.6 350.2 80.3 356.7 129.85 M3.75 140.75 Q0.0 150.0 0.0 160.0 0.0 173.45 6.75 185.5 12.6 196.0 23.6 205.45 35.6 215.75 53.75 224.85 107.5 251.7 183.5 251.85 259.5 252.0 313.2 225.3 332.45 215.75 344.8 204.8 354.7 196.0 360.15 186.3 366.9 174.2 366.9 160.75 366.9 154.05 365.2 147.65 380.2 196.75 362.9 231.65 360.75 236.7 357.5 241.5 344.45 260.8 313.2 276.3 259.5 303.0 183.5 302.85 107.5 302.7 53.75 275.85 23.0 260.45 9.85 241.45 6.4 236.5 4.2 231.3 -17.7 189.25 3.75 140.75"/><path fill="#fefe05" stroke="none" d="M10.6 162.65 Q11.85 168.65 14.75 174.4 25.85 196.55 60.5 213.9 111.45 239.4 183.55 239.55 255.65 239.65 306.55 214.35 341.1 197.2 354.5 177.9 357.85 163.4 357.85 147.7 357.85 138.55 356.7 129.85 361.15 136.15 363.7 142.9 L365.2 147.65 Q366.9 154.05 366.9 160.75 366.9 174.2 360.15 186.3 354.7 196.0 344.8 204.8 332.45 215.75 313.2 225.3 259.5 252.0 183.5 251.85 107.5 251.7 53.75 224.85 35.6 215.75 23.6 205.45 12.6 196.0 6.75 185.5 0.0 173.45 0.0 160.0 0.0 150.0 3.75 140.75 L4.25 139.55 5.2 137.5 Q7.5 132.75 10.85 128.2 9.65 137.15 9.65 146.5 L9.65 148.35 Q9.5 150.35 9.5 152.4 9.5 157.65 10.6 162.65"/><path fill="none" stroke="#000000" stroke-width="0.5" stroke-opacity="0.149019607843" d="M356.7 129.85 Q357.85 138.55 357.85 147.7 357.85 163.4 354.5 177.9 341.1 197.2 306.55 214.35 255.65 239.65 183.55 239.55 111.45 239.4 60.5 213.9 25.85 196.55 14.75 174.4 11.85 168.65 10.6 162.65 9.5 157.65 9.5 152.4 9.5 150.35 9.65 148.35 L9.65 146.5 Q9.65 137.15 10.85 128.2 7.5 132.75 5.2 137.5 L4.25 139.55 3.75 140.75 M365.2 147.65 L363.7 142.9 Q361.15 136.15 356.7 129.85 350.2 80.3 306.8 43.6 255.8 0.3 183.7 0.0 111.55 -0.15 60.55 42.7 17.45 79.0 10.85 128.2 M365.2 147.65 Q380.2 196.75 362.9 231.65 360.75 236.7 357.5 241.5 344.45 260.8 313.2 276.3 259.5 303.0 183.5 302.85 107.5 302.7 53.75 275.85 23.0 260.45 9.85 241.45 6.4 236.5 4.2 231.3 -17.7 189.25 3.75 140.75 M10.6 162.65 Q9.75 155.6 9.65 148.35"/><path fill="#aa6400" stroke="none" d="M251.95 28.9 Q305.6 46.0 327.7 96.05 349.75 146.1 336.0 173.15 322.25 200.2 266.6 215.85 217.85 229.6 177.3 228.15 136.7 226.65 112.35 219.55 88.0 212.4 72.95 202.5 57.9 192.6 52.4 177.65 46.9 162.7 52.5 141.9 L56.8 124.5 Q68.75 146.4 100.25 154.1 131.7 161.8 162.2 135.2 207.75 86.8 159.6 30.8 207.15 14.6 251.95 28.9 M172.85 328.1 Q237.35 328.9 289.8 309.9 342.2 290.9 368.0 256.05 391.5 328.0 376.85 378.55 331.75 514.75 167.3 505.1 113.85 498.1 113.8 394.65 110.7 340.4 84.4 313.3 108.35 327.25 172.85 328.1 M158.85 296.0 Q123.45 292.45 91.15 283.6 58.9 274.75 42.45 262.8 26.0 250.85 11.0 231.2 -4.0 211.55 -1.25 180.3 48.3 271.55 213.55 260.15 333.75 249.75 367.05 184.45 365.6 230.15 332.3 256.9 298.95 283.6 246.6 291.6 194.2 299.55 158.85 296.0"/><path fill="#543100" stroke="none" d="M265.05 57.85 Q232.95 22.8 168.3 10.35 246.3 -6.35 294.85 48.95 310.15 61.75 321.0 81.1 331.35 99.2 338.7 120.7 346.0 142.2 340.8 159.0 335.55 175.8 333.1 180.05 327.85 186.25 318.5 192.85 352.25 126.2 317.2 86.65 308.05 76.6 295.75 69.15 280.1 59.65 273.85 63.15 314.25 120.8 290.6 179.05 L280.55 203.45 Q280.0 206.9 303.95 201.75 239.1 230.95 184.7 228.25 252.35 220.8 274.75 156.85 297.1 92.9 265.05 57.85 M268.5 267.7 Q245.05 278.85 240.7 283.25 236.35 287.65 252.8 289.5 221.7 296.8 181.9 297.0 195.5 296.65 205.85 294.35 217.6 291.7 226.05 286.25 234.5 280.75 235.8 278.6 236.5 277.45 237.25 274.15 237.9 271.25 240.85 264.45 178.85 271.85 122.55 257.45 234.15 270.35 316.2 233.9 350.55 216.4 367.0 184.55 367.6 185.45 367.05 196.9 366.5 208.3 356.6 228.65 346.65 249.0 329.75 258.85 327.2 261.35 310.95 271.05 341.8 234.15 311.5 248.5 285.35 259.6 268.5 267.7 M204.15 480.8 Q205.35 455.5 226.95 438.2 232.4 431.9 237.9 427.55 L244.3 422.9 250.45 417.95 Q257.35 411.4 257.55 404.3 257.75 399.0 247.4 393.85 237.0 388.7 235.95 378.4 234.9 368.1 236.75 358.15 238.6 348.15 237.8 349.35 242.1 326.9 193.5 327.6 327.3 322.2 369.7 241.85 377.5 250.4 383.55 268.05 391.0 288.3 396.1 326.7 401.15 365.1 391.9 386.7 382.65 408.3 372.2 419.85 346.15 453.1 309.15 473.7 337.65 443.5 351.75 425.8 377.6 392.2 379.7 349.0 374.2 372.4 355.5 399.95 332.65 433.6 328.85 438.05 325.0 442.45 321.65 445.3 L315.4 450.1 277.4 478.6 273.05 482.05 Q270.65 484.1 269.25 486.1 L267.35 489.0 Q266.2 490.8 292.2 483.65 254.8 502.6 233.95 504.75 194.75 509.2 167.3 505.1 202.9 506.1 204.15 480.8 M293.05 376.1 Q309.5 407.15 292.6 418.1 275.65 429.05 274.6 429.9 L266.85 435.65 Q251.9 444.25 241.75 453.65 231.55 463.05 230.1 471.3 228.65 479.55 222.3 486.55 215.9 493.5 212.1 499.1 208.25 504.7 239.65 494.65 276.65 476.6 308.05 443.15 339.4 409.65 328.95 362.8 323.25 332.6 343.0 295.0 327.7 312.95 302.15 329.05 276.55 345.1 293.05 376.1"/><path fill="#181910" stroke="none" d="M236.4 512.1 Q279.15 500.35 292.5 465.25 259.8 472.4 262.3 459.4 264.7 446.35 284.6 432.6 304.4 418.85 318.05 414.9 331.65 410.9 342.0 412.75 352.35 414.6 346.3 427.35 340.25 440.1 327.75 449.25 324.15 472.5 302.5 490.25 280.85 507.95 244.15 517.1 207.4 526.15 180.85 524.35 L170.5 523.95 Q193.65 523.8 236.4 512.1"/><path fill="#aa6400" stroke="none" d="M141.45 -81.4 L142.65 -82.75 Q154.3 -94.95 185.95 -90.25 217.55 -85.6 244.4 -63.4 271.25 -41.25 275.0 -10.4 278.8 20.45 279.2 26.85 279.55 33.2 279.6 57.5 279.55 81.8 246.4 79.45 213.25 77.05 216.35 49.35 L217.05 42.3 Q217.15 46.45 220.9 54.45 225.55 64.4 238.95 65.4 241.3 49.6 242.4 24.4 243.5 -0.8 242.15 -17.4 240.75 -34.0 217.3 -54.6 193.85 -75.25 172.55 -82.9 151.2 -90.6 141.45 -81.4 M187.15 -24.95 Q177.8 -29.2 173.6 -24.25 167.7 -17.25 164.55 0.75 146.65 4.2 133.9 7.0 L138.6 4.5 Q136.75 2.7 138.8 -4.9 149.0 -35.8 166.8 -31.15 184.6 -26.55 187.15 -24.95"/><path fill="#edc000" stroke="none" d="M133.9 7.0 L132.65 7.25 132.25 7.35 115.3 11.3 111.65 12.3 120.8 -28.4 122.5 -35.55 Q126.1 -50.1 130.2 -60.25 L130.4 -60.8 130.6 -61.2 130.75 -61.65 130.85 -61.85 130.95 -62.05 131.3 -62.85 Q133.15 -67.3 134.95 -70.85 138.4 -77.7 141.45 -81.4 151.2 -90.6 172.55 -82.9 193.85 -75.25 217.3 -54.6 240.75 -34.0 242.15 -17.4 243.5 -0.8 242.4 24.4 241.3 49.6 238.95 65.4 225.55 64.4 220.9 54.45 217.15 46.45 217.05 42.3 L217.2 40.45 Q218.9 19.15 216.35 7.15 211.85 -8.6 195.7 -19.9 195.35 -20.15 195.1 -20.35 L194.95 -20.45 194.8 -20.55 194.65 -20.65 188.1 -24.5 187.25 -24.9 187.15 -24.95 Q184.6 -26.55 166.8 -31.15 149.0 -35.8 138.8 -4.9 136.75 2.7 138.6 4.5 L133.9 7.0 M188.1 -24.5 L187.15 -24.95 188.1 -24.5"/><path fill="none" stroke="#000000" stroke-width="1.0" stroke-opacity="0.149019607843" d="M133.9 7.0 L132.65 7.25 132.25 7.35 115.3 11.3 111.65 12.3 120.8 -28.4 122.5 -35.55 Q126.1 -50.1 130.2 -60.25 L130.4 -60.8 130.6 -61.2 130.75 -61.65 130.85 -61.85 130.95 -62.05 131.3 -62.85 Q133.15 -67.3 134.95 -70.85 138.4 -77.7 141.45 -81.4 L142.65 -82.75 Q154.3 -94.95 185.95 -90.25 217.55 -85.6 244.4 -63.4 271.25 -41.25 275.0 -10.4 278.8 20.45 279.2 26.85 279.55 33.2 279.6 57.5 279.55 81.8 246.4 79.45 213.25 77.05 216.35 49.35 L217.05 42.3 217.2 40.45 Q218.9 19.15 216.35 7.15 211.85 -8.6 195.7 -19.9 195.35 -20.15 195.1 -20.35 L194.95 -20.45 194.8 -20.55 194.65 -20.65 188.1 -24.5 M187.15 -24.95 Q177.8 -29.2 173.6 -24.25 167.7 -17.25 164.55 0.75 146.65 4.2 133.9 7.0 M187.15 -24.95 L188.1 -24.5"/><path stroke="none" fill="url(#gradient4)" d="M85.95 356.8 Q96.7 387.55 92.6 431.25 88.45 474.9 141.2 509.7 76.35 494.65 32.65 460.5 -11.1 426.3 -23.4 384.8 -38.35 331.6 -21.05 281.75 -13.7 260.55 -3.7 245.95 -0.6 263.85 15.65 282.55 31.85 301.2 70.6 313.95 78.65 335.85 85.95 356.8"/><path stroke="none" fill="url(#gradient5)" d="M166.0 83.55 Q166.0 106.6 149.65 122.9 133.35 139.25 110.3 139.25 87.25 139.25 70.9 122.9 54.6 106.6 54.6 83.55 54.6 60.55 70.9 44.15 87.25 27.85 110.3 27.85 133.35 27.85 149.65 44.15 166.0 60.55 166.0 83.55"/><path fill="#f2e785" stroke="none" d="M138.2 -67.8 Q142.95 -76.6 148.35 -78.05 153.7 -79.5 158.35 -78.65 163.0 -77.8 170.6 -75.3 177.0 -73.2 199.9 -58.5 182.1 -63.7 172.95 -65.1 156.4 -67.6 149.25 -60.3 142.05 -53.0 138.7 -51.8 135.3 -50.6 134.35 -54.8 133.4 -59.0 138.2 -67.8"/></g><g id="c26"><g><use transform="matrix(1.0,0.0,0.0,1.0,0.0,0.0)" xlink:href="#c25"/></g></g><g id="c27"><path fill="#ffffff" stroke="none" d="M108.95 21.3 L110.4 22.75 112.85 24.75 115.3 26.75 118.5 30.25 122.4 34.25 127.0 38.65 127.45 39.1 127.6 38.4 127.2 40.75 126.65 45.35 Q126.25 48.9 125.5 50.55 L124.55 52.2 123.65 53.85 Q122.7 56.1 123.9 57.5 L123.5 57.65 122.8 57.7 Q121.7 57.9 121.05 58.8 123.3 57.35 121.05 62.45 125.5 77.95 130.1 81.5 134.65 85.05 136.6 82.15 134.7 88.2 131.35 93.55 125.85 104.2 108.2 117.75 90.55 131.3 60.9 127.1 40.3 124.15 25.15 115.95 18.45 112.3 12.8 107.6 L12.7 107.5 11.45 106.45 11.1 106.1 8.15 103.1 Q3.2 97.4 1.25 90.4 19.15 117.15 57.7 117.1 96.25 117.05 103.8 104.7 111.3 92.3 112.6 84.3 113.9 76.25 113.15 65.0 112.35 53.7 103.2 43.75 94.0 33.75 91.3 32.35 L93.45 30.35 Q100.95 23.5 108.95 21.3 M138.35 74.2 L138.4 73.8 138.5 73.25 138.35 74.2 M47.2 20.15 Q27.0 21.9 15.5 36.9 L15.8 36.45 15.5 36.9 15.4 36.95 15.8 36.45 21.65 28.7 25.15 24.8 28.0 21.95 Q41.15 9.5 60.25 6.5 L60.3 6.5 71.4 5.55 Q57.95 9.0 47.2 20.15 M19.45 44.4 L19.35 43.75 Q19.7 45.1 19.45 44.4 M29.25 60.1 Q25.7 62.4 25.8 60.15 L25.8 58.55 Q26.05 55.3 24.45 50.25 21.5 43.55 17.35 41.95 22.85 43.2 26.25 45.9 29.6 48.6 30.55 50.1 L32.1 52.4 Q32.7 53.3 33.0 54.6 33.3 55.9 33.05 56.85 32.8 57.8 29.25 60.1 M19.9 75.2 Q22.25 77.7 29.5 74.65 28.95 72.15 29.6 67.8 32.55 72.9 39.85 72.5 36.3 76.25 33.35 75.8 32.6 78.6 35.85 83.1 39.05 87.6 42.85 88.15 46.6 88.65 51.2 85.9 46.75 89.85 43.25 91.65 36.15 93.25 32.7 86.95 29.2 80.65 23.45 81.1 17.75 81.5 18.15 72.6 18.4 73.6 19.9 75.2 M23.4 78.95 Q28.75 79.75 34.3 85.8 31.45 81.75 30.6 77.75 27.5 79.35 23.4 78.95 M55.8 72.35 Q49.3 75.85 48.1 70.9 46.85 65.95 48.35 63.9 49.8 61.85 61.65 62.8 65.2 63.05 73.45 65.75 81.7 68.4 87.1 74.45 78.65 71.45 73.8 70.65 62.3 68.8 55.8 72.35"/><path fill="#ffffff" stroke="none" d="M136.6 82.15 Q134.65 85.05 130.1 81.5 125.5 77.95 121.05 62.45 123.3 57.35 121.05 58.8 121.7 57.9 122.8 57.7 L123.5 57.65 123.9 57.5 Q122.7 56.1 123.65 53.85 L124.55 52.2 125.5 50.55 Q126.25 48.9 126.65 45.35 L127.2 40.75 127.6 38.4 127.45 39.1 127.0 38.65 122.4 34.25 118.5 30.25 115.3 26.75 112.85 24.75 110.4 22.75 108.95 21.3 Q113.0 20.15 117.2 20.25 L121.1 23.65 Q126.4 28.65 130.15 34.45 136.3 44.0 138.15 55.6 L138.65 59.8 Q139.0 64.05 138.85 68.6 L138.5 73.25 138.4 73.8 138.35 74.2 Q137.75 78.3 136.6 82.15 M23.4 78.95 Q27.5 79.35 30.6 77.75 31.45 81.75 34.3 85.8 28.75 79.75 23.4 78.95"/><path fill="#ffffff" stroke="none" d="M108.95 21.3 Q100.95 23.5 93.45 30.35 L91.3 32.35 Q83.15 26.5 70.55 21.95 79.4 14.3 93.55 8.15 106.7 11.75 117.2 20.25 113.0 20.15 108.95 21.3"/><path fill="#ffffff" stroke="none" d="M91.3 32.35 L88.85 34.95 85.65 38.7 Q70.75 57.4 50.0 50.1 L48.75 49.65 Q56.2 34.4 70.55 21.95 83.15 26.5 91.3 32.35"/><path fill="#ffffff" stroke="none" d="M91.3 32.35 Q94.0 33.75 103.2 43.75 112.35 53.7 113.15 65.0 113.9 76.25 112.6 84.3 111.3 92.3 103.8 104.7 96.25 117.05 57.7 117.1 19.15 117.15 1.25 90.4 -1.8 79.5 2.4 65.5 7.2 49.35 15.5 36.9 27.0 21.9 47.2 20.15 L46.9 20.5 45.45 22.05 42.15 26.05 41.9 26.35 40.65 28.1 Q30.65 42.7 48.75 49.65 L50.0 50.1 Q70.75 57.4 85.65 38.7 L88.85 34.95 91.3 32.35 M8.15 103.1 L11.1 106.1 11.45 106.45 8.15 103.1 M21.65 28.7 L15.8 36.45 18.4 32.75 18.55 32.6 21.65 28.7 M19.9 75.2 Q18.4 73.6 18.15 72.6 17.75 81.5 23.45 81.1 29.2 80.65 32.7 86.95 36.15 93.25 43.25 91.65 46.75 89.85 51.2 85.9 46.6 88.65 42.85 88.15 39.05 87.6 35.85 83.1 32.6 78.6 33.35 75.8 36.3 76.25 39.85 72.5 32.55 72.9 29.6 67.8 28.95 72.15 29.5 74.65 22.25 77.7 19.9 75.2 M29.25 60.1 Q32.8 57.8 33.05 56.85 33.3 55.9 33.0 54.6 32.7 53.3 32.1 52.4 L30.55 50.1 Q29.6 48.6 26.25 45.9 22.85 43.2 17.35 41.95 21.5 43.55 24.45 50.25 26.05 55.3 25.8 58.55 L25.8 60.15 Q25.7 62.4 29.25 60.1 M19.45 44.4 Q19.7 45.1 19.35 43.75 L19.45 44.4 M55.8 72.35 Q62.3 68.8 73.8 70.65 78.65 71.45 87.1 74.45 81.7 68.4 73.45 65.75 65.2 63.05 61.65 62.8 49.8 61.85 48.35 63.9 46.85 65.95 48.1 70.9 49.3 75.85 55.8 72.35"/><path fill="#ffffff" stroke="none" d="M71.4 5.55 L73.95 5.55 Q84.4 5.65 93.55 8.15 79.4 14.3 70.55 21.95 52.8 16.75 47.2 20.15 57.95 9.0 71.4 5.55"/><path fill="#ffffff" stroke="none" d="M70.55 21.95 Q56.2 34.4 48.75 49.65 30.65 42.7 40.65 28.1 L41.9 26.35 42.15 26.05 45.45 22.05 46.9 20.5 47.2 20.15 Q52.8 16.75 70.55 21.95"/><path fill="#ffffff" stroke="#000000" stroke-width="0.5" stroke-opacity="0.0980392156863" d="M108.95 21.3 Q100.95 23.5 93.45 30.35 L91.3 32.35 M1.25 90.4 Q3.2 97.4 8.15 103.1 M11.45 106.45 L12.7 107.5 12.8 107.6 Q18.45 112.3 25.15 115.95 40.3 124.15 60.9 127.1 90.55 131.3 108.2 117.75 125.85 104.2 131.35 93.55 134.7 88.2 136.6 82.15 137.75 78.3 138.35 74.2 M138.5 73.25 L138.85 68.6 Q139.0 64.05 138.65 59.8 L138.15 55.6 Q136.3 44.0 130.15 34.45 126.4 28.65 121.1 23.65 L117.2 20.25 Q113.0 20.15 108.95 21.3 M48.75 49.65 L50.0 50.1 Q70.75 57.4 85.65 38.7 L88.85 34.95 91.3 32.35 M48.75 49.65 Q30.65 42.7 40.65 28.1 L41.9 26.35 42.15 26.05 45.45 22.05 46.9 20.5 47.2 20.15 Q57.95 9.0 71.4 5.55 L60.3 6.5 M15.5 36.9 Q7.2 49.35 2.4 65.5 -1.8 79.5 1.25 90.4 M93.55 8.15 Q106.7 11.75 117.2 20.25 M138.5 73.25 L138.35 74.2 M71.4 5.55 L73.95 5.55 Q84.4 5.65 93.55 8.15 M60.25 6.5 Q41.15 9.5 28.0 21.95 L25.15 24.8 21.65 28.7 M15.8 36.45 L15.5 36.9 M15.8 36.45 L18.4 32.75 18.55 32.6 21.65 28.7 M11.45 106.45 L8.15 103.1"/></g><g id="c28"><path fill="#ba0e0e" stroke="none" d="M30.55 40.05 Q26.55 31.5 21.75 27.15 16.95 22.75 12.65 20.35 11.05 19.45 9.4 18.7 13.75 10.95 21.0 11.1 L22.4 13.0 24.75 16.95 24.8 17.05 25.3 18.0 25.5 18.45 Q27.0 21.55 28.05 25.05 30.05 31.8 30.55 40.05"/><path fill="#edecaf" stroke="none" d="M12.1 0.05 L12.3 0.1 13.05 0.25 14.25 0.5 Q22.15 2.3 29.4 7.6 34.7 11.45 39.7 17.25 L39.85 17.4 40.9 18.65 41.05 18.85 41.1 19.05 41.2 19.35 41.2 19.4 Q40.9 21.4 39.65 25.1 38.4 28.8 33.65 24.45 28.85 20.05 27.0 17.65 L26.75 17.1 26.2 16.05 26.1 15.9 23.4 11.35 Q19.8 6.1 14.9 2.2 L14.9 2.15 12.4 0.3 12.1 0.1 12.1 0.05"/><path fill="#cdc070" stroke="none" d="M41.2 19.4 L41.9 23.3 41.95 23.7 Q44.1 39.7 32.35 48.75 L32.95 45.6 Q32.6 34.25 29.9 25.25 28.7 21.2 27.0 17.65 28.85 20.05 33.65 24.45 38.4 28.8 39.65 25.1 40.9 21.4 41.2 19.4"/><path fill="#830d0d" stroke="none" d="M9.4 18.7 Q5.95 17.1 2.15 16.15 2.7 6.85 10.75 3.85 L12.6 3.25 12.85 3.4 15.0 5.0 Q18.35 7.7 21.0 11.1 13.75 10.95 9.4 18.7"/><path fill="#fefed5" stroke="none" d="M32.35 48.75 L30.6 42.9 30.55 40.05 Q30.05 31.8 28.05 25.05 27.0 21.55 25.5 18.45 L25.3 18.0 24.8 17.05 24.75 16.95 22.4 13.0 21.0 11.1 Q18.35 7.7 15.0 5.0 L12.85 3.4 12.6 3.25 10.75 3.85 Q2.7 6.85 2.15 16.15 L0.0 15.65 Q0.4 4.4 10.0 0.8 11.0 0.4 12.1 0.1 L12.4 0.3 14.9 2.15 14.9 2.2 Q19.8 6.1 23.4 11.35 L26.1 15.9 26.2 16.05 26.75 17.1 27.0 17.65 Q28.7 21.2 29.9 25.25 32.6 34.25 32.95 45.6 L32.35 48.75"/><path fill="none" stroke="#000000" stroke-width="0.5" stroke-opacity="0.0980392156863" d="M41.2 19.4 L41.9 23.3 41.95 23.7 Q44.1 39.7 32.35 48.75 L30.6 42.9 30.55 40.05 Q26.55 31.5 21.75 27.15 16.95 22.75 12.65 20.35 11.05 19.45 9.4 18.7 5.95 17.1 2.15 16.15 L0.0 15.65 Q0.4 4.4 10.0 0.8 11.0 0.4 12.1 0.1 L11.95 0.0 12.1 0.05 12.3 0.1 13.05 0.25 14.25 0.5 Q22.15 2.3 29.4 7.6 34.7 11.45 39.7 17.25 L39.85 17.4 40.9 18.65 41.05 18.85 41.1 19.05 41.2 19.35 41.2 19.4 M27.0 17.65 Q28.7 21.2 29.9 25.25 32.6 34.25 32.95 45.6 L32.35 48.75 M21.0 11.1 L22.4 13.0 24.75 16.95 24.8 17.05 25.3 18.0 25.5 18.45 Q27.0 21.55 28.05 25.05 30.05 31.8 30.55 40.05 M27.0 17.65 L26.75 17.1 26.2 16.05 26.1 15.9 23.4 11.35 Q19.8 6.1 14.9 2.2 L14.9 2.15 12.4 0.3 12.1 0.1 12.1 0.05 M2.15 16.15 Q2.7 6.85 10.75 3.85 L12.6 3.25 12.85 3.4 15.0 5.0 Q18.35 7.7 21.0 11.1"/></g><g id="c29"><g><use transform="matrix(1.0,0.0,0.0,1.0,0.0,0.0)" xlink:href="#c28"/></g></g><g id="c30"><path fill="#ba0e0e" stroke="none" d="M13.6 7.75 L14.15 8.2 16.0 9.8 Q19.9 13.45 23.15 18.45 L24.35 20.5 24.4 20.55 Q19.0 21.65 13.95 24.4 L12.7 25.1 Q10.3 26.45 8.05 28.2 L7.75 28.4 Q8.15 22.0 9.7 16.75 11.3 11.5 12.4 9.8 L13.6 7.75"/><path fill="#830d0d" stroke="none" d="M13.6 7.75 L12.4 9.8 Q11.3 11.5 9.7 16.75 8.15 22.0 7.75 28.4 L6.15 29.7 6.0 29.85 5.7 30.1 5.0 30.7 3.25 32.3 Q0.3 15.65 7.1 3.7 L7.75 4.0 8.25 4.3 8.35 4.3 10.55 5.55 13.6 7.75"/><path fill="#edecaf" stroke="none" d="M16.35 7.35 L14.1 5.4 Q10.8 2.65 7.15 0.75 L7.05 0.7 6.4 0.35 5.65 0.0 Q27.85 -0.2 39.25 10.6 39.85 11.2 37.9 13.5 35.9 15.8 30.4 14.3 24.9 12.75 20.7 10.05 16.5 7.3 16.35 7.35"/><path fill="#cdc070" stroke="none" d="M28.35 24.4 Q27.55 22.15 26.4 20.2 L24.9 17.75 Q21.0 11.7 16.35 7.35 16.5 7.3 20.7 10.05 24.9 12.75 30.4 14.3 35.9 15.8 37.9 13.5 39.85 11.2 39.25 10.6 L41.3 12.75 Q41.2 14.7 39.3 16.85 36.2 20.3 28.35 24.4"/><path fill="#fefed5" stroke="none" d="M24.4 20.55 L24.35 20.5 23.15 18.45 Q19.9 13.45 16.0 9.8 L14.15 8.2 13.6 7.75 10.55 5.55 8.35 4.3 8.25 4.3 7.75 4.0 7.1 3.7 Q0.3 15.65 3.25 32.3 L1.0 34.5 Q-2.5 14.4 5.65 0.0 L6.4 0.35 7.05 0.7 7.15 0.75 Q10.8 2.65 14.1 5.4 L16.35 7.35 Q21.0 11.7 24.9 17.75 L26.4 20.2 Q27.55 22.15 28.35 24.4 L26.0 24.0 Q25.35 22.2 24.4 20.55"/><path fill="none" stroke="#000000" stroke-width="0.5" stroke-opacity="0.0980392156863" d="M24.4 20.55 L24.35 20.5 23.15 18.45 Q19.9 13.45 16.0 9.8 L14.15 8.2 13.6 7.75 M7.75 28.4 L8.05 28.2 Q10.3 26.45 12.7 25.1 L13.95 24.4 Q19.0 21.65 24.4 20.55 25.35 22.2 26.0 24.0 L28.35 24.4 Q27.55 22.15 26.4 20.2 L24.9 17.75 Q21.0 11.7 16.35 7.35 L14.1 5.4 Q10.8 2.65 7.15 0.75 L7.05 0.7 6.4 0.35 5.65 0.0 Q-2.5 14.4 1.0 34.5 L3.25 32.3 Q0.3 15.65 7.1 3.7 L7.75 4.0 8.25 4.3 8.35 4.3 10.55 5.55 13.6 7.75 M39.25 10.6 Q27.85 -0.2 5.65 0.0 M39.25 10.6 L41.3 12.75 Q41.2 14.7 39.3 16.85 36.2 20.3 28.35 24.4 M7.75 28.4 L6.15 29.7 6.0 29.85 5.7 30.1 5.0 30.7 3.25 32.3"/></g><g id="c31"><g><use transform="matrix(1.0,0.0,0.0,1.0,0.0,0.0)" xlink:href="#c30"/></g></g><g id="c32"><path fill="#0f100a" stroke="none" d="M12.05 13.85 L8.7 13.85 Q8.45 5.35 2.55 0.0 9.95 3.8 12.05 13.85 M32.0 23.0 Q54.25 19.65 69.2 30.7 50.1 22.1 34.55 26.75 L32.0 23.0"/><path fill="#ba0e0e" stroke="none" d="M39.9 35.4 Q48.45 37.05 57.3 33.6 L59.9 33.6 56.95 36.85 Q48.45 39.5 39.9 35.4 M66.75 43.9 Q69.85 47.35 72.85 47.7 L72.85 49.6 70.6 49.0 Q68.9 48.0 66.75 43.9 M40.3 40.6 Q48.1 46.1 54.95 44.15 L54.95 47.05 51.85 47.65 Q44.7 46.1 40.3 40.6 M71.0 40.2 Q73.6 42.3 80.25 41.45 L81.1 42.95 79.25 43.9 Q73.85 43.55 71.0 40.2 M72.6 36.45 Q77.3 36.8 82.85 33.85 L84.2 34.55 83.25 36.45 Q78.35 37.95 72.6 36.45 M0.95 22.9 Q-4.35 24.45 -9.3 22.85 L-9.75 21.05 -7.9 20.2 Q-4.8 23.05 0.95 22.9 M3.55 19.75 Q-3.55 19.85 -6.45 14.75 L-6.45 11.45 -3.8 11.55 Q-1.6 18.05 3.55 19.75"/><path fill="none" stroke="#000000" stroke-width="0.5" stroke-opacity="0.298039215686" d="M12.05 13.85 Q9.95 3.8 2.55 0.0 8.45 5.35 8.7 13.85 L12.05 13.85 M0.45 26.45 Q-1.15 30.35 3.25 33.9 6.8 36.15 12.5 33.9 14.75 42.35 20.5 44.75 27.7 47.7 32.5 42.15 M32.0 23.0 Q54.25 19.65 69.2 30.7 50.1 22.1 34.55 26.75 L32.0 23.0 M11.7 23.4 Q11.4 26.9 12.75 28.95 M15.1 29.95 Q18.2 30.55 21.8 28.4"/></g><g id="c33"><g><use transform="matrix(1.0,0.0,0.0,1.0,0.0,0.0)" xlink:href="#c32"/></g></g><g id="c34"><g><use transform="matrix(1.0,0.0,0.0,1.0,0.0,0.0)" xlink:href="#c27"/></g><mask id="mask27"><use transform="matrix(1.0,0.0,0.0,1.0,0.0,0.0)" xlink:href="#c27"/></mask><g mask="url(#mask27)"><use transform="matrix(0.787902832031,-0.0481109619141,0.0745697021484,1.25993347168,73.4,155.6)" filter="url(#filter24)" xlink:href="#c12"/></g><g mask="url(#mask27)"><use transform="matrix(0.103103637695,-0.743133544922,2.24951171875,0.373168945312,-14.8,60.3)" filter="url(#filter25)" xlink:href="#c19"/></g><g mask="url(#mask27)"><use transform="matrix(0.156616210938,-1.09356689453,1.74365234375,0.581573486328,-101.85,228.15)" filter="url(#filter26)" xlink:href="#c19"/></g><g mask="url(#mask27)"><use transform="matrix(0.0353088378906,-0.749435424805,2.27409362793,0.167678833008,-140.25,174.7)" filter="url(#filter27)" xlink:href="#c19"/></g><g><use transform="matrix(0.911758422852,0.0,0.0,0.911758422852,91.5,18.15)" xlink:href="#c29"/></g><g><use transform="matrix(0.83430480957,0.0,0.0,0.83430480957,20.6,0.0)" xlink:href="#c31"/></g><g><use transform="matrix(1.0,0.0,0.0,1.0,18.05,44.0)" xlink:href="#c33"/></g></g><filter id="filter24"><feColorMatrix in="SourceGraphic" type="matrix" values="1.0 0.0 0.0 0.0 0.0 0.0 1.0 0.0 0.0 0.0 0.0 0.0 1.0 0.0 0.0 0.0 0.0 0.0 0.078125 0.0" result="cxform"/><feComposite operator="in" in2="SourceGraphic" result="color-xform"/></filter><filter id="filter25"><feColorMatrix in="SourceGraphic" type="matrix" values="0.0390625 0.0 0.0 0.0 0.0 0.0 0.0 0.0 0.0 0.0 0.0 0.0 0.0 0.0 0.0 0.0 0.0 0.0 0.44140625 0.0" result="cxform"/><feComposite operator="in" in2="SourceGraphic" result="color-xform"/></filter><filter id="filter26"><feColorMatrix in="SourceGraphic" type="matrix" values="0.0390625 0.0 0.0 0.0 0.0 0.0 0.0 0.0 0.0 0.0 0.0 0.0 0.0 0.0 0.0 0.0 0.0 0.0 0.44140625 0.0" result="cxform"/><feComposite operator="in" in2="SourceGraphic" result="color-xform"/></filter><filter id="filter27"><feColorMatrix in="SourceGraphic" type="matrix" values="0.0390625 0.0 0.0 0.0 0.0 0.0 0.0 0.0 0.0 0.0 0.0 0.0 0.0 0.0 0.0 0.0 0.0 0.0 0.44140625 0.0" result="cxform"/><feComposite operator="in" in2="SourceGraphic" result="color-xform"/></filter><g id="c35"><path fill="#ffffff" stroke="none" d="M51.15 3.3 L49.5 3.55 Q47.25 4.1 43.35 6.95 36.95 11.05 34.0 13.8 L27.55 18.35 Q24.8 20.2 22.55 23.15 18.55 28.5 18.65 46.8 L18.65 46.85 Q14.2 49.2 11.65 48.5 L10.6 48.1 Q9.1 47.25 9.1 45.45 L9.0 43.65 Q8.7 34.3 13.6 27.0 6.95 31.45 6.45 32.6 5.15 35.7 4.95 40.7 4.7 45.65 5.25 46.15 L5.95 46.1 Q3.45 46.35 2.55 45.65 L1.75 44.75 Q1.1 43.75 1.0 42.4 0.8 39.9 0.9 37.65 1.2 29.55 5.15 24.15 2.2 26.85 0.5 29.6 -2.1 39.25 -1.35 41.45 -4.05 39.5 -3.7 34.05 -3.35 27.15 2.65 19.75 L3.65 18.5 Q4.9 17.25 6.9 16.15 L16.6 10.4 Q26.55 4.4 30.15 2.9 38.0 -0.15 40.3 0.0 42.55 0.15 47.25 1.6 49.7 2.35 51.15 3.3 M6.55 22.4 L5.15 24.15 6.55 22.4 M13.6 27.0 L14.15 26.15 13.6 27.0"/><path fill="#ffffff" stroke="none" d="M18.65 46.85 L18.65 46.8 Q18.55 28.5 22.55 23.15 24.8 20.2 27.55 18.35 L34.0 13.8 Q36.95 11.05 43.35 6.95 47.25 4.1 49.5 3.55 L51.15 3.3 Q52.45 4.1 52.95 5.1 53.6 6.35 53.75 9.15 L53.7 13.15 Q53.4 17.05 53.4 24.6 L52.8 29.15 52.5 37.3 Q52.5 52.65 53.4 60.5 54.0 66.55 53.7 69.55 52.5 75.0 47.65 79.25 40.4 85.55 33.2 82.25 26.25 78.6 25.05 75.6 23.8 72.3 24.45 66.85 24.45 65.65 26.85 58.7 L27.75 56.2 27.6 56.65 Q30.75 57.3 33.3 55.7 L36.0 53.6 37.95 51.95 39.25 50.4 40.45 48.85 41.65 47.1 42.6 44.9 Q44.95 38.15 43.85 32.4 43.45 30.65 42.65 30.25 L42.6 30.2 Q41.4 29.55 39.45 30.8 L35.05 33.95 32.25 36.05 31.95 36.35 31.5 36.7 Q30.45 37.5 30.4 37.7 L30.7 37.45 25.35 42.1 20.05 46.05 18.65 46.85 M-1.35 41.45 Q-2.1 39.25 0.5 29.6 2.2 26.85 5.15 24.15 1.2 29.55 0.9 37.65 0.8 39.9 1.0 42.4 -0.4 42.15 -1.35 41.45 M9.1 45.45 L8.5 45.6 5.95 46.1 5.25 46.15 Q4.7 45.65 4.95 40.7 5.15 35.7 6.45 32.6 6.95 31.45 13.6 27.0 8.7 34.3 9.0 43.65 L9.1 45.45"/><path fill="#ffffff" stroke="none" d="M27.75 56.2 L29.45 50.35 29.55 50.1 29.65 49.75 Q31.05 44.25 31.9 38.6 L32.25 36.05 35.05 33.95 39.45 30.8 Q41.4 29.55 42.6 30.2 L42.65 30.25 Q43.45 30.65 43.85 32.4 44.95 38.15 42.6 44.9 L41.65 47.1 40.45 48.85 39.25 50.4 37.95 51.95 36.0 53.6 33.3 55.7 Q30.75 57.3 27.6 56.65 L27.75 56.2 M31.95 36.35 L30.7 37.45 30.4 37.7 Q30.45 37.5 31.5 36.7 L31.95 36.35"/><path fill="#ffffff" stroke="#000000" stroke-width="0.5" stroke-opacity="0.0980392156863" d="M51.15 3.3 Q49.7 2.35 47.25 1.6 42.55 0.15 40.3 0.0 38.0 -0.15 30.15 2.9 26.55 4.4 16.6 10.4 L6.9 16.15 Q4.9 17.25 3.65 18.5 L2.65 19.75 Q-3.35 27.15 -3.7 34.05 -4.05 39.5 -1.35 41.45 M5.15 24.15 L6.55 22.4 M51.15 3.3 Q52.45 4.1 52.95 5.1 53.6 6.35 53.75 9.15 L53.7 13.15 Q53.4 17.05 53.4 24.6 L52.8 29.15 52.5 37.3 Q52.5 52.65 53.4 60.5 54.0 66.55 53.7 69.55 52.5 75.0 47.65 79.25 40.4 85.55 33.2 82.25 26.25 78.6 25.05 75.6 23.8 72.3 24.45 66.85 24.45 65.65 26.85 58.7 L27.75 56.2 29.45 50.35 29.55 50.1 29.65 49.75 Q31.05 44.25 31.9 38.6 L32.25 36.05 31.95 36.35 30.7 37.45 25.35 42.1 20.05 46.05 18.65 46.85 Q14.2 49.2 11.65 48.5 L10.6 48.1 Q9.1 47.25 9.1 45.45 L8.5 45.6 5.95 46.1 Q3.45 46.35 2.55 45.65 L1.75 44.75 Q1.1 43.75 1.0 42.4 -0.4 42.15 -1.35 41.45 M14.15 26.15 L13.6 27.0 Q8.7 34.3 9.0 43.65 L9.1 45.45 M5.15 24.15 Q1.2 29.55 0.9 37.65 0.8 39.9 1.0 42.4 M32.25 36.05 L35.05 33.95 39.45 30.8 Q41.4 29.55 42.6 30.2 M30.7 37.45 L30.4 37.7"/></g><g id="c36"><path fill="#ab3c18" stroke="none" d="M9.9 44.9 Q9.45 43.85 10.4 39.35 L13.95 47.55 Q11.25 48.05 9.9 44.9 M5.2 45.1 Q2.25 45.8 1.65 43.65 1.85 40.3 3.2 36.8 L5.2 45.1 M-0.35 41.15 Q-2.6 39.55 -3.25 37.55 -3.15 34.7 -2.1 33.25 -0.7 38.2 -0.35 41.15"/></g><g id="c37"><g><use transform="matrix(1.0,0.0,0.0,1.0,0.0,0.0)" xlink:href="#c35"/></g><mask id="mask35"><use transform="matrix(1.0,0.0,0.0,1.0,0.0,0.0)" xlink:href="#c35"/></mask><g mask="url(#mask35)"><use transform="matrix(0.430770874023,-0.281921386719,0.449478149414,0.689605712891,46.2,112.1)" filter="url(#filter33)" xlink:href="#c12"/></g><g mask="url(#mask35)"><use transform="matrix(0.246612548828,0.278472900391,-0.865997314453,0.726852416992,50.5,-12.15)" filter="url(#filter34)" xlink:href="#c19"/></g><g><use transform="matrix(1.0,0.0,0.0,1.0,0.0,0.0)" xlink:href="#c36"/></g></g><filter id="filter33"><feColorMatrix in="SourceGraphic" type="matrix" values="1.0 0.0 0.0 0.0 0.0 0.0 1.0 0.0 0.0 0.0 0.0 0.0 1.0 0.0 0.0 0.0 0.0 0.0 0.16015625 0.0" result="cxform"/><feComposite operator="in" in2="SourceGraphic" result="color-xform"/></filter><filter id="filter34"><feColorMatrix in="SourceGraphic" type="matrix" values="0.0390625 0.0 0.0 0.0 0.0 0.0 0.0 0.0 0.0 0.0 0.0 0.0 0.0 0.0 0.0 0.0 0.0 0.0 0.44140625 0.0" result="cxform"/><feComposite operator="in" in2="SourceGraphic" result="color-xform"/></filter><g id="c38"><path fill="#000000" fill-opacity="0.301960784314" d="M15.7 11.05 Q15.25 13.95 13.5 15.55 L13.2 15.85 8.45 17.6 7.6 17.95 5.45 17.8 Q3.3 17.15 2.1 14.55 0.95 12.05 1.3 9.15 1.7 6.25 3.5 4.65 L5.2 3.7 5.5 3.65 9.85 2.25 11.55 2.4 Q13.7 3.05 14.85 5.6 15.95 7.9 15.75 10.5 L15.7 11.05"/><path fill="#5a492d" stroke="none" d="M10.45 9.7 L14.55 8.3 14.5 8.85 Q14.05 11.75 12.3 13.35 L12.0 13.65 7.25 15.4 8.15 14.7 8.65 14.3 Q10.05 12.75 10.4 10.2 L10.45 9.7"/><path fill="#382b1d" stroke="none" d="M4.3 1.45 L6.0 1.5 6.25 1.55 Q7.85 2.1 8.95 3.7 L5.65 7.0 5.95 7.05 10.5 8.25 10.45 9.7 10.4 10.2 Q10.05 12.75 8.65 14.3 L8.15 14.7 7.25 15.4 Q6.75 15.6 6.4 15.75 L4.25 15.6 Q2.1 14.95 0.9 12.35 -0.25 9.85 0.1 6.95 0.5 4.05 2.3 2.45 3.15 1.75 4.0 1.5 L4.3 1.45"/><path fill="#8a6c43" stroke="none" d="M4.3 1.45 L8.65 0.05 10.35 0.2 Q12.5 0.85 13.65 3.4 14.75 5.7 14.55 8.3 L10.45 9.7 10.5 8.25 12.1 4.75 8.95 3.7 Q7.85 2.1 6.25 1.55 L6.0 1.5 4.3 1.45"/><path fill="#261c13" stroke="none" d="M12.1 4.75 L10.5 8.25 5.95 7.05 12.1 4.75"/><path fill="#9c7a4c" stroke="none" d="M8.95 3.7 L12.1 4.75 5.95 7.05 5.65 7.0 8.95 3.7"/><path fill="none" stroke="#343010" stroke-width="1.0" stroke-opacity="0.301960784314" d="M14.55 8.3 Q14.75 5.7 13.65 3.4 12.5 0.85 10.35 0.2 L8.65 0.05 4.3 1.45 M14.55 8.3 L14.5 8.85 Q14.05 11.75 12.3 13.35 L12.0 13.65 7.25 15.4 Q6.75 15.6 6.4 15.75 L4.25 15.6 Q2.1 14.95 0.9 12.35 -0.25 9.85 0.1 6.95 0.5 4.05 2.3 2.45 3.15 1.75 4.0 1.5 L4.3 1.45"/></g><g id="c39"><g><use transform="matrix(1.0,0.0,0.0,1.0,0.0,0.0)" xlink:href="#c38"/></g></g><g id="c40"><path fill="#edecaf" stroke="none" d="M65.8 40.25 L58.75 38.9 51.7 37.55 Q43.55 35.7 38.6 32.0 35.75 29.9 36.45 27.85 L36.9 26.55 36.4 25.25 Q35.55 23.95 35.15 22.1 35.05 21.55 35.25 21.4 35.6 21.15 36.05 21.6 37.3 22.55 36.9 24.05 36.45 25.45 46.5 29.95 56.5 34.4 66.45 34.25 76.4 34.05 79.05 34.35 80.7 37.2 82.5 42.6 80.3 41.8 79.8 42.6 78.95 44.0 77.85 44.0 L75.95 44.0 73.9 44.3 71.8 44.7 Q69.15 45.1 67.7 44.25 66.7 43.65 66.15 42.55 65.6 41.4 65.8 40.25"/></g><g id="c41"><path fill="#ffffff" stroke="none" d="M36.1 18.1 Q38.35 36.05 81.05 40.6 L87.0 48.9 78.45 73.35 8.4 65.8 8.4 18.1 36.1 18.1"/><path fill="#ffffff" stroke="#ff0000" stroke-width="0.5" d="M36.1 18.1 Q38.35 36.05 81.05 40.6 L87.0 48.9 78.45 73.35 8.4 65.8 8.4 18.1 36.1 18.1"/></g><g id="c42"><path fill="#1b1011" stroke="none" d="M32.55 28.25 L32.65 26.35 Q32.8 24.75 34.25 23.0 35.9 21.1 37.95 20.4 39.15 20.0 40.85 19.95 L43.85 20.0 47.45 20.0 51.05 20.25 55.85 21.6 Q59.3 22.75 60.8 23.45 63.9 24.85 67.25 27.3 L73.05 32.1 Q75.8 34.45 76.55 36.25 77.15 37.85 76.85 39.7 76.6 41.45 75.6 43.0 74.05 45.4 70.45 47.8 65.0 51.35 59.7 52.6 53.4 54.05 48.05 52.35 45.7 51.55 43.0 50.05 39.2 47.9 37.25 45.75 34.5 42.8 32.85 37.7 31.45 33.0 32.2 29.85 L32.55 28.25"/><path fill="#7c462a" stroke="none" d="M45.35 48.5 L79.25 43.25 79.35 46.15 Q79.35 56.1 73.05 60.0 70.7 61.45 68.0 61.7 L67.8 61.75 Q31.6 67.2 23.25 38.3 L42.7 48.9 45.35 48.5"/><path fill="#5e2a12" stroke="none" d="M45.35 48.5 L42.7 48.9 23.25 38.3 27.35 25.65 36.7 20.6 Q36.4 22.4 36.4 24.45 36.4 34.4 42.7 44.65 L45.35 48.5"/><path fill="none" stroke="#000000" stroke-width="0.5" stroke-opacity="0.0980392156863" d="M23.25 38.3 Q31.6 67.2 67.8 61.75 L68.0 61.7 Q70.7 61.45 73.05 60.0 79.35 56.1 79.35 46.15 L79.25 43.25 45.35 48.5 42.7 48.9 23.25 38.3 27.35 25.65 36.7 20.6 38.75 19.45 M36.7 20.6 Q36.4 22.4 36.4 24.45 36.4 34.4 42.7 44.65 L45.35 48.5"/><path fill="#f3d406" stroke="none" d="M45.65 55.8 Q36.95 54.8 30.25 51.4 20.7 46.65 20.7 39.9 L20.7 39.8 20.75 32.55 Q20.85 34.3 21.65 35.9 23.35 39.5 28.4 42.4 L30.25 43.4 Q39.1 47.85 51.35 48.2 L51.25 51.3 Q51.15 53.9 49.75 54.8 48.35 55.65 47.05 55.65 L45.65 55.8"/><path fill="#aa6400" stroke="none" d="M81.05 40.6 L81.05 48.6 Q79.1 50.15 76.35 51.5 66.8 56.25 53.3 56.2 L51.65 56.2 45.65 55.8 47.05 55.65 Q48.35 55.65 49.75 54.8 51.15 53.9 51.25 51.3 L51.35 48.2 53.3 48.2 55.2 48.2 Q67.5 47.9 76.35 43.5 79.1 42.15 81.05 40.6 M41.45 20.8 L41.45 28.8 39.95 29.2 Q37.5 29.95 35.35 31.0 30.95 33.2 29.2 36.0 L28.65 35.05 Q27.95 33.6 27.95 31.95 27.95 30.6 28.45 29.4 29.85 25.75 35.35 23.0 37.5 21.95 39.95 21.2 L41.45 20.8"/><path fill="#fffd65" stroke="none" d="M20.75 32.55 L20.7 31.9 Q20.7 25.15 30.25 20.4 33.0 19.05 36.1 18.1 L41.45 20.8 39.95 21.2 Q37.5 21.95 35.35 23.0 29.85 25.75 28.45 29.4 27.95 30.6 27.95 31.95 27.95 33.6 28.65 35.05 L29.2 36.0 Q30.95 38.75 35.35 40.9 42.8 44.65 53.35 44.65 63.85 44.7 71.3 41.0 73.45 39.95 74.95 38.75 L75.85 38.0 81.05 40.6 Q79.1 42.15 76.35 43.5 67.5 47.9 55.2 48.2 L53.3 48.2 51.35 48.2 Q39.1 47.85 30.25 43.4 L28.4 42.4 Q23.35 39.5 21.65 35.9 20.85 34.3 20.75 32.55"/><path fill="none" stroke="#000000" stroke-width="0.5" stroke-opacity="0.0980392156863" d="M81.05 40.6 L81.05 48.6 Q79.1 50.15 76.35 51.5 66.8 56.25 53.3 56.2 L51.65 56.2 45.65 55.8 Q36.95 54.8 30.25 51.4 20.7 46.65 20.7 39.9 L20.7 39.8 20.75 32.55 20.7 31.9 Q20.7 25.15 30.25 20.4 33.0 19.05 36.1 18.1 L41.45 20.8 41.45 28.8 39.95 29.2 Q37.5 29.95 35.35 31.0 30.95 33.2 29.2 36.0 30.95 38.75 35.35 40.9 42.8 44.65 53.35 44.65 63.85 44.7 71.3 41.0 73.45 39.95 74.95 38.75 L75.85 38.0 81.05 40.6 Q79.1 42.15 76.35 43.5 67.5 47.9 55.2 48.2 L53.3 48.2 51.35 48.2 Q39.1 47.85 30.25 43.4 L28.4 42.4 Q23.35 39.5 21.65 35.9 20.85 34.3 20.75 32.55 M29.2 36.0 L28.65 35.05 Q27.95 33.6 27.95 31.95 27.95 30.6 28.45 29.4 29.85 25.75 35.35 23.0 37.5 21.95 39.95 21.2 L41.45 20.8"/><path fill="#ffffff" stroke="none" d="M80.7 40.9 L81.05 41.05 81.05 41.45 76.65 44.1 Q67.8 48.5 55.5 48.8 L53.6 48.8 51.65 48.8 Q39.4 48.45 30.55 44.0 L28.7 43.0 Q23.7 40.15 22.0 36.6 23.85 39.8 28.4 42.4 L30.25 43.4 Q39.1 47.85 51.35 48.2 L53.3 48.2 55.2 48.2 Q67.5 47.9 76.35 43.5 L80.7 40.9 76.15 38.6 75.25 39.35 71.6 41.6 Q64.15 45.3 53.65 45.25 43.1 45.25 35.65 41.5 31.25 39.35 29.5 36.6 L29.55 36.55 Q31.4 38.95 35.35 40.9 42.8 44.65 53.35 44.65 63.85 44.7 71.3 41.0 73.45 39.95 74.95 38.75 L75.85 38.0 81.05 40.6 80.7 40.9 M20.7 39.9 L20.7 39.8 20.75 32.55 20.7 31.9 Q20.7 25.15 30.25 20.4 33.0 19.05 36.1 18.1 L41.45 20.8 40.85 20.95 36.4 18.7 Q33.3 19.65 30.55 21.0 21.0 25.75 21.0 32.5 L21.05 33.15 21.0 40.4 21.0 40.5 Q21.0 42.5 21.85 44.35 20.7 42.25 20.7 39.9"/></g><g id="c43"><g><use transform="matrix(1.0,0.0,0.0,1.0,0.0,0.0)" xlink:href="#c40"/></g><mask id="mask41"><use transform="matrix(1.0,0.0,0.0,1.0,0.0,0.0)" xlink:href="#c41"/></mask><g mask="url(#mask41)"><use transform="matrix(1.0,0.0,0.0,1.0,0.0,0.0)" xlink:href="#c42"/></g></g><g id="c44"><g><use transform="matrix(1.0,0.0,0.0,1.0,0.0,74.85)" xlink:href="#c20"/></g><g><use transform="matrix(1.0,0.0,0.0,1.0,36.2,80.0)" xlink:href="#c22"/></g><g><use transform="matrix(1.0,0.0,0.0,1.0,6.25,101.7)" xlink:href="#c24"/></g><g><use transform="matrix(0.0704956054688,0.0189208984375,-0.0189208984375,0.0704956054688,47.5,102.4)" xlink:href="#c26"/></g><g><use transform="matrix(1.0,0.0,0.0,1.0,21.0,0.0)" xlink:href="#c34"/></g><g><use transform="matrix(1.0,0.0,0.0,1.0,112.2,81.25)" xlink:href="#c37"/></g><g><use transform="matrix(-0.962600708008,0.0,0.0,0.962600708008,167.35,143.8)" xlink:href="#c39"/></g><g><use transform="matrix(1.0,0.0,0.0,1.0,-8.75,128.4)" xlink:href="#c43"/></g></g><g id="c45"><g><use transform="matrix(1.0,0.0,0.0,1.0,0.0,0.0)" xlink:href="#c2"/></g><g><use transform="matrix(0.238861083984,-0.0867004394531,0.10026550293,0.233917236328,34.25,31.15)" xlink:href="#c4"/></g><g><use transform="matrix(0.238861083984,-0.0867004394531,0.10026550293,0.233917236328,4.25,10.3)" xlink:href="#c4"/></g><g><use transform="matrix(0.141098022461,-0.0378112792969,0.111373901367,0.225646972656,20.25,20.65)" filter="url(#filter51)" xlink:href="#c6"/></g><g><use transform="matrix(-0.155029296875,0.0513153076172,0.0841827392578,0.147033691406,22.6,2.3)" filter="url(#filter52)" xlink:href="#c8"/></g><g><use transform="matrix(0.0783843994141,-0.0343017578125,0.0343017578125,0.0783843994141,10.6,15.25)" xlink:href="#c44"/></g><g><use transform="matrix(0.162948608398,-0.0436706542969,0.128631591797,0.260604858398,20.35,20.95)" filter="url(#filter54)" xlink:href="#c6"/></g></g><filter id="filter51"><feColorMatrix in="SourceGraphic" type="matrix" values="0.0 0.0 0.0 0.0 0.796875 0.0 0.0 0.0 0.0 0.59765625 0.0 0.0 0.0 0.0 0.19921875 0.0 0.0 0.0 1.0 0.0" result="cxform"/><feComposite operator="in" in2="SourceGraphic" result="color-xform"/></filter><filter id="filter52"><feColorMatrix in="SourceGraphic" type="matrix" values="0.0 0.0 0.0 0.0 0.99609375 0.0 0.0 0.0 0.0 0.99609375 0.0 0.0 0.0 0.0 0.99609375 0.0 0.0 0.0 1.0 0.0" result="cxform"/><feComposite operator="in" in2="SourceGraphic" result="color-xform"/></filter><filter id="filter54"><feColorMatrix in="SourceGraphic" type="matrix" values="1.0 0.0 0.0 0.0 0.0 0.0 1.0 0.0 0.0 0.0 0.0 0.0 1.0 0.0 0.0 0.0 0.0 0.0 0.078125 0.0" result="cxform"/><feComposite operator="in" in2="SourceGraphic" result="color-xform"/></filter></defs><g><g><use transform="matrix(1.0,0.0,0.0,1.0,0.0,0.0)" xlink:href="#c1"/></g><g><use transform="matrix(1.15496826172,0.0,0.0,1.15496826172,5.85,3.95)" xlink:href="#c45"/></g></g></svg>