<?xml version='1.0' encoding='UTF-8'?>
<svg xmlns:xlink="http://www.w3.org/1999/xlink" xmlns="http://www.w3.org/2000/svg" version="1.1" width="60px" height="60px" viewBox="0.0 0.0 60.0 60.0"><defs><g id="c1"><path fill="#000000" fill-opacity="0.00392156862745" d="M0.0 0.0 L60.0 0.0 60.0 60.0 0.0 60.0 0.0 0.0"/></g><g id="c2"><path fill="none" stroke="#000000" stroke-width="1.0" stroke-opacity="0.301960784314" d="M28.45 3.1 L41.35 31.7 Q42.95 35.15 40.2 36.7 39.5 37.3 38.3 37.65 L36.35 38.3 36.15 38.15 34.0 36.9 33.8 36.8 Q30.65 35.45 27.7 36.35 24.75 37.3 23.7 40.05 L23.6 40.25 Q23.25 41.25 23.25 42.3 L23.25 42.35 23.25 42.55 19.8 43.65 Q17.15 44.45 15.5 43.3 14.35 42.55 13.65 40.9 L0.7 12.25 Q-0.45 9.75 0.75 8.25 1.2 7.6 2.15 7.15 2.8 6.7 3.8 6.35 L6.45 5.5 8.5 6.75 8.7 6.85 Q11.9 8.2 14.85 7.25 17.8 6.35 18.85 3.6 L18.9 3.4 19.3 1.35 22.3 0.4 Q26.55 -1.0 28.45 3.1"/><path fill="#9d147b" stroke="none" d="M35.55 22.3 L28.25 6.1 27.75 4.95 Q26.05 1.25 21.6 2.85 20.8 5.65 18.85 7.6 17.0 9.45 14.2 9.8 11.45 9.95 9.0 8.8 L6.4 7.45 Q1.65 9.1 3.35 12.8 L8.25 23.65 15.0 38.6 15.2 39.0 Q16.8 42.25 20.45 41.1 L21.65 40.55 Q22.7 36.9 25.05 35.5 27.4 34.15 30.2 34.2 33.05 34.2 36.25 36.1 L37.2 35.7 Q41.1 34.5 39.35 30.75 L35.55 22.3 M19.3 1.35 L22.3 0.4 Q26.55 -1.0 28.45 3.1 L41.35 31.7 Q42.95 35.15 40.2 36.7 L38.9 37.25 36.15 38.15 34.0 36.9 33.8 36.8 Q30.65 35.45 27.7 36.35 24.75 37.3 23.7 40.05 L23.6 40.25 Q23.25 41.25 23.25 42.3 L23.2 42.3 20.4 43.2 19.1 43.5 17.3 43.4 Q15.3 42.9 14.2 40.5 L5.45 20.95 1.35 11.8 Q0.4 9.65 1.1 8.3 1.45 7.65 2.15 7.15 2.8 6.7 3.8 6.35 L6.45 5.5 8.5 6.75 8.7 6.85 Q11.9 8.2 14.85 7.25 17.8 6.35 18.85 3.6 L18.9 3.4 19.3 1.35"/><path fill="#c47fad" stroke="none" d="M28.25 6.1 L35.55 22.3 39.35 30.75 Q41.1 34.5 37.2 35.7 L36.25 36.1 Q33.05 34.2 30.2 34.2 27.4 34.15 25.05 35.5 22.7 36.9 21.65 40.55 L20.45 41.1 Q16.8 42.25 15.2 39.0 L15.0 38.6 8.25 23.65 3.35 12.8 Q1.65 9.1 6.4 7.45 L9.0 8.8 Q11.45 9.95 14.2 9.8 17.0 9.45 18.85 7.6 20.8 5.65 21.6 2.85 26.05 1.25 27.75 4.95 L28.25 6.1 M34.0 32.9 L33.7 32.1 Q33.45 30.9 34.1 30.1 34.75 29.3 35.95 29.35 L35.8 29.0 26.5 8.3 26.25 7.85 Q24.9 5.45 22.05 6.35 19.75 11.1 14.85 11.65 11.45 11.85 9.1 10.55 L9.55 11.6 Q9.8 12.8 9.15 13.6 8.4 14.45 7.1 14.4 L6.8 14.4 6.95 14.6 16.3 35.2 Q16.8 36.4 17.65 37.0 18.8 37.8 19.8 37.35 21.8 33.7 25.95 32.3 30.35 30.8 34.0 32.9"/><path fill="#fcf2cf" stroke="none" d="M22.05 6.35 Q24.9 5.45 26.25 7.85 L26.5 8.3 35.8 29.0 35.95 29.35 Q34.75 29.3 34.1 30.1 33.45 30.9 33.7 32.1 L34.0 32.9 Q30.35 30.8 25.95 32.3 21.8 33.7 19.8 37.35 18.8 37.8 17.65 37.0 16.8 36.4 16.3 35.2 L6.95 14.6 6.8 14.4 7.1 14.4 Q8.4 14.45 9.15 13.6 9.8 12.8 9.55 11.6 L9.1 10.55 Q11.45 11.85 14.85 11.65 19.75 11.1 22.05 6.35"/><path fill="#300525" stroke="none" d="M40.2 36.7 Q39.5 37.3 38.3 37.65 L36.35 38.3 36.15 38.15 38.9 37.25 40.2 36.7 M23.25 42.3 L23.25 42.35 23.2 42.3 23.25 42.3 M20.1 43.55 L19.8 43.65 Q17.15 44.45 15.5 43.3 L17.3 43.4 19.1 43.5 20.1 43.55 M4.6 20.9 L0.7 12.25 Q-0.45 9.75 0.75 8.25 L1.1 8.3 Q0.4 9.65 1.35 11.8 L5.45 20.95 4.6 20.9"/><path fill="#630a4c" stroke="none" d="M23.25 42.35 L23.25 42.55 20.1 43.55 19.1 43.5 20.4 43.2 23.2 42.3 23.25 42.35 M15.5 43.3 Q14.35 42.55 13.65 40.9 L4.6 20.9 5.45 20.95 14.2 40.5 Q15.3 42.9 17.3 43.4 L15.5 43.3 M0.75 8.25 Q1.2 7.6 2.15 7.15 1.45 7.65 1.1 8.3 L0.75 8.25"/><path fill="none" stroke="#bf9900" stroke-width="1.0" stroke-opacity="0.749019607843" d="M28.25 6.1 L35.55 22.3 M15.0 38.6 L8.25 23.65"/><path fill="none" stroke="#000000" stroke-width="0.5" stroke-opacity="0.301960784314" d="M19.3 1.35 L22.3 0.4 Q26.55 -1.0 28.45 3.1 L41.35 31.7 Q42.95 35.15 40.2 36.7 39.5 37.3 38.3 37.65 L36.35 38.3 M23.25 42.55 L20.1 43.55 19.8 43.65 Q17.15 44.45 15.5 43.3 14.35 42.55 13.65 40.9 L4.6 20.9 0.7 12.25 Q-0.45 9.75 0.75 8.25 1.2 7.6 2.15 7.15 2.8 6.7 3.8 6.35 L6.45 5.5 M1.1 8.3 Q1.45 7.65 2.15 7.15 M5.45 20.95 L1.35 11.8 Q0.4 9.65 1.1 8.3 M17.3 43.4 Q15.3 42.9 14.2 40.5 L5.45 20.95 M19.1 43.5 L17.3 43.4 M23.2 42.3 L20.4 43.2 19.1 43.5 M23.25 42.3 L23.2 42.3 M40.2 36.7 L38.9 37.25 36.15 38.15"/><path fill="none" stroke="#ffcc00" stroke-width="1.0" stroke-opacity="0.749019607843" d="M35.55 22.3 L39.35 30.75 Q41.1 34.5 37.2 35.7 L36.25 36.1 M21.65 40.55 L20.45 41.1 Q16.8 42.25 15.2 39.0 L15.0 38.6 M8.25 23.65 L3.35 12.8 Q1.65 9.1 6.4 7.45 M21.6 2.85 Q26.05 1.25 27.75 4.95 L28.25 6.1"/><path fill="none" stroke="#f0b92b" stroke-width="0.5" d="M22.05 6.35 Q24.9 5.45 26.25 7.85 L26.5 8.3 35.8 29.0 35.95 29.35 Q34.75 29.3 34.1 30.1 33.45 30.9 33.7 32.1 L34.0 32.9 M19.8 37.35 Q18.8 37.8 17.65 37.0 16.8 36.4 16.3 35.2 L6.95 14.6 6.8 14.4 7.1 14.4 Q8.4 14.45 9.15 13.6 9.8 12.8 9.55 11.6 L9.1 10.55"/><path fill="none" stroke="#ffaa00" stroke-width="1.0" stroke-opacity="0.749019607843" d="M36.25 36.1 Q33.05 34.2 30.2 34.2 27.4 34.15 25.05 35.5 22.7 36.9 21.65 40.55 M6.4 7.45 L9.0 8.8 Q11.45 9.95 14.2 9.8 17.0 9.45 18.85 7.6 20.8 5.65 21.6 2.85"/><path fill="none" stroke="#ffaa00" stroke-width="0.5" stroke-opacity="0.749019607843" d="M34.0 32.9 Q30.35 30.8 25.95 32.3 21.8 33.7 19.8 37.35 M9.1 10.55 Q11.45 11.85 14.85 11.65 19.75 11.1 22.05 6.35"/></g><g id="c3"><path fill="#7fdbfe" stroke="none" d="M10.75 4.9 Q10.75 4.6 10.9 4.35 11.25 3.45 11.95 2.75 13.3 1.5 14.35 2.1 15.4 2.7 14.95 4.45 14.7 5.4 14.1 6.15 L13.75 6.5 Q13.1 7.15 12.35 7.35 L11.4 7.2 Q10.95 6.9 10.75 6.4 10.5 5.75 10.75 4.9 M9.3 1.7 Q9.55 2.65 9.4 3.6 L9.3 4.15 8.5 5.5 7.6 5.9 7.5 5.9 Q7.0 5.85 6.6 5.5 6.05 5.0 5.8 4.15 L5.7 3.6 Q5.55 2.65 5.8 1.7 6.25 0.0 7.5 0.0 L7.6 0.0 Q8.85 0.0 9.3 1.7 M0.15 4.45 Q-0.3 2.7 0.75 2.1 1.8 1.5 3.15 2.75 3.85 3.45 4.2 4.35 L4.35 4.9 Q4.6 5.75 4.35 6.4 L3.7 7.2 2.75 7.35 Q2.0 7.15 1.35 6.5 L1.0 6.15 Q0.4 5.4 0.15 4.45 M7.55 7.0 Q8.75 6.9 9.9 7.6 11.45 8.5 11.95 10.25 12.35 12.0 11.5 12.95 10.7 13.9 9.65 13.7 8.55 13.5 7.55 12.6 6.55 13.5 5.5 13.7 4.45 13.9 3.65 12.95 2.75 12.0 3.2 10.25 3.7 8.5 5.25 7.6 6.4 6.9 7.55 7.0"/></g><g id="c4"><g><use transform="matrix(1.0,0.0,0.0,1.0,0.0,0.0)" xlink:href="#c3"/></g></g><radialGradient gradientUnits="userSpaceOnUse" r="819.2" cx="0" cy="0" spreadMethod="pad" gradientTransform="matrix(0.0914459228516,0.0,0.0,0.0914459228516,0.6,3.4)" id="gradient1"><stop offset="0.0" stop-color="#ffffff"/><stop offset="1.0" stop-color="#ffffff" stop-opacity="0.0"/></radialGradient><g id="c5"><path stroke="none" fill="url(#gradient1)" d="M36.65 -54.65 Q60.05 -42.0 69.75 -17.95 80.55 8.9 68.0 34.1 55.45 59.35 26.8 68.2 -1.8 77.05 -29.7 64.3 -57.6 51.6 -68.45 24.75 -79.3 -2.05 -66.75 -27.25 L-66.7 -27.3 Q-54.1 -52.5 -25.5 -61.4 3.1 -70.2 31.0 -57.5 L36.65 -54.65"/></g><g id="c6"><g><use transform="matrix(1.0,0.0,0.0,1.0,0.0,0.0)" xlink:href="#c5"/></g></g><radialGradient gradientUnits="userSpaceOnUse" r="819.2" cx="0" cy="0" spreadMethod="pad" gradientTransform="matrix(0.209197998047,0.0,0.0,0.177108764648,67.15,107.2)" id="gradient2"><stop offset="0.356862745098" stop-color="#ffffff"/><stop offset="0.670588235294" stop-opacity="0.0"/></radialGradient><g id="c7"><path fill="none" stroke-linejoin="round" stroke-linecap="round" stroke="url(#gradient2)" stroke-width="0.5" d="M136.55 165.8 L68.6 106.0 68.4 106.0 118.25 201.5 M68.3 105.8 L68.35 105.8 68.3 105.8 68.3 105.85 68.4 106.0 68.3 106.0 86.55 211.5 M68.3 105.8 L68.3 105.85 68.3 106.0 68.15 105.95 18.25 151.55 M68.3 105.85 L68.25 105.85 68.3 106.0 50.0 193.2 M68.25 105.85 L68.15 105.95 0.05 97.7 M68.3 105.85 L68.25 105.8 68.25 105.85 M68.25 105.8 L68.2 105.7 0.0 45.7 M68.3 105.8 L68.25 105.75 68.25 105.8 M68.25 105.75 L68.2 105.7 18.25 10.05 M68.6 106.0 L68.35 105.8 118.25 60.15 M86.6 18.35 L68.3 105.8 M136.6 114.25 L68.6 106.0 M68.25 105.75 L49.95 0.05"/></g><g id="c8"><g><use transform="matrix(1.0,0.0,0.0,1.0,0.0,0.0)" xlink:href="#c7"/></g></g><g id="c9"><g><use transform="matrix(1.0,0.0,0.0,1.0,0.0,0.0)" xlink:href="#c2"/></g><g><use transform="matrix(0.238861083984,-0.0867004394531,0.10026550293,0.233917236328,34.25,31.15)" xlink:href="#c4"/></g><g><use transform="matrix(0.238861083984,-0.0867004394531,0.10026550293,0.233917236328,4.25,10.3)" xlink:href="#c4"/></g><g><use transform="matrix(0.141098022461,-0.0378112792969,0.111373901367,0.225646972656,20.25,20.65)" filter="url(#filter7)" xlink:href="#c6"/></g><g><use transform="matrix(-0.155029296875,0.0513153076172,0.0841827392578,0.147033691406,22.6,3.15)" filter="url(#filter8)" xlink:href="#c8"/></g></g><filter id="filter7"><feColorMatrix in="SourceGraphic" type="matrix" values="0.0 0.0 0.0 0.0 0.796875 0.0 0.0 0.0 0.0 0.59765625 0.0 0.0 0.0 0.0 0.19921875 0.0 0.0 0.0 1.0 0.0" result="cxform"/><feComposite operator="in" in2="SourceGraphic" result="color-xform"/></filter><filter id="filter8"><feColorMatrix in="SourceGraphic" type="matrix" values="0.0 0.0 0.0 0.0 0.99609375 0.0 0.0 0.0 0.0 0.99609375 0.0 0.0 0.0 0.0 0.99609375 0.0 0.0 0.0 1.0 0.0" result="cxform"/><feComposite operator="in" in2="SourceGraphic" result="color-xform"/></filter><g id="c10"><path fill="#766d2c" stroke="none" d="M-14.75 -8.95 L-14.7 -9.4 Q-14.55 -10.35 -14.05 -10.9 L-12.65 -11.1 -13.75 -9.05 -13.95 -8.4 -14.8 -8.9 -14.75 -8.95"/><path fill="#9c9238" stroke="none" d="M-14.8 -8.9 L-13.95 -8.4 -14.0 -8.3 -14.35 -7.1 -14.6 -6.75 -14.75 -8.1 -14.8 -8.9"/><path fill="none" stroke="#000000" stroke-width="0.5" stroke-opacity="0.301960784314" d="M-14.05 -10.9 Q-14.55 -10.35 -14.7 -9.4 L-14.75 -8.95 M-13.95 -8.4 L-13.75 -9.05 -12.65 -11.1 M-14.8 -8.9 L-14.75 -8.1 -14.6 -6.75 -14.35 -7.1 -14.0 -8.3"/><path fill="none" stroke="#000000" stroke-width="0.5" stroke-opacity="0.101960784314" d="M-12.65 -11.1 L-14.05 -10.9"/><path fill="#9c9238" stroke="none" d="M-9.95 -3.8 L-11.2 -6.35 -12.2 -4.55 -13.35 -7.85 -14.0 -6.7 -14.0 -6.9 -13.9 -9.1 Q-12.95 -7.65 -10.15 -6.5 L-10.2 -5.9 -9.95 -3.8"/><path fill="#a89d3e" stroke="none" d="M-14.0 -6.7 L-13.35 -7.85 -12.2 -4.55 -11.2 -6.35 -9.95 -3.8 -9.85 -3.15 -9.75 -2.3 Q-12.2 -3.9 -13.75 -4.3 L-13.95 -5.5 -12.75 -5.0 -14.0 -5.95 -14.0 -6.7"/><path fill="#766d2c" stroke="none" d="M-10.15 -6.5 Q-12.95 -7.65 -13.9 -9.1 -14.05 -10.4 -13.35 -10.85 L-9.25 -9.1 Q-10.05 -8.25 -10.15 -6.5"/><path fill="#77752b" stroke="none" d="M-9.75 -2.3 L-9.85 -3.15 -9.3 -3.0 -9.25 -3.0 Q-9.2 -1.7 -9.75 -2.3"/><path fill="none" stroke="#000000" stroke-width="0.5" stroke-opacity="0.2" d="M-14.0 -6.7 L-13.35 -7.85 -12.2 -4.55 -11.2 -6.35 -9.95 -3.8"/><path fill="none" stroke="#000000" stroke-width="0.5" stroke-opacity="0.301960784314" d="M-9.95 -3.8 L-10.2 -5.9 -10.15 -6.5 Q-10.05 -8.25 -9.25 -9.1 M-13.9 -9.1 L-14.0 -6.9 -14.0 -6.7 -14.0 -5.95 M-13.95 -5.5 L-13.75 -4.3 Q-12.2 -3.9 -9.75 -2.3 -9.2 -1.7 -9.25 -3.0 L-9.3 -3.0 -9.85 -3.15 -9.95 -3.8 M-13.35 -10.85 Q-14.05 -10.4 -13.9 -9.1"/><path fill="none" stroke="#000000" stroke-width="0.5" stroke-opacity="0.101960784314" d="M-9.25 -9.1 L-13.35 -10.85"/><path fill="#77752b" stroke="none" d="M12.15 -7.85 L10.75 -9.25 11.95 -9.65 12.8 -8.7 12.15 -7.85"/><path fill="#adb42c" stroke="none" d="M12.8 -8.7 L13.0 -8.3 13.5 -7.0 13.85 -5.45 13.55 -5.75 12.35 -7.55 12.15 -7.85 12.8 -8.7"/><path fill="none" stroke="#000000" stroke-width="0.5" stroke-opacity="0.301960784314" d="M12.15 -7.85 L10.75 -9.25 M11.95 -9.65 L12.8 -8.7 13.0 -8.3 13.5 -7.0 13.85 -5.45 13.55 -5.75 12.35 -7.55 12.15 -7.85"/><path fill="none" stroke="#000000" stroke-width="0.5" stroke-opacity="0.101960784314" d="M10.75 -9.25 L11.95 -9.65"/><path fill="#77752b" stroke="none" d="M-8.8 -6.7 Q-9.0 -8.2 -8.0 -9.0 L-1.95 -8.25 Q-3.1 -7.0 -3.25 -4.85 -7.3 -5.3 -8.8 -6.7 M-2.85 -0.85 L-1.9 -0.85 Q-1.85 0.65 -2.7 0.1 L-2.85 -0.85"/><path fill="#adb42c" stroke="none" d="M-3.25 -4.85 L-3.3 -4.15 -3.0 -1.8 -4.75 -4.05 -6.2 -1.95 -7.9 -4.9 -8.9 -3.55 -8.9 -4.0 -8.8 -6.7 Q-7.3 -5.3 -3.25 -4.85"/><path fill="#a8b808" stroke="none" d="M-3.0 -1.8 L-2.85 -0.85 -2.7 0.1 Q-6.3 -0.9 -8.6 -0.9 L-8.85 -2.25 -7.1 -2.05 -8.9 -2.8 -8.9 -3.55 -7.9 -4.9 -6.2 -1.95 -4.75 -4.05 -3.0 -1.8"/><path fill="none" stroke="#000000" stroke-width="0.5" stroke-opacity="0.301960784314" d="M-8.8 -6.7 Q-9.0 -8.2 -8.0 -9.0 M-1.95 -8.25 Q-3.1 -7.0 -3.25 -4.85 L-3.3 -4.15 -3.0 -1.8 -2.85 -0.85 -1.9 -0.85 Q-1.85 0.65 -2.7 0.1 -6.3 -0.9 -8.6 -0.9 L-8.85 -2.25 M-8.9 -2.8 L-8.9 -3.55 -8.9 -4.0 -8.8 -6.7"/><path fill="none" stroke="#000000" stroke-width="0.5" stroke-opacity="0.2" d="M-8.9 -3.55 L-7.9 -4.9 -6.2 -1.95 -4.75 -4.05 -3.0 -1.8"/><path fill="none" stroke="#000000" stroke-width="0.5" stroke-opacity="0.101960784314" d="M-8.0 -9.0 L-1.95 -8.25"/><path fill="#77752b" stroke="none" d="M11.1 -6.7 L10.15 -10.35 11.55 -9.65 12.1 -7.25 11.1 -6.7"/><path fill="#adb42c" stroke="none" d="M12.1 -7.25 L12.15 -6.45 12.2 -3.9 12.15 -1.2 11.85 -1.95 11.25 -5.95 11.1 -6.7 12.1 -7.25"/><path fill="none" stroke="#000000" stroke-width="0.5" stroke-opacity="0.301960784314" d="M11.1 -6.7 L10.15 -10.35 M11.55 -9.65 L12.1 -7.25 12.15 -6.45 12.2 -3.9 12.15 -1.2 11.85 -1.95 11.25 -5.95 11.1 -6.7"/><path fill="none" stroke="#000000" stroke-width="0.5" stroke-opacity="0.101960784314" d="M10.15 -10.35 L11.55 -9.65"/><path fill="#77752b" stroke="none" d="M3.45 0.25 Q2.4 0.8 2.5 -0.7 L3.65 -0.7 3.45 0.25 M4.15 -4.7 L4.05 -5.4 Q3.7 -7.05 2.55 -8.1 L9.95 -8.95 Q11.15 -8.2 10.9 -6.7 L4.15 -4.7"/><path fill="#a8b808" stroke="none" d="M3.65 -0.7 L3.8 -1.35 5.75 -3.45 7.4 -1.25 9.4 -4.05 10.55 -2.6 8.85 -2.0 11.0 -2.25 Q10.9 -1.2 10.65 -0.9 7.85 -0.85 3.45 0.25 L3.65 -0.7"/><path fill="#adb42c" stroke="none" d="M3.8 -1.35 L4.2 -4.0 4.15 -4.7 10.9 -6.7 10.95 -6.35 11.05 -4.0 11.05 -2.8 10.55 -2.6 9.4 -4.05 7.4 -1.25 5.75 -3.45 3.8 -1.35"/><path fill="none" stroke="#000000" stroke-width="0.5" stroke-opacity="0.301960784314" d="M3.45 0.25 Q2.4 0.8 2.5 -0.7 L3.65 -0.7 3.8 -1.35 4.2 -4.0 4.15 -4.7 4.05 -5.4 Q3.7 -7.05 2.55 -8.1 M9.95 -8.95 Q11.15 -8.2 10.9 -6.7 L10.95 -6.35 11.05 -4.0 11.05 -2.8 M11.0 -2.25 Q10.9 -1.2 10.65 -0.9 7.85 -0.85 3.45 0.25"/><path fill="none" stroke="#000000" stroke-width="0.5" stroke-opacity="0.2" d="M3.8 -1.35 L5.75 -3.45 7.4 -1.25 9.4 -4.05 10.55 -2.6"/><path fill="none" stroke="#000000" stroke-width="0.5" stroke-opacity="0.101960784314" d="M2.55 -8.1 L9.95 -8.95"/><path fill="#c2ae59" stroke="none" d="M8.55 -14.25 L0.9 -19.85 2.0 -19.85 Q5.9 -17.6 9.35 -14.45 L8.55 -14.25"/><path fill="#938352" stroke="none" d="M2.0 -19.85 L0.9 -19.85 8.55 -14.25 7.45 -13.95 6.85 -13.8 4.7 -13.45 4.1 -13.4 3.05 -13.25 2.55 -13.25 2.5 -13.35 2.35 -14.15 -2.35 -14.85 2.15 -14.95 Q1.3 -18.3 -0.2 -20.0 -4.7 -17.95 -8.05 -14.75 L-8.75 -15.15 Q-4.8 -18.35 0.05 -20.7 L0.3 -20.8 2.0 -19.85"/><path fill="#5e0605" stroke="none" d="M2.55 -13.25 L3.05 -13.25 4.1 -13.4 4.7 -13.45 Q9.45 -10.05 8.0 -8.45 L4.55 -7.75 3.55 -8.8 3.5 -7.9 2.15 -7.9 1.0 -10.95 Q1.0 -8.95 0.3 -7.8 -2.9 -7.9 -7.45 -8.85 L-6.1 -10.85 -8.5 -9.3 -9.6 -9.3 -9.45 -10.45 -11.2 -9.7 -14.15 -10.75 -15.75 -11.7 Q-13.3 -13.4 -8.25 -14.65 L-7.95 -14.7 -7.15 -14.4 -5.6 -13.95 -8.15 -12.25 -4.95 -13.8 -4.7 -13.75 1.05 -13.25 2.5 -13.35 2.5 -13.25 2.55 -13.25"/><path fill="#756846" stroke="none" d="M-8.05 -14.75 Q-4.7 -17.95 -0.2 -20.0 1.3 -18.3 2.15 -14.95 L-2.35 -14.85 2.35 -14.15 2.5 -13.35 1.05 -13.25 -7.95 -14.7 -8.05 -14.75"/><path fill="#871c01" stroke="none" d="M8.55 -14.25 L9.35 -14.45 9.4 -14.45 14.65 -11.55 15.25 -11.1 14.3 -10.15 Q10.2 -11.05 7.45 -13.95 L8.55 -14.25"/><path fill="#bb3301" stroke="none" d="M-8.75 -15.15 L-8.05 -14.75 -8.25 -14.65 Q-13.3 -13.4 -15.75 -11.7 -16.2 -12.1 -16.0 -12.3 L-15.95 -12.35 -15.2 -12.75 Q-12.2 -14.15 -8.75 -15.15 M4.7 -13.45 L6.85 -13.8 7.45 -13.95 Q10.2 -11.05 14.3 -10.15 L13.0 -9.5 8.0 -8.45 Q9.45 -10.05 4.7 -13.45"/><path fill="#8f1d01" stroke="none" d="M15.25 -11.1 L15.9 -10.6 12.7 -8.6 8.5 -7.7 6.9 -7.5 5.2 -7.3 2.45 -7.15 2.15 -7.9 3.5 -7.9 3.55 -8.8 4.55 -7.75 8.0 -8.45 13.0 -9.5 14.3 -10.15 15.25 -11.1 M0.3 -7.8 L-0.15 -7.15 Q-7.15 -7.4 -13.85 -9.9 L-16.85 -11.9 -16.05 -12.3 -16.0 -12.3 Q-16.2 -12.1 -15.75 -11.7 L-14.15 -10.75 -11.2 -9.7 -9.45 -10.45 -9.6 -9.3 -8.5 -9.3 -6.1 -10.85 -7.45 -8.85 Q-2.9 -7.9 0.3 -7.8"/><path fill="#280202" stroke="none" d="M-5.6 -13.95 L-7.15 -14.4 -7.95 -14.7 1.05 -13.25 -4.7 -13.75 -4.95 -13.8 -8.15 -12.25 -5.6 -13.95 -5.1 -13.85 -4.95 -13.8 -5.1 -13.85 -5.6 -13.95"/><path fill="none" stroke="#000000" stroke-width="0.5" stroke-opacity="0.301960784314" d="M8.55 -14.25 L9.35 -14.45 Q5.9 -17.6 2.0 -19.85 L0.3 -20.8 0.05 -20.7 Q-4.8 -18.35 -8.75 -15.15 L-8.05 -14.75 -8.25 -14.65 -7.95 -14.7 -8.05 -14.75 M2.5 -13.35 L2.55 -13.25 3.05 -13.25 4.1 -13.4 4.7 -13.45 6.85 -13.8 7.45 -13.95 8.55 -14.25 M2.5 -13.35 L2.5 -13.25 2.55 -13.25 M1.05 -13.25 L2.5 -13.35 M9.35 -14.45 L9.4 -14.45 14.65 -11.55 15.25 -11.1 15.9 -10.6 12.7 -8.6 8.5 -7.7 6.9 -7.5 5.2 -7.3 2.45 -7.15 2.15 -7.9 1.0 -10.95 Q1.0 -8.95 0.3 -7.8 L-0.15 -7.15 Q-7.15 -7.4 -13.85 -9.9 L-16.85 -11.9 -16.05 -12.3 -15.95 -12.35 -15.2 -12.75 Q-12.2 -14.15 -8.75 -15.15 M-7.95 -14.7 L-7.15 -14.4 -5.6 -13.95 -5.1 -13.85 -4.95 -13.8 M-4.7 -13.75 L1.05 -13.25 M-15.95 -12.35 L-16.0 -12.3"/><path fill="none" stroke="#000000" stroke-width="0.5" stroke-opacity="0.2" d="M5.45 -13.55 L5.7 -13.3 M7.2 -13.1 L7.9 -12.7 M6.1 -12.95 L6.65 -12.5 M9.6 -9.95 L9.15 -10.35 8.2 -10.05 M8.85 -10.6 L9.15 -10.35 10.9 -10.8 9.9 -11.4 M9.65 -12.15 L8.9 -12.05 9.45 -11.7 M7.05 -12.1 L7.45 -11.85 8.9 -12.05 8.5 -12.35 M8.45 -11.0 L7.45 -11.85 6.45 -11.75 M6.65 -9.65 L5.75 -9.4 M5.85 -11.7 L4.2 -11.45 M11.85 -10.25 L12.7 -9.7 M12.05 -11.15 L10.9 -10.8 11.4 -10.5 M12.9 -11.4 L12.45 -11.25 M10.8 -12.25 L10.4 -12.2 M9.95 -9.7 L10.75 -9.05"/><path fill="none" stroke="#ffffff" stroke-width="0.5" stroke-opacity="0.2" d="M-8.35 -12.6 L-7.6 -12.5 -7.2 -12.8 M-9.5 -12.7 L-9.1 -12.65 M-4.15 -14.0 L-4.4 -13.75 M-5.9 -13.55 L-6.6 -13.15 M-4.8 -13.4 L-5.35 -12.95 M-10.55 -10.7 L-11.4 -10.15 M-11.6 -11.85 L-11.15 -11.7 M-4.55 -12.15 L-2.9 -11.9 M-5.75 -12.55 L-6.15 -12.3 -5.15 -12.2 M-7.15 -11.45 L-6.15 -12.3 -7.6 -12.5 -8.15 -12.15 M-8.3 -10.4 L-7.85 -10.8 -9.6 -11.25 -10.1 -10.95 M-10.75 -11.6 L-9.6 -11.25 -8.6 -11.85 M-8.65 -10.15 L-9.45 -9.5 M-7.55 -11.05 L-7.85 -10.8 -6.9 -10.5 M-5.35 -10.1 L-4.45 -9.85"/><path fill="#312c1c" stroke="none" d="M0.05 -18.75 L-0.4 -18.1 -0.35 -17.25 0.7 -15.8 Q1.6 -14.7 2.6 -14.4 L4.6 -14.1 5.85 -14.15 6.3 -14.1 8.8 -14.75 9.3 -14.7 9.3 -14.1 8.1 -13.9 6.9 -13.7 5.65 -13.4 Q4.5 -13.15 2.6 -13.9 L2.2 -14.15 2.25 -13.85 2.1 -13.6 Q1.95 -13.45 1.8 -13.75 L1.5 -14.15 1.55 -14.35 1.65 -14.4 0.15 -15.8 Q-0.55 -16.65 -0.8 -17.6 -0.65 -17.9 -0.65 -18.15 L-0.55 -18.6 Q-0.2 -19.2 0.55 -19.35 L1.65 -19.5 1.8 -19.45 2.0 -19.4 2.1 -19.35 2.65 -19.25 4.3 -17.95 4.7 -17.25 4.75 -17.0 5.15 -16.85 5.5 -16.35 Q5.95 -16.0 5.5 -16.1 L4.95 -16.3 4.8 -16.35 Q4.75 -15.85 4.2 -15.7 L4.1 -15.6 4.05 -15.6 2.6 -15.85 1.5 -16.65 1.35 -16.95 1.25 -17.3 1.2 -17.35 1.05 -17.5 1.1 -17.85 Q1.15 -18.1 1.3 -17.95 L1.7 -17.7 1.8 -17.45 1.85 -17.3 1.6 -17.1 1.25 -17.3 1.45 -17.0 1.65 -16.65 2.55 -15.95 3.85 -15.8 3.9 -15.8 4.5 -16.6 4.4 -16.95 4.05 -17.95 2.55 -19.15 2.15 -19.2 2.2 -19.15 2.3 -18.8 Q2.5 -18.5 2.3 -18.55 2.1 -18.6 1.8 -18.8 L1.45 -19.15 1.5 -19.3 0.45 -18.95 0.05 -18.75"/><path fill="#809311" stroke="none" d="M11.15 -8.3 L10.75 -7.9 10.35 -7.6 Q10.0 -7.35 9.8 -7.6 L10.1 -7.9 10.65 -8.55 Q10.7 -7.95 11.15 -8.3"/><path fill="#d3e232" stroke="none" d="M11.15 -8.3 Q10.7 -7.95 10.65 -8.55 L11.25 -9.55 Q11.55 -9.55 11.55 -9.05 L11.15 -8.3"/><path fill="none" stroke="#382510" stroke-width="0.5" stroke-opacity="0.4" d="M10.65 -8.55 L10.1 -7.9 9.8 -7.6 Q10.0 -7.35 10.35 -7.6 L10.75 -7.9 11.15 -8.3 M10.65 -8.55 L11.25 -9.55 Q11.55 -9.55 11.55 -9.05 L11.15 -8.3"/><path fill="#d3e232" stroke="none" d="M3.1 -7.5 Q2.85 -7.8 2.7 -8.2 2.7 -8.65 3.0 -8.7 L3.55 -7.7 Q3.5 -7.15 3.1 -7.5"/><path fill="#809311" stroke="none" d="M3.55 -7.7 L4.1 -7.1 4.35 -6.8 Q4.15 -6.6 3.85 -6.8 L3.45 -7.1 3.1 -7.5 Q3.5 -7.15 3.55 -7.7"/><path fill="none" stroke="#382510" stroke-width="0.5" stroke-opacity="0.4" d="M3.1 -7.5 Q2.85 -7.8 2.7 -8.2 2.7 -8.65 3.0 -8.7 L3.55 -7.7 4.1 -7.1 4.35 -6.8 Q4.15 -6.6 3.85 -6.8 L3.45 -7.1 3.1 -7.5"/></g><g id="c11"><g><use transform="matrix(1.0,0.0,0.0,1.0,0.0,0.0)" xlink:href="#c10"/></g></g><g id="c12"><g><use transform="matrix(1.0,0.0,0.0,1.0,16.85,20.8)" xlink:href="#c11"/></g></g><g id="c13"><g><use transform="matrix(0.478057861328,-0.209884643555,0.209884643555,0.478057861328,-2.1,4.8)" xlink:href="#c12"/></g></g><g id="c14"><g><use transform="matrix(1.0,0.0,0.0,1.0,6.3,53.35)" xlink:href="#c9"/></g><g><use transform="matrix(1.0,0.0,0.0,1.0,19.85,68.2)" xlink:href="#c13"/></g><g><use transform="matrix(0.141098022461,-0.0378112792969,0.111373901367,0.225646972656,27.2,74.05)" filter="url(#filter14)" xlink:href="#c6"/></g></g><filter id="filter14"><feColorMatrix in="SourceGraphic" type="matrix" values="1.0 0.0 0.0 0.0 0.0 0.0 1.0 0.0 0.0 0.0 0.0 0.0 1.0 0.0 0.0 0.0 0.0 0.0 0.23046875 0.0" result="cxform"/><feComposite operator="in" in2="SourceGraphic" result="color-xform"/></filter></defs><g><g><use transform="matrix(1.0,0.0,0.0,1.0,0.0,0.0)" xlink:href="#c1"/></g><g><use transform="matrix(1.15496826172,0.0,0.0,1.15496826172,-1.4,-57.4)" xlink:href="#c14"/></g></g></svg>