<?xml version='1.0' encoding='UTF-8'?>
<svg xmlns:xlink="http://www.w3.org/1999/xlink" xmlns="http://www.w3.org/2000/svg" version="1.1" width="60px" height="60px" viewBox="0.0 0.0 60.0 60.0"><defs><g id="c1"><path fill="#000000" fill-opacity="0.00392156862745" d="M0.0 0.0 L60.0 0.0 60.0 60.0 0.0 60.0 0.0 0.0"/></g><g id="c2"><path fill="none" stroke="#000000" stroke-width="1.0" stroke-opacity="0.301960784314" d="M22.3 0.35 Q26.6 -1.0 28.5 3.05 L41.4 31.7 Q43.1 35.4 39.9 36.85 L38.15 37.65 19.65 43.65 Q17.05 44.5 15.35 43.3 14.2 42.55 13.5 40.9 L0.55 12.25 Q-0.6 9.75 0.6 8.25 1.15 7.55 2.2 7.05 2.85 6.6 3.8 6.3 L22.3 0.35"/><path fill="#300525" stroke="none" d="M25.55 0.9 Q26.9 1.6 27.8 3.55 L40.7 32.15 Q42.6 36.3 38.3 37.65 L23.3 42.5 13.15 21.4 4.6 20.9 0.7 12.25 Q-0.45 9.75 0.75 8.25 L29.8 9.75 25.55 0.9 M20.1 43.55 L19.8 43.65 Q17.15 44.45 15.5 43.3 L20.1 43.55"/><path fill="#630a4c" stroke="none" d="M23.3 42.5 L20.1 43.55 15.5 43.3 Q14.35 42.55 13.65 40.9 L4.6 20.9 13.15 21.4 23.3 42.5 M0.75 8.25 Q1.45 7.3 3.1 6.75 L21.65 0.8 25.55 0.9 29.8 9.75 0.75 8.25"/><path fill="none" stroke="#000000" stroke-width="0.5" stroke-opacity="0.301960784314" d="M25.55 0.9 Q26.9 1.6 27.8 3.55 L40.7 32.15 Q42.6 36.3 38.3 37.65 L23.3 42.5 20.1 43.55 19.8 43.65 Q17.15 44.45 15.5 43.3 14.35 42.55 13.65 40.9 L4.6 20.9 0.7 12.25 Q-0.45 9.75 0.75 8.25 1.45 7.3 3.1 6.75 L21.65 0.8 25.55 0.9"/><path fill="#9d147b" stroke="none" d="M14.2 40.5 L1.35 11.8 Q-0.5 7.75 3.8 6.35 L22.3 0.4 Q26.55 -1.0 28.45 3.1 L41.35 31.7 Q43.25 35.85 38.9 37.25 L20.4 43.2 Q16.1 44.55 14.2 40.5"/><path fill="none" stroke="#000000" stroke-width="0.5" stroke-opacity="0.301960784314" d="M14.2 40.5 L1.35 11.8 Q-0.5 7.75 3.8 6.35 L22.3 0.4 Q26.55 -1.0 28.45 3.1 L41.35 31.7 Q43.25 35.85 38.9 37.25 L20.4 43.2 Q16.1 44.55 14.2 40.5"/><path fill="#fcf2cf" stroke="none" d="M9.15 13.6 Q9.8 12.8 9.55 11.6 L9.1 10.55 22.05 6.35 Q24.9 5.45 26.25 7.85 L26.5 8.3 35.8 29.0 35.95 29.35 Q34.75 29.3 34.1 30.1 33.45 30.9 33.7 32.1 L34.0 32.9 20.65 37.2 Q18.8 37.8 17.65 37.0 16.8 36.4 16.3 35.2 L6.95 14.6 6.8 14.4 7.1 14.4 Q8.4 14.45 9.15 13.6"/><path fill="#c47fad" stroke="none" d="M8.25 23.65 L3.35 12.8 Q1.65 9.1 5.5 7.85 L22.25 2.5 Q26.05 1.25 27.75 4.95 L28.25 6.1 35.55 22.3 39.35 30.75 Q41.1 34.5 37.2 35.7 L20.45 41.1 Q16.8 42.25 15.2 39.0 L15.0 38.6 8.25 23.65 M9.15 13.6 Q8.4 14.45 7.1 14.4 L6.8 14.4 6.95 14.6 16.3 35.2 Q16.8 36.4 17.65 37.0 18.8 37.8 20.65 37.2 L34.0 32.9 33.7 32.1 Q33.45 30.9 34.1 30.1 34.75 29.3 35.95 29.35 L35.8 29.0 26.5 8.3 26.25 7.85 Q24.9 5.45 22.05 6.35 L9.1 10.55 9.55 11.6 Q9.8 12.8 9.15 13.6"/><path fill="none" stroke="#ffcc00" stroke-width="1.0" stroke-opacity="0.749019607843" d="M8.25 23.65 L3.35 12.8 Q1.65 9.1 5.5 7.85 L22.25 2.5 Q26.05 1.25 27.75 4.95 L28.25 6.1 M35.55 22.3 L39.35 30.75 Q41.1 34.5 37.2 35.7 L20.45 41.1 Q16.8 42.25 15.2 39.0 L15.0 38.6"/><path fill="none" stroke="#bf9900" stroke-width="1.0" stroke-opacity="0.749019607843" d="M28.25 6.1 L35.55 22.3 M15.0 38.6 L8.25 23.65"/><path fill="none" stroke="#f0b92b" stroke-width="0.5" d="M9.15 13.6 Q9.8 12.8 9.55 11.6 L9.1 10.55 22.05 6.35 Q24.9 5.45 26.25 7.85 L26.5 8.3 35.8 29.0 35.95 29.35 Q34.75 29.3 34.1 30.1 33.45 30.9 33.7 32.1 L34.0 32.9 20.65 37.2 Q18.8 37.8 17.65 37.0 16.8 36.4 16.3 35.2 L6.95 14.6 6.8 14.4 7.1 14.4 Q8.4 14.45 9.15 13.6"/></g><g id="c3"><path fill="#7fdbfe" stroke="none" d="M10.75 4.9 Q10.75 4.6 10.9 4.35 11.25 3.45 11.95 2.75 13.3 1.5 14.35 2.1 15.4 2.7 14.95 4.45 14.7 5.4 14.1 6.15 L13.75 6.5 Q13.1 7.15 12.35 7.35 L11.4 7.2 Q10.95 6.9 10.75 6.4 10.5 5.75 10.75 4.9 M7.5 5.9 Q7.0 5.85 6.6 5.5 6.05 5.0 5.8 4.15 L5.7 3.6 Q5.55 2.65 5.8 1.7 6.25 0.0 7.5 0.0 L7.6 0.0 Q8.85 0.0 9.3 1.7 9.55 2.65 9.4 3.6 L9.3 4.15 8.5 5.5 7.6 5.9 7.5 5.9 M4.35 4.9 Q4.6 5.75 4.35 6.4 L3.7 7.2 2.75 7.35 Q2.0 7.15 1.35 6.5 L1.0 6.15 Q0.4 5.4 0.15 4.45 -0.3 2.7 0.75 2.1 1.8 1.5 3.15 2.75 3.85 3.45 4.2 4.35 L4.35 4.9 M5.5 13.7 Q4.45 13.9 3.65 12.95 2.75 12.0 3.2 10.25 3.7 8.5 5.25 7.6 6.4 6.9 7.55 7.0 8.75 6.9 9.9 7.6 11.45 8.5 11.95 10.25 12.35 12.0 11.5 12.95 10.7 13.9 9.65 13.7 8.55 13.5 7.55 12.6 6.55 13.5 5.5 13.7"/></g><g id="c4"><g><use transform="matrix(1.0,0.0,0.0,1.0,0.0,0.0)" xlink:href="#c3"/></g></g><radialGradient gradientUnits="userSpaceOnUse" r="819.2" cx="0" cy="0" spreadMethod="pad" gradientTransform="matrix(0.0914459228516,0.0,0.0,0.0914459228516,0.6,3.4)" id="gradient1"><stop offset="0.0" stop-color="#ffffff"/><stop offset="1.0" stop-color="#ffffff" stop-opacity="0.0"/></radialGradient><g id="c5"><path stroke="none" fill="url(#gradient1)" d="M36.65 -54.65 Q60.05 -42.0 69.75 -17.95 80.55 8.9 68.0 34.1 55.45 59.35 26.8 68.2 -1.8 77.05 -29.7 64.3 -57.6 51.6 -68.45 24.75 -79.3 -2.05 -66.75 -27.25 L-66.7 -27.3 Q-54.1 -52.5 -25.5 -61.4 3.1 -70.2 31.0 -57.5 L36.65 -54.65"/></g><g id="c6"><g><use transform="matrix(1.0,0.0,0.0,1.0,0.0,0.0)" xlink:href="#c5"/></g></g><radialGradient gradientUnits="userSpaceOnUse" r="819.2" cx="0" cy="0" spreadMethod="pad" gradientTransform="matrix(0.209197998047,0.0,0.0,0.177108764648,67.15,107.2)" id="gradient2"><stop offset="0.356862745098" stop-color="#ffffff"/><stop offset="0.670588235294" stop-opacity="0.0"/></radialGradient><g id="c7"><path fill="none" stroke-linejoin="round" stroke-linecap="round" stroke="url(#gradient2)" stroke-width="0.5" d="M136.55 165.8 L68.6 106.0 68.4 106.0 118.25 201.5 M68.2 105.7 L68.25 105.8 68.25 105.75 68.2 105.7 0.0 45.7 M68.25 105.8 L68.3 105.85 68.3 105.8 68.25 105.75 49.95 0.05 M0.05 97.7 L68.15 105.95 68.25 105.85 68.25 105.8 M68.3 105.85 L68.25 105.85 68.3 106.0 68.3 105.85 68.3 105.8 68.35 105.8 68.3 105.8 86.6 18.35 M50.0 193.2 L68.3 106.0 68.15 105.95 18.25 151.55 M68.4 106.0 L68.3 106.0 86.55 211.5 M68.4 106.0 L68.3 105.85 M68.6 106.0 L68.35 105.8 118.25 60.15 M136.6 114.25 L68.6 106.0 M68.2 105.7 L18.25 10.05"/></g><g id="c8"><g><use transform="matrix(1.0,0.0,0.0,1.0,0.0,0.0)" xlink:href="#c7"/></g></g><g id="c9"><path fill="#fff19f" stroke="none" d="M29.0 2.95 L28.8 3.15 27.85 4.5 20.9 3.95 20.0 2.15 19.7 1.5 21.15 1.15 25.4 2.85 25.85 2.45 29.15 2.75 29.0 2.95 M36.05 6.35 L36.65 6.35 39.55 6.3 41.0 6.25 41.9 9.5 42.25 9.8 36.95 15.35 19.15 18.1 17.65 17.75 16.9 17.55 11.95 13.75 12.7 13.3 13.65 10.4 14.65 10.4 16.95 9.6 12.9 10.15 10.15 8.45 10.0 8.35 9.75 8.2 13.1 6.85 14.4 6.4 14.65 6.25 15.0 6.15 20.8 6.6 24.4 8.7 18.0 11.9 14.4 12.7 17.1 13.45 17.05 13.5 21.9 14.95 24.7 14.25 25.8 12.4 26.25 11.8 27.6 11.8 32.85 11.8 34.25 12.5 36.05 11.85 31.5 8.7 31.15 7.25 36.05 6.35 M14.2 8.6 L15.6 8.25 16.5 8.65 17.1 9.6 16.95 9.6 17.1 9.6 16.5 8.65 15.6 8.25 14.2 8.6 M25.1 3.1 L25.4 2.85 25.1 3.1"/><path fill="#fde98f" stroke="none" d="M28.8 3.15 L29.0 2.95 29.15 2.75 25.85 2.45 25.4 2.85 21.15 1.15 27.1 0.0 37.7 3.6 33.75 4.85 29.3 4.25 28.8 3.15 M20.8 6.6 L15.0 6.15 14.65 6.25 14.4 6.4 13.1 6.85 13.15 6.6 7.45 7.75 6.3 8.9 11.3 10.4 13.65 10.4 12.7 13.3 11.95 13.75 11.1 13.15 7.25 11.8 6.0 11.4 5.35 10.65 4.9 10.1 2.05 8.15 2.15 6.9 9.4 5.25 12.2 3.2 18.4 2.35 20.3 4.45 23.85 5.1 23.1 6.8 20.8 6.6"/><path fill="#f8e27d" stroke="none" d="M29.3 4.25 L33.75 4.85 37.7 3.6 39.15 4.1 39.55 6.3 36.65 6.35 36.05 6.35 30.85 6.45 29.85 6.9 29.8 6.95 28.8 7.45 29.8 8.3 29.65 10.8 27.6 11.8 26.25 11.8 25.8 12.4 23.1 12.7 20.35 11.2 Q22.55 10.0 24.75 8.9 L24.4 8.7 20.8 6.6 23.1 6.8 23.85 5.1 25.8 5.45 29.55 4.7 29.3 4.25"/><path fill="#f2da82" stroke="none" d="M28.8 3.15 L29.3 4.25 29.55 4.7 25.8 5.45 23.85 5.1 20.3 4.45 18.4 2.35 20.0 2.15 20.9 3.95 27.85 4.5 28.8 3.15 M32.85 11.8 L27.6 11.8 29.65 10.8 29.8 8.3 34.1 11.75 33.95 11.8 32.85 11.8 M25.8 12.4 L24.7 14.25 21.9 14.95 17.05 13.5 17.1 13.45 20.35 11.2 23.1 12.7 25.8 12.4 M13.1 6.85 L9.75 8.2 10.0 8.35 10.15 8.45 12.9 10.15 16.95 9.6 14.65 10.4 13.65 10.4 11.3 10.4 6.3 8.9 7.45 7.75 13.15 6.6 13.1 6.85 M7.25 11.8 L11.1 13.15 11.95 13.75 16.9 17.55 14.4 16.95 Q10.9 14.2 7.25 11.8"/><path fill="#fde78f" stroke="none" d="M36.05 6.35 L31.15 7.25 31.5 8.7 36.05 11.85 34.25 12.5 32.85 11.8 33.95 11.8 33.65 11.9 34.05 11.8 34.1 11.8 34.1 11.75 29.8 8.3 28.8 7.45 29.8 6.95 29.85 6.9 30.85 6.45 36.05 6.35"/><path fill="#d4c68a" stroke="none" d="M34.1 11.75 L34.1 11.8 34.05 11.8 33.65 11.9 33.95 11.8 34.1 11.75 M34.05 11.8 L33.95 11.8 34.05 11.8"/><path fill="#ad8d58" stroke="none" d="M42.25 9.8 L42.15 11.2 36.85 16.75 19.05 19.45 16.9 19.0 17.65 17.75 19.15 18.1 36.95 15.35 42.25 9.8"/><path fill="#f2dc89" stroke="none" d="M17.1 13.45 L14.4 12.7 18.0 11.9 24.4 8.7 24.75 8.9 Q22.55 10.0 20.35 11.2 L17.1 13.45 M0.35 7.85 L0.05 7.7 1.05 6.15 8.85 4.5 Q9.95 3.95 11.05 3.35 L12.2 3.2 9.4 5.25 2.15 6.9 2.05 8.15 4.9 10.1 5.35 10.65 0.35 7.85"/><path fill="#c19f59" stroke="none" d="M17.65 17.75 L16.9 19.0 14.3 18.35 Q10.8 15.55 7.15 13.25 L5.95 12.8 5.3 12.05 Q2.65 10.4 0.0 9.1 L0.05 7.8 0.35 7.85 5.35 10.65 6.0 11.4 7.25 11.8 Q10.9 14.2 14.4 16.95 L16.9 17.55 17.65 17.75"/><path fill="none" stroke="#000000" stroke-width="0.5" stroke-opacity="0.152941176471" d="M37.7 3.6 L27.1 0.0 21.15 1.15 M25.4 2.85 L25.85 2.45 29.15 2.75 29.0 2.95 M32.85 11.8 L27.6 11.8 26.25 11.8 25.8 12.4 24.7 14.25 21.9 14.95 17.05 13.5 17.1 13.45 M24.4 8.7 L20.8 6.6 15.0 6.15 14.65 6.25 M14.4 6.4 L13.1 6.85 9.75 8.2 10.0 8.35 M10.15 8.45 L12.9 10.15 16.95 9.6 17.1 9.6 16.5 8.65 15.6 8.25 14.2 8.6 M36.05 6.35 L30.85 6.45 29.85 6.9 29.8 6.95 28.8 7.45 29.8 8.3 34.1 11.75 34.1 11.8 34.05 11.8 33.65 11.9 33.95 11.8 32.85 11.8 M33.95 11.8 L34.1 11.75 M33.95 11.8 L34.05 11.8 M42.25 9.8 L41.9 9.5 41.0 6.25 39.55 6.3 36.65 6.35 M0.35 7.85 L0.05 7.7 1.05 6.15 8.85 4.5 Q9.95 3.95 11.05 3.35 L12.2 3.2 18.4 2.35 20.0 2.15 19.7 1.5 21.15 1.15 M39.55 6.3 L39.15 4.1 37.7 3.6 M20.0 2.15 L20.9 3.95 27.85 4.5 28.8 3.15 M25.4 2.85 L25.1 3.1 M20.35 11.2 Q22.55 10.0 24.75 8.9 L24.4 8.7 M20.35 11.2 L17.1 13.45"/></g><g id="c10"><g><use transform="matrix(1.0,0.0,0.0,1.0,0.0,0.0)" xlink:href="#c9"/></g></g><g id="c11"><path fill="#000000" stroke="none" d="M-17.95 -12.1 L-14.6 -11.75 3.25 -6.85 35.6 6.9 1.75 11.8 -9.35 1.7 -26.15 3.15 -36.65 -1.85 -17.95 -12.1"/></g><g id="c12"><g><use transform="matrix(1.0,0.0,0.0,1.0,0.0,0.0)" xlink:href="#c11"/></g></g><g id="c13"><path fill="#b49e6d" stroke="none" d="M22.1 9.85 L23.05 9.35 Q24.45 8.75 25.95 8.5 L27.25 8.25 Q30.05 7.9 32.2 8.8 L32.9 9.15 36.95 11.1 34.85 10.65 32.45 10.7 31.3 10.9 30.05 10.35 27.0 8.95 30.05 10.35 31.3 10.9 28.6 11.7 27.9 12.0 22.1 9.85 M7.55 16.45 Q9.35 13.95 11.5 12.75 L11.8 12.6 12.1 12.5 Q14.15 11.75 16.1 12.5 L16.85 12.9 21.25 15.0 Q20.45 14.65 19.65 14.6 L18.95 14.6 17.85 14.8 17.25 15.0 17.0 15.05 16.75 15.2 15.6 15.9 15.3 16.2 Q14.1 17.1 13.05 18.5 8.45 17.85 7.55 16.45 M23.05 9.35 L28.6 11.7 23.05 9.35 M25.95 8.5 L27.0 8.95 25.95 8.5 M11.65 13.9 L14.35 15.25 11.65 13.9 M14.35 15.25 L14.95 15.6 14.35 15.25 M14.95 15.6 L15.6 15.9 14.95 15.6"/><path fill="#917f4c" stroke="none" d="M36.95 11.1 L37.15 11.15 38.05 11.55 31.6 13.95 31.3 10.9 32.45 10.7 34.85 10.65 36.95 11.1 M11.0 30.75 L8.75 31.75 8.4 31.9 8.35 31.9 8.0 31.85 8.1 30.3 8.4 28.75 9.0 26.7 9.35 25.75 9.95 24.0 10.2 23.45 10.45 22.95 10.65 22.4 11.0 21.8 11.3 21.25 11.55 20.8 12.2 19.75 13.05 18.5 Q14.1 17.1 15.3 16.2 L15.6 15.9 15.85 17.8 16.05 19.75 15.1 20.55 14.05 21.65 13.65 22.2 13.35 22.7 13.3 22.7 Q12.35 24.25 11.7 26.2 L11.6 26.6 11.25 28.1 11.1 28.8 11.15 28.9 11.1 29.1 11.0 30.75 M11.1 29.1 L10.45 22.95 11.1 29.1"/><path fill="#96854f" stroke="none" d="M38.05 11.55 Q40.95 13.1 42.6 17.2 41.6 16.05 39.4 15.4 35.2 14.05 29.3 16.55 L29.15 16.6 29.25 17.15 29.45 17.05 30.0 16.85 30.1 16.9 30.25 17.25 30.2 17.9 29.8 18.4 29.45 18.6 30.7 26.05 31.05 28.1 33.5 27.3 31.25 29.3 33.0 40.1 33.1 40.6 33.2 40.55 Q33.4 40.35 33.7 40.4 L33.75 40.45 33.85 40.5 34.0 40.7 33.9 41.35 33.55 41.9 33.35 42.0 33.55 43.3 32.3 44.0 32.0 42.2 30.75 33.85 29.75 34.0 29.3 34.15 29.0 32.25 28.3 33.8 Q27.75 35.15 27.65 36.55 L27.6 36.85 Q27.35 36.05 26.9 35.7 26.05 35.15 25.4 37.85 L25.1 35.6 24.6 34.75 24.45 34.65 24.4 36.55 24.2 38.4 23.95 39.95 21.45 41.1 20.7 41.4 19.95 41.75 18.0 42.65 17.95 42.0 18.0 42.65 18.15 44.2 18.55 48.45 18.7 50.1 17.25 50.75 17.15 50.7 16.95 50.6 Q15.0 49.65 13.85 47.5 L13.65 47.1 Q12.65 45.0 12.15 42.05 L12.0 40.85 11.6 42.15 11.5 42.8 10.95 36.85 11.5 42.8 11.45 44.6 Q10.6 42.6 9.85 43.9 9.5 44.55 9.3 45.6 9.0 43.45 7.6 42.45 7.0 42.0 6.2 41.8 L6.05 41.75 4.6 41.5 3.65 41.55 2.85 41.6 7.1 39.1 8.6 38.25 9.8 37.55 10.05 40.45 9.8 37.55 10.95 36.85 11.75 36.4 Q10.15 36.35 9.25 35.45 L8.85 35.0 Q8.1 33.85 8.05 32.1 L8.35 31.9 8.05 32.1 8.0 31.85 8.35 31.9 8.4 31.9 8.75 31.75 11.0 30.75 11.15 31.5 Q11.6 32.65 12.95 32.75 L14.7 32.75 15.1 32.65 15.15 33.05 Q15.2 33.75 15.5 34.0 15.75 34.3 16.15 34.15 16.55 33.95 16.75 33.35 L16.95 32.2 17.1 32.15 17.15 32.3 Q17.2 33.05 17.45 33.35 17.75 33.6 18.1 33.35 L18.75 32.7 18.95 31.55 19.05 31.55 19.25 32.35 19.4 32.5 19.65 32.65 20.0 32.6 20.05 32.55 20.6 31.85 20.9 30.3 20.85 29.95 20.85 29.85 20.9 29.85 22.6 28.4 Q24.9 26.05 24.05 23.1 23.5 21.25 22.65 20.1 L22.05 15.35 22.65 20.1 22.1 19.6 21.45 19.1 21.4 19.0 20.1 18.6 18.1 18.75 17.35 19.0 16.75 19.3 16.7 19.35 16.05 19.75 15.85 17.8 15.6 15.9 16.75 15.2 17.0 15.05 17.25 15.0 17.85 14.8 18.95 14.6 19.65 14.6 20.1 18.6 19.65 14.6 Q20.45 14.65 21.25 15.0 L21.4 15.05 22.05 15.35 23.0 15.95 23.35 16.3 24.45 17.45 24.75 17.75 25.2 18.55 26.1 20.05 Q27.35 22.6 26.9 25.25 L26.65 26.2 26.4 27.05 26.15 27.6 26.1 27.8 24.6 30.15 28.45 28.9 27.05 20.25 26.55 20.3 26.5 20.25 26.3 19.9 Q26.2 19.65 26.4 19.3 L26.8 18.85 26.85 18.8 25.9 13.1 26.9 12.5 Q27.35 12.2 27.9 12.0 L28.6 11.7 31.3 10.9 31.6 13.95 38.05 11.55 M23.15 30.7 Q23.9 30.45 24.6 30.15 23.9 30.45 23.15 30.7 L21.8 31.15 23.15 30.7 M22.5 38.6 L21.8 31.15 22.5 38.6 M14.75 46.6 L13.65 47.1 14.75 46.6 15.0 46.45 15.8 46.05 15.0 46.45 14.75 46.6 M30.7 14.3 L31.5 14.0 30.7 14.3 29.05 14.85 30.7 14.3 M31.5 14.0 L31.6 13.95 31.5 14.0 M28.85 25.35 L26.9 12.5 28.85 25.35 M18.1 17.6 L17.85 14.8 18.1 17.6 M19.15 16.7 L18.95 14.6 19.15 16.7 M17.95 42.0 L17.45 36.85 18.25 36.45 17.45 36.85 17.95 42.0 M20.45 38.5 L20.7 41.4 20.45 38.5 M9.8 34.45 L9.65 32.9 9.8 34.45 M12.95 39.1 L16.55 37.3 12.95 39.1 M16.55 37.3 L17.45 36.85 16.55 37.3 M31.15 33.5 L29.75 34.0 31.15 33.5 M20.8 34.3 L21.45 41.1 20.8 34.3"/><path fill="#80704d" stroke="none" d="M30.7 26.05 L33.5 27.3 31.05 28.1 30.7 26.05 M1.6 36.8 L2.9 36.05 4.55 36.2 3.0 37.1 4.55 36.2 Q8.2 36.65 8.6 38.25 L7.1 39.1 5.7 38.1 7.0 37.45 5.7 38.1 Q4.6 37.55 3.0 37.1 L1.6 36.8 M4.5 22.25 L5.05 20.85 5.3 20.3 6.1 18.75 6.3 18.35 7.0 17.25 6.8 18.6 6.3 18.35 6.8 18.6 Q6.55 21.6 10.6 20.35 L12.2 19.75 11.55 20.8 11.3 21.25 11.0 21.8 10.65 22.4 10.45 22.95 10.2 23.45 Q4.75 26.25 4.5 22.25 M20.7 10.65 Q21.35 10.15 22.1 9.85 L27.9 12.0 Q27.35 12.2 26.9 12.5 L25.9 13.1 20.7 10.65 M22.65 20.1 Q23.5 21.25 24.05 23.1 24.9 26.05 22.6 28.4 L20.9 29.85 20.85 29.75 20.85 29.85 20.85 29.95 20.9 30.3 20.6 31.85 20.05 32.55 20.0 32.6 19.65 32.65 19.4 32.5 19.25 32.35 19.05 31.55 19.05 31.5 19.0 31.35 18.95 31.55 18.75 32.7 18.1 33.35 Q17.75 33.6 17.45 33.35 17.2 33.05 17.15 32.3 L17.1 32.15 16.95 32.2 16.75 33.35 Q16.55 33.95 16.15 34.15 15.75 34.3 15.5 34.0 15.2 33.75 15.15 33.05 L15.1 32.65 14.7 32.75 12.95 32.75 Q11.6 32.65 11.15 31.5 L11.0 30.75 11.1 29.1 11.15 28.9 11.1 28.8 11.25 28.1 11.6 26.6 11.7 26.2 Q12.35 24.25 13.3 22.7 L13.35 22.7 13.65 22.2 14.05 21.65 15.1 20.55 16.05 19.75 16.7 19.35 16.75 19.3 17.35 19.0 18.1 18.75 20.1 18.6 21.4 19.0 21.45 19.1 22.1 19.6 22.65 20.1 M22.35 23.75 L22.4 23.15 Q22.35 22.1 21.8 21.6 21.25 21.1 20.5 21.45 L19.5 22.35 19.3 22.7 19.3 22.75 Q18.8 23.7 18.85 24.75 18.9 25.8 19.45 26.3 19.8 26.6 20.2 26.6 L20.7 26.45 Q21.5 26.15 21.95 25.1 L22.2 24.55 22.35 23.75 M11.55 20.8 L10.6 20.35 11.55 20.8 M16.95 25.95 L16.95 25.9 Q16.9 24.85 16.35 24.3 15.9 23.95 15.35 24.05 L15.15 24.15 15.05 24.15 14.35 24.7 13.95 25.3 13.85 25.45 Q13.4 26.4 13.45 27.45 13.45 28.5 14.05 29.0 14.5 29.55 15.25 29.2 L15.55 29.05 16.5 27.85 16.8 26.9 16.85 26.35 16.95 25.95 M10.65 22.4 L5.3 20.3 10.65 22.4 M5.05 20.85 L10.45 22.95 5.05 20.85 M18.3 28.5 L18.05 28.15 17.7 28.2 17.4 28.45 17.15 29.05 17.1 29.75 17.7 29.8 18.4 29.35 18.5 28.85 18.3 28.5 M19.0 31.1 L19.0 31.25 19.05 31.2 19.0 31.1 M28.65 41.45 L30.65 42.4 30.45 42.55 30.05 43.05 30.0 43.65 29.95 43.75 26.65 42.2 Q26.5 41.25 28.65 41.45"/><path fill="#000000" stroke="none" d="M29.3 16.55 L30.0 16.85 29.45 17.05 29.25 17.15 29.15 16.6 29.3 16.55 M33.0 40.1 L33.7 40.4 Q33.4 40.35 33.2 40.55 L33.1 40.6 33.0 40.1 M20.9 29.85 L20.85 29.85 20.85 29.75 20.9 29.85 M19.0 31.1 L19.05 31.2 19.0 31.25 19.0 31.1 M18.95 31.55 L19.0 31.35 19.05 31.5 18.95 31.55"/><path fill="#4a422c" stroke="none" d="M31.05 44.7 L25.8 42.2 25.75 41.75 26.65 42.2 29.95 43.75 30.05 43.8 30.3 44.0 30.8 43.9 30.9 43.9 31.05 44.7 M25.45 39.9 L24.6 34.75 25.1 35.6 25.4 37.85 Q26.05 35.15 26.9 35.7 27.35 36.05 27.6 36.85 L27.65 36.55 Q27.75 35.15 28.3 33.8 L29.3 34.15 28.3 33.8 29.0 32.25 29.3 34.15 30.65 42.4 28.65 41.45 25.45 39.9 M16.95 50.6 L12.05 48.25 Q10.15 47.4 8.9 45.4 L4.1 43.1 3.65 41.55 4.6 41.5 6.05 41.75 6.2 41.8 Q7.0 42.0 7.6 42.45 9.0 43.45 9.3 45.6 9.5 44.55 9.85 43.9 10.6 42.6 11.45 44.6 L11.5 42.8 11.6 42.15 12.0 40.85 12.15 42.05 Q12.65 45.0 13.65 47.1 L11.35 46.0 13.65 47.1 13.85 47.5 Q15.0 49.65 16.95 50.6 M6.25 34.1 L4.05 32.95 4.0 32.95 3.65 32.5 Q2.9 31.4 2.85 29.8 2.75 28.35 3.15 26.45 4.3 30.65 8.4 28.75 L8.1 30.3 8.0 31.85 8.05 32.1 Q8.1 33.85 8.85 35.0 L9.25 35.45 6.25 34.1 M21.4 15.05 L20.7 10.65 25.9 13.1 26.85 18.8 26.8 18.85 24.75 17.75 24.45 17.45 23.35 16.3 23.0 15.95 22.05 15.35 21.4 15.05 M26.5 20.25 L26.55 20.3 27.05 20.25 28.45 28.9 26.1 27.8 26.15 27.6 26.4 27.05 26.65 26.2 26.9 25.25 Q27.35 22.6 26.1 20.05 L26.5 20.25 M19.5 22.35 Q21.05 22.2 22.35 23.75 L22.2 24.55 21.95 25.1 Q21.5 26.15 20.7 26.45 L20.2 26.6 Q19.8 26.6 19.45 26.3 18.9 25.8 18.85 24.75 18.8 23.7 19.3 22.75 L19.3 22.7 19.5 22.35 M13.95 25.3 Q15.5 25.05 16.8 26.9 L16.5 27.85 15.55 29.05 15.25 29.2 Q14.5 29.55 14.05 29.0 13.45 28.5 13.45 27.45 13.4 26.4 13.85 25.45 L13.95 25.3 M5.8 31.1 L6.9 31.6 8.05 32.1 6.9 31.6 5.8 31.1 2.85 29.8 5.8 31.1 M6.9 31.6 L8.0 31.85 6.9 31.6 M27.9 38.05 L27.9 38.1 28.0 38.05 27.9 38.05"/><path fill="#544a32" stroke="none" d="M26.8 18.85 L26.4 19.3 Q26.2 19.65 26.3 19.9 L26.5 20.25 26.1 20.05 25.2 18.55 24.75 17.75 26.8 18.85"/><path fill="#ab9468" stroke="none" d="M0.05 37.7 L1.6 36.8 3.0 37.1 Q4.6 37.55 5.7 38.1 L7.1 39.1 4.8 38.65 5.7 38.1 4.8 38.65 1.5 38.0 0.05 37.7 M7.0 17.25 L7.55 16.45 Q8.45 17.85 13.05 18.5 L12.2 19.75 10.6 20.35 Q6.55 21.6 6.8 18.6 L7.0 17.25 M10.6 20.35 L6.8 18.6 10.6 20.35 M1.5 38.0 L3.0 37.1 1.5 38.0"/><path fill="#352f20" stroke="none" d="M19.5 22.35 L20.5 21.45 Q21.25 21.1 21.8 21.6 22.35 22.1 22.4 23.15 L22.35 23.75 Q21.05 22.2 19.5 22.35 M14.35 24.7 L15.05 24.15 15.15 24.15 15.35 24.05 Q15.9 23.95 16.35 24.3 16.9 24.85 16.95 25.9 L16.95 25.95 16.85 26.35 16.8 26.9 Q15.5 25.05 13.95 25.3 L14.35 24.7 M18.3 28.5 L18.5 28.85 18.4 29.35 17.7 29.8 17.1 29.75 17.15 29.05 17.4 28.45 17.7 28.2 18.05 28.15 18.3 28.5"/><path fill="#65583d" stroke="none" d="M25.75 41.75 L24.85 41.35 24.8 41.15 24.8 40.6 25.2 40.05 25.45 39.9 28.65 41.45 Q26.5 41.25 26.65 42.2 L25.75 41.75 M2.9 36.05 L6.25 34.1 9.25 35.45 Q10.15 36.35 11.75 36.4 L10.95 36.85 9.8 37.55 8.6 38.25 Q8.2 36.65 4.55 36.2 L2.9 36.05 M3.15 26.45 Q3.5 25.0 4.15 23.25 L4.5 22.25 Q4.75 26.25 10.2 23.45 L9.95 24.0 9.35 25.75 9.0 26.7 8.4 28.75 Q4.3 30.65 3.15 26.45 M28.45 28.9 L24.6 30.15 26.1 27.8 28.45 28.9"/><path fill="#8f7d4b" stroke="none" d="M32.3 44.0 L31.05 44.7 30.9 43.9 30.9 43.85 30.8 43.9 30.3 44.0 30.05 43.8 30.0 43.65 30.05 43.05 30.45 42.55 30.65 42.4 29.3 34.15 29.75 34.0 30.75 33.85 32.0 42.2 32.3 44.0 M23.95 39.95 L23.85 40.65 Q23.25 43.75 21.9 46.45 L20.2 49.35 20.1 49.45 18.7 50.1 18.55 48.45 18.15 44.2 18.0 42.65 19.95 41.75 20.7 41.4 21.45 41.1 21.6 43.05 21.45 41.1 23.95 39.95 M21.05 44.85 L20.7 41.4 21.05 44.85"/><path fill="#ffffff" stroke="none" d="M19.05 31.55 L18.95 31.55 19.05 31.5 19.05 31.55"/><path fill="#c2b587" stroke="none" d="M2.85 41.6 L0.95 40.7 -0.25 40.15 Q-0.75 39.9 -1.3 39.6 L-2.35 39.1 0.05 37.7 1.5 38.0 4.8 38.65 7.1 39.1 2.85 41.6 M4.05 32.95 Q4.85 33.65 4.25 33.2 L4.0 32.95 4.05 32.95 M0.95 40.7 L4.8 38.65 0.95 40.7 M-1.3 39.6 L1.5 38.0 -1.3 39.6 M1.9 39.15 L-0.25 40.15 1.9 39.15"/><path fill="none" stroke="#000000" stroke-width="0.5" stroke-opacity="0.301960784314" d="M22.1 9.85 L23.05 9.35 Q24.45 8.75 25.95 8.5 L27.25 8.25 Q30.05 7.9 32.2 8.8 L32.9 9.15 36.95 11.1 37.15 11.15 38.05 11.55 Q40.95 13.1 42.6 17.2 41.6 16.05 39.4 15.4 35.2 14.05 29.3 16.55 L29.15 16.6 29.25 17.15 29.45 17.05 30.0 16.85 30.1 16.9 30.25 17.25 30.2 17.9 29.8 18.4 29.45 18.6 30.7 26.05 31.05 28.1 33.5 27.3 31.25 29.3 33.0 40.1 33.1 40.6 33.2 40.55 Q33.4 40.35 33.7 40.4 L33.75 40.45 33.85 40.5 34.0 40.7 33.9 41.35 33.55 41.9 33.35 42.0 33.55 43.3 32.3 44.0 31.05 44.7 M24.85 41.35 L24.8 41.15 24.8 40.6 25.2 40.05 25.45 39.9 M24.6 34.75 L24.45 34.65 24.4 36.55 24.2 38.4 23.95 39.95 23.85 40.65 Q23.25 43.75 21.9 46.45 L20.2 49.35 20.1 49.45 18.7 50.1 17.25 50.75 17.15 50.7 16.95 50.6 12.05 48.25 Q10.15 47.4 8.9 45.4 L4.1 43.1 3.65 41.55 2.85 41.6 0.95 40.7 -0.25 40.15 Q-0.75 39.9 -1.3 39.6 L-2.35 39.1 0.05 37.7 1.6 36.8 2.9 36.05 6.25 34.1 4.05 32.95 M4.0 32.95 L3.65 32.5 Q2.9 31.4 2.85 29.8 2.75 28.35 3.15 26.45 3.5 25.0 4.15 23.25 L4.5 22.25 5.05 20.85 5.3 20.3 6.1 18.75 6.3 18.35 7.0 17.25 7.55 16.45 Q9.35 13.95 11.5 12.75 L11.8 12.6 12.1 12.5 Q14.15 11.75 16.1 12.5 L16.85 12.9 21.25 15.0 21.4 15.05 20.7 10.65 Q21.35 10.15 22.1 9.85 M27.9 12.0 L28.6 11.7 M36.95 11.1 L34.85 10.65 32.45 10.7 31.3 10.9 28.6 11.7 M26.9 12.5 L25.9 13.1 26.85 18.8 26.8 18.85 26.4 19.3 Q26.2 19.65 26.3 19.9 L26.5 20.25 26.55 20.3 27.05 20.25 28.45 28.9 24.6 30.15 M26.1 20.05 L25.2 18.55 24.75 17.75 24.45 17.45 23.35 16.3 23.0 15.95 22.05 15.35 21.4 15.05 M22.65 20.1 Q23.5 21.25 24.05 23.1 24.9 26.05 22.6 28.4 L20.9 29.85 20.85 29.85 20.85 29.95 20.9 30.3 20.6 31.85 20.05 32.55 M8.05 32.1 Q8.1 33.85 8.85 35.0 L9.25 35.45 Q10.15 36.35 11.75 36.4 L10.95 36.85 9.8 37.55 8.6 38.25 7.1 39.1 2.85 41.6 M11.5 42.8 L11.6 42.15 12.0 40.85 12.15 42.05 Q12.65 45.0 13.65 47.1 L13.85 47.5 Q15.0 49.65 16.95 50.6 M22.2 24.55 L21.95 25.1 Q21.5 26.15 20.7 26.45 L20.2 26.6 Q19.8 26.6 19.45 26.3 18.9 25.8 18.85 24.75 18.8 23.7 19.3 22.75 L19.3 22.7 M22.65 20.1 L22.1 19.6 21.45 19.1 21.4 19.0 20.1 18.6 18.1 18.75 17.35 19.0 16.75 19.3 M27.9 12.0 Q27.35 12.2 26.9 12.5 M12.2 19.75 L13.05 18.5 M11.55 20.8 L12.2 19.75 M18.95 14.6 L17.85 14.8 17.25 15.0 17.0 15.05 16.75 15.2 15.6 15.9 15.3 16.2 Q14.1 17.1 13.05 18.5 M19.65 14.6 L18.95 14.6 M11.55 20.8 L11.3 21.25 11.0 21.8 10.65 22.4 10.45 22.95 10.2 23.45 9.95 24.0 9.35 25.75 9.0 26.7 8.4 28.75 8.1 30.3 8.0 31.85 8.05 32.1 M14.35 24.7 L13.95 25.3 13.85 25.45 Q13.4 26.4 13.45 27.45 13.45 28.5 14.05 29.0 14.5 29.55 15.25 29.2 L15.55 29.05 16.5 27.85 16.8 26.9 16.85 26.35 16.95 25.95 M19.65 14.6 Q20.45 14.65 21.25 15.0 M18.3 28.5 L18.05 28.15 17.7 28.2 17.4 28.45 17.15 29.05 17.1 29.75 17.7 29.8 18.4 29.35 18.5 28.85 18.3 28.5 M19.0 31.1 L19.0 31.25 19.05 31.2 19.0 31.1 M6.25 34.1 L9.25 35.45 M11.5 42.8 L11.45 44.6 Q10.6 42.6 9.85 43.9 9.5 44.55 9.3 45.6 9.0 43.45 7.6 42.45 7.0 42.0 6.2 41.8 L6.05 41.75 4.6 41.5 3.65 41.55 M26.1 27.8 L26.15 27.6 26.4 27.05 26.65 26.2 26.9 25.25 Q27.35 22.6 26.1 20.05 M26.1 27.8 L24.6 30.15 M20.85 29.85 L20.85 29.75 20.9 29.85 M28.3 33.8 Q27.75 35.15 27.65 36.55 L27.6 36.85 Q27.35 36.05 26.9 35.7 26.05 35.15 25.4 37.85 L25.1 35.6 24.6 34.75 M29.3 34.15 L29.0 32.25 28.3 33.8 M30.65 42.4 L29.3 34.15 M30.0 43.65 L30.05 43.05 30.45 42.55 30.65 42.4 M30.05 43.8 L30.0 43.65 M30.8 43.9 L30.3 44.0 30.05 43.8 M30.9 43.9 L30.9 43.85 30.8 43.9 M30.9 43.9 L31.05 44.7"/><path fill="none" stroke="#000000" stroke-width="0.8" stroke-opacity="0.250980392157" d="M27.0 8.95 L25.95 8.5 M8.75 31.75 L8.4 31.9 M8.35 31.9 L8.05 32.1 M14.75 46.6 L15.0 46.45 15.8 46.05 M31.5 14.0 L30.7 14.3 M31.3 10.9 L30.05 10.35 M15.6 15.9 L15.85 17.8 M14.95 15.6 L14.35 15.25 M8.0 31.85 L8.35 31.9 M17.95 42.0 L18.0 42.65 19.95 41.75 M5.8 31.1 L2.85 29.8 M8.0 31.85 L6.9 31.6 M18.15 44.2 L18.0 42.65 M17.45 36.85 L16.55 37.3 M32.3 44.0 L32.0 42.2 M30.75 33.85 L29.75 34.0 M18.7 50.1 L18.55 48.45"/><path fill="none" stroke="#000000" stroke-width="0.5" stroke-opacity="0.101960784314" d="M31.3 10.9 L31.6 13.95 38.05 11.55 M30.05 10.35 L27.0 8.95 M23.15 30.7 L21.8 31.15 M11.0 30.75 L8.75 31.75 M8.4 31.9 L8.35 31.9 M13.65 47.1 L14.75 46.6 M30.7 14.3 L29.05 14.85 M31.6 13.95 L31.5 14.0 M15.85 17.8 L16.05 19.75 M14.35 15.25 L11.65 13.9 M15.6 15.9 L14.95 15.6 M18.25 36.45 L17.45 36.85 17.95 42.0 M19.95 41.75 L20.7 41.4 M8.05 32.1 L6.9 31.6 5.8 31.1 M9.65 32.9 L9.8 34.45 M11.35 46.0 L13.65 47.1 M18.55 48.45 L18.15 44.2 M16.55 37.3 L12.95 39.1 M29.3 34.15 L29.75 34.0 31.15 33.5 M28.3 33.8 L29.3 34.15 M21.45 41.1 L20.7 41.4 M23.95 39.95 L21.45 41.1 M32.0 42.2 L30.75 33.85"/><path fill="none" stroke="#000000" stroke-width="0.5" stroke-opacity="0.0509803921569" d="M28.6 11.7 L23.05 9.35 M21.8 31.15 L22.5 38.6 M22.05 15.35 L22.65 20.1 M10.95 36.85 L11.5 42.8 M26.9 12.5 L28.85 25.35 M6.8 18.6 L10.6 20.35 11.55 20.8 M6.3 18.35 L6.8 18.6 M17.85 14.8 L18.1 17.6 M18.95 14.6 L19.15 16.7 M10.45 22.95 L11.1 29.1 M20.1 18.6 L19.65 14.6 M10.45 22.95 L5.05 20.85 M5.3 20.3 L10.65 22.4 M20.7 41.4 L20.45 38.5 M3.0 37.1 L4.55 36.2 M5.7 38.1 L4.8 38.65 0.95 40.7 M7.0 37.45 L5.7 38.1 M3.0 37.1 L1.5 38.0 -1.3 39.6 M9.8 37.55 L10.05 40.45 M21.6 43.05 L21.45 41.1 20.8 34.3 M20.7 41.4 L21.05 44.85 M-0.25 40.15 L1.9 39.15"/><path fill="none" stroke="#000000" stroke-width="0.5" stroke-opacity="0.450980392157" d="M20.05 32.55 L20.0 32.6 19.65 32.65 19.4 32.5 19.25 32.35 19.05 31.55 18.95 31.55 18.75 32.7 18.1 33.35 Q17.75 33.6 17.45 33.35 17.2 33.05 17.15 32.3 L17.1 32.15 16.95 32.2 16.75 33.35 Q16.55 33.95 16.15 34.15 15.75 34.3 15.5 34.0 15.2 33.75 15.15 33.05 L15.1 32.65 14.7 32.75 12.95 32.75 Q11.6 32.65 11.15 31.5 L11.0 30.75 M22.35 23.75 L22.4 23.15 Q22.35 22.1 21.8 21.6 21.25 21.1 20.5 21.45 L19.5 22.35 M22.35 23.75 L22.2 24.55 M19.3 22.7 L19.5 22.35 M16.75 19.3 L16.7 19.35 16.05 19.75 15.1 20.55 14.05 21.65 13.65 22.2 13.35 22.7 13.3 22.7 Q12.35 24.25 11.7 26.2 L11.6 26.6 11.25 28.1 11.1 28.8 11.15 28.9 11.1 29.1 11.0 30.75 M16.95 25.95 L16.95 25.9 Q16.9 24.85 16.35 24.3 15.9 23.95 15.35 24.05 L15.15 24.15 15.05 24.15 14.35 24.7 M18.95 31.55 L19.0 31.35 19.05 31.5 19.05 31.55"/><path fill="none" stroke="#000000" stroke-width="0.5" stroke-opacity="0.250980392157" d="M24.6 30.15 Q23.9 30.45 23.15 30.7"/></g><g id="c14"><path fill="#000000" fill-opacity="0.152941176471" d="M-2.9 -31.65 L-2.7 -29.75 -6.65 -31.3 -2.9 -31.65 M5.5 30.9 L5.65 28.55 9.1 31.1 7.0 30.35 5.5 30.9"/><path fill="none" stroke="#000000" stroke-width="0.5" stroke-opacity="0.101960784314" d="M-1.25 -36.3 L-1.85 -38.8 -9.6 -46.45 M-28.25 -15.1 L-26.25 -9.9 -22.9 -3.6 -21.25 3.8 -15.25 13.2 M-26.25 -9.9 L-28.2 -11.95 M-17.7 -27.2 L-17.35 -26.45 -10.2 -12.15 -11.4 -15.25 M-17.35 -26.45 L-23.1 -25.5 -26.75 -24.25 -28.1 -24.45 -23.1 -25.5 M-20.5 7.2 L-21.25 3.8 M5.65 28.55 L-0.15 22.25 M2.35 32.1 L5.5 30.9 5.65 28.55 9.1 31.1 18.55 34.4 28.75 39.1 M5.5 30.9 L7.0 30.35 9.1 31.1 M-4.35 16.95 L-6.95 13.4 M-10.2 -12.15 L-8.55 -8.7 -6.2 -4.9 M-3.4 6.05 L-10.2 -12.15"/></g><g id="c15"><path fill="#7b8561" fill-opacity="0.0901960784314" d="M0.7 19.8 L0.0 20.35 0.4 14.9 3.05 13.05 Q4.75 12.05 4.95 12.3 L4.7 16.3 0.7 19.8 M20.7 0.0 L24.2 2.3 22.55 5.4 22.45 5.8 22.5 8.3 22.45 11.25 21.3 12.4 Q23.05 15.4 25.7 22.6 24.6 22.95 24.75 24.55 25.2 28.7 24.85 32.0 24.15 34.6 24.65 35.95 L15.25 43.5 Q14.05 39.15 12.25 38.6 L10.7 38.35 Q10.0 38.15 9.8 37.0 9.55 35.5 12.15 30.1 14.75 24.6 14.1 21.15 13.85 19.65 13.05 18.2 13.85 17.65 14.95 17.0 L16.3 16.0 15.85 11.0 13.7 11.05 Q13.55 10.65 13.85 7.85 L14.0 7.15 Q14.5 4.65 15.3 3.35 15.7 2.85 16.4 2.95 17.55 3.1 19.95 1.6 L20.7 0.0 M36.0 2.75 L34.55 7.5 Q33.6 8.6 30.5 13.2 L29.85 12.3 29.6 11.9 Q29.3 11.25 29.8 10.0 L31.15 7.4 28.55 7.5 30.85 1.7 30.95 1.7 Q31.85 2.8 32.75 3.2 34.15 3.9 36.0 2.75 M42.0 18.05 Q42.8 15.3 45.05 9.6 L48.5 14.75 Q44.65 16.8 44.25 22.85 44.05 25.95 45.1 28.0 45.75 29.2 46.75 29.6 L34.1 41.9 Q33.4 41.55 32.85 40.6 31.15 38.05 33.55 32.3 29.7 34.7 29.35 34.45 33.1 23.7 33.4 23.2 35.7 22.85 38.55 20.75 L38.75 20.5 42.0 18.05 M42.75 24.15 Q42.55 23.0 41.5 22.65 L40.05 22.5 Q37.15 23.05 34.6 27.35 32.15 31.65 36.2 30.95 37.25 30.75 39.85 28.8 43.15 26.35 42.75 24.15 M28.6 32.7 L28.7 31.5 28.95 32.45 28.6 32.7 M28.25 36.45 Q29.5 35.55 29.6 35.85 L29.45 38.85 26.4 41.3 25.9 41.75 Q25.8 41.55 26.25 37.7 L28.25 36.45"/><path fill="none" stroke="#000000" stroke-width="0.5" stroke-opacity="0.0235294117647" d="M42.75 24.15 Q43.15 26.35 39.85 28.8 37.25 30.75 36.2 30.95 32.15 31.65 34.6 27.35 37.15 23.05 40.05 22.5 L41.5 22.65 Q42.55 23.0 42.75 24.15 M42.0 18.05 L38.75 20.5 38.55 20.75 Q35.7 22.85 33.4 23.2 33.1 23.7 29.35 34.45 29.7 34.7 33.55 32.3 31.15 38.05 32.85 40.6 33.4 41.55 34.1 41.9 L46.75 29.6 Q45.75 29.2 45.1 28.0 44.05 25.95 44.25 22.85 44.65 16.8 48.5 14.75 L45.05 9.6 Q42.8 15.3 42.0 18.05 M36.0 2.75 Q34.15 3.9 32.75 3.2 31.85 2.8 30.95 1.7 L30.85 1.7 28.55 7.5 31.15 7.4 29.8 10.0 Q29.3 11.25 29.6 11.9 L29.85 12.3 30.5 13.2 Q33.6 8.6 34.55 7.5 L36.0 2.75 M20.7 0.0 L19.95 1.6 Q17.55 3.1 16.4 2.95 15.7 2.85 15.3 3.35 14.5 4.65 14.0 7.15 L13.85 7.85 Q13.55 10.65 13.7 11.05 L15.85 11.0 16.3 16.0 14.95 17.0 Q13.85 17.65 13.05 18.2 13.85 19.65 14.1 21.15 14.75 24.6 12.15 30.1 9.55 35.5 9.8 37.0 10.0 38.15 10.7 38.35 L12.25 38.6 Q14.05 39.15 15.25 43.5 L24.65 35.95 Q24.15 34.6 24.85 32.0 25.2 28.7 24.75 24.55 24.6 22.95 25.7 22.6 23.05 15.4 21.3 12.4 L22.45 11.25 22.5 8.3 22.45 5.8 22.55 5.4 24.2 2.3 20.7 0.0 M0.7 19.8 L4.7 16.3 4.95 12.3 Q4.75 12.05 3.05 13.05 L0.4 14.9 0.0 20.35 0.7 19.8 M28.6 32.7 L28.95 32.45 28.7 31.5 M28.25 36.45 L26.25 37.7 Q25.8 41.55 25.9 41.75 L26.4 41.3 29.45 38.85 29.6 35.85 Q29.5 35.55 28.25 36.45"/></g><g id="c16"><g><use transform="matrix(1.0,0.0,0.0,1.0,0.0,0.0)" xlink:href="#c15"/></g></g><g id="c17"><g><use transform="matrix(1.0,0.0,0.0,1.0,0.0,0.0)" xlink:href="#c14"/></g><g><use transform="matrix(0.240447998047,-1.35371398926,0.856155395508,0.558395385742,-28.6,21.6)" xlink:href="#c16"/></g></g><g id="c18"><path fill="#305807" fill-opacity="0.513725490196" d="M18.05 50.8 Q21.5 49.3 24.2 49.85 21.2 47.9 20.2 44.95 19.45 49.4 18.05 50.8"/><path fill="#305807" fill-opacity="0.513725490196" d="M14.75 48.15 Q12.65 47.2 11.1 47.35 12.65 46.4 12.9 44.7 13.8 47.35 14.75 48.15"/><path fill="#305807" fill-opacity="0.513725490196" d="M15.15 49.3 Q13.05 48.35 11.5 48.5 13.05 47.55 13.3 45.85 14.2 48.5 15.15 49.3"/><path fill="#305807" fill-opacity="0.513725490196" d="M12.1 36.85 Q7.95 35.2 5.6 35.5 7.5 33.85 6.85 31.05 10.0 35.4 12.1 36.85"/><path fill="#305807" fill-opacity="0.513725490196" d="M30.15 29.05 L26.1 29.15 Q27.75 27.6 28.05 25.65 29.05 28.35 30.15 29.05"/><path fill="#305807" fill-opacity="0.513725490196" d="M32.0 42.2 L27.95 42.3 Q29.6 40.75 29.9 38.8 30.9 41.5 32.0 42.2"/><path fill="#696316" stroke="none" d="M24.9 34.35 L25.4 34.65 25.75 37.1 25.7 37.45 24.65 38.15 24.6 38.15 24.6 38.4 24.7 38.4 24.45 39.55 24.2 40.1 21.6 40.55 21.55 40.6 21.15 40.3 20.65 40.15 20.4 40.15 20.25 40.25 20.2 40.25 19.9 40.4 19.35 40.7 19.35 40.85 19.3 40.9 19.1 40.9 19.0 41.0 18.9 41.0 Q18.9 40.95 18.8 41.05 L18.75 41.0 18.65 41.05 18.65 41.1 18.5 41.15 18.4 41.3 18.25 41.9 17.1 42.35 16.65 42.25 16.45 41.25 17.55 40.35 Q17.1 39.8 17.5 39.5 L18.55 38.65 19.4 37.95 19.4 37.75 19.35 37.05 19.65 36.95 19.65 36.2 20.5 35.95 20.85 35.9 20.7 35.8 24.9 34.35 M22.45 34.45 L21.95 34.7 21.9 34.65 22.45 34.45 M19.75 35.5 L19.7 35.55 19.5 35.55 19.75 35.5 M20.15 39.2 L20.2 39.2 20.15 39.2 19.45 39.55 20.15 39.2"/><path fill="#625915" stroke="none" d="M19.65 36.2 L19.65 36.95 19.35 37.05 19.4 37.75 19.4 37.95 18.55 38.65 17.5 39.5 Q17.1 39.8 17.55 40.35 L16.45 41.25 15.85 39.75 15.55 37.5 15.85 37.0 17.65 36.6 17.6 36.7 Q17.5 36.9 17.55 37.15 L17.9 37.45 18.35 37.55 18.7 37.3 18.75 36.85 18.4 36.55 18.3 36.5 19.65 36.2 M18.25 41.9 L18.4 41.3 18.5 41.15 18.65 41.1 18.65 41.05 18.75 41.0 18.8 41.05 Q18.9 40.95 18.9 41.0 L19.0 41.0 19.1 40.9 19.3 40.9 19.35 40.85 19.35 40.7 19.9 40.4 20.2 40.25 20.25 40.25 20.4 40.15 20.65 40.15 21.15 40.3 21.55 40.6 20.6 40.95 18.25 41.9 M24.2 40.1 L24.45 39.55 24.7 38.4 24.65 38.15 25.7 37.45 25.75 37.1 26.35 39.05 25.9 39.75 24.2 40.1 M18.15 38.85 L18.2 38.85 18.2 38.75 18.15 38.8 18.15 38.85"/><path fill="#978e24" stroke="none" d="M24.9 34.35 L20.7 35.8 20.85 35.9 20.5 35.95 19.65 36.2 18.3 36.5 17.95 36.45 17.65 36.6 15.85 37.0 15.55 37.5 14.15 37.15 14.4 36.75 14.75 36.65 14.75 36.7 17.0 36.15 17.05 36.15 19.5 35.55 19.7 35.55 19.75 35.5 21.9 34.65 21.95 34.7 22.45 34.45 22.8 34.3 23.6 34.05 23.7 34.05 24.9 34.35"/><path fill="#000000" fill-opacity="0.250980392157" d="M16.65 42.25 L17.1 42.35 18.25 41.9 20.6 40.95 20.5 41.3 20.15 41.4 19.4 41.95 19.3 42.1 19.2 42.05 17.95 43.5 17.85 43.6 17.5 43.35 17.45 43.4 15.9 42.55 15.8 42.15 14.35 42.9 13.45 35.95 18.5 34.8 22.35 33.3 22.8 34.3 22.45 34.45 21.9 34.65 19.75 35.5 19.5 35.55 17.05 36.15 17.0 36.15 14.75 36.7 14.75 36.65 14.4 36.75 14.15 37.15 Q14.9 39.5 15.2 41.8 L15.45 42.1 15.8 42.15 16.65 42.25"/><path fill="#b5ada1" stroke="none" d="M18.3 36.6 L18.35 36.6 18.45 36.75 18.5 36.95 18.45 37.0 18.35 37.05 18.15 37.0 18.05 36.85 18.0 36.65 18.15 36.55 18.3 36.6"/><path fill="#574e3f" stroke="none" d="M17.65 36.6 L17.95 36.45 18.3 36.5 18.4 36.55 18.75 36.85 18.7 37.3 18.35 37.55 17.9 37.45 17.55 37.15 Q17.5 36.9 17.6 36.7 L17.65 36.6 M18.3 36.6 L18.15 36.55 18.0 36.65 18.05 36.85 18.15 37.0 18.35 37.05 18.45 37.0 18.5 36.95 18.45 36.75 18.35 36.6 18.3 36.6"/><path fill="#665d4b" stroke="none" d="M20.15 39.2 L19.45 39.55 20.15 39.2"/><path fill="#5e503f" stroke="none" d="M24.7 38.4 L24.6 38.4 24.6 38.15 24.65 38.15 24.7 38.4 M18.2 38.85 L18.15 38.85 18.2 38.85"/><path fill="#f0e8df" stroke="none" d="M17.05 36.15 L17.0 36.15 17.05 36.15"/><path fill="#80704c" stroke="none" d="M18.2 38.85 L18.15 38.85 18.15 38.8 18.2 38.75 18.2 38.85"/><path fill="#42390e" stroke="none" d="M16.45 41.25 L16.65 42.25 15.8 42.15 15.45 42.1 15.2 41.8 Q14.9 39.5 14.15 37.15 L15.55 37.5 15.85 39.75 16.45 41.25"/><path fill="none" stroke="#000000" stroke-width="0.5" stroke-opacity="0.352941176471" d="M25.75 37.1 L25.4 34.65 24.9 34.35 23.7 34.05 23.6 34.05 22.8 34.3 22.45 34.45 21.9 34.65 19.75 35.5 M16.65 42.25 L17.1 42.35 18.25 41.9 20.6 40.95 21.55 40.6 21.6 40.55 24.2 40.1 M25.75 37.1 L26.35 39.05 25.9 39.75 24.2 40.1 M14.75 36.65 L14.4 36.75 14.15 37.15 M15.8 42.15 L15.45 42.1 15.2 41.8 Q14.9 39.5 14.15 37.15 M17.0 36.15 L17.05 36.15 M15.8 42.15 L16.65 42.25"/><path fill="#3f340e" stroke="none" d="M17.55 37.65 L17.45 37.75 16.9 37.95 16.9 40.35 16.95 40.3 17.05 40.5 16.95 40.55 16.95 41.25 16.95 41.3 17.5 41.25 17.55 40.9 17.55 39.7 18.6 40.15 18.6 40.2 19.25 40.2 19.3 40.0 19.25 39.9 19.0 39.7 18.95 39.75 18.1 39.15 18.25 39.05 18.2 38.95 18.7 38.65 18.8 38.4 18.95 38.0 18.9 37.9 18.6 37.7 18.0 37.7 17.55 37.7 17.55 37.65 M17.35 38.35 L17.45 38.3 18.3 38.15 18.45 38.2 18.45 38.3 17.65 38.9 17.45 38.85 17.35 38.55 17.35 38.35 M20.1 36.8 L20.7 38.95 20.75 39.05 20.75 39.1 20.75 39.15 20.7 39.35 20.7 39.4 20.75 39.4 21.4 39.35 21.45 39.3 21.45 38.7 21.4 38.6 21.35 38.65 21.35 38.6 21.0 37.25 21.0 36.75 21.0 36.65 20.2 36.7 20.1 36.8 M22.5 36.35 L22.65 36.6 22.6 37.25 22.7 38.05 22.7 38.1 22.75 38.95 22.75 39.0 22.65 39.35 22.75 39.5 22.85 39.5 23.0 39.35 23.1 39.4 23.15 39.35 23.3 39.35 23.3 39.25 23.45 39.25 23.5 39.3 23.6 39.2 23.65 39.15 23.15 37.5 23.65 37.2 24.6 36.35 24.7 36.25 24.6 36.1 24.55 35.9 24.2 35.7 23.75 35.65 22.6 36.25 22.5 36.35 M23.85 36.6 L23.05 37.2 23.0 37.2 23.0 37.15 23.05 37.15 22.85 36.6 Q23.2 36.25 23.6 36.3 L23.75 36.3 23.95 36.35 23.85 36.6"/><path fill="none" stroke="#130f12" stroke-width="0.5" stroke-opacity="0.172549019608" d="M25.4 35.65 Q24.8 35.65 23.65 36.2 L23.35 36.3 22.95 36.55 22.35 36.85 21.95 37.1 M20.75 39.0 L20.15 39.15 20.1 39.2 20.05 39.2 19.35 39.5 Q17.95 40.0 17.1 40.55 L17.0 40.65 16.8 40.65 16.1 40.6 M26.05 38.25 L24.6 38.35 24.5 38.35 23.9 38.45 23.6 38.5 23.3 38.55 22.6 38.75 M18.6 38.2 L16.0 39.05 15.7 38.9"/></g><g id="c19"><path fill="none" stroke="#ffffff" stroke-width="1.0" stroke-opacity="0.4" d="M3.35 18.55 L3.35 19.15 Q3.2 21.4 3.6 22.9 L3.75 18.55 M5.25 27.7 L5.2 27.4 M5.45 42.9 L7.1 59.65 M7.35 62.35 L7.45 63.0 M8.25 70.65 L8.25 70.7 12.5 80.4 12.7 80.15 12.5 79.75 11.25 70.65 M10.15 63.0 L8.7 52.35 M11.3 51.45 L11.6 52.35 11.9 53.55 13.45 58.75 M15.35 69.45 Q15.25 73.25 15.6 74.3 L16.3 75.5 Q16.9 79.1 18.35 84.35 19.75 89.55 21.0 88.5 M17.1 74.5 L17.7 73.7 M4.85 27.7 L3.6 22.9 4.05 27.7 M8.25 70.7 L8.25 70.95 9.05 78.25 9.65 83.45 M10.75 93.15 L11.15 96.25 13.1 98.7 M14.65 100.6 L17.95 104.65 17.7 103.2 17.7 100.5 M14.05 83.1 L12.7 80.15 14.05 78.4 M23.9 96.6 L24.7 100.3 26.2 99.25 M24.7 100.3 Q26.05 105.95 27.55 106.35 M31.4 111.75 L34.0 118.15 M35.3 121.2 L37.25 125.75 M24.4 100.45 L24.7 100.3 M19.85 118.15 L20.35 121.95 20.75 122.2 21.05 122.4 23.45 121.1 M30.15 117.35 L32.6 116.0 M17.95 104.65 L18.0 104.75 22.25 101.9 M18.5 108.7 L17.95 104.65 M11.7 115.25 Q13.4 116.75 13.95 117.9 L17.1 119.9 M17.7 120.3 L20.35 121.95 M13.95 117.9 L14.75 123.3 M16.75 135.8 L16.9 136.9 18.45 138.45 Q20.45 137.15 22.4 135.8 M27.15 133.45 L28.55 132.8 27.15 130.9 M22.05 123.95 L20.75 122.2 M13.4 117.55 L13.95 117.9 M33.5 134.0 L32.95 130.65 30.5 131.85 M30.15 132.0 L28.55 132.8 28.95 133.35 M33.15 128.8 L32.75 129.65 32.95 130.65 M25.45 144.35 L21.65 141.3 21.65 144.35 M35.65 123.3 L34.55 125.75 M18.45 138.45 L21.65 141.3 M11.15 96.25 Q11.45 98.85 10.75 106.3"/><path fill="none" stroke="#ffffff" stroke-width="1.0" stroke-opacity="0.2" d="M3.75 18.55 L3.8 17.4 M3.45 17.4 L3.35 18.55 M4.85 27.7 L5.15 28.9 5.7 31.0 5.25 27.7 M4.05 27.7 L4.15 28.9 5.45 42.9 M7.1 59.65 L7.35 62.35 M7.45 63.0 L8.15 70.05 8.25 70.65 M11.25 70.65 L10.15 63.0 M8.7 52.35 L5.7 31.0 11.3 51.45 M13.45 58.75 Q15.45 65.65 15.35 69.45 M16.3 75.5 L17.05 74.55 17.1 74.5 M9.65 83.45 L10.75 93.15 M13.1 98.7 L14.65 100.6 M17.7 100.5 L17.7 91.05 14.05 83.1 M14.05 78.4 L16.3 75.5 M21.0 88.5 Q22.2 87.35 23.9 96.6 M27.55 106.35 Q29.45 106.85 31.4 111.75 M34.0 118.15 L35.3 121.2 M37.25 125.75 L42.6 137.3 M22.25 101.9 L24.4 100.45 M23.45 121.1 Q27.3 128.0 30.15 117.35 M17.1 119.9 L17.7 120.3 M14.75 123.3 L16.75 135.8 M22.4 135.8 L22.85 135.5 27.15 133.45 M27.15 130.9 L22.05 123.95 M10.75 106.3 Q10.0 113.75 11.7 115.25 M19.85 118.15 L18.5 108.7 M30.5 131.85 L30.15 132.0 M34.55 125.75 L33.15 128.8 M21.65 144.35 L21.65 148.3 M33.5 134.0 L34.45 139.75 M25.45 144.35 L31.05 148.6"/></g><g id="c20"><g><use transform="matrix(1.0,0.0,0.0,1.0,0.0,0.0)" xlink:href="#c19"/></g></g><g id="c21"><path fill="#ebb01e" fill-opacity="0.721568627451" d="M101.1 30.3 L102.45 32.25 106.45 34.65 106.25 35.4 105.45 35.65 Q102.25 36.75 103.6 38.5 L103.9 38.75 104.0 38.9 104.0 40.9 100.75 41.6 Q102.1 42.75 102.45 43.55 L102.45 44.55 101.65 45.3 98.65 45.15 Q98.5 45.4 94.7 47.05 91.4 46.2 90.6 44.6 L90.6 44.55 90.55 44.55 89.95 43.95 Q89.4 46.05 85.5 46.2 L86.4 46.6 Q87.9 47.4 88.25 48.35 L88.35 48.9 88.3 49.4 79.1 49.4 79.5 48.6 Q86.3 47.4 85.9 41.75 90.1 43.75 94.65 43.25 L94.8 43.1 95.65 42.4 93.9 39.7 99.75 39.7 Q98.9 37.5 95.1 35.55 99.6 37.55 103.2 34.75 98.9 32.75 101.15 31.2 L101.1 30.3"/></g><g id="c22"><path fill="#ffcd3d" fill-opacity="0.901960784314" d="M21.1 19.7 L21.1 19.65 20.5 19.95 20.55 19.95 21.2 19.9 21.1 19.7 M41.25 8.65 Q45.05 10.6 45.9 12.8 L40.05 12.8 41.8 15.5 40.95 16.2 40.8 16.35 Q36.25 16.85 32.05 14.85 32.45 20.5 25.65 21.7 L25.25 22.5 0.0 22.5 0.0 14.95 5.15 14.1 Q27.15 1.45 13.2 11.5 L38.65 0.0 38.7 0.35 38.7 0.7 47.25 3.15 47.3 4.3 Q45.05 5.85 49.35 7.85 45.75 10.65 41.25 8.65"/></g><g id="c23"><g><use transform="matrix(1.0,0.0,0.0,1.0,0.0,0.0)" xlink:href="#c22"/></g></g><linearGradient gradientUnits="userSpaceOnUse" x1="-819.2" x2="819.2" spreadMethod="pad" gradientTransform="matrix(-0.00523376464844,0.0091552734375,-0.0172729492188,-0.00502014160156,2.15,-0.1)" id="gradient3"><stop offset="0.0" stop-color="#ffe891" stop-opacity="0.901960784314"/><stop offset="0.494117647059" stop-color="#ffdb57"/><stop offset="1.0" stop-color="#daac19" stop-opacity="0.0"/></linearGradient><g id="c24"><path stroke="none" fill="url(#gradient3)" d="M-7.6 2.5 Q-3.8 -3.2 3.8 -6.9 16.2 -12.85 6.2 -3.85 0.8 0.65 1.25 8.25 -7.05 7.6 -7.6 2.5"/><path fill="none" stroke="#c97a1c" stroke-width="0.5" stroke-opacity="0.250980392157" d="M-7.6 2.5 Q-3.8 -3.2 3.8 -6.9 16.2 -12.85 6.2 -3.85 0.8 0.65 1.25 8.25"/></g><g id="c25"><g><use transform="matrix(1.0,0.0,0.0,1.0,0.0,0.0)" xlink:href="#c24"/></g></g><g id="c26"><g><use transform="matrix(1.4711151123,0.0,0.0,1.67407226562,1.65,-5.5)" xlink:href="#c25"/></g><g><use transform="matrix(1.27313232422,0.0,0.0,1.27313232422,14.15,4.05)" filter="url(#filter13)" xlink:href="#c25"/></g><g><use transform="matrix(-1.18026733398,-0.804550170898,-0.906677246094,0.523483276367,-17.3,1.75)" filter="url(#filter14)" xlink:href="#c25"/></g></g><filter id="filter13"><feColorMatrix in="SourceGraphic" type="matrix" values="1.0 0.0 0.0 0.0 0.0 0.0 1.0 0.0 0.0 0.0 0.0 0.0 1.0 0.0 0.0 0.0 0.0 0.0 0.6796875 0.0" result="cxform"/><feComposite operator="in" in2="SourceGraphic" result="color-xform"/></filter><filter id="filter14"><feColorMatrix in="SourceGraphic" type="matrix" values="1.0 0.0 0.0 0.0 0.0 0.0 1.0 0.0 0.0 0.0 0.0 0.0 1.0 0.0 0.0 0.0 0.0 0.0 0.6796875 0.0" result="cxform"/><feComposite operator="in" in2="SourceGraphic" result="color-xform"/></filter><g id="c27"><g><use transform="matrix(1.0,0.0,0.0,1.0,0.0,0.0)" xlink:href="#c21"/></g><g><use transform="matrix(1.0,0.0,0.0,1.0,53.85,26.9)" filter="url(#filter16)" xlink:href="#c23"/></g><g><use transform="matrix(0.276672363281,-0.0353546142578,0.109924316406,0.355606079102,91.45,35.75)" xlink:href="#c26"/></g><g><use transform="matrix(0.287872314453,-0.0247192382812,0.0533447265625,0.333908081055,104.2,24.65)" filter="url(#filter18)" xlink:href="#c26"/></g><g><use transform="matrix(0.334854125977,-0.0427856445312,0.194625854492,0.42253112793,100.85,30.55)" xlink:href="#c26"/></g><g><use transform="matrix(-0.398376464844,-0.0529174804688,-0.234390258789,0.415420532227,83.15,26.55)" filter="url(#filter20)" xlink:href="#c26"/></g><g><use transform="matrix(-0.282470703125,0.0597076416016,0.0173034667969,0.388916015625,70.7,32.2)" xlink:href="#c26"/></g><g><use transform="matrix(-0.275588989258,-0.0376892089844,-0.319183349609,0.692977905273,92.7,23.45)" xlink:href="#c26"/></g><g><use transform="matrix(-0.278274536133,0.0252838134766,-0.0464630126953,0.37174987793,82.4,32.2)" xlink:href="#c26"/></g><g><use transform="matrix(-0.275588989258,-0.0376892089844,-0.159973144531,0.347320556641,51.65,41.7)" xlink:href="#c26"/></g></g><filter id="filter16"><feColorMatrix in="SourceGraphic" type="matrix" values="1.0 0.0 0.0 0.0 0.0 0.0 1.0 0.0 0.0 0.0 0.0 0.0 1.0 0.0 0.0 0.0 0.0 0.0 0.5 0.0" result="cxform"/><feComposite operator="in" in2="SourceGraphic" result="color-xform"/></filter><filter id="filter18"><feColorMatrix in="SourceGraphic" type="matrix" values="1.0 0.0 0.0 0.0 0.0 0.0 1.0 0.0 0.0 0.0 0.0 0.0 1.0 0.0 0.0 0.0 0.0 0.0 0.6796875 0.0" result="cxform"/><feComposite operator="in" in2="SourceGraphic" result="color-xform"/></filter><filter id="filter20"><feColorMatrix in="SourceGraphic" type="matrix" values="1.0 0.0 0.0 0.0 0.0 0.0 1.0 0.0 0.0 0.0 0.0 0.0 1.0 0.0 0.0 0.0 0.0 0.0 0.96875 0.0" result="cxform"/><feComposite operator="in" in2="SourceGraphic" result="color-xform"/></filter><g id="c28"><path fill="#f9f0e3" stroke="none" d="M17.75 5.9 L17.15 5.9 14.65 5.4 Q14.05 5.4 13.3 6.85 12.55 8.3 12.0 8.3 L10.8 8.0 9.65 7.65 Q9.2 7.65 7.15 9.65 L4.9 11.65 3.5 11.35 Q2.95 9.9 2.95 8.2 2.95 5.4 4.45 3.1 6.25 0.35 9.45 0.05 L9.45 0.0 10.2 0.05 12.0 0.45 Q14.0 1.05 15.6 2.65 L16.45 3.6 17.05 4.45 17.75 5.9 M5.4 16.05 L4.4 14.95 Q3.75 14.0 5.1 13.85 L6.4 13.9 6.45 13.95 Q7.55 14.55 8.3 14.55 L11.5 14.0 Q11.95 13.7 11.2 11.0 11.9 9.8 12.85 9.65 L14.35 9.35 14.55 10.0 Q15.2 11.45 16.0 11.45 16.65 11.45 17.45 10.15 18.1 9.1 18.2 8.2 L18.7 8.45 18.9 8.55 19.25 9.7 18.75 10.9 Q18.25 11.6 18.25 12.45 18.25 13.1 18.65 13.8 L19.0 15.0 Q19.0 15.45 18.4 15.95 L17.5 16.55 17.2 15.8 16.6 15.2 Q16.25 15.65 16.25 16.0 L16.5 17.4 Q16.5 18.0 15.5 18.45 L14.1 19.05 Q14.0 17.55 13.35 17.55 12.25 17.55 12.35 19.0 12.45 20.4 11.1 20.3 L10.0 20.3 9.9 18.3 9.75 17.2 9.7 17.0 Q9.45 16.35 8.7 16.2 L7.5 16.2 7.1 16.2 7.0 16.2 5.4 16.05 M14.9 14.25 L15.2 14.15 15.3 13.9 Q14.65 11.65 13.55 11.85 13.2 12.8 13.2 14.4 L13.2 14.75 Q13.3 15.1 13.75 15.1 14.2 15.1 14.3 14.45 L14.25 13.65 14.45 14.05 Q14.5 14.25 14.9 14.25"/><path fill="#dbcab3" stroke="none" d="M9.45 0.0 L9.45 0.05 Q6.25 0.35 4.45 3.1 2.95 5.4 2.95 8.2 2.95 9.9 3.5 11.35 L4.9 11.65 7.15 9.65 Q9.2 7.65 9.65 7.65 L10.8 8.0 12.0 8.3 Q12.55 8.3 13.3 6.85 14.05 5.4 14.65 5.4 L17.15 5.9 17.75 5.9 17.9 6.35 18.0 6.65 18.2 7.1 18.6 7.95 18.9 8.55 18.7 8.45 18.2 8.2 18.2 8.1 Q18.25 7.15 16.2 6.6 14.15 6.1 14.1 7.35 14.05 8.3 14.35 9.35 L12.85 9.65 Q11.9 9.8 11.2 11.0 L11.15 11.05 Q10.15 8.15 8.6 9.35 6.8 10.65 6.3 12.6 6.1 13.4 6.4 13.9 L5.1 13.85 Q3.75 14.0 4.4 14.95 L5.4 16.05 Q4.5 15.9 4.05 15.5 3.25 14.8 3.25 13.0 L3.25 12.05 0.9 10.4 Q0.25 9.7 0.0 8.8 0.1 6.0 1.65 3.85 L2.65 2.65 Q5.35 0.0 9.15 0.0 L9.45 0.0"/><path fill="#a8967d" stroke="none" d="M0.0 8.8 Q0.25 9.7 0.9 10.4 L3.25 12.05 3.25 13.0 Q3.25 14.8 4.05 15.5 4.5 15.9 5.4 16.05 L7.0 16.2 7.1 16.2 7.5 16.2 8.7 16.2 Q9.45 16.35 9.7 17.0 L9.75 17.2 9.9 18.3 9.15 18.3 Q5.35 18.3 2.65 15.6 0.0 12.95 0.0 9.15 L0.0 8.8"/><path fill="#38382c" stroke="none" d="M6.4 13.9 Q6.1 13.4 6.3 12.6 6.8 10.65 8.6 9.35 10.15 8.15 11.15 11.05 L11.2 11.0 Q11.95 13.7 11.5 14.0 L8.3 14.55 Q7.55 14.55 6.45 13.95 L6.4 13.9 M14.35 9.35 Q14.05 8.3 14.1 7.35 14.15 6.1 16.2 6.6 18.25 7.15 18.2 8.1 L18.2 8.2 Q18.1 9.1 17.45 10.15 16.65 11.45 16.0 11.45 15.2 11.45 14.55 10.0 L14.35 9.35 M14.9 14.25 Q14.5 14.25 14.45 14.05 L14.25 13.65 14.3 14.45 Q14.2 15.1 13.75 15.1 13.3 15.1 13.2 14.75 L13.2 14.4 Q13.2 12.8 13.55 11.85 14.65 11.65 15.3 13.9 L15.2 14.15 14.9 14.25"/><path fill="none" stroke="#000000" stroke-width="0.5" stroke-opacity="0.301960784314" d="M17.75 5.9 L17.05 4.45 16.45 3.6 15.6 2.65 Q14.0 1.05 12.0 0.45 L10.2 0.05 9.45 0.0 9.15 0.0 Q5.35 0.0 2.65 2.65 L1.65 3.85 Q0.1 6.0 0.0 8.8 M18.9 8.55 L18.6 7.95 18.2 7.1 18.0 6.65 17.9 6.35 17.75 5.9 M9.9 18.3 L9.15 18.3 Q5.35 18.3 2.65 15.6 0.0 12.95 0.0 9.15 L0.0 8.8 M9.9 18.3 L10.0 20.3 11.1 20.3 Q12.45 20.4 12.35 19.0 12.25 17.55 13.35 17.55 14.0 17.55 14.1 19.05 L15.5 18.45 Q16.5 18.0 16.5 17.4 L16.25 16.0 Q16.25 15.65 16.6 15.2 L17.2 15.8 17.5 16.55 18.4 15.95 Q19.0 15.45 19.0 15.0 L18.65 13.8 Q18.25 13.1 18.25 12.45 18.25 11.6 18.75 10.9 L19.25 9.7 18.9 8.55"/></g><g id="c29"><g><use transform="matrix(1.0,0.0,0.0,1.0,0.0,0.0)" xlink:href="#c28"/></g></g><g id="c30"><g><use transform="matrix(0.309555053711,-1.1552734375,1.1552734375,0.309555053711,-13.35,40.25)" xlink:href="#c29"/></g></g><g id="c31"><g><use transform="matrix(1.09999084473,0.0,0.0,1.09999084473,-1.95,42.55)" filter="url(#filter27)" xlink:href="#c10"/></g><g><use transform="matrix(1.09997558594,0.0,0.0,1.09997558594,-1.95,42.55)" filter="url(#filter28)" xlink:href="#c10"/></g><g><use transform="matrix(-0.475952148438,-0.0176849365234,0.0407257080078,0.43733215332,19.15,44.75)" filter="url(#filter29)" xlink:href="#c12"/></g><g><use transform="matrix(1.0,0.0,0.0,1.0,0.0,0.0)" xlink:href="#c13"/></g><g><use transform="matrix(-0.475952148438,-0.0176849365234,0.0407257080078,0.43733215332,18.45,26.35)" xlink:href="#c17"/></g><g><use transform="matrix(1.0,0.0,0.0,1.0,0.0,0.0)" xlink:href="#c18"/></g><g><use transform="matrix(0.199493408203,0.0,0.0,0.184204101562,31.5,19.7)" xlink:href="#c20"/></g><g><use transform="matrix(0.615814208984,0.0,0.0,0.615814208984,-28.4,22.8)" filter="url(#filter34)" xlink:href="#c27"/></g><g><use transform="matrix(0.111053466797,0.414474487305,-0.414474487305,0.111053466797,31.9,44.65)" xlink:href="#c30"/></g><g><use transform="matrix(-0.40608215332,0.0,0.0,0.615814208984,43.95,29.7)" filter="url(#filter36)" xlink:href="#c27"/></g></g><filter id="filter27"><feColorMatrix in="SourceGraphic" type="matrix" values="0.5703125 0.0 0.0 0.0 0.171875 0.0 0.5703125 0.0 0.0 0.0859375 0.0 0.0 0.5703125 0.0 0.0 0.0 0.0 0.0 1.0 0.0" result="cxform"/><feComposite operator="in" in2="SourceGraphic" result="color-xform"/></filter><filter id="filter28"><feColorMatrix in="SourceGraphic" type="matrix" values="1.0 0.0 0.0 0.0 0.0 0.0 1.0 0.0 0.0 0.0 0.0 0.0 1.0 0.0 0.0 0.0 0.0 0.0 0.2109375 0.0" result="cxform"/><feComposite operator="in" in2="SourceGraphic" result="color-xform"/></filter><filter id="filter29"><feColorMatrix in="SourceGraphic" type="matrix" values="1.0 0.0 0.0 0.0 0.0 0.0 1.0 0.0 0.0 0.0 0.0 0.0 1.0 0.0 0.0 0.0 0.0 0.0 0.25 0.0" result="cxform"/><feComposite operator="in" in2="SourceGraphic" result="color-xform"/></filter><filter id="filter34"><feColorMatrix in="SourceGraphic" type="matrix" values="0.76171875 0.0 0.0 0.0 0.0 0.0 0.76171875 0.0 0.0 0.0 0.0 0.0 0.76171875 0.0 0.0 0.0 0.0 0.0 1.0 0.0" result="cxform"/><feComposite operator="in" in2="SourceGraphic" result="color-xform"/></filter><filter id="filter36"><feColorMatrix in="SourceGraphic" type="matrix" values="0.76171875 0.0 0.0 0.0 0.0 0.0 0.76171875 0.0 0.0 0.0 0.0 0.0 0.76171875 0.0 0.0 0.0 0.0 0.0 1.0 0.0" result="cxform"/><feComposite operator="in" in2="SourceGraphic" result="color-xform"/></filter><g id="c32"><g><use transform="matrix(1.0,0.0,0.0,1.0,0.0,0.0)" xlink:href="#c2"/></g><g><use transform="matrix(0.238861083984,-0.0867004394531,0.10026550293,0.233917236328,34.25,31.15)" xlink:href="#c4"/></g><g><use transform="matrix(0.238861083984,-0.0867004394531,0.10026550293,0.233917236328,4.25,10.3)" xlink:href="#c4"/></g><g><use transform="matrix(0.141098022461,-0.0378112792969,0.111373901367,0.225646972656,20.25,20.65)" filter="url(#filter40)" xlink:href="#c6"/></g><g><use transform="matrix(-0.155029296875,0.0513153076172,0.0841827392578,0.147033691406,22.6,2.3)" filter="url(#filter41)" xlink:href="#c8"/></g><g><use transform="matrix(0.35139465332,-0.131164550781,0.131164550781,0.35139465332,9.55,11.85)" xlink:href="#c31"/></g><g><use transform="matrix(0.35139465332,-0.131164550781,0.131164550781,0.35139465332,9.55,11.85)" filter="url(#filter43)" xlink:href="#c31"/></g><g><use transform="matrix(0.162948608398,-0.0436706542969,0.128631591797,0.260604858398,20.35,20.95)" filter="url(#filter44)" xlink:href="#c6"/></g></g><filter id="filter40"><feColorMatrix in="SourceGraphic" type="matrix" values="0.0 0.0 0.0 0.0 0.796875 0.0 0.0 0.0 0.0 0.59765625 0.0 0.0 0.0 0.0 0.19921875 0.0 0.0 0.0 1.0 0.0" result="cxform"/><feComposite operator="in" in2="SourceGraphic" result="color-xform"/></filter><filter id="filter41"><feColorMatrix in="SourceGraphic" type="matrix" values="0.0 0.0 0.0 0.0 0.99609375 0.0 0.0 0.0 0.0 0.99609375 0.0 0.0 0.0 0.0 0.99609375 0.0 0.0 0.0 1.0 0.0" result="cxform"/><feComposite operator="in" in2="SourceGraphic" result="color-xform"/></filter><filter id="filter43"><feColorMatrix in="SourceGraphic" type="matrix" values="1.0 0.0 0.0 0.0 0.0 0.0 1.0 0.0 0.0 0.0 0.0 0.0 1.0 0.0 0.0 0.0 0.0 0.0 0.37890625 0.0" result="cxform"/><feComposite operator="in" in2="SourceGraphic" result="color-xform"/></filter><filter id="filter44"><feColorMatrix in="SourceGraphic" type="matrix" values="1.0 0.0 0.0 0.0 0.0 0.0 1.0 0.0 0.0 0.0 0.0 0.0 1.0 0.0 0.0 0.0 0.0 0.0 0.23046875 0.0" result="cxform"/><feComposite operator="in" in2="SourceGraphic" result="color-xform"/></filter></defs><g><g><use transform="matrix(1.0,0.0,0.0,1.0,0.0,0.0)" xlink:href="#c1"/></g><g><use transform="matrix(1.15496826172,0.0,0.0,1.15496826172,5.85,3.95)" xlink:href="#c32"/></g></g></svg>