<?xml version='1.0' encoding='UTF-8'?>
<svg xmlns:xlink="http://www.w3.org/1999/xlink" xmlns="http://www.w3.org/2000/svg" version="1.1" width="60px" height="60px" viewBox="0.0 0.0 60.0 60.0"><defs><radialGradient gradientUnits="userSpaceOnUse" r="819.2" cx="0" cy="0" spreadMethod="pad" gradientTransform="matrix(0.0171966552734,0.0,0.0,0.0171966552734,0.0,0.0)" id="gradient1"><stop offset="0.333333333333" stop-color="#0e171d"/><stop offset="1.0" stop-color="#101a24" stop-opacity="0.0"/></radialGradient><g id="c1"><path stroke="none" fill="url(#gradient1)" d="M10.4 -10.45 Q14.75 -6.1 14.75 0.0 14.75 6.1 10.4 10.4 6.1 14.75 0.0 14.75 -6.1 14.75 -10.45 10.4 -14.75 6.1 -14.75 0.0 -14.75 -6.1 -10.45 -10.45 -6.1 -14.75 0.0 -14.75 6.1 -14.75 10.4 -10.45"/></g><g id="c2"><g><use transform="matrix(1.0,0.0,0.0,1.0,0.0,0.0)" xlink:href="#c1"/></g></g><g id="c3"><path fill="#00ffff" stroke="none" d="M1.6 -11.6 Q7.05 -10.4 8.55 -5.1 10.05 -4.15 10.95 -1.85 11.8 0.45 11.3 4.4 10.8 8.35 4.15 11.55 1.15 12.35 -3.85 10.1 -8.85 7.8 -7.85 6.05 -6.7 4.1 -8.8 1.25 -12.5 -4.65 -11.15 -6.2 -3.7 -12.75 1.6 -11.6"/><path fill="none" stroke="#1ca4fd" stroke-width="2.0" stroke-opacity="0.301960784314" d="M1.6 -11.6 Q-3.7 -12.75 -11.15 -6.2 -12.5 -4.65 -8.8 1.25 -6.7 4.1 -7.85 6.05 -8.85 7.8 -3.85 10.1 1.15 12.35 4.15 11.55 10.8 8.35 11.3 4.4 11.8 0.45 10.95 -1.85 10.05 -4.15 8.55 -5.1 7.05 -10.4 1.6 -11.6"/></g><radialGradient gradientUnits="userSpaceOnUse" r="819.2" cx="0" cy="0" spreadMethod="pad" gradientTransform="matrix(0.0335388183594,0.0,0.0,0.0335388183594,0.0,-26.95)" id="gradient2"><stop offset="0.0" stop-color="#00ffff"/><stop offset="1.0" stop-color="#a6ffb1" stop-opacity="0.0"/></radialGradient><g id="c4"><path stroke="none" fill="url(#gradient2)" d="M19.05 -46.05 Q27.0 -38.15 27.0 -27.0 27.0 -15.8 19.05 -7.9 11.15 0.0 0.0 0.0 -11.2 0.0 -19.1 -7.9 -27.0 -15.8 -27.0 -27.0 -27.0 -38.15 -19.1 -46.05 -11.2 -54.0 0.0 -54.0 11.15 -54.0 19.05 -46.05"/></g><g id="c5"><g><use transform="matrix(1.0,0.0,0.0,1.0,0.0,0.0)" xlink:href="#c4"/></g></g><g id="c6"><path fill="#00ffff" stroke="none" d="M-14.05 -9.4 L-14.7 -6.5 -14.7 -6.4 Q-15.15 -2.85 -13.75 -0.6 -13.75 -0.1 -13.9 0.25 -14.25 1.85 -15.85 1.45 L-16.65 1.0 Q-20.4 -1.65 -19.1 -5.6 -18.65 -7.3 -17.75 -8.2 L-16.85 -8.95 Q-15.7 -9.7 -14.05 -9.4"/><path fill="none" stroke="#1ca4fd" stroke-width="2.0" stroke-opacity="0.301960784314" d="M-13.75 -0.6 Q-15.15 -2.85 -14.7 -6.4 L-14.7 -6.5 -14.05 -9.4 Q-15.7 -9.7 -16.85 -8.95 L-17.75 -8.2 Q-18.65 -7.3 -19.1 -5.6 -20.4 -1.65 -16.65 1.0 L-15.85 1.45 Q-14.25 1.85 -13.9 0.25 -13.75 -0.1 -13.75 -0.6"/><path fill="#abfefd" stroke="none" d="M4.4 -5.0 L5.6 -2.6 Q5.95 -2.0 7.2 -0.55 8.4 0.85 8.0 2.85 7.55 4.8 6.9 5.85 6.2 6.9 4.9 7.65 L-0.15 7.8 Q-3.9 7.25 -3.25 3.6 -2.7 -0.05 -5.0 -2.45 -7.3 -4.85 -4.3 -6.25 -1.35 -7.65 1.1 -7.2 3.55 -6.75 4.4 -5.0"/><path fill="none" stroke="#3efdfd" stroke-width="2.0" stroke-opacity="0.301960784314" d="M4.4 -5.0 Q3.55 -6.75 1.1 -7.2 -1.35 -7.65 -4.3 -6.25 -7.3 -4.85 -5.0 -2.45 -2.7 -0.05 -3.25 3.6 -3.9 7.25 -0.15 7.8 L4.9 7.65 Q6.2 6.9 6.9 5.85 7.55 4.8 8.0 2.85 8.4 0.85 7.2 -0.55 5.95 -2.0 5.6 -2.6 L4.4 -5.0"/></g><radialGradient gradientUnits="userSpaceOnUse" r="819.2" cx="0" cy="0" fx="28.8" fy="0" spreadMethod="pad" gradientTransform="matrix(0.0328521728516,0.00614929199219,-0.00627136230469,0.0321197509766,-0.05,0.0)" id="gradient3"><stop offset="0.117647058824" stop-color="#ffffff"/><stop offset="0.176470588235" stop-color="#ffffff" stop-opacity="0.501960784314"/><stop offset="0.564705882353" stop-color="#ffffff" stop-opacity="0.0"/></radialGradient><g id="c7"><path stroke="none" fill="url(#gradient3)" d="M17.15 3.2 Q15.7 10.2 9.7 14.1 3.75 18.0 -3.35 16.7 -10.45 15.35 -14.45 9.6 -18.5 3.85 -17.1 -3.15 -15.75 -10.05 -9.85 -14.05 -3.85 -18.05 3.2 -16.7 10.3 -15.4 14.3 -9.55 18.4 -3.75 17.15 3.2"/></g><g id="c8"><path fill="#bdfbf2" stroke="none" d="M-10.1 -22.75 L-9.65 -23.25 -9.1 -23.75 -7.95 -24.7 Q-4.5 -27.2 0.0 -27.2 5.65 -27.2 9.6 -23.25 13.6 -19.25 13.6 -13.6 L13.6 -13.05 Q12.65 -10.95 10.0 -10.65 5.3 -13.95 1.85 -8.5 -4.7 -4.6 -6.1 -7.75 -7.5 -10.9 -6.25 -19.9 -10.55 -21.4 -10.1 -22.75"/><path fill="#bd9f75" stroke="none" d="M13.6 -12.9 L13.6 -13.05 13.8 -13.15 13.6 -12.9"/><path fill="#d7ffff" stroke="none" d="M13.6 -13.05 L13.6 -12.9 Q13.45 -10.2 12.4 -7.9 11.4 -5.8 9.6 -4.0 5.65 0.0 0.0 0.0 -5.65 0.0 -9.65 -4.0 -11.15 -5.5 -12.05 -7.25 L-12.55 -8.2 Q-13.6 -10.7 -13.6 -13.6 -13.6 -18.9 -10.1 -22.75 -10.55 -21.4 -6.25 -19.9 -7.5 -10.9 -6.1 -7.75 -4.7 -4.6 1.85 -8.5 5.3 -13.95 10.0 -10.65 12.65 -10.95 13.6 -13.05"/></g><g id="c9"><g><use transform="matrix(1.0,0.0,0.0,1.0,0.0,0.0)" xlink:href="#c8"/></g></g><g id="c10"><path fill="#ffffff" stroke="none" d="M-7.85 3.35 L-7.95 2.8 Q-8.3 1.4 -8.0 -0.15 -7.45 -3.1 -5.0 -4.85 -2.45 -6.5 0.5 -5.95 3.5 -5.4 5.15 -2.95 6.85 -0.4 6.3 2.55 6.0 4.2 5.15 5.45 -3.0 9.0 -7.85 3.35"/><path fill="#fbf1bf" stroke="none" d="M5.15 5.45 L3.25 7.2 Q0.8 8.9 -2.2 8.35 -5.15 7.8 -6.9 5.3 L-7.85 3.35 Q-3.0 9.0 5.15 5.45"/><path fill="#a6ffb2" fill-opacity="0.498039215686" d="M-5.15 9.0 Q-6.3 8.45 -5.9 7.9 -5.55 7.3 -3.6 7.4 -1.65 7.55 -0.6 6.25 2.35 4.55 3.35 5.85 4.4 7.1 5.25 6.3 6.1 5.45 5.75 6.3 5.35 7.15 3.35 8.5 1.35 9.8 -1.25 9.75 -3.85 9.65 -5.15 9.0"/><path fill="#a6ffb2" fill-opacity="0.498039215686" d="M-6.1 -7.35 Q-3.15 -9.2 -0.55 -9.0 2.0 -8.75 4.0 -7.2 6.0 -5.75 6.8 -3.75 7.55 -1.7 5.5 -2.35 L0.1 -2.9 Q-3.3 -2.85 -6.2 -1.45 -9.1 0.0 -9.15 -2.7 -9.15 -5.5 -6.1 -7.35"/></g><g id="c11"><path fill="#159595" stroke="none" d="M1.8 0.2 L0.45 2.25 Q-0.45 3.1 -1.2 3.0 -1.95 2.9 -2.15 1.95 -2.3 1.0 -1.8 -0.25 -1.35 -1.5 -0.45 -2.35 0.45 -3.15 1.2 -3.05 2.0 -2.95 2.15 -2.0 2.35 -1.05 1.8 0.2"/><path fill="#ffffff" stroke="none" d="M1.45 0.2 L0.4 1.75 Q-0.25 2.4 -0.85 2.35 -1.45 2.3 -1.6 1.55 -1.75 0.8 -1.35 -0.15 L-0.3 -1.75 Q0.4 -2.35 0.95 -2.3 1.55 -2.25 1.7 -1.5 1.85 -0.75 1.45 0.2"/><path fill="none" stroke="#000000" stroke-width="0.5" stroke-opacity="0.301960784314" d="M1.45 0.2 L0.4 1.75 Q-0.25 2.4 -0.85 2.35 -1.45 2.3 -1.6 1.55 -1.75 0.8 -1.35 -0.15 L-0.3 -1.75 Q0.4 -2.35 0.95 -2.3 1.55 -2.25 1.7 -1.5 1.85 -0.75 1.45 0.2"/></g><g id="c12"><path fill="#000000" stroke="none" d="M0.65 0.05 L0.15 0.8 Q-0.15 1.1 -0.4 1.05 L-0.75 0.7 -0.65 -0.1 -0.15 -0.8 0.4 -1.1 0.75 -0.7 0.65 0.05"/></g><g id="c13"><path fill="#159595" stroke="none" d="M3.6 -0.5 Q3.7 0.6 2.7 1.55 1.7 2.5 0.25 2.75 -1.3 3.0 -2.45 2.3 -3.5 1.7 -3.6 0.55 -3.65 -0.6 -2.75 -1.55 -1.7 -2.5 -0.2 -2.75 1.25 -3.0 2.4 -2.3 3.55 -1.7 3.6 -0.5"/><path fill="#ffffff" stroke="none" d="M0.15 2.15 Q-1.0 2.3 -1.85 1.8 -2.7 1.3 -2.75 0.4 -2.8 -0.45 -2.05 -1.2 -1.3 -1.95 -0.15 -2.1 L1.9 -1.8 Q2.75 -1.3 2.8 -0.45 2.85 0.45 2.1 1.2 1.3 1.95 0.15 2.15"/><path fill="none" stroke="#000000" stroke-width="0.5" stroke-opacity="0.301960784314" d="M0.15 2.15 Q-1.0 2.3 -1.85 1.8 -2.7 1.3 -2.75 0.4 -2.8 -0.45 -2.05 -1.2 -1.3 -1.95 -0.15 -2.1 L1.9 -1.8 Q2.75 -1.3 2.8 -0.45 2.85 0.45 2.1 1.2 1.3 1.95 0.15 2.15"/></g><g id="c14"><path fill="#000000" stroke="none" d="M0.85 0.6 Q0.55 0.95 0.05 1.0 L-0.75 0.9 -1.1 0.2 Q-1.15 -0.3 -0.8 -0.6 L-0.1 -1.1 0.8 -0.9 1.15 -0.25 0.85 0.6"/></g><g id="c15"><g><use transform="matrix(-0.921295166016,0.0,-0.000991821289062,0.460662841797,-0.35,-0.5)" filter="url(#filter4)" xlink:href="#c2"/></g><g><use transform="matrix(0.5712890625,1.17855834961,-1.02581787109,0.497329711914,-1.8,-23.5)" filter="url(#filter5)" xlink:href="#c3"/></g><g><use transform="matrix(0.419647216797,0.86572265625,-0.753524780273,0.365310668945,-20.9,-14.5)" filter="url(#filter6)" xlink:href="#c5"/></g><g><use transform="matrix(0.5712890625,1.17855834961,-1.02581787109,0.497329711914,-1.8,-23.5)" filter="url(#filter7)" xlink:href="#c6"/></g><g><use transform="matrix(1.0,0.0,0.0,1.0,-0.5,-20.25)" xlink:href="#c7"/></g><g><use transform="matrix(0.70198059082,0.133850097656,-0.133819580078,0.70198059082,-3.25,-10.9)" filter="url(#filter9)" xlink:href="#c9"/></g><g><use transform="matrix(1.0,0.0,0.0,1.0,-0.5,-20.25)" xlink:href="#c10"/></g><g><use transform="matrix(1.0,0.0,0.0,1.0,6.95,-15.95)" xlink:href="#c11"/></g><g><use transform="matrix(1.0,0.0,0.0,1.0,6.15,-14.95)" xlink:href="#c12"/></g><g><use transform="matrix(1.0,0.0,0.0,1.0,-0.9,-12.8)" xlink:href="#c13"/></g><g><use transform="matrix(1.0,0.0,0.0,1.0,0.6,-12.75)" xlink:href="#c14"/></g></g><filter id="filter4"><feColorMatrix in="SourceGraphic" type="matrix" values="1.0 0.0 0.0 0.0 0.0 0.0 1.0 0.0 0.0 0.0 0.0 0.0 1.0 0.0 0.0 0.0 0.0 0.0 0.30078125 0.0" result="cxform"/><feComposite operator="in" in2="SourceGraphic" result="color-xform"/></filter><filter id="filter5"><feColorMatrix in="SourceGraphic" type="matrix" values="0.19921875 0.0 0.0 0.0 0.2890625 0.0 0.19921875 0.0 0.0 0.7421875 0.0 0.0 0.19921875 0.0 0.5 0.0 0.0 0.0 1.0 0.0" result="cxform"/><feComposite operator="in" in2="SourceGraphic" result="color-xform"/></filter><filter id="filter6"><feColorMatrix in="SourceGraphic" type="matrix" values="0.19921875 0.0 0.0 0.0 0.2890625 0.0 0.19921875 0.0 0.0 0.7421875 0.0 0.0 0.19921875 0.0 0.5 0.0 0.0 0.0 1.0 0.0" result="cxform"/><feComposite operator="in" in2="SourceGraphic" result="color-xform"/></filter><filter id="filter7"><feColorMatrix in="SourceGraphic" type="matrix" values="0.19921875 0.0 0.0 0.0 0.2890625 0.0 0.19921875 0.0 0.0 0.7421875 0.0 0.0 0.19921875 0.0 0.5 0.0 0.0 0.0 1.0 0.0" result="cxform"/><feComposite operator="in" in2="SourceGraphic" result="color-xform"/></filter><filter id="filter9"><feColorMatrix in="SourceGraphic" type="matrix" values="1.0 0.0 0.0 0.0 0.0 0.0 1.0 0.0 0.0 0.0 0.0 0.0 1.0 0.0 0.0 0.0 0.0 0.0 0.80078125 0.0" result="cxform"/><feComposite operator="in" in2="SourceGraphic" result="color-xform"/></filter><g id="c16"><path fill="#000000" fill-opacity="0.00392156862745" d="M0.0 0.0 L60.0 0.0 60.0 60.0 0.0 60.0 0.0 0.0"/></g><g id="c17"><path fill="none" stroke="#000000" stroke-width="1.0" stroke-opacity="0.301960784314" d="M22.3 0.35 Q26.6 -1.0 28.5 3.05 L41.4 31.7 Q43.1 35.4 39.9 36.85 L38.15 37.65 19.65 43.65 Q17.05 44.5 15.35 43.3 14.2 42.55 13.5 40.9 L0.55 12.25 Q-0.6 9.75 0.6 8.25 1.15 7.55 2.2 7.05 2.85 6.6 3.8 6.3 L22.3 0.35"/><path fill="#300525" stroke="none" d="M25.55 0.9 Q26.9 1.6 27.8 3.55 L40.7 32.15 Q42.6 36.3 38.3 37.65 L23.3 42.5 13.15 21.4 4.6 20.9 0.7 12.25 Q-0.45 9.75 0.75 8.25 L29.8 9.75 25.55 0.9 M20.1 43.55 L19.8 43.65 Q17.15 44.45 15.5 43.3 L20.1 43.55"/><path fill="#630a4c" stroke="none" d="M23.3 42.5 L20.1 43.55 15.5 43.3 Q14.35 42.55 13.65 40.9 L4.6 20.9 13.15 21.4 23.3 42.5 M0.75 8.25 Q1.45 7.3 3.1 6.75 L21.65 0.8 25.55 0.9 29.8 9.75 0.75 8.25"/><path fill="none" stroke="#000000" stroke-width="0.5" stroke-opacity="0.301960784314" d="M25.55 0.9 Q26.9 1.6 27.8 3.55 L40.7 32.15 Q42.6 36.3 38.3 37.65 L23.3 42.5 20.1 43.55 19.8 43.65 Q17.15 44.45 15.5 43.3 14.35 42.55 13.65 40.9 L4.6 20.9 0.7 12.25 Q-0.45 9.75 0.75 8.25 1.45 7.3 3.1 6.75 L21.65 0.8 25.55 0.9"/><path fill="#9d147b" stroke="none" d="M14.2 40.5 L1.35 11.8 Q-0.5 7.75 3.8 6.35 L22.3 0.4 Q26.55 -1.0 28.45 3.1 L41.35 31.7 Q43.25 35.85 38.9 37.25 L20.4 43.2 Q16.1 44.55 14.2 40.5"/><path fill="none" stroke="#000000" stroke-width="0.5" stroke-opacity="0.301960784314" d="M14.2 40.5 L1.35 11.8 Q-0.5 7.75 3.8 6.35 L22.3 0.4 Q26.55 -1.0 28.45 3.1 L41.35 31.7 Q43.25 35.85 38.9 37.25 L20.4 43.2 Q16.1 44.55 14.2 40.5"/><path fill="#fcf2cf" stroke="none" d="M9.15 13.6 Q9.8 12.8 9.55 11.6 L9.1 10.55 22.05 6.35 Q24.9 5.45 26.25 7.85 L26.5 8.3 35.8 29.0 35.95 29.35 Q34.75 29.3 34.1 30.1 33.45 30.9 33.7 32.1 L34.0 32.9 20.65 37.2 Q18.8 37.8 17.65 37.0 16.8 36.4 16.3 35.2 L6.95 14.6 6.8 14.4 7.1 14.4 Q8.4 14.45 9.15 13.6"/><path fill="#c47fad" stroke="none" d="M8.25 23.65 L3.35 12.8 Q1.65 9.1 5.5 7.85 L22.25 2.5 Q26.05 1.25 27.75 4.95 L28.25 6.1 35.55 22.3 39.35 30.75 Q41.1 34.5 37.2 35.7 L20.45 41.1 Q16.8 42.25 15.2 39.0 L15.0 38.6 8.25 23.65 M9.15 13.6 Q8.4 14.45 7.1 14.4 L6.8 14.4 6.95 14.6 16.3 35.2 Q16.8 36.4 17.65 37.0 18.8 37.8 20.65 37.2 L34.0 32.9 33.7 32.1 Q33.45 30.9 34.1 30.1 34.75 29.3 35.95 29.35 L35.8 29.0 26.5 8.3 26.25 7.85 Q24.9 5.45 22.05 6.35 L9.1 10.55 9.55 11.6 Q9.8 12.8 9.15 13.6"/><path fill="none" stroke="#ffcc00" stroke-width="1.0" stroke-opacity="0.749019607843" d="M8.25 23.65 L3.35 12.8 Q1.65 9.1 5.5 7.85 L22.25 2.5 Q26.05 1.25 27.75 4.95 L28.25 6.1 M35.55 22.3 L39.35 30.75 Q41.1 34.5 37.2 35.7 L20.45 41.1 Q16.8 42.25 15.2 39.0 L15.0 38.6"/><path fill="none" stroke="#bf9900" stroke-width="1.0" stroke-opacity="0.749019607843" d="M28.25 6.1 L35.55 22.3 M15.0 38.6 L8.25 23.65"/><path fill="none" stroke="#f0b92b" stroke-width="0.5" d="M9.15 13.6 Q9.8 12.8 9.55 11.6 L9.1 10.55 22.05 6.35 Q24.9 5.45 26.25 7.85 L26.5 8.3 35.8 29.0 35.95 29.35 Q34.75 29.3 34.1 30.1 33.45 30.9 33.7 32.1 L34.0 32.9 20.65 37.2 Q18.8 37.8 17.65 37.0 16.8 36.4 16.3 35.2 L6.95 14.6 6.8 14.4 7.1 14.4 Q8.4 14.45 9.15 13.6"/></g><g id="c18"><path fill="#7fdbfe" stroke="none" d="M10.75 4.9 Q10.75 4.6 10.9 4.35 11.25 3.45 11.95 2.75 13.3 1.5 14.35 2.1 15.4 2.7 14.95 4.45 14.7 5.4 14.1 6.15 L13.75 6.5 Q13.1 7.15 12.35 7.35 L11.4 7.2 Q10.95 6.9 10.75 6.4 10.5 5.75 10.75 4.9 M7.5 5.9 Q7.0 5.85 6.6 5.5 6.05 5.0 5.8 4.15 L5.7 3.6 Q5.55 2.65 5.8 1.7 6.25 0.0 7.5 0.0 L7.6 0.0 Q8.85 0.0 9.3 1.7 9.55 2.65 9.4 3.6 L9.3 4.15 8.5 5.5 7.6 5.9 7.5 5.9 M4.35 4.9 Q4.6 5.75 4.35 6.4 L3.7 7.2 2.75 7.35 Q2.0 7.15 1.35 6.5 L1.0 6.15 Q0.4 5.4 0.15 4.45 -0.3 2.7 0.75 2.1 1.8 1.5 3.15 2.75 3.85 3.45 4.2 4.35 L4.35 4.9 M5.5 13.7 Q4.45 13.9 3.65 12.95 2.75 12.0 3.2 10.25 3.7 8.5 5.25 7.6 6.4 6.9 7.55 7.0 8.75 6.9 9.9 7.6 11.45 8.5 11.95 10.25 12.35 12.0 11.5 12.95 10.7 13.9 9.65 13.7 8.55 13.5 7.55 12.6 6.55 13.5 5.5 13.7"/></g><g id="c19"><g><use transform="matrix(1.0,0.0,0.0,1.0,0.0,0.0)" xlink:href="#c18"/></g></g><radialGradient gradientUnits="userSpaceOnUse" r="819.2" cx="0" cy="0" spreadMethod="pad" gradientTransform="matrix(0.0914459228516,0.0,0.0,0.0914459228516,0.6,3.4)" id="gradient4"><stop offset="0.0" stop-color="#ffffff"/><stop offset="1.0" stop-color="#ffffff" stop-opacity="0.0"/></radialGradient><g id="c20"><path stroke="none" fill="url(#gradient4)" d="M36.65 -54.65 Q60.05 -42.0 69.75 -17.95 80.55 8.9 68.0 34.1 55.45 59.35 26.8 68.2 -1.8 77.05 -29.7 64.3 -57.6 51.6 -68.45 24.75 -79.3 -2.05 -66.75 -27.25 L-66.7 -27.3 Q-54.1 -52.5 -25.5 -61.4 3.1 -70.2 31.0 -57.5 L36.65 -54.65"/></g><g id="c21"><g><use transform="matrix(1.0,0.0,0.0,1.0,0.0,0.0)" xlink:href="#c20"/></g></g><radialGradient gradientUnits="userSpaceOnUse" r="819.2" cx="0" cy="0" spreadMethod="pad" gradientTransform="matrix(0.209197998047,0.0,0.0,0.177108764648,67.15,107.2)" id="gradient5"><stop offset="0.356862745098" stop-color="#ffffff"/><stop offset="0.670588235294" stop-opacity="0.0"/></radialGradient><g id="c22"><path fill="none" stroke-linejoin="round" stroke-linecap="round" stroke="url(#gradient5)" stroke-width="0.5" d="M136.55 165.8 L68.6 106.0 68.4 106.0 118.25 201.5 M68.2 105.7 L68.25 105.8 68.25 105.75 68.2 105.7 0.0 45.7 M68.25 105.8 L68.3 105.85 68.3 105.8 68.25 105.75 49.95 0.05 M0.05 97.7 L68.15 105.95 68.25 105.85 68.25 105.8 M68.3 105.85 L68.25 105.85 68.3 106.0 68.3 105.85 68.3 105.8 68.35 105.8 68.3 105.8 86.6 18.35 M50.0 193.2 L68.3 106.0 68.15 105.95 18.25 151.55 M68.4 106.0 L68.3 106.0 86.55 211.5 M68.4 106.0 L68.3 105.85 M68.6 106.0 L68.35 105.8 118.25 60.15 M136.6 114.25 L68.6 106.0 M68.2 105.7 L18.25 10.05"/></g><g id="c23"><g><use transform="matrix(1.0,0.0,0.0,1.0,0.0,0.0)" xlink:href="#c22"/></g></g><g id="c24"><g><use transform="matrix(1.0,0.0,0.0,1.0,0.0,0.0)" xlink:href="#c17"/></g><g><use transform="matrix(0.238861083984,-0.0867004394531,0.10026550293,0.233917236328,34.25,31.15)" xlink:href="#c19"/></g><g><use transform="matrix(0.238861083984,-0.0867004394531,0.10026550293,0.233917236328,4.25,10.3)" xlink:href="#c19"/></g><g><use transform="matrix(0.141098022461,-0.0378112792969,0.111373901367,0.225646972656,20.25,20.65)" filter="url(#filter21)" xlink:href="#c21"/></g><g><use transform="matrix(-0.155029296875,0.0513153076172,0.0841827392578,0.147033691406,22.6,2.3)" filter="url(#filter22)" xlink:href="#c23"/></g><g><use transform="matrix(0.419799804688,-0.173843383789,0.173843383789,0.419799804688,26.2,31.9)" xlink:href="#c15"/></g><g><use transform="matrix(0.162948608398,-0.0436706542969,0.128631591797,0.260604858398,20.35,20.95)" filter="url(#filter24)" xlink:href="#c21"/></g></g><filter id="filter21"><feColorMatrix in="SourceGraphic" type="matrix" values="0.0 0.0 0.0 0.0 0.796875 0.0 0.0 0.0 0.0 0.59765625 0.0 0.0 0.0 0.0 0.19921875 0.0 0.0 0.0 1.0 0.0" result="cxform"/><feComposite operator="in" in2="SourceGraphic" result="color-xform"/></filter><filter id="filter22"><feColorMatrix in="SourceGraphic" type="matrix" values="0.0 0.0 0.0 0.0 0.99609375 0.0 0.0 0.0 0.0 0.99609375 0.0 0.0 0.0 0.0 0.99609375 0.0 0.0 0.0 1.0 0.0" result="cxform"/><feComposite operator="in" in2="SourceGraphic" result="color-xform"/></filter><filter id="filter24"><feColorMatrix in="SourceGraphic" type="matrix" values="1.0 0.0 0.0 0.0 0.0 0.0 1.0 0.0 0.0 0.0 0.0 0.0 1.0 0.0 0.0 0.0 0.0 0.0 0.23046875 0.0" result="cxform"/><feComposite operator="in" in2="SourceGraphic" result="color-xform"/></filter></defs><g><g><use transform="matrix(1.0,0.0,0.0,1.0,0.0,0.0)" xlink:href="#c16"/></g><g><use transform="matrix(1.15496826172,0.0,0.0,1.15496826172,5.85,3.95)" xlink:href="#c24"/></g></g></svg>