<?xml version='1.0' encoding='UTF-8'?>
<svg xmlns:xlink="http://www.w3.org/1999/xlink" xmlns="http://www.w3.org/2000/svg" version="1.1" width="60px" height="60px" viewBox="0.0 0.0 60.0 60.0"><defs><g id="c1"><path fill="#000000" fill-opacity="0.498039215686" d="M0.95 0.9 L0.6 0.9 Q-1.05 0.65 -2.1 -0.45 -0.3 -1.35 2.15 -0.45 2.3 0.85 0.95 0.9"/><path fill="none" stroke="#000000" stroke-width="0.5" stroke-opacity="0.301960784314" d="M0.95 0.9 L2.05 0.8 M-2.1 -0.45 Q-1.05 0.65 0.6 0.9 L0.95 0.9"/></g><g id="c2"><g><use transform="matrix(1.0,0.0,0.0,1.0,0.0,0.0)" xlink:href="#c1"/></g></g><g id="c3"><path fill="#e5dea9" stroke="none" d="M-0.1 -0.2 L0.6 0.35 Q-0.2 0.6 -3.95 10.85 -7.45 20.45 -7.65 19.5 -7.55 19.8 -4.25 9.95 -0.9 -0.25 -0.1 -0.2"/><path fill="none" stroke="#000000" stroke-width="0.5" stroke-opacity="0.301960784314" d="M-0.1 -0.2 Q-0.9 -0.25 -4.25 9.95 -7.55 19.8 -7.65 19.5 -7.45 20.45 -3.95 10.85 -0.2 0.6 0.6 0.35"/></g><g id="c4"><path fill="#e5dea9" stroke="none" d="M0.6 0.35 Q-1.7 1.0 -1.3 5.1 -0.95 9.2 -0.95 10.35 L-1.05 13.75 Q-1.5 17.55 -3.75 18.25 -6.05 19.0 -6.1 15.6 -5.6 16.85 -4.5 16.65 -2.75 16.25 -2.7 12.35 L-2.9 5.95 Q-3.05 3.4 -2.6 1.5 -2.2 -0.3 -0.1 -0.2 L0.6 0.35"/><path fill="none" stroke="#000000" stroke-width="0.5" stroke-opacity="0.301960784314" d="M0.6 0.35 Q-1.7 1.0 -1.3 5.1 -0.95 9.2 -0.95 10.35 L-1.05 13.75 Q-1.5 17.55 -3.75 18.25 -6.05 19.0 -6.1 15.6 -5.6 16.85 -4.5 16.65 -2.75 16.25 -2.7 12.35 L-2.9 5.95 Q-3.05 3.4 -2.6 1.5 -2.2 -0.3 -0.1 -0.2"/></g><g id="c5"><g><use transform="matrix(1.0,0.0,0.0,1.0,0.0,0.0)" xlink:href="#c4"/></g></g><g id="c6"><path fill="#e5dea9" stroke="none" d="M-0.05 0.85 L0.7 0.25 Q1.6 0.1 6.5 9.9 11.25 19.3 11.3 19.0 11.15 20.0 6.2 10.8 0.9 1.05 -0.05 0.85"/><path fill="none" stroke="#000000" stroke-width="0.5" stroke-opacity="0.301960784314" d="M0.7 0.25 Q1.6 0.1 6.5 9.9 11.25 19.3 11.3 19.0 11.15 20.0 6.2 10.8 0.9 1.05 -0.05 0.85"/></g><g id="c7"><path fill="#e5dea9" stroke="none" d="M-0.35 -0.05 L-0.35 -0.9 Q0.65 -1.8 2.25 -1.35 4.2 -0.75 4.5 2.3 L4.65 7.3 Q4.45 9.2 4.55 10.8 4.65 12.45 5.35 12.75 6.2 12.8 6.7 11.8 7.1 14.5 4.7 14.15 3.45 13.95 3.05 12.55 2.7 11.15 2.9 8.95 L3.0 2.8 Q2.95 0.4 1.7 -0.2 L-0.35 -0.05"/><path fill="none" stroke="#000000" stroke-width="0.5" stroke-opacity="0.301960784314" d="M-0.35 -0.05 L1.7 -0.2 Q2.95 0.4 3.0 2.8 L2.9 8.95 Q2.7 11.15 3.05 12.55 3.45 13.95 4.7 14.15 7.1 14.5 6.7 11.8 6.2 12.8 5.35 12.75 4.65 12.45 4.55 10.8 4.45 9.2 4.65 7.3 L4.5 2.3 Q4.2 -0.75 2.25 -1.35 0.65 -1.8 -0.35 -0.9"/></g><g id="c8"><g><use transform="matrix(1.0,0.0,0.0,1.0,0.0,0.0)" xlink:href="#c7"/></g></g><g id="c9"><path fill="#000000" fill-opacity="0.00392156862745" d="M0.0 0.0 L60.0 0.0 60.0 60.0 0.0 60.0 0.0 0.0"/></g><g id="c10"><path fill="none" stroke="#000000" stroke-width="1.0" stroke-opacity="0.301960784314" d="M0.7 12.25 Q-0.45 9.75 0.75 8.25 1.2 7.6 2.15 7.15 2.8 6.7 3.8 6.35 L6.45 5.5 8.5 6.75 8.7 6.85 Q11.9 8.2 14.85 7.25 17.8 6.35 18.85 3.6 L18.9 3.4 19.3 1.35 22.3 0.4 Q26.55 -1.0 28.45 3.1 L41.35 31.7 Q42.95 35.15 40.2 36.7 39.5 37.3 38.3 37.65 L36.35 38.3 36.15 38.15 34.0 36.9 33.8 36.8 Q30.65 35.45 27.7 36.35 24.75 37.3 23.7 40.05 L23.6 40.25 Q23.25 41.25 23.25 42.3 L23.25 42.35 23.25 42.55 19.8 43.65 Q17.15 44.45 15.5 43.3 14.35 42.55 13.65 40.9 L0.7 12.25"/><path fill="#9d147b" stroke="none" d="M35.55 22.3 L28.25 6.1 27.75 4.95 Q26.05 1.25 21.6 2.85 20.8 5.65 18.85 7.6 17.0 9.45 14.2 9.8 11.45 9.95 9.0 8.8 L6.4 7.45 Q1.65 9.1 3.35 12.8 L8.25 23.65 15.0 38.6 15.2 39.0 Q16.8 42.25 20.45 41.1 L21.65 40.55 Q22.7 36.9 25.05 35.5 27.4 34.15 30.2 34.2 33.05 34.2 36.25 36.1 L37.2 35.7 Q41.1 34.5 39.35 30.75 L35.55 22.3 M19.3 1.35 L22.3 0.4 Q26.55 -1.0 28.45 3.1 L41.35 31.7 Q42.95 35.15 40.2 36.7 L38.9 37.25 36.15 38.15 34.0 36.9 33.8 36.8 Q30.65 35.45 27.7 36.35 24.75 37.3 23.7 40.05 L23.6 40.25 Q23.25 41.25 23.25 42.3 L23.2 42.3 20.4 43.2 19.1 43.5 17.3 43.4 Q15.3 42.9 14.2 40.5 L5.45 20.95 1.35 11.8 Q0.4 9.65 1.1 8.3 1.45 7.65 2.15 7.15 2.8 6.7 3.8 6.35 L6.45 5.5 8.5 6.75 8.7 6.85 Q11.9 8.2 14.85 7.25 17.8 6.35 18.85 3.6 L18.9 3.4 19.3 1.35"/><path fill="#c47fad" stroke="none" d="M28.25 6.1 L35.55 22.3 39.35 30.75 Q41.1 34.5 37.2 35.7 L36.25 36.1 Q33.05 34.2 30.2 34.2 27.4 34.15 25.05 35.5 22.7 36.9 21.65 40.55 L20.45 41.1 Q16.8 42.25 15.2 39.0 L15.0 38.6 8.25 23.65 3.35 12.8 Q1.65 9.1 6.4 7.45 L9.0 8.8 Q11.45 9.95 14.2 9.8 17.0 9.45 18.85 7.6 20.8 5.65 21.6 2.85 26.05 1.25 27.75 4.95 L28.25 6.1 M34.0 32.9 L33.7 32.1 Q33.45 30.9 34.1 30.1 34.75 29.3 35.95 29.35 L35.8 29.0 26.5 8.3 26.25 7.85 Q24.9 5.45 22.05 6.35 19.75 11.1 14.85 11.65 11.45 11.85 9.1 10.55 L9.55 11.6 Q9.8 12.8 9.15 13.6 8.4 14.45 7.1 14.4 L6.8 14.4 6.95 14.6 16.3 35.2 Q16.8 36.4 17.65 37.0 18.8 37.8 19.8 37.35 21.8 33.7 25.95 32.3 30.35 30.8 34.0 32.9"/><path fill="#fcf2cf" stroke="none" d="M22.05 6.35 Q24.9 5.45 26.25 7.85 L26.5 8.3 35.8 29.0 35.95 29.35 Q34.75 29.3 34.1 30.1 33.45 30.9 33.7 32.1 L34.0 32.9 Q30.35 30.8 25.95 32.3 21.8 33.7 19.8 37.35 18.8 37.8 17.65 37.0 16.8 36.4 16.3 35.2 L6.95 14.6 6.8 14.4 7.1 14.4 Q8.4 14.45 9.15 13.6 9.8 12.8 9.55 11.6 L9.1 10.55 Q11.45 11.85 14.85 11.65 19.75 11.1 22.05 6.35"/><path fill="#300525" stroke="none" d="M40.2 36.7 Q39.5 37.3 38.3 37.65 L36.35 38.3 36.15 38.15 38.9 37.25 40.2 36.7 M23.25 42.3 L23.25 42.35 23.2 42.3 23.25 42.3 M20.1 43.55 L19.8 43.65 Q17.15 44.45 15.5 43.3 L17.3 43.4 19.1 43.5 20.1 43.55 M4.6 20.9 L0.7 12.25 Q-0.45 9.75 0.75 8.25 L1.1 8.3 Q0.4 9.65 1.35 11.8 L5.45 20.95 4.6 20.9"/><path fill="#630a4c" stroke="none" d="M23.25 42.35 L23.25 42.55 20.1 43.55 19.1 43.5 20.4 43.2 23.2 42.3 23.25 42.35 M15.5 43.3 Q14.35 42.55 13.65 40.9 L4.6 20.9 5.45 20.95 14.2 40.5 Q15.3 42.9 17.3 43.4 L15.5 43.3 M0.75 8.25 Q1.2 7.6 2.15 7.15 1.45 7.65 1.1 8.3 L0.75 8.25"/><path fill="none" stroke="#bf9900" stroke-width="1.0" stroke-opacity="0.749019607843" d="M28.25 6.1 L35.55 22.3 M15.0 38.6 L8.25 23.65"/><path fill="none" stroke="#000000" stroke-width="0.5" stroke-opacity="0.301960784314" d="M19.3 1.35 L22.3 0.4 Q26.55 -1.0 28.45 3.1 L41.35 31.7 Q42.95 35.15 40.2 36.7 39.5 37.3 38.3 37.65 L36.35 38.3 M23.25 42.55 L20.1 43.55 19.8 43.65 Q17.15 44.45 15.5 43.3 14.35 42.55 13.65 40.9 L4.6 20.9 0.7 12.25 Q-0.45 9.75 0.75 8.25 1.2 7.6 2.15 7.15 2.8 6.7 3.8 6.35 L6.45 5.5 M1.1 8.3 Q1.45 7.65 2.15 7.15 M5.45 20.95 L1.35 11.8 Q0.4 9.65 1.1 8.3 M17.3 43.4 Q15.3 42.9 14.2 40.5 L5.45 20.95 M19.1 43.5 L17.3 43.4 M23.2 42.3 L20.4 43.2 19.1 43.5 M23.25 42.3 L23.2 42.3 M40.2 36.7 L38.9 37.25 36.15 38.15"/><path fill="none" stroke="#ffcc00" stroke-width="1.0" stroke-opacity="0.749019607843" d="M35.55 22.3 L39.35 30.75 Q41.1 34.5 37.2 35.7 L36.25 36.1 M21.65 40.55 L20.45 41.1 Q16.8 42.25 15.2 39.0 L15.0 38.6 M8.25 23.65 L3.35 12.8 Q1.65 9.1 6.4 7.45 M21.6 2.85 Q26.05 1.25 27.75 4.95 L28.25 6.1"/><path fill="none" stroke="#f0b92b" stroke-width="0.5" d="M22.05 6.35 Q24.9 5.45 26.25 7.85 L26.5 8.3 35.8 29.0 35.95 29.35 Q34.75 29.3 34.1 30.1 33.45 30.9 33.7 32.1 L34.0 32.9 M19.8 37.35 Q18.8 37.8 17.65 37.0 16.8 36.4 16.3 35.2 L6.95 14.6 6.8 14.4 7.1 14.4 Q8.4 14.45 9.15 13.6 9.8 12.8 9.55 11.6 L9.1 10.55"/><path fill="none" stroke="#ffaa00" stroke-width="1.0" stroke-opacity="0.749019607843" d="M36.25 36.1 Q33.05 34.2 30.2 34.2 27.4 34.15 25.05 35.5 22.7 36.9 21.65 40.55 M6.4 7.45 L9.0 8.8 Q11.45 9.95 14.2 9.8 17.0 9.45 18.85 7.6 20.8 5.65 21.6 2.85"/><path fill="none" stroke="#ffaa00" stroke-width="0.5" stroke-opacity="0.749019607843" d="M34.0 32.9 Q30.35 30.8 25.95 32.3 21.8 33.7 19.8 37.35 M9.1 10.55 Q11.45 11.85 14.85 11.65 19.75 11.1 22.05 6.35"/></g><g id="c11"><path fill="#7fdbfe" stroke="none" d="M10.75 4.9 Q10.75 4.6 10.9 4.35 11.25 3.45 11.95 2.75 13.3 1.5 14.35 2.1 15.4 2.7 14.95 4.45 14.7 5.4 14.1 6.15 L13.75 6.5 Q13.1 7.15 12.35 7.35 L11.4 7.2 Q10.95 6.9 10.75 6.4 10.5 5.75 10.75 4.9 M7.5 5.9 Q7.0 5.85 6.6 5.5 6.05 5.0 5.8 4.15 L5.7 3.6 Q5.55 2.65 5.8 1.7 6.25 0.0 7.5 0.0 L7.6 0.0 Q8.85 0.0 9.3 1.7 9.55 2.65 9.4 3.6 L9.3 4.15 8.5 5.5 7.6 5.9 7.5 5.9 M4.35 4.9 Q4.6 5.75 4.35 6.4 L3.7 7.2 2.75 7.35 Q2.0 7.15 1.35 6.5 L1.0 6.15 Q0.4 5.4 0.15 4.45 -0.3 2.7 0.75 2.1 1.8 1.5 3.15 2.75 3.85 3.45 4.2 4.35 L4.35 4.9 M5.5 13.7 Q4.45 13.9 3.65 12.95 2.75 12.0 3.2 10.25 3.7 8.5 5.25 7.6 6.4 6.9 7.55 7.0 8.75 6.9 9.9 7.6 11.45 8.5 11.95 10.25 12.35 12.0 11.5 12.95 10.7 13.9 9.65 13.7 8.55 13.5 7.55 12.6 6.55 13.5 5.5 13.7"/></g><g id="c12"><g><use transform="matrix(1.0,0.0,0.0,1.0,0.0,0.0)" xlink:href="#c11"/></g></g><radialGradient gradientUnits="userSpaceOnUse" r="819.2" cx="0" cy="0" spreadMethod="pad" gradientTransform="matrix(0.0914459228516,0.0,0.0,0.0914459228516,0.6,3.4)" id="gradient1"><stop offset="0.0" stop-color="#ffffff"/><stop offset="1.0" stop-color="#ffffff" stop-opacity="0.0"/></radialGradient><g id="c13"><path stroke="none" fill="url(#gradient1)" d="M36.65 -54.65 Q60.05 -42.0 69.75 -17.95 80.55 8.9 68.0 34.1 55.45 59.35 26.8 68.2 -1.8 77.05 -29.7 64.3 -57.6 51.6 -68.45 24.75 -79.3 -2.05 -66.75 -27.25 L-66.7 -27.3 Q-54.1 -52.5 -25.5 -61.4 3.1 -70.2 31.0 -57.5 L36.65 -54.65"/></g><g id="c14"><g><use transform="matrix(1.0,0.0,0.0,1.0,0.0,0.0)" xlink:href="#c13"/></g></g><radialGradient gradientUnits="userSpaceOnUse" r="819.2" cx="0" cy="0" spreadMethod="pad" gradientTransform="matrix(0.209197998047,0.0,0.0,0.177108764648,67.15,107.2)" id="gradient2"><stop offset="0.356862745098" stop-color="#ffffff"/><stop offset="0.670588235294" stop-opacity="0.0"/></radialGradient><g id="c15"><path fill="none" stroke-linejoin="round" stroke-linecap="round" stroke="url(#gradient2)" stroke-width="0.5" d="M136.55 165.8 L68.6 106.0 68.4 106.0 118.25 201.5 M68.3 105.8 L68.35 105.8 68.3 105.8 68.3 105.85 68.4 106.0 68.3 106.0 86.55 211.5 M68.3 105.8 L68.3 105.85 68.3 106.0 68.15 105.95 18.25 151.55 M68.3 105.85 L68.25 105.85 68.3 106.0 50.0 193.2 M68.25 105.85 L68.15 105.95 0.05 97.7 M68.3 105.85 L68.25 105.8 68.25 105.85 M68.25 105.8 L68.2 105.7 0.0 45.7 M68.3 105.8 L68.25 105.75 68.25 105.8 M68.25 105.75 L68.2 105.7 18.25 10.05 M68.6 106.0 L68.35 105.8 118.25 60.15 M86.6 18.35 L68.3 105.8 M136.6 114.25 L68.6 106.0 M68.25 105.75 L49.95 0.05"/></g><g id="c16"><g><use transform="matrix(1.0,0.0,0.0,1.0,0.0,0.0)" xlink:href="#c15"/></g></g><g id="c17"><g><use transform="matrix(1.0,0.0,0.0,1.0,0.0,0.0)" xlink:href="#c10"/></g><g><use transform="matrix(0.238861083984,-0.0867004394531,0.10026550293,0.233917236328,34.25,31.15)" xlink:href="#c12"/></g><g><use transform="matrix(0.238861083984,-0.0867004394531,0.10026550293,0.233917236328,4.25,10.3)" xlink:href="#c12"/></g><g><use transform="matrix(0.141098022461,-0.0378112792969,0.111373901367,0.225646972656,20.25,20.65)" filter="url(#filter10)" xlink:href="#c14"/></g><g><use transform="matrix(-0.155029296875,0.0513153076172,0.0841827392578,0.147033691406,22.6,3.15)" filter="url(#filter11)" xlink:href="#c16"/></g></g><filter id="filter10"><feColorMatrix in="SourceGraphic" type="matrix" values="0.0 0.0 0.0 0.0 0.796875 0.0 0.0 0.0 0.0 0.59765625 0.0 0.0 0.0 0.0 0.19921875 0.0 0.0 0.0 1.0 0.0" result="cxform"/><feComposite operator="in" in2="SourceGraphic" result="color-xform"/></filter><filter id="filter11"><feColorMatrix in="SourceGraphic" type="matrix" values="0.0 0.0 0.0 0.0 0.99609375 0.0 0.0 0.0 0.0 0.99609375 0.0 0.0 0.0 0.0 0.99609375 0.0 0.0 0.0 1.0 0.0" result="cxform"/><feComposite operator="in" in2="SourceGraphic" result="color-xform"/></filter><radialGradient gradientUnits="userSpaceOnUse" r="819.2" cx="0" cy="0" spreadMethod="pad" gradientTransform="matrix(0.0226440429688,0.0,0.0,0.0145416259766,0.0,0.0)" id="gradient3"><stop offset="0.38431372549" stop-opacity="0.549019607843"/><stop offset="1.0" stop-opacity="0.0"/></radialGradient><g id="c18"><path stroke="none" fill="url(#gradient3)" d="M18.4 0.0 Q18.4 4.9 13.0 8.35 7.6 11.8 0.0 11.8 -7.6 11.8 -13.0 8.35 -18.35 4.9 -18.35 0.0 -18.35 -4.85 -13.0 -8.35 -7.6 -11.8 0.0 -11.8 7.6 -11.8 13.0 -8.35 18.4 -4.85 18.4 0.0"/></g><g id="c19"><path fill="#4a320e" stroke="none" d="M-2.4 -1.5 Q0.05 -1.3 2.05 0.05 4.0 1.45 2.15 1.45 0.25 1.5 -1.85 0.3 -3.95 -0.95 -2.4 -1.5"/><path fill="none" stroke="#000000" stroke-width="0.5" stroke-opacity="0.301960784314" d="M-2.4 -1.5 Q-3.95 -0.95 -1.85 0.3 0.25 1.5 2.15 1.45 4.0 1.45 2.05 0.05 0.05 -1.3 -2.4 -1.5"/></g><g id="c20"><path fill="#4a320e" stroke="none" d="M-1.0 3.2 Q-2.35 1.75 -3.1 -0.75 -1.9 -3.6 -0.85 -3.6 2.4 -2.45 3.15 -1.1 3.25 1.95 1.4 3.55 L-1.0 3.2"/><path fill="none" stroke="#000000" stroke-width="0.5" stroke-opacity="0.301960784314" d="M-1.0 3.2 Q-2.35 1.75 -3.1 -0.75 -1.9 -3.6 -0.85 -3.6 2.4 -2.45 3.15 -1.1 3.25 1.95 1.4 3.55"/><path fill="#644311" stroke="none" d="M-0.4 -0.3 L0.6 0.3 2.45 0.15 Q2.85 -0.85 2.45 -1.65 L1.55 -2.45 Q0.55 -3.15 -0.5 -3.3 -1.45 -3.45 -1.95 -3.0 L-2.0 -2.95 Q-2.35 -2.6 -1.9 -1.8 L-0.4 -0.3"/></g><g id="c21"><path fill="#4a3b29" stroke="none" d="M0.95 -3.35 L2.8 -2.9 Q0.45 -1.55 0.4 1.55 0.35 4.7 2.25 5.9 L-2.55 5.45 Q-4.8 4.2 -4.4 0.5 L-1.9 0.55 -1.25 -1.55 Q-0.65 -3.1 0.95 -3.35 M-7.65 2.7 Q-10.45 -0.1 -9.8 -3.3 L-9.75 -3.55 -9.5 -4.25 Q-9.85 -3.4 -8.75 -2.2 -9.05 0.6 -7.65 2.7"/><path fill="#5d4a34" stroke="none" d="M-9.5 -4.25 Q-8.7 -5.95 -6.25 -5.95 L-5.85 -5.9 Q-8.2 -5.0 -8.75 -2.2 -9.85 -3.4 -9.5 -4.25 M-1.45 -4.3 L-1.0 -4.1 0.3 -3.6 0.95 -3.35 Q-0.65 -3.1 -1.25 -1.55 L-1.9 0.55 -4.4 0.5 -4.4 0.45 Q-3.6 -3.6 -1.45 -4.3"/><path fill="#8e8148" stroke="none" d="M-5.85 -5.9 Q-4.55 -5.75 -2.3 -4.7 L-1.45 -4.3 Q-3.6 -3.6 -4.4 0.45 L-4.35 0.35 -4.4 0.5 Q-7.85 -0.4 -8.75 -2.2 -8.2 -5.0 -5.85 -5.9"/><path fill="#716739" stroke="none" d="M2.8 -2.9 Q6.0 -2.2 8.85 -2.8 L9.9 3.5 Q7.7 4.95 4.4 5.65 L2.25 5.9 Q0.35 4.7 0.4 1.55 0.45 -1.55 2.8 -2.9 M-2.55 5.45 Q-4.45 5.05 -5.8 4.2 L-7.65 2.7 Q-9.05 0.6 -8.75 -2.2 -7.85 -0.4 -4.4 0.5 -4.8 4.2 -2.55 5.45"/><path fill="#2e2519" stroke="none" d="M-4.4 0.45 L-4.4 0.5 -4.35 0.35 -4.4 0.45"/><path fill="none" stroke="#000000" stroke-width="0.5" stroke-opacity="0.301960784314" d="M0.95 -3.35 L2.8 -2.9 Q6.0 -2.2 8.85 -2.8 L9.9 3.5 Q7.7 4.95 4.4 5.65 L2.25 5.9 -2.55 5.45 Q-4.45 5.05 -5.8 4.2 L-7.65 2.7 Q-10.45 -0.1 -9.8 -3.3 L-9.75 -3.55 -9.5 -4.25 Q-8.7 -5.95 -6.25 -5.95 L-5.85 -5.9 Q-4.55 -5.75 -2.3 -4.7 L-1.45 -4.3 -1.0 -4.1 0.3 -3.6 0.95 -3.35"/></g><g id="c22"><path fill="#4a320e" stroke="none" d="M-0.85 -1.95 Q0.05 -3.55 0.7 -2.45 1.75 0.4 0.55 2.45 -0.15 3.6 -0.9 1.65 -1.65 -0.3 -0.85 -1.95"/><path fill="none" stroke="#000000" stroke-width="0.5" stroke-opacity="0.301960784314" d="M-0.85 -1.95 Q0.05 -3.55 0.7 -2.45 1.75 0.4 0.55 2.45 -0.15 3.6 -0.9 1.65 -1.65 -0.3 -0.85 -1.95"/></g><g id="c23"><path fill="#4a320e" stroke="none" d="M0.4 5.05 Q-2.2 3.85 -3.6 1.35 -3.5 -1.95 -1.05 -4.2 1.65 -6.85 3.3 -2.6 3.85 -0.2 3.3 1.8 L1.95 4.8 Q1.1 5.3 0.4 5.05"/><path fill="none" stroke="#000000" stroke-width="0.5" stroke-opacity="0.301960784314" d="M0.4 5.05 Q-2.2 3.85 -3.6 1.35 -3.5 -1.95 -1.05 -4.2 1.65 -6.85 3.3 -2.6 3.85 -0.2 3.3 1.8 L1.95 4.8"/><path fill="#704b14" stroke="none" d="M1.25 -0.05 L1.0 1.1 Q0.5 2.05 -0.75 2.3 -2.15 1.9 -2.7 1.0 L-2.75 -0.15 Q-2.65 -1.4 -1.9 -2.25 -1.2 -3.0 -0.35 -3.05 L-0.2 -3.05 Q0.5 -3.05 0.9 -2.15 1.35 -1.25 1.25 -0.05"/></g><g id="c24"><path fill="#4a4132" stroke="none" d="M-2.0 0.8 Q-2.4 0.0 -2.4 -1.15 L-2.35 -2.25 Q-0.6 -3.45 1.5 -4.5 2.45 -3.4 2.45 -1.15 L2.45 -0.55 Q1.35 2.65 -1.1 3.8 -2.0 2.65 -2.0 0.8"/><path fill="none" stroke="#000000" stroke-width="0.5" stroke-opacity="0.301960784314" d="M-2.0 0.8 Q-2.4 0.0 -2.4 -1.15 L-2.35 -2.25 Q-0.6 -3.45 1.5 -4.5 2.45 -3.4 2.45 -1.15 L2.45 -0.55 Q1.35 2.65 -1.1 3.8 -2.0 2.65 -2.0 0.8"/></g><g id="c25"><path fill="#4a4132" stroke="none" d="M0.3 -2.5 L2.0 -2.05 Q2.05 -0.85 1.05 0.4 -0.6 0.8 -1.9 2.45 -2.65 -0.7 0.3 -2.5"/><path fill="none" stroke="#000000" stroke-width="0.5" stroke-opacity="0.301960784314" d="M0.3 -2.5 L2.0 -2.05 Q2.05 -0.85 1.05 0.4 -0.6 0.8 -1.9 2.45 -2.65 -0.7 0.3 -2.5"/></g><g id="c26"><path fill="#4a4132" stroke="none" d="M-5.45 -1.5 Q-5.0 -3.4 -4.1 -4.0 0.55 -4.3 5.15 -3.05 5.7 -1.3 5.2 0.5 5.3 2.9 4.6 3.95 -2.5 4.65 -5.45 -1.5"/><path fill="none" stroke="#000000" stroke-width="0.5" stroke-opacity="0.301960784314" d="M5.2 0.5 Q5.3 2.9 4.6 3.95 -2.5 4.65 -5.45 -1.5"/></g><g id="c27"><path fill="#40252e" stroke="none" d="M5.55 -0.35 Q5.55 1.1 3.9 2.25 2.3 3.4 -0.05 3.55 -2.35 3.65 -4.0 2.7 -5.6 1.75 -5.6 0.3 -5.6 -1.15 -4.0 -2.3 -2.35 -3.45 -0.05 -3.6 2.3 -3.7 3.9 -2.75 5.55 -1.85 5.55 -0.35"/><path fill="none" stroke="#000000" stroke-width="0.5" stroke-opacity="0.301960784314" d="M5.55 -0.35 Q5.55 1.1 3.9 2.25 2.3 3.4 -0.05 3.55 -2.35 3.65 -4.0 2.7 -5.6 1.75 -5.6 0.3 -5.6 -1.15 -4.0 -2.3 -2.35 -3.45 -0.05 -3.6 2.3 -3.7 3.9 -2.75 5.55 -1.85 5.55 -0.35"/></g><g id="c28"><path fill="#544200" stroke="none" d="M27.05 58.15 L46.15 76.7 Q46.05 78.05 44.15 77.9 31.2 69.55 23.45 61.15 22.3 56.65 27.05 58.15"/><path fill="none" stroke="#000000" stroke-width="0.5" stroke-opacity="0.301960784314" d="M27.05 58.15 L46.15 76.7 Q46.05 78.05 44.15 77.9 31.2 69.55 23.45 61.15 22.3 56.65 27.05 58.15"/><path fill="#544200" stroke="none" d="M148.3 56.75 L129.2 75.3 Q129.3 76.65 131.2 76.5 144.15 68.15 151.9 59.75 153.05 55.25 148.3 56.75"/><path fill="none" stroke="#000000" stroke-width="0.5" stroke-opacity="0.301960784314" d="M148.3 56.75 L129.2 75.3 Q129.3 76.65 131.2 76.5 144.15 68.15 151.9 59.75 153.05 55.25 148.3 56.75"/><path fill="#544200" stroke="none" d="M65.85 60.75 L82.55 81.55 Q82.25 82.9 80.45 82.5 68.6 72.6 61.95 63.3 61.35 58.75 65.85 60.75"/><path fill="none" stroke="#000000" stroke-width="0.5" stroke-opacity="0.301960784314" d="M65.85 60.75 L82.55 81.55 Q82.25 82.9 80.45 82.5 68.6 72.6 61.95 63.3 61.35 58.75 65.85 60.75"/><path fill="#6d5701" stroke="none" d="M162.7 50.8 Q162.7 62.25 140.7 70.35 118.75 78.5 87.7 78.5 56.7 78.5 34.75 70.35 12.75 62.25 12.75 50.8 12.75 39.35 34.75 31.2 56.7 23.1 87.7 23.1 118.75 23.1 140.7 31.2 162.7 39.35 162.7 50.8"/><path fill="none" stroke="#000000" stroke-width="0.5" stroke-opacity="0.301960784314" d="M162.7 50.8 Q162.7 62.25 140.7 70.35 118.75 78.5 87.7 78.5 56.7 78.5 34.75 70.35 12.75 62.25 12.75 50.8 12.75 39.35 34.75 31.2 56.7 23.1 87.7 23.1 118.75 23.1 140.7 31.2 162.7 39.35 162.7 50.8"/><path fill="#5d3027" stroke="none" d="M175.55 37.25 Q175.55 52.25 149.85 62.9 124.15 73.55 87.8 73.55 51.45 73.55 25.75 62.9 0.0 52.25 0.0 37.25 0.0 22.2 25.75 11.5 51.45 0.9 87.8 0.9 124.15 0.9 149.85 11.5 175.55 22.2 175.55 37.25"/><path fill="none" stroke="#000000" stroke-width="0.5" stroke-opacity="0.301960784314" d="M175.55 37.25 Q175.55 52.25 149.85 62.9 124.15 73.55 87.8 73.55 51.45 73.55 25.75 62.9 0.0 52.25 0.0 37.25 0.0 22.2 25.75 11.5 51.45 0.9 87.8 0.9 124.15 0.9 149.85 11.5 175.55 22.2 175.55 37.25"/><path fill="#6d382e" stroke="none" d="M170.35 34.6 Q170.35 48.5 146.15 58.3 121.95 68.2 87.75 68.2 53.55 68.2 29.35 58.3 5.15 48.5 5.15 34.6 5.15 20.7 29.35 10.8 53.55 1.0 87.75 1.0 121.95 1.0 146.15 10.8 170.35 20.7 170.35 34.6"/><path fill="#806602" stroke="none" d="M165.9 31.25 Q165.9 44.2 143.0 53.35 120.1 62.55 87.75 62.55 55.4 62.55 32.45 53.35 9.55 44.2 9.55 31.25 9.55 18.35 32.45 9.15 55.4 0.0 87.75 0.0 120.1 0.0 143.0 9.15 165.9 18.35 165.9 31.25"/><path fill="none" stroke="#000000" stroke-width="0.5" stroke-opacity="0.301960784314" d="M165.9 31.25 Q165.9 44.2 143.0 53.35 120.1 62.55 87.75 62.55 55.4 62.55 32.45 53.35 9.55 44.2 9.55 31.25 9.55 18.35 32.45 9.15 55.4 0.0 87.75 0.0 120.1 0.0 143.0 9.15 165.9 18.35 165.9 31.25"/><path fill="#5d3027" stroke="none" d="M106.9 3.75 Q102.9 12.6 106.1 18.0 111.75 27.6 102.95 25.95 94.1 24.2 84.55 11.8 90.55 27.75 102.1 35.9 111.75 42.45 120.6 43.95 126.6 45.1 125.8 37.9 124.95 30.9 132.15 31.35 142.4 31.7 151.25 41.0 146.2 45.7 136.35 49.65 116.25 57.75 87.8 57.75 L71.45 57.05 Q76.6 46.9 73.1 41.0 67.45 31.4 76.25 33.05 85.1 34.8 94.65 47.2 88.65 31.25 77.1 23.1 67.45 16.55 58.6 15.05 52.6 13.9 53.4 21.1 54.25 28.1 47.05 27.65 36.35 27.25 27.15 17.2 31.8 13.75 39.2 10.8 59.35 2.75 87.8 2.75 L106.9 3.75"/><path fill="#9f8004" stroke="none" d="M151.25 41.0 Q142.4 31.7 132.15 31.35 124.95 30.9 125.8 37.9 126.6 45.1 120.6 43.95 111.75 42.45 102.1 35.9 90.55 27.75 84.55 11.8 94.1 24.2 102.95 25.95 111.75 27.6 106.1 18.0 102.9 12.6 106.9 3.75 123.35 5.6 136.35 10.8 156.5 18.85 156.5 30.25 156.5 36.05 151.25 41.0 M27.15 17.2 Q36.35 27.25 47.05 27.65 54.25 28.1 53.4 21.1 52.6 13.9 58.6 15.05 67.45 16.55 77.1 23.1 88.65 31.25 94.65 47.2 85.1 34.8 76.25 33.05 67.45 31.4 73.1 41.0 76.6 46.9 71.45 57.05 53.3 55.3 39.2 49.65 19.1 41.6 19.1 30.25 19.1 23.05 27.15 17.2"/><path fill="#e8d000" stroke="none" d="M57.4 15.95 Q76.3 17.85 89.8 37.95 73.8 22.35 57.4 15.95"/><path fill="#e8d000" stroke="none" d="M85.9 13.75 Q95.4 26.05 106.2 27.1 92.35 28.7 85.9 13.75"/><path fill="#e8d000" stroke="none" d="M113.0 5.25 Q158.0 13.6 155.2 34.05 148.0 13.05 113.0 5.25"/><path fill="#e8d000" stroke="none" d="M41.9 55.25 Q78.1 61.35 97.2 61.4 62.3 63.7 41.9 55.25"/></g><radialGradient gradientUnits="userSpaceOnUse" r="819.2" cx="0" cy="0" spreadMethod="pad" gradientTransform="matrix(0.0103149414062,0.000518798828125,0.00221252441406,0.0107116699219,0.55,-1.15)" id="gradient4"><stop offset="0.61568627451" stop-color="#d7d3a1"/><stop offset="0.952941176471" stop-color="#828061"/></radialGradient><g id="c29"><path stroke="none" fill="url(#gradient4)" d="M5.85 -1.75 Q5.75 3.0 4.0 5.7 -1.3 6.65 -5.95 2.65 L-6.45 1.65 -6.55 1.1 Q-6.95 -1.85 -6.0 -4.9 -5.05 -5.85 -4.05 -6.0 -2.75 -3.75 5.85 -1.75"/><path fill="#807e5f" stroke="none" d="M-5.95 2.65 Q-1.3 6.65 4.0 5.7 3.0 7.25 1.4 8.1 L1.0 8.35 Q-0.85 7.65 -2.5 6.55 -4.8 4.55 -5.95 2.65"/><path fill="none" stroke="#000000" stroke-width="0.5" stroke-opacity="0.301960784314" d="M5.85 -1.75 Q-2.75 -3.75 -4.05 -6.0 -5.05 -5.85 -6.0 -4.9 -6.95 -1.85 -6.55 1.1 L-6.45 1.65 -5.95 2.65 M1.4 8.1 L1.0 8.35 Q-0.85 7.65 -2.5 6.55 -4.8 4.55 -5.95 2.65"/><path fill="#000000" fill-opacity="0.117647058824" d="M5.65 -0.4 Q5.9 1.15 4.9 4.2 4.8 3.0 3.6 2.2 L1.0 0.6 Q-2.5 -1.85 -3.85 -4.25 1.2 0.4 5.65 -0.4"/><path fill="#a7934e" stroke="none" d="M-3.95 -4.35 Q-5.45 -6.95 -3.75 -8.35 -3.85 -7.15 -3.25 -5.8 -1.15 -3.9 6.65 -4.0 L5.7 -1.45 Q0.55 -1.85 -3.95 -4.35"/><path fill="none" stroke="#000000" stroke-width="0.5" stroke-opacity="0.301960784314" d="M-3.95 -4.35 Q-5.45 -6.95 -3.75 -8.35 -3.85 -7.15 -3.25 -5.8 -1.15 -3.9 6.65 -4.0 L5.7 -1.45"/><path fill="#e6dba1" stroke="none" d="M-4.05 -7.6 L-3.4 -5.7 Q-2.35 -4.8 -0.3 -4.35 -3.15 -4.5 -4.1 -5.45 -4.45 -6.15 -4.05 -7.6"/></g><g id="c30"><path fill="#776850" stroke="none" d="M-5.1 -2.35 Q-3.1 -4.9 4.85 -2.4 5.95 -0.05 5.6 2.55 -2.4 4.8 -4.45 2.55 -6.55 0.25 -5.1 -2.35"/><path fill="none" stroke="#000000" stroke-width="0.5" stroke-opacity="0.301960784314" d="M-5.1 -2.35 Q-3.1 -4.9 4.85 -2.4 5.95 -0.05 5.6 2.55 -2.4 4.8 -4.45 2.55 -6.55 0.25 -5.1 -2.35"/></g><g id="c31"><path fill="#645843" stroke="none" d="M-4.05 -4.0 Q1.45 -7.25 6.2 -4.0 7.9 -1.25 7.45 2.1 5.75 5.15 1.25 5.55 -6.05 6.2 -7.6 1.95 -7.65 -0.7 -4.05 -4.0"/><path fill="none" stroke="#000000" stroke-width="0.5" stroke-opacity="0.301960784314" d="M-4.05 -4.0 Q1.45 -7.25 6.2 -4.0 7.9 -1.25 7.45 2.1 5.75 5.15 1.25 5.55 -6.05 6.2 -7.6 1.95 -7.65 -0.7 -4.05 -4.0"/></g><g id="c32"><path fill="#645843" stroke="none" d="M-7.8 6.5 Q-7.65 1.55 -5.9 -3.0 -2.0 -8.4 4.4 -7.1 6.15 -6.55 7.45 -4.4 9.0 -0.4 4.4 6.2 -1.65 8.2 -7.8 6.5"/><path fill="none" stroke="#000000" stroke-width="0.5" stroke-opacity="0.301960784314" d="M-7.8 6.5 Q-7.65 1.55 -5.9 -3.0 -2.0 -8.4 4.4 -7.1 6.15 -6.55 7.45 -4.4 9.0 -0.4 4.4 6.2"/><path fill="#a38e6d" stroke="none" d="M5.35 -5.6 Q5.9 -4.7 4.7 -3.95 3.45 -3.25 1.8 -2.65 L-2.45 -2.2 Q-5.05 -2.35 -4.6 -3.3 -4.2 -4.25 -2.85 -5.3 -1.55 -6.3 0.6 -6.8 L3.75 -6.9 Q4.85 -6.55 5.35 -5.6"/></g><g id="c33"><path fill="#776850" stroke="none" d="M-6.1 1.45 Q-5.6 0.35 -4.25 -0.4 -2.95 -1.15 -0.65 -1.85 0.2 -3.35 1.2 -4.25 3.2 -5.2 5.2 -5.25 7.05 -2.0 5.2 1.65 3.7 3.45 0.3 5.05 L-0.6 5.25 -3.6 4.7 Q-5.5 3.45 -6.1 1.45"/><path fill="none" stroke="#000000" stroke-width="0.5" stroke-opacity="0.301960784314" d="M-6.1 1.45 Q-5.6 0.35 -4.25 -0.4 -2.95 -1.15 -0.65 -1.85 0.2 -3.35 1.2 -4.25 3.2 -5.2 5.2 -5.25 M5.2 1.65 Q3.7 3.45 0.3 5.05 M-0.6 5.25 L-3.6 4.7"/><path fill="#a38e6d" stroke="none" d="M4.4 -0.6 Q4.8 0.25 3.9 1.1 3.05 2.05 1.35 2.7 L-2.4 2.8 Q-4.45 2.3 -4.3 1.05 -4.25 -0.1 -2.9 -0.8 -1.6 -1.4 0.3 -1.6 L3.1 -1.65 Q3.95 -1.45 4.4 -0.6"/><path fill="#a38e6d" stroke="none" d="M5.15 -4.45 Q6.1 -3.7 6.1 -2.45 6.1 -1.15 5.4 0.15 4.7 1.45 2.85 1.65 1.05 1.85 0.2 0.55 -0.6 -0.75 -0.15 -1.95 0.3 -3.1 1.5 -4.05 2.7 -5.0 3.4 -5.1 4.2 -5.25 5.15 -4.45"/></g><g id="c34"><path fill="#7b693e" stroke="none" d="M-0.95 -5.2 Q-0.3 -5.55 0.45 -4.9 L1.35 -2.05 1.5 0.6 0.85 3.15 Q0.3 4.5 -0.4 4.95 -1.1 5.4 -1.55 5.2 1.65 1.75 -0.95 -5.2"/><path fill="none" stroke="#000000" stroke-width="0.5" stroke-opacity="0.301960784314" d="M-0.95 -5.2 Q-0.3 -5.55 0.45 -4.9 L1.35 -2.05 1.5 0.6 0.85 3.15 Q0.3 4.5 -0.4 4.95 -1.1 5.4 -1.55 5.2 1.65 1.75 -0.95 -5.2"/><path fill="none" stroke="#000000" stroke-width="0.5" stroke-opacity="0.0980392156863" d="M-0.8 4.25 Q0.1 4.3 0.8 3.25"/><path fill="none" stroke="#000000" stroke-width="0.5" stroke-opacity="0.0980392156863" d="M0.15 0.9 Q0.7 -0.4 1.55 -0.45"/></g><g id="c35"><path fill="#4a4132" stroke="none" d="M-4.0 -1.9 Q-5.5 -6.1 -1.7 -6.85 0.1 -6.7 0.85 -5.8 1.7 -4.25 1.6 -1.95 3.85 1.25 4.35 3.0 4.85 4.7 2.5 6.25 1.25 7.05 0.15 6.7 -0.4 6.45 -0.95 5.4 -2.65 1.85 -4.0 -1.9"/><path fill="none" stroke="#000000" stroke-width="0.5" stroke-opacity="0.301960784314" d="M-4.0 -1.9 Q-5.5 -6.1 -1.7 -6.85 0.1 -6.7 0.85 -5.8 1.7 -4.25 1.6 -1.95 3.85 1.25 4.35 3.0 4.85 4.7 2.5 6.25 1.25 7.05 0.15 6.7 -0.4 6.45 -0.95 5.4 -2.65 1.85 -4.0 -1.9"/></g><g id="c36"><path fill="#4a4132" stroke="none" d="M-1.5 -3.85 Q0.4 -1.4 4.95 1.6 6.1 3.4 4.0 3.8 -2.3 2.95 -5.35 0.85 -4.6 -2.6 -1.5 -3.85"/><path fill="none" stroke="#000000" stroke-width="0.5" stroke-opacity="0.301960784314" d="M-1.5 -3.85 Q0.4 -1.4 4.95 1.6 6.1 3.4 4.0 3.8 -2.3 2.95 -5.35 0.85"/></g><g id="c37"><path fill="#7b6245" stroke="none" d="M-1.3 -1.2 Q0.25 -1.6 1.65 -0.75 L2.3 0.05 Q2.0 0.9 1.5 1.2 -0.85 1.65 -2.25 0.6 -2.4 -0.45 -1.3 -1.2"/><path fill="none" stroke="#000000" stroke-width="0.5" stroke-opacity="0.301960784314" d="M-1.3 -1.2 Q0.25 -1.6 1.65 -0.75 L2.3 0.05 Q2.0 0.9 1.5 1.2 -0.85 1.65 -2.25 0.6 -2.4 -0.45 -1.3 -1.2"/></g><g id="c38"><path fill="#72711d" stroke="none" d="M-2.45 -0.35 Q-1.5 -0.4 -0.6 -0.95 L2.45 -0.3 Q2.55 0.1 2.3 0.5 2.1 0.9 1.7 0.95 L-0.4 0.15 -2.25 0.25 Q-2.55 0.05 -2.45 -0.35"/><path fill="none" stroke="#000000" stroke-width="0.5" stroke-opacity="0.301960784314" d="M-2.45 -0.35 Q-1.5 -0.4 -0.6 -0.95 L2.45 -0.3 Q2.55 0.1 2.3 0.5 2.1 0.9 1.7 0.95 L-0.4 0.15 -2.25 0.25 Q-2.55 0.05 -2.45 -0.35"/><path fill="#a29c26" fill-opacity="0.298039215686" d="M0.15 -0.75 L2.15 -0.35 Q1.55 -0.1 1.45 0.05 L0.45 -0.3 0.15 -0.75"/></g><g id="c39"><path fill="#72711d" stroke="none" d="M-0.9 -1.85 Q0.1 -0.85 1.5 -0.3 1.95 0.2 1.65 1.0 1.4 1.75 0.8 1.8 L-1.55 -0.5 -1.75 -1.5 -0.9 -1.85"/><path fill="none" stroke="#000000" stroke-width="0.5" stroke-opacity="0.301960784314" d="M-0.9 -1.85 Q0.1 -0.85 1.5 -0.3 1.95 0.2 1.65 1.0 1.4 1.75 0.8 1.8 L-1.55 -0.5 -1.75 -1.5 -0.9 -1.85"/><path fill="#a29c26" fill-opacity="0.6" d="M-1.65 -1.45 L-0.9 -1.75 Q0.05 -0.85 1.3 -0.3 0.65 0.15 0.05 0.2 -1.1 -0.5 -1.65 -1.45"/></g><g id="c40"><path fill="#72711d" stroke="none" d="M-1.6 -2.05 Q0.05 -1.45 1.95 -1.15 2.9 -0.2 2.85 0.95 2.75 2.05 1.65 2.05 -0.95 1.7 -2.45 0.05 L-2.85 -1.45 Q-2.45 -1.85 -1.6 -2.05"/><path fill="none" stroke="#000000" stroke-width="0.5" stroke-opacity="0.301960784314" d="M-1.6 -2.05 Q0.05 -1.45 1.95 -1.15 2.9 -0.2 2.85 0.95 2.75 2.05 1.65 2.05 -0.95 1.7 -2.45 0.05 L-2.85 -1.45 Q-2.45 -1.85 -1.6 -2.05"/><path fill="#a29c26" stroke="none" d="M-1.7 -2.0 L1.75 -1.1 0.65 0.0 Q-1.35 -0.45 -2.7 -1.55 L-1.7 -2.0"/></g><g id="c41"><path fill="#e6d03f" stroke="none" d="M5.35 -2.25 Q5.25 -3.15 4.4 -3.6 L2.5 -4.35 3.1 -4.3 4.6 -4.05 5.35 -3.75 6.05 -3.25 6.2 -2.8 5.35 -2.25 M-2.4 -4.3 Q-3.45 -4.1 -4.25 -3.5 -5.05 -2.95 -5.3 -2.05 L-6.15 -2.65 -5.75 -3.2 Q-5.5 -3.5 -4.65 -3.85 L-2.4 -4.3"/><path fill="#72711d" stroke="none" d="M2.5 -4.35 L4.4 -3.6 Q5.25 -3.15 5.35 -2.25 4.2 -1.75 2.75 1.4 1.8 4.0 -0.3 4.4 -2.3 3.15 -3.3 0.65 -4.25 -1.6 -5.3 -2.05 -5.05 -2.95 -4.25 -3.5 -3.45 -4.1 -2.4 -4.3 L0.4 -4.45 2.5 -4.35"/><path fill="none" stroke="#000000" stroke-width="0.5" stroke-opacity="0.301960784314" d="M5.35 -2.25 L6.2 -2.8 6.05 -3.25 5.35 -3.75 4.6 -4.05 3.1 -4.3 2.5 -4.35 0.4 -4.45 -2.4 -4.3 M-5.3 -2.05 Q-4.25 -1.6 -3.3 0.65 -2.3 3.15 -0.3 4.4 1.8 4.0 2.75 1.4 4.2 -1.75 5.35 -2.25 M-5.3 -2.05 L-6.15 -2.65 -5.75 -3.2 Q-5.5 -3.5 -4.65 -3.85 L-2.4 -4.3"/></g><g id="c42"><path fill="#584440" stroke="none" d="M1.25 0.0 Q1.25 0.5 0.9 0.85 0.55 1.2 0.05 1.2 L-0.85 0.85 Q-1.2 0.5 -1.2 0.0 L-0.85 -0.9 0.05 -1.25 Q0.55 -1.25 0.9 -0.9 L1.25 0.0"/><path fill="none" stroke="#000000" stroke-width="0.5" stroke-opacity="0.301960784314" d="M1.25 0.0 Q1.25 0.5 0.9 0.85 0.55 1.2 0.05 1.2 L-0.85 0.85 Q-1.2 0.5 -1.2 0.0 L-0.85 -0.9 0.05 -1.25 Q0.55 -1.25 0.9 -0.9 L1.25 0.0"/><path fill="#e46444" stroke="none" d="M0.85 -0.35 L0.55 0.0 -0.05 0.15 -0.65 0.0 -0.9 -0.35 -0.65 -0.75 -0.05 -0.9 0.55 -0.75 0.85 -0.35"/><path fill="#fefe4a" stroke="none" d="M0.8 -0.55 L0.65 -0.25 0.25 -0.15 -0.15 -0.25 -0.3 -0.55 -0.15 -0.8 0.25 -0.9 0.65 -0.8 0.8 -0.55"/></g><g id="c43"><path fill="#584440" stroke="none" d="M2.35 0.0 Q2.35 1.0 1.7 1.65 1.0 2.35 0.05 2.35 -0.95 2.35 -1.6 1.65 -2.3 1.0 -2.3 0.0 -2.3 -0.95 -1.6 -1.65 -0.95 -2.35 0.05 -2.35 1.0 -2.35 1.7 -1.65 2.35 -0.95 2.35 0.0"/><path fill="none" stroke="#000000" stroke-width="0.5" stroke-opacity="0.301960784314" d="M2.35 0.0 Q2.35 1.0 1.7 1.65 1.0 2.35 0.05 2.35 -0.95 2.35 -1.6 1.65 -2.3 1.0 -2.3 0.0 -2.3 -0.95 -1.6 -1.65 -0.95 -2.35 0.05 -2.35 1.0 -2.35 1.7 -1.65 2.35 -0.95 2.35 0.0"/><path fill="#e46444" stroke="none" d="M0.95 -0.05 L0.55 0.65 -0.45 0.9 -1.45 0.65 -1.85 -0.05 -1.45 -0.7 -0.45 -1.0 0.55 -0.7 0.95 -0.05"/><path fill="#e46444" stroke="none" d="M1.8 -0.9 Q1.8 -0.5 1.4 -0.25 1.0 0.0 0.45 0.0 L-0.5 -0.25 Q-0.9 -0.5 -0.9 -0.9 -0.9 -1.3 -0.5 -1.55 L0.45 -1.8 1.4 -1.55 1.8 -0.9"/><path fill="#fefe4a" stroke="none" d="M-1.5 -1.25 L-1.25 -1.7 -0.6 -1.85 0.0 -1.7 0.25 -1.25 0.0 -0.8 -0.6 -0.6 -1.25 -0.8 -1.5 -1.25"/><path fill="#fefe4a" stroke="none" d="M-0.75 -0.35 L-0.6 -0.65 -0.2 -0.75 0.2 -0.65 0.35 -0.35 0.2 -0.1 -0.2 0.0 -0.6 -0.1 -0.75 -0.35"/></g><g id="c44"><path fill="#584440" stroke="none" d="M1.25 0.0 Q1.25 0.5 0.85 0.85 0.5 1.2 0.0 1.2 -0.5 1.2 -0.9 0.85 -1.25 0.5 -1.25 0.0 -1.25 -0.55 -0.9 -0.9 -0.5 -1.25 0.0 -1.25 0.5 -1.25 0.85 -0.9 1.25 -0.55 1.25 0.0"/><path fill="none" stroke="#000000" stroke-width="0.5" stroke-opacity="0.301960784314" d="M1.25 0.0 Q1.25 0.5 0.85 0.85 0.5 1.2 0.0 1.2 -0.5 1.2 -0.9 0.85 -1.25 0.5 -1.25 0.0 -1.25 -0.55 -0.9 -0.9 -0.5 -1.25 0.0 -1.25 0.5 -1.25 0.85 -0.9 1.25 -0.55 1.25 0.0"/><path fill="#e46444" stroke="none" d="M0.85 -0.55 L0.55 -0.2 -0.05 -0.05 -0.65 -0.2 -0.9 -0.55 -0.65 -0.85 -0.05 -1.0 0.55 -0.85 0.85 -0.55"/><path fill="#fefe4a" stroke="none" d="M0.55 -0.85 L0.45 -0.65 0.15 -0.55 -0.15 -0.65 -0.25 -0.85 -0.15 -1.05 0.15 -1.15 0.45 -1.05 0.55 -0.85"/></g><radialGradient gradientUnits="userSpaceOnUse" r="819.2" cx="0" cy="0" spreadMethod="pad" gradientTransform="matrix(0.00465393066406,0.0,0.0,0.00465393066406,3.45,1.1)" id="gradient5"><stop offset="0.239215686275" stop-color="#c3b938"/><stop offset="1.0" stop-color="#9ba422"/></radialGradient><g id="c45"><path stroke="none" fill="url(#gradient5)" d="M-0.45 -2.9 Q1.85 -3.2 3.2 -1.45 3.9 0.6 2.85 3.6 2.3 1.55 1.05 0.6 0.0 0.2 -0.45 -0.4 -0.8 -1.55 -0.45 -2.9"/><path fill="none" stroke="#000000" stroke-width="0.5" stroke-opacity="0.301960784314" d="M-0.45 -2.9 Q1.85 -3.2 3.2 -1.45 3.9 0.6 2.85 3.6 2.3 1.55 1.05 0.6 0.0 0.2 -0.45 -0.4 -0.8 -1.55 -0.45 -2.9"/><path fill="none" stroke="#000000" stroke-width="0.5" stroke-opacity="0.301960784314" d="M-3.5 -3.65 Q-1.15 -3.65 0.0 -2.5"/><path fill="none" stroke="#000000" stroke-width="0.5" stroke-opacity="0.0980392156863" d="M0.65 -1.8 Q2.35 -0.75 2.75 1.55"/><path fill="none" stroke="#000000" stroke-width="0.5" stroke-opacity="0.0980392156863" d="M1.6 -1.05 L3.5 -0.25"/></g><radialGradient gradientUnits="userSpaceOnUse" r="819.2" cx="0" cy="0" spreadMethod="pad" gradientTransform="matrix(0.0124664306641,0.0,0.0,0.0124664306641,-2.05,-4.05)" id="gradient6"><stop offset="0.239215686275" stop-color="#a29c26"/><stop offset="1.0" stop-color="#565818"/></radialGradient><g id="c46"><path fill="#e6d03f" stroke="none" d="M5.25 -5.7 L6.15 -5.6 Q6.15 -5.15 4.9 -4.6 L0.8 -3.7 Q0.4 -3.95 0.4 -4.35 4.45 -4.7 5.25 -5.7 M-0.55 -4.35 Q-0.45 -3.85 -0.9 -3.6 -3.05 -3.65 -5.1 -4.6 L-5.55 -4.8 -6.15 -5.4 -4.8 -5.5 Q-2.7 -4.4 -0.55 -4.35"/><path fill="#5d5e19" stroke="none" d="M0.4 -4.35 Q0.4 -3.95 0.8 -3.7 0.7 -2.4 -0.35 -0.55 L-0.35 -0.65 -0.35 -0.7 -0.9 -3.6 Q-0.45 -3.85 -0.55 -4.35 L-0.15 -2.6 0.4 -4.35 M-0.15 -2.6 L-0.35 -0.7 -0.15 -2.6"/><path stroke="none" fill="url(#gradient6)" d="M0.8 -3.7 L4.9 -4.6 Q4.35 -4.0 4.05 -1.85 3.7 0.3 2.75 2.2 1.8 4.05 0.6 4.85 -2.25 5.85 -5.3 5.65 -6.0 5.1 -6.0 4.05 -6.0 3.05 -5.1 2.3 L-4.4 2.2 Q-3.55 1.65 -3.45 0.0 -3.3 -1.7 -4.0 -2.9 L-5.1 -4.6 Q-3.05 -3.65 -0.9 -3.6 L-0.35 -0.7 -0.35 -0.65 -0.35 -0.55 Q0.7 -2.4 0.8 -3.7"/><path fill="none" stroke="#000000" stroke-width="0.5" stroke-opacity="0.301960784314" d="M5.25 -5.7 Q4.45 -4.7 0.4 -4.35 M4.9 -4.6 Q6.15 -5.15 6.15 -5.6 M-0.35 -0.7 L-0.15 -2.6 -0.55 -4.35 Q-2.7 -4.4 -4.8 -5.5 M-6.15 -5.4 L-5.55 -4.8 -5.1 -4.6 M-0.35 -0.7 L-0.35 -0.65 -0.35 -0.55 M4.9 -4.6 Q4.35 -4.0 4.05 -1.85 3.7 0.3 2.75 2.2 1.8 4.05 0.6 4.85 -2.25 5.85 -5.3 5.65 -6.0 5.1 -6.0 4.05 -6.0 3.05 -5.1 2.3 L-4.4 2.2 Q-3.55 1.65 -3.45 0.0 -3.3 -1.7 -4.0 -2.9 L-5.1 -4.6 M-0.15 -2.6 L0.4 -4.35"/><path fill="#e6d03f" fill-opacity="0.6" d="M-5.05 2.4 L-4.4 2.3 Q-4.7 3.25 -5.75 3.55 L-5.05 2.4"/><path fill="none" stroke="#000000" stroke-width="0.5" stroke-opacity="0.0980392156863" d="M-0.05 3.15 Q2.25 1.15 2.6 -2.0"/><path fill="none" stroke="#000000" stroke-width="0.5" stroke-opacity="0.0980392156863" d="M-4.45 3.9 Q-1.65 3.05 -0.35 0.6"/></g><g id="c47"><path fill="#7b6245" stroke="none" d="M-2.2 0.5 L-1.65 -0.45 Q-1.3 -0.9 -0.9 -0.95 L-0.4 -0.5 Q0.35 -1.55 1.15 -1.1 1.45 -1.65 1.85 -1.45 2.25 -1.3 2.25 -0.2 2.25 0.85 1.5 1.15 L-0.3 1.25 -1.8 1.4 -2.2 0.5 M-0.4 0.0 L-0.4 -0.5 -0.4 0.0"/><path fill="none" stroke="#000000" stroke-width="0.5" stroke-opacity="0.301960784314" d="M-2.2 0.5 L-1.65 -0.45 Q-1.3 -0.9 -0.9 -0.95 L-0.4 -0.5 Q0.35 -1.55 1.15 -1.1 1.45 -1.65 1.85 -1.45 2.25 -1.3 2.25 -0.2 2.25 0.85 1.5 1.15 L-0.3 1.25 -1.8 1.4 M-0.4 -0.5 L-0.4 0.0"/></g><g id="c48"><path fill="#fce8b3" stroke="none" d="M-3.75 4.35 L-5.55 2.65 Q-4.9 0.4 -2.85 -1.6 -1.2 -2.7 0.2 -3.05 L2.55 -3.75 Q3.5 -2.8 3.6 -1.2 L3.45 -0.3 Q2.8 2.05 0.5 2.2 1.05 0.7 1.4 -1.4 -1.75 0.1 -3.75 4.35"/><path fill="#aa9e62" stroke="none" d="M-2.7 5.4 L-3.75 4.35 Q-1.75 0.1 1.4 -1.4 1.05 0.7 0.5 2.2 -0.25 4.25 -1.4 5.0 L-2.7 5.4"/><path fill="#dec78c" stroke="none" d="M3.45 -0.3 Q2.9 1.9 1.5 4.65 0.3 6.35 -2.0 6.1 L-2.7 5.4 -1.4 5.0 Q-0.25 4.25 0.5 2.2 2.8 2.05 3.45 -0.3"/><path fill="none" stroke="#000000" stroke-width="0.5" stroke-opacity="0.301960784314" d="M-3.75 4.35 L-5.55 2.65 Q-4.9 0.4 -2.85 -1.6 -1.2 -2.7 0.2 -3.05 L2.55 -3.75 Q3.5 -2.8 3.6 -1.2 L3.45 -0.3 Q2.9 1.9 1.5 4.65 0.3 6.35 -2.0 6.1 L-2.7 5.4 -3.75 4.35 Q-1.75 0.1 1.4 -1.4"/><path fill="#fce8b3" stroke="none" d="M3.4 -0.5 Q2.95 -1.5 3.3 -2.65 4.45 -2.6 5.4 -1.9 5.7 -1.25 5.15 -0.75 4.35 -1.0 3.4 -0.5"/><path fill="none" stroke="#000000" stroke-width="0.5" stroke-opacity="0.301960784314" d="M3.3 -2.65 Q4.45 -2.6 5.4 -1.9 5.7 -1.25 5.15 -0.75 4.35 -1.0 3.4 -0.5"/><path fill="#fce8b3" stroke="none" d="M1.8 -3.35 Q3.2 -4.2 4.4 -5.8 5.5 -5.4 5.25 -3.65 4.8 -2.65 3.9 -2.25 2.6 -2.0 1.8 -3.35"/><path fill="none" stroke="#000000" stroke-width="0.5" stroke-opacity="0.301960784314" d="M1.8 -3.35 Q3.2 -4.2 4.4 -5.8 5.5 -5.4 5.25 -3.65 4.8 -2.65 3.9 -2.25"/></g><g id="c49"><path fill="#dec78c" stroke="none" d="M4.6 -0.95 L4.5 -2.15 6.8 -2.8 6.4 -1.6 Q8.0 -2.35 9.95 -2.05 9.15 0.7 7.55 1.45 L7.35 1.55 Q6.65 -0.6 4.6 -0.95"/><path fill="#fef7bc" stroke="none" d="M4.5 -2.15 L4.6 -0.95 3.15 -0.95 Q3.7 -1.7 4.5 -2.15 M-10.3 8.5 Q-9.0 6.2 -6.25 4.65 L-8.1 4.7 Q-5.7 1.95 -1.95 1.35 -3.4 2.85 -3.55 4.55 -3.65 5.7 -3.15 6.5 -6.6 8.8 -10.3 8.5"/><path fill="#fd9c0c" stroke="none" d="M2.85 -7.5 Q4.15 -4.7 4.5 -2.15 3.7 -1.7 3.15 -0.95 L0.8 -0.55 Q-0.45 -0.15 -1.95 1.35 -5.7 1.95 -8.1 4.7 L-6.25 4.65 Q-9.0 6.2 -10.3 8.5 -10.95 5.25 -9.7 2.5 -10.85 -5.8 -5.0 -8.55 -0.15 -10.1 2.85 -7.5"/><path fill="#7b6244" stroke="none" d="M-1.95 1.35 Q-0.45 -0.15 0.8 -0.55 L3.15 -0.95 4.6 -0.95 Q4.7 0.75 4.35 2.3 L3.15 2.35 -0.8 4.6 -3.15 6.5 Q-3.65 5.7 -3.55 4.55 -3.4 2.85 -1.95 1.35"/><path fill="#5b4832" stroke="none" d="M4.6 -0.95 Q6.65 -0.6 7.35 1.55 L5.95 2.0 4.35 2.3 Q4.7 0.75 4.6 -0.95"/><path fill="#db8609" stroke="none" d="M9.95 -2.05 Q8.0 -2.35 6.4 -1.6 L6.8 -2.8 4.5 -2.15 Q4.15 -4.7 2.85 -7.5 4.05 -6.5 4.95 -4.8 8.1 -4.3 9.95 -2.05"/><path fill="none" stroke="#000000" stroke-width="0.5" stroke-opacity="0.301960784314" d="M7.35 1.55 L7.55 1.45 Q9.15 0.7 9.95 -2.05 M2.85 -7.5 Q-0.15 -10.1 -5.0 -8.55 -10.85 -5.8 -9.7 2.5 -10.95 5.25 -10.3 8.5 M4.35 2.3 L5.95 2.0 7.35 1.55 M4.35 2.3 L3.15 2.35 -0.8 4.6 -3.15 6.5 Q-6.6 8.8 -10.3 8.5 M2.85 -7.5 Q4.05 -6.5 4.95 -4.8 8.1 -4.3 9.95 -2.05"/><path fill="#fef7bc" stroke="none" d="M-7.75 8.2 Q-6.6 7.4 -6.0 7.9 -7.05 8.55 -8.0 9.9 -8.1 9.0 -7.75 8.2"/><path fill="none" stroke="#000000" stroke-width="0.5" stroke-opacity="0.301960784314" d="M-6.0 7.9 Q-7.05 8.55 -8.0 9.9 -8.1 9.0 -7.75 8.2"/><path fill="#fef7bc" stroke="none" d="M9.0 0.0 Q9.7 0.1 10.45 0.65 L7.95 1.0 Q8.15 0.3 9.0 0.0"/><path fill="none" stroke="#000000" stroke-width="0.5" stroke-opacity="0.301960784314" d="M9.0 0.0 Q9.7 0.1 10.45 0.65 L7.95 1.0"/></g><g id="c50"><path fill="#fce8b3" stroke="none" d="M-1.6 1.95 Q-2.75 2.6 -4.05 2.9 -9.0 1.75 -11.75 -1.7 L-11.6 -4.05 -6.7 -4.35 -2.1 -4.9 Q0.15 -5.0 1.75 -4.2 2.65 -2.2 0.6 0.0 -2.2 -2.95 -9.05 -2.05 -5.45 1.35 -1.6 1.95"/><path fill="#aa9e62" stroke="none" d="M0.6 0.0 L-0.5 1.1 -1.6 1.95 Q-5.45 1.35 -9.05 -2.05 -2.2 -2.95 0.6 0.0"/><path fill="none" stroke="#000000" stroke-width="0.5" stroke-opacity="0.301960784314" d="M-1.6 1.95 Q-2.75 2.6 -4.05 2.9 -9.0 1.75 -11.75 -1.7 L-11.6 -4.05 -6.7 -4.35 -2.1 -4.9 Q0.15 -5.0 1.75 -4.2 M-0.5 1.1 L-1.6 1.95 M-9.05 -2.05 Q-2.2 -2.95 0.6 0.0"/><path fill="#fce8b3" stroke="none" d="M-11.25 -2.65 Q-10.5 -1.8 -10.65 -0.6 -11.75 -0.7 -12.55 0.0 -13.35 -0.25 -13.25 -1.05 -12.45 -2.1 -11.25 -2.65"/><path fill="none" stroke="#000000" stroke-width="0.5" stroke-opacity="0.301960784314" d="M-11.25 -2.65 Q-12.45 -2.1 -13.25 -1.05 -13.35 -0.25 -12.55 0.0 -11.75 -0.7 -10.65 -0.6"/><path fill="#fce8b3" stroke="none" d="M-11.75 -2.0 Q-12.9 -1.95 -13.7 -2.65 -14.55 -4.2 -13.6 -5.05 -11.75 -4.15 -9.95 -3.9 -10.3 -2.35 -11.75 -2.0"/><path fill="none" stroke="#000000" stroke-width="0.5" stroke-opacity="0.301960784314" d="M-9.95 -3.9 Q-11.75 -4.15 -13.6 -5.05 -14.55 -4.2 -13.7 -2.65 -12.9 -1.95 -11.75 -2.0"/></g><g id="c51"><path fill="#fef7bc" stroke="none" d="M3.35 -0.8 Q2.05 1.75 -0.9 2.45 L-3.8 2.8 -3.8 2.05 Q-3.8 -0.1 -3.15 -1.3 -2.45 -2.5 -1.35 -2.7 -0.2 -2.9 0.65 -2.7 1.55 -2.5 2.4 -1.85 L3.35 -0.8"/><path fill="none" stroke="#000000" stroke-width="0.5" stroke-opacity="0.301960784314" d="M-3.8 2.8 L-0.9 2.45 Q2.05 1.75 3.35 -0.8"/><path fill="#2d0b21" stroke="none" d="M-0.8 -0.65 Q-0.2 -1.15 0.55 -1.25 L0.25 -0.5 -0.8 -0.65"/><path fill="none" stroke="#000000" stroke-width="0.5" stroke-opacity="0.301960784314" d="M-0.8 -0.65 Q-0.2 -1.15 0.55 -1.25 L0.25 -0.5 -0.8 -0.65"/></g><g id="c52"><path fill="#fce8b3" stroke="none" d="M-0.6 1.0 Q-0.6 0.05 0.5 -0.75 0.15 0.15 0.4 0.75 0.35 1.1 -0.6 1.0"/><path fill="none" stroke="#000000" stroke-width="0.5" stroke-opacity="0.301960784314" d="M-0.6 1.0 Q-0.6 0.05 0.5 -0.75 0.15 0.15 0.4 0.75"/></g><g id="c53"><path fill="#fce8b3" stroke="none" d="M0.85 1.05 L0.25 1.5 Q-0.35 1.6 -0.6 1.15 -0.35 0.1 -0.9 -1.35 0.3 -1.1 0.85 1.05"/><path fill="none" stroke="#000000" stroke-width="0.5" stroke-opacity="0.301960784314" d="M-0.6 1.15 Q-0.35 0.1 -0.9 -1.35 0.3 -1.1 0.85 1.05"/></g><g id="c54"><path fill="#fce8b3" stroke="none" d="M0.05 0.65 Q0.05 0.0 -0.7 -0.5 0.2 -0.5 0.65 0.3 L0.05 0.65"/><path fill="none" stroke="#000000" stroke-width="0.5" stroke-opacity="0.301960784314" d="M0.05 0.65 Q0.05 0.0 -0.7 -0.5 0.2 -0.5 0.65 0.3"/></g><g id="c55"><path fill="#fce8b3" stroke="none" d="M-0.85 0.85 Q-0.3 1.3 0.3 1.4 L1.4 1.15 Q1.75 0.8 1.55 0.35 L0.95 -0.55 -0.1 -1.25 -1.25 -1.15 Q-1.7 -0.75 -1.55 -0.2 -1.45 0.4 -0.85 0.85"/></g><g id="c56"><path fill="#fce8b3" stroke="none" d="M1.35 0.0 Q1.45 -0.75 1.05 -1.25 0.65 -1.8 -0.05 -1.75 -0.7 -1.7 -1.0 -1.1 L-1.35 0.15 -1.2 1.3 Q-0.95 1.75 -0.35 1.75 0.3 1.75 0.8 1.25 1.3 0.75 1.35 0.0"/></g><g id="c57"><path fill="#000000" fill-opacity="0.498039215686" d="M1.75 -2.15 Q2.0 -0.75 1.35 0.65 L0.05 1.75 -1.8 1.85 Q-0.6 -0.5 1.75 -2.15"/><path fill="none" stroke="#000000" stroke-width="0.5" stroke-opacity="0.301960784314" d="M1.35 0.65 Q2.0 -0.75 1.75 -2.15 M1.35 0.65 L0.4 2.15"/></g><g id="c58"><path fill="#fce8b3" stroke="none" d="M0.0 -0.25 Q-0.8 3.15 -3.65 4.65 -6.45 6.2 -9.2 6.5 -7.8 2.85 -4.8 1.25 -1.8 -0.4 0.0 -0.25"/><path fill="none" stroke="#000000" stroke-width="0.5" stroke-opacity="0.301960784314" d="M0.0 -0.25 Q-0.8 3.15 -3.65 4.65 -6.45 6.2 -9.2 6.5 -7.8 2.85 -4.8 1.25"/></g><g id="c59"><path fill="#fce8b3" stroke="none" d="M2.8 -2.0 L4.95 -2.05 Q6.15 -1.6 6.35 -1.05 5.25 0.0 2.3 0.4 L2.25 0.4 1.75 0.35 -0.35 -0.2 -0.3 -0.25 Q1.0 -1.3 2.8 -2.0 M2.3 0.4 L2.25 0.4 2.3 0.4"/><path fill="#dec78c" stroke="none" d="M-0.3 -0.25 L-0.35 -0.2 -0.4 -0.2 -0.3 -0.25 M2.3 0.4 Q5.25 0.0 6.35 -1.05 6.15 -1.6 4.95 -2.05 6.05 -1.75 7.4 -0.9 4.75 0.5 2.3 0.4"/><path fill="none" stroke="#000000" stroke-width="0.5" stroke-opacity="0.301960784314" d="M4.95 -2.05 L2.8 -2.0 M-0.35 -0.2 L1.75 0.35 2.25 0.4 2.3 0.4 M4.95 -2.05 Q6.05 -1.75 7.4 -0.9 4.75 0.5 2.3 0.4 M-0.4 -0.2 L-0.35 -0.2"/></g><g id="c60"><path fill="#fef7bc" stroke="none" d="M1.55 -1.2 Q1.5 0.95 0.6 1.15 L-1.8 0.9 Q-0.3 -1.0 1.55 -1.2"/><path fill="none" stroke="#000000" stroke-width="0.5" stroke-opacity="0.301960784314" d="M1.55 -1.2 Q1.5 0.95 0.6 1.15 L-1.8 0.9"/><path fill="none" stroke="#000000" stroke-width="0.5" stroke-opacity="0.0980392156863" d="M0.9 -0.55 Q1.4 -0.2 1.35 0.4"/><path fill="none" stroke="#000000" stroke-width="0.5" stroke-opacity="0.0980392156863" d="M-0.3 0.1 Q0.15 0.6 0.2 1.2"/></g><g id="c61"><g><use transform="matrix(1.39996337891,0.0,0.0,1.39996337891,0.35,-0.2)" xlink:href="#c18"/></g><g><use transform="matrix(1.39996337891,0.0,0.0,1.39996337891,11.1,-7.4)" xlink:href="#c19"/></g><g><use transform="matrix(1.39996337891,0.0,0.0,1.39996337891,8.7,-13.55)" xlink:href="#c20"/></g><g><use transform="matrix(1.39996337891,0.0,0.0,1.39996337891,-18.35,-14.95)" xlink:href="#c21"/></g><g><use transform="matrix(1.39996337891,0.0,0.0,1.39996337891,-9.8,1.6)" xlink:href="#c22"/></g><g><use transform="matrix(1.39996337891,0.0,0.0,1.39996337891,-11.7,-6.4)" xlink:href="#c23"/></g><g><use transform="matrix(1.39996337891,0.0,0.0,1.39996337891,5.4,-12.0)" xlink:href="#c24"/></g><g><use transform="matrix(1.39996337891,0.0,0.0,1.39996337891,-12.3,-13.2)" xlink:href="#c25"/></g><g><use transform="matrix(1.39996337891,0.0,0.0,1.39996337891,-4.05,-10.7)" xlink:href="#c26"/></g><g><use transform="matrix(1.39996337891,0.0,0.0,1.39996337891,-0.95,-16.4)" xlink:href="#c27"/></g><g><use transform="matrix(0.0218048095703,0.173217773438,0.163970947266,-0.0323333740234,-14.55,-50.15)" xlink:href="#c28"/></g><g><use transform="matrix(0.0504760742188,0.164779663086,0.157531738281,-0.0624694824219,-18.55,-48.05)" xlink:href="#c28"/></g><g><use transform="matrix(0.0722198486328,0.154632568359,0.15283203125,-0.0758209228516,-23.5,-44.95)" xlink:href="#c28"/></g><g><use transform="matrix(0.0942993164062,0.143676757812,0.15283203125,-0.0758209228516,-27.4,-41.85)" xlink:href="#c28"/></g><g><use transform="matrix(1.39996337891,0.0,0.0,1.39996337891,-18.1,-28.3)" xlink:href="#c29"/></g><g><use transform="matrix(1.39996337891,0.0,0.0,1.39996337891,-16.3,-20.9)" xlink:href="#c30"/></g><g><use transform="matrix(1.39996337891,0.0,0.0,1.39996337891,-2.5,-20.95)" xlink:href="#c31"/></g><g><use transform="matrix(1.39996337891,0.0,0.0,1.39996337891,0.25,-32.5)" xlink:href="#c32"/></g><g><use transform="matrix(1.39996337891,0.0,0.0,1.39996337891,-14.95,-26.1)" xlink:href="#c33"/></g><g><use transform="matrix(1.39996337891,0.0,0.0,1.39996337891,-7.0,-29.6)" xlink:href="#c34"/></g><g><use transform="matrix(1.39996337891,0.0,0.0,1.39996337891,9.25,-26.9)" xlink:href="#c35"/></g><g><use transform="matrix(1.39996337891,0.0,0.0,1.39996337891,16.8,-18.8)" xlink:href="#c36"/></g><g><use transform="matrix(1.39996337891,0.0,0.0,1.39996337891,25.35,-14.4)" xlink:href="#c37"/></g><g><use transform="matrix(1.39996337891,0.0,0.0,1.39996337891,17.55,-22.65)" xlink:href="#c38"/></g><g><use transform="matrix(1.39996337891,0.0,0.0,1.39996337891,22.3,-20.4)" xlink:href="#c39"/></g><g><use transform="matrix(1.39996337891,0.0,0.0,1.39996337891,27.0,-17.8)" xlink:href="#c40"/></g><g><use transform="matrix(1.39996337891,0.0,0.0,1.39996337891,37.0,-26.7)" xlink:href="#c41"/></g><g><use transform="matrix(1.39996337891,0.0,0.0,1.39996337891,33.35,-29.2)" xlink:href="#c42"/></g><g><use transform="matrix(1.39996337891,0.0,0.0,1.39996337891,37.0,-28.65)" xlink:href="#c43"/></g><g><use transform="matrix(1.39996337891,0.0,0.0,1.39996337891,40.65,-28.85)" xlink:href="#c44"/></g><g><use transform="matrix(1.39996337891,0.0,0.0,1.39996337891,40.7,-12.05)" xlink:href="#c45"/></g><g><use transform="matrix(1.39996337891,0.0,0.0,1.39996337891,37.1,-22.75)" xlink:href="#c46"/></g><g><use transform="matrix(1.39996337891,0.0,0.0,1.39996337891,28.35,-14.55)" xlink:href="#c47"/></g><g><use transform="matrix(1.39996337891,0.0,0.0,1.39996337891,14.7,-43.3)" xlink:href="#c48"/></g><g><use transform="matrix(1.39996337891,0.0,0.0,1.39996337891,9.85,-27.55)" xlink:href="#c49"/></g><g><use transform="matrix(1.39996337891,0.0,0.0,1.39996337891,-2.35,-30.55)" xlink:href="#c50"/></g><g><use transform="matrix(1.39996337891,0.0,0.0,1.39996337891,14.9,-32.8)" xlink:href="#c1"/></g><g><use transform="matrix(1.39996337891,0.0,0.0,1.39996337891,12.5,-24.65)" xlink:href="#c51"/></g><g><use transform="matrix(1.39996337891,0.0,0.0,1.39996337891,5.45,-40.75)" xlink:href="#c52"/></g><g><use transform="matrix(1.39996337891,0.0,0.0,1.39996337891,3.2,-40.75)" xlink:href="#c53"/></g><g><use transform="matrix(1.39996337891,0.0,0.0,1.39996337891,1.4,-39.2)" xlink:href="#c54"/></g><g><use transform="matrix(1.39996337891,0.0,0.0,1.39996337891,10.5,-24.1)" xlink:href="#c4"/></g><g><use transform="matrix(1.39996337891,0.0,0.0,1.39996337891,14.6,-24.9)" xlink:href="#c7"/></g><g><use transform="matrix(1.39996337891,0.0,0.0,1.39996337891,11.45,-37.55)" xlink:href="#c55"/></g><g><use transform="matrix(1.39996337891,0.0,0.0,1.39996337891,4.05,-34.95)" xlink:href="#c56"/></g><g><use transform="matrix(1.39996337891,0.0,0.0,1.39996337891,4.9,-28.6)" xlink:href="#c57"/></g><g><use transform="matrix(1.39996337891,0.0,0.0,1.39996337891,7.6,-31.65)" xlink:href="#c58"/></g><g><use transform="matrix(1.39996337891,0.0,0.0,1.39996337891,11.4,-33.0)" xlink:href="#c59"/></g><g><use transform="matrix(1.39996337891,0.0,0.0,1.39996337891,13.65,-22.65)" xlink:href="#c60"/></g></g><g id="c62"><g><use transform="matrix(1.0,0.0,0.0,1.0,6.3,53.35)" xlink:href="#c17"/></g><g><use transform="matrix(0.244812011719,0.0,0.0,0.244812011719,26.1,80.8)" xlink:href="#c61"/></g><g><use transform="matrix(0.141098022461,-0.0378112792969,0.111373901367,0.225646972656,27.2,74.05)" filter="url(#filter63)" xlink:href="#c14"/></g></g><filter id="filter63"><feColorMatrix in="SourceGraphic" type="matrix" values="1.0 0.0 0.0 0.0 0.0 0.0 1.0 0.0 0.0 0.0 0.0 0.0 1.0 0.0 0.0 0.0 0.0 0.0 0.23046875 0.0" result="cxform"/><feComposite operator="in" in2="SourceGraphic" result="color-xform"/></filter></defs><g><g><use transform="matrix(1.0,0.0,0.0,1.0,0.0,0.0)" xlink:href="#c9"/></g><g><use transform="matrix(1.15496826172,0.0,0.0,1.15496826172,-1.4,-57.4)" xlink:href="#c62"/></g></g></svg>