<?xml version='1.0' encoding='UTF-8'?>
<svg xmlns:xlink="http://www.w3.org/1999/xlink" xmlns="http://www.w3.org/2000/svg" version="1.1" width="66px" height="70px" viewBox="-5.66241350512 -9.57847761293 65.6624135051 69.5784776129"><defs><g id="c1"><path fill="#000000" fill-opacity="0.00392156862745" d="M0.0 0.0 L60.0 0.0 60.0 60.0 0.0 60.0 0.0 0.0"/><path fill="none" stroke="#000000" stroke-width="1.0" stroke-opacity="0.301960784314" d="M3.45 20.1 L15.85 22.45 22.7 12.85 28.0 20.85 32.75 18.65 36.45 26.75 41.75 20.85 44.2 25.4 50.15 25.4"/></g><g id="c2"><path fill="#ffffff" stroke="none" d="M4.7 21.8 L14.7 23.8 20.5 15.85 25.05 22.45 29.0 20.55 32.0 27.3 36.5 22.45 38.55 26.3 46.15 26.3 50.05 30.85 50.05 49.65 7.5 49.65 3.9 22.15 4.7 21.8"/></g><g id="c3"><path fill="#006699" stroke="none" d="M31.5 39.85 L19.8 43.65 Q17.15 44.45 15.5 43.3 14.35 42.55 13.65 40.9 L1.7 14.45 1.6 14.3 1.2 13.45 -0.75 9.05 Q-2.05 6.2 -0.3 4.75 0.3 4.25 1.2 3.9 L5.5 2.25 Q8.95 0.95 10.65 4.15 L22.3 0.4 Q26.55 -1.0 28.45 3.1 L40.55 29.95 40.9 30.7 42.95 35.15 Q43.95 37.35 43.15 38.7 42.5 39.7 40.95 40.25 L36.65 41.8 35.1 42.2 Q32.75 42.3 31.5 39.85"/><path fill="none" stroke="#000000" stroke-width="1.0" stroke-opacity="0.298039215686" d="M31.5 39.85 L19.8 43.65 Q17.15 44.45 15.5 43.3 14.35 42.55 13.65 40.9 L1.7 14.45 1.6 14.3 1.2 13.45 -0.75 9.05 Q-2.05 6.2 -0.3 4.75 0.3 4.25 1.2 3.9 L5.5 2.25 Q8.95 0.95 10.65 4.15 L22.3 0.4 Q26.55 -1.0 28.45 3.1 L40.55 29.95 40.9 30.7 42.95 35.15 Q43.95 37.35 43.15 38.7 42.5 39.7 40.95 40.25 L36.65 41.8 35.1 42.2 Q32.75 42.3 31.5 39.85"/><path fill="#300525" stroke="none" d="M0.75 8.25 L29.8 9.75 25.55 0.9 Q26.9 1.6 27.8 3.55 L40.7 32.15 Q42.6 36.3 38.3 37.65 L23.3 42.5 13.15 21.4 4.6 20.9 0.7 12.25 Q-0.45 9.75 0.75 8.25 M20.1 43.55 L19.8 43.65 Q17.15 44.45 15.5 43.3 L20.1 43.55"/><path fill="#630a4c" stroke="none" d="M25.55 0.9 L29.8 9.75 0.75 8.25 Q1.45 7.3 3.1 6.75 L21.65 0.8 25.55 0.9 M4.6 20.9 L13.15 21.4 23.3 42.5 20.1 43.55 15.5 43.3 Q14.35 42.55 13.65 40.9 L4.6 20.9"/><path fill="none" stroke="#000000" stroke-width="0.5" stroke-opacity="0.301960784314" d="M0.75 8.25 Q-0.45 9.75 0.7 12.25 L4.6 20.9 M23.3 42.5 L38.3 37.65 Q42.6 36.3 40.7 32.15 L27.8 3.55 Q26.9 1.6 25.55 0.9 L21.65 0.8 3.1 6.75 Q1.45 7.3 0.75 8.25 M20.1 43.55 L19.8 43.65 Q17.15 44.45 15.5 43.3 14.35 42.55 13.65 40.9 L4.6 20.9 M20.1 43.55 L23.3 42.5"/><path fill="#9d147b" stroke="none" d="M14.2 40.5 L1.35 11.8 Q-0.5 7.75 3.8 6.35 L22.3 0.4 Q26.55 -1.0 28.45 3.1 L41.35 31.7 Q43.25 35.85 38.9 37.25 L20.4 43.2 Q16.1 44.55 14.2 40.5"/><path fill="none" stroke="#000000" stroke-width="0.5" stroke-opacity="0.301960784314" d="M14.2 40.5 L1.35 11.8 Q-0.5 7.75 3.8 6.35 L22.3 0.4 Q26.55 -1.0 28.45 3.1 L41.35 31.7 Q43.25 35.85 38.9 37.25 L20.4 43.2 Q16.1 44.55 14.2 40.5"/><path fill="#9d147b" stroke="none" d="M31.4 39.65 L31.3 39.45 31.25 39.4 29.25 34.95 Q27.55 31.2 31.25 29.85 L35.6 28.25 Q38.8 27.1 40.5 29.85 L40.9 30.7 42.95 35.15 Q43.95 37.35 43.15 38.7 42.5 39.45 41.2 39.9 L36.9 41.45 34.85 41.85 Q32.9 41.7 31.75 39.5 L31.4 39.65"/><path fill="#630a4c" stroke="none" d="M43.15 38.7 Q42.5 39.7 40.95 40.25 L36.65 41.8 35.1 42.2 Q32.75 42.3 31.45 39.8 L31.4 39.65 31.75 39.5 Q32.9 41.7 34.85 41.85 L36.9 41.45 41.2 39.9 Q42.5 39.45 43.15 38.7"/><path fill="none" stroke="#003333" stroke-width="0.5" stroke-opacity="0.509803921569" d="M43.15 38.7 Q42.5 39.7 40.95 40.25 L36.65 41.8 35.1 42.2 Q32.75 42.3 31.45 39.8 L31.4 39.65 30.3 40.0 31.4 39.65 M40.5 29.85 L40.9 30.7 42.95 35.15 Q43.95 37.35 43.15 38.7 42.5 39.45 41.2 39.9 L36.9 41.45 34.85 41.85 Q32.9 41.7 31.75 39.5 L31.4 39.65"/><path fill="#9d147b" stroke="none" d="M10.65 4.2 L10.85 4.6 12.85 9.05 Q14.5 12.8 10.8 14.15 L6.5 15.8 Q4.5 16.6 3.1 15.8 L1.75 12.85 -0.2 8.45 Q-1.25 6.15 -0.3 4.75 0.3 4.25 1.2 3.9 L5.5 2.25 Q9.0 0.95 10.65 4.2"/><path fill="#300525" stroke="none" d="M1.6 14.3 L1.2 13.45 -0.75 9.05 Q-2.05 6.2 -0.3 4.75 -1.25 6.15 -0.2 8.45 L1.75 12.85 3.1 15.8 Q2.25 15.35 1.6 14.3"/><path fill="none" stroke="#003333" stroke-width="0.5" stroke-opacity="0.509803921569" d="M3.1 15.8 L6.45 23.15 M-0.3 4.75 Q0.3 4.25 1.2 3.9 L5.5 2.25 Q9.0 0.95 10.65 4.2 M1.6 14.3 L1.2 13.45 -0.75 9.05 Q-2.05 6.2 -0.3 4.75 -1.25 6.15 -0.2 8.45 L1.75 12.85 3.1 15.8"/><path fill="#fcf2cf" stroke="none" d="M9.15 13.6 Q9.8 12.8 9.55 11.6 L9.1 10.55 22.05 6.35 Q24.9 5.45 26.25 7.85 L26.5 8.3 35.8 29.0 35.95 29.35 Q34.75 29.3 34.1 30.1 33.45 30.9 33.7 32.1 L34.0 32.9 20.65 37.2 Q18.8 37.8 17.65 37.0 16.8 36.4 16.3 35.2 L6.95 14.6 6.8 14.4 7.1 14.4 Q8.4 14.45 9.15 13.6"/><path fill="#c47fad" stroke="none" d="M8.25 23.65 L3.35 12.8 Q1.65 9.1 5.5 7.85 L22.25 2.5 Q26.05 1.25 27.75 4.95 L28.25 6.1 35.55 22.3 39.35 30.75 Q41.1 34.5 37.2 35.7 L20.45 41.1 Q16.8 42.25 15.2 39.0 L15.0 38.6 8.25 23.65 M9.15 13.6 Q8.4 14.45 7.1 14.4 L6.8 14.4 6.95 14.6 16.3 35.2 Q16.8 36.4 17.65 37.0 18.8 37.8 20.65 37.2 L34.0 32.9 33.7 32.1 Q33.45 30.9 34.1 30.1 34.75 29.3 35.95 29.35 L35.8 29.0 26.5 8.3 26.25 7.85 Q24.9 5.45 22.05 6.35 L9.1 10.55 9.55 11.6 Q9.8 12.8 9.15 13.6"/><path fill="none" stroke="#ffcc00" stroke-width="1.0" stroke-opacity="0.749019607843" d="M8.25 23.65 L3.35 12.8 Q1.65 9.1 5.5 7.85 L22.25 2.5 Q26.05 1.25 27.75 4.95 L28.25 6.1 M35.55 22.3 L39.35 30.75 Q41.1 34.5 37.2 35.7 L20.45 41.1 Q16.8 42.25 15.2 39.0 L15.0 38.6"/><path fill="none" stroke="#bf9900" stroke-width="1.0" stroke-opacity="0.749019607843" d="M28.25 6.1 L35.55 22.3 M15.0 38.6 L8.25 23.65"/><path fill="none" stroke="#f0b92b" stroke-width="0.5" d="M9.15 13.6 Q9.8 12.8 9.55 11.6 L9.1 10.55 22.05 6.35 Q24.9 5.45 26.25 7.85 L26.5 8.3 35.8 29.0 35.95 29.35 Q34.75 29.3 34.1 30.1 33.45 30.9 33.7 32.1 L34.0 32.9 20.65 37.2 Q18.8 37.8 17.65 37.0 16.8 36.4 16.3 35.2 L6.95 14.6 6.8 14.4 7.1 14.4 Q8.4 14.45 9.15 13.6"/></g><g id="c4"><path fill="#7fdbfe" stroke="none" d="M10.75 4.9 Q10.75 4.6 10.9 4.35 11.25 3.45 11.95 2.75 13.3 1.5 14.35 2.1 15.4 2.7 14.95 4.45 14.7 5.4 14.1 6.15 L13.75 6.5 Q13.1 7.15 12.35 7.35 L11.4 7.2 Q10.95 6.9 10.75 6.4 10.5 5.75 10.75 4.9 M7.5 5.9 Q7.0 5.85 6.6 5.5 6.05 5.0 5.8 4.15 L5.7 3.6 Q5.55 2.65 5.8 1.7 6.25 0.0 7.5 0.0 L7.6 0.0 Q8.85 0.0 9.3 1.7 9.55 2.65 9.4 3.6 L9.3 4.15 8.5 5.5 7.6 5.9 7.5 5.9 M4.35 4.9 Q4.6 5.75 4.35 6.4 L3.7 7.2 2.75 7.35 Q2.0 7.15 1.35 6.5 L1.0 6.15 Q0.4 5.4 0.15 4.45 -0.3 2.7 0.75 2.1 1.8 1.5 3.15 2.75 3.85 3.45 4.2 4.35 L4.35 4.9 M5.5 13.7 Q4.45 13.9 3.65 12.95 2.75 12.0 3.2 10.25 3.7 8.5 5.25 7.6 6.4 6.9 7.55 7.0 8.75 6.9 9.9 7.6 11.45 8.5 11.95 10.25 12.35 12.0 11.5 12.95 10.7 13.9 9.65 13.7 8.55 13.5 7.55 12.6 6.55 13.5 5.5 13.7"/></g><g id="c5"><g><use transform="matrix(1.0,0.0,0.0,1.0,0.0,0.0)" xlink:href="#c4"/></g></g><radialGradient gradientUnits="userSpaceOnUse" r="819.2" cx="0" cy="0" spreadMethod="pad" gradientTransform="matrix(0.0914459228516,0.0,0.0,0.0914459228516,0.6,3.4)" id="gradient1"><stop offset="0.0" stop-color="#ffffff"/><stop offset="1.0" stop-color="#ffffff" stop-opacity="0.0"/></radialGradient><g id="c6"><path stroke="none" fill="url(#gradient1)" d="M36.65 -54.65 Q60.05 -42.0 69.75 -17.95 80.55 8.9 68.0 34.1 55.45 59.35 26.8 68.2 -1.8 77.05 -29.7 64.3 -57.6 51.6 -68.45 24.75 -79.3 -2.05 -66.75 -27.25 L-66.7 -27.3 Q-54.1 -52.5 -25.5 -61.4 3.1 -70.2 31.0 -57.5 L36.65 -54.65"/></g><g id="c7"><g><use transform="matrix(1.0,0.0,0.0,1.0,0.0,0.0)" xlink:href="#c6"/></g></g><radialGradient gradientUnits="userSpaceOnUse" r="819.2" cx="0" cy="0" spreadMethod="pad" gradientTransform="matrix(0.209197998047,0.0,0.0,0.177108764648,67.15,107.2)" id="gradient2"><stop offset="0.356862745098" stop-color="#ffffff"/><stop offset="0.670588235294" stop-opacity="0.0"/></radialGradient><g id="c8"><path fill="none" stroke-linejoin="round" stroke-linecap="round" stroke="url(#gradient2)" stroke-width="0.5" d="M136.55 165.8 L68.6 106.0 68.4 106.0 118.25 201.5 M68.2 105.7 L68.25 105.8 68.25 105.75 68.2 105.7 0.0 45.7 M68.25 105.8 L68.3 105.85 68.3 105.8 68.25 105.75 49.95 0.05 M0.05 97.7 L68.15 105.95 68.25 105.85 68.25 105.8 M68.3 105.85 L68.25 105.85 68.3 106.0 68.3 105.85 68.3 105.8 68.35 105.8 68.3 105.8 86.6 18.35 M50.0 193.2 L68.3 106.0 68.15 105.95 18.25 151.55 M68.4 106.0 L68.3 106.0 86.55 211.5 M68.4 106.0 L68.3 105.85 M68.6 106.0 L68.35 105.8 118.25 60.15 M136.6 114.25 L68.6 106.0 M68.2 105.7 L18.25 10.05"/></g><g id="c9"><g><use transform="matrix(1.0,0.0,0.0,1.0,0.0,0.0)" xlink:href="#c8"/></g></g><g id="c10"><g><use transform="matrix(1.0,0.0,0.0,1.0,0.0,0.0)" xlink:href="#c3"/></g><g><use transform="matrix(0.238861083984,-0.0867004394531,0.10026550293,0.233917236328,34.25,31.15)" xlink:href="#c5"/></g><g><use transform="matrix(0.238861083984,-0.0867004394531,0.10026550293,0.233917236328,4.25,10.3)" xlink:href="#c5"/></g><g><use transform="matrix(0.141098022461,-0.0378112792969,0.111373901367,0.225646972656,20.25,20.65)" filter="url(#filter7)" xlink:href="#c7"/></g><g><use transform="matrix(-0.155029296875,0.0513153076172,0.0841827392578,0.147033691406,22.6,3.15)" filter="url(#filter8)" xlink:href="#c9"/></g></g><filter id="filter7"><feColorMatrix in="SourceGraphic" type="matrix" values="0.0 0.0 0.0 0.0 0.796875 0.0 0.0 0.0 0.0 0.59765625 0.0 0.0 0.0 0.0 0.19921875 0.0 0.0 0.0 1.0 0.0" result="cxform"/><feComposite operator="in" in2="SourceGraphic" result="color-xform"/></filter><filter id="filter8"><feColorMatrix in="SourceGraphic" type="matrix" values="0.0 0.0 0.0 0.0 0.99609375 0.0 0.0 0.0 0.0 0.99609375 0.0 0.0 0.0 0.0 0.99609375 0.0 0.0 0.0 1.0 0.0" result="cxform"/><feComposite operator="in" in2="SourceGraphic" result="color-xform"/></filter><g id="c11"><path fill="#00cc33" stroke="none" d="M2.85 30.25 L2.6 30.45 2.7 30.35 2.85 30.25"/><path fill="none" stroke="#000000" stroke-width="1.0" stroke-opacity="0.301960784314" d="M44.0 11.7 L44.15 11.6 44.3 11.35 44.35 11.3 Q44.95 10.25 44.0 8.25 42.95 5.9 40.5 3.65 38.1 1.35 35.7 0.45 34.2 -0.1 33.3 0.1 32.9 0.15 32.6 0.35 L32.35 0.6 32.15 0.85 28.85 4.35 28.65 4.55 28.5 4.8 Q28.0 5.6 28.45 7.05 28.5 7.9 28.15 8.65 L26.8 10.2 26.45 10.55 Q26.25 10.95 26.3 11.55 23.95 13.9 21.4 15.15 L19.2 16.0 Q16.35 16.85 14.5 18.85 L14.05 19.35 13.8 19.45 13.4 20.0 13.75 19.45 3.0 30.65 2.75 31.1 0.6 33.35 0.5 33.45 0.45 33.5 Q-0.25 34.25 0.1 35.75 L0.55 37.0 Q1.65 39.5 4.15 41.9 L6.3 43.75 Q7.8 44.8 9.25 45.35 L9.7 45.5 11.15 45.85 Q12.2 45.85 12.75 45.3 L12.85 45.15 26.7 30.75 27.1 30.35 Q28.8 28.55 29.5 25.9 L29.65 25.25 Q30.65 22.05 33.25 19.05 L33.8 18.5 34.9 18.25 35.0 18.15 35.1 18.0 Q36.35 16.15 37.75 15.85 L38.85 16.1 Q39.9 16.15 40.45 15.55 L40.7 15.2 44.0 11.7"/><path fill="#d3d2a3" stroke="none" d="M17.05 19.9 L15.95 20.55 13.7 23.3 Q12.15 21.35 13.8 19.4 15.25 18.7 17.05 19.9"/><path fill="none" stroke="#000000" stroke-width="0.5" stroke-opacity="0.301960784314" d="M13.7 23.3 Q12.15 21.35 13.8 19.4 15.25 18.7 17.05 19.9"/></g><g id="c12"><path fill="#b5bbd2" fill-opacity="0.301960784314" d="M82.25 267.2 Q77.55 267.05 71.4 264.95 L171.05 156.8 Q190.25 124.55 201.75 95.55 L206.0 84.15 Q225.05 55.2 253.45 28.65 256.0 32.1 257.9 35.6 L259.65 39.05 Q229.95 73.4 214.0 102.3 L213.25 109.6 Q210.75 127.55 200.95 142.95 L82.25 267.2"/><path fill="#ffffff" fill-opacity="0.290196078431" d="M259.65 39.05 L259.9 39.6 Q264.75 50.6 260.3 55.25 L259.45 55.9 Q227.95 84.55 218.4 115.85 L217.1 120.75 Q212.25 140.15 199.4 153.65 L196.6 156.45 94.7 262.4 94.0 263.25 Q89.85 267.55 82.25 267.2 L200.95 142.95 Q210.75 127.55 213.25 109.6 L214.0 102.3 Q229.95 73.4 259.65 39.05 M71.4 264.95 L68.05 263.7 Q57.35 259.5 46.55 251.8 L152.65 141.35 Q177.15 110.45 190.65 81.95 L194.25 73.9 Q215.8 44.5 246.05 20.0 L246.3 20.3 Q250.4 24.45 253.45 28.65 225.05 55.2 206.0 84.15 L201.75 95.55 Q190.25 124.55 171.05 156.8 L71.4 264.95 M0.95 193.15 Q-1.8 182.1 3.5 176.5 L3.6 176.4 4.4 175.65 106.85 69.15 Q120.3 54.4 141.6 48.2 149.8 45.8 157.75 41.85 182.35 29.8 204.65 3.2 L205.3 2.4 Q209.45 -1.9 219.3 1.5 200.85 23.25 173.55 43.65 168.25 45.3 162.5 47.6 145.25 54.25 123.3 65.8 L0.95 193.15"/><path fill="#b5bbd2" fill-opacity="0.450980392157" d="M46.55 251.8 Q38.7 246.15 30.8 238.5 12.1 220.55 4.15 202.3 1.95 197.35 0.95 193.15 L123.3 65.8 Q145.25 54.25 162.5 47.6 168.25 45.3 173.55 43.65 200.85 23.25 219.3 1.5 L220.9 2.15 Q222.9 2.95 225.0 4.0 232.85 7.85 240.75 14.95 L242.05 16.15 243.35 17.3 243.85 17.8 245.9 19.9 246.05 20.0 Q215.8 44.5 194.25 73.9 L190.65 81.95 Q177.15 110.45 152.65 141.35 L46.55 251.8"/><path fill="none" stroke="#ffffff" stroke-width="1.0" stroke-opacity="0.552941176471" d="M259.65 39.05 L259.9 39.6 Q264.75 50.6 260.3 55.25 L259.45 55.9 Q227.95 84.55 218.4 115.85 L217.1 120.75 Q212.25 140.15 199.4 153.65 L196.6 156.45 94.7 262.4 94.0 263.25 Q89.85 267.55 82.25 267.2 77.55 267.05 71.4 264.95 L68.05 263.7 Q57.35 259.5 46.55 251.8 38.7 246.15 30.8 238.5 12.1 220.55 4.15 202.3 1.95 197.35 0.95 193.15 -1.8 182.1 3.5 176.5 L3.6 176.4 4.4 175.65 106.85 69.15 Q120.3 54.4 141.6 48.2 149.8 45.8 157.75 41.85 182.35 29.8 204.65 3.2 L205.3 2.4 Q209.45 -1.9 219.3 1.5 L220.9 2.15 Q222.9 2.95 225.0 4.0 232.85 7.85 240.75 14.95 L242.05 16.15 243.35 17.3 243.85 17.8 245.9 19.9 246.05 20.0 246.3 20.3 Q250.4 24.45 253.45 28.65 256.0 32.1 257.9 35.6 L259.65 39.05"/></g><g id="c13"><g><use transform="matrix(1.0,0.0,0.0,1.0,0.0,0.0)" xlink:href="#c12"/></g></g><g id="c14"><path fill="#edb83d" stroke="none" d="M86.3 14.15 Q86.4 9.2 94.45 5.25 97.05 3.95 100.2 2.95 103.3 1.9 110.85 0.9 L129.25 0.0 Q138.9 0.1 152.35 1.85 165.75 3.65 172.95 6.85 180.15 10.05 183.3 14.35 184.65 16.2 185.05 18.25 184.65 19.95 183.65 21.6 L183.6 21.7 183.55 21.8 182.8 22.75 Q179.4 27.05 171.3 30.35 163.1 33.65 152.85 34.75 L147.6 35.2 138.9 35.2 130.3 34.7 Q124.0 34.05 118.45 32.7 112.2 31.1 106.95 28.6 L102.65 26.35 Q91.05 22.7 86.5 16.05 86.25 15.15 86.3 14.3 L86.3 14.25 86.3 14.15 M100.45 8.45 Q101.85 7.45 103.6 6.6 100.65 7.8 99.8 8.95 L100.3 8.55 100.45 8.45"/><path fill="#f9e10f" stroke="none" d="M185.05 18.25 L185.25 19.8 185.25 19.85 185.25 20.75 185.2 21.55 184.9 23.05 184.65 23.7 183.65 25.75 183.6 25.85 183.55 25.9 182.8 26.9 180.25 29.5 Q176.85 32.2 171.3 34.5 163.1 37.8 152.85 38.9 L147.6 39.3 Q143.4 39.5 138.9 39.35 L130.3 38.85 Q124.0 38.2 118.45 36.8 115.05 35.95 111.95 34.8 109.35 33.85 106.5 33.2 103.7 32.55 101.95 31.1 100.15 29.6 96.0 27.4 86.5 22.5 86.2 16.1 L86.5 16.05 Q91.05 22.7 102.65 26.35 L106.95 28.6 Q112.2 31.1 118.45 32.7 124.0 34.05 130.3 34.7 L138.9 35.2 147.6 35.2 152.85 34.75 Q163.1 33.65 171.3 30.35 179.4 27.05 182.8 22.75 L183.55 21.8 183.6 21.7 183.65 21.6 Q184.65 19.95 185.05 18.25"/><path fill="#e79721" stroke="none" d="M183.65 25.75 L183.85 25.9 184.7 23.7 184.9 23.05 Q183.4 31.7 182.7 46.4 L181.7 51.3 Q178.15 68.45 171.15 78.85 L163.05 90.5 89.75 192.85 89.25 193.7 Q86.1 198.15 78.9 198.55 L156.45 88.05 Q176.0 64.05 180.25 29.5 L182.8 26.9 183.55 25.9 183.6 25.85 183.65 25.75"/><path fill="#d88a16" stroke="none" d="M78.9 198.55 Q74.05 198.8 67.4 197.25 50.8 193.4 32.75 180.45 27.55 176.75 23.1 172.9 12.35 163.65 6.05 153.65 97.05 166.6 139.65 70.45 L150.4 41.3 Q146.2 41.5 141.7 41.35 L133.1 40.75 Q126.8 40.0 121.25 38.4 116.25 36.9 111.95 34.8 115.05 35.95 118.45 36.8 124.0 38.2 130.3 38.85 L138.9 39.35 Q143.4 39.5 147.6 39.3 L152.85 38.9 Q163.1 37.8 171.3 34.5 176.85 32.2 180.25 29.5 176.0 64.05 156.45 88.05 L78.9 198.55"/><path fill="#eca63e" stroke="none" d="M6.05 153.65 L5.7 153.1 Q-3.3 138.85 1.95 131.3 L1.95 131.25 2.55 130.45 76.3 27.6 Q80.15 21.9 86.3 14.15 L86.3 14.25 86.3 14.3 86.2 16.1 Q86.5 22.5 96.0 27.4 100.15 29.6 101.95 31.1 103.7 32.55 106.5 33.2 109.35 33.85 111.95 34.8 116.25 36.9 121.25 38.4 126.8 40.0 133.1 40.75 L141.7 41.35 Q146.2 41.5 150.4 41.3 L139.65 70.45 Q97.05 166.6 6.05 153.65"/></g><g id="c15"><path fill="#efbd4b" stroke="none" d="M8.0 13.75 Q10.1 13.75 11.6 12.25 13.1 10.8 13.1 8.65 13.1 6.55 11.6 5.05 10.1 3.6 8.0 3.6 5.9 3.6 4.4 5.05 2.95 6.55 2.95 8.65 2.95 10.8 4.4 12.25 5.9 13.75 8.0 13.75 M3.25 3.25 Q6.55 0.0 11.2 0.0 15.85 0.0 19.1 3.25 22.4 6.55 22.4 11.2 22.4 15.85 19.1 19.1 15.85 22.4 11.2 22.4 6.55 22.4 3.25 19.1 0.0 15.85 0.0 11.2 0.0 6.55 3.25 3.25"/><path fill="#f9e10f" stroke="none" d="M8.0 13.75 Q5.9 13.75 4.4 12.25 2.95 10.8 2.95 8.65 2.95 6.55 4.4 5.05 5.9 3.6 8.0 3.6 10.1 3.6 11.6 5.05 13.1 6.55 13.1 8.65 13.1 10.8 11.6 12.25 10.1 13.75 8.0 13.75"/></g><g id="c16"><g><use transform="matrix(1.0,0.0,0.0,1.0,0.0,0.0)" xlink:href="#c15"/></g></g><g id="c17"><g><use transform="matrix(1.0,0.0,0.0,1.0,0.0,0.0)" xlink:href="#c14"/></g><g><use transform="matrix(-0.812072753906,-0.580871582031,-0.580871582031,0.812072753906,135.65,77.8)" xlink:href="#c16"/></g><g><use transform="matrix(-0.580062866211,-0.414901733398,-0.414901733398,0.580062866211,133.35,103.65)" xlink:href="#c16"/></g><g><use transform="matrix(-0.2900390625,-0.207458496094,-0.207458496094,0.2900390625,105.9,114.55)" filter="url(#filter14)" xlink:href="#c16"/></g><g><use transform="matrix(-0.2900390625,-0.207458496094,-0.207458496094,0.2900390625,73.05,119.95)" xlink:href="#c16"/></g><g><use transform="matrix(-0.580062866211,-0.414901733398,-0.414901733398,0.580062866211,89.2,160.5)" filter="url(#filter16)" xlink:href="#c16"/></g><g><use transform="matrix(-0.580062866211,-0.414901733398,-0.414901733398,0.580062866211,102.45,61.95)" filter="url(#filter17)" xlink:href="#c16"/></g><g><use transform="matrix(-0.2900390625,-0.207458496094,-0.207458496094,0.2900390625,112.7,33.9)" filter="url(#filter18)" xlink:href="#c16"/></g><g><use transform="matrix(-0.2900390625,-0.207458496094,-0.207458496094,0.2900390625,153.0,28.85)" filter="url(#filter19)" xlink:href="#c16"/></g></g><filter id="filter14"><feColorMatrix in="SourceGraphic" type="matrix" values="0.765625 0.0 0.0 0.0 0.1875 0.0 0.765625 0.0 0.0 0.12109375 0.0 0.0 0.765625 0.0 0.01953125 0.0 0.0 0.0 1.0 0.0" result="cxform"/><feComposite operator="in" in2="SourceGraphic" result="color-xform"/></filter><filter id="filter16"><feColorMatrix in="SourceGraphic" type="matrix" values="0.765625 0.0 0.0 0.0 0.1875 0.0 0.765625 0.0 0.0 0.12109375 0.0 0.0 0.765625 0.0 0.01953125 0.0 0.0 0.0 1.0 0.0" result="cxform"/><feComposite operator="in" in2="SourceGraphic" result="color-xform"/></filter><filter id="filter17"><feColorMatrix in="SourceGraphic" type="matrix" values="0.765625 0.0 0.0 0.0 0.1875 0.0 0.765625 0.0 0.0 0.12109375 0.0 0.0 0.765625 0.0 0.01953125 0.0 0.0 0.0 1.0 0.0" result="cxform"/><feComposite operator="in" in2="SourceGraphic" result="color-xform"/></filter><filter id="filter18"><feColorMatrix in="SourceGraphic" type="matrix" values="0.765625 0.0 0.0 0.0 0.1875 0.0 0.765625 0.0 0.0 0.12109375 0.0 0.0 0.765625 0.0 0.01953125 0.0 0.0 0.0 1.0 0.0" result="cxform"/><feComposite operator="in" in2="SourceGraphic" result="color-xform"/></filter><filter id="filter19"><feColorMatrix in="SourceGraphic" type="matrix" values="0.765625 0.0 0.0 0.0 0.1875 0.0 0.765625 0.0 0.0 0.12109375 0.0 0.0 0.765625 0.0 0.01953125 0.0 0.0 0.0 1.0 0.0" result="cxform"/><feComposite operator="in" in2="SourceGraphic" result="color-xform"/></filter><g id="c18"><g><use transform="matrix(1.0,0.0,0.0,1.0,0.0,0.0)" filter="url(#filter20)" xlink:href="#c17"/></g></g><filter id="filter20"><feColorMatrix in="SourceGraphic" type="matrix" values="1.0 0.0 0.0 0.0 0.0 0.0 1.0 0.0 0.0 0.0 0.0 0.0 1.0 0.0 0.0 0.0 0.0 0.0 0.8515625 0.0" result="cxform"/><feComposite operator="in" in2="SourceGraphic" result="color-xform"/></filter><g id="c19"><path fill="#482604" fill-opacity="0.443137254902" d="M26.7 10.4 L34.05 17.85 Q33.3 20.1 30.9 18.75 25.6 15.3 26.7 10.4"/><path fill="#a00101" stroke="none" d="M29.85 16.55 L29.15 15.9 27.45 14.05 27.0 13.3 26.65 12.65 Q26.0 11.2 26.45 10.45 L26.75 10.15 28.1 8.55 Q28.45 10.8 31.55 13.7 32.0 15.05 29.85 16.55"/><path fill="#870101" stroke="none" d="M29.85 16.55 Q32.0 15.05 31.55 13.7 28.45 10.8 28.1 8.55 28.65 7.45 28.3 6.1 L38.75 15.8 Q36.8 15.4 35.05 17.95 L34.95 18.1 34.85 18.2 32.6 18.15 31.9 17.9 29.85 16.55"/><path fill="none" stroke="#000000" stroke-width="0.5" stroke-opacity="0.301960784314" d="M28.1 8.55 L26.75 10.15 26.45 10.45 Q26.0 11.2 26.65 12.65 L27.0 13.3 27.45 14.05 29.15 15.9 29.85 16.55 M28.1 8.55 Q28.65 7.45 28.3 6.1 L38.75 15.8 Q36.8 15.4 35.05 17.95 L34.95 18.1 34.85 18.2 32.6 18.15 31.9 17.9 29.85 16.55"/><path fill="#d55500" stroke="none" d="M32.6 0.35 L33.3 0.05 Q34.15 -0.15 35.7 0.4 38.05 1.35 40.45 3.6 42.95 5.9 44.0 8.15 44.95 10.2 44.3 11.25 L44.25 11.3 41.15 11.25 40.2 10.85 Q38.3 9.9 36.3 8.1 L33.95 5.4 33.3 4.4 32.85 3.5 Q31.9 1.45 32.5 0.4 L32.6 0.35"/><path fill="#ff7011" stroke="none" d="M32.5 0.4 Q31.9 1.45 32.85 3.5 L33.3 4.4 33.95 5.4 36.3 8.1 Q38.3 9.9 40.2 10.85 L41.15 11.25 44.25 11.3 44.1 11.5 44.0 11.65 Q43.35 12.15 42.25 12.0 L40.8 11.65 39.8 11.25 Q38.75 10.75 37.75 9.95 L35.4 12.55 Q37.05 10.55 36.95 9.35 L35.95 8.5 33.55 5.8 32.95 4.8 32.45 3.9 32.4 3.75 Q31.55 1.8 32.15 0.85 L32.5 0.4"/><path fill="#ba0101" stroke="none" d="M44.0 11.65 L40.7 15.15 40.45 15.45 Q39.9 16.1 38.75 16.05 L42.25 12.0 Q43.35 12.15 44.0 11.65 M34.05 13.95 L34.0 13.85 32.3 12.45 Q30.1 10.4 29.0 8.35 L28.75 7.85 28.8 7.85 32.4 3.75 32.45 3.9 32.95 4.8 33.55 5.8 35.95 8.5 36.95 9.35 Q37.05 10.55 35.4 12.55 L34.05 13.95"/><path fill="#a20000" stroke="none" d="M32.6 0.35 L32.5 0.4 32.15 0.85 32.35 0.55 Q32.45 0.4 32.6 0.35 M38.75 16.05 L37.1 15.6 Q35.6 15.05 34.05 13.95 L35.4 12.55 37.75 9.95 Q38.75 10.75 39.8 11.25 L40.8 11.65 42.25 12.0 38.75 16.05 M28.45 4.75 L28.65 4.5 Q28.7 4.4 28.85 4.35 L28.45 4.75"/><path fill="#d20202" stroke="none" d="M28.8 7.85 Q27.8 5.75 28.45 4.75 L28.85 4.35 32.15 0.85 Q31.55 1.8 32.4 3.75 L28.8 7.85"/><path fill="none" stroke="#000000" stroke-width="0.5" stroke-opacity="0.301960784314" d="M44.25 11.3 L44.3 11.25 Q44.95 10.2 44.0 8.15 42.95 5.9 40.45 3.6 38.05 1.35 35.7 0.4 34.15 -0.15 33.3 0.05 L32.6 0.35 32.5 0.4 M44.25 11.3 L44.1 11.5 44.0 11.65 40.7 15.15 40.45 15.45 Q39.9 16.1 38.75 16.05 L37.1 15.6 Q35.6 15.05 34.05 13.95 L34.0 13.85 32.3 12.45 Q30.1 10.4 29.0 8.35 L28.75 7.85 28.8 7.85 Q27.8 5.75 28.45 4.75 L28.65 4.5 Q28.7 4.4 28.85 4.35 L32.15 0.85 32.35 0.55 Q32.45 0.4 32.6 0.35 M32.15 0.85 L32.5 0.4 M28.45 4.75 L28.85 4.35"/><path fill="#faf4e2" stroke="none" d="M5.8 27.75 L13.7 19.45 Q12.75 20.55 13.85 23.15 15.0 25.75 17.7 28.35 18.95 29.55 20.55 30.6 L18.65 32.6 12.85 38.6 10.05 36.05 Q7.4 33.5 6.25 30.85 5.35 28.85 5.8 27.75"/><path fill="#99cc33" stroke="none" d="M5.8 27.75 Q5.35 28.85 6.25 30.85 7.4 33.5 10.05 36.05 L12.85 38.6 11.85 39.7 8.05 40.35 7.05 39.45 Q4.35 36.85 3.2 34.25 2.1 31.75 3.0 30.65 L5.8 27.75"/><path fill="#000000" fill-opacity="0.301960784314" d="M12.85 38.6 L18.65 32.6 9.65 42.4 9.1 41.55 11.85 39.7 12.85 38.6"/><path fill="#ffffff" stroke="none" d="M2.75 30.3 L2.8 30.2 2.6 30.45 2.7 30.35 2.75 30.3"/><path fill="#b3d75b" stroke="none" d="M9.1 41.55 L8.9 41.65 8.05 40.35 11.85 39.7 9.1 41.55"/><path fill="none" stroke="#000000" stroke-width="0.5" stroke-opacity="0.301960784314" d="M18.65 32.6 L20.55 30.6 Q18.95 29.55 17.7 28.35 15.0 25.75 13.85 23.15 12.75 20.55 13.7 19.45 L5.8 27.75 M12.85 38.6 L18.65 32.6 M9.1 41.55 L8.9 41.65 8.05 40.35 7.05 39.45 Q4.35 36.85 3.2 34.25 2.1 31.75 3.0 30.65 L5.8 27.75 M11.85 39.7 L12.85 38.6 M9.1 41.55 L11.85 39.7"/><path fill="#ffffff" fill-opacity="0.301960784314" d="M8.3 39.4 Q5.65 37.15 4.4 34.7 L5.25 33.95 Q6.6 36.3 9.2 38.5 L8.3 39.4"/><path fill="#ffffff" fill-opacity="0.650980392157" d="M17.2 20.55 Q17.35 21.05 17.05 21.45 16.75 21.8 16.2 21.8 L15.25 21.5 Q14.8 21.15 14.65 20.6 14.55 20.1 14.85 19.75 15.15 19.35 15.65 19.35 16.2 19.35 16.65 19.7 17.1 20.05 17.2 20.55"/></g><g id="c20"><path fill="#302018" fill-opacity="0.501960784314" d="M172.0 0.0 L195.2 12.0 Q178.2 23.05 164.0 53.6 162.7 71.75 147.2 98.4 L36.8 212.0 Q7.9 208.0 0.0 192.0 L120.0 75.2 Q144.2 49.65 149.6 27.2 157.05 12.15 172.0 0.0"/></g><g id="c21"><g><use transform="matrix(1.0,0.0,0.0,1.0,0.0,0.0)" xlink:href="#c20"/></g></g><g id="c22"><g><use transform="matrix(1.0,0.0,0.0,1.0,0.0,0.0)" xlink:href="#c6"/></g></g><g id="c23"><path fill="#fee3bc" stroke="none" d="M10.65 23.75 L11.75 23.65 11.45 25.0 11.75 23.65 12.55 23.85 13.25 24.35 13.65 24.95 13.8 25.15 Q14.05 26.1 13.65 26.65 L13.45 27.05 13.15 27.55 12.8 27.0 12.65 26.9 12.35 26.35 11.9 25.65 12.55 23.85 11.9 25.65 11.45 25.0 10.65 23.75 M15.1 31.5 L15.2 31.5 Q15.65 31.6 15.75 31.9 L15.6 32.6 14.9 33.1 14.2 33.25 14.75 32.5 15.1 31.5 M6.4 31.85 L4.8 31.6 Q3.45 30.55 4.75 29.85 5.6 29.75 6.3 30.75 L7.0 31.65 6.4 31.85 M13.65 24.95 L12.8 27.0 13.65 24.95 M13.25 24.35 L12.35 26.35 13.25 24.35 M14.65 30.05 L14.55 30.85 14.05 31.5 13.4 31.55 13.05 31.05 Q12.95 30.65 13.15 30.25 L13.65 29.65 14.25 29.55 14.65 30.05 M14.4 30.2 L14.1 29.9 13.7 29.95 13.4 30.35 13.3 30.85 13.55 31.2 14.0 31.1 14.3 30.75 14.4 30.2 M11.7 29.25 L11.45 28.9 11.05 28.95 Q10.8 29.1 10.7 29.35 10.6 29.65 10.65 29.9 L10.9 30.25 11.3 30.15 11.65 29.75 11.7 29.25 M11.95 29.9 L11.4 30.65 10.7 30.7 10.25 30.1 Q10.15 29.7 10.4 29.2 10.55 28.8 10.95 28.55 L11.65 28.45 12.1 29.0 11.95 29.9"/><path fill="#993300" stroke="none" d="M10.65 23.75 L11.45 25.0 11.9 25.65 12.35 26.35 12.65 26.9 11.6 27.05 Q11.0 27.3 10.55 27.7 L9.4 28.95 8.65 30.1 Q8.15 30.9 7.8 31.85 7.5 32.85 7.45 33.9 6.65 33.05 6.4 31.85 L7.0 31.65 6.3 30.75 Q6.25 29.55 6.7 27.95 L6.8 27.55 7.15 26.35 7.65 25.8 8.45 25.05 10.1 23.3 10.65 23.75 M13.65 26.65 L14.15 27.2 14.6 28.1 14.65 28.1 14.6 28.1 13.65 27.15 13.45 27.05 13.65 26.65 M11.15 27.15 Q10.95 26.3 10.3 26.2 L9.75 26.35 9.6 26.4 Q9.6 26.0 8.85 26.0 L9.1 25.45 8.45 25.05 9.1 25.45 10.4 25.35 9.1 25.45 8.85 26.0 Q9.6 26.0 9.6 26.4 L9.75 26.35 10.3 26.2 Q10.95 26.3 11.15 27.15 M7.4 28.35 Q7.8 28.05 8.15 29.1 7.8 28.05 7.4 28.35 6.7 28.6 6.7 29.75 6.7 28.6 7.4 28.35 7.3 27.6 7.85 27.35 L8.0 26.7 7.6 26.65 Q7.15 26.75 6.8 27.55 7.15 26.75 7.6 26.65 L8.0 26.7 7.85 27.35 Q7.3 27.6 7.4 28.35 M8.9 27.4 L8.5 27.2 7.85 27.35 8.5 27.2 8.9 27.4 Q9.05 26.7 9.6 26.4 9.05 26.7 8.9 27.4 9.3 27.7 9.25 28.3 9.3 27.7 8.9 27.4 M8.0 26.7 Q8.2 25.95 8.85 26.0 8.2 25.95 8.0 26.7 M7.6 26.65 L7.65 25.8 7.6 26.65"/><path fill="#c13a02" stroke="none" d="M14.65 28.1 Q15.5 30.0 15.1 31.5 L14.75 32.5 14.2 33.25 13.85 33.6 13.7 33.75 7.45 33.9 Q7.5 32.85 7.8 31.85 8.15 30.9 8.65 30.1 L9.4 28.95 10.55 27.7 Q11.0 27.3 11.6 27.05 L12.65 26.9 12.8 27.0 13.15 27.55 13.45 27.05 13.65 27.15 14.6 28.1 14.65 28.1 M14.65 30.05 L14.25 29.55 13.65 29.65 13.15 30.25 Q12.95 30.65 13.05 31.05 L13.4 31.55 14.05 31.5 14.55 30.85 14.65 30.05 M11.95 29.9 L12.1 29.0 11.65 28.45 10.95 28.55 Q10.55 28.8 10.4 29.2 10.15 29.7 10.25 30.1 L10.7 30.7 11.4 30.65 11.95 29.9"/><path fill="#6d2101" stroke="none" d="M14.4 30.2 L14.3 30.75 14.0 31.1 13.55 31.2 13.3 30.85 13.4 30.35 13.7 29.95 14.1 29.9 14.4 30.2 M11.7 29.25 L11.65 29.75 11.3 30.15 10.9 30.25 10.65 29.9 Q10.6 29.65 10.7 29.35 10.8 29.1 11.05 28.95 L11.45 28.9 11.7 29.25"/><path fill="none" stroke="#000000" stroke-width="0.5" stroke-opacity="0.301960784314" d="M11.75 23.65 L10.65 23.75 11.45 25.0 11.75 23.65 12.55 23.85 13.25 24.35 13.65 24.95 13.8 25.15 Q14.05 26.1 13.65 26.65 L14.15 27.2 14.6 28.1 14.65 28.1 Q15.5 30.0 15.1 31.5 L15.2 31.5 Q15.65 31.6 15.75 31.9 L15.6 32.6 14.9 33.1 14.2 33.25 13.85 33.6 13.7 33.75 7.45 33.9 Q6.65 33.05 6.4 31.85 L4.8 31.6 Q3.45 30.55 4.75 29.85 5.6 29.75 6.3 30.75 6.25 29.55 6.7 27.95 L6.8 27.55 7.15 26.35 7.65 25.8 8.45 25.05 10.1 23.3 10.65 23.75 M8.45 25.05 L9.1 25.45 10.4 25.35 M9.1 25.45 L8.85 26.0 Q9.6 26.0 9.6 26.4 L9.75 26.35 10.3 26.2 Q10.95 26.3 11.15 27.15 M12.65 26.9 L12.8 27.0 13.65 24.95 M11.9 25.65 L12.35 26.35 13.25 24.35 M12.35 26.35 L12.65 26.9 M13.45 27.05 L13.15 27.55 12.8 27.0 M13.45 27.05 L13.65 26.65 M12.55 23.85 L11.9 25.65 11.45 25.0 M14.65 30.05 L14.55 30.85 14.05 31.5 13.4 31.55 13.05 31.05 Q12.95 30.65 13.15 30.25 L13.65 29.65 14.25 29.55 14.65 30.05 M15.1 31.5 L14.75 32.5 14.2 33.25 M11.95 29.9 L11.4 30.65 10.7 30.7 10.25 30.1 Q10.15 29.7 10.4 29.2 10.55 28.8 10.95 28.55 L11.65 28.45 12.1 29.0 11.95 29.9 M9.6 26.4 Q9.05 26.7 8.9 27.4 9.3 27.7 9.25 28.3 M6.7 29.75 Q6.7 28.6 7.4 28.35 7.3 27.6 7.85 27.35 L8.0 26.7 7.6 26.65 Q7.15 26.75 6.8 27.55 M7.85 27.35 L8.5 27.2 8.9 27.4 M8.15 29.1 Q7.8 28.05 7.4 28.35 M6.3 30.75 L7.0 31.65 6.4 31.85 M7.65 25.8 L7.6 26.65 M8.85 26.0 Q8.2 25.95 8.0 26.7"/><path fill="#fe7c45" stroke="none" d="M12.8 34.0 Q9.05 34.95 8.25 32.65 9.85 31.55 11.55 32.1 13.7 32.8 12.8 34.0 M12.05 33.7 Q12.65 32.85 11.25 32.45 10.15 32.1 9.1 32.8 9.65 34.35 12.05 33.7"/><path fill="#6d2101" stroke="none" d="M12.05 33.7 Q9.65 34.35 9.1 32.8 10.15 32.1 11.25 32.45 12.65 32.85 12.05 33.7"/></g><g id="c24"><path fill="#ffffff" fill-opacity="0.650980392157" d="M34.45 5.9 L34.35 6.5 33.7 6.45 33.0 5.9 32.65 5.05 Q32.6 4.65 32.8 4.5 33.0 4.35 33.4 4.5 L34.05 5.1 34.45 5.9"/></g><g id="c25"><g><use transform="matrix(1.0,0.0,0.0,1.0,0.0,0.0)" xlink:href="#c11"/></g><g><use transform="matrix(0.135848999023,0.0,0.0,0.136108398438,0.0,9.45)" filter="url(#filter24)" xlink:href="#c13"/></g><g><use transform="matrix(0.126251220703,0.0184020996094,-0.0183715820312,0.12646484375,4.7,17.35)" filter="url(#filter25)" xlink:href="#c18"/></g><g><use transform="matrix(1.0,0.0,0.0,1.0,0.0,0.0)" xlink:href="#c19"/></g><g><use transform="matrix(0.135848999023,0.0,0.0,0.136108398438,6.5,16.15)" filter="url(#filter27)" xlink:href="#c21"/></g><g><use transform="matrix(0.0297546386719,0.0355377197266,-0.04345703125,0.0380249023438,16.65,20.8)" filter="url(#filter28)" xlink:href="#c22"/></g><g><use transform="matrix(1.0,0.0,0.0,1.0,0.0,0.0)" xlink:href="#c23"/></g><g><use transform="matrix(0.0592498779297,0.0707397460938,-0.0628814697266,0.0190582275391,37.45,6.45)" filter="url(#filter30)" xlink:href="#c22"/></g><g><use transform="matrix(0.0567932128906,0.0678100585938,-0.142181396484,0.124389648438,17.5,28.8)" filter="url(#filter31)" xlink:href="#c22"/></g><g><use transform="matrix(1.0,0.0,0.0,1.0,0.0,0.0)" xlink:href="#c24"/></g></g><filter id="filter24"><feColorMatrix in="SourceGraphic" type="matrix" values="0.52734375 0.0 0.0 0.0 0.28125 0.0 0.52734375 0.0 0.0 0.1875 0.0 0.0 0.52734375 0.0 0.0 0.0 0.0 0.0 1.0 0.0" result="cxform"/><feComposite operator="in" in2="SourceGraphic" result="color-xform"/></filter><filter id="filter25"><feColorMatrix in="SourceGraphic" type="matrix" values="0.26953125 0.0 0.0 0.0 0.0 0.0 0.26953125 0.0 0.0 0.0 0.0 0.0 0.26953125 0.0 0.0 0.0 0.0 0.0 1.0 0.0" result="cxform"/><feComposite operator="in" in2="SourceGraphic" result="color-xform"/></filter><filter id="filter27"><feColorMatrix in="SourceGraphic" type="matrix" values="1.0 0.0 0.0 0.0 0.0 0.0 1.0 0.0 0.0 0.0 0.0 0.0 1.0 0.0 0.0 0.0 0.0 0.0 0.41015625 0.0" result="cxform"/><feComposite operator="in" in2="SourceGraphic" result="color-xform"/></filter><filter id="filter28"><feColorMatrix in="SourceGraphic" type="matrix" values="0.0 0.0 0.0 0.0 0.99609375 0.0 0.0 0.0 0.0 0.99609375 0.0 0.0 0.0 0.0 0.0 0.0 0.0 0.0 0.21875 0.0" result="cxform"/><feComposite operator="in" in2="SourceGraphic" result="color-xform"/></filter><filter id="filter30"><feColorMatrix in="SourceGraphic" type="matrix" values="1.0 0.0 0.0 0.0 0.0 0.0 1.0 0.0 0.0 0.0 0.0 0.0 1.0 0.0 0.0 0.0 0.0 0.0 0.1796875 0.0" result="cxform"/><feComposite operator="in" in2="SourceGraphic" result="color-xform"/></filter><filter id="filter31"><feColorMatrix in="SourceGraphic" type="matrix" values="1.0 0.0 0.0 0.0 0.0 0.0 1.0 0.0 0.0 0.0 0.0 0.0 1.0 0.0 0.0 0.0 0.0 0.0 0.1796875 0.0" result="cxform"/><feComposite operator="in" in2="SourceGraphic" result="color-xform"/></filter><g id="c26"><g><use transform="matrix(2.63194274902,0.0,0.0,2.63194274902,2.2,0.0)" xlink:href="#c25"/></g></g><g id="c27"><g><use transform="matrix(1.0,0.0,0.0,1.0,6.3,53.35)" xlink:href="#c10"/></g><g><use transform="matrix(-0.146041870117,0.0488891601562,0.0616760253906,0.140441894531,33.05,65.15)" xlink:href="#c26"/></g><g><use transform="matrix(0.141098022461,-0.0378112792969,0.111373901367,0.225646972656,27.2,74.05)" filter="url(#filter36)" xlink:href="#c7"/></g></g><filter id="filter36"><feColorMatrix in="SourceGraphic" type="matrix" values="1.0 0.0 0.0 0.0 0.0 0.0 1.0 0.0 0.0 0.0 0.0 0.0 1.0 0.0 0.0 0.0 0.0 0.0 0.23046875 0.0" result="cxform"/><feComposite operator="in" in2="SourceGraphic" result="color-xform"/></filter><g id="c28"><mask id="mask2"><use transform="matrix(1.0,0.0,0.0,1.0,0.0,0.0)" xlink:href="#c2"/></mask><g mask="url(#mask2)"><use transform="matrix(1.15496826172,0.0,0.0,1.15496826172,-8.1,-63.5)" xlink:href="#c27"/></g></g></defs><g><g><use transform="matrix(1.0,0.0,0.0,1.0,0.0,0.0)" xlink:href="#c1"/></g><g><use transform="matrix(1.19459533691,0.0,0.0,1.19459533691,-1.85,-5.95)" xlink:href="#c28"/></g></g></svg>