<?xml version='1.0' encoding='UTF-8'?>
<svg xmlns:xlink="http://www.w3.org/1999/xlink" xmlns="http://www.w3.org/2000/svg" version="1.1" width="63px" height="66px" viewBox="-2.65006316541 -5.94738609357 62.6500631654 65.9473860936"><defs><g id="c1"><path fill="#000000" fill-opacity="0.00392156862745" d="M0.0 0.0 L60.0 0.0 60.0 60.0 0.0 60.0 0.0 0.0"/><path fill="none" stroke="#000000" stroke-width="1.0" stroke-opacity="0.301960784314" d="M4.0 20.1 L15.85 22.45 22.7 12.85 28.0 20.85 32.75 18.65 36.45 26.75 41.75 20.85 44.2 25.4 50.9 25.4"/></g><g id="c2"><path fill="#ffffff" stroke="none" d="M4.7 21.8 L14.7 23.8 20.5 15.85 25.05 22.45 29.0 20.55 32.0 27.3 36.5 22.45 38.55 26.3 46.15 26.3 50.05 30.85 50.05 49.65 7.5 49.65 3.9 22.15 4.7 21.8"/></g><g id="c3"><path fill="none" stroke="#000000" stroke-width="1.0" stroke-opacity="0.301960784314" d="M0.7 12.25 Q-0.45 9.75 0.75 8.25 1.2 7.6 2.15 7.15 2.8 6.7 3.8 6.35 L17.5 1.95 30.2 7.0 41.35 31.7 Q42.95 35.15 40.2 36.7 39.5 37.3 38.3 37.65 L25.5 41.8 25.45 41.75 24.55 42.0 11.85 37.0 0.7 12.25"/><path fill="#9d147b" stroke="none" d="M35.55 22.3 L31.5 13.2 29.75 9.2 16.95 4.25 5.5 7.85 Q1.65 9.1 3.35 12.8 L8.25 23.65 13.1 34.35 25.8 39.4 37.2 35.7 Q41.1 34.5 39.35 30.75 L35.55 22.3 M2.15 7.15 Q2.8 6.7 3.8 6.35 L17.5 1.95 30.2 7.0 41.35 31.7 Q42.95 35.15 40.2 36.7 L38.9 37.25 25.2 41.65 12.5 36.65 5.45 20.95 1.35 11.8 Q0.4 9.65 1.1 8.3 1.45 7.65 2.15 7.15"/><path fill="#c47fad" stroke="none" d="M31.5 13.2 L35.55 22.3 39.35 30.75 Q41.1 34.5 37.2 35.7 L25.8 39.4 13.1 34.35 8.25 23.65 3.35 12.8 Q1.65 9.1 5.5 7.85 L16.95 4.25 29.75 9.2 31.5 13.2 M18.5 7.45 L9.1 10.55 9.55 11.6 Q9.8 12.8 9.15 13.6 8.4 14.45 7.1 14.4 L6.8 14.4 6.95 14.6 15.2 32.75 23.85 36.2 34.0 32.9 33.7 32.1 Q33.45 30.9 34.1 30.1 34.75 29.3 35.95 29.35 L35.8 29.0 27.75 10.95 18.5 7.45"/><path fill="#fcf2cf" stroke="none" d="M27.75 10.95 L35.8 29.0 35.95 29.35 Q34.75 29.3 34.1 30.1 33.45 30.9 33.7 32.1 L34.0 32.9 23.85 36.2 15.2 32.75 6.95 14.6 6.8 14.4 7.1 14.4 Q8.4 14.45 9.15 13.6 9.8 12.8 9.55 11.6 L9.1 10.55 18.5 7.45 27.75 10.95"/><path fill="#630a4c" stroke="none" d="M0.75 8.25 Q1.2 7.6 2.15 7.15 1.45 7.65 1.1 8.3 L0.75 8.25 M11.55 36.25 L11.25 35.55 4.6 20.9 5.45 20.95 12.5 36.65 11.55 36.25"/><path fill="#300525" stroke="none" d="M4.6 20.9 L0.7 12.25 Q-0.45 9.75 0.75 8.25 L1.1 8.3 Q0.4 9.65 1.35 11.8 L5.45 20.95 4.6 20.9 M40.2 36.7 Q39.5 37.3 38.3 37.65 L25.5 41.8 25.45 41.75 24.55 42.0 11.85 37.0 11.55 36.25 12.5 36.65 25.2 41.65 38.9 37.25 40.2 36.7"/><path fill="none" stroke="#bf9900" stroke-width="1.0" stroke-opacity="0.749019607843" d="M31.5 13.2 L35.55 22.3 M13.1 34.35 L8.25 23.65"/><path fill="none" stroke="#ffcc00" stroke-width="1.0" stroke-opacity="0.749019607843" d="M35.55 22.3 L39.35 30.75 Q41.1 34.5 37.2 35.7 L25.8 39.4 M8.25 23.65 L3.35 12.8 Q1.65 9.1 5.5 7.85 L16.95 4.25 29.75 9.2 31.5 13.2"/><path fill="none" stroke="#f0b92b" stroke-width="0.5" d="M27.75 10.95 L35.8 29.0 35.95 29.35 Q34.75 29.3 34.1 30.1 33.45 30.9 33.7 32.1 L34.0 32.9 23.85 36.2 15.2 32.75 6.95 14.6 6.8 14.4 7.1 14.4 Q8.4 14.45 9.15 13.6 9.8 12.8 9.55 11.6 L9.1 10.55 18.5 7.45"/><path fill="none" stroke="#000000" stroke-width="0.5" stroke-opacity="0.301960784314" d="M4.6 20.9 L0.7 12.25 Q-0.45 9.75 0.75 8.25 1.2 7.6 2.15 7.15 2.8 6.7 3.8 6.35 L17.5 1.95 M30.2 7.0 L41.35 31.7 Q42.95 35.15 40.2 36.7 39.5 37.3 38.3 37.65 L25.5 41.8 M11.25 35.55 L4.6 20.9 M5.45 20.95 L1.35 11.8 Q0.4 9.65 1.1 8.3 1.45 7.65 2.15 7.15 M12.5 36.65 L5.45 20.95 M40.2 36.7 L38.9 37.25 25.2 41.65"/><path fill="none" stroke="#ffcc00" stroke-width="0.5" stroke-opacity="0.749019607843" d="M18.5 7.45 L27.75 10.95"/><path fill="none" stroke="#f0b92b" stroke-width="1.0" stroke-opacity="0.749019607843" d="M25.8 39.4 L13.1 34.35"/><path fill="none" stroke="#432f2f" stroke-width="0.5" d="M25.2 41.65 L12.5 36.65"/></g><g id="c4"><path fill="#7fdbfe" stroke="none" d="M10.75 4.9 Q10.75 4.6 10.9 4.35 11.25 3.45 11.95 2.75 13.3 1.5 14.35 2.1 15.4 2.7 14.95 4.45 14.7 5.4 14.1 6.15 L13.75 6.5 Q13.1 7.15 12.35 7.35 L11.4 7.2 Q10.95 6.9 10.75 6.4 10.5 5.75 10.75 4.9 M7.5 5.9 Q7.0 5.85 6.6 5.5 6.05 5.0 5.8 4.15 L5.7 3.6 Q5.55 2.65 5.8 1.7 6.25 0.0 7.5 0.0 L7.6 0.0 Q8.85 0.0 9.3 1.7 9.55 2.65 9.4 3.6 L9.3 4.15 8.5 5.5 7.6 5.9 7.5 5.9 M4.35 4.9 Q4.6 5.75 4.35 6.4 L3.7 7.2 2.75 7.35 Q2.0 7.15 1.35 6.5 L1.0 6.15 Q0.4 5.4 0.15 4.45 -0.3 2.7 0.75 2.1 1.8 1.5 3.15 2.75 3.85 3.45 4.2 4.35 L4.35 4.9 M5.5 13.7 Q4.45 13.9 3.65 12.95 2.75 12.0 3.2 10.25 3.7 8.5 5.25 7.6 6.4 6.9 7.55 7.0 8.75 6.9 9.9 7.6 11.45 8.5 11.95 10.25 12.35 12.0 11.5 12.95 10.7 13.9 9.65 13.7 8.55 13.5 7.55 12.6 6.55 13.5 5.5 13.7"/></g><g id="c5"><g><use transform="matrix(1.0,0.0,0.0,1.0,0.0,0.0)" xlink:href="#c4"/></g></g><radialGradient gradientUnits="userSpaceOnUse" r="819.2" cx="0" cy="0" spreadMethod="pad" gradientTransform="matrix(0.0914459228516,0.0,0.0,0.0914459228516,0.6,3.4)" id="gradient1"><stop offset="0.0" stop-color="#ffffff"/><stop offset="1.0" stop-color="#ffffff" stop-opacity="0.0"/></radialGradient><g id="c6"><path stroke="none" fill="url(#gradient1)" d="M36.65 -54.65 Q60.05 -42.0 69.75 -17.95 80.55 8.9 68.0 34.1 55.45 59.35 26.8 68.2 -1.8 77.05 -29.7 64.3 -57.6 51.6 -68.45 24.75 -79.3 -2.05 -66.75 -27.25 L-66.7 -27.3 Q-54.1 -52.5 -25.5 -61.4 3.1 -70.2 31.0 -57.5 L36.65 -54.65"/></g><g id="c7"><g><use transform="matrix(1.0,0.0,0.0,1.0,0.0,0.0)" xlink:href="#c6"/></g></g><radialGradient gradientUnits="userSpaceOnUse" r="819.2" cx="0" cy="0" spreadMethod="pad" gradientTransform="matrix(0.209197998047,0.0,0.0,0.177108764648,67.15,107.2)" id="gradient2"><stop offset="0.356862745098" stop-color="#ffffff"/><stop offset="0.670588235294" stop-opacity="0.0"/></radialGradient><g id="c8"><path fill="none" stroke-linejoin="round" stroke-linecap="round" stroke="url(#gradient2)" stroke-width="0.5" d="M136.55 165.8 L68.6 106.0 68.4 106.0 118.25 201.5 M68.2 105.7 L68.25 105.8 68.25 105.75 68.2 105.7 0.0 45.7 M68.25 105.8 L68.3 105.85 68.3 105.8 68.25 105.75 49.95 0.05 M0.05 97.7 L68.15 105.95 68.25 105.85 68.25 105.8 M68.3 105.85 L68.25 105.85 68.3 106.0 68.3 105.85 68.3 105.8 68.35 105.8 68.3 105.8 86.6 18.35 M50.0 193.2 L68.3 106.0 68.15 105.95 18.25 151.55 M68.4 106.0 L68.3 106.0 86.55 211.5 M68.4 106.0 L68.3 105.85 M68.6 106.0 L68.35 105.8 118.25 60.15 M136.6 114.25 L68.6 106.0 M68.2 105.7 L18.25 10.05"/></g><g id="c9"><g><use transform="matrix(1.0,0.0,0.0,1.0,0.0,0.0)" xlink:href="#c8"/></g></g><g id="c10"><g><use transform="matrix(1.0,0.0,0.0,1.0,0.0,0.0)" xlink:href="#c3"/></g><g><use transform="matrix(0.238861083984,-0.0867004394531,0.10026550293,0.233917236328,34.25,31.15)" xlink:href="#c5"/></g><g><use transform="matrix(0.238861083984,-0.0867004394531,0.10026550293,0.233917236328,4.25,10.3)" xlink:href="#c5"/></g><g><use transform="matrix(0.141098022461,-0.0378112792969,0.111373901367,0.225646972656,20.25,20.65)" filter="url(#filter7)" xlink:href="#c7"/></g><g><use transform="matrix(-0.155029296875,0.0513153076172,0.0841827392578,0.147033691406,22.6,3.15)" filter="url(#filter8)" xlink:href="#c9"/></g></g><filter id="filter7"><feColorMatrix in="SourceGraphic" type="matrix" values="0.0 0.0 0.0 0.0 0.796875 0.0 0.0 0.0 0.0 0.59765625 0.0 0.0 0.0 0.0 0.19921875 0.0 0.0 0.0 1.0 0.0" result="cxform"/><feComposite operator="in" in2="SourceGraphic" result="color-xform"/></filter><filter id="filter8"><feColorMatrix in="SourceGraphic" type="matrix" values="0.0 0.0 0.0 0.0 0.99609375 0.0 0.0 0.0 0.0 0.99609375 0.0 0.0 0.0 0.0 0.99609375 0.0 0.0 0.0 1.0 0.0" result="cxform"/><feComposite operator="in" in2="SourceGraphic" result="color-xform"/></filter><g id="c11"><path fill="#b89649" stroke="none" d="M24.35 16.65 L23.35 16.75 Q23.15 16.8 23.0 16.95 L22.4 18.15 22.35 18.25 22.35 18.4 23.4 18.65 23.45 18.1 23.5 18.0 Q23.75 17.2 24.1 16.85 L24.35 16.65 M22.25 22.55 L21.35 23.15 21.4 23.2 Q20.05 24.05 19.6 24.75 L19.5 24.85 19.25 25.65 19.25 26.15 19.25 26.2 19.25 26.3 20.45 26.6 20.3 26.1 20.3 26.05 Q20.25 25.8 20.35 25.55 20.4 25.1 20.6 24.7 L20.65 24.65 Q21.1 23.9 22.45 23.05 L22.45 23.0 23.3 22.45 22.25 22.55 M22.6 28.7 L22.65 29.4 22.7 29.45 23.25 32.25 23.25 32.35 23.3 32.35 23.35 32.4 23.4 32.4 23.4 32.45 23.45 32.65 24.7 32.85 24.5 32.35 Q24.05 31.35 23.75 29.3 L23.7 28.6 22.6 28.7"/><path fill="#d9d9a0" stroke="none" d="M24.35 16.65 L24.1 16.85 Q23.75 17.2 23.5 18.0 L23.45 18.1 23.4 18.65 Q24.15 18.6 24.95 18.0 L25.0 17.95 25.05 17.85 25.15 17.45 25.65 16.65 25.95 16.45 24.35 16.65 M30.15 30.1 L30.4 30.05 30.75 30.05 32.8 29.8 31.55 29.8 31.5 29.75 31.25 29.65 30.6 29.5 30.55 29.5 30.6 29.5 30.5 29.45 30.45 29.55 30.35 29.6 30.35 29.65 30.15 30.1 M31.55 18.3 L30.35 18.4 30.0 18.4 29.75 18.45 29.05 18.5 29.2 18.75 29.6 19.25 30.15 18.9 30.8 18.55 31.55 18.3 M24.85 22.25 L23.3 22.45 22.45 23.0 22.45 23.05 Q21.1 23.9 20.65 24.65 L20.6 24.7 Q20.4 25.1 20.35 25.55 20.25 25.8 20.3 26.05 L20.3 26.1 20.45 26.6 21.95 26.15 21.85 25.9 21.85 25.85 Q21.8 25.6 21.9 25.35 L22.15 24.5 22.2 24.45 Q22.65 23.75 24.0 22.85 L24.0 22.8 24.85 22.25 M25.25 28.4 L23.7 28.6 23.75 29.3 Q24.05 31.35 24.5 32.35 L24.7 32.85 Q25.45 32.75 26.1 32.35 L26.05 32.15 Q25.6 31.15 25.35 29.15 L25.3 29.1 25.25 28.4"/><path fill="#f0f0c0" stroke="none" d="M27.3 33.4 Q27.8 33.4 28.4 32.85 L29.85 30.65 29.9 30.6 30.0 30.5 30.15 30.1 30.35 29.65 30.35 29.6 30.45 29.5 30.45 29.45 30.5 29.45 30.6 29.5 30.55 29.5 30.6 29.5 31.25 29.65 31.5 29.75 31.55 29.8 32.8 29.8 33.05 29.75 33.75 29.6 Q34.6 29.4 34.8 28.7 35.05 28.15 34.8 27.25 L34.75 27.1 34.75 27.05 34.4 26.2 33.6 24.6 33.05 23.65 33.35 22.85 33.35 22.8 33.4 22.7 Q34.05 21.0 34.1 20.0 L34.1 19.8 33.95 19.1 33.85 18.75 33.75 18.6 Q33.45 18.15 32.95 18.1 L32.35 18.15 31.55 18.3 30.8 18.55 30.15 18.9 29.6 19.25 29.2 18.75 29.05 18.5 Q28.05 17.15 27.25 16.75 L27.25 16.7 26.0 16.45 25.95 16.45 25.65 16.65 25.15 17.45 25.05 17.85 25.0 17.95 24.95 18.0 Q24.8 19.05 24.95 21.1 L24.85 22.25 24.0 22.8 24.0 22.85 Q22.65 23.75 22.2 24.45 L22.15 24.5 21.9 25.35 Q21.8 25.6 21.85 25.85 L21.85 25.9 21.95 26.15 22.5 27.05 Q23.1 27.6 24.45 28.2 L24.55 28.25 25.25 28.4 25.3 29.1 25.35 29.15 Q25.6 31.15 26.05 32.15 L26.1 32.35 26.25 32.6 Q26.55 33.1 27.0 33.25 L27.05 33.25 27.3 33.4"/><path fill="#856a35" stroke="none" d="M23.4 18.65 L22.35 18.4 22.25 20.4 22.25 20.75 22.3 21.4 22.25 21.95 22.25 22.55 23.3 22.45 23.35 21.85 Q23.3 21.6 23.4 21.25 L23.35 20.6 23.3 20.25 23.4 18.65 M19.25 26.3 L19.85 27.35 19.9 27.35 Q20.5 27.9 21.8 28.5 L21.9 28.55 22.6 28.7 23.7 28.6 23.0 28.4 22.9 28.4 Q21.55 27.75 20.95 27.25 L20.45 26.6 19.25 26.3 M23.45 32.65 Q23.85 33.4 24.35 33.6 L24.4 33.6 24.65 33.7 25.1 33.65 25.75 33.55 25.5 33.45 25.45 33.45 24.7 32.85 23.45 32.65"/><path fill="#a3a370" stroke="none" d="M25.75 33.55 L27.3 33.4 27.05 33.25 27.0 33.25 Q26.55 33.1 26.25 32.6 L26.1 32.35 Q25.45 32.75 24.7 32.85 L25.45 33.45 25.5 33.45 25.75 33.55 M24.95 18.0 Q24.15 18.6 23.4 18.65 L23.3 20.25 23.35 20.6 23.4 21.25 Q23.3 21.6 23.35 21.85 L23.3 22.45 24.85 22.25 24.95 21.1 Q24.8 19.05 24.95 18.0 M21.95 26.15 L20.45 26.6 20.95 27.25 Q21.55 27.75 22.9 28.4 L23.0 28.4 23.7 28.6 25.25 28.4 24.55 28.25 24.45 28.2 Q23.1 27.6 22.5 27.05 L21.95 26.15"/><path fill="#522e26" stroke="none" d="M30.45 29.5 L30.35 29.6 30.45 29.55 30.5 29.45 30.45 29.5"/><path fill="none" stroke="#000000" stroke-width="0.5" stroke-opacity="0.301960784314" d="M22.35 18.4 L22.35 18.25 22.4 18.15 23.0 16.95 Q23.15 16.8 23.35 16.75 L24.35 16.65 M22.35 18.4 L22.25 20.4 22.25 20.75 22.3 21.4 22.25 21.95 22.25 22.55 21.35 23.15 21.4 23.2 Q20.05 24.05 19.6 24.75 L19.5 24.85 19.25 25.65 19.25 26.15 19.25 26.2 19.25 26.3 19.85 27.35 19.9 27.35 Q20.5 27.9 21.8 28.5 L21.9 28.55 22.6 28.7 22.65 29.4 22.7 29.45 23.25 32.25 23.25 32.35 23.3 32.35 23.35 32.4 23.4 32.4 23.4 32.45 23.45 32.65 Q23.85 33.4 24.35 33.6 L24.4 33.6 24.65 33.7 25.1 33.65 25.75 33.55 27.3 33.4 Q27.8 33.4 28.4 32.85 L29.85 30.65 29.9 30.6 30.0 30.5 30.15 30.1 30.4 30.05 30.75 30.05 32.8 29.8 33.05 29.75 33.75 29.6 Q34.6 29.4 34.8 28.7 35.05 28.15 34.8 27.25 L34.75 27.1 34.75 27.05 34.4 26.2 33.6 24.6 33.05 23.65 33.35 22.85 33.35 22.8 33.4 22.7 Q34.05 21.0 34.1 20.0 L34.1 19.8 33.95 19.1 33.85 18.75 33.75 18.6 Q33.45 18.15 32.95 18.1 L32.35 18.15 31.55 18.3 30.35 18.4 30.0 18.4 29.75 18.45 29.05 18.5 Q28.05 17.15 27.25 16.75 L27.25 16.7 26.0 16.45 25.95 16.45 24.35 16.65 M24.95 18.0 L25.0 17.95 25.05 17.85 25.15 17.45 25.65 16.65 25.95 16.45 M23.3 22.45 L22.25 22.55 M24.85 22.25 L24.95 21.1 Q24.8 19.05 24.95 18.0 M24.85 22.25 L23.3 22.45 M21.95 26.15 L21.85 25.9 21.85 25.85 Q21.8 25.6 21.9 25.35 L22.15 24.5 22.2 24.45 Q22.65 23.75 24.0 22.85 L24.0 22.8 24.85 22.25 M29.05 18.5 L29.2 18.75 29.6 19.25 30.15 18.9 30.8 18.55 31.55 18.3 M32.8 29.8 L31.55 29.8 31.5 29.75 31.25 29.65 30.6 29.5 30.55 29.5 30.6 29.5 30.5 29.45 M30.35 29.65 L30.15 30.1 M23.7 28.6 L22.6 28.7 M25.25 28.4 L24.55 28.25 24.45 28.2 Q23.1 27.6 22.5 27.05 L21.95 26.15 M23.7 28.6 L25.25 28.4 25.3 29.1 25.35 29.15 Q25.6 31.15 26.05 32.15 L26.1 32.35 M27.3 33.4 L27.05 33.25 27.0 33.25 Q26.55 33.1 26.25 32.6 L26.1 32.35"/></g><g id="c12"><path fill="#f0f0c0" stroke="none" d="M4.55 -11.1 L4.6 -10.95 Q5.1 -9.25 5.3 -5.85 L5.5 -4.9 -2.25 9.0 -2.4 9.05 -2.3 9.05 -2.4 9.1 -3.45 9.5 -3.8 9.65 -3.85 9.7 -6.0 10.0 -6.4 10.0 -7.55 9.85 Q-8.55 9.7 -9.1 9.1 L3.3 -13.05 4.2 -11.85 4.5 -11.2 4.55 -11.1 M7.15 -3.2 L7.2 -3.15 9.15 -2.0 0.75 13.1 -0.95 10.85 -1.05 10.7 -1.2 10.55 -1.35 10.3 6.45 -3.6 Q6.85 -3.35 7.15 -3.2"/></g><g id="c13"><g><use transform="matrix(1.0,0.0,0.0,1.0,0.0,0.0)" xlink:href="#c12"/></g></g><g id="c14"><path fill="#f0f0c0" stroke="none" d="M32.45 20.0 L31.85 19.85 Q31.25 19.8 30.3 20.4 L30.0 20.6 Q31.25 21.4 31.8 23.1 L31.95 23.5 32.1 23.0 32.65 20.95 32.6 20.3 32.45 20.0 M25.95 22.0 Q26.45 21.1 27.25 20.6 27.95 20.15 28.75 20.15 L28.55 20.05 27.2 18.6 Q26.8 18.35 26.5 18.4 26.25 18.65 26.15 19.2 25.8 20.0 25.9 21.7 L25.95 22.0 M25.9 27.45 L25.55 26.9 Q25.05 25.2 25.45 23.65 L24.9 23.8 Q24.0 24.45 23.6 25.05 L23.45 25.55 23.35 25.85 Q23.4 26.2 23.8 26.45 L25.25 27.35 25.75 27.45 25.9 27.45 M31.15 28.55 L32.8 28.5 33.35 27.95 33.3 27.2 33.3 27.0 33.0 26.35 32.4 25.1 32.1 24.85 Q32.25 25.8 32.0 26.7 L31.1 28.5 31.15 28.55 M26.9 31.1 L27.4 31.7 28.05 31.45 29.15 29.7 Q28.4 29.8 27.55 29.35 L26.4 28.3 26.4 29.45 26.9 31.1"/><path fill="#522e26" stroke="none" d="M32.45 19.0 Q31.7 19.0 30.5 19.7 L29.9 20.05 29.5 20.4 28.8 19.4 27.0 17.5 26.1 17.35 25.6 18.3 25.5 21.4 25.55 22.85 Q24.7 23.4 24.35 23.65 23.15 24.4 22.7 25.05 L22.5 25.8 22.5 26.1 Q22.55 26.5 22.95 26.9 23.5 27.4 24.75 27.95 L25.85 28.2 Q25.8 28.95 25.9 29.3 26.2 31.25 26.6 32.25 26.85 32.85 27.25 32.95 27.55 33.15 28.0 32.75 L29.35 30.7 29.35 30.6 29.45 30.5 29.85 29.6 29.95 29.45 30.1 29.4 30.15 29.35 Q30.4 29.2 30.55 29.2 L31.55 29.4 33.55 29.3 34.25 28.75 34.2 27.65 34.2 27.5 33.85 26.7 33.05 25.2 32.45 24.05 32.4 23.85 32.75 22.95 32.8 22.9 Q33.45 21.25 33.5 20.2 L33.3 19.55 33.3 19.25 Q33.05 18.9 32.45 19.0 M32.45 20.0 L32.6 20.3 32.65 20.95 32.1 23.0 31.95 23.5 31.8 23.1 Q31.25 21.4 30.0 20.6 L30.3 20.4 Q31.25 19.8 31.85 19.85 L32.45 20.0 M25.95 22.0 L25.9 21.7 Q25.8 20.0 26.15 19.2 26.25 18.65 26.5 18.4 26.8 18.35 27.2 18.6 L28.55 20.05 28.75 20.15 Q27.95 20.15 27.25 20.6 26.45 21.1 25.95 22.0 L26.0 22.0 25.85 22.2 25.75 22.6 25.65 22.55 25.85 22.2 25.95 22.0 M25.75 27.45 L25.25 27.35 23.8 26.45 Q23.4 26.2 23.35 25.85 L23.45 25.55 23.6 25.05 Q24.0 24.45 24.9 23.8 L25.45 23.65 Q25.05 25.2 25.55 26.9 L25.9 27.45 25.9 27.5 25.85 27.5 25.75 27.45 M25.8 28.15 L25.85 28.2 25.8 28.2 25.8 28.15 M31.1 28.5 L32.0 26.7 Q32.25 25.8 32.1 24.85 L32.4 25.1 33.0 26.35 33.3 27.0 33.3 27.2 33.35 27.95 32.8 28.5 31.15 28.55 31.1 28.55 31.1 28.5 M26.9 31.1 L26.4 29.45 26.4 28.3 27.55 29.35 Q28.4 29.8 29.15 29.7 L28.05 31.45 27.4 31.7 26.9 31.1"/><path fill="#261511" stroke="none" d="M25.95 22.0 L25.85 22.2 25.65 22.55 25.75 22.6 25.85 22.2 26.0 22.0 25.95 22.0"/><path fill="#3d221c" stroke="none" d="M25.9 27.45 L25.75 27.45 25.85 27.5 25.9 27.5 25.9 27.45"/><path fill="#3e3822" stroke="none" d="M31.5 24.75 L31.45 24.55 31.25 23.35 Q30.7 21.9 29.7 21.25 L29.3 21.05 29.15 21.05 27.6 21.2 27.55 21.3 Q26.45 21.85 26.15 23.25 L26.1 23.4 Q25.65 24.95 26.15 26.45 L26.55 27.2 26.75 27.6 27.05 27.95 26.95 27.55 Q26.65 26.55 26.85 25.6 L27.0 24.65 Q27.3 23.95 27.7 23.6 28.05 23.25 28.55 23.25 L29.35 23.35 29.8 23.8 30.0 24.35 29.95 24.8 29.95 24.85 29.8 24.7 29.8 24.55 29.6 24.5 29.3 24.6 29.1 24.9 29.0 25.45 29.15 25.95 29.55 26.4 30.0 26.35 30.5 26.15 30.9 25.75 31.3 25.4 31.5 24.75"/><path fill="#e3faee" stroke="none" d="M31.5 24.75 L31.3 25.4 30.9 25.75 30.5 26.15 30.0 26.35 29.55 26.4 29.15 25.95 29.0 25.45 29.1 24.9 29.3 24.6 29.6 24.5 29.8 24.55 29.8 24.7 29.95 24.85 29.95 24.8 30.0 24.35 29.8 23.8 29.35 23.35 28.55 23.25 Q28.05 23.25 27.7 23.6 27.3 23.95 27.0 24.65 L26.85 25.6 Q26.65 26.55 26.95 27.55 L27.05 27.95 27.75 28.45 Q28.3 28.8 29.15 28.75 L29.65 28.65 29.8 28.45 29.9 28.4 30.2 28.15 31.15 26.85 31.35 26.25 31.5 24.75"/><path fill="none" stroke="#ffffff" stroke-width="0.5" stroke-opacity="0.501960784314" d="M27.05 27.95 L26.75 27.6 26.55 27.2 26.15 26.45 Q25.65 24.95 26.1 23.4 L26.15 23.25 Q26.45 21.85 27.55 21.3 L27.6 21.2 29.15 21.05 29.3 21.05 29.7 21.25 Q30.7 21.9 31.25 23.35 L31.45 24.55 31.5 24.75 M27.05 27.95 L27.75 28.45 Q28.3 28.8 29.15 28.75 L29.65 28.65 29.8 28.45 29.9 28.4 30.2 28.15 31.15 26.85 31.35 26.25 31.5 24.75"/><path fill="#2e1d0e" stroke="none" d="M24.15 19.15 Q23.95 18.9 23.65 18.95 L23.35 19.1 23.25 19.25 23.0 19.95 23.1 20.2 23.4 20.05 23.1 20.2 23.3 20.55 23.8 20.75 23.9 20.75 24.3 20.45 24.4 19.75 24.2 19.15 24.15 19.15 24.0 19.3 24.15 19.15 M23.9 20.35 L23.9 20.75 23.9 20.35"/><path fill="none" stroke="#000000" stroke-width="0.5" stroke-opacity="0.301960784314" d="M23.35 19.1 L23.05 18.8 M23.1 20.2 L23.0 19.95 23.25 19.25 23.35 19.1 23.65 18.95 Q23.95 18.9 24.15 19.15 L24.0 19.3 M23.4 20.05 L23.1 20.2 22.5 20.55 M23.9 20.75 L23.9 20.35 M23.9 20.75 L24.1 21.25 M23.1 20.2 L23.3 20.55 23.8 20.75 23.9 20.75 24.3 20.45 24.4 19.75 24.2 19.15 24.15 19.15 24.35 18.7"/><path fill="#b89649" stroke="none" d="M12.6 17.65 Q12.55 15.8 14.45 13.8 L14.7 13.5 15.45 12.8 Q16.4 11.8 17.2 11.3 18.85 10.25 21.75 9.6 L20.3 9.7 Q16.8 10.15 14.05 12.9 12.45 14.5 11.9 16.1 L12.6 17.65 M27.2 13.85 L27.25 14.25 27.2 14.85 26.8 15.45 27.25 15.65 Q27.5 15.7 27.6 15.85 L28.0 15.2 Q28.25 14.65 28.1 13.15 28.05 11.5 25.85 10.35 L25.4 10.15 26.15 10.65 Q27.2 11.55 27.35 13.05 L27.3 13.65 27.2 13.85 M19.25 20.1 L19.6 19.85 Q20.45 19.25 21.25 19.15 22.2 19.0 24.05 19.95 L24.0 19.8 23.8 19.55 22.75 18.9 Q22.05 18.5 21.25 18.6 19.8 18.75 18.6 19.45 L18.4 19.55 17.95 19.9 17.8 19.95 16.95 20.55 16.3 21.0 Q15.35 21.65 14.2 21.9 L15.55 22.0 Q16.8 21.85 18.35 20.7 18.75 20.35 19.25 20.1"/><path fill="#856c35" stroke="none" d="M12.6 17.65 L11.9 16.1 Q11.65 17.1 11.75 18.05 12.0 20.05 12.85 21.05 L14.2 21.9 Q15.35 21.65 16.3 21.0 L16.95 20.55 15.45 21.1 Q14.3 21.2 13.55 20.45 12.85 19.55 12.65 17.9 L12.6 17.65 M21.75 9.6 Q18.85 10.25 17.2 11.3 16.4 11.8 15.45 12.8 17.65 10.95 20.4 10.6 23.6 10.25 25.45 11.2 27.1 12.0 27.2 13.2 L27.2 13.85 27.3 13.65 27.35 13.05 Q27.2 11.55 26.15 10.65 L25.4 10.15 Q23.95 9.55 21.75 9.6 M26.8 15.45 L26.25 16.4 Q26.8 16.4 27.1 16.75 L27.6 15.85 Q27.5 15.7 27.25 15.65 L26.8 15.45 M19.25 20.1 L21.35 19.5 22.35 19.7 22.3 19.7 23.35 20.35 23.75 20.4 24.0 20.15 24.05 19.95 Q22.2 19.0 21.25 19.15 20.45 19.25 19.6 19.85 L19.25 20.1"/><path fill="none" stroke="#000000" stroke-width="0.5" stroke-opacity="0.301960784314" d="M15.45 12.8 L14.7 13.5 14.45 13.8 Q12.55 15.8 12.6 17.65 M11.9 16.1 Q12.45 14.5 14.05 12.9 16.8 10.15 20.3 9.7 L21.75 9.6 M15.45 12.8 Q17.65 10.95 20.4 10.6 23.6 10.25 25.45 11.2 27.1 12.0 27.2 13.2 L27.2 13.85 M27.25 14.25 L27.2 14.85 26.8 15.45 26.25 16.4 Q26.8 16.4 27.1 16.75 L27.6 15.85 28.0 15.2 Q28.25 14.65 28.1 13.15 28.05 11.5 25.85 10.35 L25.4 10.15 Q23.95 9.55 21.75 9.6 M24.05 19.95 L24.0 20.15 23.75 20.4 23.35 20.35 22.3 19.7 22.35 19.7 21.35 19.5 19.25 20.1 Q18.75 20.35 18.35 20.7 16.8 21.85 15.55 22.0 L14.2 21.9 12.85 21.05 Q12.0 20.05 11.75 18.05 11.65 17.1 11.9 16.1 M24.05 19.95 L24.0 19.8 23.8 19.55 22.75 18.9 Q22.05 18.5 21.25 18.6 19.8 18.75 18.6 19.45 L18.4 19.55 17.95 19.9 17.8 19.95 16.95 20.55 15.45 21.1 Q14.3 21.2 13.55 20.45 12.85 19.55 12.65 17.9 L12.6 17.65"/><path fill="#ffffff" fill-opacity="0.301960784314" d="M25.5 18.05 L24.95 18.05 24.6 18.45 Q24.5 18.7 24.7 19.0 L25.15 19.3 25.7 19.35 26.0 18.95 25.9 18.45 25.5 18.05 M26.5 18.2 L27.05 18.25 26.65 18.6 26.7 19.25 26.35 19.8 26.75 20.9 25.95 20.0 24.9 20.05 23.95 19.3 23.75 18.6 Q23.45 18.0 22.55 17.65 L24.0 17.85 24.5 17.45 Q25.0 17.25 25.6 17.45 26.15 17.65 26.5 18.2"/><path fill="#ffffff" stroke="none" d="M25.5 18.05 L25.9 18.45 26.0 18.95 25.7 19.35 25.15 19.3 24.7 19.0 Q24.5 18.7 24.6 18.45 L24.95 18.05 25.5 18.05"/><path fill="#ffffff" stroke="none" d="M25.65 18.7 L26.45 19.9 25.05 18.9 23.2 19.65 24.9 18.55 21.2 14.3 25.35 18.25 28.35 17.0 25.65 18.7"/></g><g id="c15"><mask id="mask2"><use transform="matrix(1.0,0.0,0.0,1.0,0.0,0.0)" xlink:href="#c2"/></mask><g mask="url(#mask2)"><use transform="matrix(1.15496826172,0.0,0.0,1.15496826172,-0.15,-2.25)" xlink:href="#c10"/></g><g mask="url(#mask2)"><use transform="matrix(1.0,0.0,0.0,1.0,0.0,0.0)" xlink:href="#c11"/></g><g mask="url(#mask2)"><use transform="matrix(-0.598510742188,0.07080078125,0.07080078125,0.598510742188,28.45,23.95)" filter="url(#filter13)" xlink:href="#c13"/></g><g mask="url(#mask2)"><use transform="matrix(1.0,0.0,0.0,1.0,0.0,0.0)" xlink:href="#c14"/></g></g><filter id="filter13"><feColorMatrix in="SourceGraphic" type="matrix" values="1.0 0.0 0.0 0.0 0.0 0.0 1.0 0.0 0.0 0.0 0.0 0.0 1.0 0.0 0.0 0.0 0.0 0.0 0.671875 0.0" result="cxform"/><feComposite operator="in" in2="SourceGraphic" result="color-xform"/></filter></defs><g><g><use transform="matrix(1.0,0.0,0.0,1.0,0.0,0.0)" xlink:href="#c1"/></g><g><use transform="matrix(1.19459533691,0.0,0.0,1.19459533691,-1.85,-5.95)" xlink:href="#c15"/></g></g></svg>