<?xml version='1.0' encoding='UTF-8'?>
<svg xmlns:xlink="http://www.w3.org/1999/xlink" xmlns="http://www.w3.org/2000/svg" version="1.1" width="63px" height="66px" viewBox="-3.42655013441 -5.64873725935 63.4265501344 65.6487372593"><defs><g id="c1"><path fill="#000000" fill-opacity="0.00392156862745" d="M0.0 0.0 L60.0 0.0 60.0 60.0 0.0 60.0 0.0 0.0"/><path fill="none" stroke="#000000" stroke-width="1.0" stroke-opacity="0.301960784314" d="M3.45 20.1 L15.85 22.45 22.7 12.85 28.0 20.85 32.75 18.65 36.45 26.75 41.75 20.85 44.2 25.4 50.15 25.4"/></g><g id="c2"><path fill="#ffffff" stroke="none" d="M4.7 21.8 L14.7 23.8 20.5 15.85 25.05 22.45 29.0 20.55 32.0 27.3 36.5 22.45 38.55 26.3 46.15 26.3 50.05 30.85 50.05 49.65 7.5 49.65 3.9 22.15 4.7 21.8"/></g><g id="c3"><path fill="none" stroke="#000000" stroke-width="1.0" stroke-opacity="0.301960784314" d="M0.7 12.25 Q-0.45 9.75 0.75 8.25 1.2 7.6 2.15 7.15 2.8 6.7 3.8 6.35 L17.5 1.95 30.2 7.0 41.35 31.7 Q42.95 35.15 40.2 36.7 39.5 37.3 38.3 37.65 L25.5 41.8 25.45 41.75 24.55 42.0 11.85 37.0 0.7 12.25"/><path fill="#9d147b" stroke="none" d="M35.55 22.3 L31.5 13.2 29.75 9.2 16.95 4.25 5.5 7.85 Q1.65 9.1 3.35 12.8 L8.25 23.65 13.1 34.35 25.8 39.4 37.2 35.7 Q41.1 34.5 39.35 30.75 L35.55 22.3 M2.15 7.15 Q2.8 6.7 3.8 6.35 L17.5 1.95 30.2 7.0 41.35 31.7 Q42.95 35.15 40.2 36.7 L38.9 37.25 25.2 41.65 12.5 36.65 5.45 20.95 1.35 11.8 Q0.4 9.65 1.1 8.3 1.45 7.65 2.15 7.15"/><path fill="#c47fad" stroke="none" d="M31.5 13.2 L35.55 22.3 39.35 30.75 Q41.1 34.5 37.2 35.7 L25.8 39.4 13.1 34.35 8.25 23.65 3.35 12.8 Q1.65 9.1 5.5 7.85 L16.95 4.25 29.75 9.2 31.5 13.2 M18.5 7.45 L9.1 10.55 9.55 11.6 Q9.8 12.8 9.15 13.6 8.4 14.45 7.1 14.4 L6.8 14.4 6.95 14.6 15.2 32.75 23.85 36.2 34.0 32.9 33.7 32.1 Q33.45 30.9 34.1 30.1 34.75 29.3 35.95 29.35 L35.8 29.0 27.75 10.95 18.5 7.45"/><path fill="#fcf2cf" stroke="none" d="M27.75 10.95 L35.8 29.0 35.95 29.35 Q34.75 29.3 34.1 30.1 33.45 30.9 33.7 32.1 L34.0 32.9 23.85 36.2 15.2 32.75 6.95 14.6 6.8 14.4 7.1 14.4 Q8.4 14.45 9.15 13.6 9.8 12.8 9.55 11.6 L9.1 10.55 18.5 7.45 27.75 10.95"/><path fill="#630a4c" stroke="none" d="M0.75 8.25 Q1.2 7.6 2.15 7.15 1.45 7.65 1.1 8.3 L0.75 8.25 M11.55 36.25 L11.25 35.55 4.6 20.9 5.45 20.95 12.5 36.65 11.55 36.25"/><path fill="#300525" stroke="none" d="M4.6 20.9 L0.7 12.25 Q-0.45 9.75 0.75 8.25 L1.1 8.3 Q0.4 9.65 1.35 11.8 L5.45 20.95 4.6 20.9 M40.2 36.7 Q39.5 37.3 38.3 37.65 L25.5 41.8 25.45 41.75 24.55 42.0 11.85 37.0 11.55 36.25 12.5 36.65 25.2 41.65 38.9 37.25 40.2 36.7"/><path fill="none" stroke="#bf9900" stroke-width="1.0" stroke-opacity="0.749019607843" d="M31.5 13.2 L35.55 22.3 M13.1 34.35 L8.25 23.65"/><path fill="none" stroke="#ffcc00" stroke-width="1.0" stroke-opacity="0.749019607843" d="M35.55 22.3 L39.35 30.75 Q41.1 34.5 37.2 35.7 L25.8 39.4 M8.25 23.65 L3.35 12.8 Q1.65 9.1 5.5 7.85 L16.95 4.25 29.75 9.2 31.5 13.2"/><path fill="none" stroke="#f0b92b" stroke-width="0.5" d="M27.75 10.95 L35.8 29.0 35.95 29.35 Q34.75 29.3 34.1 30.1 33.45 30.9 33.7 32.1 L34.0 32.9 23.85 36.2 15.2 32.75 6.95 14.6 6.8 14.4 7.1 14.4 Q8.4 14.45 9.15 13.6 9.8 12.8 9.55 11.6 L9.1 10.55 18.5 7.45"/><path fill="none" stroke="#000000" stroke-width="0.5" stroke-opacity="0.301960784314" d="M4.6 20.9 L0.7 12.25 Q-0.45 9.75 0.75 8.25 1.2 7.6 2.15 7.15 2.8 6.7 3.8 6.35 L17.5 1.95 M30.2 7.0 L41.35 31.7 Q42.95 35.15 40.2 36.7 39.5 37.3 38.3 37.65 L25.5 41.8 M11.25 35.55 L4.6 20.9 M5.45 20.95 L1.35 11.8 Q0.4 9.65 1.1 8.3 1.45 7.65 2.15 7.15 M12.5 36.65 L5.45 20.95 M40.2 36.7 L38.9 37.25 25.2 41.65"/><path fill="none" stroke="#ffcc00" stroke-width="0.5" stroke-opacity="0.749019607843" d="M18.5 7.45 L27.75 10.95"/><path fill="none" stroke="#f0b92b" stroke-width="1.0" stroke-opacity="0.749019607843" d="M25.8 39.4 L13.1 34.35"/><path fill="none" stroke="#432f2f" stroke-width="0.5" d="M25.2 41.65 L12.5 36.65"/></g><g id="c4"><path fill="#7fdbfe" stroke="none" d="M10.75 4.9 Q10.75 4.6 10.9 4.35 11.25 3.45 11.95 2.75 13.3 1.5 14.35 2.1 15.4 2.7 14.95 4.45 14.7 5.4 14.1 6.15 L13.75 6.5 Q13.1 7.15 12.35 7.35 L11.4 7.2 Q10.95 6.9 10.75 6.4 10.5 5.75 10.75 4.9 M7.5 5.9 Q7.0 5.85 6.6 5.5 6.05 5.0 5.8 4.15 L5.7 3.6 Q5.55 2.65 5.8 1.7 6.25 0.0 7.5 0.0 L7.6 0.0 Q8.85 0.0 9.3 1.7 9.55 2.65 9.4 3.6 L9.3 4.15 8.5 5.5 7.6 5.9 7.5 5.9 M4.35 4.9 Q4.6 5.75 4.35 6.4 L3.7 7.2 2.75 7.35 Q2.0 7.15 1.35 6.5 L1.0 6.15 Q0.4 5.4 0.15 4.45 -0.3 2.7 0.75 2.1 1.8 1.5 3.15 2.75 3.85 3.45 4.2 4.35 L4.35 4.9 M5.5 13.7 Q4.45 13.9 3.65 12.95 2.75 12.0 3.2 10.25 3.7 8.5 5.25 7.6 6.4 6.9 7.55 7.0 8.75 6.9 9.9 7.6 11.45 8.5 11.95 10.25 12.35 12.0 11.5 12.95 10.7 13.9 9.65 13.7 8.55 13.5 7.55 12.6 6.55 13.5 5.5 13.7"/></g><g id="c5"><g><use transform="matrix(1.0,0.0,0.0,1.0,0.0,0.0)" xlink:href="#c4"/></g></g><radialGradient gradientUnits="userSpaceOnUse" r="819.2" cx="0" cy="0" spreadMethod="pad" gradientTransform="matrix(0.0914459228516,0.0,0.0,0.0914459228516,0.6,3.4)" id="gradient1"><stop offset="0.0" stop-color="#ffffff"/><stop offset="1.0" stop-color="#ffffff" stop-opacity="0.0"/></radialGradient><g id="c6"><path stroke="none" fill="url(#gradient1)" d="M36.65 -54.65 Q60.05 -42.0 69.75 -17.95 80.55 8.9 68.0 34.1 55.45 59.35 26.8 68.2 -1.8 77.05 -29.7 64.3 -57.6 51.6 -68.45 24.75 -79.3 -2.05 -66.75 -27.25 L-66.7 -27.3 Q-54.1 -52.5 -25.5 -61.4 3.1 -70.2 31.0 -57.5 L36.65 -54.65"/></g><g id="c7"><g><use transform="matrix(1.0,0.0,0.0,1.0,0.0,0.0)" xlink:href="#c6"/></g></g><radialGradient gradientUnits="userSpaceOnUse" r="819.2" cx="0" cy="0" spreadMethod="pad" gradientTransform="matrix(0.209197998047,0.0,0.0,0.177108764648,67.15,107.2)" id="gradient2"><stop offset="0.356862745098" stop-color="#ffffff"/><stop offset="0.670588235294" stop-opacity="0.0"/></radialGradient><g id="c8"><path fill="none" stroke-linejoin="round" stroke-linecap="round" stroke="url(#gradient2)" stroke-width="0.5" d="M136.55 165.8 L68.6 106.0 68.4 106.0 118.25 201.5 M68.2 105.7 L68.25 105.8 68.25 105.75 68.2 105.7 0.0 45.7 M68.25 105.8 L68.3 105.85 68.3 105.8 68.25 105.75 49.95 0.05 M0.05 97.7 L68.15 105.95 68.25 105.85 68.25 105.8 M68.3 105.85 L68.25 105.85 68.3 106.0 68.3 105.85 68.3 105.8 68.35 105.8 68.3 105.8 86.6 18.35 M50.0 193.2 L68.3 106.0 68.15 105.95 18.25 151.55 M68.4 106.0 L68.3 106.0 86.55 211.5 M68.4 106.0 L68.3 105.85 M68.6 106.0 L68.35 105.8 118.25 60.15 M136.6 114.25 L68.6 106.0 M68.2 105.7 L18.25 10.05"/></g><g id="c9"><g><use transform="matrix(1.0,0.0,0.0,1.0,0.0,0.0)" xlink:href="#c8"/></g></g><g id="c10"><g><use transform="matrix(1.0,0.0,0.0,1.0,0.0,0.0)" xlink:href="#c3"/></g><g><use transform="matrix(0.238861083984,-0.0867004394531,0.10026550293,0.233917236328,34.25,31.15)" xlink:href="#c5"/></g><g><use transform="matrix(0.238861083984,-0.0867004394531,0.10026550293,0.233917236328,4.25,10.3)" xlink:href="#c5"/></g><g><use transform="matrix(0.141098022461,-0.0378112792969,0.111373901367,0.225646972656,20.25,20.65)" filter="url(#filter7)" xlink:href="#c7"/></g><g><use transform="matrix(-0.155029296875,0.0513153076172,0.0841827392578,0.147033691406,22.6,3.15)" filter="url(#filter8)" xlink:href="#c9"/></g></g><filter id="filter7"><feColorMatrix in="SourceGraphic" type="matrix" values="0.0 0.0 0.0 0.0 0.796875 0.0 0.0 0.0 0.0 0.59765625 0.0 0.0 0.0 0.0 0.19921875 0.0 0.0 0.0 1.0 0.0" result="cxform"/><feComposite operator="in" in2="SourceGraphic" result="color-xform"/></filter><filter id="filter8"><feColorMatrix in="SourceGraphic" type="matrix" values="0.0 0.0 0.0 0.0 0.99609375 0.0 0.0 0.0 0.0 0.99609375 0.0 0.0 0.0 0.0 0.99609375 0.0 0.0 0.0 1.0 0.0" result="cxform"/><feComposite operator="in" in2="SourceGraphic" result="color-xform"/></filter><linearGradient gradientUnits="userSpaceOnUse" x1="-819.2" x2="819.2" spreadMethod="pad" gradientTransform="matrix(-0.00325012207031,0.0008544921875,0.000350952148438,0.0013427734375,-13.0,18.35)" id="gradient3"><stop offset="0.0" stop-color="#c0a361"/><stop offset="1.0" stop-color="#b99f4a"/></linearGradient><g id="c11"><path fill="#c27b75" stroke="none" d="M35.35 27.0 L35.5 27.1 35.7 27.2 35.5 27.1 35.35 27.0 Q35.95 26.6 36.0 25.85 L36.6 26.6 36.1 27.85 36.05 27.85 36.2 26.95 35.7 27.2 34.2 28.4 34.0 28.25 35.35 27.0 M26.8 26.85 Q26.5 26.15 28.45 28.35 L29.0 29.0 31.25 30.75 33.1 30.0 31.25 31.45 31.0 32.2 30.85 31.05 26.8 26.85 M29.15 32.4 L29.0 32.5 Q28.35 32.95 28.0 34.4 L26.15 30.95 27.85 32.35 28.05 32.4 29.0 32.2 29.15 32.4"/><path fill="#b0a9a3" stroke="none" d="M36.0 25.85 Q35.95 26.6 35.35 27.0 L32.9 25.8 31.05 24.6 26.25 20.6 Q19.5 14.7 14.9 13.35 L14.75 13.35 14.75 13.3 14.25 12.8 15.9 11.8 16.35 12.2 19.05 10.5 21.85 13.5 26.15 19.15 Q27.5 20.4 28.45 20.85 29.4 21.35 30.5 21.4 L36.0 25.85 M13.7 16.05 Q17.1 16.35 20.8 18.8 L30.7 27.05 31.05 27.3 33.6 29.6 33.1 30.0 31.25 30.75 29.0 29.0 28.45 28.35 Q26.5 26.15 26.8 26.85 L27.45 27.85 Q30.3 31.05 30.15 31.65 L29.0 32.2 26.6 29.4 Q24.25 27.0 21.8 26.05 L14.3 18.3 14.0 17.95 14.0 17.9 Q18.0 20.75 22.7 24.7 L13.7 16.05 M22.6 22.45 L23.85 23.75 22.6 22.45"/><path fill="#773b59" stroke="none" d="M34.2 28.4 L35.7 27.2 36.2 26.95 36.05 27.85 36.05 28.1 35.95 28.35 35.35 29.9 34.65 30.4 34.55 30.45 33.25 30.45 31.0 32.2 31.25 31.45 33.1 30.0 33.6 29.6 34.55 28.85 34.15 28.4 34.2 28.4 M30.15 31.65 L30.6 32.2 29.85 32.7 28.9 34.55 28.4 34.95 28.25 35.05 28.05 35.2 28.0 34.4 Q28.35 32.95 29.0 32.5 L29.15 32.4 30.15 31.65"/><path fill="#d6a0a0" stroke="none" d="M36.05 27.85 L36.1 27.85 36.05 28.1 36.05 27.85"/><path fill="#eee6de" stroke="none" d="M35.35 27.0 L34.0 28.25 34.15 28.4 34.55 28.85 33.6 29.6 31.05 27.3 30.7 27.05 20.8 18.8 Q17.1 16.35 13.7 16.05 L12.4 14.7 14.25 13.6 14.65 13.3 14.7 13.35 14.75 13.35 14.9 13.35 Q19.5 14.7 26.25 20.6 L31.05 24.6 32.9 25.8 35.35 27.0 M30.7 25.35 L34.0 28.25 30.7 25.35 M21.85 13.5 Q25.55 17.4 30.5 21.4 29.4 21.35 28.45 20.85 27.5 20.4 26.15 19.15 L21.85 13.5 M13.9 17.85 L14.0 17.95 14.3 18.3 13.9 20.4 13.9 19.55 13.9 17.85 M21.8 26.05 Q24.25 27.0 26.6 29.4 L29.0 32.2 28.05 32.4 27.85 32.35 26.15 30.95 25.4 30.05 21.8 26.05"/><path fill="#666056" stroke="none" d="M14.65 13.3 L14.25 13.6 14.25 12.8 14.75 13.3 14.65 13.3 M12.4 14.7 L13.7 16.05 22.7 24.7 Q18.0 20.75 14.0 17.9 L13.9 17.85 13.9 19.55 12.75 18.45 12.4 16.35 12.4 14.7 M28.05 35.2 L24.35 30.75 19.75 25.9 Q17.0 23.1 13.9 20.4 L14.3 18.3 21.8 26.05 25.4 30.05 26.15 30.95 28.0 34.4 28.05 35.2"/><path fill="#6c6c38" stroke="none" d="M14.7 13.35 L14.65 13.3 14.75 13.3 14.7 13.35 M13.9 17.85 L14.0 17.9 14.0 17.95 13.9 17.85"/><path fill="#c1b98f" stroke="none" d="M14.75 13.35 L14.7 13.35 14.75 13.3 14.75 13.35"/><path fill="#433e38" stroke="none" d="M26.8 26.85 L30.85 31.05 31.0 32.2 31.05 32.75 30.6 32.2 30.15 31.65 Q30.3 31.05 27.45 27.85 L26.8 26.85"/><path stroke="none" fill="url(#gradient3)" d="M29.0 32.2 L30.15 31.65 29.15 32.4 29.0 32.2"/><path fill="#955582" stroke="none" d="M30.6 32.2 L31.05 32.75 31.0 32.2 33.25 30.45 34.55 30.45 32.9 31.65 29.9 33.85 29.45 34.2 29.25 34.3 28.9 34.55 29.85 32.7 30.6 32.2 M29.9 33.85 L29.25 34.3 29.9 33.85"/><path fill="#7d8061" stroke="none" d="M29.45 34.2 L28.9 34.6 28.9 34.55 29.25 34.3 29.45 34.2 M29.25 34.3 L28.9 34.6 29.25 34.3"/><path fill="#939672" stroke="none" d="M28.9 34.6 L28.4 34.95 28.9 34.55 28.9 34.6"/><path fill="none" stroke="#382510" stroke-width="0.5" stroke-opacity="0.152941176471" d="M35.7 27.2 L35.5 27.1 35.35 27.0 32.9 25.8 31.05 24.6 26.25 20.6 Q19.5 14.7 14.9 13.35 M14.75 13.35 L14.7 13.35 14.65 13.3 M13.7 16.05 Q17.1 16.35 20.8 18.8 L30.7 27.05 31.05 27.3 33.6 29.6 M21.85 13.5 L26.15 19.15 Q27.5 20.4 28.45 20.85 29.4 21.35 30.5 21.4 M21.8 26.05 Q24.25 27.0 26.6 29.4 L29.0 32.2 M29.15 32.4 L29.0 32.2"/><path fill="none" stroke="#382510" stroke-width="0.7" stroke-opacity="0.301960784314" d="M34.0 28.25 L34.2 28.4 34.15 28.4 34.0 28.25 30.7 25.35 M14.65 13.3 L14.25 13.6 M34.55 28.85 L34.15 28.4 M14.65 13.3 L14.75 13.3 M26.8 26.85 L30.85 31.05 M23.85 23.75 L22.6 22.45"/><path fill="none" stroke="#000000" stroke-width="0.5" stroke-opacity="0.301960784314" d="M36.1 27.85 L36.6 26.6 36.0 25.85 M14.25 13.6 L12.4 14.7 12.4 16.35 12.75 18.45 13.9 19.55 13.9 17.85 M34.65 30.4 L35.35 29.9 35.95 28.35 M14.25 12.8 L14.25 13.6 M14.25 12.8 L15.9 11.8 16.35 12.2 19.05 10.5 21.85 13.5 Q25.55 17.4 30.5 21.4 L36.0 25.85 M30.85 31.05 L31.0 32.2 M31.05 32.75 L31.0 32.2 M32.9 31.65 L29.9 33.85 M28.9 34.6 L28.4 34.95 M28.25 35.05 L28.05 35.2 24.35 30.75 19.75 25.9 Q17.0 23.1 13.9 20.4 L13.9 19.55 M29.25 34.3 L29.9 33.85 M28.9 34.6 L29.25 34.3"/></g><linearGradient gradientUnits="userSpaceOnUse" x1="-819.2" x2="819.2" spreadMethod="pad" gradientTransform="matrix(0.0,0.0,0.0,0.0,-10.7,-8.8)" id="gradient4"><stop offset="0.0" stop-color="#787065"/><stop offset="1.0"/></linearGradient><g id="c12"><path stroke="none" fill="url(#gradient4)" d="M26.15 14.95 L27.4 13.8 29.25 14.05 29.25 17.9 28.15 14.95 26.15 14.95 M35.45 5.2 L35.5 10.75 34.3 11.8 34.3 8.85 31.65 10.7 31.65 8.8 Q23.0 8.8 15.3 6.55 L20.55 1.3 21.8 0.0 Q27.85 4.55 35.45 5.2 M25.8 14.2 L24.55 15.55 Q15.4 15.05 8.2 12.85 L11.2 10.3 Q17.6 13.2 25.8 14.2 M3.7 16.55 Q12.65 20.05 23.15 20.55 L23.95 23.15 23.8 23.3 17.2 30.2 16.55 27.2 Q7.65 24.25 0.0 19.55 L3.7 16.55"/></g><g id="c13"><g><use transform="matrix(1.0,0.0,0.0,1.0,0.0,0.0)" xlink:href="#c12"/></g></g><g id="c14"><mask id="mask2"><use transform="matrix(1.0,0.0,0.0,1.0,0.0,0.0)" xlink:href="#c2"/></mask><g mask="url(#mask2)"><use transform="matrix(1.15496826172,0.0,0.0,1.15496826172,-0.8,-2.0)" xlink:href="#c10"/></g><g mask="url(#mask2)"><use transform="matrix(1.0,0.0,0.0,1.0,0.0,0.0)" xlink:href="#c11"/></g><g mask="url(#mask2)"><use transform="matrix(-0.577331542969,0.0,0.0,0.577331542969,33.7,12.7)" filter="url(#filter13)" xlink:href="#c13"/></g></g><filter id="filter13"><feColorMatrix in="SourceGraphic" type="matrix" values="1.0 0.0 0.0 0.0 0.0 0.0 1.0 0.0 0.0 0.0 0.0 0.0 1.0 0.0 0.0 0.0 0.0 0.0 0.421875 0.0" result="cxform"/><feComposite operator="in" in2="SourceGraphic" result="color-xform"/></filter></defs><g><g><use transform="matrix(1.0,0.0,0.0,1.0,0.0,0.0)" xlink:href="#c1"/></g><g><use transform="matrix(1.19459533691,0.0,0.0,1.19459533691,-1.85,-5.95)" xlink:href="#c14"/></g></g></svg>