<?xml version='1.0' encoding='UTF-8'?>
<svg xmlns:xlink="http://www.w3.org/1999/xlink" xmlns="http://www.w3.org/2000/svg" version="1.1" width="60px" height="60px" viewBox="0.0 0.0 60.0 60.0"><defs><g id="c1"><path fill="#000000" fill-opacity="0.00392156862745" d="M0.0 0.0 L60.0 0.0 60.0 60.0 0.0 60.0 0.0 0.0"/></g><g id="c2"><path fill="none" stroke="#000000" stroke-width="1.0" stroke-opacity="0.301960784314" d="M0.7 12.25 Q-0.45 9.75 0.75 8.25 1.2 7.6 2.15 7.15 2.8 6.7 3.8 6.35 L6.45 5.5 8.5 6.75 8.7 6.85 Q11.9 8.2 14.85 7.25 17.8 6.35 18.85 3.6 L18.9 3.4 19.3 1.35 22.3 0.4 Q26.55 -1.0 28.45 3.1 L41.35 31.7 Q42.95 35.15 40.2 36.7 39.5 37.3 38.3 37.65 L36.35 38.3 36.15 38.15 34.0 36.9 33.8 36.8 Q30.65 35.45 27.7 36.35 24.75 37.3 23.7 40.05 L23.6 40.25 Q23.25 41.25 23.25 42.3 L23.25 42.35 23.25 42.55 19.8 43.65 Q17.15 44.45 15.5 43.3 14.35 42.55 13.65 40.9 L0.7 12.25"/><path fill="#9d147b" stroke="none" d="M35.55 22.3 L28.25 6.1 27.75 4.95 Q26.05 1.25 21.6 2.85 20.8 5.65 18.85 7.6 17.0 9.45 14.2 9.8 11.45 9.95 9.0 8.8 L6.4 7.45 Q1.65 9.1 3.35 12.8 L8.25 23.65 15.0 38.6 15.2 39.0 Q16.8 42.25 20.45 41.1 L21.65 40.55 Q22.7 36.9 25.05 35.5 27.4 34.15 30.2 34.2 33.05 34.2 36.25 36.1 L37.2 35.7 Q41.1 34.5 39.35 30.75 L35.55 22.3 M19.3 1.35 L22.3 0.4 Q26.55 -1.0 28.45 3.1 L41.35 31.7 Q42.95 35.15 40.2 36.7 L38.9 37.25 36.15 38.15 34.0 36.9 33.8 36.8 Q30.65 35.45 27.7 36.35 24.75 37.3 23.7 40.05 L23.6 40.25 Q23.25 41.25 23.25 42.3 L23.2 42.3 20.4 43.2 19.1 43.5 17.3 43.4 Q15.3 42.9 14.2 40.5 L5.45 20.95 1.35 11.8 Q0.4 9.65 1.1 8.3 1.45 7.65 2.15 7.15 2.8 6.7 3.8 6.35 L6.45 5.5 8.5 6.75 8.7 6.85 Q11.9 8.2 14.85 7.25 17.8 6.35 18.85 3.6 L18.9 3.4 19.3 1.35"/><path fill="#c47fad" stroke="none" d="M28.25 6.1 L35.55 22.3 39.35 30.75 Q41.1 34.5 37.2 35.7 L36.25 36.1 Q33.05 34.2 30.2 34.2 27.4 34.15 25.05 35.5 22.7 36.9 21.65 40.55 L20.45 41.1 Q16.8 42.25 15.2 39.0 L15.0 38.6 8.25 23.65 3.35 12.8 Q1.65 9.1 6.4 7.45 L9.0 8.8 Q11.45 9.95 14.2 9.8 17.0 9.45 18.85 7.6 20.8 5.65 21.6 2.85 26.05 1.25 27.75 4.95 L28.25 6.1 M34.0 32.9 L33.7 32.1 Q33.45 30.9 34.1 30.1 34.75 29.3 35.95 29.35 L35.8 29.0 26.5 8.3 26.25 7.85 Q24.9 5.45 22.05 6.35 19.75 11.1 14.85 11.65 11.45 11.85 9.1 10.55 L9.55 11.6 Q9.8 12.8 9.15 13.6 8.4 14.45 7.1 14.4 L6.8 14.4 6.95 14.6 16.3 35.2 Q16.8 36.4 17.65 37.0 18.8 37.8 19.8 37.35 21.8 33.7 25.95 32.3 30.35 30.8 34.0 32.9"/><path fill="#fcf2cf" stroke="none" d="M22.05 6.35 Q24.9 5.45 26.25 7.85 L26.5 8.3 35.8 29.0 35.95 29.35 Q34.75 29.3 34.1 30.1 33.45 30.9 33.7 32.1 L34.0 32.9 Q30.35 30.8 25.95 32.3 21.8 33.7 19.8 37.35 18.8 37.8 17.65 37.0 16.8 36.4 16.3 35.2 L6.95 14.6 6.8 14.4 7.1 14.4 Q8.4 14.45 9.15 13.6 9.8 12.8 9.55 11.6 L9.1 10.55 Q11.45 11.85 14.85 11.65 19.75 11.1 22.05 6.35"/><path fill="#300525" stroke="none" d="M40.2 36.7 Q39.5 37.3 38.3 37.65 L36.35 38.3 36.15 38.15 38.9 37.25 40.2 36.7 M23.25 42.3 L23.25 42.35 23.2 42.3 23.25 42.3 M20.1 43.55 L19.8 43.65 Q17.15 44.45 15.5 43.3 L17.3 43.4 19.1 43.5 20.1 43.55 M4.6 20.9 L0.7 12.25 Q-0.45 9.75 0.75 8.25 L1.1 8.3 Q0.4 9.65 1.35 11.8 L5.45 20.95 4.6 20.9"/><path fill="#630a4c" stroke="none" d="M23.25 42.35 L23.25 42.55 20.1 43.55 19.1 43.5 20.4 43.2 23.2 42.3 23.25 42.35 M15.5 43.3 Q14.35 42.55 13.65 40.9 L4.6 20.9 5.45 20.95 14.2 40.5 Q15.3 42.9 17.3 43.4 L15.5 43.3 M0.75 8.25 Q1.2 7.6 2.15 7.15 1.45 7.65 1.1 8.3 L0.75 8.25"/><path fill="none" stroke="#bf9900" stroke-width="1.0" stroke-opacity="0.749019607843" d="M28.25 6.1 L35.55 22.3 M15.0 38.6 L8.25 23.65"/><path fill="none" stroke="#000000" stroke-width="0.5" stroke-opacity="0.301960784314" d="M19.3 1.35 L22.3 0.4 Q26.55 -1.0 28.45 3.1 L41.35 31.7 Q42.95 35.15 40.2 36.7 39.5 37.3 38.3 37.65 L36.35 38.3 M23.25 42.55 L20.1 43.55 19.8 43.65 Q17.15 44.45 15.5 43.3 14.35 42.55 13.65 40.9 L4.6 20.9 0.7 12.25 Q-0.45 9.75 0.75 8.25 1.2 7.6 2.15 7.15 2.8 6.7 3.8 6.35 L6.45 5.5 M1.1 8.3 Q1.45 7.65 2.15 7.15 M5.45 20.95 L1.35 11.8 Q0.4 9.65 1.1 8.3 M17.3 43.4 Q15.3 42.9 14.2 40.5 L5.45 20.95 M19.1 43.5 L17.3 43.4 M23.2 42.3 L20.4 43.2 19.1 43.5 M23.25 42.3 L23.2 42.3 M40.2 36.7 L38.9 37.25 36.15 38.15"/><path fill="none" stroke="#ffcc00" stroke-width="1.0" stroke-opacity="0.749019607843" d="M35.55 22.3 L39.35 30.75 Q41.1 34.5 37.2 35.7 L36.25 36.1 M21.65 40.55 L20.45 41.1 Q16.8 42.25 15.2 39.0 L15.0 38.6 M8.25 23.65 L3.35 12.8 Q1.65 9.1 6.4 7.45 M21.6 2.85 Q26.05 1.25 27.75 4.95 L28.25 6.1"/><path fill="none" stroke="#f0b92b" stroke-width="0.5" d="M22.05 6.35 Q24.9 5.45 26.25 7.85 L26.5 8.3 35.8 29.0 35.95 29.35 Q34.75 29.3 34.1 30.1 33.45 30.9 33.7 32.1 L34.0 32.9 M19.8 37.35 Q18.8 37.8 17.65 37.0 16.8 36.4 16.3 35.2 L6.95 14.6 6.8 14.4 7.1 14.4 Q8.4 14.45 9.15 13.6 9.8 12.8 9.55 11.6 L9.1 10.55"/><path fill="none" stroke="#ffaa00" stroke-width="1.0" stroke-opacity="0.749019607843" d="M36.25 36.1 Q33.05 34.2 30.2 34.2 27.4 34.15 25.05 35.5 22.7 36.9 21.65 40.55 M6.4 7.45 L9.0 8.8 Q11.45 9.95 14.2 9.8 17.0 9.45 18.85 7.6 20.8 5.65 21.6 2.85"/><path fill="none" stroke="#ffaa00" stroke-width="0.5" stroke-opacity="0.749019607843" d="M34.0 32.9 Q30.35 30.8 25.95 32.3 21.8 33.7 19.8 37.35 M9.1 10.55 Q11.45 11.85 14.85 11.65 19.75 11.1 22.05 6.35"/></g><g id="c3"><path fill="#7fdbfe" stroke="none" d="M10.75 4.9 Q10.75 4.6 10.9 4.35 11.25 3.45 11.95 2.75 13.3 1.5 14.35 2.1 15.4 2.7 14.95 4.45 14.7 5.4 14.1 6.15 L13.75 6.5 Q13.1 7.15 12.35 7.35 L11.4 7.2 Q10.95 6.9 10.75 6.4 10.5 5.75 10.75 4.9 M7.5 5.9 Q7.0 5.85 6.6 5.5 6.05 5.0 5.8 4.15 L5.7 3.6 Q5.55 2.65 5.8 1.7 6.25 0.0 7.5 0.0 L7.6 0.0 Q8.85 0.0 9.3 1.7 9.55 2.65 9.4 3.6 L9.3 4.15 8.5 5.5 7.6 5.9 7.5 5.9 M4.35 4.9 Q4.6 5.75 4.35 6.4 L3.7 7.2 2.75 7.35 Q2.0 7.15 1.35 6.5 L1.0 6.15 Q0.4 5.4 0.15 4.45 -0.3 2.7 0.75 2.1 1.8 1.5 3.15 2.75 3.85 3.45 4.2 4.35 L4.35 4.9 M5.5 13.7 Q4.45 13.9 3.65 12.95 2.75 12.0 3.2 10.25 3.7 8.5 5.25 7.6 6.4 6.9 7.55 7.0 8.75 6.9 9.9 7.6 11.45 8.5 11.95 10.25 12.35 12.0 11.5 12.95 10.7 13.9 9.65 13.7 8.55 13.5 7.55 12.6 6.55 13.5 5.5 13.7"/></g><g id="c4"><g><use transform="matrix(1.0,0.0,0.0,1.0,0.0,0.0)" xlink:href="#c3"/></g></g><radialGradient gradientUnits="userSpaceOnUse" r="819.2" cx="0" cy="0" spreadMethod="pad" gradientTransform="matrix(0.0914459228516,0.0,0.0,0.0914459228516,0.6,3.4)" id="gradient1"><stop offset="0.0" stop-color="#ffffff"/><stop offset="1.0" stop-color="#ffffff" stop-opacity="0.0"/></radialGradient><g id="c5"><path stroke="none" fill="url(#gradient1)" d="M36.65 -54.65 Q60.05 -42.0 69.75 -17.95 80.55 8.9 68.0 34.1 55.45 59.35 26.8 68.2 -1.8 77.05 -29.7 64.3 -57.6 51.6 -68.45 24.75 -79.3 -2.05 -66.75 -27.25 L-66.7 -27.3 Q-54.1 -52.5 -25.5 -61.4 3.1 -70.2 31.0 -57.5 L36.65 -54.65"/></g><g id="c6"><g><use transform="matrix(1.0,0.0,0.0,1.0,0.0,0.0)" xlink:href="#c5"/></g></g><radialGradient gradientUnits="userSpaceOnUse" r="819.2" cx="0" cy="0" spreadMethod="pad" gradientTransform="matrix(0.209197998047,0.0,0.0,0.177108764648,67.15,107.2)" id="gradient2"><stop offset="0.356862745098" stop-color="#ffffff"/><stop offset="0.670588235294" stop-opacity="0.0"/></radialGradient><g id="c7"><path fill="none" stroke-linejoin="round" stroke-linecap="round" stroke="url(#gradient2)" stroke-width="0.5" d="M136.55 165.8 L68.6 106.0 68.4 106.0 118.25 201.5 M68.3 105.8 L68.35 105.8 68.3 105.8 68.3 105.85 68.4 106.0 68.3 106.0 86.55 211.5 M68.3 105.8 L68.3 105.85 68.3 106.0 68.15 105.95 18.25 151.55 M68.3 105.85 L68.25 105.85 68.3 106.0 50.0 193.2 M68.25 105.85 L68.15 105.95 0.05 97.7 M68.3 105.85 L68.25 105.8 68.25 105.85 M68.25 105.8 L68.2 105.7 0.0 45.7 M68.3 105.8 L68.25 105.75 68.25 105.8 M68.25 105.75 L68.2 105.7 18.25 10.05 M68.6 106.0 L68.35 105.8 118.25 60.15 M86.6 18.35 L68.3 105.8 M136.6 114.25 L68.6 106.0 M68.25 105.75 L49.95 0.05"/></g><g id="c8"><g><use transform="matrix(1.0,0.0,0.0,1.0,0.0,0.0)" xlink:href="#c7"/></g></g><g id="c9"><g><use transform="matrix(1.0,0.0,0.0,1.0,0.0,0.0)" xlink:href="#c2"/></g><g><use transform="matrix(0.238861083984,-0.0867004394531,0.10026550293,0.233917236328,34.25,31.15)" xlink:href="#c4"/></g><g><use transform="matrix(0.238861083984,-0.0867004394531,0.10026550293,0.233917236328,4.25,10.3)" xlink:href="#c4"/></g><g><use transform="matrix(0.141098022461,-0.0378112792969,0.111373901367,0.225646972656,20.25,20.65)" filter="url(#filter7)" xlink:href="#c6"/></g><g><use transform="matrix(-0.155029296875,0.0513153076172,0.0841827392578,0.147033691406,22.6,3.15)" filter="url(#filter8)" xlink:href="#c8"/></g></g><filter id="filter7"><feColorMatrix in="SourceGraphic" type="matrix" values="0.0 0.0 0.0 0.0 0.796875 0.0 0.0 0.0 0.0 0.59765625 0.0 0.0 0.0 0.0 0.19921875 0.0 0.0 0.0 1.0 0.0" result="cxform"/><feComposite operator="in" in2="SourceGraphic" result="color-xform"/></filter><filter id="filter8"><feColorMatrix in="SourceGraphic" type="matrix" values="0.0 0.0 0.0 0.0 0.99609375 0.0 0.0 0.0 0.0 0.99609375 0.0 0.0 0.0 0.0 0.99609375 0.0 0.0 0.0 1.0 0.0" result="cxform"/><feComposite operator="in" in2="SourceGraphic" result="color-xform"/></filter><radialGradient gradientUnits="userSpaceOnUse" r="819.2" cx="0" cy="0" spreadMethod="pad" gradientTransform="matrix(0.0171966552734,0.0,0.0,0.0171966552734,0.0,0.0)" id="gradient3"><stop offset="0.333333333333" stop-color="#0e171d"/><stop offset="1.0" stop-color="#101a24" stop-opacity="0.0"/></radialGradient><g id="c10"><path stroke="none" fill="url(#gradient3)" d="M10.4 -10.45 Q14.75 -6.1 14.75 0.0 14.75 6.1 10.4 10.4 6.1 14.75 0.0 14.75 -6.1 14.75 -10.45 10.4 -14.75 6.1 -14.75 0.0 -14.75 -6.1 -10.45 -10.45 -6.1 -14.75 0.0 -14.75 6.1 -14.75 10.4 -10.45"/></g><g id="c11"><g><use transform="matrix(1.0,0.0,0.0,1.0,0.0,0.0)" xlink:href="#c10"/></g></g><g id="c12"><path fill="#66737d" stroke="none" d="M-11.8 -19.4 L-11.7 -19.4 -11.5 -19.1 -11.8 -19.4 M-3.5 26.15 L-4.0 27.1 -4.8 26.65 -4.4 26.05 -3.95 25.65 -3.5 26.15"/><path fill="#a0b5c4" stroke="none" d="M1.4 -2.45 L-1.35 1.45 -4.25 -1.65 -1.9 -5.35 1.4 -2.45"/><path fill="#a9becf" stroke="none" d="M5.05 -0.6 L5.6 -1.45 11.95 0.65 16.65 9.3 6.95 10.85 4.6 11.25 5.15 10.5 8.1 8.6 11.0 6.75 4.4 3.4 7.4 0.45 5.05 -0.6 M-5.9 -9.85 L-5.25 -8.85 -5.1 -8.55 -4.45 -7.65 -6.6 -4.2 -7.0 -4.7 -8.8 -6.6 -5.9 -9.85"/><path fill="#b7cde0" stroke="none" d="M-13.95 -18.95 L-11.8 -19.4 -11.8 -10.5 -15.45 -10.75 -15.9 -6.75 -18.6 -7.9 -17.6 -13.25 -14.95 -13.25 -13.95 -18.95"/><path fill="#485259" stroke="none" d="M8.1 8.6 L5.15 10.5 1.3 9.05 3.45 7.1 3.45 7.05 8.1 8.6 M-14.0 -6.0 L-13.05 1.3 -15.25 1.1 -15.9 -6.75 -14.0 -6.0 M-16.0 11.85 L-6.4 14.0 -5.8 16.0 -3.55 17.8 -5.7 21.8 -6.55 23.35 -14.35 18.9 -15.6 19.65 -17.7 11.6 -16.0 11.85 M-14.9 4.25 L-12.6 4.45 -12.1 8.3 -14.45 7.95 -14.9 4.25 M-2.95 23.45 L-1.4 20.75 7.1 18.6 5.7 14.6 16.65 12.0 16.65 14.55 9.25 16.85 9.05 19.8 12.7 18.7 12.8 20.75 7.95 23.05 -2.95 23.45"/><path fill="#5f6b75" stroke="none" d="M4.6 11.25 L6.95 10.85 16.65 9.3 16.65 12.0 5.7 14.6 5.15 12.9 4.6 11.25 M8.25 25.9 L-3.5 26.15 -3.95 25.65 -4.4 26.05 -2.95 23.45 7.95 23.05 12.8 20.75 12.7 18.7 9.05 19.8 9.25 16.85 16.65 14.55 16.65 19.6 8.25 25.9"/><path fill="#687580" stroke="none" d="M-1.35 1.45 L-2.65 3.15 -4.55 1.0 -4.15 5.1 -6.0 7.45 -7.3 3.25 -4.25 -1.7 -4.25 -1.65 -1.35 1.45 M-0.4 7.4 L1.7 5.05 3.35 7.0 3.45 7.1 1.3 9.05 1.3 12.1 2.15 15.5 -0.7 16.45 -4.2 12.55 -0.4 7.4 M-11.85 -5.35 L-11.8 -5.35 -11.85 -5.35 M-6.6 -4.2 L-8.6 -1.0 Q-8.6 -2.55 -8.1 -3.6 -7.65 -4.7 -7.0 -4.7 L-6.6 -4.2"/><path fill="#505b64" stroke="none" d="M-4.0 27.1 L-3.5 26.15 8.25 25.9 -1.0 28.65 -4.0 27.1"/><path fill="#80909c" stroke="none" d="M1.7 5.05 L5.05 -0.6 7.4 0.45 4.4 3.4 11.0 6.75 8.1 8.6 3.45 7.05 3.35 7.0 1.7 5.05 M-11.8 -10.5 L-11.8 -19.4 -11.5 -19.1 -5.9 -9.85 -8.8 -6.6 -11.8 -5.7 -11.8 -10.5"/><path fill="#9cb1c0" stroke="none" d="M-13.95 -18.95 L-14.95 -13.25 -17.6 -13.25 Q-17.6 -15.6 -16.5 -17.25 -15.45 -18.95 -13.95 -18.95 M-15.9 -6.75 L-15.45 -10.75 -11.8 -10.5 -11.8 -5.7 -14.0 -6.0 -15.9 -6.75"/><path fill="#535e66" stroke="none" d="M-18.6 -7.9 L-15.9 -6.75 -15.25 1.1 -18.75 0.75 -18.6 -7.9 M-11.8 -5.35 L-11.85 -5.35 -10.0 1.2 -13.05 1.3 -14.0 -6.0 -11.8 -5.7 -11.8 -5.35 M-12.6 4.45 L-8.95 4.8 -7.8 9.0 -12.1 8.3 -12.6 4.45 M-14.9 4.25 L-14.45 7.95 -18.2 6.15 -18.45 3.9 -14.9 4.25"/><path fill="#ff0000" stroke="none" d="M3.45 7.1 L3.35 7.0 3.45 7.05 3.45 7.1"/><path fill="#5b6570" stroke="none" d="M5.15 10.5 L4.6 11.25 5.15 12.9 1.3 12.1 1.3 9.05 5.15 10.5 M-11.8 -5.35 L-11.8 -5.7 -8.8 -6.6 -7.0 -4.7 Q-7.65 -4.7 -8.1 -3.6 -8.6 -2.55 -8.6 -1.0 L-10.0 1.2 -11.85 -5.35 -11.8 -5.35 M-8.95 4.8 L-7.3 3.25 -6.0 7.45 -7.8 9.0 -8.95 4.8 M-4.15 5.1 L-4.55 1.0 -2.65 3.15 -4.15 5.1 M-6.4 14.0 L-0.4 7.4 -4.2 12.55 -0.7 16.45 -3.55 17.8 -5.8 16.0 -6.4 14.0"/><path fill="#2d3338" stroke="none" d="M-0.7 16.45 L2.15 15.5 1.3 12.1 5.15 12.9 5.7 14.6 7.1 18.6 -1.4 20.75 -2.95 23.45 -5.7 21.8 -3.55 17.8 -0.7 16.45"/><path fill="#1e2226" stroke="none" d="M-15.6 19.65 L-14.35 18.9 -6.55 23.35 -5.7 21.8 -2.95 23.45 -4.4 26.05 -4.8 26.65 -15.6 19.65"/><path fill="#8d3814" stroke="none" d="M-15.25 1.1 L-13.05 1.3 -12.6 4.45 -14.9 4.25 -15.25 1.1 M-12.1 8.3 L-11.6 11.9 -16.25 9.65 -16.0 11.85 -17.7 11.6 -18.2 6.15 -14.45 7.95 -12.1 8.3"/><path fill="#c55c18" stroke="none" d="M-2.65 3.15 L-0.4 7.4 -6.4 14.0 -16.0 11.85 -16.25 9.65 -11.6 11.9 -12.1 8.3 -7.8 9.0 -6.0 7.45 -4.9 11.0 -2.65 9.2 -4.15 5.1 -2.65 3.15 M-13.05 1.3 L-10.0 1.2 -8.6 -1.0 -7.3 3.25 -8.95 4.8 -12.6 4.45 -13.05 1.3 M-18.45 3.9 L-18.75 0.75 -15.25 1.1 -14.9 4.25 -18.45 3.9"/><path fill="#fbc904" stroke="none" d="M5.6 -1.45 L5.05 -0.6 1.7 5.05 -0.4 7.4 -2.65 3.15 -1.35 1.45 1.4 -2.45 1.95 -2.05 5.6 -1.45 M-7.3 3.25 L-8.6 -1.0 -6.6 -4.2 -4.25 -1.7 -7.3 3.25 M-6.0 7.45 L-4.15 5.1 -2.65 9.2 -4.9 11.0 -6.0 7.45"/><path fill="#fdfd35" stroke="none" d="M-4.45 -7.65 L-1.9 -5.4 -1.9 -5.35 -4.25 -1.65 -4.25 -1.7 -6.6 -4.2 -4.45 -7.65"/><path fill="none" stroke="#3d3928" stroke-width="0.5" stroke-opacity="0.501960784314" d="M-11.7 -19.4 L-11.5 -19.1"/><path fill="none" stroke="#000000" stroke-width="0.5" stroke-opacity="0.152941176471" d="M6.95 10.85 L16.65 9.3"/><path fill="none" stroke="#000000" stroke-width="0.5" stroke-opacity="0.4" d="M5.6 -1.45 L1.95 -2.05 M16.65 9.3 L11.95 0.65 5.6 -1.45 M-11.8 -19.4 L-13.95 -18.95 Q-15.45 -18.95 -16.5 -17.25 -17.6 -15.6 -17.6 -13.25 L-18.6 -7.9 M-11.5 -19.1 L-5.9 -9.85 -5.25 -8.85 M-5.1 -8.55 L-4.45 -7.65 -1.9 -5.4 M-1.9 -5.35 L1.4 -2.45 M-18.75 0.75 L-18.45 3.9 -18.2 6.15 -17.7 11.6 -15.6 19.65 -4.8 26.65 -4.0 27.1 -1.0 28.65 8.25 25.9 16.65 19.6 16.65 14.55 16.65 12.0 16.65 9.3 M-18.75 0.75 L-18.6 -7.9"/></g><g id="c13"><g><use transform="matrix(1.0,0.0,0.0,1.0,0.0,0.0)" xlink:href="#c12"/></g></g><g id="c14"><path fill="#fff9dc" stroke="none" d="M1.15 -3.35 L4.05 -3.9 Q2.45 -2.35 0.95 -1.85 -0.95 -1.7 1.15 -3.35 M2.45 -0.95 Q4.9 -0.35 7.2 1.45 3.25 4.0 -1.05 3.7 L-5.6 1.2 -2.2 0.3 2.45 -0.95 M1.9 8.4 Q3.85 9.35 5.5 10.85 L5.0 10.9 Q2.3 10.75 0.25 9.75 L-0.45 8.95 Q-0.7 8.35 0.45 8.35 L1.9 8.4 M-5.65 -4.5 L-0.35 -7.7 Q-1.85 -4.75 -4.6 -2.35 L-6.3 -2.4 -5.65 -4.5 M-0.85 6.0 Q-5.4 7.35 -9.95 4.3 L-5.35 4.7 -6.2 3.25 -2.7 4.15 Q-1.75 4.9 -0.85 6.0"/><path fill="#e3d29a" stroke="none" d="M1.15 -3.35 Q-0.95 -1.7 0.95 -1.85 2.45 -2.35 4.05 -3.9 2.7 -2.3 0.8 -1.1 -0.2 -0.45 -2.2 0.3 L-5.6 1.2 -1.05 3.7 Q3.25 4.0 7.2 1.45 6.25 3.15 4.75 4.7 L-0.85 6.0 Q-1.75 4.9 -2.7 4.15 L-6.2 3.25 -5.35 4.7 -9.95 4.3 Q-5.4 7.35 -0.85 6.0 L-1.75 7.3 Q-3.25 8.5 -5.7 8.2 -7.45 8.0 -9.7 7.0 L-10.7 3.15 -7.65 3.15 -9.3 1.05 -5.45 -0.25 -9.3 -1.85 -5.65 -4.5 -6.3 -2.4 -4.6 -2.35 Q-1.85 -4.75 -0.35 -7.7 L0.0 -6.7 Q0.05 -3.3 -5.45 -0.25 L-1.45 -2.1 -0.1 -2.8 1.15 -3.35 M0.95 7.95 L1.9 8.4 0.45 8.35 Q-0.7 8.35 -0.45 8.95 L0.25 9.75 Q2.3 10.75 5.0 10.9 1.65 11.2 -0.6 10.4 -4.45 9.05 -5.7 8.2 L-1.45 8.6 Q-0.7 8.25 -1.75 7.3 -0.3 7.45 0.95 7.95 M-5.05 2.65 L-2.7 4.15 -5.05 2.65"/><path fill="#d3bb76" stroke="none" d="M0.8 -1.1 L2.45 -0.95 -2.2 0.3 Q-0.2 -0.45 0.8 -1.1 M4.75 4.7 L0.95 7.95 Q-0.3 7.45 -1.75 7.3 -0.7 8.25 -1.45 8.6 L-5.7 8.2 Q-3.25 8.5 -1.75 7.3 L-0.85 6.0 4.75 4.7 M0.0 -6.7 Q0.25 -5.3 -0.1 -2.8 L-1.45 -2.1 -5.45 -0.25 Q0.05 -3.3 0.0 -6.7"/><path fill="none" stroke="#4f2d01" stroke-width="0.5" stroke-opacity="0.321568627451" d="M4.05 -3.9 L1.15 -3.35 M4.05 -3.9 Q2.7 -2.3 0.8 -1.1 L2.45 -0.95 Q4.9 -0.35 7.2 1.45 6.25 3.15 4.75 4.7 L0.95 7.95 1.9 8.4 Q3.85 9.35 5.5 10.85 L5.0 10.9 Q1.65 11.2 -0.6 10.4 -4.45 9.05 -5.7 8.2 -7.45 8.0 -9.7 7.0 M-5.65 -4.5 L-0.35 -7.7 0.0 -6.7 Q0.25 -5.3 -0.1 -2.8 L1.15 -3.35 M-1.45 -2.1 L-0.1 -2.8 M-2.7 4.15 L-5.05 2.65 M-0.85 6.0 Q-1.75 4.9 -2.7 4.15 M-5.7 8.2 Q-3.25 8.5 -1.75 7.3 L-0.85 6.0 M-1.75 7.3 Q-0.3 7.45 0.95 7.95 M0.8 -1.1 Q-0.2 -0.45 -2.2 0.3"/></g><g id="c15"><g><use transform="matrix(1.0,0.0,0.0,1.0,0.0,0.0)" xlink:href="#c14"/></g></g><g id="c16"><g><use transform="matrix(0.971405029297,0.234222412109,-0.501510620117,0.906951904297,-6.5,1.8)" xlink:href="#c13"/></g><g><use transform="matrix(-0.392562866211,-0.802734375,-0.776702880859,0.379837036133,4.05,-8.45)" xlink:href="#c15"/></g></g><g id="c17"><path fill="#283f4a" stroke="none" d="M5.5 0.05 Q5.9 4.0 4.25 6.1 2.05 8.2 -1.55 7.75 -2.8 6.25 -1.55 4.35 1.35 4.35 3.45 3.1 5.5 1.85 5.5 0.05"/><path fill="#1c2c31" stroke="none" d="M-1.55 7.75 Q-3.0 7.35 -4.55 6.25 -5.8 4.6 -5.55 0.85 -4.35 3.7 -1.55 4.35 -2.8 6.25 -1.55 7.75"/><path fill="#796b50" stroke="none" d="M-0.9 -11.8 Q2.4 -11.65 4.05 -5.75 5.2 -2.5 5.5 0.05 5.5 1.85 3.45 3.1 1.35 4.35 -1.55 4.35 -3.0 -0.35 -0.9 -11.8"/><path fill="#59492f" stroke="none" d="M-4.85 -5.8 Q-3.8 -12.65 -0.9 -11.8 -3.0 -0.35 -1.55 4.35 -4.35 3.7 -5.55 0.85 L-4.85 -5.8"/><path fill="none" stroke="#000033" stroke-width="0.5" stroke-opacity="0.462745098039" d="M-4.85 -5.8 Q-3.8 -12.65 -0.9 -11.8 2.4 -11.65 4.05 -5.75 M5.5 0.05 Q5.9 4.0 4.25 6.1 2.05 8.2 -1.55 7.75 -3.0 7.35 -4.55 6.25 -5.8 4.6 -5.55 0.85 -4.35 3.7 -1.55 4.35 1.35 4.35 3.45 3.1 5.5 1.85 5.5 0.05"/><path fill="none" stroke="#2b2609" stroke-width="0.5" stroke-opacity="0.462745098039" d="M4.05 -5.75 Q5.2 -2.5 5.5 0.05 M-5.55 0.85 L-4.85 -5.8"/></g><g id="c18"><g><use transform="matrix(1.0,0.0,0.0,1.0,0.0,0.0)" xlink:href="#c17"/></g></g><g id="c19"><path fill="#e3d29a" stroke="none" d="M-3.95 -2.8 L-3.9 -1.95 Q-4.2 2.2 -8.5 3.2 L-10.2 0.75 -10.5 4.2 -5.85 6.15 Q-5.45 8.75 -7.3 10.45 -10.3 13.25 -14.35 12.6 L-15.8 11.1 -15.8 11.05 Q-16.1 9.25 -15.3 7.6 L-18.8 7.5 -20.0 6.25 Q-20.35 3.45 -18.5 1.4 -16.0 -1.3 -12.4 -0.45 -11.65 -2.5 -9.65 -3.4 -6.55 -4.8 -3.95 -2.8 M12.3 2.9 L9.2 7.6 Q5.85 12.3 4.65 12.6 L2.55 8.35 Q3.35 12.4 -0.4 14.45 -2.95 15.85 -5.8 15.35 L-7.25 13.85 -4.4 7.75 3.75 5.7 Q4.25 3.3 6.55 2.2 9.65 0.8 12.3 2.9"/><path fill="#d3bb76" stroke="none" d="M-15.8 11.1 L-14.35 12.6 Q-10.3 13.25 -7.3 10.45 -5.45 8.75 -5.85 6.15 L-10.5 4.2 -10.2 0.75 -8.5 3.2 Q-4.2 2.2 -3.9 -1.95 L-3.95 -2.8 Q-1.55 -0.5 -2.6 2.75 L-4.05 5.05 Q-5.15 7.0 -4.4 7.75 L-7.25 13.85 -5.8 15.35 Q-2.95 15.85 -0.4 14.45 3.35 12.4 2.55 8.35 L4.65 12.6 Q5.85 12.3 9.2 7.6 L12.3 2.9 Q14.25 4.65 13.95 7.55 13.65 10.65 10.55 11.8 10.1 13.05 9.25 14.05 7.2 16.45 3.95 15.65 L3.05 16.8 Q0.4 19.7 -3.1 18.35 L-4.8 17.3 Q-6.2 15.55 -7.5 15.7 -9.75 16.45 -11.7 15.7 -15.05 14.65 -15.8 11.1 M-20.0 6.25 L-18.8 7.5 -15.3 7.6 Q-16.1 9.25 -15.8 11.05 L-20.0 6.25"/><path fill="none" stroke="#4f2d01" stroke-width="0.5" stroke-opacity="0.321568627451" d="M-3.95 -2.8 Q-6.55 -4.8 -9.65 -3.4 -11.65 -2.5 -12.4 -0.45 -16.0 -1.3 -18.5 1.4 -20.35 3.45 -20.0 6.25 L-15.8 11.05 M-15.8 11.1 Q-15.05 14.65 -11.7 15.7 -9.75 16.45 -7.5 15.7 -6.2 15.55 -4.8 17.3 L-3.1 18.35 Q0.4 19.7 3.05 16.8 L3.95 15.65 Q7.2 16.45 9.25 14.05 10.1 13.05 10.55 11.8 13.65 10.65 13.95 7.55 14.25 4.65 12.3 2.9 9.65 0.8 6.55 2.2 4.25 3.3 3.75 5.7 L-4.4 7.75 Q-5.15 7.0 -4.05 5.05 L-2.6 2.75 Q-1.55 -0.5 -3.95 -2.8"/></g><g id="c20"><g><use transform="matrix(1.0,0.0,0.0,1.0,0.0,0.0)" xlink:href="#c19"/></g><g><use transform="matrix(-0.684646606445,0.0682830810547,0.0370788574219,0.588195800781,-23.3,3.8)" xlink:href="#c15"/></g><g><use transform="matrix(-0.747787475586,0.611465454102,0.583404541016,0.76904296875,-19.65,13.45)" xlink:href="#c15"/></g><g><use transform="matrix(-0.225463867188,0.561141967773,0.668197631836,0.297180175781,-9.75,17.55)" xlink:href="#c15"/></g></g><g id="c21"><path fill="#eae2c8" stroke="none" d="M4.65 -2.15 L3.9 -1.5 1.7 -3.25 -0.4 -3.75 -3.35 -3.75 -3.35 -3.8 -0.2 -4.7 3.05 -4.05 4.65 -2.3 4.65 -2.15"/><path fill="#e7d6a7" stroke="none" d="M1.0 -0.1 L1.65 1.25 0.85 4.55 0.05 4.75 -2.6 4.2 -3.6 2.9 -4.6 -1.95 -4.45 -2.1 -1.85 -0.2 1.0 -0.1"/><path fill="#aca172" stroke="none" d="M3.9 -1.5 L4.65 -2.15 4.05 1.8 2.8 4.05 0.85 4.55 1.65 1.25 1.0 -0.1 2.3 -0.05 3.9 -1.5"/><path fill="#fffae8" stroke="none" d="M3.9 -1.5 L2.3 -0.05 1.0 -0.1 -1.85 -0.2 -4.45 -2.1 -3.55 -3.5 -3.35 -3.75 -0.4 -3.75 1.7 -3.25 3.9 -1.5"/><path fill="none" stroke="#786b43" stroke-width="0.5" stroke-opacity="0.501960784314" d="M0.85 4.55 L2.8 4.05 4.05 1.8 4.65 -2.15 4.65 -2.3 3.05 -4.05 -0.2 -4.7 -3.35 -3.8 -3.35 -3.75 M-4.45 -2.1 L-4.6 -1.95 -3.6 2.9 -2.6 4.2 0.05 4.75 0.85 4.55 M-3.55 -3.5 L-4.45 -2.1"/></g><g id="c22"><g><use transform="matrix(1.0,0.0,0.0,1.0,0.0,0.0)" xlink:href="#c21"/></g></g><g id="c23"><path fill="#561f07" stroke="none" d="M12.85 -3.7 L15.35 -0.4 10.5 5.4 -4.3 1.35 -11.3 -3.95 -6.9 -6.5 -4.8 -6.5 -5.15 -6.4 -5.15 -5.55 -5.5 -4.8 -5.2 -4.1 -3.9 -0.95 -3.65 -0.9 5.95 1.15 11.1 -0.9 12.85 -3.7 M-3.5 0.0 L-3.9 -0.95 -3.5 0.0 M-5.9 -4.0 L-5.5 -4.8 -5.9 -4.0"/><path fill="#6f2609" stroke="none" d="M-4.7 -6.5 Q-3.1 -9.45 2.2 -10.0 7.95 -9.3 9.85 -7.65 L12.85 -3.7 11.1 -0.9 5.95 1.15 -3.65 -0.9 Q8.05 0.4 7.3 -3.75 2.45 -8.0 -5.15 -5.55 L-4.9 -6.05 -4.7 -6.5"/><path fill="#862f0b" stroke="none" d="M10.5 5.4 Q21.6 1.25 7.35 9.15 1.9 8.4 -0.8 10.05 -6.8 5.75 -9.05 8.1 -11.9 3.3 -14.8 3.55 -13.55 1.0 -15.4 -0.05 L-14.3 -1.5 -11.3 -3.95 -4.3 1.35 10.5 5.4 M-4.8 -6.5 L-4.7 -6.5 -4.8 -6.5 -4.7 -6.5 -4.9 -6.05 -5.15 -5.55 -5.15 -6.4 -4.8 -6.5"/><path fill="#a53a0e" stroke="none" d="M-3.65 -0.9 L-3.9 -0.95 -5.2 -4.1 -5.15 -5.55 -4.9 -6.05 -5.15 -5.55 Q2.45 -8.0 7.3 -3.75 8.05 0.4 -3.65 -0.9"/><path fill="none" stroke="#786b43" stroke-width="0.5" stroke-opacity="0.501960784314" d="M-4.7 -6.5 Q-3.1 -9.45 2.2 -10.0 7.95 -9.3 9.85 -7.65 L12.85 -3.7 15.35 -0.4 10.5 5.4 Q21.6 1.25 7.35 9.15 1.9 8.4 -0.8 10.05 -6.8 5.75 -9.05 8.1 -11.9 3.3 -14.8 3.55 -13.55 1.0 -15.4 -0.05 L-14.3 -1.5 -11.3 -3.95 -6.9 -6.5 -4.8 -6.5 -4.7 -6.5 -4.9 -6.05 -5.15 -5.55 -5.15 -6.4 M12.85 -3.7 L11.1 -0.9 5.95 1.15 -3.65 -0.9 -3.9 -0.95 -3.5 0.0 M-5.2 -4.1 L-5.15 -5.55 -5.5 -4.8 -5.2 -4.1 -3.9 -0.95 M-5.5 -4.8 L-5.9 -4.0"/></g><g id="c24"><g><use transform="matrix(1.0,0.0,0.0,1.0,-4.85,-7.3)" filter="url(#filter20)" xlink:href="#c22"/></g><g><use transform="matrix(1.0,0.0,0.0,1.0,0.0,0.0)" xlink:href="#c23"/></g><g><use transform="matrix(1.0,0.0,0.0,1.0,-9.85,-4.3)" filter="url(#filter22)" xlink:href="#c22"/></g><g><use transform="matrix(1.0,0.0,0.0,1.0,-9.15,-0.45)" filter="url(#filter23)" xlink:href="#c22"/></g><g><use transform="matrix(1.0,0.0,0.0,1.0,-3.1,2.85)" xlink:href="#c22"/></g><g><use transform="matrix(1.0,0.0,0.0,1.0,11.5,-0.45)" filter="url(#filter25)" xlink:href="#c22"/></g><g><use transform="matrix(1.0,0.0,0.0,1.0,5.5,3.35)" filter="url(#filter26)" xlink:href="#c22"/></g></g><filter id="filter20"><feColorMatrix in="SourceGraphic" type="matrix" values="0.6484375 0.0 0.0 0.0 0.0 0.0 0.6484375 0.0 0.0 0.0 0.0 0.0 0.6484375 0.0 -0.12890625 0.0 0.0 0.0 1.0 0.0" result="cxform"/><feComposite operator="in" in2="SourceGraphic" result="color-xform"/></filter><filter id="filter22"><feColorMatrix in="SourceGraphic" type="matrix" values="0.87109375 0.0 0.0 0.0 0.0 0.0 0.87109375 0.0 0.0 0.0 0.0 0.0 0.87109375 0.0 0.0 0.0 0.0 0.0 1.0 0.0" result="cxform"/><feComposite operator="in" in2="SourceGraphic" result="color-xform"/></filter><filter id="filter23"><feColorMatrix in="SourceGraphic" type="matrix" values="0.8984375 0.0 0.0 0.0 0.1015625 0.0 0.8984375 0.0 0.0 0.1015625 0.0 0.0 0.8984375 0.0 0.1015625 0.0 0.0 0.0 1.0 0.0" result="cxform"/><feComposite operator="in" in2="SourceGraphic" result="color-xform"/></filter><filter id="filter25"><feColorMatrix in="SourceGraphic" type="matrix" values="0.6484375 0.0 0.0 0.0 0.0 0.0 0.6484375 0.0 0.0 0.0 0.0 0.0 0.6484375 0.0 -0.12890625 0.0 0.0 0.0 1.0 0.0" result="cxform"/><feComposite operator="in" in2="SourceGraphic" result="color-xform"/></filter><filter id="filter26"><feColorMatrix in="SourceGraphic" type="matrix" values="0.87109375 0.0 0.0 0.0 0.0 0.0 0.87109375 0.0 0.0 0.0 0.0 0.0 0.87109375 0.0 -0.09375 0.0 0.0 0.0 1.0 0.0" result="cxform"/><feComposite operator="in" in2="SourceGraphic" result="color-xform"/></filter><g id="c25"><path fill="#607a0d" stroke="none" d="M-0.4 -4.8 L0.1 -5.15 Q4.85 -4.1 4.45 -2.4 4.0 -0.75 3.55 -0.05 L-2.05 3.8 -2.0 2.05 -2.5 -1.05 -2.6 -1.95 -0.4 -4.8 -2.6 -1.95 -2.5 -1.05 -2.0 2.05 -8.2 2.35 -7.5 1.25 -6.45 -1.5 -7.5 -1.8 Q-10.6 -2.6 -8.5 -3.4 L-3.75 -6.5 -0.4 -4.8 M-2.6 -1.95 L-4.45 -1.35 -6.45 -1.5 -4.45 -1.35 -2.6 -1.95"/><path fill="none" stroke="#3d3928" stroke-width="0.5" stroke-opacity="0.501960784314" d="M-2.0 2.05 L-2.05 3.8 3.55 -0.05 Q4.0 -0.75 4.45 -2.4 4.85 -4.1 0.1 -5.15 L-0.4 -4.8 -2.6 -1.95 -2.5 -1.05 -2.0 2.05 -8.2 2.35 -7.5 1.25 -6.45 -1.5 -7.5 -1.8 Q-10.6 -2.6 -8.5 -3.4 L-3.75 -6.5 -0.4 -4.8 M-6.45 -1.5 L-4.45 -1.35 -2.6 -1.95"/><path fill="#87603c" stroke="none" d="M2.2 -4.95 L1.95 0.75 1.55 3.45 1.55 3.5 Q1.35 4.1 1.55 5.2 2.4 7.4 4.35 8.95 4.8 9.25 4.9 9.85 4.95 10.4 4.6 10.85 L3.7 11.4 Q3.1 11.45 2.65 11.1 0.1 9.1 -1.0 6.2 -1.65 4.6 -1.1 2.75 L-1.1 2.8 -0.6 -0.3 -0.6 -4.05 Q0.35 -5.3 2.2 -4.95"/><path fill="none" stroke="#0c141a" stroke-width="0.5" stroke-opacity="0.423529411765" d="M2.2 -4.95 L1.95 0.75 1.55 3.45 1.55 3.5 Q1.35 4.1 1.55 5.2 2.4 7.4 4.35 8.95 4.8 9.25 4.9 9.85 4.95 10.4 4.6 10.85 L3.7 11.4 Q3.1 11.45 2.65 11.1 0.1 9.1 -1.0 6.2 -1.65 4.6 -1.1 2.75 L-1.1 2.8 -0.6 -0.3 -0.6 -4.05"/></g><g id="c26"><path fill="#7e9911" stroke="none" d="M8.3 -1.95 L6.8 -1.05 Q6.35 -0.9 2.35 -2.85 L6.5 -3.05 Q7.3 -1.95 8.3 -1.95 M-1.65 -2.15 L-0.4 -1.1 -5.25 -2.9 -6.8 -4.45 -5.5 -4.45 -4.5 -4.35 -1.65 -2.15 M-0.75 -0.45 L-3.8 1.4 -10.9 -0.6 -4.95 -0.45 -5.0 -2.1 -2.8 -1.1 -4.9 -0.55 -3.6 0.5 -0.75 -0.45 M-11.5 -5.95 L-12.9 -7.55 -5.2 -9.35 -5.15 -9.35 -5.1 -9.0 -4.5 -4.35 -5.5 -4.45 -6.8 -4.45 -7.45 -4.3 -11.5 -5.95 M2.7 -13.1 L3.15 -14.4 4.9 -11.5 5.4 -10.15 5.5 -9.55 3.15 -7.75 2.15 -8.95 Q1.75 -10.85 2.7 -13.1 M6.95 -7.75 L8.85 -7.8 Q7.9 -7.55 7.15 -6.65 6.05 -5.45 6.05 -3.75 L4.1 -3.9 5.35 -5.4 4.05 -5.95 2.7 -4.1 3.1 -5.5 5.2 -7.65 6.2 -7.75 6.95 -7.75"/><path fill="#98b814" stroke="none" d="M7.4 -13.1 L8.4 -14.0 9.2 -7.85 8.85 -7.8 6.95 -7.75 6.85 -8.05 6.2 -7.75 5.4 -8.35 5.5 -9.55 5.4 -10.15 7.4 -13.1 M-5.15 -9.35 L-5.35 -10.0 -5.9 -11.55 Q-4.2 -10.8 -2.35 -10.6 -0.45 -10.45 1.0 -9.65 L2.15 -8.95 Q2.1 -5.35 0.1 -3.4 -4.0 -4.8 -5.1 -9.0 L-5.15 -9.35"/><path fill="#708f0f" stroke="none" d="M5.4 -8.35 L6.2 -7.75 5.2 -7.65 5.4 -8.35"/><path fill="#607a0d" stroke="none" d="M2.35 -2.85 L2.35 -3.15 1.8 -1.6 0.7 -1.4 -1.65 -2.15 -4.5 -4.35 -5.1 -9.0 Q-4.0 -4.8 0.1 -3.4 2.1 -5.35 2.15 -8.95 L3.15 -7.75 3.45 -7.15 3.1 -5.5 2.7 -4.1 4.05 -5.95 5.35 -5.4 4.1 -3.9 6.05 -3.75 6.7 -3.7 6.5 -3.05 2.35 -2.85 M-0.4 -1.1 L-0.75 -0.45 -3.6 0.5 -4.9 -0.55 -2.8 -1.1 -5.0 -2.1 -5.75 -2.4 -5.25 -2.9 -0.4 -1.1 M6.2 -7.75 L6.85 -8.05 6.95 -7.75 6.2 -7.75 M2.35 -3.15 L2.7 -4.1 2.35 -3.15"/><path fill="#657a0e" stroke="none" d="M-9.1 -3.55 L-11.5 -5.95 -7.45 -4.3 -9.1 -3.55 M1.0 -9.65 L2.7 -13.1 Q1.75 -10.85 2.15 -8.95 L1.0 -9.65 M4.9 -11.5 L7.4 -13.1 5.4 -10.15 4.9 -11.5 M5.5 -9.55 L5.4 -8.35 5.2 -7.65 3.1 -5.5 3.45 -7.15 3.15 -7.75 5.5 -9.55"/><path fill="#a4c716" stroke="none" d="M9.2 -7.85 L11.0 -8.2 8.3 -1.95 Q7.3 -1.95 6.5 -3.05 L6.7 -3.7 6.05 -3.75 Q6.05 -5.45 7.15 -6.65 7.9 -7.55 8.85 -7.8 L9.2 -7.85 M-10.9 -0.6 L-12.5 -0.95 -9.1 -3.55 -7.45 -4.3 -6.8 -4.45 -5.25 -2.9 -5.75 -2.4 -5.0 -2.1 -4.95 -0.45 -10.9 -0.6"/><path fill="none" stroke="#3d3928" stroke-width="0.5" stroke-opacity="0.501960784314" d="M7.4 -13.1 L8.4 -14.0 9.2 -7.85 11.0 -8.2 8.3 -1.95 6.8 -1.05 Q6.35 -0.9 2.35 -2.85 L2.35 -3.15 1.8 -1.6 0.7 -1.4 -1.65 -2.15 -0.4 -1.1 -0.75 -0.45 -3.8 1.4 -10.9 -0.6 -12.5 -0.95 -9.1 -3.55 -11.5 -5.95 -12.9 -7.55 -5.2 -9.35 -5.15 -9.35 -5.35 -10.0 -5.9 -11.55 Q-4.2 -10.8 -2.35 -10.6 -0.45 -10.45 1.0 -9.65 L2.7 -13.1 3.15 -14.4 4.9 -11.5 7.4 -13.1 M5.4 -10.15 L5.5 -9.55 5.4 -8.35 5.2 -7.65 6.2 -7.75 6.95 -7.75 8.85 -7.8 9.2 -7.85 M3.1 -5.5 L3.45 -7.15 3.15 -7.75 2.15 -8.95 1.0 -9.65 M-5.1 -9.0 L-4.5 -4.35 -1.65 -2.15 M3.1 -5.5 L2.7 -4.1 2.35 -3.15 M4.9 -11.5 L5.4 -10.15 M5.2 -7.65 L3.1 -5.5 M-5.15 -9.35 L-5.1 -9.0 M-6.8 -4.45 L-5.5 -4.45 -4.5 -4.35 M-7.45 -4.3 L-6.8 -4.45 M-9.1 -3.55 L-7.45 -4.3"/></g><g id="c27"><g><use transform="matrix(1.0,0.0,0.0,1.0,0.0,0.0)" xlink:href="#c25"/></g><g><use transform="matrix(-0.654342651367,-1.12022399902,1.12022399902,-0.654342651367,-7.95,-13.1)" xlink:href="#c15"/></g><g><use transform="matrix(1.0,0.0,0.0,1.0,0.0,0.0)" xlink:href="#c26"/></g></g><g id="c28"><path fill="#cdc984" stroke="none" d="M31.95 -4.0 L32.05 -4.1 32.05 -4.0 31.95 -4.0 M4.55 19.25 L4.55 19.3 4.5 19.3 4.55 19.25"/><path fill="#bcb35d" stroke="none" d="M32.05 -4.1 L32.1 -4.05 32.05 -4.0 32.05 -4.1"/><path fill="#e2d9b6" stroke="none" d="M9.15 2.85 L9.3 2.85 9.3 3.05 9.15 2.85"/><path fill="#ffffff" stroke="none" d="M19.45 5.05 L19.45 5.0 19.55 5.05 19.45 5.05"/><path fill="#fff9dc" stroke="none" d="M-24.75 21.95 Q-26.45 21.35 -27.65 20.25 -30.65 17.6 -31.15 13.6 L-33.75 11.1 Q-35.85 8.35 -35.5 5.0 -35.15 1.7 -34.05 -0.45 L-33.0 -1.95 Q-33.9 -4.15 -33.7 -6.55 -33.7 -10.55 -31.15 -13.4 -28.6 -16.25 -25.0 -16.4 -24.85 -18.4 -23.85 -20.4 -21.9 -24.25 -17.8 -25.7 L-10.55 -25.45 Q-9.15 -28.45 -6.25 -30.0 -1.65 -32.55 3.2 -30.45 5.4 -29.6 7.05 -28.2 10.8 -30.2 15.1 -29.15 16.7 -28.75 18.55 -27.4 20.15 -26.25 20.95 -25.2 21.85 -24.0 22.95 -20.35 28.6 -21.45 31.95 -15.45 33.3 -11.35 27.45 -9.7 30.35 -2.45 23.8 -0.95 26.15 5.25 18.4 11.25 14.45 14.85 9.4 15.55 L2.7 14.65 Q1.05 19.1 -3.55 22.8 -8.9 27.05 -17.35 24.95 -21.6 23.85 -24.75 21.95 M19.45 5.05 L19.55 5.05 19.45 5.0 19.45 5.05 M9.15 2.85 L9.3 3.05 9.3 2.85 9.15 2.85"/><path fill="#d3bb76" stroke="none" d="M-24.75 21.95 Q-21.6 23.85 -17.35 24.95 -8.9 27.05 -3.55 22.8 1.05 19.1 2.7 14.65 L9.4 15.55 Q14.45 14.85 18.4 11.25 26.15 5.25 23.8 -0.95 30.35 -2.45 27.45 -9.7 33.3 -11.35 31.95 -15.45 33.1 -12.95 33.4 -11.2 34.05 -7.15 31.95 -4.0 L32.05 -4.0 32.1 -4.05 Q34.8 0.8 32.55 5.95 30.2 11.45 24.45 12.2 L24.6 15.85 Q24.05 19.45 20.4 22.45 18.55 24.0 14.2 24.35 L10.2 24.45 8.7 27.15 Q6.9 30.0 5.25 30.85 -1.65 34.45 -7.55 29.35 -9.5 31.05 -11.7 31.45 -15.75 32.25 -19.7 29.95 -22.5 28.35 -23.9 25.0 L-24.75 21.95 M4.55 19.25 L4.5 19.3 4.55 19.3 4.55 19.25"/><path fill="none" stroke="#4f2d01" stroke-width="0.6" stroke-opacity="0.321568627451" d="M31.95 -15.45 Q28.6 -21.45 22.95 -20.35 21.85 -24.0 20.95 -25.2 20.15 -26.25 18.55 -27.4 16.7 -28.75 15.1 -29.15 10.8 -30.2 7.05 -28.2 5.4 -29.6 3.2 -30.45 -1.65 -32.55 -6.25 -30.0 -9.15 -28.45 -10.55 -25.45 L-17.8 -25.7 Q-21.9 -24.25 -23.85 -20.4 -24.85 -18.4 -25.0 -16.4 -28.6 -16.25 -31.15 -13.4 -33.7 -10.55 -33.7 -6.55 -33.9 -4.15 -33.0 -1.95 L-34.05 -0.45 Q-35.15 1.7 -35.5 5.0 -35.85 8.35 -33.75 11.1 L-31.15 13.6 Q-30.65 17.6 -27.65 20.25 -26.45 21.35 -24.75 21.95 M31.95 -15.45 Q33.1 -12.95 33.4 -11.2 34.05 -7.15 31.95 -4.0 M32.1 -4.05 Q34.8 0.8 32.55 5.95 30.2 11.45 24.45 12.2 L24.6 15.85 Q24.05 19.45 20.4 22.45 18.55 24.0 14.2 24.35 L10.2 24.45 8.7 27.15 Q6.9 30.0 5.25 30.85 -1.65 34.45 -7.55 29.35 -9.5 31.05 -11.7 31.45 -15.75 32.25 -19.7 29.95 -22.5 28.35 -23.9 25.0 L-24.75 21.95"/><path fill="none" stroke="#4f2d01" stroke-width="0.5" stroke-opacity="0.321568627451" d="M32.05 -4.1 L32.1 -4.05"/></g><g id="c29"><g><use transform="matrix(1.0,0.0,0.0,1.0,0.0,0.0)" xlink:href="#c28"/></g></g><g id="c30"><path fill="#7d744f" stroke="none" d="M3.0 -2.15 L3.2 -2.15 3.0 -2.15"/><path fill="#ffffff" stroke="none" d="M-4.15 -0.2 L-4.1 -0.2 -4.05 -0.25 -3.9 -0.35 -3.4 0.65 Q-1.6 2.1 -0.7 0.4 L0.15 -1.8 0.15 -1.9 0.3 -1.95 3.0 -2.15 3.2 -2.15 3.15 -1.5 3.0 -0.55 2.35 0.75 -3.3 2.25 -3.95 0.85 -4.15 -0.2"/><path fill="#000000" stroke="none" d="M-3.9 -0.35 L-2.75 -0.95 -0.4 -1.8 -0.05 -1.85 0.15 -1.9 0.15 -1.8 Q-0.85 0.6 -3.4 0.65 L-3.9 -0.35"/><path fill="#29353d" stroke="none" d="M0.15 -1.8 L-0.7 0.4 Q-1.6 2.1 -3.4 0.65 -0.85 0.6 0.15 -1.8"/><path fill="#887555" stroke="none" d="M-4.15 -0.2 L-4.15 -0.75 Q-4.1 -9.45 0.7 -8.85 L0.7 -8.8 Q1.5 -8.6 2.25 -7.65 3.65 -5.8 3.2 -2.15 L3.0 -2.15 0.3 -1.95 0.15 -1.9 -0.05 -1.85 -0.4 -1.8 -2.75 -0.95 -3.9 -0.35 -4.05 -0.25 -4.1 -0.2 -4.15 -0.2"/><path fill="none" stroke="#422301" stroke-width="1.0" stroke-opacity="0.701960784314" d="M-4.15 -0.2 L-4.1 -0.2 -4.05 -0.25 -3.9 -0.35 -2.75 -0.95 -0.4 -1.8 -0.05 -1.85 0.15 -1.9 M0.3 -1.95 L3.0 -2.15 3.2 -2.15 4.6 -2.15 M-4.15 -0.2 L-4.8 0.15"/><path fill="none" stroke="#000000" stroke-width="0.5" stroke-opacity="0.380392156863" d="M3.2 -2.15 Q3.65 -5.8 2.25 -7.65 1.5 -8.6 0.7 -8.8 L0.7 -8.85 Q-4.1 -9.45 -4.15 -0.75 L-4.15 -0.2 M3.2 -2.15 L3.15 -1.5 3.0 -0.55 2.35 0.75 M-3.3 2.25 L-3.95 0.85 -4.15 -0.2"/><path fill="none" stroke="#29261b" stroke-width="0.5" stroke-opacity="0.701960784314" d="M2.35 0.75 L-3.3 2.25"/></g><g id="c31"><path fill="#7d744f" stroke="none" d="M1.45 4.55 L1.4 4.75 1.4 4.55 1.45 4.55"/><path fill="#ffffff" stroke="none" d="M0.05 -2.15 L0.1 -1.25 0.6 0.4 Q0.2 -0.35 -0.05 3.7 -0.15 4.25 0.3 4.4 L1.1 2.75 1.3 4.1 0.2 5.8 -0.05 5.55 -0.25 5.25 -0.95 3.4 0.05 -2.15"/><path fill="#000000" stroke="none" d="M0.6 0.4 L1.1 2.75 0.3 4.4 Q-0.15 4.25 -0.05 3.7 0.2 -0.35 0.6 0.4"/><path fill="#fff9dc" stroke="none" d="M3.8 -8.05 L4.85 -9.9 4.9 -9.7 Q4.9 -8.4 4.55 -7.3 L4.25 -6.95 3.95 -7.25 Q3.8 -7.5 3.8 -8.05 M-0.7 -6.95 L-0.65 -7.75 Q-0.45 -8.95 0.25 -10.15 L0.45 -10.1 Q1.25 -8.95 1.55 -7.65 L1.7 -6.35 0.75 -4.0 0.2 -5.55 0.1 -5.75 -0.65 -6.9 -0.7 -6.95 M3.05 -6.5 Q3.5 -4.85 2.85 -2.95 L2.4 -2.05 1.8 -4.15 Q1.8 -5.0 2.05 -5.4 2.4 -6.1 3.05 -6.5 M-2.0 -8.25 Q-1.35 -7.6 -1.05 -6.95 -0.85 -6.05 -1.75 -6.95 L-2.15 -8.3 -2.0 -8.25 M-3.6 -6.1 Q-2.3 -5.4 -1.05 -4.25 L-0.95 -3.4 -2.3 -3.95 -3.8 -5.95 -3.6 -6.1"/><path fill="#f8e7bd" stroke="none" d="M3.8 -8.05 Q3.8 -7.5 3.95 -7.25 L4.25 -6.95 4.55 -7.3 Q4.9 -8.4 4.9 -9.7 5.15 -8.4 4.9 -6.95 L4.1 -4.35 Q4.1 -3.5 3.7 -2.4 L2.8 -2.0 1.9 -1.65 1.75 -3.1 0.8 -2.15 0.0 -4.2 -1.05 -5.75 -1.45 -6.4 -1.75 -6.95 Q-0.85 -6.05 -1.05 -6.95 -1.35 -7.6 -2.0 -8.25 L-0.7 -6.95 -0.65 -6.9 0.1 -5.75 0.2 -5.55 0.75 -4.0 1.7 -6.35 1.55 -7.65 Q1.25 -8.95 0.45 -10.1 L1.95 -9.2 3.05 -6.5 3.4 -6.25 Q4.1 -5.55 4.1 -4.35 4.3 -6.05 4.1 -6.4 3.85 -6.8 3.4 -6.25 L3.7 -7.55 3.8 -8.05 M1.8 -4.15 L2.4 -2.05 2.85 -2.95 Q3.5 -4.85 3.05 -6.5 2.4 -6.1 2.05 -5.4 1.8 -5.0 1.8 -4.15 M-3.3 -6.2 Q-1.5 -6.15 -0.65 -5.0 L0.0 -4.15 -0.3 -3.05 -0.6 -2.0 -2.3 -3.95 -0.95 -3.4 -1.05 -4.25 Q-2.3 -5.4 -3.6 -6.1 L-3.3 -6.2"/><path fill="#d3bb76" stroke="none" d="M1.95 -9.2 L3.7 -7.55 3.4 -6.25 Q3.85 -6.8 4.1 -6.4 4.3 -6.05 4.1 -4.35 4.1 -5.55 3.4 -6.25 L3.05 -6.5 1.95 -9.2 M0.0 -4.2 L0.0 -4.15 -0.65 -5.0 Q-1.5 -6.15 -3.3 -6.2 L-1.45 -6.4 -1.05 -5.75 0.0 -4.2"/><path fill="#887555" stroke="none" d="M2.8 -2.0 L2.55 0.0 1.45 4.55 1.4 4.55 1.3 4.1 1.1 2.75 0.6 0.4 0.1 -1.25 0.05 -2.15 -0.3 -3.05 0.0 -4.15 0.0 -4.2 0.8 -2.15 1.75 -3.1 1.9 -1.65 2.8 -2.0"/><path fill="none" stroke="#000000" stroke-width="0.5" stroke-opacity="0.380392156863" d="M2.8 -2.0 L2.55 0.0 1.45 4.55 1.4 4.75"/><path fill="none" stroke="#000000" stroke-width="0.5" d="M-0.3 -3.05 L0.05 -2.15"/><path fill="none" stroke="#29261b" stroke-width="0.5" stroke-opacity="0.701960784314" d="M0.05 -2.15 L-0.95 3.4 -0.25 5.25 -0.05 5.55 0.2 5.8 1.3 4.1"/><path fill="none" stroke="#422301" stroke-width="1.0" stroke-opacity="0.701960784314" d="M1.4 4.75 L1.35 5.3 M0.05 -2.15 L0.1 -1.25 0.6 0.4 1.1 2.75 1.3 4.1 1.4 4.55 M1.4 4.75 L1.4 4.55"/><path fill="none" stroke="#4f2d01" stroke-width="0.5" stroke-opacity="0.321568627451" d="M4.9 -9.7 L4.85 -9.9 3.8 -8.05 M4.9 -9.7 Q5.15 -8.4 4.9 -6.95 L4.1 -4.35 Q4.1 -3.5 3.7 -2.4 M0.45 -10.1 L0.25 -10.15 Q-0.45 -8.95 -0.65 -7.75 L-0.7 -6.95 -0.65 -6.9 0.1 -5.75 0.2 -5.55 M0.45 -10.1 L1.95 -9.2 3.7 -7.55 3.8 -8.05 M4.1 -4.35 Q4.1 -5.55 3.4 -6.25 L3.05 -6.5 M1.8 -4.15 Q1.8 -5.0 2.05 -5.4 2.4 -6.1 3.05 -6.5 M3.7 -7.55 L3.4 -6.25 M-1.05 -5.75 L-1.45 -6.4 -3.3 -6.2 -3.6 -6.1 -3.8 -5.95 -2.3 -3.95 M-2.0 -8.25 L-2.15 -8.3 -1.75 -6.95 -1.45 -6.4 M-0.7 -6.95 L-2.0 -8.25"/></g><g id="c32"><g><use transform="matrix(1.0,0.0,0.0,1.0,0.0,0.0)" xlink:href="#c31"/></g></g><g id="c33"><g><use transform="matrix(1.0,0.0,0.0,1.0,0.0,0.0)" xlink:href="#c30"/></g><g><use transform="matrix(0.957748413086,0.0,0.0,0.957748413086,-15.0,-7.8)" xlink:href="#c32"/></g><g><use transform="matrix(0.241928100586,-0.624740600586,-0.615081787109,-0.264373779297,2.7,-8.35)" xlink:href="#c15"/></g></g><g id="c34"><path fill="#7d7329" fill-opacity="0.6" d="M5.55 -2.55 Q6.65 -2.05 7.4 -0.95 6.05 -0.1 5.25 -0.45 6.35 0.45 6.9 1.7 L3.85 1.75 Q4.3 2.7 4.2 3.35 2.9 3.7 2.15 2.85 1.1 3.95 0.85 4.55 L-2.55 1.15 -7.4 1.9 -6.1 -1.9 5.55 -4.35 5.55 -2.55"/></g><g id="c35"><g><use transform="matrix(1.0,0.0,0.0,1.0,0.0,0.0)" xlink:href="#c34"/></g></g><g id="c36"><path fill="#7e9911" stroke="none" d="M1.05 -12.45 L1.75 -14.0 5.8 -7.1 3.05 -5.9 2.4 -5.6 2.25 -5.55 1.05 -5.8 0.55 -7.3 0.15 -8.0 0.55 -7.3 -2.9 -4.25 -4.5 -10.15 -4.65 -11.85 -1.15 -9.3 0.15 -8.0 1.05 -12.45 M-14.1 10.35 L-16.45 10.55 -13.75 5.05 -10.25 5.4 -9.5 5.65 -8.9 7.85 -14.05 10.35 -14.1 10.35 M-16.2 4.9 L-17.9 5.0 -15.2 1.55 -13.85 0.4 -18.2 -0.7 -19.7 -1.45 -12.65 -5.25 -11.3 -1.7 -10.8 -0.6 -11.55 -0.55 -13.1 -0.05 -11.1 1.1 -10.2 3.4 -16.2 4.9 M-13.05 -5.9 L-14.05 -7.3 Q-11.25 -6.95 -8.3 -7.4 L-5.3 -6.8 Q-5.1 -6.3 -5.4 -5.2 L-5.75 -4.25 -13.05 -5.9 M-13.85 0.4 L-13.1 -0.05 -13.85 0.4"/><path fill="#92b013" stroke="none" d="M5.8 -7.1 L6.35 -7.5 2.6 -2.4 2.5 -2.35 -0.05 -1.65 1.15 -4.95 2.25 -5.55 2.4 -5.6 3.05 -5.9 5.8 -7.1 M8.0 -1.25 L14.2 -1.9 7.55 0.5 6.35 2.05 5.6 2.25 5.35 1.85 4.6 0.6 7.65 0.25 8.0 -1.25 M17.2 3.3 L18.85 3.8 13.1 9.3 10.6 5.5 10.75 4.3 12.1 3.5 17.2 3.3 M6.55 18.45 L6.9 20.15 -0.4 16.9 2.15 12.5 2.2 12.5 2.95 13.15 4.0 13.95 6.55 18.45 M7.55 0.5 L7.65 0.25 7.55 0.5"/><path fill="#a4c716" stroke="none" d="M6.35 -7.5 L7.75 -8.55 8.0 -1.25 7.65 0.25 4.6 0.6 2.6 -2.4 6.35 -7.5 M14.2 -1.9 L15.85 -2.3 13.85 1.6 12.1 3.5 9.9 2.7 10.2 2.1 9.35 2.05 7.55 0.5 14.2 -1.9 M13.1 9.3 L14.3 10.5 8.6 11.7 6.2 7.9 7.05 7.1 8.05 6.35 Q10.6 7.7 13.1 9.3 M-0.4 16.9 L-1.2 19.15 -4.65 15.0 -5.4 13.8 -6.2 11.95 -6.15 11.9 -3.85 10.8 -2.35 10.9 -2.75 10.8 -0.35 11.25 -0.4 16.9"/><path fill="#708f0f" stroke="none" d="M13.85 1.6 L17.2 3.3 12.1 3.5 10.75 4.3 10.6 5.5 13.1 9.3 Q10.6 7.7 8.05 6.35 L7.05 7.1 6.2 7.9 8.6 11.7 9.75 13.3 5.0 9.45 4.0 10.85 4.0 13.95 2.95 13.15 2.2 12.5 2.15 12.5 -0.4 16.9 -0.35 11.25 -2.75 10.8 -2.35 10.9 -3.85 10.8 -6.15 11.9 -6.2 11.95 -6.2 11.9 -6.3 11.15 -6.2 9.75 -4.35 8.2 -5.75 7.95 -6.8 6.9 -7.75 4.3 -7.75 3.55 Q-7.7 2.4 -6.95 1.05 L-7.0 1.05 -10.8 -0.6 -11.3 -1.7 -12.65 -5.25 -13.05 -5.9 -5.75 -4.25 -5.4 -5.2 Q-5.1 -6.3 -5.3 -6.8 L-4.7 -6.45 -4.5 -10.15 -2.9 -4.25 0.55 -7.3 1.05 -5.8 2.25 -5.55 1.15 -4.95 -0.05 -1.65 2.5 -2.35 2.6 -2.4 4.6 0.6 5.35 1.85 5.6 2.25 6.35 2.05 7.55 0.5 9.35 2.05 10.2 2.1 9.9 2.7 12.1 3.5 13.85 1.6 M-4.65 15.0 L-6.65 18.1 -5.4 13.8 -4.65 15.0 M-9.15 15.7 L-14.0 18.3 -14.1 10.35 -14.05 10.35 -9.0 10.8 -9.65 13.15 -9.15 15.7 M-1.15 -9.3 L1.05 -12.45 0.15 -8.0 -1.15 -9.3 M1.05 -5.8 L1.15 -4.95 1.05 -5.8 M5.95 3.6 L9.9 4.45 10.6 5.5 9.9 4.45 5.95 3.6 M6.2 7.9 L3.1 6.95 6.2 7.9 M2.2 12.5 L2.15 12.5 0.55 7.9 2.15 12.5 2.2 12.5 M9.9 4.45 L10.75 4.3 9.9 4.45 M-4.7 -6.45 L-4.6 -3.05 -4.7 -6.45"/><path fill="#607a0d" stroke="none" d="M-13.75 5.05 L-16.2 4.9 -10.2 3.4 -11.1 1.1 -13.1 -0.05 -11.55 -0.55 -10.8 -0.6 -7.0 1.05 -6.95 1.05 Q-7.7 2.4 -7.75 3.55 L-7.75 4.3 -6.8 6.9 -5.75 7.95 -4.35 8.2 -6.2 9.75 -6.3 11.15 -7.3 12.5 -7.7 11.9 -9.65 13.15 -9.0 10.8 -5.75 7.95 -9.0 10.8 -14.05 10.35 -8.9 7.85 -9.5 5.65 -10.25 5.4 -13.75 5.05 M-10.25 5.4 L-7.75 4.3 -10.25 5.4"/><path fill="#98b814" stroke="none" d="M9.75 13.3 L10.85 14.6 6.55 14.6 4.0 13.95 4.0 10.85 5.0 9.45 9.75 13.3 M-6.65 18.1 L-7.4 19.65 -9.15 15.7 -9.65 13.15 -7.7 11.9 -7.3 12.5 -6.3 11.15 -6.2 11.9 -6.2 11.95 -5.4 13.8 -6.65 18.1"/><path fill="#657a0e" stroke="none" d="M6.55 14.6 L6.55 18.45 4.0 13.95 6.55 14.6 M-15.2 1.55 L-18.2 -0.7 -13.85 0.4 -15.2 1.55"/><path fill="none" stroke="#3d3928" stroke-width="0.5" stroke-opacity="0.501960784314" d="M1.05 -12.45 L1.75 -14.0 5.8 -7.1 6.35 -7.5 7.75 -8.55 8.0 -1.25 14.2 -1.9 15.85 -2.3 13.85 1.6 17.2 3.3 18.85 3.8 13.1 9.3 14.3 10.5 8.6 11.7 9.75 13.3 10.85 14.6 6.55 14.6 6.55 18.45 6.9 20.15 -0.4 16.9 -1.2 19.15 -4.65 15.0 -6.65 18.1 -7.4 19.65 -9.15 15.7 -14.0 18.3 -14.1 10.35 -16.45 10.55 -13.75 5.05 -16.2 4.9 -17.9 5.0 -15.2 1.55 -18.2 -0.7 -19.7 -1.45 -12.65 -5.25 -13.05 -5.9 -14.05 -7.3 Q-11.25 -6.95 -8.3 -7.4 L-5.3 -6.8 -4.7 -6.45 -4.5 -10.15 -4.65 -11.85 -1.15 -9.3 1.05 -12.45 M0.15 -8.0 L0.55 -7.3 1.05 -5.8 M2.25 -5.55 L2.4 -5.6 3.05 -5.9 5.8 -7.1 M2.25 -5.55 L1.15 -4.95 -0.05 -1.65 M1.15 -4.95 L1.05 -5.8 M13.85 1.6 L12.1 3.5 10.75 4.3 9.9 4.45 5.95 3.6 M10.6 5.5 L13.1 9.3 M6.2 7.9 L8.6 11.7 M7.65 0.25 L7.55 0.5 6.35 2.05 5.6 2.25 M10.6 5.5 L9.9 4.45 M4.0 13.95 L6.55 14.6 M3.1 6.95 L6.2 7.9 M7.65 0.25 L8.0 -1.25 M0.55 7.9 L2.15 12.5 2.2 12.5 2.95 13.15 4.0 13.95 M2.15 12.5 L-0.4 16.9 M-6.2 11.95 L-5.4 13.8 -4.65 15.0 M-10.8 -0.6 L-11.3 -1.7 -12.65 -5.25 M-13.1 -0.05 L-11.55 -0.55 -10.8 -0.6 -7.0 1.05 -6.95 1.05 M-4.35 8.2 L-6.2 9.75 -6.3 11.15 -6.2 11.9 -6.2 11.95 M-4.6 -3.05 L-4.7 -6.45 M-7.0 1.05 L-6.95 1.05 M-5.75 7.95 L-9.0 10.8 -9.65 13.15 -9.15 15.7 M-10.25 5.4 L-13.75 5.05 M-13.1 -0.05 L-13.85 0.4 -15.2 1.55 M-14.05 10.35 L-14.1 10.35 M-7.75 4.3 L-10.25 5.4 M-9.0 10.8 L-14.05 10.35 M0.15 -8.0 L-1.15 -9.3"/><path fill="#8d3814" stroke="none" d="M9.4 -0.2 L9.15 1.55 9.0 1.45 9.4 -0.2 M-8.9 3.55 L-9.15 3.7 -9.15 3.05 -8.9 3.55"/><path fill="#184a02" stroke="none" d="M9.0 1.45 L7.55 6.75 0.75 10.9 -7.4 8.25 -8.9 3.55 Q-5.8 -0.45 -2.05 -1.75 3.95 -5.25 9.0 1.45"/><path fill="none" stroke="#11141a" stroke-width="0.5" stroke-opacity="0.380392156863" d="M9.4 -0.2 L9.15 1.55 9.0 1.45 M-8.9 3.55 L-9.15 3.7 -9.15 3.05"/><path fill="none" stroke="#3d3928" stroke-width="0.5" stroke-opacity="0.501960784314" d="M9.0 1.45 L7.55 6.75 0.75 10.9 -7.4 8.25 -8.9 3.55"/><path fill="#8d3814" stroke="none" d="M11.05 -2.5 L10.6 -0.5 Q4.65 -8.3 -2.4 -4.25 -6.75 -2.7 -10.35 2.0 L-10.65 1.4 -10.2 -10.2 Q-5.8 0.75 -0.65 -19.55 1.05 -10.95 4.05 -9.85 6.85 -8.6 8.55 -8.95 10.6 -9.7 11.4 -11.1 L12.0 -9.25 11.05 -2.5"/><path fill="none" stroke="#11141a" stroke-width="0.5" stroke-opacity="0.380392156863" d="M10.6 -0.5 Q4.65 -8.3 -2.4 -4.25 -6.75 -2.7 -10.35 2.0 M-10.65 1.4 L-10.2 -10.2 Q-5.8 0.75 -0.65 -19.55 1.05 -10.95 4.05 -9.85 6.85 -8.6 8.55 -8.95 10.6 -9.7 11.4 -11.1 L12.0 -9.25 11.05 -2.5"/><path fill="none" stroke="#3d3928" stroke-width="0.5" stroke-opacity="0.501960784314" d="M11.05 -2.5 L10.6 -0.5 M-10.35 2.0 L-10.65 1.4"/><path fill="#5c7681" stroke="none" d="M2.6 -12.7 L2.45 -12.6 2.45 -12.85 Q2.45 -12.7 2.6 -12.7"/><path fill="none" stroke="#11141a" stroke-width="0.5" stroke-opacity="0.380392156863" d="M2.45 -12.85 Q2.45 -12.7 2.6 -12.7"/><path fill="#fbc904" stroke="none" d="M-3.45 12.8 L-4.05 12.6 Q-6.65 11.9 -8.5 10.1 L-10.05 8.4 Q-11.75 5.9 -11.5 2.85 L-11.35 1.2 Q-11.35 3.15 -10.15 5.0 -8.6 7.35 -6.45 8.9 L-4.1 10.0 -3.15 10.3 -3.45 12.8 M-11.4 0.65 L-11.45 0.6 -10.35 -1.4 -9.55 1.7 Q-7.7 2.8 -6.9 1.7 L-7.2 5.9 -11.4 0.65 M5.75 3.1 Q6.55 3.1 7.15 2.5 9.8 0.15 9.95 -6.1 L10.75 -6.75 Q11.05 1.4 8.55 3.05 L5.75 3.1"/><path fill="#c55c18" stroke="none" d="M11.55 -7.35 L12.0 -0.95 12.45 1.4 Q12.3 8.1 6.85 11.25 4.65 12.5 0.9 13.25 L-3.45 12.8 -3.15 10.3 Q3.15 10.3 7.6 7.0 12.0 3.7 12.0 -0.95 9.2 6.1 1.55 7.65 L-1.6 7.95 -1.6 -0.8 -4.55 0.45 -5.05 0.6 -3.95 -1.4 0.3 -4.4 Q0.3 -1.3 1.9 0.9 3.5 3.1 5.75 3.1 L8.55 3.05 Q11.05 1.4 10.75 -6.75 L11.55 -7.35 M-11.45 0.6 L-11.45 -6.1 -10.35 -6.9 -9.7 -2.85 -10.35 -1.4 -11.45 0.6"/><path fill="#5e1a1a" stroke="none" d="M-1.6 7.95 L1.55 7.65 Q9.2 6.1 12.0 -0.95 12.0 3.7 7.6 7.0 3.15 10.3 -3.15 10.3 L-4.1 10.0 -3.8 7.5 -1.6 7.95"/><path fill="#fdfd35" stroke="none" d="M-9.7 -2.85 Q-8.65 1.4 -7.05 1.55 L-6.3 1.55 -5.05 0.6 -4.55 0.45 -4.55 7.35 -6.15 6.85 -7.2 5.9 -6.9 1.7 Q-7.7 2.8 -9.55 1.7 L-10.35 -1.4 -9.7 -2.85"/><path fill="#ff0000" stroke="none" d="M-3.8 7.5 L-4.1 10.0 -6.45 8.9 -6.15 6.85 -4.55 7.35 -3.8 7.5"/><path fill="#cc0000" stroke="none" d="M-11.35 1.2 L-11.4 0.65 -7.2 5.9 -6.15 6.85 -6.45 8.9 Q-8.6 7.35 -10.15 5.0 -11.35 3.15 -11.35 1.2"/><path fill="#8d3814" stroke="none" d="M-1.6 7.95 L-3.8 7.5 -4.55 7.35 -4.55 0.45 -1.6 -0.8 -1.6 7.95"/><path fill="none" stroke="#11141a" stroke-width="0.5" stroke-opacity="0.380392156863" d="M11.55 -7.35 L12.0 -0.95 12.45 1.4 Q12.3 8.1 6.85 11.25 4.65 12.5 0.9 13.25 L-3.45 12.8 -4.05 12.6 Q-6.65 11.9 -8.5 10.1 L-10.05 8.4 Q-11.75 5.9 -11.5 2.85 L-11.35 1.2 -11.4 0.65 -11.45 0.6 -11.45 -6.1 M-10.35 -6.9 L-9.7 -2.85 Q-8.65 1.4 -7.05 1.55 L-6.3 1.55 -5.05 0.6 -3.95 -1.4 M0.3 -4.4 Q0.3 -1.3 1.9 0.9 3.5 3.1 5.75 3.1 6.55 3.1 7.15 2.5 9.8 0.15 9.95 -6.1 M-3.15 10.3 Q3.15 10.3 7.6 7.0 12.0 3.7 12.0 -0.95 9.2 6.1 1.55 7.65 L-1.6 7.95 -3.8 7.5 -4.55 7.35 M-4.1 10.0 L-3.15 10.3 M-7.2 5.9 L-6.15 6.85 -4.55 7.35 M-6.45 8.9 L-4.1 10.0 M-11.35 1.2 Q-11.35 3.15 -10.15 5.0 -8.6 7.35 -6.45 8.9 M-7.2 5.9 L-11.4 0.65"/><path fill="#5c7681" stroke="none" d="M6.25 -8.8 L6.05 -8.9 6.05 -9.05 6.25 -8.8 M-4.55 -18.1 L-4.75 -18.2 -4.75 -18.35 -4.55 -18.1 M-15.65 -8.9 L-15.85 -9.0 -15.85 -9.15 -15.65 -8.9 M-5.65 -2.5 L-5.85 -2.6 -5.8 -2.75 -5.65 -2.5"/><path fill="#fbc904" stroke="none" d="M9.75 -7.4 L7.6 -6.95 Q8.2 -5.95 9.5 -5.55 10.75 -5.3 11.85 -5.95 12.35 -6.2 12.9 -7.25 L13.35 -8.45 9.75 -7.4 M6.1 -8.7 L6.15 -9.65 Q6.4 -10.7 7.2 -11.4 8.65 -12.6 9.95 -12.55 11.25 -12.6 12.7 -11.4 14.15 -10.25 13.9 -8.2 L13.4 -6.95 12.75 -5.95 Q11.6 -4.85 10.1 -4.8 8.5 -4.8 7.35 -5.95 6.1 -7.1 6.1 -8.7"/><path fill="#c55c18" stroke="none" d="M9.75 -7.4 L13.35 -8.45 12.9 -7.25 Q12.35 -6.2 11.85 -5.95 10.75 -5.3 9.5 -5.55 8.2 -5.95 7.6 -6.95 L9.75 -7.4"/><path fill="none" stroke="#11141a" stroke-width="0.5" stroke-opacity="0.380392156863" d="M6.1 -8.7 Q6.1 -7.1 7.35 -5.95 8.5 -4.8 10.1 -4.8 11.6 -4.85 12.75 -5.95 L13.4 -6.95 13.9 -8.2 Q14.15 -10.25 12.7 -11.4 11.25 -12.6 9.95 -12.55 8.65 -12.6 7.2 -11.4 6.4 -10.7 6.15 -9.65 L6.1 -8.7"/><path fill="#fbc904" stroke="none" d="M2.05 -0.55 L1.35 0.55 Q0.1 1.7 -1.5 1.75 -3.1 1.8 -4.45 0.55 -5.4 -0.3 -5.65 -1.6 L-5.8 -2.75 Q-5.65 -4.15 -4.55 -5.25 -3.3 -6.55 -1.6 -6.55 0.05 -6.5 1.25 -5.3 2.5 -4.2 2.6 -2.7 L2.55 -1.85 2.05 -0.55 M1.85 -1.5 L2.0 -2.15 Q-1.1 -0.95 -4.1 -0.8 L-4.15 -0.6 Q-3.5 0.5 -2.1 0.9 -0.8 1.2 0.4 0.5 1.55 -0.15 1.85 -1.5"/><path fill="#c55c18" stroke="none" d="M1.85 -1.5 Q1.55 -0.15 0.4 0.5 -0.8 1.2 -2.1 0.9 -3.5 0.5 -4.15 -0.6 L-4.1 -0.8 Q-1.1 -0.95 2.0 -2.15 L1.85 -1.5"/><path fill="none" stroke="#11141a" stroke-width="0.5" stroke-opacity="0.380392156863" d="M2.05 -0.55 L1.35 0.55 Q0.1 1.7 -1.5 1.75 -3.1 1.8 -4.45 0.55 -5.4 -0.3 -5.65 -1.6 L-5.8 -2.75 Q-5.65 -4.15 -4.55 -5.25 -3.3 -6.55 -1.6 -6.55 0.05 -6.5 1.25 -5.3 2.5 -4.2 2.6 -2.7 L2.55 -1.85 2.05 -0.55"/><path fill="#c55c18" stroke="none" d="M2.45 -17.1 Q2.15 -15.85 1.05 -15.25 -0.05 -14.6 -1.3 -14.85 -2.6 -15.25 -3.2 -16.25 L-3.2 -16.5 Q-0.3 -16.6 2.55 -17.75 L2.45 -17.1"/><path fill="#fbc904" stroke="none" d="M1.95 -15.25 Q0.8 -14.15 -0.7 -14.1 -2.3 -14.1 -3.45 -15.25 -4.7 -16.4 -4.7 -18.0 L-4.55 -18.95 Q-4.25 -20.05 -3.6 -20.7 -2.3 -21.9 -0.85 -21.85 0.75 -21.9 1.9 -20.7 3.05 -19.7 3.1 -18.25 L3.15 -17.9 3.1 -17.5 2.6 -16.25 1.95 -15.25 M2.45 -17.1 L2.55 -17.75 Q-0.3 -16.6 -3.2 -16.5 L-3.2 -16.25 Q-2.6 -15.25 -1.3 -14.85 -0.05 -14.6 1.05 -15.25 2.15 -15.85 2.45 -17.1"/><path fill="none" stroke="#11141a" stroke-width="0.5" stroke-opacity="0.380392156863" d="M1.95 -15.25 Q0.8 -14.15 -0.7 -14.1 -2.3 -14.1 -3.45 -15.25 -4.7 -16.4 -4.7 -18.0 L-4.55 -18.95 Q-4.25 -20.05 -3.6 -20.7 -2.3 -21.9 -0.85 -21.85 0.75 -21.9 1.9 -20.7 3.05 -19.7 3.1 -18.25 L3.15 -17.9 3.1 -17.5 2.6 -16.25 1.95 -15.25"/><path fill="#c55c18" stroke="none" d="M-14.3 -7.05 L-14.3 -7.3 Q-11.4 -7.4 -8.55 -8.55 L-8.65 -7.9 Q-8.95 -6.65 -10.05 -6.05 -11.15 -5.4 -12.4 -5.65 -13.7 -6.05 -14.3 -7.05"/><path fill="#fbc904" stroke="none" d="M-15.8 -8.8 Q-15.9 -10.55 -14.7 -11.5 -13.15 -12.7 -11.95 -12.65 -10.35 -12.7 -9.2 -11.5 -8.05 -10.5 -8.0 -9.05 L-7.95 -8.7 -8.0 -8.3 -8.5 -7.05 -9.15 -6.05 Q-10.3 -4.95 -11.8 -4.9 -13.4 -4.9 -14.55 -6.05 -15.8 -7.2 -15.8 -8.8 M-14.3 -7.05 Q-13.7 -6.05 -12.4 -5.65 -11.15 -5.4 -10.05 -6.05 -8.95 -6.65 -8.65 -7.9 L-8.55 -8.55 Q-11.4 -7.4 -14.3 -7.3 L-14.3 -7.05"/><path fill="none" stroke="#11141a" stroke-width="0.5" stroke-opacity="0.380392156863" d="M-15.8 -8.8 Q-15.8 -7.2 -14.55 -6.05 -13.4 -4.9 -11.8 -4.9 -10.3 -4.95 -9.15 -6.05 L-8.5 -7.05 -8.0 -8.3 -7.95 -8.7 -8.0 -9.05 Q-8.05 -10.5 -9.2 -11.5 -10.35 -12.7 -11.95 -12.65 -13.15 -12.7 -14.7 -11.5 -15.9 -10.55 -15.8 -8.8"/></g><g id="c37"><g><use transform="matrix(2.66998291016,0.0,0.0,2.66998291016,2.05,10.65)" xlink:href="#c35"/></g><g><use transform="matrix(1.0,0.0,0.0,1.0,0.0,0.0)" xlink:href="#c36"/></g></g><g id="c38"><path fill="#d3bb76" stroke="none" d="M3.2 -7.15 L2.75 -6.75 Q1.5 -7.95 -1.35 -8.6 -5.8 -6.9 -6.5 -3.45 L-6.55 -3.2 Q-6.75 -2.1 -6.55 -0.8 L-5.05 0.8 Q-3.6 2.25 -0.45 3.0 3.2 3.05 5.25 1.6 7.4 3.5 4.8 6.1 L4.8 6.4 Q4.75 9.5 -0.6 10.55 -0.35 3.75 -4.95 1.65 -9.55 -0.5 -7.75 -3.05 -5.95 -5.65 -4.6 -10.55 -2.35 -8.65 2.45 -9.5 L3.2 -7.15"/><path fill="#cdc984" stroke="none" d="M-2.75 -10.4 L-2.8 -10.3 -2.75 -10.4"/><path fill="#fff9dc" stroke="none" d="M6.55 -11.5 Q8.1 -12.45 9.85 -13.0 L9.7 -12.6 Q8.35 -10.8 6.7 -9.75 L5.9 -9.55 Q5.3 -9.6 5.85 -10.45 L6.55 -11.5 M-12.85 0.3 L-13.6 0.2 Q-15.55 -0.15 -17.75 -1.05 -15.15 -1.85 -12.2 -1.6 L-11.2 -0.55 -12.85 0.3 M-16.0 -4.55 L-18.0 -6.0 Q-16.15 -5.9 -15.0 -5.25 -13.85 -4.25 -16.0 -4.55 M-14.65 -5.7 L-15.35 -6.75 Q-16.4 -8.6 -16.65 -11.05 L-16.35 -11.15 Q-12.9 -10.15 -10.6 -7.35 L-9.5 -3.1 -12.3 -4.85 -14.5 -5.65 -14.65 -5.7 M-9.55 -12.0 Q-10.05 -13.7 -10.15 -15.55 L-9.8 -15.3 Q-8.4 -13.55 -7.8 -11.65 -7.75 -11.1 -7.85 -10.8 -8.05 -10.3 -8.7 -11.0 L-9.55 -12.0 M-6.2 -10.15 Q-6.35 -14.45 -6.1 -16.55 L-5.75 -16.55 Q-4.65 -14.3 -4.15 -11.35 L-4.95 -10.15 -6.2 -10.15 M-2.3 -15.8 Q-2.05 -17.0 -1.4 -18.15 L-1.3 -17.85 Q-1.0 -16.3 -1.3 -15.05 -2.05 -13.6 -2.3 -15.8 M0.0 -15.75 Q1.5 -17.2 3.85 -18.1 3.95 -14.25 1.8 -11.3 L-2.05 -9.15 -1.0 -12.45 0.0 -15.75 M3.8 -10.2 Q2.5 -6.75 -1.7 -4.75 L0.65 -7.85 -0.8 -7.85 1.4 -9.95 3.8 -10.2 M-9.05 -9.0 Q-6.0 -6.85 -5.2 -2.25 L-7.6 -5.3 -8.0 -3.9 -9.4 -6.6 Q-9.5 -7.65 -9.05 -9.0"/><path fill="#e3d29a" stroke="none" d="M3.85 -18.1 Q4.65 -16.7 5.1 -15.0 L3.8 -10.2 4.05 -9.5 Q4.3 -7.75 2.95 -6.15 2.1 -5.0 0.35 -3.85 L-2.85 -4.75 -1.5 -6.9 -3.75 -6.55 -2.75 -10.4 -2.5 -13.4 -2.45 -14.7 -2.3 -15.8 Q-2.05 -13.6 -1.3 -15.05 -1.0 -16.3 -1.3 -17.85 -0.85 -16.45 -0.85 -14.8 L0.0 -15.75 -1.0 -12.45 -2.05 -9.15 1.8 -11.3 Q3.95 -14.25 3.85 -18.1 M5.8 -10.95 L6.55 -11.5 5.85 -10.45 Q5.3 -9.6 5.9 -9.55 L6.7 -9.75 Q8.35 -10.8 9.7 -12.6 8.65 -10.6 6.75 -8.85 L4.95 -7.25 Q4.4 -6.8 2.95 -6.15 4.3 -7.75 4.05 -9.5 L5.8 -10.95 M-2.8 -10.3 L-5.4 -8.1 -5.05 -6.85 -3.75 -4.0 -5.45 -1.1 -7.2 -2.95 -7.5 -0.7 -10.85 -2.65 -9.2 1.0 -12.85 0.3 -11.2 -0.55 -12.2 -1.6 Q-15.15 -1.85 -17.75 -1.05 -15.4 -3.9 -10.85 -2.65 L-15.0 -4.1 -16.0 -4.55 Q-13.85 -4.25 -15.0 -5.25 -16.15 -5.9 -18.0 -6.0 L-14.65 -5.7 -14.5 -5.65 -12.3 -4.85 -9.5 -3.1 -10.6 -7.35 Q-12.9 -10.15 -16.35 -11.15 L-13.35 -11.45 -9.05 -9.0 -8.25 -9.0 -9.25 -11.1 -9.55 -12.0 -8.7 -11.0 Q-8.05 -10.3 -7.85 -10.8 -7.75 -11.1 -7.8 -11.65 -8.4 -13.55 -9.8 -15.3 L-7.65 -12.45 -6.3 -10.4 -6.2 -10.15 -4.95 -10.15 -4.15 -11.35 Q-4.65 -14.3 -5.75 -16.55 L-5.25 -16.4 Q-2.8 -15.05 -2.8 -10.3 M-0.85 -14.8 L-1.0 -12.45 -0.85 -14.8 M1.4 -9.95 L-0.8 -7.85 0.65 -7.85 -1.7 -4.75 Q2.5 -6.75 3.8 -10.2 L1.4 -9.95 -0.75 -8.95 1.4 -9.95 M-9.4 -6.6 L-8.0 -3.9 -7.6 -5.3 -5.2 -2.25 Q-6.0 -6.85 -9.05 -9.0 -9.5 -7.65 -9.4 -6.6 L-9.0 -4.25 -9.4 -6.6 M-5.85 -7.8 L-5.9 -8.4 Q-6.95 -9.7 -7.55 -9.95 -8.15 -10.25 -8.25 -9.0 -6.85 -8.85 -5.85 -7.8 L-5.05 -6.85 -5.85 -7.8 M-5.4 -8.1 L-6.3 -10.4 -5.4 -8.1"/><path fill="#d3bb76" stroke="none" d="M5.1 -15.0 L5.8 -10.95 4.05 -9.5 3.8 -10.2 5.1 -15.0 M-17.75 -1.05 Q-16.7 -2.8 -15.0 -4.1 L-10.85 -2.65 Q-15.4 -3.9 -17.75 -1.05 M-13.35 -11.45 L-9.25 -11.1 -8.25 -9.0 -9.05 -9.0 -13.35 -11.45 M-5.25 -16.4 L-2.45 -14.7 -2.5 -13.4 -2.75 -10.4 -2.8 -10.3 Q-2.8 -15.05 -5.25 -16.4 M-8.25 -9.0 Q-8.15 -10.25 -7.55 -9.95 -6.95 -9.7 -5.9 -8.4 L-5.85 -7.8 Q-6.85 -8.85 -8.25 -9.0"/><path fill="none" stroke="#4f2d01" stroke-width="0.5" stroke-opacity="0.321568627451" d="M3.85 -18.1 Q4.65 -16.7 5.1 -15.0 L5.8 -10.95 6.55 -11.5 Q8.1 -12.45 9.85 -13.0 L9.7 -12.6 Q8.65 -10.6 6.75 -8.85 L4.95 -7.25 Q4.4 -6.8 2.95 -6.15 2.1 -5.0 0.35 -3.85 M-5.4 -8.1 L-5.05 -6.85 -3.75 -4.0 M-12.85 0.3 L-13.6 0.2 Q-15.55 -0.15 -17.75 -1.05 -16.7 -2.8 -15.0 -4.1 L-16.0 -4.55 -18.0 -6.0 -14.65 -5.7 -15.35 -6.75 Q-16.4 -8.6 -16.65 -11.05 L-16.35 -11.15 -13.35 -11.45 -9.25 -11.1 -9.55 -12.0 Q-10.05 -13.7 -10.15 -15.55 L-9.8 -15.3 -7.65 -12.45 -6.3 -10.4 -6.2 -10.15 Q-6.35 -14.45 -6.1 -16.55 L-5.75 -16.55 -5.25 -16.4 -2.45 -14.7 -2.3 -15.8 Q-2.05 -17.0 -1.4 -18.15 L-1.3 -17.85 Q-0.85 -16.45 -0.85 -14.8 L0.0 -15.75 Q1.5 -17.2 3.85 -18.1 M-2.05 -9.15 L-1.0 -12.45 -0.85 -14.8 M4.05 -9.5 L3.8 -10.2 1.4 -9.95 -0.75 -8.95 M4.05 -9.5 Q4.3 -7.75 2.95 -6.15 M4.05 -9.5 L5.8 -10.95 M-2.5 -13.4 L-2.45 -14.7 M-10.85 -2.65 L-15.0 -4.1 M-12.3 -4.85 L-14.5 -5.65 -14.65 -5.7 M-8.25 -9.0 L-9.05 -9.0 Q-9.5 -7.65 -9.4 -6.6 L-9.0 -4.25 M-5.85 -7.8 L-5.05 -6.85 M-8.25 -9.0 L-9.25 -11.1 M-6.3 -10.4 L-5.4 -8.1 M-5.85 -7.8 Q-6.85 -8.85 -8.25 -9.0"/><path fill="#b7cde0" stroke="none" d="M4.8 5.45 L7.65 3.6 1.15 0.15 3.95 -2.7 2.35 -4.5 8.5 -2.5 13.35 6.15 1.9 7.35 4.8 5.45 M-22.2 -11.05 L-20.4 -21.5 -15.6 -22.55 -15.6 -22.25 -14.0 -8.85 -15.5 -8.85 -17.55 -9.15 -19.45 -9.9 -22.2 -11.05"/><path fill="#fdfd35" stroke="none" d="M2.35 -4.5 L1.15 0.15 0.0 3.75 -0.35 3.35 -2.9 0.45 -0.9 -5.1 2.35 -4.5 M-7.95 -5.05 L-7.5 -6.25 -4.95 -4.25 -5.55 -2.5 -7.95 -5.05"/><path fill="#80909c" stroke="none" d="M2.35 -4.5 L3.95 -2.7 1.15 0.15 7.65 3.6 4.8 5.45 0.0 3.75 1.15 0.15 2.35 -4.5 M-5.45 -8.55 L-1.55 -5.2 -0.9 -5.1 -2.9 0.45 -4.2 -1.1 -1.7 -3.5 -4.3 -7.05 -5.45 -8.55"/><path fill="#5f6b75" stroke="none" d="M1.9 7.35 L13.35 6.15 13.4 8.85 2.5 11.45 1.95 9.75 1.9 7.35 M-6.0 20.3 L4.9 19.9 9.7 17.6 9.6 15.55 5.95 16.65 6.1 13.7 13.45 11.4 13.55 16.45 5.25 22.75 -7.4 22.9 -6.0 20.3"/><path fill="#485259" stroke="none" d="M4.8 5.45 L1.9 7.35 -2.6 5.85 -2.5 5.75 0.0 3.75 4.8 5.45 M13.4 8.85 L13.45 11.4 6.1 13.7 5.95 16.65 9.6 15.55 9.7 17.6 4.9 19.9 -6.0 20.3 -4.5 17.6 4.0 15.45 2.5 11.45 13.4 8.85 M-18.7 16.5 L-20.35 13.85 -21.2 6.0 -14.85 8.7 -9.5 10.95 -8.95 12.85 -6.7 14.65 -9.6 20.2 -17.45 15.75 -18.7 16.5 M-19.45 -9.9 L-17.55 -9.15 -16.5 -2.25 -18.8 -3.1 -19.45 -9.9 M-18.35 0.15 L-16.0 1.0 -15.55 3.95 -17.95 3.05 -18.35 0.15"/><path fill="#2d3338" stroke="none" d="M2.5 11.45 L4.0 15.45 -4.5 17.6 -6.0 20.3 -7.4 22.9 -7.75 23.5 -17.45 18.4 -18.7 16.5 -17.45 15.75 -9.6 20.2 -6.7 14.65 -1.0 12.35 -1.95 8.95 1.95 9.75 2.5 11.45"/><path fill="#5b6570" stroke="none" d="M1.9 7.35 L1.95 9.75 -1.95 8.95 -2.6 5.85 1.9 7.35 M-15.5 -8.85 L-14.0 -8.85 -11.5 -2.35 -13.15 -1.1 -15.5 -8.85 M-12.1 2.35 L-10.35 1.15 -9.2 4.7 -11.15 5.5 -12.1 2.35 M-8.4 -0.3 L-6.85 -1.5 -5.05 1.9 -7.05 3.25 -8.4 -0.3"/><path fill="#535e66" stroke="none" d="M-21.7 1.7 L-22.0 -1.1 -18.35 0.15 -17.95 3.05 -21.7 1.7 M-22.35 -4.35 L-22.2 -11.05 -19.45 -9.9 -18.8 -3.1 -22.35 -4.35 M-17.55 -9.15 L-15.5 -8.85 -13.15 -1.1 -16.5 -2.25 -17.55 -9.15 M-16.0 1.0 L-12.1 2.35 -11.15 5.5 -15.55 3.95 -16.0 1.0"/><path fill="#c55c18" stroke="none" d="M-21.55 3.0 L-21.7 1.7 -17.95 3.05 -17.7 5.0 -21.55 3.0 M-22.0 -1.1 L-22.35 -4.35 -18.8 -3.1 -18.35 0.15 -22.0 -1.1 M-13.15 -1.1 L-11.5 -2.35 -10.35 1.15 -12.1 2.35 -16.0 1.0 -16.5 -2.25 -13.15 -1.1 M-8.4 -0.3 L-9.0 -1.8 -7.4 -2.45 -6.85 -1.5 -8.4 -0.3 M-5.05 1.9 L-3.25 5.15 -7.25 9.6 -9.5 10.95 -14.85 8.7 -15.55 3.95 -11.15 5.5 -9.2 4.7 -8.15 7.85 -5.95 6.05 -7.05 3.25 -5.05 1.9"/><path fill="#66737d" stroke="none" d="M-15.6 -22.55 L-15.5 -22.55 -15.3 -22.25 -15.6 -22.25 -15.6 -22.55"/><path fill="#8698a5" stroke="none" d="M-15.3 -22.25 L-9.55 -13.0 -14.0 -8.85 -15.6 -22.25 -15.3 -22.25"/><path fill="#8d3814" stroke="none" d="M-21.2 6.0 L-21.55 3.0 -17.7 5.0 -17.95 3.05 -15.55 3.95 -14.85 8.7 -21.2 6.0 M-18.8 -3.1 L-16.5 -2.25 -16.0 1.0 -18.35 0.15 -18.8 -3.1"/><path fill="#687580" stroke="none" d="M-2.5 5.75 L-2.6 5.85 -1.95 8.95 -1.0 12.35 -6.7 14.65 -8.95 12.85 -9.5 10.95 -7.25 9.6 -2.5 5.75 M-14.0 -8.85 L-8.05 -5.15 -11.5 -2.35 -14.0 -8.85 M-6.85 -1.5 L-5.55 -2.5 -4.2 -1.1 -2.9 0.45 -5.05 1.9 -6.85 -1.5 M0.0 3.75 L-0.35 3.35 0.0 3.75 M-7.05 3.25 L-9.2 4.7 -10.35 1.15 -8.4 -0.3 -7.05 3.25"/><path fill="#fbc904" stroke="none" d="M-6.8 -9.75 L-5.45 -8.55 -4.3 -7.05 -4.95 -4.25 -7.5 -6.25 -6.8 -9.75 M0.0 3.75 L-2.5 5.75 -7.25 9.6 -3.25 5.15 -5.05 1.9 -2.9 0.45 -0.35 3.35 0.0 3.75 M-8.05 -5.15 L-7.95 -5.05 -5.55 -2.5 -6.85 -1.5 -7.4 -2.45 -9.0 -1.8 -8.4 -0.3 -10.35 1.15 -11.5 -2.35 -8.05 -5.15 M-7.05 3.25 L-5.95 6.05 -8.15 7.85 -9.2 4.7 -7.05 3.25"/><path fill="#a9becf" stroke="none" d="M-9.55 -13.0 L-8.7 -11.7 -6.8 -9.75 -7.5 -6.25 -7.95 -5.05 -8.05 -5.15 -14.0 -8.85 -9.55 -13.0 M-4.3 -7.05 L-1.7 -3.5 -4.2 -1.1 -5.55 -2.5 -4.95 -4.25 -4.3 -7.05"/><path fill="#505b64" stroke="none" d="M5.25 22.75 L-3.95 25.5 -7.75 23.5 -7.4 22.9 5.25 22.75"/><path fill="none" stroke="#000000" stroke-width="0.5" stroke-opacity="0.4" d="M13.35 6.15 L8.5 -2.5 2.35 -4.5 M13.45 11.4 L13.4 8.85 13.35 6.15 M13.45 11.4 L13.55 16.45 5.25 22.75 -3.95 25.5 -7.75 23.5 -17.45 18.4 -18.7 16.5 -20.35 13.85 -21.2 6.0 -21.55 3.0 -21.7 1.7 -22.0 -1.1 -22.35 -4.35 -22.2 -11.05 -20.4 -21.5 -15.6 -22.55 M-15.3 -22.25 L-9.55 -13.0 -8.7 -11.7 -6.8 -9.75 -5.45 -8.55 -1.55 -5.2 -0.9 -5.1 2.35 -4.5"/><path fill="none" stroke="#3d3928" stroke-width="0.5" stroke-opacity="0.501960784314" d="M-15.5 -22.55 L-15.3 -22.25 M-15.6 -22.55 L-15.6 -22.25 M-15.5 -8.85 L-14.0 -8.85"/><path fill="none" stroke="#000000" stroke-width="0.5" stroke-opacity="0.152941176471" d="M-8.05 -5.15 L-7.95 -5.05"/></g><g id="c39"><g><use transform="matrix(1.0,0.0,0.0,1.0,0.0,0.0)" xlink:href="#c38"/></g></g><g id="c40"><g><use transform="matrix(-3.23460388184,0.0,0.0,1.61730957031,-0.5,-12.8)" filter="url(#filter39)" xlink:href="#c11"/></g><g><use transform="matrix(-1.19999694824,0.0,0.0,1.19999694824,24.75,-53.8)" xlink:href="#c16"/></g><g><use transform="matrix(-1.47503662109,0.0,0.0,1.47503662109,19.1,-17.0)" xlink:href="#c18"/></g><g><use transform="matrix(-1.47503662109,0.0,0.0466766357422,1.47503662109,2.5,-24.7)" xlink:href="#c18"/></g><g><use transform="matrix(-1.47503662109,0.0,0.0,1.47503662109,-3.05,-8.0)" xlink:href="#c18"/></g><g><use transform="matrix(-1.47503662109,0.0,0.0466766357422,1.47503662109,-22.35,-16.6)" xlink:href="#c18"/></g><g><use transform="matrix(-1.55426025391,-0.288513183594,-0.288513183594,1.55426025391,7.8,-26.45)" xlink:href="#c20"/></g><g><use transform="matrix(-1.19999694824,0.0,0.0,1.19999694824,6.8,-20.95)" xlink:href="#c24"/></g><g><use transform="matrix(1.15910339355,-0.310577392578,0.310577392578,1.15910339355,-21.9,-64.05)" xlink:href="#c27"/></g><g><use transform="matrix(-0.996566772461,0.079345703125,0.079345703125,0.996566772461,3.5,-38.15)" xlink:href="#c29"/></g><g><use transform="matrix(-1.77006530762,0.177001953125,0.0,1.77006530762,7.1,-17.15)" xlink:href="#c33"/></g><g><use transform="matrix(0.822006225586,0.566757202148,-0.566757202148,0.822006225586,20.65,-50.7)" xlink:href="#c37"/></g><g><use transform="matrix(-1.19999694824,0.0,0.0,1.19999694824,-19.4,-29.4)" xlink:href="#c39"/></g></g><filter id="filter39"><feColorMatrix in="SourceGraphic" type="matrix" values="1.0 0.0 0.0 0.0 0.0 0.0 1.0 0.0 0.0 0.0 0.0 0.0 1.0 0.0 0.0 0.0 0.0 0.0 0.5 0.0" result="cxform"/><feComposite operator="in" in2="SourceGraphic" result="color-xform"/></filter><g id="c41"><g><use transform="matrix(1.0,0.0,0.0,1.0,6.3,53.35)" xlink:href="#c9"/></g><g><use transform="matrix(0.178726196289,-0.0478820800781,0.0478820800781,0.178726196289,27.75,82.5)" xlink:href="#c40"/></g><g><use transform="matrix(0.141098022461,-0.0378112792969,0.111373901367,0.225646972656,27.2,74.05)" filter="url(#filter54)" xlink:href="#c6"/></g></g><filter id="filter54"><feColorMatrix in="SourceGraphic" type="matrix" values="1.0 0.0 0.0 0.0 0.0 0.0 1.0 0.0 0.0 0.0 0.0 0.0 1.0 0.0 0.0 0.0 0.0 0.0 0.23046875 0.0" result="cxform"/><feComposite operator="in" in2="SourceGraphic" result="color-xform"/></filter></defs><g><g><use transform="matrix(1.0,0.0,0.0,1.0,0.0,0.0)" xlink:href="#c1"/></g><g><use transform="matrix(1.15496826172,0.0,0.0,1.15496826172,-1.4,-57.4)" xlink:href="#c41"/></g></g></svg>