<?xml version='1.0' encoding='UTF-8'?>
<svg xmlns:xlink="http://www.w3.org/1999/xlink" xmlns="http://www.w3.org/2000/svg" version="1.1" width="63px" height="66px" viewBox="-3.42655013441 -5.5890074925 63.4265501344 65.5890074925"><defs><g id="c1"><path fill="#000000" fill-opacity="0.00392156862745" d="M0.0 0.0 L60.0 0.0 60.0 60.0 0.0 60.0 0.0 0.0"/><path fill="none" stroke="#000000" stroke-width="1.0" stroke-opacity="0.301960784314" d="M3.45 20.1 L15.85 22.45 22.7 12.85 28.0 20.85 32.75 18.65 36.45 26.75 41.75 20.85 44.2 25.4 50.15 25.4"/></g><g id="c2"><path fill="#ffffff" stroke="none" d="M4.7 21.8 L14.7 23.8 20.5 15.85 25.05 22.45 29.0 20.55 32.0 27.3 36.5 22.45 38.55 26.3 46.15 26.3 50.05 30.85 50.05 49.65 7.5 49.65 3.9 22.15 4.7 21.8"/></g><g id="c3"><path fill="none" stroke="#000000" stroke-width="1.0" stroke-opacity="0.301960784314" d="M0.7 12.25 Q-0.45 9.75 0.75 8.25 1.2 7.6 2.15 7.15 2.8 6.7 3.8 6.35 L17.5 1.95 30.2 7.0 41.35 31.7 Q42.95 35.15 40.2 36.7 39.5 37.3 38.3 37.65 L25.5 41.8 25.45 41.75 24.55 42.0 11.85 37.0 0.7 12.25"/><path fill="#9d147b" stroke="none" d="M35.55 22.3 L31.5 13.2 29.75 9.2 16.95 4.25 5.5 7.85 Q1.65 9.1 3.35 12.8 L8.25 23.65 13.1 34.35 25.8 39.4 37.2 35.7 Q41.1 34.5 39.35 30.75 L35.55 22.3 M2.15 7.15 Q2.8 6.7 3.8 6.35 L17.5 1.95 30.2 7.0 41.35 31.7 Q42.95 35.15 40.2 36.7 L38.9 37.25 25.2 41.65 12.5 36.65 5.45 20.95 1.35 11.8 Q0.4 9.65 1.1 8.3 1.45 7.65 2.15 7.15"/><path fill="#c47fad" stroke="none" d="M31.5 13.2 L35.55 22.3 39.35 30.75 Q41.1 34.5 37.2 35.7 L25.8 39.4 13.1 34.35 8.25 23.65 3.35 12.8 Q1.65 9.1 5.5 7.85 L16.95 4.25 29.75 9.2 31.5 13.2 M18.5 7.45 L9.1 10.55 9.55 11.6 Q9.8 12.8 9.15 13.6 8.4 14.45 7.1 14.4 L6.8 14.4 6.95 14.6 15.2 32.75 23.85 36.2 34.0 32.9 33.7 32.1 Q33.45 30.9 34.1 30.1 34.75 29.3 35.95 29.35 L35.8 29.0 27.75 10.95 18.5 7.45"/><path fill="#fcf2cf" stroke="none" d="M27.75 10.95 L35.8 29.0 35.95 29.35 Q34.75 29.3 34.1 30.1 33.45 30.9 33.7 32.1 L34.0 32.9 23.85 36.2 15.2 32.75 6.95 14.6 6.8 14.4 7.1 14.4 Q8.4 14.45 9.15 13.6 9.8 12.8 9.55 11.6 L9.1 10.55 18.5 7.45 27.75 10.95"/><path fill="#630a4c" stroke="none" d="M0.75 8.25 Q1.2 7.6 2.15 7.15 1.45 7.65 1.1 8.3 L0.75 8.25 M11.55 36.25 L11.25 35.55 4.6 20.9 5.45 20.95 12.5 36.65 11.55 36.25"/><path fill="#300525" stroke="none" d="M4.6 20.9 L0.7 12.25 Q-0.45 9.75 0.75 8.25 L1.1 8.3 Q0.4 9.65 1.35 11.8 L5.45 20.95 4.6 20.9 M40.2 36.7 Q39.5 37.3 38.3 37.65 L25.5 41.8 25.45 41.75 24.55 42.0 11.85 37.0 11.55 36.25 12.5 36.65 25.2 41.65 38.9 37.25 40.2 36.7"/><path fill="none" stroke="#bf9900" stroke-width="1.0" stroke-opacity="0.749019607843" d="M31.5 13.2 L35.55 22.3 M13.1 34.35 L8.25 23.65"/><path fill="none" stroke="#ffcc00" stroke-width="1.0" stroke-opacity="0.749019607843" d="M35.55 22.3 L39.35 30.75 Q41.1 34.5 37.2 35.7 L25.8 39.4 M8.25 23.65 L3.35 12.8 Q1.65 9.1 5.5 7.85 L16.95 4.25 29.75 9.2 31.5 13.2"/><path fill="none" stroke="#f0b92b" stroke-width="0.5" d="M27.75 10.95 L35.8 29.0 35.95 29.35 Q34.75 29.3 34.1 30.1 33.45 30.9 33.7 32.1 L34.0 32.9 23.85 36.2 15.2 32.75 6.95 14.6 6.8 14.4 7.1 14.4 Q8.4 14.45 9.15 13.6 9.8 12.8 9.55 11.6 L9.1 10.55 18.5 7.45"/><path fill="none" stroke="#000000" stroke-width="0.5" stroke-opacity="0.301960784314" d="M4.6 20.9 L0.7 12.25 Q-0.45 9.75 0.75 8.25 1.2 7.6 2.15 7.15 2.8 6.7 3.8 6.35 L17.5 1.95 M30.2 7.0 L41.35 31.7 Q42.95 35.15 40.2 36.7 39.5 37.3 38.3 37.65 L25.5 41.8 M11.25 35.55 L4.6 20.9 M5.45 20.95 L1.35 11.8 Q0.4 9.65 1.1 8.3 1.45 7.65 2.15 7.15 M12.5 36.65 L5.45 20.95 M40.2 36.7 L38.9 37.25 25.2 41.65"/><path fill="none" stroke="#ffcc00" stroke-width="0.5" stroke-opacity="0.749019607843" d="M18.5 7.45 L27.75 10.95"/><path fill="none" stroke="#f0b92b" stroke-width="1.0" stroke-opacity="0.749019607843" d="M25.8 39.4 L13.1 34.35"/><path fill="none" stroke="#432f2f" stroke-width="0.5" d="M25.2 41.65 L12.5 36.65"/></g><g id="c4"><path fill="#7fdbfe" stroke="none" d="M10.75 4.9 Q10.75 4.6 10.9 4.35 11.25 3.45 11.95 2.75 13.3 1.5 14.35 2.1 15.4 2.7 14.95 4.45 14.7 5.4 14.1 6.15 L13.75 6.5 Q13.1 7.15 12.35 7.35 L11.4 7.2 Q10.95 6.9 10.75 6.4 10.5 5.75 10.75 4.9 M7.5 5.9 Q7.0 5.85 6.6 5.5 6.05 5.0 5.8 4.15 L5.7 3.6 Q5.55 2.65 5.8 1.7 6.25 0.0 7.5 0.0 L7.6 0.0 Q8.85 0.0 9.3 1.7 9.55 2.65 9.4 3.6 L9.3 4.15 8.5 5.5 7.6 5.9 7.5 5.9 M4.35 4.9 Q4.6 5.75 4.35 6.4 L3.7 7.2 2.75 7.35 Q2.0 7.15 1.35 6.5 L1.0 6.15 Q0.4 5.4 0.15 4.45 -0.3 2.7 0.75 2.1 1.8 1.5 3.15 2.75 3.85 3.45 4.2 4.35 L4.35 4.9 M5.5 13.7 Q4.45 13.9 3.65 12.95 2.75 12.0 3.2 10.25 3.7 8.5 5.25 7.6 6.4 6.9 7.55 7.0 8.75 6.9 9.9 7.6 11.45 8.5 11.95 10.25 12.35 12.0 11.5 12.95 10.7 13.9 9.65 13.7 8.55 13.5 7.55 12.6 6.55 13.5 5.5 13.7"/></g><g id="c5"><g><use transform="matrix(1.0,0.0,0.0,1.0,0.0,0.0)" xlink:href="#c4"/></g></g><radialGradient gradientUnits="userSpaceOnUse" r="819.2" cx="0" cy="0" spreadMethod="pad" gradientTransform="matrix(0.0914459228516,0.0,0.0,0.0914459228516,0.6,3.4)" id="gradient1"><stop offset="0.0" stop-color="#ffffff"/><stop offset="1.0" stop-color="#ffffff" stop-opacity="0.0"/></radialGradient><g id="c6"><path stroke="none" fill="url(#gradient1)" d="M36.65 -54.65 Q60.05 -42.0 69.75 -17.95 80.55 8.9 68.0 34.1 55.45 59.35 26.8 68.2 -1.8 77.05 -29.7 64.3 -57.6 51.6 -68.45 24.75 -79.3 -2.05 -66.75 -27.25 L-66.7 -27.3 Q-54.1 -52.5 -25.5 -61.4 3.1 -70.2 31.0 -57.5 L36.65 -54.65"/></g><g id="c7"><g><use transform="matrix(1.0,0.0,0.0,1.0,0.0,0.0)" xlink:href="#c6"/></g></g><radialGradient gradientUnits="userSpaceOnUse" r="819.2" cx="0" cy="0" spreadMethod="pad" gradientTransform="matrix(0.209197998047,0.0,0.0,0.177108764648,67.15,107.2)" id="gradient2"><stop offset="0.356862745098" stop-color="#ffffff"/><stop offset="0.670588235294" stop-opacity="0.0"/></radialGradient><g id="c8"><path fill="none" stroke-linejoin="round" stroke-linecap="round" stroke="url(#gradient2)" stroke-width="0.5" d="M136.55 165.8 L68.6 106.0 68.4 106.0 118.25 201.5 M68.2 105.7 L68.25 105.8 68.25 105.75 68.2 105.7 0.0 45.7 M68.25 105.8 L68.3 105.85 68.3 105.8 68.25 105.75 49.95 0.05 M0.05 97.7 L68.15 105.95 68.25 105.85 68.25 105.8 M68.3 105.85 L68.25 105.85 68.3 106.0 68.3 105.85 68.3 105.8 68.35 105.8 68.3 105.8 86.6 18.35 M50.0 193.2 L68.3 106.0 68.15 105.95 18.25 151.55 M68.4 106.0 L68.3 106.0 86.55 211.5 M68.4 106.0 L68.3 105.85 M68.6 106.0 L68.35 105.8 118.25 60.15 M136.6 114.25 L68.6 106.0 M68.2 105.7 L18.25 10.05"/></g><g id="c9"><g><use transform="matrix(1.0,0.0,0.0,1.0,0.0,0.0)" xlink:href="#c8"/></g></g><g id="c10"><g><use transform="matrix(1.0,0.0,0.0,1.0,0.0,0.0)" xlink:href="#c3"/></g><g><use transform="matrix(0.238861083984,-0.0867004394531,0.10026550293,0.233917236328,34.25,31.15)" xlink:href="#c5"/></g><g><use transform="matrix(0.238861083984,-0.0867004394531,0.10026550293,0.233917236328,4.25,10.3)" xlink:href="#c5"/></g><g><use transform="matrix(0.141098022461,-0.0378112792969,0.111373901367,0.225646972656,20.25,20.65)" filter="url(#filter7)" xlink:href="#c7"/></g><g><use transform="matrix(-0.155029296875,0.0513153076172,0.0841827392578,0.147033691406,22.6,3.15)" filter="url(#filter8)" xlink:href="#c9"/></g></g><filter id="filter7"><feColorMatrix in="SourceGraphic" type="matrix" values="0.0 0.0 0.0 0.0 0.796875 0.0 0.0 0.0 0.0 0.59765625 0.0 0.0 0.0 0.0 0.19921875 0.0 0.0 0.0 1.0 0.0" result="cxform"/><feComposite operator="in" in2="SourceGraphic" result="color-xform"/></filter><filter id="filter8"><feColorMatrix in="SourceGraphic" type="matrix" values="0.0 0.0 0.0 0.0 0.99609375 0.0 0.0 0.0 0.0 0.99609375 0.0 0.0 0.0 0.0 0.99609375 0.0 0.0 0.0 1.0 0.0" result="cxform"/><feComposite operator="in" in2="SourceGraphic" result="color-xform"/></filter><g id="c11"><path fill="#1b2c36" stroke="none" d="M16.65 18.75 Q18.55 17.25 21.4 16.55 L26.45 15.85 Q28.6 15.9 30.3 16.75 32.0 17.6 32.5 18.35 L33.15 19.35 33.2 20.85 Q33.0 21.5 32.2 20.95 32.95 22.4 31.95 22.65 L30.25 23.0 29.25 23.0 28.45 22.95 28.4 23.05 Q28.55 23.45 27.9 23.95 L26.5 24.6 Q25.7 24.75 24.6 24.3 23.4 23.9 23.55 23.35 22.85 24.6 22.15 24.9 L20.4 25.15 Q19.3 25.05 18.6 24.55 17.95 24.05 17.85 23.2 L16.05 23.0 Q14.95 22.65 15.45 21.15 16.0 19.6 16.65 18.75 M18.35 19.35 L22.05 19.45 Q19.65 21.25 19.15 23.85 21.5 21.9 24.1 20.3 27.0 20.95 29.95 22.0 28.55 19.7 25.7 18.75 L29.15 17.5 Q26.05 17.1 23.9 18.2 21.15 17.95 18.35 19.35 M14.85 25.75 L14.8 25.5 14.85 25.65 14.9 25.65 14.9 25.7 14.95 25.8 14.95 25.85 15.0 26.0 14.95 25.9 14.95 25.85 14.95 25.75 14.85 25.7 14.9 25.7 14.85 25.7 14.85 25.65 14.9 25.65 14.85 25.65 14.85 25.7 14.9 25.7 14.85 25.7 14.85 25.75 M14.9 25.7 L14.95 25.75 14.9 25.7 M14.95 25.8 L14.95 25.75 14.95 25.8"/><path fill="#192b35" stroke="none" d="M34.3 23.0 L34.25 23.1 33.7 23.85 Q33.45 24.7 31.7 24.25 31.4 29.4 29.45 24.7 29.25 28.85 27.5 27.05 L26.95 26.4 Q25.5 28.45 22.25 28.35 19.0 28.3 18.05 26.25 L18.0 26.4 Q16.4 30.15 15.0 26.0 L14.95 25.85 14.95 25.8 14.9 25.7 14.9 25.65 14.85 25.65 14.8 25.5 14.85 25.75 14.95 25.8 14.95 26.0 15.2 26.9 15.25 26.95 15.25 27.0 15.25 27.05 15.25 27.2 Q14.15 27.65 14.15 25.3 14.25 25.8 14.5 26.1 L14.6 26.1 14.65 24.05 14.75 24.05 15.35 25.55 Q15.85 26.65 16.7 26.5 17.1 26.45 17.3 26.2 L17.7 25.5 17.65 25.4 17.55 24.8 Q19.4 27.2 20.9 27.35 L23.25 27.45 Q24.15 27.45 25.25 26.8 L26.7 25.35 26.7 25.3 26.7 25.25 27.65 26.7 28.3 26.75 Q28.8 26.7 29.15 25.55 L29.35 24.35 30.75 26.1 31.2 24.65 31.35 23.1 32.1 23.45 33.05 23.7 Q33.8 23.55 34.3 23.0 M17.7 25.5 L18.0 26.4 17.7 25.5 M27.5 27.05 L27.05 26.05 26.7 25.3 27.05 26.05 27.5 27.05"/><path fill="#1f333f" stroke="none" d="M33.15 19.35 Q34.1 20.45 34.2 21.5 L34.3 23.0 Q33.8 23.55 33.05 23.7 L32.1 23.45 31.35 23.1 31.2 24.65 30.75 26.1 29.35 24.35 29.15 25.55 Q28.8 26.7 28.3 26.75 L27.65 26.7 26.7 25.25 26.7 25.3 26.7 25.25 26.7 25.3 26.7 25.35 25.25 26.8 Q24.15 27.45 23.25 27.45 L20.9 27.35 Q19.4 27.2 17.55 24.8 L17.65 25.4 17.7 25.5 17.3 26.2 Q17.1 26.45 16.7 26.5 15.85 26.65 15.35 25.55 L14.75 24.05 14.65 24.05 14.6 26.1 14.5 26.1 Q14.25 25.8 14.15 25.3 L14.1 24.35 Q14.25 21.0 16.25 19.1 L16.65 18.75 Q16.0 19.6 15.45 21.15 14.95 22.65 16.05 23.0 L17.85 23.2 Q17.95 24.05 18.6 24.55 19.3 25.05 20.4 25.15 L22.15 24.9 Q22.85 24.6 23.55 23.35 23.4 23.9 24.6 24.3 25.7 24.75 26.5 24.6 L27.9 23.95 Q28.55 23.45 28.4 23.05 L28.45 22.95 29.25 23.0 30.25 23.0 31.95 22.65 Q32.95 22.4 32.2 20.95 33.0 21.5 33.2 20.85 L33.15 19.35"/><path fill="#0e161c" stroke="none" d="M33.7 23.85 Q33.75 26.55 33.1 28.05 32.4 29.55 30.1 30.5 27.8 31.5 26.4 31.75 L22.75 32.2 Q20.4 32.35 18.1 31.05 16.25 30.05 15.25 27.05 L15.25 27.0 15.25 26.95 15.2 26.9 14.95 26.0 14.95 25.8 14.95 25.85 14.95 25.8 14.95 25.85 14.95 25.9 15.25 26.95 14.95 25.9 15.0 26.0 Q16.4 30.15 18.0 26.4 L18.05 26.25 Q19.0 28.3 22.25 28.35 25.5 28.45 26.95 26.4 L27.5 27.05 Q29.25 28.85 29.45 24.7 31.4 29.4 31.7 24.25 33.45 24.7 33.7 23.85 M18.2 26.9 L18.0 26.4 18.2 26.9 M14.85 25.7 L14.95 25.75 14.85 25.75 14.95 25.75 14.95 25.8 14.85 25.75 14.85 25.7"/><path fill="#33454b" stroke="none" d="M18.35 19.35 Q21.15 17.95 23.9 18.2 26.05 17.1 29.15 17.5 L25.7 18.75 Q28.55 19.7 29.95 22.0 27.0 20.95 24.1 20.3 21.5 21.9 19.15 23.85 19.65 21.25 22.05 19.45 L18.35 19.35"/><path fill="none" stroke="#000000" stroke-width="0.5" stroke-opacity="0.298039215686" d="M16.65 18.75 Q18.55 17.25 21.4 16.55 L26.45 15.85 Q28.6 15.9 30.3 16.75 32.0 17.6 32.5 18.35 L33.15 19.35 Q34.1 20.45 34.2 21.5 L34.3 23.0 34.25 23.1 33.7 23.85 Q33.75 26.55 33.1 28.05 32.4 29.55 30.1 30.5 27.8 31.5 26.4 31.75 L22.75 32.2 Q20.4 32.35 18.1 31.05 16.25 30.05 15.25 27.05 L15.25 27.2 Q14.15 27.65 14.15 25.3 L14.1 24.35 Q14.25 21.0 16.25 19.1 L16.65 18.75 M33.7 23.85 Q33.45 24.7 31.7 24.25 31.4 29.4 29.45 24.7 29.25 28.85 27.5 27.05 L26.95 26.4 Q25.5 28.45 22.25 28.35 19.0 28.3 18.05 26.25 L18.0 26.4 18.2 26.9 M14.75 24.05 L14.65 24.05 M14.6 26.1 L14.5 26.1 M14.85 25.75 L14.8 25.5 14.85 25.65 14.9 25.65 14.9 25.7 14.95 25.8 14.95 25.85 15.0 26.0 Q16.4 30.15 18.0 26.4 L17.7 25.5 17.65 25.4 17.55 24.8 M14.9 25.65 L14.85 25.65 14.85 25.7 14.9 25.7 14.85 25.7 14.95 25.75 14.9 25.7 M14.85 25.7 L14.85 25.75 14.95 25.75 14.95 25.8 14.95 26.0 15.2 26.9 15.25 26.95 14.95 25.9 15.0 26.0 14.95 25.9 14.95 25.85 14.95 25.8 14.95 25.85 14.95 25.75 14.95 25.8 14.85 25.75 M15.25 27.05 L15.25 27.0 15.25 26.95 M26.7 25.3 L26.7 25.25 26.7 25.3 27.05 26.05 27.5 27.05"/><path fill="none" stroke="#000000" stroke-width="0.5" stroke-opacity="0.298039215686" d="M18.35 19.35 L22.05 19.45 Q19.65 21.25 19.15 23.85 21.5 21.9 24.1 20.3 27.0 20.95 29.95 22.0 28.55 19.7 25.7 18.75 L29.15 17.5 Q26.05 17.1 23.9 18.2 21.15 17.95 18.35 19.35"/></g><g id="c12"><mask id="mask2"><use transform="matrix(1.0,0.0,0.0,1.0,0.0,0.0)" xlink:href="#c2"/></mask><g mask="url(#mask2)"><use transform="matrix(1.15496826172,0.0,0.0,1.15496826172,-0.8,-1.95)" xlink:href="#c10"/></g><g mask="url(#mask2)"><use transform="matrix(1.0,0.0,0.0,1.0,0.0,0.0)" xlink:href="#c11"/></g></g></defs><g><g><use transform="matrix(1.0,0.0,0.0,1.0,0.0,0.0)" xlink:href="#c1"/></g><g><use transform="matrix(1.19459533691,0.0,0.0,1.19459533691,-1.85,-5.95)" xlink:href="#c12"/></g></g></svg>