<?xml version="1.0" encoding="UTF-8" standalone="no"?>
<svg xmlns:xlink="http://www.w3.org/1999/xlink" height="180.0px" width="180.0px" xmlns="http://www.w3.org/2000/svg">
  <g transform="matrix(3.0, 0.0, 0.0, 3.0, 0.0, 0.0)">
    <path d="M60.0 0.0 L60.0 60.0 0.0 60.0 0.0 0.0 60.0 0.0" fill="#795fa9" fill-opacity="0.0" fill-rule="evenodd" stroke="none"/>
    <path d="M50.35 28.0 Q54.65 28.45 57.05 33.7 57.7 35.85 56.3 37.25 L56.4 38.35 56.4 38.45 56.55 39.3 56.55 39.7 Q56.55 42.9 53.7 45.5 L53.6 45.55 Q50.7 48.2 46.55 48.65 L45.6 48.75 42.8 50.2 40.5 51.05 37.95 51.7 35.2 52.15 33.75 52.3 33.6 52.9 33.55 52.9 36.3 53.5 Q35.0 54.65 33.3 55.1 L30.35 55.4 29.5 55.0 Q26.55 53.6 26.2 51.8 L24.5 51.35 Q22.15 50.65 20.15 49.45 L19.5 49.1 Q16.8 47.35 15.6 45.1 13.95 44.8 12.15 43.95 L11.7 43.75 Q7.35 41.4 5.5 36.9 4.75 35.15 4.45 33.4 3.85 30.2 4.4 26.85 5.3 21.7 8.8 19.2 9.8 18.7 10.75 18.45 14.85 17.3 17.6 21.1 L18.45 19.4 Q18.0 15.1 19.1 13.85 20.6 12.9 22.7 13.45 25.05 10.8 27.55 9.55 L28.25 9.25 Q30.95 8.1 33.85 8.45 L34.0 8.45 35.35 8.65 36.05 7.85 Q39.0 4.25 41.7 4.95 43.4 6.0 44.35 12.85 L44.9 13.35 45.3 13.75 Q50.0 18.2 49.9 24.0 49.85 26.1 49.2 27.95 L50.35 28.0 Z" fill="none" stroke="#000000" stroke-linecap="round" stroke-linejoin="round" stroke-opacity="0.29803923" stroke-width="1.0"/>
    <path d="M50.9 38.95 L43.9 30.4 47.25 28.2 50.35 28.0 Q48.55 29.55 52.15 31.6 54.35 33.65 50.9 38.95" fill="#58324b" fill-rule="evenodd" stroke="none"/>
    <path d="M50.35 28.0 Q54.65 28.45 57.05 33.7 57.8 36.3 55.65 37.75 L51.1 39.2 50.9 38.95 Q54.35 33.65 52.15 31.6 48.55 29.55 50.35 28.0" fill="#744660" fill-rule="evenodd" stroke="none"/>
    <path d="M50.9 38.95 L43.9 30.4 47.25 28.2 50.35 28.0 Q54.65 28.45 57.05 33.7 57.8 36.3 55.65 37.75 L51.1 39.2 50.9 38.95 Z" fill="none" stroke="#000000" stroke-linecap="round" stroke-linejoin="round" stroke-opacity="0.34901962" stroke-width="0.05"/>
    <path d="M17.95 36.9 Q24.2 33.75 32.95 33.75 41.65 33.75 47.75 36.9 53.9 40.0 53.8 44.45 53.7 48.85 47.45 52.0 41.25 55.1 32.5 55.1 23.8 55.1 17.65 52.0 11.55 48.85 11.65 44.45 11.75 40.0 17.95 36.9" fill="url(#gradient0)" fill-rule="evenodd" stroke="none"/>
    <path d="M4.45 33.4 Q3.85 30.2 4.4 26.85 5.3 21.7 8.8 19.2 9.8 18.7 10.75 18.45 17.35 16.6 20.4 27.6 L20.8 28.75 Q17.05 25.9 12.6 26.65 6.35 28.0 4.45 33.4" fill="#e5d029" fill-rule="evenodd" stroke="none"/>
    <path d="M20.8 28.75 L21.35 30.35 23.65 38.1 Q24.4 41.0 22.9 42.85 22.15 43.75 20.8 44.35 16.85 46.25 12.15 43.95 7.45 41.65 5.5 36.9 4.75 35.15 4.45 33.4 6.35 28.0 12.6 26.65 17.05 25.9 20.8 28.75" fill="url(#gradient1)" fill-rule="evenodd" stroke="none"/>
    <path d="M4.45 33.4 Q3.85 30.2 4.4 26.85 5.3 21.7 8.8 19.2 9.8 18.7 10.75 18.45 17.35 16.6 20.4 27.6 L20.8 28.75 21.35 30.35 23.65 38.1 Q24.4 41.0 22.9 42.85 22.15 43.75 20.8 44.35 16.85 46.25 12.15 43.95 7.45 41.65 5.5 36.9 4.75 35.15 4.45 33.4 Z" fill="none" stroke="#000000" stroke-linecap="round" stroke-linejoin="round" stroke-opacity="0.34901962" stroke-width="0.05"/>
    <path d="M24.5 51.35 Q24.5 49.85 23.65 48.8 22.85 47.75 21.7 47.75 20.55 47.75 19.7 48.8 L19.5 49.1 Q14.6 45.9 14.6 41.05 14.6 35.95 20.15 32.05 25.65 28.1 33.5 27.65 38.5 27.35 42.6 28.6 46.7 39.1 47.2 47.65 L46.85 47.9 42.8 50.2 42.85 49.35 Q42.85 47.85 42.05 46.8 41.3 45.9 40.35 45.8 L39.85 44.5 Q39.2 43.65 38.2 43.65 37.2 43.65 36.4 44.5 35.6 45.35 35.5 46.6 35.4 47.4 35.65 48.1 34.9 49.1 34.9 50.55 34.9 51.45 35.2 52.15 L33.5 52.3 Q28.5 52.6 24.5 51.35" fill="url(#gradient2)" fill-rule="evenodd" stroke="none"/>
    <path d="M19.5 49.1 L19.7 48.8 Q20.55 47.75 21.7 47.75 22.85 47.75 23.65 48.8 24.5 49.85 24.5 51.35 22.15 50.65 20.15 49.45 L19.5 49.1" fill="#bfa920" fill-rule="evenodd" stroke="none"/>
    <path d="M47.2 47.65 Q46.7 39.1 42.6 28.6 44.85 29.3 46.85 30.45 L47.2 30.7 50.25 33.2 Q52.35 35.7 52.35 38.85 52.35 40.9 51.5 42.75 50.25 45.4 47.2 47.65" fill="#724365" fill-rule="evenodd" stroke="none"/>
    <path d="M35.65 48.1 Q35.4 47.4 35.5 46.6 35.6 45.35 36.4 44.5 37.2 43.65 38.2 43.65 39.2 43.65 39.85 44.5 L40.35 45.8 40.35 46.6 Q40.25 47.45 39.8 48.15 L39.7 48.0 Q38.95 47.1 38.0 46.95 L37.7 46.95 Q36.55 46.95 35.75 48.0 L35.65 48.1" fill="url(#gradient3)" fill-rule="evenodd" stroke="none"/>
    <path d="M35.2 52.15 Q34.9 51.45 34.9 50.55 34.9 49.1 35.65 48.1 L35.75 48.0 Q36.55 46.95 37.7 46.95 L38.0 46.95 Q38.95 47.1 39.7 48.0 L39.8 48.15 Q40.5 49.15 40.5 50.55 L40.5 51.05 37.95 51.7 35.2 52.15" fill="url(#gradient4)" fill-rule="evenodd" stroke="none"/>
    <path d="M40.35 45.8 Q41.3 45.9 42.05 46.8 42.85 47.85 42.85 49.35 L42.8 50.2 40.5 51.05 40.5 50.55 Q40.5 49.15 39.8 48.15 40.25 47.45 40.35 46.6 L40.35 45.8" fill="url(#gradient5)" fill-rule="evenodd" stroke="none"/>
    <path d="M24.5 51.35 Q28.5 52.6 33.5 52.3 L35.2 52.15 37.95 51.7 40.5 51.05 42.8 50.2 46.85 47.9 47.2 47.65 Q50.25 45.4 51.5 42.75 52.35 40.9 52.35 38.85 52.35 35.7 50.25 33.2 L47.2 30.7 46.85 30.45 Q44.85 29.3 42.6 28.6 38.5 27.35 33.5 27.65 25.65 28.1 20.15 32.05 14.6 35.95 14.6 41.05 14.6 45.9 19.5 49.1 L20.15 49.45 Q22.15 50.65 24.5 51.35 Z" fill="none" stroke="#000000" stroke-linecap="round" stroke-linejoin="round" stroke-opacity="0.34901962" stroke-width="0.05"/>
    <path d="M36.2 36.0 Q39.7 35.65 42.2 36.65 44.7 37.7 44.7 39.6 44.7 41.45 42.2 43.0 39.7 44.6 36.2 45.0 32.65 45.35 30.15 44.3 27.65 43.25 27.65 41.4 27.65 39.55 30.15 37.95 32.65 36.4 36.2 36.0" fill="url(#gradient6)" fill-rule="evenodd" stroke="none"/>
    <path d="M27.75 37.45 L30.55 38.35 Q31.8 45.15 34.2 48.85 L22.05 48.5 27.5 38.6 27.75 37.45" fill="url(#gradient7)" fill-rule="evenodd" stroke="none"/>
    <path d="M44.7 25.3 Q48.8 28.45 48.7 32.0 48.6 35.55 44.45 37.55 40.3 39.5 34.1 39.15 27.95 38.8 23.6 36.6 19.3 34.4 19.3 31.1 19.3 27.75 24.1 23.85 28.9 20.0 34.75 21.1 40.6 22.15 44.7 25.3" fill="#c53e06" fill-rule="evenodd" stroke="none"/>
    <path d="M44.7 25.3 Q48.8 28.45 48.7 32.0 48.6 35.55 44.45 37.55 40.3 39.5 34.1 39.15 27.95 38.8 23.6 36.6 19.3 34.4 19.3 31.1 19.3 27.75 24.1 23.85 28.9 20.0 34.75 21.1 40.6 22.15 44.7 25.3 Z" fill="none" stroke="#000000" stroke-linecap="round" stroke-linejoin="round" stroke-opacity="0.34901962" stroke-width="0.05"/>
    <path d="M20.7 32.4 Q20.7 29.55 25.2 25.95 29.7 22.35 35.15 22.95 40.65 23.55 44.45 26.1 48.3 28.65 48.2 31.7 48.1 34.8 44.25 36.7 40.35 38.65 34.55 38.65 28.8 38.65 24.75 37.0 20.7 35.3 20.7 32.4" fill="#8b2a00" fill-rule="evenodd" stroke="none"/>
    <path d="M43.7 15.0 Q41.4 16.9 37.45 14.15 33.2 10.4 36.05 7.85 39.0 4.25 41.7 4.95 38.6 11.95 43.7 15.0" fill="#5f5d46" fill-rule="evenodd" stroke="none"/>
    <path d="M43.7 15.0 Q38.6 11.95 41.7 4.95 43.55 6.1 44.5 14.15 L43.7 15.0" fill="#b33a01" fill-rule="evenodd" stroke="none"/>
    <path d="M41.7 4.95 Q39.0 4.25 36.05 7.85 33.2 10.4 37.45 14.15 41.4 16.9 43.7 15.0 M41.7 4.95 Q43.55 6.1 44.5 14.15 L43.7 15.0" fill="none" stroke="#000000" stroke-linecap="round" stroke-linejoin="round" stroke-opacity="0.34901962" stroke-width="0.05"/>
    <path d="M28.25 9.25 Q30.95 8.1 33.85 8.45 L34.0 8.45 Q36.55 8.75 38.85 9.65 L34.5 9.2 30.55 9.7 Q30.05 9.0 28.25 9.25 M20.8 15.75 L21.6 14.75 Q24.45 11.1 27.55 9.55 28.6 9.6 29.35 10.05 24.8 11.6 20.8 15.75" fill="#faf6f3" fill-rule="evenodd" stroke="none"/>
    <path d="M38.85 9.65 Q42.2 10.9 44.9 13.35 L45.3 13.75 Q50.0 18.2 49.9 24.0 49.75 29.8 45.0 33.7 40.25 37.55 33.1 38.0 26.0 38.4 21.05 35.55 16.05 32.65 16.05 27.25 16.05 22.2 20.8 15.75 24.8 11.6 29.35 10.05 L29.85 10.45 Q29.75 13.4 30.65 14.05 L35.8 14.2 Q38.75 12.5 37.2 11.3 35.1 9.7 32.7 11.25 34.7 10.75 36.4 12.2 36.1 13.05 33.9 13.5 30.7 13.85 30.7 10.65 30.8 10.05 30.55 9.7 L34.5 9.2 38.85 9.65" fill="url(#gradient8)" fill-rule="evenodd" stroke="none"/>
    <path d="M30.55 9.7 Q30.8 10.05 30.7 10.65 30.7 13.85 33.9 13.5 36.1 13.05 36.4 12.2 34.7 10.75 32.7 11.25 35.1 9.7 37.2 11.3 38.75 12.5 35.8 14.2 L30.65 14.05 Q29.75 13.4 29.85 10.45 L29.35 10.05 30.55 9.7" fill="#a65e8c" fill-rule="evenodd" stroke="none"/>
    <path d="M27.55 9.55 L28.25 9.25 Q30.05 9.0 30.55 9.7 L29.35 10.05 Q28.6 9.6 27.55 9.55" fill="#bb97b1" fill-rule="evenodd" stroke="none"/>
    <path d="M28.25 9.25 Q30.95 8.1 33.85 8.45 L34.0 8.45 Q36.55 8.75 38.85 9.65 42.2 10.9 44.9 13.35 L45.3 13.75 Q50.0 18.2 49.9 24.0 49.75 29.8 45.0 33.7 40.25 37.55 33.1 38.0 26.0 38.4 21.05 35.55 16.05 32.65 16.05 27.25 16.05 22.2 20.8 15.75 L21.6 14.75 Q24.45 11.1 27.55 9.55 L28.25 9.25 Z" fill="none" stroke="#000000" stroke-linecap="round" stroke-linejoin="round" stroke-opacity="0.34901962" stroke-width="0.05"/>
    <path d="M33.55 52.9 L36.3 53.5 Q34.05 55.5 30.35 55.4 23.35 52.45 28.0 47.9 L30.5 47.05 30.75 46.95 Q27.15 49.9 28.25 51.55 29.65 53.3 33.55 52.9" fill="url(#gradient9)" fill-rule="evenodd" stroke="none"/>
    <path d="M30.75 46.95 Q35.5 45.35 33.55 52.9 29.65 53.3 28.25 51.55 27.15 49.9 30.75 46.95" fill="#f5e72e" fill-rule="evenodd" stroke="none"/>
    <path d="M33.55 52.9 L36.3 53.5 Q34.05 55.5 30.35 55.4 23.35 52.45 28.0 47.9 L30.5 47.05 30.75 46.95 Q35.5 45.35 33.55 52.9 Z" fill="none" stroke="#000000" stroke-linecap="round" stroke-linejoin="round" stroke-opacity="0.34901962" stroke-width="0.05"/>
    <path d="M31.4 47.2 L32.25 47.0 33.15 47.2 33.5 47.7 33.15 48.25 32.25 48.45 31.4 48.25 31.0 47.7 Q31.0 47.4 31.4 47.2" fill="#fefc2d" fill-rule="evenodd" stroke="none"/>
    <path d="M27.2 42.6 L29.8 41.6 Q32.2 44.65 32.4 46.7 L30.75 47.6 Q26.25 46.3 27.2 42.6" fill="#b8bcc8" fill-rule="evenodd" stroke="none"/>
    <path d="M30.75 47.6 Q29.15 48.35 27.3 48.65 25.65 47.55 25.65 43.05 L27.2 42.6 Q26.25 46.3 30.75 47.6" fill="#767793" fill-rule="evenodd" stroke="none"/>
    <path d="M27.2 42.6 L29.8 41.6 Q32.2 44.65 32.4 46.7 L30.75 47.6 Q29.15 48.35 27.3 48.65 25.65 47.55 25.65 43.05 L27.2 42.6 Z" fill="none" stroke="#000000" stroke-linecap="round" stroke-linejoin="round" stroke-opacity="0.34901962" stroke-width="0.05"/>
    <path d="M22.65 29.2 L22.55 28.4 Q24.85 30.4 29.8 41.6 28.7 43.0 27.15 43.2 24.3 37.4 22.65 29.2" fill="#b0bde0" fill-rule="evenodd" stroke="none"/>
    <path d="M27.15 43.2 L25.65 43.05 Q23.6 38.95 22.65 29.2 24.3 37.4 27.15 43.2" fill="#697aae" fill-rule="evenodd" stroke="none"/>
    <path d="M22.65 29.2 L22.55 28.4 Q24.85 30.4 29.8 41.6 28.7 43.0 27.15 43.2 L25.65 43.05 Q23.6 38.95 22.65 29.2 Z" fill="none" stroke="#000000" stroke-linecap="round" stroke-linejoin="round" stroke-opacity="0.34901962" stroke-width="0.05"/>
    <path d="M24.5 31.6 L24.45 32.15 Q24.25 32.25 23.9 31.95 L23.25 31.1 Q22.9 30.55 22.85 30.1 22.75 29.65 22.9 29.55 L23.45 29.75 24.1 30.6 24.5 31.6" fill="#e6f0ef" fill-rule="evenodd" stroke="none"/>
    <path d="M30.0 43.6 L29.55 43.8 Q29.25 43.8 29.1 43.6 L28.9 43.15 29.1 42.7 Q29.25 42.5 29.55 42.5 L30.0 42.7 30.2 43.15 30.0 43.6" fill="#e5e6ea" fill-rule="evenodd" stroke="none"/>
    <path d="M22.9 39.2 L23.1 39.35 24.9 40.65 Q21.15 42.4 22.2 47.05 19.95 46.65 17.55 44.45 16.85 43.5 16.8 42.35 16.75 40.3 18.65 37.55 20.1 37.35 22.9 39.2" fill="url(#gradient10)" fill-rule="evenodd" stroke="none"/>
    <path d="M24.9 40.65 Q28.9 43.9 26.85 45.8 24.65 47.45 22.2 47.05 21.15 42.4 24.9 40.65" fill="url(#gradient11)" fill-rule="evenodd" stroke="none"/>
    <path d="M22.9 39.2 L23.1 39.35 24.9 40.65 Q28.9 43.9 26.85 45.8 24.65 47.45 22.2 47.05 19.95 46.65 17.55 44.45 16.85 43.5 16.8 42.35 16.75 40.3 18.65 37.55" fill="none" stroke="#000000" stroke-linecap="round" stroke-linejoin="round" stroke-opacity="0.34901962" stroke-width="0.05"/>
    <path d="M24.0 45.0 L26.35 45.75" fill="none" stroke="#d53e05" stroke-linecap="round" stroke-linejoin="round" stroke-width="0.05"/>
    <path d="M25.9 42.8 L27.65 44.3" fill="none" stroke="#d53e05" stroke-linecap="round" stroke-linejoin="round" stroke-width="0.05"/>
    <path d="M19.35 38.75 L19.3 39.5 18.95 40.2 Q18.75 40.45 18.5 40.4 18.3 40.35 18.25 40.0 18.2 39.65 18.3 39.2 L18.65 38.55 Q18.9 38.3 19.1 38.35 L19.35 38.75" fill="#e196d7" fill-rule="evenodd" stroke="none"/>
    <path d="M23.25 23.75 Q21.45 22.1 21.9 16.85 22.25 14.1 26.4 16.5 27.3 17.05 27.35 18.8 L26.2 21.05 Q24.7 22.95 23.25 23.75" fill="#e04900" fill-rule="evenodd" stroke="none"/>
    <path d="M27.35 18.8 Q27.3 17.05 26.4 16.5 22.25 14.1 21.9 16.85 21.45 22.1 23.25 23.75 21.1 24.85 19.1 23.5 17.55 15.6 19.1 13.85 21.6 12.3 25.7 14.7 28.4 15.75 27.35 18.8" fill="url(#gradient12)" fill-rule="evenodd" stroke="none"/>
    <path d="M25.7 14.7 Q21.6 12.3 19.1 13.85 17.55 15.6 19.1 23.5" fill="none" stroke="#000000" stroke-linecap="round" stroke-linejoin="round" stroke-opacity="0.34901962" stroke-width="0.05"/>
    <path d="M20.05 16.7 L19.6 17.1 19.15 16.7 18.95 15.8 19.15 14.9 Q19.35 14.5 19.6 14.5 19.85 14.5 20.05 14.9 L20.2 15.8 20.05 16.7" fill="#cfa358" fill-rule="evenodd" stroke="none"/>
    <path d="M21.5 28.35 L20.75 29.1 20.0 29.0 Q19.7 28.7 19.65 28.1 L20.0 26.95 Q20.3 26.35 20.75 26.15 L21.5 26.25 21.8 27.15 21.5 28.35" fill="#fcf8f7" fill-rule="evenodd" stroke="none"/>
    <path d="M38.4 15.45 L40.2 18.4 Q39.95 19.65 39.2 19.6 L38.4 15.45" fill="#504e37" fill-rule="evenodd" stroke="none"/>
    <path d="M42.75 18.5 L43.45 14.4 44.1 17.7 Q43.5 19.1 42.75 18.5" fill="#504e37" fill-rule="evenodd" stroke="none"/>
    <path d="M33.9 27.7 Q31.5 27.95 29.9 30.2 30.95 26.25 33.8 26.0 36.6 25.9 37.5 29.4 36.15 27.6 33.9 27.7" fill="#504e37" fill-rule="evenodd" stroke="none"/>
    <path d="M42.75 26.75 Q42.15 21.6 43.65 20.55 45.1 19.5 45.85 21.6 44.9 21.25 44.25 21.9 43.15 23.85 42.75 26.75" fill="#504e37" fill-rule="evenodd" stroke="none"/>
    <path d="M37.85 31.8 L40.8 32.5 42.7 30.4" fill="none" stroke="#d53e05" stroke-linecap="round" stroke-linejoin="round" stroke-width="0.05"/>
    <path d="M40.6 29.3 L40.8 32.5" fill="none" stroke="#d53e05" stroke-linecap="round" stroke-linejoin="round" stroke-width="0.05"/>
    <path d="M40.85 30.2 Q38.35 29.65 39.15 28.8 39.8 28.05 41.65 27.85 42.35 28.3 40.85 30.2" fill="#e6b1a3" fill-rule="evenodd" stroke="none"/>
    <path d="M30.05 25.2 L26.7 22.3 30.15 23.65 Q30.7 24.8 30.05 25.2" fill="#504e37" fill-rule="evenodd" stroke="none"/>
    <path d="M32.95 19.05 L34.05 22.5 Q33.65 24.05 32.8 23.45 L32.95 19.05" fill="#504e37" fill-rule="evenodd" stroke="none"/>
    <path d="M45.2 36.85 Q46.65 34.05 48.65 34.05 50.55 33.3 52.95 34.55 56.55 36.45 56.55 39.7 56.55 42.95 53.6 45.55 50.7 48.2 46.55 48.65 42.4 49.15 39.45 47.2 36.55 45.3 36.85 42.45 37.15 39.65 40.75 38.9 43.25 38.35 45.2 36.85" fill="#896930" fill-rule="evenodd" stroke="none"/>
    <path d="M45.2 36.85 Q46.65 34.05 48.65 34.05 50.55 33.3 52.95 34.55 56.55 36.45 56.55 39.7 56.55 42.95 53.6 45.55 50.7 48.2 46.55 48.65 42.4 49.15 39.45 47.2 36.55 45.3 36.85 42.45 37.15 39.65 40.75 38.9 43.25 38.35 45.2 36.85 Z" fill="none" stroke="#000000" stroke-linecap="round" stroke-linejoin="round" stroke-opacity="0.34901962" stroke-width="0.05"/>
    <path d="M37.3 41.9 L37.3 41.05 Q37.6 38.3 41.05 37.55 43.5 37.05 45.4 35.6 46.8 32.85 48.75 32.7 50.6 32.15 52.9 33.35 56.4 35.2 56.4 38.35 L56.35 39.3 Q55.95 41.85 53.55 44.05 L51.8 45.35 Q50.4 46.2 48.85 46.65 L46.7 47.05 45.35 47.15 Q39.65 45.7 37.3 41.9" fill="url(#gradient13)" fill-rule="evenodd" stroke="none"/>
    <path d="M45.35 47.15 Q42.2 47.2 39.85 45.65 37.65 44.2 37.3 42.2 L37.3 41.9 Q39.65 45.7 45.35 47.15" fill="#f8ed6f" fill-rule="evenodd" stroke="none"/>
    <path d="M37.3 41.9 L37.3 41.05 Q37.6 38.3 41.05 37.55 43.5 37.05 45.4 35.6 46.8 32.85 48.75 32.7 50.6 32.15 52.9 33.35 56.4 35.2 56.4 38.35 L56.35 39.3 M37.3 42.2 L37.3 41.9 Z" fill="none" stroke="#000000" stroke-linecap="round" stroke-linejoin="round" stroke-opacity="0.34901962" stroke-width="0.05"/>
    <path d="M48.5 34.4 Q49.1 34.0 50.0 34.0 L51.5 34.4 Q52.15 34.8 52.15 35.4 52.15 35.95 51.5 36.35 L50.0 36.8 Q49.1 36.8 48.5 36.35 47.85 35.95 47.85 35.4 47.85 34.8 48.5 34.4" fill="#f1e9e6" fill-rule="evenodd" stroke="none"/>
    <path d="M48.5 34.4 Q49.1 34.0 50.0 34.0 L51.5 34.4 Q52.15 34.8 52.15 35.4 52.15 35.95 51.5 36.35 L50.0 36.8 Q49.1 36.8 48.5 36.35 47.85 35.95 47.85 35.4 47.85 34.8 48.5 34.4 Z" fill="none" stroke="#000000" stroke-linecap="round" stroke-linejoin="round" stroke-opacity="0.34901962" stroke-width="0.05"/>
    <path d="M43.45 37.75 L45.0 37.5 Q46.2 37.5 47.05 37.95 47.85 38.4 47.85 39.05 L47.7 39.6 Q46.45 38.1 43.45 37.75" fill="#f19100" fill-rule="evenodd" stroke="none"/>
    <path d="M47.7 39.6 L47.05 40.15 45.0 40.6 42.95 40.15 Q42.15 39.7 42.15 39.05 42.15 38.4 42.95 37.95 L43.45 37.75 Q46.45 38.1 47.7 39.6" fill="#d95e00" fill-rule="evenodd" stroke="none"/>
    <path d="M45.55 43.95 L44.95 44.4 42.95 44.85 40.9 44.4 Q40.1 43.95 40.1 43.3 40.1 42.7 40.9 42.25 L41.1 42.15 Q44.25 42.4 45.55 43.95" fill="#f3e32e" fill-rule="evenodd" stroke="none"/>
    <path d="M41.1 42.15 Q41.9 41.8 42.95 41.8 44.15 41.8 44.95 42.25 45.8 42.7 45.8 43.3 L45.55 43.95 Q44.25 42.4 41.1 42.15" fill="#f9fb38" fill-rule="evenodd" stroke="none"/>
    <path d="M53.4 42.25 L52.75 42.8 50.75 43.25 48.7 42.8 Q47.85 42.35 47.85 41.7 47.85 41.05 48.7 40.6 L48.85 40.5 Q52.05 40.75 53.4 42.25" fill="#b1bee1" fill-rule="evenodd" stroke="none"/>
    <path d="M48.85 40.5 Q49.65 40.15 50.75 40.15 51.95 40.15 52.75 40.6 53.6 41.05 53.6 41.7 L53.4 42.25 Q52.05 40.75 48.85 40.5" fill="#edf1f4" fill-rule="evenodd" stroke="none"/>
    <path d="M39.6 27.9 Q38.85 27.9 38.25 27.35 37.7 26.85 37.7 26.05 37.7 25.3 38.25 24.75 38.85 24.25 39.6 24.25 40.4 24.25 40.95 24.75 41.55 25.3 41.55 26.05 41.55 26.85 40.95 27.35 40.4 27.9 39.6 27.9" fill="#f3e32c" fill-rule="evenodd" stroke="none"/>
  </g>
  <defs>
    <radialGradient cx="0" cy="0" gradientTransform="matrix(0.0261, 0.0, -3.0E-4, 0.0132, 32.7, 44.4)" gradientUnits="userSpaceOnUse" id="gradient0" r="819.2" spreadMethod="pad">
      <stop offset="0.7294117647058823" stop-color="#000000" stop-opacity="0.29803923"/>
      <stop offset="1.0" stop-color="#000000" stop-opacity="0.0"/>
    </radialGradient>
    <radialGradient cx="0" cy="0" gradientTransform="matrix(0.0176, 0.0, 0.0, 0.0176, 4.9, 28.05)" gradientUnits="userSpaceOnUse" id="gradient1" r="819.2" spreadMethod="pad">
      <stop offset="0.5490196078431373" stop-color="#dcd3ce"/>
      <stop offset="1.0" stop-color="#a599a3"/>
    </radialGradient>
    <radialGradient cx="0" cy="0" gradientTransform="matrix(0.0245, -0.0014, 0.0, 0.0177, 33.45, 33.85)" gradientUnits="userSpaceOnUse" id="gradient2" r="819.2" spreadMethod="pad">
      <stop offset="0.9254901960784314" stop-color="#ac6494"/>
      <stop offset="1.0" stop-color="#724365"/>
    </radialGradient>
    <radialGradient cx="0" cy="0" gradientTransform="matrix(0.0245, -0.0014, 0.0, 0.0177, 33.45, 33.85)" gradientUnits="userSpaceOnUse" id="gradient3" r="819.2" spreadMethod="pad">
      <stop offset="0.9254901960784314" stop-color="#b5bae0"/>
      <stop offset="1.0" stop-color="#786ec4"/>
    </radialGradient>
    <radialGradient cx="0" cy="0" gradientTransform="matrix(0.0245, -0.0014, 0.0, 0.0177, 33.45, 33.85)" gradientUnits="userSpaceOnUse" id="gradient4" r="819.2" spreadMethod="pad">
      <stop offset="0.9254901960784314" stop-color="#bfa920"/>
      <stop offset="1.0" stop-color="#b6a322"/>
    </radialGradient>
    <radialGradient cx="0" cy="0" gradientTransform="matrix(0.0245, -0.0014, 0.0, 0.0177, 33.45, 33.85)" gradientUnits="userSpaceOnUse" id="gradient5" r="819.2" spreadMethod="pad">
      <stop offset="0.9254901960784314" stop-color="#c74a10"/>
      <stop offset="1.0" stop-color="#9b2e05"/>
    </radialGradient>
    <radialGradient cx="0" cy="0" gradientTransform="matrix(0.0085, -9.0E-4, 0.0, 0.0049, 36.15, 40.45)" gradientUnits="userSpaceOnUse" id="gradient6" r="819.2" spreadMethod="pad">
      <stop offset="0.4745098039215686" stop-color="#c875bb"/>
      <stop offset="1.0" stop-color="#c875bb" stop-opacity="0.0"/>
    </radialGradient>
    <radialGradient cx="0" cy="0" gradientTransform="matrix(0.0086, 0.0019, -0.0036, 0.0083, 27.5, 42.9)" gradientUnits="userSpaceOnUse" id="gradient7" r="819.2" spreadMethod="pad">
      <stop offset="0.5647058823529412" stop-color="#6e3e70"/>
      <stop offset="1.0" stop-color="#724365" stop-opacity="0.0"/>
    </radialGradient>
    <radialGradient cx="0" cy="0" gradientTransform="matrix(0.0225, -0.0013, 0.0, 0.019, 32.85, 20.45)" gradientUnits="userSpaceOnUse" id="gradient8" r="819.2" spreadMethod="pad">
      <stop offset="0.9254901960784314" stop-color="#e8dfd8"/>
      <stop offset="1.0" stop-color="#b3a8b0"/>
    </radialGradient>
    <radialGradient cx="0" cy="0" gradientTransform="matrix(0.0068, 0.0, 0.0, 0.0068, 27.0, 49.5)" gradientUnits="userSpaceOnUse" id="gradient9" r="819.2" spreadMethod="pad">
      <stop offset="0.4745098039215686" stop-color="#ac9921"/>
      <stop offset="1.0" stop-color="#cdb924"/>
    </radialGradient>
    <radialGradient cx="0" cy="0" gradientTransform="matrix(0.0074, 0.0, 0.0, 0.0074, 23.3, 39.75)" gradientUnits="userSpaceOnUse" id="gradient10" r="819.2" spreadMethod="pad">
      <stop offset="0.9254901960784314" stop-color="#ac6494"/>
      <stop offset="1.0" stop-color="#724365"/>
    </radialGradient>
    <radialGradient cx="0" cy="0" gradientTransform="matrix(0.0074, 0.0, 0.0, 0.0074, 23.3, 39.75)" gradientUnits="userSpaceOnUse" id="gradient11" r="819.2" spreadMethod="pad">
      <stop offset="0.9254901960784314" stop-color="#e8dfd8"/>
      <stop offset="1.0" stop-color="#a79ba5"/>
    </radialGradient>
    <radialGradient cx="0" cy="0" gradientTransform="matrix(0.0079, 0.0, 0.0, 0.0079, 24.8, 16.05)" gradientUnits="userSpaceOnUse" id="gradient12" r="819.2" spreadMethod="pad">
      <stop offset="0.6196078431372549" stop-color="#856848"/>
      <stop offset="1.0" stop-color="#656148"/>
    </radialGradient>
    <radialGradient cx="0" cy="0" gradientTransform="matrix(0.0121, 0.0, 0.0, 0.0121, 49.7, 33.65)" gradientUnits="userSpaceOnUse" id="gradient13" r="819.2" spreadMethod="pad">
      <stop offset="0.5764705882352941" stop-color="#ecce52"/>
      <stop offset="1.0" stop-color="#e1b645"/>
    </radialGradient>
  </defs>
</svg>
