<?xml version="1.0" encoding="UTF-8" standalone="no"?>
<svg xmlns:xlink="http://www.w3.org/1999/xlink" height="180.0px" width="180.0px" xmlns="http://www.w3.org/2000/svg">
  <g transform="matrix(3.0, 0.0, 0.0, 3.0, 0.0, 0.0)">
    <path d="M60.0 0.0 L60.0 60.0 0.0 60.0 0.0 0.0 60.0 0.0" fill="#795fa9" fill-opacity="0.0" fill-rule="evenodd" stroke="none"/>
    <path d="M53.3 33.5 Q56.4 34.0 52.4 37.5 L51.85 38.0 Q52.2 39.2 52.2 40.5 52.2 42.55 51.3 44.4 50.0 47.15 46.65 49.55 L44.0 51.15 Q39.35 53.6 33.3 53.95 26.25 54.35 21.05 51.7 L19.95 51.1 Q16.9 49.25 15.55 46.85 13.8 46.6 12.0 45.7 7.3 43.4 5.3 38.6 4.6 36.9 4.3 35.1 3.7 31.95 4.25 28.6 5.15 23.4 8.65 20.95 9.65 20.45 10.6 20.2 14.7 19.05 17.45 22.9 L18.35 21.15 Q17.9 16.75 18.95 15.5 19.9 14.95 21.05 14.9 L20.85 13.65 Q20.85 10.9 24.05 9.0 24.85 8.5 25.75 8.15 L26.05 6.85 Q27.35 3.6 32.6 2.25 32.4 3.1 32.45 3.85 32.5 5.3 33.65 6.0 37.2 5.5 38.1 7.35 39.9 6.0 41.65 6.45 43.35 7.5 44.3 14.4 L44.85 14.9 45.25 15.25 Q49.95 19.75 49.85 25.55 L49.8 26.75 50.6 26.75 Q55.1 27.2 53.3 33.5 Z" fill="none" stroke="#000000" stroke-linecap="round" stroke-linejoin="round" stroke-opacity="0.29803923" stroke-width="1.0"/>
    <path d="M52.35 37.5 L51.35 38.3 Q49.25 38.8 47.7 36.1 L46.05 27.3 Q48.8 26.6 50.55 26.75 49.0 31.05 52.35 37.5" fill="#756a7a" fill-rule="evenodd" stroke="none"/>
    <path d="M50.55 26.75 Q55.0 27.2 53.25 33.5 56.35 34.0 52.35 37.5 49.0 31.05 50.55 26.75 M53.25 33.5 L52.65 34.8 53.25 33.5" fill="#a296a2" fill-rule="evenodd" stroke="none"/>
    <path d="M52.35 37.5 L51.35 38.3 Q49.25 38.8 47.7 36.1 L46.05 27.3 Q48.8 26.6 50.55 26.75 55.0 27.2 53.25 33.5 56.35 34.0 52.35 37.5 M52.65 34.8 L53.25 33.5" fill="none" stroke="#000000" stroke-linecap="round" stroke-linejoin="round" stroke-opacity="0.34901962" stroke-width="0.05"/>
    <path d="M18.2 38.6 Q24.4 35.45 33.1 35.45 41.8 35.45 47.9 38.6 54.0 41.7 53.9 46.1 53.85 50.5 47.6 53.65 41.4 56.75 32.7 56.75 24.0 56.75 17.9 53.65 11.8 50.5 11.9 46.1 12.0 41.7 18.2 38.6" fill="url(#gradient0)" fill-rule="evenodd" stroke="none"/>
    <path d="M4.55 35.05 Q3.95 31.9 4.5 28.55 5.4 23.4 8.9 20.95 L10.8 20.15 Q17.4 18.35 20.45 29.3 L20.85 30.45 Q17.1 27.6 12.7 28.35 6.45 29.7 4.55 35.05" fill="#754322" fill-rule="evenodd" stroke="none"/>
    <path d="M20.85 30.45 L21.4 32.05 23.7 39.75 Q24.45 42.7 22.95 44.5 22.2 45.4 20.85 46.0 16.9 47.9 12.2 45.6 7.55 43.3 5.55 38.55 4.85 36.85 4.55 35.05 6.45 29.7 12.7 28.35 17.1 27.6 20.85 30.45" fill="url(#gradient1)" fill-rule="evenodd" stroke="none"/>
    <path d="M4.55 35.05 Q3.95 31.9 4.5 28.55 5.4 23.4 8.9 20.95 L10.8 20.15 Q17.4 18.35 20.45 29.3 L20.85 30.45 21.4 32.05 23.7 39.75 Q24.45 42.7 22.95 44.5 22.2 45.4 20.85 46.0 16.9 47.9 12.2 45.6 7.55 43.3 5.55 38.55 4.85 36.85 4.55 35.05 Z" fill="none" stroke="#000000" stroke-linecap="round" stroke-linejoin="round" stroke-opacity="0.34901962" stroke-width="0.05"/>
    <path d="M21.25 51.65 L20.15 51.05 Q14.65 47.75 14.65 42.65 14.65 37.55 20.15 33.65 25.7 29.7 33.5 29.25 41.3 28.8 46.8 32.05 48.9 33.3 50.2 34.8 52.3 37.3 52.3 40.45 52.3 42.5 51.45 44.35 50.1 47.1 46.8 49.45 L44.15 51.1 Q36.65 45.8 33.9 51.6 28.95 49.25 27.75 52.35 23.2 50.4 21.25 51.65 M47.0 41.9 Q46.1 41.65 45.25 42.4 44.4 43.1 44.05 44.4 43.75 45.65 44.1 46.7 44.5 47.75 45.35 48.0 46.25 48.2 47.1 47.5 48.0 46.75 48.3 45.5 48.65 44.25 48.25 43.2 47.9 42.15 47.0 41.9" fill="url(#gradient2)" fill-rule="evenodd" stroke="none"/>
    <path d="M47.0 41.9 Q47.9 42.15 48.25 43.2 48.65 44.25 48.3 45.5 48.0 46.75 47.1 47.5 46.25 48.2 45.35 48.0 44.5 47.75 44.1 46.7 43.75 45.65 44.05 44.4 44.4 43.1 45.25 42.4 46.1 41.65 47.0 41.9" fill="url(#gradient3)" fill-rule="evenodd" stroke="none"/>
    <path d="M44.15 51.1 Q39.5 53.5 33.5 53.85 26.45 54.25 21.25 51.65 23.2 50.4 27.75 52.35 28.95 49.25 33.9 51.6 36.65 45.8 44.15 51.1" fill="#542e19" fill-rule="evenodd" stroke="none"/>
    <path d="M21.25 51.65 L20.15 51.05 Q14.65 47.75 14.65 42.65 14.65 37.55 20.15 33.65 25.7 29.7 33.5 29.25 41.3 28.8 46.8 32.05 48.9 33.3 50.2 34.8 52.3 37.3 52.3 40.45 52.3 42.5 51.45 44.35 50.1 47.1 46.8 49.45 L44.15 51.1 Q39.5 53.5 33.5 53.85 26.45 54.25 21.25 51.65 Z" fill="none" stroke="#000000" stroke-linecap="round" stroke-linejoin="round" stroke-opacity="0.34901962" stroke-width="0.05"/>
    <path d="M44.55 26.25 Q48.65 29.35 48.55 32.9 48.45 36.4 44.3 38.35 40.2 40.35 34.0 40.0 27.8 39.7 23.5 37.5 19.2 35.35 19.2 32.05 19.2 28.75 24.0 24.9 28.8 21.05 34.65 22.05 40.45 23.1 44.55 26.25" fill="#cc9538" fill-rule="evenodd" stroke="none"/>
    <path d="M44.55 26.25 Q48.65 29.35 48.55 32.9 48.45 36.4 44.3 38.35 40.2 40.35 34.0 40.0 27.8 39.7 23.5 37.5 19.2 35.35 19.2 32.05 19.2 28.75 24.0 24.9 28.8 21.05 34.65 22.05 40.45 23.1 44.55 26.25 Z" fill="none" stroke="#000000" stroke-linecap="round" stroke-linejoin="round" stroke-opacity="0.34901962" stroke-width="0.05"/>
    <path d="M20.95 34.1 Q20.95 31.25 25.45 27.65 29.95 24.05 35.4 24.7 40.85 25.3 44.65 27.85 48.5 30.4 48.4 33.45 48.3 36.55 44.4 38.45 40.55 40.35 34.8 40.35 29.0 40.3 25.0 38.65 20.95 37.0 20.95 34.1" fill="#7e5329" fill-rule="evenodd" stroke="none"/>
    <path d="M43.8 16.55 Q41.55 18.4 37.6 15.65 33.35 11.95 36.15 9.4 39.1 5.8 41.8 6.45 38.75 13.5 43.8 16.55" fill="#413d34" fill-rule="evenodd" stroke="none"/>
    <path d="M43.8 16.55 Q38.75 13.5 41.8 6.45 43.65 7.65 44.65 15.65 L43.8 16.55" fill="#895530" fill-rule="evenodd" stroke="none"/>
    <path d="M41.8 6.45 Q39.1 5.8 36.15 9.4 33.35 11.95 37.6 15.65 41.55 18.4 43.8 16.55 M41.8 6.45 Q43.65 7.65 44.65 15.65 L43.8 16.55" fill="none" stroke="#000000" stroke-linecap="round" stroke-linejoin="round" stroke-opacity="0.34901962" stroke-width="0.05"/>
    <path d="M21.0 17.25 L21.75 16.25 Q27.3 9.15 34.0 9.95 L34.15 10.0 Q36.7 10.3 38.95 11.15 L34.6 10.7 Q27.1 10.85 21.0 17.25" fill="#faf6f3" fill-rule="evenodd" stroke="none"/>
    <path d="M38.95 11.15 Q42.3 12.4 45.0 14.9 L45.4 15.25 Q50.1 19.7 49.95 25.5 49.85 31.3 45.1 35.15 40.35 39.0 33.25 39.45 26.15 39.85 21.2 37.0 16.25 34.15 16.25 28.7 16.25 23.7 21.0 17.25 27.1 10.85 34.6 10.7 L38.95 11.15" fill="url(#gradient4)" fill-rule="evenodd" stroke="none"/>
    <path d="M21.0 17.25 L21.75 16.25 Q27.3 9.15 34.0 9.95 L34.15 10.0 Q36.7 10.3 38.95 11.15 42.3 12.4 45.0 14.9 L45.4 15.25 Q50.1 19.7 49.95 25.5 49.85 31.3 45.1 35.15 40.35 39.0 33.25 39.45 26.15 39.85 21.2 37.0 16.25 34.15 16.25 28.7 16.25 23.7 21.0 17.25 Z" fill="none" stroke="#000000" stroke-linecap="round" stroke-linejoin="round" stroke-opacity="0.34901962" stroke-width="0.05"/>
    <path d="M22.05 30.15 L21.3 30.9 20.55 30.8 Q20.25 30.5 20.2 29.9 L20.55 28.7 Q20.85 28.15 21.3 27.95 L22.05 28.05 Q22.35 28.35 22.35 28.95 L22.05 30.15" fill="#fcf8f7" fill-rule="evenodd" stroke="none"/>
    <path d="M38.55 17.05 L40.4 20.05 Q40.15 21.25 39.4 21.25 L38.55 17.05" fill="#504e37" fill-rule="evenodd" stroke="none"/>
    <path d="M42.9 20.15 L43.6 16.0 44.25 19.35 Q43.65 20.7 42.9 20.15" fill="#504e37" fill-rule="evenodd" stroke="none"/>
    <path d="M34.05 29.3 Q31.7 29.5 30.1 31.75 31.15 27.85 34.0 27.6 36.8 27.5 37.65 30.95 36.35 29.2 34.05 29.3" fill="#504e37" fill-rule="evenodd" stroke="none"/>
    <path d="M42.95 28.35 Q42.3 23.25 43.8 22.2 45.25 21.1 46.0 23.2 45.05 22.9 44.4 23.5 43.35 25.45 42.95 28.35" fill="#504e37" fill-rule="evenodd" stroke="none"/>
    <path d="M38.05 32.8 L41.0 33.5 42.9 31.4" fill="none" stroke="#d53e05" stroke-linecap="round" stroke-linejoin="round" stroke-width="0.05"/>
    <path d="M40.75 30.3 L41.0 33.5" fill="none" stroke="#d53e05" stroke-linecap="round" stroke-linejoin="round" stroke-width="0.05"/>
    <path d="M41.5 31.65 Q39.0 31.1 39.8 30.25 40.45 29.5 42.3 29.35 43.0 29.8 41.5 31.65" fill="#e6b1a3" fill-rule="evenodd" stroke="none"/>
    <path d="M30.25 26.8 L26.95 23.95 30.35 25.25 Q30.9 26.4 30.25 26.8" fill="#504e37" fill-rule="evenodd" stroke="none"/>
    <path d="M33.15 20.65 L34.25 24.1 Q33.85 25.65 33.0 25.05 L33.15 20.65" fill="#504e37" fill-rule="evenodd" stroke="none"/>
    <path d="M37.4 12.45 Q40.2 14.0 40.2 16.25 40.2 18.45 37.4 20.0 34.55 21.6 30.6 21.6 26.6 21.6 23.8 20.0 21.0 18.45 21.0 16.25 21.0 14.0 23.8 12.45 26.6 10.9 30.6 10.9 34.55 10.9 37.4 12.45" fill="#a0949e" fill-rule="evenodd" stroke="none"/>
    <path d="M22.85 41.4 Q28.0 46.0 22.25 48.85 15.5 51.05 18.9 46.8 9.4 45.6 18.3 37.7 L22.85 41.4" fill="url(#gradient5)" fill-rule="evenodd" stroke="none"/>
    <path d="M22.85 41.4 Q28.0 46.0 22.25 48.85 15.5 51.05 18.9 46.8 9.4 45.6 18.3 37.7" fill="none" stroke="#000000" stroke-linecap="round" stroke-linejoin="round" stroke-opacity="0.34901962" stroke-width="0.05"/>
    <path d="M42.0 44.95 L41.6 45.2 41.2 44.95 41.0 44.35 41.2 43.7 Q41.35 43.45 41.6 43.45 L42.0 43.7 42.2 44.35 42.0 44.95" fill="#9e4a25" fill-rule="evenodd" stroke="none"/>
    <path d="M32.5 47.4 Q32.95 47.4 33.3 47.8 33.6 48.15 33.6 48.65 L33.3 49.55 Q32.95 49.9 32.5 49.9 32.05 49.9 31.7 49.55 31.4 49.2 31.4 48.65 31.4 48.15 31.7 47.8 32.05 47.4 32.5 47.4" fill="#7a4420" fill-rule="evenodd" stroke="none"/>
    <path d="M36.7 7.8 Q38.15 8.25 39.35 9.0 42.55 10.95 42.55 13.65 L42.55 14.0 Q35.7 21.95 23.65 16.05 22.8 13.05 24.8 12.35 28.85 15.75 33.45 13.95 38.0 12.2 36.7 7.8" fill="url(#gradient6)" fill-rule="evenodd" stroke="none"/>
    <path d="M42.55 14.0 Q42.35 16.5 39.35 18.35 36.2 20.25 31.7 20.25 27.2 20.25 24.0 18.35 20.85 16.4 20.85 13.65 20.85 10.95 24.0 9.0 27.2 7.05 31.7 7.05 34.45 7.05 36.7 7.8 38.0 12.2 33.45 13.95 28.85 15.75 24.8 12.35 22.8 13.05 23.65 16.05 35.7 21.95 42.55 14.0" fill="#572e1c" fill-rule="evenodd" stroke="none"/>
    <path d="M36.7 7.8 Q38.15 8.25 39.35 9.0 42.55 10.95 42.55 13.65 L42.55 14.0 Q42.35 16.5 39.35 18.35 36.2 20.25 31.7 20.25 27.2 20.25 24.0 18.35 20.85 16.4 20.85 13.65 20.85 10.95 24.0 9.0 27.2 7.05 31.7 7.05 34.45 7.05 36.7 7.8 Z" fill="none" stroke="#000000" stroke-linecap="round" stroke-linejoin="round" stroke-opacity="0.34901962" stroke-width="0.05"/>
    <path d="M32.4 3.85 Q32.45 5.35 33.6 6.05 38.4 5.4 38.3 8.95 38.2 12.5 32.4 13.35 26.0 13.3 25.65 9.85 25.5 8.2 26.05 6.9 28.7 4.05 32.4 3.85" fill="url(#gradient7)" fill-rule="evenodd" stroke="none"/>
    <path d="M26.05 6.9 Q27.3 3.65 32.6 2.25 32.35 3.15 32.4 3.85 28.7 4.05 26.05 6.9" fill="#e46329" fill-rule="evenodd" stroke="none"/>
    <path d="M32.4 3.85 Q32.45 5.35 33.6 6.05 38.4 5.4 38.3 8.95 38.2 12.5 32.4 13.35 26.0 13.3 25.65 9.85 25.5 8.2 26.05 6.9 27.3 3.65 32.6 2.25 32.35 3.15 32.4 3.85 Z" fill="none" stroke="#000000" stroke-linecap="round" stroke-linejoin="round" stroke-opacity="0.34901962" stroke-width="0.05"/>
    <path d="M27.95 5.65 L28.5 4.75 Q28.9 4.35 29.35 4.2 L30.05 4.3 30.15 5.0 29.6 5.9 28.75 6.4 28.05 6.3 Q27.8 6.1 27.95 5.65" fill="#eb6a29" fill-rule="evenodd" stroke="none"/>
    <path d="M25.1 12.2 L25.2 12.55 25.05 13.2 24.6 13.7 24.2 13.75 24.1 13.4 Q24.05 13.05 24.25 12.75 L24.7 12.25 25.1 12.2" fill="#f16220" fill-rule="evenodd" stroke="none"/>
    <path d="M18.0 39.85 L17.8 40.55 17.25 41.15 16.75 41.2 Q16.55 41.05 16.6 40.75 16.65 40.4 16.85 40.0 L17.35 39.45 17.9 39.35 18.0 39.85" fill="#faf6f3" fill-rule="evenodd" stroke="none"/>
    <path d="M23.1 25.35 Q21.35 23.75 21.8 18.45 22.15 15.7 26.25 18.1 27.15 18.7 27.25 20.4 L26.1 22.7 Q24.55 24.6 23.1 25.35" fill="#d7a840" fill-rule="evenodd" stroke="none"/>
    <path d="M27.25 20.4 Q27.15 18.7 26.25 18.1 22.15 15.7 21.8 18.45 21.35 23.75 23.1 25.35 20.95 26.5 18.95 25.15 17.45 17.25 18.95 15.5 21.45 13.95 25.55 16.3 28.3 17.4 27.25 20.4" fill="url(#gradient8)" fill-rule="evenodd" stroke="none"/>
    <path d="M27.25 20.4 Q28.3 17.4 25.55 16.3 21.45 13.95 18.95 15.5 17.45 17.25 18.95 25.15" fill="none" stroke="#000000" stroke-linecap="round" stroke-linejoin="round" stroke-opacity="0.34901962" stroke-width="0.05"/>
    <path d="M19.95 18.5 L19.5 18.9 Q19.25 18.9 19.1 18.5 L18.9 17.6 19.1 16.7 Q19.25 16.3 19.5 16.3 L19.95 16.7 20.15 17.6 19.95 18.5" fill="#c5b869" fill-rule="evenodd" stroke="none"/>
  </g>
  <defs>
    <radialGradient cx="0" cy="0" gradientTransform="matrix(0.026, 0.0, -2.0E-4, 0.0132, 32.9, 46.1)" gradientUnits="userSpaceOnUse" id="gradient0" r="819.2" spreadMethod="pad">
      <stop offset="0.7294117647058823" stop-color="#000000" stop-opacity="0.29803923"/>
      <stop offset="1.0" stop-color="#000000" stop-opacity="0.0"/>
    </radialGradient>
    <radialGradient cx="0" cy="0" gradientTransform="matrix(0.0176, 0.0, 0.0, 0.0176, 5.0, 29.75)" gradientUnits="userSpaceOnUse" id="gradient1" r="819.2" spreadMethod="pad">
      <stop offset="0.5490196078431373" stop-color="#dcd3ce"/>
      <stop offset="1.0" stop-color="#a599a3"/>
    </radialGradient>
    <radialGradient cx="0" cy="0" gradientTransform="matrix(0.0245, -0.0014, 0.0, 0.0177, 33.45, 35.45)" gradientUnits="userSpaceOnUse" id="gradient2" r="819.2" spreadMethod="pad">
      <stop offset="0.9254901960784314" stop-color="#e8dfd8"/>
      <stop offset="1.0" stop-color="#a79ba5"/>
    </radialGradient>
    <radialGradient cx="0" cy="0" gradientTransform="matrix(0.0245, -0.0014, 0.0, 0.0177, 33.45, 35.45)" gradientUnits="userSpaceOnUse" id="gradient3" r="819.2" spreadMethod="pad">
      <stop offset="0.9254901960784314" stop-color="#a44d22"/>
      <stop offset="1.0" stop-color="#5b321c"/>
    </radialGradient>
    <radialGradient cx="0" cy="0" gradientTransform="matrix(0.0224, -0.0013, 0.0, 0.019, 33.0, 21.95)" gradientUnits="userSpaceOnUse" id="gradient4" r="819.2" spreadMethod="pad">
      <stop offset="0.9254901960784314" stop-color="#e8dfd8"/>
      <stop offset="1.0" stop-color="#b3a8b0"/>
    </radialGradient>
    <radialGradient cx="0" cy="0" gradientTransform="matrix(0.0091, 0.0053, -0.0038, 0.0067, 21.25, 41.25)" gradientUnits="userSpaceOnUse" id="gradient5" r="819.2" spreadMethod="pad">
      <stop offset="0.7803921568627451" stop-color="#e8dfd8"/>
      <stop offset="1.0" stop-color="#a79ba5"/>
    </radialGradient>
    <radialGradient cx="0" cy="0" gradientTransform="matrix(0.0115, 0.0, 0.0, 0.0109, 34.8, 11.4)" gradientUnits="userSpaceOnUse" id="gradient6" r="819.2" spreadMethod="pad">
      <stop offset="0.6196078431372549" stop-color="#aa4f20"/>
      <stop offset="1.0" stop-color="#804621"/>
    </radialGradient>
    <radialGradient cx="0" cy="0" gradientTransform="matrix(0.0098, 0.0, 0.0, 0.0098, 35.35, 9.25)" gradientUnits="userSpaceOnUse" id="gradient7" r="819.2" spreadMethod="pad">
      <stop offset="0.6196078431372549" stop-color="#aa4f20"/>
      <stop offset="1.0" stop-color="#844621"/>
    </radialGradient>
    <radialGradient cx="0" cy="0" gradientTransform="matrix(0.0079, 0.0, 0.0, 0.0079, 24.65, 17.7)" gradientUnits="userSpaceOnUse" id="gradient8" r="819.2" spreadMethod="pad">
      <stop offset="0.6196078431372549" stop-color="#79714a"/>
      <stop offset="1.0" stop-color="#656148"/>
    </radialGradient>
  </defs>
</svg>
