<?xml version="1.0" encoding="UTF-8" standalone="no"?>
<svg xmlns:xlink="http://www.w3.org/1999/xlink" height="180.0px" width="180.0px" xmlns="http://www.w3.org/2000/svg">
  <g transform="matrix(3.0, 0.0, 0.0, 3.0, 0.0, 0.0)">
    <path d="M60.0 0.0 L60.0 60.0 0.0 60.0 0.0 0.0 60.0 0.0" fill="#795fa9" fill-opacity="0.0" fill-rule="evenodd" stroke="none"/>
    <path d="M56.4 34.7 Q54.9 36.2 53.1 36.85 L52.45 37.05 52.6 38.8 52.5 40.2 51.75 42.7 Q50.4 45.5 47.1 47.85 45.5 49.0 43.75 49.85 L43.8 51.75 Q43.9 52.8 42.35 53.85 40.8 54.85 37.7 55.85 L36.6 56.2 36.55 56.2 Q29.85 56.25 25.35 54.6 L23.95 54.05 Q22.1 53.2 21.9 51.8 L21.85 51.6 21.75 50.2 20.4 49.45 Q17.3 47.6 15.95 45.2 14.1 44.95 12.15 44.0 L11.85 43.85 Q7.4 41.55 5.5 36.95 4.8 35.2 4.45 33.45 3.85 30.25 4.45 26.9 L5.15 24.15 Q5.7 22.7 6.55 21.55 7.5 20.2 8.85 19.25 9.85 18.75 10.75 18.5 14.3 17.5 16.8 20.15 L17.8 21.4 18.65 19.65 Q18.1 15.0 19.2 13.7 20.85 12.65 23.15 13.3 24.65 11.6 26.3 10.5 27.5 9.65 28.75 9.15 31.05 8.3 33.45 8.4 L34.1 8.5 34.25 8.5 35.2 8.65 35.55 8.7 36.3 7.8 Q39.25 4.2 41.95 4.9 43.65 5.95 44.6 12.95 L45.15 13.4 45.55 13.75 Q48.2 16.3 49.35 19.25 L49.4 19.25 51.05 19.4 Q54.3 19.55 56.6 22.0 L57.4 23.05 Q58.4 24.45 58.75 26.15 L58.95 27.3 58.95 28.35 Q58.95 30.45 58.1 32.25 L56.4 34.7 Z" fill="none" stroke="#000000" stroke-linecap="round" stroke-linejoin="round" stroke-opacity="0.29803923" stroke-width="1.0"/>
    <path d="M45.25 34.4 Q42.8 37.4 39.7 39.45 L35.15 32.25 35.4 32.2 Q41.3 35.55 45.25 34.4" fill="#786d7d" fill-rule="evenodd" stroke="none"/>
    <path d="M35.4 32.2 L43.7 30.55 45.95 33.5 45.25 34.4 Q41.3 35.55 35.4 32.2" fill="#9f929c" fill-rule="evenodd" stroke="none"/>
    <path d="M45.25 34.4 Q42.8 37.4 39.7 39.45 L35.15 32.25 35.4 32.2 43.7 30.55 45.95 33.5 45.25 34.4 Z" fill="none" stroke="#000000" stroke-linecap="round" stroke-linejoin="round" stroke-opacity="0.34901962" stroke-width="0.05"/>
    <path d="M44.75 21.9 L46.5 22.05 57.6 26.75 58.95 27.3 58.95 28.35 Q58.95 30.45 58.1 32.2 L42.25 26.65 Q42.75 24.0 44.65 22.0 L44.75 21.9 M46.5 22.05 Q45.85 21.75 45.2 21.5 47.55 19.4 50.7 19.4 54.2 19.4 56.6 22.0 L57.45 23.0 46.5 22.05 M42.6 31.6 L53.1 36.85 50.35 37.3 Q46.85 37.3 44.45 34.7 43.15 33.3 42.6 31.6" fill="#bd7334" fill-rule="evenodd" stroke="none"/>
    <path d="M46.5 22.05 L44.75 21.9 45.2 21.5 Q45.85 21.75 46.5 22.05" fill="#857a8b" fill-rule="evenodd" stroke="none"/>
    <path d="M42.25 26.65 L58.1 32.2 Q57.5 33.55 56.4 34.7 54.9 36.2 53.1 36.85 L42.6 31.6 Q42.05 30.1 42.1 28.35 42.1 27.45 42.25 26.65 M58.95 27.3 L57.6 26.75 57.35 23.75 Q58.2 24.65 58.75 26.15 L58.95 27.3" fill="#c58e3e" fill-rule="evenodd" stroke="none"/>
    <path d="M57.6 26.75 L46.5 22.05 57.45 23.0 Q58.4 24.45 58.75 26.15 58.2 24.65 57.35 23.75 L57.6 26.75" fill="#9e7131" fill-rule="evenodd" stroke="none"/>
    <path d="M44.75 21.9 L44.65 22.0 Q42.75 24.0 42.25 26.65 42.1 27.45 42.1 28.35 42.05 30.1 42.6 31.6 M58.1 32.2 Q58.95 30.45 58.95 28.35 L58.95 27.3 58.75 26.15 Q58.4 24.45 57.45 23.0 L56.6 22.0 Q54.2 19.4 50.7 19.4 47.55 19.4 45.2 21.5 L44.75 21.9 M53.1 36.85 Q54.9 36.2 56.4 34.7 57.5 33.55 58.1 32.2 M53.1 36.85 L50.35 37.3 Q46.85 37.3 44.45 34.7 43.15 33.3 42.6 31.6" fill="none" stroke="#000000" stroke-linecap="round" stroke-linejoin="round" stroke-opacity="0.34901962" stroke-width="0.05"/>
    <path d="M46.45 20.75 Q44.65 21.35 43.15 22.9 L42.4 23.8 Q41.4 25.15 40.95 26.7 41.25 25.0 42.1 23.6 42.6 22.65 43.4 21.85 44.65 20.55 46.15 19.9 47.65 19.25 49.45 19.25 L51.95 19.6 52.0 19.65 53.25 20.2 53.3 20.2 Q54.4 20.85 55.35 21.85 L56.15 22.85 Q57.3 24.5 57.6 26.55 L57.7 28.2 Q57.7 29.55 57.35 30.75 L57.5 29.25 57.2 26.65 Q56.7 24.8 55.5 23.3 L55.1 22.9 Q54.3 22.0 53.3 21.4 L51.6 20.6 49.2 20.25 Q47.75 20.25 46.45 20.75" fill="#fbfbfb" fill-rule="evenodd" stroke="none"/>
    <path d="M42.4 23.8 L43.15 22.9 Q44.65 21.35 46.45 20.75 L48.0 25.35 46.75 26.85 42.4 23.8 M51.6 20.6 L53.3 21.4 Q54.3 22.0 55.1 22.9 L55.5 23.3 51.9 25.85 50.1 25.05 51.6 20.6 M57.2 26.65 L57.5 29.25 57.35 30.75 56.9 32.0 51.95 29.6 51.8 27.65 57.2 26.65 M40.85 29.3 L46.35 28.65 47.55 30.2 43.05 34.4 Q41.1 32.2 40.85 29.3 M47.1 36.9 L48.85 31.5 50.75 31.05 52.55 36.45 Q50.95 37.15 49.1 37.15 L47.1 36.9" fill="#e27441" fill-rule="evenodd" stroke="none"/>
    <path d="M46.45 20.75 Q47.75 20.25 49.2 20.25 L51.6 20.6 50.1 25.05 51.9 25.85 55.5 23.3 Q56.7 24.8 57.2 26.65 L51.8 27.65 51.95 29.6 56.9 32.0 56.45 32.8 55.15 34.55 52.55 36.45 50.75 31.05 48.85 31.5 47.1 36.9 Q44.9 36.35 43.2 34.55 L43.05 34.4 47.55 30.2 46.35 28.65 40.85 29.3 40.85 28.2 40.95 26.7 Q41.4 25.15 42.4 23.8 L46.75 26.85 48.0 25.35 46.45 20.75" fill="#f2deae" fill-rule="evenodd" stroke="none"/>
    <path d="M53.3 20.2 L53.25 20.2 52.0 19.65 51.95 19.6 49.45 19.25 Q47.65 19.25 46.15 19.9 44.65 20.55 43.4 21.85 42.6 22.65 42.1 23.6 41.25 25.0 40.95 26.7 L40.85 28.2 40.85 29.3 Q41.1 32.2 43.05 34.4 L43.2 34.55 Q44.9 36.35 47.1 36.9 L49.1 37.15 Q50.95 37.15 52.55 36.45" fill="none" stroke="#000000" stroke-linecap="round" stroke-linejoin="round" stroke-opacity="0.34901962" stroke-width="0.05"/>
    <path d="M45.3 30.25 Q44.9 29.35 44.9 28.3 44.95 26.45 46.25 25.1 47.5 23.75 49.25 23.75 51.05 23.75 52.25 25.1 53.45 26.35 53.45 28.1 L52.65 26.85 Q51.4 25.55 49.65 25.55 47.85 25.55 46.6 26.85 45.3 28.2 45.3 30.05 L45.3 30.25" fill="#c58e3e" fill-rule="evenodd" stroke="none"/>
    <path d="M45.3 30.25 L45.3 30.05 Q45.3 28.2 46.6 26.85 47.85 25.55 49.65 25.55 51.4 25.55 52.65 26.85 L53.45 28.1 53.45 28.3 Q53.45 30.2 52.15 31.5 50.9 32.85 49.1 32.85 47.35 32.85 46.1 31.5 L45.3 30.25" fill="#f2deae" fill-rule="evenodd" stroke="none"/>
    <path d="M53.45 28.1 Q53.45 26.35 52.25 25.1 51.05 23.75 49.25 23.75 47.5 23.75 46.25 25.1 44.95 26.45 44.9 28.3 44.9 29.35 45.3 30.25 M53.45 28.1 L53.45 28.3 Q53.45 30.2 52.15 31.5 50.9 32.85 49.1 32.85 47.35 32.85 46.1 31.5 L45.3 30.25" fill="none" stroke="#000000" stroke-linecap="round" stroke-linejoin="round" stroke-opacity="0.34901962" stroke-width="0.05"/>
    <path d="M18.15 36.75 Q24.35 33.65 33.1 33.65 41.8 33.65 47.95 36.75 54.05 39.9 53.95 44.3 53.85 48.75 47.65 51.85 41.4 55.0 32.7 55.0 23.95 55.0 17.85 51.85 11.75 48.75 11.8 44.3 11.9 39.9 18.15 36.75" fill="url(#gradient0)" fill-rule="evenodd" stroke="none"/>
    <path d="M4.45 33.45 Q3.85 30.25 4.45 26.9 L5.15 24.15 Q5.7 22.7 6.55 21.55 7.5 20.2 8.85 19.25 9.85 18.75 10.75 18.5 14.3 17.5 16.8 20.15 19.0 22.5 20.4 27.65 L20.8 28.8 Q17.1 25.95 12.65 26.7 6.4 28.05 4.45 33.45" fill="#87d8d1" fill-rule="evenodd" stroke="none"/>
    <path d="M20.8 28.8 L21.4 30.4 23.7 38.15 Q24.4 41.05 22.9 42.85 22.15 43.8 20.85 44.4 16.85 46.3 12.15 44.0 7.45 41.7 5.5 36.95 4.8 35.2 4.45 33.45 6.4 28.05 12.65 26.7 17.1 25.95 20.8 28.8" fill="url(#gradient1)" fill-rule="evenodd" stroke="none"/>
    <path d="M4.45 33.45 Q3.85 30.25 4.45 26.9 L5.15 24.15 Q5.7 22.7 6.55 21.55 7.5 20.2 8.85 19.25 9.85 18.75 10.75 18.5 14.3 17.5 16.8 20.15 19.0 22.5 20.4 27.65 L20.8 28.8 21.4 30.4 23.7 38.15 Q24.4 41.05 22.9 42.85 22.15 43.8 20.85 44.4 16.85 46.3 12.15 44.0 7.45 41.7 5.5 36.95 4.8 35.2 4.45 33.45 Z" fill="none" stroke="#000000" stroke-linecap="round" stroke-linejoin="round" stroke-opacity="0.34901962" stroke-width="0.05"/>
    <path d="M14.85 41.05 Q14.85 35.9 20.4 32.0 25.9 28.05 33.75 27.6 41.55 27.15 47.1 30.4 49.2 31.65 50.5 33.15 52.6 35.65 52.6 38.8 52.6 40.85 51.75 42.7 50.4 45.5 47.1 47.85 41.55 51.8 33.75 52.25 25.9 52.7 20.4 49.45 14.85 46.15 14.85 41.05" fill="url(#gradient2)" fill-rule="evenodd" stroke="none"/>
    <path d="M14.85 41.05 Q14.85 35.9 20.4 32.0 25.9 28.05 33.75 27.6 41.55 27.15 47.1 30.4 49.2 31.65 50.5 33.15 52.6 35.65 52.6 38.8 52.6 40.85 51.75 42.7 50.4 45.5 47.1 47.85 41.55 51.8 33.75 52.25 25.9 52.7 20.4 49.45 14.85 46.15 14.85 41.05 Z" fill="none" stroke="#000000" stroke-linecap="round" stroke-linejoin="round" stroke-opacity="0.34901962" stroke-width="0.05"/>
    <path d="M44.85 25.6 Q48.95 28.75 48.85 32.3 48.7 35.85 44.6 37.8 40.45 39.75 34.25 39.4 28.05 39.05 23.75 36.9 19.45 34.75 19.45 31.4 19.45 28.1 24.25 24.2 29.05 20.35 34.9 21.4 40.75 22.5 44.85 25.6" fill="#da983a" fill-rule="evenodd" stroke="none"/>
    <path d="M44.85 25.6 Q48.95 28.75 48.85 32.3 48.7 35.85 44.6 37.8 40.45 39.75 34.25 39.4 28.05 39.05 23.75 36.9 19.45 34.75 19.45 31.4 19.45 28.1 24.25 24.2 29.05 20.35 34.9 21.4 40.75 22.5 44.85 25.6 Z" fill="none" stroke="#000000" stroke-linecap="round" stroke-linejoin="round" stroke-opacity="0.34901962" stroke-width="0.05"/>
    <path d="M21.0 32.55 Q21.0 29.65 25.5 26.1 30.0 22.45 35.45 23.1 40.9 23.75 44.75 26.25 48.6 28.75 48.5 31.85 48.4 34.9 44.5 36.85 40.65 38.75 34.85 38.75 29.05 38.75 25.05 37.1 21.0 35.45 21.0 32.55" fill="#8d5d2f" fill-rule="evenodd" stroke="none"/>
    <path d="M43.95 15.0 Q41.65 16.85 37.7 14.1 33.45 10.35 36.3 7.8 39.25 4.2 41.95 4.9 38.85 11.95 43.95 15.0" fill="#5f5d46" fill-rule="evenodd" stroke="none"/>
    <path d="M43.95 15.0 Q38.85 11.95 41.95 4.9 43.8 6.05 44.75 14.1 L43.95 15.0" fill="#79c1be" fill-rule="evenodd" stroke="none"/>
    <path d="M41.95 4.9 Q39.25 4.2 36.3 7.8 33.45 10.35 37.7 14.1 41.65 16.85 43.95 15.0 M41.95 4.9 Q43.8 6.05 44.75 14.1 L43.95 15.0" fill="none" stroke="#000000" stroke-linecap="round" stroke-linejoin="round" stroke-opacity="0.34901962" stroke-width="0.05"/>
    <path d="M39.1 9.7 Q42.45 10.95 45.15 13.4 L45.55 13.75 Q50.25 18.25 50.15 24.05 50.0 29.85 45.25 33.75 40.5 37.6 33.4 38.05 26.25 38.45 21.3 35.6 16.35 32.7 16.35 27.3 16.35 22.25 21.1 15.8 23.45 13.35 26.0 11.8 26.2 12.85 27.75 13.5 29.5 14.3 31.95 14.15 34.35 14.0 36.05 13.05 37.75 12.1 37.7 10.9 37.7 10.0 36.7 9.3 L39.1 9.7 M34.65 9.25 L34.7 9.6 Q34.75 10.25 33.8 10.75 32.9 11.3 31.6 11.35 L29.35 11.0 28.6 10.5 Q31.5 9.3 34.65 9.25" fill="url(#gradient3)" fill-rule="evenodd" stroke="none"/>
    <path d="M21.1 15.8 L21.85 14.8 Q24.0 12.05 26.3 10.5 27.5 9.65 28.75 9.15 31.05 8.3 33.45 8.4 L34.1 8.5 34.25 8.5 35.2 8.65 Q37.25 9.0 39.1 9.7 L36.7 9.3 34.75 9.25 34.65 9.25 Q31.5 9.3 28.6 10.5 27.25 11.05 26.0 11.8 23.45 13.35 21.1 15.8" fill="#faf6f3" fill-rule="evenodd" stroke="none"/>
    <path d="M36.7 9.3 Q37.7 10.0 37.7 10.9 37.75 12.1 36.05 13.05 34.35 14.0 31.95 14.15 29.5 14.3 27.75 13.5 26.2 12.85 26.0 11.8 27.25 11.05 28.6 10.5 L29.35 11.0 31.6 11.35 Q32.9 11.3 33.8 10.75 34.75 10.25 34.7 9.6 L34.65 9.25 34.75 9.25 36.7 9.3" fill="#a0e6dc" fill-rule="evenodd" stroke="none"/>
    <path d="M39.1 9.7 Q42.45 10.95 45.15 13.4 L45.55 13.75 Q50.25 18.25 50.15 24.05 50.0 29.85 45.25 33.75 40.5 37.6 33.4 38.05 26.25 38.45 21.3 35.6 16.35 32.7 16.35 27.3 16.35 22.25 21.1 15.8 L21.85 14.8 Q24.0 12.05 26.3 10.5 27.5 9.65 28.75 9.15 31.05 8.3 33.45 8.4 L34.1 8.5 34.25 8.5 35.2 8.65 Q37.25 9.0 39.1 9.7 Z" fill="none" stroke="#000000" stroke-linecap="round" stroke-linejoin="round" stroke-opacity="0.34901962" stroke-width="0.05"/>
    <path d="M36.1 47.25 L30.85 46.45 Q25.1 45.3 21.35 42.65 25.4 40.45 30.85 39.75 L31.05 39.75 Q40.9 40.95 45.3 43.05 43.3 45.55 36.1 47.25" fill="#8d5a1d" fill-rule="evenodd" stroke="none"/>
    <path d="M36.1 47.25 L30.85 46.45 Q25.1 45.3 21.35 42.65 25.4 40.45 30.85 39.75 L31.05 39.75 Q40.9 40.95 45.3 43.05 43.3 45.55 36.1 47.25 Z" fill="none" stroke="#000000" stroke-linecap="round" stroke-linejoin="round" stroke-opacity="0.34901962" stroke-width="0.05"/>
    <path d="M31.25 34.6 L31.75 34.3 31.85 34.25 Q33.05 33.6 34.55 33.6 L36.75 34.0 36.8 34.0 37.85 34.45 38.0 34.55 39.95 36.05 40.7 36.9 40.75 37.0 41.1 37.45 Q42.05 38.8 42.5 40.4 L42.55 40.45 42.7 41.15 42.75 41.4 42.85 41.95 42.95 43.2 42.9 43.0 42.8 42.2 42.6 41.45 42.6 41.4 42.55 41.35 Q42.0 39.4 40.6 37.75 L40.55 37.7 40.5 37.6 39.7 36.8 Q38.6 35.75 37.35 35.1 L36.75 34.85 36.15 34.6 36.1 34.6 33.6 34.2 31.25 34.6" fill="#fbfbfb" fill-rule="evenodd" stroke="none"/>
    <path d="M36.75 34.85 L37.35 35.1 Q38.6 35.75 39.7 36.8 L40.5 37.6 28.45 41.1 28.4 40.5 Q28.4 39.0 28.9 37.7 L28.95 37.65 29.55 36.4 36.75 34.85" fill="#8de0d6" fill-rule="evenodd" stroke="none"/>
    <path d="M31.25 34.6 L33.6 34.2 36.1 34.6 36.15 34.6 36.75 34.85 29.55 36.4 29.8 36.05 29.0 35.95 31.25 34.6 M40.5 37.6 L40.55 37.7 40.6 37.75 Q42.0 39.4 42.55 41.35 L42.6 41.4 42.6 41.45 28.95 43.9 28.7 42.95 28.5 41.95 28.45 41.1 40.5 37.6 M28.9 37.7 L28.95 37.65 28.9 37.7" fill="#e8dfd8" fill-rule="evenodd" stroke="none"/>
    <path d="M42.6 41.45 L42.8 42.2 42.9 43.0 42.95 43.2 42.9 44.3 42.65 45.45 42.45 46.15 32.85 49.0 31.4 47.8 31.3 47.65 Q29.65 46.0 28.95 43.9 L42.6 41.45" fill="#6096a0" fill-rule="evenodd" stroke="none"/>
    <path d="M32.85 49.0 L42.45 46.15 41.55 47.8 39.6 49.55 36.95 51.1 Q37.4 50.2 36.8 50.2 L35.05 50.0 Q33.9 49.7 32.85 49.0" fill="#9f939d" fill-rule="evenodd" stroke="none"/>
    <path d="M40.7 36.9 L39.95 36.05 38.0 34.55 37.85 34.45 36.8 34.0 36.75 34.0 34.55 33.6 Q33.05 33.6 31.85 34.25 L31.75 34.3 31.25 34.6 M42.95 43.2 L42.85 41.95 42.75 41.4 42.7 41.15 42.55 40.45 42.5 40.4 Q42.05 38.8 41.1 37.45 L40.75 37.0 40.7 36.9 M28.9 37.7 Q28.4 39.0 28.4 40.5 L28.45 41.1 28.5 41.95 28.7 42.95 28.95 43.9 Q29.65 46.0 31.3 47.65 L31.4 47.8 32.85 49.0 Q33.9 49.7 35.05 50.0 L36.8 50.2 Q37.4 50.2 36.95 51.1 L39.6 49.55 41.55 47.8 42.45 46.15 42.65 45.45 42.9 44.3 42.95 43.2 M28.9 37.7 L28.95 37.65 29.55 36.4 29.8 36.05 29.0 35.95 31.25 34.6" fill="none" stroke="#000000" stroke-linecap="round" stroke-linejoin="round" stroke-opacity="0.34901962" stroke-width="0.05"/>
    <path d="M29.35 35.65 L29.45 35.6 Q30.65 35.0 32.1 35.0 L34.3 35.35 34.4 35.4 33.5 40.35 35.15 41.1 38.3 38.3 38.35 38.35 Q39.55 39.9 40.1 41.8 L35.3 42.8 35.7 44.6 40.25 46.8 39.1 49.15 Q38.3 50.3 37.2 50.9 L34.9 45.95 33.35 46.35 32.6 51.4 Q30.65 50.85 29.0 49.15 L28.85 49.05 32.05 45.15 30.85 43.7 26.25 44.3 26.1 43.3 26.0 41.9 Q26.0 40.35 26.5 39.05 L30.9 42.05 31.75 40.65 29.35 35.65" fill="#9f939d" fill-rule="evenodd" stroke="none"/>
    <path d="M29.35 35.65 L31.75 40.65 30.9 42.05 26.5 39.05 27.4 37.45 Q28.2 36.3 29.35 35.65 M26.25 44.3 L30.85 43.7 32.05 45.15 28.85 49.05 Q26.9 47.0 26.25 44.3 M32.6 51.4 L33.35 46.35 34.9 45.95 37.2 50.9 Q35.95 51.6 34.4 51.6 L32.6 51.4 M40.25 46.8 L35.7 44.6 35.3 42.8 40.1 41.8 40.3 42.55 40.4 43.3 40.45 45.65 40.25 46.8 M38.3 38.3 L35.15 41.1 33.5 40.35 34.4 35.4 35.45 35.85 37.5 37.45 38.3 38.3" fill="#6096a0" fill-rule="evenodd" stroke="none"/>
    <path d="M26.5 39.05 Q26.0 40.35 26.0 41.9 L26.1 43.3 26.25 44.3 Q26.9 47.0 28.85 49.05 L29.0 49.15 Q30.65 50.85 32.6 51.4 L34.4 51.6 Q35.95 51.6 37.2 50.9 M26.5 39.05 L27.4 37.45 Q28.2 36.3 29.35 35.65" fill="none" stroke="#000000" stroke-linecap="round" stroke-linejoin="round" stroke-opacity="0.34901962" stroke-width="0.05"/>
    <path d="M28.8 40.45 L29.35 39.5 Q29.9 38.85 30.55 38.45 L30.6 38.45 Q31.3 38.05 32.2 38.05 L33.45 38.3 33.5 38.3 34.15 38.6 Q34.8 38.9 35.35 39.5 L35.8 40.0 35.85 40.05 Q36.5 40.95 36.8 42.1 L36.85 42.1 36.9 42.55 37.0 43.0 37.0 44.4 36.85 45.1 36.15 46.5 34.95 47.5 Q34.25 47.9 33.3 47.9 L32.2 47.8 Q31.1 47.5 30.1 46.5 L30.05 46.4 Q28.95 45.2 28.6 43.6 L28.5 43.0 28.45 42.15 Q28.5 41.25 28.8 40.5 L28.8 40.45 28.8 40.5 28.8 40.45" fill="#9f939d" fill-rule="evenodd" stroke="none"/>
    <path d="M35.8 40.0 L35.35 39.5 Q34.8 38.9 34.15 38.6 L33.5 38.3 33.45 38.3 32.2 38.05 Q31.3 38.05 30.6 38.45 L30.55 38.45 Q29.9 38.85 29.35 39.5 L28.8 40.45 28.8 40.5 Q28.5 41.25 28.45 42.15 L28.5 43.0 28.6 43.6 Q28.95 45.2 30.05 46.4 L30.1 46.5 Q31.1 47.5 32.2 47.8 L33.3 47.9 Q34.25 47.9 34.95 47.5 L36.15 46.5 36.85 45.1 37.0 44.4 37.0 43.0 36.9 42.55 36.85 42.1 36.8 42.1 Q36.5 40.95 35.85 40.05 L35.8 40.0 Z" fill="none" stroke="#000000" stroke-linecap="round" stroke-linejoin="round" stroke-opacity="0.34901962" stroke-width="0.05"/>
    <path d="M27.6 36.25 L28.1 35.95 28.2 35.9 Q29.4 35.25 30.9 35.25 L33.1 35.65 33.15 35.65 34.2 36.1 34.35 36.2 36.3 37.7 37.05 38.55 37.1 38.65 37.45 39.1 Q38.4 40.45 38.85 42.05 L38.9 42.1 39.05 42.8 39.1 43.05 39.2 43.6 39.3 44.85 39.25 44.65 39.15 43.85 38.95 43.1 38.95 43.05 38.9 43.0 Q38.35 41.05 36.95 39.4 L36.9 39.35 36.85 39.25 36.05 38.45 33.7 36.75 33.1 36.5 32.5 36.25 32.45 36.25 29.95 35.85 27.6 36.25" fill="#fbfbfb" fill-rule="evenodd" stroke="none"/>
    <path d="M33.1 36.5 L33.7 36.75 36.05 38.45 36.85 39.25 24.8 42.75 24.75 42.15 Q24.75 40.65 25.25 39.35 L25.3 39.3 25.9 38.05 33.1 36.5" fill="#8de0d6" fill-rule="evenodd" stroke="none"/>
    <path d="M27.6 36.25 L29.95 35.85 32.45 36.25 32.5 36.25 33.1 36.5 25.9 38.05 26.15 37.7 25.35 37.6 27.6 36.25 M36.85 39.25 L36.9 39.35 36.95 39.4 Q38.35 41.05 38.9 43.0 L38.95 43.05 38.95 43.1 25.3 45.55 25.05 44.6 24.85 43.6 24.8 42.75 36.85 39.25 M25.25 39.35 L25.3 39.3 25.25 39.35" fill="#e8dfd8" fill-rule="evenodd" stroke="none"/>
    <path d="M38.95 43.1 L39.15 43.85 39.25 44.65 39.3 44.85 39.25 45.95 39.0 47.1 38.8 47.8 29.2 50.65 27.75 49.45 27.65 49.3 Q26.0 47.65 25.3 45.55 L38.95 43.1" fill="#6096a0" fill-rule="evenodd" stroke="none"/>
    <path d="M29.2 50.65 L38.8 47.8 37.9 49.45 Q37.05 50.6 35.95 51.2 35.2 51.6 33.3 52.75 33.75 51.85 33.15 51.85 L31.4 51.65 Q30.25 51.35 29.2 50.65" fill="#9f939d" fill-rule="evenodd" stroke="none"/>
    <path d="M37.05 38.55 L36.3 37.7 34.35 36.2 34.2 36.1 33.15 35.65 33.1 35.65 30.9 35.25 Q29.4 35.25 28.2 35.9 L28.1 35.95 27.6 36.25 M39.3 44.85 L39.2 43.6 39.1 43.05 39.05 42.8 38.9 42.1 38.85 42.05 Q38.4 40.45 37.45 39.1 L37.1 38.65 37.05 38.55 M25.25 39.35 Q24.75 40.65 24.75 42.15 L24.8 42.75 24.85 43.6 25.05 44.6 25.3 45.55 Q26.0 47.65 27.65 49.3 L27.75 49.45 29.2 50.65 Q30.25 51.35 31.4 51.65 L33.15 51.85 Q33.75 51.85 33.3 52.75 35.2 51.6 35.95 51.2 37.05 50.6 37.9 49.45 L38.8 47.8 39.0 47.1 39.25 45.95 39.3 44.85 M25.25 39.35 L25.3 39.3 25.9 38.05 26.15 37.7 25.35 37.6 27.6 36.25" fill="none" stroke="#000000" stroke-linecap="round" stroke-linejoin="round" stroke-opacity="0.34901962" stroke-width="0.05"/>
    <path d="M25.75 37.3 L25.85 37.25 Q27.05 36.6 28.5 36.6 L30.7 36.95 30.8 37.0 29.95 42.0 31.55 42.75 34.7 39.9 34.75 39.95 Q35.95 41.5 36.5 43.4 L36.5 43.45 31.7 44.4 32.1 46.2 36.65 48.4 Q36.3 49.7 35.5 50.8 34.7 51.95 33.6 52.55 L31.3 47.55 29.75 47.95 29.0 53.0 Q27.05 52.45 25.4 50.8 L25.25 50.65 28.45 46.75 27.25 45.3 22.65 45.9 22.5 44.9 22.4 43.5 Q22.4 41.95 22.9 40.65 L27.3 43.65 28.2 42.25 25.75 37.3" fill="#9f939d" fill-rule="evenodd" stroke="none"/>
    <path d="M25.75 37.3 L28.2 42.25 27.3 43.65 22.9 40.65 23.8 39.05 Q24.65 37.9 25.75 37.3 M22.65 45.9 L27.25 45.3 28.45 46.75 25.25 50.65 Q23.3 48.65 22.65 45.9 M29.0 53.0 L29.75 47.95 31.3 47.55 33.6 52.55 Q32.35 53.2 30.8 53.2 L29.0 53.0 M36.65 48.4 L32.1 46.2 31.7 44.4 36.5 43.45 36.7 44.15 36.8 44.9 Q37.0 46.15 36.85 47.3 L36.65 48.4 M34.7 39.9 L31.55 42.75 29.95 42.0 30.8 37.0 31.85 37.45 Q32.9 38.05 33.9 39.05 L34.7 39.9" fill="#6096a0" fill-rule="evenodd" stroke="none"/>
    <path d="M22.9 40.65 Q22.4 41.95 22.4 43.5 L22.5 44.9 22.65 45.9 Q23.3 48.65 25.25 50.65 L25.4 50.8 Q27.05 52.45 29.0 53.0 L30.8 53.2 Q32.35 53.2 33.6 52.55 M22.9 40.65 L23.8 39.05 Q24.65 37.9 25.75 37.3" fill="none" stroke="#000000" stroke-linecap="round" stroke-linejoin="round" stroke-opacity="0.34901962" stroke-width="0.05"/>
    <path d="M25.4 42.1 L25.95 41.15 27.15 40.1 27.2 40.1 Q27.9 39.7 28.8 39.7 L30.05 39.95 30.1 39.95 30.75 40.25 31.95 41.15 32.4 41.65 32.45 41.7 Q33.1 42.6 33.4 43.75 L33.45 43.75 33.5 44.2 33.6 44.65 33.6 46.05 33.45 46.75 32.75 48.15 31.55 49.15 29.9 49.55 28.8 49.45 Q27.7 49.15 26.7 48.15 L26.65 48.05 Q25.55 46.85 25.2 45.25 L25.1 44.65 25.05 43.8 Q25.1 42.9 25.4 42.15 L25.4 42.1 25.4 42.15 25.4 42.1" fill="#9f939d" fill-rule="evenodd" stroke="none"/>
    <path d="M32.4 41.65 L31.95 41.15 30.75 40.25 30.1 39.95 30.05 39.95 28.8 39.7 Q27.9 39.7 27.2 40.1 L27.15 40.1 25.95 41.15 25.4 42.1 25.4 42.15 Q25.1 42.9 25.05 43.8 L25.1 44.65 25.2 45.25 Q25.55 46.85 26.65 48.05 L26.7 48.15 Q27.7 49.15 28.8 49.45 L29.9 49.55 31.55 49.15 32.75 48.15 33.45 46.75 33.6 46.05 33.6 44.65 33.5 44.2 33.45 43.75 33.4 43.75 Q33.1 42.6 32.45 41.7 L32.4 41.65 Z" fill="none" stroke="#000000" stroke-linecap="round" stroke-linejoin="round" stroke-opacity="0.34901962" stroke-width="0.05"/>
    <path d="M45.25 42.7 L45.15 43.15 Q38.2 46.35 35.5 45.4 L43.05 42.95 45.25 42.7" fill="#f7e3dd" fill-rule="evenodd" stroke="none"/>
    <path d="M44.25 45.6 L43.65 46.55 43.65 46.75 Q37.1 49.65 37.7 55.9 L36.6 56.2 Q37.25 52.8 36.6 48.05 L36.8 48.05 44.25 45.6" fill="#784a12" fill-rule="evenodd" stroke="none"/>
    <path d="M45.15 43.15 Q44.9 44.35 44.25 45.6 L36.8 48.05 36.6 48.05 34.15 47.75 30.4 47.3 Q28.6 45.95 31.35 44.8 L35.5 45.4 Q38.2 46.35 45.15 43.15" fill="url(#gradient4)" fill-rule="evenodd" stroke="none"/>
    <path d="M21.45 45.5 L21.35 43.8 21.35 43.25 21.3 42.3 22.3 42.6 22.45 42.65 24.3 43.2 31.35 44.8 Q28.6 45.95 30.4 47.3 L21.45 45.5" fill="#946224" fill-rule="evenodd" stroke="none"/>
    <path d="M36.6 56.2 Q29.85 56.3 25.35 54.6 22.2 53.65 21.9 51.8 22.15 47.25 34.15 47.75 L36.6 48.05 Q37.25 52.8 36.6 56.2" fill="#af7435" fill-rule="evenodd" stroke="none"/>
    <path d="M21.9 51.8 L21.85 51.6 21.45 45.5 30.4 47.3 34.15 47.75 Q22.15 47.25 21.9 51.8" fill="#794c16" fill-rule="evenodd" stroke="none"/>
    <path d="M43.65 46.75 L43.8 51.75 Q44.05 53.85 37.7 55.9 37.1 49.65 43.65 46.75" fill="#8d5a1d" fill-rule="evenodd" stroke="none"/>
    <path d="M45.25 42.7 L45.15 43.15 Q44.9 44.35 44.25 45.6 L43.65 46.55 43.65 46.75 43.8 51.75 Q44.05 53.85 37.7 55.9 L36.6 56.2 Q29.85 56.3 25.35 54.6 22.2 53.65 21.9 51.8 L21.85 51.6 21.45 45.5 21.35 43.8 21.35 43.25 21.3 42.3 M22.3 42.6 L22.45 42.65 24.3 43.2 31.35 44.8 35.5 45.4 43.05 42.95" fill="none" stroke="#000000" stroke-linecap="round" stroke-linejoin="round" stroke-opacity="0.34901962" stroke-width="0.05"/>
    <path d="M31.05 49.55 Q31.95 50.5 31.95 51.75 31.95 53.05 31.05 53.95 30.2 54.85 28.95 54.85 27.75 54.85 26.85 53.95 26.0 53.05 26.0 51.75 26.0 50.5 26.85 49.55 27.75 48.65 28.95 48.65 30.2 48.65 31.05 49.55" fill="#6eb6b5" fill-rule="evenodd" stroke="none"/>
    <path d="M30.25 53.05 Q29.75 53.55 29.1 53.55 28.45 53.55 27.95 53.05 27.5 52.6 27.5 51.9 27.5 51.2 27.95 50.75 28.45 50.25 29.1 50.25 29.75 50.25 30.25 50.75 30.7 51.2 30.7 51.9 30.7 52.6 30.25 53.05" fill="#c6bcbb" fill-rule="evenodd" stroke="none"/>
    <path d="M23.15 39.25 L23.35 39.35 Q29.55 43.6 27.1 45.85 22.85 49.05 17.8 44.5 17.1 43.55 17.05 42.4 17.0 40.3 18.9 37.6 20.35 37.4 23.15 39.25" fill="url(#gradient5)" fill-rule="evenodd" stroke="none"/>
    <path d="M23.15 39.25 L23.35 39.35 Q29.55 43.6 27.1 45.85 22.85 49.05 17.8 44.5 17.1 43.55 17.05 42.4 17.0 40.3 18.9 37.6" fill="none" stroke="#000000" stroke-linecap="round" stroke-linejoin="round" stroke-opacity="0.34901962" stroke-width="0.05"/>
    <path d="M23.95 45.4 L26.3 46.15" fill="none" stroke="#d53e05" stroke-linecap="round" stroke-linejoin="round" stroke-width="0.05"/>
    <path d="M25.85 43.2 L27.6 44.65" fill="none" stroke="#d53e05" stroke-linecap="round" stroke-linejoin="round" stroke-width="0.05"/>
    <path d="M19.8 39.1 L19.7 39.9 19.35 40.55 Q19.15 40.8 18.95 40.75 L18.65 40.35 Q18.6 40.0 18.7 39.6 L19.1 38.9 Q19.3 38.65 19.5 38.7 L19.8 39.1" fill="#faf6f3" fill-rule="evenodd" stroke="none"/>
    <path d="M23.4 23.55 Q21.25 24.7 19.2 23.3 17.7 15.45 19.2 13.7 21.75 12.1 25.85 14.5 28.55 15.55 27.5 18.6 27.45 16.9 26.55 16.3 22.4 13.9 22.05 16.65 21.6 21.9 23.4 23.55" fill="url(#gradient6)" fill-rule="evenodd" stroke="none"/>
    <path d="M27.5 18.6 L26.35 20.9 Q24.85 22.8 23.4 23.55 21.6 21.9 22.05 16.65 22.4 13.9 26.55 16.3 27.45 16.9 27.5 18.6" fill="#aee7e0" fill-rule="evenodd" stroke="none"/>
    <path d="M19.2 23.3 Q17.7 15.45 19.2 13.7 21.75 12.1 25.85 14.5" fill="none" stroke="#000000" stroke-linecap="round" stroke-linejoin="round" stroke-opacity="0.34901962" stroke-width="0.05"/>
    <path d="M20.2 16.9 L19.75 17.3 19.3 16.9 19.1 16.0 19.3 15.1 19.75 14.7 20.2 15.1 20.35 16.0 20.2 16.9" fill="#e7ecb2" fill-rule="evenodd" stroke="none"/>
    <path d="M21.8 28.4 L21.05 29.2 20.3 29.1 Q20.0 28.8 20.0 28.2 20.0 27.55 20.3 27.0 20.6 26.45 21.05 26.25 L21.8 26.35 Q22.15 26.65 22.1 27.25 L21.8 28.4" fill="#fcf8f7" fill-rule="evenodd" stroke="none"/>
    <path d="M38.8 15.8 L40.6 18.8 Q40.4 20.0 39.65 20.0 L38.8 15.8" fill="#504e37" fill-rule="evenodd" stroke="none"/>
    <path d="M43.15 18.9 L43.85 14.75 44.5 18.1 Q43.9 19.5 43.15 18.9" fill="#504e37" fill-rule="evenodd" stroke="none"/>
    <path d="M34.3 28.05 Q31.9 28.3 30.35 30.55 31.35 26.6 34.2 26.4 37.0 26.25 37.9 29.75 36.55 28.0 34.3 28.05" fill="#504e37" fill-rule="evenodd" stroke="none"/>
    <path d="M43.2 27.1 Q42.55 22.0 44.05 20.95 45.5 19.85 46.25 21.95 45.3 21.65 44.65 22.25 43.6 24.2 43.2 27.1" fill="#504e37" fill-rule="evenodd" stroke="none"/>
    <path d="M38.2 32.55 L41.15 33.3 43.05 31.15" fill="none" stroke="#d53e05" stroke-linecap="round" stroke-linejoin="round" stroke-width="0.05"/>
    <path d="M40.95 30.05 L41.15 33.3" fill="none" stroke="#d53e05" stroke-linecap="round" stroke-linejoin="round" stroke-width="0.05"/>
    <path d="M41.4 30.75 Q38.85 30.2 39.7 29.35 40.35 28.6 42.2 28.4 42.9 28.9 41.4 30.75" fill="#e6b1a3" fill-rule="evenodd" stroke="none"/>
    <path d="M30.45 25.55 L27.15 22.7 30.55 24.0 Q31.1 25.15 30.45 25.55" fill="#504e37" fill-rule="evenodd" stroke="none"/>
    <path d="M33.35 19.4 L34.45 22.9 Q34.05 24.4 33.25 23.85 L33.35 19.4" fill="#504e37" fill-rule="evenodd" stroke="none"/>
  </g>
  <defs>
    <radialGradient cx="0" cy="0" gradientTransform="matrix(0.0261, 0.0, -3.0E-4, 0.0132, 32.85, 44.3)" gradientUnits="userSpaceOnUse" id="gradient0" r="819.2" spreadMethod="pad">
      <stop offset="0.7294117647058823" stop-color="#000000" stop-opacity="0.29803923"/>
      <stop offset="1.0" stop-color="#000000" stop-opacity="0.0"/>
    </radialGradient>
    <radialGradient cx="0" cy="0" gradientTransform="matrix(0.0176, 0.0, 0.0, 0.0176, 4.95, 28.1)" gradientUnits="userSpaceOnUse" id="gradient1" r="819.2" spreadMethod="pad">
      <stop offset="0.5490196078431373" stop-color="#dcd3ce"/>
      <stop offset="1.0" stop-color="#a599a3"/>
    </radialGradient>
    <radialGradient cx="0" cy="0" gradientTransform="matrix(0.0245, -0.0014, 0.0, 0.0177, 33.7, 33.8)" gradientUnits="userSpaceOnUse" id="gradient2" r="819.2" spreadMethod="pad">
      <stop offset="0.9254901960784314" stop-color="#e8dfd8"/>
      <stop offset="1.0" stop-color="#a79ba5"/>
    </radialGradient>
    <radialGradient cx="0" cy="0" gradientTransform="matrix(0.0225, -0.0013, 0.0, 0.019, 33.15, 20.5)" gradientUnits="userSpaceOnUse" id="gradient3" r="819.2" spreadMethod="pad">
      <stop offset="0.9254901960784314" stop-color="#e8dfd8"/>
      <stop offset="1.0" stop-color="#b3a8b0"/>
    </radialGradient>
    <radialGradient cx="0" cy="0" gradientTransform="matrix(0.008, 0.0, 0.0, 0.008, 40.15, 43.15)" gradientUnits="userSpaceOnUse" id="gradient4" r="819.2" spreadMethod="pad">
      <stop offset="0.5490196078431373" stop-color="#d9b48a"/>
      <stop offset="1.0" stop-color="#cd9156"/>
    </radialGradient>
    <radialGradient cx="0" cy="0" gradientTransform="matrix(0.0074, 0.0, 0.0, 0.0074, 23.55, 39.8)" gradientUnits="userSpaceOnUse" id="gradient5" r="819.2" spreadMethod="pad">
      <stop offset="0.9254901960784314" stop-color="#e8dfd8"/>
      <stop offset="1.0" stop-color="#a79ba5"/>
    </radialGradient>
    <radialGradient cx="0" cy="0" gradientTransform="matrix(0.0079, 0.0, 0.0, 0.0079, 24.9, 15.85)" gradientUnits="userSpaceOnUse" id="gradient6" r="819.2" spreadMethod="pad">
      <stop offset="0.6196078431372549" stop-color="#858772"/>
      <stop offset="1.0" stop-color="#656148"/>
    </radialGradient>
  </defs>
</svg>
