<?xml version="1.0" encoding="UTF-8" standalone="no"?>
<svg xmlns:xlink="http://www.w3.org/1999/xlink" height="180.0px" width="180.0px" xmlns="http://www.w3.org/2000/svg">
  <g transform="matrix(3.0, 0.0, 0.0, 3.0, 0.0, 0.0)">
    <path d="M60.0 0.0 L60.0 60.0 0.0 60.0 0.0 0.0 60.0 0.0" fill="#795fa9" fill-opacity="0.0" fill-rule="evenodd" stroke="none"/>
    <path d="M56.7 25.35 Q56.75 26.25 54.1 26.6 L53.15 30.05 Q52.3 32.3 51.1 33.6 52.85 35.95 52.85 38.8 52.85 40.85 51.95 42.75 50.6 45.5 47.3 47.9 42.75 51.1 36.7 52.0 L36.3 53.0 36.2 53.15 Q35.1 54.9 32.35 55.3 28.6 56.05 26.4 53.35 L25.6 51.55 Q22.85 50.85 20.55 49.45 17.55 47.65 16.2 45.35 14.4 45.1 12.45 44.15 7.75 41.85 5.8 37.05 5.1 35.35 4.75 33.55 4.15 30.4 4.7 27.0 5.6 21.85 9.15 19.4 L11.05 18.6 Q15.2 17.45 17.95 21.35 L18.95 19.35 Q18.5 15.0 19.55 13.8 21.05 12.85 23.2 13.35 28.3 7.65 34.35 8.35 L34.5 8.4 35.8 8.6 36.5 7.75 Q39.45 4.15 42.15 4.85 43.9 5.9 44.85 12.85 L45.4 13.3 45.8 13.65 Q49.75 17.45 50.3 22.15 55.05 21.45 56.7 25.35 Z" fill="none" stroke="#000000" stroke-linecap="round" stroke-linejoin="round" stroke-opacity="0.29803923" stroke-width="1.0"/>
    <path d="M45.65 26.65 Q47.15 24.05 49.7 22.3 54.95 21.2 56.7 25.35 56.7 26.25 54.05 26.65 L53.1 30.05 Q49.3 33.2 45.65 26.65" fill="#c0b6b7" fill-rule="evenodd" stroke="none"/>
    <path d="M53.1 30.05 Q51.7 33.75 49.45 34.8 44.45 34.55 44.15 30.7 44.6 28.45 45.65 26.65 49.3 33.2 53.1 30.05" fill="#817686" fill-rule="evenodd" stroke="none"/>
    <path d="M45.65 26.65 Q47.15 24.05 49.7 22.3 54.95 21.2 56.7 25.35 56.7 26.25 54.05 26.65 L53.1 30.05 Q51.7 33.75 49.45 34.8 44.45 34.55 44.15 30.7 44.6 28.45 45.65 26.65 Z" fill="none" stroke="#000000" stroke-linecap="round" stroke-linejoin="round" stroke-opacity="0.34901962" stroke-width="0.05"/>
    <path d="M54.55 24.35 L56.0 25.6" fill="none" stroke="#d53e05" stroke-linecap="round" stroke-linejoin="round" stroke-width="0.05"/>
    <path d="M18.35 36.85 Q24.6 33.7 33.35 33.7 42.1 33.7 48.2 36.85 54.3 39.95 54.2 44.4 54.15 48.8 47.9 51.95 41.65 55.1 32.9 55.1 24.2 55.1 18.05 51.95 11.95 48.8 12.05 44.4 12.15 39.95 18.35 36.85" fill="url(#gradient0)" fill-rule="evenodd" stroke="none"/>
    <path d="M4.7 33.6 Q4.1 30.4 4.7 27.05 5.55 21.9 9.1 19.4 L11.0 18.65 Q17.65 16.8 20.7 27.8 L21.1 28.95 Q17.35 26.1 12.85 26.85 6.65 28.2 4.7 33.6" fill="#d7c227" fill-rule="evenodd" stroke="none"/>
    <path d="M21.1 28.95 L21.65 30.55 23.95 38.3 Q24.7 41.25 23.2 43.05 L21.1 44.6 Q17.1 46.45 12.4 44.15 7.7 41.85 5.75 37.1 5.05 35.4 4.7 33.6 6.65 28.2 12.85 26.85 17.35 26.1 21.1 28.95" fill="url(#gradient1)" fill-rule="evenodd" stroke="none"/>
    <path d="M4.7 33.6 Q4.1 30.4 4.7 27.05 5.55 21.9 9.1 19.4 L11.0 18.65 Q17.65 16.8 20.7 27.8 L21.1 28.95 21.65 30.55 23.95 38.3 Q24.7 41.25 23.2 43.05 L21.1 44.6 Q17.1 46.45 12.4 44.15 7.7 41.85 5.75 37.1 5.05 35.4 4.7 33.6 Z" fill="none" stroke="#000000" stroke-linecap="round" stroke-linejoin="round" stroke-opacity="0.34901962" stroke-width="0.05"/>
    <path d="M51.9 42.75 Q50.6 45.55 47.25 47.9 41.75 51.85 33.9 52.3 26.05 52.75 20.5 49.45 15.0 46.2 15.0 41.05 15.0 35.95 20.5 32.0 26.05 28.05 33.9 27.6 41.75 27.15 47.25 30.45 49.35 31.7 50.65 33.2 48.85 41.85 51.9 42.75" fill="url(#gradient2)" fill-rule="evenodd" stroke="none"/>
    <path d="M50.65 33.2 Q52.8 35.65 52.8 38.85 52.8 40.9 51.9 42.75 48.85 41.85 50.65 33.2" fill="url(#gradient3)" fill-rule="evenodd" stroke="none"/>
    <path d="M51.9 42.75 Q50.6 45.55 47.25 47.9 41.75 51.85 33.9 52.3 26.05 52.75 20.5 49.45 15.0 46.2 15.0 41.05 15.0 35.95 20.5 32.0 26.05 28.05 33.9 27.6 41.75 27.15 47.25 30.45 49.35 31.7 50.65 33.2 52.8 35.65 52.8 38.85 52.8 40.9 51.9 42.75 Z" fill="none" stroke="#000000" stroke-linecap="round" stroke-linejoin="round" stroke-opacity="0.34901962" stroke-width="0.05"/>
    <path d="M45.05 25.8 Q49.15 29.0 49.0 32.55 48.9 36.1 44.75 38.05 40.65 40.0 34.45 39.65 28.25 39.3 23.9 37.1 19.6 34.9 19.6 31.55 19.6 28.25 24.4 24.35 29.2 20.5 35.05 21.6 40.9 22.6 45.05 25.8" fill="#c53e06" fill-rule="evenodd" stroke="none"/>
    <path d="M45.05 25.8 Q49.15 29.0 49.0 32.55 48.9 36.1 44.75 38.05 40.65 40.0 34.45 39.65 28.25 39.3 23.9 37.1 19.6 34.9 19.6 31.55 19.6 28.25 24.4 24.35 29.2 20.5 35.05 21.6 40.9 22.6 45.05 25.8 Z" fill="none" stroke="#000000" stroke-linecap="round" stroke-linejoin="round" stroke-opacity="0.34901962" stroke-width="0.05"/>
    <path d="M21.15 32.6 Q21.15 29.7 25.65 26.1 30.15 22.5 35.6 23.1 41.1 23.7 44.95 26.25 48.75 28.8 48.65 31.85 48.55 34.95 44.7 36.85 40.8 38.8 35.0 38.8 29.2 38.8 25.2 37.15 21.15 35.45 21.15 32.6" fill="#8b2a00" fill-rule="evenodd" stroke="none"/>
    <path d="M32.6 52.25 L33.4 40.4 Q37.15 47.7 40.9 50.8 37.55 52.15 32.6 52.25" fill="url(#gradient4)" fill-rule="evenodd" stroke="none"/>
    <path d="M25.3 40.6 L24.9 41.45 24.65 42.4 24.75 43.9 Q30.35 42.25 25.85 49.4 L27.05 52.45 Q29.25 55.15 33.05 54.45 35.05 54.1 36.2 53.1 L36.25 53.05 36.15 53.2 Q35.05 54.95 32.3 55.35 28.55 56.1 26.35 53.4 L25.15 50.5 Q24.25 47.7 23.95 44.2 L23.9 43.4 23.9 43.35 24.15 42.35 Q24.55 41.35 25.3 40.6" fill="#9b6e22" fill-rule="evenodd" stroke="none"/>
    <path d="M24.9 41.45 L25.3 40.6 Q26.25 39.65 27.8 39.15 31.9 38.15 34.0 40.7 36.8 46.0 36.8 51.3 L36.25 53.05 36.2 53.1 36.4 52.15 36.4 52.1 Q36.4 46.8 33.6 41.5 31.5 39.0 27.4 40.0 25.85 40.5 24.9 41.45" fill="#f6f483" fill-rule="evenodd" stroke="none"/>
    <path d="M36.2 53.1 Q35.05 54.1 33.05 54.45 29.25 55.15 27.05 52.45 L25.85 49.4 Q30.35 42.25 24.75 43.9 L24.65 42.4 24.9 41.45 Q25.85 40.5 27.4 40.0 31.5 39.0 33.6 41.5 36.4 46.8 36.4 52.1 L36.4 52.15 36.2 53.1" fill="url(#gradient5)" fill-rule="evenodd" stroke="none"/>
    <path d="M25.3 40.6 Q24.55 41.35 24.15 42.35 L23.9 43.35 23.9 43.4 23.95 44.2 Q24.25 47.7 25.15 50.5 L26.35 53.4 Q28.55 56.1 32.3 55.35 35.05 54.95 36.15 53.2 L36.25 53.05 36.8 51.3 Q36.8 46.0 34.0 40.7 31.9 38.15 27.8 39.15 26.25 39.65 25.3 40.6 Z" fill="none" stroke="#000000" stroke-linecap="round" stroke-linejoin="round" stroke-opacity="0.34901962" stroke-width="0.05"/>
    <path d="M33.85 45.2 L31.7 47.15 34.5 46.5 33.2 48.3 34.75 49.25 31.15 49.35 30.5 51.75 29.85 49.6 27.7 50.0 29.0 47.6 27.1 47.8 28.85 46.35 28.6 44.5 30.35 42.8 30.75 45.4 33.05 42.7 32.35 45.1 33.85 45.2" fill="#5e483a" fill-rule="evenodd" stroke="none"/>
    <path d="M30.2 40.1 Q30.35 39.7 30.9 39.65 L32.1 39.85 Q32.75 40.1 33.1 40.55 33.45 41.0 33.3 41.35 L32.6 41.8 31.35 41.65 Q30.75 41.35 30.4 40.9 30.05 40.45 30.2 40.1" fill="#f6f483" fill-rule="evenodd" stroke="none"/>
    <path d="M23.35 39.15 L23.55 39.3 Q29.75 43.5 27.3 45.75 23.05 49.0 17.95 44.45 17.3 43.5 17.25 42.3 17.2 40.25 19.05 37.55 20.55 37.3 23.35 39.15" fill="url(#gradient6)" fill-rule="evenodd" stroke="none"/>
    <path d="M23.35 39.15 L23.55 39.3 Q29.75 43.5 27.3 45.75 23.05 49.0 17.95 44.45 17.3 43.5 17.25 42.3 17.2 40.25 19.05 37.55" fill="none" stroke="#000000" stroke-linecap="round" stroke-linejoin="round" stroke-opacity="0.34901962" stroke-width="0.05"/>
    <path d="M24.15 45.35 L26.5 46.05" fill="none" stroke="#d53e05" stroke-linecap="round" stroke-linejoin="round" stroke-width="0.05"/>
    <path d="M26.05 43.1 L27.8 44.6" fill="none" stroke="#d53e05" stroke-linecap="round" stroke-linejoin="round" stroke-width="0.05"/>
    <path d="M19.8 39.05 L19.75 39.8 19.4 40.5 18.95 40.7 18.7 40.25 18.75 39.5 Q18.85 39.1 19.1 38.85 19.35 38.6 19.55 38.65 L19.8 39.05" fill="#faf6f3" fill-rule="evenodd" stroke="none"/>
    <path d="M44.15 14.95 Q41.85 16.85 37.9 14.1 33.65 10.35 36.45 7.8 39.4 4.2 42.15 4.85 39.05 11.95 44.15 14.95" fill="#5f5d46" fill-rule="evenodd" stroke="none"/>
    <path d="M44.15 14.95 Q39.05 11.95 42.15 4.85 44.0 6.05 44.95 14.1 L44.15 14.95" fill="#c19148" fill-rule="evenodd" stroke="none"/>
    <path d="M42.15 4.85 Q39.4 4.2 36.45 7.8 33.65 10.35 37.9 14.1 41.85 16.85 44.15 14.95 M42.15 4.85 Q44.0 6.05 44.95 14.1 L44.15 14.95" fill="none" stroke="#000000" stroke-linecap="round" stroke-linejoin="round" stroke-opacity="0.34901962" stroke-width="0.05"/>
    <path d="M21.3 15.75 L22.05 14.7 Q27.6 7.6 34.35 8.4 L34.45 8.4 Q37.05 8.7 39.3 9.6 L34.95 9.15 Q27.4 9.25 21.3 15.75" fill="#faf6f3" fill-rule="evenodd" stroke="none"/>
    <path d="M45.4 13.35 L45.8 13.7 Q50.5 18.2 50.35 24.0 50.25 29.8 45.5 33.65 40.7 37.55 33.6 37.95 26.45 38.4 21.5 35.5 16.55 32.65 16.55 27.2 16.55 22.2 21.3 15.75 27.4 9.25 34.95 9.15 37.2 11.95 45.4 13.35" fill="url(#gradient7)" fill-rule="evenodd" stroke="none"/>
    <path d="M39.3 9.6 Q42.65 10.85 45.4 13.35 37.2 11.95 34.95 9.15 L39.3 9.6" fill="#fce523" fill-rule="evenodd" stroke="none"/>
    <path d="M21.3 15.75 L22.05 14.7 Q27.6 7.6 34.35 8.4 L34.45 8.4 Q37.05 8.7 39.3 9.6 42.65 10.85 45.4 13.35 L45.8 13.7 Q50.5 18.2 50.35 24.0 50.25 29.8 45.5 33.65 40.7 37.55 33.6 37.95 26.45 38.4 21.5 35.5 16.55 32.65 16.55 27.2 16.55 22.2 21.3 15.75 Z" fill="none" stroke="#000000" stroke-linecap="round" stroke-linejoin="round" stroke-opacity="0.34901962" stroke-width="0.05"/>
    <path d="M23.65 23.7 Q21.9 22.05 22.35 16.8 22.7 14.05 26.8 16.45 27.7 17.0 27.8 18.75 L26.65 21.05 Q25.1 22.95 23.65 23.7" fill="#d6b154" fill-rule="evenodd" stroke="none"/>
    <path d="M27.8 18.75 Q27.7 17.0 26.8 16.45 22.7 14.05 22.35 16.8 21.9 22.05 23.65 23.7 21.5 24.8 19.5 23.45 18.0 15.55 19.5 13.8 22.0 12.25 26.1 14.65 28.85 15.7 27.8 18.75" fill="url(#gradient8)" fill-rule="evenodd" stroke="none"/>
    <path d="M26.1 14.65 Q22.0 12.25 19.5 13.8 18.0 15.55 19.5 23.45" fill="none" stroke="#000000" stroke-linecap="round" stroke-linejoin="round" stroke-opacity="0.34901962" stroke-width="0.05"/>
    <path d="M20.35 16.9 L19.9 17.3 Q19.6 17.3 19.45 16.9 L19.25 16.0 19.45 15.1 Q19.6 14.7 19.9 14.7 L20.35 15.1 20.5 16.0 20.35 16.9" fill="#c2bd6b" fill-rule="evenodd" stroke="none"/>
    <path d="M21.8 28.55 L21.0 29.3 Q20.6 29.5 20.3 29.15 20.0 28.9 19.95 28.25 L20.25 27.1 Q20.6 26.5 21.05 26.35 L21.75 26.45 22.1 27.35 21.8 28.55" fill="#fcf8f7" fill-rule="evenodd" stroke="none"/>
    <path d="M38.85 15.65 L40.7 18.65 Q40.45 19.9 39.7 19.85 L38.85 15.65" fill="#504e37" fill-rule="evenodd" stroke="none"/>
    <path d="M43.2 18.75 L43.95 14.6 44.6 17.95 Q44.0 19.35 43.2 18.75" fill="#504e37" fill-rule="evenodd" stroke="none"/>
    <path d="M34.35 27.95 Q31.95 28.2 30.35 30.45 31.4 26.5 34.25 26.25 37.05 26.15 37.95 29.65 36.6 27.9 34.35 27.95" fill="#504e37" fill-rule="evenodd" stroke="none"/>
    <path d="M43.25 27.0 Q42.6 21.85 44.15 20.8 45.6 19.75 46.35 21.85 45.4 21.5 44.7 22.15 43.65 24.1 43.25 27.0" fill="#504e37" fill-rule="evenodd" stroke="none"/>
    <path d="M38.5 32.2 L41.45 32.9 43.35 30.8" fill="none" stroke="#d53e05" stroke-linecap="round" stroke-linejoin="round" stroke-width="0.05"/>
    <path d="M41.2 29.7 L41.45 32.9" fill="none" stroke="#d53e05" stroke-linecap="round" stroke-linejoin="round" stroke-width="0.05"/>
    <path d="M41.4 30.55 Q38.85 29.95 39.7 29.15 40.35 28.35 42.2 28.2 42.9 28.65 41.4 30.55" fill="#e6b1a3" fill-rule="evenodd" stroke="none"/>
    <path d="M30.5 25.45 L27.15 22.55 30.6 23.9 Q31.15 25.05 30.5 25.45" fill="#504e37" fill-rule="evenodd" stroke="none"/>
    <path d="M33.4 19.3 L34.5 22.75 Q34.1 24.3 33.25 23.7 L33.4 19.3" fill="#504e37" fill-rule="evenodd" stroke="none"/>
  </g>
  <defs>
    <radialGradient cx="0" cy="0" gradientTransform="matrix(0.0261, 0.0, -3.0E-4, 0.0132, 33.1, 44.35)" gradientUnits="userSpaceOnUse" id="gradient0" r="819.2" spreadMethod="pad">
      <stop offset="0.7294117647058823" stop-color="#000000" stop-opacity="0.29803923"/>
      <stop offset="1.0" stop-color="#000000" stop-opacity="0.0"/>
    </radialGradient>
    <radialGradient cx="0" cy="0" gradientTransform="matrix(0.0176, 0.0, 0.0, 0.0176, 5.15, 28.25)" gradientUnits="userSpaceOnUse" id="gradient1" r="819.2" spreadMethod="pad">
      <stop offset="0.5490196078431373" stop-color="#dcd3ce"/>
      <stop offset="1.0" stop-color="#a599a3"/>
    </radialGradient>
    <radialGradient cx="0" cy="0" gradientTransform="matrix(0.0246, -0.0014, 0.0, 0.0178, 33.85, 33.8)" gradientUnits="userSpaceOnUse" id="gradient2" r="819.2" spreadMethod="pad">
      <stop offset="0.9254901960784314" stop-color="#e8dfd8"/>
      <stop offset="1.0" stop-color="#a79ba5"/>
    </radialGradient>
    <radialGradient cx="0" cy="0" gradientTransform="matrix(0.0246, -0.0014, 0.0, 0.0178, 33.85, 33.8)" gradientUnits="userSpaceOnUse" id="gradient3" r="819.2" spreadMethod="pad">
      <stop offset="0.9254901960784314" stop-color="#f7e722"/>
      <stop offset="1.0" stop-color="#c3ae1d"/>
    </radialGradient>
    <radialGradient cx="0" cy="0" gradientTransform="matrix(0.0088, 0.0, 0.0, 0.0088, 33.7, 45.45)" gradientUnits="userSpaceOnUse" id="gradient4" r="819.2" spreadMethod="pad">
      <stop offset="0.5647058823529412" stop-color="#8c808e"/>
      <stop offset="1.0" stop-color="#8c808e" stop-opacity="0.0"/>
    </radialGradient>
    <radialGradient cx="0" cy="0" gradientTransform="matrix(0.01, 0.0, 0.0, 0.01, 32.85, 37.8)" gradientUnits="userSpaceOnUse" id="gradient5" r="819.2" spreadMethod="pad">
      <stop offset="0.5647058823529412" stop-color="#e5c353"/>
      <stop offset="1.0" stop-color="#c49545"/>
    </radialGradient>
    <radialGradient cx="0" cy="0" gradientTransform="matrix(0.0074, 0.0, 0.0, 0.0074, 23.75, 39.7)" gradientUnits="userSpaceOnUse" id="gradient6" r="819.2" spreadMethod="pad">
      <stop offset="0.9254901960784314" stop-color="#e8dfd8"/>
      <stop offset="1.0" stop-color="#a79ba5"/>
    </radialGradient>
    <radialGradient cx="0" cy="0" gradientTransform="matrix(0.0225, -0.0013, 0.0, 0.019, 33.35, 20.45)" gradientUnits="userSpaceOnUse" id="gradient7" r="819.2" spreadMethod="pad">
      <stop offset="0.9254901960784314" stop-color="#e8dfd8"/>
      <stop offset="1.0" stop-color="#b3a8b0"/>
    </radialGradient>
    <radialGradient cx="0" cy="0" gradientTransform="matrix(0.0079, 0.0, 0.0, 0.0079, 25.2, 16.0)" gradientUnits="userSpaceOnUse" id="gradient8" r="819.2" spreadMethod="pad">
      <stop offset="0.6196078431372549" stop-color="#7b7a4c"/>
      <stop offset="1.0" stop-color="#656148"/>
    </radialGradient>
  </defs>
</svg>
